500 0 9 0           
7 Unknown 11 ACIS 5.0 NT 24 Fri Mar 26 19:19:46 1999 
-1 9.9999999999999995e-007 1e-010 
body $-1 $9 $-1 $10 #
body $-1 $11 $-1 $12 #
body $-1 $13 $-1 $14 #
body $-1 $15 $-1 $16 #
body $-1 $17 $-1 $18 #
body $-1 $19 $-1 $20 #
body $-1 $21 $-1 $22 #
body $-1 $23 $-1 $24 #
body $-1 $25 $-1 $26 #
lump $-1 $-1 $27 $0 #
transform $-1 1 0 0 0 1 0 0 0 1 73.819391460921054 44.135737116944007 10.899305935938216 1 rotate no_reflect no_shear #
lump $-1 $-1 $28 $1 #
transform $-1 1 0 0 0 1 0 0 0 1 73.819391460921054 44.135737116944007 10.899305935938216 1 rotate no_reflect no_shear #
lump $-1 $-1 $29 $2 #
transform $-1 1 0 0 0 1 0 0 0 1 73.819391460921054 44.135737116944007 10.899305935938216 1 rotate no_reflect no_shear #
lump $-1 $-1 $30 $3 #
transform $-1 1 0 0 0 1 0 0 0 1 73.819391460921054 44.135737116944007 10.899305935938216 1 rotate no_reflect no_shear #
lump $-1 $-1 $31 $4 #
transform $-1 1 0 0 0 1 0 0 0 1 73.819391460921054 44.135737116944007 10.899305935938216 1 rotate no_reflect no_shear #
lump $-1 $-1 $32 $5 #
transform $-1 1 0 0 0 1 0 0 0 1 73.819391460921054 44.135737116944007 10.899305935938216 1 rotate no_reflect no_shear #
lump $-1 $-1 $33 $6 #
transform $-1 1 0 0 0 1 0 0 0 1 73.819391460921054 44.135737116944007 10.899305935938216 1 rotate no_reflect no_shear #
lump $-1 $-1 $34 $7 #
transform $-1 1 0 0 0 1 0 0 0 1 73.819391460921054 44.135737116944007 10.899305935938216 1 rotate no_reflect no_shear #
lump $-1 $-1 $35 $8 #
transform $-1 1 0 0 0 1 0 0 0 1 73.819391460921054 44.135737116944007 10.899305935938216 1 rotate no_reflect no_shear #
shell $-1 $-1 $-1 $36 $-1 $9 #
shell $-1 $-1 $-1 $37 $-1 $11 #
shell $-1 $-1 $-1 $38 $-1 $13 #
shell $-1 $-1 $-1 $39 $-1 $15 #
shell $-1 $-1 $-1 $40 $-1 $17 #
shell $-1 $-1 $-1 $41 $-1 $19 #
shell $-1 $-1 $-1 $42 $-1 $21 #
shell $-1 $-1 $-1 $43 $-1 $23 #
shell $-1 $-1 $-1 $44 $-1 $25 #
face $-1 $45 $46 $27 $-1 $47 forward single #
face $-1 $48 $49 $28 $-1 $50 reversed single #
face $-1 $51 $52 $29 $-1 $53 reversed single #
face $-1 $54 $55 $30 $-1 $56 forward single #
face $-1 $57 $58 $31 $-1 $59 forward single #
face $-1 $60 $61 $32 $-1 $62 reversed single #
face $-1 $63 $64 $33 $-1 $65 forward single #
face $-1 $66 $67 $34 $-1 $68 forward single #
face $-1 $69 $70 $35 $-1 $71 forward single #
face $-1 $72 $73 $27 $-1 $74 reversed single #
loop $-1 $-1 $75 $36 #
plane-surface $-1 0 0 10.899305935938216 0 0 1 1 0 0 forward_v I I I I #
face $-1 $76 $77 $28 $-1 $78 reversed single #
loop $-1 $-1 $79 $37 #
plane-surface $-1 -71.235417392432979 -30.549301719687939 0 0 -1 0 0 0 -1 forward_v I I I I #
face $-1 $80 $81 $29 $-1 $82 reversed single #
loop $-1 $-1 $83 $38 #
plane-surface $-1 88.384041410860561 6.1043036970871505 215.66226195742331 0 -1 0 -0.75470958851134928 0 -0.65605901945558964 forward_v I I I I #
face $-1 $84 $85 $30 $-1 $86 forward single #
loop $-1 $87 $88 $39 #
cone-surface $-1 71.207668983846489 -5.9529038837152299 8.1987836923522384 -0.75470958851134928 0 -0.65605901945558964 0.65605901945558964 0 -0.75470958851134928 1 I I 0 1 1 forward I I I I #
face $-1 $89 $90 $31 $-1 $91 forward single #
loop $-1 $92 $93 $40 #
cone-surface $-1 71.207668983846489 1.2814206647662019 8.1987836923522384 -0.75470958851134928 0 -0.65605901945558964 0.65605901945558964 0 -0.75470958851134928 1 I I 0 1 1 forward I I I I #
face $-1 $94 $95 $32 $-1 $96 reversed single #
loop $-1 $-1 $97 $41 #
plane-surface $-1 -176.3779090267943 8.7337032524985645 111.24308954107791 0 1 0 -0.69465837861970381 0 0.71933979245794832 forward_v I I I I #
face $-1 $98 $99 $33 $-1 $100 forward single #
loop $-1 $101 $102 $42 #
cone-surface $-1 -69.671507288734247 11.276782729764832 6.8159044004361604 0.69465837861970381 0 -0.71933979245794832 0.71933979245794832 0 0.69465837861970381 1 I I 0 1 1 forward I I I I #
face $-1 $103 $104 $34 $-1 $105 forward single #
loop $-1 $106 $107 $43 #
cone-surface $-1 -69.671507288734247 15.091401945664231 6.8159044004361604 0.69465837861970381 0 -0.71933979245794832 0.71933979245794832 0 0.69465837861970381 1 I I 0 1 1 forward I I I I #
face $-1 $108 $109 $35 $-1 $110 forward single #
loop $-1 $111 $112 $44 #
cone-surface $-1 -69.671507288734247 18.906021161563629 6.8159044004361604 0.69465837861970381 0 -0.71933979245794832 0.71933979245794832 0 0.69465837861970381 1 I I 0 1 1 forward I I I I #
face $-1 $113 $114 $27 $-1 $115 reversed single #
loop $-1 $-1 $116 $45 #
plane-surface $-1 0 0 -10.899305935938216 0 0 1 1 0 0 forward_v I I I I #
coedge $-1 $117 $118 $119 $120 forward $46 $-1 #
face $-1 $121 $122 $28 $-1 $123 forward single #
loop $-1 $-1 $124 $48 #
plane-surface $-1 -68.651443323944903 -37.342519418315973 0 -1 0 0 0 0 1 forward_v I I I I #
coedge $-1 $125 $126 $127 $128 forward $49 $-1 #
face $-1 $129 $130 $29 $-1 $131 reversed single #
loop $-1 $-1 $132 $51 #
plane-surface $-1 -23.040363696399311 -2.3357416094745176 118.80250680010292 0.75470958851134928 0 0.65605901945558964 0.65605901945558964 0 -0.75470958851134928 forward_v I I I I #
coedge $-1 $133 $134 $135 $136 reversed $52 $-1 #
face $-1 $-1 $137 $30 $-1 $138 forward single #
loop $-1 $139 $140 $54 #
cone-surface $-1 69.7490597482971 -5.9529038837152299 6.9308340605860224 -0.75470958851134928 0 -0.65605901945558964 0.32802950972779482 0 -0.37735479425567464 1 I I -0.70710678118654746 0.70710678118654746 0.5 forward I I I I #
loop $-1 $-1 $141 $39 #
coedge $-1 $88 $88 $142 $143 reversed $55 $-1 #
face $-1 $-1 $144 $31 $-1 $145 forward single #
loop $-1 $146 $147 $57 #
cone-surface $-1 69.7490597482971 1.2814206647662019 6.9308340605860224 -0.75470958851134928 0 -0.65605901945558964 0.32802950972779482 0 -0.37735479425567464 1 I I -0.70710678118654746 0.70710678118654746 0.5 forward I I I I #
loop $-1 $-1 $148 $40 #
coedge $-1 $93 $93 $149 $150 reversed $58 $-1 #
face $-1 $151 $152 $32 $-1 $153 reversed single #
loop $-1 $-1 $154 $60 #
plane-surface $-1 -73.81939146092104 15.091401945664231 5.0406380753359201 -0.69465837861970381 0 0.71933979245794832 0.71933979245794832 0 0.69465837861970381 forward_v I I I I #
coedge $-1 $155 $156 $157 $158 reversed $61 $-1 #
face $-1 $-1 $159 $33 $-1 $160 forward single #
loop $-1 $161 $162 $63 #
cone-surface $-1 -68.209707942411285 11.276782729764832 5.3021668990062807 0.69465837861970381 0 -0.71933979245794832 0.35966989622897416 0 0.3473291893098519 1 I I -0.70710678118654746 0.70710678118654746 0.5 forward I I I I #
loop $-1 $-1 $163 $42 #
coedge $-1 $102 $102 $164 $165 reversed $64 $-1 #
face $-1 $-1 $166 $34 $-1 $167 forward single #
loop $-1 $168 $169 $66 #
cone-surface $-1 -68.209707942411285 15.091401945664231 5.3021668990062807 0.69465837861970381 0 -0.71933979245794832 0.35966989622897416 0 0.3473291893098519 1 I I -0.70710678118654746 0.70710678118654746 0.5 forward I I I I #
loop $-1 $-1 $170 $43 #
coedge $-1 $107 $107 $171 $172 reversed $67 $-1 #
face $-1 $-1 $173 $35 $-1 $174 forward single #
loop $-1 $175 $176 $69 #
cone-surface $-1 -68.209707942411285 18.906021161563629 5.3021668990062807 0.69465837861970381 0 -0.71933979245794832 0.35966989622897416 0 0.3473291893098519 1 I I -0.70710678118654746 0.70710678118654746 0.5 forward I I I I #
loop $-1 $-1 $177 $44 #
coedge $-1 $112 $112 $178 $179 reversed $70 $-1 #
face $-1 $180 $181 $27 $-1 $182 reversed single #
loop $-1 $-1 $183 $72 #
plane-surface $-1 0 -44.135737116944007 0 0 1 0 0 0 1 forward_v I I I I #
coedge $-1 $184 $185 $186 $187 forward $73 $-1 #
coedge $-1 $188 $75 $189 $190 forward $46 $-1 #
coedge $-1 $75 $188 $191 $192 forward $46 $-1 #
coedge $-1 $193 $194 $75 $120 reversed $195 $-1 #
edge $-1 $196 -44.135737116944007 $197 44.135737116944007 $119 $198 forward 7 unknown #
face $-1 $199 $200 $28 $-1 $201 reversed single #
loop $-1 $-1 $202 $76 #
plane-surface $-1 0 0 10.899305935938216 0 0 1 1 0 0 forward_v I I I I #
coedge $-1 $203 $204 $205 $206 reversed $77 $-1 #
coedge $-1 $207 $79 $208 $209 reversed $49 $-1 #
coedge $-1 $79 $207 $210 $211 reversed $49 $-1 #
coedge $-1 $204 $203 $79 $128 reversed $77 $-1 #
edge $-1 $212 -10.899305935938216 $213 10.899305935938216 $127 $214 forward 7 unknown #
face $-1 $215 $216 $29 $-1 $217 reversed single #
loop $-1 $-1 $218 $80 #
plane-surface $-1 88.384041410860561 -10.775786916036186 215.66226195742331 0 1 0 0.75470958851134928 0 0.65605901945558964 forward_v I I I I #
coedge $-1 $219 $220 $221 $222 reversed $81 $-1 #
coedge $-1 $134 $83 $223 $224 reversed $52 $-1 #
coedge $-1 $83 $133 $219 $225 reversed $52 $-1 #
coedge $-1 $221 $226 $83 $136 forward $227 $-1 #
edge $-1 $228 -29.627370755490773 $229 -26.566434683929089 $135 $230 forward 7 unknown #
loop $-1 $-1 $142 $84 #
plane-surface $-1 -23.040363696399311 -2.3357416094745176 118.80250680010292 0.75470958851134928 0 0.65605901945558964 0.65605901945558964 0 -0.75470958851134928 forward_v I I I I #
loop $-1 $-1 $231 $54 #
coedge $-1 $140 $140 $141 $232 reversed $85 $-1 #
coedge $-1 $141 $141 $140 $232 forward $87 $-1 #
coedge $-1 $142 $142 $88 $143 forward $137 $-1 #
edge $-1 $233 0 $233 6.2831853071796004 $142 $234 forward 7 unknown #
loop $-1 $-1 $149 $89 #
plane-surface $-1 -23.040363696399311 -2.3357416094745176 118.80250680010292 0.75470958851134928 0 0.65605901945558964 0.65605901945558964 0 -0.75470958851134928 forward_v I I I I #
loop $-1 $-1 $235 $57 #
coedge $-1 $147 $147 $148 $236 reversed $90 $-1 #
coedge $-1 $148 $148 $147 $236 forward $92 $-1 #
coedge $-1 $149 $149 $93 $150 forward $144 $-1 #
edge $-1 $237 0 $237 6.2831853071796004 $149 $238 forward 7 unknown #
face $-1 $239 $240 $32 $-1 $241 reversed single #
loop $-1 $-1 $242 $94 #
plane-surface $-1 -176.3779090267943 21.449100638829897 111.24308954107791 0 -1 0 0.69465837861970381 0 -0.71933979245794832 forward_v I I I I #
coedge $-1 $243 $244 $245 $246 reversed $95 $-1 #
coedge $-1 $156 $97 $247 $248 reversed $61 $-1 #
coedge $-1 $97 $155 $243 $249 reversed $61 $-1 #
coedge $-1 $245 $250 $97 $158 forward $251 $-1 #
edge $-1 $252 14.369563052476096 $253 20.436391082823533 $157 $254 forward 7 unknown #
loop $-1 $-1 $164 $98 #
plane-surface $-1 -73.81939146092104 15.091401945664231 5.0406380753359201 -0.69465837861970381 0 0.71933979245794832 0.71933979245794832 0 0.69465837861970381 forward_v I I I I #
loop $-1 $-1 $255 $63 #
coedge $-1 $162 $162 $163 $256 reversed $99 $-1 #
coedge $-1 $163 $163 $162 $256 forward $101 $-1 #
coedge $-1 $164 $164 $102 $165 forward $159 $-1 #
edge $-1 $257 0 $257 6.2831853071796004 $164 $258 forward 7 unknown #
loop $-1 $-1 $171 $103 #
plane-surface $-1 -73.81939146092104 15.091401945664231 5.0406380753359201 -0.69465837861970381 0 0.71933979245794832 0.71933979245794832 0 0.69465837861970381 forward_v I I I I #
loop $-1 $-1 $259 $66 #
coedge $-1 $169 $169 $170 $260 reversed $104 $-1 #
coedge $-1 $170 $170 $169 $260 forward $106 $-1 #
coedge $-1 $171 $171 $107 $172 forward $166 $-1 #
edge $-1 $261 0 $261 6.2831853071796004 $171 $262 forward 7 unknown #
loop $-1 $-1 $178 $108 #
plane-surface $-1 -73.81939146092104 15.091401945664231 5.0406380753359201 -0.69465837861970381 0 0.71933979245794832 0.71933979245794832 0 0.69465837861970381 forward_v I I I I #
loop $-1 $-1 $263 $69 #
coedge $-1 $176 $176 $177 $264 reversed $109 $-1 #
coedge $-1 $177 $177 $176 $264 forward $111 $-1 #
coedge $-1 $178 $178 $112 $179 forward $173 $-1 #
edge $-1 $265 0 $265 6.2831853071796004 $178 $266 forward 7 unknown #
face $-1 $267 $268 $27 $-1 $269 reversed single #
loop $-1 $-1 $270 $113 #
plane-surface $-1 -73.819391460921054 0 0 1 0 0 0 0 -1 forward_v I I I I #
coedge $-1 $271 $191 $272 $273 forward $114 $-1 #
coedge $-1 $274 $116 $271 $275 forward $73 $-1 #
coedge $-1 $116 $274 $276 $277 forward $73 $-1 #
coedge $-1 $194 $193 $116 $187 reversed $195 $-1 #
edge $-1 $278 -44.135737116944007 $279 44.135737116944007 $186 $280 forward 7 unknown #
coedge $-1 $118 $117 $281 $282 forward $46 $-1 #
coedge $-1 $283 $284 $117 $190 reversed $268 $-1 #
edge $-1 $197 -73.819391460921054 $285 73.819391460921054 $189 $286 forward 7 unknown #
coedge $-1 $183 $287 $118 $192 reversed $114 $-1 #
edge $-1 $288 -73.819391460921054 $196 73.819391460921054 $191 $289 forward 7 unknown #
coedge $-1 $186 $119 $287 $290 forward $195 $-1 #
coedge $-1 $119 $186 $283 $291 reversed $195 $-1 #
loop $-1 $-1 $193 $267 #
vertex $-1 $120 $292 #
vertex $-1 $120 $293 #
straight-curve $-1 73.819391460921054 0 10.899305935938216 0 1 0 I I #
face $-1 $294 $295 $28 $-1 $296 reversed single #
loop $-1 $-1 $297 $121 #
plane-surface $-1 -73.819391460921054 0 0 1 0 0 0 0 -1 forward_v I I I I #
coedge $-1 $210 $298 $204 $299 forward $122 $-1 #
coedge $-1 $127 $124 $300 $301 reversed $77 $-1 #
coedge $-1 $124 $127 $202 $299 reversed $77 $-1 #
coedge $-1 $302 $303 $124 $206 forward $304 $-1 #
edge $-1 $305 -10.899305935938216 $306 10.899305935938216 $205 $307 forward 7 unknown #
coedge $-1 $126 $125 $297 $308 reversed $49 $-1 #
coedge $-1 $300 $309 $125 $209 forward $295 $-1 #
edge $-1 $310 -38.201682764704564 $213 -33.033734627728414 $208 $311 forward 7 unknown #
coedge $-1 $312 $202 $126 $211 forward $122 $-1 #
edge $-1 $212 33.033734627728414 $313 38.201682764704564 $210 $314 forward 7 unknown #
vertex $-1 $211 $315 #
vertex $-1 $209 $316 #
straight-curve $-1 -68.651443323944903 -30.549301719687939 0 0 0 -1 I I #
face $-1 $-1 $227 $29 $-1 $317 forward single #
loop $-1 $-1 $318 $129 #
plane-surface $-1 73.819391460921054 0 0 -1 0 0 0 0 1 forward_v I I I I #
coedge $-1 $319 $320 $321 $322 reversed $130 $-1 #
coedge $-1 $323 $132 $134 $225 forward $81 $-1 #
coedge $-1 $132 $323 $319 $324 forward $81 $-1 #
coedge $-1 $321 $135 $132 $222 forward $227 $-1 #
edge $-1 $229 -7.2721745018244093 $325 9.6079161112989269 $221 $326 forward 7 unknown #
coedge $-1 $327 $328 $133 $224 forward $216 $-1 #
edge $-1 $329 -100.4530292858686 $228 -96.93182504277344 $223 $330 forward 7 unknown #
edge $-1 $229 142.97314159874634 $329 147.63878292184211 $134 $331 forward 7 unknown #
coedge $-1 $135 $321 $327 $332 forward $227 $-1 #
loop $-1 $-1 $321 $215 #
vertex $-1 $224 $333 #
vertex $-1 $136 $334 #
straight-curve $-1 44.192020705430281 6.1043036970871505 10.899305935938216 -1 0 0 I I #
coedge $-1 $231 $231 $-1 $335 reversed $139 $-1 #
edge $-1 $336 0 $336 6.2831853071796004 $140 $337 forward 7 unknown #
vertex $-1 $143 $338 #
ellipse-curve $-1 72.288923425140197 -5.9529038837152299 9.1387038143906594 0.75470958851134928 0 0.65605901945558964 0.65605901945558964 0 -0.75470958851134928 1 I I #
coedge $-1 $235 $235 $-1 $339 reversed $146 $-1 #
edge $-1 $340 0 $340 6.2831853071796004 $147 $341 forward 7 unknown #
vertex $-1 $150 $342 #
ellipse-curve $-1 72.288923425140197 1.2814206647662019 9.1387038143906594 0.75470958851134928 0 0.65605901945558964 0.65605901945558964 0 -0.75470958851134928 1 I I #
face $-1 $-1 $251 $32 $-1 $343 forward single #
loop $-1 $-1 $344 $151 #
plane-surface $-1 -73.819391460921054 0 0 1 0 0 0 0 -1 forward_v I I I I #
coedge $-1 $345 $346 $347 $348 reversed $152 $-1 #
coedge $-1 $349 $154 $156 $249 forward $95 $-1 #
coedge $-1 $154 $349 $345 $350 forward $95 $-1 #
coedge $-1 $347 $157 $154 $246 forward $251 $-1 #
edge $-1 $253 1.1880022796664491 $351 13.903399665997782 $245 $352 forward 7 unknown #
coedge $-1 $353 $354 $155 $248 forward $240 $-1 #
edge $-1 $355 -50.580906695203048 $252 -44.722238834600738 $247 $356 forward 7 unknown #
edge $-1 $253 -8.4338835331455382 $355 1.9477141995791963e-014 $156 $357 forward 7 unknown #
coedge $-1 $157 $347 $353 $358 forward $251 $-1 #
loop $-1 $-1 $347 $239 #
vertex $-1 $248 $359 #
vertex $-1 $158 $360 #
straight-curve $-1 -88.18895451339715 8.7337032524985645 10.899305935938216 1 0 0 I I #
coedge $-1 $255 $255 $-1 $361 reversed $161 $-1 #
edge $-1 $362 0 $362 6.2831853071796004 $162 $363 forward 7 unknown #
vertex $-1 $165 $364 #
ellipse-curve $-1 -70.785977445747349 11.276782729764832 7.9699720056370555 -0.69465837861970381 0 0.71933979245794832 0.71933979245794832 0 0.69465837861970381 1 I I #
coedge $-1 $259 $259 $-1 $365 reversed $168 $-1 #
edge $-1 $366 0 $366 6.2831853071796004 $169 $367 forward 7 unknown #
vertex $-1 $172 $368 #
ellipse-curve $-1 -70.785977445747349 15.091401945664231 7.9699720056370555 -0.69465837861970381 0 0.71933979245794832 0.71933979245794832 0 0.69465837861970381 1 I I #
coedge $-1 $263 $263 $-1 $369 reversed $175 $-1 #
edge $-1 $370 0 $370 6.2831853071796004 $176 $371 forward 7 unknown #
vertex $-1 $179 $372 #
ellipse-curve $-1 -70.785977445747349 18.906021161563629 7.9699720056370555 -0.69465837861970381 0 0.71933979245794832 0.71933979245794832 0 0.69465837861970381 1 I I #
face $-1 $-1 $195 $27 $-1 $373 reversed single #
loop $-1 $-1 $283 $180 #
plane-surface $-1 0 44.135737116944007 0 0 -1 0 0 0 -1 forward_v I I I I #
coedge $-1 $374 $281 $284 $375 forward $181 $-1 #
coedge $-1 $287 $183 $184 $275 reversed $114 $-1 #
coedge $-1 $281 $374 $183 $273 reversed $181 $-1 #
edge $-1 $288 -10.899305935938216 $376 10.899305935938216 $272 $377 forward 7 unknown #
coedge $-1 $185 $184 $374 $378 forward $73 $-1 #
edge $-1 $279 -73.819391460921054 $376 73.819391460921054 $271 $379 forward 7 unknown #
coedge $-1 $284 $283 $185 $277 reversed $268 $-1 #
edge $-1 $380 -73.819391460921054 $278 73.819391460921054 $276 $381 forward 7 unknown #
vertex $-1 $187 $382 #
vertex $-1 $290 $383 #
straight-curve $-1 73.819391460921054 0 -10.899305935938216 0 -1 0 I I #
coedge $-1 $270 $272 $188 $282 reversed $181 $-1 #
edge $-1 $285 -44.135737116944007 $288 44.135737116944007 $281 $384 forward 7 unknown #
coedge $-1 $276 $189 $194 $291 forward $268 $-1 #
coedge $-1 $189 $276 $270 $375 reversed $268 $-1 #
vertex $-1 $190 $385 #
straight-curve $-1 0 44.135737116944007 10.899305935938216 -1 0 0 I I #
coedge $-1 $191 $271 $193 $290 reversed $114 $-1 #
vertex $-1 $282 $386 #
straight-curve $-1 0 -44.135737116944007 10.899305935938216 1 0 0 I I #
edge $-1 $196 -10.899305935938216 $279 10.899305935938216 $193 $387 forward 7 unknown #
edge $-1 $197 -10.899305935938216 $278 10.899305935938216 $194 $388 forward 7 unknown #
point $-1 73.819391460921054 -44.135737116944007 10.899305935938216 #
point $-1 73.819391460921054 44.135737116944007 10.899305935938216 #
face $-1 $-1 $304 $28 $-1 $389 reversed single #
loop $-1 $-1 $300 $199 #
plane-surface $-1 0 0 -10.899305935938216 0 0 1 1 0 0 forward_v I I I I #
coedge $-1 $390 $391 $207 $308 forward $200 $-1 #
coedge $-1 $202 $312 $302 $392 forward $122 $-1 #
edge $-1 $306 -25.464477407786021 $212 -11.878042010529953 $202 $393 forward 7 unknown #
coedge $-1 $394 $208 $203 $301 forward $295 $-1 #
edge $-1 $213 11.878042010529953 $305 25.464477407786021 $300 $395 forward 7 unknown #
coedge $-1 $396 $205 $298 $392 reversed $304 $-1 #
coedge $-1 $205 $396 $394 $397 reversed $304 $-1 #
loop $-1 $-1 $205 $294 #
vertex $-1 $397 $398 #
vertex $-1 $206 $399 #
straight-curve $-1 -68.651443323944903 -44.135737116944007 0 0 0 1 I I #
edge $-1 $313 -10.899305935938216 $310 10.899305935938216 $297 $400 forward 7 unknown #
coedge $-1 $208 $394 $390 $401 forward $295 $-1 #
vertex $-1 $209 $402 #
straight-curve $-1 -35.617708696216489 -30.549301719687939 -10.899305935938216 1 0 0 I I #
coedge $-1 $298 $210 $391 $403 forward $122 $-1 #
vertex $-1 $403 $404 #
straight-curve $-1 -35.617708696216489 -30.549301719687939 10.899305935938216 -1 0 0 I I #
point $-1 -68.651443323944903 -30.549301719687939 10.899305935938216 #
point $-1 -68.651443323944903 -30.549301719687939 -10.899305935938216 #
plane-surface $-1 0 0 10.899305935938216 0 0 1 1 0 0 forward_v I I I I #
coedge $-1 $328 $327 $320 $405 forward $216 $-1 #
coedge $-1 $320 $218 $220 $324 reversed $130 $-1 #
coedge $-1 $218 $319 $318 $405 reversed $130 $-1 #
coedge $-1 $226 $221 $218 $322 forward $227 $-1 #
edge $-1 $325 26.566434683929089 $406 29.627370755490773 $321 $407 forward 7 unknown #
coedge $-1 $220 $219 $328 $408 reversed $81 $-1 #
edge $-1 $409 -147.63878292184211 $325 -142.97314159874634 $319 $410 forward 7 unknown #
vertex $-1 $222 $411 #
straight-curve $-1 70.758455389359355 -1.1678708047372588 10.899305935938216 0 -1 0 I I #
coedge $-1 $318 $223 $226 $332 reversed $216 $-1 #
coedge $-1 $223 $318 $323 $408 forward $216 $-1 #
vertex $-1 $224 $412 #
straight-curve $-1 73.819391460921054 6.1043036970871505 107.83113097871166 0 0 1 I I #
straight-curve $-1 -23.040363696399311 6.1043036970871505 118.80250680010292 0.65605901945558964 0 -0.75470958851134928 I I #
edge $-1 $406 -10.775786916036186 $228 6.1043036970871505 $327 $413 forward 7 unknown #
point $-1 73.819391460921054 6.1043036970871505 10.899305935938216 #
point $-1 70.758455389359369 6.1043036970871505 10.899305935938216 #
edge $-1 $414 1 $414 0 $231 $-1 forward 7 unknown #
vertex $-1 $232 $415 #
ellipse-curve $-1 70.12641454255278 -5.9529038837152299 7.2588635703138173 0.75470958851134928 0 0.65605901945558964 0.65605901945558964 0 -0.75470958851134928 1 I I #
point $-1 72.944982444595794 -5.9529038837152299 8.3839942258793112 #
edge $-1 $416 1 $416 0 $235 $-1 forward 7 unknown #
vertex $-1 $236 $417 #
ellipse-curve $-1 70.12641454255278 1.2814206647662019 7.2588635703138173 0.75470958851134928 0 0.65605901945558964 0.65605901945558964 0 -0.75470958851134928 1 I I #
point $-1 72.944982444595794 1.2814206647662019 8.3839942258793112 #
plane-surface $-1 0 0 10.899305935938216 0 0 1 1 0 0 forward_v I I I I #
coedge $-1 $354 $353 $346 $418 forward $240 $-1 #
coedge $-1 $346 $242 $244 $350 reversed $152 $-1 #
coedge $-1 $242 $345 $344 $418 reversed $152 $-1 #
coedge $-1 $250 $245 $242 $348 forward $251 $-1 #
edge $-1 $351 -20.436391082823533 $419 -14.369563052476096 $347 $420 forward 7 unknown #
coedge $-1 $244 $243 $354 $421 reversed $95 $-1 #
edge $-1 $422 -1.9477141995791963e-014 $351 8.4338835331455382 $345 $423 forward 7 unknown #
vertex $-1 $246 $424 #
straight-curve $-1 -67.752563430573616 7.5457009728321154 10.899305935938216 0 1 0 I I #
coedge $-1 $344 $247 $250 $358 reversed $240 $-1 #
coedge $-1 $247 $344 $349 $421 forward $240 $-1 #
vertex $-1 $248 $425 #
straight-curve $-1 -73.819391460921054 8.7337032524985645 55.621544770538954 0 0 1 I I #
straight-curve $-1 -73.81939146092104 8.7337032524985645 5.0406380753359201 -0.71933979245794832 0 -0.69465837861970381 I I #
edge $-1 $419 -21.449100638829897 $252 -8.7337032524985645 $353 $426 forward 7 unknown #
point $-1 -73.819391460921054 8.7337032524985645 10.899305935938216 #
point $-1 -67.752563430573616 8.7337032524985645 10.899305935938216 #
edge $-1 $427 1 $427 0 $255 $-1 forward 7 unknown #
vertex $-1 $256 $428 #
ellipse-curve $-1 -68.557037131721131 11.276782729764832 5.6618367952352546 -0.69465837861970381 0 0.71933979245794832 0.71933979245794832 0 0.69465837861970381 1 I I #
point $-1 -70.066637653289405 11.276782729764832 8.6646303842567711 #
edge $-1 $429 1 $429 0 $259 $-1 forward 7 unknown #
vertex $-1 $260 $430 #
ellipse-curve $-1 -68.557037131721131 15.091401945664231 5.6618367952352546 -0.69465837861970381 0 0.71933979245794832 0.71933979245794832 0 0.69465837861970381 1 I I #
point $-1 -70.066637653289405 15.091401945664231 8.6646303842567711 #
edge $-1 $431 1 $431 0 $263 $-1 forward 7 unknown #
vertex $-1 $264 $432 #
ellipse-curve $-1 -68.557037131721131 18.906021161563629 5.6618367952352546 -0.69465837861970381 0 0.71933979245794832 0.71933979245794832 0 0.69465837861970381 1 I I #
point $-1 -70.066637653289405 18.906021161563629 8.6646303842567711 #
plane-surface $-1 73.819391460921054 0 0 -1 0 0 0 0 1 forward_v I I I I #
coedge $-1 $272 $270 $274 $378 reversed $181 $-1 #
edge $-1 $285 -10.899305935938216 $380 10.899305935938216 $284 $433 forward 7 unknown #
vertex $-1 $378 $434 #
straight-curve $-1 -73.819391460921054 -44.135737116944007 0 0 0 -1 I I #
edge $-1 $376 -44.135737116944007 $380 44.135737116944007 $374 $435 forward 7 unknown #
straight-curve $-1 0 -44.135737116944007 -10.899305935938216 -1 0 0 I I #
vertex $-1 $277 $436 #
straight-curve $-1 0 44.135737116944007 -10.899305935938216 1 0 0 I I #
point $-1 73.819391460921054 44.135737116944007 -10.899305935938216 #
point $-1 73.819391460921054 -44.135737116944007 -10.899305935938216 #
straight-curve $-1 -73.819391460921054 0 10.899305935938216 0 -1 0 I I #
point $-1 -73.819391460921054 44.135737116944007 10.899305935938216 #
point $-1 -73.819391460921054 -44.135737116944007 10.899305935938216 #
straight-curve $-1 73.819391460921054 -44.135737116944007 0 0 0 -1 I I #
straight-curve $-1 73.819391460921054 44.135737116944007 0 0 0 -1 I I #
plane-surface $-1 0 -44.135737116944007 0 0 1 0 0 0 1 forward_v I I I I #
coedge $-1 $437 $297 $309 $401 reversed $200 $-1 #
coedge $-1 $297 $437 $312 $403 reversed $200 $-1 #
edge $-1 $438 -73.819391460921054 $306 -68.651443323944903 $302 $439 forward 7 unknown #
straight-curve $-1 -68.651443323944903 -18.671259709157987 10.899305935938216 0 1 0 I I #
coedge $-1 $309 $300 $303 $397 forward $295 $-1 #
straight-curve $-1 -68.651443323944903 -18.671259709157987 -10.899305935938216 0 -1 0 I I #
coedge $-1 $303 $302 $437 $440 forward $304 $-1 #
edge $-1 $305 68.651443323944903 $441 73.819391460921054 $303 $442 forward 7 unknown #
point $-1 -68.651443323944903 -44.135737116944007 -10.899305935938216 #
point $-1 -68.651443323944903 -44.135737116944007 10.899305935938216 #
straight-curve $-1 -73.819391460921054 -30.549301719687939 0 0 0 -1 I I #
edge $-1 $441 -44.135737116944007 $310 -30.549301719687939 $390 $443 forward 7 unknown #
point $-1 -73.819391460921054 -30.549301719687939 -10.899305935938216 #
edge $-1 $313 30.549301719687939 $438 44.135737116944007 $391 $444 forward 7 unknown #
point $-1 -73.819391460921054 -30.549301719687939 10.899305935938216 #
edge $-1 $406 96.93182504277344 $409 100.4530292858686 $318 $445 forward 7 unknown #
vertex $-1 $332 $446 #
straight-curve $-1 44.192020705430281 -10.775786916036186 10.899305935938216 1 0 0 I I #
edge $-1 $409 -9.6079161112989269 $329 7.2721745018244093 $328 $447 forward 7 unknown #
vertex $-1 $408 $448 #
straight-curve $-1 -23.040363696399311 -10.775786916036186 118.80250680010292 -0.65605901945558964 0 0.75470958851134928 I I #
point $-1 70.758455389359369 -10.775786916036186 10.899305935938216 #
point $-1 73.819391460921054 6.1043036970871505 7.3781016928430603 #
straight-curve $-1 73.819391460921054 0 10.899305935938216 0 1 0 I I #
vertex $-1 $335 $449 #
point $-1 70.782473562008363 -5.9529038837152299 6.5041539818024683 #
vertex $-1 $339 $450 #
point $-1 70.782473562008363 1.2814206647662019 6.5041539818024683 #
edge $-1 $419 44.722238834600738 $422 50.580906695203048 $344 $451 forward 7 unknown #
vertex $-1 $358 $452 #
straight-curve $-1 -88.18895451339715 21.449100638829897 10.899305935938216 -1 0 0 I I #
edge $-1 $422 -13.903399665997782 $355 -1.1880022796664491 $354 $453 forward 7 unknown #
vertex $-1 $421 $454 #
straight-curve $-1 -73.81939146092104 21.449100638829897 5.0406380753359201 0.71933979245794832 0 0.69465837861970381 I I #
point $-1 -67.752563430573616 21.449100638829897 10.899305935938216 #
point $-1 -73.819391460921054 8.7337032524985645 5.0406380753359068 #
straight-curve $-1 -73.819391460921054 0 10.899305935938216 0 -1 0 I I #
vertex $-1 $361 $455 #
point $-1 -67.837697339263187 11.276782729764832 6.3564951738549587 #
vertex $-1 $365 $456 #
point $-1 -67.837697339263187 15.091401945664231 6.3564951738549587 #
vertex $-1 $369 $457 #
point $-1 -67.837697339263187 18.906021161563629 6.3564951738549587 #
straight-curve $-1 -73.819391460921054 44.135737116944007 0 0 0 -1 I I #
point $-1 -73.819391460921054 -44.135737116944007 -10.899305935938216 #
straight-curve $-1 -73.819391460921054 0 -10.899305935938216 0 1 0 I I #
point $-1 -73.819391460921054 44.135737116944007 -10.899305935938216 #
coedge $-1 $391 $390 $396 $440 reversed $200 $-1 #
vertex $-1 $403 $458 #
straight-curve $-1 0 -44.135737116944007 10.899305935938216 1 0 0 I I #
edge $-1 $438 -10.899305935938216 $441 10.899305935938216 $437 $459 forward 7 unknown #
vertex $-1 $401 $460 #
straight-curve $-1 0 -44.135737116944007 -10.899305935938216 -1 0 0 I I #
straight-curve $-1 -73.819391460921054 0 -10.899305935938216 0 1 0 I I #
straight-curve $-1 -73.819391460921054 0 10.899305935938216 0 -1 0 I I #
straight-curve $-1 73.819391460921054 -10.775786916036186 107.83113097871166 0 0 -1 I I #
point $-1 73.819391460921054 -10.775786916036186 10.899305935938216 #
straight-curve $-1 73.819391460921054 -1.1678708047372588 7.3781016928430461 0 1 0 I I #
point $-1 73.819391460921054 -10.775786916036186 7.3781016928430603 #
point $-1 69.371704954041419 -5.9529038837152299 6.6028045508582274 #
point $-1 69.371704954041419 1.2814206647662019 6.6028045508582274 #
straight-curve $-1 -73.819391460921054 21.449100638829897 55.621544770538954 0 0 -1 I I #
point $-1 -73.819391460921054 21.449100638829897 10.899305935938216 #
straight-curve $-1 -73.819391460921054 7.5457009728321154 5.0406380753359112 0 -1 0 I I #
point $-1 -73.819391460921054 21.449100638829897 5.0406380753359068 #
point $-1 -67.862378753101439 11.276782729764832 4.9424970027773067 #
point $-1 -67.862378753101439 15.091401945664231 4.9424970027773067 #
point $-1 -67.862378753101439 18.906021161563629 4.9424970027773067 #
point $-1 -73.819391460921054 -44.135737116944007 10.899305935938216 #
straight-curve $-1 -73.819391460921054 -44.135737116944007 0 0 0 -1 I I #
point $-1 -73.819391460921054 -44.135737116944007 -10.899305935938216 #
End-of-ACIS-data 