500 0 8 0           
7 Unknown 11 ACIS 5.0 NT 24 Fri Mar 26 00:52:44 1999 
-1 9.9999999999999995e-007 1e-010 
body $-1 $8 $-1 $9 #
body $-1 $10 $-1 $11 #
body $-1 $12 $-1 $13 #
body $-1 $14 $-1 $15 #
body $-1 $16 $-1 $17 #
body $-1 $18 $-1 $19 #
body $-1 $20 $-1 $21 #
body $-1 $22 $-1 $23 #
lump $-1 $-1 $24 $0 #
transform $-1 1 0 0 0 1 0 0 0 1 76.793115024262221 39.851705835705573 13.874941730566725 1 rotate no_reflect no_shear #
lump $-1 $-1 $25 $1 #
transform $-1 1 0 0 0 1 0 0 0 1 76.793115024262221 39.851705835705573 13.874941730566725 1 rotate no_reflect no_shear #
lump $-1 $-1 $26 $2 #
transform $-1 1 0 0 0 1 0 0 0 1 76.793115024262221 39.851705835705573 13.874941730566725 1 rotate no_reflect no_shear #
lump $-1 $-1 $27 $3 #
transform $-1 1 0 0 0 1 0 0 0 1 76.793115024262221 39.851705835705573 13.874941730566725 1 rotate no_reflect no_shear #
lump $-1 $-1 $28 $4 #
transform $-1 1 0 0 0 1 0 0 0 1 76.793115024262221 39.851705835705573 13.874941730566725 1 rotate no_reflect no_shear #
lump $-1 $-1 $29 $5 #
transform $-1 1 0 0 0 1 0 0 0 1 76.793115024262221 39.851705835705573 13.874941730566725 1 rotate no_reflect no_shear #
lump $-1 $-1 $30 $6 #
transform $-1 1 0 0 0 1 0 0 0 1 76.793115024262221 39.851705835705573 13.874941730566725 1 rotate no_reflect no_shear #
lump $-1 $-1 $31 $7 #
transform $-1 1 0 0 0 1 0 0 0 1 76.793115024262221 39.851705835705573 13.874941730566725 1 rotate no_reflect no_shear #
shell $-1 $-1 $-1 $32 $-1 $8 #
shell $-1 $-1 $-1 $33 $-1 $10 #
shell $-1 $-1 $-1 $34 $-1 $12 #
shell $-1 $-1 $-1 $35 $-1 $14 #
shell $-1 $-1 $-1 $36 $-1 $16 #
shell $-1 $-1 $-1 $37 $-1 $18 #
shell $-1 $-1 $-1 $38 $-1 $20 #
shell $-1 $-1 $-1 $39 $-1 $22 #
face $-1 $40 $41 $24 $-1 $42 forward single #
face $-1 $43 $44 $25 $-1 $45 forward single #
face $-1 $46 $47 $26 $-1 $48 reversed single #
face $-1 $49 $50 $27 $-1 $51 forward single #
face $-1 $52 $53 $28 $-1 $54 forward single #
face $-1 $55 $56 $29 $-1 $57 reversed single #
face $-1 $58 $59 $30 $-1 $60 forward single #
face $-1 $61 $62 $31 $-1 $63 forward single #
face $-1 $64 $65 $24 $-1 $66 reversed single #
loop $-1 $-1 $67 $32 #
plane-surface $-1 0 0 13.874941730566725 0 0 1 1 0 0 forward_v I I I I #
face $-1 $68 $69 $25 $-1 $70 reversed single #
loop $-1 $-1 $71 $33 #
plane-surface $-1 -76.793115024262221 0 0 1 0 0 0 0 -1 forward_v I I I I #
face $-1 $72 $73 $26 $-1 $74 reversed single #
loop $-1 $-1 $75 $34 #
plane-surface $-1 -67.321526867707746 125.2503696107196 155.75602898311408 1 0 0 0 -0.83867057594974714 -0.54463902268945019 forward_v I I I I #
face $-1 $76 $77 $27 $-1 $78 forward single #
loop $-1 $79 $80 $35 #
cone-surface $-1 -58.630629014998327 35.963927496686637 8.859906798784694 0 -0.83867057594974714 -0.54463902268945019 2.5 0 0 1 I I 0 1 2.5 forward I I I I #
face $-1 $81 $82 $28 $-1 $83 forward single #
loop $-1 $84 $85 $36 #
cone-surface $-1 -45.594282235934195 35.963927496686637 8.859906798784694 0 -0.83867057594974714 -0.54463902268945019 2.5 0 0 1 I I 0 1 2.5 forward I I I I #
face $-1 $86 $87 $29 $-1 $88 reversed single #
loop $-1 $-1 $89 $37 #
plane-surface $-1 -24.686164245662169 -142.62095431243884 117.21904569506268 -1 0 0 0 -0.66913061440640931 0.74314481823134659 forward_v I I I I #
face $-1 $90 $91 $30 $-1 $92 forward single #
loop $-1 $93 $94 $38 #
cone-surface $-1 -55.139994689980441 -32.167493045695913 6.6005922821367644 0 0.66913061440640931 -0.74314481823134659 1.5 0 0 1 I I 0 1 1.5 forward I I I I #
face $-1 $95 $96 $31 $-1 $97 forward single #
loop $-1 $98 $99 $39 #
cone-surface $-1 -36.867696423389475 -32.167493045695913 6.6005922821367644 0 0.66913061440640931 -0.74314481823134659 1.5 0 0 1 I I 0 1 1.5 forward I I I I #
face $-1 $100 $101 $24 $-1 $102 reversed single #
loop $-1 $-1 $103 $40 #
plane-surface $-1 0 0 -13.874941730566725 0 0 1 1 0 0 forward_v I I I I #
coedge $-1 $104 $105 $106 $107 forward $41 $-1 #
face $-1 $108 $109 $25 $-1 $110 forward single #
loop $-1 $-1 $111 $43 #
plane-surface $-1 0 39.851705835705573 0 0 -1 0 0 0 -1 forward_v I I I I #
coedge $-1 $112 $113 $114 $115 forward $44 $-1 #
face $-1 $116 $117 $26 $-1 $118 reversed single #
loop $-1 $-1 $119 $46 #
plane-surface $-1 -52.112455625466261 -3.557882402026749 72.106974750928657 0 0.83867057594974714 0.54463902268945019 1 0 0 forward_v I I I I #
coedge $-1 $120 $121 $122 $123 reversed $47 $-1 #
face $-1 $-1 $124 $27 $-1 $125 forward single #
loop $-1 $126 $127 $49 #
cone-surface $-1 -58.630629014998327 33.82444345958713 7.4705096642709705 0 -0.83867057594974714 -0.54463902268945019 1.25 0 0 1 I I -0.70710678118654746 0.70710678118654746 1.25 forward I I I I #
loop $-1 $-1 $128 $35 #
coedge $-1 $80 $80 $129 $130 reversed $50 $-1 #
face $-1 $-1 $131 $28 $-1 $132 forward single #
loop $-1 $133 $134 $52 #
cone-surface $-1 -45.594282235934195 33.82444345958713 7.4705096642709705 0 -0.83867057594974714 -0.54463902268945019 1.25 0 0 1 I I -0.70710678118654746 0.70710678118654746 1.25 forward I I I I #
loop $-1 $-1 $135 $36 #
coedge $-1 $85 $85 $136 $137 reversed $53 $-1 #
face $-1 $138 $139 $29 $-1 $140 reversed single #
loop $-1 $-1 $141 $55 #
plane-surface $-1 -46.003845556684958 -39.851705835705559 3.0822346828142031 0 -0.66913061440640931 0.74314481823134659 1 0 0 forward_v I I I I #
coedge $-1 $142 $143 $144 $145 reversed $56 $-1 #
face $-1 $-1 $146 $30 $-1 $147 forward single #
loop $-1 $148 $149 $58 #
cone-surface $-1 -55.139994689980441 -29.97468992242349 4.1652377439095503 0 0.66913061440640931 -0.74314481823134659 0.75 0 0 1 I I -0.70710678118654757 0.70710678118654757 0.75 forward I I I I #
loop $-1 $-1 $150 $38 #
coedge $-1 $94 $94 $151 $152 reversed $59 $-1 #
face $-1 $-1 $153 $31 $-1 $154 forward single #
loop $-1 $155 $156 $61 #
cone-surface $-1 -36.867696423389475 -29.97468992242349 4.1652377439095503 0 0.66913061440640931 -0.74314481823134659 0.75 0 0 1 I I -0.70710678118654757 0.70710678118654757 0.75 forward I I I I #
loop $-1 $-1 $157 $39 #
coedge $-1 $99 $99 $158 $159 reversed $62 $-1 #
face $-1 $160 $161 $24 $-1 $162 reversed single #
loop $-1 $-1 $163 $64 #
plane-surface $-1 0 -39.851705835705573 0 0 1 0 0 0 1 forward_v I I I I #
coedge $-1 $164 $165 $166 $167 forward $65 $-1 #
coedge $-1 $168 $67 $169 $170 forward $41 $-1 #
coedge $-1 $67 $168 $171 $172 forward $41 $-1 #
coedge $-1 $173 $174 $67 $107 reversed $175 $-1 #
edge $-1 $176 -39.851705835705573 $177 39.851705835705573 $106 $178 forward 7 unknown #
face $-1 $179 $180 $25 $-1 $181 reversed single #
loop $-1 $-1 $114 $68 #
plane-surface $-1 -81.528909102539458 0 -3.6702860821257648 0 0 1 1 0 0 forward_v I I I I #
coedge $-1 $182 $183 $113 $184 forward $69 $-1 #
coedge $-1 $185 $71 $186 $187 reversed $44 $-1 #
coedge $-1 $71 $185 $111 $184 reversed $44 $-1 #
coedge $-1 $188 $189 $71 $115 reversed $109 $-1 #
edge $-1 $190 -39.851705835705573 $191 39.851705835705573 $114 $192 forward 7 unknown #
face $-1 $193 $194 $26 $-1 $195 forward single #
loop $-1 $-1 $196 $72 #
plane-surface $-1 -36.903384383224775 125.2503696107196 155.75602898311408 -1 0 0 0 0.83867057594974714 0.54463902268945019 forward_v I I I I #
coedge $-1 $197 $198 $199 $200 reversed $73 $-1 #
coedge $-1 $121 $75 $201 $202 reversed $47 $-1 #
coedge $-1 $75 $120 $197 $203 reversed $47 $-1 #
coedge $-1 $199 $204 $75 $123 forward $194 $-1 #
edge $-1 $205 22.773478969654228 $206 28.36674401336753 $122 $207 forward 7 unknown #
loop $-1 $-1 $129 $76 #
plane-surface $-1 -52.112455625466261 -3.557882402026749 72.106974750928657 0 0.83867057594974714 0.54463902268945019 1 0 0 forward_v I I I I #
loop $-1 $-1 $208 $49 #
coedge $-1 $127 $127 $128 $209 reversed $77 $-1 #
coedge $-1 $128 $128 $127 $209 forward $79 $-1 #
coedge $-1 $129 $129 $80 $130 forward $124 $-1 #
edge $-1 $210 -9.5910660630647942e-016 $210 6.2831853071795996 $129 $211 forward 7 unknown #
loop $-1 $-1 $136 $81 #
plane-surface $-1 -52.112455625466261 -3.557882402026749 72.106974750928657 0 0.83867057594974714 0.54463902268945019 1 0 0 forward_v I I I I #
loop $-1 $-1 $212 $52 #
coedge $-1 $134 $134 $135 $213 reversed $82 $-1 #
coedge $-1 $135 $135 $134 $213 forward $84 $-1 #
coedge $-1 $136 $136 $85 $137 forward $131 $-1 #
edge $-1 $214 -9.5910660630647942e-016 $214 6.2831853071795996 $136 $215 forward 7 unknown #
face $-1 $216 $217 $29 $-1 $218 reversed single #
loop $-1 $-1 $219 $86 #
plane-surface $-1 -67.321526867707746 -142.62095431243884 117.21904569506268 1 0 0 0 0.66913061440640931 -0.74314481823134659 forward_v I I I I #
coedge $-1 $220 $221 $222 $223 reversed $87 $-1 #
coedge $-1 $143 $89 $224 $225 reversed $56 $-1 #
coedge $-1 $89 $142 $220 $226 reversed $56 $-1 #
coedge $-1 $222 $227 $89 $145 forward $228 $-1 #
edge $-1 $229 31.458771320513847 $230 43.445286575597962 $144 $231 forward 7 unknown #
loop $-1 $-1 $151 $90 #
plane-surface $-1 -46.003845556684958 -39.851705835705559 3.0822346828142031 0 -0.66913061440640931 0.74314481823134659 1 0 0 forward_v I I I I #
loop $-1 $-1 $232 $58 #
coedge $-1 $149 $149 $150 $233 reversed $91 $-1 #
coedge $-1 $150 $150 $149 $233 forward $93 $-1 #
coedge $-1 $151 $151 $94 $152 forward $146 $-1 #
edge $-1 $234 -2.2860230560822437e-015 $234 6.2831853071795978 $151 $235 forward 7 unknown #
loop $-1 $-1 $158 $95 #
plane-surface $-1 -46.003845556684958 -39.851705835705559 3.0822346828142031 0 -0.66913061440640931 0.74314481823134659 1 0 0 forward_v I I I I #
loop $-1 $-1 $236 $61 #
coedge $-1 $156 $156 $157 $237 reversed $96 $-1 #
coedge $-1 $157 $157 $156 $237 forward $98 $-1 #
coedge $-1 $158 $158 $99 $159 forward $153 $-1 #
edge $-1 $238 -2.2860230560822437e-015 $238 6.2831853071795978 $158 $239 forward 7 unknown #
face $-1 $240 $241 $24 $-1 $242 reversed single #
loop $-1 $-1 $243 $100 #
plane-surface $-1 -76.793115024262221 0 0 1 0 0 0 0 -1 forward_v I I I I #
coedge $-1 $244 $171 $245 $246 forward $101 $-1 #
coedge $-1 $247 $103 $244 $248 forward $65 $-1 #
coedge $-1 $103 $247 $249 $250 forward $65 $-1 #
coedge $-1 $174 $173 $103 $167 reversed $175 $-1 #
edge $-1 $251 -39.851705835705573 $252 39.851705835705573 $166 $253 forward 7 unknown #
coedge $-1 $105 $104 $254 $255 forward $41 $-1 #
coedge $-1 $256 $257 $104 $170 reversed $241 $-1 #
edge $-1 $177 -76.793115024262221 $258 76.793115024262221 $169 $259 forward 7 unknown #
coedge $-1 $163 $260 $105 $172 reversed $101 $-1 #
edge $-1 $261 -76.793115024262221 $176 76.793115024262221 $171 $262 forward 7 unknown #
coedge $-1 $166 $106 $260 $263 forward $175 $-1 #
coedge $-1 $106 $166 $256 $264 reversed $175 $-1 #
loop $-1 $-1 $173 $240 #
vertex $-1 $107 $265 #
vertex $-1 $107 $266 #
straight-curve $-1 76.793115024262221 0 13.874941730566725 0 1 0 I I #
face $-1 $267 $268 $25 $-1 $269 reversed single #
loop $-1 $-1 $270 $108 #
plane-surface $-1 -81.528909102539458 0 -9.9420629292010521 0 0 1 1 0 0 forward_v I I I I #
coedge $-1 $271 $111 $272 $273 reversed $69 $-1 #
coedge $-1 $111 $271 $188 $274 reversed $69 $-1 #
edge $-1 $190 3.6702860821257648 $275 9.9420629292010521 $111 $276 forward 7 unknown #
coedge $-1 $113 $112 $270 $277 forward $44 $-1 #
coedge $-1 $278 $279 $112 $187 forward $280 $-1 #
edge $-1 $281 -9.9420629292010521 $191 -3.6702860821257648 $186 $282 forward 7 unknown #
coedge $-1 $283 $114 $183 $274 forward $109 $-1 #
coedge $-1 $114 $283 $278 $284 forward $109 $-1 #
vertex $-1 $184 $285 #
vertex $-1 $284 $286 #
straight-curve $-1 -76.793115024262221 0 -3.6702860821257648 0 -1 0 I I #
face $-1 $-1 $287 $26 $-1 $288 reversed single #
loop $-1 $-1 $122 $116 #
plane-surface $-1 0 0 13.874941730566725 0 0 1 1 0 0 forward_v I I I I #
coedge $-1 $289 $290 $291 $292 reversed $117 $-1 #
coedge $-1 $293 $119 $121 $203 forward $73 $-1 #
coedge $-1 $119 $293 $289 $294 forward $73 $-1 #
coedge $-1 $291 $122 $119 $200 forward $194 $-1 #
edge $-1 $206 -41.265299054974619 $295 -10.847156570491645 $199 $296 forward 7 unknown #
coedge $-1 $297 $298 $120 $202 forward $287 $-1 #
edge $-1 $299 -72.615945912250623 $205 -64.003072760990307 $201 $300 forward 7 unknown #
edge $-1 $206 69.433737978010541 $299 79.703411671411217 $121 $301 forward 7 unknown #
coedge $-1 $122 $291 $297 $302 forward $194 $-1 #
vertex $-1 $202 $303 #
vertex $-1 $123 $304 #
straight-curve $-1 -67.321526867707746 62.625184805359801 13.874941730566732 0 -1 0 I I #
coedge $-1 $208 $208 $-1 $305 reversed $126 $-1 #
edge $-1 $306 0 $306 6.2831853071796004 $127 $307 forward 7 unknown #
vertex $-1 $130 $308 #
ellipse-curve $-1 -58.630629014998327 37.055073313848922 9.5685051549365827 0 0.83867057594974714 0.54463902268945019 2.5 0 0 1 I I #
coedge $-1 $212 $212 $-1 $309 reversed $133 $-1 #
edge $-1 $310 0 $310 6.2831853071796004 $134 $311 forward 7 unknown #
vertex $-1 $137 $312 #
ellipse-curve $-1 -45.594282235934195 37.055073313848922 9.5685051549365827 0 0.83867057594974714 0.54463902268945019 2.5 0 0 1 I I #
face $-1 $-1 $228 $29 $-1 $313 forward single #
loop $-1 $-1 $314 $138 #
plane-surface $-1 0 -39.851705835705573 0 0 1 0 0 0 1 forward_v I I I I #
coedge $-1 $315 $316 $317 $318 reversed $139 $-1 #
coedge $-1 $319 $141 $143 $226 forward $87 $-1 #
coedge $-1 $141 $319 $315 $320 forward $87 $-1 #
coedge $-1 $317 $144 $141 $223 forward $228 $-1 #
edge $-1 $230 1.6842414673196906 $321 44.319604089365271 $222 $322 forward 7 unknown #
coedge $-1 $323 $324 $142 $225 forward $217 $-1 #
edge $-1 $325 -55.527288164717149 $229 -44.734581116964613 $224 $326 forward 7 unknown #
edge $-1 $230 -16.129447398437765 $325 1.9178179933549516e-014 $143 $327 forward 7 unknown #
coedge $-1 $144 $317 $323 $328 forward $228 $-1 #
loop $-1 $-1 $317 $216 #
vertex $-1 $225 $329 #
vertex $-1 $145 $330 #
straight-curve $-1 -24.686164245662169 -71.31047715621942 13.874941730566725 0 1 0 I I #
coedge $-1 $232 $232 $-1 $331 reversed $148 $-1 #
edge $-1 $332 0 $332 6.2831853071796004 $149 $333 forward 7 unknown #
vertex $-1 $152 $334 #
ellipse-curve $-1 -55.139994689980441 -33.858448208163516 8.478588206690457 0 -0.66913061440640931 0.74314481823134659 1.5 0 0 1 I I #
coedge $-1 $236 $236 $-1 $335 reversed $155 $-1 #
edge $-1 $336 0 $336 6.2831853071796004 $156 $337 forward 7 unknown #
vertex $-1 $159 $338 #
ellipse-curve $-1 -36.867696423389475 -33.858448208163516 8.478588206690457 0 -0.66913061440640931 0.74314481823134659 1.5 0 0 1 I I #
face $-1 $-1 $175 $24 $-1 $339 reversed single #
loop $-1 $-1 $256 $160 #
plane-surface $-1 0 39.851705835705573 0 0 -1 0 0 0 -1 forward_v I I I I #
coedge $-1 $340 $254 $257 $341 forward $161 $-1 #
coedge $-1 $260 $163 $164 $248 reversed $101 $-1 #
coedge $-1 $254 $340 $163 $246 reversed $161 $-1 #
edge $-1 $261 -13.874941730566725 $342 13.874941730566725 $245 $343 forward 7 unknown #
coedge $-1 $165 $164 $340 $344 forward $65 $-1 #
edge $-1 $252 -76.793115024262221 $342 76.793115024262221 $244 $345 forward 7 unknown #
coedge $-1 $257 $256 $165 $250 reversed $241 $-1 #
edge $-1 $346 -76.793115024262221 $251 76.793115024262221 $249 $347 forward 7 unknown #
vertex $-1 $167 $348 #
vertex $-1 $263 $349 #
straight-curve $-1 76.793115024262221 0 -13.874941730566725 0 -1 0 I I #
coedge $-1 $243 $245 $168 $255 reversed $161 $-1 #
edge $-1 $258 -39.851705835705573 $261 39.851705835705573 $254 $350 forward 7 unknown #
coedge $-1 $249 $169 $174 $264 forward $241 $-1 #
coedge $-1 $169 $249 $243 $341 reversed $241 $-1 #
vertex $-1 $170 $351 #
straight-curve $-1 0 39.851705835705573 13.874941730566725 -1 0 0 I I #
coedge $-1 $171 $244 $173 $263 reversed $101 $-1 #
vertex $-1 $255 $352 #
straight-curve $-1 0 -39.851705835705573 13.874941730566725 1 0 0 I I #
edge $-1 $176 -13.874941730566725 $252 13.874941730566725 $173 $353 forward 7 unknown #
edge $-1 $177 -13.874941730566725 $251 13.874941730566725 $174 $354 forward 7 unknown #
point $-1 76.793115024262221 -39.851705835705573 13.874941730566725 #
point $-1 76.793115024262221 39.851705835705573 13.874941730566725 #
face $-1 $-1 $280 $25 $-1 $355 reversed single #
loop $-1 $-1 $356 $179 #
plane-surface $-1 -86.264703180816696 0 -6.8061745056634084 1 0 0 0 0 -1 forward_v I I I I #
coedge $-1 $357 $272 $185 $277 reversed $180 $-1 #
coedge $-1 $183 $182 $356 $358 reversed $69 $-1 #
coedge $-1 $270 $359 $182 $273 forward $180 $-1 #
edge $-1 $360 -4.7357940782772374 $275 4.7357940782772374 $182 $361 forward 7 unknown #
edge $-1 $190 -4.7357940782772374 $362 4.7357940782772374 $183 $363 forward 7 unknown #
vertex $-1 $184 $364 #
straight-curve $-1 -76.793115024262221 39.851705835705573 0 0 0 -1 I I #
edge $-1 $281 -39.851705835705573 $275 39.851705835705573 $270 $365 forward 7 unknown #
coedge $-1 $366 $186 $189 $284 reversed $280 $-1 #
coedge $-1 $186 $366 $357 $367 reversed $280 $-1 #
loop $-1 $-1 $186 $267 #
vertex $-1 $187 $368 #
straight-curve $-1 -76.793115024262221 -39.851705835705573 0 0 0 1 I I #
coedge $-1 $189 $188 $369 $370 forward $109 $-1 #
edge $-1 $371 -4.7357940782772374 $191 4.7357940782772374 $278 $372 forward 7 unknown #
point $-1 -76.793115024262221 39.851705835705573 -3.6702860821257648 #
point $-1 -76.793115024262221 -39.851705835705573 -3.6702860821257648 #
loop $-1 $-1 $201 $193 #
plane-surface $-1 0 39.851705835705573 0 0 -1 0 0 0 -1 forward_v I I I I #
coedge $-1 $290 $196 $198 $294 reversed $117 $-1 #
coedge $-1 $196 $289 $373 $374 reversed $117 $-1 #
coedge $-1 $204 $199 $196 $292 forward $194 $-1 #
edge $-1 $295 -28.36674401336753 $375 -22.773478969654228 $291 $376 forward 7 unknown #
coedge $-1 $198 $197 $298 $377 reversed $73 $-1 #
edge $-1 $378 -79.703411671411217 $295 -69.433737978010541 $289 $379 forward 7 unknown #
vertex $-1 $200 $380 #
straight-curve $-1 -26.05622781273313 34.258440791992271 13.874941730566725 1 0 0 I I #
coedge $-1 $373 $201 $204 $302 reversed $287 $-1 #
coedge $-1 $201 $373 $293 $377 forward $287 $-1 #
vertex $-1 $202 $381 #
straight-curve $-1 -67.321526867707746 39.851705835705573 77.878014491557039 0 0 1 I I #
straight-curve $-1 -67.321526867707746 -3.557882402026749 72.106974750928657 0 0.54463902268945019 -0.83867057594974714 I I #
edge $-1 $375 36.903384383224775 $205 67.321526867707746 $297 $382 forward 7 unknown #
point $-1 -67.321526867707746 39.851705835705573 13.874941730566725 #
point $-1 -67.321526867707746 34.258440791992271 13.874941730566725 #
edge $-1 $383 1 $383 0 $208 $-1 forward 7 unknown #
vertex $-1 $209 $384 #
ellipse-curve $-1 -58.630629014998327 34.872781679524316 8.151308442632784 0 0.83867057594974714 0.54463902268945019 2.5 0 0 1 I I #
point $-1 -56.130629014998327 37.055073313848951 9.568505154936604 #
edge $-1 $385 1 $385 0 $212 $-1 forward 7 unknown #
vertex $-1 $213 $386 #
ellipse-curve $-1 -45.594282235934195 34.872781679524316 8.151308442632784 0 0.83867057594974714 0.54463902268945019 2.5 0 0 1 I I #
point $-1 -43.094282235934195 37.055073313848951 9.568505154936604 #
plane-surface $-1 0 0 13.874941730566725 0 0 1 1 0 0 forward_v I I I I #
coedge $-1 $324 $323 $316 $387 forward $217 $-1 #
coedge $-1 $316 $219 $221 $320 reversed $139 $-1 #
coedge $-1 $219 $315 $314 $387 reversed $139 $-1 #
coedge $-1 $227 $222 $219 $318 forward $228 $-1 #
edge $-1 $321 -43.445286575597962 $388 -31.458771320513847 $317 $389 forward 7 unknown #
coedge $-1 $221 $220 $324 $390 reversed $87 $-1 #
edge $-1 $391 -1.9178179933549516e-014 $321 16.129447398437765 $315 $392 forward 7 unknown #
vertex $-1 $223 $393 #
straight-curve $-1 -23.001922778342479 -27.865190580621459 13.874941730566725 -1 0 0 I I #
coedge $-1 $314 $224 $227 $328 reversed $217 $-1 #
coedge $-1 $224 $314 $319 $390 forward $217 $-1 #
vertex $-1 $225 $394 #
straight-curve $-1 -24.686164245662169 -39.851705835705573 58.609522847531338 0 0 1 I I #
straight-curve $-1 -24.686164245662169 -39.851705835705559 3.0822346828142031 0 -0.74314481823134659 -0.66913061440640931 I I #
edge $-1 $388 -67.321526867707746 $229 -24.686164245662169 $323 $395 forward 7 unknown #
point $-1 -24.686164245662169 -39.851705835705573 13.874941730566725 #
point $-1 -24.686164245662169 -27.865190580621459 13.874941730566725 #
edge $-1 $396 1 $396 0 $232 $-1 forward 7 unknown #
vertex $-1 $233 $397 #
ellipse-curve $-1 -55.139994689980441 -30.476537883228296 4.7225963575830603 0 -0.66913061440640931 0.74314481823134659 1.5 0 0 1 I I #
point $-1 -53.639994689980441 -33.85844820816353 8.4785882066904676 #
edge $-1 $398 1 $398 0 $236 $-1 forward 7 unknown #
vertex $-1 $237 $399 #
ellipse-curve $-1 -36.867696423389475 -30.476537883228296 4.7225963575830603 0 -0.66913061440640931 0.74314481823134659 1.5 0 0 1 I I #
point $-1 -35.367696423389475 -33.85844820816353 8.4785882066904676 #
plane-surface $-1 76.793115024262221 0 0 -1 0 0 0 0 1 forward_v I I I I #
coedge $-1 $245 $243 $247 $344 reversed $161 $-1 #
edge $-1 $258 -13.874941730566725 $346 13.874941730566725 $257 $400 forward 7 unknown #
vertex $-1 $344 $401 #
straight-curve $-1 -76.793115024262221 -39.851705835705573 0 0 0 -1 I I #
edge $-1 $342 -39.851705835705573 $346 39.851705835705573 $340 $402 forward 7 unknown #
straight-curve $-1 0 -39.851705835705573 -13.874941730566725 -1 0 0 I I #
vertex $-1 $250 $403 #
straight-curve $-1 0 39.851705835705573 -13.874941730566725 1 0 0 I I #
point $-1 76.793115024262221 39.851705835705573 -13.874941730566725 #
point $-1 76.793115024262221 -39.851705835705573 -13.874941730566725 #
straight-curve $-1 -76.793115024262221 0 13.874941730566725 0 -1 0 I I #
point $-1 -76.793115024262221 39.851705835705573 13.874941730566725 #
point $-1 -76.793115024262221 -39.851705835705573 13.874941730566725 #
straight-curve $-1 76.793115024262221 -39.851705835705573 0 0 0 -1 I I #
straight-curve $-1 76.793115024262221 39.851705835705573 0 0 0 -1 I I #
plane-surface $-1 0 -39.851705835705573 0 0 1 0 0 0 1 forward_v I I I I #
coedge $-1 $404 $369 $271 $358 forward $268 $-1 #
coedge $-1 $359 $270 $279 $367 forward $180 $-1 #
edge $-1 $362 -3.1358884235376436 $360 3.1358884235376436 $271 $405 forward 7 unknown #
coedge $-1 $272 $357 $404 $406 forward $180 $-1 #
vertex $-1 $273 $407 #
straight-curve $-1 -81.528909102539458 39.851705835705573 -9.9420629292010521 1 0 0 I I #
vertex $-1 $274 $408 #
straight-curve $-1 -81.528909102539458 39.851705835705573 -3.6702860821257648 -1 0 0 I I #
point $-1 -76.793115024262221 39.851705835705573 -9.9420629292010521 #
straight-curve $-1 -76.793115024262221 0 -9.9420629292010521 0 1 0 I I #
coedge $-1 $279 $278 $409 $410 forward $280 $-1 #
edge $-1 $281 -4.7357940782772374 $411 4.7357940782772374 $279 $412 forward 7 unknown #
point $-1 -76.793115024262221 -39.851705835705573 -9.9420629292010521 #
coedge $-1 $356 $409 $283 $370 reversed $268 $-1 #
edge $-1 $362 -39.851705835705573 $371 39.851705835705573 $369 $413 forward 7 unknown #
vertex $-1 $370 $414 #
straight-curve $-1 -81.528909102539458 -39.851705835705573 -3.6702860821257648 1 0 0 I I #
coedge $-1 $298 $297 $290 $374 forward $287 $-1 #
edge $-1 $375 64.003072760990307 $378 72.615945912250623 $373 $415 forward 7 unknown #
vertex $-1 $302 $416 #
straight-curve $-1 -36.903384383224775 62.625184805359801 13.874941730566732 0 1 0 I I #
edge $-1 $378 10.847156570491645 $299 41.265299054974619 $298 $417 forward 7 unknown #
vertex $-1 $377 $418 #
straight-curve $-1 -36.903384383224775 -3.557882402026749 72.106974750928657 0 -0.54463902268945019 0.83867057594974714 I I #
point $-1 -36.903384383224775 34.258440791992271 13.874941730566725 #
point $-1 -67.321526867707746 39.851705835705573 5.2620685793064155 #
straight-curve $-1 0 39.851705835705573 13.874941730566725 -1 0 0 I I #
vertex $-1 $305 $419 #
point $-1 -56.130629014998327 34.872781679524316 8.151308442632784 #
vertex $-1 $309 $420 #
point $-1 -43.094282235934195 34.872781679524316 8.151308442632784 #
edge $-1 $388 44.734581116964613 $391 55.527288164717149 $314 $421 forward 7 unknown #
vertex $-1 $328 $422 #
straight-curve $-1 -67.321526867707746 -71.31047715621942 13.874941730566725 0 -1 0 I I #
edge $-1 $391 -44.319604089365271 $325 -1.6842414673196906 $324 $423 forward 7 unknown #
vertex $-1 $390 $424 #
straight-curve $-1 -67.321526867707746 -39.851705835705559 3.0822346828142031 0 0.74314481823134659 0.66913061440640931 I I #
point $-1 -67.321526867707746 -27.865190580621459 13.874941730566725 #
point $-1 -24.686164245662169 -39.851705835705573 3.0822346828141902 #
straight-curve $-1 0 -39.851705835705573 13.874941730566725 1 0 0 I I #
vertex $-1 $331 $425 #
point $-1 -53.639994689980441 -30.476537883228296 4.7225963575830603 #
vertex $-1 $335 $426 #
point $-1 -35.367696423389475 -30.476537883228296 4.7225963575830603 #
straight-curve $-1 -76.793115024262221 39.851705835705573 0 0 0 -1 I I #
point $-1 -76.793115024262221 -39.851705835705573 -13.874941730566725 #
straight-curve $-1 -76.793115024262221 0 -13.874941730566725 0 1 0 I I #
point $-1 -76.793115024262221 39.851705835705573 -13.874941730566725 #
coedge $-1 $409 $356 $359 $406 reversed $268 $-1 #
straight-curve $-1 -86.264703180816696 39.851705835705573 -6.8061745056634084 0 0 -1 I I #
edge $-1 $411 -39.851705835705573 $360 39.851705835705573 $404 $427 forward 7 unknown #
point $-1 -86.264703180816696 39.851705835705573 -9.9420629292010521 #
point $-1 -86.264703180816696 39.851705835705573 -3.6702860821257648 #
coedge $-1 $369 $404 $366 $410 reversed $268 $-1 #
edge $-1 $371 -3.1358884235376436 $411 3.1358884235376436 $409 $428 forward 7 unknown #
vertex $-1 $406 $429 #
straight-curve $-1 -81.528909102539458 -39.851705835705573 -9.9420629292010521 -1 0 0 I I #
straight-curve $-1 -86.264703180816696 0 -3.6702860821257648 0 -1 0 I I #
point $-1 -86.264703180816696 -39.851705835705573 -3.6702860821257648 #
straight-curve $-1 -36.903384383224775 39.851705835705573 77.878014491557039 0 0 -1 I I #
point $-1 -36.903384383224775 39.851705835705573 13.874941730566725 #
straight-curve $-1 -26.05622781273313 39.851705835705573 5.2620685793064226 -1 0 0 I I #
point $-1 -36.903384383224775 39.851705835705573 5.2620685793064155 #
point $-1 -58.630629014998327 32.776105239649944 6.7897108859091579 #
point $-1 -45.594282235934195 32.776105239649944 6.7897108859091579 #
straight-curve $-1 -67.321526867707746 -39.851705835705573 58.609522847531338 0 0 -1 I I #
point $-1 -67.321526867707746 -39.851705835705573 13.874941730566725 #
straight-curve $-1 -23.001922778342479 -39.851705835705573 3.0822346828141876 1 0 0 I I #
point $-1 -67.321526867707746 -39.851705835705573 3.0822346828141902 #
point $-1 -55.139994689980441 -29.472841961618684 3.6078791302360402 #
point $-1 -36.867696423389475 -29.472841961618684 3.6078791302360402 #
straight-curve $-1 -86.264703180816696 0 -9.9420629292010521 0 1 0 I I #
straight-curve $-1 -86.264703180816696 -39.851705835705573 -6.8061745056634084 0 0 -1 I I #
point $-1 -86.264703180816696 -39.851705835705573 -9.9420629292010521 #
End-of-ACIS-data 