500 0 3 0           
7 Unknown 11 ACIS 5.0 NT 24 Thu Mar 25 21:58:49 1999 
-1 9.9999999999999995e-007 1e-010 
body $-1 $3 $-1 $4 #
body $-1 $5 $-1 $6 #
body $-1 $7 $-1 $8 #
lump $-1 $-1 $9 $0 #
transform $-1 1 0 0 0 1 0 0 0 1 65.037385174108095 35.997131794721042 14.914086178740011 1 rotate no_reflect no_shear #
lump $-1 $-1 $10 $1 #
transform $-1 1 0 0 0 1 0 0 0 1 65.037385174108095 35.997131794721042 14.914086178740011 1 rotate no_reflect no_shear #
lump $-1 $-1 $11 $2 #
transform $-1 1 0 0 0 1 0 0 0 1 65.037385174108095 35.997131794721042 14.914086178740011 1 rotate no_reflect no_shear #
shell $-1 $-1 $-1 $12 $-1 $3 #
shell $-1 $-1 $-1 $13 $-1 $5 #
shell $-1 $-1 $-1 $14 $-1 $7 #
face $-1 $15 $16 $9 $-1 $17 forward single #
face $-1 $18 $19 $10 $-1 $20 forward single #
face $-1 $21 $22 $11 $-1 $23 forward single #
face $-1 $24 $25 $9 $-1 $26 reversed single #
loop $-1 $-1 $27 $12 #
plane-surface $-1 0 0 14.914086178740011 0 0 1 1 0 0 forward_v I I I I #
face $-1 $28 $29 $10 $-1 $30 reversed single #
loop $-1 $-1 $31 $13 #
plane-surface $-1 0 -35.997131794721042 0 0 1 0 0 0 1 forward_v I I I I #
face $-1 $32 $33 $11 $-1 $34 reversed single #
loop $-1 $-1 $35 $14 #
plane-surface $-1 0 30.748194560651953 12.742584394701463 0 0 1 1 0 0 forward_v I I I I #
face $-1 $36 $37 $9 $-1 $38 reversed single #
loop $-1 $-1 $39 $15 #
plane-surface $-1 0 0 -14.914086178740011 0 0 1 1 0 0 forward_v I I I I #
coedge $-1 $40 $41 $42 $43 forward $16 $-1 #
face $-1 $44 $45 $10 $-1 $46 reversed single #
loop $-1 $-1 $47 $18 #
plane-surface $-1 0 0 -14.914086178740011 0 0 1 1 0 0 forward_v I I I I #
coedge $-1 $48 $49 $50 $51 forward $19 $-1 #
face $-1 $52 $53 $11 $-1 $54 reversed single #
loop $-1 $-1 $55 $21 #
plane-surface $-1 0 30.748194560651953 9.3950964278396434 0 0 1 1 0 0 forward_v I I I I #
coedge $-1 $56 $57 $58 $59 reversed $22 $-1 #
face $-1 $60 $61 $9 $-1 $62 reversed single #
loop $-1 $-1 $63 $24 #
plane-surface $-1 0 -35.997131794721042 0 0 1 0 0 0 1 forward_v I I I I #
coedge $-1 $64 $65 $66 $67 forward $25 $-1 #
coedge $-1 $68 $27 $69 $70 forward $16 $-1 #
coedge $-1 $27 $68 $71 $72 forward $16 $-1 #
coedge $-1 $73 $74 $27 $43 reversed $75 $-1 #
edge $-1 $76 -35.997131794721042 $77 35.997131794721042 $42 $78 forward 7 unknown #
face $-1 $79 $80 $10 $-1 $81 reversed single #
loop $-1 $-1 $82 $28 #
plane-surface $-1 -48.016571579269282 -50.968303598893272 0 0 1 0 0 0 1 forward_v I I I I #
coedge $-1 $83 $84 $49 $85 forward $29 $-1 #
coedge $-1 $86 $31 $87 $88 reversed $19 $-1 #
coedge $-1 $31 $86 $47 $85 reversed $19 $-1 #
coedge $-1 $89 $90 $31 $51 reversed $80 $-1 #
edge $-1 $91 -14.914086178740011 $92 14.914086178740011 $50 $93 forward 7 unknown #
face $-1 $94 $95 $11 $-1 $96 reversed single #
loop $-1 $-1 $97 $32 #
plane-surface $-1 0 25.49925732658286 11.068840411270553 0 1 0 0 0 1 forward_v I I I I #
coedge $-1 $98 $99 $100 $101 reversed $33 $-1 #
coedge $-1 $102 $35 $103 $104 reversed $22 $-1 #
coedge $-1 $35 $102 $105 $106 forward $22 $-1 #
coedge $-1 $107 $108 $35 $59 forward $109 $-1 #
edge $-1 $110 -20.623034514395066 $111 -10.125160046256884 $58 $112 forward 7 unknown #
face $-1 $113 $114 $9 $-1 $115 reversed single #
loop $-1 $-1 $116 $36 #
plane-surface $-1 -65.037385174108095 0 0 1 0 0 0 0 -1 forward_v I I I I #
coedge $-1 $117 $71 $118 $119 forward $37 $-1 #
coedge $-1 $120 $39 $117 $121 forward $25 $-1 #
coedge $-1 $39 $120 $122 $123 forward $25 $-1 #
coedge $-1 $74 $73 $39 $67 reversed $75 $-1 #
edge $-1 $124 -35.997131794721042 $125 35.997131794721042 $66 $126 forward 7 unknown #
coedge $-1 $41 $40 $127 $128 forward $16 $-1 #
coedge $-1 $129 $130 $40 $70 reversed $114 $-1 #
edge $-1 $77 -65.037385174108095 $131 65.037385174108095 $69 $132 forward 7 unknown #
coedge $-1 $63 $133 $41 $72 reversed $37 $-1 #
edge $-1 $134 -65.037385174108095 $76 65.037385174108095 $71 $135 forward 7 unknown #
coedge $-1 $66 $42 $133 $136 forward $75 $-1 #
coedge $-1 $42 $66 $129 $137 reversed $75 $-1 #
loop $-1 $-1 $73 $113 #
vertex $-1 $43 $138 #
vertex $-1 $43 $139 #
straight-curve $-1 65.037385174108095 0 14.914086178740011 0 1 0 I I #
face $-1 $140 $141 $10 $-1 $142 reversed single #
loop $-1 $-1 $50 $44 #
plane-surface $-1 -49.864002970330041 -43.482717696807157 0 1 0 0 0 0 -1 forward_v I I I I #
coedge $-1 $143 $144 $145 $146 forward $45 $-1 #
coedge $-1 $147 $47 $148 $149 forward $29 $-1 #
coedge $-1 $47 $147 $89 $150 forward $29 $-1 #
edge $-1 $91 -49.864002970330041 $151 -46.169140188208523 $47 $152 forward 7 unknown #
coedge $-1 $49 $48 $153 $154 forward $19 $-1 #
coedge $-1 $155 $156 $48 $88 forward $157 $-1 #
edge $-1 $158 46.169140188208523 $92 49.864002970330041 $87 $159 forward 7 unknown #
coedge $-1 $145 $50 $84 $150 reversed $80 $-1 #
coedge $-1 $50 $145 $155 $160 reversed $80 $-1 #
vertex $-1 $85 $161 #
vertex $-1 $160 $162 #
straight-curve $-1 -49.864002970330041 -35.997131794721042 0 0 0 1 I I #
face $-1 $163 $109 $11 $-1 $164 reversed single #
loop $-1 $-1 $103 $52 #
plane-surface $-1 0 35.997131794721042 0 0 -1 0 0 0 -1 forward_v I I I I #
coedge $-1 $165 $105 $166 $167 reversed $53 $-1 #
coedge $-1 $168 $55 $165 $169 forward $33 $-1 #
coedge $-1 $55 $168 $170 $171 reversed $33 $-1 #
coedge $-1 $108 $107 $55 $101 forward $109 $-1 #
edge $-1 $172 10.125160046256884 $173 20.623034514395066 $100 $174 forward 7 unknown #
coedge $-1 $57 $56 $175 $176 reversed $22 $-1 #
coedge $-1 $177 $178 $56 $104 forward $95 $-1 #
edge $-1 $179 -65.037385174108095 $110 65.037385174108095 $103 $180 forward 7 unknown #
coedge $-1 $97 $181 $57 $106 reversed $53 $-1 #
edge $-1 $182 -65.037385174108095 $111 65.037385174108095 $105 $183 forward 7 unknown #
coedge $-1 $100 $58 $181 $184 forward $109 $-1 #
coedge $-1 $58 $100 $177 $185 reversed $109 $-1 #
loop $-1 $-1 $58 $94 #
vertex $-1 $185 $186 #
vertex $-1 $59 $187 #
straight-curve $-1 65.037385174108095 15.374097280325977 12.742584394701463 0 -1 0 I I #
face $-1 $-1 $75 $9 $-1 $188 reversed single #
loop $-1 $-1 $129 $60 #
plane-surface $-1 0 35.997131794721042 0 0 -1 0 0 0 -1 forward_v I I I I #
coedge $-1 $189 $127 $130 $190 forward $61 $-1 #
coedge $-1 $133 $63 $64 $121 reversed $37 $-1 #
coedge $-1 $127 $189 $63 $119 reversed $61 $-1 #
edge $-1 $134 -14.914086178740011 $191 14.914086178740011 $118 $192 forward 7 unknown #
coedge $-1 $65 $64 $189 $193 forward $25 $-1 #
edge $-1 $125 -65.037385174108095 $191 65.037385174108095 $117 $194 forward 7 unknown #
coedge $-1 $130 $129 $65 $123 reversed $114 $-1 #
edge $-1 $195 -65.037385174108095 $124 65.037385174108095 $122 $196 forward 7 unknown #
vertex $-1 $67 $197 #
vertex $-1 $136 $198 #
straight-curve $-1 65.037385174108095 0 -14.914086178740011 0 -1 0 I I #
coedge $-1 $116 $118 $68 $128 reversed $61 $-1 #
edge $-1 $131 -35.997131794721042 $134 35.997131794721042 $127 $199 forward 7 unknown #
coedge $-1 $122 $69 $74 $137 forward $114 $-1 #
coedge $-1 $69 $122 $116 $190 reversed $114 $-1 #
vertex $-1 $70 $200 #
straight-curve $-1 0 35.997131794721042 14.914086178740011 -1 0 0 I I #
coedge $-1 $71 $117 $73 $136 reversed $37 $-1 #
vertex $-1 $128 $201 #
straight-curve $-1 0 -35.997131794721042 14.914086178740011 1 0 0 I I #
edge $-1 $76 -14.914086178740011 $125 14.914086178740011 $73 $202 forward 7 unknown #
edge $-1 $77 -14.914086178740011 $124 14.914086178740011 $74 $203 forward 7 unknown #
point $-1 65.037385174108095 -35.997131794721042 14.914086178740011 #
point $-1 65.037385174108095 35.997131794721042 14.914086178740011 #
face $-1 $-1 $157 $10 $-1 $204 forward single #
loop $-1 $-1 $205 $79 #
plane-surface $-1 -46.169140188208523 -43.482717696807157 0 -1 0 0 0 0 1 forward_v I I I I #
coedge $-1 $206 $82 $147 $207 reversed $45 $-1 #
coedge $-1 $82 $206 $208 $209 reversed $45 $-1 #
coedge $-1 $90 $89 $82 $146 reversed $80 $-1 #
edge $-1 $210 -14.914086178740011 $211 14.914086178740011 $145 $212 forward 7 unknown #
coedge $-1 $84 $83 $143 $207 forward $29 $-1 #
coedge $-1 $153 $205 $83 $149 reversed $141 $-1 #
edge $-1 $151 -7.4855859020861146 $213 7.4855859020861146 $148 $214 forward 7 unknown #
edge $-1 $211 -7.4855859020861146 $91 7.4855859020861146 $89 $215 forward 7 unknown #
vertex $-1 $149 $216 #
straight-curve $-1 0 -35.997131794721042 -14.914086178740011 1 0 0 I I #
coedge $-1 $217 $148 $86 $154 reversed $141 $-1 #
edge $-1 $158 -14.914086178740011 $151 14.914086178740011 $153 $218 forward 7 unknown #
coedge $-1 $208 $87 $90 $160 forward $157 $-1 #
coedge $-1 $87 $208 $217 $219 forward $157 $-1 #
loop $-1 $-1 $87 $140 #
vertex $-1 $88 $220 #
straight-curve $-1 0 -35.997131794721042 14.914086178740011 -1 0 0 I I #
edge $-1 $92 -7.4855859020861146 $210 7.4855859020861146 $90 $221 forward 7 unknown #
point $-1 -49.864002970330041 -35.997131794721042 -14.914086178740011 #
point $-1 -49.864002970330041 -35.997131794721042 14.914086178740011 #
face $-1 $-1 $222 $11 $-1 $223 reversed single #
plane-surface $-1 65.037385174108095 0 0 -1 0 0 0 0 1 forward_v I I I I #
coedge $-1 $181 $97 $98 $169 reversed $53 $-1 #
coedge $-1 $175 $224 $97 $167 forward $222 $-1 #
edge $-1 $225 3.8606762222043667 $182 7.2081641890661867 $166 $226 forward 7 unknown #
coedge $-1 $99 $98 $224 $227 reversed $33 $-1 #
edge $-1 $172 -65.037385174108095 $225 65.037385174108095 $165 $228 forward 7 unknown #
coedge $-1 $178 $177 $99 $171 forward $95 $-1 #
edge $-1 $173 -65.037385174108095 $229 65.037385174108095 $170 $230 forward 7 unknown #
vertex $-1 $101 $231 #
vertex $-1 $101 $232 #
straight-curve $-1 65.037385174108095 15.374097280325977 9.3950964278396434 0 1 0 I I #
coedge $-1 $233 $166 $102 $176 forward $222 $-1 #
edge $-1 $182 10.125160046256884 $179 20.623034514395066 $175 $234 forward 7 unknown #
coedge $-1 $170 $103 $108 $185 forward $95 $-1 #
coedge $-1 $103 $170 $233 $235 reversed $95 $-1 #
vertex $-1 $235 $236 #
straight-curve $-1 0 35.997131794721042 12.742584394701463 1 0 0 I I #
coedge $-1 $105 $165 $107 $184 reversed $53 $-1 #
vertex $-1 $176 $237 #
straight-curve $-1 0 25.49925732658286 12.742584394701463 1 0 0 I I #
edge $-1 $111 -7.2081641890661867 $172 -3.8606762222043667 $107 $238 forward 7 unknown #
edge $-1 $110 -12.742584394701463 $173 -9.3950964278396434 $108 $239 forward 7 unknown #
point $-1 65.037385174108095 35.997131794721042 12.742584394701463 #
point $-1 65.037385174108095 25.49925732658286 12.742584394701463 #
plane-surface $-1 65.037385174108095 0 0 -1 0 0 0 0 1 forward_v I I I I #
coedge $-1 $118 $116 $120 $193 reversed $61 $-1 #
edge $-1 $131 -14.914086178740011 $195 14.914086178740011 $130 $240 forward 7 unknown #
vertex $-1 $193 $241 #
straight-curve $-1 -65.037385174108095 -35.997131794721042 0 0 0 -1 I I #
edge $-1 $191 -35.997131794721042 $195 35.997131794721042 $189 $242 forward 7 unknown #
straight-curve $-1 0 -35.997131794721042 -14.914086178740011 -1 0 0 I I #
vertex $-1 $123 $243 #
straight-curve $-1 0 35.997131794721042 -14.914086178740011 1 0 0 I I #
point $-1 65.037385174108095 35.997131794721042 -14.914086178740011 #
point $-1 65.037385174108095 -35.997131794721042 -14.914086178740011 #
straight-curve $-1 -65.037385174108095 0 14.914086178740011 0 -1 0 I I #
point $-1 -65.037385174108095 35.997131794721042 14.914086178740011 #
point $-1 -65.037385174108095 -35.997131794721042 14.914086178740011 #
straight-curve $-1 65.037385174108095 -35.997131794721042 0 0 0 -1 I I #
straight-curve $-1 65.037385174108095 35.997131794721042 0 0 0 -1 I I #
plane-surface $-1 0 0 14.914086178740011 0 0 1 1 0 0 forward_v I I I I #
coedge $-1 $148 $217 $206 $244 forward $141 $-1 #
coedge $-1 $144 $143 $205 $244 reversed $45 $-1 #
edge $-1 $213 -1.8474313910607592 $211 1.8474313910607592 $143 $245 forward 7 unknown #
coedge $-1 $156 $155 $144 $209 forward $157 $-1 #
edge $-1 $210 -1.8474313910607592 $246 1.8474313910607592 $144 $247 forward 7 unknown #
vertex $-1 $160 $248 #
vertex $-1 $150 $249 #
straight-curve $-1 -49.864002970330041 -50.968303598893272 0 0 0 -1 I I #
vertex $-1 $244 $250 #
straight-curve $-1 -46.169140188208523 -43.482717696807157 -14.914086178740011 0 -1 0 I I #
straight-curve $-1 -49.864002970330041 -43.482717696807157 -14.914086178740011 0 1 0 I I #
point $-1 -46.169140188208523 -35.997131794721042 -14.914086178740011 #
coedge $-1 $205 $153 $156 $219 reversed $141 $-1 #
straight-curve $-1 -46.169140188208523 -35.997131794721042 0 0 0 -1 I I #
edge $-1 $246 -7.4855859020861146 $158 7.4855859020861146 $217 $251 forward 7 unknown #
point $-1 -46.169140188208523 -35.997131794721042 14.914086178740011 #
straight-curve $-1 -49.864002970330041 -43.482717696807157 14.914086178740011 0 -1 0 I I #
loop $-1 $-1 $175 $163 #
plane-surface $-1 -65.037385174108095 0 0 1 0 0 0 0 -1 forward_v I I I I #
coedge $-1 $166 $233 $168 $227 forward $222 $-1 #
vertex $-1 $227 $252 #
straight-curve $-1 -65.037385174108095 25.49925732658286 5.5344202056352767 0 0 1 I I #
edge $-1 $229 -20.623034514395066 $225 -10.125160046256884 $224 $253 forward 7 unknown #
straight-curve $-1 0 25.49925732658286 9.3950964278396434 -1 0 0 I I #
vertex $-1 $171 $254 #
straight-curve $-1 0 35.997131794721042 9.3950964278396434 -1 0 0 I I #
point $-1 65.037385174108095 25.49925732658286 9.3950964278396434 #
point $-1 65.037385174108095 35.997131794721042 9.3950964278396434 #
coedge $-1 $224 $175 $178 $235 forward $222 $-1 #
straight-curve $-1 -65.037385174108095 15.374097280325977 12.742584394701463 0 1 0 I I #
edge $-1 $179 -12.742584394701463 $229 -9.3950964278396434 $178 $255 forward 7 unknown #
point $-1 -65.037385174108095 35.997131794721042 12.742584394701463 #
point $-1 -65.037385174108095 25.49925732658286 12.742584394701463 #
straight-curve $-1 65.037385174108095 25.49925732658286 5.5344202056352767 0 0 -1 I I #
straight-curve $-1 65.037385174108095 35.997131794721042 0 0 0 -1 I I #
straight-curve $-1 -65.037385174108095 35.997131794721042 0 0 0 -1 I I #
point $-1 -65.037385174108095 -35.997131794721042 -14.914086178740011 #
straight-curve $-1 -65.037385174108095 0 -14.914086178740011 0 1 0 I I #
point $-1 -65.037385174108095 35.997131794721042 -14.914086178740011 #
edge $-1 $246 -14.914086178740011 $213 14.914086178740011 $205 $256 forward 7 unknown #
straight-curve $-1 -48.016571579269282 -50.968303598893272 -14.914086178740011 -1 0 0 I I #
vertex $-1 $219 $257 #
straight-curve $-1 -48.016571579269282 -50.968303598893272 14.914086178740011 1 0 0 I I #
point $-1 -49.864002970330041 -50.968303598893272 14.914086178740011 #
point $-1 -49.864002970330041 -50.968303598893272 -14.914086178740011 #
point $-1 -46.169140188208523 -50.968303598893272 -14.914086178740011 #
straight-curve $-1 -46.169140188208523 -43.482717696807157 14.914086178740011 0 1 0 I I #
point $-1 -65.037385174108095 25.49925732658286 9.3950964278396434 #
straight-curve $-1 -65.037385174108095 15.374097280325977 9.3950964278396434 0 -1 0 I I #
point $-1 -65.037385174108095 35.997131794721042 9.3950964278396434 #
straight-curve $-1 -65.037385174108095 35.997131794721042 0 0 0 -1 I I #
straight-curve $-1 -46.169140188208523 -50.968303598893272 0 0 0 -1 I I #
point $-1 -46.169140188208523 -50.968303598893272 14.914086178740011 #
End-of-ACIS-data 