500 0 10 0           
7 Unknown 11 ACIS 5.0 NT 24 Fri Mar 26 17:12:39 1999 
-1 9.9999999999999995e-007 1e-010 
body $-1 $10 $-1 $11 #
body $-1 $12 $-1 $13 #
body $-1 $14 $-1 $15 #
body $-1 $16 $-1 $17 #
body $-1 $18 $-1 $19 #
body $-1 $20 $-1 $21 #
body $-1 $22 $-1 $23 #
body $-1 $24 $-1 $25 #
body $-1 $26 $-1 $27 #
body $-1 $28 $-1 $29 #
lump $-1 $-1 $30 $0 #
transform $-1 1 0 0 0 1 0 0 0 1 71.580553605761892 39.517088059676801 14.663665334293778 1 rotate no_reflect no_shear #
lump $-1 $-1 $31 $1 #
transform $-1 1 0 0 0 1 0 0 0 1 71.580553605761892 39.517088059676801 14.663665334293778 1 rotate no_reflect no_shear #
lump $-1 $-1 $32 $2 #
transform $-1 1 0 0 0 1 0 0 0 1 71.580553605761892 39.517088059676801 14.663665334293778 1 rotate no_reflect no_shear #
lump $-1 $-1 $33 $3 #
transform $-1 1 0 0 0 1 0 0 0 1 71.580553605761892 39.517088059676801 14.663665334293778 1 rotate no_reflect no_shear #
lump $-1 $-1 $34 $4 #
transform $-1 1 0 0 0 1 0 0 0 1 71.580553605761892 39.517088059676801 14.663665334293778 1 rotate no_reflect no_shear #
lump $-1 $-1 $35 $5 #
transform $-1 1 0 0 0 1 0 0 0 1 71.580553605761892 39.517088059676801 14.663665334293778 1 rotate no_reflect no_shear #
lump $-1 $-1 $36 $6 #
transform $-1 1 0 0 0 1 0 0 0 1 71.580553605761892 39.517088059676801 14.663665334293778 1 rotate no_reflect no_shear #
lump $-1 $-1 $37 $7 #
transform $-1 1 0 0 0 1 0 0 0 1 71.580553605761892 39.517088059676801 14.663665334293778 1 rotate no_reflect no_shear #
lump $-1 $-1 $38 $8 #
transform $-1 1 0 0 0 1 0 0 0 1 71.580553605761892 39.517088059676801 14.663665334293778 1 rotate no_reflect no_shear #
lump $-1 $-1 $39 $9 #
transform $-1 1 0 0 0 1 0 0 0 1 71.580553605761892 39.517088059676801 14.663665334293778 1 rotate no_reflect no_shear #
shell $-1 $-1 $-1 $40 $-1 $10 #
shell $-1 $-1 $-1 $41 $-1 $12 #
shell $-1 $-1 $-1 $42 $-1 $14 #
shell $-1 $-1 $-1 $43 $-1 $16 #
shell $-1 $-1 $-1 $44 $-1 $18 #
shell $-1 $-1 $-1 $45 $-1 $20 #
shell $-1 $-1 $-1 $46 $-1 $22 #
shell $-1 $-1 $-1 $47 $-1 $24 #
shell $-1 $-1 $-1 $48 $-1 $26 #
shell $-1 $-1 $-1 $49 $-1 $28 #
face $-1 $50 $51 $30 $-1 $52 forward single #
face $-1 $53 $54 $31 $-1 $55 reversed single #
face $-1 $56 $57 $32 $-1 $58 reversed single #
face $-1 $59 $60 $33 $-1 $61 reversed single #
face $-1 $62 $63 $34 $-1 $64 forward single #
face $-1 $65 $66 $35 $-1 $67 forward single #
face $-1 $68 $69 $36 $-1 $70 forward single #
face $-1 $71 $72 $37 $-1 $73 reversed single #
face $-1 $74 $75 $38 $-1 $76 forward single #
face $-1 $77 $78 $39 $-1 $79 forward single #
face $-1 $80 $81 $30 $-1 $82 reversed single #
loop $-1 $-1 $83 $40 #
plane-surface $-1 0 0 14.663665334293778 0 0 1 1 0 0 forward_v I I I I #
face $-1 $84 $85 $31 $-1 $86 reversed single #
loop $-1 $-1 $87 $41 #
plane-surface $-1 -68.748287254426344 -29.25396331820561 0 0 -1 0 0 0 -1 forward_v I I I I #
face $-1 $88 $89 $32 $-1 $90 reversed single #
loop $-1 $-1 $91 $42 #
plane-surface $-1 -68.748287254426344 29.253963318205614 0 0 1 0 0 0 1 forward_v I I I I #
face $-1 $92 $93 $33 $-1 $94 reversed single #
loop $-1 $-1 $95 $43 #
plane-surface $-1 -177.96999082516561 -24.44910523206584 107.03782434481191 0 1 0 -0.74314483375859142 0 0.66913059716165679 forward_v I I I I #
face $-1 $96 $97 $34 $-1 $98 forward single #
loop $-1 $99 $100 $44 #
cone-surface $-1 -69.669597282481575 -22.47050873085562 12.619440961586571 0.74314483375859142 0 -0.66913059716165679 0.3345652985808284 0 0.37157241687929571 1 I I 0 1 0.5 forward I I I I #
face $-1 $101 $102 $35 $-1 $103 forward single #
loop $-1 $104 $105 $45 #
cone-surface $-1 -69.669597282481575 -19.502613979040294 12.619440961586571 0.74314483375859142 0 -0.66913059716165679 0.3345652985808284 0 0.37157241687929571 1 I I 0 1 0.5 forward I I I I #
face $-1 $106 $107 $36 $-1 $108 forward single #
loop $-1 $109 $110 $46 #
cone-surface $-1 -69.669597282481575 -16.534719227224969 12.619440961586571 0.74314483375859142 0 -0.66913059716165679 0.3345652985808284 0 0.37157241687929571 1 I I 0 1 0.5 forward I I I I #
face $-1 $111 $112 $37 $-1 $113 reversed single #
loop $-1 $-1 $114 $47 #
plane-surface $-1 60.984598236804473 -12.348422496543414 210.4165717439484 0 -1 0 -0.66913061440640931 0 -0.74314481823134659 forward_v I I I I #
face $-1 $115 $116 $38 $-1 $117 forward single #
loop $-1 $118 $119 $48 #
cone-surface $-1 67.531923290585553 -17.290656395246753 10.917781130687047 -0.66913061440640931 0 -0.74314481823134659 0.3715724091156733 0 -0.33456530720320465 1 I I 0 1 0.5 forward I I I I #
face $-1 $120 $121 $39 $-1 $122 forward single #
loop $-1 $123 $124 $49 #
cone-surface $-1 67.531923290585553 -14.32531605602475 10.917781130687047 -0.66913061440640931 0 -0.74314481823134659 0.3715724091156733 0 -0.33456530720320465 1 I I 0 1 0.5 forward I I I I #
face $-1 $125 $126 $30 $-1 $127 reversed single #
loop $-1 $-1 $128 $50 #
plane-surface $-1 0 0 -14.663665334293778 0 0 1 1 0 0 forward_v I I I I #
coedge $-1 $129 $130 $131 $132 forward $51 $-1 #
face $-1 $133 $134 $31 $-1 $135 forward single #
loop $-1 $-1 $136 $53 #
plane-surface $-1 -65.916020903090796 -34.385525688941208 0 -1 0 0 0 0 1 forward_v I I I I #
coedge $-1 $137 $138 $139 $140 forward $54 $-1 #
face $-1 $141 $142 $32 $-1 $143 reversed single #
loop $-1 $-1 $144 $56 #
plane-surface $-1 -65.916020903090796 34.385525688941208 0 -1 0 0 0 0 1 forward_v I I I I #
coedge $-1 $145 $146 $147 $148 reversed $57 $-1 #
face $-1 $149 $150 $33 $-1 $151 reversed single #
loop $-1 $-1 $152 $59 #
plane-surface $-1 -71.580553605761878 -19.502613979040298 11.244347186041026 -0.74314483375859142 0 0.66913059716165679 0.66913059716165679 0 0.74314483375859142 forward_v I I I I #
coedge $-1 $153 $154 $155 $156 reversed $60 $-1 #
face $-1 $-1 $157 $34 $-1 $158 forward single #
loop $-1 $159 $160 $62 #
cone-surface $-1 -69.112238657162635 -22.47050873085562 12.117593013715329 0.74314483375859142 0 -0.66913059716165679 0.1672826492904142 0 0.18578620843964785 1 I I -0.70710678118654746 0.70710678118654746 0.25 forward I I I I #
loop $-1 $-1 $161 $44 #
coedge $-1 $100 $100 $162 $163 reversed $63 $-1 #
face $-1 $-1 $164 $35 $-1 $165 forward single #
loop $-1 $166 $167 $65 #
cone-surface $-1 -69.112238657162635 -19.502613979040294 12.117593013715329 0.74314483375859142 0 -0.66913059716165679 0.1672826492904142 0 0.18578620843964785 1 I I -0.70710678118654746 0.70710678118654746 0.25 forward I I I I #
loop $-1 $-1 $168 $45 #
coedge $-1 $105 $105 $169 $170 reversed $66 $-1 #
face $-1 $-1 $171 $36 $-1 $172 forward single #
loop $-1 $173 $174 $68 #
cone-surface $-1 -69.112238657162635 -16.534719227224969 12.117593013715329 0.74314483375859142 0 -0.66913059716165679 0.1672826492904142 0 0.18578620843964785 1 I I -0.70710678118654746 0.70710678118654746 0.25 forward I I I I #
loop $-1 $-1 $175 $46 #
coedge $-1 $110 $110 $176 $177 reversed $69 $-1 #
face $-1 $178 $179 $37 $-1 $180 reversed single #
loop $-1 $-1 $181 $71 #
plane-surface $-1 -34.808881390744276 -15.807986225635752 104.02713674744223 0.66913061440640931 0 0.74314481823134659 0.74314481823134659 0 -0.66913061440640931 forward_v I I I I #
coedge $-1 $182 $183 $184 $185 reversed $72 $-1 #
face $-1 $-1 $186 $38 $-1 $187 forward single #
loop $-1 $188 $189 $74 #
cone-surface $-1 66.886634040732488 -17.290656395246753 10.201114829722616 -0.66913061440640931 0 -0.74314481823134659 0.18578620455783665 0 -0.16728265360160233 1 I I -0.70710678118654746 0.70710678118654746 0.25 forward I I I I #
loop $-1 $-1 $190 $48 #
coedge $-1 $119 $119 $191 $192 reversed $75 $-1 #
face $-1 $-1 $193 $39 $-1 $194 forward single #
loop $-1 $195 $196 $77 #
cone-surface $-1 66.886634040732488 -14.32531605602475 10.201114829722616 -0.66913061440640931 0 -0.74314481823134659 0.18578620455783665 0 -0.16728265360160233 1 I I -0.70710678118654746 0.70710678118654746 0.25 forward I I I I #
loop $-1 $-1 $197 $49 #
coedge $-1 $124 $124 $198 $199 reversed $78 $-1 #
face $-1 $200 $201 $30 $-1 $202 reversed single #
loop $-1 $-1 $203 $80 #
plane-surface $-1 0 -39.517088059676801 0 0 1 0 0 0 1 forward_v I I I I #
coedge $-1 $204 $205 $206 $207 forward $81 $-1 #
coedge $-1 $208 $83 $209 $210 forward $51 $-1 #
coedge $-1 $83 $208 $211 $212 forward $51 $-1 #
coedge $-1 $213 $214 $83 $132 reversed $215 $-1 #
edge $-1 $216 -39.517088059676801 $217 39.517088059676801 $131 $218 forward 7 unknown #
face $-1 $219 $220 $31 $-1 $221 reversed single #
loop $-1 $-1 $222 $84 #
plane-surface $-1 0 0 14.663665334293778 0 0 1 1 0 0 forward_v I I I I #
coedge $-1 $223 $224 $225 $226 reversed $85 $-1 #
coedge $-1 $227 $87 $228 $229 reversed $54 $-1 #
coedge $-1 $87 $227 $230 $231 reversed $54 $-1 #
coedge $-1 $224 $223 $87 $140 reversed $85 $-1 #
edge $-1 $232 -14.663665334293778 $233 14.663665334293778 $139 $234 forward 7 unknown #
face $-1 $235 $236 $32 $-1 $237 reversed single #
loop $-1 $-1 $238 $88 #
plane-surface $-1 0 0 -14.663665334293778 0 0 1 1 0 0 forward_v I I I I #
coedge $-1 $239 $240 $241 $242 forward $89 $-1 #
coedge $-1 $241 $91 $243 $244 reversed $57 $-1 #
coedge $-1 $91 $241 $245 $246 reversed $57 $-1 #
coedge $-1 $247 $248 $91 $148 forward $236 $-1 #
edge $-1 $249 -14.663665334293778 $250 14.663665334293778 $147 $251 forward 7 unknown #
face $-1 $252 $253 $33 $-1 $254 forward single #
loop $-1 $-1 $255 $92 #
plane-surface $-1 -177.96999082516561 -14.556122726014758 107.03782434481191 0 -1 0 0.74314483375859142 0 -0.66913059716165679 forward_v I I I I #
coedge $-1 $256 $257 $258 $259 reversed $93 $-1 #
coedge $-1 $154 $95 $260 $261 reversed $60 $-1 #
coedge $-1 $95 $153 $256 $262 reversed $60 $-1 #
coedge $-1 $258 $263 $95 $156 forward $253 $-1 #
edge $-1 $264 17.404441806820913 $265 20.48320961962294 $155 $266 forward 7 unknown #
loop $-1 $-1 $162 $96 #
plane-surface $-1 -71.580553605761878 -19.502613979040298 11.244347186041026 -0.74314483375859142 0 0.66913059716165679 0.66913059716165679 0 0.74314483375859142 forward_v I I I I #
loop $-1 $-1 $267 $62 #
coedge $-1 $160 $160 $161 $268 reversed $97 $-1 #
coedge $-1 $161 $161 $160 $268 forward $99 $-1 #
coedge $-1 $162 $162 $100 $163 forward $157 $-1 #
edge $-1 $269 0 $269 6.2831853071796004 $162 $270 forward 7 unknown #
loop $-1 $-1 $169 $101 #
plane-surface $-1 -71.580553605761878 -19.502613979040298 11.244347186041026 -0.74314483375859142 0 0.66913059716165679 0.66913059716165679 0 0.74314483375859142 forward_v I I I I #
loop $-1 $-1 $271 $65 #
coedge $-1 $167 $167 $168 $272 reversed $102 $-1 #
coedge $-1 $168 $168 $167 $272 forward $104 $-1 #
coedge $-1 $169 $169 $105 $170 forward $164 $-1 #
edge $-1 $273 0 $273 6.2831853071796004 $169 $274 forward 7 unknown #
loop $-1 $-1 $176 $106 #
plane-surface $-1 -71.580553605761878 -19.502613979040298 11.244347186041026 -0.74314483375859142 0 0.66913059716165679 0.66913059716165679 0 0.74314483375859142 forward_v I I I I #
loop $-1 $-1 $275 $68 #
coedge $-1 $174 $174 $175 $276 reversed $107 $-1 #
coedge $-1 $175 $175 $174 $276 forward $109 $-1 #
coedge $-1 $176 $176 $110 $177 forward $171 $-1 #
edge $-1 $277 0 $277 6.2831853071796004 $176 $278 forward 7 unknown #
face $-1 $279 $280 $37 $-1 $281 reversed single #
loop $-1 $-1 $282 $111 #
plane-surface $-1 60.984598236804473 -19.267549954728089 210.4165717439484 0 1 0 0.66913061440640931 0 0.74314481823134659 forward_v I I I I #
coedge $-1 $283 $284 $285 $286 reversed $112 $-1 #
coedge $-1 $183 $114 $287 $288 reversed $72 $-1 #
coedge $-1 $114 $182 $283 $289 reversed $72 $-1 #
coedge $-1 $285 $290 $114 $185 forward $291 $-1 #
edge $-1 $292 -41.088254487359656 $293 -33.947007049509942 $184 $294 forward 7 unknown #
loop $-1 $-1 $191 $115 #
plane-surface $-1 -34.808881390744276 -15.807986225635752 104.02713674744223 0.66913061440640931 0 0.74314481823134659 0.74314481823134659 0 -0.66913061440640931 forward_v I I I I #
loop $-1 $-1 $295 $74 #
coedge $-1 $189 $189 $190 $296 reversed $116 $-1 #
coedge $-1 $190 $190 $189 $296 forward $118 $-1 #
coedge $-1 $191 $191 $119 $192 forward $186 $-1 #
edge $-1 $297 0 $297 6.2831853071796004 $191 $298 forward 7 unknown #
loop $-1 $-1 $198 $120 #
plane-surface $-1 -34.808881390744276 -15.807986225635752 104.02713674744223 0.66913061440640931 0 0.74314481823134659 0.74314481823134659 0 -0.66913061440640931 forward_v I I I I #
loop $-1 $-1 $299 $77 #
coedge $-1 $196 $196 $197 $300 reversed $121 $-1 #
coedge $-1 $197 $197 $196 $300 forward $123 $-1 #
coedge $-1 $198 $198 $124 $199 forward $193 $-1 #
edge $-1 $301 0 $301 6.2831853071796004 $198 $302 forward 7 unknown #
face $-1 $303 $304 $30 $-1 $305 reversed single #
loop $-1 $-1 $306 $125 #
plane-surface $-1 -71.580553605761892 0 0 1 0 0 0 0 -1 forward_v I I I I #
coedge $-1 $307 $211 $308 $309 forward $126 $-1 #
coedge $-1 $310 $128 $307 $311 forward $81 $-1 #
coedge $-1 $128 $310 $312 $313 forward $81 $-1 #
coedge $-1 $214 $213 $128 $207 reversed $215 $-1 #
edge $-1 $314 -39.517088059676801 $315 39.517088059676801 $206 $316 forward 7 unknown #
coedge $-1 $130 $129 $317 $318 forward $51 $-1 #
coedge $-1 $319 $320 $129 $210 reversed $304 $-1 #
edge $-1 $217 -71.580553605761892 $321 71.580553605761892 $209 $322 forward 7 unknown #
coedge $-1 $203 $323 $130 $212 reversed $126 $-1 #
edge $-1 $324 -71.580553605761892 $216 71.580553605761892 $211 $325 forward 7 unknown #
coedge $-1 $206 $131 $323 $326 forward $215 $-1 #
coedge $-1 $131 $206 $319 $327 reversed $215 $-1 #
loop $-1 $-1 $213 $303 #
vertex $-1 $132 $328 #
vertex $-1 $132 $329 #
straight-curve $-1 71.580553605761892 0 14.663665334293778 0 1 0 I I #
face $-1 $330 $331 $31 $-1 $332 reversed single #
loop $-1 $-1 $333 $133 #
plane-surface $-1 -71.580553605761892 0 0 1 0 0 0 0 -1 forward_v I I I I #
coedge $-1 $230 $334 $224 $335 forward $134 $-1 #
coedge $-1 $139 $136 $336 $337 reversed $85 $-1 #
coedge $-1 $136 $139 $222 $335 reversed $85 $-1 #
coedge $-1 $338 $339 $136 $226 forward $340 $-1 #
edge $-1 $341 -14.663665334293778 $342 14.663665334293778 $225 $343 forward 7 unknown #
coedge $-1 $138 $137 $333 $344 reversed $54 $-1 #
coedge $-1 $336 $345 $137 $229 forward $331 $-1 #
edge $-1 $346 -37.20640997854872 $233 -31.541877275877624 $228 $347 forward 7 unknown #
coedge $-1 $348 $222 $138 $231 forward $134 $-1 #
edge $-1 $232 31.541877275877624 $349 37.20640997854872 $230 $350 forward 7 unknown #
vertex $-1 $231 $351 #
vertex $-1 $229 $352 #
straight-curve $-1 -65.916020903090796 -29.25396331820561 0 0 0 -1 I I #
face $-1 $353 $354 $32 $-1 $355 forward single #
loop $-1 $-1 $147 $141 #
plane-surface $-1 -71.580553605761892 0 0 1 0 0 0 0 -1 forward_v I I I I #
coedge $-1 $243 $356 $239 $357 forward $142 $-1 #
coedge $-1 $358 $144 $238 $357 reversed $89 $-1 #
coedge $-1 $144 $358 $359 $360 reversed $89 $-1 #
coedge $-1 $146 $145 $144 $242 reversed $57 $-1 #
edge $-1 $361 -14.663665334293778 $362 14.663665334293778 $144 $363 forward 7 unknown #
coedge $-1 $364 $238 $145 $244 forward $142 $-1 #
edge $-1 $362 31.541877275877624 $249 37.20640997854872 $243 $365 forward 7 unknown #
coedge $-1 $359 $366 $146 $246 forward $354 $-1 #
edge $-1 $250 -37.20640997854872 $361 -31.541877275877624 $245 $367 forward 7 unknown #
coedge $-1 $368 $147 $366 $369 reversed $236 $-1 #
coedge $-1 $147 $368 $364 $370 reversed $236 $-1 #
vertex $-1 $370 $371 #
vertex $-1 $148 $372 #
straight-curve $-1 -71.580553605761892 29.253963318205614 0 0 0 1 I I #
face $-1 $-1 $373 $33 $-1 $374 reversed single #
loop $-1 $-1 $155 $149 #
plane-surface $-1 0 0 14.663665334293778 0 0 1 1 0 0 forward_v I I I I #
coedge $-1 $375 $376 $377 $378 reversed $150 $-1 #
coedge $-1 $379 $152 $154 $262 forward $93 $-1 #
coedge $-1 $152 $379 $375 $380 forward $93 $-1 #
coedge $-1 $377 $155 $152 $259 forward $253 $-1 #
edge $-1 $265 -14.697798242545691 $381 -4.8048157364946089 $258 $382 forward 7 unknown #
coedge $-1 $383 $384 $153 $261 forward $373 $-1 #
edge $-1 $385 -42.274564986364943 $264 -38.85524683811218 $260 $386 forward 7 unknown #
edge $-1 $265 -4.6011463619533259 $385 2.1389731374768986e-014 $154 $387 forward 7 unknown #
coedge $-1 $155 $377 $383 $388 forward $253 $-1 #
vertex $-1 $156 $389 #
vertex $-1 $156 $390 #
straight-curve $-1 -88.984995412582805 -24.44910523206584 14.663665334293782 1 0 0 I I #
coedge $-1 $267 $267 $-1 $391 reversed $159 $-1 #
edge $-1 $392 0 $392 6.2831853071796004 $160 $393 forward 7 unknown #
vertex $-1 $163 $394 #
ellipse-curve $-1 -70.041169699360879 -22.47050873085562 12.9540062601674 -0.74314483375859142 0 0.66913059716165679 0.3345652985808284 0 0.37157241687929571 1 I I #
coedge $-1 $271 $271 $-1 $395 reversed $166 $-1 #
edge $-1 $396 0 $396 6.2831853071796004 $167 $397 forward 7 unknown #
vertex $-1 $170 $398 #
ellipse-curve $-1 -70.041169699360879 -19.502613979040294 12.9540062601674 -0.74314483375859142 0 0.66913059716165679 0.3345652985808284 0 0.37157241687929571 1 I I #
coedge $-1 $275 $275 $-1 $399 reversed $173 $-1 #
edge $-1 $400 0 $400 6.2831853071796004 $174 $401 forward 7 unknown #
vertex $-1 $177 $402 #
ellipse-curve $-1 -70.041169699360879 -16.534719227224969 12.9540062601674 -0.74314483375859142 0 0.66913059716165679 0.3345652985808284 0 0.37157241687929571 1 I I #
face $-1 $-1 $291 $37 $-1 $403 forward single #
loop $-1 $-1 $404 $178 #
plane-surface $-1 71.580553605761892 0 0 -1 0 0 0 0 1 forward_v I I I I #
coedge $-1 $405 $406 $407 $408 reversed $179 $-1 #
coedge $-1 $409 $181 $183 $289 forward $112 $-1 #
coedge $-1 $181 $409 $405 $410 forward $112 $-1 #
coedge $-1 $407 $184 $181 $286 forward $291 $-1 #
edge $-1 $293 4.444429383725538 $411 11.363556841910214 $285 $412 forward 7 unknown #
coedge $-1 $413 $414 $182 $288 forward $280 $-1 #
edge $-1 $415 -96.974628752080719 $292 -90.544620537680416 $287 $416 forward 7 unknown #
edge $-1 $293 133.55161083523797 $415 143.16110721152381 $183 $417 forward 7 unknown #
coedge $-1 $184 $407 $413 $418 forward $291 $-1 #
loop $-1 $-1 $407 $279 #
vertex $-1 $288 $419 #
vertex $-1 $185 $420 #
straight-curve $-1 30.492299118402237 -12.348422496543414 14.663665334293782 -1 0 0 I I #
coedge $-1 $295 $295 $-1 $421 reversed $188 $-1 #
edge $-1 $422 0 $422 6.2831853071796004 $189 $423 forward 7 unknown #
vertex $-1 $192 $424 #
ellipse-curve $-1 68.009929886837014 -17.290656395246753 11.448661227093639 0.66913061440640931 0 0.74314481823134659 0.3715724091156733 0 -0.33456530720320465 1 I I #
coedge $-1 $299 $299 $-1 $425 reversed $195 $-1 #
edge $-1 $426 0 $426 6.2831853071796004 $196 $427 forward 7 unknown #
vertex $-1 $199 $428 #
ellipse-curve $-1 68.009929886837014 -14.32531605602475 11.448661227093639 0.66913061440640931 0 0.74314481823134659 0.3715724091156733 0 -0.33456530720320465 1 I I #
face $-1 $-1 $215 $30 $-1 $429 reversed single #
loop $-1 $-1 $319 $200 #
plane-surface $-1 0 39.517088059676801 0 0 -1 0 0 0 -1 forward_v I I I I #
coedge $-1 $430 $317 $320 $431 forward $201 $-1 #
coedge $-1 $323 $203 $204 $311 reversed $126 $-1 #
coedge $-1 $317 $430 $203 $309 reversed $201 $-1 #
edge $-1 $324 -14.663665334293778 $432 14.663665334293778 $308 $433 forward 7 unknown #
coedge $-1 $205 $204 $430 $434 forward $81 $-1 #
edge $-1 $315 -71.580553605761892 $432 71.580553605761892 $307 $435 forward 7 unknown #
coedge $-1 $320 $319 $205 $313 reversed $304 $-1 #
edge $-1 $436 -71.580553605761892 $314 71.580553605761892 $312 $437 forward 7 unknown #
vertex $-1 $207 $438 #
vertex $-1 $326 $439 #
straight-curve $-1 71.580553605761892 0 -14.663665334293778 0 -1 0 I I #
coedge $-1 $306 $308 $208 $318 reversed $201 $-1 #
edge $-1 $321 -39.517088059676801 $324 39.517088059676801 $317 $440 forward 7 unknown #
coedge $-1 $312 $209 $214 $327 forward $304 $-1 #
coedge $-1 $209 $312 $306 $431 reversed $304 $-1 #
vertex $-1 $210 $441 #
straight-curve $-1 0 39.517088059676801 14.663665334293778 -1 0 0 I I #
coedge $-1 $211 $307 $213 $326 reversed $126 $-1 #
vertex $-1 $318 $442 #
straight-curve $-1 0 -39.517088059676801 14.663665334293778 1 0 0 I I #
edge $-1 $216 -14.663665334293778 $315 14.663665334293778 $213 $443 forward 7 unknown #
edge $-1 $217 -14.663665334293778 $314 14.663665334293778 $214 $444 forward 7 unknown #
point $-1 71.580553605761892 -39.517088059676801 14.663665334293778 #
point $-1 71.580553605761892 39.517088059676801 14.663665334293778 #
face $-1 $-1 $340 $31 $-1 $445 reversed single #
loop $-1 $-1 $336 $219 #
plane-surface $-1 0 0 -14.663665334293778 0 0 1 1 0 0 forward_v I I I I #
coedge $-1 $446 $447 $227 $344 forward $220 $-1 #
coedge $-1 $222 $348 $338 $448 forward $134 $-1 #
edge $-1 $342 -22.324325215206198 $232 -12.061200473735006 $222 $449 forward 7 unknown #
coedge $-1 $450 $228 $223 $337 forward $331 $-1 #
edge $-1 $233 12.061200473735006 $341 22.324325215206198 $336 $451 forward 7 unknown #
coedge $-1 $452 $225 $334 $448 reversed $340 $-1 #
coedge $-1 $225 $452 $450 $453 reversed $340 $-1 #
loop $-1 $-1 $225 $330 #
vertex $-1 $453 $454 #
vertex $-1 $226 $455 #
straight-curve $-1 -65.916020903090796 -39.517088059676801 0 0 0 1 I I #
edge $-1 $349 -14.663665334293778 $346 14.663665334293778 $333 $456 forward 7 unknown #
coedge $-1 $228 $450 $446 $457 forward $331 $-1 #
vertex $-1 $229 $458 #
straight-curve $-1 -34.374143627213172 -29.25396331820561 -14.663665334293778 1 0 0 I I #
coedge $-1 $334 $230 $447 $459 forward $134 $-1 #
vertex $-1 $459 $460 #
straight-curve $-1 -34.374143627213172 -29.25396331820561 14.663665334293778 -1 0 0 I I #
point $-1 -65.916020903090796 -29.25396331820561 14.663665334293778 #
point $-1 -65.916020903090796 -29.25396331820561 -14.663665334293778 #
face $-1 $-1 $461 $32 $-1 $462 reversed single #
loop $-1 $-1 $359 $235 #
plane-surface $-1 0 0 14.663665334293778 0 0 1 1 0 0 forward_v I I I I #
coedge $-1 $238 $364 $463 $464 forward $142 $-1 #
edge $-1 $465 -22.324325215206198 $362 -12.06120047373501 $238 $466 forward 7 unknown #
coedge $-1 $240 $239 $467 $468 reversed $89 $-1 #
coedge $-1 $469 $245 $240 $360 forward $354 $-1 #
edge $-1 $361 12.06120047373501 $470 22.324325215206198 $359 $471 forward 7 unknown #
vertex $-1 $246 $472 #
vertex $-1 $244 $473 #
straight-curve $-1 -65.916020903090796 29.253963318205614 0 0 0 -1 I I #
coedge $-1 $356 $243 $248 $370 forward $142 $-1 #
straight-curve $-1 -34.374143627213172 29.253963318205614 -14.663665334293778 -1 0 0 I I #
coedge $-1 $245 $469 $247 $369 forward $354 $-1 #
straight-curve $-1 -34.374143627213172 29.253963318205614 14.663665334293778 1 0 0 I I #
coedge $-1 $248 $247 $474 $475 forward $236 $-1 #
edge $-1 $476 -39.517088059676801 $250 -29.253963318205614 $247 $477 forward 7 unknown #
edge $-1 $249 29.253963318205614 $478 39.517088059676801 $248 $479 forward 7 unknown #
point $-1 -71.580553605761892 29.253963318205614 -14.663665334293778 #
point $-1 -71.580553605761892 29.253963318205614 14.663665334293778 #
loop $-1 $-1 $260 $252 #
plane-surface $-1 -71.580553605761892 0 0 1 0 0 0 0 -1 forward_v I I I I #
coedge $-1 $376 $255 $257 $380 reversed $150 $-1 #
coedge $-1 $255 $375 $480 $481 reversed $150 $-1 #
coedge $-1 $263 $258 $255 $378 forward $253 $-1 #
edge $-1 $381 -20.48320961962294 $482 -17.404441806820913 $377 $483 forward 7 unknown #
coedge $-1 $257 $256 $384 $484 reversed $93 $-1 #
edge $-1 $485 -2.1389731374768986e-014 $381 4.6011463619533259 $375 $486 forward 7 unknown #
vertex $-1 $259 $487 #
straight-curve $-1 -68.501785792959851 -9.751306989520149 14.663665334293778 0 1 0 I I #
coedge $-1 $480 $260 $263 $388 reversed $373 $-1 #
coedge $-1 $260 $480 $379 $484 forward $373 $-1 #
vertex $-1 $261 $488 #
straight-curve $-1 -71.580553605761892 -24.44910523206584 53.518912172405955 0 0 1 I I #
straight-curve $-1 -71.580553605761878 -24.44910523206584 11.244347186041026 -0.66913059716165679 0 -0.74314483375859142 I I #
edge $-1 $482 14.556122726014758 $264 24.44910523206584 $383 $489 forward 7 unknown #
point $-1 -71.580553605761892 -24.44910523206584 14.663665334293778 #
point $-1 -68.501785792959865 -24.44910523206584 14.663665334293778 #
edge $-1 $490 1 $490 0 $267 $-1 forward 7 unknown #
vertex $-1 $268 $491 #
ellipse-curve $-1 -69.298024865602287 -22.47050873085562 12.284875663005742 -0.74314483375859142 0 0.66913059716165679 0.3345652985808284 0 0.37157241687929571 1 I I #
point $-1 -69.706604400780051 -22.47050873085562 13.325578677046696 #
edge $-1 $492 1 $492 0 $271 $-1 forward 7 unknown #
vertex $-1 $272 $493 #
ellipse-curve $-1 -69.298024865602287 -19.502613979040294 12.284875663005742 -0.74314483375859142 0 0.66913059716165679 0.3345652985808284 0 0.37157241687929571 1 I I #
point $-1 -69.706604400780051 -19.502613979040294 13.325578677046696 #
edge $-1 $494 1 $494 0 $275 $-1 forward 7 unknown #
vertex $-1 $276 $495 #
ellipse-curve $-1 -69.298024865602287 -16.534719227224969 12.284875663005742 -0.74314483375859142 0 0.66913059716165679 0.3345652985808284 0 0.37157241687929571 1 I I #
point $-1 -69.706604400780051 -16.534719227224969 13.325578677046696 #
plane-surface $-1 0 0 14.663665334293778 0 0 1 1 0 0 forward_v I I I I #
coedge $-1 $414 $413 $406 $496 forward $280 $-1 #
coedge $-1 $406 $282 $284 $410 reversed $179 $-1 #
coedge $-1 $282 $405 $404 $496 reversed $179 $-1 #
coedge $-1 $290 $285 $282 $408 forward $291 $-1 #
edge $-1 $411 33.947007049509942 $497 41.088254487359656 $407 $498 forward 7 unknown #
coedge $-1 $284 $283 $414 $499 reversed $112 $-1 #
edge $-1 $500 -143.16110721152381 $411 -133.55161083523797 $405 $501 forward 7 unknown #
vertex $-1 $286 $502 #
straight-curve $-1 64.439306167912164 -7.9039931128178758 14.663665334293775 0 -1 0 I I #
coedge $-1 $404 $287 $290 $418 reversed $280 $-1 #
coedge $-1 $287 $404 $409 $499 forward $280 $-1 #
vertex $-1 $288 $503 #
straight-curve $-1 71.580553605761892 -12.348422496543414 105.2082858719742 0 0 1 I I #
straight-curve $-1 -34.808881390744276 -12.348422496543414 104.02713674744223 0.74314481823134659 0 -0.66913061440640931 I I #
edge $-1 $497 -19.267549954728089 $292 -12.348422496543414 $413 $504 forward 7 unknown #
point $-1 71.580553605761892 -12.348422496543414 14.663665334293778 #
point $-1 64.439306167912179 -12.348422496543414 14.663665334293782 #
edge $-1 $505 1 $505 0 $295 $-1 forward 7 unknown #
vertex $-1 $296 $506 #
ellipse-curve $-1 67.053916694334092 -17.290656395246753 10.386901034280452 0.66913061440640931 0 0.74314481823134659 0.3715724091156733 0 -0.33456530720320465 1 I I #
point $-1 68.381502295952686 -17.290656395246753 11.114095919890433 #
edge $-1 $507 1 $507 0 $299 $-1 forward 7 unknown #
vertex $-1 $300 $508 #
ellipse-curve $-1 67.053916694334092 -14.32531605602475 10.386901034280452 0.66913061440640931 0 0.74314481823134659 0.3715724091156733 0 -0.33456530720320465 1 I I #
point $-1 68.381502295952686 -14.32531605602475 11.114095919890433 #
plane-surface $-1 71.580553605761892 0 0 -1 0 0 0 0 1 forward_v I I I I #
coedge $-1 $308 $306 $310 $434 reversed $201 $-1 #
edge $-1 $321 -14.663665334293778 $436 14.663665334293778 $320 $509 forward 7 unknown #
vertex $-1 $434 $510 #
straight-curve $-1 -71.580553605761892 -39.517088059676801 0 0 0 -1 I I #
edge $-1 $432 -39.517088059676801 $436 39.517088059676801 $430 $511 forward 7 unknown #
straight-curve $-1 0 -39.517088059676801 -14.663665334293778 -1 0 0 I I #
vertex $-1 $313 $512 #
straight-curve $-1 0 39.517088059676801 -14.663665334293778 1 0 0 I I #
point $-1 71.580553605761892 39.517088059676801 -14.663665334293778 #
point $-1 71.580553605761892 -39.517088059676801 -14.663665334293778 #
straight-curve $-1 -71.580553605761892 0 14.663665334293778 0 -1 0 I I #
point $-1 -71.580553605761892 39.517088059676801 14.663665334293778 #
point $-1 -71.580553605761892 -39.517088059676801 14.663665334293778 #
straight-curve $-1 71.580553605761892 -39.517088059676801 0 0 0 -1 I I #
straight-curve $-1 71.580553605761892 39.517088059676801 0 0 0 -1 I I #
plane-surface $-1 0 -39.517088059676801 0 0 1 0 0 0 1 forward_v I I I I #
coedge $-1 $513 $333 $345 $457 reversed $220 $-1 #
coedge $-1 $333 $513 $348 $459 reversed $220 $-1 #
edge $-1 $514 -71.580553605761892 $342 -65.916020903090796 $338 $515 forward 7 unknown #
straight-curve $-1 -65.916020903090796 -17.192762844470604 14.663665334293778 0 1 0 I I #
coedge $-1 $345 $336 $339 $453 forward $331 $-1 #
straight-curve $-1 -65.916020903090796 -17.192762844470604 -14.663665334293778 0 -1 0 I I #
coedge $-1 $339 $338 $513 $516 forward $340 $-1 #
edge $-1 $341 65.916020903090796 $517 71.580553605761892 $339 $518 forward 7 unknown #
point $-1 -65.916020903090796 -39.517088059676801 -14.663665334293778 #
point $-1 -65.916020903090796 -39.517088059676801 14.663665334293778 #
straight-curve $-1 -71.580553605761892 -29.25396331820561 0 0 0 -1 I I #
edge $-1 $517 -39.517088059676801 $346 -29.25396331820561 $446 $519 forward 7 unknown #
point $-1 -71.580553605761892 -29.25396331820561 -14.663665334293778 #
edge $-1 $349 29.25396331820561 $514 39.517088059676801 $447 $520 forward 7 unknown #
point $-1 -71.580553605761892 -29.25396331820561 14.663665334293778 #
loop $-1 $-1 $467 $353 #
plane-surface $-1 0 39.517088059676801 0 0 -1 0 0 0 -1 forward_v I I I I #
coedge $-1 $474 $467 $356 $464 reversed $461 $-1 #
edge $-1 $478 -71.580553605761892 $465 -65.916020903090796 $463 $521 forward 7 unknown #
vertex $-1 $357 $522 #
straight-curve $-1 -65.916020903090796 17.192762844470604 -14.663665334293778 0 -1 0 I I #
coedge $-1 $463 $523 $358 $468 forward $461 $-1 #
edge $-1 $470 -14.663665334293778 $465 14.663665334293778 $467 $524 forward 7 unknown #
coedge $-1 $366 $359 $523 $525 forward $354 $-1 #
vertex $-1 $525 $526 #
straight-curve $-1 -65.916020903090796 17.192762844470604 14.663665334293778 0 1 0 I I #
point $-1 -65.916020903090796 29.253963318205614 14.663665334293778 #
point $-1 -65.916020903090796 29.253963318205614 -14.663665334293778 #
coedge $-1 $523 $463 $368 $475 reversed $461 $-1 #
edge $-1 $476 -14.663665334293778 $478 14.663665334293778 $474 $527 forward 7 unknown #
vertex $-1 $525 $528 #
straight-curve $-1 -71.580553605761892 0 14.663665334293778 0 -1 0 I I #
vertex $-1 $464 $529 #
straight-curve $-1 -71.580553605761892 0 -14.663665334293778 0 1 0 I I #
coedge $-1 $384 $383 $376 $481 forward $373 $-1 #
edge $-1 $482 38.85524683811218 $485 42.274564986364943 $480 $530 forward 7 unknown #
vertex $-1 $388 $531 #
straight-curve $-1 -88.984995412582805 -14.556122726014758 14.663665334293782 -1 0 0 I I #
edge $-1 $485 4.8048157364946089 $385 14.697798242545691 $384 $532 forward 7 unknown #
vertex $-1 $484 $533 #
straight-curve $-1 -71.580553605761878 -14.556122726014758 11.244347186041026 0.66913059716165679 0 0.74314483375859142 I I #
point $-1 -68.501785792959865 -14.556122726014758 14.663665334293778 #
point $-1 -71.580553605761892 -24.44910523206584 11.24434718604101 #
straight-curve $-1 -71.580553605761892 0 14.663665334293778 0 -1 0 I I #
vertex $-1 $391 $534 #
point $-1 -68.963459567021459 -22.47050873085562 12.656448079885038 #
vertex $-1 $395 $535 #
point $-1 -68.963459567021459 -19.502613979040294 12.656448079885038 #
vertex $-1 $399 $536 #
point $-1 -68.963459567021459 -16.534719227224969 12.656448079885038 #
edge $-1 $497 90.544620537680416 $500 96.974628752080719 $404 $537 forward 7 unknown #
vertex $-1 $418 $538 #
straight-curve $-1 30.492299118402237 -19.267549954728089 14.663665334293782 1 0 0 I I #
edge $-1 $500 -11.363556841910214 $415 -4.444429383725538 $414 $539 forward 7 unknown #
vertex $-1 $499 $540 #
straight-curve $-1 -34.808881390744276 -19.267549954728089 104.02713674744223 -0.74314481823134659 0 0.66913061440640931 I I #
point $-1 64.439306167912179 -19.267549954728089 14.663665334293782 #
point $-1 71.580553605761892 -12.348422496543414 8.2336571198934791 #
straight-curve $-1 71.580553605761892 0 14.663665334293778 0 1 0 I I #
vertex $-1 $421 $541 #
point $-1 67.425489103449763 -17.290656395246753 10.052335727077248 #
vertex $-1 $425 $542 #
point $-1 67.425489103449763 -14.32531605602475 10.052335727077248 #
straight-curve $-1 -71.580553605761892 39.517088059676801 0 0 0 -1 I I #
point $-1 -71.580553605761892 -39.517088059676801 -14.663665334293778 #
straight-curve $-1 -71.580553605761892 0 -14.663665334293778 0 1 0 I I #
point $-1 -71.580553605761892 39.517088059676801 -14.663665334293778 #
coedge $-1 $447 $446 $452 $516 reversed $220 $-1 #
vertex $-1 $459 $543 #
straight-curve $-1 0 -39.517088059676801 14.663665334293778 1 0 0 I I #
edge $-1 $514 -14.663665334293778 $517 14.663665334293778 $513 $544 forward 7 unknown #
vertex $-1 $457 $545 #
straight-curve $-1 0 -39.517088059676801 -14.663665334293778 -1 0 0 I I #
straight-curve $-1 -71.580553605761892 0 -14.663665334293778 0 1 0 I I #
straight-curve $-1 -71.580553605761892 0 14.663665334293778 0 -1 0 I I #
straight-curve $-1 0 39.517088059676801 -14.663665334293778 1 0 0 I I #
point $-1 -65.916020903090796 39.517088059676801 -14.663665334293778 #
coedge $-1 $467 $474 $469 $525 reversed $461 $-1 #
straight-curve $-1 -65.916020903090796 39.517088059676801 0 0 0 -1 I I #
edge $-1 $470 65.916020903090796 $476 71.580553605761892 $523 $546 forward 7 unknown #
point $-1 -65.916020903090796 39.517088059676801 14.663665334293778 #
straight-curve $-1 -71.580553605761892 39.517088059676801 0 0 0 -1 I I #
point $-1 -71.580553605761892 39.517088059676801 14.663665334293778 #
point $-1 -71.580553605761892 39.517088059676801 -14.663665334293778 #
straight-curve $-1 -71.580553605761892 -14.556122726014758 53.518912172405955 0 0 -1 I I #
point $-1 -71.580553605761892 -14.556122726014758 14.663665334293778 #
straight-curve $-1 -71.580553605761892 -9.751306989520149 11.244347186041002 0 -1 0 I I #
point $-1 -71.580553605761892 -14.556122726014758 11.24434718604101 #
point $-1 -68.926452448722983 -22.47050873085562 11.950310364424915 #
point $-1 -68.926452448722983 -19.502613979040294 11.950310364424915 #
point $-1 -68.926452448722983 -16.534719227224969 11.950310364424915 #
straight-curve $-1 71.580553605761892 -19.267549954728089 105.2082858719742 0 0 -1 I I #
point $-1 71.580553605761892 -19.267549954728089 14.663665334293778 #
straight-curve $-1 71.580553605761892 -7.9039931128178758 8.2336571198934934 0 1 0 I I #
point $-1 71.580553605761892 -19.267549954728089 8.2336571198934791 #
point $-1 66.719351387130885 -17.290656395246753 10.015328625164781 #
point $-1 66.719351387130885 -14.32531605602475 10.015328625164781 #
point $-1 -71.580553605761892 -39.517088059676801 14.663665334293778 #
straight-curve $-1 -71.580553605761892 -39.517088059676801 0 0 0 -1 I I #
point $-1 -71.580553605761892 -39.517088059676801 -14.663665334293778 #
straight-curve $-1 0 39.517088059676801 14.663665334293778 -1 0 0 I I #
End-of-ACIS-data 