500 0 6 0           
7 Unknown 11 ACIS 5.0 NT 24 Fri Mar 26 17:47:49 1999 
-1 9.9999999999999995e-007 1e-010 
body $-1 $6 $-1 $7 #
body $-1 $8 $-1 $9 #
body $-1 $10 $-1 $11 #
body $-1 $12 $-1 $13 #
body $-1 $14 $-1 $15 #
body $-1 $16 $-1 $17 #
lump $-1 $-1 $18 $0 #
transform $-1 1 0 0 0 1 0 0 0 1 76.386608478041936 45.944096068233094 20.508759116221352 1 rotate no_reflect no_shear #
lump $-1 $-1 $19 $1 #
transform $-1 1 0 0 0 1 0 0 0 1 76.386608478041936 45.944096068233094 20.508759116221352 1 rotate no_reflect no_shear #
lump $-1 $-1 $20 $2 #
transform $-1 1 0 0 0 1 0 0 0 1 76.386608478041936 45.944096068233094 20.508759116221352 1 rotate no_reflect no_shear #
lump $-1 $-1 $21 $3 #
transform $-1 1 0 0 0 1 0 0 0 1 76.386608478041936 45.944096068233094 20.508759116221352 1 rotate no_reflect no_shear #
lump $-1 $-1 $22 $4 #
transform $-1 1 0 0 0 1 0 0 0 1 76.386608478041936 45.944096068233094 20.508759116221352 1 rotate no_reflect no_shear #
lump $-1 $-1 $23 $5 #
transform $-1 1 0 0 0 1 0 0 0 1 76.386608478041936 45.944096068233094 20.508759116221352 1 rotate no_reflect no_shear #
shell $-1 $-1 $-1 $24 $-1 $6 #
shell $-1 $-1 $-1 $25 $-1 $8 #
shell $-1 $-1 $-1 $26 $-1 $10 #
shell $-1 $-1 $-1 $27 $-1 $12 #
shell $-1 $-1 $-1 $28 $-1 $14 #
shell $-1 $-1 $-1 $29 $-1 $16 #
face $-1 $30 $31 $18 $-1 $32 forward single #
face $-1 $33 $34 $19 $-1 $35 forward single #
face $-1 $36 $37 $20 $-1 $38 reversed single #
face $-1 $39 $40 $21 $-1 $41 forward single #
face $-1 $42 $43 $22 $-1 $44 reversed single #
face $-1 $45 $46 $23 $-1 $47 forward single #
face $-1 $48 $49 $18 $-1 $50 reversed single #
loop $-1 $-1 $51 $24 #
plane-surface $-1 0 0 20.508759116221352 0 0 1 1 0 0 forward_v I I I I #
face $-1 $52 $53 $19 $-1 $54 reversed single #
loop $-1 $-1 $55 $25 #
plane-surface $-1 0 -37.125617560767253 -7.7579229929236133 0 0 1 1 0 0 forward_v I I I I #
face $-1 $56 $57 $20 $-1 $58 reversed single #
loop $-1 $-1 $59 $26 #
plane-surface $-1 -32.020039127454368 58.30081459013266 188.70400242560819 1 0 0 0 -0.57357644374324357 -0.81915203911291934 forward_v I I I I #
face $-1 $60 $61 $21 $-1 $62 forward single #
loop $-1 $63 $64 $27 #
cone-surface $-1 -16.010019563727184 38.108359257448221 14.336427399009315 0 -0.57357644374324357 -0.81915203911291934 1.5 0 0 1 I I 0 1 1.5 forward I I I I #
face $-1 $65 $66 $22 $-1 $67 reversed single #
loop $-1 $-1 $68 $28 #
plane-surface $-1 -16.010019563727184 -29.326303890752925 63.559510234191663 0 0.57357644374324357 0.81915203911291934 1 0 0 forward_v I I I I #
face $-1 $69 $70 $23 $-1 $71 forward single #
loop $-1 $72 $73 $29 #
cone-surface $-1 16.010019563727184 38.108359257448221 14.336427399009315 0 -0.57357644374324357 -0.81915203911291934 1.5 0 0 1 I I 0 1 1.5 forward I I I I #
face $-1 $74 $75 $18 $-1 $76 reversed single #
loop $-1 $-1 $77 $30 #
plane-surface $-1 0 0 -20.508759116221352 0 0 1 1 0 0 forward_v I I I I #
coedge $-1 $78 $79 $80 $81 forward $31 $-1 #
face $-1 $82 $83 $19 $-1 $84 reversed single #
loop $-1 $-1 $85 $33 #
plane-surface $-1 0 -37.125617560767253 -19.359670505057839 0 0 1 1 0 0 forward_v I I I I #
coedge $-1 $86 $87 $88 $89 reversed $34 $-1 #
face $-1 $90 $91 $20 $-1 $92 reversed single #
loop $-1 $-1 $93 $36 #
plane-surface $-1 -16.010019563727184 -29.326303890752925 63.559510234191663 0 0.57357644374324357 0.81915203911291934 1 0 0 forward_v I I I I #
coedge $-1 $94 $95 $96 $97 reversed $37 $-1 #
face $-1 $-1 $98 $21 $-1 $99 forward single #
loop $-1 $100 $101 $39 #
cone-surface $-1 -16.010019563727184 36.736218484850738 12.376807327292514 0 -0.57357644374324357 -0.81915203911291934 0.75 0 0 1 I I -0.70710678118654757 0.70710678118654757 0.75 forward I I I I #
loop $-1 $-1 $102 $27 #
coedge $-1 $64 $64 $103 $104 reversed $40 $-1 #
face $-1 $105 $106 $22 $-1 $107 forward single #
loop $-1 $-1 $108 $42 #
plane-surface $-1 32.020039127454368 58.30081459013266 188.70400242560819 -1 0 0 0 0.57357644374324357 0.81915203911291934 forward_v I I I I #
coedge $-1 $109 $110 $111 $112 reversed $43 $-1 #
face $-1 $-1 $113 $23 $-1 $114 forward single #
loop $-1 $115 $116 $45 #
cone-surface $-1 16.010019563727184 36.736218484850738 12.376807327292514 0 -0.57357644374324357 -0.81915203911291934 0.75 0 0 1 I I -0.70710678118654757 0.70710678118654757 0.75 forward I I I I #
loop $-1 $-1 $117 $29 #
coedge $-1 $73 $73 $118 $119 reversed $46 $-1 #
face $-1 $120 $121 $18 $-1 $122 reversed single #
loop $-1 $-1 $123 $48 #
plane-surface $-1 0 -45.944096068233094 0 0 1 0 0 0 1 forward_v I I I I #
coedge $-1 $124 $125 $126 $127 forward $49 $-1 #
coedge $-1 $128 $51 $129 $130 forward $31 $-1 #
coedge $-1 $51 $128 $131 $132 forward $31 $-1 #
coedge $-1 $133 $134 $51 $81 reversed $135 $-1 #
edge $-1 $136 -45.944096068233094 $137 45.944096068233094 $80 $138 forward 7 unknown #
face $-1 $139 $140 $19 $-1 $141 reversed single #
loop $-1 $-1 $142 $52 #
plane-surface $-1 0 -28.307139053301409 -13.558796748990726 0 -1 0 0 0 -1 forward_v I I I I #
coedge $-1 $143 $144 $145 $146 reversed $53 $-1 #
coedge $-1 $147 $55 $148 $149 forward $34 $-1 #
coedge $-1 $55 $147 $150 $151 reversed $34 $-1 #
coedge $-1 $152 $153 $55 $89 forward $154 $-1 #
edge $-1 $155 9.7443302729177823 $156 27.381287287849467 $88 $157 forward 7 unknown #
face $-1 $158 $159 $20 $-1 $160 reversed single #
loop $-1 $-1 $161 $56 #
plane-surface $-1 0 58.30081459013266 188.70400242560819 -1 0 0 0 0.57357644374324357 0.81915203911291934 forward_v I I I I #
coedge $-1 $162 $163 $164 $165 reversed $57 $-1 #
coedge $-1 $95 $59 $166 $167 reversed $37 $-1 #
coedge $-1 $59 $94 $162 $168 reversed $37 $-1 #
coedge $-1 $164 $169 $59 $97 forward $170 $-1 #
edge $-1 $171 -16.793688773166764 $172 -3.0061320311770885 $96 $173 forward 7 unknown #
loop $-1 $-1 $103 $60 #
plane-surface $-1 -16.010019563727184 -29.326303890752925 63.559510234191663 0 0.57357644374324357 0.81915203911291934 1 0 0 forward_v I I I I #
loop $-1 $-1 $174 $39 #
coedge $-1 $101 $101 $102 $175 reversed $61 $-1 #
coedge $-1 $102 $102 $101 $175 forward $63 $-1 #
coedge $-1 $103 $103 $64 $104 forward $98 $-1 #
edge $-1 $176 -6.7925095917478914e-016 $176 6.2831853071795996 $103 $177 forward 7 unknown #
face $-1 $178 $179 $22 $-1 $180 forward single #
loop $-1 $-1 $181 $65 #
plane-surface $-1 0 0 20.508759116221352 0 0 1 1 0 0 forward_v I I I I #
coedge $-1 $182 $183 $184 $185 reversed $66 $-1 #
coedge $-1 $186 $68 $187 $188 reversed $43 $-1 #
coedge $-1 $68 $186 $181 $189 reversed $43 $-1 #
coedge $-1 $190 $191 $68 $112 forward $179 $-1 #
edge $-1 $192 -91.888192136466216 $193 -75.05669311838335 $111 $194 forward 7 unknown #
loop $-1 $-1 $118 $69 #
plane-surface $-1 -16.010019563727184 -29.326303890752925 63.559510234191663 0 0.57357644374324357 0.81915203911291934 1 0 0 forward_v I I I I #
loop $-1 $-1 $195 $45 #
coedge $-1 $116 $116 $117 $196 reversed $70 $-1 #
coedge $-1 $117 $117 $116 $196 forward $72 $-1 #
coedge $-1 $118 $118 $73 $119 forward $113 $-1 #
edge $-1 $197 -6.7925095917478914e-016 $197 6.2831853071795996 $118 $198 forward 7 unknown #
face $-1 $199 $200 $18 $-1 $201 reversed single #
loop $-1 $-1 $202 $74 #
plane-surface $-1 -76.386608478041936 0 0 1 0 0 0 0 -1 forward_v I I I I #
coedge $-1 $203 $131 $204 $205 forward $75 $-1 #
coedge $-1 $206 $77 $203 $207 forward $49 $-1 #
coedge $-1 $77 $206 $208 $209 forward $49 $-1 #
coedge $-1 $134 $133 $77 $127 reversed $135 $-1 #
edge $-1 $210 -45.944096068233094 $211 45.944096068233094 $126 $212 forward 7 unknown #
coedge $-1 $79 $78 $213 $214 forward $31 $-1 #
coedge $-1 $215 $216 $78 $130 reversed $200 $-1 #
edge $-1 $137 -76.386608478041936 $217 76.386608478041936 $129 $218 forward 7 unknown #
coedge $-1 $123 $219 $79 $132 reversed $75 $-1 #
edge $-1 $220 -76.386608478041936 $136 76.386608478041936 $131 $221 forward 7 unknown #
coedge $-1 $126 $80 $219 $222 forward $135 $-1 #
coedge $-1 $80 $126 $215 $223 reversed $135 $-1 #
loop $-1 $-1 $133 $199 #
vertex $-1 $81 $224 #
vertex $-1 $81 $225 #
straight-curve $-1 76.386608478041936 0 20.508759116221352 0 1 0 I I #
face $-1 $226 $227 $19 $-1 $228 reversed single #
loop $-1 $-1 $229 $82 #
plane-surface $-1 -76.386608478041936 0 0 1 0 0 0 0 -1 forward_v I I I I #
coedge $-1 $230 $148 $153 $231 reversed $83 $-1 #
coedge $-1 $232 $85 $233 $234 reversed $53 $-1 #
coedge $-1 $85 $232 $230 $235 forward $53 $-1 #
coedge $-1 $153 $152 $85 $146 forward $154 $-1 #
edge $-1 $236 -27.381287287849467 $237 -9.7443302729177823 $145 $238 forward 7 unknown #
coedge $-1 $87 $86 $229 $239 reversed $34 $-1 #
coedge $-1 $142 $240 $86 $149 reversed $83 $-1 #
edge $-1 $155 -76.386608478041936 $241 76.386608478041936 $148 $242 forward 7 unknown #
coedge $-1 $243 $244 $87 $151 forward $227 $-1 #
edge $-1 $156 -76.386608478041936 $245 76.386608478041936 $150 $246 forward 7 unknown #
coedge $-1 $145 $88 $244 $247 forward $154 $-1 #
coedge $-1 $88 $145 $142 $231 forward $154 $-1 #
loop $-1 $-1 $88 $226 #
vertex $-1 $89 $248 #
vertex $-1 $247 $249 #
straight-curve $-1 76.386608478041936 -18.562808780383627 -7.7579229929236133 0 -1 0 I I #
face $-1 $-1 $170 $20 $-1 $250 forward single #
loop $-1 $-1 $251 $90 #
plane-surface $-1 0 45.944096068233094 0 0 -1 0 0 0 -1 forward_v I I I I #
coedge $-1 $252 $253 $254 $255 reversed $91 $-1 #
coedge $-1 $256 $93 $95 $168 forward $57 $-1 #
coedge $-1 $93 $256 $252 $257 forward $57 $-1 #
coedge $-1 $254 $96 $93 $165 forward $170 $-1 #
edge $-1 $172 -24.015029345590776 $258 8.0050097818635919 $164 $259 forward 7 unknown #
coedge $-1 $260 $261 $94 $167 forward $159 $-1 #
edge $-1 $262 -83.497393446242597 $171 -73.843242096582742 $166 $263 forward 7 unknown #
edge $-1 $172 75.05669311838335 $262 91.888192136466216 $95 $264 forward 7 unknown #
coedge $-1 $96 $254 $260 $265 forward $170 $-1 #
loop $-1 $-1 $254 $158 #
vertex $-1 $167 $266 #
vertex $-1 $97 $267 #
straight-curve $-1 -32.020039127454368 29.15040729506633 20.508759116221356 0 -1 0 I I #
coedge $-1 $174 $174 $-1 $268 reversed $100 $-1 #
edge $-1 $269 0 $269 6.2831853071796004 $101 $270 forward 7 unknown #
vertex $-1 $104 $271 #
ellipse-curve $-1 -16.010019563727184 39.050317697238263 15.681683441391423 0 0.57357644374324357 0.81915203911291934 1.5 0 0 1 I I #
face $-1 $-1 $272 $22 $-1 $273 reversed single #
loop $-1 $-1 $190 $105 #
plane-surface $-1 0 58.30081459013266 188.70400242560819 -1 0 0 0 0.57357644374324357 0.81915203911291934 forward_v I I I I #
coedge $-1 $184 $274 $110 $189 forward $106 $-1 #
coedge $-1 $183 $108 $186 $275 reversed $66 $-1 #
coedge $-1 $108 $182 $276 $277 reversed $66 $-1 #
coedge $-1 $278 $181 $108 $185 forward $106 $-1 #
edge $-1 $279 3.0061320311770885 $280 16.793688773166764 $184 $281 forward 7 unknown #
coedge $-1 $110 $109 $182 $275 forward $43 $-1 #
coedge $-1 $282 $276 $109 $188 forward $272 $-1 #
edge $-1 $283 -40.02504890931796 $192 -8.0050097818635919 $187 $284 forward 7 unknown #
edge $-1 $193 8.0050097818635919 $279 40.02504890931796 $181 $285 forward 7 unknown #
coedge $-1 $191 $111 $274 $286 reversed $179 $-1 #
coedge $-1 $111 $190 $282 $287 reversed $179 $-1 #
vertex $-1 $188 $288 #
vertex $-1 $189 $289 #
straight-curve $-1 0 -29.326303890752925 63.559510234191663 0 -0.81915203911291934 0.57357644374324357 I I #
coedge $-1 $195 $195 $-1 $290 reversed $115 $-1 #
edge $-1 $291 0 $291 6.2831853071796004 $116 $292 forward 7 unknown #
vertex $-1 $119 $293 #
ellipse-curve $-1 16.010019563727184 39.050317697238263 15.681683441391423 0 0.57357644374324357 0.81915203911291934 1.5 0 0 1 I I #
face $-1 $-1 $135 $18 $-1 $294 reversed single #
loop $-1 $-1 $215 $120 #
plane-surface $-1 0 45.944096068233094 0 0 -1 0 0 0 -1 forward_v I I I I #
coedge $-1 $295 $213 $216 $296 forward $121 $-1 #
coedge $-1 $219 $123 $124 $207 reversed $75 $-1 #
coedge $-1 $213 $295 $123 $205 reversed $121 $-1 #
edge $-1 $220 -20.508759116221352 $297 20.508759116221352 $204 $298 forward 7 unknown #
coedge $-1 $125 $124 $295 $299 forward $49 $-1 #
edge $-1 $211 -76.386608478041936 $297 76.386608478041936 $203 $300 forward 7 unknown #
coedge $-1 $216 $215 $125 $209 reversed $200 $-1 #
edge $-1 $301 -76.386608478041936 $210 76.386608478041936 $208 $302 forward 7 unknown #
vertex $-1 $127 $303 #
vertex $-1 $222 $304 #
straight-curve $-1 76.386608478041936 0 -20.508759116221352 0 -1 0 I I #
coedge $-1 $202 $204 $128 $214 reversed $121 $-1 #
edge $-1 $217 -45.944096068233094 $220 45.944096068233094 $213 $305 forward 7 unknown #
coedge $-1 $208 $129 $134 $223 forward $200 $-1 #
coedge $-1 $129 $208 $202 $296 reversed $200 $-1 #
vertex $-1 $130 $306 #
straight-curve $-1 0 45.944096068233094 20.508759116221352 -1 0 0 I I #
coedge $-1 $131 $203 $133 $222 reversed $75 $-1 #
vertex $-1 $214 $307 #
straight-curve $-1 0 -45.944096068233094 20.508759116221352 1 0 0 I I #
edge $-1 $136 -20.508759116221352 $211 20.508759116221352 $133 $308 forward 7 unknown #
edge $-1 $137 -20.508759116221352 $210 20.508759116221352 $134 $309 forward 7 unknown #
point $-1 76.386608478041936 -45.944096068233094 20.508759116221352 #
point $-1 76.386608478041936 45.944096068233094 20.508759116221352 #
face $-1 $-1 $154 $19 $-1 $310 reversed single #
loop $-1 $-1 $150 $139 #
plane-surface $-1 0 -45.944096068233094 0 0 1 0 0 0 1 forward_v I I I I #
coedge $-1 $311 $312 $147 $239 forward $140 $-1 #
coedge $-1 $240 $142 $144 $235 reversed $83 $-1 #
edge $-1 $237 -12.580272130562475 $155 -0.97852461842825011 $153 $313 forward 7 unknown #
coedge $-1 $144 $143 $314 $315 reversed $53 $-1 #
coedge $-1 $244 $243 $143 $234 forward $227 $-1 #
edge $-1 $316 -76.386608478041936 $236 76.386608478041936 $233 $317 forward 7 unknown #
edge $-1 $318 -76.386608478041936 $237 76.386608478041936 $230 $319 forward 7 unknown #
vertex $-1 $234 $320 #
vertex $-1 $146 $321 #
straight-curve $-1 76.386608478041936 -18.562808780383627 -19.359670505057839 0 1 0 I I #
edge $-1 $245 -27.381287287849467 $241 -9.7443302729177823 $229 $322 forward 7 unknown #
coedge $-1 $148 $230 $311 $323 reversed $83 $-1 #
vertex $-1 $239 $324 #
straight-curve $-1 0 -28.307139053301409 -7.7579229929236133 -1 0 0 I I #
coedge $-1 $233 $150 $312 $325 forward $227 $-1 #
coedge $-1 $150 $233 $152 $247 reversed $227 $-1 #
vertex $-1 $325 $326 #
straight-curve $-1 0 -45.944096068233094 -7.7579229929236133 -1 0 0 I I #
edge $-1 $156 7.7579229929236133 $236 19.359670505057839 $152 $327 forward 7 unknown #
point $-1 76.386608478041936 -28.307139053301409 -7.7579229929236133 #
point $-1 76.386608478041936 -45.944096068233094 -7.7579229929236133 #
plane-surface $-1 0 0 20.508759116221352 0 0 1 1 0 0 forward_v I I I I #
coedge $-1 $261 $260 $253 $328 forward $159 $-1 #
coedge $-1 $253 $161 $163 $257 reversed $91 $-1 #
coedge $-1 $161 $252 $251 $328 reversed $91 $-1 #
coedge $-1 $169 $164 $161 $255 forward $170 $-1 #
edge $-1 $258 3.0061320311770885 $329 16.793688773166764 $254 $330 forward 7 unknown #
coedge $-1 $163 $162 $261 $331 reversed $57 $-1 #
edge $-1 $332 -91.888192136466216 $258 -75.05669311838335 $252 $333 forward 7 unknown #
vertex $-1 $165 $334 #
straight-curve $-1 -8.0050097818635919 32.156539326243411 20.508759116221356 1 0 0 I I #
coedge $-1 $251 $166 $169 $265 reversed $159 $-1 #
coedge $-1 $166 $251 $256 $331 forward $159 $-1 #
vertex $-1 $167 $335 #
straight-curve $-1 -32.020039127454368 45.944096068233094 94.352001212804097 0 0 1 I I #
straight-curve $-1 -32.020039127454368 -29.326303890752925 63.559510234191663 0 0.81915203911291934 -0.57357644374324357 I I #
edge $-1 $329 0 $171 32.020039127454368 $260 $336 forward 7 unknown #
point $-1 -32.020039127454368 45.944096068233094 20.508759116221352 #
point $-1 -32.020039127454368 32.156539326243418 20.508759116221356 #
edge $-1 $337 1 $337 0 $174 $-1 forward 7 unknown #
vertex $-1 $175 $338 #
ellipse-curve $-1 -16.010019563727184 37.166400817658172 12.991171356627204 0 0.57357644374324357 0.81915203911291934 1.5 0 0 1 I I #
point $-1 -14.510019563727184 39.050317697238263 15.681683441391424 #
loop $-1 $-1 $187 $178 #
plane-surface $-1 0 45.944096068233094 0 0 -1 0 0 0 -1 forward_v I I I I #
coedge $-1 $181 $278 $190 $286 forward $106 $-1 #
edge $-1 $283 -91.888192136466216 $279 -75.05669311838335 $182 $339 forward 7 unknown #
coedge $-1 $187 $340 $183 $277 forward $272 $-1 #
edge $-1 $280 73.843242096582742 $283 83.497393446242597 $276 $341 forward 7 unknown #
coedge $-1 $274 $184 $340 $342 forward $106 $-1 #
vertex $-1 $185 $343 #
vertex $-1 $342 $344 #
straight-curve $-1 32.020039127454368 29.15040729506633 20.508759116221356 0 1 0 I I #
coedge $-1 $340 $187 $191 $287 forward $272 $-1 #
vertex $-1 $277 $345 #
straight-curve $-1 -8.0050097818635919 45.944096068233094 10.85460776656149 -1 0 0 I I #
straight-curve $-1 -8.0050097818635919 32.156539326243411 20.508759116221356 1 0 0 I I #
edge $-1 $346 -16.793688773166764 $193 -3.0061320311770885 $274 $347 forward 7 unknown #
edge $-1 $192 -83.497393446242597 $346 -73.843242096582742 $282 $348 forward 7 unknown #
point $-1 0 45.944096068233094 10.854607766561493 #
point $-1 0 32.156539326243418 20.508759116221356 #
edge $-1 $349 1 $349 0 $195 $-1 forward 7 unknown #
vertex $-1 $196 $350 #
ellipse-curve $-1 16.010019563727184 37.166400817658172 12.991171356627204 0 0.57357644374324357 0.81915203911291934 1.5 0 0 1 I I #
point $-1 17.510019563727184 39.050317697238263 15.681683441391424 #
plane-surface $-1 76.386608478041936 0 0 -1 0 0 0 0 1 forward_v I I I I #
coedge $-1 $204 $202 $206 $299 reversed $121 $-1 #
edge $-1 $217 -20.508759116221352 $301 20.508759116221352 $216 $351 forward 7 unknown #
vertex $-1 $299 $352 #
straight-curve $-1 -76.386608478041936 -45.944096068233094 0 0 0 -1 I I #
edge $-1 $297 -45.944096068233094 $301 45.944096068233094 $295 $353 forward 7 unknown #
straight-curve $-1 0 -45.944096068233094 -20.508759116221352 -1 0 0 I I #
vertex $-1 $209 $354 #
straight-curve $-1 0 45.944096068233094 -20.508759116221352 1 0 0 I I #
point $-1 76.386608478041936 45.944096068233094 -20.508759116221352 #
point $-1 76.386608478041936 -45.944096068233094 -20.508759116221352 #
straight-curve $-1 -76.386608478041936 0 20.508759116221352 0 -1 0 I I #
point $-1 -76.386608478041936 45.944096068233094 20.508759116221352 #
point $-1 -76.386608478041936 -45.944096068233094 20.508759116221352 #
straight-curve $-1 76.386608478041936 -45.944096068233094 0 0 0 -1 I I #
straight-curve $-1 76.386608478041936 45.944096068233094 0 0 0 -1 I I #
plane-surface $-1 76.386608478041936 0 0 -1 0 0 0 0 1 forward_v I I I I #
coedge $-1 $314 $229 $240 $323 forward $140 $-1 #
coedge $-1 $229 $314 $243 $325 reversed $140 $-1 #
straight-curve $-1 76.386608478041936 -28.307139053301409 -6.7793983744953632 0 0 1 I I #
coedge $-1 $312 $311 $232 $315 forward $140 $-1 #
edge $-1 $318 9.7443302729177823 $316 27.381287287849467 $314 $355 forward 7 unknown #
vertex $-1 $234 $356 #
straight-curve $-1 0 -45.944096068233094 -19.359670505057839 1 0 0 I I #
vertex $-1 $315 $357 #
straight-curve $-1 0 -28.307139053301409 -19.359670505057839 1 0 0 I I #
point $-1 76.386608478041936 -45.944096068233094 -19.359670505057839 #
point $-1 76.386608478041936 -28.307139053301409 -19.359670505057839 #
straight-curve $-1 -76.386608478041936 -18.562808780383627 -7.7579229929236133 0 1 0 I I #
edge $-1 $241 0.97852461842825011 $318 12.580272130562475 $311 $358 forward 7 unknown #
point $-1 -76.386608478041936 -28.307139053301409 -7.7579229929236133 #
edge $-1 $245 7.7579229929236133 $316 19.359670505057839 $312 $359 forward 7 unknown #
point $-1 -76.386608478041936 -45.944096068233094 -7.7579229929236133 #
straight-curve $-1 76.386608478041936 -45.944096068233094 0 0 0 -1 I I #
edge $-1 $329 73.843242096582742 $332 83.497393446242597 $251 $360 forward 7 unknown #
vertex $-1 $265 $361 #
straight-curve $-1 0 29.15040729506633 20.508759116221356 0 1 0 I I #
edge $-1 $332 -8.0050097818635919 $262 24.015029345590776 $261 $362 forward 7 unknown #
vertex $-1 $331 $363 #
straight-curve $-1 0 -29.326303890752925 63.559510234191663 0 -0.81915203911291934 0.57357644374324357 I I #
point $-1 0 32.156539326243418 20.508759116221356 #
point $-1 -32.020039127454368 45.944096068233094 10.854607766561493 #
straight-curve $-1 0 45.944096068233094 20.508759116221352 -1 0 0 I I #
vertex $-1 $268 $364 #
point $-1 -14.510019563727184 37.166400817658172 12.991171356627204 #
straight-curve $-1 32.020039127454368 -29.326303890752925 63.559510234191663 0 -0.81915203911291934 0.57357644374324357 I I #
coedge $-1 $276 $282 $278 $342 reversed $272 $-1 #
straight-curve $-1 32.020039127454368 45.944096068233094 94.352001212804097 0 0 -1 I I #
edge $-1 $280 -32.020039127454368 $346 0 $340 $365 forward 7 unknown #
point $-1 32.020039127454368 32.156539326243418 20.508759116221356 #
point $-1 32.020039127454368 45.944096068233094 20.508759116221352 #
point $-1 32.020039127454368 45.944096068233094 10.854607766561493 #
vertex $-1 $287 $366 #
straight-curve $-1 0 29.15040729506633 20.508759116221356 0 -1 0 I I #
straight-curve $-1 0 45.944096068233094 94.352001212804097 0 0 1 I I #
vertex $-1 $290 $367 #
point $-1 17.510019563727184 37.166400817658172 12.991171356627204 #
straight-curve $-1 -76.386608478041936 45.944096068233094 0 0 0 -1 I I #
point $-1 -76.386608478041936 -45.944096068233094 -20.508759116221352 #
straight-curve $-1 -76.386608478041936 0 -20.508759116221352 0 1 0 I I #
point $-1 -76.386608478041936 45.944096068233094 -20.508759116221352 #
straight-curve $-1 -76.386608478041936 -18.562808780383627 -19.359670505057839 0 -1 0 I I #
point $-1 -76.386608478041936 -45.944096068233094 -19.359670505057839 #
point $-1 -76.386608478041936 -28.307139053301409 -19.359670505057839 #
straight-curve $-1 -76.386608478041936 -28.307139053301409 -6.7793983744953632 0 0 -1 I I #
straight-curve $-1 -76.386608478041936 -45.944096068233094 0 0 0 -1 I I #
straight-curve $-1 0 45.944096068233094 94.352001212804097 0 0 -1 I I #
point $-1 0 45.944096068233094 20.508759116221352 #
straight-curve $-1 -8.0050097818635919 45.944096068233094 10.85460776656149 -1 0 0 I I #
point $-1 0 45.944096068233094 10.854607766561493 #
point $-1 -16.010019563727184 36.306036152043305 11.762443297957825 #
straight-curve $-1 0 45.944096068233094 20.508759116221352 -1 0 0 I I #
point $-1 0 45.944096068233094 20.508759116221352 #
point $-1 16.010019563727184 36.306036152043305 11.762443297957825 #
End-of-ACIS-data 