500 0 18 0           
7 Unknown 11 ACIS 5.0 NT 24 Fri Mar 26 02:54:30 1999 
-1 9.9999999999999995e-007 1e-010 
body $-1 $18 $-1 $19 #
body $-1 $20 $-1 $21 #
body $-1 $22 $-1 $23 #
body $-1 $24 $-1 $25 #
body $-1 $26 $-1 $27 #
body $-1 $28 $-1 $29 #
body $-1 $30 $-1 $31 #
body $-1 $32 $-1 $33 #
body $-1 $34 $-1 $35 #
body $-1 $36 $-1 $37 #
body $-1 $38 $-1 $39 #
body $-1 $40 $-1 $41 #
body $-1 $42 $-1 $43 #
body $-1 $44 $-1 $45 #
body $-1 $46 $-1 $47 #
body $-1 $48 $-1 $49 #
body $-1 $50 $-1 $51 #
body $-1 $52 $-1 $53 #
lump $-1 $-1 $54 $0 #
transform $-1 1 0 0 0 1 0 0 0 1 67.796258430738249 42.19746549325167 9.512362403207602 1 rotate no_reflect no_shear #
lump $-1 $-1 $55 $1 #
transform $-1 1 0 0 0 1 0 0 0 1 67.796258430738249 42.19746549325167 9.512362403207602 1 rotate no_reflect no_shear #
lump $-1 $-1 $56 $2 #
transform $-1 1 0 0 0 1 0 0 0 1 67.796258430738249 42.19746549325167 9.512362403207602 1 rotate no_reflect no_shear #
lump $-1 $-1 $57 $3 #
transform $-1 1 0 0 0 1 0 0 0 1 67.796258430738249 42.19746549325167 9.512362403207602 1 rotate no_reflect no_shear #
lump $-1 $-1 $58 $4 #
transform $-1 1 0 0 0 1 0 0 0 1 67.796258430738249 42.19746549325167 9.512362403207602 1 rotate no_reflect no_shear #
lump $-1 $-1 $59 $5 #
transform $-1 1 0 0 0 1 0 0 0 1 67.796258430738249 42.19746549325167 9.512362403207602 1 rotate no_reflect no_shear #
lump $-1 $-1 $60 $6 #
transform $-1 1 0 0 0 1 0 0 0 1 67.796258430738249 42.19746549325167 9.512362403207602 1 rotate no_reflect no_shear #
lump $-1 $-1 $61 $7 #
transform $-1 1 0 0 0 1 0 0 0 1 67.796258430738249 42.19746549325167 9.512362403207602 1 rotate no_reflect no_shear #
lump $-1 $-1 $62 $8 #
transform $-1 1 0 0 0 1 0 0 0 1 67.796258430738249 42.19746549325167 9.512362403207602 1 rotate no_reflect no_shear #
lump $-1 $-1 $63 $9 #
transform $-1 1 0 0 0 1 0 0 0 1 67.796258430738249 42.19746549325167 9.512362403207602 1 rotate no_reflect no_shear #
lump $-1 $-1 $64 $10 #
transform $-1 1 0 0 0 1 0 0 0 1 67.796258430738249 42.19746549325167 9.512362403207602 1 rotate no_reflect no_shear #
lump $-1 $-1 $65 $11 #
transform $-1 1 0 0 0 1 0 0 0 1 67.796258430738249 42.19746549325167 9.512362403207602 1 rotate no_reflect no_shear #
lump $-1 $-1 $66 $12 #
transform $-1 1 0 0 0 1 0 0 0 1 67.796258430738249 42.19746549325167 9.512362403207602 1 rotate no_reflect no_shear #
lump $-1 $-1 $67 $13 #
transform $-1 1 0 0 0 1 0 0 0 1 67.796258430738249 42.19746549325167 9.512362403207602 1 rotate no_reflect no_shear #
lump $-1 $-1 $68 $14 #
transform $-1 1 0 0 0 1 0 0 0 1 67.796258430738249 42.19746549325167 9.512362403207602 1 rotate no_reflect no_shear #
lump $-1 $-1 $69 $15 #
transform $-1 1 0 0 0 1 0 0 0 1 67.796258430738249 42.19746549325167 9.512362403207602 1 rotate no_reflect no_shear #
lump $-1 $-1 $70 $16 #
transform $-1 1 0 0 0 1 0 0 0 1 67.796258430738249 42.19746549325167 9.512362403207602 1 rotate no_reflect no_shear #
lump $-1 $-1 $71 $17 #
transform $-1 1 0 0 0 1 0 0 0 1 67.796258430738249 42.19746549325167 9.512362403207602 1 rotate no_reflect no_shear #
shell $-1 $-1 $-1 $72 $-1 $18 #
shell $-1 $-1 $-1 $73 $-1 $20 #
shell $-1 $-1 $-1 $74 $-1 $22 #
shell $-1 $-1 $-1 $75 $-1 $24 #
shell $-1 $-1 $-1 $76 $-1 $26 #
shell $-1 $-1 $-1 $77 $-1 $28 #
shell $-1 $-1 $-1 $78 $-1 $30 #
shell $-1 $-1 $-1 $79 $-1 $32 #
shell $-1 $-1 $-1 $80 $-1 $34 #
shell $-1 $-1 $-1 $81 $-1 $36 #
shell $-1 $-1 $-1 $82 $-1 $38 #
shell $-1 $-1 $-1 $83 $-1 $40 #
shell $-1 $-1 $-1 $84 $-1 $42 #
shell $-1 $-1 $-1 $85 $-1 $44 #
shell $-1 $-1 $-1 $86 $-1 $46 #
shell $-1 $-1 $-1 $87 $-1 $48 #
shell $-1 $-1 $-1 $88 $-1 $50 #
shell $-1 $-1 $-1 $89 $-1 $52 #
face $-1 $90 $91 $54 $-1 $92 forward single #
face $-1 $93 $94 $55 $-1 $95 reversed single #
face $-1 $96 $97 $56 $-1 $98 reversed single #
face $-1 $99 $100 $57 $-1 $101 forward single #
face $-1 $102 $103 $58 $-1 $104 forward single #
face $-1 $105 $106 $59 $-1 $107 forward single #
face $-1 $108 $109 $60 $-1 $110 reversed single #
face $-1 $111 $112 $61 $-1 $113 forward single #
face $-1 $114 $115 $62 $-1 $116 forward single #
face $-1 $117 $118 $63 $-1 $119 forward single #
face $-1 $120 $121 $64 $-1 $122 reversed single #
face $-1 $123 $124 $65 $-1 $125 forward single #
face $-1 $126 $127 $66 $-1 $128 forward single #
face $-1 $129 $130 $67 $-1 $131 forward single #
face $-1 $132 $133 $68 $-1 $134 reversed single #
face $-1 $135 $136 $69 $-1 $137 forward single #
face $-1 $138 $139 $70 $-1 $140 forward single #
face $-1 $141 $142 $71 $-1 $143 forward single #
face $-1 $144 $145 $54 $-1 $146 reversed single #
loop $-1 $-1 $147 $72 #
plane-surface $-1 0 0 9.512362403207602 0 0 1 1 0 0 forward_v I I I I #
face $-1 $148 $149 $55 $-1 $150 reversed single #
loop $-1 $-1 $151 $73 #
plane-surface $-1 -64.195805891722841 -30.921912188502716 0 0 1 0 0 0 1 forward_v I I I I #
face $-1 $152 $153 $56 $-1 $154 reversed single #
loop $-1 $-1 $155 $74 #
plane-surface $-1 -17.728599718106537 -134.67134072896812 102.7022052806028 -1 0 0 0 -0.68199836817093118 0.7313536940579346 forward_v I I I I #
face $-1 $156 $157 $57 $-1 $158 forward single #
loop $-1 $159 $160 $75 #
cone-surface $-1 -41.287737550214267 -37.589990936765368 5.0195934566594147 0 0.68199836817093118 -0.7313536940579346 1.5 0 0 1 I I 0 1 1.5 forward I I I I #
face $-1 $161 $162 $58 $-1 $163 forward single #
loop $-1 $164 $165 $76 #
cone-surface $-1 -32.453060863173867 -37.589990936765368 5.0195934566594147 0 0.68199836817093118 -0.7313536940579346 1.5 0 0 1 I I 0 1 1.5 forward I I I I #
face $-1 $166 $167 $59 $-1 $168 forward single #
loop $-1 $169 $170 $77 #
cone-surface $-1 -23.618384176133468 -37.589990936765368 5.0195934566594147 0 0.68199836817093118 -0.7313536940579346 1.5 0 0 1 I I 0 1 1.5 forward I I I I #
face $-1 $171 $172 $60 $-1 $173 reversed single #
loop $-1 $-1 $174 $78 #
plane-surface $-1 54.378427086272019 -134.67134072896812 102.7022052806028 -1 0 0 0 -0.68199836817093118 0.7313536940579346 forward_v I I I I #
face $-1 $175 $176 $61 $-1 $177 forward single #
loop $-1 $178 $179 $79 #
cone-surface $-1 30.819289254164289 -37.589990936765368 5.0195934566594147 0 0.68199836817093118 -0.7313536940579346 1.5 0 0 1 I I 0 1 1.5 forward I I I I #
face $-1 $180 $181 $62 $-1 $182 forward single #
loop $-1 $183 $184 $80 #
cone-surface $-1 39.653965941204689 -37.589990936765368 5.0195934566594147 0 0.68199836817093118 -0.7313536940579346 1.5 0 0 1 I I 0 1 1.5 forward I I I I #
face $-1 $185 $186 $63 $-1 $187 forward single #
loop $-1 $188 $189 $81 #
cone-surface $-1 48.488642628245088 -37.589990936765368 5.0195934566594147 0 0.68199836817093118 -0.7313536940579346 1.5 0 0 1 I I 0 1 1.5 forward I I I I #
face $-1 $190 $191 $64 $-1 $192 reversed single #
loop $-1 $-1 $193 $82 #
plane-surface $-1 -47.177522008241198 72.948796192224449 160.25941049529644 1 0 0 0 -0.68199836817093118 -0.7313536940579346 forward_v I I I I #
face $-1 $194 $195 $65 $-1 $196 forward single #
loop $-1 $197 $198 $83 #
cone-surface $-1 -41.287737550214267 37.589990936765368 5.0195934566594076 0 -0.68199836817093118 -0.7313536940579346 1.5 0 0 1 I I 0 1 1.5 forward I I I I #
face $-1 $199 $200 $66 $-1 $201 forward single #
loop $-1 $202 $203 $84 #
cone-surface $-1 -32.453060863173867 37.589990936765368 5.0195934566594076 0 -0.68199836817093118 -0.7313536940579346 1.5 0 0 1 I I 0 1 1.5 forward I I I I #
face $-1 $204 $205 $67 $-1 $206 forward single #
loop $-1 $207 $208 $85 #
cone-surface $-1 -23.618384176133468 37.589990936765368 5.0195934566594076 0 -0.68199836817093118 -0.7313536940579346 1.5 0 0 1 I I 0 1 1.5 forward I I I I #
face $-1 $209 $210 $68 $-1 $211 reversed single #
loop $-1 $-1 $212 $86 #
plane-surface $-1 24.929504796137358 72.948796192224449 160.25941049529644 1 0 0 0 -0.68199836817093118 -0.7313536940579346 forward_v I I I I #
face $-1 $213 $214 $69 $-1 $215 forward single #
loop $-1 $216 $217 $87 #
cone-surface $-1 30.819289254164289 37.589990936765368 5.0195934566594076 0 -0.68199836817093118 -0.7313536940579346 1.5 0 0 1 I I 0 1 1.5 forward I I I I #
face $-1 $218 $219 $70 $-1 $220 forward single #
loop $-1 $221 $222 $88 #
cone-surface $-1 39.653965941204689 37.589990936765368 5.0195934566594076 0 -0.68199836817093118 -0.7313536940579346 1.5 0 0 1 I I 0 1 1.5 forward I I I I #
face $-1 $223 $224 $71 $-1 $225 forward single #
loop $-1 $226 $227 $89 #
cone-surface $-1 48.488642628245088 37.589990936765368 5.0195934566594076 0 -0.68199836817093118 -0.7313536940579346 1.5 0 0 1 I I 0 1 1.5 forward I I I I #
face $-1 $228 $229 $54 $-1 $230 reversed single #
loop $-1 $-1 $231 $90 #
plane-surface $-1 0 0 -9.512362403207602 0 0 1 1 0 0 forward_v I I I I #
coedge $-1 $232 $233 $234 $235 forward $91 $-1 #
face $-1 $236 $237 $55 $-1 $238 reversed single #
loop $-1 $-1 $239 $93 #
plane-surface $-1 -64.195805891722841 -27.921912188502716 0 0 -1 0 0 0 -1 forward_v I I I I #
coedge $-1 $240 $241 $242 $243 reversed $94 $-1 #
face $-1 $244 $245 $56 $-1 $246 reversed single #
loop $-1 $-1 $247 $96 #
plane-surface $-1 -32.453060863173867 -42.19746549325167 3.536117187349177 0 -0.68199836817093118 0.7313536940579346 1 0 0 forward_v I I I I #
coedge $-1 $248 $249 $250 $251 reversed $97 $-1 #
face $-1 $-1 $252 $57 $-1 $253 forward single #
loop $-1 $254 $255 $99 #
cone-surface $-1 -41.287737550214267 -35.675386719385088 2.9664318474970006 0 0.68199836817093118 -0.7313536940579346 0.75 0 0 1 I I -0.70710678118654757 0.70710678118654757 0.75 forward I I I I #
loop $-1 $-1 $256 $75 #
coedge $-1 $160 $160 $257 $258 reversed $100 $-1 #
face $-1 $-1 $259 $58 $-1 $260 forward single #
loop $-1 $261 $262 $102 #
cone-surface $-1 -32.453060863173867 -35.675386719385088 2.9664318474970006 0 0.68199836817093118 -0.7313536940579346 0.75 0 0 1 I I -0.70710678118654757 0.70710678118654757 0.75 forward I I I I #
loop $-1 $-1 $263 $76 #
coedge $-1 $165 $165 $264 $265 reversed $103 $-1 #
face $-1 $-1 $266 $59 $-1 $267 forward single #
loop $-1 $268 $269 $105 #
cone-surface $-1 -23.618384176133468 -35.675386719385088 2.9664318474970006 0 0.68199836817093118 -0.7313536940579346 0.75 0 0 1 I I -0.70710678118654757 0.70710678118654757 0.75 forward I I I I #
loop $-1 $-1 $270 $77 #
coedge $-1 $170 $170 $271 $272 reversed $106 $-1 #
face $-1 $273 $274 $60 $-1 $275 reversed single #
loop $-1 $-1 $276 $108 #
plane-surface $-1 39.653965941204689 -42.19746549325167 3.536117187349177 0 -0.68199836817093118 0.7313536940579346 1 0 0 forward_v I I I I #
coedge $-1 $277 $278 $279 $280 reversed $109 $-1 #
face $-1 $-1 $281 $61 $-1 $282 forward single #
loop $-1 $283 $284 $111 #
cone-surface $-1 30.819289254164289 -35.675386719385088 2.9664318474970006 0 0.68199836817093118 -0.7313536940579346 0.75 0 0 1 I I -0.70710678118654757 0.70710678118654757 0.75 forward I I I I #
loop $-1 $-1 $285 $79 #
coedge $-1 $179 $179 $286 $287 reversed $112 $-1 #
face $-1 $-1 $288 $62 $-1 $289 forward single #
loop $-1 $290 $291 $114 #
cone-surface $-1 39.653965941204689 -35.675386719385088 2.9664318474970006 0 0.68199836817093118 -0.7313536940579346 0.75 0 0 1 I I -0.70710678118654757 0.70710678118654757 0.75 forward I I I I #
loop $-1 $-1 $292 $80 #
coedge $-1 $184 $184 $293 $294 reversed $115 $-1 #
face $-1 $-1 $295 $63 $-1 $296 forward single #
loop $-1 $297 $298 $117 #
cone-surface $-1 48.488642628245088 -35.675386719385088 2.9664318474970006 0 0.68199836817093118 -0.7313536940579346 0.75 0 0 1 I I -0.70710678118654757 0.70710678118654757 0.75 forward I I I I #
loop $-1 $-1 $299 $81 #
coedge $-1 $189 $189 $300 $301 reversed $118 $-1 #
face $-1 $302 $303 $64 $-1 $304 reversed single #
loop $-1 $-1 $305 $120 #
plane-surface $-1 -32.453060863173867 -19.525079043491999 61.093322402042816 0 0.68199836817093118 0.7313536940579346 1 0 0 forward_v I I I I #
coedge $-1 $306 $307 $308 $309 reversed $121 $-1 #
face $-1 $-1 $310 $65 $-1 $311 forward single #
loop $-1 $312 $313 $123 #
cone-surface $-1 -41.287737550214267 35.675386719385088 2.9664318474969935 0 -0.68199836817093118 -0.7313536940579346 0.75 0 0 1 I I -0.70710678118654757 0.70710678118654757 0.75 forward I I I I #
loop $-1 $-1 $314 $83 #
coedge $-1 $198 $198 $315 $316 reversed $124 $-1 #
face $-1 $-1 $317 $66 $-1 $318 forward single #
loop $-1 $319 $320 $126 #
cone-surface $-1 -32.453060863173867 35.675386719385088 2.9664318474969935 0 -0.68199836817093118 -0.7313536940579346 0.75 0 0 1 I I -0.70710678118654757 0.70710678118654757 0.75 forward I I I I #
loop $-1 $-1 $321 $84 #
coedge $-1 $203 $203 $322 $323 reversed $127 $-1 #
face $-1 $-1 $324 $67 $-1 $325 forward single #
loop $-1 $326 $327 $129 #
cone-surface $-1 -23.618384176133468 35.675386719385088 2.9664318474969935 0 -0.68199836817093118 -0.7313536940579346 0.75 0 0 1 I I -0.70710678118654757 0.70710678118654757 0.75 forward I I I I #
loop $-1 $-1 $328 $85 #
coedge $-1 $208 $208 $329 $330 reversed $130 $-1 #
face $-1 $331 $332 $68 $-1 $333 reversed single #
loop $-1 $-1 $334 $132 #
plane-surface $-1 39.653965941204689 -19.525079043491999 61.093322402042816 0 0.68199836817093118 0.7313536940579346 1 0 0 forward_v I I I I #
coedge $-1 $335 $336 $337 $338 reversed $133 $-1 #
face $-1 $-1 $339 $69 $-1 $340 forward single #
loop $-1 $341 $342 $135 #
cone-surface $-1 30.819289254164289 35.675386719385088 2.9664318474969935 0 -0.68199836817093118 -0.7313536940579346 0.75 0 0 1 I I -0.70710678118654757 0.70710678118654757 0.75 forward I I I I #
loop $-1 $-1 $343 $87 #
coedge $-1 $217 $217 $344 $345 reversed $136 $-1 #
face $-1 $-1 $346 $70 $-1 $347 forward single #
loop $-1 $348 $349 $138 #
cone-surface $-1 39.653965941204689 35.675386719385088 2.9664318474969935 0 -0.68199836817093118 -0.7313536940579346 0.75 0 0 1 I I -0.70710678118654757 0.70710678118654757 0.75 forward I I I I #
loop $-1 $-1 $350 $88 #
coedge $-1 $222 $222 $351 $352 reversed $139 $-1 #
face $-1 $-1 $353 $71 $-1 $354 forward single #
loop $-1 $355 $356 $141 #
cone-surface $-1 48.488642628245088 35.675386719385088 2.9664318474969935 0 -0.68199836817093118 -0.7313536940579346 0.75 0 0 1 I I -0.70710678118654757 0.70710678118654757 0.75 forward I I I I #
loop $-1 $-1 $357 $89 #
coedge $-1 $227 $227 $358 $359 reversed $142 $-1 #
face $-1 $360 $361 $54 $-1 $362 reversed single #
loop $-1 $-1 $363 $144 #
plane-surface $-1 0 -42.19746549325167 0 0 1 0 0 0 1 forward_v I I I I #
coedge $-1 $364 $365 $366 $367 forward $145 $-1 #
coedge $-1 $368 $147 $369 $370 forward $91 $-1 #
coedge $-1 $147 $368 $371 $372 forward $91 $-1 #
coedge $-1 $373 $374 $147 $235 reversed $375 $-1 #
edge $-1 $376 -42.19746549325167 $377 42.19746549325167 $234 $378 forward 7 unknown #
face $-1 $379 $380 $55 $-1 $381 reversed single #
loop $-1 $-1 $382 $148 #
plane-surface $-1 -60.595353352707434 -29.421912188502716 0 -1 0 0 0 0 1 forward_v I I I I #
coedge $-1 $383 $384 $385 $386 forward $149 $-1 #
coedge $-1 $387 $151 $388 $389 reversed $94 $-1 #
coedge $-1 $151 $387 $390 $391 reversed $94 $-1 #
coedge $-1 $392 $393 $151 $243 forward $394 $-1 #
edge $-1 $395 -9.512362403207602 $396 9.512362403207602 $242 $397 forward 7 unknown #
face $-1 $398 $399 $56 $-1 $400 reversed single #
loop $-1 $-1 $401 $152 #
plane-surface $-1 -47.177522008241198 -134.67134072896812 102.7022052806028 1 0 0 0 0.68199836817093118 -0.7313536940579346 forward_v I I I I #
coedge $-1 $402 $403 $404 $405 reversed $153 $-1 #
coedge $-1 $249 $155 $406 $407 reversed $97 $-1 #
coedge $-1 $155 $248 $402 $408 reversed $97 $-1 #
coedge $-1 $404 $409 $155 $251 forward $410 $-1 #
edge $-1 $411 25.138204871232389 $412 31.546943101700805 $250 $413 forward 7 unknown #
loop $-1 $-1 $257 $156 #
plane-surface $-1 -32.453060863173867 -42.19746549325167 3.536117187349177 0 -0.68199836817093118 0.7313536940579346 1 0 0 forward_v I I I I #
loop $-1 $-1 $414 $99 #
coedge $-1 $255 $255 $256 $415 reversed $157 $-1 #
coedge $-1 $256 $256 $255 $415 forward $159 $-1 #
coedge $-1 $257 $257 $160 $258 forward $252 $-1 #
edge $-1 $416 -2.9967994534934317e-015 $416 6.2831853071795978 $257 $417 forward 7 unknown #
loop $-1 $-1 $264 $161 #
plane-surface $-1 -32.453060863173867 -42.19746549325167 3.536117187349177 0 -0.68199836817093118 0.7313536940579346 1 0 0 forward_v I I I I #
loop $-1 $-1 $418 $102 #
coedge $-1 $262 $262 $263 $419 reversed $162 $-1 #
coedge $-1 $263 $263 $262 $419 forward $164 $-1 #
coedge $-1 $264 $264 $165 $265 forward $259 $-1 #
edge $-1 $420 -2.9967994534934317e-015 $420 6.2831853071795978 $264 $421 forward 7 unknown #
loop $-1 $-1 $271 $166 #
plane-surface $-1 -32.453060863173867 -42.19746549325167 3.536117187349177 0 -0.68199836817093118 0.7313536940579346 1 0 0 forward_v I I I I #
loop $-1 $-1 $422 $105 #
coedge $-1 $269 $269 $270 $423 reversed $167 $-1 #
coedge $-1 $270 $270 $269 $423 forward $169 $-1 #
coedge $-1 $271 $271 $170 $272 forward $266 $-1 #
edge $-1 $424 -2.9967994534934317e-015 $424 6.2831853071795978 $271 $425 forward 7 unknown #
face $-1 $426 $427 $60 $-1 $428 reversed single #
loop $-1 $-1 $429 $171 #
plane-surface $-1 24.929504796137358 -134.67134072896812 102.7022052806028 1 0 0 0 0.68199836817093118 -0.7313536940579346 forward_v I I I I #
coedge $-1 $430 $431 $432 $433 reversed $172 $-1 #
coedge $-1 $278 $174 $434 $435 reversed $109 $-1 #
coedge $-1 $174 $277 $430 $436 reversed $109 $-1 #
coedge $-1 $432 $437 $174 $280 forward $438 $-1 #
edge $-1 $439 25.138204871232389 $440 31.546943101700805 $279 $441 forward 7 unknown #
loop $-1 $-1 $286 $175 #
plane-surface $-1 39.653965941204689 -42.19746549325167 3.536117187349177 0 -0.68199836817093118 0.7313536940579346 1 0 0 forward_v I I I I #
loop $-1 $-1 $442 $111 #
coedge $-1 $284 $284 $285 $443 reversed $176 $-1 #
coedge $-1 $285 $285 $284 $443 forward $178 $-1 #
coedge $-1 $286 $286 $179 $287 forward $281 $-1 #
edge $-1 $444 -2.9967994534934317e-015 $444 6.2831853071795978 $286 $445 forward 7 unknown #
loop $-1 $-1 $293 $180 #
plane-surface $-1 39.653965941204689 -42.19746549325167 3.536117187349177 0 -0.68199836817093118 0.7313536940579346 1 0 0 forward_v I I I I #
loop $-1 $-1 $446 $114 #
coedge $-1 $291 $291 $292 $447 reversed $181 $-1 #
coedge $-1 $292 $292 $291 $447 forward $183 $-1 #
coedge $-1 $293 $293 $184 $294 forward $288 $-1 #
edge $-1 $448 -2.9967994534934317e-015 $448 6.2831853071795978 $293 $449 forward 7 unknown #
loop $-1 $-1 $300 $185 #
plane-surface $-1 39.653965941204689 -42.19746549325167 3.536117187349177 0 -0.68199836817093118 0.7313536940579346 1 0 0 forward_v I I I I #
loop $-1 $-1 $450 $117 #
coedge $-1 $298 $298 $299 $451 reversed $186 $-1 #
coedge $-1 $299 $299 $298 $451 forward $188 $-1 #
coedge $-1 $300 $300 $189 $301 forward $295 $-1 #
edge $-1 $452 -2.9967994534934317e-015 $452 6.2831853071795978 $300 $453 forward 7 unknown #
face $-1 $454 $455 $64 $-1 $456 reversed single #
loop $-1 $-1 $457 $190 #
plane-surface $-1 -17.728599718106537 72.948796192224449 160.25941049529644 -1 0 0 0 0.68199836817093118 0.7313536940579346 forward_v I I I I #
coedge $-1 $458 $459 $460 $461 reversed $191 $-1 #
coedge $-1 $307 $193 $462 $463 reversed $121 $-1 #
coedge $-1 $193 $306 $458 $464 reversed $121 $-1 #
coedge $-1 $460 $465 $193 $309 forward $466 $-1 #
edge $-1 $467 -5.7230673971394452 $468 0.68567083332896317 $308 $469 forward 7 unknown #
loop $-1 $-1 $315 $194 #
plane-surface $-1 -32.453060863173867 -19.525079043491999 61.093322402042816 0 0.68199836817093118 0.7313536940579346 1 0 0 forward_v I I I I #
loop $-1 $-1 $470 $123 #
coedge $-1 $313 $313 $314 $471 reversed $195 $-1 #
coedge $-1 $314 $314 $313 $471 forward $197 $-1 #
coedge $-1 $315 $315 $198 $316 forward $310 $-1 #
edge $-1 $472 1.9553573544527183e-015 $472 6.2831853071796022 $315 $473 forward 7 unknown #
loop $-1 $-1 $322 $199 #
plane-surface $-1 -32.453060863173867 -19.525079043491999 61.093322402042816 0 0.68199836817093118 0.7313536940579346 1 0 0 forward_v I I I I #
loop $-1 $-1 $474 $126 #
coedge $-1 $320 $320 $321 $475 reversed $200 $-1 #
coedge $-1 $321 $321 $320 $475 forward $202 $-1 #
coedge $-1 $322 $322 $203 $323 forward $317 $-1 #
edge $-1 $476 1.9553573544527183e-015 $476 6.2831853071796022 $322 $477 forward 7 unknown #
loop $-1 $-1 $329 $204 #
plane-surface $-1 -32.453060863173867 -19.525079043491999 61.093322402042816 0 0.68199836817093118 0.7313536940579346 1 0 0 forward_v I I I I #
loop $-1 $-1 $478 $129 #
coedge $-1 $327 $327 $328 $479 reversed $205 $-1 #
coedge $-1 $328 $328 $327 $479 forward $207 $-1 #
coedge $-1 $329 $329 $208 $330 forward $324 $-1 #
edge $-1 $480 1.9553573544527183e-015 $480 6.2831853071796022 $329 $481 forward 7 unknown #
face $-1 $482 $483 $68 $-1 $484 forward single #
loop $-1 $-1 $485 $209 #
plane-surface $-1 54.378427086272019 72.948796192224449 160.25941049529644 -1 0 0 0 0.68199836817093118 0.7313536940579346 forward_v I I I I #
coedge $-1 $486 $487 $488 $489 reversed $210 $-1 #
coedge $-1 $336 $212 $490 $491 reversed $133 $-1 #
coedge $-1 $212 $335 $486 $492 reversed $133 $-1 #
coedge $-1 $488 $493 $212 $338 forward $483 $-1 #
edge $-1 $494 -5.7230673971394452 $495 0.68567083332896317 $337 $496 forward 7 unknown #
loop $-1 $-1 $344 $213 #
plane-surface $-1 39.653965941204689 -19.525079043491999 61.093322402042816 0 0.68199836817093118 0.7313536940579346 1 0 0 forward_v I I I I #
loop $-1 $-1 $497 $135 #
coedge $-1 $342 $342 $343 $498 reversed $214 $-1 #
coedge $-1 $343 $343 $342 $498 forward $216 $-1 #
coedge $-1 $344 $344 $217 $345 forward $339 $-1 #
edge $-1 $499 1.9553573544527183e-015 $499 6.2831853071796022 $344 $500 forward 7 unknown #
loop $-1 $-1 $351 $218 #
plane-surface $-1 39.653965941204689 -19.525079043491999 61.093322402042816 0 0.68199836817093118 0.7313536940579346 1 0 0 forward_v I I I I #
loop $-1 $-1 $501 $138 #
coedge $-1 $349 $349 $350 $502 reversed $219 $-1 #
coedge $-1 $350 $350 $349 $502 forward $221 $-1 #
coedge $-1 $351 $351 $222 $352 forward $346 $-1 #
edge $-1 $503 1.9553573544527183e-015 $503 6.2831853071796022 $351 $504 forward 7 unknown #
loop $-1 $-1 $358 $223 #
plane-surface $-1 39.653965941204689 -19.525079043491999 61.093322402042816 0 0.68199836817093118 0.7313536940579346 1 0 0 forward_v I I I I #
loop $-1 $-1 $505 $141 #
coedge $-1 $356 $356 $357 $506 reversed $224 $-1 #
coedge $-1 $357 $357 $356 $506 forward $226 $-1 #
coedge $-1 $358 $358 $227 $359 forward $353 $-1 #
edge $-1 $507 1.9553573544527183e-015 $507 6.2831853071796022 $358 $508 forward 7 unknown #
face $-1 $509 $510 $54 $-1 $511 reversed single #
loop $-1 $-1 $512 $228 #
plane-surface $-1 -67.796258430738249 0 0 1 0 0 0 0 -1 forward_v I I I I #
coedge $-1 $513 $371 $514 $515 forward $229 $-1 #
coedge $-1 $516 $231 $513 $517 forward $145 $-1 #
coedge $-1 $231 $516 $518 $519 forward $145 $-1 #
coedge $-1 $374 $373 $231 $367 reversed $375 $-1 #
edge $-1 $520 -42.19746549325167 $521 42.19746549325167 $366 $522 forward 7 unknown #
coedge $-1 $233 $232 $523 $524 forward $91 $-1 #
coedge $-1 $525 $526 $232 $370 reversed $510 $-1 #
edge $-1 $377 -67.796258430738249 $527 67.796258430738249 $369 $528 forward 7 unknown #
coedge $-1 $363 $529 $233 $372 reversed $229 $-1 #
edge $-1 $530 -67.796258430738249 $376 67.796258430738249 $371 $531 forward 7 unknown #
coedge $-1 $366 $234 $529 $532 forward $375 $-1 #
coedge $-1 $234 $366 $525 $533 reversed $375 $-1 #
loop $-1 $-1 $373 $509 #
vertex $-1 $235 $534 #
vertex $-1 $235 $535 #
straight-curve $-1 67.796258430738249 0 9.512362403207602 0 1 0 I I #
face $-1 $536 $537 $55 $-1 $538 forward single #
loop $-1 $-1 $539 $236 #
plane-surface $-1 0 0 -9.512362403207602 0 0 1 1 0 0 forward_v I I I I #
coedge $-1 $540 $541 $387 $542 forward $237 $-1 #
coedge $-1 $543 $239 $539 $544 reversed $149 $-1 #
coedge $-1 $239 $543 $545 $546 reversed $149 $-1 #
coedge $-1 $541 $540 $239 $386 reversed $237 $-1 #
edge $-1 $547 -9.512362403207602 $548 9.512362403207602 $385 $549 forward 7 unknown #
coedge $-1 $241 $240 $382 $542 reversed $94 $-1 #
coedge $-1 $550 $551 $240 $389 forward $380 $-1 #
edge $-1 $552 28.497450406846013 $395 35.698355484876828 $388 $553 forward 7 unknown #
coedge $-1 $554 $555 $241 $391 forward $537 $-1 #
edge $-1 $396 -35.698355484876828 $556 -28.497450406846013 $390 $557 forward 7 unknown #
coedge $-1 $558 $242 $555 $559 reversed $394 $-1 #
coedge $-1 $242 $558 $550 $560 reversed $394 $-1 #
loop $-1 $-1 $558 $536 #
vertex $-1 $560 $561 #
vertex $-1 $243 $562 #
straight-curve $-1 -67.796258430738249 -30.921912188502716 0 0 0 1 I I #
face $-1 $-1 $410 $56 $-1 $563 forward single #
loop $-1 $-1 $564 $244 #
plane-surface $-1 0 -42.19746549325167 0 0 1 0 0 0 1 forward_v I I I I #
coedge $-1 $565 $566 $567 $568 reversed $245 $-1 #
coedge $-1 $569 $247 $249 $408 forward $153 $-1 #
coedge $-1 $247 $569 $565 $570 forward $153 $-1 #
coedge $-1 $567 $250 $247 $405 forward $410 $-1 #
edge $-1 $412 1.5020692865196033 $571 30.950991576654264 $404 $572 forward 7 unknown #
coedge $-1 $573 $574 $248 $407 forward $399 $-1 #
edge $-1 $575 -47.814985452952222 $411 -41.838740237093795 $406 $576 forward 7 unknown #
edge $-1 $412 -8.7628438641081665 $575 0 $249 $577 forward 7 unknown #
coedge $-1 $250 $567 $573 $578 forward $410 $-1 #
loop $-1 $-1 $567 $398 #
vertex $-1 $407 $579 #
vertex $-1 $251 $580 #
straight-curve $-1 -17.728599718106537 -67.335670364484059 9.5123624032076037 0 1 0 I I #
coedge $-1 $414 $414 $-1 $581 reversed $254 $-1 #
edge $-1 $582 0 $582 6.2831853071796004 $255 $583 forward 7 unknown #
vertex $-1 $258 $584 #
ellipse-curve $-1 -41.287737550214267 -38.993096378017462 6.5242397952783913 0 -0.68199836817093118 0.7313536940579346 1.5 0 0 1 I I #
coedge $-1 $418 $418 $-1 $585 reversed $261 $-1 #
edge $-1 $586 0 $586 6.2831853071796004 $262 $587 forward 7 unknown #
vertex $-1 $265 $588 #
ellipse-curve $-1 -32.453060863173867 -38.993096378017462 6.5242397952783913 0 -0.68199836817093118 0.7313536940579346 1.5 0 0 1 I I #
coedge $-1 $422 $422 $-1 $589 reversed $268 $-1 #
edge $-1 $590 0 $590 6.2831853071796004 $269 $591 forward 7 unknown #
vertex $-1 $272 $592 #
ellipse-curve $-1 -23.618384176133468 -38.993096378017462 6.5242397952783913 0 -0.68199836817093118 0.7313536940579346 1.5 0 0 1 I I #
face $-1 $-1 $438 $60 $-1 $593 forward single #
loop $-1 $-1 $594 $273 #
plane-surface $-1 0 -42.19746549325167 0 0 1 0 0 0 1 forward_v I I I I #
coedge $-1 $595 $596 $597 $598 reversed $274 $-1 #
coedge $-1 $599 $276 $278 $436 forward $172 $-1 #
coedge $-1 $276 $599 $595 $600 forward $172 $-1 #
coedge $-1 $597 $279 $276 $433 forward $438 $-1 #
edge $-1 $440 -34.551444115669675 $601 -5.102521825535014 $432 $602 forward 7 unknown #
coedge $-1 $603 $604 $277 $435 forward $427 $-1 #
edge $-1 $605 -47.814985452952222 $439 -41.838740237093795 $434 $606 forward 7 unknown #
edge $-1 $440 -8.7628438641081665 $605 0 $278 $607 forward 7 unknown #
coedge $-1 $279 $597 $603 $608 forward $438 $-1 #
loop $-1 $-1 $597 $426 #
vertex $-1 $435 $609 #
vertex $-1 $280 $610 #
straight-curve $-1 54.378427086272019 -67.335670364484059 9.5123624032076037 0 1 0 I I #
coedge $-1 $442 $442 $-1 $611 reversed $283 $-1 #
edge $-1 $612 0 $612 6.2831853071796004 $284 $613 forward 7 unknown #
vertex $-1 $287 $614 #
ellipse-curve $-1 30.819289254164289 -38.993096378017462 6.5242397952783913 0 -0.68199836817093118 0.7313536940579346 1.5 0 0 1 I I #
coedge $-1 $446 $446 $-1 $615 reversed $290 $-1 #
edge $-1 $616 0 $616 6.2831853071796004 $291 $617 forward 7 unknown #
vertex $-1 $294 $618 #
ellipse-curve $-1 39.653965941204689 -38.993096378017462 6.5242397952783913 0 -0.68199836817093118 0.7313536940579346 1.5 0 0 1 I I #
coedge $-1 $450 $450 $-1 $619 reversed $297 $-1 #
edge $-1 $620 0 $620 6.2831853071796004 $298 $621 forward 7 unknown #
vertex $-1 $301 $622 #
ellipse-curve $-1 48.488642628245088 -38.993096378017462 6.5242397952783913 0 -0.68199836817093118 0.7313536940579346 1.5 0 0 1 I I #
face $-1 $-1 $466 $64 $-1 $623 forward single #
loop $-1 $-1 $624 $302 #
plane-surface $-1 0 42.19746549325167 0 0 -1 0 0 0 -1 forward_v I I I I #
coedge $-1 $625 $626 $627 $628 reversed $303 $-1 #
coedge $-1 $629 $305 $307 $464 forward $191 $-1 #
coedge $-1 $305 $629 $625 $630 forward $191 $-1 #
coedge $-1 $627 $308 $305 $461 forward $466 $-1 #
edge $-1 $468 -30.950991576654264 $631 -1.5020692865196033 $460 $632 forward 7 unknown #
coedge $-1 $633 $634 $306 $463 forward $455 $-1 #
edge $-1 $635 -76.593588060299027 $467 -70.617342844440614 $462 $636 forward 7 unknown #
edge $-1 $468 75.632087122395177 $635 84.39493098650334 $307 $637 forward 7 unknown #
coedge $-1 $308 $627 $633 $638 forward $466 $-1 #
loop $-1 $-1 $627 $454 #
vertex $-1 $463 $639 #
vertex $-1 $309 $640 #
straight-curve $-1 -47.177522008241198 36.474398096112225 9.5123624032076037 0 -1 0 I I #
coedge $-1 $470 $470 $-1 $641 reversed $312 $-1 #
edge $-1 $642 0 $642 6.2831853071796004 $313 $643 forward 7 unknown #
vertex $-1 $316 $644 #
ellipse-curve $-1 -41.287737550214267 38.993096378017469 6.5242397952783895 0 0.68199836817093118 0.7313536940579346 1.5 0 0 1 I I #
coedge $-1 $474 $474 $-1 $645 reversed $319 $-1 #
edge $-1 $646 0 $646 6.2831853071796004 $320 $647 forward 7 unknown #
vertex $-1 $323 $648 #
ellipse-curve $-1 -32.453060863173867 38.993096378017469 6.5242397952783895 0 0.68199836817093118 0.7313536940579346 1.5 0 0 1 I I #
coedge $-1 $478 $478 $-1 $649 reversed $326 $-1 #
edge $-1 $650 0 $650 6.2831853071796004 $327 $651 forward 7 unknown #
vertex $-1 $330 $652 #
ellipse-curve $-1 -23.618384176133468 38.993096378017469 6.5242397952783895 0 0.68199836817093118 0.7313536940579346 1.5 0 0 1 I I #
face $-1 $-1 $653 $68 $-1 $654 reversed single #
loop $-1 $-1 $337 $331 #
plane-surface $-1 0 0 9.512362403207602 0 0 1 1 0 0 forward_v I I I I #
coedge $-1 $655 $656 $657 $658 reversed $332 $-1 #
coedge $-1 $659 $334 $336 $492 forward $210 $-1 #
coedge $-1 $334 $659 $655 $660 forward $210 $-1 #
coedge $-1 $657 $337 $334 $489 forward $483 $-1 #
edge $-1 $495 5.102521825535014 $661 34.551444115669675 $488 $662 forward 7 unknown #
coedge $-1 $663 $664 $335 $491 forward $653 $-1 #
edge $-1 $665 -76.593588060299027 $494 -70.617342844440614 $490 $666 forward 7 unknown #
edge $-1 $495 75.632087122395177 $665 84.39493098650334 $336 $667 forward 7 unknown #
coedge $-1 $337 $657 $663 $668 forward $483 $-1 #
vertex $-1 $491 $669 #
vertex $-1 $338 $670 #
straight-curve $-1 24.929504796137358 36.474398096112225 9.5123624032076037 0 -1 0 I I #
coedge $-1 $497 $497 $-1 $671 reversed $341 $-1 #
edge $-1 $672 0 $672 6.2831853071796004 $342 $673 forward 7 unknown #
vertex $-1 $345 $674 #
ellipse-curve $-1 30.819289254164289 38.993096378017469 6.5242397952783895 0 0.68199836817093118 0.7313536940579346 1.5 0 0 1 I I #
coedge $-1 $501 $501 $-1 $675 reversed $348 $-1 #
edge $-1 $676 0 $676 6.2831853071796004 $349 $677 forward 7 unknown #
vertex $-1 $352 $678 #
ellipse-curve $-1 39.653965941204689 38.993096378017469 6.5242397952783895 0 0.68199836817093118 0.7313536940579346 1.5 0 0 1 I I #
coedge $-1 $505 $505 $-1 $679 reversed $355 $-1 #
edge $-1 $680 0 $680 6.2831853071796004 $356 $681 forward 7 unknown #
vertex $-1 $359 $682 #
ellipse-curve $-1 48.488642628245088 38.993096378017469 6.5242397952783895 0 0.68199836817093118 0.7313536940579346 1.5 0 0 1 I I #
face $-1 $-1 $375 $54 $-1 $683 reversed single #
loop $-1 $-1 $525 $360 #
plane-surface $-1 0 42.19746549325167 0 0 -1 0 0 0 -1 forward_v I I I I #
coedge $-1 $684 $523 $526 $685 forward $361 $-1 #
coedge $-1 $529 $363 $364 $517 reversed $229 $-1 #
coedge $-1 $523 $684 $363 $515 reversed $361 $-1 #
edge $-1 $530 -9.512362403207602 $686 9.512362403207602 $514 $687 forward 7 unknown #
coedge $-1 $365 $364 $684 $688 forward $145 $-1 #
edge $-1 $521 -67.796258430738249 $686 67.796258430738249 $513 $689 forward 7 unknown #
coedge $-1 $526 $525 $365 $519 reversed $510 $-1 #
edge $-1 $690 -67.796258430738249 $520 67.796258430738249 $518 $691 forward 7 unknown #
vertex $-1 $367 $692 #
vertex $-1 $532 $693 #
straight-curve $-1 67.796258430738249 0 -9.512362403207602 0 -1 0 I I #
coedge $-1 $512 $514 $368 $524 reversed $361 $-1 #
edge $-1 $527 -42.19746549325167 $530 42.19746549325167 $523 $694 forward 7 unknown #
coedge $-1 $518 $369 $374 $533 forward $510 $-1 #
coedge $-1 $369 $518 $512 $685 reversed $510 $-1 #
vertex $-1 $370 $695 #
straight-curve $-1 0 42.19746549325167 9.512362403207602 -1 0 0 I I #
coedge $-1 $371 $513 $373 $532 reversed $229 $-1 #
vertex $-1 $524 $696 #
straight-curve $-1 0 -42.19746549325167 9.512362403207602 1 0 0 I I #
edge $-1 $376 -9.512362403207602 $521 9.512362403207602 $373 $697 forward 7 unknown #
edge $-1 $377 -9.512362403207602 $520 9.512362403207602 $374 $698 forward 7 unknown #
point $-1 67.796258430738249 -42.19746549325167 9.512362403207602 #
point $-1 67.796258430738249 42.19746549325167 9.512362403207602 #
face $-1 $-1 $394 $55 $-1 $699 reversed single #
loop $-1 $-1 $545 $379 #
plane-surface $-1 0 0 9.512362403207602 0 0 1 1 0 0 forward_v I I I I #
coedge $-1 $551 $550 $383 $544 forward $380 $-1 #
coedge $-1 $385 $382 $551 $700 reversed $237 $-1 #
coedge $-1 $382 $385 $554 $701 reversed $237 $-1 #
edge $-1 $556 -9.512362403207602 $552 9.512362403207602 $382 $702 forward 7 unknown #
coedge $-1 $384 $383 $558 $703 reversed $149 $-1 #
edge $-1 $704 -35.698355484876828 $548 -28.497450406846013 $539 $705 forward 7 unknown #
coedge $-1 $555 $554 $384 $546 forward $537 $-1 #
edge $-1 $547 28.497450406846013 $706 35.698355484876828 $545 $707 forward 7 unknown #
vertex $-1 $546 $708 #
vertex $-1 $544 $709 #
straight-curve $-1 -60.595353352707434 -27.921912188502716 0 0 0 -1 I I #
coedge $-1 $539 $388 $393 $560 forward $380 $-1 #
coedge $-1 $388 $539 $540 $700 forward $380 $-1 #
vertex $-1 $389 $710 #
straight-curve $-1 -32.097902945861421 -30.921912188502716 -9.512362403207602 -1 0 0 I I #
coedge $-1 $545 $390 $541 $701 forward $537 $-1 #
coedge $-1 $390 $545 $392 $559 forward $537 $-1 #
vertex $-1 $391 $711 #
straight-curve $-1 -32.097902945861421 -30.921912188502716 9.512362403207602 1 0 0 I I #
coedge $-1 $393 $392 $543 $703 forward $394 $-1 #
edge $-1 $706 27.921912188502716 $396 30.921912188502716 $392 $712 forward 7 unknown #
edge $-1 $395 -30.921912188502716 $704 -27.921912188502716 $393 $713 forward 7 unknown #
point $-1 -67.796258430738249 -30.921912188502716 -9.512362403207602 #
point $-1 -67.796258430738249 -30.921912188502716 9.512362403207602 #
plane-surface $-1 0 0 9.512362403207602 0 0 1 1 0 0 forward_v I I I I #
coedge $-1 $574 $573 $566 $714 forward $399 $-1 #
coedge $-1 $566 $401 $403 $570 reversed $245 $-1 #
coedge $-1 $401 $565 $564 $714 reversed $245 $-1 #
coedge $-1 $409 $404 $401 $568 forward $410 $-1 #
edge $-1 $571 -31.546943101700805 $715 -25.138204871232389 $567 $716 forward 7 unknown #
coedge $-1 $403 $402 $574 $717 reversed $153 $-1 #
edge $-1 $718 0 $571 8.7628438641081665 $565 $719 forward 7 unknown #
vertex $-1 $405 $720 #
straight-curve $-1 -16.226530431586934 -35.788727262783254 9.512362403207602 -1 0 0 I I #
coedge $-1 $564 $406 $409 $578 reversed $399 $-1 #
coedge $-1 $406 $564 $569 $717 forward $399 $-1 #
vertex $-1 $407 $721 #
straight-curve $-1 -17.728599718106537 -42.19746549325167 51.351102640301399 0 0 1 I I #
straight-curve $-1 -17.728599718106537 -42.19746549325167 3.536117187349177 0 -0.7313536940579346 -0.68199836817093118 I I #
edge $-1 $715 -47.177522008241198 $411 -17.728599718106537 $573 $722 forward 7 unknown #
point $-1 -17.728599718106537 -42.19746549325167 9.512362403207602 #
point $-1 -17.728599718106537 -35.788727262783254 9.512362403207602 #
edge $-1 $723 1 $723 0 $414 $-1 forward 7 unknown #
vertex $-1 $415 $724 #
ellipse-curve $-1 -41.287737550214267 -36.186885495513287 3.5149471180404515 0 -0.68199836817093118 0.7313536940579346 1.5 0 0 1 I I #
point $-1 -39.787737550214267 -38.993096378017455 6.5242397952783771 #
edge $-1 $725 1 $725 0 $418 $-1 forward 7 unknown #
vertex $-1 $419 $726 #
ellipse-curve $-1 -32.453060863173867 -36.186885495513287 3.5149471180404515 0 -0.68199836817093118 0.7313536940579346 1.5 0 0 1 I I #
point $-1 -30.953060863173867 -38.993096378017455 6.5242397952783771 #
edge $-1 $727 1 $727 0 $422 $-1 forward 7 unknown #
vertex $-1 $423 $728 #
ellipse-curve $-1 -23.618384176133468 -36.186885495513287 3.5149471180404515 0 -0.68199836817093118 0.7313536940579346 1.5 0 0 1 I I #
point $-1 -22.118384176133468 -38.993096378017455 6.5242397952783771 #
plane-surface $-1 0 0 9.512362403207602 0 0 1 1 0 0 forward_v I I I I #
coedge $-1 $604 $603 $596 $729 forward $427 $-1 #
coedge $-1 $596 $429 $431 $600 reversed $274 $-1 #
coedge $-1 $429 $595 $594 $729 reversed $274 $-1 #
coedge $-1 $437 $432 $429 $598 forward $438 $-1 #
edge $-1 $601 -31.546943101700805 $730 -25.138204871232389 $597 $731 forward 7 unknown #
coedge $-1 $431 $430 $604 $732 reversed $172 $-1 #
edge $-1 $733 0 $601 8.7628438641081665 $595 $734 forward 7 unknown #
vertex $-1 $433 $735 #
straight-curve $-1 19.826982970602344 -35.788727262783254 9.512362403207602 -1 0 0 I I #
coedge $-1 $594 $434 $437 $608 reversed $427 $-1 #
coedge $-1 $434 $594 $599 $732 forward $427 $-1 #
vertex $-1 $435 $736 #
straight-curve $-1 54.378427086272019 -42.19746549325167 51.351102640301399 0 0 1 I I #
straight-curve $-1 54.378427086272019 -42.19746549325167 3.536117187349177 0 -0.7313536940579346 -0.68199836817093118 I I #
edge $-1 $730 24.929504796137358 $439 54.378427086272019 $603 $737 forward 7 unknown #
point $-1 54.378427086272019 -42.19746549325167 9.512362403207602 #
point $-1 54.378427086272019 -35.788727262783254 9.512362403207602 #
edge $-1 $738 1 $738 0 $442 $-1 forward 7 unknown #
vertex $-1 $443 $739 #
ellipse-curve $-1 30.819289254164289 -36.186885495513287 3.5149471180404515 0 -0.68199836817093118 0.7313536940579346 1.5 0 0 1 I I #
point $-1 32.319289254164289 -38.993096378017455 6.5242397952783771 #
edge $-1 $740 1 $740 0 $446 $-1 forward 7 unknown #
vertex $-1 $447 $741 #
ellipse-curve $-1 39.653965941204689 -36.186885495513287 3.5149471180404515 0 -0.68199836817093118 0.7313536940579346 1.5 0 0 1 I I #
point $-1 41.153965941204689 -38.993096378017455 6.5242397952783771 #
edge $-1 $742 1 $742 0 $450 $-1 forward 7 unknown #
vertex $-1 $451 $743 #
ellipse-curve $-1 48.488642628245088 -36.186885495513287 3.5149471180404515 0 -0.68199836817093118 0.7313536940579346 1.5 0 0 1 I I #
point $-1 49.988642628245088 -38.993096378017455 6.5242397952783771 #
plane-surface $-1 0 0 9.512362403207602 0 0 1 1 0 0 forward_v I I I I #
coedge $-1 $634 $633 $626 $744 forward $455 $-1 #
coedge $-1 $626 $457 $459 $630 reversed $303 $-1 #
coedge $-1 $457 $625 $624 $744 reversed $303 $-1 #
coedge $-1 $465 $460 $457 $628 forward $466 $-1 #
edge $-1 $631 -0.68567083332896317 $745 5.7230673971394452 $627 $746 forward 7 unknown #
coedge $-1 $459 $458 $634 $747 reversed $191 $-1 #
edge $-1 $748 -84.39493098650334 $631 -75.632087122395177 $625 $749 forward 7 unknown #
vertex $-1 $461 $750 #
straight-curve $-1 -16.226530431586934 35.788727262783269 9.5123624032076037 1 0 0 I I #
coedge $-1 $624 $462 $465 $638 reversed $455 $-1 #
coedge $-1 $462 $624 $629 $747 forward $455 $-1 #
vertex $-1 $463 $751 #
straight-curve $-1 -47.177522008241198 42.19746549325167 80.129705247648218 0 0 1 I I #
straight-curve $-1 -47.177522008241198 -19.525079043491999 61.093322402042816 0 0.7313536940579346 -0.68199836817093118 I I #
edge $-1 $745 17.728599718106537 $467 47.177522008241198 $633 $752 forward 7 unknown #
point $-1 -47.177522008241198 42.19746549325167 9.512362403207602 #
point $-1 -47.177522008241198 35.788727262783262 9.5123624032076037 #
edge $-1 $753 1 $753 0 $470 $-1 forward 7 unknown #
vertex $-1 $471 $754 #
ellipse-curve $-1 -41.287737550214267 36.186885495513287 3.5149471180404444 0 0.68199836817093118 0.7313536940579346 1.5 0 0 1 I I #
point $-1 -39.787737550214267 38.993096378017455 6.5242397952783699 #
edge $-1 $755 1 $755 0 $474 $-1 forward 7 unknown #
vertex $-1 $475 $756 #
ellipse-curve $-1 -32.453060863173867 36.186885495513287 3.5149471180404444 0 0.68199836817093118 0.7313536940579346 1.5 0 0 1 I I #
point $-1 -30.953060863173867 38.993096378017455 6.5242397952783699 #
edge $-1 $757 1 $757 0 $478 $-1 forward 7 unknown #
vertex $-1 $479 $758 #
ellipse-curve $-1 -23.618384176133468 36.186885495513287 3.5149471180404444 0 0.68199836817093118 0.7313536940579346 1.5 0 0 1 I I #
point $-1 -22.118384176133468 38.993096378017455 6.5242397952783699 #
loop $-1 $-1 $490 $482 #
plane-surface $-1 0 42.19746549325167 0 0 -1 0 0 0 -1 forward_v I I I I #
coedge $-1 $656 $485 $487 $660 reversed $332 $-1 #
coedge $-1 $485 $655 $759 $760 reversed $332 $-1 #
coedge $-1 $493 $488 $485 $658 forward $483 $-1 #
edge $-1 $661 -0.68567083332896317 $761 5.7230673971394452 $657 $762 forward 7 unknown #
coedge $-1 $487 $486 $664 $763 reversed $210 $-1 #
edge $-1 $764 -84.39493098650334 $661 -75.632087122395177 $655 $765 forward 7 unknown #
vertex $-1 $489 $766 #
straight-curve $-1 19.826982970602344 35.788727262783269 9.5123624032076037 1 0 0 I I #
coedge $-1 $759 $490 $493 $668 reversed $653 $-1 #
coedge $-1 $490 $759 $659 $763 forward $653 $-1 #
vertex $-1 $491 $767 #
straight-curve $-1 24.929504796137358 42.19746549325167 80.129705247648218 0 0 1 I I #
straight-curve $-1 24.929504796137358 -19.525079043491999 61.093322402042816 0 0.7313536940579346 -0.68199836817093118 I I #
edge $-1 $761 -54.378427086272019 $494 -24.929504796137358 $663 $768 forward 7 unknown #
point $-1 24.929504796137358 42.19746549325167 9.512362403207602 #
point $-1 24.929504796137358 35.788727262783262 9.5123624032076037 #
edge $-1 $769 1 $769 0 $497 $-1 forward 7 unknown #
vertex $-1 $498 $770 #
ellipse-curve $-1 30.819289254164289 36.186885495513287 3.5149471180404444 0 0.68199836817093118 0.7313536940579346 1.5 0 0 1 I I #
point $-1 32.319289254164289 38.993096378017455 6.5242397952783699 #
edge $-1 $771 1 $771 0 $501 $-1 forward 7 unknown #
vertex $-1 $502 $772 #
ellipse-curve $-1 39.653965941204689 36.186885495513287 3.5149471180404444 0 0.68199836817093118 0.7313536940579346 1.5 0 0 1 I I #
point $-1 41.153965941204689 38.993096378017455 6.5242397952783699 #
edge $-1 $773 1 $773 0 $505 $-1 forward 7 unknown #
vertex $-1 $506 $774 #
ellipse-curve $-1 48.488642628245088 36.186885495513287 3.5149471180404444 0 0.68199836817093118 0.7313536940579346 1.5 0 0 1 I I #
point $-1 49.988642628245088 38.993096378017455 6.5242397952783699 #
plane-surface $-1 67.796258430738249 0 0 -1 0 0 0 0 1 forward_v I I I I #
coedge $-1 $514 $512 $516 $688 reversed $361 $-1 #
edge $-1 $527 -9.512362403207602 $690 9.512362403207602 $526 $775 forward 7 unknown #
vertex $-1 $688 $776 #
straight-curve $-1 -67.796258430738249 -42.19746549325167 0 0 0 -1 I I #
edge $-1 $686 -42.19746549325167 $690 42.19746549325167 $684 $777 forward 7 unknown #
straight-curve $-1 0 -42.19746549325167 -9.512362403207602 -1 0 0 I I #
vertex $-1 $519 $778 #
straight-curve $-1 0 42.19746549325167 -9.512362403207602 1 0 0 I I #
point $-1 67.796258430738249 42.19746549325167 -9.512362403207602 #
point $-1 67.796258430738249 -42.19746549325167 -9.512362403207602 #
straight-curve $-1 -67.796258430738249 0 9.512362403207602 0 -1 0 I I #
point $-1 -67.796258430738249 42.19746549325167 9.512362403207602 #
point $-1 -67.796258430738249 -42.19746549325167 9.512362403207602 #
straight-curve $-1 67.796258430738249 -42.19746549325167 0 0 0 -1 I I #
straight-curve $-1 67.796258430738249 42.19746549325167 0 0 0 -1 I I #
plane-surface $-1 -67.796258430738249 0 0 1 0 0 0 0 -1 forward_v I I I I #
edge $-1 $548 13.210956094251358 $552 16.210956094251358 $551 $779 forward 7 unknown #
edge $-1 $556 -16.210956094251358 $547 -13.210956094251358 $554 $780 forward 7 unknown #
straight-curve $-1 -60.595353352707434 -30.921912188502716 0 0 0 -1 I I #
edge $-1 $706 -9.512362403207602 $704 9.512362403207602 $558 $781 forward 7 unknown #
vertex $-1 $703 $782 #
straight-curve $-1 -32.097902945861421 -27.921912188502716 -9.512362403207602 1 0 0 I I #
vertex $-1 $559 $783 #
straight-curve $-1 -32.097902945861421 -27.921912188502716 9.512362403207602 -1 0 0 I I #
point $-1 -60.595353352707434 -27.921912188502716 9.512362403207602 #
point $-1 -60.595353352707434 -27.921912188502716 -9.512362403207602 #
point $-1 -60.595353352707434 -30.921912188502716 -9.512362403207602 #
point $-1 -60.595353352707434 -30.921912188502716 9.512362403207602 #
straight-curve $-1 -67.796258430738249 0 9.512362403207602 0 -1 0 I I #
straight-curve $-1 -67.796258430738249 0 -9.512362403207602 0 1 0 I I #
edge $-1 $715 41.838740237093795 $718 47.814985452952222 $564 $784 forward 7 unknown #
vertex $-1 $578 $785 #
straight-curve $-1 -47.177522008241198 -67.335670364484059 9.5123624032076037 0 -1 0 I I #
edge $-1 $718 -30.950991576654264 $575 -1.5020692865196033 $574 $786 forward 7 unknown #
vertex $-1 $717 $787 #
straight-curve $-1 -47.177522008241198 -42.19746549325167 3.536117187349177 0 0.7313536940579346 0.68199836817093118 I I #
point $-1 -47.177522008241198 -35.788727262783254 9.512362403207602 #
point $-1 -17.728599718106537 -42.19746549325167 3.536117187349177 #
straight-curve $-1 0 -42.19746549325167 9.512362403207602 1 0 0 I I #
vertex $-1 $581 $788 #
point $-1 -39.787737550214267 -36.186885495513287 3.5149471180404515 #
vertex $-1 $585 $789 #
point $-1 -30.953060863173867 -36.186885495513287 3.5149471180404515 #
vertex $-1 $589 $790 #
point $-1 -22.118384176133468 -36.186885495513287 3.5149471180404515 #
edge $-1 $730 41.838740237093795 $733 47.814985452952222 $594 $791 forward 7 unknown #
vertex $-1 $608 $792 #
straight-curve $-1 24.929504796137358 -67.335670364484059 9.5123624032076037 0 -1 0 I I #
edge $-1 $733 5.102521825535014 $605 34.551444115669675 $604 $793 forward 7 unknown #
vertex $-1 $732 $794 #
straight-curve $-1 24.929504796137358 -42.19746549325167 3.536117187349177 0 0.7313536940579346 0.68199836817093118 I I #
point $-1 24.929504796137358 -35.788727262783254 9.512362403207602 #
point $-1 54.378427086272019 -42.19746549325167 3.536117187349177 #
straight-curve $-1 0 -42.19746549325167 9.512362403207602 1 0 0 I I #
vertex $-1 $611 $795 #
point $-1 32.319289254164289 -36.186885495513287 3.5149471180404515 #
vertex $-1 $615 $796 #
point $-1 41.153965941204689 -36.186885495513287 3.5149471180404515 #
vertex $-1 $619 $797 #
point $-1 49.988642628245088 -36.186885495513287 3.5149471180404515 #
edge $-1 $745 70.617342844440614 $748 76.593588060299027 $624 $798 forward 7 unknown #
vertex $-1 $638 $799 #
straight-curve $-1 -17.728599718106537 36.474398096112225 9.5123624032076037 0 1 0 I I #
edge $-1 $748 1.5020692865196033 $635 30.950991576654264 $634 $800 forward 7 unknown #
vertex $-1 $747 $801 #
straight-curve $-1 -17.728599718106537 -19.525079043491999 61.093322402042816 0 -0.7313536940579346 0.68199836817093118 I I #
point $-1 -17.728599718106537 35.788727262783262 9.5123624032076037 #
point $-1 -47.177522008241198 42.19746549325167 3.5361171873491841 #
straight-curve $-1 0 42.19746549325167 9.512362403207602 -1 0 0 I I #
vertex $-1 $641 $802 #
point $-1 -39.787737550214267 36.186885495513287 3.5149471180404444 #
vertex $-1 $645 $803 #
point $-1 -30.953060863173867 36.186885495513287 3.5149471180404444 #
vertex $-1 $649 $804 #
point $-1 -22.118384176133468 36.186885495513287 3.5149471180404444 #
coedge $-1 $664 $663 $656 $760 forward $653 $-1 #
edge $-1 $761 70.617342844440614 $764 76.593588060299027 $759 $805 forward 7 unknown #
vertex $-1 $668 $806 #
straight-curve $-1 54.378427086272019 36.474398096112225 9.5123624032076037 0 1 0 I I #
edge $-1 $764 -34.551444115669675 $665 -5.102521825535014 $664 $807 forward 7 unknown #
vertex $-1 $763 $808 #
straight-curve $-1 54.378427086272019 -19.525079043491999 61.093322402042816 0 -0.7313536940579346 0.68199836817093118 I I #
point $-1 54.378427086272019 35.788727262783262 9.5123624032076037 #
point $-1 24.929504796137358 42.19746549325167 3.5361171873491841 #
straight-curve $-1 0 42.19746549325167 9.512362403207602 -1 0 0 I I #
vertex $-1 $671 $809 #
point $-1 32.319289254164289 36.186885495513287 3.5149471180404444 #
vertex $-1 $675 $810 #
point $-1 41.153965941204689 36.186885495513287 3.5149471180404444 #
vertex $-1 $679 $811 #
point $-1 49.988642628245088 36.186885495513287 3.5149471180404444 #
straight-curve $-1 -67.796258430738249 42.19746549325167 0 0 0 -1 I I #
point $-1 -67.796258430738249 -42.19746549325167 -9.512362403207602 #
straight-curve $-1 -67.796258430738249 0 -9.512362403207602 0 1 0 I I #
point $-1 -67.796258430738249 42.19746549325167 -9.512362403207602 #
straight-curve $-1 -60.595353352707434 -14.710956094251358 -9.512362403207602 0 -1 0 I I #
straight-curve $-1 -60.595353352707434 -14.710956094251358 9.512362403207602 0 1 0 I I #
straight-curve $-1 -67.796258430738249 -27.921912188502716 0 0 0 -1 I I #
point $-1 -67.796258430738249 -27.921912188502716 -9.512362403207602 #
point $-1 -67.796258430738249 -27.921912188502716 9.512362403207602 #
straight-curve $-1 -47.177522008241198 -42.19746549325167 51.351102640301399 0 0 -1 I I #
point $-1 -47.177522008241198 -42.19746549325167 9.512362403207602 #
straight-curve $-1 -16.226530431586934 -42.19746549325167 3.5361171873491748 1 0 0 I I #
point $-1 -47.177522008241198 -42.19746549325167 3.536117187349177 #
point $-1 -41.287737550214267 -35.163887943256888 2.4179165769535498 #
point $-1 -32.453060863173867 -35.163887943256888 2.4179165769535498 #
point $-1 -23.618384176133468 -35.163887943256888 2.4179165769535498 #
straight-curve $-1 24.929504796137358 -42.19746549325167 51.351102640301399 0 0 -1 I I #
point $-1 24.929504796137358 -42.19746549325167 9.512362403207602 #
straight-curve $-1 19.826982970602344 -42.19746549325167 3.5361171873491748 1 0 0 I I #
point $-1 24.929504796137358 -42.19746549325167 3.536117187349177 #
point $-1 30.819289254164289 -35.163887943256888 2.4179165769535498 #
point $-1 39.653965941204689 -35.163887943256888 2.4179165769535498 #
point $-1 48.488642628245088 -35.163887943256888 2.4179165769535498 #
straight-curve $-1 -17.728599718106537 42.19746549325167 80.129705247648218 0 0 -1 I I #
point $-1 -17.728599718106537 42.19746549325167 9.512362403207602 #
straight-curve $-1 -16.226530431586934 42.197465493251663 3.5361171873491912 -1 0 0 I I #
point $-1 -17.728599718106537 42.19746549325167 3.5361171873491841 #
point $-1 -41.287737550214267 35.163887943256888 2.4179165769535427 #
point $-1 -32.453060863173867 35.163887943256888 2.4179165769535427 #
point $-1 -23.618384176133468 35.163887943256888 2.4179165769535427 #
straight-curve $-1 54.378427086272019 42.19746549325167 80.129705247648218 0 0 -1 I I #
point $-1 54.378427086272019 42.19746549325167 9.512362403207602 #
straight-curve $-1 19.826982970602344 42.197465493251663 3.5361171873491912 -1 0 0 I I #
point $-1 54.378427086272019 42.19746549325167 3.5361171873491841 #
point $-1 30.819289254164289 35.163887943256888 2.4179165769535427 #
point $-1 39.653965941204689 35.163887943256888 2.4179165769535427 #
point $-1 48.488642628245088 35.163887943256888 2.4179165769535427 #
End-of-ACIS-data 