500 0 7 0           
7 Unknown 11 ACIS 5.0 NT 24 Fri Mar 26 20:36:44 1999 
-1 9.9999999999999995e-007 1e-010 
body $-1 $7 $-1 $8 #
body $-1 $9 $-1 $10 #
body $-1 $11 $-1 $12 #
body $-1 $13 $-1 $14 #
body $-1 $15 $-1 $16 #
body $-1 $17 $-1 $18 #
body $-1 $19 $-1 $20 #
lump $-1 $-1 $21 $0 #
transform $-1 1 0 0 0 1 0 0 0 1 48.976104007080295 31.794186040742492 7.214360564944136 1 rotate no_reflect no_shear #
lump $-1 $-1 $22 $1 #
transform $-1 1 0 0 0 1 0 0 0 1 48.976104007080295 31.794186040742492 7.214360564944136 1 rotate no_reflect no_shear #
lump $-1 $-1 $23 $2 #
transform $-1 1 0 0 0 1 0 0 0 1 48.976104007080295 31.794186040742492 7.214360564944136 1 rotate no_reflect no_shear #
lump $-1 $-1 $24 $3 #
transform $-1 1 0 0 0 1 0 0 0 1 48.976104007080295 31.794186040742492 7.214360564944136 1 rotate no_reflect no_shear #
lump $-1 $-1 $25 $4 #
transform $-1 1 0 0 0 1 0 0 0 1 48.976104007080295 31.794186040742492 7.214360564944136 1 rotate no_reflect no_shear #
lump $-1 $-1 $26 $5 #
transform $-1 1 0 0 0 1 0 0 0 1 48.976104007080295 31.794186040742492 7.214360564944136 1 rotate no_reflect no_shear #
lump $-1 $-1 $27 $6 #
transform $-1 1 0 0 0 1 0 0 0 1 48.976104007080295 31.794186040742492 7.214360564944136 1 rotate no_reflect no_shear #
shell $-1 $-1 $-1 $28 $-1 $7 #
shell $-1 $-1 $-1 $29 $-1 $9 #
shell $-1 $-1 $-1 $30 $-1 $11 #
shell $-1 $-1 $-1 $31 $-1 $13 #
shell $-1 $-1 $-1 $32 $-1 $15 #
shell $-1 $-1 $-1 $33 $-1 $17 #
shell $-1 $-1 $-1 $34 $-1 $19 #
face $-1 $35 $36 $21 $-1 $37 forward single #
face $-1 $38 $39 $22 $-1 $40 forward single #
face $-1 $41 $42 $23 $-1 $43 reversed single #
face $-1 $44 $45 $24 $-1 $46 reversed single #
face $-1 $47 $48 $25 $-1 $49 forward single #
face $-1 $50 $51 $26 $-1 $52 forward single #
face $-1 $53 $54 $27 $-1 $55 forward single #
face $-1 $56 $57 $21 $-1 $58 reversed single #
loop $-1 $-1 $59 $28 #
plane-surface $-1 0 0 7.214360564944136 0 0 1 1 0 0 forward_v I I I I #
face $-1 $60 $61 $22 $-1 $62 reversed single #
loop $-1 $-1 $63 $29 #
plane-surface $-1 -44.973960216388136 0 -4.214360564944136 0 0 1 1 0 0 forward_v I I I I #
face $-1 $64 $65 $23 $-1 $66 reversed single #
loop $-1 $-1 $67 $30 #
plane-surface $-1 45.110264007963366 0 4.214360564944136 0 0 1 1 0 0 forward_v I I I I #
face $-1 $68 $69 $24 $-1 $70 reversed single #
loop $-1 $-1 $71 $31 #
plane-surface $-1 30.975485857217365 -31.794186040742503 1.5796617468381129 0 -0.68199836817093118 0.7313536940579346 1 0 0 forward_v I I I I #
face $-1 $72 $73 $25 $-1 $74 forward single #
loop $-1 $75 $76 $32 #
cone-surface $-1 24.814122966239921 -28.111404927768344 3.687592269500513 0 0.68199836817093118 -0.7313536940579346 1.5 0 0 1 I I 0 1 1.5 forward I I I I #
face $-1 $77 $78 $26 $-1 $79 forward single #
loop $-1 $80 $81 $33 #
cone-surface $-1 30.975485857217365 -28.111404927768344 3.687592269500513 0 0.68199836817093118 -0.7313536940579346 1.5 0 0 1 I I 0 1 1.5 forward I I I I #
face $-1 $82 $83 $27 $-1 $84 forward single #
loop $-1 $85 $86 $34 #
cone-surface $-1 37.136848748194808 -28.111404927768344 3.687592269500513 0 0.68199836817093118 -0.7313536940579346 1.5 0 0 1 I I 0 1 1.5 forward I I I I #
face $-1 $87 $88 $21 $-1 $89 reversed single #
loop $-1 $-1 $90 $35 #
plane-surface $-1 0 0 -7.214360564944136 0 0 1 1 0 0 forward_v I I I I #
coedge $-1 $91 $92 $93 $94 forward $36 $-1 #
face $-1 $95 $96 $22 $-1 $97 reversed single #
loop $-1 $-1 $98 $38 #
plane-surface $-1 -40.971816425695977 0 -5.714360564944136 -1 0 0 0 0 1 forward_v I I I I #
coedge $-1 $99 $100 $101 $102 forward $39 $-1 #
face $-1 $103 $104 $23 $-1 $105 reversed single #
loop $-1 $-1 $106 $41 #
plane-surface $-1 41.244424008846444 0 5.714360564944136 1 0 0 0 0 -1 forward_v I I I I #
coedge $-1 $107 $108 $109 $110 reversed $42 $-1 #
face $-1 $111 $112 $24 $-1 $113 forward single #
loop $-1 $-1 $114 $44 #
plane-surface $-1 20.706547705588285 -98.597432065139628 73.217370919125685 1 0 0 0 0.68199836817093118 -0.7313536940579346 forward_v I I I I #
coedge $-1 $115 $116 $117 $118 reversed $45 $-1 #
face $-1 $-1 $119 $25 $-1 $120 forward single #
loop $-1 $121 $122 $47 #
cone-surface $-1 24.814122966239921 -26.938362322985192 2.4296581125664583 0 0.68199836817093118 -0.7313536940579346 0.75 0 0 1 I I -0.70710678118654757 0.70710678118654757 0.75 forward I I I I #
loop $-1 $-1 $123 $32 #
coedge $-1 $76 $76 $124 $125 reversed $48 $-1 #
face $-1 $-1 $126 $26 $-1 $127 forward single #
loop $-1 $128 $129 $50 #
cone-surface $-1 30.975485857217365 -26.938362322985192 2.4296581125664583 0 0.68199836817093118 -0.7313536940579346 0.75 0 0 1 I I -0.70710678118654757 0.70710678118654757 0.75 forward I I I I #
loop $-1 $-1 $130 $33 #
coedge $-1 $81 $81 $131 $132 reversed $51 $-1 #
face $-1 $-1 $133 $27 $-1 $134 forward single #
loop $-1 $135 $136 $53 #
cone-surface $-1 37.136848748194808 -26.938362322985192 2.4296581125664583 0 0.68199836817093118 -0.7313536940579346 0.75 0 0 1 I I -0.70710678118654757 0.70710678118654757 0.75 forward I I I I #
loop $-1 $-1 $137 $34 #
coedge $-1 $86 $86 $138 $139 reversed $54 $-1 #
face $-1 $140 $141 $21 $-1 $142 reversed single #
loop $-1 $-1 $143 $56 #
plane-surface $-1 0 -31.794186040742492 0 0 1 0 0 0 1 forward_v I I I I #
coedge $-1 $144 $145 $146 $147 forward $57 $-1 #
coedge $-1 $148 $59 $149 $150 forward $36 $-1 #
coedge $-1 $59 $148 $151 $152 forward $36 $-1 #
coedge $-1 $153 $154 $59 $94 reversed $155 $-1 #
edge $-1 $156 -31.794186040742492 $157 31.794186040742492 $93 $158 forward 7 unknown #
face $-1 $159 $160 $22 $-1 $161 reversed single #
loop $-1 $-1 $162 $60 #
plane-surface $-1 0 0 -7.214360564944136 0 0 1 1 0 0 forward_v I I I I #
coedge $-1 $163 $101 $164 $165 reversed $61 $-1 #
coedge $-1 $166 $63 $167 $168 reversed $39 $-1 #
coedge $-1 $63 $166 $169 $170 reversed $39 $-1 #
coedge $-1 $98 $171 $63 $102 reversed $61 $-1 #
edge $-1 $172 -31.794186040742492 $173 31.794186040742492 $101 $174 forward 7 unknown #
face $-1 $175 $176 $23 $-1 $177 reversed single #
loop $-1 $-1 $109 $64 #
plane-surface $-1 48.976104007080295 0 0 -1 0 0 0 0 1 forward_v I I I I #
coedge $-1 $178 $179 $180 $181 reversed $65 $-1 #
coedge $-1 $182 $67 $183 $184 reversed $42 $-1 #
coedge $-1 $67 $182 $185 $186 reversed $42 $-1 #
coedge $-1 $187 $188 $67 $110 forward $104 $-1 #
edge $-1 $189 -31.794186040742492 $190 31.794186040742492 $109 $191 forward 7 unknown #
face $-1 $192 $193 $24 $-1 $194 forward single #
loop $-1 $-1 $195 $68 #
plane-surface $-1 41.244424008846444 0 5.714360564944136 1 0 0 0 0 -1 forward_v I I I I #
coedge $-1 $196 $197 $198 $199 reversed $69 $-1 #
coedge $-1 $200 $71 $195 $201 reversed $45 $-1 #
coedge $-1 $71 $200 $196 $202 forward $45 $-1 #
coedge $-1 $198 $203 $71 $118 forward $193 $-1 #
edge $-1 $204 -25.756681080237762 $205 -5.2188047769796029 $117 $206 forward 7 unknown #
loop $-1 $-1 $124 $72 #
plane-surface $-1 30.975485857217365 -31.794186040742503 1.5796617468381129 0 -0.68199836817093118 0.7313536940579346 1 0 0 forward_v I I I I #
loop $-1 $-1 $207 $47 #
coedge $-1 $122 $122 $123 $208 reversed $73 $-1 #
coedge $-1 $123 $123 $122 $208 forward $75 $-1 #
coedge $-1 $124 $124 $76 $125 forward $119 $-1 #
edge $-1 $209 -1.2646059382128307e-015 $209 6.2831853071795996 $124 $210 forward 7 unknown #
loop $-1 $-1 $131 $77 #
plane-surface $-1 30.975485857217365 -31.794186040742503 1.5796617468381129 0 -0.68199836817093118 0.7313536940579346 1 0 0 forward_v I I I I #
loop $-1 $-1 $211 $50 #
coedge $-1 $129 $129 $130 $212 reversed $78 $-1 #
coedge $-1 $130 $130 $129 $212 forward $80 $-1 #
coedge $-1 $131 $131 $81 $132 forward $126 $-1 #
edge $-1 $213 -1.2646059382128307e-015 $213 6.2831853071795996 $131 $214 forward 7 unknown #
loop $-1 $-1 $138 $82 #
plane-surface $-1 30.975485857217365 -31.794186040742503 1.5796617468381129 0 -0.68199836817093118 0.7313536940579346 1 0 0 forward_v I I I I #
loop $-1 $-1 $215 $53 #
coedge $-1 $136 $136 $137 $216 reversed $83 $-1 #
coedge $-1 $137 $137 $136 $216 forward $85 $-1 #
coedge $-1 $138 $138 $86 $139 forward $133 $-1 #
edge $-1 $217 -1.2646059382128307e-015 $217 6.2831853071795996 $138 $218 forward 7 unknown #
face $-1 $219 $220 $21 $-1 $221 reversed single #
loop $-1 $-1 $222 $87 #
plane-surface $-1 -48.976104007080295 0 0 1 0 0 0 0 -1 forward_v I I I I #
coedge $-1 $223 $151 $224 $225 forward $88 $-1 #
coedge $-1 $226 $90 $223 $227 forward $57 $-1 #
coedge $-1 $90 $226 $228 $229 forward $57 $-1 #
coedge $-1 $154 $153 $90 $147 reversed $155 $-1 #
edge $-1 $230 -31.794186040742492 $231 31.794186040742492 $146 $232 forward 7 unknown #
coedge $-1 $92 $91 $233 $234 forward $36 $-1 #
coedge $-1 $235 $236 $91 $150 reversed $220 $-1 #
edge $-1 $157 -48.976104007080295 $237 48.976104007080295 $149 $238 forward 7 unknown #
coedge $-1 $143 $239 $92 $152 reversed $88 $-1 #
edge $-1 $240 -48.976104007080295 $156 48.976104007080295 $151 $241 forward 7 unknown #
coedge $-1 $146 $93 $239 $242 forward $155 $-1 #
coedge $-1 $93 $146 $235 $243 reversed $155 $-1 #
loop $-1 $-1 $153 $219 #
vertex $-1 $94 $244 #
vertex $-1 $94 $245 #
straight-curve $-1 48.976104007080295 0 7.214360564944136 0 1 0 I I #
face $-1 $246 $247 $22 $-1 $248 reversed single #
loop $-1 $-1 $164 $95 #
plane-surface $-1 0 -31.794186040742492 0 0 1 0 0 0 1 forward_v I I I I #
coedge $-1 $249 $250 $163 $251 forward $96 $-1 #
coedge $-1 $171 $98 $162 $251 reversed $61 $-1 #
coedge $-1 $169 $252 $98 $165 forward $160 $-1 #
edge $-1 $253 -4.3571802824720685 $172 -1.357180282472068 $164 $254 forward 7 unknown #
coedge $-1 $100 $99 $255 $256 reversed $39 $-1 #
coedge $-1 $257 $258 $99 $168 forward $259 $-1 #
edge $-1 $260 -26.489123898886227 $173 -18.484836317501909 $167 $261 forward 7 unknown #
coedge $-1 $262 $164 $100 $170 forward $160 $-1 #
edge $-1 $172 18.484836317501909 $263 26.489123898886227 $169 $264 forward 7 unknown #
coedge $-1 $101 $163 $257 $265 reversed $61 $-1 #
vertex $-1 $170 $266 #
vertex $-1 $168 $267 #
straight-curve $-1 -40.971816425695977 0 -4.214360564944136 0 1 0 I I #
face $-1 $268 $269 $23 $-1 $270 reversed single #
loop $-1 $-1 $185 $103 #
plane-surface $-1 0 31.794186040742492 0 0 -1 0 0 0 -1 forward_v I I I I #
coedge $-1 $271 $106 $182 $272 reversed $65 $-1 #
coedge $-1 $106 $271 $273 $274 reversed $65 $-1 #
coedge $-1 $275 $185 $106 $181 forward $176 $-1 #
edge $-1 $276 1.357180282472068 $277 4.3571802824720685 $180 $278 forward 7 unknown #
coedge $-1 $108 $107 $178 $272 forward $42 $-1 #
coedge $-1 $279 $280 $107 $184 forward $269 $-1 #
edge $-1 $281 18.689292004864761 $189 26.420972003098605 $183 $282 forward 7 unknown #
coedge $-1 $180 $283 $108 $186 forward $176 $-1 #
edge $-1 $190 -26.420972003098605 $276 -18.689292004864761 $185 $284 forward 7 unknown #
coedge $-1 $285 $109 $283 $286 reversed $104 $-1 #
coedge $-1 $109 $285 $279 $287 forward $104 $-1 #
vertex $-1 $110 $288 #
vertex $-1 $110 $289 #
straight-curve $-1 48.976104007080295 0 4.214360564944136 0 1 0 I I #
face $-1 $-1 $290 $24 $-1 $291 reversed single #
loop $-1 $-1 $117 $111 #
plane-surface $-1 0 0 7.214360564944136 0 0 1 1 0 0 forward_v I I I I #
coedge $-1 $292 $293 $115 $201 forward $112 $-1 #
coedge $-1 $197 $114 $116 $202 reversed $69 $-1 #
coedge $-1 $114 $196 $294 $295 reversed $69 $-1 #
coedge $-1 $296 $117 $114 $199 forward $193 $-1 #
edge $-1 $205 -23.54700456046568 $297 -17.504529991827322 $198 $298 forward 7 unknown #
coedge $-1 $116 $115 $299 $300 reversed $45 $-1 #
edge $-1 $301 -13.036326628644403 $204 -4.7742851325366384 $195 $302 forward 7 unknown #
edge $-1 $303 1.4609403438664074e-014 $205 8.2620414961077788 $196 $304 forward 7 unknown #
coedge $-1 $117 $296 $292 $305 forward $193 $-1 #
vertex $-1 $201 $306 #
vertex $-1 $118 $307 #
straight-curve $-1 15.487742928608682 -25.751711472104134 7.2143605649441351 -1 0 0 I I #
coedge $-1 $207 $207 $-1 $308 reversed $121 $-1 #
edge $-1 $309 0 $309 6.2831853071796004 $122 $310 forward 7 unknown #
vertex $-1 $125 $311 #
ellipse-curve $-1 24.814122966239921 -28.772948756423311 4.3970111558911302 0 -0.68199836817093118 0.7313536940579346 1.5 0 0 1 I I #
coedge $-1 $211 $211 $-1 $312 reversed $128 $-1 #
edge $-1 $313 0 $313 6.2831853071796004 $129 $314 forward 7 unknown #
vertex $-1 $132 $315 #
ellipse-curve $-1 30.975485857217365 -28.772948756423311 4.3970111558911302 0 -0.68199836817093118 0.7313536940579346 1.5 0 0 1 I I #
coedge $-1 $215 $215 $-1 $316 reversed $135 $-1 #
edge $-1 $317 0 $317 6.2831853071796004 $136 $318 forward 7 unknown #
vertex $-1 $139 $319 #
ellipse-curve $-1 37.136848748194808 -28.772948756423311 4.3970111558911302 0 -0.68199836817093118 0.7313536940579346 1.5 0 0 1 I I #
face $-1 $-1 $155 $21 $-1 $320 reversed single #
loop $-1 $-1 $235 $140 #
plane-surface $-1 0 31.794186040742492 0 0 -1 0 0 0 -1 forward_v I I I I #
coedge $-1 $321 $233 $236 $322 forward $141 $-1 #
coedge $-1 $239 $143 $144 $227 reversed $88 $-1 #
coedge $-1 $233 $321 $143 $225 reversed $141 $-1 #
edge $-1 $240 -7.214360564944136 $323 7.214360564944136 $224 $324 forward 7 unknown #
coedge $-1 $145 $144 $321 $325 forward $57 $-1 #
edge $-1 $231 -48.976104007080295 $323 48.976104007080295 $223 $326 forward 7 unknown #
coedge $-1 $236 $235 $145 $229 reversed $220 $-1 #
edge $-1 $327 -48.976104007080295 $230 48.976104007080295 $228 $328 forward 7 unknown #
vertex $-1 $147 $329 #
vertex $-1 $242 $330 #
straight-curve $-1 48.976104007080295 0 -7.214360564944136 0 -1 0 I I #
coedge $-1 $222 $224 $148 $234 reversed $141 $-1 #
edge $-1 $237 -31.794186040742492 $240 31.794186040742492 $233 $331 forward 7 unknown #
coedge $-1 $228 $149 $154 $243 forward $220 $-1 #
coedge $-1 $149 $228 $222 $322 reversed $220 $-1 #
vertex $-1 $150 $332 #
straight-curve $-1 0 31.794186040742492 7.214360564944136 -1 0 0 I I #
coedge $-1 $151 $223 $153 $242 reversed $88 $-1 #
vertex $-1 $234 $333 #
straight-curve $-1 0 -31.794186040742492 7.214360564944136 1 0 0 I I #
edge $-1 $156 -7.214360564944136 $231 7.214360564944136 $153 $334 forward 7 unknown #
edge $-1 $157 -7.214360564944136 $230 7.214360564944136 $154 $335 forward 7 unknown #
point $-1 48.976104007080295 -31.794186040742492 7.214360564944136 #
point $-1 48.976104007080295 31.794186040742492 7.214360564944136 #
face $-1 $-1 $259 $22 $-1 $336 reversed single #
loop $-1 $-1 $255 $159 #
plane-surface $-1 -48.976104007080295 0 0 1 0 0 0 0 -1 forward_v I I I I #
coedge $-1 $337 $162 $252 $338 forward $96 $-1 #
coedge $-1 $162 $337 $339 $340 forward $96 $-1 #
edge $-1 $341 -31.794186040742492 $253 31.794186040742492 $162 $342 forward 7 unknown #
coedge $-1 $164 $262 $249 $338 reversed $160 $-1 #
vertex $-1 $338 $343 #
straight-curve $-1 -40.971816425695977 -31.794186040742492 -2.857180282472068 0 0 1 I I #
coedge $-1 $344 $345 $166 $256 forward $247 $-1 #
edge $-1 $263 -31.794186040742492 $260 31.794186040742492 $255 $346 forward 7 unknown #
coedge $-1 $339 $167 $171 $265 forward $259 $-1 #
coedge $-1 $167 $339 $344 $347 reversed $259 $-1 #
loop $-1 $-1 $257 $246 #
vertex $-1 $347 $348 #
straight-curve $-1 -22.486980108194068 31.794186040742492 -4.214360564944136 1 0 0 I I #
coedge $-1 $252 $169 $345 $349 forward $160 $-1 #
vertex $-1 $349 $350 #
straight-curve $-1 -22.486980108194068 -31.794186040742492 -4.214360564944136 -1 0 0 I I #
edge $-1 $173 1.357180282472068 $341 4.3571802824720685 $257 $351 forward 7 unknown #
point $-1 -40.971816425695977 -31.794186040742492 -4.214360564944136 #
point $-1 -40.971816425695977 31.794186040742492 -4.214360564944136 #
face $-1 $-1 $352 $23 $-1 $353 forward single #
loop $-1 $-1 $183 $175 #
plane-surface $-1 0 -31.794186040742492 0 0 1 0 0 0 1 forward_v I I I I #
coedge $-1 $179 $178 $280 $354 reversed $65 $-1 #
edge $-1 $281 -31.794186040742492 $276 31.794186040742492 $178 $355 forward 7 unknown #
coedge $-1 $356 $357 $179 $274 forward $352 $-1 #
edge $-1 $277 -31.794186040742492 $358 31.794186040742492 $273 $359 forward 7 unknown #
coedge $-1 $283 $180 $357 $360 reversed $176 $-1 #
vertex $-1 $186 $361 #
vertex $-1 $181 $362 #
straight-curve $-1 41.244424008846444 31.794186040742492 2.857180282472068 0 0 1 I I #
coedge $-1 $363 $183 $188 $287 reversed $269 $-1 #
coedge $-1 $183 $363 $271 $354 forward $269 $-1 #
vertex $-1 $184 $364 #
straight-curve $-1 22.555132003981683 -31.794186040742492 4.214360564944136 1 0 0 I I #
coedge $-1 $185 $275 $187 $286 forward $176 $-1 #
straight-curve $-1 22.555132003981683 31.794186040742492 4.214360564944136 -1 0 0 I I #
coedge $-1 $188 $187 $365 $366 reversed $104 $-1 #
edge $-1 $367 -7.214360564944136 $190 -4.214360564944136 $187 $368 forward 7 unknown #
edge $-1 $369 -7.214360564944136 $189 -4.214360564944136 $188 $370 forward 7 unknown #
point $-1 48.976104007080288 -31.794186040742492 4.214360564944136 #
point $-1 48.976104007080288 31.794186040742492 4.214360564944136 #
loop $-1 $-1 $371 $192 #
plane-surface $-1 0 -31.794186040742492 0 0 1 0 0 0 1 forward_v I I I I #
coedge $-1 $293 $195 $203 $305 reversed $112 $-1 #
coedge $-1 $195 $292 $371 $372 reversed $112 $-1 #
coedge $-1 $299 $373 $197 $295 forward $290 $-1 #
edge $-1 $297 29.394324894618705 $303 35.029023712724722 $294 $374 forward 7 unknown #
coedge $-1 $203 $198 $373 $375 forward $193 $-1 #
vertex $-1 $375 $376 #
straight-curve $-1 20.706547705588285 -49.298716032569814 7.2143605649441369 0 -1 0 I I #
coedge $-1 $371 $294 $200 $300 forward $290 $-1 #
edge $-1 $303 5.2188047769796029 $301 25.756681080237762 $299 $377 forward 7 unknown #
vertex $-1 $372 $378 #
straight-curve $-1 41.244424008846444 -22.260020403937588 10.470415234516862 0 0.7313536940579346 0.68199836817093118 I I #
vertex $-1 $300 $379 #
straight-curve $-1 20.706547705588285 -31.794186040742503 1.5796617468381129 0 0.7313536940579346 0.68199836817093118 I I #
edge $-1 $380 -31.794186040742492 $204 -25.751711472104134 $203 $381 forward 7 unknown #
point $-1 41.244424008846444 -25.751711472104134 7.214360564944136 #
point $-1 20.706547705588285 -25.751711472104134 7.214360564944136 #
edge $-1 $382 1 $382 0 $207 $-1 forward 7 unknown #
vertex $-1 $208 $383 #
ellipse-curve $-1 24.814122966239921 -27.449861099113392 2.9781733831099091 0 -0.68199836817093118 0.7313536940579346 1.5 0 0 1 I I #
point $-1 26.314122966239921 -28.7729487564233 4.397011155891116 #
edge $-1 $384 1 $384 0 $211 $-1 forward 7 unknown #
vertex $-1 $212 $385 #
ellipse-curve $-1 30.975485857217365 -27.449861099113392 2.9781733831099091 0 -0.68199836817093118 0.7313536940579346 1.5 0 0 1 I I #
point $-1 32.475485857217365 -28.7729487564233 4.397011155891116 #
edge $-1 $386 1 $386 0 $215 $-1 forward 7 unknown #
vertex $-1 $216 $387 #
ellipse-curve $-1 37.136848748194808 -27.449861099113392 2.9781733831099091 0 -0.68199836817093118 0.7313536940579346 1.5 0 0 1 I I #
point $-1 38.636848748194808 -28.7729487564233 4.397011155891116 #
plane-surface $-1 48.976104007080295 0 0 -1 0 0 0 0 1 forward_v I I I I #
coedge $-1 $224 $222 $226 $325 reversed $141 $-1 #
edge $-1 $237 -7.214360564944136 $327 7.214360564944136 $236 $388 forward 7 unknown #
vertex $-1 $325 $389 #
straight-curve $-1 -48.976104007080295 -31.794186040742492 0 0 0 -1 I I #
edge $-1 $323 -31.794186040742492 $327 31.794186040742492 $321 $390 forward 7 unknown #
straight-curve $-1 0 -31.794186040742492 -7.214360564944136 -1 0 0 I I #
vertex $-1 $229 $391 #
straight-curve $-1 0 31.794186040742492 -7.214360564944136 1 0 0 I I #
point $-1 48.976104007080295 31.794186040742492 -7.214360564944136 #
point $-1 48.976104007080295 -31.794186040742492 -7.214360564944136 #
straight-curve $-1 -48.976104007080295 0 7.214360564944136 0 -1 0 I I #
point $-1 -48.976104007080295 31.794186040742492 7.214360564944136 #
point $-1 -48.976104007080295 -31.794186040742492 7.214360564944136 #
straight-curve $-1 48.976104007080295 -31.794186040742492 0 0 0 -1 I I #
straight-curve $-1 48.976104007080295 31.794186040742492 0 0 0 -1 I I #
plane-surface $-1 0 31.794186040742492 0 0 -1 0 0 0 -1 forward_v I I I I #
coedge $-1 $250 $249 $392 $393 forward $96 $-1 #
edge $-1 $253 40.971816425695977 $394 48.976104007080295 $252 $395 forward 7 unknown #
coedge $-1 $258 $257 $250 $340 reversed $259 $-1 #
edge $-1 $396 -48.976104007080295 $341 -40.971816425695977 $339 $397 forward 7 unknown #
vertex $-1 $265 $398 #
straight-curve $-1 -40.971816425695977 0 -7.214360564944136 0 -1 0 I I #
point $-1 -40.971816425695977 -31.794186040742492 -7.214360564944136 #
coedge $-1 $392 $255 $258 $347 forward $247 $-1 #
coedge $-1 $255 $392 $262 $349 reversed $247 $-1 #
straight-curve $-1 -48.976104007080295 0 -4.214360564944136 0 1 0 I I #
edge $-1 $260 4.214360564944136 $396 7.214360564944136 $258 $399 forward 7 unknown #
point $-1 -48.976104007080295 31.794186040742492 -4.214360564944136 #
edge $-1 $263 4.214360564944136 $394 7.214360564944136 $345 $400 forward 7 unknown #
point $-1 -48.976104007080295 -31.794186040742492 -4.214360564944136 #
straight-curve $-1 -40.971816425695977 31.794186040742492 -2.857180282472068 0 0 -1 I I #
loop $-1 $-1 $273 $268 #
plane-surface $-1 0 0 7.214360564944136 0 0 1 1 0 0 forward_v I I I I #
edge $-1 $358 -4.3571802824720685 $281 -1.357180282472068 $280 $401 forward 7 unknown #
straight-curve $-1 41.244424008846444 0 4.214360564944136 0 1 0 I I #
coedge $-1 $365 $273 $363 $402 forward $352 $-1 #
coedge $-1 $273 $365 $275 $360 forward $352 $-1 #
vertex $-1 $402 $403 #
straight-curve $-1 41.244424008846444 0 7.214360564944136 0 -1 0 I I #
edge $-1 $367 -48.976104007080295 $277 -41.244424008846444 $275 $404 forward 7 unknown #
point $-1 41.244424008846444 31.794186040742492 4.214360564944136 #
point $-1 41.244424008846444 31.794186040742492 7.214360564944136 #
coedge $-1 $280 $279 $356 $402 reversed $269 $-1 #
point $-1 41.244424008846444 -31.794186040742492 4.214360564944136 #
coedge $-1 $357 $356 $285 $366 forward $352 $-1 #
edge $-1 $369 -31.794186040742492 $367 31.794186040742492 $285 $405 forward 7 unknown #
vertex $-1 $366 $406 #
straight-curve $-1 48.976104007080295 31.794186040742492 0 0 0 -1 I I #
vertex $-1 $366 $407 #
straight-curve $-1 48.976104007080295 -31.794186040742492 0 0 0 -1 I I #
coedge $-1 $373 $299 $293 $372 forward $290 $-1 #
edge $-1 $301 -35.029023712724722 $380 -29.394324894618705 $371 $408 forward 7 unknown #
coedge $-1 $294 $371 $296 $375 reversed $290 $-1 #
straight-curve $-1 20.706547705588285 -31.794186040742488 36.608685459562842 0 0 -1 I I #
edge $-1 $297 20.706547705588285 $380 41.244424008846444 $373 $409 forward 7 unknown #
point $-1 20.706547705588285 -31.794186040742492 7.214360564944136 #
straight-curve $-1 15.487742928608682 -31.794186040742492 1.5796617468381189 1 0 0 I I #
point $-1 41.244424008846444 -31.794186040742492 1.5796617468381229 #
point $-1 20.706547705588285 -31.794186040742492 1.5796617468381229 #
vertex $-1 $305 $410 #
straight-curve $-1 41.244424008846444 0 7.214360564944136 0 1 0 I I #
vertex $-1 $308 $411 #
point $-1 26.314122966239921 -27.449861099113392 2.9781733831099091 #
vertex $-1 $312 $412 #
point $-1 32.475485857217365 -27.449861099113392 2.9781733831099091 #
vertex $-1 $316 $413 #
point $-1 38.636848748194808 -27.449861099113392 2.9781733831099091 #
straight-curve $-1 -48.976104007080295 31.794186040742492 0 0 0 -1 I I #
point $-1 -48.976104007080295 -31.794186040742492 -7.214360564944136 #
straight-curve $-1 -48.976104007080295 0 -7.214360564944136 0 1 0 I I #
point $-1 -48.976104007080295 31.794186040742492 -7.214360564944136 #
coedge $-1 $345 $344 $337 $393 reversed $247 $-1 #
edge $-1 $394 -31.794186040742492 $396 31.794186040742492 $392 $414 forward 7 unknown #
vertex $-1 $393 $415 #
straight-curve $-1 0 -31.794186040742492 -7.214360564944136 -1 0 0 I I #
vertex $-1 $340 $416 #
straight-curve $-1 0 31.794186040742492 -7.214360564944136 1 0 0 I I #
point $-1 -40.971816425695977 31.794186040742492 -7.214360564944136 #
straight-curve $-1 -48.976104007080295 31.794186040742492 0 0 0 -1 I I #
straight-curve $-1 -48.976104007080295 -31.794186040742492 0 0 0 -1 I I #
straight-curve $-1 41.244424008846444 -31.794186040742492 2.857180282472068 0 0 -1 I I #
edge $-1 $358 41.244424008846444 $369 48.976104007080295 $363 $417 forward 7 unknown #
point $-1 41.244424008846444 -31.794186040742492 7.214360564944136 #
straight-curve $-1 0 31.794186040742492 7.214360564944136 -1 0 0 I I #
straight-curve $-1 48.976104007080295 0 7.214360564944136 0 1 0 I I #
point $-1 48.976104007080295 31.794186040742492 7.214360564944136 #
point $-1 48.976104007080295 -31.794186040742492 7.214360564944136 #
straight-curve $-1 41.244424008846444 -31.794186040742488 36.608685459562842 0 0 1 I I #
straight-curve $-1 0 -31.794186040742492 7.214360564944136 1 0 0 I I #
point $-1 41.244424008846444 -31.794186040742492 7.214360564944136 #
point $-1 24.814122966239921 -26.426863546856993 1.8811428420230074 #
point $-1 30.975485857217365 -26.426863546856993 1.8811428420230074 #
point $-1 37.136848748194808 -26.426863546856993 1.8811428420230074 #
straight-curve $-1 -48.976104007080295 0 -7.214360564944136 0 1 0 I I #
point $-1 -48.976104007080295 -31.794186040742492 -7.214360564944136 #
point $-1 -48.976104007080295 31.794186040742492 -7.214360564944136 #
straight-curve $-1 0 -31.794186040742492 7.214360564944136 1 0 0 I I #
End-of-ACIS-data 