500 0 11 0           
7 Unknown 11 ACIS 5.0 NT 24 Thu Mar 25 23:14:37 1999 
-1 9.9999999999999995e-007 1e-010 
body $-1 $11 $-1 $12 #
body $-1 $13 $-1 $14 #
body $-1 $15 $-1 $16 #
body $-1 $17 $-1 $18 #
body $-1 $19 $-1 $20 #
body $-1 $21 $-1 $22 #
body $-1 $23 $-1 $24 #
body $-1 $25 $-1 $26 #
body $-1 $27 $-1 $28 #
body $-1 $29 $-1 $30 #
body $-1 $31 $-1 $32 #
lump $-1 $-1 $33 $0 #
transform $-1 1 0 0 0 1 0 0 0 1 73.56547746208075 34.212313756329962 11.188252488397758 1 rotate no_reflect no_shear #
lump $-1 $-1 $34 $1 #
transform $-1 1 0 0 0 1 0 0 0 1 73.56547746208075 34.212313756329962 11.188252488397758 1 rotate no_reflect no_shear #
lump $-1 $-1 $35 $2 #
transform $-1 1 0 0 0 1 0 0 0 1 73.56547746208075 34.212313756329962 11.188252488397758 1 rotate no_reflect no_shear #
lump $-1 $-1 $36 $3 #
transform $-1 1 0 0 0 1 0 0 0 1 73.56547746208075 34.212313756329962 11.188252488397758 1 rotate no_reflect no_shear #
lump $-1 $-1 $37 $4 #
transform $-1 1 0 0 0 1 0 0 0 1 73.56547746208075 34.212313756329962 11.188252488397758 1 rotate no_reflect no_shear #
lump $-1 $-1 $38 $5 #
transform $-1 1 0 0 0 1 0 0 0 1 73.56547746208075 34.212313756329962 11.188252488397758 1 rotate no_reflect no_shear #
lump $-1 $-1 $39 $6 #
transform $-1 1 0 0 0 1 0 0 0 1 73.56547746208075 34.212313756329962 11.188252488397758 1 rotate no_reflect no_shear #
lump $-1 $-1 $40 $7 #
transform $-1 1 0 0 0 1 0 0 0 1 73.56547746208075 34.212313756329962 11.188252488397758 1 rotate no_reflect no_shear #
lump $-1 $-1 $41 $8 #
transform $-1 1 0 0 0 1 0 0 0 1 73.56547746208075 34.212313756329962 11.188252488397758 1 rotate no_reflect no_shear #
lump $-1 $-1 $42 $9 #
transform $-1 1 0 0 0 1 0 0 0 1 73.56547746208075 34.212313756329962 11.188252488397758 1 rotate no_reflect no_shear #
lump $-1 $-1 $43 $10 #
transform $-1 1 0 0 0 1 0 0 0 1 73.56547746208075 34.212313756329962 11.188252488397758 1 rotate no_reflect no_shear #
shell $-1 $-1 $-1 $44 $-1 $11 #
shell $-1 $-1 $-1 $45 $-1 $13 #
shell $-1 $-1 $-1 $46 $-1 $15 #
shell $-1 $-1 $-1 $47 $-1 $17 #
shell $-1 $-1 $-1 $48 $-1 $19 #
shell $-1 $-1 $-1 $49 $-1 $21 #
shell $-1 $-1 $-1 $50 $-1 $23 #
shell $-1 $-1 $-1 $51 $-1 $25 #
shell $-1 $-1 $-1 $52 $-1 $27 #
shell $-1 $-1 $-1 $53 $-1 $29 #
shell $-1 $-1 $-1 $54 $-1 $31 #
face $-1 $55 $56 $33 $-1 $57 forward single #
face $-1 $58 $59 $34 $-1 $60 forward single #
face $-1 $61 $62 $35 $-1 $63 reversed single #
face $-1 $64 $65 $36 $-1 $66 forward single #
face $-1 $67 $68 $37 $-1 $69 forward single #
face $-1 $70 $71 $38 $-1 $72 reversed single #
face $-1 $73 $74 $39 $-1 $75 forward single #
face $-1 $76 $77 $40 $-1 $78 forward single #
face $-1 $79 $80 $41 $-1 $81 reversed single #
face $-1 $82 $83 $42 $-1 $84 forward single #
face $-1 $85 $86 $43 $-1 $87 forward single #
face $-1 $88 $89 $33 $-1 $90 reversed single #
loop $-1 $-1 $91 $44 #
plane-surface $-1 0 0 11.188252488397758 0 0 1 1 0 0 forward_v I I I I #
face $-1 $92 $93 $34 $-1 $94 reversed single #
loop $-1 $-1 $95 $45 #
plane-surface $-1 -73.56547746208075 0 0 1 0 0 0 0 -1 forward_v I I I I #
face $-1 $96 $97 $35 $-1 $98 reversed single #
loop $-1 $-1 $99 $46 #
plane-surface $-1 30.209604108736769 -157.60671646261275 87.389660014796618 -1 0 0 0 -0.83867057594974714 0.54463902268945019 forward_v I I I I #
face $-1 $100 $101 $36 $-1 $102 forward single #
loop $-1 $103 $104 $47 #
cone-surface $-1 13.975030233309141 -32.516291246829041 8.9500069916220308 0 0.83867057594974714 -0.54463902268945019 0.5 0 0 1 I I 0 1 0.5 forward I I I I #
face $-1 $105 $106 $37 $-1 $107 forward single #
loop $-1 $108 $109 $48 #
cone-surface $-1 23.715774558565712 -32.516291246829041 8.9500069916220308 0 0.83867057594974714 -0.54463902268945019 0.5 0 0 1 I I 0 1 0.5 forward I I I I #
face $-1 $110 $111 $38 $-1 $112 reversed single #
loop $-1 $-1 $113 $49 #
plane-surface $-1 -8.1873057210614917 84.512780826116909 162.45475578987524 1 0 0 0 -0.68199836817093118 -0.7313536940579346 forward_v I I I I #
face $-1 $114 $115 $39 $-1 $116 forward single #
loop $-1 $117 $118 $50 #
cone-surface $-1 -4.1856228193268663 32.152073635276814 9.2041584775397389 0 -0.68199836817093118 -0.7313536940579346 1 0 0 1 I I 0 1 1 forward I I I I #
face $-1 $119 $120 $40 $-1 $121 forward single #
loop $-1 $122 $123 $51 #
cone-surface $-1 1.8169015332750718 32.152073635276814 9.2041584775397389 0 -0.68199836817093118 -0.7313536940579346 1 0 0 1 I I 0 1 1 forward I I I I #
face $-1 $124 $125 $41 $-1 $126 reversed single #
loop $-1 $-1 $127 $52 #
plane-surface $-1 59.559587306009561 84.512780826116909 162.45475578987524 1 0 0 0 -0.68199836817093118 -0.7313536940579346 forward_v I I I I #
face $-1 $128 $129 $42 $-1 $130 forward single #
loop $-1 $131 $132 $53 #
cone-surface $-1 63.561270207744187 32.152073635276814 9.2041584775397389 0 -0.68199836817093118 -0.7313536940579346 1 0 0 1 I I 0 1 1 forward I I I I #
face $-1 $133 $134 $43 $-1 $135 forward single #
loop $-1 $136 $137 $54 #
cone-surface $-1 69.563794560346125 32.152073635276814 9.2041584775397389 0 -0.68199836817093118 -0.7313536940579346 1 0 0 1 I I 0 1 1 forward I I I I #
face $-1 $138 $139 $33 $-1 $140 reversed single #
loop $-1 $-1 $141 $55 #
plane-surface $-1 0 0 -11.188252488397758 0 0 1 1 0 0 forward_v I I I I #
coedge $-1 $142 $143 $144 $145 forward $56 $-1 #
face $-1 $146 $147 $34 $-1 $148 reversed single #
loop $-1 $-1 $149 $58 #
plane-surface $-1 0 0 -11.188252488397758 0 0 1 1 0 0 forward_v I I I I #
coedge $-1 $150 $151 $152 $153 forward $59 $-1 #
face $-1 $154 $155 $35 $-1 $156 reversed single #
loop $-1 $-1 $157 $61 #
plane-surface $-1 18.845402395937427 -34.212313756329948 7.2564005175357522 0 -0.83867057594974714 0.54463902268945019 1 0 0 forward_v I I I I #
coedge $-1 $158 $159 $160 $161 reversed $62 $-1 #
face $-1 $-1 $162 $36 $-1 $163 forward single #
loop $-1 $164 $165 $64 #
cone-surface $-1 13.975030233309141 -31.88728831486673 8.5415277246049435 0 0.83867057594974714 -0.54463902268945019 0.25 0 0 1 I I -0.70710678118654746 0.70710678118654746 0.25 forward I I I I #
loop $-1 $-1 $166 $47 #
coedge $-1 $104 $104 $167 $168 reversed $65 $-1 #
face $-1 $-1 $169 $37 $-1 $170 forward single #
loop $-1 $171 $172 $67 #
cone-surface $-1 23.715774558565712 -31.88728831486673 8.5415277246049435 0 0.83867057594974714 -0.54463902268945019 0.25 0 0 1 I I -0.70710678118654746 0.70710678118654746 0.25 forward I I I I #
loop $-1 $-1 $173 $48 #
coedge $-1 $109 $109 $174 $175 reversed $68 $-1 #
face $-1 $176 $177 $38 $-1 $178 reversed single #
loop $-1 $-1 $179 $70 #
plane-surface $-1 -1.1843606430258973 -15.830290339592068 54.849988395818258 0 0.68199836817093118 0.7313536940579346 1 0 0 forward_v I I I I #
coedge $-1 $180 $181 $182 $183 reversed $71 $-1 #
face $-1 $-1 $184 $39 $-1 $185 forward single #
loop $-1 $186 $187 $73 #
cone-surface $-1 -4.1856228193268663 31.361397192231635 8.3562618191114453 0 -0.68199836817093118 -0.7313536940579346 0.5 0 0 1 I I -0.70710678118654746 0.70710678118654746 0.5 forward I I I I #
loop $-1 $-1 $188 $50 #
coedge $-1 $118 $118 $189 $190 reversed $74 $-1 #
face $-1 $-1 $191 $40 $-1 $192 forward single #
loop $-1 $193 $194 $76 #
cone-surface $-1 1.8169015332750718 31.361397192231635 8.3562618191114453 0 -0.68199836817093118 -0.7313536940579346 0.5 0 0 1 I I -0.70710678118654746 0.70710678118654746 0.5 forward I I I I #
loop $-1 $-1 $195 $51 #
coedge $-1 $123 $123 $196 $197 reversed $77 $-1 #
face $-1 $198 $199 $41 $-1 $200 forward single #
loop $-1 $-1 $201 $79 #
plane-surface $-1 66.562532384045156 -15.830290339592068 54.849988395818258 0 0.68199836817093118 0.7313536940579346 1 0 0 forward_v I I I I #
coedge $-1 $202 $203 $204 $205 reversed $80 $-1 #
face $-1 $-1 $206 $42 $-1 $207 forward single #
loop $-1 $208 $209 $82 #
cone-surface $-1 63.561270207744187 31.361397192231635 8.3562618191114453 0 -0.68199836817093118 -0.7313536940579346 0.5 0 0 1 I I -0.70710678118654746 0.70710678118654746 0.5 forward I I I I #
loop $-1 $-1 $210 $53 #
coedge $-1 $132 $132 $211 $212 reversed $83 $-1 #
face $-1 $-1 $213 $43 $-1 $214 forward single #
loop $-1 $215 $216 $85 #
cone-surface $-1 69.563794560346125 31.361397192231635 8.3562618191114453 0 -0.68199836817093118 -0.7313536940579346 0.5 0 0 1 I I -0.70710678118654746 0.70710678118654746 0.5 forward I I I I #
loop $-1 $-1 $217 $54 #
coedge $-1 $137 $137 $218 $219 reversed $86 $-1 #
face $-1 $220 $221 $33 $-1 $222 reversed single #
loop $-1 $-1 $223 $88 #
plane-surface $-1 0 -34.212313756329962 0 0 1 0 0 0 1 forward_v I I I I #
coedge $-1 $224 $225 $226 $227 forward $89 $-1 #
coedge $-1 $228 $91 $229 $230 forward $56 $-1 #
coedge $-1 $91 $228 $231 $232 forward $56 $-1 #
coedge $-1 $233 $234 $91 $145 reversed $235 $-1 #
edge $-1 $236 -34.212313756329962 $237 34.212313756329962 $144 $238 forward 7 unknown #
face $-1 $239 $240 $34 $-1 $241 reversed single #
loop $-1 $-1 $242 $92 #
plane-surface $-1 -79.384061897090447 -14.943743952113381 0 0 1 0 0 0 1 forward_v I I I I #
coedge $-1 $243 $244 $151 $245 forward $93 $-1 #
coedge $-1 $246 $95 $247 $248 reversed $59 $-1 #
coedge $-1 $95 $246 $149 $245 reversed $59 $-1 #
coedge $-1 $249 $250 $95 $153 reversed $251 $-1 #
edge $-1 $252 -11.188252488397758 $253 11.188252488397758 $152 $254 forward 7 unknown #
face $-1 $255 $256 $35 $-1 $257 forward single #
loop $-1 $-1 $258 $96 #
plane-surface $-1 7.4812006831380842 -157.60671646261275 87.389660014796618 1 0 0 0 0.83867057594974714 -0.54463902268945019 forward_v I I I I #
coedge $-1 $259 $260 $261 $262 reversed $97 $-1 #
coedge $-1 $159 $99 $263 $264 reversed $62 $-1 #
coedge $-1 $99 $158 $259 $265 reversed $62 $-1 #
coedge $-1 $261 $266 $99 $161 forward $256 $-1 #
edge $-1 $267 44.591044474976414 $268 47.144418918028535 $160 $269 forward 7 unknown #
loop $-1 $-1 $167 $100 #
plane-surface $-1 18.845402395937427 -34.212313756329948 7.2564005175357522 0 -0.83867057594974714 0.54463902268945019 1 0 0 forward_v I I I I #
loop $-1 $-1 $270 $64 #
coedge $-1 $165 $165 $166 $271 reversed $101 $-1 #
coedge $-1 $166 $166 $165 $271 forward $103 $-1 #
coedge $-1 $167 $167 $104 $168 forward $162 $-1 #
edge $-1 $272 -5.8178991141796234e-016 $272 6.2831853071795996 $167 $273 forward 7 unknown #
loop $-1 $-1 $174 $105 #
plane-surface $-1 18.845402395937427 -34.212313756329948 7.2564005175357522 0 -0.83867057594974714 0.54463902268945019 1 0 0 forward_v I I I I #
loop $-1 $-1 $274 $67 #
coedge $-1 $172 $172 $173 $275 reversed $106 $-1 #
coedge $-1 $173 $173 $172 $275 forward $108 $-1 #
coedge $-1 $174 $174 $109 $175 forward $169 $-1 #
edge $-1 $276 -5.8178991141796234e-016 $276 6.2831853071795996 $174 $277 forward 7 unknown #
face $-1 $278 $279 $38 $-1 $280 reversed single #
loop $-1 $-1 $281 $110 #
plane-surface $-1 5.8185844350096971 84.512780826116909 162.45475578987524 -1 0 0 0 0.68199836817093118 0.7313536940579346 forward_v I I I I #
coedge $-1 $282 $283 $284 $285 reversed $111 $-1 #
coedge $-1 $181 $113 $286 $287 reversed $71 $-1 #
coedge $-1 $113 $180 $282 $288 reversed $71 $-1 #
coedge $-1 $284 $289 $113 $183 forward $290 $-1 #
edge $-1 $291 8.0440766567284925 $292 11.265202380915326 $182 $293 forward 7 unknown #
loop $-1 $-1 $189 $114 #
plane-surface $-1 -1.1843606430258973 -15.830290339592068 54.849988395818258 0 0.68199836817093118 0.7313536940579346 1 0 0 forward_v I I I I #
loop $-1 $-1 $294 $73 #
coedge $-1 $187 $187 $188 $295 reversed $115 $-1 #
coedge $-1 $188 $188 $187 $295 forward $117 $-1 #
coedge $-1 $189 $189 $118 $190 forward $184 $-1 #
edge $-1 $296 3.2837267144799048e-015 $296 6.283185307179604 $189 $297 forward 7 unknown #
loop $-1 $-1 $196 $119 #
plane-surface $-1 -1.1843606430258973 -15.830290339592068 54.849988395818258 0 0.68199836817093118 0.7313536940579346 1 0 0 forward_v I I I I #
loop $-1 $-1 $298 $76 #
coedge $-1 $194 $194 $195 $299 reversed $120 $-1 #
coedge $-1 $195 $195 $194 $299 forward $122 $-1 #
coedge $-1 $196 $196 $123 $197 forward $191 $-1 #
edge $-1 $300 3.2837267144799048e-015 $300 6.283185307179604 $196 $301 forward 7 unknown #
face $-1 $302 $303 $41 $-1 $304 reversed single #
loop $-1 $-1 $204 $124 #
plane-surface $-1 0 0 11.188252488397758 0 0 1 1 0 0 forward_v I I I I #
coedge $-1 $305 $306 $307 $308 reversed $125 $-1 #
coedge $-1 $203 $127 $309 $310 reversed $80 $-1 #
coedge $-1 $127 $202 $305 $311 reversed $80 $-1 #
coedge $-1 $307 $312 $127 $205 forward $199 $-1 #
edge $-1 $313 8.0440766567284925 $314 11.265202380915326 $204 $315 forward 7 unknown #
loop $-1 $-1 $211 $128 #
plane-surface $-1 66.562532384045156 -15.830290339592068 54.849988395818258 0 0.68199836817093118 0.7313536940579346 1 0 0 forward_v I I I I #
loop $-1 $-1 $316 $82 #
coedge $-1 $209 $209 $210 $317 reversed $129 $-1 #
coedge $-1 $210 $210 $209 $317 forward $131 $-1 #
coedge $-1 $211 $211 $132 $212 forward $206 $-1 #
edge $-1 $318 3.2837267144799048e-015 $318 6.283185307179604 $211 $319 forward 7 unknown #
loop $-1 $-1 $218 $133 #
plane-surface $-1 66.562532384045156 -15.830290339592068 54.849988395818258 0 0.68199836817093118 0.7313536940579346 1 0 0 forward_v I I I I #
loop $-1 $-1 $320 $85 #
coedge $-1 $216 $216 $217 $321 reversed $134 $-1 #
coedge $-1 $217 $217 $216 $321 forward $136 $-1 #
coedge $-1 $218 $218 $137 $219 forward $213 $-1 #
edge $-1 $322 3.2837267144799048e-015 $322 6.283185307179604 $218 $323 forward 7 unknown #
face $-1 $324 $325 $33 $-1 $326 reversed single #
loop $-1 $-1 $327 $138 #
plane-surface $-1 -73.56547746208075 0 0 1 0 0 0 0 -1 forward_v I I I I #
coedge $-1 $328 $231 $329 $330 forward $139 $-1 #
coedge $-1 $331 $141 $328 $332 forward $89 $-1 #
coedge $-1 $141 $331 $333 $334 forward $89 $-1 #
coedge $-1 $234 $233 $141 $227 reversed $235 $-1 #
edge $-1 $335 -34.212313756329962 $336 34.212313756329962 $226 $337 forward 7 unknown #
coedge $-1 $143 $142 $338 $339 forward $56 $-1 #
coedge $-1 $340 $341 $142 $230 reversed $325 $-1 #
edge $-1 $237 -73.56547746208075 $342 73.56547746208075 $229 $343 forward 7 unknown #
coedge $-1 $223 $344 $143 $232 reversed $139 $-1 #
edge $-1 $345 -73.56547746208075 $236 73.56547746208075 $231 $346 forward 7 unknown #
coedge $-1 $226 $144 $344 $347 forward $235 $-1 #
coedge $-1 $144 $226 $340 $348 reversed $235 $-1 #
loop $-1 $-1 $233 $324 #
vertex $-1 $145 $349 #
vertex $-1 $145 $350 #
straight-curve $-1 73.56547746208075 0 11.188252488397758 0 1 0 I I #
face $-1 $351 $251 $34 $-1 $352 reversed single #
loop $-1 $-1 $353 $146 #
plane-surface $-1 -85.202646332100144 -13.389776365823913 0 1 0 0 0 0 -1 forward_v I I I I #
coedge $-1 $354 $355 $356 $357 forward $147 $-1 #
coedge $-1 $358 $149 $354 $359 forward $93 $-1 #
coedge $-1 $149 $358 $249 $360 forward $93 $-1 #
edge $-1 $252 11.835808779534444 $361 14.943743952113381 $149 $362 forward 7 unknown #
coedge $-1 $151 $150 $363 $364 forward $59 $-1 #
coedge $-1 $365 $366 $150 $248 forward $367 $-1 #
edge $-1 $368 -14.943743952113381 $253 -11.835808779534444 $247 $369 forward 7 unknown #
coedge $-1 $370 $152 $244 $360 reversed $251 $-1 #
coedge $-1 $152 $370 $365 $371 reversed $251 $-1 #
loop $-1 $-1 $152 $239 #
vertex $-1 $245 $372 #
vertex $-1 $371 $373 #
straight-curve $-1 -73.56547746208075 -11.835808779534444 0 0 0 1 I I #
face $-1 $-1 $374 $35 $-1 $375 reversed single #
loop $-1 $-1 $160 $154 #
plane-surface $-1 0 0 11.188252488397758 0 0 1 1 0 0 forward_v I I I I #
coedge $-1 $376 $377 $378 $379 reversed $155 $-1 #
coedge $-1 $380 $157 $159 $265 forward $97 $-1 #
coedge $-1 $157 $380 $376 $381 forward $97 $-1 #
coedge $-1 $378 $160 $157 $262 forward $256 $-1 #
edge $-1 $268 -20.786902910768056 $382 1.9415005148306292 $261 $383 forward 7 unknown #
coedge $-1 $384 $385 $158 $264 forward $374 $-1 #
edge $-1 $386 -36.438429489862578 $267 -32.506577519000551 $263 $387 forward 7 unknown #
edge $-1 $268 -4.6881959181761035 $386 2.636201369357039e-014 $159 $388 forward 7 unknown #
coedge $-1 $160 $378 $384 $389 forward $256 $-1 #
vertex $-1 $161 $390 #
vertex $-1 $161 $391 #
straight-curve $-1 30.209604108736769 -78.803358231306376 11.188252488397758 0 1 0 I I #
coedge $-1 $270 $270 $-1 $392 reversed $164 $-1 #
edge $-1 $393 0 $393 6.2831853071796004 $165 $394 forward 7 unknown #
vertex $-1 $168 $395 #
ellipse-curve $-1 13.975030233309141 -32.935626534803902 9.2223265029667481 0 -0.83867057594974714 0.54463902268945019 0.5 0 0 1 I I #
coedge $-1 $274 $274 $-1 $396 reversed $171 $-1 #
edge $-1 $397 0 $397 6.2831853071796004 $172 $398 forward 7 unknown #
vertex $-1 $175 $399 #
ellipse-curve $-1 23.715774558565712 -32.935626534803902 9.2223265029667481 0 -0.83867057594974714 0.54463902268945019 0.5 0 0 1 I I #
face $-1 $-1 $290 $38 $-1 $400 forward single #
loop $-1 $-1 $401 $176 #
plane-surface $-1 0 34.212313756329962 0 0 -1 0 0 0 -1 forward_v I I I I #
coedge $-1 $402 $403 $404 $405 reversed $177 $-1 #
coedge $-1 $406 $179 $181 $288 forward $111 $-1 #
coedge $-1 $179 $406 $402 $407 forward $111 $-1 #
coedge $-1 $404 $182 $179 $285 forward $290 $-1 #
edge $-1 $292 -7.595125399548543 $408 6.4107647565226458 $284 $409 forward 7 unknown #
coedge $-1 $410 $411 $180 $287 forward $279 $-1 #
edge $-1 $412 -73.042873805457248 $291 -70.039125406539853 $286 $413 forward 7 unknown #
edge $-1 $292 64.020293808793156 $412 68.424627512659939 $181 $414 forward 7 unknown #
coedge $-1 $182 $404 $410 $415 forward $290 $-1 #
loop $-1 $-1 $404 $278 #
vertex $-1 $287 $416 #
vertex $-1 $183 $417 #
straight-curve $-1 -8.1873057210614917 42.256390413058455 11.188252488397751 0 -1 0 I I #
coedge $-1 $294 $294 $-1 $418 reversed $186 $-1 #
edge $-1 $419 0 $419 6.2831853071796004 $187 $420 forward 7 unknown #
vertex $-1 $190 $421 #
ellipse-curve $-1 -4.1856228193268663 32.601750894236538 9.6863782889390766 0 0.68199836817093118 0.7313536940579346 1 0 0 1 I I #
coedge $-1 $298 $298 $-1 $422 reversed $193 $-1 #
edge $-1 $423 0 $423 6.2831853071796004 $194 $424 forward 7 unknown #
vertex $-1 $197 $425 #
ellipse-curve $-1 1.8169015332750718 32.601750894236538 9.6863782889390766 0 0.68199836817093118 0.7313536940579346 1 0 0 1 I I #
face $-1 $-1 $426 $41 $-1 $427 reversed single #
loop $-1 $-1 $309 $198 #
plane-surface $-1 0 34.212313756329962 0 0 -1 0 0 0 -1 forward_v I I I I #
coedge $-1 $428 $201 $203 $311 forward $125 $-1 #
coedge $-1 $201 $428 $429 $430 reversed $125 $-1 #
coedge $-1 $431 $204 $201 $308 forward $199 $-1 #
edge $-1 $314 26.278321113986983 $432 40.284211270058172 $307 $433 forward 7 unknown #
coedge $-1 $434 $435 $202 $310 forward $303 $-1 #
edge $-1 $436 -73.042873805457248 $313 -70.039125406539853 $309 $437 forward 7 unknown #
edge $-1 $314 64.020293808793156 $436 68.424627512659939 $203 $438 forward 7 unknown #
coedge $-1 $204 $431 $434 $439 forward $199 $-1 #
vertex $-1 $205 $440 #
vertex $-1 $205 $441 #
straight-curve $-1 59.559587306009561 42.256390413058455 11.188252488397751 0 -1 0 I I #
coedge $-1 $316 $316 $-1 $442 reversed $208 $-1 #
edge $-1 $443 0 $443 6.2831853071796004 $209 $444 forward 7 unknown #
vertex $-1 $212 $445 #
ellipse-curve $-1 63.561270207744187 32.601750894236538 9.6863782889390766 0 0.68199836817093118 0.7313536940579346 1 0 0 1 I I #
coedge $-1 $320 $320 $-1 $446 reversed $215 $-1 #
edge $-1 $447 0 $447 6.2831853071796004 $216 $448 forward 7 unknown #
vertex $-1 $219 $449 #
ellipse-curve $-1 69.563794560346125 32.601750894236538 9.6863782889390766 0 0.68199836817093118 0.7313536940579346 1 0 0 1 I I #
face $-1 $-1 $235 $33 $-1 $450 reversed single #
loop $-1 $-1 $340 $220 #
plane-surface $-1 0 34.212313756329962 0 0 -1 0 0 0 -1 forward_v I I I I #
coedge $-1 $451 $338 $341 $452 forward $221 $-1 #
coedge $-1 $344 $223 $224 $332 reversed $139 $-1 #
coedge $-1 $338 $451 $223 $330 reversed $221 $-1 #
edge $-1 $345 -11.188252488397758 $453 11.188252488397758 $329 $454 forward 7 unknown #
coedge $-1 $225 $224 $451 $455 forward $89 $-1 #
edge $-1 $336 -73.56547746208075 $453 73.56547746208075 $328 $456 forward 7 unknown #
coedge $-1 $341 $340 $225 $334 reversed $325 $-1 #
edge $-1 $457 -73.56547746208075 $335 73.56547746208075 $333 $458 forward 7 unknown #
vertex $-1 $227 $459 #
vertex $-1 $347 $460 #
straight-curve $-1 73.56547746208075 0 -11.188252488397758 0 -1 0 I I #
coedge $-1 $327 $329 $228 $339 reversed $221 $-1 #
edge $-1 $342 -34.212313756329962 $345 34.212313756329962 $338 $461 forward 7 unknown #
coedge $-1 $333 $229 $234 $348 forward $325 $-1 #
coedge $-1 $229 $333 $327 $452 reversed $325 $-1 #
vertex $-1 $230 $462 #
straight-curve $-1 0 34.212313756329962 11.188252488397758 -1 0 0 I I #
coedge $-1 $231 $328 $233 $347 reversed $139 $-1 #
vertex $-1 $339 $463 #
straight-curve $-1 0 -34.212313756329962 11.188252488397758 1 0 0 I I #
edge $-1 $236 -11.188252488397758 $336 11.188252488397758 $233 $464 forward 7 unknown #
edge $-1 $237 -11.188252488397758 $335 11.188252488397758 $234 $465 forward 7 unknown #
point $-1 73.56547746208075 -34.212313756329962 11.188252488397758 #
point $-1 73.56547746208075 34.212313756329962 11.188252488397758 #
face $-1 $-1 $367 $34 $-1 $466 forward single #
plane-surface $-1 -79.384061897090447 -11.835808779534444 0 0 -1 0 0 0 -1 forward_v I I I I #
coedge $-1 $467 $468 $370 $469 forward $240 $-1 #
coedge $-1 $363 $242 $243 $359 reversed $147 $-1 #
coedge $-1 $242 $363 $366 $470 reversed $147 $-1 #
coedge $-1 $468 $467 $242 $357 reversed $240 $-1 #
edge $-1 $471 -11.188252488397758 $472 11.188252488397758 $356 $473 forward 7 unknown #
coedge $-1 $244 $243 $467 $474 forward $93 $-1 #
edge $-1 $361 -5.8185844350096971 $472 5.8185844350096971 $354 $475 forward 7 unknown #
edge $-1 $476 -5.8185844350096971 $252 5.8185844350096971 $249 $477 forward 7 unknown #
vertex $-1 $359 $478 #
straight-curve $-1 -73.56547746208075 0 -11.188252488397758 0 -1 0 I I #
coedge $-1 $355 $354 $246 $364 reversed $147 $-1 #
edge $-1 $368 -11.188252488397758 $361 11.188252488397758 $363 $479 forward 7 unknown #
coedge $-1 $480 $247 $250 $371 forward $367 $-1 #
coedge $-1 $247 $480 $355 $470 forward $367 $-1 #
loop $-1 $-1 $247 $351 #
vertex $-1 $248 $481 #
straight-curve $-1 -73.56547746208075 0 11.188252488397758 0 1 0 I I #
coedge $-1 $250 $249 $353 $469 reversed $251 $-1 #
edge $-1 $253 -5.8185844350096971 $482 5.8185844350096971 $250 $483 forward 7 unknown #
point $-1 -73.56547746208075 -11.835808779534444 -11.188252488397758 #
point $-1 -73.56547746208075 -11.835808779534444 11.188252488397758 #
loop $-1 $-1 $263 $255 #
plane-surface $-1 0 -34.212313756329962 0 0 1 0 0 0 1 forward_v I I I I #
coedge $-1 $377 $258 $260 $381 reversed $155 $-1 #
coedge $-1 $258 $376 $484 $485 reversed $155 $-1 #
coedge $-1 $266 $261 $258 $379 forward $256 $-1 #
edge $-1 $382 -47.144418918028535 $486 -44.591044474976414 $378 $487 forward 7 unknown #
coedge $-1 $260 $259 $385 $488 reversed $97 $-1 #
edge $-1 $489 -2.636201369357039e-014 $382 4.6881959181761035 $376 $490 forward 7 unknown #
vertex $-1 $262 $491 #
straight-curve $-1 9.4227011979687134 -31.658939313277845 11.188252488397758 -1 0 0 I I #
coedge $-1 $484 $263 $266 $389 reversed $374 $-1 #
coedge $-1 $263 $484 $380 $488 forward $374 $-1 #
vertex $-1 $264 $492 #
straight-curve $-1 30.209604108736769 -34.212313756329962 43.694830007398309 0 0 1 I I #
straight-curve $-1 30.209604108736769 -34.212313756329948 7.2564005175357522 0 -0.54463902268945019 -0.83867057594974714 I I #
edge $-1 $486 7.4812006831380842 $267 30.209604108736769 $384 $493 forward 7 unknown #
point $-1 30.209604108736769 -34.212313756329962 11.188252488397758 #
point $-1 30.209604108736769 -31.658939313277845 11.188252488397758 #
edge $-1 $494 1 $494 0 $270 $-1 forward 7 unknown #
vertex $-1 $271 $495 #
ellipse-curve $-1 13.975030233309141 -32.096955958854167 8.6776874802773065 0 -0.83867057594974714 0.54463902268945019 0.5 0 0 1 I I #
point $-1 14.475030233309141 -32.935626534803916 9.2223265029667569 #
edge $-1 $496 1 $496 0 $274 $-1 forward 7 unknown #
vertex $-1 $275 $497 #
ellipse-curve $-1 23.715774558565712 -32.096955958854167 8.6776874802773065 0 -0.83867057594974714 0.54463902268945019 0.5 0 0 1 I I #
point $-1 24.215774558565712 -32.935626534803916 9.2223265029667569 #
plane-surface $-1 0 0 11.188252488397758 0 0 1 1 0 0 forward_v I I I I #
coedge $-1 $411 $410 $403 $498 forward $279 $-1 #
coedge $-1 $403 $281 $283 $407 reversed $177 $-1 #
coedge $-1 $281 $402 $401 $498 reversed $177 $-1 #
coedge $-1 $289 $284 $281 $405 forward $290 $-1 #
edge $-1 $408 -11.265202380915326 $499 -8.0440766567284925 $404 $500 forward 7 unknown #
coedge $-1 $283 $282 $411 $501 reversed $111 $-1 #
edge $-1 $502 -68.424627512659939 $408 -64.020293808793156 $402 $503 forward 7 unknown #
vertex $-1 $285 $504 #
straight-curve $-1 -0.59218032151294864 30.991188032143114 11.188252488397758 1 0 0 I I #
coedge $-1 $401 $286 $289 $415 reversed $279 $-1 #
coedge $-1 $286 $401 $406 $501 forward $279 $-1 #
vertex $-1 $287 $505 #
straight-curve $-1 -8.1873057210614917 34.212313756329962 81.227377894937618 0 0 1 I I #
straight-curve $-1 -8.1873057210614917 -15.830290339592068 54.849988395818258 0 0.7313536940579346 -0.68199836817093118 I I #
edge $-1 $499 -5.8185844350096971 $291 8.1873057210614917 $410 $506 forward 7 unknown #
point $-1 -8.1873057210614917 34.212313756329962 11.188252488397758 #
point $-1 -8.1873057210614917 30.991188032143128 11.188252488397758 #
edge $-1 $507 1 $507 0 $294 $-1 forward 7 unknown #
vertex $-1 $295 $508 #
ellipse-curve $-1 -4.1856228193268663 31.7023963763171 8.7219386661404119 0 0.68199836817093118 0.7313536940579346 1 0 0 1 I I #
point $-1 -3.1856228193268663 32.601750894236531 9.6863782889390642 #
edge $-1 $509 1 $509 0 $298 $-1 forward 7 unknown #
vertex $-1 $299 $510 #
ellipse-curve $-1 1.8169015332750718 31.7023963763171 8.7219386661404119 0 0.68199836817093118 0.7313536940579346 1 0 0 1 I I #
point $-1 2.8169015332750718 32.601750894236531 9.6863782889390642 #
loop $-1 $-1 $429 $302 #
plane-surface $-1 73.56547746208075 0 0 -1 0 0 0 0 1 forward_v I I I I #
coedge $-1 $306 $305 $435 $511 reversed $125 $-1 #
coedge $-1 $512 $513 $306 $430 forward $426 $-1 #
edge $-1 $432 39.527721859786723 $514 43.932055563653506 $429 $515 forward 7 unknown #
coedge $-1 $312 $307 $513 $516 forward $199 $-1 #
vertex $-1 $516 $517 #
straight-curve $-1 33.281266192022578 30.991188032143114 11.188252488397758 1 0 0 I I #
coedge $-1 $518 $309 $312 $439 reversed $303 $-1 #
coedge $-1 $309 $518 $428 $511 forward $303 $-1 #
vertex $-1 $310 $519 #
straight-curve $-1 59.559587306009561 34.212313756329962 81.227377894937618 0 0 1 I I #
straight-curve $-1 59.559587306009561 -15.830290339592068 54.849988395818258 0 0.7313536940579346 -0.68199836817093118 I I #
edge $-1 $520 -73.56547746208075 $313 -59.559587306009561 $434 $521 forward 7 unknown #
point $-1 59.559587306009561 34.212313756329962 11.188252488397758 #
point $-1 59.559587306009561 30.991188032143128 11.188252488397758 #
edge $-1 $522 1 $522 0 $316 $-1 forward 7 unknown #
vertex $-1 $317 $523 #
ellipse-curve $-1 63.561270207744187 31.7023963763171 8.7219386661404119 0 0.68199836817093118 0.7313536940579346 1 0 0 1 I I #
point $-1 64.561270207744187 32.601750894236531 9.6863782889390642 #
edge $-1 $524 1 $524 0 $320 $-1 forward 7 unknown #
vertex $-1 $321 $525 #
ellipse-curve $-1 69.563794560346125 31.7023963763171 8.7219386661404119 0 0.68199836817093118 0.7313536940579346 1 0 0 1 I I #
point $-1 70.563794560346125 32.601750894236531 9.6863782889390642 #
plane-surface $-1 73.56547746208075 0 0 -1 0 0 0 0 1 forward_v I I I I #
coedge $-1 $329 $327 $331 $455 reversed $221 $-1 #
edge $-1 $342 -11.188252488397758 $457 11.188252488397758 $341 $526 forward 7 unknown #
vertex $-1 $455 $527 #
straight-curve $-1 -73.56547746208075 -34.212313756329962 0 0 0 -1 I I #
edge $-1 $453 -34.212313756329962 $457 34.212313756329962 $451 $528 forward 7 unknown #
straight-curve $-1 0 -34.212313756329962 -11.188252488397758 -1 0 0 I I #
vertex $-1 $334 $529 #
straight-curve $-1 0 34.212313756329962 -11.188252488397758 1 0 0 I I #
point $-1 73.56547746208075 34.212313756329962 -11.188252488397758 #
point $-1 73.56547746208075 -34.212313756329962 -11.188252488397758 #
straight-curve $-1 -73.56547746208075 0 11.188252488397758 0 -1 0 I I #
point $-1 -73.56547746208075 34.212313756329962 11.188252488397758 #
point $-1 -73.56547746208075 -34.212313756329962 11.188252488397758 #
straight-curve $-1 73.56547746208075 -34.212313756329962 0 0 0 -1 I I #
straight-curve $-1 73.56547746208075 34.212313756329962 0 0 0 -1 I I #
plane-surface $-1 0 0 11.188252488397758 0 0 1 1 0 0 forward_v I I I I #
coedge $-1 $356 $353 $358 $474 reversed $240 $-1 #
coedge $-1 $353 $356 $480 $530 reversed $240 $-1 #
edge $-1 $482 -11.188252488397758 $476 11.188252488397758 $370 $531 forward 7 unknown #
edge $-1 $471 -5.8185844350096971 $368 5.8185844350096971 $355 $532 forward 7 unknown #
vertex $-1 $530 $533 #
vertex $-1 $474 $534 #
straight-curve $-1 -85.202646332100144 -14.943743952113381 0 0 0 -1 I I #
edge $-1 $472 -1.5539675862894686 $476 1.5539675862894686 $467 $535 forward 7 unknown #
straight-curve $-1 -79.384061897090447 -14.943743952113381 -11.188252488397758 -1 0 0 I I #
vertex $-1 $360 $536 #
straight-curve $-1 -79.384061897090447 -11.835808779534444 -11.188252488397758 1 0 0 I I #
point $-1 -73.56547746208075 -14.943743952113381 -11.188252488397758 #
straight-curve $-1 -73.56547746208075 -14.943743952113381 0 0 0 -1 I I #
coedge $-1 $366 $365 $468 $530 forward $367 $-1 #
point $-1 -73.56547746208075 -14.943743952113381 11.188252488397758 #
vertex $-1 $371 $537 #
straight-curve $-1 -79.384061897090447 -11.835808779534444 11.188252488397758 -1 0 0 I I #
coedge $-1 $385 $384 $377 $485 forward $374 $-1 #
edge $-1 $486 32.506577519000551 $489 36.438429489862578 $484 $538 forward 7 unknown #
vertex $-1 $389 $539 #
straight-curve $-1 7.4812006831380842 -78.803358231306376 11.188252488397758 0 -1 0 I I #
edge $-1 $489 -1.9415005148306292 $386 20.786902910768056 $385 $540 forward 7 unknown #
vertex $-1 $488 $541 #
straight-curve $-1 7.4812006831380842 -34.212313756329948 7.2564005175357522 0 0.54463902268945019 0.83867057594974714 I I #
point $-1 7.4812006831380842 -31.658939313277845 11.188252488397758 #
point $-1 30.209604108736769 -34.212313756329962 7.25640051753573 #
straight-curve $-1 0 -34.212313756329962 11.188252488397758 1 0 0 I I #
vertex $-1 $392 $542 #
point $-1 14.475030233309141 -32.096955958854167 8.6776874802773065 #
vertex $-1 $396 $543 #
point $-1 24.215774558565712 -32.096955958854167 8.6776874802773065 #
edge $-1 $499 70.039125406539853 $502 73.042873805457248 $401 $544 forward 7 unknown #
vertex $-1 $415 $545 #
straight-curve $-1 5.8185844350096971 42.256390413058455 11.188252488397751 0 1 0 I I #
edge $-1 $502 -6.4107647565226458 $412 7.595125399548543 $411 $546 forward 7 unknown #
vertex $-1 $501 $547 #
straight-curve $-1 5.8185844350096971 -15.830290339592068 54.849988395818258 0 -0.7313536940579346 0.68199836817093118 I I #
point $-1 5.8185844350096971 30.991188032143128 11.188252488397758 #
point $-1 -8.1873057210614917 34.212313756329962 8.1845040894803773 #
straight-curve $-1 0 34.212313756329962 11.188252488397758 -1 0 0 I I #
vertex $-1 $418 $548 #
point $-1 -3.1856228193268663 31.7023963763171 8.7219386661404119 #
vertex $-1 $422 $549 #
point $-1 2.8169015332750718 31.7023963763171 8.7219386661404119 #
edge $-1 $514 -40.284211270058172 $436 -26.278321113986983 $435 $550 forward 7 unknown #
coedge $-1 $513 $429 $518 $551 reversed $426 $-1 #
coedge $-1 $429 $512 $431 $516 reversed $426 $-1 #
vertex $-1 $430 $552 #
straight-curve $-1 73.56547746208075 2.0824426322935317 38.146094294286748 0 0.7313536940579346 -0.68199836817093118 I I #
edge $-1 $432 30.991188032143128 $520 34.212313756329962 $513 $553 forward 7 unknown #
point $-1 73.56547746208075 30.991188032143128 11.188252488397758 #
coedge $-1 $435 $434 $512 $551 forward $303 $-1 #
point $-1 59.559587306009561 34.212313756329962 8.1845040894803773 #
vertex $-1 $516 $554 #
straight-curve $-1 0 34.212313756329962 11.188252488397758 -1 0 0 I I #
vertex $-1 $442 $555 #
point $-1 64.561270207744187 31.7023963763171 8.7219386661404119 #
vertex $-1 $446 $556 #
point $-1 70.563794560346125 31.7023963763171 8.7219386661404119 #
straight-curve $-1 -73.56547746208075 34.212313756329962 0 0 0 -1 I I #
point $-1 -73.56547746208075 -34.212313756329962 -11.188252488397758 #
straight-curve $-1 -73.56547746208075 0 -11.188252488397758 0 1 0 I I #
point $-1 -73.56547746208075 34.212313756329962 -11.188252488397758 #
edge $-1 $482 -1.5539675862894686 $471 1.5539675862894686 $468 $557 forward 7 unknown #
straight-curve $-1 -85.202646332100144 -11.835808779534444 0 0 0 -1 I I #
straight-curve $-1 -79.384061897090447 -14.943743952113381 11.188252488397758 1 0 0 I I #
point $-1 -85.202646332100144 -14.943743952113381 11.188252488397758 #
point $-1 -85.202646332100144 -14.943743952113381 -11.188252488397758 #
straight-curve $-1 -85.202646332100144 -13.389776365823913 -11.188252488397758 0 1 0 I I #
point $-1 -85.202646332100144 -11.835808779534444 -11.188252488397758 #
point $-1 -85.202646332100144 -11.835808779534444 11.188252488397758 #
straight-curve $-1 7.4812006831380842 -34.212313756329962 43.694830007398309 0 0 -1 I I #
point $-1 7.4812006831380842 -34.212313756329962 11.188252488397758 #
straight-curve $-1 9.4227011979687134 -34.212313756329962 7.2564005175357256 1 0 0 I I #
point $-1 7.4812006831380842 -34.212313756329962 7.25640051753573 #
point $-1 13.975030233309141 -31.677620670879293 8.4053679689325804 #
point $-1 23.715774558565712 -31.677620670879293 8.4053679689325804 #
straight-curve $-1 5.8185844350096971 34.212313756329962 81.227377894937618 0 0 -1 I I #
point $-1 5.8185844350096971 34.212313756329962 11.188252488397758 #
straight-curve $-1 -0.59218032151294864 34.212313756329962 8.1845040894803809 -1 0 0 I I #
point $-1 5.8185844350096971 34.212313756329962 8.1845040894803773 #
point $-1 -4.1856228193268663 31.02039800814617 7.9905849720824778 #
point $-1 1.8169015332750718 31.02039800814617 7.9905849720824778 #
straight-curve $-1 33.281266192022578 34.212313756329962 8.1845040894803809 -1 0 0 I I #
edge $-1 $520 -11.188252488397758 $514 -8.1845040894803773 $512 $558 forward 7 unknown #
point $-1 73.56547746208075 34.212313756329962 8.1845040894803773 #
straight-curve $-1 73.56547746208075 0 11.188252488397758 0 1 0 I I #
point $-1 73.56547746208075 34.212313756329962 11.188252488397758 #
point $-1 63.561270207744187 31.02039800814617 7.9905849720824778 #
point $-1 69.563794560346125 31.02039800814617 7.9905849720824778 #
straight-curve $-1 -85.202646332100144 -13.389776365823913 11.188252488397758 0 -1 0 I I #
straight-curve $-1 73.56547746208075 34.212313756329962 0 0 0 -1 I I #
End-of-ACIS-data 