500 0 14 0           
7 Unknown 11 ACIS 5.0 NT 24 Fri Mar 26 19:28:54 1999 
-1 9.9999999999999995e-007 1e-010 
body $-1 $14 $-1 $15 #
body $-1 $16 $-1 $17 #
body $-1 $18 $-1 $19 #
body $-1 $20 $-1 $21 #
body $-1 $22 $-1 $23 #
body $-1 $24 $-1 $25 #
body $-1 $26 $-1 $27 #
body $-1 $28 $-1 $29 #
body $-1 $30 $-1 $31 #
body $-1 $32 $-1 $33 #
body $-1 $34 $-1 $35 #
body $-1 $36 $-1 $37 #
body $-1 $38 $-1 $39 #
body $-1 $40 $-1 $41 #
lump $-1 $-1 $42 $0 #
transform $-1 1 0 0 0 1 0 0 0 1 67.106540116580703 32.167598954958386 13.262373060762666 1 rotate no_reflect no_shear #
lump $-1 $-1 $43 $1 #
transform $-1 1 0 0 0 1 0 0 0 1 67.106540116580703 32.167598954958386 13.262373060762666 1 rotate no_reflect no_shear #
lump $-1 $-1 $44 $2 #
transform $-1 1 0 0 0 1 0 0 0 1 67.106540116580703 32.167598954958386 13.262373060762666 1 rotate no_reflect no_shear #
lump $-1 $-1 $45 $3 #
transform $-1 1 0 0 0 1 0 0 0 1 67.106540116580703 32.167598954958386 13.262373060762666 1 rotate no_reflect no_shear #
lump $-1 $-1 $46 $4 #
transform $-1 1 0 0 0 1 0 0 0 1 67.106540116580703 32.167598954958386 13.262373060762666 1 rotate no_reflect no_shear #
lump $-1 $-1 $47 $5 #
transform $-1 1 0 0 0 1 0 0 0 1 67.106540116580703 32.167598954958386 13.262373060762666 1 rotate no_reflect no_shear #
lump $-1 $-1 $48 $6 #
transform $-1 1 0 0 0 1 0 0 0 1 67.106540116580703 32.167598954958386 13.262373060762666 1 rotate no_reflect no_shear #
lump $-1 $-1 $49 $7 #
transform $-1 1 0 0 0 1 0 0 0 1 67.106540116580703 32.167598954958386 13.262373060762666 1 rotate no_reflect no_shear #
lump $-1 $-1 $50 $8 #
transform $-1 1 0 0 0 1 0 0 0 1 67.106540116580703 32.167598954958386 13.262373060762666 1 rotate no_reflect no_shear #
lump $-1 $-1 $51 $9 #
transform $-1 1 0 0 0 1 0 0 0 1 67.106540116580703 32.167598954958386 13.262373060762666 1 rotate no_reflect no_shear #
lump $-1 $-1 $52 $10 #
transform $-1 1 0 0 0 1 0 0 0 1 67.106540116580703 32.167598954958386 13.262373060762666 1 rotate no_reflect no_shear #
lump $-1 $-1 $53 $11 #
transform $-1 1 0 0 0 1 0 0 0 1 67.106540116580703 32.167598954958386 13.262373060762666 1 rotate no_reflect no_shear #
lump $-1 $-1 $54 $12 #
transform $-1 1 0 0 0 1 0 0 0 1 67.106540116580703 32.167598954958386 13.262373060762666 1 rotate no_reflect no_shear #
lump $-1 $-1 $55 $13 #
transform $-1 1 0 0 0 1 0 0 0 1 67.106540116580703 32.167598954958386 13.262373060762666 1 rotate no_reflect no_shear #
shell $-1 $-1 $-1 $56 $-1 $14 #
shell $-1 $-1 $-1 $57 $-1 $16 #
shell $-1 $-1 $-1 $58 $-1 $18 #
shell $-1 $-1 $-1 $59 $-1 $20 #
shell $-1 $-1 $-1 $60 $-1 $22 #
shell $-1 $-1 $-1 $61 $-1 $24 #
shell $-1 $-1 $-1 $62 $-1 $26 #
shell $-1 $-1 $-1 $63 $-1 $28 #
shell $-1 $-1 $-1 $64 $-1 $30 #
shell $-1 $-1 $-1 $65 $-1 $32 #
shell $-1 $-1 $-1 $66 $-1 $34 #
shell $-1 $-1 $-1 $67 $-1 $36 #
shell $-1 $-1 $-1 $68 $-1 $38 #
shell $-1 $-1 $-1 $69 $-1 $40 #
face $-1 $70 $71 $42 $-1 $72 forward single #
face $-1 $73 $74 $43 $-1 $75 reversed single #
face $-1 $76 $77 $44 $-1 $78 reversed single #
face $-1 $79 $80 $45 $-1 $81 forward single #
face $-1 $82 $83 $46 $-1 $84 forward single #
face $-1 $85 $86 $47 $-1 $87 reversed single #
face $-1 $88 $89 $48 $-1 $90 forward single #
face $-1 $91 $92 $49 $-1 $93 forward single #
face $-1 $94 $95 $50 $-1 $96 reversed single #
face $-1 $97 $98 $51 $-1 $99 forward single #
face $-1 $100 $101 $52 $-1 $102 forward single #
face $-1 $103 $104 $53 $-1 $105 reversed single #
face $-1 $106 $107 $54 $-1 $108 forward single #
face $-1 $109 $110 $55 $-1 $111 forward single #
face $-1 $112 $113 $42 $-1 $114 reversed single #
loop $-1 $-1 $115 $56 #
plane-surface $-1 0 0 13.262373060762666 0 0 1 1 0 0 forward_v I I I I #
face $-1 $116 $117 $43 $-1 $118 reversed single #
loop $-1 $-1 $119 $57 #
plane-surface $-1 -65.606540116580703 -17.071879996920089 0 0 -1 0 0 0 -1 forward_v I I I I #
face $-1 $120 $121 $44 $-1 $122 reversed single #
loop $-1 $-1 $123 $58 #
plane-surface $-1 -134.21308113221946 -4.7315845434867683 124.43381720798037 0 1 0 -0.50000000669873634 0 0.8660253999169214 forward_v I I I I #
face $-1 $124 $125 $45 $-1 $126 forward single #
loop $-1 $127 $128 $59 #
cone-surface $-1 -62.324080204377019 -1.2231719656279338 10.039401720230995 0.50000000669873634 0 -0.8660253999169214 0.8660253999169214 0 0.50000000669873634 1 I I 0 1 1 forward I I I I #
face $-1 $129 $130 $46 $-1 $131 forward single #
loop $-1 $132 $133 $60 #
cone-surface $-1 -62.324080204377019 4.0394469011603178 10.039401720230995 0.50000000669873634 0 -0.8660253999169214 0.8660253999169214 0 0.50000000669873634 1 I I 0 1 1 forward I I I I #
face $-1 $134 $135 $47 $-1 $136 reversed single #
loop $-1 $-1 $137 $61 #
plane-surface $-1 -67.106540116580717 1.4081374677661884 8.2018807249748988 -0.50000000669873634 0 0.8660253999169214 0.8660253999169214 0 0.50000000669873634 forward_v I I I I #
face $-1 $138 $139 $48 $-1 $140 forward single #
loop $-1 $141 $142 $62 #
cone-surface $-1 -62.324080204377019 11.05627205687798 10.039401720230995 0.50000000669873634 0 -0.8660253999169214 0.8660253999169214 0 0.50000000669873634 1 I I 0 1 1 forward I I I I #
face $-1 $143 $144 $49 $-1 $145 forward single #
loop $-1 $146 $147 $63 #
cone-surface $-1 -62.324080204377019 16.318890923666231 10.039401720230995 0.50000000669873634 0 -0.8660253999169214 0.8660253999169214 0 0.50000000669873634 1 I I 0 1 1 forward I I I I #
face $-1 $148 $149 $50 $-1 $150 reversed single #
loop $-1 $-1 $151 $64 #
plane-surface $-1 21.188324357271782 -6.6197064573517537 192.01776308704504 0 -1 0 -0.51503808176128008 0 -0.85716729658548041 forward_v I I I I #
face $-1 $152 $153 $51 $-1 $154 forward single #
loop $-1 $155 $156 $65 #
cone-surface $-1 62.345047737496294 -11.599627731968916 10.127529155396429 -0.51503808176128008 0 -0.85716729658548041 0.4285836482927402 0 -0.25751904088064004 1 I I 0 1 0.5 forward I I I I #
face $-1 $157 $158 $52 $-1 $159 forward single #
loop $-1 $160 $161 $66 #
cone-surface $-1 62.345047737496294 -8.6116749671986206 10.127529155396429 -0.51503808176128008 0 -0.85716729658548041 0.4285836482927402 0 -0.25751904088064004 1 I I 0 1 0.5 forward I I I I #
face $-1 $162 $163 $53 $-1 $164 reversed single #
loop $-1 $-1 $165 $67 #
plane-surface $-1 21.188324357271782 28.687315199854076 192.01776308704504 0 -1 0 -0.51503808176128008 0 -0.85716729658548041 forward_v I I I I #
face $-1 $166 $167 $54 $-1 $168 forward single #
loop $-1 $169 $170 $68 #
cone-surface $-1 62.345047737496294 23.707393925236914 10.127529155396429 -0.51503808176128008 0 -0.85716729658548041 0.4285836482927402 0 -0.25751904088064004 1 I I 0 1 0.5 forward I I I I #
face $-1 $171 $172 $55 $-1 $173 forward single #
loop $-1 $174 $175 $69 #
cone-surface $-1 62.345047737496294 26.695346690007206 10.127529155396429 -0.51503808176128008 0 -0.85716729658548041 0.4285836482927402 0 -0.25751904088064004 1 I I 0 1 0.5 forward I I I I #
face $-1 $176 $177 $42 $-1 $178 reversed single #
loop $-1 $-1 $179 $70 #
plane-surface $-1 0 0 -13.262373060762666 0 0 1 1 0 0 forward_v I I I I #
coedge $-1 $180 $181 $182 $183 forward $71 $-1 #
face $-1 $184 $185 $43 $-1 $186 forward single #
loop $-1 $-1 $187 $73 #
plane-surface $-1 -64.106540116580703 -24.619739475939237 0 -1 0 0 0 0 1 forward_v I I I I #
coedge $-1 $188 $189 $190 $191 forward $74 $-1 #
face $-1 $192 $193 $44 $-1 $194 reversed single #
loop $-1 $-1 $195 $76 #
plane-surface $-1 -67.106540116580717 1.4081374677661884 8.2018807249748988 -0.50000000669873634 0 0.8660253999169214 0.8660253999169214 0 0.50000000669873634 forward_v I I I I #
coedge $-1 $196 $197 $198 $199 reversed $77 $-1 #
face $-1 $-1 $200 $45 $-1 $201 forward single #
loop $-1 $202 $203 $79 #
cone-surface $-1 -61.674135128986457 -1.2231719656279338 8.9136638476347443 0.50000000669873634 0 -0.8660253999169214 0.4330126999584607 0 0.25000000334936817 1 I I -0.70710678118654746 0.70710678118654746 0.5 forward I I I I #
loop $-1 $-1 $204 $59 #
coedge $-1 $128 $128 $205 $206 reversed $80 $-1 #
face $-1 $-1 $207 $46 $-1 $208 forward single #
loop $-1 $209 $210 $82 #
cone-surface $-1 -61.674135128986457 4.0394469011603178 8.9136638476347443 0.50000000669873634 0 -0.8660253999169214 0.4330126999584607 0 0.25000000334936817 1 I I -0.70710678118654746 0.70710678118654746 0.5 forward I I I I #
loop $-1 $-1 $211 $60 #
coedge $-1 $133 $133 $212 $213 reversed $83 $-1 #
face $-1 $214 $215 $47 $-1 $216 reversed single #
loop $-1 $-1 $217 $85 #
plane-surface $-1 -134.21308113221946 19.827303501525058 124.43381720798037 0 -1 0 0.50000000669873634 0 -0.8660253999169214 forward_v I I I I #
coedge $-1 $218 $219 $220 $221 reversed $86 $-1 #
face $-1 $-1 $222 $48 $-1 $223 forward single #
loop $-1 $224 $225 $88 #
cone-surface $-1 -61.674135128986457 11.05627205687798 8.9136638476347443 0.50000000669873634 0 -0.8660253999169214 0.4330126999584607 0 0.25000000334936817 1 I I -0.70710678118654746 0.70710678118654746 0.5 forward I I I I #
loop $-1 $-1 $226 $62 #
coedge $-1 $142 $142 $227 $228 reversed $89 $-1 #
face $-1 $-1 $229 $49 $-1 $230 forward single #
loop $-1 $231 $232 $91 #
cone-surface $-1 -61.674135128986457 16.318890923666231 8.9136638476347443 0.50000000669873634 0 -0.8660253999169214 0.4330126999584607 0 0.25000000334936817 1 I I -0.70710678118654746 0.70710678118654746 0.5 forward I I I I #
loop $-1 $-1 $233 $63 #
coedge $-1 $147 $147 $234 $235 reversed $92 $-1 #
face $-1 $236 $237 $50 $-1 $238 reversed single #
loop $-1 $-1 $239 $94 #
plane-surface $-1 -47.936523033288452 -10.105651349583766 76.974699937175899 0.51503808176128008 0 0.85716729658548041 0.85716729658548041 0 -0.51503808176128008 forward_v I I I I #
coedge $-1 $240 $241 $242 $243 reversed $95 $-1 #
face $-1 $-1 $244 $51 $-1 $245 forward single #
loop $-1 $246 $247 $97 #
cone-surface $-1 61.958769176175338 -11.599627731968916 9.4846536829573189 -0.51503808176128008 0 -0.85716729658548041 0.2142918241463701 0 -0.12875952044032002 1 I I -0.70710678118654746 0.70710678118654746 0.25 forward I I I I #
loop $-1 $-1 $248 $65 #
coedge $-1 $156 $156 $249 $250 reversed $98 $-1 #
face $-1 $-1 $251 $52 $-1 $252 forward single #
loop $-1 $253 $254 $100 #
cone-surface $-1 61.958769176175338 -8.6116749671986206 9.4846536829573189 -0.51503808176128008 0 -0.85716729658548041 0.2142918241463701 0 -0.12875952044032002 1 I I -0.70710678118654746 0.70710678118654746 0.25 forward I I I I #
loop $-1 $-1 $255 $66 #
coedge $-1 $161 $161 $256 $257 reversed $101 $-1 #
face $-1 $258 $259 $53 $-1 $260 reversed single #
loop $-1 $-1 $261 $103 #
plane-surface $-1 -47.936523033288452 25.201370307622064 76.974699937175899 0.51503808176128008 0 0.85716729658548041 0.85716729658548041 0 -0.51503808176128008 forward_v I I I I #
coedge $-1 $262 $263 $264 $265 reversed $104 $-1 #
face $-1 $-1 $266 $54 $-1 $267 forward single #
loop $-1 $268 $269 $106 #
cone-surface $-1 61.958769176175338 23.707393925236914 9.4846536829573189 -0.51503808176128008 0 -0.85716729658548041 0.2142918241463701 0 -0.12875952044032002 1 I I -0.70710678118654746 0.70710678118654746 0.25 forward I I I I #
loop $-1 $-1 $270 $68 #
coedge $-1 $170 $170 $271 $272 reversed $107 $-1 #
face $-1 $-1 $273 $55 $-1 $274 forward single #
loop $-1 $275 $276 $109 #
cone-surface $-1 61.958769176175338 26.695346690007206 9.4846536829573189 -0.51503808176128008 0 -0.85716729658548041 0.2142918241463701 0 -0.12875952044032002 1 I I -0.70710678118654746 0.70710678118654746 0.25 forward I I I I #
loop $-1 $-1 $277 $69 #
coedge $-1 $175 $175 $278 $279 reversed $110 $-1 #
face $-1 $280 $281 $42 $-1 $282 reversed single #
loop $-1 $-1 $283 $112 #
plane-surface $-1 0 -32.167598954958386 0 0 1 0 0 0 1 forward_v I I I I #
coedge $-1 $284 $285 $286 $287 forward $113 $-1 #
coedge $-1 $288 $115 $289 $290 forward $71 $-1 #
coedge $-1 $115 $288 $291 $292 forward $71 $-1 #
coedge $-1 $293 $294 $115 $183 reversed $295 $-1 #
edge $-1 $296 -32.167598954958386 $297 32.167598954958386 $182 $298 forward 7 unknown #
face $-1 $299 $300 $43 $-1 $301 reversed single #
loop $-1 $-1 $302 $116 #
plane-surface $-1 0 0 13.262373060762666 0 0 1 1 0 0 forward_v I I I I #
coedge $-1 $303 $304 $305 $306 reversed $117 $-1 #
coedge $-1 $307 $119 $308 $309 reversed $74 $-1 #
coedge $-1 $119 $307 $310 $311 reversed $74 $-1 #
coedge $-1 $304 $303 $119 $191 reversed $117 $-1 #
edge $-1 $312 -13.262373060762666 $313 13.262373060762666 $190 $314 forward 7 unknown #
face $-1 $315 $316 $44 $-1 $317 reversed single #
loop $-1 $-1 $318 $120 #
plane-surface $-1 -134.21308113221946 7.5478594790191451 124.43381720798037 0 -1 0 0.50000000669873634 0 -0.8660253999169214 forward_v I I I I #
coedge $-1 $319 $320 $321 $322 reversed $121 $-1 #
coedge $-1 $197 $123 $323 $324 reversed $77 $-1 #
coedge $-1 $123 $196 $319 $325 reversed $77 $-1 #
coedge $-1 $321 $326 $123 $199 forward $327 $-1 #
edge $-1 $328 4.4952902555905894e-007 $329 8.7650301298539972 $198 $330 forward 7 unknown #
loop $-1 $-1 $205 $124 #
plane-surface $-1 -67.106540116580717 1.4081374677661884 8.2018807249748988 -0.50000000669873634 0 0.8660253999169214 0.8660253999169214 0 0.50000000669873634 forward_v I I I I #
loop $-1 $-1 $331 $79 #
coedge $-1 $203 $203 $204 $332 reversed $125 $-1 #
coedge $-1 $204 $204 $203 $332 forward $127 $-1 #
coedge $-1 $205 $205 $128 $206 forward $200 $-1 #
edge $-1 $333 0 $333 6.2831853071796004 $205 $334 forward 7 unknown #
loop $-1 $-1 $212 $129 #
plane-surface $-1 -67.106540116580717 1.4081374677661884 8.2018807249748988 -0.50000000669873634 0 0.8660253999169214 0.8660253999169214 0 0.50000000669873634 forward_v I I I I #
loop $-1 $-1 $335 $82 #
coedge $-1 $210 $210 $211 $336 reversed $130 $-1 #
coedge $-1 $211 $211 $210 $336 forward $132 $-1 #
coedge $-1 $212 $212 $133 $213 forward $207 $-1 #
edge $-1 $337 0 $337 6.2831853071796004 $212 $338 forward 7 unknown #
face $-1 $339 $340 $47 $-1 $341 forward single #
loop $-1 $-1 $342 $134 #
plane-surface $-1 -67.106540116580703 0 0 1 0 0 0 0 -1 forward_v I I I I #
coedge $-1 $343 $344 $345 $346 reversed $135 $-1 #
coedge $-1 $347 $137 $348 $349 reversed $86 $-1 #
coedge $-1 $137 $347 $350 $351 reversed $86 $-1 #
coedge $-1 $352 $353 $137 $221 forward $340 $-1 #
edge $-1 $354 1.6747853295891438e-014 $355 10.120984535979918 $220 $356 forward 7 unknown #
loop $-1 $-1 $227 $138 #
plane-surface $-1 -67.106540116580717 1.4081374677661884 8.2018807249748988 -0.50000000669873634 0 0.8660253999169214 0.8660253999169214 0 0.50000000669873634 forward_v I I I I #
loop $-1 $-1 $357 $88 #
coedge $-1 $225 $225 $226 $358 reversed $139 $-1 #
coedge $-1 $226 $226 $225 $358 forward $141 $-1 #
coedge $-1 $227 $227 $142 $228 forward $222 $-1 #
edge $-1 $359 0 $359 6.2831853071796004 $227 $360 forward 7 unknown #
loop $-1 $-1 $234 $143 #
plane-surface $-1 -67.106540116580717 1.4081374677661884 8.2018807249748988 -0.50000000669873634 0 0.8660253999169214 0.8660253999169214 0 0.50000000669873634 forward_v I I I I #
loop $-1 $-1 $361 $91 #
coedge $-1 $232 $232 $233 $362 reversed $144 $-1 #
coedge $-1 $233 $233 $232 $362 forward $146 $-1 #
coedge $-1 $234 $234 $147 $235 forward $229 $-1 #
edge $-1 $363 0 $363 6.2831853071796004 $234 $364 forward 7 unknown #
face $-1 $365 $366 $50 $-1 $367 forward single #
loop $-1 $-1 $368 $148 #
plane-surface $-1 21.188324357271782 -13.591596241815779 192.01776308704504 0 1 0 0.51503808176128008 0 0.85716729658548041 forward_v I I I I #
coedge $-1 $369 $370 $371 $372 reversed $149 $-1 #
coedge $-1 $241 $151 $373 $374 reversed $95 $-1 #
coedge $-1 $151 $240 $369 $375 reversed $95 $-1 #
coedge $-1 $371 $376 $151 $243 forward $366 $-1 #
edge $-1 $377 -56.512377937944812 $378 -47.504431261537256 $242 $379 forward 7 unknown #
loop $-1 $-1 $249 $152 #
plane-surface $-1 -47.936523033288452 -10.105651349583766 76.974699937175899 0.51503808176128008 0 0.85716729658548041 0.85716729658548041 0 -0.51503808176128008 forward_v I I I I #
loop $-1 $-1 $380 $97 #
coedge $-1 $247 $247 $248 $381 reversed $153 $-1 #
coedge $-1 $248 $248 $247 $381 forward $155 $-1 #
coedge $-1 $249 $249 $156 $250 forward $244 $-1 #
edge $-1 $382 0 $382 6.2831853071796004 $249 $383 forward 7 unknown #
loop $-1 $-1 $256 $157 #
plane-surface $-1 -47.936523033288452 -10.105651349583766 76.974699937175899 0.51503808176128008 0 0.85716729658548041 0.85716729658548041 0 -0.51503808176128008 forward_v I I I I #
loop $-1 $-1 $384 $100 #
coedge $-1 $254 $254 $255 $385 reversed $158 $-1 #
coedge $-1 $255 $255 $254 $385 forward $160 $-1 #
coedge $-1 $256 $256 $161 $257 forward $251 $-1 #
edge $-1 $386 0 $386 6.2831853071796004 $256 $387 forward 7 unknown #
face $-1 $388 $389 $53 $-1 $390 reversed single #
loop $-1 $-1 $391 $162 #
plane-surface $-1 21.188324357271782 21.715425415390051 192.01776308704504 0 1 0 0.51503808176128008 0 0.85716729658548041 forward_v I I I I #
coedge $-1 $392 $393 $394 $395 reversed $163 $-1 #
coedge $-1 $263 $165 $396 $397 reversed $104 $-1 #
coedge $-1 $165 $262 $392 $398 reversed $104 $-1 #
coedge $-1 $394 $399 $165 $265 forward $400 $-1 #
edge $-1 $401 -56.512377937944812 $402 -47.504431261537256 $264 $403 forward 7 unknown #
loop $-1 $-1 $271 $166 #
plane-surface $-1 -47.936523033288452 25.201370307622064 76.974699937175899 0.51503808176128008 0 0.85716729658548041 0.85716729658548041 0 -0.51503808176128008 forward_v I I I I #
loop $-1 $-1 $404 $106 #
coedge $-1 $269 $269 $270 $405 reversed $167 $-1 #
coedge $-1 $270 $270 $269 $405 forward $169 $-1 #
coedge $-1 $271 $271 $170 $272 forward $266 $-1 #
edge $-1 $406 0 $406 6.2831853071796004 $271 $407 forward 7 unknown #
loop $-1 $-1 $278 $171 #
plane-surface $-1 -47.936523033288452 25.201370307622064 76.974699937175899 0.51503808176128008 0 0.85716729658548041 0.85716729658548041 0 -0.51503808176128008 forward_v I I I I #
loop $-1 $-1 $408 $109 #
coedge $-1 $276 $276 $277 $409 reversed $172 $-1 #
coedge $-1 $277 $277 $276 $409 forward $174 $-1 #
coedge $-1 $278 $278 $175 $279 forward $273 $-1 #
edge $-1 $410 0 $410 6.2831853071796004 $278 $411 forward 7 unknown #
face $-1 $412 $413 $42 $-1 $414 reversed single #
loop $-1 $-1 $415 $176 #
plane-surface $-1 -67.106540116580703 0 0 1 0 0 0 0 -1 forward_v I I I I #
coedge $-1 $416 $291 $417 $418 forward $177 $-1 #
coedge $-1 $419 $179 $416 $420 forward $113 $-1 #
coedge $-1 $179 $419 $421 $422 forward $113 $-1 #
coedge $-1 $294 $293 $179 $287 reversed $295 $-1 #
edge $-1 $423 -32.167598954958386 $424 32.167598954958386 $286 $425 forward 7 unknown #
coedge $-1 $181 $180 $426 $427 forward $71 $-1 #
coedge $-1 $428 $429 $180 $290 reversed $413 $-1 #
edge $-1 $297 -67.106540116580703 $430 67.106540116580703 $289 $431 forward 7 unknown #
coedge $-1 $283 $432 $181 $292 reversed $177 $-1 #
edge $-1 $433 -67.106540116580703 $296 67.106540116580703 $291 $434 forward 7 unknown #
coedge $-1 $286 $182 $432 $435 forward $295 $-1 #
coedge $-1 $182 $286 $428 $436 reversed $295 $-1 #
loop $-1 $-1 $293 $412 #
vertex $-1 $183 $437 #
vertex $-1 $183 $438 #
straight-curve $-1 67.106540116580703 0 13.262373060762666 0 1 0 I I #
face $-1 $439 $440 $43 $-1 $441 reversed single #
loop $-1 $-1 $442 $184 #
plane-surface $-1 -67.106540116580703 0 0 1 0 0 0 0 -1 forward_v I I I I #
coedge $-1 $310 $443 $304 $444 forward $185 $-1 #
coedge $-1 $190 $187 $445 $446 reversed $117 $-1 #
coedge $-1 $187 $190 $302 $444 reversed $117 $-1 #
coedge $-1 $447 $448 $187 $306 forward $449 $-1 #
edge $-1 $450 -13.262373060762666 $451 13.262373060762666 $305 $452 forward 7 unknown #
coedge $-1 $189 $188 $442 $453 reversed $74 $-1 #
coedge $-1 $445 $454 $188 $309 forward $440 $-1 #
edge $-1 $455 -34.303270058290352 $313 -31.303270058290352 $308 $456 forward 7 unknown #
coedge $-1 $457 $302 $189 $311 forward $185 $-1 #
edge $-1 $312 31.303270058290352 $458 34.303270058290352 $310 $459 forward 7 unknown #
vertex $-1 $311 $460 #
vertex $-1 $309 $461 #
straight-curve $-1 -64.106540116580703 -17.071879996920089 0 0 0 -1 I I #
face $-1 $-1 $327 $44 $-1 $462 forward single #
loop $-1 $-1 $463 $192 #
plane-surface $-1 -67.106540116580703 0 0 1 0 0 0 0 -1 forward_v I I I I #
coedge $-1 $464 $465 $466 $467 reversed $193 $-1 #
coedge $-1 $468 $195 $197 $325 forward $121 $-1 #
coedge $-1 $195 $468 $464 $469 forward $121 $-1 #
coedge $-1 $466 $198 $195 $322 forward $327 $-1 #
edge $-1 $329 -5.4356532773698625 $470 6.8437907451360509 $321 $471 forward 7 unknown #
coedge $-1 $472 $473 $196 $324 forward $316 $-1 #
edge $-1 $474 -54.015027879015278 $328 -48.954535543227522 $323 $475 forward 7 unknown #
edge $-1 $329 -10.120984535979918 $474 -1.6747853295891438e-014 $197 $476 forward 7 unknown #
coedge $-1 $198 $466 $472 $477 forward $327 $-1 #
loop $-1 $-1 $466 $315 #
vertex $-1 $324 $478 #
vertex $-1 $199 $479 #
straight-curve $-1 -67.106540566109729 -4.7315845434867683 13.26237306076267 1 0 0 I I #
coedge $-1 $331 $331 $-1 $480 reversed $202 $-1 #
edge $-1 $481 0 $481 6.2831853071796004 $203 $482 forward 7 unknown #
vertex $-1 $206 $483 #
ellipse-curve $-1 -62.724025276418217 -1.2231719656279338 10.732126892868786 -0.50000000669873634 0 0.8660253999169214 0.8660253999169214 0 0.50000000669873634 1 I I #
coedge $-1 $335 $335 $-1 $484 reversed $209 $-1 #
edge $-1 $485 0 $485 6.2831853071796004 $210 $486 forward 7 unknown #
vertex $-1 $213 $487 #
ellipse-curve $-1 -62.724025276418217 4.0394469011603178 10.732126892868786 -0.50000000669873634 0 0.8660253999169214 0.8660253999169214 0 0.50000000669873634 1 I I #
face $-1 $-1 $488 $47 $-1 $489 forward single #
loop $-1 $-1 $352 $214 #
plane-surface $-1 -134.21308113221946 7.5478594790191451 124.43381720798037 0 -1 0 0.50000000669873634 0 -0.8660253999169214 forward_v I I I I #
coedge $-1 $348 $490 $344 $491 forward $215 $-1 #
coedge $-1 $344 $217 $347 $492 reversed $135 $-1 #
coedge $-1 $217 $343 $342 $491 reversed $135 $-1 #
coedge $-1 $493 $350 $217 $346 forward $488 $-1 #
edge $-1 $494 -8.7650301298539972 $495 -4.4952902555905894e-007 $345 $496 forward 7 unknown #
coedge $-1 $219 $218 $343 $492 forward $86 $-1 #
coedge $-1 $497 $342 $218 $349 forward $215 $-1 #
edge $-1 $498 -19.123234767641964 $354 -6.8437907451360509 $348 $499 forward 7 unknown #
coedge $-1 $345 $500 $219 $351 forward $488 $-1 #
edge $-1 $355 6.8437907451360509 $494 19.123234767641964 $350 $501 forward 7 unknown #
coedge $-1 $353 $220 $500 $502 reversed $340 $-1 #
coedge $-1 $220 $352 $497 $503 reversed $340 $-1 #
vertex $-1 $349 $504 #
vertex $-1 $351 $505 #
straight-curve $-1 -67.106540116580717 7.5478594790191451 8.2018807249748988 0.8660253999169214 0 0.50000000669873634 I I #
coedge $-1 $357 $357 $-1 $506 reversed $224 $-1 #
edge $-1 $507 0 $507 6.2831853071796004 $225 $508 forward 7 unknown #
vertex $-1 $228 $509 #
ellipse-curve $-1 -62.724025276418217 11.05627205687798 10.732126892868786 -0.50000000669873634 0 0.8660253999169214 0.8660253999169214 0 0.50000000669873634 1 I I #
coedge $-1 $361 $361 $-1 $510 reversed $231 $-1 #
edge $-1 $511 0 $511 6.2831853071796004 $232 $512 forward 7 unknown #
vertex $-1 $235 $513 #
ellipse-curve $-1 -62.724025276418217 16.318890923666231 10.732126892868786 -0.50000000669873634 0 0.8660253999169214 0.8660253999169214 0 0.50000000669873634 1 I I #
face $-1 $-1 $514 $50 $-1 $515 reversed single #
loop $-1 $-1 $242 $236 #
plane-surface $-1 0 0 13.262373060762666 0 0 1 1 0 0 forward_v I I I I #
coedge $-1 $516 $517 $518 $519 reversed $237 $-1 #
coedge $-1 $520 $239 $241 $375 forward $149 $-1 #
coedge $-1 $239 $520 $516 $521 forward $149 $-1 #
coedge $-1 $518 $242 $239 $372 forward $366 $-1 #
edge $-1 $378 1.5668807825598705 $522 8.5387705670238958 $371 $523 forward 7 unknown #
coedge $-1 $524 $525 $240 $374 forward $514 $-1 #
edge $-1 $526 -88.159028996906869 $377 -82.74650848275985 $373 $527 forward 7 unknown #
edge $-1 $378 123.70410874965914 $526 134.21308023316143 $241 $528 forward 7 unknown #
coedge $-1 $242 $518 $524 $529 forward $366 $-1 #
vertex $-1 $243 $530 #
vertex $-1 $243 $531 #
straight-curve $-1 10.594162178635891 -6.6197064573517537 13.26237306076267 -1 0 0 I I #
coedge $-1 $380 $380 $-1 $532 reversed $246 $-1 #
edge $-1 $533 0 $533 6.2831853071796004 $247 $534 forward 7 unknown #
vertex $-1 $250 $535 #
ellipse-curve $-1 62.602566778376925 -11.599627731968916 10.556112803689157 0.51503808176128008 0 0.85716729658548041 0.4285836482927402 0 -0.25751904088064004 1 I I #
coedge $-1 $384 $384 $-1 $536 reversed $253 $-1 #
edge $-1 $537 0 $537 6.2831853071796004 $254 $538 forward 7 unknown #
vertex $-1 $257 $539 #
ellipse-curve $-1 62.602566778376925 -8.6116749671986206 10.556112803689157 0.51503808176128008 0 0.85716729658548041 0.4285836482927402 0 -0.25751904088064004 1 I I #
face $-1 $-1 $400 $53 $-1 $540 forward single #
loop $-1 $-1 $541 $258 #
plane-surface $-1 67.106540116580703 0 0 -1 0 0 0 0 1 forward_v I I I I #
coedge $-1 $542 $543 $544 $545 reversed $259 $-1 #
coedge $-1 $546 $261 $263 $398 forward $163 $-1 #
coedge $-1 $261 $546 $542 $547 forward $163 $-1 #
coedge $-1 $544 $264 $261 $395 forward $400 $-1 #
edge $-1 $402 -16.086630046043044 $548 -9.1147402615790192 $394 $549 forward 7 unknown #
coedge $-1 $550 $551 $262 $397 forward $389 $-1 #
edge $-1 $552 -88.159028996906869 $401 -82.74650848275985 $396 $553 forward 7 unknown #
edge $-1 $402 123.70410874965914 $552 134.21308023316143 $263 $554 forward 7 unknown #
coedge $-1 $264 $544 $550 $555 forward $400 $-1 #
loop $-1 $-1 $544 $388 #
vertex $-1 $397 $556 #
vertex $-1 $265 $557 #
straight-curve $-1 10.594162178635891 28.687315199854076 13.26237306076267 -1 0 0 I I #
coedge $-1 $404 $404 $-1 $558 reversed $268 $-1 #
edge $-1 $559 0 $559 6.2831853071796004 $269 $560 forward 7 unknown #
vertex $-1 $272 $561 #
ellipse-curve $-1 62.602566778376925 23.707393925236914 10.556112803689157 0.51503808176128008 0 0.85716729658548041 0.4285836482927402 0 -0.25751904088064004 1 I I #
coedge $-1 $408 $408 $-1 $562 reversed $275 $-1 #
edge $-1 $563 0 $563 6.2831853071796004 $276 $564 forward 7 unknown #
vertex $-1 $279 $565 #
ellipse-curve $-1 62.602566778376925 26.695346690007206 10.556112803689157 0.51503808176128008 0 0.85716729658548041 0.4285836482927402 0 -0.25751904088064004 1 I I #
face $-1 $-1 $295 $42 $-1 $566 reversed single #
loop $-1 $-1 $428 $280 #
plane-surface $-1 0 32.167598954958386 0 0 -1 0 0 0 -1 forward_v I I I I #
coedge $-1 $567 $426 $429 $568 forward $281 $-1 #
coedge $-1 $432 $283 $284 $420 reversed $177 $-1 #
coedge $-1 $426 $567 $283 $418 reversed $281 $-1 #
edge $-1 $433 -13.262373060762666 $569 13.262373060762666 $417 $570 forward 7 unknown #
coedge $-1 $285 $284 $567 $571 forward $113 $-1 #
edge $-1 $424 -67.106540116580703 $569 67.106540116580703 $416 $572 forward 7 unknown #
coedge $-1 $429 $428 $285 $422 reversed $413 $-1 #
edge $-1 $573 -67.106540116580703 $423 67.106540116580703 $421 $574 forward 7 unknown #
vertex $-1 $287 $575 #
vertex $-1 $435 $576 #
straight-curve $-1 67.106540116580703 0 -13.262373060762666 0 -1 0 I I #
coedge $-1 $415 $417 $288 $427 reversed $281 $-1 #
edge $-1 $430 -32.167598954958386 $433 32.167598954958386 $426 $577 forward 7 unknown #
coedge $-1 $421 $289 $294 $436 forward $413 $-1 #
coedge $-1 $289 $421 $415 $568 reversed $413 $-1 #
vertex $-1 $290 $578 #
straight-curve $-1 0 32.167598954958386 13.262373060762666 -1 0 0 I I #
coedge $-1 $291 $416 $293 $435 reversed $177 $-1 #
vertex $-1 $427 $579 #
straight-curve $-1 0 -32.167598954958386 13.262373060762666 1 0 0 I I #
edge $-1 $296 -13.262373060762666 $424 13.262373060762666 $293 $580 forward 7 unknown #
edge $-1 $297 -13.262373060762666 $423 13.262373060762666 $294 $581 forward 7 unknown #
point $-1 67.106540116580703 -32.167598954958386 13.262373060762666 #
point $-1 67.106540116580703 32.167598954958386 13.262373060762666 #
face $-1 $-1 $449 $43 $-1 $582 reversed single #
loop $-1 $-1 $445 $299 #
plane-surface $-1 0 0 -13.262373060762666 0 0 1 1 0 0 forward_v I I I I #
coedge $-1 $583 $584 $307 $453 forward $300 $-1 #
coedge $-1 $302 $457 $447 $585 forward $185 $-1 #
edge $-1 $451 -19.857729216988766 $312 -4.76201025895047 $302 $586 forward 7 unknown #
coedge $-1 $587 $308 $303 $446 forward $440 $-1 #
edge $-1 $313 4.76201025895047 $450 19.857729216988766 $445 $588 forward 7 unknown #
coedge $-1 $589 $305 $443 $585 reversed $449 $-1 #
coedge $-1 $305 $589 $587 $590 reversed $449 $-1 #
loop $-1 $-1 $305 $439 #
vertex $-1 $590 $591 #
vertex $-1 $306 $592 #
straight-curve $-1 -64.106540116580703 -32.167598954958386 0 0 0 1 I I #
edge $-1 $458 -13.262373060762666 $455 13.262373060762666 $442 $593 forward 7 unknown #
coedge $-1 $308 $587 $583 $594 forward $440 $-1 #
vertex $-1 $309 $595 #
straight-curve $-1 -32.803270058290352 -17.071879996920089 -13.262373060762666 1 0 0 I I #
coedge $-1 $443 $310 $584 $596 forward $185 $-1 #
vertex $-1 $596 $597 #
straight-curve $-1 -32.803270058290352 -17.071879996920089 13.262373060762666 -1 0 0 I I #
point $-1 -64.106540116580703 -17.071879996920089 13.262373060762666 #
point $-1 -64.106540116580703 -17.071879996920089 -13.262373060762666 #
plane-surface $-1 0 0 13.262373060762666 0 0 1 1 0 0 forward_v I I I I #
coedge $-1 $473 $472 $465 $598 forward $316 $-1 #
coedge $-1 $465 $318 $320 $469 reversed $193 $-1 #
coedge $-1 $318 $464 $463 $598 reversed $193 $-1 #
coedge $-1 $326 $321 $318 $467 forward $327 $-1 #
edge $-1 $470 -8.7650301298539972 $599 -4.4952902555905894e-007 $466 $600 forward 7 unknown #
coedge $-1 $320 $319 $473 $601 reversed $121 $-1 #
edge $-1 $602 1.6747853295891438e-014 $470 10.120984535979918 $464 $603 forward 7 unknown #
vertex $-1 $322 $604 #
straight-curve $-1 -58.341510436255732 0.70406873388309421 13.262373060762666 0 1 0 I I #
coedge $-1 $463 $323 $326 $477 reversed $316 $-1 #
coedge $-1 $323 $463 $468 $601 forward $316 $-1 #
vertex $-1 $324 $605 #
straight-curve $-1 -67.106540116580703 -4.7315845434867683 62.216908603990184 0 0 1 I I #
straight-curve $-1 -67.106540116580717 -4.7315845434867683 8.2018807249748988 -0.8660253999169214 0 -0.50000000669873634 I I #
edge $-1 $599 -7.5478594790191451 $328 4.7315845434867683 $472 $606 forward 7 unknown #
point $-1 -67.106540116580703 -4.7315845434867683 13.262373060762666 #
point $-1 -58.341510436255732 -4.7315845434867683 13.262373060762666 #
edge $-1 $607 1 $607 0 $331 $-1 forward 7 unknown #
vertex $-1 $332 $608 #
ellipse-curve $-1 -61.924135132335827 -1.2231719656279338 9.346676547593205 -0.50000000669873634 0 0.8660253999169214 0.8660253999169214 0 0.50000000669873634 1 I I #
point $-1 -61.857999876501296 -1.2231719656279338 11.232126899567524 #
edge $-1 $609 1 $609 0 $335 $-1 forward 7 unknown #
vertex $-1 $336 $610 #
ellipse-curve $-1 -61.924135132335827 4.0394469011603178 9.346676547593205 -0.50000000669873634 0 0.8660253999169214 0.8660253999169214 0 0.50000000669873634 1 I I #
point $-1 -61.857999876501296 4.0394469011603178 11.232126899567524 #
loop $-1 $-1 $345 $339 #
plane-surface $-1 0 0 13.262373060762666 0 0 1 1 0 0 forward_v I I I I #
coedge $-1 $342 $497 $493 $611 reversed $215 $-1 #
edge $-1 $495 48.954535543227522 $498 54.015027879015278 $342 $612 forward 7 unknown #
edge $-1 $498 1.6747853295891438e-014 $494 10.120984535979918 $343 $613 forward 7 unknown #
coedge $-1 $500 $345 $490 $611 forward $488 $-1 #
vertex $-1 $346 $614 #
vertex $-1 $611 $615 #
straight-curve $-1 -67.106540566109729 19.827303501525058 13.26237306076267 -1 0 0 I I #
coedge $-1 $490 $348 $353 $503 forward $215 $-1 #
vertex $-1 $491 $616 #
straight-curve $-1 -67.106540116580703 0.70406873388309421 8.2018807249749059 0 -1 0 I I #
coedge $-1 $350 $493 $352 $502 forward $488 $-1 #
straight-curve $-1 -58.341510436255732 0.70406873388309421 13.262373060762666 0 1 0 I I #
edge $-1 $617 4.4952902555905894e-007 $355 8.7650301298539972 $500 $618 forward 7 unknown #
edge $-1 $354 -54.015027879015278 $617 -48.954535543227522 $497 $619 forward 7 unknown #
point $-1 -67.106540116580703 7.5478594790191451 8.2018807249749077 #
point $-1 -58.341510436255732 7.5478594790191451 13.262373060762666 #
edge $-1 $620 1 $620 0 $357 $-1 forward 7 unknown #
vertex $-1 $358 $621 #
ellipse-curve $-1 -61.924135132335827 11.05627205687798 9.346676547593205 -0.50000000669873634 0 0.8660253999169214 0.8660253999169214 0 0.50000000669873634 1 I I #
point $-1 -61.857999876501296 11.05627205687798 11.232126899567524 #
edge $-1 $622 1 $622 0 $361 $-1 forward 7 unknown #
vertex $-1 $362 $623 #
ellipse-curve $-1 -61.924135132335827 16.318890923666231 9.346676547593205 -0.50000000669873634 0 0.8660253999169214 0.8660253999169214 0 0.50000000669873634 1 I I #
point $-1 -61.857999876501296 16.318890923666231 11.232126899567524 #
loop $-1 $-1 $373 $365 #
plane-surface $-1 67.106540116580703 0 0 -1 0 0 0 0 1 forward_v I I I I #
coedge $-1 $517 $368 $370 $521 reversed $237 $-1 #
coedge $-1 $368 $516 $624 $625 reversed $237 $-1 #
coedge $-1 $376 $371 $368 $519 forward $366 $-1 #
edge $-1 $522 47.504431261537256 $626 56.512377937944812 $518 $627 forward 7 unknown #
coedge $-1 $370 $369 $525 $628 reversed $149 $-1 #
edge $-1 $629 -134.21308023316143 $522 -123.70410874965914 $516 $630 forward 7 unknown #
vertex $-1 $372 $631 #
straight-curve $-1 58.098593440173161 -5.0528256747918832 13.26237306076267 0 -1 0 I I #
coedge $-1 $624 $373 $376 $529 reversed $514 $-1 #
coedge $-1 $373 $624 $520 $628 forward $514 $-1 #
vertex $-1 $374 $632 #
straight-curve $-1 67.106540116580703 -6.6197064573517537 96.00888154352252 0 0 1 I I #
straight-curve $-1 -47.936523033288452 -6.6197064573517537 76.974699937175899 0.85716729658548041 0 -0.51503808176128008 I I #
edge $-1 $626 -13.591596241815779 $377 -6.6197064573517537 $524 $633 forward 7 unknown #
point $-1 67.106540116580703 -6.6197064573517537 13.262373060762666 #
point $-1 58.098593440173147 -6.6197064573517537 13.26237306076267 #
edge $-1 $634 1 $634 0 $380 $-1 forward 7 unknown #
vertex $-1 $381 $635 #
ellipse-curve $-1 62.087528696615657 -11.599627731968916 9.698945507103689 0.51503808176128008 0 0.85716729658548041 0.4285836482927402 0 -0.25751904088064004 1 I I #
point $-1 63.031150426669676 -11.599627731968916 10.29859376280853 #
edge $-1 $636 1 $636 0 $384 $-1 forward 7 unknown #
vertex $-1 $385 $637 #
ellipse-curve $-1 62.087528696615657 -8.6116749671986206 9.698945507103689 0.51503808176128008 0 0.85716729658548041 0.4285836482927402 0 -0.25751904088064004 1 I I #
point $-1 63.031150426669676 -8.6116749671986206 10.29859376280853 #
plane-surface $-1 0 0 13.262373060762666 0 0 1 1 0 0 forward_v I I I I #
coedge $-1 $551 $550 $543 $638 forward $389 $-1 #
coedge $-1 $543 $391 $393 $547 reversed $259 $-1 #
coedge $-1 $391 $542 $541 $638 reversed $259 $-1 #
coedge $-1 $399 $394 $391 $545 forward $400 $-1 #
edge $-1 $548 47.504431261537256 $639 56.512377937944812 $544 $640 forward 7 unknown #
coedge $-1 $393 $392 $551 $641 reversed $163 $-1 #
edge $-1 $642 -134.21308023316143 $548 -123.70410874965914 $542 $643 forward 7 unknown #
vertex $-1 $395 $644 #
straight-curve $-1 58.098593440173161 12.600685153811032 13.26237306076267 0 -1 0 I I #
coedge $-1 $541 $396 $399 $555 reversed $389 $-1 #
coedge $-1 $396 $541 $546 $641 forward $389 $-1 #
vertex $-1 $397 $645 #
straight-curve $-1 67.106540116580703 28.687315199854076 96.00888154352252 0 0 1 I I #
straight-curve $-1 -47.936523033288452 28.687315199854076 76.974699937175899 0.85716729658548041 0 -0.51503808176128008 I I #
edge $-1 $639 21.715425415390051 $401 28.687315199854076 $550 $646 forward 7 unknown #
point $-1 67.106540116580703 28.687315199854076 13.262373060762666 #
point $-1 58.098593440173147 28.687315199854076 13.26237306076267 #
edge $-1 $647 1 $647 0 $404 $-1 forward 7 unknown #
vertex $-1 $405 $648 #
ellipse-curve $-1 62.087528696615657 23.707393925236914 9.698945507103689 0.51503808176128008 0 0.85716729658548041 0.4285836482927402 0 -0.25751904088064004 1 I I #
point $-1 63.031150426669676 23.707393925236914 10.29859376280853 #
edge $-1 $649 1 $649 0 $408 $-1 forward 7 unknown #
vertex $-1 $409 $650 #
ellipse-curve $-1 62.087528696615657 26.695346690007206 9.698945507103689 0.51503808176128008 0 0.85716729658548041 0.4285836482927402 0 -0.25751904088064004 1 I I #
point $-1 63.031150426669676 26.695346690007206 10.29859376280853 #
plane-surface $-1 67.106540116580703 0 0 -1 0 0 0 0 1 forward_v I I I I #
coedge $-1 $417 $415 $419 $571 reversed $281 $-1 #
edge $-1 $430 -13.262373060762666 $573 13.262373060762666 $429 $651 forward 7 unknown #
vertex $-1 $571 $652 #
straight-curve $-1 -67.106540116580703 -32.167598954958386 0 0 0 -1 I I #
edge $-1 $569 -32.167598954958386 $573 32.167598954958386 $567 $653 forward 7 unknown #
straight-curve $-1 0 -32.167598954958386 -13.262373060762666 -1 0 0 I I #
vertex $-1 $422 $654 #
straight-curve $-1 0 32.167598954958386 -13.262373060762666 1 0 0 I I #
point $-1 67.106540116580703 32.167598954958386 -13.262373060762666 #
point $-1 67.106540116580703 -32.167598954958386 -13.262373060762666 #
straight-curve $-1 -67.106540116580703 0 13.262373060762666 0 -1 0 I I #
point $-1 -67.106540116580703 32.167598954958386 13.262373060762666 #
point $-1 -67.106540116580703 -32.167598954958386 13.262373060762666 #
straight-curve $-1 67.106540116580703 -32.167598954958386 0 0 0 -1 I I #
straight-curve $-1 67.106540116580703 32.167598954958386 0 0 0 -1 I I #
plane-surface $-1 0 -32.167598954958386 0 0 1 0 0 0 1 forward_v I I I I #
coedge $-1 $655 $442 $454 $594 reversed $300 $-1 #
coedge $-1 $442 $655 $457 $596 reversed $300 $-1 #
edge $-1 $656 -67.106540116580703 $451 -64.106540116580703 $447 $657 forward 7 unknown #
straight-curve $-1 -64.106540116580703 -12.309869737969619 13.262373060762666 0 1 0 I I #
coedge $-1 $454 $445 $448 $590 forward $440 $-1 #
straight-curve $-1 -64.106540116580703 -12.309869737969619 -13.262373060762666 0 -1 0 I I #
coedge $-1 $448 $447 $655 $658 forward $449 $-1 #
edge $-1 $450 64.106540116580703 $659 67.106540116580703 $448 $660 forward 7 unknown #
point $-1 -64.106540116580703 -32.167598954958386 -13.262373060762666 #
point $-1 -64.106540116580703 -32.167598954958386 13.262373060762666 #
straight-curve $-1 -67.106540116580703 -17.071879996920089 0 0 0 -1 I I #
edge $-1 $659 -32.167598954958386 $455 -17.071879996920089 $583 $661 forward 7 unknown #
point $-1 -67.106540116580703 -17.071879996920089 -13.262373060762666 #
edge $-1 $458 17.071879996920089 $656 32.167598954958386 $584 $662 forward 7 unknown #
point $-1 -67.106540116580703 -17.071879996920089 13.262373060762666 #
edge $-1 $599 48.954535543227522 $602 54.015027879015278 $463 $663 forward 7 unknown #
vertex $-1 $477 $664 #
straight-curve $-1 -67.106540566109729 7.5478594790191451 13.26237306076267 -1 0 0 I I #
edge $-1 $602 -6.8437907451360509 $474 5.4356532773698625 $473 $665 forward 7 unknown #
vertex $-1 $601 $666 #
straight-curve $-1 -67.106540116580717 7.5478594790191451 8.2018807249748988 0.8660253999169214 0 0.50000000669873634 I I #
point $-1 -58.341510436255732 7.5478594790191451 13.262373060762666 #
point $-1 -67.106540116580703 -4.7315845434867683 8.2018807249749077 #
straight-curve $-1 -67.106540116580703 0 13.262373060762666 0 -1 0 I I #
vertex $-1 $480 $667 #
point $-1 -61.058109732418906 -1.2231719656279338 9.8466765542919408 #
vertex $-1 $484 $668 #
point $-1 -61.058109732418906 4.0394469011603178 9.8466765542919408 #
edge $-1 $495 -19.827303501525058 $617 -7.5478594790191451 $490 $669 forward 7 unknown #
straight-curve $-1 -67.106540116580703 19.827303501525058 62.216908603990184 0 0 -1 I I #
straight-curve $-1 -67.106540116580717 19.827303501525058 8.2018807249748988 0.8660253999169214 0 0.50000000669873634 I I #
point $-1 -58.341510436255732 19.827303501525058 13.262373060762666 #
point $-1 -67.106540116580703 19.827303501525058 13.262373060762666 #
point $-1 -67.106540116580703 19.827303501525058 8.2018807249749077 #
vertex $-1 $503 $670 #
straight-curve $-1 -67.106540566109729 7.5478594790191451 13.26237306076267 1 0 0 I I #
straight-curve $-1 -67.106540116580703 7.5478594790191451 62.216908603990184 0 0 1 I I #
vertex $-1 $506 $671 #
point $-1 -61.058109732418906 11.05627205687798 9.8466765542919408 #
vertex $-1 $510 $672 #
point $-1 -61.058109732418906 16.318890923666231 9.8466765542919408 #
coedge $-1 $525 $524 $517 $625 forward $514 $-1 #
edge $-1 $626 82.74650848275985 $629 88.159028996906869 $624 $673 forward 7 unknown #
vertex $-1 $529 $674 #
straight-curve $-1 10.594162178635891 -13.591596241815779 13.26237306076267 1 0 0 I I #
edge $-1 $629 -8.5387705670238958 $526 -1.5668807825598705 $525 $675 forward 7 unknown #
vertex $-1 $628 $676 #
straight-curve $-1 -47.936523033288452 -13.591596241815779 76.974699937175899 -0.85716729658548041 0 0.51503808176128008 I I #
point $-1 58.098593440173147 -13.591596241815779 13.26237306076267 #
point $-1 67.106540116580717 -6.6197064573517537 7.8498525466156508 #
straight-curve $-1 67.106540116580703 0 13.262373060762666 0 1 0 I I #
vertex $-1 $532 $677 #
point $-1 62.5161123449084 -11.599627731968916 9.4414264662230494 #
vertex $-1 $536 $678 #
point $-1 62.5161123449084 -8.6116749671986206 9.4414264662230494 #
edge $-1 $639 82.74650848275985 $642 88.159028996906869 $541 $679 forward 7 unknown #
vertex $-1 $555 $680 #
straight-curve $-1 10.594162178635891 21.715425415390051 13.26237306076267 1 0 0 I I #
edge $-1 $642 9.1147402615790192 $552 16.086630046043044 $551 $681 forward 7 unknown #
vertex $-1 $641 $682 #
straight-curve $-1 -47.936523033288452 21.715425415390051 76.974699937175899 -0.85716729658548041 0 0.51503808176128008 I I #
point $-1 58.098593440173147 21.715425415390051 13.26237306076267 #
point $-1 67.106540116580717 28.687315199854076 7.8498525466156508 #
straight-curve $-1 67.106540116580703 0 13.262373060762666 0 1 0 I I #
vertex $-1 $558 $683 #
point $-1 62.5161123449084 23.707393925236914 9.4414264662230494 #
vertex $-1 $562 $684 #
point $-1 62.5161123449084 26.695346690007206 9.4414264662230494 #
straight-curve $-1 -67.106540116580703 32.167598954958386 0 0 0 -1 I I #
point $-1 -67.106540116580703 -32.167598954958386 -13.262373060762666 #
straight-curve $-1 -67.106540116580703 0 -13.262373060762666 0 1 0 I I #
point $-1 -67.106540116580703 32.167598954958386 -13.262373060762666 #
coedge $-1 $584 $583 $589 $658 reversed $300 $-1 #
vertex $-1 $596 $685 #
straight-curve $-1 0 -32.167598954958386 13.262373060762666 1 0 0 I I #
edge $-1 $656 -13.262373060762666 $659 13.262373060762666 $655 $686 forward 7 unknown #
vertex $-1 $594 $687 #
straight-curve $-1 0 -32.167598954958386 -13.262373060762666 -1 0 0 I I #
straight-curve $-1 -67.106540116580703 0 -13.262373060762666 0 1 0 I I #
straight-curve $-1 -67.106540116580703 0 13.262373060762666 0 -1 0 I I #
straight-curve $-1 -67.106540116580703 7.5478594790191451 62.216908603990184 0 0 -1 I I #
point $-1 -67.106540116580703 7.5478594790191451 13.262373060762666 #
straight-curve $-1 -67.106540116580703 0.70406873388309421 8.2018807249749059 0 -1 0 I I #
point $-1 -67.106540116580703 7.5478594790191451 8.2018807249749077 #
point $-1 -61.424135125637086 -1.2231719656279338 8.4806511476762836 #
point $-1 -61.424135125637086 4.0394469011603178 8.4806511476762836 #
straight-curve $-1 -67.106540116580703 0 13.262373060762666 0 -1 0 I I #
point $-1 -67.106540116580703 7.5478594790191451 13.262373060762666 #
point $-1 -61.424135125637086 11.05627205687798 8.4806511476762836 #
point $-1 -61.424135125637086 16.318890923666231 8.4806511476762836 #
straight-curve $-1 67.106540116580703 -13.591596241815779 96.00888154352252 0 0 -1 I I #
point $-1 67.106540116580703 -13.591596241815779 13.262373060762666 #
straight-curve $-1 67.106540116580703 -5.0528256747918832 7.849852546615665 0 1 0 I I #
point $-1 67.106540116580717 -13.591596241815779 7.8498525466156508 #
point $-1 61.830009655735019 -11.599627731968916 9.2703618588109489 #
point $-1 61.830009655735019 -8.6116749671986206 9.2703618588109489 #
straight-curve $-1 67.106540116580703 21.715425415390051 96.00888154352252 0 0 -1 I I #
point $-1 67.106540116580703 21.715425415390051 13.262373060762666 #
straight-curve $-1 67.106540116580703 12.600685153811032 7.849852546615665 0 1 0 I I #
point $-1 67.106540116580717 21.715425415390051 7.8498525466156508 #
point $-1 61.830009655735019 23.707393925236914 9.2703618588109489 #
point $-1 61.830009655735019 26.695346690007206 9.2703618588109489 #
point $-1 -67.106540116580703 -32.167598954958386 13.262373060762666 #
straight-curve $-1 -67.106540116580703 -32.167598954958386 0 0 0 -1 I I #
point $-1 -67.106540116580703 -32.167598954958386 -13.262373060762666 #
End-of-ACIS-data 