500 0 17 0           
7 Unknown 11 ACIS 5.0 NT 24 Fri Mar 26 19:28:45 1999 
-1 9.9999999999999995e-007 1e-010 
body $-1 $17 $-1 $18 #
body $-1 $19 $-1 $20 #
body $-1 $21 $-1 $22 #
body $-1 $23 $-1 $24 #
body $-1 $25 $-1 $26 #
body $-1 $27 $-1 $28 #
body $-1 $29 $-1 $30 #
body $-1 $31 $-1 $32 #
body $-1 $33 $-1 $34 #
body $-1 $35 $-1 $36 #
body $-1 $37 $-1 $38 #
body $-1 $39 $-1 $40 #
body $-1 $41 $-1 $42 #
body $-1 $43 $-1 $44 #
body $-1 $45 $-1 $46 #
body $-1 $47 $-1 $48 #
body $-1 $49 $-1 $50 #
lump $-1 $-1 $51 $0 #
transform $-1 1 0 0 0 1 0 0 0 1 40.856959746085998 23.462421169291552 7.5778314534321884 1 rotate no_reflect no_shear #
lump $-1 $-1 $52 $1 #
transform $-1 1 0 0 0 1 0 0 0 1 40.856959746085998 23.462421169291552 7.5778314534321884 1 rotate no_reflect no_shear #
lump $-1 $-1 $53 $2 #
transform $-1 1 0 0 0 1 0 0 0 1 40.856959746085998 23.462421169291552 7.5778314534321884 1 rotate no_reflect no_shear #
lump $-1 $-1 $54 $3 #
transform $-1 1 0 0 0 1 0 0 0 1 40.856959746085998 23.462421169291552 7.5778314534321884 1 rotate no_reflect no_shear #
lump $-1 $-1 $55 $4 #
transform $-1 1 0 0 0 1 0 0 0 1 40.856959746085998 23.462421169291552 7.5778314534321884 1 rotate no_reflect no_shear #
lump $-1 $-1 $56 $5 #
transform $-1 1 0 0 0 1 0 0 0 1 40.856959746085998 23.462421169291552 7.5778314534321884 1 rotate no_reflect no_shear #
lump $-1 $-1 $57 $6 #
transform $-1 1 0 0 0 1 0 0 0 1 40.856959746085998 23.462421169291552 7.5778314534321884 1 rotate no_reflect no_shear #
lump $-1 $-1 $58 $7 #
transform $-1 1 0 0 0 1 0 0 0 1 40.856959746085998 23.462421169291552 7.5778314534321884 1 rotate no_reflect no_shear #
lump $-1 $-1 $59 $8 #
transform $-1 1 0 0 0 1 0 0 0 1 40.856959746085998 23.462421169291552 7.5778314534321884 1 rotate no_reflect no_shear #
lump $-1 $-1 $60 $9 #
transform $-1 1 0 0 0 1 0 0 0 1 40.856959746085998 23.462421169291552 7.5778314534321884 1 rotate no_reflect no_shear #
lump $-1 $-1 $61 $10 #
transform $-1 1 0 0 0 1 0 0 0 1 40.856959746085998 23.462421169291552 7.5778314534321884 1 rotate no_reflect no_shear #
lump $-1 $-1 $62 $11 #
transform $-1 1 0 0 0 1 0 0 0 1 40.856959746085998 23.462421169291552 7.5778314534321884 1 rotate no_reflect no_shear #
lump $-1 $-1 $63 $12 #
transform $-1 1 0 0 0 1 0 0 0 1 40.856959746085998 23.462421169291552 7.5778314534321884 1 rotate no_reflect no_shear #
lump $-1 $-1 $64 $13 #
transform $-1 1 0 0 0 1 0 0 0 1 40.856959746085998 23.462421169291552 7.5778314534321884 1 rotate no_reflect no_shear #
lump $-1 $-1 $65 $14 #
transform $-1 1 0 0 0 1 0 0 0 1 40.856959746085998 23.462421169291552 7.5778314534321884 1 rotate no_reflect no_shear #
lump $-1 $-1 $66 $15 #
transform $-1 1 0 0 0 1 0 0 0 1 40.856959746085998 23.462421169291552 7.5778314534321884 1 rotate no_reflect no_shear #
lump $-1 $-1 $67 $16 #
transform $-1 1 0 0 0 1 0 0 0 1 40.856959746085998 23.462421169291552 7.5778314534321884 1 rotate no_reflect no_shear #
shell $-1 $-1 $-1 $68 $-1 $17 #
shell $-1 $-1 $-1 $69 $-1 $19 #
shell $-1 $-1 $-1 $70 $-1 $21 #
shell $-1 $-1 $-1 $71 $-1 $23 #
shell $-1 $-1 $-1 $72 $-1 $25 #
shell $-1 $-1 $-1 $73 $-1 $27 #
shell $-1 $-1 $-1 $74 $-1 $29 #
shell $-1 $-1 $-1 $75 $-1 $31 #
shell $-1 $-1 $-1 $76 $-1 $33 #
shell $-1 $-1 $-1 $77 $-1 $35 #
shell $-1 $-1 $-1 $78 $-1 $37 #
shell $-1 $-1 $-1 $79 $-1 $39 #
shell $-1 $-1 $-1 $80 $-1 $41 #
shell $-1 $-1 $-1 $81 $-1 $43 #
shell $-1 $-1 $-1 $82 $-1 $45 #
shell $-1 $-1 $-1 $83 $-1 $47 #
shell $-1 $-1 $-1 $84 $-1 $49 #
face $-1 $85 $86 $51 $-1 $87 forward single #
face $-1 $88 $89 $52 $-1 $90 forward single #
face $-1 $91 $92 $53 $-1 $93 forward single #
face $-1 $94 $95 $54 $-1 $96 reversed single #
face $-1 $97 $98 $55 $-1 $99 forward single #
face $-1 $100 $101 $56 $-1 $102 reversed single #
face $-1 $103 $104 $57 $-1 $105 forward single #
face $-1 $106 $107 $58 $-1 $108 forward single #
face $-1 $109 $110 $59 $-1 $111 reversed single #
face $-1 $112 $113 $60 $-1 $114 forward single #
face $-1 $115 $116 $61 $-1 $117 forward single #
face $-1 $118 $119 $62 $-1 $120 reversed single #
face $-1 $121 $122 $63 $-1 $123 forward single #
face $-1 $124 $125 $64 $-1 $126 forward single #
face $-1 $127 $128 $65 $-1 $129 reversed single #
face $-1 $130 $131 $66 $-1 $132 forward single #
face $-1 $133 $134 $67 $-1 $135 forward single #
face $-1 $136 $137 $51 $-1 $138 reversed single #
loop $-1 $-1 $139 $68 #
plane-surface $-1 0 0 7.5778314534321884 0 0 1 1 0 0 forward_v I I I I #
face $-1 $140 $141 $52 $-1 $142 reversed single #
loop $-1 $-1 $143 $69 #
plane-surface $-1 -36.145672511738617 0 -4.5778314534321884 0 0 1 1 0 0 forward_v I I I I #
face $-1 $144 $145 $53 $-1 $146 reversed single #
loop $-1 $-1 $147 $70 #
plane-surface $-1 36.145672511738617 0 -4.5778314534321884 0 0 1 1 0 0 forward_v I I I I #
face $-1 $148 $149 $54 $-1 $150 reversed single #
loop $-1 $-1 $151 $71 #
plane-surface $-1 31.434385277391232 30.253808503085374 97.426787079654062 -1 0 0 0 0.55919291073839883 0.82903756765294845 forward_v I I I I #
face $-1 $152 $153 $55 $-1 $154 forward single #
loop $-1 $155 $156 $72 #
cone-surface $-1 25.649525917022665 19.653874124958239 4.4082619397613421 0 -0.55919291073839883 -0.82903756765294845 1.5 0 0 1 I I 0 1 1.5 forward I I I I #
face $-1 $157 $158 $56 $-1 $159 reversed single #
loop $-1 $-1 $160 $73 #
plane-surface $-1 -31.434385277391236 -72.639086142886498 69.80603432255414 1 0 0 0 0.6018150307709319 -0.79863550430605224 forward_v I I I I #
face $-1 $161 $162 $57 $-1 $163 forward single #
loop $-1 $164 $165 $74 #
cone-surface $-1 -28.781726572195112 -20.902168840946931 5.3337953140790431 0 0.6018150307709319 -0.79863550430605224 1 0 0 1 I I 0 1 1 forward I I I I #
face $-1 $166 $167 $58 $-1 $168 forward single #
loop $-1 $169 $170 $75 #
cone-surface $-1 -24.802738514400929 -20.902168840946931 5.3337953140790431 0 0.6018150307709319 -0.79863550430605224 1 0 0 1 I I 0 1 1 forward I I I I #
face $-1 $171 $172 $59 $-1 $173 reversed single #
loop $-1 $-1 $174 $76 #
plane-surface $-1 -15.717192638695618 -72.639086142886498 69.80603432255414 1 0 0 0 0.6018150307709319 -0.79863550430605224 forward_v I I I I #
face $-1 $175 $176 $60 $-1 $177 forward single #
loop $-1 $178 $179 $77 #
cone-surface $-1 -13.064533933499494 -20.902168840946931 5.3337953140790431 0 0.6018150307709319 -0.79863550430605224 1 0 0 1 I I 0 1 1 forward I I I I #
face $-1 $180 $181 $61 $-1 $182 forward single #
loop $-1 $183 $184 $78 #
cone-surface $-1 -9.0855458757053107 -20.902168840946931 5.3337953140790431 0 0.6018150307709319 -0.79863550430605224 1 0 0 1 I I 0 1 1 forward I I I I #
face $-1 $185 $186 $62 $-1 $187 reversed single #
loop $-1 $-1 $188 $79 #
plane-surface $-1 8.8817841970012523e-016 -72.639086142886498 69.80603432255414 1 0 0 0 0.6018150307709319 -0.79863550430605224 forward_v I I I I #
face $-1 $189 $190 $63 $-1 $191 forward single #
loop $-1 $192 $193 $80 #
cone-surface $-1 2.6526587051961243 -20.902168840946931 5.3337953140790431 0 0.6018150307709319 -0.79863550430605224 1 0 0 1 I I 0 1 1 forward I I I I #
face $-1 $194 $195 $64 $-1 $196 forward single #
loop $-1 $197 $198 $81 #
cone-surface $-1 6.6316467629903073 -20.902168840946931 5.3337953140790431 0 0.6018150307709319 -0.79863550430605224 1 0 0 1 I I 0 1 1 forward I I I I #
face $-1 $199 $200 $65 $-1 $201 reversed single #
loop $-1 $-1 $202 $82 #
plane-surface $-1 15.717192638695614 -72.639086142886498 69.80603432255414 1 0 0 0 0.6018150307709319 -0.79863550430605224 forward_v I I I I #
face $-1 $203 $204 $66 $-1 $205 forward single #
loop $-1 $206 $207 $83 #
cone-surface $-1 18.369851343891746 -20.902168840946931 5.3337953140790431 0 0.6018150307709319 -0.79863550430605224 1 0 0 1 I I 0 1 1 forward I I I I #
face $-1 $208 $209 $67 $-1 $210 forward single #
loop $-1 $211 $212 $84 #
cone-surface $-1 22.348839401685929 -20.902168840946931 5.3337953140790431 0 0.6018150307709319 -0.79863550430605224 1 0 0 1 I I 0 1 1 forward I I I I #
face $-1 $213 $214 $51 $-1 $215 reversed single #
loop $-1 $-1 $216 $85 #
plane-surface $-1 0 0 -7.5778314534321884 0 0 1 1 0 0 forward_v I I I I #
coedge $-1 $217 $218 $219 $220 forward $86 $-1 #
face $-1 $221 $222 $52 $-1 $223 reversed single #
loop $-1 $-1 $224 $88 #
plane-surface $-1 -31.434385277391236 0 -6.0778314534321884 -1 0 0 0 0 1 forward_v I I I I #
coedge $-1 $225 $226 $227 $228 forward $89 $-1 #
face $-1 $229 $230 $53 $-1 $231 reversed single #
loop $-1 $-1 $232 $91 #
plane-surface $-1 31.434385277391236 0 -6.0778314534321884 1 0 0 0 0 -1 forward_v I I I I #
coedge $-1 $233 $234 $235 $236 reversed $92 $-1 #
face $-1 $237 $238 $54 $-1 $239 reversed single #
loop $-1 $-1 $240 $94 #
plane-surface $-1 25.649525917022665 -15.440035985585467 29.682878020474931 0 0.55919291073839883 0.82903756765294845 1 0 0 forward_v I I I I #
coedge $-1 $241 $242 $243 $244 reversed $95 $-1 #
face $-1 $-1 $245 $55 $-1 $246 forward single #
loop $-1 $247 $248 $97 #
cone-surface $-1 25.649525917022665 18.49112166113725 2.6844105534557885 0 -0.55919291073839883 -0.82903756765294845 0.75 0 0 1 I I -0.70710678118654724 0.70710678118654768 0.75 forward I I I I #
loop $-1 $-1 $249 $72 #
coedge $-1 $156 $156 $250 $251 reversed $98 $-1 #
face $-1 $252 $253 $56 $-1 $254 reversed single #
loop $-1 $-1 $255 $100 #
plane-surface $-1 -26.79223254329802 -23.462421169291559 4.5463970200992065 0 -0.6018150307709319 0.79863550430605224 1 0 0 forward_v I I I I #
coedge $-1 $256 $257 $258 $259 reversed $101 $-1 #
face $-1 $-1 $260 $57 $-1 $261 forward single #
loop $-1 $262 $263 $103 #
cone-surface $-1 -28.781726572195112 -20.052433640710944 4.2061586392393666 0 0.6018150307709319 -0.79863550430605224 0.5 0 0 1 I I -0.70710678118654746 0.70710678118654746 0.5 forward I I I I #
loop $-1 $-1 $264 $74 #
coedge $-1 $165 $165 $265 $266 reversed $104 $-1 #
face $-1 $-1 $267 $58 $-1 $268 forward single #
loop $-1 $269 $270 $106 #
cone-surface $-1 -24.802738514400929 -20.052433640710944 4.2061586392393666 0 0.6018150307709319 -0.79863550430605224 0.5 0 0 1 I I -0.70710678118654746 0.70710678118654746 0.5 forward I I I I #
loop $-1 $-1 $271 $75 #
coedge $-1 $170 $170 $272 $273 reversed $107 $-1 #
face $-1 $274 $275 $59 $-1 $276 reversed single #
loop $-1 $-1 $277 $109 #
plane-surface $-1 -11.075039904602402 -23.462421169291559 4.5463970200992065 0 -0.6018150307709319 0.79863550430605224 1 0 0 forward_v I I I I #
coedge $-1 $278 $279 $280 $281 reversed $110 $-1 #
face $-1 $-1 $282 $60 $-1 $283 forward single #
loop $-1 $284 $285 $112 #
cone-surface $-1 -13.064533933499494 -20.052433640710944 4.2061586392393666 0 0.6018150307709319 -0.79863550430605224 0.5 0 0 1 I I -0.70710678118654746 0.70710678118654746 0.5 forward I I I I #
loop $-1 $-1 $286 $77 #
coedge $-1 $179 $179 $287 $288 reversed $113 $-1 #
face $-1 $-1 $289 $61 $-1 $290 forward single #
loop $-1 $291 $292 $115 #
cone-surface $-1 -9.0855458757053107 -20.052433640710944 4.2061586392393666 0 0.6018150307709319 -0.79863550430605224 0.5 0 0 1 I I -0.70710678118654746 0.70710678118654746 0.5 forward I I I I #
loop $-1 $-1 $293 $78 #
coedge $-1 $184 $184 $294 $295 reversed $116 $-1 #
face $-1 $296 $297 $62 $-1 $298 reversed single #
loop $-1 $-1 $299 $118 #
plane-surface $-1 4.6421527340932158 -23.462421169291559 4.5463970200992065 0 -0.6018150307709319 0.79863550430605224 1 0 0 forward_v I I I I #
coedge $-1 $300 $301 $302 $303 reversed $119 $-1 #
face $-1 $-1 $304 $63 $-1 $305 forward single #
loop $-1 $306 $307 $121 #
cone-surface $-1 2.6526587051961243 -20.052433640710944 4.2061586392393666 0 0.6018150307709319 -0.79863550430605224 0.5 0 0 1 I I -0.70710678118654746 0.70710678118654746 0.5 forward I I I I #
loop $-1 $-1 $308 $80 #
coedge $-1 $193 $193 $309 $310 reversed $122 $-1 #
face $-1 $-1 $311 $64 $-1 $312 forward single #
loop $-1 $313 $314 $124 #
cone-surface $-1 6.6316467629903073 -20.052433640710944 4.2061586392393666 0 0.6018150307709319 -0.79863550430605224 0.5 0 0 1 I I -0.70710678118654746 0.70710678118654746 0.5 forward I I I I #
loop $-1 $-1 $315 $81 #
coedge $-1 $198 $198 $316 $317 reversed $125 $-1 #
face $-1 $318 $319 $65 $-1 $320 reversed single #
loop $-1 $-1 $321 $127 #
plane-surface $-1 20.35934537278883 -23.462421169291559 4.5463970200992065 0 -0.6018150307709319 0.79863550430605224 1 0 0 forward_v I I I I #
coedge $-1 $322 $323 $324 $325 reversed $128 $-1 #
face $-1 $-1 $326 $66 $-1 $327 forward single #
loop $-1 $328 $329 $130 #
cone-surface $-1 18.369851343891746 -20.052433640710944 4.2061586392393666 0 0.6018150307709319 -0.79863550430605224 0.5 0 0 1 I I -0.70710678118654746 0.70710678118654746 0.5 forward I I I I #
loop $-1 $-1 $330 $83 #
coedge $-1 $207 $207 $331 $332 reversed $131 $-1 #
face $-1 $-1 $333 $67 $-1 $334 forward single #
loop $-1 $335 $336 $133 #
cone-surface $-1 22.348839401685929 -20.052433640710944 4.2061586392393666 0 0.6018150307709319 -0.79863550430605224 0.5 0 0 1 I I -0.70710678118654746 0.70710678118654746 0.5 forward I I I I #
loop $-1 $-1 $337 $84 #
coedge $-1 $212 $212 $338 $339 reversed $134 $-1 #
face $-1 $340 $341 $51 $-1 $342 reversed single #
loop $-1 $-1 $343 $136 #
plane-surface $-1 0 -23.462421169291552 0 0 1 0 0 0 1 forward_v I I I I #
coedge $-1 $344 $345 $346 $347 forward $137 $-1 #
coedge $-1 $348 $139 $349 $350 forward $86 $-1 #
coedge $-1 $139 $348 $351 $352 forward $86 $-1 #
coedge $-1 $353 $354 $139 $220 reversed $355 $-1 #
edge $-1 $356 -23.462421169291552 $357 23.462421169291552 $219 $358 forward 7 unknown #
face $-1 $359 $360 $52 $-1 $361 reversed single #
loop $-1 $-1 $362 $140 #
plane-surface $-1 0 0 -7.5778314534321884 0 0 1 1 0 0 forward_v I I I I #
coedge $-1 $363 $227 $364 $365 reversed $141 $-1 #
coedge $-1 $366 $143 $367 $368 reversed $89 $-1 #
coedge $-1 $143 $366 $369 $370 reversed $89 $-1 #
coedge $-1 $224 $371 $143 $228 reversed $141 $-1 #
edge $-1 $372 -23.462421169291552 $373 23.462421169291552 $227 $374 forward 7 unknown #
face $-1 $375 $376 $53 $-1 $377 reversed single #
loop $-1 $-1 $378 $144 #
plane-surface $-1 0 -23.462421169291552 0 0 1 0 0 0 1 forward_v I I I I #
coedge $-1 $379 $380 $381 $382 reversed $145 $-1 #
coedge $-1 $383 $147 $384 $385 reversed $92 $-1 #
coedge $-1 $147 $383 $378 $386 reversed $92 $-1 #
coedge $-1 $387 $388 $147 $236 forward $389 $-1 #
edge $-1 $390 -23.462421169291552 $391 23.462421169291552 $235 $392 forward 7 unknown #
face $-1 $393 $394 $54 $-1 $395 reversed single #
loop $-1 $-1 $396 $148 #
plane-surface $-1 19.864666556654097 30.253808503085374 97.426787079654062 1 0 0 0 -0.55919291073839883 -0.82903756765294845 forward_v I I I I #
coedge $-1 $397 $398 $399 $400 reversed $149 $-1 #
coedge $-1 $242 $151 $401 $402 reversed $95 $-1 #
coedge $-1 $151 $241 $397 $403 reversed $95 $-1 #
coedge $-1 $399 $404 $151 $244 forward $394 $-1 #
edge $-1 $405 41.135562086394842 $406 45.270554692604833 $243 $407 forward 7 unknown #
loop $-1 $-1 $250 $152 #
plane-surface $-1 25.649525917022665 -15.440035985585467 29.682878020474931 0 0.55919291073839883 0.82903756765294845 1 0 0 forward_v I I I I #
loop $-1 $-1 $408 $97 #
coedge $-1 $248 $248 $249 $409 reversed $153 $-1 #
coedge $-1 $249 $249 $248 $409 forward $155 $-1 #
coedge $-1 $250 $250 $156 $251 forward $245 $-1 #
edge $-1 $410 1.0164230500427822e-015 $410 6.2831853071796013 $250 $411 forward 7 unknown #
face $-1 $412 $413 $56 $-1 $414 forward single #
loop $-1 $-1 $415 $157 #
plane-surface $-1 -22.150079809204804 -72.639086142886498 69.80603432255414 -1 0 0 0 -0.6018150307709319 0.79863550430605224 forward_v I I I I #
coedge $-1 $416 $417 $418 $419 reversed $158 $-1 #
coedge $-1 $257 $160 $420 $421 reversed $101 $-1 #
coedge $-1 $160 $256 $416 $422 reversed $101 $-1 #
coedge $-1 $418 $423 $160 $259 forward $424 $-1 #
edge $-1 $425 27.325185707844881 $426 30.356620141177856 $258 $427 forward 7 unknown #
loop $-1 $-1 $265 $161 #
plane-surface $-1 -26.79223254329802 -23.462421169291559 4.5463970200992065 0 -0.6018150307709319 0.79863550430605224 1 0 0 forward_v I I I I #
loop $-1 $-1 $428 $103 #
coedge $-1 $263 $263 $264 $429 reversed $162 $-1 #
coedge $-1 $264 $264 $263 $429 forward $164 $-1 #
coedge $-1 $265 $265 $165 $266 forward $260 $-1 #
edge $-1 $430 -7.3958291473520646e-016 $430 6.2831853071795996 $265 $431 forward 7 unknown #
loop $-1 $-1 $272 $166 #
plane-surface $-1 -26.79223254329802 -23.462421169291559 4.5463970200992065 0 -0.6018150307709319 0.79863550430605224 1 0 0 forward_v I I I I #
loop $-1 $-1 $432 $106 #
coedge $-1 $270 $270 $271 $433 reversed $167 $-1 #
coedge $-1 $271 $271 $270 $433 forward $169 $-1 #
coedge $-1 $272 $272 $170 $273 forward $267 $-1 #
edge $-1 $434 -7.3958291473520646e-016 $434 6.2831853071795996 $272 $435 forward 7 unknown #
face $-1 $436 $437 $59 $-1 $438 reversed single #
loop $-1 $-1 $439 $171 #
plane-surface $-1 -6.4328871705091872 -72.639086142886498 69.80603432255414 -1 0 0 0 -0.6018150307709319 0.79863550430605224 forward_v I I I I #
coedge $-1 $440 $441 $442 $443 reversed $172 $-1 #
coedge $-1 $279 $174 $444 $445 reversed $110 $-1 #
coedge $-1 $174 $278 $440 $446 reversed $110 $-1 #
coedge $-1 $442 $447 $174 $281 forward $437 $-1 #
edge $-1 $448 27.325185707844881 $449 30.356620141177856 $280 $450 forward 7 unknown #
loop $-1 $-1 $287 $175 #
plane-surface $-1 -11.075039904602402 -23.462421169291559 4.5463970200992065 0 -0.6018150307709319 0.79863550430605224 1 0 0 forward_v I I I I #
loop $-1 $-1 $451 $112 #
coedge $-1 $285 $285 $286 $452 reversed $176 $-1 #
coedge $-1 $286 $286 $285 $452 forward $178 $-1 #
coedge $-1 $287 $287 $179 $288 forward $282 $-1 #
edge $-1 $453 -7.3958291473520646e-016 $453 6.2831853071795996 $287 $454 forward 7 unknown #
loop $-1 $-1 $294 $180 #
plane-surface $-1 -11.075039904602402 -23.462421169291559 4.5463970200992065 0 -0.6018150307709319 0.79863550430605224 1 0 0 forward_v I I I I #
loop $-1 $-1 $455 $115 #
coedge $-1 $292 $292 $293 $456 reversed $181 $-1 #
coedge $-1 $293 $293 $292 $456 forward $183 $-1 #
coedge $-1 $294 $294 $184 $295 forward $289 $-1 #
edge $-1 $457 -7.3958291473520646e-016 $457 6.2831853071795996 $294 $458 forward 7 unknown #
face $-1 $459 $460 $62 $-1 $461 reversed single #
loop $-1 $-1 $462 $185 #
plane-surface $-1 9.2843054681864317 -72.639086142886498 69.80603432255414 -1 0 0 0 -0.6018150307709319 0.79863550430605224 forward_v I I I I #
coedge $-1 $463 $464 $465 $466 reversed $186 $-1 #
coedge $-1 $301 $188 $467 $468 reversed $119 $-1 #
coedge $-1 $188 $300 $463 $469 reversed $119 $-1 #
coedge $-1 $465 $470 $188 $303 forward $460 $-1 #
edge $-1 $471 27.325185707844881 $472 30.356620141177856 $302 $473 forward 7 unknown #
loop $-1 $-1 $309 $189 #
plane-surface $-1 4.6421527340932158 -23.462421169291559 4.5463970200992065 0 -0.6018150307709319 0.79863550430605224 1 0 0 forward_v I I I I #
loop $-1 $-1 $474 $121 #
coedge $-1 $307 $307 $308 $475 reversed $190 $-1 #
coedge $-1 $308 $308 $307 $475 forward $192 $-1 #
coedge $-1 $309 $309 $193 $310 forward $304 $-1 #
edge $-1 $476 -7.3958291473520646e-016 $476 6.2831853071795996 $309 $477 forward 7 unknown #
loop $-1 $-1 $316 $194 #
plane-surface $-1 4.6421527340932158 -23.462421169291559 4.5463970200992065 0 -0.6018150307709319 0.79863550430605224 1 0 0 forward_v I I I I #
loop $-1 $-1 $478 $124 #
coedge $-1 $314 $314 $315 $479 reversed $195 $-1 #
coedge $-1 $315 $315 $314 $479 forward $197 $-1 #
coedge $-1 $316 $316 $198 $317 forward $311 $-1 #
edge $-1 $480 -7.3958291473520646e-016 $480 6.2831853071795996 $316 $481 forward 7 unknown #
face $-1 $482 $483 $65 $-1 $484 reversed single #
loop $-1 $-1 $485 $199 #
plane-surface $-1 25.001498106882046 -72.639086142886498 69.80603432255414 -1 0 0 0 -0.6018150307709319 0.79863550430605224 forward_v I I I I #
coedge $-1 $486 $487 $488 $489 reversed $200 $-1 #
coedge $-1 $323 $202 $490 $491 reversed $128 $-1 #
coedge $-1 $202 $322 $486 $492 reversed $128 $-1 #
coedge $-1 $488 $493 $202 $325 forward $483 $-1 #
edge $-1 $494 27.325185707844881 $495 30.356620141177856 $324 $496 forward 7 unknown #
loop $-1 $-1 $331 $203 #
plane-surface $-1 20.35934537278883 -23.462421169291559 4.5463970200992065 0 -0.6018150307709319 0.79863550430605224 1 0 0 forward_v I I I I #
loop $-1 $-1 $497 $130 #
coedge $-1 $329 $329 $330 $498 reversed $204 $-1 #
coedge $-1 $330 $330 $329 $498 forward $206 $-1 #
coedge $-1 $331 $331 $207 $332 forward $326 $-1 #
edge $-1 $499 -7.3958291473520646e-016 $499 6.2831853071795996 $331 $500 forward 7 unknown #
loop $-1 $-1 $338 $208 #
plane-surface $-1 20.35934537278883 -23.462421169291559 4.5463970200992065 0 -0.6018150307709319 0.79863550430605224 1 0 0 forward_v I I I I #
loop $-1 $-1 $501 $133 #
coedge $-1 $336 $336 $337 $502 reversed $209 $-1 #
coedge $-1 $337 $337 $336 $502 forward $211 $-1 #
coedge $-1 $338 $338 $212 $339 forward $333 $-1 #
edge $-1 $503 -7.3958291473520646e-016 $503 6.2831853071795996 $338 $504 forward 7 unknown #
face $-1 $505 $506 $51 $-1 $507 reversed single #
loop $-1 $-1 $508 $213 #
plane-surface $-1 -40.856959746085998 0 0 1 0 0 0 0 -1 forward_v I I I I #
coedge $-1 $509 $351 $510 $511 forward $214 $-1 #
coedge $-1 $512 $216 $509 $513 forward $137 $-1 #
coedge $-1 $216 $512 $514 $515 forward $137 $-1 #
coedge $-1 $354 $353 $216 $347 reversed $355 $-1 #
edge $-1 $516 -23.462421169291552 $517 23.462421169291552 $346 $518 forward 7 unknown #
coedge $-1 $218 $217 $519 $520 forward $86 $-1 #
coedge $-1 $521 $522 $217 $350 reversed $506 $-1 #
edge $-1 $357 -40.856959746085998 $523 40.856959746085998 $349 $524 forward 7 unknown #
coedge $-1 $343 $525 $218 $352 reversed $214 $-1 #
edge $-1 $526 -40.856959746085998 $356 40.856959746085998 $351 $527 forward 7 unknown #
coedge $-1 $346 $219 $525 $528 forward $355 $-1 #
coedge $-1 $219 $346 $521 $529 reversed $355 $-1 #
loop $-1 $-1 $353 $505 #
vertex $-1 $220 $530 #
vertex $-1 $220 $531 #
straight-curve $-1 40.856959746085998 0 7.5778314534321884 0 1 0 I I #
face $-1 $532 $533 $52 $-1 $534 reversed single #
loop $-1 $-1 $364 $221 #
plane-surface $-1 0 -23.462421169291552 0 0 1 0 0 0 1 forward_v I I I I #
coedge $-1 $535 $536 $363 $537 forward $222 $-1 #
coedge $-1 $371 $224 $362 $537 reversed $141 $-1 #
coedge $-1 $369 $538 $224 $365 forward $360 $-1 #
edge $-1 $539 -4.5389157267160947 $372 -1.5389157267160942 $364 $540 forward 7 unknown #
coedge $-1 $226 $225 $541 $542 reversed $89 $-1 #
coedge $-1 $543 $544 $225 $368 forward $545 $-1 #
edge $-1 $546 -22.78412349021669 $373 -13.361549021521927 $367 $547 forward 7 unknown #
coedge $-1 $548 $364 $226 $370 forward $360 $-1 #
edge $-1 $372 13.361549021521927 $549 22.78412349021669 $369 $550 forward 7 unknown #
coedge $-1 $227 $363 $543 $551 reversed $141 $-1 #
vertex $-1 $370 $552 #
vertex $-1 $368 $553 #
straight-curve $-1 -31.434385277391236 0 -4.5778314534321884 0 1 0 I I #
face $-1 $554 $555 $53 $-1 $556 reversed single #
loop $-1 $-1 $557 $229 #
plane-surface $-1 0 0 -7.5778314534321884 0 0 1 1 0 0 forward_v I I I I #
coedge $-1 $558 $559 $234 $386 forward $230 $-1 #
coedge $-1 $560 $232 $557 $561 reversed $145 $-1 #
coedge $-1 $232 $560 $383 $562 reversed $145 $-1 #
coedge $-1 $384 $563 $232 $382 forward $555 $-1 #
edge $-1 $564 -4.5389157267160947 $565 -1.5389157267160942 $381 $566 forward 7 unknown #
coedge $-1 $234 $233 $380 $562 forward $92 $-1 #
coedge $-1 $567 $381 $233 $385 forward $555 $-1 #
edge $-1 $565 13.361549021521927 $390 22.78412349021669 $384 $568 forward 7 unknown #
edge $-1 $391 -22.78412349021669 $569 -13.361549021521927 $378 $570 forward 7 unknown #
coedge $-1 $571 $235 $559 $572 forward $389 $-1 #
coedge $-1 $235 $571 $567 $573 reversed $389 $-1 #
loop $-1 $-1 $235 $554 #
vertex $-1 $573 $574 #
vertex $-1 $572 $575 #
straight-curve $-1 40.856959746085998 0 -4.5778314534321884 0 -1 0 I I #
face $-1 $-1 $576 $54 $-1 $577 forward single #
loop $-1 $-1 $243 $237 #
plane-surface $-1 0 23.462421169291552 0 0 -1 0 0 0 -1 forward_v I I I I #
coedge $-1 $578 $579 $580 $581 reversed $238 $-1 #
coedge $-1 $582 $240 $242 $403 forward $149 $-1 #
coedge $-1 $240 $582 $578 $583 forward $149 $-1 #
coedge $-1 $580 $243 $240 $400 forward $394 $-1 #
edge $-1 $406 -18.6096223188799 $584 -7.0399035981427645 $399 $585 forward 7 unknown #
coedge $-1 $586 $587 $241 $402 forward $576 $-1 #
edge $-1 $588 2.2051383906166215 $405 8.3355169177488655 $401 $589 forward 7 unknown #
edge $-1 $406 -46.92484233858309 $588 -39.530269684309189 $242 $590 forward 7 unknown #
coedge $-1 $243 $580 $586 $591 reversed $394 $-1 #
vertex $-1 $591 $592 #
vertex $-1 $244 $593 #
straight-curve $-1 31.434385277391232 23.462421169291552 48.713393539827031 0 0 -1 I I #
coedge $-1 $408 $408 $-1 $594 reversed $247 $-1 #
edge $-1 $595 0 $595 6.2831853071796004 $248 $596 forward 7 unknown #
vertex $-1 $251 $597 #
ellipse-curve $-1 25.649525917022665 20.397231905725434 5.5103351503271911 0 0.55919291073839883 0.82903756765294845 1.5 0 0 1 I I #
face $-1 $-1 $424 $56 $-1 $598 reversed single #
loop $-1 $-1 $599 $252 #
plane-surface $-1 0 0 7.5778314534321884 0 0 1 1 0 0 forward_v I I I I #
coedge $-1 $600 $601 $602 $603 reversed $253 $-1 #
coedge $-1 $604 $255 $257 $422 forward $158 $-1 #
coedge $-1 $255 $604 $600 $605 forward $158 $-1 #
coedge $-1 $602 $258 $255 $419 forward $424 $-1 #
edge $-1 $426 -18.038269005742226 $606 -8.7539635375557943 $418 $607 forward 7 unknown #
coedge $-1 $608 $609 $256 $421 forward $413 $-1 #
edge $-1 $610 -16.879971189139876 $425 -12.857121902151697 $420 $611 forward 7 unknown #
edge $-1 $426 8.8817612989391469e-015 $610 5.0371530758374048 $257 $612 forward 7 unknown #
coedge $-1 $258 $602 $608 $613 reversed $424 $-1 #
loop $-1 $-1 $602 $412 #
vertex $-1 $613 $614 #
vertex $-1 $259 $615 #
straight-curve $-1 -31.434385277391236 -23.462421169291552 34.90301716127707 0 0 -1 I I #
coedge $-1 $428 $428 $-1 $616 reversed $262 $-1 #
edge $-1 $617 0 $617 6.2831853071796004 $263 $618 forward 7 unknown #
vertex $-1 $266 $619 #
ellipse-curve $-1 -28.781726572195112 -21.450996525797457 6.0621142367657033 0 -0.6018150307709319 0.79863550430605224 1 0 0 1 I I #
coedge $-1 $432 $432 $-1 $620 reversed $269 $-1 #
edge $-1 $621 0 $621 6.2831853071796004 $270 $622 forward 7 unknown #
vertex $-1 $273 $623 #
ellipse-curve $-1 -24.802738514400929 -21.450996525797457 6.0621142367657033 0 -0.6018150307709319 0.79863550430605224 1 0 0 1 I I #
face $-1 $-1 $624 $59 $-1 $625 forward single #
loop $-1 $-1 $280 $274 #
plane-surface $-1 0 -23.462421169291552 0 0 1 0 0 0 1 forward_v I I I I #
coedge $-1 $626 $627 $628 $629 reversed $275 $-1 #
coedge $-1 $630 $277 $279 $446 forward $172 $-1 #
coedge $-1 $277 $630 $626 $631 forward $172 $-1 #
coedge $-1 $628 $280 $277 $443 forward $437 $-1 #
edge $-1 $449 -10.179672686394417 $632 -0.89536721820798615 $442 $633 forward 7 unknown #
coedge $-1 $634 $635 $278 $445 forward $624 $-1 #
edge $-1 $636 -16.879971189139876 $448 -12.857121902151697 $444 $637 forward 7 unknown #
edge $-1 $449 8.8817612989391469e-015 $636 5.0371530758374048 $279 $638 forward 7 unknown #
coedge $-1 $280 $628 $634 $639 reversed $437 $-1 #
vertex $-1 $639 $640 #
vertex $-1 $281 $641 #
straight-curve $-1 -15.717192638695618 -23.462421169291552 34.90301716127707 0 0 -1 I I #
coedge $-1 $451 $451 $-1 $642 reversed $284 $-1 #
edge $-1 $643 0 $643 6.2831853071796004 $285 $644 forward 7 unknown #
vertex $-1 $288 $645 #
ellipse-curve $-1 -13.064533933499494 -21.450996525797457 6.0621142367657033 0 -0.6018150307709319 0.79863550430605224 1 0 0 1 I I #
coedge $-1 $455 $455 $-1 $646 reversed $291 $-1 #
edge $-1 $647 0 $647 6.2831853071796004 $292 $648 forward 7 unknown #
vertex $-1 $295 $649 #
ellipse-curve $-1 -9.0855458757053107 -21.450996525797457 6.0621142367657033 0 -0.6018150307709319 0.79863550430605224 1 0 0 1 I I #
face $-1 $-1 $650 $62 $-1 $651 forward single #
loop $-1 $-1 $302 $296 #
plane-surface $-1 0 -23.462421169291552 0 0 1 0 0 0 1 forward_v I I I I #
coedge $-1 $652 $653 $654 $655 reversed $297 $-1 #
coedge $-1 $656 $299 $301 $469 forward $186 $-1 #
coedge $-1 $299 $656 $652 $657 forward $186 $-1 #
coedge $-1 $654 $302 $299 $466 forward $460 $-1 #
edge $-1 $472 -2.321076367046607 $658 6.9632291011398237 $465 $659 forward 7 unknown #
coedge $-1 $660 $661 $300 $468 forward $650 $-1 #
edge $-1 $662 -16.879971189139876 $471 -12.857121902151697 $467 $663 forward 7 unknown #
edge $-1 $472 8.8817612989391469e-015 $662 5.0371530758374048 $301 $664 forward 7 unknown #
coedge $-1 $302 $654 $660 $665 reversed $460 $-1 #
vertex $-1 $665 $666 #
vertex $-1 $303 $667 #
straight-curve $-1 8.8817841970012523e-016 -23.462421169291552 34.90301716127707 0 0 -1 I I #
coedge $-1 $474 $474 $-1 $668 reversed $306 $-1 #
edge $-1 $669 0 $669 6.2831853071796004 $307 $670 forward 7 unknown #
vertex $-1 $310 $671 #
ellipse-curve $-1 2.6526587051961243 -21.450996525797457 6.0621142367657033 0 -0.6018150307709319 0.79863550430605224 1 0 0 1 I I #
coedge $-1 $478 $478 $-1 $672 reversed $313 $-1 #
edge $-1 $673 0 $673 6.2831853071796004 $314 $674 forward 7 unknown #
vertex $-1 $317 $675 #
ellipse-curve $-1 6.6316467629903073 -21.450996525797457 6.0621142367657033 0 -0.6018150307709319 0.79863550430605224 1 0 0 1 I I #
face $-1 $-1 $676 $65 $-1 $677 forward single #
loop $-1 $-1 $324 $318 #
plane-surface $-1 0 -23.462421169291552 0 0 1 0 0 0 1 forward_v I I I I #
coedge $-1 $678 $679 $680 $681 reversed $319 $-1 #
coedge $-1 $682 $321 $323 $492 forward $200 $-1 #
coedge $-1 $321 $682 $678 $683 forward $200 $-1 #
coedge $-1 $680 $324 $321 $489 forward $483 $-1 #
edge $-1 $495 5.5375199523011993 $684 14.821825420487631 $488 $685 forward 7 unknown #
coedge $-1 $686 $687 $322 $491 forward $676 $-1 #
edge $-1 $688 -16.879971189139876 $494 -12.857121902151697 $490 $689 forward 7 unknown #
edge $-1 $495 8.8817612989391469e-015 $688 5.0371530758374048 $323 $690 forward 7 unknown #
coedge $-1 $324 $680 $686 $691 reversed $483 $-1 #
vertex $-1 $691 $692 #
vertex $-1 $325 $693 #
straight-curve $-1 15.717192638695614 -23.462421169291552 34.90301716127707 0 0 -1 I I #
coedge $-1 $497 $497 $-1 $694 reversed $328 $-1 #
edge $-1 $695 0 $695 6.2831853071796004 $329 $696 forward 7 unknown #
vertex $-1 $332 $697 #
ellipse-curve $-1 18.369851343891746 -21.450996525797457 6.0621142367657033 0 -0.6018150307709319 0.79863550430605224 1 0 0 1 I I #
coedge $-1 $501 $501 $-1 $698 reversed $335 $-1 #
edge $-1 $699 0 $699 6.2831853071796004 $336 $700 forward 7 unknown #
vertex $-1 $339 $701 #
ellipse-curve $-1 22.348839401685929 -21.450996525797457 6.0621142367657033 0 -0.6018150307709319 0.79863550430605224 1 0 0 1 I I #
face $-1 $-1 $355 $51 $-1 $702 reversed single #
loop $-1 $-1 $521 $340 #
plane-surface $-1 0 23.462421169291552 0 0 -1 0 0 0 -1 forward_v I I I I #
coedge $-1 $703 $519 $522 $704 forward $341 $-1 #
coedge $-1 $525 $343 $344 $513 reversed $214 $-1 #
coedge $-1 $519 $703 $343 $511 reversed $341 $-1 #
edge $-1 $526 -7.5778314534321884 $705 7.5778314534321884 $510 $706 forward 7 unknown #
coedge $-1 $345 $344 $703 $707 forward $137 $-1 #
edge $-1 $517 -40.856959746085998 $705 40.856959746085998 $509 $708 forward 7 unknown #
coedge $-1 $522 $521 $345 $515 reversed $506 $-1 #
edge $-1 $709 -40.856959746085998 $516 40.856959746085998 $514 $710 forward 7 unknown #
vertex $-1 $347 $711 #
vertex $-1 $528 $712 #
straight-curve $-1 40.856959746085998 0 -7.5778314534321884 0 -1 0 I I #
coedge $-1 $508 $510 $348 $520 reversed $341 $-1 #
edge $-1 $523 -23.462421169291552 $526 23.462421169291552 $519 $713 forward 7 unknown #
coedge $-1 $514 $349 $354 $529 forward $506 $-1 #
coedge $-1 $349 $514 $508 $704 reversed $506 $-1 #
vertex $-1 $350 $714 #
straight-curve $-1 0 23.462421169291552 7.5778314534321884 -1 0 0 I I #
coedge $-1 $351 $509 $353 $528 reversed $214 $-1 #
vertex $-1 $520 $715 #
straight-curve $-1 0 -23.462421169291552 7.5778314534321884 1 0 0 I I #
edge $-1 $356 -7.5778314534321884 $517 7.5778314534321884 $353 $716 forward 7 unknown #
edge $-1 $357 -7.5778314534321884 $516 7.5778314534321884 $354 $717 forward 7 unknown #
point $-1 40.856959746085998 -23.462421169291552 7.5778314534321884 #
point $-1 40.856959746085998 23.462421169291552 7.5778314534321884 #
face $-1 $-1 $545 $52 $-1 $718 reversed single #
loop $-1 $-1 $541 $359 #
plane-surface $-1 -40.856959746085998 0 0 1 0 0 0 0 -1 forward_v I I I I #
coedge $-1 $719 $362 $538 $720 forward $222 $-1 #
coedge $-1 $362 $719 $721 $722 forward $222 $-1 #
edge $-1 $723 -23.462421169291552 $539 23.462421169291552 $362 $724 forward 7 unknown #
coedge $-1 $364 $548 $535 $720 reversed $360 $-1 #
vertex $-1 $720 $725 #
straight-curve $-1 -31.434385277391236 -23.462421169291552 -3.0389157267160942 0 0 1 I I #
coedge $-1 $726 $727 $366 $542 forward $533 $-1 #
edge $-1 $549 -23.462421169291552 $546 23.462421169291552 $541 $728 forward 7 unknown #
coedge $-1 $721 $367 $371 $551 forward $545 $-1 #
coedge $-1 $367 $721 $726 $729 reversed $545 $-1 #
loop $-1 $-1 $543 $532 #
vertex $-1 $729 $730 #
straight-curve $-1 -18.072836255869309 23.462421169291552 -4.5778314534321884 1 0 0 I I #
coedge $-1 $538 $369 $727 $731 forward $360 $-1 #
vertex $-1 $731 $732 #
straight-curve $-1 -18.072836255869309 -23.462421169291552 -4.5778314534321884 -1 0 0 I I #
edge $-1 $373 1.5389157267160942 $723 4.5389157267160947 $543 $733 forward 7 unknown #
point $-1 -31.434385277391236 -23.462421169291552 -4.5778314534321884 #
point $-1 -31.434385277391236 23.462421169291552 -4.5778314534321884 #
face $-1 $-1 $389 $53 $-1 $734 reversed single #
loop $-1 $-1 $384 $375 #
plane-surface $-1 0 23.462421169291552 0 0 -1 0 0 0 -1 forward_v I I I I #
coedge $-1 $735 $736 $379 $561 forward $376 $-1 #
coedge $-1 $737 $378 $560 $738 forward $230 $-1 #
coedge $-1 $378 $737 $387 $572 reversed $230 $-1 #
coedge $-1 $380 $379 $558 $738 reversed $145 $-1 #
edge $-1 $739 -23.462421169291552 $564 23.462421169291552 $557 $740 forward 7 unknown #
edge $-1 $565 -23.462421169291552 $569 23.462421169291552 $380 $741 forward 7 unknown #
coedge $-1 $381 $567 $735 $742 reversed $555 $-1 #
vertex $-1 $742 $743 #
vertex $-1 $385 $744 #
straight-curve $-1 31.434385277391236 23.462421169291552 -3.0389157267160942 0 0 1 I I #
coedge $-1 $563 $384 $388 $573 forward $555 $-1 #
straight-curve $-1 18.072836255869309 23.462421169291552 -4.5778314534321884 1 0 0 I I #
vertex $-1 $386 $745 #
straight-curve $-1 18.072836255869309 -23.462421169291552 -4.5778314534321884 -1 0 0 I I #
coedge $-1 $388 $387 $746 $747 reversed $389 $-1 #
edge $-1 $391 4.5778314534321884 $748 7.5778314534321884 $387 $749 forward 7 unknown #
edge $-1 $390 4.5778314534321884 $750 7.5778314534321884 $388 $751 forward 7 unknown #
point $-1 40.856959746085998 23.462421169291552 -4.5778314534321884 #
point $-1 40.856959746085998 -23.462421169291552 -4.5778314534321884 #
loop $-1 $-1 $401 $393 #
plane-surface $-1 0 0 7.5778314534321884 0 0 1 1 0 0 forward_v I I I I #
coedge $-1 $579 $396 $398 $583 reversed $238 $-1 #
coedge $-1 $396 $578 $752 $753 reversed $238 $-1 #
coedge $-1 $404 $399 $396 $581 forward $394 $-1 #
edge $-1 $584 -45.270554692604833 $754 -41.135562086394842 $580 $755 forward 7 unknown #
coedge $-1 $398 $397 $587 $756 reversed $149 $-1 #
edge $-1 $757 39.530269684309189 $584 46.92484233858309 $578 $758 forward 7 unknown #
vertex $-1 $400 $759 #
straight-curve $-1 12.824762958511332 23.462421169291552 3.4428388472221965 -1 0 0 I I #
coedge $-1 $752 $401 $404 $591 forward $576 $-1 #
coedge $-1 $401 $752 $582 $756 forward $576 $-1 #
vertex $-1 $402 $760 #
straight-curve $-1 31.434385277391232 15.126904251542687 7.5778314534321893 0 1 0 I I #
straight-curve $-1 31.434385277391232 -15.440035985585467 29.682878020474931 0 -0.82903756765294845 0.55919291073839883 I I #
edge $-1 $405 -31.434385277391232 $754 -19.864666556654097 $404 $761 forward 7 unknown #
point $-1 31.434385277391232 23.462421169291552 7.5778314534321884 #
point $-1 31.434385277391232 23.462421169291552 3.4428388472221982 #
edge $-1 $762 1 $762 0 $408 $-1 forward 7 unknown #
vertex $-1 $409 $763 #
ellipse-curve $-1 25.649525917022665 18.910516344191048 3.3061887291955001 0 0.55919291073839883 0.82903756765294845 1.5 0 0 1 I I #
point $-1 27.149525917022665 20.39723190572543 5.5103351503271831 #
plane-surface $-1 0 -23.462421169291552 0 0 1 0 0 0 1 forward_v I I I I #
coedge $-1 $609 $608 $601 $764 forward $413 $-1 #
coedge $-1 $601 $415 $417 $605 reversed $253 $-1 #
coedge $-1 $415 $600 $599 $764 reversed $253 $-1 #
coedge $-1 $423 $418 $415 $603 forward $424 $-1 #
edge $-1 $606 -30.356620141177856 $765 -27.325185707844881 $602 $766 forward 7 unknown #
coedge $-1 $417 $416 $609 $767 reversed $158 $-1 #
edge $-1 $768 -5.0371530758374048 $606 -8.8817612989391469e-015 $600 $769 forward 7 unknown #
vertex $-1 $419 $770 #
straight-curve $-1 -13.39611627164901 -23.462421169291552 4.546397020099211 1 0 0 I I #
coedge $-1 $599 $420 $423 $613 forward $413 $-1 #
coedge $-1 $420 $599 $604 $767 forward $413 $-1 #
vertex $-1 $421 $771 #
straight-curve $-1 -31.434385277391236 -36.319543071443249 7.5778314534321893 0 -1 0 I I #
straight-curve $-1 -31.434385277391236 -23.462421169291559 4.5463970200992065 0 0.79863550430605224 0.6018150307709319 I I #
edge $-1 $425 -31.434385277391236 $765 -22.150079809204804 $423 $772 forward 7 unknown #
point $-1 -31.434385277391236 -23.462421169291552 7.5778314534321884 #
point $-1 -31.434385277391236 -23.462421169291552 4.5463970200992119 #
edge $-1 $773 1 $773 0 $428 $-1 forward 7 unknown #
vertex $-1 $429 $774 #
ellipse-curve $-1 -28.781726572195112 -20.353341156096409 4.6054763913923926 0 -0.6018150307709319 0.79863550430605224 1 0 0 1 I I #
point $-1 -27.781726572195112 -21.45099652579745 6.0621142367656926 #
edge $-1 $775 1 $775 0 $432 $-1 forward 7 unknown #
vertex $-1 $433 $776 #
ellipse-curve $-1 -24.802738514400929 -20.353341156096409 4.6054763913923926 0 -0.6018150307709319 0.79863550430605224 1 0 0 1 I I #
point $-1 -23.802738514400929 -21.45099652579745 6.0621142367656926 #
loop $-1 $-1 $444 $436 #
plane-surface $-1 0 0 7.5778314534321884 0 0 1 1 0 0 forward_v I I I I #
coedge $-1 $627 $439 $441 $631 reversed $275 $-1 #
coedge $-1 $439 $626 $777 $778 reversed $275 $-1 #
coedge $-1 $447 $442 $439 $629 forward $437 $-1 #
edge $-1 $632 -30.356620141177856 $779 -27.325185707844881 $628 $780 forward 7 unknown #
coedge $-1 $441 $440 $635 $781 reversed $172 $-1 #
edge $-1 $782 -5.0371530758374048 $632 -8.8817612989391469e-015 $626 $783 forward 7 unknown #
vertex $-1 $443 $784 #
straight-curve $-1 -5.5375199523012011 -23.462421169291552 4.546397020099211 1 0 0 I I #
coedge $-1 $777 $444 $447 $639 forward $624 $-1 #
coedge $-1 $444 $777 $630 $781 forward $624 $-1 #
vertex $-1 $445 $785 #
straight-curve $-1 -15.717192638695618 -36.319543071443249 7.5778314534321893 0 -1 0 I I #
straight-curve $-1 -15.717192638695618 -23.462421169291559 4.5463970200992065 0 0.79863550430605224 0.6018150307709319 I I #
edge $-1 $448 -15.717192638695618 $779 -6.4328871705091872 $447 $786 forward 7 unknown #
point $-1 -15.717192638695618 -23.462421169291552 7.5778314534321884 #
point $-1 -15.717192638695618 -23.462421169291552 4.5463970200992119 #
edge $-1 $787 1 $787 0 $451 $-1 forward 7 unknown #
vertex $-1 $452 $788 #
ellipse-curve $-1 -13.064533933499494 -20.353341156096409 4.6054763913923926 0 -0.6018150307709319 0.79863550430605224 1 0 0 1 I I #
point $-1 -12.064533933499494 -21.45099652579745 6.0621142367656926 #
edge $-1 $789 1 $789 0 $455 $-1 forward 7 unknown #
vertex $-1 $456 $790 #
ellipse-curve $-1 -9.0855458757053107 -20.353341156096409 4.6054763913923926 0 -0.6018150307709319 0.79863550430605224 1 0 0 1 I I #
point $-1 -8.0855458757053107 -21.45099652579745 6.0621142367656926 #
loop $-1 $-1 $467 $459 #
plane-surface $-1 0 0 7.5778314534321884 0 0 1 1 0 0 forward_v I I I I #
coedge $-1 $653 $462 $464 $657 reversed $297 $-1 #
coedge $-1 $462 $652 $791 $792 reversed $297 $-1 #
coedge $-1 $470 $465 $462 $655 forward $460 $-1 #
edge $-1 $658 -30.356620141177856 $793 -27.325185707844881 $654 $794 forward 7 unknown #
coedge $-1 $464 $463 $661 $795 reversed $186 $-1 #
edge $-1 $796 -5.0371530758374048 $658 -8.8817612989391469e-015 $652 $797 forward 7 unknown #
vertex $-1 $466 $798 #
straight-curve $-1 2.3210763670466079 -23.462421169291552 4.546397020099211 1 0 0 I I #
coedge $-1 $791 $467 $470 $665 forward $650 $-1 #
coedge $-1 $467 $791 $656 $795 forward $650 $-1 #
vertex $-1 $468 $799 #
straight-curve $-1 8.8817841970012523e-016 -36.319543071443249 7.5778314534321893 0 -1 0 I I #
straight-curve $-1 8.8817841970012523e-016 -23.462421169291559 4.5463970200992065 0 0.79863550430605224 0.6018150307709319 I I #
edge $-1 $471 8.8817841970012523e-016 $793 9.2843054681864317 $470 $800 forward 7 unknown #
point $-1 8.8817841970012523e-016 -23.462421169291552 7.5778314534321884 #
point $-1 8.8817841970012523e-016 -23.462421169291552 4.5463970200992119 #
edge $-1 $801 1 $801 0 $474 $-1 forward 7 unknown #
vertex $-1 $475 $802 #
ellipse-curve $-1 2.6526587051961243 -20.353341156096409 4.6054763913923926 0 -0.6018150307709319 0.79863550430605224 1 0 0 1 I I #
point $-1 3.6526587051961243 -21.45099652579745 6.0621142367656926 #
edge $-1 $803 1 $803 0 $478 $-1 forward 7 unknown #
vertex $-1 $479 $804 #
ellipse-curve $-1 6.6316467629903073 -20.353341156096409 4.6054763913923926 0 -0.6018150307709319 0.79863550430605224 1 0 0 1 I I #
point $-1 7.6316467629903073 -21.45099652579745 6.0621142367656926 #
loop $-1 $-1 $490 $482 #
plane-surface $-1 0 0 7.5778314534321884 0 0 1 1 0 0 forward_v I I I I #
coedge $-1 $679 $485 $487 $683 reversed $319 $-1 #
coedge $-1 $485 $678 $805 $806 reversed $319 $-1 #
coedge $-1 $493 $488 $485 $681 forward $483 $-1 #
edge $-1 $684 -30.356620141177856 $807 -27.325185707844881 $680 $808 forward 7 unknown #
coedge $-1 $487 $486 $687 $809 reversed $200 $-1 #
edge $-1 $810 -5.0371530758374048 $684 -8.8817612989391469e-015 $678 $811 forward 7 unknown #
vertex $-1 $489 $812 #
straight-curve $-1 10.179672686394415 -23.462421169291552 4.546397020099211 1 0 0 I I #
coedge $-1 $805 $490 $493 $691 forward $676 $-1 #
coedge $-1 $490 $805 $682 $809 forward $676 $-1 #
vertex $-1 $491 $813 #
straight-curve $-1 15.717192638695614 -36.319543071443249 7.5778314534321893 0 -1 0 I I #
straight-curve $-1 15.717192638695614 -23.462421169291559 4.5463970200992065 0 0.79863550430605224 0.6018150307709319 I I #
edge $-1 $494 15.717192638695614 $807 25.001498106882046 $493 $814 forward 7 unknown #
point $-1 15.717192638695614 -23.462421169291552 7.5778314534321884 #
point $-1 15.717192638695614 -23.462421169291552 4.5463970200992119 #
edge $-1 $815 1 $815 0 $497 $-1 forward 7 unknown #
vertex $-1 $498 $816 #
ellipse-curve $-1 18.369851343891746 -20.353341156096409 4.6054763913923926 0 -0.6018150307709319 0.79863550430605224 1 0 0 1 I I #
point $-1 19.369851343891746 -21.45099652579745 6.0621142367656926 #
edge $-1 $817 1 $817 0 $501 $-1 forward 7 unknown #
vertex $-1 $502 $818 #
ellipse-curve $-1 22.348839401685929 -20.353341156096409 4.6054763913923926 0 -0.6018150307709319 0.79863550430605224 1 0 0 1 I I #
point $-1 23.348839401685929 -21.45099652579745 6.0621142367656926 #
plane-surface $-1 40.856959746085998 0 0 -1 0 0 0 0 1 forward_v I I I I #
coedge $-1 $510 $508 $512 $707 reversed $341 $-1 #
edge $-1 $523 -7.5778314534321884 $709 7.5778314534321884 $522 $819 forward 7 unknown #
vertex $-1 $707 $820 #
straight-curve $-1 -40.856959746085998 -23.462421169291552 0 0 0 -1 I I #
edge $-1 $705 -23.462421169291552 $709 23.462421169291552 $703 $821 forward 7 unknown #
straight-curve $-1 0 -23.462421169291552 -7.5778314534321884 -1 0 0 I I #
vertex $-1 $515 $822 #
straight-curve $-1 0 23.462421169291552 -7.5778314534321884 1 0 0 I I #
point $-1 40.856959746085998 23.462421169291552 -7.5778314534321884 #
point $-1 40.856959746085998 -23.462421169291552 -7.5778314534321884 #
straight-curve $-1 -40.856959746085998 0 7.5778314534321884 0 -1 0 I I #
point $-1 -40.856959746085998 23.462421169291552 7.5778314534321884 #
point $-1 -40.856959746085998 -23.462421169291552 7.5778314534321884 #
straight-curve $-1 40.856959746085998 -23.462421169291552 0 0 0 -1 I I #
straight-curve $-1 40.856959746085998 23.462421169291552 0 0 0 -1 I I #
plane-surface $-1 0 23.462421169291552 0 0 -1 0 0 0 -1 forward_v I I I I #
coedge $-1 $536 $535 $823 $824 forward $222 $-1 #
edge $-1 $539 31.434385277391236 $825 40.856959746085998 $538 $826 forward 7 unknown #
coedge $-1 $544 $543 $536 $722 reversed $545 $-1 #
edge $-1 $827 -40.856959746085998 $723 -31.434385277391236 $721 $828 forward 7 unknown #
vertex $-1 $551 $829 #
straight-curve $-1 -31.434385277391236 0 -7.5778314534321884 0 -1 0 I I #
point $-1 -31.434385277391236 -23.462421169291552 -7.5778314534321884 #
coedge $-1 $823 $541 $544 $729 forward $533 $-1 #
coedge $-1 $541 $823 $548 $731 reversed $533 $-1 #
straight-curve $-1 -40.856959746085998 0 -4.5778314534321884 0 1 0 I I #
edge $-1 $546 4.5778314534321884 $827 7.5778314534321884 $544 $830 forward 7 unknown #
point $-1 -40.856959746085998 23.462421169291552 -4.5778314534321884 #
edge $-1 $549 4.5778314534321884 $825 7.5778314534321884 $727 $831 forward 7 unknown #
point $-1 -40.856959746085998 -23.462421169291552 -4.5778314534321884 #
straight-curve $-1 -31.434385277391236 23.462421169291552 -3.0389157267160942 0 0 -1 I I #
plane-surface $-1 40.856959746085998 0 0 -1 0 0 0 0 1 forward_v I I I I #
coedge $-1 $746 $557 $563 $742 forward $376 $-1 #
coedge $-1 $557 $746 $737 $832 forward $376 $-1 #
coedge $-1 $559 $558 $736 $832 reversed $230 $-1 #
edge $-1 $569 1.5389157267160942 $739 4.5389157267160947 $558 $833 forward 7 unknown #
vertex $-1 $561 $834 #
straight-curve $-1 31.434385277391236 0 -7.5778314534321884 0 1 0 I I #
straight-curve $-1 31.434385277391236 0 -4.5778314534321884 0 -1 0 I I #
edge $-1 $564 31.434385277391236 $750 40.856959746085998 $563 $835 forward 7 unknown #
point $-1 31.434385277391236 23.462421169291552 -7.5778314534321884 #
point $-1 31.434385277391236 23.462421169291552 -4.5778314534321884 #
point $-1 31.434385277391236 -23.462421169291552 -4.5778314534321884 #
coedge $-1 $736 $735 $571 $747 forward $376 $-1 #
edge $-1 $750 -23.462421169291552 $748 23.462421169291552 $571 $836 forward 7 unknown #
vertex $-1 $572 $837 #
straight-curve $-1 40.856959746085998 -23.462421169291552 0 0 0 -1 I I #
vertex $-1 $747 $838 #
straight-curve $-1 40.856959746085998 23.462421169291552 0 0 0 -1 I I #
coedge $-1 $587 $586 $579 $753 forward $576 $-1 #
edge $-1 $754 -8.3355169177488655 $757 -2.2051383906166215 $752 $839 forward 7 unknown #
vertex $-1 $753 $840 #
straight-curve $-1 19.864666556654097 23.462421169291552 48.713393539827031 0 0 1 I I #
edge $-1 $757 7.0399035981427645 $588 18.6096223188799 $587 $841 forward 7 unknown #
vertex $-1 $756 $842 #
straight-curve $-1 19.864666556654097 -15.440035985585467 29.682878020474931 0 0.82903756765294845 -0.55919291073839883 I I #
point $-1 19.864666556654097 23.462421169291552 3.4428388472221982 #
point $-1 31.434385277391232 17.332042642159308 7.5778314534321893 #
straight-curve $-1 0 23.462421169291552 7.5778314534321884 -1 0 0 I I #
vertex $-1 $594 $843 #
point $-1 27.149525917022665 18.910516344191048 3.3061887291955001 #
edge $-1 $765 12.857121902151697 $768 16.879971189139876 $599 $844 forward 7 unknown #
vertex $-1 $603 $845 #
straight-curve $-1 -22.150079809204804 -23.462421169291552 34.90301716127707 0 0 1 I I #
edge $-1 $768 8.7539635375557943 $610 18.038269005742226 $609 $846 forward 7 unknown #
vertex $-1 $767 $847 #
straight-curve $-1 -22.150079809204804 -23.462421169291559 4.5463970200992065 0 -0.79863550430605224 -0.6018150307709319 I I #
point $-1 -22.150079809204804 -23.462421169291552 4.5463970200992119 #
point $-1 -31.434385277391236 -19.439571882303373 7.5778314534321884 #
straight-curve $-1 0 -23.462421169291552 7.5778314534321884 1 0 0 I I #
vertex $-1 $616 $848 #
point $-1 -27.781726572195112 -20.353341156096409 4.6054763913923926 #
vertex $-1 $620 $849 #
point $-1 -23.802738514400929 -20.353341156096409 4.6054763913923926 #
coedge $-1 $635 $634 $627 $778 forward $624 $-1 #
edge $-1 $779 12.857121902151697 $782 16.879971189139876 $777 $850 forward 7 unknown #
vertex $-1 $778 $851 #
straight-curve $-1 -6.4328871705091872 -23.462421169291552 34.90301716127707 0 0 1 I I #
edge $-1 $782 0.89536721820798615 $636 10.179672686394417 $635 $852 forward 7 unknown #
vertex $-1 $781 $853 #
straight-curve $-1 -6.4328871705091872 -23.462421169291559 4.5463970200992065 0 -0.79863550430605224 -0.6018150307709319 I I #
point $-1 -6.4328871705091872 -23.462421169291552 4.5463970200992119 #
point $-1 -15.717192638695618 -19.439571882303373 7.5778314534321884 #
straight-curve $-1 0 -23.462421169291552 7.5778314534321884 1 0 0 I I #
vertex $-1 $642 $854 #
point $-1 -12.064533933499494 -20.353341156096409 4.6054763913923926 #
vertex $-1 $646 $855 #
point $-1 -8.0855458757053107 -20.353341156096409 4.6054763913923926 #
coedge $-1 $661 $660 $653 $792 forward $650 $-1 #
edge $-1 $793 12.857121902151697 $796 16.879971189139876 $791 $856 forward 7 unknown #
vertex $-1 $792 $857 #
straight-curve $-1 9.2843054681864317 -23.462421169291552 34.90301716127707 0 0 1 I I #
edge $-1 $796 -6.9632291011398237 $662 2.321076367046607 $661 $858 forward 7 unknown #
vertex $-1 $795 $859 #
straight-curve $-1 9.2843054681864317 -23.462421169291559 4.5463970200992065 0 -0.79863550430605224 -0.6018150307709319 I I #
point $-1 9.2843054681864317 -23.462421169291552 4.5463970200992119 #
point $-1 8.8817841970012523e-016 -19.439571882303373 7.5778314534321884 #
straight-curve $-1 0 -23.462421169291552 7.5778314534321884 1 0 0 I I #
vertex $-1 $668 $860 #
point $-1 3.6526587051961243 -20.353341156096409 4.6054763913923926 #
vertex $-1 $672 $861 #
point $-1 7.6316467629903073 -20.353341156096409 4.6054763913923926 #
coedge $-1 $687 $686 $679 $806 forward $676 $-1 #
edge $-1 $807 12.857121902151697 $810 16.879971189139876 $805 $862 forward 7 unknown #
vertex $-1 $806 $863 #
straight-curve $-1 25.001498106882046 -23.462421169291552 34.90301716127707 0 0 1 I I #
edge $-1 $810 -14.821825420487631 $688 -5.5375199523011993 $687 $864 forward 7 unknown #
vertex $-1 $809 $865 #
straight-curve $-1 25.001498106882046 -23.462421169291559 4.5463970200992065 0 -0.79863550430605224 -0.6018150307709319 I I #
point $-1 25.001498106882046 -23.462421169291552 4.5463970200992119 #
point $-1 15.717192638695614 -19.439571882303373 7.5778314534321884 #
straight-curve $-1 0 -23.462421169291552 7.5778314534321884 1 0 0 I I #
vertex $-1 $694 $866 #
point $-1 19.369851343891746 -20.353341156096409 4.6054763913923926 #
vertex $-1 $698 $867 #
point $-1 23.348839401685929 -20.353341156096409 4.6054763913923926 #
straight-curve $-1 -40.856959746085998 23.462421169291552 0 0 0 -1 I I #
point $-1 -40.856959746085998 -23.462421169291552 -7.5778314534321884 #
straight-curve $-1 -40.856959746085998 0 -7.5778314534321884 0 1 0 I I #
point $-1 -40.856959746085998 23.462421169291552 -7.5778314534321884 #
coedge $-1 $727 $726 $719 $824 reversed $533 $-1 #
edge $-1 $825 -23.462421169291552 $827 23.462421169291552 $823 $868 forward 7 unknown #
vertex $-1 $824 $869 #
straight-curve $-1 0 -23.462421169291552 -7.5778314534321884 -1 0 0 I I #
vertex $-1 $722 $870 #
straight-curve $-1 0 23.462421169291552 -7.5778314534321884 1 0 0 I I #
point $-1 -31.434385277391236 23.462421169291552 -7.5778314534321884 #
straight-curve $-1 -40.856959746085998 23.462421169291552 0 0 0 -1 I I #
straight-curve $-1 -40.856959746085998 -23.462421169291552 0 0 0 -1 I I #
edge $-1 $748 -40.856959746085998 $739 -31.434385277391236 $737 $871 forward 7 unknown #
straight-curve $-1 31.434385277391236 -23.462421169291552 -3.0389157267160942 0 0 -1 I I #
point $-1 31.434385277391236 -23.462421169291552 -7.5778314534321884 #
straight-curve $-1 0 23.462421169291552 -7.5778314534321884 1 0 0 I I #
straight-curve $-1 40.856959746085998 0 -7.5778314534321884 0 -1 0 I I #
point $-1 40.856959746085998 -23.462421169291552 -7.5778314534321884 #
point $-1 40.856959746085998 23.462421169291552 -7.5778314534321884 #
straight-curve $-1 19.864666556654097 15.126904251542687 7.5778314534321893 0 -1 0 I I #
point $-1 19.864666556654097 23.462421169291552 7.5778314534321884 #
straight-curve $-1 12.824762958511332 17.332042642159312 7.5778314534321876 1 0 0 I I #
point $-1 19.864666556654097 17.332042642159308 7.5778314534321893 #
point $-1 25.649525917022665 18.071726978083451 2.0626323777160769 #
straight-curve $-1 -22.150079809204804 -36.319543071443249 7.5778314534321893 0 1 0 I I #
point $-1 -22.150079809204804 -23.462421169291552 7.5778314534321884 #
straight-curve $-1 -13.39611627164901 -19.439571882303376 7.5778314534321884 -1 0 0 I I #
point $-1 -22.150079809204804 -19.439571882303373 7.5778314534321884 #
point $-1 -28.781726572195112 -19.75152612532548 3.8068408870863406 #
point $-1 -24.802738514400929 -19.75152612532548 3.8068408870863406 #
straight-curve $-1 -6.4328871705091872 -36.319543071443249 7.5778314534321893 0 1 0 I I #
point $-1 -6.4328871705091872 -23.462421169291552 7.5778314534321884 #
straight-curve $-1 -5.5375199523012011 -19.439571882303376 7.5778314534321884 -1 0 0 I I #
point $-1 -6.4328871705091872 -19.439571882303373 7.5778314534321884 #
point $-1 -13.064533933499494 -19.75152612532548 3.8068408870863406 #
point $-1 -9.0855458757053107 -19.75152612532548 3.8068408870863406 #
straight-curve $-1 9.2843054681864317 -36.319543071443249 7.5778314534321893 0 1 0 I I #
point $-1 9.2843054681864317 -23.462421169291552 7.5778314534321884 #
straight-curve $-1 2.3210763670466079 -19.439571882303376 7.5778314534321884 -1 0 0 I I #
point $-1 9.2843054681864317 -19.439571882303373 7.5778314534321884 #
point $-1 2.6526587051961243 -19.75152612532548 3.8068408870863406 #
point $-1 6.6316467629903073 -19.75152612532548 3.8068408870863406 #
straight-curve $-1 25.001498106882046 -36.319543071443249 7.5778314534321893 0 1 0 I I #
point $-1 25.001498106882046 -23.462421169291552 7.5778314534321884 #
straight-curve $-1 10.179672686394415 -19.439571882303376 7.5778314534321884 -1 0 0 I I #
point $-1 25.001498106882046 -19.439571882303373 7.5778314534321884 #
point $-1 18.369851343891746 -19.75152612532548 3.8068408870863406 #
point $-1 22.348839401685929 -19.75152612532548 3.8068408870863406 #
straight-curve $-1 -40.856959746085998 0 -7.5778314534321884 0 1 0 I I #
point $-1 -40.856959746085998 -23.462421169291552 -7.5778314534321884 #
point $-1 -40.856959746085998 23.462421169291552 -7.5778314534321884 #
straight-curve $-1 0 -23.462421169291552 -7.5778314534321884 -1 0 0 I I #
End-of-ACIS-data 