500 0 8 0           
7 Unknown 11 ACIS 5.0 NT 24 Fri Mar 26 19:27:04 1999 
-1 9.9999999999999995e-007 1e-010 
body $-1 $8 $-1 $9 #
body $-1 $10 $-1 $11 #
body $-1 $12 $-1 $13 #
body $-1 $14 $-1 $15 #
body $-1 $16 $-1 $17 #
body $-1 $18 $-1 $19 #
body $-1 $20 $-1 $21 #
body $-1 $22 $-1 $23 #
lump $-1 $-1 $24 $0 #
transform $-1 1 0 0 0 1 0 0 0 1 54.209418012024294 33.195348137188859 12.547004797933829 1 rotate no_reflect no_shear #
lump $-1 $-1 $25 $1 #
transform $-1 1 0 0 0 1 0 0 0 1 54.209418012024294 33.195348137188859 12.547004797933829 1 rotate no_reflect no_shear #
lump $-1 $-1 $26 $2 #
transform $-1 1 0 0 0 1 0 0 0 1 54.209418012024294 33.195348137188859 12.547004797933829 1 rotate no_reflect no_shear #
lump $-1 $-1 $27 $3 #
transform $-1 1 0 0 0 1 0 0 0 1 54.209418012024294 33.195348137188859 12.547004797933829 1 rotate no_reflect no_shear #
lump $-1 $-1 $28 $4 #
transform $-1 1 0 0 0 1 0 0 0 1 54.209418012024294 33.195348137188859 12.547004797933829 1 rotate no_reflect no_shear #
lump $-1 $-1 $29 $5 #
transform $-1 1 0 0 0 1 0 0 0 1 54.209418012024294 33.195348137188859 12.547004797933829 1 rotate no_reflect no_shear #
lump $-1 $-1 $30 $6 #
transform $-1 1 0 0 0 1 0 0 0 1 54.209418012024294 33.195348137188859 12.547004797933829 1 rotate no_reflect no_shear #
lump $-1 $-1 $31 $7 #
transform $-1 1 0 0 0 1 0 0 0 1 54.209418012024294 33.195348137188859 12.547004797933829 1 rotate no_reflect no_shear #
shell $-1 $-1 $-1 $32 $-1 $8 #
shell $-1 $-1 $-1 $33 $-1 $10 #
shell $-1 $-1 $-1 $34 $-1 $12 #
shell $-1 $-1 $-1 $35 $-1 $14 #
shell $-1 $-1 $-1 $36 $-1 $16 #
shell $-1 $-1 $-1 $37 $-1 $18 #
shell $-1 $-1 $-1 $38 $-1 $20 #
shell $-1 $-1 $-1 $39 $-1 $22 #
face $-1 $40 $41 $24 $-1 $42 forward single #
face $-1 $43 $44 $25 $-1 $45 forward single #
face $-1 $46 $47 $26 $-1 $48 reversed single #
face $-1 $49 $50 $27 $-1 $51 forward single #
face $-1 $52 $53 $28 $-1 $54 forward single #
face $-1 $55 $56 $29 $-1 $57 reversed single #
face $-1 $58 $59 $30 $-1 $60 forward single #
face $-1 $61 $62 $31 $-1 $63 forward single #
face $-1 $64 $65 $24 $-1 $66 reversed single #
loop $-1 $-1 $67 $32 #
plane-surface $-1 0 0 12.547004797933829 0 0 1 1 0 0 forward_v I I I I #
face $-1 $68 $69 $25 $-1 $70 reversed single #
loop $-1 $-1 $71 $33 #
plane-surface $-1 0 -33.195348137188859 0 0 1 0 0 0 1 forward_v I I I I #
face $-1 $72 $73 $26 $-1 $74 reversed single #
loop $-1 $-1 $75 $34 #
plane-surface $-1 -18.964610753362741 79.827563744730639 123.08915155091609 1 0 0 0 -0.79863551827123203 -0.60181501223851219 forward_v I I I I #
face $-1 $76 $77 $27 $-1 $78 forward single #
loop $-1 $79 $80 $35 #
cone-surface $-1 -13.546150538116244 27.929148711684107 6.9088075966626175 0 -0.79863551827123203 -0.60181501223851219 1.5 0 0 1 I I 0 1 1.5 forward I I I I #
face $-1 $81 $82 $28 $-1 $83 forward single #
loop $-1 $84 $85 $36 #
cone-surface $-1 -5.4184602152464976 27.929148711684107 6.9088075966626175 0 -0.79863551827123203 -0.60181501223851219 1.5 0 0 1 I I 0 1 1.5 forward I I I I #
face $-1 $86 $87 $29 $-1 $88 reversed single #
loop $-1 $-1 $89 $37 #
plane-surface $-1 -9.4823053766813743 -6.7595695536991229 57.841068422218044 0 0.79863551827123203 0.60181501223851219 1 0 0 forward_v I I I I #
face $-1 $90 $91 $30 $-1 $92 forward single #
loop $-1 $93 $94 $38 #
cone-surface $-1 5.4184602152465047 27.929148711684107 6.9088075966626175 0 -0.79863551827123203 -0.60181501223851219 1.5 0 0 1 I I 0 1 1.5 forward I I I I #
face $-1 $95 $96 $31 $-1 $97 forward single #
loop $-1 $98 $99 $39 #
cone-surface $-1 13.546150538116244 27.929148711684107 6.9088075966626175 0 -0.79863551827123203 -0.60181501223851219 1.5 0 0 1 I I 0 1 1.5 forward I I I I #
face $-1 $100 $101 $24 $-1 $102 reversed single #
loop $-1 $-1 $103 $40 #
plane-surface $-1 0 0 -12.547004797933829 0 0 1 1 0 0 forward_v I I I I #
coedge $-1 $104 $105 $106 $107 forward $41 $-1 #
face $-1 $108 $109 $25 $-1 $110 reversed single #
loop $-1 $-1 $111 $43 #
plane-surface $-1 0 0 -12.547004797933829 0 0 1 1 0 0 forward_v I I I I #
coedge $-1 $112 $113 $114 $115 forward $44 $-1 #
face $-1 $116 $117 $26 $-1 $118 reversed single #
loop $-1 $-1 $119 $46 #
plane-surface $-1 -9.4823053766813743 -6.7595695536991229 57.841068422218044 0 0.79863551827123203 0.60181501223851219 1 0 0 forward_v I I I I #
coedge $-1 $120 $121 $122 $123 reversed $47 $-1 #
face $-1 $-1 $124 $27 $-1 $125 forward single #
loop $-1 $126 $127 $49 #
cone-surface $-1 -13.546150538116244 24.975669433284736 4.6832013878082126 0 -0.79863551827123203 -0.60181501223851219 0.75 0 0 1 I I -0.70710678118654757 0.70710678118654757 0.75 forward I I I I #
loop $-1 $-1 $128 $35 #
coedge $-1 $80 $80 $129 $130 reversed $50 $-1 #
face $-1 $-1 $131 $28 $-1 $132 forward single #
loop $-1 $133 $134 $52 #
cone-surface $-1 -5.4184602152464976 24.975669433284736 4.6832013878082126 0 -0.79863551827123203 -0.60181501223851219 0.75 0 0 1 I I -0.70710678118654757 0.70710678118654757 0.75 forward I I I I #
loop $-1 $-1 $135 $36 #
coedge $-1 $85 $85 $136 $137 reversed $53 $-1 #
face $-1 $138 $139 $29 $-1 $140 forward single #
loop $-1 $-1 $141 $55 #
plane-surface $-1 18.964610753362741 79.827563744730639 123.08915155091609 -1 0 0 0 0.79863551827123203 0.60181501223851219 forward_v I I I I #
coedge $-1 $142 $143 $144 $145 reversed $56 $-1 #
face $-1 $-1 $146 $30 $-1 $147 forward single #
loop $-1 $148 $149 $58 #
cone-surface $-1 5.4184602152465047 24.975669433284736 4.6832013878082126 0 -0.79863551827123203 -0.60181501223851219 0.75 0 0 1 I I -0.70710678118654757 0.70710678118654757 0.75 forward I I I I #
loop $-1 $-1 $150 $38 #
coedge $-1 $94 $94 $151 $152 reversed $59 $-1 #
face $-1 $-1 $153 $31 $-1 $154 forward single #
loop $-1 $155 $156 $61 #
cone-surface $-1 13.546150538116244 24.975669433284736 4.6832013878082126 0 -0.79863551827123203 -0.60181501223851219 0.75 0 0 1 I I -0.70710678118654757 0.70710678118654757 0.75 forward I I I I #
loop $-1 $-1 $157 $39 #
coedge $-1 $99 $99 $158 $159 reversed $62 $-1 #
face $-1 $160 $161 $24 $-1 $162 reversed single #
loop $-1 $-1 $163 $64 #
plane-surface $-1 0 -33.195348137188859 0 0 1 0 0 0 1 forward_v I I I I #
coedge $-1 $164 $165 $166 $167 forward $65 $-1 #
coedge $-1 $168 $67 $169 $170 forward $41 $-1 #
coedge $-1 $67 $168 $171 $172 forward $41 $-1 #
coedge $-1 $173 $174 $67 $107 reversed $175 $-1 #
edge $-1 $176 -33.195348137188859 $177 33.195348137188859 $106 $178 forward 7 unknown #
face $-1 $179 $180 $25 $-1 $181 reversed single #
loop $-1 $-1 $182 $68 #
plane-surface $-1 -31.802826970596744 -45.337495970101315 0 0 1 0 0 0 1 forward_v I I I I #
coedge $-1 $183 $184 $113 $185 forward $69 $-1 #
coedge $-1 $186 $71 $187 $188 reversed $44 $-1 #
coedge $-1 $71 $186 $111 $185 reversed $44 $-1 #
coedge $-1 $189 $190 $71 $115 reversed $180 $-1 #
edge $-1 $191 -12.547004797933829 $192 12.547004797933829 $114 $193 forward 7 unknown #
face $-1 $194 $195 $26 $-1 $196 forward single #
loop $-1 $-1 $197 $72 #
plane-surface $-1 -7.1054273576010019e-015 79.827563744730639 123.08915155091609 -1 0 0 0 0.79863551827123203 0.60181501223851219 forward_v I I I I #
coedge $-1 $198 $199 $200 $201 reversed $73 $-1 #
coedge $-1 $121 $75 $202 $203 reversed $47 $-1 #
coedge $-1 $75 $120 $198 $204 reversed $47 $-1 #
coedge $-1 $200 $205 $75 $123 forward $195 $-1 #
edge $-1 $206 6.7184337351764611 $207 12.541827306794062 $122 $208 forward 7 unknown #
loop $-1 $-1 $129 $76 #
plane-surface $-1 -9.4823053766813743 -6.7595695536991229 57.841068422218044 0 0.79863551827123203 0.60181501223851219 1 0 0 forward_v I I I I #
loop $-1 $-1 $209 $49 #
coedge $-1 $127 $127 $128 $210 reversed $77 $-1 #
coedge $-1 $128 $128 $127 $210 forward $79 $-1 #
coedge $-1 $129 $129 $80 $130 forward $124 $-1 #
edge $-1 $211 -4.6616460270058674e-016 $211 6.2831853071795996 $129 $212 forward 7 unknown #
loop $-1 $-1 $136 $81 #
plane-surface $-1 -9.4823053766813743 -6.7595695536991229 57.841068422218044 0 0.79863551827123203 0.60181501223851219 1 0 0 forward_v I I I I #
loop $-1 $-1 $213 $52 #
coedge $-1 $134 $134 $135 $214 reversed $82 $-1 #
coedge $-1 $135 $135 $134 $214 forward $84 $-1 #
coedge $-1 $136 $136 $85 $137 forward $131 $-1 #
edge $-1 $215 -4.6616460270058674e-016 $215 6.2831853071795996 $136 $216 forward 7 unknown #
face $-1 $217 $218 $29 $-1 $219 forward single #
loop $-1 $-1 $220 $86 #
plane-surface $-1 0 0 12.547004797933829 0 0 1 1 0 0 forward_v I I I I #
coedge $-1 $221 $222 $223 $224 reversed $87 $-1 #
coedge $-1 $225 $89 $226 $227 reversed $56 $-1 #
coedge $-1 $89 $225 $220 $228 reversed $56 $-1 #
coedge $-1 $229 $230 $89 $145 forward $218 $-1 #
edge $-1 $231 -66.390696274377731 $232 -56.714311582748152 $144 $233 forward 7 unknown #
loop $-1 $-1 $151 $90 #
plane-surface $-1 -9.4823053766813743 -6.7595695536991229 57.841068422218044 0 0.79863551827123203 0.60181501223851219 1 0 0 forward_v I I I I #
loop $-1 $-1 $234 $58 #
coedge $-1 $149 $149 $150 $235 reversed $91 $-1 #
coedge $-1 $150 $150 $149 $235 forward $93 $-1 #
coedge $-1 $151 $151 $94 $152 forward $146 $-1 #
edge $-1 $236 -4.6616460270058674e-016 $236 6.2831853071795996 $151 $237 forward 7 unknown #
loop $-1 $-1 $158 $95 #
plane-surface $-1 -9.4823053766813743 -6.7595695536991229 57.841068422218044 0 0.79863551827123203 0.60181501223851219 1 0 0 forward_v I I I I #
loop $-1 $-1 $238 $61 #
coedge $-1 $156 $156 $157 $239 reversed $96 $-1 #
coedge $-1 $157 $157 $156 $239 forward $98 $-1 #
coedge $-1 $158 $158 $99 $159 forward $153 $-1 #
edge $-1 $240 -4.6616460270058674e-016 $240 6.2831853071795996 $158 $241 forward 7 unknown #
face $-1 $242 $243 $24 $-1 $244 reversed single #
loop $-1 $-1 $245 $100 #
plane-surface $-1 -54.209418012024294 0 0 1 0 0 0 0 -1 forward_v I I I I #
coedge $-1 $246 $171 $247 $248 forward $101 $-1 #
coedge $-1 $249 $103 $246 $250 forward $65 $-1 #
coedge $-1 $103 $249 $251 $252 forward $65 $-1 #
coedge $-1 $174 $173 $103 $167 reversed $175 $-1 #
edge $-1 $253 -33.195348137188859 $254 33.195348137188859 $166 $255 forward 7 unknown #
coedge $-1 $105 $104 $256 $257 forward $41 $-1 #
coedge $-1 $258 $259 $104 $170 reversed $243 $-1 #
edge $-1 $177 -54.209418012024294 $260 54.209418012024294 $169 $261 forward 7 unknown #
coedge $-1 $163 $262 $105 $172 reversed $101 $-1 #
edge $-1 $263 -54.209418012024294 $176 54.209418012024294 $171 $264 forward 7 unknown #
coedge $-1 $166 $106 $262 $265 forward $175 $-1 #
coedge $-1 $106 $166 $258 $266 reversed $175 $-1 #
loop $-1 $-1 $173 $242 #
vertex $-1 $107 $267 #
vertex $-1 $107 $268 #
straight-curve $-1 54.209418012024294 0 12.547004797933829 0 1 0 I I #
face $-1 $269 $270 $25 $-1 $271 reversed single #
loop $-1 $-1 $114 $108 #
plane-surface $-1 -34.490245525036855 -39.266422053645087 0 1 0 0 0 0 -1 forward_v I I I I #
coedge $-1 $272 $273 $274 $275 forward $109 $-1 #
coedge $-1 $276 $111 $277 $278 forward $69 $-1 #
coedge $-1 $111 $276 $189 $279 forward $69 $-1 #
edge $-1 $191 -34.490245525036855 $280 -29.115408416156637 $111 $281 forward 7 unknown #
coedge $-1 $113 $112 $282 $283 forward $44 $-1 #
coedge $-1 $284 $285 $112 $188 forward $286 $-1 #
edge $-1 $287 29.115408416156637 $192 34.490245525036855 $187 $288 forward 7 unknown #
coedge $-1 $274 $114 $184 $279 reversed $180 $-1 #
coedge $-1 $114 $274 $284 $289 reversed $180 $-1 #
vertex $-1 $185 $290 #
vertex $-1 $289 $291 #
straight-curve $-1 -34.490245525036855 -33.195348137188859 0 0 0 1 I I #
face $-1 $-1 $292 $26 $-1 $293 reversed single #
loop $-1 $-1 $122 $116 #
plane-surface $-1 0 0 12.547004797933829 0 0 1 1 0 0 forward_v I I I I #
coedge $-1 $294 $295 $296 $297 reversed $117 $-1 #
coedge $-1 $298 $119 $121 $204 forward $73 $-1 #
coedge $-1 $119 $298 $294 $299 forward $73 $-1 #
coedge $-1 $296 $122 $119 $201 forward $195 $-1 #
edge $-1 $207 -14.223458065022054 $300 4.74115268834068 $200 $301 forward 7 unknown #
coedge $-1 $302 $303 $120 $203 forward $292 $-1 #
edge $-1 $304 -56.725475480715609 $206 -48.997570977524212 $202 $305 forward 7 unknown #
edge $-1 $207 56.714311582748152 $304 66.390696274377731 $121 $306 forward 7 unknown #
coedge $-1 $122 $296 $302 $307 forward $195 $-1 #
vertex $-1 $203 $308 #
vertex $-1 $123 $309 #
straight-curve $-1 -18.964610753362741 39.91378187236532 12.54700479793383 0 -1 0 I I #
coedge $-1 $209 $209 $-1 $310 reversed $126 $-1 #
edge $-1 $311 0 $311 6.2831853071796004 $127 $312 forward 7 unknown #
vertex $-1 $130 $313 #
ellipse-curve $-1 -13.546150538116244 30.283651351380051 8.6830525463381356 0 0.79863551827123203 0.60181501223851219 1.5 0 0 1 I I #
coedge $-1 $213 $213 $-1 $314 reversed $133 $-1 #
edge $-1 $315 0 $315 6.2831853071796004 $134 $316 forward 7 unknown #
vertex $-1 $137 $317 #
ellipse-curve $-1 -5.4184602152464976 30.283651351380051 8.6830525463381356 0 0.79863551827123203 0.60181501223851219 1.5 0 0 1 I I #
face $-1 $-1 $318 $29 $-1 $319 reversed single #
loop $-1 $-1 $229 $138 #
plane-surface $-1 -7.1054273576010019e-015 79.827563744730639 123.08915155091609 -1 0 0 0 0.79863551827123203 0.60181501223851219 forward_v I I I I #
coedge $-1 $223 $320 $143 $228 forward $139 $-1 #
coedge $-1 $222 $141 $225 $321 reversed $87 $-1 #
coedge $-1 $141 $221 $322 $323 reversed $87 $-1 #
coedge $-1 $324 $220 $141 $224 forward $139 $-1 #
edge $-1 $325 -12.541827306794062 $326 -6.7184337351764611 $223 $327 forward 7 unknown #
coedge $-1 $143 $142 $221 $321 forward $56 $-1 #
coedge $-1 $328 $322 $142 $227 forward $318 $-1 #
edge $-1 $329 -23.705763441703429 $231 -4.74115268834068 $226 $330 forward 7 unknown #
edge $-1 $232 4.74115268834068 $325 23.705763441703429 $220 $331 forward 7 unknown #
coedge $-1 $230 $144 $320 $332 reversed $218 $-1 #
coedge $-1 $144 $229 $328 $333 reversed $218 $-1 #
vertex $-1 $227 $334 #
vertex $-1 $228 $335 #
straight-curve $-1 -7.1054273576010019e-015 -6.7595695536991229 57.841068422218044 0 -0.60181501223851219 0.79863551827123203 I I #
coedge $-1 $234 $234 $-1 $336 reversed $148 $-1 #
edge $-1 $337 0 $337 6.2831853071796004 $149 $338 forward 7 unknown #
vertex $-1 $152 $339 #
ellipse-curve $-1 5.4184602152465047 30.283651351380051 8.6830525463381356 0 0.79863551827123203 0.60181501223851219 1.5 0 0 1 I I #
coedge $-1 $238 $238 $-1 $340 reversed $155 $-1 #
edge $-1 $341 0 $341 6.2831853071796004 $156 $342 forward 7 unknown #
vertex $-1 $159 $343 #
ellipse-curve $-1 13.546150538116244 30.283651351380051 8.6830525463381356 0 0.79863551827123203 0.60181501223851219 1.5 0 0 1 I I #
face $-1 $-1 $175 $24 $-1 $344 reversed single #
loop $-1 $-1 $258 $160 #
plane-surface $-1 0 33.195348137188859 0 0 -1 0 0 0 -1 forward_v I I I I #
coedge $-1 $345 $256 $259 $346 forward $161 $-1 #
coedge $-1 $262 $163 $164 $250 reversed $101 $-1 #
coedge $-1 $256 $345 $163 $248 reversed $161 $-1 #
edge $-1 $263 -12.547004797933829 $347 12.547004797933829 $247 $348 forward 7 unknown #
coedge $-1 $165 $164 $345 $349 forward $65 $-1 #
edge $-1 $254 -54.209418012024294 $347 54.209418012024294 $246 $350 forward 7 unknown #
coedge $-1 $259 $258 $165 $252 reversed $243 $-1 #
edge $-1 $351 -54.209418012024294 $253 54.209418012024294 $251 $352 forward 7 unknown #
vertex $-1 $167 $353 #
vertex $-1 $265 $354 #
straight-curve $-1 54.209418012024294 0 -12.547004797933829 0 -1 0 I I #
coedge $-1 $245 $247 $168 $257 reversed $161 $-1 #
edge $-1 $260 -33.195348137188859 $263 33.195348137188859 $256 $355 forward 7 unknown #
coedge $-1 $251 $169 $174 $266 forward $243 $-1 #
coedge $-1 $169 $251 $245 $346 reversed $243 $-1 #
vertex $-1 $170 $356 #
straight-curve $-1 0 33.195348137188859 12.547004797933829 -1 0 0 I I #
coedge $-1 $171 $246 $173 $265 reversed $101 $-1 #
vertex $-1 $257 $357 #
straight-curve $-1 0 -33.195348137188859 12.547004797933829 1 0 0 I I #
edge $-1 $176 -12.547004797933829 $254 12.547004797933829 $173 $358 forward 7 unknown #
edge $-1 $177 -12.547004797933829 $253 12.547004797933829 $174 $359 forward 7 unknown #
point $-1 54.209418012024294 -33.195348137188859 12.547004797933829 #
point $-1 54.209418012024294 33.195348137188859 12.547004797933829 #
face $-1 $-1 $286 $25 $-1 $360 forward single #
loop $-1 $-1 $361 $179 #
plane-surface $-1 -29.115408416156637 -39.266422053645087 0 -1 0 0 0 0 1 forward_v I I I I #
coedge $-1 $362 $182 $276 $363 reversed $109 $-1 #
coedge $-1 $182 $362 $364 $365 reversed $109 $-1 #
coedge $-1 $190 $189 $182 $275 reversed $180 $-1 #
edge $-1 $366 -12.547004797933829 $367 12.547004797933829 $274 $368 forward 7 unknown #
coedge $-1 $184 $183 $272 $363 forward $69 $-1 #
coedge $-1 $282 $361 $183 $278 reversed $270 $-1 #
edge $-1 $280 -6.0710739164562284 $369 6.0710739164562284 $277 $370 forward 7 unknown #
edge $-1 $367 -6.0710739164562284 $191 6.0710739164562284 $189 $371 forward 7 unknown #
vertex $-1 $278 $372 #
straight-curve $-1 0 -33.195348137188859 -12.547004797933829 1 0 0 I I #
coedge $-1 $373 $277 $186 $283 reversed $270 $-1 #
edge $-1 $287 -12.547004797933829 $280 12.547004797933829 $282 $374 forward 7 unknown #
coedge $-1 $364 $187 $190 $289 forward $286 $-1 #
coedge $-1 $187 $364 $373 $375 forward $286 $-1 #
loop $-1 $-1 $187 $269 #
vertex $-1 $188 $376 #
straight-curve $-1 0 -33.195348137188859 12.547004797933829 -1 0 0 I I #
edge $-1 $192 -6.0710739164562284 $366 6.0710739164562284 $190 $377 forward 7 unknown #
point $-1 -34.490245525036855 -33.195348137188859 -12.547004797933829 #
point $-1 -34.490245525036855 -33.195348137188859 12.547004797933829 #
loop $-1 $-1 $202 $194 #
plane-surface $-1 0 33.195348137188859 0 0 -1 0 0 0 -1 forward_v I I I I #
coedge $-1 $295 $197 $199 $299 reversed $117 $-1 #
coedge $-1 $197 $294 $378 $379 reversed $117 $-1 #
coedge $-1 $205 $200 $197 $297 forward $195 $-1 #
edge $-1 $300 -12.541827306794062 $380 -6.7184337351764611 $296 $381 forward 7 unknown #
coedge $-1 $199 $198 $303 $382 reversed $73 $-1 #
edge $-1 $383 -66.390696274377731 $300 -56.714311582748152 $294 $384 forward 7 unknown #
vertex $-1 $201 $385 #
straight-curve $-1 -4.7411526883406871 27.371954565571251 12.547004797933834 1 0 0 I I #
coedge $-1 $378 $202 $205 $307 reversed $292 $-1 #
coedge $-1 $202 $378 $298 $382 forward $292 $-1 #
vertex $-1 $203 $386 #
straight-curve $-1 -18.964610753362741 33.195348137188859 61.544575775458043 0 0 1 I I #
straight-curve $-1 -18.964610753362741 -6.7595695536991229 57.841068422218044 0 0.60181501223851219 -0.79863551827123203 I I #
edge $-1 $380 7.1054273576010019e-015 $206 18.964610753362741 $302 $387 forward 7 unknown #
point $-1 -18.964610753362741 33.195348137188859 12.547004797933829 #
point $-1 -18.964610753362741 27.371954565571258 12.54700479793383 #
edge $-1 $388 1 $388 0 $209 $-1 forward 7 unknown #
vertex $-1 $210 $389 #
ellipse-curve $-1 -13.546150538116244 25.574646071988159 5.1345626469870966 0 0.79863551827123203 0.60181501223851219 1.5 0 0 1 I I #
point $-1 -12.046150538116244 30.283651351380055 8.6830525463381392 #
edge $-1 $390 1 $390 0 $213 $-1 forward 7 unknown #
vertex $-1 $214 $391 #
ellipse-curve $-1 -5.4184602152464976 25.574646071988159 5.1345626469870966 0 0.79863551827123203 0.60181501223851219 1.5 0 0 1 I I #
point $-1 -3.9184602152464976 30.283651351380055 8.6830525463381392 #
loop $-1 $-1 $226 $217 #
plane-surface $-1 0 33.195348137188859 0 0 -1 0 0 0 -1 forward_v I I I I #
coedge $-1 $220 $324 $229 $332 forward $139 $-1 #
edge $-1 $329 -66.390696274377731 $325 -56.714311582748152 $221 $392 forward 7 unknown #
coedge $-1 $226 $393 $222 $323 forward $318 $-1 #
edge $-1 $326 48.997570977524212 $329 56.725475480715609 $322 $394 forward 7 unknown #
coedge $-1 $320 $223 $393 $395 forward $139 $-1 #
vertex $-1 $224 $396 #
vertex $-1 $395 $397 #
straight-curve $-1 18.964610753362741 39.91378187236532 12.54700479793383 0 1 0 I I #
coedge $-1 $393 $226 $230 $333 forward $318 $-1 #
vertex $-1 $323 $398 #
straight-curve $-1 -4.7411526883406871 33.195348137188859 4.8191002947424302 -1 0 0 I I #
straight-curve $-1 -4.7411526883406871 27.371954565571251 12.547004797933834 1 0 0 I I #
edge $-1 $399 6.7184337351764611 $232 12.541827306794062 $320 $400 forward 7 unknown #
edge $-1 $231 -56.725475480715609 $399 -48.997570977524212 $328 $401 forward 7 unknown #
point $-1 -7.1054273576010019e-015 33.195348137188859 4.8191002947424337 #
point $-1 -7.1054273576010019e-015 27.371954565571258 12.54700479793383 #
edge $-1 $402 1 $402 0 $234 $-1 forward 7 unknown #
vertex $-1 $235 $403 #
ellipse-curve $-1 5.4184602152465047 25.574646071988159 5.1345626469870966 0 0.79863551827123203 0.60181501223851219 1.5 0 0 1 I I #
point $-1 6.9184602152465047 30.283651351380055 8.6830525463381392 #
edge $-1 $404 1 $404 0 $238 $-1 forward 7 unknown #
vertex $-1 $239 $405 #
ellipse-curve $-1 13.546150538116244 25.574646071988159 5.1345626469870966 0 0.79863551827123203 0.60181501223851219 1.5 0 0 1 I I #
point $-1 15.046150538116244 30.283651351380055 8.6830525463381392 #
plane-surface $-1 54.209418012024294 0 0 -1 0 0 0 0 1 forward_v I I I I #
coedge $-1 $247 $245 $249 $349 reversed $161 $-1 #
edge $-1 $260 -12.547004797933829 $351 12.547004797933829 $259 $406 forward 7 unknown #
vertex $-1 $349 $407 #
straight-curve $-1 -54.209418012024294 -33.195348137188859 0 0 0 -1 I I #
edge $-1 $347 -33.195348137188859 $351 33.195348137188859 $345 $408 forward 7 unknown #
straight-curve $-1 0 -33.195348137188859 -12.547004797933829 -1 0 0 I I #
vertex $-1 $252 $409 #
straight-curve $-1 0 33.195348137188859 -12.547004797933829 1 0 0 I I #
point $-1 54.209418012024294 33.195348137188859 -12.547004797933829 #
point $-1 54.209418012024294 -33.195348137188859 -12.547004797933829 #
straight-curve $-1 -54.209418012024294 0 12.547004797933829 0 -1 0 I I #
point $-1 -54.209418012024294 33.195348137188859 12.547004797933829 #
point $-1 -54.209418012024294 -33.195348137188859 12.547004797933829 #
straight-curve $-1 54.209418012024294 -33.195348137188859 0 0 0 -1 I I #
straight-curve $-1 54.209418012024294 33.195348137188859 0 0 0 -1 I I #
plane-surface $-1 0 0 12.547004797933829 0 0 1 1 0 0 forward_v I I I I #
coedge $-1 $277 $373 $362 $410 forward $270 $-1 #
coedge $-1 $273 $272 $361 $410 reversed $109 $-1 #
edge $-1 $369 -2.6874185544401072 $367 2.6874185544401108 $272 $411 forward 7 unknown #
coedge $-1 $285 $284 $273 $365 forward $286 $-1 #
edge $-1 $366 -2.6874185544401108 $412 2.6874185544401072 $273 $413 forward 7 unknown #
vertex $-1 $289 $414 #
vertex $-1 $279 $415 #
straight-curve $-1 -34.490245525036855 -45.337495970101315 0 0 0 -1 I I #
vertex $-1 $410 $416 #
straight-curve $-1 -29.115408416156637 -39.266422053645087 -12.547004797933829 0 -1 0 I I #
straight-curve $-1 -34.490245525036855 -39.266422053645087 -12.547004797933829 0 1 0 I I #
point $-1 -29.115408416156637 -33.195348137188859 -12.547004797933829 #
coedge $-1 $361 $282 $285 $375 reversed $270 $-1 #
straight-curve $-1 -29.115408416156637 -33.195348137188859 0 0 0 -1 I I #
edge $-1 $412 -6.0710739164562284 $287 6.0710739164562284 $373 $417 forward 7 unknown #
point $-1 -29.115408416156637 -33.195348137188859 12.547004797933829 #
straight-curve $-1 -34.490245525036855 -39.266422053645087 12.547004797933829 0 -1 0 I I #
coedge $-1 $303 $302 $295 $379 forward $292 $-1 #
edge $-1 $380 48.997570977524212 $383 56.725475480715609 $378 $418 forward 7 unknown #
vertex $-1 $307 $419 #
straight-curve $-1 -7.1054273576010019e-015 39.91378187236532 12.54700479793383 0 1 0 I I #
edge $-1 $383 -4.74115268834068 $304 14.223458065022054 $303 $420 forward 7 unknown #
vertex $-1 $382 $421 #
straight-curve $-1 -7.1054273576010019e-015 -6.7595695536991229 57.841068422218044 0 -0.60181501223851219 0.79863551827123203 I I #
point $-1 -7.1054273576010019e-015 27.371954565571258 12.54700479793383 #
point $-1 -18.964610753362741 33.195348137188859 4.8191002947424337 #
straight-curve $-1 0 33.195348137188859 12.547004797933829 -1 0 0 I I #
vertex $-1 $310 $422 #
point $-1 -12.046150538116244 25.574646071988159 5.1345626469870966 #
vertex $-1 $314 $423 #
point $-1 -3.9184602152464976 25.574646071988159 5.1345626469870966 #
straight-curve $-1 18.964610753362741 -6.7595695536991229 57.841068422218044 0 -0.60181501223851219 0.79863551827123203 I I #
coedge $-1 $322 $328 $324 $395 reversed $318 $-1 #
straight-curve $-1 18.964610753362741 33.195348137188859 61.544575775458043 0 0 -1 I I #
edge $-1 $326 -18.964610753362741 $399 7.1054273576010019e-015 $393 $424 forward 7 unknown #
point $-1 18.964610753362741 27.371954565571258 12.54700479793383 #
point $-1 18.964610753362741 33.195348137188859 12.547004797933829 #
point $-1 18.964610753362741 33.195348137188859 4.8191002947424337 #
vertex $-1 $333 $425 #
straight-curve $-1 -7.1054273576010019e-015 39.91378187236532 12.54700479793383 0 -1 0 I I #
straight-curve $-1 -7.1054273576010019e-015 33.195348137188859 61.544575775458043 0 0 1 I I #
vertex $-1 $336 $426 #
point $-1 6.9184602152465047 25.574646071988159 5.1345626469870966 #
vertex $-1 $340 $427 #
point $-1 15.046150538116244 25.574646071988159 5.1345626469870966 #
straight-curve $-1 -54.209418012024294 33.195348137188859 0 0 0 -1 I I #
point $-1 -54.209418012024294 -33.195348137188859 -12.547004797933829 #
straight-curve $-1 -54.209418012024294 0 -12.547004797933829 0 1 0 I I #
point $-1 -54.209418012024294 33.195348137188859 -12.547004797933829 #
edge $-1 $412 -12.547004797933829 $369 12.547004797933829 $361 $428 forward 7 unknown #
straight-curve $-1 -31.802826970596744 -45.337495970101315 -12.547004797933829 -1 0 0 I I #
vertex $-1 $375 $429 #
straight-curve $-1 -31.802826970596744 -45.337495970101315 12.547004797933829 1 0 0 I I #
point $-1 -34.490245525036855 -45.337495970101315 12.547004797933829 #
point $-1 -34.490245525036855 -45.337495970101315 -12.547004797933829 #
point $-1 -29.115408416156637 -45.337495970101315 -12.547004797933829 #
straight-curve $-1 -29.115408416156637 -39.266422053645087 12.547004797933829 0 1 0 I I #
straight-curve $-1 -7.1054273576010019e-015 33.195348137188859 61.544575775458043 0 0 -1 I I #
point $-1 -7.1054273576010019e-015 33.195348137188859 12.547004797933829 #
straight-curve $-1 -4.7411526883406871 33.195348137188859 4.8191002947424302 -1 0 0 I I #
point $-1 -7.1054273576010019e-015 33.195348137188859 4.8191002947424337 #
point $-1 -13.546150538116244 24.376692794581313 4.2318401286293286 #
point $-1 -5.4184602152464976 24.376692794581313 4.2318401286293286 #
straight-curve $-1 0 33.195348137188859 12.547004797933829 -1 0 0 I I #
point $-1 -7.1054273576010019e-015 33.195348137188859 12.547004797933829 #
point $-1 5.4184602152465047 24.376692794581313 4.2318401286293286 #
point $-1 13.546150538116244 24.376692794581313 4.2318401286293286 #
straight-curve $-1 -29.115408416156637 -45.337495970101315 0 0 0 -1 I I #
point $-1 -29.115408416156637 -45.337495970101315 12.547004797933829 #
End-of-ACIS-data 