500 0 4 0           
7 Unknown 11 ACIS 5.0 NT 24 Fri Mar 26 18:40:32 1999 
-1 9.9999999999999995e-007 1e-010 
body $-1 $4 $-1 $5 #
body $-1 $6 $-1 $7 #
body $-1 $8 $-1 $9 #
body $-1 $10 $-1 $11 #
lump $-1 $-1 $12 $0 #
transform $-1 1 0 0 0 1 0 0 0 1 68.11731315042573 35.833984967511931 14.585012583276358 1 rotate no_reflect no_shear #
lump $-1 $-1 $13 $1 #
transform $-1 1 0 0 0 1 0 0 0 1 68.11731315042573 35.833984967511931 14.585012583276358 1 rotate no_reflect no_shear #
lump $-1 $-1 $14 $2 #
transform $-1 1 0 0 0 1 0 0 0 1 68.11731315042573 35.833984967511931 14.585012583276358 1 rotate no_reflect no_shear #
lump $-1 $-1 $15 $3 #
transform $-1 1 0 0 0 1 0 0 0 1 68.11731315042573 35.833984967511931 14.585012583276358 1 rotate no_reflect no_shear #
shell $-1 $-1 $-1 $16 $-1 $4 #
shell $-1 $-1 $-1 $17 $-1 $6 #
shell $-1 $-1 $-1 $18 $-1 $8 #
shell $-1 $-1 $-1 $19 $-1 $10 #
face $-1 $20 $21 $12 $-1 $22 forward single #
face $-1 $23 $24 $13 $-1 $25 reversed single #
face $-1 $26 $27 $14 $-1 $28 forward single #
face $-1 $29 $30 $15 $-1 $31 reversed single #
face $-1 $32 $33 $12 $-1 $34 reversed single #
loop $-1 $-1 $35 $16 #
plane-surface $-1 0 0 14.585012583276358 0 0 1 1 0 0 forward_v I I I I #
face $-1 $36 $37 $13 $-1 $38 forward single #
loop $-1 $-1 $39 $17 #
plane-surface $-1 -61.992409068570176 0 -7.8443126852502809 0 0 1 1 0 0 forward_v I I I I #
face $-1 $40 $41 $14 $-1 $42 forward single #
loop $-1 $-1 $43 $18 #
plane-surface $-1 54.235569252610041 -132.16641417496112 105.89579882070525 1 0 0 0 0.70710678939079041 -0.70710677298230451 forward_v I I I I #
face $-1 $44 $45 $15 $-1 $46 reversed single #
loop $-1 $47 $48 $19 #
cone-surface $-1 61.176441201517889 -31.660977077888795 10.412004673960608 0 0.70710678939079041 -0.70710677298230451 1.5 0 0 1 I I 0 1 1.5 forward I I I I #
face $-1 $49 $50 $12 $-1 $51 reversed single #
loop $-1 $-1 $52 $20 #
plane-surface $-1 0 0 -14.585012583276358 0 0 1 1 0 0 forward_v I I I I #
coedge $-1 $53 $54 $55 $56 forward $21 $-1 #
face $-1 $57 $58 $13 $-1 $59 reversed single #
loop $-1 $-1 $60 $23 #
plane-surface $-1 -55.867504986714621 0 -11.21466263426332 -1 0 0 0 0 1 forward_v I I I I #
coedge $-1 $61 $62 $63 $64 reversed $24 $-1 #
face $-1 $65 $66 $14 $-1 $67 reversed single #
loop $-1 $-1 $68 $26 #
plane-surface $-1 61.176441201517889 -35.83398496751191 9.5633718486599832 0 -0.70710678939079041 0.70710677298230451 1 0 0 forward_v I I I I #
coedge $-1 $69 $70 $71 $72 reversed $27 $-1 #
face $-1 $73 $74 $15 $-1 $75 forward single #
loop $-1 $76 $77 $29 #
cone-surface $-1 61.176441201517889 -29.468459405266898 8.2194870522163104 0 0.70710678939079041 -0.70710677298230451 0.75 0 0 1 I I -0.70710678118654757 0.70710678118654757 0.75 forward I I I I #
loop $-1 $-1 $78 $19 #
coedge $-1 $48 $48 $79 $80 reversed $30 $-1 #
face $-1 $81 $82 $12 $-1 $83 reversed single #
loop $-1 $-1 $84 $32 #
plane-surface $-1 0 -35.833984967511931 0 0 1 0 0 0 1 forward_v I I I I #
coedge $-1 $85 $86 $87 $88 forward $33 $-1 #
coedge $-1 $89 $35 $90 $91 forward $21 $-1 #
coedge $-1 $35 $89 $92 $93 forward $21 $-1 #
coedge $-1 $94 $95 $35 $56 reversed $96 $-1 #
edge $-1 $97 -35.833984967511931 $98 35.833984967511931 $55 $99 forward 7 unknown #
face $-1 $100 $101 $13 $-1 $102 reversed single #
loop $-1 $-1 $103 $36 #
plane-surface $-1 -68.11731315042573 0 0 1 0 0 0 0 -1 forward_v I I I I #
coedge $-1 $63 $104 $105 $106 reversed $37 $-1 #
coedge $-1 $107 $39 $108 $109 reversed $24 $-1 #
coedge $-1 $39 $107 $110 $111 reversed $24 $-1 #
coedge $-1 $112 $60 $39 $64 forward $37 $-1 #
edge $-1 $113 -35.833984967511931 $114 35.833984967511931 $63 $115 forward 7 unknown #
face $-1 $116 $117 $14 $-1 $118 forward single #
loop $-1 $-1 $119 $40 #
plane-surface $-1 0 -35.833984967511931 0 0 1 0 0 0 1 forward_v I I I I #
coedge $-1 $120 $121 $119 $122 reversed $41 $-1 #
coedge $-1 $70 $43 $121 $123 forward $27 $-1 #
coedge $-1 $43 $69 $124 $125 reversed $27 $-1 #
coedge $-1 $126 $119 $43 $72 forward $66 $-1 #
edge $-1 $127 -43.384527561692664 $128 -38.362886827076267 $71 $129 forward 7 unknown #
face $-1 $130 $131 $15 $-1 $132 forward single #
loop $-1 $-1 $133 $44 #
plane-surface $-1 54.235569252610041 -132.16641417496112 105.89579882070525 1 0 0 0 0.70710678939079041 -0.70710677298230451 forward_v I I I I #
loop $-1 $-1 $134 $29 #
coedge $-1 $77 $77 $78 $135 forward $45 $-1 #
coedge $-1 $78 $78 $77 $135 reversed $47 $-1 #
coedge $-1 $79 $79 $48 $80 forward $131 $-1 #
edge $-1 $136 -1.6747654641466497e-015 $136 6.2831853071795987 $79 $137 forward 7 unknown #
face $-1 $138 $139 $12 $-1 $140 reversed single #
loop $-1 $-1 $141 $49 #
plane-surface $-1 -68.11731315042573 0 0 1 0 0 0 0 -1 forward_v I I I I #
coedge $-1 $142 $92 $143 $144 forward $50 $-1 #
coedge $-1 $145 $52 $142 $146 forward $33 $-1 #
coedge $-1 $52 $145 $147 $148 forward $33 $-1 #
coedge $-1 $95 $94 $52 $88 reversed $96 $-1 #
edge $-1 $149 -35.833984967511931 $150 35.833984967511931 $87 $151 forward 7 unknown #
coedge $-1 $54 $53 $152 $153 forward $21 $-1 #
coedge $-1 $154 $155 $53 $91 reversed $139 $-1 #
edge $-1 $98 -68.11731315042573 $156 68.11731315042573 $90 $157 forward 7 unknown #
coedge $-1 $84 $158 $54 $93 reversed $50 $-1 #
edge $-1 $159 -68.11731315042573 $97 68.11731315042573 $92 $160 forward 7 unknown #
coedge $-1 $87 $55 $158 $161 forward $96 $-1 #
coedge $-1 $55 $87 $154 $162 reversed $96 $-1 #
loop $-1 $-1 $94 $138 #
vertex $-1 $56 $163 #
vertex $-1 $56 $164 #
straight-curve $-1 68.11731315042573 0 14.585012583276358 0 1 0 I I #
face $-1 $165 $166 $13 $-1 $167 forward single #
loop $-1 $-1 $108 $57 #
plane-surface $-1 0 -35.833984967511931 0 0 1 0 0 0 1 forward_v I I I I #
coedge $-1 $168 $169 $107 $170 forward $58 $-1 #
coedge $-1 $60 $112 $171 $172 reversed $37 $-1 #
coedge $-1 $173 $108 $60 $106 forward $101 $-1 #
edge $-1 $113 2.236981368118621 $174 8.9776812661446996 $105 $175 forward 7 unknown #
coedge $-1 $62 $61 $103 $170 reversed $24 $-1 #
coedge $-1 $105 $176 $61 $109 forward $101 $-1 #
edge $-1 $177 -37.121108616140646 $113 -24.871300452429534 $108 $178 forward 7 unknown #
coedge $-1 $179 $180 $62 $111 forward $181 $-1 #
edge $-1 $114 24.871300452429534 $182 37.121108616140646 $110 $183 forward 7 unknown #
coedge $-1 $104 $63 $180 $184 reversed $37 $-1 #
vertex $-1 $109 $185 #
vertex $-1 $111 $186 #
straight-curve $-1 -55.867504986714621 0 -7.8443126852502809 0 1 0 I I #
face $-1 $187 $188 $14 $-1 $189 reversed single #
loop $-1 $-1 $124 $65 #
plane-surface $-1 0 0 14.585012583276358 0 0 1 1 0 0 forward_v I I I I #
coedge $-1 $71 $190 $68 $122 forward $66 $-1 #
coedge $-1 $191 $68 $192 $193 reversed $41 $-1 #
coedge $-1 $68 $191 $69 $123 reversed $41 $-1 #
edge $-1 $194 -37.529092549666785 $127 -23.647348651851097 $119 $195 forward 7 unknown #
edge $-1 $127 -3.0145775206728491e-014 $196 7.1016723498621497 $69 $197 forward 7 unknown #
coedge $-1 $198 $199 $70 $125 forward $117 $-1 #
edge $-1 $128 30.249222119968628 $196 35.270862738057332 $124 $200 forward 7 unknown #
coedge $-1 $201 $71 $199 $202 reversed $66 $-1 #
vertex $-1 $122 $203 #
vertex $-1 $125 $204 #
straight-curve $-1 54.235569252610041 -35.833984967511931 52.947899410352626 0 0 1 I I #
face $-1 $205 $206 $15 $-1 $207 reversed single #
loop $-1 $208 $79 $73 #
plane-surface $-1 61.176441201517889 -35.83398496751191 9.5633718486599832 0 -0.70710678939079041 0.70710677298230451 1 0 0 forward_v I I I I #
coedge $-1 $209 $210 $211 $212 reversed $74 $-1 #
coedge $-1 $134 $134 $-1 $213 forward $76 $-1 #
edge $-1 $214 0 $214 6.2831853071796004 $77 $215 forward 7 unknown #
vertex $-1 $80 $216 #
ellipse-curve $-1 61.176441201517889 -33.323164658467583 12.074192215968159 0 0.70710678939079041 -0.70710677298230451 1.5 0 0 1 I I #
face $-1 $-1 $96 $12 $-1 $217 reversed single #
loop $-1 $-1 $154 $81 #
plane-surface $-1 0 35.833984967511931 0 0 -1 0 0 0 -1 forward_v I I I I #
coedge $-1 $218 $152 $155 $219 forward $82 $-1 #
coedge $-1 $158 $84 $85 $146 reversed $50 $-1 #
coedge $-1 $152 $218 $84 $144 reversed $82 $-1 #
edge $-1 $159 -14.585012583276358 $220 14.585012583276358 $143 $221 forward 7 unknown #
coedge $-1 $86 $85 $218 $222 forward $33 $-1 #
edge $-1 $150 -68.11731315042573 $220 68.11731315042573 $142 $223 forward 7 unknown #
coedge $-1 $155 $154 $86 $148 reversed $139 $-1 #
edge $-1 $224 -68.11731315042573 $149 68.11731315042573 $147 $225 forward 7 unknown #
vertex $-1 $88 $226 #
vertex $-1 $161 $227 #
straight-curve $-1 68.11731315042573 0 -14.585012583276358 0 -1 0 I I #
coedge $-1 $141 $143 $89 $153 reversed $82 $-1 #
edge $-1 $156 -35.833984967511931 $159 35.833984967511931 $152 $228 forward 7 unknown #
coedge $-1 $147 $90 $95 $162 forward $139 $-1 #
coedge $-1 $90 $147 $141 $219 reversed $139 $-1 #
vertex $-1 $91 $229 #
straight-curve $-1 0 35.833984967511931 14.585012583276358 -1 0 0 I I #
coedge $-1 $92 $142 $94 $161 reversed $50 $-1 #
vertex $-1 $153 $230 #
straight-curve $-1 0 -35.833984967511931 14.585012583276358 1 0 0 I I #
edge $-1 $97 -14.585012583276358 $150 14.585012583276358 $94 $231 forward 7 unknown #
edge $-1 $98 -14.585012583276358 $149 14.585012583276358 $95 $232 forward 7 unknown #
point $-1 68.11731315042573 -35.833984967511931 14.585012583276358 #
point $-1 68.11731315042573 35.833984967511931 14.585012583276358 #
face $-1 $233 $234 $13 $-1 $235 reversed single #
loop $-1 $-1 $236 $100 #
plane-surface $-1 0 0 14.585012583276358 0 0 1 1 0 0 forward_v I I I I #
coedge $-1 $237 $103 $176 $238 reversed $58 $-1 #
coedge $-1 $103 $237 $179 $239 forward $58 $-1 #
edge $-1 $182 -35.833984967511931 $177 35.833984967511931 $103 $240 forward 7 unknown #
coedge $-1 $241 $242 $104 $172 forward $234 $-1 #
edge $-1 $174 -35.833984967511931 $243 35.833984967511931 $171 $244 forward 7 unknown #
coedge $-1 $245 $105 $242 $246 reversed $101 $-1 #
vertex $-1 $106 $247 #
straight-curve $-1 -55.867504986714621 -35.833984967511931 -5.6073313171316599 0 0 -1 I I #
coedge $-1 $108 $248 $168 $238 forward $101 $-1 #
vertex $-1 $109 $249 #
straight-curve $-1 -30.996204534285088 -35.833984967511931 -7.8443126852502809 1 0 0 I I #
coedge $-1 $250 $110 $169 $239 reversed $181 $-1 #
coedge $-1 $110 $251 $112 $184 forward $181 $-1 #
loop $-1 $-1 $110 $233 #
vertex $-1 $170 $252 #
straight-curve $-1 -30.996204534285088 35.833984967511931 -7.8443126852502809 -1 0 0 I I #
edge $-1 $243 -8.9776812661446996 $114 -2.236981368118621 $180 $253 forward 7 unknown #
point $-1 -55.867504986714621 -35.833984967511931 -7.8443126852502809 #
point $-1 -55.867504986714621 35.833984967511931 -7.8443126852502809 #
face $-1 $254 $255 $14 $-1 $256 forward single #
loop $-1 $-1 $257 $116 #
plane-surface $-1 -61.992409068570176 0 -7.8443126852502809 0 0 1 1 0 0 forward_v I I I I #
coedge $-1 $119 $258 $259 $260 reversed $66 $-1 #
coedge $-1 $121 $120 $198 $261 reversed $41 $-1 #
coedge $-1 $259 $262 $120 $193 forward $263 $-1 #
edge $-1 $264 2.1863918050466165 $194 9.2880641549087954 $192 $265 forward 7 unknown #
vertex $-1 $260 $266 #
straight-curve $-1 30.588220600758945 -35.833984967511931 9.5633718486599637 -1 0 0 I I #
vertex $-1 $261 $267 #
straight-curve $-1 54.235569252610041 -35.83398496751191 9.5633718486599832 0 0.70710677298230451 0.70710678939079041 I I #
coedge $-1 $268 $124 $191 $261 forward $117 $-1 #
coedge $-1 $124 $269 $126 $202 forward $117 $-1 #
straight-curve $-1 54.235569252610041 -66.083207087480559 14.58501258327636 0 1 0 I I #
coedge $-1 $270 $126 $271 $272 forward $66 $-1 #
edge $-1 $273 -68.11731315042573 $128 54.235569252610041 $126 $274 forward 7 unknown #
point $-1 54.235569252610041 -35.833984967511931 9.5633718486599619 #
point $-1 54.235569252610041 -35.833984967511931 14.585012583276358 #
face $-1 $275 $276 $15 $-1 $277 forward single #
loop $-1 $-1 $278 $130 #
plane-surface $-1 0 -35.833984967511931 0 0 1 0 0 0 1 forward_v I I I I #
loop $-1 $-1 $279 $73 #
coedge $-1 $210 $133 $280 $281 forward $74 $-1 #
coedge $-1 $133 $209 $282 $283 reversed $74 $-1 #
coedge $-1 $284 $278 $133 $212 forward $206 $-1 #
edge $-1 $285 -43.384527561692664 $286 -38.362886827076267 $211 $287 forward 7 unknown #
edge $-1 $288 1 $288 0 $134 $-1 forward 7 unknown #
vertex $-1 $135 $289 #
ellipse-curve $-1 61.176441201517889 -29.998789497309993 8.7498171319530389 0 -0.70710678939079041 0.70710677298230451 1.5 0 0 1 I I #
point $-1 62.676441201517889 -33.323164658467597 12.074192215968177 #
plane-surface $-1 68.11731315042573 0 0 -1 0 0 0 0 1 forward_v I I I I #
coedge $-1 $143 $141 $145 $222 reversed $82 $-1 #
edge $-1 $156 -14.585012583276358 $224 14.585012583276358 $155 $290 forward 7 unknown #
vertex $-1 $222 $291 #
straight-curve $-1 -68.11731315042573 -35.833984967511931 0 0 0 -1 I I #
edge $-1 $220 -35.833984967511931 $224 35.833984967511931 $218 $292 forward 7 unknown #
straight-curve $-1 0 -35.833984967511931 -14.585012583276358 -1 0 0 I I #
vertex $-1 $148 $293 #
straight-curve $-1 0 35.833984967511931 -14.585012583276358 1 0 0 I I #
point $-1 68.11731315042573 35.833984967511931 -14.585012583276358 #
point $-1 68.11731315042573 -35.833984967511931 -14.585012583276358 #
straight-curve $-1 -68.11731315042573 0 14.585012583276358 0 -1 0 I I #
point $-1 -68.11731315042573 35.833984967511931 14.585012583276358 #
point $-1 -68.11731315042573 -35.833984967511931 14.585012583276358 #
straight-curve $-1 68.11731315042573 -35.833984967511931 0 0 0 -1 I I #
straight-curve $-1 68.11731315042573 35.833984967511931 0 0 0 -1 I I #
face $-1 $294 $181 $13 $-1 $295 reversed single #
loop $-1 $-1 $171 $165 #
plane-surface $-1 0 0 -14.585012583276358 0 0 1 1 0 0 forward_v I I I I #
coedge $-1 $296 $297 $298 $299 forward $166 $-1 #
coedge $-1 $169 $168 $300 $301 reversed $58 $-1 #
edge $-1 $302 -14.585012583276358 $177 7.8443126852502809 $168 $303 forward 7 unknown #
edge $-1 $304 -14.585012583276358 $182 7.8443126852502809 $179 $305 forward 7 unknown #
straight-curve $-1 -68.11731315042573 0 -7.8443126852502809 0 -1 0 I I #
coedge $-1 $306 $171 $251 $307 forward $234 $-1 #
coedge $-1 $171 $306 $173 $246 forward $234 $-1 #
vertex $-1 $307 $308 #
straight-curve $-1 -55.867504986714621 0 -14.585012583276358 0 1 0 I I #
coedge $-1 $248 $173 $309 $310 reversed $101 $-1 #
edge $-1 $311 -68.11731315042573 $174 55.867504986714621 $173 $312 forward 7 unknown #
point $-1 -55.867504986714621 -35.833984967511931 -14.58501258327636 #
coedge $-1 $176 $245 $297 $313 reversed $101 $-1 #
point $-1 -68.11731315042573 -35.833984967511931 -7.8443126852502809 #
coedge $-1 $314 $179 $296 $315 reversed $181 $-1 #
coedge $-1 $180 $314 $241 $307 reversed $181 $-1 #
point $-1 -68.11731315042573 35.833984967511931 -7.8443126852502809 #
straight-curve $-1 -55.867504986714621 35.833984967511931 -5.6073313171316599 0 0 1 I I #
face $-1 $316 $317 $14 $-1 $318 reversed single #
loop $-1 $-1 $319 $187 #
plane-surface $-1 -55.867504986714621 0 -11.21466263426332 -1 0 0 0 0 1 forward_v I I I I #
coedge $-1 $320 $321 $322 $323 reversed $188 $-1 #
coedge $-1 $190 $324 $325 $326 reversed $66 $-1 #
coedge $-1 $327 $192 $190 $260 forward $263 $-1 #
edge $-1 $194 -9.5633718486599619 $328 14.585012583276358 $259 $329 forward 7 unknown #
edge $-1 $196 23.647348651851097 $264 37.529092549666785 $198 $330 forward 7 unknown #
coedge $-1 $192 $331 $268 $332 reversed $263 $-1 #
loop $-1 $-1 $192 $333 #
vertex $-1 $332 $334 #
straight-curve $-1 68.11731315042573 -29.266331895681759 16.131025072893205 0 -0.70710677298230462 -0.70710678939079052 I I #
point $-1 68.11731315042573 -35.833984967511931 9.5633718486599619 #
point $-1 54.235569252610041 -30.812344349423228 14.585012583276358 #
coedge $-1 $335 $198 $262 $332 forward $117 $-1 #
coedge $-1 $199 $335 $336 $337 forward $117 $-1 #
coedge $-1 $324 $201 $320 $338 forward $66 $-1 #
coedge $-1 $336 $339 $201 $272 reversed $317 $-1 #
edge $-1 $273 -14.585012583276358 $340 7.8443126852502809 $271 $341 forward 7 unknown #
vertex $-1 $337 $342 #
straight-curve $-1 0 -35.833984967511931 14.585012583276358 1 0 0 I I #
face $-1 $343 $344 $15 $-1 $345 reversed single #
loop $-1 $-1 $282 $205 #
plane-surface $-1 0 0 14.585012583276358 0 0 1 1 0 0 forward_v I I I I #
coedge $-1 $211 $346 $279 $347 forward $206 $-1 #
coedge $-1 $348 $280 $278 $347 reversed $208 $-1 #
coedge $-1 $279 $349 $209 $281 reversed $208 $-1 #
edge $-1 $285 -3.0145775206728491e-014 $350 7.1016723498621497 $209 $351 forward 7 unknown #
coedge $-1 $352 $353 $210 $283 forward $276 $-1 #
edge $-1 $286 30.249222119968628 $350 35.270862738057332 $282 $354 forward 7 unknown #
coedge $-1 $355 $211 $353 $356 reversed $206 $-1 #
vertex $-1 $347 $357 #
vertex $-1 $283 $358 #
straight-curve $-1 54.235569252610041 -35.833984967511931 52.947899410352626 0 0 1 I I #
vertex $-1 $213 $359 #
point $-1 62.676441201517889 -29.998789497309993 8.7498171319530389 #
straight-curve $-1 -68.11731315042573 35.833984967511931 0 0 0 -1 I I #
point $-1 -68.11731315042573 -35.833984967511931 -14.585012583276358 #
straight-curve $-1 -68.11731315042573 0 -14.585012583276358 0 1 0 I I #
point $-1 -68.11731315042573 35.833984967511931 -14.585012583276358 #
face $-1 $-1 $360 $13 $-1 $361 reversed single #
plane-surface $-1 0 35.833984967511931 0 0 -1 0 0 0 -1 forward_v I I I I #
coedge $-1 $300 $236 $250 $315 forward $166 $-1 #
coedge $-1 $236 $300 $248 $313 forward $166 $-1 #
coedge $-1 $309 $362 $236 $299 reversed $360 $-1 #
edge $-1 $363 -35.833984967511931 $364 35.833984967511931 $298 $365 forward 7 unknown #
coedge $-1 $297 $296 $237 $301 forward $166 $-1 #
edge $-1 $304 -35.833984967511931 $302 35.833984967511931 $237 $366 forward 7 unknown #
vertex $-1 $301 $367 #
straight-curve $-1 -68.11731315042573 -35.833984967511931 0 0 0 -1 I I #
vertex $-1 $315 $368 #
straight-curve $-1 -68.11731315042573 35.833984967511931 0 0 0 -1 I I #
coedge $-1 $242 $241 $369 $370 forward $234 $-1 #
edge $-1 $243 -55.867504986714621 $371 68.11731315042573 $251 $372 forward 7 unknown #
point $-1 -55.867504986714621 35.833984967511931 -14.58501258327636 #
coedge $-1 $369 $298 $245 $310 forward $360 $-1 #
edge $-1 $363 -14.585012583276358 $311 14.585012583276358 $309 $373 forward 7 unknown #
vertex $-1 $310 $374 #
straight-curve $-1 0 -35.833984967511931 -14.585012583276358 -1 0 0 I I #
edge $-1 $302 -68.11731315042573 $363 68.11731315042573 $248 $375 forward 7 unknown #
coedge $-1 $251 $250 $362 $376 forward $181 $-1 #
edge $-1 $364 -68.11731315042573 $304 68.11731315042573 $250 $377 forward 7 unknown #
face $-1 $378 $379 $14 $-1 $380 reversed single #
loop $-1 $-1 $339 $254 #
plane-surface $-1 -68.11731315042573 0 0 1 0 0 0 0 -1 forward_v I I I I #
coedge $-1 $322 $381 $324 $382 reversed $255 $-1 #
coedge $-1 $383 $257 $270 $338 reversed $188 $-1 #
coedge $-1 $257 $383 $384 $385 reversed $188 $-1 #
coedge $-1 $386 $319 $257 $323 forward $255 $-1 #
edge $-1 $387 -35.833984967511931 $388 35.833984967511931 $322 $389 forward 7 unknown #
coedge $-1 $258 $270 $319 $382 forward $66 $-1 #
coedge $-1 $390 $391 $258 $326 forward $379 $-1 #
edge $-1 $328 -68.11731315042573 $392 55.867504986714621 $258 $393 forward 7 unknown #
coedge $-1 $331 $259 $391 $394 reversed $263 $-1 #
vertex $-1 $260 $395 #
straight-curve $-1 68.11731315042573 -35.833984967511931 0 0 0 -1 I I #
straight-curve $-1 30.588220600758945 -30.812344349423228 14.585012583276356 1 0 0 I I #
coedge $-1 $262 $327 $396 $397 reversed $263 $-1 #
edge $-1 $264 -30.812344349423228 $398 35.833984967511931 $262 $399 forward 7 unknown #
face $-1 $-1 $263 $14 $-1 $400 reversed single #
point $-1 68.11731315042573 -30.812344349423228 14.585012583276358 #
coedge $-1 $269 $268 $401 $402 forward $117 $-1 #
coedge $-1 $403 $271 $269 $337 reversed $317 $-1 #
edge $-1 $404 -35.833984967511931 $273 35.833984967511931 $336 $405 forward 7 unknown #
edge $-1 $340 -37.121108616140646 $387 -24.871300452429534 $270 $406 forward 7 unknown #
coedge $-1 $271 $403 $383 $407 forward $317 $-1 #
vertex $-1 $338 $408 #
straight-curve $-1 -68.11731315042573 -35.833984967511931 0 0 0 -1 I I #
point $-1 -68.11731315042573 -35.833984967511931 14.585012583276358 #
face $-1 $409 $410 $15 $-1 $411 forward single #
loop $-1 $-1 $412 $275 #
plane-surface $-1 -61.992409068570176 0 -7.8443126852502809 0 0 1 1 0 0 forward_v I I I I #
coedge $-1 $278 $413 $414 $415 reversed $206 $-1 #
edge $-1 $416 -37.529092549666785 $285 -23.647348651851097 $278 $417 forward 7 unknown #
coedge $-1 $349 $279 $418 $419 reversed $208 $-1 #
coedge $-1 $280 $348 $352 $420 reversed $208 $-1 #
vertex $-1 $420 $421 #
straight-curve $-1 54.235569252610041 -35.83398496751191 9.5633718486599832 0 0.70710677298230451 0.70710678939079041 I I #
coedge $-1 $422 $282 $349 $420 forward $276 $-1 #
coedge $-1 $282 $423 $284 $356 forward $276 $-1 #
straight-curve $-1 54.235569252610041 -66.083207087480559 14.58501258327636 0 1 0 I I #
coedge $-1 $424 $284 $425 $426 forward $206 $-1 #
edge $-1 $427 -68.11731315042573 $286 54.235569252610041 $284 $428 forward 7 unknown #
point $-1 54.235569252610041 -35.833984967511931 9.5633718486599619 #
point $-1 54.235569252610041 -35.833984967511931 14.585012583276358 #
point $-1 61.176441201517889 -28.938129313223804 7.6891569724795819 #
loop $-1 $-1 $309 $294 #
plane-surface $-1 68.11731315042573 0 0 -1 0 0 0 0 1 forward_v I I I I #
coedge $-1 $298 $369 $314 $376 reversed $360 $-1 #
vertex $-1 $299 $429 #
vertex $-1 $299 $430 #
straight-curve $-1 68.11731315042573 0 14.585012583276358 0 1 0 I I #
straight-curve $-1 -68.11731315042573 0 14.585012583276358 0 -1 0 I I #
point $-1 -68.11731315042573 -35.833984967511931 14.585012583276358 #
point $-1 -68.11731315042573 35.833984967511931 14.585012583276358 #
coedge $-1 $362 $309 $306 $370 reversed $360 $-1 #
edge $-1 $371 -35.833984967511931 $311 35.833984967511931 $369 $431 forward 7 unknown #
vertex $-1 $370 $432 #
straight-curve $-1 0 35.833984967511931 -14.585012583276358 1 0 0 I I #
straight-curve $-1 68.11731315042573 -35.833984967511931 0 0 0 -1 I I #
point $-1 68.11731315042573 -35.833984967511931 -14.585012583276358 #
straight-curve $-1 0 -35.833984967511931 14.585012583276358 1 0 0 I I #
edge $-1 $364 -14.585012583276358 $371 14.585012583276358 $362 $433 forward 7 unknown #
straight-curve $-1 0 35.833984967511931 14.585012583276358 -1 0 0 I I #
face $-1 $333 $434 $14 $-1 $435 reversed single #
loop $-1 $-1 $390 $316 #
plane-surface $-1 0 0 -14.585012583276358 0 0 1 1 0 0 forward_v I I I I #
coedge $-1 $319 $386 $390 $436 reversed $255 $-1 #
edge $-1 $387 2.236981368118621 $392 8.9776812661446996 $324 $437 forward 7 unknown #
coedge $-1 $321 $320 $339 $407 reversed $188 $-1 #
coedge $-1 $438 $439 $321 $385 forward $434 $-1 #
edge $-1 $388 24.871300452429534 $440 37.121108616140646 $384 $441 forward 7 unknown #
coedge $-1 $381 $322 $439 $442 reversed $255 $-1 #
vertex $-1 $338 $443 #
vertex $-1 $385 $444 #
straight-curve $-1 -55.867504986714621 0 -7.8443126852502809 0 1 0 I I #
coedge $-1 $445 $325 $381 $436 forward $379 $-1 #
coedge $-1 $325 $445 $327 $394 forward $379 $-1 #
vertex $-1 $382 $446 #
straight-curve $-1 0 -35.833984967511931 -14.585012583276358 -1 0 0 I I #
edge $-1 $447 -35.833984967511931 $328 35.833984967511931 $327 $448 forward 7 unknown #
point $-1 68.11731315042573 -35.833984967511931 -14.585012583276358 #
coedge $-1 $449 $401 $331 $397 forward $434 $-1 #
edge $-1 $398 -14.585012583276358 $447 14.585012583276358 $331 $450 forward 7 unknown #
vertex $-1 $332 $451 #
straight-curve $-1 68.11731315042573 0 14.585012583276358 0 1 0 I I #
plane-surface $-1 68.11731315042573 0 0 -1 0 0 0 0 1 forward_v I I I I #
coedge $-1 $396 $438 $335 $402 reversed $434 $-1 #
edge $-1 $398 -68.11731315042573 $404 68.11731315042573 $401 $452 forward 7 unknown #
coedge $-1 $339 $336 $438 $453 forward $317 $-1 #
vertex $-1 $402 $454 #
straight-curve $-1 -68.11731315042573 0 14.585012583276358 0 -1 0 I I #
straight-curve $-1 -30.996204534285088 -35.833984967511931 -7.8443126852502809 1 0 0 I I #
edge $-1 $440 -35.833984967511931 $340 35.833984967511931 $339 $455 forward 7 unknown #
point $-1 -68.11731315042573 -35.833984967511931 -7.8443126852502809 #
face $-1 $456 $457 $15 $-1 $458 reversed single #
loop $-1 $-1 $459 $343 #
plane-surface $-1 -55.867504986714621 0 -11.21466263426332 -1 0 0 0 0 1 forward_v I I I I #
coedge $-1 $460 $461 $462 $463 reversed $344 $-1 #
coedge $-1 $346 $464 $465 $466 reversed $206 $-1 #
coedge $-1 $467 $418 $346 $415 forward $468 $-1 #
edge $-1 $416 -9.5633718486599619 $469 14.585012583276358 $414 $470 forward 7 unknown #
vertex $-1 $415 $471 #
straight-curve $-1 30.588220600758945 -35.833984967511931 9.5633718486599637 -1 0 0 I I #
coedge $-1 $414 $472 $348 $419 forward $468 $-1 #
edge $-1 $473 2.1863918050466165 $416 9.2880641549087954 $418 $474 forward 7 unknown #
edge $-1 $350 23.647348651851097 $473 37.529092549666785 $352 $475 forward 7 unknown #
point $-1 54.235569252610041 -30.812344349423228 14.585012583276358 #
coedge $-1 $476 $352 $472 $477 forward $276 $-1 #
coedge $-1 $353 $476 $478 $479 forward $276 $-1 #
coedge $-1 $464 $355 $460 $480 forward $206 $-1 #
coedge $-1 $478 $481 $355 $426 reversed $457 $-1 #
edge $-1 $427 -14.585012583276358 $482 7.8443126852502809 $425 $483 forward 7 unknown #
vertex $-1 $479 $484 #
straight-curve $-1 0 -35.833984967511931 14.585012583276358 1 0 0 I I #
point $-1 68.11731315042573 -35.833984967511931 14.585012583276358 #
point $-1 68.11731315042573 35.833984967511931 14.585012583276358 #
straight-curve $-1 68.11731315042573 0 -14.585012583276358 0 -1 0 I I #
point $-1 68.11731315042573 35.833984967511931 -14.585012583276358 #
straight-curve $-1 68.11731315042573 35.833984967511931 0 0 0 -1 I I #
loop $-1 $-1 $384 $378 #
plane-surface $-1 0 35.833984967511931 0 0 -1 0 0 0 -1 forward_v I I I I #
edge $-1 $392 -35.833984967511931 $485 35.833984967511931 $390 $486 forward 7 unknown #
straight-curve $-1 -55.867504986714621 -35.833984967511931 -5.6073313171316599 0 0 -1 I I #
coedge $-1 $401 $384 $403 $453 reversed $434 $-1 #
coedge $-1 $384 $449 $386 $442 forward $434 $-1 #
vertex $-1 $407 $487 #
straight-curve $-1 -30.996204534285088 35.833984967511931 -7.8443126852502809 -1 0 0 I I #
edge $-1 $485 -8.9776812661446996 $388 -2.236981368118621 $439 $488 forward 7 unknown #
point $-1 -55.867504986714621 -35.833984967511931 -7.8443126852502809 #
point $-1 -55.867504986714621 35.833984967511931 -7.8443126852502809 #
coedge $-1 $391 $390 $449 $489 forward $379 $-1 #
point $-1 -55.867504986714621 -35.833984967511931 -14.58501258327636 #
vertex $-1 $394 $490 #
straight-curve $-1 68.11731315042573 0 -14.585012583276358 0 -1 0 I I #
coedge $-1 $439 $396 $445 $489 reversed $434 $-1 #
straight-curve $-1 68.11731315042573 35.833984967511931 0 0 0 -1 I I #
point $-1 68.11731315042573 35.833984967511931 14.585012583276358 #
straight-curve $-1 0 35.833984967511931 14.585012583276358 -1 0 0 I I #
edge $-1 $404 -14.585012583276358 $440 7.8443126852502809 $438 $491 forward 7 unknown #
point $-1 -68.11731315042573 35.833984967511931 14.585012583276358 #
straight-curve $-1 -68.11731315042573 0 -7.8443126852502809 0 -1 0 I I #
face $-1 $492 $493 $15 $-1 $494 reversed single #
loop $-1 $-1 $481 $409 #
plane-surface $-1 -68.11731315042573 0 0 1 0 0 0 0 -1 forward_v I I I I #
coedge $-1 $462 $495 $464 $496 reversed $410 $-1 #
coedge $-1 $497 $412 $424 $480 reversed $344 $-1 #
coedge $-1 $412 $497 $498 $499 reversed $344 $-1 #
coedge $-1 $500 $459 $412 $463 forward $410 $-1 #
edge $-1 $501 -35.833984967511931 $502 35.833984967511931 $462 $503 forward 7 unknown #
coedge $-1 $413 $424 $459 $496 forward $206 $-1 #
coedge $-1 $504 $505 $413 $466 forward $493 $-1 #
edge $-1 $469 -68.11731315042573 $506 55.867504986714621 $413 $507 forward 7 unknown #
coedge $-1 $508 $414 $505 $509 reversed $468 $-1 #
loop $-1 $-1 $418 $510 #
vertex $-1 $415 $511 #
straight-curve $-1 68.11731315042573 -35.833984967511931 0 0 0 -1 I I #
point $-1 68.11731315042573 -35.833984967511931 9.5633718486599619 #
coedge $-1 $418 $508 $422 $477 reversed $468 $-1 #
vertex $-1 $477 $512 #
straight-curve $-1 68.11731315042573 -29.266331895681759 16.131025072893205 0 -0.70710677298230462 -0.70710678939079052 I I #
straight-curve $-1 30.588220600758945 -30.812344349423228 14.585012583276356 1 0 0 I I #
coedge $-1 $423 $422 $513 $514 forward $276 $-1 #
edge $-1 $473 -30.812344349423228 $515 35.833984967511931 $472 $516 forward 7 unknown #
coedge $-1 $517 $425 $423 $479 reversed $457 $-1 #
edge $-1 $518 -35.833984967511931 $427 35.833984967511931 $478 $519 forward 7 unknown #
edge $-1 $482 -37.121108616140646 $501 -24.871300452429534 $424 $520 forward 7 unknown #
coedge $-1 $425 $517 $497 $521 forward $457 $-1 #
vertex $-1 $480 $522 #
straight-curve $-1 -68.11731315042573 -35.833984967511931 0 0 0 -1 I I #
point $-1 -68.11731315042573 -35.833984967511931 14.585012583276358 #
vertex $-1 $489 $523 #
straight-curve $-1 -55.867504986714621 0 -14.585012583276358 0 1 0 I I #
point $-1 -68.11731315042573 35.833984967511931 -7.8443126852502809 #
straight-curve $-1 -55.867504986714621 35.833984967511931 -5.6073313171316599 0 0 1 I I #
edge $-1 $485 -55.867504986714621 $447 68.11731315042573 $449 $524 forward 7 unknown #
point $-1 68.11731315042573 35.833984967511931 -14.585012583276358 #
straight-curve $-1 -68.11731315042573 35.833984967511931 0 0 0 -1 I I #
face $-1 $510 $525 $15 $-1 $526 reversed single #
loop $-1 $-1 $504 $456 #
plane-surface $-1 0 0 -14.585012583276358 0 0 1 1 0 0 forward_v I I I I #
coedge $-1 $459 $500 $504 $527 reversed $410 $-1 #
edge $-1 $501 2.236981368118621 $506 8.9776812661446996 $464 $528 forward 7 unknown #
coedge $-1 $461 $460 $481 $521 reversed $344 $-1 #
coedge $-1 $529 $530 $461 $499 forward $525 $-1 #
edge $-1 $502 24.871300452429534 $531 37.121108616140646 $498 $532 forward 7 unknown #
coedge $-1 $495 $462 $530 $533 reversed $410 $-1 #
vertex $-1 $480 $534 #
vertex $-1 $499 $535 #
straight-curve $-1 -55.867504986714621 0 -7.8443126852502809 0 1 0 I I #
coedge $-1 $536 $465 $495 $527 forward $493 $-1 #
coedge $-1 $465 $536 $467 $509 forward $493 $-1 #
vertex $-1 $496 $537 #
straight-curve $-1 0 -35.833984967511931 -14.585012583276358 -1 0 0 I I #
coedge $-1 $472 $467 $538 $539 reversed $468 $-1 #
edge $-1 $540 -35.833984967511931 $469 35.833984967511931 $467 $541 forward 7 unknown #
face $-1 $-1 $468 $15 $-1 $542 reversed single #
point $-1 68.11731315042573 -35.833984967511931 -14.585012583276358 #
point $-1 68.11731315042573 -30.812344349423228 14.585012583276358 #
coedge $-1 $538 $529 $476 $514 reversed $525 $-1 #
edge $-1 $515 -68.11731315042573 $518 68.11731315042573 $513 $543 forward 7 unknown #
vertex $-1 $477 $544 #
straight-curve $-1 68.11731315042573 0 14.585012583276358 0 1 0 I I #
coedge $-1 $481 $478 $529 $545 forward $457 $-1 #
vertex $-1 $514 $546 #
straight-curve $-1 -68.11731315042573 0 14.585012583276358 0 -1 0 I I #
straight-curve $-1 -30.996204534285088 -35.833984967511931 -7.8443126852502809 1 0 0 I I #
edge $-1 $531 -35.833984967511931 $482 35.833984967511931 $481 $547 forward 7 unknown #
point $-1 -68.11731315042573 -35.833984967511931 -7.8443126852502809 #
point $-1 -55.867504986714621 35.833984967511931 -14.58501258327636 #
straight-curve $-1 0 35.833984967511931 -14.585012583276358 1 0 0 I I #
loop $-1 $-1 $498 $492 #
plane-surface $-1 0 35.833984967511931 0 0 -1 0 0 0 -1 forward_v I I I I #
edge $-1 $506 -35.833984967511931 $548 35.833984967511931 $504 $549 forward 7 unknown #
straight-curve $-1 -55.867504986714621 -35.833984967511931 -5.6073313171316599 0 0 -1 I I #
coedge $-1 $513 $498 $517 $545 reversed $525 $-1 #
coedge $-1 $498 $550 $500 $533 forward $525 $-1 #
vertex $-1 $521 $551 #
straight-curve $-1 -30.996204534285088 35.833984967511931 -7.8443126852502809 -1 0 0 I I #
edge $-1 $548 -8.9776812661446996 $502 -2.236981368118621 $530 $552 forward 7 unknown #
point $-1 -55.867504986714621 -35.833984967511931 -7.8443126852502809 #
point $-1 -55.867504986714621 35.833984967511931 -7.8443126852502809 #
coedge $-1 $505 $504 $550 $553 forward $493 $-1 #
point $-1 -55.867504986714621 -35.833984967511931 -14.58501258327636 #
coedge $-1 $550 $513 $508 $539 forward $525 $-1 #
edge $-1 $515 -14.585012583276358 $540 14.585012583276358 $508 $554 forward 7 unknown #
vertex $-1 $509 $555 #
straight-curve $-1 68.11731315042573 0 -14.585012583276358 0 -1 0 I I #
plane-surface $-1 68.11731315042573 0 0 -1 0 0 0 0 1 forward_v I I I I #
straight-curve $-1 0 35.833984967511931 14.585012583276358 -1 0 0 I I #
point $-1 68.11731315042573 35.833984967511931 14.585012583276358 #
edge $-1 $518 -14.585012583276358 $531 7.8443126852502809 $529 $556 forward 7 unknown #
point $-1 -68.11731315042573 35.833984967511931 14.585012583276358 #
straight-curve $-1 -68.11731315042573 0 -7.8443126852502809 0 -1 0 I I #
vertex $-1 $553 $557 #
straight-curve $-1 -55.867504986714621 0 -14.585012583276358 0 1 0 I I #
coedge $-1 $530 $538 $536 $553 reversed $525 $-1 #
point $-1 -68.11731315042573 35.833984967511931 -7.8443126852502809 #
straight-curve $-1 -55.867504986714621 35.833984967511931 -5.6073313171316599 0 0 1 I I #
edge $-1 $548 -55.867504986714621 $540 68.11731315042573 $550 $558 forward 7 unknown #
straight-curve $-1 68.11731315042573 35.833984967511931 0 0 0 -1 I I #
point $-1 68.11731315042573 35.833984967511931 -14.585012583276358 #
straight-curve $-1 -68.11731315042573 35.833984967511931 0 0 0 -1 I I #
point $-1 -55.867504986714621 35.833984967511931 -14.58501258327636 #
straight-curve $-1 0 35.833984967511931 -14.585012583276358 1 0 0 I I #
End-of-ACIS-data 