500 0 10 0           
7 Unknown 11 ACIS 5.0 NT 24 Thu Mar 25 15:34:58 1999 
-1 9.9999999999999995e-007 1e-010 
body $-1 $10 $-1 $11 #
body $-1 $12 $-1 $13 #
body $-1 $14 $-1 $15 #
body $-1 $16 $-1 $17 #
body $-1 $18 $-1 $19 #
body $-1 $20 $-1 $21 #
body $-1 $22 $-1 $23 #
body $-1 $24 $-1 $25 #
body $-1 $26 $-1 $27 #
body $-1 $28 $-1 $29 #
lump $-1 $-1 $30 $0 #
transform $-1 1 0 0 0 1 0 0 0 1 63.750724814600055 29.428410089439907 11.437087042603272 1 rotate no_reflect no_shear #
lump $-1 $-1 $31 $1 #
transform $-1 1 0 0 0 1 0 0 0 1 63.750724814600055 29.428410089439907 11.437087042603272 1 rotate no_reflect no_shear #
lump $-1 $-1 $32 $2 #
transform $-1 1 0 0 0 1 0 0 0 1 63.750724814600055 29.428410089439907 11.437087042603272 1 rotate no_reflect no_shear #
lump $-1 $-1 $33 $3 #
transform $-1 1 0 0 0 1 0 0 0 1 63.750724814600055 29.428410089439907 11.437087042603272 1 rotate no_reflect no_shear #
lump $-1 $-1 $34 $4 #
transform $-1 1 0 0 0 1 0 0 0 1 63.750724814600055 29.428410089439907 11.437087042603272 1 rotate no_reflect no_shear #
lump $-1 $-1 $35 $5 #
transform $-1 1 0 0 0 1 0 0 0 1 63.750724814600055 29.428410089439907 11.437087042603272 1 rotate no_reflect no_shear #
lump $-1 $-1 $36 $6 #
transform $-1 1 0 0 0 1 0 0 0 1 63.750724814600055 29.428410089439907 11.437087042603272 1 rotate no_reflect no_shear #
lump $-1 $-1 $37 $7 #
transform $-1 1 0 0 0 1 0 0 0 1 63.750724814600055 29.428410089439907 11.437087042603272 1 rotate no_reflect no_shear #
lump $-1 $-1 $38 $8 #
transform $-1 1 0 0 0 1 0 0 0 1 63.750724814600055 29.428410089439907 11.437087042603272 1 rotate no_reflect no_shear #
lump $-1 $-1 $39 $9 #
transform $-1 1 0 0 0 1 0 0 0 1 63.750724814600055 29.428410089439907 11.437087042603272 1 rotate no_reflect no_shear #
shell $-1 $-1 $-1 $40 $-1 $10 #
shell $-1 $-1 $-1 $41 $-1 $12 #
shell $-1 $-1 $-1 $42 $-1 $14 #
shell $-1 $-1 $-1 $43 $-1 $16 #
shell $-1 $-1 $-1 $44 $-1 $18 #
shell $-1 $-1 $-1 $45 $-1 $20 #
shell $-1 $-1 $-1 $46 $-1 $22 #
shell $-1 $-1 $-1 $47 $-1 $24 #
shell $-1 $-1 $-1 $48 $-1 $26 #
shell $-1 $-1 $-1 $49 $-1 $28 #
face $-1 $50 $51 $30 $-1 $52 reversed single #
face $-1 $53 $54 $31 $-1 $55 forward single #
face $-1 $56 $57 $32 $-1 $58 forward single #
face $-1 $59 $60 $33 $-1 $61 reversed single #
face $-1 $62 $63 $34 $-1 $64 forward single #
face $-1 $65 $66 $35 $-1 $67 forward single #
face $-1 $68 $69 $36 $-1 $70 reversed single #
face $-1 $71 $72 $37 $-1 $73 forward single #
face $-1 $74 $75 $38 $-1 $76 forward single #
face $-1 $77 $78 $39 $-1 $79 forward single #
face $-1 $80 $81 $30 $-1 $82 forward single #
loop $-1 $-1 $83 $40 #
plane-surface $-1 63.750724814600055 0 0 -1 0 0 0 0 1 forward_v I I I I #
face $-1 $84 $85 $31 $-1 $86 reversed single #
loop $-1 $-1 $87 $41 #
plane-surface $-1 -63.750724814600055 0 0 1 0 0 0 0 -1 forward_v I I I I #
face $-1 $88 $89 $32 $-1 $90 reversed single #
loop $-1 $-1 $91 $42 #
plane-surface $-1 63.750724814600055 0 0 -1 0 0 0 0 1 forward_v I I I I #
face $-1 $92 $93 $33 $-1 $94 reversed single #
loop $-1 $-1 $95 $43 #
plane-surface $-1 -42.199884696635635 110.41949617299004 117.51930978904163 1 0 0 0 -0.86602541151947299 -0.49999998660252726 forward_v I I I I #
face $-1 $96 $97 $34 $-1 $98 forward single #
loop $-1 $99 $100 $44 #
cone-surface $-1 -34.509895451545617 26.501243652833253 6.8670859112487523 0 -0.86602541151947299 -0.49999998660252726 0.5 0 0 1 I I 0 1 0.5 forward I I I I #
face $-1 $101 $102 $35 $-1 $103 forward single #
loop $-1 $104 $105 $45 #
cone-surface $-1 -22.974911583910604 26.501243652833253 6.8670859112487523 0 -0.86602541151947299 -0.49999998660252726 0.5 0 0 1 I I 0 1 0.5 forward I I I I #
face $-1 $106 $107 $36 $-1 $108 reversed single #
loop $-1 $-1 $109 $46 #
plane-surface $-1 -11.457031996894099 -119.58555077941519 95.165781963228568 -1 0 0 0 -0.70710678939079041 0.70710677298230451 forward_v I I I I #
face $-1 $110 $111 $37 $-1 $112 forward single #
loop $-1 $113 $114 $47 #
cone-surface $-1 -37.778276474748878 -25.680367693391435 7.6890445843558108 0 0.70710678939079041 -0.70710677298230451 1 0 0 1 I I 0 1 1 forward I I I I #
face $-1 $115 $116 $38 $-1 $117 forward single #
loop $-1 $118 $119 $48 #
cone-surface $-1 -27.907809795553341 -25.680367693391435 7.6890445843558108 0 0.70710678939079041 -0.70710677298230451 1 0 0 1 I I 0 1 1 forward I I I I #
face $-1 $120 $121 $39 $-1 $122 forward single #
loop $-1 $123 $124 $49 #
cone-surface $-1 -18.037343116357796 -25.680367693391435 7.6890445843558108 0 0.70710678939079041 -0.70710677298230451 1 0 0 1 I I 0 1 1 forward I I I I #
face $-1 $125 $126 $30 $-1 $127 reversed single #
loop $-1 $-1 $128 $50 #
plane-surface $-1 0 0 11.437087042603272 0 0 1 1 0 0 forward_v I I I I #
coedge $-1 $129 $130 $131 $132 reversed $51 $-1 #
face $-1 $133 $134 $31 $-1 $135 forward single #
loop $-1 $-1 $136 $53 #
plane-surface $-1 0 29.428410089439907 0 0 -1 0 0 0 -1 forward_v I I I I #
coedge $-1 $137 $138 $139 $140 forward $54 $-1 #
face $-1 $141 $142 $32 $-1 $143 forward single #
loop $-1 $-1 $144 $56 #
plane-surface $-1 0 -29.428410089439907 0 0 1 0 0 0 1 forward_v I I I I #
coedge $-1 $145 $146 $147 $148 forward $57 $-1 #
face $-1 $149 $150 $33 $-1 $151 reversed single #
loop $-1 $-1 $152 $59 #
plane-surface $-1 -28.742403517728114 7.8853264540157397e-007 53.768586682638762 0 0.86602541151947299 0.49999998660252726 1 0 0 forward_v I I I I #
coedge $-1 $153 $154 $155 $156 reversed $60 $-1 #
face $-1 $-1 $157 $34 $-1 $158 forward single #
loop $-1 $159 $160 $62 #
cone-surface $-1 -34.509895451545617 25.851724594193648 6.4920859212968569 0 -0.86602541151947299 -0.49999998660252726 0.25 0 0 1 I I -0.70710678118654746 0.70710678118654746 0.25 forward I I I I #
loop $-1 $-1 $161 $44 #
coedge $-1 $100 $100 $162 $163 reversed $63 $-1 #
face $-1 $-1 $164 $35 $-1 $165 forward single #
loop $-1 $166 $167 $65 #
cone-surface $-1 -22.974911583910604 25.851724594193648 6.4920859212968569 0 -0.86602541151947299 -0.49999998660252726 0.25 0 0 1 I I -0.70710678118654746 0.70710678118654746 0.25 forward I I I I #
loop $-1 $-1 $168 $45 #
coedge $-1 $105 $105 $169 $170 reversed $66 $-1 #
face $-1 $171 $172 $36 $-1 $173 reversed single #
loop $-1 $-1 $174 $68 #
plane-surface $-1 -27.907809795553341 -29.428410089439907 5.0086433653590205 0 -0.70710678939079041 0.70710677298230451 1 0 0 forward_v I I I I #
coedge $-1 $175 $176 $177 $178 reversed $69 $-1 #
face $-1 $-1 $179 $37 $-1 $180 forward single #
loop $-1 $181 $182 $71 #
cone-surface $-1 -37.778276474748878 -24.792993666683344 6.8016705782393263 0 0.70710678939079041 -0.70710677298230451 0.5 0 0 1 I I -0.70710678118654746 0.70710678118654746 0.5 forward I I I I #
loop $-1 $-1 $183 $47 #
coedge $-1 $114 $114 $184 $185 reversed $72 $-1 #
face $-1 $-1 $186 $38 $-1 $187 forward single #
loop $-1 $188 $189 $74 #
cone-surface $-1 -27.907809795553341 -24.792993666683344 6.8016705782393263 0 0.70710678939079041 -0.70710677298230451 0.5 0 0 1 I I -0.70710678118654746 0.70710678118654746 0.5 forward I I I I #
loop $-1 $-1 $190 $48 #
coedge $-1 $119 $119 $191 $192 reversed $75 $-1 #
face $-1 $-1 $193 $39 $-1 $194 forward single #
loop $-1 $195 $196 $77 #
cone-surface $-1 -18.037343116357796 -24.792993666683344 6.8016705782393263 0 0.70710678939079041 -0.70710677298230451 0.5 0 0 1 I I -0.70710678118654746 0.70710678118654746 0.5 forward I I I I #
loop $-1 $-1 $197 $49 #
coedge $-1 $124 $124 $198 $199 reversed $78 $-1 #
face $-1 $200 $201 $30 $-1 $202 reversed single #
loop $-1 $-1 $203 $80 #
plane-surface $-1 0 0 -11.437087042603272 0 0 1 1 0 0 forward_v I I I I #
coedge $-1 $204 $205 $129 $206 forward $81 $-1 #
coedge $-1 $207 $83 $128 $206 reversed $51 $-1 #
coedge $-1 $83 $207 $203 $208 reversed $51 $-1 #
coedge $-1 $209 $210 $83 $132 forward $211 $-1 #
edge $-1 $212 -11.437087042603272 $213 11.437087042603272 $83 $214 forward 7 unknown #
face $-1 $215 $216 $31 $-1 $217 reversed single #
loop $-1 $-1 $139 $84 #
plane-surface $-1 -67.900694204203148 0 -1.4201290775109148 0 0 1 1 0 0 forward_v I I I I #
coedge $-1 $218 $219 $138 $220 forward $85 $-1 #
coedge $-1 $221 $87 $222 $223 reversed $54 $-1 #
coedge $-1 $87 $221 $136 $220 reversed $54 $-1 #
coedge $-1 $224 $225 $87 $140 reversed $134 $-1 #
edge $-1 $226 -29.428410089439907 $227 29.428410089439907 $139 $228 forward 7 unknown #
face $-1 $229 $230 $32 $-1 $231 reversed single #
loop $-1 $-1 $232 $88 #
plane-surface $-1 67.900694204203148 0 -1.4201290775109148 0 0 1 1 0 0 forward_v I I I I #
coedge $-1 $233 $234 $146 $235 forward $89 $-1 #
coedge $-1 $236 $91 $237 $238 reversed $57 $-1 #
coedge $-1 $91 $236 $144 $235 reversed $57 $-1 #
coedge $-1 $239 $240 $91 $148 reversed $142 $-1 #
edge $-1 $241 -29.428410089439907 $242 29.428410089439907 $147 $243 forward 7 unknown #
face $-1 $244 $245 $33 $-1 $246 reversed single #
loop $-1 $-1 $247 $92 #
plane-surface $-1 -15.284922338820596 110.41949617299004 117.51930978904163 -1 0 0 0 0.86602541151947299 0.49999998660252726 forward_v I I I I #
coedge $-1 $248 $249 $250 $251 reversed $93 $-1 #
coedge $-1 $154 $95 $252 $253 reversed $60 $-1 #
coedge $-1 $95 $153 $248 $254 reversed $60 $-1 #
coedge $-1 $250 $255 $95 $156 forward $256 $-1 #
edge $-1 $257 25.781337997055111 $258 30.769645458748954 $155 $259 forward 7 unknown #
loop $-1 $-1 $162 $96 #
plane-surface $-1 -28.742403517728114 7.8853264540157397e-007 53.768586682638762 0 0.86602541151947299 0.49999998660252726 1 0 0 forward_v I I I I #
loop $-1 $-1 $260 $62 #
coedge $-1 $160 $160 $161 $261 reversed $97 $-1 #
coedge $-1 $161 $161 $160 $261 forward $99 $-1 #
coedge $-1 $162 $162 $100 $163 forward $157 $-1 #
edge $-1 $262 4.7597325791166719e-016 $262 6.2831853071796013 $162 $263 forward 7 unknown #
loop $-1 $-1 $169 $101 #
plane-surface $-1 -28.742403517728114 7.8853264540157397e-007 53.768586682638762 0 0.86602541151947299 0.49999998660252726 1 0 0 forward_v I I I I #
loop $-1 $-1 $264 $65 #
coedge $-1 $167 $167 $168 $265 reversed $102 $-1 #
coedge $-1 $168 $168 $167 $265 forward $104 $-1 #
coedge $-1 $169 $169 $105 $170 forward $164 $-1 #
edge $-1 $266 4.7597325791166719e-016 $266 6.2831853071796013 $169 $267 forward 7 unknown #
face $-1 $268 $269 $36 $-1 $270 forward single #
loop $-1 $-1 $271 $106 #
plane-surface $-1 -44.35858759421258 -119.58555077941519 95.165781963228568 1 0 0 0 0.70710678939079041 -0.70710677298230451 forward_v I I I I #
coedge $-1 $272 $273 $274 $275 reversed $107 $-1 #
coedge $-1 $176 $109 $276 $277 reversed $69 $-1 #
coedge $-1 $109 $175 $272 $278 reversed $69 $-1 #
coedge $-1 $274 $279 $109 $178 forward $269 $-1 #
edge $-1 $280 30.364365300267686 $281 36.79280882833924 $177 $282 forward 7 unknown #
loop $-1 $-1 $184 $110 #
plane-surface $-1 -27.907809795553341 -29.428410089439907 5.0086433653590205 0 -0.70710678939079041 0.70710677298230451 1 0 0 forward_v I I I I #
loop $-1 $-1 $283 $71 #
coedge $-1 $182 $182 $183 $284 reversed $111 $-1 #
coedge $-1 $183 $183 $182 $284 forward $113 $-1 #
coedge $-1 $184 $184 $114 $185 forward $179 $-1 #
edge $-1 $285 -1.256073981520683e-015 $285 6.2831853071795996 $184 $286 forward 7 unknown #
loop $-1 $-1 $191 $115 #
plane-surface $-1 -27.907809795553341 -29.428410089439907 5.0086433653590205 0 -0.70710678939079041 0.70710677298230451 1 0 0 forward_v I I I I #
loop $-1 $-1 $287 $74 #
coedge $-1 $189 $189 $190 $288 reversed $116 $-1 #
coedge $-1 $190 $190 $189 $288 forward $118 $-1 #
coedge $-1 $191 $191 $119 $192 forward $186 $-1 #
edge $-1 $289 -1.256073981520683e-015 $289 6.2831853071795996 $191 $290 forward 7 unknown #
loop $-1 $-1 $198 $120 #
plane-surface $-1 -27.907809795553341 -29.428410089439907 5.0086433653590205 0 -0.70710678939079041 0.70710677298230451 1 0 0 forward_v I I I I #
loop $-1 $-1 $291 $77 #
coedge $-1 $196 $196 $197 $292 reversed $121 $-1 #
coedge $-1 $197 $197 $196 $292 forward $123 $-1 #
coedge $-1 $198 $198 $124 $199 forward $193 $-1 #
edge $-1 $293 -1.256073981520683e-015 $293 6.2831853071795996 $198 $294 forward 7 unknown #
face $-1 $295 $296 $30 $-1 $297 reversed single #
loop $-1 $-1 $298 $125 #
plane-surface $-1 0 -29.428410089439907 0 0 1 0 0 0 1 forward_v I I I I #
coedge $-1 $299 $300 $130 $208 forward $126 $-1 #
coedge $-1 $301 $128 $210 $302 forward $81 $-1 #
coedge $-1 $128 $301 $303 $304 forward $81 $-1 #
edge $-1 $305 -29.428410089439907 $212 29.428410089439907 $129 $306 forward 7 unknown #
coedge $-1 $130 $129 $307 $308 forward $51 $-1 #
edge $-1 $213 -29.428410089439907 $309 29.428410089439907 $130 $310 forward 7 unknown #
coedge $-1 $311 $131 $300 $312 reversed $211 $-1 #
coedge $-1 $131 $311 $204 $302 reversed $211 $-1 #
loop $-1 $-1 $131 $295 #
vertex $-1 $206 $313 #
vertex $-1 $208 $314 #
straight-curve $-1 63.750724814600055 29.428410089439907 0 0 0 -1 I I #
face $-1 $315 $316 $31 $-1 $317 reversed single #
loop $-1 $-1 $318 $133 #
plane-surface $-1 -67.900694204203148 0 -7.3258642788854331 0 0 1 1 0 0 forward_v I I I I #
coedge $-1 $319 $136 $320 $321 reversed $85 $-1 #
coedge $-1 $136 $319 $224 $322 reversed $85 $-1 #
edge $-1 $226 1.4201290775109148 $323 7.3258642788854331 $136 $324 forward 7 unknown #
coedge $-1 $138 $137 $318 $325 forward $54 $-1 #
coedge $-1 $326 $327 $137 $223 forward $328 $-1 #
edge $-1 $329 -7.3258642788854331 $227 -1.4201290775109148 $222 $330 forward 7 unknown #
coedge $-1 $331 $139 $219 $322 forward $134 $-1 #
coedge $-1 $139 $331 $326 $332 forward $134 $-1 #
vertex $-1 $220 $333 #
vertex $-1 $332 $334 #
straight-curve $-1 -63.750724814600055 0 -1.4201290775109148 0 -1 0 I I #
face $-1 $335 $336 $32 $-1 $337 reversed single #
loop $-1 $-1 $338 $141 #
plane-surface $-1 67.900694204203148 0 -7.3258642788854331 0 0 1 1 0 0 forward_v I I I I #
coedge $-1 $240 $239 $339 $340 forward $142 $-1 #
coedge $-1 $341 $144 $342 $343 reversed $89 $-1 #
coedge $-1 $144 $341 $239 $344 reversed $89 $-1 #
edge $-1 $241 1.4201290775109148 $345 7.3258642788854331 $144 $346 forward 7 unknown #
coedge $-1 $146 $145 $347 $348 forward $57 $-1 #
coedge $-1 $349 $350 $145 $238 forward $351 $-1 #
edge $-1 $352 -7.3258642788854331 $242 -1.4201290775109148 $237 $353 forward 7 unknown #
coedge $-1 $232 $147 $234 $344 forward $142 $-1 #
coedge $-1 $147 $232 $349 $354 forward $142 $-1 #
vertex $-1 $235 $355 #
vertex $-1 $354 $356 #
straight-curve $-1 63.750724814600055 0 -1.4201290775109148 0 1 0 I I #
face $-1 $-1 $256 $33 $-1 $357 forward single #
loop $-1 $-1 $358 $149 #
plane-surface $-1 0 29.428410089439907 0 0 -1 0 0 0 -1 forward_v I I I I #
coedge $-1 $359 $360 $361 $362 reversed $150 $-1 #
coedge $-1 $363 $152 $154 $254 forward $93 $-1 #
coedge $-1 $152 $363 $359 $364 forward $93 $-1 #
coedge $-1 $361 $155 $152 $251 forward $256 $-1 #
edge $-1 $258 -27.828682937771578 $365 -0.91372057995653932 $250 $366 forward 7 unknown #
coedge $-1 $367 $368 $153 $253 forward $245 $-1 #
edge $-1 $369 -55.962570128024062 $257 -47.32256785191754 $252 $370 forward 7 unknown #
edge $-1 $258 48.880204988169268 $369 58.856820178879815 $154 $371 forward 7 unknown #
coedge $-1 $155 $361 $367 $372 forward $256 $-1 #
loop $-1 $-1 $361 $244 #
vertex $-1 $253 $373 #
vertex $-1 $156 $374 #
straight-curve $-1 -42.199884696635635 55.209748086495019 11.437087042603274 0 -1 0 I I #
coedge $-1 $260 $260 $-1 $375 reversed $159 $-1 #
edge $-1 $376 0 $376 6.2831853071796004 $160 $377 forward 7 unknown #
vertex $-1 $163 $378 #
ellipse-curve $-1 -34.509895451545617 26.934256358592986 7.1170859045500139 0 0.86602541151947299 0.49999998660252726 0.5 0 0 1 I I #
coedge $-1 $264 $264 $-1 $379 reversed $166 $-1 #
edge $-1 $380 0 $380 6.2831853071796004 $167 $381 forward 7 unknown #
vertex $-1 $170 $382 #
ellipse-curve $-1 -22.974911583910604 26.934256358592986 7.1170859045500139 0 0.86602541151947299 0.49999998660252726 0.5 0 0 1 I I #
face $-1 $-1 $383 $36 $-1 $384 reversed single #
loop $-1 $-1 $177 $171 #
plane-surface $-1 0 0 11.437087042603272 0 0 1 1 0 0 forward_v I I I I #
coedge $-1 $385 $386 $387 $388 reversed $172 $-1 #
coedge $-1 $389 $174 $176 $278 forward $107 $-1 #
coedge $-1 $174 $389 $385 $390 forward $107 $-1 #
coedge $-1 $387 $177 $174 $275 forward $269 $-1 #
edge $-1 $281 -2.4968729008825719 $391 30.404682696435909 $274 $392 forward 7 unknown #
coedge $-1 $393 $394 $175 $277 forward $383 $-1 #
edge $-1 $395 -42.574247616255263 $280 -36.14580393901101 $276 $396 forward 7 unknown #
edge $-1 $281 -9.0911921278293697 $395 0 $176 $397 forward 7 unknown #
coedge $-1 $177 $387 $393 $398 forward $269 $-1 #
vertex $-1 $277 $399 #
vertex $-1 $178 $400 #
straight-curve $-1 -11.457031996894099 -59.792775389707593 11.437087042603274 0 1 0 I I #
coedge $-1 $283 $283 $-1 $401 reversed $181 $-1 #
edge $-1 $402 0 $402 6.2831853071796004 $182 $403 forward 7 unknown #
vertex $-1 $185 $404 #
ellipse-curve $-1 -37.778276474748878 -26.21418832540413 8.2228652039811454 0 -0.70710678939079041 0.70710677298230451 1 0 0 1 I I #
coedge $-1 $287 $287 $-1 $405 reversed $188 $-1 #
edge $-1 $406 0 $406 6.2831853071796004 $189 $407 forward 7 unknown #
vertex $-1 $192 $408 #
ellipse-curve $-1 -27.907809795553341 -26.21418832540413 8.2228652039811454 0 -0.70710678939079041 0.70710677298230451 1 0 0 1 I I #
coedge $-1 $291 $291 $-1 $409 reversed $195 $-1 #
edge $-1 $410 0 $410 6.2831853071796004 $196 $411 forward 7 unknown #
vertex $-1 $199 $412 #
ellipse-curve $-1 -18.037343116357796 -26.21418832540413 8.2228652039811454 0 -0.70710678939079041 0.70710677298230451 1 0 0 1 I I #
face $-1 $-1 $211 $30 $-1 $413 reversed single #
loop $-1 $-1 $414 $200 #
plane-surface $-1 -63.750724814600055 0 0 1 0 0 0 0 -1 forward_v I I I I #
coedge $-1 $415 $303 $414 $416 forward $201 $-1 #
coedge $-1 $417 $203 $415 $418 forward $126 $-1 #
coedge $-1 $203 $417 $209 $312 forward $126 $-1 #
coedge $-1 $205 $204 $419 $420 forward $81 $-1 #
edge $-1 $212 -63.750724814600055 $421 63.750724814600055 $210 $422 forward 7 unknown #
coedge $-1 $298 $307 $205 $304 reversed $201 $-1 #
edge $-1 $423 -63.750724814600055 $305 63.750724814600055 $303 $424 forward 7 unknown #
vertex $-1 $206 $425 #
straight-curve $-1 63.750724814600055 0 11.437087042603272 0 1 0 I I #
coedge $-1 $303 $415 $207 $308 reversed $201 $-1 #
edge $-1 $305 -11.437087042603272 $309 11.437087042603272 $207 $426 forward 7 unknown #
vertex $-1 $308 $427 #
straight-curve $-1 63.750724814600055 0 -11.437087042603272 0 -1 0 I I #
coedge $-1 $210 $209 $428 $429 reversed $211 $-1 #
edge $-1 $430 -63.750724814600055 $213 63.750724814600055 $209 $431 forward 7 unknown #
point $-1 63.750724814600055 29.428410089439907 11.437087042603272 #
point $-1 63.750724814600055 29.428410089439907 -11.437087042603272 #
face $-1 $-1 $328 $31 $-1 $432 reversed single #
loop $-1 $-1 $433 $215 #
plane-surface $-1 -72.050663593806249 0 -4.3729966781981737 1 0 0 0 0 -1 forward_v I I I I #
coedge $-1 $434 $320 $221 $325 reversed $216 $-1 #
coedge $-1 $219 $218 $433 $435 reversed $85 $-1 #
coedge $-1 $318 $436 $218 $321 forward $216 $-1 #
edge $-1 $437 -4.1499693896031005 $323 4.1499693896030934 $218 $438 forward 7 unknown #
edge $-1 $226 -4.1499693896030934 $439 4.1499693896031005 $219 $440 forward 7 unknown #
vertex $-1 $220 $441 #
straight-curve $-1 -63.750724814600055 29.428410089439907 0 0 0 -1 I I #
edge $-1 $329 -29.428410089439907 $323 29.428410089439907 $318 $442 forward 7 unknown #
coedge $-1 $443 $222 $225 $332 reversed $328 $-1 #
coedge $-1 $222 $443 $434 $444 reversed $328 $-1 #
loop $-1 $-1 $222 $315 #
vertex $-1 $223 $445 #
straight-curve $-1 -63.750724814600055 -29.428410089439907 0 0 0 1 I I #
coedge $-1 $225 $224 $446 $447 forward $134 $-1 #
edge $-1 $448 -4.1499693896031005 $227 4.1499693896030934 $326 $449 forward 7 unknown #
point $-1 -63.750724814600055 29.428410089439907 -1.4201290775109148 #
point $-1 -63.750724814600055 -29.428410089439907 -1.4201290775109148 #
face $-1 $-1 $351 $32 $-1 $450 reversed single #
loop $-1 $-1 $451 $229 #
plane-surface $-1 72.050663593806235 0 -4.3729966781981737 -1 0 0 0 0 1 forward_v I I I I #
coedge $-1 $342 $452 $453 $454 forward $230 $-1 #
coedge $-1 $451 $455 $232 $340 reversed $336 $-1 #
edge $-1 $456 -29.428410089439907 $457 29.428410089439907 $339 $458 forward 7 unknown #
coedge $-1 $234 $233 $451 $459 reversed $89 $-1 #
coedge $-1 $347 $338 $233 $343 forward $230 $-1 #
edge $-1 $460 -4.1499693896030863 $345 4.1499693896030934 $233 $461 forward 7 unknown #
edge $-1 $241 -4.1499693896030934 $456 4.1499693896030863 $234 $462 forward 7 unknown #
vertex $-1 $235 $463 #
straight-curve $-1 63.750724814600055 -29.428410089439907 0 0 0 -1 I I #
coedge $-1 $452 $342 $236 $348 reversed $230 $-1 #
edge $-1 $352 -29.428410089439907 $345 29.428410089439907 $347 $464 forward 7 unknown #
coedge $-1 $465 $237 $240 $354 reversed $351 $-1 #
coedge $-1 $237 $465 $452 $466 reversed $351 $-1 #
loop $-1 $-1 $237 $335 #
vertex $-1 $238 $467 #
straight-curve $-1 63.750724814600055 29.428410089439907 0 0 0 1 I I #
edge $-1 $457 -4.1499693896030863 $242 4.1499693896030934 $349 $468 forward 7 unknown #
point $-1 63.750724814600055 -29.428410089439907 -1.4201290775109148 #
point $-1 63.750724814600055 29.428410089439907 -1.4201290775109148 #
plane-surface $-1 0 0 11.437087042603272 0 0 1 1 0 0 forward_v I I I I #
coedge $-1 $368 $367 $360 $469 forward $245 $-1 #
coedge $-1 $360 $247 $249 $364 reversed $150 $-1 #
coedge $-1 $247 $359 $358 $469 reversed $150 $-1 #
coedge $-1 $255 $250 $247 $362 forward $256 $-1 #
edge $-1 $365 -30.769645458748954 $470 -25.781337997055111 $361 $471 forward 7 unknown #
coedge $-1 $249 $248 $368 $472 reversed $93 $-1 #
edge $-1 $473 -58.856820178879815 $365 -48.880204988169268 $359 $474 forward 7 unknown #
vertex $-1 $251 $475 #
straight-curve $-1 -14.371201758864057 24.440102627746064 11.437087042603274 1 0 0 I I #
coedge $-1 $358 $252 $255 $372 reversed $245 $-1 #
coedge $-1 $252 $358 $363 $472 forward $245 $-1 #
vertex $-1 $253 $476 #
straight-curve $-1 -42.199884696635635 29.428410089439907 58.759654894520814 0 0 1 I I #
straight-curve $-1 -42.199884696635635 7.8853264540157397e-007 53.768586682638762 0 0.49999998660252726 -0.86602541151947299 I I #
edge $-1 $470 15.284922338820596 $257 42.199884696635635 $367 $477 forward 7 unknown #
point $-1 -42.199884696635635 29.428410089439907 11.437087042603272 #
point $-1 -42.199884696635635 24.440102627746064 11.437087042603274 #
edge $-1 $478 1 $478 0 $260 $-1 forward 7 unknown #
vertex $-1 $261 $479 #
ellipse-curve $-1 -34.509895451545617 26.068230947073516 6.617085917947489 0 0.86602541151947299 0.49999998660252726 0.5 0 0 1 I I #
point $-1 -34.009895451545617 26.934256358592989 7.1170859045500157 #
edge $-1 $480 1 $480 0 $264 $-1 forward 7 unknown #
vertex $-1 $265 $481 #
ellipse-curve $-1 -22.974911583910604 26.068230947073516 6.617085917947489 0 0.86602541151947299 0.49999998660252726 0.5 0 0 1 I I #
point $-1 -22.474911583910604 26.934256358592989 7.1170859045500157 #
loop $-1 $-1 $276 $268 #
plane-surface $-1 0 -29.428410089439907 0 0 1 0 0 0 1 forward_v I I I I #
coedge $-1 $386 $271 $273 $390 reversed $172 $-1 #
coedge $-1 $271 $385 $482 $483 reversed $172 $-1 #
coedge $-1 $279 $274 $271 $388 forward $269 $-1 #
edge $-1 $391 -36.79280882833924 $484 -30.364365300267686 $387 $485 forward 7 unknown #
coedge $-1 $273 $272 $394 $486 reversed $107 $-1 #
edge $-1 $487 0 $391 9.0911921278293697 $385 $488 forward 7 unknown #
vertex $-1 $275 $489 #
straight-curve $-1 -13.95390489777667 -22.999966561368353 11.437087042603272 -1 0 0 I I #
coedge $-1 $482 $276 $279 $398 reversed $383 $-1 #
coedge $-1 $276 $482 $389 $486 forward $383 $-1 #
vertex $-1 $277 $490 #
straight-curve $-1 -11.457031996894099 -29.428410089439907 47.582890981614284 0 0 1 I I #
straight-curve $-1 -11.457031996894099 -29.428410089439907 5.0086433653590205 0 -0.70710677298230451 -0.70710678939079041 I I #
edge $-1 $484 -44.35858759421258 $280 -11.457031996894099 $393 $491 forward 7 unknown #
point $-1 -11.457031996894099 -29.428410089439907 11.437087042603272 #
point $-1 -11.457031996894099 -22.999966561368353 11.437087042603272 #
edge $-1 $492 1 $492 0 $283 $-1 forward 7 unknown #
vertex $-1 $284 $493 #
ellipse-curve $-1 -37.778276474748878 -25.14654706137874 7.1552239647304789 0 -0.70710678939079041 0.70710677298230451 1 0 0 1 I I #
point $-1 -36.778276474748878 -26.21418832540413 8.2228652039811436 #
edge $-1 $494 1 $494 0 $287 $-1 forward 7 unknown #
vertex $-1 $288 $495 #
ellipse-curve $-1 -27.907809795553341 -25.14654706137874 7.1552239647304789 0 -0.70710678939079041 0.70710677298230451 1 0 0 1 I I #
point $-1 -26.907809795553341 -26.21418832540413 8.2228652039811436 #
edge $-1 $496 1 $496 0 $291 $-1 forward 7 unknown #
vertex $-1 $292 $497 #
ellipse-curve $-1 -18.037343116357796 -25.14654706137874 7.1552239647304789 0 -0.70710678939079041 0.70710677298230451 1 0 0 1 I I #
point $-1 -17.037343116357796 -26.21418832540413 8.2228652039811436 #
plane-surface $-1 0 29.428410089439907 0 0 -1 0 0 0 -1 forward_v I I I I #
coedge $-1 $419 $498 $298 $416 reversed $296 $-1 #
coedge $-1 $307 $298 $299 $418 reversed $201 $-1 #
edge $-1 $423 -11.437087042603272 $499 11.437087042603272 $414 $500 forward 7 unknown #
coedge $-1 $300 $299 $498 $501 forward $126 $-1 #
edge $-1 $309 -63.750724814600055 $499 63.750724814600055 $415 $502 forward 7 unknown #
coedge $-1 $428 $414 $301 $420 reversed $296 $-1 #
edge $-1 $421 -29.428410089439907 $423 29.428410089439907 $419 $503 forward 7 unknown #
vertex $-1 $302 $504 #
straight-curve $-1 0 29.428410089439907 11.437087042603272 -1 0 0 I I #
vertex $-1 $420 $505 #
straight-curve $-1 0 -29.428410089439907 11.437087042603272 1 0 0 I I #
point $-1 63.750724814600055 -29.428410089439907 11.437087042603272 #
straight-curve $-1 63.750724814600055 -29.428410089439907 0 0 0 -1 I I #
point $-1 63.750724814600055 -29.428410089439907 -11.437087042603272 #
coedge $-1 $498 $419 $311 $429 forward $296 $-1 #
edge $-1 $421 -11.437087042603272 $430 11.437087042603272 $311 $506 forward 7 unknown #
vertex $-1 $312 $507 #
straight-curve $-1 0 29.428410089439907 -11.437087042603272 1 0 0 I I #
plane-surface $-1 0 -29.428410089439907 0 0 1 0 0 0 1 forward_v I I I I #
coedge $-1 $508 $446 $319 $435 forward $316 $-1 #
coedge $-1 $436 $318 $327 $444 forward $216 $-1 #
edge $-1 $439 -2.952867600687259 $437 2.9528676006872594 $319 $509 forward 7 unknown #
coedge $-1 $320 $434 $508 $510 forward $216 $-1 #
vertex $-1 $321 $511 #
straight-curve $-1 -67.900694204203148 29.428410089439907 -7.3258642788854331 1 0 0 I I #
vertex $-1 $322 $512 #
straight-curve $-1 -67.900694204203148 29.428410089439907 -1.4201290775109148 -1 0 0 I I #
point $-1 -63.750724814600055 29.428410089439907 -7.3258642788854331 #
straight-curve $-1 -63.750724814600055 0 -7.3258642788854331 0 1 0 I I #
coedge $-1 $327 $326 $513 $514 forward $328 $-1 #
edge $-1 $329 -4.1499693896030934 $515 4.1499693896031005 $327 $516 forward 7 unknown #
point $-1 -63.750724814600055 -29.428410089439907 -7.3258642788854331 #
coedge $-1 $433 $513 $331 $447 reversed $316 $-1 #
edge $-1 $439 -29.428410089439907 $448 29.428410089439907 $446 $517 forward 7 unknown #
vertex $-1 $447 $518 #
straight-curve $-1 -67.900694204203148 -29.428410089439907 -1.4201290775109148 1 0 0 I I #
plane-surface $-1 0 29.428410089439907 0 0 -1 0 0 0 -1 forward_v I I I I #
coedge $-1 $453 $339 $341 $459 forward $336 $-1 #
coedge $-1 $338 $347 $350 $466 forward $230 $-1 #
coedge $-1 $455 $451 $338 $454 reversed $336 $-1 #
edge $-1 $519 -29.428410089439907 $460 29.428410089439907 $453 $520 forward 7 unknown #
coedge $-1 $339 $453 $465 $521 reversed $336 $-1 #
vertex $-1 $340 $522 #
vertex $-1 $340 $523 #
straight-curve $-1 72.050663593806235 0 -1.4201290775109148 0 1 0 I I #
edge $-1 $456 -2.952867600687259 $460 2.9528676006872594 $451 $524 forward 7 unknown #
vertex $-1 $459 $525 #
straight-curve $-1 67.900694204203148 -29.428410089439907 -7.3258642788854331 -1 0 0 I I #
straight-curve $-1 67.900694204203148 -29.428410089439907 -1.4201290775109148 1 0 0 I I #
point $-1 63.750724814600055 -29.428410089439907 -7.3258642788854331 #
straight-curve $-1 63.750724814600055 0 -7.3258642788854331 0 -1 0 I I #
coedge $-1 $350 $349 $455 $521 forward $351 $-1 #
edge $-1 $352 -4.1499693896030934 $519 4.1499693896030863 $350 $526 forward 7 unknown #
point $-1 63.750724814600055 29.428410089439907 -7.3258642788854331 #
straight-curve $-1 67.900694204203148 29.428410089439907 -1.4201290775109148 -1 0 0 I I #
edge $-1 $470 47.32256785191754 $473 55.962570128024062 $358 $527 forward 7 unknown #
vertex $-1 $372 $528 #
straight-curve $-1 -15.284922338820596 55.209748086495019 11.437087042603274 0 1 0 I I #
edge $-1 $473 0.91372057995653932 $369 27.828682937771578 $368 $529 forward 7 unknown #
vertex $-1 $472 $530 #
straight-curve $-1 -15.284922338820596 7.8853264540157397e-007 53.768586682638762 0 -0.49999998660252726 0.86602541151947299 I I #
point $-1 -15.284922338820596 24.440102627746064 11.437087042603274 #
point $-1 -42.199884696635635 29.428410089439907 2.7970847664967522 #
straight-curve $-1 0 29.428410089439907 11.437087042603272 -1 0 0 I I #
vertex $-1 $375 $531 #
point $-1 -34.009895451545617 26.068230947073516 6.617085917947489 #
vertex $-1 $379 $532 #
point $-1 -22.474911583910604 26.068230947073516 6.617085917947489 #
coedge $-1 $394 $393 $386 $483 forward $383 $-1 #
edge $-1 $484 36.14580393901101 $487 42.574247616255263 $482 $533 forward 7 unknown #
vertex $-1 $398 $534 #
straight-curve $-1 -44.35858759421258 -59.792775389707593 11.437087042603274 0 -1 0 I I #
edge $-1 $487 -30.404682696435909 $395 2.4968729008825719 $394 $535 forward 7 unknown #
vertex $-1 $486 $536 #
straight-curve $-1 -44.35858759421258 -29.428410089439907 5.0086433653590205 0 0.70710677298230451 0.70710678939079041 I I #
point $-1 -44.35858759421258 -22.999966561368353 11.437087042603272 #
point $-1 -11.457031996894099 -29.428410089439907 5.0086433653590205 #
straight-curve $-1 0 -29.428410089439907 11.437087042603272 1 0 0 I I #
vertex $-1 $401 $537 #
point $-1 -36.778276474748878 -25.14654706137874 7.1552239647304789 #
vertex $-1 $405 $538 #
point $-1 -26.907809795553341 -25.14654706137874 7.1552239647304789 #
vertex $-1 $409 $539 #
point $-1 -17.037343116357796 -25.14654706137874 7.1552239647304789 #
coedge $-1 $414 $428 $417 $501 reversed $296 $-1 #
vertex $-1 $501 $540 #
straight-curve $-1 -63.750724814600055 -29.428410089439907 0 0 0 -1 I I #
edge $-1 $499 -29.428410089439907 $430 29.428410089439907 $498 $541 forward 7 unknown #
straight-curve $-1 0 -29.428410089439907 -11.437087042603272 -1 0 0 I I #
straight-curve $-1 -63.750724814600055 0 11.437087042603272 0 -1 0 I I #
point $-1 -63.750724814600055 29.428410089439907 11.437087042603272 #
point $-1 -63.750724814600055 -29.428410089439907 11.437087042603272 #
straight-curve $-1 -63.750724814600055 29.428410089439907 0 0 0 -1 I I #
point $-1 -63.750724814600055 29.428410089439907 -11.437087042603272 #
coedge $-1 $513 $433 $436 $510 reversed $316 $-1 #
straight-curve $-1 -72.050663593806249 29.428410089439907 -4.3729966781981737 0 0 -1 I I #
edge $-1 $515 -29.428410089439907 $437 29.428410089439907 $508 $542 forward 7 unknown #
point $-1 -72.050663593806249 29.428410089439907 -7.3258642788854331 #
point $-1 -72.050663593806249 29.428410089439907 -1.4201290775109148 #
coedge $-1 $446 $508 $443 $514 reversed $316 $-1 #
edge $-1 $448 -2.952867600687259 $515 2.9528676006872594 $513 $543 forward 7 unknown #
vertex $-1 $510 $544 #
straight-curve $-1 -67.900694204203148 -29.428410089439907 -7.3258642788854331 -1 0 0 I I #
straight-curve $-1 -72.050663593806249 0 -1.4201290775109148 0 -1 0 I I #
point $-1 -72.050663593806249 -29.428410089439907 -1.4201290775109148 #
vertex $-1 $454 $545 #
straight-curve $-1 72.050663593806235 0 -7.3258642788854331 0 -1 0 I I #
edge $-1 $457 -2.952867600687259 $519 2.9528676006872594 $455 $546 forward 7 unknown #
point $-1 72.050663593806235 -29.428410089439907 -1.4201290775109148 #
point $-1 72.050663593806235 29.428410089439907 -1.4201290775109148 #
straight-curve $-1 72.050663593806235 -29.428410089439907 -4.3729966781981737 0 0 -1 I I #
point $-1 72.050663593806235 -29.428410089439907 -7.3258642788854331 #
straight-curve $-1 67.900694204203148 29.428410089439907 -7.3258642788854331 1 0 0 I I #
straight-curve $-1 -15.284922338820596 29.428410089439907 58.759654894520814 0 0 -1 I I #
point $-1 -15.284922338820596 29.428410089439907 11.437087042603272 #
straight-curve $-1 -14.371201758864057 29.428410089439907 2.7970847664967522 -1 0 0 I I #
point $-1 -15.284922338820596 29.428410089439907 2.7970847664967522 #
point $-1 -34.509895451545617 25.63521824131378 6.3670859246462248 #
point $-1 -22.974911583910604 25.63521824131378 6.3670859246462248 #
straight-curve $-1 -44.35858759421258 -29.428410089439907 47.582890981614284 0 0 -1 I I #
point $-1 -44.35858759421258 -29.428410089439907 11.437087042603272 #
straight-curve $-1 -13.95390489777667 -29.428410089439907 5.0086433653590205 1 0 0 I I #
point $-1 -44.35858759421258 -29.428410089439907 5.0086433653590205 #
point $-1 -37.778276474748878 -24.439440271987948 6.4481171917481737 #
point $-1 -27.907809795553341 -24.439440271987948 6.4481171917481737 #
point $-1 -18.037343116357796 -24.439440271987948 6.4481171917481737 #
point $-1 -63.750724814600055 -29.428410089439907 -11.437087042603272 #
straight-curve $-1 -63.750724814600055 0 -11.437087042603272 0 1 0 I I #
straight-curve $-1 -72.050663593806249 0 -7.3258642788854331 0 1 0 I I #
straight-curve $-1 -72.050663593806249 -29.428410089439907 -4.3729966781981737 0 0 -1 I I #
point $-1 -72.050663593806249 -29.428410089439907 -7.3258642788854331 #
point $-1 72.050663593806235 29.428410089439907 -7.3258642788854331 #
straight-curve $-1 72.050663593806235 29.428410089439907 -4.3729966781981737 0 0 -1 I I #
End-of-ACIS-data 