500 0 3 0           
7 Unknown 11 ACIS 5.0 NT 24 Fri Mar 26 01:09:41 1999 
-1 9.9999999999999995e-007 1e-010 
body $-1 $3 $-1 $4 #
body $-1 $5 $-1 $6 #
body $-1 $7 $-1 $8 #
lump $-1 $-1 $9 $0 #
transform $-1 1 0 0 0 1 0 0 0 1 58.414868617816708 38.154801602403644 18.366168377765192 1 rotate no_reflect no_shear #
lump $-1 $-1 $10 $1 #
transform $-1 1 0 0 0 1 0 0 0 1 58.414868617816708 38.154801602403644 18.366168377765192 1 rotate no_reflect no_shear #
lump $-1 $-1 $11 $2 #
transform $-1 1 0 0 0 1 0 0 0 1 58.414868617816708 38.154801602403644 18.366168377765192 1 rotate no_reflect no_shear #
shell $-1 $-1 $-1 $12 $-1 $3 #
shell $-1 $-1 $-1 $13 $-1 $5 #
shell $-1 $-1 $-1 $14 $-1 $7 #
face $-1 $15 $16 $9 $-1 $17 forward single #
face $-1 $18 $19 $10 $-1 $20 forward single #
face $-1 $21 $22 $11 $-1 $23 reversed single #
face $-1 $24 $25 $9 $-1 $26 reversed single #
loop $-1 $-1 $27 $12 #
plane-surface $-1 0 0 18.366168377765192 0 0 1 1 0 0 forward_v I I I I #
face $-1 $28 $29 $10 $-1 $30 forward single #
loop $-1 $-1 $31 $13 #
plane-surface $-1 -46.834967786929028 0 13.259603430639501 0 0 1 1 0 0 forward_v I I I I #
face $-1 $32 $33 $11 $-1 $34 forward single #
loop $-1 $-1 $35 $14 #
plane-surface $-1 51.795615664631711 0 -9.7315145593959116 0 0 1 1 0 0 forward_v I I I I #
face $-1 $36 $37 $9 $-1 $38 reversed single #
loop $-1 $-1 $39 $15 #
plane-surface $-1 0 0 -18.366168377765192 0 0 1 1 0 0 forward_v I I I I #
coedge $-1 $40 $41 $42 $43 forward $16 $-1 #
face $-1 $44 $45 $10 $-1 $46 forward single #
loop $-1 $-1 $47 $18 #
plane-surface $-1 -35.255066956041347 0 15.812885904202346 -1 0 0 0 0 1 forward_v I I I I #
coedge $-1 $48 $49 $50 $51 reversed $19 $-1 #
face $-1 $52 $53 $11 $-1 $54 forward single #
loop $-1 $-1 $55 $21 #
plane-surface $-1 51.795615664631711 0 -17.866168377765192 0 0 1 1 0 0 forward_v I I I I #
coedge $-1 $56 $57 $58 $59 reversed $22 $-1 #
face $-1 $60 $61 $9 $-1 $62 reversed single #
loop $-1 $-1 $63 $24 #
plane-surface $-1 0 -38.154801602403644 0 0 1 0 0 0 1 forward_v I I I I #
coedge $-1 $64 $65 $66 $67 forward $25 $-1 #
coedge $-1 $68 $27 $69 $70 forward $16 $-1 #
coedge $-1 $27 $68 $71 $72 forward $16 $-1 #
coedge $-1 $73 $74 $27 $43 reversed $75 $-1 #
edge $-1 $76 -38.154801602403644 $77 38.154801602403644 $42 $78 forward 7 unknown #
face $-1 $79 $80 $10 $-1 $81 reversed single #
loop $-1 $-1 $82 $28 #
plane-surface $-1 0 0 18.366168377765192 0 0 1 1 0 0 forward_v I I I I #
coedge $-1 $83 $50 $84 $85 reversed $29 $-1 #
coedge $-1 $86 $31 $87 $88 reversed $19 $-1 #
coedge $-1 $31 $86 $89 $90 reversed $19 $-1 #
coedge $-1 $47 $91 $31 $51 forward $29 $-1 #
edge $-1 $92 -38.154801602403644 $93 38.154801602403644 $50 $94 forward 7 unknown #
face $-1 $95 $96 $11 $-1 $97 reversed single #
loop $-1 $-1 $98 $32 #
plane-surface $-1 45.176362711446714 0 -13.798841468580552 1 0 0 0 0 -1 forward_v I I I I #
coedge $-1 $99 $100 $101 $102 reversed $33 $-1 #
coedge $-1 $103 $35 $104 $105 reversed $22 $-1 #
coedge $-1 $35 $103 $106 $107 reversed $22 $-1 #
coedge $-1 $108 $109 $35 $59 forward $110 $-1 #
edge $-1 $111 -38.154801602403644 $112 38.154801602403644 $58 $113 forward 7 unknown #
face $-1 $114 $115 $9 $-1 $116 reversed single #
loop $-1 $-1 $117 $36 #
plane-surface $-1 -58.414868617816708 0 0 1 0 0 0 0 -1 forward_v I I I I #
coedge $-1 $118 $71 $119 $120 forward $37 $-1 #
coedge $-1 $121 $39 $118 $122 forward $25 $-1 #
coedge $-1 $39 $121 $123 $124 forward $25 $-1 #
coedge $-1 $74 $73 $39 $67 reversed $75 $-1 #
edge $-1 $125 -38.154801602403644 $126 38.154801602403644 $66 $127 forward 7 unknown #
coedge $-1 $41 $40 $128 $129 forward $16 $-1 #
coedge $-1 $130 $131 $40 $70 reversed $115 $-1 #
edge $-1 $77 -58.414868617816708 $132 58.414868617816708 $69 $133 forward 7 unknown #
coedge $-1 $63 $134 $41 $72 reversed $37 $-1 #
edge $-1 $135 -58.414868617816708 $76 58.414868617816708 $71 $136 forward 7 unknown #
coedge $-1 $66 $42 $134 $137 forward $75 $-1 #
coedge $-1 $42 $66 $130 $138 reversed $75 $-1 #
loop $-1 $-1 $73 $114 #
vertex $-1 $43 $139 #
vertex $-1 $43 $140 #
straight-curve $-1 58.414868617816708 0 18.366168377765192 0 1 0 I I #
face $-1 $141 $142 $10 $-1 $143 reversed single #
loop $-1 $-1 $84 $44 #
plane-surface $-1 0 -38.154801602403644 0 0 1 0 0 0 1 forward_v I I I I #
coedge $-1 $144 $145 $83 $146 forward $45 $-1 #
coedge $-1 $91 $47 $82 $146 reversed $29 $-1 #
coedge $-1 $89 $147 $47 $85 forward $80 $-1 #
edge $-1 $148 -10.459725425664018 $93 -5.353160478538328 $84 $149 forward 7 unknown #
coedge $-1 $49 $48 $150 $151 reversed $19 $-1 #
coedge $-1 $152 $153 $48 $88 forward $154 $-1 #
edge $-1 $155 -34.997384724352194 $92 -11.837583062576833 $87 $156 forward 7 unknown #
coedge $-1 $157 $84 $49 $90 forward $80 $-1 #
edge $-1 $93 11.837583062576833 $158 34.997384724352194 $89 $159 forward 7 unknown #
coedge $-1 $50 $83 $152 $160 reversed $29 $-1 #
vertex $-1 $88 $161 #
vertex $-1 $90 $162 #
straight-curve $-1 -35.255066956041347 0 13.259603430639501 0 -1 0 I I #
face $-1 $163 $110 $11 $-1 $97 reversed single #
loop $-1 $-1 $101 $52 #
plane-surface $-1 58.414868617816708 0 0 -1 0 0 0 0 1 forward_v I I I I #
coedge $-1 $164 $165 $166 $167 reversed $53 $-1 #
coedge $-1 $168 $55 $169 $170 reversed $33 $-1 #
coedge $-1 $55 $168 $171 $172 reversed $33 $-1 #
coedge $-1 $173 $174 $55 $102 forward $96 $-1 #
edge $-1 $175 -38.154801602403644 $176 38.154801602403644 $101 $177 forward 7 unknown #
coedge $-1 $57 $56 $164 $178 reversed $22 $-1 #
coedge $-1 $179 $180 $56 $105 forward $181 $-1 #
edge $-1 $182 19.278554879130859 $111 32.517060785500853 $104 $183 forward 7 unknown #
coedge $-1 $166 $184 $57 $107 forward $185 $-1 #
edge $-1 $112 -32.517060785500853 $186 -19.278554879130859 $106 $187 forward 7 unknown #
coedge $-1 $188 $58 $184 $189 reversed $110 $-1 #
coedge $-1 $58 $188 $179 $190 forward $110 $-1 #
loop $-1 $-1 $58 $95 #
vertex $-1 $59 $191 #
vertex $-1 $107 $192 #
straight-curve $-1 58.414868617816708 0 -9.7315145593959116 0 1 0 I I #
face $-1 $-1 $75 $9 $-1 $193 reversed single #
loop $-1 $-1 $130 $60 #
plane-surface $-1 0 38.154801602403644 0 0 -1 0 0 0 -1 forward_v I I I I #
coedge $-1 $194 $128 $131 $195 forward $61 $-1 #
coedge $-1 $134 $63 $64 $122 reversed $37 $-1 #
coedge $-1 $128 $194 $63 $120 reversed $61 $-1 #
edge $-1 $135 -18.366168377765192 $196 18.366168377765192 $119 $197 forward 7 unknown #
coedge $-1 $65 $64 $194 $198 forward $25 $-1 #
edge $-1 $126 -58.414868617816708 $196 58.414868617816708 $118 $199 forward 7 unknown #
coedge $-1 $131 $130 $65 $124 reversed $115 $-1 #
edge $-1 $200 -58.414868617816708 $125 58.414868617816708 $123 $201 forward 7 unknown #
vertex $-1 $67 $202 #
vertex $-1 $137 $203 #
straight-curve $-1 58.414868617816708 0 -18.366168377765192 0 -1 0 I I #
coedge $-1 $117 $119 $68 $129 reversed $61 $-1 #
edge $-1 $132 -38.154801602403644 $135 38.154801602403644 $128 $204 forward 7 unknown #
coedge $-1 $123 $69 $74 $138 forward $115 $-1 #
coedge $-1 $69 $123 $117 $195 reversed $115 $-1 #
vertex $-1 $70 $205 #
straight-curve $-1 0 38.154801602403644 18.366168377765192 -1 0 0 I I #
coedge $-1 $71 $118 $73 $137 reversed $37 $-1 #
vertex $-1 $129 $206 #
straight-curve $-1 0 -38.154801602403644 18.366168377765192 1 0 0 I I #
edge $-1 $76 -18.366168377765192 $126 18.366168377765192 $73 $207 forward 7 unknown #
edge $-1 $77 -18.366168377765192 $125 18.366168377765192 $74 $208 forward 7 unknown #
point $-1 58.414868617816708 -38.154801602403644 18.366168377765192 #
point $-1 58.414868617816708 38.154801602403644 18.366168377765192 #
face $-1 $209 $210 $10 $-1 $211 reversed single #
loop $-1 $-1 $212 $79 #
plane-surface $-1 0 0 -18.366168377765192 0 0 1 1 0 0 forward_v I I I I #
coedge $-1 $213 $82 $147 $214 forward $45 $-1 #
coedge $-1 $82 $213 $215 $216 forward $45 $-1 #
edge $-1 $217 -38.154801602403644 $148 38.154801602403644 $82 $218 forward 7 unknown #
coedge $-1 $84 $219 $144 $214 reversed $80 $-1 #
vertex $-1 $214 $220 #
straight-curve $-1 -35.255066956041347 -38.154801602403644 7.9064429521011732 0 0 -1 I I #
coedge $-1 $221 $222 $86 $151 forward $210 $-1 #
edge $-1 $158 -38.154801602403644 $155 38.154801602403644 $150 $223 forward 7 unknown #
coedge $-1 $215 $87 $91 $160 forward $154 $-1 #
coedge $-1 $87 $224 $221 $225 reversed $154 $-1 #
loop $-1 $-1 $152 $209 #
vertex $-1 $225 $226 #
straight-curve $-1 -23.417483893464514 38.154801602403644 13.259603430639501 1 0 0 I I #
coedge $-1 $227 $89 $222 $228 forward $80 $-1 #
vertex $-1 $228 $229 #
straight-curve $-1 -23.417483893464514 -38.154801602403644 13.259603430639501 -1 0 0 I I #
edge $-1 $92 5.353160478538328 $217 10.459725425664018 $152 $230 forward 7 unknown #
point $-1 -35.255066956041347 38.154801602403644 13.259603430639501 #
point $-1 -35.255066956041347 -38.154801602403644 13.259603430639501 #
face $-1 $231 $185 $11 $-1 $232 reversed single #
coedge $-1 $233 $98 $103 $178 forward $53 $-1 #
coedge $-1 $98 $233 $168 $234 forward $53 $-1 #
coedge $-1 $169 $106 $98 $167 forward $185 $-1 #
edge $-1 $186 2.8320938251056358 $235 10.966747643474916 $166 $236 forward 7 unknown #
coedge $-1 $100 $99 $165 $234 reversed $33 $-1 #
coedge $-1 $237 $166 $99 $170 forward $185 $-1 #
edge $-1 $235 19.278554879130859 $175 32.517060785500853 $169 $238 forward 7 unknown #
coedge $-1 $180 $239 $100 $172 forward $181 $-1 #
edge $-1 $176 -32.517060785500853 $240 -19.278554879130859 $171 $241 forward 7 unknown #
coedge $-1 $242 $101 $239 $243 forward $96 $-1 #
coedge $-1 $101 $242 $237 $244 reversed $96 $-1 #
vertex $-1 $244 $245 #
vertex $-1 $243 $246 #
straight-curve $-1 58.414868617816708 0 -17.866168377765192 0 -1 0 I I #
edge $-1 $186 -38.154801602403644 $182 38.154801602403644 $164 $247 forward 7 unknown #
coedge $-1 $248 $104 $109 $190 reversed $181 $-1 #
coedge $-1 $104 $171 $233 $249 forward $181 $-1 #
loop $-1 $-1 $104 $250 #
vertex $-1 $105 $251 #
straight-curve $-1 25.897807832315856 -38.154801602403644 -9.7315145593959116 1 0 0 I I #
coedge $-1 $106 $252 $108 $189 forward $185 $-1 #
loop $-1 $-1 $106 $163 #
vertex $-1 $107 $253 #
straight-curve $-1 25.897807832315856 38.154801602403644 -9.7315145593959116 -1 0 0 I I #
coedge $-1 $109 $108 $254 $255 reversed $110 $-1 #
edge $-1 $256 -18.366168377765192 $112 9.7315145593959116 $108 $257 forward 7 unknown #
edge $-1 $258 -18.366168377765192 $111 9.7315145593959116 $109 $259 forward 7 unknown #
point $-1 58.414868617816708 -38.154801602403644 -9.7315145593959116 #
point $-1 58.414868617816708 38.154801602403644 -9.7315145593959116 #
plane-surface $-1 58.414868617816708 0 0 -1 0 0 0 0 1 forward_v I I I I #
coedge $-1 $119 $117 $121 $198 reversed $61 $-1 #
edge $-1 $132 -18.366168377765192 $200 18.366168377765192 $131 $260 forward 7 unknown #
vertex $-1 $198 $261 #
straight-curve $-1 -58.414868617816708 -38.154801602403644 0 0 0 -1 I I #
edge $-1 $196 -38.154801602403644 $200 38.154801602403644 $194 $262 forward 7 unknown #
straight-curve $-1 0 -38.154801602403644 -18.366168377765192 -1 0 0 I I #
vertex $-1 $124 $263 #
straight-curve $-1 0 38.154801602403644 -18.366168377765192 1 0 0 I I #
point $-1 58.414868617816708 38.154801602403644 -18.366168377765192 #
point $-1 58.414868617816708 -38.154801602403644 -18.366168377765192 #
straight-curve $-1 -58.414868617816708 0 18.366168377765192 0 -1 0 I I #
point $-1 -58.414868617816708 38.154801602403644 18.366168377765192 #
point $-1 -58.414868617816708 -38.154801602403644 18.366168377765192 #
straight-curve $-1 58.414868617816708 -38.154801602403644 0 0 0 -1 I I #
straight-curve $-1 58.414868617816708 38.154801602403644 0 0 0 -1 I I #
face $-1 $264 $154 $10 $-1 $265 reversed single #
loop $-1 $-1 $150 $141 #
plane-surface $-1 -58.414868617816708 0 0 1 0 0 0 0 -1 forward_v I I I I #
coedge $-1 $266 $267 $268 $269 forward $142 $-1 #
coedge $-1 $145 $144 $270 $271 forward $45 $-1 #
edge $-1 $148 -35.255066956041347 $272 58.414868617816708 $147 $273 forward 7 unknown #
coedge $-1 $274 $152 $145 $216 reversed $154 $-1 #
edge $-1 $275 -58.414868617816708 $217 35.255066956041347 $215 $276 forward 7 unknown #
vertex $-1 $146 $277 #
straight-curve $-1 -35.255066956041347 0 18.366168377765192 0 -1 0 I I #
coedge $-1 $147 $227 $278 $279 reversed $80 $-1 #
point $-1 -35.255066956041347 -38.154801602403644 18.366168377765192 #
coedge $-1 $280 $150 $153 $225 forward $210 $-1 #
coedge $-1 $150 $280 $157 $228 reversed $210 $-1 #
straight-curve $-1 -58.414868617816708 0 13.259603430639501 0 1 0 I I #
coedge $-1 $153 $274 $267 $281 reversed $154 $-1 #
edge $-1 $155 -13.259603430639501 $282 18.366168377765192 $153 $283 forward 7 unknown #
point $-1 -58.414868617816708 38.154801602403644 13.259603430639501 #
coedge $-1 $219 $157 $266 $284 reversed $80 $-1 #
edge $-1 $158 -13.259603430639501 $285 18.366168377765192 $222 $286 forward 7 unknown #
point $-1 -58.414868617816708 -38.154801602403644 13.259603430639501 #
straight-curve $-1 -35.255066956041347 38.154801602403644 7.9064429521011732 0 0 1 I I #
face $-1 $287 $288 $11 $-1 $289 forward single #
plane-surface $-1 0 38.154801602403644 0 0 -1 0 0 0 -1 forward_v I I I I #
coedge $-1 $165 $164 $180 $249 reversed $53 $-1 #
edge $-1 $240 -38.154801602403644 $235 38.154801602403644 $165 $290 forward 7 unknown #
vertex $-1 $170 $291 #
straight-curve $-1 45.176362711446714 38.154801602403644 -6.8994207342902758 0 0 -1 I I #
coedge $-1 $292 $169 $174 $244 forward $185 $-1 #
straight-curve $-1 25.897807832315856 38.154801602403644 -17.866168377765192 1 0 0 I I #
coedge $-1 $171 $293 $173 $243 reversed $181 $-1 #
vertex $-1 $172 $294 #
straight-curve $-1 25.897807832315856 -38.154801602403644 -17.866168377765192 -1 0 0 I I #
coedge $-1 $174 $173 $295 $296 reversed $96 $-1 #
edge $-1 $176 17.866168377765192 $297 18.366168377765192 $173 $259 forward 7 unknown #
edge $-1 $175 17.866168377765192 $298 18.366168377765192 $174 $257 forward 7 unknown #
point $-1 58.414868617816708 38.154801602403644 -17.866168377765192 #
point $-1 58.414868617816708 -38.154801602403644 -17.866168377765192 #
straight-curve $-1 45.176362711446714 0 -9.7315145593959116 0 -1 0 I I #
coedge $-1 $299 $179 $300 $301 reversed $181 $-1 #
edge $-1 $240 -10.966747643474916 $182 -2.8320938251056358 $180 $302 forward 7 unknown #
face $-1 $303 $181 $11 $-1 $304 reversed single #
point $-1 45.176362711446714 -38.154801602403644 -9.7315145593959116 #
coedge $-1 $184 $305 $306 $307 reversed $185 $-1 #
point $-1 45.176362711446714 38.154801602403644 -9.7315145593959116 #
coedge $-1 $306 $300 $188 $255 forward $308 $-1 #
edge $-1 $258 -38.154801602403644 $256 38.154801602403644 $188 $309 forward 7 unknown #
vertex $-1 $255 $310 #
straight-curve $-1 58.414868617816708 38.154801602403644 0 0 0 -1 I I #
vertex $-1 $255 $311 #
straight-curve $-1 58.414868617816708 -38.154801602403644 0 0 0 -1 I I #
straight-curve $-1 -58.414868617816708 38.154801602403644 0 0 0 -1 I I #
point $-1 -58.414868617816708 -38.154801602403644 -18.366168377765192 #
straight-curve $-1 -58.414868617816708 0 -18.366168377765192 0 1 0 I I #
point $-1 -58.414868617816708 38.154801602403644 -18.366168377765192 #
face $-1 $-1 $312 $10 $-1 $313 reversed single #
plane-surface $-1 0 38.154801602403644 0 0 -1 0 0 0 -1 forward_v I I I I #
coedge $-1 $314 $212 $227 $284 forward $142 $-1 #
coedge $-1 $212 $314 $224 $281 forward $142 $-1 #
coedge $-1 $315 $278 $212 $269 reversed $312 $-1 #
edge $-1 $316 -38.154801602403644 $317 38.154801602403644 $268 $318 forward 7 unknown #
coedge $-1 $278 $315 $213 $271 reversed $312 $-1 #
edge $-1 $272 -38.154801602403644 $275 38.154801602403644 $270 $319 forward 7 unknown #
vertex $-1 $271 $320 #
straight-curve $-1 0 -38.154801602403644 18.366168377765192 1 0 0 I I #
coedge $-1 $224 $215 $315 $321 forward $154 $-1 #
vertex $-1 $271 $322 #
straight-curve $-1 0 38.154801602403644 18.366168377765192 -1 0 0 I I #
point $-1 -35.255066956041347 38.154801602403644 18.366168377765192 #
coedge $-1 $268 $270 $219 $279 forward $312 $-1 #
edge $-1 $272 -18.366168377765192 $317 18.366168377765192 $278 $323 forward 7 unknown #
coedge $-1 $222 $221 $314 $324 reversed $210 $-1 #
edge $-1 $282 -58.414868617816708 $316 58.414868617816708 $224 $325 forward 7 unknown #
vertex $-1 $281 $326 #
straight-curve $-1 -58.414868617816708 38.154801602403644 0 0 0 -1 I I #
edge $-1 $317 -58.414868617816708 $285 58.414868617816708 $227 $327 forward 7 unknown #
vertex $-1 $324 $328 #
straight-curve $-1 -58.414868617816708 -38.154801602403644 0 0 0 -1 I I #
face $-1 $329 $330 $11 $-1 $331 forward single #
loop $-1 $-1 $332 $231 #
plane-surface $-1 -46.834967786929028 0 13.259603430639501 0 0 1 1 0 0 forward_v I I I I #
straight-curve $-1 45.176362711446714 0 -17.866168377765192 0 1 0 I I #
point $-1 45.176362711446714 38.154801602403644 -17.866168377765192 #
coedge $-1 $333 $237 $334 $335 reversed $185 $-1 #
coedge $-1 $239 $336 $337 $338 reversed $181 $-1 #
point $-1 45.176362711446714 -38.154801602403644 -17.866168377765192 #
coedge $-1 $337 $334 $242 $296 forward $339 $-1 #
edge $-1 $298 -38.154801602403644 $297 38.154801602403644 $242 $340 forward 7 unknown #
vertex $-1 $243 $341 #
vertex $-1 $296 $342 #
coedge $-1 $343 $248 $344 $345 forward $181 $-1 #
coedge $-1 $254 $346 $248 $301 forward $308 $-1 #
edge $-1 $347 -35.255066956041347 $258 58.414868617816708 $248 $348 forward 7 unknown #
straight-curve $-1 45.176362711446714 -38.154801602403644 -6.8994207342902758 0 0 1 I I #
face $-1 $349 $339 $11 $-1 $350 reversed single #
plane-surface $-1 0 -38.154801602403644 0 0 1 0 0 0 1 forward_v I I I I #
coedge $-1 $252 $351 $352 $353 forward $185 $-1 #
coedge $-1 $346 $254 $252 $307 forward $308 $-1 #
edge $-1 $256 -58.414868617816708 $354 35.255066956041347 $252 $355 forward 7 unknown #
loop $-1 $-1 $346 $329 #
straight-curve $-1 58.414868617816708 0 18.366168377765192 0 1 0 I I #
point $-1 58.414868617816708 38.154801602403644 18.366168377765192 #
point $-1 58.414868617816708 -38.154801602403644 18.366168377765192 #
loop $-1 $-1 $278 $264 #
plane-surface $-1 58.414868617816708 0 0 -1 0 0 0 0 1 forward_v I I I I #
coedge $-1 $267 $266 $280 $324 forward $142 $-1 #
coedge $-1 $270 $268 $274 $321 reversed $312 $-1 #
vertex $-1 $269 $356 #
vertex $-1 $279 $357 #
straight-curve $-1 58.414868617816708 0 -18.366168377765192 0 -1 0 I I #
straight-curve $-1 58.414868617816708 0 18.366168377765192 0 1 0 I I #
point $-1 58.414868617816708 -38.154801602403644 18.366168377765192 #
edge $-1 $275 -18.366168377765192 $316 18.366168377765192 $315 $358 forward 7 unknown #
point $-1 58.414868617816708 38.154801602403644 18.366168377765192 #
straight-curve $-1 58.414868617816708 -38.154801602403644 0 0 0 -1 I I #
edge $-1 $285 -38.154801602403644 $282 38.154801602403644 $280 $359 forward 7 unknown #
straight-curve $-1 0 38.154801602403644 -18.366168377765192 1 0 0 I I #
point $-1 -58.414868617816708 38.154801602403644 -18.366168377765192 #
straight-curve $-1 0 -38.154801602403644 -18.366168377765192 -1 0 0 I I #
point $-1 -58.414868617816708 -38.154801602403644 -18.366168377765192 #
face $-1 $250 $308 $11 $-1 $360 forward single #
loop $-1 $-1 $344 $287 #
plane-surface $-1 -35.255066956041347 0 15.812885904202346 -1 0 0 0 0 1 forward_v I I I I #
coedge $-1 $361 $362 $363 $364 reversed $288 $-1 #
coedge $-1 $351 $292 $365 $366 reversed $185 $-1 #
coedge $-1 $295 $367 $292 $335 forward $339 $-1 #
edge $-1 $368 -58.414868617816708 $298 58.414868617816708 $292 $369 forward 7 unknown #
coedge $-1 $293 $343 $370 $371 forward $181 $-1 #
coedge $-1 $367 $295 $293 $338 forward $339 $-1 #
edge $-1 $297 -58.414868617816708 $372 58.414868617816708 $293 $373 forward 7 unknown #
loop $-1 $-1 $295 $303 #
straight-curve $-1 58.414868617816708 0 -18.366168377765192 0 -1 0 I I #
point $-1 58.414868617816708 -38.154801602403644 -18.366168377765192 #
point $-1 58.414868617816708 38.154801602403644 -18.366168377765192 #
coedge $-1 $336 $299 $362 $374 forward $181 $-1 #
coedge $-1 $375 $363 $299 $345 reversed $330 $-1 #
edge $-1 $347 -10.459725425664018 $376 -5.353160478538328 $299 $377 forward 7 unknown #
coedge $-1 $300 $306 $375 $378 forward $308 $-1 #
vertex $-1 $301 $379 #
straight-curve $-1 0 -38.154801602403644 18.366168377765192 1 0 0 I I #
face $-1 $-1 $380 $11 $-1 $381 reversed single #
plane-surface $-1 0 0 -18.366168377765192 0 0 1 1 0 0 forward_v I I I I #
coedge $-1 $305 $333 $361 $382 forward $185 $-1 #
coedge $-1 $363 $375 $305 $353 reversed $330 $-1 #
edge $-1 $383 5.353160478538328 $354 10.459725425664018 $305 $384 forward 7 unknown #
vertex $-1 $378 $385 #
straight-curve $-1 0 38.154801602403644 18.366168377765192 -1 0 0 I I #
point $-1 58.414868617816708 38.154801602403644 -18.366168377765192 #
point $-1 58.414868617816708 -38.154801602403644 -18.366168377765192 #
straight-curve $-1 58.414868617816708 38.154801602403644 0 0 0 -1 I I #
straight-curve $-1 -58.414868617816708 0 -18.366168377765192 0 1 0 I I #
plane-surface $-1 0 0 18.366168377765192 0 0 1 1 0 0 forward_v I I I I #
coedge $-1 $386 $332 $351 $382 reversed $288 $-1 #
coedge $-1 $332 $386 $343 $374 reversed $288 $-1 #
coedge $-1 $344 $352 $332 $364 forward $330 $-1 #
edge $-1 $383 -38.154801602403644 $376 38.154801602403644 $363 $387 forward 7 unknown #
coedge $-1 $388 $389 $333 $366 forward $380 $-1 #
edge $-1 $390 -13.259603430639501 $368 18.366168377765192 $333 $391 forward 7 unknown #
coedge $-1 $334 $337 $388 $392 forward $339 $-1 #
vertex $-1 $335 $393 #
straight-curve $-1 0 38.154801602403644 -18.366168377765192 1 0 0 I I #
coedge $-1 $389 $388 $336 $371 reversed $380 $-1 #
edge $-1 $394 -13.259603430639501 $372 18.366168377765192 $370 $395 forward 7 unknown #
vertex $-1 $392 $396 #
straight-curve $-1 0 -38.154801602403644 -18.366168377765192 -1 0 0 I I #
edge $-1 $376 11.837583062576833 $394 34.997384724352194 $343 $397 forward 7 unknown #
coedge $-1 $352 $344 $346 $378 reversed $330 $-1 #
vertex $-1 $374 $398 #
straight-curve $-1 -35.255066956041347 -38.154801602403644 7.9064429521011732 0 0 -1 I I #
edge $-1 $354 -38.154801602403644 $347 38.154801602403644 $346 $399 forward 7 unknown #
point $-1 -35.255066956041347 -38.154801602403644 18.366168377765192 #
loop $-1 $-1 $389 $349 #
plane-surface $-1 -58.414868617816708 0 0 1 0 0 0 0 -1 forward_v I I I I #
edge $-1 $390 -34.997384724352194 $383 -11.837583062576833 $351 $400 forward 7 unknown #
vertex $-1 $382 $401 #
straight-curve $-1 -35.255066956041347 38.154801602403644 7.9064429521011732 0 0 1 I I #
point $-1 -35.255066956041347 38.154801602403644 18.366168377765192 #
coedge $-1 $362 $361 $389 $402 reversed $288 $-1 #
straight-curve $-1 -35.255066956041347 0 13.259603430639501 0 -1 0 I I #
coedge $-1 $370 $365 $367 $392 reversed $380 $-1 #
coedge $-1 $365 $370 $386 $402 forward $380 $-1 #
vertex $-1 $366 $403 #
straight-curve $-1 -58.414868617816708 38.154801602403644 0 0 0 -1 I I #
edge $-1 $372 -38.154801602403644 $368 38.154801602403644 $388 $404 forward 7 unknown #
point $-1 -58.414868617816708 38.154801602403644 -18.366168377765192 #
vertex $-1 $371 $405 #
straight-curve $-1 -58.414868617816708 -38.154801602403644 0 0 0 -1 I I #
point $-1 -58.414868617816708 -38.154801602403644 -18.366168377765192 #
straight-curve $-1 -23.417483893464514 -38.154801602403644 13.259603430639501 -1 0 0 I I #
point $-1 -35.255066956041347 -38.154801602403644 13.259603430639501 #
straight-curve $-1 -35.255066956041347 0 18.366168377765192 0 -1 0 I I #
straight-curve $-1 -23.417483893464514 38.154801602403644 13.259603430639501 1 0 0 I I #
point $-1 -35.255066956041347 38.154801602403644 13.259603430639501 #
edge $-1 $394 -38.154801602403644 $390 38.154801602403644 $389 $406 forward 7 unknown #
point $-1 -58.414868617816708 38.154801602403644 13.259603430639501 #
straight-curve $-1 -58.414868617816708 0 -18.366168377765192 0 1 0 I I #
point $-1 -58.414868617816708 -38.154801602403644 13.259603430639501 #
straight-curve $-1 -58.414868617816708 0 13.259603430639501 0 1 0 I I #
End-of-ACIS-data 