500 0 9 0           
7 Unknown 11 ACIS 5.0 NT 24 Fri Mar 26 19:48:31 1999 
-1 9.9999999999999995e-007 1e-010 
body $-1 $9 $-1 $10 #
body $-1 $11 $-1 $12 #
body $-1 $13 $-1 $14 #
body $-1 $15 $-1 $16 #
body $-1 $17 $-1 $18 #
body $-1 $19 $-1 $20 #
body $-1 $21 $-1 $22 #
body $-1 $23 $-1 $24 #
body $-1 $25 $-1 $26 #
lump $-1 $-1 $27 $0 #
transform $-1 1 0 0 0 1 0 0 0 1 68.638569292275761 33.201737213738546 8.4845956773351148 1 rotate no_reflect no_shear #
lump $-1 $-1 $28 $1 #
transform $-1 1 0 0 0 1 0 0 0 1 68.638569292275761 33.201737213738546 8.4845956773351148 1 rotate no_reflect no_shear #
lump $-1 $-1 $29 $2 #
transform $-1 1 0 0 0 1 0 0 0 1 68.638569292275761 33.201737213738546 8.4845956773351148 1 rotate no_reflect no_shear #
lump $-1 $-1 $30 $3 #
transform $-1 1 0 0 0 1 0 0 0 1 68.638569292275761 33.201737213738546 8.4845956773351148 1 rotate no_reflect no_shear #
lump $-1 $-1 $31 $4 #
transform $-1 1 0 0 0 1 0 0 0 1 68.638569292275761 33.201737213738546 8.4845956773351148 1 rotate no_reflect no_shear #
lump $-1 $-1 $32 $5 #
transform $-1 1 0 0 0 1 0 0 0 1 68.638569292275761 33.201737213738546 8.4845956773351148 1 rotate no_reflect no_shear #
lump $-1 $-1 $33 $6 #
transform $-1 1 0 0 0 1 0 0 0 1 68.638569292275761 33.201737213738546 8.4845956773351148 1 rotate no_reflect no_shear #
lump $-1 $-1 $34 $7 #
transform $-1 1 0 0 0 1 0 0 0 1 68.638569292275761 33.201737213738546 8.4845956773351148 1 rotate no_reflect no_shear #
lump $-1 $-1 $35 $8 #
transform $-1 1 0 0 0 1 0 0 0 1 68.638569292275761 33.201737213738546 8.4845956773351148 1 rotate no_reflect no_shear #
shell $-1 $-1 $-1 $36 $-1 $9 #
shell $-1 $-1 $-1 $37 $-1 $11 #
shell $-1 $-1 $-1 $38 $-1 $13 #
shell $-1 $-1 $-1 $39 $-1 $15 #
shell $-1 $-1 $-1 $40 $-1 $17 #
shell $-1 $-1 $-1 $41 $-1 $19 #
shell $-1 $-1 $-1 $42 $-1 $21 #
shell $-1 $-1 $-1 $43 $-1 $23 #
shell $-1 $-1 $-1 $44 $-1 $25 #
face $-1 $45 $46 $27 $-1 $47 forward single #
face $-1 $48 $49 $28 $-1 $50 reversed single #
face $-1 $51 $52 $29 $-1 $53 reversed single #
face $-1 $54 $55 $30 $-1 $56 forward single #
face $-1 $57 $58 $31 $-1 $59 forward single #
face $-1 $60 $61 $32 $-1 $62 reversed single #
face $-1 $63 $64 $33 $-1 $65 forward single #
face $-1 $66 $67 $34 $-1 $68 forward single #
face $-1 $69 $70 $35 $-1 $71 forward single #
face $-1 $72 $73 $27 $-1 $74 reversed single #
loop $-1 $-1 $75 $36 #
plane-surface $-1 0 0 8.4845956773351148 0 0 1 1 0 0 forward_v I I I I #
face $-1 $76 $77 $28 $-1 $78 reversed single #
loop $-1 $-1 $79 $37 #
plane-surface $-1 0 -30.117445434777224 5.4845956773351148 0 0 1 1 0 0 forward_v I I I I #
face $-1 $80 $81 $29 $-1 $82 reversed single #
loop $-1 $-1 $83 $38 #
plane-surface $-1 72.026767664545005 -14.745544749313545 196.09309577974238 0 -1 0 -0.71933980857756763 0 -0.69465836192734942 forward_v I I I I #
face $-1 $84 $85 $30 $-1 $86 forward single #
loop $-1 $87 $88 $39 #
cone-surface $-1 64.562511226051029 -23.522408253958087 4.3291573780231634 -0.71933980857756763 0 -0.69465836192734942 0.69465836192734942 0 -0.71933980857756763 1 I I 0 1 1 forward I I I I #
face $-1 $89 $90 $31 $-1 $91 forward single #
loop $-1 $92 $93 $40 #
cone-surface $-1 64.562511226051029 -18.256290151171363 4.3291573780231634 -0.71933980857756763 0 -0.69465836192734942 0.69465836192734942 0 -0.71933980857756763 1 I I 0 1 1 forward I I I I #
face $-1 $94 $95 $32 $-1 $96 reversed single #
loop $-1 $-1 $97 $41 #
plane-surface $-1 -173.79895960981159 17.611758360914344 89.517499440743563 0 1 0 -0.7660444514056185 0 0.64278759981090561 forward_v I I I I #
face $-1 $98 $99 $33 $-1 $100 forward single #
loop $-1 $101 $102 $42 #
cone-surface $-1 -65.03594562051498 19.249701793715346 4.3952967107856322 0.7660444514056185 0 -0.64278759981090561 0.3213937999054528 0 0.38302222570280925 1 I I 0 1 0.5 forward I I I I #
face $-1 $103 $104 $34 $-1 $105 forward single #
loop $-1 $106 $107 $43 #
cone-surface $-1 -65.03594562051498 21.706616942916845 4.3952967107856322 0.7660444514056185 0 -0.64278759981090561 0.3213937999054528 0 0.38302222570280925 1 I I 0 1 0.5 forward I I I I #
face $-1 $108 $109 $35 $-1 $110 forward single #
loop $-1 $111 $112 $44 #
cone-surface $-1 -65.03594562051498 24.163532092118345 4.3952967107856322 0.7660444514056185 0 -0.64278759981090561 0.3213937999054528 0 0.38302222570280925 1 I I 0 1 0.5 forward I I I I #
face $-1 $113 $114 $27 $-1 $115 reversed single #
loop $-1 $-1 $116 $45 #
plane-surface $-1 0 0 -8.4845956773351148 0 0 1 1 0 0 forward_v I I I I #
coedge $-1 $117 $118 $119 $120 forward $46 $-1 #
face $-1 $121 $122 $28 $-1 $123 reversed single #
loop $-1 $-1 $124 $48 #
plane-surface $-1 0 -27.033153655815902 6.9845956773351148 0 -1 0 0 0 -1 forward_v I I I I #
coedge $-1 $125 $126 $127 $128 reversed $49 $-1 #
face $-1 $129 $130 $29 $-1 $131 forward single #
loop $-1 $-1 $132 $51 #
plane-surface $-1 -26.72214292694251 -20.889349202564723 100.73238356052408 0.71933980857756763 0 0.69465836192734942 0.69465836192734942 0 -0.71933980857756763 forward_v I I I I #
coedge $-1 $133 $134 $135 $136 reversed $52 $-1 #
face $-1 $-1 $137 $30 $-1 $138 forward single #
loop $-1 $139 $140 $54 #
cone-surface $-1 63.265813792555534 -23.522408253958087 3.0769512518968227 -0.71933980857756763 0 -0.69465836192734942 0.34732918096367471 0 -0.35966990428878381 1 I I -0.70710678118654746 0.70710678118654746 0.5 forward I I I I #
loop $-1 $-1 $141 $39 #
coedge $-1 $88 $88 $142 $143 reversed $55 $-1 #
face $-1 $-1 $144 $31 $-1 $145 forward single #
loop $-1 $146 $147 $57 #
cone-surface $-1 63.265813792555534 -18.256290151171363 3.0769512518968227 -0.71933980857756763 0 -0.69465836192734942 0.34732918096367471 0 -0.35966990428878381 1 I I -0.70710678118654746 0.70710678118654746 0.5 forward I I I I #
loop $-1 $-1 $148 $40 #
coedge $-1 $93 $93 $149 $150 reversed $58 $-1 #
face $-1 $151 $152 $32 $-1 $153 reversed single #
loop $-1 $-1 $154 $60 #
plane-surface $-1 -68.638569292275761 21.706616942916845 1.2774570210706315 -0.7660444514056185 0 0.64278759981090561 0.64278759981090561 0 0.7660444514056185 forward_v I I I I #
coedge $-1 $155 $156 $157 $158 reversed $61 $-1 #
face $-1 $-1 $159 $33 $-1 $160 forward single #
loop $-1 $161 $162 $63 #
cone-surface $-1 -64.265564450894828 19.249701793715346 3.7488701724156606 0.7660444514056185 0 -0.64278759981090561 0.1606968999527264 0 0.19151111285140462 1 I I -0.70710678118654746 0.70710678118654746 0.25 forward I I I I #
loop $-1 $-1 $163 $42 #
coedge $-1 $102 $102 $164 $165 reversed $64 $-1 #
face $-1 $-1 $166 $34 $-1 $167 forward single #
loop $-1 $168 $169 $66 #
cone-surface $-1 -64.265564450894828 21.706616942916845 3.7488701724156606 0.7660444514056185 0 -0.64278759981090561 0.1606968999527264 0 0.19151111285140462 1 I I -0.70710678118654746 0.70710678118654746 0.25 forward I I I I #
loop $-1 $-1 $170 $43 #
coedge $-1 $107 $107 $171 $172 reversed $67 $-1 #
face $-1 $-1 $173 $35 $-1 $174 forward single #
loop $-1 $175 $176 $69 #
cone-surface $-1 -64.265564450894828 24.163532092118345 3.7488701724156606 0.7660444514056185 0 -0.64278759981090561 0.1606968999527264 0 0.19151111285140462 1 I I -0.70710678118654746 0.70710678118654746 0.25 forward I I I I #
loop $-1 $-1 $177 $44 #
coedge $-1 $112 $112 $178 $179 reversed $70 $-1 #
face $-1 $180 $181 $27 $-1 $182 reversed single #
loop $-1 $-1 $183 $72 #
plane-surface $-1 0 -33.201737213738546 0 0 1 0 0 0 1 forward_v I I I I #
coedge $-1 $184 $185 $186 $187 forward $73 $-1 #
coedge $-1 $188 $75 $189 $190 forward $46 $-1 #
coedge $-1 $75 $188 $191 $192 forward $46 $-1 #
coedge $-1 $193 $194 $75 $120 reversed $195 $-1 #
edge $-1 $196 -33.201737213738546 $197 33.201737213738546 $119 $198 forward 7 unknown #
face $-1 $199 $200 $28 $-1 $201 reversed single #
loop $-1 $-1 $202 $76 #
plane-surface $-1 -68.638569292275761 0 0 1 0 0 0 0 -1 forward_v I I I I #
coedge $-1 $203 $204 $205 $206 reversed $77 $-1 #
coedge $-1 $207 $79 $208 $209 reversed $49 $-1 #
coedge $-1 $79 $207 $203 $210 forward $49 $-1 #
coedge $-1 $205 $211 $79 $128 forward $212 $-1 #
edge $-1 $213 -18.143014496349934 $214 -11.97443093842729 $127 $215 forward 7 unknown #
face $-1 $216 $217 $29 $-1 $218 forward single #
loop $-1 $-1 $219 $80 #
plane-surface $-1 0 -27.033153655815902 6.9845956773351148 0 -1 0 0 0 -1 forward_v I I I I #
coedge $-1 $220 $221 $222 $223 reversed $81 $-1 #
coedge $-1 $134 $83 $224 $225 reversed $52 $-1 #
coedge $-1 $83 $133 $220 $226 reversed $52 $-1 #
coedge $-1 $222 $227 $83 $136 forward $217 $-1 #
edge $-1 $228 -32.625185460003259 $229 -26.347124385967255 $135 $230 forward 7 unknown #
loop $-1 $-1 $142 $84 #
plane-surface $-1 -26.72214292694251 -20.889349202564723 100.73238356052408 0.71933980857756763 0 0.69465836192734942 0.69465836192734942 0 -0.71933980857756763 forward_v I I I I #
loop $-1 $-1 $231 $54 #
coedge $-1 $140 $140 $141 $232 reversed $85 $-1 #
coedge $-1 $141 $141 $140 $232 forward $87 $-1 #
coedge $-1 $142 $142 $88 $143 forward $137 $-1 #
edge $-1 $233 0 $233 6.2831853071796004 $142 $234 forward 7 unknown #
loop $-1 $-1 $149 $89 #
plane-surface $-1 -26.72214292694251 -20.889349202564723 100.73238356052408 0.71933980857756763 0 0.69465836192734942 0.69465836192734942 0 -0.71933980857756763 forward_v I I I I #
loop $-1 $-1 $235 $57 #
coedge $-1 $147 $147 $148 $236 reversed $90 $-1 #
coedge $-1 $148 $148 $147 $236 forward $92 $-1 #
coedge $-1 $149 $149 $93 $150 forward $144 $-1 #
edge $-1 $237 0 $237 6.2831853071796004 $149 $238 forward 7 unknown #
face $-1 $239 $240 $32 $-1 $241 forward single #
loop $-1 $-1 $242 $94 #
plane-surface $-1 -173.79895960981159 25.801475524919347 89.517499440743563 0 -1 0 0.7660444514056185 0 -0.64278759981090561 forward_v I I I I #
coedge $-1 $243 $244 $245 $246 reversed $95 $-1 #
coedge $-1 $156 $97 $247 $248 reversed $61 $-1 #
coedge $-1 $97 $155 $243 $249 reversed $61 $-1 #
coedge $-1 $245 $250 $97 $158 forward $240 $-1 #
edge $-1 $251 18.260910512630034 $252 24.308417742614083 $157 $253 forward 7 unknown #
loop $-1 $-1 $164 $98 #
plane-surface $-1 -68.638569292275761 21.706616942916845 1.2774570210706315 -0.7660444514056185 0 0.64278759981090561 0.64278759981090561 0 0.7660444514056185 forward_v I I I I #
loop $-1 $-1 $254 $63 #
coedge $-1 $162 $162 $163 $255 reversed $99 $-1 #
coedge $-1 $163 $163 $162 $255 forward $101 $-1 #
coedge $-1 $164 $164 $102 $165 forward $159 $-1 #
edge $-1 $256 0 $256 6.2831853071796004 $164 $257 forward 7 unknown #
loop $-1 $-1 $171 $103 #
plane-surface $-1 -68.638569292275761 21.706616942916845 1.2774570210706315 -0.7660444514056185 0 0.64278759981090561 0.64278759981090561 0 0.7660444514056185 forward_v I I I I #
loop $-1 $-1 $258 $66 #
coedge $-1 $169 $169 $170 $259 reversed $104 $-1 #
coedge $-1 $170 $170 $169 $259 forward $106 $-1 #
coedge $-1 $171 $171 $107 $172 forward $166 $-1 #
edge $-1 $260 0 $260 6.2831853071796004 $171 $261 forward 7 unknown #
loop $-1 $-1 $178 $108 #
plane-surface $-1 -68.638569292275761 21.706616942916845 1.2774570210706315 -0.7660444514056185 0 0.64278759981090561 0.64278759981090561 0 0.7660444514056185 forward_v I I I I #
loop $-1 $-1 $262 $69 #
coedge $-1 $176 $176 $177 $263 reversed $109 $-1 #
coedge $-1 $177 $177 $176 $263 forward $111 $-1 #
coedge $-1 $178 $178 $112 $179 forward $173 $-1 #
edge $-1 $264 0 $264 6.2831853071796004 $178 $265 forward 7 unknown #
face $-1 $266 $267 $27 $-1 $268 reversed single #
loop $-1 $-1 $269 $113 #
plane-surface $-1 -68.638569292275761 0 0 1 0 0 0 0 -1 forward_v I I I I #
coedge $-1 $270 $191 $271 $272 forward $114 $-1 #
coedge $-1 $273 $116 $270 $274 forward $73 $-1 #
coedge $-1 $116 $273 $275 $276 forward $73 $-1 #
coedge $-1 $194 $193 $116 $187 reversed $195 $-1 #
edge $-1 $277 -33.201737213738546 $278 33.201737213738546 $186 $279 forward 7 unknown #
coedge $-1 $118 $117 $280 $281 forward $46 $-1 #
coedge $-1 $282 $283 $117 $190 reversed $267 $-1 #
edge $-1 $197 -68.638569292275761 $284 68.638569292275761 $189 $285 forward 7 unknown #
coedge $-1 $183 $286 $118 $192 reversed $114 $-1 #
edge $-1 $287 -68.638569292275761 $196 68.638569292275761 $191 $288 forward 7 unknown #
coedge $-1 $186 $119 $286 $289 forward $195 $-1 #
coedge $-1 $119 $186 $282 $290 reversed $195 $-1 #
loop $-1 $-1 $193 $266 #
vertex $-1 $120 $291 #
vertex $-1 $120 $292 #
straight-curve $-1 68.638569292275761 0 8.4845956773351148 0 1 0 I I #
face $-1 $293 $294 $28 $-1 $295 forward single #
loop $-1 $-1 $208 $121 #
plane-surface $-1 0 -33.201737213738546 0 0 1 0 0 0 1 forward_v I I I I #
coedge $-1 $296 $297 $298 $299 forward $122 $-1 #
coedge $-1 $298 $124 $126 $210 reversed $77 $-1 #
coedge $-1 $124 $298 $300 $301 reversed $77 $-1 #
coedge $-1 $302 $127 $124 $206 forward $212 $-1 #
edge $-1 $214 1.9922978386675574 $303 4.9922978386675574 $205 $304 forward 7 unknown #
coedge $-1 $126 $125 $296 $305 reversed $49 $-1 #
coedge $-1 $306 $307 $125 $209 forward $200 $-1 #
edge $-1 $308 -68.638569292275761 $213 68.638569292275761 $208 $309 forward 7 unknown #
edge $-1 $310 -68.638569292275761 $214 68.638569292275761 $203 $311 forward 7 unknown #
coedge $-1 $127 $302 $306 $312 forward $212 $-1 #
loop $-1 $-1 $205 $293 #
vertex $-1 $209 $313 #
vertex $-1 $128 $314 #
straight-curve $-1 68.638569292275761 -15.058722717388612 5.4845956773351148 0 1 0 I I #
face $-1 $-1 $315 $29 $-1 $316 reversed single #
loop $-1 $-1 $222 $129 #
plane-surface $-1 0 0 8.4845956773351148 0 0 1 1 0 0 forward_v I I I I #
coedge $-1 $317 $318 $221 $319 reversed $130 $-1 #
coedge $-1 $320 $132 $134 $226 forward $81 $-1 #
coedge $-1 $132 $320 $219 $319 forward $81 $-1 #
coedge $-1 $321 $135 $132 $223 forward $217 $-1 #
edge $-1 $229 4.3008701480311835 $322 16.58847905453354 $222 $323 forward 7 unknown #
coedge $-1 $324 $325 $133 $225 forward $315 $-1 #
edge $-1 $326 -96.063074920834609 $228 -89.561952212536085 $224 $327 forward 7 unknown #
edge $-1 $229 128.23951459825506 $326 137.27713858455149 $134 $328 forward 7 unknown #
coedge $-1 $135 $321 $324 $329 forward $217 $-1 #
vertex $-1 $225 $330 #
vertex $-1 $136 $331 #
straight-curve $-1 36.013383832272503 -14.745544749313545 8.4845956773351077 -1 0 0 I I #
coedge $-1 $231 $231 $-1 $332 reversed $139 $-1 #
edge $-1 $333 0 $333 6.2831853071796004 $140 $334 forward 7 unknown #
vertex $-1 $143 $335 #
ellipse-curve $-1 65.49953875525776 -23.522408253958087 5.2340343231858428 0.71933980857756763 0 0.69465836192734942 0.69465836192734942 0 -0.71933980857756763 1 I I #
coedge $-1 $235 $235 $-1 $336 reversed $146 $-1 #
edge $-1 $337 0 $337 6.2831853071796004 $147 $338 forward 7 unknown #
vertex $-1 $150 $339 #
ellipse-curve $-1 65.49953875525776 -18.256290151171363 5.2340343231858428 0.71933980857756763 0 0.69465836192734942 0.69465836192734942 0 -0.71933980857756763 1 I I #
face $-1 $-1 $340 $32 $-1 $341 reversed single #
loop $-1 $-1 $157 $151 #
plane-surface $-1 0 0 8.4845956773351148 0 0 1 1 0 0 forward_v I I I I #
coedge $-1 $342 $343 $344 $345 reversed $152 $-1 #
coedge $-1 $346 $154 $156 $249 forward $95 $-1 #
coedge $-1 $154 $346 $342 $347 forward $95 $-1 #
coedge $-1 $344 $157 $154 $246 forward $240 $-1 #
edge $-1 $252 6.7584498894559211 $348 14.948167053460924 $245 $349 forward 7 unknown #
coedge $-1 $350 $351 $155 $248 forward $340 $-1 #
edge $-1 $352 -43.48129269930115 $251 -36.274154043036667 $247 $353 forward 7 unknown #
edge $-1 $252 -9.4082512353429006 $352 0 $156 $354 forward 7 unknown #
coedge $-1 $157 $344 $350 $355 forward $240 $-1 #
vertex $-1 $248 $356 #
vertex $-1 $158 $357 #
straight-curve $-1 -86.899479804905795 17.611758360914344 8.4845956773351148 1 0 0 I I #
coedge $-1 $254 $254 $-1 $358 reversed $161 $-1 #
edge $-1 $359 0 $359 6.2831853071796004 $162 $360 forward 7 unknown #
vertex $-1 $165 $361 #
ellipse-curve $-1 -65.61481567728373 19.249701793715346 4.8810263492028785 -0.7660444514056185 0 0.64278759981090561 0.3213937999054528 0 0.38302222570280925 1 I I #
coedge $-1 $258 $258 $-1 $362 reversed $168 $-1 #
edge $-1 $363 0 $363 6.2831853071796004 $169 $364 forward 7 unknown #
vertex $-1 $172 $365 #
ellipse-curve $-1 -65.61481567728373 21.706616942916845 4.8810263492028785 -0.7660444514056185 0 0.64278759981090561 0.3213937999054528 0 0.38302222570280925 1 I I #
coedge $-1 $262 $262 $-1 $366 reversed $175 $-1 #
edge $-1 $367 0 $367 6.2831853071796004 $176 $368 forward 7 unknown #
vertex $-1 $179 $369 #
ellipse-curve $-1 -65.61481567728373 24.163532092118345 4.8810263492028785 -0.7660444514056185 0 0.64278759981090561 0.3213937999054528 0 0.38302222570280925 1 I I #
face $-1 $-1 $195 $27 $-1 $370 reversed single #
loop $-1 $-1 $282 $180 #
plane-surface $-1 0 33.201737213738546 0 0 -1 0 0 0 -1 forward_v I I I I #
coedge $-1 $371 $280 $283 $372 forward $181 $-1 #
coedge $-1 $286 $183 $184 $274 reversed $114 $-1 #
coedge $-1 $280 $371 $183 $272 reversed $181 $-1 #
edge $-1 $287 -8.4845956773351148 $373 8.4845956773351148 $271 $374 forward 7 unknown #
coedge $-1 $185 $184 $371 $375 forward $73 $-1 #
edge $-1 $278 -68.638569292275761 $373 68.638569292275761 $270 $376 forward 7 unknown #
coedge $-1 $283 $282 $185 $276 reversed $267 $-1 #
edge $-1 $377 -68.638569292275761 $277 68.638569292275761 $275 $378 forward 7 unknown #
vertex $-1 $187 $379 #
vertex $-1 $289 $380 #
straight-curve $-1 68.638569292275761 0 -8.4845956773351148 0 -1 0 I I #
coedge $-1 $269 $271 $188 $281 reversed $181 $-1 #
edge $-1 $284 -33.201737213738546 $287 33.201737213738546 $280 $381 forward 7 unknown #
coedge $-1 $275 $189 $194 $290 forward $267 $-1 #
coedge $-1 $189 $275 $269 $372 reversed $267 $-1 #
vertex $-1 $190 $382 #
straight-curve $-1 0 33.201737213738546 8.4845956773351148 -1 0 0 I I #
coedge $-1 $191 $270 $193 $289 reversed $114 $-1 #
vertex $-1 $281 $383 #
straight-curve $-1 0 -33.201737213738546 8.4845956773351148 1 0 0 I I #
edge $-1 $196 -8.4845956773351148 $278 8.4845956773351148 $193 $384 forward 7 unknown #
edge $-1 $197 -8.4845956773351148 $277 8.4845956773351148 $194 $385 forward 7 unknown #
point $-1 68.638569292275761 -33.201737213738546 8.4845956773351148 #
point $-1 68.638569292275761 33.201737213738546 8.4845956773351148 #
face $-1 $-1 $212 $28 $-1 $386 reversed single #
loop $-1 $-1 $300 $199 #
plane-surface $-1 0 0 8.4845956773351148 0 0 1 1 0 0 forward_v I I I I #
coedge $-1 $387 $202 $207 $305 forward $122 $-1 #
coedge $-1 $202 $387 $388 $389 reversed $122 $-1 #
coedge $-1 $204 $203 $202 $299 reversed $77 $-1 #
edge $-1 $390 -4.9922978386675574 $310 -1.9922978386675574 $202 $391 forward 7 unknown #
coedge $-1 $388 $392 $204 $301 forward $294 $-1 #
edge $-1 $303 -68.638569292275761 $390 68.638569292275761 $300 $393 forward 7 unknown #
coedge $-1 $211 $205 $392 $394 reversed $212 $-1 #
vertex $-1 $206 $395 #
straight-curve $-1 68.638569292275761 -27.033153655815902 3.4922978386675574 0 0 1 I I #
edge $-1 $310 11.97443093842729 $308 18.143014496349934 $296 $396 forward 7 unknown #
coedge $-1 $397 $208 $211 $312 reversed $200 $-1 #
coedge $-1 $208 $397 $387 $398 forward $200 $-1 #
vertex $-1 $209 $399 #
straight-curve $-1 0 -33.201737213738546 5.4845956773351148 1 0 0 I I #
vertex $-1 $305 $400 #
straight-curve $-1 0 -27.033153655815902 5.4845956773351148 1 0 0 I I #
edge $-1 $401 -8.4845956773351148 $213 -5.4845956773351148 $211 $402 forward 7 unknown #
point $-1 68.638569292275761 -33.201737213738546 5.4845956773351148 #
point $-1 68.638569292275761 -27.033153655815902 5.4845956773351148 #
loop $-1 $-1 $224 $216 #
plane-surface $-1 68.638569292275761 0 0 -1 0 0 0 0 1 forward_v I I I I #
coedge $-1 $318 $219 $403 $404 reversed $130 $-1 #
coedge $-1 $219 $317 $321 $405 reversed $130 $-1 #
edge $-1 $406 -137.27713858455149 $322 -128.23951459825503 $219 $407 forward 7 unknown #
coedge $-1 $221 $220 $325 $408 reversed $81 $-1 #
coedge $-1 $227 $222 $318 $405 forward $217 $-1 #
vertex $-1 $405 $409 #
straight-curve $-1 62.36050821823973 -10.444674601282362 8.4845956773351219 0 -1 0 I I #
coedge $-1 $403 $224 $227 $329 reversed $315 $-1 #
coedge $-1 $224 $403 $320 $408 forward $315 $-1 #
vertex $-1 $225 $410 #
straight-curve $-1 68.638569292275761 -14.745544749313545 98.046547889871192 0 0 1 I I #
straight-curve $-1 -26.72214292694251 -14.745544749313545 100.73238356052408 0.69465836192734942 0 -0.71933980857756763 I I #
edge $-1 $411 -27.033153655815902 $228 -14.745544749313545 $324 $412 forward 7 unknown #
point $-1 68.638569292275761 -14.745544749313545 8.4845956773351148 #
point $-1 62.360508218239758 -14.745544749313545 8.4845956773351077 #
edge $-1 $413 1 $413 0 $231 $-1 forward 7 unknown #
vertex $-1 $232 $414 #
ellipse-curve $-1 63.62548369684432 -23.522408253958087 3.4242804328604972 0.71933980857756763 0 0.69465836192734942 0.69465836192734942 0 -0.71933980857756763 1 I I #
point $-1 66.194197117185084 -23.522408253958087 4.5146945146082604 #
edge $-1 $415 1 $415 0 $235 $-1 forward 7 unknown #
vertex $-1 $236 $416 #
ellipse-curve $-1 63.62548369684432 -18.256290151171363 3.4242804328604972 0.71933980857756763 0 0.69465836192734942 0.69465836192734942 0 -0.71933980857756763 1 I I #
point $-1 66.194197117185084 -18.256290151171363 4.5146945146082604 #
loop $-1 $-1 $247 $239 #
plane-surface $-1 -68.638569292275761 0 0 1 0 0 0 0 -1 forward_v I I I I #
coedge $-1 $343 $242 $244 $347 reversed $152 $-1 #
coedge $-1 $242 $342 $417 $418 reversed $152 $-1 #
coedge $-1 $250 $245 $242 $345 forward $240 $-1 #
edge $-1 $348 -24.308417742614083 $419 -18.260910512630034 $344 $420 forward 7 unknown #
coedge $-1 $244 $243 $351 $421 reversed $95 $-1 #
edge $-1 $422 0 $348 9.4082512353429006 $342 $423 forward 7 unknown #
vertex $-1 $246 $424 #
straight-curve $-1 -62.591062062291712 10.853308471458423 8.484595677335113 0 1 0 I I #
coedge $-1 $417 $247 $250 $355 reversed $340 $-1 #
coedge $-1 $247 $417 $346 $421 forward $340 $-1 #
vertex $-1 $248 $425 #
straight-curve $-1 -68.638569292275761 17.611758360914344 44.758749720371782 0 0 1 I I #
straight-curve $-1 -68.638569292275761 17.611758360914344 1.2774570210706315 -0.64278759981090561 0 -0.7660444514056185 I I #
edge $-1 $419 -25.801475524919347 $251 -17.611758360914344 $350 $426 forward 7 unknown #
point $-1 -68.638569292275761 17.611758360914344 8.4845956773351148 #
point $-1 -62.591062062291712 17.611758360914344 8.4845956773351148 #
edge $-1 $427 1 $427 0 $254 $-1 forward 7 unknown #
vertex $-1 $255 $428 #
ellipse-curve $-1 -64.45707556374623 19.249701793715346 3.9095670723683869 -0.7660444514056185 0 0.64278759981090561 0.3213937999054528 0 0.38302222570280925 1 I I #
point $-1 -65.293421877378279 19.249701793715346 5.2640485749056865 #
edge $-1 $429 1 $429 0 $258 $-1 forward 7 unknown #
vertex $-1 $259 $430 #
ellipse-curve $-1 -64.45707556374623 21.706616942916845 3.9095670723683869 -0.7660444514056185 0 0.64278759981090561 0.3213937999054528 0 0.38302222570280925 1 I I #
point $-1 -65.293421877378279 21.706616942916845 5.2640485749056865 #
edge $-1 $431 1 $431 0 $262 $-1 forward 7 unknown #
vertex $-1 $263 $432 #
ellipse-curve $-1 -64.45707556374623 24.163532092118345 3.9095670723683869 -0.7660444514056185 0 0.64278759981090561 0.3213937999054528 0 0.38302222570280925 1 I I #
point $-1 -65.293421877378279 24.163532092118345 5.2640485749056865 #
plane-surface $-1 68.638569292275761 0 0 -1 0 0 0 0 1 forward_v I I I I #
coedge $-1 $271 $269 $273 $375 reversed $181 $-1 #
edge $-1 $284 -8.4845956773351148 $377 8.4845956773351148 $283 $433 forward 7 unknown #
vertex $-1 $375 $434 #
straight-curve $-1 -68.638569292275761 -33.201737213738546 0 0 0 -1 I I #
edge $-1 $373 -33.201737213738546 $377 33.201737213738546 $371 $435 forward 7 unknown #
straight-curve $-1 0 -33.201737213738546 -8.4845956773351148 -1 0 0 I I #
vertex $-1 $276 $436 #
straight-curve $-1 0 33.201737213738546 -8.4845956773351148 1 0 0 I I #
point $-1 68.638569292275761 33.201737213738546 -8.4845956773351148 #
point $-1 68.638569292275761 -33.201737213738546 -8.4845956773351148 #
straight-curve $-1 -68.638569292275761 0 8.4845956773351148 0 -1 0 I I #
point $-1 -68.638569292275761 33.201737213738546 8.4845956773351148 #
point $-1 -68.638569292275761 -33.201737213738546 8.4845956773351148 #
straight-curve $-1 68.638569292275761 -33.201737213738546 0 0 0 -1 I I #
straight-curve $-1 68.638569292275761 33.201737213738546 0 0 0 -1 I I #
plane-surface $-1 68.638569292275761 0 0 -1 0 0 0 0 1 forward_v I I I I #
coedge $-1 $297 $296 $307 $398 reversed $122 $-1 #
coedge $-1 $437 $300 $297 $389 forward $294 $-1 #
edge $-1 $390 27.033153655815902 $438 33.201737213738546 $297 $439 forward 7 unknown #
vertex $-1 $389 $440 #
straight-curve $-1 -68.638569292275761 -27.033153655815902 3.4922978386675574 0 0 -1 I I #
coedge $-1 $300 $437 $302 $394 forward $294 $-1 #
straight-curve $-1 0 -27.033153655815902 8.4845956773351148 -1 0 0 I I #
edge $-1 $401 -33.201737213738546 $303 -27.033153655815902 $302 $441 forward 7 unknown #
point $-1 68.638569292275761 -27.033153655815902 8.4845956773351148 #
straight-curve $-1 -68.638569292275761 -15.058722717388612 5.4845956773351148 0 -1 0 I I #
coedge $-1 $307 $306 $437 $442 reversed $200 $-1 #
edge $-1 $438 -8.4845956773351148 $308 -5.4845956773351148 $387 $443 forward 7 unknown #
point $-1 -68.638569292275761 -33.201737213738546 5.4845956773351148 #
point $-1 -68.638569292275761 -27.033153655815902 5.4845956773351148 #
vertex $-1 $394 $444 #
straight-curve $-1 68.638569292275761 -33.201737213738546 0 0 0 -1 I I #
coedge $-1 $325 $324 $317 $404 forward $315 $-1 #
edge $-1 $411 89.561952212536085 $406 96.063074920834609 $403 $445 forward 7 unknown #
edge $-1 $322 62.360508218239744 $411 68.638569292275761 $321 $446 forward 7 unknown #
vertex $-1 $404 $447 #
straight-curve $-1 -26.72214292694251 -27.033153655815902 100.73238356052408 -0.69465836192734942 0 0.71933980857756763 I I #
edge $-1 $406 -16.58847905453354 $326 -4.3008701480311835 $325 $448 forward 7 unknown #
point $-1 62.360508218239744 -27.033153655815902 8.4845956773351148 #
point $-1 68.638569292275761 -14.745544749313545 1.9834729690365833 #
vertex $-1 $329 $449 #
straight-curve $-1 68.638569292275761 0 8.4845956773351148 0 1 0 I I #
vertex $-1 $332 $450 #
point $-1 64.320142058771665 -23.522408253958087 2.7049406242829299 #
vertex $-1 $336 $451 #
point $-1 64.320142058771665 -18.256290151171363 2.7049406242829299 #
coedge $-1 $351 $350 $343 $418 forward $340 $-1 #
edge $-1 $419 36.274154043036667 $422 43.48129269930115 $417 $452 forward 7 unknown #
vertex $-1 $355 $453 #
straight-curve $-1 -86.899479804905795 25.801475524919347 8.4845956773351148 -1 0 0 I I #
edge $-1 $422 -14.948167053460924 $352 -6.7584498894559211 $351 $454 forward 7 unknown #
vertex $-1 $421 $455 #
straight-curve $-1 -68.638569292275761 25.801475524919347 1.2774570210706315 0.64278759981090561 0 0.7660444514056185 I I #
point $-1 -62.591062062291712 25.801475524919347 8.4845956773351148 #
point $-1 -68.638569292275761 17.611758360914344 1.2774570210706315 #
straight-curve $-1 -68.638569292275761 0 8.4845956773351148 0 -1 0 I I #
vertex $-1 $358 $456 #
point $-1 -64.135681763840779 19.249701793715346 4.2925892980711957 #
vertex $-1 $362 $457 #
point $-1 -64.135681763840779 21.706616942916845 4.2925892980711957 #
vertex $-1 $366 $458 #
point $-1 -64.135681763840779 24.163532092118345 4.2925892980711957 #
straight-curve $-1 -68.638569292275761 33.201737213738546 0 0 0 -1 I I #
point $-1 -68.638569292275761 -33.201737213738546 -8.4845956773351148 #
straight-curve $-1 -68.638569292275761 0 -8.4845956773351148 0 1 0 I I #
point $-1 -68.638569292275761 33.201737213738546 -8.4845956773351148 #
coedge $-1 $392 $388 $397 $442 forward $294 $-1 #
vertex $-1 $389 $459 #
straight-curve $-1 -68.638569292275761 0 8.4845956773351148 0 -1 0 I I #
point $-1 -68.638569292275761 -27.033153655815902 8.4845956773351148 #
straight-curve $-1 68.638569292275761 0 8.4845956773351148 0 1 0 I I #
edge $-1 $438 -68.638569292275761 $401 68.638569292275761 $397 $460 forward 7 unknown #
straight-curve $-1 -68.638569292275761 -33.201737213738546 0 0 0 -1 I I #
point $-1 68.638569292275761 -33.201737213738546 8.4845956773351148 #
straight-curve $-1 68.638569292275761 -27.033153655815902 98.046547889871192 0 0 -1 I I #
straight-curve $-1 0 -27.033153655815902 8.4845956773351148 1 0 0 I I #
point $-1 68.638569292275761 -27.033153655815902 1.9834729690365833 #
straight-curve $-1 68.638569292275761 -10.444674601282362 1.9834729690365904 0 1 0 I I #
point $-1 68.638569292275761 -27.033153655815902 8.4845956773351148 #
point $-1 62.906143888266747 -23.522408253958087 2.7296220709331482 #
point $-1 62.906143888266747 -18.256290151171363 2.7296220709331482 #
straight-curve $-1 -68.638569292275761 25.801475524919347 44.758749720371782 0 0 -1 I I #
point $-1 -68.638569292275761 25.801475524919347 8.4845956773351148 #
straight-curve $-1 -68.638569292275761 10.853308471458423 1.2774570210706315 0 -1 0 I I #
point $-1 -68.638569292275761 25.801475524919347 1.2774570210706315 #
point $-1 -64.074053338043427 19.249701793715346 3.5881732724629343 #
point $-1 -64.074053338043427 21.706616942916845 3.5881732724629343 #
point $-1 -64.074053338043427 24.163532092118345 3.5881732724629343 #
point $-1 -68.638569292275761 -33.201737213738546 8.4845956773351148 #
straight-curve $-1 0 -33.201737213738546 8.4845956773351148 1 0 0 I I #
End-of-ACIS-data 