500 0 12 0           
7 Unknown 11 ACIS 5.0 NT 24 Fri Mar 26 15:07:29 1999 
-1 9.9999999999999995e-007 1e-010 
body $-1 $12 $-1 $13 #
body $-1 $14 $-1 $15 #
body $-1 $16 $-1 $17 #
body $-1 $18 $-1 $19 #
body $-1 $20 $-1 $21 #
body $-1 $22 $-1 $23 #
body $-1 $24 $-1 $25 #
body $-1 $26 $-1 $27 #
body $-1 $28 $-1 $29 #
body $-1 $30 $-1 $31 #
body $-1 $32 $-1 $33 #
body $-1 $34 $-1 $35 #
lump $-1 $-1 $36 $0 #
transform $-1 1 0 0 0 1 0 0 0 1 72.441175572985017 41.227821239517006 19.35167268929543 1 rotate no_reflect no_shear #
lump $-1 $-1 $37 $1 #
transform $-1 1 0 0 0 1 0 0 0 1 72.441175572985017 41.227821239517006 19.35167268929543 1 rotate no_reflect no_shear #
lump $-1 $-1 $38 $2 #
transform $-1 1 0 0 0 1 0 0 0 1 72.441175572985017 41.227821239517006 19.35167268929543 1 rotate no_reflect no_shear #
lump $-1 $-1 $39 $3 #
transform $-1 1 0 0 0 1 0 0 0 1 72.441175572985017 41.227821239517006 19.35167268929543 1 rotate no_reflect no_shear #
lump $-1 $-1 $40 $4 #
transform $-1 1 0 0 0 1 0 0 0 1 72.441175572985017 41.227821239517006 19.35167268929543 1 rotate no_reflect no_shear #
lump $-1 $-1 $41 $5 #
transform $-1 1 0 0 0 1 0 0 0 1 72.441175572985017 41.227821239517006 19.35167268929543 1 rotate no_reflect no_shear #
lump $-1 $-1 $42 $6 #
transform $-1 1 0 0 0 1 0 0 0 1 72.441175572985017 41.227821239517006 19.35167268929543 1 rotate no_reflect no_shear #
lump $-1 $-1 $43 $7 #
transform $-1 1 0 0 0 1 0 0 0 1 72.441175572985017 41.227821239517006 19.35167268929543 1 rotate no_reflect no_shear #
lump $-1 $-1 $44 $8 #
transform $-1 1 0 0 0 1 0 0 0 1 72.441175572985017 41.227821239517006 19.35167268929543 1 rotate no_reflect no_shear #
lump $-1 $-1 $45 $9 #
transform $-1 1 0 0 0 1 0 0 0 1 72.441175572985017 41.227821239517006 19.35167268929543 1 rotate no_reflect no_shear #
lump $-1 $-1 $46 $10 #
transform $-1 1 0 0 0 1 0 0 0 1 72.441175572985017 41.227821239517006 19.35167268929543 1 rotate no_reflect no_shear #
lump $-1 $-1 $47 $11 #
transform $-1 1 0 0 0 1 0 0 0 1 72.441175572985017 41.227821239517006 19.35167268929543 1 rotate no_reflect no_shear #
shell $-1 $-1 $-1 $48 $-1 $12 #
shell $-1 $-1 $-1 $49 $-1 $14 #
shell $-1 $-1 $-1 $50 $-1 $16 #
shell $-1 $-1 $-1 $51 $-1 $18 #
shell $-1 $-1 $-1 $52 $-1 $20 #
shell $-1 $-1 $-1 $53 $-1 $22 #
shell $-1 $-1 $-1 $54 $-1 $24 #
shell $-1 $-1 $-1 $55 $-1 $26 #
shell $-1 $-1 $-1 $56 $-1 $28 #
shell $-1 $-1 $-1 $57 $-1 $30 #
shell $-1 $-1 $-1 $58 $-1 $32 #
shell $-1 $-1 $-1 $59 $-1 $34 #
face $-1 $60 $61 $36 $-1 $62 forward single #
face $-1 $63 $64 $37 $-1 $65 forward single #
face $-1 $66 $67 $38 $-1 $68 reversed single #
face $-1 $69 $70 $39 $-1 $71 forward single #
face $-1 $72 $73 $40 $-1 $74 reversed single #
face $-1 $75 $76 $41 $-1 $77 forward single #
face $-1 $78 $79 $42 $-1 $80 forward single #
face $-1 $81 $82 $43 $-1 $83 forward single #
face $-1 $84 $85 $44 $-1 $86 reversed single #
face $-1 $87 $88 $45 $-1 $89 forward single #
face $-1 $90 $91 $46 $-1 $92 forward single #
face $-1 $93 $94 $47 $-1 $95 forward single #
face $-1 $96 $97 $36 $-1 $98 reversed single #
loop $-1 $-1 $99 $48 #
plane-surface $-1 0 0 19.35167268929543 0 0 1 1 0 0 forward_v I I I I #
face $-1 $100 $101 $37 $-1 $102 reversed single #
loop $-1 $-1 $103 $49 #
plane-surface $-1 0 -29.008043426039674 -8.7061561362504207 0 0 1 1 0 0 forward_v I I I I #
face $-1 $104 $105 $38 $-1 $106 reversed single #
loop $-1 $-1 $107 $50 #
plane-surface $-1 -183.42749677495581 7.6351824936519783 107.56647645756389 0 1 0 -0.7660444514056185 0 0.64278759981090561 forward_v I I I I #
face $-1 $108 $109 $39 $-1 $110 forward single #
loop $-1 $111 $112 $51 #
cone-surface $-1 -68.844088382169303 13.87821562983396 15.60633612106812 0.7660444514056185 0 -0.64278759981090561 0.96418139971635841 0 1.1490666771084277 1 I I 0 1 1.5 forward I I I I #
face $-1 $113 $114 $40 $-1 $115 reversed single #
loop $-1 $-1 $116 $52 #
plane-surface $-1 90.298918026876933 0.88109792692255695 208.2204088832701 0 -1 0 -0.7660444514056185 0 -0.64278759981090561 forward_v I I I I #
face $-1 $117 $118 $41 $-1 $119 forward single #
loop $-1 $120 $121 $53 #
cone-surface $-1 64.848195580910357 -9.5083492250585735 10.724645915804505 -0.7660444514056185 0 -0.64278759981090561 0.64278759981090561 0 -0.7660444514056185 1 I I 0 1 1 forward I I I I #
face $-1 $122 $123 $42 $-1 $124 forward single #
loop $-1 $125 $126 $54 #
cone-surface $-1 64.848195580910357 -5.6123065430656496 10.724645915804505 -0.7660444514056185 0 -0.64278759981090561 0.64278759981090561 0 -0.7660444514056185 1 I I 0 1 1 forward I I I I #
face $-1 $127 $128 $43 $-1 $129 forward single #
loop $-1 $130 $131 $55 #
cone-surface $-1 64.848195580910357 -1.7162638610727257 10.724645915804505 -0.7660444514056185 0 -0.64278759981090561 0.64278759981090561 0 -0.7660444514056185 1 I I 0 1 1 forward I I I I #
face $-1 $132 $133 $44 $-1 $134 reversed single #
loop $-1 $-1 $135 $56 #
plane-surface $-1 90.298918026876933 36.545266640008528 208.2204088832701 0 -1 0 -0.7660444514056185 0 -0.64278759981090561 forward_v I I I I #
face $-1 $136 $137 $45 $-1 $138 forward single #
loop $-1 $139 $140 $57 #
cone-surface $-1 64.848195580910357 26.155819488027397 10.724645915804505 -0.7660444514056185 0 -0.64278759981090561 0.64278759981090561 0 -0.7660444514056185 1 I I 0 1 1 forward I I I I #
face $-1 $141 $142 $46 $-1 $143 forward single #
loop $-1 $144 $145 $58 #
cone-surface $-1 64.848195580910357 30.051862170020321 10.724645915804505 -0.7660444514056185 0 -0.64278759981090561 0.64278759981090561 0 -0.7660444514056185 1 I I 0 1 1 forward I I I I #
face $-1 $146 $147 $47 $-1 $148 forward single #
loop $-1 $149 $150 $59 #
cone-surface $-1 64.848195580910357 33.947904852013245 10.724645915804505 -0.7660444514056185 0 -0.64278759981090561 0.64278759981090561 0 -0.7660444514056185 1 I I 0 1 1 forward I I I I #
face $-1 $151 $152 $36 $-1 $153 reversed single #
loop $-1 $-1 $154 $60 #
plane-surface $-1 0 0 -19.35167268929543 0 0 1 1 0 0 forward_v I I I I #
coedge $-1 $155 $156 $157 $158 forward $61 $-1 #
face $-1 $159 $160 $37 $-1 $161 reversed single #
loop $-1 $-1 $162 $63 #
plane-surface $-1 0 -16.788265612562341 -14.028914412772926 0 -1 0 0 0 -1 forward_v I I I I #
coedge $-1 $163 $164 $165 $166 reversed $64 $-1 #
face $-1 $167 $168 $38 $-1 $169 reversed single #
loop $-1 $-1 $170 $66 #
plane-surface $-1 -72.441175572985017 13.878215629833953 14.437897709485 -0.7660444514056185 0 0.64278759981090561 0.64278759981090561 0 0.7660444514056185 forward_v I I I I #
coedge $-1 $171 $172 $173 $174 reversed $67 $-1 #
face $-1 $-1 $175 $39 $-1 $176 forward single #
loop $-1 $177 $178 $69 #
cone-surface $-1 -66.734041185448433 13.87821562983396 13.835796342887843 0.7660444514056185 0 -0.64278759981090561 0.48209069985817921 0 0.57453333855421385 1 I I -0.70710678118654757 0.70710678118654757 0.75 forward I I I I #
loop $-1 $-1 $179 $51 #
coedge $-1 $112 $112 $180 $181 reversed $70 $-1 #
face $-1 $182 $183 $40 $-1 $184 reversed single #
loop $-1 $-1 $185 $72 #
plane-surface $-1 -20.687403175093863 -5.6123065430656496 115.0918301351912 0.7660444514056185 0 0.64278759981090561 0.64278759981090561 0 -0.7660444514056185 forward_v I I I I #
coedge $-1 $186 $187 $188 $189 reversed $73 $-1 #
face $-1 $-1 $190 $41 $-1 $191 forward single #
loop $-1 $192 $193 $75 #
cone-surface $-1 63.26871838795968 -9.5083492250585735 9.3993072204456176 -0.7660444514056185 0 -0.64278759981090561 0.3213937999054528 0 -0.38302222570280925 1 I I -0.70710678118654746 0.70710678118654746 0.5 forward I I I I #
loop $-1 $-1 $194 $53 #
coedge $-1 $121 $121 $195 $196 reversed $76 $-1 #
face $-1 $-1 $197 $42 $-1 $198 forward single #
loop $-1 $199 $200 $78 #
cone-surface $-1 63.26871838795968 -5.6123065430656496 9.3993072204456176 -0.7660444514056185 0 -0.64278759981090561 0.3213937999054528 0 -0.38302222570280925 1 I I -0.70710678118654746 0.70710678118654746 0.5 forward I I I I #
loop $-1 $-1 $201 $54 #
coedge $-1 $126 $126 $202 $203 reversed $79 $-1 #
face $-1 $-1 $204 $43 $-1 $205 forward single #
loop $-1 $206 $207 $81 #
cone-surface $-1 63.26871838795968 -1.7162638610727257 9.3993072204456176 -0.7660444514056185 0 -0.64278759981090561 0.3213937999054528 0 -0.38302222570280925 1 I I -0.70710678118654746 0.70710678118654746 0.5 forward I I I I #
loop $-1 $-1 $208 $55 #
coedge $-1 $131 $131 $209 $210 reversed $82 $-1 #
face $-1 $211 $212 $44 $-1 $213 reversed single #
loop $-1 $-1 $214 $84 #
plane-surface $-1 -20.687403175093863 30.051862170020321 115.0918301351912 0.7660444514056185 0 0.64278759981090561 0.64278759981090561 0 -0.7660444514056185 forward_v I I I I #
coedge $-1 $215 $216 $217 $218 reversed $85 $-1 #
face $-1 $-1 $219 $45 $-1 $220 forward single #
loop $-1 $221 $222 $87 #
cone-surface $-1 63.26871838795968 26.155819488027397 9.3993072204456176 -0.7660444514056185 0 -0.64278759981090561 0.3213937999054528 0 -0.38302222570280925 1 I I -0.70710678118654746 0.70710678118654746 0.5 forward I I I I #
loop $-1 $-1 $223 $57 #
coedge $-1 $140 $140 $224 $225 reversed $88 $-1 #
face $-1 $-1 $226 $46 $-1 $227 forward single #
loop $-1 $228 $229 $90 #
cone-surface $-1 63.26871838795968 30.051862170020321 9.3993072204456176 -0.7660444514056185 0 -0.64278759981090561 0.3213937999054528 0 -0.38302222570280925 1 I I -0.70710678118654746 0.70710678118654746 0.5 forward I I I I #
loop $-1 $-1 $230 $58 #
coedge $-1 $145 $145 $231 $232 reversed $91 $-1 #
face $-1 $-1 $233 $47 $-1 $234 forward single #
loop $-1 $235 $236 $93 #
cone-surface $-1 63.26871838795968 33.947904852013245 9.3993072204456176 -0.7660444514056185 0 -0.64278759981090561 0.3213937999054528 0 -0.38302222570280925 1 I I -0.70710678118654746 0.70710678118654746 0.5 forward I I I I #
loop $-1 $-1 $237 $59 #
coedge $-1 $150 $150 $238 $239 reversed $94 $-1 #
face $-1 $240 $241 $36 $-1 $242 reversed single #
loop $-1 $-1 $243 $96 #
plane-surface $-1 0 -41.227821239517006 0 0 1 0 0 0 1 forward_v I I I I #
coedge $-1 $244 $245 $246 $247 forward $97 $-1 #
coedge $-1 $248 $99 $249 $250 forward $61 $-1 #
coedge $-1 $99 $248 $251 $252 forward $61 $-1 #
coedge $-1 $253 $254 $99 $158 reversed $255 $-1 #
edge $-1 $256 -41.227821239517006 $257 41.227821239517006 $157 $258 forward 7 unknown #
face $-1 $259 $260 $37 $-1 $261 reversed single #
loop $-1 $-1 $262 $100 #
plane-surface $-1 0 0 -19.35167268929543 0 0 1 1 0 0 forward_v I I I I #
coedge $-1 $263 $264 $265 $266 reversed $101 $-1 #
coedge $-1 $267 $103 $264 $268 forward $64 $-1 #
coedge $-1 $103 $267 $269 $270 reversed $64 $-1 #
coedge $-1 $271 $265 $103 $166 forward $260 $-1 #
edge $-1 $272 2.2842438995425045 $273 26.723799526497167 $165 $274 forward 7 unknown #
face $-1 $275 $276 $38 $-1 $277 forward single #
loop $-1 $-1 $278 $104 #
plane-surface $-1 -183.42749677495581 20.121248766015928 107.56647645756389 0 -1 0 0.7660444514056185 0 -0.64278759981090561 forward_v I I I I #
coedge $-1 $279 $280 $281 $282 reversed $105 $-1 #
coedge $-1 $172 $107 $283 $284 reversed $67 $-1 #
coedge $-1 $107 $171 $279 $285 reversed $67 $-1 #
coedge $-1 $281 $286 $107 $174 forward $276 $-1 #
edge $-1 $287 19.272572814492889 $288 23.39571947979104 $173 $289 forward 7 unknown #
loop $-1 $-1 $180 $108 #
plane-surface $-1 -72.441175572985017 13.878215629833953 14.437897709485 -0.7660444514056185 0 0.64278759981090561 0.64278759981090561 0 0.7660444514056185 forward_v I I I I #
loop $-1 $-1 $290 $69 #
coedge $-1 $178 $178 $179 $291 reversed $109 $-1 #
coedge $-1 $179 $179 $178 $291 forward $111 $-1 #
coedge $-1 $180 $180 $112 $181 forward $175 $-1 #
edge $-1 $292 0 $292 6.2831853071796004 $180 $293 forward 7 unknown #
face $-1 $294 $295 $40 $-1 $296 reversed single #
loop $-1 $-1 $297 $113 #
plane-surface $-1 90.298918026876933 -12.105711013053856 208.2204088832701 0 1 0 0.7660444514056185 0 0.64278759981090561 forward_v I I I I #
coedge $-1 $298 $299 $300 $301 reversed $114 $-1 #
coedge $-1 $187 $116 $302 $303 reversed $73 $-1 #
coedge $-1 $116 $186 $298 $304 reversed $73 $-1 #
coedge $-1 $300 $305 $116 $189 forward $306 $-1 #
edge $-1 $307 -27.291716559546551 $308 -14.498666509893006 $188 $309 forward 7 unknown #
loop $-1 $-1 $195 $117 #
plane-surface $-1 -20.687403175093863 -5.6123065430656496 115.0918301351912 0.7660444514056185 0 0.64278759981090561 0.64278759981090561 0 -0.7660444514056185 forward_v I I I I #
loop $-1 $-1 $310 $75 #
coedge $-1 $193 $193 $194 $311 reversed $118 $-1 #
coedge $-1 $194 $194 $193 $311 forward $120 $-1 #
coedge $-1 $195 $195 $121 $196 forward $190 $-1 #
edge $-1 $312 0 $312 6.2831853071796004 $195 $313 forward 7 unknown #
loop $-1 $-1 $202 $122 #
plane-surface $-1 -20.687403175093863 -5.6123065430656496 115.0918301351912 0.7660444514056185 0 0.64278759981090561 0.64278759981090561 0 -0.7660444514056185 forward_v I I I I #
loop $-1 $-1 $314 $78 #
coedge $-1 $200 $200 $201 $315 reversed $123 $-1 #
coedge $-1 $201 $201 $200 $315 forward $125 $-1 #
coedge $-1 $202 $202 $126 $203 forward $197 $-1 #
edge $-1 $316 0 $316 6.2831853071796004 $202 $317 forward 7 unknown #
loop $-1 $-1 $209 $127 #
plane-surface $-1 -20.687403175093863 -5.6123065430656496 115.0918301351912 0.7660444514056185 0 0.64278759981090561 0.64278759981090561 0 -0.7660444514056185 forward_v I I I I #
loop $-1 $-1 $318 $81 #
coedge $-1 $207 $207 $208 $319 reversed $128 $-1 #
coedge $-1 $208 $208 $207 $319 forward $130 $-1 #
coedge $-1 $209 $209 $131 $210 forward $204 $-1 #
edge $-1 $320 0 $320 6.2831853071796004 $209 $321 forward 7 unknown #
face $-1 $322 $323 $44 $-1 $324 reversed single #
loop $-1 $-1 $325 $132 #
plane-surface $-1 90.298918026876933 23.558457700032115 208.2204088832701 0 1 0 0.7660444514056185 0 0.64278759981090561 forward_v I I I I #
coedge $-1 $326 $327 $328 $329 reversed $133 $-1 #
coedge $-1 $216 $135 $330 $331 reversed $85 $-1 #
coedge $-1 $135 $215 $326 $332 reversed $85 $-1 #
coedge $-1 $328 $333 $135 $218 forward $334 $-1 #
edge $-1 $335 -27.291716559546551 $336 -14.498666509893006 $217 $337 forward 7 unknown #
loop $-1 $-1 $224 $136 #
plane-surface $-1 -20.687403175093863 30.051862170020321 115.0918301351912 0.7660444514056185 0 0.64278759981090561 0.64278759981090561 0 -0.7660444514056185 forward_v I I I I #
loop $-1 $-1 $338 $87 #
coedge $-1 $222 $222 $223 $339 reversed $137 $-1 #
coedge $-1 $223 $223 $222 $339 forward $139 $-1 #
coedge $-1 $224 $224 $140 $225 forward $219 $-1 #
edge $-1 $340 0 $340 6.2831853071796004 $224 $341 forward 7 unknown #
loop $-1 $-1 $231 $141 #
plane-surface $-1 -20.687403175093863 30.051862170020321 115.0918301351912 0.7660444514056185 0 0.64278759981090561 0.64278759981090561 0 -0.7660444514056185 forward_v I I I I #
loop $-1 $-1 $342 $90 #
coedge $-1 $229 $229 $230 $343 reversed $142 $-1 #
coedge $-1 $230 $230 $229 $343 forward $144 $-1 #
coedge $-1 $231 $231 $145 $232 forward $226 $-1 #
edge $-1 $344 0 $344 6.2831853071796004 $231 $345 forward 7 unknown #
loop $-1 $-1 $238 $146 #
plane-surface $-1 -20.687403175093863 30.051862170020321 115.0918301351912 0.7660444514056185 0 0.64278759981090561 0.64278759981090561 0 -0.7660444514056185 forward_v I I I I #
loop $-1 $-1 $346 $93 #
coedge $-1 $236 $236 $237 $347 reversed $147 $-1 #
coedge $-1 $237 $237 $236 $347 forward $149 $-1 #
coedge $-1 $238 $238 $150 $239 forward $233 $-1 #
edge $-1 $348 0 $348 6.2831853071796004 $238 $349 forward 7 unknown #
face $-1 $350 $351 $36 $-1 $352 reversed single #
loop $-1 $-1 $353 $151 #
plane-surface $-1 -72.441175572985017 0 0 1 0 0 0 0 -1 forward_v I I I I #
coedge $-1 $354 $251 $355 $356 forward $152 $-1 #
coedge $-1 $357 $154 $354 $358 forward $97 $-1 #
coedge $-1 $154 $357 $359 $360 forward $97 $-1 #
coedge $-1 $254 $253 $154 $247 reversed $255 $-1 #
edge $-1 $361 -41.227821239517006 $362 41.227821239517006 $246 $363 forward 7 unknown #
coedge $-1 $156 $155 $364 $365 forward $61 $-1 #
coedge $-1 $366 $367 $155 $250 reversed $351 $-1 #
edge $-1 $257 -72.441175572985017 $368 72.441175572985017 $249 $369 forward 7 unknown #
coedge $-1 $243 $370 $156 $252 reversed $152 $-1 #
edge $-1 $371 -72.441175572985017 $256 72.441175572985017 $251 $372 forward 7 unknown #
coedge $-1 $246 $157 $370 $373 forward $255 $-1 #
coedge $-1 $157 $246 $366 $374 reversed $255 $-1 #
loop $-1 $-1 $253 $350 #
vertex $-1 $158 $375 #
vertex $-1 $158 $376 #
straight-curve $-1 72.441175572985017 0 19.35167268929543 0 1 0 I I #
face $-1 $377 $378 $37 $-1 $379 reversed single #
loop $-1 $-1 $265 $159 #
plane-surface $-1 72.441175572985017 0 0 -1 0 0 0 0 1 forward_v I I I I #
coedge $-1 $380 $381 $263 $382 forward $160 $-1 #
coedge $-1 $383 $162 $262 $382 reversed $101 $-1 #
coedge $-1 $162 $383 $163 $268 reversed $101 $-1 #
coedge $-1 $165 $384 $162 $266 forward $260 $-1 #
edge $-1 $385 -12.337215482908967 $272 -1.691698929863958 $265 $386 forward 7 unknown #
coedge $-1 $164 $163 $387 $388 reversed $64 $-1 #
edge $-1 $272 -72.441175572985017 $389 72.441175572985017 $264 $390 forward 7 unknown #
coedge $-1 $391 $392 $164 $270 forward $378 $-1 #
edge $-1 $273 -72.441175572985017 $393 72.441175572985017 $269 $394 forward 7 unknown #
coedge $-1 $384 $165 $392 $395 forward $260 $-1 #
vertex $-1 $166 $396 #
vertex $-1 $395 $397 #
straight-curve $-1 72.441175572985017 -14.504021713019837 -8.7061561362504207 0 -1 0 I I #
face $-1 $-1 $398 $38 $-1 $399 reversed single #
loop $-1 $-1 $173 $167 #
plane-surface $-1 0 0 19.35167268929543 0 0 1 1 0 0 forward_v I I I I #
coedge $-1 $400 $401 $402 $403 reversed $168 $-1 #
coedge $-1 $404 $170 $172 $285 forward $105 $-1 #
coedge $-1 $170 $404 $400 $405 forward $105 $-1 #
coedge $-1 $402 $173 $170 $282 forward $276 $-1 #
edge $-1 $288 0.69607467873500184 $406 13.182140951098951 $281 $407 forward 7 unknown #
coedge $-1 $408 $409 $171 $284 forward $398 $-1 #
edge $-1 $410 -39.345340519296947 $287 -34.431565539486513 $283 $411 forward 7 unknown #
edge $-1 $288 -6.4144776073948746 $410 0 $172 $412 forward 7 unknown #
coedge $-1 $173 $402 $408 $413 forward $276 $-1 #
vertex $-1 $284 $414 #
vertex $-1 $174 $415 #
straight-curve $-1 -91.713748387477906 7.6351824936519783 19.351672689295427 1 0 0 I I #
coedge $-1 $290 $290 $-1 $416 reversed $177 $-1 #
edge $-1 $417 0 $417 6.2831853071796004 $178 $418 forward 7 unknown #
vertex $-1 $181 $419 #
ellipse-curve $-1 -70.379602240335942 13.87821562983396 16.89478519939021 -0.7660444514056185 0 0.64278759981090561 0.96418139971635841 0 1.1490666771084277 1 I I #
face $-1 $-1 $306 $40 $-1 $420 forward single #
loop $-1 $-1 $421 $182 #
plane-surface $-1 72.441175572985017 0 0 -1 0 0 0 0 1 forward_v I I I I #
coedge $-1 $422 $423 $424 $425 reversed $183 $-1 #
coedge $-1 $426 $185 $187 $304 forward $114 $-1 #
coedge $-1 $185 $426 $422 $427 forward $114 $-1 #
coedge $-1 $424 $188 $185 $301 forward $306 $-1 #
edge $-1 $308 -3.6872511984553817 $428 9.2995577415210313 $300 $429 forward 7 unknown #
coedge $-1 $430 $431 $186 $303 forward $295 $-1 #
edge $-1 $432 -100.00469550841464 $307 -84.758531752339621 $302 $433 forward 7 unknown #
edge $-1 $308 124.97989805972976 $432 144.88235114597006 $187 $434 forward 7 unknown #
coedge $-1 $188 $424 $430 $435 forward $306 $-1 #
loop $-1 $-1 $424 $294 #
vertex $-1 $303 $436 #
vertex $-1 $189 $437 #
straight-curve $-1 45.149459013438467 0.88109792692255695 19.351672689295427 -1 0 0 I I #
coedge $-1 $310 $310 $-1 $438 reversed $192 $-1 #
edge $-1 $439 0 $439 6.2831853071796004 $193 $440 forward 7 unknown #
vertex $-1 $196 $441 #
ellipse-curve $-1 66.044650548158231 -9.5083492250585735 11.728590811257936 0.7660444514056185 0 0.64278759981090561 0.64278759981090561 0 -0.7660444514056185 1 I I #
coedge $-1 $314 $314 $-1 $442 reversed $199 $-1 #
edge $-1 $443 0 $443 6.2831853071796004 $200 $444 forward 7 unknown #
vertex $-1 $203 $445 #
ellipse-curve $-1 66.044650548158231 -5.6123065430656496 11.728590811257936 0.7660444514056185 0 0.64278759981090561 0.64278759981090561 0 -0.7660444514056185 1 I I #
coedge $-1 $318 $318 $-1 $446 reversed $206 $-1 #
edge $-1 $447 0 $447 6.2831853071796004 $207 $448 forward 7 unknown #
vertex $-1 $210 $449 #
ellipse-curve $-1 66.044650548158231 -1.7162638610727257 11.728590811257936 0.7660444514056185 0 0.64278759981090561 0.64278759981090561 0 -0.7660444514056185 1 I I #
face $-1 $-1 $334 $44 $-1 $450 forward single #
loop $-1 $-1 $451 $211 #
plane-surface $-1 72.441175572985017 0 0 -1 0 0 0 0 1 forward_v I I I I #
coedge $-1 $452 $453 $454 $455 reversed $212 $-1 #
coedge $-1 $456 $214 $216 $332 forward $133 $-1 #
coedge $-1 $214 $456 $452 $457 forward $133 $-1 #
coedge $-1 $454 $217 $214 $329 forward $334 $-1 #
edge $-1 $336 -21.519335554998367 $458 -8.5325266150219541 $328 $459 forward 7 unknown #
coedge $-1 $460 $461 $215 $331 forward $323 $-1 #
edge $-1 $462 -100.00469550841464 $335 -84.758531752339621 $330 $463 forward 7 unknown #
edge $-1 $336 124.97989805972976 $462 144.88235114597006 $216 $464 forward 7 unknown #
coedge $-1 $217 $454 $460 $465 forward $334 $-1 #
loop $-1 $-1 $454 $322 #
vertex $-1 $331 $466 #
vertex $-1 $218 $467 #
straight-curve $-1 45.149459013438467 36.545266640008528 19.351672689295427 -1 0 0 I I #
coedge $-1 $338 $338 $-1 $468 reversed $221 $-1 #
edge $-1 $469 0 $469 6.2831853071796004 $222 $470 forward 7 unknown #
vertex $-1 $225 $471 #
ellipse-curve $-1 66.044650548158231 26.155819488027397 11.728590811257936 0.7660444514056185 0 0.64278759981090561 0.64278759981090561 0 -0.7660444514056185 1 I I #
coedge $-1 $342 $342 $-1 $472 reversed $228 $-1 #
edge $-1 $473 0 $473 6.2831853071796004 $229 $474 forward 7 unknown #
vertex $-1 $232 $475 #
ellipse-curve $-1 66.044650548158231 30.051862170020321 11.728590811257936 0.7660444514056185 0 0.64278759981090561 0.64278759981090561 0 -0.7660444514056185 1 I I #
coedge $-1 $346 $346 $-1 $476 reversed $235 $-1 #
edge $-1 $477 0 $477 6.2831853071796004 $236 $478 forward 7 unknown #
vertex $-1 $239 $479 #
ellipse-curve $-1 66.044650548158231 33.947904852013245 11.728590811257936 0.7660444514056185 0 0.64278759981090561 0.64278759981090561 0 -0.7660444514056185 1 I I #
face $-1 $-1 $255 $36 $-1 $480 reversed single #
loop $-1 $-1 $366 $240 #
plane-surface $-1 0 41.227821239517006 0 0 -1 0 0 0 -1 forward_v I I I I #
coedge $-1 $481 $364 $367 $482 forward $241 $-1 #
coedge $-1 $370 $243 $244 $358 reversed $152 $-1 #
coedge $-1 $364 $481 $243 $356 reversed $241 $-1 #
edge $-1 $371 -19.35167268929543 $483 19.35167268929543 $355 $484 forward 7 unknown #
coedge $-1 $245 $244 $481 $485 forward $97 $-1 #
edge $-1 $362 -72.441175572985017 $483 72.441175572985017 $354 $486 forward 7 unknown #
coedge $-1 $367 $366 $245 $360 reversed $351 $-1 #
edge $-1 $487 -72.441175572985017 $361 72.441175572985017 $359 $488 forward 7 unknown #
vertex $-1 $247 $489 #
vertex $-1 $373 $490 #
straight-curve $-1 72.441175572985017 0 -19.35167268929543 0 -1 0 I I #
coedge $-1 $353 $355 $248 $365 reversed $241 $-1 #
edge $-1 $368 -41.227821239517006 $371 41.227821239517006 $364 $491 forward 7 unknown #
coedge $-1 $359 $249 $254 $374 forward $351 $-1 #
coedge $-1 $249 $359 $353 $482 reversed $351 $-1 #
vertex $-1 $250 $492 #
straight-curve $-1 0 41.227821239517006 19.35167268929543 -1 0 0 I I #
coedge $-1 $251 $354 $253 $373 reversed $152 $-1 #
vertex $-1 $365 $493 #
straight-curve $-1 0 -41.227821239517006 19.35167268929543 1 0 0 I I #
edge $-1 $256 -19.35167268929543 $362 19.35167268929543 $253 $494 forward 7 unknown #
edge $-1 $257 -19.35167268929543 $361 19.35167268929543 $254 $495 forward 7 unknown #
point $-1 72.441175572985017 -41.227821239517006 19.35167268929543 #
point $-1 72.441175572985017 41.227821239517006 19.35167268929543 #
face $-1 $-1 $496 $37 $-1 $497 reversed single #
loop $-1 $-1 $269 $259 #
plane-surface $-1 0 -41.227821239517006 0 0 1 0 0 0 1 forward_v I I I I #
coedge $-1 $498 $262 $384 $499 forward $160 $-1 #
coedge $-1 $262 $498 $500 $501 forward $160 $-1 #
edge $-1 $502 -72.441175572985017 $385 72.441175572985017 $262 $503 forward 7 unknown #
coedge $-1 $264 $263 $504 $505 reversed $101 $-1 #
coedge $-1 $265 $271 $380 $499 reversed $260 $-1 #
vertex $-1 $499 $506 #
straight-curve $-1 72.441175572985017 -16.788265612562341 -7.0144572063864628 0 0 1 I I #
coedge $-1 $504 $507 $267 $388 forward $496 $-1 #
edge $-1 $393 -26.723799526497167 $389 -2.2842438995425045 $387 $508 forward 7 unknown #
vertex $-1 $388 $509 #
straight-curve $-1 0 -16.788265612562341 -8.7061561362504207 -1 0 0 I I #
coedge $-1 $510 $269 $507 $511 forward $378 $-1 #
coedge $-1 $269 $510 $271 $395 reversed $378 $-1 #
vertex $-1 $511 $512 #
straight-curve $-1 0 -41.227821239517006 -8.7061561362504207 -1 0 0 I I #
edge $-1 $273 8.7061561362504207 $513 19.35167268929543 $271 $514 forward 7 unknown #
point $-1 72.441175572985017 -16.788265612562341 -8.7061561362504207 #
point $-1 72.441175572985017 -41.227821239517006 -8.7061561362504207 #
loop $-1 $-1 $283 $275 #
plane-surface $-1 -72.441175572985017 0 0 1 0 0 0 0 -1 forward_v I I I I #
coedge $-1 $401 $278 $280 $405 reversed $168 $-1 #
coedge $-1 $278 $400 $515 $516 reversed $168 $-1 #
coedge $-1 $286 $281 $278 $403 forward $276 $-1 #
edge $-1 $406 -23.39571947979104 $517 -19.272572814492889 $402 $518 forward 7 unknown #
coedge $-1 $280 $279 $409 $519 reversed $105 $-1 #
edge $-1 $520 0 $406 6.4144776073948746 $400 $521 forward 7 unknown #
vertex $-1 $282 $522 #
straight-curve $-1 -68.318028907686866 6.9391078149169765 19.351672689295427 0 1 0 I I #
coedge $-1 $515 $283 $286 $413 reversed $398 $-1 #
coedge $-1 $283 $515 $404 $519 forward $398 $-1 #
vertex $-1 $284 $523 #
straight-curve $-1 -72.441175572985017 7.6351824936519783 53.783238228781947 0 0 1 I I #
straight-curve $-1 -72.441175572985017 7.6351824936519783 14.437897709485 -0.64278759981090561 0 -0.7660444514056185 I I #
edge $-1 $517 -20.121248766015928 $287 -7.6351824936519783 $408 $524 forward 7 unknown #
point $-1 -72.441175572985017 7.6351824936519783 19.35167268929543 #
point $-1 -68.318028907686866 7.6351824936519783 19.35167268929543 #
edge $-1 $525 1 $525 0 $290 $-1 forward 7 unknown #
vertex $-1 $291 $526 #
ellipse-curve $-1 -67.308574524002651 13.87821562983396 14.317887042746023 -0.7660444514056185 0 0.64278759981090561 0.96418139971635841 0 1.1490666771084277 1 I I #
point $-1 -69.415420840619589 13.87821562983396 18.043851876498646 #
plane-surface $-1 0 0 19.35167268929543 0 0 1 1 0 0 forward_v I I I I #
coedge $-1 $431 $430 $423 $527 forward $295 $-1 #
coedge $-1 $423 $297 $299 $427 reversed $183 $-1 #
coedge $-1 $297 $422 $421 $527 reversed $183 $-1 #
coedge $-1 $305 $300 $297 $425 forward $306 $-1 #
edge $-1 $428 14.498666509893006 $528 27.291716559546551 $424 $529 forward 7 unknown #
coedge $-1 $299 $298 $431 $530 reversed $114 $-1 #
edge $-1 $531 -144.88235114597006 $428 -124.97989805972976 $422 $532 forward 7 unknown #
vertex $-1 $301 $533 #
straight-curve $-1 59.648125523331466 -2.8061532715328248 19.351672689295427 0 -1 0 I I #
coedge $-1 $421 $302 $305 $435 reversed $295 $-1 #
coedge $-1 $302 $421 $426 $530 forward $295 $-1 #
vertex $-1 $303 $534 #
straight-curve $-1 72.441175572985017 0.88109792692255695 104.11020444163505 0 0 1 I I #
straight-curve $-1 -20.687403175093863 0.88109792692255695 115.0918301351912 0.64278759981090561 0 -0.7660444514056185 I I #
edge $-1 $528 -12.105711013053856 $307 0.88109792692255695 $430 $535 forward 7 unknown #
point $-1 72.441175572985017 0.88109792692255695 19.35167268929543 #
point $-1 59.648125523331473 0.88109792692255695 19.351672689295427 #
edge $-1 $536 1 $536 0 $310 $-1 forward 7 unknown #
vertex $-1 $311 $537 #
ellipse-curve $-1 63.65174061366249 -9.5083492250585735 9.7207010203510702 0.7660444514056185 0 0.64278759981090561 0.64278759981090561 0 -0.7660444514056185 1 I I #
point $-1 66.687438147969146 -9.5083492250585735 10.962546359852318 #
edge $-1 $538 1 $538 0 $314 $-1 forward 7 unknown #
vertex $-1 $315 $539 #
ellipse-curve $-1 63.65174061366249 -5.6123065430656496 9.7207010203510702 0.7660444514056185 0 0.64278759981090561 0.64278759981090561 0 -0.7660444514056185 1 I I #
point $-1 66.687438147969146 -5.6123065430656496 10.962546359852318 #
edge $-1 $540 1 $540 0 $318 $-1 forward 7 unknown #
vertex $-1 $319 $541 #
ellipse-curve $-1 63.65174061366249 -1.7162638610727257 9.7207010203510702 0.7660444514056185 0 0.64278759981090561 0.64278759981090561 0 -0.7660444514056185 1 I I #
point $-1 66.687438147969146 -1.7162638610727257 10.962546359852318 #
plane-surface $-1 0 0 19.35167268929543 0 0 1 1 0 0 forward_v I I I I #
coedge $-1 $461 $460 $453 $542 forward $323 $-1 #
coedge $-1 $453 $325 $327 $457 reversed $212 $-1 #
coedge $-1 $325 $452 $451 $542 reversed $212 $-1 #
coedge $-1 $333 $328 $325 $455 forward $334 $-1 #
edge $-1 $458 14.498666509893006 $543 27.291716559546551 $454 $544 forward 7 unknown #
coedge $-1 $327 $326 $461 $545 reversed $133 $-1 #
edge $-1 $546 -144.88235114597006 $458 -124.97989805972976 $452 $547 forward 7 unknown #
vertex $-1 $329 $548 #
straight-curve $-1 59.648125523331466 15.025931085010161 19.351672689295427 0 -1 0 I I #
coedge $-1 $451 $330 $333 $465 reversed $323 $-1 #
coedge $-1 $330 $451 $456 $545 forward $323 $-1 #
vertex $-1 $331 $549 #
straight-curve $-1 72.441175572985017 36.545266640008528 104.11020444163505 0 0 1 I I #
straight-curve $-1 -20.687403175093863 36.545266640008528 115.0918301351912 0.64278759981090561 0 -0.7660444514056185 I I #
edge $-1 $543 23.558457700032115 $335 36.545266640008528 $460 $550 forward 7 unknown #
point $-1 72.441175572985017 36.545266640008528 19.35167268929543 #
point $-1 59.648125523331473 36.545266640008528 19.351672689295427 #
edge $-1 $551 1 $551 0 $338 $-1 forward 7 unknown #
vertex $-1 $339 $552 #
ellipse-curve $-1 63.65174061366249 26.155819488027397 9.7207010203510702 0.7660444514056185 0 0.64278759981090561 0.64278759981090561 0 -0.7660444514056185 1 I I #
point $-1 66.687438147969146 26.155819488027397 10.962546359852318 #
edge $-1 $553 1 $553 0 $342 $-1 forward 7 unknown #
vertex $-1 $343 $554 #
ellipse-curve $-1 63.65174061366249 30.051862170020321 9.7207010203510702 0.7660444514056185 0 0.64278759981090561 0.64278759981090561 0 -0.7660444514056185 1 I I #
point $-1 66.687438147969146 30.051862170020321 10.962546359852318 #
edge $-1 $555 1 $555 0 $346 $-1 forward 7 unknown #
vertex $-1 $347 $556 #
ellipse-curve $-1 63.65174061366249 33.947904852013245 9.7207010203510702 0.7660444514056185 0 0.64278759981090561 0.64278759981090561 0 -0.7660444514056185 1 I I #
point $-1 66.687438147969146 33.947904852013245 10.962546359852318 #
plane-surface $-1 72.441175572985017 0 0 -1 0 0 0 0 1 forward_v I I I I #
coedge $-1 $355 $353 $357 $485 reversed $241 $-1 #
edge $-1 $368 -19.35167268929543 $487 19.35167268929543 $367 $557 forward 7 unknown #
vertex $-1 $485 $558 #
straight-curve $-1 -72.441175572985017 -41.227821239517006 0 0 0 -1 I I #
edge $-1 $483 -41.227821239517006 $487 41.227821239517006 $481 $559 forward 7 unknown #
straight-curve $-1 0 -41.227821239517006 -19.35167268929543 -1 0 0 I I #
vertex $-1 $360 $560 #
straight-curve $-1 0 41.227821239517006 -19.35167268929543 1 0 0 I I #
point $-1 72.441175572985017 41.227821239517006 -19.35167268929543 #
point $-1 72.441175572985017 -41.227821239517006 -19.35167268929543 #
straight-curve $-1 -72.441175572985017 0 19.35167268929543 0 -1 0 I I #
point $-1 -72.441175572985017 41.227821239517006 19.35167268929543 #
point $-1 -72.441175572985017 -41.227821239517006 19.35167268929543 #
straight-curve $-1 72.441175572985017 -41.227821239517006 0 0 0 -1 I I #
straight-curve $-1 72.441175572985017 41.227821239517006 0 0 0 -1 I I #
loop $-1 $-1 $504 $377 #
plane-surface $-1 -72.441175572985017 0 0 1 0 0 0 0 -1 forward_v I I I I #
coedge $-1 $381 $380 $510 $561 forward $160 $-1 #
edge $-1 $385 16.788265612562341 $513 41.227821239517006 $384 $562 forward 7 unknown #
coedge $-1 $507 $504 $381 $501 reversed $496 $-1 #
edge $-1 $563 -41.227821239517006 $502 -16.788265612562341 $500 $564 forward 7 unknown #
vertex $-1 $505 $565 #
straight-curve $-1 0 -16.788265612562341 -19.35167268929543 1 0 0 I I #
coedge $-1 $500 $387 $383 $505 forward $496 $-1 #
edge $-1 $389 1.691698929863958 $502 12.337215482908967 $504 $566 forward 7 unknown #
point $-1 72.441175572985017 -16.788265612562341 -19.35167268929543 #
coedge $-1 $387 $500 $391 $511 reversed $496 $-1 #
straight-curve $-1 -72.441175572985017 -14.504021713019837 -8.7061561362504207 0 1 0 I I #
point $-1 -72.441175572985017 -16.788265612562341 -8.7061561362504207 #
coedge $-1 $392 $391 $498 $561 reversed $378 $-1 #
edge $-1 $393 8.7061561362504207 $563 19.35167268929543 $507 $567 forward 7 unknown #
point $-1 -72.441175572985017 -41.227821239517006 -8.7061561362504207 #
vertex $-1 $395 $568 #
straight-curve $-1 72.441175572985017 -41.227821239517006 0 0 0 -1 I I #
coedge $-1 $409 $408 $401 $516 forward $398 $-1 #
edge $-1 $517 34.431565539486513 $520 39.345340519296947 $515 $569 forward 7 unknown #
vertex $-1 $413 $570 #
straight-curve $-1 -91.713748387477906 20.121248766015928 19.351672689295427 -1 0 0 I I #
edge $-1 $520 -13.182140951098951 $410 -0.69607467873500184 $409 $571 forward 7 unknown #
vertex $-1 $519 $572 #
straight-curve $-1 -72.441175572985017 20.121248766015928 14.437897709485 0.64278759981090561 0 0.7660444514056185 I I #
point $-1 -68.318028907686866 20.121248766015928 19.35167268929543 #
point $-1 -72.441175572985017 7.6351824936519783 14.437897709485 #
straight-curve $-1 -72.441175572985017 0 19.35167268929543 0 -1 0 I I #
vertex $-1 $416 $573 #
point $-1 -66.344393124286285 13.87821562983396 15.46695371985445 #
edge $-1 $528 84.758531752339621 $531 100.00469550841464 $421 $574 forward 7 unknown #
vertex $-1 $435 $575 #
straight-curve $-1 45.149459013438467 -12.105711013053856 19.351672689295427 1 0 0 I I #
edge $-1 $531 -9.2995577415210313 $432 3.6872511984553817 $431 $576 forward 7 unknown #
vertex $-1 $530 $577 #
straight-curve $-1 -20.687403175093863 -12.105711013053856 115.0918301351912 -0.64278759981090561 0 0.7660444514056185 I I #
point $-1 59.648125523331473 -12.105711013053856 19.351672689295427 #
point $-1 72.441175572985017 0.88109792692255695 4.1055089332204062 #
straight-curve $-1 72.441175572985017 0 19.35167268929543 0 1 0 I I #
vertex $-1 $438 $578 #
point $-1 64.294528213473399 -9.5083492250585735 8.9546565689454525 #
vertex $-1 $442 $579 #
point $-1 64.294528213473399 -5.6123065430656496 8.9546565689454525 #
vertex $-1 $446 $580 #
point $-1 64.294528213473399 -1.7162638610727257 8.9546565689454525 #
edge $-1 $543 84.758531752339621 $546 100.00469550841464 $451 $581 forward 7 unknown #
vertex $-1 $465 $582 #
straight-curve $-1 45.149459013438467 23.558457700032115 19.351672689295427 1 0 0 I I #
edge $-1 $546 8.5325266150219541 $462 21.519335554998367 $461 $583 forward 7 unknown #
vertex $-1 $545 $584 #
straight-curve $-1 -20.687403175093863 23.558457700032115 115.0918301351912 -0.64278759981090561 0 0.7660444514056185 I I #
point $-1 59.648125523331473 23.558457700032115 19.351672689295427 #
point $-1 72.441175572985017 36.545266640008528 4.1055089332204062 #
straight-curve $-1 72.441175572985017 0 19.35167268929543 0 1 0 I I #
vertex $-1 $468 $585 #
point $-1 64.294528213473399 26.155819488027397 8.9546565689454525 #
vertex $-1 $472 $586 #
point $-1 64.294528213473399 30.051862170020321 8.9546565689454525 #
vertex $-1 $476 $587 #
point $-1 64.294528213473399 33.947904852013245 8.9546565689454525 #
straight-curve $-1 -72.441175572985017 41.227821239517006 0 0 0 -1 I I #
point $-1 -72.441175572985017 -41.227821239517006 -19.35167268929543 #
straight-curve $-1 -72.441175572985017 0 -19.35167268929543 0 1 0 I I #
point $-1 -72.441175572985017 41.227821239517006 -19.35167268929543 #
edge $-1 $513 -72.441175572985017 $563 72.441175572985017 $510 $588 forward 7 unknown #
straight-curve $-1 72.441175572985017 0 -19.35167268929543 0 -1 0 I I #
vertex $-1 $501 $589 #
straight-curve $-1 -72.441175572985017 0 -19.35167268929543 0 1 0 I I #
point $-1 -72.441175572985017 -16.788265612562341 -19.35167268929543 #
straight-curve $-1 -72.441175572985017 -16.788265612562341 -7.0144572063864628 0 0 -1 I I #
straight-curve $-1 -72.441175572985017 -41.227821239517006 0 0 0 -1 I I #
point $-1 72.441175572985017 -41.227821239517006 -19.35167268929543 #
straight-curve $-1 -72.441175572985017 20.121248766015928 53.783238228781947 0 0 -1 I I #
point $-1 -72.441175572985017 20.121248766015928 19.35167268929543 #
straight-curve $-1 -72.441175572985017 6.9391078149169765 14.437897709484995 0 -1 0 I I #
point $-1 -72.441175572985017 20.121248766015928 14.437897709485 #
point $-1 -66.159507846894215 13.87821562983396 13.353705643029663 #
straight-curve $-1 72.441175572985017 -12.105711013053856 104.11020444163505 0 0 -1 I I #
point $-1 72.441175572985017 -12.105711013053856 19.35167268929543 #
straight-curve $-1 72.441175572985017 -2.8061532715328248 4.1055089332204133 0 1 0 I I #
point $-1 72.441175572985017 -12.105711013053856 4.1055089332204062 #
point $-1 62.88569616225687 -9.5083492250585735 9.077913420540165 #
point $-1 62.88569616225687 -5.6123065430656496 9.077913420540165 #
point $-1 62.88569616225687 -1.7162638610727257 9.077913420540165 #
straight-curve $-1 72.441175572985017 23.558457700032115 104.11020444163505 0 0 -1 I I #
point $-1 72.441175572985017 23.558457700032115 19.35167268929543 #
straight-curve $-1 72.441175572985017 15.025931085010161 4.1055089332204133 0 1 0 I I #
point $-1 72.441175572985017 23.558457700032115 4.1055089332204062 #
point $-1 62.88569616225687 26.155819488027397 9.077913420540165 #
point $-1 62.88569616225687 30.051862170020321 9.077913420540165 #
point $-1 62.88569616225687 33.947904852013245 9.077913420540165 #
straight-curve $-1 0 -41.227821239517006 -19.35167268929543 -1 0 0 I I #
point $-1 -72.441175572985017 -41.227821239517006 -19.35167268929543 #
End-of-ACIS-data 