500 0 3 0           
7 Unknown 11 ACIS 5.0 NT 24 Thu Mar 25 21:37:26 1999 
-1 9.9999999999999995e-007 1e-010 
body $-1 $3 $-1 $4 #
body $-1 $5 $-1 $6 #
body $-1 $7 $-1 $8 #
lump $-1 $-1 $9 $0 #
transform $-1 1 0 0 0 1 0 0 0 1 49.348429822687457 30.177588191108871 13.840780857913771 1 rotate no_reflect no_shear #
lump $-1 $-1 $10 $1 #
transform $-1 1 0 0 0 1 0 0 0 1 49.348429822687457 30.177588191108871 13.840780857913771 1 rotate no_reflect no_shear #
lump $-1 $-1 $11 $2 #
transform $-1 1 0 0 0 1 0 0 0 1 49.348429822687457 30.177588191108871 13.840780857913771 1 rotate no_reflect no_shear #
shell $-1 $-1 $-1 $12 $-1 $3 #
shell $-1 $-1 $-1 $13 $-1 $5 #
shell $-1 $-1 $-1 $14 $-1 $7 #
face $-1 $15 $16 $9 $-1 $17 reversed single #
face $-1 $18 $19 $10 $-1 $20 forward single #
face $-1 $21 $22 $11 $-1 $23 forward single #
face $-1 $24 $25 $9 $-1 $26 forward single #
loop $-1 $-1 $27 $12 #
plane-surface $-1 49.348429822687457 0 0 -1 0 0 0 0 1 forward_v I I I I #
face $-1 $28 $29 $10 $-1 $30 reversed single #
loop $-1 $-1 $31 $13 #
plane-surface $-1 -49.348429822687457 0 0 1 0 0 0 0 -1 forward_v I I I I #
face $-1 $32 $33 $11 $-1 $34 reversed single #
loop $-1 $-1 $35 $14 #
plane-surface $-1 49.348429822687457 0 0 -1 0 0 0 0 1 forward_v I I I I #
face $-1 $36 $37 $9 $-1 $38 reversed single #
loop $-1 $-1 $39 $15 #
plane-surface $-1 0 0 13.840780857913771 0 0 1 1 0 0 forward_v I I I I #
coedge $-1 $40 $41 $42 $43 reversed $16 $-1 #
face $-1 $44 $45 $10 $-1 $46 forward single #
loop $-1 $-1 $47 $18 #
plane-surface $-1 0 30.177588191108871 0 0 -1 0 0 0 -1 forward_v I I I I #
coedge $-1 $48 $49 $50 $51 forward $19 $-1 #
face $-1 $52 $53 $11 $-1 $54 forward single #
loop $-1 $-1 $55 $21 #
plane-surface $-1 0 -30.177588191108871 0 0 1 0 0 0 1 forward_v I I I I #
coedge $-1 $56 $57 $58 $59 forward $22 $-1 #
face $-1 $60 $61 $9 $-1 $62 reversed single #
loop $-1 $-1 $63 $24 #
plane-surface $-1 0 0 -13.840780857913771 0 0 1 1 0 0 forward_v I I I I #
coedge $-1 $64 $65 $40 $66 forward $25 $-1 #
coedge $-1 $67 $27 $39 $66 reversed $16 $-1 #
coedge $-1 $27 $67 $63 $68 reversed $16 $-1 #
coedge $-1 $69 $70 $27 $43 forward $71 $-1 #
edge $-1 $72 -13.840780857913771 $73 13.840780857913771 $27 $74 forward 7 unknown #
face $-1 $75 $76 $10 $-1 $77 reversed single #
loop $-1 $-1 $50 $28 #
plane-surface $-1 -58.38563139650168 0 2.0989434000921268 0 0 1 1 0 0 forward_v I I I I #
coedge $-1 $78 $79 $49 $80 forward $29 $-1 #
coedge $-1 $81 $31 $82 $83 reversed $19 $-1 #
coedge $-1 $31 $81 $47 $80 reversed $19 $-1 #
coedge $-1 $84 $85 $31 $51 reversed $45 $-1 #
edge $-1 $86 -30.177588191108871 $87 30.177588191108871 $50 $88 forward 7 unknown #
face $-1 $89 $90 $11 $-1 $91 reversed single #
loop $-1 $-1 $92 $32 #
plane-surface $-1 58.385631396501672 0 2.0989434000921268 0 0 1 1 0 0 forward_v I I I I #
coedge $-1 $93 $94 $57 $95 forward $33 $-1 #
coedge $-1 $96 $35 $97 $98 reversed $22 $-1 #
coedge $-1 $35 $96 $55 $95 reversed $22 $-1 #
coedge $-1 $99 $100 $35 $59 reversed $53 $-1 #
edge $-1 $101 -30.177588191108871 $102 30.177588191108871 $58 $103 forward 7 unknown #
face $-1 $104 $105 $9 $-1 $106 reversed single #
loop $-1 $-1 $107 $36 #
plane-surface $-1 0 -30.177588191108871 0 0 1 0 0 0 1 forward_v I I I I #
coedge $-1 $108 $109 $41 $68 forward $37 $-1 #
coedge $-1 $110 $39 $70 $111 forward $25 $-1 #
coedge $-1 $39 $110 $112 $113 forward $25 $-1 #
edge $-1 $114 -30.177588191108871 $72 30.177588191108871 $40 $115 forward 7 unknown #
coedge $-1 $41 $40 $116 $117 forward $16 $-1 #
edge $-1 $73 -30.177588191108871 $118 30.177588191108871 $41 $119 forward 7 unknown #
coedge $-1 $120 $42 $109 $121 reversed $71 $-1 #
coedge $-1 $42 $120 $64 $111 reversed $71 $-1 #
loop $-1 $-1 $42 $104 #
vertex $-1 $66 $122 #
vertex $-1 $68 $123 #
straight-curve $-1 49.348429822687457 30.177588191108871 0 0 0 -1 I I #
face $-1 $124 $125 $10 $-1 $126 reversed single #
loop $-1 $-1 $127 $44 #
plane-surface $-1 -58.38563139650168 0 -5.7258476726490297 0 0 1 1 0 0 forward_v I I I I #
coedge $-1 $128 $47 $129 $130 reversed $29 $-1 #
coedge $-1 $47 $128 $84 $131 reversed $29 $-1 #
edge $-1 $86 -2.0989434000921268 $132 5.7258476726490297 $47 $133 forward 7 unknown #
coedge $-1 $49 $48 $127 $134 forward $19 $-1 #
coedge $-1 $135 $136 $48 $83 forward $137 $-1 #
edge $-1 $138 -5.7258476726490297 $87 2.0989434000921268 $82 $139 forward 7 unknown #
coedge $-1 $140 $50 $79 $131 forward $45 $-1 #
coedge $-1 $50 $140 $135 $141 forward $45 $-1 #
vertex $-1 $80 $142 #
vertex $-1 $141 $143 #
straight-curve $-1 -49.348429822687457 0 2.0989434000921268 0 -1 0 I I #
face $-1 $144 $145 $11 $-1 $146 reversed single #
loop $-1 $-1 $147 $52 #
plane-surface $-1 58.385631396501672 0 -5.7258476726490297 0 0 1 1 0 0 forward_v I I I I #
coedge $-1 $100 $99 $148 $149 forward $53 $-1 #
coedge $-1 $150 $55 $151 $152 reversed $33 $-1 #
coedge $-1 $55 $150 $99 $153 reversed $33 $-1 #
edge $-1 $101 -2.0989434000921268 $154 5.7258476726490297 $55 $155 forward 7 unknown #
coedge $-1 $57 $56 $156 $157 forward $22 $-1 #
coedge $-1 $158 $159 $56 $98 forward $160 $-1 #
edge $-1 $161 -5.7258476726490297 $102 2.0989434000921268 $97 $162 forward 7 unknown #
coedge $-1 $92 $58 $94 $153 forward $53 $-1 #
coedge $-1 $58 $92 $158 $163 forward $53 $-1 #
vertex $-1 $95 $164 #
vertex $-1 $163 $165 #
straight-curve $-1 49.348429822687457 0 2.0989434000921268 0 1 0 I I #
face $-1 $-1 $71 $9 $-1 $166 reversed single #
loop $-1 $-1 $167 $60 #
plane-surface $-1 -49.348429822687457 0 0 1 0 0 0 0 -1 forward_v I I I I #
coedge $-1 $168 $112 $167 $169 forward $61 $-1 #
coedge $-1 $170 $63 $168 $171 forward $37 $-1 #
coedge $-1 $63 $170 $69 $121 forward $37 $-1 #
coedge $-1 $65 $64 $172 $173 forward $25 $-1 #
edge $-1 $72 -49.348429822687457 $174 49.348429822687457 $70 $175 forward 7 unknown #
coedge $-1 $107 $116 $65 $113 reversed $61 $-1 #
edge $-1 $176 -49.348429822687457 $114 49.348429822687457 $112 $177 forward 7 unknown #
vertex $-1 $66 $178 #
straight-curve $-1 49.348429822687457 0 13.840780857913771 0 1 0 I I #
coedge $-1 $112 $168 $67 $117 reversed $61 $-1 #
edge $-1 $114 -13.840780857913771 $118 13.840780857913771 $67 $179 forward 7 unknown #
vertex $-1 $117 $180 #
straight-curve $-1 49.348429822687457 0 -13.840780857913771 0 -1 0 I I #
coedge $-1 $70 $69 $181 $182 reversed $71 $-1 #
edge $-1 $183 -49.348429822687457 $73 49.348429822687457 $69 $184 forward 7 unknown #
point $-1 49.348429822687457 30.177588191108871 13.840780857913771 #
point $-1 49.348429822687457 30.177588191108871 -13.840780857913771 #
face $-1 $-1 $137 $10 $-1 $185 reversed single #
loop $-1 $-1 $186 $75 #
plane-surface $-1 -67.422832970315909 0 -1.8134521362784515 1 0 0 0 0 -1 forward_v I I I I #
coedge $-1 $187 $129 $81 $134 reversed $76 $-1 #
coedge $-1 $79 $78 $186 $188 reversed $29 $-1 #
coedge $-1 $127 $189 $78 $130 forward $76 $-1 #
edge $-1 $190 -9.0372015738142295 $132 9.0372015738142295 $78 $191 forward 7 unknown #
edge $-1 $86 -9.0372015738142295 $192 9.0372015738142295 $79 $193 forward 7 unknown #
vertex $-1 $80 $194 #
straight-curve $-1 -49.348429822687457 30.177588191108871 0 0 0 -1 I I #
edge $-1 $138 -30.177588191108871 $132 30.177588191108871 $127 $195 forward 7 unknown #
coedge $-1 $196 $82 $85 $141 reversed $137 $-1 #
coedge $-1 $82 $196 $187 $197 reversed $137 $-1 #
loop $-1 $-1 $82 $124 #
vertex $-1 $83 $198 #
straight-curve $-1 -49.348429822687457 -30.177588191108871 0 0 0 1 I I #
coedge $-1 $85 $84 $199 $200 forward $45 $-1 #
edge $-1 $201 -9.0372015738142295 $87 9.0372015738142295 $135 $202 forward 7 unknown #
point $-1 -49.34842982268745 30.177588191108871 2.0989434000921268 #
point $-1 -49.34842982268745 -30.177588191108871 2.0989434000921268 #
face $-1 $-1 $160 $11 $-1 $203 reversed single #
loop $-1 $-1 $204 $89 #
plane-surface $-1 67.422832970315895 0 -1.8134521362784515 -1 0 0 0 0 1 forward_v I I I I #
coedge $-1 $151 $205 $206 $207 forward $90 $-1 #
coedge $-1 $204 $208 $92 $149 reversed $145 $-1 #
edge $-1 $209 -30.177588191108871 $210 30.177588191108871 $148 $211 forward 7 unknown #
coedge $-1 $94 $93 $204 $212 reversed $33 $-1 #
coedge $-1 $156 $147 $93 $152 forward $90 $-1 #
edge $-1 $213 -9.0372015738142224 $154 9.0372015738142224 $93 $214 forward 7 unknown #
edge $-1 $101 -9.0372015738142224 $209 9.0372015738142224 $94 $215 forward 7 unknown #
vertex $-1 $95 $216 #
straight-curve $-1 49.348429822687457 -30.177588191108871 0 0 0 -1 I I #
coedge $-1 $205 $151 $96 $157 reversed $90 $-1 #
edge $-1 $161 -30.177588191108871 $154 30.177588191108871 $156 $217 forward 7 unknown #
coedge $-1 $218 $97 $100 $163 reversed $160 $-1 #
coedge $-1 $97 $218 $205 $219 reversed $160 $-1 #
loop $-1 $-1 $97 $144 #
vertex $-1 $98 $220 #
straight-curve $-1 49.348429822687457 30.177588191108871 0 0 0 1 I I #
edge $-1 $210 -9.0372015738142224 $102 9.0372015738142224 $158 $221 forward 7 unknown #
point $-1 49.34842982268745 -30.177588191108871 2.0989434000921268 #
point $-1 49.34842982268745 30.177588191108871 2.0989434000921268 #
plane-surface $-1 0 30.177588191108871 0 0 -1 0 0 0 -1 forward_v I I I I #
coedge $-1 $172 $222 $107 $169 reversed $105 $-1 #
coedge $-1 $116 $107 $108 $171 reversed $61 $-1 #
edge $-1 $176 -13.840780857913771 $223 13.840780857913771 $167 $224 forward 7 unknown #
coedge $-1 $109 $108 $222 $225 forward $37 $-1 #
edge $-1 $118 -49.348429822687457 $223 49.348429822687457 $168 $226 forward 7 unknown #
coedge $-1 $181 $167 $110 $173 reversed $105 $-1 #
edge $-1 $174 -30.177588191108871 $176 30.177588191108871 $172 $227 forward 7 unknown #
vertex $-1 $111 $228 #
straight-curve $-1 0 30.177588191108871 13.840780857913771 -1 0 0 I I #
vertex $-1 $173 $229 #
straight-curve $-1 0 -30.177588191108871 13.840780857913771 1 0 0 I I #
point $-1 49.348429822687457 -30.177588191108871 13.840780857913771 #
straight-curve $-1 49.348429822687457 -30.177588191108871 0 0 0 -1 I I #
point $-1 49.348429822687457 -30.177588191108871 -13.840780857913771 #
coedge $-1 $222 $172 $120 $182 forward $105 $-1 #
edge $-1 $174 -13.840780857913771 $183 13.840780857913771 $120 $230 forward 7 unknown #
vertex $-1 $121 $231 #
straight-curve $-1 0 30.177588191108871 -13.840780857913771 1 0 0 I I #
plane-surface $-1 0 -30.177588191108871 0 0 1 0 0 0 1 forward_v I I I I #
coedge $-1 $232 $199 $128 $188 forward $125 $-1 #
coedge $-1 $189 $127 $136 $197 forward $76 $-1 #
edge $-1 $192 -3.9123955363705782 $190 3.9123955363705782 $128 $233 forward 7 unknown #
coedge $-1 $129 $187 $232 $234 forward $76 $-1 #
vertex $-1 $130 $235 #
straight-curve $-1 -58.38563139650168 30.177588191108871 -5.7258476726490297 1 0 0 I I #
vertex $-1 $131 $236 #
straight-curve $-1 -58.38563139650168 30.177588191108871 2.0989434000921268 -1 0 0 I I #
point $-1 -49.34842982268745 30.177588191108871 -5.7258476726490297 #
straight-curve $-1 -49.348429822687457 0 -5.7258476726490297 0 1 0 I I #
coedge $-1 $136 $135 $237 $238 forward $137 $-1 #
edge $-1 $138 -9.0372015738142295 $239 9.0372015738142295 $136 $240 forward 7 unknown #
point $-1 -49.34842982268745 -30.177588191108871 -5.7258476726490297 #
coedge $-1 $186 $237 $140 $200 reversed $125 $-1 #
edge $-1 $192 -30.177588191108871 $201 30.177588191108871 $199 $241 forward 7 unknown #
vertex $-1 $200 $242 #
straight-curve $-1 -58.38563139650168 -30.177588191108871 2.0989434000921268 1 0 0 I I #
plane-surface $-1 0 30.177588191108871 0 0 -1 0 0 0 -1 forward_v I I I I #
coedge $-1 $206 $148 $150 $212 forward $145 $-1 #
coedge $-1 $147 $156 $159 $219 forward $90 $-1 #
coedge $-1 $208 $204 $147 $207 reversed $145 $-1 #
edge $-1 $243 -30.177588191108871 $213 30.177588191108871 $206 $244 forward 7 unknown #
coedge $-1 $148 $206 $218 $245 reversed $145 $-1 #
vertex $-1 $149 $246 #
vertex $-1 $149 $247 #
straight-curve $-1 67.422832970315895 0 2.0989434000921268 0 1 0 I I #
edge $-1 $209 -3.9123955363705782 $213 3.9123955363705782 $204 $248 forward 7 unknown #
vertex $-1 $212 $249 #
straight-curve $-1 58.385631396501672 -30.177588191108871 -5.7258476726490297 -1 0 0 I I #
straight-curve $-1 58.385631396501672 -30.177588191108871 2.0989434000921268 1 0 0 I I #
point $-1 49.34842982268745 -30.177588191108871 -5.7258476726490297 #
straight-curve $-1 49.348429822687457 0 -5.7258476726490297 0 -1 0 I I #
coedge $-1 $159 $158 $208 $245 forward $160 $-1 #
edge $-1 $161 -9.0372015738142224 $243 9.0372015738142224 $159 $250 forward 7 unknown #
point $-1 49.34842982268745 30.177588191108871 -5.7258476726490297 #
straight-curve $-1 58.385631396501672 30.177588191108871 2.0989434000921268 -1 0 0 I I #
coedge $-1 $167 $181 $170 $225 reversed $105 $-1 #
vertex $-1 $225 $251 #
straight-curve $-1 -49.348429822687457 -30.177588191108871 0 0 0 -1 I I #
edge $-1 $223 -30.177588191108871 $183 30.177588191108871 $222 $252 forward 7 unknown #
straight-curve $-1 0 -30.177588191108871 -13.840780857913771 -1 0 0 I I #
straight-curve $-1 -49.348429822687457 0 13.840780857913771 0 -1 0 I I #
point $-1 -49.348429822687457 30.177588191108871 13.840780857913771 #
point $-1 -49.348429822687457 -30.177588191108871 13.840780857913771 #
straight-curve $-1 -49.348429822687457 30.177588191108871 0 0 0 -1 I I #
point $-1 -49.348429822687457 30.177588191108871 -13.840780857913771 #
coedge $-1 $237 $186 $189 $234 reversed $125 $-1 #
straight-curve $-1 -67.422832970315909 30.177588191108871 -1.8134521362784515 0 0 -1 I I #
edge $-1 $239 -30.177588191108871 $190 30.177588191108871 $232 $253 forward 7 unknown #
point $-1 -67.422832970315909 30.177588191108871 -5.7258476726490297 #
point $-1 -67.422832970315909 30.177588191108871 2.0989434000921268 #
coedge $-1 $199 $232 $196 $238 reversed $125 $-1 #
edge $-1 $201 -3.9123955363705782 $239 3.9123955363705782 $237 $254 forward 7 unknown #
vertex $-1 $234 $255 #
straight-curve $-1 -58.38563139650168 -30.177588191108871 -5.7258476726490297 -1 0 0 I I #
straight-curve $-1 -67.422832970315909 0 2.0989434000921268 0 -1 0 I I #
point $-1 -67.422832970315909 -30.177588191108871 2.0989434000921268 #
vertex $-1 $207 $256 #
straight-curve $-1 67.422832970315895 0 -5.7258476726490297 0 -1 0 I I #
edge $-1 $210 -3.9123955363705782 $243 3.9123955363705782 $208 $257 forward 7 unknown #
point $-1 67.422832970315895 -30.177588191108871 2.0989434000921268 #
point $-1 67.422832970315895 30.177588191108871 2.0989434000921268 #
straight-curve $-1 67.422832970315895 -30.177588191108871 -1.8134521362784515 0 0 -1 I I #
point $-1 67.422832970315895 -30.177588191108871 -5.7258476726490297 #
straight-curve $-1 58.385631396501672 30.177588191108871 -5.7258476726490297 1 0 0 I I #
point $-1 -49.348429822687457 -30.177588191108871 -13.840780857913771 #
straight-curve $-1 -49.348429822687457 0 -13.840780857913771 0 1 0 I I #
straight-curve $-1 -67.422832970315909 0 -5.7258476726490297 0 1 0 I I #
straight-curve $-1 -67.422832970315909 -30.177588191108871 -1.8134521362784515 0 0 -1 I I #
point $-1 -67.422832970315909 -30.177588191108871 -5.7258476726490297 #
point $-1 67.422832970315895 30.177588191108871 -5.7258476726490297 #
straight-curve $-1 67.422832970315895 30.177588191108871 -1.8134521362784515 0 0 -1 I I #
End-of-ACIS-data 