500 0 7 0           
7 Unknown 11 ACIS 5.0 NT 24 Fri Mar 26 00:33:20 1999 
-1 9.9999999999999995e-007 1e-010 
body $-1 $7 $-1 $8 #
body $-1 $9 $-1 $10 #
body $-1 $11 $-1 $12 #
body $-1 $13 $-1 $14 #
body $-1 $15 $-1 $16 #
body $-1 $17 $-1 $18 #
body $-1 $19 $-1 $20 #
lump $-1 $-1 $21 $0 #
transform $-1 1 0 0 0 1 0 0 0 1 69.5516830957976 46.0174159625127 15.975277315542183 1 rotate no_reflect no_shear #
lump $-1 $-1 $22 $1 #
transform $-1 1 0 0 0 1 0 0 0 1 69.5516830957976 46.0174159625127 15.975277315542183 1 rotate no_reflect no_shear #
lump $-1 $-1 $23 $2 #
transform $-1 1 0 0 0 1 0 0 0 1 69.5516830957976 46.0174159625127 15.975277315542183 1 rotate no_reflect no_shear #
lump $-1 $-1 $24 $3 #
transform $-1 1 0 0 0 1 0 0 0 1 69.5516830957976 46.0174159625127 15.975277315542183 1 rotate no_reflect no_shear #
lump $-1 $-1 $25 $4 #
transform $-1 1 0 0 0 1 0 0 0 1 69.5516830957976 46.0174159625127 15.975277315542183 1 rotate no_reflect no_shear #
lump $-1 $-1 $26 $5 #
transform $-1 1 0 0 0 1 0 0 0 1 69.5516830957976 46.0174159625127 15.975277315542183 1 rotate no_reflect no_shear #
lump $-1 $-1 $27 $6 #
transform $-1 1 0 0 0 1 0 0 0 1 69.5516830957976 46.0174159625127 15.975277315542183 1 rotate no_reflect no_shear #
shell $-1 $-1 $-1 $28 $-1 $7 #
shell $-1 $-1 $-1 $29 $-1 $9 #
shell $-1 $-1 $-1 $30 $-1 $11 #
shell $-1 $-1 $-1 $31 $-1 $13 #
shell $-1 $-1 $-1 $32 $-1 $15 #
shell $-1 $-1 $-1 $33 $-1 $17 #
shell $-1 $-1 $-1 $34 $-1 $19 #
face $-1 $35 $36 $21 $-1 $37 forward single #
face $-1 $38 $39 $22 $-1 $40 forward single #
face $-1 $41 $42 $23 $-1 $43 reversed single #
face $-1 $44 $45 $24 $-1 $46 forward single #
face $-1 $47 $48 $25 $-1 $49 forward single #
face $-1 $50 $51 $26 $-1 $52 reversed single #
face $-1 $53 $54 $27 $-1 $55 forward single #
face $-1 $56 $57 $21 $-1 $58 reversed single #
loop $-1 $-1 $59 $28 #
plane-surface $-1 0 0 15.975277315542183 0 0 1 1 0 0 forward_v I I I I #
face $-1 $60 $61 $22 $-1 $62 forward single #
loop $-1 $-1 $63 $29 #
plane-surface $-1 0 -46.0174159625127 0 0 1 0 0 0 1 forward_v I I I I #
face $-1 $64 $65 $23 $-1 $66 reversed single #
loop $-1 $-1 $67 $30 #
plane-surface $-1 35.391291125370586 -0.50256970937100043 195.28667371951241 0 -1 0 -0.57357644374324357 0 -0.81915203911291934 forward_v I I I I #
face $-1 $68 $69 $24 $-1 $70 forward single #
loop $-1 $71 $72 $31 #
cone-surface $-1 56.899992849479865 -13.510151006185694 5.4033034002208229 -0.57357644374324357 0 -0.81915203911291934 2.0478800977822984 0 -1.4339411093581089 1 I I 0 1 2.5 forward I I I I #
face $-1 $73 $74 $25 $-1 $75 forward single #
loop $-1 $76 $77 $32 #
cone-surface $-1 56.899992849479865 -5.705602228096879 5.4033034002208229 -0.57357644374324357 0 -0.81915203911291934 2.0478800977822984 0 -1.4339411093581089 1 I I 0 1 2.5 forward I I I I #
face $-1 $78 $79 $26 $-1 $80 reversed single #
loop $-1 $-1 $81 $33 #
plane-surface $-1 -184.87360126063828 14.057184538133434 83.570574839381635 0 1 0 -0.82903758062907751 0 0.55919289150049634 forward_v I I I I #
face $-1 $82 $83 $27 $-1 $84 forward single #
loop $-1 $85 $86 $34 #
cone-surface $-1 -65.472854518911319 19.636710942501281 10.447016579290686 0.82903758062907751 0 -0.55919289150049634 0.83878933725074445 0 1.2435563709436162 1 I I 0 1 1.5 forward I I I I #
face $-1 $87 $88 $21 $-1 $89 reversed single #
loop $-1 $-1 $90 $35 #
plane-surface $-1 0 0 -15.975277315542183 0 0 1 1 0 0 forward_v I I I I #
coedge $-1 $91 $92 $93 $94 forward $36 $-1 #
face $-1 $95 $96 $22 $-1 $97 reversed single #
loop $-1 $-1 $98 $38 #
plane-surface $-1 0 0 15.975277315542183 0 0 1 1 0 0 forward_v I I I I #
coedge $-1 $99 $100 $101 $102 forward $39 $-1 #
face $-1 $103 $104 $23 $-1 $105 reversed single #
loop $-1 $-1 $106 $41 #
plane-surface $-1 -44.395122967518731 -9.6078766171412866 81.339867656196077 0.57357644374324357 0 0.81915203911291934 0.81915203911291934 0 -0.57357644374324357 forward_v I I I I #
coedge $-1 $107 $108 $109 $110 reversed $42 $-1 #
face $-1 $-1 $111 $24 $-1 $112 forward single #
loop $-1 $113 $114 $44 #
cone-surface $-1 53.829581273358045 -13.510151006185694 1.0183013121260451 -0.57357644374324357 0 -0.81915203911291934 1.0239400488911492 0 -0.71697055467905446 1 I I -0.70710678118654746 0.70710678118654746 1.25 forward I I I I #
loop $-1 $-1 $115 $31 #
coedge $-1 $72 $72 $116 $117 reversed $45 $-1 #
face $-1 $-1 $118 $25 $-1 $119 forward single #
loop $-1 $120 $121 $47 #
cone-surface $-1 53.829581273358045 -5.705602228096879 1.0183013121260451 -0.57357644374324357 0 -0.81915203911291934 1.0239400488911492 0 -0.71697055467905446 1 I I -0.70710678118654746 0.70710678118654746 1.25 forward I I I I #
loop $-1 $-1 $122 $32 #
coedge $-1 $77 $77 $123 $124 reversed $48 $-1 #
face $-1 $125 $126 $26 $-1 $127 reversed single #
loop $-1 $-1 $128 $50 #
plane-surface $-1 -69.551683095797586 19.636710942501281 5.7849612812511282 -0.82903758062907751 0 0.55919289150049634 0.55919289150049634 0 0.82903758062907751 forward_v I I I I #
coedge $-1 $129 $130 $131 $132 reversed $51 $-1 #
face $-1 $-1 $133 $27 $-1 $134 forward single #
loop $-1 $135 $136 $53 #
cone-surface $-1 -64.208975126737798 19.636710942501281 9.5945191915593426 0.82903758062907751 0 -0.55919289150049634 0.41939466862537222 0 0.62177818547180808 1 I I -0.70710678118654757 0.70710678118654757 0.75 forward I I I I #
loop $-1 $-1 $137 $34 #
coedge $-1 $86 $86 $138 $139 reversed $54 $-1 #
face $-1 $140 $141 $21 $-1 $142 reversed single #
loop $-1 $-1 $143 $56 #
plane-surface $-1 0 -46.0174159625127 0 0 1 0 0 0 1 forward_v I I I I #
coedge $-1 $144 $145 $146 $147 forward $57 $-1 #
coedge $-1 $148 $59 $149 $150 forward $36 $-1 #
coedge $-1 $59 $148 $151 $152 forward $36 $-1 #
coedge $-1 $153 $154 $59 $94 reversed $155 $-1 #
edge $-1 $156 -46.0174159625127 $157 46.0174159625127 $93 $158 forward 7 unknown #
face $-1 $159 $160 $22 $-1 $161 reversed single #
loop $-1 $-1 $162 $60 #
plane-surface $-1 -69.5516830957976 0 0 1 0 0 0 0 -1 forward_v I I I I #
coedge $-1 $163 $164 $100 $165 forward $61 $-1 #
coedge $-1 $166 $63 $167 $168 reversed $39 $-1 #
coedge $-1 $63 $166 $98 $165 reversed $39 $-1 #
coedge $-1 $169 $170 $63 $102 reversed $171 $-1 #
edge $-1 $172 -15.975277315542183 $173 15.975277315542183 $101 $174 forward 7 unknown #
face $-1 $175 $176 $23 $-1 $177 forward single #
loop $-1 $-1 $178 $64 #
plane-surface $-1 35.391291125370586 -18.713183524911571 195.28667371951241 0 1 0 0.57357644374324357 0 0.81915203911291934 forward_v I I I I #
coedge $-1 $179 $180 $181 $182 reversed $65 $-1 #
coedge $-1 $108 $67 $183 $184 reversed $42 $-1 #
coedge $-1 $67 $107 $179 $185 reversed $42 $-1 #
coedge $-1 $181 $186 $67 $110 forward $176 $-1 #
edge $-1 $187 -51.856037533112307 $188 -31.259539083362405 $109 $189 forward 7 unknown #
loop $-1 $-1 $116 $68 #
plane-surface $-1 -44.395122967518731 -9.6078766171412866 81.339867656196077 0.57357644374324357 0 0.81915203911291934 0.81915203911291934 0 -0.57357644374324357 forward_v I I I I #
loop $-1 $-1 $190 $44 #
coedge $-1 $114 $114 $115 $191 reversed $69 $-1 #
coedge $-1 $115 $115 $114 $191 forward $71 $-1 #
coedge $-1 $116 $116 $72 $117 forward $111 $-1 #
edge $-1 $192 0 $192 6.2831853071796004 $116 $193 forward 7 unknown #
loop $-1 $-1 $123 $73 #
plane-surface $-1 -44.395122967518731 -9.6078766171412866 81.339867656196077 0.57357644374324357 0 0.81915203911291934 0.81915203911291934 0 -0.57357644374324357 forward_v I I I I #
loop $-1 $-1 $194 $47 #
coedge $-1 $121 $121 $122 $195 reversed $74 $-1 #
coedge $-1 $122 $122 $121 $195 forward $76 $-1 #
coedge $-1 $123 $123 $77 $124 forward $118 $-1 #
edge $-1 $196 0 $196 6.2831853071796004 $123 $197 forward 7 unknown #
face $-1 $198 $199 $26 $-1 $200 reversed single #
loop $-1 $-1 $201 $78 #
plane-surface $-1 -184.87360126063828 25.216237346869129 83.570574839381635 0 -1 0 0.82903758062907751 0 -0.55919289150049634 forward_v I I I I #
coedge $-1 $202 $203 $204 $205 reversed $79 $-1 #
coedge $-1 $130 $81 $206 $207 reversed $51 $-1 #
coedge $-1 $81 $129 $202 $208 reversed $51 $-1 #
coedge $-1 $204 $209 $81 $132 forward $210 $-1 #
edge $-1 $211 22.885117534521541 $212 29.758572274890682 $131 $213 forward 7 unknown #
loop $-1 $-1 $138 $82 #
plane-surface $-1 -69.551683095797586 19.636710942501281 5.7849612812511282 -0.82903758062907751 0 0.55919289150049634 0.55919289150049634 0 0.82903758062907751 forward_v I I I I #
loop $-1 $-1 $214 $53 #
coedge $-1 $136 $136 $137 $215 reversed $83 $-1 #
coedge $-1 $137 $137 $136 $215 forward $85 $-1 #
coedge $-1 $138 $138 $86 $139 forward $133 $-1 #
edge $-1 $216 0 $216 6.2831853071796004 $138 $217 forward 7 unknown #
face $-1 $218 $219 $21 $-1 $220 reversed single #
loop $-1 $-1 $221 $87 #
plane-surface $-1 -69.5516830957976 0 0 1 0 0 0 0 -1 forward_v I I I I #
coedge $-1 $222 $151 $223 $224 forward $88 $-1 #
coedge $-1 $225 $90 $222 $226 forward $57 $-1 #
coedge $-1 $90 $225 $227 $228 forward $57 $-1 #
coedge $-1 $154 $153 $90 $147 reversed $155 $-1 #
edge $-1 $229 -46.0174159625127 $230 46.0174159625127 $146 $231 forward 7 unknown #
coedge $-1 $92 $91 $232 $233 forward $36 $-1 #
coedge $-1 $234 $235 $91 $150 reversed $219 $-1 #
edge $-1 $157 -69.5516830957976 $236 69.5516830957976 $149 $237 forward 7 unknown #
coedge $-1 $143 $238 $92 $152 reversed $88 $-1 #
edge $-1 $239 -69.5516830957976 $156 69.5516830957976 $151 $240 forward 7 unknown #
coedge $-1 $146 $93 $238 $241 forward $155 $-1 #
coedge $-1 $93 $146 $234 $242 reversed $155 $-1 #
loop $-1 $-1 $153 $218 #
vertex $-1 $94 $243 #
vertex $-1 $94 $244 #
straight-curve $-1 69.5516830957976 0 15.975277315542183 0 1 0 I I #
face $-1 $245 $171 $22 $-1 $246 reversed single #
loop $-1 $-1 $247 $95 #
plane-surface $-1 -65.176533063693839 -66.662981524695724 0 0 1 0 0 0 1 forward_v I I I I #
coedge $-1 $248 $249 $166 $250 forward $96 $-1 #
coedge $-1 $251 $98 $249 $252 forward $61 $-1 #
coedge $-1 $98 $251 $169 $253 forward $61 $-1 #
edge $-1 $172 60.801383031590078 $254 69.5516830957976 $98 $255 forward 7 unknown #
coedge $-1 $100 $99 $162 $250 reversed $39 $-1 #
coedge $-1 $256 $257 $99 $168 forward $258 $-1 #
edge $-1 $259 -69.5516830957976 $173 -60.801383031590078 $167 $260 forward 7 unknown #
coedge $-1 $261 $101 $164 $253 reversed $171 $-1 #
coedge $-1 $101 $261 $256 $262 reversed $171 $-1 #
loop $-1 $-1 $261 $159 #
vertex $-1 $165 $263 #
vertex $-1 $262 $264 #
straight-curve $-1 -60.801383031590078 -46.0174159625127 0 0 0 -1 I I #
face $-1 $-1 $265 $23 $-1 $266 reversed single #
loop $-1 $-1 $109 $103 #
plane-surface $-1 0 0 15.975277315542183 0 0 1 1 0 0 forward_v I I I I #
coedge $-1 $267 $268 $269 $270 reversed $104 $-1 #
coedge $-1 $271 $106 $108 $185 forward $65 $-1 #
coedge $-1 $106 $271 $267 $272 forward $65 $-1 #
coedge $-1 $269 $109 $106 $182 forward $176 $-1 #
edge $-1 $188 -4.3013685991996429 $273 13.909245216340928 $181 $274 forward 7 unknown #
coedge $-1 $275 $276 $107 $184 forward $265 $-1 #
edge $-1 $277 -96.089883296449443 $187 -81.668059544214017 $183 $278 forward 7 unknown #
edge $-1 $188 113.95968410779744 $277 139.1033661915952 $108 $279 forward 7 unknown #
coedge $-1 $109 $269 $275 $280 forward $176 $-1 #
vertex $-1 $184 $281 #
vertex $-1 $110 $282 #
straight-curve $-1 17.695645562685293 -0.50256970937100043 15.975277315542186 -1 0 0 I I #
coedge $-1 $190 $190 $-1 $283 reversed $113 $-1 #
edge $-1 $284 0 $284 6.2831853071796004 $114 $285 forward 7 unknown #
vertex $-1 $117 $286 #
ellipse-curve $-1 59.253433870922649 -13.510151006185694 8.7643654394244841 0.57357644374324357 0 0.81915203911291934 2.0478800977822984 0 -1.4339411093581089 1 I I #
coedge $-1 $194 $194 $-1 $287 reversed $120 $-1 #
edge $-1 $288 0 $288 6.2831853071796004 $121 $289 forward 7 unknown #
vertex $-1 $124 $290 #
ellipse-curve $-1 59.253433870922649 -5.705602228096879 8.7643654394244841 0.57357644374324357 0 0.81915203911291934 2.0478800977822984 0 -1.4339411093581089 1 I I #
face $-1 $-1 $210 $26 $-1 $291 forward single #
loop $-1 $-1 $292 $125 #
plane-surface $-1 -69.5516830957976 0 0 1 0 0 0 0 -1 forward_v I I I I #
coedge $-1 $293 $294 $295 $296 reversed $126 $-1 #
coedge $-1 $297 $128 $130 $208 forward $79 $-1 #
coedge $-1 $128 $297 $293 $298 forward $79 $-1 #
coedge $-1 $295 $131 $128 $205 forward $210 $-1 #
edge $-1 $212 4.2388290668827935 $299 15.397881875618488 $204 $300 forward 7 unknown #
coedge $-1 $301 $302 $129 $207 forward $199 $-1 #
edge $-1 $303 -36.000326138439711 $211 -25.810010104148635 $206 $304 forward 7 unknown #
edge $-1 $212 -12.291741981779158 $303 2.5618607856530852e-014 $130 $305 forward 7 unknown #
coedge $-1 $131 $295 $301 $306 forward $210 $-1 #
loop $-1 $-1 $295 $198 #
vertex $-1 $207 $307 #
vertex $-1 $132 $308 #
straight-curve $-1 -92.436800630319141 14.057184538133434 15.975277315542179 1 0 0 I I #
coedge $-1 $214 $214 $-1 $309 reversed $135 $-1 #
edge $-1 $310 0 $310 6.2831853071796004 $136 $311 forward 7 unknown #
vertex $-1 $139 $312 #
ellipse-curve $-1 -66.114955725613029 19.636710942501281 10.880119298396652 -0.82903758062907751 0 0.55919289150049634 0.83878933725074445 0 1.2435563709436162 1 I I #
face $-1 $-1 $155 $21 $-1 $313 reversed single #
loop $-1 $-1 $234 $140 #
plane-surface $-1 0 46.0174159625127 0 0 -1 0 0 0 -1 forward_v I I I I #
coedge $-1 $314 $232 $235 $315 forward $141 $-1 #
coedge $-1 $238 $143 $144 $226 reversed $88 $-1 #
coedge $-1 $232 $314 $143 $224 reversed $141 $-1 #
edge $-1 $239 -15.975277315542183 $316 15.975277315542183 $223 $317 forward 7 unknown #
coedge $-1 $145 $144 $314 $318 forward $57 $-1 #
edge $-1 $230 -69.5516830957976 $316 69.5516830957976 $222 $319 forward 7 unknown #
coedge $-1 $235 $234 $145 $228 reversed $219 $-1 #
edge $-1 $320 -69.5516830957976 $229 69.5516830957976 $227 $321 forward 7 unknown #
vertex $-1 $147 $322 #
vertex $-1 $241 $323 #
straight-curve $-1 69.5516830957976 0 -15.975277315542183 0 -1 0 I I #
coedge $-1 $221 $223 $148 $233 reversed $141 $-1 #
edge $-1 $236 -46.0174159625127 $239 46.0174159625127 $232 $324 forward 7 unknown #
coedge $-1 $227 $149 $154 $242 forward $219 $-1 #
coedge $-1 $149 $227 $221 $315 reversed $219 $-1 #
vertex $-1 $150 $325 #
straight-curve $-1 0 46.0174159625127 15.975277315542183 -1 0 0 I I #
coedge $-1 $151 $222 $153 $241 reversed $88 $-1 #
vertex $-1 $233 $326 #
straight-curve $-1 0 -46.0174159625127 15.975277315542183 1 0 0 I I #
edge $-1 $156 -15.975277315542183 $230 15.975277315542183 $153 $327 forward 7 unknown #
edge $-1 $157 -15.975277315542183 $229 15.975277315542183 $154 $328 forward 7 unknown #
point $-1 69.5516830957976 -46.0174159625127 15.975277315542183 #
point $-1 69.5516830957976 46.0174159625127 15.975277315542183 #
face $-1 $-1 $258 $22 $-1 $329 reversed single #
plane-surface $-1 -60.801383031590078 -56.340198743604212 0 -1 0 0 0 0 1 forward_v I I I I #
coedge $-1 $330 $331 $332 $333 forward $160 $-1 #
coedge $-1 $332 $162 $257 $334 reversed $96 $-1 #
coedge $-1 $162 $332 $163 $252 reversed $96 $-1 #
edge $-1 $254 -15.975277315542183 $259 15.975277315542183 $162 $335 forward 7 unknown #
coedge $-1 $164 $163 $331 $336 forward $61 $-1 #
edge $-1 $254 46.0174159625127 $337 66.662981524695724 $249 $338 forward 7 unknown #
edge $-1 $339 -10.322782781091512 $172 10.322782781091512 $169 $340 forward 7 unknown #
vertex $-1 $252 $341 #
straight-curve $-1 0 -46.0174159625127 15.975277315542183 -1 0 0 I I #
coedge $-1 $342 $167 $170 $262 forward $258 $-1 #
coedge $-1 $167 $342 $248 $334 forward $258 $-1 #
loop $-1 $-1 $167 $245 #
vertex $-1 $250 $343 #
straight-curve $-1 0 -46.0174159625127 -15.975277315542183 1 0 0 I I #
coedge $-1 $170 $169 $344 $345 forward $171 $-1 #
edge $-1 $173 -10.322782781091512 $346 10.322782781091512 $170 $347 forward 7 unknown #
point $-1 -60.801383031590078 -46.0174159625127 15.975277315542183 #
point $-1 -60.801383031590078 -46.0174159625127 -15.975277315542183 #
loop $-1 $-1 $183 $175 #
plane-surface $-1 69.5516830957976 0 0 -1 0 0 0 0 1 forward_v I I I I #
coedge $-1 $268 $178 $180 $272 reversed $104 $-1 #
coedge $-1 $178 $267 $348 $349 reversed $104 $-1 #
coedge $-1 $186 $181 $178 $270 forward $176 $-1 #
edge $-1 $273 31.259539083362405 $350 51.856037533112307 $269 $351 forward 7 unknown #
coedge $-1 $180 $179 $276 $352 reversed $65 $-1 #
edge $-1 $353 -139.1033661915952 $273 -113.95968410779744 $267 $354 forward 7 unknown #
vertex $-1 $182 $355 #
straight-curve $-1 48.955184646047698 -4.8039383085706433 15.975277315542193 0 -1 0 I I #
coedge $-1 $348 $183 $186 $280 reversed $265 $-1 #
coedge $-1 $183 $348 $271 $352 forward $265 $-1 #
vertex $-1 $184 $356 #
straight-curve $-1 69.5516830957976 -0.50256970937100043 97.643336859756204 0 0 1 I I #
straight-curve $-1 -44.395122967518731 -0.50256970937100043 81.339867656196077 0.81915203911291934 0 -0.57357644374324357 I I #
edge $-1 $350 -18.713183524911571 $187 -0.50256970937100043 $275 $357 forward 7 unknown #
point $-1 69.5516830957976 -0.50256970937100043 15.975277315542183 #
point $-1 48.955184646047698 -0.50256970937100043 15.975277315542186 #
edge $-1 $358 1 $358 0 $190 $-1 forward 7 unknown #
vertex $-1 $191 $359 #
ellipse-curve $-1 54.546551828037096 -13.510151006185694 2.0422413610171946 0.57357644374324357 0 0.81915203911291934 2.0478800977822984 0 -1.4339411093581089 1 I I #
point $-1 61.301313968704925 -13.510151006185694 7.3304243300663421 #
edge $-1 $360 1 $360 0 $194 $-1 forward 7 unknown #
vertex $-1 $195 $361 #
ellipse-curve $-1 54.546551828037096 -5.705602228096879 2.0422413610171946 0.57357644374324357 0 0.81915203911291934 2.0478800977822984 0 -1.4339411093581089 1 I I #
point $-1 61.301313968704925 -5.705602228096879 7.3304243300663421 #
plane-surface $-1 0 0 15.975277315542183 0 0 1 1 0 0 forward_v I I I I #
coedge $-1 $302 $301 $294 $362 forward $199 $-1 #
coedge $-1 $294 $201 $203 $298 reversed $126 $-1 #
coedge $-1 $201 $293 $292 $362 reversed $126 $-1 #
coedge $-1 $209 $204 $201 $296 forward $210 $-1 #
edge $-1 $299 -29.758572274890682 $363 -22.885117534521541 $295 $364 forward 7 unknown #
coedge $-1 $203 $202 $302 $365 reversed $79 $-1 #
edge $-1 $366 -2.5618607856530852e-014 $299 12.291741981779158 $293 $367 forward 7 unknown #
vertex $-1 $205 $368 #
straight-curve $-1 -62.678228355428459 9.8183554712506407 15.975277315542183 0 1 0 I I #
coedge $-1 $292 $206 $209 $306 reversed $199 $-1 #
coedge $-1 $206 $292 $297 $365 forward $199 $-1 #
vertex $-1 $207 $369 #
straight-curve $-1 -69.5516830957976 14.057184538133434 41.785287419690818 0 0 1 I I #
straight-curve $-1 -69.551683095797586 14.057184538133434 5.7849612812511282 -0.55919289150049634 0 -0.82903758062907751 I I #
edge $-1 $363 -25.216237346869129 $211 -14.057184538133434 $301 $370 forward 7 unknown #
point $-1 -69.5516830957976 14.057184538133434 15.975277315542183 #
point $-1 -62.678228355428459 14.057184538133434 15.975277315542183 #
edge $-1 $371 1 $371 0 $214 $-1 forward 7 unknown #
vertex $-1 $215 $372 #
ellipse-curve $-1 -64.830753312209609 19.636710942501281 10.013913860184715 -0.82903758062907751 0 0.55919289150049634 0.83878933725074445 0 1.2435563709436162 1 I I #
point $-1 -65.276166388362284 19.636710942501281 12.123675669340273 #
plane-surface $-1 69.5516830957976 0 0 -1 0 0 0 0 1 forward_v I I I I #
coedge $-1 $223 $221 $225 $318 reversed $141 $-1 #
edge $-1 $236 -15.975277315542183 $320 15.975277315542183 $235 $373 forward 7 unknown #
vertex $-1 $318 $374 #
straight-curve $-1 -69.5516830957976 -46.0174159625127 0 0 0 -1 I I #
edge $-1 $316 -46.0174159625127 $320 46.0174159625127 $314 $375 forward 7 unknown #
straight-curve $-1 0 -46.0174159625127 -15.975277315542183 -1 0 0 I I #
vertex $-1 $228 $376 #
straight-curve $-1 0 46.0174159625127 -15.975277315542183 1 0 0 I I #
point $-1 69.5516830957976 46.0174159625127 -15.975277315542183 #
point $-1 69.5516830957976 -46.0174159625127 -15.975277315542183 #
straight-curve $-1 -69.5516830957976 0 15.975277315542183 0 -1 0 I I #
point $-1 -69.5516830957976 46.0174159625127 15.975277315542183 #
point $-1 -69.5516830957976 -46.0174159625127 15.975277315542183 #
straight-curve $-1 69.5516830957976 -46.0174159625127 0 0 0 -1 I I #
straight-curve $-1 69.5516830957976 46.0174159625127 0 0 0 -1 I I #
plane-surface $-1 0 0 -15.975277315542183 0 0 1 1 0 0 forward_v I I I I #
coedge $-1 $344 $247 $342 $377 reversed $160 $-1 #
coedge $-1 $247 $344 $251 $336 reversed $160 $-1 #
coedge $-1 $249 $248 $247 $333 reversed $96 $-1 #
edge $-1 $337 -15.975277315542183 $378 15.975277315542183 $332 $379 forward 7 unknown #
edge $-1 $378 -66.662981524695724 $259 -46.0174159625127 $248 $380 forward 7 unknown #
straight-curve $-1 -69.5516830957976 -46.0174159625127 0 0 0 -1 I I #
edge $-1 $337 -4.3751500321037611 $339 4.3751500321037611 $331 $381 forward 7 unknown #
vertex $-1 $252 $382 #
straight-curve $-1 -69.5516830957976 0 15.975277315542183 0 -1 0 I I #
vertex $-1 $253 $383 #
straight-curve $-1 -60.801383031590078 -56.340198743604212 15.975277315542183 0 1 0 I I #
point $-1 -69.5516830957976 -46.0174159625127 15.975277315542183 #
coedge $-1 $257 $256 $330 $377 forward $258 $-1 #
point $-1 -69.5516830957976 -46.0174159625127 -15.975277315542183 #
coedge $-1 $331 $330 $261 $345 reversed $160 $-1 #
edge $-1 $339 -15.975277315542183 $346 15.975277315542183 $261 $384 forward 7 unknown #
vertex $-1 $345 $385 #
straight-curve $-1 -60.801383031590078 -56.340198743604212 -15.975277315542183 0 -1 0 I I #
coedge $-1 $276 $275 $268 $349 forward $265 $-1 #
edge $-1 $350 81.668059544214017 $353 96.089883296449443 $348 $386 forward 7 unknown #
vertex $-1 $280 $387 #
straight-curve $-1 17.695645562685293 -18.713183524911571 15.975277315542186 1 0 0 I I #
edge $-1 $353 -13.909245216340928 $277 4.3013685991996429 $276 $388 forward 7 unknown #
vertex $-1 $352 $389 #
straight-curve $-1 -44.395122967518731 -18.713183524911571 81.339867656196077 -0.81915203911291934 0 0.57357644374324357 I I #
point $-1 48.955184646047698 -18.713183524911571 15.975277315542186 #
point $-1 69.5516830957976 -0.50256970937100043 1.5534535633067605 #
straight-curve $-1 69.5516830957976 0 15.975277315542183 0 1 0 I I #
vertex $-1 $283 $390 #
point $-1 56.5944319258194 -13.510151006185694 0.60830025165908541 #
vertex $-1 $287 $391 #
point $-1 56.5944319258194 -5.705602228096879 0.60830025165908541 #
edge $-1 $363 25.810010104148635 $366 36.000326138439711 $292 $392 forward 7 unknown #
vertex $-1 $306 $393 #
straight-curve $-1 -92.436800630319141 25.216237346869129 15.975277315542179 -1 0 0 I I #
edge $-1 $366 -15.397881875618488 $303 -4.2388290668827935 $302 $394 forward 7 unknown #
vertex $-1 $365 $395 #
straight-curve $-1 -69.551683095797586 25.216237346869129 5.7849612812511282 0.55919289150049634 0 0.82903758062907751 I I #
point $-1 -62.678228355428459 25.216237346869129 15.975277315542183 #
point $-1 -69.5516830957976 14.057184538133434 5.7849612812511069 #
straight-curve $-1 -69.5516830957976 0 15.975277315542183 0 -1 0 I I #
vertex $-1 $309 $396 #
point $-1 -63.991963974958864 19.636710942501281 11.25747023112833 #
straight-curve $-1 -69.5516830957976 46.0174159625127 0 0 0 -1 I I #
point $-1 -69.5516830957976 -46.0174159625127 -15.975277315542183 #
straight-curve $-1 -69.5516830957976 0 -15.975277315542183 0 1 0 I I #
point $-1 -69.5516830957976 46.0174159625127 -15.975277315542183 #
edge $-1 $346 -4.3751500321037611 $378 4.3751500321037611 $330 $397 forward 7 unknown #
vertex $-1 $334 $398 #
straight-curve $-1 -69.5516830957976 -66.662981524695724 0 0 0 -1 I I #
straight-curve $-1 -69.5516830957976 0 -15.975277315542183 0 1 0 I I #
straight-curve $-1 -65.176533063693839 -66.662981524695724 15.975277315542183 1 0 0 I I #
point $-1 -69.5516830957976 -66.662981524695724 15.975277315542183 #
point $-1 -60.801383031590078 -66.662981524695724 15.975277315542183 #
straight-curve $-1 -60.801383031590078 -66.662981524695724 0 0 0 -1 I I #
point $-1 -60.801383031590078 -66.662981524695724 -15.975277315542183 #
straight-curve $-1 69.5516830957976 -18.713183524911571 97.643336859756204 0 0 -1 I I #
point $-1 69.5516830957976 -18.713183524911571 15.975277315542183 #
straight-curve $-1 69.551683095797614 -4.8039383085706433 1.5534535633067534 0 1 0 I I #
point $-1 69.5516830957976 -18.713183524911571 1.5534535633067605 #
point $-1 53.112610718678994 -13.510151006185694 -0.0056387367651040687 #
point $-1 53.112610718678994 -5.705602228096879 -0.0056387367651040687 #
straight-curve $-1 -69.5516830957976 25.216237346869129 41.785287419690818 0 0 -1 I I #
point $-1 -69.5516830957976 25.216237346869129 15.975277315542183 #
straight-curve $-1 -69.5516830957976 9.8183554712506407 5.7849612812510962 0 -1 0 I I #
point $-1 -69.5516830957976 25.216237346869129 5.7849612812511069 #
point $-1 -63.587196941265987 19.636710942501281 9.1751245229339702 #
straight-curve $-1 -65.176533063693839 -66.662981524695724 -15.975277315542183 -1 0 0 I I #
point $-1 -69.5516830957976 -66.662981524695724 -15.975277315542183 #
End-of-ACIS-data 