500 0 16 0           
7 Unknown 11 ACIS 5.0 NT 24 Fri Mar 26 15:34:03 1999 
-1 9.9999999999999995e-007 1e-010 
body $-1 $16 $-1 $17 #
body $-1 $18 $-1 $19 #
body $-1 $20 $-1 $21 #
body $-1 $22 $-1 $23 #
body $-1 $24 $-1 $25 #
body $-1 $26 $-1 $27 #
body $-1 $28 $-1 $29 #
body $-1 $30 $-1 $31 #
body $-1 $32 $-1 $33 #
body $-1 $34 $-1 $35 #
body $-1 $36 $-1 $37 #
body $-1 $38 $-1 $39 #
body $-1 $40 $-1 $41 #
body $-1 $42 $-1 $43 #
body $-1 $44 $-1 $45 #
body $-1 $46 $-1 $47 #
lump $-1 $-1 $48 $0 #
transform $-1 1 0 0 0 1 0 0 0 1 72.778099917600031 44.312749762139902 19.414196387686637 1 rotate no_reflect no_shear #
lump $-1 $-1 $49 $1 #
transform $-1 1 0 0 0 1 0 0 0 1 72.778099917600031 44.312749762139902 19.414196387686637 1 rotate no_reflect no_shear #
lump $-1 $-1 $50 $2 #
transform $-1 1 0 0 0 1 0 0 0 1 72.778099917600031 44.312749762139902 19.414196387686637 1 rotate no_reflect no_shear #
lump $-1 $-1 $51 $3 #
transform $-1 1 0 0 0 1 0 0 0 1 72.778099917600031 44.312749762139902 19.414196387686637 1 rotate no_reflect no_shear #
lump $-1 $-1 $52 $4 #
transform $-1 1 0 0 0 1 0 0 0 1 72.778099917600031 44.312749762139902 19.414196387686637 1 rotate no_reflect no_shear #
lump $-1 $-1 $53 $5 #
transform $-1 1 0 0 0 1 0 0 0 1 72.778099917600031 44.312749762139902 19.414196387686637 1 rotate no_reflect no_shear #
lump $-1 $-1 $54 $6 #
transform $-1 1 0 0 0 1 0 0 0 1 72.778099917600031 44.312749762139902 19.414196387686637 1 rotate no_reflect no_shear #
lump $-1 $-1 $55 $7 #
transform $-1 1 0 0 0 1 0 0 0 1 72.778099917600031 44.312749762139902 19.414196387686637 1 rotate no_reflect no_shear #
lump $-1 $-1 $56 $8 #
transform $-1 1 0 0 0 1 0 0 0 1 72.778099917600031 44.312749762139902 19.414196387686637 1 rotate no_reflect no_shear #
lump $-1 $-1 $57 $9 #
transform $-1 1 0 0 0 1 0 0 0 1 72.778099917600031 44.312749762139902 19.414196387686637 1 rotate no_reflect no_shear #
lump $-1 $-1 $58 $10 #
transform $-1 1 0 0 0 1 0 0 0 1 72.778099917600031 44.312749762139902 19.414196387686637 1 rotate no_reflect no_shear #
lump $-1 $-1 $59 $11 #
transform $-1 1 0 0 0 1 0 0 0 1 72.778099917600031 44.312749762139902 19.414196387686637 1 rotate no_reflect no_shear #
lump $-1 $-1 $60 $12 #
transform $-1 1 0 0 0 1 0 0 0 1 72.778099917600031 44.312749762139902 19.414196387686637 1 rotate no_reflect no_shear #
lump $-1 $-1 $61 $13 #
transform $-1 1 0 0 0 1 0 0 0 1 72.778099917600031 44.312749762139902 19.414196387686637 1 rotate no_reflect no_shear #
lump $-1 $-1 $62 $14 #
transform $-1 1 0 0 0 1 0 0 0 1 72.778099917600031 44.312749762139902 19.414196387686637 1 rotate no_reflect no_shear #
lump $-1 $-1 $63 $15 #
transform $-1 1 0 0 0 1 0 0 0 1 72.778099917600031 44.312749762139902 19.414196387686637 1 rotate no_reflect no_shear #
shell $-1 $-1 $-1 $64 $-1 $16 #
shell $-1 $-1 $-1 $65 $-1 $18 #
shell $-1 $-1 $-1 $66 $-1 $20 #
shell $-1 $-1 $-1 $67 $-1 $22 #
shell $-1 $-1 $-1 $68 $-1 $24 #
shell $-1 $-1 $-1 $69 $-1 $26 #
shell $-1 $-1 $-1 $70 $-1 $28 #
shell $-1 $-1 $-1 $71 $-1 $30 #
shell $-1 $-1 $-1 $72 $-1 $32 #
shell $-1 $-1 $-1 $73 $-1 $34 #
shell $-1 $-1 $-1 $74 $-1 $36 #
shell $-1 $-1 $-1 $75 $-1 $38 #
shell $-1 $-1 $-1 $76 $-1 $40 #
shell $-1 $-1 $-1 $77 $-1 $42 #
shell $-1 $-1 $-1 $78 $-1 $44 #
shell $-1 $-1 $-1 $79 $-1 $46 #
face $-1 $80 $81 $48 $-1 $82 forward single #
face $-1 $83 $84 $49 $-1 $85 reversed single #
face $-1 $86 $87 $50 $-1 $88 reversed single #
face $-1 $89 $90 $51 $-1 $91 forward single #
face $-1 $92 $93 $52 $-1 $94 forward single #
face $-1 $95 $96 $53 $-1 $97 reversed single #
face $-1 $98 $99 $54 $-1 $100 forward single #
face $-1 $101 $102 $55 $-1 $103 forward single #
face $-1 $104 $105 $56 $-1 $106 reversed single #
face $-1 $107 $108 $57 $-1 $109 forward single #
face $-1 $110 $111 $58 $-1 $112 forward single #
face $-1 $113 $114 $59 $-1 $115 forward single #
face $-1 $116 $117 $60 $-1 $118 reversed single #
face $-1 $119 $120 $61 $-1 $121 forward single #
face $-1 $122 $123 $62 $-1 $124 forward single #
face $-1 $125 $126 $63 $-1 $127 forward single #
face $-1 $128 $129 $48 $-1 $130 reversed single #
loop $-1 $-1 $131 $64 #
plane-surface $-1 0 0 19.414196387686637 0 0 1 1 0 0 forward_v I I I I #
face $-1 $132 $133 $49 $-1 $134 reversed single #
loop $-1 $-1 $135 $65 #
plane-surface $-1 -55.735097995061615 -33.711716905866396 0 1 0 0 0 0 -1 forward_v I I I I #
face $-1 $136 $137 $50 $-1 $138 reversed single #
loop $-1 $-1 $139 $66 #
plane-surface $-1 -197.54411597121106 -2.664615711265494 85.357414327879468 0 1 0 -0.85716730853699208 0 0.51503806187062418 forward_v I I I I #
face $-1 $140 $141 $51 $-1 $142 forward single #
loop $-1 $143 $144 $67 #
cone-surface $-1 -69.314937342452012 1.1255695937456451 14.450376457424452 0.85716730853699208 0 -0.51503806187062418 0.51503806187062418 0 0.85716730853699208 1 I I 0 1 1 forward I I I I #
face $-1 $145 $146 $52 $-1 $147 forward single #
loop $-1 $148 $149 $68 #
cone-surface $-1 -69.314937342452012 6.8108475512623627 14.450376457424452 0.85716730853699208 0 -0.51503806187062418 0.51503806187062418 0 0.85716730853699208 1 I I 0 1 1 forward I I I I #
face $-1 $150 $151 $53 $-1 $152 reversed single #
loop $-1 $-1 $153 $69 #
plane-surface $-1 -197.54411597121106 31.047101194600902 85.357414327879468 0 1 0 -0.85716730853699208 0 0.51503806187062418 forward_v I I I I #
face $-1 $154 $155 $54 $-1 $156 forward single #
loop $-1 $157 $158 $70 #
cone-surface $-1 -69.314937342452012 34.837286499612048 14.450376457424452 0.85716730853699208 0 -0.51503806187062418 0.51503806187062418 0 0.85716730853699208 1 I I 0 1 1 forward I I I I #
face $-1 $159 $160 $55 $-1 $161 forward single #
loop $-1 $162 $163 $71 #
cone-surface $-1 -69.314937342452012 40.522564457128766 14.450376457424452 0.85716730853699208 0 -0.51503806187062418 0.51503806187062418 0 0.85716730853699208 1 I I 0 1 1 forward I I I I #
face $-1 $164 $165 $56 $-1 $166 reversed single #
loop $-1 $-1 $167 $72 #
plane-surface $-1 65.594126239859946 10.601032856273509 213.94954134184414 0 -1 0 -0.68199836817093118 0 -0.7313536940579346 forward_v I I I I #
face $-1 $168 $169 $57 $-1 $170 forward single #
loop $-1 $171 $172 $73 #
cone-surface $-1 66.188807122115918 3.6537874230670155 13.186913821238619 -0.68199836817093118 0 -0.7313536940579346 0.3656768470289673 0 -0.34099918408546559 1 I I 0 1 0.5 forward I I I I #
face $-1 $173 $174 $58 $-1 $175 forward single #
loop $-1 $176 $177 $74 #
cone-surface $-1 66.188807122115918 6.2590044605194493 13.186913821238619 -0.68199836817093118 0 -0.7313536940579346 0.3656768470289673 0 -0.34099918408546559 1 I I 0 1 0.5 forward I I I I #
face $-1 $178 $179 $59 $-1 $180 forward single #
loop $-1 $181 $182 $75 #
cone-surface $-1 66.188807122115918 8.864221497971883 13.186913821238619 -0.68199836817093118 0 -0.7313536940579346 0.3656768470289673 0 -0.34099918408546559 1 I I 0 1 0.5 forward I I I I #
face $-1 $183 $184 $60 $-1 $185 reversed single #
loop $-1 $-1 $186 $76 #
plane-surface $-1 65.594126239859946 35.628692970631789 213.94954134184414 0 1 0 0.68199836817093118 0 0.7313536940579346 forward_v I I I I #
face $-1 $187 $188 $61 $-1 $189 forward single #
loop $-1 $190 $191 $77 #
cone-surface $-1 66.188807122115918 37.365504328933412 13.186913821238619 -0.68199836817093118 0 -0.7313536940579346 0.3656768470289673 0 -0.34099918408546559 1 I I 0 1 0.5 forward I I I I #
face $-1 $192 $193 $62 $-1 $194 forward single #
loop $-1 $195 $196 $78 #
cone-surface $-1 66.188807122115918 39.970721366385845 13.186913821238619 -0.68199836817093118 0 -0.7313536940579346 0.3656768470289673 0 -0.34099918408546559 1 I I 0 1 0.5 forward I I I I #
face $-1 $197 $198 $63 $-1 $199 forward single #
loop $-1 $200 $201 $79 #
cone-surface $-1 66.188807122115918 42.575938403838279 13.186913821238619 -0.68199836817093118 0 -0.7313536940579346 0.3656768470289673 0 -0.34099918408546559 1 I I 0 1 0.5 forward I I I I #
face $-1 $202 $203 $48 $-1 $204 reversed single #
loop $-1 $-1 $205 $80 #
plane-surface $-1 0 0 -19.414196387686637 0 0 1 1 0 0 forward_v I I I I #
coedge $-1 $206 $207 $208 $209 forward $81 $-1 #
face $-1 $210 $211 $49 $-1 $212 reversed single #
loop $-1 $-1 $213 $83 #
plane-surface $-1 -51.613306558243487 -23.110684049592891 0 0 -1 0 0 0 -1 forward_v I I I I #
coedge $-1 $214 $215 $216 $217 forward $84 $-1 #
face $-1 $218 $219 $50 $-1 $220 reversed single #
loop $-1 $-1 $221 $86 #
plane-surface $-1 -72.778099917600045 3.968208572504011 10.390431271504767 -0.85716730853699208 0 0.51503806187062418 0.51503806187062418 0 0.85716730853699208 forward_v I I I I #
coedge $-1 $222 $223 $224 $225 reversed $87 $-1 #
face $-1 $-1 $226 $51 $-1 $227 forward single #
loop $-1 $228 $229 $89 #
cone-surface $-1 -68.134203566454033 1.1255695937456451 13.740920054317897 0.85716730853699208 0 -0.51503806187062418 0.25751903093531209 0 0.42858365426849604 1 I I -0.70710678118654746 0.70710678118654746 0.5 forward I I I I #
loop $-1 $-1 $230 $67 #
coedge $-1 $144 $144 $231 $232 reversed $90 $-1 #
face $-1 $-1 $233 $52 $-1 $234 forward single #
loop $-1 $235 $236 $92 #
cone-surface $-1 -68.134203566454033 6.8108475512623627 13.740920054317897 0.85716730853699208 0 -0.51503806187062418 0.25751903093531209 0 0.42858365426849604 1 I I -0.70710678118654746 0.70710678118654746 0.5 forward I I I I #
loop $-1 $-1 $237 $68 #
coedge $-1 $149 $149 $238 $239 reversed $93 $-1 #
face $-1 $240 $241 $53 $-1 $242 forward single #
loop $-1 $-1 $243 $95 #
plane-surface $-1 -72.778099917600045 37.679925478370407 10.390431271504767 -0.85716730853699208 0 0.51503806187062418 0.51503806187062418 0 0.85716730853699208 forward_v I I I I #
coedge $-1 $244 $245 $246 $247 reversed $96 $-1 #
face $-1 $-1 $248 $54 $-1 $249 forward single #
loop $-1 $250 $251 $98 #
cone-surface $-1 -68.134203566454033 34.837286499612048 13.740920054317897 0.85716730853699208 0 -0.51503806187062418 0.25751903093531209 0 0.42858365426849604 1 I I -0.70710678118654746 0.70710678118654746 0.5 forward I I I I #
loop $-1 $-1 $252 $70 #
coedge $-1 $158 $158 $253 $254 reversed $99 $-1 #
face $-1 $-1 $255 $55 $-1 $256 forward single #
loop $-1 $257 $258 $101 #
cone-surface $-1 -68.134203566454033 40.522564457128766 13.740920054317897 0.85716730853699208 0 -0.51503806187062418 0.25751903093531209 0 0.42858365426849604 1 I I -0.70710678118654746 0.70710678118654746 0.5 forward I I I I #
loop $-1 $-1 $259 $71 #
coedge $-1 $163 $163 $260 $261 reversed $102 $-1 #
face $-1 $262 $263 $56 $-1 $264 reversed single #
loop $-1 $-1 $265 $104 #
plane-surface $-1 -33.674964524908461 6.2590044605194493 107.49647689933565 0.68199836817093118 0 0.7313536940579346 0.7313536940579346 0 -0.68199836817093118 forward_v I I I I #
coedge $-1 $266 $267 $268 $269 reversed $105 $-1 #
face $-1 $-1 $270 $57 $-1 $271 forward single #
loop $-1 $272 $273 $107 #
cone-surface $-1 65.427207241476054 3.6537874230670155 12.370197957835778 -0.68199836817093118 0 -0.7313536940579346 0.18283842351448365 0 -0.17049959204273279 1 I I -0.70710678118654746 0.70710678118654746 0.25 forward I I I I #
loop $-1 $-1 $274 $73 #
coedge $-1 $172 $172 $275 $276 reversed $108 $-1 #
face $-1 $-1 $277 $58 $-1 $278 forward single #
loop $-1 $279 $280 $110 #
cone-surface $-1 65.427207241476054 6.2590044605194493 12.370197957835778 -0.68199836817093118 0 -0.7313536940579346 0.18283842351448365 0 -0.17049959204273279 1 I I -0.70710678118654746 0.70710678118654746 0.25 forward I I I I #
loop $-1 $-1 $281 $74 #
coedge $-1 $177 $177 $282 $283 reversed $111 $-1 #
face $-1 $-1 $284 $59 $-1 $285 forward single #
loop $-1 $286 $287 $113 #
cone-surface $-1 65.427207241476054 8.864221497971883 12.370197957835778 -0.68199836817093118 0 -0.7313536940579346 0.18283842351448365 0 -0.17049959204273279 1 I I -0.70710678118654746 0.70710678118654746 0.25 forward I I I I #
loop $-1 $-1 $288 $75 #
coedge $-1 $182 $182 $289 $290 reversed $114 $-1 #
face $-1 $291 $292 $60 $-1 $293 reversed single #
loop $-1 $-1 $294 $116 #
plane-surface $-1 -33.674964524908461 39.970721366385845 107.49647689933565 0.68199836817093118 0 0.7313536940579346 0.7313536940579346 0 -0.68199836817093118 forward_v I I I I #
coedge $-1 $295 $296 $297 $298 reversed $117 $-1 #
face $-1 $-1 $299 $61 $-1 $300 forward single #
loop $-1 $301 $302 $119 #
cone-surface $-1 65.427207241476054 37.365504328933412 12.370197957835778 -0.68199836817093118 0 -0.7313536940579346 0.18283842351448365 0 -0.17049959204273279 1 I I -0.70710678118654746 0.70710678118654746 0.25 forward I I I I #
loop $-1 $-1 $303 $77 #
coedge $-1 $191 $191 $304 $305 reversed $120 $-1 #
face $-1 $-1 $306 $62 $-1 $307 forward single #
loop $-1 $308 $309 $122 #
cone-surface $-1 65.427207241476054 39.970721366385845 12.370197957835778 -0.68199836817093118 0 -0.7313536940579346 0.18283842351448365 0 -0.17049959204273279 1 I I -0.70710678118654746 0.70710678118654746 0.25 forward I I I I #
loop $-1 $-1 $310 $78 #
coedge $-1 $196 $196 $311 $312 reversed $123 $-1 #
face $-1 $-1 $313 $63 $-1 $314 forward single #
loop $-1 $315 $316 $125 #
cone-surface $-1 65.427207241476054 42.575938403838279 12.370197957835778 -0.68199836817093118 0 -0.7313536940579346 0.18283842351448365 0 -0.17049959204273279 1 I I -0.70710678118654746 0.70710678118654746 0.25 forward I I I I #
loop $-1 $-1 $317 $79 #
coedge $-1 $201 $201 $318 $319 reversed $126 $-1 #
face $-1 $320 $321 $48 $-1 $322 reversed single #
loop $-1 $-1 $323 $128 #
plane-surface $-1 0 -44.312749762139902 0 0 1 0 0 0 1 forward_v I I I I #
coedge $-1 $324 $325 $326 $327 forward $129 $-1 #
coedge $-1 $328 $131 $329 $330 forward $81 $-1 #
coedge $-1 $131 $328 $331 $332 forward $81 $-1 #
coedge $-1 $333 $334 $131 $209 reversed $335 $-1 #
edge $-1 $336 -44.312749762139902 $337 44.312749762139902 $208 $338 forward 7 unknown #
face $-1 $339 $340 $49 $-1 $341 forward single #
loop $-1 $-1 $342 $132 #
plane-surface $-1 -47.491515121425358 -33.711716905866396 0 -1 0 0 0 0 1 forward_v I I I I #
coedge $-1 $343 $344 $345 $346 forward $133 $-1 #
coedge $-1 $347 $135 $348 $349 reversed $84 $-1 #
coedge $-1 $135 $347 $350 $351 reversed $84 $-1 #
coedge $-1 $344 $343 $135 $217 reversed $133 $-1 #
edge $-1 $352 -19.414196387686637 $353 19.414196387686637 $216 $354 forward 7 unknown #
face $-1 $355 $356 $50 $-1 $357 reversed single #
loop $-1 $-1 $358 $136 #
plane-surface $-1 -197.54411597121106 10.601032856273516 85.357414327879468 0 -1 0 0.85716730853699208 0 -0.51503806187062418 forward_v I I I I #
coedge $-1 $359 $360 $361 $362 reversed $137 $-1 #
coedge $-1 $223 $139 $363 $364 reversed $87 $-1 #
coedge $-1 $139 $222 $359 $365 reversed $87 $-1 #
coedge $-1 $361 $366 $139 $225 forward $367 $-1 #
edge $-1 $368 25.993958068005497 $369 31.415982974842549 $224 $370 forward 7 unknown #
loop $-1 $-1 $231 $140 #
plane-surface $-1 -72.778099917600045 3.968208572504011 10.390431271504767 -0.85716730853699208 0 0.51503806187062418 0.51503806187062418 0 0.85716730853699208 forward_v I I I I #
loop $-1 $-1 $371 $89 #
coedge $-1 $229 $229 $230 $372 reversed $141 $-1 #
coedge $-1 $230 $230 $229 $372 forward $143 $-1 #
coedge $-1 $231 $231 $144 $232 forward $226 $-1 #
edge $-1 $373 0 $373 6.2831853071796004 $231 $374 forward 7 unknown #
loop $-1 $-1 $238 $145 #
plane-surface $-1 -72.778099917600045 3.968208572504011 10.390431271504767 -0.85716730853699208 0 0.51503806187062418 0.51503806187062418 0 0.85716730853699208 forward_v I I I I #
loop $-1 $-1 $375 $92 #
coedge $-1 $236 $236 $237 $376 reversed $146 $-1 #
coedge $-1 $237 $237 $236 $376 forward $148 $-1 #
coedge $-1 $238 $238 $149 $239 forward $233 $-1 #
edge $-1 $377 0 $377 6.2831853071796004 $238 $378 forward 7 unknown #
face $-1 $379 $380 $53 $-1 $381 reversed single #
loop $-1 $-1 $246 $150 #
plane-surface $-1 0 0 19.414196387686637 0 0 1 1 0 0 forward_v I I I I #
coedge $-1 $382 $383 $384 $385 reversed $151 $-1 #
coedge $-1 $245 $153 $386 $387 reversed $96 $-1 #
coedge $-1 $153 $244 $382 $388 reversed $96 $-1 #
coedge $-1 $384 $389 $153 $247 forward $241 $-1 #
edge $-1 $390 25.993958068005497 $391 31.415982974842549 $246 $392 forward 7 unknown #
loop $-1 $-1 $253 $154 #
plane-surface $-1 -72.778099917600045 37.679925478370407 10.390431271504767 -0.85716730853699208 0 0.51503806187062418 0.51503806187062418 0 0.85716730853699208 forward_v I I I I #
loop $-1 $-1 $393 $98 #
coedge $-1 $251 $251 $252 $394 reversed $155 $-1 #
coedge $-1 $252 $252 $251 $394 forward $157 $-1 #
coedge $-1 $253 $253 $158 $254 forward $248 $-1 #
edge $-1 $395 0 $395 6.2831853071796004 $253 $396 forward 7 unknown #
loop $-1 $-1 $260 $159 #
plane-surface $-1 -72.778099917600045 37.679925478370407 10.390431271504767 -0.85716730853699208 0 0.51503806187062418 0.51503806187062418 0 0.85716730853699208 forward_v I I I I #
loop $-1 $-1 $397 $101 #
coedge $-1 $258 $258 $259 $398 reversed $160 $-1 #
coedge $-1 $259 $259 $258 $398 forward $162 $-1 #
coedge $-1 $260 $260 $163 $261 forward $255 $-1 #
edge $-1 $399 0 $399 6.2831853071796004 $260 $400 forward 7 unknown #
face $-1 $401 $402 $56 $-1 $403 reversed single #
loop $-1 $-1 $404 $164 #
plane-surface $-1 65.594126239859946 1.9169760647653895 213.94954134184414 0 1 0 0.68199836817093118 0 0.7313536940579346 forward_v I I I I #
coedge $-1 $405 $406 $407 $408 reversed $165 $-1 #
coedge $-1 $267 $167 $409 $410 reversed $105 $-1 #
coedge $-1 $167 $266 $405 $411 reversed $105 $-1 #
coedge $-1 $407 $412 $167 $269 forward $413 $-1 #
edge $-1 $414 -39.981036797670058 $415 -27.984651783896112 $268 $416 forward 7 unknown #
loop $-1 $-1 $275 $168 #
plane-surface $-1 -33.674964524908461 6.2590044605194493 107.49647689933565 0.68199836817093118 0 0.7313536940579346 0.7313536940579346 0 -0.68199836817093118 forward_v I I I I #
loop $-1 $-1 $417 $107 #
coedge $-1 $273 $273 $274 $418 reversed $169 $-1 #
coedge $-1 $274 $274 $273 $418 forward $171 $-1 #
coedge $-1 $275 $275 $172 $276 forward $270 $-1 #
edge $-1 $419 0 $419 6.2831853071796004 $275 $420 forward 7 unknown #
loop $-1 $-1 $282 $173 #
plane-surface $-1 -33.674964524908461 6.2590044605194493 107.49647689933565 0.68199836817093118 0 0.7313536940579346 0.7313536940579346 0 -0.68199836817093118 forward_v I I I I #
loop $-1 $-1 $421 $110 #
coedge $-1 $280 $280 $281 $422 reversed $174 $-1 #
coedge $-1 $281 $281 $280 $422 forward $176 $-1 #
coedge $-1 $282 $282 $177 $283 forward $277 $-1 #
edge $-1 $423 0 $423 6.2831853071796004 $282 $424 forward 7 unknown #
loop $-1 $-1 $289 $178 #
plane-surface $-1 -33.674964524908461 6.2590044605194493 107.49647689933565 0.68199836817093118 0 0.7313536940579346 0.7313536940579346 0 -0.68199836817093118 forward_v I I I I #
loop $-1 $-1 $425 $113 #
coedge $-1 $287 $287 $288 $426 reversed $179 $-1 #
coedge $-1 $288 $288 $287 $426 forward $181 $-1 #
coedge $-1 $289 $289 $182 $290 forward $284 $-1 #
edge $-1 $427 0 $427 6.2831853071796004 $289 $428 forward 7 unknown #
face $-1 $429 $430 $60 $-1 $431 forward single #
loop $-1 $-1 $297 $183 #
plane-surface $-1 72.778099917600031 0 0 -1 0 0 0 0 1 forward_v I I I I #
coedge $-1 $432 $433 $434 $435 reversed $184 $-1 #
coedge $-1 $296 $186 $436 $437 reversed $117 $-1 #
coedge $-1 $186 $295 $432 $438 reversed $117 $-1 #
coedge $-1 $434 $439 $186 $298 forward $292 $-1 #
edge $-1 $440 87.560574283235439 $441 98.747384536354829 $297 $442 forward 7 unknown #
loop $-1 $-1 $304 $187 #
plane-surface $-1 -33.674964524908461 39.970721366385845 107.49647689933565 0.68199836817093118 0 0.7313536940579346 0.7313536940579346 0 -0.68199836817093118 forward_v I I I I #
loop $-1 $-1 $443 $119 #
coedge $-1 $302 $302 $303 $444 reversed $188 $-1 #
coedge $-1 $303 $303 $302 $444 forward $190 $-1 #
coedge $-1 $304 $304 $191 $305 forward $299 $-1 #
edge $-1 $445 0 $445 6.2831853071796004 $304 $446 forward 7 unknown #
loop $-1 $-1 $311 $192 #
plane-surface $-1 -33.674964524908461 39.970721366385845 107.49647689933565 0.68199836817093118 0 0.7313536940579346 0.7313536940579346 0 -0.68199836817093118 forward_v I I I I #
loop $-1 $-1 $447 $122 #
coedge $-1 $309 $309 $310 $448 reversed $193 $-1 #
coedge $-1 $310 $310 $309 $448 forward $195 $-1 #
coedge $-1 $311 $311 $196 $312 forward $306 $-1 #
edge $-1 $449 0 $449 6.2831853071796004 $311 $450 forward 7 unknown #
loop $-1 $-1 $318 $197 #
plane-surface $-1 -33.674964524908461 39.970721366385845 107.49647689933565 0.68199836817093118 0 0.7313536940579346 0.7313536940579346 0 -0.68199836817093118 forward_v I I I I #
loop $-1 $-1 $451 $125 #
coedge $-1 $316 $316 $317 $452 reversed $198 $-1 #
coedge $-1 $317 $317 $316 $452 forward $200 $-1 #
coedge $-1 $318 $318 $201 $319 forward $313 $-1 #
edge $-1 $453 0 $453 6.2831853071796004 $318 $454 forward 7 unknown #
face $-1 $455 $456 $48 $-1 $457 reversed single #
loop $-1 $-1 $458 $202 #
plane-surface $-1 -72.778099917600031 0 0 1 0 0 0 0 -1 forward_v I I I I #
coedge $-1 $459 $331 $460 $461 forward $203 $-1 #
coedge $-1 $462 $205 $459 $463 forward $129 $-1 #
coedge $-1 $205 $462 $464 $465 forward $129 $-1 #
coedge $-1 $334 $333 $205 $327 reversed $335 $-1 #
edge $-1 $466 -44.312749762139902 $467 44.312749762139902 $326 $468 forward 7 unknown #
coedge $-1 $207 $206 $469 $470 forward $81 $-1 #
coedge $-1 $471 $472 $206 $330 reversed $456 $-1 #
edge $-1 $337 -72.778099917600031 $473 72.778099917600031 $329 $474 forward 7 unknown #
coedge $-1 $323 $475 $207 $332 reversed $203 $-1 #
edge $-1 $476 -72.778099917600031 $336 72.778099917600031 $331 $477 forward 7 unknown #
coedge $-1 $326 $208 $475 $478 forward $335 $-1 #
coedge $-1 $208 $326 $471 $479 reversed $335 $-1 #
loop $-1 $-1 $333 $455 #
vertex $-1 $209 $480 #
vertex $-1 $209 $481 #
straight-curve $-1 72.778099917600031 0 19.414196387686637 0 1 0 I I #
face $-1 $482 $483 $49 $-1 $484 reversed single #
loop $-1 $-1 $485 $210 #
plane-surface $-1 0 0 19.414196387686637 0 0 1 1 0 0 forward_v I I I I #
coedge $-1 $486 $487 $488 $489 reversed $211 $-1 #
coedge $-1 $216 $213 $490 $491 reversed $133 $-1 #
coedge $-1 $213 $216 $492 $493 reversed $133 $-1 #
coedge $-1 $487 $486 $213 $346 reversed $211 $-1 #
edge $-1 $494 -19.414196387686637 $495 19.414196387686637 $345 $496 forward 7 unknown #
coedge $-1 $215 $214 $497 $498 reversed $84 $-1 #
coedge $-1 $490 $499 $214 $349 forward $483 $-1 #
edge $-1 $500 -27.456891309206704 $353 -6.2548255966596926 $348 $501 forward 7 unknown #
coedge $-1 $502 $492 $215 $351 forward $340 $-1 #
edge $-1 $352 6.2548255966596926 $503 27.456891309206704 $350 $504 forward 7 unknown #
vertex $-1 $351 $505 #
vertex $-1 $349 $506 #
straight-curve $-1 -55.735097995061615 -23.110684049592891 0 0 0 -1 I I #
face $-1 $-1 $367 $50 $-1 $507 forward single #
loop $-1 $-1 $508 $218 #
plane-surface $-1 -72.778099917600031 0 0 1 0 0 0 0 -1 forward_v I I I I #
coedge $-1 $509 $510 $511 $512 reversed $219 $-1 #
coedge $-1 $513 $221 $223 $365 forward $137 $-1 #
coedge $-1 $221 $513 $509 $514 forward $137 $-1 #
coedge $-1 $511 $224 $221 $362 forward $367 $-1 #
edge $-1 $369 -4.6487199975174995 $515 8.6169285700215106 $361 $516 forward 7 unknown #
coedge $-1 $517 $518 $222 $364 forward $356 $-1 #
edge $-1 $519 -32.288275892434946 $368 -23.264510776253097 $363 $520 forward 7 unknown #
edge $-1 $369 -10.527425656939229 $519 -2.7113386213432547e-014 $223 $521 forward 7 unknown #
coedge $-1 $224 $511 $517 $522 forward $367 $-1 #
loop $-1 $-1 $511 $355 #
vertex $-1 $364 $523 #
vertex $-1 $225 $524 #
straight-curve $-1 -98.772057985605528 -2.664615711265494 19.414196387686637 1 0 0 I I #
coedge $-1 $371 $371 $-1 $525 reversed $228 $-1 #
edge $-1 $526 0 $526 6.2831853071796004 $229 $527 forward 7 unknown #
vertex $-1 $232 $528 #
ellipse-curve $-1 -70.067087464181512 1.1255695937456451 14.902313829595707 -0.85716730853699208 0 0.51503806187062418 0.51503806187062418 0 0.85716730853699208 1 I I #
coedge $-1 $375 $375 $-1 $529 reversed $235 $-1 #
edge $-1 $530 0 $530 6.2831853071796004 $236 $531 forward 7 unknown #
vertex $-1 $239 $532 #
ellipse-curve $-1 -70.067087464181512 6.8108475512623627 14.902313829595707 -0.85716730853699208 0 0.51503806187062418 0.51503806187062418 0 0.85716730853699208 1 I I #
face $-1 $-1 $533 $53 $-1 $534 reversed single #
loop $-1 $-1 $535 $240 #
plane-surface $-1 0 44.312749762139902 0 0 -1 0 0 0 -1 forward_v I I I I #
coedge $-1 $536 $243 $245 $388 forward $151 $-1 #
coedge $-1 $243 $536 $535 $537 reversed $151 $-1 #
coedge $-1 $538 $246 $243 $385 forward $241 $-1 #
edge $-1 $391 12.207138455415699 $539 25.472787022954712 $384 $540 forward 7 unknown #
coedge $-1 $541 $542 $244 $387 forward $533 $-1 #
edge $-1 $543 -32.288275892434946 $390 -23.264510776253097 $386 $544 forward 7 unknown #
edge $-1 $391 -10.527425656939229 $543 -2.7113386213432547e-014 $245 $545 forward 7 unknown #
coedge $-1 $246 $538 $541 $546 forward $241 $-1 #
vertex $-1 $387 $547 #
vertex $-1 $247 $548 #
straight-curve $-1 -98.772057985605528 31.047101194600902 19.414196387686637 1 0 0 I I #
coedge $-1 $393 $393 $-1 $549 reversed $250 $-1 #
edge $-1 $550 0 $550 6.2831853071796004 $251 $551 forward 7 unknown #
vertex $-1 $254 $552 #
ellipse-curve $-1 -70.067087464181512 34.837286499612048 14.902313829595707 -0.85716730853699208 0 0.51503806187062418 0.51503806187062418 0 0.85716730853699208 1 I I #
coedge $-1 $397 $397 $-1 $553 reversed $257 $-1 #
edge $-1 $554 0 $554 6.2831853071796004 $258 $555 forward 7 unknown #
vertex $-1 $261 $556 #
ellipse-curve $-1 -70.067087464181512 40.522564457128766 14.902313829595707 -0.85716730853699208 0 0.51503806187062418 0.51503806187062418 0 0.85716730853699208 1 I I #
face $-1 $-1 $413 $56 $-1 $557 forward single #
loop $-1 $-1 $558 $262 #
plane-surface $-1 72.778099917600031 0 0 -1 0 0 0 0 1 forward_v I I I I #
coedge $-1 $559 $560 $561 $562 reversed $263 $-1 #
coedge $-1 $563 $265 $267 $411 forward $165 $-1 #
coedge $-1 $265 $563 $559 $564 forward $165 $-1 #
coedge $-1 $561 $268 $265 $408 forward $413 $-1 #
edge $-1 $415 -7.4715306260137844 $565 1.2125261654943351 $407 $566 forward 7 unknown #
coedge $-1 $567 $568 $266 $410 forward $402 $-1 #
edge $-1 $569 -98.747384536354829 $414 -87.560574283235439 $409 $570 forward 7 unknown #
edge $-1 $415 129.15321300236997 $569 145.55619983520006 $267 $571 forward 7 unknown #
coedge $-1 $268 $561 $567 $572 forward $413 $-1 #
loop $-1 $-1 $561 $401 #
vertex $-1 $410 $573 #
vertex $-1 $269 $574 #
straight-curve $-1 32.797063119929973 10.601032856273509 19.414196387686644 -1 0 0 I I #
coedge $-1 $417 $417 $-1 $575 reversed $272 $-1 #
edge $-1 $576 0 $576 6.2831853071796004 $273 $577 forward 7 unknown #
vertex $-1 $276 $578 #
ellipse-curve $-1 66.779907410713037 3.6537874230670155 13.820791261126955 0.68199836817093118 0 0.7313536940579346 0.3656768470289673 0 -0.34099918408546559 1 I I #
coedge $-1 $421 $421 $-1 $579 reversed $279 $-1 #
edge $-1 $580 0 $580 6.2831853071796004 $280 $581 forward 7 unknown #
vertex $-1 $283 $582 #
ellipse-curve $-1 66.779907410713037 6.2590044605194493 13.820791261126955 0.68199836817093118 0 0.7313536940579346 0.3656768470289673 0 -0.34099918408546559 1 I I #
coedge $-1 $425 $425 $-1 $583 reversed $286 $-1 #
edge $-1 $584 0 $584 6.2831853071796004 $287 $585 forward 7 unknown #
vertex $-1 $290 $586 #
ellipse-curve $-1 66.779907410713037 8.864221497971883 13.820791261126955 0.68199836817093118 0 0.7313536940579346 0.3656768470289673 0 -0.34099918408546559 1 I I #
face $-1 $-1 $587 $60 $-1 $588 reversed single #
loop $-1 $-1 $436 $291 #
plane-surface $-1 0 0 19.414196387686637 0 0 1 1 0 0 forward_v I I I I #
coedge $-1 $589 $294 $296 $438 forward $184 $-1 #
coedge $-1 $294 $589 $590 $591 reversed $184 $-1 #
coedge $-1 $592 $297 $294 $435 forward $292 $-1 #
edge $-1 $441 15.643332287438867 $593 24.327389078946979 $434 $594 forward 7 unknown #
coedge $-1 $595 $596 $295 $437 forward $430 $-1 #
edge $-1 $597 27.984651783896112 $440 39.981036797670058 $436 $598 forward 7 unknown #
edge $-1 $441 -145.55619983520006 $597 -129.15321300236997 $296 $599 forward 7 unknown #
coedge $-1 $297 $592 $595 $600 reversed $292 $-1 #
vertex $-1 $600 $601 #
vertex $-1 $298 $602 #
straight-curve $-1 72.778099917600031 35.628692970631789 106.97477067092207 0 0 -1 I I #
coedge $-1 $443 $443 $-1 $603 reversed $301 $-1 #
edge $-1 $604 0 $604 6.2831853071796004 $302 $605 forward 7 unknown #
vertex $-1 $305 $606 #
ellipse-curve $-1 66.779907410713037 37.365504328933412 13.820791261126955 0.68199836817093118 0 0.7313536940579346 0.3656768470289673 0 -0.34099918408546559 1 I I #
coedge $-1 $447 $447 $-1 $607 reversed $308 $-1 #
edge $-1 $608 0 $608 6.2831853071796004 $309 $609 forward 7 unknown #
vertex $-1 $312 $610 #
ellipse-curve $-1 66.779907410713037 39.970721366385845 13.820791261126955 0.68199836817093118 0 0.7313536940579346 0.3656768470289673 0 -0.34099918408546559 1 I I #
coedge $-1 $451 $451 $-1 $611 reversed $315 $-1 #
edge $-1 $612 0 $612 6.2831853071796004 $316 $613 forward 7 unknown #
vertex $-1 $319 $614 #
ellipse-curve $-1 66.779907410713037 42.575938403838279 13.820791261126955 0.68199836817093118 0 0.7313536940579346 0.3656768470289673 0 -0.34099918408546559 1 I I #
face $-1 $-1 $335 $48 $-1 $615 reversed single #
loop $-1 $-1 $471 $320 #
plane-surface $-1 0 44.312749762139902 0 0 -1 0 0 0 -1 forward_v I I I I #
coedge $-1 $616 $469 $472 $617 forward $321 $-1 #
coedge $-1 $475 $323 $324 $463 reversed $203 $-1 #
coedge $-1 $469 $616 $323 $461 reversed $321 $-1 #
edge $-1 $476 -19.414196387686637 $618 19.414196387686637 $460 $619 forward 7 unknown #
coedge $-1 $325 $324 $616 $620 forward $129 $-1 #
edge $-1 $467 -72.778099917600031 $618 72.778099917600031 $459 $621 forward 7 unknown #
coedge $-1 $472 $471 $325 $465 reversed $456 $-1 #
edge $-1 $622 -72.778099917600031 $466 72.778099917600031 $464 $623 forward 7 unknown #
vertex $-1 $327 $624 #
vertex $-1 $478 $625 #
straight-curve $-1 72.778099917600031 0 -19.414196387686637 0 -1 0 I I #
coedge $-1 $458 $460 $328 $470 reversed $321 $-1 #
edge $-1 $473 -44.312749762139902 $476 44.312749762139902 $469 $626 forward 7 unknown #
coedge $-1 $464 $329 $334 $479 forward $456 $-1 #
coedge $-1 $329 $464 $458 $617 reversed $456 $-1 #
vertex $-1 $330 $627 #
straight-curve $-1 0 44.312749762139902 19.414196387686637 -1 0 0 I I #
coedge $-1 $331 $459 $333 $478 reversed $203 $-1 #
vertex $-1 $470 $628 #
straight-curve $-1 0 -44.312749762139902 19.414196387686637 1 0 0 I I #
edge $-1 $336 -19.414196387686637 $467 19.414196387686637 $333 $629 forward 7 unknown #
edge $-1 $337 -19.414196387686637 $466 19.414196387686637 $334 $630 forward 7 unknown #
point $-1 72.778099917600031 -44.312749762139902 19.414196387686637 #
point $-1 72.778099917600031 44.312749762139902 19.414196387686637 #
face $-1 $-1 $631 $49 $-1 $632 reversed single #
loop $-1 $-1 $633 $339 #
plane-surface $-1 0 0 -19.414196387686637 0 0 1 1 0 0 forward_v I I I I #
coedge $-1 $492 $502 $487 $634 forward $340 $-1 #
coedge $-1 $345 $342 $633 $635 reversed $211 $-1 #
coedge $-1 $342 $345 $485 $634 reversed $211 $-1 #
coedge $-1 $636 $637 $342 $489 forward $631 $-1 #
edge $-1 $638 -19.414196387686637 $639 19.414196387686637 $488 $640 forward 7 unknown #
coedge $-1 $633 $348 $343 $491 forward $483 $-1 #
edge $-1 $353 -29.928444715939872 $495 -21.684861842303615 $490 $641 forward 7 unknown #
coedge $-1 $350 $485 $344 $493 forward $340 $-1 #
edge $-1 $494 21.684861842303615 $352 29.928444715939872 $492 $642 forward 7 unknown #
vertex $-1 $493 $643 #
vertex $-1 $491 $644 #
straight-curve $-1 -47.491515121425358 -23.110684049592891 0 0 0 -1 I I #
coedge $-1 $637 $636 $347 $498 forward $631 $-1 #
edge $-1 $503 -19.414196387686637 $500 19.414196387686637 $497 $645 forward 7 unknown #
coedge $-1 $348 $633 $637 $646 forward $483 $-1 #
vertex $-1 $349 $647 #
straight-curve $-1 -55.735097995061615 -16.855858452933198 -19.414196387686637 0 1 0 I I #
coedge $-1 $485 $350 $636 $648 forward $340 $-1 #
vertex $-1 $648 $649 #
straight-curve $-1 -55.735097995061615 -16.855858452933198 19.414196387686637 0 -1 0 I I #
point $-1 -55.735097995061615 -23.110684049592891 19.414196387686637 #
point $-1 -55.735097995061615 -23.110684049592891 -19.414196387686637 #
plane-surface $-1 0 0 19.414196387686637 0 0 1 1 0 0 forward_v I I I I #
coedge $-1 $518 $517 $510 $650 forward $356 $-1 #
coedge $-1 $510 $358 $360 $514 reversed $219 $-1 #
coedge $-1 $358 $509 $508 $650 reversed $219 $-1 #
coedge $-1 $366 $361 $358 $512 forward $367 $-1 #
edge $-1 $515 -31.415982974842549 $651 -25.993958068005497 $511 $652 forward 7 unknown #
coedge $-1 $360 $359 $518 $653 reversed $137 $-1 #
edge $-1 $654 2.7113386213432547e-014 $515 10.527425656939229 $509 $655 forward 7 unknown #
vertex $-1 $362 $656 #
straight-curve $-1 -67.356075010762979 1.9841042862520055 19.414196387686637 0 1 0 I I #
coedge $-1 $508 $363 $366 $522 reversed $356 $-1 #
coedge $-1 $363 $508 $513 $653 forward $356 $-1 #
vertex $-1 $364 $657 #
straight-curve $-1 -72.778099917600031 -2.664615711265494 42.678707163939734 0 0 1 I I #
straight-curve $-1 -72.778099917600045 -2.664615711265494 10.390431271504767 -0.51503806187062418 0 -0.85716730853699208 I I #
edge $-1 $651 -10.601032856273516 $368 2.664615711265494 $517 $658 forward 7 unknown #
point $-1 -72.778099917600031 -2.664615711265494 19.414196387686637 #
point $-1 -67.356075010762979 -2.664615711265494 19.414196387686637 #
edge $-1 $659 1 $659 0 $371 $-1 forward 7 unknown #
vertex $-1 $372 $660 #
ellipse-curve $-1 -68.562787220722527 1.1255695937456451 13.998439085253208 -0.85716730853699208 0 0.51503806187062418 0.51503806187062418 0 0.85716730853699208 1 I I #
point $-1 -69.552049402310871 1.1255695937456451 15.759481138132687 #
edge $-1 $661 1 $661 0 $375 $-1 forward 7 unknown #
vertex $-1 $376 $662 #
ellipse-curve $-1 -68.562787220722527 6.8108475512623627 13.998439085253208 -0.85716730853699208 0 0.51503806187062418 0.51503806187062418 0 0.85716730853699208 1 I I #
point $-1 -69.552049402310871 6.8108475512623627 15.759481138132687 #
loop $-1 $-1 $386 $379 #
plane-surface $-1 -72.778099917600031 0 0 1 0 0 0 0 -1 forward_v I I I I #
coedge $-1 $663 $664 $383 $537 forward $380 $-1 #
coedge $-1 $383 $382 $542 $665 reversed $151 $-1 #
edge $-1 $539 3.7611511033872826 $666 14.288576760326483 $535 $667 forward 7 unknown #
coedge $-1 $389 $384 $664 $668 forward $241 $-1 #
vertex $-1 $668 $669 #
straight-curve $-1 -67.356075010762979 18.839962739185204 19.414196387686637 0 1 0 I I #
coedge $-1 $670 $386 $389 $546 reversed $533 $-1 #
coedge $-1 $386 $670 $536 $665 forward $533 $-1 #
vertex $-1 $387 $671 #
straight-curve $-1 -72.778099917600031 31.047101194600902 42.678707163939734 0 0 1 I I #
straight-curve $-1 -72.778099917600045 31.047101194600902 10.390431271504767 -0.51503806187062418 0 -0.85716730853699208 I I #
edge $-1 $672 -44.312749762139902 $390 -31.047101194600902 $541 $673 forward 7 unknown #
point $-1 -72.778099917600031 31.047101194600902 19.414196387686637 #
point $-1 -67.356075010762979 31.047101194600902 19.414196387686637 #
edge $-1 $674 1 $674 0 $393 $-1 forward 7 unknown #
vertex $-1 $394 $675 #
ellipse-curve $-1 -68.562787220722527 34.837286499612048 13.998439085253208 -0.85716730853699208 0 0.51503806187062418 0.51503806187062418 0 0.85716730853699208 1 I I #
point $-1 -69.552049402310871 34.837286499612048 15.759481138132687 #
edge $-1 $676 1 $676 0 $397 $-1 forward 7 unknown #
vertex $-1 $398 $677 #
ellipse-curve $-1 -68.562787220722527 40.522564457128766 13.998439085253208 -0.85716730853699208 0 0.51503806187062418 0.51503806187062418 0 0.85716730853699208 1 I I #
point $-1 -69.552049402310871 40.522564457128766 15.759481138132687 #
plane-surface $-1 0 0 19.414196387686637 0 0 1 1 0 0 forward_v I I I I #
coedge $-1 $568 $567 $560 $678 forward $402 $-1 #
coedge $-1 $560 $404 $406 $564 reversed $263 $-1 #
coedge $-1 $404 $559 $558 $678 reversed $263 $-1 #
coedge $-1 $412 $407 $404 $562 forward $413 $-1 #
edge $-1 $565 27.984651783896112 $679 39.981036797670058 $561 $680 forward 7 unknown #
coedge $-1 $406 $405 $568 $681 reversed $165 $-1 #
edge $-1 $682 -145.55619983520006 $565 -129.15321300236997 $559 $683 forward 7 unknown #
vertex $-1 $408 $684 #
straight-curve $-1 60.781714903826085 3.1295022302597246 19.414196387686637 0 -1 0 I I #
coedge $-1 $558 $409 $412 $572 reversed $402 $-1 #
coedge $-1 $409 $558 $563 $681 forward $402 $-1 #
vertex $-1 $410 $685 #
straight-curve $-1 72.778099917600031 10.601032856273509 106.97477067092207 0 0 1 I I #
straight-curve $-1 -33.674964524908461 10.601032856273509 107.49647689933565 0.7313536940579346 0 -0.68199836817093118 I I #
edge $-1 $679 1.9169760647653895 $414 10.601032856273509 $567 $686 forward 7 unknown #
point $-1 72.778099917600031 10.601032856273509 19.414196387686637 #
point $-1 60.781714903826085 10.601032856273509 19.414196387686644 #
edge $-1 $687 1 $687 0 $417 $-1 forward 7 unknown #
vertex $-1 $418 $688 #
ellipse-curve $-1 65.597706833518785 3.6537874230670155 12.553036381350262 0.68199836817093118 0 0.7313536940579346 0.3656768470289673 0 -0.34099918408546559 1 I I #
point $-1 67.14558425774203 3.6537874230670155 13.479792077041512 #
edge $-1 $689 1 $689 0 $421 $-1 forward 7 unknown #
vertex $-1 $422 $690 #
ellipse-curve $-1 65.597706833518785 6.2590044605194493 12.553036381350262 0.68199836817093118 0 0.7313536940579346 0.3656768470289673 0 -0.34099918408546559 1 I I #
point $-1 67.14558425774203 6.2590044605194493 13.479792077041512 #
edge $-1 $691 1 $691 0 $425 $-1 forward 7 unknown #
vertex $-1 $426 $692 #
ellipse-curve $-1 65.597706833518785 8.864221497971883 12.553036381350262 0.68199836817093118 0 0.7313536940579346 0.3656768470289673 0 -0.34099918408546559 1 I I #
point $-1 67.14558425774203 8.864221497971883 13.479792077041512 #
loop $-1 $-1 $590 $429 #
plane-surface $-1 0 44.312749762139902 0 0 -1 0 0 0 -1 forward_v I I I I #
coedge $-1 $433 $432 $596 $693 reversed $184 $-1 #
coedge $-1 $694 $695 $433 $591 forward $587 $-1 #
edge $-1 $593 -96.585834069183647 $696 -80.182847236353552 $590 $697 forward 7 unknown #
coedge $-1 $439 $434 $695 $698 reversed $292 $-1 #
vertex $-1 $435 $699 #
straight-curve $-1 72.778099917600031 19.985360683192923 8.2273861345672401 0 1 0 I I #
coedge $-1 $700 $436 $439 $600 forward $430 $-1 #
coedge $-1 $436 $700 $589 $693 forward $430 $-1 #
vertex $-1 $437 $701 #
straight-curve $-1 32.797063119929973 35.628692970631789 19.414196387686644 1 0 0 I I #
straight-curve $-1 -33.674964524908461 35.628692970631789 107.49647689933565 -0.7313536940579346 0 0.68199836817093118 I I #
edge $-1 $440 35.628692970631789 $702 44.312749762139902 $439 $703 forward 7 unknown #
point $-1 72.778099917600031 35.628692970631789 19.414196387686637 #
point $-1 72.778099917600031 35.628692970631789 8.2273861345672401 #
edge $-1 $704 1 $704 0 $443 $-1 forward 7 unknown #
vertex $-1 $444 $705 #
ellipse-curve $-1 65.597706833518785 37.365504328933412 12.553036381350262 0.68199836817093118 0 0.7313536940579346 0.3656768470289673 0 -0.34099918408546559 1 I I #
point $-1 67.14558425774203 37.365504328933412 13.479792077041512 #
edge $-1 $706 1 $706 0 $447 $-1 forward 7 unknown #
vertex $-1 $448 $707 #
ellipse-curve $-1 65.597706833518785 39.970721366385845 12.553036381350262 0.68199836817093118 0 0.7313536940579346 0.3656768470289673 0 -0.34099918408546559 1 I I #
point $-1 67.14558425774203 39.970721366385845 13.479792077041512 #
edge $-1 $708 1 $708 0 $451 $-1 forward 7 unknown #
vertex $-1 $452 $709 #
ellipse-curve $-1 65.597706833518785 42.575938403838279 12.553036381350262 0.68199836817093118 0 0.7313536940579346 0.3656768470289673 0 -0.34099918408546559 1 I I #
point $-1 67.14558425774203 42.575938403838279 13.479792077041512 #
plane-surface $-1 72.778099917600031 0 0 -1 0 0 0 0 1 forward_v I I I I #
coedge $-1 $460 $458 $462 $620 reversed $321 $-1 #
edge $-1 $473 -19.414196387686637 $622 19.414196387686637 $472 $710 forward 7 unknown #
vertex $-1 $620 $711 #
straight-curve $-1 -72.778099917600031 -44.312749762139902 0 0 0 -1 I I #
edge $-1 $618 -44.312749762139902 $622 44.312749762139902 $616 $712 forward 7 unknown #
straight-curve $-1 0 -44.312749762139902 -19.414196387686637 -1 0 0 I I #
vertex $-1 $465 $713 #
straight-curve $-1 0 44.312749762139902 -19.414196387686637 1 0 0 I I #
point $-1 72.778099917600031 44.312749762139902 -19.414196387686637 #
point $-1 72.778099917600031 -44.312749762139902 -19.414196387686637 #
straight-curve $-1 -72.778099917600031 0 19.414196387686637 0 -1 0 I I #
point $-1 -72.778099917600031 44.312749762139902 19.414196387686637 #
point $-1 -72.778099917600031 -44.312749762139902 19.414196387686637 #
straight-curve $-1 72.778099917600031 -44.312749762139902 0 0 0 -1 I I #
straight-curve $-1 72.778099917600031 44.312749762139902 0 0 0 -1 I I #
loop $-1 $-1 $488 $482 #
plane-surface $-1 0 -44.312749762139902 0 0 1 0 0 0 1 forward_v I I I I #
coedge $-1 $499 $490 $486 $635 forward $483 $-1 #
edge $-1 $639 -27.456891309206704 $494 -6.2548255966596926 $485 $714 forward 7 unknown #
edge $-1 $495 6.2548255966596926 $638 27.456891309206704 $633 $715 forward 7 unknown #
coedge $-1 $497 $488 $502 $648 reversed $631 $-1 #
coedge $-1 $488 $497 $499 $646 reversed $631 $-1 #
vertex $-1 $646 $716 #
vertex $-1 $489 $717 #
straight-curve $-1 -47.491515121425358 -44.312749762139902 0 0 0 1 I I #
straight-curve $-1 -25.806653279121743 -23.110684049592891 -19.414196387686637 1 0 0 I I #
straight-curve $-1 -25.806653279121743 -23.110684049592891 19.414196387686637 -1 0 0 I I #
point $-1 -47.491515121425358 -23.110684049592891 19.414196387686637 #
point $-1 -47.491515121425358 -23.110684049592891 -19.414196387686637 #
straight-curve $-1 -55.735097995061615 -44.312749762139902 0 0 0 -1 I I #
edge $-1 $638 47.491515121425358 $500 55.735097995061615 $637 $718 forward 7 unknown #
point $-1 -55.735097995061615 -44.312749762139902 -19.414196387686637 #
edge $-1 $503 -55.735097995061615 $639 -47.491515121425358 $636 $719 forward 7 unknown #
point $-1 -55.735097995061615 -44.312749762139902 19.414196387686637 #
edge $-1 $651 23.264510776253097 $654 32.288275892434946 $508 $720 forward 7 unknown #
vertex $-1 $522 $721 #
straight-curve $-1 -98.772057985605528 10.601032856273516 19.414196387686637 -1 0 0 I I #
edge $-1 $654 -8.6169285700215106 $519 4.6487199975174995 $518 $722 forward 7 unknown #
vertex $-1 $653 $723 #
straight-curve $-1 -72.778099917600045 10.601032856273516 10.390431271504767 0.51503806187062418 0 0.85716730853699208 I I #
point $-1 -67.356075010762979 10.601032856273516 19.414196387686637 #
point $-1 -72.778099917600031 -2.664615711265494 10.39043127150479 #
straight-curve $-1 -72.778099917600031 0 19.414196387686637 0 -1 0 I I #
vertex $-1 $525 $724 #
point $-1 -68.0477491588519 1.1255695937456451 14.8556063937902 #
vertex $-1 $529 $725 #
point $-1 -68.0477491588519 6.8108475512623627 14.8556063937902 #
coedge $-1 $664 $535 $670 $726 reversed $380 $-1 #
coedge $-1 $535 $663 $538 $668 reversed $380 $-1 #
edge $-1 $666 -25.472787022954712 $543 -12.207138455415699 $542 $727 forward 7 unknown #
vertex $-1 $537 $728 #
straight-curve $-1 -65.418939036071833 44.312749762139902 22.638132155978052 -0.51503806187062429 0 -0.85716730853699219 I I #
edge $-1 $539 67.356075010762979 $672 72.778099917600031 $664 $729 forward 7 unknown #
point $-1 -67.356075010762979 44.312749762139916 19.414196387686637 #
coedge $-1 $542 $541 $663 $726 forward $533 $-1 #
point $-1 -72.778099917600031 31.047101194600902 10.39043127150479 #
vertex $-1 $668 $730 #
straight-curve $-1 -72.778099917600031 0 19.414196387686637 0 -1 0 I I #
vertex $-1 $549 $731 #
point $-1 -68.0477491588519 34.837286499612048 14.8556063937902 #
vertex $-1 $553 $732 #
point $-1 -68.0477491588519 40.522564457128766 14.8556063937902 #
edge $-1 $679 87.560574283235439 $682 98.747384536354829 $558 $733 forward 7 unknown #
vertex $-1 $572 $734 #
straight-curve $-1 32.797063119929973 1.9169760647653895 19.414196387686644 1 0 0 I I #
edge $-1 $682 -1.2125261654943351 $569 7.4715306260137844 $568 $735 forward 7 unknown #
vertex $-1 $681 $736 #
straight-curve $-1 -33.674964524908461 1.9169760647653895 107.49647689933565 -0.7313536940579346 0 0.68199836817093118 I I #
point $-1 60.781714903826085 1.9169760647653895 19.414196387686644 #
point $-1 72.778099917600031 10.601032856273509 8.2273861345672401 #
straight-curve $-1 72.778099917600031 0 19.414196387686637 0 1 0 I I #
vertex $-1 $575 $737 #
point $-1 65.96338368054775 3.6537874230670155 12.212037197264795 #
vertex $-1 $579 $738 #
point $-1 65.96338368054775 6.2590044605194493 12.212037197264795 #
vertex $-1 $583 $739 #
point $-1 65.96338368054775 8.864221497971883 12.212037197264795 #
edge $-1 $696 -24.327389078946979 $597 -15.643332287438867 $596 $740 forward 7 unknown #
coedge $-1 $695 $590 $700 $741 reversed $587 $-1 #
coedge $-1 $590 $694 $592 $698 forward $587 $-1 #
vertex $-1 $591 $742 #
straight-curve $-1 2.1396933774358544 44.312749762139902 74.098767358178819 -0.7313536940579346 0 0.68199836817093118 I I #
edge $-1 $702 -19.414196387686637 $593 -8.2273861345672383 $592 $743 forward 7 unknown #
point $-1 72.778099917600031 44.312749762139902 8.2273861345672383 #
coedge $-1 $596 $595 $694 $741 forward $430 $-1 #
point $-1 60.781714903826085 35.628692970631789 19.414196387686644 #
vertex $-1 $600 $744 #
straight-curve $-1 72.778099917600031 0 19.414196387686637 0 1 0 I I #
vertex $-1 $603 $745 #
point $-1 65.96338368054775 37.365504328933412 12.212037197264795 #
vertex $-1 $607 $746 #
point $-1 65.96338368054775 39.970721366385845 12.212037197264795 #
vertex $-1 $611 $747 #
point $-1 65.96338368054775 42.575938403838279 12.212037197264795 #
straight-curve $-1 -72.778099917600031 44.312749762139902 0 0 0 -1 I I #
point $-1 -72.778099917600031 -44.312749762139902 -19.414196387686637 #
straight-curve $-1 -72.778099917600031 0 -19.414196387686637 0 1 0 I I #
point $-1 -72.778099917600031 44.312749762139902 -19.414196387686637 #
straight-curve $-1 -47.491515121425358 -16.855858452933198 19.414196387686637 0 1 0 I I #
straight-curve $-1 -47.491515121425358 -16.855858452933198 -19.414196387686637 0 -1 0 I I #
point $-1 -47.491515121425358 -44.312749762139902 -19.414196387686637 #
point $-1 -47.491515121425358 -44.312749762139902 19.414196387686637 #
straight-curve $-1 0 -44.312749762139902 -19.414196387686637 -1 0 0 I I #
straight-curve $-1 0 -44.312749762139902 19.414196387686637 1 0 0 I I #
straight-curve $-1 -72.778099917600031 10.601032856273516 42.678707163939734 0 0 -1 I I #
point $-1 -72.778099917600031 10.601032856273516 19.414196387686637 #
straight-curve $-1 -72.778099917600031 1.9841042862520055 10.390431271504783 0 -1 0 I I #
point $-1 -72.778099917600031 10.601032856273516 10.39043127150479 #
point $-1 -67.70561991218554 1.1255695937456451 13.483401023382585 #
point $-1 -67.70561991218554 6.8108475512623627 13.483401023382585 #
edge $-1 $672 -19.414196387686637 $666 -10.39043127150479 $663 $748 forward 7 unknown #
straight-curve $-1 -72.778099917600031 18.839962739185204 10.390431271504783 0 -1 0 I I #
point $-1 -72.778099917600031 44.312749762139916 10.39043127150479 #
straight-curve $-1 0 44.312749762139902 19.414196387686637 -1 0 0 I I #
point $-1 -72.778099917600031 44.312749762139902 19.414196387686637 #
point $-1 -67.70561991218554 34.837286499612048 13.483401023382585 #
point $-1 -67.70561991218554 40.522564457128766 13.483401023382585 #
straight-curve $-1 72.778099917600031 1.9169760647653895 106.97477067092207 0 0 -1 I I #
point $-1 72.778099917600031 1.9169760647653895 19.414196387686637 #
straight-curve $-1 72.778099917600031 3.1295022302597246 8.2273861345672401 0 1 0 I I #
point $-1 72.778099917600031 1.9169760647653895 8.2273861345672401 #
point $-1 65.256707649433324 3.6537874230670155 12.187359534321294 #
point $-1 65.256707649433324 6.2590044605194493 12.187359534321294 #
point $-1 65.256707649433324 8.864221497971883 12.187359534321294 #
straight-curve $-1 60.781714903826085 19.985360683192923 19.414196387686637 0 -1 0 I I #
edge $-1 $702 -72.778099917600031 $696 -60.781714903826085 $694 $749 forward 7 unknown #
point $-1 60.781714903826085 44.312749762139902 19.414196387686644 #
straight-curve $-1 72.778099917600031 44.312749762139902 0 0 0 -1 I I #
point $-1 72.778099917600031 44.312749762139902 19.414196387686637 #
point $-1 65.256707649433324 37.365504328933412 12.187359534321294 #
point $-1 65.256707649433324 39.970721366385845 12.187359534321294 #
point $-1 65.256707649433324 42.575938403838279 12.187359534321294 #
straight-curve $-1 -72.778099917600031 44.312749762139902 0 0 0 -1 I I #
straight-curve $-1 0 44.312749762139902 19.414196387686637 -1 0 0 I I #
End-of-ACIS-data 