500 0 12 0           
7 Unknown 11 ACIS 5.0 NT 24 Fri Mar 26 19:44:32 1999 
-1 9.9999999999999995e-007 1e-010 
body $-1 $12 $-1 $13 #
body $-1 $14 $-1 $15 #
body $-1 $16 $-1 $17 #
body $-1 $18 $-1 $19 #
body $-1 $20 $-1 $21 #
body $-1 $22 $-1 $23 #
body $-1 $24 $-1 $25 #
body $-1 $26 $-1 $27 #
body $-1 $28 $-1 $29 #
body $-1 $30 $-1 $31 #
body $-1 $32 $-1 $33 #
body $-1 $34 $-1 $35 #
lump $-1 $-1 $36 $0 #
transform $-1 1 0 0 0 1 0 0 0 1 66.370433668019658 40.867634535235602 11.222603909772133 1 rotate no_reflect no_shear #
lump $-1 $-1 $37 $1 #
transform $-1 1 0 0 0 1 0 0 0 1 66.370433668019658 40.867634535235602 11.222603909772133 1 rotate no_reflect no_shear #
lump $-1 $-1 $38 $2 #
transform $-1 1 0 0 0 1 0 0 0 1 66.370433668019658 40.867634535235602 11.222603909772133 1 rotate no_reflect no_shear #
lump $-1 $-1 $39 $3 #
transform $-1 1 0 0 0 1 0 0 0 1 66.370433668019658 40.867634535235602 11.222603909772133 1 rotate no_reflect no_shear #
lump $-1 $-1 $40 $4 #
transform $-1 1 0 0 0 1 0 0 0 1 66.370433668019658 40.867634535235602 11.222603909772133 1 rotate no_reflect no_shear #
lump $-1 $-1 $41 $5 #
transform $-1 1 0 0 0 1 0 0 0 1 66.370433668019658 40.867634535235602 11.222603909772133 1 rotate no_reflect no_shear #
lump $-1 $-1 $42 $6 #
transform $-1 1 0 0 0 1 0 0 0 1 66.370433668019658 40.867634535235602 11.222603909772133 1 rotate no_reflect no_shear #
lump $-1 $-1 $43 $7 #
transform $-1 1 0 0 0 1 0 0 0 1 66.370433668019658 40.867634535235602 11.222603909772133 1 rotate no_reflect no_shear #
lump $-1 $-1 $44 $8 #
transform $-1 1 0 0 0 1 0 0 0 1 66.370433668019658 40.867634535235602 11.222603909772133 1 rotate no_reflect no_shear #
lump $-1 $-1 $45 $9 #
transform $-1 1 0 0 0 1 0 0 0 1 66.370433668019658 40.867634535235602 11.222603909772133 1 rotate no_reflect no_shear #
lump $-1 $-1 $46 $10 #
transform $-1 1 0 0 0 1 0 0 0 1 66.370433668019658 40.867634535235602 11.222603909772133 1 rotate no_reflect no_shear #
lump $-1 $-1 $47 $11 #
transform $-1 1 0 0 0 1 0 0 0 1 66.370433668019658 40.867634535235602 11.222603909772133 1 rotate no_reflect no_shear #
shell $-1 $-1 $-1 $48 $-1 $12 #
shell $-1 $-1 $-1 $49 $-1 $14 #
shell $-1 $-1 $-1 $50 $-1 $16 #
shell $-1 $-1 $-1 $51 $-1 $18 #
shell $-1 $-1 $-1 $52 $-1 $20 #
shell $-1 $-1 $-1 $53 $-1 $22 #
shell $-1 $-1 $-1 $54 $-1 $24 #
shell $-1 $-1 $-1 $55 $-1 $26 #
shell $-1 $-1 $-1 $56 $-1 $28 #
shell $-1 $-1 $-1 $57 $-1 $30 #
shell $-1 $-1 $-1 $58 $-1 $32 #
shell $-1 $-1 $-1 $59 $-1 $34 #
face $-1 $60 $61 $36 $-1 $62 forward single #
face $-1 $63 $64 $37 $-1 $65 forward single #
face $-1 $66 $67 $38 $-1 $68 reversed single #
face $-1 $69 $70 $39 $-1 $71 forward single #
face $-1 $72 $73 $40 $-1 $74 reversed single #
face $-1 $75 $76 $41 $-1 $77 forward single #
face $-1 $78 $79 $42 $-1 $80 forward single #
face $-1 $81 $82 $43 $-1 $83 forward single #
face $-1 $84 $85 $44 $-1 $86 reversed single #
face $-1 $87 $88 $45 $-1 $89 forward single #
face $-1 $90 $91 $46 $-1 $92 forward single #
face $-1 $93 $94 $47 $-1 $95 forward single #
face $-1 $96 $97 $36 $-1 $98 reversed single #
loop $-1 $-1 $99 $48 #
plane-surface $-1 0 0 11.222603909772133 0 0 1 1 0 0 forward_v I I I I #
face $-1 $100 $101 $37 $-1 $102 forward single #
loop $-1 $-1 $103 $49 #
plane-surface $-1 0 -40.867634535235602 0 0 1 0 0 0 1 forward_v I I I I #
face $-1 $104 $105 $38 $-1 $106 reversed single #
loop $-1 $-1 $107 $50 #
plane-surface $-1 -158.57998934824593 -24.608662818081989 100.22030341677196 0 1 0 -0.69465837861970381 0 0.71933979245794832 forward_v I I I I #
face $-1 $108 $109 $39 $-1 $110 forward single #
loop $-1 $111 $112 $51 #
cone-surface $-1 -62.640966085497759 -14.150842604158292 7.5952462139461989 0.69465837861970381 0 -0.71933979245794832 0.71933979245794832 0 0.69465837861970381 1 I I 0 1 1 forward I I I I #
face $-1 $113 $114 $40 $-1 $115 reversed single #
loop $-1 $-1 $116 $52 #
plane-surface $-1 95.736929575823339 -13.222776652621125 193.579385240242 0 -1 0 -0.80901700255871778 0 -0.5877852410284794 forward_v I I I I #
face $-1 $117 $118 $41 $-1 $119 forward single #
loop $-1 $120 $121 $53 #
cone-surface $-1 64.855782754488089 -23.00335349575391 9.4007312991477185 -0.80901700255871778 0 -0.5877852410284794 0.2938926205142397 0 -0.40450850127935889 1 I I 0 1 0.5 forward I I I I #
face $-1 $122 $123 $42 $-1 $124 forward single #
loop $-1 $125 $126 $54 #
cone-surface $-1 64.855782754488089 -19.335637179579116 9.4007312991477185 -0.80901700255871778 0 -0.5877852410284794 0.2938926205142397 0 -0.40450850127935889 1 I I 0 1 0.5 forward I I I I #
face $-1 $127 $128 $43 $-1 $129 forward single #
loop $-1 $130 $131 $55 #
cone-surface $-1 64.855782754488089 -15.667920863404323 9.4007312991477185 -0.80901700255871778 0 -0.5877852410284794 0.2938926205142397 0 -0.40450850127935889 1 I I 0 1 0.5 forward I I I I #
face $-1 $132 $133 $44 $-1 $134 reversed single #
loop $-1 $-1 $135 $56 #
plane-surface $-1 95.736929575823339 22.896943277561721 193.579385240242 0 -1 0 -0.80901700255871778 0 -0.5877852410284794 forward_v I I I I #
face $-1 $136 $137 $45 $-1 $138 forward single #
loop $-1 $139 $140 $57 #
cone-surface $-1 64.855782754488089 13.116366434428933 9.4007312991477185 -0.80901700255871778 0 -0.5877852410284794 0.2938926205142397 0 -0.40450850127935889 1 I I 0 1 0.5 forward I I I I #
face $-1 $141 $142 $46 $-1 $143 forward single #
loop $-1 $144 $145 $58 #
cone-surface $-1 64.855782754488089 16.78408275060373 9.4007312991477185 -0.80901700255871778 0 -0.5877852410284794 0.2938926205142397 0 -0.40450850127935889 1 I I 0 1 0.5 forward I I I I #
face $-1 $146 $147 $47 $-1 $148 forward single #
loop $-1 $149 $150 $59 #
cone-surface $-1 64.855782754488089 20.451799066778527 9.4007312991477185 -0.80901700255871778 0 -0.5877852410284794 0.2938926205142397 0 -0.40450850127935889 1 I I 0 1 0.5 forward I I I I #
face $-1 $151 $152 $36 $-1 $153 reversed single #
loop $-1 $-1 $154 $60 #
plane-surface $-1 0 0 -11.222603909772133 0 0 1 1 0 0 forward_v I I I I #
coedge $-1 $155 $156 $157 $158 forward $61 $-1 #
face $-1 $159 $160 $37 $-1 $161 reversed single #
loop $-1 $-1 $162 $63 #
plane-surface $-1 0 0 11.222603909772133 0 0 1 1 0 0 forward_v I I I I #
coedge $-1 $163 $164 $165 $166 forward $64 $-1 #
face $-1 $167 $168 $38 $-1 $169 reversed single #
loop $-1 $-1 $170 $66 #
plane-surface $-1 -66.370433668019658 -14.150842604158292 4.7345154565773839 -0.69465837861970381 0 0.71933979245794832 0.71933979245794832 0 0.69465837861970381 forward_v I I I I #
coedge $-1 $171 $172 $173 $174 reversed $67 $-1 #
face $-1 $-1 $175 $39 $-1 $176 forward single #
loop $-1 $177 $178 $69 #
cone-surface $-1 -61.923475373317657 -14.150842604158292 6.852262848488671 0.69465837861970381 0 -0.71933979245794832 0.35966989622897416 0 0.3473291893098519 1 I I -0.70710678118654746 0.70710678118654746 0.5 forward I I I I #
loop $-1 $-1 $179 $51 #
coedge $-1 $112 $112 $180 $181 reversed $70 $-1 #
face $-1 $182 $183 $40 $-1 $184 reversed single #
loop $-1 $-1 $185 $72 #
plane-surface $-1 -11.652689033423599 -19.335637179579116 115.55626253879873 0.80901700255871778 0 0.5877852410284794 0.5877852410284794 0 -0.80901700255871778 forward_v I I I I #
coedge $-1 $186 $187 $188 $189 reversed $73 $-1 #
face $-1 $-1 $190 $41 $-1 $191 forward single #
loop $-1 $192 $193 $75 #
cone-surface $-1 64.249020002569054 -23.00335349575391 8.9598923683763587 -0.80901700255871778 0 -0.5877852410284794 0.14694631025711985 0 -0.20225425063967944 1 I I -0.70710678118654746 0.70710678118654746 0.25 forward I I I I #
loop $-1 $-1 $194 $53 #
coedge $-1 $121 $121 $195 $196 reversed $76 $-1 #
face $-1 $-1 $197 $42 $-1 $198 forward single #
loop $-1 $199 $200 $78 #
cone-surface $-1 64.249020002569054 -19.335637179579116 8.9598923683763587 -0.80901700255871778 0 -0.5877852410284794 0.14694631025711985 0 -0.20225425063967944 1 I I -0.70710678118654746 0.70710678118654746 0.25 forward I I I I #
loop $-1 $-1 $201 $54 #
coedge $-1 $126 $126 $202 $203 reversed $79 $-1 #
face $-1 $-1 $204 $43 $-1 $205 forward single #
loop $-1 $206 $207 $81 #
cone-surface $-1 64.249020002569054 -15.667920863404323 8.9598923683763587 -0.80901700255871778 0 -0.5877852410284794 0.14694631025711985 0 -0.20225425063967944 1 I I -0.70710678118654746 0.70710678118654746 0.25 forward I I I I #
loop $-1 $-1 $208 $55 #
coedge $-1 $131 $131 $209 $210 reversed $82 $-1 #
face $-1 $211 $212 $44 $-1 $213 reversed single #
loop $-1 $-1 $214 $84 #
plane-surface $-1 -11.652689033423599 16.78408275060373 115.55626253879873 0.80901700255871778 0 0.5877852410284794 0.5877852410284794 0 -0.80901700255871778 forward_v I I I I #
coedge $-1 $215 $216 $217 $218 reversed $85 $-1 #
face $-1 $-1 $219 $45 $-1 $220 forward single #
loop $-1 $221 $222 $87 #
cone-surface $-1 64.249020002569054 13.116366434428933 8.9598923683763587 -0.80901700255871778 0 -0.5877852410284794 0.14694631025711985 0 -0.20225425063967944 1 I I -0.70710678118654746 0.70710678118654746 0.25 forward I I I I #
loop $-1 $-1 $223 $57 #
coedge $-1 $140 $140 $224 $225 reversed $88 $-1 #
face $-1 $-1 $226 $46 $-1 $227 forward single #
loop $-1 $228 $229 $90 #
cone-surface $-1 64.249020002569054 16.78408275060373 8.9598923683763587 -0.80901700255871778 0 -0.5877852410284794 0.14694631025711985 0 -0.20225425063967944 1 I I -0.70710678118654746 0.70710678118654746 0.25 forward I I I I #
loop $-1 $-1 $230 $58 #
coedge $-1 $145 $145 $231 $232 reversed $91 $-1 #
face $-1 $-1 $233 $47 $-1 $234 forward single #
loop $-1 $235 $236 $93 #
cone-surface $-1 64.249020002569054 20.451799066778527 8.9598923683763587 -0.80901700255871778 0 -0.5877852410284794 0.14694631025711985 0 -0.20225425063967944 1 I I -0.70710678118654746 0.70710678118654746 0.25 forward I I I I #
loop $-1 $-1 $237 $59 #
coedge $-1 $150 $150 $238 $239 reversed $94 $-1 #
face $-1 $240 $241 $36 $-1 $242 reversed single #
loop $-1 $-1 $243 $96 #
plane-surface $-1 0 -40.867634535235602 0 0 1 0 0 0 1 forward_v I I I I #
coedge $-1 $244 $245 $246 $247 forward $97 $-1 #
coedge $-1 $248 $99 $249 $250 forward $61 $-1 #
coedge $-1 $99 $248 $251 $252 forward $61 $-1 #
coedge $-1 $253 $254 $99 $158 reversed $255 $-1 #
edge $-1 $256 -40.867634535235602 $257 40.867634535235602 $157 $258 forward 7 unknown #
face $-1 $259 $260 $37 $-1 $261 reversed single #
loop $-1 $-1 $262 $100 #
plane-surface $-1 -66.370433668019658 0 0 1 0 0 0 0 -1 forward_v I I I I #
coedge $-1 $263 $264 $265 $266 forward $101 $-1 #
coedge $-1 $265 $103 $262 $267 reversed $64 $-1 #
coedge $-1 $103 $265 $268 $269 reversed $64 $-1 #
coedge $-1 $270 $271 $103 $166 reversed $260 $-1 #
edge $-1 $272 -66.370433668019658 $273 66.370433668019658 $165 $274 forward 7 unknown #
face $-1 $275 $276 $38 $-1 $277 forward single #
loop $-1 $-1 $278 $104 #
plane-surface $-1 -158.57998934824593 -3.6930223902345958 100.22030341677196 0 -1 0 0.69465837861970381 0 -0.71933979245794832 forward_v I I I I #
coedge $-1 $279 $280 $281 $282 reversed $105 $-1 #
coedge $-1 $172 $107 $283 $284 reversed $67 $-1 #
coedge $-1 $107 $171 $279 $285 reversed $67 $-1 #
coedge $-1 $281 $286 $107 $174 forward $276 $-1 #
edge $-1 $287 12.919561006103308 $288 19.63817312540661 $173 $289 forward 7 unknown #
loop $-1 $-1 $180 $108 #
plane-surface $-1 -66.370433668019658 -14.150842604158292 4.7345154565773839 -0.69465837861970381 0 0.71933979245794832 0.71933979245794832 0 0.69465837861970381 forward_v I I I I #
loop $-1 $-1 $290 $69 #
coedge $-1 $178 $178 $179 $291 reversed $109 $-1 #
coedge $-1 $179 $179 $178 $291 forward $111 $-1 #
coedge $-1 $180 $180 $112 $181 forward $175 $-1 #
edge $-1 $292 0 $292 6.2831853071796004 $180 $293 forward 7 unknown #
face $-1 $294 $295 $40 $-1 $296 reversed single #
loop $-1 $-1 $297 $113 #
plane-surface $-1 95.736929575823339 -25.448497706537108 193.579385240242 0 1 0 0.80901700255871778 0 0.5877852410284794 forward_v I I I I #
coedge $-1 $298 $299 $300 $301 reversed $114 $-1 #
coedge $-1 $187 $116 $302 $303 reversed $73 $-1 #
coedge $-1 $116 $186 $298 $304 reversed $73 $-1 #
coedge $-1 $300 $305 $116 $189 forward $306 $-1 #
edge $-1 $307 -18.501968880107988 $308 -16.281684055603556 $188 $309 forward 7 unknown #
loop $-1 $-1 $195 $117 #
plane-surface $-1 -11.652689033423599 -19.335637179579116 115.55626253879873 0.80901700255871778 0 0.5877852410284794 0.5877852410284794 0 -0.80901700255871778 forward_v I I I I #
loop $-1 $-1 $310 $75 #
coedge $-1 $193 $193 $194 $311 reversed $118 $-1 #
coedge $-1 $194 $194 $193 $311 forward $120 $-1 #
coedge $-1 $195 $195 $121 $196 forward $190 $-1 #
edge $-1 $312 0 $312 6.2831853071796004 $195 $313 forward 7 unknown #
loop $-1 $-1 $202 $122 #
plane-surface $-1 -11.652689033423599 -19.335637179579116 115.55626253879873 0.80901700255871778 0 0.5877852410284794 0.5877852410284794 0 -0.80901700255871778 forward_v I I I I #
loop $-1 $-1 $314 $78 #
coedge $-1 $200 $200 $201 $315 reversed $123 $-1 #
coedge $-1 $201 $201 $200 $315 forward $125 $-1 #
coedge $-1 $202 $202 $126 $203 forward $197 $-1 #
edge $-1 $316 0 $316 6.2831853071796004 $202 $317 forward 7 unknown #
loop $-1 $-1 $209 $127 #
plane-surface $-1 -11.652689033423599 -19.335637179579116 115.55626253879873 0.80901700255871778 0 0.5877852410284794 0.5877852410284794 0 -0.80901700255871778 forward_v I I I I #
loop $-1 $-1 $318 $81 #
coedge $-1 $207 $207 $208 $319 reversed $128 $-1 #
coedge $-1 $208 $208 $207 $319 forward $130 $-1 #
coedge $-1 $209 $209 $131 $210 forward $204 $-1 #
edge $-1 $320 0 $320 6.2831853071796004 $209 $321 forward 7 unknown #
face $-1 $322 $323 $44 $-1 $324 reversed single #
loop $-1 $-1 $325 $132 #
plane-surface $-1 95.736929575823339 10.671222223645739 193.579385240242 0 1 0 0.80901700255871778 0 0.5877852410284794 forward_v I I I I #
coedge $-1 $326 $327 $328 $329 reversed $133 $-1 #
coedge $-1 $216 $135 $330 $331 reversed $85 $-1 #
coedge $-1 $135 $215 $326 $332 reversed $85 $-1 #
coedge $-1 $328 $333 $135 $218 forward $334 $-1 #
edge $-1 $335 -18.501968880107988 $336 -16.281684055603556 $217 $337 forward 7 unknown #
loop $-1 $-1 $224 $136 #
plane-surface $-1 -11.652689033423599 16.78408275060373 115.55626253879873 0.80901700255871778 0 0.5877852410284794 0.5877852410284794 0 -0.80901700255871778 forward_v I I I I #
loop $-1 $-1 $338 $87 #
coedge $-1 $222 $222 $223 $339 reversed $137 $-1 #
coedge $-1 $223 $223 $222 $339 forward $139 $-1 #
coedge $-1 $224 $224 $140 $225 forward $219 $-1 #
edge $-1 $340 0 $340 6.2831853071796004 $224 $341 forward 7 unknown #
loop $-1 $-1 $231 $141 #
plane-surface $-1 -11.652689033423599 16.78408275060373 115.55626253879873 0.80901700255871778 0 0.5877852410284794 0.5877852410284794 0 -0.80901700255871778 forward_v I I I I #
loop $-1 $-1 $342 $90 #
coedge $-1 $229 $229 $230 $343 reversed $142 $-1 #
coedge $-1 $230 $230 $229 $343 forward $144 $-1 #
coedge $-1 $231 $231 $145 $232 forward $226 $-1 #
edge $-1 $344 0 $344 6.2831853071796004 $231 $345 forward 7 unknown #
loop $-1 $-1 $238 $146 #
plane-surface $-1 -11.652689033423599 16.78408275060373 115.55626253879873 0.80901700255871778 0 0.5877852410284794 0.5877852410284794 0 -0.80901700255871778 forward_v I I I I #
loop $-1 $-1 $346 $93 #
coedge $-1 $236 $236 $237 $347 reversed $147 $-1 #
coedge $-1 $237 $237 $236 $347 forward $149 $-1 #
coedge $-1 $238 $238 $150 $239 forward $233 $-1 #
edge $-1 $348 0 $348 6.2831853071796004 $238 $349 forward 7 unknown #
face $-1 $350 $351 $36 $-1 $352 reversed single #
loop $-1 $-1 $353 $151 #
plane-surface $-1 -66.370433668019658 0 0 1 0 0 0 0 -1 forward_v I I I I #
coedge $-1 $354 $251 $355 $356 forward $152 $-1 #
coedge $-1 $357 $154 $354 $358 forward $97 $-1 #
coedge $-1 $154 $357 $359 $360 forward $97 $-1 #
coedge $-1 $254 $253 $154 $247 reversed $255 $-1 #
edge $-1 $361 -40.867634535235602 $362 40.867634535235602 $246 $363 forward 7 unknown #
coedge $-1 $156 $155 $364 $365 forward $61 $-1 #
coedge $-1 $366 $367 $155 $250 reversed $351 $-1 #
edge $-1 $257 -66.370433668019658 $368 66.370433668019658 $249 $369 forward 7 unknown #
coedge $-1 $243 $370 $156 $252 reversed $152 $-1 #
edge $-1 $371 -66.370433668019658 $256 66.370433668019658 $251 $372 forward 7 unknown #
coedge $-1 $246 $157 $370 $373 forward $255 $-1 #
coedge $-1 $157 $246 $366 $374 reversed $255 $-1 #
loop $-1 $-1 $253 $350 #
vertex $-1 $158 $375 #
vertex $-1 $158 $376 #
straight-curve $-1 66.370433668019658 0 11.222603909772133 0 1 0 I I #
face $-1 $377 $378 $37 $-1 $379 reversed single #
loop $-1 $-1 $270 $159 #
plane-surface $-1 0 -45.615549140288358 4.766875246931626 0 0 1 1 0 0 forward_v I I I I #
coedge $-1 $380 $381 $163 $267 forward $160 $-1 #
coedge $-1 $382 $162 $381 $383 forward $101 $-1 #
coedge $-1 $162 $382 $384 $385 forward $101 $-1 #
coedge $-1 $164 $163 $162 $266 reversed $64 $-1 #
edge $-1 $386 -66.370433668019658 $387 66.370433668019658 $162 $388 forward 7 unknown #
edge $-1 $387 -11.222603909772133 $273 -4.766875246931626 $262 $389 forward 7 unknown #
coedge $-1 $384 $390 $164 $269 forward $391 $-1 #
edge $-1 $272 4.766875246931626 $386 11.222603909772133 $268 $392 forward 7 unknown #
coedge $-1 $393 $165 $390 $394 forward $260 $-1 #
coedge $-1 $165 $393 $380 $395 forward $260 $-1 #
vertex $-1 $269 $396 #
vertex $-1 $267 $397 #
straight-curve $-1 0 -40.867634535235602 4.766875246931626 -1 0 0 I I #
face $-1 $-1 $398 $38 $-1 $399 reversed single #
loop $-1 $-1 $173 $167 #
plane-surface $-1 0 0 11.222603909772133 0 0 1 1 0 0 forward_v I I I I #
coedge $-1 $400 $401 $402 $403 reversed $168 $-1 #
coedge $-1 $404 $170 $172 $285 forward $105 $-1 #
coedge $-1 $170 $404 $400 $405 forward $105 $-1 #
coedge $-1 $402 $173 $170 $282 forward $276 $-1 #
edge $-1 $288 -17.533241516002843 $406 3.3823989118445503 $281 $407 forward 7 unknown #
coedge $-1 $408 $409 $171 $284 forward $398 $-1 #
edge $-1 $410 -45.375636251808594 $287 -38.887547798613845 $283 $411 forward 7 unknown #
edge $-1 $288 -9.3399700527425793 $410 0 $172 $412 forward 7 unknown #
coedge $-1 $173 $402 $408 $413 forward $276 $-1 #
vertex $-1 $284 $414 #
vertex $-1 $174 $415 #
straight-curve $-1 -79.289994674122966 -24.608662818081989 11.222603909772133 1 0 0 I I #
coedge $-1 $290 $290 $-1 $416 reversed $177 $-1 #
edge $-1 $417 0 $417 6.2831853071796004 $178 $418 forward 7 unknown #
vertex $-1 $181 $419 #
ellipse-curve $-1 -63.011127608368007 -14.150842604158292 7.9785596831747574 -0.69465837861970381 0 0.71933979245794832 0.71933979245794832 0 0.69465837861970381 1 I I #
face $-1 $-1 $306 $40 $-1 $420 forward single #
loop $-1 $-1 $421 $182 #
plane-surface $-1 66.370433668019658 0 0 -1 0 0 0 0 1 forward_v I I I I #
coedge $-1 $422 $423 $424 $425 reversed $183 $-1 #
coedge $-1 $426 $185 $187 $304 forward $114 $-1 #
coedge $-1 $185 $426 $422 $427 forward $114 $-1 #
coedge $-1 $424 $188 $185 $301 forward $306 $-1 #
edge $-1 $308 3.5549580628315667 $428 15.78067911674755 $300 $429 forward 7 unknown #
coedge $-1 $430 $431 $186 $303 forward $295 $-1 #
edge $-1 $432 -88.623048690569178 $307 -85.56708871034887 $302 $433 forward 7 unknown #
edge $-1 $308 128.96349310217883 $432 132.74086733603929 $187 $434 forward 7 unknown #
coedge $-1 $188 $424 $430 $435 forward $306 $-1 #
loop $-1 $-1 $424 $294 #
vertex $-1 $303 $436 #
vertex $-1 $189 $437 #
straight-curve $-1 47.86846478791167 -13.222776652621125 11.222603909772133 -1 0 0 I I #
coedge $-1 $310 $310 $-1 $438 reversed $192 $-1 #
edge $-1 $439 0 $439 6.2831853071796004 $193 $440 forward 7 unknown #
vertex $-1 $196 $441 #
ellipse-curve $-1 65.260291255767456 -23.00335349575391 9.6946239196619626 0.80901700255871778 0 0.5877852410284794 0.2938926205142397 0 -0.40450850127935889 1 I I #
coedge $-1 $314 $314 $-1 $442 reversed $199 $-1 #
edge $-1 $443 0 $443 6.2831853071796004 $200 $444 forward 7 unknown #
vertex $-1 $203 $445 #
ellipse-curve $-1 65.260291255767456 -19.335637179579116 9.6946239196619626 0.80901700255871778 0 0.5877852410284794 0.2938926205142397 0 -0.40450850127935889 1 I I #
coedge $-1 $318 $318 $-1 $446 reversed $206 $-1 #
edge $-1 $447 0 $447 6.2831853071796004 $207 $448 forward 7 unknown #
vertex $-1 $210 $449 #
ellipse-curve $-1 65.260291255767456 -15.667920863404323 9.6946239196619626 0.80901700255871778 0 0.5877852410284794 0.2938926205142397 0 -0.40450850127935889 1 I I #
face $-1 $-1 $334 $44 $-1 $450 forward single #
loop $-1 $-1 $451 $211 #
plane-surface $-1 66.370433668019658 0 0 -1 0 0 0 0 1 forward_v I I I I #
coedge $-1 $452 $453 $454 $455 reversed $212 $-1 #
coedge $-1 $456 $214 $216 $332 forward $133 $-1 #
coedge $-1 $214 $456 $452 $457 forward $133 $-1 #
coedge $-1 $454 $217 $214 $329 forward $334 $-1 #
edge $-1 $336 -14.504901902259856 $458 -2.2791808483438736 $328 $459 forward 7 unknown #
coedge $-1 $460 $461 $215 $331 forward $323 $-1 #
edge $-1 $462 -88.623048690569178 $335 -85.56708871034887 $330 $463 forward 7 unknown #
edge $-1 $336 128.96349310217883 $462 132.74086733603929 $216 $464 forward 7 unknown #
coedge $-1 $217 $454 $460 $465 forward $334 $-1 #
loop $-1 $-1 $454 $322 #
vertex $-1 $331 $466 #
vertex $-1 $218 $467 #
straight-curve $-1 47.86846478791167 22.896943277561721 11.222603909772133 -1 0 0 I I #
coedge $-1 $338 $338 $-1 $468 reversed $221 $-1 #
edge $-1 $469 0 $469 6.2831853071796004 $222 $470 forward 7 unknown #
vertex $-1 $225 $471 #
ellipse-curve $-1 65.260291255767456 13.116366434428933 9.6946239196619626 0.80901700255871778 0 0.5877852410284794 0.2938926205142397 0 -0.40450850127935889 1 I I #
coedge $-1 $342 $342 $-1 $472 reversed $228 $-1 #
edge $-1 $473 0 $473 6.2831853071796004 $229 $474 forward 7 unknown #
vertex $-1 $232 $475 #
ellipse-curve $-1 65.260291255767456 16.78408275060373 9.6946239196619626 0.80901700255871778 0 0.5877852410284794 0.2938926205142397 0 -0.40450850127935889 1 I I #
coedge $-1 $346 $346 $-1 $476 reversed $235 $-1 #
edge $-1 $477 0 $477 6.2831853071796004 $236 $478 forward 7 unknown #
vertex $-1 $239 $479 #
ellipse-curve $-1 65.260291255767456 20.451799066778527 9.6946239196619626 0.80901700255871778 0 0.5877852410284794 0.2938926205142397 0 -0.40450850127935889 1 I I #
face $-1 $-1 $255 $36 $-1 $480 reversed single #
loop $-1 $-1 $366 $240 #
plane-surface $-1 0 40.867634535235602 0 0 -1 0 0 0 -1 forward_v I I I I #
coedge $-1 $481 $364 $367 $482 forward $241 $-1 #
coedge $-1 $370 $243 $244 $358 reversed $152 $-1 #
coedge $-1 $364 $481 $243 $356 reversed $241 $-1 #
edge $-1 $371 -11.222603909772133 $483 11.222603909772133 $355 $484 forward 7 unknown #
coedge $-1 $245 $244 $481 $485 forward $97 $-1 #
edge $-1 $362 -66.370433668019658 $483 66.370433668019658 $354 $486 forward 7 unknown #
coedge $-1 $367 $366 $245 $360 reversed $351 $-1 #
edge $-1 $487 -66.370433668019658 $361 66.370433668019658 $359 $488 forward 7 unknown #
vertex $-1 $247 $489 #
vertex $-1 $373 $490 #
straight-curve $-1 66.370433668019658 0 -11.222603909772133 0 -1 0 I I #
coedge $-1 $353 $355 $248 $365 reversed $241 $-1 #
edge $-1 $368 -40.867634535235602 $371 40.867634535235602 $364 $491 forward 7 unknown #
coedge $-1 $359 $249 $254 $374 forward $351 $-1 #
coedge $-1 $249 $359 $353 $482 reversed $351 $-1 #
vertex $-1 $250 $492 #
straight-curve $-1 0 40.867634535235602 11.222603909772133 -1 0 0 I I #
coedge $-1 $251 $354 $253 $373 reversed $152 $-1 #
vertex $-1 $365 $493 #
straight-curve $-1 0 -40.867634535235602 11.222603909772133 1 0 0 I I #
edge $-1 $256 -11.222603909772133 $362 11.222603909772133 $253 $494 forward 7 unknown #
edge $-1 $257 -11.222603909772133 $361 11.222603909772133 $254 $495 forward 7 unknown #
point $-1 66.370433668019658 -40.867634535235602 11.222603909772133 #
point $-1 66.370433668019658 40.867634535235602 11.222603909772133 #
face $-1 $-1 $391 $37 $-1 $496 reversed single #
loop $-1 $-1 $497 $259 #
plane-surface $-1 0 -50.363463745341114 7.9947395783518793 0 1 0 0 0 1 forward_v I I I I #
coedge $-1 $498 $262 $271 $395 reversed $160 $-1 #
coedge $-1 $262 $498 $263 $383 reversed $160 $-1 #
coedge $-1 $264 $263 $499 $500 forward $101 $-1 #
edge $-1 $387 40.867634535235602 $501 50.363463745341114 $381 $502 forward 7 unknown #
coedge $-1 $503 $268 $264 $385 reversed $391 $-1 #
edge $-1 $504 -50.363463745341114 $386 -40.867634535235602 $384 $505 forward 7 unknown #
vertex $-1 $269 $506 #
vertex $-1 $383 $507 #
straight-curve $-1 0 -40.867634535235602 11.222603909772133 -1 0 0 I I #
straight-curve $-1 -66.370433668019658 -40.867634535235602 0 0 0 -1 I I #
coedge $-1 $268 $503 $270 $394 reversed $391 $-1 #
loop $-1 $-1 $268 $377 #
straight-curve $-1 66.370433668019658 -40.867634535235602 0 0 0 1 I I #
coedge $-1 $271 $270 $508 $509 forward $260 $-1 #
edge $-1 $272 -4.7479146050527561 $510 4.7479146050527561 $390 $511 forward 7 unknown #
edge $-1 $512 -4.7479146050527561 $273 4.7479146050527561 $380 $513 forward 7 unknown #
point $-1 66.370433668019658 -40.867634535235602 4.766875246931626 #
point $-1 -66.370433668019658 -40.867634535235602 4.766875246931626 #
loop $-1 $-1 $283 $275 #
plane-surface $-1 -66.370433668019658 0 0 1 0 0 0 0 -1 forward_v I I I I #
coedge $-1 $401 $278 $280 $405 reversed $168 $-1 #
coedge $-1 $278 $400 $514 $515 reversed $168 $-1 #
coedge $-1 $286 $281 $278 $403 forward $276 $-1 #
edge $-1 $406 -19.63817312540661 $516 -12.919561006103308 $402 $517 forward 7 unknown #
coedge $-1 $280 $279 $409 $518 reversed $105 $-1 #
edge $-1 $519 0 $406 9.3399700527425793 $400 $520 forward 7 unknown #
vertex $-1 $282 $521 #
straight-curve $-1 -59.651821548716356 -7.0754213020791461 11.222603909772133 0 1 0 I I #
coedge $-1 $514 $283 $286 $413 reversed $398 $-1 #
coedge $-1 $283 $514 $404 $518 forward $398 $-1 #
vertex $-1 $284 $522 #
straight-curve $-1 -66.370433668019658 -24.608662818081989 50.110151708385978 0 0 1 I I #
straight-curve $-1 -66.370433668019658 -24.608662818081989 4.7345154565773839 -0.71933979245794832 0 -0.69465837861970381 I I #
edge $-1 $516 3.6930223902345958 $287 24.608662818081989 $408 $523 forward 7 unknown #
point $-1 -66.370433668019658 -24.608662818081989 11.222603909772133 #
point $-1 -59.651821548716356 -24.608662818081989 11.222603909772133 #
edge $-1 $524 1 $524 0 $290 $-1 forward 7 unknown #
vertex $-1 $291 $525 #
ellipse-curve $-1 -62.270804562627511 -14.150842604158292 7.2119327447176449 -0.69465837861970381 0 0.71933979245794832 0.71933979245794832 0 0.69465837861970381 1 I I #
point $-1 -62.291787815910055 -14.150842604158292 8.6732180617944561 #
plane-surface $-1 0 0 11.222603909772133 0 0 1 1 0 0 forward_v I I I I #
coedge $-1 $431 $430 $423 $526 forward $295 $-1 #
coedge $-1 $423 $297 $299 $427 reversed $183 $-1 #
coedge $-1 $297 $422 $421 $526 reversed $183 $-1 #
coedge $-1 $305 $300 $297 $425 forward $306 $-1 #
edge $-1 $428 16.281684055603556 $527 18.501968880107988 $424 $528 forward 7 unknown #
coedge $-1 $299 $298 $431 $529 reversed $114 $-1 #
edge $-1 $530 -132.74086733603929 $428 -128.96349310217883 $422 $531 forward 7 unknown #
vertex $-1 $301 $532 #
straight-curve $-1 64.150148843515225 -9.6678185897895581 11.222603909772133 0 -1 0 I I #
coedge $-1 $421 $302 $305 $435 reversed $295 $-1 #
coedge $-1 $302 $421 $426 $529 forward $295 $-1 #
vertex $-1 $303 $533 #
straight-curve $-1 66.370433668019658 -13.222776652621125 96.789692620121002 0 0 1 I I #
straight-curve $-1 -11.652689033423599 -13.222776652621125 115.55626253879873 0.5877852410284794 0 -0.80901700255871778 I I #
edge $-1 $527 -25.448497706537108 $307 -13.222776652621125 $430 $534 forward 7 unknown #
point $-1 66.370433668019658 -13.222776652621125 11.222603909772133 #
point $-1 64.150148843515225 -13.222776652621125 11.222603909772147 #
edge $-1 $535 1 $535 0 $310 $-1 forward 7 unknown #
vertex $-1 $311 $536 #
ellipse-curve $-1 64.451274253208737 -23.00335349575391 9.1068386786334781 0.80901700255871778 0 0.5877852410284794 0.2938926205142397 0 -0.40450850127935889 1 I I #
point $-1 65.554183876281684 -23.00335349575391 9.2901154183825998 #
edge $-1 $537 1 $537 0 $314 $-1 forward 7 unknown #
vertex $-1 $315 $538 #
ellipse-curve $-1 64.451274253208737 -19.335637179579116 9.1068386786334781 0.80901700255871778 0 0.5877852410284794 0.2938926205142397 0 -0.40450850127935889 1 I I #
point $-1 65.554183876281684 -19.335637179579116 9.2901154183825998 #
edge $-1 $539 1 $539 0 $318 $-1 forward 7 unknown #
vertex $-1 $319 $540 #
ellipse-curve $-1 64.451274253208737 -15.667920863404323 9.1068386786334781 0.80901700255871778 0 0.5877852410284794 0.2938926205142397 0 -0.40450850127935889 1 I I #
point $-1 65.554183876281684 -15.667920863404323 9.2901154183825998 #
plane-surface $-1 0 0 11.222603909772133 0 0 1 1 0 0 forward_v I I I I #
coedge $-1 $461 $460 $453 $541 forward $323 $-1 #
coedge $-1 $453 $325 $327 $457 reversed $212 $-1 #
coedge $-1 $325 $452 $451 $541 reversed $212 $-1 #
coedge $-1 $333 $328 $325 $455 forward $334 $-1 #
edge $-1 $458 16.281684055603556 $542 18.501968880107988 $454 $543 forward 7 unknown #
coedge $-1 $327 $326 $461 $544 reversed $133 $-1 #
edge $-1 $545 -132.74086733603929 $458 -128.96349310217883 $452 $546 forward 7 unknown #
vertex $-1 $329 $547 #
straight-curve $-1 64.150148843515225 8.392041375301865 11.222603909772133 0 -1 0 I I #
coedge $-1 $451 $330 $333 $465 reversed $323 $-1 #
coedge $-1 $330 $451 $456 $544 forward $323 $-1 #
vertex $-1 $331 $548 #
straight-curve $-1 66.370433668019658 22.896943277561721 96.789692620121002 0 0 1 I I #
straight-curve $-1 -11.652689033423599 22.896943277561721 115.55626253879873 0.5877852410284794 0 -0.80901700255871778 I I #
edge $-1 $542 10.671222223645739 $335 22.896943277561721 $460 $549 forward 7 unknown #
point $-1 66.370433668019658 22.896943277561721 11.222603909772133 #
point $-1 64.150148843515225 22.896943277561721 11.222603909772147 #
edge $-1 $550 1 $550 0 $338 $-1 forward 7 unknown #
vertex $-1 $339 $551 #
ellipse-curve $-1 64.451274253208737 13.116366434428933 9.1068386786334781 0.80901700255871778 0 0.5877852410284794 0.2938926205142397 0 -0.40450850127935889 1 I I #
point $-1 65.554183876281684 13.116366434428933 9.2901154183825998 #
edge $-1 $552 1 $552 0 $342 $-1 forward 7 unknown #
vertex $-1 $343 $553 #
ellipse-curve $-1 64.451274253208737 16.78408275060373 9.1068386786334781 0.80901700255871778 0 0.5877852410284794 0.2938926205142397 0 -0.40450850127935889 1 I I #
point $-1 65.554183876281684 16.78408275060373 9.2901154183825998 #
edge $-1 $554 1 $554 0 $346 $-1 forward 7 unknown #
vertex $-1 $347 $555 #
ellipse-curve $-1 64.451274253208737 20.451799066778527 9.1068386786334781 0.80901700255871778 0 0.5877852410284794 0.2938926205142397 0 -0.40450850127935889 1 I I #
point $-1 65.554183876281684 20.451799066778527 9.2901154183825998 #
plane-surface $-1 66.370433668019658 0 0 -1 0 0 0 0 1 forward_v I I I I #
coedge $-1 $355 $353 $357 $485 reversed $241 $-1 #
edge $-1 $368 -11.222603909772133 $487 11.222603909772133 $367 $556 forward 7 unknown #
vertex $-1 $485 $557 #
straight-curve $-1 -66.370433668019658 -40.867634535235602 0 0 0 -1 I I #
edge $-1 $483 -40.867634535235602 $487 40.867634535235602 $481 $558 forward 7 unknown #
straight-curve $-1 0 -40.867634535235602 -11.222603909772133 -1 0 0 I I #
vertex $-1 $360 $559 #
straight-curve $-1 0 40.867634535235602 -11.222603909772133 1 0 0 I I #
point $-1 66.370433668019658 40.867634535235602 -11.222603909772133 #
point $-1 66.370433668019658 -40.867634535235602 -11.222603909772133 #
straight-curve $-1 -66.370433668019658 0 11.222603909772133 0 -1 0 I I #
point $-1 -66.370433668019658 40.867634535235602 11.222603909772133 #
point $-1 -66.370433668019658 -40.867634535235602 11.222603909772133 #
straight-curve $-1 66.370433668019658 -40.867634535235602 0 0 0 -1 I I #
straight-curve $-1 66.370433668019658 40.867634535235602 0 0 0 -1 I I #
plane-surface $-1 66.370433668019658 0 0 -1 0 0 0 0 1 forward_v I I I I #
coedge $-1 $508 $499 $498 $560 forward $378 $-1 #
coedge $-1 $381 $380 $497 $560 reversed $160 $-1 #
coedge $-1 $497 $561 $382 $500 reversed $378 $-1 #
edge $-1 $501 -66.370433668019658 $504 66.370433668019658 $499 $562 forward 7 unknown #
vertex $-1 $383 $563 #
straight-curve $-1 -66.370433668019658 0 11.222603909772133 0 -1 0 I I #
coedge $-1 $390 $384 $561 $564 forward $391 $-1 #
vertex $-1 $385 $565 #
straight-curve $-1 66.370433668019658 0 11.222603909772133 0 1 0 I I #
point $-1 66.370433668019658 -40.867634535235602 11.222603909772133 #
point $-1 -66.370433668019658 -40.867634535235602 11.222603909772133 #
coedge $-1 $561 $497 $393 $509 reversed $378 $-1 #
edge $-1 $510 -66.370433668019658 $512 66.370433668019658 $508 $566 forward 7 unknown #
vertex $-1 $564 $567 #
straight-curve $-1 66.370433668019658 -45.615549140288358 4.766875246931626 0 -1 0 I I #
vertex $-1 $395 $568 #
straight-curve $-1 -66.370433668019658 -45.615549140288358 4.766875246931626 0 1 0 I I #
coedge $-1 $409 $408 $401 $515 forward $398 $-1 #
edge $-1 $516 38.887547798613845 $519 45.375636251808594 $514 $569 forward 7 unknown #
vertex $-1 $413 $570 #
straight-curve $-1 -79.289994674122966 -3.6930223902345958 11.222603909772133 -1 0 0 I I #
edge $-1 $519 -3.3823989118445503 $410 17.533241516002843 $409 $571 forward 7 unknown #
vertex $-1 $518 $572 #
straight-curve $-1 -66.370433668019658 -3.6930223902345958 4.7345154565773839 0.71933979245794832 0 0.69465837861970381 I I #
point $-1 -59.651821548716356 -3.6930223902345958 11.222603909772133 #
point $-1 -66.370433668019658 -24.608662818081989 4.7345154565773839 #
straight-curve $-1 -66.370433668019658 0 11.222603909772133 0 -1 0 I I #
vertex $-1 $416 $573 #
point $-1 -61.551464770169559 -14.150842604158292 7.9065911233373489 #
edge $-1 $527 85.56708871034887 $530 88.623048690569178 $421 $574 forward 7 unknown #
vertex $-1 $435 $575 #
straight-curve $-1 47.86846478791167 -25.448497706537108 11.222603909772133 1 0 0 I I #
edge $-1 $530 -15.78067911674755 $432 -3.5549580628315667 $431 $576 forward 7 unknown #
vertex $-1 $529 $577 #
straight-curve $-1 -11.652689033423599 -25.448497706537108 115.55626253879873 -0.5877852410284794 0 0.80901700255871778 I I #
point $-1 64.150148843515225 -25.448497706537108 11.222603909772147 #
point $-1 66.370433668019658 -13.222776652621125 8.1666439295518245 #
straight-curve $-1 66.370433668019658 0 11.222603909772133 0 1 0 I I #
vertex $-1 $438 $578 #
point $-1 64.74516687372298 -23.00335349575391 8.7023301773541188 #
vertex $-1 $442 $579 #
point $-1 64.74516687372298 -19.335637179579116 8.7023301773541188 #
vertex $-1 $446 $580 #
point $-1 64.74516687372298 -15.667920863404323 8.7023301773541188 #
edge $-1 $542 85.56708871034887 $545 88.623048690569178 $451 $581 forward 7 unknown #
vertex $-1 $465 $582 #
straight-curve $-1 47.86846478791167 10.671222223645739 11.222603909772133 1 0 0 I I #
edge $-1 $545 2.2791808483438736 $462 14.504901902259856 $461 $583 forward 7 unknown #
vertex $-1 $544 $584 #
straight-curve $-1 -11.652689033423599 10.671222223645739 115.55626253879873 -0.5877852410284794 0 0.80901700255871778 I I #
point $-1 64.150148843515225 10.671222223645739 11.222603909772147 #
point $-1 66.370433668019658 22.896943277561721 8.1666439295518245 #
straight-curve $-1 66.370433668019658 0 11.222603909772133 0 1 0 I I #
vertex $-1 $468 $585 #
point $-1 64.74516687372298 13.116366434428933 8.7023301773541188 #
vertex $-1 $472 $586 #
point $-1 64.74516687372298 16.78408275060373 8.7023301773541188 #
vertex $-1 $476 $587 #
point $-1 64.74516687372298 20.451799066778527 8.7023301773541188 #
straight-curve $-1 -66.370433668019658 40.867634535235602 0 0 0 -1 I I #
point $-1 -66.370433668019658 -40.867634535235602 -11.222603909772133 #
straight-curve $-1 -66.370433668019658 0 -11.222603909772133 0 1 0 I I #
point $-1 -66.370433668019658 40.867634535235602 -11.222603909772133 #
edge $-1 $501 -3.2278643314202533 $512 3.2278643314202533 $498 $588 forward 7 unknown #
coedge $-1 $499 $508 $503 $564 reversed $378 $-1 #
straight-curve $-1 0 -50.363463745341114 11.222603909772133 1 0 0 I I #
point $-1 -66.370433668019658 -50.363463745341114 11.222603909772133 #
edge $-1 $504 -3.2278643314202533 $510 3.2278643314202533 $503 $589 forward 7 unknown #
point $-1 66.370433668019658 -50.363463745341114 11.222603909772133 #
straight-curve $-1 0 -50.363463745341114 4.766875246931626 -1 0 0 I I #
point $-1 66.370433668019658 -50.363463745341114 4.766875246931626 #
point $-1 -66.370433668019658 -50.363463745341114 4.766875246931626 #
straight-curve $-1 -66.370433668019658 -3.6930223902345958 50.110151708385978 0 0 -1 I I #
point $-1 -66.370433668019658 -3.6930223902345958 11.222603909772133 #
straight-curve $-1 -66.370433668019658 -7.0754213020791461 4.7345154565773839 0 -1 0 I I #
point $-1 -66.370433668019658 -3.6930223902345958 4.7345154565773839 #
point $-1 -61.576146184007804 -14.150842604158292 6.492592952259697 #
straight-curve $-1 66.370433668019658 -25.448497706537108 96.789692620121002 0 0 -1 I I #
point $-1 66.370433668019658 -25.448497706537108 11.222603909772133 #
straight-curve $-1 66.370433668019658 -9.6678185897895581 8.1666439295518245 0 1 0 I I #
point $-1 66.370433668019658 -25.448497706537108 8.1666439295518245 #
point $-1 64.046765751929371 -23.00335349575391 8.8129460581192394 #
point $-1 64.046765751929371 -19.335637179579116 8.8129460581192394 #
point $-1 64.046765751929371 -15.667920863404323 8.8129460581192394 #
straight-curve $-1 66.370433668019658 10.671222223645739 96.789692620121002 0 0 -1 I I #
point $-1 66.370433668019658 10.671222223645739 11.222603909772133 #
straight-curve $-1 66.370433668019658 8.392041375301865 8.1666439295518245 0 1 0 I I #
point $-1 66.370433668019658 10.671222223645739 8.1666439295518245 #
point $-1 64.046765751929371 13.116366434428933 8.8129460581192394 #
point $-1 64.046765751929371 16.78408275060373 8.8129460581192394 #
point $-1 64.046765751929371 20.451799066778527 8.8129460581192394 #
straight-curve $-1 -66.370433668019658 -50.363463745341114 7.9947395783518793 0 0 -1 I I #
straight-curve $-1 66.370433668019658 -50.363463745341114 7.9947395783518793 0 0 -1 I I #
End-of-ACIS-data 