500 0 10 0           
7 Unknown 11 ACIS 5.0 NT 24 Fri Mar 26 03:26:16 1999 
-1 9.9999999999999995e-007 1e-010 
body $-1 $10 $-1 $11 #
body $-1 $12 $-1 $13 #
body $-1 $14 $-1 $15 #
body $-1 $16 $-1 $17 #
body $-1 $18 $-1 $19 #
body $-1 $20 $-1 $21 #
body $-1 $22 $-1 $23 #
body $-1 $24 $-1 $25 #
body $-1 $26 $-1 $27 #
body $-1 $28 $-1 $29 #
lump $-1 $-1 $30 $0 #
transform $-1 1 0 0 0 1 0 0 0 1 65.957823419904173 38.639484702264859 17.947484642217191 1 rotate no_reflect no_shear #
lump $-1 $-1 $31 $1 #
transform $-1 1 0 0 0 1 0 0 0 1 65.957823419904173 38.639484702264859 17.947484642217191 1 rotate no_reflect no_shear #
lump $-1 $-1 $32 $2 #
transform $-1 1 0 0 0 1 0 0 0 1 65.957823419904173 38.639484702264859 17.947484642217191 1 rotate no_reflect no_shear #
lump $-1 $-1 $33 $3 #
transform $-1 1 0 0 0 1 0 0 0 1 65.957823419904173 38.639484702264859 17.947484642217191 1 rotate no_reflect no_shear #
lump $-1 $-1 $34 $4 #
transform $-1 1 0 0 0 1 0 0 0 1 65.957823419904173 38.639484702264859 17.947484642217191 1 rotate no_reflect no_shear #
lump $-1 $-1 $35 $5 #
transform $-1 1 0 0 0 1 0 0 0 1 65.957823419904173 38.639484702264859 17.947484642217191 1 rotate no_reflect no_shear #
lump $-1 $-1 $36 $6 #
transform $-1 1 0 0 0 1 0 0 0 1 65.957823419904173 38.639484702264859 17.947484642217191 1 rotate no_reflect no_shear #
lump $-1 $-1 $37 $7 #
transform $-1 1 0 0 0 1 0 0 0 1 65.957823419904173 38.639484702264859 17.947484642217191 1 rotate no_reflect no_shear #
lump $-1 $-1 $38 $8 #
transform $-1 1 0 0 0 1 0 0 0 1 65.957823419904173 38.639484702264859 17.947484642217191 1 rotate no_reflect no_shear #
lump $-1 $-1 $39 $9 #
transform $-1 1 0 0 0 1 0 0 0 1 65.957823419904173 38.639484702264859 17.947484642217191 1 rotate no_reflect no_shear #
shell $-1 $-1 $-1 $40 $-1 $10 #
shell $-1 $-1 $-1 $41 $-1 $12 #
shell $-1 $-1 $-1 $42 $-1 $14 #
shell $-1 $-1 $-1 $43 $-1 $16 #
shell $-1 $-1 $-1 $44 $-1 $18 #
shell $-1 $-1 $-1 $45 $-1 $20 #
shell $-1 $-1 $-1 $46 $-1 $22 #
shell $-1 $-1 $-1 $47 $-1 $24 #
shell $-1 $-1 $-1 $48 $-1 $26 #
shell $-1 $-1 $-1 $49 $-1 $28 #
face $-1 $50 $51 $30 $-1 $52 forward single #
face $-1 $53 $54 $31 $-1 $55 forward single #
face $-1 $56 $57 $32 $-1 $58 reversed single #
face $-1 $59 $60 $33 $-1 $61 forward single #
face $-1 $62 $63 $34 $-1 $64 forward single #
face $-1 $65 $66 $35 $-1 $67 forward single #
face $-1 $68 $69 $36 $-1 $70 reversed single #
face $-1 $71 $72 $37 $-1 $73 forward single #
face $-1 $74 $75 $38 $-1 $76 forward single #
face $-1 $77 $78 $39 $-1 $79 forward single #
face $-1 $80 $81 $30 $-1 $82 reversed single #
loop $-1 $-1 $83 $40 #
plane-surface $-1 0 0 17.947484642217191 0 0 1 1 0 0 forward_v I I I I #
face $-1 $84 $85 $31 $-1 $86 reversed single #
loop $-1 $-1 $87 $41 #
plane-surface $-1 0 -28.40662503075243 -10.688193496944162 0 0 1 1 0 0 forward_v I I I I #
face $-1 $88 $89 $32 $-1 $90 reversed single #
loop $-1 $-1 $91 $42 #
plane-surface $-1 -24.594637101089972 99.938048241326982 149.55107120643419 1 0 0 0 -0.80901700255871778 -0.5877852410284794 forward_v I I I I #
face $-1 $92 $93 $33 $-1 $94 forward single #
loop $-1 $95 $96 $43 #
cone-surface $-1 -19.675709680871975 33.795015473784773 12.43193878002965 0 -0.80901700255871778 -0.5877852410284794 1.5 0 0 1 I I 0 1 1.5 forward I I I I #
face $-1 $97 $98 $34 $-1 $99 forward single #
loop $-1 $100 $101 $44 #
cone-surface $-1 -12.297318550544979 33.795015473784773 12.43193878002965 0 -0.80901700255871778 -0.5877852410284794 1.5 0 0 1 I I 0 1 1.5 forward I I I I #
face $-1 $102 $103 $35 $-1 $104 forward single #
loop $-1 $105 $106 $45 #
cone-surface $-1 -4.9189274202179831 33.795015473784773 12.43193878002965 0 -0.80901700255871778 -0.5877852410284794 1.5 0 0 1 I I 0 1 1.5 forward I I I I #
face $-1 $107 $108 $36 $-1 $109 reversed single #
loop $-1 $-1 $110 $46 #
plane-surface $-1 41.363186318814201 99.938048241326982 149.55107120643419 1 0 0 0 -0.80901700255871778 -0.5877852410284794 forward_v I I I I #
face $-1 $111 $112 $37 $-1 $113 forward single #
loop $-1 $114 $115 $47 #
cone-surface $-1 46.282113739032198 33.795015473784773 12.43193878002965 0 -0.80901700255871778 -0.5877852410284794 1.5 0 0 1 I I 0 1 1.5 forward I I I I #
face $-1 $116 $117 $38 $-1 $118 forward single #
loop $-1 $119 $120 $48 #
cone-surface $-1 53.660504869359187 33.795015473784773 12.43193878002965 0 -0.80901700255871778 -0.5877852410284794 1.5 0 0 1 I I 0 1 1.5 forward I I I I #
face $-1 $121 $122 $39 $-1 $123 forward single #
loop $-1 $124 $125 $49 #
cone-surface $-1 61.03889599968619 33.795015473784773 12.43193878002965 0 -0.80901700255871778 -0.5877852410284794 1.5 0 0 1 I I 0 1 1.5 forward I I I I #
face $-1 $126 $127 $30 $-1 $128 reversed single #
loop $-1 $-1 $129 $50 #
plane-surface $-1 0 0 -17.947484642217191 0 0 1 1 0 0 forward_v I I I I #
coedge $-1 $130 $131 $132 $133 forward $51 $-1 #
face $-1 $134 $135 $31 $-1 $136 reversed single #
loop $-1 $-1 $137 $53 #
plane-surface $-1 0 -18.173765359240001 -14.317839069580677 0 -1 0 0 0 -1 forward_v I I I I #
coedge $-1 $138 $139 $140 $141 reversed $54 $-1 #
face $-1 $142 $143 $32 $-1 $144 reversed single #
loop $-1 $-1 $145 $56 #
plane-surface $-1 -12.297318550544986 -6.783952955609152 72.013000933269666 0 0.80901700255871778 0.5877852410284794 1 0 0 forward_v I I I I #
coedge $-1 $146 $147 $148 $149 reversed $57 $-1 #
face $-1 $-1 $150 $33 $-1 $151 forward single #
loop $-1 $152 $153 $59 #
cone-surface $-1 -19.675709680871975 31.415054455370075 10.702795935784252 0 -0.80901700255871778 -0.5877852410284794 0.75 0 0 1 I I -0.70710678118654757 0.70710678118654757 0.75 forward I I I I #
loop $-1 $-1 $154 $43 #
coedge $-1 $96 $96 $155 $156 reversed $60 $-1 #
face $-1 $-1 $157 $34 $-1 $158 forward single #
loop $-1 $159 $160 $62 #
cone-surface $-1 -12.297318550544979 31.415054455370075 10.702795935784252 0 -0.80901700255871778 -0.5877852410284794 0.75 0 0 1 I I -0.70710678118654757 0.70710678118654757 0.75 forward I I I I #
loop $-1 $-1 $161 $44 #
coedge $-1 $101 $101 $162 $163 reversed $63 $-1 #
face $-1 $-1 $164 $35 $-1 $165 forward single #
loop $-1 $166 $167 $65 #
cone-surface $-1 -4.9189274202179831 31.415054455370075 10.702795935784252 0 -0.80901700255871778 -0.5877852410284794 0.75 0 0 1 I I -0.70710678118654757 0.70710678118654757 0.75 forward I I I I #
loop $-1 $-1 $168 $45 #
coedge $-1 $106 $106 $169 $170 reversed $66 $-1 #
face $-1 $171 $172 $36 $-1 $173 forward single #
loop $-1 $-1 $174 $68 #
plane-surface $-1 53.660504869359187 -6.783952955609152 72.013000933269666 0 0.80901700255871778 0.5877852410284794 1 0 0 forward_v I I I I #
coedge $-1 $175 $176 $177 $178 reversed $69 $-1 #
face $-1 $-1 $179 $37 $-1 $180 forward single #
loop $-1 $181 $182 $71 #
cone-surface $-1 46.282113739032198 31.415054455370075 10.702795935784252 0 -0.80901700255871778 -0.5877852410284794 0.75 0 0 1 I I -0.70710678118654757 0.70710678118654757 0.75 forward I I I I #
loop $-1 $-1 $183 $47 #
coedge $-1 $115 $115 $184 $185 reversed $72 $-1 #
face $-1 $-1 $186 $38 $-1 $187 forward single #
loop $-1 $188 $189 $74 #
cone-surface $-1 53.660504869359187 31.415054455370075 10.702795935784252 0 -0.80901700255871778 -0.5877852410284794 0.75 0 0 1 I I -0.70710678118654757 0.70710678118654757 0.75 forward I I I I #
loop $-1 $-1 $190 $48 #
coedge $-1 $120 $120 $191 $192 reversed $75 $-1 #
face $-1 $-1 $193 $39 $-1 $194 forward single #
loop $-1 $195 $196 $77 #
cone-surface $-1 61.03889599968619 31.415054455370075 10.702795935784252 0 -0.80901700255871778 -0.5877852410284794 0.75 0 0 1 I I -0.70710678118654757 0.70710678118654757 0.75 forward I I I I #
loop $-1 $-1 $197 $49 #
coedge $-1 $125 $125 $198 $199 reversed $78 $-1 #
face $-1 $200 $201 $30 $-1 $202 reversed single #
loop $-1 $-1 $203 $80 #
plane-surface $-1 0 -38.639484702264859 0 0 1 0 0 0 1 forward_v I I I I #
coedge $-1 $204 $205 $206 $207 forward $81 $-1 #
coedge $-1 $208 $83 $209 $210 forward $51 $-1 #
coedge $-1 $83 $208 $211 $212 forward $51 $-1 #
coedge $-1 $213 $214 $83 $133 reversed $215 $-1 #
edge $-1 $216 -38.639484702264859 $217 38.639484702264859 $132 $218 forward 7 unknown #
face $-1 $219 $220 $31 $-1 $221 reversed single #
loop $-1 $-1 $222 $84 #
plane-surface $-1 0 0 -17.947484642217191 0 0 1 1 0 0 forward_v I I I I #
coedge $-1 $223 $224 $225 $226 reversed $85 $-1 #
coedge $-1 $227 $87 $224 $228 forward $54 $-1 #
coedge $-1 $87 $227 $229 $230 reversed $54 $-1 #
coedge $-1 $231 $225 $87 $141 forward $220 $-1 #
edge $-1 $232 3.9704528438637858 $233 24.436172186888644 $140 $234 forward 7 unknown #
face $-1 $235 $236 $32 $-1 $237 reversed single #
loop $-1 $-1 $238 $88 #
plane-surface $-1 0 99.938048241326982 149.55107120643419 -1 0 0 0 0.80901700255871778 0.5877852410284794 forward_v I I I I #
coedge $-1 $239 $240 $241 $242 reversed $89 $-1 #
coedge $-1 $147 $91 $243 $244 reversed $57 $-1 #
coedge $-1 $91 $146 $239 $245 reversed $57 $-1 #
coedge $-1 $241 $246 $91 $149 forward $247 $-1 #
edge $-1 $248 11.329539418398632 $249 17.47208134236751 $148 $250 forward 7 unknown #
loop $-1 $-1 $155 $92 #
plane-surface $-1 -12.297318550544986 -6.783952955609152 72.013000933269666 0 0.80901700255871778 0.5877852410284794 1 0 0 forward_v I I I I #
loop $-1 $-1 $251 $59 #
coedge $-1 $153 $153 $154 $252 reversed $93 $-1 #
coedge $-1 $154 $154 $153 $252 forward $95 $-1 #
coedge $-1 $155 $155 $96 $156 forward $150 $-1 #
edge $-1 $253 -2.0959282809962888e-015 $253 6.2831853071795987 $155 $254 forward 7 unknown #
loop $-1 $-1 $162 $97 #
plane-surface $-1 -12.297318550544986 -6.783952955609152 72.013000933269666 0 0.80901700255871778 0.5877852410284794 1 0 0 forward_v I I I I #
loop $-1 $-1 $255 $62 #
coedge $-1 $160 $160 $161 $256 reversed $98 $-1 #
coedge $-1 $161 $161 $160 $256 forward $100 $-1 #
coedge $-1 $162 $162 $101 $163 forward $157 $-1 #
edge $-1 $257 -2.0959282809962888e-015 $257 6.2831853071795987 $162 $258 forward 7 unknown #
loop $-1 $-1 $169 $102 #
plane-surface $-1 -12.297318550544986 -6.783952955609152 72.013000933269666 0 0.80901700255871778 0.5877852410284794 1 0 0 forward_v I I I I #
loop $-1 $-1 $259 $65 #
coedge $-1 $167 $167 $168 $260 reversed $103 $-1 #
coedge $-1 $168 $168 $167 $260 forward $105 $-1 #
coedge $-1 $169 $169 $106 $170 forward $164 $-1 #
edge $-1 $261 -2.0959282809962888e-015 $261 6.2831853071795987 $169 $262 forward 7 unknown #
face $-1 $263 $264 $36 $-1 $265 reversed single #
loop $-1 $-1 $177 $107 #
plane-surface $-1 0 0 17.947484642217191 0 0 1 1 0 0 forward_v I I I I #
coedge $-1 $266 $267 $268 $269 reversed $108 $-1 #
coedge $-1 $176 $110 $270 $271 reversed $69 $-1 #
coedge $-1 $110 $175 $266 $272 reversed $69 $-1 #
coedge $-1 $268 $273 $110 $178 forward $172 $-1 #
edge $-1 $274 11.329539418398632 $275 17.47208134236751 $177 $276 forward 7 unknown #
loop $-1 $-1 $184 $111 #
plane-surface $-1 53.660504869359187 -6.783952955609152 72.013000933269666 0 0.80901700255871778 0.5877852410284794 1 0 0 forward_v I I I I #
loop $-1 $-1 $277 $71 #
coedge $-1 $182 $182 $183 $278 reversed $112 $-1 #
coedge $-1 $183 $183 $182 $278 forward $114 $-1 #
coedge $-1 $184 $184 $115 $185 forward $179 $-1 #
edge $-1 $279 -2.0959282809962888e-015 $279 6.2831853071795987 $184 $280 forward 7 unknown #
loop $-1 $-1 $191 $116 #
plane-surface $-1 53.660504869359187 -6.783952955609152 72.013000933269666 0 0.80901700255871778 0.5877852410284794 1 0 0 forward_v I I I I #
loop $-1 $-1 $281 $74 #
coedge $-1 $189 $189 $190 $282 reversed $117 $-1 #
coedge $-1 $190 $190 $189 $282 forward $119 $-1 #
coedge $-1 $191 $191 $120 $192 forward $186 $-1 #
edge $-1 $283 -2.0959282809962888e-015 $283 6.2831853071795987 $191 $284 forward 7 unknown #
loop $-1 $-1 $198 $121 #
plane-surface $-1 53.660504869359187 -6.783952955609152 72.013000933269666 0 0.80901700255871778 0.5877852410284794 1 0 0 forward_v I I I I #
loop $-1 $-1 $285 $77 #
coedge $-1 $196 $196 $197 $286 reversed $122 $-1 #
coedge $-1 $197 $197 $196 $286 forward $124 $-1 #
coedge $-1 $198 $198 $125 $199 forward $193 $-1 #
edge $-1 $287 -2.0959282809962888e-015 $287 6.2831853071795987 $198 $288 forward 7 unknown #
face $-1 $289 $290 $30 $-1 $291 reversed single #
loop $-1 $-1 $292 $126 #
plane-surface $-1 -65.957823419904173 0 0 1 0 0 0 0 -1 forward_v I I I I #
coedge $-1 $293 $211 $294 $295 forward $127 $-1 #
coedge $-1 $296 $129 $293 $297 forward $81 $-1 #
coedge $-1 $129 $296 $298 $299 forward $81 $-1 #
coedge $-1 $214 $213 $129 $207 reversed $215 $-1 #
edge $-1 $300 -38.639484702264859 $301 38.639484702264859 $206 $302 forward 7 unknown #
coedge $-1 $131 $130 $303 $304 forward $51 $-1 #
coedge $-1 $305 $306 $130 $210 reversed $290 $-1 #
edge $-1 $217 -65.957823419904173 $307 65.957823419904173 $209 $308 forward 7 unknown #
coedge $-1 $203 $309 $131 $212 reversed $127 $-1 #
edge $-1 $310 -65.957823419904173 $216 65.957823419904173 $211 $311 forward 7 unknown #
coedge $-1 $206 $132 $309 $312 forward $215 $-1 #
coedge $-1 $132 $206 $305 $313 reversed $215 $-1 #
loop $-1 $-1 $213 $289 #
vertex $-1 $133 $314 #
vertex $-1 $133 $315 #
straight-curve $-1 65.957823419904173 0 17.947484642217191 0 1 0 I I #
face $-1 $316 $317 $31 $-1 $318 reversed single #
loop $-1 $-1 $225 $134 #
plane-surface $-1 65.957823419904173 0 0 -1 0 0 0 0 1 forward_v I I I I #
coedge $-1 $319 $320 $223 $321 forward $135 $-1 #
coedge $-1 $322 $137 $222 $321 reversed $85 $-1 #
coedge $-1 $137 $322 $138 $228 reversed $85 $-1 #
coedge $-1 $140 $323 $137 $226 forward $220 $-1 #
edge $-1 $324 -10.788565107426852 $232 -3.5292739621538241 $225 $325 forward 7 unknown #
coedge $-1 $139 $138 $326 $327 reversed $54 $-1 #
edge $-1 $232 -65.957823419904173 $328 65.957823419904173 $224 $329 forward 7 unknown #
coedge $-1 $330 $331 $139 $230 forward $317 $-1 #
edge $-1 $233 -65.957823419904173 $332 65.957823419904173 $229 $333 forward 7 unknown #
coedge $-1 $323 $140 $331 $334 forward $220 $-1 #
vertex $-1 $141 $335 #
vertex $-1 $334 $336 #
straight-curve $-1 65.957823419904173 -14.203312515376215 -10.688193496944162 0 -1 0 I I #
face $-1 $-1 $247 $32 $-1 $337 forward single #
loop $-1 $-1 $338 $142 #
plane-surface $-1 0 38.639484702264859 0 0 -1 0 0 0 -1 forward_v I I I I #
coedge $-1 $339 $340 $341 $342 reversed $143 $-1 #
coedge $-1 $343 $145 $147 $245 forward $89 $-1 #
coedge $-1 $145 $343 $339 $344 forward $89 $-1 #
coedge $-1 $341 $148 $145 $242 forward $247 $-1 #
edge $-1 $249 -18.445977825817479 $345 6.1486592752724931 $241 $346 forward 7 unknown #
coedge $-1 $347 $348 $146 $244 forward $236 $-1 #
edge $-1 $349 -65.282534858426956 $248 -56.828050960999903 $243 $350 forward 7 unknown #
edge $-1 $249 66.828652698344797 $349 77.278969404529761 $147 $351 forward 7 unknown #
coedge $-1 $148 $341 $347 $352 forward $247 $-1 #
loop $-1 $-1 $341 $235 #
vertex $-1 $244 $353 #
vertex $-1 $149 $354 #
straight-curve $-1 -24.594637101089972 49.969024120663491 17.947484642217191 0 -1 0 I I #
coedge $-1 $251 $251 $-1 $355 reversed $152 $-1 #
edge $-1 $356 0 $356 6.2831853071796004 $153 $357 forward 7 unknown #
vertex $-1 $156 $358 #
ellipse-curve $-1 -19.675709680871975 35.568213740280413 13.720242693503675 0 0.80901700255871778 0.5877852410284794 1.5 0 0 1 I I #
coedge $-1 $255 $255 $-1 $359 reversed $159 $-1 #
edge $-1 $360 0 $360 6.2831853071796004 $160 $361 forward 7 unknown #
vertex $-1 $163 $362 #
ellipse-curve $-1 -12.297318550544979 35.568213740280413 13.720242693503675 0 0.80901700255871778 0.5877852410284794 1.5 0 0 1 I I #
coedge $-1 $259 $259 $-1 $363 reversed $166 $-1 #
edge $-1 $364 0 $364 6.2831853071796004 $167 $365 forward 7 unknown #
vertex $-1 $170 $366 #
ellipse-curve $-1 -4.9189274202179831 35.568213740280413 13.720242693503675 0 0.80901700255871778 0.5877852410284794 1.5 0 0 1 I I #
face $-1 $-1 $367 $36 $-1 $368 reversed single #
loop $-1 $-1 $369 $171 #
plane-surface $-1 65.957823419904173 0 0 -1 0 0 0 0 1 forward_v I I I I #
coedge $-1 $370 $174 $176 $272 forward $108 $-1 #
coedge $-1 $174 $370 $369 $371 reversed $108 $-1 #
coedge $-1 $372 $177 $174 $269 forward $172 $-1 #
edge $-1 $275 14.532933884134607 $373 39.12757098522458 $268 $374 forward 7 unknown #
coedge $-1 $375 $376 $175 $271 forward $367 $-1 #
edge $-1 $377 -65.282534858426956 $274 -56.828050960999903 $270 $378 forward 7 unknown #
edge $-1 $275 66.828652698344797 $377 77.278969404529761 $176 $379 forward 7 unknown #
coedge $-1 $177 $372 $375 $380 forward $172 $-1 #
vertex $-1 $271 $381 #
vertex $-1 $178 $382 #
straight-curve $-1 41.363186318814201 49.969024120663491 17.947484642217191 0 -1 0 I I #
coedge $-1 $277 $277 $-1 $383 reversed $181 $-1 #
edge $-1 $384 0 $384 6.2831853071796004 $182 $385 forward 7 unknown #
vertex $-1 $185 $386 #
ellipse-curve $-1 46.282113739032198 35.568213740280413 13.720242693503675 0 0.80901700255871778 0.5877852410284794 1.5 0 0 1 I I #
coedge $-1 $281 $281 $-1 $387 reversed $188 $-1 #
edge $-1 $388 0 $388 6.2831853071796004 $189 $389 forward 7 unknown #
vertex $-1 $192 $390 #
ellipse-curve $-1 53.660504869359187 35.568213740280413 13.720242693503675 0 0.80901700255871778 0.5877852410284794 1.5 0 0 1 I I #
coedge $-1 $285 $285 $-1 $391 reversed $195 $-1 #
edge $-1 $392 0 $392 6.2831853071796004 $196 $393 forward 7 unknown #
vertex $-1 $199 $394 #
ellipse-curve $-1 61.03889599968619 35.568213740280413 13.720242693503675 0 0.80901700255871778 0.5877852410284794 1.5 0 0 1 I I #
face $-1 $-1 $215 $30 $-1 $395 reversed single #
loop $-1 $-1 $305 $200 #
plane-surface $-1 0 38.639484702264859 0 0 -1 0 0 0 -1 forward_v I I I I #
coedge $-1 $396 $303 $306 $397 forward $201 $-1 #
coedge $-1 $309 $203 $204 $297 reversed $127 $-1 #
coedge $-1 $303 $396 $203 $295 reversed $201 $-1 #
edge $-1 $310 -17.947484642217191 $398 17.947484642217191 $294 $399 forward 7 unknown #
coedge $-1 $205 $204 $396 $400 forward $81 $-1 #
edge $-1 $301 -65.957823419904173 $398 65.957823419904173 $293 $401 forward 7 unknown #
coedge $-1 $306 $305 $205 $299 reversed $290 $-1 #
edge $-1 $402 -65.957823419904173 $300 65.957823419904173 $298 $403 forward 7 unknown #
vertex $-1 $207 $404 #
vertex $-1 $312 $405 #
straight-curve $-1 65.957823419904173 0 -17.947484642217191 0 -1 0 I I #
coedge $-1 $292 $294 $208 $304 reversed $201 $-1 #
edge $-1 $307 -38.639484702264859 $310 38.639484702264859 $303 $406 forward 7 unknown #
coedge $-1 $298 $209 $214 $313 forward $290 $-1 #
coedge $-1 $209 $298 $292 $397 reversed $290 $-1 #
vertex $-1 $210 $407 #
straight-curve $-1 0 38.639484702264859 17.947484642217191 -1 0 0 I I #
coedge $-1 $211 $293 $213 $312 reversed $127 $-1 #
vertex $-1 $304 $408 #
straight-curve $-1 0 -38.639484702264859 17.947484642217191 1 0 0 I I #
edge $-1 $216 -17.947484642217191 $301 17.947484642217191 $213 $409 forward 7 unknown #
edge $-1 $217 -17.947484642217191 $300 17.947484642217191 $214 $410 forward 7 unknown #
point $-1 65.957823419904173 -38.639484702264859 17.947484642217191 #
point $-1 65.957823419904173 38.639484702264859 17.947484642217191 #
face $-1 $-1 $411 $31 $-1 $412 reversed single #
loop $-1 $-1 $229 $219 #
plane-surface $-1 0 -38.639484702264859 0 0 1 0 0 0 1 forward_v I I I I #
coedge $-1 $413 $222 $323 $414 forward $135 $-1 #
coedge $-1 $222 $413 $415 $416 forward $135 $-1 #
edge $-1 $417 -65.957823419904173 $324 65.957823419904173 $222 $418 forward 7 unknown #
coedge $-1 $224 $223 $419 $420 reversed $85 $-1 #
coedge $-1 $225 $231 $319 $414 reversed $220 $-1 #
vertex $-1 $414 $421 #
straight-curve $-1 65.957823419904173 -18.173765359240001 -7.1589195347903383 0 0 1 I I #
coedge $-1 $419 $422 $227 $327 forward $411 $-1 #
edge $-1 $332 -24.436172186888644 $328 -3.9704528438637858 $326 $423 forward 7 unknown #
vertex $-1 $327 $424 #
straight-curve $-1 0 -18.173765359240001 -10.688193496944162 -1 0 0 I I #
coedge $-1 $425 $229 $422 $426 forward $317 $-1 #
coedge $-1 $229 $425 $231 $334 reversed $317 $-1 #
vertex $-1 $426 $427 #
straight-curve $-1 0 -38.639484702264859 -10.688193496944162 -1 0 0 I I #
edge $-1 $233 10.688193496944162 $428 17.947484642217191 $231 $429 forward 7 unknown #
point $-1 65.957823419904173 -18.173765359240001 -10.688193496944162 #
point $-1 65.957823419904173 -38.639484702264859 -10.688193496944162 #
plane-surface $-1 0 0 17.947484642217191 0 0 1 1 0 0 forward_v I I I I #
coedge $-1 $348 $347 $340 $430 forward $236 $-1 #
coedge $-1 $340 $238 $240 $344 reversed $143 $-1 #
coedge $-1 $238 $339 $338 $430 reversed $143 $-1 #
coedge $-1 $246 $241 $238 $342 forward $247 $-1 #
edge $-1 $345 -17.47208134236751 $431 -11.329539418398632 $341 $432 forward 7 unknown #
coedge $-1 $240 $239 $348 $433 reversed $89 $-1 #
edge $-1 $434 -77.278969404529761 $345 -66.828652698344797 $339 $435 forward 7 unknown #
vertex $-1 $242 $436 #
straight-curve $-1 -6.1486592752724931 32.496942778295981 17.947484642217191 1 0 0 I I #
coedge $-1 $338 $243 $246 $352 reversed $236 $-1 #
coedge $-1 $243 $338 $343 $433 forward $236 $-1 #
vertex $-1 $244 $437 #
straight-curve $-1 -24.594637101089972 38.639484702264859 74.775535603217094 0 0 1 I I #
straight-curve $-1 -24.594637101089972 -6.783952955609152 72.013000933269666 0 0.5877852410284794 -0.80901700255871778 I I #
edge $-1 $431 0 $248 24.594637101089972 $347 $438 forward 7 unknown #
point $-1 -24.594637101089972 38.639484702264859 17.947484642217191 #
point $-1 -24.594637101089972 32.496942778295981 17.947484642217191 #
edge $-1 $439 1 $439 0 $251 $-1 forward 7 unknown #
vertex $-1 $252 $440 #
ellipse-curve $-1 -19.675709680871975 32.021817207289111 11.143634866555612 0 0.80901700255871778 0.5877852410284794 1.5 0 0 1 I I #
point $-1 -18.175709680871975 35.568213740280427 13.720242693503689 #
edge $-1 $441 1 $441 0 $255 $-1 forward 7 unknown #
vertex $-1 $256 $442 #
ellipse-curve $-1 -12.297318550544979 32.021817207289111 11.143634866555612 0 0.80901700255871778 0.5877852410284794 1.5 0 0 1 I I #
point $-1 -10.797318550544979 35.568213740280427 13.720242693503689 #
edge $-1 $443 1 $443 0 $259 $-1 forward 7 unknown #
vertex $-1 $260 $444 #
ellipse-curve $-1 -4.9189274202179831 32.021817207289111 11.143634866555612 0 0.80901700255871778 0.5877852410284794 1.5 0 0 1 I I #
point $-1 -3.4189274202179831 35.568213740280427 13.720242693503689 #
loop $-1 $-1 $270 $263 #
plane-surface $-1 0 38.639484702264859 0 0 -1 0 0 0 -1 forward_v I I I I #
coedge $-1 $445 $446 $267 $371 forward $264 $-1 #
coedge $-1 $267 $266 $376 $447 reversed $108 $-1 #
edge $-1 $373 35.705027906629518 $448 46.155344612814481 $369 $449 forward 7 unknown #
coedge $-1 $273 $268 $446 $450 forward $172 $-1 #
vertex $-1 $450 $451 #
straight-curve $-1 26.830252434679593 32.496942778295981 17.947484642217191 1 0 0 I I #
coedge $-1 $452 $270 $273 $380 reversed $367 $-1 #
coedge $-1 $270 $452 $370 $447 forward $367 $-1 #
vertex $-1 $271 $453 #
straight-curve $-1 41.363186318814201 38.639484702264859 74.775535603217094 0 0 1 I I #
straight-curve $-1 41.363186318814201 -6.783952955609152 72.013000933269666 0 0.5877852410284794 -0.80901700255871778 I I #
edge $-1 $454 -65.957823419904173 $274 -41.363186318814201 $375 $455 forward 7 unknown #
point $-1 41.363186318814201 38.639484702264859 17.947484642217191 #
point $-1 41.363186318814201 32.496942778295981 17.947484642217191 #
edge $-1 $456 1 $456 0 $277 $-1 forward 7 unknown #
vertex $-1 $278 $457 #
ellipse-curve $-1 46.282113739032198 32.021817207289111 11.143634866555612 0 0.80901700255871778 0.5877852410284794 1.5 0 0 1 I I #
point $-1 47.782113739032198 35.568213740280427 13.720242693503689 #
edge $-1 $458 1 $458 0 $281 $-1 forward 7 unknown #
vertex $-1 $282 $459 #
ellipse-curve $-1 53.660504869359187 32.021817207289111 11.143634866555612 0 0.80901700255871778 0.5877852410284794 1.5 0 0 1 I I #
point $-1 55.160504869359187 35.568213740280427 13.720242693503689 #
edge $-1 $460 1 $460 0 $285 $-1 forward 7 unknown #
vertex $-1 $286 $461 #
ellipse-curve $-1 61.03889599968619 32.021817207289111 11.143634866555612 0 0.80901700255871778 0.5877852410284794 1.5 0 0 1 I I #
point $-1 62.53889599968619 35.568213740280427 13.720242693503689 #
plane-surface $-1 65.957823419904173 0 0 -1 0 0 0 0 1 forward_v I I I I #
coedge $-1 $294 $292 $296 $400 reversed $201 $-1 #
edge $-1 $307 -17.947484642217191 $402 17.947484642217191 $306 $462 forward 7 unknown #
vertex $-1 $400 $463 #
straight-curve $-1 -65.957823419904173 -38.639484702264859 0 0 0 -1 I I #
edge $-1 $398 -38.639484702264859 $402 38.639484702264859 $396 $464 forward 7 unknown #
straight-curve $-1 0 -38.639484702264859 -17.947484642217191 -1 0 0 I I #
vertex $-1 $299 $465 #
straight-curve $-1 0 38.639484702264859 -17.947484642217191 1 0 0 I I #
point $-1 65.957823419904173 38.639484702264859 -17.947484642217191 #
point $-1 65.957823419904173 -38.639484702264859 -17.947484642217191 #
straight-curve $-1 -65.957823419904173 0 17.947484642217191 0 -1 0 I I #
point $-1 -65.957823419904173 38.639484702264859 17.947484642217191 #
point $-1 -65.957823419904173 -38.639484702264859 17.947484642217191 #
straight-curve $-1 65.957823419904173 -38.639484702264859 0 0 0 -1 I I #
straight-curve $-1 65.957823419904173 38.639484702264859 0 0 0 -1 I I #
loop $-1 $-1 $419 $316 #
plane-surface $-1 -65.957823419904173 0 0 1 0 0 0 0 -1 forward_v I I I I #
coedge $-1 $320 $319 $425 $466 forward $135 $-1 #
edge $-1 $324 18.173765359240001 $428 38.639484702264859 $323 $467 forward 7 unknown #
coedge $-1 $422 $419 $320 $416 reversed $411 $-1 #
edge $-1 $468 -38.639484702264859 $417 -18.173765359240001 $415 $469 forward 7 unknown #
vertex $-1 $420 $470 #
straight-curve $-1 0 -18.173765359240001 -17.947484642217191 1 0 0 I I #
coedge $-1 $415 $326 $322 $420 forward $411 $-1 #
edge $-1 $328 3.5292739621538241 $417 10.788565107426852 $419 $471 forward 7 unknown #
point $-1 65.957823419904173 -18.173765359240001 -17.947484642217191 #
coedge $-1 $326 $415 $330 $426 reversed $411 $-1 #
straight-curve $-1 -65.957823419904173 -14.203312515376215 -10.688193496944162 0 1 0 I I #
point $-1 -65.957823419904173 -18.173765359240001 -10.688193496944162 #
coedge $-1 $331 $330 $413 $466 reversed $317 $-1 #
edge $-1 $332 10.688193496944162 $468 17.947484642217191 $422 $472 forward 7 unknown #
point $-1 -65.957823419904173 -38.639484702264859 -10.688193496944162 #
vertex $-1 $334 $473 #
straight-curve $-1 65.957823419904173 -38.639484702264859 0 0 0 -1 I I #
edge $-1 $431 56.828050960999903 $434 65.282534858426956 $338 $474 forward 7 unknown #
vertex $-1 $352 $475 #
straight-curve $-1 0 49.969024120663491 17.947484642217191 0 1 0 I I #
edge $-1 $434 -6.1486592752724931 $349 18.445977825817479 $348 $476 forward 7 unknown #
vertex $-1 $433 $477 #
straight-curve $-1 0 -6.783952955609152 72.013000933269666 0 -0.5877852410284794 0.80901700255871778 I I #
point $-1 0 32.496942778295981 17.947484642217191 #
point $-1 -24.594637101089972 38.639484702264859 9.4930007447901374 #
straight-curve $-1 0 38.639484702264859 17.947484642217191 -1 0 0 I I #
vertex $-1 $355 $478 #
point $-1 -18.175709680871975 32.021817207289111 11.143634866555612 #
vertex $-1 $359 $479 #
point $-1 -10.797318550544979 32.021817207289111 11.143634866555612 #
vertex $-1 $363 $480 #
point $-1 -3.4189274202179831 32.021817207289111 11.143634866555612 #
coedge $-1 $446 $369 $452 $481 reversed $264 $-1 #
coedge $-1 $369 $445 $372 $450 reversed $264 $-1 #
edge $-1 $448 -39.12757098522458 $377 -14.532933884134607 $376 $482 forward 7 unknown #
vertex $-1 $371 $483 #
straight-curve $-1 65.957823419904173 11.510054344269172 46.833459295513975 0 0.5877852410284794 -0.80901700255871778 I I #
edge $-1 $373 32.496942778295981 $454 38.639484702264859 $446 $484 forward 7 unknown #
point $-1 65.957823419904173 32.496942778295981 17.947484642217191 #
coedge $-1 $376 $375 $445 $481 forward $367 $-1 #
point $-1 41.363186318814201 38.639484702264859 9.4930007447901374 #
vertex $-1 $450 $485 #
straight-curve $-1 0 38.639484702264859 17.947484642217191 -1 0 0 I I #
vertex $-1 $383 $486 #
point $-1 47.782113739032198 32.021817207289111 11.143634866555612 #
vertex $-1 $387 $487 #
point $-1 55.160504869359187 32.021817207289111 11.143634866555612 #
vertex $-1 $391 $488 #
point $-1 62.53889599968619 32.021817207289111 11.143634866555612 #
straight-curve $-1 -65.957823419904173 38.639484702264859 0 0 0 -1 I I #
point $-1 -65.957823419904173 -38.639484702264859 -17.947484642217191 #
straight-curve $-1 -65.957823419904173 0 -17.947484642217191 0 1 0 I I #
point $-1 -65.957823419904173 38.639484702264859 -17.947484642217191 #
edge $-1 $428 -65.957823419904173 $468 65.957823419904173 $425 $489 forward 7 unknown #
straight-curve $-1 65.957823419904173 0 -17.947484642217191 0 -1 0 I I #
vertex $-1 $416 $490 #
straight-curve $-1 -65.957823419904173 0 -17.947484642217191 0 1 0 I I #
point $-1 -65.957823419904173 -18.173765359240001 -17.947484642217191 #
straight-curve $-1 -65.957823419904173 -18.173765359240001 -7.1589195347903383 0 0 -1 I I #
straight-curve $-1 -65.957823419904173 -38.639484702264859 0 0 0 -1 I I #
point $-1 65.957823419904173 -38.639484702264859 -17.947484642217191 #
straight-curve $-1 0 38.639484702264859 74.775535603217094 0 0 -1 I I #
point $-1 0 38.639484702264859 17.947484642217191 #
straight-curve $-1 -6.1486592752724931 38.639484702264866 9.4930007447901374 -1 0 0 I I #
point $-1 0 38.639484702264859 9.4930007447901374 #
point $-1 -19.675709680871975 30.808291703451037 10.261957005012892 #
point $-1 -12.297318550544979 30.808291703451037 10.261957005012892 #
point $-1 -4.9189274202179831 30.808291703451037 10.261957005012892 #
edge $-1 $454 -17.947484642217191 $448 -9.4930007447901374 $445 $491 forward 7 unknown #
straight-curve $-1 26.830252434679593 38.639484702264866 9.4930007447901374 -1 0 0 I I #
point $-1 65.957823419904173 38.639484702264859 9.4930007447901374 #
straight-curve $-1 65.957823419904173 0 17.947484642217191 0 1 0 I I #
point $-1 65.957823419904173 38.639484702264859 17.947484642217191 #
point $-1 46.282113739032198 30.808291703451037 10.261957005012892 #
point $-1 53.660504869359187 30.808291703451037 10.261957005012892 #
point $-1 61.03889599968619 30.808291703451037 10.261957005012892 #
straight-curve $-1 0 -38.639484702264859 -17.947484642217191 -1 0 0 I I #
point $-1 -65.957823419904173 -38.639484702264859 -17.947484642217191 #
straight-curve $-1 65.957823419904173 38.639484702264859 0 0 0 -1 I I #
End-of-ACIS-data 