500 0 3 0           
7 Unknown 11 ACIS 5.0 NT 24 Fri Mar 26 15:29:05 1999 
-1 9.9999999999999995e-007 1e-010 
body $-1 $3 $-1 $4 #
body $-1 $5 $-1 $6 #
body $-1 $7 $-1 $8 #
lump $-1 $-1 $9 $0 #
transform $-1 1 0 0 0 1 0 0 0 1 42.72347178563799 25.128447451445957 6.364436727326126 1 rotate no_reflect no_shear #
lump $-1 $-1 $10 $1 #
transform $-1 1 0 0 0 1 0 0 0 1 42.72347178563799 25.128447451445957 6.364436727326126 1 rotate no_reflect no_shear #
lump $-1 $-1 $11 $2 #
transform $-1 1 0 0 0 1 0 0 0 1 42.72347178563799 25.128447451445957 6.364436727326126 1 rotate no_reflect no_shear #
shell $-1 $-1 $-1 $12 $-1 $3 #
shell $-1 $-1 $-1 $13 $-1 $5 #
shell $-1 $-1 $-1 $14 $-1 $7 #
face $-1 $15 $16 $9 $-1 $17 forward single #
face $-1 $18 $19 $10 $-1 $20 reversed single #
face $-1 $21 $22 $11 $-1 $23 forward single #
face $-1 $24 $25 $9 $-1 $26 reversed single #
loop $-1 $-1 $27 $12 #
plane-surface $-1 0 0 6.364436727326126 0 0 1 1 0 0 forward_v I I I I #
face $-1 $28 $29 $10 $-1 $30 reversed single #
loop $-1 $-1 $31 $13 #
plane-surface $-1 -0.84248690387850544 61.520325023524386 94.029735546185734 1 0 0 0 -0.78801076186113728 -0.61566146476048833 forward_v I I I I #
face $-1 $32 $33 $11 $-1 $34 forward single #
loop $-1 $35 $36 $14 #
cone-surface $-1 3.5633751985675275 22.959335526251468 3.7845731645749194 0 -0.78801076186113728 -0.61566146476048833 0.5 0 0 1 I I 0 1 0.5 forward I I I I #
face $-1 $37 $38 $9 $-1 $39 reversed single #
loop $-1 $-1 $40 $15 #
plane-surface $-1 0 0 -6.364436727326126 0 0 1 1 0 0 forward_v I I I I #
coedge $-1 $41 $42 $43 $44 forward $16 $-1 #
face $-1 $45 $46 $10 $-1 $47 reversed single #
loop $-1 $-1 $48 $18 #
plane-surface $-1 3.5633751985675346 -5.8127860787823877 41.423345107787178 0 0.78801076186113728 0.61566146476048833 1 0 0 forward_v I I I I #
coedge $-1 $49 $50 $51 $52 reversed $19 $-1 #
face $-1 $-1 $53 $11 $-1 $54 forward single #
loop $-1 $55 $56 $21 #
cone-surface $-1 3.5633751985675275 22.368327454855617 3.3228270660045531 0 -0.78801076186113728 -0.61566146476048833 0.25 0 0 1 I I -0.70710678118654746 0.70710678118654746 0.25 forward I I I I #
loop $-1 $-1 $57 $14 #
coedge $-1 $36 $36 $58 $59 reversed $22 $-1 #
face $-1 $60 $61 $9 $-1 $62 reversed single #
loop $-1 $-1 $63 $24 #
plane-surface $-1 0 -25.128447451445957 0 0 1 0 0 0 1 forward_v I I I I #
coedge $-1 $64 $65 $66 $67 forward $25 $-1 #
coedge $-1 $68 $27 $69 $70 forward $16 $-1 #
coedge $-1 $27 $68 $71 $72 forward $16 $-1 #
coedge $-1 $73 $74 $27 $44 reversed $75 $-1 #
edge $-1 $76 -25.128447451445957 $77 25.128447451445957 $43 $78 forward 7 unknown #
face $-1 $79 $80 $10 $-1 $81 reversed single #
loop $-1 $-1 $82 $28 #
plane-surface $-1 7.9692373010135746 61.520325023524386 94.029735546185734 -1 0 0 0 0.78801076186113728 0.61566146476048833 forward_v I I I I #
coedge $-1 $83 $84 $85 $86 reversed $29 $-1 #
coedge $-1 $50 $31 $87 $88 reversed $19 $-1 #
coedge $-1 $31 $49 $83 $89 reversed $19 $-1 #
coedge $-1 $85 $90 $31 $52 forward $91 $-1 #
edge $-1 $92 5.6317150603162354 $93 9.1819281488440652 $51 $94 forward 7 unknown #
loop $-1 $-1 $58 $32 #
plane-surface $-1 3.5633751985675346 -5.8127860787823877 41.423345107787178 0 0.78801076186113728 0.61566146476048833 1 0 0 forward_v I I I I #
loop $-1 $-1 $95 $21 #
coedge $-1 $56 $56 $57 $96 reversed $33 $-1 #
coedge $-1 $57 $57 $56 $96 forward $35 $-1 #
coedge $-1 $58 $58 $36 $59 forward $53 $-1 #
edge $-1 $97 2.4492308213645081e-015 $97 6.2831853071796031 $58 $98 forward 7 unknown #
face $-1 $99 $100 $9 $-1 $101 reversed single #
loop $-1 $-1 $102 $37 #
plane-surface $-1 -42.72347178563799 0 0 1 0 0 0 0 -1 forward_v I I I I #
coedge $-1 $103 $71 $104 $105 forward $38 $-1 #
coedge $-1 $106 $40 $103 $107 forward $25 $-1 #
coedge $-1 $40 $106 $108 $109 forward $25 $-1 #
coedge $-1 $74 $73 $40 $67 reversed $75 $-1 #
edge $-1 $110 -25.128447451445957 $111 25.128447451445957 $66 $112 forward 7 unknown #
coedge $-1 $42 $41 $113 $114 forward $16 $-1 #
coedge $-1 $115 $116 $41 $70 reversed $100 $-1 #
edge $-1 $77 -42.72347178563799 $117 42.72347178563799 $69 $118 forward 7 unknown #
coedge $-1 $63 $119 $42 $72 reversed $38 $-1 #
edge $-1 $120 -42.72347178563799 $76 42.72347178563799 $71 $121 forward 7 unknown #
coedge $-1 $66 $43 $119 $122 forward $75 $-1 #
coedge $-1 $43 $66 $115 $123 reversed $75 $-1 #
loop $-1 $-1 $73 $99 #
vertex $-1 $44 $124 #
vertex $-1 $44 $125 #
straight-curve $-1 42.72347178563799 0 6.364436727326126 0 1 0 I I #
face $-1 $-1 $91 $10 $-1 $126 forward single #
loop $-1 $-1 $127 $45 #
plane-surface $-1 0 25.128447451445957 0 0 -1 0 0 0 -1 forward_v I I I I #
coedge $-1 $128 $129 $130 $131 reversed $46 $-1 #
coedge $-1 $132 $48 $50 $89 forward $29 $-1 #
coedge $-1 $48 $132 $128 $133 forward $29 $-1 #
coedge $-1 $130 $51 $48 $86 forward $91 $-1 #
edge $-1 $93 -2.6241745031622727 $134 6.1875497017298073 $85 $135 forward 7 unknown #
coedge $-1 $136 $137 $49 $88 forward $80 $-1 #
edge $-1 $138 -45.194496706508637 $92 -40.650431045766737 $87 $139 forward 7 unknown #
edge $-1 $93 44.490392869328737 $138 50.256894902891894 $50 $140 forward 7 unknown #
coedge $-1 $51 $130 $136 $141 forward $91 $-1 #
loop $-1 $-1 $130 $79 #
vertex $-1 $88 $142 #
vertex $-1 $52 $143 #
straight-curve $-1 -0.84248690387850544 30.760162511762193 6.3644367273261224 0 -1 0 I I #
coedge $-1 $95 $95 $-1 $144 reversed $55 $-1 #
edge $-1 $145 0 $145 6.2831853071796004 $56 $146 forward 7 unknown #
vertex $-1 $59 $147 #
ellipse-curve $-1 3.5633751985675275 23.353340907182044 4.0924038969551706 0 0.78801076186113728 0.61566146476048833 0.5 0 0 1 I I #
face $-1 $-1 $75 $9 $-1 $148 reversed single #
loop $-1 $-1 $115 $60 #
plane-surface $-1 0 25.128447451445957 0 0 -1 0 0 0 -1 forward_v I I I I #
coedge $-1 $149 $113 $116 $150 forward $61 $-1 #
coedge $-1 $119 $63 $64 $107 reversed $38 $-1 #
coedge $-1 $113 $149 $63 $105 reversed $61 $-1 #
edge $-1 $120 -6.364436727326126 $151 6.364436727326126 $104 $152 forward 7 unknown #
coedge $-1 $65 $64 $149 $153 forward $25 $-1 #
edge $-1 $111 -42.72347178563799 $151 42.72347178563799 $103 $154 forward 7 unknown #
coedge $-1 $116 $115 $65 $109 reversed $100 $-1 #
edge $-1 $155 -42.72347178563799 $110 42.72347178563799 $108 $156 forward 7 unknown #
vertex $-1 $67 $157 #
vertex $-1 $122 $158 #
straight-curve $-1 42.72347178563799 0 -6.364436727326126 0 -1 0 I I #
coedge $-1 $102 $104 $68 $114 reversed $61 $-1 #
edge $-1 $117 -25.128447451445957 $120 25.128447451445957 $113 $159 forward 7 unknown #
coedge $-1 $108 $69 $74 $123 forward $100 $-1 #
coedge $-1 $69 $108 $102 $150 reversed $100 $-1 #
vertex $-1 $70 $160 #
straight-curve $-1 0 25.128447451445957 6.364436727326126 -1 0 0 I I #
coedge $-1 $71 $103 $73 $122 reversed $38 $-1 #
vertex $-1 $114 $161 #
straight-curve $-1 0 -25.128447451445957 6.364436727326126 1 0 0 I I #
edge $-1 $76 -6.364436727326126 $111 6.364436727326126 $73 $162 forward 7 unknown #
edge $-1 $77 -6.364436727326126 $110 6.364436727326126 $74 $163 forward 7 unknown #
point $-1 42.72347178563799 -25.128447451445957 6.364436727326126 #
point $-1 42.72347178563799 25.128447451445957 6.364436727326126 #
plane-surface $-1 0 0 6.364436727326126 0 0 1 1 0 0 forward_v I I I I #
coedge $-1 $137 $136 $129 $164 forward $80 $-1 #
coedge $-1 $129 $82 $84 $133 reversed $46 $-1 #
coedge $-1 $82 $128 $127 $164 reversed $46 $-1 #
coedge $-1 $90 $85 $82 $131 forward $91 $-1 #
edge $-1 $134 -9.1819281488440652 $165 -5.6317150603162354 $130 $166 forward 7 unknown #
coedge $-1 $84 $83 $137 $167 reversed $29 $-1 #
edge $-1 $168 -50.256894902891894 $134 -44.490392869328737 $128 $169 forward 7 unknown #
vertex $-1 $86 $170 #
straight-curve $-1 1.7816875992837673 21.578234362918131 6.364436727326126 1 0 0 I I #
coedge $-1 $127 $87 $90 $141 reversed $80 $-1 #
coedge $-1 $87 $127 $132 $167 forward $80 $-1 #
vertex $-1 $88 $171 #
straight-curve $-1 -0.84248690387850544 25.128447451445957 47.014867773092867 0 0 1 I I #
straight-curve $-1 -0.84248690387850544 -5.8127860787823877 41.423345107787178 0 0.61566146476048833 -0.78801076186113728 I I #
edge $-1 $165 -7.9692373010135746 $92 0.84248690387850544 $136 $172 forward 7 unknown #
point $-1 -0.84248690387850544 25.128447451445957 6.364436727326126 #
point $-1 -0.84248690387850544 21.578234362918128 6.3644367273261295 #
edge $-1 $173 1 $173 0 $95 $-1 forward 7 unknown #
vertex $-1 $96 $174 #
ellipse-curve $-1 3.5633751985675275 22.5653301453209 3.4767424321946754 0 0.78801076186113728 0.61566146476048833 0.5 0 0 1 I I #
point $-1 4.0633751985675275 23.353340907182037 4.0924038969551635 #
plane-surface $-1 42.72347178563799 0 0 -1 0 0 0 0 1 forward_v I I I I #
coedge $-1 $104 $102 $106 $153 reversed $61 $-1 #
edge $-1 $117 -6.364436727326126 $155 6.364436727326126 $116 $175 forward 7 unknown #
vertex $-1 $153 $176 #
straight-curve $-1 -42.72347178563799 -25.128447451445957 0 0 0 -1 I I #
edge $-1 $151 -25.128447451445957 $155 25.128447451445957 $149 $177 forward 7 unknown #
straight-curve $-1 0 -25.128447451445957 -6.364436727326126 -1 0 0 I I #
vertex $-1 $109 $178 #
straight-curve $-1 0 25.128447451445957 -6.364436727326126 1 0 0 I I #
point $-1 42.72347178563799 25.128447451445957 -6.364436727326126 #
point $-1 42.72347178563799 -25.128447451445957 -6.364436727326126 #
straight-curve $-1 -42.72347178563799 0 6.364436727326126 0 -1 0 I I #
point $-1 -42.72347178563799 25.128447451445957 6.364436727326126 #
point $-1 -42.72347178563799 -25.128447451445957 6.364436727326126 #
straight-curve $-1 42.72347178563799 -25.128447451445957 0 0 0 -1 I I #
straight-curve $-1 42.72347178563799 25.128447451445957 0 0 0 -1 I I #
edge $-1 $165 40.650431045766737 $168 45.194496706508637 $127 $179 forward 7 unknown #
vertex $-1 $141 $180 #
straight-curve $-1 7.9692373010135746 30.760162511762193 6.3644367273261224 0 1 0 I I #
edge $-1 $168 -6.1875497017298073 $138 2.6241745031622727 $137 $181 forward 7 unknown #
vertex $-1 $167 $182 #
straight-curve $-1 7.9692373010135746 -5.8127860787823877 41.423345107787178 0 -0.61566146476048833 0.78801076186113728 I I #
point $-1 7.9692373010135746 21.578234362918128 6.3644367273261295 #
point $-1 -0.84248690387850544 25.128447451445954 1.8203710665842294 #
straight-curve $-1 0 25.128447451445957 6.364436727326126 -1 0 0 I I #
vertex $-1 $144 $183 #
point $-1 4.0633751985675275 22.5653301453209 3.4767424321946754 #
straight-curve $-1 -42.72347178563799 25.128447451445957 0 0 0 -1 I I #
point $-1 -42.72347178563799 -25.128447451445957 -6.364436727326126 #
straight-curve $-1 -42.72347178563799 0 -6.364436727326126 0 1 0 I I #
point $-1 -42.72347178563799 25.128447451445957 -6.364436727326126 #
straight-curve $-1 7.9692373010135746 25.128447451445957 47.014867773092867 0 0 -1 I I #
point $-1 7.9692373010135746 25.128447451445957 6.364436727326126 #
straight-curve $-1 1.7816875992837673 25.128447451445957 1.8203710665842259 -1 0 0 I I #
point $-1 7.9692373010135746 25.128447451445954 1.8203710665842294 #
point $-1 3.5633751985675275 22.171324764390334 3.1689116998144309 #
End-of-ACIS-data 