500 0 9 0           
7 Unknown 11 ACIS 5.0 NT 24 Fri Mar 26 02:52:51 1999 
-1 9.9999999999999995e-007 1e-010 
body $-1 $9 $-1 $10 #
body $-1 $11 $-1 $12 #
body $-1 $13 $-1 $14 #
body $-1 $15 $-1 $16 #
body $-1 $17 $-1 $18 #
body $-1 $19 $-1 $20 #
body $-1 $21 $-1 $22 #
body $-1 $23 $-1 $24 #
body $-1 $25 $-1 $26 #
lump $-1 $-1 $27 $0 #
transform $-1 1 0 0 0 1 0 0 0 1 56.227301858577228 38.299669296319905 16.855501298700243 1 rotate no_reflect no_shear #
lump $-1 $-1 $28 $1 #
transform $-1 1 0 0 0 1 0 0 0 1 56.227301858577228 38.299669296319905 16.855501298700243 1 rotate no_reflect no_shear #
lump $-1 $-1 $29 $2 #
transform $-1 1 0 0 0 1 0 0 0 1 56.227301858577228 38.299669296319905 16.855501298700243 1 rotate no_reflect no_shear #
lump $-1 $-1 $30 $3 #
transform $-1 1 0 0 0 1 0 0 0 1 56.227301858577228 38.299669296319905 16.855501298700243 1 rotate no_reflect no_shear #
lump $-1 $-1 $31 $4 #
transform $-1 1 0 0 0 1 0 0 0 1 56.227301858577228 38.299669296319905 16.855501298700243 1 rotate no_reflect no_shear #
lump $-1 $-1 $32 $5 #
transform $-1 1 0 0 0 1 0 0 0 1 56.227301858577228 38.299669296319905 16.855501298700243 1 rotate no_reflect no_shear #
lump $-1 $-1 $33 $6 #
transform $-1 1 0 0 0 1 0 0 0 1 56.227301858577228 38.299669296319905 16.855501298700243 1 rotate no_reflect no_shear #
lump $-1 $-1 $34 $7 #
transform $-1 1 0 0 0 1 0 0 0 1 56.227301858577228 38.299669296319905 16.855501298700243 1 rotate no_reflect no_shear #
lump $-1 $-1 $35 $8 #
transform $-1 1 0 0 0 1 0 0 0 1 56.227301858577228 38.299669296319905 16.855501298700243 1 rotate no_reflect no_shear #
shell $-1 $-1 $-1 $36 $-1 $9 #
shell $-1 $-1 $-1 $37 $-1 $11 #
shell $-1 $-1 $-1 $38 $-1 $13 #
shell $-1 $-1 $-1 $39 $-1 $15 #
shell $-1 $-1 $-1 $40 $-1 $17 #
shell $-1 $-1 $-1 $41 $-1 $19 #
shell $-1 $-1 $-1 $42 $-1 $21 #
shell $-1 $-1 $-1 $43 $-1 $23 #
shell $-1 $-1 $-1 $44 $-1 $25 #
face $-1 $45 $46 $27 $-1 $47 forward single #
face $-1 $48 $49 $28 $-1 $50 forward single #
face $-1 $51 $52 $29 $-1 $53 forward single #
face $-1 $54 $55 $30 $-1 $56 reversed single #
face $-1 $57 $58 $31 $-1 $59 forward single #
face $-1 $60 $61 $32 $-1 $62 forward single #
face $-1 $63 $64 $33 $-1 $65 reversed single #
face $-1 $66 $67 $34 $-1 $68 forward single #
face $-1 $69 $70 $35 $-1 $71 forward single #
face $-1 $72 $73 $27 $-1 $74 reversed single #
loop $-1 $-1 $75 $36 #
plane-surface $-1 0 0 16.855501298700243 0 0 1 1 0 0 forward_v I I I I #
face $-1 $76 $77 $28 $-1 $78 reversed single #
loop $-1 $-1 $79 $37 #
plane-surface $-1 0 -38.299669296319905 0 0 1 0 0 0 1 forward_v I I I I #
face $-1 $80 $81 $29 $-1 $82 reversed single #
loop $-1 $-1 $83 $38 #
plane-surface $-1 0 38.299669296319905 0 0 -1 0 0 0 -1 forward_v I I I I #
face $-1 $84 $85 $30 $-1 $86 reversed single #
loop $-1 $-1 $87 $39 #
plane-surface $-1 -151.59421533609591 -15.005000956288434 68.347798806966765 0 1 0 -0.84804810408105047 0 0.52991925155115449 forward_v I I I I #
face $-1 $88 $89 $31 $-1 $90 forward single #
loop $-1 $91 $92 $40 #
cone-surface $-1 -52.573553058277085 -12.041782867688255 12.103889048853507 0.84804810408105047 0 -0.52991925155115449 0.52991925155115449 0 0.84804810408105047 1 I I 0 1 1 forward I I I I #
face $-1 $93 $94 $32 $-1 $95 forward single #
loop $-1 $96 $97 $41 #
cone-surface $-1 -52.573553058277085 -7.5969557347879864 12.103889048853507 0.84804810408105047 0 -0.52991925155115449 0.52991925155115449 0 0.84804810408105047 1 I I 0 1 1 forward I I I I #
face $-1 $98 $99 $33 $-1 $100 reversed single #
loop $-1 $-1 $101 $42 #
plane-surface $-1 42.36650513344609 -3.6100062021312525 168.43426354530826 0 -1 0 -0.64278761758704617 0 -0.76604443648966558 forward_v I I I I #
face $-1 $102 $103 $34 $-1 $104 forward single #
loop $-1 $105 $106 $43 #
cone-surface $-1 51.551751989037719 -8.6021757594992039 12.723031922981686 -0.64278761758704617 0 -0.76604443648966558 0.38302221824483279 0 -0.32139380879352308 1 I I 0 1 0.5 forward I I I I #
face $-1 $107 $108 $35 $-1 $109 forward single #
loop $-1 $110 $111 $44 #
cone-surface $-1 51.551751989037719 -5.606874025078433 12.723031922981686 -0.64278761758704617 0 -0.76604443648966558 0.38302221824483279 0 -0.32139380879352308 1 I I 0 1 0.5 forward I I I I #
face $-1 $112 $113 $27 $-1 $114 reversed single #
loop $-1 $-1 $115 $45 #
plane-surface $-1 0 0 -16.855501298700243 0 0 1 1 0 0 forward_v I I I I #
coedge $-1 $116 $117 $118 $119 forward $46 $-1 #
face $-1 $120 $121 $28 $-1 $122 reversed single #
loop $-1 $-1 $123 $48 #
plane-surface $-1 0 0 -16.855501298700243 0 0 1 1 0 0 forward_v I I I I #
coedge $-1 $124 $125 $126 $127 forward $49 $-1 #
face $-1 $128 $129 $29 $-1 $130 reversed single #
loop $-1 $-1 $131 $51 #
plane-surface $-1 0 0 -16.855501298700243 0 0 1 1 0 0 forward_v I I I I #
coedge $-1 $132 $133 $134 $135 forward $52 $-1 #
face $-1 $136 $137 $30 $-1 $138 reversed single #
loop $-1 $-1 $139 $54 #
plane-surface $-1 -56.227301858577221 -9.8193693012381189 8.7559393716906015 -0.84804810408105047 0 0.52991925155115449 0.52991925155115449 0 0.84804810408105047 forward_v I I I I #
coedge $-1 $140 $141 $142 $143 reversed $55 $-1 #
face $-1 $-1 $144 $31 $-1 $145 forward single #
loop $-1 $146 $147 $57 #
cone-surface $-1 -51.026364127767209 -12.041782867688255 11.137098136736018 0.84804810408105047 0 -0.52991925155115449 0.26495962577557725 0 0.42402405204052523 1 I I -0.70710678118654746 0.70710678118654746 0.5 forward I I I I #
loop $-1 $-1 $148 $40 #
coedge $-1 $92 $92 $149 $150 reversed $58 $-1 #
face $-1 $-1 $151 $32 $-1 $152 forward single #
loop $-1 $153 $154 $60 #
cone-surface $-1 -51.026364127767209 -7.5969557347879864 11.137098136736018 0.84804810408105047 0 -0.52991925155115449 0.26495962577557725 0 0.42402405204052523 1 I I -0.70710678118654746 0.70710678118654746 0.5 forward I I I I #
loop $-1 $-1 $155 $41 #
coedge $-1 $97 $97 $156 $157 reversed $61 $-1 #
face $-1 $158 $159 $33 $-1 $160 reversed single #
loop $-1 $-1 $161 $63 #
plane-surface $-1 -29.917921676599015 -7.1045248922888184 82.289040010132013 0.64278761758704617 0 0.76604443648966558 0.76604443648966558 0 -0.64278761758704617 forward_v I I I I #
coedge $-1 $162 $163 $164 $165 reversed $64 $-1 #
face $-1 $-1 $166 $34 $-1 $167 forward single #
loop $-1 $168 $169 $66 #
cone-surface $-1 50.797790381589827 -8.6021757594992039 11.824495487447368 -0.64278761758704617 0 -0.76604443648966558 0.1915111091224164 0 -0.16069690439676154 1 I I -0.70710678118654746 0.70710678118654746 0.25 forward I I I I #
loop $-1 $-1 $170 $43 #
coedge $-1 $106 $106 $171 $172 reversed $67 $-1 #
face $-1 $-1 $173 $35 $-1 $174 forward single #
loop $-1 $175 $176 $69 #
cone-surface $-1 50.797790381589827 -5.606874025078433 11.824495487447368 -0.64278761758704617 0 -0.76604443648966558 0.1915111091224164 0 -0.16069690439676154 1 I I -0.70710678118654746 0.70710678118654746 0.25 forward I I I I #
loop $-1 $-1 $177 $44 #
coedge $-1 $111 $111 $178 $179 reversed $70 $-1 #
face $-1 $180 $181 $27 $-1 $182 reversed single #
loop $-1 $-1 $183 $72 #
plane-surface $-1 0 -38.299669296319905 0 0 1 0 0 0 1 forward_v I I I I #
coedge $-1 $184 $185 $186 $187 forward $73 $-1 #
coedge $-1 $188 $75 $189 $190 forward $46 $-1 #
coedge $-1 $75 $188 $191 $192 forward $46 $-1 #
coedge $-1 $193 $194 $75 $119 reversed $195 $-1 #
edge $-1 $196 -38.299669296319905 $197 38.299669296319905 $118 $198 forward 7 unknown #
face $-1 $199 $200 $28 $-1 $201 reversed single #
loop $-1 $-1 $202 $76 #
plane-surface $-1 -49.094522150675843 -53.769652194862331 0 0 1 0 0 0 1 forward_v I I I I #
coedge $-1 $203 $204 $125 $205 forward $77 $-1 #
coedge $-1 $206 $79 $207 $208 reversed $49 $-1 #
coedge $-1 $79 $206 $123 $205 reversed $49 $-1 #
coedge $-1 $209 $210 $79 $127 reversed $200 $-1 #
edge $-1 $211 -16.855501298700243 $212 16.855501298700243 $126 $213 forward 7 unknown #
face $-1 $214 $215 $29 $-1 $216 reversed single #
loop $-1 $-1 $217 $80 #
plane-surface $-1 -52.855181147361776 46.034660745591111 0 1 0 0 0 0 -1 forward_v I I I I #
coedge $-1 $218 $219 $133 $220 forward $81 $-1 #
coedge $-1 $221 $83 $222 $223 reversed $52 $-1 #
coedge $-1 $83 $221 $131 $220 reversed $52 $-1 #
coedge $-1 $224 $225 $83 $135 reversed $226 $-1 #
edge $-1 $227 -16.855501298700243 $228 16.855501298700243 $134 $229 forward 7 unknown #
face $-1 $230 $231 $30 $-1 $232 reversed single #
loop $-1 $-1 $233 $84 #
plane-surface $-1 -151.59421533609591 -4.6337376461878037 68.347798806966765 0 -1 0 0.84804810408105047 0 -0.52991925155115449 forward_v I I I I #
coedge $-1 $234 $235 $236 $237 reversed $85 $-1 #
coedge $-1 $141 $87 $238 $239 reversed $55 $-1 #
coedge $-1 $87 $140 $234 $240 reversed $55 $-1 #
coedge $-1 $236 $241 $87 $143 forward $242 $-1 #
edge $-1 $243 19.569805809470729 $244 24.630973653132308 $142 $245 forward 7 unknown #
loop $-1 $-1 $149 $88 #
plane-surface $-1 -56.227301858577221 -9.8193693012381189 8.7559393716906015 -0.84804810408105047 0 0.52991925155115449 0.52991925155115449 0 0.84804810408105047 forward_v I I I I #
loop $-1 $-1 $246 $57 #
coedge $-1 $147 $147 $148 $247 reversed $89 $-1 #
coedge $-1 $148 $148 $147 $247 forward $91 $-1 #
coedge $-1 $149 $149 $92 $150 forward $144 $-1 #
edge $-1 $248 0 $248 6.2831853071796004 $149 $249 forward 7 unknown #
loop $-1 $-1 $156 $93 #
plane-surface $-1 -56.227301858577221 -9.8193693012381189 8.7559393716906015 -0.84804810408105047 0 0.52991925155115449 0.52991925155115449 0 0.84804810408105047 forward_v I I I I #
loop $-1 $-1 $250 $60 #
coedge $-1 $154 $154 $155 $251 reversed $94 $-1 #
coedge $-1 $155 $155 $154 $251 forward $96 $-1 #
coedge $-1 $156 $156 $97 $157 forward $151 $-1 #
edge $-1 $252 0 $252 6.2831853071796004 $156 $253 forward 7 unknown #
face $-1 $254 $255 $33 $-1 $256 forward single #
loop $-1 $-1 $257 $98 #
plane-surface $-1 42.36650513344609 -10.599043582446384 168.43426354530826 0 1 0 0.64278761758704617 0 0.76604443648966558 forward_v I I I I #
coedge $-1 $258 $259 $260 $261 reversed $99 $-1 #
coedge $-1 $163 $101 $262 $263 reversed $64 $-1 #
coedge $-1 $101 $162 $258 $264 reversed $64 $-1 #
coedge $-1 $260 $265 $101 $165 forward $255 $-1 #
edge $-1 $266 -35.044049291854179 $267 -26.879478958877417 $164 $268 forward 7 unknown #
loop $-1 $-1 $171 $102 #
plane-surface $-1 -29.917921676599015 -7.1045248922888184 82.289040010132013 0.64278761758704617 0 0.76604443648966558 0.76604443648966558 0 -0.64278761758704617 forward_v I I I I #
loop $-1 $-1 $269 $66 #
coedge $-1 $169 $169 $170 $270 reversed $103 $-1 #
coedge $-1 $170 $170 $169 $270 forward $105 $-1 #
coedge $-1 $171 $171 $106 $172 forward $166 $-1 #
edge $-1 $271 0 $271 6.2831853071796004 $171 $272 forward 7 unknown #
loop $-1 $-1 $178 $107 #
plane-surface $-1 -29.917921676599015 -7.1045248922888184 82.289040010132013 0.64278761758704617 0 0.76604443648966558 0.76604443648966558 0 -0.64278761758704617 forward_v I I I I #
loop $-1 $-1 $273 $69 #
coedge $-1 $176 $176 $177 $274 reversed $108 $-1 #
coedge $-1 $177 $177 $176 $274 forward $110 $-1 #
coedge $-1 $178 $178 $111 $179 forward $173 $-1 #
edge $-1 $275 0 $275 6.2831853071796004 $178 $276 forward 7 unknown #
face $-1 $277 $278 $27 $-1 $279 reversed single #
loop $-1 $-1 $280 $112 #
plane-surface $-1 -56.227301858577228 0 0 1 0 0 0 0 -1 forward_v I I I I #
coedge $-1 $281 $191 $282 $283 forward $113 $-1 #
coedge $-1 $284 $115 $281 $285 forward $73 $-1 #
coedge $-1 $115 $284 $286 $287 forward $73 $-1 #
coedge $-1 $194 $193 $115 $187 reversed $195 $-1 #
edge $-1 $288 -38.299669296319905 $289 38.299669296319905 $186 $290 forward 7 unknown #
coedge $-1 $117 $116 $291 $292 forward $46 $-1 #
coedge $-1 $293 $294 $116 $190 reversed $278 $-1 #
edge $-1 $197 -56.227301858577228 $295 56.227301858577228 $189 $296 forward 7 unknown #
coedge $-1 $183 $297 $117 $192 reversed $113 $-1 #
edge $-1 $298 -56.227301858577228 $196 56.227301858577228 $191 $299 forward 7 unknown #
coedge $-1 $186 $118 $297 $300 forward $195 $-1 #
coedge $-1 $118 $186 $293 $301 reversed $195 $-1 #
loop $-1 $-1 $193 $277 #
vertex $-1 $119 $302 #
vertex $-1 $119 $303 #
straight-curve $-1 56.227301858577228 0 16.855501298700243 0 1 0 I I #
face $-1 $304 $305 $28 $-1 $306 reversed single #
loop $-1 $-1 $126 $120 #
plane-surface $-1 -52.855181147361776 -46.034660745591118 0 1 0 0 0 0 -1 forward_v I I I I #
coedge $-1 $307 $308 $309 $310 forward $121 $-1 #
coedge $-1 $311 $123 $312 $313 forward $77 $-1 #
coedge $-1 $123 $311 $209 $314 forward $77 $-1 #
edge $-1 $211 -52.855181147361776 $315 -45.33386315398991 $123 $316 forward 7 unknown #
coedge $-1 $125 $124 $317 $318 forward $49 $-1 #
coedge $-1 $319 $320 $124 $208 forward $321 $-1 #
edge $-1 $322 45.33386315398991 $212 52.855181147361776 $207 $323 forward 7 unknown #
coedge $-1 $309 $126 $204 $314 reversed $200 $-1 #
coedge $-1 $126 $309 $319 $324 reversed $200 $-1 #
vertex $-1 $205 $325 #
vertex $-1 $324 $326 #
straight-curve $-1 -52.855181147361776 -38.299669296319905 0 0 0 1 I I #
face $-1 $327 $226 $29 $-1 $328 reversed single #
loop $-1 $-1 $329 $128 #
plane-surface $-1 -49.094522150675843 53.769652194862324 0 0 -1 0 0 0 -1 forward_v I I I I #
coedge $-1 $330 $331 $332 $333 forward $129 $-1 #
coedge $-1 $334 $131 $330 $335 forward $81 $-1 #
coedge $-1 $131 $334 $224 $336 forward $81 $-1 #
edge $-1 $227 45.33386315398991 $337 52.855181147361776 $131 $338 forward 7 unknown #
coedge $-1 $133 $132 $339 $340 forward $52 $-1 #
coedge $-1 $341 $342 $132 $223 forward $343 $-1 #
edge $-1 $344 -52.855181147361776 $228 -45.33386315398991 $222 $345 forward 7 unknown #
coedge $-1 $346 $134 $219 $336 reversed $226 $-1 #
coedge $-1 $134 $346 $341 $347 reversed $226 $-1 #
loop $-1 $-1 $134 $214 #
vertex $-1 $220 $348 #
vertex $-1 $347 $349 #
straight-curve $-1 -45.33386315398991 38.299669296319905 0 0 0 1 I I #
face $-1 $-1 $242 $30 $-1 $350 forward single #
loop $-1 $-1 $351 $136 #
plane-surface $-1 -56.227301858577228 0 0 1 0 0 0 0 -1 forward_v I I I I #
coedge $-1 $352 $353 $354 $355 reversed $137 $-1 #
coedge $-1 $356 $139 $141 $240 forward $85 $-1 #
coedge $-1 $139 $356 $352 $357 forward $85 $-1 #
coedge $-1 $354 $142 $139 $237 forward $242 $-1 #
edge $-1 $244 -10.095316305669375 $358 0.27594700443125575 $236 $359 forward 7 unknown #
coedge $-1 $360 $361 $140 $239 forward $231 $-1 #
edge $-1 $362 -25.417960031792791 $243 -17.318398104783139 $238 $363 forward 7 unknown #
edge $-1 $244 -9.5508284117754982 $362 1.2803919046239758e-014 $141 $364 forward 7 unknown #
coedge $-1 $142 $354 $360 $365 forward $242 $-1 #
loop $-1 $-1 $354 $230 #
vertex $-1 $239 $366 #
vertex $-1 $143 $367 #
straight-curve $-1 -75.797107668047957 -15.005000956288434 16.855501298700243 1 0 0 I I #
coedge $-1 $246 $246 $-1 $368 reversed $146 $-1 #
edge $-1 $369 0 $369 6.2831853071796004 $147 $370 forward 7 unknown #
vertex $-1 $150 $371 #
ellipse-curve $-1 -53.696717936746438 -12.041782867688255 12.805720335195417 -0.84804810408105047 0 0.52991925155115449 0.52991925155115449 0 0.84804810408105047 1 I I #
coedge $-1 $250 $250 $-1 $372 reversed $153 $-1 #
edge $-1 $373 0 $373 6.2831853071796004 $154 $374 forward 7 unknown #
vertex $-1 $157 $375 #
ellipse-curve $-1 -53.696717936746438 -7.5969557347879864 12.805720335195417 -0.84804810408105047 0 0.52991925155115449 0.52991925155115449 0 0.84804810408105047 1 I I #
face $-1 $-1 $376 $33 $-1 $377 reversed single #
loop $-1 $-1 $164 $158 #
plane-surface $-1 0 0 16.855501298700243 0 0 1 1 0 0 forward_v I I I I #
coedge $-1 $378 $379 $380 $381 reversed $159 $-1 #
coedge $-1 $382 $161 $163 $264 forward $99 $-1 #
coedge $-1 $161 $382 $378 $383 forward $99 $-1 #
coedge $-1 $380 $164 $161 $261 forward $255 $-1 #
edge $-1 $267 0.057743755986843226 $384 7.0467811363019752 $260 $385 forward 7 unknown #
coedge $-1 $386 $387 $162 $263 forward $376 $-1 #
edge $-1 $388 -74.21251857256722 $266 -67.36163047395388 $262 $389 forward 7 unknown #
edge $-1 $267 101.79651399798593 $388 112.45460371715447 $163 $390 forward 7 unknown #
coedge $-1 $164 $380 $386 $391 forward $255 $-1 #
vertex $-1 $165 $392 #
vertex $-1 $165 $393 #
straight-curve $-1 21.183252566723045 -3.6100062021312525 16.855501298700247 -1 0 0 I I #
coedge $-1 $269 $269 $-1 $394 reversed $168 $-1 #
edge $-1 $395 0 $395 6.2831853071796004 $169 $396 forward 7 unknown #
vertex $-1 $172 $397 #
ellipse-curve $-1 52.145016692088845 -8.6021757594992039 13.430057249393583 0.64278761758704617 0 0.76604443648966558 0.38302221824483279 0 -0.32139380879352308 1 I I #
coedge $-1 $273 $273 $-1 $398 reversed $175 $-1 #
edge $-1 $399 0 $399 6.2831853071796004 $176 $400 forward 7 unknown #
vertex $-1 $179 $401 #
ellipse-curve $-1 52.145016692088845 -5.606874025078433 13.430057249393583 0.64278761758704617 0 0.76604443648966558 0.38302221824483279 0 -0.32139380879352308 1 I I #
face $-1 $-1 $195 $27 $-1 $402 reversed single #
loop $-1 $-1 $293 $180 #
plane-surface $-1 0 38.299669296319905 0 0 -1 0 0 0 -1 forward_v I I I I #
coedge $-1 $403 $291 $294 $404 forward $181 $-1 #
coedge $-1 $297 $183 $184 $285 reversed $113 $-1 #
coedge $-1 $291 $403 $183 $283 reversed $181 $-1 #
edge $-1 $298 -16.855501298700243 $405 16.855501298700243 $282 $406 forward 7 unknown #
coedge $-1 $185 $184 $403 $407 forward $73 $-1 #
edge $-1 $289 -56.227301858577228 $405 56.227301858577228 $281 $408 forward 7 unknown #
coedge $-1 $294 $293 $185 $287 reversed $278 $-1 #
edge $-1 $409 -56.227301858577228 $288 56.227301858577228 $286 $410 forward 7 unknown #
vertex $-1 $187 $411 #
vertex $-1 $300 $412 #
straight-curve $-1 56.227301858577228 0 -16.855501298700243 0 -1 0 I I #
coedge $-1 $280 $282 $188 $292 reversed $181 $-1 #
edge $-1 $295 -38.299669296319905 $298 38.299669296319905 $291 $413 forward 7 unknown #
coedge $-1 $286 $189 $194 $301 forward $278 $-1 #
coedge $-1 $189 $286 $280 $404 reversed $278 $-1 #
vertex $-1 $190 $414 #
straight-curve $-1 0 38.299669296319905 16.855501298700243 -1 0 0 I I #
coedge $-1 $191 $281 $193 $300 reversed $113 $-1 #
vertex $-1 $292 $415 #
straight-curve $-1 0 -38.299669296319905 16.855501298700243 1 0 0 I I #
edge $-1 $196 -16.855501298700243 $289 16.855501298700243 $193 $416 forward 7 unknown #
edge $-1 $197 -16.855501298700243 $288 16.855501298700243 $194 $417 forward 7 unknown #
point $-1 56.227301858577228 -38.299669296319905 16.855501298700243 #
point $-1 56.227301858577228 38.299669296319905 16.855501298700243 #
face $-1 $-1 $321 $28 $-1 $418 forward single #
loop $-1 $-1 $419 $199 #
plane-surface $-1 -45.33386315398991 -46.034660745591118 0 -1 0 0 0 0 1 forward_v I I I I #
coedge $-1 $420 $202 $311 $421 reversed $121 $-1 #
coedge $-1 $202 $420 $422 $423 reversed $121 $-1 #
coedge $-1 $210 $209 $202 $310 reversed $200 $-1 #
edge $-1 $424 -16.855501298700243 $425 16.855501298700243 $309 $426 forward 7 unknown #
coedge $-1 $204 $203 $307 $421 forward $77 $-1 #
coedge $-1 $317 $419 $203 $313 reversed $305 $-1 #
edge $-1 $315 -7.7349914492712131 $427 7.7349914492712131 $312 $428 forward 7 unknown #
edge $-1 $425 -7.7349914492712131 $211 7.7349914492712131 $209 $429 forward 7 unknown #
vertex $-1 $313 $430 #
straight-curve $-1 0 -38.299669296319905 -16.855501298700243 1 0 0 I I #
coedge $-1 $431 $312 $206 $318 reversed $305 $-1 #
edge $-1 $322 -16.855501298700243 $315 16.855501298700243 $317 $432 forward 7 unknown #
coedge $-1 $422 $207 $210 $324 forward $321 $-1 #
coedge $-1 $207 $422 $431 $433 forward $321 $-1 #
loop $-1 $-1 $207 $304 #
vertex $-1 $208 $434 #
straight-curve $-1 0 -38.299669296319905 16.855501298700243 -1 0 0 I I #
edge $-1 $212 -7.7349914492712131 $424 7.7349914492712131 $210 $435 forward 7 unknown #
point $-1 -52.855181147361776 -38.299669296319905 -16.855501298700243 #
point $-1 -52.855181147361776 -38.299669296319905 16.855501298700243 #
face $-1 $-1 $343 $29 $-1 $436 forward single #
plane-surface $-1 -45.33386315398991 46.034660745591111 0 -1 0 0 0 0 1 forward_v I I I I #
coedge $-1 $437 $438 $346 $439 forward $215 $-1 #
coedge $-1 $339 $217 $218 $335 reversed $129 $-1 #
coedge $-1 $217 $339 $342 $440 reversed $129 $-1 #
coedge $-1 $438 $437 $217 $333 reversed $215 $-1 #
edge $-1 $441 -16.855501298700243 $442 16.855501298700243 $332 $443 forward 7 unknown #
coedge $-1 $219 $218 $437 $444 forward $81 $-1 #
edge $-1 $337 -7.7349914492712131 $442 7.7349914492712131 $330 $445 forward 7 unknown #
edge $-1 $446 -7.7349914492712131 $227 7.7349914492712131 $224 $447 forward 7 unknown #
vertex $-1 $335 $448 #
straight-curve $-1 0 38.299669296319905 -16.855501298700243 -1 0 0 I I #
coedge $-1 $331 $330 $221 $340 reversed $129 $-1 #
edge $-1 $344 -16.855501298700243 $337 16.855501298700243 $339 $449 forward 7 unknown #
coedge $-1 $450 $222 $225 $347 forward $343 $-1 #
coedge $-1 $222 $450 $331 $440 forward $343 $-1 #
loop $-1 $-1 $222 $327 #
vertex $-1 $223 $451 #
straight-curve $-1 0 38.299669296319905 16.855501298700243 1 0 0 I I #
coedge $-1 $225 $224 $329 $439 reversed $226 $-1 #
edge $-1 $228 -7.7349914492712131 $452 7.7349914492712131 $225 $453 forward 7 unknown #
point $-1 -45.33386315398991 38.299669296319898 -16.855501298700243 #
point $-1 -45.33386315398991 38.299669296319898 16.855501298700243 #
plane-surface $-1 0 0 16.855501298700243 0 0 1 1 0 0 forward_v I I I I #
coedge $-1 $361 $360 $353 $454 forward $231 $-1 #
coedge $-1 $353 $233 $235 $357 reversed $137 $-1 #
coedge $-1 $233 $352 $351 $454 reversed $137 $-1 #
coedge $-1 $241 $236 $233 $355 forward $242 $-1 #
edge $-1 $358 -24.630973653132308 $455 -19.569805809470729 $354 $456 forward 7 unknown #
coedge $-1 $235 $234 $361 $457 reversed $85 $-1 #
edge $-1 $458 -1.2803919046239758e-014 $358 9.5508284117754982 $352 $459 forward 7 unknown #
vertex $-1 $237 $460 #
straight-curve $-1 -51.166134014915649 -4.9096846506190595 16.855501298700243 0 1 0 I I #
coedge $-1 $351 $238 $241 $365 reversed $231 $-1 #
coedge $-1 $238 $351 $356 $457 forward $231 $-1 #
vertex $-1 $239 $461 #
straight-curve $-1 -56.227301858577228 -15.005000956288434 34.173899403483382 0 0 1 I I #
straight-curve $-1 -56.227301858577221 -15.005000956288434 8.7559393716906015 -0.52991925155115449 0 -0.84804810408105047 I I #
edge $-1 $455 4.6337376461878037 $243 15.005000956288434 $360 $462 forward 7 unknown #
point $-1 -56.227301858577228 -15.005000956288434 16.855501298700243 #
point $-1 -51.166134014915649 -15.005000956288434 16.855501298700243 #
edge $-1 $463 1 $463 0 $246 $-1 forward 7 unknown #
vertex $-1 $247 $464 #
ellipse-curve $-1 -51.450388179807732 -12.041782867688255 11.402057762511594 -0.84804810408105047 0 0.52991925155115449 0.52991925155115449 0 0.84804810408105047 1 I I #
point $-1 -53.166798685195289 -12.041782867688255 13.653768439276469 #
edge $-1 $465 1 $465 0 $250 $-1 forward 7 unknown #
vertex $-1 $251 $466 #
ellipse-curve $-1 -51.450388179807732 -7.5969557347879864 11.402057762511594 -0.84804810408105047 0 0.52991925155115449 0.52991925155115449 0 0.84804810408105047 1 I I #
point $-1 -53.166798685195289 -7.5969557347879864 13.653768439276469 #
loop $-1 $-1 $262 $254 #
plane-surface $-1 56.227301858577228 0 0 -1 0 0 0 0 1 forward_v I I I I #
coedge $-1 $379 $257 $259 $383 reversed $159 $-1 #
coedge $-1 $257 $378 $467 $468 reversed $159 $-1 #
coedge $-1 $265 $260 $257 $381 forward $255 $-1 #
edge $-1 $384 26.879478958877417 $469 35.044049291854179 $380 $470 forward 7 unknown #
coedge $-1 $259 $258 $387 $471 reversed $99 $-1 #
edge $-1 $472 -112.45460371715447 $384 -101.79651399798593 $378 $473 forward 7 unknown #
vertex $-1 $261 $474 #
straight-curve $-1 48.062731525600455 -3.5522624461444092 16.855501298700247 0 -1 0 I I #
coedge $-1 $467 $262 $265 $391 reversed $376 $-1 #
coedge $-1 $262 $467 $382 $471 forward $376 $-1 #
vertex $-1 $263 $475 #
straight-curve $-1 56.227301858577228 -3.6100062021312525 84.217131772654128 0 0 1 I I #
straight-curve $-1 -29.917921676599015 -3.6100062021312525 82.289040010132013 0.76604443648966558 0 -0.64278761758704617 I I #
edge $-1 $469 -10.599043582446384 $266 -3.6100062021312525 $386 $476 forward 7 unknown #
point $-1 56.227301858577228 -3.6100062021312525 16.855501298700243 #
point $-1 48.062731525600462 -3.6100062021312525 16.855501298700247 #
edge $-1 $477 1 $477 0 $269 $-1 forward 7 unknown #
vertex $-1 $270 $478 #
ellipse-curve $-1 50.958487285986585 -8.6021757594992039 12.016006596569785 0.64278761758704617 0 0.76604443648966558 0.38302221824483279 0 -0.32139380879352308 1 I I #
point $-1 52.528038910333677 -8.6021757594992039 13.108663440600063 #
edge $-1 $479 1 $479 0 $273 $-1 forward 7 unknown #
vertex $-1 $274 $480 #
ellipse-curve $-1 50.958487285986585 -5.606874025078433 12.016006596569785 0.64278761758704617 0 0.76604443648966558 0.38302221824483279 0 -0.32139380879352308 1 I I #
point $-1 52.528038910333677 -5.606874025078433 13.108663440600063 #
plane-surface $-1 56.227301858577228 0 0 -1 0 0 0 0 1 forward_v I I I I #
coedge $-1 $282 $280 $284 $407 reversed $181 $-1 #
edge $-1 $295 -16.855501298700243 $409 16.855501298700243 $294 $481 forward 7 unknown #
vertex $-1 $407 $482 #
straight-curve $-1 -56.227301858577228 -38.299669296319905 0 0 0 -1 I I #
edge $-1 $405 -38.299669296319905 $409 38.299669296319905 $403 $483 forward 7 unknown #
straight-curve $-1 0 -38.299669296319905 -16.855501298700243 -1 0 0 I I #
vertex $-1 $287 $484 #
straight-curve $-1 0 38.299669296319905 -16.855501298700243 1 0 0 I I #
point $-1 56.227301858577228 38.299669296319905 -16.855501298700243 #
point $-1 56.227301858577228 -38.299669296319905 -16.855501298700243 #
straight-curve $-1 -56.227301858577228 0 16.855501298700243 0 -1 0 I I #
point $-1 -56.227301858577228 38.299669296319905 16.855501298700243 #
point $-1 -56.227301858577228 -38.299669296319905 16.855501298700243 #
straight-curve $-1 56.227301858577228 -38.299669296319905 0 0 0 -1 I I #
straight-curve $-1 56.227301858577228 38.299669296319905 0 0 0 -1 I I #
plane-surface $-1 0 0 16.855501298700243 0 0 1 1 0 0 forward_v I I I I #
coedge $-1 $312 $431 $420 $485 forward $305 $-1 #
coedge $-1 $308 $307 $419 $485 reversed $121 $-1 #
edge $-1 $427 -3.7606589966859332 $425 3.7606589966859332 $307 $486 forward 7 unknown #
coedge $-1 $320 $319 $308 $423 forward $321 $-1 #
edge $-1 $424 -3.7606589966859332 $487 3.7606589966859332 $308 $488 forward 7 unknown #
vertex $-1 $324 $489 #
vertex $-1 $314 $490 #
straight-curve $-1 -52.855181147361776 -53.769652194862331 0 0 0 -1 I I #
vertex $-1 $485 $491 #
straight-curve $-1 -45.33386315398991 -46.034660745591118 -16.855501298700243 0 -1 0 I I #
straight-curve $-1 -52.855181147361776 -46.034660745591118 -16.855501298700243 0 1 0 I I #
point $-1 -45.33386315398991 -38.299669296319905 -16.855501298700243 #
coedge $-1 $419 $317 $320 $433 reversed $305 $-1 #
straight-curve $-1 -45.33386315398991 -38.299669296319905 0 0 0 -1 I I #
edge $-1 $487 -7.7349914492712131 $322 7.7349914492712131 $431 $492 forward 7 unknown #
point $-1 -45.33386315398991 -38.299669296319905 16.855501298700243 #
straight-curve $-1 -52.855181147361776 -46.034660745591118 16.855501298700243 0 -1 0 I I #
plane-surface $-1 0 0 16.855501298700243 0 0 1 1 0 0 forward_v I I I I #
coedge $-1 $332 $329 $334 $444 reversed $215 $-1 #
coedge $-1 $329 $332 $450 $493 reversed $215 $-1 #
edge $-1 $452 -16.855501298700243 $446 16.855501298700243 $346 $494 forward 7 unknown #
edge $-1 $441 -7.7349914492712131 $344 7.7349914492712131 $331 $495 forward 7 unknown #
vertex $-1 $493 $496 #
vertex $-1 $444 $497 #
straight-curve $-1 -52.855181147361776 53.769652194862324 0 0 0 -1 I I #
edge $-1 $442 -3.7606589966859332 $446 3.7606589966859332 $437 $498 forward 7 unknown #
straight-curve $-1 -52.855181147361776 46.034660745591111 -16.855501298700243 0 1 0 I I #
vertex $-1 $336 $499 #
straight-curve $-1 -45.33386315398991 46.034660745591111 -16.855501298700243 0 -1 0 I I #
point $-1 -52.855181147361776 38.299669296319898 -16.855501298700243 #
straight-curve $-1 -52.855181147361776 38.299669296319905 0 0 0 -1 I I #
coedge $-1 $342 $341 $438 $493 forward $343 $-1 #
point $-1 -52.855181147361776 38.299669296319898 16.855501298700243 #
vertex $-1 $347 $500 #
straight-curve $-1 -45.33386315398991 46.034660745591111 16.855501298700243 0 1 0 I I #
edge $-1 $455 17.318398104783139 $458 25.417960031792791 $351 $501 forward 7 unknown #
vertex $-1 $365 $502 #
straight-curve $-1 -75.797107668047957 -4.6337376461878037 16.855501298700243 -1 0 0 I I #
edge $-1 $458 -0.27594700443125575 $362 10.095316305669375 $361 $503 forward 7 unknown #
vertex $-1 $457 $504 #
straight-curve $-1 -56.227301858577221 -4.6337376461878037 8.7559393716906015 0.52991925155115449 0 0.84804810408105047 I I #
point $-1 -51.166134014915649 -4.6337376461878037 16.855501298700243 #
point $-1 -56.227301858577228 -15.005000956288434 8.7559393716905909 #
straight-curve $-1 -56.227301858577228 0 16.855501298700243 0 -1 0 I I #
vertex $-1 $368 $505 #
point $-1 -50.920468928256582 -12.041782867688255 12.250105866592646 #
vertex $-1 $372 $506 #
point $-1 -50.920468928256582 -7.5969557347879864 12.250105866592646 #
coedge $-1 $387 $386 $379 $468 forward $376 $-1 #
edge $-1 $469 67.36163047395388 $472 74.21251857256722 $467 $507 forward 7 unknown #
vertex $-1 $391 $508 #
straight-curve $-1 21.183252566723045 -10.599043582446384 16.855501298700247 1 0 0 I I #
edge $-1 $472 -7.0467811363019752 $388 -0.057743755986843226 $387 $509 forward 7 unknown #
vertex $-1 $471 $510 #
straight-curve $-1 -29.917921676599015 -10.599043582446384 82.289040010132013 -0.76604443648966558 0 0.64278761758704617 I I #
point $-1 48.062731525600462 -10.599043582446384 16.855501298700247 #
point $-1 56.227301858577228 -3.6100062021312525 10.004613200086908 #
straight-curve $-1 56.227301858577228 0 16.855501298700243 0 1 0 I I #
vertex $-1 $394 $511 #
point $-1 51.341509504231425 -8.6021757594992039 11.694612787776261 #
vertex $-1 $398 $512 #
point $-1 51.341509504231425 -5.606874025078433 11.694612787776261 #
straight-curve $-1 -56.227301858577228 38.299669296319905 0 0 0 -1 I I #
point $-1 -56.227301858577228 -38.299669296319905 -16.855501298700243 #
straight-curve $-1 -56.227301858577228 0 -16.855501298700243 0 1 0 I I #
point $-1 -56.227301858577228 38.299669296319905 -16.855501298700243 #
edge $-1 $487 -16.855501298700243 $427 16.855501298700243 $419 $513 forward 7 unknown #
straight-curve $-1 -49.094522150675843 -53.769652194862331 -16.855501298700243 -1 0 0 I I #
vertex $-1 $433 $514 #
straight-curve $-1 -49.094522150675843 -53.769652194862331 16.855501298700243 1 0 0 I I #
point $-1 -52.855181147361776 -53.769652194862331 16.855501298700243 #
point $-1 -52.855181147361776 -53.769652194862331 -16.855501298700243 #
point $-1 -45.33386315398991 -53.769652194862331 -16.855501298700243 #
straight-curve $-1 -45.33386315398991 -46.034660745591118 16.855501298700243 0 1 0 I I #
edge $-1 $452 -3.7606589966859332 $441 3.7606589966859332 $438 $515 forward 7 unknown #
straight-curve $-1 -45.33386315398991 53.769652194862324 0 0 0 -1 I I #
straight-curve $-1 -52.855181147361776 46.034660745591111 16.855501298700243 0 -1 0 I I #
point $-1 -52.855181147361776 53.769652194862324 16.855501298700243 #
point $-1 -52.855181147361776 53.769652194862324 -16.855501298700243 #
straight-curve $-1 -49.094522150675843 53.769652194862324 -16.855501298700243 1 0 0 I I #
point $-1 -45.33386315398991 53.769652194862324 -16.855501298700243 #
point $-1 -45.33386315398991 53.769652194862324 16.855501298700243 #
straight-curve $-1 -56.227301858577228 -4.6337376461878037 34.173899403483382 0 0 -1 I I #
point $-1 -56.227301858577228 -4.6337376461878037 16.855501298700243 #
straight-curve $-1 -56.227301858577228 -4.9096846506190595 8.7559393716905873 0 -1 0 I I #
point $-1 -56.227301858577228 -4.6337376461878037 8.7559393716905909 #
point $-1 -50.602340075726687 -12.041782867688255 10.872138510960442 #
point $-1 -50.602340075726687 -7.5969557347879864 10.872138510960442 #
straight-curve $-1 56.227301858577228 -10.599043582446384 84.217131772654128 0 0 -1 I I #
point $-1 56.227301858577228 -10.599043582446384 16.855501298700243 #
straight-curve $-1 56.227301858577221 -3.5522624461444092 10.004613200086915 0 1 0 I I #
point $-1 56.227301858577228 -10.599043582446384 10.004613200086908 #
point $-1 50.637093477193069 -8.6021757594992039 11.632984378324952 #
point $-1 50.637093477193069 -5.606874025078433 11.632984378324952 #
straight-curve $-1 -45.33386315398991 -53.769652194862331 0 0 0 -1 I I #
point $-1 -45.33386315398991 -53.769652194862331 16.855501298700243 #
straight-curve $-1 -49.094522150675843 53.769652194862324 16.855501298700243 -1 0 0 I I #
End-of-ACIS-data 