500 0 12 0           
7 Unknown 11 ACIS 5.0 NT 24 Thu Mar 25 17:34:47 1999 
-1 9.9999999999999995e-007 1e-010 
body $-1 $12 $-1 $13 #
body $-1 $14 $-1 $15 #
body $-1 $16 $-1 $17 #
body $-1 $18 $-1 $19 #
body $-1 $20 $-1 $21 #
body $-1 $22 $-1 $23 #
body $-1 $24 $-1 $25 #
body $-1 $26 $-1 $27 #
body $-1 $28 $-1 $29 #
body $-1 $30 $-1 $31 #
body $-1 $32 $-1 $33 #
body $-1 $34 $-1 $35 #
lump $-1 $-1 $36 $0 #
transform $-1 1 0 0 0 1 0 0 0 1 59.332865382854699 24.906512551289097 5.1942852311926382 1 rotate no_reflect no_shear #
lump $-1 $-1 $37 $1 #
transform $-1 1 0 0 0 1 0 0 0 1 59.332865382854699 24.906512551289097 5.1942852311926382 1 rotate no_reflect no_shear #
lump $-1 $-1 $38 $2 #
transform $-1 1 0 0 0 1 0 0 0 1 59.332865382854699 24.906512551289097 5.1942852311926382 1 rotate no_reflect no_shear #
lump $-1 $-1 $39 $3 #
transform $-1 1 0 0 0 1 0 0 0 1 59.332865382854699 24.906512551289097 5.1942852311926382 1 rotate no_reflect no_shear #
lump $-1 $-1 $40 $4 #
transform $-1 1 0 0 0 1 0 0 0 1 59.332865382854699 24.906512551289097 5.1942852311926382 1 rotate no_reflect no_shear #
lump $-1 $-1 $41 $5 #
transform $-1 1 0 0 0 1 0 0 0 1 59.332865382854699 24.906512551289097 5.1942852311926382 1 rotate no_reflect no_shear #
lump $-1 $-1 $42 $6 #
transform $-1 1 0 0 0 1 0 0 0 1 59.332865382854699 24.906512551289097 5.1942852311926382 1 rotate no_reflect no_shear #
lump $-1 $-1 $43 $7 #
transform $-1 1 0 0 0 1 0 0 0 1 59.332865382854699 24.906512551289097 5.1942852311926382 1 rotate no_reflect no_shear #
lump $-1 $-1 $44 $8 #
transform $-1 1 0 0 0 1 0 0 0 1 59.332865382854699 24.906512551289097 5.1942852311926382 1 rotate no_reflect no_shear #
lump $-1 $-1 $45 $9 #
transform $-1 1 0 0 0 1 0 0 0 1 59.332865382854699 24.906512551289097 5.1942852311926382 1 rotate no_reflect no_shear #
lump $-1 $-1 $46 $10 #
transform $-1 1 0 0 0 1 0 0 0 1 59.332865382854699 24.906512551289097 5.1942852311926382 1 rotate no_reflect no_shear #
lump $-1 $-1 $47 $11 #
transform $-1 1 0 0 0 1 0 0 0 1 59.332865382854699 24.906512551289097 5.1942852311926382 1 rotate no_reflect no_shear #
shell $-1 $-1 $-1 $48 $-1 $12 #
shell $-1 $-1 $-1 $49 $-1 $14 #
shell $-1 $-1 $-1 $50 $-1 $16 #
shell $-1 $-1 $-1 $51 $-1 $18 #
shell $-1 $-1 $-1 $52 $-1 $20 #
shell $-1 $-1 $-1 $53 $-1 $22 #
shell $-1 $-1 $-1 $54 $-1 $24 #
shell $-1 $-1 $-1 $55 $-1 $26 #
shell $-1 $-1 $-1 $56 $-1 $28 #
shell $-1 $-1 $-1 $57 $-1 $30 #
shell $-1 $-1 $-1 $58 $-1 $32 #
shell $-1 $-1 $-1 $59 $-1 $34 #
face $-1 $60 $61 $36 $-1 $62 forward single #
face $-1 $63 $64 $37 $-1 $65 reversed single #
face $-1 $66 $67 $38 $-1 $68 reversed single #
face $-1 $69 $70 $39 $-1 $71 forward single #
face $-1 $72 $73 $40 $-1 $74 forward single #
face $-1 $75 $76 $41 $-1 $77 reversed single #
face $-1 $78 $79 $42 $-1 $80 forward single #
face $-1 $81 $82 $43 $-1 $83 forward single #
face $-1 $84 $85 $44 $-1 $86 reversed single #
face $-1 $87 $88 $45 $-1 $89 forward single #
face $-1 $90 $91 $46 $-1 $92 forward single #
face $-1 $93 $94 $47 $-1 $95 forward single #
face $-1 $96 $97 $36 $-1 $98 reversed single #
loop $-1 $-1 $99 $48 #
plane-surface $-1 0 0 5.1942852311926382 0 0 1 1 0 0 forward_v I I I I #
face $-1 $100 $101 $37 $-1 $102 reversed single #
loop $-1 $-1 $103 $49 #
plane-surface $-1 -57.832865382854699 -19.078514059449319 0 0 -1 0 0 0 -1 forward_v I I I I #
face $-1 $104 $105 $38 $-1 $106 reversed single #
loop $-1 $-1 $107 $50 #
plane-surface $-1 -129.08283277054792 -9.3674970480342381 97.587550926413257 0 -1 0 0.5877852598018023 0 -0.80901698891910034 forward_v I I I I #
face $-1 $108 $109 $39 $-1 $110 forward single #
loop $-1 $111 $112 $51 #
cone-surface $-1 -56.015679288439351 -16.303937770473581 2.2427100995945235 0.5877852598018023 0 -0.80901698891910034 0.80901698891910034 0 0.5877852598018023 1 I I 0 1 1 forward I I I I #
face $-1 $113 $114 $40 $-1 $115 forward single #
loop $-1 $116 $117 $52 #
cone-surface $-1 -56.015679288439351 -12.142073337009975 2.2427100995945235 0.5877852598018023 0 -0.80901698891910034 0.80901698891910034 0 0.5877852598018023 1 I I 0 1 1 forward I I I I #
face $-1 $118 $119 $41 $-1 $120 reversed single #
loop $-1 $-1 $121 $53 #
plane-surface $-1 -59.332865382854706 20.051004045581557 1.5849587344543892 -0.5877852598018023 0 0.80901698891910034 0.80901698891910034 0 0.5877852598018023 forward_v I I I I #
face $-1 $122 $123 $42 $-1 $124 forward single #
loop $-1 $125 $126 $54 #
cone-surface $-1 -56.015679288439351 17.970071828849754 2.2427100995945235 0.5877852598018023 0 -0.80901698891910034 0.80901698891910034 0 0.5877852598018023 1 I I 0 1 1 forward I I I I #
face $-1 $127 $128 $43 $-1 $129 forward single #
loop $-1 $130 $131 $55 #
cone-surface $-1 -56.015679288439351 22.13193626231336 2.2427100995945235 0.5877852598018023 0 -0.80901698891910034 0.80901698891910034 0 0.5877852598018023 1 I I 0 1 1 forward I I I I #
face $-1 $132 $133 $44 $-1 $134 reversed single #
loop $-1 $-1 $135 $56 #
plane-surface $-1 53.476079569293709 18.956177647238341 168.90423681604685 0 -1 0 -0.68199836817093118 0 -0.7313536940579346 forward_v I I I I #
face $-1 $136 $137 $45 $-1 $138 forward single #
loop $-1 $139 $140 $57 #
cone-surface $-1 56.602204185110587 11.225007855678513 2.5664465639334164 -0.68199836817093118 0 -0.7313536940579346 0.3656768470289673 0 -0.34099918408546559 1 I I 0 1 0.5 forward I I I I #
face $-1 $141 $142 $46 $-1 $143 forward single #
loop $-1 $144 $145 $58 #
cone-surface $-1 56.602204185110587 14.124196527513448 2.5664465639334164 -0.68199836817093118 0 -0.7313536940579346 0.3656768470289673 0 -0.34099918408546559 1 I I 0 1 0.5 forward I I I I #
face $-1 $146 $147 $47 $-1 $148 forward single #
loop $-1 $149 $150 $59 #
cone-surface $-1 56.602204185110587 17.023385199348382 2.5664465639334164 -0.68199836817093118 0 -0.7313536940579346 0.3656768470289673 0 -0.34099918408546559 1 I I 0 1 0.5 forward I I I I #
face $-1 $151 $152 $36 $-1 $153 reversed single #
loop $-1 $-1 $154 $60 #
plane-surface $-1 0 0 -5.1942852311926382 0 0 1 1 0 0 forward_v I I I I #
coedge $-1 $155 $156 $157 $158 forward $61 $-1 #
face $-1 $159 $160 $37 $-1 $161 forward single #
loop $-1 $-1 $162 $63 #
plane-surface $-1 -56.332865382854699 -21.992513305369208 0 -1 0 0 0 0 1 forward_v I I I I #
coedge $-1 $163 $164 $165 $166 forward $64 $-1 #
face $-1 $167 $168 $38 $-1 $169 forward single #
loop $-1 $-1 $170 $66 #
plane-surface $-1 -59.332865382854706 -14.223005553741777 1.5849587344543892 -0.5877852598018023 0 0.80901698891910034 0.80901698891910034 0 0.5877852598018023 forward_v I I I I #
coedge $-1 $171 $172 $173 $174 reversed $67 $-1 #
face $-1 $-1 $175 $39 $-1 $176 forward single #
loop $-1 $177 $178 $69 #
cone-surface $-1 -54.888506383232709 -16.303937770473581 0.69128972190597793 0.5877852598018023 0 -0.80901698891910034 0.40450849445955017 0 0.29389262990090115 1 I I -0.70710678118654746 0.70710678118654746 0.5 forward I I I I #
loop $-1 $-1 $179 $51 #
coedge $-1 $112 $112 $180 $181 reversed $70 $-1 #
face $-1 $-1 $182 $40 $-1 $183 forward single #
loop $-1 $184 $185 $72 #
cone-surface $-1 -54.888506383232709 -12.142073337009975 0.69128972190597793 0.5877852598018023 0 -0.80901698891910034 0.40450849445955017 0 0.29389262990090115 1 I I -0.70710678118654746 0.70710678118654746 0.5 forward I I I I #
loop $-1 $-1 $186 $52 #
coedge $-1 $117 $117 $187 $188 reversed $73 $-1 #
face $-1 $189 $190 $41 $-1 $191 reversed single #
loop $-1 $-1 $192 $75 #
plane-surface $-1 -129.08283277054792 15.195495539874019 97.587550926413257 0 1 0 -0.5877852598018023 0 0.80901698891910034 forward_v I I I I #
coedge $-1 $193 $194 $195 $196 reversed $76 $-1 #
face $-1 $-1 $197 $42 $-1 $198 forward single #
loop $-1 $199 $200 $78 #
cone-surface $-1 -54.888506383232709 17.970071828849754 0.69128972190597793 0.5877852598018023 0 -0.80901698891910034 0.40450849445955017 0 0.29389262990090115 1 I I -0.70710678118654746 0.70710678118654746 0.5 forward I I I I #
loop $-1 $-1 $201 $54 #
coedge $-1 $126 $126 $202 $203 reversed $79 $-1 #
face $-1 $-1 $204 $43 $-1 $205 forward single #
loop $-1 $206 $207 $81 #
cone-surface $-1 -54.888506383232709 22.13193626231336 0.69128972190597793 0.5877852598018023 0 -0.80901698891910034 0.40450849445955017 0 0.29389262990090115 1 I I -0.70710678118654746 0.70710678118654746 0.5 forward I I I I #
loop $-1 $-1 $208 $55 #
coedge $-1 $131 $131 $209 $210 reversed $82 $-1 #
face $-1 $211 $212 $44 $-1 $213 reversed single #
loop $-1 $-1 $214 $84 #
plane-surface $-1 -27.453755170731164 14.124196527513448 82.117616262460984 0.68199836817093118 0 0.7313536940579346 0.7313536940579346 0 -0.68199836817093118 forward_v I I I I #
coedge $-1 $215 $216 $217 $218 reversed $85 $-1 #
face $-1 $-1 $219 $45 $-1 $220 forward single #
loop $-1 $221 $222 $87 #
cone-surface $-1 55.849267954507376 11.225007855678513 1.7590213275379787 -0.68199836817093118 0 -0.7313536940579346 0.18283842351448365 0 -0.17049959204273279 1 I I -0.70710678118654746 0.70710678118654746 0.25 forward I I I I #
loop $-1 $-1 $223 $57 #
coedge $-1 $140 $140 $224 $225 reversed $88 $-1 #
face $-1 $-1 $226 $46 $-1 $227 forward single #
loop $-1 $228 $229 $90 #
cone-surface $-1 55.849267954507376 14.124196527513448 1.7590213275379787 -0.68199836817093118 0 -0.7313536940579346 0.18283842351448365 0 -0.17049959204273279 1 I I -0.70710678118654746 0.70710678118654746 0.25 forward I I I I #
loop $-1 $-1 $230 $58 #
coedge $-1 $145 $145 $231 $232 reversed $91 $-1 #
face $-1 $-1 $233 $47 $-1 $234 forward single #
loop $-1 $235 $236 $93 #
cone-surface $-1 55.849267954507376 17.023385199348382 1.7590213275379787 -0.68199836817093118 0 -0.7313536940579346 0.18283842351448365 0 -0.17049959204273279 1 I I -0.70710678118654746 0.70710678118654746 0.25 forward I I I I #
loop $-1 $-1 $237 $59 #
coedge $-1 $150 $150 $238 $239 reversed $94 $-1 #
face $-1 $240 $241 $36 $-1 $242 reversed single #
loop $-1 $-1 $243 $96 #
plane-surface $-1 0 -24.906512551289097 0 0 1 0 0 0 1 forward_v I I I I #
coedge $-1 $244 $245 $246 $247 forward $97 $-1 #
coedge $-1 $248 $99 $249 $250 forward $61 $-1 #
coedge $-1 $99 $248 $251 $252 forward $61 $-1 #
coedge $-1 $253 $254 $99 $158 reversed $255 $-1 #
edge $-1 $256 -24.906512551289097 $257 24.906512551289097 $157 $258 forward 7 unknown #
face $-1 $259 $260 $37 $-1 $261 reversed single #
loop $-1 $-1 $262 $100 #
plane-surface $-1 0 0 5.1942852311926382 0 0 1 1 0 0 forward_v I I I I #
coedge $-1 $263 $264 $265 $266 reversed $101 $-1 #
coedge $-1 $267 $103 $268 $269 reversed $64 $-1 #
coedge $-1 $103 $267 $270 $271 reversed $64 $-1 #
coedge $-1 $264 $263 $103 $166 reversed $101 $-1 #
edge $-1 $272 -5.1942852311926382 $273 5.1942852311926382 $165 $274 forward 7 unknown #
face $-1 $275 $276 $38 $-1 $277 forward single #
loop $-1 $-1 $278 $104 #
plane-surface $-1 0 0 5.1942852311926382 0 0 1 1 0 0 forward_v I I I I #
coedge $-1 $279 $280 $281 $282 reversed $105 $-1 #
coedge $-1 $172 $107 $283 $284 reversed $67 $-1 #
coedge $-1 $107 $171 $279 $285 reversed $67 $-1 #
coedge $-1 $281 $286 $107 $174 forward $287 $-1 #
edge $-1 $288 43.599490232013991 $289 47.208816728752232 $173 $290 forward 7 unknown #
loop $-1 $-1 $180 $108 #
plane-surface $-1 -59.332865382854706 -14.223005553741777 1.5849587344543892 -0.5877852598018023 0 0.80901698891910034 0.80901698891910034 0 0.5877852598018023 forward_v I I I I #
loop $-1 $-1 $291 $69 #
coedge $-1 $178 $178 $179 $292 reversed $109 $-1 #
coedge $-1 $179 $179 $178 $292 forward $111 $-1 #
coedge $-1 $180 $180 $112 $181 forward $175 $-1 #
edge $-1 $293 0 $293 6.2831853071796004 $180 $294 forward 7 unknown #
loop $-1 $-1 $187 $113 #
plane-surface $-1 -59.332865382854706 -14.223005553741777 1.5849587344543892 -0.5877852598018023 0 0.80901698891910034 0.80901698891910034 0 0.5877852598018023 forward_v I I I I #
loop $-1 $-1 $295 $72 #
coedge $-1 $185 $185 $186 $296 reversed $114 $-1 #
coedge $-1 $186 $186 $185 $296 forward $116 $-1 #
coedge $-1 $187 $187 $117 $188 forward $182 $-1 #
edge $-1 $297 0 $297 6.2831853071796004 $187 $298 forward 7 unknown #
face $-1 $299 $300 $41 $-1 $301 reversed single #
loop $-1 $-1 $302 $118 #
plane-surface $-1 0 24.906512551289097 0 0 -1 0 0 0 -1 forward_v I I I I #
coedge $-1 $303 $304 $305 $306 reversed $119 $-1 #
coedge $-1 $307 $121 $302 $308 reversed $76 $-1 #
coedge $-1 $121 $307 $303 $309 forward $76 $-1 #
coedge $-1 $305 $310 $121 $196 forward $300 $-1 #
edge $-1 $311 -14.881010528498319 $312 -5.1699935170832401 $195 $313 forward 7 unknown #
loop $-1 $-1 $202 $122 #
plane-surface $-1 -59.332865382854706 20.051004045581557 1.5849587344543892 -0.5877852598018023 0 0.80901698891910034 0.80901698891910034 0 0.5877852598018023 forward_v I I I I #
loop $-1 $-1 $314 $78 #
coedge $-1 $200 $200 $201 $315 reversed $123 $-1 #
coedge $-1 $201 $201 $200 $315 forward $125 $-1 #
coedge $-1 $202 $202 $126 $203 forward $197 $-1 #
edge $-1 $316 0 $316 6.2831853071796004 $202 $317 forward 7 unknown #
loop $-1 $-1 $209 $127 #
plane-surface $-1 -59.332865382854706 20.051004045581557 1.5849587344543892 -0.5877852598018023 0 0.80901698891910034 0.80901698891910034 0 0.5877852598018023 forward_v I I I I #
loop $-1 $-1 $318 $81 #
coedge $-1 $207 $207 $208 $319 reversed $128 $-1 #
coedge $-1 $208 $208 $207 $319 forward $130 $-1 #
coedge $-1 $209 $209 $131 $210 forward $204 $-1 #
edge $-1 $320 0 $320 6.2831853071796004 $209 $321 forward 7 unknown #
face $-1 $322 $323 $44 $-1 $324 forward single #
loop $-1 $-1 $325 $132 #
plane-surface $-1 53.476079569293709 9.2922154077885537 168.90423681604685 0 1 0 0.68199836817093118 0 0.7313536940579346 forward_v I I I I #
coedge $-1 $326 $327 $328 $329 reversed $133 $-1 #
coedge $-1 $216 $135 $330 $331 reversed $85 $-1 #
coedge $-1 $135 $215 $326 $332 reversed $85 $-1 #
coedge $-1 $328 $333 $135 $218 forward $323 $-1 #
edge $-1 $334 -32.594825598207848 $335 -28.298376479840595 $217 $336 forward 7 unknown #
loop $-1 $-1 $224 $136 #
plane-surface $-1 -27.453755170731164 14.124196527513448 82.117616262460984 0.68199836817093118 0 0.7313536940579346 0.7313536940579346 0 -0.68199836817093118 forward_v I I I I #
loop $-1 $-1 $337 $87 #
coedge $-1 $222 $222 $223 $338 reversed $137 $-1 #
coedge $-1 $223 $223 $222 $338 forward $139 $-1 #
coedge $-1 $224 $224 $140 $225 forward $219 $-1 #
edge $-1 $339 0 $339 6.2831853071796004 $224 $340 forward 7 unknown #
loop $-1 $-1 $231 $141 #
plane-surface $-1 -27.453755170731164 14.124196527513448 82.117616262460984 0.68199836817093118 0 0.7313536940579346 0.7313536940579346 0 -0.68199836817093118 forward_v I I I I #
loop $-1 $-1 $341 $90 #
coedge $-1 $229 $229 $230 $342 reversed $142 $-1 #
coedge $-1 $230 $230 $229 $342 forward $144 $-1 #
coedge $-1 $231 $231 $145 $232 forward $226 $-1 #
edge $-1 $343 0 $343 6.2831853071796004 $231 $344 forward 7 unknown #
loop $-1 $-1 $238 $146 #
plane-surface $-1 -27.453755170731164 14.124196527513448 82.117616262460984 0.68199836817093118 0 0.7313536940579346 0.7313536940579346 0 -0.68199836817093118 forward_v I I I I #
loop $-1 $-1 $345 $93 #
coedge $-1 $236 $236 $237 $346 reversed $147 $-1 #
coedge $-1 $237 $237 $236 $346 forward $149 $-1 #
coedge $-1 $238 $238 $150 $239 forward $233 $-1 #
edge $-1 $347 0 $347 6.2831853071796004 $238 $348 forward 7 unknown #
face $-1 $349 $350 $36 $-1 $351 reversed single #
loop $-1 $-1 $352 $151 #
plane-surface $-1 -59.332865382854699 0 0 1 0 0 0 0 -1 forward_v I I I I #
coedge $-1 $353 $251 $354 $355 forward $152 $-1 #
coedge $-1 $356 $154 $353 $357 forward $97 $-1 #
coedge $-1 $154 $356 $358 $359 forward $97 $-1 #
coedge $-1 $254 $253 $154 $247 reversed $255 $-1 #
edge $-1 $360 -24.906512551289097 $361 24.906512551289097 $246 $362 forward 7 unknown #
coedge $-1 $156 $155 $363 $364 forward $61 $-1 #
coedge $-1 $365 $366 $155 $250 reversed $350 $-1 #
edge $-1 $257 -59.332865382854699 $367 59.332865382854699 $249 $368 forward 7 unknown #
coedge $-1 $243 $369 $156 $252 reversed $152 $-1 #
edge $-1 $370 -59.332865382854699 $256 59.332865382854699 $251 $371 forward 7 unknown #
coedge $-1 $246 $157 $369 $372 forward $255 $-1 #
coedge $-1 $157 $246 $365 $373 reversed $255 $-1 #
loop $-1 $-1 $253 $349 #
vertex $-1 $158 $374 #
vertex $-1 $158 $375 #
straight-curve $-1 59.332865382854699 0 5.1942852311926382 0 1 0 I I #
face $-1 $376 $377 $37 $-1 $378 reversed single #
loop $-1 $-1 $379 $159 #
plane-surface $-1 -59.332865382854699 0 0 1 0 0 0 0 -1 forward_v I I I I #
coedge $-1 $270 $380 $264 $381 forward $160 $-1 #
coedge $-1 $165 $162 $382 $383 reversed $101 $-1 #
coedge $-1 $162 $165 $262 $381 reversed $101 $-1 #
coedge $-1 $384 $385 $162 $266 forward $386 $-1 #
edge $-1 $387 -5.1942852311926382 $388 5.1942852311926382 $265 $389 forward 7 unknown #
coedge $-1 $164 $163 $379 $390 reversed $64 $-1 #
coedge $-1 $382 $391 $163 $269 forward $377 $-1 #
edge $-1 $392 -30.41643269142735 $273 -27.41643269142735 $268 $393 forward 7 unknown #
coedge $-1 $394 $262 $164 $271 forward $160 $-1 #
edge $-1 $272 27.41643269142735 $395 30.41643269142735 $270 $396 forward 7 unknown #
vertex $-1 $271 $397 #
vertex $-1 $269 $398 #
straight-curve $-1 -56.332865382854699 -19.078514059449319 0 0 0 -1 I I #
face $-1 $-1 $287 $38 $-1 $399 reversed single #
loop $-1 $-1 $400 $167 #
plane-surface $-1 -57.832865382854699 -19.078514059449319 0 0 -1 0 0 0 -1 forward_v I I I I #
coedge $-1 $401 $402 $403 $404 forward $168 $-1 #
coedge $-1 $405 $170 $172 $285 forward $105 $-1 #
coedge $-1 $170 $405 $400 $406 reversed $105 $-1 #
coedge $-1 $407 $173 $170 $282 forward $287 $-1 #
edge $-1 $289 2.2559942711633498 $408 11.967011282578429 $281 $409 forward 7 unknown #
coedge $-1 $402 $401 $171 $284 forward $168 $-1 #
edge $-1 $410 -10.17636264063848 $288 -5.2085510024192629 $283 $411 forward 7 unknown #
edge $-1 $289 8.7502459990790685e-015 $410 6.1405529256642009 $172 $412 forward 7 unknown #
coedge $-1 $173 $407 $402 $413 reversed $287 $-1 #
loop $-1 $-1 $281 $275 #
vertex $-1 $413 $414 #
vertex $-1 $174 $415 #
straight-curve $-1 -59.332865382854699 -9.3674970480342381 48.793775463206629 0 0 -1 I I #
coedge $-1 $291 $291 $-1 $416 reversed $177 $-1 #
edge $-1 $417 0 $417 6.2831853071796004 $178 $418 forward 7 unknown #
vertex $-1 $181 $419 #
ellipse-curve $-1 -56.84895956374509 -16.303937770473581 3.3896219828235168 -0.5877852598018023 0 0.80901698891910034 0.80901698891910034 0 0.5877852598018023 1 I I #
coedge $-1 $295 $295 $-1 $420 reversed $184 $-1 #
edge $-1 $421 0 $421 6.2831853071796004 $185 $422 forward 7 unknown #
vertex $-1 $188 $423 #
ellipse-curve $-1 -56.84895956374509 -12.142073337009975 3.3896219828235168 -0.5877852598018023 0 0.80901698891910034 0.80901698891910034 0 0.5877852598018023 1 I I #
face $-1 $-1 $424 $41 $-1 $425 forward single #
loop $-1 $-1 $195 $189 #
plane-surface $-1 -59.332865382854699 0 0 1 0 0 0 0 -1 forward_v I I I I #
coedge $-1 $426 $427 $193 $308 forward $190 $-1 #
coedge $-1 $304 $192 $194 $309 reversed $119 $-1 #
coedge $-1 $192 $303 $428 $429 reversed $119 $-1 #
coedge $-1 $430 $195 $192 $306 forward $300 $-1 #
edge $-1 $312 -47.208816728752232 $431 -43.599490232013991 $305 $432 forward 7 unknown #
coedge $-1 $194 $193 $433 $434 reversed $76 $-1 #
edge $-1 $435 17.394287431572312 $311 23.534840357236508 $302 $436 forward 7 unknown #
edge $-1 $437 -6.1405529256642009 $312 -8.7502459990790685e-015 $303 $438 forward 7 unknown #
coedge $-1 $195 $430 $426 $439 forward $300 $-1 #
vertex $-1 $308 $440 #
vertex $-1 $196 $441 #
straight-curve $-1 -59.332865382854699 10.025502022790779 1.5849587344543989 0 -1 0 I I #
coedge $-1 $314 $314 $-1 $442 reversed $199 $-1 #
edge $-1 $443 0 $443 6.2831853071796004 $200 $444 forward 7 unknown #
vertex $-1 $203 $445 #
ellipse-curve $-1 -56.84895956374509 17.970071828849754 3.3896219828235168 -0.5877852598018023 0 0.80901698891910034 0.80901698891910034 0 0.5877852598018023 1 I I #
coedge $-1 $318 $318 $-1 $446 reversed $206 $-1 #
edge $-1 $447 0 $447 6.2831853071796004 $207 $448 forward 7 unknown #
vertex $-1 $210 $449 #
ellipse-curve $-1 -56.84895956374509 22.13193626231336 3.3896219828235168 -0.5877852598018023 0 0.80901698891910034 0.80901698891910034 0 0.5877852598018023 1 I I #
face $-1 $-1 $450 $44 $-1 $451 reversed single #
loop $-1 $-1 $217 $211 #
plane-surface $-1 0 0 5.1942852311926382 0 0 1 1 0 0 forward_v I I I I #
coedge $-1 $452 $453 $454 $455 reversed $212 $-1 #
coedge $-1 $456 $214 $216 $332 forward $133 $-1 #
coedge $-1 $214 $456 $452 $457 forward $133 $-1 #
coedge $-1 $454 $217 $214 $329 forward $323 $-1 #
edge $-1 $335 -11.894079383481618 $458 -2.2301171440318299 $328 $459 forward 7 unknown #
coedge $-1 $460 $461 $215 $331 forward $450 $-1 #
edge $-1 $462 -83.264336885587298 $334 -79.257833176830786 $330 $463 forward 7 unknown #
edge $-1 $335 112.79107784021681 $462 118.66573076570938 $216 $464 forward 7 unknown #
coedge $-1 $217 $454 $460 $465 forward $323 $-1 #
vertex $-1 $218 $466 #
vertex $-1 $218 $467 #
straight-curve $-1 26.738039784646855 18.956177647238341 5.1942852311926373 -1 0 0 I I #
coedge $-1 $337 $337 $-1 $468 reversed $221 $-1 #
edge $-1 $469 0 $469 6.2831853071796004 $222 $470 forward 7 unknown #
vertex $-1 $225 $471 #
ellipse-curve $-1 57.184640823671074 11.225007855678513 3.1910333768143784 0.68199836817093118 0 0.7313536940579346 0.3656768470289673 0 -0.34099918408546559 1 I I #
coedge $-1 $341 $341 $-1 $472 reversed $228 $-1 #
edge $-1 $473 0 $473 6.2831853071796004 $229 $474 forward 7 unknown #
vertex $-1 $232 $475 #
ellipse-curve $-1 57.184640823671074 14.124196527513448 3.1910333768143784 0.68199836817093118 0 0.7313536940579346 0.3656768470289673 0 -0.34099918408546559 1 I I #
coedge $-1 $345 $345 $-1 $476 reversed $235 $-1 #
edge $-1 $477 0 $477 6.2831853071796004 $236 $478 forward 7 unknown #
vertex $-1 $239 $479 #
ellipse-curve $-1 57.184640823671074 17.023385199348382 3.1910333768143784 0.68199836817093118 0 0.7313536940579346 0.3656768470289673 0 -0.34099918408546559 1 I I #
face $-1 $-1 $255 $36 $-1 $480 reversed single #
loop $-1 $-1 $365 $240 #
plane-surface $-1 0 24.906512551289097 0 0 -1 0 0 0 -1 forward_v I I I I #
coedge $-1 $481 $363 $366 $482 forward $241 $-1 #
coedge $-1 $369 $243 $244 $357 reversed $152 $-1 #
coedge $-1 $363 $481 $243 $355 reversed $241 $-1 #
edge $-1 $370 -5.1942852311926382 $483 5.1942852311926382 $354 $484 forward 7 unknown #
coedge $-1 $245 $244 $481 $485 forward $97 $-1 #
edge $-1 $361 -59.332865382854699 $483 59.332865382854699 $353 $486 forward 7 unknown #
coedge $-1 $366 $365 $245 $359 reversed $350 $-1 #
edge $-1 $487 -59.332865382854699 $360 59.332865382854699 $358 $488 forward 7 unknown #
vertex $-1 $247 $489 #
vertex $-1 $372 $490 #
straight-curve $-1 59.332865382854699 0 -5.1942852311926382 0 -1 0 I I #
coedge $-1 $352 $354 $248 $364 reversed $241 $-1 #
edge $-1 $367 -24.906512551289097 $370 24.906512551289097 $363 $491 forward 7 unknown #
coedge $-1 $358 $249 $254 $373 forward $350 $-1 #
coedge $-1 $249 $358 $352 $482 reversed $350 $-1 #
vertex $-1 $250 $492 #
straight-curve $-1 0 24.906512551289097 5.1942852311926382 -1 0 0 I I #
coedge $-1 $251 $353 $253 $372 reversed $152 $-1 #
vertex $-1 $364 $493 #
straight-curve $-1 0 -24.906512551289097 5.1942852311926382 1 0 0 I I #
edge $-1 $256 -5.1942852311926382 $361 5.1942852311926382 $253 $494 forward 7 unknown #
edge $-1 $257 -5.1942852311926382 $360 5.1942852311926382 $254 $495 forward 7 unknown #
point $-1 59.332865382854699 -24.906512551289097 5.1942852311926382 #
point $-1 59.332865382854699 24.906512551289097 5.1942852311926382 #
face $-1 $-1 $386 $37 $-1 $496 reversed single #
loop $-1 $-1 $382 $259 #
plane-surface $-1 0 0 -5.1942852311926382 0 0 1 1 0 0 forward_v I I I I #
coedge $-1 $497 $498 $267 $390 forward $260 $-1 #
coedge $-1 $262 $394 $384 $499 forward $160 $-1 #
edge $-1 $388 -13.910255898604493 $272 -8.0822574067647146 $262 $500 forward 7 unknown #
coedge $-1 $501 $268 $263 $383 forward $377 $-1 #
edge $-1 $273 8.0822574067647146 $387 13.910255898604493 $382 $502 forward 7 unknown #
coedge $-1 $503 $265 $380 $499 reversed $386 $-1 #
coedge $-1 $265 $503 $501 $504 reversed $386 $-1 #
loop $-1 $-1 $265 $376 #
vertex $-1 $504 $505 #
vertex $-1 $266 $506 #
straight-curve $-1 -56.332865382854699 -24.906512551289097 0 0 0 1 I I #
edge $-1 $395 -5.1942852311926382 $392 5.1942852311926382 $379 $507 forward 7 unknown #
coedge $-1 $268 $501 $497 $508 forward $377 $-1 #
vertex $-1 $269 $509 #
straight-curve $-1 -28.91643269142735 -19.078514059449319 -5.1942852311926382 1 0 0 I I #
coedge $-1 $380 $270 $498 $510 forward $160 $-1 #
vertex $-1 $510 $511 #
straight-curve $-1 -28.91643269142735 -19.078514059449319 5.1942852311926382 -1 0 0 I I #
point $-1 -56.332865382854699 -19.078514059449319 5.1942852311926382 #
point $-1 -56.332865382854699 -19.078514059449319 -5.1942852311926382 #
plane-surface $-1 -59.332865382854699 0 0 1 0 0 0 0 -1 forward_v I I I I #
coedge $-1 $403 $512 $280 $406 forward $276 $-1 #
coedge $-1 $283 $278 $405 $513 forward $168 $-1 #
coedge $-1 $278 $283 $286 $413 forward $168 $-1 #
coedge $-1 $512 $400 $278 $404 reversed $276 $-1 #
edge $-1 $514 -30.41643269142735 $515 -25.448621053208132 $278 $516 forward 7 unknown #
coedge $-1 $280 $279 $401 $513 reversed $105 $-1 #
edge $-1 $408 -0.14095505093611044 $515 5.9995978747280816 $400 $517 forward 7 unknown #
coedge $-1 $286 $281 $512 $518 forward $287 $-1 #
vertex $-1 $518 $519 #
straight-curve $-1 -59.332865382854699 -7.1115027768708883 1.5849587344543989 0 -1 0 I I #
vertex $-1 $284 $520 #
straight-curve $-1 -64.541416385273962 -9.3674970480342381 5.1942852311926373 -1 0 0 I I #
straight-curve $-1 -59.332865382854706 -9.3674970480342381 1.5849587344543892 0.80901698891910034 0 0.5877852598018023 I I #
edge $-1 $288 9.3674970480342381 $514 19.078514059449319 $286 $521 forward 7 unknown #
point $-1 -59.332865382854699 -9.3674970480342381 5.1942852311926382 #
point $-1 -59.332865382854699 -9.3674970480342381 1.5849587344543943 #
edge $-1 $522 1 $522 0 $291 $-1 forward 7 unknown #
vertex $-1 $292 $523 #
ellipse-curve $-1 -55.182399013133612 -16.303937770473581 1.095798216365528 -0.5877852598018023 0 0.80901698891910034 0.80901698891910034 0 0.5877852598018023 1 I I #
point $-1 -56.039942574825993 -16.303937770473581 3.977407242625322 #
edge $-1 $524 1 $524 0 $295 $-1 forward 7 unknown #
vertex $-1 $296 $525 #
ellipse-curve $-1 -55.182399013133612 -12.142073337009975 1.095798216365528 -0.5877852598018023 0 0.80901698891910034 0.80901698891910034 0 0.5877852598018023 1 I I #
point $-1 -56.039942574825993 -12.142073337009975 3.977407242625322 #
loop $-1 $-1 $433 $299 #
plane-surface $-1 0 0 5.1942852311926382 0 0 1 1 0 0 forward_v I I I I #
coedge $-1 $427 $302 $310 $439 reversed $190 $-1 #
coedge $-1 $302 $426 $526 $527 reversed $190 $-1 #
coedge $-1 $433 $528 $304 $429 forward $424 $-1 #
edge $-1 $431 5.2085510024192629 $437 10.17636264063848 $428 $529 forward 7 unknown #
coedge $-1 $310 $305 $528 $530 reversed $300 $-1 #
vertex $-1 $429 $531 #
straight-curve $-1 -59.332865382854699 15.195495539874019 48.793775463206629 0 0 1 I I #
coedge $-1 $526 $428 $307 $434 forward $424 $-1 #
edge $-1 $437 5.1699935170832401 $435 14.881010528498319 $433 $532 forward 7 unknown #
vertex $-1 $527 $533 #
straight-curve $-1 -40.292779702351496 24.906512551289097 15.418390988226596 -0.80901698891910034 0 -0.5877852598018023 I I #
vertex $-1 $434 $534 #
straight-curve $-1 -59.332865382854706 15.195495539874019 1.5849587344543892 -0.80901698891910034 0 -0.5877852598018023 I I #
edge $-1 $535 -5.1942852311926382 $311 -1.5849587344543943 $426 $536 forward 7 unknown #
point $-1 -59.332865382854699 24.906512551289097 1.5849587344543943 #
point $-1 -59.332865382854699 15.195495539874019 1.5849587344543943 #
edge $-1 $537 1 $537 0 $314 $-1 forward 7 unknown #
vertex $-1 $315 $538 #
ellipse-curve $-1 -55.182399013133612 17.970071828849754 1.095798216365528 -0.5877852598018023 0 0.80901698891910034 0.80901698891910034 0 0.5877852598018023 1 I I #
point $-1 -56.039942574825993 17.970071828849754 3.977407242625322 #
edge $-1 $539 1 $539 0 $318 $-1 forward 7 unknown #
vertex $-1 $319 $540 #
ellipse-curve $-1 -55.182399013133612 22.13193626231336 1.095798216365528 -0.5877852598018023 0 0.80901698891910034 0.80901698891910034 0 0.5877852598018023 1 I I #
point $-1 -56.039942574825993 22.13193626231336 3.977407242625322 #
loop $-1 $-1 $330 $322 #
plane-surface $-1 59.332865382854699 0 0 -1 0 0 0 0 1 forward_v I I I I #
coedge $-1 $453 $325 $327 $457 reversed $212 $-1 #
coedge $-1 $325 $452 $541 $542 reversed $212 $-1 #
coedge $-1 $333 $328 $325 $455 forward $323 $-1 #
edge $-1 $458 28.298376479840595 $543 32.594825598207848 $454 $544 forward 7 unknown #
coedge $-1 $327 $326 $461 $545 reversed $133 $-1 #
edge $-1 $546 -118.66573076570938 $458 -112.79107784021681 $452 $547 forward 7 unknown #
vertex $-1 $329 $548 #
straight-curve $-1 55.03641626448745 7.0620982637567238 5.1942852311926444 0 -1 0 I I #
coedge $-1 $541 $330 $333 $465 reversed $450 $-1 #
coedge $-1 $330 $541 $456 $545 forward $450 $-1 #
vertex $-1 $331 $549 #
straight-curve $-1 59.332865382854699 18.956177647238341 84.452118408023424 0 0 1 I I #
straight-curve $-1 -27.453755170731164 18.956177647238341 82.117616262460984 0.7313536940579346 0 -0.68199836817093118 I I #
edge $-1 $543 9.2922154077885537 $334 18.956177647238341 $460 $550 forward 7 unknown #
point $-1 59.332865382854699 18.956177647238341 5.1942852311926382 #
point $-1 55.03641626448745 18.956177647238341 5.1942852311926373 #
edge $-1 $551 1 $551 0 $337 $-1 forward 7 unknown #
vertex $-1 $338 $552 #
ellipse-curve $-1 56.019767546550106 11.225007855678513 1.9418597510524624 0.68199836817093118 0 0.7313536940579346 0.3656768470289673 0 -0.34099918408546559 1 I I #
point $-1 57.550317670700039 11.225007855678513 2.8500341927289048 #
edge $-1 $553 1 $553 0 $341 $-1 forward 7 unknown #
vertex $-1 $342 $554 #
ellipse-curve $-1 56.019767546550106 14.124196527513448 1.9418597510524624 0.68199836817093118 0 0.7313536940579346 0.3656768470289673 0 -0.34099918408546559 1 I I #
point $-1 57.550317670700039 14.124196527513448 2.8500341927289048 #
edge $-1 $555 1 $555 0 $345 $-1 forward 7 unknown #
vertex $-1 $346 $556 #
ellipse-curve $-1 56.019767546550106 17.023385199348382 1.9418597510524624 0.68199836817093118 0 0.7313536940579346 0.3656768470289673 0 -0.34099918408546559 1 I I #
point $-1 57.550317670700039 17.023385199348382 2.8500341927289048 #
plane-surface $-1 59.332865382854699 0 0 -1 0 0 0 0 1 forward_v I I I I #
coedge $-1 $354 $352 $356 $485 reversed $241 $-1 #
edge $-1 $367 -5.1942852311926382 $487 5.1942852311926382 $366 $557 forward 7 unknown #
vertex $-1 $485 $558 #
straight-curve $-1 -59.332865382854699 -24.906512551289097 0 0 0 -1 I I #
edge $-1 $483 -24.906512551289097 $487 24.906512551289097 $481 $559 forward 7 unknown #
straight-curve $-1 0 -24.906512551289097 -5.1942852311926382 -1 0 0 I I #
vertex $-1 $359 $560 #
straight-curve $-1 0 24.906512551289097 -5.1942852311926382 1 0 0 I I #
point $-1 59.332865382854699 24.906512551289097 -5.1942852311926382 #
point $-1 59.332865382854699 -24.906512551289097 -5.1942852311926382 #
straight-curve $-1 -59.332865382854699 0 5.1942852311926382 0 -1 0 I I #
point $-1 -59.332865382854699 24.906512551289097 5.1942852311926382 #
point $-1 -59.332865382854699 -24.906512551289097 5.1942852311926382 #
straight-curve $-1 59.332865382854699 -24.906512551289097 0 0 0 -1 I I #
straight-curve $-1 59.332865382854699 24.906512551289097 0 0 0 -1 I I #
plane-surface $-1 0 -24.906512551289097 0 0 1 0 0 0 1 forward_v I I I I #
coedge $-1 $561 $379 $391 $508 reversed $260 $-1 #
coedge $-1 $379 $561 $394 $510 reversed $260 $-1 #
edge $-1 $562 -59.332865382854699 $388 -56.332865382854699 $384 $563 forward 7 unknown #
straight-curve $-1 -56.332865382854699 -10.996256652684604 5.1942852311926382 0 1 0 I I #
coedge $-1 $391 $382 $385 $504 forward $377 $-1 #
straight-curve $-1 -56.332865382854699 -10.996256652684604 -5.1942852311926382 0 -1 0 I I #
coedge $-1 $385 $384 $561 $564 forward $386 $-1 #
edge $-1 $387 56.332865382854699 $565 59.332865382854699 $385 $566 forward 7 unknown #
point $-1 -56.332865382854699 -24.906512551289097 -5.1942852311926382 #
point $-1 -56.332865382854699 -24.906512551289097 5.1942852311926382 #
straight-curve $-1 -59.332865382854699 -19.078514059449319 0 0 0 -1 I I #
edge $-1 $565 -24.906512551289097 $392 -19.078514059449319 $497 $567 forward 7 unknown #
point $-1 -59.332865382854699 -19.078514059449319 -5.1942852311926382 #
edge $-1 $395 19.078514059449319 $562 24.906512551289097 $498 $568 forward 7 unknown #
point $-1 -59.332865382854699 -19.078514059449319 5.1942852311926382 #
coedge $-1 $400 $403 $407 $518 reversed $276 $-1 #
edge $-1 $515 -11.967011282578426 $410 -2.2559942711633498 $401 $569 forward 7 unknown #
vertex $-1 $518 $570 #
vertex $-1 $404 $571 #
straight-curve $-1 -28.91643269142735 -19.078514059449319 5.1942852311926382 1 0 0 I I #
straight-curve $-1 -59.21883035197343 -19.078514059449319 1.6678100356892549 0.80901698891910034 0 0.5877852598018023 I I #
edge $-1 $408 1.5849587344543943 $514 5.1942852311926382 $407 $572 forward 7 unknown #
point $-1 -59.332865382854699 -19.078514059449319 1.5849587344543943 #
point $-1 -54.365053744635482 -9.3674970480342381 5.1942852311926382 #
straight-curve $-1 -59.332865382854699 0 5.1942852311926382 0 -1 0 I I #
vertex $-1 $416 $573 #
point $-1 -54.373382024214507 -16.303937770473581 1.6835834761673305 #
vertex $-1 $420 $574 #
point $-1 -54.373382024214507 -12.142073337009975 1.6835834761673305 #
coedge $-1 $528 $433 $427 $527 forward $424 $-1 #
edge $-1 $435 54.365053744635482 $535 59.332865382854699 $427 $575 forward 7 unknown #
coedge $-1 $428 $526 $430 $530 forward $424 $-1 #
straight-curve $-1 -64.541416385273962 15.195495539874019 5.1942852311926373 1 0 0 I I #
edge $-1 $535 -24.906512551289097 $431 -15.195495539874019 $430 $576 forward 7 unknown #
point $-1 -59.332865382854699 15.195495539874019 5.1942852311926382 #
straight-curve $-1 -54.365053744635489 10.025502022790779 5.1942852311926373 0 1 0 I I #
point $-1 -54.365053744635482 24.906512551289097 5.1942852311926382 #
point $-1 -54.365053744635482 15.195495539874019 5.1942852311926382 #
vertex $-1 $527 $577 #
straight-curve $-1 -59.332865382854699 24.906512551289097 0 0 0 -1 I I #
vertex $-1 $442 $578 #
point $-1 -54.373382024214507 17.970071828849754 1.6835834761673305 #
vertex $-1 $446 $579 #
point $-1 -54.373382024214507 22.13193626231336 1.6835834761673305 #
coedge $-1 $461 $460 $453 $542 forward $450 $-1 #
edge $-1 $543 79.257833176830786 $546 83.264336885587298 $541 $580 forward 7 unknown #
vertex $-1 $465 $581 #
straight-curve $-1 26.738039784646855 9.2922154077885537 5.1942852311926373 1 0 0 I I #
edge $-1 $546 2.2301171440318299 $462 11.894079383481618 $461 $582 forward 7 unknown #
vertex $-1 $545 $583 #
straight-curve $-1 -27.453755170731164 9.2922154077885537 82.117616262460984 -0.7313536940579346 0 0.68199836817093118 I I #
point $-1 55.03641626448745 9.2922154077885537 5.1942852311926373 #
point $-1 59.332865382854699 18.956177647238341 1.1877815224361257 #
straight-curve $-1 59.332865382854699 0 5.1942852311926382 0 1 0 I I #
vertex $-1 $468 $584 #
point $-1 56.385444393579078 11.225007855678513 1.6008605669669969 #
vertex $-1 $472 $585 #
point $-1 56.385444393579078 14.124196527513448 1.6008605669669969 #
vertex $-1 $476 $586 #
point $-1 56.385444393579078 17.023385199348382 1.6008605669669969 #
straight-curve $-1 -59.332865382854699 24.906512551289097 0 0 0 -1 I I #
point $-1 -59.332865382854699 -24.906512551289097 -5.1942852311926382 #
straight-curve $-1 -59.332865382854699 0 -5.1942852311926382 0 1 0 I I #
point $-1 -59.332865382854699 24.906512551289097 -5.1942852311926382 #
coedge $-1 $498 $497 $503 $564 reversed $260 $-1 #
vertex $-1 $510 $587 #
straight-curve $-1 0 -24.906512551289097 5.1942852311926382 1 0 0 I I #
edge $-1 $562 -5.1942852311926382 $565 5.1942852311926382 $561 $588 forward 7 unknown #
vertex $-1 $508 $589 #
straight-curve $-1 0 -24.906512551289097 -5.1942852311926382 -1 0 0 I I #
straight-curve $-1 -59.332865382854699 0 -5.1942852311926382 0 1 0 I I #
straight-curve $-1 -59.332865382854699 0 5.1942852311926382 0 -1 0 I I #
straight-curve $-1 -54.365053744635489 -7.1115027768708883 5.1942852311926373 0 1 0 I I #
point $-1 -59.332865382854699 -19.078514059449319 5.1942852311926382 #
point $-1 -54.365053744635482 -19.078514059449315 5.1942852311926382 #
straight-curve $-1 -59.332865382854699 -19.078514059449319 0 0 0 1 I I #
point $-1 -54.594613753331807 -16.303937770473581 0.28678122744642776 #
point $-1 -54.594613753331807 -12.142073337009975 0.28678122744642776 #
straight-curve $-1 0 24.906512551289097 5.1942852311926382 -1 0 0 I I #
straight-curve $-1 -59.332865382854699 0 5.1942852311926382 0 -1 0 I I #
point $-1 -59.332865382854699 24.906512551289097 5.1942852311926382 #
point $-1 -54.594613753331807 17.970071828849754 0.28678122744642776 #
point $-1 -54.594613753331807 22.13193626231336 0.28678122744642776 #
straight-curve $-1 59.332865382854699 9.2922154077885537 84.452118408023424 0 0 -1 I I #
point $-1 59.332865382854699 9.2922154077885537 5.1942852311926382 #
straight-curve $-1 59.332865382854692 7.0620982637567238 1.1877815224361257 0 1 0 I I #
point $-1 59.332865382854699 9.2922154077885537 1.1877815224361257 #
point $-1 55.678768362464645 11.225007855678513 1.5761829040234949 #
point $-1 55.678768362464645 14.124196527513448 1.5761829040234949 #
point $-1 55.678768362464645 17.023385199348382 1.5761829040234949 #
point $-1 -59.332865382854699 -24.906512551289097 5.1942852311926382 #
straight-curve $-1 -59.332865382854699 -24.906512551289097 0 0 0 -1 I I #
point $-1 -59.332865382854699 -24.906512551289097 -5.1942852311926382 #
End-of-ACIS-data 