500 0 4 0           
7 Unknown 11 ACIS 5.0 NT 24 Thu Mar 25 16:24:36 1999 
-1 9.9999999999999995e-007 1e-010 
body $-1 $4 $-1 $5 #
body $-1 $6 $-1 $7 #
body $-1 $8 $-1 $9 #
body $-1 $10 $-1 $11 #
lump $-1 $-1 $12 $0 #
transform $-1 1 0 0 0 1 0 0 0 1 71.561021759697255 46.000456478367845 22.556747169769071 1 rotate no_reflect no_shear #
lump $-1 $-1 $13 $1 #
transform $-1 1 0 0 0 1 0 0 0 1 71.561021759697255 46.000456478367845 22.556747169769071 1 rotate no_reflect no_shear #
lump $-1 $-1 $14 $2 #
transform $-1 1 0 0 0 1 0 0 0 1 71.561021759697255 46.000456478367845 22.556747169769071 1 rotate no_reflect no_shear #
lump $-1 $-1 $15 $3 #
transform $-1 1 0 0 0 1 0 0 0 1 71.561021759697255 46.000456478367845 22.556747169769071 1 rotate no_reflect no_shear #
shell $-1 $-1 $-1 $16 $-1 $4 #
shell $-1 $-1 $-1 $17 $-1 $6 #
shell $-1 $-1 $-1 $18 $-1 $8 #
shell $-1 $-1 $-1 $19 $-1 $10 #
face $-1 $20 $21 $12 $-1 $22 forward single #
face $-1 $23 $24 $13 $-1 $25 forward single #
face $-1 $26 $27 $14 $-1 $28 reversed single #
face $-1 $29 $30 $15 $-1 $31 reversed single #
face $-1 $32 $33 $12 $-1 $34 reversed single #
loop $-1 $-1 $35 $16 #
plane-surface $-1 0 0 22.556747169769071 0 0 1 1 0 0 forward_v I I I I #
face $-1 $36 $37 $13 $-1 $38 forward single #
loop $-1 $-1 $39 $17 #
plane-surface $-1 -38.805043459425789 -150.6732939724244 112.60765660667565 -1 0 0 0 -0.73135370988377701 0.68199835119979291 forward_v I I I I #
face $-1 $40 $41 $14 $-1 $42 reversed single #
loop $-1 $43 $44 $18 #
cone-surface $-1 -62.202170816762546 -41.5394992807582 17.903990864509876 0 0.73135370988377701 -0.68199835119979291 1 0 0 1 I I 0 1 1 forward I I I I #
face $-1 $45 $46 $15 $-1 $47 reversed single #
loop $-1 $48 $49 $19 #
cone-surface $-1 -48.163894402360491 -41.5394992807582 17.903990864509876 0 0.73135370988377701 -0.68199835119979291 1 0 0 1 I I 0 1 1 forward I I I I #
face $-1 $50 $51 $12 $-1 $52 reversed single #
loop $-1 $-1 $53 $20 #
plane-surface $-1 0 0 -22.556747169769071 0 0 1 1 0 0 forward_v I I I I #
coedge $-1 $54 $55 $56 $57 forward $21 $-1 #
face $-1 $58 $59 $13 $-1 $60 forward single #
loop $-1 $-1 $61 $23 #
plane-surface $-1 -55.183032609561522 -46.000456478367838 14.998658906103586 0 -0.73135370988377701 0.68199835119979291 1 0 0 forward_v I I I I #
coedge $-1 $62 $63 $64 $65 reversed $24 $-1 #
face $-1 $66 $67 $14 $-1 $68 forward single #
loop $-1 $69 $70 $26 #
cone-surface $-1 -62.202170816762546 -40.23688080670253 16.689279515483516 0 0.73135370988377701 -0.68199835119979291 0.5 0 0 1 I I -0.70710678118654746 0.70710678118654746 0.5 forward I I I I #
loop $-1 $-1 $71 $18 #
coedge $-1 $44 $44 $72 $73 reversed $27 $-1 #
face $-1 $74 $75 $15 $-1 $76 reversed single #
loop $-1 $77 $78 $29 #
cone-surface $-1 -48.163894402360491 -40.23688080670253 16.689279515483516 0 0.73135370988377701 -0.68199835119979291 0.5 0 0 1 I I -0.70710678118654746 0.70710678118654746 0.5 forward I I I I #
loop $-1 $-1 $79 $19 #
coedge $-1 $49 $49 $80 $81 reversed $30 $-1 #
face $-1 $82 $83 $12 $-1 $84 reversed single #
loop $-1 $-1 $85 $32 #
plane-surface $-1 0 -46.000456478367845 0 0 1 0 0 0 1 forward_v I I I I #
coedge $-1 $86 $87 $88 $89 forward $33 $-1 #
coedge $-1 $90 $35 $91 $92 forward $21 $-1 #
coedge $-1 $35 $90 $93 $94 forward $21 $-1 #
coedge $-1 $95 $96 $35 $57 reversed $97 $-1 #
edge $-1 $98 -46.000456478367845 $99 46.000456478367845 $56 $100 forward 7 unknown #
face $-1 $101 $102 $13 $-1 $103 reversed single #
loop $-1 $-1 $104 $36 #
plane-surface $-1 0 0 22.556747169769071 0 0 1 1 0 0 forward_v I I I I #
coedge $-1 $105 $106 $104 $107 reversed $37 $-1 #
coedge $-1 $63 $39 $106 $108 forward $24 $-1 #
coedge $-1 $39 $62 $109 $110 reversed $24 $-1 #
coedge $-1 $111 $104 $39 $65 forward $59 $-1 #
edge $-1 $112 -36.384221664836119 $113 -29.336190507844357 $64 $114 forward 7 unknown #
face $-1 $115 $116 $14 $-1 $117 forward single #
loop $-1 $-1 $118 $40 #
plane-surface $-1 -38.805043459425789 -150.6732939724244 112.60765660667565 -1 0 0 0 -0.73135370988377701 0.68199835119979291 forward_v I I I I #
loop $-1 $-1 $119 $26 #
coedge $-1 $70 $70 $71 $120 forward $41 $-1 #
coedge $-1 $71 $71 $70 $120 reversed $43 $-1 #
coedge $-1 $72 $72 $44 $73 forward $116 $-1 #
edge $-1 $121 -2.9489812449829778e-015 $121 6.2831853071795978 $72 $122 forward 7 unknown #
face $-1 $123 $124 $15 $-1 $125 reversed single #
loop $-1 $126 $127 $45 #
cone-surface $-1 -62.202170816762546 -41.5394992807582 17.903990864509876 0 0.73135370988377701 -0.68199835119979291 1 0 0 1 I I 0 1 1 forward I I I I #
loop $-1 $-1 $128 $29 #
coedge $-1 $78 $78 $79 $129 forward $46 $-1 #
coedge $-1 $79 $79 $78 $129 reversed $48 $-1 #
coedge $-1 $80 $80 $49 $81 forward $130 $-1 #
edge $-1 $131 -2.9489812449829778e-015 $131 6.2831853071795978 $80 $132 forward 7 unknown #
face $-1 $133 $134 $12 $-1 $135 reversed single #
loop $-1 $-1 $136 $50 #
plane-surface $-1 -71.561021759697255 0 0 1 0 0 0 0 -1 forward_v I I I I #
coedge $-1 $137 $93 $138 $139 forward $51 $-1 #
coedge $-1 $140 $53 $137 $141 forward $33 $-1 #
coedge $-1 $53 $140 $142 $143 forward $33 $-1 #
coedge $-1 $96 $95 $53 $89 reversed $97 $-1 #
edge $-1 $144 -46.000456478367845 $145 46.000456478367845 $88 $146 forward 7 unknown #
coedge $-1 $55 $54 $147 $148 forward $21 $-1 #
coedge $-1 $149 $150 $54 $92 reversed $134 $-1 #
edge $-1 $99 -71.561021759697255 $151 71.561021759697255 $91 $152 forward 7 unknown #
coedge $-1 $85 $153 $55 $94 reversed $51 $-1 #
edge $-1 $154 -71.561021759697255 $98 71.561021759697255 $93 $155 forward 7 unknown #
coedge $-1 $88 $56 $153 $156 forward $97 $-1 #
coedge $-1 $56 $88 $149 $157 reversed $97 $-1 #
loop $-1 $-1 $95 $133 #
vertex $-1 $57 $158 #
vertex $-1 $57 $159 #
straight-curve $-1 71.561021759697255 0 22.556747169769071 0 1 0 I I #
face $-1 $160 $161 $13 $-1 $162 reversed single #
loop $-1 $-1 $109 $58 #
plane-surface $-1 0 -46.000456478367845 0 0 1 0 0 0 1 forward_v I I I I #
coedge $-1 $64 $163 $61 $107 forward $59 $-1 #
coedge $-1 $164 $61 $165 $166 reversed $37 $-1 #
coedge $-1 $61 $164 $62 $108 reversed $37 $-1 #
edge $-1 $167 -43.969505454916494 $112 -11.213527154645028 $104 $168 forward 7 unknown #
edge $-1 $112 -10.334381519533935 $169 1.004247040074496e-014 $62 $170 forward 7 unknown #
coedge $-1 $171 $172 $63 $110 forward $102 $-1 #
edge $-1 $113 33.747081133568756 $169 41.305169397234245 $109 $173 forward 7 unknown #
coedge $-1 $174 $64 $172 $175 forward $59 $-1 #
vertex $-1 $107 $176 #
vertex $-1 $175 $177 #
straight-curve $-1 -38.805043459425789 -75.336646986212202 22.556747169769068 0 -1 0 I I #
face $-1 $178 $179 $14 $-1 $180 forward single #
loop $-1 $181 $72 $66 #
plane-surface $-1 -55.183032609561522 -46.000456478367838 14.998658906103586 0 -0.73135370988377701 0.68199835119979291 1 0 0 forward_v I I I I #
coedge $-1 $182 $183 $184 $185 reversed $67 $-1 #
coedge $-1 $119 $119 $-1 $186 forward $69 $-1 #
edge $-1 $187 0 $187 6.2831853071796004 $70 $188 forward 7 unknown #
vertex $-1 $73 $189 #
ellipse-curve $-1 -62.202170816762546 -42.476440899871967 18.777703037936327 0 0.73135370988377701 -0.68199835119979291 1 0 0 1 I I #
face $-1 $190 $191 $15 $-1 $192 forward single #
loop $-1 $193 $194 $74 #
cone-surface $-1 -62.202170816762546 -40.23688080670253 16.689279515483516 0 0.73135370988377701 -0.68199835119979291 0.5 0 0 1 I I -0.70710678118654746 0.70710678118654746 0.5 forward I I I I #
loop $-1 $-1 $195 $45 #
coedge $-1 $127 $127 $196 $197 reversed $75 $-1 #
coedge $-1 $128 $128 $-1 $198 forward $77 $-1 #
edge $-1 $199 0 $199 6.2831853071796004 $78 $200 forward 7 unknown #
loop $-1 $201 $80 $190 #
vertex $-1 $81 $202 #
ellipse-curve $-1 -48.163894402360491 -42.476440899871967 18.777703037936327 0 0.73135370988377701 -0.68199835119979291 1 0 0 1 I I #
face $-1 $-1 $97 $12 $-1 $203 reversed single #
loop $-1 $-1 $149 $82 #
plane-surface $-1 0 46.000456478367845 0 0 -1 0 0 0 -1 forward_v I I I I #
coedge $-1 $204 $147 $150 $205 forward $83 $-1 #
coedge $-1 $153 $85 $86 $141 reversed $51 $-1 #
coedge $-1 $147 $204 $85 $139 reversed $83 $-1 #
edge $-1 $154 -22.556747169769071 $206 22.556747169769071 $138 $207 forward 7 unknown #
coedge $-1 $87 $86 $204 $208 forward $33 $-1 #
edge $-1 $145 -71.561021759697255 $206 71.561021759697255 $137 $209 forward 7 unknown #
coedge $-1 $150 $149 $87 $143 reversed $134 $-1 #
edge $-1 $210 -71.561021759697255 $144 71.561021759697255 $142 $211 forward 7 unknown #
vertex $-1 $89 $212 #
vertex $-1 $156 $213 #
straight-curve $-1 71.561021759697255 0 -22.556747169769071 0 -1 0 I I #
coedge $-1 $136 $138 $90 $148 reversed $83 $-1 #
edge $-1 $151 -46.000456478367845 $154 46.000456478367845 $147 $214 forward 7 unknown #
coedge $-1 $142 $91 $96 $157 forward $134 $-1 #
coedge $-1 $91 $142 $136 $205 reversed $134 $-1 #
vertex $-1 $92 $215 #
straight-curve $-1 0 46.000456478367845 22.556747169769071 -1 0 0 I I #
coedge $-1 $93 $137 $95 $156 reversed $51 $-1 #
vertex $-1 $148 $216 #
straight-curve $-1 0 -46.000456478367845 22.556747169769071 1 0 0 I I #
edge $-1 $98 -22.556747169769071 $145 22.556747169769071 $95 $217 forward 7 unknown #
edge $-1 $99 -22.556747169769071 $144 22.556747169769071 $96 $218 forward 7 unknown #
point $-1 71.561021759697255 -46.000456478367845 22.556747169769071 #
point $-1 71.561021759697255 46.000456478367845 22.556747169769071 #
face $-1 $219 $220 $13 $-1 $221 reversed single #
loop $-1 $-1 $222 $101 #
plane-surface $-1 0 0 -22.556747169769071 0 0 1 1 0 0 forward_v I I I I #
coedge $-1 $104 $223 $224 $225 forward $59 $-1 #
coedge $-1 $106 $105 $171 $226 reversed $37 $-1 #
coedge $-1 $224 $227 $105 $166 forward $220 $-1 #
edge $-1 $228 -10.201455319212251 $167 0.13292620032169311 $165 $229 forward 7 unknown #
vertex $-1 $166 $230 #
straight-curve $-1 -27.591516304780761 -38.952425321376083 22.556747169769071 1 0 0 I I #
vertex $-1 $226 $231 #
straight-curve $-1 -38.805043459425789 -46.000456478367838 14.998658906103586 0 -0.68199835119979291 -0.73135370988377701 I I #
coedge $-1 $232 $109 $164 $226 forward $102 $-1 #
coedge $-1 $109 $233 $111 $175 reversed $102 $-1 #
straight-curve $-1 -38.805043459425789 -46.000456478367845 56.303828303337824 0 0 -1 I I #
coedge $-1 $223 $111 $234 $235 forward $59 $-1 #
edge $-1 $113 -38.805043459425789 $236 71.561021759697255 $172 $237 forward 7 unknown #
point $-1 -38.805043459425789 -38.952425321376083 22.556747169769071 #
point $-1 -38.805043459425789 -46.000456478367845 22.556747169769071 #
face $-1 $238 $239 $14 $-1 $240 reversed single #
loop $-1 $-1 $241 $115 #
plane-surface $-1 0 0 22.556747169769071 0 0 1 1 0 0 forward_v I I I I #
loop $-1 $-1 $242 $66 #
coedge $-1 $183 $118 $243 $244 forward $67 $-1 #
coedge $-1 $118 $182 $245 $246 reversed $67 $-1 #
coedge $-1 $247 $241 $118 $185 forward $179 $-1 #
edge $-1 $248 -36.384221664836119 $249 -29.336190507844357 $184 $250 forward 7 unknown #
edge $-1 $251 1 $251 0 $119 $-1 forward 7 unknown #
vertex $-1 $120 $252 #
ellipse-curve $-1 -62.202170816762546 -40.602557661644418 17.030278691083414 0 -0.73135370988377701 0.68199835119979291 1 0 0 1 I I #
point $-1 -61.202170816762546 -42.476440899871974 18.777703037936337 #
face $-1 $253 $130 $15 $-1 $254 forward single #
loop $-1 $-1 $255 $123 #
plane-surface $-1 -38.805043459425789 -150.6732939724244 112.60765660667565 -1 0 0 0 -0.73135370988377701 0.68199835119979291 forward_v I I I I #
loop $-1 $-1 $256 $74 #
coedge $-1 $194 $194 $195 $257 forward $124 $-1 #
coedge $-1 $195 $195 $194 $257 reversed $126 $-1 #
coedge $-1 $196 $196 $127 $197 forward $201 $-1 #
edge $-1 $258 -2.9489812449829778e-015 $258 6.2831853071795978 $196 $259 forward 7 unknown #
edge $-1 $260 1 $260 0 $128 $-1 forward 7 unknown #
vertex $-1 $129 $261 #
ellipse-curve $-1 -48.163894402360491 -40.602557661644418 17.030278691083414 0 -0.73135370988377701 0.68199835119979291 1 0 0 1 I I #
loop $-1 $262 $196 $190 #
point $-1 -47.163894402360491 -42.476440899871974 18.777703037936337 #
plane-surface $-1 71.561021759697255 0 0 -1 0 0 0 0 1 forward_v I I I I #
coedge $-1 $138 $136 $140 $208 reversed $83 $-1 #
edge $-1 $151 -22.556747169769071 $210 22.556747169769071 $150 $263 forward 7 unknown #
vertex $-1 $208 $264 #
straight-curve $-1 -71.561021759697255 -46.000456478367845 0 0 0 -1 I I #
edge $-1 $206 -46.000456478367845 $210 46.000456478367845 $204 $265 forward 7 unknown #
straight-curve $-1 0 -46.000456478367845 -22.556747169769071 -1 0 0 I I #
vertex $-1 $143 $266 #
straight-curve $-1 0 46.000456478367845 -22.556747169769071 1 0 0 I I #
point $-1 71.561021759697255 46.000456478367845 -22.556747169769071 #
point $-1 71.561021759697255 -46.000456478367845 -22.556747169769071 #
straight-curve $-1 -71.561021759697255 0 22.556747169769071 0 -1 0 I I #
point $-1 -71.561021759697255 46.000456478367845 22.556747169769071 #
point $-1 -71.561021759697255 -46.000456478367845 22.556747169769071 #
straight-curve $-1 71.561021759697255 -46.000456478367845 0 0 0 -1 I I #
straight-curve $-1 71.561021759697255 46.000456478367845 0 0 0 -1 I I #
face $-1 $267 $268 $13 $-1 $269 reversed single #
loop $-1 $-1 $165 $160 #
plane-surface $-1 -71.561021759697255 0 0 1 0 0 0 0 -1 forward_v I I I I #
coedge $-1 $270 $271 $272 $273 forward $161 $-1 #
coedge $-1 $163 $174 $274 $275 forward $59 $-1 #
coedge $-1 $276 $165 $163 $225 reversed $220 $-1 #
edge $-1 $277 -46.000456478367845 $167 38.952425321376083 $224 $278 forward 7 unknown #
edge $-1 $169 11.213527154645028 $228 43.969505454916494 $171 $279 forward 7 unknown #
coedge $-1 $165 $280 $232 $281 reversed $220 $-1 #
vertex $-1 $281 $282 #
straight-curve $-1 -71.561021759697255 -39.043080770826734 22.45953110002305 0 0.68199835119979291 0.73135370988377701 I I #
point $-1 -71.561021759697255 -38.952425321376083 22.556747169769071 #
point $-1 -38.805043459425789 -46.000456478367845 14.998658906103579 #
coedge $-1 $283 $171 $227 $281 forward $102 $-1 #
coedge $-1 $172 $283 $284 $285 reversed $102 $-1 #
coedge $-1 $284 $286 $174 $235 reversed $287 $-1 #
edge $-1 $236 -46.000456478367845 $288 46.000456478367845 $234 $289 forward 7 unknown #
vertex $-1 $235 $290 #
straight-curve $-1 0 -46.000456478367845 22.556747169769071 1 0 0 I I #
face $-1 $291 $292 $14 $-1 $293 reversed single #
loop $-1 $-1 $245 $178 #
plane-surface $-1 0 -46.000456478367845 0 0 1 0 0 0 1 forward_v I I I I #
coedge $-1 $184 $294 $242 $295 forward $179 $-1 #
coedge $-1 $296 $243 $241 $295 reversed $181 $-1 #
coedge $-1 $242 $297 $182 $244 reversed $181 $-1 #
edge $-1 $248 -10.334381519533935 $298 1.004247040074496e-014 $182 $299 forward 7 unknown #
coedge $-1 $300 $301 $183 $246 forward $239 $-1 #
edge $-1 $249 33.747081133568756 $298 41.305169397234245 $245 $302 forward 7 unknown #
coedge $-1 $303 $184 $301 $304 forward $179 $-1 #
vertex $-1 $295 $305 #
vertex $-1 $304 $306 #
straight-curve $-1 -38.805043459425789 -75.336646986212202 22.556747169769068 0 -1 0 I I #
vertex $-1 $186 $307 #
point $-1 -61.202170816762546 -40.602557661644418 17.030278691083414 #
face $-1 $308 $309 $15 $-1 $310 forward single #
plane-surface $-1 -55.183032609561522 -46.000456478367838 14.998658906103586 0 -0.73135370988377701 0.68199835119979291 1 0 0 forward_v I I I I #
coedge $-1 $311 $312 $313 $314 reversed $191 $-1 #
coedge $-1 $256 $256 $-1 $315 forward $193 $-1 #
edge $-1 $316 0 $316 6.2831853071796004 $194 $317 forward 7 unknown #
vertex $-1 $197 $318 #
ellipse-curve $-1 -62.202170816762546 -42.476440899871967 18.777703037936327 0 0.73135370988377701 -0.68199835119979291 1 0 0 1 I I #
vertex $-1 $198 $319 #
point $-1 -47.163894402360491 -40.602557661644418 17.030278691083414 #
loop $-1 $-1 $320 $190 #
straight-curve $-1 -71.561021759697255 46.000456478367845 0 0 0 -1 I I #
point $-1 -71.561021759697255 -46.000456478367845 -22.556747169769071 #
straight-curve $-1 -71.561021759697255 0 -22.556747169769071 0 1 0 I I #
point $-1 -71.561021759697255 46.000456478367845 -22.556747169769071 #
face $-1 $-1 $287 $13 $-1 $321 reversed single #
loop $-1 $-1 $322 $219 #
plane-surface $-1 0 46.000456478367845 0 0 -1 0 0 0 -1 forward_v I I I I #
coedge $-1 $323 $222 $283 $324 forward $161 $-1 #
coedge $-1 $222 $323 $325 $326 forward $161 $-1 #
coedge $-1 $286 $284 $222 $273 reversed $287 $-1 #
edge $-1 $327 -46.000456478367845 $328 46.000456478367845 $272 $329 forward 7 unknown #
coedge $-1 $322 $330 $223 $275 reversed $268 $-1 #
edge $-1 $288 -71.561021759697255 $277 71.561021759697255 $274 $331 forward 7 unknown #
coedge $-1 $280 $224 $330 $332 forward $220 $-1 #
vertex $-1 $275 $333 #
straight-curve $-1 -71.561021759697255 0 22.556747169769071 0 -1 0 I I #
straight-curve $-1 -27.591516304780761 -46.000456478367845 14.998658906103572 -1 0 0 I I #
coedge $-1 $227 $276 $323 $334 reversed $220 $-1 #
edge $-1 $228 -14.998658906103579 $335 22.556747169769071 $227 $336 forward 7 unknown #
point $-1 -71.561021759697255 -46.000456478367845 14.998658906103579 #
coedge $-1 $233 $232 $270 $324 reversed $102 $-1 #
coedge $-1 $272 $234 $233 $285 forward $287 $-1 #
edge $-1 $236 -22.556747169769071 $328 22.556747169769071 $284 $337 forward 7 unknown #
coedge $-1 $234 $272 $322 $338 reversed $287 $-1 #
loop $-1 $-1 $284 $267 #
vertex $-1 $235 $339 #
straight-curve $-1 71.561021759697255 0 22.556747169769071 0 1 0 I I #
point $-1 71.561021759697255 -46.000456478367845 22.556747169769071 #
face $-1 $340 $341 $14 $-1 $342 reversed single #
loop $-1 $-1 $343 $238 #
plane-surface $-1 0 0 -22.556747169769071 0 0 1 1 0 0 forward_v I I I I #
coedge $-1 $241 $344 $345 $346 forward $179 $-1 #
edge $-1 $347 -43.969505454916494 $248 -11.213527154645028 $241 $348 forward 7 unknown #
coedge $-1 $297 $242 $349 $350 reversed $181 $-1 #
coedge $-1 $243 $296 $300 $351 reversed $181 $-1 #
vertex $-1 $351 $352 #
straight-curve $-1 -38.805043459425789 -46.000456478367838 14.998658906103586 0 -0.68199835119979291 -0.73135370988377701 I I #
coedge $-1 $353 $245 $297 $351 forward $239 $-1 #
coedge $-1 $245 $354 $247 $304 reversed $239 $-1 #
straight-curve $-1 -38.805043459425789 -46.000456478367845 56.303828303337824 0 0 -1 I I #
coedge $-1 $344 $247 $355 $356 forward $179 $-1 #
edge $-1 $249 -38.805043459425789 $357 71.561021759697255 $301 $358 forward 7 unknown #
point $-1 -38.805043459425789 -38.952425321376083 22.556747169769071 #
point $-1 -38.805043459425789 -46.000456478367845 22.556747169769071 #
point $-1 -62.202170816762546 -39.871203951760641 16.348280339883619 #
face $-1 $359 $360 $15 $-1 $361 reversed single #
loop $-1 $-1 $362 $253 #
plane-surface $-1 0 0 22.556747169769071 0 0 1 1 0 0 forward_v I I I I #
coedge $-1 $312 $255 $363 $364 forward $191 $-1 #
coedge $-1 $255 $311 $365 $366 reversed $191 $-1 #
coedge $-1 $367 $362 $255 $314 forward $309 $-1 #
edge $-1 $368 -36.384221664836119 $369 -29.336190507844357 $313 $370 forward 7 unknown #
edge $-1 $371 1 $371 0 $256 $-1 forward 7 unknown #
vertex $-1 $257 $372 #
ellipse-curve $-1 -62.202170816762546 -40.602557661644418 17.030278691083414 0 -0.73135370988377701 0.68199835119979291 1 0 0 1 I I #
point $-1 -61.202170816762546 -42.476440899871974 18.777703037936337 #
point $-1 -48.163894402360491 -39.871203951760641 16.348280339883619 #
coedge $-1 $373 $363 $362 $374 reversed $262 $-1 #
plane-surface $-1 71.561021759697255 0 0 -1 0 0 0 0 1 forward_v I I I I #
coedge $-1 $325 $274 $286 $338 forward $268 $-1 #
coedge $-1 $271 $270 $280 $334 forward $161 $-1 #
edge $-1 $328 -71.561021759697255 $335 71.561021759697255 $283 $375 forward 7 unknown #
coedge $-1 $330 $322 $271 $326 reversed $268 $-1 #
edge $-1 $376 -71.561021759697255 $327 71.561021759697255 $325 $377 forward 7 unknown #
vertex $-1 $273 $378 #
vertex $-1 $285 $379 #
straight-curve $-1 71.561021759697255 0 -22.556747169769071 0 -1 0 I I #
coedge $-1 $274 $325 $276 $332 reversed $268 $-1 #
straight-curve $-1 0 46.000456478367845 22.556747169769071 -1 0 0 I I #
edge $-1 $277 -22.556747169769071 $376 22.556747169769071 $330 $380 forward 7 unknown #
point $-1 -71.561021759697255 46.000456478367845 22.556747169769071 #
edge $-1 $335 -46.000456478367845 $376 46.000456478367845 $280 $381 forward 7 unknown #
vertex $-1 $334 $382 #
straight-curve $-1 -71.561021759697255 -46.000456478367845 0 0 0 -1 I I #
straight-curve $-1 71.561021759697255 -46.000456478367845 0 0 0 -1 I I #
edge $-1 $288 -22.556747169769071 $327 22.556747169769071 $286 $383 forward 7 unknown #
point $-1 71.561021759697255 46.000456478367845 22.556747169769071 #
face $-1 $384 $385 $14 $-1 $386 reversed single #
loop $-1 $-1 $349 $291 #
plane-surface $-1 -71.561021759697255 0 0 1 0 0 0 0 -1 forward_v I I I I #
coedge $-1 $387 $388 $389 $390 forward $292 $-1 #
coedge $-1 $294 $303 $391 $392 forward $179 $-1 #
coedge $-1 $393 $349 $294 $346 reversed $341 $-1 #
edge $-1 $394 -46.000456478367845 $347 38.952425321376083 $345 $395 forward 7 unknown #
vertex $-1 $350 $396 #
straight-curve $-1 -27.591516304780761 -38.952425321376083 22.556747169769071 1 0 0 I I #
coedge $-1 $345 $397 $296 $350 forward $341 $-1 #
edge $-1 $398 -10.201455319212251 $347 0.13292620032169311 $349 $399 forward 7 unknown #
edge $-1 $298 11.213527154645028 $398 43.969505454916494 $300 $400 forward 7 unknown #
point $-1 -38.805043459425789 -46.000456478367845 14.998658906103579 #
coedge $-1 $401 $300 $397 $402 forward $239 $-1 #
coedge $-1 $301 $401 $403 $404 reversed $239 $-1 #
coedge $-1 $403 $405 $303 $356 reversed $406 $-1 #
edge $-1 $357 -46.000456478367845 $407 46.000456478367845 $355 $408 forward 7 unknown #
vertex $-1 $356 $409 #
straight-curve $-1 0 -46.000456478367845 22.556747169769071 1 0 0 I I #
face $-1 $410 $411 $15 $-1 $412 reversed single #
loop $-1 $-1 $365 $308 #
plane-surface $-1 0 -46.000456478367845 0 0 1 0 0 0 1 forward_v I I I I #
coedge $-1 $313 $413 $320 $374 forward $309 $-1 #
coedge $-1 $320 $414 $311 $364 reversed $262 $-1 #
edge $-1 $368 -10.334381519533935 $415 1.004247040074496e-014 $311 $416 forward 7 unknown #
coedge $-1 $417 $418 $312 $366 forward $360 $-1 #
edge $-1 $369 33.747081133568756 $415 41.305169397234245 $365 $419 forward 7 unknown #
coedge $-1 $420 $313 $418 $421 forward $309 $-1 #
vertex $-1 $374 $422 #
vertex $-1 $421 $423 #
straight-curve $-1 -38.805043459425789 -75.336646986212202 22.556747169769068 0 -1 0 I I #
vertex $-1 $315 $424 #
point $-1 -61.202170816762546 -40.602557661644418 17.030278691083414 #
coedge $-1 $414 $320 $425 $426 reversed $262 $-1 #
edge $-1 $427 -43.969505454916494 $368 -11.213527154645028 $362 $428 forward 7 unknown #
straight-curve $-1 0 -46.000456478367845 -22.556747169769071 -1 0 0 I I #
vertex $-1 $326 $429 #
straight-curve $-1 0 46.000456478367845 -22.556747169769071 1 0 0 I I #
point $-1 71.561021759697255 46.000456478367845 -22.556747169769071 #
point $-1 71.561021759697255 -46.000456478367845 -22.556747169769071 #
straight-curve $-1 -71.561021759697255 46.000456478367845 0 0 0 -1 I I #
straight-curve $-1 -71.561021759697255 0 -22.556747169769071 0 1 0 I I #
point $-1 -71.561021759697255 -46.000456478367845 -22.556747169769071 #
straight-curve $-1 71.561021759697255 46.000456478367845 0 0 0 -1 I I #
face $-1 $-1 $406 $14 $-1 $430 reversed single #
loop $-1 $-1 $431 $340 #
plane-surface $-1 0 46.000456478367845 0 0 -1 0 0 0 -1 forward_v I I I I #
coedge $-1 $432 $343 $401 $433 forward $292 $-1 #
coedge $-1 $343 $432 $434 $435 forward $292 $-1 #
coedge $-1 $405 $403 $343 $390 reversed $406 $-1 #
edge $-1 $436 -46.000456478367845 $437 46.000456478367845 $389 $438 forward 7 unknown #
coedge $-1 $431 $439 $344 $392 reversed $385 $-1 #
edge $-1 $407 -71.561021759697255 $394 71.561021759697255 $391 $440 forward 7 unknown #
coedge $-1 $441 $345 $439 $442 forward $341 $-1 #
vertex $-1 $392 $443 #
straight-curve $-1 -71.561021759697255 0 22.556747169769071 0 -1 0 I I #
point $-1 -71.561021759697255 -38.952425321376083 22.556747169769071 #
coedge $-1 $349 $441 $353 $402 reversed $341 $-1 #
vertex $-1 $402 $444 #
straight-curve $-1 -71.561021759697255 -39.043080770826734 22.45953110002305 0 0.68199835119979291 0.73135370988377701 I I #
straight-curve $-1 -27.591516304780761 -46.000456478367845 14.998658906103572 -1 0 0 I I #
coedge $-1 $354 $353 $387 $433 reversed $239 $-1 #
edge $-1 $398 -14.998658906103579 $445 22.556747169769071 $397 $446 forward 7 unknown #
coedge $-1 $389 $355 $354 $404 forward $406 $-1 #
edge $-1 $357 -22.556747169769071 $437 22.556747169769071 $403 $447 forward 7 unknown #
coedge $-1 $355 $389 $431 $448 reversed $406 $-1 #
loop $-1 $-1 $403 $384 #
vertex $-1 $356 $449 #
straight-curve $-1 71.561021759697255 0 22.556747169769071 0 1 0 I I #
point $-1 71.561021759697255 -46.000456478367845 22.556747169769071 #
face $-1 $450 $451 $15 $-1 $452 reversed single #
loop $-1 $-1 $453 $359 #
plane-surface $-1 0 0 -22.556747169769071 0 0 1 1 0 0 forward_v I I I I #
coedge $-1 $362 $454 $455 $456 forward $309 $-1 #
coedge $-1 $363 $373 $417 $457 reversed $262 $-1 #
vertex $-1 $457 $458 #
straight-curve $-1 -38.805043459425789 -46.000456478367838 14.998658906103586 0 -0.68199835119979291 -0.73135370988377701 I I #
coedge $-1 $459 $365 $414 $457 forward $360 $-1 #
coedge $-1 $365 $460 $367 $421 reversed $360 $-1 #
straight-curve $-1 -38.805043459425789 -46.000456478367845 56.303828303337824 0 0 -1 I I #
coedge $-1 $454 $367 $461 $462 forward $309 $-1 #
edge $-1 $369 -38.805043459425789 $463 71.561021759697255 $418 $464 forward 7 unknown #
point $-1 -38.805043459425789 -38.952425321376083 22.556747169769071 #
point $-1 -38.805043459425789 -46.000456478367845 22.556747169769071 #
point $-1 -62.202170816762546 -39.871203951760641 16.348280339883619 #
coedge $-1 $455 $465 $373 $426 forward $451 $-1 #
edge $-1 $466 -10.201455319212251 $427 0.13292620032169311 $425 $467 forward 7 unknown #
vertex $-1 $426 $468 #
straight-curve $-1 -27.591516304780761 -38.952425321376083 22.556747169769071 1 0 0 I I #
point $-1 -71.561021759697255 46.000456478367845 -22.556747169769071 #
plane-surface $-1 71.561021759697255 0 0 -1 0 0 0 0 1 forward_v I I I I #
coedge $-1 $434 $391 $405 $448 forward $385 $-1 #
coedge $-1 $388 $387 $441 $469 forward $292 $-1 #
edge $-1 $437 -71.561021759697255 $445 71.561021759697255 $401 $470 forward 7 unknown #
coedge $-1 $439 $431 $388 $435 reversed $385 $-1 #
edge $-1 $471 -71.561021759697255 $436 71.561021759697255 $434 $472 forward 7 unknown #
vertex $-1 $390 $473 #
vertex $-1 $404 $474 #
straight-curve $-1 71.561021759697255 0 -22.556747169769071 0 -1 0 I I #
coedge $-1 $391 $434 $393 $442 reversed $385 $-1 #
straight-curve $-1 0 46.000456478367845 22.556747169769071 -1 0 0 I I #
coedge $-1 $397 $393 $432 $469 reversed $341 $-1 #
edge $-1 $394 -22.556747169769071 $471 22.556747169769071 $439 $475 forward 7 unknown #
point $-1 -71.561021759697255 46.000456478367845 22.556747169769071 #
point $-1 -71.561021759697255 -46.000456478367845 14.998658906103579 #
vertex $-1 $469 $476 #
straight-curve $-1 -71.561021759697255 -46.000456478367845 0 0 0 -1 I I #
straight-curve $-1 71.561021759697255 -46.000456478367845 0 0 0 -1 I I #
edge $-1 $407 -22.556747169769071 $436 22.556747169769071 $405 $477 forward 7 unknown #
point $-1 71.561021759697255 46.000456478367845 22.556747169769071 #
face $-1 $478 $479 $15 $-1 $480 reversed single #
loop $-1 $-1 $425 $410 #
plane-surface $-1 -71.561021759697255 0 0 1 0 0 0 0 -1 forward_v I I I I #
coedge $-1 $481 $482 $483 $484 forward $411 $-1 #
coedge $-1 $413 $420 $485 $486 forward $309 $-1 #
coedge $-1 $487 $425 $413 $456 reversed $451 $-1 #
edge $-1 $488 -46.000456478367845 $427 38.952425321376083 $455 $489 forward 7 unknown #
edge $-1 $415 11.213527154645028 $466 43.969505454916494 $417 $490 forward 7 unknown #
point $-1 -38.805043459425789 -46.000456478367845 14.998658906103579 #
coedge $-1 $491 $417 $465 $492 forward $360 $-1 #
coedge $-1 $418 $491 $493 $494 reversed $360 $-1 #
coedge $-1 $493 $495 $420 $462 reversed $496 $-1 #
edge $-1 $463 -46.000456478367845 $497 46.000456478367845 $461 $498 forward 7 unknown #
vertex $-1 $462 $499 #
straight-curve $-1 0 -46.000456478367845 22.556747169769071 1 0 0 I I #
coedge $-1 $425 $500 $459 $492 reversed $451 $-1 #
vertex $-1 $492 $501 #
straight-curve $-1 -71.561021759697255 -39.043080770826734 22.45953110002305 0 0.68199835119979291 0.73135370988377701 I I #
point $-1 -71.561021759697255 -38.952425321376083 22.556747169769071 #
edge $-1 $445 -46.000456478367845 $471 46.000456478367845 $441 $502 forward 7 unknown #
straight-curve $-1 0 -46.000456478367845 -22.556747169769071 -1 0 0 I I #
vertex $-1 $435 $503 #
straight-curve $-1 0 46.000456478367845 -22.556747169769071 1 0 0 I I #
point $-1 71.561021759697255 46.000456478367845 -22.556747169769071 #
point $-1 71.561021759697255 -46.000456478367845 -22.556747169769071 #
straight-curve $-1 -71.561021759697255 46.000456478367845 0 0 0 -1 I I #
point $-1 -71.561021759697255 -46.000456478367845 -22.556747169769071 #
straight-curve $-1 71.561021759697255 46.000456478367845 0 0 0 -1 I I #
face $-1 $-1 $496 $15 $-1 $504 reversed single #
loop $-1 $-1 $505 $450 #
plane-surface $-1 0 46.000456478367845 0 0 -1 0 0 0 -1 forward_v I I I I #
coedge $-1 $506 $453 $491 $507 forward $411 $-1 #
coedge $-1 $453 $506 $508 $509 forward $411 $-1 #
coedge $-1 $495 $493 $453 $484 reversed $496 $-1 #
edge $-1 $510 -46.000456478367845 $511 46.000456478367845 $483 $512 forward 7 unknown #
coedge $-1 $505 $513 $454 $486 reversed $479 $-1 #
edge $-1 $497 -71.561021759697255 $488 71.561021759697255 $485 $514 forward 7 unknown #
coedge $-1 $500 $455 $513 $515 forward $451 $-1 #
vertex $-1 $486 $516 #
straight-curve $-1 -71.561021759697255 0 22.556747169769071 0 -1 0 I I #
straight-curve $-1 -27.591516304780761 -46.000456478367845 14.998658906103572 -1 0 0 I I #
coedge $-1 $460 $459 $481 $507 reversed $360 $-1 #
edge $-1 $466 -14.998658906103579 $517 22.556747169769071 $465 $518 forward 7 unknown #
coedge $-1 $483 $461 $460 $494 forward $496 $-1 #
edge $-1 $463 -22.556747169769071 $511 22.556747169769071 $493 $519 forward 7 unknown #
coedge $-1 $461 $483 $505 $520 reversed $496 $-1 #
loop $-1 $-1 $493 $478 #
vertex $-1 $462 $521 #
straight-curve $-1 71.561021759697255 0 22.556747169769071 0 1 0 I I #
point $-1 71.561021759697255 -46.000456478367845 22.556747169769071 #
coedge $-1 $465 $487 $506 $522 reversed $451 $-1 #
point $-1 -71.561021759697255 -46.000456478367845 14.998658906103579 #
straight-curve $-1 -71.561021759697255 0 -22.556747169769071 0 1 0 I I #
point $-1 -71.561021759697255 46.000456478367845 -22.556747169769071 #
plane-surface $-1 71.561021759697255 0 0 -1 0 0 0 0 1 forward_v I I I I #
coedge $-1 $508 $485 $495 $520 forward $479 $-1 #
coedge $-1 $482 $481 $500 $522 forward $411 $-1 #
edge $-1 $511 -71.561021759697255 $517 71.561021759697255 $491 $523 forward 7 unknown #
coedge $-1 $513 $505 $482 $509 reversed $479 $-1 #
edge $-1 $524 -71.561021759697255 $510 71.561021759697255 $508 $525 forward 7 unknown #
vertex $-1 $484 $526 #
vertex $-1 $494 $527 #
straight-curve $-1 71.561021759697255 0 -22.556747169769071 0 -1 0 I I #
coedge $-1 $485 $508 $487 $515 reversed $479 $-1 #
straight-curve $-1 0 46.000456478367845 22.556747169769071 -1 0 0 I I #
edge $-1 $488 -22.556747169769071 $524 22.556747169769071 $513 $528 forward 7 unknown #
point $-1 -71.561021759697255 46.000456478367845 22.556747169769071 #
vertex $-1 $522 $529 #
straight-curve $-1 -71.561021759697255 -46.000456478367845 0 0 0 -1 I I #
straight-curve $-1 71.561021759697255 -46.000456478367845 0 0 0 -1 I I #
edge $-1 $497 -22.556747169769071 $510 22.556747169769071 $495 $530 forward 7 unknown #
point $-1 71.561021759697255 46.000456478367845 22.556747169769071 #
edge $-1 $517 -46.000456478367845 $524 46.000456478367845 $500 $531 forward 7 unknown #
straight-curve $-1 0 -46.000456478367845 -22.556747169769071 -1 0 0 I I #
vertex $-1 $509 $532 #
straight-curve $-1 0 46.000456478367845 -22.556747169769071 1 0 0 I I #
point $-1 71.561021759697255 46.000456478367845 -22.556747169769071 #
point $-1 71.561021759697255 -46.000456478367845 -22.556747169769071 #
straight-curve $-1 -71.561021759697255 46.000456478367845 0 0 0 -1 I I #
point $-1 -71.561021759697255 -46.000456478367845 -22.556747169769071 #
straight-curve $-1 71.561021759697255 46.000456478367845 0 0 0 -1 I I #
straight-curve $-1 -71.561021759697255 0 -22.556747169769071 0 1 0 I I #
point $-1 -71.561021759697255 46.000456478367845 -22.556747169769071 #
End-of-ACIS-data 