500 0 14 0           
7 Unknown 11 ACIS 5.0 NT 24 Fri Mar 26 00:49:35 1999 
-1 9.9999999999999995e-007 1e-010 
body $-1 $14 $-1 $15 #
body $-1 $16 $-1 $17 #
body $-1 $18 $-1 $19 #
body $-1 $20 $-1 $21 #
body $-1 $22 $-1 $23 #
body $-1 $24 $-1 $25 #
body $-1 $26 $-1 $27 #
body $-1 $28 $-1 $29 #
body $-1 $30 $-1 $31 #
body $-1 $32 $-1 $33 #
body $-1 $34 $-1 $35 #
body $-1 $36 $-1 $37 #
body $-1 $38 $-1 $39 #
body $-1 $40 $-1 $41 #
lump $-1 $-1 $42 $0 #
transform $-1 1 0 0 0 1 0 0 0 1 45.952330088198494 19.479850027683717 6.694976014641651 1 rotate no_reflect no_shear #
lump $-1 $-1 $43 $1 #
transform $-1 1 0 0 0 1 0 0 0 1 45.952330088198494 19.479850027683717 6.694976014641651 1 rotate no_reflect no_shear #
lump $-1 $-1 $44 $2 #
transform $-1 1 0 0 0 1 0 0 0 1 45.952330088198494 19.479850027683717 6.694976014641651 1 rotate no_reflect no_shear #
lump $-1 $-1 $45 $3 #
transform $-1 1 0 0 0 1 0 0 0 1 45.952330088198494 19.479850027683717 6.694976014641651 1 rotate no_reflect no_shear #
lump $-1 $-1 $46 $4 #
transform $-1 1 0 0 0 1 0 0 0 1 45.952330088198494 19.479850027683717 6.694976014641651 1 rotate no_reflect no_shear #
lump $-1 $-1 $47 $5 #
transform $-1 1 0 0 0 1 0 0 0 1 45.952330088198494 19.479850027683717 6.694976014641651 1 rotate no_reflect no_shear #
lump $-1 $-1 $48 $6 #
transform $-1 1 0 0 0 1 0 0 0 1 45.952330088198494 19.479850027683717 6.694976014641651 1 rotate no_reflect no_shear #
lump $-1 $-1 $49 $7 #
transform $-1 1 0 0 0 1 0 0 0 1 45.952330088198494 19.479850027683717 6.694976014641651 1 rotate no_reflect no_shear #
lump $-1 $-1 $50 $8 #
transform $-1 1 0 0 0 1 0 0 0 1 45.952330088198494 19.479850027683717 6.694976014641651 1 rotate no_reflect no_shear #
lump $-1 $-1 $51 $9 #
transform $-1 1 0 0 0 1 0 0 0 1 45.952330088198494 19.479850027683717 6.694976014641651 1 rotate no_reflect no_shear #
lump $-1 $-1 $52 $10 #
transform $-1 1 0 0 0 1 0 0 0 1 45.952330088198494 19.479850027683717 6.694976014641651 1 rotate no_reflect no_shear #
lump $-1 $-1 $53 $11 #
transform $-1 1 0 0 0 1 0 0 0 1 45.952330088198494 19.479850027683717 6.694976014641651 1 rotate no_reflect no_shear #
lump $-1 $-1 $54 $12 #
transform $-1 1 0 0 0 1 0 0 0 1 45.952330088198494 19.479850027683717 6.694976014641651 1 rotate no_reflect no_shear #
lump $-1 $-1 $55 $13 #
transform $-1 1 0 0 0 1 0 0 0 1 45.952330088198494 19.479850027683717 6.694976014641651 1 rotate no_reflect no_shear #
shell $-1 $-1 $-1 $56 $-1 $14 #
shell $-1 $-1 $-1 $57 $-1 $16 #
shell $-1 $-1 $-1 $58 $-1 $18 #
shell $-1 $-1 $-1 $59 $-1 $20 #
shell $-1 $-1 $-1 $60 $-1 $22 #
shell $-1 $-1 $-1 $61 $-1 $24 #
shell $-1 $-1 $-1 $62 $-1 $26 #
shell $-1 $-1 $-1 $63 $-1 $28 #
shell $-1 $-1 $-1 $64 $-1 $30 #
shell $-1 $-1 $-1 $65 $-1 $32 #
shell $-1 $-1 $-1 $66 $-1 $34 #
shell $-1 $-1 $-1 $67 $-1 $36 #
shell $-1 $-1 $-1 $68 $-1 $38 #
shell $-1 $-1 $-1 $69 $-1 $40 #
face $-1 $70 $71 $42 $-1 $72 forward single #
face $-1 $73 $74 $43 $-1 $75 forward single #
face $-1 $76 $77 $44 $-1 $78 reversed single #
face $-1 $79 $80 $45 $-1 $81 forward single #
face $-1 $82 $83 $46 $-1 $84 forward single #
face $-1 $85 $86 $47 $-1 $87 reversed single #
face $-1 $88 $89 $48 $-1 $90 forward single #
face $-1 $91 $92 $49 $-1 $93 forward single #
face $-1 $94 $95 $50 $-1 $96 reversed single #
face $-1 $97 $98 $51 $-1 $99 forward single #
face $-1 $100 $101 $52 $-1 $102 forward single #
face $-1 $103 $104 $53 $-1 $105 reversed single #
face $-1 $106 $107 $54 $-1 $108 forward single #
face $-1 $109 $110 $55 $-1 $111 forward single #
face $-1 $112 $113 $42 $-1 $114 reversed single #
loop $-1 $-1 $115 $56 #
plane-surface $-1 0 0 6.694976014641651 0 0 1 1 0 0 forward_v I I I I #
face $-1 $116 $117 $43 $-1 $118 forward single #
loop $-1 $-1 $119 $57 #
plane-surface $-1 0 -19.479850027683717 0 0 1 0 0 0 1 forward_v I I I I #
face $-1 $120 $121 $44 $-1 $122 reversed single #
loop $-1 $-1 $123 $58 #
plane-surface $-1 -126.33395775720113 -9.2180413039345375 46.47078903000105 0 1 0 -0.87461971476443456 0 0.48480960649040278 forward_v I I I I #
face $-1 $124 $125 $45 $-1 $126 forward single #
loop $-1 $127 $128 $59 #
cone-surface $-1 -42.900068459257412 -6.9903135460992605 3.3472720863844057 0.87461971476443456 0 -0.48480960649040278 0.48480960649040278 0 0.87461971476443456 1 I I 0 1 1 forward I I I I #
face $-1 $129 $130 $46 $-1 $131 forward single #
loop $-1 $132 $133 $60 #
cone-surface $-1 -42.900068459257412 -3.6487219093463459 3.3472720863844057 0.87461971476443456 0 -0.48480960649040278 0.48480960649040278 0 0.87461971476443456 1 I I 0 1 1 forward I I I I #
face $-1 $134 $135 $47 $-1 $136 reversed single #
loop $-1 $-1 $137 $61 #
plane-surface $-1 -126.33395775720113 7.979579319550294 46.47078903000105 0 1 0 -0.87461971476443456 0 0.48480960649040278 forward_v I I I I #
face $-1 $138 $139 $48 $-1 $140 forward single #
loop $-1 $141 $142 $62 #
cone-surface $-1 -42.900068459257412 10.207307077385572 3.3472720863844057 0.87461971476443456 0 -0.48480960649040278 0.48480960649040278 0 0.87461971476443456 1 I I 0 1 1 forward I I I I #
face $-1 $143 $144 $49 $-1 $145 forward single #
loop $-1 $146 $147 $63 #
cone-surface $-1 -42.900068459257412 13.548898714138481 3.3472720863844057 0.87461971476443456 0 -0.48480960649040278 0.48480960649040278 0 0.87461971476443456 1 I I 0 1 1 forward I I I I #
face $-1 $148 $149 $50 $-1 $150 reversed single #
loop $-1 $-1 $151 $64 #
plane-surface $-1 81.777695622447908 -1.4209941515110716 126.85241669900365 0 -1 0 -0.87461971476443456 0 -0.48480960649040278 forward_v I I I I #
face $-1 $152 $153 $51 $-1 $154 forward single #
loop $-1 $155 $156 $65 #
cone-surface $-1 42.900068459257398 -6.9903135460992605 3.3472720863844021 -0.87461971476443456 0 -0.48480960649040278 0.48480960649040278 0 -0.87461971476443456 1 I I 0 1 1 forward I I I I #
face $-1 $157 $158 $52 $-1 $159 forward single #
loop $-1 $160 $161 $66 #
cone-surface $-1 42.900068459257398 -3.6487219093463459 3.3472720863844021 -0.87461971476443456 0 -0.48480960649040278 0.48480960649040278 0 -0.87461971476443456 1 I I 0 1 1 forward I I I I #
face $-1 $162 $163 $53 $-1 $164 reversed single #
loop $-1 $-1 $165 $67 #
plane-surface $-1 81.777695622447908 15.77662647197376 126.85241669900365 0 -1 0 -0.87461971476443456 0 -0.48480960649040278 forward_v I I I I #
face $-1 $166 $167 $54 $-1 $168 forward single #
loop $-1 $169 $170 $68 #
cone-surface $-1 42.900068459257398 10.207307077385572 3.3472720863844021 -0.87461971476443456 0 -0.48480960649040278 0.48480960649040278 0 -0.87461971476443456 1 I I 0 1 1 forward I I I I #
face $-1 $171 $172 $55 $-1 $173 forward single #
loop $-1 $174 $175 $69 #
cone-surface $-1 42.900068459257398 13.548898714138481 3.3472720863844021 -0.87461971476443456 0 -0.48480960649040278 0.48480960649040278 0 -0.87461971476443456 1 I I 0 1 1 forward I I I I #
face $-1 $176 $177 $42 $-1 $178 reversed single #
loop $-1 $-1 $179 $70 #
plane-surface $-1 0 0 -6.694976014641651 0 0 1 1 0 0 forward_v I I I I #
coedge $-1 $180 $181 $182 $183 forward $71 $-1 #
face $-1 $184 $185 $43 $-1 $186 reversed single #
loop $-1 $-1 $187 $73 #
plane-surface $-1 0 0 6.694976014641651 0 0 1 1 0 0 forward_v I I I I #
coedge $-1 $188 $189 $190 $191 forward $74 $-1 #
face $-1 $192 $193 $44 $-1 $194 reversed single #
loop $-1 $-1 $195 $76 #
plane-surface $-1 -45.952330088198508 -5.3195177277228041 1.9145268952478389 -0.87461971476443456 0 0.48480960649040278 0.48480960649040278 0 0.87461971476443456 forward_v I I I I #
coedge $-1 $196 $197 $198 $199 reversed $77 $-1 #
face $-1 $-1 $200 $45 $-1 $201 forward single #
loop $-1 $202 $203 $79 #
cone-surface $-1 -40.735420032234757 -6.9903135460992605 2.1473879145788635 0.87461971476443456 0 -0.48480960649040278 0.24240480324520139 0 0.43730985738221728 1 I I -0.70710678118654746 0.70710678118654746 0.5 forward I I I I #
loop $-1 $-1 $204 $59 #
coedge $-1 $128 $128 $205 $206 reversed $80 $-1 #
face $-1 $-1 $207 $46 $-1 $208 forward single #
loop $-1 $209 $210 $82 #
cone-surface $-1 -40.735420032234757 -3.6487219093463459 2.1473879145788635 0.87461971476443456 0 -0.48480960649040278 0.24240480324520139 0 0.43730985738221728 1 I I -0.70710678118654746 0.70710678118654746 0.5 forward I I I I #
loop $-1 $-1 $211 $60 #
coedge $-1 $133 $133 $212 $213 reversed $83 $-1 #
face $-1 $214 $215 $47 $-1 $216 reversed single #
loop $-1 $-1 $217 $85 #
plane-surface $-1 -45.952330088198508 11.878102895762026 1.9145268952478389 -0.87461971476443456 0 0.48480960649040278 0.48480960649040278 0 0.87461971476443456 forward_v I I I I #
coedge $-1 $218 $219 $220 $221 reversed $86 $-1 #
face $-1 $-1 $222 $48 $-1 $223 forward single #
loop $-1 $224 $225 $88 #
cone-surface $-1 -40.735420032234757 10.207307077385572 2.1473879145788635 0.87461971476443456 0 -0.48480960649040278 0.24240480324520139 0 0.43730985738221728 1 I I -0.70710678118654746 0.70710678118654746 0.5 forward I I I I #
loop $-1 $-1 $226 $62 #
coedge $-1 $142 $142 $227 $228 reversed $89 $-1 #
face $-1 $-1 $229 $49 $-1 $230 forward single #
loop $-1 $231 $232 $91 #
cone-surface $-1 -40.735420032234757 13.548898714138481 2.1473879145788635 0.87461971476443456 0 -0.48480960649040278 0.24240480324520139 0 0.43730985738221728 1 I I -0.70710678118654746 0.70710678118654746 0.5 forward I I I I #
loop $-1 $-1 $233 $63 #
coedge $-1 $147 $147 $234 $235 reversed $92 $-1 #
face $-1 $236 $237 $50 $-1 $238 reversed single #
loop $-1 $-1 $239 $94 #
plane-surface $-1 1.3960679534452822 -5.3195177277228041 82.296154564250443 0.87461971476443456 0 0.48480960649040278 0.48480960649040278 0 -0.87461971476443456 forward_v I I I I #
coedge $-1 $240 $241 $242 $243 reversed $95 $-1 #
face $-1 $-1 $244 $51 $-1 $245 forward single #
loop $-1 $246 $247 $97 #
cone-surface $-1 40.735420032234742 -6.9903135460992605 2.1473879145788599 -0.87461971476443456 0 -0.48480960649040278 0.24240480324520139 0 -0.43730985738221728 1 I I -0.70710678118654746 0.70710678118654746 0.5 forward I I I I #
loop $-1 $-1 $248 $65 #
coedge $-1 $156 $156 $249 $250 reversed $98 $-1 #
face $-1 $-1 $251 $52 $-1 $252 forward single #
loop $-1 $253 $254 $100 #
cone-surface $-1 40.735420032234742 -3.6487219093463459 2.1473879145788599 -0.87461971476443456 0 -0.48480960649040278 0.24240480324520139 0 -0.43730985738221728 1 I I -0.70710678118654746 0.70710678118654746 0.5 forward I I I I #
loop $-1 $-1 $255 $66 #
coedge $-1 $161 $161 $256 $257 reversed $101 $-1 #
face $-1 $258 $259 $53 $-1 $260 reversed single #
loop $-1 $-1 $261 $103 #
plane-surface $-1 1.3960679534452822 11.878102895762026 82.296154564250443 0.87461971476443456 0 0.48480960649040278 0.48480960649040278 0 -0.87461971476443456 forward_v I I I I #
coedge $-1 $262 $263 $264 $265 reversed $104 $-1 #
face $-1 $-1 $266 $54 $-1 $267 forward single #
loop $-1 $268 $269 $106 #
cone-surface $-1 40.735420032234742 10.207307077385572 2.1473879145788599 -0.87461971476443456 0 -0.48480960649040278 0.24240480324520139 0 -0.43730985738221728 1 I I -0.70710678118654746 0.70710678118654746 0.5 forward I I I I #
loop $-1 $-1 $270 $68 #
coedge $-1 $170 $170 $271 $272 reversed $107 $-1 #
face $-1 $-1 $273 $55 $-1 $274 forward single #
loop $-1 $275 $276 $109 #
cone-surface $-1 40.735420032234742 13.548898714138481 2.1473879145788599 -0.87461971476443456 0 -0.48480960649040278 0.24240480324520139 0 -0.43730985738221728 1 I I -0.70710678118654746 0.70710678118654746 0.5 forward I I I I #
loop $-1 $-1 $277 $69 #
coedge $-1 $175 $175 $278 $279 reversed $110 $-1 #
face $-1 $280 $281 $42 $-1 $282 reversed single #
loop $-1 $-1 $283 $112 #
plane-surface $-1 0 -19.479850027683717 0 0 1 0 0 0 1 forward_v I I I I #
coedge $-1 $284 $285 $286 $287 forward $113 $-1 #
coedge $-1 $288 $115 $289 $290 forward $71 $-1 #
coedge $-1 $115 $288 $291 $292 forward $71 $-1 #
coedge $-1 $293 $294 $115 $183 reversed $295 $-1 #
edge $-1 $296 -19.479850027683717 $297 19.479850027683717 $182 $298 forward 7 unknown #
face $-1 $299 $300 $43 $-1 $301 reversed single #
loop $-1 $-1 $302 $116 #
plane-surface $-1 -45.952330088198494 0 0 1 0 0 0 0 -1 forward_v I I I I #
coedge $-1 $303 $304 $305 $306 forward $117 $-1 #
coedge $-1 $305 $119 $302 $307 reversed $74 $-1 #
coedge $-1 $119 $305 $308 $309 reversed $74 $-1 #
coedge $-1 $310 $311 $119 $191 reversed $300 $-1 #
edge $-1 $312 -45.952330088198494 $313 45.952330088198494 $190 $314 forward 7 unknown #
face $-1 $315 $316 $44 $-1 $317 forward single #
loop $-1 $-1 $318 $120 #
plane-surface $-1 -126.33395775720113 -1.4209941515110716 46.47078903000105 0 -1 0 0.87461971476443456 0 -0.48480960649040278 forward_v I I I I #
coedge $-1 $319 $320 $321 $322 reversed $121 $-1 #
coedge $-1 $197 $123 $323 $324 reversed $77 $-1 #
coedge $-1 $123 $196 $319 $325 reversed $77 $-1 #
coedge $-1 $321 $326 $123 $199 forward $316 $-1 #
edge $-1 $327 17.214648790402073 $328 19.864494909003355 $198 $329 forward 7 unknown #
loop $-1 $-1 $205 $124 #
plane-surface $-1 -45.952330088198508 -5.3195177277228041 1.9145268952478389 -0.87461971476443456 0 0.48480960649040278 0.48480960649040278 0 0.87461971476443456 forward_v I I I I #
loop $-1 $-1 $330 $79 #
coedge $-1 $203 $203 $204 $331 reversed $125 $-1 #
coedge $-1 $204 $204 $203 $331 forward $127 $-1 #
coedge $-1 $205 $205 $128 $206 forward $200 $-1 #
edge $-1 $332 0 $332 6.2831853071796004 $205 $333 forward 7 unknown #
loop $-1 $-1 $212 $129 #
plane-surface $-1 -45.952330088198508 -5.3195177277228041 1.9145268952478389 -0.87461971476443456 0 0.48480960649040278 0.48480960649040278 0 0.87461971476443456 forward_v I I I I #
loop $-1 $-1 $334 $82 #
coedge $-1 $210 $210 $211 $335 reversed $130 $-1 #
coedge $-1 $211 $211 $210 $335 forward $132 $-1 #
coedge $-1 $212 $212 $133 $213 forward $207 $-1 #
edge $-1 $336 0 $336 6.2831853071796004 $212 $337 forward 7 unknown #
face $-1 $338 $339 $47 $-1 $340 forward single #
loop $-1 $-1 $341 $134 #
plane-surface $-1 -126.33395775720113 15.77662647197376 46.47078903000105 0 -1 0 0.87461971476443456 0 -0.48480960649040278 forward_v I I I I #
coedge $-1 $342 $343 $344 $345 reversed $135 $-1 #
coedge $-1 $219 $137 $346 $347 reversed $86 $-1 #
coedge $-1 $137 $218 $342 $348 reversed $86 $-1 #
coedge $-1 $344 $349 $137 $221 forward $339 $-1 #
edge $-1 $350 17.214648790402073 $351 19.864494909003355 $220 $352 forward 7 unknown #
loop $-1 $-1 $227 $138 #
plane-surface $-1 -45.952330088198508 11.878102895762026 1.9145268952478389 -0.87461971476443456 0 0.48480960649040278 0.48480960649040278 0 0.87461971476443456 forward_v I I I I #
loop $-1 $-1 $353 $88 #
coedge $-1 $225 $225 $226 $354 reversed $139 $-1 #
coedge $-1 $226 $226 $225 $354 forward $141 $-1 #
coedge $-1 $227 $227 $142 $228 forward $222 $-1 #
edge $-1 $355 0 $355 6.2831853071796004 $227 $356 forward 7 unknown #
loop $-1 $-1 $234 $143 #
plane-surface $-1 -45.952330088198508 11.878102895762026 1.9145268952478389 -0.87461971476443456 0 0.48480960649040278 0.48480960649040278 0 0.87461971476443456 forward_v I I I I #
loop $-1 $-1 $357 $91 #
coedge $-1 $232 $232 $233 $358 reversed $144 $-1 #
coedge $-1 $233 $233 $232 $358 forward $146 $-1 #
coedge $-1 $234 $234 $147 $235 forward $229 $-1 #
edge $-1 $359 0 $359 6.2831853071796004 $234 $360 forward 7 unknown #
face $-1 $361 $362 $50 $-1 $363 reversed single #
loop $-1 $-1 $364 $148 #
plane-surface $-1 81.777695622447908 -9.2180413039345375 126.85241669900365 0 1 0 0.87461971476443456 0 0.48480960649040278 forward_v I I I I #
coedge $-1 $365 $366 $367 $368 reversed $149 $-1 #
coedge $-1 $241 $151 $369 $370 reversed $95 $-1 #
coedge $-1 $151 $240 $365 $371 reversed $95 $-1 #
coedge $-1 $367 $372 $151 $243 forward $373 $-1 #
edge $-1 $374 -5.0634822769745398 $375 -2.4136361583732366 $242 $376 forward 7 unknown #
loop $-1 $-1 $249 $152 #
plane-surface $-1 1.3960679534452822 -5.3195177277228041 82.296154564250443 0.87461971476443456 0 0.48480960649040278 0.48480960649040278 0 -0.87461971476443456 forward_v I I I I #
loop $-1 $-1 $377 $97 #
coedge $-1 $247 $247 $248 $378 reversed $153 $-1 #
coedge $-1 $248 $248 $247 $378 forward $155 $-1 #
coedge $-1 $249 $249 $156 $250 forward $244 $-1 #
edge $-1 $379 0 $379 6.2831853071796004 $249 $380 forward 7 unknown #
loop $-1 $-1 $256 $157 #
plane-surface $-1 1.3960679534452822 -5.3195177277228041 82.296154564250443 0.87461971476443456 0 0.48480960649040278 0.48480960649040278 0 -0.87461971476443456 forward_v I I I I #
loop $-1 $-1 $381 $100 #
coedge $-1 $254 $254 $255 $382 reversed $158 $-1 #
coedge $-1 $255 $255 $254 $382 forward $160 $-1 #
coedge $-1 $256 $256 $161 $257 forward $251 $-1 #
edge $-1 $383 0 $383 6.2831853071796004 $256 $384 forward 7 unknown #
face $-1 $385 $386 $53 $-1 $387 reversed single #
loop $-1 $-1 $388 $162 #
plane-surface $-1 81.777695622447908 7.979579319550294 126.85241669900365 0 1 0 0.87461971476443456 0 0.48480960649040278 forward_v I I I I #
coedge $-1 $389 $390 $391 $392 reversed $163 $-1 #
coedge $-1 $263 $165 $393 $394 reversed $104 $-1 #
coedge $-1 $165 $262 $389 $395 reversed $104 $-1 #
coedge $-1 $391 $396 $165 $265 forward $397 $-1 #
edge $-1 $398 -5.0634822769745398 $399 -2.4136361583732366 $264 $400 forward 7 unknown #
loop $-1 $-1 $271 $166 #
plane-surface $-1 1.3960679534452822 11.878102895762026 82.296154564250443 0.87461971476443456 0 0.48480960649040278 0.48480960649040278 0 -0.87461971476443456 forward_v I I I I #
loop $-1 $-1 $401 $106 #
coedge $-1 $269 $269 $270 $402 reversed $167 $-1 #
coedge $-1 $270 $270 $269 $402 forward $169 $-1 #
coedge $-1 $271 $271 $170 $272 forward $266 $-1 #
edge $-1 $403 0 $403 6.2831853071796004 $271 $404 forward 7 unknown #
loop $-1 $-1 $278 $171 #
plane-surface $-1 1.3960679534452822 11.878102895762026 82.296154564250443 0.87461971476443456 0 0.48480960649040278 0.48480960649040278 0 -0.87461971476443456 forward_v I I I I #
loop $-1 $-1 $405 $109 #
coedge $-1 $276 $276 $277 $406 reversed $172 $-1 #
coedge $-1 $277 $277 $276 $406 forward $174 $-1 #
coedge $-1 $278 $278 $175 $279 forward $273 $-1 #
edge $-1 $407 0 $407 6.2831853071796004 $278 $408 forward 7 unknown #
face $-1 $409 $410 $42 $-1 $411 reversed single #
loop $-1 $-1 $412 $176 #
plane-surface $-1 -45.952330088198494 0 0 1 0 0 0 0 -1 forward_v I I I I #
coedge $-1 $413 $291 $414 $415 forward $177 $-1 #
coedge $-1 $416 $179 $413 $417 forward $113 $-1 #
coedge $-1 $179 $416 $418 $419 forward $113 $-1 #
coedge $-1 $294 $293 $179 $287 reversed $295 $-1 #
edge $-1 $420 -19.479850027683717 $421 19.479850027683717 $286 $422 forward 7 unknown #
coedge $-1 $181 $180 $423 $424 forward $71 $-1 #
coedge $-1 $425 $426 $180 $290 reversed $410 $-1 #
edge $-1 $297 -45.952330088198494 $427 45.952330088198494 $289 $428 forward 7 unknown #
coedge $-1 $283 $429 $181 $292 reversed $177 $-1 #
edge $-1 $430 -45.952330088198494 $296 45.952330088198494 $291 $431 forward 7 unknown #
coedge $-1 $286 $182 $429 $432 forward $295 $-1 #
coedge $-1 $182 $286 $425 $433 reversed $295 $-1 #
loop $-1 $-1 $293 $409 #
vertex $-1 $183 $434 #
vertex $-1 $183 $435 #
straight-curve $-1 45.952330088198494 0 6.694976014641651 0 1 0 I I #
face $-1 $436 $437 $43 $-1 $438 reversed single #
loop $-1 $-1 $310 $184 #
plane-surface $-1 0 -21.762079431882604 3.694976014641651 0 0 1 1 0 0 forward_v I I I I #
coedge $-1 $439 $440 $188 $307 forward $185 $-1 #
coedge $-1 $441 $187 $440 $442 forward $117 $-1 #
coedge $-1 $187 $441 $443 $444 forward $117 $-1 #
coedge $-1 $189 $188 $187 $306 reversed $74 $-1 #
edge $-1 $445 -45.952330088198494 $446 45.952330088198494 $187 $447 forward 7 unknown #
edge $-1 $446 -6.694976014641651 $313 -3.694976014641651 $302 $448 forward 7 unknown #
coedge $-1 $443 $449 $189 $309 forward $450 $-1 #
edge $-1 $312 3.694976014641651 $445 6.694976014641651 $308 $451 forward 7 unknown #
coedge $-1 $452 $190 $449 $453 forward $300 $-1 #
coedge $-1 $190 $452 $439 $454 forward $300 $-1 #
vertex $-1 $309 $455 #
vertex $-1 $307 $456 #
straight-curve $-1 0 -19.479850027683717 3.694976014641651 -1 0 0 I I #
face $-1 $-1 $457 $44 $-1 $458 reversed single #
loop $-1 $-1 $198 $192 #
plane-surface $-1 0 0 6.694976014641651 0 0 1 1 0 0 forward_v I I I I #
coedge $-1 $459 $460 $461 $462 reversed $193 $-1 #
coedge $-1 $463 $195 $197 $325 forward $121 $-1 #
coedge $-1 $195 $463 $459 $464 forward $121 $-1 #
coedge $-1 $461 $198 $195 $322 forward $316 $-1 #
edge $-1 $328 -6.5582824400731354 $465 1.2387647123503305 $321 $466 forward 7 unknown #
coedge $-1 $467 $468 $196 $324 forward $457 $-1 #
edge $-1 $469 -21.320867619752661 $327 -16.540418500358875 $323 $470 forward 7 unknown #
edge $-1 $328 -5.465745899269324 $469 -2.9223086620188301e-014 $197 $471 forward 7 unknown #
coedge $-1 $198 $461 $467 $472 forward $316 $-1 #
vertex $-1 $324 $473 #
vertex $-1 $199 $474 #
straight-curve $-1 -63.166978878600567 -9.2180413039345375 6.6949760146416502 1 0 0 I I #
coedge $-1 $330 $330 $-1 $475 reversed $202 $-1 #
edge $-1 $476 0 $476 6.2831853071796004 $203 $477 forward 7 unknown #
vertex $-1 $206 $478 #
ellipse-curve $-1 -44.627407028897856 -6.9903135460992605 4.3047514549447508 -0.87461971476443456 0 0.48480960649040278 0.48480960649040278 0 0.87461971476443456 1 I I #
coedge $-1 $334 $334 $-1 $479 reversed $209 $-1 #
edge $-1 $480 0 $480 6.2831853071796004 $210 $481 forward 7 unknown #
vertex $-1 $213 $482 #
ellipse-curve $-1 -44.627407028897856 -3.6487219093463459 4.3047514549447508 -0.87461971476443456 0 0.48480960649040278 0.48480960649040278 0 0.87461971476443456 1 I I #
face $-1 $-1 $483 $47 $-1 $484 reversed single #
loop $-1 $-1 $220 $214 #
plane-surface $-1 0 0 6.694976014641651 0 0 1 1 0 0 forward_v I I I I #
coedge $-1 $485 $486 $487 $488 reversed $215 $-1 #
coedge $-1 $489 $217 $219 $348 forward $135 $-1 #
coedge $-1 $217 $489 $485 $490 forward $135 $-1 #
coedge $-1 $487 $220 $217 $345 forward $339 $-1 #
edge $-1 $351 2.0405278716692807 $491 9.8375750240927466 $344 $492 forward 7 unknown #
coedge $-1 $493 $494 $218 $347 forward $483 $-1 #
edge $-1 $495 -21.320867619752661 $350 -16.540418500358875 $346 $496 forward 7 unknown #
edge $-1 $351 -5.465745899269324 $495 -2.9223086620188301e-014 $219 $497 forward 7 unknown #
coedge $-1 $220 $487 $493 $498 forward $339 $-1 #
vertex $-1 $221 $499 #
vertex $-1 $221 $500 #
straight-curve $-1 -63.166978878600567 7.979579319550294 6.6949760146416502 1 0 0 I I #
coedge $-1 $353 $353 $-1 $501 reversed $224 $-1 #
edge $-1 $502 0 $502 6.2831853071796004 $225 $503 forward 7 unknown #
vertex $-1 $228 $504 #
ellipse-curve $-1 -44.627407028897856 10.207307077385572 4.3047514549447508 -0.87461971476443456 0 0.48480960649040278 0.48480960649040278 0 0.87461971476443456 1 I I #
coedge $-1 $357 $357 $-1 $505 reversed $231 $-1 #
edge $-1 $506 0 $506 6.2831853071796004 $232 $507 forward 7 unknown #
vertex $-1 $235 $508 #
ellipse-curve $-1 -44.627407028897856 13.548898714138481 4.3047514549447508 -0.87461971476443456 0 0.48480960649040278 0.48480960649040278 0 0.87461971476443456 1 I I #
face $-1 $-1 $373 $50 $-1 $509 forward single #
loop $-1 $-1 $510 $236 #
plane-surface $-1 45.952330088198494 0 0 -1 0 0 0 0 1 forward_v I I I I #
coedge $-1 $511 $512 $513 $514 reversed $237 $-1 #
coedge $-1 $515 $239 $241 $371 forward $149 $-1 #
coedge $-1 $239 $515 $511 $516 forward $149 $-1 #
coedge $-1 $513 $242 $239 $368 forward $373 $-1 #
edge $-1 $375 -1.2387647123503305 $517 6.5582824400731354 $367 $518 forward 7 unknown #
coedge $-1 $519 $520 $240 $370 forward $362 $-1 #
edge $-1 $521 -61.51168145425401 $374 -56.731232334860174 $369 $522 forward 7 unknown #
edge $-1 $375 86.438914277127651 $521 91.904660176396987 $241 $523 forward 7 unknown #
coedge $-1 $242 $513 $519 $524 forward $373 $-1 #
loop $-1 $-1 $513 $361 #
vertex $-1 $370 $525 #
vertex $-1 $243 $526 #
straight-curve $-1 40.888847811223954 -1.4209941515110716 6.6949760146416537 -1 0 0 I I #
coedge $-1 $377 $377 $-1 $527 reversed $246 $-1 #
edge $-1 $528 0 $528 6.2831853071796004 $247 $529 forward 7 unknown #
vertex $-1 $250 $530 #
ellipse-curve $-1 44.627407028897835 -6.9903135460992605 4.3047514549447428 0.87461971476443456 0 0.48480960649040278 0.48480960649040278 0 -0.87461971476443456 1 I I #
coedge $-1 $381 $381 $-1 $531 reversed $253 $-1 #
edge $-1 $532 0 $532 6.2831853071796004 $254 $533 forward 7 unknown #
vertex $-1 $257 $534 #
ellipse-curve $-1 44.627407028897835 -3.6487219093463459 4.3047514549447428 0.87461971476443456 0 0.48480960649040278 0.48480960649040278 0 -0.87461971476443456 1 I I #
face $-1 $-1 $397 $53 $-1 $535 forward single #
loop $-1 $-1 $536 $258 #
plane-surface $-1 45.952330088198494 0 0 -1 0 0 0 0 1 forward_v I I I I #
coedge $-1 $537 $538 $539 $540 reversed $259 $-1 #
coedge $-1 $541 $261 $263 $395 forward $163 $-1 #
coedge $-1 $261 $541 $537 $542 forward $163 $-1 #
coedge $-1 $539 $264 $261 $392 forward $397 $-1 #
edge $-1 $399 -9.8375750240927466 $543 -2.0405278716692807 $391 $544 forward 7 unknown #
coedge $-1 $545 $546 $262 $394 forward $386 $-1 #
edge $-1 $547 -61.51168145425401 $398 -56.731232334860174 $393 $548 forward 7 unknown #
edge $-1 $399 86.438914277127651 $547 91.904660176396987 $263 $549 forward 7 unknown #
coedge $-1 $264 $539 $545 $550 forward $397 $-1 #
loop $-1 $-1 $539 $385 #
vertex $-1 $394 $551 #
vertex $-1 $265 $552 #
straight-curve $-1 40.888847811223954 15.77662647197376 6.6949760146416537 -1 0 0 I I #
coedge $-1 $401 $401 $-1 $553 reversed $268 $-1 #
edge $-1 $554 0 $554 6.2831853071796004 $269 $555 forward 7 unknown #
vertex $-1 $272 $556 #
ellipse-curve $-1 44.627407028897835 10.207307077385572 4.3047514549447428 0.87461971476443456 0 0.48480960649040278 0.48480960649040278 0 -0.87461971476443456 1 I I #
coedge $-1 $405 $405 $-1 $557 reversed $275 $-1 #
edge $-1 $558 0 $558 6.2831853071796004 $276 $559 forward 7 unknown #
vertex $-1 $279 $560 #
ellipse-curve $-1 44.627407028897835 13.548898714138481 4.3047514549447428 0.87461971476443456 0 0.48480960649040278 0.48480960649040278 0 -0.87461971476443456 1 I I #
face $-1 $-1 $295 $42 $-1 $561 reversed single #
loop $-1 $-1 $425 $280 #
plane-surface $-1 0 19.479850027683717 0 0 -1 0 0 0 -1 forward_v I I I I #
coedge $-1 $562 $423 $426 $563 forward $281 $-1 #
coedge $-1 $429 $283 $284 $417 reversed $177 $-1 #
coedge $-1 $423 $562 $283 $415 reversed $281 $-1 #
edge $-1 $430 -6.694976014641651 $564 6.694976014641651 $414 $565 forward 7 unknown #
coedge $-1 $285 $284 $562 $566 forward $113 $-1 #
edge $-1 $421 -45.952330088198494 $564 45.952330088198494 $413 $567 forward 7 unknown #
coedge $-1 $426 $425 $285 $419 reversed $410 $-1 #
edge $-1 $568 -45.952330088198494 $420 45.952330088198494 $418 $569 forward 7 unknown #
vertex $-1 $287 $570 #
vertex $-1 $432 $571 #
straight-curve $-1 45.952330088198494 0 -6.694976014641651 0 -1 0 I I #
coedge $-1 $412 $414 $288 $424 reversed $281 $-1 #
edge $-1 $427 -19.479850027683717 $430 19.479850027683717 $423 $572 forward 7 unknown #
coedge $-1 $418 $289 $294 $433 forward $410 $-1 #
coedge $-1 $289 $418 $412 $563 reversed $410 $-1 #
vertex $-1 $290 $573 #
straight-curve $-1 0 19.479850027683717 6.694976014641651 -1 0 0 I I #
coedge $-1 $291 $413 $293 $432 reversed $177 $-1 #
vertex $-1 $424 $574 #
straight-curve $-1 0 -19.479850027683717 6.694976014641651 1 0 0 I I #
edge $-1 $296 -6.694976014641651 $421 6.694976014641651 $293 $575 forward 7 unknown #
edge $-1 $297 -6.694976014641651 $420 6.694976014641651 $294 $576 forward 7 unknown #
point $-1 45.952330088198494 -19.479850027683717 6.694976014641651 #
point $-1 45.952330088198494 19.479850027683717 6.694976014641651 #
face $-1 $-1 $450 $43 $-1 $577 reversed single #
loop $-1 $-1 $578 $299 #
plane-surface $-1 0 -24.044308836081491 5.194976014641651 0 1 0 0 0 1 forward_v I I I I #
coedge $-1 $579 $302 $311 $454 reversed $185 $-1 #
coedge $-1 $302 $579 $303 $442 reversed $185 $-1 #
coedge $-1 $304 $303 $580 $581 forward $117 $-1 #
edge $-1 $446 19.479850027683717 $582 24.044308836081491 $440 $583 forward 7 unknown #
coedge $-1 $584 $308 $304 $444 reversed $450 $-1 #
edge $-1 $585 -24.044308836081491 $445 -19.479850027683717 $443 $586 forward 7 unknown #
vertex $-1 $309 $587 #
vertex $-1 $442 $588 #
straight-curve $-1 0 -19.479850027683717 6.694976014641651 -1 0 0 I I #
straight-curve $-1 -45.952330088198494 -19.479850027683717 0 0 0 -1 I I #
coedge $-1 $308 $584 $310 $453 reversed $450 $-1 #
loop $-1 $-1 $308 $436 #
straight-curve $-1 45.952330088198494 -19.479850027683717 0 0 0 1 I I #
coedge $-1 $311 $310 $589 $590 forward $300 $-1 #
edge $-1 $312 -2.2822294041988869 $591 2.2822294041988869 $449 $592 forward 7 unknown #
edge $-1 $593 -2.2822294041988869 $313 2.2822294041988869 $439 $594 forward 7 unknown #
point $-1 45.952330088198494 -19.479850027683717 3.694976014641651 #
point $-1 -45.952330088198494 -19.479850027683717 3.694976014641651 #
loop $-1 $-1 $323 $315 #
plane-surface $-1 -45.952330088198494 0 0 1 0 0 0 0 -1 forward_v I I I I #
coedge $-1 $460 $318 $320 $464 reversed $193 $-1 #
coedge $-1 $318 $459 $595 $596 reversed $193 $-1 #
coedge $-1 $326 $321 $318 $462 forward $316 $-1 #
edge $-1 $465 -19.864494909003355 $597 -17.214648790402073 $461 $598 forward 7 unknown #
coedge $-1 $320 $319 $468 $599 reversed $121 $-1 #
edge $-1 $600 2.9223086620188301e-014 $465 5.465745899269324 $459 $601 forward 7 unknown #
vertex $-1 $322 $602 #
straight-curve $-1 -43.302483969597212 -2.659758863861402 6.694976014641651 0 1 0 I I #
coedge $-1 $595 $323 $326 $472 reversed $457 $-1 #
coedge $-1 $323 $595 $463 $599 forward $457 $-1 #
vertex $-1 $324 $603 #
straight-curve $-1 -45.952330088198494 -9.2180413039345375 23.235394515000525 0 0 1 I I #
straight-curve $-1 -45.952330088198508 -9.2180413039345375 1.9145268952478389 -0.48480960649040278 0 -0.87461971476443456 I I #
edge $-1 $597 1.4209941515110716 $327 9.2180413039345375 $467 $604 forward 7 unknown #
point $-1 -45.952330088198494 -9.2180413039345375 6.694976014641651 #
point $-1 -43.302483969597212 -9.2180413039345375 6.694976014641651 #
edge $-1 $605 1 $605 0 $330 $-1 forward 7 unknown #
vertex $-1 $331 $606 #
ellipse-curve $-1 -41.172729889616974 -6.9903135460992605 2.389792717824065 -0.87461971476443456 0 0.48480960649040278 0.48480960649040278 0 0.87461971476443456 1 I I #
point $-1 -44.142597422407448 -6.9903135460992605 5.1793711697091807 #
edge $-1 $607 1 $607 0 $334 $-1 forward 7 unknown #
vertex $-1 $335 $608 #
ellipse-curve $-1 -41.172729889616974 -3.6487219093463459 2.389792717824065 -0.87461971476443456 0 0.48480960649040278 0.48480960649040278 0 0.87461971476443456 1 I I #
point $-1 -44.142597422407448 -3.6487219093463459 5.1793711697091807 #
loop $-1 $-1 $346 $338 #
plane-surface $-1 -45.952330088198494 0 0 1 0 0 0 0 -1 forward_v I I I I #
coedge $-1 $486 $341 $343 $490 reversed $215 $-1 #
coedge $-1 $341 $485 $609 $610 reversed $215 $-1 #
coedge $-1 $349 $344 $341 $488 forward $339 $-1 #
edge $-1 $491 -19.864494909003355 $611 -17.214648790402073 $487 $612 forward 7 unknown #
coedge $-1 $343 $342 $494 $613 reversed $135 $-1 #
edge $-1 $614 2.9223086620188301e-014 $491 5.465745899269324 $485 $615 forward 7 unknown #
vertex $-1 $345 $616 #
straight-curve $-1 -43.302483969597212 5.9390514478810132 6.694976014641651 0 1 0 I I #
coedge $-1 $609 $346 $349 $498 reversed $483 $-1 #
coedge $-1 $346 $609 $489 $613 forward $483 $-1 #
vertex $-1 $347 $617 #
straight-curve $-1 -45.952330088198494 7.979579319550294 23.235394515000525 0 0 1 I I #
straight-curve $-1 -45.952330088198508 7.979579319550294 1.9145268952478389 -0.48480960649040278 0 -0.87461971476443456 I I #
edge $-1 $611 -15.77662647197376 $350 -7.979579319550294 $493 $618 forward 7 unknown #
point $-1 -45.952330088198494 7.979579319550294 6.694976014641651 #
point $-1 -43.302483969597212 7.979579319550294 6.694976014641651 #
edge $-1 $619 1 $619 0 $353 $-1 forward 7 unknown #
vertex $-1 $354 $620 #
ellipse-curve $-1 -41.172729889616974 10.207307077385572 2.389792717824065 -0.87461971476443456 0 0.48480960649040278 0.48480960649040278 0 0.87461971476443456 1 I I #
point $-1 -44.142597422407448 10.207307077385572 5.1793711697091807 #
edge $-1 $621 1 $621 0 $357 $-1 forward 7 unknown #
vertex $-1 $358 $622 #
ellipse-curve $-1 -41.172729889616974 13.548898714138481 2.389792717824065 -0.87461971476443456 0 0.48480960649040278 0.48480960649040278 0 0.87461971476443456 1 I I #
point $-1 -44.142597422407448 13.548898714138481 5.1793711697091807 #
plane-surface $-1 0 0 6.694976014641651 0 0 1 1 0 0 forward_v I I I I #
coedge $-1 $520 $519 $512 $623 forward $362 $-1 #
coedge $-1 $512 $364 $366 $516 reversed $237 $-1 #
coedge $-1 $364 $511 $510 $623 reversed $237 $-1 #
coedge $-1 $372 $367 $364 $514 forward $373 $-1 #
edge $-1 $517 2.4136361583732366 $624 5.0634822769745398 $513 $625 forward 7 unknown #
coedge $-1 $366 $365 $520 $626 reversed $149 $-1 #
edge $-1 $627 -91.904660176396987 $517 -86.438914277127651 $511 $628 forward 7 unknown #
vertex $-1 $368 $629 #
straight-curve $-1 43.302483969597191 -2.659758863861402 6.6949760146416608 0 -1 0 I I #
coedge $-1 $510 $369 $372 $524 reversed $362 $-1 #
coedge $-1 $369 $510 $515 $626 forward $362 $-1 #
vertex $-1 $370 $630 #
straight-curve $-1 45.952330088198494 -1.4209941515110716 63.426208349501827 0 0 1 I I #
straight-curve $-1 1.3960679534452822 -1.4209941515110716 82.296154564250443 0.48480960649040278 0 -0.87461971476443456 I I #
edge $-1 $624 -9.2180413039345375 $374 -1.4209941515110716 $519 $631 forward 7 unknown #
point $-1 45.952330088198494 -1.4209941515110716 6.694976014641651 #
point $-1 43.302483969597191 -1.4209941515110716 6.6949760146416537 #
edge $-1 $632 1 $632 0 $377 $-1 forward 7 unknown #
vertex $-1 $378 $633 #
ellipse-curve $-1 41.17272988961696 -6.9903135460992605 2.3897927178240614 0.87461971476443456 0 0.48480960649040278 0.48480960649040278 0 -0.87461971476443456 1 I I #
point $-1 45.112216635388236 -6.9903135460992605 3.4301317401803075 #
edge $-1 $634 1 $634 0 $381 $-1 forward 7 unknown #
vertex $-1 $382 $635 #
ellipse-curve $-1 41.17272988961696 -3.6487219093463459 2.3897927178240614 0.87461971476443456 0 0.48480960649040278 0.48480960649040278 0 -0.87461971476443456 1 I I #
point $-1 45.112216635388236 -3.6487219093463459 3.4301317401803075 #
plane-surface $-1 0 0 6.694976014641651 0 0 1 1 0 0 forward_v I I I I #
coedge $-1 $546 $545 $538 $636 forward $386 $-1 #
coedge $-1 $538 $388 $390 $542 reversed $259 $-1 #
coedge $-1 $388 $537 $536 $636 reversed $259 $-1 #
coedge $-1 $396 $391 $388 $540 forward $397 $-1 #
edge $-1 $543 2.4136361583732366 $637 5.0634822769745398 $539 $638 forward 7 unknown #
coedge $-1 $390 $389 $546 $639 reversed $163 $-1 #
edge $-1 $640 -91.904660176396987 $543 -86.438914277127651 $537 $641 forward 7 unknown #
vertex $-1 $392 $642 #
straight-curve $-1 43.302483969597191 5.9390514478810132 6.6949760146416608 0 -1 0 I I #
coedge $-1 $536 $393 $396 $550 reversed $386 $-1 #
coedge $-1 $393 $536 $541 $639 forward $386 $-1 #
vertex $-1 $394 $643 #
straight-curve $-1 45.952330088198494 15.77662647197376 63.426208349501827 0 0 1 I I #
straight-curve $-1 1.3960679534452822 15.77662647197376 82.296154564250443 0.48480960649040278 0 -0.87461971476443456 I I #
edge $-1 $637 7.979579319550294 $398 15.77662647197376 $545 $644 forward 7 unknown #
point $-1 45.952330088198494 15.77662647197376 6.694976014641651 #
point $-1 43.302483969597191 15.77662647197376 6.6949760146416537 #
edge $-1 $645 1 $645 0 $401 $-1 forward 7 unknown #
vertex $-1 $402 $646 #
ellipse-curve $-1 41.17272988961696 10.207307077385572 2.3897927178240614 0.87461971476443456 0 0.48480960649040278 0.48480960649040278 0 -0.87461971476443456 1 I I #
point $-1 45.112216635388236 10.207307077385572 3.4301317401803075 #
edge $-1 $647 1 $647 0 $405 $-1 forward 7 unknown #
vertex $-1 $406 $648 #
ellipse-curve $-1 41.17272988961696 13.548898714138481 2.3897927178240614 0.87461971476443456 0 0.48480960649040278 0.48480960649040278 0 -0.87461971476443456 1 I I #
point $-1 45.112216635388236 13.548898714138481 3.4301317401803075 #
plane-surface $-1 45.952330088198494 0 0 -1 0 0 0 0 1 forward_v I I I I #
coedge $-1 $414 $412 $416 $566 reversed $281 $-1 #
edge $-1 $427 -6.694976014641651 $568 6.694976014641651 $426 $649 forward 7 unknown #
vertex $-1 $566 $650 #
straight-curve $-1 -45.952330088198494 -19.479850027683717 0 0 0 -1 I I #
edge $-1 $564 -19.479850027683717 $568 19.479850027683717 $562 $651 forward 7 unknown #
straight-curve $-1 0 -19.479850027683717 -6.694976014641651 -1 0 0 I I #
vertex $-1 $419 $652 #
straight-curve $-1 0 19.479850027683717 -6.694976014641651 1 0 0 I I #
point $-1 45.952330088198494 19.479850027683717 -6.694976014641651 #
point $-1 45.952330088198494 -19.479850027683717 -6.694976014641651 #
straight-curve $-1 -45.952330088198494 0 6.694976014641651 0 -1 0 I I #
point $-1 -45.952330088198494 19.479850027683717 6.694976014641651 #
point $-1 -45.952330088198494 -19.479850027683717 6.694976014641651 #
straight-curve $-1 45.952330088198494 -19.479850027683717 0 0 0 -1 I I #
straight-curve $-1 45.952330088198494 19.479850027683717 0 0 0 -1 I I #
plane-surface $-1 45.952330088198494 0 0 -1 0 0 0 0 1 forward_v I I I I #
coedge $-1 $589 $580 $579 $653 forward $437 $-1 #
coedge $-1 $440 $439 $578 $653 reversed $185 $-1 #
coedge $-1 $578 $654 $441 $581 reversed $437 $-1 #
edge $-1 $582 -45.952330088198494 $585 45.952330088198494 $580 $655 forward 7 unknown #
vertex $-1 $442 $656 #
straight-curve $-1 -45.952330088198494 0 6.694976014641651 0 -1 0 I I #
coedge $-1 $449 $443 $654 $657 forward $450 $-1 #
vertex $-1 $444 $658 #
straight-curve $-1 45.952330088198494 0 6.694976014641651 0 1 0 I I #
point $-1 45.952330088198494 -19.479850027683717 6.694976014641651 #
point $-1 -45.952330088198494 -19.479850027683717 6.694976014641651 #
coedge $-1 $654 $578 $452 $590 reversed $437 $-1 #
edge $-1 $591 -45.952330088198494 $593 45.952330088198494 $589 $659 forward 7 unknown #
vertex $-1 $657 $660 #
straight-curve $-1 45.952330088198494 -21.762079431882604 3.694976014641651 0 -1 0 I I #
vertex $-1 $454 $661 #
straight-curve $-1 -45.952330088198494 -21.762079431882604 3.694976014641651 0 1 0 I I #
coedge $-1 $468 $467 $460 $596 forward $457 $-1 #
edge $-1 $597 16.540418500358875 $600 21.320867619752661 $595 $662 forward 7 unknown #
vertex $-1 $472 $663 #
straight-curve $-1 -63.166978878600567 -1.4209941515110716 6.6949760146416502 -1 0 0 I I #
edge $-1 $600 -1.2387647123503305 $469 6.5582824400731354 $468 $664 forward 7 unknown #
vertex $-1 $599 $665 #
straight-curve $-1 -45.952330088198508 -1.4209941515110716 1.9145268952478389 0.48480960649040278 0 0.87461971476443456 I I #
point $-1 -43.302483969597212 -1.4209941515110716 6.694976014641651 #
point $-1 -45.952330088198494 -9.2180413039345375 1.9145268952478645 #
straight-curve $-1 -45.952330088198494 0 6.694976014641651 0 -1 0 I I #
vertex $-1 $475 $666 #
point $-1 -40.687920283126573 -6.9903135460992605 3.2644124325884993 #
vertex $-1 $479 $667 #
point $-1 -40.687920283126573 -3.6487219093463459 3.2644124325884993 #
coedge $-1 $494 $493 $486 $610 forward $483 $-1 #
edge $-1 $611 16.540418500358875 $614 21.320867619752661 $609 $668 forward 7 unknown #
vertex $-1 $498 $669 #
straight-curve $-1 -63.166978878600567 15.77662647197376 6.6949760146416502 -1 0 0 I I #
edge $-1 $614 -9.8375750240927466 $495 -2.0405278716692807 $494 $670 forward 7 unknown #
vertex $-1 $613 $671 #
straight-curve $-1 -45.952330088198508 15.77662647197376 1.9145268952478389 0.48480960649040278 0 0.87461971476443456 I I #
point $-1 -43.302483969597212 15.77662647197376 6.694976014641651 #
point $-1 -45.952330088198494 7.979579319550294 1.9145268952478645 #
straight-curve $-1 -45.952330088198494 0 6.694976014641651 0 -1 0 I I #
vertex $-1 $501 $672 #
point $-1 -40.687920283126573 10.207307077385572 3.2644124325884993 #
vertex $-1 $505 $673 #
point $-1 -40.687920283126573 13.548898714138481 3.2644124325884993 #
edge $-1 $624 56.731232334860174 $627 61.51168145425401 $510 $674 forward 7 unknown #
vertex $-1 $524 $675 #
straight-curve $-1 40.888847811223954 -9.2180413039345375 6.6949760146416537 1 0 0 I I #
edge $-1 $627 -6.5582824400731354 $521 1.2387647123503305 $520 $676 forward 7 unknown #
vertex $-1 $626 $677 #
straight-curve $-1 1.3960679534452822 -9.2180413039345375 82.296154564250443 -0.48480960649040278 0 0.87461971476443456 I I #
point $-1 43.302483969597191 -9.2180413039345375 6.6949760146416537 #
point $-1 45.952330088198494 -1.4209941515110716 1.9145268952478176 #
straight-curve $-1 45.952330088198494 0 6.694976014641651 0 1 0 I I #
vertex $-1 $527 $678 #
point $-1 41.657539496107361 -6.9903135460992605 1.5151730030596267 #
vertex $-1 $531 $679 #
point $-1 41.657539496107361 -3.6487219093463459 1.5151730030596267 #
edge $-1 $637 56.731232334860174 $640 61.51168145425401 $536 $680 forward 7 unknown #
vertex $-1 $550 $681 #
straight-curve $-1 40.888847811223954 7.979579319550294 6.6949760146416537 1 0 0 I I #
edge $-1 $640 2.0405278716692807 $547 9.8375750240927466 $546 $682 forward 7 unknown #
vertex $-1 $639 $683 #
straight-curve $-1 1.3960679534452822 7.979579319550294 82.296154564250443 -0.48480960649040278 0 0.87461971476443456 I I #
point $-1 43.302483969597191 7.979579319550294 6.6949760146416537 #
point $-1 45.952330088198494 15.77662647197376 1.9145268952478176 #
straight-curve $-1 45.952330088198494 0 6.694976014641651 0 1 0 I I #
vertex $-1 $553 $684 #
point $-1 41.657539496107361 10.207307077385572 1.5151730030596267 #
vertex $-1 $557 $685 #
point $-1 41.657539496107361 13.548898714138481 1.5151730030596267 #
straight-curve $-1 -45.952330088198494 19.479850027683717 0 0 0 -1 I I #
point $-1 -45.952330088198494 -19.479850027683717 -6.694976014641651 #
straight-curve $-1 -45.952330088198494 0 -6.694976014641651 0 1 0 I I #
point $-1 -45.952330088198494 19.479850027683717 -6.694976014641651 #
edge $-1 $582 -1.5 $593 1.5 $579 $686 forward 7 unknown #
coedge $-1 $580 $589 $584 $657 reversed $437 $-1 #
straight-curve $-1 0 -24.044308836081491 6.694976014641651 1 0 0 I I #
point $-1 -45.952330088198494 -24.044308836081491 6.694976014641651 #
edge $-1 $585 -1.5 $591 1.5 $584 $687 forward 7 unknown #
point $-1 45.952330088198494 -24.044308836081491 6.694976014641651 #
straight-curve $-1 0 -24.044308836081491 3.694976014641651 -1 0 0 I I #
point $-1 45.952330088198494 -24.044308836081491 3.694976014641651 #
point $-1 -45.952330088198494 -24.044308836081491 3.694976014641651 #
straight-curve $-1 -45.952330088198494 -1.4209941515110716 23.235394515000525 0 0 -1 I I #
point $-1 -45.952330088198494 -1.4209941515110716 6.694976014641651 #
straight-curve $-1 -45.952330088198494 -2.659758863861402 1.9145268952478651 0 -1 0 I I #
point $-1 -45.952330088198494 -1.4209941515110716 1.9145268952478645 #
point $-1 -40.298110174852539 -6.9903135460992605 1.9049831113336622 #
point $-1 -40.298110174852539 -3.6487219093463459 1.9049831113336622 #
straight-curve $-1 -45.952330088198494 15.77662647197376 23.235394515000525 0 0 -1 I I #
point $-1 -45.952330088198494 15.77662647197376 6.694976014641651 #
straight-curve $-1 -45.952330088198494 5.9390514478810132 1.9145268952478651 0 -1 0 I I #
point $-1 -45.952330088198494 15.77662647197376 1.9145268952478645 #
point $-1 -40.298110174852539 10.207307077385572 1.9049831113336622 #
point $-1 -40.298110174852539 13.548898714138481 1.9049831113336622 #
straight-curve $-1 45.952330088198494 -9.2180413039345375 63.426208349501827 0 0 -1 I I #
point $-1 45.952330088198494 -9.2180413039345375 6.694976014641651 #
straight-curve $-1 45.952330088198494 -2.659758863861402 1.9145268952478318 0 1 0 I I #
point $-1 45.952330088198494 -9.2180413039345375 1.9145268952478176 #
point $-1 40.298110174852525 -6.9903135460992605 1.9049831113336586 #
point $-1 40.298110174852525 -3.6487219093463459 1.9049831113336586 #
straight-curve $-1 45.952330088198494 7.979579319550294 63.426208349501827 0 0 -1 I I #
point $-1 45.952330088198494 7.979579319550294 6.694976014641651 #
straight-curve $-1 45.952330088198494 5.9390514478810132 1.9145268952478318 0 1 0 I I #
point $-1 45.952330088198494 7.979579319550294 1.9145268952478176 #
point $-1 40.298110174852525 10.207307077385572 1.9049831113336586 #
point $-1 40.298110174852525 13.548898714138481 1.9049831113336586 #
straight-curve $-1 -45.952330088198494 -24.044308836081491 5.194976014641651 0 0 -1 I I #
straight-curve $-1 45.952330088198494 -24.044308836081491 5.194976014641651 0 0 -1 I I #
End-of-ACIS-data 