500 0 2 0           
7 Unknown 11 ACIS 5.0 NT 24 Thu Mar 25 17:50:25 1999 
-1 9.9999999999999995e-007 1e-010 
body $-1 $2 $-1 $3 #
body $-1 $4 $-1 $5 #
lump $-1 $-1 $6 $0 #
transform $-1 1 0 0 0 1 0 0 0 1 73.708304086428427 37.831095811784294 15.309199723950274 1 rotate no_reflect no_shear #
lump $-1 $-1 $7 $1 #
transform $-1 1 0 0 0 1 0 0 0 1 73.708304086428427 37.831095811784294 15.309199723950274 1 rotate no_reflect no_shear #
shell $-1 $-1 $-1 $8 $-1 $2 #
shell $-1 $-1 $-1 $9 $-1 $4 #
face $-1 $10 $11 $6 $-1 $12 forward single #
face $-1 $13 $14 $7 $-1 $15 reversed single #
face $-1 $16 $17 $6 $-1 $18 reversed single #
loop $-1 $-1 $19 $8 #
plane-surface $-1 0 0 15.309199723950274 0 0 1 1 0 0 forward_v I I I I #
face $-1 $20 $21 $7 $-1 $22 forward single #
loop $-1 $-1 $23 $9 #
plane-surface $-1 0 -29.633313003580803 -6.6043496083825648 0 0 1 1 0 0 forward_v I I I I #
face $-1 $24 $25 $6 $-1 $26 reversed single #
loop $-1 $-1 $27 $10 #
plane-surface $-1 0 0 -15.309199723950274 0 0 1 1 0 0 forward_v I I I I #
coedge $-1 $28 $29 $30 $31 forward $11 $-1 #
face $-1 $32 $33 $7 $-1 $34 reversed single #
loop $-1 $-1 $35 $13 #
plane-surface $-1 0 -21.435530195377311 -10.956774666166419 0 -1 0 0 0 -1 forward_v I I I I #
coedge $-1 $36 $37 $38 $39 reversed $14 $-1 #
face $-1 $40 $41 $6 $-1 $42 reversed single #
loop $-1 $-1 $43 $16 #
plane-surface $-1 0 -37.831095811784294 0 0 1 0 0 0 1 forward_v I I I I #
coedge $-1 $44 $45 $46 $47 forward $17 $-1 #
coedge $-1 $48 $19 $49 $50 forward $11 $-1 #
coedge $-1 $19 $48 $51 $52 forward $11 $-1 #
coedge $-1 $53 $54 $19 $31 reversed $55 $-1 #
edge $-1 $56 -37.831095811784294 $57 37.831095811784294 $30 $58 forward 7 unknown #
face $-1 $59 $60 $7 $-1 $61 reversed single #
loop $-1 $-1 $62 $20 #
plane-surface $-1 0 -37.831095811784294 0 0 1 0 0 0 1 forward_v I I I I #
coedge $-1 $63 $64 $65 $66 reversed $21 $-1 #
coedge $-1 $67 $23 $62 $68 reversed $14 $-1 #
coedge $-1 $23 $67 $63 $69 reversed $14 $-1 #
coedge $-1 $65 $70 $23 $39 forward $71 $-1 #
edge $-1 $72 -23.014439309993893 $73 -6.6188736935869095 $38 $74 forward 7 unknown #
face $-1 $75 $76 $6 $-1 $77 reversed single #
loop $-1 $-1 $78 $24 #
plane-surface $-1 -73.708304086428427 0 0 1 0 0 0 0 -1 forward_v I I I I #
coedge $-1 $79 $51 $80 $81 forward $25 $-1 #
coedge $-1 $82 $27 $79 $83 forward $17 $-1 #
coedge $-1 $27 $82 $84 $85 forward $17 $-1 #
coedge $-1 $54 $53 $27 $47 reversed $55 $-1 #
edge $-1 $86 -37.831095811784294 $87 37.831095811784294 $46 $88 forward 7 unknown #
coedge $-1 $29 $28 $89 $90 forward $11 $-1 #
coedge $-1 $91 $92 $28 $50 reversed $76 $-1 #
edge $-1 $57 -73.708304086428427 $93 73.708304086428427 $49 $94 forward 7 unknown #
coedge $-1 $43 $95 $29 $52 reversed $25 $-1 #
edge $-1 $96 -73.708304086428427 $56 73.708304086428427 $51 $97 forward 7 unknown #
coedge $-1 $46 $30 $95 $98 forward $55 $-1 #
coedge $-1 $30 $46 $91 $99 reversed $55 $-1 #
loop $-1 $-1 $53 $75 #
vertex $-1 $31 $100 #
vertex $-1 $31 $101 #
straight-curve $-1 73.708304086428427 0 15.309199723950274 0 1 0 I I #
face $-1 $102 $103 $7 $-1 $104 forward single #
loop $-1 $-1 $105 $32 #
plane-surface $-1 0 0 -15.309199723950274 0 0 1 1 0 0 forward_v I I I I #
coedge $-1 $106 $107 $36 $68 forward $33 $-1 #
coedge $-1 $108 $35 $37 $69 forward $21 $-1 #
coedge $-1 $35 $108 $105 $109 reversed $21 $-1 #
coedge $-1 $110 $38 $35 $66 forward $71 $-1 #
edge $-1 $73 1.1259622752993552 $111 9.830812390867063 $65 $112 forward 7 unknown #
coedge $-1 $37 $36 $113 $114 reversed $14 $-1 #
edge $-1 $115 -73.708304086428427 $72 73.708304086428427 $62 $116 forward 7 unknown #
edge $-1 $73 -73.708304086428427 $117 73.708304086428427 $63 $118 forward 7 unknown #
coedge $-1 $38 $119 $106 $120 forward $71 $-1 #
loop $-1 $-1 $65 $121 #
vertex $-1 $68 $122 #
vertex $-1 $39 $123 #
straight-curve $-1 73.708304086428427 -14.816656501790401 -6.6043496083825648 0 1 0 I I #
face $-1 $-1 $55 $6 $-1 $124 reversed single #
loop $-1 $-1 $91 $40 #
plane-surface $-1 0 37.831095811784294 0 0 -1 0 0 0 -1 forward_v I I I I #
coedge $-1 $125 $89 $92 $126 forward $41 $-1 #
coedge $-1 $95 $43 $44 $83 reversed $25 $-1 #
coedge $-1 $89 $125 $43 $81 reversed $41 $-1 #
edge $-1 $96 -15.309199723950274 $127 15.309199723950274 $80 $128 forward 7 unknown #
coedge $-1 $45 $44 $125 $129 forward $17 $-1 #
edge $-1 $87 -73.708304086428427 $127 73.708304086428427 $79 $130 forward 7 unknown #
coedge $-1 $92 $91 $45 $85 reversed $76 $-1 #
edge $-1 $131 -73.708304086428427 $86 73.708304086428427 $84 $132 forward 7 unknown #
vertex $-1 $47 $133 #
vertex $-1 $98 $134 #
straight-curve $-1 73.708304086428427 0 -15.309199723950274 0 -1 0 I I #
coedge $-1 $78 $80 $48 $90 reversed $41 $-1 #
edge $-1 $93 -37.831095811784294 $96 37.831095811784294 $89 $135 forward 7 unknown #
coedge $-1 $84 $49 $54 $99 forward $76 $-1 #
coedge $-1 $49 $84 $78 $126 reversed $76 $-1 #
vertex $-1 $50 $136 #
straight-curve $-1 0 37.831095811784294 15.309199723950274 -1 0 0 I I #
coedge $-1 $51 $79 $53 $98 reversed $25 $-1 #
vertex $-1 $90 $137 #
straight-curve $-1 0 -37.831095811784294 15.309199723950274 1 0 0 I I #
edge $-1 $56 -15.309199723950274 $87 15.309199723950274 $53 $138 forward 7 unknown #
edge $-1 $57 -15.309199723950274 $86 15.309199723950274 $54 $139 forward 7 unknown #
point $-1 73.708304086428427 -37.831095811784294 15.309199723950274 #
point $-1 73.708304086428427 37.831095811784294 15.309199723950274 #
face $-1 $140 $141 $7 $-1 $142 reversed single #
loop $-1 $-1 $143 $59 #
plane-surface $-1 0 0 15.309199723950274 0 0 1 1 0 0 forward_v I I I I #
coedge $-1 $144 $145 $64 $109 forward $60 $-1 #
coedge $-1 $146 $62 $70 $120 reversed $33 $-1 #
coedge $-1 $62 $146 $147 $148 forward $33 $-1 #
coedge $-1 $64 $63 $149 $150 reversed $21 $-1 #
edge $-1 $111 -73.708304086428427 $151 73.708304086428427 $105 $152 forward 7 unknown #
coedge $-1 $153 $65 $145 $154 reversed $71 $-1 #
vertex $-1 $109 $155 #
straight-curve $-1 73.708304086428427 -21.435530195377311 -5.4783873330832096 0 0 -1 I I #
coedge $-1 $147 $149 $67 $114 forward $141 $-1 #
edge $-1 $117 6.6188736935869095 $115 23.014439309993893 $113 $156 forward 7 unknown #
vertex $-1 $68 $157 #
straight-curve $-1 0 -37.831095811784294 -6.6043496083825648 1 0 0 I I #
vertex $-1 $114 $158 #
straight-curve $-1 0 -21.435530195377311 -6.6043496083825648 -1 0 0 I I #
coedge $-1 $70 $153 $143 $159 reversed $71 $-1 #
edge $-1 $160 -15.309199723950274 $72 6.6043496083825648 $70 $161 forward 7 unknown #
face $-1 $-1 $71 $7 $-1 $162 reversed single #
point $-1 73.708304086428427 -37.831095811784294 -6.6043496083825648 #
point $-1 73.708304086428427 -21.435530195377311 -6.6043496083825648 #
plane-surface $-1 73.708304086428427 0 0 -1 0 0 0 0 1 forward_v I I I I #
coedge $-1 $80 $78 $82 $129 reversed $41 $-1 #
edge $-1 $93 -15.309199723950274 $131 15.309199723950274 $92 $163 forward 7 unknown #
vertex $-1 $129 $164 #
straight-curve $-1 -73.708304086428427 -37.831095811784294 0 0 0 -1 I I #
edge $-1 $127 -37.831095811784294 $131 37.831095811784294 $125 $165 forward 7 unknown #
straight-curve $-1 0 -37.831095811784294 -15.309199723950274 -1 0 0 I I #
vertex $-1 $85 $166 #
straight-curve $-1 0 37.831095811784294 -15.309199723950274 1 0 0 I I #
point $-1 73.708304086428427 37.831095811784294 -15.309199723950274 #
point $-1 73.708304086428427 -37.831095811784294 -15.309199723950274 #
straight-curve $-1 -73.708304086428427 0 15.309199723950274 0 -1 0 I I #
point $-1 -73.708304086428427 37.831095811784294 15.309199723950274 #
point $-1 -73.708304086428427 -37.831095811784294 15.309199723950274 #
straight-curve $-1 73.708304086428427 -37.831095811784294 0 0 0 -1 I I #
straight-curve $-1 73.708304086428427 37.831095811784294 0 0 0 -1 I I #
face $-1 $121 $167 $7 $-1 $168 reversed single #
loop $-1 $-1 $113 $102 #
plane-surface $-1 -73.708304086428427 0 0 1 0 0 0 0 -1 forward_v I I I I #
coedge $-1 $169 $170 $119 $159 forward $103 $-1 #
coedge $-1 $171 $105 $172 $173 forward $60 $-1 #
coedge $-1 $105 $171 $110 $154 forward $60 $-1 #
coedge $-1 $107 $106 $170 $174 reversed $33 $-1 #
coedge $-1 $175 $113 $107 $148 reversed $141 $-1 #
edge $-1 $176 -15.309199723950274 $115 6.6043496083825648 $147 $177 forward 7 unknown #
coedge $-1 $113 $172 $108 $150 forward $141 $-1 #
edge $-1 $151 -9.830812390867063 $117 -1.1259622752993552 $149 $178 forward 7 unknown #
vertex $-1 $173 $179 #
straight-curve $-1 0 -21.435530195377311 -15.309199723950274 -1 0 0 I I #
coedge $-1 $119 $110 $180 $181 reversed $71 $-1 #
edge $-1 $182 -37.831095811784294 $111 21.435530195377311 $110 $183 forward 7 unknown #
point $-1 73.708304086428427 -21.435530195377311 -15.309199723950274 #
straight-curve $-1 -73.708304086428427 -14.816656501790401 -6.6043496083825648 0 -1 0 I I #
point $-1 -73.708304086428427 -37.831095811784294 -6.6043496083825648 #
point $-1 -73.708304086428427 -21.435530195377311 -6.6043496083825648 #
edge $-1 $160 -37.831095811784294 $184 37.831095811784294 $119 $185 forward 7 unknown #
vertex $-1 $159 $186 #
straight-curve $-1 73.708304086428427 -37.831095811784294 0 0 0 -1 I I #
plane-surface $-1 73.708304086428427 0 0 -1 0 0 0 0 1 forward_v I I I I #
straight-curve $-1 -73.708304086428427 37.831095811784294 0 0 0 -1 I I #
point $-1 -73.708304086428427 -37.831095811784294 -15.309199723950274 #
straight-curve $-1 -73.708304086428427 0 -15.309199723950274 0 1 0 I I #
point $-1 -73.708304086428427 37.831095811784294 -15.309199723950274 #
loop $-1 $-1 $180 $140 #
plane-surface $-1 0 37.831095811784294 0 0 -1 0 0 0 -1 forward_v I I I I #
coedge $-1 $187 $143 $188 $189 forward $103 $-1 #
coedge $-1 $143 $187 $146 $174 forward $103 $-1 #
coedge $-1 $145 $144 $190 $191 forward $60 $-1 #
coedge $-1 $149 $192 $144 $173 reversed $141 $-1 #
edge $-1 $151 -21.435530195377311 $193 37.831095811784294 $172 $194 forward 7 unknown #
edge $-1 $176 -73.708304086428427 $160 73.708304086428427 $146 $195 forward 7 unknown #
coedge $-1 $192 $147 $187 $196 reversed $141 $-1 #
vertex $-1 $196 $197 #
straight-curve $-1 -73.708304086428427 -37.831095811784294 0 0 0 -1 I I #
straight-curve $-1 -73.708304086428427 -21.435530195377311 -5.4783873330832096 0 0 1 I I #
point $-1 -73.708304086428427 -21.435530195377311 -15.309199723950274 #
coedge $-1 $190 $188 $153 $181 forward $167 $-1 #
edge $-1 $184 -15.309199723950274 $182 15.309199723950274 $153 $198 forward 7 unknown #
vertex $-1 $154 $199 #
straight-curve $-1 73.708304086428427 0 -15.309199723950274 0 -1 0 I I #
vertex $-1 $159 $200 #
straight-curve $-1 73.708304086428427 0 15.309199723950274 0 1 0 I I #
point $-1 73.708304086428427 -37.831095811784294 15.309199723950274 #
coedge $-1 $170 $169 $175 $196 forward $103 $-1 #
coedge $-1 $180 $201 $169 $189 reversed $167 $-1 #
edge $-1 $184 -73.708304086428427 $202 73.708304086428427 $188 $203 forward 7 unknown #
coedge $-1 $201 $180 $171 $191 reversed $167 $-1 #
edge $-1 $193 -73.708304086428427 $182 73.708304086428427 $190 $204 forward 7 unknown #
coedge $-1 $172 $175 $201 $205 forward $141 $-1 #
vertex $-1 $191 $206 #
straight-curve $-1 -73.708304086428427 0 -15.309199723950274 0 1 0 I I #
straight-curve $-1 0 -37.831095811784294 15.309199723950274 1 0 0 I I #
edge $-1 $202 -37.831095811784294 $176 37.831095811784294 $175 $207 forward 7 unknown #
point $-1 -73.708304086428427 -37.831095811784294 15.309199723950274 #
straight-curve $-1 73.708304086428427 37.831095811784294 0 0 0 -1 I I #
point $-1 73.708304086428427 37.831095811784294 -15.309199723950274 #
point $-1 73.708304086428427 37.831095811784294 15.309199723950274 #
coedge $-1 $188 $190 $192 $205 reversed $167 $-1 #
vertex $-1 $189 $208 #
straight-curve $-1 0 37.831095811784294 15.309199723950274 -1 0 0 I I #
straight-curve $-1 0 37.831095811784294 -15.309199723950274 1 0 0 I I #
edge $-1 $202 -15.309199723950274 $193 15.309199723950274 $201 $209 forward 7 unknown #
point $-1 -73.708304086428427 37.831095811784294 -15.309199723950274 #
straight-curve $-1 -73.708304086428427 0 15.309199723950274 0 -1 0 I I #
point $-1 -73.708304086428427 37.831095811784294 15.309199723950274 #
straight-curve $-1 -73.708304086428427 37.831095811784294 0 0 0 -1 I I #
End-of-ACIS-data 