500 0 14 0           
7 Unknown 11 ACIS 5.0 NT 24 Thu Mar 25 19:04:53 1999 
-1 9.9999999999999995e-007 1e-010 
body $-1 $14 $-1 $15 #
body $-1 $16 $-1 $17 #
body $-1 $18 $-1 $19 #
body $-1 $20 $-1 $21 #
body $-1 $22 $-1 $23 #
body $-1 $24 $-1 $25 #
body $-1 $26 $-1 $27 #
body $-1 $28 $-1 $29 #
body $-1 $30 $-1 $31 #
body $-1 $32 $-1 $33 #
body $-1 $34 $-1 $35 #
body $-1 $36 $-1 $37 #
body $-1 $38 $-1 $39 #
body $-1 $40 $-1 $41 #
lump $-1 $-1 $42 $0 #
transform $-1 1 0 0 0 1 0 0 0 1 71.078829309976499 30.670166687456764 8.8676440376078549 1 rotate no_reflect no_shear #
lump $-1 $-1 $43 $1 #
transform $-1 1 0 0 0 1 0 0 0 1 71.078829309976499 30.670166687456764 8.8676440376078549 1 rotate no_reflect no_shear #
lump $-1 $-1 $44 $2 #
transform $-1 1 0 0 0 1 0 0 0 1 71.078829309976499 30.670166687456764 8.8676440376078549 1 rotate no_reflect no_shear #
lump $-1 $-1 $45 $3 #
transform $-1 1 0 0 0 1 0 0 0 1 71.078829309976499 30.670166687456764 8.8676440376078549 1 rotate no_reflect no_shear #
lump $-1 $-1 $46 $4 #
transform $-1 1 0 0 0 1 0 0 0 1 71.078829309976499 30.670166687456764 8.8676440376078549 1 rotate no_reflect no_shear #
lump $-1 $-1 $47 $5 #
transform $-1 1 0 0 0 1 0 0 0 1 71.078829309976499 30.670166687456764 8.8676440376078549 1 rotate no_reflect no_shear #
lump $-1 $-1 $48 $6 #
transform $-1 1 0 0 0 1 0 0 0 1 71.078829309976499 30.670166687456764 8.8676440376078549 1 rotate no_reflect no_shear #
lump $-1 $-1 $49 $7 #
transform $-1 1 0 0 0 1 0 0 0 1 71.078829309976499 30.670166687456764 8.8676440376078549 1 rotate no_reflect no_shear #
lump $-1 $-1 $50 $8 #
transform $-1 1 0 0 0 1 0 0 0 1 71.078829309976499 30.670166687456764 8.8676440376078549 1 rotate no_reflect no_shear #
lump $-1 $-1 $51 $9 #
transform $-1 1 0 0 0 1 0 0 0 1 71.078829309976499 30.670166687456764 8.8676440376078549 1 rotate no_reflect no_shear #
lump $-1 $-1 $52 $10 #
transform $-1 1 0 0 0 1 0 0 0 1 71.078829309976499 30.670166687456764 8.8676440376078549 1 rotate no_reflect no_shear #
lump $-1 $-1 $53 $11 #
transform $-1 1 0 0 0 1 0 0 0 1 71.078829309976499 30.670166687456764 8.8676440376078549 1 rotate no_reflect no_shear #
lump $-1 $-1 $54 $12 #
transform $-1 1 0 0 0 1 0 0 0 1 71.078829309976499 30.670166687456764 8.8676440376078549 1 rotate no_reflect no_shear #
lump $-1 $-1 $55 $13 #
transform $-1 1 0 0 0 1 0 0 0 1 71.078829309976499 30.670166687456764 8.8676440376078549 1 rotate no_reflect no_shear #
shell $-1 $-1 $-1 $56 $-1 $14 #
shell $-1 $-1 $-1 $57 $-1 $16 #
shell $-1 $-1 $-1 $58 $-1 $18 #
shell $-1 $-1 $-1 $59 $-1 $20 #
shell $-1 $-1 $-1 $60 $-1 $22 #
shell $-1 $-1 $-1 $61 $-1 $24 #
shell $-1 $-1 $-1 $62 $-1 $26 #
shell $-1 $-1 $-1 $63 $-1 $28 #
shell $-1 $-1 $-1 $64 $-1 $30 #
shell $-1 $-1 $-1 $65 $-1 $32 #
shell $-1 $-1 $-1 $66 $-1 $34 #
shell $-1 $-1 $-1 $67 $-1 $36 #
shell $-1 $-1 $-1 $68 $-1 $38 #
shell $-1 $-1 $-1 $69 $-1 $40 #
face $-1 $70 $71 $42 $-1 $72 forward single #
face $-1 $73 $74 $43 $-1 $75 reversed single #
face $-1 $76 $77 $44 $-1 $78 reversed single #
face $-1 $79 $80 $45 $-1 $81 forward single #
face $-1 $82 $83 $46 $-1 $84 forward single #
face $-1 $85 $86 $47 $-1 $87 forward single #
face $-1 $88 $89 $48 $-1 $90 reversed single #
face $-1 $91 $92 $49 $-1 $93 forward single #
face $-1 $94 $95 $50 $-1 $96 forward single #
face $-1 $97 $98 $51 $-1 $99 forward single #
face $-1 $100 $101 $52 $-1 $102 reversed single #
face $-1 $103 $104 $53 $-1 $105 forward single #
face $-1 $106 $107 $54 $-1 $108 forward single #
face $-1 $109 $110 $55 $-1 $111 forward single #
face $-1 $112 $113 $42 $-1 $114 reversed single #
loop $-1 $-1 $115 $56 #
plane-surface $-1 0 0 8.8676440376078549 0 0 1 1 0 0 forward_v I I I I #
face $-1 $116 $117 $43 $-1 $118 reversed single #
loop $-1 $-1 $119 $57 #
plane-surface $-1 -67.991396946074815 -29.117355941165684 0 0 1 0 0 0 1 forward_v I I I I #
face $-1 $120 $121 $44 $-1 $122 reversed single #
loop $-1 $-1 $123 $58 #
plane-surface $-1 43.884309337575353 -120.13288111180384 112.35248875479121 -1 0 0 0 -0.62932039886446345 0.77714595512881146 forward_v I I I I #
face $-1 $124 $125 $45 $-1 $126 forward single #
loop $-1 $127 $128 $59 #
cone-surface $-1 22.302025985307594 -25.10314085090058 3.828344375086894 0 0.62932039886446345 -0.77714595512881146 2 0 0 1 I I 0 1 2 forward I I I I #
face $-1 $129 $130 $46 $-1 $131 forward single #
loop $-1 $132 $133 $60 #
cone-surface $-1 30.395382242408004 -25.10314085090058 3.828344375086894 0 0.62932039886446345 -0.77714595512881146 2 0 0 1 I I 0 1 2 forward I I I I #
face $-1 $134 $135 $47 $-1 $136 forward single #
loop $-1 $137 $138 $61 #
cone-surface $-1 38.488738499508415 -25.10314085090058 3.828344375086894 0 0.62932039886446345 -0.77714595512881146 2 0 0 1 I I 0 1 2 forward I I I I #
face $-1 $139 $140 $48 $-1 $141 reversed single #
loop $-1 $-1 $142 $62 #
plane-surface $-1 -57.355382252813996 123.11214562879496 124.83073113274919 1 0 0 0 -0.86602541151947299 -0.49999998660252726 forward_v I I I I #
face $-1 $143 $144 $49 $-1 $145 forward single #
loop $-1 $146 $147 $63 #
cone-surface $-1 -52.059079227787628 27.604798786500773 4.3518437652710862 0 -0.86602541151947299 -0.49999998660252726 1 0 0 1 I I 0 1 1 forward I I I I #
face $-1 $148 $149 $50 $-1 $150 forward single #
loop $-1 $151 $152 $64 #
cone-surface $-1 -44.114624690248064 27.604798786500773 4.3518437652710862 0 -0.86602541151947299 -0.49999998660252726 1 0 0 1 I I 0 1 1 forward I I I I #
face $-1 $153 $154 $51 $-1 $155 forward single #
loop $-1 $156 $157 $65 #
cone-surface $-1 -36.170170152708508 27.604798786500773 4.3518437652710862 0 -0.86602541151947299 -0.49999998660252726 1 0 0 1 I I 0 1 1 forward I I I I #
face $-1 $158 $159 $52 $-1 $160 reversed single #
loop $-1 $-1 $161 $66 #
plane-surface $-1 37.048731855485528 123.11214562879496 124.83073113274919 1 0 0 0 -0.86602541151947299 -0.49999998660252726 forward_v I I I I #
face $-1 $162 $163 $53 $-1 $164 forward single #
loop $-1 $165 $166 $67 #
cone-surface $-1 42.345034880511889 27.604798786500773 4.3518437652710862 0 -0.86602541151947299 -0.49999998660252726 1 0 0 1 I I 0 1 1 forward I I I I #
face $-1 $167 $168 $54 $-1 $169 forward single #
loop $-1 $170 $171 $68 #
cone-surface $-1 50.28948941805146 27.604798786500773 4.3518437652710862 0 -0.86602541151947299 -0.49999998660252726 1 0 0 1 I I 0 1 1 forward I I I I #
face $-1 $172 $173 $55 $-1 $174 forward single #
loop $-1 $175 $176 $69 #
cone-surface $-1 58.233943955591002 27.604798786500773 4.3518437652710862 0 -0.86602541151947299 -0.49999998660252726 1 0 0 1 I I 0 1 1 forward I I I I #
face $-1 $177 $178 $42 $-1 $179 reversed single #
loop $-1 $-1 $180 $70 #
plane-surface $-1 0 0 -8.8676440376078549 0 0 1 1 0 0 forward_v I I I I #
coedge $-1 $181 $182 $183 $184 forward $71 $-1 #
face $-1 $185 $186 $43 $-1 $187 reversed single #
loop $-1 $-1 $188 $73 #
plane-surface $-1 -67.991396946074815 -26.117355941165684 0 0 -1 0 0 0 -1 forward_v I I I I #
coedge $-1 $189 $190 $191 $192 reversed $74 $-1 #
face $-1 $193 $194 $44 $-1 $195 reversed single #
loop $-1 $-1 $196 $76 #
plane-surface $-1 30.395382242408004 -30.670166687456785 1.8752393677123251 0 -0.62932039886446345 0.77714595512881146 1 0 0 forward_v I I I I #
coedge $-1 $197 $198 $199 $200 reversed $77 $-1 #
face $-1 $-1 $201 $45 $-1 $202 forward single #
loop $-1 $203 $204 $79 #
cone-surface $-1 22.302025985307594 -23.224244848809708 1.5081010923848925 0 0.62932039886446345 -0.77714595512881146 1 0 0 1 I I -0.70710678118654746 0.70710678118654746 1 forward I I I I #
loop $-1 $-1 $205 $59 #
coedge $-1 $128 $128 $206 $207 reversed $80 $-1 #
face $-1 $-1 $208 $46 $-1 $209 forward single #
loop $-1 $210 $211 $82 #
cone-surface $-1 30.395382242408004 -23.224244848809708 1.5081010923848925 0 0.62932039886446345 -0.77714595512881146 1 0 0 1 I I -0.70710678118654746 0.70710678118654746 1 forward I I I I #
loop $-1 $-1 $212 $60 #
coedge $-1 $133 $133 $213 $214 reversed $83 $-1 #
face $-1 $-1 $215 $47 $-1 $216 forward single #
loop $-1 $217 $218 $85 #
cone-surface $-1 38.488738499508415 -23.224244848809708 1.5081010923848925 0 0.62932039886446345 -0.77714595512881146 1 0 0 1 I I -0.70710678118654746 0.70710678118654746 1 forward I I I I #
loop $-1 $-1 $219 $61 #
coedge $-1 $138 $138 $220 $221 reversed $86 $-1 #
face $-1 $222 $223 $48 $-1 $224 reversed single #
loop $-1 $-1 $225 $88 #
plane-surface $-1 -44.114624690248064 8.2180541483012348e-007 53.751903727326052 0 0.86602541151947299 0.49999998660252726 1 0 0 forward_v I I I I #
coedge $-1 $226 $227 $228 $229 reversed $89 $-1 #
face $-1 $-1 $230 $49 $-1 $231 forward single #
loop $-1 $232 $233 $91 #
cone-surface $-1 -52.059079227787628 26.484531868401156 3.7050573816495156 0 -0.86602541151947299 -0.49999998660252726 0.5 0 0 1 I I -0.70710678118654746 0.70710678118654746 0.5 forward I I I I #
loop $-1 $-1 $234 $63 #
coedge $-1 $147 $147 $235 $236 reversed $92 $-1 #
face $-1 $-1 $237 $50 $-1 $238 forward single #
loop $-1 $239 $240 $94 #
cone-surface $-1 -44.114624690248064 26.484531868401156 3.7050573816495156 0 -0.86602541151947299 -0.49999998660252726 0.5 0 0 1 I I -0.70710678118654746 0.70710678118654746 0.5 forward I I I I #
loop $-1 $-1 $241 $64 #
coedge $-1 $152 $152 $242 $243 reversed $95 $-1 #
face $-1 $-1 $244 $51 $-1 $245 forward single #
loop $-1 $246 $247 $97 #
cone-surface $-1 -36.170170152708508 26.484531868401156 3.7050573816495156 0 -0.86602541151947299 -0.49999998660252726 0.5 0 0 1 I I -0.70710678118654746 0.70710678118654746 0.5 forward I I I I #
loop $-1 $-1 $248 $65 #
coedge $-1 $157 $157 $249 $250 reversed $98 $-1 #
face $-1 $251 $252 $52 $-1 $253 reversed single #
loop $-1 $-1 $254 $100 #
plane-surface $-1 50.28948941805146 8.2180541483012348e-007 53.751903727326052 0 0.86602541151947299 0.49999998660252726 1 0 0 forward_v I I I I #
coedge $-1 $255 $256 $257 $258 reversed $101 $-1 #
face $-1 $-1 $259 $53 $-1 $260 forward single #
loop $-1 $261 $262 $103 #
cone-surface $-1 42.345034880511889 26.484531868401156 3.7050573816495156 0 -0.86602541151947299 -0.49999998660252726 0.5 0 0 1 I I -0.70710678118654746 0.70710678118654746 0.5 forward I I I I #
loop $-1 $-1 $263 $67 #
coedge $-1 $166 $166 $264 $265 reversed $104 $-1 #
face $-1 $-1 $266 $54 $-1 $267 forward single #
loop $-1 $268 $269 $106 #
cone-surface $-1 50.28948941805146 26.484531868401156 3.7050573816495156 0 -0.86602541151947299 -0.49999998660252726 0.5 0 0 1 I I -0.70710678118654746 0.70710678118654746 0.5 forward I I I I #
loop $-1 $-1 $270 $68 #
coedge $-1 $171 $171 $271 $272 reversed $107 $-1 #
face $-1 $-1 $273 $55 $-1 $274 forward single #
loop $-1 $275 $276 $109 #
cone-surface $-1 58.233943955591002 26.484531868401156 3.7050573816495156 0 -0.86602541151947299 -0.49999998660252726 0.5 0 0 1 I I -0.70710678118654746 0.70710678118654746 0.5 forward I I I I #
loop $-1 $-1 $277 $69 #
coedge $-1 $176 $176 $278 $279 reversed $110 $-1 #
face $-1 $280 $281 $42 $-1 $282 reversed single #
loop $-1 $-1 $283 $112 #
plane-surface $-1 0 -30.670166687456764 0 0 1 0 0 0 1 forward_v I I I I #
coedge $-1 $284 $285 $286 $287 forward $113 $-1 #
coedge $-1 $288 $115 $289 $290 forward $71 $-1 #
coedge $-1 $115 $288 $291 $292 forward $71 $-1 #
coedge $-1 $293 $294 $115 $184 reversed $295 $-1 #
edge $-1 $296 -30.670166687456764 $297 30.670166687456764 $183 $298 forward 7 unknown #
face $-1 $299 $300 $43 $-1 $301 reversed single #
loop $-1 $-1 $302 $116 #
plane-surface $-1 -64.903964582173131 -27.617355941165684 0 -1 0 0 0 0 1 forward_v I I I I #
coedge $-1 $303 $304 $305 $306 forward $117 $-1 #
coedge $-1 $307 $119 $308 $309 reversed $74 $-1 #
coedge $-1 $119 $307 $310 $311 reversed $74 $-1 #
coedge $-1 $312 $313 $119 $192 forward $314 $-1 #
edge $-1 $315 -8.8676440376078549 $316 8.8676440376078549 $191 $317 forward 7 unknown #
face $-1 $318 $319 $44 $-1 $320 reversed single #
loop $-1 $-1 $321 $120 #
plane-surface $-1 16.906455147240656 -120.13288111180384 112.35248875479121 1 0 0 0 0.62932039886446345 -0.77714595512881146 forward_v I I I I #
coedge $-1 $322 $323 $324 $325 reversed $121 $-1 #
coedge $-1 $198 $123 $326 $327 reversed $77 $-1 #
coedge $-1 $123 $197 $322 $328 reversed $77 $-1 #
coedge $-1 $324 $329 $123 $200 forward $330 $-1 #
edge $-1 $331 29.396273868445157 $332 38.031174335104673 $199 $333 forward 7 unknown #
loop $-1 $-1 $206 $124 #
plane-surface $-1 30.395382242408004 -30.670166687456785 1.8752393677123251 0 -0.62932039886446345 0.77714595512881146 1 0 0 forward_v I I I I #
loop $-1 $-1 $334 $79 #
coedge $-1 $204 $204 $205 $335 reversed $125 $-1 #
coedge $-1 $205 $205 $204 $335 forward $127 $-1 #
coedge $-1 $206 $206 $128 $207 forward $201 $-1 #
edge $-1 $336 2.1194055561054718e-016 $336 6.2831853071796004 $206 $337 forward 7 unknown #
loop $-1 $-1 $213 $129 #
plane-surface $-1 30.395382242408004 -30.670166687456785 1.8752393677123251 0 -0.62932039886446345 0.77714595512881146 1 0 0 forward_v I I I I #
loop $-1 $-1 $338 $82 #
coedge $-1 $211 $211 $212 $339 reversed $130 $-1 #
coedge $-1 $212 $212 $211 $339 forward $132 $-1 #
coedge $-1 $213 $213 $133 $214 forward $208 $-1 #
edge $-1 $340 2.1194055561054718e-016 $340 6.2831853071796004 $213 $341 forward 7 unknown #
loop $-1 $-1 $220 $134 #
plane-surface $-1 30.395382242408004 -30.670166687456785 1.8752393677123251 0 -0.62932039886446345 0.77714595512881146 1 0 0 forward_v I I I I #
loop $-1 $-1 $342 $85 #
coedge $-1 $218 $218 $219 $343 reversed $135 $-1 #
coedge $-1 $219 $219 $218 $343 forward $137 $-1 #
coedge $-1 $220 $220 $138 $221 forward $215 $-1 #
edge $-1 $344 2.1194055561054718e-016 $344 6.2831853071796004 $220 $345 forward 7 unknown #
face $-1 $346 $347 $48 $-1 $348 reversed single #
loop $-1 $-1 $349 $139 #
plane-surface $-1 -30.873867127682132 123.11214562879496 124.83073113274919 -1 0 0 0 0.86602541151947299 0.49999998660252726 forward_v I I I I #
coedge $-1 $350 $351 $352 $353 reversed $140 $-1 #
coedge $-1 $227 $142 $354 $355 reversed $89 $-1 #
coedge $-1 $142 $226 $350 $356 reversed $89 $-1 #
coedge $-1 $352 $357 $142 $229 forward $358 $-1 #
edge $-1 $359 30.885906126940718 $360 35.642133504172975 $228 $361 forward 7 unknown #
loop $-1 $-1 $235 $143 #
plane-surface $-1 -44.114624690248064 8.2180541483012348e-007 53.751903727326052 0 0.86602541151947299 0.49999998660252726 1 0 0 forward_v I I I I #
loop $-1 $-1 $362 $91 #
coedge $-1 $233 $233 $234 $363 reversed $144 $-1 #
coedge $-1 $234 $234 $233 $363 forward $146 $-1 #
coedge $-1 $235 $235 $147 $236 forward $230 $-1 #
edge $-1 $364 -1.6567558366804477e-016 $364 6.2831853071796004 $235 $365 forward 7 unknown #
loop $-1 $-1 $242 $148 #
plane-surface $-1 -44.114624690248064 8.2180541483012348e-007 53.751903727326052 0 0.86602541151947299 0.49999998660252726 1 0 0 forward_v I I I I #
loop $-1 $-1 $366 $94 #
coedge $-1 $240 $240 $241 $367 reversed $149 $-1 #
coedge $-1 $241 $241 $240 $367 forward $151 $-1 #
coedge $-1 $242 $242 $152 $243 forward $237 $-1 #
edge $-1 $368 -1.6567558366804477e-016 $368 6.2831853071796004 $242 $369 forward 7 unknown #
loop $-1 $-1 $249 $153 #
plane-surface $-1 -44.114624690248064 8.2180541483012348e-007 53.751903727326052 0 0.86602541151947299 0.49999998660252726 1 0 0 forward_v I I I I #
loop $-1 $-1 $370 $97 #
coedge $-1 $247 $247 $248 $371 reversed $154 $-1 #
coedge $-1 $248 $248 $247 $371 forward $156 $-1 #
coedge $-1 $249 $249 $157 $250 forward $244 $-1 #
edge $-1 $372 -1.6567558366804477e-016 $372 6.2831853071796004 $249 $373 forward 7 unknown #
face $-1 $374 $375 $52 $-1 $376 forward single #
loop $-1 $-1 $377 $158 #
plane-surface $-1 63.530246980617392 123.11214562879496 124.83073113274919 -1 0 0 0 0.86602541151947299 0.49999998660252726 forward_v I I I I #
coedge $-1 $378 $379 $380 $381 reversed $159 $-1 #
coedge $-1 $256 $161 $382 $383 reversed $101 $-1 #
coedge $-1 $161 $255 $378 $384 reversed $101 $-1 #
coedge $-1 $380 $385 $161 $258 forward $375 $-1 #
edge $-1 $386 30.885906126940718 $387 35.642133504172975 $257 $388 forward 7 unknown #
loop $-1 $-1 $264 $162 #
plane-surface $-1 50.28948941805146 8.2180541483012348e-007 53.751903727326052 0 0.86602541151947299 0.49999998660252726 1 0 0 forward_v I I I I #
loop $-1 $-1 $389 $103 #
coedge $-1 $262 $262 $263 $390 reversed $163 $-1 #
coedge $-1 $263 $263 $262 $390 forward $165 $-1 #
coedge $-1 $264 $264 $166 $265 forward $259 $-1 #
edge $-1 $391 -1.6567558366804477e-016 $391 6.2831853071796004 $264 $392 forward 7 unknown #
loop $-1 $-1 $271 $167 #
plane-surface $-1 50.28948941805146 8.2180541483012348e-007 53.751903727326052 0 0.86602541151947299 0.49999998660252726 1 0 0 forward_v I I I I #
loop $-1 $-1 $393 $106 #
coedge $-1 $269 $269 $270 $394 reversed $168 $-1 #
coedge $-1 $270 $270 $269 $394 forward $170 $-1 #
coedge $-1 $271 $271 $171 $272 forward $266 $-1 #
edge $-1 $395 -1.6567558366804477e-016 $395 6.2831853071796004 $271 $396 forward 7 unknown #
loop $-1 $-1 $278 $172 #
plane-surface $-1 50.28948941805146 8.2180541483012348e-007 53.751903727326052 0 0.86602541151947299 0.49999998660252726 1 0 0 forward_v I I I I #
loop $-1 $-1 $397 $109 #
coedge $-1 $276 $276 $277 $398 reversed $173 $-1 #
coedge $-1 $277 $277 $276 $398 forward $175 $-1 #
coedge $-1 $278 $278 $176 $279 forward $273 $-1 #
edge $-1 $399 -1.6567558366804477e-016 $399 6.2831853071796004 $278 $400 forward 7 unknown #
face $-1 $401 $402 $42 $-1 $403 reversed single #
loop $-1 $-1 $404 $177 #
plane-surface $-1 -71.078829309976499 0 0 1 0 0 0 0 -1 forward_v I I I I #
coedge $-1 $405 $291 $406 $407 forward $178 $-1 #
coedge $-1 $408 $180 $405 $409 forward $113 $-1 #
coedge $-1 $180 $408 $410 $411 forward $113 $-1 #
coedge $-1 $294 $293 $180 $287 reversed $295 $-1 #
edge $-1 $412 -30.670166687456764 $413 30.670166687456764 $286 $414 forward 7 unknown #
coedge $-1 $182 $181 $415 $416 forward $71 $-1 #
coedge $-1 $417 $418 $181 $290 reversed $402 $-1 #
edge $-1 $297 -71.078829309976499 $419 71.078829309976499 $289 $420 forward 7 unknown #
coedge $-1 $283 $421 $182 $292 reversed $178 $-1 #
edge $-1 $422 -71.078829309976499 $296 71.078829309976499 $291 $423 forward 7 unknown #
coedge $-1 $286 $183 $421 $424 forward $295 $-1 #
coedge $-1 $183 $286 $417 $425 reversed $295 $-1 #
loop $-1 $-1 $293 $401 #
vertex $-1 $184 $426 #
vertex $-1 $184 $427 #
straight-curve $-1 71.078829309976499 0 8.8676440376078549 0 1 0 I I #
face $-1 $428 $429 $43 $-1 $430 forward single #
loop $-1 $-1 $431 $185 #
plane-surface $-1 0 0 -8.8676440376078549 0 0 1 1 0 0 forward_v I I I I #
coedge $-1 $432 $433 $307 $434 forward $186 $-1 #
coedge $-1 $435 $188 $431 $436 reversed $117 $-1 #
coedge $-1 $188 $435 $437 $438 reversed $117 $-1 #
coedge $-1 $433 $432 $188 $306 reversed $186 $-1 #
edge $-1 $439 -8.8676440376078549 $440 8.8676440376078549 $305 $441 forward 7 unknown #
coedge $-1 $190 $189 $302 $434 reversed $74 $-1 #
coedge $-1 $442 $443 $189 $309 forward $300 $-1 #
edge $-1 $444 30.908266109135724 $315 37.083130836939091 $308 $445 forward 7 unknown #
coedge $-1 $446 $447 $190 $311 forward $429 $-1 #
edge $-1 $316 -37.083130836939091 $448 -30.908266109135724 $310 $449 forward 7 unknown #
coedge $-1 $450 $191 $447 $451 reversed $314 $-1 #
coedge $-1 $191 $450 $442 $452 reversed $314 $-1 #
loop $-1 $-1 $450 $428 #
vertex $-1 $452 $453 #
vertex $-1 $192 $454 #
straight-curve $-1 -71.078829309976499 -29.117355941165684 0 0 0 1 I I #
face $-1 $-1 $330 $44 $-1 $455 forward single #
loop $-1 $-1 $456 $193 #
plane-surface $-1 0 -30.670166687456764 0 0 1 0 0 0 1 forward_v I I I I #
coedge $-1 $457 $458 $459 $460 reversed $194 $-1 #
coedge $-1 $461 $196 $198 $328 forward $121 $-1 #
coedge $-1 $196 $461 $457 $462 forward $121 $-1 #
coedge $-1 $459 $199 $196 $325 forward $330 $-1 #
edge $-1 $332 -28.68661821637135 $463 -1.7087640260366541 $324 $464 forward 7 unknown #
coedge $-1 $465 $466 $197 $327 forward $319 $-1 #
edge $-1 $467 -54.301005009683266 $331 -47.308600339787752 $326 $468 forward 7 unknown #
edge $-1 $332 -11.111040866484737 $467 -2.7465363939559239e-014 $198 $469 forward 7 unknown #
coedge $-1 $199 $459 $465 $470 forward $330 $-1 #
loop $-1 $-1 $459 $318 #
vertex $-1 $327 $471 #
vertex $-1 $200 $472 #
straight-curve $-1 43.884309337575353 -60.06644055590192 8.8676440376078531 0 1 0 I I #
coedge $-1 $334 $334 $-1 $473 reversed $203 $-1 #
edge $-1 $474 0 $474 6.2831853071796004 $204 $475 forward 7 unknown #
vertex $-1 $207 $476 #
ellipse-curve $-1 22.302025985307594 -26.352716454127002 5.3714417026601007 0 -0.62932039886446345 0.77714595512881146 2 0 0 1 I I #
coedge $-1 $338 $338 $-1 $477 reversed $210 $-1 #
edge $-1 $478 0 $478 6.2831853071796004 $211 $479 forward 7 unknown #
vertex $-1 $214 $480 #
ellipse-curve $-1 30.395382242408004 -26.352716454127002 5.3714417026601007 0 -0.62932039886446345 0.77714595512881146 2 0 0 1 I I #
coedge $-1 $342 $342 $-1 $481 reversed $217 $-1 #
edge $-1 $482 0 $482 6.2831853071796004 $218 $483 forward 7 unknown #
vertex $-1 $221 $484 #
ellipse-curve $-1 38.488738499508415 -26.352716454127002 5.3714417026601007 0 -0.62932039886446345 0.77714595512881146 2 0 0 1 I I #
face $-1 $-1 $358 $48 $-1 $485 forward single #
loop $-1 $-1 $486 $222 #
plane-surface $-1 0 30.670166687456764 0 0 -1 0 0 0 -1 forward_v I I I I #
coedge $-1 $487 $488 $489 $490 reversed $223 $-1 #
coedge $-1 $491 $225 $227 $356 forward $140 $-1 #
coedge $-1 $225 $491 $487 $492 forward $140 $-1 #
coedge $-1 $489 $228 $225 $353 forward $358 $-1 #
edge $-1 $360 -35.298069907689964 $493 -8.8165547825581001 $352 $494 forward 7 unknown #
coedge $-1 $495 $496 $226 $355 forward $347 $-1 #
edge $-1 $497 -61.785749292799743 $359 -53.547721528766743 $354 $498 forward 7 unknown #
edge $-1 $360 51.827878365563357 $497 61.340333374913584 $227 $499 forward 7 unknown #
coedge $-1 $228 $489 $495 $500 forward $358 $-1 #
loop $-1 $-1 $489 $346 #
vertex $-1 $355 $501 #
vertex $-1 $229 $502 #
straight-curve $-1 -57.355382252813996 61.556072814397481 8.8676440376078531 0 -1 0 I I #
coedge $-1 $362 $362 $-1 $503 reversed $232 $-1 #
edge $-1 $504 0 $504 6.2831853071796004 $233 $505 forward 7 unknown #
vertex $-1 $236 $506 #
ellipse-curve $-1 -52.059079227787628 28.292052998840621 4.7486301555913757 0 0.86602541151947299 0.49999998660252726 1 0 0 1 I I #
coedge $-1 $366 $366 $-1 $507 reversed $239 $-1 #
edge $-1 $508 0 $508 6.2831853071796004 $240 $509 forward 7 unknown #
vertex $-1 $243 $510 #
ellipse-curve $-1 -44.114624690248064 28.292052998840621 4.7486301555913757 0 0.86602541151947299 0.49999998660252726 1 0 0 1 I I #
coedge $-1 $370 $370 $-1 $511 reversed $246 $-1 #
edge $-1 $512 0 $512 6.2831853071796004 $247 $513 forward 7 unknown #
vertex $-1 $250 $514 #
ellipse-curve $-1 -36.170170152708508 28.292052998840621 4.7486301555913757 0 0.86602541151947299 0.49999998660252726 1 0 0 1 I I #
face $-1 $-1 $515 $52 $-1 $516 reversed single #
loop $-1 $-1 $257 $251 #
plane-surface $-1 0 0 8.8676440376078549 0 0 1 1 0 0 forward_v I I I I #
coedge $-1 $517 $518 $519 $520 reversed $252 $-1 #
coedge $-1 $521 $254 $256 $384 forward $159 $-1 #
coedge $-1 $254 $521 $517 $522 forward $159 $-1 #
coedge $-1 $519 $257 $254 $381 forward $375 $-1 #
edge $-1 $387 11.903987146459798 $523 38.385502271591662 $380 $524 forward 7 unknown #
coedge $-1 $525 $526 $255 $383 forward $515 $-1 #
edge $-1 $527 -61.785749292799743 $386 -53.547721528766743 $382 $528 forward 7 unknown #
edge $-1 $387 51.827878365563357 $527 61.340333374913584 $256 $529 forward 7 unknown #
coedge $-1 $257 $519 $525 $530 forward $375 $-1 #
vertex $-1 $383 $531 #
vertex $-1 $258 $532 #
straight-curve $-1 37.048731855485528 61.556072814397481 8.8676440376078531 0 -1 0 I I #
coedge $-1 $389 $389 $-1 $533 reversed $261 $-1 #
edge $-1 $534 0 $534 6.2831853071796004 $262 $535 forward 7 unknown #
vertex $-1 $265 $536 #
ellipse-curve $-1 42.345034880511889 28.292052998840621 4.7486301555913757 0 0.86602541151947299 0.49999998660252726 1 0 0 1 I I #
coedge $-1 $393 $393 $-1 $537 reversed $268 $-1 #
edge $-1 $538 0 $538 6.2831853071796004 $269 $539 forward 7 unknown #
vertex $-1 $272 $540 #
ellipse-curve $-1 50.28948941805146 28.292052998840621 4.7486301555913757 0 0.86602541151947299 0.49999998660252726 1 0 0 1 I I #
coedge $-1 $397 $397 $-1 $541 reversed $275 $-1 #
edge $-1 $542 0 $542 6.2831853071796004 $276 $543 forward 7 unknown #
vertex $-1 $279 $544 #
ellipse-curve $-1 58.233943955591002 28.292052998840621 4.7486301555913757 0 0.86602541151947299 0.49999998660252726 1 0 0 1 I I #
face $-1 $-1 $295 $42 $-1 $545 reversed single #
loop $-1 $-1 $417 $280 #
plane-surface $-1 0 30.670166687456764 0 0 -1 0 0 0 -1 forward_v I I I I #
coedge $-1 $546 $415 $418 $547 forward $281 $-1 #
coedge $-1 $421 $283 $284 $409 reversed $178 $-1 #
coedge $-1 $415 $546 $283 $407 reversed $281 $-1 #
edge $-1 $422 -8.8676440376078549 $548 8.8676440376078549 $406 $549 forward 7 unknown #
coedge $-1 $285 $284 $546 $550 forward $113 $-1 #
edge $-1 $413 -71.078829309976499 $548 71.078829309976499 $405 $551 forward 7 unknown #
coedge $-1 $418 $417 $285 $411 reversed $402 $-1 #
edge $-1 $552 -71.078829309976499 $412 71.078829309976499 $410 $553 forward 7 unknown #
vertex $-1 $287 $554 #
vertex $-1 $424 $555 #
straight-curve $-1 71.078829309976499 0 -8.8676440376078549 0 -1 0 I I #
coedge $-1 $404 $406 $288 $416 reversed $281 $-1 #
edge $-1 $419 -30.670166687456764 $422 30.670166687456764 $415 $556 forward 7 unknown #
coedge $-1 $410 $289 $294 $425 forward $402 $-1 #
coedge $-1 $289 $410 $404 $547 reversed $402 $-1 #
vertex $-1 $290 $557 #
straight-curve $-1 0 30.670166687456764 8.8676440376078549 -1 0 0 I I #
coedge $-1 $291 $405 $293 $424 reversed $178 $-1 #
vertex $-1 $416 $558 #
straight-curve $-1 0 -30.670166687456764 8.8676440376078549 1 0 0 I I #
edge $-1 $296 -8.8676440376078549 $413 8.8676440376078549 $293 $559 forward 7 unknown #
edge $-1 $297 -8.8676440376078549 $412 8.8676440376078549 $294 $560 forward 7 unknown #
point $-1 71.078829309976499 -30.670166687456764 8.8676440376078549 #
point $-1 71.078829309976499 30.670166687456764 8.8676440376078549 #
face $-1 $-1 $314 $43 $-1 $561 reversed single #
loop $-1 $-1 $437 $299 #
plane-surface $-1 0 0 8.8676440376078549 0 0 1 1 0 0 forward_v I I I I #
coedge $-1 $443 $442 $303 $436 forward $300 $-1 #
coedge $-1 $305 $302 $443 $562 reversed $186 $-1 #
coedge $-1 $302 $305 $446 $563 reversed $186 $-1 #
edge $-1 $448 -8.8676440376078549 $444 8.8676440376078549 $302 $564 forward 7 unknown #
coedge $-1 $304 $303 $450 $565 reversed $117 $-1 #
edge $-1 $566 -37.083130836939091 $440 -30.908266109135724 $431 $567 forward 7 unknown #
coedge $-1 $447 $446 $304 $438 forward $429 $-1 #
edge $-1 $439 30.908266109135724 $568 37.083130836939091 $437 $569 forward 7 unknown #
vertex $-1 $438 $570 #
vertex $-1 $436 $571 #
straight-curve $-1 -64.903964582173131 -26.117355941165684 0 0 0 -1 I I #
coedge $-1 $431 $308 $313 $452 forward $300 $-1 #
coedge $-1 $308 $431 $432 $562 forward $300 $-1 #
vertex $-1 $309 $572 #
straight-curve $-1 -33.995698473037407 -29.117355941165684 -8.8676440376078549 -1 0 0 I I #
coedge $-1 $437 $310 $433 $563 forward $429 $-1 #
coedge $-1 $310 $437 $312 $451 forward $429 $-1 #
vertex $-1 $311 $573 #
straight-curve $-1 -33.995698473037407 -29.117355941165684 8.8676440376078549 1 0 0 I I #
coedge $-1 $313 $312 $435 $565 forward $314 $-1 #
edge $-1 $568 26.117355941165684 $316 29.117355941165684 $312 $574 forward 7 unknown #
edge $-1 $315 -29.117355941165684 $566 -26.117355941165684 $313 $575 forward 7 unknown #
point $-1 -71.078829309976499 -29.117355941165684 -8.8676440376078549 #
point $-1 -71.078829309976499 -29.117355941165684 8.8676440376078549 #
plane-surface $-1 0 0 8.8676440376078549 0 0 1 1 0 0 forward_v I I I I #
coedge $-1 $466 $465 $458 $576 forward $319 $-1 #
coedge $-1 $458 $321 $323 $462 reversed $194 $-1 #
coedge $-1 $321 $457 $456 $576 reversed $194 $-1 #
coedge $-1 $329 $324 $321 $460 forward $330 $-1 #
edge $-1 $463 -38.031174335104673 $577 -29.396273868445157 $459 $578 forward 7 unknown #
coedge $-1 $323 $322 $466 $579 reversed $121 $-1 #
edge $-1 $580 2.7465363939559239e-014 $463 11.111040866484737 $457 $581 forward 7 unknown #
vertex $-1 $325 $582 #
straight-curve $-1 15.197691121204002 -22.035266220797244 8.8676440376078549 -1 0 0 I I #
coedge $-1 $456 $326 $329 $470 reversed $319 $-1 #
coedge $-1 $326 $456 $461 $579 forward $319 $-1 #
vertex $-1 $327 $583 #
straight-curve $-1 43.884309337575353 -30.670166687456764 56.176244377395605 0 0 1 I I #
straight-curve $-1 43.884309337575353 -30.670166687456785 1.8752393677123251 0 -0.77714595512881146 -0.62932039886446345 I I #
edge $-1 $577 16.906455147240656 $331 43.884309337575353 $465 $584 forward 7 unknown #
point $-1 43.884309337575353 -30.670166687456764 8.8676440376078549 #
point $-1 43.884309337575353 -22.035266220797247 8.8676440376078549 #
edge $-1 $585 1 $585 0 $334 $-1 forward 7 unknown #
vertex $-1 $335 $586 #
ellipse-curve $-1 22.302025985307594 -23.853565247674172 2.2852470475137041 0 -0.62932039886446345 0.77714595512881146 2 0 0 1 I I #
point $-1 24.302025985307594 -26.352716454126988 5.3714417026600838 #
edge $-1 $587 1 $587 0 $338 $-1 forward 7 unknown #
vertex $-1 $339 $588 #
ellipse-curve $-1 30.395382242408004 -23.853565247674172 2.2852470475137041 0 -0.62932039886446345 0.77714595512881146 2 0 0 1 I I #
point $-1 32.395382242408004 -26.352716454126988 5.3714417026600838 #
edge $-1 $589 1 $589 0 $342 $-1 forward 7 unknown #
vertex $-1 $343 $590 #
ellipse-curve $-1 38.488738499508415 -23.853565247674172 2.2852470475137041 0 -0.62932039886446345 0.77714595512881146 2 0 0 1 I I #
point $-1 40.488738499508415 -26.352716454126988 5.3714417026600838 #
plane-surface $-1 0 0 8.8676440376078549 0 0 1 1 0 0 forward_v I I I I #
coedge $-1 $496 $495 $488 $591 forward $347 $-1 #
coedge $-1 $488 $349 $351 $492 reversed $223 $-1 #
coedge $-1 $349 $487 $486 $591 reversed $223 $-1 #
coedge $-1 $357 $352 $349 $490 forward $358 $-1 #
edge $-1 $493 -35.642133504172975 $592 -30.885906126940718 $489 $593 forward 7 unknown #
coedge $-1 $351 $350 $496 $594 reversed $140 $-1 #
edge $-1 $595 -61.340333374913584 $493 -51.827878365563357 $487 $596 forward 7 unknown #
vertex $-1 $353 $597 #
straight-curve $-1 -22.057312345124032 25.913939310224507 8.8676440376078496 1 0 0 I I #
coedge $-1 $486 $354 $357 $500 reversed $347 $-1 #
coedge $-1 $354 $486 $491 $594 forward $347 $-1 #
vertex $-1 $355 $598 #
straight-curve $-1 -57.355382252813996 30.670166687456764 62.415365566374597 0 0 1 I I #
straight-curve $-1 -57.355382252813996 8.2180541483012348e-007 53.751903727326052 0 0.49999998660252726 -0.86602541151947299 I I #
edge $-1 $592 30.873867127682132 $359 57.355382252813996 $495 $599 forward 7 unknown #
point $-1 -57.355382252813996 30.670166687456764 8.8676440376078549 #
point $-1 -57.355382252813996 25.913939310224507 8.8676440376078531 #
edge $-1 $600 1 $600 0 $362 $-1 forward 7 unknown #
vertex $-1 $363 $601 #
ellipse-curve $-1 -52.059079227787628 26.917544574160893 3.9550573749507794 0 0.86602541151947299 0.49999998660252726 1 0 0 1 I I #
point $-1 -51.059079227787628 28.292052998840653 4.7486301555913943 #
edge $-1 $602 1 $602 0 $366 $-1 forward 7 unknown #
vertex $-1 $367 $603 #
ellipse-curve $-1 -44.114624690248064 26.917544574160893 3.9550573749507794 0 0.86602541151947299 0.49999998660252726 1 0 0 1 I I #
point $-1 -43.114624690248064 28.292052998840653 4.7486301555913943 #
edge $-1 $604 1 $604 0 $370 $-1 forward 7 unknown #
vertex $-1 $371 $605 #
ellipse-curve $-1 -36.170170152708508 26.917544574160893 3.9550573749507794 0 0.86602541151947299 0.49999998660252726 1 0 0 1 I I #
point $-1 -35.170170152708508 28.292052998840653 4.7486301555913943 #
loop $-1 $-1 $382 $374 #
plane-surface $-1 0 30.670166687456764 0 0 -1 0 0 0 -1 forward_v I I I I #
coedge $-1 $518 $377 $379 $522 reversed $252 $-1 #
coedge $-1 $377 $517 $606 $607 reversed $252 $-1 #
coedge $-1 $385 $380 $377 $520 forward $375 $-1 #
edge $-1 $523 -35.642133504172975 $608 -30.885906126940718 $519 $609 forward 7 unknown #
coedge $-1 $379 $378 $526 $610 reversed $159 $-1 #
edge $-1 $611 -61.340333374913584 $523 -51.827878365563357 $517 $612 forward 7 unknown #
vertex $-1 $381 $613 #
straight-curve $-1 25.14474470902573 25.913939310224507 8.8676440376078496 1 0 0 I I #
coedge $-1 $606 $382 $385 $530 reversed $515 $-1 #
coedge $-1 $382 $606 $521 $610 forward $515 $-1 #
vertex $-1 $383 $614 #
straight-curve $-1 37.048731855485528 30.670166687456764 62.415365566374597 0 0 1 I I #
straight-curve $-1 37.048731855485528 8.2180541483012348e-007 53.751903727326052 0 0.49999998660252726 -0.86602541151947299 I I #
edge $-1 $608 -63.530246980617392 $386 -37.048731855485528 $525 $615 forward 7 unknown #
point $-1 37.048731855485528 30.670166687456764 8.8676440376078549 #
point $-1 37.048731855485528 25.913939310224507 8.8676440376078531 #
edge $-1 $616 1 $616 0 $389 $-1 forward 7 unknown #
vertex $-1 $390 $617 #
ellipse-curve $-1 42.345034880511889 26.917544574160893 3.9550573749507794 0 0.86602541151947299 0.49999998660252726 1 0 0 1 I I #
point $-1 43.345034880511889 28.292052998840653 4.7486301555913943 #
edge $-1 $618 1 $618 0 $393 $-1 forward 7 unknown #
vertex $-1 $394 $619 #
ellipse-curve $-1 50.28948941805146 26.917544574160893 3.9550573749507794 0 0.86602541151947299 0.49999998660252726 1 0 0 1 I I #
point $-1 51.28948941805146 28.292052998840653 4.7486301555913943 #
edge $-1 $620 1 $620 0 $397 $-1 forward 7 unknown #
vertex $-1 $398 $621 #
ellipse-curve $-1 58.233943955591002 26.917544574160893 3.9550573749507794 0 0.86602541151947299 0.49999998660252726 1 0 0 1 I I #
point $-1 59.233943955591002 28.292052998840653 4.7486301555913943 #
plane-surface $-1 71.078829309976499 0 0 -1 0 0 0 0 1 forward_v I I I I #
coedge $-1 $406 $404 $408 $550 reversed $281 $-1 #
edge $-1 $419 -8.8676440376078549 $552 8.8676440376078549 $418 $622 forward 7 unknown #
vertex $-1 $550 $623 #
straight-curve $-1 -71.078829309976499 -30.670166687456764 0 0 0 -1 I I #
edge $-1 $548 -30.670166687456764 $552 30.670166687456764 $546 $624 forward 7 unknown #
straight-curve $-1 0 -30.670166687456764 -8.8676440376078549 -1 0 0 I I #
vertex $-1 $411 $625 #
straight-curve $-1 0 30.670166687456764 -8.8676440376078549 1 0 0 I I #
point $-1 71.078829309976499 30.670166687456764 -8.8676440376078549 #
point $-1 71.078829309976499 -30.670166687456764 -8.8676440376078549 #
straight-curve $-1 -71.078829309976499 0 8.8676440376078549 0 -1 0 I I #
point $-1 -71.078829309976499 30.670166687456764 8.8676440376078549 #
point $-1 -71.078829309976499 -30.670166687456764 8.8676440376078549 #
straight-curve $-1 71.078829309976499 -30.670166687456764 0 0 0 -1 I I #
straight-curve $-1 71.078829309976499 30.670166687456764 0 0 0 -1 I I #
plane-surface $-1 -71.078829309976499 0 0 1 0 0 0 0 -1 forward_v I I I I #
edge $-1 $440 12.308677970582842 $444 15.308677970582842 $443 $626 forward 7 unknown #
edge $-1 $448 -15.308677970582842 $439 -12.308677970582842 $446 $627 forward 7 unknown #
straight-curve $-1 -64.903964582173131 -29.117355941165684 0 0 0 -1 I I #
edge $-1 $568 -8.8676440376078549 $566 8.8676440376078549 $450 $628 forward 7 unknown #
vertex $-1 $565 $629 #
straight-curve $-1 -33.995698473037407 -26.117355941165684 -8.8676440376078549 1 0 0 I I #
vertex $-1 $451 $630 #
straight-curve $-1 -33.995698473037407 -26.117355941165684 8.8676440376078549 -1 0 0 I I #
point $-1 -64.903964582173131 -26.117355941165684 8.8676440376078549 #
point $-1 -64.903964582173131 -26.117355941165684 -8.8676440376078549 #
point $-1 -64.903964582173131 -29.117355941165684 -8.8676440376078549 #
point $-1 -64.903964582173131 -29.117355941165684 8.8676440376078549 #
straight-curve $-1 -71.078829309976499 0 8.8676440376078549 0 -1 0 I I #
straight-curve $-1 -71.078829309976499 0 -8.8676440376078549 0 1 0 I I #
edge $-1 $577 47.308600339787752 $580 54.301005009683266 $456 $631 forward 7 unknown #
vertex $-1 $470 $632 #
straight-curve $-1 16.906455147240656 -60.06644055590192 8.8676440376078531 0 -1 0 I I #
edge $-1 $580 1.7087640260366541 $467 28.68661821637135 $466 $633 forward 7 unknown #
vertex $-1 $579 $634 #
straight-curve $-1 16.906455147240656 -30.670166687456785 1.8752393677123251 0 0.77714595512881146 0.62932039886446345 I I #
point $-1 16.906455147240656 -22.035266220797247 8.8676440376078549 #
point $-1 43.884309337575353 -30.670166687456764 1.8752393677123425 #
straight-curve $-1 0 -30.670166687456764 8.8676440376078549 1 0 0 I I #
vertex $-1 $473 $635 #
point $-1 24.302025985307594 -23.853565247674172 2.2852470475137041 #
vertex $-1 $477 $636 #
point $-1 32.395382242408004 -23.853565247674172 2.2852470475137041 #
vertex $-1 $481 $637 #
point $-1 40.488738499508415 -23.853565247674172 2.2852470475137041 #
edge $-1 $592 53.547721528766743 $595 61.785749292799743 $486 $638 forward 7 unknown #
vertex $-1 $500 $639 #
straight-curve $-1 -30.873867127682132 61.556072814397481 8.8676440376078531 0 1 0 I I #
edge $-1 $595 8.8165547825581001 $497 35.298069907689964 $496 $640 forward 7 unknown #
vertex $-1 $594 $641 #
straight-curve $-1 -30.873867127682132 8.2180541483012348e-007 53.751903727326052 0 -0.49999998660252726 0.86602541151947299 I I #
point $-1 -30.873867127682132 25.913939310224507 8.8676440376078531 #
point $-1 -57.355382252813996 30.670166687456764 0.62961627357485384 #
straight-curve $-1 0 30.670166687456764 8.8676440376078549 -1 0 0 I I #
vertex $-1 $503 $642 #
point $-1 -51.059079227787628 26.917544574160893 3.9550573749507794 #
vertex $-1 $507 $643 #
point $-1 -43.114624690248064 26.917544574160893 3.9550573749507794 #
vertex $-1 $511 $644 #
point $-1 -35.170170152708508 26.917544574160893 3.9550573749507794 #
coedge $-1 $526 $525 $518 $607 forward $515 $-1 #
edge $-1 $608 53.547721528766743 $611 61.785749292799743 $606 $645 forward 7 unknown #
vertex $-1 $530 $646 #
straight-curve $-1 63.530246980617392 61.556072814397481 8.8676440376078531 0 1 0 I I #
edge $-1 $611 -38.385502271591662 $527 -11.903987146459798 $526 $647 forward 7 unknown #
vertex $-1 $610 $648 #
straight-curve $-1 63.530246980617392 8.2180541483012348e-007 53.751903727326052 0 -0.49999998660252726 0.86602541151947299 I I #
point $-1 63.530246980617392 25.913939310224507 8.8676440376078531 #
point $-1 37.048731855485528 30.670166687456764 0.62961627357485384 #
straight-curve $-1 0 30.670166687456764 8.8676440376078549 -1 0 0 I I #
vertex $-1 $533 $649 #
point $-1 43.345034880511889 26.917544574160893 3.9550573749507794 #
vertex $-1 $537 $650 #
point $-1 51.28948941805146 26.917544574160893 3.9550573749507794 #
vertex $-1 $541 $651 #
point $-1 59.233943955591002 26.917544574160893 3.9550573749507794 #
straight-curve $-1 -71.078829309976499 30.670166687456764 0 0 0 -1 I I #
point $-1 -71.078829309976499 -30.670166687456764 -8.8676440376078549 #
straight-curve $-1 -71.078829309976499 0 -8.8676440376078549 0 1 0 I I #
point $-1 -71.078829309976499 30.670166687456764 -8.8676440376078549 #
straight-curve $-1 -64.903964582173131 -13.808677970582842 -8.8676440376078549 0 -1 0 I I #
straight-curve $-1 -64.903964582173131 -13.808677970582842 8.8676440376078549 0 1 0 I I #
straight-curve $-1 -71.078829309976499 -26.117355941165684 0 0 0 -1 I I #
point $-1 -71.078829309976499 -26.117355941165684 -8.8676440376078549 #
point $-1 -71.078829309976499 -26.117355941165684 8.8676440376078549 #
straight-curve $-1 16.906455147240656 -30.670166687456764 56.176244377395605 0 0 -1 I I #
point $-1 16.906455147240656 -30.670166687456764 8.8676440376078549 #
straight-curve $-1 15.197691121204002 -30.670166687456764 1.8752393677123431 1 0 0 I I #
point $-1 16.906455147240656 -30.670166687456764 1.8752393677123425 #
point $-1 22.302025985307594 -22.594924449945243 0.73095513725608108 #
point $-1 30.395382242408004 -22.594924449945243 0.73095513725608108 #
point $-1 38.488738499508415 -22.594924449945243 0.73095513725608108 #
straight-curve $-1 -30.873867127682132 30.670166687456764 62.415365566374597 0 0 -1 I I #
point $-1 -30.873867127682132 30.670166687456764 8.8676440376078549 #
straight-curve $-1 -22.057312345124032 30.670166687456764 0.62961627357485028 -1 0 0 I I #
point $-1 -30.873867127682132 30.670166687456764 0.62961627357485384 #
point $-1 -52.059079227787628 26.051519162641419 3.4550573883482518 #
point $-1 -44.114624690248064 26.051519162641419 3.4550573883482518 #
point $-1 -36.170170152708508 26.051519162641419 3.4550573883482518 #
straight-curve $-1 63.530246980617392 30.670166687456764 62.415365566374597 0 0 -1 I I #
point $-1 63.530246980617392 30.670166687456764 8.8676440376078549 #
straight-curve $-1 25.14474470902573 30.670166687456764 0.62961627357485028 -1 0 0 I I #
point $-1 63.530246980617392 30.670166687456764 0.62961627357485384 #
point $-1 42.345034880511889 26.051519162641419 3.4550573883482518 #
point $-1 50.28948941805146 26.051519162641419 3.4550573883482518 #
point $-1 58.233943955591002 26.051519162641419 3.4550573883482518 #
End-of-ACIS-data 