500 0 4 0           
7 Unknown 11 ACIS 5.0 NT 24 Fri Mar 26 17:10:15 1999 
-1 9.9999999999999995e-007 1e-010 
body $-1 $4 $-1 $5 #
body $-1 $6 $-1 $7 #
body $-1 $8 $-1 $9 #
body $-1 $10 $-1 $11 #
lump $-1 $-1 $12 $0 #
transform $-1 1 0 0 0 1 0 0 0 1 70.627155369731739 30.748796360911346 13.719328990669016 1 rotate no_reflect no_shear #
lump $-1 $-1 $13 $1 #
transform $-1 1 0 0 0 1 0 0 0 1 70.627155369731739 30.748796360911346 13.719328990669016 1 rotate no_reflect no_shear #
lump $-1 $-1 $14 $2 #
transform $-1 1 0 0 0 1 0 0 0 1 70.627155369731739 30.748796360911346 13.719328990669016 1 rotate no_reflect no_shear #
lump $-1 $-1 $15 $3 #
transform $-1 1 0 0 0 1 0 0 0 1 70.627155369731739 30.748796360911346 13.719328990669016 1 rotate no_reflect no_shear #
shell $-1 $-1 $-1 $16 $-1 $4 #
shell $-1 $-1 $-1 $17 $-1 $6 #
shell $-1 $-1 $-1 $18 $-1 $8 #
shell $-1 $-1 $-1 $19 $-1 $10 #
face $-1 $20 $21 $12 $-1 $22 forward single #
face $-1 $23 $24 $13 $-1 $25 forward single #
face $-1 $26 $27 $14 $-1 $28 reversed single #
face $-1 $29 $30 $15 $-1 $31 forward single #
face $-1 $32 $33 $12 $-1 $34 reversed single #
loop $-1 $-1 $35 $16 #
plane-surface $-1 0 0 13.719328990669016 0 0 1 1 0 0 forward_v I I I I #
face $-1 $36 $37 $13 $-1 $38 reversed single #
loop $-1 $-1 $39 $17 #
plane-surface $-1 -70.627155369731739 0 0 1 0 0 0 0 -1 forward_v I I I I #
face $-1 $40 $41 $14 $-1 $42 reversed single #
loop $-1 $-1 $43 $18 #
plane-surface $-1 50.856677167459019 97.008728714587903 139.98917818446003 1 0 0 0 -0.75470958851134928 -0.65605901945558964 forward_v I I I I #
face $-1 $44 $45 $15 $-1 $46 forward single #
loop $-1 $47 $48 $19 #
cone-surface $-1 60.741916268595375 24.146002090694811 6.4141004864105096 0 -0.75470958851134928 -0.65605901945558964 2.5 0 0 1 I I 0 1 2.5 forward I I I I #
face $-1 $49 $50 $12 $-1 $51 reversed single #
loop $-1 $-1 $52 $20 #
plane-surface $-1 0 0 -13.719328990669016 0 0 1 1 0 0 forward_v I I I I #
coedge $-1 $53 $54 $55 $56 forward $21 $-1 #
face $-1 $57 $58 $13 $-1 $59 forward single #
loop $-1 $-1 $60 $23 #
plane-surface $-1 0 30.748796360911346 0 0 -1 0 0 0 -1 forward_v I I I I #
coedge $-1 $61 $62 $63 $64 forward $24 $-1 #
face $-1 $65 $66 $14 $-1 $67 forward single #
loop $-1 $-1 $68 $26 #
plane-surface $-1 60.741916268595375 -9.5972540190468436 47.318013586852459 0 0.75470958851134928 0.65605901945558964 1 0 0 forward_v I I I I #
coedge $-1 $69 $70 $71 $72 reversed $27 $-1 #
face $-1 $-1 $73 $15 $-1 $74 forward single #
loop $-1 $75 $76 $29 #
cone-surface $-1 60.741916268595375 22.169400933674861 4.6958673585034667 0 -0.75470958851134928 -0.65605901945558964 1.25 0 0 1 I I -0.70710678118654746 0.70710678118654746 1.25 forward I I I I #
loop $-1 $-1 $77 $19 #
coedge $-1 $48 $48 $78 $79 reversed $30 $-1 #
face $-1 $80 $81 $12 $-1 $82 reversed single #
loop $-1 $-1 $83 $32 #
plane-surface $-1 0 -30.748796360911346 0 0 1 0 0 0 1 forward_v I I I I #
coedge $-1 $84 $85 $86 $87 forward $33 $-1 #
coedge $-1 $88 $35 $89 $90 forward $21 $-1 #
coedge $-1 $35 $88 $91 $92 forward $21 $-1 #
coedge $-1 $93 $94 $35 $56 reversed $95 $-1 #
edge $-1 $96 -30.748796360911346 $97 30.748796360911346 $55 $98 forward 7 unknown #
face $-1 $99 $100 $13 $-1 $101 reversed single #
loop $-1 $-1 $63 $36 #
plane-surface $-1 -79.215730818194999 0 -5.7849643497577752 0 0 1 1 0 0 forward_v I I I I #
coedge $-1 $102 $103 $62 $104 forward $37 $-1 #
coedge $-1 $105 $39 $106 $107 reversed $24 $-1 #
coedge $-1 $39 $105 $60 $104 reversed $24 $-1 #
coedge $-1 $108 $109 $39 $64 reversed $58 $-1 #
edge $-1 $110 -30.748796360911346 $111 30.748796360911346 $63 $112 forward 7 unknown #
face $-1 $113 $114 $14 $-1 $115 reversed single #
loop $-1 $-1 $71 $40 #
plane-surface $-1 0 0 13.719328990669016 0 0 1 1 0 0 forward_v I I I I #
coedge $-1 $116 $117 $118 $119 reversed $41 $-1 #
coedge $-1 $70 $43 $120 $121 reversed $27 $-1 #
coedge $-1 $43 $69 $116 $122 reversed $27 $-1 #
coedge $-1 $118 $123 $43 $72 forward $66 $-1 #
edge $-1 $124 17.755567996382606 $125 28.894728194054132 $71 $126 forward 7 unknown #
loop $-1 $-1 $78 $44 #
plane-surface $-1 60.741916268595375 -9.5972540190468436 47.318013586852459 0 0.75470958851134928 0.65605901945558964 1 0 0 forward_v I I I I #
loop $-1 $-1 $127 $29 #
coedge $-1 $76 $76 $77 $128 reversed $45 $-1 #
coedge $-1 $77 $77 $76 $128 forward $47 $-1 #
coedge $-1 $78 $78 $48 $79 forward $73 $-1 #
edge $-1 $129 6.7644430616757411e-016 $129 6.2831853071796013 $78 $130 forward 7 unknown #
face $-1 $131 $132 $12 $-1 $133 reversed single #
loop $-1 $-1 $134 $49 #
plane-surface $-1 -70.627155369731739 0 0 1 0 0 0 0 -1 forward_v I I I I #
coedge $-1 $135 $91 $136 $137 forward $50 $-1 #
coedge $-1 $138 $52 $135 $139 forward $33 $-1 #
coedge $-1 $52 $138 $140 $141 forward $33 $-1 #
coedge $-1 $94 $93 $52 $87 reversed $95 $-1 #
edge $-1 $142 -30.748796360911346 $143 30.748796360911346 $86 $144 forward 7 unknown #
coedge $-1 $54 $53 $145 $146 forward $21 $-1 #
coedge $-1 $147 $148 $53 $90 reversed $132 $-1 #
edge $-1 $97 -70.627155369731739 $149 70.627155369731739 $89 $150 forward 7 unknown #
coedge $-1 $83 $151 $54 $92 reversed $50 $-1 #
edge $-1 $152 -70.627155369731739 $96 70.627155369731739 $91 $153 forward 7 unknown #
coedge $-1 $86 $55 $151 $154 forward $95 $-1 #
coedge $-1 $55 $86 $147 $155 reversed $95 $-1 #
loop $-1 $-1 $93 $131 #
vertex $-1 $56 $156 #
vertex $-1 $56 $157 #
straight-curve $-1 70.627155369731739 0 13.719328990669016 0 1 0 I I #
face $-1 $158 $159 $13 $-1 $160 reversed single #
loop $-1 $-1 $161 $57 #
plane-surface $-1 -79.215730818194999 0 -10.085532476066494 0 0 1 1 0 0 forward_v I I I I #
coedge $-1 $162 $60 $163 $164 reversed $37 $-1 #
coedge $-1 $60 $162 $108 $165 reversed $37 $-1 #
edge $-1 $110 5.7849643497577752 $166 10.085532476066494 $60 $167 forward 7 unknown #
coedge $-1 $62 $61 $161 $168 forward $24 $-1 #
coedge $-1 $169 $170 $61 $107 forward $171 $-1 #
edge $-1 $172 -10.085532476066494 $111 -5.7849643497577752 $106 $173 forward 7 unknown #
coedge $-1 $174 $63 $103 $165 forward $58 $-1 #
coedge $-1 $63 $174 $169 $175 forward $58 $-1 #
vertex $-1 $104 $176 #
vertex $-1 $175 $177 #
straight-curve $-1 -70.627155369731739 0 -5.7849643497577752 0 -1 0 I I #
face $-1 $-1 $178 $14 $-1 $179 reversed single #
loop $-1 $-1 $180 $65 #
plane-surface $-1 70.627155369731739 0 0 -1 0 0 0 0 1 forward_v I I I I #
coedge $-1 $181 $68 $70 $122 forward $41 $-1 #
coedge $-1 $68 $181 $180 $182 reversed $41 $-1 #
coedge $-1 $183 $71 $68 $119 forward $66 $-1 #
edge $-1 $125 20.485719033161331 $184 40.256197235434037 $118 $185 forward 7 unknown #
coedge $-1 $186 $187 $69 $121 forward $178 $-1 #
edge $-1 $188 -69.089398402902887 $124 -56.275260101561003 $120 $189 forward 7 unknown #
edge $-1 $125 44.518693160446311 $188 61.497592721822677 $70 $190 forward 7 unknown #
coedge $-1 $71 $183 $186 $191 forward $66 $-1 #
vertex $-1 $121 $192 #
vertex $-1 $72 $193 #
straight-curve $-1 50.856677167459019 48.504364357293952 13.719328990669013 0 -1 0 I I #
coedge $-1 $127 $127 $-1 $194 reversed $75 $-1 #
edge $-1 $195 0 $195 6.2831853071796004 $76 $196 forward 7 unknown #
vertex $-1 $79 $197 #
ellipse-curve $-1 60.741916268595375 25.179216262075581 7.3122598399980703 0 0.75470958851134928 0.65605901945558964 2.5 0 0 1 I I #
face $-1 $-1 $95 $12 $-1 $198 reversed single #
loop $-1 $-1 $147 $80 #
plane-surface $-1 0 30.748796360911346 0 0 -1 0 0 0 -1 forward_v I I I I #
coedge $-1 $199 $145 $148 $200 forward $81 $-1 #
coedge $-1 $151 $83 $84 $139 reversed $50 $-1 #
coedge $-1 $145 $199 $83 $137 reversed $81 $-1 #
edge $-1 $152 -13.719328990669016 $201 13.719328990669016 $136 $202 forward 7 unknown #
coedge $-1 $85 $84 $199 $203 forward $33 $-1 #
edge $-1 $143 -70.627155369731739 $201 70.627155369731739 $135 $204 forward 7 unknown #
coedge $-1 $148 $147 $85 $141 reversed $132 $-1 #
edge $-1 $205 -70.627155369731739 $142 70.627155369731739 $140 $206 forward 7 unknown #
vertex $-1 $87 $207 #
vertex $-1 $154 $208 #
straight-curve $-1 70.627155369731739 0 -13.719328990669016 0 -1 0 I I #
coedge $-1 $134 $136 $88 $146 reversed $81 $-1 #
edge $-1 $149 -30.748796360911346 $152 30.748796360911346 $145 $209 forward 7 unknown #
coedge $-1 $140 $89 $94 $155 forward $132 $-1 #
coedge $-1 $89 $140 $134 $200 reversed $132 $-1 #
vertex $-1 $90 $210 #
straight-curve $-1 0 30.748796360911346 13.719328990669016 -1 0 0 I I #
coedge $-1 $91 $135 $93 $154 reversed $50 $-1 #
vertex $-1 $146 $211 #
straight-curve $-1 0 -30.748796360911346 13.719328990669016 1 0 0 I I #
edge $-1 $96 -13.719328990669016 $143 13.719328990669016 $93 $212 forward 7 unknown #
edge $-1 $97 -13.719328990669016 $142 13.719328990669016 $94 $213 forward 7 unknown #
point $-1 70.627155369731739 -30.748796360911346 13.719328990669016 #
point $-1 70.627155369731739 30.748796360911346 13.719328990669016 #
face $-1 $-1 $171 $13 $-1 $214 reversed single #
loop $-1 $-1 $215 $99 #
plane-surface $-1 -87.804306266658244 0 -7.9352484129121343 1 0 0 0 0 -1 forward_v I I I I #
coedge $-1 $216 $163 $105 $168 reversed $100 $-1 #
coedge $-1 $103 $102 $215 $217 reversed $37 $-1 #
coedge $-1 $161 $218 $102 $164 forward $100 $-1 #
edge $-1 $219 -8.5885754484632457 $166 8.5885754484632457 $102 $220 forward 7 unknown #
edge $-1 $110 -8.5885754484632457 $221 8.5885754484632457 $103 $222 forward 7 unknown #
vertex $-1 $104 $223 #
straight-curve $-1 -70.627155369731739 30.748796360911346 0 0 0 -1 I I #
edge $-1 $172 -30.748796360911346 $166 30.748796360911346 $161 $224 forward 7 unknown #
coedge $-1 $225 $106 $109 $175 reversed $171 $-1 #
coedge $-1 $106 $225 $216 $226 reversed $171 $-1 #
loop $-1 $-1 $106 $158 #
vertex $-1 $107 $227 #
straight-curve $-1 -70.627155369731739 -30.748796360911346 0 0 0 1 I I #
coedge $-1 $109 $108 $228 $229 forward $58 $-1 #
edge $-1 $230 -8.5885754484632457 $111 8.5885754484632457 $169 $231 forward 7 unknown #
point $-1 -70.627155369731753 30.748796360911346 -5.7849643497577752 #
point $-1 -70.627155369731753 -30.748796360911346 -5.7849643497577752 #
loop $-1 $-1 $120 $113 #
plane-surface $-1 0 30.748796360911346 0 0 -1 0 0 0 -1 forward_v I I I I #
coedge $-1 $232 $233 $117 $182 forward $114 $-1 #
coedge $-1 $117 $116 $187 $234 reversed $41 $-1 #
edge $-1 $184 23.514831348191329 $235 40.493730909567702 $180 $236 forward 7 unknown #
coedge $-1 $123 $118 $233 $237 forward $66 $-1 #
vertex $-1 $237 $238 #
straight-curve $-1 30.370958134297688 19.60963616323982 13.719328990669013 1 0 0 I I #
coedge $-1 $239 $120 $123 $191 reversed $178 $-1 #
coedge $-1 $120 $239 $181 $234 forward $178 $-1 #
vertex $-1 $121 $240 #
straight-curve $-1 50.856677167459019 30.748796360911342 69.994589092230015 0 0 1 I I #
straight-curve $-1 50.856677167459019 -9.5972540190468436 47.318013586852459 0 0.65605901945558964 -0.75470958851134928 I I #
edge $-1 $241 -70.627155369731739 $124 -50.856677167459019 $186 $242 forward 7 unknown #
point $-1 50.856677167459019 30.748796360911346 13.719328990669016 #
point $-1 50.856677167459019 19.60963616323982 13.719328990669013 #
edge $-1 $243 1 $243 0 $127 $-1 forward 7 unknown #
vertex $-1 $128 $244 #
ellipse-curve $-1 60.741916268595375 23.112787919314048 5.5159411328229542 0 0.75470958851134928 0.65605901945558964 2.5 0 0 1 I I #
point $-1 63.241916268595375 25.179216262075578 7.3122598399980649 #
plane-surface $-1 70.627155369731739 0 0 -1 0 0 0 0 1 forward_v I I I I #
coedge $-1 $136 $134 $138 $203 reversed $81 $-1 #
edge $-1 $149 -13.719328990669016 $205 13.719328990669016 $148 $245 forward 7 unknown #
vertex $-1 $203 $246 #
straight-curve $-1 -70.627155369731739 -30.748796360911346 0 0 0 -1 I I #
edge $-1 $201 -30.748796360911346 $205 30.748796360911346 $199 $247 forward 7 unknown #
straight-curve $-1 0 -30.748796360911346 -13.719328990669016 -1 0 0 I I #
vertex $-1 $141 $248 #
straight-curve $-1 0 30.748796360911346 -13.719328990669016 1 0 0 I I #
point $-1 70.627155369731739 30.748796360911346 -13.719328990669016 #
point $-1 70.627155369731739 -30.748796360911346 -13.719328990669016 #
straight-curve $-1 -70.627155369731739 0 13.719328990669016 0 -1 0 I I #
point $-1 -70.627155369731739 30.748796360911346 13.719328990669016 #
point $-1 -70.627155369731739 -30.748796360911346 13.719328990669016 #
straight-curve $-1 70.627155369731739 -30.748796360911346 0 0 0 -1 I I #
straight-curve $-1 70.627155369731739 30.748796360911346 0 0 0 -1 I I #
plane-surface $-1 0 -30.748796360911346 0 0 1 0 0 0 1 forward_v I I I I #
coedge $-1 $249 $228 $162 $217 forward $159 $-1 #
coedge $-1 $218 $161 $170 $226 forward $100 $-1 #
edge $-1 $221 -2.1502840631543592 $219 2.1502840631543592 $162 $250 forward 7 unknown #
coedge $-1 $163 $216 $249 $251 forward $100 $-1 #
vertex $-1 $164 $252 #
straight-curve $-1 -79.215730818194999 30.748796360911346 -10.085532476066494 1 0 0 I I #
vertex $-1 $165 $253 #
straight-curve $-1 -79.215730818194999 30.748796360911346 -5.7849643497577752 -1 0 0 I I #
point $-1 -70.627155369731753 30.748796360911346 -10.085532476066494 #
straight-curve $-1 -70.627155369731739 0 -10.085532476066494 0 1 0 I I #
coedge $-1 $170 $169 $254 $255 forward $171 $-1 #
edge $-1 $172 -8.5885754484632457 $256 8.5885754484632457 $170 $257 forward 7 unknown #
point $-1 -70.627155369731753 -30.748796360911346 -10.085532476066494 #
coedge $-1 $215 $254 $174 $229 reversed $159 $-1 #
edge $-1 $221 -30.748796360911346 $230 30.748796360911346 $228 $258 forward 7 unknown #
vertex $-1 $229 $259 #
straight-curve $-1 -79.215730818194999 -30.748796360911346 -5.7849643497577752 1 0 0 I I #
coedge $-1 $233 $180 $239 $260 reversed $114 $-1 #
coedge $-1 $180 $232 $183 $237 reversed $114 $-1 #
edge $-1 $235 -40.256197235434037 $188 -20.485719033161331 $187 $261 forward 7 unknown #
vertex $-1 $182 $262 #
straight-curve $-1 70.627155369731739 4.1825189662818563 31.466197681376265 0 0.65605901945558975 -0.75470958851134939 I I #
edge $-1 $184 19.60963616323982 $241 30.748796360911346 $233 $263 forward 7 unknown #
point $-1 70.627155369731724 19.60963616323982 13.719328990669013 #
coedge $-1 $187 $186 $232 $260 forward $178 $-1 #
point $-1 50.856677167459019 30.748796360911342 0.90519068932712798 #
vertex $-1 $237 $264 #
straight-curve $-1 0 30.748796360911346 13.719328990669016 -1 0 0 I I #
vertex $-1 $194 $265 #
point $-1 63.241916268595375 23.112787919314048 5.5159411328229542 #
straight-curve $-1 -70.627155369731739 30.748796360911346 0 0 0 -1 I I #
point $-1 -70.627155369731739 -30.748796360911346 -13.719328990669016 #
straight-curve $-1 -70.627155369731739 0 -13.719328990669016 0 1 0 I I #
point $-1 -70.627155369731739 30.748796360911346 -13.719328990669016 #
coedge $-1 $254 $215 $218 $251 reversed $159 $-1 #
straight-curve $-1 -87.804306266658244 30.748796360911346 -7.9352484129121343 0 0 -1 I I #
edge $-1 $256 -30.748796360911346 $219 30.748796360911346 $249 $266 forward 7 unknown #
point $-1 -87.804306266658244 30.748796360911346 -10.085532476066494 #
point $-1 -87.804306266658244 30.748796360911346 -5.7849643497577752 #
coedge $-1 $228 $249 $225 $255 reversed $159 $-1 #
edge $-1 $230 -2.1502840631543592 $256 2.1502840631543592 $254 $267 forward 7 unknown #
vertex $-1 $251 $268 #
straight-curve $-1 -79.215730818194999 -30.748796360911346 -10.085532476066494 -1 0 0 I I #
straight-curve $-1 -87.804306266658244 0 -5.7849643497577752 0 -1 0 I I #
point $-1 -87.804306266658244 -30.748796360911346 -5.7849643497577752 #
edge $-1 $241 -13.719328990669016 $235 -0.90519068932712798 $232 $269 forward 7 unknown #
straight-curve $-1 30.370958134297688 30.748796360911342 0.90519068932712443 -1 0 0 I I #
point $-1 70.627155369731724 30.748796360911342 0.90519068932712798 #
straight-curve $-1 70.627155369731739 0 13.719328990669016 0 1 0 I I #
point $-1 70.627155369731739 30.748796360911346 13.719328990669016 #
point $-1 60.741916268595375 21.226013948035675 3.8757935841839797 #
straight-curve $-1 -87.804306266658244 0 -10.085532476066494 0 1 0 I I #
straight-curve $-1 -87.804306266658244 -30.748796360911346 -7.9352484129121343 0 0 -1 I I #
point $-1 -87.804306266658244 -30.748796360911346 -10.085532476066494 #
straight-curve $-1 70.627155369731739 30.748796360911346 0 0 0 -1 I I #
End-of-ACIS-data 