500 0 11 0           
7 Unknown 11 ACIS 5.0 NT 24 Thu Mar 25 23:32:42 1999 
-1 9.9999999999999995e-007 1e-010 
body $-1 $11 $-1 $12 #
body $-1 $13 $-1 $14 #
body $-1 $15 $-1 $16 #
body $-1 $17 $-1 $18 #
body $-1 $19 $-1 $20 #
body $-1 $21 $-1 $22 #
body $-1 $23 $-1 $24 #
body $-1 $25 $-1 $26 #
body $-1 $27 $-1 $28 #
body $-1 $29 $-1 $30 #
body $-1 $31 $-1 $32 #
lump $-1 $-1 $33 $0 #
transform $-1 1 0 0 0 1 0 0 0 1 73.085726493118074 33.27054447041067 15.879534259518618 1 rotate no_reflect no_shear #
lump $-1 $-1 $34 $1 #
transform $-1 1 0 0 0 1 0 0 0 1 73.085726493118074 33.27054447041067 15.879534259518618 1 rotate no_reflect no_shear #
lump $-1 $-1 $35 $2 #
transform $-1 1 0 0 0 1 0 0 0 1 73.085726493118074 33.27054447041067 15.879534259518618 1 rotate no_reflect no_shear #
lump $-1 $-1 $36 $3 #
transform $-1 1 0 0 0 1 0 0 0 1 73.085726493118074 33.27054447041067 15.879534259518618 1 rotate no_reflect no_shear #
lump $-1 $-1 $37 $4 #
transform $-1 1 0 0 0 1 0 0 0 1 73.085726493118074 33.27054447041067 15.879534259518618 1 rotate no_reflect no_shear #
lump $-1 $-1 $38 $5 #
transform $-1 1 0 0 0 1 0 0 0 1 73.085726493118074 33.27054447041067 15.879534259518618 1 rotate no_reflect no_shear #
lump $-1 $-1 $39 $6 #
transform $-1 1 0 0 0 1 0 0 0 1 73.085726493118074 33.27054447041067 15.879534259518618 1 rotate no_reflect no_shear #
lump $-1 $-1 $40 $7 #
transform $-1 1 0 0 0 1 0 0 0 1 73.085726493118074 33.27054447041067 15.879534259518618 1 rotate no_reflect no_shear #
lump $-1 $-1 $41 $8 #
transform $-1 1 0 0 0 1 0 0 0 1 73.085726493118074 33.27054447041067 15.879534259518618 1 rotate no_reflect no_shear #
lump $-1 $-1 $42 $9 #
transform $-1 1 0 0 0 1 0 0 0 1 73.085726493118074 33.27054447041067 15.879534259518618 1 rotate no_reflect no_shear #
lump $-1 $-1 $43 $10 #
transform $-1 1 0 0 0 1 0 0 0 1 73.085726493118074 33.27054447041067 15.879534259518618 1 rotate no_reflect no_shear #
shell $-1 $-1 $-1 $44 $-1 $11 #
shell $-1 $-1 $-1 $45 $-1 $13 #
shell $-1 $-1 $-1 $46 $-1 $15 #
shell $-1 $-1 $-1 $47 $-1 $17 #
shell $-1 $-1 $-1 $48 $-1 $19 #
shell $-1 $-1 $-1 $49 $-1 $21 #
shell $-1 $-1 $-1 $50 $-1 $23 #
shell $-1 $-1 $-1 $51 $-1 $25 #
shell $-1 $-1 $-1 $52 $-1 $27 #
shell $-1 $-1 $-1 $53 $-1 $29 #
shell $-1 $-1 $-1 $54 $-1 $31 #
face $-1 $55 $56 $33 $-1 $57 reversed single #
face $-1 $58 $59 $34 $-1 $60 forward single #
face $-1 $61 $62 $35 $-1 $63 forward single #
face $-1 $64 $65 $36 $-1 $66 reversed single #
face $-1 $67 $68 $37 $-1 $69 forward single #
face $-1 $70 $71 $38 $-1 $72 forward single #
face $-1 $73 $74 $39 $-1 $75 forward single #
face $-1 $76 $77 $40 $-1 $78 reversed single #
face $-1 $79 $80 $41 $-1 $81 forward single #
face $-1 $82 $83 $42 $-1 $84 forward single #
face $-1 $85 $86 $43 $-1 $87 forward single #
face $-1 $88 $89 $33 $-1 $90 reversed single #
loop $-1 $-1 $91 $44 #
plane-surface $-1 73.085726493118074 0 0 -1 0 0 0 0 1 forward_v I I I I #
face $-1 $92 $93 $34 $-1 $94 reversed single #
loop $-1 $-1 $95 $45 #
plane-surface $-1 -73.085726493118074 0 0 1 0 0 0 0 -1 forward_v I I I I #
face $-1 $96 $97 $35 $-1 $98 reversed single #
loop $-1 $-1 $99 $46 #
plane-surface $-1 73.085726493118074 0 0 -1 0 0 0 0 1 forward_v I I I I #
face $-1 $100 $101 $36 $-1 $102 reversed single #
loop $-1 $-1 $103 $47 #
plane-surface $-1 -35.190670713603794 102.47258813533955 152.19445560012508 1 0 0 0 -0.7660444514056185 -0.64278759981090561 forward_v I I I I #
face $-1 $104 $105 $37 $-1 $106 forward single #
loop $-1 $107 $108 $48 #
cone-surface $-1 -32.383846212388931 28.867489953389896 10.910187897560098 0 -0.7660444514056185 -0.64278759981090561 1 0 0 1 I I 0 1 1 forward I I I I #
face $-1 $109 $110 $38 $-1 $111 forward single #
loop $-1 $112 $113 $49 #
cone-surface $-1 -28.173609460566624 28.867489953389896 10.910187897560098 0 -0.7660444514056185 -0.64278759981090561 1 0 0 1 I I 0 1 1 forward I I I I #
face $-1 $114 $115 $39 $-1 $116 forward single #
loop $-1 $117 $118 $50 #
cone-surface $-1 -23.963372708744316 28.867489953389896 10.910187897560098 0 -0.7660444514056185 -0.64278759981090561 1 0 0 1 I I 0 1 1 forward I I I I #
face $-1 $119 $120 $40 $-1 $121 reversed single #
loop $-1 $-1 $122 $51 #
plane-surface $-1 23.495133362065626 102.47258813533955 152.19445560012508 1 0 0 0 -0.7660444514056185 -0.64278759981090561 forward_v I I I I #
face $-1 $123 $124 $41 $-1 $125 forward single #
loop $-1 $126 $127 $52 #
cone-surface $-1 26.301957863280506 28.867489953389896 10.910187897560098 0 -0.7660444514056185 -0.64278759981090561 1 0 0 1 I I 0 1 1 forward I I I I #
face $-1 $128 $129 $42 $-1 $130 forward single #
loop $-1 $131 $132 $53 #
cone-surface $-1 30.5121946151028 28.867489953389896 10.910187897560098 0 -0.7660444514056185 -0.64278759981090561 1 0 0 1 I I 0 1 1 forward I I I I #
face $-1 $133 $134 $43 $-1 $135 forward single #
loop $-1 $136 $137 $54 #
cone-surface $-1 34.722431366925122 28.867489953389896 10.910187897560098 0 -0.7660444514056185 -0.64278759981090561 1 0 0 1 I I 0 1 1 forward I I I I #
face $-1 $138 $139 $33 $-1 $140 forward single #
loop $-1 $-1 $141 $55 #
plane-surface $-1 -73.085726493118074 0 0 1 0 0 0 0 -1 forward_v I I I I #
coedge $-1 $142 $143 $144 $145 reversed $56 $-1 #
face $-1 $146 $147 $34 $-1 $148 reversed single #
loop $-1 $-1 $149 $58 #
plane-surface $-1 0 0 -15.879534259518618 0 0 1 1 0 0 forward_v I I I I #
coedge $-1 $150 $151 $152 $153 forward $59 $-1 #
face $-1 $154 $155 $35 $-1 $156 reversed single #
loop $-1 $-1 $157 $61 #
plane-surface $-1 0 0 -15.879534259518618 0 0 1 1 0 0 forward_v I I I I #
coedge $-1 $158 $159 $160 $161 forward $62 $-1 #
face $-1 $162 $163 $36 $-1 $164 reversed single #
loop $-1 $-1 $165 $64 #
plane-surface $-1 -28.173609460566624 -9.5012423786638749 58.237258174229723 0 0.7660444514056185 0.64278759981090561 1 0 0 forward_v I I I I #
coedge $-1 $166 $167 $168 $169 reversed $65 $-1 #
face $-1 $-1 $170 $37 $-1 $171 forward single #
loop $-1 $172 $173 $67 #
cone-surface $-1 -32.383846212388931 27.696131843302702 9.9273017651425555 0 -0.7660444514056185 -0.64278759981090561 0.5 0 0 1 I I -0.70710678118654746 0.70710678118654746 0.5 forward I I I I #
loop $-1 $-1 $174 $48 #
coedge $-1 $108 $108 $175 $176 reversed $68 $-1 #
face $-1 $-1 $177 $38 $-1 $178 forward single #
loop $-1 $179 $180 $70 #
cone-surface $-1 -28.173609460566624 27.696131843302702 9.9273017651425555 0 -0.7660444514056185 -0.64278759981090561 0.5 0 0 1 I I -0.70710678118654746 0.70710678118654746 0.5 forward I I I I #
loop $-1 $-1 $181 $49 #
coedge $-1 $113 $113 $182 $183 reversed $71 $-1 #
face $-1 $-1 $184 $39 $-1 $185 forward single #
loop $-1 $186 $187 $73 #
cone-surface $-1 -23.963372708744316 27.696131843302702 9.9273017651425555 0 -0.7660444514056185 -0.64278759981090561 0.5 0 0 1 I I -0.70710678118654746 0.70710678118654746 0.5 forward I I I I #
loop $-1 $-1 $188 $50 #
coedge $-1 $118 $118 $189 $190 reversed $74 $-1 #
face $-1 $191 $192 $40 $-1 $193 reversed single #
loop $-1 $-1 $194 $76 #
plane-surface $-1 30.5121946151028 -9.5012423786638749 58.237258174229723 0 0.7660444514056185 0.64278759981090561 1 0 0 forward_v I I I I #
coedge $-1 $195 $196 $197 $198 reversed $77 $-1 #
face $-1 $-1 $199 $41 $-1 $200 forward single #
loop $-1 $201 $202 $79 #
cone-surface $-1 26.301957863280506 27.696131843302702 9.9273017651425555 0 -0.7660444514056185 -0.64278759981090561 0.5 0 0 1 I I -0.70710678118654746 0.70710678118654746 0.5 forward I I I I #
loop $-1 $-1 $203 $52 #
coedge $-1 $127 $127 $204 $205 reversed $80 $-1 #
face $-1 $-1 $206 $42 $-1 $207 forward single #
loop $-1 $208 $209 $82 #
cone-surface $-1 30.5121946151028 27.696131843302702 9.9273017651425555 0 -0.7660444514056185 -0.64278759981090561 0.5 0 0 1 I I -0.70710678118654746 0.70710678118654746 0.5 forward I I I I #
loop $-1 $-1 $210 $53 #
coedge $-1 $132 $132 $211 $212 reversed $83 $-1 #
face $-1 $-1 $213 $43 $-1 $214 forward single #
loop $-1 $215 $216 $85 #
cone-surface $-1 34.722431366925122 27.696131843302702 9.9273017651425555 0 -0.7660444514056185 -0.64278759981090561 0.5 0 0 1 I I -0.70710678118654746 0.70710678118654746 0.5 forward I I I I #
loop $-1 $-1 $217 $54 #
coedge $-1 $137 $137 $218 $219 reversed $86 $-1 #
face $-1 $220 $221 $33 $-1 $222 reversed single #
loop $-1 $-1 $223 $88 #
plane-surface $-1 0 0 15.879534259518618 0 0 1 1 0 0 forward_v I I I I #
coedge $-1 $224 $225 $226 $227 reversed $89 $-1 #
coedge $-1 $228 $91 $229 $230 reversed $56 $-1 #
coedge $-1 $91 $228 $231 $232 forward $56 $-1 #
coedge $-1 $233 $234 $91 $145 forward $221 $-1 #
edge $-1 $235 -33.27054447041067 $236 33.27054447041067 $91 $237 forward 7 unknown #
face $-1 $238 $239 $34 $-1 $240 reversed single #
loop $-1 $-1 $241 $92 #
plane-surface $-1 -80.285687701842392 -9.6473686805109935 0 0 1 0 0 0 1 forward_v I I I I #
coedge $-1 $242 $243 $151 $244 forward $93 $-1 #
coedge $-1 $245 $95 $246 $247 reversed $59 $-1 #
coedge $-1 $95 $245 $149 $244 reversed $59 $-1 #
coedge $-1 $248 $249 $95 $153 reversed $250 $-1 #
edge $-1 $251 -15.879534259518618 $252 15.879534259518618 $152 $253 forward 7 unknown #
face $-1 $254 $255 $35 $-1 $256 reversed single #
loop $-1 $-1 $160 $96 #
plane-surface $-1 80.285687701842392 -9.6473686805109935 0 0 1 0 0 0 1 forward_v I I I I #
coedge $-1 $257 $258 $159 $259 forward $97 $-1 #
coedge $-1 $260 $99 $261 $262 reversed $62 $-1 #
coedge $-1 $99 $260 $157 $259 reversed $62 $-1 #
coedge $-1 $263 $264 $99 $161 reversed $155 $-1 #
edge $-1 $265 -15.879534259518618 $266 15.879534259518618 $160 $267 forward 7 unknown #
face $-1 $268 $269 $36 $-1 $270 reversed single #
loop $-1 $-1 $271 $100 #
plane-surface $-1 -21.15654820752945 102.47258813533955 152.19445560012508 -1 0 0 0 0.7660444514056185 0.64278759981090561 forward_v I I I I #
coedge $-1 $272 $273 $274 $275 reversed $101 $-1 #
coedge $-1 $167 $103 $276 $277 reversed $65 $-1 #
coedge $-1 $103 $166 $272 $278 reversed $65 $-1 #
coedge $-1 $274 $279 $103 $169 forward $280 $-1 #
edge $-1 $281 17.965749597259105 $282 25.19518686253187 $168 $283 forward 7 unknown #
loop $-1 $-1 $175 $104 #
plane-surface $-1 -28.173609460566624 -9.5012423786638749 58.237258174229723 0 0.7660444514056185 0.64278759981090561 1 0 0 forward_v I I I I #
loop $-1 $-1 $284 $67 #
coedge $-1 $173 $173 $174 $285 reversed $105 $-1 #
coedge $-1 $174 $174 $173 $285 forward $107 $-1 #
coedge $-1 $175 $175 $108 $176 forward $170 $-1 #
edge $-1 $286 8.7579260533283984e-016 $286 6.2831853071796013 $175 $287 forward 7 unknown #
loop $-1 $-1 $182 $109 #
plane-surface $-1 -28.173609460566624 -9.5012423786638749 58.237258174229723 0 0.7660444514056185 0.64278759981090561 1 0 0 forward_v I I I I #
loop $-1 $-1 $288 $70 #
coedge $-1 $180 $180 $181 $289 reversed $110 $-1 #
coedge $-1 $181 $181 $180 $289 forward $112 $-1 #
coedge $-1 $182 $182 $113 $183 forward $177 $-1 #
edge $-1 $290 8.7579260533283984e-016 $290 6.2831853071796013 $182 $291 forward 7 unknown #
loop $-1 $-1 $189 $114 #
plane-surface $-1 -28.173609460566624 -9.5012423786638749 58.237258174229723 0 0.7660444514056185 0.64278759981090561 1 0 0 forward_v I I I I #
loop $-1 $-1 $292 $73 #
coedge $-1 $187 $187 $188 $293 reversed $115 $-1 #
coedge $-1 $188 $188 $187 $293 forward $117 $-1 #
coedge $-1 $189 $189 $118 $190 forward $184 $-1 #
edge $-1 $294 8.7579260533283984e-016 $294 6.2831853071796013 $189 $295 forward 7 unknown #
face $-1 $296 $297 $40 $-1 $298 forward single #
loop $-1 $-1 $299 $119 #
plane-surface $-1 37.52925586813997 102.47258813533955 152.19445560012508 -1 0 0 0 0.7660444514056185 0.64278759981090561 forward_v I I I I #
coedge $-1 $300 $301 $302 $303 reversed $120 $-1 #
coedge $-1 $196 $122 $304 $305 reversed $77 $-1 #
coedge $-1 $122 $195 $300 $306 reversed $77 $-1 #
coedge $-1 $302 $307 $122 $198 forward $297 $-1 #
edge $-1 $308 17.965749597259105 $309 25.19518686253187 $197 $310 forward 7 unknown #
loop $-1 $-1 $204 $123 #
plane-surface $-1 30.5121946151028 -9.5012423786638749 58.237258174229723 0 0.7660444514056185 0.64278759981090561 1 0 0 forward_v I I I I #
loop $-1 $-1 $311 $79 #
coedge $-1 $202 $202 $203 $312 reversed $124 $-1 #
coedge $-1 $203 $203 $202 $312 forward $126 $-1 #
coedge $-1 $204 $204 $127 $205 forward $199 $-1 #
edge $-1 $313 8.7579260533283984e-016 $313 6.2831853071796013 $204 $314 forward 7 unknown #
loop $-1 $-1 $211 $128 #
plane-surface $-1 30.5121946151028 -9.5012423786638749 58.237258174229723 0 0.7660444514056185 0.64278759981090561 1 0 0 forward_v I I I I #
loop $-1 $-1 $315 $82 #
coedge $-1 $209 $209 $210 $316 reversed $129 $-1 #
coedge $-1 $210 $210 $209 $316 forward $131 $-1 #
coedge $-1 $211 $211 $132 $212 forward $206 $-1 #
edge $-1 $317 8.7579260533283984e-016 $317 6.2831853071796013 $211 $318 forward 7 unknown #
loop $-1 $-1 $218 $133 #
plane-surface $-1 30.5121946151028 -9.5012423786638749 58.237258174229723 0 0.7660444514056185 0.64278759981090561 1 0 0 forward_v I I I I #
loop $-1 $-1 $319 $85 #
coedge $-1 $216 $216 $217 $320 reversed $134 $-1 #
coedge $-1 $217 $217 $216 $320 forward $136 $-1 #
coedge $-1 $218 $218 $137 $219 forward $213 $-1 #
edge $-1 $321 8.7579260533283984e-016 $321 6.2831853071796013 $218 $322 forward 7 unknown #
face $-1 $323 $324 $33 $-1 $325 reversed single #
loop $-1 $-1 $144 $138 #
plane-surface $-1 0 0 -15.879534259518618 0 0 1 1 0 0 forward_v I I I I #
coedge $-1 $326 $327 $228 $328 forward $139 $-1 #
coedge $-1 $329 $141 $330 $331 reversed $89 $-1 #
coedge $-1 $141 $329 $332 $333 forward $89 $-1 #
coedge $-1 $234 $233 $141 $227 forward $221 $-1 #
edge $-1 $334 -33.27054447041067 $335 33.27054447041067 $141 $336 forward 7 unknown #
coedge $-1 $143 $142 $223 $328 reversed $56 $-1 #
coedge $-1 $337 $338 $142 $230 forward $339 $-1 #
edge $-1 $340 -15.879534259518618 $235 15.879534259518618 $142 $341 forward 7 unknown #
coedge $-1 $342 $343 $143 $232 reversed $324 $-1 #
edge $-1 $344 -15.879534259518618 $236 15.879534259518618 $143 $345 forward 7 unknown #
coedge $-1 $226 $144 $343 $346 forward $221 $-1 #
coedge $-1 $144 $226 $337 $347 forward $221 $-1 #
vertex $-1 $145 $348 #
vertex $-1 $232 $349 #
straight-curve $-1 73.085726493118074 0 -15.879534259518618 0 -1 0 I I #
face $-1 $350 $250 $34 $-1 $351 reversed single #
loop $-1 $-1 $352 $146 #
plane-surface $-1 -87.485648910566709 -5.5794223159422138 0 1 0 0 0 0 -1 forward_v I I I I #
coedge $-1 $353 $354 $355 $356 forward $147 $-1 #
coedge $-1 $357 $149 $353 $358 forward $93 $-1 #
coedge $-1 $149 $357 $248 $359 forward $93 $-1 #
edge $-1 $251 1.5114759513734342 $360 9.6473686805109935 $149 $361 forward 7 unknown #
coedge $-1 $151 $150 $362 $363 forward $59 $-1 #
coedge $-1 $364 $365 $150 $247 forward $366 $-1 #
edge $-1 $367 -9.6473686805109935 $252 -1.5114759513734342 $246 $368 forward 7 unknown #
coedge $-1 $369 $152 $243 $359 reversed $250 $-1 #
coedge $-1 $152 $369 $364 $370 reversed $250 $-1 #
loop $-1 $-1 $152 $238 #
vertex $-1 $244 $371 #
vertex $-1 $370 $372 #
straight-curve $-1 -73.085726493118074 -1.5114759513734342 0 0 0 1 I I #
face $-1 $373 $374 $35 $-1 $375 reversed single #
loop $-1 $-1 $376 $154 #
plane-surface $-1 80.285687701842392 -1.5114759513734342 0 0 -1 0 0 0 -1 forward_v I I I I #
coedge $-1 $377 $157 $378 $379 forward $97 $-1 #
coedge $-1 $157 $377 $263 $380 forward $97 $-1 #
edge $-1 $265 -9.6473686805109935 $381 -1.5114759513734342 $157 $382 forward 7 unknown #
coedge $-1 $159 $158 $383 $384 forward $62 $-1 #
coedge $-1 $385 $386 $158 $262 forward $387 $-1 #
edge $-1 $388 1.5114759513734342 $266 9.6473686805109935 $261 $389 forward 7 unknown #
coedge $-1 $390 $160 $258 $380 reversed $155 $-1 #
coedge $-1 $160 $390 $385 $391 reversed $155 $-1 #
vertex $-1 $259 $392 #
vertex $-1 $391 $393 #
straight-curve $-1 73.085726493118074 -9.6473686805109935 0 0 0 1 I I #
face $-1 $-1 $280 $36 $-1 $394 forward single #
loop $-1 $-1 $395 $162 #
plane-surface $-1 0 33.27054447041067 0 0 -1 0 0 0 -1 forward_v I I I I #
coedge $-1 $396 $397 $398 $399 reversed $163 $-1 #
coedge $-1 $400 $165 $167 $278 forward $101 $-1 #
coedge $-1 $165 $400 $396 $401 forward $101 $-1 #
coedge $-1 $398 $168 $165 $275 forward $280 $-1 #
edge $-1 $282 -21.103865983320482 $402 -7.0697434772461385 $274 $403 forward 7 unknown #
coedge $-1 $404 $405 $166 $277 forward $269 $-1 #
edge $-1 $406 -68.833401599436769 $281 -60.21769354054392 $276 $407 forward 7 unknown #
edge $-1 $282 55.294080959647616 $406 66.541088940821368 $167 $408 forward 7 unknown #
coedge $-1 $168 $398 $404 $409 forward $280 $-1 #
loop $-1 $-1 $398 $268 #
vertex $-1 $277 $410 #
vertex $-1 $169 $411 #
straight-curve $-1 -35.190670713603794 51.236294067669775 15.879534259518621 0 -1 0 I I #
coedge $-1 $284 $284 $-1 $412 reversed $172 $-1 #
edge $-1 $413 0 $413 6.2831853071796004 $173 $414 forward 7 unknown #
vertex $-1 $176 $415 #
ellipse-curve $-1 -32.383846212388931 29.655825837774287 11.571680230072193 0 0.7660444514056185 0.64278759981090561 1 0 0 1 I I #
coedge $-1 $288 $288 $-1 $416 reversed $179 $-1 #
edge $-1 $417 0 $417 6.2831853071796004 $180 $418 forward 7 unknown #
vertex $-1 $183 $419 #
ellipse-curve $-1 -28.173609460566624 29.655825837774287 11.571680230072193 0 0.7660444514056185 0.64278759981090561 1 0 0 1 I I #
coedge $-1 $292 $292 $-1 $420 reversed $186 $-1 #
edge $-1 $421 0 $421 6.2831853071796004 $187 $422 forward 7 unknown #
vertex $-1 $190 $423 #
ellipse-curve $-1 -23.963372708744316 29.655825837774287 11.571680230072193 0 0.7660444514056185 0.64278759981090561 1 0 0 1 I I #
face $-1 $-1 $424 $40 $-1 $425 reversed single #
loop $-1 $-1 $197 $191 #
plane-surface $-1 0 0 15.879534259518618 0 0 1 1 0 0 forward_v I I I I #
coedge $-1 $426 $427 $428 $429 reversed $192 $-1 #
coedge $-1 $430 $194 $196 $306 forward $120 $-1 #
coedge $-1 $194 $430 $426 $431 forward $120 $-1 #
coedge $-1 $428 $197 $194 $303 forward $297 $-1 #
edge $-1 $309 8.2390360545142265 $432 22.27315856058857 $302 $433 forward 7 unknown #
coedge $-1 $434 $435 $195 $305 forward $424 $-1 #
edge $-1 $436 -68.833401599436769 $308 -60.21769354054392 $304 $437 forward 7 unknown #
edge $-1 $309 55.294080959647616 $436 66.541088940821368 $196 $438 forward 7 unknown #
coedge $-1 $197 $428 $434 $439 forward $297 $-1 #
vertex $-1 $305 $440 #
vertex $-1 $198 $441 #
straight-curve $-1 23.495133362065626 51.236294067669775 15.879534259518621 0 -1 0 I I #
coedge $-1 $311 $311 $-1 $442 reversed $201 $-1 #
edge $-1 $443 0 $443 6.2831853071796004 $202 $444 forward 7 unknown #
vertex $-1 $205 $445 #
ellipse-curve $-1 26.301957863280506 29.655825837774287 11.571680230072193 0 0.7660444514056185 0.64278759981090561 1 0 0 1 I I #
coedge $-1 $315 $315 $-1 $446 reversed $208 $-1 #
edge $-1 $447 0 $447 6.2831853071796004 $209 $448 forward 7 unknown #
vertex $-1 $212 $449 #
ellipse-curve $-1 30.5121946151028 29.655825837774287 11.571680230072193 0 0.7660444514056185 0.64278759981090561 1 0 0 1 I I #
coedge $-1 $319 $319 $-1 $450 reversed $215 $-1 #
edge $-1 $451 0 $451 6.2831853071796004 $216 $452 forward 7 unknown #
vertex $-1 $219 $453 #
ellipse-curve $-1 34.722431366925122 29.655825837774287 11.571680230072193 0 0.7660444514056185 0.64278759981090561 1 0 0 1 I I #
face $-1 $-1 $339 $33 $-1 $454 reversed single #
loop $-1 $-1 $330 $220 #
plane-surface $-1 0 -33.27054447041067 0 0 1 0 0 0 1 forward_v I I I I #
coedge $-1 $455 $223 $338 $456 forward $139 $-1 #
coedge $-1 $223 $455 $342 $457 forward $139 $-1 #
edge $-1 $344 -33.27054447041067 $340 33.27054447041067 $228 $458 forward 7 unknown #
coedge $-1 $225 $224 $455 $459 reversed $89 $-1 #
coedge $-1 $343 $342 $224 $331 forward $324 $-1 #
edge $-1 $460 -15.879534259518618 $334 15.879534259518618 $224 $461 forward 7 unknown #
coedge $-1 $338 $337 $225 $333 reversed $339 $-1 #
edge $-1 $462 -15.879534259518618 $335 15.879534259518618 $332 $463 forward 7 unknown #
vertex $-1 $227 $464 #
vertex $-1 $347 $465 #
straight-curve $-1 -73.085726493118074 0 -15.879534259518618 0 1 0 I I #
coedge $-1 $332 $229 $234 $347 reversed $339 $-1 #
coedge $-1 $229 $332 $326 $456 reversed $339 $-1 #
loop $-1 $-1 $229 $323 #
vertex $-1 $328 $466 #
straight-curve $-1 73.085726493118074 33.27054447041067 0 0 0 -1 I I #
coedge $-1 $330 $231 $327 $457 reversed $324 $-1 #
coedge $-1 $231 $330 $233 $346 reversed $324 $-1 #
vertex $-1 $328 $467 #
straight-curve $-1 73.085726493118074 -33.27054447041067 0 0 0 -1 I I #
edge $-1 $236 -73.085726493118074 $334 73.085726493118074 $343 $468 forward 7 unknown #
edge $-1 $335 -73.085726493118074 $235 73.085726493118074 $337 $469 forward 7 unknown #
point $-1 73.085726493118074 33.27054447041067 -15.879534259518618 #
point $-1 73.085726493118074 -33.27054447041067 -15.879534259518618 #
face $-1 $-1 $366 $34 $-1 $470 forward single #
plane-surface $-1 -80.285687701842392 -1.5114759513734342 0 0 -1 0 0 0 -1 forward_v I I I I #
coedge $-1 $471 $472 $369 $473 forward $239 $-1 #
coedge $-1 $362 $241 $242 $358 reversed $147 $-1 #
coedge $-1 $241 $362 $365 $474 reversed $147 $-1 #
coedge $-1 $472 $471 $241 $356 reversed $239 $-1 #
edge $-1 $475 -15.879534259518618 $476 15.879534259518618 $355 $477 forward 7 unknown #
coedge $-1 $243 $242 $471 $478 forward $93 $-1 #
edge $-1 $360 -7.1999612087243179 $476 7.1999612087243179 $353 $479 forward 7 unknown #
edge $-1 $480 -7.1999612087243179 $251 7.1999612087243179 $248 $481 forward 7 unknown #
vertex $-1 $358 $482 #
straight-curve $-1 -73.085726493118074 0 -15.879534259518618 0 -1 0 I I #
coedge $-1 $354 $353 $245 $363 reversed $147 $-1 #
edge $-1 $367 -15.879534259518618 $360 15.879534259518618 $362 $483 forward 7 unknown #
coedge $-1 $484 $246 $249 $370 forward $366 $-1 #
coedge $-1 $246 $484 $354 $474 forward $366 $-1 #
loop $-1 $-1 $246 $350 #
vertex $-1 $247 $485 #
straight-curve $-1 -73.085726493118074 0 15.879534259518618 0 1 0 I I #
coedge $-1 $249 $248 $352 $473 reversed $250 $-1 #
edge $-1 $252 -7.1999612087243179 $486 7.1999612087243179 $249 $487 forward 7 unknown #
point $-1 -73.085726493118074 -1.5114759513734342 -15.879534259518618 #
point $-1 -73.085726493118074 -1.5114759513734342 15.879534259518618 #
face $-1 $-1 $387 $35 $-1 $488 forward single #
loop $-1 $-1 $489 $254 #
plane-surface $-1 87.485648910566709 -5.5794223159422138 0 -1 0 0 0 0 1 forward_v I I I I #
coedge $-1 $378 $490 $491 $492 forward $255 $-1 #
coedge $-1 $258 $257 $493 $494 forward $97 $-1 #
coedge $-1 $383 $376 $257 $379 reversed $255 $-1 #
edge $-1 $381 -7.1999612087243179 $495 7.1999612087243179 $378 $496 forward 7 unknown #
edge $-1 $497 -7.1999612087243179 $265 7.1999612087243179 $263 $498 forward 7 unknown #
vertex $-1 $379 $499 #
straight-curve $-1 73.085726493118074 0 -15.879534259518618 0 1 0 I I #
coedge $-1 $490 $378 $260 $384 reversed $255 $-1 #
edge $-1 $388 -15.879534259518618 $381 15.879534259518618 $383 $500 forward 7 unknown #
coedge $-1 $501 $261 $264 $391 forward $387 $-1 #
coedge $-1 $261 $501 $490 $502 forward $387 $-1 #
loop $-1 $-1 $261 $373 #
vertex $-1 $262 $503 #
straight-curve $-1 73.085726493118074 0 15.879534259518618 0 -1 0 I I #
coedge $-1 $264 $263 $489 $504 reversed $155 $-1 #
edge $-1 $266 -7.1999612087243179 $505 7.1999612087243179 $264 $506 forward 7 unknown #
point $-1 73.085726493118074 -9.6473686805109935 -15.879534259518618 #
point $-1 73.085726493118074 -9.6473686805109935 15.879534259518618 #
plane-surface $-1 0 0 15.879534259518618 0 0 1 1 0 0 forward_v I I I I #
coedge $-1 $405 $404 $397 $507 forward $269 $-1 #
coedge $-1 $397 $271 $273 $401 reversed $163 $-1 #
coedge $-1 $271 $396 $395 $507 reversed $163 $-1 #
coedge $-1 $279 $274 $271 $399 forward $280 $-1 #
edge $-1 $402 -25.19518686253187 $508 -17.965749597259105 $398 $509 forward 7 unknown #
coedge $-1 $273 $272 $405 $510 reversed $101 $-1 #
edge $-1 $511 -66.541088940821368 $402 -55.294080959647616 $396 $512 forward 7 unknown #
vertex $-1 $275 $513 #
straight-curve $-1 -14.086804730283312 26.041107205137905 15.879534259518618 1 0 0 I I #
coedge $-1 $395 $276 $279 $409 reversed $269 $-1 #
coedge $-1 $276 $395 $400 $510 forward $269 $-1 #
vertex $-1 $277 $514 #
straight-curve $-1 -35.190670713603794 33.27054447041067 76.097227800062541 0 0 1 I I #
straight-curve $-1 -35.190670713603794 -9.5012423786638749 58.237258174229723 0 0.64278759981090561 -0.7660444514056185 I I #
edge $-1 $508 21.15654820752945 $281 35.190670713603794 $404 $515 forward 7 unknown #
point $-1 -35.190670713603794 33.27054447041067 15.879534259518618 #
point $-1 -35.190670713603794 26.041107205137905 15.879534259518621 #
edge $-1 $516 1 $516 0 $284 $-1 forward 7 unknown #
vertex $-1 $285 $517 #
ellipse-curve $-1 -32.383846212388931 28.079154069005511 10.248695565048008 0 0.7660444514056185 0.64278759981090561 1 0 0 1 I I #
point $-1 -31.383846212388931 29.65582583777428 11.571680230072186 #
edge $-1 $518 1 $518 0 $288 $-1 forward 7 unknown #
vertex $-1 $289 $519 #
ellipse-curve $-1 -28.173609460566624 28.079154069005511 10.248695565048008 0 0.7660444514056185 0.64278759981090561 1 0 0 1 I I #
point $-1 -27.173609460566624 29.65582583777428 11.571680230072186 #
edge $-1 $520 1 $520 0 $292 $-1 forward 7 unknown #
vertex $-1 $293 $521 #
ellipse-curve $-1 -23.963372708744316 28.079154069005511 10.248695565048008 0 0.7660444514056185 0.64278759981090561 1 0 0 1 I I #
point $-1 -22.963372708744316 29.65582583777428 11.571680230072186 #
loop $-1 $-1 $304 $296 #
plane-surface $-1 0 33.27054447041067 0 0 -1 0 0 0 -1 forward_v I I I I #
coedge $-1 $427 $299 $301 $431 reversed $192 $-1 #
coedge $-1 $299 $426 $522 $523 reversed $192 $-1 #
coedge $-1 $307 $302 $299 $429 forward $297 $-1 #
edge $-1 $432 -25.19518686253187 $524 -17.965749597259105 $428 $525 forward 7 unknown #
coedge $-1 $301 $300 $435 $526 reversed $120 $-1 #
edge $-1 $527 -66.541088940821368 $432 -55.294080959647616 $426 $528 forward 7 unknown #
vertex $-1 $303 $529 #
straight-curve $-1 15.2560973075514 26.041107205137905 15.879534259518618 1 0 0 I I #
coedge $-1 $522 $304 $307 $439 reversed $424 $-1 #
coedge $-1 $304 $522 $430 $526 forward $424 $-1 #
vertex $-1 $305 $530 #
straight-curve $-1 23.495133362065626 33.27054447041067 76.097227800062541 0 0 1 I I #
straight-curve $-1 23.495133362065626 -9.5012423786638749 58.237258174229723 0 0.64278759981090561 -0.7660444514056185 I I #
edge $-1 $524 -37.52925586813997 $308 -23.495133362065626 $434 $531 forward 7 unknown #
point $-1 23.495133362065626 33.27054447041067 15.879534259518618 #
point $-1 23.495133362065626 26.041107205137905 15.879534259518621 #
edge $-1 $532 1 $532 0 $311 $-1 forward 7 unknown #
vertex $-1 $312 $533 #
ellipse-curve $-1 26.301957863280506 28.079154069005511 10.248695565048008 0 0.7660444514056185 0.64278759981090561 1 0 0 1 I I #
point $-1 27.301957863280506 29.65582583777428 11.571680230072186 #
edge $-1 $534 1 $534 0 $315 $-1 forward 7 unknown #
vertex $-1 $316 $535 #
ellipse-curve $-1 30.5121946151028 28.079154069005511 10.248695565048008 0 0.7660444514056185 0.64278759981090561 1 0 0 1 I I #
point $-1 31.5121946151028 29.65582583777428 11.571680230072186 #
edge $-1 $536 1 $536 0 $319 $-1 forward 7 unknown #
vertex $-1 $320 $537 #
ellipse-curve $-1 34.722431366925122 28.079154069005511 10.248695565048008 0 0.7660444514056185 0.64278759981090561 1 0 0 1 I I #
point $-1 35.722431366925122 29.65582583777428 11.571680230072186 #
plane-surface $-1 0 33.27054447041067 0 0 -1 0 0 0 -1 forward_v I I I I #
coedge $-1 $327 $326 $329 $459 forward $139 $-1 #
edge $-1 $340 -73.085726493118074 $462 73.085726493118074 $338 $538 forward 7 unknown #
edge $-1 $460 -73.085726493118074 $344 73.085726493118074 $342 $539 forward 7 unknown #
straight-curve $-1 73.085726493118074 0 15.879534259518618 0 1 0 I I #
edge $-1 $462 -33.27054447041067 $460 33.27054447041067 $329 $540 forward 7 unknown #
vertex $-1 $459 $541 #
straight-curve $-1 -73.085726493118074 -33.27054447041067 0 0 0 -1 I I #
vertex $-1 $456 $542 #
straight-curve $-1 -73.085726493118074 33.27054447041067 0 0 0 -1 I I #
point $-1 -73.085726493118074 -33.27054447041067 -15.879534259518618 #
point $-1 -73.085726493118074 33.27054447041067 -15.879534259518618 #
point $-1 73.085726493118074 33.27054447041067 15.879534259518618 #
point $-1 73.085726493118074 -33.27054447041067 15.879534259518618 #
straight-curve $-1 0 -33.27054447041067 -15.879534259518618 -1 0 0 I I #
straight-curve $-1 0 33.27054447041067 -15.879534259518618 1 0 0 I I #
plane-surface $-1 0 0 15.879534259518618 0 0 1 1 0 0 forward_v I I I I #
coedge $-1 $355 $352 $357 $478 reversed $239 $-1 #
coedge $-1 $352 $355 $484 $543 reversed $239 $-1 #
edge $-1 $486 -15.879534259518618 $480 15.879534259518618 $369 $544 forward 7 unknown #
edge $-1 $475 -7.1999612087243179 $367 7.1999612087243179 $354 $545 forward 7 unknown #
vertex $-1 $543 $546 #
vertex $-1 $478 $547 #
straight-curve $-1 -87.485648910566709 -9.6473686805109935 0 0 0 -1 I I #
edge $-1 $476 -4.0679463645687797 $480 4.0679463645687797 $471 $548 forward 7 unknown #
straight-curve $-1 -80.285687701842392 -9.6473686805109935 -15.879534259518618 -1 0 0 I I #
vertex $-1 $359 $549 #
straight-curve $-1 -80.285687701842392 -1.5114759513734342 -15.879534259518618 1 0 0 I I #
point $-1 -73.085726493118074 -9.6473686805109935 -15.879534259518618 #
straight-curve $-1 -73.085726493118074 -9.6473686805109935 0 0 0 -1 I I #
coedge $-1 $365 $364 $472 $543 forward $366 $-1 #
point $-1 -73.085726493118074 -9.6473686805109935 15.879534259518618 #
vertex $-1 $370 $550 #
straight-curve $-1 -80.285687701842392 -1.5114759513734342 15.879534259518618 -1 0 0 I I #
plane-surface $-1 0 0 15.879534259518618 0 0 1 1 0 0 forward_v I I I I #
coedge $-1 $493 $551 $390 $504 forward $374 $-1 #
coedge $-1 $376 $383 $386 $502 reversed $255 $-1 #
coedge $-1 $551 $493 $376 $492 reversed $374 $-1 #
edge $-1 $552 -15.879534259518618 $495 15.879534259518618 $491 $553 forward 7 unknown #
coedge $-1 $491 $489 $377 $494 reversed $374 $-1 #
edge $-1 $495 -4.0679463645687797 $497 4.0679463645687797 $493 $554 forward 7 unknown #
vertex $-1 $494 $555 #
straight-curve $-1 80.285687701842392 -1.5114759513734342 -15.879534259518618 1 0 0 I I #
vertex $-1 $504 $556 #
straight-curve $-1 80.285687701842392 -9.6473686805109935 -15.879534259518618 -1 0 0 I I #
point $-1 73.085726493118074 -1.5114759513734342 -15.879534259518618 #
straight-curve $-1 73.085726493118074 -1.5114759513734342 0 0 0 -1 I I #
coedge $-1 $386 $385 $551 $557 forward $387 $-1 #
edge $-1 $552 -7.1999612087243179 $388 7.1999612087243179 $490 $558 forward 7 unknown #
point $-1 73.085726493118074 -1.5114759513734342 15.879534259518618 #
edge $-1 $505 -15.879534259518618 $497 15.879534259518618 $489 $559 forward 7 unknown #
vertex $-1 $557 $560 #
straight-curve $-1 80.285687701842392 -9.6473686805109935 15.879534259518618 1 0 0 I I #
edge $-1 $508 60.21769354054392 $511 68.833401599436769 $395 $561 forward 7 unknown #
vertex $-1 $409 $562 #
straight-curve $-1 -21.15654820752945 51.236294067669775 15.879534259518621 0 1 0 I I #
edge $-1 $511 7.0697434772461385 $406 21.103865983320482 $405 $563 forward 7 unknown #
vertex $-1 $510 $564 #
straight-curve $-1 -21.15654820752945 -9.5012423786638749 58.237258174229723 0 -0.64278759981090561 0.7660444514056185 I I #
point $-1 -21.15654820752945 26.041107205137905 15.879534259518621 #
point $-1 -35.190670713603794 33.27054447041067 7.2638262006257719 #
straight-curve $-1 0 33.27054447041067 15.879534259518618 -1 0 0 I I #
vertex $-1 $412 $565 #
point $-1 -31.383846212388931 28.079154069005511 10.248695565048008 #
vertex $-1 $416 $566 #
point $-1 -27.173609460566624 28.079154069005511 10.248695565048008 #
vertex $-1 $420 $567 #
point $-1 -22.963372708744316 28.079154069005511 10.248695565048008 #
coedge $-1 $435 $434 $427 $523 forward $424 $-1 #
edge $-1 $524 60.21769354054392 $527 68.833401599436769 $522 $568 forward 7 unknown #
vertex $-1 $439 $569 #
straight-curve $-1 37.52925586813997 51.236294067669775 15.879534259518621 0 1 0 I I #
edge $-1 $527 -22.27315856058857 $436 -8.2390360545142265 $435 $570 forward 7 unknown #
vertex $-1 $526 $571 #
straight-curve $-1 37.52925586813997 -9.5012423786638749 58.237258174229723 0 -0.64278759981090561 0.7660444514056185 I I #
point $-1 37.52925586813997 26.041107205137905 15.879534259518621 #
point $-1 23.495133362065626 33.27054447041067 7.2638262006257719 #
straight-curve $-1 0 33.27054447041067 15.879534259518618 -1 0 0 I I #
vertex $-1 $442 $572 #
point $-1 27.301957863280506 28.079154069005511 10.248695565048008 #
vertex $-1 $446 $573 #
point $-1 31.5121946151028 28.079154069005511 10.248695565048008 #
vertex $-1 $450 $574 #
point $-1 35.722431366925122 28.079154069005511 10.248695565048008 #
straight-curve $-1 0 33.27054447041067 15.879534259518618 -1 0 0 I I #
straight-curve $-1 0 -33.27054447041067 15.879534259518618 1 0 0 I I #
straight-curve $-1 -73.085726493118074 0 15.879534259518618 0 -1 0 I I #
point $-1 -73.085726493118074 -33.27054447041067 15.879534259518618 #
point $-1 -73.085726493118074 33.27054447041067 15.879534259518618 #
edge $-1 $486 -4.0679463645687797 $475 4.0679463645687797 $472 $575 forward 7 unknown #
straight-curve $-1 -87.485648910566709 -1.5114759513734342 0 0 0 -1 I I #
straight-curve $-1 -80.285687701842392 -9.6473686805109935 15.879534259518618 1 0 0 I I #
point $-1 -87.485648910566709 -9.6473686805109935 15.879534259518618 #
point $-1 -87.485648910566709 -9.6473686805109935 -15.879534259518618 #
straight-curve $-1 -87.485648910566709 -5.5794223159422138 -15.879534259518618 0 1 0 I I #
point $-1 -87.485648910566709 -1.5114759513734342 -15.879534259518618 #
point $-1 -87.485648910566709 -1.5114759513734342 15.879534259518618 #
coedge $-1 $489 $491 $501 $557 reversed $374 $-1 #
vertex $-1 $557 $576 #
straight-curve $-1 87.485648910566709 -1.5114759513734342 0 0 0 -1 I I #
straight-curve $-1 87.485648910566709 -5.5794223159422138 -15.879534259518618 0 -1 0 I I #
point $-1 87.485648910566709 -1.5114759513734342 -15.879534259518618 #
point $-1 87.485648910566709 -9.6473686805109935 -15.879534259518618 #
edge $-1 $505 -4.0679463645687797 $552 4.0679463645687797 $551 $577 forward 7 unknown #
straight-curve $-1 80.285687701842392 -1.5114759513734342 15.879534259518618 -1 0 0 I I #
straight-curve $-1 87.485648910566709 -9.6473686805109935 0 0 0 -1 I I #
point $-1 87.485648910566709 -9.6473686805109935 15.879534259518618 #
straight-curve $-1 -21.15654820752945 33.27054447041067 76.097227800062541 0 0 -1 I I #
point $-1 -21.15654820752945 33.27054447041067 15.879534259518618 #
straight-curve $-1 -14.086804730283312 33.27054447041067 7.2638262006257719 -1 0 0 I I #
point $-1 -21.15654820752945 33.27054447041067 7.2638262006257719 #
point $-1 -32.383846212388931 27.313109617599892 9.6059079652371029 #
point $-1 -28.173609460566624 27.313109617599892 9.6059079652371029 #
point $-1 -23.963372708744316 27.313109617599892 9.6059079652371029 #
straight-curve $-1 37.52925586813997 33.27054447041067 76.097227800062541 0 0 -1 I I #
point $-1 37.52925586813997 33.27054447041067 15.879534259518618 #
straight-curve $-1 15.2560973075514 33.27054447041067 7.2638262006257719 -1 0 0 I I #
point $-1 37.52925586813997 33.27054447041067 7.2638262006257719 #
point $-1 26.301957863280506 27.313109617599892 9.6059079652371029 #
point $-1 30.5121946151028 27.313109617599892 9.6059079652371029 #
point $-1 34.722431366925122 27.313109617599892 9.6059079652371029 #
straight-curve $-1 -87.485648910566709 -5.5794223159422138 15.879534259518618 0 -1 0 I I #
point $-1 87.485648910566709 -1.5114759513734342 15.879534259518618 #
straight-curve $-1 87.485648910566709 -5.5794223159422138 15.879534259518618 0 1 0 I I #
End-of-ACIS-data 