500 0 14 0           
7 Unknown 11 ACIS 5.0 NT 24 Fri Mar 26 15:32:48 1999 
-1 9.9999999999999995e-007 1e-010 
body $-1 $14 $-1 $15 #
body $-1 $16 $-1 $17 #
body $-1 $18 $-1 $19 #
body $-1 $20 $-1 $21 #
body $-1 $22 $-1 $23 #
body $-1 $24 $-1 $25 #
body $-1 $26 $-1 $27 #
body $-1 $28 $-1 $29 #
body $-1 $30 $-1 $31 #
body $-1 $32 $-1 $33 #
body $-1 $34 $-1 $35 #
body $-1 $36 $-1 $37 #
body $-1 $38 $-1 $39 #
body $-1 $40 $-1 $41 #
lump $-1 $-1 $42 $0 #
transform $-1 1 0 0 0 1 0 0 0 1 57.678762169255648 25.256703859276527 5.3131034181338883 1 rotate no_reflect no_shear #
lump $-1 $-1 $43 $1 #
transform $-1 1 0 0 0 1 0 0 0 1 57.678762169255648 25.256703859276527 5.3131034181338883 1 rotate no_reflect no_shear #
lump $-1 $-1 $44 $2 #
transform $-1 1 0 0 0 1 0 0 0 1 57.678762169255648 25.256703859276527 5.3131034181338883 1 rotate no_reflect no_shear #
lump $-1 $-1 $45 $3 #
transform $-1 1 0 0 0 1 0 0 0 1 57.678762169255648 25.256703859276527 5.3131034181338883 1 rotate no_reflect no_shear #
lump $-1 $-1 $46 $4 #
transform $-1 1 0 0 0 1 0 0 0 1 57.678762169255648 25.256703859276527 5.3131034181338883 1 rotate no_reflect no_shear #
lump $-1 $-1 $47 $5 #
transform $-1 1 0 0 0 1 0 0 0 1 57.678762169255648 25.256703859276527 5.3131034181338883 1 rotate no_reflect no_shear #
lump $-1 $-1 $48 $6 #
transform $-1 1 0 0 0 1 0 0 0 1 57.678762169255648 25.256703859276527 5.3131034181338883 1 rotate no_reflect no_shear #
lump $-1 $-1 $49 $7 #
transform $-1 1 0 0 0 1 0 0 0 1 57.678762169255648 25.256703859276527 5.3131034181338883 1 rotate no_reflect no_shear #
lump $-1 $-1 $50 $8 #
transform $-1 1 0 0 0 1 0 0 0 1 57.678762169255648 25.256703859276527 5.3131034181338883 1 rotate no_reflect no_shear #
lump $-1 $-1 $51 $9 #
transform $-1 1 0 0 0 1 0 0 0 1 57.678762169255648 25.256703859276527 5.3131034181338883 1 rotate no_reflect no_shear #
lump $-1 $-1 $52 $10 #
transform $-1 1 0 0 0 1 0 0 0 1 57.678762169255648 25.256703859276527 5.3131034181338883 1 rotate no_reflect no_shear #
lump $-1 $-1 $53 $11 #
transform $-1 1 0 0 0 1 0 0 0 1 57.678762169255648 25.256703859276527 5.3131034181338883 1 rotate no_reflect no_shear #
lump $-1 $-1 $54 $12 #
transform $-1 1 0 0 0 1 0 0 0 1 57.678762169255648 25.256703859276527 5.3131034181338883 1 rotate no_reflect no_shear #
lump $-1 $-1 $55 $13 #
transform $-1 1 0 0 0 1 0 0 0 1 57.678762169255648 25.256703859276527 5.3131034181338883 1 rotate no_reflect no_shear #
shell $-1 $-1 $-1 $56 $-1 $14 #
shell $-1 $-1 $-1 $57 $-1 $16 #
shell $-1 $-1 $-1 $58 $-1 $18 #
shell $-1 $-1 $-1 $59 $-1 $20 #
shell $-1 $-1 $-1 $60 $-1 $22 #
shell $-1 $-1 $-1 $61 $-1 $24 #
shell $-1 $-1 $-1 $62 $-1 $26 #
shell $-1 $-1 $-1 $63 $-1 $28 #
shell $-1 $-1 $-1 $64 $-1 $30 #
shell $-1 $-1 $-1 $65 $-1 $32 #
shell $-1 $-1 $-1 $66 $-1 $34 #
shell $-1 $-1 $-1 $67 $-1 $36 #
shell $-1 $-1 $-1 $68 $-1 $38 #
shell $-1 $-1 $-1 $69 $-1 $40 #
face $-1 $70 $71 $42 $-1 $72 forward single #
face $-1 $73 $74 $43 $-1 $75 forward single #
face $-1 $76 $77 $44 $-1 $78 reversed single #
face $-1 $79 $80 $45 $-1 $81 forward single #
face $-1 $82 $83 $46 $-1 $84 forward single #
face $-1 $85 $86 $47 $-1 $87 reversed single #
face $-1 $88 $89 $48 $-1 $90 forward single #
face $-1 $91 $92 $49 $-1 $93 forward single #
face $-1 $94 $95 $50 $-1 $96 reversed single #
face $-1 $97 $98 $51 $-1 $99 forward single #
face $-1 $100 $101 $52 $-1 $102 forward single #
face $-1 $103 $104 $53 $-1 $105 reversed single #
face $-1 $106 $107 $54 $-1 $108 forward single #
face $-1 $109 $110 $55 $-1 $111 forward single #
face $-1 $112 $113 $42 $-1 $114 reversed single #
loop $-1 $-1 $115 $56 #
plane-surface $-1 0 0 5.3131034181338883 0 0 1 1 0 0 forward_v I I I I #
face $-1 $116 $117 $43 $-1 $118 reversed single #
loop $-1 $-1 $119 $57 #
plane-surface $-1 -57.678762169255648 0 0 1 0 0 0 0 -1 forward_v I I I I #
face $-1 $120 $121 $44 $-1 $122 reversed single #
loop $-1 $-1 $123 $58 #
plane-surface $-1 74.731556138820409 -12.628351929638262 163.72404722632317 0 -1 0 -0.77714596973225614 0 -0.62932038083071107 forward_v I I I I #
face $-1 $124 $125 $45 $-1 $126 forward single #
loop $-1 $127 $128 $59 #
cone-surface $-1 55.3519661260259 -18.015797034578647 2.7687104384962891 -0.77714596973225614 0 -0.62932038083071107 0.31466019041535553 0 -0.38857298486612807 1 I I 0 1 0.5 forward I I I I #
face $-1 $129 $130 $46 $-1 $131 forward single #
loop $-1 $132 $133 $60 #
cone-surface $-1 55.3519661260259 -14.783329971614418 2.7687104384962891 -0.77714596973225614 0 -0.62932038083071107 0.31466019041535553 0 -0.38857298486612807 1 I I 0 1 0.5 forward I I I I #
face $-1 $134 $135 $47 $-1 $136 reversed single #
loop $-1 $-1 $137 $61 #
plane-surface $-1 74.731556138820409 1.7763568394002505e-015 163.72404722632317 0 -1 0 -0.77714596973225614 0 -0.62932038083071107 forward_v I I I I #
face $-1 $138 $139 $48 $-1 $140 forward single #
loop $-1 $141 $142 $62 #
cone-surface $-1 55.3519661260259 -5.3874451049403831 2.7687104384962891 -0.77714596973225614 0 -0.62932038083071107 0.31466019041535553 0 -0.38857298486612807 1 I I 0 1 0.5 forward I I I I #
face $-1 $143 $144 $49 $-1 $145 forward single #
loop $-1 $146 $147 $63 #
cone-surface $-1 55.3519661260259 -2.1549780419761539 2.7687104384962891 -0.77714596973225614 0 -0.62932038083071107 0.31466019041535553 0 -0.38857298486612807 1 I I 0 1 0.5 forward I I I I #
face $-1 $148 $149 $50 $-1 $150 reversed single #
loop $-1 $-1 $151 $64 #
plane-surface $-1 74.731556138820409 12.628351929638265 163.72404722632317 0 -1 0 -0.77714596973225614 0 -0.62932038083071107 forward_v I I I I #
face $-1 $152 $153 $51 $-1 $154 forward single #
loop $-1 $155 $156 $65 #
cone-surface $-1 55.3519661260259 7.2409068246978805 2.7687104384962891 -0.77714596973225614 0 -0.62932038083071107 0.31466019041535553 0 -0.38857298486612807 1 I I 0 1 0.5 forward I I I I #
face $-1 $157 $158 $52 $-1 $159 forward single #
loop $-1 $160 $161 $66 #
cone-surface $-1 55.3519661260259 10.473373887662106 2.7687104384962891 -0.77714596973225614 0 -0.62932038083071107 0.31466019041535553 0 -0.38857298486612807 1 I I 0 1 0.5 forward I I I I #
face $-1 $162 $163 $53 $-1 $164 reversed single #
loop $-1 $-1 $165 $67 #
plane-surface $-1 74.731556138820409 17.714280712359994 163.72404722632317 0 1 0 0.77714596973225614 0 0.62932038083071107 forward_v I I I I #
face $-1 $166 $167 $54 $-1 $168 forward single #
loop $-1 $169 $170 $68 #
cone-surface $-1 55.3519661260259 19.869258754336144 2.7687104384962891 -0.77714596973225614 0 -0.62932038083071107 0.31466019041535553 0 -0.38857298486612807 1 I I 0 1 0.5 forward I I I I #
face $-1 $171 $172 $55 $-1 $173 forward single #
loop $-1 $174 $175 $69 #
cone-surface $-1 55.3519661260259 23.10172581730037 2.7687104384962891 -0.77714596973225614 0 -0.62932038083071107 0.31466019041535553 0 -0.38857298486612807 1 I I 0 1 0.5 forward I I I I #
face $-1 $176 $177 $42 $-1 $178 reversed single #
loop $-1 $-1 $179 $70 #
plane-surface $-1 0 0 -5.3131034181338883 0 0 1 1 0 0 forward_v I I I I #
coedge $-1 $180 $181 $182 $183 forward $71 $-1 #
face $-1 $184 $185 $43 $-1 $186 forward single #
loop $-1 $-1 $187 $73 #
plane-surface $-1 0 25.256703859276527 0 0 -1 0 0 0 -1 forward_v I I I I #
coedge $-1 $188 $189 $190 $191 forward $74 $-1 #
face $-1 $192 $193 $44 $-1 $194 reversed single #
loop $-1 $-1 $195 $76 #
plane-surface $-1 -14.918078979144298 -16.39956350309653 91.127206077923219 0.77714596973225614 0 0.62932038083071107 0.62932038083071107 0 -0.77714596973225614 forward_v I I I I #
coedge $-1 $196 $197 $198 $199 reversed $77 $-1 #
face $-1 $-1 $200 $45 $-1 $201 forward single #
loop $-1 $202 $203 $79 #
cone-surface $-1 54.383860020324548 -18.015797034578647 1.9847535927387163 -0.77714596973225614 0 -0.62932038083071107 0.15733009520767777 0 -0.19428649243306403 1 I I -0.70710678118654746 0.70710678118654746 0.25 forward I I I I #
loop $-1 $-1 $204 $59 #
coedge $-1 $128 $128 $205 $206 reversed $80 $-1 #
face $-1 $-1 $207 $46 $-1 $208 forward single #
loop $-1 $209 $210 $82 #
cone-surface $-1 54.383860020324548 -14.783329971614418 1.9847535927387163 -0.77714596973225614 0 -0.62932038083071107 0.15733009520767777 0 -0.19428649243306403 1 I I -0.70710678118654746 0.70710678118654746 0.25 forward I I I I #
loop $-1 $-1 $211 $60 #
coedge $-1 $133 $133 $212 $213 reversed $83 $-1 #
face $-1 $214 $215 $47 $-1 $216 reversed single #
loop $-1 $-1 $217 $85 #
plane-surface $-1 -14.918078979144298 -3.7712115734582667 91.127206077923219 0.77714596973225614 0 0.62932038083071107 0.62932038083071107 0 -0.77714596973225614 forward_v I I I I #
coedge $-1 $218 $219 $220 $221 reversed $86 $-1 #
face $-1 $-1 $222 $48 $-1 $223 forward single #
loop $-1 $224 $225 $88 #
cone-surface $-1 54.383860020324548 -5.3874451049403831 1.9847535927387163 -0.77714596973225614 0 -0.62932038083071107 0.15733009520767777 0 -0.19428649243306403 1 I I -0.70710678118654746 0.70710678118654746 0.25 forward I I I I #
loop $-1 $-1 $226 $62 #
coedge $-1 $142 $142 $227 $228 reversed $89 $-1 #
face $-1 $-1 $229 $49 $-1 $230 forward single #
loop $-1 $231 $232 $91 #
cone-surface $-1 54.383860020324548 -2.1549780419761539 1.9847535927387163 -0.77714596973225614 0 -0.62932038083071107 0.15733009520767777 0 -0.19428649243306403 1 I I -0.70710678118654746 0.70710678118654746 0.25 forward I I I I #
loop $-1 $-1 $233 $63 #
coedge $-1 $147 $147 $234 $235 reversed $92 $-1 #
face $-1 $236 $237 $50 $-1 $238 reversed single #
loop $-1 $-1 $239 $94 #
plane-surface $-1 -14.918078979144298 8.8571403561799968 91.127206077923219 0.77714596973225614 0 0.62932038083071107 0.62932038083071107 0 -0.77714596973225614 forward_v I I I I #
coedge $-1 $240 $241 $242 $243 reversed $95 $-1 #
face $-1 $-1 $244 $51 $-1 $245 forward single #
loop $-1 $246 $247 $97 #
cone-surface $-1 54.383860020324548 7.2409068246978805 1.9847535927387163 -0.77714596973225614 0 -0.62932038083071107 0.15733009520767777 0 -0.19428649243306403 1 I I -0.70710678118654746 0.70710678118654746 0.25 forward I I I I #
loop $-1 $-1 $248 $65 #
coedge $-1 $156 $156 $249 $250 reversed $98 $-1 #
face $-1 $-1 $251 $52 $-1 $252 forward single #
loop $-1 $253 $254 $100 #
cone-surface $-1 54.383860020324548 10.473373887662106 1.9847535927387163 -0.77714596973225614 0 -0.62932038083071107 0.15733009520767777 0 -0.19428649243306403 1 I I -0.70710678118654746 0.70710678118654746 0.25 forward I I I I #
loop $-1 $-1 $255 $66 #
coedge $-1 $161 $161 $256 $257 reversed $101 $-1 #
face $-1 $258 $259 $53 $-1 $260 reversed single #
loop $-1 $-1 $261 $103 #
plane-surface $-1 -14.918078979144298 21.48549228581826 91.127206077923219 0.77714596973225614 0 0.62932038083071107 0.62932038083071107 0 -0.77714596973225614 forward_v I I I I #
coedge $-1 $262 $263 $264 $265 reversed $104 $-1 #
face $-1 $-1 $266 $54 $-1 $267 forward single #
loop $-1 $268 $269 $106 #
cone-surface $-1 54.383860020324548 19.869258754336144 1.9847535927387163 -0.77714596973225614 0 -0.62932038083071107 0.15733009520767777 0 -0.19428649243306403 1 I I -0.70710678118654746 0.70710678118654746 0.25 forward I I I I #
loop $-1 $-1 $270 $68 #
coedge $-1 $170 $170 $271 $272 reversed $107 $-1 #
face $-1 $-1 $273 $55 $-1 $274 forward single #
loop $-1 $275 $276 $109 #
cone-surface $-1 54.383860020324548 23.10172581730037 1.9847535927387163 -0.77714596973225614 0 -0.62932038083071107 0.15733009520767777 0 -0.19428649243306403 1 I I -0.70710678118654746 0.70710678118654746 0.25 forward I I I I #
loop $-1 $-1 $277 $69 #
coedge $-1 $175 $175 $278 $279 reversed $110 $-1 #
face $-1 $280 $281 $42 $-1 $282 reversed single #
loop $-1 $-1 $283 $112 #
plane-surface $-1 0 -25.256703859276527 0 0 1 0 0 0 1 forward_v I I I I #
coedge $-1 $284 $285 $286 $287 forward $113 $-1 #
coedge $-1 $288 $115 $289 $290 forward $71 $-1 #
coedge $-1 $115 $288 $291 $292 forward $71 $-1 #
coedge $-1 $293 $294 $115 $183 reversed $295 $-1 #
edge $-1 $296 -25.256703859276527 $297 25.256703859276527 $182 $298 forward 7 unknown #
face $-1 $299 $300 $43 $-1 $301 reversed single #
loop $-1 $-1 $190 $116 #
plane-surface $-1 -59.722692801926925 0 -2.2989991608529774 0 0 1 1 0 0 forward_v I I I I #
coedge $-1 $302 $303 $189 $304 forward $117 $-1 #
coedge $-1 $305 $119 $306 $307 reversed $74 $-1 #
coedge $-1 $119 $305 $187 $304 reversed $74 $-1 #
coedge $-1 $308 $309 $119 $191 reversed $185 $-1 #
edge $-1 $310 -25.256703859276527 $311 25.256703859276527 $190 $312 forward 7 unknown #
face $-1 $313 $314 $44 $-1 $315 forward single #
loop $-1 $-1 $316 $120 #
plane-surface $-1 74.731556138820409 -20.170775076554797 163.72404722632317 0 1 0 0.77714596973225614 0 0.62932038083071107 forward_v I I I I #
coedge $-1 $317 $318 $319 $320 reversed $121 $-1 #
coedge $-1 $197 $123 $321 $322 reversed $77 $-1 #
coedge $-1 $123 $196 $317 $323 reversed $77 $-1 #
coedge $-1 $319 $324 $123 $199 forward $314 $-1 #
edge $-1 $325 -20.312984099845444 $326 -17.207031239922522 $198 $327 forward 7 unknown #
loop $-1 $-1 $205 $124 #
plane-surface $-1 -14.918078979144298 -16.39956350309653 91.127206077923219 0.77714596973225614 0 0.62932038083071107 0.62932038083071107 0 -0.77714596973225614 forward_v I I I I #
loop $-1 $-1 $328 $79 #
coedge $-1 $203 $203 $204 $329 reversed $125 $-1 #
coedge $-1 $204 $204 $203 $329 forward $127 $-1 #
coedge $-1 $205 $205 $128 $206 forward $200 $-1 #
edge $-1 $330 0 $330 6.2831853071796004 $205 $331 forward 7 unknown #
loop $-1 $-1 $212 $129 #
plane-surface $-1 -14.918078979144298 -16.39956350309653 91.127206077923219 0.77714596973225614 0 0.62932038083071107 0.62932038083071107 0 -0.77714596973225614 forward_v I I I I #
loop $-1 $-1 $332 $82 #
coedge $-1 $210 $210 $211 $333 reversed $130 $-1 #
coedge $-1 $211 $211 $210 $333 forward $132 $-1 #
coedge $-1 $212 $212 $133 $213 forward $207 $-1 #
edge $-1 $334 0 $334 6.2831853071796004 $212 $335 forward 7 unknown #
face $-1 $336 $337 $47 $-1 $338 reversed single #
loop $-1 $-1 $339 $134 #
plane-surface $-1 74.731556138820409 -7.5424231469165353 163.72404722632317 0 1 0 0.77714596973225614 0 0.62932038083071107 forward_v I I I I #
coedge $-1 $340 $341 $342 $343 reversed $135 $-1 #
coedge $-1 $219 $137 $344 $345 reversed $86 $-1 #
coedge $-1 $137 $218 $340 $346 reversed $86 $-1 #
coedge $-1 $342 $347 $137 $221 forward $348 $-1 #
edge $-1 $349 -20.312984099845444 $350 -17.207031239922522 $220 $351 forward 7 unknown #
loop $-1 $-1 $227 $138 #
plane-surface $-1 -14.918078979144298 -3.7712115734582667 91.127206077923219 0.77714596973225614 0 0.62932038083071107 0.62932038083071107 0 -0.77714596973225614 forward_v I I I I #
loop $-1 $-1 $352 $88 #
coedge $-1 $225 $225 $226 $353 reversed $139 $-1 #
coedge $-1 $226 $226 $225 $353 forward $141 $-1 #
coedge $-1 $227 $227 $142 $228 forward $222 $-1 #
edge $-1 $354 0 $354 6.2831853071796004 $227 $355 forward 7 unknown #
loop $-1 $-1 $234 $143 #
plane-surface $-1 -14.918078979144298 -3.7712115734582667 91.127206077923219 0.77714596973225614 0 0.62932038083071107 0.62932038083071107 0 -0.77714596973225614 forward_v I I I I #
loop $-1 $-1 $356 $91 #
coedge $-1 $232 $232 $233 $357 reversed $144 $-1 #
coedge $-1 $233 $233 $232 $357 forward $146 $-1 #
coedge $-1 $234 $234 $147 $235 forward $229 $-1 #
edge $-1 $358 0 $358 6.2831853071796004 $234 $359 forward 7 unknown #
face $-1 $360 $361 $50 $-1 $362 reversed single #
loop $-1 $-1 $363 $148 #
plane-surface $-1 74.731556138820409 5.0859287827217283 163.72404722632317 0 1 0 0.77714596973225614 0 0.62932038083071107 forward_v I I I I #
coedge $-1 $364 $365 $366 $367 reversed $149 $-1 #
coedge $-1 $241 $151 $368 $369 reversed $95 $-1 #
coedge $-1 $151 $240 $364 $370 reversed $95 $-1 #
coedge $-1 $366 $371 $151 $243 forward $372 $-1 #
edge $-1 $373 -20.312984099845444 $374 -17.207031239922522 $242 $375 forward 7 unknown #
loop $-1 $-1 $249 $152 #
plane-surface $-1 -14.918078979144298 8.8571403561799968 91.127206077923219 0.77714596973225614 0 0.62932038083071107 0.62932038083071107 0 -0.77714596973225614 forward_v I I I I #
loop $-1 $-1 $376 $97 #
coedge $-1 $247 $247 $248 $377 reversed $153 $-1 #
coedge $-1 $248 $248 $247 $377 forward $155 $-1 #
coedge $-1 $249 $249 $156 $250 forward $244 $-1 #
edge $-1 $378 0 $378 6.2831853071796004 $249 $379 forward 7 unknown #
loop $-1 $-1 $256 $157 #
plane-surface $-1 -14.918078979144298 8.8571403561799968 91.127206077923219 0.77714596973225614 0 0.62932038083071107 0.62932038083071107 0 -0.77714596973225614 forward_v I I I I #
loop $-1 $-1 $380 $100 #
coedge $-1 $254 $254 $255 $381 reversed $158 $-1 #
coedge $-1 $255 $255 $254 $381 forward $160 $-1 #
coedge $-1 $256 $256 $161 $257 forward $251 $-1 #
edge $-1 $382 0 $382 6.2831853071796004 $256 $383 forward 7 unknown #
face $-1 $384 $385 $53 $-1 $386 forward single #
loop $-1 $-1 $264 $162 #
plane-surface $-1 57.678762169255648 0 0 -1 0 0 0 0 1 forward_v I I I I #
coedge $-1 $387 $388 $389 $390 reversed $163 $-1 #
coedge $-1 $263 $165 $391 $392 reversed $104 $-1 #
coedge $-1 $165 $262 $387 $393 reversed $104 $-1 #
coedge $-1 $389 $394 $165 $265 forward $259 $-1 #
edge $-1 $395 76.548920195027691 $396 80.38445265320307 $264 $397 forward 7 unknown #
loop $-1 $-1 $271 $166 #
plane-surface $-1 -14.918078979144298 21.48549228581826 91.127206077923219 0.77714596973225614 0 0.62932038083071107 0.62932038083071107 0 -0.77714596973225614 forward_v I I I I #
loop $-1 $-1 $398 $106 #
coedge $-1 $269 $269 $270 $399 reversed $167 $-1 #
coedge $-1 $270 $270 $269 $399 forward $169 $-1 #
coedge $-1 $271 $271 $170 $272 forward $266 $-1 #
edge $-1 $400 0 $400 6.2831853071796004 $271 $401 forward 7 unknown #
loop $-1 $-1 $278 $171 #
plane-surface $-1 -14.918078979144298 21.48549228581826 91.127206077923219 0.77714596973225614 0 0.62932038083071107 0.62932038083071107 0 -0.77714596973225614 forward_v I I I I #
loop $-1 $-1 $402 $109 #
coedge $-1 $276 $276 $277 $403 reversed $172 $-1 #
coedge $-1 $277 $277 $276 $403 forward $174 $-1 #
coedge $-1 $278 $278 $175 $279 forward $273 $-1 #
edge $-1 $404 0 $404 6.2831853071796004 $278 $405 forward 7 unknown #
face $-1 $406 $407 $42 $-1 $408 reversed single #
loop $-1 $-1 $409 $176 #
plane-surface $-1 -57.678762169255648 0 0 1 0 0 0 0 -1 forward_v I I I I #
coedge $-1 $410 $291 $409 $411 forward $177 $-1 #
coedge $-1 $412 $179 $410 $413 forward $113 $-1 #
coedge $-1 $179 $412 $414 $415 forward $113 $-1 #
coedge $-1 $294 $293 $179 $287 reversed $295 $-1 #
edge $-1 $416 -25.256703859276527 $417 25.256703859276527 $286 $418 forward 7 unknown #
coedge $-1 $181 $180 $419 $420 forward $71 $-1 #
coedge $-1 $421 $422 $180 $290 reversed $407 $-1 #
edge $-1 $297 -57.678762169255648 $423 57.678762169255648 $289 $424 forward 7 unknown #
coedge $-1 $283 $425 $181 $292 reversed $177 $-1 #
edge $-1 $426 -57.678762169255648 $296 57.678762169255648 $291 $427 forward 7 unknown #
coedge $-1 $286 $182 $425 $428 forward $295 $-1 #
coedge $-1 $182 $286 $421 $429 reversed $295 $-1 #
loop $-1 $-1 $293 $406 #
vertex $-1 $183 $430 #
vertex $-1 $183 $431 #
straight-curve $-1 57.678762169255648 0 5.3131034181338883 0 1 0 I I #
face $-1 $432 $433 $43 $-1 $434 reversed single #
loop $-1 $-1 $435 $184 #
plane-surface $-1 -61.766623434598202 0 -3.8060512894934329 1 0 0 0 0 -1 forward_v I I I I #
coedge $-1 $436 $187 $437 $438 reversed $117 $-1 #
coedge $-1 $187 $436 $308 $439 reversed $117 $-1 #
edge $-1 $310 2.2989991608529774 $440 5.3131034181338883 $187 $441 forward 7 unknown #
coedge $-1 $189 $188 $442 $443 reversed $74 $-1 #
coedge $-1 $444 $445 $188 $307 forward $446 $-1 #
edge $-1 $447 -5.3131034181338883 $311 -2.2989991608529774 $306 $448 forward 7 unknown #
coedge $-1 $449 $190 $303 $439 forward $185 $-1 #
coedge $-1 $190 $449 $444 $450 forward $185 $-1 #
vertex $-1 $304 $451 #
vertex $-1 $450 $452 #
straight-curve $-1 -57.678762169255648 0 -2.2989991608529774 0 -1 0 I I #
face $-1 $-1 $453 $44 $-1 $454 reversed single #
loop $-1 $-1 $198 $192 #
plane-surface $-1 0 0 5.3131034181338883 0 0 1 1 0 0 forward_v I I I I #
coedge $-1 $455 $456 $457 $458 reversed $193 $-1 #
coedge $-1 $459 $195 $197 $323 forward $121 $-1 #
coedge $-1 $195 $459 $455 $460 forward $121 $-1 #
coedge $-1 $457 $198 $195 $320 forward $314 $-1 #
edge $-1 $326 4.4285701780899966 $461 11.970993325006532 $319 $462 forward 7 unknown #
coedge $-1 $463 $464 $196 $322 forward $453 $-1 #
edge $-1 $465 -80.38445265320307 $325 -76.548920195027691 $321 $466 forward 7 unknown #
edge $-1 $326 110.42211631021411 $465 115.3575243385113 $197 $467 forward 7 unknown #
coedge $-1 $198 $457 $463 $468 forward $314 $-1 #
vertex $-1 $322 $469 #
vertex $-1 $199 $470 #
straight-curve $-1 37.365778069410204 -12.628351929638262 5.3131034181338919 -1 0 0 I I #
coedge $-1 $328 $328 $-1 $471 reversed $202 $-1 #
edge $-1 $472 0 $472 6.2831853071796004 $203 $473 forward 7 unknown #
vertex $-1 $206 $474 #
ellipse-curve $-1 56.125785739294194 -18.015797034578647 3.395337189046193 0.77714596973225614 0 0.62932038083071107 0.31466019041535553 0 -0.38857298486612807 1 I I #
coedge $-1 $332 $332 $-1 $475 reversed $209 $-1 #
edge $-1 $476 0 $476 6.2831853071796004 $210 $477 forward 7 unknown #
vertex $-1 $213 $478 #
ellipse-curve $-1 56.125785739294194 -14.783329971614418 3.395337189046193 0.77714596973225614 0 0.62932038083071107 0.31466019041535553 0 -0.38857298486612807 1 I I #
face $-1 $-1 $348 $47 $-1 $479 forward single #
loop $-1 $-1 $480 $214 #
plane-surface $-1 57.678762169255648 0 0 -1 0 0 0 0 1 forward_v I I I I #
coedge $-1 $481 $482 $483 $484 reversed $215 $-1 #
coedge $-1 $485 $217 $219 $346 forward $135 $-1 #
coedge $-1 $217 $485 $481 $486 forward $135 $-1 #
coedge $-1 $483 $220 $217 $343 forward $348 $-1 #
edge $-1 $350 -1.8856057867291351 $487 5.6568173601874019 $342 $488 forward 7 unknown #
coedge $-1 $489 $490 $218 $345 forward $337 $-1 #
edge $-1 $491 -80.38445265320307 $349 -76.548920195027691 $344 $492 forward 7 unknown #
edge $-1 $350 110.42211631021411 $491 115.3575243385113 $219 $493 forward 7 unknown #
coedge $-1 $220 $483 $489 $494 forward $348 $-1 #
loop $-1 $-1 $483 $336 #
vertex $-1 $345 $495 #
vertex $-1 $221 $496 #
straight-curve $-1 37.365778069410204 1.7763568394002505e-015 5.3131034181338919 -1 0 0 I I #
coedge $-1 $352 $352 $-1 $497 reversed $224 $-1 #
edge $-1 $498 0 $498 6.2831853071796004 $225 $499 forward 7 unknown #
vertex $-1 $228 $500 #
ellipse-curve $-1 56.125785739294194 -5.3874451049403831 3.395337189046193 0.77714596973225614 0 0.62932038083071107 0.31466019041535553 0 -0.38857298486612807 1 I I #
coedge $-1 $356 $356 $-1 $501 reversed $231 $-1 #
edge $-1 $502 0 $502 6.2831853071796004 $232 $503 forward 7 unknown #
vertex $-1 $235 $504 #
ellipse-curve $-1 56.125785739294194 -2.1549780419761539 3.395337189046193 0.77714596973225614 0 0.62932038083071107 0.31466019041535553 0 -0.38857298486612807 1 I I #
face $-1 $-1 $372 $50 $-1 $505 forward single #
loop $-1 $-1 $506 $236 #
plane-surface $-1 57.678762169255648 0 0 -1 0 0 0 0 1 forward_v I I I I #
coedge $-1 $507 $508 $509 $510 reversed $237 $-1 #
coedge $-1 $511 $239 $241 $370 forward $149 $-1 #
coedge $-1 $239 $511 $507 $512 forward $149 $-1 #
coedge $-1 $509 $242 $239 $367 forward $372 $-1 #
edge $-1 $374 -8.1997817515482669 $513 -0.6573586046317299 $366 $514 forward 7 unknown #
coedge $-1 $515 $516 $240 $369 forward $361 $-1 #
edge $-1 $517 -80.38445265320307 $373 -76.548920195027691 $368 $518 forward 7 unknown #
edge $-1 $374 110.42211631021411 $517 115.3575243385113 $241 $519 forward 7 unknown #
coedge $-1 $242 $509 $515 $520 forward $372 $-1 #
loop $-1 $-1 $509 $360 #
vertex $-1 $369 $521 #
vertex $-1 $243 $522 #
straight-curve $-1 37.365778069410204 12.628351929638265 5.3131034181338919 -1 0 0 I I #
coedge $-1 $376 $376 $-1 $523 reversed $246 $-1 #
edge $-1 $524 0 $524 6.2831853071796004 $247 $525 forward 7 unknown #
vertex $-1 $250 $526 #
ellipse-curve $-1 56.125785739294194 7.2409068246978805 3.395337189046193 0.77714596973225614 0 0.62932038083071107 0.31466019041535553 0 -0.38857298486612807 1 I I #
coedge $-1 $380 $380 $-1 $527 reversed $253 $-1 #
edge $-1 $528 0 $528 6.2831853071796004 $254 $529 forward 7 unknown #
vertex $-1 $257 $530 #
ellipse-curve $-1 56.125785739294194 10.473373887662106 3.395337189046193 0.77714596973225614 0 0.62932038083071107 0.31466019041535553 0 -0.38857298486612807 1 I I #
face $-1 $-1 $531 $53 $-1 $532 reversed single #
loop $-1 $-1 $391 $258 #
plane-surface $-1 0 0 5.3131034181338883 0 0 1 1 0 0 forward_v I I I I #
coedge $-1 $533 $261 $263 $393 forward $163 $-1 #
coedge $-1 $261 $533 $534 $535 reversed $163 $-1 #
coedge $-1 $536 $264 $261 $390 forward $259 $-1 #
edge $-1 $396 6.9715345694508635 $537 14.513957716367397 $389 $538 forward 7 unknown #
coedge $-1 $539 $540 $262 $392 forward $385 $-1 #
edge $-1 $541 17.207031239922522 $395 20.312984099845444 $391 $542 forward 7 unknown #
edge $-1 $396 -115.3575243385113 $541 -110.42211631021411 $263 $543 forward 7 unknown #
coedge $-1 $264 $536 $539 $544 reversed $259 $-1 #
vertex $-1 $544 $545 #
vertex $-1 $265 $546 #
straight-curve $-1 57.678762169255648 17.714280712359994 81.862023613161583 0 0 -1 I I #
coedge $-1 $398 $398 $-1 $547 reversed $268 $-1 #
edge $-1 $548 0 $548 6.2831853071796004 $269 $549 forward 7 unknown #
vertex $-1 $272 $550 #
ellipse-curve $-1 56.125785739294194 19.869258754336144 3.395337189046193 0.77714596973225614 0 0.62932038083071107 0.31466019041535553 0 -0.38857298486612807 1 I I #
coedge $-1 $402 $402 $-1 $551 reversed $275 $-1 #
edge $-1 $552 0 $552 6.2831853071796004 $276 $553 forward 7 unknown #
vertex $-1 $279 $554 #
ellipse-curve $-1 56.125785739294194 23.10172581730037 3.395337189046193 0.77714596973225614 0 0.62932038083071107 0.31466019041535553 0 -0.38857298486612807 1 I I #
face $-1 $-1 $295 $42 $-1 $555 reversed single #
loop $-1 $-1 $421 $280 #
plane-surface $-1 0 25.256703859276527 0 0 -1 0 0 0 -1 forward_v I I I I #
coedge $-1 $419 $556 $283 $411 reversed $281 $-1 #
coedge $-1 $425 $283 $284 $413 reversed $177 $-1 #
edge $-1 $426 -5.3131034181338883 $557 5.3131034181338883 $409 $558 forward 7 unknown #
coedge $-1 $285 $284 $556 $559 forward $113 $-1 #
edge $-1 $417 -57.678762169255648 $557 57.678762169255648 $410 $560 forward 7 unknown #
coedge $-1 $422 $421 $285 $415 reversed $407 $-1 #
edge $-1 $561 -57.678762169255648 $416 57.678762169255648 $414 $562 forward 7 unknown #
vertex $-1 $287 $563 #
vertex $-1 $428 $564 #
straight-curve $-1 57.678762169255648 0 -5.3131034181338883 0 -1 0 I I #
coedge $-1 $565 $409 $288 $420 reversed $281 $-1 #
edge $-1 $423 -25.256703859276527 $426 25.256703859276527 $419 $566 forward 7 unknown #
coedge $-1 $414 $289 $294 $429 forward $407 $-1 #
coedge $-1 $289 $414 $565 $567 reversed $407 $-1 #
vertex $-1 $290 $568 #
straight-curve $-1 0 25.256703859276527 5.3131034181338883 -1 0 0 I I #
coedge $-1 $291 $410 $293 $428 reversed $177 $-1 #
vertex $-1 $420 $569 #
straight-curve $-1 0 -25.256703859276527 5.3131034181338883 1 0 0 I I #
edge $-1 $296 -5.3131034181338883 $417 5.3131034181338883 $293 $570 forward 7 unknown #
edge $-1 $297 -5.3131034181338883 $416 5.3131034181338883 $294 $571 forward 7 unknown #
point $-1 57.678762169255648 -25.256703859276527 5.3131034181338883 #
point $-1 57.678762169255648 25.256703859276527 5.3131034181338883 #
face $-1 $-1 $446 $43 $-1 $572 reversed single #
loop $-1 $-1 $442 $299 #
plane-surface $-1 0 0 -5.3131034181338883 0 0 1 1 0 0 forward_v I I I I #
coedge $-1 $573 $574 $436 $575 forward $300 $-1 #
coedge $-1 $303 $302 $435 $575 reversed $117 $-1 #
coedge $-1 $442 $576 $302 $438 forward $433 $-1 #
edge $-1 $577 -61.766623434598202 $440 -57.678762169255648 $302 $578 forward 7 unknown #
edge $-1 $310 -2.0439306326712767 $579 2.0439306326712767 $303 $580 forward 7 unknown #
vertex $-1 $304 $581 #
straight-curve $-1 -57.678762169255648 25.256703859276527 0 0 0 -1 I I #
coedge $-1 $582 $437 $305 $443 forward $433 $-1 #
edge $-1 $440 -25.256703859276527 $447 25.256703859276527 $442 $583 forward 7 unknown #
coedge $-1 $584 $306 $309 $450 reversed $446 $-1 #
coedge $-1 $306 $584 $582 $585 reversed $446 $-1 #
loop $-1 $-1 $306 $432 #
vertex $-1 $585 $586 #
straight-curve $-1 -57.678762169255648 -25.256703859276527 0 0 0 1 I I #
coedge $-1 $309 $308 $574 $587 forward $185 $-1 #
edge $-1 $588 -2.0439306326712767 $311 2.0439306326712767 $444 $589 forward 7 unknown #
point $-1 -57.678762169255648 25.256703859276527 -2.2989991608529774 #
point $-1 -57.678762169255648 -25.256703859276527 -2.2989991608529774 #
loop $-1 $-1 $321 $313 #
plane-surface $-1 57.678762169255648 0 0 -1 0 0 0 0 1 forward_v I I I I #
coedge $-1 $456 $316 $318 $460 reversed $193 $-1 #
coedge $-1 $316 $455 $590 $591 reversed $193 $-1 #
coedge $-1 $324 $319 $316 $458 forward $314 $-1 #
edge $-1 $461 17.207031239922522 $592 20.312984099845444 $457 $593 forward 7 unknown #
coedge $-1 $318 $317 $464 $594 reversed $121 $-1 #
edge $-1 $595 -115.3575243385113 $461 -110.42211631021411 $455 $596 forward 7 unknown #
vertex $-1 $320 $597 #
straight-curve $-1 54.572809309332726 -8.1997817515482652 5.313103418133899 0 -1 0 I I #
coedge $-1 $590 $321 $324 $468 reversed $453 $-1 #
coedge $-1 $321 $590 $459 $594 forward $453 $-1 #
vertex $-1 $322 $598 #
straight-curve $-1 57.678762169255648 -12.628351929638262 81.862023613161583 0 0 1 I I #
straight-curve $-1 -14.918078979144298 -12.628351929638262 91.127206077923219 0.62932038083071107 0 -0.77714596973225614 I I #
edge $-1 $592 -20.170775076554797 $325 -12.628351929638262 $463 $599 forward 7 unknown #
point $-1 57.678762169255648 -12.628351929638262 5.3131034181338883 #
point $-1 54.572809309332726 -12.628351929638262 5.3131034181338919 #
edge $-1 $600 1 $600 0 $328 $-1 forward 7 unknown #
vertex $-1 $329 $601 #
ellipse-curve $-1 54.578146512757613 -18.015797034578647 2.142083687946394 0.77714596973225614 0 0.62932038083071107 0.31466019041535553 0 -0.38857298486612807 1 I I #
point $-1 56.44044592970954 -18.015797034578647 3.0067642041800555 #
edge $-1 $602 1 $602 0 $332 $-1 forward 7 unknown #
vertex $-1 $333 $603 #
ellipse-curve $-1 54.578146512757613 -14.783329971614418 2.142083687946394 0.77714596973225614 0 0.62932038083071107 0.31466019041535553 0 -0.38857298486612807 1 I I #
point $-1 56.44044592970954 -14.783329971614418 3.0067642041800555 #
plane-surface $-1 0 0 5.3131034181338883 0 0 1 1 0 0 forward_v I I I I #
coedge $-1 $490 $489 $482 $604 forward $337 $-1 #
coedge $-1 $482 $339 $341 $486 reversed $215 $-1 #
coedge $-1 $339 $481 $480 $604 reversed $215 $-1 #
coedge $-1 $347 $342 $339 $484 forward $348 $-1 #
edge $-1 $487 17.207031239922522 $605 20.312984099845444 $483 $606 forward 7 unknown #
coedge $-1 $341 $340 $490 $607 reversed $135 $-1 #
edge $-1 $608 -115.3575243385113 $487 -110.42211631021411 $481 $609 forward 7 unknown #
vertex $-1 $343 $610 #
straight-curve $-1 54.572809309332726 -1.8856057867291334 5.313103418133899 0 -1 0 I I #
coedge $-1 $480 $344 $347 $494 reversed $337 $-1 #
coedge $-1 $344 $480 $485 $607 forward $337 $-1 #
vertex $-1 $345 $611 #
straight-curve $-1 57.678762169255648 1.7763568394002505e-015 81.862023613161583 0 0 1 I I #
straight-curve $-1 -14.918078979144298 1.7763568394002505e-015 91.127206077923219 0.62932038083071107 0 -0.77714596973225614 I I #
edge $-1 $605 -7.5424231469165353 $349 1.7763568394002505e-015 $489 $612 forward 7 unknown #
point $-1 57.678762169255648 1.7763568394002505e-015 5.3131034181338883 #
point $-1 54.572809309332726 1.7763568394002505e-015 5.3131034181338919 #
edge $-1 $613 1 $613 0 $352 $-1 forward 7 unknown #
vertex $-1 $353 $614 #
ellipse-curve $-1 54.578146512757613 -5.3874451049403831 2.142083687946394 0.77714596973225614 0 0.62932038083071107 0.31466019041535553 0 -0.38857298486612807 1 I I #
point $-1 56.44044592970954 -5.3874451049403831 3.0067642041800555 #
edge $-1 $615 1 $615 0 $356 $-1 forward 7 unknown #
vertex $-1 $357 $616 #
ellipse-curve $-1 54.578146512757613 -2.1549780419761539 2.142083687946394 0.77714596973225614 0 0.62932038083071107 0.31466019041535553 0 -0.38857298486612807 1 I I #
point $-1 56.44044592970954 -2.1549780419761539 3.0067642041800555 #
plane-surface $-1 0 0 5.3131034181338883 0 0 1 1 0 0 forward_v I I I I #
coedge $-1 $516 $515 $508 $617 forward $361 $-1 #
coedge $-1 $508 $363 $365 $512 reversed $237 $-1 #
coedge $-1 $363 $507 $506 $617 reversed $237 $-1 #
coedge $-1 $371 $366 $363 $510 forward $372 $-1 #
edge $-1 $513 17.207031239922522 $618 20.312984099845444 $509 $619 forward 7 unknown #
coedge $-1 $365 $364 $516 $620 reversed $149 $-1 #
edge $-1 $621 -115.3575243385113 $513 -110.42211631021411 $507 $622 forward 7 unknown #
vertex $-1 $367 $623 #
straight-curve $-1 54.572809309332726 4.4285701780899984 5.313103418133899 0 -1 0 I I #
coedge $-1 $506 $368 $371 $520 reversed $361 $-1 #
coedge $-1 $368 $506 $511 $620 forward $361 $-1 #
vertex $-1 $369 $624 #
straight-curve $-1 57.678762169255648 12.628351929638265 81.862023613161583 0 0 1 I I #
straight-curve $-1 -14.918078979144298 12.628351929638265 91.127206077923219 0.62932038083071107 0 -0.77714596973225614 I I #
edge $-1 $618 5.0859287827217283 $373 12.628351929638265 $515 $625 forward 7 unknown #
point $-1 57.678762169255648 12.628351929638265 5.3131034181338883 #
point $-1 54.572809309332726 12.628351929638265 5.3131034181338919 #
edge $-1 $626 1 $626 0 $376 $-1 forward 7 unknown #
vertex $-1 $377 $627 #
ellipse-curve $-1 54.578146512757613 7.2409068246978805 2.142083687946394 0.77714596973225614 0 0.62932038083071107 0.31466019041535553 0 -0.38857298486612807 1 I I #
point $-1 56.44044592970954 7.2409068246978805 3.0067642041800555 #
edge $-1 $628 1 $628 0 $380 $-1 forward 7 unknown #
vertex $-1 $381 $629 #
ellipse-curve $-1 54.578146512757613 10.473373887662106 2.142083687946394 0.77714596973225614 0 0.62932038083071107 0.31466019041535553 0 -0.38857298486612807 1 I I #
point $-1 56.44044592970954 10.473373887662106 3.0067642041800555 #
loop $-1 $-1 $534 $384 #
plane-surface $-1 0 25.256703859276527 0 0 -1 0 0 0 -1 forward_v I I I I #
coedge $-1 $388 $387 $540 $630 reversed $163 $-1 #
coedge $-1 $631 $632 $388 $535 forward $531 $-1 #
edge $-1 $537 -75.253828298093026 $633 -70.318420269795865 $534 $634 forward 7 unknown #
coedge $-1 $394 $389 $632 $635 reversed $259 $-1 #
vertex $-1 $390 $636 #
straight-curve $-1 57.678762169255641 10.74274614290913 1.4775709599585269 0 1 0 I I #
coedge $-1 $637 $391 $394 $544 forward $385 $-1 #
coedge $-1 $391 $637 $533 $630 forward $385 $-1 #
vertex $-1 $392 $638 #
straight-curve $-1 37.365778069410204 17.714280712359994 5.3131034181338919 1 0 0 I I #
straight-curve $-1 -14.918078979144298 17.714280712359994 91.127206077923219 -0.62932038083071107 0 0.77714596973225614 I I #
edge $-1 $395 17.714280712359994 $639 25.256703859276527 $394 $640 forward 7 unknown #
point $-1 57.678762169255648 17.714280712359994 5.3131034181338883 #
point $-1 57.678762169255648 17.714280712359994 1.4775709599585127 #
edge $-1 $641 1 $641 0 $398 $-1 forward 7 unknown #
vertex $-1 $399 $642 #
ellipse-curve $-1 54.578146512757613 19.869258754336144 2.142083687946394 0.77714596973225614 0 0.62932038083071107 0.31466019041535553 0 -0.38857298486612807 1 I I #
point $-1 56.44044592970954 19.869258754336144 3.0067642041800555 #
edge $-1 $643 1 $643 0 $402 $-1 forward 7 unknown #
vertex $-1 $403 $644 #
ellipse-curve $-1 54.578146512757613 23.10172581730037 2.142083687946394 0.77714596973225614 0 0.62932038083071107 0.31466019041535553 0 -0.38857298486612807 1 I I #
point $-1 56.44044592970954 23.10172581730037 3.0067642041800555 #
plane-surface $-1 57.678762169255648 0 0 -1 0 0 0 0 1 forward_v I I I I #
coedge $-1 $409 $565 $412 $559 reversed $281 $-1 #
vertex $-1 $559 $645 #
straight-curve $-1 -57.678762169255648 -25.256703859276527 0 0 0 -1 I I #
edge $-1 $557 -25.256703859276527 $561 25.256703859276527 $556 $646 forward 7 unknown #
straight-curve $-1 0 -25.256703859276527 -5.3131034181338883 -1 0 0 I I #
vertex $-1 $415 $647 #
straight-curve $-1 0 25.256703859276527 -5.3131034181338883 1 0 0 I I #
point $-1 57.678762169255648 25.256703859276527 -5.3131034181338883 #
point $-1 57.678762169255648 -25.256703859276527 -5.3131034181338883 #
coedge $-1 $556 $419 $422 $567 forward $281 $-1 #
straight-curve $-1 -57.678762169255648 0 5.3131034181338883 0 -1 0 I I #
edge $-1 $423 -5.3131034181338883 $561 5.3131034181338883 $422 $648 forward 7 unknown #
point $-1 -57.678762169255648 25.256703859276527 5.3131034181338883 #
point $-1 -57.678762169255648 -25.256703859276527 5.3131034181338883 #
straight-curve $-1 57.678762169255648 -25.256703859276527 0 0 0 -1 I I #
straight-curve $-1 57.678762169255648 25.256703859276527 0 0 0 -1 I I #
plane-surface $-1 0 -25.256703859276527 0 0 1 0 0 0 1 forward_v I I I I #
coedge $-1 $649 $435 $576 $650 reversed $300 $-1 #
coedge $-1 $435 $649 $449 $587 reversed $300 $-1 #
edge $-1 $579 -1.5070521286404555 $577 1.5070521286404555 $436 $651 forward 7 unknown #
coedge $-1 $437 $582 $573 $650 forward $433 $-1 #
vertex $-1 $438 $652 #
straight-curve $-1 0 25.256703859276527 -5.3131034181338883 1 0 0 I I #
vertex $-1 $439 $653 #
straight-curve $-1 -59.722692801926925 25.256703859276527 -2.2989991608529774 -1 0 0 I I #
point $-1 -57.678762169255648 25.256703859276527 -5.3131034181338883 #
coedge $-1 $576 $442 $445 $585 forward $433 $-1 #
straight-curve $-1 -57.678762169255648 0 -5.3131034181338883 0 -1 0 I I #
coedge $-1 $445 $444 $649 $654 forward $446 $-1 #
edge $-1 $447 -2.0439306326712767 $655 2.0439306326712767 $445 $656 forward 7 unknown #
point $-1 -57.678762169255648 -25.256703859276527 -5.3131034181338883 #
edge $-1 $579 -25.256703859276527 $588 25.256703859276527 $574 $657 forward 7 unknown #
vertex $-1 $587 $658 #
straight-curve $-1 -59.722692801926925 -25.256703859276527 -2.2989991608529774 1 0 0 I I #
coedge $-1 $464 $463 $456 $591 forward $453 $-1 #
edge $-1 $592 76.548920195027691 $595 80.38445265320307 $590 $659 forward 7 unknown #
vertex $-1 $468 $660 #
straight-curve $-1 37.365778069410204 -20.170775076554797 5.3131034181338919 1 0 0 I I #
edge $-1 $595 -11.970993325006532 $465 -4.4285701780899966 $464 $661 forward 7 unknown #
vertex $-1 $594 $662 #
straight-curve $-1 -14.918078979144298 -20.170775076554797 91.127206077923219 -0.62932038083071107 0 0.77714596973225614 I I #
point $-1 54.572809309332726 -20.170775076554797 5.3131034181338919 #
point $-1 57.678762169255648 -12.628351929638262 1.4775709599585127 #
straight-curve $-1 57.678762169255648 0 5.3131034181338883 0 1 0 I I #
vertex $-1 $471 $663 #
point $-1 54.892806703172965 -18.015797034578647 1.7535107030802659 #
vertex $-1 $475 $664 #
point $-1 54.892806703172965 -14.783329971614418 1.7535107030802659 #
edge $-1 $605 76.548920195027691 $608 80.38445265320307 $480 $665 forward 7 unknown #
vertex $-1 $494 $666 #
straight-curve $-1 37.365778069410204 -7.5424231469165353 5.3131034181338919 1 0 0 I I #
edge $-1 $608 -5.6568173601874019 $491 1.8856057867291351 $490 $667 forward 7 unknown #
vertex $-1 $607 $668 #
straight-curve $-1 -14.918078979144298 -7.5424231469165353 91.127206077923219 -0.62932038083071107 0 0.77714596973225614 I I #
point $-1 54.572809309332726 -7.5424231469165353 5.3131034181338919 #
point $-1 57.678762169255648 1.7763568394002505e-015 1.4775709599585127 #
straight-curve $-1 57.678762169255648 0 5.3131034181338883 0 1 0 I I #
vertex $-1 $497 $669 #
point $-1 54.892806703172965 -5.3874451049403831 1.7535107030802659 #
vertex $-1 $501 $670 #
point $-1 54.892806703172965 -2.1549780419761539 1.7535107030802659 #
edge $-1 $618 76.548920195027691 $621 80.38445265320307 $506 $671 forward 7 unknown #
vertex $-1 $520 $672 #
straight-curve $-1 37.365778069410204 5.0859287827217283 5.3131034181338919 1 0 0 I I #
edge $-1 $621 0.6573586046317299 $517 8.1997817515482669 $516 $673 forward 7 unknown #
vertex $-1 $620 $674 #
straight-curve $-1 -14.918078979144298 5.0859287827217283 91.127206077923219 -0.62932038083071107 0 0.77714596973225614 I I #
point $-1 54.572809309332726 5.0859287827217283 5.3131034181338919 #
point $-1 57.678762169255648 12.628351929638265 1.4775709599585127 #
straight-curve $-1 57.678762169255648 0 5.3131034181338883 0 1 0 I I #
vertex $-1 $523 $675 #
point $-1 54.892806703172965 7.2409068246978805 1.7535107030802659 #
vertex $-1 $527 $676 #
point $-1 54.892806703172965 10.473373887662106 1.7535107030802659 #
edge $-1 $633 -14.513957716367397 $541 -6.9715345694508635 $540 $677 forward 7 unknown #
coedge $-1 $632 $534 $637 $678 reversed $531 $-1 #
coedge $-1 $534 $631 $536 $635 forward $531 $-1 #
vertex $-1 $535 $679 #
straight-curve $-1 10.319994285730797 25.256703859276527 59.960780328744733 -0.62932038083071107 0 0.77714596973225614 I I #
edge $-1 $639 -5.3131034181338883 $537 -1.4775709599585183 $536 $680 forward 7 unknown #
point $-1 57.678762169255648 25.256703859276527 1.4775709599585183 #
coedge $-1 $540 $539 $631 $678 forward $385 $-1 #
point $-1 54.572809309332726 17.714280712359994 5.3131034181338919 #
vertex $-1 $544 $681 #
straight-curve $-1 57.678762169255648 0 5.3131034181338883 0 1 0 I I #
vertex $-1 $547 $682 #
point $-1 54.892806703172965 19.869258754336144 1.7535107030802659 #
vertex $-1 $551 $683 #
point $-1 54.892806703172965 23.10172581730037 1.7535107030802659 #
point $-1 -57.678762169255648 -25.256703859276527 -5.3131034181338883 #
straight-curve $-1 -57.678762169255648 0 -5.3131034181338883 0 1 0 I I #
point $-1 -57.678762169255648 25.256703859276527 -5.3131034181338883 #
straight-curve $-1 -57.678762169255648 25.256703859276527 0 0 0 -1 I I #
coedge $-1 $574 $573 $584 $654 reversed $300 $-1 #
edge $-1 $655 -25.256703859276527 $577 25.256703859276527 $573 $684 forward 7 unknown #
straight-curve $-1 -61.766623434598202 25.256703859276527 -3.8060512894934329 0 0 -1 I I #
point $-1 -61.766623434598202 25.256703859276527 -5.3131034181338883 #
point $-1 -61.766623434598202 25.256703859276527 -2.2989991608529774 #
edge $-1 $588 -1.5070521286404555 $655 1.5070521286404555 $649 $685 forward 7 unknown #
vertex $-1 $650 $686 #
straight-curve $-1 -59.722692801926925 -25.256703859276527 -5.3131034181338883 -1 0 0 I I #
straight-curve $-1 -61.766623434598202 0 -2.2989991608529774 0 -1 0 I I #
point $-1 -61.766623434598202 -25.256703859276527 -2.2989991608529774 #
straight-curve $-1 57.678762169255648 -20.170775076554797 81.862023613161583 0 0 -1 I I #
point $-1 57.678762169255648 -20.170775076554797 5.3131034181338883 #
straight-curve $-1 57.678762169255641 -8.1997817515482652 1.4775709599585269 0 1 0 I I #
point $-1 57.678762169255648 -20.170775076554797 1.4775709599585127 #
point $-1 54.189573527891483 -18.015797034578647 1.8274234975310386 #
point $-1 54.189573527891483 -14.783329971614418 1.8274234975310386 #
straight-curve $-1 57.678762169255648 -7.5424231469165353 81.862023613161583 0 0 -1 I I #
point $-1 57.678762169255648 -7.5424231469165353 5.3131034181338883 #
straight-curve $-1 57.678762169255641 -1.8856057867291334 1.4775709599585269 0 1 0 I I #
point $-1 57.678762169255648 -7.5424231469165353 1.4775709599585127 #
point $-1 54.189573527891483 -5.3874451049403831 1.8274234975310386 #
point $-1 54.189573527891483 -2.1549780419761539 1.8274234975310386 #
straight-curve $-1 57.678762169255648 5.0859287827217283 81.862023613161583 0 0 -1 I I #
point $-1 57.678762169255648 5.0859287827217283 5.3131034181338883 #
straight-curve $-1 57.678762169255641 4.4285701780899984 1.4775709599585269 0 1 0 I I #
point $-1 57.678762169255648 5.0859287827217283 1.4775709599585127 #
point $-1 54.189573527891483 7.2409068246978805 1.8274234975310386 #
point $-1 54.189573527891483 10.473373887662106 1.8274234975310386 #
straight-curve $-1 54.572809309332726 10.74274614290913 5.313103418133899 0 -1 0 I I #
edge $-1 $639 -57.678762169255648 $633 -54.572809309332726 $631 $687 forward 7 unknown #
point $-1 54.572809309332726 25.256703859276527 5.3131034181338919 #
straight-curve $-1 57.678762169255648 25.256703859276527 0 0 0 -1 I I #
point $-1 57.678762169255648 25.256703859276527 5.3131034181338883 #
point $-1 54.189573527891483 19.869258754336144 1.8274234975310386 #
point $-1 54.189573527891483 23.10172581730037 1.8274234975310386 #
straight-curve $-1 -61.766623434598202 0 -5.3131034181338883 0 1 0 I I #
straight-curve $-1 -61.766623434598202 -25.256703859276527 -3.8060512894934329 0 0 -1 I I #
point $-1 -61.766623434598202 -25.256703859276527 -5.3131034181338883 #
straight-curve $-1 0 25.256703859276527 5.3131034181338883 -1 0 0 I I #
End-of-ACIS-data 