500 0 15 0           
7 Unknown 11 ACIS 5.0 NT 24 Thu Mar 25 15:15:35 1999 
-1 9.9999999999999995e-007 1e-010 
body $-1 $15 $-1 $16 #
body $-1 $17 $-1 $18 #
body $-1 $19 $-1 $20 #
body $-1 $21 $-1 $22 #
body $-1 $23 $-1 $24 #
body $-1 $25 $-1 $26 #
body $-1 $27 $-1 $28 #
body $-1 $29 $-1 $30 #
body $-1 $31 $-1 $32 #
body $-1 $33 $-1 $34 #
body $-1 $35 $-1 $36 #
body $-1 $37 $-1 $38 #
body $-1 $39 $-1 $40 #
body $-1 $41 $-1 $42 #
body $-1 $43 $-1 $44 #
lump $-1 $-1 $45 $0 #
transform $-1 1 0 0 0 1 0 0 0 1 69.591967528305915 34.664517874996115 11.782677716493554 1 rotate no_reflect no_shear #
lump $-1 $-1 $46 $1 #
transform $-1 1 0 0 0 1 0 0 0 1 69.591967528305915 34.664517874996115 11.782677716493554 1 rotate no_reflect no_shear #
lump $-1 $-1 $47 $2 #
transform $-1 1 0 0 0 1 0 0 0 1 69.591967528305915 34.664517874996115 11.782677716493554 1 rotate no_reflect no_shear #
lump $-1 $-1 $48 $3 #
transform $-1 1 0 0 0 1 0 0 0 1 69.591967528305915 34.664517874996115 11.782677716493554 1 rotate no_reflect no_shear #
lump $-1 $-1 $49 $4 #
transform $-1 1 0 0 0 1 0 0 0 1 69.591967528305915 34.664517874996115 11.782677716493554 1 rotate no_reflect no_shear #
lump $-1 $-1 $50 $5 #
transform $-1 1 0 0 0 1 0 0 0 1 69.591967528305915 34.664517874996115 11.782677716493554 1 rotate no_reflect no_shear #
lump $-1 $-1 $51 $6 #
transform $-1 1 0 0 0 1 0 0 0 1 69.591967528305915 34.664517874996115 11.782677716493554 1 rotate no_reflect no_shear #
lump $-1 $-1 $52 $7 #
transform $-1 1 0 0 0 1 0 0 0 1 69.591967528305915 34.664517874996115 11.782677716493554 1 rotate no_reflect no_shear #
lump $-1 $-1 $53 $8 #
transform $-1 1 0 0 0 1 0 0 0 1 69.591967528305915 34.664517874996115 11.782677716493554 1 rotate no_reflect no_shear #
lump $-1 $-1 $54 $9 #
transform $-1 1 0 0 0 1 0 0 0 1 69.591967528305915 34.664517874996115 11.782677716493554 1 rotate no_reflect no_shear #
lump $-1 $-1 $55 $10 #
transform $-1 1 0 0 0 1 0 0 0 1 69.591967528305915 34.664517874996115 11.782677716493554 1 rotate no_reflect no_shear #
lump $-1 $-1 $56 $11 #
transform $-1 1 0 0 0 1 0 0 0 1 69.591967528305915 34.664517874996115 11.782677716493554 1 rotate no_reflect no_shear #
lump $-1 $-1 $57 $12 #
transform $-1 1 0 0 0 1 0 0 0 1 69.591967528305915 34.664517874996115 11.782677716493554 1 rotate no_reflect no_shear #
lump $-1 $-1 $58 $13 #
transform $-1 1 0 0 0 1 0 0 0 1 69.591967528305915 34.664517874996115 11.782677716493554 1 rotate no_reflect no_shear #
lump $-1 $-1 $59 $14 #
transform $-1 1 0 0 0 1 0 0 0 1 69.591967528305915 34.664517874996115 11.782677716493554 1 rotate no_reflect no_shear #
shell $-1 $-1 $-1 $60 $-1 $15 #
shell $-1 $-1 $-1 $61 $-1 $17 #
shell $-1 $-1 $-1 $62 $-1 $19 #
shell $-1 $-1 $-1 $63 $-1 $21 #
shell $-1 $-1 $-1 $64 $-1 $23 #
shell $-1 $-1 $-1 $65 $-1 $25 #
shell $-1 $-1 $-1 $66 $-1 $27 #
shell $-1 $-1 $-1 $67 $-1 $29 #
shell $-1 $-1 $-1 $68 $-1 $31 #
shell $-1 $-1 $-1 $69 $-1 $33 #
shell $-1 $-1 $-1 $70 $-1 $35 #
shell $-1 $-1 $-1 $71 $-1 $37 #
shell $-1 $-1 $-1 $72 $-1 $39 #
shell $-1 $-1 $-1 $73 $-1 $41 #
shell $-1 $-1 $-1 $74 $-1 $43 #
face $-1 $75 $76 $45 $-1 $77 forward single #
face $-1 $78 $79 $46 $-1 $80 reversed single #
face $-1 $81 $82 $47 $-1 $83 reversed single #
face $-1 $84 $85 $48 $-1 $86 reversed single #
face $-1 $87 $88 $49 $-1 $89 forward single #
face $-1 $90 $91 $50 $-1 $92 forward single #
face $-1 $93 $94 $51 $-1 $95 reversed single #
face $-1 $96 $97 $52 $-1 $98 forward single #
face $-1 $99 $100 $53 $-1 $101 forward single #
face $-1 $102 $103 $54 $-1 $104 reversed single #
face $-1 $105 $106 $55 $-1 $107 forward single #
face $-1 $108 $109 $56 $-1 $110 forward single #
face $-1 $111 $112 $57 $-1 $113 reversed single #
face $-1 $114 $115 $58 $-1 $116 forward single #
face $-1 $117 $118 $59 $-1 $119 forward single #
face $-1 $120 $121 $45 $-1 $122 reversed single #
loop $-1 $-1 $123 $60 #
plane-surface $-1 0 0 11.782677716493554 0 0 1 1 0 0 forward_v I I I I #
face $-1 $124 $125 $46 $-1 $126 reversed single #
loop $-1 $-1 $127 $61 #
plane-surface $-1 -64.816547172954472 0 8.5530582321673965 0 0 1 1 0 0 forward_v I I I I #
face $-1 $128 $129 $47 $-1 $130 reversed single #
loop $-1 $-1 $131 $62 #
plane-surface $-1 64.816547172954486 0 8.5530582321673965 0 0 1 1 0 0 forward_v I I I I #
face $-1 $132 $133 $48 $-1 $134 reversed single #
loop $-1 $-1 $135 $63 #
plane-surface $-1 -30.020563408801525 -114.4971443709581 115.19671142105463 -1 0 0 0 -0.57357644374324357 0.81915203911291934 forward_v I I I I #
face $-1 $136 $137 $49 $-1 $138 forward single #
loop $-1 $139 $140 $64 #
cone-surface $-1 -43.403115398927206 -26.645548702688636 5.8396792526040304 0 0.57357644374324357 -0.81915203911291934 1.5 0 0 1 I I 0 1 1.5 forward I I I I #
face $-1 $141 $142 $50 $-1 $143 forward single #
loop $-1 $144 $145 $65 #
cone-surface $-1 -35.373584204851795 -26.645548702688636 5.8396792526040304 0 0.57357644374324357 -0.81915203911291934 1.5 0 0 1 I I 0 1 1.5 forward I I I I #
face $-1 $146 $147 $51 $-1 $148 reversed single #
loop $-1 $-1 $149 $66 #
plane-surface $-1 -3.7616635408751939 -114.4971443709581 115.19671142105463 -1 0 0 0 -0.57357644374324357 0.81915203911291934 forward_v I I I I #
face $-1 $150 $151 $52 $-1 $152 forward single #
loop $-1 $153 $154 $67 #
cone-surface $-1 -17.144215531000874 -26.645548702688636 5.8396792526040304 0 0.57357644374324357 -0.81915203911291934 1.5 0 0 1 I I 0 1 1.5 forward I I I I #
face $-1 $155 $156 $53 $-1 $157 forward single #
loop $-1 $158 $159 $68 #
cone-surface $-1 -9.114684336925464 -26.645548702688636 5.8396792526040304 0 0.57357644374324357 -0.81915203911291934 1.5 0 0 1 I I 0 1 1.5 forward I I I I #
face $-1 $160 $161 $54 $-1 $162 reversed single #
loop $-1 $-1 $163 $69 #
plane-surface $-1 22.497236327051137 -114.4971443709581 115.19671142105463 -1 0 0 0 -0.57357644374324357 0.81915203911291934 forward_v I I I I #
face $-1 $164 $165 $55 $-1 $166 forward single #
loop $-1 $167 $168 $70 #
cone-surface $-1 9.114684336925464 -26.645548702688636 5.8396792526040304 0 0.57357644374324357 -0.81915203911291934 1.5 0 0 1 I I 0 1 1.5 forward I I I I #
face $-1 $169 $170 $56 $-1 $171 forward single #
loop $-1 $172 $173 $71 #
cone-surface $-1 17.144215531000867 -26.645548702688636 5.8396792526040304 0 0.57357644374324357 -0.81915203911291934 1.5 0 0 1 I I 0 1 1.5 forward I I I I #
face $-1 $174 $175 $57 $-1 $176 reversed single #
loop $-1 $-1 $177 $72 #
plane-surface $-1 48.756136194977472 -114.4971443709581 115.19671142105463 -1 0 0 0 -0.57357644374324357 0.81915203911291934 forward_v I I I I #
face $-1 $178 $179 $58 $-1 $180 forward single #
loop $-1 $181 $182 $73 #
cone-surface $-1 35.373584204851795 -26.645548702688636 5.8396792526040304 0 0.57357644374324357 -0.81915203911291934 1.5 0 0 1 I I 0 1 1.5 forward I I I I #
face $-1 $183 $184 $59 $-1 $185 forward single #
loop $-1 $186 $187 $74 #
cone-surface $-1 43.403115398927198 -26.645548702688636 5.8396792526040304 0 0.57357644374324357 -0.81915203911291934 1.5 0 0 1 I I 0 1 1.5 forward I I I I #
face $-1 $188 $189 $45 $-1 $190 reversed single #
loop $-1 $-1 $191 $75 #
plane-surface $-1 0 0 -11.782677716493554 0 0 1 1 0 0 forward_v I I I I #
coedge $-1 $192 $193 $194 $195 forward $76 $-1 #
face $-1 $196 $197 $46 $-1 $198 reversed single #
loop $-1 $-1 $199 $78 #
plane-surface $-1 -60.041126817603036 0 10.167867974330475 -1 0 0 0 0 1 forward_v I I I I #
coedge $-1 $200 $201 $202 $203 forward $79 $-1 #
face $-1 $204 $205 $47 $-1 $206 forward single #
loop $-1 $-1 $207 $81 #
plane-surface $-1 60.041126817603043 0 10.167867974330475 1 0 0 0 0 -1 forward_v I I I I #
coedge $-1 $208 $209 $210 $211 reversed $82 $-1 #
face $-1 $212 $213 $48 $-1 $214 reversed single #
loop $-1 $-1 $215 $84 #
plane-surface $-1 -39.388349801889504 -34.664517874996122 1.183907207670913 0 -0.57357644374324357 0.81915203911291934 1 0 0 forward_v I I I I #
coedge $-1 $216 $217 $218 $219 reversed $85 $-1 #
face $-1 $-1 $220 $49 $-1 $221 forward single #
loop $-1 $222 $223 $87 #
cone-surface $-1 -43.403115398927206 -25.764703540257475 4.5817020137911495 0 0.57357644374324357 -0.81915203911291934 0.75 0 0 1 I I -0.70710678118654757 0.70710678118654757 0.75 forward I I I I #
loop $-1 $-1 $224 $64 #
coedge $-1 $140 $140 $225 $226 reversed $88 $-1 #
face $-1 $-1 $227 $50 $-1 $228 forward single #
loop $-1 $229 $230 $90 #
cone-surface $-1 -35.373584204851795 -25.764703540257475 4.5817020137911495 0 0.57357644374324357 -0.81915203911291934 0.75 0 0 1 I I -0.70710678118654757 0.70710678118654757 0.75 forward I I I I #
loop $-1 $-1 $231 $65 #
coedge $-1 $145 $145 $232 $233 reversed $91 $-1 #
face $-1 $234 $235 $51 $-1 $236 reversed single #
loop $-1 $-1 $237 $93 #
plane-surface $-1 -13.129449933963173 -34.664517874996122 1.183907207670913 0 -0.57357644374324357 0.81915203911291934 1 0 0 forward_v I I I I #
coedge $-1 $238 $239 $240 $241 reversed $94 $-1 #
face $-1 $-1 $242 $52 $-1 $243 forward single #
loop $-1 $244 $245 $96 #
cone-surface $-1 -17.144215531000874 -25.764703540257475 4.5817020137911495 0 0.57357644374324357 -0.81915203911291934 0.75 0 0 1 I I -0.70710678118654757 0.70710678118654757 0.75 forward I I I I #
loop $-1 $-1 $246 $67 #
coedge $-1 $154 $154 $247 $248 reversed $97 $-1 #
face $-1 $-1 $249 $53 $-1 $250 forward single #
loop $-1 $251 $252 $99 #
cone-surface $-1 -9.114684336925464 -25.764703540257475 4.5817020137911495 0 0.57357644374324357 -0.81915203911291934 0.75 0 0 1 I I -0.70710678118654757 0.70710678118654757 0.75 forward I I I I #
loop $-1 $-1 $253 $68 #
coedge $-1 $159 $159 $254 $255 reversed $100 $-1 #
face $-1 $256 $257 $54 $-1 $258 reversed single #
loop $-1 $-1 $259 $102 #
plane-surface $-1 13.129449933963159 -34.664517874996122 1.183907207670913 0 -0.57357644374324357 0.81915203911291934 1 0 0 forward_v I I I I #
coedge $-1 $260 $261 $262 $263 reversed $103 $-1 #
face $-1 $-1 $264 $55 $-1 $265 forward single #
loop $-1 $266 $267 $105 #
cone-surface $-1 9.114684336925464 -25.764703540257475 4.5817020137911495 0 0.57357644374324357 -0.81915203911291934 0.75 0 0 1 I I -0.70710678118654757 0.70710678118654757 0.75 forward I I I I #
loop $-1 $-1 $268 $70 #
coedge $-1 $168 $168 $269 $270 reversed $106 $-1 #
face $-1 $-1 $271 $56 $-1 $272 forward single #
loop $-1 $273 $274 $108 #
cone-surface $-1 17.144215531000867 -25.764703540257475 4.5817020137911495 0 0.57357644374324357 -0.81915203911291934 0.75 0 0 1 I I -0.70710678118654757 0.70710678118654757 0.75 forward I I I I #
loop $-1 $-1 $275 $71 #
coedge $-1 $173 $173 $276 $277 reversed $109 $-1 #
face $-1 $278 $279 $57 $-1 $280 reversed single #
loop $-1 $-1 $281 $111 #
plane-surface $-1 39.38834980188949 -34.664517874996122 1.183907207670913 0 -0.57357644374324357 0.81915203911291934 1 0 0 forward_v I I I I #
coedge $-1 $282 $283 $284 $285 reversed $112 $-1 #
face $-1 $-1 $286 $58 $-1 $287 forward single #
loop $-1 $288 $289 $114 #
cone-surface $-1 35.373584204851795 -25.764703540257475 4.5817020137911495 0 0.57357644374324357 -0.81915203911291934 0.75 0 0 1 I I -0.70710678118654757 0.70710678118654757 0.75 forward I I I I #
loop $-1 $-1 $290 $73 #
coedge $-1 $182 $182 $291 $292 reversed $115 $-1 #
face $-1 $-1 $293 $59 $-1 $294 forward single #
loop $-1 $295 $296 $117 #
cone-surface $-1 43.403115398927198 -25.764703540257475 4.5817020137911495 0 0.57357644374324357 -0.81915203911291934 0.75 0 0 1 I I -0.70710678118654757 0.70710678118654757 0.75 forward I I I I #
loop $-1 $-1 $297 $74 #
coedge $-1 $187 $187 $298 $299 reversed $118 $-1 #
face $-1 $300 $301 $45 $-1 $302 reversed single #
loop $-1 $-1 $303 $120 #
plane-surface $-1 0 -34.664517874996115 0 0 1 0 0 0 1 forward_v I I I I #
coedge $-1 $304 $305 $306 $307 forward $121 $-1 #
coedge $-1 $308 $123 $309 $310 forward $76 $-1 #
coedge $-1 $123 $308 $311 $312 forward $76 $-1 #
coedge $-1 $313 $314 $123 $195 reversed $315 $-1 #
edge $-1 $316 -34.664517874996115 $317 34.664517874996115 $194 $318 forward 7 unknown #
face $-1 $319 $320 $46 $-1 $321 reversed single #
loop $-1 $-1 $322 $124 #
plane-surface $-1 0 34.664517874996115 0 0 -1 0 0 0 -1 forward_v I I I I #
coedge $-1 $202 $323 $324 $325 reversed $125 $-1 #
coedge $-1 $326 $127 $327 $328 reversed $79 $-1 #
coedge $-1 $127 $326 $329 $330 reversed $79 $-1 #
coedge $-1 $331 $199 $127 $203 reversed $125 $-1 #
edge $-1 $332 -34.664517874996115 $333 34.664517874996115 $202 $334 forward 7 unknown #
face $-1 $335 $336 $47 $-1 $337 reversed single #
loop $-1 $-1 $338 $128 #
plane-surface $-1 0 0 11.782677716493554 0 0 1 1 0 0 forward_v I I I I #
coedge $-1 $339 $340 $341 $342 reversed $129 $-1 #
coedge $-1 $343 $131 $344 $345 reversed $82 $-1 #
coedge $-1 $131 $343 $346 $347 reversed $82 $-1 #
coedge $-1 $348 $349 $131 $211 forward $350 $-1 #
edge $-1 $351 -34.664517874996115 $352 34.664517874996115 $210 $353 forward 7 unknown #
face $-1 $354 $355 $48 $-1 $356 forward single #
loop $-1 $-1 $357 $132 #
plane-surface $-1 -48.756136194977486 -114.4971443709581 115.19671142105463 1 0 0 0 0.57357644374324357 -0.81915203911291934 forward_v I I I I #
coedge $-1 $358 $359 $360 $361 reversed $133 $-1 #
coedge $-1 $217 $135 $362 $363 reversed $85 $-1 #
coedge $-1 $135 $216 $358 $364 reversed $85 $-1 #
coedge $-1 $360 $365 $135 $219 forward $355 $-1 #
edge $-1 $366 22.584054310482934 $367 37.720666995850394 $218 $368 forward 7 unknown #
loop $-1 $-1 $225 $136 #
plane-surface $-1 -39.388349801889504 -34.664517874996122 1.183907207670913 0 -0.57357644374324357 0.81915203911291934 1 0 0 forward_v I I I I #
loop $-1 $-1 $369 $87 #
coedge $-1 $223 $223 $224 $370 reversed $137 $-1 #
coedge $-1 $224 $224 $223 $370 forward $139 $-1 #
coedge $-1 $225 $225 $140 $226 forward $220 $-1 #
edge $-1 $371 -1.3117097625877034e-015 $371 6.2831853071795996 $225 $372 forward 7 unknown #
loop $-1 $-1 $232 $141 #
plane-surface $-1 -39.388349801889504 -34.664517874996122 1.183907207670913 0 -0.57357644374324357 0.81915203911291934 1 0 0 forward_v I I I I #
loop $-1 $-1 $373 $90 #
coedge $-1 $230 $230 $231 $374 reversed $142 $-1 #
coedge $-1 $231 $231 $230 $374 forward $144 $-1 #
coedge $-1 $232 $232 $145 $233 forward $227 $-1 #
edge $-1 $375 -1.3117097625877034e-015 $375 6.2831853071795996 $232 $376 forward 7 unknown #
face $-1 $377 $378 $51 $-1 $379 reversed single #
loop $-1 $-1 $380 $146 #
plane-surface $-1 -22.497236327051152 -114.4971443709581 115.19671142105463 1 0 0 0 0.57357644374324357 -0.81915203911291934 forward_v I I I I #
coedge $-1 $381 $382 $383 $384 reversed $147 $-1 #
coedge $-1 $239 $149 $385 $386 reversed $94 $-1 #
coedge $-1 $149 $238 $381 $387 reversed $94 $-1 #
coedge $-1 $383 $388 $149 $241 forward $389 $-1 #
edge $-1 $390 22.584054310482934 $391 37.720666995850394 $240 $392 forward 7 unknown #
loop $-1 $-1 $247 $150 #
plane-surface $-1 -13.129449933963173 -34.664517874996122 1.183907207670913 0 -0.57357644374324357 0.81915203911291934 1 0 0 forward_v I I I I #
loop $-1 $-1 $393 $96 #
coedge $-1 $245 $245 $246 $394 reversed $151 $-1 #
coedge $-1 $246 $246 $245 $394 forward $153 $-1 #
coedge $-1 $247 $247 $154 $248 forward $242 $-1 #
edge $-1 $395 -1.3117097625877034e-015 $395 6.2831853071795996 $247 $396 forward 7 unknown #
loop $-1 $-1 $254 $155 #
plane-surface $-1 -13.129449933963173 -34.664517874996122 1.183907207670913 0 -0.57357644374324357 0.81915203911291934 1 0 0 forward_v I I I I #
loop $-1 $-1 $397 $99 #
coedge $-1 $252 $252 $253 $398 reversed $156 $-1 #
coedge $-1 $253 $253 $252 $398 forward $158 $-1 #
coedge $-1 $254 $254 $159 $255 forward $249 $-1 #
edge $-1 $399 -1.3117097625877034e-015 $399 6.2831853071795996 $254 $400 forward 7 unknown #
face $-1 $401 $402 $54 $-1 $403 reversed single #
loop $-1 $-1 $404 $160 #
plane-surface $-1 3.7616635408751797 -114.4971443709581 115.19671142105463 1 0 0 0 0.57357644374324357 -0.81915203911291934 forward_v I I I I #
coedge $-1 $405 $406 $407 $408 reversed $161 $-1 #
coedge $-1 $261 $163 $409 $410 reversed $103 $-1 #
coedge $-1 $163 $260 $405 $411 reversed $103 $-1 #
coedge $-1 $407 $412 $163 $263 forward $413 $-1 #
edge $-1 $414 22.584054310482934 $415 37.720666995850394 $262 $416 forward 7 unknown #
loop $-1 $-1 $269 $164 #
plane-surface $-1 13.129449933963159 -34.664517874996122 1.183907207670913 0 -0.57357644374324357 0.81915203911291934 1 0 0 forward_v I I I I #
loop $-1 $-1 $417 $105 #
coedge $-1 $267 $267 $268 $418 reversed $165 $-1 #
coedge $-1 $268 $268 $267 $418 forward $167 $-1 #
coedge $-1 $269 $269 $168 $270 forward $264 $-1 #
edge $-1 $419 -1.3117097625877034e-015 $419 6.2831853071795996 $269 $420 forward 7 unknown #
loop $-1 $-1 $276 $169 #
plane-surface $-1 13.129449933963159 -34.664517874996122 1.183907207670913 0 -0.57357644374324357 0.81915203911291934 1 0 0 forward_v I I I I #
loop $-1 $-1 $421 $108 #
coedge $-1 $274 $274 $275 $422 reversed $170 $-1 #
coedge $-1 $275 $275 $274 $422 forward $172 $-1 #
coedge $-1 $276 $276 $173 $277 forward $271 $-1 #
edge $-1 $423 -1.3117097625877034e-015 $423 6.2831853071795996 $276 $424 forward 7 unknown #
face $-1 $425 $426 $57 $-1 $427 reversed single #
loop $-1 $-1 $428 $174 #
plane-surface $-1 30.020563408801511 -114.4971443709581 115.19671142105463 1 0 0 0 0.57357644374324357 -0.81915203911291934 forward_v I I I I #
coedge $-1 $429 $430 $431 $432 reversed $175 $-1 #
coedge $-1 $283 $177 $433 $434 reversed $112 $-1 #
coedge $-1 $177 $282 $429 $435 reversed $112 $-1 #
coedge $-1 $431 $436 $177 $285 forward $437 $-1 #
edge $-1 $438 22.584054310482934 $439 37.720666995850394 $284 $440 forward 7 unknown #
loop $-1 $-1 $291 $178 #
plane-surface $-1 39.38834980188949 -34.664517874996122 1.183907207670913 0 -0.57357644374324357 0.81915203911291934 1 0 0 forward_v I I I I #
loop $-1 $-1 $441 $114 #
coedge $-1 $289 $289 $290 $442 reversed $179 $-1 #
coedge $-1 $290 $290 $289 $442 forward $181 $-1 #
coedge $-1 $291 $291 $182 $292 forward $286 $-1 #
edge $-1 $443 -1.3117097625877034e-015 $443 6.2831853071795996 $291 $444 forward 7 unknown #
loop $-1 $-1 $298 $183 #
plane-surface $-1 39.38834980188949 -34.664517874996122 1.183907207670913 0 -0.57357644374324357 0.81915203911291934 1 0 0 forward_v I I I I #
loop $-1 $-1 $445 $117 #
coedge $-1 $296 $296 $297 $446 reversed $184 $-1 #
coedge $-1 $297 $297 $296 $446 forward $186 $-1 #
coedge $-1 $298 $298 $187 $299 forward $293 $-1 #
edge $-1 $447 -1.3117097625877034e-015 $447 6.2831853071795996 $298 $448 forward 7 unknown #
face $-1 $449 $450 $45 $-1 $451 reversed single #
loop $-1 $-1 $452 $188 #
plane-surface $-1 -69.591967528305915 0 0 1 0 0 0 0 -1 forward_v I I I I #
coedge $-1 $453 $311 $454 $455 forward $189 $-1 #
coedge $-1 $456 $191 $453 $457 forward $121 $-1 #
coedge $-1 $191 $456 $458 $459 forward $121 $-1 #
coedge $-1 $314 $313 $191 $307 reversed $315 $-1 #
edge $-1 $460 -34.664517874996115 $461 34.664517874996115 $306 $462 forward 7 unknown #
coedge $-1 $193 $192 $463 $464 forward $76 $-1 #
coedge $-1 $465 $466 $192 $310 reversed $450 $-1 #
edge $-1 $317 -69.591967528305915 $467 69.591967528305915 $309 $468 forward 7 unknown #
coedge $-1 $303 $469 $193 $312 reversed $189 $-1 #
edge $-1 $470 -69.591967528305915 $316 69.591967528305915 $311 $471 forward 7 unknown #
coedge $-1 $306 $194 $469 $472 forward $315 $-1 #
coedge $-1 $194 $306 $465 $473 reversed $315 $-1 #
loop $-1 $-1 $313 $449 #
vertex $-1 $195 $474 #
vertex $-1 $195 $475 #
straight-curve $-1 69.591967528305915 0 11.782677716493554 0 1 0 I I #
face $-1 $476 $477 $46 $-1 $478 forward single #
loop $-1 $-1 $479 $196 #
plane-surface $-1 -69.591967528305915 0 0 1 0 0 0 0 -1 forward_v I I I I #
coedge $-1 $329 $480 $331 $481 forward $197 $-1 #
coedge $-1 $199 $331 $482 $483 reversed $125 $-1 #
coedge $-1 $484 $327 $199 $325 forward $485 $-1 #
edge $-1 $333 3.4691242450021589 $486 6.6987437293283163 $324 $487 forward 7 unknown #
coedge $-1 $201 $200 $479 $488 reversed $79 $-1 #
coedge $-1 $324 $489 $200 $328 forward $485 $-1 #
edge $-1 $490 -37.183693941828679 $333 -27.6328532311258 $327 $491 forward 7 unknown #
coedge $-1 $492 $322 $201 $330 forward $197 $-1 #
edge $-1 $332 27.6328532311258 $493 37.183693941828679 $329 $494 forward 7 unknown #
coedge $-1 $323 $202 $322 $481 reversed $125 $-1 #
vertex $-1 $330 $495 #
vertex $-1 $328 $496 #
straight-curve $-1 -60.041126817603036 0 8.5530582321673965 0 -1 0 I I #
face $-1 $497 $498 $47 $-1 $499 reversed single #
loop $-1 $-1 $500 $204 #
plane-surface $-1 0 -34.664517874996115 0 0 1 0 0 0 1 forward_v I I I I #
coedge $-1 $501 $502 $340 $503 forward $205 $-1 #
coedge $-1 $504 $207 $343 $505 reversed $129 $-1 #
coedge $-1 $207 $504 $338 $503 reversed $129 $-1 #
coedge $-1 $506 $346 $207 $342 forward $498 $-1 #
edge $-1 $507 3.4691242450021589 $508 6.6987437293283163 $341 $509 forward 7 unknown #
coedge $-1 $209 $208 $339 $505 forward $82 $-1 #
coedge $-1 $510 $500 $208 $345 forward $336 $-1 #
edge $-1 $511 27.6328532311258 $351 37.183693941828686 $344 $512 forward 7 unknown #
coedge $-1 $341 $513 $209 $347 forward $498 $-1 #
edge $-1 $352 -37.183693941828686 $507 -27.6328532311258 $346 $514 forward 7 unknown #
coedge $-1 $515 $210 $513 $516 reversed $350 $-1 #
coedge $-1 $210 $515 $510 $517 forward $350 $-1 #
loop $-1 $-1 $210 $497 #
vertex $-1 $345 $518 #
vertex $-1 $211 $519 #
straight-curve $-1 69.591967528305915 0 8.5530582321673965 0 1 0 I I #
face $-1 $-1 $520 $48 $-1 $521 reversed single #
loop $-1 $-1 $218 $212 #
plane-surface $-1 0 0 11.782677716493554 0 0 1 1 0 0 forward_v I I I I #
coedge $-1 $522 $523 $524 $525 reversed $213 $-1 #
coedge $-1 $526 $215 $217 $364 forward $133 $-1 #
coedge $-1 $215 $526 $522 $527 forward $133 $-1 #
coedge $-1 $524 $218 $215 $361 forward $355 $-1 #
edge $-1 $367 10.326388507856773 $528 29.061961294032734 $360 $529 forward 7 unknown #
coedge $-1 $530 $531 $216 $363 forward $520 $-1 #
edge $-1 $532 -56.414448502856395 $366 -45.815677994033763 $362 $533 forward 7 unknown #
edge $-1 $367 -18.478392242982501 $532 -8.6223355153435888e-015 $217 $534 forward 7 unknown #
coedge $-1 $218 $524 $530 $535 forward $355 $-1 #
vertex $-1 $363 $536 #
vertex $-1 $219 $537 #
straight-curve $-1 -30.020563408801525 -57.248572185479048 11.782677716493552 0 1 0 I I #
coedge $-1 $369 $369 $-1 $538 reversed $222 $-1 #
edge $-1 $539 0 $539 6.2831853071796004 $223 $540 forward 7 unknown #
vertex $-1 $226 $541 #
ellipse-curve $-1 -43.403115398927206 -27.096211532312378 6.4832924620822405 0 -0.57357644374324357 0.81915203911291934 1.5 0 0 1 I I #
coedge $-1 $373 $373 $-1 $542 reversed $229 $-1 #
edge $-1 $543 0 $543 6.2831853071796004 $230 $544 forward 7 unknown #
vertex $-1 $233 $545 #
ellipse-curve $-1 -35.373584204851795 -27.096211532312378 6.4832924620822405 0 -0.57357644374324357 0.81915203911291934 1.5 0 0 1 I I #
face $-1 $-1 $389 $51 $-1 $546 forward single #
loop $-1 $-1 $547 $234 #
plane-surface $-1 0 -34.664517874996115 0 0 1 0 0 0 1 forward_v I I I I #
coedge $-1 $548 $549 $550 $551 reversed $235 $-1 #
coedge $-1 $552 $237 $239 $387 forward $147 $-1 #
coedge $-1 $237 $552 $548 $553 forward $147 $-1 #
coedge $-1 $550 $240 $237 $384 forward $389 $-1 #
edge $-1 $391 -2.8030614261063924 $554 15.932511360069565 $383 $555 forward 7 unknown #
coedge $-1 $556 $557 $238 $386 forward $378 $-1 #
edge $-1 $558 -56.414448502856395 $390 -45.815677994033763 $385 $559 forward 7 unknown #
edge $-1 $391 -18.478392242982501 $558 -8.6223355153435888e-015 $239 $560 forward 7 unknown #
coedge $-1 $240 $550 $556 $561 forward $389 $-1 #
loop $-1 $-1 $550 $377 #
vertex $-1 $386 $562 #
vertex $-1 $241 $563 #
straight-curve $-1 -3.7616635408751939 -57.248572185479048 11.782677716493552 0 1 0 I I #
coedge $-1 $393 $393 $-1 $564 reversed $244 $-1 #
edge $-1 $565 0 $565 6.2831853071796004 $245 $566 forward 7 unknown #
vertex $-1 $248 $567 #
ellipse-curve $-1 -17.144215531000874 -27.096211532312378 6.4832924620822405 0 -0.57357644374324357 0.81915203911291934 1.5 0 0 1 I I #
coedge $-1 $397 $397 $-1 $568 reversed $251 $-1 #
edge $-1 $569 0 $569 6.2831853071796004 $252 $570 forward 7 unknown #
vertex $-1 $255 $571 #
ellipse-curve $-1 -9.114684336925464 -27.096211532312378 6.4832924620822405 0 -0.57357644374324357 0.81915203911291934 1.5 0 0 1 I I #
face $-1 $-1 $413 $54 $-1 $572 forward single #
loop $-1 $-1 $573 $256 #
plane-surface $-1 0 -34.664517874996115 0 0 1 0 0 0 1 forward_v I I I I #
coedge $-1 $574 $575 $576 $577 reversed $257 $-1 #
coedge $-1 $578 $259 $261 $411 forward $161 $-1 #
coedge $-1 $259 $578 $574 $579 forward $161 $-1 #
coedge $-1 $576 $262 $259 $408 forward $413 $-1 #
edge $-1 $415 -15.932511360069558 $580 2.8030614261063995 $407 $581 forward 7 unknown #
coedge $-1 $582 $583 $260 $410 forward $402 $-1 #
edge $-1 $584 -56.414448502856395 $414 -45.815677994033763 $409 $585 forward 7 unknown #
edge $-1 $415 -18.478392242982501 $584 -8.6223355153435888e-015 $261 $586 forward 7 unknown #
coedge $-1 $262 $576 $582 $587 forward $413 $-1 #
loop $-1 $-1 $576 $401 #
vertex $-1 $410 $588 #
vertex $-1 $263 $589 #
straight-curve $-1 22.497236327051137 -57.248572185479048 11.782677716493552 0 1 0 I I #
coedge $-1 $417 $417 $-1 $590 reversed $266 $-1 #
edge $-1 $591 0 $591 6.2831853071796004 $267 $592 forward 7 unknown #
vertex $-1 $270 $593 #
ellipse-curve $-1 9.114684336925464 -27.096211532312378 6.4832924620822405 0 -0.57357644374324357 0.81915203911291934 1.5 0 0 1 I I #
coedge $-1 $421 $421 $-1 $594 reversed $273 $-1 #
edge $-1 $595 0 $595 6.2831853071796004 $274 $596 forward 7 unknown #
vertex $-1 $277 $597 #
ellipse-curve $-1 17.144215531000867 -27.096211532312378 6.4832924620822405 0 -0.57357644374324357 0.81915203911291934 1.5 0 0 1 I I #
face $-1 $-1 $437 $57 $-1 $598 forward single #
loop $-1 $-1 $599 $278 #
plane-surface $-1 0 -34.664517874996115 0 0 1 0 0 0 1 forward_v I I I I #
coedge $-1 $600 $601 $602 $603 reversed $279 $-1 #
coedge $-1 $604 $281 $283 $435 forward $175 $-1 #
coedge $-1 $281 $604 $600 $605 forward $175 $-1 #
coedge $-1 $602 $284 $281 $432 forward $437 $-1 #
edge $-1 $439 -29.061961294032727 $606 -10.326388507856766 $431 $607 forward 7 unknown #
coedge $-1 $608 $609 $282 $434 forward $426 $-1 #
edge $-1 $610 -56.414448502856395 $438 -45.815677994033763 $433 $611 forward 7 unknown #
edge $-1 $439 -18.478392242982501 $610 -8.6223355153435888e-015 $283 $612 forward 7 unknown #
coedge $-1 $284 $602 $608 $613 forward $437 $-1 #
loop $-1 $-1 $602 $425 #
vertex $-1 $434 $614 #
vertex $-1 $285 $615 #
straight-curve $-1 48.756136194977472 -57.248572185479048 11.782677716493552 0 1 0 I I #
coedge $-1 $441 $441 $-1 $616 reversed $288 $-1 #
edge $-1 $617 0 $617 6.2831853071796004 $289 $618 forward 7 unknown #
vertex $-1 $292 $619 #
ellipse-curve $-1 35.373584204851795 -27.096211532312378 6.4832924620822405 0 -0.57357644374324357 0.81915203911291934 1.5 0 0 1 I I #
coedge $-1 $445 $445 $-1 $620 reversed $295 $-1 #
edge $-1 $621 0 $621 6.2831853071796004 $296 $622 forward 7 unknown #
vertex $-1 $299 $623 #
ellipse-curve $-1 43.403115398927198 -27.096211532312378 6.4832924620822405 0 -0.57357644374324357 0.81915203911291934 1.5 0 0 1 I I #
face $-1 $-1 $315 $45 $-1 $624 reversed single #
loop $-1 $-1 $465 $300 #
plane-surface $-1 0 34.664517874996115 0 0 -1 0 0 0 -1 forward_v I I I I #
coedge $-1 $625 $463 $466 $626 forward $301 $-1 #
coedge $-1 $469 $303 $304 $457 reversed $189 $-1 #
coedge $-1 $463 $625 $303 $455 reversed $301 $-1 #
edge $-1 $470 -11.782677716493554 $627 11.782677716493554 $454 $628 forward 7 unknown #
coedge $-1 $305 $304 $625 $629 forward $121 $-1 #
edge $-1 $461 -69.591967528305915 $627 69.591967528305915 $453 $630 forward 7 unknown #
coedge $-1 $466 $465 $305 $459 reversed $450 $-1 #
edge $-1 $631 -69.591967528305915 $460 69.591967528305915 $458 $632 forward 7 unknown #
vertex $-1 $307 $633 #
vertex $-1 $472 $634 #
straight-curve $-1 69.591967528305915 0 -11.782677716493554 0 -1 0 I I #
coedge $-1 $452 $454 $308 $464 reversed $301 $-1 #
edge $-1 $467 -34.664517874996115 $470 34.664517874996115 $463 $635 forward 7 unknown #
coedge $-1 $458 $309 $314 $473 forward $450 $-1 #
coedge $-1 $309 $458 $452 $626 reversed $450 $-1 #
vertex $-1 $310 $636 #
straight-curve $-1 0 34.664517874996115 11.782677716493554 -1 0 0 I I #
coedge $-1 $311 $453 $313 $472 reversed $189 $-1 #
vertex $-1 $464 $637 #
straight-curve $-1 0 -34.664517874996115 11.782677716493554 1 0 0 I I #
edge $-1 $316 -11.782677716493554 $461 11.782677716493554 $313 $638 forward 7 unknown #
edge $-1 $317 -11.782677716493554 $460 11.782677716493554 $314 $639 forward 7 unknown #
point $-1 69.591967528305915 -34.664517874996115 11.782677716493554 #
point $-1 69.591967528305915 34.664517874996115 11.782677716493554 #
face $-1 $-1 $485 $46 $-1 $640 reversed single #
loop $-1 $-1 $482 $319 #
plane-surface $-1 0 0 11.782677716493554 0 0 1 1 0 0 forward_v I I I I #
coedge $-1 $641 $642 $326 $488 forward $320 $-1 #
coedge $-1 $322 $492 $643 $644 reversed $197 $-1 #
edge $-1 $645 -6.6987437293283163 $332 -3.4691242450021589 $322 $646 forward 7 unknown #
coedge $-1 $643 $647 $323 $483 forward $477 $-1 #
edge $-1 $486 -34.664517874996115 $645 34.664517874996115 $482 $648 forward 7 unknown #
coedge $-1 $489 $324 $647 $649 reversed $485 $-1 #
loop $-1 $-1 $324 $476 #
vertex $-1 $325 $650 #
straight-curve $-1 -60.041126817603036 -34.664517874996115 5.0839339871652376 0 0 1 I I #
edge $-1 $493 -34.664517874996115 $490 34.664517874996115 $479 $651 forward 7 unknown #
coedge $-1 $327 $484 $641 $652 forward $485 $-1 #
vertex $-1 $488 $653 #
straight-curve $-1 -32.408273586477236 -34.664517874996115 8.5530582321673965 1 0 0 I I #
coedge $-1 $480 $329 $642 $654 reversed $197 $-1 #
vertex $-1 $488 $655 #
straight-curve $-1 -32.408273586477236 34.664517874996115 8.5530582321673965 -1 0 0 I I #
point $-1 -60.041126817603036 34.664517874996115 8.5530582321673965 #
point $-1 -60.041126817603036 -34.664517874996115 8.5530582321673965 #
face $-1 $-1 $350 $47 $-1 $656 reversed single #
loop $-1 $-1 $341 $335 #
plane-surface $-1 0 34.664517874996115 0 0 -1 0 0 0 -1 forward_v I I I I #
coedge $-1 $344 $657 $504 $658 forward $336 $-1 #
coedge $-1 $659 $338 $657 $660 forward $205 $-1 #
coedge $-1 $338 $659 $506 $661 forward $205 $-1 #
edge $-1 $508 -34.664517874996115 $662 34.664517874996115 $338 $663 forward 7 unknown #
coedge $-1 $340 $339 $500 $658 reversed $129 $-1 #
edge $-1 $511 -34.664517874996115 $507 34.664517874996115 $339 $664 forward 7 unknown #
coedge $-1 $513 $341 $502 $661 reversed $498 $-1 #
vertex $-1 $347 $665 #
vertex $-1 $342 $666 #
straight-curve $-1 60.041126817603043 34.664517874996115 5.0839339871652376 0 0 1 I I #
coedge $-1 $657 $344 $349 $517 reversed $336 $-1 #
vertex $-1 $345 $667 #
straight-curve $-1 32.408273586477243 -34.664517874996115 8.5530582321673965 1 0 0 I I #
coedge $-1 $346 $506 $348 $516 forward $498 $-1 #
straight-curve $-1 32.408273586477243 34.664517874996115 8.5530582321673965 -1 0 0 I I #
coedge $-1 $349 $348 $659 $668 reversed $350 $-1 #
edge $-1 $669 -11.782677716493554 $352 -8.5530582321673965 $348 $670 forward 7 unknown #
edge $-1 $671 -11.782677716493554 $351 -8.5530582321673965 $349 $672 forward 7 unknown #
point $-1 69.591967528305929 -34.664517874996115 8.5530582321673965 #
point $-1 69.591967528305929 34.664517874996115 8.5530582321673965 #
loop $-1 $-1 $362 $354 #
plane-surface $-1 0 -34.664517874996115 0 0 1 0 0 0 1 forward_v I I I I #
coedge $-1 $523 $357 $359 $527 reversed $213 $-1 #
coedge $-1 $357 $522 $673 $674 reversed $213 $-1 #
coedge $-1 $365 $360 $357 $525 forward $355 $-1 #
edge $-1 $528 -37.720666995850394 $675 -22.584054310482934 $524 $676 forward 7 unknown #
coedge $-1 $359 $358 $531 $677 reversed $133 $-1 #
edge $-1 $678 8.6223355153435888e-015 $528 18.478392242982501 $522 $679 forward 7 unknown #
vertex $-1 $361 $680 #
straight-curve $-1 -19.694174900944752 -19.527905189628655 11.782677716493554 -1 0 0 I I #
coedge $-1 $673 $362 $365 $535 reversed $520 $-1 #
coedge $-1 $362 $673 $526 $677 forward $520 $-1 #
vertex $-1 $363 $681 #
straight-curve $-1 -30.020563408801525 -34.664517874996115 57.598355710527315 0 0 1 I I #
straight-curve $-1 -30.020563408801525 -34.664517874996122 1.183907207670913 0 -0.81915203911291934 -0.57357644374324357 I I #
edge $-1 $675 -48.756136194977486 $366 -30.020563408801525 $530 $682 forward 7 unknown #
point $-1 -30.020563408801525 -34.664517874996115 11.782677716493554 #
point $-1 -30.020563408801525 -19.527905189628655 11.782677716493554 #
edge $-1 $683 1 $683 0 $369 $-1 forward 7 unknown #
vertex $-1 $370 $684 #
ellipse-curve $-1 -43.403115398927206 -26.194885873064909 5.196066043125839 0 -0.57357644374324357 0.81915203911291934 1.5 0 0 1 I I #
point $-1 -41.903115398927206 -27.096211532312367 6.4832924620822219 #
edge $-1 $685 1 $685 0 $373 $-1 forward 7 unknown #
vertex $-1 $374 $686 #
ellipse-curve $-1 -35.373584204851795 -26.194885873064909 5.196066043125839 0 -0.57357644374324357 0.81915203911291934 1.5 0 0 1 I I #
point $-1 -33.873584204851795 -27.096211532312367 6.4832924620822219 #
plane-surface $-1 0 0 11.782677716493554 0 0 1 1 0 0 forward_v I I I I #
coedge $-1 $557 $556 $549 $687 forward $378 $-1 #
coedge $-1 $549 $380 $382 $553 reversed $235 $-1 #
coedge $-1 $380 $548 $547 $687 reversed $235 $-1 #
coedge $-1 $388 $383 $380 $551 forward $389 $-1 #
edge $-1 $554 -37.720666995850394 $688 -22.584054310482934 $550 $689 forward 7 unknown #
coedge $-1 $382 $381 $557 $690 reversed $147 $-1 #
edge $-1 $691 8.6223355153435888e-015 $554 18.478392242982501 $548 $692 forward 7 unknown #
vertex $-1 $384 $693 #
straight-curve $-1 -6.5647249669815864 -19.527905189628655 11.782677716493554 -1 0 0 I I #
coedge $-1 $547 $385 $388 $561 reversed $378 $-1 #
coedge $-1 $385 $547 $552 $690 forward $378 $-1 #
vertex $-1 $386 $694 #
straight-curve $-1 -3.7616635408751939 -34.664517874996115 57.598355710527315 0 0 1 I I #
straight-curve $-1 -3.7616635408751939 -34.664517874996122 1.183907207670913 0 -0.81915203911291934 -0.57357644374324357 I I #
edge $-1 $688 -22.497236327051152 $390 -3.7616635408751939 $556 $695 forward 7 unknown #
point $-1 -3.7616635408751939 -34.664517874996115 11.782677716493554 #
point $-1 -3.7616635408751939 -19.527905189628655 11.782677716493554 #
edge $-1 $696 1 $696 0 $393 $-1 forward 7 unknown #
vertex $-1 $394 $697 #
ellipse-curve $-1 -17.144215531000874 -26.194885873064909 5.196066043125839 0 -0.57357644374324357 0.81915203911291934 1.5 0 0 1 I I #
point $-1 -15.644215531000874 -27.096211532312367 6.4832924620822219 #
edge $-1 $698 1 $698 0 $397 $-1 forward 7 unknown #
vertex $-1 $398 $699 #
ellipse-curve $-1 -9.114684336925464 -26.194885873064909 5.196066043125839 0 -0.57357644374324357 0.81915203911291934 1.5 0 0 1 I I #
point $-1 -7.614684336925464 -27.096211532312367 6.4832924620822219 #
plane-surface $-1 0 0 11.782677716493554 0 0 1 1 0 0 forward_v I I I I #
coedge $-1 $583 $582 $575 $700 forward $402 $-1 #
coedge $-1 $575 $404 $406 $579 reversed $257 $-1 #
coedge $-1 $404 $574 $573 $700 reversed $257 $-1 #
coedge $-1 $412 $407 $404 $577 forward $413 $-1 #
edge $-1 $580 -37.720666995850394 $701 -22.584054310482934 $576 $702 forward 7 unknown #
coedge $-1 $406 $405 $583 $703 reversed $161 $-1 #
edge $-1 $704 8.6223355153435888e-015 $580 18.478392242982501 $574 $705 forward 7 unknown #
vertex $-1 $408 $706 #
straight-curve $-1 6.5647249669815793 -19.527905189628655 11.782677716493554 -1 0 0 I I #
coedge $-1 $573 $409 $412 $587 reversed $402 $-1 #
coedge $-1 $409 $573 $578 $703 forward $402 $-1 #
vertex $-1 $410 $707 #
straight-curve $-1 22.497236327051137 -34.664517874996115 57.598355710527315 0 0 1 I I #
straight-curve $-1 22.497236327051137 -34.664517874996122 1.183907207670913 0 -0.81915203911291934 -0.57357644374324357 I I #
edge $-1 $701 3.7616635408751797 $414 22.497236327051137 $582 $708 forward 7 unknown #
point $-1 22.497236327051137 -34.664517874996115 11.782677716493554 #
point $-1 22.497236327051137 -19.527905189628655 11.782677716493554 #
edge $-1 $709 1 $709 0 $417 $-1 forward 7 unknown #
vertex $-1 $418 $710 #
ellipse-curve $-1 9.114684336925464 -26.194885873064909 5.196066043125839 0 -0.57357644374324357 0.81915203911291934 1.5 0 0 1 I I #
point $-1 10.614684336925464 -27.096211532312367 6.4832924620822219 #
edge $-1 $711 1 $711 0 $421 $-1 forward 7 unknown #
vertex $-1 $422 $712 #
ellipse-curve $-1 17.144215531000867 -26.194885873064909 5.196066043125839 0 -0.57357644374324357 0.81915203911291934 1.5 0 0 1 I I #
point $-1 18.644215531000867 -27.096211532312367 6.4832924620822219 #
plane-surface $-1 0 0 11.782677716493554 0 0 1 1 0 0 forward_v I I I I #
coedge $-1 $609 $608 $601 $713 forward $426 $-1 #
coedge $-1 $601 $428 $430 $605 reversed $279 $-1 #
coedge $-1 $428 $600 $599 $713 reversed $279 $-1 #
coedge $-1 $436 $431 $428 $603 forward $437 $-1 #
edge $-1 $606 -37.720666995850394 $714 -22.584054310482934 $602 $715 forward 7 unknown #
coedge $-1 $430 $429 $609 $716 reversed $175 $-1 #
edge $-1 $717 8.6223355153435888e-015 $606 18.478392242982501 $600 $718 forward 7 unknown #
vertex $-1 $432 $719 #
straight-curve $-1 19.694174900944745 -19.527905189628655 11.782677716493554 -1 0 0 I I #
coedge $-1 $599 $433 $436 $613 reversed $426 $-1 #
coedge $-1 $433 $599 $604 $716 forward $426 $-1 #
vertex $-1 $434 $720 #
straight-curve $-1 48.756136194977472 -34.664517874996115 57.598355710527315 0 0 1 I I #
straight-curve $-1 48.756136194977472 -34.664517874996122 1.183907207670913 0 -0.81915203911291934 -0.57357644374324357 I I #
edge $-1 $714 30.020563408801511 $438 48.756136194977472 $608 $721 forward 7 unknown #
point $-1 48.756136194977472 -34.664517874996115 11.782677716493554 #
point $-1 48.756136194977472 -19.527905189628655 11.782677716493554 #
edge $-1 $722 1 $722 0 $441 $-1 forward 7 unknown #
vertex $-1 $442 $723 #
ellipse-curve $-1 35.373584204851795 -26.194885873064909 5.196066043125839 0 -0.57357644374324357 0.81915203911291934 1.5 0 0 1 I I #
point $-1 36.873584204851795 -27.096211532312367 6.4832924620822219 #
edge $-1 $724 1 $724 0 $445 $-1 forward 7 unknown #
vertex $-1 $446 $725 #
ellipse-curve $-1 43.403115398927198 -26.194885873064909 5.196066043125839 0 -0.57357644374324357 0.81915203911291934 1.5 0 0 1 I I #
point $-1 44.903115398927198 -27.096211532312367 6.4832924620822219 #
plane-surface $-1 69.591967528305915 0 0 -1 0 0 0 0 1 forward_v I I I I #
coedge $-1 $454 $452 $456 $629 reversed $301 $-1 #
edge $-1 $467 -11.782677716493554 $631 11.782677716493554 $466 $726 forward 7 unknown #
vertex $-1 $629 $727 #
straight-curve $-1 -69.591967528305915 -34.664517874996115 0 0 0 -1 I I #
edge $-1 $627 -34.664517874996115 $631 34.664517874996115 $625 $728 forward 7 unknown #
straight-curve $-1 0 -34.664517874996115 -11.782677716493554 -1 0 0 I I #
vertex $-1 $459 $729 #
straight-curve $-1 0 34.664517874996115 -11.782677716493554 1 0 0 I I #
point $-1 69.591967528305915 34.664517874996115 -11.782677716493554 #
point $-1 69.591967528305915 -34.664517874996115 -11.782677716493554 #
straight-curve $-1 -69.591967528305915 0 11.782677716493554 0 -1 0 I I #
point $-1 -69.591967528305915 34.664517874996115 11.782677716493554 #
point $-1 -69.591967528305915 -34.664517874996115 11.782677716493554 #
straight-curve $-1 69.591967528305915 -34.664517874996115 0 0 0 -1 I I #
straight-curve $-1 69.591967528305915 34.664517874996115 0 0 0 -1 I I #
plane-surface $-1 0 -34.664517874996115 0 0 1 0 0 0 1 forward_v I I I I #
coedge $-1 $730 $479 $489 $652 reversed $320 $-1 #
coedge $-1 $479 $730 $492 $654 forward $320 $-1 #
coedge $-1 $731 $482 $480 $644 forward $477 $-1 #
edge $-1 $645 60.041126817603036 $732 69.591967528305915 $480 $733 forward 7 unknown #
vertex $-1 $644 $734 #
straight-curve $-1 -60.041126817603036 34.664517874996115 5.0839339871652376 0 0 -1 I I #
coedge $-1 $482 $731 $484 $649 forward $477 $-1 #
straight-curve $-1 -60.041126817603036 0 11.782677716493554 0 1 0 I I #
edge $-1 $735 -69.591967528305915 $486 -60.041126817603036 $484 $736 forward 7 unknown #
point $-1 -60.041126817603036 -34.664517874996115 11.782677716493554 #
straight-curve $-1 -69.591967528305915 0 8.5530582321673965 0 -1 0 I I #
edge $-1 $735 -11.782677716493554 $490 -8.5530582321673965 $641 $737 forward 7 unknown #
point $-1 -69.591967528305915 -34.664517874996115 8.5530582321673965 #
edge $-1 $732 -11.782677716493554 $493 -8.5530582321673965 $492 $738 forward 7 unknown #
point $-1 -69.591967528305915 34.664517874996115 8.5530582321673965 #
plane-surface $-1 69.591967528305915 0 0 -1 0 0 0 0 1 forward_v I I I I #
coedge $-1 $500 $510 $501 $660 reversed $336 $-1 #
edge $-1 $662 -6.6987437293283163 $511 -3.4691242450021589 $500 $739 forward 7 unknown #
coedge $-1 $502 $501 $515 $668 forward $205 $-1 #
edge $-1 $662 60.041126817603043 $671 69.591967528305915 $657 $740 forward 7 unknown #
edge $-1 $669 -69.591967528305915 $508 -60.041126817603043 $506 $741 forward 7 unknown #
vertex $-1 $660 $742 #
straight-curve $-1 60.041126817603043 0 11.782677716493554 0 -1 0 I I #
straight-curve $-1 60.041126817603043 0 8.5530582321673965 0 1 0 I I #
point $-1 60.041126817603043 34.664517874996115 8.5530582321673965 #
point $-1 60.041126817603043 34.664517874996115 11.782677716493554 #
point $-1 60.041126817603043 -34.664517874996115 8.5530582321673965 #
edge $-1 $671 -34.664517874996115 $669 34.664517874996115 $515 $743 forward 7 unknown #
vertex $-1 $668 $744 #
straight-curve $-1 69.591967528305915 34.664517874996115 0 0 0 -1 I I #
vertex $-1 $668 $745 #
straight-curve $-1 69.591967528305915 -34.664517874996115 0 0 0 -1 I I #
coedge $-1 $531 $530 $523 $674 forward $520 $-1 #
edge $-1 $675 45.815677994033763 $678 56.414448502856395 $673 $746 forward 7 unknown #
vertex $-1 $535 $747 #
straight-curve $-1 -48.756136194977486 -57.248572185479048 11.782677716493552 0 -1 0 I I #
edge $-1 $678 -29.061961294032734 $532 -10.326388507856773 $531 $748 forward 7 unknown #
vertex $-1 $677 $749 #
straight-curve $-1 -48.756136194977486 -34.664517874996122 1.183907207670913 0 0.81915203911291934 0.57357644374324357 I I #
point $-1 -48.756136194977486 -19.527905189628655 11.782677716493554 #
point $-1 -30.020563408801525 -34.664517874996115 1.1839072076709178 #
straight-curve $-1 0 -34.664517874996115 11.782677716493554 1 0 0 I I #
vertex $-1 $538 $750 #
point $-1 -41.903115398927206 -26.194885873064909 5.196066043125839 #
vertex $-1 $542 $751 #
point $-1 -33.873584204851795 -26.194885873064909 5.196066043125839 #
edge $-1 $688 45.815677994033763 $691 56.414448502856395 $547 $752 forward 7 unknown #
vertex $-1 $561 $753 #
straight-curve $-1 -22.497236327051152 -57.248572185479048 11.782677716493552 0 -1 0 I I #
edge $-1 $691 -15.932511360069565 $558 2.8030614261063924 $557 $754 forward 7 unknown #
vertex $-1 $690 $755 #
straight-curve $-1 -22.497236327051152 -34.664517874996122 1.183907207670913 0 0.81915203911291934 0.57357644374324357 I I #
point $-1 -22.497236327051152 -19.527905189628655 11.782677716493554 #
point $-1 -3.7616635408751939 -34.664517874996115 1.1839072076709178 #
straight-curve $-1 0 -34.664517874996115 11.782677716493554 1 0 0 I I #
vertex $-1 $564 $756 #
point $-1 -15.644215531000874 -26.194885873064909 5.196066043125839 #
vertex $-1 $568 $757 #
point $-1 -7.614684336925464 -26.194885873064909 5.196066043125839 #
edge $-1 $701 45.815677994033763 $704 56.414448502856395 $573 $758 forward 7 unknown #
vertex $-1 $587 $759 #
straight-curve $-1 3.7616635408751797 -57.248572185479048 11.782677716493552 0 -1 0 I I #
edge $-1 $704 -2.8030614261063995 $584 15.932511360069558 $583 $760 forward 7 unknown #
vertex $-1 $703 $761 #
straight-curve $-1 3.7616635408751797 -34.664517874996122 1.183907207670913 0 0.81915203911291934 0.57357644374324357 I I #
point $-1 3.7616635408751797 -19.527905189628655 11.782677716493554 #
point $-1 22.497236327051137 -34.664517874996115 1.1839072076709178 #
straight-curve $-1 0 -34.664517874996115 11.782677716493554 1 0 0 I I #
vertex $-1 $590 $762 #
point $-1 10.614684336925464 -26.194885873064909 5.196066043125839 #
vertex $-1 $594 $763 #
point $-1 18.644215531000867 -26.194885873064909 5.196066043125839 #
edge $-1 $714 45.815677994033763 $717 56.414448502856395 $599 $764 forward 7 unknown #
vertex $-1 $613 $765 #
straight-curve $-1 30.020563408801511 -57.248572185479048 11.782677716493552 0 -1 0 I I #
edge $-1 $717 10.326388507856766 $610 29.061961294032727 $609 $766 forward 7 unknown #
vertex $-1 $716 $767 #
straight-curve $-1 30.020563408801511 -34.664517874996122 1.183907207670913 0 0.81915203911291934 0.57357644374324357 I I #
point $-1 30.020563408801511 -19.527905189628655 11.782677716493554 #
point $-1 48.756136194977472 -34.664517874996115 1.1839072076709178 #
straight-curve $-1 0 -34.664517874996115 11.782677716493554 1 0 0 I I #
vertex $-1 $616 $768 #
point $-1 36.873584204851795 -26.194885873064909 5.196066043125839 #
vertex $-1 $620 $769 #
point $-1 44.903115398927198 -26.194885873064909 5.196066043125839 #
straight-curve $-1 -69.591967528305915 34.664517874996115 0 0 0 -1 I I #
point $-1 -69.591967528305915 -34.664517874996115 -11.782677716493554 #
straight-curve $-1 -69.591967528305915 0 -11.782677716493554 0 1 0 I I #
point $-1 -69.591967528305915 34.664517874996115 -11.782677716493554 #
coedge $-1 $642 $641 $731 $770 reversed $320 $-1 #
coedge $-1 $647 $643 $730 $770 forward $477 $-1 #
vertex $-1 $644 $771 #
straight-curve $-1 0 34.664517874996115 11.782677716493554 -1 0 0 I I #
point $-1 -60.041126817603036 34.664517874996115 11.782677716493554 #
vertex $-1 $770 $772 #
straight-curve $-1 0 -34.664517874996115 11.782677716493554 1 0 0 I I #
straight-curve $-1 -69.591967528305915 -34.664517874996115 0 0 0 -1 I I #
straight-curve $-1 -69.591967528305915 34.664517874996115 0 0 0 -1 I I #
straight-curve $-1 60.041126817603043 -34.664517874996115 5.0839339871652376 0 0 -1 I I #
straight-curve $-1 0 -34.664517874996115 11.782677716493554 1 0 0 I I #
straight-curve $-1 0 34.664517874996115 11.782677716493554 -1 0 0 I I #
point $-1 60.041126817603043 -34.664517874996115 11.782677716493554 #
straight-curve $-1 69.591967528305915 0 11.782677716493554 0 1 0 I I #
point $-1 69.591967528305915 34.664517874996115 11.782677716493554 #
point $-1 69.591967528305915 -34.664517874996115 11.782677716493554 #
straight-curve $-1 -48.756136194977486 -34.664517874996115 57.598355710527315 0 0 -1 I I #
point $-1 -48.756136194977486 -34.664517874996115 11.782677716493554 #
straight-curve $-1 -19.694174900944752 -34.664517874996115 1.1839072076709192 1 0 0 I I #
point $-1 -48.756136194977486 -34.664517874996115 1.1839072076709178 #
point $-1 -43.403115398927206 -25.334521207450042 3.96733798445646 #
point $-1 -35.373584204851795 -25.334521207450042 3.96733798445646 #
straight-curve $-1 -22.497236327051152 -34.664517874996115 57.598355710527315 0 0 -1 I I #
point $-1 -22.497236327051152 -34.664517874996115 11.782677716493554 #
straight-curve $-1 -6.5647249669815864 -34.664517874996115 1.1839072076709192 1 0 0 I I #
point $-1 -22.497236327051152 -34.664517874996115 1.1839072076709178 #
point $-1 -17.144215531000874 -25.334521207450042 3.96733798445646 #
point $-1 -9.114684336925464 -25.334521207450042 3.96733798445646 #
straight-curve $-1 3.7616635408751797 -34.664517874996115 57.598355710527315 0 0 -1 I I #
point $-1 3.7616635408751797 -34.664517874996115 11.782677716493554 #
straight-curve $-1 6.5647249669815793 -34.664517874996115 1.1839072076709192 1 0 0 I I #
point $-1 3.7616635408751797 -34.664517874996115 1.1839072076709178 #
point $-1 9.114684336925464 -25.334521207450042 3.96733798445646 #
point $-1 17.144215531000867 -25.334521207450042 3.96733798445646 #
straight-curve $-1 30.020563408801511 -34.664517874996115 57.598355710527315 0 0 -1 I I #
point $-1 30.020563408801511 -34.664517874996115 11.782677716493554 #
straight-curve $-1 19.694174900944745 -34.664517874996115 1.1839072076709192 1 0 0 I I #
point $-1 30.020563408801511 -34.664517874996115 1.1839072076709178 #
point $-1 35.373584204851795 -25.334521207450042 3.96733798445646 #
point $-1 43.403115398927198 -25.334521207450042 3.96733798445646 #
edge $-1 $732 -34.664517874996115 $735 34.664517874996115 $730 $773 forward 7 unknown #
point $-1 -69.591967528305915 34.664517874996115 11.782677716493554 #
point $-1 -69.591967528305915 -34.664517874996115 11.782677716493554 #
straight-curve $-1 -69.591967528305915 0 11.782677716493554 0 -1 0 I I #
End-of-ACIS-data 