500 0 14 0           
7 Unknown 11 ACIS 5.0 NT 24 Thu Mar 25 21:27:57 1999 
-1 9.9999999999999995e-007 1e-010 
body $-1 $14 $-1 $15 #
body $-1 $16 $-1 $17 #
body $-1 $18 $-1 $19 #
body $-1 $20 $-1 $21 #
body $-1 $22 $-1 $23 #
body $-1 $24 $-1 $25 #
body $-1 $26 $-1 $27 #
body $-1 $28 $-1 $29 #
body $-1 $30 $-1 $31 #
body $-1 $32 $-1 $33 #
body $-1 $34 $-1 $35 #
body $-1 $36 $-1 $37 #
body $-1 $38 $-1 $39 #
body $-1 $40 $-1 $41 #
lump $-1 $-1 $42 $0 #
transform $-1 1 0 0 0 1 0 0 0 1 40.638447218237864 26.294874916437688 6.682735689996842 1 rotate no_reflect no_shear #
lump $-1 $-1 $43 $1 #
transform $-1 1 0 0 0 1 0 0 0 1 40.638447218237864 26.294874916437688 6.682735689996842 1 rotate no_reflect no_shear #
lump $-1 $-1 $44 $2 #
transform $-1 1 0 0 0 1 0 0 0 1 40.638447218237864 26.294874916437688 6.682735689996842 1 rotate no_reflect no_shear #
lump $-1 $-1 $45 $3 #
transform $-1 1 0 0 0 1 0 0 0 1 40.638447218237864 26.294874916437688 6.682735689996842 1 rotate no_reflect no_shear #
lump $-1 $-1 $46 $4 #
transform $-1 1 0 0 0 1 0 0 0 1 40.638447218237864 26.294874916437688 6.682735689996842 1 rotate no_reflect no_shear #
lump $-1 $-1 $47 $5 #
transform $-1 1 0 0 0 1 0 0 0 1 40.638447218237864 26.294874916437688 6.682735689996842 1 rotate no_reflect no_shear #
lump $-1 $-1 $48 $6 #
transform $-1 1 0 0 0 1 0 0 0 1 40.638447218237864 26.294874916437688 6.682735689996842 1 rotate no_reflect no_shear #
lump $-1 $-1 $49 $7 #
transform $-1 1 0 0 0 1 0 0 0 1 40.638447218237864 26.294874916437688 6.682735689996842 1 rotate no_reflect no_shear #
lump $-1 $-1 $50 $8 #
transform $-1 1 0 0 0 1 0 0 0 1 40.638447218237864 26.294874916437688 6.682735689996842 1 rotate no_reflect no_shear #
lump $-1 $-1 $51 $9 #
transform $-1 1 0 0 0 1 0 0 0 1 40.638447218237864 26.294874916437688 6.682735689996842 1 rotate no_reflect no_shear #
lump $-1 $-1 $52 $10 #
transform $-1 1 0 0 0 1 0 0 0 1 40.638447218237864 26.294874916437688 6.682735689996842 1 rotate no_reflect no_shear #
lump $-1 $-1 $53 $11 #
transform $-1 1 0 0 0 1 0 0 0 1 40.638447218237864 26.294874916437688 6.682735689996842 1 rotate no_reflect no_shear #
lump $-1 $-1 $54 $12 #
transform $-1 1 0 0 0 1 0 0 0 1 40.638447218237864 26.294874916437688 6.682735689996842 1 rotate no_reflect no_shear #
lump $-1 $-1 $55 $13 #
transform $-1 1 0 0 0 1 0 0 0 1 40.638447218237864 26.294874916437688 6.682735689996842 1 rotate no_reflect no_shear #
shell $-1 $-1 $-1 $56 $-1 $14 #
shell $-1 $-1 $-1 $57 $-1 $16 #
shell $-1 $-1 $-1 $58 $-1 $18 #
shell $-1 $-1 $-1 $59 $-1 $20 #
shell $-1 $-1 $-1 $60 $-1 $22 #
shell $-1 $-1 $-1 $61 $-1 $24 #
shell $-1 $-1 $-1 $62 $-1 $26 #
shell $-1 $-1 $-1 $63 $-1 $28 #
shell $-1 $-1 $-1 $64 $-1 $30 #
shell $-1 $-1 $-1 $65 $-1 $32 #
shell $-1 $-1 $-1 $66 $-1 $34 #
shell $-1 $-1 $-1 $67 $-1 $36 #
shell $-1 $-1 $-1 $68 $-1 $38 #
shell $-1 $-1 $-1 $69 $-1 $40 #
face $-1 $70 $71 $42 $-1 $72 forward single #
face $-1 $73 $74 $43 $-1 $75 forward single #
face $-1 $76 $77 $44 $-1 $78 reversed single #
face $-1 $79 $80 $45 $-1 $81 forward single #
face $-1 $82 $83 $46 $-1 $84 forward single #
face $-1 $85 $86 $47 $-1 $87 reversed single #
face $-1 $88 $89 $48 $-1 $90 forward single #
face $-1 $91 $92 $49 $-1 $93 forward single #
face $-1 $94 $95 $50 $-1 $96 reversed single #
face $-1 $97 $98 $51 $-1 $99 forward single #
face $-1 $100 $101 $52 $-1 $102 forward single #
face $-1 $103 $104 $53 $-1 $105 reversed single #
face $-1 $106 $107 $54 $-1 $108 forward single #
face $-1 $109 $110 $55 $-1 $111 forward single #
face $-1 $112 $113 $42 $-1 $114 reversed single #
loop $-1 $-1 $115 $56 #
plane-surface $-1 0 0 6.682735689996842 0 0 1 1 0 0 forward_v I I I I #
face $-1 $116 $117 $43 $-1 $118 reversed single #
loop $-1 $-1 $119 $57 #
plane-surface $-1 0 -23.164094722553592 6.0706760622140061 0 0 1 1 0 0 forward_v I I I I #
face $-1 $120 $121 $44 $-1 $122 reversed single #
loop $-1 $-1 $123 $58 #
plane-surface $-1 -35.881271408336765 49.870910514355742 94.514504166881252 1 0 0 0 -0.73135370988377701 -0.68199835119979291 forward_v I I I I #
face $-1 $124 $125 $45 $-1 $126 forward single #
loop $-1 $127 $128 $59 #
cone-surface $-1 -32.623484242762402 23.103375208935098 3.3114124336145419 0 -0.73135370988377701 -0.68199835119979291 0.5 0 0 1 I I 0 1 0.5 forward I I I I #
face $-1 $129 $130 $46 $-1 $131 forward single #
loop $-1 $132 $133 $60 #
cone-surface $-1 -27.736803494400849 23.103375208935098 3.3114124336145419 0 -0.73135370988377701 -0.68199835119979291 0.5 0 0 1 I I 0 1 0.5 forward I I I I #
face $-1 $134 $135 $47 $-1 $136 reversed single #
loop $-1 $-1 $137 $61 #
plane-surface $-1 -15.562047799217833 49.870910514355742 94.514504166881252 1 0 0 0 -0.73135370988377701 -0.68199835119979291 forward_v I I I I #
face $-1 $138 $139 $48 $-1 $140 forward single #
loop $-1 $141 $142 $62 #
cone-surface $-1 -12.304260633643466 23.103375208935098 3.3114124336145419 0 -0.73135370988377701 -0.68199835119979291 0.5 0 0 1 I I 0 1 0.5 forward I I I I #
face $-1 $143 $144 $49 $-1 $145 forward single #
loop $-1 $146 $147 $63 #
cone-surface $-1 -7.417579885281917 23.103375208935098 3.3114124336145419 0 -0.73135370988377701 -0.68199835119979291 0.5 0 0 1 I I 0 1 0.5 forward I I I I #
face $-1 $148 $149 $50 $-1 $150 reversed single #
loop $-1 $-1 $151 $64 #
plane-surface $-1 4.7571758099010992 49.870910514355742 94.514504166881252 1 0 0 0 -0.73135370988377701 -0.68199835119979291 forward_v I I I I #
face $-1 $152 $153 $51 $-1 $154 forward single #
loop $-1 $155 $156 $65 #
cone-surface $-1 8.0149629754754628 23.103375208935098 3.3114124336145419 0 -0.73135370988377701 -0.68199835119979291 0.5 0 0 1 I I 0 1 0.5 forward I I I I #
face $-1 $157 $158 $52 $-1 $159 forward single #
loop $-1 $160 $161 $66 #
cone-surface $-1 12.901643723837019 23.103375208935098 3.3114124336145419 0 -0.73135370988377701 -0.68199835119979291 0.5 0 0 1 I I 0 1 0.5 forward I I I I #
face $-1 $162 $163 $53 $-1 $164 reversed single #
loop $-1 $-1 $165 $67 #
plane-surface $-1 25.076399419020035 49.870910514355742 94.514504166881252 1 0 0 0 -0.73135370988377701 -0.68199835119979291 forward_v I I I I #
face $-1 $166 $167 $54 $-1 $168 forward single #
loop $-1 $169 $170 $68 #
cone-surface $-1 28.334186584594399 23.103375208935098 3.3114124336145419 0 -0.73135370988377701 -0.68199835119979291 0.5 0 0 1 I I 0 1 0.5 forward I I I I #
face $-1 $171 $172 $55 $-1 $173 forward single #
loop $-1 $174 $175 $69 #
cone-surface $-1 33.220867332955955 23.103375208935098 3.3114124336145419 0 -0.73135370988377701 -0.68199835119979291 0.5 0 0 1 I I 0 1 0.5 forward I I I I #
face $-1 $176 $177 $42 $-1 $178 reversed single #
loop $-1 $-1 $179 $70 #
plane-surface $-1 0 0 -6.682735689996842 0 0 1 1 0 0 forward_v I I I I #
coedge $-1 $180 $181 $182 $183 forward $71 $-1 #
face $-1 $184 $185 $43 $-1 $186 reversed single #
loop $-1 $-1 $187 $73 #
plane-surface $-1 0 -23.164094722553592 2.196618701889105 0 0 1 1 0 0 forward_v I I I I #
coedge $-1 $188 $189 $190 $191 reversed $74 $-1 #
face $-1 $192 $193 $44 $-1 $194 reversed single #
loop $-1 $-1 $195 $76 #
plane-surface $-1 -30.180143868581624 -9.5712477595929002 39.083796170565186 0 0.73135370988377701 0.68199835119979291 1 0 0 forward_v I I I I #
coedge $-1 $196 $197 $198 $199 reversed $77 $-1 #
face $-1 $-1 $200 $45 $-1 $201 forward single #
loop $-1 $202 $203 $79 #
cone-surface $-1 -32.623484242762402 22.554859926522266 2.7999136702146972 0 -0.73135370988377701 -0.68199835119979291 0.25 0 0 1 I I -0.70710678118654746 0.70710678118654746 0.25 forward I I I I #
loop $-1 $-1 $204 $59 #
coedge $-1 $128 $128 $205 $206 reversed $80 $-1 #
face $-1 $-1 $207 $46 $-1 $208 forward single #
loop $-1 $209 $210 $82 #
cone-surface $-1 -27.736803494400849 22.554859926522266 2.7999136702146972 0 -0.73135370988377701 -0.68199835119979291 0.25 0 0 1 I I -0.70710678118654746 0.70710678118654746 0.25 forward I I I I #
loop $-1 $-1 $211 $60 #
coedge $-1 $133 $133 $212 $213 reversed $83 $-1 #
face $-1 $214 $215 $47 $-1 $216 reversed single #
loop $-1 $-1 $217 $85 #
plane-surface $-1 -9.8609202594626915 -9.5712477595929002 39.083796170565186 0 0.73135370988377701 0.68199835119979291 1 0 0 forward_v I I I I #
coedge $-1 $218 $219 $220 $221 reversed $86 $-1 #
face $-1 $-1 $222 $48 $-1 $223 forward single #
loop $-1 $224 $225 $88 #
cone-surface $-1 -12.304260633643466 22.554859926522266 2.7999136702146972 0 -0.73135370988377701 -0.68199835119979291 0.25 0 0 1 I I -0.70710678118654746 0.70710678118654746 0.25 forward I I I I #
loop $-1 $-1 $226 $62 #
coedge $-1 $142 $142 $227 $228 reversed $89 $-1 #
face $-1 $-1 $229 $49 $-1 $230 forward single #
loop $-1 $231 $232 $91 #
cone-surface $-1 -7.417579885281917 22.554859926522266 2.7999136702146972 0 -0.73135370988377701 -0.68199835119979291 0.25 0 0 1 I I -0.70710678118654746 0.70710678118654746 0.25 forward I I I I #
loop $-1 $-1 $233 $63 #
coedge $-1 $147 $147 $234 $235 reversed $92 $-1 #
face $-1 $236 $237 $50 $-1 $238 reversed single #
loop $-1 $-1 $239 $94 #
plane-surface $-1 10.458303349656241 -9.5712477595929002 39.083796170565186 0 0.73135370988377701 0.68199835119979291 1 0 0 forward_v I I I I #
coedge $-1 $240 $241 $242 $243 reversed $95 $-1 #
face $-1 $-1 $244 $51 $-1 $245 forward single #
loop $-1 $246 $247 $97 #
cone-surface $-1 8.0149629754754628 22.554859926522266 2.7999136702146972 0 -0.73135370988377701 -0.68199835119979291 0.25 0 0 1 I I -0.70710678118654746 0.70710678118654746 0.25 forward I I I I #
loop $-1 $-1 $248 $65 #
coedge $-1 $156 $156 $249 $250 reversed $98 $-1 #
face $-1 $-1 $251 $52 $-1 $252 forward single #
loop $-1 $253 $254 $100 #
cone-surface $-1 12.901643723837019 22.554859926522266 2.7999136702146972 0 -0.73135370988377701 -0.68199835119979291 0.25 0 0 1 I I -0.70710678118654746 0.70710678118654746 0.25 forward I I I I #
loop $-1 $-1 $255 $66 #
coedge $-1 $161 $161 $256 $257 reversed $101 $-1 #
face $-1 $258 $259 $53 $-1 $260 reversed single #
loop $-1 $-1 $261 $103 #
plane-surface $-1 30.777526958775177 -9.5712477595929002 39.083796170565186 0 0.73135370988377701 0.68199835119979291 1 0 0 forward_v I I I I #
coedge $-1 $262 $263 $264 $265 reversed $104 $-1 #
face $-1 $-1 $266 $54 $-1 $267 forward single #
loop $-1 $268 $269 $106 #
cone-surface $-1 28.334186584594399 22.554859926522266 2.7999136702146972 0 -0.73135370988377701 -0.68199835119979291 0.25 0 0 1 I I -0.70710678118654746 0.70710678118654746 0.25 forward I I I I #
loop $-1 $-1 $270 $68 #
coedge $-1 $170 $170 $271 $272 reversed $107 $-1 #
face $-1 $-1 $273 $55 $-1 $274 forward single #
loop $-1 $275 $276 $109 #
cone-surface $-1 33.220867332955955 22.554859926522266 2.7999136702146972 0 -0.73135370988377701 -0.68199835119979291 0.25 0 0 1 I I -0.70710678118654746 0.70710678118654746 0.25 forward I I I I #
loop $-1 $-1 $277 $69 #
coedge $-1 $175 $175 $278 $279 reversed $110 $-1 #
face $-1 $280 $281 $42 $-1 $282 reversed single #
loop $-1 $-1 $283 $112 #
plane-surface $-1 0 -26.294874916437688 0 0 1 0 0 0 1 forward_v I I I I #
coedge $-1 $284 $285 $286 $287 forward $113 $-1 #
coedge $-1 $288 $115 $289 $290 forward $71 $-1 #
coedge $-1 $115 $288 $291 $292 forward $71 $-1 #
coedge $-1 $293 $294 $115 $183 reversed $295 $-1 #
edge $-1 $296 -26.294874916437688 $297 26.294874916437688 $182 $298 forward 7 unknown #
face $-1 $299 $300 $43 $-1 $301 reversed single #
loop $-1 $-1 $302 $116 #
plane-surface $-1 0 -20.033314528669496 4.1336473820515556 0 -1 0 0 0 -1 forward_v I I I I #
coedge $-1 $303 $304 $305 $306 reversed $117 $-1 #
coedge $-1 $307 $119 $308 $309 forward $74 $-1 #
coedge $-1 $119 $307 $310 $311 reversed $74 $-1 #
coedge $-1 $312 $313 $119 $191 forward $314 $-1 #
edge $-1 $315 8.4512671673927002 $316 14.712827555160892 $190 $317 forward 7 unknown #
face $-1 $318 $319 $44 $-1 $320 reversed single #
loop $-1 $-1 $321 $120 #
plane-surface $-1 -24.479016328826482 49.870910514355742 94.514504166881252 -1 0 0 0 0.73135370988377701 0.68199835119979291 forward_v I I I I #
coedge $-1 $322 $323 $324 $325 reversed $121 $-1 #
coedge $-1 $197 $123 $326 $327 reversed $77 $-1 #
coedge $-1 $123 $196 $322 $328 reversed $77 $-1 #
coedge $-1 $324 $329 $123 $199 forward $330 $-1 #
edge $-1 $331 -1.3594196592598173 $332 4.2922260458615824 $198 $333 forward 7 unknown #
loop $-1 $-1 $205 $124 #
plane-surface $-1 -30.180143868581624 -9.5712477595929002 39.083796170565186 0 0.73135370988377701 0.68199835119979291 1 0 0 forward_v I I I I #
loop $-1 $-1 $334 $79 #
coedge $-1 $203 $203 $204 $335 reversed $125 $-1 #
coedge $-1 $204 $204 $203 $335 forward $127 $-1 #
coedge $-1 $205 $205 $128 $206 forward $200 $-1 #
edge $-1 $336 -1.5980268310217999e-015 $336 6.2831853071795987 $205 $337 forward 7 unknown #
loop $-1 $-1 $212 $129 #
plane-surface $-1 -30.180143868581624 -9.5712477595929002 39.083796170565186 0 0.73135370988377701 0.68199835119979291 1 0 0 forward_v I I I I #
loop $-1 $-1 $338 $82 #
coedge $-1 $210 $210 $211 $339 reversed $130 $-1 #
coedge $-1 $211 $211 $210 $339 forward $132 $-1 #
coedge $-1 $212 $212 $133 $213 forward $207 $-1 #
edge $-1 $340 -1.5980268310217999e-015 $340 6.2831853071795987 $212 $341 forward 7 unknown #
face $-1 $342 $343 $47 $-1 $344 forward single #
loop $-1 $-1 $345 $134 #
plane-surface $-1 -4.1597927197075499 49.870910514355742 94.514504166881252 -1 0 0 0 0.73135370988377701 0.68199835119979291 forward_v I I I I #
coedge $-1 $346 $347 $348 $349 reversed $135 $-1 #
coedge $-1 $219 $137 $350 $351 reversed $86 $-1 #
coedge $-1 $137 $218 $346 $352 reversed $86 $-1 #
coedge $-1 $348 $353 $137 $221 forward $343 $-1 #
edge $-1 $354 -1.3594196592598173 $355 4.2922260458615824 $220 $356 forward 7 unknown #
loop $-1 $-1 $227 $138 #
plane-surface $-1 -9.8609202594626915 -9.5712477595929002 39.083796170565186 0 0.73135370988377701 0.68199835119979291 1 0 0 forward_v I I I I #
loop $-1 $-1 $357 $88 #
coedge $-1 $225 $225 $226 $358 reversed $139 $-1 #
coedge $-1 $226 $226 $225 $358 forward $141 $-1 #
coedge $-1 $227 $227 $142 $228 forward $222 $-1 #
edge $-1 $359 -1.5980268310217999e-015 $359 6.2831853071795987 $227 $360 forward 7 unknown #
loop $-1 $-1 $234 $143 #
plane-surface $-1 -9.8609202594626915 -9.5712477595929002 39.083796170565186 0 0.73135370988377701 0.68199835119979291 1 0 0 forward_v I I I I #
loop $-1 $-1 $361 $91 #
coedge $-1 $232 $232 $233 $362 reversed $144 $-1 #
coedge $-1 $233 $233 $232 $362 forward $146 $-1 #
coedge $-1 $234 $234 $147 $235 forward $229 $-1 #
edge $-1 $363 -1.5980268310217999e-015 $363 6.2831853071795987 $234 $364 forward 7 unknown #
face $-1 $365 $366 $50 $-1 $367 forward single #
loop $-1 $-1 $368 $148 #
plane-surface $-1 16.159430889411382 49.870910514355742 94.514504166881252 -1 0 0 0 0.73135370988377701 0.68199835119979291 forward_v I I I I #
coedge $-1 $369 $370 $371 $372 reversed $149 $-1 #
coedge $-1 $241 $151 $373 $374 reversed $95 $-1 #
coedge $-1 $151 $240 $369 $375 reversed $95 $-1 #
coedge $-1 $371 $376 $151 $243 forward $366 $-1 #
edge $-1 $377 -1.3594196592598173 $378 4.2922260458615824 $242 $379 forward 7 unknown #
loop $-1 $-1 $249 $152 #
plane-surface $-1 10.458303349656241 -9.5712477595929002 39.083796170565186 0 0.73135370988377701 0.68199835119979291 1 0 0 forward_v I I I I #
loop $-1 $-1 $380 $97 #
coedge $-1 $247 $247 $248 $381 reversed $153 $-1 #
coedge $-1 $248 $248 $247 $381 forward $155 $-1 #
coedge $-1 $249 $249 $156 $250 forward $244 $-1 #
edge $-1 $382 -1.5980268310217999e-015 $382 6.2831853071795987 $249 $383 forward 7 unknown #
loop $-1 $-1 $256 $157 #
plane-surface $-1 10.458303349656241 -9.5712477595929002 39.083796170565186 0 0.73135370988377701 0.68199835119979291 1 0 0 forward_v I I I I #
loop $-1 $-1 $384 $100 #
coedge $-1 $254 $254 $255 $385 reversed $158 $-1 #
coedge $-1 $255 $255 $254 $385 forward $160 $-1 #
coedge $-1 $256 $256 $161 $257 forward $251 $-1 #
edge $-1 $386 -1.5980268310217999e-015 $386 6.2831853071795987 $256 $387 forward 7 unknown #
face $-1 $388 $389 $53 $-1 $390 forward single #
loop $-1 $-1 $391 $162 #
plane-surface $-1 36.478654498530318 49.870910514355742 94.514504166881252 -1 0 0 0 0.73135370988377701 0.68199835119979291 forward_v I I I I #
coedge $-1 $392 $393 $394 $395 reversed $163 $-1 #
coedge $-1 $263 $165 $396 $397 reversed $104 $-1 #
coedge $-1 $165 $262 $392 $398 reversed $104 $-1 #
coedge $-1 $394 $399 $165 $265 forward $389 $-1 #
edge $-1 $400 -1.3594196592598173 $401 4.2922260458615824 $264 $402 forward 7 unknown #
loop $-1 $-1 $271 $166 #
plane-surface $-1 30.777526958775177 -9.5712477595929002 39.083796170565186 0 0.73135370988377701 0.68199835119979291 1 0 0 forward_v I I I I #
loop $-1 $-1 $403 $106 #
coedge $-1 $269 $269 $270 $404 reversed $167 $-1 #
coedge $-1 $270 $270 $269 $404 forward $169 $-1 #
coedge $-1 $271 $271 $170 $272 forward $266 $-1 #
edge $-1 $405 -1.5980268310217999e-015 $405 6.2831853071795987 $271 $406 forward 7 unknown #
loop $-1 $-1 $278 $171 #
plane-surface $-1 30.777526958775177 -9.5712477595929002 39.083796170565186 0 0.73135370988377701 0.68199835119979291 1 0 0 forward_v I I I I #
loop $-1 $-1 $407 $109 #
coedge $-1 $276 $276 $277 $408 reversed $172 $-1 #
coedge $-1 $277 $277 $276 $408 forward $174 $-1 #
coedge $-1 $278 $278 $175 $279 forward $273 $-1 #
edge $-1 $409 -1.5980268310217999e-015 $409 6.2831853071795987 $278 $410 forward 7 unknown #
face $-1 $411 $412 $42 $-1 $413 reversed single #
loop $-1 $-1 $414 $176 #
plane-surface $-1 -40.638447218237864 0 0 1 0 0 0 0 -1 forward_v I I I I #
coedge $-1 $415 $291 $416 $417 forward $177 $-1 #
coedge $-1 $418 $179 $415 $419 forward $113 $-1 #
coedge $-1 $179 $418 $420 $421 forward $113 $-1 #
coedge $-1 $294 $293 $179 $287 reversed $295 $-1 #
edge $-1 $422 -26.294874916437688 $423 26.294874916437688 $286 $424 forward 7 unknown #
coedge $-1 $181 $180 $425 $426 forward $71 $-1 #
coedge $-1 $427 $428 $180 $290 reversed $412 $-1 #
edge $-1 $297 -40.638447218237864 $429 40.638447218237864 $289 $430 forward 7 unknown #
coedge $-1 $283 $431 $181 $292 reversed $177 $-1 #
edge $-1 $432 -40.638447218237864 $296 40.638447218237864 $291 $433 forward 7 unknown #
coedge $-1 $286 $182 $431 $434 forward $295 $-1 #
coedge $-1 $182 $286 $427 $435 reversed $295 $-1 #
loop $-1 $-1 $293 $411 #
vertex $-1 $183 $436 #
vertex $-1 $183 $437 #
straight-curve $-1 40.638447218237864 0 6.682735689996842 0 1 0 I I #
face $-1 $438 $439 $43 $-1 $440 reversed single #
loop $-1 $-1 $441 $184 #
plane-surface $-1 -40.638447218237864 0 0 1 0 0 0 0 -1 forward_v I I I I #
coedge $-1 $442 $308 $313 $443 reversed $185 $-1 #
coedge $-1 $444 $187 $445 $446 reversed $117 $-1 #
coedge $-1 $187 $444 $442 $447 forward $117 $-1 #
coedge $-1 $313 $312 $187 $306 forward $314 $-1 #
edge $-1 $448 -14.712827555160892 $449 -8.4512671673927002 $305 $450 forward 7 unknown #
coedge $-1 $189 $188 $441 $451 reversed $74 $-1 #
coedge $-1 $302 $452 $188 $309 reversed $185 $-1 #
edge $-1 $315 -40.638447218237864 $453 40.638447218237864 $308 $454 forward 7 unknown #
coedge $-1 $455 $456 $189 $311 forward $439 $-1 #
edge $-1 $316 -40.638447218237864 $457 40.638447218237864 $310 $458 forward 7 unknown #
coedge $-1 $305 $190 $456 $459 forward $314 $-1 #
coedge $-1 $190 $305 $302 $443 forward $314 $-1 #
loop $-1 $-1 $190 $438 #
vertex $-1 $191 $460 #
vertex $-1 $459 $461 #
straight-curve $-1 40.638447218237864 -11.582047361276796 6.0706760622140061 0 -1 0 I I #
face $-1 $-1 $330 $44 $-1 $462 forward single #
loop $-1 $-1 $463 $192 #
plane-surface $-1 0 26.294874916437688 0 0 -1 0 0 0 -1 forward_v I I I I #
coedge $-1 $464 $465 $466 $467 reversed $193 $-1 #
coedge $-1 $468 $195 $197 $328 forward $121 $-1 #
coedge $-1 $195 $468 $464 $469 forward $121 $-1 #
coedge $-1 $466 $198 $195 $325 forward $330 $-1 #
edge $-1 $332 -20.791199474045953 $470 -9.3889443945356703 $324 $471 forward 7 unknown #
coedge $-1 $472 $473 $196 $327 forward $319 $-1 #
edge $-1 $474 -46.635164555008586 $331 -40.574516393443787 $326 $475 forward 7 unknown #
edge $-1 $332 44.302859263156478 $474 52.58974983287537 $197 $476 forward 7 unknown #
coedge $-1 $198 $466 $472 $477 forward $330 $-1 #
loop $-1 $-1 $466 $318 #
vertex $-1 $327 $478 #
vertex $-1 $199 $479 #
straight-curve $-1 -35.881271408336765 24.935455257177871 6.6827356899968393 0 -1 0 I I #
coedge $-1 $334 $334 $-1 $480 reversed $202 $-1 #
edge $-1 $481 0 $481 6.2831853071796004 $203 $482 forward 7 unknown #
vertex $-1 $206 $483 #
ellipse-curve $-1 -32.623484242762402 23.46905206387699 3.6524116092144405 0 0.73135370988377701 0.68199835119979291 0.5 0 0 1 I I #
coedge $-1 $338 $338 $-1 $484 reversed $209 $-1 #
edge $-1 $485 0 $485 6.2831853071796004 $210 $486 forward 7 unknown #
vertex $-1 $213 $487 #
ellipse-curve $-1 -27.736803494400849 23.46905206387699 3.6524116092144405 0 0.73135370988377701 0.68199835119979291 0.5 0 0 1 I I #
face $-1 $-1 $488 $47 $-1 $489 reversed single #
loop $-1 $-1 $220 $214 #
plane-surface $-1 0 0 6.682735689996842 0 0 1 1 0 0 forward_v I I I I #
coedge $-1 $490 $491 $492 $493 reversed $215 $-1 #
coedge $-1 $494 $217 $219 $352 forward $135 $-1 #
coedge $-1 $217 $494 $490 $495 forward $135 $-1 #
coedge $-1 $492 $220 $217 $349 forward $343 $-1 #
edge $-1 $355 -10.631587669486487 $496 0.7706674100237958 $348 $497 forward 7 unknown #
coedge $-1 $498 $499 $218 $351 forward $488 $-1 #
edge $-1 $500 -46.635164555008586 $354 -40.574516393443787 $350 $501 forward 7 unknown #
edge $-1 $355 44.302859263156478 $500 52.58974983287537 $219 $502 forward 7 unknown #
coedge $-1 $220 $492 $498 $503 forward $343 $-1 #
vertex $-1 $221 $504 #
vertex $-1 $221 $505 #
straight-curve $-1 -15.562047799217833 24.935455257177871 6.6827356899968393 0 -1 0 I I #
coedge $-1 $357 $357 $-1 $506 reversed $224 $-1 #
edge $-1 $507 0 $507 6.2831853071796004 $225 $508 forward 7 unknown #
vertex $-1 $228 $509 #
ellipse-curve $-1 -12.304260633643466 23.46905206387699 3.6524116092144405 0 0.73135370988377701 0.68199835119979291 0.5 0 0 1 I I #
coedge $-1 $361 $361 $-1 $510 reversed $231 $-1 #
edge $-1 $511 0 $511 6.2831853071796004 $232 $512 forward 7 unknown #
vertex $-1 $235 $513 #
ellipse-curve $-1 -7.417579885281917 23.46905206387699 3.6524116092144405 0 0.73135370988377701 0.68199835119979291 0.5 0 0 1 I I #
face $-1 $-1 $514 $50 $-1 $515 reversed single #
loop $-1 $-1 $242 $236 #
plane-surface $-1 0 0 6.682735689996842 0 0 1 1 0 0 forward_v I I I I #
coedge $-1 $516 $517 $518 $519 reversed $237 $-1 #
coedge $-1 $520 $239 $241 $375 forward $149 $-1 #
coedge $-1 $239 $520 $516 $521 forward $149 $-1 #
coedge $-1 $518 $242 $239 $372 forward $366 $-1 #
edge $-1 $378 -0.47197586492702115 $522 10.930279214583262 $371 $523 forward 7 unknown #
coedge $-1 $524 $525 $240 $374 forward $514 $-1 #
edge $-1 $526 -46.635164555008586 $377 -40.574516393443787 $373 $527 forward 7 unknown #
edge $-1 $378 44.302859263156478 $526 52.58974983287537 $241 $528 forward 7 unknown #
coedge $-1 $242 $518 $524 $529 forward $366 $-1 #
vertex $-1 $243 $530 #
vertex $-1 $243 $531 #
straight-curve $-1 4.7571758099010992 24.935455257177871 6.6827356899968393 0 -1 0 I I #
coedge $-1 $380 $380 $-1 $532 reversed $246 $-1 #
edge $-1 $533 0 $533 6.2831853071796004 $247 $534 forward 7 unknown #
vertex $-1 $250 $535 #
ellipse-curve $-1 8.0149629754754628 23.46905206387699 3.6524116092144405 0 0.73135370988377701 0.68199835119979291 0.5 0 0 1 I I #
coedge $-1 $384 $384 $-1 $536 reversed $253 $-1 #
edge $-1 $537 0 $537 6.2831853071796004 $254 $538 forward 7 unknown #
vertex $-1 $257 $539 #
ellipse-curve $-1 12.901643723837019 23.46905206387699 3.6524116092144405 0 0.73135370988377701 0.68199835119979291 0.5 0 0 1 I I #
face $-1 $-1 $540 $53 $-1 $541 reversed single #
loop $-1 $-1 $264 $258 #
plane-surface $-1 0 0 6.682735689996842 0 0 1 1 0 0 forward_v I I I I #
coedge $-1 $542 $543 $544 $545 reversed $259 $-1 #
coedge $-1 $546 $261 $263 $398 forward $163 $-1 #
coedge $-1 $261 $546 $542 $547 forward $163 $-1 #
coedge $-1 $544 $264 $261 $395 forward $389 $-1 #
edge $-1 $401 9.6876359396324467 $548 21.08989101914273 $394 $549 forward 7 unknown #
coedge $-1 $550 $551 $262 $397 forward $540 $-1 #
edge $-1 $552 -46.635164555008586 $400 -40.574516393443787 $396 $553 forward 7 unknown #
edge $-1 $401 44.302859263156478 $552 52.58974983287537 $263 $554 forward 7 unknown #
coedge $-1 $264 $544 $550 $555 forward $389 $-1 #
vertex $-1 $265 $556 #
vertex $-1 $265 $557 #
straight-curve $-1 25.076399419020035 24.935455257177871 6.6827356899968393 0 -1 0 I I #
coedge $-1 $403 $403 $-1 $558 reversed $268 $-1 #
edge $-1 $559 0 $559 6.2831853071796004 $269 $560 forward 7 unknown #
vertex $-1 $272 $561 #
ellipse-curve $-1 28.334186584594399 23.46905206387699 3.6524116092144405 0 0.73135370988377701 0.68199835119979291 0.5 0 0 1 I I #
coedge $-1 $407 $407 $-1 $562 reversed $275 $-1 #
edge $-1 $563 0 $563 6.2831853071796004 $276 $564 forward 7 unknown #
vertex $-1 $279 $565 #
ellipse-curve $-1 33.220867332955955 23.46905206387699 3.6524116092144405 0 0.73135370988377701 0.68199835119979291 0.5 0 0 1 I I #
face $-1 $-1 $295 $42 $-1 $566 reversed single #
loop $-1 $-1 $427 $280 #
plane-surface $-1 0 26.294874916437688 0 0 -1 0 0 0 -1 forward_v I I I I #
coedge $-1 $567 $425 $428 $568 forward $281 $-1 #
coedge $-1 $431 $283 $284 $419 reversed $177 $-1 #
coedge $-1 $425 $567 $283 $417 reversed $281 $-1 #
edge $-1 $432 -6.682735689996842 $569 6.682735689996842 $416 $570 forward 7 unknown #
coedge $-1 $285 $284 $567 $571 forward $113 $-1 #
edge $-1 $423 -40.638447218237864 $569 40.638447218237864 $415 $572 forward 7 unknown #
coedge $-1 $428 $427 $285 $421 reversed $412 $-1 #
edge $-1 $573 -40.638447218237864 $422 40.638447218237864 $420 $574 forward 7 unknown #
vertex $-1 $287 $575 #
vertex $-1 $434 $576 #
straight-curve $-1 40.638447218237864 0 -6.682735689996842 0 -1 0 I I #
coedge $-1 $414 $416 $288 $426 reversed $281 $-1 #
edge $-1 $429 -26.294874916437688 $432 26.294874916437688 $425 $577 forward 7 unknown #
coedge $-1 $420 $289 $294 $435 forward $412 $-1 #
coedge $-1 $289 $420 $414 $568 reversed $412 $-1 #
vertex $-1 $290 $578 #
straight-curve $-1 0 26.294874916437688 6.682735689996842 -1 0 0 I I #
coedge $-1 $291 $415 $293 $434 reversed $177 $-1 #
vertex $-1 $426 $579 #
straight-curve $-1 0 -26.294874916437688 6.682735689996842 1 0 0 I I #
edge $-1 $296 -6.682735689996842 $423 6.682735689996842 $293 $580 forward 7 unknown #
edge $-1 $297 -6.682735689996842 $422 6.682735689996842 $294 $581 forward 7 unknown #
point $-1 40.638447218237864 -26.294874916437688 6.682735689996842 #
point $-1 40.638447218237864 26.294874916437688 6.682735689996842 #
face $-1 $-1 $314 $43 $-1 $582 reversed single #
loop $-1 $-1 $310 $299 #
plane-surface $-1 0 -26.294874916437688 0 0 1 0 0 0 1 forward_v I I I I #
coedge $-1 $583 $584 $307 $451 forward $300 $-1 #
coedge $-1 $452 $302 $304 $447 reversed $185 $-1 #
edge $-1 $449 0.12979501086332723 $315 4.0038523711882288 $313 $585 forward 7 unknown #
coedge $-1 $304 $303 $586 $587 reversed $117 $-1 #
coedge $-1 $456 $455 $303 $446 forward $439 $-1 #
edge $-1 $588 -40.638447218237864 $448 40.638447218237864 $445 $589 forward 7 unknown #
edge $-1 $590 -40.638447218237864 $449 40.638447218237864 $442 $591 forward 7 unknown #
vertex $-1 $446 $592 #
vertex $-1 $306 $593 #
straight-curve $-1 40.638447218237864 -11.582047361276796 2.196618701889105 0 1 0 I I #
edge $-1 $457 -14.712827555160892 $453 -8.4512671673927002 $441 $594 forward 7 unknown #
coedge $-1 $308 $442 $583 $595 reversed $185 $-1 #
vertex $-1 $451 $596 #
straight-curve $-1 0 -20.033314528669496 6.0706760622140061 -1 0 0 I I #
coedge $-1 $445 $310 $584 $597 forward $439 $-1 #
coedge $-1 $310 $445 $312 $459 reversed $439 $-1 #
vertex $-1 $597 $598 #
straight-curve $-1 0 -26.294874916437688 6.0706760622140061 -1 0 0 I I #
edge $-1 $316 -6.0706760622140061 $448 -2.196618701889105 $312 $599 forward 7 unknown #
point $-1 40.638447218237864 -20.033314528669496 6.0706760622140061 #
point $-1 40.638447218237864 -26.294874916437688 6.0706760622140061 #
plane-surface $-1 0 0 6.682735689996842 0 0 1 1 0 0 forward_v I I I I #
coedge $-1 $473 $472 $465 $600 forward $319 $-1 #
coedge $-1 $465 $321 $323 $469 reversed $193 $-1 #
coedge $-1 $321 $464 $463 $600 reversed $193 $-1 #
coedge $-1 $329 $324 $321 $467 forward $330 $-1 #
edge $-1 $470 -4.2922260458615824 $601 1.3594196592598173 $466 $602 forward 7 unknown #
coedge $-1 $323 $322 $473 $603 reversed $121 $-1 #
edge $-1 $604 -52.58974983287537 $470 -44.302859263156478 $464 $605 forward 7 unknown #
vertex $-1 $325 $606 #
straight-curve $-1 -15.090071934290812 20.643229211316289 6.6827356899968393 1 0 0 I I #
coedge $-1 $463 $326 $329 $477 reversed $319 $-1 #
coedge $-1 $326 $463 $468 $603 forward $319 $-1 #
vertex $-1 $327 $607 #
straight-curve $-1 -35.881271408336765 26.294874916437688 47.257252083440626 0 0 1 I I #
straight-curve $-1 -35.881271408336765 -9.5712477595929002 39.083796170565186 0 0.68199835119979291 -0.73135370988377701 I I #
edge $-1 $601 24.479016328826482 $331 35.881271408336765 $472 $608 forward 7 unknown #
point $-1 -35.881271408336765 26.294874916437688 6.682735689996842 #
point $-1 -35.881271408336765 20.643229211316289 6.6827356899968393 #
edge $-1 $609 1 $609 0 $334 $-1 forward 7 unknown #
vertex $-1 $335 $610 #
ellipse-curve $-1 -32.623484242762402 22.73769835399321 2.9704132580146454 0 0.73135370988377701 0.68199835119979291 0.5 0 0 1 I I #
point $-1 -32.123484242762402 23.469052063876987 3.6524116092144383 #
edge $-1 $611 1 $611 0 $338 $-1 forward 7 unknown #
vertex $-1 $339 $612 #
ellipse-curve $-1 -27.736803494400849 22.73769835399321 2.9704132580146454 0 0.73135370988377701 0.68199835119979291 0.5 0 0 1 I I #
point $-1 -27.236803494400849 23.469052063876987 3.6524116092144383 #
loop $-1 $-1 $350 $342 #
plane-surface $-1 0 26.294874916437688 0 0 -1 0 0 0 -1 forward_v I I I I #
coedge $-1 $491 $345 $347 $495 reversed $215 $-1 #
coedge $-1 $345 $490 $613 $614 reversed $215 $-1 #
coedge $-1 $353 $348 $345 $493 forward $343 $-1 #
edge $-1 $496 -4.2922260458615824 $615 1.3594196592598173 $492 $616 forward 7 unknown #
coedge $-1 $347 $346 $499 $617 reversed $135 $-1 #
edge $-1 $618 -52.58974983287537 $496 -44.302859263156478 $490 $619 forward 7 unknown #
vertex $-1 $349 $620 #
straight-curve $-1 -4.9304601297313457 20.643229211316289 6.6827356899968393 1 0 0 I I #
coedge $-1 $613 $350 $353 $503 reversed $488 $-1 #
coedge $-1 $350 $613 $494 $617 forward $488 $-1 #
vertex $-1 $351 $621 #
straight-curve $-1 -15.562047799217833 26.294874916437688 47.257252083440626 0 0 1 I I #
straight-curve $-1 -15.562047799217833 -9.5712477595929002 39.083796170565186 0 0.68199835119979291 -0.73135370988377701 I I #
edge $-1 $615 4.1597927197075499 $354 15.562047799217833 $498 $622 forward 7 unknown #
point $-1 -15.562047799217833 26.294874916437688 6.682735689996842 #
point $-1 -15.562047799217833 20.643229211316289 6.6827356899968393 #
edge $-1 $623 1 $623 0 $357 $-1 forward 7 unknown #
vertex $-1 $358 $624 #
ellipse-curve $-1 -12.304260633643466 22.73769835399321 2.9704132580146454 0 0.73135370988377701 0.68199835119979291 0.5 0 0 1 I I #
point $-1 -11.804260633643466 23.469052063876987 3.6524116092144383 #
edge $-1 $625 1 $625 0 $361 $-1 forward 7 unknown #
vertex $-1 $362 $626 #
ellipse-curve $-1 -7.417579885281917 22.73769835399321 2.9704132580146454 0 0.73135370988377701 0.68199835119979291 0.5 0 0 1 I I #
point $-1 -6.917579885281917 23.469052063876987 3.6524116092144383 #
loop $-1 $-1 $373 $365 #
plane-surface $-1 0 26.294874916437688 0 0 -1 0 0 0 -1 forward_v I I I I #
coedge $-1 $517 $368 $370 $521 reversed $237 $-1 #
coedge $-1 $368 $516 $627 $628 reversed $237 $-1 #
coedge $-1 $376 $371 $368 $519 forward $366 $-1 #
edge $-1 $522 -4.2922260458615824 $629 1.3594196592598173 $518 $630 forward 7 unknown #
coedge $-1 $370 $369 $525 $631 reversed $149 $-1 #
edge $-1 $632 -52.58974983287537 $522 -44.302859263156478 $516 $633 forward 7 unknown #
vertex $-1 $372 $634 #
straight-curve $-1 5.2291516748281204 20.643229211316289 6.6827356899968393 1 0 0 I I #
coedge $-1 $627 $373 $376 $529 reversed $514 $-1 #
coedge $-1 $373 $627 $520 $631 forward $514 $-1 #
vertex $-1 $374 $635 #
straight-curve $-1 4.7571758099010992 26.294874916437688 47.257252083440626 0 0 1 I I #
straight-curve $-1 4.7571758099010992 -9.5712477595929002 39.083796170565186 0 0.68199835119979291 -0.73135370988377701 I I #
edge $-1 $629 -16.159430889411382 $377 -4.7571758099010992 $524 $636 forward 7 unknown #
point $-1 4.7571758099010992 26.294874916437688 6.682735689996842 #
point $-1 4.7571758099010992 20.643229211316289 6.6827356899968393 #
edge $-1 $637 1 $637 0 $380 $-1 forward 7 unknown #
vertex $-1 $381 $638 #
ellipse-curve $-1 8.0149629754754628 22.73769835399321 2.9704132580146454 0 0.73135370988377701 0.68199835119979291 0.5 0 0 1 I I #
point $-1 8.5149629754754628 23.469052063876987 3.6524116092144383 #
edge $-1 $639 1 $639 0 $384 $-1 forward 7 unknown #
vertex $-1 $385 $640 #
ellipse-curve $-1 12.901643723837019 22.73769835399321 2.9704132580146454 0 0.73135370988377701 0.68199835119979291 0.5 0 0 1 I I #
point $-1 13.401643723837019 23.469052063876987 3.6524116092144383 #
loop $-1 $-1 $396 $388 #
plane-surface $-1 0 26.294874916437688 0 0 -1 0 0 0 -1 forward_v I I I I #
coedge $-1 $543 $391 $393 $547 reversed $259 $-1 #
coedge $-1 $391 $542 $641 $642 reversed $259 $-1 #
coedge $-1 $399 $394 $391 $545 forward $389 $-1 #
edge $-1 $548 -4.2922260458615824 $643 1.3594196592598173 $544 $644 forward 7 unknown #
coedge $-1 $393 $392 $551 $645 reversed $163 $-1 #
edge $-1 $646 -52.58974983287537 $548 -44.302859263156478 $542 $647 forward 7 unknown #
vertex $-1 $395 $648 #
straight-curve $-1 15.388763479387588 20.643229211316289 6.6827356899968393 1 0 0 I I #
coedge $-1 $641 $396 $399 $555 reversed $540 $-1 #
coedge $-1 $396 $641 $546 $645 forward $540 $-1 #
vertex $-1 $397 $649 #
straight-curve $-1 25.076399419020035 26.294874916437688 47.257252083440626 0 0 1 I I #
straight-curve $-1 25.076399419020035 -9.5712477595929002 39.083796170565186 0 0.68199835119979291 -0.73135370988377701 I I #
edge $-1 $643 -36.478654498530318 $400 -25.076399419020035 $550 $650 forward 7 unknown #
point $-1 25.076399419020035 26.294874916437688 6.682735689996842 #
point $-1 25.076399419020035 20.643229211316289 6.6827356899968393 #
edge $-1 $651 1 $651 0 $403 $-1 forward 7 unknown #
vertex $-1 $404 $652 #
ellipse-curve $-1 28.334186584594399 22.73769835399321 2.9704132580146454 0 0.73135370988377701 0.68199835119979291 0.5 0 0 1 I I #
point $-1 28.834186584594399 23.469052063876987 3.6524116092144383 #
edge $-1 $653 1 $653 0 $407 $-1 forward 7 unknown #
vertex $-1 $408 $654 #
ellipse-curve $-1 33.220867332955955 22.73769835399321 2.9704132580146454 0 0.73135370988377701 0.68199835119979291 0.5 0 0 1 I I #
point $-1 33.720867332955955 23.469052063876987 3.6524116092144383 #
plane-surface $-1 40.638447218237864 0 0 -1 0 0 0 0 1 forward_v I I I I #
coedge $-1 $416 $414 $418 $571 reversed $281 $-1 #
edge $-1 $429 -6.682735689996842 $573 6.682735689996842 $428 $655 forward 7 unknown #
vertex $-1 $571 $656 #
straight-curve $-1 -40.638447218237864 -26.294874916437688 0 0 0 -1 I I #
edge $-1 $569 -26.294874916437688 $573 26.294874916437688 $567 $657 forward 7 unknown #
straight-curve $-1 0 -26.294874916437688 -6.682735689996842 -1 0 0 I I #
vertex $-1 $421 $658 #
straight-curve $-1 0 26.294874916437688 -6.682735689996842 1 0 0 I I #
point $-1 40.638447218237864 26.294874916437688 -6.682735689996842 #
point $-1 40.638447218237864 -26.294874916437688 -6.682735689996842 #
straight-curve $-1 -40.638447218237864 0 6.682735689996842 0 -1 0 I I #
point $-1 -40.638447218237864 26.294874916437688 6.682735689996842 #
point $-1 -40.638447218237864 -26.294874916437688 6.682735689996842 #
straight-curve $-1 40.638447218237864 -26.294874916437688 0 0 0 -1 I I #
straight-curve $-1 40.638447218237864 26.294874916437688 0 0 0 -1 I I #
plane-surface $-1 40.638447218237864 0 0 -1 0 0 0 0 1 forward_v I I I I #
coedge $-1 $586 $441 $452 $595 forward $300 $-1 #
coedge $-1 $441 $586 $455 $597 reversed $300 $-1 #
straight-curve $-1 40.638447218237864 -20.033314528669496 2.0668236910257778 0 0 1 I I #
coedge $-1 $584 $583 $444 $587 forward $300 $-1 #
edge $-1 $590 8.4512671673927002 $588 14.712827555160892 $586 $659 forward 7 unknown #
vertex $-1 $446 $660 #
straight-curve $-1 0 -26.294874916437688 2.196618701889105 1 0 0 I I #
vertex $-1 $587 $661 #
straight-curve $-1 0 -20.033314528669496 2.196618701889105 1 0 0 I I #
point $-1 40.638447218237864 -26.294874916437688 2.196618701889105 #
point $-1 40.638447218237864 -20.033314528669496 2.196618701889105 #
straight-curve $-1 -40.638447218237864 -11.582047361276796 6.0706760622140061 0 1 0 I I #
edge $-1 $453 -4.0038523711882288 $590 -0.12979501086332723 $583 $662 forward 7 unknown #
point $-1 -40.638447218237864 -20.033314528669496 6.0706760622140061 #
edge $-1 $457 -6.0706760622140061 $588 -2.196618701889105 $584 $663 forward 7 unknown #
point $-1 -40.638447218237864 -26.294874916437688 6.0706760622140061 #
straight-curve $-1 40.638447218237864 -26.294874916437688 0 0 0 -1 I I #
edge $-1 $601 40.574516393443787 $604 46.635164555008586 $463 $664 forward 7 unknown #
vertex $-1 $477 $665 #
straight-curve $-1 -24.479016328826482 24.935455257177871 6.6827356899968393 0 1 0 I I #
edge $-1 $604 9.3889443945356703 $474 20.791199474045953 $473 $666 forward 7 unknown #
vertex $-1 $603 $667 #
straight-curve $-1 -24.479016328826482 -9.5712477595929002 39.083796170565186 0 -0.68199835119979291 0.73135370988377701 I I #
point $-1 -24.479016328826482 20.643229211316289 6.6827356899968393 #
point $-1 -35.881271408336765 26.294874916437685 0.62208752843203996 #
straight-curve $-1 0 26.294874916437688 6.682735689996842 -1 0 0 I I #
vertex $-1 $480 $668 #
point $-1 -32.123484242762402 22.73769835399321 2.9704132580146454 #
vertex $-1 $484 $669 #
point $-1 -27.236803494400849 22.73769835399321 2.9704132580146454 #
coedge $-1 $499 $498 $491 $614 forward $488 $-1 #
edge $-1 $615 40.574516393443787 $618 46.635164555008586 $613 $670 forward 7 unknown #
vertex $-1 $503 $671 #
straight-curve $-1 -4.1597927197075499 24.935455257177871 6.6827356899968393 0 1 0 I I #
edge $-1 $618 -0.7706674100237958 $500 10.631587669486487 $499 $672 forward 7 unknown #
vertex $-1 $617 $673 #
straight-curve $-1 -4.1597927197075499 -9.5712477595929002 39.083796170565186 0 -0.68199835119979291 0.73135370988377701 I I #
point $-1 -4.1597927197075499 20.643229211316289 6.6827356899968393 #
point $-1 -15.562047799217833 26.294874916437685 0.62208752843203996 #
straight-curve $-1 0 26.294874916437688 6.682735689996842 -1 0 0 I I #
vertex $-1 $506 $674 #
point $-1 -11.804260633643466 22.73769835399321 2.9704132580146454 #
vertex $-1 $510 $675 #
point $-1 -6.917579885281917 22.73769835399321 2.9704132580146454 #
coedge $-1 $525 $524 $517 $628 forward $514 $-1 #
edge $-1 $629 40.574516393443787 $632 46.635164555008586 $627 $676 forward 7 unknown #
vertex $-1 $529 $677 #
straight-curve $-1 16.159430889411382 24.935455257177871 6.6827356899968393 0 1 0 I I #
edge $-1 $632 -10.930279214583262 $526 0.47197586492702115 $525 $678 forward 7 unknown #
vertex $-1 $631 $679 #
straight-curve $-1 16.159430889411382 -9.5712477595929002 39.083796170565186 0 -0.68199835119979291 0.73135370988377701 I I #
point $-1 16.159430889411382 20.643229211316289 6.6827356899968393 #
point $-1 4.7571758099010992 26.294874916437685 0.62208752843203996 #
straight-curve $-1 0 26.294874916437688 6.682735689996842 -1 0 0 I I #
vertex $-1 $532 $680 #
point $-1 8.5149629754754628 22.73769835399321 2.9704132580146454 #
vertex $-1 $536 $681 #
point $-1 13.401643723837019 22.73769835399321 2.9704132580146454 #
coedge $-1 $551 $550 $543 $642 forward $540 $-1 #
edge $-1 $643 40.574516393443787 $646 46.635164555008586 $641 $682 forward 7 unknown #
vertex $-1 $555 $683 #
straight-curve $-1 36.478654498530318 24.935455257177871 6.6827356899968393 0 1 0 I I #
edge $-1 $646 -21.08989101914273 $552 -9.6876359396324467 $551 $684 forward 7 unknown #
vertex $-1 $645 $685 #
straight-curve $-1 36.478654498530318 -9.5712477595929002 39.083796170565186 0 -0.68199835119979291 0.73135370988377701 I I #
point $-1 36.478654498530318 20.643229211316289 6.6827356899968393 #
point $-1 25.076399419020035 26.294874916437685 0.62208752843203996 #
straight-curve $-1 0 26.294874916437688 6.682735689996842 -1 0 0 I I #
vertex $-1 $558 $686 #
point $-1 28.834186584594399 22.73769835399321 2.9704132580146454 #
vertex $-1 $562 $687 #
point $-1 33.720867332955955 22.73769835399321 2.9704132580146454 #
straight-curve $-1 -40.638447218237864 26.294874916437688 0 0 0 -1 I I #
point $-1 -40.638447218237864 -26.294874916437688 -6.682735689996842 #
straight-curve $-1 -40.638447218237864 0 -6.682735689996842 0 1 0 I I #
point $-1 -40.638447218237864 26.294874916437688 -6.682735689996842 #
straight-curve $-1 -40.638447218237864 -11.582047361276796 2.196618701889105 0 -1 0 I I #
point $-1 -40.638447218237864 -26.294874916437688 2.196618701889105 #
point $-1 -40.638447218237864 -20.033314528669496 2.196618701889105 #
straight-curve $-1 -40.638447218237864 -20.033314528669496 2.0668236910257778 0 0 -1 I I #
straight-curve $-1 -40.638447218237864 -26.294874916437688 0 0 0 -1 I I #
straight-curve $-1 -24.479016328826482 26.294874916437688 47.257252083440626 0 0 -1 I I #
point $-1 -24.479016328826482 26.294874916437688 6.682735689996842 #
straight-curve $-1 -15.090071934290812 26.294874916437692 0.62208752843204351 -1 0 0 I I #
point $-1 -24.479016328826482 26.294874916437685 0.62208752843203996 #
point $-1 -32.623484242762402 22.372021499051321 2.6294140824147489 #
point $-1 -27.736803494400849 22.372021499051321 2.6294140824147489 #
straight-curve $-1 -4.1597927197075499 26.294874916437688 47.257252083440626 0 0 -1 I I #
point $-1 -4.1597927197075499 26.294874916437688 6.682735689996842 #
straight-curve $-1 -4.9304601297313457 26.294874916437692 0.62208752843204351 -1 0 0 I I #
point $-1 -4.1597927197075499 26.294874916437685 0.62208752843203996 #
point $-1 -12.304260633643466 22.372021499051321 2.6294140824147489 #
point $-1 -7.417579885281917 22.372021499051321 2.6294140824147489 #
straight-curve $-1 16.159430889411382 26.294874916437688 47.257252083440626 0 0 -1 I I #
point $-1 16.159430889411382 26.294874916437688 6.682735689996842 #
straight-curve $-1 5.2291516748281204 26.294874916437692 0.62208752843204351 -1 0 0 I I #
point $-1 16.159430889411382 26.294874916437685 0.62208752843203996 #
point $-1 8.0149629754754628 22.372021499051321 2.6294140824147489 #
point $-1 12.901643723837019 22.372021499051321 2.6294140824147489 #
straight-curve $-1 36.478654498530318 26.294874916437688 47.257252083440626 0 0 -1 I I #
point $-1 36.478654498530318 26.294874916437688 6.682735689996842 #
straight-curve $-1 15.388763479387588 26.294874916437692 0.62208752843204351 -1 0 0 I I #
point $-1 36.478654498530318 26.294874916437685 0.62208752843203996 #
point $-1 28.334186584594399 22.372021499051321 2.6294140824147489 #
point $-1 33.220867332955955 22.372021499051321 2.6294140824147489 #
End-of-ACIS-data 