500 0 7 0           
7 Unknown 11 ACIS 5.0 NT 24 Fri Mar 26 17:31:50 1999 
-1 9.9999999999999995e-007 1e-010 
body $-1 $7 $-1 $8 #
body $-1 $9 $-1 $10 #
body $-1 $11 $-1 $12 #
body $-1 $13 $-1 $14 #
body $-1 $15 $-1 $16 #
body $-1 $17 $-1 $18 #
body $-1 $19 $-1 $20 #
lump $-1 $-1 $21 $0 #
transform $-1 1 0 0 0 1 0 0 0 1 73.11502426221503 46.470559001047285 22.965535540991212 1 rotate no_reflect no_shear #
lump $-1 $-1 $22 $1 #
transform $-1 1 0 0 0 1 0 0 0 1 73.11502426221503 46.470559001047285 22.965535540991212 1 rotate no_reflect no_shear #
lump $-1 $-1 $23 $2 #
transform $-1 1 0 0 0 1 0 0 0 1 73.11502426221503 46.470559001047285 22.965535540991212 1 rotate no_reflect no_shear #
lump $-1 $-1 $24 $3 #
transform $-1 1 0 0 0 1 0 0 0 1 73.11502426221503 46.470559001047285 22.965535540991212 1 rotate no_reflect no_shear #
lump $-1 $-1 $25 $4 #
transform $-1 1 0 0 0 1 0 0 0 1 73.11502426221503 46.470559001047285 22.965535540991212 1 rotate no_reflect no_shear #
lump $-1 $-1 $26 $5 #
transform $-1 1 0 0 0 1 0 0 0 1 73.11502426221503 46.470559001047285 22.965535540991212 1 rotate no_reflect no_shear #
lump $-1 $-1 $27 $6 #
transform $-1 1 0 0 0 1 0 0 0 1 73.11502426221503 46.470559001047285 22.965535540991212 1 rotate no_reflect no_shear #
shell $-1 $-1 $-1 $28 $-1 $7 #
shell $-1 $-1 $-1 $29 $-1 $9 #
shell $-1 $-1 $-1 $30 $-1 $11 #
shell $-1 $-1 $-1 $31 $-1 $13 #
shell $-1 $-1 $-1 $32 $-1 $15 #
shell $-1 $-1 $-1 $33 $-1 $17 #
shell $-1 $-1 $-1 $34 $-1 $19 #
face $-1 $35 $36 $21 $-1 $37 forward single #
face $-1 $38 $39 $22 $-1 $40 forward single #
face $-1 $41 $42 $23 $-1 $43 forward single #
face $-1 $44 $45 $24 $-1 $46 reversed single #
face $-1 $47 $48 $25 $-1 $49 forward single #
face $-1 $50 $51 $26 $-1 $52 forward single #
face $-1 $53 $54 $27 $-1 $55 forward single #
face $-1 $56 $57 $21 $-1 $58 reversed single #
loop $-1 $-1 $59 $28 #
plane-surface $-1 0 0 22.965535540991212 0 0 1 1 0 0 forward_v I I I I #
face $-1 $60 $61 $22 $-1 $62 reversed single #
loop $-1 $-1 $63 $29 #
plane-surface $-1 -65.106432413648506 0 -0.21501708405442344 0 0 1 1 0 0 forward_v I I I I #
face $-1 $64 $65 $23 $-1 $66 reversed single #
loop $-1 $-1 $67 $30 #
plane-surface $-1 65.106432413648491 0 -0.21501708405442344 0 0 1 1 0 0 forward_v I I I I #
face $-1 $68 $69 $24 $-1 $70 reversed single #
loop $-1 $-1 $71 $31 #
plane-surface $-1 6.5288303711330329 -148.05048741450847 112.6599454825343 1 0 0 0 0.69465837861970381 -0.71933979245794832 forward_v I I I I #
face $-1 $72 $73 $25 $-1 $74 forward single #
loop $-1 $75 $76 $32 #
cone-surface $-1 9.1588823356610476 -38.100623115055164 14.858524237194167 0 0.69465837861970381 -0.71933979245794832 0.5 0 0 1 I I 0 1 0.5 forward I I I I #
face $-1 $77 $78 $26 $-1 $79 forward single #
loop $-1 $80 $81 $33 #
cone-surface $-1 13.103960282453073 -38.100623115055164 14.858524237194167 0 0.69465837861970381 -0.71933979245794832 0.5 0 0 1 I I 0 1 0.5 forward I I I I #
face $-1 $82 $83 $27 $-1 $84 forward single #
loop $-1 $85 $86 $34 #
cone-surface $-1 17.049038229245099 -38.100623115055164 14.858524237194167 0 0.69465837861970381 -0.71933979245794832 0.5 0 0 1 I I 0 1 0.5 forward I I I I #
face $-1 $87 $88 $21 $-1 $89 reversed single #
loop $-1 $-1 $90 $35 #
plane-surface $-1 0 0 -22.965535540991212 0 0 1 1 0 0 forward_v I I I I #
coedge $-1 $91 $92 $93 $94 forward $36 $-1 #
face $-1 $95 $96 $22 $-1 $97 reversed single #
loop $-1 $-1 $98 $38 #
plane-surface $-1 -65.106432413648506 0 -12.399990429015773 0 0 1 1 0 0 forward_v I I I I #
coedge $-1 $99 $100 $101 $102 forward $39 $-1 #
face $-1 $103 $104 $23 $-1 $105 reversed single #
loop $-1 $-1 $106 $41 #
plane-surface $-1 65.106432413648491 0 -12.399990429015773 0 0 1 1 0 0 forward_v I I I I #
coedge $-1 $107 $108 $109 $110 reversed $42 $-1 #
face $-1 $111 $112 $24 $-1 $113 reversed single #
loop $-1 $-1 $114 $44 #
plane-surface $-1 13.103960282453073 -46.470559001047263 7.4708527258550674 0 -0.69465837861970381 0.71933979245794832 1 0 0 forward_v I I I I #
coedge $-1 $115 $116 $117 $118 reversed $45 $-1 #
face $-1 $-1 $119 $25 $-1 $120 forward single #
loop $-1 $121 $122 $47 #
cone-surface $-1 9.1588823356610476 -37.579629331090388 14.319019392850706 0 0.69465837861970381 -0.71933979245794832 0.25 0 0 1 I I -0.70710678118654746 0.70710678118654746 0.25 forward I I I I #
loop $-1 $-1 $123 $32 #
coedge $-1 $76 $76 $124 $125 reversed $48 $-1 #
face $-1 $-1 $126 $26 $-1 $127 forward single #
loop $-1 $128 $129 $50 #
cone-surface $-1 13.103960282453073 -37.579629331090388 14.319019392850706 0 0.69465837861970381 -0.71933979245794832 0.25 0 0 1 I I -0.70710678118654746 0.70710678118654746 0.25 forward I I I I #
loop $-1 $-1 $130 $33 #
coedge $-1 $81 $81 $131 $132 reversed $51 $-1 #
face $-1 $-1 $133 $27 $-1 $134 forward single #
loop $-1 $135 $136 $53 #
cone-surface $-1 17.049038229245099 -37.579629331090388 14.319019392850706 0 0.69465837861970381 -0.71933979245794832 0.25 0 0 1 I I -0.70710678118654746 0.70710678118654746 0.25 forward I I I I #
loop $-1 $-1 $137 $34 #
coedge $-1 $86 $86 $138 $139 reversed $54 $-1 #
face $-1 $140 $141 $21 $-1 $142 reversed single #
loop $-1 $-1 $143 $56 #
plane-surface $-1 0 -46.470559001047285 0 0 1 0 0 0 1 forward_v I I I I #
coedge $-1 $144 $145 $146 $147 forward $57 $-1 #
coedge $-1 $148 $59 $149 $150 forward $36 $-1 #
coedge $-1 $59 $148 $151 $152 forward $36 $-1 #
coedge $-1 $153 $154 $59 $94 reversed $155 $-1 #
edge $-1 $156 -46.470559001047285 $157 46.470559001047285 $93 $158 forward 7 unknown #
face $-1 $159 $160 $22 $-1 $161 reversed single #
loop $-1 $-1 $162 $60 #
plane-surface $-1 -57.097840565081981 0 -6.3075037565350982 -1 0 0 0 0 1 forward_v I I I I #
coedge $-1 $163 $164 $165 $166 forward $61 $-1 #
coedge $-1 $167 $63 $168 $169 reversed $39 $-1 #
coedge $-1 $63 $167 $170 $171 reversed $39 $-1 #
coedge $-1 $162 $172 $63 $102 reversed $96 $-1 #
edge $-1 $173 -46.470559001047285 $174 46.470559001047285 $101 $175 forward 7 unknown #
face $-1 $176 $177 $23 $-1 $178 reversed single #
loop $-1 $-1 $179 $64 #
plane-surface $-1 57.097840565081967 0 -6.3075037565350982 1 0 0 0 0 -1 forward_v I I I I #
coedge $-1 $180 $181 $182 $183 reversed $65 $-1 #
coedge $-1 $184 $67 $185 $186 reversed $42 $-1 #
coedge $-1 $67 $184 $187 $188 reversed $42 $-1 #
coedge $-1 $189 $190 $67 $110 forward $191 $-1 #
edge $-1 $192 -46.470559001047285 $193 46.470559001047285 $109 $194 forward 7 unknown #
face $-1 $195 $196 $24 $-1 $197 forward single #
loop $-1 $-1 $198 $68 #
plane-surface $-1 19.679090193773114 -148.05048741450847 112.6599454825343 -1 0 0 0 -0.69465837861970381 0.71933979245794832 forward_v I I I I #
coedge $-1 $199 $200 $201 $202 reversed $69 $-1 #
coedge $-1 $116 $71 $203 $204 reversed $45 $-1 #
coedge $-1 $71 $115 $199 $205 reversed $45 $-1 #
coedge $-1 $201 $206 $71 $118 forward $207 $-1 #
edge $-1 $208 33.364437200275937 $209 48.859120015412103 $117 $210 forward 7 unknown #
loop $-1 $-1 $124 $72 #
plane-surface $-1 13.103960282453073 -46.470559001047263 7.4708527258550674 0 -0.69465837861970381 0.71933979245794832 1 0 0 forward_v I I I I #
loop $-1 $-1 $211 $47 #
coedge $-1 $122 $122 $123 $212 reversed $73 $-1 #
coedge $-1 $123 $123 $122 $212 forward $75 $-1 #
coedge $-1 $124 $124 $76 $125 forward $119 $-1 #
edge $-1 $213 -7.0148797244214076e-016 $213 6.2831853071795996 $124 $214 forward 7 unknown #
loop $-1 $-1 $131 $77 #
plane-surface $-1 13.103960282453073 -46.470559001047263 7.4708527258550674 0 -0.69465837861970381 0.71933979245794832 1 0 0 forward_v I I I I #
loop $-1 $-1 $215 $50 #
coedge $-1 $129 $129 $130 $216 reversed $78 $-1 #
coedge $-1 $130 $130 $129 $216 forward $80 $-1 #
coedge $-1 $131 $131 $81 $132 forward $126 $-1 #
edge $-1 $217 -7.0148797244214076e-016 $217 6.2831853071795996 $131 $218 forward 7 unknown #
loop $-1 $-1 $138 $82 #
plane-surface $-1 13.103960282453073 -46.470559001047263 7.4708527258550674 0 -0.69465837861970381 0.71933979245794832 1 0 0 forward_v I I I I #
loop $-1 $-1 $219 $53 #
coedge $-1 $136 $136 $137 $220 reversed $83 $-1 #
coedge $-1 $137 $137 $136 $220 forward $85 $-1 #
coedge $-1 $138 $138 $86 $139 forward $133 $-1 #
edge $-1 $221 -7.0148797244214076e-016 $221 6.2831853071795996 $138 $222 forward 7 unknown #
face $-1 $223 $224 $21 $-1 $225 reversed single #
loop $-1 $-1 $226 $87 #
plane-surface $-1 -73.11502426221503 0 0 1 0 0 0 0 -1 forward_v I I I I #
coedge $-1 $227 $151 $228 $229 forward $88 $-1 #
coedge $-1 $230 $90 $227 $231 forward $57 $-1 #
coedge $-1 $90 $230 $232 $233 forward $57 $-1 #
coedge $-1 $154 $153 $90 $147 reversed $155 $-1 #
edge $-1 $234 -46.470559001047285 $235 46.470559001047285 $146 $236 forward 7 unknown #
coedge $-1 $92 $91 $237 $238 forward $36 $-1 #
coedge $-1 $239 $240 $91 $150 reversed $224 $-1 #
edge $-1 $157 -73.11502426221503 $241 73.11502426221503 $149 $242 forward 7 unknown #
coedge $-1 $143 $243 $92 $152 reversed $88 $-1 #
edge $-1 $244 -73.11502426221503 $156 73.11502426221503 $151 $245 forward 7 unknown #
coedge $-1 $146 $93 $243 $246 forward $155 $-1 #
coedge $-1 $93 $146 $239 $247 reversed $155 $-1 #
loop $-1 $-1 $153 $223 #
vertex $-1 $94 $248 #
vertex $-1 $94 $249 #
straight-curve $-1 73.11502426221503 0 22.965535540991212 0 1 0 I I #
face $-1 $250 $251 $22 $-1 $252 reversed single #
loop $-1 $-1 $253 $95 #
plane-surface $-1 0 -46.470559001047285 0 0 1 0 0 0 1 forward_v I I I I #
coedge $-1 $165 $101 $254 $255 reversed $96 $-1 #
coedge $-1 $256 $98 $253 $257 reversed $61 $-1 #
coedge $-1 $98 $256 $258 $259 reversed $61 $-1 #
coedge $-1 $172 $162 $98 $166 reversed $96 $-1 #
edge $-1 $260 -46.470559001047285 $261 46.470559001047285 $165 $262 forward 7 unknown #
coedge $-1 $100 $99 $263 $264 reversed $39 $-1 #
coedge $-1 $265 $266 $99 $169 forward $267 $-1 #
edge $-1 $268 -40.561808055390777 $174 -24.544624358257728 $168 $269 forward 7 unknown #
coedge $-1 $270 $254 $100 $171 forward $160 $-1 #
edge $-1 $173 24.544624358257728 $271 40.561808055390777 $170 $272 forward 7 unknown #
coedge $-1 $101 $165 $265 $273 reversed $96 $-1 #
vertex $-1 $171 $274 #
vertex $-1 $169 $275 #
straight-curve $-1 -57.097840565081981 0 -0.21501708405442344 0 1 0 I I #
face $-1 $276 $277 $23 $-1 $278 reversed single #
loop $-1 $-1 $187 $103 #
plane-surface $-1 0 -46.470559001047285 0 0 1 0 0 0 1 forward_v I I I I #
coedge $-1 $279 $280 $281 $282 reversed $104 $-1 #
coedge $-1 $283 $106 $284 $285 reversed $65 $-1 #
coedge $-1 $106 $283 $286 $287 reversed $65 $-1 #
coedge $-1 $190 $189 $106 $183 forward $191 $-1 #
edge $-1 $288 -46.470559001047285 $289 46.470559001047285 $182 $290 forward 7 unknown #
coedge $-1 $108 $107 $280 $291 forward $42 $-1 #
coedge $-1 $292 $281 $107 $186 forward $277 $-1 #
edge $-1 $293 24.544624358257721 $192 40.56180805539077 $185 $294 forward 7 unknown #
coedge $-1 $295 $296 $108 $188 forward $177 $-1 #
edge $-1 $193 -40.56180805539077 $297 -24.544624358257721 $187 $298 forward 7 unknown #
coedge $-1 $182 $109 $296 $299 forward $191 $-1 #
coedge $-1 $109 $182 $292 $300 reversed $191 $-1 #
loop $-1 $-1 $109 $276 #
vertex $-1 $300 $301 #
vertex $-1 $299 $302 #
straight-curve $-1 73.11502426221503 0 -0.21501708405442344 0 -1 0 I I #
face $-1 $-1 $207 $24 $-1 $303 reversed single #
loop $-1 $-1 $304 $111 #
plane-surface $-1 0 0 22.965535540991212 0 0 1 1 0 0 forward_v I I I I #
coedge $-1 $305 $306 $307 $308 reversed $112 $-1 #
coedge $-1 $309 $114 $116 $205 forward $69 $-1 #
coedge $-1 $114 $309 $305 $310 forward $69 $-1 #
coedge $-1 $307 $117 $114 $202 forward $207 $-1 #
edge $-1 $209 -0.023149770093503719 $311 13.127110052546577 $201 $312 forward 7 unknown #
coedge $-1 $313 $314 $115 $204 forward $196 $-1 #
edge $-1 $315 -43.599898099571519 $208 -27.554684706206949 $203 $316 forward 7 unknown #
edge $-1 $209 -2.9524203284164893e-014 $315 22.305471713915409 $116 $317 forward 7 unknown #
coedge $-1 $117 $307 $313 $318 reversed $207 $-1 #
loop $-1 $-1 $307 $195 #
vertex $-1 $318 $319 #
vertex $-1 $118 $320 #
straight-curve $-1 6.5288303711330329 -46.470559001047285 56.329972741267149 0 0 -1 I I #
coedge $-1 $211 $211 $-1 $321 reversed $121 $-1 #
edge $-1 $322 0 $322 6.2831853071796004 $122 $323 forward 7 unknown #
vertex $-1 $125 $324 #
ellipse-curve $-1 9.1588823356610476 -38.447952304365003 15.218194133423127 0 -0.69465837861970381 0.71933979245794832 0.5 0 0 1 I I #
coedge $-1 $215 $215 $-1 $325 reversed $128 $-1 #
edge $-1 $326 0 $326 6.2831853071796004 $129 $327 forward 7 unknown #
vertex $-1 $132 $328 #
ellipse-curve $-1 13.103960282453073 -38.447952304365003 15.218194133423127 0 -0.69465837861970381 0.71933979245794832 0.5 0 0 1 I I #
coedge $-1 $219 $219 $-1 $329 reversed $135 $-1 #
edge $-1 $330 0 $330 6.2831853071796004 $136 $331 forward 7 unknown #
vertex $-1 $139 $332 #
ellipse-curve $-1 17.049038229245099 -38.447952304365003 15.218194133423127 0 -0.69465837861970381 0.71933979245794832 0.5 0 0 1 I I #
face $-1 $-1 $155 $21 $-1 $333 reversed single #
loop $-1 $-1 $239 $140 #
plane-surface $-1 0 46.470559001047285 0 0 -1 0 0 0 -1 forward_v I I I I #
coedge $-1 $334 $237 $240 $335 forward $141 $-1 #
coedge $-1 $243 $143 $144 $231 reversed $88 $-1 #
coedge $-1 $237 $334 $143 $229 reversed $141 $-1 #
edge $-1 $244 -22.965535540991212 $336 22.965535540991212 $228 $337 forward 7 unknown #
coedge $-1 $145 $144 $334 $338 forward $57 $-1 #
edge $-1 $235 -73.11502426221503 $336 73.11502426221503 $227 $339 forward 7 unknown #
coedge $-1 $240 $239 $145 $233 reversed $224 $-1 #
edge $-1 $340 -73.11502426221503 $234 73.11502426221503 $232 $341 forward 7 unknown #
vertex $-1 $147 $342 #
vertex $-1 $246 $343 #
straight-curve $-1 73.11502426221503 0 -22.965535540991212 0 -1 0 I I #
coedge $-1 $226 $228 $148 $238 reversed $141 $-1 #
edge $-1 $241 -46.470559001047285 $244 46.470559001047285 $237 $344 forward 7 unknown #
coedge $-1 $232 $149 $154 $247 forward $224 $-1 #
coedge $-1 $149 $232 $226 $335 reversed $224 $-1 #
vertex $-1 $150 $345 #
straight-curve $-1 0 46.470559001047285 22.965535540991212 -1 0 0 I I #
coedge $-1 $151 $227 $153 $246 reversed $88 $-1 #
vertex $-1 $238 $346 #
straight-curve $-1 0 -46.470559001047285 22.965535540991212 1 0 0 I I #
edge $-1 $156 -22.965535540991212 $235 22.965535540991212 $153 $347 forward 7 unknown #
edge $-1 $157 -22.965535540991212 $234 22.965535540991212 $154 $348 forward 7 unknown #
point $-1 73.11502426221503 -46.470559001047285 22.965535540991212 #
point $-1 73.11502426221503 46.470559001047285 22.965535540991212 #
face $-1 $-1 $267 $22 $-1 $349 reversed single #
loop $-1 $-1 $350 $159 #
plane-surface $-1 -73.11502426221503 0 0 1 0 0 0 0 -1 forward_v I I I I #
coedge $-1 $254 $270 $163 $257 forward $160 $-1 #
coedge $-1 $170 $253 $162 $255 forward $160 $-1 #
edge $-1 $261 -9.2462385507482239 $173 2.9387347942131257 $254 $351 forward 7 unknown #
coedge $-1 $164 $163 $350 $352 reversed $61 $-1 #
edge $-1 $353 -40.561808055390777 $261 -24.544624358257728 $253 $354 forward 7 unknown #
coedge $-1 $266 $265 $164 $259 forward $267 $-1 #
edge $-1 $260 24.544624358257728 $355 40.561808055390777 $258 $356 forward 7 unknown #
vertex $-1 $259 $357 #
vertex $-1 $257 $358 #
straight-curve $-1 -57.097840565081981 0 -12.399990429015773 0 -1 0 I I #
coedge $-1 $359 $360 $167 $264 forward $251 $-1 #
edge $-1 $271 -46.470559001047285 $268 46.470559001047285 $263 $361 forward 7 unknown #
coedge $-1 $258 $168 $172 $273 forward $267 $-1 #
coedge $-1 $168 $258 $359 $362 reversed $267 $-1 #
loop $-1 $-1 $258 $250 #
vertex $-1 $362 $363 #
straight-curve $-1 -32.553216206824253 46.470559001047285 -0.21501708405442344 1 0 0 I I #
coedge $-1 $253 $170 $360 $364 forward $160 $-1 #
vertex $-1 $364 $365 #
straight-curve $-1 -32.553216206824253 -46.470559001047285 -0.21501708405442344 -1 0 0 I I #
edge $-1 $174 -2.9387347942131257 $260 9.2462385507482239 $265 $366 forward 7 unknown #
point $-1 -57.097840565081981 -46.470559001047285 -0.21501708405442344 #
point $-1 -57.097840565081981 46.470559001047285 -0.21501708405442344 #
face $-1 $-1 $191 $23 $-1 $367 reversed single #
loop $-1 $-1 $185 $176 #
plane-surface $-1 0 46.470559001047285 0 0 -1 0 0 0 -1 forward_v I I I I #
coedge $-1 $368 $179 $283 $369 reversed $104 $-1 #
coedge $-1 $179 $368 $184 $291 reversed $104 $-1 #
coedge $-1 $185 $286 $179 $282 forward $277 $-1 #
edge $-1 $370 -9.2462385507482239 $293 2.9387347942131257 $281 $371 forward 7 unknown #
coedge $-1 $181 $180 $279 $369 forward $65 $-1 #
coedge $-1 $296 $295 $180 $285 forward $177 $-1 #
edge $-1 $372 24.544624358257721 $288 40.56180805539077 $284 $373 forward 7 unknown #
coedge $-1 $281 $292 $181 $287 forward $277 $-1 #
edge $-1 $289 -40.56180805539077 $370 -24.544624358257721 $286 $374 forward 7 unknown #
vertex $-1 $183 $375 #
vertex $-1 $183 $376 #
straight-curve $-1 73.11502426221503 0 -12.399990429015773 0 1 0 I I #
edge $-1 $293 -46.470559001047285 $297 46.470559001047285 $280 $377 forward 7 unknown #
coedge $-1 $286 $185 $190 $300 forward $277 $-1 #
vertex $-1 $186 $378 #
straight-curve $-1 32.553216206824246 46.470559001047285 -0.21501708405442344 1 0 0 I I #
coedge $-1 $284 $187 $368 $379 forward $177 $-1 #
coedge $-1 $187 $284 $189 $299 reversed $177 $-1 #
vertex $-1 $188 $380 #
straight-curve $-1 32.553216206824246 -46.470559001047285 -0.21501708405442344 -1 0 0 I I #
edge $-1 $193 0.21501708405442344 $288 12.399990429015773 $189 $381 forward 7 unknown #
edge $-1 $192 0.21501708405442344 $289 12.399990429015773 $190 $382 forward 7 unknown #
point $-1 73.115024262215016 46.470559001047285 -0.21501708405442344 #
point $-1 73.115024262215016 -46.470559001047285 -0.21501708405442344 #
plane-surface $-1 0 -46.470559001047285 0 0 1 0 0 0 1 forward_v I I I I #
coedge $-1 $314 $313 $306 $383 forward $196 $-1 #
coedge $-1 $306 $198 $200 $310 reversed $112 $-1 #
coedge $-1 $198 $305 $304 $383 reversed $112 $-1 #
coedge $-1 $206 $201 $198 $308 forward $207 $-1 #
edge $-1 $311 -48.859120015412103 $384 -33.364437200275937 $307 $385 forward 7 unknown #
coedge $-1 $200 $199 $314 $386 reversed $69 $-1 #
edge $-1 $387 -22.305471713915409 $311 2.9524203284164893e-014 $305 $388 forward 7 unknown #
vertex $-1 $202 $389 #
straight-curve $-1 6.5519801412265366 -46.470559001047285 7.4708527258550514 1 0 0 I I #
coedge $-1 $304 $203 $206 $318 forward $196 $-1 #
coedge $-1 $203 $304 $309 $386 forward $196 $-1 #
vertex $-1 $204 $390 #
straight-curve $-1 6.5288303711330329 -74.025243707254234 22.965535540991212 0 -1 0 I I #
straight-curve $-1 6.5288303711330329 -46.470559001047263 7.4708527258550674 0 0.71933979245794832 0.69465837861970381 I I #
edge $-1 $208 6.5288303711330329 $384 19.679090193773114 $206 $391 forward 7 unknown #
point $-1 6.5288303711330329 -46.470559001047285 22.965535540991212 #
point $-1 6.5288303711330329 -46.470559001047285 7.470852725855047 #
edge $-1 $392 1 $392 0 $211 $-1 forward 7 unknown #
vertex $-1 $212 $393 #
ellipse-curve $-1 9.1588823356610476 -37.753293925745311 14.498854340965194 0 -0.69465837861970381 0.71933979245794832 0.5 0 0 1 I I #
point $-1 9.6588823356610476 -38.447952304365018 15.218194133423141 #
edge $-1 $394 1 $394 0 $215 $-1 forward 7 unknown #
vertex $-1 $216 $395 #
ellipse-curve $-1 13.103960282453073 -37.753293925745311 14.498854340965194 0 -0.69465837861970381 0.71933979245794832 0.5 0 0 1 I I #
point $-1 13.603960282453073 -38.447952304365018 15.218194133423141 #
edge $-1 $396 1 $396 0 $219 $-1 forward 7 unknown #
vertex $-1 $220 $397 #
ellipse-curve $-1 17.049038229245099 -37.753293925745311 14.498854340965194 0 -0.69465837861970381 0.71933979245794832 0.5 0 0 1 I I #
point $-1 17.549038229245099 -38.447952304365018 15.218194133423141 #
plane-surface $-1 73.11502426221503 0 0 -1 0 0 0 0 1 forward_v I I I I #
coedge $-1 $228 $226 $230 $338 reversed $141 $-1 #
edge $-1 $241 -22.965535540991212 $340 22.965535540991212 $240 $398 forward 7 unknown #
vertex $-1 $338 $399 #
straight-curve $-1 -73.11502426221503 -46.470559001047285 0 0 0 -1 I I #
edge $-1 $336 -46.470559001047285 $340 46.470559001047285 $334 $400 forward 7 unknown #
straight-curve $-1 0 -46.470559001047285 -22.965535540991212 -1 0 0 I I #
vertex $-1 $233 $401 #
straight-curve $-1 0 46.470559001047285 -22.965535540991212 1 0 0 I I #
point $-1 73.11502426221503 46.470559001047285 -22.965535540991212 #
point $-1 73.11502426221503 -46.470559001047285 -22.965535540991212 #
straight-curve $-1 -73.11502426221503 0 22.965535540991212 0 -1 0 I I #
point $-1 -73.11502426221503 46.470559001047285 22.965535540991212 #
point $-1 -73.11502426221503 -46.470559001047285 22.965535540991212 #
straight-curve $-1 73.11502426221503 -46.470559001047285 0 0 0 -1 I I #
straight-curve $-1 73.11502426221503 46.470559001047285 0 0 0 -1 I I #
plane-surface $-1 0 46.470559001047285 0 0 -1 0 0 0 -1 forward_v I I I I #
coedge $-1 $360 $359 $256 $352 forward $251 $-1 #
straight-curve $-1 -57.097840565081981 -46.470559001047285 -3.1537518782675491 0 0 1 I I #
edge $-1 $355 -46.470559001047285 $353 46.470559001047285 $350 $402 forward 7 unknown #
vertex $-1 $257 $403 #
straight-curve $-1 -32.553216206824253 -46.470559001047285 -12.399990429015773 1 0 0 I I #
vertex $-1 $259 $404 #
straight-curve $-1 -32.553216206824253 46.470559001047285 -12.399990429015773 -1 0 0 I I #
point $-1 -57.097840565081981 46.470559001047285 -12.399990429015773 #
point $-1 -57.097840565081981 -46.470559001047285 -12.399990429015773 #
coedge $-1 $350 $263 $266 $362 forward $251 $-1 #
coedge $-1 $263 $350 $270 $364 reversed $251 $-1 #
straight-curve $-1 -73.11502426221503 0 -0.21501708405442344 0 1 0 I I #
edge $-1 $268 0.21501708405442344 $355 12.399990429015773 $266 $405 forward 7 unknown #
point $-1 -73.11502426221503 46.470559001047285 -0.21501708405442344 #
edge $-1 $271 0.21501708405442344 $353 12.399990429015773 $360 $406 forward 7 unknown #
point $-1 -73.11502426221503 -46.470559001047285 -0.21501708405442344 #
straight-curve $-1 -57.097840565081981 46.470559001047285 -3.1537518782675491 0 0 -1 I I #
plane-surface $-1 73.11502426221503 0 0 -1 0 0 0 0 1 forward_v I I I I #
coedge $-1 $280 $279 $295 $379 reversed $104 $-1 #
edge $-1 $372 -46.470559001047285 $370 46.470559001047285 $279 $407 forward 7 unknown #
vertex $-1 $287 $408 #
straight-curve $-1 57.097840565081967 46.470559001047285 -3.1537518782675491 0 0 1 I I #
vertex $-1 $285 $409 #
straight-curve $-1 32.553216206824246 -46.470559001047285 -12.399990429015773 1 0 0 I I #
straight-curve $-1 32.553216206824246 46.470559001047285 -12.399990429015773 -1 0 0 I I #
point $-1 73.115024262215016 -46.470559001047285 -12.399990429015773 #
point $-1 73.115024262215016 46.470559001047285 -12.399990429015773 #
straight-curve $-1 57.097840565081967 0 -0.21501708405442344 0 -1 0 I I #
point $-1 57.097840565081967 46.470559001047285 -0.21501708405442344 #
edge $-1 $297 -2.9387347942131257 $372 9.2462385507482239 $295 $410 forward 7 unknown #
point $-1 57.097840565081967 -46.470559001047285 -0.21501708405442344 #
straight-curve $-1 73.11502426221503 -46.470559001047285 0 0 0 -1 I I #
straight-curve $-1 73.11502426221503 46.470559001047285 0 0 0 -1 I I #
edge $-1 $384 27.554684706206949 $387 43.599898099571519 $304 $411 forward 7 unknown #
vertex $-1 $383 $412 #
straight-curve $-1 19.679090193773114 -46.470559001047285 56.329972741267149 0 0 1 I I #
edge $-1 $387 -13.127110052546577 $315 0.023149770093503719 $314 $413 forward 7 unknown #
vertex $-1 $386 $414 #
straight-curve $-1 19.679090193773114 -46.470559001047263 7.4708527258550674 0 -0.71933979245794832 -0.69465837861970381 I I #
point $-1 19.679090193773114 -46.470559001047285 7.470852725855047 #
point $-1 6.5288303711330329 -30.425345607682715 22.965535540991212 #
straight-curve $-1 0 -46.470559001047285 22.965535540991212 1 0 0 I I #
vertex $-1 $321 $415 #
point $-1 9.6588823356610476 -37.753293925745311 14.498854340965194 #
vertex $-1 $325 $416 #
point $-1 13.603960282453073 -37.753293925745311 14.498854340965194 #
vertex $-1 $329 $417 #
point $-1 17.549038229245099 -37.753293925745311 14.498854340965194 #
straight-curve $-1 -73.11502426221503 46.470559001047285 0 0 0 -1 I I #
point $-1 -73.11502426221503 -46.470559001047285 -22.965535540991212 #
straight-curve $-1 -73.11502426221503 0 -22.965535540991212 0 1 0 I I #
point $-1 -73.11502426221503 46.470559001047285 -22.965535540991212 #
straight-curve $-1 -73.11502426221503 0 -12.399990429015773 0 -1 0 I I #
point $-1 -73.11502426221503 -46.470559001047285 -12.399990429015773 #
point $-1 -73.11502426221503 46.470559001047285 -12.399990429015773 #
straight-curve $-1 -73.11502426221503 46.470559001047285 0 0 0 -1 I I #
straight-curve $-1 -73.11502426221503 -46.470559001047285 0 0 0 -1 I I #
straight-curve $-1 57.097840565081967 0 -12.399990429015773 0 1 0 I I #
point $-1 57.097840565081967 46.470559001047285 -12.399990429015773 #
point $-1 57.097840565081967 -46.470559001047285 -12.399990429015773 #
straight-curve $-1 57.097840565081967 -46.470559001047285 -3.1537518782675491 0 0 -1 I I #
straight-curve $-1 19.679090193773114 -74.025243707254234 22.965535540991212 0 1 0 I I #
point $-1 19.679090193773114 -46.470559001047285 22.965535540991212 #
straight-curve $-1 6.5519801412265366 -30.425345607682711 22.965535540991212 -1 0 0 I I #
point $-1 19.679090193773114 -30.425345607682715 22.965535540991212 #
point $-1 9.1588823356610476 -37.405964736435465 14.139184444736218 #
point $-1 13.103960282453073 -37.405964736435465 14.139184444736218 #
point $-1 17.049038229245099 -37.405964736435465 14.139184444736218 #
End-of-ACIS-data 