500 0 5 0           
7 Unknown 11 ACIS 5.0 NT 24 Fri Mar 26 02:40:08 1999 
-1 9.9999999999999995e-007 1e-010 
body $-1 $5 $-1 $6 #
body $-1 $7 $-1 $8 #
body $-1 $9 $-1 $10 #
body $-1 $11 $-1 $12 #
body $-1 $13 $-1 $14 #
lump $-1 $-1 $15 $0 #
transform $-1 1 0 0 0 1 0 0 0 1 68.329721976378664 28.650645960199643 10.120191243401676 1 rotate no_reflect no_shear #
lump $-1 $-1 $16 $1 #
transform $-1 1 0 0 0 1 0 0 0 1 68.329721976378664 28.650645960199643 10.120191243401676 1 rotate no_reflect no_shear #
lump $-1 $-1 $17 $2 #
transform $-1 1 0 0 0 1 0 0 0 1 68.329721976378664 28.650645960199643 10.120191243401676 1 rotate no_reflect no_shear #
lump $-1 $-1 $18 $3 #
transform $-1 1 0 0 0 1 0 0 0 1 68.329721976378664 28.650645960199643 10.120191243401676 1 rotate no_reflect no_shear #
lump $-1 $-1 $19 $4 #
transform $-1 1 0 0 0 1 0 0 0 1 68.329721976378664 28.650645960199643 10.120191243401676 1 rotate no_reflect no_shear #
shell $-1 $-1 $-1 $20 $-1 $5 #
shell $-1 $-1 $-1 $21 $-1 $7 #
shell $-1 $-1 $-1 $22 $-1 $9 #
shell $-1 $-1 $-1 $23 $-1 $11 #
shell $-1 $-1 $-1 $24 $-1 $13 #
face $-1 $25 $26 $15 $-1 $27 forward single #
face $-1 $28 $29 $16 $-1 $30 forward single #
face $-1 $31 $32 $17 $-1 $33 forward single #
face $-1 $34 $35 $18 $-1 $36 reversed single #
face $-1 $37 $38 $19 $-1 $39 reversed single #
face $-1 $40 $41 $15 $-1 $42 reversed single #
loop $-1 $-1 $43 $20 #
plane-surface $-1 0 0 10.120191243401676 0 0 1 1 0 0 forward_v I I I I #
face $-1 $44 $45 $16 $-1 $46 forward single #
loop $-1 $-1 $47 $21 #
plane-surface $-1 -63.101248881605365 0 5.3331526937028926 0 0 1 1 0 0 forward_v I I I I #
face $-1 $48 $49 $17 $-1 $50 forward single #
loop $-1 $-1 $51 $22 #
plane-surface $-1 61.584850584553664 21.841940928300122 194.90649660416676 0 1 0 0.68199836817093118 0 0.7313536940579346 forward_v I I I I #
face $-1 $52 $53 $18 $-1 $54 reversed single #
loop $-1 $55 $56 $23 #
cone-surface $-1 63.217422764276989 23.78728522312856 5.2649355758561143 -0.68199836817093118 0 -0.7313536940579346 0.3656768470289673 0 -0.34099918408546559 1 I I 0 1 0.5 forward I I I I #
face $-1 $57 $58 $19 $-1 $59 reversed single #
loop $-1 $60 $61 $24 #
cone-surface $-1 63.217422764276989 26.705301665371213 5.2649355758561143 -0.68199836817093118 0 -0.7313536940579346 0.3656768470289673 0 -0.34099918408546559 1 I I 0 1 0.5 forward I I I I #
face $-1 $62 $63 $15 $-1 $64 reversed single #
loop $-1 $-1 $65 $25 #
plane-surface $-1 0 0 -10.120191243401676 0 0 1 1 0 0 forward_v I I I I #
coedge $-1 $66 $67 $68 $69 forward $26 $-1 #
face $-1 $70 $71 $16 $-1 $72 forward single #
loop $-1 $-1 $73 $28 #
plane-surface $-1 -57.872775786832065 0 7.7266719685522833 -1 0 0 0 0 1 forward_v I I I I #
coedge $-1 $74 $75 $76 $77 reversed $29 $-1 #
face $-1 $78 $79 $17 $-1 $80 reversed single #
loop $-1 $-1 $81 $31 #
plane-surface $-1 -31.616667186373661 25.246293444249883 94.960107441414422 0.68199836817093118 0 0.7313536940579346 0.7313536940579346 0 -0.68199836817093118 forward_v I I I I #
coedge $-1 $82 $83 $84 $85 reversed $32 $-1 #
face $-1 $86 $87 $18 $-1 $88 forward single #
loop $-1 $89 $90 $34 #
cone-surface $-1 62.417983806720258 23.78728522312856 4.4076422712533674 -0.68199836817093118 0 -0.7313536940579346 0.18283842351448365 0 -0.17049959204273279 1 I I -0.70710678118654746 0.70710678118654746 0.25 forward I I I I #
loop $-1 $-1 $91 $23 #
coedge $-1 $56 $56 $92 $93 reversed $35 $-1 #
face $-1 $94 $95 $19 $-1 $96 reversed single #
loop $-1 $97 $98 $37 #
cone-surface $-1 62.417983806720258 26.705301665371213 4.4076422712533674 -0.68199836817093118 0 -0.7313536940579346 0.18283842351448365 0 -0.17049959204273279 1 I I -0.70710678118654746 0.70710678118654746 0.25 forward I I I I #
loop $-1 $-1 $99 $24 #
coedge $-1 $61 $61 $100 $101 reversed $38 $-1 #
face $-1 $102 $103 $15 $-1 $104 reversed single #
loop $-1 $-1 $105 $40 #
plane-surface $-1 0 -28.650645960199643 0 0 1 0 0 0 1 forward_v I I I I #
coedge $-1 $106 $107 $108 $109 forward $41 $-1 #
coedge $-1 $110 $43 $111 $112 forward $26 $-1 #
coedge $-1 $43 $110 $113 $114 forward $26 $-1 #
coedge $-1 $115 $116 $43 $69 reversed $117 $-1 #
edge $-1 $118 -28.650645960199643 $119 28.650645960199643 $68 $120 forward 7 unknown #
face $-1 $121 $122 $16 $-1 $123 reversed single #
loop $-1 $-1 $124 $44 #
plane-surface $-1 0 0 10.120191243401676 0 0 1 1 0 0 forward_v I I I I #
coedge $-1 $125 $76 $126 $127 reversed $45 $-1 #
coedge $-1 $128 $47 $129 $130 reversed $29 $-1 #
coedge $-1 $47 $128 $131 $132 reversed $29 $-1 #
coedge $-1 $73 $133 $47 $77 forward $45 $-1 #
edge $-1 $134 -28.650645960199643 $135 28.650645960199643 $76 $136 forward 7 unknown #
face $-1 $137 $138 $17 $-1 $139 forward single #
loop $-1 $-1 $140 $48 #
plane-surface $-1 68.329721976378664 0 0 -1 0 0 0 0 1 forward_v I I I I #
coedge $-1 $141 $142 $140 $143 reversed $49 $-1 #
coedge $-1 $83 $51 $142 $144 forward $32 $-1 #
coedge $-1 $51 $82 $145 $146 reversed $32 $-1 #
coedge $-1 $147 $140 $51 $85 forward $79 $-1 #
edge $-1 $148 -95.694658631596269 $149 -87.333057058681703 $84 $150 forward 7 unknown #
face $-1 $151 $152 $18 $-1 $153 forward single #
loop $-1 $-1 $154 $52 #
plane-surface $-1 61.584850584553664 21.841940928300122 194.90649660416676 0 1 0 0.68199836817093118 0 0.7313536940579346 forward_v I I I I #
loop $-1 $-1 $155 $34 #
coedge $-1 $90 $90 $91 $156 forward $53 $-1 #
coedge $-1 $91 $91 $90 $156 reversed $55 $-1 #
coedge $-1 $92 $92 $56 $93 forward $152 $-1 #
edge $-1 $157 0 $157 6.2831853071796004 $92 $158 forward 7 unknown #
face $-1 $159 $160 $19 $-1 $161 reversed single #
loop $-1 $162 $163 $57 #
cone-surface $-1 63.217422764276989 23.78728522312856 5.2649355758561143 -0.68199836817093118 0 -0.7313536940579346 0.3656768470289673 0 -0.34099918408546559 1 I I 0 1 0.5 forward I I I I #
loop $-1 $-1 $164 $37 #
coedge $-1 $98 $98 $99 $165 forward $58 $-1 #
coedge $-1 $99 $99 $98 $165 reversed $60 $-1 #
coedge $-1 $100 $100 $61 $101 forward $166 $-1 #
edge $-1 $167 0 $167 6.2831853071796004 $100 $168 forward 7 unknown #
face $-1 $169 $170 $15 $-1 $171 reversed single #
loop $-1 $-1 $172 $62 #
plane-surface $-1 -68.329721976378664 0 0 1 0 0 0 0 -1 forward_v I I I I #
coedge $-1 $173 $113 $174 $175 forward $63 $-1 #
coedge $-1 $176 $65 $173 $177 forward $41 $-1 #
coedge $-1 $65 $176 $178 $179 forward $41 $-1 #
coedge $-1 $116 $115 $65 $109 reversed $117 $-1 #
edge $-1 $180 -28.650645960199643 $181 28.650645960199643 $108 $182 forward 7 unknown #
coedge $-1 $67 $66 $183 $184 forward $26 $-1 #
coedge $-1 $185 $186 $66 $112 reversed $170 $-1 #
edge $-1 $119 -68.329721976378664 $187 68.329721976378664 $111 $188 forward 7 unknown #
coedge $-1 $105 $189 $67 $114 reversed $63 $-1 #
edge $-1 $190 -68.329721976378664 $118 68.329721976378664 $113 $191 forward 7 unknown #
coedge $-1 $108 $68 $189 $192 forward $117 $-1 #
coedge $-1 $68 $108 $185 $193 reversed $117 $-1 #
loop $-1 $-1 $115 $169 #
vertex $-1 $69 $194 #
vertex $-1 $69 $195 #
straight-curve $-1 68.329721976378664 0 10.120191243401676 0 1 0 I I #
face $-1 $196 $197 $16 $-1 $198 reversed single #
loop $-1 $-1 $126 $70 #
plane-surface $-1 0 -28.650645960199643 0 0 1 0 0 0 1 forward_v I I I I #
coedge $-1 $199 $200 $125 $201 forward $71 $-1 #
coedge $-1 $133 $73 $124 $201 reversed $45 $-1 #
coedge $-1 $131 $202 $73 $127 forward $122 $-1 #
edge $-1 $203 -6.2568552591255324 $135 -1.4698167094267509 $126 $204 forward 7 unknown #
coedge $-1 $75 $74 $205 $206 reversed $29 $-1 #
coedge $-1 $207 $208 $74 $130 forward $209 $-1 #
edge $-1 $210 -36.779097535575985 $134 -26.322151346029383 $129 $211 forward 7 unknown #
coedge $-1 $212 $126 $75 $132 forward $122 $-1 #
edge $-1 $135 26.322151346029383 $213 36.779097535575985 $131 $214 forward 7 unknown #
coedge $-1 $76 $125 $207 $215 reversed $45 $-1 #
vertex $-1 $130 $216 #
vertex $-1 $132 $217 #
straight-curve $-1 -57.872775786832065 0 5.3331526937028926 0 -1 0 I I #
face $-1 $218 $219 $17 $-1 $220 forward single #
loop $-1 $-1 $145 $78 #
plane-surface $-1 0 0 10.120191243401676 0 0 1 1 0 0 forward_v I I I I #
coedge $-1 $84 $221 $81 $143 forward $79 $-1 #
coedge $-1 $222 $81 $223 $224 reversed $49 $-1 #
coedge $-1 $81 $222 $82 $144 reversed $49 $-1 #
edge $-1 $225 -16.027499238074704 $148 -9.2187942061751809 $140 $226 forward 7 unknown #
edge $-1 $148 -136.6594439527573 $227 -124.3990017535483 $82 $228 forward 7 unknown #
coedge $-1 $229 $230 $83 $146 forward $138 $-1 #
edge $-1 $149 -37.537296684101833 $227 -28.57057699092654 $145 $231 forward 7 unknown #
coedge $-1 $232 $84 $230 $233 reversed $79 $-1 #
vertex $-1 $143 $234 #
vertex $-1 $146 $235 #
straight-curve $-1 68.329721976378664 21.841940928300122 97.453248302083381 0 0 1 I I #
face $-1 $236 $237 $18 $-1 $238 reversed single #
loop $-1 $239 $92 $86 #
plane-surface $-1 -31.616667186373661 25.246293444249883 94.960107441414422 0.68199836817093118 0 0.7313536940579346 0.7313536940579346 0 -0.68199836817093118 forward_v I I I I #
coedge $-1 $240 $241 $242 $243 reversed $87 $-1 #
coedge $-1 $155 $155 $-1 $244 forward $89 $-1 #
edge $-1 $245 0 $245 6.2831853071796004 $90 $246 forward 7 unknown #
vertex $-1 $93 $247 #
ellipse-curve $-1 63.846362129791011 23.78728522312856 5.9393904569444063 -0.68199836817093118 0 -0.7313536940579346 0.3656768470289673 0 -0.34099918408546559 1 I I #
face $-1 $248 $249 $19 $-1 $250 forward single #
loop $-1 $251 $252 $94 #
cone-surface $-1 62.417983806720258 23.78728522312856 4.4076422712533674 -0.68199836817093118 0 -0.7313536940579346 0.18283842351448365 0 -0.17049959204273279 1 I I -0.70710678118654746 0.70710678118654746 0.25 forward I I I I #
loop $-1 $-1 $253 $57 #
coedge $-1 $163 $163 $254 $255 reversed $95 $-1 #
coedge $-1 $164 $164 $-1 $256 forward $97 $-1 #
edge $-1 $257 0 $257 6.2831853071796004 $98 $258 forward 7 unknown #
loop $-1 $259 $100 $248 #
vertex $-1 $101 $260 #
ellipse-curve $-1 63.846362129791011 26.705301665371213 5.9393904569444063 -0.68199836817093118 0 -0.7313536940579346 0.3656768470289673 0 -0.34099918408546559 1 I I #
face $-1 $-1 $117 $15 $-1 $261 reversed single #
loop $-1 $-1 $185 $102 #
plane-surface $-1 0 28.650645960199643 0 0 -1 0 0 0 -1 forward_v I I I I #
coedge $-1 $262 $183 $186 $263 forward $103 $-1 #
coedge $-1 $189 $105 $106 $177 reversed $63 $-1 #
coedge $-1 $183 $262 $105 $175 reversed $103 $-1 #
edge $-1 $190 -10.120191243401676 $264 10.120191243401676 $174 $265 forward 7 unknown #
coedge $-1 $107 $106 $262 $266 forward $41 $-1 #
edge $-1 $181 -68.329721976378664 $264 68.329721976378664 $173 $267 forward 7 unknown #
coedge $-1 $186 $185 $107 $179 reversed $170 $-1 #
edge $-1 $268 -68.329721976378664 $180 68.329721976378664 $178 $269 forward 7 unknown #
vertex $-1 $109 $270 #
vertex $-1 $192 $271 #
straight-curve $-1 68.329721976378664 0 -10.120191243401676 0 -1 0 I I #
coedge $-1 $172 $174 $110 $184 reversed $103 $-1 #
edge $-1 $187 -28.650645960199643 $190 28.650645960199643 $183 $272 forward 7 unknown #
coedge $-1 $178 $111 $116 $193 forward $170 $-1 #
coedge $-1 $111 $178 $172 $263 reversed $170 $-1 #
vertex $-1 $112 $273 #
straight-curve $-1 0 28.650645960199643 10.120191243401676 -1 0 0 I I #
coedge $-1 $113 $173 $115 $192 reversed $63 $-1 #
vertex $-1 $184 $274 #
straight-curve $-1 0 -28.650645960199643 10.120191243401676 1 0 0 I I #
edge $-1 $118 -10.120191243401676 $181 10.120191243401676 $115 $275 forward 7 unknown #
edge $-1 $119 -10.120191243401676 $180 10.120191243401676 $116 $276 forward 7 unknown #
point $-1 68.329721976378664 -28.650645960199643 10.120191243401676 #
point $-1 68.329721976378664 28.650645960199643 10.120191243401676 #
face $-1 $277 $278 $16 $-1 $279 reversed single #
loop $-1 $-1 $280 $121 #
plane-surface $-1 0 0 -10.120191243401676 0 0 1 1 0 0 forward_v I I I I #
coedge $-1 $281 $124 $202 $282 forward $71 $-1 #
coedge $-1 $124 $281 $283 $284 forward $71 $-1 #
edge $-1 $285 -28.650645960199643 $203 28.650645960199643 $124 $286 forward 7 unknown #
coedge $-1 $126 $287 $199 $282 reversed $122 $-1 #
vertex $-1 $282 $288 #
straight-curve $-1 -57.872775786832065 -28.650645960199643 3.8633359842761417 0 0 -1 I I #
coedge $-1 $289 $290 $128 $206 forward $278 $-1 #
edge $-1 $213 -28.650645960199643 $210 28.650645960199643 $205 $291 forward 7 unknown #
coedge $-1 $283 $129 $133 $215 forward $209 $-1 #
coedge $-1 $129 $292 $289 $293 reversed $209 $-1 #
loop $-1 $-1 $207 $277 #
vertex $-1 $293 $294 #
straight-curve $-1 -31.550624440802682 28.650645960199643 5.3331526937028926 1 0 0 I I #
coedge $-1 $295 $131 $290 $296 forward $122 $-1 #
vertex $-1 $296 $297 #
straight-curve $-1 -31.550624440802682 -28.650645960199643 5.3331526937028926 -1 0 0 I I #
edge $-1 $134 1.4698167094267509 $285 6.2568552591255324 $207 $298 forward 7 unknown #
point $-1 -57.872775786832065 28.650645960199643 5.3331526937028926 #
point $-1 -57.872775786832065 -28.650645960199643 5.3331526937028926 #
face $-1 $299 $300 $17 $-1 $301 forward single #
loop $-1 $-1 $302 $137 #
plane-surface $-1 -63.101248881605365 0 5.3331526937028926 0 0 1 1 0 0 forward_v I I I I #
coedge $-1 $140 $303 $304 $305 reversed $79 $-1 #
coedge $-1 $142 $141 $229 $306 reversed $49 $-1 #
coedge $-1 $304 $307 $141 $224 forward $308 $-1 #
edge $-1 $309 80.456199425080513 $225 92.716641624289508 $223 $310 forward 7 unknown #
vertex $-1 $305 $311 #
straight-curve $-1 68.329721976378664 12.623146722124941 1.7585896704871118 0 -1 0 I I #
vertex $-1 $306 $312 #
straight-curve $-1 -31.616667186373661 21.841940928300122 94.960107441414422 -0.7313536940579346 0 0.68199836817093118 I I #
coedge $-1 $313 $145 $222 $306 forward $138 $-1 #
coedge $-1 $145 $314 $147 $233 forward $138 $-1 #
straight-curve $-1 30.792425292276832 21.841940928300122 10.120191243401678 -1 0 0 I I #
coedge $-1 $303 $147 $315 $316 forward $79 $-1 #
edge $-1 $317 -28.650645960199643 $149 21.841940928300122 $147 $318 forward 7 unknown #
point $-1 68.329721976378664 21.841940928300122 1.7585896704871118 #
point $-1 68.329721976378664 21.841940928300122 10.120191243401676 #
face $-1 $319 $320 $18 $-1 $321 forward single #
loop $-1 $-1 $322 $151 #
plane-surface $-1 68.329721976378664 0 0 -1 0 0 0 0 1 forward_v I I I I #
loop $-1 $-1 $323 $86 #
coedge $-1 $241 $154 $324 $325 forward $87 $-1 #
coedge $-1 $154 $240 $326 $327 reversed $87 $-1 #
coedge $-1 $328 $322 $154 $243 forward $237 $-1 #
edge $-1 $329 -95.694658631596269 $330 -87.333057058681703 $242 $331 forward 7 unknown #
edge $-1 $332 1 $332 0 $155 $-1 forward 7 unknown #
vertex $-1 $156 $333 #
ellipse-curve $-1 62.588483398762989 23.78728522312856 4.5904806947678507 0.68199836817093118 0 0.7313536940579346 0.3656768470289673 0 -0.34099918408546559 1 I I #
point $-1 64.212038976819954 23.78728522312856 5.5983912728589127 #
face $-1 $334 $166 $19 $-1 $335 forward single #
loop $-1 $-1 $336 $159 #
plane-surface $-1 61.584850584553664 21.841940928300122 194.90649660416676 0 1 0 0.68199836817093118 0 0.7313536940579346 forward_v I I I I #
loop $-1 $-1 $337 $94 #
coedge $-1 $252 $252 $253 $338 forward $160 $-1 #
coedge $-1 $253 $253 $252 $338 reversed $162 $-1 #
coedge $-1 $254 $254 $163 $255 forward $259 $-1 #
edge $-1 $339 0 $339 6.2831853071796004 $254 $340 forward 7 unknown #
edge $-1 $341 1 $341 0 $164 $-1 forward 7 unknown #
vertex $-1 $165 $342 #
ellipse-curve $-1 62.588483398762989 26.705301665371213 4.5904806947678507 0.68199836817093118 0 0.7313536940579346 0.3656768470289673 0 -0.34099918408546559 1 I I #
loop $-1 $343 $254 $248 #
point $-1 64.212038976819954 26.705301665371213 5.5983912728589127 #
plane-surface $-1 68.329721976378664 0 0 -1 0 0 0 0 1 forward_v I I I I #
coedge $-1 $174 $172 $176 $266 reversed $103 $-1 #
edge $-1 $187 -10.120191243401676 $268 10.120191243401676 $186 $344 forward 7 unknown #
vertex $-1 $266 $345 #
straight-curve $-1 -68.329721976378664 -28.650645960199643 0 0 0 -1 I I #
edge $-1 $264 -28.650645960199643 $268 28.650645960199643 $262 $346 forward 7 unknown #
straight-curve $-1 0 -28.650645960199643 -10.120191243401676 -1 0 0 I I #
vertex $-1 $179 $347 #
straight-curve $-1 0 28.650645960199643 -10.120191243401676 1 0 0 I I #
point $-1 68.329721976378664 28.650645960199643 -10.120191243401676 #
point $-1 68.329721976378664 -28.650645960199643 -10.120191243401676 #
straight-curve $-1 -68.329721976378664 0 10.120191243401676 0 -1 0 I I #
point $-1 -68.329721976378664 28.650645960199643 10.120191243401676 #
point $-1 -68.329721976378664 -28.650645960199643 10.120191243401676 #
straight-curve $-1 68.329721976378664 -28.650645960199643 0 0 0 -1 I I #
straight-curve $-1 68.329721976378664 28.650645960199643 0 0 0 -1 I I #
face $-1 $348 $209 $16 $-1 $349 reversed single #
loop $-1 $-1 $205 $196 #
plane-surface $-1 -68.329721976378664 0 0 1 0 0 0 0 -1 forward_v I I I I #
coedge $-1 $350 $351 $352 $353 forward $197 $-1 #
coedge $-1 $200 $199 $354 $355 forward $71 $-1 #
edge $-1 $203 -57.872775786832065 $356 68.329721976378664 $202 $357 forward 7 unknown #
coedge $-1 $358 $207 $200 $284 reversed $209 $-1 #
edge $-1 $359 -68.329721976378664 $285 57.872775786832065 $283 $360 forward 7 unknown #
vertex $-1 $201 $361 #
straight-curve $-1 -57.872775786832065 0 10.120191243401676 0 -1 0 I I #
coedge $-1 $202 $295 $362 $363 reversed $122 $-1 #
point $-1 -57.872775786832065 -28.650645960199643 10.120191243401674 #
coedge $-1 $364 $205 $208 $293 forward $278 $-1 #
coedge $-1 $205 $364 $212 $296 reversed $278 $-1 #
straight-curve $-1 -68.329721976378664 0 5.3331526937028926 0 1 0 I I #
coedge $-1 $208 $358 $351 $365 reversed $209 $-1 #
edge $-1 $210 -5.3331526937028926 $366 10.120191243401676 $208 $367 forward 7 unknown #
point $-1 -68.329721976378664 28.650645960199643 5.3331526937028926 #
coedge $-1 $287 $212 $350 $368 reversed $122 $-1 #
edge $-1 $213 -5.3331526937028926 $369 10.120191243401676 $290 $370 forward 7 unknown #
point $-1 -68.329721976378664 -28.650645960199643 5.3331526937028926 #
straight-curve $-1 -57.872775786832065 28.650645960199643 3.8633359842761417 0 0 1 I I #
face $-1 $371 $372 $17 $-1 $373 reversed single #
loop $-1 $-1 $374 $218 #
plane-surface $-1 -57.872775786832065 0 7.7266719685522833 -1 0 0 0 0 1 forward_v I I I I #
coedge $-1 $375 $376 $377 $378 reversed $219 $-1 #
coedge $-1 $221 $232 $379 $380 reversed $79 $-1 #
coedge $-1 $381 $223 $221 $305 forward $308 $-1 #
edge $-1 $225 -1.7585896704871167 $382 10.120191243401676 $221 $383 forward 7 unknown #
edge $-1 $227 9.2187942061751809 $309 16.027499238074704 $229 $384 forward 7 unknown #
coedge $-1 $223 $385 $313 $386 reversed $308 $-1 #
loop $-1 $-1 $223 $387 #
vertex $-1 $386 $388 #
straight-curve $-1 0.52106362380887461 28.650645960199643 64.991187960541595 0.7313536940579346 0 -0.68199836817093118 I I #
point $-1 68.329721976378664 28.650645960199643 1.7585896704871167 #
point $-1 59.363002283203372 21.841940928300122 10.120191243401678 #
coedge $-1 $389 $229 $307 $386 forward $138 $-1 #
coedge $-1 $230 $389 $390 $391 forward $138 $-1 #
coedge $-1 $390 $392 $232 $316 reversed $372 $-1 #
edge $-1 $317 -10.120191243401676 $393 10.120191243401676 $232 $394 forward 7 unknown #
vertex $-1 $233 $395 #
straight-curve $-1 68.329721976378664 0 10.120191243401676 0 1 0 I I #
face $-1 $396 $397 $18 $-1 $398 forward single #
loop $-1 $-1 $326 $236 #
plane-surface $-1 0 0 10.120191243401676 0 0 1 1 0 0 forward_v I I I I #
coedge $-1 $242 $399 $323 $400 forward $237 $-1 #
coedge $-1 $401 $324 $322 $400 reversed $239 $-1 #
coedge $-1 $323 $402 $240 $325 reversed $239 $-1 #
edge $-1 $329 -136.6594439527573 $403 -124.3990017535483 $240 $404 forward 7 unknown #
coedge $-1 $405 $406 $241 $327 forward $320 $-1 #
edge $-1 $330 -37.537296684101833 $403 -28.57057699092654 $326 $407 forward 7 unknown #
coedge $-1 $408 $242 $406 $409 reversed $237 $-1 #
vertex $-1 $400 $410 #
vertex $-1 $327 $411 #
straight-curve $-1 68.329721976378664 21.841940928300122 97.453248302083381 0 0 1 I I #
vertex $-1 $244 $412 #
point $-1 62.954160245791961 23.78728522312856 4.2494815106823856 #
face $-1 $413 $414 $19 $-1 $415 reversed single #
plane-surface $-1 -31.616667186373661 25.246293444249883 94.960107441414422 0.68199836817093118 0 0.7313536940579346 0.7313536940579346 0 -0.68199836817093118 forward_v I I I I #
coedge $-1 $416 $417 $418 $419 reversed $249 $-1 #
coedge $-1 $337 $337 $-1 $420 forward $251 $-1 #
edge $-1 $421 0 $421 6.2831853071796004 $252 $422 forward 7 unknown #
vertex $-1 $255 $423 #
ellipse-curve $-1 63.846362129791011 23.78728522312856 5.9393904569444063 -0.68199836817093118 0 -0.7313536940579346 0.3656768470289673 0 -0.34099918408546559 1 I I #
vertex $-1 $256 $424 #
point $-1 62.954160245791961 26.705301665371213 4.2494815106823856 #
loop $-1 $-1 $425 $248 #
straight-curve $-1 -68.329721976378664 28.650645960199643 0 0 0 -1 I I #
point $-1 -68.329721976378664 -28.650645960199643 -10.120191243401676 #
straight-curve $-1 -68.329721976378664 0 -10.120191243401676 0 1 0 I I #
point $-1 -68.329721976378664 28.650645960199643 -10.120191243401676 #
face $-1 $-1 $426 $16 $-1 $427 reversed single #
plane-surface $-1 0 28.650645960199643 0 0 -1 0 0 0 -1 forward_v I I I I #
coedge $-1 $428 $280 $295 $368 forward $197 $-1 #
coedge $-1 $280 $428 $292 $365 forward $197 $-1 #
coedge $-1 $429 $362 $280 $353 reversed $426 $-1 #
edge $-1 $430 -28.650645960199643 $431 28.650645960199643 $352 $432 forward 7 unknown #
coedge $-1 $362 $429 $281 $355 reversed $426 $-1 #
edge $-1 $356 -28.650645960199643 $359 28.650645960199643 $354 $433 forward 7 unknown #
vertex $-1 $355 $434 #
straight-curve $-1 0 -28.650645960199643 10.120191243401676 1 0 0 I I #
coedge $-1 $292 $283 $429 $435 forward $209 $-1 #
vertex $-1 $355 $436 #
straight-curve $-1 0 28.650645960199643 10.120191243401676 -1 0 0 I I #
point $-1 -57.872775786832065 28.650645960199643 10.120191243401674 #
coedge $-1 $352 $354 $287 $363 forward $426 $-1 #
edge $-1 $356 -10.120191243401676 $431 10.120191243401676 $362 $437 forward 7 unknown #
coedge $-1 $290 $289 $428 $438 reversed $278 $-1 #
edge $-1 $366 -68.329721976378664 $430 68.329721976378664 $292 $439 forward 7 unknown #
vertex $-1 $365 $440 #
straight-curve $-1 -68.329721976378664 28.650645960199643 0 0 0 -1 I I #
edge $-1 $431 -68.329721976378664 $369 68.329721976378664 $295 $441 forward 7 unknown #
vertex $-1 $438 $442 #
straight-curve $-1 -68.329721976378664 -28.650645960199643 0 0 0 -1 I I #
face $-1 $443 $444 $17 $-1 $445 reversed single #
loop $-1 $-1 $446 $299 #
plane-surface $-1 0 -28.650645960199643 0 0 1 0 0 0 1 forward_v I I I I #
coedge $-1 $447 $377 $446 $448 reversed $300 $-1 #
coedge $-1 $449 $302 $450 $451 reversed $219 $-1 #
coedge $-1 $302 $449 $452 $453 reversed $219 $-1 #
coedge $-1 $374 $454 $302 $378 forward $300 $-1 #
edge $-1 $455 -28.650645960199643 $456 28.650645960199643 $377 $457 forward 7 unknown #
coedge $-1 $458 $459 $303 $380 forward $444 $-1 #
edge $-1 $382 -28.650645960199643 $393 28.650645960199643 $303 $460 forward 7 unknown #
coedge $-1 $461 $304 $459 $462 reversed $308 $-1 #
vertex $-1 $380 $463 #
straight-curve $-1 68.329721976378664 28.650645960199643 0 0 0 -1 I I #
straight-curve $-1 59.363002283203372 12.623146722124941 10.120191243401678 0 1 0 I I #
coedge $-1 $307 $450 $454 $464 forward $308 $-1 #
edge $-1 $309 -59.363002283203372 $465 57.872775786832065 $307 $466 forward 7 unknown #
face $-1 $-1 $308 $17 $-1 $467 reversed single #
point $-1 59.363002283203372 28.650645960199643 10.120191243401678 #
coedge $-1 $314 $313 $447 $468 forward $138 $-1 #
coedge $-1 $446 $315 $314 $391 reversed $372 $-1 #
edge $-1 $469 -57.872775786832065 $317 68.329721976378664 $390 $470 forward 7 unknown #
coedge $-1 $315 $471 $458 $472 reversed $372 $-1 #
vertex $-1 $316 $473 #
straight-curve $-1 68.329721976378664 -28.650645960199643 0 0 0 -1 I I #
point $-1 68.329721976378664 -28.650645960199643 10.120191243401676 #
face $-1 $474 $475 $18 $-1 $476 forward single #
loop $-1 $-1 $477 $319 #
plane-surface $-1 -63.101248881605365 0 5.3331526937028926 0 0 1 1 0 0 forward_v I I I I #
coedge $-1 $322 $478 $479 $480 reversed $237 $-1 #
edge $-1 $481 -16.027499238074704 $329 -9.2187942061751809 $322 $482 forward 7 unknown #
coedge $-1 $402 $323 $483 $484 reversed $239 $-1 #
coedge $-1 $324 $401 $405 $485 reversed $239 $-1 #
vertex $-1 $485 $486 #
straight-curve $-1 -31.616667186373661 21.841940928300122 94.960107441414422 -0.7313536940579346 0 0.68199836817093118 I I #
coedge $-1 $487 $326 $402 $485 forward $320 $-1 #
coedge $-1 $326 $488 $328 $409 forward $320 $-1 #
straight-curve $-1 30.792425292276832 21.841940928300122 10.120191243401678 -1 0 0 I I #
coedge $-1 $478 $328 $489 $490 forward $237 $-1 #
edge $-1 $491 -28.650645960199643 $330 21.841940928300122 $328 $492 forward 7 unknown #
point $-1 68.329721976378664 21.841940928300122 1.7585896704871118 #
point $-1 68.329721976378664 21.841940928300122 10.120191243401676 #
point $-1 62.247484214677527 23.78728522312856 4.2248038477388841 #
face $-1 $493 $494 $19 $-1 $495 forward single #
loop $-1 $-1 $496 $334 #
plane-surface $-1 68.329721976378664 0 0 -1 0 0 0 0 1 forward_v I I I I #
coedge $-1 $417 $336 $497 $498 forward $249 $-1 #
coedge $-1 $336 $416 $499 $500 reversed $249 $-1 #
coedge $-1 $501 $496 $336 $419 forward $414 $-1 #
edge $-1 $502 -95.694658631596269 $503 -87.333057058681703 $418 $504 forward 7 unknown #
edge $-1 $505 1 $505 0 $337 $-1 forward 7 unknown #
vertex $-1 $338 $506 #
ellipse-curve $-1 62.588483398762989 23.78728522312856 4.5904806947678507 0.68199836817093118 0 0.7313536940579346 0.3656768470289673 0 -0.34099918408546559 1 I I #
point $-1 64.212038976819954 23.78728522312856 5.5983912728589127 #
point $-1 62.247484214677527 26.705301665371213 4.2248038477388841 #
coedge $-1 $507 $497 $496 $508 reversed $343 $-1 #
loop $-1 $-1 $362 $348 #
plane-surface $-1 68.329721976378664 0 0 -1 0 0 0 0 1 forward_v I I I I #
coedge $-1 $351 $350 $364 $438 forward $197 $-1 #
coedge $-1 $354 $352 $358 $435 reversed $426 $-1 #
vertex $-1 $353 $509 #
vertex $-1 $363 $510 #
straight-curve $-1 68.329721976378664 0 -10.120191243401676 0 -1 0 I I #
straight-curve $-1 68.329721976378664 0 10.120191243401676 0 1 0 I I #
point $-1 68.329721976378664 -28.650645960199643 10.120191243401676 #
edge $-1 $359 -10.120191243401676 $430 10.120191243401676 $429 $511 forward 7 unknown #
point $-1 68.329721976378664 28.650645960199643 10.120191243401676 #
straight-curve $-1 68.329721976378664 -28.650645960199643 0 0 0 -1 I I #
edge $-1 $369 -28.650645960199643 $366 28.650645960199643 $364 $512 forward 7 unknown #
straight-curve $-1 0 28.650645960199643 -10.120191243401676 1 0 0 I I #
point $-1 -68.329721976378664 28.650645960199643 -10.120191243401676 #
straight-curve $-1 0 -28.650645960199643 -10.120191243401676 -1 0 0 I I #
point $-1 -68.329721976378664 -28.650645960199643 -10.120191243401676 #
face $-1 $387 $513 $17 $-1 $514 reversed single #
loop $-1 $-1 $379 $371 #
plane-surface $-1 0 0 -10.120191243401676 0 0 1 1 0 0 forward_v I I I I #
coedge $-1 $452 $390 $374 $448 forward $372 $-1 #
coedge $-1 $454 $374 $389 $468 reversed $300 $-1 #
edge $-1 $469 -6.2568552591255324 $456 -1.4698167094267509 $446 $515 forward 7 unknown #
coedge $-1 $376 $375 $516 $517 reversed $219 $-1 #
coedge $-1 $385 $461 $375 $451 forward $308 $-1 #
edge $-1 $518 -36.779097535575985 $455 -26.322151346029383 $450 $519 forward 7 unknown #
coedge $-1 $471 $446 $376 $453 forward $372 $-1 #
edge $-1 $456 26.322151346029383 $520 36.779097535575985 $452 $521 forward 7 unknown #
coedge $-1 $377 $447 $385 $464 reversed $300 $-1 #
vertex $-1 $451 $522 #
vertex $-1 $453 $523 #
straight-curve $-1 -57.872775786832065 0 5.3331526937028926 0 -1 0 I I #
coedge $-1 $524 $379 $392 $472 forward $444 $-1 #
coedge $-1 $379 $524 $381 $462 forward $444 $-1 #
straight-curve $-1 68.329721976378664 0 -10.120191243401676 0 -1 0 I I #
coedge $-1 $450 $381 $525 $526 reversed $308 $-1 #
edge $-1 $527 -68.329721976378664 $382 68.329721976378664 $381 $528 forward 7 unknown #
point $-1 68.329721976378664 28.650645960199643 -10.120191243401676 #
edge $-1 $455 1.4698167094267509 $465 6.2568552591255324 $385 $529 forward 7 unknown #
vertex $-1 $468 $530 #
straight-curve $-1 0 28.650645960199643 10.120191243401676 -1 0 0 I I #
plane-surface $-1 0 28.650645960199643 0 0 -1 0 0 0 -1 forward_v I I I I #
edge $-1 $465 -28.650645960199643 $469 28.650645960199643 $389 $531 forward 7 unknown #
vertex $-1 $391 $532 #
straight-curve $-1 0 -28.650645960199643 10.120191243401676 1 0 0 I I #
coedge $-1 $392 $452 $533 $534 forward $372 $-1 #
edge $-1 $393 -68.329721976378664 $535 68.329721976378664 $392 $536 forward 7 unknown #
point $-1 68.329721976378664 -28.650645960199643 -10.120191243401676 #
face $-1 $537 $538 $18 $-1 $539 reversed single #
loop $-1 $-1 $540 $396 #
plane-surface $-1 -57.872775786832065 0 7.7266719685522833 -1 0 0 0 0 1 forward_v I I I I #
coedge $-1 $541 $542 $543 $544 reversed $397 $-1 #
coedge $-1 $399 $408 $545 $546 reversed $237 $-1 #
coedge $-1 $547 $483 $399 $480 forward $548 $-1 #
edge $-1 $481 -1.7585896704871167 $549 10.120191243401676 $399 $550 forward 7 unknown #
vertex $-1 $480 $551 #
straight-curve $-1 68.329721976378664 12.623146722124941 1.7585896704871118 0 -1 0 I I #
coedge $-1 $479 $552 $401 $484 forward $548 $-1 #
edge $-1 $553 80.456199425080513 $481 92.716641624289508 $483 $554 forward 7 unknown #
edge $-1 $403 9.2187942061751809 $553 16.027499238074704 $405 $555 forward 7 unknown #
point $-1 59.363002283203372 21.841940928300122 10.120191243401678 #
coedge $-1 $556 $405 $552 $557 forward $320 $-1 #
coedge $-1 $406 $556 $558 $559 forward $320 $-1 #
coedge $-1 $558 $560 $408 $490 reversed $538 $-1 #
edge $-1 $491 -10.120191243401676 $561 10.120191243401676 $408 $562 forward 7 unknown #
vertex $-1 $409 $563 #
straight-curve $-1 68.329721976378664 0 10.120191243401676 0 1 0 I I #
face $-1 $564 $565 $19 $-1 $566 forward single #
loop $-1 $-1 $499 $413 #
plane-surface $-1 0 0 10.120191243401676 0 0 1 1 0 0 forward_v I I I I #
coedge $-1 $418 $567 $425 $508 forward $414 $-1 #
coedge $-1 $425 $568 $416 $498 reversed $343 $-1 #
edge $-1 $502 -136.6594439527573 $569 -124.3990017535483 $416 $570 forward 7 unknown #
coedge $-1 $571 $572 $417 $500 forward $494 $-1 #
edge $-1 $503 -37.537296684101833 $569 -28.57057699092654 $499 $573 forward 7 unknown #
coedge $-1 $574 $418 $572 $575 reversed $414 $-1 #
vertex $-1 $508 $576 #
vertex $-1 $500 $577 #
straight-curve $-1 68.329721976378664 21.841940928300122 97.453248302083381 0 0 1 I I #
vertex $-1 $420 $578 #
point $-1 62.954160245791961 23.78728522312856 4.2494815106823856 #
coedge $-1 $568 $425 $579 $580 reversed $343 $-1 #
edge $-1 $581 -16.027499238074704 $502 -9.2187942061751809 $496 $582 forward 7 unknown #
point $-1 68.329721976378664 28.650645960199643 -10.120191243401676 #
point $-1 68.329721976378664 -28.650645960199643 -10.120191243401676 #
straight-curve $-1 68.329721976378664 28.650645960199643 0 0 0 -1 I I #
straight-curve $-1 -68.329721976378664 0 -10.120191243401676 0 1 0 I I #
loop $-1 $-1 $516 $443 #
plane-surface $-1 -68.329721976378664 0 0 1 0 0 0 0 -1 forward_v I I I I #
straight-curve $-1 -57.872775786832065 -28.650645960199643 3.8633359842761417 0 0 -1 I I #
coedge $-1 $525 $533 $449 $517 forward $513 $-1 #
edge $-1 $520 -28.650645960199643 $518 28.650645960199643 $516 $583 forward 7 unknown #
vertex $-1 $526 $584 #
straight-curve $-1 -31.550624440802682 28.650645960199643 5.3331526937028926 1 0 0 I I #
vertex $-1 $534 $585 #
straight-curve $-1 -31.550624440802682 -28.650645960199643 5.3331526937028926 -1 0 0 I I #
point $-1 -57.872775786832065 28.650645960199643 5.3331526937028926 #
point $-1 -57.872775786832065 -28.650645960199643 5.3331526937028926 #
coedge $-1 $459 $458 $586 $587 forward $444 $-1 #
coedge $-1 $586 $516 $461 $526 forward $513 $-1 #
edge $-1 $518 -5.3331526937028926 $527 10.120191243401676 $461 $588 forward 7 unknown #
vertex $-1 $462 $589 #
straight-curve $-1 0 28.650645960199643 -10.120191243401676 1 0 0 I I #
straight-curve $-1 -57.872775786832065 28.650645960199643 3.8633359842761417 0 0 1 I I #
point $-1 -57.872775786832065 28.650645960199643 10.120191243401674 #
straight-curve $-1 -57.872775786832065 0 10.120191243401676 0 -1 0 I I #
point $-1 -57.872775786832065 -28.650645960199643 10.120191243401674 #
coedge $-1 $516 $586 $471 $534 reversed $513 $-1 #
edge $-1 $520 -5.3331526937028926 $535 10.120191243401676 $533 $590 forward 7 unknown #
vertex $-1 $587 $591 #
straight-curve $-1 0 -28.650645960199643 -10.120191243401676 -1 0 0 I I #
face $-1 $592 $593 $18 $-1 $594 reversed single #
loop $-1 $-1 $595 $474 #
plane-surface $-1 0 -28.650645960199643 0 0 1 0 0 0 1 forward_v I I I I #
coedge $-1 $596 $543 $595 $597 reversed $475 $-1 #
coedge $-1 $598 $477 $599 $600 reversed $397 $-1 #
coedge $-1 $477 $598 $601 $602 reversed $397 $-1 #
coedge $-1 $540 $603 $477 $544 forward $475 $-1 #
edge $-1 $604 -28.650645960199643 $605 28.650645960199643 $543 $606 forward 7 unknown #
coedge $-1 $607 $608 $478 $546 forward $593 $-1 #
edge $-1 $549 -28.650645960199643 $561 28.650645960199643 $478 $609 forward 7 unknown #
coedge $-1 $610 $479 $608 $611 reversed $548 $-1 #
loop $-1 $-1 $483 $612 #
vertex $-1 $546 $613 #
straight-curve $-1 68.329721976378664 28.650645960199643 0 0 0 -1 I I #
point $-1 68.329721976378664 28.650645960199643 1.7585896704871167 #
coedge $-1 $483 $614 $487 $557 reversed $548 $-1 #
vertex $-1 $557 $615 #
straight-curve $-1 0.52106362380887461 28.650645960199643 64.991187960541595 0.7313536940579346 0 -0.68199836817093118 I I #
straight-curve $-1 59.363002283203372 12.623146722124941 10.120191243401678 0 1 0 I I #
coedge $-1 $488 $487 $596 $616 forward $320 $-1 #
edge $-1 $553 -59.363002283203372 $617 57.872775786832065 $552 $618 forward 7 unknown #
coedge $-1 $595 $489 $488 $559 reversed $538 $-1 #
edge $-1 $619 -57.872775786832065 $491 68.329721976378664 $558 $620 forward 7 unknown #
coedge $-1 $489 $621 $607 $622 reversed $538 $-1 #
vertex $-1 $490 $623 #
straight-curve $-1 68.329721976378664 -28.650645960199643 0 0 0 -1 I I #
point $-1 68.329721976378664 -28.650645960199643 10.120191243401676 #
face $-1 $624 $625 $19 $-1 $626 forward single #
loop $-1 $-1 $627 $493 #
plane-surface $-1 -63.101248881605365 0 5.3331526937028926 0 0 1 1 0 0 forward_v I I I I #
coedge $-1 $496 $628 $629 $630 reversed $414 $-1 #
coedge $-1 $497 $507 $571 $631 reversed $343 $-1 #
vertex $-1 $631 $632 #
straight-curve $-1 -31.616667186373661 21.841940928300122 94.960107441414422 -0.7313536940579346 0 0.68199836817093118 I I #
coedge $-1 $633 $499 $568 $631 forward $494 $-1 #
coedge $-1 $499 $634 $501 $575 forward $494 $-1 #
straight-curve $-1 30.792425292276832 21.841940928300122 10.120191243401678 -1 0 0 I I #
coedge $-1 $628 $501 $635 $636 forward $414 $-1 #
edge $-1 $637 -28.650645960199643 $503 21.841940928300122 $501 $638 forward 7 unknown #
point $-1 68.329721976378664 21.841940928300122 1.7585896704871118 #
point $-1 68.329721976378664 21.841940928300122 10.120191243401676 #
point $-1 62.247484214677527 23.78728522312856 4.2248038477388841 #
coedge $-1 $629 $639 $507 $580 forward $640 $-1 #
edge $-1 $641 80.456199425080513 $581 92.716641624289508 $579 $642 forward 7 unknown #
vertex $-1 $630 $643 #
straight-curve $-1 68.329721976378664 12.623146722124941 1.7585896704871118 0 -1 0 I I #
straight-curve $-1 -68.329721976378664 0 5.3331526937028926 0 1 0 I I #
point $-1 -68.329721976378664 28.650645960199643 5.3331526937028926 #
point $-1 -68.329721976378664 -28.650645960199643 5.3331526937028926 #
coedge $-1 $533 $525 $524 $587 reversed $513 $-1 #
edge $-1 $535 -28.650645960199643 $527 28.650645960199643 $586 $644 forward 7 unknown #
straight-curve $-1 -68.329721976378664 28.650645960199643 0 0 0 -1 I I #
point $-1 -68.329721976378664 28.650645960199643 -10.120191243401676 #
straight-curve $-1 -68.329721976378664 -28.650645960199643 0 0 0 -1 I I #
point $-1 -68.329721976378664 -28.650645960199643 -10.120191243401676 #
face $-1 $612 $645 $18 $-1 $646 reversed single #
loop $-1 $-1 $545 $537 #
plane-surface $-1 0 0 -10.120191243401676 0 0 1 1 0 0 forward_v I I I I #
coedge $-1 $601 $558 $540 $597 forward $538 $-1 #
coedge $-1 $603 $540 $556 $616 reversed $475 $-1 #
edge $-1 $619 -6.2568552591255324 $605 -1.4698167094267509 $595 $647 forward 7 unknown #
coedge $-1 $542 $541 $648 $649 reversed $397 $-1 #
coedge $-1 $614 $610 $541 $600 forward $548 $-1 #
edge $-1 $650 -36.779097535575985 $604 -26.322151346029383 $599 $651 forward 7 unknown #
coedge $-1 $621 $595 $542 $602 forward $538 $-1 #
edge $-1 $605 26.322151346029383 $652 36.779097535575985 $601 $653 forward 7 unknown #
coedge $-1 $543 $596 $614 $654 reversed $475 $-1 #
vertex $-1 $600 $655 #
vertex $-1 $602 $656 #
straight-curve $-1 -57.872775786832065 0 5.3331526937028926 0 -1 0 I I #
coedge $-1 $657 $545 $560 $622 forward $593 $-1 #
coedge $-1 $545 $657 $547 $611 forward $593 $-1 #
straight-curve $-1 68.329721976378664 0 -10.120191243401676 0 -1 0 I I #
coedge $-1 $599 $547 $658 $659 reversed $548 $-1 #
edge $-1 $660 -68.329721976378664 $549 68.329721976378664 $547 $661 forward 7 unknown #
face $-1 $-1 $548 $18 $-1 $662 reversed single #
point $-1 68.329721976378664 28.650645960199643 -10.120191243401676 #
coedge $-1 $552 $599 $603 $654 forward $548 $-1 #
point $-1 59.363002283203372 28.650645960199643 10.120191243401678 #
edge $-1 $617 -28.650645960199643 $619 28.650645960199643 $556 $663 forward 7 unknown #
vertex $-1 $616 $664 #
straight-curve $-1 0 28.650645960199643 10.120191243401676 -1 0 0 I I #
vertex $-1 $559 $665 #
straight-curve $-1 0 -28.650645960199643 10.120191243401676 1 0 0 I I #
coedge $-1 $560 $601 $666 $667 forward $538 $-1 #
edge $-1 $561 -68.329721976378664 $668 68.329721976378664 $560 $669 forward 7 unknown #
point $-1 68.329721976378664 -28.650645960199643 -10.120191243401676 #
face $-1 $670 $671 $19 $-1 $672 reversed single #
loop $-1 $-1 $673 $564 #
plane-surface $-1 -57.872775786832065 0 7.7266719685522833 -1 0 0 0 0 1 forward_v I I I I #
coedge $-1 $674 $675 $676 $677 reversed $565 $-1 #
coedge $-1 $567 $574 $678 $679 reversed $414 $-1 #
coedge $-1 $680 $579 $567 $630 forward $640 $-1 #
edge $-1 $581 -1.7585896704871167 $681 10.120191243401676 $567 $682 forward 7 unknown #
edge $-1 $569 9.2187942061751809 $641 16.027499238074704 $571 $683 forward 7 unknown #
point $-1 59.363002283203372 21.841940928300122 10.120191243401678 #
coedge $-1 $684 $571 $639 $685 forward $494 $-1 #
coedge $-1 $572 $684 $686 $687 forward $494 $-1 #
coedge $-1 $686 $688 $574 $636 reversed $671 $-1 #
edge $-1 $637 -10.120191243401676 $689 10.120191243401676 $574 $690 forward 7 unknown #
vertex $-1 $575 $691 #
straight-curve $-1 68.329721976378664 0 10.120191243401676 0 1 0 I I #
coedge $-1 $579 $692 $633 $685 reversed $640 $-1 #
loop $-1 $-1 $579 $693 #
vertex $-1 $685 $694 #
straight-curve $-1 0.52106362380887461 28.650645960199643 64.991187960541595 0.7313536940579346 0 -0.68199836817093118 I I #
point $-1 68.329721976378664 28.650645960199643 1.7585896704871167 #
straight-curve $-1 -68.329721976378664 0 -10.120191243401676 0 1 0 I I #
loop $-1 $-1 $648 $592 #
plane-surface $-1 -68.329721976378664 0 0 1 0 0 0 0 -1 forward_v I I I I #
straight-curve $-1 -57.872775786832065 -28.650645960199643 3.8633359842761417 0 0 -1 I I #
coedge $-1 $658 $666 $598 $649 forward $645 $-1 #
edge $-1 $652 -28.650645960199643 $650 28.650645960199643 $648 $695 forward 7 unknown #
vertex $-1 $659 $696 #
straight-curve $-1 -31.550624440802682 28.650645960199643 5.3331526937028926 1 0 0 I I #
vertex $-1 $667 $697 #
straight-curve $-1 -31.550624440802682 -28.650645960199643 5.3331526937028926 -1 0 0 I I #
edge $-1 $604 1.4698167094267509 $617 6.2568552591255324 $614 $698 forward 7 unknown #
point $-1 -57.872775786832065 28.650645960199643 5.3331526937028926 #
point $-1 -57.872775786832065 -28.650645960199643 5.3331526937028926 #
coedge $-1 $608 $607 $699 $700 forward $593 $-1 #
coedge $-1 $699 $648 $610 $659 forward $645 $-1 #
edge $-1 $650 -5.3331526937028926 $660 10.120191243401676 $610 $701 forward 7 unknown #
vertex $-1 $611 $702 #
straight-curve $-1 0 28.650645960199643 -10.120191243401676 1 0 0 I I #
plane-surface $-1 0 28.650645960199643 0 0 -1 0 0 0 -1 forward_v I I I I #
straight-curve $-1 -57.872775786832065 0 10.120191243401676 0 -1 0 I I #
point $-1 -57.872775786832065 28.650645960199643 10.120191243401674 #
point $-1 -57.872775786832065 -28.650645960199643 10.120191243401674 #
coedge $-1 $648 $699 $621 $667 reversed $645 $-1 #
edge $-1 $652 -5.3331526937028926 $668 10.120191243401676 $666 $703 forward 7 unknown #
vertex $-1 $700 $704 #
straight-curve $-1 0 -28.650645960199643 -10.120191243401676 -1 0 0 I I #
face $-1 $705 $706 $19 $-1 $707 reversed single #
loop $-1 $-1 $708 $624 #
plane-surface $-1 0 -28.650645960199643 0 0 1 0 0 0 1 forward_v I I I I #
coedge $-1 $709 $676 $708 $710 reversed $625 $-1 #
coedge $-1 $711 $627 $712 $713 reversed $565 $-1 #
coedge $-1 $627 $711 $714 $715 reversed $565 $-1 #
coedge $-1 $673 $716 $627 $677 forward $625 $-1 #
edge $-1 $717 -28.650645960199643 $718 28.650645960199643 $676 $719 forward 7 unknown #
coedge $-1 $720 $721 $628 $679 forward $706 $-1 #
edge $-1 $681 -28.650645960199643 $689 28.650645960199643 $628 $722 forward 7 unknown #
coedge $-1 $723 $629 $721 $724 reversed $640 $-1 #
vertex $-1 $679 $725 #
straight-curve $-1 68.329721976378664 28.650645960199643 0 0 0 -1 I I #
straight-curve $-1 59.363002283203372 12.623146722124941 10.120191243401678 0 1 0 I I #
coedge $-1 $634 $633 $709 $726 forward $494 $-1 #
edge $-1 $641 -59.363002283203372 $727 57.872775786832065 $639 $728 forward 7 unknown #
coedge $-1 $708 $635 $634 $687 reversed $671 $-1 #
edge $-1 $729 -57.872775786832065 $637 68.329721976378664 $686 $730 forward 7 unknown #
coedge $-1 $635 $731 $720 $732 reversed $671 $-1 #
vertex $-1 $636 $733 #
straight-curve $-1 68.329721976378664 -28.650645960199643 0 0 0 -1 I I #
point $-1 68.329721976378664 -28.650645960199643 10.120191243401676 #
coedge $-1 $639 $712 $716 $734 forward $640 $-1 #
face $-1 $-1 $640 $19 $-1 $735 reversed single #
point $-1 59.363002283203372 28.650645960199643 10.120191243401678 #
straight-curve $-1 -68.329721976378664 0 5.3331526937028926 0 1 0 I I #
point $-1 -68.329721976378664 28.650645960199643 5.3331526937028926 #
point $-1 -68.329721976378664 -28.650645960199643 5.3331526937028926 #
straight-curve $-1 -57.872775786832065 28.650645960199643 3.8633359842761417 0 0 1 I I #
coedge $-1 $666 $658 $657 $700 reversed $645 $-1 #
edge $-1 $668 -28.650645960199643 $660 28.650645960199643 $699 $736 forward 7 unknown #
straight-curve $-1 -68.329721976378664 28.650645960199643 0 0 0 -1 I I #
point $-1 -68.329721976378664 28.650645960199643 -10.120191243401676 #
straight-curve $-1 -68.329721976378664 -28.650645960199643 0 0 0 -1 I I #
point $-1 -68.329721976378664 -28.650645960199643 -10.120191243401676 #
face $-1 $693 $737 $19 $-1 $738 reversed single #
loop $-1 $-1 $678 $670 #
plane-surface $-1 0 0 -10.120191243401676 0 0 1 1 0 0 forward_v I I I I #
coedge $-1 $714 $686 $673 $710 forward $671 $-1 #
coedge $-1 $716 $673 $684 $726 reversed $625 $-1 #
edge $-1 $729 -6.2568552591255324 $718 -1.4698167094267509 $708 $739 forward 7 unknown #
coedge $-1 $675 $674 $740 $741 reversed $565 $-1 #
coedge $-1 $692 $723 $674 $713 forward $640 $-1 #
edge $-1 $742 -36.779097535575985 $717 -26.322151346029383 $712 $743 forward 7 unknown #
coedge $-1 $731 $708 $675 $715 forward $671 $-1 #
edge $-1 $718 26.322151346029383 $744 36.779097535575985 $714 $745 forward 7 unknown #
coedge $-1 $676 $709 $692 $734 reversed $625 $-1 #
vertex $-1 $713 $746 #
vertex $-1 $715 $747 #
straight-curve $-1 -57.872775786832065 0 5.3331526937028926 0 -1 0 I I #
coedge $-1 $748 $678 $688 $732 forward $706 $-1 #
coedge $-1 $678 $748 $680 $724 forward $706 $-1 #
straight-curve $-1 68.329721976378664 0 -10.120191243401676 0 -1 0 I I #
coedge $-1 $712 $680 $749 $750 reversed $640 $-1 #
edge $-1 $751 -68.329721976378664 $681 68.329721976378664 $680 $752 forward 7 unknown #
point $-1 68.329721976378664 28.650645960199643 -10.120191243401676 #
edge $-1 $727 -28.650645960199643 $729 28.650645960199643 $684 $753 forward 7 unknown #
vertex $-1 $726 $754 #
straight-curve $-1 0 28.650645960199643 10.120191243401676 -1 0 0 I I #
vertex $-1 $687 $755 #
straight-curve $-1 0 -28.650645960199643 10.120191243401676 1 0 0 I I #
coedge $-1 $688 $714 $756 $757 forward $671 $-1 #
edge $-1 $689 -68.329721976378664 $758 68.329721976378664 $688 $759 forward 7 unknown #
point $-1 68.329721976378664 -28.650645960199643 -10.120191243401676 #
edge $-1 $717 1.4698167094267509 $727 6.2568552591255324 $692 $760 forward 7 unknown #
plane-surface $-1 0 28.650645960199643 0 0 -1 0 0 0 -1 forward_v I I I I #
straight-curve $-1 -68.329721976378664 0 -10.120191243401676 0 1 0 I I #
loop $-1 $-1 $740 $705 #
plane-surface $-1 -68.329721976378664 0 0 1 0 0 0 0 -1 forward_v I I I I #
straight-curve $-1 -57.872775786832065 -28.650645960199643 3.8633359842761417 0 0 -1 I I #
coedge $-1 $749 $756 $711 $741 forward $737 $-1 #
edge $-1 $744 -28.650645960199643 $742 28.650645960199643 $740 $761 forward 7 unknown #
vertex $-1 $750 $762 #
straight-curve $-1 -31.550624440802682 28.650645960199643 5.3331526937028926 1 0 0 I I #
vertex $-1 $757 $763 #
straight-curve $-1 -31.550624440802682 -28.650645960199643 5.3331526937028926 -1 0 0 I I #
point $-1 -57.872775786832065 28.650645960199643 5.3331526937028926 #
point $-1 -57.872775786832065 -28.650645960199643 5.3331526937028926 #
coedge $-1 $721 $720 $764 $765 forward $706 $-1 #
coedge $-1 $764 $740 $723 $750 forward $737 $-1 #
edge $-1 $742 -5.3331526937028926 $751 10.120191243401676 $723 $766 forward 7 unknown #
vertex $-1 $724 $767 #
straight-curve $-1 0 28.650645960199643 -10.120191243401676 1 0 0 I I #
straight-curve $-1 -57.872775786832065 0 10.120191243401676 0 -1 0 I I #
point $-1 -57.872775786832065 28.650645960199643 10.120191243401674 #
point $-1 -57.872775786832065 -28.650645960199643 10.120191243401674 #
coedge $-1 $740 $764 $731 $757 reversed $737 $-1 #
edge $-1 $744 -5.3331526937028926 $758 10.120191243401676 $756 $768 forward 7 unknown #
vertex $-1 $765 $769 #
straight-curve $-1 0 -28.650645960199643 -10.120191243401676 -1 0 0 I I #
straight-curve $-1 -57.872775786832065 28.650645960199643 3.8633359842761417 0 0 1 I I #
straight-curve $-1 -68.329721976378664 0 5.3331526937028926 0 1 0 I I #
point $-1 -68.329721976378664 28.650645960199643 5.3331526937028926 #
point $-1 -68.329721976378664 -28.650645960199643 5.3331526937028926 #
coedge $-1 $756 $749 $748 $765 reversed $737 $-1 #
edge $-1 $758 -28.650645960199643 $751 28.650645960199643 $764 $770 forward 7 unknown #
straight-curve $-1 -68.329721976378664 28.650645960199643 0 0 0 -1 I I #
point $-1 -68.329721976378664 28.650645960199643 -10.120191243401676 #
straight-curve $-1 -68.329721976378664 -28.650645960199643 0 0 0 -1 I I #
point $-1 -68.329721976378664 -28.650645960199643 -10.120191243401676 #
straight-curve $-1 -68.329721976378664 0 -10.120191243401676 0 1 0 I I #
End-of-ACIS-data 