500 0 12 0           
7 Unknown 11 ACIS 5.0 NT 24 Fri Mar 26 14:54:00 1999 
-1 9.9999999999999995e-007 1e-010 
body $-1 $12 $-1 $13 #
body $-1 $14 $-1 $15 #
body $-1 $16 $-1 $17 #
body $-1 $18 $-1 $19 #
body $-1 $20 $-1 $21 #
body $-1 $22 $-1 $23 #
body $-1 $24 $-1 $25 #
body $-1 $26 $-1 $27 #
body $-1 $28 $-1 $29 #
body $-1 $30 $-1 $31 #
body $-1 $32 $-1 $33 #
body $-1 $34 $-1 $35 #
lump $-1 $-1 $36 $0 #
transform $-1 1 0 0 0 1 0 0 0 1 53.514816736350596 33.217337751974888 7.4007340471974086 1 rotate no_reflect no_shear #
lump $-1 $-1 $37 $1 #
transform $-1 1 0 0 0 1 0 0 0 1 53.514816736350596 33.217337751974888 7.4007340471974086 1 rotate no_reflect no_shear #
lump $-1 $-1 $38 $2 #
transform $-1 1 0 0 0 1 0 0 0 1 53.514816736350596 33.217337751974888 7.4007340471974086 1 rotate no_reflect no_shear #
lump $-1 $-1 $39 $3 #
transform $-1 1 0 0 0 1 0 0 0 1 53.514816736350596 33.217337751974888 7.4007340471974086 1 rotate no_reflect no_shear #
lump $-1 $-1 $40 $4 #
transform $-1 1 0 0 0 1 0 0 0 1 53.514816736350596 33.217337751974888 7.4007340471974086 1 rotate no_reflect no_shear #
lump $-1 $-1 $41 $5 #
transform $-1 1 0 0 0 1 0 0 0 1 53.514816736350596 33.217337751974888 7.4007340471974086 1 rotate no_reflect no_shear #
lump $-1 $-1 $42 $6 #
transform $-1 1 0 0 0 1 0 0 0 1 53.514816736350596 33.217337751974888 7.4007340471974086 1 rotate no_reflect no_shear #
lump $-1 $-1 $43 $7 #
transform $-1 1 0 0 0 1 0 0 0 1 53.514816736350596 33.217337751974888 7.4007340471974086 1 rotate no_reflect no_shear #
lump $-1 $-1 $44 $8 #
transform $-1 1 0 0 0 1 0 0 0 1 53.514816736350596 33.217337751974888 7.4007340471974086 1 rotate no_reflect no_shear #
lump $-1 $-1 $45 $9 #
transform $-1 1 0 0 0 1 0 0 0 1 53.514816736350596 33.217337751974888 7.4007340471974086 1 rotate no_reflect no_shear #
lump $-1 $-1 $46 $10 #
transform $-1 1 0 0 0 1 0 0 0 1 53.514816736350596 33.217337751974888 7.4007340471974086 1 rotate no_reflect no_shear #
lump $-1 $-1 $47 $11 #
transform $-1 1 0 0 0 1 0 0 0 1 53.514816736350596 33.217337751974888 7.4007340471974086 1 rotate no_reflect no_shear #
shell $-1 $-1 $-1 $48 $-1 $12 #
shell $-1 $-1 $-1 $49 $-1 $14 #
shell $-1 $-1 $-1 $50 $-1 $16 #
shell $-1 $-1 $-1 $51 $-1 $18 #
shell $-1 $-1 $-1 $52 $-1 $20 #
shell $-1 $-1 $-1 $53 $-1 $22 #
shell $-1 $-1 $-1 $54 $-1 $24 #
shell $-1 $-1 $-1 $55 $-1 $26 #
shell $-1 $-1 $-1 $56 $-1 $28 #
shell $-1 $-1 $-1 $57 $-1 $30 #
shell $-1 $-1 $-1 $58 $-1 $32 #
shell $-1 $-1 $-1 $59 $-1 $34 #
face $-1 $60 $61 $36 $-1 $62 forward single #
face $-1 $63 $64 $37 $-1 $65 forward single #
face $-1 $66 $67 $38 $-1 $68 reversed single #
face $-1 $69 $70 $39 $-1 $71 forward single #
face $-1 $72 $73 $40 $-1 $74 reversed single #
face $-1 $75 $76 $41 $-1 $77 forward single #
face $-1 $78 $79 $42 $-1 $80 reversed single #
face $-1 $81 $82 $43 $-1 $83 forward single #
face $-1 $84 $85 $44 $-1 $86 reversed single #
face $-1 $87 $88 $45 $-1 $89 forward single #
face $-1 $90 $91 $46 $-1 $92 reversed single #
face $-1 $93 $94 $47 $-1 $95 forward single #
face $-1 $96 $97 $36 $-1 $98 reversed single #
loop $-1 $-1 $99 $48 #
plane-surface $-1 0 0 7.4007340471974086 0 0 1 1 0 0 forward_v I I I I #
face $-1 $100 $101 $37 $-1 $102 reversed single #
loop $-1 $-1 $103 $49 #
plane-surface $-1 0 -33.217337751974888 0 0 1 0 0 0 1 forward_v I I I I #
face $-1 $104 $105 $38 $-1 $106 reversed single #
loop $-1 $-1 $107 $50 #
plane-surface $-1 -136.69246503158092 -25.405612567900306 69.459396497565933 0 1 0 -0.77714596973225614 0 0.62932038083071107 forward_v I I I I #
face $-1 $108 $109 $39 $-1 $110 forward single #
loop $-1 $111 $112 $51 #
cone-surface $-1 -50.87362729608563 -20.76405217865015 4.3501493269339928 0.77714596973225614 0 -0.62932038083071107 0.62932038083071107 0 0.77714596973225614 1 I I 0 1 1 forward I I I I #
face $-1 $113 $114 $40 $-1 $115 reversed single #
loop $-1 $-1 $116 $52 #
plane-surface $-1 -136.69246503158092 -10.248373611480492 69.459396497565933 0 1 0 -0.77714596973225614 0 0.62932038083071107 forward_v I I I I #
face $-1 $117 $118 $41 $-1 $119 forward single #
loop $-1 $120 $121 $53 #
cone-surface $-1 -50.87362729608563 -5.6068132222303362 4.3501493269339928 0.77714596973225614 0 -0.62932038083071107 0.62932038083071107 0 0.77714596973225614 1 I I 0 1 1 forward I I I I #
face $-1 $122 $123 $42 $-1 $124 reversed single #
loop $-1 $-1 $125 $54 #
plane-surface $-1 -136.69246503158092 4.9088653449393185 69.459396497565933 0 1 0 -0.77714596973225614 0 0.62932038083071107 forward_v I I I I #
face $-1 $126 $127 $43 $-1 $128 forward single #
loop $-1 $129 $130 $55 #
cone-surface $-1 -50.87362729608563 9.5504257341894743 4.3501493269339928 0.77714596973225614 0 -0.62932038083071107 0.62932038083071107 0 0.77714596973225614 1 I I 0 1 1 forward I I I I #
face $-1 $131 $132 $44 $-1 $133 reversed single #
loop $-1 $-1 $134 $56 #
plane-surface $-1 -136.69246503158092 20.066104301359129 69.459396497565933 0 1 0 -0.77714596973225614 0 0.62932038083071107 forward_v I I I I #
face $-1 $135 $136 $45 $-1 $137 forward single #
loop $-1 $138 $139 $57 #
cone-surface $-1 -50.87362729608563 24.707664690609285 4.3501493269339928 0.77714596973225614 0 -0.62932038083071107 0.62932038083071107 0 0.77714596973225614 1 I I 0 1 1 forward I I I I #
face $-1 $140 $141 $46 $-1 $142 reversed single #
loop $-1 $-1 $143 $58 #
plane-surface $-1 92.690383806901039 -7.2067486153807891 148.49561542621188 0 -1 0 -0.86602541151947299 0 -0.49999998660252726 forward_v I I I I #
face $-1 $144 $145 $47 $-1 $146 forward single #
loop $-1 $147 $148 $59 #
cone-surface $-1 51.224969495599659 -11.822057797295003 4.3752513472594856 -0.86602541151947299 0 -0.49999998660252726 0.24999999330126363 0 -0.43301270575973649 1 I I 0 1 0.5 forward I I I I #
face $-1 $149 $150 $36 $-1 $151 reversed single #
loop $-1 $-1 $152 $60 #
plane-surface $-1 0 0 -7.4007340471974086 0 0 1 1 0 0 forward_v I I I I #
coedge $-1 $153 $154 $155 $156 forward $61 $-1 #
face $-1 $157 $158 $37 $-1 $159 reversed single #
loop $-1 $-1 $160 $63 #
plane-surface $-1 0 0 -7.4007340471974086 0 0 1 1 0 0 forward_v I I I I #
coedge $-1 $161 $162 $163 $164 forward $64 $-1 #
face $-1 $165 $166 $38 $-1 $167 reversed single #
loop $-1 $-1 $168 $66 #
plane-surface $-1 -53.51481673635061 -20.76405217865015 2.1034668003541981 -0.77714596973225614 0 0.62932038083071107 0.62932038083071107 0 0.77714596973225614 forward_v I I I I #
coedge $-1 $169 $170 $171 $172 reversed $67 $-1 #
face $-1 $-1 $173 $39 $-1 $174 forward single #
loop $-1 $175 $176 $69 #
cone-surface $-1 -49.988686031317727 -20.76405217865015 3.6335380396768286 0.77714596973225614 0 -0.62932038083071107 0.31466019041535553 0 0.38857298486612807 1 I I -0.70710678118654724 0.70710678118654791 0.5 forward I I I I #
loop $-1 $-1 $177 $51 #
coedge $-1 $112 $112 $178 $179 reversed $70 $-1 #
face $-1 $180 $181 $40 $-1 $182 reversed single #
loop $-1 $-1 $183 $72 #
plane-surface $-1 -53.51481673635061 -5.6068132222303362 2.1034668003541981 -0.77714596973225614 0 0.62932038083071107 0.62932038083071107 0 0.77714596973225614 forward_v I I I I #
coedge $-1 $184 $185 $186 $187 reversed $73 $-1 #
face $-1 $-1 $188 $41 $-1 $189 forward single #
loop $-1 $190 $191 $75 #
cone-surface $-1 -49.988686031317727 -5.6068132222303362 3.6335380396768286 0.77714596973225614 0 -0.62932038083071107 0.31466019041535553 0 0.38857298486612807 1 I I -0.70710678118654724 0.70710678118654791 0.5 forward I I I I #
loop $-1 $-1 $192 $53 #
coedge $-1 $121 $121 $193 $194 reversed $76 $-1 #
face $-1 $195 $196 $42 $-1 $197 reversed single #
loop $-1 $-1 $198 $78 #
plane-surface $-1 -53.51481673635061 9.5504257341894743 2.1034668003541981 -0.77714596973225614 0 0.62932038083071107 0.62932038083071107 0 0.77714596973225614 forward_v I I I I #
coedge $-1 $199 $200 $201 $202 reversed $79 $-1 #
face $-1 $-1 $203 $43 $-1 $204 forward single #
loop $-1 $205 $206 $81 #
cone-surface $-1 -49.988686031317727 9.5504257341894743 3.6335380396768286 0.77714596973225614 0 -0.62932038083071107 0.31466019041535553 0 0.38857298486612807 1 I I -0.70710678118654724 0.70710678118654791 0.5 forward I I I I #
loop $-1 $-1 $207 $55 #
coedge $-1 $130 $130 $208 $209 reversed $82 $-1 #
face $-1 $210 $211 $44 $-1 $212 reversed single #
loop $-1 $-1 $213 $84 #
plane-surface $-1 -53.51481673635061 24.707664690609285 2.1034668003541981 -0.77714596973225614 0 0.62932038083071107 0.62932038083071107 0 0.77714596973225614 forward_v I I I I #
coedge $-1 $214 $215 $216 $217 reversed $85 $-1 #
face $-1 $-1 $218 $45 $-1 $219 forward single #
loop $-1 $220 $221 $87 #
cone-surface $-1 -49.988686031317727 24.707664690609285 3.6335380396768286 0.77714596973225614 0 -0.62932038083071107 0.31466019041535553 0 0.38857298486612807 1 I I -0.70710678118654724 0.70710678118654791 0.5 forward I I I I #
loop $-1 $-1 $222 $57 #
coedge $-1 $139 $139 $223 $224 reversed $88 $-1 #
face $-1 $225 $226 $46 $-1 $227 reversed single #
loop $-1 $-1 $228 $90 #
plane-surface $-1 1.4339266272145323e-006 -11.822057797295003 94.980800123787887 0.86602541151947299 0 0.49999998660252726 0.49999998660252726 0 -0.86602541151947299 forward_v I I I I #
coedge $-1 $229 $230 $231 $232 reversed $91 $-1 #
face $-1 $-1 $233 $47 $-1 $234 forward single #
loop $-1 $235 $236 $93 #
cone-surface $-1 50.193837093944921 -11.822057797295003 3.7799267988628973 -0.86602541151947299 0 -0.49999998660252726 0.12499999665063181 0 -0.21650635287986825 1 I I -0.70710678118654746 0.70710678118654746 0.25 forward I I I I #
loop $-1 $-1 $237 $59 #
coedge $-1 $148 $148 $238 $239 reversed $94 $-1 #
face $-1 $240 $241 $36 $-1 $242 reversed single #
loop $-1 $-1 $243 $96 #
plane-surface $-1 0 -33.217337751974888 0 0 1 0 0 0 1 forward_v I I I I #
coedge $-1 $244 $245 $246 $247 forward $97 $-1 #
coedge $-1 $248 $99 $249 $250 forward $61 $-1 #
coedge $-1 $99 $248 $251 $252 forward $61 $-1 #
coedge $-1 $253 $254 $99 $156 reversed $255 $-1 #
edge $-1 $256 -33.217337751974888 $257 33.217337751974888 $155 $258 forward 7 unknown #
face $-1 $259 $260 $37 $-1 $261 forward single #
loop $-1 $-1 $262 $100 #
plane-surface $-1 53.514816736350596 0 0 -1 0 0 0 0 1 forward_v I I I I #
coedge $-1 $263 $264 $265 $266 forward $101 $-1 #
coedge $-1 $265 $103 $262 $267 reversed $64 $-1 #
coedge $-1 $103 $265 $268 $269 reversed $64 $-1 #
coedge $-1 $270 $271 $103 $164 reversed $260 $-1 #
edge $-1 $272 -53.514816736350596 $273 53.514816736350596 $163 $274 forward 7 unknown #
face $-1 $275 $276 $38 $-1 $277 forward single #
loop $-1 $-1 $278 $104 #
plane-surface $-1 -136.69246503158092 -16.122491789399994 69.459396497565933 0 -1 0 0.77714596973225614 0 -0.62932038083071107 forward_v I I I I #
coedge $-1 $279 $280 $281 $282 reversed $105 $-1 #
coedge $-1 $170 $107 $283 $284 reversed $67 $-1 #
coedge $-1 $107 $169 $279 $285 reversed $67 $-1 #
coedge $-1 $281 $286 $107 $172 forward $276 $-1 #
edge $-1 $287 14.831415779439865 $288 19.121058100166223 $171 $289 forward 7 unknown #
loop $-1 $-1 $178 $108 #
plane-surface $-1 -53.51481673635061 -20.76405217865015 2.1034668003541981 -0.77714596973225614 0 0.62932038083071107 0.62932038083071107 0 0.77714596973225614 forward_v I I I I #
loop $-1 $-1 $290 $69 #
coedge $-1 $176 $176 $177 $291 reversed $109 $-1 #
coedge $-1 $177 $177 $176 $291 forward $111 $-1 #
coedge $-1 $178 $178 $112 $179 forward $173 $-1 #
edge $-1 $292 0 $292 6.2831853071796004 $178 $293 forward 7 unknown #
face $-1 $294 $295 $40 $-1 $296 forward single #
loop $-1 $-1 $297 $113 #
plane-surface $-1 -136.69246503158092 -0.96525283298018039 69.459396497565933 0 -1 0 0.77714596973225614 0 -0.62932038083071107 forward_v I I I I #
coedge $-1 $298 $299 $300 $301 reversed $114 $-1 #
coedge $-1 $185 $116 $302 $303 reversed $73 $-1 #
coedge $-1 $116 $184 $298 $304 reversed $73 $-1 #
coedge $-1 $300 $305 $116 $187 forward $295 $-1 #
edge $-1 $306 14.831415779439865 $307 19.121058100166223 $186 $308 forward 7 unknown #
loop $-1 $-1 $193 $117 #
plane-surface $-1 -53.51481673635061 -5.6068132222303362 2.1034668003541981 -0.77714596973225614 0 0.62932038083071107 0.62932038083071107 0 0.77714596973225614 forward_v I I I I #
loop $-1 $-1 $309 $75 #
coedge $-1 $191 $191 $192 $310 reversed $118 $-1 #
coedge $-1 $192 $192 $191 $310 forward $120 $-1 #
coedge $-1 $193 $193 $121 $194 forward $188 $-1 #
edge $-1 $311 0 $311 6.2831853071796004 $193 $312 forward 7 unknown #
face $-1 $313 $314 $42 $-1 $315 forward single #
loop $-1 $-1 $316 $122 #
plane-surface $-1 -136.69246503158092 14.19198612343963 69.459396497565933 0 -1 0 0.77714596973225614 0 -0.62932038083071107 forward_v I I I I #
coedge $-1 $317 $318 $319 $320 reversed $123 $-1 #
coedge $-1 $200 $125 $321 $322 reversed $79 $-1 #
coedge $-1 $125 $199 $317 $323 reversed $79 $-1 #
coedge $-1 $319 $324 $125 $202 forward $314 $-1 #
edge $-1 $325 14.831415779439865 $326 19.121058100166223 $201 $327 forward 7 unknown #
loop $-1 $-1 $208 $126 #
plane-surface $-1 -53.51481673635061 9.5504257341894743 2.1034668003541981 -0.77714596973225614 0 0.62932038083071107 0.62932038083071107 0 0.77714596973225614 forward_v I I I I #
loop $-1 $-1 $328 $81 #
coedge $-1 $206 $206 $207 $329 reversed $127 $-1 #
coedge $-1 $207 $207 $206 $329 forward $129 $-1 #
coedge $-1 $208 $208 $130 $209 forward $203 $-1 #
edge $-1 $330 0 $330 6.2831853071796004 $208 $331 forward 7 unknown #
face $-1 $332 $333 $44 $-1 $334 forward single #
loop $-1 $-1 $335 $131 #
plane-surface $-1 -136.69246503158092 29.349225079859441 69.459396497565933 0 -1 0 0.77714596973225614 0 -0.62932038083071107 forward_v I I I I #
coedge $-1 $336 $337 $338 $339 reversed $132 $-1 #
coedge $-1 $215 $134 $340 $341 reversed $85 $-1 #
coedge $-1 $134 $214 $336 $342 reversed $85 $-1 #
coedge $-1 $338 $343 $134 $217 forward $333 $-1 #
edge $-1 $344 14.831415779439865 $345 19.121058100166223 $216 $346 forward 7 unknown #
loop $-1 $-1 $223 $135 #
plane-surface $-1 -53.51481673635061 24.707664690609285 2.1034668003541981 -0.77714596973225614 0 0.62932038083071107 0.62932038083071107 0 0.77714596973225614 forward_v I I I I #
loop $-1 $-1 $347 $87 #
coedge $-1 $221 $221 $222 $348 reversed $136 $-1 #
coedge $-1 $222 $222 $221 $348 forward $138 $-1 #
coedge $-1 $223 $223 $139 $224 forward $218 $-1 #
edge $-1 $349 0 $349 6.2831853071796004 $223 $350 forward 7 unknown #
face $-1 $351 $352 $46 $-1 $353 reversed single #
loop $-1 $-1 $354 $140 #
plane-surface $-1 92.690383806901039 -16.437366979209216 148.49561542621188 0 1 0 0.86602541151947299 0 0.49999998660252726 forward_v I I I I #
coedge $-1 $355 $356 $357 $358 reversed $141 $-1 #
coedge $-1 $230 $143 $359 $360 reversed $91 $-1 #
coedge $-1 $143 $229 $355 $361 reversed $91 $-1 #
coedge $-1 $357 $362 $143 $232 forward $363 $-1 #
edge $-1 $364 -7.1696248329000767 $365 -4.2191824489479757 $231 $366 forward 7 unknown #
loop $-1 $-1 $238 $144 #
plane-surface $-1 1.4339266272145323e-006 -11.822057797295003 94.980800123787887 0.86602541151947299 0 0.49999998660252726 0.49999998660252726 0 -0.86602541151947299 forward_v I I I I #
loop $-1 $-1 $367 $93 #
coedge $-1 $236 $236 $237 $368 reversed $145 $-1 #
coedge $-1 $237 $237 $236 $368 forward $147 $-1 #
coedge $-1 $238 $238 $148 $239 forward $233 $-1 #
edge $-1 $369 0 $369 6.2831853071796004 $238 $370 forward 7 unknown #
face $-1 $371 $372 $36 $-1 $373 reversed single #
loop $-1 $-1 $374 $149 #
plane-surface $-1 -53.514816736350596 0 0 1 0 0 0 0 -1 forward_v I I I I #
coedge $-1 $251 $375 $253 $376 reversed $150 $-1 #
coedge $-1 $377 $152 $375 $378 forward $97 $-1 #
coedge $-1 $152 $377 $379 $380 forward $97 $-1 #
coedge $-1 $254 $253 $152 $247 reversed $255 $-1 #
edge $-1 $381 -33.217337751974888 $382 33.217337751974888 $246 $383 forward 7 unknown #
coedge $-1 $154 $153 $384 $385 forward $61 $-1 #
coedge $-1 $386 $387 $153 $250 reversed $372 $-1 #
edge $-1 $257 -53.514816736350596 $388 53.514816736350596 $249 $389 forward 7 unknown #
coedge $-1 $390 $243 $154 $252 reversed $150 $-1 #
edge $-1 $391 -53.514816736350596 $256 53.514816736350596 $251 $392 forward 7 unknown #
coedge $-1 $246 $155 $243 $376 forward $255 $-1 #
coedge $-1 $155 $246 $386 $393 reversed $255 $-1 #
loop $-1 $-1 $253 $371 #
vertex $-1 $156 $394 #
vertex $-1 $156 $395 #
straight-curve $-1 53.514816736350596 0 7.4007340471974086 0 1 0 I I #
face $-1 $396 $397 $37 $-1 $398 reversed single #
loop $-1 $-1 $271 $157 #
plane-surface $-1 0 -36.120197591110148 -4.4007340471974086 0 0 1 1 0 0 forward_v I I I I #
coedge $-1 $399 $400 $161 $267 forward $158 $-1 #
coedge $-1 $401 $160 $400 $402 forward $101 $-1 #
coedge $-1 $160 $401 $403 $404 forward $101 $-1 #
coedge $-1 $162 $161 $160 $266 reversed $64 $-1 #
edge $-1 $405 -53.514816736350596 $406 53.514816736350596 $160 $407 forward 7 unknown #
edge $-1 $406 -7.4007340471974086 $273 -4.4007340471974086 $262 $408 forward 7 unknown #
coedge $-1 $403 $409 $162 $269 forward $410 $-1 #
edge $-1 $272 4.4007340471974086 $405 7.4007340471974086 $268 $411 forward 7 unknown #
coedge $-1 $412 $163 $409 $413 forward $260 $-1 #
coedge $-1 $163 $412 $399 $414 forward $260 $-1 #
vertex $-1 $269 $415 #
vertex $-1 $414 $416 #
straight-curve $-1 0 -33.217337751974888 -4.4007340471974086 1 0 0 I I #
face $-1 $-1 $417 $38 $-1 $418 reversed single #
loop $-1 $-1 $171 $165 #
plane-surface $-1 0 0 7.4007340471974086 0 0 1 1 0 0 forward_v I I I I #
coedge $-1 $419 $420 $421 $422 reversed $166 $-1 #
coedge $-1 $423 $168 $170 $285 forward $105 $-1 #
coedge $-1 $168 $423 $419 $424 forward $105 $-1 #
coedge $-1 $421 $171 $168 $282 forward $276 $-1 #
edge $-1 $288 -15.023586478575231 $425 -5.7404657000749193 $281 $426 forward 7 unknown #
coedge $-1 $427 $428 $169 $284 forward $417 $-1 #
edge $-1 $429 -32.626231448428754 $287 -27.328964201585556 $283 $430 forward 7 unknown #
edge $-1 $288 -6.8163092303859418 $429 -2.2748066086763162e-014 $170 $431 forward 7 unknown #
coedge $-1 $171 $421 $427 $432 forward $276 $-1 #
vertex $-1 $284 $433 #
vertex $-1 $172 $434 #
straight-curve $-1 -68.346232515790462 -25.405612567900306 7.4007340471974103 1 0 0 I I #
coedge $-1 $290 $290 $-1 $435 reversed $175 $-1 #
edge $-1 $436 0 $436 6.2831853071796004 $176 $437 forward 7 unknown #
vertex $-1 $179 $438 #
ellipse-curve $-1 -51.369995575987417 -20.76405217865015 4.7521004237758113 -0.77714596973225614 0 0.62932038083071107 0.62932038083071107 0 0.77714596973225614 1 I I #
face $-1 $-1 $439 $40 $-1 $440 reversed single #
loop $-1 $-1 $186 $180 #
plane-surface $-1 0 0 7.4007340471974086 0 0 1 1 0 0 forward_v I I I I #
coedge $-1 $441 $442 $443 $444 reversed $181 $-1 #
coedge $-1 $445 $183 $185 $304 forward $114 $-1 #
coedge $-1 $183 $445 $441 $446 forward $114 $-1 #
coedge $-1 $443 $186 $183 $301 forward $295 $-1 #
edge $-1 $307 -7.4449670003653239 $447 1.8381537781349877 $300 $448 forward 7 unknown #
coedge $-1 $449 $450 $184 $303 forward $439 $-1 #
edge $-1 $451 -32.626231448428754 $306 -27.328964201585556 $302 $452 forward 7 unknown #
edge $-1 $307 -6.8163092303859418 $451 -2.2748066086763162e-014 $185 $453 forward 7 unknown #
coedge $-1 $186 $443 $449 $454 forward $295 $-1 #
vertex $-1 $187 $455 #
vertex $-1 $187 $456 #
straight-curve $-1 -68.346232515790462 -10.248373611480492 7.4007340471974103 1 0 0 I I #
coedge $-1 $309 $309 $-1 $457 reversed $190 $-1 #
edge $-1 $458 0 $458 6.2831853071796004 $191 $459 forward 7 unknown #
vertex $-1 $194 $460 #
ellipse-curve $-1 -51.369995575987417 -5.6068132222303362 4.7521004237758113 -0.77714596973225614 0 0.62932038083071107 0.62932038083071107 0 0.77714596973225614 1 I I #
face $-1 $-1 $461 $42 $-1 $462 reversed single #
loop $-1 $-1 $201 $195 #
plane-surface $-1 0 0 7.4007340471974086 0 0 1 1 0 0 forward_v I I I I #
coedge $-1 $463 $464 $465 $466 reversed $196 $-1 #
coedge $-1 $467 $198 $200 $323 forward $123 $-1 #
coedge $-1 $198 $467 $463 $468 forward $123 $-1 #
coedge $-1 $465 $201 $198 $320 forward $314 $-1 #
edge $-1 $326 0.13365247784458134 $469 9.4167732563448929 $319 $470 forward 7 unknown #
coedge $-1 $471 $472 $199 $322 forward $461 $-1 #
edge $-1 $473 -32.626231448428754 $325 -27.328964201585556 $321 $474 forward 7 unknown #
edge $-1 $326 -6.8163092303859418 $473 -2.2748066086763162e-014 $200 $475 forward 7 unknown #
coedge $-1 $201 $465 $471 $476 forward $314 $-1 #
vertex $-1 $202 $477 #
vertex $-1 $202 $478 #
straight-curve $-1 -68.346232515790462 4.9088653449393185 7.4007340471974103 1 0 0 I I #
coedge $-1 $328 $328 $-1 $479 reversed $205 $-1 #
edge $-1 $480 0 $480 6.2831853071796004 $206 $481 forward 7 unknown #
vertex $-1 $209 $482 #
ellipse-curve $-1 -51.369995575987417 9.5504257341894743 4.7521004237758113 -0.77714596973225614 0 0.62932038083071107 0.62932038083071107 0 0.77714596973225614 1 I I #
face $-1 $-1 $483 $44 $-1 $484 reversed single #
loop $-1 $-1 $216 $210 #
plane-surface $-1 0 0 7.4007340471974086 0 0 1 1 0 0 forward_v I I I I #
coedge $-1 $485 $486 $487 $488 reversed $211 $-1 #
coedge $-1 $489 $213 $215 $342 forward $132 $-1 #
coedge $-1 $213 $489 $485 $490 forward $132 $-1 #
coedge $-1 $487 $216 $213 $339 forward $333 $-1 #
edge $-1 $345 7.7122719560544866 $491 16.995392734554798 $338 $492 forward 7 unknown #
coedge $-1 $493 $494 $214 $341 forward $483 $-1 #
edge $-1 $495 -32.626231448428754 $344 -27.328964201585556 $340 $496 forward 7 unknown #
edge $-1 $345 -6.8163092303859418 $495 -2.2748066086763162e-014 $215 $497 forward 7 unknown #
coedge $-1 $216 $487 $493 $498 forward $333 $-1 #
vertex $-1 $217 $499 #
vertex $-1 $217 $500 #
straight-curve $-1 -68.346232515790462 20.066104301359129 7.4007340471974103 1 0 0 I I #
coedge $-1 $347 $347 $-1 $501 reversed $220 $-1 #
edge $-1 $502 0 $502 6.2831853071796004 $221 $503 forward 7 unknown #
vertex $-1 $224 $504 #
ellipse-curve $-1 -51.369995575987417 24.707664690609285 4.7521004237758113 -0.77714596973225614 0 0.62932038083071107 0.62932038083071107 0 0.77714596973225614 1 I I #
face $-1 $-1 $363 $46 $-1 $505 forward single #
loop $-1 $-1 $506 $225 #
plane-surface $-1 53.514816736350596 0 0 -1 0 0 0 0 1 forward_v I I I I #
coedge $-1 $507 $508 $509 $510 reversed $226 $-1 #
coedge $-1 $511 $228 $230 $361 forward $141 $-1 #
coedge $-1 $228 $511 $507 $512 forward $141 $-1 #
coedge $-1 $509 $231 $228 $358 forward $363 $-1 #
edge $-1 $365 1.2957197167332879 $513 10.526338080561715 $357 $514 forward 7 unknown #
coedge $-1 $515 $516 $229 $360 forward $352 $-1 #
edge $-1 $517 -71.95738996229241 $364 -66.847073665908539 $359 $518 forward 7 unknown #
edge $-1 $365 101.12874854668303 $517 107.02963347270112 $230 $519 forward 7 unknown #
coedge $-1 $231 $509 $515 $520 forward $363 $-1 #
loop $-1 $-1 $509 $351 #
vertex $-1 $360 $521 #
vertex $-1 $232 $522 #
straight-curve $-1 46.34519190345052 -7.2067486153807891 7.4007340471974032 -1 0 0 I I #
coedge $-1 $367 $367 $-1 $523 reversed $235 $-1 #
edge $-1 $524 0 $524 6.2831853071796004 $236 $525 forward 7 unknown #
vertex $-1 $239 $526 #
ellipse-curve $-1 52.039595544374549 -11.822057797295003 4.8455758990054534 0.86602541151947299 0 0.49999998660252726 0.24999999330126363 0 -0.43301270575973649 1 I I #
face $-1 $-1 $255 $36 $-1 $527 reversed single #
loop $-1 $-1 $386 $240 #
plane-surface $-1 0 33.217337751974888 0 0 -1 0 0 0 -1 forward_v I I I I #
coedge $-1 $528 $384 $387 $529 forward $241 $-1 #
coedge $-1 $243 $390 $244 $378 reversed $150 $-1 #
edge $-1 $256 -7.4007340471974086 $382 7.4007340471974086 $253 $530 forward 7 unknown #
coedge $-1 $245 $244 $528 $531 forward $97 $-1 #
edge $-1 $382 -53.514816736350596 $532 53.514816736350596 $375 $533 forward 7 unknown #
coedge $-1 $387 $386 $245 $380 reversed $372 $-1 #
edge $-1 $534 -53.514816736350596 $381 53.514816736350596 $379 $535 forward 7 unknown #
vertex $-1 $247 $536 #
vertex $-1 $376 $537 #
straight-curve $-1 53.514816736350596 0 -7.4007340471974086 0 -1 0 I I #
coedge $-1 $374 $538 $248 $385 reversed $241 $-1 #
edge $-1 $388 -33.217337751974888 $391 33.217337751974888 $384 $539 forward 7 unknown #
coedge $-1 $379 $249 $254 $393 forward $372 $-1 #
coedge $-1 $249 $379 $374 $529 reversed $372 $-1 #
vertex $-1 $250 $540 #
straight-curve $-1 0 33.217337751974888 7.4007340471974086 -1 0 0 I I #
coedge $-1 $375 $251 $538 $541 forward $150 $-1 #
vertex $-1 $385 $542 #
straight-curve $-1 0 -33.217337751974888 7.4007340471974086 1 0 0 I I #
edge $-1 $257 -7.4007340471974086 $381 7.4007340471974086 $254 $543 forward 7 unknown #
point $-1 53.514816736350596 -33.217337751974888 7.4007340471974086 #
point $-1 53.514816736350596 33.217337751974888 7.4007340471974086 #
face $-1 $-1 $410 $37 $-1 $544 reversed single #
loop $-1 $-1 $545 $259 #
plane-surface $-1 0 -39.023057430245409 -5.9007340471974086 0 1 0 0 0 1 forward_v I I I I #
coedge $-1 $546 $262 $271 $414 reversed $158 $-1 #
coedge $-1 $262 $546 $263 $402 reversed $158 $-1 #
coedge $-1 $264 $263 $547 $548 forward $101 $-1 #
edge $-1 $406 33.217337751974888 $549 39.023057430245409 $400 $550 forward 7 unknown #
coedge $-1 $551 $268 $264 $404 reversed $410 $-1 #
edge $-1 $552 -39.023057430245409 $405 -33.217337751974888 $403 $553 forward 7 unknown #
vertex $-1 $269 $554 #
vertex $-1 $402 $555 #
straight-curve $-1 0 -33.217337751974888 -7.4007340471974086 1 0 0 I I #
straight-curve $-1 53.514816736350596 -33.217337751974888 0 0 0 1 I I #
coedge $-1 $268 $551 $270 $413 reversed $410 $-1 #
loop $-1 $-1 $268 $396 #
straight-curve $-1 -53.514816736350596 -33.217337751974888 0 0 0 -1 I I #
coedge $-1 $271 $270 $556 $557 forward $260 $-1 #
edge $-1 $272 -2.9028598391352602 $558 2.9028598391352602 $409 $559 forward 7 unknown #
edge $-1 $560 -2.9028598391352602 $273 2.9028598391352602 $399 $561 forward 7 unknown #
point $-1 -53.514816736350596 -33.217337751974888 -4.4007340471974086 #
point $-1 53.514816736350596 -33.217337751974888 -4.4007340471974086 #
loop $-1 $-1 $283 $275 #
plane-surface $-1 -53.514816736350596 0 0 1 0 0 0 0 -1 forward_v I I I I #
coedge $-1 $420 $278 $280 $424 reversed $166 $-1 #
coedge $-1 $278 $419 $562 $563 reversed $166 $-1 #
coedge $-1 $286 $281 $278 $422 forward $276 $-1 #
edge $-1 $425 -19.121058100166223 $564 -14.831415779439865 $421 $565 forward 7 unknown #
coedge $-1 $280 $279 $428 $566 reversed $105 $-1 #
edge $-1 $567 2.2748066086763162e-014 $425 6.8163092303859418 $419 $568 forward 7 unknown #
vertex $-1 $282 $569 #
straight-curve $-1 -49.225174415624238 -10.382026089325075 7.4007340471974086 0 1 0 I I #
coedge $-1 $562 $283 $286 $432 reversed $417 $-1 #
coedge $-1 $283 $562 $423 $566 forward $417 $-1 #
vertex $-1 $284 $570 #
straight-curve $-1 -53.514816736350596 -25.405612567900306 34.729698248782967 0 0 1 I I #
straight-curve $-1 -53.51481673635061 -25.405612567900306 2.1034668003541981 -0.62932038083071107 0 -0.77714596973225614 I I #
edge $-1 $564 16.122491789399994 $287 25.405612567900306 $427 $571 forward 7 unknown #
point $-1 -53.514816736350596 -25.405612567900306 7.4007340471974086 #
point $-1 -49.225174415624238 -25.405612567900306 7.4007340471974086 #
edge $-1 $572 1 $572 0 $290 $-1 forward 7 unknown #
vertex $-1 $291 $573 #
ellipse-curve $-1 -50.377259016183856 -20.76405217865015 3.9481982300921845 -0.77714596973225614 0 0.62932038083071107 0.62932038083071107 0 0.77714596973225614 1 I I #
point $-1 -50.740675195156697 -20.76405217865015 5.5292463935080569 #
loop $-1 $-1 $302 $294 #
plane-surface $-1 -53.514816736350596 0 0 1 0 0 0 0 -1 forward_v I I I I #
coedge $-1 $442 $297 $299 $446 reversed $181 $-1 #
coedge $-1 $297 $441 $574 $575 reversed $181 $-1 #
coedge $-1 $305 $300 $297 $444 forward $295 $-1 #
edge $-1 $447 -19.121058100166223 $576 -14.831415779439865 $443 $577 forward 7 unknown #
coedge $-1 $299 $298 $450 $578 reversed $114 $-1 #
edge $-1 $579 2.2748066086763162e-014 $447 6.8163092303859418 $441 $580 forward 7 unknown #
vertex $-1 $301 $581 #
straight-curve $-1 -49.225174415624238 -2.8034066111151681 7.4007340471974086 0 1 0 I I #
coedge $-1 $574 $302 $305 $454 reversed $439 $-1 #
coedge $-1 $302 $574 $445 $578 forward $439 $-1 #
vertex $-1 $303 $582 #
straight-curve $-1 -53.514816736350596 -10.248373611480492 34.729698248782967 0 0 1 I I #
straight-curve $-1 -53.51481673635061 -10.248373611480492 2.1034668003541981 -0.62932038083071107 0 -0.77714596973225614 I I #
edge $-1 $576 0.96525283298018039 $306 10.248373611480492 $449 $583 forward 7 unknown #
point $-1 -53.514816736350596 -10.248373611480492 7.4007340471974086 #
point $-1 -49.225174415624238 -10.248373611480492 7.4007340471974086 #
edge $-1 $584 1 $584 0 $309 $-1 forward 7 unknown #
vertex $-1 $310 $585 #
ellipse-curve $-1 -50.377259016183856 -5.6068132222303362 3.9481982300921845 -0.77714596973225614 0 0.62932038083071107 0.62932038083071107 0 0.77714596973225614 1 I I #
point $-1 -50.740675195156697 -5.6068132222303362 5.5292463935080569 #
loop $-1 $-1 $321 $313 #
plane-surface $-1 -53.514816736350596 0 0 1 0 0 0 0 -1 forward_v I I I I #
coedge $-1 $464 $316 $318 $468 reversed $196 $-1 #
coedge $-1 $316 $463 $586 $587 reversed $196 $-1 #
coedge $-1 $324 $319 $316 $466 forward $314 $-1 #
edge $-1 $469 -19.121058100166223 $588 -14.831415779439865 $465 $589 forward 7 unknown #
coedge $-1 $318 $317 $472 $590 reversed $123 $-1 #
edge $-1 $591 2.2748066086763162e-014 $469 6.8163092303859418 $463 $592 forward 7 unknown #
vertex $-1 $320 $593 #
straight-curve $-1 -49.225174415624238 4.7752128670947371 7.4007340471974086 0 1 0 I I #
coedge $-1 $586 $321 $324 $476 reversed $461 $-1 #
coedge $-1 $321 $586 $467 $590 forward $461 $-1 #
vertex $-1 $322 $594 #
straight-curve $-1 -53.514816736350596 4.9088653449393185 34.729698248782967 0 0 1 I I #
straight-curve $-1 -53.51481673635061 4.9088653449393185 2.1034668003541981 -0.62932038083071107 0 -0.77714596973225614 I I #
edge $-1 $588 -14.19198612343963 $325 -4.9088653449393185 $471 $595 forward 7 unknown #
point $-1 -53.514816736350596 4.9088653449393185 7.4007340471974086 #
point $-1 -49.225174415624238 4.9088653449393185 7.4007340471974086 #
edge $-1 $596 1 $596 0 $328 $-1 forward 7 unknown #
vertex $-1 $329 $597 #
ellipse-curve $-1 -50.377259016183856 9.5504257341894743 3.9481982300921845 -0.77714596973225614 0 0.62932038083071107 0.62932038083071107 0 0.77714596973225614 1 I I #
point $-1 -50.740675195156697 9.5504257341894743 5.5292463935080569 #
loop $-1 $-1 $340 $332 #
plane-surface $-1 -53.514816736350596 0 0 1 0 0 0 0 -1 forward_v I I I I #
coedge $-1 $486 $335 $337 $490 reversed $211 $-1 #
coedge $-1 $335 $485 $598 $599 reversed $211 $-1 #
coedge $-1 $343 $338 $335 $488 forward $333 $-1 #
edge $-1 $491 -19.121058100166223 $600 -14.831415779439865 $487 $601 forward 7 unknown #
coedge $-1 $337 $336 $494 $602 reversed $132 $-1 #
edge $-1 $603 2.2748066086763162e-014 $491 6.8163092303859418 $485 $604 forward 7 unknown #
vertex $-1 $339 $605 #
straight-curve $-1 -49.225174415624238 12.353832345304642 7.4007340471974086 0 1 0 I I #
coedge $-1 $598 $340 $343 $498 reversed $483 $-1 #
coedge $-1 $340 $598 $489 $602 forward $483 $-1 #
vertex $-1 $341 $606 #
straight-curve $-1 -53.514816736350596 20.066104301359129 34.729698248782967 0 0 1 I I #
straight-curve $-1 -53.51481673635061 20.066104301359129 2.1034668003541981 -0.62932038083071107 0 -0.77714596973225614 I I #
edge $-1 $600 -29.349225079859441 $344 -20.066104301359129 $493 $607 forward 7 unknown #
point $-1 -53.514816736350596 20.066104301359129 7.4007340471974086 #
point $-1 -49.225174415624238 20.066104301359129 7.4007340471974086 #
edge $-1 $608 1 $608 0 $347 $-1 forward 7 unknown #
vertex $-1 $348 $609 #
ellipse-curve $-1 -50.377259016183856 24.707664690609285 3.9481982300921845 -0.77714596973225614 0 0.62932038083071107 0.62932038083071107 0 0.77714596973225614 1 I I #
point $-1 -50.740675195156697 24.707664690609285 5.5292463935080569 #
plane-surface $-1 0 0 7.4007340471974086 0 0 1 1 0 0 forward_v I I I I #
coedge $-1 $516 $515 $508 $610 forward $352 $-1 #
coedge $-1 $508 $354 $356 $512 reversed $226 $-1 #
coedge $-1 $354 $507 $506 $610 reversed $226 $-1 #
coedge $-1 $362 $357 $354 $510 forward $363 $-1 #
edge $-1 $513 4.2191824489479757 $611 7.1696248329000767 $509 $612 forward 7 unknown #
coedge $-1 $356 $355 $516 $613 reversed $141 $-1 #
edge $-1 $614 -107.02963347270112 $513 -101.12874854668303 $507 $615 forward 7 unknown #
vertex $-1 $358 $616 #
straight-curve $-1 50.564374352398488 -5.9110288986475013 7.4007340471974103 0 -1 0 I I #
coedge $-1 $506 $359 $362 $520 reversed $352 $-1 #
coedge $-1 $359 $506 $511 $613 forward $352 $-1 #
vertex $-1 $360 $617 #
straight-curve $-1 53.514816736350596 -7.2067486153807891 74.247807713105942 0 0 1 I I #
straight-curve $-1 1.4339266272145323e-006 -7.2067486153807891 94.980800123787887 0.49999998660252726 0 -0.86602541151947299 I I #
edge $-1 $611 -16.437366979209216 $364 -7.2067486153807891 $515 $618 forward 7 unknown #
point $-1 53.514816736350596 -7.2067486153807891 7.4007340471974086 #
point $-1 50.564374352398495 -7.2067486153807891 7.4007340471974032 #
edge $-1 $619 1 $619 0 $367 $-1 forward 7 unknown #
vertex $-1 $368 $620 #
ellipse-curve $-1 50.41034344682479 -11.822057797295003 3.9049267955135289 0.86602541151947299 0 0.49999998660252726 0.24999999330126363 0 -0.43301270575973649 1 I I #
point $-1 52.289595537675787 -11.822057797295003 4.4125631932457052 #
plane-surface $-1 53.514816736350596 0 0 -1 0 0 0 0 1 forward_v I I I I #
coedge $-1 $538 $374 $377 $531 reversed $241 $-1 #
edge $-1 $388 -7.4007340471974086 $534 7.4007340471974086 $387 $621 forward 7 unknown #
straight-curve $-1 53.514816736350596 -33.217337751974888 0 0 0 -1 I I #
edge $-1 $532 -33.217337751974888 $534 33.217337751974888 $528 $622 forward 7 unknown #
vertex $-1 $531 $623 #
straight-curve $-1 0 -33.217337751974888 -7.4007340471974086 -1 0 0 I I #
vertex $-1 $380 $624 #
straight-curve $-1 0 33.217337751974888 -7.4007340471974086 1 0 0 I I #
point $-1 53.514816736350596 33.217337751974888 -7.4007340471974086 #
point $-1 53.514816736350596 -33.217337751974888 -7.4007340471974086 #
coedge $-1 $384 $528 $390 $541 reversed $241 $-1 #
straight-curve $-1 -53.514816736350596 0 7.4007340471974086 0 -1 0 I I #
point $-1 -53.514816736350596 33.217337751974888 7.4007340471974086 #
edge $-1 $391 -7.4007340471974086 $532 7.4007340471974086 $538 $625 forward 7 unknown #
point $-1 -53.514816736350596 -33.217337751974888 7.4007340471974086 #
straight-curve $-1 53.514816736350596 33.217337751974888 0 0 0 -1 I I #
plane-surface $-1 -53.514816736350596 0 0 1 0 0 0 0 -1 forward_v I I I I #
coedge $-1 $547 $556 $551 $626 forward $397 $-1 #
coedge $-1 $400 $399 $627 $628 forward $158 $-1 #
coedge $-1 $627 $545 $401 $548 reversed $397 $-1 #
edge $-1 $549 -53.514816736350596 $552 53.514816736350596 $547 $629 forward 7 unknown #
vertex $-1 $628 $630 #
straight-curve $-1 53.514816736350596 0 -7.4007340471974086 0 -1 0 I I #
coedge $-1 $409 $403 $545 $626 reversed $410 $-1 #
vertex $-1 $404 $631 #
straight-curve $-1 -53.514816736350596 0 -7.4007340471974086 0 1 0 I I #
point $-1 -53.514816736350596 -33.217337751974888 -7.4007340471974086 #
point $-1 53.514816736350596 -33.217337751974888 -7.4007340471974086 #
coedge $-1 $545 $627 $412 $557 reversed $397 $-1 #
edge $-1 $558 -53.514816736350596 $560 53.514816736350596 $556 $632 forward 7 unknown #
vertex $-1 $413 $633 #
straight-curve $-1 -53.514816736350596 -36.120197591110148 -4.4007340471974086 0 -1 0 I I #
vertex $-1 $414 $634 #
straight-curve $-1 53.514816736350596 -36.120197591110148 -4.4007340471974086 0 1 0 I I #
coedge $-1 $428 $427 $420 $563 forward $417 $-1 #
edge $-1 $564 27.328964201585556 $567 32.626231448428754 $562 $635 forward 7 unknown #
vertex $-1 $432 $636 #
straight-curve $-1 -68.346232515790462 -16.122491789399994 7.4007340471974103 -1 0 0 I I #
edge $-1 $567 5.7404657000749193 $429 15.023586478575231 $428 $637 forward 7 unknown #
vertex $-1 $566 $638 #
straight-curve $-1 -53.51481673635061 -16.122491789399994 2.1034668003541981 0.62932038083071107 0 0.77714596973225614 I I #
point $-1 -49.225174415624238 -16.122491789399994 7.4007340471974086 #
point $-1 -53.514816736350596 -25.405612567900306 2.1034668003542158 #
straight-curve $-1 -53.514816736350596 0 7.4007340471974086 0 -1 0 I I #
vertex $-1 $435 $639 #
point $-1 -49.747938635353144 -20.76405217865015 4.7253441998244403 #
coedge $-1 $450 $449 $442 $575 forward $439 $-1 #
edge $-1 $576 27.328964201585556 $579 32.626231448428754 $574 $640 forward 7 unknown #
vertex $-1 $454 $641 #
straight-curve $-1 -68.346232515790462 -0.96525283298018039 7.4007340471974103 -1 0 0 I I #
edge $-1 $579 -1.8381537781349877 $451 7.4449670003653239 $450 $642 forward 7 unknown #
vertex $-1 $578 $643 #
straight-curve $-1 -53.51481673635061 -0.96525283298018039 2.1034668003541981 0.62932038083071107 0 0.77714596973225614 I I #
point $-1 -49.225174415624238 -0.96525283298018039 7.4007340471974086 #
point $-1 -53.514816736350596 -10.248373611480492 2.1034668003542158 #
straight-curve $-1 -53.514816736350596 0 7.4007340471974086 0 -1 0 I I #
vertex $-1 $457 $644 #
point $-1 -49.747938635353144 -5.6068132222303362 4.7253441998244403 #
coedge $-1 $472 $471 $464 $587 forward $461 $-1 #
edge $-1 $588 27.328964201585556 $591 32.626231448428754 $586 $645 forward 7 unknown #
vertex $-1 $476 $646 #
straight-curve $-1 -68.346232515790462 14.19198612343963 7.4007340471974103 -1 0 0 I I #
edge $-1 $591 -9.4167732563448929 $473 -0.13365247784458134 $472 $647 forward 7 unknown #
vertex $-1 $590 $648 #
straight-curve $-1 -53.51481673635061 14.19198612343963 2.1034668003541981 0.62932038083071107 0 0.77714596973225614 I I #
point $-1 -49.225174415624238 14.19198612343963 7.4007340471974086 #
point $-1 -53.514816736350596 4.9088653449393185 2.1034668003542158 #
straight-curve $-1 -53.514816736350596 0 7.4007340471974086 0 -1 0 I I #
vertex $-1 $479 $649 #
point $-1 -49.747938635353144 9.5504257341894743 4.7253441998244403 #
coedge $-1 $494 $493 $486 $599 forward $483 $-1 #
edge $-1 $600 27.328964201585556 $603 32.626231448428754 $598 $650 forward 7 unknown #
vertex $-1 $498 $651 #
straight-curve $-1 -68.346232515790462 29.349225079859441 7.4007340471974103 -1 0 0 I I #
edge $-1 $603 -16.995392734554798 $495 -7.7122719560544866 $494 $652 forward 7 unknown #
vertex $-1 $602 $653 #
straight-curve $-1 -53.51481673635061 29.349225079859441 2.1034668003541981 0.62932038083071107 0 0.77714596973225614 I I #
point $-1 -49.225174415624238 29.349225079859441 7.4007340471974086 #
point $-1 -53.514816736350596 20.066104301359129 2.1034668003542158 #
straight-curve $-1 -53.514816736350596 0 7.4007340471974086 0 -1 0 I I #
vertex $-1 $501 $654 #
point $-1 -49.747938635353144 24.707664690609285 4.7253441998244403 #
edge $-1 $611 66.847073665908539 $614 71.95738996229241 $506 $655 forward 7 unknown #
vertex $-1 $520 $656 #
straight-curve $-1 46.34519190345052 -16.437366979209216 7.4007340471974032 1 0 0 I I #
edge $-1 $614 -10.526338080561715 $517 -1.2957197167332879 $516 $657 forward 7 unknown #
vertex $-1 $613 $658 #
straight-curve $-1 1.4339266272145323e-006 -16.437366979209216 94.980800123787887 -0.49999998660252726 0 0.86602541151947299 I I #
point $-1 50.564374352398495 -16.437366979209216 7.4007340471974032 #
point $-1 53.514816736350596 -7.2067486153807891 2.2904177508135319 #
straight-curve $-1 53.514816736350596 0 7.4007340471974086 0 1 0 I I #
vertex $-1 $523 $659 #
point $-1 50.660343440126056 -11.822057797295003 3.4719140897537928 #
straight-curve $-1 -53.514816736350596 33.217337751974888 0 0 0 -1 I I #
straight-curve $-1 -53.514816736350596 0 -7.4007340471974086 0 1 0 I I #
point $-1 -53.514816736350596 -33.217337751974888 -7.4007340471974086 #
point $-1 -53.514816736350596 33.217337751974888 -7.4007340471974086 #
straight-curve $-1 -53.514816736350596 -33.217337751974888 0 0 0 -1 I I #
edge $-1 $558 -1.5 $552 1.5 $551 $660 forward 7 unknown #
coedge $-1 $556 $547 $546 $628 reversed $397 $-1 #
edge $-1 $560 -1.5 $549 1.5 $546 $661 forward 7 unknown #
straight-curve $-1 0 -39.023057430245409 -7.4007340471974086 -1 0 0 I I #
point $-1 53.514816736350596 -39.023057430245409 -7.4007340471974086 #
point $-1 -53.514816736350596 -39.023057430245409 -7.4007340471974086 #
straight-curve $-1 0 -39.023057430245409 -4.4007340471974086 1 0 0 I I #
point $-1 -53.514816736350596 -39.023057430245409 -4.4007340471974086 #
point $-1 53.514816736350596 -39.023057430245409 -4.4007340471974086 #
straight-curve $-1 -53.514816736350596 -16.122491789399994 34.729698248782967 0 0 -1 I I #
point $-1 -53.514816736350596 -16.122491789399994 7.4007340471974086 #
straight-curve $-1 -53.514816736350596 -10.382026089325075 2.1034668003542119 0 -1 0 I I #
point $-1 -53.514816736350596 -16.122491789399994 2.1034668003542158 #
point $-1 -49.600113046451597 -20.76405217865015 3.3188778492614728 #
straight-curve $-1 -53.514816736350596 -0.96525283298018039 34.729698248782967 0 0 -1 I I #
point $-1 -53.514816736350596 -0.96525283298018039 7.4007340471974086 #
straight-curve $-1 -53.514816736350596 -2.8034066111151681 2.1034668003542119 0 -1 0 I I #
point $-1 -53.514816736350596 -0.96525283298018039 2.1034668003542158 #
point $-1 -49.600113046451597 -5.6068132222303362 3.3188778492614728 #
straight-curve $-1 -53.514816736350596 14.19198612343963 34.729698248782967 0 0 -1 I I #
point $-1 -53.514816736350596 14.19198612343963 7.4007340471974086 #
straight-curve $-1 -53.514816736350596 4.7752128670947371 2.1034668003542119 0 -1 0 I I #
point $-1 -53.514816736350596 14.19198612343963 2.1034668003542158 #
point $-1 -49.600113046451597 9.5504257341894743 3.3188778492614728 #
straight-curve $-1 -53.514816736350596 29.349225079859441 34.729698248782967 0 0 -1 I I #
point $-1 -53.514816736350596 29.349225079859441 7.4007340471974086 #
straight-curve $-1 -53.514816736350596 12.353832345304642 2.1034668003542119 0 -1 0 I I #
point $-1 -53.514816736350596 29.349225079859441 2.1034668003542158 #
point $-1 -49.600113046451597 24.707664690609285 3.3188778492614728 #
straight-curve $-1 53.514816736350596 -16.437366979209216 74.247807713105942 0 0 -1 I I #
point $-1 53.514816736350596 -16.437366979209216 7.4007340471974086 #
straight-curve $-1 53.514816736350596 -5.9110288986475013 2.2904177508135248 0 1 0 I I #
point $-1 53.514816736350596 -16.437366979209216 2.2904177508135319 #
point $-1 49.977330741065053 -11.822057797295003 3.6549268022122656 #
straight-curve $-1 -53.514816736350596 -39.023057430245409 -5.9007340471974086 0 0 -1 I I #
straight-curve $-1 53.514816736350596 -39.023057430245409 -5.9007340471974086 0 0 -1 I I #
End-of-ACIS-data 