500 0 9 0           
7 Unknown 11 ACIS 5.0 NT 24 Thu Mar 25 17:30:32 1999 
-1 9.9999999999999995e-007 1e-010 
body $-1 $9 $-1 $10 #
body $-1 $11 $-1 $12 #
body $-1 $13 $-1 $14 #
body $-1 $15 $-1 $16 #
body $-1 $17 $-1 $18 #
body $-1 $19 $-1 $20 #
body $-1 $21 $-1 $22 #
body $-1 $23 $-1 $24 #
body $-1 $25 $-1 $26 #
lump $-1 $-1 $27 $0 #
transform $-1 1 0 0 0 1 0 0 0 1 50.263985106967375 30.128631815208131 6.9589075645325993 1 rotate no_reflect no_shear #
lump $-1 $-1 $28 $1 #
transform $-1 1 0 0 0 1 0 0 0 1 50.263985106967375 30.128631815208131 6.9589075645325993 1 rotate no_reflect no_shear #
lump $-1 $-1 $29 $2 #
transform $-1 1 0 0 0 1 0 0 0 1 50.263985106967375 30.128631815208131 6.9589075645325993 1 rotate no_reflect no_shear #
lump $-1 $-1 $30 $3 #
transform $-1 1 0 0 0 1 0 0 0 1 50.263985106967375 30.128631815208131 6.9589075645325993 1 rotate no_reflect no_shear #
lump $-1 $-1 $31 $4 #
transform $-1 1 0 0 0 1 0 0 0 1 50.263985106967375 30.128631815208131 6.9589075645325993 1 rotate no_reflect no_shear #
lump $-1 $-1 $32 $5 #
transform $-1 1 0 0 0 1 0 0 0 1 50.263985106967375 30.128631815208131 6.9589075645325993 1 rotate no_reflect no_shear #
lump $-1 $-1 $33 $6 #
transform $-1 1 0 0 0 1 0 0 0 1 50.263985106967375 30.128631815208131 6.9589075645325993 1 rotate no_reflect no_shear #
lump $-1 $-1 $34 $7 #
transform $-1 1 0 0 0 1 0 0 0 1 50.263985106967375 30.128631815208131 6.9589075645325993 1 rotate no_reflect no_shear #
lump $-1 $-1 $35 $8 #
transform $-1 1 0 0 0 1 0 0 0 1 50.263985106967375 30.128631815208131 6.9589075645325993 1 rotate no_reflect no_shear #
shell $-1 $-1 $-1 $36 $-1 $9 #
shell $-1 $-1 $-1 $37 $-1 $11 #
shell $-1 $-1 $-1 $38 $-1 $13 #
shell $-1 $-1 $-1 $39 $-1 $15 #
shell $-1 $-1 $-1 $40 $-1 $17 #
shell $-1 $-1 $-1 $41 $-1 $19 #
shell $-1 $-1 $-1 $42 $-1 $21 #
shell $-1 $-1 $-1 $43 $-1 $23 #
shell $-1 $-1 $-1 $44 $-1 $25 #
face $-1 $45 $46 $27 $-1 $47 forward single #
face $-1 $48 $49 $28 $-1 $50 reversed single #
face $-1 $51 $52 $29 $-1 $53 forward single #
face $-1 $54 $55 $30 $-1 $56 reversed single #
face $-1 $57 $58 $31 $-1 $59 forward single #
face $-1 $60 $61 $32 $-1 $62 reversed single #
face $-1 $63 $64 $33 $-1 $65 forward single #
face $-1 $66 $67 $34 $-1 $68 reversed single #
face $-1 $69 $70 $35 $-1 $71 forward single #
face $-1 $72 $73 $27 $-1 $74 reversed single #
loop $-1 $-1 $75 $36 #
plane-surface $-1 0 0 6.9589075645325993 0 0 1 1 0 0 forward_v I I I I #
face $-1 $76 $77 $28 $-1 $78 reversed single #
loop $-1 $-1 $79 $37 #
plane-surface $-1 87.059778120560907 1.7763568394002505e-015 138.80767125832264 0 -1 0 -0.86602541151947299 0 -0.49999998660252726 forward_v I I I I #
face $-1 $80 $81 $29 $-1 $82 forward single #
loop $-1 $83 $84 $38 #
cone-surface $-1 47.411707332558429 -5.50815054441982 3.4871452706073676 -0.86602541151947299 0 -0.49999998660252726 0.74999997990379086 0 -1.2990381172792094 1 I I 0 1 1.5 forward I I I I #
face $-1 $85 $86 $30 $-1 $87 reversed single #
loop $-1 $-1 $88 $39 #
plane-surface $-1 87.059778120560907 19.112330726368491 138.80767125832264 0 1 0 0.86602541151947299 0 0.49999998660252726 forward_v I I I I #
face $-1 $89 $90 $31 $-1 $91 forward single #
loop $-1 $92 $93 $40 #
cone-surface $-1 47.411707332558429 24.620481270788311 3.4871452706073676 -0.86602541151947299 0 -0.49999998660252726 0.74999997990379086 0 -1.2990381172792094 1 I I 0 1 1.5 forward I I I I #
face $-1 $94 $95 $32 $-1 $96 reversed single #
loop $-1 $-1 $97 $41 #
plane-surface $-1 -137.32376188070754 -11.016301088839642 51.747894484582481 0 1 0 -0.86602541151947299 0 0.49999998660252726 forward_v I I I I #
face $-1 $98 $99 $33 $-1 $100 forward single #
loop $-1 $101 $102 $42 #
cone-surface $-1 -47.411707332558436 -5.50815054441982 3.4871452706073445 0.86602541151947299 0 -0.49999998660252726 0.74999997990379086 0 1.2990381172792094 1 I I 0 1 1.5 forward I I I I #
face $-1 $103 $104 $34 $-1 $105 reversed single #
loop $-1 $-1 $106 $43 #
plane-surface $-1 -137.32376188070754 19.112330726368491 51.747894484582481 0 1 0 -0.86602541151947299 0 0.49999998660252726 forward_v I I I I #
face $-1 $107 $108 $35 $-1 $109 forward single #
loop $-1 $110 $111 $44 #
cone-surface $-1 -47.411707332558436 24.620481270788311 3.4871452706073445 0.86602541151947299 0 -0.49999998660252726 0.74999997990379086 0 1.2990381172792094 1 I I 0 1 1.5 forward I I I I #
face $-1 $112 $113 $27 $-1 $114 reversed single #
loop $-1 $-1 $115 $45 #
plane-surface $-1 0 0 -6.9589075645325993 0 0 1 1 0 0 forward_v I I I I #
coedge $-1 $116 $117 $118 $119 forward $46 $-1 #
face $-1 $120 $121 $28 $-1 $122 reversed single #
loop $-1 $-1 $123 $48 #
plane-surface $-1 1.3468207384903508e-006 -5.50815054441982 88.543687498176013 0.86602541151947299 0 0.49999998660252726 0.49999998660252726 0 -0.86602541151947299 forward_v I I I I #
coedge $-1 $124 $125 $126 $127 reversed $49 $-1 #
face $-1 $-1 $128 $29 $-1 $129 forward single #
loop $-1 $130 $131 $51 #
cone-surface $-1 45.490405892765274 -5.50815054441982 2.3778814067785943 -0.86602541151947299 0 -0.49999998660252726 0.37499998995189543 0 -0.64951905863960469 1 I I -0.70710678118654757 0.70710678118654757 0.75 forward I I I I #
loop $-1 $-1 $132 $38 #
coedge $-1 $84 $84 $133 $134 reversed $52 $-1 #
face $-1 $135 $136 $30 $-1 $137 reversed single #
loop $-1 $-1 $138 $54 #
plane-surface $-1 1.3468207384903508e-006 24.620481270788311 88.543687498176013 0.86602541151947299 0 0.49999998660252726 0.49999998660252726 0 -0.86602541151947299 forward_v I I I I #
coedge $-1 $139 $140 $141 $142 reversed $55 $-1 #
face $-1 $-1 $143 $31 $-1 $144 forward single #
loop $-1 $145 $146 $57 #
cone-surface $-1 45.490405892765274 24.620481270788311 2.3778814067785943 -0.86602541151947299 0 -0.49999998660252726 0.37499998995189543 0 -0.64951905863960469 1 I I -0.70710678118654757 0.70710678118654757 0.75 forward I I I I #
loop $-1 $-1 $147 $40 #
coedge $-1 $93 $93 $148 $149 reversed $58 $-1 #
face $-1 $150 $151 $32 $-1 $152 reversed single #
loop $-1 $-1 $153 $60 #
plane-surface $-1 -50.263985106967368 -5.50815054441982 1.4839107244358445 -0.86602541151947299 0 0.49999998660252726 0.49999998660252726 0 0.86602541151947299 forward_v I I I I #
coedge $-1 $154 $155 $156 $157 reversed $61 $-1 #
face $-1 $-1 $158 $33 $-1 $159 forward single #
loop $-1 $160 $161 $63 #
cone-surface $-1 -45.490405892765281 -5.50815054441982 2.3778814067785712 0.86602541151947299 0 -0.49999998660252726 0.37499998995189543 0 0.64951905863960469 1 I I -0.70710678118654757 0.70710678118654757 0.75 forward I I I I #
loop $-1 $-1 $162 $42 #
coedge $-1 $102 $102 $163 $164 reversed $64 $-1 #
face $-1 $165 $166 $34 $-1 $167 forward single #
loop $-1 $-1 $168 $66 #
plane-surface $-1 -50.263985106967368 24.620481270788311 1.4839107244358445 -0.86602541151947299 0 0.49999998660252726 0.49999998660252726 0 0.86602541151947299 forward_v I I I I #
coedge $-1 $169 $170 $171 $172 reversed $67 $-1 #
face $-1 $-1 $173 $35 $-1 $174 forward single #
loop $-1 $175 $176 $69 #
cone-surface $-1 -45.490405892765281 24.620481270788311 2.3778814067785712 0.86602541151947299 0 -0.49999998660252726 0.37499998995189543 0 0.64951905863960469 1 I I -0.70710678118654757 0.70710678118654757 0.75 forward I I I I #
loop $-1 $-1 $177 $44 #
coedge $-1 $111 $111 $178 $179 reversed $70 $-1 #
face $-1 $180 $181 $27 $-1 $182 reversed single #
loop $-1 $-1 $183 $72 #
plane-surface $-1 0 -30.128631815208131 0 0 1 0 0 0 1 forward_v I I I I #
coedge $-1 $184 $185 $186 $187 forward $73 $-1 #
coedge $-1 $188 $75 $189 $190 forward $46 $-1 #
coedge $-1 $75 $188 $191 $192 forward $46 $-1 #
coedge $-1 $193 $194 $75 $119 reversed $195 $-1 #
edge $-1 $196 -30.128631815208131 $197 30.128631815208131 $118 $198 forward 7 unknown #
face $-1 $199 $200 $28 $-1 $201 forward single #
loop $-1 $-1 $202 $76 #
plane-surface $-1 87.059778120560907 -11.016301088839642 138.80767125832264 0 1 0 0.86602541151947299 0 0.49999998660252726 forward_v I I I I #
coedge $-1 $203 $204 $205 $206 reversed $77 $-1 #
coedge $-1 $125 $79 $207 $208 reversed $49 $-1 #
coedge $-1 $79 $124 $203 $209 reversed $49 $-1 #
coedge $-1 $205 $210 $79 $127 forward $200 $-1 #
edge $-1 $211 -6.734096046686922 $212 -3.573105260176149 $126 $213 forward 7 unknown #
loop $-1 $-1 $133 $80 #
plane-surface $-1 1.3468207384903508e-006 -5.50815054441982 88.543687498176013 0.86602541151947299 0 0.49999998660252726 0.49999998660252726 0 -0.86602541151947299 forward_v I I I I #
loop $-1 $-1 $214 $51 #
coedge $-1 $131 $131 $132 $215 reversed $81 $-1 #
coedge $-1 $132 $132 $131 $215 forward $83 $-1 #
coedge $-1 $133 $133 $84 $134 forward $128 $-1 #
edge $-1 $216 0 $216 6.2831853071796004 $133 $217 forward 7 unknown #
face $-1 $218 $219 $30 $-1 $220 forward single #
loop $-1 $-1 $141 $85 #
plane-surface $-1 50.263985106967375 0 0 -1 0 0 0 0 1 forward_v I I I I #
coedge $-1 $221 $222 $223 $224 reversed $86 $-1 #
coedge $-1 $140 $88 $225 $226 reversed $55 $-1 #
coedge $-1 $88 $139 $221 $227 reversed $55 $-1 #
coedge $-1 $223 $228 $88 $142 forward $136 $-1 #
edge $-1 $229 62.444928064628719 $230 67.919924904725477 $141 $231 forward 7 unknown #
loop $-1 $-1 $148 $89 #
plane-surface $-1 1.3468207384903508e-006 24.620481270788311 88.543687498176013 0.86602541151947299 0 0.49999998660252726 0.49999998660252726 0 -0.86602541151947299 forward_v I I I I #
loop $-1 $-1 $232 $57 #
coedge $-1 $146 $146 $147 $233 reversed $90 $-1 #
coedge $-1 $147 $147 $146 $233 forward $92 $-1 #
coedge $-1 $148 $148 $93 $149 forward $143 $-1 #
edge $-1 $234 0 $234 6.2831853071796004 $148 $235 forward 7 unknown #
face $-1 $236 $237 $32 $-1 $238 reversed single #
loop $-1 $-1 $239 $94 #
plane-surface $-1 -137.32376188070754 1.7763568394002505e-015 51.747894484582481 0 -1 0 0.86602541151947299 0 -0.49999998660252726 forward_v I I I I #
coedge $-1 $240 $241 $242 $243 reversed $95 $-1 #
coedge $-1 $155 $97 $244 $245 reversed $61 $-1 #
coedge $-1 $97 $154 $240 $246 reversed $61 $-1 #
coedge $-1 $242 $247 $97 $157 forward $248 $-1 #
edge $-1 $249 18.397895833386393 $250 21.558886619897173 $156 $251 forward 7 unknown #
loop $-1 $-1 $163 $98 #
plane-surface $-1 -50.263985106967368 -5.50815054441982 1.4839107244358445 -0.86602541151947299 0 0.49999998660252726 0.49999998660252726 0 0.86602541151947299 forward_v I I I I #
loop $-1 $-1 $252 $63 #
coedge $-1 $161 $161 $162 $253 reversed $99 $-1 #
coedge $-1 $162 $162 $161 $253 forward $101 $-1 #
coedge $-1 $163 $163 $102 $164 forward $158 $-1 #
edge $-1 $254 0 $254 6.2831853071796004 $163 $255 forward 7 unknown #
face $-1 $256 $257 $34 $-1 $258 reversed single #
loop $-1 $-1 $171 $103 #
plane-surface $-1 0 0 6.9589075645325993 0 0 1 1 0 0 forward_v I I I I #
coedge $-1 $259 $260 $261 $262 reversed $104 $-1 #
coedge $-1 $170 $106 $263 $264 reversed $67 $-1 #
coedge $-1 $106 $169 $259 $265 reversed $67 $-1 #
coedge $-1 $261 $266 $106 $172 forward $166 $-1 #
edge $-1 $267 18.397895833386393 $268 21.558886619897173 $171 $269 forward 7 unknown #
loop $-1 $-1 $178 $107 #
plane-surface $-1 -50.263985106967368 24.620481270788311 1.4839107244358445 -0.86602541151947299 0 0.49999998660252726 0.49999998660252726 0 0.86602541151947299 forward_v I I I I #
loop $-1 $-1 $270 $69 #
coedge $-1 $176 $176 $177 $271 reversed $108 $-1 #
coedge $-1 $177 $177 $176 $271 forward $110 $-1 #
coedge $-1 $178 $178 $111 $179 forward $173 $-1 #
edge $-1 $272 0 $272 6.2831853071796004 $178 $273 forward 7 unknown #
face $-1 $274 $275 $27 $-1 $276 reversed single #
loop $-1 $-1 $277 $112 #
plane-surface $-1 -50.263985106967375 0 0 1 0 0 0 0 -1 forward_v I I I I #
coedge $-1 $278 $191 $279 $280 forward $113 $-1 #
coedge $-1 $281 $115 $278 $282 forward $73 $-1 #
coedge $-1 $115 $281 $283 $284 forward $73 $-1 #
coedge $-1 $194 $193 $115 $187 reversed $195 $-1 #
edge $-1 $285 -30.128631815208131 $286 30.128631815208131 $186 $287 forward 7 unknown #
coedge $-1 $117 $116 $288 $289 forward $46 $-1 #
coedge $-1 $290 $291 $116 $190 reversed $275 $-1 #
edge $-1 $197 -50.263985106967375 $292 50.263985106967375 $189 $293 forward 7 unknown #
coedge $-1 $183 $294 $117 $192 reversed $113 $-1 #
edge $-1 $295 -50.263985106967375 $196 50.263985106967375 $191 $296 forward 7 unknown #
coedge $-1 $186 $118 $294 $297 forward $195 $-1 #
coedge $-1 $118 $186 $290 $298 reversed $195 $-1 #
loop $-1 $-1 $193 $274 #
vertex $-1 $119 $299 #
vertex $-1 $119 $300 #
straight-curve $-1 50.263985106967375 0 6.9589075645325993 0 1 0 I I #
face $-1 $-1 $301 $28 $-1 $302 reversed single #
loop $-1 $-1 $126 $120 #
plane-surface $-1 0 0 6.9589075645325993 0 0 1 1 0 0 forward_v I I I I #
coedge $-1 $303 $304 $305 $306 reversed $121 $-1 #
coedge $-1 $307 $123 $125 $209 forward $77 $-1 #
coedge $-1 $123 $307 $303 $308 forward $77 $-1 #
coedge $-1 $305 $126 $123 $206 forward $200 $-1 #
edge $-1 $212 -2.7540752722099118 $309 8.2622258166297318 $205 $310 forward 7 unknown #
coedge $-1 $311 $312 $124 $208 forward $301 $-1 #
edge $-1 $313 -67.919924904725477 $211 -62.444928064628719 $207 $314 forward 7 unknown #
edge $-1 $212 94.205988471516051 $313 100.52797021393476 $125 $315 forward 7 unknown #
coedge $-1 $126 $305 $311 $316 forward $200 $-1 #
vertex $-1 $208 $317 #
vertex $-1 $127 $318 #
straight-curve $-1 43.529889060280453 1.7763568394002505e-015 6.9589075645325948 -1 0 0 I I #
coedge $-1 $214 $214 $-1 $319 reversed $130 $-1 #
edge $-1 $320 0 $320 6.2831853071796004 $131 $321 forward 7 unknown #
vertex $-1 $134 $322 #
ellipse-curve $-1 48.683489713711971 -5.50815054441982 4.2214091444842428 0.86602541151947299 0 0.49999998660252726 0.74999997990379086 0 -1.2990381172792094 1 I I #
face $-1 $-1 $323 $30 $-1 $324 reversed single #
loop $-1 $-1 $225 $135 #
plane-surface $-1 0 0 6.9589075645325993 0 0 1 1 0 0 forward_v I I I I #
coedge $-1 $325 $138 $140 $227 forward $86 $-1 #
coedge $-1 $138 $325 $326 $327 reversed $86 $-1 #
coedge $-1 $328 $141 $138 $224 forward $136 $-1 #
edge $-1 $230 6.8020900909743354 $329 17.818391179813975 $223 $330 forward 7 unknown #
coedge $-1 $331 $332 $139 $226 forward $219 $-1 #
edge $-1 $333 3.573105260176149 $229 6.734096046686922 $225 $334 forward 7 unknown #
edge $-1 $230 -100.52797021393476 $333 -94.205988471516051 $140 $335 forward 7 unknown #
coedge $-1 $141 $328 $331 $336 reversed $136 $-1 #
vertex $-1 $336 $337 #
vertex $-1 $142 $338 #
straight-curve $-1 50.263985106967375 19.112330726368491 69.403835629161321 0 0 -1 I I #
coedge $-1 $232 $232 $-1 $339 reversed $145 $-1 #
edge $-1 $340 0 $340 6.2831853071796004 $146 $341 forward 7 unknown #
vertex $-1 $149 $342 #
ellipse-curve $-1 48.683489713711971 24.620481270788311 4.2214091444842428 0.86602541151947299 0 0.49999998660252726 0.74999997990379086 0 -1.2990381172792094 1 I I #
face $-1 $-1 $248 $32 $-1 $343 forward single #
loop $-1 $-1 $344 $150 #
plane-surface $-1 -50.263985106967375 0 0 1 0 0 0 0 -1 forward_v I I I I #
coedge $-1 $345 $346 $347 $348 reversed $151 $-1 #
coedge $-1 $349 $153 $155 $246 forward $95 $-1 #
coedge $-1 $153 $349 $345 $350 forward $95 $-1 #
coedge $-1 $347 $156 $153 $243 forward $248 $-1 #
edge $-1 $250 -8.2622258166297318 $351 2.7540752722099118 $242 $352 forward 7 unknown #
coedge $-1 $353 $354 $154 $245 forward $237 $-1 #
edge $-1 $355 -24.390036517855407 $249 -18.915039677758642 $244 $356 forward 7 unknown #
edge $-1 $250 -6.3219817424187053 $355 1.4129008453179079e-014 $155 $357 forward 7 unknown #
coedge $-1 $156 $347 $353 $358 forward $248 $-1 #
loop $-1 $-1 $347 $236 #
vertex $-1 $245 $359 #
vertex $-1 $157 $360 #
straight-curve $-1 -68.661880940353768 -11.016301088839642 6.9589075645325984 1 0 0 I I #
coedge $-1 $252 $252 $-1 $361 reversed $160 $-1 #
edge $-1 $362 0 $362 6.2831853071796004 $161 $363 forward 7 unknown #
vertex $-1 $164 $364 #
ellipse-curve $-1 -48.683489713711978 -5.50815054441982 4.2214091444842197 -0.86602541151947299 0 0.49999998660252726 0.74999997990379086 0 1.2990381172792094 1 I I #
face $-1 $-1 $365 $34 $-1 $366 reversed single #
loop $-1 $-1 $367 $165 #
plane-surface $-1 0 30.128631815208131 0 0 -1 0 0 0 -1 forward_v I I I I #
coedge $-1 $368 $168 $170 $265 forward $104 $-1 #
coedge $-1 $168 $368 $367 $369 reversed $104 $-1 #
coedge $-1 $370 $171 $168 $262 forward $166 $-1 #
edge $-1 $268 6.8020900909743354 $371 17.818391179813975 $261 $372 forward 7 unknown #
coedge $-1 $373 $374 $169 $264 forward $365 $-1 #
edge $-1 $375 -24.390036517855407 $267 -18.915039677758642 $263 $376 forward 7 unknown #
edge $-1 $268 -6.3219817424187053 $375 1.4129008453179079e-014 $170 $377 forward 7 unknown #
coedge $-1 $171 $370 $373 $378 forward $166 $-1 #
vertex $-1 $264 $379 #
vertex $-1 $172 $380 #
straight-curve $-1 -68.661880940353768 19.112330726368491 6.9589075645325984 1 0 0 I I #
coedge $-1 $270 $270 $-1 $381 reversed $175 $-1 #
edge $-1 $382 0 $382 6.2831853071796004 $176 $383 forward 7 unknown #
vertex $-1 $179 $384 #
ellipse-curve $-1 -48.683489713711978 24.620481270788311 4.2214091444842197 -0.86602541151947299 0 0.49999998660252726 0.74999997990379086 0 1.2990381172792094 1 I I #
face $-1 $-1 $195 $27 $-1 $385 reversed single #
loop $-1 $-1 $290 $180 #
plane-surface $-1 0 30.128631815208131 0 0 -1 0 0 0 -1 forward_v I I I I #
coedge $-1 $386 $288 $291 $387 forward $181 $-1 #
coedge $-1 $294 $183 $184 $282 reversed $113 $-1 #
coedge $-1 $288 $386 $183 $280 reversed $181 $-1 #
edge $-1 $295 -6.9589075645325993 $388 6.9589075645325993 $279 $389 forward 7 unknown #
coedge $-1 $185 $184 $386 $390 forward $73 $-1 #
edge $-1 $286 -50.263985106967375 $388 50.263985106967375 $278 $391 forward 7 unknown #
coedge $-1 $291 $290 $185 $284 reversed $275 $-1 #
edge $-1 $392 -50.263985106967375 $285 50.263985106967375 $283 $393 forward 7 unknown #
vertex $-1 $187 $394 #
vertex $-1 $297 $395 #
straight-curve $-1 50.263985106967375 0 -6.9589075645325993 0 -1 0 I I #
coedge $-1 $277 $279 $188 $289 reversed $181 $-1 #
edge $-1 $292 -30.128631815208131 $295 30.128631815208131 $288 $396 forward 7 unknown #
coedge $-1 $283 $189 $194 $298 forward $275 $-1 #
coedge $-1 $189 $283 $277 $387 reversed $275 $-1 #
vertex $-1 $190 $397 #
straight-curve $-1 0 30.128631815208131 6.9589075645325993 -1 0 0 I I #
coedge $-1 $191 $278 $193 $297 reversed $113 $-1 #
vertex $-1 $289 $398 #
straight-curve $-1 0 -30.128631815208131 6.9589075645325993 1 0 0 I I #
edge $-1 $196 -6.9589075645325993 $286 6.9589075645325993 $193 $399 forward 7 unknown #
edge $-1 $197 -6.9589075645325993 $285 6.9589075645325993 $194 $400 forward 7 unknown #
point $-1 50.263985106967375 -30.128631815208131 6.9589075645325993 #
point $-1 50.263985106967375 30.128631815208131 6.9589075645325993 #
loop $-1 $-1 $207 $199 #
plane-surface $-1 50.263985106967375 0 0 -1 0 0 0 0 1 forward_v I I I I #
coedge $-1 $304 $202 $204 $308 reversed $121 $-1 #
coedge $-1 $202 $303 $401 $402 reversed $121 $-1 #
coedge $-1 $210 $205 $202 $306 forward $200 $-1 #
edge $-1 $309 3.573105260176149 $403 6.734096046686922 $305 $404 forward 7 unknown #
coedge $-1 $204 $203 $312 $405 reversed $77 $-1 #
edge $-1 $406 -100.52797021393476 $309 -94.205988471516051 $303 $407 forward 7 unknown #
vertex $-1 $206 $408 #
straight-curve $-1 47.102994320456602 -2.75407527220991 6.958907564532602 0 -1 0 I I #
coedge $-1 $401 $207 $210 $316 reversed $301 $-1 #
coedge $-1 $207 $401 $307 $405 forward $301 $-1 #
vertex $-1 $208 $409 #
straight-curve $-1 50.263985106967375 1.7763568394002505e-015 69.403835629161321 0 0 1 I I #
straight-curve $-1 1.3468207384903508e-006 1.7763568394002505e-015 88.543687498176013 0.49999998660252726 0 -0.86602541151947299 I I #
edge $-1 $403 -11.016301088839642 $211 1.7763568394002505e-015 $311 $410 forward 7 unknown #
point $-1 50.263985106967375 1.7763568394002505e-015 6.9589075645325993 #
point $-1 47.102994320456602 1.7763568394002505e-015 6.9589075645325948 #
edge $-1 $411 1 $411 0 $214 $-1 forward 7 unknown #
vertex $-1 $215 $412 #
ellipse-curve $-1 46.139924951404879 -5.50815054441982 2.7528813967304897 0.86602541151947299 0 0.49999998660252726 0.74999997990379086 0 -1.2990381172792094 1 I I #
point $-1 49.433489693615769 -5.50815054441982 2.9223710272050365 #
loop $-1 $-1 $326 $218 #
plane-surface $-1 0 30.128631815208131 0 0 -1 0 0 0 -1 forward_v I I I I #
coedge $-1 $222 $221 $332 $413 reversed $86 $-1 #
coedge $-1 $414 $415 $222 $327 forward $323 $-1 #
edge $-1 $329 -62.187428849110191 $416 -55.865447106691477 $326 $417 forward 7 unknown #
coedge $-1 $228 $223 $415 $418 reversed $136 $-1 #
vertex $-1 $224 $419 #
straight-curve $-1 50.263985106967375 12.310240635394155 1.4839107244358445 0 1 0 I I #
coedge $-1 $420 $225 $228 $336 forward $219 $-1 #
coedge $-1 $225 $420 $325 $413 forward $219 $-1 #
vertex $-1 $226 $421 #
straight-curve $-1 43.529889060280453 19.112330726368491 6.9589075645325948 1 0 0 I I #
straight-curve $-1 1.3468207384903508e-006 19.112330726368491 88.543687498176013 -0.49999998660252726 0 0.86602541151947299 I I #
edge $-1 $229 19.112330726368491 $422 30.128631815208131 $228 $423 forward 7 unknown #
point $-1 50.263985106967375 19.112330726368491 6.9589075645325993 #
point $-1 50.263985106967375 19.112330726368491 1.4839107244358445 #
edge $-1 $424 1 $424 0 $232 $-1 forward 7 unknown #
vertex $-1 $233 $425 #
ellipse-curve $-1 46.139924951404879 24.620481270788311 2.7528813967304897 0.86602541151947299 0 0.49999998660252726 0.74999997990379086 0 -1.2990381172792094 1 I I #
point $-1 49.433489693615769 24.620481270788311 2.9223710272050365 #
plane-surface $-1 0 0 6.9589075645325993 0 0 1 1 0 0 forward_v I I I I #
coedge $-1 $354 $353 $346 $426 forward $237 $-1 #
coedge $-1 $346 $239 $241 $350 reversed $151 $-1 #
coedge $-1 $239 $345 $344 $426 reversed $151 $-1 #
coedge $-1 $247 $242 $239 $348 forward $248 $-1 #
edge $-1 $351 -21.558886619897173 $427 -18.397895833386393 $347 $428 forward 7 unknown #
coedge $-1 $241 $240 $354 $429 reversed $95 $-1 #
edge $-1 $430 -1.4129008453179079e-014 $351 6.3219817424187053 $345 $431 forward 7 unknown #
vertex $-1 $243 $432 #
straight-curve $-1 -47.102994320456595 -2.75407527220991 6.9589075645325993 0 1 0 I I #
coedge $-1 $344 $244 $247 $358 reversed $237 $-1 #
coedge $-1 $244 $344 $349 $429 forward $237 $-1 #
vertex $-1 $245 $433 #
straight-curve $-1 -50.263985106967375 -11.016301088839642 25.873947242291241 0 0 1 I I #
straight-curve $-1 -50.263985106967368 -11.016301088839642 1.4839107244358445 -0.49999998660252726 0 -0.86602541151947299 I I #
edge $-1 $427 -1.7763568394002505e-015 $249 11.016301088839642 $353 $434 forward 7 unknown #
point $-1 -50.263985106967375 -11.016301088839642 6.9589075645325993 #
point $-1 -47.102994320456595 -11.016301088839642 6.9589075645325993 #
edge $-1 $435 1 $435 0 $252 $-1 forward 7 unknown #
vertex $-1 $253 $436 #
ellipse-curve $-1 -46.139924951404886 -5.50815054441982 2.7528813967304666 -0.86602541151947299 0 0.49999998660252726 0.74999997990379086 0 1.2990381172792094 1 I I #
point $-1 -47.933489733808194 -5.50815054441982 5.5204472617634321 #
loop $-1 $-1 $263 $256 #
plane-surface $-1 -50.263985106967375 0 0 1 0 0 0 0 -1 forward_v I I I I #
coedge $-1 $437 $438 $260 $369 forward $257 $-1 #
coedge $-1 $260 $259 $374 $439 reversed $104 $-1 #
edge $-1 $371 5.6014619997240942 $440 11.923443742142814 $367 $441 forward 7 unknown #
coedge $-1 $266 $261 $438 $442 forward $166 $-1 #
vertex $-1 $442 $443 #
straight-curve $-1 -47.102994320456595 12.310240635394155 6.9589075645325993 0 1 0 I I #
coedge $-1 $444 $263 $266 $378 reversed $365 $-1 #
coedge $-1 $263 $444 $368 $439 forward $365 $-1 #
vertex $-1 $264 $445 #
straight-curve $-1 -50.263985106967375 19.112330726368491 25.873947242291241 0 0 1 I I #
straight-curve $-1 -50.263985106967368 19.112330726368491 1.4839107244358445 -0.49999998660252726 0 -0.86602541151947299 I I #
edge $-1 $446 -30.128631815208131 $267 -19.112330726368491 $373 $447 forward 7 unknown #
point $-1 -50.263985106967375 19.112330726368491 6.9589075645325993 #
point $-1 -47.102994320456595 19.112330726368491 6.9589075645325993 #
edge $-1 $448 1 $448 0 $270 $-1 forward 7 unknown #
vertex $-1 $271 $449 #
ellipse-curve $-1 -46.139924951404886 24.620481270788311 2.7528813967304666 -0.86602541151947299 0 0.49999998660252726 0.74999997990379086 0 1.2990381172792094 1 I I #
point $-1 -47.933489733808194 24.620481270788311 5.5204472617634321 #
plane-surface $-1 50.263985106967375 0 0 -1 0 0 0 0 1 forward_v I I I I #
coedge $-1 $279 $277 $281 $390 reversed $181 $-1 #
edge $-1 $292 -6.9589075645325993 $392 6.9589075645325993 $291 $450 forward 7 unknown #
vertex $-1 $390 $451 #
straight-curve $-1 -50.263985106967375 -30.128631815208131 0 0 0 -1 I I #
edge $-1 $388 -30.128631815208131 $392 30.128631815208131 $386 $452 forward 7 unknown #
straight-curve $-1 0 -30.128631815208131 -6.9589075645325993 -1 0 0 I I #
vertex $-1 $284 $453 #
straight-curve $-1 0 30.128631815208131 -6.9589075645325993 1 0 0 I I #
point $-1 50.263985106967375 30.128631815208131 -6.9589075645325993 #
point $-1 50.263985106967375 -30.128631815208131 -6.9589075645325993 #
straight-curve $-1 -50.263985106967375 0 6.9589075645325993 0 -1 0 I I #
point $-1 -50.263985106967375 30.128631815208131 6.9589075645325993 #
point $-1 -50.263985106967375 -30.128631815208131 6.9589075645325993 #
straight-curve $-1 50.263985106967375 -30.128631815208131 0 0 0 -1 I I #
straight-curve $-1 50.263985106967375 30.128631815208131 0 0 0 -1 I I #
coedge $-1 $312 $311 $304 $402 forward $301 $-1 #
edge $-1 $403 62.444928064628719 $406 67.919924904725477 $401 $454 forward 7 unknown #
vertex $-1 $316 $455 #
straight-curve $-1 43.529889060280453 -11.016301088839642 6.9589075645325948 1 0 0 I I #
edge $-1 $406 -8.2622258166297318 $313 2.7540752722099118 $312 $456 forward 7 unknown #
vertex $-1 $405 $457 #
straight-curve $-1 1.3468207384903508e-006 -11.016301088839642 88.543687498176013 -0.49999998660252726 0 0.86602541151947299 I I #
point $-1 47.102994320456602 -11.016301088839642 6.9589075645325948 #
point $-1 50.263985106967375 1.7763568394002505e-015 1.4839107244358445 #
straight-curve $-1 50.263985106967375 0 6.9589075645325993 0 1 0 I I #
vertex $-1 $319 $458 #
point $-1 46.88992493130867 -5.50815054441982 1.4538432794512803 #
edge $-1 $416 -17.818391179813975 $333 -6.8020900909743354 $332 $459 forward 7 unknown #
coedge $-1 $415 $326 $420 $460 reversed $323 $-1 #
coedge $-1 $326 $414 $328 $418 forward $323 $-1 #
vertex $-1 $327 $461 #
straight-curve $-1 19.170271515566665 30.128631815208131 55.339804384824433 -0.49999998660252726 0 0.86602541151947299 I I #
edge $-1 $422 -6.9589075645325993 $329 -1.4839107244358336 $328 $462 forward 7 unknown #
point $-1 50.263985106967375 30.128631815208131 1.4839107244358336 #
coedge $-1 $332 $331 $414 $460 forward $219 $-1 #
point $-1 47.102994320456602 19.112330726368491 6.9589075645325948 #
vertex $-1 $336 $463 #
straight-curve $-1 50.263985106967375 0 6.9589075645325993 0 1 0 I I #
vertex $-1 $339 $464 #
point $-1 46.88992493130867 24.620481270788311 1.4538432794512803 #
edge $-1 $427 18.915039677758642 $430 24.390036517855407 $344 $465 forward 7 unknown #
vertex $-1 $358 $466 #
straight-curve $-1 -68.661880940353768 1.7763568394002505e-015 6.9589075645325984 -1 0 0 I I #
edge $-1 $430 -2.7540752722099118 $355 8.2622258166297318 $354 $467 forward 7 unknown #
vertex $-1 $429 $468 #
straight-curve $-1 -50.263985106967368 1.7763568394002505e-015 1.4839107244358445 0.49999998660252726 0 0.86602541151947299 I I #
point $-1 -47.102994320456595 1.7763568394002505e-015 6.9589075645325993 #
point $-1 -50.263985106967375 -11.016301088839642 1.4839107244358323 #
straight-curve $-1 -50.263985106967375 0 6.9589075645325993 0 -1 0 I I #
vertex $-1 $361 $469 #
point $-1 -45.389924971501095 -5.50815054441982 4.0519195140096755 #
coedge $-1 $438 $367 $444 $470 reversed $257 $-1 #
coedge $-1 $367 $437 $370 $442 reversed $257 $-1 #
edge $-1 $440 -17.818391179813975 $375 -6.8020900909743354 $374 $471 forward 7 unknown #
vertex $-1 $369 $472 #
straight-curve $-1 -44.302263395639983 30.128631815208131 11.809915997954349 -0.49999998660252726 0 -0.86602541151947299 I I #
edge $-1 $371 47.102994320456595 $446 50.263985106967375 $438 $473 forward 7 unknown #
point $-1 -47.102994320456595 30.128631815208131 6.9589075645325993 #
coedge $-1 $374 $373 $437 $470 forward $365 $-1 #
point $-1 -50.263985106967375 19.112330726368491 1.4839107244358323 #
vertex $-1 $442 $474 #
straight-curve $-1 -50.263985106967375 0 6.9589075645325993 0 -1 0 I I #
vertex $-1 $381 $475 #
point $-1 -45.389924971501095 24.620481270788311 4.0519195140096755 #
straight-curve $-1 -50.263985106967375 30.128631815208131 0 0 0 -1 I I #
point $-1 -50.263985106967375 -30.128631815208131 -6.9589075645325993 #
straight-curve $-1 -50.263985106967375 0 -6.9589075645325993 0 1 0 I I #
point $-1 -50.263985106967375 30.128631815208131 -6.9589075645325993 #
straight-curve $-1 50.263985106967375 -11.016301088839642 69.403835629161321 0 0 -1 I I #
point $-1 50.263985106967375 -11.016301088839642 6.9589075645325993 #
straight-curve $-1 50.263985106967375 -2.75407527220991 1.4839107244358445 0 1 0 I I #
point $-1 50.263985106967375 -11.016301088839642 1.4839107244358445 #
point $-1 44.840886834125669 -5.50815054441982 2.0028814168266988 #
straight-curve $-1 47.102994320456602 12.310240635394155 6.958907564532602 0 -1 0 I I #
edge $-1 $422 -50.263985106967375 $416 -47.102994320456602 $414 $476 forward 7 unknown #
point $-1 47.102994320456602 30.128631815208131 6.9589075645325948 #
straight-curve $-1 50.263985106967375 30.128631815208131 0 0 0 -1 I I #
point $-1 50.263985106967375 30.128631815208131 6.9589075645325993 #
point $-1 44.840886834125669 24.620481270788311 2.0028814168266988 #
straight-curve $-1 -50.263985106967375 1.7763568394002505e-015 25.873947242291241 0 0 -1 I I #
point $-1 -50.263985106967375 1.7763568394002505e-015 6.9589075645325993 #
straight-curve $-1 -50.263985106967375 -2.75407527220991 1.4839107244358285 0 -1 0 I I #
point $-1 -50.263985106967375 1.7763568394002505e-015 1.4839107244358323 #
point $-1 -44.840886834125676 -5.50815054441982 2.0028814168266758 #
edge $-1 $446 -6.9589075645325993 $440 -1.4839107244358323 $437 $477 forward 7 unknown #
straight-curve $-1 -50.263985106967375 12.310240635394155 1.4839107244358285 0 -1 0 I I #
point $-1 -50.263985106967375 30.128631815208131 1.4839107244358323 #
straight-curve $-1 0 30.128631815208131 6.9589075645325993 -1 0 0 I I #
point $-1 -50.263985106967375 30.128631815208131 6.9589075645325993 #
point $-1 -44.840886834125676 24.620481270788311 2.0028814168266758 #
straight-curve $-1 0 30.128631815208131 6.9589075645325993 -1 0 0 I I #
straight-curve $-1 -50.263985106967375 30.128631815208131 0 0 0 -1 I I #
End-of-ACIS-data 