500 0 10 0           
7 Unknown 11 ACIS 5.0 NT 24 Fri Mar 26 02:28:17 1999 
-1 9.9999999999999995e-007 1e-010 
body $-1 $10 $-1 $11 #
body $-1 $12 $-1 $13 #
body $-1 $14 $-1 $15 #
body $-1 $16 $-1 $17 #
body $-1 $18 $-1 $19 #
body $-1 $20 $-1 $21 #
body $-1 $22 $-1 $23 #
body $-1 $24 $-1 $25 #
body $-1 $26 $-1 $27 #
body $-1 $28 $-1 $29 #
lump $-1 $-1 $30 $0 #
transform $-1 1 0 0 0 1 0 0 0 1 58.519852290414136 40.781195077690676 11.459482213136292 1 rotate no_reflect no_shear #
lump $-1 $-1 $31 $1 #
transform $-1 1 0 0 0 1 0 0 0 1 58.519852290414136 40.781195077690676 11.459482213136292 1 rotate no_reflect no_shear #
lump $-1 $-1 $32 $2 #
transform $-1 1 0 0 0 1 0 0 0 1 58.519852290414136 40.781195077690676 11.459482213136292 1 rotate no_reflect no_shear #
lump $-1 $-1 $33 $3 #
transform $-1 1 0 0 0 1 0 0 0 1 58.519852290414136 40.781195077690676 11.459482213136292 1 rotate no_reflect no_shear #
lump $-1 $-1 $34 $4 #
transform $-1 1 0 0 0 1 0 0 0 1 58.519852290414136 40.781195077690676 11.459482213136292 1 rotate no_reflect no_shear #
lump $-1 $-1 $35 $5 #
transform $-1 1 0 0 0 1 0 0 0 1 58.519852290414136 40.781195077690676 11.459482213136292 1 rotate no_reflect no_shear #
lump $-1 $-1 $36 $6 #
transform $-1 1 0 0 0 1 0 0 0 1 58.519852290414136 40.781195077690676 11.459482213136292 1 rotate no_reflect no_shear #
lump $-1 $-1 $37 $7 #
transform $-1 1 0 0 0 1 0 0 0 1 58.519852290414136 40.781195077690676 11.459482213136292 1 rotate no_reflect no_shear #
lump $-1 $-1 $38 $8 #
transform $-1 1 0 0 0 1 0 0 0 1 58.519852290414136 40.781195077690676 11.459482213136292 1 rotate no_reflect no_shear #
lump $-1 $-1 $39 $9 #
transform $-1 1 0 0 0 1 0 0 0 1 58.519852290414136 40.781195077690676 11.459482213136292 1 rotate no_reflect no_shear #
shell $-1 $-1 $-1 $40 $-1 $10 #
shell $-1 $-1 $-1 $41 $-1 $12 #
shell $-1 $-1 $-1 $42 $-1 $14 #
shell $-1 $-1 $-1 $43 $-1 $16 #
shell $-1 $-1 $-1 $44 $-1 $18 #
shell $-1 $-1 $-1 $45 $-1 $20 #
shell $-1 $-1 $-1 $46 $-1 $22 #
shell $-1 $-1 $-1 $47 $-1 $24 #
shell $-1 $-1 $-1 $48 $-1 $26 #
shell $-1 $-1 $-1 $49 $-1 $28 #
face $-1 $50 $51 $30 $-1 $52 reversed single #
face $-1 $53 $54 $31 $-1 $55 forward single #
face $-1 $56 $57 $32 $-1 $58 reversed single #
face $-1 $59 $60 $33 $-1 $61 forward single #
face $-1 $62 $63 $34 $-1 $64 reversed single #
face $-1 $65 $66 $35 $-1 $67 forward single #
face $-1 $68 $69 $36 $-1 $70 reversed single #
face $-1 $71 $72 $37 $-1 $73 forward single #
face $-1 $74 $75 $38 $-1 $76 reversed single #
face $-1 $77 $78 $39 $-1 $79 forward single #
face $-1 $80 $81 $30 $-1 $82 forward single #
loop $-1 $-1 $83 $40 #
plane-surface $-1 -58.519852290414136 0 0 1 0 0 0 0 -1 forward_v I I I I #
face $-1 $84 $85 $31 $-1 $86 reversed single #
loop $-1 $-1 $87 $41 #
plane-surface $-1 -58.519852290414136 0 0 1 0 0 0 0 -1 forward_v I I I I #
face $-1 $88 $89 $32 $-1 $90 reversed single #
loop $-1 $-1 $91 $42 #
plane-surface $-1 -22.909907710467643 73.182756050962581 146.90163742230683 1 0 0 0 -0.74314483375859142 -0.66913059716165679 forward_v I I I I #
face $-1 $92 $93 $33 $-1 $94 forward single #
loop $-1 $95 $96 $43 #
cone-surface $-1 -14.172856985205726 38.237986569524594 8.8397253715444073 0 -0.74314483375859142 -0.66913059716165679 1 0 0 1 I I 0 1 1 forward I I I I #
face $-1 $97 $98 $34 $-1 $99 reversed single #
loop $-1 $-1 $100 $44 #
plane-surface $-1 19.048147721315011 73.182756050962581 146.90163742230683 1 0 0 0 -0.74314483375859142 -0.66913059716165679 forward_v I I I I #
face $-1 $101 $102 $35 $-1 $103 forward single #
loop $-1 $104 $105 $45 #
cone-surface $-1 27.785198446576928 38.237986569524594 8.8397253715444073 0 -0.74314483375859142 -0.66913059716165679 1 0 0 1 I I 0 1 1 forward I I I I #
face $-1 $106 $107 $36 $-1 $108 reversed single #
loop $-1 $-1 $109 $46 #
plane-surface $-1 -5.4358062599438099 -127.75864688156494 86.28896854933258 -1 0 0 0 -0.74314483375859142 0.66913059716165679 forward_v I I I I #
face $-1 $110 $111 $37 $-1 $112 forward single #
loop $-1 $113 $114 $47 #
cone-surface $-1 -14.172856985205726 -38.237986569524601 8.8397253715444108 0 0.74314483375859142 -0.66913059716165679 1 0 0 1 I I 0 1 1 forward I I I I #
face $-1 $115 $116 $38 $-1 $117 reversed single #
loop $-1 $-1 $118 $48 #
plane-surface $-1 36.522249171838844 -127.75864688156494 86.28896854933258 -1 0 0 0 -0.74314483375859142 0.66913059716165679 forward_v I I I I #
face $-1 $119 $120 $39 $-1 $121 forward single #
loop $-1 $122 $123 $49 #
cone-surface $-1 27.785198446576928 -38.237986569524601 8.8397253715444108 0 0.74314483375859142 -0.66913059716165679 1 0 0 1 I I 0 1 1 forward I I I I #
face $-1 $124 $125 $30 $-1 $126 reversed single #
loop $-1 $-1 $127 $50 #
plane-surface $-1 0 0 11.459482213136292 0 0 1 1 0 0 forward_v I I I I #
coedge $-1 $128 $129 $130 $131 reversed $51 $-1 #
face $-1 $132 $133 $31 $-1 $134 reversed single #
loop $-1 $-1 $135 $53 #
plane-surface $-1 0 0 -11.459482213136292 0 0 1 1 0 0 forward_v I I I I #
coedge $-1 $136 $137 $138 $139 forward $54 $-1 #
face $-1 $140 $141 $32 $-1 $142 reversed single #
loop $-1 $-1 $143 $56 #
plane-surface $-1 -14.172856985205726 -13.794695752911693 68.586790004513318 0 0.74314483375859142 0.66913059716165679 1 0 0 forward_v I I I I #
coedge $-1 $144 $145 $146 $147 reversed $57 $-1 #
face $-1 $-1 $148 $33 $-1 $149 forward single #
loop $-1 $150 $151 $59 #
cone-surface $-1 -14.172856985205726 36.892322212280554 7.6280837721703048 0 -0.74314483375859142 -0.66913059716165679 0.5 0 0 1 I I -0.70710678118654746 0.70710678118654746 0.5 forward I I I I #
loop $-1 $-1 $152 $43 #
coedge $-1 $96 $96 $153 $154 reversed $60 $-1 #
face $-1 $155 $156 $34 $-1 $157 reversed single #
loop $-1 $-1 $158 $62 #
plane-surface $-1 27.785198446576928 -13.794695752911693 68.586790004513318 0 0.74314483375859142 0.66913059716165679 1 0 0 forward_v I I I I #
coedge $-1 $159 $160 $161 $162 reversed $63 $-1 #
face $-1 $-1 $163 $35 $-1 $164 forward single #
loop $-1 $165 $166 $65 #
cone-surface $-1 27.785198446576928 36.892322212280554 7.6280837721703048 0 -0.74314483375859142 -0.66913059716165679 0.5 0 0 1 I I -0.70710678118654746 0.70710678118654746 0.5 forward I I I I #
loop $-1 $-1 $167 $45 #
coedge $-1 $105 $105 $168 $169 reversed $66 $-1 #
face $-1 $170 $171 $36 $-1 $172 reversed single #
loop $-1 $-1 $173 $68 #
plane-surface $-1 -14.172856985205726 -40.781195077690668 7.9741211315390643 0 -0.74314483375859142 0.66913059716165679 1 0 0 forward_v I I I I #
coedge $-1 $174 $175 $176 $177 reversed $69 $-1 #
face $-1 $-1 $178 $37 $-1 $179 forward single #
loop $-1 $180 $181 $71 #
cone-surface $-1 -14.172856985205726 -36.892322212280561 7.6280837721703083 0 0.74314483375859142 -0.66913059716165679 0.5 0 0 1 I I -0.70710678118654746 0.70710678118654746 0.5 forward I I I I #
loop $-1 $-1 $182 $47 #
coedge $-1 $114 $114 $183 $184 reversed $72 $-1 #
face $-1 $185 $186 $38 $-1 $187 reversed single #
loop $-1 $-1 $188 $74 #
plane-surface $-1 27.785198446576928 -40.781195077690668 7.9741211315390643 0 -0.74314483375859142 0.66913059716165679 1 0 0 forward_v I I I I #
coedge $-1 $189 $190 $191 $192 reversed $75 $-1 #
face $-1 $-1 $193 $39 $-1 $194 forward single #
loop $-1 $195 $196 $77 #
cone-surface $-1 27.785198446576928 -36.892322212280561 7.6280837721703083 0 0.74314483375859142 -0.66913059716165679 0.5 0 0 1 I I -0.70710678118654746 0.70710678118654746 0.5 forward I I I I #
loop $-1 $-1 $197 $49 #
coedge $-1 $123 $123 $198 $199 reversed $78 $-1 #
face $-1 $200 $201 $30 $-1 $202 reversed single #
loop $-1 $-1 $203 $80 #
plane-surface $-1 0 0 -11.459482213136292 0 0 1 1 0 0 forward_v I I I I #
coedge $-1 $204 $205 $206 $207 forward $81 $-1 #
coedge $-1 $208 $83 $209 $210 reversed $51 $-1 #
coedge $-1 $83 $208 $211 $212 forward $51 $-1 #
coedge $-1 $213 $214 $83 $131 forward $125 $-1 #
edge $-1 $215 -40.781195077690676 $216 40.781195077690676 $83 $217 forward 7 unknown #
face $-1 $218 $219 $31 $-1 $220 reversed single #
loop $-1 $-1 $221 $84 #
plane-surface $-1 -65.326023021099729 -33.555696904418532 0 0 1 0 0 0 1 forward_v I I I I #
coedge $-1 $222 $223 $137 $224 forward $85 $-1 #
coedge $-1 $225 $87 $226 $227 reversed $54 $-1 #
coedge $-1 $87 $225 $135 $224 reversed $54 $-1 #
coedge $-1 $228 $229 $87 $139 reversed $230 $-1 #
edge $-1 $231 -11.459482213136292 $232 11.459482213136292 $138 $233 forward 7 unknown #
face $-1 $234 $235 $32 $-1 $236 forward single #
loop $-1 $-1 $237 $88 #
plane-surface $-1 -5.4358062599438099 73.182756050962581 146.90163742230683 -1 0 0 0 0.74314483375859142 0.66913059716165679 forward_v I I I I #
coedge $-1 $238 $239 $240 $241 reversed $89 $-1 #
coedge $-1 $145 $91 $242 $243 reversed $57 $-1 #
coedge $-1 $91 $144 $238 $244 reversed $57 $-1 #
coedge $-1 $240 $245 $91 $147 forward $235 $-1 #
edge $-1 $246 -4.1898170522093849 $247 -1.0515839166067096 $146 $248 forward 7 unknown #
loop $-1 $-1 $153 $92 #
plane-surface $-1 -14.172856985205726 -13.794695752911693 68.586790004513318 0 0.74314483375859142 0.66913059716165679 1 0 0 forward_v I I I I #
loop $-1 $-1 $249 $59 #
coedge $-1 $151 $151 $152 $250 reversed $93 $-1 #
coedge $-1 $152 $152 $151 $250 forward $95 $-1 #
coedge $-1 $153 $153 $96 $154 forward $148 $-1 #
edge $-1 $251 0 $251 6.2831853071796004 $153 $252 forward 7 unknown #
face $-1 $253 $254 $34 $-1 $255 forward single #
loop $-1 $-1 $256 $97 #
plane-surface $-1 36.522249171838844 73.182756050962581 146.90163742230683 -1 0 0 0 0.74314483375859142 0.66913059716165679 forward_v I I I I #
coedge $-1 $257 $258 $259 $260 reversed $98 $-1 #
coedge $-1 $160 $100 $261 $262 reversed $63 $-1 #
coedge $-1 $100 $159 $257 $263 reversed $63 $-1 #
coedge $-1 $259 $264 $100 $162 forward $254 $-1 #
edge $-1 $265 -4.1898170522093849 $266 -1.0515839166067096 $161 $267 forward 7 unknown #
loop $-1 $-1 $168 $101 #
plane-surface $-1 27.785198446576928 -13.794695752911693 68.586790004513318 0 0.74314483375859142 0.66913059716165679 1 0 0 forward_v I I I I #
loop $-1 $-1 $268 $65 #
coedge $-1 $166 $166 $167 $269 reversed $102 $-1 #
coedge $-1 $167 $167 $166 $269 forward $104 $-1 #
coedge $-1 $168 $168 $105 $169 forward $163 $-1 #
edge $-1 $270 0 $270 6.2831853071796004 $168 $271 forward 7 unknown #
face $-1 $272 $273 $36 $-1 $274 forward single #
loop $-1 $-1 $275 $106 #
plane-surface $-1 -22.909907710467643 -127.75864688156494 86.28896854933258 1 0 0 0 0.74314483375859142 -0.66913059716165679 forward_v I I I I #
coedge $-1 $276 $277 $278 $279 reversed $107 $-1 #
coedge $-1 $175 $109 $280 $281 reversed $69 $-1 #
coedge $-1 $109 $174 $276 $282 reversed $69 $-1 #
coedge $-1 $278 $283 $109 $177 forward $273 $-1 #
edge $-1 $284 23.098128363091796 $285 26.236361498694478 $176 $286 forward 7 unknown #
loop $-1 $-1 $183 $110 #
plane-surface $-1 -14.172856985205726 -40.781195077690668 7.9741211315390643 0 -0.74314483375859142 0.66913059716165679 1 0 0 forward_v I I I I #
loop $-1 $-1 $287 $71 #
coedge $-1 $181 $181 $182 $288 reversed $111 $-1 #
coedge $-1 $182 $182 $181 $288 forward $113 $-1 #
coedge $-1 $183 $183 $114 $184 forward $178 $-1 #
edge $-1 $289 5.2590278156781236e-016 $289 6.2831853071796013 $183 $290 forward 7 unknown #
face $-1 $291 $292 $38 $-1 $293 reversed single #
loop $-1 $-1 $294 $115 #
plane-surface $-1 19.048147721315011 -127.75864688156494 86.28896854933258 1 0 0 0 0.74314483375859142 -0.66913059716165679 forward_v I I I I #
coedge $-1 $295 $296 $297 $298 reversed $116 $-1 #
coedge $-1 $190 $118 $299 $300 reversed $75 $-1 #
coedge $-1 $118 $189 $295 $301 reversed $75 $-1 #
coedge $-1 $297 $302 $118 $192 forward $303 $-1 #
edge $-1 $304 23.098128363091796 $305 26.236361498694478 $191 $306 forward 7 unknown #
loop $-1 $-1 $198 $119 #
plane-surface $-1 27.785198446576928 -40.781195077690668 7.9741211315390643 0 -0.74314483375859142 0.66913059716165679 1 0 0 forward_v I I I I #
loop $-1 $-1 $307 $77 #
coedge $-1 $196 $196 $197 $308 reversed $120 $-1 #
coedge $-1 $197 $197 $196 $308 forward $122 $-1 #
coedge $-1 $198 $198 $123 $199 forward $193 $-1 #
edge $-1 $309 5.2590278156781236e-016 $309 6.2831853071796013 $198 $310 forward 7 unknown #
face $-1 $311 $312 $30 $-1 $313 reversed single #
loop $-1 $-1 $209 $124 #
plane-surface $-1 0 -40.781195077690676 0 0 1 0 0 0 1 forward_v I I I I #
coedge $-1 $214 $213 $314 $315 forward $125 $-1 #
coedge $-1 $316 $127 $317 $318 forward $81 $-1 #
coedge $-1 $127 $316 $319 $320 forward $81 $-1 #
coedge $-1 $321 $322 $127 $207 reversed $323 $-1 #
edge $-1 $324 -40.781195077690676 $325 40.781195077690676 $206 $326 forward 7 unknown #
coedge $-1 $129 $128 $316 $327 reversed $51 $-1 #
coedge $-1 $328 $319 $128 $210 forward $201 $-1 #
edge $-1 $329 -11.459482213136292 $215 11.459482213136292 $128 $330 forward 7 unknown #
coedge $-1 $317 $331 $129 $212 reversed $312 $-1 #
edge $-1 $332 -11.459482213136292 $216 11.459482213136292 $211 $333 forward 7 unknown #
coedge $-1 $203 $130 $331 $334 forward $125 $-1 #
coedge $-1 $130 $203 $328 $335 forward $125 $-1 #
vertex $-1 $131 $336 #
vertex $-1 $334 $337 #
straight-curve $-1 -58.519852290414136 0 -11.459482213136292 0 1 0 I I #
face $-1 $338 $230 $31 $-1 $339 reversed single #
loop $-1 $-1 $340 $132 #
plane-surface $-1 -72.132193751785323 -30.732601159641774 0 1 0 0 0 0 -1 forward_v I I I I #
coedge $-1 $341 $342 $343 $344 forward $133 $-1 #
coedge $-1 $345 $135 $341 $346 forward $85 $-1 #
coedge $-1 $135 $345 $228 $347 forward $85 $-1 #
edge $-1 $231 27.909505414865016 $348 33.555696904418532 $135 $349 forward 7 unknown #
coedge $-1 $137 $136 $350 $351 forward $54 $-1 #
coedge $-1 $352 $353 $136 $227 forward $354 $-1 #
edge $-1 $355 -33.555696904418532 $232 -27.909505414865016 $226 $356 forward 7 unknown #
coedge $-1 $357 $138 $223 $347 reversed $230 $-1 #
coedge $-1 $138 $357 $352 $358 reversed $230 $-1 #
loop $-1 $-1 $138 $218 #
vertex $-1 $224 $359 #
vertex $-1 $358 $360 #
straight-curve $-1 -58.519852290414136 -27.909505414865016 0 0 0 1 I I #
face $-1 $-1 $361 $32 $-1 $362 reversed single #
loop $-1 $-1 $146 $140 #
plane-surface $-1 0 0 11.459482213136292 0 0 1 1 0 0 forward_v I I I I #
coedge $-1 $363 $364 $365 $366 reversed $141 $-1 #
coedge $-1 $367 $143 $145 $244 forward $89 $-1 #
coedge $-1 $143 $367 $363 $368 forward $89 $-1 #
coedge $-1 $365 $146 $143 $241 forward $235 $-1 #
edge $-1 $247 -15.823479217864779 $369 1.6506222326590532 $240 $370 forward 7 unknown #
coedge $-1 $371 $372 $144 $243 forward $361 $-1 #
edge $-1 $373 -65.476697579614353 $246 -61.991336498017127 $242 $374 forward 7 unknown #
edge $-1 $247 76.872374261750807 $373 81.562390155381365 $145 $375 forward 7 unknown #
coedge $-1 $146 $365 $371 $376 forward $235 $-1 #
vertex $-1 $243 $377 #
vertex $-1 $147 $378 #
straight-curve $-1 -22.909907710467643 36.591378025481291 11.459482213136297 0 -1 0 I I #
coedge $-1 $249 $249 $-1 $379 reversed $150 $-1 #
edge $-1 $380 0 $380 6.2831853071796004 $151 $381 forward 7 unknown #
vertex $-1 $154 $382 #
ellipse-curve $-1 -14.172856985205726 39.212078509889338 9.7168016723376791 0 0.74314483375859142 0.66913059716165679 1 0 0 1 I I #
face $-1 $-1 $383 $34 $-1 $384 reversed single #
loop $-1 $-1 $161 $155 #
plane-surface $-1 0 0 11.459482213136292 0 0 1 1 0 0 forward_v I I I I #
coedge $-1 $385 $386 $387 $388 reversed $156 $-1 #
coedge $-1 $389 $158 $160 $263 forward $98 $-1 #
coedge $-1 $158 $389 $385 $390 forward $98 $-1 #
coedge $-1 $387 $161 $158 $260 forward $254 $-1 #
edge $-1 $266 5.1555484980265476 $391 22.62964994855038 $259 $392 forward 7 unknown #
coedge $-1 $393 $394 $159 $262 forward $383 $-1 #
edge $-1 $395 -65.476697579614353 $265 -61.991336498017127 $261 $396 forward 7 unknown #
edge $-1 $266 76.872374261750807 $395 81.562390155381365 $160 $397 forward 7 unknown #
coedge $-1 $161 $387 $393 $398 forward $254 $-1 #
vertex $-1 $162 $399 #
vertex $-1 $162 $400 #
straight-curve $-1 19.048147721315011 36.591378025481291 11.459482213136297 0 -1 0 I I #
coedge $-1 $268 $268 $-1 $401 reversed $165 $-1 #
edge $-1 $402 0 $402 6.2831853071796004 $166 $403 forward 7 unknown #
vertex $-1 $169 $404 #
ellipse-curve $-1 27.785198446576928 39.212078509889338 9.7168016723376791 0 0.74314483375859142 0.66913059716165679 1 0 0 1 I I #
face $-1 $-1 $405 $36 $-1 $406 reversed single #
loop $-1 $-1 $176 $170 #
plane-surface $-1 0 0 11.459482213136292 0 0 1 1 0 0 forward_v I I I I #
coedge $-1 $407 $408 $409 $410 reversed $171 $-1 #
coedge $-1 $411 $173 $175 $282 forward $107 $-1 #
coedge $-1 $173 $411 $407 $412 forward $107 $-1 #
coedge $-1 $409 $176 $173 $279 forward $273 $-1 #
edge $-1 $285 -1.6506222326590532 $413 15.823479217864779 $278 $414 forward 7 unknown #
coedge $-1 $415 $416 $174 $281 forward $405 $-1 #
edge $-1 $417 -35.170363143127233 $284 -31.68500206153 $280 $418 forward 7 unknown #
edge $-1 $285 -4.6900158936305534 $417 1.0694865687384493e-014 $175 $419 forward 7 unknown #
coedge $-1 $176 $409 $415 $420 forward $273 $-1 #
vertex $-1 $177 $421 #
vertex $-1 $177 $422 #
straight-curve $-1 -5.4358062599438099 -63.879323440782471 11.45948221313629 0 1 0 I I #
coedge $-1 $287 $287 $-1 $423 reversed $180 $-1 #
edge $-1 $424 0 $424 6.2831853071796004 $181 $425 forward 7 unknown #
vertex $-1 $184 $426 #
ellipse-curve $-1 -14.172856985205726 -39.212078509889338 9.7168016723376756 0 -0.74314483375859142 0.66913059716165679 1 0 0 1 I I #
face $-1 $-1 $303 $38 $-1 $427 forward single #
loop $-1 $-1 $428 $185 #
plane-surface $-1 0 -40.781195077690676 0 0 1 0 0 0 1 forward_v I I I I #
coedge $-1 $429 $430 $431 $432 reversed $186 $-1 #
coedge $-1 $433 $188 $190 $301 forward $116 $-1 #
coedge $-1 $188 $433 $429 $434 forward $116 $-1 #
coedge $-1 $431 $191 $188 $298 forward $303 $-1 #
edge $-1 $305 -22.62964994855038 $435 -5.1555484980265476 $297 $436 forward 7 unknown #
coedge $-1 $437 $438 $189 $300 forward $292 $-1 #
edge $-1 $439 -35.170363143127233 $304 -31.68500206153 $299 $440 forward 7 unknown #
edge $-1 $305 -4.6900158936305534 $439 1.0694865687384493e-014 $190 $441 forward 7 unknown #
coedge $-1 $191 $431 $437 $442 forward $303 $-1 #
loop $-1 $-1 $431 $291 #
vertex $-1 $300 $443 #
vertex $-1 $192 $444 #
straight-curve $-1 36.522249171838844 -63.879323440782471 11.45948221313629 0 1 0 I I #
coedge $-1 $307 $307 $-1 $445 reversed $195 $-1 #
edge $-1 $446 0 $446 6.2831853071796004 $196 $447 forward 7 unknown #
vertex $-1 $199 $448 #
ellipse-curve $-1 27.785198446576928 -39.212078509889338 9.7168016723376756 0 -0.74314483375859142 0.66913059716165679 1 0 0 1 I I #
face $-1 $-1 $323 $30 $-1 $449 reversed single #
loop $-1 $-1 $450 $200 #
plane-surface $-1 0 40.781195077690676 0 0 -1 0 0 0 -1 forward_v I I I I #
coedge $-1 $322 $321 $203 $315 reversed $323 $-1 #
edge $-1 $451 -40.781195077690676 $452 40.781195077690676 $314 $453 forward 7 unknown #
coedge $-1 $205 $204 $208 $327 forward $81 $-1 #
coedge $-1 $450 $211 $204 $318 reversed $312 $-1 #
edge $-1 $325 -58.519852290414136 $332 58.519852290414136 $317 $454 forward 7 unknown #
coedge $-1 $209 $455 $205 $320 reversed $201 $-1 #
edge $-1 $329 -58.519852290414136 $324 58.519852290414136 $319 $456 forward 7 unknown #
coedge $-1 $314 $206 $455 $457 forward $323 $-1 #
coedge $-1 $206 $314 $450 $458 reversed $323 $-1 #
loop $-1 $-1 $321 $311 #
vertex $-1 $207 $459 #
vertex $-1 $207 $460 #
straight-curve $-1 58.519852290414136 0 11.459482213136292 0 1 0 I I #
edge $-1 $332 -40.781195077690676 $329 40.781195077690676 $208 $461 forward 7 unknown #
coedge $-1 $455 $209 $214 $335 reversed $201 $-1 #
vertex $-1 $327 $462 #
straight-curve $-1 -58.519852290414136 -40.781195077690676 0 0 0 -1 I I #
coedge $-1 $211 $450 $213 $334 reversed $312 $-1 #
vertex $-1 $318 $463 #
straight-curve $-1 -58.519852290414136 40.781195077690676 0 0 0 -1 I I #
edge $-1 $216 -58.519852290414136 $451 58.519852290414136 $331 $464 forward 7 unknown #
edge $-1 $452 -58.519852290414136 $215 58.519852290414136 $328 $465 forward 7 unknown #
point $-1 -58.519852290414136 -40.781195077690676 -11.459482213136292 #
point $-1 -58.519852290414136 40.781195077690676 -11.459482213136292 #
face $-1 $-1 $354 $31 $-1 $466 forward single #
plane-surface $-1 -65.326023021099729 -27.909505414865016 0 0 -1 0 0 0 -1 forward_v I I I I #
coedge $-1 $467 $468 $357 $469 forward $219 $-1 #
coedge $-1 $350 $221 $222 $346 reversed $133 $-1 #
coedge $-1 $221 $350 $353 $470 reversed $133 $-1 #
coedge $-1 $468 $467 $221 $344 reversed $219 $-1 #
edge $-1 $471 -11.459482213136292 $472 11.459482213136292 $343 $473 forward 7 unknown #
coedge $-1 $223 $222 $467 $474 forward $85 $-1 #
edge $-1 $348 -6.8061707306855936 $472 6.8061707306855936 $341 $475 forward 7 unknown #
edge $-1 $476 -6.8061707306855936 $231 6.8061707306855936 $228 $477 forward 7 unknown #
vertex $-1 $346 $478 #
straight-curve $-1 -58.519852290414136 0 -11.459482213136292 0 -1 0 I I #
coedge $-1 $342 $341 $225 $351 reversed $133 $-1 #
edge $-1 $355 -11.459482213136292 $348 11.459482213136292 $350 $479 forward 7 unknown #
coedge $-1 $480 $226 $229 $358 forward $354 $-1 #
coedge $-1 $226 $480 $342 $470 forward $354 $-1 #
loop $-1 $-1 $226 $338 #
vertex $-1 $227 $481 #
straight-curve $-1 -58.519852290414136 0 11.459482213136292 0 1 0 I I #
coedge $-1 $229 $228 $340 $469 reversed $230 $-1 #
edge $-1 $232 -6.8061707306855936 $482 6.8061707306855936 $229 $483 forward 7 unknown #
point $-1 -58.519852290414136 -27.909505414865016 -11.459482213136292 #
point $-1 -58.519852290414136 -27.909505414865016 11.459482213136292 #
loop $-1 $-1 $242 $234 #
plane-surface $-1 0 40.781195077690676 0 0 -1 0 0 0 -1 forward_v I I I I #
coedge $-1 $364 $237 $239 $368 reversed $141 $-1 #
coedge $-1 $237 $363 $484 $485 reversed $141 $-1 #
coedge $-1 $245 $240 $237 $366 forward $235 $-1 #
edge $-1 $369 1.0515839166067096 $486 4.1898170522093849 $365 $487 forward 7 unknown #
coedge $-1 $239 $238 $372 $488 reversed $89 $-1 #
edge $-1 $489 -81.562390155381365 $369 -76.872374261750807 $363 $490 forward 7 unknown #
vertex $-1 $241 $491 #
straight-curve $-1 -7.0864284926028631 37.642961942088007 11.45948221313629 1 0 0 I I #
coedge $-1 $484 $242 $245 $376 reversed $361 $-1 #
coedge $-1 $242 $484 $367 $488 forward $361 $-1 #
vertex $-1 $243 $492 #
straight-curve $-1 -22.909907710467643 40.781195077690676 73.450818711153417 0 0 1 I I #
straight-curve $-1 -22.909907710467643 -13.794695752911693 68.586790004513318 0 0.66913059716165679 -0.74314483375859142 I I #
edge $-1 $486 5.4358062599438099 $246 22.909907710467643 $371 $493 forward 7 unknown #
point $-1 -22.909907710467643 40.781195077690676 11.459482213136292 #
point $-1 -22.909907710467643 37.642961942088 11.45948221313629 #
edge $-1 $494 1 $494 0 $249 $-1 forward 7 unknown #
vertex $-1 $250 $495 #
ellipse-curve $-1 -14.172856985205726 37.26389462915985 7.9626490707511328 0 0.74314483375859142 0.66913059716165679 1 0 0 1 I I #
point $-1 -13.172856985205726 39.212078509889338 9.7168016723376791 #
loop $-1 $-1 $261 $253 #
plane-surface $-1 0 40.781195077690676 0 0 -1 0 0 0 -1 forward_v I I I I #
coedge $-1 $386 $256 $258 $390 reversed $156 $-1 #
coedge $-1 $256 $385 $496 $497 reversed $156 $-1 #
coedge $-1 $264 $259 $256 $388 forward $254 $-1 #
edge $-1 $391 1.0515839166067096 $498 4.1898170522093849 $387 $499 forward 7 unknown #
coedge $-1 $258 $257 $394 $500 reversed $98 $-1 #
edge $-1 $501 -81.562390155381365 $391 -76.872374261750807 $385 $502 forward 7 unknown #
vertex $-1 $260 $503 #
straight-curve $-1 13.892599223288464 37.642961942088007 11.45948221313629 1 0 0 I I #
coedge $-1 $496 $261 $264 $398 reversed $383 $-1 #
coedge $-1 $261 $496 $389 $500 forward $383 $-1 #
vertex $-1 $262 $504 #
straight-curve $-1 19.048147721315011 40.781195077690676 73.450818711153417 0 0 1 I I #
straight-curve $-1 19.048147721315011 -13.794695752911693 68.586790004513318 0 0.66913059716165679 -0.74314483375859142 I I #
edge $-1 $498 -36.522249171838844 $265 -19.048147721315011 $393 $505 forward 7 unknown #
point $-1 19.048147721315011 40.781195077690676 11.459482213136292 #
point $-1 19.048147721315011 37.642961942088 11.45948221313629 #
edge $-1 $506 1 $506 0 $268 $-1 forward 7 unknown #
vertex $-1 $269 $507 #
ellipse-curve $-1 27.785198446576928 37.26389462915985 7.9626490707511328 0 0.74314483375859142 0.66913059716165679 1 0 0 1 I I #
point $-1 28.785198446576928 39.212078509889338 9.7168016723376791 #
loop $-1 $-1 $280 $272 #
plane-surface $-1 0 -40.781195077690676 0 0 1 0 0 0 1 forward_v I I I I #
coedge $-1 $408 $275 $277 $412 reversed $171 $-1 #
coedge $-1 $275 $407 $508 $509 reversed $171 $-1 #
coedge $-1 $283 $278 $275 $410 forward $273 $-1 #
edge $-1 $413 -26.236361498694478 $510 -23.098128363091796 $409 $511 forward 7 unknown #
coedge $-1 $277 $276 $416 $512 reversed $107 $-1 #
edge $-1 $513 -1.0694865687384493e-014 $413 4.6900158936305534 $407 $514 forward 7 unknown #
vertex $-1 $279 $515 #
straight-curve $-1 -7.0864284926028631 -37.642961942087993 11.459482213136292 -1 0 0 I I #
coedge $-1 $508 $280 $283 $420 reversed $405 $-1 #
coedge $-1 $280 $508 $411 $512 forward $405 $-1 #
vertex $-1 $281 $516 #
straight-curve $-1 -5.4358062599438099 -40.781195077690676 43.14448427466629 0 0 1 I I #
straight-curve $-1 -5.4358062599438099 -40.781195077690668 7.9741211315390643 0 -0.66913059716165679 -0.74314483375859142 I I #
edge $-1 $510 -22.909907710467643 $284 -5.4358062599438099 $415 $517 forward 7 unknown #
point $-1 -5.4358062599438099 -40.781195077690676 11.459482213136292 #
point $-1 -5.4358062599438099 -37.642961942087993 11.459482213136292 #
edge $-1 $518 1 $518 0 $287 $-1 forward 7 unknown #
vertex $-1 $288 $519 #
ellipse-curve $-1 -14.172856985205726 -37.263894629159857 7.9626490707511364 0 -0.74314483375859142 0.66913059716165679 1 0 0 1 I I #
point $-1 -13.172856985205726 -39.212078509889345 9.7168016723376827 #
plane-surface $-1 0 0 11.459482213136292 0 0 1 1 0 0 forward_v I I I I #
coedge $-1 $438 $437 $430 $520 forward $292 $-1 #
coedge $-1 $430 $294 $296 $434 reversed $186 $-1 #
coedge $-1 $294 $429 $428 $520 reversed $186 $-1 #
coedge $-1 $302 $297 $294 $432 forward $303 $-1 #
edge $-1 $435 -26.236361498694478 $521 -23.098128363091796 $431 $522 forward 7 unknown #
coedge $-1 $296 $295 $438 $523 reversed $116 $-1 #
edge $-1 $524 -1.0694865687384493e-014 $435 4.6900158936305534 $429 $525 forward 7 unknown #
vertex $-1 $298 $526 #
straight-curve $-1 13.892599223288464 -37.642961942087993 11.459482213136292 -1 0 0 I I #
coedge $-1 $428 $299 $302 $442 reversed $292 $-1 #
coedge $-1 $299 $428 $433 $523 forward $292 $-1 #
vertex $-1 $300 $527 #
straight-curve $-1 36.522249171838844 -40.781195077690676 43.14448427466629 0 0 1 I I #
straight-curve $-1 36.522249171838844 -40.781195077690668 7.9741211315390643 0 -0.66913059716165679 -0.74314483375859142 I I #
edge $-1 $521 19.048147721315011 $304 36.522249171838844 $437 $528 forward 7 unknown #
point $-1 36.522249171838844 -40.781195077690676 11.459482213136292 #
point $-1 36.522249171838844 -37.642961942087993 11.459482213136292 #
edge $-1 $529 1 $529 0 $307 $-1 forward 7 unknown #
vertex $-1 $308 $530 #
ellipse-curve $-1 27.785198446576928 -37.263894629159857 7.9626490707511364 0 -0.74314483375859142 0.66913059716165679 1 0 0 1 I I #
point $-1 28.785198446576928 -39.212078509889345 9.7168016723376827 #
plane-surface $-1 58.519852290414136 0 0 -1 0 0 0 0 1 forward_v I I I I #
coedge $-1 $331 $317 $322 $458 forward $312 $-1 #
vertex $-1 $315 $531 #
vertex $-1 $457 $532 #
straight-curve $-1 58.519852290414136 0 -11.459482213136292 0 -1 0 I I #
straight-curve $-1 0 40.781195077690676 11.459482213136292 -1 0 0 I I #
coedge $-1 $319 $328 $321 $457 reversed $201 $-1 #
straight-curve $-1 0 -40.781195077690676 11.459482213136292 1 0 0 I I #
edge $-1 $324 -11.459482213136292 $452 11.459482213136292 $321 $533 forward 7 unknown #
edge $-1 $325 -11.459482213136292 $451 11.459482213136292 $322 $534 forward 7 unknown #
point $-1 58.519852290414136 -40.781195077690676 11.459482213136292 #
point $-1 58.519852290414136 40.781195077690676 11.459482213136292 #
straight-curve $-1 -58.519852290414136 0 11.459482213136292 0 -1 0 I I #
point $-1 -58.519852290414136 -40.781195077690676 11.459482213136292 #
point $-1 -58.519852290414136 40.781195077690676 11.459482213136292 #
straight-curve $-1 0 40.781195077690676 -11.459482213136292 1 0 0 I I #
straight-curve $-1 0 -40.781195077690676 -11.459482213136292 -1 0 0 I I #
plane-surface $-1 0 0 11.459482213136292 0 0 1 1 0 0 forward_v I I I I #
coedge $-1 $343 $340 $345 $474 reversed $219 $-1 #
coedge $-1 $340 $343 $480 $535 reversed $219 $-1 #
edge $-1 $482 -11.459482213136292 $476 11.459482213136292 $357 $536 forward 7 unknown #
edge $-1 $471 -6.8061707306855936 $355 6.8061707306855936 $342 $537 forward 7 unknown #
vertex $-1 $535 $538 #
vertex $-1 $474 $539 #
straight-curve $-1 -72.132193751785323 -33.555696904418532 0 0 0 -1 I I #
edge $-1 $472 -2.823095744776758 $476 2.823095744776758 $467 $540 forward 7 unknown #
straight-curve $-1 -65.326023021099729 -33.555696904418532 -11.459482213136292 -1 0 0 I I #
vertex $-1 $347 $541 #
straight-curve $-1 -65.326023021099729 -27.909505414865016 -11.459482213136292 1 0 0 I I #
point $-1 -58.519852290414136 -33.555696904418532 -11.459482213136292 #
straight-curve $-1 -58.519852290414136 -33.555696904418532 0 0 0 -1 I I #
coedge $-1 $353 $352 $468 $535 forward $354 $-1 #
point $-1 -58.519852290414136 -33.555696904418532 11.459482213136292 #
vertex $-1 $358 $542 #
straight-curve $-1 -65.326023021099729 -27.909505414865016 11.459482213136292 -1 0 0 I I #
coedge $-1 $372 $371 $364 $485 forward $361 $-1 #
edge $-1 $486 61.991336498017127 $489 65.476697579614353 $484 $543 forward 7 unknown #
vertex $-1 $376 $544 #
straight-curve $-1 -5.4358062599438099 36.591378025481291 11.459482213136297 0 1 0 I I #
edge $-1 $489 -1.6506222326590532 $373 15.823479217864779 $372 $545 forward 7 unknown #
vertex $-1 $488 $546 #
straight-curve $-1 -5.4358062599438099 -13.794695752911693 68.586790004513318 0 -0.66913059716165679 0.74314483375859142 I I #
point $-1 -5.4358062599438099 37.642961942088 11.45948221313629 #
point $-1 -22.909907710467643 40.781195077690676 7.9741211315390572 #
straight-curve $-1 0 40.781195077690676 11.459482213136292 -1 0 0 I I #
vertex $-1 $379 $547 #
point $-1 -13.172856985205726 37.26389462915985 7.9626490707511328 #
coedge $-1 $394 $393 $386 $497 forward $383 $-1 #
edge $-1 $498 61.991336498017127 $501 65.476697579614353 $496 $548 forward 7 unknown #
vertex $-1 $398 $549 #
straight-curve $-1 36.522249171838844 36.591378025481291 11.459482213136297 0 1 0 I I #
edge $-1 $501 -22.62964994855038 $395 -5.1555484980265476 $394 $550 forward 7 unknown #
vertex $-1 $500 $551 #
straight-curve $-1 36.522249171838844 -13.794695752911693 68.586790004513318 0 -0.66913059716165679 0.74314483375859142 I I #
point $-1 36.522249171838844 37.642961942088 11.45948221313629 #
point $-1 19.048147721315011 40.781195077690676 7.9741211315390572 #
straight-curve $-1 0 40.781195077690676 11.459482213136292 -1 0 0 I I #
vertex $-1 $401 $552 #
point $-1 28.785198446576928 37.26389462915985 7.9626490707511328 #
coedge $-1 $416 $415 $408 $509 forward $405 $-1 #
edge $-1 $510 31.68500206153 $513 35.170363143127233 $508 $553 forward 7 unknown #
vertex $-1 $420 $554 #
straight-curve $-1 -22.909907710467643 -63.879323440782471 11.45948221313629 0 -1 0 I I #
edge $-1 $513 -15.823479217864779 $417 1.6506222326590532 $416 $555 forward 7 unknown #
vertex $-1 $512 $556 #
straight-curve $-1 -22.909907710467643 -40.781195077690668 7.9741211315390643 0 0.66913059716165679 0.74314483375859142 I I #
point $-1 -22.909907710467643 -37.642961942087993 11.459482213136292 #
point $-1 -5.4358062599438099 -40.781195077690676 7.9741211315390563 #
straight-curve $-1 0 -40.781195077690676 11.459482213136292 1 0 0 I I #
vertex $-1 $423 $557 #
point $-1 -13.172856985205726 -37.263894629159857 7.9626490707511364 #
edge $-1 $521 31.68500206153 $524 35.170363143127233 $428 $558 forward 7 unknown #
vertex $-1 $442 $559 #
straight-curve $-1 19.048147721315011 -63.879323440782471 11.45948221313629 0 -1 0 I I #
edge $-1 $524 5.1555484980265476 $439 22.62964994855038 $438 $560 forward 7 unknown #
vertex $-1 $523 $561 #
straight-curve $-1 19.048147721315011 -40.781195077690668 7.9741211315390643 0 0.66913059716165679 0.74314483375859142 I I #
point $-1 19.048147721315011 -37.642961942087993 11.459482213136292 #
point $-1 36.522249171838844 -40.781195077690676 7.9741211315390563 #
straight-curve $-1 0 -40.781195077690676 11.459482213136292 1 0 0 I I #
vertex $-1 $445 $562 #
point $-1 28.785198446576928 -37.263894629159857 7.9626490707511364 #
point $-1 58.519852290414136 40.781195077690676 -11.459482213136292 #
point $-1 58.519852290414136 -40.781195077690676 -11.459482213136292 #
straight-curve $-1 58.519852290414136 -40.781195077690676 0 0 0 -1 I I #
straight-curve $-1 58.519852290414136 40.781195077690676 0 0 0 -1 I I #
edge $-1 $482 -2.823095744776758 $471 2.823095744776758 $468 $563 forward 7 unknown #
straight-curve $-1 -72.132193751785323 -27.909505414865016 0 0 0 -1 I I #
straight-curve $-1 -65.326023021099729 -33.555696904418532 11.459482213136292 1 0 0 I I #
point $-1 -72.132193751785323 -33.555696904418532 11.459482213136292 #
point $-1 -72.132193751785323 -33.555696904418532 -11.459482213136292 #
straight-curve $-1 -72.132193751785323 -30.732601159641774 -11.459482213136292 0 1 0 I I #
point $-1 -72.132193751785323 -27.909505414865016 -11.459482213136292 #
point $-1 -72.132193751785323 -27.909505414865016 11.459482213136292 #
straight-curve $-1 -5.4358062599438099 40.781195077690676 73.450818711153417 0 0 -1 I I #
point $-1 -5.4358062599438099 40.781195077690676 11.459482213136292 #
straight-curve $-1 -7.0864284926028631 40.781195077690683 7.9741211315390501 -1 0 0 I I #
point $-1 -5.4358062599438099 40.781195077690676 7.9741211315390572 #
point $-1 -14.172856985205726 36.520749795401258 7.2935184735894767 #
straight-curve $-1 36.522249171838844 40.781195077690676 73.450818711153417 0 0 -1 I I #
point $-1 36.522249171838844 40.781195077690676 11.459482213136292 #
straight-curve $-1 13.892599223288464 40.781195077690683 7.9741211315390501 -1 0 0 I I #
point $-1 36.522249171838844 40.781195077690676 7.9741211315390572 #
point $-1 27.785198446576928 36.520749795401258 7.2935184735894767 #
straight-curve $-1 -22.909907710467643 -40.781195077690676 43.14448427466629 0 0 -1 I I #
point $-1 -22.909907710467643 -40.781195077690676 11.459482213136292 #
straight-curve $-1 -7.0864284926028631 -40.781195077690676 7.9741211315390554 1 0 0 I I #
point $-1 -22.909907710467643 -40.781195077690676 7.9741211315390563 #
point $-1 -14.172856985205726 -36.520749795401265 7.2935184735894802 #
straight-curve $-1 19.048147721315011 -40.781195077690676 43.14448427466629 0 0 -1 I I #
point $-1 19.048147721315011 -40.781195077690676 11.459482213136292 #
straight-curve $-1 13.892599223288464 -40.781195077690676 7.9741211315390554 1 0 0 I I #
point $-1 19.048147721315011 -40.781195077690676 7.9741211315390563 #
point $-1 27.785198446576928 -36.520749795401265 7.2935184735894802 #
straight-curve $-1 -72.132193751785323 -30.732601159641774 11.459482213136292 0 -1 0 I I #
End-of-ACIS-data 