500 0 11 0           
7 Unknown 11 ACIS 5.0 NT 24 Thu Mar 25 17:24:12 1999 
-1 9.9999999999999995e-007 1e-010 
body $-1 $11 $-1 $12 #
body $-1 $13 $-1 $14 #
body $-1 $15 $-1 $16 #
body $-1 $17 $-1 $18 #
body $-1 $19 $-1 $20 #
body $-1 $21 $-1 $22 #
body $-1 $23 $-1 $24 #
body $-1 $25 $-1 $26 #
body $-1 $27 $-1 $28 #
body $-1 $29 $-1 $30 #
body $-1 $31 $-1 $32 #
lump $-1 $-1 $33 $0 #
transform $-1 1 0 0 0 1 0 0 0 1 50.300607318338571 31.316184556255948 11.415541087488739 1 rotate no_reflect no_shear #
lump $-1 $-1 $34 $1 #
transform $-1 1 0 0 0 1 0 0 0 1 50.300607318338571 31.316184556255948 11.415541087488739 1 rotate no_reflect no_shear #
lump $-1 $-1 $35 $2 #
transform $-1 1 0 0 0 1 0 0 0 1 50.300607318338571 31.316184556255948 11.415541087488739 1 rotate no_reflect no_shear #
lump $-1 $-1 $36 $3 #
transform $-1 1 0 0 0 1 0 0 0 1 50.300607318338571 31.316184556255948 11.415541087488739 1 rotate no_reflect no_shear #
lump $-1 $-1 $37 $4 #
transform $-1 1 0 0 0 1 0 0 0 1 50.300607318338571 31.316184556255948 11.415541087488739 1 rotate no_reflect no_shear #
lump $-1 $-1 $38 $5 #
transform $-1 1 0 0 0 1 0 0 0 1 50.300607318338571 31.316184556255948 11.415541087488739 1 rotate no_reflect no_shear #
lump $-1 $-1 $39 $6 #
transform $-1 1 0 0 0 1 0 0 0 1 50.300607318338571 31.316184556255948 11.415541087488739 1 rotate no_reflect no_shear #
lump $-1 $-1 $40 $7 #
transform $-1 1 0 0 0 1 0 0 0 1 50.300607318338571 31.316184556255948 11.415541087488739 1 rotate no_reflect no_shear #
lump $-1 $-1 $41 $8 #
transform $-1 1 0 0 0 1 0 0 0 1 50.300607318338571 31.316184556255948 11.415541087488739 1 rotate no_reflect no_shear #
lump $-1 $-1 $42 $9 #
transform $-1 1 0 0 0 1 0 0 0 1 50.300607318338571 31.316184556255948 11.415541087488739 1 rotate no_reflect no_shear #
lump $-1 $-1 $43 $10 #
transform $-1 1 0 0 0 1 0 0 0 1 50.300607318338571 31.316184556255948 11.415541087488739 1 rotate no_reflect no_shear #
shell $-1 $-1 $-1 $44 $-1 $11 #
shell $-1 $-1 $-1 $45 $-1 $13 #
shell $-1 $-1 $-1 $46 $-1 $15 #
shell $-1 $-1 $-1 $47 $-1 $17 #
shell $-1 $-1 $-1 $48 $-1 $19 #
shell $-1 $-1 $-1 $49 $-1 $21 #
shell $-1 $-1 $-1 $50 $-1 $23 #
shell $-1 $-1 $-1 $51 $-1 $25 #
shell $-1 $-1 $-1 $52 $-1 $27 #
shell $-1 $-1 $-1 $53 $-1 $29 #
shell $-1 $-1 $-1 $54 $-1 $31 #
face $-1 $55 $56 $33 $-1 $57 forward single #
face $-1 $58 $59 $34 $-1 $60 forward single #
face $-1 $61 $62 $35 $-1 $63 reversed single #
face $-1 $64 $65 $36 $-1 $66 forward single #
face $-1 $67 $68 $37 $-1 $69 forward single #
face $-1 $70 $71 $38 $-1 $72 reversed single #
face $-1 $73 $74 $39 $-1 $75 forward single #
face $-1 $76 $77 $40 $-1 $78 forward single #
face $-1 $79 $80 $41 $-1 $81 reversed single #
face $-1 $82 $83 $42 $-1 $84 forward single #
face $-1 $85 $86 $43 $-1 $87 forward single #
face $-1 $88 $89 $33 $-1 $90 reversed single #
loop $-1 $-1 $91 $44 #
plane-surface $-1 0 0 11.415541087488739 0 0 1 1 0 0 forward_v I I I I #
face $-1 $92 $93 $34 $-1 $94 reversed single #
loop $-1 $-1 $95 $45 #
plane-surface $-1 0 -31.316184556255948 0 0 1 0 0 0 1 forward_v I I I I #
face $-1 $96 $97 $35 $-1 $98 reversed single #
loop $-1 $-1 $99 $46 #
plane-surface $-1 -123.87567886168654 -23.77273006662368 72.63438501345702 0 1 0 -0.73135370988377701 0 0.68199835119979291 forward_v I I I I #
face $-1 $100 $101 $36 $-1 $102 forward single #
loop $-1 $103 $104 $47 #
cone-surface $-1 -45.316647704777118 -20.541062320750711 6.285971402023149 0.73135370988377701 0 -0.68199835119979291 1.0229975267996894 0 1.0970305648256655 1 I I 0 1 1.5 forward I I I I #
face $-1 $105 $106 $37 $-1 $107 forward single #
loop $-1 $108 $109 $48 #
cone-surface $-1 -45.316647704777118 -15.693560701941255 6.285971402023149 0.73135370988377701 0 -0.68199835119979291 1.0229975267996894 0 1.0970305648256655 1 I I 0 1 1.5 forward I I I I #
face $-1 $110 $111 $38 $-1 $112 reversed single #
loop $-1 $-1 $113 $49 #
plane-surface $-1 -123.87567886168654 20.005347445700551 72.63438501345702 0 1 0 -0.73135370988377701 0 0.68199835119979291 forward_v I I I I #
face $-1 $114 $115 $39 $-1 $116 forward single #
loop $-1 $117 $118 $50 #
cone-surface $-1 -45.316647704777118 23.237015191573519 6.285971402023149 0.73135370988377701 0 -0.68199835119979291 1.0229975267996894 0 1.0970305648256655 1 I I 0 1 1.5 forward I I I I #
face $-1 $119 $120 $40 $-1 $121 forward single #
loop $-1 $122 $123 $51 #
cone-surface $-1 -45.316647704777118 28.084516810382979 6.285971402023149 0.73135370988377701 0 -0.68199835119979291 1.0229975267996894 0 1.0970305648256655 1 I I 0 1 1.5 forward I I I I #
face $-1 $124 $125 $41 $-1 $126 reversed single #
loop $-1 $-1 $127 $52 #
plane-surface $-1 20.720679148126969 19.603494612875739 142.70610687062515 0 -1 0 -0.54463904215088732 0 -0.83867056331134215 forward_v I I I I #
face $-1 $128 $129 $42 $-1 $130 forward single #
loop $-1 $131 $132 $53 #
cone-surface $-1 43.855340647896242 13.35695666232985 6.8877228869579241 -0.54463904215088732 0 -0.83867056331134215 0.41933528165567108 0 -0.27231952107544366 1 I I 0 1 0.5 forward I I I I #
face $-1 $133 $134 $43 $-1 $135 forward single #
loop $-1 $136 $137 $54 #
cone-surface $-1 43.855340647896242 17.104879432657384 6.8877228869579241 -0.54463904215088732 0 -0.83867056331134215 0.41933528165567108 0 -0.27231952107544366 1 I I 0 1 0.5 forward I I I I #
face $-1 $138 $139 $33 $-1 $140 reversed single #
loop $-1 $-1 $141 $55 #
plane-surface $-1 0 0 -11.415541087488739 0 0 1 1 0 0 forward_v I I I I #
coedge $-1 $142 $143 $144 $145 forward $56 $-1 #
face $-1 $146 $147 $34 $-1 $148 reversed single #
loop $-1 $-1 $149 $58 #
plane-surface $-1 0 0 -11.415541087488739 0 0 1 1 0 0 forward_v I I I I #
coedge $-1 $150 $151 $152 $153 forward $59 $-1 #
face $-1 $154 $155 $35 $-1 $156 reversed single #
loop $-1 $-1 $157 $61 #
plane-surface $-1 -50.300607318338578 -18.117311511345982 4.0245225025467306 -0.73135370988377701 0 0.68199835119979291 0.68199835119979291 0 0.73135370988377701 forward_v I I I I #
coedge $-1 $158 $159 $160 $161 reversed $62 $-1 #
face $-1 $-1 $162 $36 $-1 $163 forward single #
loop $-1 $164 $165 $64 #
cone-surface $-1 -43.230290891268375 -20.541062320750711 4.3404122456287197 0.73135370988377701 0 -0.68199835119979291 0.51149876339984468 0 0.54851528241283276 1 I I -0.70710678118654757 0.70710678118654757 0.75 forward I I I I #
loop $-1 $-1 $166 $47 #
coedge $-1 $104 $104 $167 $168 reversed $65 $-1 #
face $-1 $-1 $169 $37 $-1 $170 forward single #
loop $-1 $171 $172 $67 #
cone-surface $-1 -43.230290891268375 -15.693560701941255 4.3404122456287197 0.73135370988377701 0 -0.68199835119979291 0.51149876339984468 0 0.54851528241283276 1 I I -0.70710678118654757 0.70710678118654757 0.75 forward I I I I #
loop $-1 $-1 $173 $48 #
coedge $-1 $109 $109 $174 $175 reversed $68 $-1 #
face $-1 $176 $177 $38 $-1 $178 forward single #
loop $-1 $-1 $179 $70 #
plane-surface $-1 -50.300607318338578 25.660766000978249 4.0245225025467306 -0.73135370988377701 0 0.68199835119979291 0.68199835119979291 0 0.73135370988377701 forward_v I I I I #
coedge $-1 $180 $181 $182 $183 reversed $71 $-1 #
face $-1 $-1 $184 $39 $-1 $185 forward single #
loop $-1 $186 $187 $73 #
cone-surface $-1 -43.230290891268375 23.237015191573519 4.3404122456287197 0.73135370988377701 0 -0.68199835119979291 0.51149876339984468 0 0.54851528241283276 1 I I -0.70710678118654757 0.70710678118654757 0.75 forward I I I I #
loop $-1 $-1 $188 $50 #
coedge $-1 $118 $118 $189 $190 reversed $74 $-1 #
face $-1 $-1 $191 $40 $-1 $192 forward single #
loop $-1 $193 $194 $76 #
cone-surface $-1 -43.230290891268375 28.084516810382979 4.3404122456287197 0.73135370988377701 0 -0.68199835119979291 0.51149876339984468 0 0.54851528241283276 1 I I -0.70710678118654757 0.70710678118654757 0.75 forward I I I I #
loop $-1 $-1 $195 $51 #
coedge $-1 $123 $123 $196 $197 reversed $77 $-1 #
face $-1 $198 $199 $41 $-1 $200 reversed single #
loop $-1 $-1 $201 $79 #
plane-surface $-1 -34.070670030808692 15.230918047493617 58.334829521477886 0.54463904215088732 0 0.83867056331134215 0.83867056331134215 0 -0.54463904215088732 forward_v I I I I #
coedge $-1 $202 $203 $204 $205 reversed $80 $-1 #
face $-1 $-1 $206 $42 $-1 $207 forward single #
loop $-1 $208 $209 $82 #
cone-surface $-1 43.334869371097305 13.35695666232985 6.0862674180725183 -0.54463904215088732 0 -0.83867056331134215 0.20966764082783554 0 -0.13615976053772183 1 I I -0.70710678118654746 0.70710678118654746 0.25 forward I I I I #
loop $-1 $-1 $210 $53 #
coedge $-1 $132 $132 $211 $212 reversed $83 $-1 #
face $-1 $-1 $213 $43 $-1 $214 forward single #
loop $-1 $215 $216 $85 #
cone-surface $-1 43.334869371097305 17.104879432657384 6.0862674180725183 -0.54463904215088732 0 -0.83867056331134215 0.20966764082783554 0 -0.13615976053772183 1 I I -0.70710678118654746 0.70710678118654746 0.25 forward I I I I #
loop $-1 $-1 $217 $54 #
coedge $-1 $137 $137 $218 $219 reversed $86 $-1 #
face $-1 $220 $221 $33 $-1 $222 reversed single #
loop $-1 $-1 $223 $88 #
plane-surface $-1 0 -31.316184556255948 0 0 1 0 0 0 1 forward_v I I I I #
coedge $-1 $224 $225 $226 $227 forward $89 $-1 #
coedge $-1 $228 $91 $229 $230 forward $56 $-1 #
coedge $-1 $91 $228 $231 $232 forward $56 $-1 #
coedge $-1 $233 $234 $91 $145 reversed $235 $-1 #
edge $-1 $236 -31.316184556255948 $237 31.316184556255948 $144 $238 forward 7 unknown #
face $-1 $239 $240 $34 $-1 $241 reversed single #
loop $-1 $-1 $242 $92 #
plane-surface $-1 -34.983764843286856 -38.859639045888215 0 0 1 0 0 0 1 forward_v I I I I #
coedge $-1 $243 $244 $151 $245 forward $93 $-1 #
coedge $-1 $246 $95 $247 $248 reversed $59 $-1 #
coedge $-1 $95 $246 $149 $245 reversed $59 $-1 #
coedge $-1 $249 $250 $95 $153 reversed $240 $-1 #
edge $-1 $251 -11.415541087488739 $252 11.415541087488739 $152 $253 forward 7 unknown #
face $-1 $254 $255 $35 $-1 $256 reversed single #
loop $-1 $-1 $257 $96 #
plane-surface $-1 -123.87567886168654 -12.461892956068281 72.63438501345702 0 -1 0 0.73135370988377701 0 -0.68199835119979291 forward_v I I I I #
coedge $-1 $258 $259 $260 $261 reversed $97 $-1 #
coedge $-1 $159 $99 $262 $263 reversed $62 $-1 #
coedge $-1 $99 $158 $258 $264 reversed $62 $-1 #
coedge $-1 $260 $265 $99 $161 forward $266 $-1 #
edge $-1 $267 11.637232112504698 $268 18.529468277435768 $160 $269 forward 7 unknown #
loop $-1 $-1 $167 $100 #
plane-surface $-1 -50.300607318338578 -18.117311511345982 4.0245225025467306 -0.73135370988377701 0 0.68199835119979291 0.68199835119979291 0 0.73135370988377701 forward_v I I I I #
loop $-1 $-1 $270 $64 #
coedge $-1 $165 $165 $166 $271 reversed $101 $-1 #
coedge $-1 $166 $166 $165 $271 forward $103 $-1 #
coedge $-1 $167 $167 $104 $168 forward $162 $-1 #
edge $-1 $272 0 $272 6.2831853071796004 $167 $273 forward 7 unknown #
loop $-1 $-1 $174 $105 #
plane-surface $-1 -50.300607318338578 -18.117311511345982 4.0245225025467306 -0.73135370988377701 0 0.68199835119979291 0.68199835119979291 0 0.73135370988377701 forward_v I I I I #
loop $-1 $-1 $274 $67 #
coedge $-1 $172 $172 $173 $275 reversed $106 $-1 #
coedge $-1 $173 $173 $172 $275 forward $108 $-1 #
coedge $-1 $174 $174 $109 $175 forward $169 $-1 #
edge $-1 $276 0 $276 6.2831853071796004 $174 $277 forward 7 unknown #
face $-1 $278 $279 $38 $-1 $280 reversed single #
loop $-1 $-1 $182 $110 #
plane-surface $-1 0 0 11.415541087488739 0 0 1 1 0 0 forward_v I I I I #
coedge $-1 $281 $282 $283 $284 reversed $111 $-1 #
coedge $-1 $181 $113 $285 $286 reversed $71 $-1 #
coedge $-1 $113 $180 $281 $287 reversed $71 $-1 #
coedge $-1 $283 $288 $113 $183 forward $177 $-1 #
edge $-1 $289 11.637232112504698 $290 18.529468277435768 $182 $291 forward 7 unknown #
loop $-1 $-1 $189 $114 #
plane-surface $-1 -50.300607318338578 25.660766000978249 4.0245225025467306 -0.73135370988377701 0 0.68199835119979291 0.68199835119979291 0 0.73135370988377701 forward_v I I I I #
loop $-1 $-1 $292 $73 #
coedge $-1 $187 $187 $188 $293 reversed $115 $-1 #
coedge $-1 $188 $188 $187 $293 forward $117 $-1 #
coedge $-1 $189 $189 $118 $190 forward $184 $-1 #
edge $-1 $294 0 $294 6.2831853071796004 $189 $295 forward 7 unknown #
loop $-1 $-1 $196 $119 #
plane-surface $-1 -50.300607318338578 25.660766000978249 4.0245225025467306 -0.73135370988377701 0 0.68199835119979291 0.68199835119979291 0 0.73135370988377701 forward_v I I I I #
loop $-1 $-1 $296 $76 #
coedge $-1 $194 $194 $195 $297 reversed $120 $-1 #
coedge $-1 $195 $195 $194 $297 forward $122 $-1 #
coedge $-1 $196 $196 $123 $197 forward $191 $-1 #
edge $-1 $298 0 $298 6.2831853071796004 $196 $299 forward 7 unknown #
face $-1 $300 $301 $41 $-1 $302 forward single #
loop $-1 $-1 $303 $124 #
plane-surface $-1 20.720679148126969 10.858341482111495 142.70610687062515 0 1 0 0.54463904215088732 0 0.83867056331134215 forward_v I I I I #
coedge $-1 $304 $305 $306 $307 reversed $125 $-1 #
coedge $-1 $203 $127 $308 $309 reversed $80 $-1 #
coedge $-1 $127 $202 $304 $310 reversed $80 $-1 #
coedge $-1 $306 $311 $127 $205 forward $301 $-1 #
edge $-1 $312 -39.94026774427509 $313 -27.818357435912798 $204 $314 forward 7 unknown #
loop $-1 $-1 $211 $128 #
plane-surface $-1 -34.070670030808692 15.230918047493617 58.334829521477886 0.54463904215088732 0 0.83867056331134215 0.83867056331134215 0 -0.54463904215088732 forward_v I I I I #
loop $-1 $-1 $315 $82 #
coedge $-1 $209 $209 $210 $316 reversed $129 $-1 #
coedge $-1 $210 $210 $209 $316 forward $131 $-1 #
coedge $-1 $211 $211 $132 $212 forward $206 $-1 #
edge $-1 $317 0 $317 6.2831853071796004 $211 $318 forward 7 unknown #
loop $-1 $-1 $218 $133 #
plane-surface $-1 -34.070670030808692 15.230918047493617 58.334829521477886 0.54463904215088732 0 0.83867056331134215 0.83867056331134215 0 -0.54463904215088732 forward_v I I I I #
loop $-1 $-1 $319 $85 #
coedge $-1 $216 $216 $217 $320 reversed $134 $-1 #
coedge $-1 $217 $217 $216 $320 forward $136 $-1 #
coedge $-1 $218 $218 $137 $219 forward $213 $-1 #
edge $-1 $321 0 $321 6.2831853071796004 $218 $322 forward 7 unknown #
face $-1 $323 $324 $33 $-1 $325 reversed single #
loop $-1 $-1 $326 $138 #
plane-surface $-1 -50.300607318338571 0 0 1 0 0 0 0 -1 forward_v I I I I #
coedge $-1 $327 $231 $328 $329 forward $139 $-1 #
coedge $-1 $330 $141 $327 $331 forward $89 $-1 #
coedge $-1 $141 $330 $332 $333 forward $89 $-1 #
coedge $-1 $234 $233 $141 $227 reversed $235 $-1 #
edge $-1 $334 -31.316184556255948 $335 31.316184556255948 $226 $336 forward 7 unknown #
coedge $-1 $143 $142 $337 $338 forward $56 $-1 #
coedge $-1 $339 $340 $142 $230 reversed $324 $-1 #
edge $-1 $237 -50.300607318338571 $341 50.300607318338571 $229 $342 forward 7 unknown #
coedge $-1 $223 $343 $143 $232 reversed $139 $-1 #
edge $-1 $344 -50.300607318338571 $236 50.300607318338571 $231 $345 forward 7 unknown #
coedge $-1 $226 $144 $343 $346 forward $235 $-1 #
coedge $-1 $144 $226 $339 $347 reversed $235 $-1 #
loop $-1 $-1 $233 $323 #
vertex $-1 $145 $348 #
vertex $-1 $145 $349 #
straight-curve $-1 50.300607318338571 0 11.415541087488739 0 1 0 I I #
face $-1 $350 $351 $34 $-1 $352 reversed single #
loop $-1 $-1 $152 $146 #
plane-surface $-1 -37.8204224621308 -35.087911801072082 0 1 0 0 0 0 -1 forward_v I I I I #
coedge $-1 $353 $354 $355 $356 forward $147 $-1 #
coedge $-1 $357 $149 $358 $359 forward $93 $-1 #
coedge $-1 $149 $357 $249 $360 forward $93 $-1 #
edge $-1 $251 -37.8204224621308 $361 -32.147107224442912 $149 $362 forward 7 unknown #
coedge $-1 $151 $150 $363 $364 forward $59 $-1 #
coedge $-1 $365 $366 $150 $248 forward $367 $-1 #
edge $-1 $368 32.147107224442912 $252 37.8204224621308 $247 $369 forward 7 unknown #
coedge $-1 $355 $152 $244 $360 reversed $240 $-1 #
coedge $-1 $152 $355 $365 $370 reversed $240 $-1 #
vertex $-1 $245 $371 #
vertex $-1 $370 $372 #
straight-curve $-1 -37.8204224621308 -31.316184556255948 0 0 0 1 I I #
face $-1 $-1 $266 $35 $-1 $373 forward single #
loop $-1 $-1 $374 $154 #
plane-surface $-1 -50.300607318338571 0 0 1 0 0 0 0 -1 forward_v I I I I #
coedge $-1 $375 $376 $377 $378 reversed $155 $-1 #
coedge $-1 $379 $157 $159 $264 forward $97 $-1 #
coedge $-1 $157 $379 $375 $380 forward $97 $-1 #
coedge $-1 $377 $160 $157 $261 forward $266 $-1 #
edge $-1 $268 -14.714074310950689 $381 -3.4032372003952904 $260 $382 forward 7 unknown #
coedge $-1 $383 $384 $158 $263 forward $255 $-1 #
edge $-1 $385 -32.292670004181772 $267 -24.901651419239769 $262 $386 forward 7 unknown #
edge $-1 $268 -10.105942562479861 $385 -1.0692042983031357e-014 $159 $387 forward 7 unknown #
coedge $-1 $160 $377 $383 $388 forward $266 $-1 #
loop $-1 $-1 $377 $254 #
vertex $-1 $263 $389 #
vertex $-1 $161 $390 #
straight-curve $-1 -61.937839430843269 -23.77273006662368 11.415541087488741 1 0 0 I I #
coedge $-1 $270 $270 $-1 $391 reversed $164 $-1 #
edge $-1 $392 0 $392 6.2831853071796004 $165 $393 forward 7 unknown #
vertex $-1 $168 $394 #
ellipse-curve $-1 -46.854489235873039 -20.541062320750711 7.7200317950177402 -0.73135370988377701 0 0.68199835119979291 1.0229975267996894 0 1.0970305648256655 1 I I #
coedge $-1 $274 $274 $-1 $395 reversed $171 $-1 #
edge $-1 $396 0 $396 6.2831853071796004 $172 $397 forward 7 unknown #
vertex $-1 $175 $398 #
ellipse-curve $-1 -46.854489235873039 -15.693560701941255 7.7200317950177402 -0.73135370988377701 0 0.68199835119979291 1.0229975267996894 0 1.0970305648256655 1 I I #
face $-1 $-1 $399 $38 $-1 $400 reversed single #
loop $-1 $-1 $285 $176 #
plane-surface $-1 -50.300607318338571 0 0 1 0 0 0 0 -1 forward_v I I I I #
coedge $-1 $401 $179 $181 $287 forward $111 $-1 #
coedge $-1 $179 $401 $402 $403 reversed $111 $-1 #
coedge $-1 $404 $182 $179 $284 forward $177 $-1 #
edge $-1 $290 7.1749644452114261 $405 18.485801555766823 $283 $406 forward 7 unknown #
coedge $-1 $407 $408 $180 $286 forward $279 $-1 #
edge $-1 $409 -32.292670004181772 $289 -24.901651419239769 $285 $410 forward 7 unknown #
edge $-1 $290 -10.105942562479861 $409 -1.0692042983031357e-014 $181 $411 forward 7 unknown #
coedge $-1 $182 $404 $407 $412 forward $177 $-1 #
vertex $-1 $183 $413 #
vertex $-1 $183 $414 #
straight-curve $-1 -61.937839430843269 20.005347445700551 11.415541087488741 1 0 0 I I #
coedge $-1 $292 $292 $-1 $415 reversed $186 $-1 #
edge $-1 $416 0 $416 6.2831853071796004 $187 $417 forward 7 unknown #
vertex $-1 $190 $418 #
ellipse-curve $-1 -46.854489235873039 23.237015191573519 7.7200317950177402 -0.73135370988377701 0 0.68199835119979291 1.0229975267996894 0 1.0970305648256655 1 I I #
coedge $-1 $296 $296 $-1 $419 reversed $193 $-1 #
edge $-1 $420 0 $420 6.2831853071796004 $194 $421 forward 7 unknown #
vertex $-1 $197 $422 #
ellipse-curve $-1 -46.854489235873039 28.084516810382979 7.7200317950177402 -0.73135370988377701 0 0.68199835119979291 1.0229975267996894 0 1.0970305648256655 1 I I #
face $-1 $-1 $423 $41 $-1 $424 reversed single #
loop $-1 $-1 $204 $198 #
plane-surface $-1 0 0 11.415541087488739 0 0 1 1 0 0 forward_v I I I I #
coedge $-1 $425 $426 $427 $428 reversed $199 $-1 #
coedge $-1 $429 $201 $203 $310 forward $125 $-1 #
coedge $-1 $201 $429 $425 $430 forward $125 $-1 #
coedge $-1 $427 $204 $201 $307 forward $301 $-1 #
edge $-1 $313 -11.988035589128931 $431 -3.2428824583646865 $306 $432 forward 7 unknown #
coedge $-1 $433 $434 $202 $309 forward $423 $-1 #
edge $-1 $435 -67.80957309277035 $312 -59.937512347823834 $308 $436 forward 7 unknown #
edge $-1 $313 86.147493666072108 $435 100.60121463667714 $203 $437 forward 7 unknown #
coedge $-1 $204 $427 $433 $438 forward $301 $-1 #
vertex $-1 $205 $439 #
vertex $-1 $205 $440 #
straight-curve $-1 10.360339574063484 19.603494612875739 11.415541087488734 -1 0 0 I I #
coedge $-1 $315 $315 $-1 $441 reversed $208 $-1 #
edge $-1 $442 0 $442 6.2831853071796004 $209 $443 forward 7 unknown #
vertex $-1 $212 $444 #
ellipse-curve $-1 44.239652164157441 13.35695666232985 7.4795107150154703 0.54463904215088732 0 0.83867056331134215 0.41933528165567108 0 -0.27231952107544366 1 I I #
coedge $-1 $319 $319 $-1 $445 reversed $215 $-1 #
edge $-1 $446 0 $446 6.2831853071796004 $216 $447 forward 7 unknown #
vertex $-1 $219 $448 #
ellipse-curve $-1 44.239652164157441 17.104879432657384 7.4795107150154703 0.54463904215088732 0 0.83867056331134215 0.41933528165567108 0 -0.27231952107544366 1 I I #
face $-1 $-1 $235 $33 $-1 $449 reversed single #
loop $-1 $-1 $339 $220 #
plane-surface $-1 0 31.316184556255948 0 0 -1 0 0 0 -1 forward_v I I I I #
coedge $-1 $450 $337 $340 $451 forward $221 $-1 #
coedge $-1 $343 $223 $224 $331 reversed $139 $-1 #
coedge $-1 $337 $450 $223 $329 reversed $221 $-1 #
edge $-1 $344 -11.415541087488739 $452 11.415541087488739 $328 $453 forward 7 unknown #
coedge $-1 $225 $224 $450 $454 forward $89 $-1 #
edge $-1 $335 -50.300607318338571 $452 50.300607318338571 $327 $455 forward 7 unknown #
coedge $-1 $340 $339 $225 $333 reversed $324 $-1 #
edge $-1 $456 -50.300607318338571 $334 50.300607318338571 $332 $457 forward 7 unknown #
vertex $-1 $227 $458 #
vertex $-1 $346 $459 #
straight-curve $-1 50.300607318338571 0 -11.415541087488739 0 -1 0 I I #
coedge $-1 $326 $328 $228 $338 reversed $221 $-1 #
edge $-1 $341 -31.316184556255948 $344 31.316184556255948 $337 $460 forward 7 unknown #
coedge $-1 $332 $229 $234 $347 forward $324 $-1 #
coedge $-1 $229 $332 $326 $451 reversed $324 $-1 #
vertex $-1 $230 $461 #
straight-curve $-1 0 31.316184556255948 11.415541087488739 -1 0 0 I I #
coedge $-1 $231 $327 $233 $346 reversed $139 $-1 #
vertex $-1 $338 $462 #
straight-curve $-1 0 -31.316184556255948 11.415541087488739 1 0 0 I I #
edge $-1 $236 -11.415541087488739 $335 11.415541087488739 $233 $463 forward 7 unknown #
edge $-1 $237 -11.415541087488739 $334 11.415541087488739 $234 $464 forward 7 unknown #
point $-1 50.300607318338571 -31.316184556255948 11.415541087488739 #
point $-1 50.300607318338571 31.316184556255948 11.415541087488739 #
face $-1 $-1 $367 $34 $-1 $465 forward single #
loop $-1 $-1 $466 $239 #
plane-surface $-1 -32.147107224442912 -35.087911801072082 0 -1 0 0 0 0 1 forward_v I I I I #
coedge $-1 $467 $242 $357 $468 reversed $147 $-1 #
coedge $-1 $242 $467 $469 $470 reversed $147 $-1 #
coedge $-1 $250 $249 $242 $356 reversed $240 $-1 #
edge $-1 $471 -11.415541087488739 $472 11.415541087488739 $355 $473 forward 7 unknown #
coedge $-1 $244 $243 $353 $468 forward $93 $-1 #
coedge $-1 $363 $466 $243 $359 reversed $351 $-1 #
edge $-1 $361 -3.7717272448161339 $474 3.7717272448161339 $358 $475 forward 7 unknown #
edge $-1 $472 -3.7717272448161339 $251 3.7717272448161339 $249 $476 forward 7 unknown #
vertex $-1 $359 $477 #
straight-curve $-1 0 -31.316184556255948 -11.415541087488739 1 0 0 I I #
coedge $-1 $478 $358 $246 $364 reversed $351 $-1 #
edge $-1 $368 -11.415541087488739 $361 11.415541087488739 $363 $479 forward 7 unknown #
coedge $-1 $469 $247 $250 $370 forward $367 $-1 #
coedge $-1 $247 $469 $478 $480 forward $367 $-1 #
loop $-1 $-1 $247 $350 #
vertex $-1 $248 $481 #
straight-curve $-1 0 -31.316184556255948 11.415541087488739 -1 0 0 I I #
edge $-1 $252 -3.7717272448161339 $471 3.7717272448161339 $250 $482 forward 7 unknown #
point $-1 -37.8204224621308 -31.316184556255948 -11.415541087488739 #
point $-1 -37.8204224621308 -31.316184556255948 11.415541087488739 #
plane-surface $-1 0 0 11.415541087488739 0 0 1 1 0 0 forward_v I I I I #
coedge $-1 $384 $383 $376 $483 forward $255 $-1 #
coedge $-1 $376 $257 $259 $380 reversed $155 $-1 #
coedge $-1 $257 $375 $374 $483 reversed $155 $-1 #
coedge $-1 $265 $260 $257 $378 forward $266 $-1 #
edge $-1 $381 -18.529468277435768 $484 -11.637232112504698 $377 $485 forward 7 unknown #
coedge $-1 $259 $258 $384 $486 reversed $97 $-1 #
edge $-1 $487 1.0692042983031357e-014 $381 10.105942562479861 $375 $488 forward 7 unknown #
vertex $-1 $261 $489 #
straight-curve $-1 -43.408371153407501 -9.0586557556729908 11.415541087488739 0 1 0 I I #
coedge $-1 $374 $262 $265 $388 reversed $255 $-1 #
coedge $-1 $262 $374 $379 $486 forward $255 $-1 #
vertex $-1 $263 $490 #
straight-curve $-1 -50.300607318338571 -23.77273006662368 36.31719250672851 0 0 1 I I #
straight-curve $-1 -50.300607318338578 -23.77273006662368 4.0245225025467306 -0.68199835119979291 0 -0.73135370988377701 I I #
edge $-1 $484 12.461892956068281 $267 23.77273006662368 $383 $491 forward 7 unknown #
point $-1 -50.300607318338571 -23.77273006662368 11.415541087488739 #
point $-1 -43.408371153407501 -23.77273006662368 11.415541087488739 #
edge $-1 $492 1 $492 0 $270 $-1 forward 7 unknown #
vertex $-1 $271 $493 #
ellipse-curve $-1 -43.778806173681204 -20.541062320750711 4.851911009028564 -0.73135370988377701 0 0.68199835119979291 1.0229975267996894 0 1.0970305648256655 1 I I #
point $-1 -45.83149170907334 -20.541062320750711 8.8170623598433977 #
edge $-1 $494 1 $494 0 $274 $-1 forward 7 unknown #
vertex $-1 $275 $495 #
ellipse-curve $-1 -43.778806173681204 -15.693560701941255 4.851911009028564 -0.73135370988377701 0 0.68199835119979291 1.0229975267996894 0 1.0970305648256655 1 I I #
point $-1 -45.83149170907334 -15.693560701941255 8.8170623598433977 #
loop $-1 $-1 $402 $278 #
plane-surface $-1 0 31.316184556255948 0 0 -1 0 0 0 -1 forward_v I I I I #
coedge $-1 $282 $281 $408 $496 reversed $111 $-1 #
coedge $-1 $497 $498 $282 $403 forward $399 $-1 #
edge $-1 $405 5.5748483338735655 $499 15.680790896353415 $402 $500 forward 7 unknown #
coedge $-1 $288 $283 $498 $501 forward $177 $-1 #
vertex $-1 $501 $502 #
straight-curve $-1 -43.408371153407501 12.830383000489125 11.415541087488739 0 1 0 I I #
coedge $-1 $503 $285 $288 $412 reversed $279 $-1 #
coedge $-1 $285 $503 $401 $496 forward $279 $-1 #
vertex $-1 $286 $504 #
straight-curve $-1 -50.300607318338571 20.005347445700551 36.31719250672851 0 0 1 I I #
straight-curve $-1 -50.300607318338578 20.005347445700551 4.0245225025467306 -0.68199835119979291 0 -0.73135370988377701 I I #
edge $-1 $505 -31.316184556255948 $289 -20.005347445700551 $407 $506 forward 7 unknown #
point $-1 -50.300607318338571 20.005347445700551 11.415541087488739 #
point $-1 -43.408371153407501 20.005347445700551 11.415541087488739 #
edge $-1 $507 1 $507 0 $292 $-1 forward 7 unknown #
vertex $-1 $293 $508 #
ellipse-curve $-1 -43.778806173681204 23.237015191573519 4.851911009028564 -0.73135370988377701 0 0.68199835119979291 1.0229975267996894 0 1.0970305648256655 1 I I #
point $-1 -45.83149170907334 23.237015191573519 8.8170623598433977 #
edge $-1 $509 1 $509 0 $296 $-1 forward 7 unknown #
vertex $-1 $297 $510 #
ellipse-curve $-1 -43.778806173681204 28.084516810382979 4.851911009028564 -0.73135370988377701 0 0.68199835119979291 1.0229975267996894 0 1.0970305648256655 1 I I #
point $-1 -45.83149170907334 28.084516810382979 8.8170623598433977 #
loop $-1 $-1 $308 $300 #
plane-surface $-1 50.300607318338571 0 0 -1 0 0 0 0 1 forward_v I I I I #
coedge $-1 $426 $303 $305 $430 reversed $199 $-1 #
coedge $-1 $303 $425 $511 $512 reversed $199 $-1 #
coedge $-1 $311 $306 $303 $428 forward $301 $-1 #
edge $-1 $431 27.818357435912798 $513 39.94026774427509 $427 $514 forward 7 unknown #
coedge $-1 $305 $304 $434 $515 reversed $125 $-1 #
edge $-1 $516 -100.60121463667714 $431 -86.147493666072108 $425 $517 forward 7 unknown #
vertex $-1 $307 $518 #
straight-curve $-1 38.17869700997629 7.6154590237468085 11.415541087488741 0 -1 0 I I #
coedge $-1 $511 $308 $311 $438 reversed $423 $-1 #
coedge $-1 $308 $511 $429 $515 forward $423 $-1 #
vertex $-1 $309 $519 #
straight-curve $-1 50.300607318338571 19.603494612875739 71.353053435312574 0 0 1 I I #
straight-curve $-1 -34.070670030808692 19.603494612875739 58.334829521477886 0.83867056331134215 0 -0.54463904215088732 I I #
edge $-1 $513 10.858341482111495 $312 19.603494612875739 $433 $520 forward 7 unknown #
point $-1 50.300607318338571 19.603494612875739 11.415541087488739 #
point $-1 38.178697009976283 19.603494612875739 11.415541087488741 #
edge $-1 $521 1 $521 0 $315 $-1 forward 7 unknown #
vertex $-1 $316 $522 #
ellipse-curve $-1 43.471029131635028 13.35695666232985 6.295935058900354 0.54463904215088732 0 0.83867056331134215 0.41933528165567108 0 -0.27231952107544366 1 I I #
point $-1 44.658987445813125 13.35695666232985 7.2071911939400497 #
edge $-1 $523 1 $523 0 $319 $-1 forward 7 unknown #
vertex $-1 $320 $524 #
ellipse-curve $-1 43.471029131635028 17.104879432657384 6.295935058900354 0.54463904215088732 0 0.83867056331134215 0.41933528165567108 0 -0.27231952107544366 1 I I #
point $-1 44.658987445813125 17.104879432657384 7.2071911939400497 #
plane-surface $-1 50.300607318338571 0 0 -1 0 0 0 0 1 forward_v I I I I #
coedge $-1 $328 $326 $330 $454 reversed $221 $-1 #
edge $-1 $341 -11.415541087488739 $456 11.415541087488739 $340 $525 forward 7 unknown #
vertex $-1 $454 $526 #
straight-curve $-1 -50.300607318338571 -31.316184556255948 0 0 0 -1 I I #
edge $-1 $452 -31.316184556255948 $456 31.316184556255948 $450 $527 forward 7 unknown #
straight-curve $-1 0 -31.316184556255948 -11.415541087488739 -1 0 0 I I #
vertex $-1 $333 $528 #
straight-curve $-1 0 31.316184556255948 -11.415541087488739 1 0 0 I I #
point $-1 50.300607318338571 31.316184556255948 -11.415541087488739 #
point $-1 50.300607318338571 -31.316184556255948 -11.415541087488739 #
straight-curve $-1 -50.300607318338571 0 11.415541087488739 0 -1 0 I I #
point $-1 -50.300607318338571 31.316184556255948 11.415541087488739 #
point $-1 -50.300607318338571 -31.316184556255948 11.415541087488739 #
straight-curve $-1 50.300607318338571 -31.316184556255948 0 0 0 -1 I I #
straight-curve $-1 50.300607318338571 31.316184556255948 0 0 0 -1 I I #
plane-surface $-1 0 0 11.415541087488739 0 0 1 1 0 0 forward_v I I I I #
coedge $-1 $358 $478 $467 $529 forward $351 $-1 #
coedge $-1 $354 $353 $466 $529 reversed $147 $-1 #
edge $-1 $474 -2.8366576188439439 $472 2.8366576188439439 $353 $530 forward 7 unknown #
coedge $-1 $366 $365 $354 $470 forward $367 $-1 #
edge $-1 $471 -2.8366576188439439 $531 2.8366576188439439 $354 $532 forward 7 unknown #
vertex $-1 $370 $533 #
vertex $-1 $360 $534 #
straight-curve $-1 -37.8204224621308 -38.859639045888215 0 0 0 -1 I I #
vertex $-1 $529 $535 #
straight-curve $-1 -32.147107224442912 -35.087911801072082 -11.415541087488739 0 -1 0 I I #
straight-curve $-1 -37.8204224621308 -35.087911801072082 -11.415541087488739 0 1 0 I I #
point $-1 -32.147107224442912 -31.316184556255948 -11.415541087488739 #
coedge $-1 $466 $363 $366 $480 reversed $351 $-1 #
straight-curve $-1 -32.147107224442912 -31.316184556255948 0 0 0 -1 I I #
edge $-1 $531 -3.7717272448161339 $368 3.7717272448161339 $478 $536 forward 7 unknown #
point $-1 -32.147107224442912 -31.316184556255948 11.415541087488739 #
straight-curve $-1 -37.8204224621308 -35.087911801072082 11.415541087488739 0 -1 0 I I #
edge $-1 $484 24.901651419239769 $487 32.292670004181772 $374 $537 forward 7 unknown #
vertex $-1 $388 $538 #
straight-curve $-1 -61.937839430843269 -12.461892956068281 11.415541087488741 -1 0 0 I I #
edge $-1 $487 3.4032372003952904 $385 14.714074310950689 $384 $539 forward 7 unknown #
vertex $-1 $486 $540 #
straight-curve $-1 -50.300607318338578 -12.461892956068281 4.0245225025467306 0.68199835119979291 0 0.73135370988377701 I I #
point $-1 -43.408371153407501 -12.461892956068281 11.415541087488739 #
point $-1 -50.300607318338571 -23.77273006662368 4.0245225025467386 #
straight-curve $-1 -50.300607318338571 0 11.415541087488739 0 -1 0 I I #
vertex $-1 $391 $541 #
point $-1 -42.755808646881519 -20.541062320750711 5.9489415738542295 #
vertex $-1 $395 $542 #
point $-1 -42.755808646881519 -15.693560701941255 5.9489415738542295 #
edge $-1 $499 -18.485801555766823 $409 -7.1749644452114261 $408 $543 forward 7 unknown #
coedge $-1 $498 $402 $503 $544 reversed $399 $-1 #
coedge $-1 $402 $497 $404 $501 reversed $399 $-1 #
vertex $-1 $403 $545 #
straight-curve $-1 -39.606333781516817 31.316184556255948 15.492727098506565 -0.68199835119979291 0 -0.73135370988377701 I I #
edge $-1 $405 43.408371153407501 $505 50.300607318338571 $498 $546 forward 7 unknown #
point $-1 -43.408371153407501 31.316184556255948 11.415541087488739 #
coedge $-1 $408 $407 $497 $544 forward $279 $-1 #
point $-1 -50.300607318338571 20.005347445700551 4.0245225025467386 #
vertex $-1 $501 $547 #
straight-curve $-1 -50.300607318338571 0 11.415541087488739 0 -1 0 I I #
vertex $-1 $415 $548 #
point $-1 -42.755808646881519 23.237015191573519 5.9489415738542295 #
vertex $-1 $419 $549 #
point $-1 -42.755808646881519 28.084516810382979 5.9489415738542295 #
coedge $-1 $434 $433 $426 $512 forward $423 $-1 #
edge $-1 $513 59.937512347823834 $516 67.80957309277035 $511 $550 forward 7 unknown #
vertex $-1 $438 $551 #
straight-curve $-1 10.360339574063484 10.858341482111495 11.415541087488734 1 0 0 I I #
edge $-1 $516 3.2428824583646865 $435 11.988035589128931 $434 $552 forward 7 unknown #
vertex $-1 $515 $553 #
straight-curve $-1 -34.070670030808692 10.858341482111495 58.334829521477886 -0.83867056331134215 0 0.54463904215088732 I I #
point $-1 38.178697009976283 10.858341482111495 11.415541087488741 #
point $-1 50.300607318338571 19.603494612875739 3.5434803425422245 #
straight-curve $-1 50.300607318338571 0 11.415541087488739 0 1 0 I I #
vertex $-1 $441 $554 #
point $-1 43.890364413290698 13.35695666232985 6.0236155378249103 #
vertex $-1 $445 $555 #
point $-1 43.890364413290698 17.104879432657384 6.0236155378249103 #
straight-curve $-1 -50.300607318338571 31.316184556255948 0 0 0 -1 I I #
point $-1 -50.300607318338571 -31.316184556255948 -11.415541087488739 #
straight-curve $-1 -50.300607318338571 0 -11.415541087488739 0 1 0 I I #
point $-1 -50.300607318338571 31.316184556255948 -11.415541087488739 #
edge $-1 $531 -11.415541087488739 $474 11.415541087488739 $466 $556 forward 7 unknown #
straight-curve $-1 -34.983764843286856 -38.859639045888215 -11.415541087488739 -1 0 0 I I #
vertex $-1 $480 $557 #
straight-curve $-1 -34.983764843286856 -38.859639045888215 11.415541087488739 1 0 0 I I #
point $-1 -37.8204224621308 -38.859639045888215 11.415541087488739 #
point $-1 -37.8204224621308 -38.859639045888215 -11.415541087488739 #
point $-1 -32.147107224442912 -38.859639045888215 -11.415541087488739 #
straight-curve $-1 -32.147107224442912 -35.087911801072082 11.415541087488739 0 1 0 I I #
straight-curve $-1 -50.300607318338571 -12.461892956068281 36.31719250672851 0 0 -1 I I #
point $-1 -50.300607318338571 -12.461892956068281 11.415541087488739 #
straight-curve $-1 -50.300607318338571 -9.0586557556729908 4.0245225025467413 0 -1 0 I I #
point $-1 -50.300607318338571 -12.461892956068281 4.0245225025467386 #
point $-1 -42.681775608855546 -20.541062320750711 3.8289134822288751 #
point $-1 -42.681775608855546 -15.693560701941255 3.8289134822288751 #
straight-curve $-1 -50.300607318338571 12.830383000489125 4.0245225025467413 0 -1 0 I I #
edge $-1 $505 -11.415541087488739 $499 -4.0245225025467386 $497 $558 forward 7 unknown #
point $-1 -50.300607318338571 31.316184556255948 4.0245225025467386 #
straight-curve $-1 0 31.316184556255948 11.415541087488739 -1 0 0 I I #
point $-1 -50.300607318338571 31.316184556255948 11.415541087488739 #
point $-1 -42.681775608855546 23.237015191573519 3.8289134822288751 #
point $-1 -42.681775608855546 28.084516810382979 3.8289134822288751 #
straight-curve $-1 50.300607318338571 10.858341482111495 71.353053435312574 0 0 -1 I I #
point $-1 50.300607318338571 10.858341482111495 11.415541087488739 #
straight-curve $-1 50.300607318338564 7.6154590237468085 3.5434803425422174 0 1 0 I I #
point $-1 50.300607318338571 10.858341482111495 3.5434803425422245 #
point $-1 43.198709610559582 13.35695666232985 5.8765997772446825 #
point $-1 43.198709610559582 17.104879432657384 5.8765997772446825 #
straight-curve $-1 -32.147107224442912 -38.859639045888215 0 0 0 -1 I I #
point $-1 -32.147107224442912 -38.859639045888215 11.415541087488739 #
straight-curve $-1 -50.300607318338571 31.316184556255948 0 0 0 -1 I I #
End-of-ACIS-data 