500 0 13 0           
7 Unknown 11 ACIS 5.0 NT 24 Thu Mar 25 22:06:56 1999 
-1 9.9999999999999995e-007 1e-010 
body $-1 $13 $-1 $14 #
body $-1 $15 $-1 $16 #
body $-1 $17 $-1 $18 #
body $-1 $19 $-1 $20 #
body $-1 $21 $-1 $22 #
body $-1 $23 $-1 $24 #
body $-1 $25 $-1 $26 #
body $-1 $27 $-1 $28 #
body $-1 $29 $-1 $30 #
body $-1 $31 $-1 $32 #
body $-1 $33 $-1 $34 #
body $-1 $35 $-1 $36 #
body $-1 $37 $-1 $38 #
lump $-1 $-1 $39 $0 #
transform $-1 1 0 0 0 1 0 0 0 1 72.797631763664668 41.673295009311694 19.697744471700783 1 rotate no_reflect no_shear #
lump $-1 $-1 $40 $1 #
transform $-1 1 0 0 0 1 0 0 0 1 72.797631763664668 41.673295009311694 19.697744471700783 1 rotate no_reflect no_shear #
lump $-1 $-1 $41 $2 #
transform $-1 1 0 0 0 1 0 0 0 1 72.797631763664668 41.673295009311694 19.697744471700783 1 rotate no_reflect no_shear #
lump $-1 $-1 $42 $3 #
transform $-1 1 0 0 0 1 0 0 0 1 72.797631763664668 41.673295009311694 19.697744471700783 1 rotate no_reflect no_shear #
lump $-1 $-1 $43 $4 #
transform $-1 1 0 0 0 1 0 0 0 1 72.797631763664668 41.673295009311694 19.697744471700783 1 rotate no_reflect no_shear #
lump $-1 $-1 $44 $5 #
transform $-1 1 0 0 0 1 0 0 0 1 72.797631763664668 41.673295009311694 19.697744471700783 1 rotate no_reflect no_shear #
lump $-1 $-1 $45 $6 #
transform $-1 1 0 0 0 1 0 0 0 1 72.797631763664668 41.673295009311694 19.697744471700783 1 rotate no_reflect no_shear #
lump $-1 $-1 $46 $7 #
transform $-1 1 0 0 0 1 0 0 0 1 72.797631763664668 41.673295009311694 19.697744471700783 1 rotate no_reflect no_shear #
lump $-1 $-1 $47 $8 #
transform $-1 1 0 0 0 1 0 0 0 1 72.797631763664668 41.673295009311694 19.697744471700783 1 rotate no_reflect no_shear #
lump $-1 $-1 $48 $9 #
transform $-1 1 0 0 0 1 0 0 0 1 72.797631763664668 41.673295009311694 19.697744471700783 1 rotate no_reflect no_shear #
lump $-1 $-1 $49 $10 #
transform $-1 1 0 0 0 1 0 0 0 1 72.797631763664668 41.673295009311694 19.697744471700783 1 rotate no_reflect no_shear #
lump $-1 $-1 $50 $11 #
transform $-1 1 0 0 0 1 0 0 0 1 72.797631763664668 41.673295009311694 19.697744471700783 1 rotate no_reflect no_shear #
lump $-1 $-1 $51 $12 #
transform $-1 1 0 0 0 1 0 0 0 1 72.797631763664668 41.673295009311694 19.697744471700783 1 rotate no_reflect no_shear #
shell $-1 $-1 $-1 $52 $-1 $13 #
shell $-1 $-1 $-1 $53 $-1 $15 #
shell $-1 $-1 $-1 $54 $-1 $17 #
shell $-1 $-1 $-1 $55 $-1 $19 #
shell $-1 $-1 $-1 $56 $-1 $21 #
shell $-1 $-1 $-1 $57 $-1 $23 #
shell $-1 $-1 $-1 $58 $-1 $25 #
shell $-1 $-1 $-1 $59 $-1 $27 #
shell $-1 $-1 $-1 $60 $-1 $29 #
shell $-1 $-1 $-1 $61 $-1 $31 #
shell $-1 $-1 $-1 $62 $-1 $33 #
shell $-1 $-1 $-1 $63 $-1 $35 #
shell $-1 $-1 $-1 $64 $-1 $37 #
face $-1 $65 $66 $39 $-1 $67 forward single #
face $-1 $68 $69 $40 $-1 $70 forward single #
face $-1 $71 $72 $41 $-1 $73 forward single #
face $-1 $74 $75 $42 $-1 $76 reversed single #
face $-1 $77 $78 $43 $-1 $79 forward single #
face $-1 $80 $81 $44 $-1 $82 forward single #
face $-1 $83 $84 $45 $-1 $85 reversed single #
face $-1 $86 $87 $46 $-1 $88 forward single #
face $-1 $89 $90 $47 $-1 $91 forward single #
face $-1 $92 $93 $48 $-1 $94 reversed single #
face $-1 $95 $96 $49 $-1 $97 forward single #
face $-1 $98 $99 $50 $-1 $100 forward single #
face $-1 $101 $102 $51 $-1 $103 forward single #
face $-1 $104 $105 $39 $-1 $106 reversed single #
loop $-1 $-1 $107 $52 #
plane-surface $-1 0 0 19.697744471700783 0 0 1 1 0 0 forward_v I I I I #
face $-1 $108 $109 $40 $-1 $110 reversed single #
loop $-1 $-1 $111 $53 #
plane-surface $-1 0 -41.673295009311694 0 0 1 0 0 0 1 forward_v I I I I #
face $-1 $112 $113 $41 $-1 $114 reversed single #
loop $-1 $-1 $115 $54 #
plane-surface $-1 0 41.673295009311694 0 0 -1 0 0 0 -1 forward_v I I I I #
face $-1 $116 $117 $42 $-1 $118 reversed single #
loop $-1 $-1 $119 $55 #
plane-surface $-1 72.797634152662511 -12.549040175533671 216.33818590582175 0 -1 0 -0.70710678939079041 0 -0.70710677298230451 forward_v I I I I #
face $-1 $120 $121 $43 $-1 $122 forward single #
loop $-1 $123 $124 $56 #
cone-surface $-1 67.509337361511882 -19.71364299952721 14.409449977329508 -0.70710678939079041 0 -0.70710677298230451 0.70710677298230451 0 -0.70710678939079041 1 I I 0 1 1 forward I I I I #
face $-1 $125 $126 $44 $-1 $127 forward single #
loop $-1 $128 $129 $57 #
cone-surface $-1 67.509337361511882 -15.414881305131086 14.409449977329508 -0.70710678939079041 0 -0.70710677298230451 0.70710677298230451 0 -0.70710678939079041 1 I I 0 1 1 forward I I I I #
face $-1 $130 $131 $45 $-1 $132 reversed single #
loop $-1 $-1 $133 $58 #
plane-surface $-1 72.797634152662511 22.57948412912463 216.33818590582175 0 -1 0 -0.70710678939079041 0 -0.70710677298230451 forward_v I I I I #
face $-1 $134 $135 $46 $-1 $136 forward single #
loop $-1 $137 $138 $59 #
cone-surface $-1 67.509337361511882 15.41488130513109 14.409449977329508 -0.70710678939079041 0 -0.70710677298230451 0.70710677298230451 0 -0.70710678939079041 1 I I 0 1 1 forward I I I I #
face $-1 $139 $140 $47 $-1 $141 forward single #
loop $-1 $142 $143 $60 #
cone-surface $-1 67.509337361511882 19.713642999527217 14.409449977329508 -0.70710678939079041 0 -0.70710677298230451 0.70710677298230451 0 -0.70710678939079041 1 I I 0 1 1 forward I I I I #
face $-1 $144 $145 $48 $-1 $146 reversed single #
loop $-1 $-1 $147 $61 #
plane-surface $-1 -156.3076452435306 -11.38445861363601 121.73566023682554 0 1 0 -0.57357644374324357 0 0.81915203911291934 forward_v I I I I #
face $-1 $148 $149 $49 $-1 $150 forward single #
loop $-1 $151 $152 $62 #
cone-surface $-1 -60.062023568109865 -8.9602929628904633 10.463928743584226 0.57357644374324357 0 -0.81915203911291934 0.40957601955645967 0 0.28678822187162178 1 I I 0 1 0.5 forward I I I I #
face $-1 $153 $154 $50 $-1 $155 forward single #
loop $-1 $156 $157 $63 #
cone-surface $-1 -60.062023568109865 -5.3240444867721379 10.463928743584226 0.57357644374324357 0 -0.81915203911291934 0.40957601955645967 0 0.28678822187162178 1 I I 0 1 0.5 forward I I I I #
face $-1 $158 $159 $51 $-1 $160 forward single #
loop $-1 $161 $162 $64 #
cone-surface $-1 -60.062023568109865 -1.6877960106538126 10.463928743584226 0.57357644374324357 0 -0.81915203911291934 0.40957601955645967 0 0.28678822187162178 1 I I 0 1 0.5 forward I I I I #
face $-1 $163 $164 $39 $-1 $165 reversed single #
loop $-1 $-1 $166 $65 #
plane-surface $-1 0 0 -19.697744471700783 0 0 1 1 0 0 forward_v I I I I #
coedge $-1 $167 $168 $169 $170 forward $66 $-1 #
face $-1 $171 $172 $40 $-1 $173 forward single #
loop $-1 $-1 $174 $68 #
plane-surface $-1 -72.797631763664668 0 0 1 0 0 0 0 -1 forward_v I I I I #
coedge $-1 $175 $176 $177 $178 forward $69 $-1 #
face $-1 $179 $180 $41 $-1 $181 forward single #
loop $-1 $-1 $182 $71 #
plane-surface $-1 72.797631763664668 0 0 -1 0 0 0 0 1 forward_v I I I I #
coedge $-1 $183 $184 $185 $186 forward $72 $-1 #
face $-1 $187 $188 $42 $-1 $189 reversed single #
loop $-1 $-1 $190 $74 #
plane-surface $-1 -30.153765190653388 -17.56426215232915 113.38678895150368 0.70710678939079041 0 0.70710677298230451 0.70710677298230451 0 -0.70710678939079041 forward_v I I I I #
coedge $-1 $191 $192 $193 $194 reversed $75 $-1 #
face $-1 $-1 $195 $43 $-1 $196 forward single #
loop $-1 $197 $198 $77 #
cone-surface $-1 66.498666888953267 -19.71364299952721 13.398779528223603 -0.70710678939079041 0 -0.70710677298230451 0.35355338649115226 0 -0.35355339469539521 1 I I -0.70710678118654746 0.70710678118654746 0.5 forward I I I I #
loop $-1 $-1 $199 $56 #
coedge $-1 $124 $124 $200 $201 reversed $78 $-1 #
face $-1 $-1 $202 $44 $-1 $203 forward single #
loop $-1 $204 $205 $80 #
cone-surface $-1 66.498666888953267 -15.414881305131086 13.398779528223603 -0.70710678939079041 0 -0.70710677298230451 0.35355338649115226 0 -0.35355339469539521 1 I I -0.70710678118654746 0.70710678118654746 0.5 forward I I I I #
loop $-1 $-1 $206 $57 #
coedge $-1 $129 $129 $207 $208 reversed $81 $-1 #
face $-1 $209 $210 $45 $-1 $211 reversed single #
loop $-1 $-1 $212 $83 #
plane-surface $-1 -30.153765190653388 17.56426215232915 113.38678895150368 0.70710678939079041 0 0.70710677298230451 0.70710677298230451 0 -0.70710678939079041 forward_v I I I I #
coedge $-1 $213 $214 $215 $216 reversed $84 $-1 #
face $-1 $-1 $217 $46 $-1 $218 forward single #
loop $-1 $219 $220 $86 #
cone-surface $-1 66.498666888953267 15.41488130513109 13.398779528223603 -0.70710678939079041 0 -0.70710677298230451 0.35355338649115226 0 -0.35355339469539521 1 I I -0.70710678118654746 0.70710678118654746 0.5 forward I I I I #
loop $-1 $-1 $221 $59 #
coedge $-1 $138 $138 $222 $223 reversed $87 $-1 #
face $-1 $-1 $224 $47 $-1 $225 forward single #
loop $-1 $226 $227 $89 #
cone-surface $-1 66.498666888953267 19.713642999527217 13.398779528223603 -0.70710678939079041 0 -0.70710677298230451 0.35355338649115226 0 -0.35355339469539521 1 I I -0.70710678118654746 0.70710678118654746 0.5 forward I I I I #
loop $-1 $-1 $228 $60 #
coedge $-1 $143 $143 $229 $230 reversed $90 $-1 #
face $-1 $231 $232 $48 $-1 $233 reversed single #
loop $-1 $-1 $234 $92 #
plane-surface $-1 -72.797631763664668 -5.3240444867721308 2.47100323323086 -0.57357644374324357 0 0.81915203911291934 0.81915203911291934 0 0.57357644374324357 forward_v I I I I #
coedge $-1 $235 $236 $237 $238 reversed $93 $-1 #
face $-1 $-1 $239 $49 $-1 $240 forward single #
loop $-1 $241 $242 $95 #
cone-surface $-1 -59.484189106545628 -8.9602929628904633 9.6386956249243774 0.57357644374324357 0 -0.81915203911291934 0.20478800977822983 0 0.14339411093581089 1 I I -0.70710678118654746 0.70710678118654746 0.25 forward I I I I #
loop $-1 $-1 $243 $62 #
coedge $-1 $152 $152 $244 $245 reversed $96 $-1 #
face $-1 $-1 $246 $50 $-1 $247 forward single #
loop $-1 $248 $249 $98 #
cone-surface $-1 -59.484189106545628 -5.3240444867721379 9.6386956249243774 0.57357644374324357 0 -0.81915203911291934 0.20478800977822983 0 0.14339411093581089 1 I I -0.70710678118654746 0.70710678118654746 0.25 forward I I I I #
loop $-1 $-1 $250 $63 #
coedge $-1 $157 $157 $251 $252 reversed $99 $-1 #
face $-1 $-1 $253 $51 $-1 $254 forward single #
loop $-1 $255 $256 $101 #
cone-surface $-1 -59.484189106545628 -1.6877960106538126 9.6386956249243774 0.57357644374324357 0 -0.81915203911291934 0.20478800977822983 0 0.14339411093581089 1 I I -0.70710678118654746 0.70710678118654746 0.25 forward I I I I #
loop $-1 $-1 $257 $64 #
coedge $-1 $162 $162 $258 $259 reversed $102 $-1 #
face $-1 $260 $261 $39 $-1 $262 reversed single #
loop $-1 $-1 $263 $104 #
plane-surface $-1 0 -41.673295009311694 0 0 1 0 0 0 1 forward_v I I I I #
coedge $-1 $264 $265 $266 $267 forward $105 $-1 #
coedge $-1 $268 $107 $269 $270 forward $66 $-1 #
coedge $-1 $107 $268 $271 $272 forward $66 $-1 #
coedge $-1 $273 $274 $107 $170 reversed $275 $-1 #
edge $-1 $276 -41.673295009311694 $277 41.673295009311694 $169 $278 forward 7 unknown #
face $-1 $279 $280 $40 $-1 $281 reversed single #
loop $-1 $-1 $282 $108 #
plane-surface $-1 0 -48.916476723528554 -2.5554573904116715 0 0 1 1 0 0 forward_v I I I I #
coedge $-1 $283 $284 $176 $285 forward $109 $-1 #
coedge $-1 $286 $111 $287 $288 reversed $69 $-1 #
coedge $-1 $111 $286 $174 $285 reversed $69 $-1 #
coedge $-1 $289 $282 $111 $178 reversed $172 $-1 #
edge $-1 $290 -72.797631763664668 $291 72.797631763664668 $177 $292 forward 7 unknown #
face $-1 $293 $294 $41 $-1 $295 reversed single #
loop $-1 $-1 $296 $112 #
plane-surface $-1 0 48.916476723528554 -2.5554573904116715 0 0 1 1 0 0 forward_v I I I I #
coedge $-1 $297 $298 $184 $299 forward $113 $-1 #
coedge $-1 $300 $115 $301 $302 reversed $72 $-1 #
coedge $-1 $115 $300 $182 $299 reversed $72 $-1 #
coedge $-1 $296 $303 $115 $186 reversed $180 $-1 #
edge $-1 $304 -72.797631763664668 $305 72.797631763664668 $185 $306 forward 7 unknown #
face $-1 $307 $308 $42 $-1 $309 forward single #
loop $-1 $-1 $310 $116 #
plane-surface $-1 72.797634152662511 -22.57948412912463 216.33818590582175 0 1 0 0.70710678939079041 0 0.70710677298230451 forward_v I I I I #
coedge $-1 $311 $312 $313 $314 reversed $117 $-1 #
coedge $-1 $192 $119 $315 $316 reversed $75 $-1 #
coedge $-1 $119 $191 $311 $317 reversed $75 $-1 #
coedge $-1 $313 $318 $119 $194 forward $308 $-1 #
edge $-1 $319 -36.398814687333413 $320 -27.136460038754322 $193 $321 forward 7 unknown #
loop $-1 $-1 $200 $120 #
plane-surface $-1 -30.153765190653388 -17.56426215232915 113.38678895150368 0.70710678939079041 0 0.70710677298230451 0.70710677298230451 0 -0.70710678939079041 forward_v I I I I #
loop $-1 $-1 $322 $77 #
coedge $-1 $198 $198 $199 $323 reversed $121 $-1 #
coedge $-1 $199 $199 $198 $323 forward $123 $-1 #
coedge $-1 $200 $200 $124 $201 forward $195 $-1 #
edge $-1 $324 0 $324 6.2831853071796004 $200 $325 forward 7 unknown #
loop $-1 $-1 $207 $125 #
plane-surface $-1 -30.153765190653388 -17.56426215232915 113.38678895150368 0.70710678939079041 0 0.70710677298230451 0.70710677298230451 0 -0.70710678939079041 forward_v I I I I #
loop $-1 $-1 $326 $80 #
coedge $-1 $205 $205 $206 $327 reversed $126 $-1 #
coedge $-1 $206 $206 $205 $327 forward $128 $-1 #
coedge $-1 $207 $207 $129 $208 forward $202 $-1 #
edge $-1 $328 0 $328 6.2831853071796004 $207 $329 forward 7 unknown #
face $-1 $330 $331 $45 $-1 $332 reversed single #
loop $-1 $-1 $333 $130 #
plane-surface $-1 72.797634152662511 12.549040175533671 216.33818590582175 0 1 0 0.70710678939079041 0 0.70710677298230451 forward_v I I I I #
coedge $-1 $334 $335 $336 $337 reversed $131 $-1 #
coedge $-1 $214 $133 $338 $339 reversed $84 $-1 #
coedge $-1 $133 $213 $334 $340 reversed $84 $-1 #
coedge $-1 $336 $341 $133 $216 forward $342 $-1 #
edge $-1 $343 -36.398814687333413 $344 -27.136460038754322 $215 $345 forward 7 unknown #
loop $-1 $-1 $222 $134 #
plane-surface $-1 -30.153765190653388 17.56426215232915 113.38678895150368 0.70710678939079041 0 0.70710677298230451 0.70710677298230451 0 -0.70710678939079041 forward_v I I I I #
loop $-1 $-1 $346 $86 #
coedge $-1 $220 $220 $221 $347 reversed $135 $-1 #
coedge $-1 $221 $221 $220 $347 forward $137 $-1 #
coedge $-1 $222 $222 $138 $223 forward $217 $-1 #
edge $-1 $348 0 $348 6.2831853071796004 $222 $349 forward 7 unknown #
loop $-1 $-1 $229 $139 #
plane-surface $-1 -30.153765190653388 17.56426215232915 113.38678895150368 0.70710678939079041 0 0.70710677298230451 0.70710677298230451 0 -0.70710678939079041 forward_v I I I I #
loop $-1 $-1 $350 $89 #
coedge $-1 $227 $227 $228 $351 reversed $140 $-1 #
coedge $-1 $228 $228 $227 $351 forward $142 $-1 #
coedge $-1 $229 $229 $143 $230 forward $224 $-1 #
edge $-1 $352 0 $352 6.2831853071796004 $229 $353 forward 7 unknown #
face $-1 $354 $355 $48 $-1 $356 reversed single #
loop $-1 $-1 $357 $144 #
plane-surface $-1 -156.3076452435306 0.73636964009174832 121.73566023682554 0 -1 0 0.57357644374324357 0 -0.81915203911291934 forward_v I I I I #
coedge $-1 $358 $359 $360 $361 reversed $145 $-1 #
coedge $-1 $236 $147 $362 $363 reversed $93 $-1 #
coedge $-1 $147 $235 $358 $364 reversed $93 $-1 #
coedge $-1 $360 $365 $147 $238 forward $366 $-1 #
edge $-1 $367 5.3561908581006321 $368 29.95852654795344 $237 $369 forward 7 unknown #
loop $-1 $-1 $244 $148 #
plane-surface $-1 -72.797631763664668 -5.3240444867721308 2.47100323323086 -0.57357644374324357 0 0.81915203911291934 0.81915203911291934 0 0.57357644374324357 forward_v I I I I #
loop $-1 $-1 $370 $95 #
coedge $-1 $242 $242 $243 $371 reversed $149 $-1 #
coedge $-1 $243 $243 $242 $371 forward $151 $-1 #
coedge $-1 $244 $244 $152 $245 forward $239 $-1 #
edge $-1 $372 0 $372 6.2831853071796004 $244 $373 forward 7 unknown #
loop $-1 $-1 $251 $153 #
plane-surface $-1 -72.797631763664668 -5.3240444867721308 2.47100323323086 -0.57357644374324357 0 0.81915203911291934 0.81915203911291934 0 0.57357644374324357 forward_v I I I I #
loop $-1 $-1 $374 $98 #
coedge $-1 $249 $249 $250 $375 reversed $154 $-1 #
coedge $-1 $250 $250 $249 $375 forward $156 $-1 #
coedge $-1 $251 $251 $157 $252 forward $246 $-1 #
edge $-1 $376 0 $376 6.2831853071796004 $251 $377 forward 7 unknown #
loop $-1 $-1 $258 $158 #
plane-surface $-1 -72.797631763664668 -5.3240444867721308 2.47100323323086 -0.57357644374324357 0 0.81915203911291934 0.81915203911291934 0 0.57357644374324357 forward_v I I I I #
loop $-1 $-1 $378 $101 #
coedge $-1 $256 $256 $257 $379 reversed $159 $-1 #
coedge $-1 $257 $257 $256 $379 forward $161 $-1 #
coedge $-1 $258 $258 $162 $259 forward $253 $-1 #
edge $-1 $380 0 $380 6.2831853071796004 $258 $381 forward 7 unknown #
face $-1 $382 $383 $39 $-1 $384 reversed single #
loop $-1 $-1 $385 $163 #
plane-surface $-1 -72.797631763664668 0 0 1 0 0 0 0 -1 forward_v I I I I #
coedge $-1 $386 $271 $387 $388 forward $164 $-1 #
coedge $-1 $389 $166 $386 $390 forward $105 $-1 #
coedge $-1 $166 $389 $391 $392 forward $105 $-1 #
coedge $-1 $274 $273 $166 $267 reversed $275 $-1 #
edge $-1 $393 -41.673295009311694 $394 41.673295009311694 $266 $395 forward 7 unknown #
coedge $-1 $168 $167 $396 $397 forward $66 $-1 #
coedge $-1 $398 $399 $167 $270 reversed $383 $-1 #
edge $-1 $277 -72.797631763664668 $400 72.797631763664668 $269 $401 forward 7 unknown #
coedge $-1 $263 $402 $168 $272 reversed $164 $-1 #
edge $-1 $403 -72.797631763664668 $276 72.797631763664668 $271 $404 forward 7 unknown #
coedge $-1 $266 $169 $402 $405 forward $275 $-1 #
coedge $-1 $169 $266 $398 $406 reversed $275 $-1 #
loop $-1 $-1 $273 $382 #
vertex $-1 $170 $407 #
vertex $-1 $170 $408 #
straight-curve $-1 72.797631763664668 0 19.697744471700783 0 1 0 I I #
face $-1 $409 $410 $40 $-1 $411 reversed single #
loop $-1 $-1 $412 $171 #
plane-surface $-1 0 -48.916476723528554 -13.417560874379124 0 0 1 1 0 0 forward_v I I I I #
coedge $-1 $177 $413 $414 $415 forward $172 $-1 #
coedge $-1 $416 $174 $417 $418 reversed $109 $-1 #
coedge $-1 $174 $416 $289 $419 reversed $109 $-1 #
edge $-1 $290 2.5554573904116715 $420 13.417560874379124 $174 $421 forward 7 unknown #
coedge $-1 $176 $175 $422 $423 forward $69 $-1 #
coedge $-1 $414 $424 $175 $288 forward $425 $-1 #
edge $-1 $426 -13.417560874379124 $291 -2.5554573904116715 $287 $427 forward 7 unknown #
coedge $-1 $413 $177 $284 $419 forward $172 $-1 #
vertex $-1 $285 $428 #
vertex $-1 $415 $429 #
straight-curve $-1 0 -41.673295009311694 -2.5554573904116715 1 0 0 I I #
face $-1 $430 $431 $41 $-1 $432 reversed single #
loop $-1 $-1 $433 $179 #
plane-surface $-1 0 48.916476723528554 -13.417560874379124 0 0 1 1 0 0 forward_v I I I I #
coedge $-1 $434 $185 $298 $435 forward $180 $-1 #
coedge $-1 $436 $182 $433 $437 reversed $113 $-1 #
coedge $-1 $182 $436 $296 $435 reversed $113 $-1 #
edge $-1 $304 2.5554573904116715 $438 13.417560874379124 $182 $439 forward 7 unknown #
coedge $-1 $184 $183 $440 $441 forward $72 $-1 #
coedge $-1 $442 $443 $183 $302 forward $444 $-1 #
edge $-1 $445 -13.417560874379124 $305 -2.5554573904116715 $301 $446 forward 7 unknown #
coedge $-1 $185 $434 $442 $447 forward $180 $-1 #
vertex $-1 $299 $448 #
vertex $-1 $447 $449 #
straight-curve $-1 0 41.673295009311694 -2.5554573904116715 -1 0 0 I I #
face $-1 $-1 $450 $42 $-1 $451 reversed single #
loop $-1 $-1 $193 $187 #
plane-surface $-1 0 0 19.697744471700783 0 0 1 1 0 0 forward_v I I I I #
coedge $-1 $452 $453 $454 $455 reversed $188 $-1 #
coedge $-1 $456 $190 $192 $317 forward $117 $-1 #
coedge $-1 $190 $456 $452 $457 forward $117 $-1 #
coedge $-1 $454 $193 $190 $314 forward $308 $-1 #
edge $-1 $320 3.7669090993690961 $458 13.797353052960055 $313 $459 forward 7 unknown #
coedge $-1 $460 $461 $191 $316 forward $450 $-1 #
edge $-1 $462 -97.733703344723082 $319 -88.471348481210086 $315 $463 forward 7 unknown #
edge $-1 $320 132.49631581181811 $462 145.59526352732937 $192 $464 forward 7 unknown #
coedge $-1 $193 $454 $460 $465 forward $308 $-1 #
vertex $-1 $316 $466 #
vertex $-1 $194 $467 #
straight-curve $-1 36.398817076331255 -12.549040175533671 19.697744471700787 -1 0 0 I I #
coedge $-1 $322 $322 $-1 $468 reversed $197 $-1 #
edge $-1 $469 0 $469 6.2831853071796004 $198 $470 forward 7 unknown #
vertex $-1 $201 $471 #
ellipse-curve $-1 68.16645443937513 -19.71364299952721 15.066567039944285 0.70710678939079041 0 0.70710677298230451 0.70710677298230451 0 -0.70710678939079041 1 I I #
coedge $-1 $326 $326 $-1 $472 reversed $204 $-1 #
edge $-1 $473 0 $473 6.2831853071796004 $205 $474 forward 7 unknown #
vertex $-1 $208 $475 #
ellipse-curve $-1 68.16645443937513 -15.414881305131086 15.066567039944285 0.70710678939079041 0 0.70710677298230451 0.70710677298230451 0 -0.70710678939079041 1 I I #
face $-1 $-1 $342 $45 $-1 $476 forward single #
loop $-1 $-1 $477 $209 #
plane-surface $-1 72.797631763664668 0 0 -1 0 0 0 0 1 forward_v I I I I #
coedge $-1 $478 $479 $480 $481 reversed $210 $-1 #
coedge $-1 $482 $212 $214 $340 forward $131 $-1 #
coedge $-1 $212 $482 $478 $483 forward $131 $-1 #
coedge $-1 $480 $215 $212 $337 forward $342 $-1 #
edge $-1 $344 -13.797353052960055 $484 -3.7669090993690961 $336 $485 forward 7 unknown #
coedge $-1 $486 $487 $213 $339 forward $331 $-1 #
edge $-1 $488 -97.733703344723082 $343 -88.471348481210086 $338 $489 forward 7 unknown #
edge $-1 $344 132.49631581181811 $488 145.59526352732937 $214 $490 forward 7 unknown #
coedge $-1 $215 $480 $486 $491 forward $342 $-1 #
loop $-1 $-1 $480 $330 #
vertex $-1 $339 $492 #
vertex $-1 $216 $493 #
straight-curve $-1 36.398817076331255 22.57948412912463 19.697744471700787 -1 0 0 I I #
coedge $-1 $346 $346 $-1 $494 reversed $219 $-1 #
edge $-1 $495 0 $495 6.2831853071796004 $220 $496 forward 7 unknown #
vertex $-1 $223 $497 #
ellipse-curve $-1 68.16645443937513 15.41488130513109 15.066567039944285 0.70710678939079041 0 0.70710677298230451 0.70710677298230451 0 -0.70710678939079041 1 I I #
coedge $-1 $350 $350 $-1 $498 reversed $226 $-1 #
edge $-1 $499 0 $499 6.2831853071796004 $227 $500 forward 7 unknown #
vertex $-1 $230 $501 #
ellipse-curve $-1 68.16645443937513 19.713642999527217 15.066567039944285 0.70710678939079041 0 0.70710677298230451 0.70710677298230451 0 -0.70710678939079041 1 I I #
face $-1 $-1 $366 $48 $-1 $502 forward single #
loop $-1 $-1 $503 $231 #
plane-surface $-1 -72.797631763664668 0 0 1 0 0 0 0 -1 forward_v I I I I #
coedge $-1 $504 $505 $506 $507 reversed $232 $-1 #
coedge $-1 $508 $234 $236 $364 forward $145 $-1 #
coedge $-1 $234 $508 $504 $509 forward $145 $-1 #
coedge $-1 $506 $237 $234 $361 forward $366 $-1 #
edge $-1 $368 -8.7224363702499446 $510 3.3983918834778137 $360 $511 forward 7 unknown #
coedge $-1 $512 $513 $235 $363 forward $355 $-1 #
edge $-1 $514 -58.396826885181909 $367 -41.170085646711982 $362 $515 forward 7 unknown #
edge $-1 $368 -30.033906424130137 $514 0 $236 $516 forward 7 unknown #
coedge $-1 $237 $506 $512 $517 forward $366 $-1 #
loop $-1 $-1 $506 $354 #
vertex $-1 $363 $518 #
vertex $-1 $238 $519 #
straight-curve $-1 -78.1538226217653 -11.38445861363601 19.697744471700787 1 0 0 I I #
coedge $-1 $370 $370 $-1 $520 reversed $241 $-1 #
edge $-1 $521 0 $521 6.2831853071796004 $242 $522 forward 7 unknown #
vertex $-1 $245 $523 #
ellipse-curve $-1 -60.496463918738272 -8.9602929628904633 11.084373852465815 -0.57357644374324357 0 0.81915203911291934 0.40957601955645967 0 0.28678822187162178 1 I I #
coedge $-1 $374 $374 $-1 $524 reversed $248 $-1 #
edge $-1 $525 0 $525 6.2831853071796004 $249 $526 forward 7 unknown #
vertex $-1 $252 $527 #
ellipse-curve $-1 -60.496463918738272 -5.3240444867721379 11.084373852465815 -0.57357644374324357 0 0.81915203911291934 0.40957601955645967 0 0.28678822187162178 1 I I #
coedge $-1 $378 $378 $-1 $528 reversed $255 $-1 #
edge $-1 $529 0 $529 6.2831853071796004 $256 $530 forward 7 unknown #
vertex $-1 $259 $531 #
ellipse-curve $-1 -60.496463918738272 -1.6877960106538126 11.084373852465815 -0.57357644374324357 0 0.81915203911291934 0.40957601955645967 0 0.28678822187162178 1 I I #
face $-1 $-1 $275 $39 $-1 $532 reversed single #
loop $-1 $-1 $399 $260 #
plane-surface $-1 0 41.673295009311694 0 0 -1 0 0 0 -1 forward_v I I I I #
coedge $-1 $533 $396 $399 $534 forward $261 $-1 #
coedge $-1 $402 $263 $264 $390 reversed $164 $-1 #
coedge $-1 $396 $533 $263 $388 reversed $261 $-1 #
edge $-1 $403 -19.697744471700783 $535 19.697744471700783 $387 $536 forward 7 unknown #
coedge $-1 $265 $264 $533 $537 forward $105 $-1 #
edge $-1 $394 -72.797631763664668 $535 72.797631763664668 $386 $538 forward 7 unknown #
coedge $-1 $399 $398 $265 $392 reversed $383 $-1 #
edge $-1 $539 -72.797631763664668 $393 72.797631763664668 $391 $540 forward 7 unknown #
vertex $-1 $267 $541 #
vertex $-1 $405 $542 #
straight-curve $-1 72.797631763664668 0 -19.697744471700783 0 -1 0 I I #
coedge $-1 $385 $387 $268 $397 reversed $261 $-1 #
edge $-1 $400 -41.673295009311694 $403 41.673295009311694 $396 $543 forward 7 unknown #
coedge $-1 $391 $269 $274 $406 forward $383 $-1 #
coedge $-1 $269 $391 $385 $534 reversed $383 $-1 #
vertex $-1 $270 $544 #
straight-curve $-1 0 41.673295009311694 19.697744471700783 -1 0 0 I I #
coedge $-1 $271 $386 $273 $405 reversed $164 $-1 #
vertex $-1 $397 $545 #
straight-curve $-1 0 -41.673295009311694 19.697744471700783 1 0 0 I I #
edge $-1 $276 -19.697744471700783 $394 19.697744471700783 $273 $546 forward 7 unknown #
edge $-1 $277 -19.697744471700783 $393 19.697744471700783 $274 $547 forward 7 unknown #
point $-1 72.797631763664668 -41.673295009311694 19.697744471700783 #
point $-1 72.797631763664668 41.673295009311694 19.697744471700783 #
face $-1 $-1 $425 $40 $-1 $548 reversed single #
loop $-1 $-1 $549 $279 #
plane-surface $-1 0 -56.159658437745414 -7.9865091323953976 0 1 0 0 0 1 forward_v I I I I #
coedge $-1 $550 $422 $424 $551 forward $280 $-1 #
coedge $-1 $282 $289 $552 $553 forward $172 $-1 #
coedge $-1 $554 $287 $282 $415 reversed $425 $-1 #
edge $-1 $555 -7.2431817142168597 $291 7.2431817142168597 $414 $556 forward 7 unknown #
coedge $-1 $284 $283 $549 $557 reversed $109 $-1 #
coedge $-1 $422 $550 $283 $418 forward $280 $-1 #
edge $-1 $558 -7.2431817142168597 $420 7.2431817142168597 $283 $559 forward 7 unknown #
edge $-1 $290 -7.2431817142168597 $560 7.2431817142168597 $284 $561 forward 7 unknown #
vertex $-1 $285 $562 #
straight-curve $-1 -72.797631763664668 -41.673295009311694 0 0 0 -1 I I #
coedge $-1 $412 $417 $286 $423 reversed $280 $-1 #
edge $-1 $426 -72.797631763664668 $420 72.797631763664668 $422 $563 forward 7 unknown #
coedge $-1 $287 $554 $412 $551 reversed $425 $-1 #
loop $-1 $-1 $287 $409 #
vertex $-1 $288 $564 #
straight-curve $-1 72.797631763664668 -41.673295009311694 0 0 0 1 I I #
point $-1 -72.797631763664668 -41.673295009311694 -2.5554573904116715 #
point $-1 72.797631763664668 -41.673295009311694 -2.5554573904116715 #
face $-1 $-1 $444 $41 $-1 $565 reversed single #
loop $-1 $-1 $566 $293 #
plane-surface $-1 0 56.159658437745414 -7.9865091323953976 0 -1 0 0 0 -1 forward_v I I I I #
coedge $-1 $440 $567 $297 $437 forward $294 $-1 #
coedge $-1 $303 $296 $568 $569 forward $180 $-1 #
edge $-1 $304 -7.2431817142168597 $570 7.2431817142168597 $298 $571 forward 7 unknown #
coedge $-1 $298 $297 $566 $572 reversed $113 $-1 #
edge $-1 $573 -7.2431817142168597 $438 7.2431817142168597 $297 $574 forward 7 unknown #
vertex $-1 $299 $575 #
straight-curve $-1 72.797631763664668 41.673295009311694 0 0 0 -1 I I #
coedge $-1 $576 $433 $300 $441 reversed $294 $-1 #
edge $-1 $445 -72.797631763664668 $438 72.797631763664668 $440 $577 forward 7 unknown #
coedge $-1 $578 $301 $303 $447 reversed $444 $-1 #
coedge $-1 $301 $578 $576 $579 reversed $444 $-1 #
loop $-1 $-1 $301 $430 #
vertex $-1 $302 $580 #
straight-curve $-1 -72.797631763664668 41.673295009311694 0 0 0 1 I I #
edge $-1 $581 -7.2431817142168597 $305 7.2431817142168597 $442 $582 forward 7 unknown #
point $-1 72.797631763664668 41.673295009311694 -2.5554573904116715 #
point $-1 -72.797631763664668 41.673295009311694 -2.5554573904116715 #
loop $-1 $-1 $315 $307 #
plane-surface $-1 72.797631763664668 0 0 -1 0 0 0 0 1 forward_v I I I I #
coedge $-1 $453 $310 $312 $457 reversed $188 $-1 #
coedge $-1 $310 $452 $583 $584 reversed $188 $-1 #
coedge $-1 $318 $313 $310 $455 forward $308 $-1 #
edge $-1 $458 27.136460038754322 $585 36.398814687333413 $454 $586 forward 7 unknown #
coedge $-1 $312 $311 $461 $587 reversed $117 $-1 #
edge $-1 $588 -145.59526352732937 $458 -132.49631581181811 $452 $589 forward 7 unknown #
vertex $-1 $314 $590 #
straight-curve $-1 63.535277115085563 -8.7821310761645748 19.69774447170078 0 -1 0 I I #
coedge $-1 $583 $315 $318 $465 reversed $450 $-1 #
coedge $-1 $315 $583 $456 $587 forward $450 $-1 #
vertex $-1 $316 $591 #
straight-curve $-1 72.797631763664668 -12.549040175533671 108.16909295291087 0 0 1 I I #
straight-curve $-1 -30.153765190653388 -12.549040175533671 113.38678895150368 0.70710677298230451 0 -0.70710678939079041 I I #
edge $-1 $585 -22.57948412912463 $319 -12.549040175533671 $460 $592 forward 7 unknown #
point $-1 72.797631763664668 -12.549040175533671 19.697744471700783 #
point $-1 63.535277115085577 -12.549040175533671 19.697744471700787 #
edge $-1 $593 1 $593 0 $322 $-1 forward 7 unknown #
vertex $-1 $323 $594 #
ellipse-curve $-1 66.852220283648663 -19.71364299952721 13.752332914714755 0.70710678939079041 0 0.70710677298230451 0.70710677298230451 0 -0.70710678939079041 1 I I #
point $-1 68.873561212357416 -19.71364299952721 14.359460250553473 #
edge $-1 $595 1 $595 0 $326 $-1 forward 7 unknown #
vertex $-1 $327 $596 #
ellipse-curve $-1 66.852220283648663 -15.414881305131086 13.752332914714755 0.70710678939079041 0 0.70710677298230451 0.70710677298230451 0 -0.70710678939079041 1 I I #
point $-1 68.873561212357416 -15.414881305131086 14.359460250553473 #
plane-surface $-1 0 0 19.697744471700783 0 0 1 1 0 0 forward_v I I I I #
coedge $-1 $487 $486 $479 $597 forward $331 $-1 #
coedge $-1 $479 $333 $335 $483 reversed $210 $-1 #
coedge $-1 $333 $478 $477 $597 reversed $210 $-1 #
coedge $-1 $341 $336 $333 $481 forward $342 $-1 #
edge $-1 $484 27.136460038754322 $598 36.398814687333413 $480 $599 forward 7 unknown #
coedge $-1 $335 $334 $487 $600 reversed $131 $-1 #
edge $-1 $601 -145.59526352732937 $484 -132.49631581181811 $478 $602 forward 7 unknown #
vertex $-1 $337 $603 #
straight-curve $-1 63.535277115085563 8.7821310761645748 19.69774447170078 0 -1 0 I I #
coedge $-1 $477 $338 $341 $491 reversed $331 $-1 #
coedge $-1 $338 $477 $482 $600 forward $331 $-1 #
vertex $-1 $339 $604 #
straight-curve $-1 72.797631763664668 22.57948412912463 108.16909295291087 0 0 1 I I #
straight-curve $-1 -30.153765190653388 22.57948412912463 113.38678895150368 0.70710677298230451 0 -0.70710678939079041 I I #
edge $-1 $598 12.549040175533671 $343 22.57948412912463 $486 $605 forward 7 unknown #
point $-1 72.797631763664668 22.57948412912463 19.697744471700783 #
point $-1 63.535277115085577 22.57948412912463 19.697744471700787 #
edge $-1 $606 1 $606 0 $346 $-1 forward 7 unknown #
vertex $-1 $347 $607 #
ellipse-curve $-1 66.852220283648663 15.41488130513109 13.752332914714755 0.70710678939079041 0 0.70710677298230451 0.70710677298230451 0 -0.70710678939079041 1 I I #
point $-1 68.873561212357416 15.41488130513109 14.359460250553473 #
edge $-1 $608 1 $608 0 $350 $-1 forward 7 unknown #
vertex $-1 $351 $609 #
ellipse-curve $-1 66.852220283648663 19.713642999527217 13.752332914714755 0.70710678939079041 0 0.70710677298230451 0.70710677298230451 0 -0.70710678939079041 1 I I #
point $-1 68.873561212357416 19.713642999527217 14.359460250553473 #
plane-surface $-1 0 0 19.697744471700783 0 0 1 1 0 0 forward_v I I I I #
coedge $-1 $513 $512 $505 $610 forward $355 $-1 #
coedge $-1 $505 $357 $359 $509 reversed $232 $-1 #
coedge $-1 $357 $504 $503 $610 reversed $232 $-1 #
coedge $-1 $365 $360 $357 $507 forward $366 $-1 #
edge $-1 $510 -29.95852654795344 $611 -5.3561908581006321 $506 $612 forward 7 unknown #
coedge $-1 $359 $358 $513 $613 reversed $145 $-1 #
edge $-1 $614 0 $510 30.033906424130137 $504 $615 forward 7 unknown #
vertex $-1 $361 $616 #
straight-curve $-1 -48.195296073811853 -2.6620222433860654 19.697744471700783 0 1 0 I I #
coedge $-1 $503 $362 $365 $517 reversed $355 $-1 #
coedge $-1 $362 $503 $508 $613 forward $355 $-1 #
vertex $-1 $363 $617 #
straight-curve $-1 -72.797631763664668 -11.38445861363601 60.867830118412769 0 0 1 I I #
straight-curve $-1 -72.797631763664668 -11.38445861363601 2.47100323323086 -0.81915203911291934 0 -0.57357644374324357 I I #
edge $-1 $611 -0.73636964009174832 $367 11.38445861363601 $512 $618 forward 7 unknown #
point $-1 -72.797631763664668 -11.38445861363601 19.697744471700783 #
point $-1 -48.195296073811861 -11.38445861363601 19.697744471700783 #
edge $-1 $619 1 $619 0 $370 $-1 forward 7 unknown #
vertex $-1 $371 $620 #
ellipse-curve $-1 -59.627583217481437 -8.9602929628904633 9.8434836347026078 -0.57357644374324357 0 0.81915203911291934 0.40957601955645967 0 0.28678822187162178 1 I I #
point $-1 -60.086887899181832 -8.9602929628904633 11.371162074337466 #
edge $-1 $621 1 $621 0 $374 $-1 forward 7 unknown #
vertex $-1 $375 $622 #
ellipse-curve $-1 -59.627583217481437 -5.3240444867721379 9.8434836347026078 -0.57357644374324357 0 0.81915203911291934 0.40957601955645967 0 0.28678822187162178 1 I I #
point $-1 -60.086887899181832 -5.3240444867721379 11.371162074337466 #
edge $-1 $623 1 $623 0 $378 $-1 forward 7 unknown #
vertex $-1 $379 $624 #
ellipse-curve $-1 -59.627583217481437 -1.6877960106538126 9.8434836347026078 -0.57357644374324357 0 0.81915203911291934 0.40957601955645967 0 0.28678822187162178 1 I I #
point $-1 -60.086887899181832 -1.6877960106538126 11.371162074337466 #
plane-surface $-1 72.797631763664668 0 0 -1 0 0 0 0 1 forward_v I I I I #
coedge $-1 $387 $385 $389 $537 reversed $261 $-1 #
edge $-1 $400 -19.697744471700783 $539 19.697744471700783 $399 $625 forward 7 unknown #
vertex $-1 $537 $626 #
straight-curve $-1 -72.797631763664668 -41.673295009311694 0 0 0 -1 I I #
edge $-1 $535 -41.673295009311694 $539 41.673295009311694 $533 $627 forward 7 unknown #
straight-curve $-1 0 -41.673295009311694 -19.697744471700783 -1 0 0 I I #
vertex $-1 $392 $628 #
straight-curve $-1 0 41.673295009311694 -19.697744471700783 1 0 0 I I #
point $-1 72.797631763664668 41.673295009311694 -19.697744471700783 #
point $-1 72.797631763664668 -41.673295009311694 -19.697744471700783 #
straight-curve $-1 -72.797631763664668 0 19.697744471700783 0 -1 0 I I #
point $-1 -72.797631763664668 41.673295009311694 19.697744471700783 #
point $-1 -72.797631763664668 -41.673295009311694 19.697744471700783 #
straight-curve $-1 72.797631763664668 -41.673295009311694 0 0 0 -1 I I #
straight-curve $-1 72.797631763664668 41.673295009311694 0 0 0 -1 I I #
plane-surface $-1 72.797631763664668 0 0 -1 0 0 0 0 1 forward_v I I I I #
coedge $-1 $629 $552 $416 $557 forward $410 $-1 #
coedge $-1 $417 $412 $629 $630 forward $280 $-1 #
edge $-1 $426 -7.2431817142168597 $631 7.2431817142168597 $424 $632 forward 7 unknown #
coedge $-1 $549 $633 $413 $553 reversed $410 $-1 #
edge $-1 $560 -72.797631763664668 $555 72.797631763664668 $552 $634 forward 7 unknown #
coedge $-1 $424 $414 $633 $635 forward $425 $-1 #
vertex $-1 $415 $636 #
straight-curve $-1 72.797631763664668 -48.916476723528554 -2.5554573904116715 0 1 0 I I #
edge $-1 $560 -5.4310517419837261 $558 5.4310517419837261 $416 $637 forward 7 unknown #
vertex $-1 $418 $638 #
straight-curve $-1 -72.797631763664668 -48.916476723528554 -13.417560874379124 0 1 0 I I #
vertex $-1 $419 $639 #
straight-curve $-1 -72.797631763664668 -48.916476723528554 -2.5554573904116715 0 -1 0 I I #
point $-1 -72.797631763664668 -41.673295009311694 -13.417560874379124 #
straight-curve $-1 0 -41.673295009311694 -13.417560874379124 -1 0 0 I I #
point $-1 72.797631763664668 -41.673295009311694 -13.417560874379124 #
plane-surface $-1 -72.797631763664668 0 0 1 0 0 0 0 -1 forward_v I I I I #
coedge $-1 $640 $568 $436 $572 forward $431 $-1 #
coedge $-1 $433 $576 $640 $641 forward $294 $-1 #
coedge $-1 $566 $642 $434 $569 reversed $431 $-1 #
edge $-1 $570 -72.797631763664668 $581 72.797631763664668 $568 $643 forward 7 unknown #
vertex $-1 $435 $644 #
straight-curve $-1 72.797631763664668 48.916476723528554 -2.5554573904116715 0 1 0 I I #
edge $-1 $570 -5.4310517419837261 $573 5.4310517419837261 $436 $645 forward 7 unknown #
vertex $-1 $437 $646 #
straight-curve $-1 72.797631763664668 48.916476723528554 -13.417560874379124 0 -1 0 I I #
point $-1 72.797631763664668 41.673295009311694 -13.417560874379124 #
coedge $-1 $567 $440 $443 $579 forward $294 $-1 #
straight-curve $-1 0 41.673295009311694 -13.417560874379124 1 0 0 I I #
coedge $-1 $443 $442 $642 $647 forward $444 $-1 #
edge $-1 $445 -7.2431817142168597 $648 7.2431817142168597 $443 $649 forward 7 unknown #
point $-1 -72.797631763664668 41.673295009311694 -13.417560874379124 #
vertex $-1 $569 $650 #
straight-curve $-1 -72.797631763664668 48.916476723528554 -2.5554573904116715 0 -1 0 I I #
coedge $-1 $461 $460 $453 $584 forward $450 $-1 #
edge $-1 $585 88.471348481210086 $588 97.733703344723082 $583 $651 forward 7 unknown #
vertex $-1 $465 $652 #
straight-curve $-1 36.398817076331255 -22.57948412912463 19.697744471700787 1 0 0 I I #
edge $-1 $588 -13.797353052960055 $462 -3.7669090993690961 $461 $653 forward 7 unknown #
vertex $-1 $587 $654 #
straight-curve $-1 -30.153765190653388 -22.57948412912463 113.38678895150368 -0.70710677298230451 0 0.70710678939079041 I I #
point $-1 63.535277115085577 -22.57948412912463 19.697744471700787 #
point $-1 72.797631763664668 -12.549040175533671 10.435389608187791 #
straight-curve $-1 72.797631763664668 0 19.697744471700783 0 1 0 I I #
vertex $-1 $468 $655 #
point $-1 67.559327056630963 -19.71364299952721 13.045226125323964 #
vertex $-1 $472 $656 #
point $-1 67.559327056630963 -15.414881305131086 13.045226125323964 #
edge $-1 $598 88.471348481210086 $601 97.733703344723082 $477 $657 forward 7 unknown #
vertex $-1 $491 $658 #
straight-curve $-1 36.398817076331255 12.549040175533671 19.697744471700787 1 0 0 I I #
edge $-1 $601 3.7669090993690961 $488 13.797353052960055 $487 $659 forward 7 unknown #
vertex $-1 $600 $660 #
straight-curve $-1 -30.153765190653388 12.549040175533671 113.38678895150368 -0.70710677298230451 0 0.70710678939079041 I I #
point $-1 63.535277115085577 12.549040175533671 19.697744471700787 #
point $-1 72.797631763664668 22.57948412912463 10.435389608187791 #
straight-curve $-1 72.797631763664668 0 19.697744471700783 0 1 0 I I #
vertex $-1 $494 $661 #
point $-1 67.559327056630963 15.41488130513109 13.045226125323964 #
vertex $-1 $498 $662 #
point $-1 67.559327056630963 19.713642999527217 13.045226125323964 #
edge $-1 $611 41.170085646711982 $614 58.396826885181909 $503 $663 forward 7 unknown #
vertex $-1 $517 $664 #
straight-curve $-1 -78.1538226217653 0.73636964009174832 19.697744471700787 -1 0 0 I I #
edge $-1 $614 -3.3983918834778137 $514 8.7224363702499446 $513 $665 forward 7 unknown #
vertex $-1 $613 $666 #
straight-curve $-1 -72.797631763664668 0.73636964009174832 2.47100323323086 0.81915203911291934 0 0.57357644374324357 I I #
point $-1 -48.195296073811861 0.73636964009174832 19.697744471700783 #
point $-1 -72.797631763664668 -11.38445861363601 2.47100323323086 #
straight-curve $-1 -72.797631763664668 0 19.697744471700783 0 -1 0 I I #
vertex $-1 $520 $667 #
point $-1 -59.218007197924976 -8.9602929628904633 10.130271856574229 #
vertex $-1 $524 $668 #
point $-1 -59.218007197924976 -5.3240444867721379 10.130271856574229 #
vertex $-1 $528 $669 #
point $-1 -59.218007197924976 -1.6877960106538126 10.130271856574229 #
straight-curve $-1 -72.797631763664668 41.673295009311694 0 0 0 -1 I I #
point $-1 -72.797631763664668 -41.673295009311694 -19.697744471700783 #
straight-curve $-1 -72.797631763664668 0 -19.697744471700783 0 1 0 I I #
point $-1 -72.797631763664668 41.673295009311694 -19.697744471700783 #
coedge $-1 $633 $549 $550 $630 reversed $410 $-1 #
edge $-1 $631 -72.797631763664668 $558 72.797631763664668 $629 $670 forward 7 unknown #
vertex $-1 $635 $671 #
straight-curve $-1 72.797631763664668 -48.916476723528554 -13.417560874379124 0 -1 0 I I #
coedge $-1 $552 $629 $554 $635 reversed $410 $-1 #
straight-curve $-1 0 -56.159658437745414 -2.5554573904116715 1 0 0 I I #
edge $-1 $555 -5.4310517419837261 $631 5.4310517419837261 $554 $672 forward 7 unknown #
point $-1 72.797631763664668 -56.159658437745414 -2.5554573904116715 #
straight-curve $-1 -72.797631763664668 -56.159658437745414 -7.9865091323953976 0 0 -1 I I #
point $-1 -72.797631763664668 -56.159658437745414 -13.417560874379124 #
point $-1 -72.797631763664668 -56.159658437745414 -2.5554573904116715 #
coedge $-1 $642 $566 $567 $641 reversed $431 $-1 #
edge $-1 $648 -72.797631763664668 $573 72.797631763664668 $640 $673 forward 7 unknown #
coedge $-1 $568 $640 $578 $647 reversed $431 $-1 #
straight-curve $-1 0 56.159658437745414 -2.5554573904116715 -1 0 0 I I #
point $-1 72.797631763664668 56.159658437745414 -2.5554573904116715 #
straight-curve $-1 72.797631763664668 56.159658437745414 -7.9865091323953976 0 0 -1 I I #
point $-1 72.797631763664668 56.159658437745414 -13.417560874379124 #
edge $-1 $581 -5.4310517419837261 $648 5.4310517419837261 $642 $674 forward 7 unknown #
vertex $-1 $641 $675 #
straight-curve $-1 -72.797631763664668 48.916476723528554 -13.417560874379124 0 1 0 I I #
point $-1 -72.797631763664668 56.159658437745414 -2.5554573904116715 #
straight-curve $-1 72.797631763664668 -22.57948412912463 108.16909295291087 0 0 -1 I I #
point $-1 72.797631763664668 -22.57948412912463 19.697744471700783 #
straight-curve $-1 72.797631763664668 -8.7821310761645748 10.435389608187791 0 1 0 I I #
point $-1 72.797631763664668 -22.57948412912463 10.435389608187791 #
point $-1 66.14511349425787 -19.71364299952721 13.045226141732451 #
point $-1 66.14511349425787 -15.414881305131086 13.045226141732451 #
straight-curve $-1 72.797631763664668 12.549040175533671 108.16909295291087 0 0 -1 I I #
point $-1 72.797631763664668 12.549040175533671 19.697744471700783 #
straight-curve $-1 72.797631763664668 8.7821310761645748 10.435389608187791 0 1 0 I I #
point $-1 72.797631763664668 12.549040175533671 10.435389608187791 #
point $-1 66.14511349425787 15.41488130513109 13.045226141732451 #
point $-1 66.14511349425787 19.713642999527217 13.045226141732451 #
straight-curve $-1 -72.797631763664668 0.73636964009174832 60.867830118412769 0 0 -1 I I #
point $-1 -72.797631763664668 0.73636964009174832 19.697744471700783 #
straight-curve $-1 -72.797631763664668 -2.6620222433860654 2.4710032332308582 0 -1 0 I I #
point $-1 -72.797631763664668 0.73636964009174832 2.47100323323086 #
point $-1 -59.340794995609819 -8.9602929628904633 9.433907615146147 #
point $-1 -59.340794995609819 -5.3240444867721379 9.433907615146147 #
point $-1 -59.340794995609819 -1.6877960106538126 9.433907615146147 #
straight-curve $-1 0 -56.159658437745414 -13.417560874379124 -1 0 0 I I #
point $-1 72.797631763664668 -56.159658437745414 -13.417560874379124 #
straight-curve $-1 72.797631763664668 -56.159658437745414 -7.9865091323953976 0 0 -1 I I #
straight-curve $-1 0 56.159658437745414 -13.417560874379124 1 0 0 I I #
straight-curve $-1 -72.797631763664668 56.159658437745414 -7.9865091323953976 0 0 -1 I I #
point $-1 -72.797631763664668 56.159658437745414 -13.417560874379124 #
End-of-ACIS-data 