500 0 3 0           
7 Unknown 11 ACIS 5.0 NT 24 Fri Mar 26 17:10:29 1999 
-1 9.9999999999999995e-007 1e-010 
body $-1 $3 $-1 $4 #
body $-1 $5 $-1 $6 #
body $-1 $7 $-1 $8 #
lump $-1 $-1 $9 $0 #
transform $-1 1 0 0 0 1 0 0 0 1 61.828058717612237 30.604200346646568 8.658036341239022 1 rotate no_reflect no_shear #
lump $-1 $-1 $10 $1 #
transform $-1 1 0 0 0 1 0 0 0 1 61.828058717612237 30.604200346646568 8.658036341239022 1 rotate no_reflect no_shear #
lump $-1 $-1 $11 $2 #
transform $-1 1 0 0 0 1 0 0 0 1 61.828058717612237 30.604200346646568 8.658036341239022 1 rotate no_reflect no_shear #
shell $-1 $-1 $-1 $12 $-1 $3 #
shell $-1 $-1 $-1 $13 $-1 $5 #
shell $-1 $-1 $-1 $14 $-1 $7 #
face $-1 $15 $16 $9 $-1 $17 forward single #
face $-1 $18 $19 $10 $-1 $20 forward single #
face $-1 $21 $22 $11 $-1 $23 reversed single #
face $-1 $24 $25 $9 $-1 $26 reversed single #
loop $-1 $-1 $27 $12 #
plane-surface $-1 0 0 8.658036341239022 0 0 1 1 0 0 forward_v I I I I #
face $-1 $28 $29 $10 $-1 $30 forward single #
loop $-1 $-1 $31 $13 #
plane-surface $-1 -47.511986035134193 -25.030281953887698 0 1 0 0 0 0 -1 forward_v I I I I #
face $-1 $32 $33 $11 $-1 $34 forward single #
loop $-1 $-1 $35 $14 #
plane-surface $-1 0 25.39676682662353 -3.6649808425404142 0 0 1 1 0 0 forward_v I I I I #
face $-1 $36 $37 $9 $-1 $38 reversed single #
loop $-1 $-1 $39 $15 #
plane-surface $-1 0 0 -8.658036341239022 0 0 1 1 0 0 forward_v I I I I #
coedge $-1 $40 $41 $42 $43 forward $16 $-1 #
face $-1 $44 $45 $10 $-1 $46 forward single #
loop $-1 $-1 $47 $18 #
plane-surface $-1 -46.011986035134193 -19.456363561128828 0 0 -1 0 0 0 -1 forward_v I I I I #
coedge $-1 $48 $49 $50 $51 reversed $19 $-1 #
face $-1 $52 $53 $11 $-1 $54 reversed single #
loop $-1 $-1 $55 $21 #
plane-surface $-1 0 20.189333306600496 -6.1615085918897181 0 1 0 0 0 1 forward_v I I I I #
coedge $-1 $56 $57 $58 $59 reversed $22 $-1 #
face $-1 $60 $61 $9 $-1 $62 reversed single #
loop $-1 $-1 $63 $24 #
plane-surface $-1 0 -30.604200346646568 0 0 1 0 0 0 1 forward_v I I I I #
coedge $-1 $64 $65 $66 $67 forward $25 $-1 #
coedge $-1 $68 $27 $69 $70 forward $16 $-1 #
coedge $-1 $27 $68 $71 $72 forward $16 $-1 #
coedge $-1 $73 $74 $27 $43 reversed $75 $-1 #
edge $-1 $76 -30.604200346646568 $77 30.604200346646568 $42 $78 forward 7 unknown #
face $-1 $79 $80 $10 $-1 $81 forward single #
loop $-1 $-1 $82 $28 #
plane-surface $-1 -44.511986035134193 -25.030281953887698 0 -1 0 0 0 0 1 forward_v I I I I #
coedge $-1 $83 $84 $85 $86 reversed $29 $-1 #
coedge $-1 $87 $31 $88 $89 reversed $19 $-1 #
coedge $-1 $31 $87 $90 $91 reversed $19 $-1 #
coedge $-1 $84 $83 $31 $51 forward $29 $-1 #
edge $-1 $92 -8.658036341239022 $93 8.658036341239022 $50 $94 forward 7 unknown #
face $-1 $95 $96 $11 $-1 $97 reversed single #
loop $-1 $-1 $98 $32 #
plane-surface $-1 0 30.604200346646568 0 0 -1 0 0 0 -1 forward_v I I I I #
coedge $-1 $99 $100 $101 $102 reversed $33 $-1 #
coedge $-1 $103 $35 $99 $104 reversed $22 $-1 #
coedge $-1 $35 $103 $98 $105 reversed $22 $-1 #
coedge $-1 $106 $107 $35 $59 forward $108 $-1 #
edge $-1 $109 7.4909498932887306 $110 17.905816933334798 $58 $111 forward 7 unknown #
face $-1 $112 $113 $9 $-1 $114 reversed single #
loop $-1 $-1 $115 $36 #
plane-surface $-1 -61.828058717612237 0 0 1 0 0 0 0 -1 forward_v I I I I #
coedge $-1 $116 $71 $117 $118 forward $37 $-1 #
coedge $-1 $119 $39 $116 $120 forward $25 $-1 #
coedge $-1 $39 $119 $121 $122 forward $25 $-1 #
coedge $-1 $74 $73 $39 $67 reversed $75 $-1 #
edge $-1 $123 -30.604200346646568 $124 30.604200346646568 $66 $125 forward 7 unknown #
coedge $-1 $41 $40 $126 $127 forward $16 $-1 #
coedge $-1 $128 $129 $40 $70 reversed $113 $-1 #
edge $-1 $77 -61.828058717612237 $130 61.828058717612237 $69 $131 forward 7 unknown #
coedge $-1 $63 $132 $41 $72 reversed $37 $-1 #
edge $-1 $133 -61.828058717612237 $76 61.828058717612237 $71 $134 forward 7 unknown #
coedge $-1 $66 $42 $132 $135 forward $75 $-1 #
coedge $-1 $42 $66 $128 $136 reversed $75 $-1 #
loop $-1 $-1 $73 $112 #
vertex $-1 $43 $137 #
vertex $-1 $43 $138 #
straight-curve $-1 61.828058717612237 0 8.658036341239022 0 1 0 I I #
face $-1 $139 $140 $10 $-1 $141 reversed single #
loop $-1 $-1 $88 $44 #
plane-surface $-1 0 0 8.658036341239022 0 0 1 1 0 0 forward_v I I I I #
coedge $-1 $142 $143 $144 $145 reversed $45 $-1 #
coedge $-1 $50 $47 $146 $147 reversed $29 $-1 #
coedge $-1 $47 $50 $148 $149 reversed $29 $-1 #
coedge $-1 $143 $142 $47 $86 forward $45 $-1 #
edge $-1 $150 -8.658036341239022 $151 8.658036341239022 $85 $152 forward 7 unknown #
coedge $-1 $49 $48 $153 $154 reversed $19 $-1 #
coedge $-1 $146 $155 $48 $89 forward $80 $-1 #
edge $-1 $156 -18.089059369702717 $92 -6.9412225841849793 $88 $157 forward 7 unknown #
coedge $-1 $158 $148 $49 $91 forward $159 $-1 #
edge $-1 $93 6.9412225841849793 $160 18.089059369702717 $90 $161 forward 7 unknown #
vertex $-1 $89 $162 #
vertex $-1 $91 $163 #
straight-curve $-1 -47.511986035134193 -19.456363561128828 0 0 0 -1 I I #
face $-1 $164 $165 $11 $-1 $166 forward single #
loop $-1 $-1 $167 $52 #
plane-surface $-1 -61.828058717612237 0 0 1 0 0 0 0 -1 forward_v I I I I #
coedge $-1 $168 $169 $57 $105 forward $53 $-1 #
coedge $-1 $170 $55 $56 $104 forward $33 $-1 #
coedge $-1 $55 $170 $171 $172 reversed $33 $-1 #
coedge $-1 $173 $167 $55 $102 forward $96 $-1 #
edge $-1 $174 0.58422654659555517 $175 5.5772820452941634 $101 $176 forward 7 unknown #
coedge $-1 $57 $56 $167 $177 reversed $22 $-1 #
edge $-1 $174 -61.828058717612237 $109 61.828058717612237 $99 $178 forward 7 unknown #
edge $-1 $110 -61.828058717612237 $179 61.828058717612237 $98 $180 forward 7 unknown #
coedge $-1 $181 $58 $169 $182 reversed $108 $-1 #
coedge $-1 $58 $183 $170 $184 forward $108 $-1 #
loop $-1 $-1 $58 $185 #
vertex $-1 $59 $186 #
vertex $-1 $105 $187 #
straight-curve $-1 61.828058717612237 12.698383413311765 -3.6649808425404142 0 1 0 I I #
face $-1 $-1 $75 $9 $-1 $188 reversed single #
loop $-1 $-1 $128 $60 #
plane-surface $-1 0 30.604200346646568 0 0 -1 0 0 0 -1 forward_v I I I I #
coedge $-1 $189 $126 $129 $190 forward $61 $-1 #
coedge $-1 $132 $63 $64 $120 reversed $37 $-1 #
coedge $-1 $126 $189 $63 $118 reversed $61 $-1 #
edge $-1 $133 -8.658036341239022 $191 8.658036341239022 $117 $192 forward 7 unknown #
coedge $-1 $65 $64 $189 $193 forward $25 $-1 #
edge $-1 $124 -61.828058717612237 $191 61.828058717612237 $116 $194 forward 7 unknown #
coedge $-1 $129 $128 $65 $122 reversed $113 $-1 #
edge $-1 $195 -61.828058717612237 $123 61.828058717612237 $121 $196 forward 7 unknown #
vertex $-1 $67 $197 #
vertex $-1 $135 $198 #
straight-curve $-1 61.828058717612237 0 -8.658036341239022 0 -1 0 I I #
coedge $-1 $115 $117 $68 $127 reversed $61 $-1 #
edge $-1 $130 -30.604200346646568 $133 30.604200346646568 $126 $199 forward 7 unknown #
coedge $-1 $121 $69 $74 $136 forward $113 $-1 #
coedge $-1 $69 $121 $115 $190 reversed $113 $-1 #
vertex $-1 $70 $200 #
straight-curve $-1 0 30.604200346646568 8.658036341239022 -1 0 0 I I #
coedge $-1 $71 $116 $73 $135 reversed $37 $-1 #
vertex $-1 $127 $201 #
straight-curve $-1 0 -30.604200346646568 8.658036341239022 1 0 0 I I #
edge $-1 $76 -8.658036341239022 $124 8.658036341239022 $73 $202 forward 7 unknown #
edge $-1 $77 -8.658036341239022 $123 8.658036341239022 $74 $203 forward 7 unknown #
point $-1 61.828058717612237 -30.604200346646568 8.658036341239022 #
point $-1 61.828058717612237 30.604200346646568 8.658036341239022 #
face $-1 $204 $159 $10 $-1 $205 reversed single #
loop $-1 $-1 $144 $79 #
plane-surface $-1 0 -30.604200346646568 0 0 1 0 0 0 1 forward_v I I I I #
coedge $-1 $85 $82 $206 $207 reversed $45 $-1 #
coedge $-1 $82 $85 $208 $209 reversed $45 $-1 #
coedge $-1 $210 $211 $82 $145 forward $140 $-1 #
edge $-1 $212 -8.658036341239022 $213 8.658036341239022 $144 $214 forward 7 unknown #
coedge $-1 $206 $88 $83 $147 forward $80 $-1 #
edge $-1 $92 -24.505993017567096 $150 -21.505993017567096 $146 $215 forward 7 unknown #
coedge $-1 $90 $208 $84 $149 forward $159 $-1 #
edge $-1 $151 21.505993017567096 $93 24.505993017567096 $148 $216 forward 7 unknown #
vertex $-1 $147 $217 #
vertex $-1 $149 $218 #
straight-curve $-1 -44.511986035134193 -19.456363561128828 0 0 0 -1 I I #
coedge $-1 $219 $220 $87 $154 forward $221 $-1 #
edge $-1 $160 -8.658036341239022 $156 8.658036341239022 $153 $222 forward 7 unknown #
coedge $-1 $88 $223 $219 $224 forward $80 $-1 #
vertex $-1 $154 $225 #
straight-curve $-1 -47.511986035134193 -12.515140976943849 8.658036341239022 0 1 0 I I #
coedge $-1 $226 $90 $220 $227 forward $159 $-1 #
loop $-1 $-1 $90 $139 #
vertex $-1 $227 $228 #
straight-curve $-1 -47.511986035134193 -12.515140976943849 -8.658036341239022 0 -1 0 I I #
point $-1 -47.511986035134193 -19.456363561128828 8.658036341239022 #
point $-1 -47.511986035134193 -19.456363561128828 -8.658036341239022 #
face $-1 $229 $230 $11 $-1 $231 forward single #
loop $-1 $-1 $232 $95 #
plane-surface $-1 -47.511986035134193 -25.030281953887698 0 1 0 0 0 0 -1 forward_v I I I I #
coedge $-1 $101 $233 $103 $177 forward $96 $-1 #
coedge $-1 $234 $98 $233 $235 reversed $53 $-1 #
coedge $-1 $98 $234 $106 $182 forward $53 $-1 #
coedge $-1 $100 $99 $107 $184 reversed $33 $-1 #
coedge $-1 $236 $237 $100 $172 forward $238 $-1 #
edge $-1 $175 -61.828058717612237 $239 61.828058717612237 $171 $240 forward 7 unknown #
coedge $-1 $241 $101 $237 $242 reversed $96 $-1 #
vertex $-1 $177 $243 #
vertex $-1 $102 $244 #
straight-curve $-1 -61.828058717612237 20.189333306600496 -3.0807542959448591 0 0 -1 I I #
edge $-1 $179 -17.905816933334798 $174 -7.4909498932887306 $167 $245 forward 7 unknown #
straight-curve $-1 0 20.189333306600496 -3.6649808425404142 1 0 0 I I #
vertex $-1 $177 $246 #
straight-curve $-1 0 30.604200346646568 -3.6649808425404142 -1 0 0 I I #
coedge $-1 $247 $106 $248 $249 reversed $108 $-1 #
edge $-1 $250 -8.658036341239022 $110 3.6649808425404142 $106 $251 forward 7 unknown #
coedge $-1 $107 $247 $236 $252 reversed $108 $-1 #
edge $-1 $239 -5.5772820452941634 $109 -0.58422654659555517 $107 $253 forward 7 unknown #
face $-1 $-1 $108 $11 $-1 $254 reversed single #
point $-1 61.828058717612237 20.189333306600496 -3.6649808425404142 #
point $-1 61.828058717612237 30.604200346646564 -3.6649808425404142 #
plane-surface $-1 61.828058717612237 0 0 -1 0 0 0 0 1 forward_v I I I I #
coedge $-1 $117 $115 $119 $193 reversed $61 $-1 #
edge $-1 $130 -8.658036341239022 $195 8.658036341239022 $129 $255 forward 7 unknown #
vertex $-1 $193 $256 #
straight-curve $-1 -61.828058717612237 -30.604200346646568 0 0 0 -1 I I #
edge $-1 $191 -30.604200346646568 $195 30.604200346646568 $189 $257 forward 7 unknown #
straight-curve $-1 0 -30.604200346646568 -8.658036341239022 -1 0 0 I I #
vertex $-1 $122 $258 #
straight-curve $-1 0 30.604200346646568 -8.658036341239022 1 0 0 I I #
point $-1 61.828058717612237 30.604200346646568 -8.658036341239022 #
point $-1 61.828058717612237 -30.604200346646568 -8.658036341239022 #
straight-curve $-1 -61.828058717612237 0 8.658036341239022 0 -1 0 I I #
point $-1 -61.828058717612237 30.604200346646568 8.658036341239022 #
point $-1 -61.828058717612237 -30.604200346646568 8.658036341239022 #
straight-curve $-1 61.828058717612237 -30.604200346646568 0 0 0 -1 I I #
straight-curve $-1 61.828058717612237 30.604200346646568 0 0 0 -1 I I #
face $-1 $259 $221 $10 $-1 $141 reversed single #
plane-surface $-1 0 0 -8.658036341239022 0 0 1 1 0 0 forward_v I I I I #
coedge $-1 $260 $146 $142 $207 forward $80 $-1 #
edge $-1 $150 6.9412225841849793 $212 18.089059369702717 $206 $261 forward 7 unknown #
coedge $-1 $148 $262 $143 $209 forward $159 $-1 #
edge $-1 $213 -18.089059369702717 $151 -6.9412225841849793 $208 $263 forward 7 unknown #
coedge $-1 $264 $144 $262 $265 reversed $140 $-1 #
coedge $-1 $144 $264 $260 $266 reversed $140 $-1 #
vertex $-1 $266 $267 #
vertex $-1 $145 $268 #
straight-curve $-1 -44.511986035134193 -30.604200346646568 0 0 0 -1 I I #
straight-curve $-1 -23.005993017567096 -19.456363561128828 8.658036341239022 1 0 0 I I #
straight-curve $-1 -23.005993017567096 -19.456363561128828 -8.658036341239022 -1 0 0 I I #
point $-1 -44.511986035134193 -19.456363561128828 8.658036341239022 #
point $-1 -44.511986035134193 -19.456363561128828 -8.658036341239022 #
coedge $-1 $269 $153 $155 $224 reversed $221 $-1 #
coedge $-1 $153 $269 $158 $227 reversed $221 $-1 #
loop $-1 $-1 $153 $204 #
straight-curve $-1 -47.511986035134193 -30.604200346646568 0 0 0 1 I I #
coedge $-1 $155 $270 $271 $272 forward $80 $-1 #
edge $-1 $273 -61.828058717612237 $156 -47.511986035134193 $219 $274 forward 7 unknown #
point $-1 -47.511986035134193 -30.604200346646568 8.658036341239022 #
coedge $-1 $275 $158 $276 $277 forward $159 $-1 #
edge $-1 $160 47.511986035134193 $278 61.828058717612237 $220 $279 forward 7 unknown #
point $-1 -47.511986035134193 -30.604200346646568 -8.658036341239022 #
face $-1 $280 $281 $11 $-1 $282 forward single #
loop $-1 $-1 $283 $164 #
plane-surface $-1 -46.011986035134193 -19.456363561128828 0 0 -1 0 0 0 -1 forward_v I I I I #
coedge $-1 $284 $285 $286 $287 reversed $165 $-1 #
coedge $-1 $167 $288 $168 $235 forward $96 $-1 #
coedge $-1 $169 $168 $289 $290 reversed $53 $-1 #
edge $-1 $291 -8.658036341239022 $179 3.6649808425404142 $168 $292 forward 7 unknown #
coedge $-1 $293 $171 $183 $252 forward $238 $-1 #
coedge $-1 $171 $294 $173 $242 forward $238 $-1 #
loop $-1 $-1 $171 $295 #
vertex $-1 $252 $296 #
straight-curve $-1 0 20.189333306600496 -8.658036341239022 1 0 0 I I #
coedge $-1 $288 $173 $297 $298 reversed $96 $-1 #
edge $-1 $299 -30.604200346646568 $175 20.189333306600496 $173 $300 forward 7 unknown #
point $-1 -61.828058717612237 20.189333306600496 -3.6649808425404142 #
point $-1 -61.828058717612237 20.189333306600496 -8.658036341239022 #
straight-curve $-1 -61.828058717612237 12.698383413311765 -3.6649808425404142 0 -1 0 I I #
point $-1 -61.828058717612237 30.604200346646564 -3.6649808425404142 #
coedge $-1 $183 $181 $301 $302 forward $108 $-1 #
coedge $-1 $289 $303 $181 $249 forward $304 $-1 #
edge $-1 $305 -30.604200346646568 $250 30.604200346646568 $181 $306 forward 7 unknown #
vertex $-1 $249 $307 #
straight-curve $-1 61.828058717612237 30.604200346646568 0 0 0 -1 I I #
edge $-1 $239 -20.189333306600496 $308 30.604200346646568 $183 $309 forward 7 unknown #
straight-curve $-1 61.828058717612237 20.189333306600496 -3.0807542959448591 0 0 1 I I #
plane-surface $-1 61.828058717612237 0 0 -1 0 0 0 0 1 forward_v I I I I #
straight-curve $-1 -61.828058717612237 30.604200346646568 0 0 0 -1 I I #
point $-1 -61.828058717612237 -30.604200346646568 -8.658036341239022 #
straight-curve $-1 -61.828058717612237 0 -8.658036341239022 0 1 0 I I #
point $-1 -61.828058717612237 30.604200346646568 -8.658036341239022 #
face $-1 $310 $311 $10 $-1 $312 reversed single #
coedge $-1 $313 $206 $211 $266 forward $80 $-1 #
straight-curve $-1 -44.511986035134193 -12.515140976943849 8.658036341239022 0 -1 0 I I #
coedge $-1 $208 $314 $210 $265 forward $159 $-1 #
straight-curve $-1 -44.511986035134193 -12.515140976943849 -8.658036341239022 0 1 0 I I #
coedge $-1 $211 $210 $315 $316 reversed $140 $-1 #
edge $-1 $317 -61.828058717612237 $213 44.511986035134193 $210 $279 forward 7 unknown #
edge $-1 $212 -44.511986035134193 $318 61.828058717612237 $211 $274 forward 7 unknown #
point $-1 -44.511986035134193 -30.604200346646568 8.658036341239022 #
point $-1 -44.511986035134193 -30.604200346646568 -8.658036341239022 #
coedge $-1 $220 $219 $319 $320 forward $221 $-1 #
coedge $-1 $223 $313 $321 $322 forward $80 $-1 #
coedge $-1 $323 $319 $223 $272 reversed $311 $-1 #
edge $-1 $324 -30.604200346646568 $273 30.604200346646568 $271 $325 forward 7 unknown #
vertex $-1 $272 $326 #
straight-curve $-1 0 -30.604200346646568 8.658036341239022 1 0 0 I I #
coedge $-1 $314 $226 $327 $328 forward $159 $-1 #
coedge $-1 $319 $323 $226 $277 reversed $311 $-1 #
edge $-1 $278 -30.604200346646568 $329 30.604200346646568 $276 $330 forward 7 unknown #
vertex $-1 $277 $331 #
straight-curve $-1 0 -30.604200346646568 -8.658036341239022 -1 0 0 I I #
face $-1 $332 $304 $11 $-1 $333 forward single #
loop $-1 $-1 $334 $229 #
plane-surface $-1 -44.511986035134193 -25.030281953887698 0 -1 0 0 0 0 1 forward_v I I I I #
coedge $-1 $335 $336 $337 $338 reversed $230 $-1 #
coedge $-1 $339 $232 $340 $341 reversed $165 $-1 #
coedge $-1 $232 $339 $342 $343 reversed $165 $-1 #
coedge $-1 $336 $335 $232 $287 forward $230 $-1 #
edge $-1 $344 -8.658036341239022 $345 8.658036341239022 $286 $346 forward 7 unknown #
coedge $-1 $233 $241 $347 $348 reversed $96 $-1 #
coedge $-1 $347 $248 $234 $290 forward $304 $-1 #
edge $-1 $250 -61.828058717612237 $291 61.828058717612237 $234 $349 forward 7 unknown #
vertex $-1 $290 $350 #
straight-curve $-1 -61.828058717612237 30.604200346646568 0 0 0 -1 I I #
coedge $-1 $351 $236 $352 $353 forward $238 $-1 #
coedge $-1 $237 $342 $354 $355 forward $238 $-1 #
face $-1 $356 $238 $11 $-1 $357 reversed single #
point $-1 61.828058717612237 20.189333306600496 -8.658036341239022 #
coedge $-1 $354 $358 $241 $298 forward $359 $-1 #
edge $-1 $360 -8.658036341239022 $299 8.658036341239022 $241 $361 forward 7 unknown #
vertex $-1 $242 $362 #
straight-curve $-1 -61.828058717612237 0 -8.658036341239022 0 1 0 I I #
coedge $-1 $363 $352 $247 $302 reversed $364 $-1 #
edge $-1 $305 -8.658036341239022 $308 8.658036341239022 $247 $365 forward 7 unknown #
coedge $-1 $248 $366 $363 $367 forward $304 $-1 #
loop $-1 $-1 $340 $280 #
vertex $-1 $249 $368 #
straight-curve $-1 61.828058717612237 0 8.658036341239022 0 1 0 I I #
point $-1 61.828058717612237 30.604200346646568 8.658036341239022 #
vertex $-1 $302 $369 #
straight-curve $-1 61.828058717612237 0 -8.658036341239022 0 -1 0 I I #
face $-1 $370 $371 $10 $-1 $372 reversed single #
loop $-1 $-1 $323 $259 #
plane-surface $-1 -61.828058717612237 0 0 1 0 0 0 0 -1 forward_v I I I I #
coedge $-1 $270 $260 $373 $374 forward $80 $-1 #
coedge $-1 $262 $275 $375 $376 forward $159 $-1 #
coedge $-1 $375 $373 $264 $316 forward $377 $-1 #
edge $-1 $318 -8.658036341239022 $317 8.658036341239022 $315 $378 forward 7 unknown #
vertex $-1 $316 $379 #
vertex $-1 $374 $380 #
coedge $-1 $271 $276 $269 $320 reversed $311 $-1 #
edge $-1 $273 -8.658036341239022 $278 8.658036341239022 $319 $381 forward 7 unknown #
coedge $-1 $382 $383 $270 $322 reversed $371 $-1 #
edge $-1 $384 -61.828058717612237 $324 61.828058717612237 $321 $385 forward 7 unknown #
coedge $-1 $276 $271 $383 $386 forward $311 $-1 #
vertex $-1 $322 $387 #
straight-curve $-1 -61.828058717612237 0 8.658036341239022 0 -1 0 I I #
point $-1 -61.828058717612237 -30.604200346646568 8.658036341239022 #
coedge $-1 $383 $382 $275 $328 reversed $371 $-1 #
edge $-1 $329 -61.828058717612237 $388 61.828058717612237 $327 $389 forward 7 unknown #
vertex $-1 $328 $390 #
straight-curve $-1 -61.828058717612237 0 -8.658036341239022 0 1 0 I I #
point $-1 -61.828058717612237 -30.604200346646568 -8.658036341239022 #
face $-1 $295 $364 $11 $-1 $391 reversed single #
plane-surface $-1 0 0 8.658036341239022 0 0 1 1 0 0 forward_v I I I I #
coedge $-1 $392 $393 $394 $395 reversed $281 $-1 #
coedge $-1 $286 $283 $396 $397 reversed $230 $-1 #
coedge $-1 $283 $286 $398 $399 reversed $230 $-1 #
coedge $-1 $393 $392 $283 $338 forward $281 $-1 #
edge $-1 $400 -8.658036341239022 $401 8.658036341239022 $337 $402 forward 7 unknown #
coedge $-1 $285 $284 $403 $404 reversed $165 $-1 #
coedge $-1 $396 $405 $284 $341 forward $304 $-1 #
edge $-1 $406 -18.089059369702717 $344 -6.9412225841849793 $340 $407 forward 7 unknown #
coedge $-1 $294 $398 $285 $343 forward $238 $-1 #
edge $-1 $345 6.9412225841849793 $408 18.089059369702717 $342 $409 forward 7 unknown #
vertex $-1 $341 $410 #
vertex $-1 $343 $411 #
straight-curve $-1 -47.511986035134193 -19.456363561128828 0 0 0 -1 I I #
coedge $-1 $405 $289 $288 $348 forward $304 $-1 #
edge $-1 $291 -30.604200346646568 $360 30.604200346646568 $288 $412 forward 7 unknown #
straight-curve $-1 0 30.604200346646568 8.658036341239022 -1 0 0 I I #
point $-1 -61.828058717612237 30.604200346646568 8.658036341239022 #
coedge $-1 $398 $293 $393 $413 forward $238 $-1 #
coedge $-1 $301 $394 $293 $353 reversed $364 $-1 #
edge $-1 $308 -61.828058717612237 $414 44.511986035134193 $352 $415 forward 7 unknown #
coedge $-1 $403 $297 $294 $355 reversed $359 $-1 #
edge $-1 $408 47.511986035134193 $299 61.828058717612237 $354 $415 forward 7 unknown #
face $-1 $185 $359 $11 $-1 $391 reversed single #
plane-surface $-1 0 0 -8.658036341239022 0 0 1 1 0 0 forward_v I I I I #
coedge $-1 $297 $403 $405 $416 reversed $359 $-1 #
loop $-1 $-1 $403 $356 #
vertex $-1 $348 $417 #
straight-curve $-1 -61.828058717612237 -30.604200346646568 0 0 0 -1 I I #
point $-1 -61.828058717612237 -30.604200346646568 -8.658036341239022 #
coedge $-1 $394 $301 $303 $367 reversed $364 $-1 #
loop $-1 $-1 $394 $332 #
straight-curve $-1 61.828058717612237 -30.604200346646568 0 0 0 -1 I I #
coedge $-1 $303 $396 $392 $418 forward $304 $-1 #
edge $-1 $419 -44.511986035134193 $305 61.828058717612237 $363 $420 forward 7 unknown #
point $-1 61.828058717612237 -30.604200346646568 8.658036341239022 #
point $-1 61.828058717612237 -30.604200346646568 -8.658036341239022 #
face $-1 $-1 $377 $10 $-1 $421 reversed single #
loop $-1 $-1 $382 $310 #
plane-surface $-1 0 30.604200346646568 0 0 -1 0 0 0 -1 forward_v I I I I #
coedge $-1 $315 $422 $313 $374 reversed $377 $-1 #
edge $-1 $318 -30.604200346646568 $384 30.604200346646568 $373 $423 forward 7 unknown #
coedge $-1 $422 $315 $314 $376 reversed $377 $-1 #
edge $-1 $388 -30.604200346646568 $317 30.604200346646568 $375 $424 forward 7 unknown #
loop $-1 $-1 $315 $370 #
straight-curve $-1 61.828058717612237 -30.604200346646568 0 0 0 -1 I I #
point $-1 61.828058717612237 -30.604200346646568 -8.658036341239022 #
point $-1 61.828058717612237 -30.604200346646568 8.658036341239022 #
straight-curve $-1 -61.828058717612237 -30.604200346646568 0 0 0 -1 I I #
coedge $-1 $327 $321 $422 $425 forward $371 $-1 #
coedge $-1 $321 $327 $323 $386 reversed $371 $-1 #
vertex $-1 $374 $426 #
straight-curve $-1 0 30.604200346646568 8.658036341239022 -1 0 0 I I #
edge $-1 $324 -8.658036341239022 $329 8.658036341239022 $383 $427 forward 7 unknown #
point $-1 -61.828058717612237 30.604200346646568 8.658036341239022 #
vertex $-1 $376 $428 #
straight-curve $-1 0 30.604200346646568 -8.658036341239022 1 0 0 I I #
point $-1 -61.828058717612237 30.604200346646568 -8.658036341239022 #
plane-surface $-1 0 -30.604200346646568 0 0 1 0 0 0 1 forward_v I I I I #
coedge $-1 $337 $334 $366 $418 reversed $281 $-1 #
coedge $-1 $334 $337 $351 $413 reversed $281 $-1 #
coedge $-1 $352 $363 $334 $395 forward $364 $-1 #
edge $-1 $419 -8.658036341239022 $414 8.658036341239022 $394 $429 forward 7 unknown #
coedge $-1 $366 $340 $335 $397 forward $304 $-1 #
edge $-1 $344 -24.505993017567096 $400 -21.505993017567096 $396 $430 forward 7 unknown #
coedge $-1 $342 $351 $336 $399 forward $238 $-1 #
edge $-1 $401 21.505993017567096 $345 24.505993017567096 $398 $431 forward 7 unknown #
vertex $-1 $397 $432 #
vertex $-1 $399 $433 #
straight-curve $-1 -44.511986035134193 -19.456363561128828 0 0 0 -1 I I #
coedge $-1 $358 $354 $339 $404 forward $359 $-1 #
edge $-1 $408 -8.658036341239022 $406 8.658036341239022 $403 $434 forward 7 unknown #
coedge $-1 $340 $347 $358 $416 forward $304 $-1 #
vertex $-1 $404 $435 #
straight-curve $-1 -47.511986035134193 -12.515140976943849 8.658036341239022 0 1 0 I I #
vertex $-1 $355 $436 #
straight-curve $-1 -47.511986035134193 -12.515140976943849 -8.658036341239022 0 -1 0 I I #
point $-1 -47.511986035134193 -19.456363561128828 8.658036341239022 #
point $-1 -47.511986035134193 -19.456363561128828 -8.658036341239022 #
straight-curve $-1 -61.828058717612237 0 8.658036341239022 0 -1 0 I I #
edge $-1 $414 -18.089059369702717 $401 -6.9412225841849793 $351 $437 forward 7 unknown #
vertex $-1 $395 $438 #
straight-curve $-1 0 -30.604200346646568 -8.658036341239022 -1 0 0 I I #
edge $-1 $360 -61.828058717612237 $406 -47.511986035134193 $358 $420 forward 7 unknown #
point $-1 -61.828058717612237 -30.604200346646568 8.658036341239022 #
edge $-1 $400 6.9412225841849793 $419 18.089059369702717 $366 $439 forward 7 unknown #
vertex $-1 $367 $440 #
straight-curve $-1 0 -30.604200346646568 8.658036341239022 1 0 0 I I #
plane-surface $-1 61.828058717612237 0 0 -1 0 0 0 0 1 forward_v I I I I #
coedge $-1 $373 $375 $382 $425 reversed $377 $-1 #
straight-curve $-1 61.828058717612237 0 8.658036341239022 0 1 0 I I #
straight-curve $-1 61.828058717612237 0 -8.658036341239022 0 -1 0 I I #
edge $-1 $384 -8.658036341239022 $388 8.658036341239022 $422 $441 forward 7 unknown #
point $-1 61.828058717612237 30.604200346646568 8.658036341239022 #
straight-curve $-1 -61.828058717612237 30.604200346646568 0 0 0 -1 I I #
point $-1 61.828058717612237 30.604200346646568 -8.658036341239022 #
straight-curve $-1 -44.511986035134193 -30.604200346646568 0 0 0 -1 I I #
straight-curve $-1 -23.005993017567096 -19.456363561128828 8.658036341239022 1 0 0 I I #
straight-curve $-1 -23.005993017567096 -19.456363561128828 -8.658036341239022 -1 0 0 I I #
point $-1 -44.511986035134193 -19.456363561128828 8.658036341239022 #
point $-1 -44.511986035134193 -19.456363561128828 -8.658036341239022 #
straight-curve $-1 -47.511986035134193 -30.604200346646568 0 0 0 1 I I #
point $-1 -47.511986035134193 -30.604200346646568 8.658036341239022 #
point $-1 -47.511986035134193 -30.604200346646568 -8.658036341239022 #
straight-curve $-1 -44.511986035134193 -12.515140976943849 -8.658036341239022 0 1 0 I I #
point $-1 -44.511986035134193 -30.604200346646568 -8.658036341239022 #
straight-curve $-1 -44.511986035134193 -12.515140976943849 8.658036341239022 0 -1 0 I I #
point $-1 -44.511986035134193 -30.604200346646568 8.658036341239022 #
straight-curve $-1 61.828058717612237 30.604200346646568 0 0 0 -1 I I #
End-of-ACIS-data 