500 0 8 0           
7 Unknown 11 ACIS 5.0 NT 24 Thu Mar 25 19:24:47 1999 
-1 9.9999999999999995e-007 1e-010 
body $-1 $8 $-1 $9 #
body $-1 $10 $-1 $11 #
body $-1 $12 $-1 $13 #
body $-1 $14 $-1 $15 #
body $-1 $16 $-1 $17 #
body $-1 $18 $-1 $19 #
body $-1 $20 $-1 $21 #
body $-1 $22 $-1 $23 #
lump $-1 $-1 $24 $0 #
transform $-1 1 0 0 0 1 0 0 0 1 48.539078951384013 33.176987079762178 12.37664531287237 1 rotate no_reflect no_shear #
lump $-1 $-1 $25 $1 #
transform $-1 1 0 0 0 1 0 0 0 1 48.539078951384013 33.176987079762178 12.37664531287237 1 rotate no_reflect no_shear #
lump $-1 $-1 $26 $2 #
transform $-1 1 0 0 0 1 0 0 0 1 48.539078951384013 33.176987079762178 12.37664531287237 1 rotate no_reflect no_shear #
lump $-1 $-1 $27 $3 #
transform $-1 1 0 0 0 1 0 0 0 1 48.539078951384013 33.176987079762178 12.37664531287237 1 rotate no_reflect no_shear #
lump $-1 $-1 $28 $4 #
transform $-1 1 0 0 0 1 0 0 0 1 48.539078951384013 33.176987079762178 12.37664531287237 1 rotate no_reflect no_shear #
lump $-1 $-1 $29 $5 #
transform $-1 1 0 0 0 1 0 0 0 1 48.539078951384013 33.176987079762178 12.37664531287237 1 rotate no_reflect no_shear #
lump $-1 $-1 $30 $6 #
transform $-1 1 0 0 0 1 0 0 0 1 48.539078951384013 33.176987079762178 12.37664531287237 1 rotate no_reflect no_shear #
lump $-1 $-1 $31 $7 #
transform $-1 1 0 0 0 1 0 0 0 1 48.539078951384013 33.176987079762178 12.37664531287237 1 rotate no_reflect no_shear #
shell $-1 $-1 $-1 $32 $-1 $8 #
shell $-1 $-1 $-1 $33 $-1 $10 #
shell $-1 $-1 $-1 $34 $-1 $12 #
shell $-1 $-1 $-1 $35 $-1 $14 #
shell $-1 $-1 $-1 $36 $-1 $16 #
shell $-1 $-1 $-1 $37 $-1 $18 #
shell $-1 $-1 $-1 $38 $-1 $20 #
shell $-1 $-1 $-1 $39 $-1 $22 #
face $-1 $40 $41 $24 $-1 $42 reversed single #
face $-1 $43 $44 $25 $-1 $45 forward single #
face $-1 $46 $47 $26 $-1 $48 reversed single #
face $-1 $49 $50 $27 $-1 $51 forward single #
face $-1 $52 $53 $28 $-1 $54 forward single #
face $-1 $55 $56 $29 $-1 $57 reversed single #
face $-1 $58 $59 $30 $-1 $60 forward single #
face $-1 $61 $62 $31 $-1 $63 forward single #
face $-1 $64 $65 $24 $-1 $66 forward single #
loop $-1 $-1 $67 $32 #
plane-surface $-1 0 -33.176987079762178 0 0 1 0 0 0 1 forward_v I I I I #
face $-1 $68 $69 $25 $-1 $70 forward single #
loop $-1 $-1 $71 $33 #
plane-surface $-1 0 -33.176987079762178 0 0 1 0 0 0 1 forward_v I I I I #
face $-1 $72 $73 $26 $-1 $74 reversed single #
loop $-1 $-1 $75 $34 #
plane-surface $-1 15.32580501153025 7.964414885119993 137.17135577839753 0 -1 0 -0.51503808176128008 0 -0.85716729658548041 forward_v I I I I #
face $-1 $76 $77 $27 $-1 $78 forward single #
loop $-1 $79 $80 $35 #
cone-surface $-1 41.235450125303942 1.8932645763470788 7.6692011359439647 -0.51503808176128008 0 -0.85716729658548041 0.85716729658548041 0 -0.51503808176128008 1 I I 0 1 1 forward I I I I #
face $-1 $81 $82 $28 $-1 $83 forward single #
loop $-1 $84 $85 $36 #
cone-surface $-1 41.235450125303942 5.5359547616108244 7.6692011359439647 -0.51503808176128008 0 -0.85716729658548041 0.85716729658548041 0 -0.51503808176128008 1 I I 0 1 1 forward I I I I #
face $-1 $86 $87 $29 $-1 $88 reversed single #
loop $-1 $-1 $89 $37 #
plane-surface $-1 15.32580501153025 24.677376647480095 137.17135577839753 0 1 0 0.51503808176128008 0 0.85716729658548041 forward_v I I I I #
face $-1 $90 $91 $30 $-1 $92 forward single #
loop $-1 $93 $94 $38 #
cone-surface $-1 41.235450125303942 27.105836770989264 7.6692011359439647 -0.51503808176128008 0 -0.85716729658548041 0.85716729658548041 0 -0.51503808176128008 1 I I 0 1 1 forward I I I I #
face $-1 $95 $96 $31 $-1 $97 forward single #
loop $-1 $98 $99 $39 #
cone-surface $-1 41.235450125303942 30.748526956253009 7.6692011359439647 -0.51503808176128008 0 -0.85716729658548041 0.85716729658548041 0 -0.51503808176128008 1 I I 0 1 1 forward I I I I #
face $-1 $100 $101 $24 $-1 $102 reversed single #
loop $-1 $-1 $103 $40 #
plane-surface $-1 0 0 12.37664531287237 0 0 1 1 0 0 forward_v I I I I #
coedge $-1 $104 $105 $106 $107 reversed $41 $-1 #
face $-1 $108 $109 $25 $-1 $110 reversed single #
loop $-1 $-1 $111 $43 #
plane-surface $-1 0 0 12.37664531287237 0 0 1 1 0 0 forward_v I I I I #
coedge $-1 $112 $113 $114 $115 forward $44 $-1 #
face $-1 $116 $117 $26 $-1 $118 reversed single #
loop $-1 $-1 $119 $46 #
plane-surface $-1 -34.673143215630049 3.7146096689789516 53.959133611383464 0.51503808176128008 0 0.85716729658548041 0.85716729658548041 0 -0.51503808176128008 forward_v I I I I #
coedge $-1 $120 $121 $122 $123 reversed $47 $-1 #
face $-1 $-1 $124 $27 $-1 $125 forward single #
loop $-1 $126 $127 $49 #
cone-surface $-1 40.677972918180089 1.8932645763470788 6.7414032750474178 -0.51503808176128008 0 -0.85716729658548041 0.4285836482927402 0 -0.25751904088064004 1 I I -0.70710678118654813 0.70710678118654691 0.5 forward I I I I #
loop $-1 $-1 $128 $35 #
coedge $-1 $80 $80 $129 $130 reversed $50 $-1 #
face $-1 $-1 $131 $28 $-1 $132 forward single #
loop $-1 $133 $134 $52 #
cone-surface $-1 40.677972918180089 5.5359547616108244 6.7414032750474178 -0.51503808176128008 0 -0.85716729658548041 0.4285836482927402 0 -0.25751904088064004 1 I I -0.70710678118654813 0.70710678118654691 0.5 forward I I I I #
loop $-1 $-1 $135 $36 #
coedge $-1 $85 $85 $136 $137 reversed $53 $-1 #
face $-1 $138 $139 $29 $-1 $140 reversed single #
loop $-1 $-1 $141 $55 #
plane-surface $-1 -34.673143215630049 28.927181863621136 53.959133611383464 0.51503808176128008 0 0.85716729658548041 0.85716729658548041 0 -0.51503808176128008 forward_v I I I I #
coedge $-1 $142 $143 $144 $145 reversed $56 $-1 #
face $-1 $-1 $146 $30 $-1 $147 forward single #
loop $-1 $148 $149 $58 #
cone-surface $-1 40.677972918180089 27.105836770989264 6.7414032750474178 -0.51503808176128008 0 -0.85716729658548041 0.4285836482927402 0 -0.25751904088064004 1 I I -0.70710678118654813 0.70710678118654691 0.5 forward I I I I #
loop $-1 $-1 $150 $38 #
coedge $-1 $94 $94 $151 $152 reversed $59 $-1 #
face $-1 $-1 $153 $31 $-1 $154 forward single #
loop $-1 $155 $156 $61 #
cone-surface $-1 40.677972918180089 30.748526956253009 6.7414032750474178 -0.51503808176128008 0 -0.85716729658548041 0.4285836482927402 0 -0.25751904088064004 1 I I -0.70710678118654813 0.70710678118654691 0.5 forward I I I I #
loop $-1 $-1 $157 $39 #
coedge $-1 $99 $99 $158 $159 reversed $62 $-1 #
face $-1 $160 $161 $24 $-1 $162 reversed single #
loop $-1 $-1 $163 $64 #
plane-surface $-1 0 0 -12.37664531287237 0 0 1 1 0 0 forward_v I I I I #
coedge $-1 $164 $165 $166 $167 forward $65 $-1 #
coedge $-1 $168 $67 $169 $170 reversed $41 $-1 #
coedge $-1 $67 $168 $171 $172 forward $41 $-1 #
coedge $-1 $173 $163 $67 $107 forward $101 $-1 #
edge $-1 $174 -48.539078951384013 $175 48.539078951384013 $67 $176 forward 7 unknown #
face $-1 $177 $178 $25 $-1 $179 reversed single #
loop $-1 $-1 $180 $68 #
plane-surface $-1 -48.539078951384013 0 0 1 0 0 0 0 -1 forward_v I I I I #
coedge $-1 $181 $182 $113 $183 forward $69 $-1 #
coedge $-1 $184 $71 $185 $186 reversed $44 $-1 #
coedge $-1 $71 $184 $111 $183 reversed $44 $-1 #
coedge $-1 $187 $188 $71 $115 reversed $189 $-1 #
edge $-1 $190 -12.37664531287237 $191 12.37664531287237 $114 $192 forward 7 unknown #
face $-1 $193 $194 $26 $-1 $195 forward single #
loop $-1 $-1 $196 $72 #
plane-surface $-1 15.32580501153025 -0.53519554716208972 137.17135577839753 0 1 0 0.51503808176128008 0 0.85716729658548041 forward_v I I I I #
coedge $-1 $197 $198 $199 $200 reversed $73 $-1 #
coedge $-1 $121 $75 $201 $202 reversed $47 $-1 #
coedge $-1 $75 $120 $197 $203 reversed $47 $-1 #
coedge $-1 $199 $204 $75 $123 forward $194 $-1 #
edge $-1 $205 -40.876176445618889 $206 -26.868835125945175 $122 $207 forward 7 unknown #
loop $-1 $-1 $129 $76 #
plane-surface $-1 -34.673143215630049 3.7146096689789516 53.959133611383464 0.51503808176128008 0 0.85716729658548041 0.85716729658548041 0 -0.51503808176128008 forward_v I I I I #
loop $-1 $-1 $208 $49 #
coedge $-1 $127 $127 $128 $209 reversed $77 $-1 #
coedge $-1 $128 $128 $127 $209 forward $79 $-1 #
coedge $-1 $129 $129 $80 $130 forward $124 $-1 #
edge $-1 $210 0 $210 6.2831853071796004 $129 $211 forward 7 unknown #
loop $-1 $-1 $136 $81 #
plane-surface $-1 -34.673143215630049 3.7146096689789516 53.959133611383464 0.51503808176128008 0 0.85716729658548041 0.85716729658548041 0 -0.51503808176128008 forward_v I I I I #
loop $-1 $-1 $212 $52 #
coedge $-1 $134 $134 $135 $213 reversed $82 $-1 #
coedge $-1 $135 $135 $134 $213 forward $84 $-1 #
coedge $-1 $136 $136 $85 $137 forward $131 $-1 #
edge $-1 $214 0 $214 6.2831853071796004 $136 $215 forward 7 unknown #
face $-1 $216 $217 $29 $-1 $218 reversed single #
loop $-1 $-1 $144 $86 #
plane-surface $-1 48.539078951384013 0 0 -1 0 0 0 0 1 forward_v I I I I #
coedge $-1 $219 $220 $221 $222 reversed $87 $-1 #
coedge $-1 $143 $89 $223 $224 reversed $56 $-1 #
coedge $-1 $89 $142 $219 $225 reversed $56 $-1 #
coedge $-1 $221 $226 $89 $145 forward $139 $-1 #
edge $-1 $227 56.209032576326393 $228 64.625492504975597 $144 $229 forward 7 unknown #
loop $-1 $-1 $151 $90 #
plane-surface $-1 -34.673143215630049 28.927181863621136 53.959133611383464 0.51503808176128008 0 0.85716729658548041 0.85716729658548041 0 -0.51503808176128008 forward_v I I I I #
loop $-1 $-1 $230 $58 #
coedge $-1 $149 $149 $150 $231 reversed $91 $-1 #
coedge $-1 $150 $150 $149 $231 forward $93 $-1 #
coedge $-1 $151 $151 $94 $152 forward $146 $-1 #
edge $-1 $232 0 $232 6.2831853071796004 $151 $233 forward 7 unknown #
loop $-1 $-1 $158 $95 #
plane-surface $-1 -34.673143215630049 28.927181863621136 53.959133611383464 0.51503808176128008 0 0.85716729658548041 0.85716729658548041 0 -0.51503808176128008 forward_v I I I I #
loop $-1 $-1 $234 $61 #
coedge $-1 $156 $156 $157 $235 reversed $96 $-1 #
coedge $-1 $157 $157 $156 $235 forward $98 $-1 #
coedge $-1 $158 $158 $99 $159 forward $153 $-1 #
edge $-1 $236 0 $236 6.2831853071796004 $158 $237 forward 7 unknown #
face $-1 $238 $239 $24 $-1 $240 reversed single #
loop $-1 $-1 $241 $100 #
plane-surface $-1 -48.539078951384013 0 0 1 0 0 0 0 -1 forward_v I I I I #
coedge $-1 $106 $242 $243 $244 forward $101 $-1 #
coedge $-1 $245 $103 $246 $247 forward $65 $-1 #
coedge $-1 $103 $245 $168 $248 forward $65 $-1 #
coedge $-1 $169 $249 $103 $167 reversed $250 $-1 #
edge $-1 $251 -33.176987079762178 $252 33.176987079762178 $166 $253 forward 7 unknown #
coedge $-1 $105 $104 $165 $248 reversed $41 $-1 #
coedge $-1 $243 $166 $104 $170 forward $250 $-1 #
edge $-1 $251 -12.37664531287237 $174 12.37664531287237 $169 $254 forward 7 unknown #
coedge $-1 $255 $256 $105 $172 reversed $161 $-1 #
edge $-1 $257 -12.37664531287237 $175 12.37664531287237 $171 $258 forward 7 unknown #
coedge $-1 $242 $106 $256 $259 forward $101 $-1 #
vertex $-1 $170 $260 #
vertex $-1 $259 $261 #
straight-curve $-1 0 -33.176987079762178 -12.37664531287237 -1 0 0 I I #
face $-1 $262 $189 $25 $-1 $263 reversed single #
loop $-1 $-1 $264 $108 #
plane-surface $-1 -46.77374409623183 -49.105816850002149 0 0 1 0 0 0 1 forward_v I I I I #
coedge $-1 $265 $266 $184 $267 forward $109 $-1 #
coedge $-1 $268 $111 $266 $269 forward $69 $-1 #
coedge $-1 $111 $268 $187 $270 forward $69 $-1 #
edge $-1 $190 45.008409241079647 $271 48.539078951384013 $111 $272 forward 7 unknown #
coedge $-1 $113 $112 $180 $267 reversed $44 $-1 #
coedge $-1 $273 $274 $112 $186 forward $275 $-1 #
edge $-1 $276 -48.539078951384013 $191 -45.008409241079647 $185 $277 forward 7 unknown #
coedge $-1 $278 $114 $182 $270 reversed $189 $-1 #
coedge $-1 $114 $278 $273 $279 reversed $189 $-1 #
loop $-1 $-1 $278 $177 #
vertex $-1 $183 $280 #
vertex $-1 $279 $281 #
straight-curve $-1 -45.008409241079647 -33.176987079762178 0 0 0 -1 I I #
face $-1 $-1 $282 $26 $-1 $283 reversed single #
loop $-1 $-1 $122 $116 #
plane-surface $-1 0 0 12.37664531287237 0 0 1 1 0 0 forward_v I I I I #
coedge $-1 $284 $285 $286 $287 reversed $117 $-1 #
coedge $-1 $288 $119 $121 $203 forward $73 $-1 #
coedge $-1 $119 $288 $284 $289 forward $73 $-1 #
coedge $-1 $286 $122 $119 $200 forward $194 $-1 #
edge $-1 $206 -6.1071100506305172 $290 2.3925003816515655 $199 $291 forward 7 unknown #
coedge $-1 $292 $293 $120 $202 forward $282 $-1 #
edge $-1 $294 -64.625492504975597 $205 -56.209032576326393 $201 $295 forward 7 unknown #
edge $-1 $206 80.736725634561054 $294 97.078157902768027 $121 $296 forward 7 unknown #
coedge $-1 $122 $286 $292 $297 forward $194 $-1 #
vertex $-1 $202 $298 #
vertex $-1 $123 $299 #
straight-curve $-1 7.6629025057651248 7.964414885119993 12.37664531287237 -1 0 0 I I #
coedge $-1 $208 $208 $-1 $300 reversed $126 $-1 #
edge $-1 $301 0 $301 6.2831853071796004 $127 $302 forward 7 unknown #
vertex $-1 $130 $303 #
ellipse-curve $-1 41.535408291547157 1.8932645763470788 8.1684153485477715 0.51503808176128008 0 0.85716729658548041 0.85716729658548041 0 -0.51503808176128008 1 I I #
coedge $-1 $212 $212 $-1 $304 reversed $133 $-1 #
edge $-1 $305 0 $305 6.2831853071796004 $134 $306 forward 7 unknown #
vertex $-1 $137 $307 #
ellipse-curve $-1 41.535408291547157 5.5359547616108244 8.1684153485477715 0.51503808176128008 0 0.85716729658548041 0.85716729658548041 0 -0.51503808176128008 1 I I #
face $-1 $-1 $308 $29 $-1 $309 forward single #
loop $-1 $-1 $310 $138 #
plane-surface $-1 0 33.176987079762178 0 0 -1 0 0 0 -1 forward_v I I I I #
coedge $-1 $311 $141 $143 $225 forward $87 $-1 #
coedge $-1 $141 $311 $310 $312 reversed $87 $-1 #
coedge $-1 $313 $144 $141 $222 forward $139 $-1 #
edge $-1 $228 10.213785715669527 $314 18.71339614795161 $221 $315 forward 7 unknown #
coedge $-1 $316 $317 $142 $224 forward $308 $-1 #
edge $-1 $318 26.868835125945175 $227 40.876176445618889 $223 $319 forward 7 unknown #
edge $-1 $228 -97.078157902768027 $318 -80.736725634561054 $143 $320 forward 7 unknown #
coedge $-1 $144 $313 $316 $321 reversed $139 $-1 #
vertex $-1 $321 $322 #
vertex $-1 $145 $323 #
straight-curve $-1 48.539078951384013 24.677376647480095 68.585677889198763 0 0 -1 I I #
coedge $-1 $230 $230 $-1 $324 reversed $148 $-1 #
edge $-1 $325 0 $325 6.2831853071796004 $149 $326 forward 7 unknown #
vertex $-1 $152 $327 #
ellipse-curve $-1 41.535408291547157 27.105836770989264 8.1684153485477715 0.51503808176128008 0 0.85716729658548041 0.85716729658548041 0 -0.51503808176128008 1 I I #
coedge $-1 $234 $234 $-1 $328 reversed $155 $-1 #
edge $-1 $329 0 $329 6.2831853071796004 $156 $330 forward 7 unknown #
vertex $-1 $159 $331 #
ellipse-curve $-1 41.535408291547157 30.748526956253009 8.1684153485477715 0.51503808176128008 0 0.85716729658548041 0.85716729658548041 0 -0.51503808176128008 1 I I #
face $-1 $-1 $250 $24 $-1 $332 reversed single #
loop $-1 $-1 $333 $160 #
plane-surface $-1 0 33.176987079762178 0 0 -1 0 0 0 -1 forward_v I I I I #
coedge $-1 $256 $255 $334 $335 forward $161 $-1 #
coedge $-1 $163 $173 $336 $337 forward $101 $-1 #
coedge $-1 $249 $169 $163 $244 reversed $250 $-1 #
edge $-1 $338 -33.176987079762178 $174 33.176987079762178 $243 $339 forward 7 unknown #
coedge $-1 $165 $164 $255 $340 forward $65 $-1 #
coedge $-1 $333 $334 $164 $247 reversed $239 $-1 #
edge $-1 $252 -48.539078951384013 $341 48.539078951384013 $246 $342 forward 7 unknown #
edge $-1 $257 -48.539078951384013 $251 48.539078951384013 $168 $343 forward 7 unknown #
coedge $-1 $166 $243 $333 $344 reversed $250 $-1 #
loop $-1 $-1 $169 $238 #
vertex $-1 $167 $345 #
vertex $-1 $167 $346 #
straight-curve $-1 48.539078951384013 0 12.37664531287237 0 1 0 I I #
straight-curve $-1 48.539078951384013 -33.176987079762178 0 0 0 -1 I I #
coedge $-1 $241 $171 $245 $340 reversed $161 $-1 #
coedge $-1 $171 $241 $173 $259 reversed $161 $-1 #
vertex $-1 $340 $347 #
straight-curve $-1 -48.539078951384013 -33.176987079762178 0 0 0 -1 I I #
edge $-1 $175 -33.176987079762178 $348 33.176987079762178 $256 $349 forward 7 unknown #
point $-1 48.539078951384013 -33.176987079762178 -12.37664531287237 #
point $-1 -48.539078951384013 -33.176987079762178 -12.37664531287237 #
face $-1 $-1 $275 $25 $-1 $350 reversed single #
plane-surface $-1 -45.008409241079647 -41.141401964882164 0 -1 0 0 0 0 1 forward_v I I I I #
coedge $-1 $351 $352 $353 $354 forward $178 $-1 #
coedge $-1 $353 $180 $274 $355 reversed $109 $-1 #
coedge $-1 $180 $353 $181 $269 reversed $109 $-1 #
edge $-1 $271 -12.37664531287237 $276 12.37664531287237 $180 $356 forward 7 unknown #
coedge $-1 $182 $181 $352 $357 forward $69 $-1 #
edge $-1 $271 33.176987079762178 $358 49.105816850002149 $266 $359 forward 7 unknown #
edge $-1 $360 -7.9644148851199859 $190 7.9644148851199859 $187 $361 forward 7 unknown #
vertex $-1 $269 $362 #
straight-curve $-1 0 -33.176987079762178 12.37664531287237 -1 0 0 I I #
coedge $-1 $363 $185 $188 $279 forward $275 $-1 #
coedge $-1 $185 $363 $265 $355 forward $275 $-1 #
loop $-1 $-1 $185 $262 #
vertex $-1 $267 $364 #
straight-curve $-1 0 -33.176987079762178 -12.37664531287237 1 0 0 I I #
coedge $-1 $188 $187 $365 $366 forward $189 $-1 #
edge $-1 $191 -7.9644148851199859 $367 7.9644148851199859 $188 $368 forward 7 unknown #
point $-1 -45.008409241079647 -33.176987079762178 12.37664531287237 #
point $-1 -45.008409241079647 -33.176987079762178 -12.37664531287237 #
loop $-1 $-1 $201 $193 #
plane-surface $-1 48.539078951384013 0 0 -1 0 0 0 0 1 forward_v I I I I #
coedge $-1 $285 $196 $198 $289 reversed $117 $-1 #
coedge $-1 $196 $284 $369 $370 reversed $117 $-1 #
coedge $-1 $204 $199 $196 $287 forward $194 $-1 #
edge $-1 $290 26.868835125945175 $371 40.876176445618889 $286 $372 forward 7 unknown #
coedge $-1 $198 $197 $293 $373 reversed $73 $-1 #
edge $-1 $374 -97.078157902768027 $290 -80.736725634561054 $284 $375 forward 7 unknown #
vertex $-1 $200 $376 #
straight-curve $-1 34.531737631710307 1.8573048344894758 12.37664531287237 0 -1 0 I I #
coedge $-1 $369 $201 $204 $297 reversed $282 $-1 #
coedge $-1 $201 $369 $288 $373 forward $282 $-1 #
vertex $-1 $202 $377 #
straight-curve $-1 48.539078951384013 7.964414885119993 68.585677889198763 0 0 1 I I #
straight-curve $-1 -34.673143215630049 7.964414885119993 53.959133611383464 0.85716729658548041 0 -0.51503808176128008 I I #
edge $-1 $371 -0.53519554716208972 $205 7.964414885119993 $292 $378 forward 7 unknown #
point $-1 48.539078951384013 7.964414885119993 12.37664531287237 #
point $-1 34.5317376317103 7.964414885119993 12.37664531287237 #
edge $-1 $379 1 $379 0 $208 $-1 forward 7 unknown #
vertex $-1 $209 $380 #
ellipse-curve $-1 40.935491959060727 1.8932645763470788 7.169986923340157 0.51503808176128008 0 0.85716729658548041 0.85716729658548041 0 -0.51503808176128008 1 I I #
point $-1 42.392575588132637 1.8932645763470788 7.6533772667864941 #
edge $-1 $381 1 $381 0 $212 $-1 forward 7 unknown #
vertex $-1 $213 $382 #
ellipse-curve $-1 40.935491959060727 5.5359547616108244 7.169986923340157 0.51503808176128008 0 0.85716729658548041 0.85716729658548041 0 -0.51503808176128008 1 I I #
point $-1 42.392575588132637 5.5359547616108244 7.6533772667864941 #
loop $-1 $-1 $223 $216 #
plane-surface $-1 0 0 12.37664531287237 0 0 1 1 0 0 forward_v I I I I #
coedge $-1 $383 $384 $220 $312 forward $217 $-1 #
coedge $-1 $220 $219 $317 $385 reversed $87 $-1 #
edge $-1 $314 -68.322311351282849 $386 -51.98087908307587 $310 $387 forward 7 unknown #
coedge $-1 $226 $221 $384 $388 reversed $139 $-1 #
vertex $-1 $312 $389 #
straight-curve $-1 48.539078951384013 14.463590931810568 3.9601853842231698 0 1 0 I I #
coedge $-1 $390 $223 $226 $321 forward $308 $-1 #
coedge $-1 $223 $390 $311 $385 forward $308 $-1 #
vertex $-1 $224 $391 #
straight-curve $-1 7.6629025057651248 24.677376647480095 12.37664531287237 1 0 0 I I #
straight-curve $-1 -34.673143215630049 24.677376647480095 53.959133611383464 -0.85716729658548041 0 0.51503808176128008 I I #
edge $-1 $227 24.677376647480095 $392 33.176987079762178 $226 $393 forward 7 unknown #
point $-1 48.539078951384013 24.677376647480095 12.37664531287237 #
point $-1 48.539078951384013 24.677376647480095 3.9601853842231662 #
edge $-1 $394 1 $394 0 $230 $-1 forward 7 unknown #
vertex $-1 $231 $395 #
ellipse-curve $-1 40.935491959060727 27.105836770989264 7.169986923340157 0.51503808176128008 0 0.85716729658548041 0.85716729658548041 0 -0.51503808176128008 1 I I #
point $-1 42.392575588132637 27.105836770989264 7.6533772667864941 #
edge $-1 $396 1 $396 0 $234 $-1 forward 7 unknown #
vertex $-1 $235 $397 #
ellipse-curve $-1 40.935491959060727 30.748526956253009 7.169986923340157 0.51503808176128008 0 0.85716729658548041 0.85716729658548041 0 -0.51503808176128008 1 I I #
point $-1 42.392575588132637 30.748526956253009 7.6533772667864941 #
plane-surface $-1 48.539078951384013 0 0 -1 0 0 0 0 1 forward_v I I I I #
coedge $-1 $336 $246 $249 $344 forward $239 $-1 #
coedge $-1 $246 $336 $241 $335 reversed $239 $-1 #
edge $-1 $341 -12.37664531287237 $348 12.37664531287237 $334 $398 forward 7 unknown #
coedge $-1 $334 $333 $242 $337 reversed $239 $-1 #
edge $-1 $348 -48.539078951384013 $338 48.539078951384013 $336 $399 forward 7 unknown #
vertex $-1 $244 $400 #
straight-curve $-1 48.539078951384013 0 -12.37664531287237 0 -1 0 I I #
edge $-1 $341 -33.176987079762178 $257 33.176987079762178 $255 $401 forward 7 unknown #
vertex $-1 $247 $402 #
straight-curve $-1 0 33.176987079762178 12.37664531287237 -1 0 0 I I #
straight-curve $-1 0 -33.176987079762178 12.37664531287237 1 0 0 I I #
edge $-1 $252 -12.37664531287237 $338 12.37664531287237 $249 $403 forward 7 unknown #
point $-1 48.539078951384013 -33.176987079762178 12.37664531287237 #
point $-1 48.539078951384013 33.176987079762178 12.37664531287237 #
point $-1 -48.539078951384013 -33.176987079762178 12.37664531287237 #
vertex $-1 $337 $404 #
straight-curve $-1 -48.539078951384013 0 -12.37664531287237 0 1 0 I I #
plane-surface $-1 0 0 -12.37664531287237 0 0 1 1 0 0 forward_v I I I I #
coedge $-1 $365 $264 $363 $405 reversed $178 $-1 #
coedge $-1 $264 $365 $268 $357 reversed $178 $-1 #
coedge $-1 $266 $265 $264 $354 reversed $109 $-1 #
edge $-1 $358 -12.37664531287237 $406 12.37664531287237 $353 $407 forward 7 unknown #
edge $-1 $406 -49.105816850002149 $276 -33.176987079762178 $265 $408 forward 7 unknown #
straight-curve $-1 -48.539078951384013 -33.176987079762178 0 0 0 -1 I I #
edge $-1 $358 -1.765334855152183 $360 1.765334855152183 $352 $409 forward 7 unknown #
vertex $-1 $269 $410 #
straight-curve $-1 -48.539078951384013 0 12.37664531287237 0 -1 0 I I #
vertex $-1 $270 $411 #
straight-curve $-1 -45.008409241079647 -41.141401964882164 12.37664531287237 0 1 0 I I #
point $-1 -48.539078951384013 -33.176987079762178 12.37664531287237 #
coedge $-1 $274 $273 $351 $405 forward $275 $-1 #
point $-1 -48.539078951384013 -33.176987079762178 -12.37664531287237 #
coedge $-1 $352 $351 $278 $366 reversed $178 $-1 #
edge $-1 $360 -12.37664531287237 $367 12.37664531287237 $278 $412 forward 7 unknown #
vertex $-1 $366 $413 #
straight-curve $-1 -45.008409241079647 -41.141401964882164 -12.37664531287237 0 -1 0 I I #
coedge $-1 $293 $292 $285 $370 forward $282 $-1 #
edge $-1 $371 56.209032576326393 $374 64.625492504975597 $369 $414 forward 7 unknown #
vertex $-1 $297 $415 #
straight-curve $-1 7.6629025057651248 -0.53519554716208972 12.37664531287237 1 0 0 I I #
edge $-1 $374 -2.3925003816515655 $294 6.1071100506305172 $293 $416 forward 7 unknown #
vertex $-1 $373 $417 #
straight-curve $-1 -34.673143215630049 -0.53519554716208972 53.959133611383464 -0.85716729658548041 0 0.51503808176128008 I I #
point $-1 34.5317376317103 -0.53519554716208972 12.37664531287237 #
point $-1 48.539078951384013 7.964414885119993 3.9601853842231662 #
straight-curve $-1 48.539078951384013 0 12.37664531287237 0 1 0 I I #
vertex $-1 $300 $418 #
point $-1 41.792659255646207 1.8932645763470788 6.6549488415788769 #
vertex $-1 $304 $419 #
point $-1 41.792659255646207 5.5359547616108244 6.6549488415788769 #
coedge $-1 $384 $310 $390 $420 reversed $217 $-1 #
coedge $-1 $310 $383 $313 $388 forward $217 $-1 #
edge $-1 $386 -18.71339614795161 $318 -10.213785715669527 $317 $421 forward 7 unknown #
vertex $-1 $312 $422 #
straight-curve $-1 -10.024571966066588 33.176987079762178 39.148777564084817 -0.85716729658548041 0 0.51503808176128008 I I #
edge $-1 $392 -12.37664531287237 $314 -3.9601853842231738 $313 $423 forward 7 unknown #
point $-1 48.539078951384013 33.176987079762178 3.9601853842231738 #
coedge $-1 $317 $316 $383 $420 forward $308 $-1 #
point $-1 34.5317376317103 24.677376647480095 12.37664531287237 #
vertex $-1 $321 $424 #
straight-curve $-1 48.539078951384013 0 12.37664531287237 0 1 0 I I #
vertex $-1 $324 $425 #
point $-1 41.792659255646207 27.105836770989264 6.6549488415788769 #
vertex $-1 $328 $426 #
point $-1 41.792659255646207 30.748526956253009 6.6549488415788769 #
straight-curve $-1 -48.539078951384013 33.176987079762178 0 0 0 -1 I I #
straight-curve $-1 0 33.176987079762178 -12.37664531287237 1 0 0 I I #
point $-1 48.539078951384013 33.176987079762178 -12.37664531287237 #
straight-curve $-1 -48.539078951384013 0 12.37664531287237 0 -1 0 I I #
point $-1 -48.539078951384013 33.176987079762178 12.37664531287237 #
straight-curve $-1 48.539078951384013 33.176987079762178 0 0 0 -1 I I #
point $-1 -48.539078951384013 33.176987079762178 -12.37664531287237 #
edge $-1 $367 -1.765334855152183 $406 1.765334855152183 $351 $427 forward 7 unknown #
vertex $-1 $355 $428 #
straight-curve $-1 -48.539078951384013 -49.105816850002149 0 0 0 -1 I I #
straight-curve $-1 -48.539078951384013 0 -12.37664531287237 0 1 0 I I #
straight-curve $-1 -46.77374409623183 -49.105816850002149 12.37664531287237 1 0 0 I I #
point $-1 -48.539078951384013 -49.105816850002149 12.37664531287237 #
point $-1 -45.008409241079647 -49.105816850002149 12.37664531287237 #
straight-curve $-1 -45.008409241079647 -49.105816850002149 0 0 0 -1 I I #
point $-1 -45.008409241079647 -49.105816850002149 -12.37664531287237 #
straight-curve $-1 48.539078951384013 -0.53519554716208972 68.585677889198763 0 0 -1 I I #
point $-1 48.539078951384013 -0.53519554716208972 12.37664531287237 #
straight-curve $-1 48.539078951384013 1.8573048344894758 3.9601853842231698 0 1 0 I I #
point $-1 48.539078951384013 -0.53519554716208972 3.9601853842231662 #
point $-1 40.420453877299451 1.8932645763470788 6.3128196267546786 #
point $-1 40.420453877299451 5.5359547616108244 6.3128196267546786 #
edge $-1 $392 -48.539078951384013 $386 -34.5317376317103 $383 $429 forward 7 unknown #
straight-curve $-1 34.531737631710307 14.463590931810568 12.37664531287237 0 -1 0 I I #
point $-1 34.5317376317103 33.176987079762178 12.37664531287237 #
straight-curve $-1 48.539078951384013 33.176987079762178 0 0 0 -1 I I #
point $-1 48.539078951384013 33.176987079762178 12.37664531287237 #
point $-1 40.420453877299451 27.105836770989264 6.3128196267546786 #
point $-1 40.420453877299451 30.748526956253009 6.3128196267546786 #
straight-curve $-1 -46.77374409623183 -49.105816850002149 -12.37664531287237 -1 0 0 I I #
point $-1 -48.539078951384013 -49.105816850002149 -12.37664531287237 #
straight-curve $-1 0 33.176987079762178 12.37664531287237 -1 0 0 I I #
End-of-ACIS-data 