500 0 7 0           
7 Unknown 11 ACIS 5.0 NT 24 Thu Mar 25 17:27:45 1999 
-1 9.9999999999999995e-007 1e-010 
body $-1 $7 $-1 $8 #
body $-1 $9 $-1 $10 #
body $-1 $11 $-1 $12 #
body $-1 $13 $-1 $14 #
body $-1 $15 $-1 $16 #
body $-1 $17 $-1 $18 #
body $-1 $19 $-1 $20 #
lump $-1 $-1 $21 $0 #
transform $-1 1 0 0 0 1 0 0 0 1 75.595568712424082 32.919497358854315 9.0526357265367157 1 rotate no_reflect no_shear #
lump $-1 $-1 $22 $1 #
transform $-1 1 0 0 0 1 0 0 0 1 75.595568712424082 32.919497358854315 9.0526357265367157 1 rotate no_reflect no_shear #
lump $-1 $-1 $23 $2 #
transform $-1 1 0 0 0 1 0 0 0 1 75.595568712424082 32.919497358854315 9.0526357265367157 1 rotate no_reflect no_shear #
lump $-1 $-1 $24 $3 #
transform $-1 1 0 0 0 1 0 0 0 1 75.595568712424082 32.919497358854315 9.0526357265367157 1 rotate no_reflect no_shear #
lump $-1 $-1 $25 $4 #
transform $-1 1 0 0 0 1 0 0 0 1 75.595568712424082 32.919497358854315 9.0526357265367157 1 rotate no_reflect no_shear #
lump $-1 $-1 $26 $5 #
transform $-1 1 0 0 0 1 0 0 0 1 75.595568712424082 32.919497358854315 9.0526357265367157 1 rotate no_reflect no_shear #
lump $-1 $-1 $27 $6 #
transform $-1 1 0 0 0 1 0 0 0 1 75.595568712424082 32.919497358854315 9.0526357265367157 1 rotate no_reflect no_shear #
shell $-1 $-1 $-1 $28 $-1 $7 #
shell $-1 $-1 $-1 $29 $-1 $9 #
shell $-1 $-1 $-1 $30 $-1 $11 #
shell $-1 $-1 $-1 $31 $-1 $13 #
shell $-1 $-1 $-1 $32 $-1 $15 #
shell $-1 $-1 $-1 $33 $-1 $17 #
shell $-1 $-1 $-1 $34 $-1 $19 #
face $-1 $35 $36 $21 $-1 $37 forward single #
face $-1 $38 $39 $22 $-1 $40 reversed single #
face $-1 $41 $42 $23 $-1 $43 reversed single #
face $-1 $44 $45 $24 $-1 $46 forward single #
face $-1 $47 $48 $25 $-1 $49 reversed single #
face $-1 $50 $51 $26 $-1 $52 forward single #
face $-1 $53 $54 $27 $-1 $55 forward single #
face $-1 $56 $57 $21 $-1 $58 reversed single #
loop $-1 $-1 $59 $28 #
plane-surface $-1 0 0 9.0526357265367157 0 0 1 1 0 0 forward_v I I I I #
face $-1 $60 $61 $22 $-1 $62 reversed single #
loop $-1 $-1 $63 $29 #
plane-surface $-1 0 -27.434979263135485 5.6001631895257384 0 0 1 1 0 0 forward_v I I I I #
face $-1 $64 $65 $23 $-1 $66 reversed single #
loop $-1 $-1 $67 $30 #
plane-surface $-1 -186.16976796963473 26.888529745306709 107.57728065216352 0 1 0 -0.73135370988377701 0 0.68199835119979291 forward_v I I I I #
face $-1 $68 $69 $24 $-1 $70 forward single #
loop $-1 $71 $72 $31 #
cone-surface $-1 -72.692644935667644 29.904013552080507 6.0464771743303487 0.73135370988377701 0 -0.68199835119979291 0.68199835119979291 0 0.73135370988377701 1 I I 0 1 1 forward I I I I #
face $-1 $73 $74 $25 $-1 $75 reversed single #
loop $-1 $-1 $76 $32 #
plane-surface $-1 49.537887374055884 -12.209765003114306 213.00193920009326 0 -1 0 -0.61566148304635926 0 -0.78801074757464917 forward_v I I I I #
face $-1 $77 $78 $26 $-1 $79 forward single #
loop $-1 $80 $81 $33 #
cone-surface $-1 69.883870481515444 -19.167405120473127 4.3822775872194626 -0.61566148304635926 0 -0.78801074757464917 0.78801074757464917 0 -0.61566148304635926 1 I I 0 1 1 forward I I I I #
face $-1 $82 $83 $27 $-1 $84 forward single #
loop $-1 $85 $86 $34 #
cone-surface $-1 69.883870481515444 -14.992821050057834 4.3822775872194626 -0.61566148304635926 0 -0.78801074757464917 0.78801074757464917 0 -0.61566148304635926 1 I I 0 1 1 forward I I I I #
face $-1 $87 $88 $21 $-1 $89 reversed single #
loop $-1 $-1 $90 $35 #
plane-surface $-1 0 0 -9.0526357265367157 0 0 1 1 0 0 forward_v I I I I #
coedge $-1 $91 $92 $93 $94 forward $36 $-1 #
face $-1 $95 $96 $22 $-1 $97 reversed single #
loop $-1 $-1 $98 $38 #
plane-surface $-1 0 -21.950461167416655 7.3263994580312275 0 -1 0 0 0 -1 forward_v I I I I #
coedge $-1 $99 $100 $101 $102 reversed $39 $-1 #
face $-1 $103 $104 $23 $-1 $105 forward single #
loop $-1 $-1 $106 $41 #
plane-surface $-1 -75.595568712424068 29.904013552080514 4.4651742123957661 -0.73135370988377701 0 0.68199835119979291 0.68199835119979291 0 0.73135370988377701 forward_v I I I I #
coedge $-1 $107 $108 $109 $110 reversed $42 $-1 #
face $-1 $-1 $111 $24 $-1 $112 forward single #
loop $-1 $113 $114 $44 #
cone-surface $-1 -71.562982786508655 29.904013552080507 4.9930502035945619 0.73135370988377701 0 -0.68199835119979291 0.34099917559989645 0 0.36567685494188851 1 I I -0.70710678118654746 0.70710678118654746 0.5 forward I I I I #
loop $-1 $-1 $115 $31 #
coedge $-1 $72 $72 $116 $117 reversed $45 $-1 #
face $-1 $118 $119 $25 $-1 $120 forward single #
loop $-1 $-1 $121 $47 #
plane-surface $-1 -43.544672516392041 -17.080113085265481 93.861697971277138 0.61566148304635926 0 0.78801074757464917 0.78801074757464917 0 -0.61566148304635926 forward_v I I I I #
coedge $-1 $122 $123 $124 $125 reversed $48 $-1 #
face $-1 $-1 $126 $26 $-1 $127 forward single #
loop $-1 $128 $129 $50 #
cone-surface $-1 69.159138442449787 -19.167405120473127 3.4546628969686193 -0.61566148304635926 0 -0.78801074757464917 0.39400537378732459 0 -0.30783074152317963 1 I I -0.70710678118654746 0.70710678118654746 0.5 forward I I I I #
loop $-1 $-1 $130 $33 #
coedge $-1 $81 $81 $131 $132 reversed $51 $-1 #
face $-1 $-1 $133 $27 $-1 $134 forward single #
loop $-1 $135 $136 $53 #
cone-surface $-1 69.159138442449787 -14.992821050057834 3.4546628969686193 -0.61566148304635926 0 -0.78801074757464917 0.39400537378732459 0 -0.30783074152317963 1 I I -0.70710678118654746 0.70710678118654746 0.5 forward I I I I #
loop $-1 $-1 $137 $34 #
coedge $-1 $86 $86 $138 $139 reversed $54 $-1 #
face $-1 $140 $141 $21 $-1 $142 reversed single #
loop $-1 $-1 $143 $56 #
plane-surface $-1 0 -32.919497358854315 0 0 1 0 0 0 1 forward_v I I I I #
coedge $-1 $144 $145 $146 $147 forward $57 $-1 #
coedge $-1 $148 $59 $149 $150 forward $36 $-1 #
coedge $-1 $59 $148 $151 $152 forward $36 $-1 #
coedge $-1 $153 $154 $59 $94 reversed $155 $-1 #
edge $-1 $156 -32.919497358854315 $157 32.919497358854315 $93 $158 forward 7 unknown #
face $-1 $159 $160 $22 $-1 $161 reversed single #
loop $-1 $-1 $162 $60 #
plane-surface $-1 -75.595568712424082 0 0 1 0 0 0 0 -1 forward_v I I I I #
coedge $-1 $163 $164 $165 $166 reversed $61 $-1 #
coedge $-1 $167 $63 $168 $169 reversed $39 $-1 #
coedge $-1 $63 $167 $163 $170 forward $39 $-1 #
coedge $-1 $165 $171 $63 $102 forward $172 $-1 #
edge $-1 $173 -19.202007727286571 $174 -8.2329715358489128 $101 $175 forward 7 unknown #
face $-1 $176 $177 $23 $-1 $178 reversed single #
loop $-1 $-1 $109 $64 #
plane-surface $-1 0 0 9.0526357265367157 0 0 1 1 0 0 forward_v I I I I #
coedge $-1 $179 $180 $181 $182 reversed $65 $-1 #
coedge $-1 $108 $67 $183 $184 reversed $42 $-1 #
coedge $-1 $67 $107 $179 $185 reversed $42 $-1 #
coedge $-1 $181 $186 $67 $110 forward $104 $-1 #
edge $-1 $187 17.489315272393284 $188 21.76719223747196 $109 $189 forward 7 unknown #
loop $-1 $-1 $116 $68 #
plane-surface $-1 -75.595568712424068 29.904013552080514 4.4651742123957661 -0.73135370988377701 0 0.68199835119979291 0.68199835119979291 0 0.73135370988377701 forward_v I I I I #
loop $-1 $-1 $190 $44 #
coedge $-1 $114 $114 $115 $191 reversed $69 $-1 #
coedge $-1 $115 $115 $114 $191 forward $71 $-1 #
coedge $-1 $116 $116 $72 $117 forward $111 $-1 #
edge $-1 $192 0 $192 6.2831853071796004 $116 $193 forward 7 unknown #
face $-1 $194 $195 $25 $-1 $196 forward single #
loop $-1 $-1 $197 $73 #
plane-surface $-1 0 -21.950461167416655 7.3263994580312275 0 -1 0 0 0 -1 forward_v I I I I #
coedge $-1 $198 $199 $200 $201 reversed $74 $-1 #
coedge $-1 $123 $76 $202 $203 reversed $48 $-1 #
coedge $-1 $76 $122 $198 $204 reversed $48 $-1 #
coedge $-1 $200 $205 $76 $125 forward $195 $-1 #
edge $-1 $206 -50.82662502539614 $207 -40.237031158663768 $124 $208 forward 7 unknown #
loop $-1 $-1 $131 $77 #
plane-surface $-1 -43.544672516392041 -17.080113085265481 93.861697971277138 0.61566148304635926 0 0.78801074757464917 0.78801074757464917 0 -0.61566148304635926 forward_v I I I I #
loop $-1 $-1 $209 $50 #
coedge $-1 $129 $129 $130 $210 reversed $78 $-1 #
coedge $-1 $130 $130 $129 $210 forward $80 $-1 #
coedge $-1 $131 $131 $81 $132 forward $126 $-1 #
edge $-1 $211 0 $211 6.2831853071796004 $131 $212 forward 7 unknown #
loop $-1 $-1 $138 $82 #
plane-surface $-1 -43.544672516392041 -17.080113085265481 93.861697971277138 0.61566148304635926 0 0.78801074757464917 0.78801074757464917 0 -0.61566148304635926 forward_v I I I I #
loop $-1 $-1 $213 $53 #
coedge $-1 $136 $136 $137 $214 reversed $83 $-1 #
coedge $-1 $137 $137 $136 $214 forward $85 $-1 #
coedge $-1 $138 $138 $86 $139 forward $133 $-1 #
edge $-1 $215 0 $215 6.2831853071796004 $138 $216 forward 7 unknown #
face $-1 $217 $218 $21 $-1 $219 reversed single #
loop $-1 $-1 $220 $87 #
plane-surface $-1 -75.595568712424082 0 0 1 0 0 0 0 -1 forward_v I I I I #
coedge $-1 $221 $151 $222 $223 forward $88 $-1 #
coedge $-1 $224 $90 $221 $225 forward $57 $-1 #
coedge $-1 $90 $224 $226 $227 forward $57 $-1 #
coedge $-1 $154 $153 $90 $147 reversed $155 $-1 #
edge $-1 $228 -32.919497358854315 $229 32.919497358854315 $146 $230 forward 7 unknown #
coedge $-1 $92 $91 $231 $232 forward $36 $-1 #
coedge $-1 $233 $234 $91 $150 reversed $218 $-1 #
edge $-1 $157 -75.595568712424082 $235 75.595568712424082 $149 $236 forward 7 unknown #
coedge $-1 $143 $237 $92 $152 reversed $88 $-1 #
edge $-1 $238 -75.595568712424082 $156 75.595568712424082 $151 $239 forward 7 unknown #
coedge $-1 $146 $93 $237 $240 forward $155 $-1 #
coedge $-1 $93 $146 $233 $241 reversed $155 $-1 #
loop $-1 $-1 $153 $217 #
vertex $-1 $94 $242 #
vertex $-1 $94 $243 #
straight-curve $-1 75.595568712424082 0 9.0526357265367157 0 1 0 I I #
face $-1 $244 $245 $22 $-1 $246 forward single #
loop $-1 $-1 $168 $95 #
plane-surface $-1 0 -32.919497358854315 0 0 1 0 0 0 1 forward_v I I I I #
coedge $-1 $247 $248 $249 $250 forward $96 $-1 #
coedge $-1 $249 $98 $100 $170 reversed $61 $-1 #
coedge $-1 $98 $249 $251 $252 reversed $61 $-1 #
coedge $-1 $253 $101 $98 $166 forward $172 $-1 #
edge $-1 $174 1.9369634605101247 $254 5.3894359975211037 $165 $255 forward 7 unknown #
coedge $-1 $100 $99 $247 $256 reversed $39 $-1 #
coedge $-1 $257 $258 $99 $169 forward $160 $-1 #
edge $-1 $259 -75.595568712424082 $173 75.595568712424082 $168 $260 forward 7 unknown #
edge $-1 $261 -75.595568712424082 $174 75.595568712424082 $163 $262 forward 7 unknown #
coedge $-1 $101 $253 $257 $263 forward $172 $-1 #
loop $-1 $-1 $165 $244 #
vertex $-1 $169 $264 #
vertex $-1 $102 $265 #
straight-curve $-1 75.595568712424082 -13.717489631567743 5.6001631895257384 0 1 0 I I #
face $-1 $-1 $266 $23 $-1 $267 reversed single #
loop $-1 $-1 $268 $103 #
plane-surface $-1 0 32.919497358854315 0 0 -1 0 0 0 -1 forward_v I I I I #
coedge $-1 $269 $106 $108 $185 forward $65 $-1 #
coedge $-1 $106 $269 $268 $270 reversed $65 $-1 #
coedge $-1 $271 $109 $106 $182 forward $104 $-1 #
edge $-1 $188 11.936522969266452 $272 17.967490582814058 $181 $273 forward 7 unknown #
coedge $-1 $274 $275 $107 $184 forward $266 $-1 #
edge $-1 $276 -49.32346611368601 $187 -44.736004599545048 $183 $277 forward 7 unknown #
edge $-1 $188 -6.2725620341352535 $276 2.0734513383776317e-014 $108 $278 forward 7 unknown #
coedge $-1 $109 $271 $274 $279 forward $104 $-1 #
vertex $-1 $184 $280 #
vertex $-1 $110 $281 #
straight-curve $-1 -93.084883984817367 26.888529745306709 9.0526357265367139 1 0 0 I I #
coedge $-1 $190 $190 $-1 $282 reversed $113 $-1 #
edge $-1 $283 0 $283 6.2831853071796004 $114 $284 forward 7 unknown #
vertex $-1 $117 $285 #
ellipse-curve $-1 -73.456630229884738 29.904013552080507 6.7589049694662346 -0.73135370988377701 0 0.68199835119979291 0.68199835119979291 0 0.73135370988377701 1 I I #
face $-1 $-1 $286 $25 $-1 $287 reversed single #
loop $-1 $-1 $200 $118 #
plane-surface $-1 0 0 9.0526357265367157 0 0 1 1 0 0 forward_v I I I I #
coedge $-1 $288 $289 $199 $290 reversed $119 $-1 #
coedge $-1 $291 $121 $123 $204 forward $74 $-1 #
coedge $-1 $121 $291 $197 $290 forward $74 $-1 #
coedge $-1 $292 $124 $121 $201 forward $195 $-1 #
edge $-1 $207 3.6697084604815657 $293 13.410404624783915 $200 $294 forward 7 unknown #
coedge $-1 $295 $296 $122 $203 forward $286 $-1 #
edge $-1 $297 -105.72183151921742 $206 -97.44833387350991 $202 $298 forward 7 unknown #
edge $-1 $207 137.75274981487561 $297 151.19113742484816 $123 $299 forward 7 unknown #
coedge $-1 $124 $292 $295 $300 forward $195 $-1 #
vertex $-1 $203 $301 #
vertex $-1 $125 $302 #
straight-curve $-1 24.768943687027942 -12.209765003114306 9.052635726536721 -1 0 0 I I #
coedge $-1 $209 $209 $-1 $303 reversed $128 $-1 #
edge $-1 $304 0 $304 6.2831853071796004 $129 $305 forward 7 unknown #
vertex $-1 $132 $306 #
ellipse-curve $-1 70.300771779057897 -19.167405120473127 4.9158869036829547 0.61566148304635926 0 0.78801074757464917 0.78801074757464917 0 -0.61566148304635926 1 I I #
coedge $-1 $213 $213 $-1 $307 reversed $135 $-1 #
edge $-1 $308 0 $308 6.2831853071796004 $136 $309 forward 7 unknown #
vertex $-1 $139 $310 #
ellipse-curve $-1 70.300771779057897 -14.992821050057834 4.9158869036829547 0.61566148304635926 0 0.78801074757464917 0.78801074757464917 0 -0.61566148304635926 1 I I #
face $-1 $-1 $155 $21 $-1 $311 reversed single #
loop $-1 $-1 $233 $140 #
plane-surface $-1 0 32.919497358854315 0 0 -1 0 0 0 -1 forward_v I I I I #
coedge $-1 $312 $231 $234 $313 forward $141 $-1 #
coedge $-1 $237 $143 $144 $225 reversed $88 $-1 #
coedge $-1 $231 $312 $143 $223 reversed $141 $-1 #
edge $-1 $238 -9.0526357265367157 $314 9.0526357265367157 $222 $315 forward 7 unknown #
coedge $-1 $145 $144 $312 $316 forward $57 $-1 #
edge $-1 $229 -75.595568712424082 $314 75.595568712424082 $221 $317 forward 7 unknown #
coedge $-1 $234 $233 $145 $227 reversed $218 $-1 #
edge $-1 $318 -75.595568712424082 $228 75.595568712424082 $226 $319 forward 7 unknown #
vertex $-1 $147 $320 #
vertex $-1 $240 $321 #
straight-curve $-1 75.595568712424082 0 -9.0526357265367157 0 -1 0 I I #
coedge $-1 $220 $222 $148 $232 reversed $141 $-1 #
edge $-1 $235 -32.919497358854315 $238 32.919497358854315 $231 $322 forward 7 unknown #
coedge $-1 $226 $149 $154 $241 forward $218 $-1 #
coedge $-1 $149 $226 $220 $313 reversed $218 $-1 #
vertex $-1 $150 $323 #
straight-curve $-1 0 32.919497358854315 9.0526357265367157 -1 0 0 I I #
coedge $-1 $151 $221 $153 $240 reversed $88 $-1 #
vertex $-1 $232 $324 #
straight-curve $-1 0 -32.919497358854315 9.0526357265367157 1 0 0 I I #
edge $-1 $156 -9.0526357265367157 $229 9.0526357265367157 $153 $325 forward 7 unknown #
edge $-1 $157 -9.0526357265367157 $228 9.0526357265367157 $154 $326 forward 7 unknown #
point $-1 75.595568712424082 -32.919497358854315 9.0526357265367157 #
point $-1 75.595568712424082 32.919497358854315 9.0526357265367157 #
face $-1 $-1 $172 $22 $-1 $327 reversed single #
loop $-1 $-1 $251 $159 #
plane-surface $-1 0 0 9.0526357265367157 0 0 1 1 0 0 forward_v I I I I #
coedge $-1 $328 $162 $167 $256 forward $96 $-1 #
coedge $-1 $162 $328 $329 $330 reversed $96 $-1 #
coedge $-1 $164 $163 $162 $250 reversed $61 $-1 #
edge $-1 $331 -5.3894359975211037 $261 -1.9369634605101247 $162 $332 forward 7 unknown #
coedge $-1 $329 $333 $164 $252 forward $245 $-1 #
edge $-1 $254 -75.595568712424082 $331 75.595568712424082 $251 $334 forward 7 unknown #
coedge $-1 $171 $165 $333 $335 reversed $172 $-1 #
vertex $-1 $166 $336 #
straight-curve $-1 75.595568712424082 -21.950461167416655 3.6631997290156137 0 0 1 I I #
edge $-1 $261 8.2329715358489128 $259 19.202007727286571 $247 $337 forward 7 unknown #
coedge $-1 $338 $168 $171 $263 reversed $160 $-1 #
coedge $-1 $168 $338 $328 $339 forward $160 $-1 #
vertex $-1 $169 $340 #
straight-curve $-1 0 -32.919497358854315 5.6001631895257384 1 0 0 I I #
vertex $-1 $256 $341 #
straight-curve $-1 0 -21.950461167416655 5.6001631895257384 1 0 0 I I #
edge $-1 $342 -9.0526357265367157 $173 -5.6001631895257384 $171 $343 forward 7 unknown #
point $-1 75.595568712424082 -32.919497358854315 5.6001631895257384 #
point $-1 75.595568712424082 -21.950461167416655 5.6001631895257384 #
loop $-1 $-1 $183 $176 #
plane-surface $-1 -75.595568712424082 0 0 1 0 0 0 0 -1 forward_v I I I I #
coedge $-1 $344 $345 $180 $270 forward $177 $-1 #
coedge $-1 $180 $179 $275 $346 reversed $65 $-1 #
edge $-1 $272 17.87265371305017 $347 24.145215747185446 $268 $348 forward 7 unknown #
coedge $-1 $186 $181 $345 $349 forward $104 $-1 #
vertex $-1 $349 $350 #
straight-curve $-1 -71.317691747345407 14.952006776040257 9.0526357265367157 0 1 0 I I #
coedge $-1 $351 $183 $186 $279 reversed $266 $-1 #
coedge $-1 $183 $351 $269 $346 forward $266 $-1 #
vertex $-1 $184 $352 #
straight-curve $-1 -75.595568712424082 26.888529745306709 53.788640326081762 0 0 1 I I #
straight-curve $-1 -75.595568712424068 26.888529745306709 4.4651742123957661 -0.68199835119979291 0 -0.73135370988377701 I I #
edge $-1 $353 -32.919497358854315 $187 -26.888529745306709 $274 $354 forward 7 unknown #
point $-1 -75.595568712424082 26.888529745306709 9.0526357265367157 #
point $-1 -71.317691747345407 26.888529745306709 9.0526357265367157 #
edge $-1 $355 1 $355 0 $190 $-1 forward 7 unknown #
vertex $-1 $191 $356 #
ellipse-curve $-1 -71.928659641450537 29.904013552080507 5.3340493791944583 -0.73135370988377701 0 0.68199835119979291 0.68199835119979291 0 0.73135370988377701 1 I I #
point $-1 -72.774631878684957 29.904013552080507 7.4902586793500161 #
loop $-1 $-1 $202 $194 #
plane-surface $-1 75.595568712424082 0 0 -1 0 0 0 0 1 forward_v I I I I #
coedge $-1 $289 $197 $357 $358 reversed $119 $-1 #
coedge $-1 $197 $288 $292 $359 reversed $119 $-1 #
edge $-1 $360 -151.19113742484816 $293 -137.75274981487561 $197 $361 forward 7 unknown #
coedge $-1 $199 $198 $296 $362 reversed $74 $-1 #
coedge $-1 $205 $200 $289 $359 forward $195 $-1 #
vertex $-1 $359 $363 #
straight-curve $-1 65.005974845691725 -8.5400565426327404 9.0526357265367139 0 -1 0 I I #
coedge $-1 $357 $202 $205 $300 reversed $286 $-1 #
coedge $-1 $202 $357 $291 $362 forward $286 $-1 #
vertex $-1 $203 $364 #
straight-curve $-1 75.595568712424082 -12.209765003114306 106.50096960004663 0 0 1 I I #
straight-curve $-1 -43.544672516392041 -12.209765003114306 93.861697971277138 0.78801074757464917 0 -0.61566148304635926 I I #
edge $-1 $365 -21.950461167416655 $206 -12.209765003114306 $295 $366 forward 7 unknown #
point $-1 75.595568712424082 -12.209765003114306 9.0526357265367157 #
point $-1 65.005974845691711 -12.209765003114306 9.052635726536721 #
edge $-1 $367 1 $367 0 $209 $-1 forward 7 unknown #
vertex $-1 $210 $368 #
ellipse-curve $-1 69.466969183972964 -19.167405120473127 3.8486682707559439 0.61566148304635926 0 0.78801074757464917 0.78801074757464917 0 -0.61566148304635926 1 I I #
point $-1 71.088782526632556 -19.167405120473127 4.3002254206366217 #
edge $-1 $369 1 $369 0 $213 $-1 forward 7 unknown #
vertex $-1 $214 $370 #
ellipse-curve $-1 69.466969183972964 -14.992821050057834 3.8486682707559439 0.61566148304635926 0 0.78801074757464917 0.78801074757464917 0 -0.61566148304635926 1 I I #
point $-1 71.088782526632556 -14.992821050057834 4.3002254206366217 #
plane-surface $-1 75.595568712424082 0 0 -1 0 0 0 0 1 forward_v I I I I #
coedge $-1 $222 $220 $224 $316 reversed $141 $-1 #
edge $-1 $235 -9.0526357265367157 $318 9.0526357265367157 $234 $371 forward 7 unknown #
vertex $-1 $316 $372 #
straight-curve $-1 -75.595568712424082 -32.919497358854315 0 0 0 -1 I I #
edge $-1 $314 -32.919497358854315 $318 32.919497358854315 $312 $373 forward 7 unknown #
straight-curve $-1 0 -32.919497358854315 -9.0526357265367157 -1 0 0 I I #
vertex $-1 $227 $374 #
straight-curve $-1 0 32.919497358854315 -9.0526357265367157 1 0 0 I I #
point $-1 75.595568712424082 32.919497358854315 -9.0526357265367157 #
point $-1 75.595568712424082 -32.919497358854315 -9.0526357265367157 #
straight-curve $-1 -75.595568712424082 0 9.0526357265367157 0 -1 0 I I #
point $-1 -75.595568712424082 32.919497358854315 9.0526357265367157 #
point $-1 -75.595568712424082 -32.919497358854315 9.0526357265367157 #
straight-curve $-1 75.595568712424082 -32.919497358854315 0 0 0 -1 I I #
straight-curve $-1 75.595568712424082 32.919497358854315 0 0 0 -1 I I #
plane-surface $-1 75.595568712424082 0 0 -1 0 0 0 0 1 forward_v I I I I #
coedge $-1 $248 $247 $258 $339 reversed $96 $-1 #
coedge $-1 $375 $251 $248 $330 forward $245 $-1 #
edge $-1 $331 21.950461167416655 $376 32.919497358854315 $248 $377 forward 7 unknown #
vertex $-1 $330 $378 #
straight-curve $-1 -75.595568712424082 -21.950461167416655 3.6631997290156137 0 0 -1 I I #
coedge $-1 $251 $375 $253 $335 forward $245 $-1 #
straight-curve $-1 0 -21.950461167416655 9.0526357265367157 -1 0 0 I I #
edge $-1 $342 -32.919497358854315 $254 -21.950461167416655 $253 $379 forward 7 unknown #
point $-1 75.595568712424082 -21.950461167416655 9.0526357265367174 #
straight-curve $-1 -75.595568712424082 -13.717489631567743 5.6001631895257384 0 -1 0 I I #
coedge $-1 $258 $257 $375 $380 reversed $160 $-1 #
edge $-1 $376 -9.0526357265367157 $259 -5.6001631895257384 $328 $381 forward 7 unknown #
point $-1 -75.595568712424082 -32.919497358854315 5.6001631895257384 #
point $-1 -75.595568712424082 -21.950461167416655 5.6001631895257384 #
vertex $-1 $335 $382 #
straight-curve $-1 75.595568712424082 -32.919497358854315 0 0 0 -1 I I #
coedge $-1 $345 $268 $351 $383 reversed $177 $-1 #
coedge $-1 $268 $344 $271 $349 reversed $177 $-1 #
edge $-1 $347 -17.967490582814058 $276 -11.936522969266452 $275 $384 forward 7 unknown #
vertex $-1 $270 $385 #
straight-curve $-1 -59.128571383480335 32.919497358854315 22.123867325044021 -0.68199835119979291 0 -0.73135370988377701 I I #
edge $-1 $272 71.317691747345407 $353 75.595568712424082 $345 $386 forward 7 unknown #
point $-1 -71.317691747345407 32.919497358854315 9.0526357265367157 #
coedge $-1 $275 $274 $344 $383 forward $266 $-1 #
point $-1 -75.595568712424082 26.888529745306709 4.465174212395751 #
vertex $-1 $349 $387 #
straight-curve $-1 -75.595568712424082 0 9.0526357265367157 0 -1 0 I I #
vertex $-1 $282 $388 #
point $-1 -71.246661290250756 29.904013552080507 6.0654030890782353 #
coedge $-1 $296 $295 $288 $358 forward $286 $-1 #
edge $-1 $365 97.44833387350991 $360 105.72183151921742 $357 $389 forward 7 unknown #
edge $-1 $293 65.005974845691711 $365 75.595568712424082 $292 $390 forward 7 unknown #
vertex $-1 $358 $391 #
straight-curve $-1 -43.544672516392041 -21.950461167416655 93.861697971277138 -0.78801074757464917 0 0.61566148304635926 I I #
edge $-1 $360 -13.410404624783915 $297 -3.6697084604815657 $296 $392 forward 7 unknown #
point $-1 65.005974845691711 -21.950461167416655 9.052635726536721 #
point $-1 75.595568712424082 -12.209765003114306 0.77913808082921321 #
vertex $-1 $300 $393 #
straight-curve $-1 75.595568712424082 0 9.0526357265367157 0 1 0 I I #
vertex $-1 $303 $394 #
point $-1 70.254979931547609 -19.167405120473127 3.2330067877095847 #
vertex $-1 $307 $395 #
point $-1 70.254979931547609 -14.992821050057834 3.2330067877095847 #
straight-curve $-1 -75.595568712424082 32.919497358854315 0 0 0 -1 I I #
point $-1 -75.595568712424082 -32.919497358854315 -9.0526357265367157 #
straight-curve $-1 -75.595568712424082 0 -9.0526357265367157 0 1 0 I I #
point $-1 -75.595568712424082 32.919497358854315 -9.0526357265367157 #
coedge $-1 $333 $329 $338 $380 forward $245 $-1 #
vertex $-1 $330 $396 #
straight-curve $-1 -75.595568712424082 0 9.0526357265367157 0 -1 0 I I #
point $-1 -75.595568712424082 -21.950461167416655 9.0526357265367174 #
straight-curve $-1 75.595568712424082 0 9.0526357265367157 0 1 0 I I #
edge $-1 $376 -75.595568712424082 $342 75.595568712424082 $338 $397 forward 7 unknown #
straight-curve $-1 -75.595568712424082 -32.919497358854315 0 0 0 -1 I I #
point $-1 75.595568712424082 -32.919497358854315 9.0526357265367157 #
edge $-1 $353 -9.0526357265367157 $347 -4.465174212395751 $344 $398 forward 7 unknown #
straight-curve $-1 -75.595568712424082 14.952006776040257 4.4651742123957447 0 -1 0 I I #
point $-1 -75.595568712424082 32.919497358854315 4.465174212395751 #
straight-curve $-1 0 32.919497358854315 9.0526357265367157 -1 0 0 I I #
point $-1 -75.595568712424082 32.919497358854315 9.0526357265367157 #
point $-1 -71.197305931566774 29.904013552080507 4.6520510279946654 #
straight-curve $-1 75.595568712424082 -21.950461167416655 106.50096960004663 0 0 -1 I I #
straight-curve $-1 0 -21.950461167416655 9.0526357265367157 1 0 0 I I #
point $-1 75.595568712424082 -21.950461167416655 0.77913808082921321 #
straight-curve $-1 75.595568712424082 -8.5400565426327404 0.7791380808292061 0 1 0 I I #
point $-1 75.595568712424082 -21.950461167416655 9.0526357265367174 #
point $-1 68.851307700926611 -19.167405120473127 3.0606575231812947 #
point $-1 68.851307700926611 -14.992821050057834 3.0606575231812947 #
point $-1 -75.595568712424082 -32.919497358854315 9.0526357265367157 #
straight-curve $-1 0 -32.919497358854315 9.0526357265367157 1 0 0 I I #
straight-curve $-1 -75.595568712424082 32.919497358854315 0 0 0 -1 I I #
End-of-ACIS-data 