500 0 5 0           
7 Unknown 11 ACIS 5.0 NT 24 Fri Mar 26 02:45:22 1999 
-1 9.9999999999999995e-007 1e-010 
body $-1 $5 $-1 $6 #
body $-1 $7 $-1 $8 #
body $-1 $9 $-1 $10 #
body $-1 $11 $-1 $12 #
body $-1 $13 $-1 $14 #
lump $-1 $-1 $15 $0 #
transform $-1 1 0 0 0 1 0 0 0 1 77.967467268898588 50.950943933902963 23.528833986335218 1 rotate no_reflect no_shear #
lump $-1 $-1 $16 $1 #
transform $-1 1 0 0 0 1 0 0 0 1 77.967467268898588 50.950943933902963 23.528833986335218 1 rotate no_reflect no_shear #
lump $-1 $-1 $17 $2 #
transform $-1 1 0 0 0 1 0 0 0 1 77.967467268898588 50.950943933902963 23.528833986335218 1 rotate no_reflect no_shear #
lump $-1 $-1 $18 $3 #
transform $-1 1 0 0 0 1 0 0 0 1 77.967467268898588 50.950943933902963 23.528833986335218 1 rotate no_reflect no_shear #
lump $-1 $-1 $19 $4 #
transform $-1 1 0 0 0 1 0 0 0 1 77.967467268898588 50.950943933902963 23.528833986335218 1 rotate no_reflect no_shear #
shell $-1 $-1 $-1 $20 $-1 $5 #
shell $-1 $-1 $-1 $21 $-1 $7 #
shell $-1 $-1 $-1 $22 $-1 $9 #
shell $-1 $-1 $-1 $23 $-1 $11 #
shell $-1 $-1 $-1 $24 $-1 $13 #
face $-1 $25 $26 $15 $-1 $27 forward single #
face $-1 $28 $29 $16 $-1 $30 forward single #
face $-1 $31 $32 $17 $-1 $33 forward single #
face $-1 $34 $35 $18 $-1 $36 forward single #
face $-1 $37 $38 $19 $-1 $39 reversed single #
face $-1 $40 $41 $15 $-1 $42 reversed single #
loop $-1 $-1 $43 $20 #
plane-surface $-1 0 0 23.528833986335218 0 0 1 1 0 0 forward_v I I I I #
face $-1 $44 $45 $16 $-1 $46 reversed single #
loop $-1 $-1 $47 $21 #
plane-surface $-1 0 -59.652167686850007 -14.585909573584093 0 0 1 1 0 0 forward_v I I I I #
face $-1 $48 $49 $17 $-1 $50 forward single #
loop $-1 $-1 $51 $22 #
plane-surface $-1 0 39.745511776240662 16.831155037266246 0 0 1 1 0 0 forward_v I I I I #
face $-1 $52 $53 $18 $-1 $54 forward single #
loop $-1 $-1 $55 $23 #
plane-surface $-1 32.117681264694156 7.4976247679373955 218.6252001356153 0 -1 0 -0.54463904215088732 0 -0.83867056331134215 forward_v I I I I #
face $-1 $56 $57 $19 $-1 $58 reversed single #
loop $-1 $59 $60 $24 #
cone-surface $-1 61.03959040669141 1.6956863718117887 11.592190984075234 -0.54463904215088732 0 -0.83867056331134215 1.2580058449670133 0 -0.81695856322633098 1 I I 0 1 1.5 forward I I I I #
face $-1 $61 $62 $15 $-1 $63 reversed single #
loop $-1 $-1 $64 $25 #
plane-surface $-1 0 0 -23.528833986335218 0 0 1 1 0 0 forward_v I I I I #
coedge $-1 $65 $66 $67 $68 forward $26 $-1 #
face $-1 $69 $70 $16 $-1 $71 forward single #
loop $-1 $-1 $72 $28 #
plane-surface $-1 0 -68.353391439797051 -19.057371779959656 0 1 0 0 0 1 forward_v I I I I #
coedge $-1 $73 $74 $75 $76 forward $29 $-1 #
face $-1 $77 $78 $17 $-1 $79 forward single #
loop $-1 $-1 $80 $31 #
plane-surface $-1 0 28.540079618578361 20.179994511800732 0 1 0 0 0 1 forward_v I I I I #
coedge $-1 $81 $82 $83 $84 reversed $32 $-1 #
face $-1 $85 $86 $18 $-1 $87 forward single #
loop $-1 $-1 $88 $34 #
plane-surface $-1 -52.810572119833012 1.6956863718117887 87.847160746883674 0.54463904215088732 0 0.83867056331134215 0.83867056331134215 0 -0.54463904215088732 forward_v I I I I #
coedge $-1 $89 $90 $91 $92 reversed $35 $-1 #
face $-1 $93 $94 $19 $-1 $95 forward single #
loop $-1 $96 $97 $37 #
cone-surface $-1 59.571485924812151 1.6956863718117887 9.3315083713210889 -0.54463904215088732 0 -0.83867056331134215 0.62900292248350664 0 -0.40847928161316549 1 I I -0.70710678118654757 0.70710678118654757 0.75 forward I I I I #
loop $-1 $-1 $98 $24 #
coedge $-1 $60 $60 $99 $100 reversed $38 $-1 #
face $-1 $101 $102 $15 $-1 $103 reversed single #
loop $-1 $-1 $104 $40 #
plane-surface $-1 0 -50.950943933902963 0 0 1 0 0 0 1 forward_v I I I I #
coedge $-1 $105 $106 $107 $108 forward $41 $-1 #
coedge $-1 $109 $43 $110 $111 forward $26 $-1 #
coedge $-1 $43 $109 $112 $113 forward $26 $-1 #
coedge $-1 $114 $115 $43 $68 reversed $116 $-1 #
edge $-1 $117 -50.950943933902963 $118 50.950943933902963 $67 $119 forward 7 unknown #
face $-1 $120 $121 $16 $-1 $122 reversed single #
loop $-1 $-1 $123 $44 #
plane-surface $-1 0 0 23.528833986335218 0 0 1 1 0 0 forward_v I I I I #
coedge $-1 $124 $125 $126 $127 forward $45 $-1 #
coedge $-1 $128 $47 $129 $130 reversed $29 $-1 #
coedge $-1 $47 $128 $125 $131 forward $29 $-1 #
coedge $-1 $132 $133 $47 $76 reversed $134 $-1 #
edge $-1 $135 -8.701223752947044 $136 8.701223752947044 $75 $137 forward 7 unknown #
face $-1 $138 $139 $17 $-1 $140 reversed single #
loop $-1 $-1 $141 $48 #
plane-surface $-1 0 0 23.528833986335218 0 0 1 1 0 0 forward_v I I I I #
coedge $-1 $142 $143 $144 $145 reversed $49 $-1 #
coedge $-1 $146 $51 $147 $148 reversed $32 $-1 #
coedge $-1 $51 $146 $143 $149 reversed $32 $-1 #
coedge $-1 $150 $151 $51 $84 forward $152 $-1 #
edge $-1 $153 -31.078188045782632 $154 -8.6673237304580297 $83 $155 forward 7 unknown #
face $-1 $156 $157 $18 $-1 $158 forward single #
loop $-1 $-1 $159 $52 #
plane-surface $-1 32.117681264694156 -4.1062520243138181 218.6252001356153 0 1 0 0.54463904215088732 0 0.83867056331134215 forward_v I I I I #
coedge $-1 $160 $161 $162 $163 reversed $53 $-1 #
coedge $-1 $90 $55 $161 $164 forward $35 $-1 #
coedge $-1 $55 $89 $165 $166 reversed $35 $-1 #
coedge $-1 $167 $162 $55 $92 forward $157 $-1 #
edge $-1 $168 30.172123312669335 $169 61.90862663655151 $91 $170 forward 7 unknown #
face $-1 $171 $172 $19 $-1 $173 forward single #
loop $-1 $-1 $174 $56 #
plane-surface $-1 32.117681264694156 7.4976247679373955 218.6252001356153 0 -1 0 -0.54463904215088732 0 -0.83867056331134215 forward_v I I I I #
loop $-1 $-1 $175 $37 #
coedge $-1 $97 $97 $98 $176 forward $57 $-1 #
coedge $-1 $98 $98 $97 $176 reversed $59 $-1 #
coedge $-1 $99 $99 $60 $100 forward $172 $-1 #
edge $-1 $177 0 $177 6.2831853071796004 $99 $178 forward 7 unknown #
face $-1 $179 $180 $15 $-1 $181 reversed single #
loop $-1 $-1 $182 $61 #
plane-surface $-1 -77.967467268898588 0 0 1 0 0 0 0 -1 forward_v I I I I #
coedge $-1 $183 $112 $184 $185 forward $62 $-1 #
coedge $-1 $186 $64 $183 $187 forward $41 $-1 #
coedge $-1 $64 $186 $188 $189 forward $41 $-1 #
coedge $-1 $115 $114 $64 $108 reversed $116 $-1 #
edge $-1 $190 -50.950943933902963 $191 50.950943933902963 $107 $192 forward 7 unknown #
coedge $-1 $66 $65 $193 $194 forward $26 $-1 #
coedge $-1 $195 $196 $65 $111 reversed $180 $-1 #
edge $-1 $118 -77.967467268898588 $197 77.967467268898588 $110 $198 forward 7 unknown #
coedge $-1 $104 $199 $66 $113 reversed $62 $-1 #
edge $-1 $200 -77.967467268898588 $117 77.967467268898588 $112 $201 forward 7 unknown #
coedge $-1 $107 $67 $199 $202 forward $116 $-1 #
coedge $-1 $67 $107 $195 $203 reversed $116 $-1 #
loop $-1 $-1 $114 $179 #
vertex $-1 $68 $204 #
vertex $-1 $68 $205 #
straight-curve $-1 77.967467268898588 0 23.528833986335218 0 1 0 I I #
face $-1 $206 $207 $16 $-1 $208 reversed single #
loop $-1 $-1 $209 $69 #
plane-surface $-1 0 0 -23.528833986335218 0 0 1 1 0 0 forward_v I I I I #
coedge $-1 $210 $211 $212 $213 forward $70 $-1 #
coedge $-1 $214 $72 $215 $216 reversed $45 $-1 #
coedge $-1 $72 $214 $74 $131 reversed $45 $-1 #
coedge $-1 $217 $218 $72 $127 reversed $219 $-1 #
edge $-1 $220 -4.4714622063755627 $221 4.4714622063755627 $126 $222 forward 7 unknown #
coedge $-1 $74 $73 $217 $223 forward $29 $-1 #
coedge $-1 $224 $225 $73 $130 forward $207 $-1 #
edge $-1 $226 -77.967467268898588 $136 77.967467268898588 $129 $227 forward 7 unknown #
edge $-1 $220 -77.967467268898588 $135 77.967467268898588 $125 $228 forward 7 unknown #
coedge $-1 $229 $75 $214 $230 forward $134 $-1 #
coedge $-1 $75 $212 $224 $231 forward $134 $-1 #
loop $-1 $-1 $133 $232 #
vertex $-1 $76 $233 #
vertex $-1 $76 $234 #
straight-curve $-1 77.967467268898588 -59.652167686850007 -14.585909573584093 0 1 0 I I #
face $-1 $235 $236 $17 $-1 $237 forward single #
loop $-1 $-1 $144 $77 #
plane-surface $-1 -77.967467268898588 0 0 1 0 0 0 0 -1 forward_v I I I I #
coedge $-1 $238 $239 $142 $240 forward $78 $-1 #
coedge $-1 $241 $80 $141 $240 reversed $49 $-1 #
coedge $-1 $80 $241 $82 $149 forward $49 $-1 #
coedge $-1 $242 $243 $80 $145 forward $139 $-1 #
edge $-1 $244 -13.438836730434852 $245 -6.7411577813658798 $144 $246 forward 7 unknown #
coedge $-1 $82 $81 $242 $247 reversed $32 $-1 #
coedge $-1 $248 $249 $81 $148 forward $250 $-1 #
edge $-1 $251 -77.967467268898588 $153 77.967467268898588 $147 $252 forward 7 unknown #
edge $-1 $154 -77.967467268898588 $245 77.967467268898588 $143 $253 forward 7 unknown #
coedge $-1 $254 $83 $241 $255 forward $152 $-1 #
coedge $-1 $83 $256 $248 $257 reversed $152 $-1 #
loop $-1 $-1 $150 $258 #
vertex $-1 $257 $259 #
vertex $-1 $84 $260 #
straight-curve $-1 77.967467268898588 19.872755888120331 16.831155037266246 0 -1 0 I I #
face $-1 $261 $262 $18 $-1 $263 forward single #
loop $-1 $-1 $264 $85 #
plane-surface $-1 0 0 23.528833986335218 0 0 1 1 0 0 forward_v I I I I #
coedge $-1 $265 $266 $264 $267 reversed $86 $-1 #
coedge $-1 $268 $88 $266 $269 reversed $53 $-1 #
coedge $-1 $88 $268 $89 $164 reversed $53 $-1 #
coedge $-1 $91 $264 $88 $163 forward $157 $-1 #
edge $-1 $270 -4.9540952102197124 $168 6.6497815820315012 $162 $271 forward 7 unknown #
edge $-1 $168 118.09349272234077 $272 155.93493453779715 $89 $273 forward 7 unknown #
coedge $-1 $274 $275 $90 $166 forward $276 $-1 #
edge $-1 $169 85.783766081472436 $272 106.39369270545113 $165 $277 forward 7 unknown #
coedge $-1 $278 $91 $275 $279 forward $157 $-1 #
vertex $-1 $163 $280 #
vertex $-1 $279 $281 #
straight-curve $-1 16.058840632347078 7.4976247679373955 23.528833986335215 1 0 0 I I #
face $-1 $282 $283 $19 $-1 $284 forward single #
loop $-1 $285 $99 $93 #
plane-surface $-1 -52.810572119833012 1.6956863718117887 87.847160746883674 0.54463904215088732 0 0.83867056331134215 0.83867056331134215 0 -0.54463904215088732 forward_v I I I I #
coedge $-1 $286 $287 $288 $289 reversed $94 $-1 #
coedge $-1 $175 $175 $-1 $290 forward $96 $-1 #
edge $-1 $291 0 $291 6.2831853071796004 $97 $292 forward 7 unknown #
vertex $-1 $100 $293 #
ellipse-curve $-1 62.099215606957493 1.6956863718117887 13.223870674345864 -0.54463904215088732 0 -0.83867056331134215 1.2580058449670133 0 -0.81695856322633098 1 I I #
face $-1 $-1 $116 $15 $-1 $294 reversed single #
loop $-1 $-1 $195 $101 #
plane-surface $-1 0 50.950943933902963 0 0 -1 0 0 0 -1 forward_v I I I I #
coedge $-1 $295 $193 $196 $296 forward $102 $-1 #
coedge $-1 $199 $104 $105 $187 reversed $62 $-1 #
coedge $-1 $193 $295 $104 $185 reversed $102 $-1 #
edge $-1 $200 -23.528833986335218 $297 23.528833986335218 $184 $298 forward 7 unknown #
coedge $-1 $106 $105 $295 $299 forward $41 $-1 #
edge $-1 $191 -77.967467268898588 $297 77.967467268898588 $183 $300 forward 7 unknown #
coedge $-1 $196 $195 $106 $189 reversed $180 $-1 #
edge $-1 $301 -77.967467268898588 $190 77.967467268898588 $188 $302 forward 7 unknown #
vertex $-1 $108 $303 #
vertex $-1 $202 $304 #
straight-curve $-1 77.967467268898588 0 -23.528833986335218 0 -1 0 I I #
coedge $-1 $182 $184 $109 $194 reversed $102 $-1 #
edge $-1 $197 -50.950943933902963 $200 50.950943933902963 $193 $305 forward 7 unknown #
coedge $-1 $188 $110 $115 $203 forward $180 $-1 #
coedge $-1 $110 $188 $182 $296 reversed $180 $-1 #
vertex $-1 $111 $306 #
straight-curve $-1 0 50.950943933902963 23.528833986335218 -1 0 0 I I #
coedge $-1 $112 $183 $114 $202 reversed $62 $-1 #
vertex $-1 $194 $307 #
straight-curve $-1 0 -50.950943933902963 23.528833986335218 1 0 0 I I #
edge $-1 $117 -23.528833986335218 $191 23.528833986335218 $114 $308 forward 7 unknown #
edge $-1 $118 -23.528833986335218 $190 23.528833986335218 $115 $309 forward 7 unknown #
point $-1 77.967467268898588 -50.950943933902963 23.528833986335218 #
point $-1 77.967467268898588 50.950943933902963 23.528833986335218 #
face $-1 $310 $219 $16 $-1 $311 reversed single #
loop $-1 $-1 $129 $120 #
plane-surface $-1 0 -50.950943933902963 0 0 1 0 0 0 1 forward_v I I I I #
coedge $-1 $215 $312 $229 $313 forward $121 $-1 #
coedge $-1 $314 $123 $315 $316 forward $70 $-1 #
coedge $-1 $123 $314 $317 $318 forward $70 $-1 #
coedge $-1 $133 $319 $123 $213 reversed $134 $-1 #
edge $-1 $320 -50.950943933902963 $321 50.950943933902963 $212 $322 forward 7 unknown #
coedge $-1 $125 $124 $132 $230 reversed $45 $-1 #
coedge $-1 $323 $209 $124 $216 forward $121 $-1 #
edge $-1 $324 -77.967467268898588 $221 77.967467268898588 $124 $325 forward 7 unknown #
coedge $-1 $326 $126 $128 $223 reversed $219 $-1 #
coedge $-1 $126 $327 $323 $328 reversed $219 $-1 #
loop $-1 $-1 $327 $206 #
vertex $-1 $223 $329 #
vertex $-1 $328 $330 #
straight-curve $-1 -77.967467268898588 -68.353391439797051 -19.057371779959656 0 0 -1 I I #
edge $-1 $226 -8.701223752947044 $220 8.701223752947044 $217 $331 forward 7 unknown #
coedge $-1 $317 $129 $133 $231 reversed $207 $-1 #
coedge $-1 $129 $317 $326 $332 forward $207 $-1 #
vertex $-1 $332 $333 #
straight-curve $-1 0 -50.950943933902963 -14.585909573584093 1 0 0 I I #
straight-curve $-1 0 -68.353391439797051 -14.585909573584093 1 0 0 I I #
coedge $-1 $319 $132 $209 $313 reversed $134 $-1 #
edge $-1 $135 -4.4714622063755627 $324 4.4714622063755627 $132 $334 forward 7 unknown #
edge $-1 $320 -23.528833986335218 $136 14.585909573584093 $133 $335 forward 7 unknown #
face $-1 $-1 $134 $16 $-1 $336 reversed single #
point $-1 77.967467268898588 -68.353391439797051 -14.585909573584093 #
point $-1 77.967467268898588 -50.950943933902963 -14.585909573584093 #
face $-1 $337 $338 $17 $-1 $339 reversed single #
loop $-1 $-1 $340 $138 #
plane-surface $-1 0 -59.652167686850007 -14.585909573584093 0 0 1 1 0 0 forward_v I I I I #
coedge $-1 $341 $141 $243 $342 forward $78 $-1 #
coedge $-1 $141 $341 $254 $343 forward $78 $-1 #
edge $-1 $344 -77.967467268898588 $244 77.967467268898588 $141 $345 forward 7 unknown #
coedge $-1 $143 $142 $150 $255 reversed $49 $-1 #
coedge $-1 $346 $144 $146 $247 forward $139 $-1 #
coedge $-1 $144 $347 $238 $342 reversed $139 $-1 #
vertex $-1 $342 $348 #
vertex $-1 $247 $349 #
straight-curve $-1 -77.967467268898588 28.540079618578361 10.089997255900366 0 0 -1 I I #
edge $-1 $245 8.6673237304580297 $251 31.078188045782632 $242 $350 forward 7 unknown #
coedge $-1 $351 $147 $151 $257 forward $250 $-1 #
coedge $-1 $147 $351 $346 $352 reversed $250 $-1 #
loop $-1 $-1 $147 $353 #
vertex $-1 $352 $354 #
straight-curve $-1 0 50.950943933902963 16.831155037266246 1 0 0 I I #
straight-curve $-1 0 28.540079618578361 16.831155037266246 -1 0 0 I I #
coedge $-1 $355 $150 $239 $343 reversed $152 $-1 #
edge $-1 $154 6.7411577813658798 $344 13.438836730434852 $150 $356 forward 7 unknown #
coedge $-1 $151 $357 $358 $359 reversed $152 $-1 #
edge $-1 $153 -16.831155037266246 $360 23.528833986335218 $151 $361 forward 7 unknown #
face $-1 $-1 $152 $17 $-1 $362 reversed single #
point $-1 77.967467268898588 50.950943933902963 16.831155037266246 #
point $-1 77.967467268898588 28.540079618578361 16.831155037266246 #
face $-1 $363 $364 $18 $-1 $365 forward single #
loop $-1 $-1 $366 $156 #
plane-surface $-1 0 39.745511776240662 16.831155037266246 0 0 1 1 0 0 forward_v I I I I #
coedge $-1 $162 $367 $159 $267 forward $157 $-1 #
coedge $-1 $266 $159 $368 $369 reversed $86 $-1 #
coedge $-1 $159 $265 $160 $269 forward $86 $-1 #
edge $-1 $370 -61.90862663655151 $270 -30.172123312669335 $264 $371 forward 7 unknown #
coedge $-1 $161 $160 $274 $372 reversed $53 $-1 #
edge $-1 $373 -155.93493453779715 $270 -118.09349272234077 $266 $374 forward 7 unknown #
vertex $-1 $163 $375 #
straight-curve $-1 46.230963945016413 0.84784318590589436 23.528833986335215 0 1 0 I I #
vertex $-1 $372 $376 #
straight-curve $-1 -52.810572119833012 7.4976247679373955 87.847160746883674 0.83867056331134215 0 -0.54463904215088732 I I #
coedge $-1 $368 $165 $268 $372 forward $276 $-1 #
coedge $-1 $165 $377 $167 $279 reversed $276 $-1 #
loop $-1 $-1 $368 $378 #
straight-curve $-1 77.967467268898588 7.4976247679373955 109.31260006780765 0 0 -1 I I #
coedge $-1 $379 $167 $380 $381 forward $157 $-1 #
edge $-1 $169 7.4976247679373955 $382 28.540079618578361 $275 $383 forward 7 unknown #
point $-1 46.230963945016413 7.4976247679373955 23.528833986335215 #
point $-1 77.967467268898588 7.4976247679373955 23.528833986335218 #
face $-1 $384 $385 $19 $-1 $386 forward single #
loop $-1 $-1 $387 $171 #
plane-surface $-1 32.117681264694156 -4.1062520243138181 218.6252001356153 0 1 0 0.54463904215088732 0 0.83867056331134215 forward_v I I I I #
loop $-1 $-1 $388 $93 #
coedge $-1 $287 $174 $389 $390 forward $94 $-1 #
coedge $-1 $174 $286 $391 $392 reversed $94 $-1 #
coedge $-1 $393 $394 $174 $289 forward $385 $-1 #
edge $-1 $395 30.172123312669335 $396 61.90862663655151 $288 $397 forward 7 unknown #
edge $-1 $398 1 $398 0 $175 $-1 forward 7 unknown #
vertex $-1 $176 $399 #
ellipse-curve $-1 59.979965206425319 1.6956863718117887 9.9605112938045952 0.54463904215088732 0 0.83867056331134215 1.2580058449670133 0 -0.81695856322633098 1 I I #
point $-1 63.357221451924516 1.6956863718117887 12.406912111119542 #
plane-surface $-1 77.967467268898588 0 0 -1 0 0 0 0 1 forward_v I I I I #
coedge $-1 $184 $182 $186 $299 reversed $102 $-1 #
edge $-1 $197 -23.528833986335218 $301 23.528833986335218 $196 $400 forward 7 unknown #
vertex $-1 $299 $401 #
straight-curve $-1 -77.967467268898588 -50.950943933902963 0 0 0 -1 I I #
edge $-1 $297 -50.950943933902963 $301 50.950943933902963 $295 $402 forward 7 unknown #
straight-curve $-1 0 -50.950943933902963 -23.528833986335218 -1 0 0 I I #
vertex $-1 $189 $403 #
straight-curve $-1 0 50.950943933902963 -23.528833986335218 1 0 0 I I #
point $-1 77.967467268898588 50.950943933902963 -23.528833986335218 #
point $-1 77.967467268898588 -50.950943933902963 -23.528833986335218 #
straight-curve $-1 -77.967467268898588 0 23.528833986335218 0 -1 0 I I #
point $-1 -77.967467268898588 50.950943933902963 23.528833986335218 #
point $-1 -77.967467268898588 -50.950943933902963 23.528833986335218 #
straight-curve $-1 77.967467268898588 -50.950943933902963 0 0 0 -1 I I #
straight-curve $-1 77.967467268898588 50.950943933902963 0 0 0 -1 I I #
face $-1 $232 $404 $16 $-1 $405 reversed single #
plane-surface $-1 -77.967467268898588 0 0 1 0 0 0 0 -1 forward_v I I I I #
coedge $-1 $209 $323 $406 $407 forward $121 $-1 #
edge $-1 $408 -50.950943933902963 $324 68.353391439797051 $229 $409 forward 7 unknown #
coedge $-1 $211 $210 $410 $411 forward $70 $-1 #
coedge $-1 $412 $413 $210 $316 reversed $404 $-1 #
edge $-1 $321 -77.967467268898588 $414 77.967467268898588 $315 $415 forward 7 unknown #
coedge $-1 $225 $224 $211 $318 reversed $207 $-1 #
edge $-1 $416 -77.967467268898588 $320 77.967467268898588 $317 $417 forward 7 unknown #
coedge $-1 $212 $229 $412 $418 reversed $134 $-1 #
vertex $-1 $213 $419 #
vertex $-1 $213 $420 #
straight-curve $-1 77.967467268898588 0 23.528833986335218 0 1 0 I I #
coedge $-1 $312 $215 $218 $328 forward $121 $-1 #
vertex $-1 $230 $421 #
straight-curve $-1 0 -68.353391439797051 -23.528833986335218 -1 0 0 I I #
coedge $-1 $410 $217 $225 $332 reversed $219 $-1 #
coedge $-1 $218 $410 $413 $422 forward $219 $-1 #
edge $-1 $221 -68.353391439797051 $423 50.950943933902963 $218 $424 forward 7 unknown #
point $-1 -77.967467268898588 -68.353391439797051 -14.585909573584093 #
point $-1 -77.967467268898588 -68.353391439797051 -23.528833986335218 #
straight-curve $-1 -77.967467268898588 -59.652167686850007 -14.585909573584093 0 -1 0 I I #
edge $-1 $416 -23.528833986335218 $226 14.585909573584093 $326 $425 forward 7 unknown #
point $-1 -77.967467268898588 -50.950943933902963 -14.585909573584093 #
straight-curve $-1 77.967467268898588 -68.353391439797051 -19.057371779959656 0 0 -1 I I #
straight-curve $-1 77.967467268898588 -50.950943933902963 0 0 0 -1 I I #
plane-surface $-1 77.967467268898588 0 0 -1 0 0 0 0 1 forward_v I I I I #
face $-1 $426 $427 $17 $-1 $428 reversed single #
loop $-1 $-1 $429 $235 #
plane-surface $-1 0 -68.353391439797051 -19.057371779959656 0 1 0 0 0 1 forward_v I I I I #
coedge $-1 $430 $431 $432 $433 forward $236 $-1 #
coedge $-1 $239 $238 $434 $435 forward $78 $-1 #
edge $-1 $244 -28.540079618578361 $436 50.950943933902963 $243 $437 forward 7 unknown #
edge $-1 $438 -50.950943933902963 $344 28.540079618578361 $254 $439 forward 7 unknown #
vertex $-1 $240 $440 #
straight-curve $-1 0 28.540079618578361 23.528833986335218 -1 0 0 I I #
coedge $-1 $441 $242 $249 $352 forward $139 $-1 #
coedge $-1 $243 $442 $443 $444 reversed $139 $-1 #
point $-1 -77.967467268898588 28.540079618578361 23.528833986335218 #
point $-1 -77.967467268898588 28.540079618578361 16.831155037266246 #
straight-curve $-1 -77.967467268898588 19.872755888120331 16.831155037266246 0 1 0 I I #
coedge $-1 $249 $248 $445 $446 reversed $250 $-1 #
edge $-1 $251 -16.831155037266246 $447 23.528833986335218 $249 $448 forward 7 unknown #
face $-1 $258 $250 $17 $-1 $449 reversed single #
point $-1 -77.967467268898588 50.950943933902963 16.831155037266246 #
coedge $-1 $432 $254 $450 $451 forward $152 $-1 #
straight-curve $-1 77.967467268898588 28.540079618578361 10.089997255900366 0 0 1 I I #
coedge $-1 $256 $432 $452 $453 forward $152 $-1 #
coedge $-1 $454 $445 $256 $359 forward $427 $-1 #
edge $-1 $360 -50.950943933902963 $455 68.353391439797051 $256 $456 forward 7 unknown #
vertex $-1 $359 $457 #
straight-curve $-1 77.967467268898588 50.950943933902963 0 0 0 -1 I I #
plane-surface $-1 77.967467268898588 0 0 -1 0 0 0 0 1 forward_v I I I I #
face $-1 $458 $459 $18 $-1 $460 reversed single #
loop $-1 $-1 $461 $261 #
plane-surface $-1 0 28.540079618578361 20.179994511800732 0 1 0 0 0 1 forward_v I I I I #
coedge $-1 $462 $463 $464 $465 reversed $262 $-1 #
coedge $-1 $264 $466 $467 $468 forward $157 $-1 #
coedge $-1 $467 $274 $265 $369 forward $276 $-1 #
edge $-1 $373 -106.39369270545113 $370 -85.783766081472436 $368 $469 forward 7 unknown #
vertex $-1 $369 $470 #
straight-curve $-1 16.058840632347078 -4.1062520243138181 23.528833986335215 -1 0 0 I I #
edge $-1 $272 -6.6497815820315012 $373 4.9540952102197124 $274 $471 forward 7 unknown #
vertex $-1 $372 $472 #
straight-curve $-1 -52.810572119833012 -4.1062520243138181 87.847160746883674 -0.83867056331134215 0 0.54463904215088732 I I #
point $-1 46.230963945016413 -4.1062520243138181 23.528833986335215 #
point $-1 77.967467268898588 7.4976247679373955 2.9189073623565207 #
coedge $-1 $275 $464 $473 $474 forward $276 $-1 #
face $-1 $-1 $276 $18 $-1 $475 reversed single #
coedge $-1 $466 $278 $476 $477 forward $157 $-1 #
coedge $-1 $473 $461 $278 $381 reversed $364 $-1 #
edge $-1 $382 -77.967467268898588 $478 77.967467268898588 $278 $479 forward 7 unknown #
vertex $-1 $381 $480 #
straight-curve $-1 77.967467268898588 0 23.528833986335218 0 1 0 I I #
face $-1 $481 $482 $19 $-1 $483 forward single #
loop $-1 $-1 $484 $282 #
plane-surface $-1 0 0 23.528833986335218 0 0 1 1 0 0 forward_v I I I I #
coedge $-1 $485 $486 $484 $487 reversed $283 $-1 #
coedge $-1 $488 $389 $394 $489 reversed $285 $-1 #
coedge $-1 $388 $490 $286 $390 reversed $285 $-1 #
edge $-1 $395 118.09349272234077 $491 155.93493453779715 $286 $492 forward 7 unknown #
coedge $-1 $493 $494 $287 $392 forward $495 $-1 #
edge $-1 $396 85.783766081472436 $491 106.39369270545113 $391 $496 forward 7 unknown #
coedge $-1 $497 $288 $494 $498 forward $385 $-1 #
coedge $-1 $288 $484 $388 $489 forward $385 $-1 #
vertex $-1 $489 $499 #
vertex $-1 $498 $500 #
straight-curve $-1 16.058840632347078 7.4976247679373955 23.528833986335215 1 0 0 I I #
vertex $-1 $290 $501 #
point $-1 61.237971051392329 1.6956863718117887 9.1435527305782642 #
straight-curve $-1 -77.967467268898588 50.950943933902963 0 0 0 -1 I I #
point $-1 -77.967467268898588 -50.950943933902963 -23.528833986335218 #
straight-curve $-1 -77.967467268898588 0 -23.528833986335218 0 1 0 I I #
point $-1 -77.967467268898588 50.950943933902963 -23.528833986335218 #
loop $-1 $-1 $412 $310 #
plane-surface $-1 0 50.950943933902963 0 0 -1 0 0 0 -1 forward_v I I I I #
coedge $-1 $413 $412 $312 $407 reversed $404 $-1 #
edge $-1 $423 -77.967467268898588 $408 77.967467268898588 $406 $502 forward 7 unknown #
vertex $-1 $313 $503 #
straight-curve $-1 77.967467268898588 0 -23.528833986335218 0 -1 0 I I #
coedge $-1 $327 $326 $314 $411 reversed $219 $-1 #
edge $-1 $414 -50.950943933902963 $416 50.950943933902963 $410 $504 forward 7 unknown #
coedge $-1 $406 $315 $319 $418 forward $404 $-1 #
coedge $-1 $315 $406 $327 $422 reversed $404 $-1 #
vertex $-1 $316 $505 #
straight-curve $-1 0 50.950943933902963 23.528833986335218 -1 0 0 I I #
vertex $-1 $411 $506 #
straight-curve $-1 0 -50.950943933902963 23.528833986335218 1 0 0 I I #
edge $-1 $321 -23.528833986335218 $408 23.528833986335218 $319 $507 forward 7 unknown #
point $-1 77.967467268898588 -50.950943933902963 23.528833986335218 #
point $-1 77.967467268898588 50.950943933902963 23.528833986335218 #
point $-1 77.967467268898588 -68.353391439797051 -23.528833986335218 #
edge $-1 $414 -23.528833986335218 $423 23.528833986335218 $413 $508 forward 7 unknown #
vertex $-1 $407 $509 #
straight-curve $-1 -77.967467268898588 0 -23.528833986335218 0 1 0 I I #
straight-curve $-1 -77.967467268898588 -50.950943933902963 0 0 0 -1 I I #
face $-1 $353 $510 $17 $-1 $511 reversed single #
loop $-1 $-1 $358 $337 #
plane-surface $-1 0 0 -23.528833986335218 0 0 1 1 0 0 forward_v I I I I #
coedge $-1 $512 $513 $514 $515 forward $338 $-1 #
coedge $-1 $516 $340 $517 $518 reversed $236 $-1 #
coedge $-1 $340 $516 $513 $519 forward $236 $-1 #
coedge $-1 $357 $355 $340 $433 reversed $152 $-1 #
edge $-1 $520 -8.701223752947044 $521 8.701223752947044 $432 $522 forward 7 unknown #
coedge $-1 $443 $450 $341 $435 reversed $510 $-1 #
edge $-1 $436 -77.967467268898588 $438 77.967467268898588 $434 $523 forward 7 unknown #
vertex $-1 $342 $524 #
straight-curve $-1 -77.967467268898588 0 23.528833986335218 0 -1 0 I I #
vertex $-1 $343 $525 #
straight-curve $-1 77.967467268898588 0 23.528833986335218 0 1 0 I I #
point $-1 77.967467268898588 28.540079618578361 23.528833986335218 #
coedge $-1 $514 $346 $526 $527 reversed $139 $-1 #
coedge $-1 $347 $514 $516 $528 reversed $139 $-1 #
coedge $-1 $517 $434 $347 $444 forward $510 $-1 #
edge $-1 $436 -23.528833986335218 $529 14.585909573584093 $347 $530 forward 7 unknown #
coedge $-1 $358 $526 $351 $446 forward $427 $-1 #
edge $-1 $447 -77.967467268898588 $360 77.967467268898588 $351 $531 forward 7 unknown #
vertex $-1 $446 $532 #
straight-curve $-1 -77.967467268898588 50.950943933902963 0 0 0 -1 I I #
plane-surface $-1 0 50.950943933902963 0 0 -1 0 0 0 -1 forward_v I I I I #
coedge $-1 $434 $517 $355 $451 reversed $510 $-1 #
edge $-1 $438 -23.528833986335218 $521 14.585909573584093 $355 $533 forward 7 unknown #
coedge $-1 $513 $512 $357 $453 reversed $338 $-1 #
edge $-1 $520 -4.4714622063755627 $455 4.4714622063755627 $357 $534 forward 7 unknown #
coedge $-1 $526 $358 $512 $535 forward $427 $-1 #
vertex $-1 $453 $536 #
straight-curve $-1 77.967467268898588 0 -23.528833986335218 0 -1 0 I I #
point $-1 77.967467268898588 50.950943933902963 -23.528833986335218 #
face $-1 $537 $538 $18 $-1 $539 forward single #
loop $-1 $-1 $540 $363 #
plane-surface $-1 -77.967467268898588 0 0 1 0 0 0 0 -1 forward_v I I I I #
coedge $-1 $380 $541 $540 $542 reversed $364 $-1 #
coedge $-1 $543 $366 $544 $545 reversed $262 $-1 #
coedge $-1 $366 $543 $541 $546 reversed $262 $-1 #
coedge $-1 $377 $547 $366 $465 forward $276 $-1 #
edge $-1 $548 -31.078188045782632 $549 -8.6673237304580297 $464 $550 forward 7 unknown #
coedge $-1 $367 $379 $551 $552 forward $157 $-1 #
coedge $-1 $553 $368 $367 $468 reversed $276 $-1 #
edge $-1 $554 -50.950943933902963 $370 -4.1062520243138181 $467 $383 forward 7 unknown #
straight-curve $-1 77.967467268898588 -4.1062520243138181 109.31260006780765 0 0 1 I I #
point $-1 77.967467268898588 -4.1062520243138181 23.528833986335218 #
straight-curve $-1 77.967467268898574 0.84784318590589436 2.9189073623565207 0 -1 0 I I #
point $-1 77.967467268898588 -4.1062520243138181 2.9189073623565207 #
coedge $-1 $541 $380 $377 $474 reversed $364 $-1 #
edge $-1 $549 6.7411577813658798 $382 13.438836730434852 $377 $555 forward 7 unknown #
plane-surface $-1 77.967467268898588 0 0 -1 0 0 0 0 1 forward_v I I I I #
coedge $-1 $540 $556 $379 $477 reversed $459 $-1 #
edge $-1 $478 -28.540079618578361 $557 50.950943933902963 $476 $558 forward 7 unknown #
vertex $-1 $477 $559 #
straight-curve $-1 0 28.540079618578361 23.528833986335218 -1 0 0 I I #
point $-1 77.967467268898588 28.540079618578361 23.528833986335218 #
face $-1 $560 $561 $19 $-1 $562 forward single #
loop $-1 $-1 $563 $384 #
plane-surface $-1 0 39.745511776240662 16.831155037266246 0 0 1 1 0 0 forward_v I I I I #
coedge $-1 $394 $564 $387 $487 forward $385 $-1 #
coedge $-1 $486 $387 $565 $566 reversed $283 $-1 #
coedge $-1 $387 $485 $488 $567 forward $283 $-1 #
edge $-1 $568 -61.90862663655151 $569 -30.172123312669335 $484 $570 forward 7 unknown #
coedge $-1 $490 $388 $486 $567 reversed $285 $-1 #
edge $-1 $569 -4.9540952102197124 $395 6.6497815820315012 $394 $571 forward 7 unknown #
coedge $-1 $389 $488 $493 $572 reversed $285 $-1 #
vertex $-1 $572 $573 #
straight-curve $-1 -52.810572119833012 7.4976247679373955 87.847160746883674 0.83867056331134215 0 -0.54463904215088732 I I #
coedge $-1 $565 $391 $490 $572 forward $495 $-1 #
coedge $-1 $391 $574 $393 $498 reversed $495 $-1 #
loop $-1 $-1 $565 $575 #
straight-curve $-1 77.967467268898588 7.4976247679373955 109.31260006780765 0 0 -1 I I #
coedge $-1 $576 $393 $577 $578 forward $385 $-1 #
edge $-1 $396 7.4976247679373955 $579 28.540079618578361 $494 $580 forward 7 unknown #
point $-1 46.230963945016413 7.4976247679373955 23.528833986335215 #
point $-1 77.967467268898588 7.4976247679373955 23.528833986335218 #
point $-1 59.163006643198983 1.6956863718117887 8.7025054488375826 #
straight-curve $-1 0 50.950943933902963 -23.528833986335218 1 0 0 I I #
point $-1 77.967467268898588 50.950943933902963 -23.528833986335218 #
straight-curve $-1 -77.967467268898588 0 23.528833986335218 0 -1 0 I I #
point $-1 -77.967467268898588 50.950943933902963 23.528833986335218 #
point $-1 -77.967467268898588 -50.950943933902963 23.528833986335218 #
straight-curve $-1 77.967467268898588 50.950943933902963 0 0 0 -1 I I #
straight-curve $-1 -77.967467268898588 50.950943933902963 0 0 0 -1 I I #
point $-1 -77.967467268898588 50.950943933902963 -23.528833986335218 #
loop $-1 $-1 $517 $426 #
plane-surface $-1 0 -50.950943933902963 0 0 1 0 0 0 1 forward_v I I I I #
coedge $-1 $452 $429 $454 $535 reversed $338 $-1 #
coedge $-1 $429 $452 $431 $519 reversed $338 $-1 #
coedge $-1 $442 $441 $429 $515 reversed $139 $-1 #
edge $-1 $581 -4.4714622063755627 $582 4.4714622063755627 $514 $583 forward 7 unknown #
coedge $-1 $431 $430 $442 $528 forward $236 $-1 #
coedge $-1 $450 $443 $430 $518 forward $510 $-1 #
edge $-1 $529 -77.967467268898588 $521 77.967467268898588 $517 $584 forward 7 unknown #
edge $-1 $581 -77.967467268898588 $520 77.967467268898588 $513 $585 forward 7 unknown #
vertex $-1 $433 $586 #
vertex $-1 $433 $587 #
straight-curve $-1 77.967467268898588 -59.652167686850007 -14.585909573584093 0 1 0 I I #
straight-curve $-1 0 -50.950943933902963 23.528833986335218 1 0 0 I I #
point $-1 -77.967467268898588 -50.950943933902963 23.528833986335218 #
point $-1 77.967467268898588 -50.950943933902963 23.528833986335218 #
coedge $-1 $445 $454 $441 $527 forward $427 $-1 #
edge $-1 $582 -68.353391439797051 $447 50.950943933902963 $441 $588 forward 7 unknown #
edge $-1 $529 -8.701223752947044 $581 8.701223752947044 $442 $589 forward 7 unknown #
vertex $-1 $444 $590 #
straight-curve $-1 -77.967467268898588 -50.950943933902963 0 0 0 -1 I I #
straight-curve $-1 0 50.950943933902963 -23.528833986335218 1 0 0 I I #
point $-1 -77.967467268898588 50.950943933902963 -23.528833986335218 #
straight-curve $-1 77.967467268898588 -50.950943933902963 0 0 0 -1 I I #
straight-curve $-1 77.967467268898588 -68.353391439797051 -19.057371779959656 0 0 -1 I I #
edge $-1 $455 -77.967467268898588 $582 77.967467268898588 $512 $591 forward 7 unknown #
point $-1 77.967467268898588 -68.353391439797051 -23.528833986335218 #
face $-1 $592 $593 $18 $-1 $594 reversed single #
loop $-1 $-1 $595 $458 #
plane-surface $-1 0 -59.652167686850007 -14.585909573584093 0 0 1 1 0 0 forward_v I I I I #
coedge $-1 $596 $476 $461 $542 forward $459 $-1 #
coedge $-1 $461 $473 $463 $546 forward $364 $-1 #
edge $-1 $478 -13.438836730434852 $597 -6.7411577813658798 $540 $598 forward 7 unknown #
coedge $-1 $463 $462 $596 $599 reversed $262 $-1 #
coedge $-1 $600 $601 $462 $545 forward $602 $-1 #
edge $-1 $603 -77.967467268898588 $548 77.967467268898588 $544 $604 forward 7 unknown #
edge $-1 $549 -77.967467268898588 $597 77.967467268898588 $541 $605 forward 7 unknown #
coedge $-1 $464 $606 $600 $607 reversed $276 $-1 #
vertex $-1 $607 $608 #
vertex $-1 $465 $609 #
straight-curve $-1 77.967467268898588 19.872755888120331 16.831155037266246 0 -1 0 I I #
coedge $-1 $610 $611 $466 $552 reversed $612 $-1 #
edge $-1 $557 -77.967467268898588 $554 77.967467268898588 $551 $613 forward 7 unknown #
coedge $-1 $614 $467 $611 $615 forward $276 $-1 #
vertex $-1 $468 $616 #
straight-curve $-1 77.967467268898588 28.540079618578361 10.089997255900366 0 0 1 I I #
coedge $-1 $476 $617 $610 $618 reversed $459 $-1 #
vertex $-1 $477 $619 #
straight-curve $-1 -77.967467268898588 0 23.528833986335218 0 -1 0 I I #
point $-1 -77.967467268898588 28.540079618578361 23.528833986335218 #
face $-1 $620 $621 $19 $-1 $622 reversed single #
loop $-1 $-1 $623 $481 #
plane-surface $-1 0 28.540079618578361 20.179994511800732 0 1 0 0 0 1 forward_v I I I I #
coedge $-1 $624 $625 $626 $627 reversed $482 $-1 #
coedge $-1 $484 $628 $629 $630 forward $385 $-1 #
coedge $-1 $629 $493 $485 $566 forward $495 $-1 #
edge $-1 $631 -106.39369270545113 $568 -85.783766081472436 $565 $632 forward 7 unknown #
edge $-1 $631 -155.93493453779715 $569 -118.09349272234077 $486 $633 forward 7 unknown #
vertex $-1 $566 $634 #
vertex $-1 $489 $635 #
straight-curve $-1 16.058840632347078 -4.1062520243138181 23.528833986335215 -1 0 0 I I #
straight-curve $-1 46.230963945016413 0.84784318590589436 23.528833986335215 0 1 0 I I #
edge $-1 $491 -6.6497815820315012 $631 4.9540952102197124 $493 $636 forward 7 unknown #
point $-1 77.967467268898588 7.4976247679373955 2.9189073623565207 #
coedge $-1 $494 $626 $637 $638 forward $495 $-1 #
face $-1 $-1 $495 $19 $-1 $639 reversed single #
coedge $-1 $628 $497 $640 $641 forward $385 $-1 #
coedge $-1 $637 $623 $497 $578 reversed $561 $-1 #
edge $-1 $579 -77.967467268898588 $642 77.967467268898588 $497 $643 forward 7 unknown #
vertex $-1 $578 $644 #
straight-curve $-1 77.967467268898588 0 23.528833986335218 0 1 0 I I #
vertex $-1 $528 $645 #
vertex $-1 $527 $646 #
straight-curve $-1 -77.967467268898588 -68.353391439797051 -19.057371779959656 0 0 -1 I I #
straight-curve $-1 0 -50.950943933902963 -14.585909573584093 1 0 0 I I #
straight-curve $-1 0 -68.353391439797051 -14.585909573584093 1 0 0 I I #
point $-1 77.967467268898588 -68.353391439797051 -14.585909573584093 #
point $-1 77.967467268898588 -50.950943933902963 -14.585909573584093 #
straight-curve $-1 -77.967467268898588 0 -23.528833986335218 0 1 0 I I #
straight-curve $-1 -77.967467268898588 -59.652167686850007 -14.585909573584093 0 -1 0 I I #
point $-1 -77.967467268898588 -50.950943933902963 -14.585909573584093 #
straight-curve $-1 0 -68.353391439797051 -23.528833986335218 -1 0 0 I I #
face $-1 $647 $648 $18 $-1 $649 reversed single #
loop $-1 $-1 $650 $537 #
plane-surface $-1 0 -68.353391439797051 -19.057371779959656 0 1 0 0 0 1 forward_v I I I I #
coedge $-1 $651 $652 $614 $653 forward $538 $-1 #
coedge $-1 $654 $540 $543 $599 forward $459 $-1 #
vertex $-1 $599 $655 #
straight-curve $-1 -77.967467268898588 28.540079618578361 10.089997255900366 0 0 -1 I I #
edge $-1 $597 8.6673237304580297 $603 31.078188045782632 $596 $656 forward 7 unknown #
coedge $-1 $657 $544 $547 $607 forward $602 $-1 #
coedge $-1 $544 $657 $654 $658 reversed $602 $-1 #
loop $-1 $-1 $544 $659 #
vertex $-1 $658 $660 #
straight-curve $-1 0 50.950943933902963 16.831155037266246 1 0 0 I I #
straight-curve $-1 0 28.540079618578361 16.831155037266246 -1 0 0 I I #
coedge $-1 $547 $661 $662 $663 reversed $276 $-1 #
edge $-1 $548 -16.831155037266246 $664 23.528833986335218 $547 $665 forward 7 unknown #
point $-1 77.967467268898588 50.950943933902963 16.831155037266246 #
point $-1 77.967467268898588 28.540079618578361 16.831155037266246 #
coedge $-1 $666 $551 $556 $618 forward $612 $-1 #
coedge $-1 $551 $666 $553 $615 reversed $612 $-1 #
loop $-1 $-1 $666 $647 #
straight-curve $-1 0 -50.950943933902963 23.528833986335218 1 0 0 I I #
coedge $-1 $661 $553 $595 $653 reversed $276 $-1 #
edge $-1 $554 -23.528833986335218 $667 14.585909573584093 $553 $668 forward 7 unknown #
point $-1 77.967467268898588 -50.950943933902963 23.528833986335218 #
coedge $-1 $556 $669 $670 $671 reversed $459 $-1 #
edge $-1 $557 -23.528833986335218 $672 14.585909573584093 $556 $673 forward 7 unknown #
point $-1 -77.967467268898588 -50.950943933902963 23.528833986335218 #
face $-1 $674 $675 $19 $-1 $676 forward single #
loop $-1 $-1 $677 $560 #
plane-surface $-1 -77.967467268898588 0 0 1 0 0 0 0 -1 forward_v I I I I #
coedge $-1 $577 $678 $677 $679 reversed $561 $-1 #
coedge $-1 $680 $563 $681 $682 reversed $482 $-1 #
coedge $-1 $563 $680 $678 $683 reversed $482 $-1 #
coedge $-1 $574 $684 $563 $627 forward $495 $-1 #
edge $-1 $685 -31.078188045782632 $686 -8.6673237304580297 $626 $687 forward 7 unknown #
coedge $-1 $564 $576 $688 $689 forward $385 $-1 #
coedge $-1 $690 $565 $564 $630 reversed $495 $-1 #
edge $-1 $691 -50.950943933902963 $568 -4.1062520243138181 $629 $580 forward 7 unknown #
vertex $-1 $572 $692 #
straight-curve $-1 77.967467268898588 -4.1062520243138181 109.31260006780765 0 0 1 I I #
straight-curve $-1 -52.810572119833012 -4.1062520243138181 87.847160746883674 -0.83867056331134215 0 0.54463904215088732 I I #
point $-1 77.967467268898588 -4.1062520243138181 23.528833986335218 #
point $-1 46.230963945016413 -4.1062520243138181 23.528833986335215 #
straight-curve $-1 77.967467268898574 0.84784318590589436 2.9189073623565207 0 -1 0 I I #
coedge $-1 $678 $577 $574 $638 reversed $561 $-1 #
edge $-1 $686 6.7411577813658798 $579 13.438836730434852 $574 $693 forward 7 unknown #
plane-surface $-1 77.967467268898588 0 0 -1 0 0 0 0 1 forward_v I I I I #
coedge $-1 $677 $694 $576 $641 reversed $621 $-1 #
edge $-1 $642 -28.540079618578361 $695 50.950943933902963 $640 $696 forward 7 unknown #
vertex $-1 $641 $697 #
straight-curve $-1 0 28.540079618578361 23.528833986335218 -1 0 0 I I #
point $-1 77.967467268898588 28.540079618578361 23.528833986335218 #
point $-1 -77.967467268898588 -68.353391439797051 -14.585909573584093 #
point $-1 -77.967467268898588 -68.353391439797051 -23.528833986335218 #
face $-1 $659 $612 $18 $-1 $698 reversed single #
loop $-1 $-1 $662 $592 #
plane-surface $-1 0 0 -23.528833986335218 0 0 1 1 0 0 forward_v I I I I #
coedge $-1 $699 $700 $669 $701 forward $593 $-1 #
coedge $-1 $670 $595 $666 $702 reversed $538 $-1 #
coedge $-1 $595 $670 $700 $703 forward $538 $-1 #
edge $-1 $704 -8.701223752947044 $667 8.701223752947044 $614 $705 forward 7 unknown #
coedge $-1 $706 $596 $601 $658 forward $459 $-1 #
point $-1 -77.967467268898588 28.540079618578361 16.831155037266246 #
straight-curve $-1 -77.967467268898588 19.872755888120331 16.831155037266246 0 1 0 I I #
coedge $-1 $601 $600 $707 $708 reversed $602 $-1 #
edge $-1 $603 -16.831155037266246 $709 23.528833986335218 $601 $710 forward 7 unknown #
face $-1 $378 $602 $18 $-1 $711 reversed single #
point $-1 -77.967467268898588 50.950943933902963 16.831155037266246 #
coedge $-1 $606 $614 $712 $713 forward $276 $-1 #
coedge $-1 $714 $707 $606 $663 forward $648 $-1 #
edge $-1 $664 -50.950943933902963 $715 68.353391439797051 $606 $716 forward 7 unknown #
vertex $-1 $663 $717 #
straight-curve $-1 77.967467268898588 50.950943933902963 0 0 0 -1 I I #
coedge $-1 $611 $610 $651 $702 forward $612 $-1 #
vertex $-1 $653 $718 #
straight-curve $-1 77.967467268898588 -50.950943933902963 0 0 0 -1 I I #
coedge $-1 $617 $706 $650 $701 reversed $459 $-1 #
coedge $-1 $652 $651 $617 $671 forward $538 $-1 #
edge $-1 $672 -8.701223752947044 $719 8.701223752947044 $617 $720 forward 7 unknown #
vertex $-1 $618 $721 #
straight-curve $-1 -77.967467268898588 -50.950943933902963 0 0 0 -1 I I #
face $-1 $722 $723 $19 $-1 $724 reversed single #
loop $-1 $-1 $725 $620 #
plane-surface $-1 0 -59.652167686850007 -14.585909573584093 0 0 1 1 0 0 forward_v I I I I #
coedge $-1 $726 $640 $623 $679 forward $621 $-1 #
coedge $-1 $623 $637 $625 $683 forward $561 $-1 #
edge $-1 $642 -13.438836730434852 $727 -6.7411577813658798 $677 $728 forward 7 unknown #
coedge $-1 $625 $624 $726 $729 reversed $482 $-1 #
coedge $-1 $730 $731 $624 $682 forward $732 $-1 #
edge $-1 $733 -77.967467268898588 $685 77.967467268898588 $681 $734 forward 7 unknown #
edge $-1 $686 -77.967467268898588 $727 77.967467268898588 $678 $735 forward 7 unknown #
coedge $-1 $626 $736 $730 $737 reversed $495 $-1 #
vertex $-1 $737 $738 #
vertex $-1 $627 $739 #
straight-curve $-1 77.967467268898588 19.872755888120331 16.831155037266246 0 -1 0 I I #
coedge $-1 $740 $741 $628 $689 reversed $742 $-1 #
edge $-1 $695 -77.967467268898588 $691 77.967467268898588 $688 $743 forward 7 unknown #
coedge $-1 $744 $629 $741 $745 forward $495 $-1 #
vertex $-1 $630 $746 #
point $-1 77.967467268898588 -4.1062520243138181 2.9189073623565207 #
straight-curve $-1 77.967467268898588 28.540079618578361 10.089997255900366 0 0 1 I I #
coedge $-1 $640 $747 $740 $748 reversed $621 $-1 #
vertex $-1 $641 $749 #
straight-curve $-1 -77.967467268898588 0 23.528833986335218 0 -1 0 I I #
point $-1 -77.967467268898588 28.540079618578361 23.528833986335218 #
plane-surface $-1 0 -50.950943933902963 0 0 1 0 0 0 1 forward_v I I I I #
coedge $-1 $712 $650 $714 $750 reversed $593 $-1 #
coedge $-1 $650 $712 $652 $703 reversed $593 $-1 #
edge $-1 $719 -4.4714622063755627 $751 4.4714622063755627 $669 $752 forward 7 unknown #
edge $-1 $672 -77.967467268898588 $667 77.967467268898588 $666 $753 forward 7 unknown #
edge $-1 $719 -77.967467268898588 $704 77.967467268898588 $700 $754 forward 7 unknown #
vertex $-1 $653 $755 #
straight-curve $-1 77.967467268898588 -59.652167686850007 -14.585909573584093 0 1 0 I I #
coedge $-1 $669 $654 $756 $757 reversed $459 $-1 #
coedge $-1 $662 $756 $657 $708 forward $648 $-1 #
edge $-1 $709 -77.967467268898588 $664 77.967467268898588 $657 $758 forward 7 unknown #
vertex $-1 $708 $759 #
straight-curve $-1 -77.967467268898588 50.950943933902963 0 0 0 -1 I I #
plane-surface $-1 0 50.950943933902963 0 0 -1 0 0 0 -1 forward_v I I I I #
coedge $-1 $700 $699 $661 $713 reversed $593 $-1 #
edge $-1 $704 -4.4714622063755627 $715 4.4714622063755627 $661 $760 forward 7 unknown #
coedge $-1 $756 $662 $699 $750 forward $648 $-1 #
vertex $-1 $713 $761 #
straight-curve $-1 77.967467268898588 0 -23.528833986335218 0 -1 0 I I #
point $-1 77.967467268898588 50.950943933902963 -23.528833986335218 #
point $-1 77.967467268898588 -50.950943933902963 -14.585909573584093 #
vertex $-1 $671 $762 #
straight-curve $-1 -77.967467268898588 -59.652167686850007 -14.585909573584093 0 -1 0 I I #
point $-1 -77.967467268898588 -50.950943933902963 -14.585909573584093 #
face $-1 $763 $764 $19 $-1 $765 reversed single #
loop $-1 $-1 $766 $674 #
plane-surface $-1 0 -68.353391439797051 -19.057371779959656 0 1 0 0 0 1 forward_v I I I I #
coedge $-1 $767 $768 $744 $769 forward $675 $-1 #
coedge $-1 $770 $677 $680 $729 forward $621 $-1 #
vertex $-1 $729 $771 #
straight-curve $-1 -77.967467268898588 28.540079618578361 10.089997255900366 0 0 -1 I I #
edge $-1 $727 8.6673237304580297 $733 31.078188045782632 $726 $772 forward 7 unknown #
coedge $-1 $773 $681 $684 $737 forward $732 $-1 #
coedge $-1 $681 $773 $770 $774 reversed $732 $-1 #
loop $-1 $-1 $681 $775 #
vertex $-1 $774 $776 #
straight-curve $-1 0 50.950943933902963 16.831155037266246 1 0 0 I I #
straight-curve $-1 0 28.540079618578361 16.831155037266246 -1 0 0 I I #
coedge $-1 $684 $777 $778 $779 reversed $495 $-1 #
edge $-1 $685 -16.831155037266246 $780 23.528833986335218 $684 $781 forward 7 unknown #
point $-1 77.967467268898588 50.950943933902963 16.831155037266246 #
point $-1 77.967467268898588 28.540079618578361 16.831155037266246 #
coedge $-1 $782 $688 $694 $748 forward $742 $-1 #
coedge $-1 $688 $782 $690 $745 reversed $742 $-1 #
loop $-1 $-1 $782 $763 #
straight-curve $-1 0 -50.950943933902963 23.528833986335218 1 0 0 I I #
coedge $-1 $777 $690 $725 $769 reversed $495 $-1 #
edge $-1 $691 -23.528833986335218 $783 14.585909573584093 $690 $784 forward 7 unknown #
point $-1 77.967467268898588 -50.950943933902963 23.528833986335218 #
coedge $-1 $694 $785 $786 $787 reversed $621 $-1 #
edge $-1 $695 -23.528833986335218 $788 14.585909573584093 $694 $789 forward 7 unknown #
point $-1 -77.967467268898588 -50.950943933902963 23.528833986335218 #
edge $-1 $715 -77.967467268898588 $751 77.967467268898588 $699 $790 forward 7 unknown #
vertex $-1 $757 $791 #
straight-curve $-1 -77.967467268898588 -68.353391439797051 -19.057371779959656 0 0 -1 I I #
straight-curve $-1 0 -50.950943933902963 -14.585909573584093 1 0 0 I I #
straight-curve $-1 0 -68.353391439797051 -14.585909573584093 1 0 0 I I #
point $-1 77.967467268898588 -68.353391439797051 -14.585909573584093 #
coedge $-1 $707 $714 $706 $757 forward $648 $-1 #
edge $-1 $751 -68.353391439797051 $709 50.950943933902963 $706 $792 forward 7 unknown #
straight-curve $-1 0 50.950943933902963 -23.528833986335218 1 0 0 I I #
point $-1 -77.967467268898588 50.950943933902963 -23.528833986335218 #
straight-curve $-1 77.967467268898588 -68.353391439797051 -19.057371779959656 0 0 -1 I I #
point $-1 77.967467268898588 -68.353391439797051 -23.528833986335218 #
point $-1 -77.967467268898588 -68.353391439797051 -14.585909573584093 #
face $-1 $775 $742 $19 $-1 $793 reversed single #
loop $-1 $-1 $778 $722 #
plane-surface $-1 0 0 -23.528833986335218 0 0 1 1 0 0 forward_v I I I I #
coedge $-1 $794 $795 $785 $796 forward $723 $-1 #
coedge $-1 $786 $725 $782 $797 reversed $675 $-1 #
coedge $-1 $725 $786 $795 $798 forward $675 $-1 #
edge $-1 $799 -8.701223752947044 $783 8.701223752947044 $744 $800 forward 7 unknown #
coedge $-1 $801 $726 $731 $774 forward $621 $-1 #
point $-1 -77.967467268898588 28.540079618578361 16.831155037266246 #
straight-curve $-1 -77.967467268898588 19.872755888120331 16.831155037266246 0 1 0 I I #
coedge $-1 $731 $730 $802 $803 reversed $732 $-1 #
edge $-1 $733 -16.831155037266246 $804 23.528833986335218 $731 $805 forward 7 unknown #
face $-1 $575 $732 $19 $-1 $806 reversed single #
point $-1 -77.967467268898588 50.950943933902963 16.831155037266246 #
coedge $-1 $736 $744 $807 $808 forward $495 $-1 #
coedge $-1 $809 $802 $736 $779 forward $764 $-1 #
edge $-1 $780 -50.950943933902963 $810 68.353391439797051 $736 $811 forward 7 unknown #
vertex $-1 $779 $812 #
straight-curve $-1 77.967467268898588 50.950943933902963 0 0 0 -1 I I #
coedge $-1 $741 $740 $767 $797 forward $742 $-1 #
vertex $-1 $769 $813 #
straight-curve $-1 77.967467268898588 -50.950943933902963 0 0 0 -1 I I #
coedge $-1 $747 $801 $766 $796 reversed $621 $-1 #
coedge $-1 $768 $767 $747 $787 forward $675 $-1 #
edge $-1 $788 -8.701223752947044 $814 8.701223752947044 $747 $815 forward 7 unknown #
vertex $-1 $748 $816 #
straight-curve $-1 -77.967467268898588 -50.950943933902963 0 0 0 -1 I I #
straight-curve $-1 0 -68.353391439797051 -23.528833986335218 -1 0 0 I I #
point $-1 -77.967467268898588 -68.353391439797051 -23.528833986335218 #
straight-curve $-1 -77.967467268898588 0 -23.528833986335218 0 1 0 I I #
plane-surface $-1 0 -50.950943933902963 0 0 1 0 0 0 1 forward_v I I I I #
coedge $-1 $807 $766 $809 $817 reversed $723 $-1 #
coedge $-1 $766 $807 $768 $798 reversed $723 $-1 #
edge $-1 $814 -4.4714622063755627 $818 4.4714622063755627 $785 $819 forward 7 unknown #
edge $-1 $788 -77.967467268898588 $783 77.967467268898588 $782 $820 forward 7 unknown #
edge $-1 $814 -77.967467268898588 $799 77.967467268898588 $795 $821 forward 7 unknown #
vertex $-1 $769 $822 #
straight-curve $-1 77.967467268898588 -59.652167686850007 -14.585909573584093 0 1 0 I I #
coedge $-1 $785 $770 $823 $824 reversed $621 $-1 #
coedge $-1 $778 $823 $773 $803 forward $764 $-1 #
edge $-1 $804 -77.967467268898588 $780 77.967467268898588 $773 $825 forward 7 unknown #
vertex $-1 $803 $826 #
straight-curve $-1 -77.967467268898588 50.950943933902963 0 0 0 -1 I I #
plane-surface $-1 0 50.950943933902963 0 0 -1 0 0 0 -1 forward_v I I I I #
coedge $-1 $795 $794 $777 $808 reversed $723 $-1 #
edge $-1 $799 -4.4714622063755627 $810 4.4714622063755627 $777 $827 forward 7 unknown #
coedge $-1 $823 $778 $794 $817 forward $764 $-1 #
vertex $-1 $808 $828 #
straight-curve $-1 77.967467268898588 0 -23.528833986335218 0 -1 0 I I #
point $-1 77.967467268898588 50.950943933902963 -23.528833986335218 #
point $-1 77.967467268898588 -50.950943933902963 -14.585909573584093 #
vertex $-1 $787 $829 #
straight-curve $-1 -77.967467268898588 -59.652167686850007 -14.585909573584093 0 -1 0 I I #
point $-1 -77.967467268898588 -50.950943933902963 -14.585909573584093 #
edge $-1 $810 -77.967467268898588 $818 77.967467268898588 $794 $830 forward 7 unknown #
vertex $-1 $824 $831 #
straight-curve $-1 -77.967467268898588 -68.353391439797051 -19.057371779959656 0 0 -1 I I #
straight-curve $-1 0 -50.950943933902963 -14.585909573584093 1 0 0 I I #
straight-curve $-1 0 -68.353391439797051 -14.585909573584093 1 0 0 I I #
point $-1 77.967467268898588 -68.353391439797051 -14.585909573584093 #
coedge $-1 $802 $809 $801 $824 forward $764 $-1 #
edge $-1 $818 -68.353391439797051 $804 50.950943933902963 $801 $832 forward 7 unknown #
straight-curve $-1 0 50.950943933902963 -23.528833986335218 1 0 0 I I #
point $-1 -77.967467268898588 50.950943933902963 -23.528833986335218 #
straight-curve $-1 77.967467268898588 -68.353391439797051 -19.057371779959656 0 0 -1 I I #
point $-1 77.967467268898588 -68.353391439797051 -23.528833986335218 #
point $-1 -77.967467268898588 -68.353391439797051 -14.585909573584093 #
straight-curve $-1 0 -68.353391439797051 -23.528833986335218 -1 0 0 I I #
point $-1 -77.967467268898588 -68.353391439797051 -23.528833986335218 #
straight-curve $-1 -77.967467268898588 0 -23.528833986335218 0 1 0 I I #
End-of-ACIS-data 