500 0 8 0           
7 Unknown 11 ACIS 5.0 NT 24 Thu Mar 25 16:37:40 1999 
-1 9.9999999999999995e-007 1e-010 
body $-1 $8 $-1 $9 #
body $-1 $10 $-1 $11 #
body $-1 $12 $-1 $13 #
body $-1 $14 $-1 $15 #
body $-1 $16 $-1 $17 #
body $-1 $18 $-1 $19 #
body $-1 $20 $-1 $21 #
body $-1 $22 $-1 $23 #
lump $-1 $-1 $24 $0 #
transform $-1 1 0 0 0 1 0 0 0 1 56.733909115878781 25.88286570608993 8.5320958781017424 1 rotate no_reflect no_shear #
lump $-1 $-1 $25 $1 #
transform $-1 1 0 0 0 1 0 0 0 1 56.733909115878781 25.88286570608993 8.5320958781017424 1 rotate no_reflect no_shear #
lump $-1 $-1 $26 $2 #
transform $-1 1 0 0 0 1 0 0 0 1 56.733909115878781 25.88286570608993 8.5320958781017424 1 rotate no_reflect no_shear #
lump $-1 $-1 $27 $3 #
transform $-1 1 0 0 0 1 0 0 0 1 56.733909115878781 25.88286570608993 8.5320958781017424 1 rotate no_reflect no_shear #
lump $-1 $-1 $28 $4 #
transform $-1 1 0 0 0 1 0 0 0 1 56.733909115878781 25.88286570608993 8.5320958781017424 1 rotate no_reflect no_shear #
lump $-1 $-1 $29 $5 #
transform $-1 1 0 0 0 1 0 0 0 1 56.733909115878781 25.88286570608993 8.5320958781017424 1 rotate no_reflect no_shear #
lump $-1 $-1 $30 $6 #
transform $-1 1 0 0 0 1 0 0 0 1 56.733909115878781 25.88286570608993 8.5320958781017424 1 rotate no_reflect no_shear #
lump $-1 $-1 $31 $7 #
transform $-1 1 0 0 0 1 0 0 0 1 56.733909115878781 25.88286570608993 8.5320958781017424 1 rotate no_reflect no_shear #
shell $-1 $-1 $-1 $32 $-1 $8 #
shell $-1 $-1 $-1 $33 $-1 $10 #
shell $-1 $-1 $-1 $34 $-1 $12 #
shell $-1 $-1 $-1 $35 $-1 $14 #
shell $-1 $-1 $-1 $36 $-1 $16 #
shell $-1 $-1 $-1 $37 $-1 $18 #
shell $-1 $-1 $-1 $38 $-1 $20 #
shell $-1 $-1 $-1 $39 $-1 $22 #
face $-1 $40 $41 $24 $-1 $42 forward single #
face $-1 $43 $44 $25 $-1 $45 reversed single #
face $-1 $46 $47 $26 $-1 $48 reversed single #
face $-1 $49 $50 $27 $-1 $51 forward single #
face $-1 $52 $53 $28 $-1 $54 forward single #
face $-1 $55 $56 $29 $-1 $57 reversed single #
face $-1 $58 $59 $30 $-1 $60 forward single #
face $-1 $61 $62 $31 $-1 $63 forward single #
face $-1 $64 $65 $24 $-1 $66 reversed single #
loop $-1 $-1 $67 $32 #
plane-surface $-1 0 0 8.5320958781017424 0 0 1 1 0 0 forward_v I I I I #
face $-1 $68 $69 $25 $-1 $70 reversed single #
loop $-1 $-1 $71 $33 #
plane-surface $-1 0 -21.552627201046761 4.4298052283278331 0 0 1 1 0 0 forward_v I I I I #
face $-1 $72 $73 $26 $-1 $74 reversed single #
loop $-1 $-1 $75 $34 #
plane-surface $-1 76.290007831666372 18.025830925189929 161.85373128265911 0 -1 0 -0.78801076186113728 0 -0.61566146476048833 forward_v I I I I #
face $-1 $76 $77 $27 $-1 $78 forward single #
loop $-1 $79 $80 $35 #
cone-surface $-1 53.371601282016535 9.5463088280662589 4.7461365913102744 -0.78801076186113728 0 -0.61566146476048833 0.61566146476048833 0 -0.78801076186113728 1 I I 0 1 1 forward I I I I #
face $-1 $81 $82 $28 $-1 $83 forward single #
loop $-1 $84 $85 $36 #
cone-surface $-1 53.371601282016535 14.634022086340458 4.7461365913102744 -0.78801076186113728 0 -0.61566146476048833 0.61566146476048833 0 -0.78801076186113728 1 I I 0 1 1 forward I I I I #
face $-1 $86 $87 $29 $-1 $88 reversed single #
loop $-1 $-1 $89 $37 #
plane-surface $-1 -146.1477710074071 6.1544999892167951 72.439869391130813 0 1 0 -0.78801076186113728 0 0.61566146476048833 forward_v I I I I #
face $-1 $90 $91 $30 $-1 $92 forward single #
loop $-1 $93 $94 $38 #
cone-surface $-1 -53.371601282016542 9.5463088280662589 4.7461365913102851 0.78801076186113728 0 -0.61566146476048833 0.61566146476048833 0 0.78801076186113728 1 I I 0 1 1 forward I I I I #
face $-1 $95 $96 $31 $-1 $97 forward single #
loop $-1 $98 $99 $39 #
cone-surface $-1 -53.371601282016542 14.634022086340458 4.7461365913102851 0.78801076186113728 0 -0.61566146476048833 0.61566146476048833 0 0.78801076186113728 1 I I 0 1 1 forward I I I I #
face $-1 $100 $101 $24 $-1 $102 reversed single #
loop $-1 $-1 $103 $40 #
plane-surface $-1 0 0 -8.5320958781017424 0 0 1 1 0 0 forward_v I I I I #
coedge $-1 $104 $105 $106 $107 forward $41 $-1 #
face $-1 $108 $109 $25 $-1 $110 reversed single #
loop $-1 $-1 $111 $43 #
plane-surface $-1 0 -17.222388696003591 6.4809505532147877 0 -1 0 0 0 -1 forward_v I I I I #
coedge $-1 $112 $113 $114 $115 reversed $44 $-1 #
face $-1 $116 $117 $26 $-1 $118 reversed single #
loop $-1 $-1 $119 $46 #
plane-surface $-1 -13.123854059861941 12.090165457203362 91.995968106918411 0.78801076186113728 0 0.61566146476048833 0.61566146476048833 0 -0.78801076186113728 forward_v I I I I #
coedge $-1 $120 $121 $122 $123 reversed $47 $-1 #
face $-1 $-1 $124 $27 $-1 $125 forward single #
loop $-1 $126 $127 $49 #
cone-surface $-1 51.939608703659609 9.5463088280662589 3.6273414034943841 -0.78801076186113728 0 -0.61566146476048833 0.30783073238024417 0 -0.39400538093056864 1 I I -0.70710678118654746 0.70710678118654746 0.5 forward I I I I #
loop $-1 $-1 $128 $35 #
coedge $-1 $80 $80 $129 $130 reversed $50 $-1 #
face $-1 $-1 $131 $28 $-1 $132 forward single #
loop $-1 $133 $134 $52 #
cone-surface $-1 51.939608703659609 14.634022086340458 3.6273414034943841 -0.78801076186113728 0 -0.61566146476048833 0.30783073238024417 0 -0.39400538093056864 1 I I -0.70710678118654746 0.70710678118654746 0.5 forward I I I I #
loop $-1 $-1 $135 $36 #
coedge $-1 $85 $85 $136 $137 reversed $53 $-1 #
face $-1 $138 $139 $29 $-1 $140 reversed single #
loop $-1 $-1 $141 $55 #
plane-surface $-1 -56.733909115878788 12.090165457203362 2.5821062153901124 -0.78801076186113728 0 0.61566146476048833 0.61566146476048833 0 0.78801076186113728 forward_v I I I I #
coedge $-1 $142 $143 $144 $145 reversed $56 $-1 #
face $-1 $-1 $146 $30 $-1 $147 forward single #
loop $-1 $148 $149 $58 #
cone-surface $-1 -51.939608703659616 9.5463088280662589 3.6273414034943947 0.78801076186113728 0 -0.61566146476048833 0.30783073238024417 0 0.39400538093056864 1 I I -0.70710678118654746 0.70710678118654746 0.5 forward I I I I #
loop $-1 $-1 $150 $38 #
coedge $-1 $94 $94 $151 $152 reversed $59 $-1 #
face $-1 $-1 $153 $31 $-1 $154 forward single #
loop $-1 $155 $156 $61 #
cone-surface $-1 -51.939608703659616 14.634022086340458 3.6273414034943947 0.78801076186113728 0 -0.61566146476048833 0.30783073238024417 0 0.39400538093056864 1 I I -0.70710678118654746 0.70710678118654746 0.5 forward I I I I #
loop $-1 $-1 $157 $39 #
coedge $-1 $99 $99 $158 $159 reversed $62 $-1 #
face $-1 $160 $161 $24 $-1 $162 reversed single #
loop $-1 $-1 $163 $64 #
plane-surface $-1 0 -25.88286570608993 0 0 1 0 0 0 1 forward_v I I I I #
coedge $-1 $164 $165 $166 $167 forward $65 $-1 #
coedge $-1 $168 $67 $169 $170 forward $41 $-1 #
coedge $-1 $67 $168 $171 $172 forward $41 $-1 #
coedge $-1 $173 $174 $67 $107 reversed $175 $-1 #
edge $-1 $176 -25.88286570608993 $177 25.88286570608993 $106 $178 forward 7 unknown #
face $-1 $179 $180 $25 $-1 $181 reversed single #
loop $-1 $-1 $182 $68 #
plane-surface $-1 -56.733909115878781 0 0 1 0 0 0 0 -1 forward_v I I I I #
coedge $-1 $183 $184 $185 $186 reversed $69 $-1 #
coedge $-1 $187 $71 $188 $189 reversed $44 $-1 #
coedge $-1 $71 $187 $183 $190 forward $44 $-1 #
coedge $-1 $185 $191 $71 $115 forward $192 $-1 #
edge $-1 $193 -15.10655210556655 $194 -6.4460750954802108 $114 $195 forward 7 unknown #
face $-1 $196 $197 $26 $-1 $198 reversed single #
loop $-1 $-1 $199 $72 #
plane-surface $-1 76.290007831666372 6.1544999892167951 161.85373128265911 0 1 0 0.78801076186113728 0 0.61566146476048833 forward_v I I I I #
coedge $-1 $200 $201 $202 $203 reversed $73 $-1 #
coedge $-1 $121 $75 $204 $205 reversed $47 $-1 #
coedge $-1 $75 $120 $200 $206 reversed $47 $-1 #
coedge $-1 $202 $207 $75 $123 forward $208 $-1 #
edge $-1 $209 -18.588905200045595 $210 -13.940263927173802 $122 $211 forward 7 unknown #
loop $-1 $-1 $129 $76 #
plane-surface $-1 -13.123854059861941 12.090165457203362 91.995968106918411 0.78801076186113728 0 0.61566146476048833 0.61566146476048833 0 -0.78801076186113728 forward_v I I I I #
loop $-1 $-1 $212 $49 #
coedge $-1 $127 $127 $128 $213 reversed $77 $-1 #
coedge $-1 $128 $128 $127 $213 forward $79 $-1 #
coedge $-1 $129 $129 $80 $130 forward $124 $-1 #
edge $-1 $214 0 $214 6.2831853071796004 $129 $215 forward 7 unknown #
loop $-1 $-1 $136 $81 #
plane-surface $-1 -13.123854059861941 12.090165457203362 91.995968106918411 0.78801076186113728 0 0.61566146476048833 0.61566146476048833 0 -0.78801076186113728 forward_v I I I I #
loop $-1 $-1 $216 $52 #
coedge $-1 $134 $134 $135 $217 reversed $82 $-1 #
coedge $-1 $135 $135 $134 $217 forward $84 $-1 #
coedge $-1 $136 $136 $85 $137 forward $131 $-1 #
edge $-1 $218 0 $218 6.2831853071796004 $136 $219 forward 7 unknown #
face $-1 $220 $221 $29 $-1 $222 forward single #
loop $-1 $-1 $223 $86 #
plane-surface $-1 -146.1477710074071 18.025830925189929 72.439869391130813 0 -1 0 0.78801076186113728 0 -0.61566146476048833 forward_v I I I I #
coedge $-1 $224 $225 $226 $227 reversed $87 $-1 #
coedge $-1 $143 $89 $228 $229 reversed $56 $-1 #
coedge $-1 $89 $142 $224 $230 reversed $56 $-1 #
coedge $-1 $226 $231 $89 $145 forward $221 $-1 #
edge $-1 $232 16.33997638782477 $233 20.988617660696526 $144 $234 forward 7 unknown #
loop $-1 $-1 $151 $90 #
plane-surface $-1 -56.733909115878788 12.090165457203362 2.5821062153901124 -0.78801076186113728 0 0.61566146476048833 0.61566146476048833 0 0.78801076186113728 forward_v I I I I #
loop $-1 $-1 $235 $58 #
coedge $-1 $149 $149 $150 $236 reversed $91 $-1 #
coedge $-1 $150 $150 $149 $236 forward $93 $-1 #
coedge $-1 $151 $151 $94 $152 forward $146 $-1 #
edge $-1 $237 0 $237 6.2831853071796004 $151 $238 forward 7 unknown #
loop $-1 $-1 $158 $95 #
plane-surface $-1 -56.733909115878788 12.090165457203362 2.5821062153901124 -0.78801076186113728 0 0.61566146476048833 0.61566146476048833 0 0.78801076186113728 forward_v I I I I #
loop $-1 $-1 $239 $61 #
coedge $-1 $156 $156 $157 $240 reversed $96 $-1 #
coedge $-1 $157 $157 $156 $240 forward $98 $-1 #
coedge $-1 $158 $158 $99 $159 forward $153 $-1 #
edge $-1 $241 0 $241 6.2831853071796004 $158 $242 forward 7 unknown #
face $-1 $243 $244 $24 $-1 $245 reversed single #
loop $-1 $-1 $246 $100 #
plane-surface $-1 -56.733909115878781 0 0 1 0 0 0 0 -1 forward_v I I I I #
coedge $-1 $247 $171 $248 $249 forward $101 $-1 #
coedge $-1 $250 $103 $247 $251 forward $65 $-1 #
coedge $-1 $103 $250 $252 $253 forward $65 $-1 #
coedge $-1 $174 $173 $103 $167 reversed $175 $-1 #
edge $-1 $254 -25.88286570608993 $255 25.88286570608993 $166 $256 forward 7 unknown #
coedge $-1 $105 $104 $257 $258 forward $41 $-1 #
coedge $-1 $259 $260 $104 $170 reversed $244 $-1 #
edge $-1 $177 -56.733909115878781 $261 56.733909115878781 $169 $262 forward 7 unknown #
coedge $-1 $163 $263 $105 $172 reversed $101 $-1 #
edge $-1 $264 -56.733909115878781 $176 56.733909115878781 $171 $265 forward 7 unknown #
coedge $-1 $166 $106 $263 $266 forward $175 $-1 #
coedge $-1 $106 $166 $259 $267 reversed $175 $-1 #
loop $-1 $-1 $173 $243 #
vertex $-1 $107 $268 #
vertex $-1 $107 $269 #
straight-curve $-1 56.733909115878781 0 8.5320958781017424 0 1 0 I I #
face $-1 $270 $271 $25 $-1 $272 forward single #
loop $-1 $-1 $188 $108 #
plane-surface $-1 0 -25.88286570608993 0 0 1 0 0 0 1 forward_v I I I I #
coedge $-1 $273 $274 $275 $276 forward $109 $-1 #
coedge $-1 $275 $111 $113 $190 reversed $69 $-1 #
coedge $-1 $111 $275 $277 $278 reversed $69 $-1 #
coedge $-1 $279 $114 $111 $186 forward $192 $-1 #
edge $-1 $194 1.1893299517204392 $280 5.2916206014943485 $185 $281 forward 7 unknown #
coedge $-1 $113 $112 $273 $282 reversed $44 $-1 #
coedge $-1 $283 $284 $112 $189 forward $180 $-1 #
edge $-1 $285 -56.733909115878781 $193 56.733909115878781 $188 $286 forward 7 unknown #
edge $-1 $287 -56.733909115878781 $194 56.733909115878781 $183 $288 forward 7 unknown #
coedge $-1 $114 $279 $283 $289 forward $192 $-1 #
loop $-1 $-1 $185 $270 #
vertex $-1 $189 $290 #
vertex $-1 $115 $291 #
straight-curve $-1 56.733909115878781 -10.77631360052338 4.4298052283278331 0 1 0 I I #
face $-1 $-1 $208 $26 $-1 $292 forward single #
loop $-1 $-1 $293 $116 #
plane-surface $-1 56.733909115878781 0 0 -1 0 0 0 0 1 forward_v I I I I #
coedge $-1 $294 $295 $296 $297 reversed $117 $-1 #
coedge $-1 $298 $119 $121 $206 forward $73 $-1 #
coedge $-1 $119 $298 $294 $299 forward $73 $-1 #
coedge $-1 $296 $122 $119 $203 forward $208 $-1 #
edge $-1 $210 -11.980748196588248 $300 -0.10941726061511403 $202 $301 forward 7 unknown #
coedge $-1 $302 $303 $120 $205 forward $197 $-1 #
edge $-1 $304 -78.3447594259395 $209 -72.394769763227814 $204 $305 forward 7 unknown #
edge $-1 $210 105.91717304937596 $304 113.4678182317576 $121 $306 forward 7 unknown #
coedge $-1 $122 $296 $302 $307 forward $208 $-1 #
loop $-1 $-1 $296 $196 #
vertex $-1 $205 $308 #
vertex $-1 $123 $309 #
straight-curve $-1 38.145003915833186 18.025830925189929 8.5320958781017424 -1 0 0 I I #
coedge $-1 $212 $212 $-1 $310 reversed $126 $-1 #
edge $-1 $311 0 $311 6.2831853071796004 $127 $312 forward 7 unknown #
vertex $-1 $130 $313 #
ellipse-curve $-1 54.409588479442874 9.5463088280662589 5.5571010467459061 0.78801076186113728 0 0.61566146476048833 0.61566146476048833 0 -0.78801076186113728 1 I I #
coedge $-1 $216 $216 $-1 $314 reversed $133 $-1 #
edge $-1 $315 0 $315 6.2831853071796004 $134 $316 forward 7 unknown #
vertex $-1 $137 $317 #
ellipse-curve $-1 54.409588479442874 14.634022086340458 5.5571010467459061 0.78801076186113728 0 0.61566146476048833 0.61566146476048833 0 -0.78801076186113728 1 I I #
face $-1 $-1 $318 $29 $-1 $319 reversed single #
loop $-1 $-1 $144 $138 #
plane-surface $-1 0 0 8.5320958781017424 0 0 1 1 0 0 forward_v I I I I #
coedge $-1 $320 $321 $322 $323 reversed $139 $-1 #
coedge $-1 $324 $141 $143 $230 forward $87 $-1 #
coedge $-1 $141 $324 $320 $325 forward $87 $-1 #
coedge $-1 $322 $144 $141 $227 forward $221 $-1 #
edge $-1 $233 0.10941726061511403 $326 11.980748196588248 $226 $327 forward 7 unknown #
coedge $-1 $328 $329 $142 $229 forward $318 $-1 #
edge $-1 $330 -33.637828480175287 $232 -27.687838817463664 $228 $331 forward 7 unknown #
edge $-1 $233 -7.5506451823815741 $330 -1.1373479346495045e-014 $143 $332 forward 7 unknown #
coedge $-1 $144 $322 $328 $333 forward $221 $-1 #
vertex $-1 $229 $334 #
vertex $-1 $145 $335 #
straight-curve $-1 -73.073885503703551 6.1544999892167951 8.5320958781017424 1 0 0 I I #
coedge $-1 $235 $235 $-1 $336 reversed $148 $-1 #
edge $-1 $337 0 $337 6.2831853071796004 $149 $338 forward 7 unknown #
vertex $-1 $152 $339 #
ellipse-curve $-1 -54.409588479442903 9.5463088280662589 5.5571010467459327 -0.78801076186113728 0 0.61566146476048833 0.61566146476048833 0 0.78801076186113728 1 I I #
coedge $-1 $239 $239 $-1 $340 reversed $155 $-1 #
edge $-1 $341 0 $341 6.2831853071796004 $156 $342 forward 7 unknown #
vertex $-1 $159 $343 #
ellipse-curve $-1 -54.409588479442903 14.634022086340458 5.5571010467459327 -0.78801076186113728 0 0.61566146476048833 0.61566146476048833 0 0.78801076186113728 1 I I #
face $-1 $-1 $175 $24 $-1 $344 reversed single #
loop $-1 $-1 $259 $160 #
plane-surface $-1 0 25.88286570608993 0 0 -1 0 0 0 -1 forward_v I I I I #
coedge $-1 $345 $257 $260 $346 forward $161 $-1 #
coedge $-1 $263 $163 $164 $251 reversed $101 $-1 #
coedge $-1 $257 $345 $163 $249 reversed $161 $-1 #
edge $-1 $264 -8.5320958781017424 $347 8.5320958781017424 $248 $348 forward 7 unknown #
coedge $-1 $165 $164 $345 $349 forward $65 $-1 #
edge $-1 $255 -56.733909115878781 $347 56.733909115878781 $247 $350 forward 7 unknown #
coedge $-1 $260 $259 $165 $253 reversed $244 $-1 #
edge $-1 $351 -56.733909115878781 $254 56.733909115878781 $252 $352 forward 7 unknown #
vertex $-1 $167 $353 #
vertex $-1 $266 $354 #
straight-curve $-1 56.733909115878781 0 -8.5320958781017424 0 -1 0 I I #
coedge $-1 $246 $248 $168 $258 reversed $161 $-1 #
edge $-1 $261 -25.88286570608993 $264 25.88286570608993 $257 $355 forward 7 unknown #
coedge $-1 $252 $169 $174 $267 forward $244 $-1 #
coedge $-1 $169 $252 $246 $346 reversed $244 $-1 #
vertex $-1 $170 $356 #
straight-curve $-1 0 25.88286570608993 8.5320958781017424 -1 0 0 I I #
coedge $-1 $171 $247 $173 $266 reversed $101 $-1 #
vertex $-1 $258 $357 #
straight-curve $-1 0 -25.88286570608993 8.5320958781017424 1 0 0 I I #
edge $-1 $176 -8.5320958781017424 $255 8.5320958781017424 $173 $358 forward 7 unknown #
edge $-1 $177 -8.5320958781017424 $254 8.5320958781017424 $174 $359 forward 7 unknown #
point $-1 56.733909115878781 -25.88286570608993 8.5320958781017424 #
point $-1 56.733909115878781 25.88286570608993 8.5320958781017424 #
face $-1 $-1 $192 $25 $-1 $360 reversed single #
loop $-1 $-1 $277 $179 #
plane-surface $-1 0 0 8.5320958781017424 0 0 1 1 0 0 forward_v I I I I #
coedge $-1 $361 $182 $187 $282 forward $109 $-1 #
coedge $-1 $182 $361 $362 $363 reversed $109 $-1 #
coedge $-1 $184 $183 $182 $276 reversed $69 $-1 #
edge $-1 $364 -5.2916206014943485 $287 -1.1893299517204392 $182 $365 forward 7 unknown #
coedge $-1 $362 $366 $184 $278 forward $271 $-1 #
edge $-1 $280 -56.733909115878781 $364 56.733909115878781 $277 $367 forward 7 unknown #
coedge $-1 $191 $185 $366 $368 reversed $192 $-1 #
vertex $-1 $186 $369 #
straight-curve $-1 56.733909115878781 -17.222388696003591 3.2404752766073939 0 0 1 I I #
edge $-1 $287 6.4460750954802108 $285 15.10655210556655 $273 $370 forward 7 unknown #
coedge $-1 $371 $188 $191 $289 reversed $180 $-1 #
coedge $-1 $188 $371 $361 $372 forward $180 $-1 #
vertex $-1 $189 $373 #
straight-curve $-1 0 -25.88286570608993 4.4298052283278331 1 0 0 I I #
vertex $-1 $282 $374 #
straight-curve $-1 0 -17.222388696003591 4.4298052283278331 1 0 0 I I #
edge $-1 $375 -8.5320958781017424 $193 -4.4298052283278331 $191 $376 forward 7 unknown #
point $-1 56.733909115878781 -25.88286570608993 4.4298052283278331 #
point $-1 56.733909115878781 -17.222388696003591 4.4298052283278331 #
plane-surface $-1 0 0 8.5320958781017424 0 0 1 1 0 0 forward_v I I I I #
coedge $-1 $303 $302 $295 $377 forward $197 $-1 #
coedge $-1 $295 $199 $201 $299 reversed $117 $-1 #
coedge $-1 $199 $294 $293 $377 reversed $117 $-1 #
coedge $-1 $207 $202 $199 $297 forward $208 $-1 #
edge $-1 $300 13.940263927173802 $378 18.588905200045595 $296 $379 forward 7 unknown #
coedge $-1 $201 $200 $303 $380 reversed $73 $-1 #
edge $-1 $381 -113.4678182317576 $300 -105.91717304937596 $294 $382 forward 7 unknown #
vertex $-1 $203 $383 #
straight-curve $-1 52.085267843006982 6.0450827286016811 8.5320958781017495 0 -1 0 I I #
coedge $-1 $293 $204 $207 $307 reversed $197 $-1 #
coedge $-1 $204 $293 $298 $380 forward $197 $-1 #
vertex $-1 $205 $384 #
straight-curve $-1 56.733909115878781 18.025830925189929 80.926865641329556 0 0 1 I I #
straight-curve $-1 -13.123854059861941 18.025830925189929 91.995968106918411 0.61566146476048833 0 -0.78801076186113728 I I #
edge $-1 $378 6.1544999892167951 $209 18.025830925189929 $302 $385 forward 7 unknown #
point $-1 56.733909115878781 18.025830925189929 8.5320958781017424 #
point $-1 52.085267843006989 18.025830925189929 8.5320958781017424 #
edge $-1 $386 1 $386 0 $212 $-1 forward 7 unknown #
vertex $-1 $213 $387 #
ellipse-curve $-1 52.333614084590174 9.5463088280662589 3.9351721358746281 0.78801076186113728 0 0.61566146476048833 0.61566146476048833 0 -0.78801076186113728 1 I I #
point $-1 55.025249944203381 9.5463088280662589 4.7690902848847827 #
edge $-1 $388 1 $388 0 $216 $-1 forward 7 unknown #
vertex $-1 $217 $389 #
ellipse-curve $-1 52.333614084590174 14.634022086340458 3.9351721358746281 0.78801076186113728 0 0.61566146476048833 0.61566146476048833 0 -0.78801076186113728 1 I I #
point $-1 55.025249944203381 14.634022086340458 4.7690902848847827 #
loop $-1 $-1 $228 $220 #
plane-surface $-1 -56.733909115878781 0 0 1 0 0 0 0 -1 forward_v I I I I #
coedge $-1 $321 $223 $225 $325 reversed $139 $-1 #
coedge $-1 $223 $320 $390 $391 reversed $139 $-1 #
coedge $-1 $231 $226 $223 $323 forward $221 $-1 #
edge $-1 $326 -20.988617660696526 $392 -16.33997638782477 $322 $393 forward 7 unknown #
coedge $-1 $225 $224 $329 $394 reversed $87 $-1 #
edge $-1 $395 1.1373479346495045e-014 $326 7.5506451823815741 $320 $396 forward 7 unknown #
vertex $-1 $227 $397 #
straight-curve $-1 -52.085267843007024 6.0450827286016811 8.5320958781017424 0 1 0 I I #
coedge $-1 $390 $228 $231 $333 reversed $318 $-1 #
coedge $-1 $228 $390 $324 $394 forward $318 $-1 #
vertex $-1 $229 $398 #
straight-curve $-1 -56.733909115878781 6.1544999892167951 36.219934695565406 0 0 1 I I #
straight-curve $-1 -56.733909115878788 6.1544999892167951 2.5821062153901124 -0.61566146476048833 0 -0.78801076186113728 I I #
edge $-1 $392 -18.025830925189929 $232 -6.1544999892167951 $328 $399 forward 7 unknown #
point $-1 -56.733909115878781 6.1544999892167951 8.5320958781017424 #
point $-1 -52.085267843007024 6.1544999892167951 8.5320958781017424 #
edge $-1 $400 1 $400 0 $235 $-1 forward 7 unknown #
vertex $-1 $236 $401 #
ellipse-curve $-1 -52.333614084590181 9.5463088280662589 3.9351721358746388 -0.78801076186113728 0 0.61566146476048833 0.61566146476048833 0 0.78801076186113728 1 I I #
point $-1 -53.79392701468241 9.5463088280662589 6.3451118086070686 #
edge $-1 $402 1 $402 0 $239 $-1 forward 7 unknown #
vertex $-1 $240 $403 #
ellipse-curve $-1 -52.333614084590181 14.634022086340458 3.9351721358746388 -0.78801076186113728 0 0.61566146476048833 0.61566146476048833 0 0.78801076186113728 1 I I #
point $-1 -53.79392701468241 14.634022086340458 6.3451118086070686 #
plane-surface $-1 56.733909115878781 0 0 -1 0 0 0 0 1 forward_v I I I I #
coedge $-1 $248 $246 $250 $349 reversed $161 $-1 #
edge $-1 $261 -8.5320958781017424 $351 8.5320958781017424 $260 $404 forward 7 unknown #
vertex $-1 $349 $405 #
straight-curve $-1 -56.733909115878781 -25.88286570608993 0 0 0 -1 I I #
edge $-1 $347 -25.88286570608993 $351 25.88286570608993 $345 $406 forward 7 unknown #
straight-curve $-1 0 -25.88286570608993 -8.5320958781017424 -1 0 0 I I #
vertex $-1 $253 $407 #
straight-curve $-1 0 25.88286570608993 -8.5320958781017424 1 0 0 I I #
point $-1 56.733909115878781 25.88286570608993 -8.5320958781017424 #
point $-1 56.733909115878781 -25.88286570608993 -8.5320958781017424 #
straight-curve $-1 -56.733909115878781 0 8.5320958781017424 0 -1 0 I I #
point $-1 -56.733909115878781 25.88286570608993 8.5320958781017424 #
point $-1 -56.733909115878781 -25.88286570608993 8.5320958781017424 #
straight-curve $-1 56.733909115878781 -25.88286570608993 0 0 0 -1 I I #
straight-curve $-1 56.733909115878781 25.88286570608993 0 0 0 -1 I I #
plane-surface $-1 56.733909115878781 0 0 -1 0 0 0 0 1 forward_v I I I I #
coedge $-1 $274 $273 $284 $372 reversed $109 $-1 #
coedge $-1 $408 $277 $274 $363 forward $271 $-1 #
edge $-1 $364 17.222388696003591 $409 25.88286570608993 $274 $410 forward 7 unknown #
vertex $-1 $363 $411 #
straight-curve $-1 -56.733909115878781 -17.222388696003591 3.2404752766073939 0 0 -1 I I #
coedge $-1 $277 $408 $279 $368 forward $271 $-1 #
straight-curve $-1 0 -17.222388696003591 8.5320958781017424 -1 0 0 I I #
edge $-1 $375 -25.88286570608993 $280 -17.222388696003591 $279 $412 forward 7 unknown #
point $-1 56.733909115878781 -17.222388696003591 8.5320958781017424 #
straight-curve $-1 -56.733909115878781 -10.77631360052338 4.4298052283278331 0 -1 0 I I #
coedge $-1 $284 $283 $408 $413 reversed $180 $-1 #
edge $-1 $409 -8.5320958781017424 $285 -4.4298052283278331 $361 $414 forward 7 unknown #
point $-1 -56.733909115878781 -25.88286570608993 4.4298052283278331 #
point $-1 -56.733909115878781 -17.222388696003591 4.4298052283278331 #
vertex $-1 $368 $415 #
straight-curve $-1 56.733909115878781 -25.88286570608993 0 0 0 -1 I I #
edge $-1 $378 72.394769763227814 $381 78.3447594259395 $293 $416 forward 7 unknown #
vertex $-1 $307 $417 #
straight-curve $-1 38.145003915833186 6.1544999892167951 8.5320958781017424 1 0 0 I I #
edge $-1 $381 0.10941726061511403 $304 11.980748196588248 $303 $418 forward 7 unknown #
vertex $-1 $380 $419 #
straight-curve $-1 -13.123854059861941 6.1544999892167951 91.995968106918411 -0.61566146476048833 0 0.78801076186113728 I I #
point $-1 52.085267843006989 6.1544999892167951 8.5320958781017424 #
point $-1 56.733909115878788 18.025830925189929 2.5821062153900556 #
straight-curve $-1 56.733909115878781 0 8.5320958781017424 0 1 0 I I #
vertex $-1 $310 $420 #
point $-1 52.949275549350666 9.5463088280662589 3.1471613740134909 #
vertex $-1 $314 $421 #
point $-1 52.949275549350666 14.634022086340458 3.1471613740134909 #
coedge $-1 $329 $328 $321 $391 forward $318 $-1 #
edge $-1 $392 27.687838817463664 $395 33.637828480175287 $390 $422 forward 7 unknown #
vertex $-1 $333 $423 #
straight-curve $-1 -73.073885503703551 18.025830925189929 8.5320958781017424 -1 0 0 I I #
edge $-1 $395 -11.980748196588248 $330 -0.10941726061511403 $329 $424 forward 7 unknown #
vertex $-1 $394 $425 #
straight-curve $-1 -56.733909115878788 18.025830925189929 2.5821062153901124 0.61566146476048833 0 0.78801076186113728 I I #
point $-1 -52.085267843007024 18.025830925189929 8.5320958781017424 #
point $-1 -56.733909115878781 6.1544999892167951 2.5821062153901213 #
straight-curve $-1 -56.733909115878781 0 8.5320958781017424 0 -1 0 I I #
vertex $-1 $336 $426 #
point $-1 -51.717952619829695 9.5463088280662589 4.7231828977357759 #
vertex $-1 $340 $427 #
point $-1 -51.717952619829695 14.634022086340458 4.7231828977357759 #
straight-curve $-1 -56.733909115878781 25.88286570608993 0 0 0 -1 I I #
point $-1 -56.733909115878781 -25.88286570608993 -8.5320958781017424 #
straight-curve $-1 -56.733909115878781 0 -8.5320958781017424 0 1 0 I I #
point $-1 -56.733909115878781 25.88286570608993 -8.5320958781017424 #
coedge $-1 $366 $362 $371 $413 forward $271 $-1 #
vertex $-1 $363 $428 #
straight-curve $-1 -56.733909115878781 0 8.5320958781017424 0 -1 0 I I #
point $-1 -56.733909115878781 -17.222388696003591 8.5320958781017424 #
straight-curve $-1 56.733909115878781 0 8.5320958781017424 0 1 0 I I #
edge $-1 $409 -56.733909115878781 $375 56.733909115878781 $371 $429 forward 7 unknown #
straight-curve $-1 -56.733909115878781 -25.88286570608993 0 0 0 -1 I I #
point $-1 56.733909115878781 -25.88286570608993 8.5320958781017424 #
straight-curve $-1 56.733909115878781 6.1544999892167951 80.926865641329556 0 0 -1 I I #
point $-1 56.733909115878781 6.1544999892167951 8.5320958781017424 #
straight-curve $-1 56.733909115878781 6.0450827286016811 2.5821062153900627 0 1 0 I I #
point $-1 56.733909115878788 6.1544999892167951 2.5821062153900556 #
point $-1 51.545603322729043 9.5463088280662589 3.31951067111414 #
point $-1 51.545603322729043 14.634022086340458 3.31951067111414 #
straight-curve $-1 -56.733909115878781 18.025830925189929 36.219934695565406 0 0 -1 I I #
point $-1 -56.733909115878781 18.025830925189929 8.5320958781017424 #
straight-curve $-1 -56.733909115878781 6.0450827286016811 2.5821062153901218 0 -1 0 I I #
point $-1 -56.733909115878781 18.025830925189929 2.5821062153901213 #
point $-1 -51.54560332272905 9.5463088280662589 3.3195106711141507 #
point $-1 -51.54560332272905 14.634022086340458 3.3195106711141507 #
point $-1 -56.733909115878781 -25.88286570608993 8.5320958781017424 #
straight-curve $-1 0 -25.88286570608993 8.5320958781017424 1 0 0 I I #
End-of-ACIS-data 