500 0 9 0           
7 Unknown 11 ACIS 5.0 NT 24 Fri Mar 26 20:35:19 1999 
-1 9.9999999999999995e-007 1e-010 
body $-1 $9 $-1 $10 #
body $-1 $11 $-1 $12 #
body $-1 $13 $-1 $14 #
body $-1 $15 $-1 $16 #
body $-1 $17 $-1 $18 #
body $-1 $19 $-1 $20 #
body $-1 $21 $-1 $22 #
body $-1 $23 $-1 $24 #
body $-1 $25 $-1 $26 #
lump $-1 $-1 $27 $0 #
transform $-1 1 0 0 0 1 0 0 0 1 66.546220282601396 46.494619686995804 21.96685252956788 1 rotate no_reflect no_shear #
lump $-1 $-1 $28 $1 #
transform $-1 1 0 0 0 1 0 0 0 1 66.546220282601396 46.494619686995804 21.96685252956788 1 rotate no_reflect no_shear #
lump $-1 $-1 $29 $2 #
transform $-1 1 0 0 0 1 0 0 0 1 66.546220282601396 46.494619686995804 21.96685252956788 1 rotate no_reflect no_shear #
lump $-1 $-1 $30 $3 #
transform $-1 1 0 0 0 1 0 0 0 1 66.546220282601396 46.494619686995804 21.96685252956788 1 rotate no_reflect no_shear #
lump $-1 $-1 $31 $4 #
transform $-1 1 0 0 0 1 0 0 0 1 66.546220282601396 46.494619686995804 21.96685252956788 1 rotate no_reflect no_shear #
lump $-1 $-1 $32 $5 #
transform $-1 1 0 0 0 1 0 0 0 1 66.546220282601396 46.494619686995804 21.96685252956788 1 rotate no_reflect no_shear #
lump $-1 $-1 $33 $6 #
transform $-1 1 0 0 0 1 0 0 0 1 66.546220282601396 46.494619686995804 21.96685252956788 1 rotate no_reflect no_shear #
lump $-1 $-1 $34 $7 #
transform $-1 1 0 0 0 1 0 0 0 1 66.546220282601396 46.494619686995804 21.96685252956788 1 rotate no_reflect no_shear #
lump $-1 $-1 $35 $8 #
transform $-1 1 0 0 0 1 0 0 0 1 66.546220282601396 46.494619686995804 21.96685252956788 1 rotate no_reflect no_shear #
shell $-1 $-1 $-1 $36 $-1 $9 #
shell $-1 $-1 $-1 $37 $-1 $11 #
shell $-1 $-1 $-1 $38 $-1 $13 #
shell $-1 $-1 $-1 $39 $-1 $15 #
shell $-1 $-1 $-1 $40 $-1 $17 #
shell $-1 $-1 $-1 $41 $-1 $19 #
shell $-1 $-1 $-1 $42 $-1 $21 #
shell $-1 $-1 $-1 $43 $-1 $23 #
shell $-1 $-1 $-1 $44 $-1 $25 #
face $-1 $45 $46 $27 $-1 $47 forward single #
face $-1 $48 $49 $28 $-1 $50 reversed single #
face $-1 $51 $52 $29 $-1 $53 reversed single #
face $-1 $54 $55 $30 $-1 $56 forward single #
face $-1 $57 $58 $31 $-1 $59 reversed single #
face $-1 $60 $61 $32 $-1 $62 forward single #
face $-1 $63 $64 $33 $-1 $65 reversed single #
face $-1 $66 $67 $34 $-1 $68 forward single #
face $-1 $69 $70 $35 $-1 $71 forward single #
face $-1 $72 $73 $27 $-1 $74 reversed single #
loop $-1 $-1 $75 $36 #
plane-surface $-1 0 0 21.96685252956788 0 0 1 1 0 0 forward_v I I I I #
face $-1 $76 $77 $28 $-1 $78 reversed single #
loop $-1 $-1 $79 $37 #
plane-surface $-1 -63.540769781325544 -25.969291994008277 0 0 -1 0 0 0 -1 forward_v I I I I #
face $-1 $80 $81 $29 $-1 $82 reversed single #
loop $-1 $-1 $83 $38 #
plane-surface $-1 -158.99999925216446 -12.650368855179117 112.10191847465941 0 -1 0 0.69465837861970381 0 -0.71933979245794832 forward_v I I I I #
face $-1 $84 $85 $30 $-1 $86 forward single #
loop $-1 $87 $88 $39 #
cone-surface $-1 -62.561007652779274 -19.309830424593699 18.042679487685533 0.69465837861970381 0 -0.71933979245794832 1.0790096886869225 0 1.0419875679295556 1 I I 0 1 1.5 forward I I I I #
face $-1 $89 $90 $31 $-1 $91 reversed single #
loop $-1 $-1 $92 $40 #
plane-surface $-1 -158.99999925216446 10.262663846493759 112.10191847465941 0 1 0 -0.69465837861970381 0 0.71933979245794832 forward_v I I I I #
face $-1 $93 $94 $32 $-1 $95 forward single #
loop $-1 $96 $97 $41 #
cone-surface $-1 -62.561007652779274 16.92212541590834 18.042679487685533 0.69465837861970381 0 -0.71933979245794832 1.0790096886869225 0 1.0419875679295556 1 I I 0 1 1.5 forward I I I I #
face $-1 $98 $99 $33 $-1 $100 reversed single #
loop $-1 $-1 $101 $42 #
plane-surface $-1 37.101949523920368 32.578829486848107 195.71689595311042 0 -1 0 -0.5877852598018023 0 -0.80901698891910034 forward_v I I I I #
face $-1 $102 $103 $34 $-1 $104 forward single #
loop $-1 $105 $106 $43 #
cone-surface $-1 57.139884113716057 20.61987827366373 14.455475534191651 -0.5877852598018023 0 -0.80901698891910034 0.80901698891910034 0 -0.5877852598018023 1 I I 0 1 1 forward I I I I #
face $-1 $107 $108 $35 $-1 $109 forward single #
loop $-1 $110 $111 $44 #
cone-surface $-1 57.139884113716057 27.795249001574362 14.455475534191651 -0.5877852598018023 0 -0.80901698891910034 0.80901698891910034 0 -0.5877852598018023 1 I I 0 1 1 forward I I I I #
face $-1 $112 $113 $27 $-1 $114 reversed single #
loop $-1 $-1 $115 $45 #
plane-surface $-1 0 0 -21.96685252956788 0 0 1 1 0 0 forward_v I I I I #
coedge $-1 $116 $117 $118 $119 forward $46 $-1 #
face $-1 $120 $121 $28 $-1 $122 forward single #
loop $-1 $-1 $123 $48 #
plane-surface $-1 -60.535319280049691 -36.231955840502039 0 -1 0 0 0 0 1 forward_v I I I I #
coedge $-1 $124 $125 $126 $127 reversed $49 $-1 #
face $-1 $128 $129 $29 $-1 $130 reversed single #
loop $-1 $-1 $131 $51 #
plane-surface $-1 -66.546220282601396 -19.309830424593699 16.363229900764608 -0.69465837861970381 0 0.71933979245794832 0.71933979245794832 0 0.69465837861970381 forward_v I I I I #
coedge $-1 $132 $133 $134 $135 reversed $52 $-1 #
face $-1 $-1 $136 $30 $-1 $137 forward single #
loop $-1 $138 $139 $54 #
cone-surface $-1 -60.956161722706305 -19.309830424593699 16.380812915861348 0.69465837861970381 0 -0.71933979245794832 0.53950484434346124 0 0.5209937839647778 1 I I -0.70710678118654757 0.70710678118654757 0.75 forward I I I I #
loop $-1 $-1 $140 $39 #
coedge $-1 $88 $88 $141 $142 reversed $55 $-1 #
face $-1 $143 $144 $31 $-1 $145 reversed single #
loop $-1 $-1 $146 $57 #
plane-surface $-1 -66.546220282601396 16.92212541590834 16.363229900764608 -0.69465837861970381 0 0.71933979245794832 0.71933979245794832 0 0.69465837861970381 forward_v I I I I #
coedge $-1 $147 $148 $149 $150 reversed $58 $-1 #
face $-1 $-1 $151 $32 $-1 $152 forward single #
loop $-1 $153 $154 $60 #
cone-surface $-1 -60.956161722706305 16.92212541590834 16.380812915861348 0.69465837861970381 0 -0.71933979245794832 0.53950484434346124 0 0.5209937839647778 1 I I -0.70710678118654757 0.70710678118654757 0.75 forward I I I I #
loop $-1 $-1 $155 $41 #
coedge $-1 $97 $97 $156 $157 reversed $61 $-1 #
face $-1 $158 $159 $33 $-1 $160 reversed single #
loop $-1 $-1 $161 $63 #
plane-surface $-1 -41.127825231353285 24.207563637619046 88.042850439155728 0.5877852598018023 0 0.80901698891910034 0.80901698891910034 0 -0.5877852598018023 forward_v I I I I #
coedge $-1 $162 $163 $164 $165 reversed $64 $-1 #
face $-1 $-1 $166 $34 $-1 $167 forward single #
loop $-1 $168 $169 $66 #
cone-surface $-1 55.803774509588507 20.61987827366373 12.616478467198768 -0.5877852598018023 0 -0.80901698891910034 0.40450849445955017 0 -0.29389262990090115 1 I I -0.70710678118654746 0.70710678118654746 0.5 forward I I I I #
loop $-1 $-1 $170 $43 #
coedge $-1 $106 $106 $171 $172 reversed $67 $-1 #
face $-1 $-1 $173 $35 $-1 $174 forward single #
loop $-1 $175 $176 $69 #
cone-surface $-1 55.803774509588507 27.795249001574362 12.616478467198768 -0.5877852598018023 0 -0.80901698891910034 0.40450849445955017 0 -0.29389262990090115 1 I I -0.70710678118654746 0.70710678118654746 0.5 forward I I I I #
loop $-1 $-1 $177 $44 #
coedge $-1 $111 $111 $178 $179 reversed $70 $-1 #
face $-1 $180 $181 $27 $-1 $182 reversed single #
loop $-1 $-1 $183 $72 #
plane-surface $-1 0 -46.494619686995804 0 0 1 0 0 0 1 forward_v I I I I #
coedge $-1 $184 $185 $186 $187 forward $73 $-1 #
coedge $-1 $188 $75 $189 $190 forward $46 $-1 #
coedge $-1 $75 $188 $191 $192 forward $46 $-1 #
coedge $-1 $193 $194 $75 $119 reversed $195 $-1 #
edge $-1 $196 -46.494619686995804 $197 46.494619686995804 $118 $198 forward 7 unknown #
face $-1 $199 $200 $28 $-1 $201 reversed single #
loop $-1 $-1 $202 $76 #
plane-surface $-1 0 0 21.96685252956788 0 0 1 1 0 0 forward_v I I I I #
coedge $-1 $203 $204 $205 $206 reversed $77 $-1 #
coedge $-1 $207 $79 $208 $209 forward $49 $-1 #
coedge $-1 $79 $207 $210 $211 reversed $49 $-1 #
coedge $-1 $212 $202 $79 $127 forward $121 $-1 #
edge $-1 $213 28.764934389386919 $214 34.775835391938628 $126 $215 forward 7 unknown #
face $-1 $216 $217 $29 $-1 $218 forward single #
loop $-1 $-1 $134 $80 #
plane-surface $-1 -66.546220282601396 0 0 1 0 0 0 0 -1 forward_v I I I I #
coedge $-1 $219 $220 $221 $222 reversed $81 $-1 #
coedge $-1 $133 $83 $223 $224 reversed $52 $-1 #
coedge $-1 $83 $132 $219 $225 reversed $52 $-1 #
coedge $-1 $221 $226 $83 $135 forward $129 $-1 #
edge $-1 $227 34.084106707761826 $228 39.687729336565098 $134 $229 forward 7 unknown #
loop $-1 $-1 $141 $84 #
plane-surface $-1 -66.546220282601396 -19.309830424593699 16.363229900764608 -0.69465837861970381 0 0.71933979245794832 0.71933979245794832 0 0.69465837861970381 forward_v I I I I #
loop $-1 $-1 $230 $54 #
coedge $-1 $139 $139 $140 $231 reversed $85 $-1 #
coedge $-1 $140 $140 $139 $231 forward $87 $-1 #
coedge $-1 $141 $141 $88 $142 forward $136 $-1 #
edge $-1 $232 0 $232 6.2831853071796004 $141 $233 forward 7 unknown #
face $-1 $234 $235 $31 $-1 $236 reversed single #
loop $-1 $-1 $237 $89 #
plane-surface $-1 -158.99999925216446 23.581586985322922 112.10191847465941 0 -1 0 0.69465837861970381 0 -0.71933979245794832 forward_v I I I I #
coedge $-1 $238 $239 $240 $241 reversed $90 $-1 #
coedge $-1 $148 $92 $242 $243 reversed $58 $-1 #
coedge $-1 $92 $147 $238 $244 reversed $58 $-1 #
coedge $-1 $240 $245 $92 $150 forward $246 $-1 #
edge $-1 $247 12.953779343480832 $248 18.756500310908713 $149 $249 forward 7 unknown #
loop $-1 $-1 $156 $93 #
plane-surface $-1 -66.546220282601396 16.92212541590834 16.363229900764608 -0.69465837861970381 0 0.71933979245794832 0.71933979245794832 0 0.69465837861970381 forward_v I I I I #
loop $-1 $-1 $250 $60 #
coedge $-1 $154 $154 $155 $251 reversed $94 $-1 #
coedge $-1 $155 $155 $154 $251 forward $96 $-1 #
coedge $-1 $156 $156 $97 $157 forward $151 $-1 #
edge $-1 $252 0 $252 6.2831853071796004 $156 $253 forward 7 unknown #
face $-1 $254 $255 $33 $-1 $256 forward single #
loop $-1 $-1 $257 $98 #
plane-surface $-1 37.101949523920368 15.836297788389981 195.71689595311042 0 1 0 0.5877852598018023 0 0.80901698891910034 forward_v I I I I #
coedge $-1 $258 $259 $260 $261 reversed $99 $-1 #
coedge $-1 $163 $101 $262 $263 reversed $64 $-1 #
coedge $-1 $101 $162 $258 $264 reversed $64 $-1 #
coedge $-1 $260 $265 $101 $165 forward $255 $-1 #
edge $-1 $266 -47.995245520641213 $267 -31.267007131323815 $164 $268 forward 7 unknown #
loop $-1 $-1 $171 $102 #
plane-surface $-1 -41.127825231353285 24.207563637619046 88.042850439155728 0.5877852598018023 0 0.80901698891910034 0.80901698891910034 0 -0.5877852598018023 forward_v I I I I #
loop $-1 $-1 $269 $66 #
coedge $-1 $169 $169 $170 $270 reversed $103 $-1 #
coedge $-1 $170 $170 $169 $270 forward $105 $-1 #
coedge $-1 $171 $171 $106 $172 forward $166 $-1 #
edge $-1 $271 0 $271 6.2831853071796004 $171 $272 forward 7 unknown #
loop $-1 $-1 $178 $107 #
plane-surface $-1 -41.127825231353285 24.207563637619046 88.042850439155728 0.5877852598018023 0 0.80901698891910034 0.80901698891910034 0 -0.5877852598018023 forward_v I I I I #
loop $-1 $-1 $273 $69 #
coedge $-1 $176 $176 $177 $274 reversed $108 $-1 #
coedge $-1 $177 $177 $176 $274 forward $110 $-1 #
coedge $-1 $178 $178 $111 $179 forward $173 $-1 #
edge $-1 $275 0 $275 6.2831853071796004 $178 $276 forward 7 unknown #
face $-1 $277 $278 $27 $-1 $279 reversed single #
loop $-1 $-1 $280 $112 #
plane-surface $-1 -66.546220282601396 0 0 1 0 0 0 0 -1 forward_v I I I I #
coedge $-1 $281 $191 $282 $283 forward $113 $-1 #
coedge $-1 $284 $115 $281 $285 forward $73 $-1 #
coedge $-1 $115 $284 $286 $287 forward $73 $-1 #
coedge $-1 $194 $193 $115 $187 reversed $195 $-1 #
edge $-1 $288 -46.494619686995804 $289 46.494619686995804 $186 $290 forward 7 unknown #
coedge $-1 $117 $116 $291 $292 forward $46 $-1 #
coedge $-1 $293 $294 $116 $190 reversed $278 $-1 #
edge $-1 $197 -66.546220282601396 $295 66.546220282601396 $189 $296 forward 7 unknown #
coedge $-1 $183 $297 $117 $192 reversed $113 $-1 #
edge $-1 $298 -66.546220282601396 $196 66.546220282601396 $191 $299 forward 7 unknown #
coedge $-1 $186 $118 $297 $300 forward $195 $-1 #
coedge $-1 $118 $186 $293 $301 reversed $195 $-1 #
loop $-1 $-1 $193 $277 #
vertex $-1 $119 $302 #
vertex $-1 $119 $303 #
straight-curve $-1 66.546220282601396 0 21.96685252956788 0 1 0 I I #
face $-1 $304 $305 $28 $-1 $306 reversed single #
loop $-1 $-1 $210 $120 #
plane-surface $-1 -66.546220282601396 0 0 1 0 0 0 0 -1 forward_v I I I I #
coedge $-1 $126 $307 $204 $308 forward $121 $-1 #
coedge $-1 $208 $123 $309 $310 reversed $77 $-1 #
coedge $-1 $123 $208 $202 $308 reversed $77 $-1 #
coedge $-1 $311 $312 $123 $206 forward $313 $-1 #
edge $-1 $314 -21.96685252956788 $315 21.96685252956788 $205 $316 forward 7 unknown #
coedge $-1 $125 $124 $317 $318 reversed $49 $-1 #
coedge $-1 $204 $203 $124 $209 reversed $77 $-1 #
edge $-1 $213 -21.96685252956788 $319 21.96685252956788 $208 $320 forward 7 unknown #
coedge $-1 $321 $322 $125 $211 forward $200 $-1 #
edge $-1 $214 -21.96685252956788 $323 21.96685252956788 $210 $324 forward 7 unknown #
coedge $-1 $307 $126 $322 $325 forward $121 $-1 #
vertex $-1 $127 $326 #
vertex $-1 $325 $327 #
straight-curve $-1 -31.770384890662772 -25.969291994008277 21.96685252956788 -1 0 0 I I #
face $-1 $-1 $328 $29 $-1 $329 forward single #
loop $-1 $-1 $330 $128 #
plane-surface $-1 -63.540769781325544 -25.969291994008277 0 0 -1 0 0 0 -1 forward_v I I I I #
coedge $-1 $331 $131 $133 $225 forward $81 $-1 #
coedge $-1 $131 $331 $330 $332 reversed $81 $-1 #
coedge $-1 $333 $134 $131 $222 forward $129 $-1 #
edge $-1 $228 2.9954536428822678 $334 16.314376781711427 $221 $335 forward 7 unknown #
coedge $-1 $336 $337 $132 $224 forward $328 $-1 #
edge $-1 $338 -18.756500310908713 $227 -12.953779343480832 $223 $339 forward 7 unknown #
edge $-1 $228 0 $338 8.066731506122121 $133 $340 forward 7 unknown #
coedge $-1 $134 $333 $336 $341 reversed $129 $-1 #
vertex $-1 $341 $342 #
vertex $-1 $135 $343 #
straight-curve $-1 -66.546220282601396 -12.650368855179117 56.050959237329707 0 0 -1 I I #
coedge $-1 $230 $230 $-1 $344 reversed $138 $-1 #
edge $-1 $345 0 $345 6.2831853071796004 $139 $346 forward 7 unknown #
vertex $-1 $142 $347 #
ellipse-curve $-1 -63.64485979888746 -19.309830424593699 19.165041215166244 -0.69465837861970381 0 0.71933979245794832 1.0790096886869225 0 1.0419875679295556 1 I I #
face $-1 $-1 $246 $31 $-1 $348 forward single #
loop $-1 $-1 $349 $143 #
plane-surface $-1 -66.546220282601396 0 0 1 0 0 0 0 -1 forward_v I I I I #
coedge $-1 $350 $351 $352 $353 reversed $144 $-1 #
coedge $-1 $354 $146 $148 $244 forward $90 $-1 #
coedge $-1 $146 $354 $350 $355 forward $90 $-1 #
coedge $-1 $352 $149 $146 $241 forward $246 $-1 #
edge $-1 $248 1.8016011385395885 $356 15.120524277368752 $240 $357 forward 7 unknown #
coedge $-1 $358 $359 $147 $243 forward $235 $-1 #
edge $-1 $360 -39.687729336565098 $247 -34.084106707761826 $242 $361 forward 7 unknown #
edge $-1 $248 -8.066731506122121 $360 0 $148 $362 forward 7 unknown #
coedge $-1 $149 $352 $358 $363 forward $246 $-1 #
loop $-1 $-1 $352 $234 #
vertex $-1 $243 $364 #
vertex $-1 $150 $365 #
straight-curve $-1 -79.499999626082229 10.262663846493759 21.96685252956788 1 0 0 I I #
coedge $-1 $250 $250 $-1 $366 reversed $153 $-1 #
edge $-1 $367 0 $367 6.2831853071796004 $154 $368 forward 7 unknown #
vertex $-1 $157 $369 #
ellipse-curve $-1 -63.64485979888746 16.92212541590834 19.165041215166244 -0.69465837861970381 0 0.71933979245794832 1.0790096886869225 0 1.0419875679295556 1 I I #
face $-1 $-1 $370 $33 $-1 $371 reversed single #
loop $-1 $-1 $164 $158 #
plane-surface $-1 0 0 21.96685252956788 0 0 1 1 0 0 forward_v I I I I #
coedge $-1 $372 $373 $374 $375 reversed $159 $-1 #
coedge $-1 $376 $161 $163 $264 forward $99 $-1 #
coedge $-1 $161 $376 $372 $377 forward $99 $-1 #
coedge $-1 $374 $164 $161 $261 forward $255 $-1 #
edge $-1 $267 -20.475047668038584 $378 -3.7325159695804579 $260 $379 forward 7 unknown #
coedge $-1 $380 $381 $162 $263 forward $370 $-1 #
edge $-1 $382 -88.045372292673136 $266 -75.891595446987338 $262 $383 forward 7 unknown #
edge $-1 $267 112.41520063274176 $382 133.09244056520279 $163 $384 forward 7 unknown #
coedge $-1 $164 $374 $380 $385 forward $255 $-1 #
vertex $-1 $263 $386 #
vertex $-1 $165 $387 #
straight-curve $-1 18.550974761960184 32.578829486848107 21.966852529567888 -1 0 0 I I #
coedge $-1 $269 $269 $-1 $388 reversed $168 $-1 #
edge $-1 $389 0 $389 6.2831853071796004 $169 $390 forward 7 unknown #
vertex $-1 $172 $391 #
ellipse-curve $-1 58.182101087942712 20.61987827366373 15.889964106724983 0.5877852598018023 0 0.80901698891910034 0.80901698891910034 0 -0.5877852598018023 1 I I #
coedge $-1 $273 $273 $-1 $392 reversed $175 $-1 #
edge $-1 $393 0 $393 6.2831853071796004 $176 $394 forward 7 unknown #
vertex $-1 $179 $395 #
ellipse-curve $-1 58.182101087942712 27.795249001574362 15.889964106724983 0.5877852598018023 0 0.80901698891910034 0.80901698891910034 0 -0.5877852598018023 1 I I #
face $-1 $-1 $195 $27 $-1 $396 reversed single #
loop $-1 $-1 $293 $180 #
plane-surface $-1 0 46.494619686995804 0 0 -1 0 0 0 -1 forward_v I I I I #
coedge $-1 $397 $291 $294 $398 forward $181 $-1 #
coedge $-1 $297 $183 $184 $285 reversed $113 $-1 #
coedge $-1 $291 $397 $183 $283 reversed $181 $-1 #
edge $-1 $298 -21.96685252956788 $399 21.96685252956788 $282 $400 forward 7 unknown #
coedge $-1 $185 $184 $397 $401 forward $73 $-1 #
edge $-1 $289 -66.546220282601396 $399 66.546220282601396 $281 $402 forward 7 unknown #
coedge $-1 $294 $293 $185 $287 reversed $278 $-1 #
edge $-1 $403 -66.546220282601396 $288 66.546220282601396 $286 $404 forward 7 unknown #
vertex $-1 $187 $405 #
vertex $-1 $300 $406 #
straight-curve $-1 66.546220282601396 0 -21.96685252956788 0 -1 0 I I #
coedge $-1 $280 $282 $188 $292 reversed $181 $-1 #
edge $-1 $295 -46.494619686995804 $298 46.494619686995804 $291 $407 forward 7 unknown #
coedge $-1 $286 $189 $194 $301 forward $278 $-1 #
coedge $-1 $189 $286 $280 $398 reversed $278 $-1 #
vertex $-1 $190 $408 #
straight-curve $-1 0 46.494619686995804 21.96685252956788 -1 0 0 I I #
coedge $-1 $191 $281 $193 $300 reversed $113 $-1 #
vertex $-1 $292 $409 #
straight-curve $-1 0 -46.494619686995804 21.96685252956788 1 0 0 I I #
edge $-1 $196 -21.96685252956788 $289 21.96685252956788 $193 $410 forward 7 unknown #
edge $-1 $197 -21.96685252956788 $288 21.96685252956788 $194 $411 forward 7 unknown #
point $-1 66.546220282601396 -46.494619686995804 21.96685252956788 #
point $-1 66.546220282601396 46.494619686995804 21.96685252956788 #
face $-1 $-1 $313 $28 $-1 $412 reversed single #
loop $-1 $-1 $309 $199 #
plane-surface $-1 0 0 -21.96685252956788 0 0 1 1 0 0 forward_v I I I I #
coedge $-1 $202 $212 $311 $413 forward $121 $-1 #
edge $-1 $315 -28.378641766744785 $213 -7.8533140737572573 $202 $414 forward 7 unknown #
coedge $-1 $415 $317 $203 $310 forward $305 $-1 #
edge $-1 $319 7.8533140737572573 $314 28.378641766744785 $309 $416 forward 7 unknown #
coedge $-1 $417 $205 $307 $413 reversed $313 $-1 #
coedge $-1 $205 $417 $415 $418 reversed $313 $-1 #
loop $-1 $-1 $205 $304 #
vertex $-1 $418 $419 #
vertex $-1 $206 $420 #
straight-curve $-1 -60.535319280049691 -46.494619686995804 0 0 0 1 I I #
coedge $-1 $309 $421 $207 $318 forward $305 $-1 #
edge $-1 $323 -34.775835391938628 $319 -28.764934389386919 $317 $422 forward 7 unknown #
vertex $-1 $318 $423 #
straight-curve $-1 -60.535319280049691 -25.969291994008277 0 0 0 -1 I I #
coedge $-1 $424 $210 $421 $425 reversed $200 $-1 #
coedge $-1 $210 $424 $212 $325 reversed $200 $-1 #
vertex $-1 $318 $426 #
straight-curve $-1 -66.546220282601396 -25.969291994008277 0 0 0 -1 I I #
edge $-1 $214 25.969291994008277 $427 46.494619686995804 $322 $428 forward 7 unknown #
point $-1 -60.535319280049691 -25.969291994008277 21.96685252956788 #
point $-1 -66.546220282601396 -25.969291994008277 21.96685252956788 #
loop $-1 $-1 $223 $216 #
plane-surface $-1 0 0 21.96685252956788 0 0 1 1 0 0 forward_v I I I I #
coedge $-1 $429 $430 $220 $332 forward $217 $-1 #
coedge $-1 $220 $219 $337 $431 reversed $81 $-1 #
edge $-1 $334 4.6024573060080982 $432 12.669188812130214 $330 $433 forward 7 unknown #
coedge $-1 $226 $221 $430 $434 forward $129 $-1 #
vertex $-1 $434 $435 #
straight-curve $-1 -66.546220282601396 -9.6549152122968493 16.363229900764612 0 -1 0 I I #
coedge $-1 $436 $223 $226 $341 forward $328 $-1 #
coedge $-1 $223 $436 $331 $431 forward $328 $-1 #
vertex $-1 $224 $437 #
straight-curve $-1 -79.499999626082229 -12.650368855179117 21.96685252956788 -1 0 0 I I #
straight-curve $-1 -66.546220282601396 -12.650368855179117 16.363229900764608 0.71933979245794832 0 0.69465837861970381 I I #
edge $-1 $227 12.650368855179117 $438 25.969291994008277 $226 $439 forward 7 unknown #
point $-1 -66.546220282601396 -12.650368855179117 21.96685252956788 #
point $-1 -66.546220282601396 -12.650368855179117 16.363229900764608 #
edge $-1 $440 1 $440 0 $230 $-1 forward 7 unknown #
vertex $-1 $231 $441 #
ellipse-curve $-1 -61.477155506671082 -19.309830424593699 16.92031776020481 -0.69465837861970381 0 0.71933979245794832 1.0790096886869225 0 1.0419875679295556 1 I I #
point $-1 -62.565850110200543 -19.309830424593699 20.207028783095808 #
plane-surface $-1 0 0 21.96685252956788 0 0 1 1 0 0 forward_v I I I I #
coedge $-1 $359 $358 $351 $442 forward $235 $-1 #
coedge $-1 $351 $237 $239 $355 reversed $144 $-1 #
coedge $-1 $237 $350 $349 $442 reversed $144 $-1 #
coedge $-1 $245 $240 $237 $353 forward $246 $-1 #
edge $-1 $356 -18.756500310908713 $443 -12.953779343480832 $352 $444 forward 7 unknown #
coedge $-1 $239 $238 $359 $445 reversed $90 $-1 #
edge $-1 $446 0 $356 8.066731506122121 $350 $447 forward 7 unknown #
vertex $-1 $241 $448 #
straight-curve $-1 -60.743499315173516 8.46106270795417 21.96685252956788 0 1 0 I I #
coedge $-1 $349 $242 $245 $363 reversed $235 $-1 #
coedge $-1 $242 $349 $354 $445 forward $235 $-1 #
vertex $-1 $243 $449 #
straight-curve $-1 -66.546220282601396 10.262663846493759 56.050959237329707 0 0 1 I I #
straight-curve $-1 -66.546220282601396 10.262663846493759 16.363229900764608 -0.71933979245794832 0 -0.69465837861970381 I I #
edge $-1 $443 -23.581586985322922 $247 -10.262663846493759 $358 $450 forward 7 unknown #
point $-1 -66.546220282601396 10.262663846493759 21.96685252956788 #
point $-1 -60.743499315173516 10.262663846493759 21.96685252956788 #
edge $-1 $451 1 $451 0 $250 $-1 forward 7 unknown #
vertex $-1 $251 $452 #
ellipse-curve $-1 -61.477155506671082 16.92212541590834 16.92031776020481 -0.69465837861970381 0 0.71933979245794832 1.0790096886869225 0 1.0419875679295556 1 I I #
point $-1 -62.565850110200543 16.92212541590834 20.207028783095808 #
loop $-1 $-1 $262 $254 #
plane-surface $-1 66.546220282601396 0 0 -1 0 0 0 0 1 forward_v I I I I #
coedge $-1 $373 $257 $259 $377 reversed $159 $-1 #
coedge $-1 $257 $372 $453 $454 reversed $159 $-1 #
coedge $-1 $265 $260 $257 $375 forward $255 $-1 #
edge $-1 $378 31.267007131323815 $455 47.995245520641213 $374 $456 forward 7 unknown #
coedge $-1 $259 $258 $381 $457 reversed $99 $-1 #
edge $-1 $458 -133.09244056520279 $378 -112.41520063274176 $372 $459 forward 7 unknown #
vertex $-1 $261 $460 #
straight-curve $-1 49.817981893283999 12.103781818809523 21.966852529567873 0 -1 0 I I #
coedge $-1 $453 $262 $265 $385 reversed $370 $-1 #
coedge $-1 $262 $453 $376 $457 forward $370 $-1 #
vertex $-1 $263 $461 #
straight-curve $-1 66.546220282601396 32.578829486848107 97.858447976555212 0 0 1 I I #
straight-curve $-1 -41.127825231353285 32.578829486848107 88.042850439155728 0.80901698891910034 0 -0.5877852598018023 I I #
edge $-1 $455 15.836297788389981 $266 32.578829486848107 $380 $462 forward 7 unknown #
point $-1 66.546220282601396 32.578829486848107 21.96685252956788 #
point $-1 49.817981893283999 32.578829486848107 21.966852529567888 #
edge $-1 $463 1 $463 0 $269 $-1 forward 7 unknown #
vertex $-1 $270 $464 #
ellipse-curve $-1 56.09766713948941 20.61987827366373 13.020986961658318 0.5877852598018023 0 0.80901698891910034 0.80901698891910034 0 -0.5877852598018023 1 I I #
point $-1 58.99111807686181 20.61987827366373 15.30217884692318 #
edge $-1 $465 1 $465 0 $273 $-1 forward 7 unknown #
vertex $-1 $274 $466 #
ellipse-curve $-1 56.09766713948941 27.795249001574362 13.020986961658318 0.5877852598018023 0 0.80901698891910034 0.80901698891910034 0 -0.5877852598018023 1 I I #
point $-1 58.99111807686181 27.795249001574362 15.30217884692318 #
plane-surface $-1 66.546220282601396 0 0 -1 0 0 0 0 1 forward_v I I I I #
coedge $-1 $282 $280 $284 $401 reversed $181 $-1 #
edge $-1 $295 -21.96685252956788 $403 21.96685252956788 $294 $467 forward 7 unknown #
vertex $-1 $401 $468 #
straight-curve $-1 -66.546220282601396 -46.494619686995804 0 0 0 -1 I I #
edge $-1 $399 -46.494619686995804 $403 46.494619686995804 $397 $469 forward 7 unknown #
straight-curve $-1 0 -46.494619686995804 -21.96685252956788 -1 0 0 I I #
vertex $-1 $287 $470 #
straight-curve $-1 0 46.494619686995804 -21.96685252956788 1 0 0 I I #
point $-1 66.546220282601396 46.494619686995804 -21.96685252956788 #
point $-1 66.546220282601396 -46.494619686995804 -21.96685252956788 #
straight-curve $-1 -66.546220282601396 0 21.96685252956788 0 -1 0 I I #
point $-1 -66.546220282601396 46.494619686995804 21.96685252956788 #
point $-1 -66.546220282601396 -46.494619686995804 21.96685252956788 #
straight-curve $-1 66.546220282601396 -46.494619686995804 0 0 0 -1 I I #
straight-curve $-1 66.546220282601396 46.494619686995804 0 0 0 -1 I I #
plane-surface $-1 0 -46.494619686995804 0 0 1 0 0 0 1 forward_v I I I I #
edge $-1 $427 -66.546220282601396 $315 -60.535319280049691 $311 $471 forward 7 unknown #
straight-curve $-1 -60.535319280049691 -18.115977920251019 21.96685252956788 0 1 0 I I #
coedge $-1 $421 $309 $312 $418 forward $305 $-1 #
straight-curve $-1 -60.535319280049691 -18.115977920251019 -21.96685252956788 0 -1 0 I I #
coedge $-1 $312 $311 $424 $472 forward $313 $-1 #
edge $-1 $314 60.535319280049691 $473 66.546220282601396 $312 $474 forward 7 unknown #
point $-1 -60.535319280049691 -46.494619686995804 -21.96685252956788 #
point $-1 -60.535319280049691 -46.494619686995804 21.96685252956788 #
coedge $-1 $317 $415 $321 $425 forward $305 $-1 #
straight-curve $-1 -31.770384890662772 -25.969291994008277 -21.96685252956788 1 0 0 I I #
point $-1 -60.535319280049691 -25.969291994008277 -21.96685252956788 #
coedge $-1 $322 $321 $417 $472 reversed $200 $-1 #
edge $-1 $473 -46.494619686995804 $323 -25.969291994008277 $321 $475 forward 7 unknown #
point $-1 -66.546220282601396 -25.969291994008277 -21.96685252956788 #
vertex $-1 $325 $476 #
straight-curve $-1 -66.546220282601396 0 21.96685252956788 0 -1 0 I I #
coedge $-1 $430 $330 $436 $477 reversed $217 $-1 #
coedge $-1 $330 $429 $333 $434 reversed $217 $-1 #
edge $-1 $432 -16.314376781711427 $338 -2.9954536428822678 $337 $478 forward 7 unknown #
vertex $-1 $332 $479 #
straight-curve $-1 -69.856950965901831 -25.969291994008277 13.166094370906613 0.71933979245794832 0 0.69465837861970381 I I #
edge $-1 $334 16.363229900764608 $438 21.96685252956788 $333 $480 forward 7 unknown #
point $-1 -66.546220282601396 -25.969291994008277 16.363229900764608 #
coedge $-1 $337 $336 $429 $477 forward $328 $-1 #
point $-1 -60.743499315173516 -12.650368855179117 21.96685252956788 #
vertex $-1 $434 $481 #
straight-curve $-1 -66.546220282601396 0 21.96685252956788 0 -1 0 I I #
vertex $-1 $344 $482 #
point $-1 -60.398145817984158 -19.309830424593699 17.962305328134367 #
edge $-1 $443 34.084106707761826 $446 39.687729336565098 $349 $483 forward 7 unknown #
vertex $-1 $363 $484 #
straight-curve $-1 -79.499999626082229 23.581586985322922 21.96685252956788 -1 0 0 I I #
edge $-1 $446 -15.120524277368752 $360 -1.8016011385395885 $359 $485 forward 7 unknown #
vertex $-1 $445 $486 #
straight-curve $-1 -66.546220282601396 23.581586985322922 16.363229900764608 0.71933979245794832 0 0.69465837861970381 I I #
point $-1 -60.743499315173516 23.581586985322922 21.96685252956788 #
point $-1 -66.546220282601396 10.262663846493759 16.363229900764608 #
straight-curve $-1 -66.546220282601396 0 21.96685252956788 0 -1 0 I I #
vertex $-1 $366 $487 #
point $-1 -60.398145817984158 16.92212541590834 17.962305328134367 #
coedge $-1 $381 $380 $373 $454 forward $370 $-1 #
edge $-1 $455 75.891595446987338 $458 88.045372292673136 $453 $488 forward 7 unknown #
vertex $-1 $385 $489 #
straight-curve $-1 18.550974761960184 15.836297788389981 21.966852529567888 1 0 0 I I #
edge $-1 $458 3.7325159695804579 $382 20.475047668038584 $381 $490 forward 7 unknown #
vertex $-1 $457 $491 #
straight-curve $-1 -41.127825231353285 15.836297788389981 88.042850439155728 -0.80901698891910034 0 0.5877852598018023 I I #
point $-1 49.817981893283999 15.836297788389981 21.966852529567888 #
point $-1 66.546220282601411 32.578829486848107 9.8130756838820759 #
straight-curve $-1 66.546220282601396 0 21.96685252956788 0 1 0 I I #
vertex $-1 $388 $492 #
point $-1 56.906684128408507 20.61987827366373 12.433201701856515 #
vertex $-1 $392 $493 #
point $-1 56.906684128408507 27.795249001574362 12.433201701856515 #
straight-curve $-1 -66.546220282601396 46.494619686995804 0 0 0 -1 I I #
point $-1 -66.546220282601396 -46.494619686995804 -21.96685252956788 #
straight-curve $-1 -66.546220282601396 0 -21.96685252956788 0 1 0 I I #
point $-1 -66.546220282601396 46.494619686995804 -21.96685252956788 #
straight-curve $-1 0 -46.494619686995804 21.96685252956788 1 0 0 I I #
edge $-1 $427 -21.96685252956788 $473 21.96685252956788 $424 $494 forward 7 unknown #
vertex $-1 $425 $495 #
straight-curve $-1 0 -46.494619686995804 -21.96685252956788 -1 0 0 I I #
straight-curve $-1 -66.546220282601396 0 -21.96685252956788 0 1 0 I I #
point $-1 -66.546220282601396 -46.494619686995804 21.96685252956788 #
edge $-1 $438 -34.775835391938628 $432 -28.973114424510751 $436 $496 forward 7 unknown #
straight-curve $-1 -60.743499315173516 -9.6549152122968493 21.96685252956788 0 1 0 I I #
point $-1 -60.743499315173523 -25.969291994008277 21.96685252956788 #
straight-curve $-1 -66.546220282601396 -25.969291994008277 0 0 0 1 I I #
point $-1 -66.546220282601396 -25.969291994008277 21.96685252956788 #
point $-1 -60.435167938741529 -19.309830424593699 15.841308071517886 #
straight-curve $-1 -66.546220282601396 23.581586985322922 56.050959237329707 0 0 -1 I I #
point $-1 -66.546220282601396 23.581586985322922 21.96685252956788 #
straight-curve $-1 -66.546220282601396 8.46106270795417 16.363229900764612 0 -1 0 I I #
point $-1 -66.546220282601396 23.581586985322922 16.363229900764608 #
point $-1 -60.435167938741529 16.92212541590834 15.841308071517886 #
straight-curve $-1 66.546220282601396 15.836297788389981 97.858447976555212 0 0 -1 I I #
point $-1 66.546220282601396 15.836297788389981 21.96685252956788 #
straight-curve $-1 66.546220282601382 12.103781818809523 9.813075683882083 0 1 0 I I #
point $-1 66.546220282601411 15.836297788389981 9.8130756838820759 #
point $-1 55.509881879687605 20.61987827366373 12.211969972739217 #
point $-1 55.509881879687605 27.795249001574362 12.211969972739217 #
straight-curve $-1 -66.546220282601396 -46.494619686995804 0 0 0 -1 I I #
point $-1 -66.546220282601396 -46.494619686995804 -21.96685252956788 #
straight-curve $-1 -31.770384890662772 -25.969291994008277 21.96685252956788 1 0 0 I I #
End-of-ACIS-data 