500 0 9 0           
7 Unknown 11 ACIS 5.0 NT 24 Fri Mar 26 03:16:16 1999 
-1 9.9999999999999995e-007 1e-010 
body $-1 $9 $-1 $10 #
body $-1 $11 $-1 $12 #
body $-1 $13 $-1 $14 #
body $-1 $15 $-1 $16 #
body $-1 $17 $-1 $18 #
body $-1 $19 $-1 $20 #
body $-1 $21 $-1 $22 #
body $-1 $23 $-1 $24 #
body $-1 $25 $-1 $26 #
lump $-1 $-1 $27 $0 #
transform $-1 1 0 0 0 1 0 0 0 1 72.264168218024224 30.090625860882728 11.308480911852419 1 rotate no_reflect no_shear #
lump $-1 $-1 $28 $1 #
transform $-1 1 0 0 0 1 0 0 0 1 72.264168218024224 30.090625860882728 11.308480911852419 1 rotate no_reflect no_shear #
lump $-1 $-1 $29 $2 #
transform $-1 1 0 0 0 1 0 0 0 1 72.264168218024224 30.090625860882728 11.308480911852419 1 rotate no_reflect no_shear #
lump $-1 $-1 $30 $3 #
transform $-1 1 0 0 0 1 0 0 0 1 72.264168218024224 30.090625860882728 11.308480911852419 1 rotate no_reflect no_shear #
lump $-1 $-1 $31 $4 #
transform $-1 1 0 0 0 1 0 0 0 1 72.264168218024224 30.090625860882728 11.308480911852419 1 rotate no_reflect no_shear #
lump $-1 $-1 $32 $5 #
transform $-1 1 0 0 0 1 0 0 0 1 72.264168218024224 30.090625860882728 11.308480911852419 1 rotate no_reflect no_shear #
lump $-1 $-1 $33 $6 #
transform $-1 1 0 0 0 1 0 0 0 1 72.264168218024224 30.090625860882728 11.308480911852419 1 rotate no_reflect no_shear #
lump $-1 $-1 $34 $7 #
transform $-1 1 0 0 0 1 0 0 0 1 72.264168218024224 30.090625860882728 11.308480911852419 1 rotate no_reflect no_shear #
lump $-1 $-1 $35 $8 #
transform $-1 1 0 0 0 1 0 0 0 1 72.264168218024224 30.090625860882728 11.308480911852419 1 rotate no_reflect no_shear #
shell $-1 $-1 $-1 $36 $-1 $9 #
shell $-1 $-1 $-1 $37 $-1 $11 #
shell $-1 $-1 $-1 $38 $-1 $13 #
shell $-1 $-1 $-1 $39 $-1 $15 #
shell $-1 $-1 $-1 $40 $-1 $17 #
shell $-1 $-1 $-1 $41 $-1 $19 #
shell $-1 $-1 $-1 $42 $-1 $21 #
shell $-1 $-1 $-1 $43 $-1 $23 #
shell $-1 $-1 $-1 $44 $-1 $25 #
face $-1 $45 $46 $27 $-1 $47 forward single #
face $-1 $48 $49 $28 $-1 $50 forward single #
face $-1 $51 $52 $29 $-1 $53 forward single #
face $-1 $54 $55 $30 $-1 $56 reversed single #
face $-1 $57 $58 $31 $-1 $59 forward single #
face $-1 $60 $61 $32 $-1 $62 reversed single #
face $-1 $63 $64 $33 $-1 $65 forward single #
face $-1 $66 $67 $34 $-1 $68 forward single #
face $-1 $69 $70 $35 $-1 $71 forward single #
face $-1 $72 $73 $27 $-1 $74 reversed single #
loop $-1 $-1 $75 $36 #
plane-surface $-1 0 0 11.308480911852419 0 0 1 1 0 0 forward_v I I I I #
face $-1 $76 $77 $28 $-1 $78 reversed single #
loop $-1 $-1 $79 $37 #
plane-surface $-1 0 -26.213846546968711 -1.32694332064065 0 0 1 1 0 0 forward_v I I I I #
face $-1 $80 $81 $29 $-1 $82 reversed single #
loop $-1 $-1 $83 $38 #
plane-surface $-1 0 26.213846546968707 -1.32694332064065 0 0 1 1 0 0 forward_v I I I I #
face $-1 $84 $85 $30 $-1 $86 reversed single #
loop $-1 $-1 $87 $39 #
plane-surface $-1 -150.97994293821483 -14.633515049373575 123.3709991867628 0 -1 0 0.54463904215088732 0 -0.83867056331134215 forward_v I I I I #
face $-1 $88 $89 $31 $-1 $90 forward single #
loop $-1 $91 $92 $40 #
cone-surface $-1 -64.402031623388325 -18.485291141214134 5.4744318266114442 0.54463904215088732 0 -0.83867056331134215 0.83867056331134215 0 0.54463904215088732 1 I I 0 1 1 forward I I I I #
face $-1 $93 $94 $32 $-1 $95 reversed single #
loop $-1 $-1 $96 $41 #
plane-surface $-1 22.816801953311113 -4.4078974945126639 204.60406324011274 0 1 0 0.51503808176128008 0 0.85716729658548041 forward_v I I I I #
face $-1 $97 $98 $33 $-1 $99 forward single #
loop $-1 $100 $101 $42 #
cone-surface $-1 67.823500870704478 -1.9946502650102325 8.3664081371619723 -0.51503808176128008 0 -0.85716729658548041 0.4285836482927402 0 -0.25751904088064004 1 I I 0 1 0.5 forward I I I I #
face $-1 $102 $103 $34 $-1 $104 forward single #
loop $-1 $105 $106 $43 #
cone-surface $-1 67.823500870704478 1.6252205792434147 8.3664081371619723 -0.51503808176128008 0 -0.85716729658548041 0.4285836482927402 0 -0.25751904088064004 1 I I 0 1 0.5 forward I I I I #
face $-1 $107 $108 $35 $-1 $109 forward single #
loop $-1 $110 $111 $44 #
cone-surface $-1 67.823500870704478 5.2450914234970618 8.3664081371619723 -0.51503808176128008 0 -0.85716729658548041 0.4285836482927402 0 -0.25751904088064004 1 I I 0 1 0.5 forward I I I I #
face $-1 $112 $113 $27 $-1 $114 reversed single #
loop $-1 $-1 $115 $45 #
plane-surface $-1 0 0 -11.308480911852419 0 0 1 1 0 0 forward_v I I I I #
coedge $-1 $116 $117 $118 $119 forward $46 $-1 #
face $-1 $120 $121 $28 $-1 $122 reversed single #
loop $-1 $-1 $123 $48 #
plane-surface $-1 0 -26.213846546968711 -7.3304086624185842 0 0 1 1 0 0 forward_v I I I I #
coedge $-1 $124 $125 $126 $127 reversed $49 $-1 #
face $-1 $128 $129 $29 $-1 $130 reversed single #
loop $-1 $-1 $131 $51 #
plane-surface $-1 0 26.213846546968707 -7.3304086624185842 0 0 1 1 0 0 forward_v I I I I #
coedge $-1 $132 $133 $134 $135 reversed $52 $-1 #
face $-1 $136 $137 $30 $-1 $138 reversed single #
loop $-1 $-1 $139 $54 #
plane-surface $-1 -72.264168218024224 -18.485291141214134 2.159337853490868 -0.54463904215088732 0 0.83867056331134215 0.83867056331134215 0 0.54463904215088732 forward_v I I I I #
coedge $-1 $140 $141 $142 $143 reversed $55 $-1 #
face $-1 $-1 $144 $31 $-1 $145 forward single #
loop $-1 $146 $147 $57 #
cone-surface $-1 -63.311797798709833 -18.485291141214134 3.7956189888955745 0.54463904215088732 0 -0.83867056331134215 0.41933528165567108 0 0.27231952107544366 1 I I -0.70710678118654746 0.70710678118654746 0.5 forward I I I I #
loop $-1 $-1 $148 $40 #
coedge $-1 $92 $92 $149 $150 reversed $58 $-1 #
face $-1 $151 $152 $32 $-1 $153 reversed single #
loop $-1 $-1 $154 $60 #
plane-surface $-1 -51.620795204860201 1.6252205792434111 80.719099817228297 0.51503808176128008 0 0.85716729658548041 0.85716729658548041 0 -0.51503808176128008 forward_v I I I I #
coedge $-1 $155 $156 $157 $158 reversed $61 $-1 #
face $-1 $-1 $159 $33 $-1 $160 forward single #
loop $-1 $161 $162 $63 #
cone-surface $-1 67.437222309383515 -1.9946502650102325 7.7235326647228622 -0.51503808176128008 0 -0.85716729658548041 0.2142918241463701 0 -0.12875952044032002 1 I I -0.70710678118654746 0.70710678118654746 0.25 forward I I I I #
loop $-1 $-1 $163 $42 #
coedge $-1 $101 $101 $164 $165 reversed $64 $-1 #
face $-1 $-1 $166 $34 $-1 $167 forward single #
loop $-1 $168 $169 $66 #
cone-surface $-1 67.437222309383515 1.6252205792434147 7.7235326647228622 -0.51503808176128008 0 -0.85716729658548041 0.2142918241463701 0 -0.12875952044032002 1 I I -0.70710678118654746 0.70710678118654746 0.25 forward I I I I #
loop $-1 $-1 $170 $43 #
coedge $-1 $106 $106 $171 $172 reversed $67 $-1 #
face $-1 $-1 $173 $35 $-1 $174 forward single #
loop $-1 $175 $176 $69 #
cone-surface $-1 67.437222309383515 5.2450914234970618 7.7235326647228622 -0.51503808176128008 0 -0.85716729658548041 0.2142918241463701 0 -0.12875952044032002 1 I I -0.70710678118654746 0.70710678118654746 0.25 forward I I I I #
loop $-1 $-1 $177 $44 #
coedge $-1 $111 $111 $178 $179 reversed $70 $-1 #
face $-1 $180 $181 $27 $-1 $182 reversed single #
loop $-1 $-1 $183 $72 #
plane-surface $-1 0 -30.090625860882728 0 0 1 0 0 0 1 forward_v I I I I #
coedge $-1 $184 $185 $186 $187 forward $73 $-1 #
coedge $-1 $188 $75 $189 $190 forward $46 $-1 #
coedge $-1 $75 $188 $191 $192 forward $46 $-1 #
coedge $-1 $193 $194 $75 $119 reversed $195 $-1 #
edge $-1 $196 -30.090625860882728 $197 30.090625860882728 $118 $198 forward 7 unknown #
face $-1 $199 $200 $28 $-1 $201 reversed single #
loop $-1 $-1 $202 $76 #
plane-surface $-1 0 -22.337067233054693 -4.3286759915296171 0 -1 0 0 0 -1 forward_v I I I I #
coedge $-1 $203 $204 $205 $206 reversed $77 $-1 #
coedge $-1 $207 $79 $208 $209 forward $49 $-1 #
coedge $-1 $79 $207 $210 $211 reversed $49 $-1 #
coedge $-1 $212 $213 $79 $127 forward $214 $-1 #
edge $-1 $215 9.2301439595703378 $216 16.983702587398373 $126 $217 forward 7 unknown #
face $-1 $218 $219 $29 $-1 $220 reversed single #
loop $-1 $-1 $221 $80 #
plane-surface $-1 0 22.33706723305469 -4.3286759915296171 0 1 0 0 0 1 forward_v I I I I #
coedge $-1 $222 $223 $224 $225 reversed $81 $-1 #
coedge $-1 $226 $83 $227 $228 reversed $52 $-1 #
coedge $-1 $83 $226 $229 $230 forward $52 $-1 #
coedge $-1 $231 $232 $83 $135 forward $219 $-1 #
edge $-1 $233 -16.983702587398369 $234 -9.2301439595703361 $134 $235 forward 7 unknown #
face $-1 $236 $237 $30 $-1 $238 reversed single #
loop $-1 $-1 $239 $84 #
plane-surface $-1 -150.97994293821483 -22.337067233054693 123.3709991867628 0 1 0 -0.54463904215088732 0 0.83867056331134215 forward_v I I I I #
coedge $-1 $240 $241 $242 $243 reversed $85 $-1 #
coedge $-1 $141 $87 $244 $245 reversed $55 $-1 #
coedge $-1 $87 $140 $240 $246 reversed $55 $-1 #
coedge $-1 $242 $247 $87 $143 forward $237 $-1 #
edge $-1 $248 50.37701868152898 $249 59.526161739890533 $142 $250 forward 7 unknown #
loop $-1 $-1 $149 $88 #
plane-surface $-1 -72.264168218024224 -18.485291141214134 2.159337853490868 -0.54463904215088732 0 0.83867056331134215 0.83867056331134215 0 0.54463904215088732 forward_v I I I I #
loop $-1 $-1 $251 $57 #
coedge $-1 $147 $147 $148 $252 reversed $89 $-1 #
coedge $-1 $148 $148 $147 $252 forward $91 $-1 #
coedge $-1 $149 $149 $92 $150 forward $144 $-1 #
edge $-1 $253 0 $253 6.2831853071796004 $149 $254 forward 7 unknown #
face $-1 $255 $256 $32 $-1 $257 forward single #
loop $-1 $-1 $258 $93 #
plane-surface $-1 22.816801953311113 7.6583386529994861 204.60406324011274 0 -1 0 -0.51503808176128008 0 -0.85716729658548041 forward_v I I I I #
coedge $-1 $259 $260 $261 $262 reversed $94 $-1 #
coedge $-1 $156 $96 $263 $264 reversed $61 $-1 #
coedge $-1 $96 $155 $259 $265 reversed $61 $-1 #
coedge $-1 $261 $266 $96 $158 forward $267 $-1 #
edge $-1 $268 90.993550708203955 $269 96.020528960999386 $157 $270 forward 7 unknown #
loop $-1 $-1 $164 $97 #
plane-surface $-1 -51.620795204860201 1.6252205792434111 80.719099817228297 0.51503808176128008 0 0.85716729658548041 0.85716729658548041 0 -0.51503808176128008 forward_v I I I I #
loop $-1 $-1 $271 $63 #
coedge $-1 $162 $162 $163 $272 reversed $98 $-1 #
coedge $-1 $163 $163 $162 $272 forward $100 $-1 #
coedge $-1 $164 $164 $101 $165 forward $159 $-1 #
edge $-1 $273 0 $273 6.2831853071796004 $164 $274 forward 7 unknown #
loop $-1 $-1 $171 $102 #
plane-surface $-1 -51.620795204860201 1.6252205792434111 80.719099817228297 0.51503808176128008 0 0.85716729658548041 0.85716729658548041 0 -0.51503808176128008 forward_v I I I I #
loop $-1 $-1 $275 $66 #
coedge $-1 $169 $169 $170 $276 reversed $103 $-1 #
coedge $-1 $170 $170 $169 $276 forward $105 $-1 #
coedge $-1 $171 $171 $106 $172 forward $166 $-1 #
edge $-1 $277 0 $277 6.2831853071796004 $171 $278 forward 7 unknown #
loop $-1 $-1 $178 $107 #
plane-surface $-1 -51.620795204860201 1.6252205792434111 80.719099817228297 0.51503808176128008 0 0.85716729658548041 0.85716729658548041 0 -0.51503808176128008 forward_v I I I I #
loop $-1 $-1 $279 $69 #
coedge $-1 $176 $176 $177 $280 reversed $108 $-1 #
coedge $-1 $177 $177 $176 $280 forward $110 $-1 #
coedge $-1 $178 $178 $111 $179 forward $173 $-1 #
edge $-1 $281 0 $281 6.2831853071796004 $178 $282 forward 7 unknown #
face $-1 $283 $284 $27 $-1 $285 reversed single #
loop $-1 $-1 $286 $112 #
plane-surface $-1 -72.264168218024224 0 0 1 0 0 0 0 -1 forward_v I I I I #
coedge $-1 $287 $191 $288 $289 forward $113 $-1 #
coedge $-1 $290 $115 $287 $291 forward $73 $-1 #
coedge $-1 $115 $290 $292 $293 forward $73 $-1 #
coedge $-1 $194 $193 $115 $187 reversed $195 $-1 #
edge $-1 $294 -30.090625860882728 $295 30.090625860882728 $186 $296 forward 7 unknown #
coedge $-1 $117 $116 $297 $298 forward $46 $-1 #
coedge $-1 $299 $300 $116 $190 reversed $284 $-1 #
edge $-1 $197 -72.264168218024224 $301 72.264168218024224 $189 $302 forward 7 unknown #
coedge $-1 $183 $303 $117 $192 reversed $113 $-1 #
edge $-1 $304 -72.264168218024224 $196 72.264168218024224 $191 $305 forward 7 unknown #
coedge $-1 $186 $118 $303 $306 forward $195 $-1 #
coedge $-1 $118 $186 $299 $307 reversed $195 $-1 #
loop $-1 $-1 $193 $283 #
vertex $-1 $119 $308 #
vertex $-1 $119 $309 #
straight-curve $-1 72.264168218024224 0 11.308480911852419 0 1 0 I I #
face $-1 $310 $311 $28 $-1 $312 reversed single #
loop $-1 $-1 $313 $120 #
plane-surface $-1 -72.264168218024224 0 0 1 0 0 0 0 -1 forward_v I I I I #
coedge $-1 $314 $208 $213 $315 reversed $121 $-1 #
coedge $-1 $316 $123 $317 $318 reversed $77 $-1 #
coedge $-1 $123 $316 $314 $319 forward $77 $-1 #
coedge $-1 $213 $212 $123 $206 forward $214 $-1 #
edge $-1 $320 -16.983702587398373 $321 -9.2301439595703378 $205 $322 forward 7 unknown #
coedge $-1 $125 $124 $313 $323 reversed $49 $-1 #
coedge $-1 $202 $324 $124 $209 reversed $121 $-1 #
edge $-1 $215 -72.264168218024224 $325 72.264168218024224 $208 $326 forward 7 unknown #
coedge $-1 $327 $328 $125 $211 forward $311 $-1 #
edge $-1 $216 -72.264168218024224 $329 72.264168218024224 $210 $330 forward 7 unknown #
coedge $-1 $205 $126 $328 $331 forward $214 $-1 #
coedge $-1 $126 $205 $202 $315 forward $214 $-1 #
loop $-1 $-1 $126 $310 #
vertex $-1 $127 $332 #
vertex $-1 $331 $333 #
straight-curve $-1 72.264168218024224 -13.106923273484355 -1.32694332064065 0 -1 0 I I #
face $-1 $334 $335 $29 $-1 $336 reversed single #
loop $-1 $-1 $134 $128 #
plane-surface $-1 72.264168218024224 0 0 -1 0 0 0 0 1 forward_v I I I I #
coedge $-1 $337 $229 $338 $339 reversed $129 $-1 #
coedge $-1 $340 $131 $337 $341 forward $81 $-1 #
coedge $-1 $131 $340 $342 $343 reversed $81 $-1 #
coedge $-1 $232 $231 $131 $225 forward $219 $-1 #
edge $-1 $344 9.2301439595703361 $345 16.983702587398369 $224 $346 forward 7 unknown #
coedge $-1 $133 $132 $347 $348 reversed $52 $-1 #
coedge $-1 $349 $350 $132 $228 forward $351 $-1 #
edge $-1 $352 -72.264168218024224 $233 72.264168218024224 $227 $353 forward 7 unknown #
coedge $-1 $221 $354 $133 $230 reversed $129 $-1 #
edge $-1 $355 -72.264168218024224 $234 72.264168218024224 $229 $356 forward 7 unknown #
coedge $-1 $224 $134 $354 $357 forward $219 $-1 #
coedge $-1 $134 $224 $349 $358 reversed $219 $-1 #
vertex $-1 $358 $359 #
vertex $-1 $135 $360 #
straight-curve $-1 72.264168218024224 13.106923273484353 -1.32694332064065 0 -1 0 I I #
face $-1 $-1 $361 $30 $-1 $362 forward single #
loop $-1 $-1 $142 $136 #
plane-surface $-1 -72.264168218024224 0 0 1 0 0 0 0 -1 forward_v I I I I #
coedge $-1 $363 $364 $365 $366 reversed $137 $-1 #
coedge $-1 $367 $139 $141 $246 forward $85 $-1 #
coedge $-1 $139 $367 $363 $368 forward $85 $-1 #
coedge $-1 $365 $142 $139 $243 forward $237 $-1 #
edge $-1 $249 5.3908694787665077 $369 13.094421662447626 $242 $370 forward 7 unknown #
coedge $-1 $371 $372 $140 $245 forward $361 $-1 #
edge $-1 $373 -17.314247833148926 $248 -3.2258032510831924 $244 $374 forward 7 unknown #
edge $-1 $249 0 $373 16.798544265629172 $141 $375 forward 7 unknown #
coedge $-1 $142 $365 $371 $376 reversed $237 $-1 #
vertex $-1 $376 $377 #
vertex $-1 $143 $378 #
straight-curve $-1 -72.264168218024224 -14.633515049373575 61.685499593381401 0 0 -1 I I #
coedge $-1 $251 $251 $-1 $379 reversed $146 $-1 #
edge $-1 $380 0 $380 6.2831853071796004 $147 $381 forward 7 unknown #
vertex $-1 $150 $382 #
ellipse-curve $-1 -65.219945926991358 -18.485291141214134 6.7339093826716399 -0.54463904215088732 0 0.83867056331134215 0.83867056331134215 0 0.54463904215088732 1 I I #
face $-1 $-1 $267 $32 $-1 $383 reversed single #
loop $-1 $-1 $384 $151 #
plane-surface $-1 0 0 11.308480911852419 0 0 1 1 0 0 forward_v I I I I #
coedge $-1 $385 $386 $387 $388 reversed $152 $-1 #
coedge $-1 $389 $154 $156 $265 forward $94 $-1 #
coedge $-1 $154 $389 $385 $390 forward $94 $-1 #
coedge $-1 $387 $157 $154 $262 forward $267 $-1 #
edge $-1 $269 -5.2205077841343694 $391 6.8457283633777806 $261 $392 forward 7 unknown #
coedge $-1 $393 $394 $155 $264 forward $256 $-1 #
edge $-1 $395 52.489470628490508 $268 60.855767241368667 $263 $396 forward 7 unknown #
edge $-1 $269 -144.52833643604845 $395 -134.76793534957994 $156 $397 forward 7 unknown #
coedge $-1 $157 $387 $393 $398 reversed $267 $-1 #
loop $-1 $-1 $387 $255 #
vertex $-1 $398 $399 #
vertex $-1 $158 $400 #
straight-curve $-1 72.264168218024224 -4.4078974945126639 102.30203162005637 0 0 -1 I I #
coedge $-1 $271 $271 $-1 $401 reversed $161 $-1 #
edge $-1 $402 0 $402 6.2831853071796004 $162 $403 forward 7 unknown #
vertex $-1 $165 $404 #
ellipse-curve $-1 68.08101991158513 -1.9946502650102325 8.7949917854547248 0.51503808176128008 0 0.85716729658548041 0.4285836482927402 0 -0.25751904088064004 1 I I #
coedge $-1 $275 $275 $-1 $405 reversed $168 $-1 #
edge $-1 $406 0 $406 6.2831853071796004 $169 $407 forward 7 unknown #
vertex $-1 $172 $408 #
ellipse-curve $-1 68.08101991158513 1.6252205792434147 8.7949917854547248 0.51503808176128008 0 0.85716729658548041 0.4285836482927402 0 -0.25751904088064004 1 I I #
coedge $-1 $279 $279 $-1 $409 reversed $175 $-1 #
edge $-1 $410 0 $410 6.2831853071796004 $176 $411 forward 7 unknown #
vertex $-1 $179 $412 #
ellipse-curve $-1 68.08101991158513 5.2450914234970618 8.7949917854547248 0.51503808176128008 0 0.85716729658548041 0.4285836482927402 0 -0.25751904088064004 1 I I #
face $-1 $-1 $195 $27 $-1 $413 reversed single #
loop $-1 $-1 $299 $180 #
plane-surface $-1 0 30.090625860882728 0 0 -1 0 0 0 -1 forward_v I I I I #
coedge $-1 $414 $297 $300 $415 forward $181 $-1 #
coedge $-1 $303 $183 $184 $291 reversed $113 $-1 #
coedge $-1 $297 $414 $183 $289 reversed $181 $-1 #
edge $-1 $304 -11.308480911852419 $416 11.308480911852419 $288 $417 forward 7 unknown #
coedge $-1 $185 $184 $414 $418 forward $73 $-1 #
edge $-1 $295 -72.264168218024224 $416 72.264168218024224 $287 $419 forward 7 unknown #
coedge $-1 $300 $299 $185 $293 reversed $284 $-1 #
edge $-1 $420 -72.264168218024224 $294 72.264168218024224 $292 $421 forward 7 unknown #
vertex $-1 $187 $422 #
vertex $-1 $306 $423 #
straight-curve $-1 72.264168218024224 0 -11.308480911852419 0 -1 0 I I #
coedge $-1 $286 $288 $188 $298 reversed $181 $-1 #
edge $-1 $301 -30.090625860882728 $304 30.090625860882728 $297 $424 forward 7 unknown #
coedge $-1 $292 $189 $194 $307 forward $284 $-1 #
coedge $-1 $189 $292 $286 $415 reversed $284 $-1 #
vertex $-1 $190 $425 #
straight-curve $-1 0 30.090625860882728 11.308480911852419 -1 0 0 I I #
coedge $-1 $191 $287 $193 $306 reversed $113 $-1 #
vertex $-1 $298 $426 #
straight-curve $-1 0 -30.090625860882728 11.308480911852419 1 0 0 I I #
edge $-1 $196 -11.308480911852419 $295 11.308480911852419 $193 $427 forward 7 unknown #
edge $-1 $197 -11.308480911852419 $294 11.308480911852419 $194 $428 forward 7 unknown #
point $-1 72.264168218024224 -30.090625860882728 11.308480911852419 #
point $-1 72.264168218024224 30.090625860882728 11.308480911852419 #
face $-1 $-1 $214 $28 $-1 $429 reversed single #
loop $-1 $-1 $210 $199 #
plane-surface $-1 0 -30.090625860882728 0 0 1 0 0 0 1 forward_v I I I I #
coedge $-1 $430 $431 $207 $323 forward $200 $-1 #
coedge $-1 $324 $202 $204 $319 reversed $121 $-1 #
edge $-1 $321 -5.1660706666537752 $215 0.83739467512415855 $213 $432 forward 7 unknown #
coedge $-1 $204 $203 $433 $434 reversed $77 $-1 #
coedge $-1 $328 $327 $203 $318 forward $311 $-1 #
edge $-1 $435 -72.264168218024224 $320 72.264168218024224 $317 $436 forward 7 unknown #
edge $-1 $437 -72.264168218024224 $321 72.264168218024224 $314 $438 forward 7 unknown #
vertex $-1 $318 $439 #
vertex $-1 $206 $440 #
straight-curve $-1 72.264168218024224 -13.106923273484355 -7.3304086624185842 0 1 0 I I #
edge $-1 $329 -16.983702587398373 $325 -9.2301439595703378 $313 $441 forward 7 unknown #
coedge $-1 $208 $314 $430 $442 reversed $121 $-1 #
vertex $-1 $323 $443 #
straight-curve $-1 0 -22.337067233054693 -1.32694332064065 -1 0 0 I I #
coedge $-1 $317 $210 $431 $444 forward $311 $-1 #
coedge $-1 $210 $317 $212 $331 reversed $311 $-1 #
vertex $-1 $444 $445 #
straight-curve $-1 0 -30.090625860882728 -1.32694332064065 -1 0 0 I I #
edge $-1 $216 1.32694332064065 $320 7.3304086624185842 $212 $446 forward 7 unknown #
point $-1 72.264168218024224 -22.337067233054693 -1.32694332064065 #
point $-1 72.264168218024224 -30.090625860882728 -1.32694332064065 #
face $-1 $-1 $351 $29 $-1 $447 reversed single #
loop $-1 $-1 $347 $218 #
plane-surface $-1 -72.264168218024224 0 0 1 0 0 0 0 -1 forward_v I I I I #
coedge $-1 $354 $221 $222 $341 reversed $129 $-1 #
coedge $-1 $347 $448 $221 $339 forward $335 $-1 #
edge $-1 $449 -5.1660706666537752 $355 0.83739467512415855 $338 $450 forward 7 unknown #
coedge $-1 $223 $222 $448 $451 reversed $81 $-1 #
edge $-1 $344 -72.264168218024224 $449 72.264168218024224 $337 $452 forward 7 unknown #
coedge $-1 $350 $349 $223 $343 forward $351 $-1 #
edge $-1 $345 -72.264168218024224 $453 72.264168218024224 $342 $454 forward 7 unknown #
vertex $-1 $225 $455 #
vertex $-1 $343 $456 #
straight-curve $-1 72.264168218024224 13.106923273484353 -7.3304086624185842 0 1 0 I I #
coedge $-1 $457 $338 $226 $348 forward $335 $-1 #
edge $-1 $355 9.2301439595703361 $352 16.983702587398369 $347 $458 forward 7 unknown #
coedge $-1 $342 $227 $232 $358 forward $351 $-1 #
coedge $-1 $227 $342 $457 $459 reversed $351 $-1 #
loop $-1 $-1 $227 $334 #
vertex $-1 $459 $460 #
straight-curve $-1 0 30.090625860882728 -1.32694332064065 1 0 0 I I #
coedge $-1 $229 $337 $231 $357 reversed $129 $-1 #
vertex $-1 $348 $461 #
straight-curve $-1 0 22.33706723305469 -1.32694332064065 1 0 0 I I #
edge $-1 $234 -0.83739467512415855 $344 5.1660706666537752 $231 $462 forward 7 unknown #
edge $-1 $233 1.32694332064065 $345 7.3304086624185842 $232 $463 forward 7 unknown #
point $-1 72.264168218024224 30.090625860882724 -1.32694332064065 #
point $-1 72.264168218024224 22.33706723305469 -1.32694332064065 #
loop $-1 $-1 $244 $236 #
plane-surface $-1 0 0 11.308480911852419 0 0 1 1 0 0 forward_v I I I I #
coedge $-1 $364 $239 $241 $368 reversed $137 $-1 #
coedge $-1 $239 $363 $464 $465 reversed $137 $-1 #
coedge $-1 $247 $242 $239 $366 forward $237 $-1 #
edge $-1 $369 -59.526161739890533 $466 -50.37701868152898 $365 $467 forward 7 unknown #
coedge $-1 $241 $240 $372 $468 reversed $85 $-1 #
edge $-1 $469 -16.798544265629172 $369 0 $363 $470 forward 7 unknown #
vertex $-1 $243 $471 #
straight-curve $-1 -72.264168218024224 -9.2426455706070669 2.1593378534908685 0 -1 0 I I #
coedge $-1 $464 $244 $247 $376 forward $361 $-1 #
coedge $-1 $244 $464 $367 $468 forward $361 $-1 #
vertex $-1 $245 $472 #
straight-curve $-1 -75.489971469107417 -14.633515049373575 11.308480911852421 -1 0 0 I I #
straight-curve $-1 -72.264168218024224 -14.633515049373575 2.159337853490868 0.83867056331134215 0 0.54463904215088732 I I #
edge $-1 $248 14.633515049373575 $466 22.337067233054693 $247 $473 forward 7 unknown #
point $-1 -72.264168218024224 -14.633515049373575 11.308480911852419 #
point $-1 -72.264168218024224 -14.633515049373575 2.159337853490868 #
edge $-1 $474 1 $474 0 $251 $-1 forward 7 unknown #
vertex $-1 $252 $475 #
ellipse-curve $-1 -63.584117319785278 -18.485291141214134 4.2149542705512459 -0.54463904215088732 0 0.83867056331134215 0.83867056331134215 0 0.54463904215088732 1 I I #
point $-1 -64.381275363680018 -18.485291141214134 7.2785484248225298 #
plane-surface $-1 72.264168218024224 0 0 -1 0 0 0 0 1 forward_v I I I I #
coedge $-1 $394 $393 $386 $476 forward $256 $-1 #
coedge $-1 $386 $258 $260 $390 reversed $152 $-1 #
coedge $-1 $258 $385 $384 $476 reversed $152 $-1 #
coedge $-1 $266 $261 $258 $388 forward $267 $-1 #
edge $-1 $391 -96.020528960999386 $477 -90.993550708203955 $387 $478 forward 7 unknown #
coedge $-1 $260 $259 $394 $479 reversed $94 $-1 #
edge $-1 $480 134.76793534957994 $391 144.52833643604845 $385 $481 forward 7 unknown #
vertex $-1 $262 $482 #
straight-curve $-1 72.264168218024224 0.81261028962170556 6.28150265905699 0 1 0 I I #
coedge $-1 $384 $263 $266 $398 forward $256 $-1 #
coedge $-1 $263 $384 $389 $479 forward $256 $-1 #
vertex $-1 $264 $483 #
straight-curve $-1 11.408400976655557 -4.4078974945126639 11.308480911852413 1 0 0 I I #
straight-curve $-1 -51.620795204860201 -4.4078974945126639 80.719099817228297 -0.85716729658548041 0 0.51503808176128008 I I #
edge $-1 $268 -4.4078974945126639 $477 7.6583386529994861 $266 $484 forward 7 unknown #
point $-1 72.264168218024224 -4.4078974945126639 11.308480911852419 #
point $-1 72.264168218024238 -4.4078974945126639 6.2815026590569829 #
edge $-1 $485 1 $485 0 $271 $-1 forward 7 unknown #
vertex $-1 $272 $486 #
ellipse-curve $-1 67.565981829823841 -1.9946502650102325 7.9378244888692322 0.51503808176128008 0 0.85716729658548041 0.4285836482927402 0 -0.25751904088064004 1 I I #
point $-1 68.50960355987786 -1.9946502650102325 8.5374727445740728 #
edge $-1 $487 1 $487 0 $275 $-1 forward 7 unknown #
vertex $-1 $276 $488 #
ellipse-curve $-1 67.565981829823841 1.6252205792434147 7.9378244888692322 0.51503808176128008 0 0.85716729658548041 0.4285836482927402 0 -0.25751904088064004 1 I I #
point $-1 68.50960355987786 1.6252205792434147 8.5374727445740728 #
edge $-1 $489 1 $489 0 $279 $-1 forward 7 unknown #
vertex $-1 $280 $490 #
ellipse-curve $-1 67.565981829823841 5.2450914234970618 7.9378244888692322 0.51503808176128008 0 0.85716729658548041 0.4285836482927402 0 -0.25751904088064004 1 I I #
point $-1 68.50960355987786 5.2450914234970618 8.5374727445740728 #
plane-surface $-1 72.264168218024224 0 0 -1 0 0 0 0 1 forward_v I I I I #
coedge $-1 $288 $286 $290 $418 reversed $181 $-1 #
edge $-1 $301 -11.308480911852419 $420 11.308480911852419 $300 $491 forward 7 unknown #
vertex $-1 $418 $492 #
straight-curve $-1 -72.264168218024224 -30.090625860882728 0 0 0 -1 I I #
edge $-1 $416 -30.090625860882728 $420 30.090625860882728 $414 $493 forward 7 unknown #
straight-curve $-1 0 -30.090625860882728 -11.308480911852419 -1 0 0 I I #
vertex $-1 $293 $494 #
straight-curve $-1 0 30.090625860882728 -11.308480911852419 1 0 0 I I #
point $-1 72.264168218024224 30.090625860882728 -11.308480911852419 #
point $-1 72.264168218024224 -30.090625860882728 -11.308480911852419 #
straight-curve $-1 -72.264168218024224 0 11.308480911852419 0 -1 0 I I #
point $-1 -72.264168218024224 30.090625860882728 11.308480911852419 #
point $-1 -72.264168218024224 -30.090625860882728 11.308480911852419 #
straight-curve $-1 72.264168218024224 -30.090625860882728 0 0 0 -1 I I #
straight-curve $-1 72.264168218024224 30.090625860882728 0 0 0 -1 I I #
plane-surface $-1 72.264168218024224 0 0 -1 0 0 0 0 1 forward_v I I I I #
coedge $-1 $433 $313 $324 $442 forward $200 $-1 #
coedge $-1 $313 $433 $327 $444 reversed $200 $-1 #
straight-curve $-1 72.264168218024224 -22.337067233054693 -2.1643379957648086 0 0 1 I I #
coedge $-1 $431 $430 $316 $434 forward $200 $-1 #
edge $-1 $437 9.2301439595703378 $435 16.983702587398373 $433 $495 forward 7 unknown #
vertex $-1 $318 $496 #
straight-curve $-1 0 -30.090625860882728 -7.3304086624185842 1 0 0 I I #
vertex $-1 $434 $497 #
straight-curve $-1 0 -22.337067233054693 -7.3304086624185842 1 0 0 I I #
point $-1 72.264168218024224 -30.090625860882728 -7.3304086624185842 #
point $-1 72.264168218024224 -22.337067233054693 -7.3304086624185842 #
straight-curve $-1 -72.264168218024224 -13.106923273484355 -1.32694332064065 0 1 0 I I #
edge $-1 $325 -0.83739467512415855 $437 5.1660706666537752 $430 $498 forward 7 unknown #
point $-1 -72.264168218024224 -22.337067233054693 -1.32694332064065 #
edge $-1 $329 1.32694332064065 $435 7.3304086624185842 $431 $499 forward 7 unknown #
point $-1 -72.264168218024224 -30.090625860882728 -1.32694332064065 #
straight-curve $-1 72.264168218024224 -30.090625860882728 0 0 0 -1 I I #
plane-surface $-1 0 30.090625860882728 0 0 -1 0 0 0 -1 forward_v I I I I #
coedge $-1 $338 $457 $340 $451 forward $335 $-1 #
vertex $-1 $451 $500 #
straight-curve $-1 -72.264168218024224 22.33706723305469 -2.1643379957648086 0 0 1 I I #
edge $-1 $453 -16.983702587398369 $449 -9.2301439595703361 $448 $501 forward 7 unknown #
straight-curve $-1 0 22.33706723305469 -7.3304086624185842 -1 0 0 I I #
vertex $-1 $343 $502 #
straight-curve $-1 0 30.090625860882728 -7.3304086624185842 -1 0 0 I I #
point $-1 72.264168218024224 22.33706723305469 -7.3304086624185842 #
point $-1 72.264168218024224 30.090625860882724 -7.3304086624185842 #
coedge $-1 $448 $347 $350 $459 forward $335 $-1 #
straight-curve $-1 -72.264168218024224 13.106923273484353 -1.32694332064065 0 1 0 I I #
edge $-1 $352 1.32694332064065 $453 7.3304086624185842 $350 $503 forward 7 unknown #
point $-1 -72.264168218024224 30.090625860882724 -1.32694332064065 #
point $-1 -72.264168218024224 22.33706723305469 -1.32694332064065 #
straight-curve $-1 72.264168218024224 22.33706723305469 -2.1643379957648086 0 0 -1 I I #
straight-curve $-1 72.264168218024224 30.090625860882728 0 0 0 -1 I I #
coedge $-1 $372 $371 $364 $465 forward $361 $-1 #
edge $-1 $466 3.2258032510831924 $469 17.314247833148926 $464 $504 forward 7 unknown #
vertex $-1 $465 $505 #
straight-curve $-1 -72.264168218024224 -22.337067233054693 61.685499593381401 0 0 1 I I #
edge $-1 $469 -13.094421662447626 $373 -5.3908694787665077 $372 $506 forward 7 unknown #
vertex $-1 $468 $507 #
straight-curve $-1 -72.264168218024224 -22.337067233054693 2.159337853490868 -0.83867056331134215 0 -0.54463904215088732 I I #
point $-1 -72.264168218024224 -22.337067233054693 2.159337853490868 #
point $-1 -58.175723635958491 -14.633515049373575 11.308480911852419 #
straight-curve $-1 -72.264168218024224 0 11.308480911852419 0 -1 0 I I #
vertex $-1 $379 $508 #
point $-1 -62.745446756473932 -18.485291141214134 4.7595933127021333 #
edge $-1 $477 -60.855767241368667 $480 -52.489470628490508 $384 $509 forward 7 unknown #
vertex $-1 $388 $510 #
straight-curve $-1 72.264168218024224 7.6583386529994861 102.30203162005637 0 0 1 I I #
edge $-1 $480 -6.8457283633777806 $395 5.2205077841343694 $394 $511 forward 7 unknown #
vertex $-1 $479 $512 #
straight-curve $-1 -51.620795204860201 7.6583386529994861 80.719099817228297 0.85716729658548041 0 -0.51503808176128008 I I #
point $-1 72.264168218024238 7.6583386529994861 6.2815026590569829 #
point $-1 63.897871605146065 -4.4078974945126639 11.308480911852428 #
straight-curve $-1 72.264168218024224 0 11.308480911852419 0 1 0 I I #
vertex $-1 $401 $513 #
point $-1 67.99456547811657 -1.9946502650102325 7.6803054479885926 #
vertex $-1 $405 $514 #
point $-1 67.99456547811657 1.6252205792434147 7.6803054479885926 #
vertex $-1 $409 $515 #
point $-1 67.99456547811657 5.2450914234970618 7.6803054479885926 #
straight-curve $-1 -72.264168218024224 30.090625860882728 0 0 0 -1 I I #
point $-1 -72.264168218024224 -30.090625860882728 -11.308480911852419 #
straight-curve $-1 -72.264168218024224 0 -11.308480911852419 0 1 0 I I #
point $-1 -72.264168218024224 30.090625860882728 -11.308480911852419 #
straight-curve $-1 -72.264168218024224 -13.106923273484355 -7.3304086624185842 0 -1 0 I I #
point $-1 -72.264168218024224 -30.090625860882728 -7.3304086624185842 #
point $-1 -72.264168218024224 -22.337067233054693 -7.3304086624185842 #
straight-curve $-1 -72.264168218024224 -22.337067233054693 -2.1643379957648086 0 0 -1 I I #
straight-curve $-1 -72.264168218024224 -30.090625860882728 0 0 0 -1 I I #
point $-1 -72.264168218024224 22.33706723305469 -7.3304086624185842 #
straight-curve $-1 -72.264168218024224 13.106923273484353 -7.3304086624185842 0 -1 0 I I #
point $-1 -72.264168218024224 30.090625860882724 -7.3304086624185842 #
straight-curve $-1 -72.264168218024224 30.090625860882728 0 0 0 -1 I I #
straight-curve $-1 -75.489971469107417 -22.337067233054693 11.308480911852421 1 0 0 I I #
point $-1 -72.264168218024224 -22.337067233054693 11.308480911852419 #
straight-curve $-1 -58.175723635958491 -9.2426455706070669 11.308480911852417 0 1 0 I I #
point $-1 -58.175723635958491 -22.337067233054693 11.308480911852419 #
point $-1 -63.039478277634387 -18.485291141214134 3.3762837072399035 #
straight-curve $-1 11.408400976655557 7.6583386529994861 11.308480911852413 -1 0 0 I I #
point $-1 72.264168218024224 7.6583386529994861 11.308480911852419 #
straight-curve $-1 63.897871605146079 0.81261028962170556 11.308480911852413 0 -1 0 I I #
point $-1 63.897871605146065 7.6583386529994861 11.308480911852428 #
point $-1 67.308462788943189 -1.9946502650102325 7.5092408405764921 #
point $-1 67.308462788943189 1.6252205792434147 7.5092408405764921 #
point $-1 67.308462788943189 5.2450914234970618 7.5092408405764921 #
End-of-ACIS-data 