500 0 18 0           
7 Unknown 11 ACIS 5.0 NT 24 Fri Mar 26 02:25:01 1999 
-1 9.9999999999999995e-007 1e-010 
body $-1 $18 $-1 $19 #
body $-1 $20 $-1 $21 #
body $-1 $22 $-1 $23 #
body $-1 $24 $-1 $25 #
body $-1 $26 $-1 $27 #
body $-1 $28 $-1 $29 #
body $-1 $30 $-1 $31 #
body $-1 $32 $-1 $33 #
body $-1 $34 $-1 $35 #
body $-1 $36 $-1 $37 #
body $-1 $38 $-1 $39 #
body $-1 $40 $-1 $41 #
body $-1 $42 $-1 $43 #
body $-1 $44 $-1 $45 #
body $-1 $46 $-1 $47 #
body $-1 $48 $-1 $49 #
body $-1 $50 $-1 $51 #
body $-1 $52 $-1 $53 #
lump $-1 $-1 $54 $0 #
transform $-1 1 0 0 0 1 0 0 0 1 71.248512222663038 47.629327092274082 11.390076728487518 1 rotate no_reflect no_shear #
lump $-1 $-1 $55 $1 #
transform $-1 1 0 0 0 1 0 0 0 1 71.248512222663038 47.629327092274082 11.390076728487518 1 rotate no_reflect no_shear #
lump $-1 $-1 $56 $2 #
transform $-1 1 0 0 0 1 0 0 0 1 71.248512222663038 47.629327092274082 11.390076728487518 1 rotate no_reflect no_shear #
lump $-1 $-1 $57 $3 #
transform $-1 1 0 0 0 1 0 0 0 1 71.248512222663038 47.629327092274082 11.390076728487518 1 rotate no_reflect no_shear #
lump $-1 $-1 $58 $4 #
transform $-1 1 0 0 0 1 0 0 0 1 71.248512222663038 47.629327092274082 11.390076728487518 1 rotate no_reflect no_shear #
lump $-1 $-1 $59 $5 #
transform $-1 1 0 0 0 1 0 0 0 1 71.248512222663038 47.629327092274082 11.390076728487518 1 rotate no_reflect no_shear #
lump $-1 $-1 $60 $6 #
transform $-1 1 0 0 0 1 0 0 0 1 71.248512222663038 47.629327092274082 11.390076728487518 1 rotate no_reflect no_shear #
lump $-1 $-1 $61 $7 #
transform $-1 1 0 0 0 1 0 0 0 1 71.248512222663038 47.629327092274082 11.390076728487518 1 rotate no_reflect no_shear #
lump $-1 $-1 $62 $8 #
transform $-1 1 0 0 0 1 0 0 0 1 71.248512222663038 47.629327092274082 11.390076728487518 1 rotate no_reflect no_shear #
lump $-1 $-1 $63 $9 #
transform $-1 1 0 0 0 1 0 0 0 1 71.248512222663038 47.629327092274082 11.390076728487518 1 rotate no_reflect no_shear #
lump $-1 $-1 $64 $10 #
transform $-1 1 0 0 0 1 0 0 0 1 71.248512222663038 47.629327092274082 11.390076728487518 1 rotate no_reflect no_shear #
lump $-1 $-1 $65 $11 #
transform $-1 1 0 0 0 1 0 0 0 1 71.248512222663038 47.629327092274082 11.390076728487518 1 rotate no_reflect no_shear #
lump $-1 $-1 $66 $12 #
transform $-1 1 0 0 0 1 0 0 0 1 71.248512222663038 47.629327092274082 11.390076728487518 1 rotate no_reflect no_shear #
lump $-1 $-1 $67 $13 #
transform $-1 1 0 0 0 1 0 0 0 1 71.248512222663038 47.629327092274082 11.390076728487518 1 rotate no_reflect no_shear #
lump $-1 $-1 $68 $14 #
transform $-1 1 0 0 0 1 0 0 0 1 71.248512222663038 47.629327092274082 11.390076728487518 1 rotate no_reflect no_shear #
lump $-1 $-1 $69 $15 #
transform $-1 1 0 0 0 1 0 0 0 1 71.248512222663038 47.629327092274082 11.390076728487518 1 rotate no_reflect no_shear #
lump $-1 $-1 $70 $16 #
transform $-1 1 0 0 0 1 0 0 0 1 71.248512222663038 47.629327092274082 11.390076728487518 1 rotate no_reflect no_shear #
lump $-1 $-1 $71 $17 #
transform $-1 1 0 0 0 1 0 0 0 1 71.248512222663038 47.629327092274082 11.390076728487518 1 rotate no_reflect no_shear #
shell $-1 $-1 $-1 $72 $-1 $18 #
shell $-1 $-1 $-1 $73 $-1 $20 #
shell $-1 $-1 $-1 $74 $-1 $22 #
shell $-1 $-1 $-1 $75 $-1 $24 #
shell $-1 $-1 $-1 $76 $-1 $26 #
shell $-1 $-1 $-1 $77 $-1 $28 #
shell $-1 $-1 $-1 $78 $-1 $30 #
shell $-1 $-1 $-1 $79 $-1 $32 #
shell $-1 $-1 $-1 $80 $-1 $34 #
shell $-1 $-1 $-1 $81 $-1 $36 #
shell $-1 $-1 $-1 $82 $-1 $38 #
shell $-1 $-1 $-1 $83 $-1 $40 #
shell $-1 $-1 $-1 $84 $-1 $42 #
shell $-1 $-1 $-1 $85 $-1 $44 #
shell $-1 $-1 $-1 $86 $-1 $46 #
shell $-1 $-1 $-1 $87 $-1 $48 #
shell $-1 $-1 $-1 $88 $-1 $50 #
shell $-1 $-1 $-1 $89 $-1 $52 #
face $-1 $90 $91 $54 $-1 $92 forward single #
face $-1 $93 $94 $55 $-1 $95 forward single #
face $-1 $96 $97 $56 $-1 $98 reversed single #
face $-1 $99 $100 $57 $-1 $101 forward single #
face $-1 $102 $103 $58 $-1 $104 forward single #
face $-1 $105 $106 $59 $-1 $107 forward single #
face $-1 $108 $109 $60 $-1 $110 reversed single #
face $-1 $111 $112 $61 $-1 $113 forward single #
face $-1 $114 $115 $62 $-1 $116 forward single #
face $-1 $117 $118 $63 $-1 $119 forward single #
face $-1 $120 $121 $64 $-1 $122 reversed single #
face $-1 $123 $124 $65 $-1 $125 forward single #
face $-1 $126 $127 $66 $-1 $128 forward single #
face $-1 $129 $130 $67 $-1 $131 forward single #
face $-1 $132 $133 $68 $-1 $134 reversed single #
face $-1 $135 $136 $69 $-1 $137 forward single #
face $-1 $138 $139 $70 $-1 $140 forward single #
face $-1 $141 $142 $71 $-1 $143 forward single #
face $-1 $144 $145 $54 $-1 $146 reversed single #
loop $-1 $-1 $147 $72 #
plane-surface $-1 0 0 11.390076728487518 0 0 1 1 0 0 forward_v I I I I #
face $-1 $148 $149 $55 $-1 $150 reversed single #
loop $-1 $-1 $151 $73 #
plane-surface $-1 0 -42.740816143630511 -6.1097001437601257 0 0 1 1 0 0 forward_v I I I I #
face $-1 $152 $153 $56 $-1 $154 reversed single #
loop $-1 $-1 $155 $74 #
plane-surface $-1 -192.09284364071291 -8.6567550556264763 77.118902886765298 0 1 0 -0.84804810408105047 0 0.52991925155115449 forward_v I I I I #
face $-1 $156 $157 $57 $-1 $158 forward single #
loop $-1 $159 $160 $75 #
cone-surface $-1 -67.49926511499406 -5.9477018547724683 6.065702962318178 0.84804810408105047 0 -0.52991925155115449 0.52991925155115449 0 0.84804810408105047 1 I I 0 1 1 forward I I I I #
face $-1 $161 $162 $58 $-1 $163 forward single #
loop $-1 $164 $165 $76 #
cone-surface $-1 -67.49926511499406 -1.8841220534914527 6.065702962318178 0.84804810408105047 0 -0.52991925155115449 0.52991925155115449 0 0.84804810408105047 1 I I 0 1 1 forward I I I I #
face $-1 $166 $167 $59 $-1 $168 forward single #
loop $-1 $169 $170 $77 #
cone-surface $-1 -67.49926511499406 2.1794577477895629 6.065702962318178 0.84804810408105047 0 -0.52991925155115449 0.52991925155115449 0 0.84804810408105047 1 I I 0 1 1 forward I I I I #
face $-1 $171 $172 $60 $-1 $173 reversed single #
loop $-1 $-1 $174 $78 #
plane-surface $-1 -71.248512222663038 -1.8841220534914527 1.6069863444315331 -0.84804810408105047 0 0.52991925155115449 0.52991925155115449 0 0.84804810408105047 forward_v I I I I #
face $-1 $175 $176 $61 $-1 $177 forward single #
loop $-1 $178 $179 $79 #
cone-surface $-1 -67.49926511499406 7.597564149497579 6.065702962318178 0.84804810408105047 0 -0.52991925155115449 0.52991925155115449 0 0.84804810408105047 1 I I 0 1 1 forward I I I I #
face $-1 $180 $181 $62 $-1 $182 forward single #
loop $-1 $183 $184 $80 #
cone-surface $-1 -67.49926511499406 11.661143950778595 6.065702962318178 0.84804810408105047 0 -0.52991925155115449 0.52991925155115449 0 0.84804810408105047 1 I I 0 1 1 forward I I I I #
face $-1 $185 $186 $63 $-1 $187 forward single #
loop $-1 $188 $189 $81 #
cone-surface $-1 -67.49926511499406 15.72472375205961 6.065702962318178 0.84804810408105047 0 -0.52991925155115449 0.52991925155115449 0 0.84804810408105047 1 I I 0 1 1 forward I I I I #
face $-1 $190 $191 $64 $-1 $192 reversed single #
loop $-1 $-1 $193 $82 #
plane-surface $-1 60.701708410919593 -20.347851547440818 201.35540553429325 0 -1 0 -0.66913061440640931 0 -0.74314481823134659 forward_v I I I I #
face $-1 $194 $195 $65 $-1 $196 forward single #
loop $-1 $197 $198 $83 #
cone-surface $-1 64.230385764098415 -32.161414694803497 4.9123398984168798 -0.66913061440640931 0 -0.74314481823134659 0.74314481823134659 0 -0.66913061440640931 1 I I 0 1 1 forward I I I I #
face $-1 $199 $200 $66 $-1 $201 forward single #
loop $-1 $202 $203 $84 #
cone-surface $-1 64.230385764098415 -27.731328514542493 4.9123398984168798 -0.66913061440640931 0 -0.74314481823134659 0.74314481823134659 0 -0.66913061440640931 1 I I 0 1 1 forward I I I I #
face $-1 $204 $205 $67 $-1 $206 forward single #
loop $-1 $207 $208 $85 #
cone-surface $-1 64.230385764098415 -23.30124233428149 4.9123398984168798 -0.66913061440640931 0 -0.74314481823134659 0.74314481823134659 0 -0.66913061440640931 1 I I 0 1 1 forward I I I I #
face $-1 $209 $210 $68 $-1 $211 reversed single #
loop $-1 $-1 $212 $86 #
plane-surface $-1 60.701708410919593 44.89182737893131 201.35540553429325 0 -1 0 -0.66913061440640931 0 -0.74314481823134659 forward_v I I I I #
face $-1 $213 $214 $69 $-1 $215 forward single #
loop $-1 $216 $217 $87 #
cone-surface $-1 64.230385764098415 33.078264231568639 4.9123398984168798 -0.66913061440640931 0 -0.74314481823134659 0.74314481823134659 0 -0.66913061440640931 1 I I 0 1 1 forward I I I I #
face $-1 $218 $219 $70 $-1 $220 forward single #
loop $-1 $221 $222 $88 #
cone-surface $-1 64.230385764098415 37.508350411829639 4.9123398984168798 -0.66913061440640931 0 -0.74314481823134659 0.74314481823134659 0 -0.66913061440640931 1 I I 0 1 1 forward I I I I #
face $-1 $223 $224 $71 $-1 $225 forward single #
loop $-1 $226 $227 $89 #
cone-surface $-1 64.230385764098415 41.938436592090653 4.9123398984168798 -0.66913061440640931 0 -0.74314481823134659 0.74314481823134659 0 -0.66913061440640931 1 I I 0 1 1 forward I I I I #
face $-1 $228 $229 $54 $-1 $230 reversed single #
loop $-1 $-1 $231 $90 #
plane-surface $-1 0 0 -11.390076728487518 0 0 1 1 0 0 forward_v I I I I #
coedge $-1 $232 $233 $234 $235 forward $91 $-1 #
face $-1 $236 $237 $55 $-1 $238 reversed single #
loop $-1 $-1 $239 $93 #
plane-surface $-1 0 -37.85230519498694 -8.7498884361238218 0 -1 0 0 0 -1 forward_v I I I I #
coedge $-1 $240 $241 $242 $243 reversed $94 $-1 #
face $-1 $244 $245 $56 $-1 $246 reversed single #
loop $-1 $-1 $247 $96 #
plane-surface $-1 -71.248512222663038 -1.8841220534914527 1.6069863444315331 -0.84804810408105047 0 0.52991925155115449 0.52991925155115449 0 0.84804810408105047 forward_v I I I I #
coedge $-1 $248 $249 $250 $251 reversed $97 $-1 #
face $-1 $-1 $252 $57 $-1 $253 forward single #
loop $-1 $254 $255 $99 #
cone-surface $-1 -66.382570527549831 -5.9477018547724683 5.3679147624012593 0.84804810408105047 0 -0.52991925155115449 0.26495962577557725 0 0.42402405204052523 1 I I -0.70710678118654746 0.70710678118654746 0.5 forward I I I I #
loop $-1 $-1 $256 $75 #
coedge $-1 $160 $160 $257 $258 reversed $100 $-1 #
face $-1 $-1 $259 $58 $-1 $260 forward single #
loop $-1 $261 $262 $102 #
cone-surface $-1 -66.382570527549831 -1.8841220534914527 5.3679147624012593 0.84804810408105047 0 -0.52991925155115449 0.26495962577557725 0 0.42402405204052523 1 I I -0.70710678118654746 0.70710678118654746 0.5 forward I I I I #
loop $-1 $-1 $263 $76 #
coedge $-1 $165 $165 $264 $265 reversed $103 $-1 #
face $-1 $-1 $266 $59 $-1 $267 forward single #
loop $-1 $268 $269 $105 #
cone-surface $-1 -66.382570527549831 2.1794577477895629 5.3679147624012593 0.84804810408105047 0 -0.52991925155115449 0.26495962577557725 0 0.42402405204052523 1 I I -0.70710678118654746 0.70710678118654746 0.5 forward I I I I #
loop $-1 $-1 $270 $77 #
coedge $-1 $170 $170 $271 $272 reversed $106 $-1 #
face $-1 $273 $274 $60 $-1 $275 forward single #
loop $-1 $-1 $276 $108 #
plane-surface $-1 -192.09284364071291 18.433776952913618 77.118902886765298 0 -1 0 0.84804810408105047 0 -0.52991925155115449 forward_v I I I I #
coedge $-1 $277 $278 $279 $280 reversed $109 $-1 #
face $-1 $-1 $281 $61 $-1 $282 forward single #
loop $-1 $283 $284 $111 #
cone-surface $-1 -66.382570527549831 7.597564149497579 5.3679147624012593 0.84804810408105047 0 -0.52991925155115449 0.26495962577557725 0 0.42402405204052523 1 I I -0.70710678118654746 0.70710678118654746 0.5 forward I I I I #
loop $-1 $-1 $285 $79 #
coedge $-1 $179 $179 $286 $287 reversed $112 $-1 #
face $-1 $-1 $288 $62 $-1 $289 forward single #
loop $-1 $290 $291 $114 #
cone-surface $-1 -66.382570527549831 11.661143950778595 5.3679147624012593 0.84804810408105047 0 -0.52991925155115449 0.26495962577557725 0 0.42402405204052523 1 I I -0.70710678118654746 0.70710678118654746 0.5 forward I I I I #
loop $-1 $-1 $292 $80 #
coedge $-1 $184 $184 $293 $294 reversed $115 $-1 #
face $-1 $-1 $295 $63 $-1 $296 forward single #
loop $-1 $297 $298 $117 #
cone-surface $-1 -66.382570527549831 15.72472375205961 5.3679147624012593 0.84804810408105047 0 -0.52991925155115449 0.26495962577557725 0 0.42402405204052523 1 I I -0.70710678118654746 0.70710678118654746 0.5 forward I I I I #
loop $-1 $-1 $299 $81 #
coedge $-1 $189 $189 $300 $301 reversed $118 $-1 #
face $-1 $302 $303 $64 $-1 $304 reversed single #
loop $-1 $-1 $305 $120 #
plane-surface $-1 -34.647413107266573 -27.73132851454249 95.459480204363658 0.66913061440640931 0 0.74314481823134659 0.74314481823134659 0 -0.66913061440640931 forward_v I I I I #
coedge $-1 $306 $307 $308 $309 reversed $121 $-1 #
face $-1 $-1 $310 $65 $-1 $311 forward single #
loop $-1 $312 $313 $123 #
cone-surface $-1 63.141391872690662 -32.161414694803497 3.7028896803855638 -0.66913061440640931 0 -0.74314481823134659 0.3715724091156733 0 -0.33456530720320465 1 I I -0.70710678118654746 0.70710678118654746 0.5 forward I I I I #
loop $-1 $-1 $314 $83 #
coedge $-1 $198 $198 $315 $316 reversed $124 $-1 #
face $-1 $-1 $317 $66 $-1 $318 forward single #
loop $-1 $319 $320 $126 #
cone-surface $-1 63.141391872690662 -27.731328514542493 3.7028896803855638 -0.66913061440640931 0 -0.74314481823134659 0.3715724091156733 0 -0.33456530720320465 1 I I -0.70710678118654746 0.70710678118654746 0.5 forward I I I I #
loop $-1 $-1 $321 $84 #
coedge $-1 $203 $203 $322 $323 reversed $127 $-1 #
face $-1 $-1 $324 $67 $-1 $325 forward single #
loop $-1 $326 $327 $129 #
cone-surface $-1 63.141391872690662 -23.30124233428149 3.7028896803855638 -0.66913061440640931 0 -0.74314481823134659 0.3715724091156733 0 -0.33456530720320465 1 I I -0.70710678118654746 0.70710678118654746 0.5 forward I I I I #
loop $-1 $-1 $328 $85 #
coedge $-1 $208 $208 $329 $330 reversed $130 $-1 #
face $-1 $331 $332 $68 $-1 $333 reversed single #
loop $-1 $-1 $334 $132 #
plane-surface $-1 -34.647413107266573 37.508350411829639 95.459480204363658 0.66913061440640931 0 0.74314481823134659 0.74314481823134659 0 -0.66913061440640931 forward_v I I I I #
coedge $-1 $335 $336 $337 $338 reversed $133 $-1 #
face $-1 $-1 $339 $69 $-1 $340 forward single #
loop $-1 $341 $342 $135 #
cone-surface $-1 63.141391872690662 33.078264231568639 3.7028896803855638 -0.66913061440640931 0 -0.74314481823134659 0.3715724091156733 0 -0.33456530720320465 1 I I -0.70710678118654746 0.70710678118654746 0.5 forward I I I I #
loop $-1 $-1 $343 $87 #
coedge $-1 $217 $217 $344 $345 reversed $136 $-1 #
face $-1 $-1 $346 $70 $-1 $347 forward single #
loop $-1 $348 $349 $138 #
cone-surface $-1 63.141391872690662 37.508350411829639 3.7028896803855638 -0.66913061440640931 0 -0.74314481823134659 0.3715724091156733 0 -0.33456530720320465 1 I I -0.70710678118654746 0.70710678118654746 0.5 forward I I I I #
loop $-1 $-1 $350 $88 #
coedge $-1 $222 $222 $351 $352 reversed $139 $-1 #
face $-1 $-1 $353 $71 $-1 $354 forward single #
loop $-1 $355 $356 $141 #
cone-surface $-1 63.141391872690662 41.938436592090653 3.7028896803855638 -0.66913061440640931 0 -0.74314481823134659 0.3715724091156733 0 -0.33456530720320465 1 I I -0.70710678118654746 0.70710678118654746 0.5 forward I I I I #
loop $-1 $-1 $357 $89 #
coedge $-1 $227 $227 $358 $359 reversed $142 $-1 #
face $-1 $360 $361 $54 $-1 $362 reversed single #
loop $-1 $-1 $363 $144 #
plane-surface $-1 0 -47.629327092274082 0 0 1 0 0 0 1 forward_v I I I I #
coedge $-1 $364 $365 $366 $367 forward $145 $-1 #
coedge $-1 $368 $147 $369 $370 forward $91 $-1 #
coedge $-1 $147 $368 $371 $372 forward $91 $-1 #
coedge $-1 $373 $374 $147 $235 reversed $375 $-1 #
edge $-1 $376 -47.629327092274082 $377 47.629327092274082 $234 $378 forward 7 unknown #
face $-1 $379 $380 $55 $-1 $381 reversed single #
loop $-1 $-1 $382 $148 #
plane-surface $-1 0 0 -11.390076728487518 0 0 1 1 0 0 forward_v I I I I #
coedge $-1 $383 $384 $385 $386 reversed $149 $-1 #
coedge $-1 $387 $151 $384 $388 forward $94 $-1 #
coedge $-1 $151 $387 $389 $390 reversed $94 $-1 #
coedge $-1 $391 $385 $151 $243 forward $380 $-1 #
edge $-1 $392 16.481897123171684 $393 26.258919020458826 $242 $394 forward 7 unknown #
face $-1 $395 $396 $56 $-1 $397 forward single #
loop $-1 $-1 $398 $152 #
plane-surface $-1 -192.09284364071291 4.8885109486435709 77.118902886765298 0 -1 0 0.84804810408105047 0 -0.52991925155115449 forward_v I I I I #
coedge $-1 $399 $400 $401 $402 reversed $153 $-1 #
coedge $-1 $249 $155 $403 $404 reversed $97 $-1 #
coedge $-1 $155 $248 $399 $405 reversed $97 $-1 #
coedge $-1 $401 $406 $155 $251 forward $396 $-1 #
edge $-1 $407 24.797909597693419 $408 30.911062742223962 $250 $409 forward 7 unknown #
loop $-1 $-1 $257 $156 #
plane-surface $-1 -71.248512222663038 -1.8841220534914527 1.6069863444315331 -0.84804810408105047 0 0.52991925155115449 0.52991925155115449 0 0.84804810408105047 forward_v I I I I #
loop $-1 $-1 $410 $99 #
coedge $-1 $255 $255 $256 $411 reversed $157 $-1 #
coedge $-1 $256 $256 $255 $411 forward $159 $-1 #
coedge $-1 $257 $257 $160 $258 forward $252 $-1 #
edge $-1 $412 0 $412 6.2831853071796004 $257 $413 forward 7 unknown #
loop $-1 $-1 $264 $161 #
plane-surface $-1 -71.248512222663038 -1.8841220534914527 1.6069863444315331 -0.84804810408105047 0 0.52991925155115449 0.52991925155115449 0 0.84804810408105047 forward_v I I I I #
loop $-1 $-1 $414 $102 #
coedge $-1 $262 $262 $263 $415 reversed $162 $-1 #
coedge $-1 $263 $263 $262 $415 forward $164 $-1 #
coedge $-1 $264 $264 $165 $265 forward $259 $-1 #
edge $-1 $416 0 $416 6.2831853071796004 $264 $417 forward 7 unknown #
loop $-1 $-1 $271 $166 #
plane-surface $-1 -71.248512222663038 -1.8841220534914527 1.6069863444315331 -0.84804810408105047 0 0.52991925155115449 0.52991925155115449 0 0.84804810408105047 forward_v I I I I #
loop $-1 $-1 $418 $105 #
coedge $-1 $269 $269 $270 $419 reversed $167 $-1 #
coedge $-1 $270 $270 $269 $419 forward $169 $-1 #
coedge $-1 $271 $271 $170 $272 forward $266 $-1 #
edge $-1 $420 0 $420 6.2831853071796004 $271 $421 forward 7 unknown #
face $-1 $422 $423 $60 $-1 $424 forward single #
loop $-1 $-1 $425 $171 #
plane-surface $-1 0 0 11.390076728487518 0 0 1 1 0 0 forward_v I I I I #
coedge $-1 $426 $427 $428 $429 reversed $172 $-1 #
coedge $-1 $430 $174 $431 $432 reversed $109 $-1 #
coedge $-1 $174 $430 $425 $433 reversed $109 $-1 #
coedge $-1 $434 $435 $174 $280 forward $423 $-1 #
edge $-1 $436 0 $437 11.536008791219444 $279 $438 forward 7 unknown #
loop $-1 $-1 $286 $175 #
plane-surface $-1 -71.248512222663038 -1.8841220534914527 1.6069863444315331 -0.84804810408105047 0 0.52991925155115449 0.52991925155115449 0 0.84804810408105047 forward_v I I I I #
loop $-1 $-1 $439 $111 #
coedge $-1 $284 $284 $285 $440 reversed $176 $-1 #
coedge $-1 $285 $285 $284 $440 forward $178 $-1 #
coedge $-1 $286 $286 $179 $287 forward $281 $-1 #
edge $-1 $441 0 $441 6.2831853071796004 $286 $442 forward 7 unknown #
loop $-1 $-1 $293 $180 #
plane-surface $-1 -71.248512222663038 -1.8841220534914527 1.6069863444315331 -0.84804810408105047 0 0.52991925155115449 0.52991925155115449 0 0.84804810408105047 forward_v I I I I #
loop $-1 $-1 $443 $114 #
coedge $-1 $291 $291 $292 $444 reversed $181 $-1 #
coedge $-1 $292 $292 $291 $444 forward $183 $-1 #
coedge $-1 $293 $293 $184 $294 forward $288 $-1 #
edge $-1 $445 0 $445 6.2831853071796004 $293 $446 forward 7 unknown #
loop $-1 $-1 $300 $185 #
plane-surface $-1 -71.248512222663038 -1.8841220534914527 1.6069863444315331 -0.84804810408105047 0 0.52991925155115449 0.52991925155115449 0 0.84804810408105047 forward_v I I I I #
loop $-1 $-1 $447 $117 #
coedge $-1 $298 $298 $299 $448 reversed $186 $-1 #
coedge $-1 $299 $299 $298 $448 forward $188 $-1 #
coedge $-1 $300 $300 $189 $301 forward $295 $-1 #
edge $-1 $449 0 $449 6.2831853071796004 $300 $450 forward 7 unknown #
face $-1 $451 $452 $64 $-1 $453 reversed single #
loop $-1 $-1 $454 $190 #
plane-surface $-1 60.701708410919593 -35.114805481644161 201.35540553429325 0 1 0 0.66913061440640931 0 0.74314481823134659 forward_v I I I I #
coedge $-1 $455 $456 $457 $458 reversed $191 $-1 #
coedge $-1 $307 $193 $459 $460 reversed $121 $-1 #
coedge $-1 $193 $306 $455 $461 reversed $121 $-1 #
coedge $-1 $457 $462 $193 $309 forward $463 $-1 #
edge $-1 $464 -40.897658017203241 $465 -28.370262268483117 $308 $466 forward 7 unknown #
loop $-1 $-1 $315 $194 #
plane-surface $-1 -34.647413107266573 -27.73132851454249 95.459480204363658 0.66913061440640931 0 0.74314481823134659 0.74314481823134659 0 -0.66913061440640931 forward_v I I I I #
loop $-1 $-1 $467 $123 #
coedge $-1 $313 $313 $314 $468 reversed $195 $-1 #
coedge $-1 $314 $314 $313 $468 forward $197 $-1 #
coedge $-1 $315 $315 $198 $316 forward $310 $-1 #
edge $-1 $469 0 $469 6.2831853071796004 $315 $470 forward 7 unknown #
loop $-1 $-1 $322 $199 #
plane-surface $-1 -34.647413107266573 -27.73132851454249 95.459480204363658 0.66913061440640931 0 0.74314481823134659 0.74314481823134659 0 -0.66913061440640931 forward_v I I I I #
loop $-1 $-1 $471 $126 #
coedge $-1 $320 $320 $321 $472 reversed $200 $-1 #
coedge $-1 $321 $321 $320 $472 forward $202 $-1 #
coedge $-1 $322 $322 $203 $323 forward $317 $-1 #
edge $-1 $473 0 $473 6.2831853071796004 $322 $474 forward 7 unknown #
loop $-1 $-1 $329 $204 #
plane-surface $-1 -34.647413107266573 -27.73132851454249 95.459480204363658 0.66913061440640931 0 0.74314481823134659 0.74314481823134659 0 -0.66913061440640931 forward_v I I I I #
loop $-1 $-1 $475 $129 #
coedge $-1 $327 $327 $328 $476 reversed $205 $-1 #
coedge $-1 $328 $328 $327 $476 forward $207 $-1 #
coedge $-1 $329 $329 $208 $330 forward $324 $-1 #
edge $-1 $477 0 $477 6.2831853071796004 $329 $478 forward 7 unknown #
face $-1 $479 $480 $68 $-1 $481 reversed single #
loop $-1 $-1 $482 $209 #
plane-surface $-1 60.701708410919593 30.124873444727967 201.35540553429325 0 1 0 0.66913061440640931 0 0.74314481823134659 forward_v I I I I #
coedge $-1 $483 $484 $485 $486 reversed $210 $-1 #
coedge $-1 $336 $212 $487 $488 reversed $133 $-1 #
coedge $-1 $212 $335 $483 $489 reversed $133 $-1 #
coedge $-1 $485 $490 $212 $338 forward $491 $-1 #
edge $-1 $492 -40.897658017203241 $493 -28.370262268483117 $337 $494 forward 7 unknown #
loop $-1 $-1 $344 $213 #
plane-surface $-1 -34.647413107266573 37.508350411829639 95.459480204363658 0.66913061440640931 0 0.74314481823134659 0.74314481823134659 0 -0.66913061440640931 forward_v I I I I #
loop $-1 $-1 $495 $135 #
coedge $-1 $342 $342 $343 $496 reversed $214 $-1 #
coedge $-1 $343 $343 $342 $496 forward $216 $-1 #
coedge $-1 $344 $344 $217 $345 forward $339 $-1 #
edge $-1 $497 0 $497 6.2831853071796004 $344 $498 forward 7 unknown #
loop $-1 $-1 $351 $218 #
plane-surface $-1 -34.647413107266573 37.508350411829639 95.459480204363658 0.66913061440640931 0 0.74314481823134659 0.74314481823134659 0 -0.66913061440640931 forward_v I I I I #
loop $-1 $-1 $499 $138 #
coedge $-1 $349 $349 $350 $500 reversed $219 $-1 #
coedge $-1 $350 $350 $349 $500 forward $221 $-1 #
coedge $-1 $351 $351 $222 $352 forward $346 $-1 #
edge $-1 $501 0 $501 6.2831853071796004 $351 $502 forward 7 unknown #
loop $-1 $-1 $358 $223 #
plane-surface $-1 -34.647413107266573 37.508350411829639 95.459480204363658 0.66913061440640931 0 0.74314481823134659 0.74314481823134659 0 -0.66913061440640931 forward_v I I I I #
loop $-1 $-1 $503 $141 #
coedge $-1 $356 $356 $357 $504 reversed $224 $-1 #
coedge $-1 $357 $357 $356 $504 forward $226 $-1 #
coedge $-1 $358 $358 $227 $359 forward $353 $-1 #
edge $-1 $505 0 $505 6.2831853071796004 $358 $506 forward 7 unknown #
face $-1 $507 $508 $54 $-1 $509 reversed single #
loop $-1 $-1 $510 $228 #
plane-surface $-1 -71.248512222663038 0 0 1 0 0 0 0 -1 forward_v I I I I #
coedge $-1 $511 $371 $512 $513 forward $229 $-1 #
coedge $-1 $514 $231 $511 $515 forward $145 $-1 #
coedge $-1 $231 $514 $516 $517 forward $145 $-1 #
coedge $-1 $374 $373 $231 $367 reversed $375 $-1 #
edge $-1 $518 -47.629327092274082 $519 47.629327092274082 $366 $520 forward 7 unknown #
coedge $-1 $233 $232 $521 $522 forward $91 $-1 #
coedge $-1 $523 $524 $232 $370 reversed $508 $-1 #
edge $-1 $377 -71.248512222663038 $525 71.248512222663038 $369 $526 forward 7 unknown #
coedge $-1 $363 $527 $233 $372 reversed $229 $-1 #
edge $-1 $528 -71.248512222663038 $376 71.248512222663038 $371 $529 forward 7 unknown #
coedge $-1 $366 $234 $527 $530 forward $375 $-1 #
coedge $-1 $234 $366 $523 $531 reversed $375 $-1 #
loop $-1 $-1 $373 $507 #
vertex $-1 $235 $532 #
vertex $-1 $235 $533 #
straight-curve $-1 71.248512222663038 0 11.390076728487518 0 1 0 I I #
face $-1 $534 $535 $55 $-1 $536 reversed single #
loop $-1 $-1 $385 $236 #
plane-surface $-1 71.248512222663038 0 0 -1 0 0 0 0 1 forward_v I I I I #
coedge $-1 $537 $538 $383 $539 forward $237 $-1 #
coedge $-1 $540 $239 $382 $539 reversed $149 $-1 #
coedge $-1 $239 $540 $240 $388 reversed $149 $-1 #
coedge $-1 $242 $541 $239 $386 forward $380 $-1 #
edge $-1 $542 -7.015132510425607 $392 -1.7347559256982148 $385 $543 forward 7 unknown #
coedge $-1 $241 $240 $544 $545 reversed $94 $-1 #
edge $-1 $392 -71.248512222663038 $546 71.248512222663038 $384 $547 forward 7 unknown #
coedge $-1 $548 $549 $241 $390 forward $535 $-1 #
edge $-1 $393 -71.248512222663038 $550 71.248512222663038 $389 $551 forward 7 unknown #
coedge $-1 $541 $242 $549 $552 forward $380 $-1 #
vertex $-1 $243 $553 #
vertex $-1 $552 $554 #
straight-curve $-1 71.248512222663038 -21.370408071815255 -6.1097001437601257 0 -1 0 I I #
face $-1 $-1 $555 $56 $-1 $556 reversed single #
loop $-1 $-1 $250 $244 #
plane-surface $-1 0 0 11.390076728487518 0 0 1 1 0 0 forward_v I I I I #
coedge $-1 $557 $558 $559 $560 reversed $245 $-1 #
coedge $-1 $561 $247 $249 $405 forward $153 $-1 #
coedge $-1 $247 $561 $557 $562 forward $153 $-1 #
coedge $-1 $559 $250 $247 $402 forward $396 $-1 #
edge $-1 $408 -7.71469402888075 $563 5.8305719753892973 $401 $564 forward 7 unknown #
coedge $-1 $565 $566 $248 $404 forward $555 $-1 #
edge $-1 $567 -36.952465098951116 $407 -27.169374714895131 $403 $568 forward 7 unknown #
edge $-1 $408 -11.536008791219444 $567 0 $249 $569 forward 7 unknown #
coedge $-1 $250 $559 $565 $570 forward $396 $-1 #
vertex $-1 $404 $571 #
vertex $-1 $251 $572 #
straight-curve $-1 -96.046421820356457 -8.6567550556264763 11.390076728487522 1 0 0 I I #
coedge $-1 $410 $410 $-1 $573 reversed $254 $-1 #
edge $-1 $574 0 $574 6.2831853071796004 $255 $575 forward 7 unknown #
vertex $-1 $258 $576 #
ellipse-curve $-1 -68.191935650397767 -5.9477018547724683 6.4985315364595202 -0.84804810408105047 0 0.52991925155115449 0.52991925155115449 0 0.84804810408105047 1 I I #
coedge $-1 $414 $414 $-1 $577 reversed $261 $-1 #
edge $-1 $578 0 $578 6.2831853071796004 $262 $579 forward 7 unknown #
vertex $-1 $265 $580 #
ellipse-curve $-1 -68.191935650397767 -1.8841220534914527 6.4985315364595202 -0.84804810408105047 0 0.52991925155115449 0.52991925155115449 0 0.84804810408105047 1 I I #
coedge $-1 $418 $418 $-1 $581 reversed $268 $-1 #
edge $-1 $582 0 $582 6.2831853071796004 $269 $583 forward 7 unknown #
vertex $-1 $272 $584 #
ellipse-curve $-1 -68.191935650397767 2.1794577477895629 6.4985315364595202 -0.84804810408105047 0 0.52991925155115449 0.52991925155115449 0 0.84804810408105047 1 I I #
face $-1 $-1 $585 $60 $-1 $586 reversed single #
loop $-1 $-1 $434 $273 #
plane-surface $-1 -192.09284364071291 4.8885109486435709 77.118902886765298 0 -1 0 0.84804810408105047 0 -0.52991925155115449 forward_v I I I I #
coedge $-1 $428 $587 $278 $433 forward $274 $-1 #
coedge $-1 $427 $276 $430 $588 reversed $172 $-1 #
coedge $-1 $276 $426 $589 $590 reversed $172 $-1 #
coedge $-1 $591 $425 $276 $429 forward $274 $-1 #
edge $-1 $592 -30.911062742223962 $593 -24.797909597693419 $428 $594 forward 7 unknown #
coedge $-1 $278 $277 $426 $588 forward $109 $-1 #
coedge $-1 $595 $589 $277 $432 forward $585 $-1 #
edge $-1 $596 -19.375837979659345 $436 -5.8305719753892973 $431 $597 forward 7 unknown #
edge $-1 $437 5.8305719753892973 $592 19.375837979659345 $425 $598 forward 7 unknown #
coedge $-1 $435 $279 $587 $599 reversed $423 $-1 #
coedge $-1 $279 $434 $595 $600 reversed $423 $-1 #
vertex $-1 $432 $601 #
vertex $-1 $433 $602 #
straight-curve $-1 -71.248512222663038 4.8885109486435709 1.6069863444315331 0.52991925155115449 0 0.84804810408105047 I I #
coedge $-1 $439 $439 $-1 $603 reversed $283 $-1 #
edge $-1 $604 0 $604 6.2831853071796004 $284 $605 forward 7 unknown #
vertex $-1 $287 $606 #
ellipse-curve $-1 -68.191935650397767 7.597564149497579 6.4985315364595202 -0.84804810408105047 0 0.52991925155115449 0.52991925155115449 0 0.84804810408105047 1 I I #
coedge $-1 $443 $443 $-1 $607 reversed $290 $-1 #
edge $-1 $608 0 $608 6.2831853071796004 $291 $609 forward 7 unknown #
vertex $-1 $294 $610 #
ellipse-curve $-1 -68.191935650397767 11.661143950778595 6.4985315364595202 -0.84804810408105047 0 0.52991925155115449 0.52991925155115449 0 0.84804810408105047 1 I I #
coedge $-1 $447 $447 $-1 $611 reversed $297 $-1 #
edge $-1 $612 0 $612 6.2831853071796004 $298 $613 forward 7 unknown #
vertex $-1 $301 $614 #
ellipse-curve $-1 -68.191935650397767 15.72472375205961 6.4985315364595202 -0.84804810408105047 0 0.52991925155115449 0.52991925155115449 0 0.84804810408105047 1 I I #
face $-1 $-1 $463 $64 $-1 $615 forward single #
loop $-1 $-1 $616 $302 #
plane-surface $-1 71.248512222663038 0 0 -1 0 0 0 0 1 forward_v I I I I #
coedge $-1 $617 $618 $619 $620 reversed $303 $-1 #
coedge $-1 $621 $305 $307 $461 forward $191 $-1 #
coedge $-1 $305 $621 $617 $622 forward $191 $-1 #
coedge $-1 $619 $308 $305 $458 forward $463 $-1 #
edge $-1 $465 6.4821872901695734 $623 21.249141224372917 $457 $624 forward 7 unknown #
coedge $-1 $625 $626 $306 $460 forward $452 $-1 #
edge $-1 $627 -100.56734408096915 $464 -89.287626038659113 $459 $628 forward 7 unknown #
edge $-1 $465 125.63975054474936 $627 142.4970244453261 $307 $629 forward 7 unknown #
coedge $-1 $308 $619 $625 $630 forward $463 $-1 #
loop $-1 $-1 $619 $451 #
vertex $-1 $460 $631 #
vertex $-1 $309 $632 #
straight-curve $-1 30.350854205459797 -20.347851547440818 11.390076728487514 -1 0 0 I I #
coedge $-1 $467 $467 $-1 $633 reversed $312 $-1 #
edge $-1 $634 0 $634 6.2831853071796004 $313 $635 forward 7 unknown #
vertex $-1 $316 $636 #
ellipse-curve $-1 64.984814348302962 -32.161414694803497 5.7502177073325198 0.66913061440640931 0 0.74314481823134659 0.74314481823134659 0 -0.66913061440640931 1 I I #
coedge $-1 $471 $471 $-1 $637 reversed $319 $-1 #
edge $-1 $638 0 $638 6.2831853071796004 $320 $639 forward 7 unknown #
vertex $-1 $323 $640 #
ellipse-curve $-1 64.984814348302962 -27.731328514542493 5.7502177073325198 0.66913061440640931 0 0.74314481823134659 0.74314481823134659 0 -0.66913061440640931 1 I I #
coedge $-1 $475 $475 $-1 $641 reversed $326 $-1 #
edge $-1 $642 0 $642 6.2831853071796004 $327 $643 forward 7 unknown #
vertex $-1 $330 $644 #
ellipse-curve $-1 64.984814348302962 -23.30124233428149 5.7502177073325198 0.66913061440640931 0 0.74314481823134659 0.74314481823134659 0 -0.66913061440640931 1 I I #
face $-1 $-1 $491 $68 $-1 $645 forward single #
loop $-1 $-1 $646 $331 #
plane-surface $-1 71.248512222663038 0 0 -1 0 0 0 0 1 forward_v I I I I #
coedge $-1 $647 $648 $649 $650 reversed $332 $-1 #
coedge $-1 $651 $334 $336 $489 forward $210 $-1 #
coedge $-1 $334 $651 $647 $652 forward $210 $-1 #
coedge $-1 $649 $337 $334 $486 forward $491 $-1 #
edge $-1 $493 -26.137652173016491 $653 -11.370698238813148 $485 $654 forward 7 unknown #
coedge $-1 $655 $656 $335 $488 forward $480 $-1 #
edge $-1 $657 -100.56734408096915 $492 -89.287626038659113 $487 $658 forward 7 unknown #
edge $-1 $493 125.63975054474936 $657 142.4970244453261 $336 $659 forward 7 unknown #
coedge $-1 $337 $649 $655 $660 forward $491 $-1 #
loop $-1 $-1 $649 $479 #
vertex $-1 $488 $661 #
vertex $-1 $338 $662 #
straight-curve $-1 30.350854205459797 44.89182737893131 11.390076728487514 -1 0 0 I I #
coedge $-1 $495 $495 $-1 $663 reversed $341 $-1 #
edge $-1 $664 0 $664 6.2831853071796004 $342 $665 forward 7 unknown #
vertex $-1 $345 $666 #
ellipse-curve $-1 64.984814348302962 33.078264231568639 5.7502177073325198 0.66913061440640931 0 0.74314481823134659 0.74314481823134659 0 -0.66913061440640931 1 I I #
coedge $-1 $499 $499 $-1 $667 reversed $348 $-1 #
edge $-1 $668 0 $668 6.2831853071796004 $349 $669 forward 7 unknown #
vertex $-1 $352 $670 #
ellipse-curve $-1 64.984814348302962 37.508350411829639 5.7502177073325198 0.66913061440640931 0 0.74314481823134659 0.74314481823134659 0 -0.66913061440640931 1 I I #
coedge $-1 $503 $503 $-1 $671 reversed $355 $-1 #
edge $-1 $672 0 $672 6.2831853071796004 $356 $673 forward 7 unknown #
vertex $-1 $359 $674 #
ellipse-curve $-1 64.984814348302962 41.938436592090653 5.7502177073325198 0.66913061440640931 0 0.74314481823134659 0.74314481823134659 0 -0.66913061440640931 1 I I #
face $-1 $-1 $375 $54 $-1 $675 reversed single #
loop $-1 $-1 $523 $360 #
plane-surface $-1 0 47.629327092274082 0 0 -1 0 0 0 -1 forward_v I I I I #
coedge $-1 $676 $521 $524 $677 forward $361 $-1 #
coedge $-1 $527 $363 $364 $515 reversed $229 $-1 #
coedge $-1 $521 $676 $363 $513 reversed $361 $-1 #
edge $-1 $528 -11.390076728487518 $678 11.390076728487518 $512 $679 forward 7 unknown #
coedge $-1 $365 $364 $676 $680 forward $145 $-1 #
edge $-1 $519 -71.248512222663038 $678 71.248512222663038 $511 $681 forward 7 unknown #
coedge $-1 $524 $523 $365 $517 reversed $508 $-1 #
edge $-1 $682 -71.248512222663038 $518 71.248512222663038 $516 $683 forward 7 unknown #
vertex $-1 $367 $684 #
vertex $-1 $530 $685 #
straight-curve $-1 71.248512222663038 0 -11.390076728487518 0 -1 0 I I #
coedge $-1 $510 $512 $368 $522 reversed $361 $-1 #
edge $-1 $525 -47.629327092274082 $528 47.629327092274082 $521 $686 forward 7 unknown #
coedge $-1 $516 $369 $374 $531 forward $508 $-1 #
coedge $-1 $369 $516 $510 $677 reversed $508 $-1 #
vertex $-1 $370 $687 #
straight-curve $-1 0 47.629327092274082 11.390076728487518 -1 0 0 I I #
coedge $-1 $371 $511 $373 $530 reversed $229 $-1 #
vertex $-1 $522 $688 #
straight-curve $-1 0 -47.629327092274082 11.390076728487518 1 0 0 I I #
edge $-1 $376 -11.390076728487518 $519 11.390076728487518 $373 $689 forward 7 unknown #
edge $-1 $377 -11.390076728487518 $518 11.390076728487518 $374 $690 forward 7 unknown #
point $-1 71.248512222663038 -47.629327092274082 11.390076728487518 #
point $-1 71.248512222663038 47.629327092274082 11.390076728487518 #
face $-1 $-1 $691 $55 $-1 $692 reversed single #
loop $-1 $-1 $389 $379 #
plane-surface $-1 0 -47.629327092274082 0 0 1 0 0 0 1 forward_v I I I I #
coedge $-1 $693 $382 $541 $694 forward $237 $-1 #
coedge $-1 $382 $693 $695 $696 forward $237 $-1 #
edge $-1 $697 -71.248512222663038 $542 71.248512222663038 $382 $698 forward 7 unknown #
coedge $-1 $384 $383 $699 $700 reversed $149 $-1 #
coedge $-1 $385 $391 $537 $694 reversed $380 $-1 #
vertex $-1 $694 $701 #
straight-curve $-1 71.248512222663038 -37.85230519498694 -4.3749442180619109 0 0 1 I I #
coedge $-1 $699 $702 $387 $545 forward $691 $-1 #
edge $-1 $550 -26.258919020458826 $546 -16.481897123171684 $544 $703 forward 7 unknown #
vertex $-1 $545 $704 #
straight-curve $-1 0 -37.85230519498694 -6.1097001437601257 -1 0 0 I I #
coedge $-1 $705 $389 $702 $706 forward $535 $-1 #
coedge $-1 $389 $705 $391 $552 reversed $535 $-1 #
vertex $-1 $706 $707 #
straight-curve $-1 0 -47.629327092274082 -6.1097001437601257 -1 0 0 I I #
edge $-1 $393 6.1097001437601257 $708 11.390076728487518 $391 $709 forward 7 unknown #
point $-1 71.248512222663038 -37.85230519498694 -6.1097001437601257 #
point $-1 71.248512222663038 -47.629327092274082 -6.1097001437601257 #
loop $-1 $-1 $403 $395 #
plane-surface $-1 -71.248512222663038 0 0 1 0 0 0 0 -1 forward_v I I I I #
coedge $-1 $558 $398 $400 $562 reversed $245 $-1 #
coedge $-1 $398 $557 $710 $711 reversed $245 $-1 #
coedge $-1 $406 $401 $398 $560 forward $396 $-1 #
edge $-1 $563 -30.911062742223962 $712 -24.797909597693419 $559 $713 forward 7 unknown #
coedge $-1 $400 $399 $566 $714 reversed $153 $-1 #
edge $-1 $715 0 $563 11.536008791219444 $557 $716 forward 7 unknown #
vertex $-1 $402 $717 #
straight-curve $-1 -65.135359078132495 -0.94206102674572634 11.390076728487518 0 1 0 I I #
coedge $-1 $710 $403 $406 $570 reversed $555 $-1 #
coedge $-1 $403 $710 $561 $714 forward $555 $-1 #
vertex $-1 $404 $718 #
straight-curve $-1 -71.248512222663038 -8.6567550556264763 38.559451443382649 0 0 1 I I #
straight-curve $-1 -71.248512222663038 -8.6567550556264763 1.6069863444315331 -0.52991925155115449 0 -0.84804810408105047 I I #
edge $-1 $712 -4.8885109486435709 $407 8.6567550556264763 $565 $719 forward 7 unknown #
point $-1 -71.248512222663038 -8.6567550556264763 11.390076728487518 #
point $-1 -65.135359078132495 -8.6567550556264763 11.390076728487518 #
edge $-1 $720 1 $720 0 $410 $-1 forward 7 unknown #
vertex $-1 $411 $721 #
ellipse-curve $-1 -66.806594579590353 -5.9477018547724683 5.6328743881768366 -0.84804810408105047 0 0.52991925155115449 0.52991925155115449 0 0.84804810408105047 1 I I #
point $-1 -67.662016398846617 -5.9477018547724683 7.3465796405405692 #
edge $-1 $722 1 $722 0 $414 $-1 forward 7 unknown #
vertex $-1 $415 $723 #
ellipse-curve $-1 -66.806594579590353 -1.8841220534914527 5.6328743881768366 -0.84804810408105047 0 0.52991925155115449 0.52991925155115449 0 0.84804810408105047 1 I I #
point $-1 -67.662016398846617 -1.8841220534914527 7.3465796405405692 #
edge $-1 $724 1 $724 0 $418 $-1 forward 7 unknown #
vertex $-1 $419 $725 #
ellipse-curve $-1 -66.806594579590353 2.1794577477895629 5.6328743881768366 -0.84804810408105047 0 0.52991925155115449 0.52991925155115449 0 0.84804810408105047 1 I I #
point $-1 -67.662016398846617 2.1794577477895629 7.3465796405405692 #
loop $-1 $-1 $431 $422 #
plane-surface $-1 -71.248512222663038 0 0 1 0 0 0 0 -1 forward_v I I I I #
coedge $-1 $425 $591 $434 $599 forward $274 $-1 #
edge $-1 $596 0 $592 11.536008791219444 $426 $726 forward 7 unknown #
coedge $-1 $431 $727 $427 $590 forward $585 $-1 #
edge $-1 $593 27.169374714895131 $596 36.952465098951116 $589 $728 forward 7 unknown #
coedge $-1 $587 $428 $727 $729 forward $274 $-1 #
vertex $-1 $429 $730 #
vertex $-1 $729 $731 #
straight-curve $-1 -96.046421820356457 18.433776952913618 11.390076728487522 -1 0 0 I I #
coedge $-1 $727 $431 $435 $600 forward $585 $-1 #
vertex $-1 $590 $732 #
straight-curve $-1 -71.248512222663038 -0.94206102674572634 1.6069863444315224 0 -1 0 I I #
straight-curve $-1 -65.135359078132495 -0.94206102674572634 11.390076728487518 0 1 0 I I #
edge $-1 $733 24.797909597693419 $437 30.911062742223962 $587 $734 forward 7 unknown #
edge $-1 $436 -36.952465098951116 $733 -27.169374714895131 $595 $735 forward 7 unknown #
point $-1 -71.248512222663038 4.8885109486435709 1.6069863444315331 #
point $-1 -65.135359078132495 4.8885109486435709 11.390076728487518 #
edge $-1 $736 1 $736 0 $439 $-1 forward 7 unknown #
vertex $-1 $440 $737 #
ellipse-curve $-1 -66.806594579590353 7.597564149497579 5.6328743881768366 -0.84804810408105047 0 0.52991925155115449 0.52991925155115449 0 0.84804810408105047 1 I I #
point $-1 -67.662016398846617 7.597564149497579 7.3465796405405692 #
edge $-1 $738 1 $738 0 $443 $-1 forward 7 unknown #
vertex $-1 $444 $739 #
ellipse-curve $-1 -66.806594579590353 11.661143950778595 5.6328743881768366 -0.84804810408105047 0 0.52991925155115449 0.52991925155115449 0 0.84804810408105047 1 I I #
point $-1 -67.662016398846617 11.661143950778595 7.3465796405405692 #
edge $-1 $740 1 $740 0 $447 $-1 forward 7 unknown #
vertex $-1 $448 $741 #
ellipse-curve $-1 -66.806594579590353 15.72472375205961 5.6328743881768366 -0.84804810408105047 0 0.52991925155115449 0.52991925155115449 0 0.84804810408105047 1 I I #
point $-1 -67.662016398846617 15.72472375205961 7.3465796405405692 #
plane-surface $-1 0 0 11.390076728487518 0 0 1 1 0 0 forward_v I I I I #
coedge $-1 $626 $625 $618 $742 forward $452 $-1 #
coedge $-1 $618 $454 $456 $622 reversed $303 $-1 #
coedge $-1 $454 $617 $616 $742 reversed $303 $-1 #
coedge $-1 $462 $457 $454 $620 forward $463 $-1 #
edge $-1 $623 28.370262268483117 $743 40.897658017203241 $619 $744 forward 7 unknown #
coedge $-1 $456 $455 $626 $745 reversed $191 $-1 #
edge $-1 $746 -142.4970244453261 $623 -125.63975054474936 $617 $747 forward 7 unknown #
vertex $-1 $458 $748 #
straight-curve $-1 58.721116473942935 -13.865664257271245 11.390076728487507 0 -1 0 I I #
coedge $-1 $616 $459 $462 $630 reversed $452 $-1 #
coedge $-1 $459 $616 $621 $745 forward $452 $-1 #
vertex $-1 $460 $749 #
straight-curve $-1 71.248512222663038 -20.347851547440818 100.67770276714663 0 0 1 I I #
straight-curve $-1 -34.647413107266573 -20.347851547440818 95.459480204363658 0.74314481823134659 0 -0.66913061440640931 I I #
edge $-1 $743 -35.114805481644161 $464 -20.347851547440818 $625 $750 forward 7 unknown #
point $-1 71.248512222663038 -20.347851547440818 11.390076728487518 #
point $-1 58.721116473942914 -20.347851547440818 11.390076728487514 #
edge $-1 $751 1 $751 0 $467 $-1 forward 7 unknown #
vertex $-1 $468 $752 #
ellipse-curve $-1 63.475957179893868 -32.161414694803497 4.0744620895012371 0.66913061440640931 0 0.74314481823134659 0.74314481823134659 0 -0.66913061440640931 1 I I #
point $-1 65.727959166534305 -32.161414694803497 5.0810870929261132 #
edge $-1 $753 1 $753 0 $471 $-1 forward 7 unknown #
vertex $-1 $472 $754 #
ellipse-curve $-1 63.475957179893868 -27.731328514542493 4.0744620895012371 0.66913061440640931 0 0.74314481823134659 0.74314481823134659 0 -0.66913061440640931 1 I I #
point $-1 65.727959166534305 -27.731328514542493 5.0810870929261132 #
edge $-1 $755 1 $755 0 $475 $-1 forward 7 unknown #
vertex $-1 $476 $756 #
ellipse-curve $-1 63.475957179893868 -23.30124233428149 4.0744620895012371 0.66913061440640931 0 0.74314481823134659 0.74314481823134659 0 -0.66913061440640931 1 I I #
point $-1 65.727959166534305 -23.30124233428149 5.0810870929261132 #
plane-surface $-1 0 0 11.390076728487518 0 0 1 1 0 0 forward_v I I I I #
coedge $-1 $656 $655 $648 $757 forward $480 $-1 #
coedge $-1 $648 $482 $484 $652 reversed $332 $-1 #
coedge $-1 $482 $647 $646 $757 reversed $332 $-1 #
coedge $-1 $490 $485 $482 $650 forward $491 $-1 #
edge $-1 $653 28.370262268483117 $758 40.897658017203241 $649 $759 forward 7 unknown #
coedge $-1 $484 $483 $656 $760 reversed $210 $-1 #
edge $-1 $761 -142.4970244453261 $653 -125.63975054474936 $647 $762 forward 7 unknown #
vertex $-1 $486 $763 #
straight-curve $-1 58.721116473942935 18.754175205914819 11.390076728487507 0 -1 0 I I #
coedge $-1 $646 $487 $490 $660 reversed $480 $-1 #
coedge $-1 $487 $646 $651 $760 forward $480 $-1 #
vertex $-1 $488 $764 #
straight-curve $-1 71.248512222663038 44.89182737893131 100.67770276714663 0 0 1 I I #
straight-curve $-1 -34.647413107266573 44.89182737893131 95.459480204363658 0.74314481823134659 0 -0.66913061440640931 I I #
edge $-1 $758 30.124873444727967 $492 44.89182737893131 $655 $765 forward 7 unknown #
point $-1 71.248512222663038 44.89182737893131 11.390076728487518 #
point $-1 58.721116473942914 44.89182737893131 11.390076728487514 #
edge $-1 $766 1 $766 0 $495 $-1 forward 7 unknown #
vertex $-1 $496 $767 #
ellipse-curve $-1 63.475957179893868 33.078264231568639 4.0744620895012371 0.66913061440640931 0 0.74314481823134659 0.74314481823134659 0 -0.66913061440640931 1 I I #
point $-1 65.727959166534305 33.078264231568639 5.0810870929261132 #
edge $-1 $768 1 $768 0 $499 $-1 forward 7 unknown #
vertex $-1 $500 $769 #
ellipse-curve $-1 63.475957179893868 37.508350411829639 4.0744620895012371 0.66913061440640931 0 0.74314481823134659 0.74314481823134659 0 -0.66913061440640931 1 I I #
point $-1 65.727959166534305 37.508350411829639 5.0810870929261132 #
edge $-1 $770 1 $770 0 $503 $-1 forward 7 unknown #
vertex $-1 $504 $771 #
ellipse-curve $-1 63.475957179893868 41.938436592090653 4.0744620895012371 0.66913061440640931 0 0.74314481823134659 0.74314481823134659 0 -0.66913061440640931 1 I I #
point $-1 65.727959166534305 41.938436592090653 5.0810870929261132 #
plane-surface $-1 71.248512222663038 0 0 -1 0 0 0 0 1 forward_v I I I I #
coedge $-1 $512 $510 $514 $680 reversed $361 $-1 #
edge $-1 $525 -11.390076728487518 $682 11.390076728487518 $524 $772 forward 7 unknown #
vertex $-1 $680 $773 #
straight-curve $-1 -71.248512222663038 -47.629327092274082 0 0 0 -1 I I #
edge $-1 $678 -47.629327092274082 $682 47.629327092274082 $676 $774 forward 7 unknown #
straight-curve $-1 0 -47.629327092274082 -11.390076728487518 -1 0 0 I I #
vertex $-1 $517 $775 #
straight-curve $-1 0 47.629327092274082 -11.390076728487518 1 0 0 I I #
point $-1 71.248512222663038 47.629327092274082 -11.390076728487518 #
point $-1 71.248512222663038 -47.629327092274082 -11.390076728487518 #
straight-curve $-1 -71.248512222663038 0 11.390076728487518 0 -1 0 I I #
point $-1 -71.248512222663038 47.629327092274082 11.390076728487518 #
point $-1 -71.248512222663038 -47.629327092274082 11.390076728487518 #
straight-curve $-1 71.248512222663038 -47.629327092274082 0 0 0 -1 I I #
straight-curve $-1 71.248512222663038 47.629327092274082 0 0 0 -1 I I #
loop $-1 $-1 $699 $534 #
plane-surface $-1 -71.248512222663038 0 0 1 0 0 0 0 -1 forward_v I I I I #
coedge $-1 $538 $537 $705 $776 forward $237 $-1 #
edge $-1 $542 37.85230519498694 $708 47.629327092274082 $541 $777 forward 7 unknown #
coedge $-1 $702 $699 $538 $696 reversed $691 $-1 #
edge $-1 $778 -47.629327092274082 $697 -37.85230519498694 $695 $779 forward 7 unknown #
vertex $-1 $700 $780 #
straight-curve $-1 0 -37.85230519498694 -11.390076728487518 1 0 0 I I #
coedge $-1 $695 $544 $540 $700 forward $691 $-1 #
edge $-1 $546 1.7347559256982148 $697 7.015132510425607 $699 $781 forward 7 unknown #
point $-1 71.248512222663038 -37.85230519498694 -11.390076728487518 #
coedge $-1 $544 $695 $548 $706 reversed $691 $-1 #
straight-curve $-1 -71.248512222663038 -21.370408071815255 -6.1097001437601257 0 1 0 I I #
point $-1 -71.248512222663038 -37.85230519498694 -6.1097001437601257 #
coedge $-1 $549 $548 $693 $776 reversed $535 $-1 #
edge $-1 $550 6.1097001437601257 $778 11.390076728487518 $702 $782 forward 7 unknown #
point $-1 -71.248512222663038 -47.629327092274082 -6.1097001437601257 #
vertex $-1 $552 $783 #
straight-curve $-1 71.248512222663038 -47.629327092274082 0 0 0 -1 I I #
coedge $-1 $566 $565 $558 $711 forward $555 $-1 #
edge $-1 $712 27.169374714895131 $715 36.952465098951116 $710 $784 forward 7 unknown #
vertex $-1 $570 $785 #
straight-curve $-1 -96.046421820356457 4.8885109486435709 11.390076728487522 -1 0 0 I I #
edge $-1 $715 -5.8305719753892973 $567 7.71469402888075 $566 $786 forward 7 unknown #
vertex $-1 $714 $787 #
straight-curve $-1 -71.248512222663038 4.8885109486435709 1.6069863444315331 0.52991925155115449 0 0.84804810408105047 I I #
point $-1 -65.135359078132495 4.8885109486435709 11.390076728487518 #
point $-1 -71.248512222663038 -8.6567550556264763 1.6069863444315331 #
straight-curve $-1 -71.248512222663038 0 11.390076728487518 0 -1 0 I I #
vertex $-1 $573 $788 #
point $-1 -66.276675328039204 -5.9477018547724683 6.4809224922578874 #
vertex $-1 $577 $789 #
point $-1 -66.276675328039204 -1.8841220534914527 6.4809224922578874 #
vertex $-1 $581 $790 #
point $-1 -66.276675328039204 2.1794577477895629 6.4809224922578874 #
straight-curve $-1 -71.248512222663038 18.433776952913618 1.6069863444315331 0.52991925155115449 0 0.84804810408105047 I I #
coedge $-1 $589 $595 $591 $729 reversed $585 $-1 #
straight-curve $-1 -71.248512222663038 18.433776952913618 38.559451443382649 0 0 -1 I I #
edge $-1 $593 -18.433776952913618 $733 -4.8885109486435709 $727 $791 forward 7 unknown #
point $-1 -65.135359078132495 18.433776952913618 11.390076728487518 #
point $-1 -71.248512222663038 18.433776952913618 11.390076728487518 #
point $-1 -71.248512222663038 18.433776952913618 1.6069863444315331 #
vertex $-1 $600 $792 #
straight-curve $-1 -96.046421820356457 4.8885109486435709 11.390076728487522 1 0 0 I I #
straight-curve $-1 -71.248512222663038 4.8885109486435709 38.559451443382649 0 0 1 I I #
vertex $-1 $603 $793 #
point $-1 -66.276675328039204 7.597564149497579 6.4809224922578874 #
vertex $-1 $607 $794 #
point $-1 -66.276675328039204 11.661143950778595 6.4809224922578874 #
vertex $-1 $611 $795 #
point $-1 -66.276675328039204 15.72472375205961 6.4809224922578874 #
edge $-1 $743 89.287626038659113 $746 100.56734408096915 $616 $796 forward 7 unknown #
vertex $-1 $630 $797 #
straight-curve $-1 30.350854205459797 -35.114805481644161 11.390076728487514 1 0 0 I I #
edge $-1 $746 -21.249141224372917 $627 -6.4821872901695734 $626 $798 forward 7 unknown #
vertex $-1 $745 $799 #
straight-curve $-1 -34.647413107266573 -35.114805481644161 95.459480204363658 -0.74314481823134659 0 0.66913061440640931 I I #
point $-1 58.721116473942914 -35.114805481644161 11.390076728487514 #
point $-1 71.248512222663052 -20.347851547440818 0.11035868617747724 #
straight-curve $-1 71.248512222663038 0 11.390076728487518 0 1 0 I I #
vertex $-1 $633 $800 #
point $-1 64.219101998125211 -32.161414694803497 3.4053314750948278 #
vertex $-1 $637 $801 #
point $-1 64.219101998125211 -27.731328514542493 3.4053314750948278 #
vertex $-1 $641 $802 #
point $-1 64.219101998125211 -23.30124233428149 3.4053314750948278 #
edge $-1 $758 89.287626038659113 $761 100.56734408096915 $646 $803 forward 7 unknown #
vertex $-1 $660 $804 #
straight-curve $-1 30.350854205459797 30.124873444727967 11.390076728487514 1 0 0 I I #
edge $-1 $761 11.370698238813148 $657 26.137652173016491 $656 $805 forward 7 unknown #
vertex $-1 $760 $806 #
straight-curve $-1 -34.647413107266573 30.124873444727967 95.459480204363658 -0.74314481823134659 0 0.66913061440640931 I I #
point $-1 58.721116473942914 30.124873444727967 11.390076728487514 #
point $-1 71.248512222663052 44.89182737893131 0.11035868617747724 #
straight-curve $-1 71.248512222663038 0 11.390076728487518 0 1 0 I I #
vertex $-1 $663 $807 #
point $-1 64.219101998125211 33.078264231568639 3.4053314750948278 #
vertex $-1 $667 $808 #
point $-1 64.219101998125211 37.508350411829639 3.4053314750948278 #
vertex $-1 $671 $809 #
point $-1 64.219101998125211 41.938436592090653 3.4053314750948278 #
straight-curve $-1 -71.248512222663038 47.629327092274082 0 0 0 -1 I I #
point $-1 -71.248512222663038 -47.629327092274082 -11.390076728487518 #
straight-curve $-1 -71.248512222663038 0 -11.390076728487518 0 1 0 I I #
point $-1 -71.248512222663038 47.629327092274082 -11.390076728487518 #
edge $-1 $708 -71.248512222663038 $778 71.248512222663038 $705 $810 forward 7 unknown #
straight-curve $-1 71.248512222663038 0 -11.390076728487518 0 -1 0 I I #
vertex $-1 $696 $811 #
straight-curve $-1 -71.248512222663038 0 -11.390076728487518 0 1 0 I I #
point $-1 -71.248512222663038 -37.85230519498694 -11.390076728487518 #
straight-curve $-1 -71.248512222663038 -37.85230519498694 -4.3749442180619109 0 0 -1 I I #
straight-curve $-1 -71.248512222663038 -47.629327092274082 0 0 0 -1 I I #
point $-1 71.248512222663038 -47.629327092274082 -11.390076728487518 #
straight-curve $-1 -71.248512222663038 4.8885109486435709 38.559451443382649 0 0 -1 I I #
point $-1 -71.248512222663038 4.8885109486435709 11.390076728487518 #
straight-curve $-1 -71.248512222663038 -0.94206102674572634 1.6069863444315224 0 -1 0 I I #
point $-1 -71.248512222663038 4.8885109486435709 1.6069863444315331 #
point $-1 -65.958546475509308 -5.9477018547724683 5.102955136625682 #
point $-1 -65.958546475509308 -1.8841220534914527 5.102955136625682 #
point $-1 -65.958546475509308 2.1794577477895629 5.102955136625682 #
straight-curve $-1 -71.248512222663038 0 11.390076728487518 0 -1 0 I I #
point $-1 -71.248512222663038 4.8885109486435709 11.390076728487518 #
point $-1 -65.958546475509308 7.597564149497579 5.102955136625682 #
point $-1 -65.958546475509308 11.661143950778595 5.102955136625682 #
point $-1 -65.958546475509308 15.72472375205961 5.102955136625682 #
straight-curve $-1 71.248512222663038 -35.114805481644161 100.67770276714663 0 0 -1 I I #
point $-1 71.248512222663038 -35.114805481644161 11.390076728487518 #
straight-curve $-1 71.248512222663024 -13.865664257271245 0.11035868617749856 0 1 0 I I #
point $-1 71.248512222663052 -35.114805481644161 0.11035868617747724 #
point $-1 62.806826565487455 -32.161414694803497 3.3313172712698904 #
point $-1 62.806826565487455 -27.731328514542493 3.3313172712698904 #
point $-1 62.806826565487455 -23.30124233428149 3.3313172712698904 #
straight-curve $-1 71.248512222663038 30.124873444727967 100.67770276714663 0 0 -1 I I #
point $-1 71.248512222663038 30.124873444727967 11.390076728487518 #
straight-curve $-1 71.248512222663024 18.754175205914819 0.11035868617749856 0 1 0 I I #
point $-1 71.248512222663052 30.124873444727967 0.11035868617747724 #
point $-1 62.806826565487455 33.078264231568639 3.3313172712698904 #
point $-1 62.806826565487455 37.508350411829639 3.3313172712698904 #
point $-1 62.806826565487455 41.938436592090653 3.3313172712698904 #
straight-curve $-1 0 -47.629327092274082 -11.390076728487518 -1 0 0 I I #
point $-1 -71.248512222663038 -47.629327092274082 -11.390076728487518 #
End-of-ACIS-data 