500 0 11 0           
7 Unknown 11 ACIS 5.0 NT 24 Fri Mar 26 02:29:02 1999 
-1 9.9999999999999995e-007 1e-010 
body $-1 $11 $-1 $12 #
body $-1 $13 $-1 $14 #
body $-1 $15 $-1 $16 #
body $-1 $17 $-1 $18 #
body $-1 $19 $-1 $20 #
body $-1 $21 $-1 $22 #
body $-1 $23 $-1 $24 #
body $-1 $25 $-1 $26 #
body $-1 $27 $-1 $28 #
body $-1 $29 $-1 $30 #
body $-1 $31 $-1 $32 #
lump $-1 $-1 $33 $0 #
transform $-1 1 0 0 0 1 0 0 0 1 61.000396740623188 27.389209784439974 7.5338507250628961 1 rotate no_reflect no_shear #
lump $-1 $-1 $34 $1 #
transform $-1 1 0 0 0 1 0 0 0 1 61.000396740623188 27.389209784439974 7.5338507250628961 1 rotate no_reflect no_shear #
lump $-1 $-1 $35 $2 #
transform $-1 1 0 0 0 1 0 0 0 1 61.000396740623188 27.389209784439974 7.5338507250628961 1 rotate no_reflect no_shear #
lump $-1 $-1 $36 $3 #
transform $-1 1 0 0 0 1 0 0 0 1 61.000396740623188 27.389209784439974 7.5338507250628961 1 rotate no_reflect no_shear #
lump $-1 $-1 $37 $4 #
transform $-1 1 0 0 0 1 0 0 0 1 61.000396740623188 27.389209784439974 7.5338507250628961 1 rotate no_reflect no_shear #
lump $-1 $-1 $38 $5 #
transform $-1 1 0 0 0 1 0 0 0 1 61.000396740623188 27.389209784439974 7.5338507250628961 1 rotate no_reflect no_shear #
lump $-1 $-1 $39 $6 #
transform $-1 1 0 0 0 1 0 0 0 1 61.000396740623188 27.389209784439974 7.5338507250628961 1 rotate no_reflect no_shear #
lump $-1 $-1 $40 $7 #
transform $-1 1 0 0 0 1 0 0 0 1 61.000396740623188 27.389209784439974 7.5338507250628961 1 rotate no_reflect no_shear #
lump $-1 $-1 $41 $8 #
transform $-1 1 0 0 0 1 0 0 0 1 61.000396740623188 27.389209784439974 7.5338507250628961 1 rotate no_reflect no_shear #
lump $-1 $-1 $42 $9 #
transform $-1 1 0 0 0 1 0 0 0 1 61.000396740623188 27.389209784439974 7.5338507250628961 1 rotate no_reflect no_shear #
lump $-1 $-1 $43 $10 #
transform $-1 1 0 0 0 1 0 0 0 1 61.000396740623188 27.389209784439974 7.5338507250628961 1 rotate no_reflect no_shear #
shell $-1 $-1 $-1 $44 $-1 $11 #
shell $-1 $-1 $-1 $45 $-1 $13 #
shell $-1 $-1 $-1 $46 $-1 $15 #
shell $-1 $-1 $-1 $47 $-1 $17 #
shell $-1 $-1 $-1 $48 $-1 $19 #
shell $-1 $-1 $-1 $49 $-1 $21 #
shell $-1 $-1 $-1 $50 $-1 $23 #
shell $-1 $-1 $-1 $51 $-1 $25 #
shell $-1 $-1 $-1 $52 $-1 $27 #
shell $-1 $-1 $-1 $53 $-1 $29 #
shell $-1 $-1 $-1 $54 $-1 $31 #
face $-1 $55 $56 $33 $-1 $57 forward single #
face $-1 $58 $59 $34 $-1 $60 reversed single #
face $-1 $61 $62 $35 $-1 $63 forward single #
face $-1 $64 $65 $36 $-1 $66 forward single #
face $-1 $67 $68 $37 $-1 $69 forward single #
face $-1 $70 $71 $38 $-1 $72 reversed single #
face $-1 $73 $74 $39 $-1 $75 forward single #
face $-1 $76 $77 $40 $-1 $78 forward single #
face $-1 $79 $80 $41 $-1 $81 reversed single #
face $-1 $82 $83 $42 $-1 $84 forward single #
face $-1 $85 $86 $43 $-1 $87 forward single #
face $-1 $88 $89 $33 $-1 $90 reversed single #
loop $-1 $-1 $91 $44 #
plane-surface $-1 0 0 7.5338507250628961 0 0 1 1 0 0 forward_v I I I I #
face $-1 $92 $93 $34 $-1 $94 reversed single #
loop $-1 $-1 $95 $45 #
plane-surface $-1 -137.77798475602219 -14.016295219932255 97.297621481850371 0 -1 0 0.62932039886446345 0 -0.77714595512881146 forward_v I I I I #
face $-1 $96 $97 $35 $-1 $98 forward single #
loop $-1 $99 $100 $46 #
cone-surface $-1 -57.384710304631206 -24.714626871538428 4.3940477822786672 0.62932039886446345 0 -0.77714595512881146 0.77714595512881146 0 0.62932039886446345 1 I I 0 1 1 forward I I I I #
face $-1 $101 $102 $36 $-1 $103 forward single #
loop $-1 $104 $105 $47 #
cone-surface $-1 -57.384710304631206 -20.702752502186115 4.3940477822786672 0.62932039886446345 0 -0.77714595512881146 0.77714595512881146 0 0.62932039886446345 1 I I 0 1 1 forward I I I I #
face $-1 $106 $107 $37 $-1 $108 forward single #
loop $-1 $109 $110 $48 #
cone-surface $-1 -57.384710304631206 -16.690878132833795 4.3940477822786672 0.62932039886446345 0 -0.77714595512881146 0.77714595512881146 0 0.62932039886446345 1 I I 0 1 1 forward I I I I #
face $-1 $111 $112 $38 $-1 $113 reversed single #
loop $-1 $-1 $114 $49 #
plane-surface $-1 70.030192334357906 0 172.9790706095132 0 -1 0 -0.74314483375859142 0 -0.66913059716165679 forward_v I I I I #
face $-1 $115 $116 $39 $-1 $117 forward single #
loop $-1 $118 $119 $50 #
cone-surface $-1 57.239353683169774 -4.8177671507074145 3.4988022441292741 -0.74314483375859142 0 -0.66913059716165679 0.3345652985808284 0 -0.37157241687929571 1 I I 0 1 0.5 forward I I I I #
face $-1 $120 $121 $40 $-1 $122 forward single #
loop $-1 $123 $124 $51 #
cone-surface $-1 57.239353683169774 -1.9271068602829651 3.4988022441292741 -0.74314483375859142 0 -0.66913059716165679 0.3345652985808284 0 -0.37157241687929571 1 I I 0 1 0.5 forward I I I I #
face $-1 $125 $126 $41 $-1 $127 reversed single #
loop $-1 $-1 $128 $52 #
plane-surface $-1 70.030192334357906 20.64433577344959 172.9790706095132 0 1 0 0.74314483375859142 0 0.66913059716165679 forward_v I I I I #
face $-1 $129 $130 $42 $-1 $131 forward single #
loop $-1 $132 $133 $53 #
cone-surface $-1 57.239353683169774 22.571442633732556 3.4988022441292741 -0.74314483375859142 0 -0.66913059716165679 0.3345652985808284 0 -0.37157241687929571 1 I I 0 1 0.5 forward I I I I #
face $-1 $134 $135 $43 $-1 $136 forward single #
loop $-1 $137 $138 $54 #
cone-surface $-1 57.239353683169774 25.462102924157005 3.4988022441292741 -0.74314483375859142 0 -0.66913059716165679 0.3345652985808284 0 -0.37157241687929571 1 I I 0 1 0.5 forward I I I I #
face $-1 $139 $140 $33 $-1 $141 reversed single #
loop $-1 $-1 $142 $55 #
plane-surface $-1 0 0 -7.5338507250628961 0 0 1 1 0 0 forward_v I I I I #
coedge $-1 $143 $144 $145 $146 forward $56 $-1 #
face $-1 $147 $148 $34 $-1 $149 forward single #
loop $-1 $-1 $150 $58 #
plane-surface $-1 -61.000396740623188 -20.702752502186115 2.4851983053942774 -0.62932039886446345 0 0.77714595512881146 0.77714595512881146 0 0.62932039886446345 forward_v I I I I #
coedge $-1 $151 $152 $153 $154 reversed $59 $-1 #
face $-1 $-1 $155 $35 $-1 $156 forward single #
loop $-1 $157 $158 $61 #
cone-surface $-1 -56.571646863805732 -24.714626871538428 3.3899980717643352 0.62932039886446345 0 -0.77714595512881146 0.38857297756440573 0 0.31466019943223172 1 I I -0.70710678118654746 0.70710678118654746 0.5 forward I I I I #
loop $-1 $-1 $159 $46 #
coedge $-1 $100 $100 $160 $161 reversed $62 $-1 #
face $-1 $-1 $162 $36 $-1 $163 forward single #
loop $-1 $164 $165 $64 #
cone-surface $-1 -56.571646863805732 -20.702752502186115 3.3899980717643352 0.62932039886446345 0 -0.77714595512881146 0.38857297756440573 0 0.31466019943223172 1 I I -0.70710678118654746 0.70710678118654746 0.5 forward I I I I #
loop $-1 $-1 $166 $47 #
coedge $-1 $105 $105 $167 $168 reversed $65 $-1 #
face $-1 $-1 $169 $37 $-1 $170 forward single #
loop $-1 $171 $172 $67 #
cone-surface $-1 -56.571646863805732 -16.690878132833795 3.3899980717643352 0.62932039886446345 0 -0.77714595512881146 0.38857297756440573 0 0.31466019943223172 1 I I -0.70710678118654746 0.70710678118654746 0.5 forward I I I I #
loop $-1 $-1 $173 $48 #
coedge $-1 $110 $110 $174 $175 reversed $68 $-1 #
face $-1 $176 $177 $38 $-1 $178 reversed single #
loop $-1 $-1 $179 $70 #
plane-surface $-1 -20.634067055679182 -3.3724370054951898 91.344606813210845 0.74314483375859142 0 0.66913059716165679 0.66913059716165679 0 -0.74314483375859142 forward_v I I I I #
coedge $-1 $180 $181 $182 $183 reversed $71 $-1 #
face $-1 $-1 $184 $39 $-1 $185 forward single #
loop $-1 $186 $187 $73 #
cone-surface $-1 56.377985385799164 -4.8177671507074145 2.7232227648498029 -0.74314483375859142 0 -0.66913059716165679 0.1672826492904142 0 -0.18578620843964785 1 I I -0.70710678118654746 0.70710678118654746 0.25 forward I I I I #
loop $-1 $-1 $188 $50 #
coedge $-1 $119 $119 $189 $190 reversed $74 $-1 #
face $-1 $-1 $191 $40 $-1 $192 forward single #
loop $-1 $193 $194 $76 #
cone-surface $-1 56.377985385799164 -1.9271068602829651 2.7232227648498029 -0.74314483375859142 0 -0.66913059716165679 0.1672826492904142 0 -0.18578620843964785 1 I I -0.70710678118654746 0.70710678118654746 0.25 forward I I I I #
loop $-1 $-1 $195 $51 #
coedge $-1 $124 $124 $196 $197 reversed $77 $-1 #
face $-1 $198 $199 $41 $-1 $200 reversed single #
loop $-1 $-1 $201 $79 #
plane-surface $-1 -20.634067055679182 24.01677277894478 91.344606813210845 0.74314483375859142 0 0.66913059716165679 0.66913059716165679 0 -0.74314483375859142 forward_v I I I I #
coedge $-1 $202 $203 $204 $205 reversed $80 $-1 #
face $-1 $-1 $206 $42 $-1 $207 forward single #
loop $-1 $208 $209 $82 #
cone-surface $-1 56.377985385799164 22.571442633732556 2.7232227648498029 -0.74314483375859142 0 -0.66913059716165679 0.1672826492904142 0 -0.18578620843964785 1 I I -0.70710678118654746 0.70710678118654746 0.25 forward I I I I #
loop $-1 $-1 $210 $53 #
coedge $-1 $133 $133 $211 $212 reversed $83 $-1 #
face $-1 $-1 $213 $43 $-1 $214 forward single #
loop $-1 $215 $216 $85 #
cone-surface $-1 56.377985385799164 25.462102924157005 2.7232227648498029 -0.74314483375859142 0 -0.66913059716165679 0.1672826492904142 0 -0.18578620843964785 1 I I -0.70710678118654746 0.70710678118654746 0.25 forward I I I I #
loop $-1 $-1 $217 $54 #
coedge $-1 $138 $138 $218 $219 reversed $86 $-1 #
face $-1 $220 $221 $33 $-1 $222 reversed single #
loop $-1 $-1 $223 $88 #
plane-surface $-1 0 -27.389209784439974 0 0 1 0 0 0 1 forward_v I I I I #
coedge $-1 $224 $225 $226 $227 forward $89 $-1 #
coedge $-1 $228 $91 $229 $230 forward $56 $-1 #
coedge $-1 $91 $228 $231 $232 forward $56 $-1 #
coedge $-1 $233 $234 $91 $146 reversed $235 $-1 #
edge $-1 $236 -27.389209784439974 $237 27.389209784439974 $145 $238 forward 7 unknown #
face $-1 $239 $240 $34 $-1 $241 reversed single #
loop $-1 $-1 $242 $92 #
plane-surface $-1 0 0 7.5338507250628961 0 0 1 1 0 0 forward_v I I I I #
coedge $-1 $243 $244 $245 $246 reversed $93 $-1 #
coedge $-1 $152 $95 $247 $248 reversed $59 $-1 #
coedge $-1 $95 $151 $243 $249 reversed $59 $-1 #
coedge $-1 $245 $250 $95 $154 forward $240 $-1 #
edge $-1 $251 41.114960015862287 $252 46.163612435530908 $153 $253 forward 7 unknown #
loop $-1 $-1 $160 $96 #
plane-surface $-1 -61.000396740623188 -20.702752502186115 2.4851983053942774 -0.62932039886446345 0 0.77714595512881146 0.77714595512881146 0 0.62932039886446345 forward_v I I I I #
loop $-1 $-1 $254 $61 #
coedge $-1 $158 $158 $159 $255 reversed $97 $-1 #
coedge $-1 $159 $159 $158 $255 forward $99 $-1 #
coedge $-1 $160 $160 $100 $161 forward $155 $-1 #
edge $-1 $256 0 $256 6.2831853071796004 $160 $257 forward 7 unknown #
loop $-1 $-1 $167 $101 #
plane-surface $-1 -61.000396740623188 -20.702752502186115 2.4851983053942774 -0.62932039886446345 0 0.77714595512881146 0.77714595512881146 0 0.62932039886446345 forward_v I I I I #
loop $-1 $-1 $258 $64 #
coedge $-1 $165 $165 $166 $259 reversed $102 $-1 #
coedge $-1 $166 $166 $165 $259 forward $104 $-1 #
coedge $-1 $167 $167 $105 $168 forward $162 $-1 #
edge $-1 $260 0 $260 6.2831853071796004 $167 $261 forward 7 unknown #
loop $-1 $-1 $174 $106 #
plane-surface $-1 -61.000396740623188 -20.702752502186115 2.4851983053942774 -0.62932039886446345 0 0.77714595512881146 0.77714595512881146 0 0.62932039886446345 forward_v I I I I #
loop $-1 $-1 $262 $67 #
coedge $-1 $172 $172 $173 $263 reversed $107 $-1 #
coedge $-1 $173 $173 $172 $263 forward $109 $-1 #
coedge $-1 $174 $174 $110 $175 forward $169 $-1 #
edge $-1 $264 0 $264 6.2831853071796004 $174 $265 forward 7 unknown #
face $-1 $266 $267 $38 $-1 $268 reversed single #
loop $-1 $-1 $269 $111 #
plane-surface $-1 70.030192334357906 -6.7448740109903795 172.9790706095132 0 1 0 0.74314483375859142 0 0.66913059716165679 forward_v I I I I #
coedge $-1 $270 $271 $272 $273 reversed $112 $-1 #
coedge $-1 $181 $114 $274 $275 reversed $71 $-1 #
coedge $-1 $114 $180 $270 $276 reversed $71 $-1 #
coedge $-1 $272 $277 $114 $183 forward $278 $-1 #
edge $-1 $279 -25.985300573444235 $280 -19.81437863639934 $182 $281 forward 7 unknown #
loop $-1 $-1 $189 $115 #
plane-surface $-1 -20.634067055679182 -3.3724370054951898 91.344606813210845 0.74314483375859142 0 0.66913059716165679 0.66913059716165679 0 -0.74314483375859142 forward_v I I I I #
loop $-1 $-1 $282 $73 #
coedge $-1 $187 $187 $188 $283 reversed $116 $-1 #
coedge $-1 $188 $188 $187 $283 forward $118 $-1 #
coedge $-1 $189 $189 $119 $190 forward $184 $-1 #
edge $-1 $284 0 $284 6.2831853071796004 $189 $285 forward 7 unknown #
loop $-1 $-1 $196 $120 #
plane-surface $-1 -20.634067055679182 -3.3724370054951898 91.344606813210845 0.74314483375859142 0 0.66913059716165679 0.66913059716165679 0 -0.74314483375859142 forward_v I I I I #
loop $-1 $-1 $286 $76 #
coedge $-1 $194 $194 $195 $287 reversed $121 $-1 #
coedge $-1 $195 $195 $194 $287 forward $123 $-1 #
coedge $-1 $196 $196 $124 $197 forward $191 $-1 #
edge $-1 $288 0 $288 6.2831853071796004 $196 $289 forward 7 unknown #
face $-1 $290 $291 $41 $-1 $292 reversed single #
loop $-1 $-1 $204 $125 #
plane-surface $-1 61.000396740623188 0 0 -1 0 0 0 0 1 forward_v I I I I #
coedge $-1 $293 $294 $295 $296 reversed $126 $-1 #
coedge $-1 $203 $128 $297 $298 reversed $80 $-1 #
coedge $-1 $128 $202 $293 $299 reversed $80 $-1 #
coedge $-1 $295 $300 $128 $205 forward $199 $-1 #
edge $-1 $301 78.95568457969371 $302 85.809187881582858 $204 $303 forward 7 unknown #
loop $-1 $-1 $211 $129 #
plane-surface $-1 -20.634067055679182 24.01677277894478 91.344606813210845 0.74314483375859142 0 0.66913059716165679 0.66913059716165679 0 -0.74314483375859142 forward_v I I I I #
loop $-1 $-1 $304 $82 #
coedge $-1 $209 $209 $210 $305 reversed $130 $-1 #
coedge $-1 $210 $210 $209 $305 forward $132 $-1 #
coedge $-1 $211 $211 $133 $212 forward $206 $-1 #
edge $-1 $306 0 $306 6.2831853071796004 $211 $307 forward 7 unknown #
loop $-1 $-1 $218 $134 #
plane-surface $-1 -20.634067055679182 24.01677277894478 91.344606813210845 0.74314483375859142 0 0.66913059716165679 0.66913059716165679 0 -0.74314483375859142 forward_v I I I I #
loop $-1 $-1 $308 $85 #
coedge $-1 $216 $216 $217 $309 reversed $135 $-1 #
coedge $-1 $217 $217 $216 $309 forward $137 $-1 #
coedge $-1 $218 $218 $138 $219 forward $213 $-1 #
edge $-1 $310 0 $310 6.2831853071796004 $218 $311 forward 7 unknown #
face $-1 $312 $313 $33 $-1 $314 reversed single #
loop $-1 $-1 $315 $139 #
plane-surface $-1 -61.000396740623188 0 0 1 0 0 0 0 -1 forward_v I I I I #
coedge $-1 $316 $231 $317 $318 forward $140 $-1 #
coedge $-1 $319 $142 $316 $320 forward $89 $-1 #
coedge $-1 $142 $319 $321 $322 forward $89 $-1 #
coedge $-1 $234 $233 $142 $227 reversed $235 $-1 #
edge $-1 $323 -27.389209784439974 $324 27.389209784439974 $226 $325 forward 7 unknown #
coedge $-1 $144 $143 $326 $327 forward $56 $-1 #
coedge $-1 $328 $329 $143 $230 reversed $313 $-1 #
edge $-1 $237 -61.000396740623188 $330 61.000396740623188 $229 $331 forward 7 unknown #
coedge $-1 $223 $332 $144 $232 reversed $140 $-1 #
edge $-1 $333 -61.000396740623188 $236 61.000396740623188 $231 $334 forward 7 unknown #
coedge $-1 $226 $145 $332 $335 forward $235 $-1 #
coedge $-1 $145 $226 $328 $336 reversed $235 $-1 #
loop $-1 $-1 $233 $312 #
vertex $-1 $146 $337 #
vertex $-1 $146 $338 #
straight-curve $-1 61.000396740623188 0 7.5338507250628961 0 1 0 I I #
face $-1 $-1 $339 $34 $-1 $340 reversed single #
loop $-1 $-1 $153 $147 #
plane-surface $-1 -61.000396740623188 0 0 1 0 0 0 0 -1 forward_v I I I I #
coedge $-1 $247 $341 $342 $343 forward $148 $-1 #
coedge $-1 $342 $150 $152 $249 forward $93 $-1 #
coedge $-1 $150 $342 $344 $345 reversed $93 $-1 #
coedge $-1 $346 $153 $150 $246 forward $240 $-1 #
edge $-1 $252 3.6649189688391974 $347 17.037833533346916 $245 $348 forward 7 unknown #
coedge $-1 $349 $242 $151 $248 forward $148 $-1 #
edge $-1 $350 -14.123162026585419 $251 -7.8885956373879083 $247 $351 forward 7 unknown #
edge $-1 $252 0 $350 8.0223880058207797 $152 $352 forward 7 unknown #
coedge $-1 $153 $346 $349 $353 reversed $240 $-1 #
vertex $-1 $353 $354 #
vertex $-1 $154 $355 #
straight-curve $-1 -61.000396740623188 -14.016295219932255 48.648810740925185 0 0 -1 I I #
coedge $-1 $254 $254 $-1 $356 reversed $157 $-1 #
edge $-1 $357 0 $357 6.2831853071796004 $158 $358 forward 7 unknown #
vertex $-1 $161 $359 #
ellipse-curve $-1 -57.88311354602444 -24.714626871538428 5.0095245152285841 -0.62932039886446345 0 0.77714595512881146 0.77714595512881146 0 0.62932039886446345 1 I I #
coedge $-1 $258 $258 $-1 $360 reversed $164 $-1 #
edge $-1 $361 0 $361 6.2831853071796004 $165 $362 forward 7 unknown #
vertex $-1 $168 $363 #
ellipse-curve $-1 -57.88311354602444 -20.702752502186115 5.0095245152285841 -0.62932039886446345 0 0.77714595512881146 0.77714595512881146 0 0.62932039886446345 1 I I #
coedge $-1 $262 $262 $-1 $364 reversed $171 $-1 #
edge $-1 $365 0 $365 6.2831853071796004 $172 $366 forward 7 unknown #
vertex $-1 $175 $367 #
ellipse-curve $-1 -57.88311354602444 -16.690878132833795 5.0095245152285841 -0.62932039886446345 0 0.77714595512881146 0.77714595512881146 0 0.62932039886446345 1 I I #
face $-1 $-1 $278 $38 $-1 $368 forward single #
loop $-1 $-1 $369 $176 #
plane-surface $-1 61.000396740623188 0 0 -1 0 0 0 0 1 forward_v I I I I #
coedge $-1 $370 $371 $372 $373 reversed $177 $-1 #
coedge $-1 $374 $179 $181 $276 forward $112 $-1 #
coedge $-1 $179 $374 $370 $375 forward $112 $-1 #
coedge $-1 $372 $182 $179 $273 forward $278 $-1 #
edge $-1 $280 -1.6862185027475949 $376 5.0586555082427846 $272 $377 forward 7 unknown #
coedge $-1 $378 $379 $180 $275 forward $267 $-1 #
edge $-1 $380 -85.809187881582858 $279 -78.95568457969371 $274 $381 forward 7 unknown #
edge $-1 $280 112.77849522852721 $380 122.00079348124638 $181 $382 forward 7 unknown #
coedge $-1 $182 $372 $378 $383 forward $278 $-1 #
loop $-1 $-1 $372 $266 #
vertex $-1 $275 $384 #
vertex $-1 $183 $385 #
straight-curve $-1 35.015096167178953 0 7.5338507250628908 -1 0 0 I I #
coedge $-1 $282 $282 $-1 $386 reversed $186 $-1 #
edge $-1 $387 0 $387 6.2831853071796004 $187 $388 forward 7 unknown #
vertex $-1 $190 $389 #
ellipse-curve $-1 57.914935772100733 -4.8177671507074145 4.1070990741183282 0.74314483375859142 0 0.66913059716165679 0.3345652985808284 0 -0.37157241687929571 1 I I #
coedge $-1 $286 $286 $-1 $390 reversed $193 $-1 #
edge $-1 $391 0 $391 6.2831853071796004 $194 $392 forward 7 unknown #
vertex $-1 $197 $393 #
ellipse-curve $-1 57.914935772100733 -1.9271068602829651 4.1070990741183282 0.74314483375859142 0 0.66913059716165679 0.3345652985808284 0 -0.37157241687929571 1 I I #
face $-1 $-1 $394 $41 $-1 $395 forward single #
loop $-1 $-1 $396 $198 #
plane-surface $-1 0 27.389209784439974 0 0 -1 0 0 0 -1 forward_v I I I I #
coedge $-1 $397 $201 $203 $299 forward $126 $-1 #
coedge $-1 $201 $397 $396 $398 reversed $126 $-1 #
coedge $-1 $399 $204 $201 $296 forward $199 $-1 #
edge $-1 $302 8.6359493839772004 $400 15.380823394967583 $295 $401 forward 7 unknown #
coedge $-1 $402 $403 $202 $298 forward $394 $-1 #
edge $-1 $404 19.81437863639934 $301 25.985300573444235 $297 $405 forward 7 unknown #
edge $-1 $302 -122.00079348124638 $404 -112.77849522852721 $203 $406 forward 7 unknown #
coedge $-1 $204 $399 $402 $407 reversed $199 $-1 #
vertex $-1 $407 $408 #
vertex $-1 $205 $409 #
straight-curve $-1 61.000396740623188 20.64433577344959 86.4895353047566 0 0 -1 I I #
coedge $-1 $304 $304 $-1 $410 reversed $208 $-1 #
edge $-1 $411 0 $411 6.2831853071796004 $209 $412 forward 7 unknown #
vertex $-1 $212 $413 #
ellipse-curve $-1 57.914935772100733 22.571442633732556 4.1070990741183282 0.74314483375859142 0 0.66913059716165679 0.3345652985808284 0 -0.37157241687929571 1 I I #
coedge $-1 $308 $308 $-1 $414 reversed $215 $-1 #
edge $-1 $415 0 $415 6.2831853071796004 $216 $416 forward 7 unknown #
vertex $-1 $219 $417 #
ellipse-curve $-1 57.914935772100733 25.462102924157005 4.1070990741183282 0.74314483375859142 0 0.66913059716165679 0.3345652985808284 0 -0.37157241687929571 1 I I #
face $-1 $-1 $235 $33 $-1 $418 reversed single #
loop $-1 $-1 $328 $220 #
plane-surface $-1 0 27.389209784439974 0 0 -1 0 0 0 -1 forward_v I I I I #
coedge $-1 $419 $326 $329 $420 forward $221 $-1 #
coedge $-1 $332 $223 $224 $320 reversed $140 $-1 #
coedge $-1 $326 $419 $223 $318 reversed $221 $-1 #
edge $-1 $333 -7.5338507250628961 $421 7.5338507250628961 $317 $422 forward 7 unknown #
coedge $-1 $225 $224 $419 $423 forward $89 $-1 #
edge $-1 $324 -61.000396740623188 $421 61.000396740623188 $316 $424 forward 7 unknown #
coedge $-1 $329 $328 $225 $322 reversed $313 $-1 #
edge $-1 $425 -61.000396740623188 $323 61.000396740623188 $321 $426 forward 7 unknown #
vertex $-1 $227 $427 #
vertex $-1 $335 $428 #
straight-curve $-1 61.000396740623188 0 -7.5338507250628961 0 -1 0 I I #
coedge $-1 $315 $317 $228 $327 reversed $221 $-1 #
edge $-1 $330 -27.389209784439974 $333 27.389209784439974 $326 $429 forward 7 unknown #
coedge $-1 $321 $229 $234 $336 forward $313 $-1 #
coedge $-1 $229 $321 $315 $420 reversed $313 $-1 #
vertex $-1 $230 $430 #
straight-curve $-1 0 27.389209784439974 7.5338507250628961 -1 0 0 I I #
coedge $-1 $231 $316 $233 $335 reversed $140 $-1 #
vertex $-1 $327 $431 #
straight-curve $-1 0 -27.389209784439974 7.5338507250628961 1 0 0 I I #
edge $-1 $236 -7.5338507250628961 $324 7.5338507250628961 $233 $432 forward 7 unknown #
edge $-1 $237 -7.5338507250628961 $323 7.5338507250628961 $234 $433 forward 7 unknown #
point $-1 61.000396740623188 -27.389209784439974 7.5338507250628961 #
point $-1 61.000396740623188 27.389209784439974 7.5338507250628961 #
loop $-1 $-1 $344 $239 #
plane-surface $-1 0 -27.389209784439974 0 0 1 0 0 0 1 forward_v I I I I #
coedge $-1 $242 $349 $434 $435 forward $148 $-1 #
coedge $-1 $244 $243 $242 $343 reversed $93 $-1 #
edge $-1 $436 -17.03783353334692 $350 -3.6649189688391974 $242 $437 forward 7 unknown #
coedge $-1 $434 $438 $244 $345 forward $339 $-1 #
edge $-1 $347 -22.921112799710016 $436 -14.898724793889237 $344 $439 forward 7 unknown #
coedge $-1 $250 $245 $438 $440 reversed $240 $-1 #
vertex $-1 $246 $441 #
straight-curve $-1 -61.000396740623188 -10.351376251093058 2.4851983053942788 0 -1 0 I I #
coedge $-1 $341 $247 $250 $353 forward $148 $-1 #
vertex $-1 $248 $442 #
straight-curve $-1 -68.888992378011096 -14.016295219932255 7.5338507250628979 -1 0 0 I I #
straight-curve $-1 -61.000396740623188 -14.016295219932255 2.4851983053942774 0.77714595512881146 0 0.62932039886446345 I I #
edge $-1 $251 14.016295219932255 $443 27.389209784439974 $250 $444 forward 7 unknown #
point $-1 -61.000396740623188 -14.016295219932255 7.5338507250628961 #
point $-1 -61.000396740623188 -14.016295219932255 2.4851983053942774 #
edge $-1 $445 1 $445 0 $254 $-1 forward 7 unknown #
vertex $-1 $255 $446 #
ellipse-curve $-1 -56.886307063237965 -24.714626871538428 3.778571049328741 -0.62932039886446345 0 0.77714595512881146 0.77714595512881146 0 0.62932039886446345 1 I I #
point $-1 -57.105967590895631 -24.714626871538428 5.6388449140930561 #
edge $-1 $447 1 $447 0 $258 $-1 forward 7 unknown #
vertex $-1 $259 $448 #
ellipse-curve $-1 -56.886307063237965 -20.702752502186115 3.778571049328741 -0.62932039886446345 0 0.77714595512881146 0.77714595512881146 0 0.62932039886446345 1 I I #
point $-1 -57.105967590895631 -20.702752502186115 5.6388449140930561 #
edge $-1 $449 1 $449 0 $262 $-1 forward 7 unknown #
vertex $-1 $263 $450 #
ellipse-curve $-1 -56.886307063237965 -16.690878132833795 3.778571049328741 -0.62932039886446345 0 0.77714595512881146 0.77714595512881146 0 0.62932039886446345 1 I I #
point $-1 -57.105967590895631 -16.690878132833795 5.6388449140930561 #
plane-surface $-1 0 0 7.5338507250628961 0 0 1 1 0 0 forward_v I I I I #
coedge $-1 $379 $378 $371 $451 forward $267 $-1 #
coedge $-1 $371 $269 $271 $375 reversed $177 $-1 #
coedge $-1 $269 $370 $369 $451 reversed $177 $-1 #
coedge $-1 $277 $272 $269 $373 forward $278 $-1 #
edge $-1 $376 19.81437863639934 $452 25.985300573444235 $372 $453 forward 7 unknown #
coedge $-1 $271 $270 $379 $454 reversed $112 $-1 #
edge $-1 $455 -122.00079348124638 $376 -112.77849522852721 $370 $456 forward 7 unknown #
vertex $-1 $273 $457 #
straight-curve $-1 54.829474803578286 -1.6862185027475949 7.5338507250628979 0 -1 0 I I #
coedge $-1 $369 $274 $277 $383 reversed $267 $-1 #
coedge $-1 $274 $369 $374 $454 forward $267 $-1 #
vertex $-1 $275 $458 #
straight-curve $-1 61.000396740623188 0 86.4895353047566 0 0 1 I I #
straight-curve $-1 -20.634067055679182 0 91.344606813210845 0.66913059716165679 0 -0.74314483375859142 I I #
edge $-1 $452 -6.7448740109903795 $279 0 $378 $459 forward 7 unknown #
point $-1 61.000396740623188 0 7.5338507250628961 #
point $-1 54.829474803578293 0 7.5338507250628908 #
edge $-1 $460 1 $460 0 $282 $-1 forward 7 unknown #
vertex $-1 $283 $461 #
ellipse-curve $-1 56.563771594238808 -4.8177671507074145 2.8905054141402169 0.74314483375859142 0 0.66913059716165679 0.3345652985808284 0 -0.37157241687929571 1 I I #
point $-1 58.249501070681568 -4.8177671507074145 3.7355266572390353 #
edge $-1 $462 1 $462 0 $286 $-1 forward 7 unknown #
vertex $-1 $287 $463 #
ellipse-curve $-1 56.563771594238808 -1.9271068602829651 2.8905054141402169 0.74314483375859142 0 0.66913059716165679 0.3345652985808284 0 -0.37157241687929571 1 I I #
point $-1 58.249501070681568 -1.9271068602829651 3.7355266572390353 #
loop $-1 $-1 $297 $290 #
plane-surface $-1 0 0 7.5338507250628961 0 0 1 1 0 0 forward_v I I I I #
coedge $-1 $464 $465 $294 $398 forward $291 $-1 #
coedge $-1 $294 $293 $403 $466 reversed $126 $-1 #
edge $-1 $400 -81.15621435335251 $467 -71.933916100633326 $396 $468 forward 7 unknown #
coedge $-1 $300 $295 $465 $469 reversed $199 $-1 #
vertex $-1 $398 $470 #
straight-curve $-1 61.000396740623188 12.00838638947239 0.68034742317374963 0 1 0 I I #
coedge $-1 $471 $297 $300 $407 forward $394 $-1 #
coedge $-1 $297 $471 $397 $466 forward $394 $-1 #
vertex $-1 $298 $472 #
straight-curve $-1 35.015096167178953 20.64433577344959 7.5338507250628908 1 0 0 I I #
straight-curve $-1 -20.634067055679182 20.64433577344959 91.344606813210845 -0.66913059716165679 0 0.74314483375859142 I I #
edge $-1 $301 20.64433577344959 $473 27.389209784439974 $300 $474 forward 7 unknown #
point $-1 61.000396740623188 20.64433577344959 7.5338507250628961 #
point $-1 61.000396740623188 20.64433577344959 0.68034742317374253 #
edge $-1 $475 1 $475 0 $304 $-1 forward 7 unknown #
vertex $-1 $305 $476 #
ellipse-curve $-1 56.563771594238808 22.571442633732556 2.8905054141402169 0.74314483375859142 0 0.66913059716165679 0.3345652985808284 0 -0.37157241687929571 1 I I #
point $-1 58.249501070681568 22.571442633732556 3.7355266572390353 #
edge $-1 $477 1 $477 0 $308 $-1 forward 7 unknown #
vertex $-1 $309 $478 #
ellipse-curve $-1 56.563771594238808 25.462102924157005 2.8905054141402169 0.74314483375859142 0 0.66913059716165679 0.3345652985808284 0 -0.37157241687929571 1 I I #
point $-1 58.249501070681568 25.462102924157005 3.7355266572390353 #
plane-surface $-1 61.000396740623188 0 0 -1 0 0 0 0 1 forward_v I I I I #
coedge $-1 $317 $315 $319 $423 reversed $221 $-1 #
edge $-1 $330 -7.5338507250628961 $425 7.5338507250628961 $329 $479 forward 7 unknown #
vertex $-1 $423 $480 #
straight-curve $-1 -61.000396740623188 -27.389209784439974 0 0 0 -1 I I #
edge $-1 $421 -27.389209784439974 $425 27.389209784439974 $419 $481 forward 7 unknown #
straight-curve $-1 0 -27.389209784439974 -7.5338507250628961 -1 0 0 I I #
vertex $-1 $322 $482 #
straight-curve $-1 0 27.389209784439974 -7.5338507250628961 1 0 0 I I #
point $-1 61.000396740623188 27.389209784439974 -7.5338507250628961 #
point $-1 61.000396740623188 -27.389209784439974 -7.5338507250628961 #
straight-curve $-1 -61.000396740623188 0 7.5338507250628961 0 -1 0 I I #
point $-1 -61.000396740623188 27.389209784439974 7.5338507250628961 #
point $-1 -61.000396740623188 -27.389209784439974 7.5338507250628961 #
straight-curve $-1 61.000396740623188 -27.389209784439974 0 0 0 -1 I I #
straight-curve $-1 61.000396740623188 27.389209784439974 0 0 0 -1 I I #
coedge $-1 $438 $344 $341 $435 reversed $339 $-1 #
edge $-1 $443 -61.000396740623188 $436 -54.765830351425677 $434 $483 forward 7 unknown #
vertex $-1 $345 $484 #
straight-curve $-1 -54.765830351425677 -10.351376251093058 7.5338507250628961 0 1 0 I I #
coedge $-1 $344 $434 $346 $440 forward $339 $-1 #
straight-curve $-1 -43.187346641277323 -27.389209784439974 16.909922154925141 0.77714595512881146 0 0.62932039886446345 I I #
edge $-1 $443 -7.5338507250628961 $347 -2.4851983053942774 $346 $485 forward 7 unknown #
point $-1 -61.000396740623188 -27.389209784439974 2.4851983053942774 #
point $-1 -54.765830351425677 -14.016295219932255 7.5338507250628961 #
vertex $-1 $353 $486 #
straight-curve $-1 -61.000396740623188 0 7.5338507250628961 0 -1 0 I I #
vertex $-1 $356 $487 #
point $-1 -56.109161108109156 -24.714626871538428 4.4078914481932046 #
vertex $-1 $360 $488 #
point $-1 -56.109161108109156 -20.702752502186115 4.4078914481932046 #
vertex $-1 $364 $489 #
point $-1 -56.109161108109156 -16.690878132833795 4.4078914481932046 #
edge $-1 $452 78.95568457969371 $455 85.809187881582858 $369 $490 forward 7 unknown #
vertex $-1 $383 $491 #
straight-curve $-1 35.015096167178953 -6.7448740109903795 7.5338507250628908 1 0 0 I I #
edge $-1 $455 -5.0586555082427846 $380 1.6862185027475949 $379 $492 forward 7 unknown #
vertex $-1 $454 $493 #
straight-curve $-1 -20.634067055679182 -6.7448740109903795 91.344606813210845 -0.66913059716165679 0 0.74314483375859142 I I #
point $-1 54.829474803578293 -6.7448740109903795 7.5338507250628908 #
point $-1 61.000396740623188 0 0.68034742317374253 #
straight-curve $-1 61.000396740623188 0 7.5338507250628961 0 1 0 I I #
vertex $-1 $386 $494 #
point $-1 56.898336892819643 -4.8177671507074145 2.5189329972609213 #
vertex $-1 $390 $495 #
point $-1 56.898336892819643 -1.9271068602829651 2.5189329972609213 #
coedge $-1 $465 $396 $471 $496 reversed $291 $-1 #
coedge $-1 $396 $464 $399 $469 forward $291 $-1 #
edge $-1 $467 -15.38082339496758 $404 -8.6359493839772004 $403 $497 forward 7 unknown #
vertex $-1 $398 $498 #
straight-curve $-1 6.6962905669849917 27.389209784439974 60.991168847272512 -0.66913059716165679 0 0.74314483375859142 I I #
edge $-1 $473 -7.5338507250628961 $400 -0.68034742317375041 $399 $499 forward 7 unknown #
point $-1 61.000396740623188 27.389209784439974 0.68034742317375041 #
coedge $-1 $403 $402 $464 $496 forward $394 $-1 #
point $-1 54.829474803578293 20.64433577344959 7.5338507250628908 #
vertex $-1 $407 $500 #
straight-curve $-1 61.000396740623188 0 7.5338507250628961 0 1 0 I I #
vertex $-1 $410 $501 #
point $-1 56.898336892819643 22.571442633732556 2.5189329972609213 #
vertex $-1 $414 $502 #
point $-1 56.898336892819643 25.462102924157005 2.5189329972609213 #
straight-curve $-1 -61.000396740623188 27.389209784439974 0 0 0 -1 I I #
point $-1 -61.000396740623188 -27.389209784439974 -7.5338507250628961 #
straight-curve $-1 -61.000396740623188 0 -7.5338507250628961 0 1 0 I I #
point $-1 -61.000396740623188 27.389209784439974 -7.5338507250628961 #
straight-curve $-1 0 -27.389209784439974 7.5338507250628961 1 0 0 I I #
point $-1 -54.765830351425677 -27.389209784439977 7.5338507250628961 #
straight-curve $-1 -61.000396740623188 -27.389209784439974 0 0 0 -1 I I #
point $-1 -61.000396740623188 -27.389209784439974 7.5338507250628961 #
point $-1 -56.2569866643735 -24.714626871538428 3.0014250941999294 #
point $-1 -56.2569866643735 -20.702752502186115 3.0014250941999294 #
point $-1 -56.2569866643735 -16.690878132833795 3.0014250941999294 #
straight-curve $-1 61.000396740623188 -6.7448740109903795 86.4895353047566 0 0 -1 I I #
point $-1 61.000396740623188 -6.7448740109903795 7.5338507250628961 #
straight-curve $-1 61.000396740623188 -1.6862185027475949 0.68034742317374963 0 1 0 I I #
point $-1 61.000396740623188 -6.7448740109903795 0.68034742317374253 #
point $-1 56.19219917735952 -4.8177671507074145 2.5559401155593888 #
point $-1 56.19219917735952 -1.9271068602829651 2.5559401155593888 #
edge $-1 $473 -61.000396740623188 $467 -54.829474803578293 $464 $503 forward 7 unknown #
straight-curve $-1 54.829474803578286 12.00838638947239 7.5338507250628979 0 -1 0 I I #
point $-1 54.829474803578293 27.38920978443997 7.5338507250628908 #
straight-curve $-1 61.000396740623188 27.389209784439974 0 0 0 -1 I I #
point $-1 61.000396740623188 27.389209784439974 7.5338507250628961 #
point $-1 56.19219917735952 22.571442633732556 2.5559401155593888 #
point $-1 56.19219917735952 25.462102924157005 2.5559401155593888 #
straight-curve $-1 0 27.389209784439974 7.5338507250628961 -1 0 0 I I #
End-of-ACIS-data 