500 0 6 0           
7 Unknown 11 ACIS 5.0 NT 24 Fri Mar 26 19:06:31 1999 
-1 9.9999999999999995e-007 1e-010 
body $-1 $6 $-1 $7 #
body $-1 $8 $-1 $9 #
body $-1 $10 $-1 $11 #
body $-1 $12 $-1 $13 #
body $-1 $14 $-1 $15 #
body $-1 $16 $-1 $17 #
lump $-1 $-1 $18 $0 #
transform $-1 1 0 0 0 1 0 0 0 1 51.783806878872035 29.837757775053184 7.3397405619758045 1 rotate no_reflect no_shear #
lump $-1 $-1 $19 $1 #
transform $-1 1 0 0 0 1 0 0 0 1 51.783806878872035 29.837757775053184 7.3397405619758045 1 rotate no_reflect no_shear #
lump $-1 $-1 $20 $2 #
transform $-1 1 0 0 0 1 0 0 0 1 51.783806878872035 29.837757775053184 7.3397405619758045 1 rotate no_reflect no_shear #
lump $-1 $-1 $21 $3 #
transform $-1 1 0 0 0 1 0 0 0 1 51.783806878872035 29.837757775053184 7.3397405619758045 1 rotate no_reflect no_shear #
lump $-1 $-1 $22 $4 #
transform $-1 1 0 0 0 1 0 0 0 1 51.783806878872035 29.837757775053184 7.3397405619758045 1 rotate no_reflect no_shear #
lump $-1 $-1 $23 $5 #
transform $-1 1 0 0 0 1 0 0 0 1 51.783806878872035 29.837757775053184 7.3397405619758045 1 rotate no_reflect no_shear #
shell $-1 $-1 $-1 $24 $-1 $6 #
shell $-1 $-1 $-1 $25 $-1 $8 #
shell $-1 $-1 $-1 $26 $-1 $10 #
shell $-1 $-1 $-1 $27 $-1 $12 #
shell $-1 $-1 $-1 $28 $-1 $14 #
shell $-1 $-1 $-1 $29 $-1 $16 #
face $-1 $30 $31 $18 $-1 $32 forward single #
face $-1 $33 $34 $19 $-1 $35 forward single #
face $-1 $36 $37 $20 $-1 $38 reversed single #
face $-1 $39 $40 $21 $-1 $41 forward single #
face $-1 $42 $43 $22 $-1 $44 reversed single #
face $-1 $45 $46 $23 $-1 $47 forward single #
face $-1 $48 $49 $18 $-1 $50 reversed single #
loop $-1 $-1 $51 $24 #
plane-surface $-1 0 0 7.3397405619758045 0 0 1 1 0 0 forward_v I I I I #
face $-1 $52 $53 $19 $-1 $54 reversed single #
loop $-1 $-1 $55 $25 #
plane-surface $-1 -48.15436822639564 0 0.14748707160147756 0 0 1 1 0 0 forward_v I I I I #
face $-1 $56 $57 $20 $-1 $58 reversed single #
loop $-1 $-1 $59 $26 #
plane-surface $-1 25.626404612518201 -83.179022897434862 90.697040687551606 1 0 0 0 0.51503808176128008 -0.85716729658548041 forward_v I I I I #
face $-1 $60 $61 $21 $-1 $62 forward single #
loop $-1 $63 $64 $27 #
cone-surface $-1 38.705105745695128 -24.822151634446957 3.7863614243419574 0 0.51503808176128008 -0.85716729658548041 1.5 0 0 1 I I 0 1 1.5 forward I I I I #
face $-1 $65 $66 $22 $-1 $67 reversed single #
loop $-1 $-1 $68 $28 #
plane-surface $-1 25.626404612518201 32.027122561005385 121.43220374459382 1 0 0 0 -0.51503808176128008 -0.85716729658548041 forward_v I I I I #
face $-1 $69 $70 $23 $-1 $71 forward single #
loop $-1 $72 $73 $29 #
cone-surface $-1 38.705105745695128 24.822151634446964 3.786361424341961 0 -0.51503808176128008 -0.85716729658548041 1.5 0 0 1 I I 0 1 1.5 forward I I I I #
face $-1 $74 $75 $18 $-1 $76 reversed single #
loop $-1 $-1 $77 $30 #
plane-surface $-1 0 0 -7.3397405619758045 0 0 1 1 0 0 forward_v I I I I #
coedge $-1 $78 $79 $80 $81 forward $31 $-1 #
face $-1 $82 $83 $19 $-1 $84 reversed single #
loop $-1 $-1 $85 $33 #
plane-surface $-1 -48.15436822639564 0 -2.8525129283985224 0 0 1 1 0 0 forward_v I I I I #
coedge $-1 $86 $87 $88 $89 forward $34 $-1 #
face $-1 $90 $91 $20 $-1 $92 forward single #
loop $-1 $-1 $93 $36 #
plane-surface $-1 38.705105745695114 -29.837757775053198 1.9222691890169159 0 -0.51503808176128008 0.85716729658548041 1 0 0 forward_v I I I I #
coedge $-1 $94 $95 $96 $97 reversed $37 $-1 #
face $-1 $-1 $98 $21 $-1 $99 forward single #
loop $-1 $100 $101 $39 #
cone-surface $-1 38.705105745695128 -23.928360077019285 2.2988425007484503 0 0.51503808176128008 -0.85716729658548041 0.75 0 0 1 I I -0.70710678118654757 0.70710678118654757 0.75 forward I I I I #
loop $-1 $-1 $102 $27 #
coedge $-1 $64 $64 $103 $104 reversed $40 $-1 #
face $-1 $105 $106 $22 $-1 $107 reversed single #
loop $-1 $-1 $108 $42 #
plane-surface $-1 38.705105745695114 -21.314142561376279 32.65743224605913 0 0.51503808176128008 0.85716729658548041 1 0 0 forward_v I I I I #
coedge $-1 $109 $110 $111 $112 reversed $43 $-1 #
face $-1 $-1 $113 $23 $-1 $114 forward single #
loop $-1 $115 $116 $45 #
cone-surface $-1 38.705105745695128 23.928360077019292 2.2988425007484539 0 -0.51503808176128008 -0.85716729658548041 0.75 0 0 1 I I -0.70710678118654757 0.70710678118654757 0.75 forward I I I I #
loop $-1 $-1 $117 $29 #
coedge $-1 $73 $73 $118 $119 reversed $46 $-1 #
face $-1 $120 $121 $18 $-1 $122 reversed single #
loop $-1 $-1 $123 $48 #
plane-surface $-1 0 -29.837757775053184 0 0 1 0 0 0 1 forward_v I I I I #
coedge $-1 $124 $125 $126 $127 forward $49 $-1 #
coedge $-1 $128 $51 $129 $130 forward $31 $-1 #
coedge $-1 $51 $128 $131 $132 forward $31 $-1 #
coedge $-1 $133 $134 $51 $81 reversed $135 $-1 #
edge $-1 $136 -29.837757775053184 $137 29.837757775053184 $80 $138 forward 7 unknown #
face $-1 $139 $140 $19 $-1 $141 reversed single #
loop $-1 $-1 $142 $52 #
plane-surface $-1 -44.524929573919245 0 -1.3525129283985224 -1 0 0 0 0 1 forward_v I I I I #
coedge $-1 $143 $144 $145 $146 forward $53 $-1 #
coedge $-1 $147 $55 $148 $149 reversed $34 $-1 #
coedge $-1 $55 $147 $150 $151 reversed $34 $-1 #
coedge $-1 $142 $152 $55 $89 reversed $83 $-1 #
edge $-1 $153 -29.837757775053184 $154 29.837757775053184 $88 $155 forward 7 unknown #
face $-1 $156 $157 $20 $-1 $158 reversed single #
loop $-1 $-1 $159 $56 #
plane-surface $-1 0 0 7.3397405619758045 0 0 1 1 0 0 forward_v I I I I #
coedge $-1 $160 $161 $162 $163 reversed $57 $-1 #
coedge $-1 $95 $59 $164 $165 reversed $37 $-1 #
coedge $-1 $59 $94 $160 $166 reversed $37 $-1 #
coedge $-1 $162 $167 $59 $97 forward $157 $-1 #
edge $-1 $168 38.008779781800001 $169 43.42625115475888 $96 $170 forward 7 unknown #
loop $-1 $-1 $103 $60 #
plane-surface $-1 38.705105745695114 -29.837757775053198 1.9222691890169159 0 -0.51503808176128008 0.85716729658548041 1 0 0 forward_v I I I I #
loop $-1 $-1 $171 $39 #
coedge $-1 $101 $101 $102 $172 reversed $61 $-1 #
coedge $-1 $102 $102 $101 $172 forward $63 $-1 #
coedge $-1 $103 $103 $64 $104 forward $98 $-1 #
edge $-1 $173 9.061552510326976e-016 $173 6.2831853071796013 $103 $174 forward 7 unknown #
face $-1 $175 $176 $22 $-1 $177 forward single #
loop $-1 $-1 $178 $65 #
plane-surface $-1 51.783806878872035 0 0 -1 0 0 0 0 1 forward_v I I I I #
coedge $-1 $179 $180 $181 $182 reversed $66 $-1 #
coedge $-1 $110 $68 $183 $184 reversed $43 $-1 #
coedge $-1 $68 $109 $179 $185 reversed $43 $-1 #
coedge $-1 $181 $186 $68 $112 forward $176 $-1 #
edge $-1 $187 -13.824196494550492 $188 -4.8080102055514828 $111 $189 forward 7 unknown #
loop $-1 $-1 $118 $69 #
plane-surface $-1 38.705105745695114 -21.314142561376279 32.65743224605913 0 0.51503808176128008 0.85716729658548041 1 0 0 forward_v I I I I #
loop $-1 $-1 $190 $45 #
coedge $-1 $116 $116 $117 $191 reversed $70 $-1 #
coedge $-1 $117 $117 $116 $191 forward $72 $-1 #
coedge $-1 $118 $118 $73 $119 forward $113 $-1 #
edge $-1 $192 -1.1152885673115529e-015 $192 6.2831853071795996 $118 $193 forward 7 unknown #
face $-1 $194 $195 $18 $-1 $196 reversed single #
loop $-1 $-1 $197 $74 #
plane-surface $-1 -51.783806878872035 0 0 1 0 0 0 0 -1 forward_v I I I I #
coedge $-1 $198 $131 $199 $200 forward $75 $-1 #
coedge $-1 $201 $77 $198 $202 forward $49 $-1 #
coedge $-1 $77 $201 $203 $204 forward $49 $-1 #
coedge $-1 $134 $133 $77 $127 reversed $135 $-1 #
edge $-1 $205 -29.837757775053184 $206 29.837757775053184 $126 $207 forward 7 unknown #
coedge $-1 $79 $78 $208 $209 forward $31 $-1 #
coedge $-1 $210 $211 $78 $130 reversed $195 $-1 #
edge $-1 $137 -51.783806878872035 $212 51.783806878872035 $129 $213 forward 7 unknown #
coedge $-1 $123 $214 $79 $132 reversed $75 $-1 #
edge $-1 $215 -51.783806878872035 $136 51.783806878872035 $131 $216 forward 7 unknown #
coedge $-1 $126 $80 $214 $217 forward $135 $-1 #
coedge $-1 $80 $126 $210 $218 reversed $135 $-1 #
loop $-1 $-1 $133 $194 #
vertex $-1 $81 $219 #
vertex $-1 $81 $220 #
straight-curve $-1 51.783806878872035 0 7.3397405619758045 0 1 0 I I #
face $-1 $221 $222 $19 $-1 $223 reversed single #
loop $-1 $-1 $224 $82 #
plane-surface $-1 0 -29.837757775053184 0 0 1 0 0 0 1 forward_v I I I I #
coedge $-1 $145 $88 $225 $226 reversed $83 $-1 #
coedge $-1 $227 $85 $224 $228 reversed $53 $-1 #
coedge $-1 $85 $227 $229 $230 reversed $53 $-1 #
coedge $-1 $152 $142 $85 $146 reversed $83 $-1 #
edge $-1 $231 -29.837757775053184 $232 29.837757775053184 $145 $233 forward 7 unknown #
coedge $-1 $87 $86 $234 $235 reversed $34 $-1 #
coedge $-1 $236 $237 $86 $149 forward $238 $-1 #
edge $-1 $239 -27.706622765674215 $154 -20.447745460721425 $148 $240 forward 7 unknown #
coedge $-1 $241 $225 $87 $151 forward $140 $-1 #
edge $-1 $153 20.447745460721425 $242 27.706622765674215 $150 $243 forward 7 unknown #
coedge $-1 $88 $145 $236 $244 reversed $83 $-1 #
vertex $-1 $151 $245 #
vertex $-1 $149 $246 #
straight-curve $-1 -44.524929573919245 0 0.14748707160147756 0 1 0 I I #
face $-1 $-1 $247 $20 $-1 $248 reversed single #
loop $-1 $-1 $96 $90 #
plane-surface $-1 0 -29.837757775053184 0 0 1 0 0 0 1 forward_v I I I I #
coedge $-1 $164 $249 $250 $251 forward $91 $-1 #
coedge $-1 $250 $93 $95 $166 forward $57 $-1 #
coedge $-1 $93 $250 $252 $253 reversed $57 $-1 #
coedge $-1 $254 $96 $93 $163 forward $157 $-1 #
edge $-1 $169 6.2738517396706435 $255 32.431254006024474 $162 $256 forward 7 unknown #
coedge $-1 $257 $159 $94 $165 forward $91 $-1 #
edge $-1 $258 -20.767939962663238 $168 -11.751753673664247 $164 $259 forward 7 unknown #
edge $-1 $169 1.6526814159067847e-014 $258 10.518584090777747 $95 $260 forward 7 unknown #
coedge $-1 $96 $254 $257 $261 reversed $157 $-1 #
vertex $-1 $261 $262 #
vertex $-1 $97 $263 #
straight-curve $-1 25.626404612518201 -29.837757775053184 45.348520343775803 0 0 -1 I I #
coedge $-1 $171 $171 $-1 $264 reversed $100 $-1 #
edge $-1 $265 0 $265 6.2831853071796004 $101 $266 forward 7 unknown #
vertex $-1 $104 $267 #
ellipse-curve $-1 38.705105745695128 -25.32966463055368 4.6310048754963704 0 -0.51503808176128008 0.85716729658548041 1.5 0 0 1 I I #
face $-1 $-1 $268 $22 $-1 $269 reversed single #
loop $-1 $-1 $181 $105 #
plane-surface $-1 0 0 7.3397405619758045 0 0 1 1 0 0 forward_v I I I I #
coedge $-1 $270 $271 $180 $272 forward $106 $-1 #
coedge $-1 $273 $108 $110 $185 forward $66 $-1 #
coedge $-1 $108 $273 $178 $272 reversed $66 $-1 #
coedge $-1 $274 $111 $108 $182 forward $176 $-1 #
edge $-1 $188 6.2738517396706435 $275 32.431254006024474 $181 $276 forward 7 unknown #
coedge $-1 $277 $278 $109 $184 forward $268 $-1 #
edge $-1 $279 -58.793832683280002 $187 -53.376361310321109 $183 $280 forward 7 unknown #
edge $-1 $188 49.156931459328604 $279 59.675515550106354 $110 $281 forward 7 unknown #
coedge $-1 $111 $274 $277 $282 forward $176 $-1 #
vertex $-1 $184 $283 #
vertex $-1 $112 $284 #
straight-curve $-1 25.626404612518201 16.013561280502692 7.3397405619758018 0 -1 0 I I #
coedge $-1 $190 $190 $-1 $285 reversed $115 $-1 #
edge $-1 $286 0 $286 6.2831853071796004 $116 $287 forward 7 unknown #
vertex $-1 $119 $288 #
ellipse-curve $-1 38.705105745695128 25.32966463055368 4.6310048754963615 0 0.51503808176128008 0.85716729658548041 1.5 0 0 1 I I #
face $-1 $-1 $135 $18 $-1 $289 reversed single #
loop $-1 $-1 $210 $120 #
plane-surface $-1 0 29.837757775053184 0 0 -1 0 0 0 -1 forward_v I I I I #
coedge $-1 $290 $208 $211 $291 forward $121 $-1 #
coedge $-1 $214 $123 $124 $202 reversed $75 $-1 #
coedge $-1 $208 $290 $123 $200 reversed $121 $-1 #
edge $-1 $215 -7.3397405619758045 $292 7.3397405619758045 $199 $293 forward 7 unknown #
coedge $-1 $125 $124 $290 $294 forward $49 $-1 #
edge $-1 $206 -51.783806878872035 $292 51.783806878872035 $198 $295 forward 7 unknown #
coedge $-1 $211 $210 $125 $204 reversed $195 $-1 #
edge $-1 $296 -51.783806878872035 $205 51.783806878872035 $203 $297 forward 7 unknown #
vertex $-1 $127 $298 #
vertex $-1 $217 $299 #
straight-curve $-1 51.783806878872035 0 -7.3397405619758045 0 -1 0 I I #
coedge $-1 $197 $199 $128 $209 reversed $121 $-1 #
edge $-1 $212 -29.837757775053184 $215 29.837757775053184 $208 $300 forward 7 unknown #
coedge $-1 $203 $129 $134 $218 forward $195 $-1 #
coedge $-1 $129 $203 $197 $291 reversed $195 $-1 #
vertex $-1 $130 $301 #
straight-curve $-1 0 29.837757775053184 7.3397405619758045 -1 0 0 I I #
coedge $-1 $131 $198 $133 $217 reversed $75 $-1 #
vertex $-1 $209 $302 #
straight-curve $-1 0 -29.837757775053184 7.3397405619758045 1 0 0 I I #
edge $-1 $136 -7.3397405619758045 $206 7.3397405619758045 $133 $303 forward 7 unknown #
edge $-1 $137 -7.3397405619758045 $205 7.3397405619758045 $134 $304 forward 7 unknown #
point $-1 51.783806878872035 -29.837757775053184 7.3397405619758045 #
point $-1 51.783806878872035 29.837757775053184 7.3397405619758045 #
face $-1 $-1 $238 $19 $-1 $305 reversed single #
loop $-1 $-1 $306 $139 #
plane-surface $-1 -51.783806878872035 0 0 1 0 0 0 0 -1 forward_v I I I I #
coedge $-1 $225 $241 $143 $228 forward $140 $-1 #
coedge $-1 $150 $224 $142 $226 forward $140 $-1 #
edge $-1 $232 -2.1762564641992612 $153 0.82374353580073878 $225 $307 forward 7 unknown #
coedge $-1 $144 $143 $306 $308 reversed $53 $-1 #
edge $-1 $309 -27.706622765674215 $232 -20.447745460721425 $224 $310 forward 7 unknown #
coedge $-1 $237 $236 $144 $230 forward $238 $-1 #
edge $-1 $231 20.447745460721425 $311 27.706622765674215 $229 $312 forward 7 unknown #
vertex $-1 $230 $313 #
vertex $-1 $228 $314 #
straight-curve $-1 -44.524929573919245 0 -2.8525129283985224 0 -1 0 I I #
coedge $-1 $315 $316 $147 $235 forward $222 $-1 #
edge $-1 $242 -29.837757775053184 $239 29.837757775053184 $234 $317 forward 7 unknown #
coedge $-1 $229 $148 $152 $244 forward $238 $-1 #
coedge $-1 $148 $229 $315 $318 reversed $238 $-1 #
loop $-1 $-1 $229 $221 #
vertex $-1 $318 $319 #
straight-curve $-1 -24.07718411319782 29.837757775053184 0.14748707160147756 1 0 0 I I #
coedge $-1 $224 $150 $316 $320 forward $140 $-1 #
vertex $-1 $320 $321 #
straight-curve $-1 -24.07718411319782 -29.837757775053184 0.14748707160147756 -1 0 0 I I #
edge $-1 $154 -0.82374353580073878 $231 2.1762564641992612 $236 $322 forward 7 unknown #
point $-1 -44.524929573919245 -29.837757775053184 0.14748707160147756 #
point $-1 -44.524929573919245 29.837757775053184 0.14748707160147756 #
loop $-1 $-1 $252 $156 #
plane-surface $-1 51.783806878872035 0 0 -1 0 0 0 0 1 forward_v I I I I #
coedge $-1 $159 $257 $323 $324 forward $91 $-1 #
coedge $-1 $161 $160 $159 $251 reversed $57 $-1 #
edge $-1 $325 -32.431254006024474 $258 -6.2738517396706435 $159 $326 forward 7 unknown #
coedge $-1 $323 $327 $161 $253 forward $247 $-1 #
edge $-1 $255 -12.292954166237315 $325 -1.7743700754595857 $252 $328 forward 7 unknown #
coedge $-1 $167 $162 $327 $329 reversed $157 $-1 #
vertex $-1 $163 $330 #
straight-curve $-1 19.352552872847557 -29.837757775053184 1.9222691890169252 1 0 0 I I #
coedge $-1 $249 $164 $167 $261 forward $91 $-1 #
vertex $-1 $165 $331 #
straight-curve $-1 25.626404612518201 -41.589511448717431 7.3397405619758018 0 -1 0 I I #
straight-curve $-1 25.626404612518201 -29.837757775053198 1.9222691890169159 0 0.85716729658548041 0.51503808176128008 I I #
edge $-1 $168 25.626404612518201 $332 51.783806878872035 $167 $333 forward 7 unknown #
point $-1 25.626404612518201 -29.837757775053184 7.3397405619758045 #
point $-1 25.626404612518201 -29.837757775053184 1.9222691890169243 #
edge $-1 $334 1 $334 0 $171 $-1 forward 7 unknown #
vertex $-1 $172 $335 #
ellipse-curve $-1 38.705105745695128 -24.314638638340245 2.9417179731875605 0 -0.51503808176128008 0.85716729658548041 1.5 0 0 1 I I #
point $-1 40.205105745695128 -25.329664630553669 4.6310048754963553 #
loop $-1 $-1 $183 $175 #
plane-surface $-1 0 29.837757775053184 0 0 -1 0 0 0 -1 forward_v I I I I #
coedge $-1 $271 $178 $336 $337 reversed $106 $-1 #
coedge $-1 $178 $270 $274 $338 reversed $106 $-1 #
edge $-1 $275 31.612127850512749 $339 42.1307119412905 $178 $340 forward 7 unknown #
coedge $-1 $180 $179 $278 $341 reversed $66 $-1 #
coedge $-1 $186 $181 $271 $338 forward $176 $-1 #
vertex $-1 $338 $342 #
straight-curve $-1 19.352552872847557 20.821571486054175 7.3397405619758018 1 0 0 I I #
coedge $-1 $336 $183 $186 $282 reversed $268 $-1 #
coedge $-1 $183 $336 $273 $341 forward $268 $-1 #
vertex $-1 $184 $343 #
straight-curve $-1 25.626404612518201 29.837757775053184 60.71610187229691 0 0 1 I I #
straight-curve $-1 25.626404612518201 -21.314142561376279 32.65743224605913 0 0.85716729658548041 -0.51503808176128008 I I #
edge $-1 $344 -51.783806878872035 $187 -25.626404612518201 $277 $345 forward 7 unknown #
point $-1 25.626404612518201 29.837757775053184 7.3397405619758045 #
point $-1 25.626404612518201 20.821571486054175 7.3397405619758054 #
edge $-1 $346 1 $346 0 $190 $-1 forward 7 unknown #
vertex $-1 $191 $347 #
ellipse-curve $-1 38.705105745695128 24.314638638340252 2.941717973187564 0 0.51503808176128008 0.85716729658548041 1.5 0 0 1 I I #
point $-1 40.205105745695128 25.329664630553676 4.6310048754963589 #
plane-surface $-1 51.783806878872035 0 0 -1 0 0 0 0 1 forward_v I I I I #
coedge $-1 $199 $197 $201 $294 reversed $121 $-1 #
edge $-1 $212 -7.3397405619758045 $296 7.3397405619758045 $211 $348 forward 7 unknown #
vertex $-1 $294 $349 #
straight-curve $-1 -51.783806878872035 -29.837757775053184 0 0 0 -1 I I #
edge $-1 $292 -29.837757775053184 $296 29.837757775053184 $290 $350 forward 7 unknown #
straight-curve $-1 0 -29.837757775053184 -7.3397405619758045 -1 0 0 I I #
vertex $-1 $204 $351 #
straight-curve $-1 0 29.837757775053184 -7.3397405619758045 1 0 0 I I #
point $-1 51.783806878872035 29.837757775053184 -7.3397405619758045 #
point $-1 51.783806878872035 -29.837757775053184 -7.3397405619758045 #
straight-curve $-1 -51.783806878872035 0 7.3397405619758045 0 -1 0 I I #
point $-1 -51.783806878872035 29.837757775053184 7.3397405619758045 #
point $-1 -51.783806878872035 -29.837757775053184 7.3397405619758045 #
straight-curve $-1 51.783806878872035 -29.837757775053184 0 0 0 -1 I I #
straight-curve $-1 51.783806878872035 29.837757775053184 0 0 0 -1 I I #
plane-surface $-1 0 29.837757775053184 0 0 -1 0 0 0 -1 forward_v I I I I #
coedge $-1 $316 $315 $227 $308 forward $222 $-1 #
straight-curve $-1 -44.524929573919245 -29.837757775053184 -0.67625646419926122 0 0 1 I I #
edge $-1 $311 -29.837757775053184 $309 29.837757775053184 $306 $352 forward 7 unknown #
vertex $-1 $228 $353 #
straight-curve $-1 -24.07718411319782 -29.837757775053184 -2.8525129283985224 1 0 0 I I #
vertex $-1 $230 $354 #
straight-curve $-1 -24.07718411319782 29.837757775053184 -2.8525129283985224 -1 0 0 I I #
point $-1 -44.524929573919245 29.837757775053184 -2.8525129283985224 #
point $-1 -44.524929573919245 -29.837757775053184 -2.8525129283985224 #
coedge $-1 $306 $234 $237 $318 forward $222 $-1 #
coedge $-1 $234 $306 $241 $320 reversed $222 $-1 #
straight-curve $-1 -51.783806878872035 0 0.14748707160147756 0 1 0 I I #
edge $-1 $239 -0.14748707160147756 $311 2.8525129283985224 $237 $355 forward 7 unknown #
point $-1 -51.783806878872035 29.837757775053184 0.14748707160147756 #
edge $-1 $242 -0.14748707160147756 $309 2.8525129283985224 $316 $356 forward 7 unknown #
point $-1 -51.783806878872035 -29.837757775053184 0.14748707160147756 #
straight-curve $-1 -44.524929573919245 29.837757775053184 -0.67625646419926122 0 0 -1 I I #
coedge $-1 $327 $252 $249 $324 reversed $247 $-1 #
edge $-1 $332 -29.837757775053184 $325 -20.821571486054193 $323 $357 forward 7 unknown #
vertex $-1 $253 $358 #
straight-curve $-1 19.352552872847557 -20.821571486054196 7.3397405619758045 -1 0 0 I I #
coedge $-1 $252 $323 $254 $329 forward $247 $-1 #
straight-curve $-1 51.783806878872035 -19.300639485330326 8.2536087219751284 0 0.85716729658548041 0.51503808176128008 I I #
edge $-1 $332 -7.3397405619758045 $255 -1.9222691890169243 $327 $359 forward 7 unknown #
point $-1 51.783806878872028 -29.837757775053184 1.9222691890169243 #
point $-1 25.626404612518201 -20.821571486054193 7.3397405619758045 #
vertex $-1 $324 $360 #
straight-curve $-1 0 -29.837757775053184 7.3397405619758045 1 0 0 I I #
vertex $-1 $264 $361 #
point $-1 40.205105745695128 -24.314638638340245 2.9417179731875605 #
coedge $-1 $278 $277 $270 $337 forward $268 $-1 #
edge $-1 $344 -7.3397405619758045 $339 -1.9222691890169123 $270 $362 forward 7 unknown #
edge $-1 $275 20.821571486054175 $344 29.837757775053184 $271 $363 forward 7 unknown #
vertex $-1 $272 $364 #
straight-curve $-1 51.783806878872035 -6.2753106828844167 23.62119025049623 0 0.85716729658548041 -0.51503808176128008 I I #
edge $-1 $339 -32.431254006024474 $279 -6.2738517396706435 $278 $365 forward 7 unknown #
point $-1 51.783806878872028 20.821571486054175 7.3397405619758054 #
point $-1 25.626404612518201 29.837757775053184 1.9222691890169123 #
vertex $-1 $338 $366 #
straight-curve $-1 0 29.837757775053184 7.3397405619758045 -1 0 0 I I #
vertex $-1 $285 $367 #
point $-1 40.205105745695128 24.314638638340252 2.941717973187564 #
straight-curve $-1 -51.783806878872035 29.837757775053184 0 0 0 -1 I I #
point $-1 -51.783806878872035 -29.837757775053184 -7.3397405619758045 #
straight-curve $-1 -51.783806878872035 0 -7.3397405619758045 0 1 0 I I #
point $-1 -51.783806878872035 29.837757775053184 -7.3397405619758045 #
straight-curve $-1 -51.783806878872035 0 -2.8525129283985224 0 -1 0 I I #
point $-1 -51.783806878872035 -29.837757775053184 -2.8525129283985224 #
point $-1 -51.783806878872035 29.837757775053184 -2.8525129283985224 #
straight-curve $-1 -51.783806878872035 29.837757775053184 0 0 0 -1 I I #
straight-curve $-1 -51.783806878872035 -29.837757775053184 0 0 0 -1 I I #
straight-curve $-1 51.783806878872035 0 7.3397405619758045 0 1 0 I I #
point $-1 51.783806878872028 -20.821571486054193 7.3397405619758045 #
straight-curve $-1 51.783806878872035 -29.837757775053184 0 0 0 -1 I I #
point $-1 51.783806878872035 -29.837757775053184 7.3397405619758045 #
point $-1 38.705105745695128 -23.542081515698325 1.65596702830934 #
straight-curve $-1 51.783806878872035 29.837757775053184 0 0 0 -1 I I #
straight-curve $-1 51.783806878872035 0 7.3397405619758045 0 1 0 I I #
point $-1 51.783806878872028 29.837757775053184 1.9222691890169123 #
straight-curve $-1 19.352552872847557 29.837757775053188 1.9222691890169123 -1 0 0 I I #
point $-1 51.783806878872035 29.837757775053184 7.3397405619758045 #
point $-1 38.705105745695128 23.542081515698332 1.6559670283093435 #
End-of-ACIS-data 