500 0 9 0           
7 Unknown 11 ACIS 5.0 NT 24 Fri Mar 26 15:31:50 1999 
-1 9.9999999999999995e-007 1e-010 
body $-1 $9 $-1 $10 #
body $-1 $11 $-1 $12 #
body $-1 $13 $-1 $14 #
body $-1 $15 $-1 $16 #
body $-1 $17 $-1 $18 #
body $-1 $19 $-1 $20 #
body $-1 $21 $-1 $22 #
body $-1 $23 $-1 $24 #
body $-1 $25 $-1 $26 #
lump $-1 $-1 $27 $0 #
transform $-1 1 0 0 0 1 0 0 0 1 67.408062990203561 31.19446101133002 13.912746747205361 1 rotate no_reflect no_shear #
lump $-1 $-1 $28 $1 #
transform $-1 1 0 0 0 1 0 0 0 1 67.408062990203561 31.19446101133002 13.912746747205361 1 rotate no_reflect no_shear #
lump $-1 $-1 $29 $2 #
transform $-1 1 0 0 0 1 0 0 0 1 67.408062990203561 31.19446101133002 13.912746747205361 1 rotate no_reflect no_shear #
lump $-1 $-1 $30 $3 #
transform $-1 1 0 0 0 1 0 0 0 1 67.408062990203561 31.19446101133002 13.912746747205361 1 rotate no_reflect no_shear #
lump $-1 $-1 $31 $4 #
transform $-1 1 0 0 0 1 0 0 0 1 67.408062990203561 31.19446101133002 13.912746747205361 1 rotate no_reflect no_shear #
lump $-1 $-1 $32 $5 #
transform $-1 1 0 0 0 1 0 0 0 1 67.408062990203561 31.19446101133002 13.912746747205361 1 rotate no_reflect no_shear #
lump $-1 $-1 $33 $6 #
transform $-1 1 0 0 0 1 0 0 0 1 67.408062990203561 31.19446101133002 13.912746747205361 1 rotate no_reflect no_shear #
lump $-1 $-1 $34 $7 #
transform $-1 1 0 0 0 1 0 0 0 1 67.408062990203561 31.19446101133002 13.912746747205361 1 rotate no_reflect no_shear #
lump $-1 $-1 $35 $8 #
transform $-1 1 0 0 0 1 0 0 0 1 67.408062990203561 31.19446101133002 13.912746747205361 1 rotate no_reflect no_shear #
shell $-1 $-1 $-1 $36 $-1 $9 #
shell $-1 $-1 $-1 $37 $-1 $11 #
shell $-1 $-1 $-1 $38 $-1 $13 #
shell $-1 $-1 $-1 $39 $-1 $15 #
shell $-1 $-1 $-1 $40 $-1 $17 #
shell $-1 $-1 $-1 $41 $-1 $19 #
shell $-1 $-1 $-1 $42 $-1 $21 #
shell $-1 $-1 $-1 $43 $-1 $23 #
shell $-1 $-1 $-1 $44 $-1 $25 #
face $-1 $45 $46 $27 $-1 $47 forward single #
face $-1 $48 $49 $28 $-1 $50 reversed single #
face $-1 $51 $52 $29 $-1 $53 reversed single #
face $-1 $54 $55 $30 $-1 $56 reversed single #
face $-1 $57 $58 $31 $-1 $59 forward single #
face $-1 $60 $61 $32 $-1 $62 reversed single #
face $-1 $63 $64 $33 $-1 $65 forward single #
face $-1 $66 $67 $34 $-1 $68 forward single #
face $-1 $69 $70 $35 $-1 $71 forward single #
face $-1 $72 $73 $27 $-1 $74 reversed single #
loop $-1 $-1 $75 $36 #
plane-surface $-1 0 0 13.912746747205361 0 0 1 1 0 0 forward_v I I I I #
face $-1 $76 $77 $28 $-1 $78 reversed single #
loop $-1 $-1 $79 $37 #
plane-surface $-1 -63.773900855006403 -20.928104772572944 0 0 -1 0 0 0 -1 forward_v I I I I #
face $-1 $80 $81 $29 $-1 $82 reversed single #
loop $-1 $-1 $83 $38 #
plane-surface $-1 -63.773900855006403 20.92810477257294 0 0 1 0 0 0 1 forward_v I I I I #
face $-1 $84 $85 $30 $-1 $86 reversed single #
loop $-1 $-1 $87 $39 #
plane-surface $-1 18.061937466072678 15.123512569024435 189.74901214383897 0 -1 0 -0.50000000669873634 0 -0.8660253999169214 forward_v I I I I #
face $-1 $88 $89 $31 $-1 $90 forward single #
loop $-1 $91 $92 $40 #
cone-surface $-1 59.743056794961618 10.168179902893328 8.962554281783456 -0.50000000669873634 0 -0.8660253999169214 0.8660253999169214 0 -0.50000000669873634 1 I I 0 1 1 forward I I I I #
face $-1 $93 $94 $32 $-1 $95 reversed single #
loop $-1 $-1 $96 $41 #
plane-surface $-1 -67.408062990203561 -16.778397579894616 4.369827877745351 -0.71933980857756763 0 0.69465836192734942 0.69465836192734942 0 0.71933980857756763 forward_v I I I I #
face $-1 $97 $98 $33 $-1 $99 forward single #
loop $-1 $100 $101 $42 #
cone-surface $-1 -62.226067033880625 -19.268221895501611 8.5867393394752103 0.71933980857756763 0 -0.69465836192734942 0.34732918096367471 0 0.35966990428878381 1 I I 0 1 0.5 forward I I I I #
face $-1 $102 $103 $34 $-1 $104 forward single #
loop $-1 $105 $106 $43 #
cone-surface $-1 -62.226067033880625 -16.778397579894616 8.5867393394752103 0.71933980857756763 0 -0.69465836192734942 0.34732918096367471 0 0.35966990428878381 1 I I 0 1 0.5 forward I I I I #
face $-1 $107 $108 $35 $-1 $109 forward single #
loop $-1 $110 $111 $44 #
cone-surface $-1 -62.226067033880625 -14.288573264287621 8.5867393394752103 0.71933980857756763 0 -0.69465836192734942 0.34732918096367471 0 0.35966990428878381 1 I I 0 1 0.5 forward I I I I #
face $-1 $112 $113 $27 $-1 $114 reversed single #
loop $-1 $-1 $115 $45 #
plane-surface $-1 0 0 -13.912746747205361 0 0 1 1 0 0 forward_v I I I I #
coedge $-1 $116 $117 $118 $119 forward $46 $-1 #
face $-1 $120 $121 $28 $-1 $122 forward single #
loop $-1 $-1 $123 $48 #
plane-surface $-1 -60.139738719809245 -26.061282891951482 0 -1 0 0 0 0 1 forward_v I I I I #
coedge $-1 $124 $125 $126 $127 forward $49 $-1 #
face $-1 $128 $129 $29 $-1 $130 reversed single #
loop $-1 $-1 $131 $51 #
plane-surface $-1 -60.139738719809245 26.061282891951478 0 -1 0 0 0 0 1 forward_v I I I I #
coedge $-1 $132 $133 $134 $135 reversed $52 $-1 #
face $-1 $136 $137 $30 $-1 $138 reversed single #
loop $-1 $-1 $139 $54 #
plane-surface $-1 -49.346126427228569 10.168179902893328 72.994822726406838 0.50000000669873634 0 0.8660253999169214 0.8660253999169214 0 -0.50000000669873634 forward_v I I I I #
coedge $-1 $140 $141 $142 $143 reversed $55 $-1 #
face $-1 $-1 $144 $31 $-1 $145 forward single #
loop $-1 $146 $147 $57 #
cone-surface $-1 59.038567512779323 10.168179902893328 7.742343073452993 -0.50000000669873634 0 -0.8660253999169214 0.4330126999584607 0 -0.25000000334936817 1 I I -0.70710678118654879 0.70710678118654635 0.5 forward I I I I #
loop $-1 $-1 $148 $40 #
coedge $-1 $92 $92 $149 $150 reversed $58 $-1 #
face $-1 $151 $152 $32 $-1 $153 forward single #
loop $-1 $-1 $154 $60 #
plane-surface $-1 -164.38666924611886 -12.628690387216288 98.02097711268614 0 -1 0 0.71933980857756763 0 -0.69465836192734942 forward_v I I I I #
coedge $-1 $155 $156 $157 $158 reversed $61 $-1 #
face $-1 $-1 $159 $33 $-1 $160 forward single #
loop $-1 $161 $162 $63 #
cone-surface $-1 -61.471980831613486 -19.268221895501611 7.8585267759932336 0.71933980857756763 0 -0.69465836192734942 0.17366459048183736 0 0.17983495214439191 1 I I -0.70710678118654746 0.70710678118654746 0.25 forward I I I I #
loop $-1 $-1 $163 $42 #
coedge $-1 $101 $101 $164 $165 reversed $64 $-1 #
face $-1 $-1 $166 $34 $-1 $167 forward single #
loop $-1 $168 $169 $66 #
cone-surface $-1 -61.471980831613486 -16.778397579894616 7.8585267759932336 0.71933980857756763 0 -0.69465836192734942 0.17366459048183736 0 0.17983495214439191 1 I I -0.70710678118654746 0.70710678118654746 0.25 forward I I I I #
loop $-1 $-1 $170 $43 #
coedge $-1 $106 $106 $171 $172 reversed $67 $-1 #
face $-1 $-1 $173 $35 $-1 $174 forward single #
loop $-1 $175 $176 $69 #
cone-surface $-1 -61.471980831613486 -14.288573264287621 7.8585267759932336 0.71933980857756763 0 -0.69465836192734942 0.17366459048183736 0 0.17983495214439191 1 I I -0.70710678118654746 0.70710678118654746 0.25 forward I I I I #
loop $-1 $-1 $177 $44 #
coedge $-1 $111 $111 $178 $179 reversed $70 $-1 #
face $-1 $180 $181 $27 $-1 $182 reversed single #
loop $-1 $-1 $183 $72 #
plane-surface $-1 0 -31.19446101133002 0 0 1 0 0 0 1 forward_v I I I I #
coedge $-1 $184 $185 $186 $187 forward $73 $-1 #
coedge $-1 $188 $75 $189 $190 forward $46 $-1 #
coedge $-1 $75 $188 $191 $192 forward $46 $-1 #
coedge $-1 $193 $194 $75 $119 reversed $195 $-1 #
edge $-1 $196 -31.19446101133002 $197 31.19446101133002 $118 $198 forward 7 unknown #
face $-1 $199 $200 $28 $-1 $201 reversed single #
loop $-1 $-1 $202 $76 #
plane-surface $-1 0 0 13.912746747205361 0 0 1 1 0 0 forward_v I I I I #
coedge $-1 $203 $204 $205 $206 reversed $77 $-1 #
coedge $-1 $207 $79 $208 $209 reversed $49 $-1 #
coedge $-1 $79 $207 $210 $211 reversed $49 $-1 #
coedge $-1 $204 $203 $79 $127 reversed $77 $-1 #
edge $-1 $212 -13.912746747205361 $213 13.912746747205361 $126 $214 forward 7 unknown #
face $-1 $215 $216 $29 $-1 $217 reversed single #
loop $-1 $-1 $218 $80 #
plane-surface $-1 0 0 -13.912746747205361 0 0 1 1 0 0 forward_v I I I I #
coedge $-1 $219 $220 $221 $222 forward $81 $-1 #
coedge $-1 $221 $83 $223 $224 reversed $52 $-1 #
coedge $-1 $83 $221 $225 $226 reversed $52 $-1 #
coedge $-1 $227 $228 $83 $135 forward $216 $-1 #
edge $-1 $229 -13.912746747205361 $230 13.912746747205361 $134 $231 forward 7 unknown #
face $-1 $232 $233 $30 $-1 $234 reversed single #
loop $-1 $-1 $235 $84 #
plane-surface $-1 18.061937466072678 5.2128472367622223 189.74901214383897 0 1 0 0.50000000669873634 0 0.8660253999169214 forward_v I I I I #
coedge $-1 $236 $237 $238 $239 reversed $85 $-1 #
coedge $-1 $141 $87 $240 $241 reversed $55 $-1 #
coedge $-1 $87 $140 $236 $242 reversed $55 $-1 #
coedge $-1 $238 $243 $87 $143 forward $244 $-1 #
edge $-1 $245 -58.377094257167222 $246 -43.956060424349225 $142 $247 forward 7 unknown #
loop $-1 $-1 $149 $88 #
plane-surface $-1 -49.346126427228569 10.168179902893328 72.994822726406838 0.50000000669873634 0 0.8660253999169214 0.8660253999169214 0 -0.50000000669873634 forward_v I I I I #
loop $-1 $-1 $248 $57 #
coedge $-1 $147 $147 $148 $249 reversed $89 $-1 #
coedge $-1 $148 $148 $147 $249 forward $91 $-1 #
coedge $-1 $149 $149 $92 $150 forward $144 $-1 #
edge $-1 $250 0 $250 6.2831853071796004 $149 $251 forward 7 unknown #
face $-1 $252 $253 $32 $-1 $254 reversed single #
loop $-1 $-1 $255 $93 #
plane-surface $-1 0 0 13.912746747205361 0 0 1 1 0 0 forward_v I I I I #
coedge $-1 $256 $257 $258 $259 reversed $94 $-1 #
coedge $-1 $260 $96 $261 $262 reversed $61 $-1 #
coedge $-1 $96 $260 $256 $263 forward $61 $-1 #
coedge $-1 $258 $255 $96 $158 forward $152 $-1 #
edge $-1 $264 -12.538905982625636 $265 -4.2394915972689802 $157 $266 forward 7 unknown #
loop $-1 $-1 $164 $97 #
plane-surface $-1 -67.408062990203561 -16.778397579894616 4.369827877745351 -0.71933980857756763 0 0.69465836192734942 0.69465836192734942 0 0.71933980857756763 forward_v I I I I #
loop $-1 $-1 $267 $63 #
coedge $-1 $162 $162 $163 $268 reversed $98 $-1 #
coedge $-1 $163 $163 $162 $268 forward $100 $-1 #
coedge $-1 $164 $164 $101 $165 forward $159 $-1 #
edge $-1 $269 0 $269 6.2831853071796004 $164 $270 forward 7 unknown #
loop $-1 $-1 $171 $102 #
plane-surface $-1 -67.408062990203561 -16.778397579894616 4.369827877745351 -0.71933980857756763 0 0.69465836192734942 0.69465836192734942 0 0.71933980857756763 forward_v I I I I #
loop $-1 $-1 $271 $66 #
coedge $-1 $169 $169 $170 $272 reversed $103 $-1 #
coedge $-1 $170 $170 $169 $272 forward $105 $-1 #
coedge $-1 $171 $171 $106 $172 forward $166 $-1 #
edge $-1 $273 0 $273 6.2831853071796004 $171 $274 forward 7 unknown #
loop $-1 $-1 $178 $107 #
plane-surface $-1 -67.408062990203561 -16.778397579894616 4.369827877745351 -0.71933980857756763 0 0.69465836192734942 0.69465836192734942 0 0.71933980857756763 forward_v I I I I #
loop $-1 $-1 $275 $69 #
coedge $-1 $176 $176 $177 $276 reversed $108 $-1 #
coedge $-1 $177 $177 $176 $276 forward $110 $-1 #
coedge $-1 $178 $178 $111 $179 forward $173 $-1 #
edge $-1 $277 0 $277 6.2831853071796004 $178 $278 forward 7 unknown #
face $-1 $279 $280 $27 $-1 $281 reversed single #
loop $-1 $-1 $282 $112 #
plane-surface $-1 -67.408062990203561 0 0 1 0 0 0 0 -1 forward_v I I I I #
coedge $-1 $283 $191 $284 $285 forward $113 $-1 #
coedge $-1 $286 $115 $283 $287 forward $73 $-1 #
coedge $-1 $115 $286 $288 $289 forward $73 $-1 #
coedge $-1 $194 $193 $115 $187 reversed $195 $-1 #
edge $-1 $290 -31.19446101133002 $291 31.19446101133002 $186 $292 forward 7 unknown #
coedge $-1 $117 $116 $293 $294 forward $46 $-1 #
coedge $-1 $295 $296 $116 $190 reversed $280 $-1 #
edge $-1 $197 -67.408062990203561 $297 67.408062990203561 $189 $298 forward 7 unknown #
coedge $-1 $183 $299 $117 $192 reversed $113 $-1 #
edge $-1 $300 -67.408062990203561 $196 67.408062990203561 $191 $301 forward 7 unknown #
coedge $-1 $186 $118 $299 $302 forward $195 $-1 #
coedge $-1 $118 $186 $295 $303 reversed $195 $-1 #
loop $-1 $-1 $193 $279 #
vertex $-1 $119 $304 #
vertex $-1 $119 $305 #
straight-curve $-1 67.408062990203561 0 13.912746747205361 0 1 0 I I #
face $-1 $306 $307 $28 $-1 $308 reversed single #
loop $-1 $-1 $309 $120 #
plane-surface $-1 -67.408062990203561 0 0 1 0 0 0 0 -1 forward_v I I I I #
coedge $-1 $210 $310 $204 $311 forward $121 $-1 #
coedge $-1 $126 $123 $312 $313 reversed $77 $-1 #
coedge $-1 $123 $126 $202 $311 reversed $77 $-1 #
coedge $-1 $314 $315 $123 $206 forward $316 $-1 #
edge $-1 $317 -13.912746747205361 $318 13.912746747205361 $205 $319 forward 7 unknown #
coedge $-1 $125 $124 $309 $320 reversed $49 $-1 #
coedge $-1 $312 $321 $124 $209 forward $307 $-1 #
edge $-1 $322 -35.52111256270036 $213 -28.252788292306043 $208 $323 forward 7 unknown #
coedge $-1 $324 $202 $125 $211 forward $121 $-1 #
edge $-1 $212 28.252788292306043 $325 35.52111256270036 $210 $326 forward 7 unknown #
vertex $-1 $211 $327 #
vertex $-1 $209 $328 #
straight-curve $-1 -60.139738719809245 -20.928104772572944 0 0 0 -1 I I #
face $-1 $329 $330 $29 $-1 $331 forward single #
loop $-1 $-1 $134 $128 #
plane-surface $-1 -67.408062990203561 0 0 1 0 0 0 0 -1 forward_v I I I I #
coedge $-1 $223 $332 $219 $333 forward $129 $-1 #
coedge $-1 $334 $131 $218 $333 reversed $81 $-1 #
coedge $-1 $131 $334 $335 $336 reversed $81 $-1 #
coedge $-1 $133 $132 $131 $222 reversed $52 $-1 #
edge $-1 $337 -13.912746747205361 $338 13.912746747205361 $131 $339 forward 7 unknown #
coedge $-1 $340 $218 $132 $224 forward $129 $-1 #
edge $-1 $338 28.252788292306043 $229 35.52111256270036 $223 $341 forward 7 unknown #
coedge $-1 $335 $342 $133 $226 forward $330 $-1 #
edge $-1 $230 -35.52111256270036 $337 -28.252788292306043 $225 $343 forward 7 unknown #
coedge $-1 $344 $134 $342 $345 reversed $216 $-1 #
coedge $-1 $134 $344 $340 $346 reversed $216 $-1 #
vertex $-1 $346 $347 #
vertex $-1 $135 $348 #
straight-curve $-1 -67.408062990203561 20.92810477257294 0 0 0 1 I I #
face $-1 $-1 $244 $30 $-1 $349 forward single #
loop $-1 $-1 $350 $136 #
plane-surface $-1 67.408062990203561 0 0 -1 0 0 0 0 1 forward_v I I I I #
coedge $-1 $351 $352 $353 $354 reversed $137 $-1 #
coedge $-1 $355 $139 $141 $242 forward $85 $-1 #
coedge $-1 $139 $355 $351 $356 forward $85 $-1 #
coedge $-1 $353 $142 $139 $239 forward $244 $-1 #
edge $-1 $246 -10.03942261757777 $357 -0.12875728531555808 $238 $358 forward 7 unknown #
coedge $-1 $359 $360 $140 $241 forward $233 $-1 #
edge $-1 $361 -89.287747238813893 $245 -80.961759324714123 $240 $362 forward 7 unknown #
edge $-1 $246 118.16415037530197 $361 134.81612598040712 $141 $363 forward 7 unknown #
coedge $-1 $142 $353 $359 $364 forward $244 $-1 #
loop $-1 $-1 $353 $232 #
vertex $-1 $241 $365 #
vertex $-1 $143 $366 #
straight-curve $-1 9.0309687330363388 15.123512569024435 13.912746747205361 -1 0 0 I I #
coedge $-1 $248 $248 $-1 $367 reversed $146 $-1 #
edge $-1 $368 0 $368 6.2831853071796004 $147 $369 forward 7 unknown #
vertex $-1 $150 $370 #
ellipse-curve $-1 60.197546073794562 10.168179902893328 9.7497527901554903 0.50000000669873634 0 0.8660253999169214 0.8660253999169214 0 -0.50000000669873634 1 I I #
face $-1 $-1 $371 $32 $-1 $372 forward single #
loop $-1 $-1 $373 $151 #
plane-surface $-1 -67.408062990203561 0 0 1 0 0 0 0 -1 forward_v I I I I #
coedge $-1 $157 $374 $375 $376 forward $152 $-1 #
coedge $-1 $257 $154 $156 $263 reversed $94 $-1 #
coedge $-1 $154 $256 $377 $378 reversed $94 $-1 #
coedge $-1 $374 $157 $154 $259 forward $152 $-1 #
edge $-1 $265 -24.00076104525624 $379 -14.785271632855867 $258 $380 forward 7 unknown #
coedge $-1 $156 $155 $373 $381 reversed $61 $-1 #
coedge $-1 $375 $382 $155 $262 forward $371 $-1 #
edge $-1 $383 0.30944501663990398 $264 13.5756632290454 $261 $384 forward 7 unknown #
edge $-1 $385 0 $265 13.266218212405496 $256 $386 forward 7 unknown #
vertex $-1 $376 $387 #
vertex $-1 $158 $388 #
straight-curve $-1 -58.192573577803188 -8.3891987899473079 13.912746747205361 0 1 0 I I #
coedge $-1 $267 $267 $-1 $389 reversed $161 $-1 #
edge $-1 $390 0 $390 6.2831853071796004 $162 $391 forward 7 unknown #
vertex $-1 $165 $392 #
ellipse-curve $-1 -62.800318284003374 -19.268221895501611 9.141287312475356 -0.71933980857756763 0 0.69465836192734942 0.34732918096367471 0 0.35966990428878381 1 I I #
coedge $-1 $271 $271 $-1 $393 reversed $168 $-1 #
edge $-1 $394 0 $394 6.2831853071796004 $169 $395 forward 7 unknown #
vertex $-1 $172 $396 #
ellipse-curve $-1 -62.800318284003374 -16.778397579894616 9.141287312475356 -0.71933980857756763 0 0.69465836192734942 0.34732918096367471 0 0.35966990428878381 1 I I #
coedge $-1 $275 $275 $-1 $397 reversed $175 $-1 #
edge $-1 $398 0 $398 6.2831853071796004 $176 $399 forward 7 unknown #
vertex $-1 $179 $400 #
ellipse-curve $-1 -62.800318284003374 -14.288573264287621 9.141287312475356 -0.71933980857756763 0 0.69465836192734942 0.34732918096367471 0 0.35966990428878381 1 I I #
face $-1 $-1 $195 $27 $-1 $401 reversed single #
loop $-1 $-1 $295 $180 #
plane-surface $-1 0 31.19446101133002 0 0 -1 0 0 0 -1 forward_v I I I I #
coedge $-1 $402 $293 $296 $403 forward $181 $-1 #
coedge $-1 $299 $183 $184 $287 reversed $113 $-1 #
coedge $-1 $293 $402 $183 $285 reversed $181 $-1 #
edge $-1 $300 -13.912746747205361 $404 13.912746747205361 $284 $405 forward 7 unknown #
coedge $-1 $185 $184 $402 $406 forward $73 $-1 #
edge $-1 $291 -67.408062990203561 $404 67.408062990203561 $283 $407 forward 7 unknown #
coedge $-1 $296 $295 $185 $289 reversed $280 $-1 #
edge $-1 $408 -67.408062990203561 $290 67.408062990203561 $288 $409 forward 7 unknown #
vertex $-1 $187 $410 #
vertex $-1 $302 $411 #
straight-curve $-1 67.408062990203561 0 -13.912746747205361 0 -1 0 I I #
coedge $-1 $282 $284 $188 $294 reversed $181 $-1 #
edge $-1 $297 -31.19446101133002 $300 31.19446101133002 $293 $412 forward 7 unknown #
coedge $-1 $288 $189 $194 $303 forward $280 $-1 #
coedge $-1 $189 $288 $282 $403 reversed $280 $-1 #
vertex $-1 $190 $413 #
straight-curve $-1 0 31.19446101133002 13.912746747205361 -1 0 0 I I #
coedge $-1 $191 $283 $193 $302 reversed $113 $-1 #
vertex $-1 $294 $414 #
straight-curve $-1 0 -31.19446101133002 13.912746747205361 1 0 0 I I #
edge $-1 $196 -13.912746747205361 $291 13.912746747205361 $193 $415 forward 7 unknown #
edge $-1 $197 -13.912746747205361 $290 13.912746747205361 $194 $416 forward 7 unknown #
point $-1 67.408062990203561 -31.19446101133002 13.912746747205361 #
point $-1 67.408062990203561 31.19446101133002 13.912746747205361 #
face $-1 $-1 $316 $28 $-1 $417 reversed single #
loop $-1 $-1 $312 $199 #
plane-surface $-1 0 0 -13.912746747205361 0 0 1 1 0 0 forward_v I I I I #
coedge $-1 $418 $419 $207 $320 forward $200 $-1 #
coedge $-1 $202 $324 $314 $420 forward $121 $-1 #
edge $-1 $318 -18.163819565354281 $212 -7.8974633265972027 $202 $421 forward 7 unknown #
coedge $-1 $422 $208 $203 $313 forward $307 $-1 #
edge $-1 $213 7.8974633265972027 $317 18.163819565354281 $312 $423 forward 7 unknown #
coedge $-1 $424 $205 $310 $420 reversed $316 $-1 #
coedge $-1 $205 $424 $422 $425 reversed $316 $-1 #
loop $-1 $-1 $205 $306 #
vertex $-1 $425 $426 #
vertex $-1 $206 $427 #
straight-curve $-1 -60.139738719809245 -31.19446101133002 0 0 0 1 I I #
edge $-1 $325 -13.912746747205361 $322 13.912746747205361 $309 $428 forward 7 unknown #
coedge $-1 $208 $422 $418 $429 forward $307 $-1 #
vertex $-1 $209 $430 #
straight-curve $-1 -31.886950427503201 -20.928104772572944 -13.912746747205361 1 0 0 I I #
coedge $-1 $310 $210 $419 $431 forward $121 $-1 #
vertex $-1 $431 $432 #
straight-curve $-1 -31.886950427503201 -20.928104772572944 13.912746747205361 -1 0 0 I I #
point $-1 -60.139738719809245 -20.928104772572944 13.912746747205361 #
point $-1 -60.139738719809245 -20.928104772572944 -13.912746747205361 #
face $-1 $-1 $433 $29 $-1 $434 reversed single #
loop $-1 $-1 $335 $215 #
plane-surface $-1 0 0 13.912746747205361 0 0 1 1 0 0 forward_v I I I I #
coedge $-1 $218 $340 $435 $436 forward $129 $-1 #
edge $-1 $437 -18.163819565354277 $338 -7.897463326597201 $218 $438 forward 7 unknown #
coedge $-1 $220 $219 $439 $440 reversed $81 $-1 #
coedge $-1 $441 $225 $220 $336 forward $330 $-1 #
edge $-1 $337 7.897463326597201 $442 18.163819565354277 $335 $443 forward 7 unknown #
vertex $-1 $226 $444 #
vertex $-1 $224 $445 #
straight-curve $-1 -60.139738719809245 20.92810477257294 0 0 0 -1 I I #
coedge $-1 $332 $223 $228 $346 forward $129 $-1 #
straight-curve $-1 -31.886950427503201 20.92810477257294 -13.912746747205361 -1 0 0 I I #
coedge $-1 $225 $441 $227 $345 forward $330 $-1 #
straight-curve $-1 -31.886950427503201 20.92810477257294 13.912746747205361 1 0 0 I I #
coedge $-1 $228 $227 $446 $447 forward $216 $-1 #
edge $-1 $448 -31.19446101133002 $230 -20.92810477257294 $227 $449 forward 7 unknown #
edge $-1 $229 20.92810477257294 $450 31.19446101133002 $228 $451 forward 7 unknown #
point $-1 -67.408062990203561 20.92810477257294 -13.912746747205361 #
point $-1 -67.408062990203561 20.92810477257294 13.912746747205361 #
plane-surface $-1 0 0 13.912746747205361 0 0 1 1 0 0 forward_v I I I I #
coedge $-1 $360 $359 $352 $452 forward $233 $-1 #
coedge $-1 $352 $235 $237 $356 reversed $137 $-1 #
coedge $-1 $235 $351 $350 $452 reversed $137 $-1 #
coedge $-1 $243 $238 $235 $354 forward $244 $-1 #
edge $-1 $357 43.956060424349225 $453 58.377094257167222 $353 $454 forward 7 unknown #
coedge $-1 $237 $236 $360 $455 reversed $85 $-1 #
edge $-1 $456 -134.81612598040712 $357 -118.16415037530197 $351 $457 forward 7 unknown #
vertex $-1 $239 $458 #
straight-curve $-1 52.98702915738555 5.0840899514466642 13.912746747205368 0 -1 0 I I #
coedge $-1 $350 $240 $243 $364 reversed $233 $-1 #
coedge $-1 $240 $350 $355 $455 forward $233 $-1 #
vertex $-1 $241 $459 #
straight-curve $-1 67.408062990203561 15.123512569024435 94.874506071919484 0 0 1 I I #
straight-curve $-1 -49.346126427228569 15.123512569024435 72.994822726406838 0.8660253999169214 0 -0.50000000669873634 I I #
edge $-1 $453 5.2128472367622223 $245 15.123512569024435 $359 $460 forward 7 unknown #
point $-1 67.408062990203561 15.123512569024435 13.912746747205361 #
point $-1 52.987029157385564 15.123512569024435 13.912746747205361 #
edge $-1 $461 1 $461 0 $248 $-1 forward 7 unknown #
vertex $-1 $249 $462 #
ellipse-curve $-1 59.288567516128694 10.168179902893328 8.1753557734114519 0.50000000669873634 0 0.8660253999169214 0.8660253999169214 0 -0.50000000669873634 1 I I #
point $-1 61.063571473711463 10.168179902893328 9.2497527834567279 #
loop $-1 $-1 $261 $252 #
plane-surface $-1 -63.773900855006403 -20.928104772572944 0 0 -1 0 0 0 -1 forward_v I I I I #
coedge $-1 $463 $377 $260 $381 forward $253 $-1 #
coedge $-1 $255 $258 $464 $465 forward $152 $-1 #
coedge $-1 $382 $261 $255 $376 reversed $371 $-1 #
edge $-1 $466 -35.52111256270036 $264 -26.305623150299986 $255 $467 forward 7 unknown #
coedge $-1 $373 $464 $257 $378 forward $253 $-1 #
edge $-1 $379 35.097741809137709 $385 44.640660678597719 $377 $468 forward 7 unknown #
vertex $-1 $465 $469 #
straight-curve $-1 -82.193334623059428 -12.628690387216288 13.912746747205361 -1 0 0 I I #
edge $-1 $385 4.2394915972689802 $383 12.538905982625636 $373 $470 forward 7 unknown #
coedge $-1 $261 $375 $463 $471 reversed $371 $-1 #
vertex $-1 $471 $472 #
straight-curve $-1 -67.623021558569221 -20.928104772572944 4.1472317587103227 0.69465836192734942 0 0.71933980857756763 I I #
vertex $-1 $381 $473 #
straight-curve $-1 -67.408062990203561 -12.628690387216288 4.369827877745351 0.69465836192734942 0 0.71933980857756763 I I #
point $-1 -58.192573577803188 -20.928104772572944 13.912746747205361 #
point $-1 -58.192573577803188 -12.628690387216288 13.912746747205361 #
edge $-1 $474 1 $474 0 $267 $-1 forward 7 unknown #
vertex $-1 $268 $475 #
ellipse-curve $-1 -61.651815783757876 -19.268221895501611 8.0321913664750717 -0.71933980857756763 0 0.69465836192734942 0.34732918096367471 0 0.35966990428878381 1 I I #
point $-1 -62.452989103039691 -19.268221895501611 9.5009572167641352 #
edge $-1 $476 1 $476 0 $271 $-1 forward 7 unknown #
vertex $-1 $272 $477 #
ellipse-curve $-1 -61.651815783757876 -16.778397579894616 8.0321913664750717 -0.71933980857756763 0 0.69465836192734942 0.34732918096367471 0 0.35966990428878381 1 I I #
point $-1 -62.452989103039691 -16.778397579894616 9.5009572167641352 #
edge $-1 $478 1 $478 0 $275 $-1 forward 7 unknown #
vertex $-1 $276 $479 #
ellipse-curve $-1 -61.651815783757876 -14.288573264287621 8.0321913664750717 -0.71933980857756763 0 0.69465836192734942 0.34732918096367471 0 0.35966990428878381 1 I I #
point $-1 -62.452989103039691 -14.288573264287621 9.5009572167641352 #
plane-surface $-1 67.408062990203561 0 0 -1 0 0 0 0 1 forward_v I I I I #
coedge $-1 $284 $282 $286 $406 reversed $181 $-1 #
edge $-1 $297 -13.912746747205361 $408 13.912746747205361 $296 $480 forward 7 unknown #
vertex $-1 $406 $481 #
straight-curve $-1 -67.408062990203561 -31.19446101133002 0 0 0 -1 I I #
edge $-1 $404 -31.19446101133002 $408 31.19446101133002 $402 $482 forward 7 unknown #
straight-curve $-1 0 -31.19446101133002 -13.912746747205361 -1 0 0 I I #
vertex $-1 $289 $483 #
straight-curve $-1 0 31.19446101133002 -13.912746747205361 1 0 0 I I #
point $-1 67.408062990203561 31.19446101133002 -13.912746747205361 #
point $-1 67.408062990203561 -31.19446101133002 -13.912746747205361 #
straight-curve $-1 -67.408062990203561 0 13.912746747205361 0 -1 0 I I #
point $-1 -67.408062990203561 31.19446101133002 13.912746747205361 #
point $-1 -67.408062990203561 -31.19446101133002 13.912746747205361 #
straight-curve $-1 67.408062990203561 -31.19446101133002 0 0 0 -1 I I #
straight-curve $-1 67.408062990203561 31.19446101133002 0 0 0 -1 I I #
plane-surface $-1 0 -31.19446101133002 0 0 1 0 0 0 1 forward_v I I I I #
coedge $-1 $484 $309 $321 $429 reversed $200 $-1 #
coedge $-1 $309 $484 $324 $431 reversed $200 $-1 #
edge $-1 $485 -67.408062990203561 $318 -60.139738719809245 $314 $486 forward 7 unknown #
straight-curve $-1 -60.139738719809245 -13.030641445975741 13.912746747205361 0 1 0 I I #
coedge $-1 $321 $312 $315 $425 forward $307 $-1 #
straight-curve $-1 -60.139738719809245 -13.030641445975741 -13.912746747205361 0 -1 0 I I #
coedge $-1 $315 $314 $484 $487 forward $316 $-1 #
edge $-1 $317 60.139738719809245 $488 67.408062990203561 $315 $489 forward 7 unknown #
point $-1 -60.139738719809245 -31.19446101133002 -13.912746747205361 #
point $-1 -60.139738719809245 -31.19446101133002 13.912746747205361 #
straight-curve $-1 -67.408062990203561 -20.928104772572944 0 0 0 -1 I I #
edge $-1 $488 -31.19446101133002 $322 -20.928104772572944 $418 $490 forward 7 unknown #
point $-1 -67.408062990203561 -20.928104772572944 -13.912746747205361 #
edge $-1 $325 20.928104772572944 $485 31.19446101133002 $419 $491 forward 7 unknown #
point $-1 -67.408062990203561 -20.928104772572944 13.912746747205361 #
loop $-1 $-1 $439 $329 #
plane-surface $-1 0 31.19446101133002 0 0 -1 0 0 0 -1 forward_v I I I I #
coedge $-1 $446 $439 $332 $436 reversed $433 $-1 #
edge $-1 $450 -67.408062990203561 $437 -60.139738719809245 $435 $492 forward 7 unknown #
vertex $-1 $333 $493 #
straight-curve $-1 -60.139738719809245 13.030641445975739 -13.912746747205361 0 -1 0 I I #
coedge $-1 $435 $494 $334 $440 forward $433 $-1 #
edge $-1 $442 -13.912746747205361 $437 13.912746747205361 $439 $495 forward 7 unknown #
coedge $-1 $342 $335 $494 $496 forward $330 $-1 #
vertex $-1 $496 $497 #
straight-curve $-1 -60.139738719809245 13.030641445975739 13.912746747205361 0 1 0 I I #
point $-1 -60.139738719809245 20.92810477257294 13.912746747205361 #
point $-1 -60.139738719809245 20.92810477257294 -13.912746747205361 #
coedge $-1 $494 $435 $344 $447 reversed $433 $-1 #
edge $-1 $448 -13.912746747205361 $450 13.912746747205361 $446 $498 forward 7 unknown #
vertex $-1 $496 $499 #
straight-curve $-1 -67.408062990203561 0 13.912746747205361 0 -1 0 I I #
vertex $-1 $436 $500 #
straight-curve $-1 -67.408062990203561 0 -13.912746747205361 0 1 0 I I #
edge $-1 $453 80.961759324714123 $456 89.287747238813893 $350 $501 forward 7 unknown #
vertex $-1 $364 $502 #
straight-curve $-1 9.0309687330363388 5.2128472367622223 13.912746747205361 1 0 0 I I #
edge $-1 $456 0.12875728531555808 $361 10.03942261757777 $360 $503 forward 7 unknown #
vertex $-1 $455 $504 #
straight-curve $-1 -49.346126427228569 5.2128472367622223 72.994822726406838 -0.8660253999169214 0 0.50000000669873634 I I #
point $-1 52.987029157385564 5.2128472367622223 13.912746747205361 #
point $-1 67.408062990203561 15.123512569024435 5.5867588331055913 #
straight-curve $-1 67.408062990203561 0 13.912746747205361 0 1 0 I I #
vertex $-1 $367 $505 #
point $-1 60.154592916045615 10.168179902893328 7.6753557667127161 #
coedge $-1 $464 $373 $382 $471 forward $253 $-1 #
coedge $-1 $377 $463 $374 $465 reversed $253 $-1 #
edge $-1 $379 12.628690387216288 $466 20.928104772572944 $464 $506 forward 7 unknown #
vertex $-1 $471 $507 #
straight-curve $-1 -31.886950427503201 -20.928104772572944 13.912746747205361 1 0 0 I I #
straight-curve $-1 -67.408062990203561 -12.628690387216288 49.01048855634307 0 0 -1 I I #
point $-1 -67.408062990203561 -12.628690387216288 13.912746747205361 #
straight-curve $-1 -67.408062990203561 -8.3891987899473079 4.3698278777453474 0 -1 0 I I #
edge $-1 $383 4.369827877745351 $466 13.912746747205361 $463 $508 forward 7 unknown #
point $-1 -67.408062990203561 -20.928104772572944 4.369827877745351 #
point $-1 -67.408062990203561 -12.628690387216288 4.369827877745351 #
vertex $-1 $389 $509 #
point $-1 -61.304486602794206 -19.268221895501611 8.3918612707638545 #
vertex $-1 $393 $510 #
point $-1 -61.304486602794206 -16.778397579894616 8.3918612707638545 #
vertex $-1 $397 $511 #
point $-1 -61.304486602794206 -14.288573264287621 8.3918612707638545 #
straight-curve $-1 -67.408062990203561 31.19446101133002 0 0 0 -1 I I #
point $-1 -67.408062990203561 -31.19446101133002 -13.912746747205361 #
straight-curve $-1 -67.408062990203561 0 -13.912746747205361 0 1 0 I I #
point $-1 -67.408062990203561 31.19446101133002 -13.912746747205361 #
coedge $-1 $419 $418 $424 $487 reversed $200 $-1 #
vertex $-1 $431 $512 #
straight-curve $-1 0 -31.19446101133002 13.912746747205361 1 0 0 I I #
edge $-1 $485 -13.912746747205361 $488 13.912746747205361 $484 $513 forward 7 unknown #
vertex $-1 $429 $514 #
straight-curve $-1 0 -31.19446101133002 -13.912746747205361 -1 0 0 I I #
straight-curve $-1 -67.408062990203561 0 -13.912746747205361 0 1 0 I I #
straight-curve $-1 -67.408062990203561 0 13.912746747205361 0 -1 0 I I #
straight-curve $-1 0 31.19446101133002 -13.912746747205361 1 0 0 I I #
point $-1 -60.139738719809245 31.194461011330016 -13.912746747205361 #
coedge $-1 $439 $446 $441 $496 reversed $433 $-1 #
straight-curve $-1 -60.139738719809245 31.19446101133002 0 0 0 -1 I I #
edge $-1 $442 60.139738719809245 $448 67.408062990203561 $494 $515 forward 7 unknown #
point $-1 -60.139738719809245 31.194461011330016 13.912746747205361 #
straight-curve $-1 -67.408062990203561 31.19446101133002 0 0 0 -1 I I #
point $-1 -67.408062990203561 31.19446101133002 13.912746747205361 #
point $-1 -67.408062990203561 31.19446101133002 -13.912746747205361 #
straight-curve $-1 67.408062990203561 5.2128472367622223 94.874506071919484 0 0 -1 I I #
point $-1 67.408062990203561 5.2128472367622223 13.912746747205361 #
straight-curve $-1 67.408062990203547 5.0840899514466642 5.5867588331056055 0 1 0 I I #
point $-1 67.408062990203561 5.2128472367622223 5.5867588331055913 #
point $-1 58.788567509429953 10.168179902893328 7.3093303734945341 #
straight-curve $-1 -67.408062990203561 0 13.912746747205361 0 -1 0 I I #
point $-1 -67.408062990203561 -20.928104772572944 13.912746747205361 #
straight-curve $-1 -67.408062990203561 -20.928104772572944 0 0 0 1 I I #
point $-1 -61.292145879469096 -19.268221895501611 7.6848621855113963 #
point $-1 -61.292145879469096 -16.778397579894616 7.6848621855113963 #
point $-1 -61.292145879469096 -14.288573264287621 7.6848621855113963 #
point $-1 -67.408062990203561 -31.19446101133002 13.912746747205361 #
straight-curve $-1 -67.408062990203561 -31.19446101133002 0 0 0 -1 I I #
point $-1 -67.408062990203561 -31.19446101133002 -13.912746747205361 #
straight-curve $-1 0 31.19446101133002 13.912746747205361 -1 0 0 I I #
End-of-ACIS-data 