500 0 12 0           
7 Unknown 11 ACIS 5.0 NT 24 Thu Mar 25 18:16:37 1999 
-1 9.9999999999999995e-007 1e-010 
body $-1 $12 $-1 $13 #
body $-1 $14 $-1 $15 #
body $-1 $16 $-1 $17 #
body $-1 $18 $-1 $19 #
body $-1 $20 $-1 $21 #
body $-1 $22 $-1 $23 #
body $-1 $24 $-1 $25 #
body $-1 $26 $-1 $27 #
body $-1 $28 $-1 $29 #
body $-1 $30 $-1 $31 #
body $-1 $32 $-1 $33 #
body $-1 $34 $-1 $35 #
lump $-1 $-1 $36 $0 #
transform $-1 1 0 0 0 1 0 0 0 1 46.041444135868403 29.677038763403292 6.3293868127740591 1 rotate no_reflect no_shear #
lump $-1 $-1 $37 $1 #
transform $-1 1 0 0 0 1 0 0 0 1 46.041444135868403 29.677038763403292 6.3293868127740591 1 rotate no_reflect no_shear #
lump $-1 $-1 $38 $2 #
transform $-1 1 0 0 0 1 0 0 0 1 46.041444135868403 29.677038763403292 6.3293868127740591 1 rotate no_reflect no_shear #
lump $-1 $-1 $39 $3 #
transform $-1 1 0 0 0 1 0 0 0 1 46.041444135868403 29.677038763403292 6.3293868127740591 1 rotate no_reflect no_shear #
lump $-1 $-1 $40 $4 #
transform $-1 1 0 0 0 1 0 0 0 1 46.041444135868403 29.677038763403292 6.3293868127740591 1 rotate no_reflect no_shear #
lump $-1 $-1 $41 $5 #
transform $-1 1 0 0 0 1 0 0 0 1 46.041444135868403 29.677038763403292 6.3293868127740591 1 rotate no_reflect no_shear #
lump $-1 $-1 $42 $6 #
transform $-1 1 0 0 0 1 0 0 0 1 46.041444135868403 29.677038763403292 6.3293868127740591 1 rotate no_reflect no_shear #
lump $-1 $-1 $43 $7 #
transform $-1 1 0 0 0 1 0 0 0 1 46.041444135868403 29.677038763403292 6.3293868127740591 1 rotate no_reflect no_shear #
lump $-1 $-1 $44 $8 #
transform $-1 1 0 0 0 1 0 0 0 1 46.041444135868403 29.677038763403292 6.3293868127740591 1 rotate no_reflect no_shear #
lump $-1 $-1 $45 $9 #
transform $-1 1 0 0 0 1 0 0 0 1 46.041444135868403 29.677038763403292 6.3293868127740591 1 rotate no_reflect no_shear #
lump $-1 $-1 $46 $10 #
transform $-1 1 0 0 0 1 0 0 0 1 46.041444135868403 29.677038763403292 6.3293868127740591 1 rotate no_reflect no_shear #
lump $-1 $-1 $47 $11 #
transform $-1 1 0 0 0 1 0 0 0 1 46.041444135868403 29.677038763403292 6.3293868127740591 1 rotate no_reflect no_shear #
shell $-1 $-1 $-1 $48 $-1 $12 #
shell $-1 $-1 $-1 $49 $-1 $14 #
shell $-1 $-1 $-1 $50 $-1 $16 #
shell $-1 $-1 $-1 $51 $-1 $18 #
shell $-1 $-1 $-1 $52 $-1 $20 #
shell $-1 $-1 $-1 $53 $-1 $22 #
shell $-1 $-1 $-1 $54 $-1 $24 #
shell $-1 $-1 $-1 $55 $-1 $26 #
shell $-1 $-1 $-1 $56 $-1 $28 #
shell $-1 $-1 $-1 $57 $-1 $30 #
shell $-1 $-1 $-1 $58 $-1 $32 #
shell $-1 $-1 $-1 $59 $-1 $34 #
face $-1 $60 $61 $36 $-1 $62 forward single #
face $-1 $63 $64 $37 $-1 $65 forward single #
face $-1 $66 $67 $38 $-1 $68 reversed single #
face $-1 $69 $70 $39 $-1 $71 forward single #
face $-1 $72 $73 $40 $-1 $74 forward single #
face $-1 $75 $76 $41 $-1 $77 reversed single #
face $-1 $78 $79 $42 $-1 $80 forward single #
face $-1 $81 $82 $43 $-1 $83 forward single #
face $-1 $84 $85 $44 $-1 $86 reversed single #
face $-1 $87 $88 $45 $-1 $89 forward single #
face $-1 $90 $91 $46 $-1 $92 forward single #
face $-1 $93 $94 $47 $-1 $95 forward single #
face $-1 $96 $97 $36 $-1 $98 reversed single #
loop $-1 $-1 $99 $48 #
plane-surface $-1 0 0 6.3293868127740591 0 0 1 1 0 0 forward_v I I I I #
face $-1 $100 $101 $37 $-1 $102 reversed single #
loop $-1 $-1 $103 $49 #
plane-surface $-1 0 -27.410814245157638 -2.7581198891523586 0 0 1 1 0 0 forward_v I I I I #
face $-1 $104 $105 $38 $-1 $106 reversed single #
loop $-1 $-1 $107 $50 #
plane-surface $-1 -117.6032896375543 -8.0594984353307328 59.15338737888186 0 1 0 -0.77714596973225614 0 0.62932038083071107 forward_v I I I I #
face $-1 $108 $109 $39 $-1 $110 forward single #
loop $-1 $111 $112 $51 #
cone-surface $-1 -43.086948293808852 -5.1092918771660543 3.0546332925116024 0.77714596973225614 0 -0.62932038083071107 0.62932038083071107 0 0.77714596973225614 1 I I 0 1 1 forward I I I I #
face $-1 $113 $114 $40 $-1 $115 forward single #
loop $-1 $116 $117 $52 #
cone-surface $-1 -43.086948293808852 -0.68398203991903372 3.0546332925116024 0.77714596973225614 0 -0.62932038083071107 0.62932038083071107 0 0.77714596973225614 1 I I 0 1 1 forward I I I I #
face $-1 $118 $119 $41 $-1 $120 reversed single #
loop $-1 $-1 $121 $53 #
plane-surface $-1 -117.6032896375543 19.351315809826907 59.15338737888186 0 1 0 -0.77714596973225614 0 0.62932038083071107 forward_v I I I I #
face $-1 $122 $123 $42 $-1 $124 forward single #
loop $-1 $125 $126 $54 #
cone-surface $-1 -43.086948293808852 22.301522367991584 3.0546332925116024 0.77714596973225614 0 -0.62932038083071107 0.62932038083071107 0 0.77714596973225614 1 I I 0 1 1 forward I I I I #
face $-1 $127 $128 $43 $-1 $129 forward single #
loop $-1 $130 $131 $55 #
cone-surface $-1 -43.086948293808852 26.726832205238605 3.0546332925116024 0.77714596973225614 0 -0.62932038083071107 0.62932038083071107 0 0.77714596973225614 1 I I 0 1 1 forward I I I I #
face $-1 $132 $133 $44 $-1 $134 reversed single #
loop $-1 $-1 $135 $56 #
plane-surface $-1 12.336768747539736 -9.5574834473615375 127.88841030958611 0 -1 0 -0.50000000669873634 0 -0.8660253999169214 forward_v I I I I #
face $-1 $136 $137 $45 $-1 $138 forward single #
loop $-1 $139 $140 $57 #
cone-surface $-1 42.016467107340496 -15.452663886735886 3.5864633949237947 -0.50000000669873634 0 -0.8660253999169214 0.4330126999584607 0 -0.25000000334936817 1 I I 0 1 0.5 forward I I I I #
face $-1 $141 $142 $46 $-1 $143 forward single #
loop $-1 $144 $145 $58 #
cone-surface $-1 42.016467107340496 -13.241971221970505 3.5864633949237947 -0.50000000669873634 0 -0.8660253999169214 0.4330126999584607 0 -0.25000000334936817 1 I I 0 1 0.5 forward I I I I #
face $-1 $146 $147 $47 $-1 $148 forward single #
loop $-1 $149 $150 $59 #
cone-surface $-1 42.016467107340496 -11.031278557205123 3.5864633949237947 -0.50000000669873634 0 -0.8660253999169214 0.4330126999584607 0 -0.25000000334936817 1 I I 0 1 0.5 forward I I I I #
face $-1 $151 $152 $36 $-1 $153 reversed single #
loop $-1 $-1 $154 $60 #
plane-surface $-1 0 0 -6.3293868127740591 0 0 1 1 0 0 forward_v I I I I #
coedge $-1 $155 $156 $157 $158 forward $61 $-1 #
face $-1 $159 $160 $37 $-1 $161 reversed single #
loop $-1 $-1 $162 $63 #
plane-surface $-1 0 -27.410814245157638 -5.7581198891523586 0 0 1 1 0 0 forward_v I I I I #
coedge $-1 $163 $164 $165 $166 reversed $64 $-1 #
face $-1 $167 $168 $38 $-1 $169 reversed single #
loop $-1 $-1 $170 $66 #
plane-surface $-1 -46.041444135868403 -2.8966369585425404 1.2037490637206361 -0.77714596973225614 0 0.62932038083071107 0.62932038083071107 0 0.77714596973225614 forward_v I I I I #
coedge $-1 $171 $172 $173 $174 reversed $67 $-1 #
face $-1 $-1 $175 $39 $-1 $176 forward single #
loop $-1 $177 $178 $69 #
cone-surface $-1 -41.819209215647028 -5.1092918771660543 2.0280384563605001 0.77714596973225614 0 -0.62932038083071107 0.31466019041535553 0 0.38857298486612807 1 I I -0.70710678118654746 0.70710678118654746 0.5 forward I I I I #
loop $-1 $-1 $179 $51 #
coedge $-1 $112 $112 $180 $181 reversed $70 $-1 #
face $-1 $-1 $182 $40 $-1 $183 forward single #
loop $-1 $184 $185 $72 #
cone-surface $-1 -41.819209215647028 -0.68398203991903372 2.0280384563605001 0.77714596973225614 0 -0.62932038083071107 0.31466019041535553 0 0.38857298486612807 1 I I -0.70710678118654746 0.70710678118654746 0.5 forward I I I I #
loop $-1 $-1 $186 $52 #
coedge $-1 $117 $117 $187 $188 reversed $73 $-1 #
face $-1 $189 $190 $41 $-1 $191 forward single #
loop $-1 $-1 $192 $75 #
plane-surface $-1 -46.041444135868403 24.514177286615098 1.2037490637206361 -0.77714596973225614 0 0.62932038083071107 0.62932038083071107 0 0.77714596973225614 forward_v I I I I #
coedge $-1 $193 $194 $195 $196 reversed $76 $-1 #
face $-1 $-1 $197 $42 $-1 $198 forward single #
loop $-1 $199 $200 $78 #
cone-surface $-1 -41.819209215647028 22.301522367991584 2.0280384563605001 0.77714596973225614 0 -0.62932038083071107 0.31466019041535553 0 0.38857298486612807 1 I I -0.70710678118654746 0.70710678118654746 0.5 forward I I I I #
loop $-1 $-1 $201 $54 #
coedge $-1 $126 $126 $202 $203 reversed $79 $-1 #
face $-1 $-1 $204 $43 $-1 $205 forward single #
loop $-1 $206 $207 $81 #
cone-surface $-1 -41.819209215647028 26.726832205238605 2.0280384563605001 0.77714596973225614 0 -0.62932038083071107 0.31466019041535553 0 0.38857298486612807 1 I I -0.70710678118654746 0.70710678118654746 0.5 forward I I I I #
loop $-1 $-1 $208 $55 #
coedge $-1 $131 $131 $209 $210 reversed $82 $-1 #
face $-1 $211 $212 $44 $-1 $213 reversed single #
loop $-1 $-1 $214 $84 #
plane-surface $-1 -33.704676005167656 -13.241971221970505 48.142290168550048 0.50000000669873634 0 0.8660253999169214 0.8660253999169214 0 -0.50000000669873634 forward_v I I I I #
coedge $-1 $215 $216 $217 $218 reversed $85 $-1 #
face $-1 $-1 $219 $45 $-1 $220 forward single #
loop $-1 $221 $222 $87 #
cone-surface $-1 41.528514282418811 -15.452663886735886 2.7413043255600034 -0.50000000669873634 0 -0.8660253999169214 0.21650634997923035 0 -0.12500000167468409 1 I I -0.70710678118654746 0.70710678118654746 0.25 forward I I I I #
loop $-1 $-1 $223 $57 #
coedge $-1 $140 $140 $224 $225 reversed $88 $-1 #
face $-1 $-1 $226 $46 $-1 $227 forward single #
loop $-1 $228 $229 $90 #
cone-surface $-1 41.528514282418811 -13.241971221970505 2.7413043255600034 -0.50000000669873634 0 -0.8660253999169214 0.21650634997923035 0 -0.12500000167468409 1 I I -0.70710678118654746 0.70710678118654746 0.25 forward I I I I #
loop $-1 $-1 $230 $58 #
coedge $-1 $145 $145 $231 $232 reversed $91 $-1 #
face $-1 $-1 $233 $47 $-1 $234 forward single #
loop $-1 $235 $236 $93 #
cone-surface $-1 41.528514282418811 -11.031278557205123 2.7413043255600034 -0.50000000669873634 0 -0.8660253999169214 0.21650634997923035 0 -0.12500000167468409 1 I I -0.70710678118654746 0.70710678118654746 0.25 forward I I I I #
loop $-1 $-1 $237 $59 #
coedge $-1 $150 $150 $238 $239 reversed $94 $-1 #
face $-1 $240 $241 $36 $-1 $242 reversed single #
loop $-1 $-1 $243 $96 #
plane-surface $-1 0 -29.677038763403292 0 0 1 0 0 0 1 forward_v I I I I #
coedge $-1 $244 $245 $246 $247 forward $97 $-1 #
coedge $-1 $248 $99 $249 $250 forward $61 $-1 #
coedge $-1 $99 $248 $251 $252 forward $61 $-1 #
coedge $-1 $253 $254 $99 $158 reversed $255 $-1 #
edge $-1 $256 -29.677038763403292 $257 29.677038763403292 $157 $258 forward 7 unknown #
face $-1 $259 $260 $37 $-1 $261 reversed single #
loop $-1 $-1 $262 $100 #
plane-surface $-1 0 -25.144589726911985 -4.2581198891523586 0 -1 0 0 0 -1 forward_v I I I I #
coedge $-1 $263 $264 $265 $266 reversed $101 $-1 #
coedge $-1 $267 $103 $268 $269 forward $64 $-1 #
coedge $-1 $103 $267 $270 $271 reversed $64 $-1 #
coedge $-1 $272 $273 $103 $166 forward $274 $-1 #
edge $-1 $275 11.439182604333165 $276 15.971631640824473 $165 $277 forward 7 unknown #
face $-1 $278 $279 $38 $-1 $280 reversed single #
loop $-1 $-1 $281 $104 #
plane-surface $-1 -117.6032896375543 2.266224518245652 59.15338737888186 0 -1 0 0.77714596973225614 0 -0.62932038083071107 forward_v I I I I #
coedge $-1 $282 $283 $284 $285 reversed $105 $-1 #
coedge $-1 $172 $107 $286 $287 reversed $67 $-1 #
coedge $-1 $107 $171 $282 $288 reversed $67 $-1 #
coedge $-1 $284 $289 $107 $174 forward $290 $-1 #
edge $-1 $291 12.760200682908746 $292 16.910860180436451 $173 $293 forward 7 unknown #
loop $-1 $-1 $180 $108 #
plane-surface $-1 -46.041444135868403 -2.8966369585425404 1.2037490637206361 -0.77714596973225614 0 0.62932038083071107 0.62932038083071107 0 0.77714596973225614 forward_v I I I I #
loop $-1 $-1 $294 $69 #
coedge $-1 $178 $178 $179 $295 reversed $109 $-1 #
coedge $-1 $179 $179 $178 $295 forward $111 $-1 #
coedge $-1 $180 $180 $112 $181 forward $175 $-1 #
edge $-1 $296 0 $296 6.2831853071796004 $180 $297 forward 7 unknown #
loop $-1 $-1 $187 $113 #
plane-surface $-1 -46.041444135868403 -2.8966369585425404 1.2037490637206361 -0.77714596973225614 0 0.62932038083071107 0.62932038083071107 0 0.77714596973225614 forward_v I I I I #
loop $-1 $-1 $298 $72 #
coedge $-1 $185 $185 $186 $299 reversed $114 $-1 #
coedge $-1 $186 $186 $185 $299 forward $116 $-1 #
coedge $-1 $187 $187 $117 $188 forward $182 $-1 #
edge $-1 $300 0 $300 6.2831853071796004 $187 $301 forward 7 unknown #
face $-1 $302 $303 $41 $-1 $304 reversed single #
loop $-1 $-1 $195 $118 #
plane-surface $-1 0 0 6.3293868127740591 0 0 1 1 0 0 forward_v I I I I #
coedge $-1 $305 $306 $307 $308 reversed $119 $-1 #
coedge $-1 $194 $121 $309 $310 reversed $76 $-1 #
coedge $-1 $121 $193 $305 $311 reversed $76 $-1 #
coedge $-1 $307 $312 $121 $196 forward $190 $-1 #
edge $-1 $313 12.760200682908746 $314 16.910860180436451 $195 $315 forward 7 unknown #
loop $-1 $-1 $202 $122 #
plane-surface $-1 -46.041444135868403 24.514177286615098 1.2037490637206361 -0.77714596973225614 0 0.62932038083071107 0.62932038083071107 0 0.77714596973225614 forward_v I I I I #
loop $-1 $-1 $316 $78 #
coedge $-1 $200 $200 $201 $317 reversed $123 $-1 #
coedge $-1 $201 $201 $200 $317 forward $125 $-1 #
coedge $-1 $202 $202 $126 $203 forward $197 $-1 #
edge $-1 $318 0 $318 6.2831853071796004 $202 $319 forward 7 unknown #
loop $-1 $-1 $209 $127 #
plane-surface $-1 -46.041444135868403 24.514177286615098 1.2037490637206361 -0.77714596973225614 0 0.62932038083071107 0.62932038083071107 0 0.77714596973225614 forward_v I I I I #
loop $-1 $-1 $320 $81 #
coedge $-1 $207 $207 $208 $321 reversed $128 $-1 #
coedge $-1 $208 $208 $207 $321 forward $130 $-1 #
coedge $-1 $209 $209 $131 $210 forward $204 $-1 #
edge $-1 $322 0 $322 6.2831853071796004 $209 $323 forward 7 unknown #
face $-1 $324 $325 $44 $-1 $326 reversed single #
loop $-1 $-1 $327 $132 #
plane-surface $-1 12.336768747539736 -16.926458996579473 127.88841030958611 0 1 0 0.50000000669873634 0 0.8660253999169214 forward_v I I I I #
coedge $-1 $328 $329 $330 $331 reversed $133 $-1 #
coedge $-1 $216 $135 $332 $333 reversed $85 $-1 #
coedge $-1 $135 $215 $328 $334 reversed $85 $-1 #
coedge $-1 $330 $335 $135 $218 forward $336 $-1 #
edge $-1 $337 -39.873059762098535 $338 -32.54901135153672 $217 $339 forward 7 unknown #
loop $-1 $-1 $224 $136 #
plane-surface $-1 -33.704676005167656 -13.241971221970505 48.142290168550048 0.50000000669873634 0 0.8660253999169214 0.8660253999169214 0 -0.50000000669873634 forward_v I I I I #
loop $-1 $-1 $340 $87 #
coedge $-1 $222 $222 $223 $341 reversed $137 $-1 #
coedge $-1 $223 $223 $222 $341 forward $139 $-1 #
coedge $-1 $224 $224 $140 $225 forward $219 $-1 #
edge $-1 $342 0 $342 6.2831853071796004 $224 $343 forward 7 unknown #
loop $-1 $-1 $231 $141 #
plane-surface $-1 -33.704676005167656 -13.241971221970505 48.142290168550048 0.50000000669873634 0 0.8660253999169214 0.8660253999169214 0 -0.50000000669873634 forward_v I I I I #
loop $-1 $-1 $344 $90 #
coedge $-1 $229 $229 $230 $345 reversed $142 $-1 #
coedge $-1 $230 $230 $229 $345 forward $144 $-1 #
coedge $-1 $231 $231 $145 $232 forward $226 $-1 #
edge $-1 $346 0 $346 6.2831853071796004 $231 $347 forward 7 unknown #
loop $-1 $-1 $238 $146 #
plane-surface $-1 -33.704676005167656 -13.241971221970505 48.142290168550048 0.50000000669873634 0 0.8660253999169214 0.8660253999169214 0 -0.50000000669873634 forward_v I I I I #
loop $-1 $-1 $348 $93 #
coedge $-1 $236 $236 $237 $349 reversed $147 $-1 #
coedge $-1 $237 $237 $236 $349 forward $149 $-1 #
coedge $-1 $238 $238 $150 $239 forward $233 $-1 #
edge $-1 $350 0 $350 6.2831853071796004 $238 $351 forward 7 unknown #
face $-1 $352 $353 $36 $-1 $354 reversed single #
loop $-1 $-1 $355 $151 #
plane-surface $-1 -46.041444135868403 0 0 1 0 0 0 0 -1 forward_v I I I I #
coedge $-1 $356 $251 $357 $358 forward $152 $-1 #
coedge $-1 $359 $154 $356 $360 forward $97 $-1 #
coedge $-1 $154 $359 $361 $362 forward $97 $-1 #
coedge $-1 $254 $253 $154 $247 reversed $255 $-1 #
edge $-1 $363 -29.677038763403292 $364 29.677038763403292 $246 $365 forward 7 unknown #
coedge $-1 $156 $155 $366 $367 forward $61 $-1 #
coedge $-1 $368 $369 $155 $250 reversed $353 $-1 #
edge $-1 $257 -46.041444135868403 $370 46.041444135868403 $249 $371 forward 7 unknown #
coedge $-1 $243 $372 $156 $252 reversed $152 $-1 #
edge $-1 $373 -46.041444135868403 $256 46.041444135868403 $251 $374 forward 7 unknown #
coedge $-1 $246 $157 $372 $375 forward $255 $-1 #
coedge $-1 $157 $246 $368 $376 reversed $255 $-1 #
loop $-1 $-1 $253 $352 #
vertex $-1 $158 $377 #
vertex $-1 $158 $378 #
straight-curve $-1 46.041444135868403 0 6.3293868127740591 0 1 0 I I #
face $-1 $379 $380 $37 $-1 $381 reversed single #
loop $-1 $-1 $382 $159 #
plane-surface $-1 -46.041444135868403 0 0 1 0 0 0 0 -1 forward_v I I I I #
coedge $-1 $383 $268 $273 $384 reversed $160 $-1 #
coedge $-1 $385 $162 $386 $387 reversed $101 $-1 #
coedge $-1 $162 $385 $383 $388 forward $101 $-1 #
coedge $-1 $273 $272 $162 $266 forward $274 $-1 #
edge $-1 $389 -15.971631640824473 $390 -11.439182604333165 $265 $391 forward 7 unknown #
coedge $-1 $164 $163 $382 $392 reversed $64 $-1 #
coedge $-1 $262 $393 $163 $269 reversed $160 $-1 #
edge $-1 $275 -46.041444135868403 $394 46.041444135868403 $268 $395 forward 7 unknown #
coedge $-1 $396 $397 $164 $271 forward $380 $-1 #
edge $-1 $276 -46.041444135868403 $398 46.041444135868403 $270 $399 forward 7 unknown #
coedge $-1 $265 $165 $397 $400 forward $274 $-1 #
coedge $-1 $165 $265 $262 $384 forward $274 $-1 #
loop $-1 $-1 $165 $379 #
vertex $-1 $166 $401 #
vertex $-1 $400 $402 #
straight-curve $-1 46.041444135868403 -13.705407122578819 -2.7581198891523586 0 -1 0 I I #
face $-1 $-1 $290 $38 $-1 $403 forward single #
loop $-1 $-1 $404 $167 #
plane-surface $-1 -46.041444135868403 0 0 1 0 0 0 0 -1 forward_v I I I I #
coedge $-1 $405 $406 $407 $408 reversed $168 $-1 #
coedge $-1 $409 $170 $172 $288 forward $105 $-1 #
coedge $-1 $170 $409 $405 $410 forward $105 $-1 #
coedge $-1 $407 $173 $170 $285 forward $290 $-1 #
edge $-1 $292 -6.6111799560594626 $411 3.7145429975169222 $284 $412 forward 7 unknown #
coedge $-1 $413 $414 $171 $287 forward $279 $-1 #
edge $-1 $415 -28.372944625720294 $291 -23.247306876666869 $286 $416 forward 7 unknown #
edge $-1 $292 -6.5954633346671248 $415 0 $172 $417 forward 7 unknown #
coedge $-1 $173 $407 $413 $418 forward $290 $-1 #
loop $-1 $-1 $407 $278 #
vertex $-1 $287 $419 #
vertex $-1 $174 $420 #
straight-curve $-1 -58.801644818777149 -8.0594984353307328 6.3293868127740609 1 0 0 I I #
coedge $-1 $294 $294 $-1 $421 reversed $177 $-1 #
edge $-1 $422 0 $422 6.2831853071796004 $178 $423 forward 7 unknown #
vertex $-1 $181 $424 #
ellipse-curve $-1 -43.966114387104547 -5.1092918771660543 3.7665679382473485 -0.77714596973225614 0 0.62932038083071107 0.62932038083071107 0 0.77714596973225614 1 I I #
coedge $-1 $298 $298 $-1 $425 reversed $184 $-1 #
edge $-1 $426 0 $426 6.2831853071796004 $185 $427 forward 7 unknown #
vertex $-1 $188 $428 #
ellipse-curve $-1 -43.966114387104547 -0.68398203991903372 3.7665679382473485 -0.77714596973225614 0 0.62932038083071107 0.62932038083071107 0 0.77714596973225614 1 I I #
face $-1 $-1 $429 $41 $-1 $430 reversed single #
loop $-1 $-1 $431 $189 #
plane-surface $-1 0 29.677038763403292 0 0 -1 0 0 0 -1 forward_v I I I I #
coedge $-1 $432 $192 $194 $311 forward $119 $-1 #
coedge $-1 $192 $432 $431 $433 reversed $119 $-1 #
coedge $-1 $434 $195 $192 $308 forward $190 $-1 #
edge $-1 $314 7.0942271665193584 $435 17.419950120095741 $307 $436 forward 7 unknown #
coedge $-1 $437 $438 $193 $310 forward $429 $-1 #
edge $-1 $439 -28.372944625720294 $313 -23.247306876666869 $309 $440 forward 7 unknown #
edge $-1 $314 -6.5954633346671248 $439 0 $194 $441 forward 7 unknown #
coedge $-1 $195 $434 $437 $442 forward $190 $-1 #
vertex $-1 $310 $443 #
vertex $-1 $196 $444 #
straight-curve $-1 -58.801644818777149 19.351315809826907 6.3293868127740609 1 0 0 I I #
coedge $-1 $316 $316 $-1 $445 reversed $199 $-1 #
edge $-1 $446 0 $446 6.2831853071796004 $200 $447 forward 7 unknown #
vertex $-1 $203 $448 #
ellipse-curve $-1 -43.966114387104547 22.301522367991584 3.7665679382473485 -0.77714596973225614 0 0.62932038083071107 0.62932038083071107 0 0.77714596973225614 1 I I #
coedge $-1 $320 $320 $-1 $449 reversed $206 $-1 #
edge $-1 $450 0 $450 6.2831853071796004 $207 $451 forward 7 unknown #
vertex $-1 $210 $452 #
ellipse-curve $-1 -43.966114387104547 26.726832205238605 3.7665679382473485 -0.77714596973225614 0 0.62932038083071107 0.62932038083071107 0 0.77714596973225614 1 I I #
face $-1 $-1 $336 $44 $-1 $453 forward single #
loop $-1 $-1 $454 $211 #
plane-surface $-1 46.041444135868403 0 0 -1 0 0 0 0 1 forward_v I I I I #
coedge $-1 $455 $456 $457 $458 reversed $212 $-1 #
coedge $-1 $459 $214 $216 $334 forward $133 $-1 #
coedge $-1 $214 $459 $455 $460 forward $133 $-1 #
coedge $-1 $457 $217 $214 $331 forward $336 $-1 #
edge $-1 $338 2.9364978363762848 $461 10.305473385594221 $330 $462 forward 7 unknown #
coedge $-1 $463 $464 $215 $333 forward $325 $-1 #
edge $-1 $465 -61.843359738950397 $337 -57.614818342018992 $332 $466 forward 7 unknown #
edge $-1 $338 83.625805591177539 $465 92.082888271736806 $216 $467 forward 7 unknown #
coedge $-1 $217 $457 $463 $468 forward $336 $-1 #
loop $-1 $-1 $457 $324 #
vertex $-1 $333 $469 #
vertex $-1 $218 $470 #
straight-curve $-1 6.168384373769868 -9.5574834473615375 6.3293868127740609 -1 0 0 I I #
coedge $-1 $340 $340 $-1 $471 reversed $221 $-1 #
edge $-1 $472 0 $472 6.2831853071796004 $222 $473 forward 7 unknown #
vertex $-1 $225 $474 #
ellipse-curve $-1 42.379419930587495 -15.452663886735886 4.2151161143083566 0.50000000669873634 0 0.8660253999169214 0.4330126999584607 0 -0.25000000334936817 1 I I #
coedge $-1 $344 $344 $-1 $475 reversed $228 $-1 #
edge $-1 $476 0 $476 6.2831853071796004 $229 $477 forward 7 unknown #
vertex $-1 $232 $478 #
ellipse-curve $-1 42.379419930587495 -13.241971221970505 4.2151161143083566 0.50000000669873634 0 0.8660253999169214 0.4330126999584607 0 -0.25000000334936817 1 I I #
coedge $-1 $348 $348 $-1 $479 reversed $235 $-1 #
edge $-1 $480 0 $480 6.2831853071796004 $236 $481 forward 7 unknown #
vertex $-1 $239 $482 #
ellipse-curve $-1 42.379419930587495 -11.031278557205123 4.2151161143083566 0.50000000669873634 0 0.8660253999169214 0.4330126999584607 0 -0.25000000334936817 1 I I #
face $-1 $-1 $255 $36 $-1 $483 reversed single #
loop $-1 $-1 $368 $240 #
plane-surface $-1 0 29.677038763403292 0 0 -1 0 0 0 -1 forward_v I I I I #
coedge $-1 $484 $366 $369 $485 forward $241 $-1 #
coedge $-1 $372 $243 $244 $360 reversed $152 $-1 #
coedge $-1 $366 $484 $243 $358 reversed $241 $-1 #
edge $-1 $373 -6.3293868127740591 $486 6.3293868127740591 $357 $487 forward 7 unknown #
coedge $-1 $245 $244 $484 $488 forward $97 $-1 #
edge $-1 $364 -46.041444135868403 $486 46.041444135868403 $356 $489 forward 7 unknown #
coedge $-1 $369 $368 $245 $362 reversed $353 $-1 #
edge $-1 $490 -46.041444135868403 $363 46.041444135868403 $361 $491 forward 7 unknown #
vertex $-1 $247 $492 #
vertex $-1 $375 $493 #
straight-curve $-1 46.041444135868403 0 -6.3293868127740591 0 -1 0 I I #
coedge $-1 $355 $357 $248 $367 reversed $241 $-1 #
edge $-1 $370 -29.677038763403292 $373 29.677038763403292 $366 $494 forward 7 unknown #
coedge $-1 $361 $249 $254 $376 forward $353 $-1 #
coedge $-1 $249 $361 $355 $485 reversed $353 $-1 #
vertex $-1 $250 $495 #
straight-curve $-1 0 29.677038763403292 6.3293868127740591 -1 0 0 I I #
coedge $-1 $251 $356 $253 $375 reversed $152 $-1 #
vertex $-1 $367 $496 #
straight-curve $-1 0 -29.677038763403292 6.3293868127740591 1 0 0 I I #
edge $-1 $256 -6.3293868127740591 $364 6.3293868127740591 $253 $497 forward 7 unknown #
edge $-1 $257 -6.3293868127740591 $363 6.3293868127740591 $254 $498 forward 7 unknown #
point $-1 46.041444135868403 -29.677038763403292 6.3293868127740591 #
point $-1 46.041444135868403 29.677038763403292 6.3293868127740591 #
face $-1 $-1 $274 $37 $-1 $499 reversed single #
loop $-1 $-1 $270 $259 #
plane-surface $-1 0 -29.677038763403292 0 0 1 0 0 0 1 forward_v I I I I #
coedge $-1 $500 $501 $267 $392 forward $260 $-1 #
coedge $-1 $393 $262 $264 $388 reversed $160 $-1 #
edge $-1 $390 -3.6290599445761793 $275 -0.62905994457617931 $273 $502 forward 7 unknown #
coedge $-1 $264 $263 $503 $504 reversed $101 $-1 #
coedge $-1 $397 $396 $263 $387 forward $380 $-1 #
edge $-1 $505 -46.041444135868403 $389 46.041444135868403 $386 $506 forward 7 unknown #
edge $-1 $507 -46.041444135868403 $390 46.041444135868403 $383 $508 forward 7 unknown #
vertex $-1 $387 $509 #
vertex $-1 $266 $510 #
straight-curve $-1 46.041444135868403 -13.705407122578819 -5.7581198891523586 0 1 0 I I #
edge $-1 $398 -15.971631640824473 $394 -11.439182604333165 $382 $511 forward 7 unknown #
coedge $-1 $268 $383 $500 $512 reversed $160 $-1 #
vertex $-1 $392 $513 #
straight-curve $-1 0 -25.144589726911985 -2.7581198891523586 -1 0 0 I I #
coedge $-1 $386 $270 $501 $514 forward $380 $-1 #
coedge $-1 $270 $386 $272 $400 reversed $380 $-1 #
vertex $-1 $514 $515 #
straight-curve $-1 0 -29.677038763403292 -2.7581198891523586 -1 0 0 I I #
edge $-1 $276 2.7581198891523586 $389 5.7581198891523586 $272 $516 forward 7 unknown #
point $-1 46.041444135868403 -25.144589726911985 -2.7581198891523586 #
point $-1 46.041444135868403 -29.677038763403292 -2.7581198891523586 #
plane-surface $-1 0 0 6.3293868127740591 0 0 1 1 0 0 forward_v I I I I #
coedge $-1 $414 $413 $406 $517 forward $279 $-1 #
coedge $-1 $406 $281 $283 $410 reversed $168 $-1 #
coedge $-1 $281 $405 $404 $517 reversed $168 $-1 #
coedge $-1 $289 $284 $281 $408 forward $290 $-1 #
edge $-1 $411 -16.910860180436451 $518 -12.760200682908746 $407 $519 forward 7 unknown #
coedge $-1 $283 $282 $414 $520 reversed $105 $-1 #
edge $-1 $521 0 $411 6.5954633346671248 $405 $522 forward 7 unknown #
vertex $-1 $285 $523 #
straight-curve $-1 -41.890784638340698 -1.4483184792712702 6.3293868127740591 0 1 0 I I #
coedge $-1 $404 $286 $289 $418 reversed $279 $-1 #
coedge $-1 $286 $404 $409 $520 forward $279 $-1 #
vertex $-1 $287 $524 #
straight-curve $-1 -46.041444135868403 -8.0594984353307328 29.57669368944093 0 0 1 I I #
straight-curve $-1 -46.041444135868403 -8.0594984353307328 1.2037490637206361 -0.62932038083071107 0 -0.77714596973225614 I I #
edge $-1 $518 -2.266224518245652 $291 8.0594984353307328 $413 $525 forward 7 unknown #
point $-1 -46.041444135868403 -8.0594984353307328 6.3293868127740591 #
point $-1 -41.890784638340698 -8.0594984353307328 6.3293868127740591 #
edge $-1 $526 1 $526 0 $294 $-1 forward 7 unknown #
vertex $-1 $295 $527 #
ellipse-curve $-1 -42.207782200513158 -5.1092918771660543 2.3426986467758555 -0.77714596973225614 0 0.62932038083071107 0.62932038083071107 0 0.77714596973225614 1 I I #
point $-1 -43.336794006273841 -5.1092918771660543 4.5437139079796047 #
edge $-1 $528 1 $528 0 $298 $-1 forward 7 unknown #
vertex $-1 $299 $529 #
ellipse-curve $-1 -42.207782200513158 -0.68398203991903372 2.3426986467758555 -0.77714596973225614 0 0.62932038083071107 0.62932038083071107 0 0.77714596973225614 1 I I #
point $-1 -43.336794006273841 -0.68398203991903372 4.5437139079796047 #
loop $-1 $-1 $309 $302 #
plane-surface $-1 -46.041444135868403 0 0 1 0 0 0 0 -1 forward_v I I I I #
coedge $-1 $530 $531 $306 $433 forward $303 $-1 #
coedge $-1 $306 $305 $438 $532 reversed $119 $-1 #
edge $-1 $435 7.4242018774034459 $533 14.019665212070571 $431 $534 forward 7 unknown #
coedge $-1 $312 $307 $531 $535 forward $190 $-1 #
vertex $-1 $535 $536 #
straight-curve $-1 -41.890784638340698 12.257088643307549 6.3293868127740591 0 1 0 I I #
coedge $-1 $537 $309 $312 $442 reversed $429 $-1 #
coedge $-1 $309 $537 $432 $532 forward $429 $-1 #
vertex $-1 $310 $538 #
straight-curve $-1 -46.041444135868403 19.351315809826907 29.57669368944093 0 0 1 I I #
straight-curve $-1 -46.041444135868403 19.351315809826907 1.2037490637206361 -0.62932038083071107 0 -0.77714596973225614 I I #
edge $-1 $539 -29.677038763403292 $313 -19.351315809826907 $437 $540 forward 7 unknown #
point $-1 -46.041444135868403 19.351315809826907 6.3293868127740591 #
point $-1 -41.890784638340698 19.351315809826907 6.3293868127740591 #
edge $-1 $541 1 $541 0 $316 $-1 forward 7 unknown #
vertex $-1 $317 $542 #
ellipse-curve $-1 -42.207782200513158 22.301522367991584 2.3426986467758555 -0.77714596973225614 0 0.62932038083071107 0.62932038083071107 0 0.77714596973225614 1 I I #
point $-1 -43.336794006273841 22.301522367991584 4.5437139079796047 #
edge $-1 $543 1 $543 0 $320 $-1 forward 7 unknown #
vertex $-1 $321 $544 #
ellipse-curve $-1 -42.207782200513158 26.726832205238605 2.3426986467758555 -0.77714596973225614 0 0.62932038083071107 0.62932038083071107 0 0.77714596973225614 1 I I #
point $-1 -43.336794006273841 26.726832205238605 4.5437139079796047 #
plane-surface $-1 0 0 6.3293868127740591 0 0 1 1 0 0 forward_v I I I I #
coedge $-1 $464 $463 $456 $545 forward $325 $-1 #
coedge $-1 $456 $327 $329 $460 reversed $212 $-1 #
coedge $-1 $327 $455 $454 $545 reversed $212 $-1 #
coedge $-1 $335 $330 $327 $458 forward $336 $-1 #
edge $-1 $461 32.54901135153672 $546 39.873059762098535 $457 $547 forward 7 unknown #
coedge $-1 $329 $328 $464 $548 reversed $133 $-1 #
edge $-1 $549 -92.082888271736806 $461 -83.625805591177539 $455 $550 forward 7 unknown #
vertex $-1 $331 $551 #
straight-curve $-1 38.717395725306595 -6.6209856109852527 6.3293868127740609 0 -1 0 I I #
coedge $-1 $454 $332 $335 $468 reversed $325 $-1 #
coedge $-1 $332 $454 $459 $548 forward $325 $-1 #
vertex $-1 $333 $552 #
straight-curve $-1 46.041444135868403 -9.5574834473615375 63.944205154793053 0 0 1 I I #
straight-curve $-1 -33.704676005167656 -9.5574834473615375 48.142290168550048 0.8660253999169214 0 -0.50000000669873634 I I #
edge $-1 $546 -16.926458996579473 $337 -9.5574834473615375 $463 $553 forward 7 unknown #
point $-1 46.041444135868403 -9.5574834473615375 6.3293868127740591 #
point $-1 38.717395725306588 -9.5574834473615375 6.3293868127740609 #
edge $-1 $554 1 $554 0 $340 $-1 forward 7 unknown #
vertex $-1 $341 $555 #
ellipse-curve $-1 41.653514284093497 -15.452663886735886 2.9578106755392337 0.50000000669873634 0 0.8660253999169214 0.4330126999584607 0 -0.25000000334936817 1 I I #
point $-1 42.812432630545956 -15.452663886735886 3.9651161109589874 #
edge $-1 $556 1 $556 0 $344 $-1 forward 7 unknown #
vertex $-1 $345 $557 #
ellipse-curve $-1 41.653514284093497 -13.241971221970505 2.9578106755392337 0.50000000669873634 0 0.8660253999169214 0.4330126999584607 0 -0.25000000334936817 1 I I #
point $-1 42.812432630545956 -13.241971221970505 3.9651161109589874 #
edge $-1 $558 1 $558 0 $348 $-1 forward 7 unknown #
vertex $-1 $349 $559 #
ellipse-curve $-1 41.653514284093497 -11.031278557205123 2.9578106755392337 0.50000000669873634 0 0.8660253999169214 0.4330126999584607 0 -0.25000000334936817 1 I I #
point $-1 42.812432630545956 -11.031278557205123 3.9651161109589874 #
plane-surface $-1 46.041444135868403 0 0 -1 0 0 0 0 1 forward_v I I I I #
coedge $-1 $357 $355 $359 $488 reversed $241 $-1 #
edge $-1 $370 -6.3293868127740591 $490 6.3293868127740591 $369 $560 forward 7 unknown #
vertex $-1 $488 $561 #
straight-curve $-1 -46.041444135868403 -29.677038763403292 0 0 0 -1 I I #
edge $-1 $486 -29.677038763403292 $490 29.677038763403292 $484 $562 forward 7 unknown #
straight-curve $-1 0 -29.677038763403292 -6.3293868127740591 -1 0 0 I I #
vertex $-1 $362 $563 #
straight-curve $-1 0 29.677038763403292 -6.3293868127740591 1 0 0 I I #
point $-1 46.041444135868403 29.677038763403292 -6.3293868127740591 #
point $-1 46.041444135868403 -29.677038763403292 -6.3293868127740591 #
straight-curve $-1 -46.041444135868403 0 6.3293868127740591 0 -1 0 I I #
point $-1 -46.041444135868403 29.677038763403292 6.3293868127740591 #
point $-1 -46.041444135868403 -29.677038763403292 6.3293868127740591 #
straight-curve $-1 46.041444135868403 -29.677038763403292 0 0 0 -1 I I #
straight-curve $-1 46.041444135868403 29.677038763403292 0 0 0 -1 I I #
plane-surface $-1 46.041444135868403 0 0 -1 0 0 0 0 1 forward_v I I I I #
coedge $-1 $503 $382 $393 $512 forward $260 $-1 #
coedge $-1 $382 $503 $396 $514 reversed $260 $-1 #
straight-curve $-1 46.041444135868403 -25.144589726911985 -2.1290599445761793 0 0 1 I I #
coedge $-1 $501 $500 $385 $504 forward $260 $-1 #
edge $-1 $507 11.439182604333165 $505 15.971631640824473 $503 $564 forward 7 unknown #
vertex $-1 $387 $565 #
straight-curve $-1 0 -29.677038763403292 -5.7581198891523586 1 0 0 I I #
vertex $-1 $504 $566 #
straight-curve $-1 0 -25.144589726911985 -5.7581198891523586 1 0 0 I I #
point $-1 46.041444135868403 -29.677038763403292 -5.7581198891523586 #
point $-1 46.041444135868403 -25.144589726911985 -5.7581198891523586 #
straight-curve $-1 -46.041444135868403 -13.705407122578819 -2.7581198891523586 0 1 0 I I #
edge $-1 $394 0.62905994457617931 $507 3.6290599445761793 $500 $567 forward 7 unknown #
point $-1 -46.041444135868403 -25.144589726911985 -2.7581198891523586 #
edge $-1 $398 2.7581198891523586 $505 5.7581198891523586 $501 $568 forward 7 unknown #
point $-1 -46.041444135868403 -29.677038763403292 -2.7581198891523586 #
straight-curve $-1 46.041444135868403 -29.677038763403292 0 0 0 -1 I I #
edge $-1 $518 23.247306876666869 $521 28.372944625720294 $404 $569 forward 7 unknown #
vertex $-1 $418 $570 #
straight-curve $-1 -58.801644818777149 2.266224518245652 6.3293868127740609 -1 0 0 I I #
edge $-1 $521 -3.7145429975169222 $415 6.6111799560594626 $414 $571 forward 7 unknown #
vertex $-1 $520 $572 #
straight-curve $-1 -46.041444135868403 2.266224518245652 1.2037490637206361 0.62932038083071107 0 0.77714596973225614 I I #
point $-1 -41.890784638340698 2.266224518245652 6.3293868127740591 #
point $-1 -46.041444135868403 -8.0594984353307328 1.2037490637206361 #
straight-curve $-1 -46.041444135868403 0 6.3293868127740591 0 -1 0 I I #
vertex $-1 $421 $573 #
point $-1 -41.578461819682445 -5.1092918771660543 3.1198446165081117 #
vertex $-1 $425 $574 #
point $-1 -41.578461819682445 -0.68398203991903372 3.1198446165081117 #
coedge $-1 $531 $431 $537 $575 reversed $303 $-1 #
coedge $-1 $431 $530 $434 $535 reversed $303 $-1 #
edge $-1 $533 -17.419950120095741 $439 -7.0942271665193584 $438 $576 forward 7 unknown #
vertex $-1 $433 $577 #
straight-curve $-1 -37.21858308548908 29.677038763403292 12.099075380276796 -0.62932038083071107 0 -0.77714596973225614 I I #
edge $-1 $435 41.890784638340698 $539 46.041444135868403 $531 $578 forward 7 unknown #
point $-1 -41.890784638340698 29.677038763403289 6.3293868127740591 #
coedge $-1 $438 $437 $530 $575 forward $429 $-1 #
point $-1 -46.041444135868403 19.351315809826907 1.2037490637206361 #
vertex $-1 $535 $579 #
straight-curve $-1 -46.041444135868403 0 6.3293868127740591 0 -1 0 I I #
vertex $-1 $445 $580 #
point $-1 -41.578461819682445 22.301522367991584 3.1198446165081117 #
vertex $-1 $449 $581 #
point $-1 -41.578461819682445 26.726832205238605 3.1198446165081117 #
edge $-1 $546 57.614818342018992 $549 61.843359738950397 $454 $582 forward 7 unknown #
vertex $-1 $468 $583 #
straight-curve $-1 6.168384373769868 -16.926458996579473 6.3293868127740609 1 0 0 I I #
edge $-1 $549 -10.305473385594221 $465 -2.9364978363762848 $464 $584 forward 7 unknown #
vertex $-1 $548 $585 #
straight-curve $-1 -33.704676005167656 -16.926458996579473 48.142290168550048 -0.8660253999169214 0 0.50000000669873634 I I #
point $-1 38.717395725306588 -16.926458996579473 6.3293868127740609 #
point $-1 46.041444135868403 -9.5574834473615375 2.1008454158426559 #
straight-curve $-1 46.041444135868403 0 6.3293868127740591 0 1 0 I I #
vertex $-1 $471 $586 #
point $-1 42.086526984051957 -15.452663886735886 2.7078106721898654 #
vertex $-1 $475 $587 #
point $-1 42.086526984051957 -13.241971221970505 2.7078106721898654 #
vertex $-1 $479 $588 #
point $-1 42.086526984051957 -11.031278557205123 2.7078106721898654 #
straight-curve $-1 -46.041444135868403 29.677038763403292 0 0 0 -1 I I #
point $-1 -46.041444135868403 -29.677038763403292 -6.3293868127740591 #
straight-curve $-1 -46.041444135868403 0 -6.3293868127740591 0 1 0 I I #
point $-1 -46.041444135868403 29.677038763403292 -6.3293868127740591 #
straight-curve $-1 -46.041444135868403 -13.705407122578819 -5.7581198891523586 0 -1 0 I I #
point $-1 -46.041444135868403 -29.677038763403292 -5.7581198891523586 #
point $-1 -46.041444135868403 -25.144589726911985 -5.7581198891523586 #
straight-curve $-1 -46.041444135868403 -25.144589726911985 -2.1290599445761793 0 0 -1 I I #
straight-curve $-1 -46.041444135868403 -29.677038763403292 0 0 0 -1 I I #
straight-curve $-1 -46.041444135868403 2.266224518245652 29.57669368944093 0 0 -1 I I #
point $-1 -46.041444135868403 2.266224518245652 6.3293868127740591 #
straight-curve $-1 -46.041444135868403 -1.4483184792712702 1.2037490637206381 0 -1 0 I I #
point $-1 -46.041444135868403 2.266224518245652 1.2037490637206361 #
point $-1 -41.430636230780898 -5.1092918771660543 1.7133782659451446 #
point $-1 -41.430636230780898 -0.68398203991903372 1.7133782659451446 #
edge $-1 $539 -6.3293868127740591 $533 -1.2037490637206361 $530 $589 forward 7 unknown #
straight-curve $-1 -46.041444135868403 12.257088643307549 1.2037490637206381 0 -1 0 I I #
point $-1 -46.041444135868403 29.677038763403289 1.2037490637206361 #
straight-curve $-1 0 29.677038763403292 6.3293868127740591 -1 0 0 I I #
point $-1 -46.041444135868403 29.677038763403292 6.3293868127740591 #
point $-1 -41.430636230780898 22.301522367991584 1.7133782659451446 #
point $-1 -41.430636230780898 26.726832205238605 1.7133782659451446 #
straight-curve $-1 46.041444135868403 -16.926458996579473 63.944205154793053 0 0 -1 I I #
point $-1 46.041444135868403 -16.926458996579473 6.3293868127740591 #
straight-curve $-1 46.041444135868403 -6.6209856109852527 2.1008454158426559 0 1 0 I I #
point $-1 46.041444135868403 -16.926458996579473 2.1008454158426559 #
point $-1 41.403514280744126 -15.452663886735886 2.524797975580773 #
point $-1 41.403514280744126 -13.241971221970505 2.524797975580773 #
point $-1 41.403514280744126 -11.031278557205123 2.524797975580773 #
straight-curve $-1 -46.041444135868403 29.677038763403292 0 0 0 -1 I I #
End-of-ACIS-data 