500 0 8 0           
7 Unknown 11 ACIS 5.0 NT 24 Fri Mar 26 20:18:10 1999 
-1 9.9999999999999995e-007 1e-010 
body $-1 $8 $-1 $9 #
body $-1 $10 $-1 $11 #
body $-1 $12 $-1 $13 #
body $-1 $14 $-1 $15 #
body $-1 $16 $-1 $17 #
body $-1 $18 $-1 $19 #
body $-1 $20 $-1 $21 #
body $-1 $22 $-1 $23 #
lump $-1 $-1 $24 $0 #
transform $-1 1 0 0 0 1 0 0 0 1 48.202154606769007 24.82292542086677 12.257829809180546 1 rotate no_reflect no_shear #
lump $-1 $-1 $25 $1 #
transform $-1 1 0 0 0 1 0 0 0 1 48.202154606769007 24.82292542086677 12.257829809180546 1 rotate no_reflect no_shear #
lump $-1 $-1 $26 $2 #
transform $-1 1 0 0 0 1 0 0 0 1 48.202154606769007 24.82292542086677 12.257829809180546 1 rotate no_reflect no_shear #
lump $-1 $-1 $27 $3 #
transform $-1 1 0 0 0 1 0 0 0 1 48.202154606769007 24.82292542086677 12.257829809180546 1 rotate no_reflect no_shear #
lump $-1 $-1 $28 $4 #
transform $-1 1 0 0 0 1 0 0 0 1 48.202154606769007 24.82292542086677 12.257829809180546 1 rotate no_reflect no_shear #
lump $-1 $-1 $29 $5 #
transform $-1 1 0 0 0 1 0 0 0 1 48.202154606769007 24.82292542086677 12.257829809180546 1 rotate no_reflect no_shear #
lump $-1 $-1 $30 $6 #
transform $-1 1 0 0 0 1 0 0 0 1 48.202154606769007 24.82292542086677 12.257829809180546 1 rotate no_reflect no_shear #
lump $-1 $-1 $31 $7 #
transform $-1 1 0 0 0 1 0 0 0 1 48.202154606769007 24.82292542086677 12.257829809180546 1 rotate no_reflect no_shear #
shell $-1 $-1 $-1 $32 $-1 $8 #
shell $-1 $-1 $-1 $33 $-1 $10 #
shell $-1 $-1 $-1 $34 $-1 $12 #
shell $-1 $-1 $-1 $35 $-1 $14 #
shell $-1 $-1 $-1 $36 $-1 $16 #
shell $-1 $-1 $-1 $37 $-1 $18 #
shell $-1 $-1 $-1 $38 $-1 $20 #
shell $-1 $-1 $-1 $39 $-1 $22 #
face $-1 $40 $41 $24 $-1 $42 forward single #
face $-1 $43 $44 $25 $-1 $45 forward single #
face $-1 $46 $47 $26 $-1 $48 reversed single #
face $-1 $49 $50 $27 $-1 $51 forward single #
face $-1 $52 $53 $28 $-1 $54 forward single #
face $-1 $55 $56 $29 $-1 $57 forward single #
face $-1 $58 $59 $30 $-1 $60 reversed single #
face $-1 $61 $62 $31 $-1 $63 forward single #
face $-1 $64 $65 $24 $-1 $66 reversed single #
loop $-1 $-1 $67 $32 #
plane-surface $-1 0 0 12.257829809180546 0 0 1 1 0 0 forward_v I I I I #
face $-1 $68 $69 $25 $-1 $70 forward single #
loop $-1 $-1 $71 $33 #
plane-surface $-1 0 -24.82292542086677 0 0 1 0 0 0 1 forward_v I I I I #
face $-1 $72 $73 $26 $-1 $74 reversed single #
loop $-1 $-1 $75 $34 #
plane-surface $-1 62.453178388906927 18.672254397680859 144.24459925659301 0 1 0 0.77714596973225614 0 0.62932038083071107 forward_v I I I I #
face $-1 $76 $77 $27 $-1 $78 forward single #
loop $-1 $79 $80 $35 #
cone-surface $-1 46.349390093991261 19.902388602318045 10.137385288495736 -0.77714596973225614 0 -0.62932038083071107 0.31466019041535553 0 -0.38857298486612807 1 I I 0 1 0.5 forward I I I I #
face $-1 $81 $82 $28 $-1 $83 forward single #
loop $-1 $84 $85 $36 #
cone-surface $-1 46.349390093991261 21.747589909273817 10.137385288495736 -0.77714596973225614 0 -0.62932038083071107 0.31466019041535553 0 -0.38857298486612807 1 I I 0 1 0.5 forward I I I I #
face $-1 $86 $87 $29 $-1 $88 forward single #
loop $-1 $89 $90 $37 #
cone-surface $-1 46.349390093991261 23.592791216229589 10.137385288495736 -0.77714596973225614 0 -0.62932038083071107 0.31466019041535553 0 -0.38857298486612807 1 I I 0 1 0.5 forward I I I I #
face $-1 $91 $92 $30 $-1 $93 reversed single #
loop $-1 $-1 $94 $38 #
plane-surface $-1 -99.288655888657757 -1.2935579770739256 83.798219723981731 0 1 0 -0.52991927123019833 0 0.84804809178421925 forward_v I I I I #
face $-1 $95 $96 $31 $-1 $97 forward single #
loop $-1 $98 $99 $39 #
cone-surface $-1 -37.569926467248571 3.7484869325710548 3.2159544287337578 0.52991927123019833 0 -0.84804809178421925 2.1201202294605483 0 1.3247981780754958 1 I I 0 1 2.5 forward I I I I #
face $-1 $100 $101 $24 $-1 $102 reversed single #
loop $-1 $-1 $103 $40 #
plane-surface $-1 0 0 -12.257829809180546 0 0 1 1 0 0 forward_v I I I I #
coedge $-1 $104 $105 $106 $107 forward $41 $-1 #
face $-1 $108 $109 $25 $-1 $110 reversed single #
loop $-1 $-1 $111 $43 #
plane-surface $-1 0 0 12.257829809180546 0 0 1 1 0 0 forward_v I I I I #
coedge $-1 $112 $113 $114 $115 forward $44 $-1 #
face $-1 $116 $117 $26 $-1 $118 reversed single #
loop $-1 $-1 $119 $46 #
plane-surface $-1 -12.467041981216347 21.74758990927381 83.575402668607637 0.77714596973225614 0 0.62932038083071107 0.62932038083071107 0 -0.77714596973225614 forward_v I I I I #
coedge $-1 $120 $121 $122 $123 reversed $47 $-1 #
face $-1 $-1 $124 $27 $-1 $125 forward single #
loop $-1 $126 $127 $49 #
cone-surface $-1 45.761022265257076 19.902388602318045 9.66093442795135 -0.77714596973225614 0 -0.62932038083071107 0.15733009520767777 0 -0.19428649243306403 1 I I -0.70710678118654746 0.70710678118654746 0.25 forward I I I I #
loop $-1 $-1 $128 $35 #
coedge $-1 $80 $80 $129 $130 reversed $50 $-1 #
face $-1 $-1 $131 $28 $-1 $132 forward single #
loop $-1 $133 $134 $52 #
cone-surface $-1 45.761022265257076 21.747589909273817 9.66093442795135 -0.77714596973225614 0 -0.62932038083071107 0.15733009520767777 0 -0.19428649243306403 1 I I -0.70710678118654746 0.70710678118654746 0.25 forward I I I I #
loop $-1 $-1 $135 $36 #
coedge $-1 $85 $85 $136 $137 reversed $53 $-1 #
face $-1 $-1 $138 $29 $-1 $139 forward single #
loop $-1 $140 $141 $55 #
cone-surface $-1 45.761022265257076 23.592791216229589 9.66093442795135 -0.77714596973225614 0 -0.62932038083071107 0.15733009520767777 0 -0.19428649243306403 1 I I -0.70710678118654746 0.70710678118654746 0.25 forward I I I I #
loop $-1 $-1 $142 $37 #
coedge $-1 $90 $90 $143 $144 reversed $56 $-1 #
face $-1 $145 $146 $30 $-1 $147 reversed single #
loop $-1 $-1 $148 $58 #
plane-surface $-1 -48.202154606769 3.7484869325710513 2.0427292556649945 -0.52991927123019833 0 0.84804809178421925 0.84804809178421925 0 0.52991927123019833 forward_v I I I I #
coedge $-1 $149 $150 $151 $152 reversed $59 $-1 #
face $-1 $-1 $153 $31 $-1 $154 forward single #
loop $-1 $155 $156 $61 #
cone-surface $-1 -34.449088155332362 3.7484869325710548 -1.7784307896855349 0.52991927123019833 0 -0.84804809178421925 1.0600601147302742 0 0.66239908903774791 1 I I -0.70710678118654746 0.70710678118654746 1.25 forward I I I I #
loop $-1 $-1 $157 $39 #
coedge $-1 $99 $99 $158 $159 reversed $62 $-1 #
face $-1 $160 $161 $24 $-1 $162 reversed single #
loop $-1 $-1 $163 $64 #
plane-surface $-1 0 -24.82292542086677 0 0 1 0 0 0 1 forward_v I I I I #
coedge $-1 $164 $165 $166 $167 forward $65 $-1 #
coedge $-1 $168 $67 $169 $170 forward $41 $-1 #
coedge $-1 $67 $168 $171 $172 forward $41 $-1 #
coedge $-1 $173 $174 $67 $107 reversed $175 $-1 #
edge $-1 $176 -24.82292542086677 $177 24.82292542086677 $106 $178 forward 7 unknown #
face $-1 $179 $180 $25 $-1 $181 reversed single #
loop $-1 $-1 $182 $68 #
plane-surface $-1 -48.202154606769007 0 0 1 0 0 0 0 -1 forward_v I I I I #
coedge $-1 $183 $184 $185 $186 forward $69 $-1 #
coedge $-1 $185 $71 $182 $187 reversed $44 $-1 #
coedge $-1 $71 $185 $188 $189 reversed $44 $-1 #
coedge $-1 $190 $191 $71 $115 reversed $180 $-1 #
edge $-1 $192 -48.202154606769007 $193 48.202154606769007 $114 $194 forward 7 unknown #
face $-1 $195 $196 $26 $-1 $197 forward single #
loop $-1 $-1 $122 $72 #
plane-surface $-1 48.202154606769007 0 0 -1 0 0 0 0 1 forward_v I I I I #
coedge $-1 $198 $199 $200 $201 reversed $73 $-1 #
coedge $-1 $121 $75 $202 $203 reversed $47 $-1 #
coedge $-1 $75 $120 $198 $204 reversed $47 $-1 #
coedge $-1 $200 $205 $75 $123 forward $117 $-1 #
edge $-1 $206 59.864469819115953 $207 63.467117329812112 $122 $208 forward 7 unknown #
loop $-1 $-1 $129 $76 #
plane-surface $-1 -12.467041981216347 21.74758990927381 83.575402668607637 0.77714596973225614 0 0.62932038083071107 0.62932038083071107 0 -0.77714596973225614 forward_v I I I I #
loop $-1 $-1 $209 $49 #
coedge $-1 $127 $127 $128 $210 reversed $77 $-1 #
coedge $-1 $128 $128 $127 $210 forward $79 $-1 #
coedge $-1 $129 $129 $80 $130 forward $124 $-1 #
edge $-1 $211 0 $211 6.2831853071796004 $129 $212 forward 7 unknown #
loop $-1 $-1 $136 $81 #
plane-surface $-1 -12.467041981216347 21.74758990927381 83.575402668607637 0.77714596973225614 0 0.62932038083071107 0.62932038083071107 0 -0.77714596973225614 forward_v I I I I #
loop $-1 $-1 $213 $52 #
coedge $-1 $134 $134 $135 $214 reversed $82 $-1 #
coedge $-1 $135 $135 $134 $214 forward $84 $-1 #
coedge $-1 $136 $136 $85 $137 forward $131 $-1 #
edge $-1 $215 0 $215 6.2831853071796004 $136 $216 forward 7 unknown #
loop $-1 $-1 $143 $86 #
plane-surface $-1 -12.467041981216347 21.74758990927381 83.575402668607637 0.77714596973225614 0 0.62932038083071107 0.62932038083071107 0 -0.77714596973225614 forward_v I I I I #
loop $-1 $-1 $217 $55 #
coedge $-1 $141 $141 $142 $218 reversed $87 $-1 #
coedge $-1 $142 $142 $141 $218 forward $89 $-1 #
coedge $-1 $143 $143 $90 $144 forward $138 $-1 #
edge $-1 $219 0 $219 6.2831853071796004 $143 $220 forward 7 unknown #
face $-1 $221 $222 $30 $-1 $223 forward single #
loop $-1 $-1 $224 $91 #
plane-surface $-1 -99.288655888657757 8.7905318422160281 83.798219723981731 0 -1 0 0.52991927123019833 0 -0.84804809178421925 forward_v I I I I #
coedge $-1 $225 $226 $227 $228 reversed $92 $-1 #
coedge $-1 $150 $94 $229 $230 reversed $59 $-1 #
coedge $-1 $94 $149 $225 $231 reversed $59 $-1 #
coedge $-1 $227 $232 $94 $152 forward $222 $-1 #
edge $-1 $233 1.442173337559872 $234 17.789751170843846 $151 $235 forward 7 unknown #
loop $-1 $-1 $158 $95 #
plane-surface $-1 -48.202154606769 3.7484869325710513 2.0427292556649945 -0.52991927123019833 0 0.84804809178421925 0.84804809178421925 0 0.52991927123019833 forward_v I I I I #
loop $-1 $-1 $236 $61 #
coedge $-1 $156 $156 $157 $237 reversed $96 $-1 #
coedge $-1 $157 $157 $156 $237 forward $98 $-1 #
coedge $-1 $158 $158 $99 $159 forward $153 $-1 #
edge $-1 $238 0 $238 6.2831853071796004 $158 $239 forward 7 unknown #
face $-1 $240 $241 $24 $-1 $242 reversed single #
loop $-1 $-1 $243 $100 #
plane-surface $-1 -48.202154606769007 0 0 1 0 0 0 0 -1 forward_v I I I I #
coedge $-1 $244 $171 $245 $246 forward $101 $-1 #
coedge $-1 $247 $103 $244 $248 forward $65 $-1 #
coedge $-1 $103 $247 $249 $250 forward $65 $-1 #
coedge $-1 $174 $173 $103 $167 reversed $175 $-1 #
edge $-1 $251 -24.82292542086677 $252 24.82292542086677 $166 $253 forward 7 unknown #
coedge $-1 $105 $104 $254 $255 forward $41 $-1 #
coedge $-1 $256 $257 $104 $170 reversed $241 $-1 #
edge $-1 $177 -48.202154606769007 $258 48.202154606769007 $169 $259 forward 7 unknown #
coedge $-1 $163 $260 $105 $172 reversed $101 $-1 #
edge $-1 $261 -48.202154606769007 $176 48.202154606769007 $171 $262 forward 7 unknown #
coedge $-1 $166 $106 $260 $263 forward $175 $-1 #
coedge $-1 $106 $166 $256 $264 reversed $175 $-1 #
loop $-1 $-1 $173 $240 #
vertex $-1 $107 $265 #
vertex $-1 $107 $266 #
straight-curve $-1 48.202154606769007 0 12.257829809180546 0 1 0 I I #
face $-1 $267 $268 $25 $-1 $269 reversed single #
loop $-1 $-1 $190 $108 #
plane-surface $-1 0 -32.376950051491391 9.235551082767703 0 0 1 1 0 0 forward_v I I I I #
coedge $-1 $270 $271 $112 $187 forward $109 $-1 #
coedge $-1 $272 $111 $271 $273 forward $69 $-1 #
coedge $-1 $111 $272 $274 $275 forward $69 $-1 #
coedge $-1 $113 $112 $111 $186 reversed $44 $-1 #
edge $-1 $276 -48.202154606769007 $277 48.202154606769007 $111 $278 forward 7 unknown #
edge $-1 $277 -12.257829809180546 $193 -9.235551082767703 $182 $279 forward 7 unknown #
coedge $-1 $274 $280 $113 $189 forward $281 $-1 #
edge $-1 $192 9.235551082767703 $276 12.257829809180546 $188 $282 forward 7 unknown #
coedge $-1 $283 $114 $280 $284 forward $180 $-1 #
coedge $-1 $114 $283 $270 $285 forward $180 $-1 #
vertex $-1 $189 $286 #
vertex $-1 $187 $287 #
straight-curve $-1 0 -24.82292542086677 9.235551082767703 -1 0 0 I I #
face $-1 $-1 $288 $26 $-1 $289 reversed single #
loop $-1 $-1 $202 $116 #
plane-surface $-1 0 0 12.257829809180546 0 0 1 1 0 0 forward_v I I I I #
coedge $-1 $290 $119 $121 $204 forward $73 $-1 #
coedge $-1 $119 $290 $291 $292 reversed $73 $-1 #
coedge $-1 $293 $122 $119 $201 forward $117 $-1 #
edge $-1 $207 7.7984594430439547 $294 13.949130466229866 $200 $295 forward 7 unknown #
coedge $-1 $296 $297 $120 $203 forward $196 $-1 #
edge $-1 $298 14.058199059362277 $206 16.975565412315543 $202 $299 forward 7 unknown #
edge $-1 $207 -96.404309213537985 $298 -91.768568115971263 $121 $300 forward 7 unknown #
coedge $-1 $122 $293 $296 $301 reversed $117 $-1 #
vertex $-1 $301 $302 #
vertex $-1 $123 $303 #
straight-curve $-1 48.202154606769007 18.672254397680859 72.122299628296503 0 0 -1 I I #
coedge $-1 $209 $209 $-1 $304 reversed $126 $-1 #
edge $-1 $305 0 $305 6.2831853071796004 $127 $306 forward 7 unknown #
vertex $-1 $130 $307 #
ellipse-curve $-1 46.743471430292381 19.902388602318045 10.456506053832447 0.77714596973225614 0 0.62932038083071107 0.31466019041535553 0 -0.38857298486612807 1 I I #
coedge $-1 $213 $213 $-1 $308 reversed $133 $-1 #
edge $-1 $309 0 $309 6.2831853071796004 $134 $310 forward 7 unknown #
vertex $-1 $137 $311 #
ellipse-curve $-1 46.743471430292381 21.747589909273817 10.456506053832447 0.77714596973225614 0 0.62932038083071107 0.31466019041535553 0 -0.38857298486612807 1 I I #
coedge $-1 $217 $217 $-1 $312 reversed $140 $-1 #
edge $-1 $313 0 $313 6.2831853071796004 $141 $314 forward 7 unknown #
vertex $-1 $144 $315 #
ellipse-curve $-1 46.743471430292381 23.592791216229589 10.456506053832447 0.77714596973225614 0 0.62932038083071107 0.31466019041535553 0 -0.38857298486612807 1 I I #
face $-1 $-1 $316 $30 $-1 $317 reversed single #
loop $-1 $-1 $151 $145 #
plane-surface $-1 0 0 12.257829809180546 0 0 1 1 0 0 forward_v I I I I #
coedge $-1 $318 $319 $320 $321 reversed $146 $-1 #
coedge $-1 $322 $148 $150 $231 forward $92 $-1 #
coedge $-1 $148 $322 $318 $323 forward $92 $-1 #
coedge $-1 $320 $151 $148 $228 forward $222 $-1 #
edge $-1 $234 -3.1678014433594512 $324 6.9162883759305025 $227 $325 forward 7 unknown #
coedge $-1 $326 $327 $149 $230 forward $316 $-1 #
edge $-1 $328 -39.856380606325878 $233 -29.64128005281032 $229 $329 forward 7 unknown #
edge $-1 $234 -19.276710827672627 $328 8.3790584163743152e-015 $150 $330 forward 7 unknown #
coedge $-1 $151 $320 $326 $331 forward $222 $-1 #
vertex $-1 $230 $332 #
vertex $-1 $152 $333 #
straight-curve $-1 -49.644327944328879 -1.2935579770739256 12.257829809180549 1 0 0 I I #
coedge $-1 $236 $236 $-1 $334 reversed $155 $-1 #
edge $-1 $335 0 $335 6.2831853071796004 $156 $336 forward 7 unknown #
vertex $-1 $159 $337 #
ellipse-curve $-1 -40.028365690127025 3.7484869325710548 7.1502795324227639 -0.52991927123019833 0 0.84804809178421925 2.1201202294605483 0 1.3247981780754958 1 I I #
face $-1 $-1 $175 $24 $-1 $338 reversed single #
loop $-1 $-1 $256 $160 #
plane-surface $-1 0 24.82292542086677 0 0 -1 0 0 0 -1 forward_v I I I I #
coedge $-1 $339 $254 $257 $340 forward $161 $-1 #
coedge $-1 $260 $163 $164 $248 reversed $101 $-1 #
coedge $-1 $254 $339 $163 $246 reversed $161 $-1 #
edge $-1 $261 -12.257829809180546 $341 12.257829809180546 $245 $342 forward 7 unknown #
coedge $-1 $165 $164 $339 $343 forward $65 $-1 #
edge $-1 $252 -48.202154606769007 $341 48.202154606769007 $244 $344 forward 7 unknown #
coedge $-1 $257 $256 $165 $250 reversed $241 $-1 #
edge $-1 $345 -48.202154606769007 $251 48.202154606769007 $249 $346 forward 7 unknown #
vertex $-1 $167 $347 #
vertex $-1 $263 $348 #
straight-curve $-1 48.202154606769007 0 -12.257829809180546 0 -1 0 I I #
coedge $-1 $243 $245 $168 $255 reversed $161 $-1 #
edge $-1 $258 -24.82292542086677 $261 24.82292542086677 $254 $349 forward 7 unknown #
coedge $-1 $249 $169 $174 $264 forward $241 $-1 #
coedge $-1 $169 $249 $243 $340 reversed $241 $-1 #
vertex $-1 $170 $350 #
straight-curve $-1 0 24.82292542086677 12.257829809180546 -1 0 0 I I #
coedge $-1 $171 $244 $173 $263 reversed $101 $-1 #
vertex $-1 $255 $351 #
straight-curve $-1 0 -24.82292542086677 12.257829809180546 1 0 0 I I #
edge $-1 $176 -12.257829809180546 $252 12.257829809180546 $173 $352 forward 7 unknown #
edge $-1 $177 -12.257829809180546 $251 12.257829809180546 $174 $353 forward 7 unknown #
point $-1 48.202154606769007 -24.82292542086677 12.257829809180546 #
point $-1 48.202154606769007 24.82292542086677 12.257829809180546 #
face $-1 $-1 $281 $25 $-1 $354 reversed single #
loop $-1 $-1 $355 $179 #
plane-surface $-1 0 -39.930974682116016 10.746690445974124 0 1 0 0 0 1 forward_v I I I I #
coedge $-1 $356 $182 $191 $285 reversed $109 $-1 #
coedge $-1 $182 $356 $183 $273 reversed $109 $-1 #
coedge $-1 $184 $183 $357 $358 forward $69 $-1 #
edge $-1 $277 24.82292542086677 $359 39.930974682116016 $271 $360 forward 7 unknown #
coedge $-1 $361 $188 $184 $275 reversed $281 $-1 #
edge $-1 $362 -39.930974682116016 $276 -24.82292542086677 $274 $363 forward 7 unknown #
vertex $-1 $189 $364 #
vertex $-1 $273 $365 #
straight-curve $-1 0 -24.82292542086677 12.257829809180546 -1 0 0 I I #
straight-curve $-1 -48.202154606769007 -24.82292542086677 0 0 0 -1 I I #
coedge $-1 $188 $361 $190 $284 reversed $281 $-1 #
loop $-1 $-1 $188 $267 #
straight-curve $-1 48.202154606769007 -24.82292542086677 0 0 0 1 I I #
coedge $-1 $191 $190 $366 $367 forward $180 $-1 #
edge $-1 $192 -7.5540246306246246 $368 7.5540246306246246 $280 $369 forward 7 unknown #
edge $-1 $370 -7.5540246306246246 $193 7.5540246306246246 $270 $371 forward 7 unknown #
point $-1 48.202154606769007 -24.822925420866767 9.235551082767703 #
point $-1 -48.202154606769007 -24.822925420866767 9.235551082767703 #
loop $-1 $-1 $291 $195 #
plane-surface $-1 0 24.82292542086677 0 0 -1 0 0 0 -1 forward_v I I I I #
coedge $-1 $199 $198 $297 $372 reversed $73 $-1 #
coedge $-1 $373 $374 $199 $292 forward $288 $-1 #
edge $-1 $294 -60.006283733482789 $375 -55.370542635916067 $291 $376 forward 7 unknown #
coedge $-1 $205 $200 $374 $377 reversed $117 $-1 #
vertex $-1 $201 $378 #
straight-curve $-1 48.202154606769 10.873794954636905 8.6551822984843909 0 1 0 I I #
coedge $-1 $379 $202 $205 $301 forward $196 $-1 #
coedge $-1 $202 $379 $290 $372 forward $196 $-1 #
vertex $-1 $203 $380 #
straight-curve $-1 31.226589194453464 18.672254397680859 12.257829809180549 1 0 0 I I #
straight-curve $-1 -12.467041981216347 18.672254397680859 83.575402668607637 -0.62932038083071107 0 0.77714596973225614 I I #
edge $-1 $206 18.672254397680859 $381 24.82292542086677 $205 $382 forward 7 unknown #
point $-1 48.202154606769007 18.672254397680859 12.257829809180546 #
point $-1 48.202154606769007 18.672254397680859 8.6551822984843909 #
edge $-1 $383 1 $383 0 $209 $-1 forward 7 unknown #
vertex $-1 $210 $384 #
ellipse-curve $-1 45.95530875769014 19.902388602318045 9.8182645231590282 0.77714596973225614 0 0.62932038083071107 0.31466019041535553 0 -0.38857298486612807 1 I I #
point $-1 47.058131620707734 19.902388602318045 10.067933068966314 #
edge $-1 $385 1 $385 0 $213 $-1 forward 7 unknown #
vertex $-1 $214 $386 #
ellipse-curve $-1 45.95530875769014 21.747589909273817 9.8182645231590282 0.77714596973225614 0 0.62932038083071107 0.31466019041535553 0 -0.38857298486612807 1 I I #
point $-1 47.058131620707734 21.747589909273817 10.067933068966314 #
edge $-1 $387 1 $387 0 $217 $-1 forward 7 unknown #
vertex $-1 $218 $388 #
ellipse-curve $-1 45.95530875769014 23.592791216229589 9.8182645231590282 0.77714596973225614 0 0.62932038083071107 0.31466019041535553 0 -0.38857298486612807 1 I I #
point $-1 47.058131620707734 23.592791216229589 10.067933068966314 #
loop $-1 $-1 $229 $221 #
plane-surface $-1 -48.202154606769007 0 0 1 0 0 0 0 -1 forward_v I I I I #
coedge $-1 $319 $224 $226 $323 reversed $146 $-1 #
coedge $-1 $224 $318 $389 $390 reversed $146 $-1 #
coedge $-1 $232 $227 $224 $321 forward $222 $-1 #
edge $-1 $324 -17.789751170843846 $391 -1.442173337559872 $320 $392 forward 7 unknown #
coedge $-1 $226 $225 $327 $393 reversed $92 $-1 #
edge $-1 $394 -8.3790584163743152e-015 $324 19.276710827672627 $318 $395 forward 7 unknown #
vertex $-1 $228 $396 #
straight-curve $-1 -31.854576773485032 1.8742434662855256 12.257829809180546 0 1 0 I I #
coedge $-1 $389 $229 $232 $331 reversed $316 $-1 #
coedge $-1 $229 $389 $322 $393 forward $316 $-1 #
vertex $-1 $230 $397 #
straight-curve $-1 -48.202154606769007 -1.2935579770739256 41.899109861990866 0 0 1 I I #
straight-curve $-1 -48.202154606769 -1.2935579770739256 2.0427292556649945 -0.84804809178421925 0 -0.52991927123019833 I I #
edge $-1 $391 -8.7905318422160281 $233 1.2935579770739256 $326 $398 forward 7 unknown #
point $-1 -48.202154606769007 -1.2935579770739256 12.257829809180546 #
point $-1 -31.854576773485032 -1.2935579770739256 12.257829809180546 #
edge $-1 $399 1 $399 0 $236 $-1 forward 7 unknown #
vertex $-1 $237 $400 #
ellipse-curve $-1 -35.11148724437011 3.7484869325710548 -0.71837067495526075 -0.52991927123019833 0 0.84804809178421925 2.1201202294605483 0 1.3247981780754958 1 I I #
point $-1 -37.908245460666485 3.7484869325710548 8.4750777104982724 #
plane-surface $-1 48.202154606769007 0 0 -1 0 0 0 0 1 forward_v I I I I #
coedge $-1 $245 $243 $247 $343 reversed $161 $-1 #
edge $-1 $258 -12.257829809180546 $345 12.257829809180546 $257 $401 forward 7 unknown #
vertex $-1 $343 $402 #
straight-curve $-1 -48.202154606769007 -24.82292542086677 0 0 0 -1 I I #
edge $-1 $341 -24.82292542086677 $345 24.82292542086677 $339 $403 forward 7 unknown #
straight-curve $-1 0 -24.82292542086677 -12.257829809180546 -1 0 0 I I #
vertex $-1 $250 $404 #
straight-curve $-1 0 24.82292542086677 -12.257829809180546 1 0 0 I I #
point $-1 48.202154606769007 24.82292542086677 -12.257829809180546 #
point $-1 48.202154606769007 -24.82292542086677 -12.257829809180546 #
straight-curve $-1 -48.202154606769007 0 12.257829809180546 0 -1 0 I I #
point $-1 -48.202154606769007 24.82292542086677 12.257829809180546 #
point $-1 -48.202154606769007 -24.82292542086677 12.257829809180546 #
straight-curve $-1 48.202154606769007 -24.82292542086677 0 0 0 -1 I I #
straight-curve $-1 48.202154606769007 24.82292542086677 0 0 0 -1 I I #
plane-surface $-1 48.202154606769007 0 0 -1 0 0 0 0 1 forward_v I I I I #
coedge $-1 $366 $357 $356 $405 forward $268 $-1 #
coedge $-1 $271 $270 $355 $405 reversed $109 $-1 #
coedge $-1 $355 $406 $272 $358 reversed $268 $-1 #
edge $-1 $359 -48.202154606769007 $362 48.202154606769007 $357 $407 forward 7 unknown #
vertex $-1 $273 $408 #
straight-curve $-1 -48.202154606769007 0 12.257829809180546 0 -1 0 I I #
coedge $-1 $280 $274 $406 $409 forward $281 $-1 #
vertex $-1 $275 $410 #
straight-curve $-1 48.202154606769007 0 12.257829809180546 0 1 0 I I #
point $-1 48.202154606769007 -24.82292542086677 12.257829809180546 #
point $-1 -48.202154606769007 -24.82292542086677 12.257829809180546 #
coedge $-1 $406 $355 $283 $367 reversed $268 $-1 #
edge $-1 $368 -48.202154606769007 $370 48.202154606769007 $366 $411 forward 7 unknown #
vertex $-1 $409 $412 #
straight-curve $-1 48.202154606769007 -32.376950051491391 9.235551082767703 0 -1 0 I I #
vertex $-1 $285 $413 #
straight-curve $-1 -48.202154606769007 -32.376950051491391 9.235551082767703 0 1 0 I I #
edge $-1 $375 -13.949130466229855 $298 -7.7984594430439547 $297 $414 forward 7 unknown #
coedge $-1 $374 $291 $379 $415 reversed $288 $-1 #
coedge $-1 $291 $373 $293 $377 forward $288 $-1 #
vertex $-1 $292 $416 #
straight-curve $-1 10.438977275377919 24.82292542086677 55.288823860570773 -0.62932038083071107 0 0.77714596973225614 I I #
edge $-1 $381 -12.257829809180546 $294 -8.6551822984843891 $293 $417 forward 7 unknown #
point $-1 48.202154606769007 24.82292542086677 8.6551822984843891 #
coedge $-1 $297 $296 $373 $415 forward $196 $-1 #
point $-1 45.284788253815741 18.672254397680859 12.257829809180549 #
vertex $-1 $301 $418 #
straight-curve $-1 48.202154606769007 0 12.257829809180546 0 1 0 I I #
vertex $-1 $304 $419 #
point $-1 46.269968948105493 19.902388602318045 9.4296915382929001 #
vertex $-1 $308 $420 #
point $-1 46.269968948105493 21.747589909273817 9.4296915382929001 #
vertex $-1 $312 $421 #
point $-1 46.269968948105493 23.592791216229589 9.4296915382929001 #
coedge $-1 $327 $326 $319 $390 forward $316 $-1 #
edge $-1 $391 29.64128005281032 $394 39.856380606325878 $389 $422 forward 7 unknown #
vertex $-1 $331 $423 #
straight-curve $-1 -49.644327944328879 8.7905318422160281 12.257829809180549 -1 0 0 I I #
edge $-1 $394 -6.9162883759305025 $328 3.1678014433594512 $327 $424 forward 7 unknown #
vertex $-1 $393 $425 #
straight-curve $-1 -48.202154606769 8.7905318422160281 2.0427292556649945 0.84804809178421925 0 0.52991927123019833 I I #
point $-1 -31.854576773485032 8.7905318422160281 12.257829809180546 #
point $-1 -48.202154606769007 -1.2935579770739256 2.0427292556649901 #
straight-curve $-1 -48.202154606769007 0 12.257829809180546 0 -1 0 I I #
vertex $-1 $334 $426 #
point $-1 -32.991367014909564 3.7484869325710548 0.6064275031202353 #
straight-curve $-1 -48.202154606769007 24.82292542086677 0 0 0 -1 I I #
point $-1 -48.202154606769007 -24.82292542086677 -12.257829809180546 #
straight-curve $-1 -48.202154606769007 0 -12.257829809180546 0 1 0 I I #
point $-1 -48.202154606769007 24.82292542086677 -12.257829809180546 #
edge $-1 $359 -1.5111393632064214 $370 1.5111393632064214 $356 $427 forward 7 unknown #
coedge $-1 $357 $366 $361 $409 reversed $268 $-1 #
straight-curve $-1 0 -39.930974682116016 12.257829809180546 1 0 0 I I #
point $-1 -48.202154606769007 -39.930974682116016 12.257829809180546 #
edge $-1 $362 -1.5111393632064214 $368 1.5111393632064214 $361 $428 forward 7 unknown #
point $-1 48.202154606769007 -39.930974682116016 12.257829809180546 #
straight-curve $-1 0 -39.930974682116016 9.235551082767703 -1 0 0 I I #
point $-1 48.202154606769007 -39.930974682116016 9.235551082767703 #
point $-1 -48.202154606769007 -39.930974682116016 9.235551082767703 #
straight-curve $-1 45.284788253815741 10.873794954636905 12.257829809180542 0 -1 0 I I #
edge $-1 $381 -48.202154606769007 $375 -45.284788253815741 $373 $429 forward 7 unknown #
point $-1 45.284788253815741 24.82292542086676 12.257829809180549 #
straight-curve $-1 48.202154606769007 24.82292542086677 0 0 0 -1 I I #
point $-1 48.202154606769007 24.82292542086677 12.257829809180546 #
point $-1 45.566735772824011 19.902388602318045 9.5036043327436719 #
point $-1 45.566735772824011 21.747589909273817 9.5036043327436719 #
point $-1 45.566735772824011 23.592791216229589 9.5036043327436719 #
straight-curve $-1 -48.202154606769007 8.7905318422160281 41.899109861990866 0 0 -1 I I #
point $-1 -48.202154606769007 8.7905318422160281 12.257829809180546 #
straight-curve $-1 -48.202154606769007 1.8742434662855256 2.0427292556649883 0 -1 0 I I #
point $-1 -48.202154606769007 8.7905318422160281 2.0427292556649901 #
point $-1 -33.786689066294613 3.7484869325710548 -2.8384909044158091 #
straight-curve $-1 -48.202154606769007 -39.930974682116016 10.746690445974124 0 0 -1 I I #
straight-curve $-1 48.202154606769007 -39.930974682116016 10.746690445974124 0 0 -1 I I #
straight-curve $-1 0 24.82292542086677 12.257829809180546 -1 0 0 I I #
End-of-ACIS-data 