500 0 12 0           
7 Unknown 11 ACIS 5.0 NT 24 Thu Mar 25 21:08:21 1999 
-1 9.9999999999999995e-007 1e-010 
body $-1 $12 $-1 $13 #
body $-1 $14 $-1 $15 #
body $-1 $16 $-1 $17 #
body $-1 $18 $-1 $19 #
body $-1 $20 $-1 $21 #
body $-1 $22 $-1 $23 #
body $-1 $24 $-1 $25 #
body $-1 $26 $-1 $27 #
body $-1 $28 $-1 $29 #
body $-1 $30 $-1 $31 #
body $-1 $32 $-1 $33 #
body $-1 $34 $-1 $35 #
lump $-1 $-1 $36 $0 #
transform $-1 1 0 0 0 1 0 0 0 1 64.937284463026828 36.166462571476238 16.936880138952169 1 rotate no_reflect no_shear #
lump $-1 $-1 $37 $1 #
transform $-1 1 0 0 0 1 0 0 0 1 64.937284463026828 36.166462571476238 16.936880138952169 1 rotate no_reflect no_shear #
lump $-1 $-1 $38 $2 #
transform $-1 1 0 0 0 1 0 0 0 1 64.937284463026828 36.166462571476238 16.936880138952169 1 rotate no_reflect no_shear #
lump $-1 $-1 $39 $3 #
transform $-1 1 0 0 0 1 0 0 0 1 64.937284463026828 36.166462571476238 16.936880138952169 1 rotate no_reflect no_shear #
lump $-1 $-1 $40 $4 #
transform $-1 1 0 0 0 1 0 0 0 1 64.937284463026828 36.166462571476238 16.936880138952169 1 rotate no_reflect no_shear #
lump $-1 $-1 $41 $5 #
transform $-1 1 0 0 0 1 0 0 0 1 64.937284463026828 36.166462571476238 16.936880138952169 1 rotate no_reflect no_shear #
lump $-1 $-1 $42 $6 #
transform $-1 1 0 0 0 1 0 0 0 1 64.937284463026828 36.166462571476238 16.936880138952169 1 rotate no_reflect no_shear #
lump $-1 $-1 $43 $7 #
transform $-1 1 0 0 0 1 0 0 0 1 64.937284463026828 36.166462571476238 16.936880138952169 1 rotate no_reflect no_shear #
lump $-1 $-1 $44 $8 #
transform $-1 1 0 0 0 1 0 0 0 1 64.937284463026828 36.166462571476238 16.936880138952169 1 rotate no_reflect no_shear #
lump $-1 $-1 $45 $9 #
transform $-1 1 0 0 0 1 0 0 0 1 64.937284463026828 36.166462571476238 16.936880138952169 1 rotate no_reflect no_shear #
lump $-1 $-1 $46 $10 #
transform $-1 1 0 0 0 1 0 0 0 1 64.937284463026828 36.166462571476238 16.936880138952169 1 rotate no_reflect no_shear #
lump $-1 $-1 $47 $11 #
transform $-1 1 0 0 0 1 0 0 0 1 64.937284463026828 36.166462571476238 16.936880138952169 1 rotate no_reflect no_shear #
shell $-1 $-1 $-1 $48 $-1 $12 #
shell $-1 $-1 $-1 $49 $-1 $14 #
shell $-1 $-1 $-1 $50 $-1 $16 #
shell $-1 $-1 $-1 $51 $-1 $18 #
shell $-1 $-1 $-1 $52 $-1 $20 #
shell $-1 $-1 $-1 $53 $-1 $22 #
shell $-1 $-1 $-1 $54 $-1 $24 #
shell $-1 $-1 $-1 $55 $-1 $26 #
shell $-1 $-1 $-1 $56 $-1 $28 #
shell $-1 $-1 $-1 $57 $-1 $30 #
shell $-1 $-1 $-1 $58 $-1 $32 #
shell $-1 $-1 $-1 $59 $-1 $34 #
face $-1 $60 $61 $36 $-1 $62 forward single #
face $-1 $63 $64 $37 $-1 $65 forward single #
face $-1 $66 $67 $38 $-1 $68 reversed single #
face $-1 $69 $70 $39 $-1 $71 forward single #
face $-1 $72 $73 $40 $-1 $74 forward single #
face $-1 $75 $76 $41 $-1 $77 reversed single #
face $-1 $78 $79 $42 $-1 $80 forward single #
face $-1 $81 $82 $43 $-1 $83 forward single #
face $-1 $84 $85 $44 $-1 $86 reversed single #
face $-1 $87 $88 $45 $-1 $89 forward single #
face $-1 $90 $91 $46 $-1 $92 forward single #
face $-1 $93 $94 $47 $-1 $95 forward single #
face $-1 $96 $97 $36 $-1 $98 reversed single #
loop $-1 $-1 $99 $48 #
plane-surface $-1 0 0 16.936880138952169 0 0 1 1 0 0 forward_v I I I I #
face $-1 $100 $101 $37 $-1 $102 reversed single #
loop $-1 $-1 $103 $49 #
plane-surface $-1 -64.937284463026828 0 0 1 0 0 0 0 -1 forward_v I I I I #
face $-1 $104 $105 $38 $-1 $106 reversed single #
loop $-1 $-1 $107 $50 #
plane-surface $-1 -50.408545735157972 71.839754640633601 146.42058006327778 1 0 0 0 -0.68199836817093118 -0.7313536940579346 forward_v I I I I #
face $-1 $108 $109 $39 $-1 $110 forward single #
loop $-1 $111 $112 $51 #
cone-surface $-1 -43.98898949436289 26.913387508239062 8.1263450290423815 0 -0.68199836817093118 -0.7313536940579346 2.5 0 0 1 I I 0 1 2.5 forward I I I I #
face $-1 $113 $114 $40 $-1 $115 forward single #
loop $-1 $116 $117 $52 #
cone-surface $-1 -34.359655133170264 26.913387508239062 8.1263450290423815 0 -0.68199836817093118 -0.7313536940579346 2.5 0 0 1 I I 0 1 2.5 forward I I I I #
face $-1 $118 $119 $41 $-1 $120 reversed single #
loop $-1 $-1 $121 $53 #
plane-surface $-1 42.468837620244038 71.839754640633601 146.42058006327778 1 0 0 0 -0.68199836817093118 -0.7313536940579346 forward_v I I I I #
face $-1 $122 $123 $42 $-1 $124 forward single #
loop $-1 $125 $126 $54 #
cone-surface $-1 48.888393861039106 26.913387508239062 8.1263450290423815 0 -0.68199836817093118 -0.7313536940579346 2.5 0 0 1 I I 0 1 2.5 forward I I I I #
face $-1 $127 $128 $43 $-1 $129 forward single #
loop $-1 $130 $131 $55 #
cone-surface $-1 58.517728222231739 26.913387508239062 8.1263450290423815 0 -0.68199836817093118 -0.7313536940579346 2.5 0 0 1 I I 0 1 2.5 forward I I I I #
face $-1 $132 $133 $44 $-1 $134 reversed single #
loop $-1 $-1 $135 $56 #
plane-surface $-1 -32.186319409253755 -131.15071037510188 102.21338904329411 -1 0 0 0 -0.73135370988377701 0.68199835119979291 forward_v I I I I #
face $-1 $136 $137 $45 $-1 $138 forward single #
loop $-1 $139 $140 $57 #
cone-surface $-1 -46.76410046997713 -33.271958289730676 14.022673290248488 0 0.73135370988377701 -0.68199835119979291 1 0 0 1 I I 0 1 1 forward I I I I #
face $-1 $141 $142 $46 $-1 $143 forward single #
loop $-1 $144 $145 $58 #
cone-surface $-1 -41.297432572205864 -33.271958289730676 14.022673290248488 0 0.73135370988377701 -0.68199835119979291 1 0 0 1 I I 0 1 1 forward I I I I #
face $-1 $146 $147 $47 $-1 $148 forward single #
loop $-1 $149 $150 $59 #
cone-surface $-1 -35.830764674434597 -33.271958289730676 14.022673290248488 0 0.73135370988377701 -0.68199835119979291 1 0 0 1 I I 0 1 1 forward I I I I #
face $-1 $151 $152 $36 $-1 $153 reversed single #
loop $-1 $-1 $154 $60 #
plane-surface $-1 0 0 -16.936880138952169 0 0 1 1 0 0 forward_v I I I I #
coedge $-1 $155 $156 $157 $158 forward $61 $-1 #
face $-1 $159 $160 $37 $-1 $161 forward single #
loop $-1 $-1 $162 $63 #
plane-surface $-1 0 36.166462571476238 0 0 -1 0 0 0 -1 forward_v I I I I #
coedge $-1 $163 $164 $165 $166 forward $64 $-1 #
face $-1 $167 $168 $38 $-1 $169 reversed single #
loop $-1 $-1 $170 $66 #
plane-surface $-1 -39.174322313766574 -16.734489433838121 51.436334315026599 0 0.68199836817093118 0.7313536940579346 1 0 0 forward_v I I I I #
coedge $-1 $171 $172 $173 $174 reversed $67 $-1 #
face $-1 $-1 $175 $39 $-1 $176 forward single #
loop $-1 $177 $178 $69 #
cone-surface $-1 -43.98898949436289 24.760223312942486 5.8173591697847939 0 -0.68199836817093118 -0.7313536940579346 1.25 0 0 1 I I -0.70710678118654746 0.70710678118654746 1.25 forward I I I I #
loop $-1 $-1 $179 $51 #
coedge $-1 $112 $112 $180 $181 reversed $70 $-1 #
face $-1 $-1 $182 $40 $-1 $183 forward single #
loop $-1 $184 $185 $72 #
cone-surface $-1 -34.359655133170264 24.760223312942486 5.8173591697847939 0 -0.68199836817093118 -0.7313536940579346 1.25 0 0 1 I I -0.70710678118654746 0.70710678118654746 1.25 forward I I I I #
loop $-1 $-1 $186 $52 #
coedge $-1 $117 $117 $187 $188 reversed $73 $-1 #
face $-1 $189 $190 $41 $-1 $191 forward single #
loop $-1 $-1 $192 $75 #
plane-surface $-1 53.703061041635436 -16.734489433838121 51.436334315026599 0 0.68199836817093118 0.7313536940579346 1 0 0 forward_v I I I I #
coedge $-1 $193 $194 $195 $196 reversed $76 $-1 #
face $-1 $-1 $197 $42 $-1 $198 forward single #
loop $-1 $199 $200 $78 #
cone-surface $-1 48.888393861039106 24.760223312942486 5.8173591697847939 0 -0.68199836817093118 -0.7313536940579346 1.25 0 0 1 I I -0.70710678118654746 0.70710678118654746 1.25 forward I I I I #
loop $-1 $-1 $201 $54 #
coedge $-1 $126 $126 $202 $203 reversed $79 $-1 #
face $-1 $-1 $204 $43 $-1 $205 forward single #
loop $-1 $206 $207 $81 #
cone-surface $-1 58.517728222231739 24.760223312942486 5.8173591697847939 0 -0.68199836817093118 -0.7313536940579346 1.25 0 0 1 I I -0.70710678118654746 0.70710678118654746 1.25 forward I I I I #
loop $-1 $-1 $208 $55 #
coedge $-1 $131 $131 $209 $210 reversed $82 $-1 #
face $-1 $211 $212 $44 $-1 $213 reversed single #
loop $-1 $-1 $214 $84 #
plane-surface $-1 -41.297432572205864 -36.166462571476231 13.639147172941662 0 -0.73135370988377701 0.68199835119979291 1 0 0 forward_v I I I I #
coedge $-1 $215 $216 $217 $218 reversed $85 $-1 #
face $-1 $-1 $219 $45 $-1 $220 forward single #
loop $-1 $221 $222 $87 #
cone-surface $-1 -46.76410046997713 -31.5493699861156 12.416333748950169 0 0.73135370988377701 -0.68199835119979291 0.5 0 0 1 I I -0.70710678118654746 0.70710678118654746 0.5 forward I I I I #
loop $-1 $-1 $223 $57 #
coedge $-1 $140 $140 $224 $225 reversed $88 $-1 #
face $-1 $-1 $226 $46 $-1 $227 forward single #
loop $-1 $228 $229 $90 #
cone-surface $-1 -41.297432572205864 -31.5493699861156 12.416333748950169 0 0.73135370988377701 -0.68199835119979291 0.5 0 0 1 I I -0.70710678118654746 0.70710678118654746 0.5 forward I I I I #
loop $-1 $-1 $230 $58 #
coedge $-1 $145 $145 $231 $232 reversed $91 $-1 #
face $-1 $-1 $233 $47 $-1 $234 forward single #
loop $-1 $235 $236 $93 #
cone-surface $-1 -35.830764674434597 -31.5493699861156 12.416333748950169 0 0.73135370988377701 -0.68199835119979291 0.5 0 0 1 I I -0.70710678118654746 0.70710678118654746 0.5 forward I I I I #
loop $-1 $-1 $237 $59 #
coedge $-1 $150 $150 $238 $239 reversed $94 $-1 #
face $-1 $240 $241 $36 $-1 $242 reversed single #
loop $-1 $-1 $243 $96 #
plane-surface $-1 0 -36.166462571476238 0 0 1 0 0 0 1 forward_v I I I I #
coedge $-1 $244 $245 $246 $247 forward $97 $-1 #
coedge $-1 $248 $99 $249 $250 forward $61 $-1 #
coedge $-1 $99 $248 $251 $252 forward $61 $-1 #
coedge $-1 $253 $254 $99 $158 reversed $255 $-1 #
edge $-1 $256 -36.166462571476238 $257 36.166462571476238 $157 $258 forward 7 unknown #
face $-1 $259 $260 $37 $-1 $261 reversed single #
loop $-1 $-1 $165 $100 #
plane-surface $-1 -72.201653826961248 0 -12.386918863548857 0 0 1 1 0 0 forward_v I I I I #
coedge $-1 $262 $263 $164 $264 forward $101 $-1 #
coedge $-1 $265 $103 $266 $267 reversed $64 $-1 #
coedge $-1 $103 $265 $162 $264 reversed $64 $-1 #
coedge $-1 $268 $269 $103 $166 reversed $160 $-1 #
edge $-1 $270 -36.166462571476238 $271 36.166462571476238 $165 $272 forward 7 unknown #
face $-1 $273 $274 $38 $-1 $275 forward single #
loop $-1 $-1 $276 $104 #
plane-surface $-1 -27.940098892375175 71.839754640633601 146.42058006327778 -1 0 0 0 0.68199836817093118 0.7313536940579346 forward_v I I I I #
coedge $-1 $277 $278 $279 $280 reversed $105 $-1 #
coedge $-1 $172 $107 $281 $282 reversed $67 $-1 #
coedge $-1 $107 $171 $277 $283 reversed $67 $-1 #
coedge $-1 $279 $284 $107 $174 forward $274 $-1 #
edge $-1 $285 -0.24658525115943775 $286 15.65823240514915 $173 $287 forward 7 unknown #
loop $-1 $-1 $180 $108 #
plane-surface $-1 -39.174322313766574 -16.734489433838121 51.436334315026599 0 0.68199836817093118 0.7313536940579346 1 0 0 forward_v I I I I #
loop $-1 $-1 $288 $69 #
coedge $-1 $178 $178 $179 $289 reversed $109 $-1 #
coedge $-1 $179 $179 $178 $289 forward $111 $-1 #
coedge $-1 $180 $180 $112 $181 forward $175 $-1 #
edge $-1 $290 -1.0329381395512996e-015 $290 6.2831853071795996 $180 $291 forward 7 unknown #
loop $-1 $-1 $187 $113 #
plane-surface $-1 -39.174322313766574 -16.734489433838121 51.436334315026599 0 0.68199836817093118 0.7313536940579346 1 0 0 forward_v I I I I #
loop $-1 $-1 $292 $72 #
coedge $-1 $185 $185 $186 $293 reversed $114 $-1 #
coedge $-1 $186 $186 $185 $293 forward $116 $-1 #
coedge $-1 $187 $187 $117 $188 forward $182 $-1 #
edge $-1 $294 -1.0329381395512996e-015 $294 6.2831853071795996 $187 $295 forward 7 unknown #
face $-1 $296 $297 $41 $-1 $298 reversed single #
loop $-1 $-1 $195 $118 #
plane-surface $-1 0 0 16.936880138952169 0 0 1 1 0 0 forward_v I I I I #
coedge $-1 $299 $300 $301 $302 reversed $119 $-1 #
coedge $-1 $194 $121 $303 $304 reversed $76 $-1 #
coedge $-1 $121 $193 $299 $305 reversed $76 $-1 #
coedge $-1 $301 $306 $121 $196 forward $190 $-1 #
edge $-1 $307 -0.24658525115943775 $308 15.65823240514915 $195 $309 forward 7 unknown #
loop $-1 $-1 $202 $122 #
plane-surface $-1 53.703061041635436 -16.734489433838121 51.436334315026599 0 0.68199836817093118 0.7313536940579346 1 0 0 forward_v I I I I #
loop $-1 $-1 $310 $78 #
coedge $-1 $200 $200 $201 $311 reversed $123 $-1 #
coedge $-1 $201 $201 $200 $311 forward $125 $-1 #
coedge $-1 $202 $202 $126 $203 forward $197 $-1 #
edge $-1 $312 -1.0329381395512996e-015 $312 6.2831853071795996 $202 $313 forward 7 unknown #
loop $-1 $-1 $209 $127 #
plane-surface $-1 53.703061041635436 -16.734489433838121 51.436334315026599 0 0.68199836817093118 0.7313536940579346 1 0 0 forward_v I I I I #
loop $-1 $-1 $314 $81 #
coedge $-1 $207 $207 $208 $315 reversed $128 $-1 #
coedge $-1 $208 $208 $207 $315 forward $130 $-1 #
coedge $-1 $209 $209 $131 $210 forward $204 $-1 #
edge $-1 $316 -1.0329381395512996e-015 $316 6.2831853071795996 $209 $317 forward 7 unknown #
face $-1 $318 $319 $44 $-1 $320 forward single #
loop $-1 $-1 $321 $132 #
plane-surface $-1 -50.408545735157972 -131.15071037510188 102.21338904329411 1 0 0 0 0.73135370988377701 -0.68199835119979291 forward_v I I I I #
coedge $-1 $322 $323 $324 $325 reversed $133 $-1 #
coedge $-1 $216 $135 $326 $327 reversed $85 $-1 #
coedge $-1 $135 $215 $322 $328 reversed $85 $-1 #
coedge $-1 $324 $329 $135 $218 forward $319 $-1 #
edge $-1 $330 29.408892616074702 $331 32.48407828221945 $217 $332 forward 7 unknown #
loop $-1 $-1 $224 $136 #
plane-surface $-1 -41.297432572205864 -36.166462571476231 13.639147172941662 0 -0.73135370988377701 0.68199835119979291 1 0 0 forward_v I I I I #
loop $-1 $-1 $333 $87 #
coedge $-1 $222 $222 $223 $334 reversed $137 $-1 #
coedge $-1 $223 $223 $222 $334 forward $139 $-1 #
coedge $-1 $224 $224 $140 $225 forward $219 $-1 #
edge $-1 $335 0 $335 6.2831853071796004 $224 $336 forward 7 unknown #
loop $-1 $-1 $231 $141 #
plane-surface $-1 -41.297432572205864 -36.166462571476231 13.639147172941662 0 -0.73135370988377701 0.68199835119979291 1 0 0 forward_v I I I I #
loop $-1 $-1 $337 $90 #
coedge $-1 $229 $229 $230 $338 reversed $142 $-1 #
coedge $-1 $230 $230 $229 $338 forward $144 $-1 #
coedge $-1 $231 $231 $145 $232 forward $226 $-1 #
edge $-1 $339 0 $339 6.2831853071796004 $231 $340 forward 7 unknown #
loop $-1 $-1 $238 $146 #
plane-surface $-1 -41.297432572205864 -36.166462571476231 13.639147172941662 0 -0.73135370988377701 0.68199835119979291 1 0 0 forward_v I I I I #
loop $-1 $-1 $341 $93 #
coedge $-1 $236 $236 $237 $342 reversed $147 $-1 #
coedge $-1 $237 $237 $236 $342 forward $149 $-1 #
coedge $-1 $238 $238 $150 $239 forward $233 $-1 #
edge $-1 $343 0 $343 6.2831853071796004 $238 $344 forward 7 unknown #
face $-1 $345 $346 $36 $-1 $347 reversed single #
loop $-1 $-1 $348 $151 #
plane-surface $-1 -64.937284463026828 0 0 1 0 0 0 0 -1 forward_v I I I I #
coedge $-1 $349 $251 $350 $351 forward $152 $-1 #
coedge $-1 $352 $154 $349 $353 forward $97 $-1 #
coedge $-1 $154 $352 $354 $355 forward $97 $-1 #
coedge $-1 $254 $253 $154 $247 reversed $255 $-1 #
edge $-1 $356 -36.166462571476238 $357 36.166462571476238 $246 $358 forward 7 unknown #
coedge $-1 $156 $155 $359 $360 forward $61 $-1 #
coedge $-1 $361 $362 $155 $250 reversed $346 $-1 #
edge $-1 $257 -64.937284463026828 $363 64.937284463026828 $249 $364 forward 7 unknown #
coedge $-1 $243 $365 $156 $252 reversed $152 $-1 #
edge $-1 $366 -64.937284463026828 $256 64.937284463026828 $251 $367 forward 7 unknown #
coedge $-1 $246 $157 $365 $368 forward $255 $-1 #
coedge $-1 $157 $246 $361 $369 reversed $255 $-1 #
loop $-1 $-1 $253 $345 #
vertex $-1 $158 $370 #
vertex $-1 $158 $371 #
straight-curve $-1 64.937284463026828 0 16.936880138952169 0 1 0 I I #
face $-1 $372 $373 $37 $-1 $374 reversed single #
loop $-1 $-1 $375 $159 #
plane-surface $-1 -79.466023190895669 0 -14.661899501250513 1 0 0 0 0 -1 forward_v I I I I #
coedge $-1 $376 $162 $377 $378 reversed $101 $-1 #
coedge $-1 $162 $376 $268 $379 reversed $101 $-1 #
edge $-1 $270 12.386918863548857 $380 16.936880138952169 $162 $381 forward 7 unknown #
coedge $-1 $164 $163 $382 $383 reversed $64 $-1 #
coedge $-1 $384 $385 $163 $267 forward $386 $-1 #
edge $-1 $387 -16.936880138952169 $271 -12.386918863548857 $266 $388 forward 7 unknown #
coedge $-1 $389 $165 $263 $379 forward $160 $-1 #
coedge $-1 $165 $389 $384 $390 forward $160 $-1 #
vertex $-1 $264 $391 #
vertex $-1 $390 $392 #
straight-curve $-1 -64.937284463026828 0 -12.386918863548857 0 -1 0 I I #
face $-1 $-1 $393 $38 $-1 $394 reversed single #
loop $-1 $-1 $173 $167 #
plane-surface $-1 0 0 16.936880138952169 0 0 1 1 0 0 forward_v I I I I #
coedge $-1 $395 $396 $397 $398 reversed $168 $-1 #
coedge $-1 $399 $170 $172 $283 forward $105 $-1 #
coedge $-1 $170 $399 $395 $400 forward $105 $-1 #
coedge $-1 $397 $173 $170 $280 forward $274 $-1 #
edge $-1 $286 -30.821384578274685 $401 -8.3529377354918886 $279 $402 forward 7 unknown #
coedge $-1 $403 $404 $171 $282 forward $393 $-1 #
edge $-1 $405 -71.104892629136003 $285 -56.273409892686722 $281 $406 forward 7 unknown #
edge $-1 $286 50.585830972879592 $405 72.33292514295249 $172 $407 forward 7 unknown #
coedge $-1 $173 $397 $403 $408 forward $274 $-1 #
vertex $-1 $282 $409 #
vertex $-1 $174 $410 #
straight-curve $-1 -50.408545735157972 35.9198773203168 16.936880138952176 0 -1 0 I I #
coedge $-1 $288 $288 $-1 $411 reversed $177 $-1 #
edge $-1 $412 0 $412 6.2831853071796004 $178 $413 forward 7 unknown #
vertex $-1 $181 $414 #
ellipse-curve $-1 -43.98898949436289 28.214053743321948 9.5211387707275232 0 0.68199836817093118 0.7313536940579346 2.5 0 0 1 I I #
coedge $-1 $292 $292 $-1 $415 reversed $184 $-1 #
edge $-1 $416 0 $416 6.2831853071796004 $185 $417 forward 7 unknown #
vertex $-1 $188 $418 #
ellipse-curve $-1 -34.359655133170264 28.214053743321948 9.5211387707275232 0 0.68199836817093118 0.7313536940579346 2.5 0 0 1 I I #
face $-1 $-1 $419 $41 $-1 $420 reversed single #
loop $-1 $-1 $421 $189 #
plane-surface $-1 64.937284463026828 0 0 -1 0 0 0 0 1 forward_v I I I I #
coedge $-1 $422 $192 $194 $305 forward $119 $-1 #
coedge $-1 $192 $422 $421 $423 reversed $119 $-1 #
coedge $-1 $424 $195 $192 $302 forward $190 $-1 #
edge $-1 $308 15.61730709942632 $425 38.085753942209124 $301 $426 forward 7 unknown #
coedge $-1 $427 $428 $193 $304 forward $419 $-1 #
edge $-1 $429 -71.104892629136003 $307 -56.273409892686722 $303 $430 forward 7 unknown #
edge $-1 $308 50.585830972879592 $429 72.33292514295249 $194 $431 forward 7 unknown #
coedge $-1 $195 $424 $427 $432 forward $190 $-1 #
vertex $-1 $304 $433 #
vertex $-1 $196 $434 #
straight-curve $-1 42.468837620244038 35.9198773203168 16.936880138952176 0 -1 0 I I #
coedge $-1 $310 $310 $-1 $435 reversed $199 $-1 #
edge $-1 $436 0 $436 6.2831853071796004 $200 $437 forward 7 unknown #
vertex $-1 $203 $438 #
ellipse-curve $-1 48.888393861039106 28.214053743321948 9.5211387707275232 0 0.68199836817093118 0.7313536940579346 2.5 0 0 1 I I #
coedge $-1 $314 $314 $-1 $439 reversed $206 $-1 #
edge $-1 $440 0 $440 6.2831853071796004 $207 $441 forward 7 unknown #
vertex $-1 $210 $442 #
ellipse-curve $-1 58.517728222231739 28.214053743321948 9.5211387707275232 0 0.68199836817093118 0.7313536940579346 2.5 0 0 1 I I #
face $-1 $-1 $443 $44 $-1 $444 reversed single #
loop $-1 $-1 $217 $211 #
plane-surface $-1 0 0 16.936880138952169 0 0 1 1 0 0 forward_v I I I I #
coedge $-1 $445 $446 $447 $448 reversed $212 $-1 #
coedge $-1 $449 $214 $216 $328 forward $133 $-1 #
coedge $-1 $214 $449 $445 $450 forward $133 $-1 #
coedge $-1 $447 $217 $214 $325 forward $319 $-1 #
edge $-1 $331 11.537603123150824 $451 29.75982944905504 $324 $452 forward 7 unknown #
coedge $-1 $453 $454 $215 $327 forward $443 $-1 #
edge $-1 $455 -37.467547348705402 $330 -34.169814382694888 $326 $456 forward 7 unknown #
edge $-1 $331 -4.5090807928417656 $455 1.004247040074496e-014 $216 $457 forward 7 unknown #
coedge $-1 $217 $447 $453 $458 forward $319 $-1 #
vertex $-1 $327 $459 #
vertex $-1 $218 $460 #
straight-curve $-1 -32.186319409253755 -65.57535518755094 16.936880138952169 0 1 0 I I #
coedge $-1 $333 $333 $-1 $461 reversed $221 $-1 #
edge $-1 $462 0 $462 6.2831853071796004 $222 $463 forward 7 unknown #
vertex $-1 $225 $464 #
ellipse-curve $-1 -46.76410046997713 -34.628869738403864 15.288013655946912 0 -0.73135370988377701 0.68199835119979291 1 0 0 1 I I #
coedge $-1 $337 $337 $-1 $465 reversed $228 $-1 #
edge $-1 $466 0 $466 6.2831853071796004 $229 $467 forward 7 unknown #
vertex $-1 $232 $468 #
ellipse-curve $-1 -41.297432572205864 -34.628869738403864 15.288013655946912 0 -0.73135370988377701 0.68199835119979291 1 0 0 1 I I #
coedge $-1 $341 $341 $-1 $469 reversed $235 $-1 #
edge $-1 $470 0 $470 6.2831853071796004 $236 $471 forward 7 unknown #
vertex $-1 $239 $472 #
ellipse-curve $-1 -35.830764674434597 -34.628869738403864 15.288013655946912 0 -0.73135370988377701 0.68199835119979291 1 0 0 1 I I #
face $-1 $-1 $255 $36 $-1 $473 reversed single #
loop $-1 $-1 $361 $240 #
plane-surface $-1 0 36.166462571476238 0 0 -1 0 0 0 -1 forward_v I I I I #
coedge $-1 $474 $359 $362 $475 forward $241 $-1 #
coedge $-1 $365 $243 $244 $353 reversed $152 $-1 #
coedge $-1 $359 $474 $243 $351 reversed $241 $-1 #
edge $-1 $366 -16.936880138952169 $476 16.936880138952169 $350 $477 forward 7 unknown #
coedge $-1 $245 $244 $474 $478 forward $97 $-1 #
edge $-1 $357 -64.937284463026828 $476 64.937284463026828 $349 $479 forward 7 unknown #
coedge $-1 $362 $361 $245 $355 reversed $346 $-1 #
edge $-1 $480 -64.937284463026828 $356 64.937284463026828 $354 $481 forward 7 unknown #
vertex $-1 $247 $482 #
vertex $-1 $368 $483 #
straight-curve $-1 64.937284463026828 0 -16.936880138952169 0 -1 0 I I #
coedge $-1 $348 $350 $248 $360 reversed $241 $-1 #
edge $-1 $363 -36.166462571476238 $366 36.166462571476238 $359 $484 forward 7 unknown #
coedge $-1 $354 $249 $254 $369 forward $346 $-1 #
coedge $-1 $249 $354 $348 $475 reversed $346 $-1 #
vertex $-1 $250 $485 #
straight-curve $-1 0 36.166462571476238 16.936880138952169 -1 0 0 I I #
coedge $-1 $251 $349 $253 $368 reversed $152 $-1 #
vertex $-1 $360 $486 #
straight-curve $-1 0 -36.166462571476238 16.936880138952169 1 0 0 I I #
edge $-1 $256 -16.936880138952169 $357 16.936880138952169 $253 $487 forward 7 unknown #
edge $-1 $257 -16.936880138952169 $356 16.936880138952169 $254 $488 forward 7 unknown #
point $-1 64.937284463026828 -36.166462571476238 16.936880138952169 #
point $-1 64.937284463026828 36.166462571476238 16.936880138952169 #
face $-1 $-1 $386 $37 $-1 $489 reversed single #
loop $-1 $-1 $382 $259 #
plane-surface $-1 0 0 -16.936880138952169 0 0 1 1 0 0 forward_v I I I I #
coedge $-1 $490 $491 $376 $492 forward $260 $-1 #
coedge $-1 $263 $262 $375 $492 reversed $101 $-1 #
coedge $-1 $382 $493 $262 $378 forward $373 $-1 #
edge $-1 $494 -79.466023190895669 $380 -64.937284463026828 $262 $495 forward 7 unknown #
edge $-1 $270 -7.2643693639344207 $496 7.2643693639344207 $263 $497 forward 7 unknown #
vertex $-1 $264 $498 #
straight-curve $-1 -64.937284463026828 36.166462571476238 0 0 0 -1 I I #
coedge $-1 $499 $377 $265 $383 forward $373 $-1 #
edge $-1 $380 -36.166462571476238 $387 36.166462571476238 $382 $500 forward 7 unknown #
coedge $-1 $501 $266 $269 $390 reversed $386 $-1 #
coedge $-1 $266 $501 $499 $502 reversed $386 $-1 #
loop $-1 $-1 $266 $372 #
vertex $-1 $502 $503 #
straight-curve $-1 -64.937284463026828 -36.166462571476238 0 0 0 1 I I #
coedge $-1 $269 $268 $491 $504 forward $160 $-1 #
edge $-1 $505 -7.2643693639344207 $271 7.2643693639344207 $384 $506 forward 7 unknown #
point $-1 -64.937284463026828 36.166462571476238 -12.386918863548857 #
point $-1 -64.937284463026828 -36.166462571476238 -12.386918863548857 #
loop $-1 $-1 $281 $273 #
plane-surface $-1 0 36.166462571476238 0 0 -1 0 0 0 -1 forward_v I I I I #
coedge $-1 $396 $276 $278 $400 reversed $168 $-1 #
coedge $-1 $276 $395 $507 $508 reversed $168 $-1 #
coedge $-1 $284 $279 $276 $398 forward $274 $-1 #
edge $-1 $401 -15.65823240514915 $509 0.24658525115943775 $397 $510 forward 7 unknown #
coedge $-1 $278 $277 $404 $511 reversed $105 $-1 #
edge $-1 $512 -72.33292514295249 $401 -50.585830972879592 $395 $513 forward 7 unknown #
vertex $-1 $280 $514 #
straight-curve $-1 -19.587161156883287 20.261644915167647 16.936880138952169 1 0 0 I I #
coedge $-1 $507 $281 $284 $408 reversed $393 $-1 #
coedge $-1 $281 $507 $399 $511 forward $393 $-1 #
vertex $-1 $282 $515 #
straight-curve $-1 -50.408545735157972 36.166462571476238 73.210290031638891 0 0 1 I I #
straight-curve $-1 -50.408545735157972 -16.734489433838121 51.436334315026599 0 0.7313536940579346 -0.68199836817093118 I I #
edge $-1 $509 27.940098892375175 $285 50.408545735157972 $403 $516 forward 7 unknown #
point $-1 -50.408545735157972 36.166462571476238 16.936880138952169 #
point $-1 -50.408545735157972 20.261644915167651 16.936880138952169 #
edge $-1 $517 1 $517 0 $288 $-1 forward 7 unknown #
vertex $-1 $289 $518 #
ellipse-curve $-1 -43.98898949436289 25.612721273156151 6.7315512873572123 0 0.68199836817093118 0.7313536940579346 2.5 0 0 1 I I #
point $-1 -41.48898949436289 28.214053743321969 9.5211387707275499 #
edge $-1 $519 1 $519 0 $292 $-1 forward 7 unknown #
vertex $-1 $293 $520 #
ellipse-curve $-1 -34.359655133170264 25.612721273156151 6.7315512873572123 0 0.68199836817093118 0.7313536940579346 2.5 0 0 1 I I #
point $-1 -31.859655133170264 28.214053743321969 9.5211387707275499 #
loop $-1 $-1 $303 $296 #
plane-surface $-1 0 36.166462571476238 0 0 -1 0 0 0 -1 forward_v I I I I #
coedge $-1 $521 $522 $300 $423 forward $297 $-1 #
coedge $-1 $300 $299 $428 $523 reversed $119 $-1 #
edge $-1 $425 26.926667606302789 $524 48.673761776375684 $421 $525 forward 7 unknown #
coedge $-1 $306 $301 $522 $526 forward $190 $-1 #
vertex $-1 $526 $527 #
straight-curve $-1 26.851530520817718 20.261644915167647 16.936880138952169 1 0 0 I I #
coedge $-1 $528 $303 $306 $432 reversed $419 $-1 #
coedge $-1 $303 $528 $422 $523 forward $419 $-1 #
vertex $-1 $304 $529 #
straight-curve $-1 42.468837620244038 36.166462571476238 73.210290031638891 0 0 1 I I #
straight-curve $-1 42.468837620244038 -16.734489433838121 51.436334315026599 0 0.7313536940579346 -0.68199836817093118 I I #
edge $-1 $530 -64.937284463026828 $307 -42.468837620244038 $427 $531 forward 7 unknown #
point $-1 42.468837620244038 36.166462571476238 16.936880138952169 #
point $-1 42.468837620244038 20.261644915167651 16.936880138952169 #
edge $-1 $532 1 $532 0 $310 $-1 forward 7 unknown #
vertex $-1 $311 $533 #
ellipse-curve $-1 48.888393861039106 25.612721273156151 6.7315512873572123 0 0.68199836817093118 0.7313536940579346 2.5 0 0 1 I I #
point $-1 51.388393861039106 28.214053743321969 9.5211387707275499 #
edge $-1 $534 1 $534 0 $314 $-1 forward 7 unknown #
vertex $-1 $315 $535 #
ellipse-curve $-1 58.517728222231739 25.612721273156151 6.7315512873572123 0 0.68199836817093118 0.7313536940579346 2.5 0 0 1 I I #
point $-1 61.017728222231739 28.214053743321969 9.5211387707275499 #
loop $-1 $-1 $326 $318 #
plane-surface $-1 0 -36.166462571476238 0 0 1 0 0 0 1 forward_v I I I I #
coedge $-1 $446 $321 $323 $450 reversed $212 $-1 #
coedge $-1 $321 $445 $536 $537 reversed $212 $-1 #
coedge $-1 $329 $324 $321 $448 forward $319 $-1 #
edge $-1 $451 -32.48407828221945 $538 -29.408892616074702 $447 $539 forward 7 unknown #
coedge $-1 $323 $322 $454 $540 reversed $133 $-1 #
edge $-1 $541 -1.004247040074496e-014 $451 4.5090807928417656 $445 $542 forward 7 unknown #
vertex $-1 $325 $543 #
straight-curve $-1 -20.648716286102932 -33.09127690533149 16.936880138952169 -1 0 0 I I #
coedge $-1 $536 $326 $329 $458 reversed $443 $-1 #
coedge $-1 $326 $536 $449 $540 forward $443 $-1 #
vertex $-1 $327 $544 #
straight-curve $-1 -32.186319409253755 -36.166462571476238 51.106694521647057 0 0 1 I I #
straight-curve $-1 -32.186319409253755 -36.166462571476231 13.639147172941662 0 -0.68199835119979291 -0.73135370988377701 I I #
edge $-1 $538 -50.408545735157972 $330 -32.186319409253755 $453 $545 forward 7 unknown #
point $-1 -32.186319409253755 -36.166462571476238 16.936880138952169 #
point $-1 -32.186319409253755 -33.09127690533149 16.936880138952169 #
edge $-1 $546 1 $546 0 $333 $-1 forward 7 unknown #
vertex $-1 $334 $547 #
ellipse-curve $-1 -46.76410046997713 -31.915046841057489 12.757332924550067 0 -0.73135370988377701 0.68199835119979291 1 0 0 1 I I #
point $-1 -45.76410046997713 -34.628869738403864 15.288013655946912 #
edge $-1 $548 1 $548 0 $337 $-1 forward 7 unknown #
vertex $-1 $338 $549 #
ellipse-curve $-1 -41.297432572205864 -31.915046841057489 12.757332924550067 0 -0.73135370988377701 0.68199835119979291 1 0 0 1 I I #
point $-1 -40.297432572205864 -34.628869738403864 15.288013655946912 #
edge $-1 $550 1 $550 0 $341 $-1 forward 7 unknown #
vertex $-1 $342 $551 #
ellipse-curve $-1 -35.830764674434597 -31.915046841057489 12.757332924550067 0 -0.73135370988377701 0.68199835119979291 1 0 0 1 I I #
point $-1 -34.830764674434597 -34.628869738403864 15.288013655946912 #
plane-surface $-1 64.937284463026828 0 0 -1 0 0 0 0 1 forward_v I I I I #
coedge $-1 $350 $348 $352 $478 reversed $241 $-1 #
edge $-1 $363 -16.936880138952169 $480 16.936880138952169 $362 $552 forward 7 unknown #
vertex $-1 $478 $553 #
straight-curve $-1 -64.937284463026828 -36.166462571476238 0 0 0 -1 I I #
edge $-1 $476 -36.166462571476238 $480 36.166462571476238 $474 $554 forward 7 unknown #
straight-curve $-1 0 -36.166462571476238 -16.936880138952169 -1 0 0 I I #
vertex $-1 $355 $555 #
straight-curve $-1 0 36.166462571476238 -16.936880138952169 1 0 0 I I #
point $-1 64.937284463026828 36.166462571476238 -16.936880138952169 #
point $-1 64.937284463026828 -36.166462571476238 -16.936880138952169 #
straight-curve $-1 -64.937284463026828 0 16.936880138952169 0 -1 0 I I #
point $-1 -64.937284463026828 36.166462571476238 16.936880138952169 #
point $-1 -64.937284463026828 -36.166462571476238 16.936880138952169 #
straight-curve $-1 64.937284463026828 -36.166462571476238 0 0 0 -1 I I #
straight-curve $-1 64.937284463026828 36.166462571476238 0 0 0 -1 I I #
plane-surface $-1 0 -36.166462571476238 0 0 1 0 0 0 1 forward_v I I I I #
coedge $-1 $556 $375 $493 $557 reversed $260 $-1 #
coedge $-1 $375 $556 $389 $504 reversed $260 $-1 #
edge $-1 $496 -2.2749806377016561 $494 2.2749806377016561 $376 $558 forward 7 unknown #
coedge $-1 $377 $499 $490 $557 forward $373 $-1 #
vertex $-1 $378 $559 #
straight-curve $-1 0 36.166462571476238 -16.936880138952169 1 0 0 I I #
vertex $-1 $379 $560 #
straight-curve $-1 -72.201653826961248 36.166462571476238 -12.386918863548857 -1 0 0 I I #
point $-1 -64.937284463026828 36.166462571476238 -16.936880138952169 #
coedge $-1 $493 $382 $385 $502 forward $373 $-1 #
straight-curve $-1 -64.937284463026828 0 -16.936880138952169 0 -1 0 I I #
coedge $-1 $385 $384 $556 $561 forward $386 $-1 #
edge $-1 $387 -7.2643693639344207 $562 7.2643693639344207 $385 $563 forward 7 unknown #
point $-1 -64.937284463026828 -36.166462571476238 -16.936880138952169 #
edge $-1 $496 -36.166462571476238 $505 36.166462571476238 $491 $564 forward 7 unknown #
vertex $-1 $504 $565 #
straight-curve $-1 -72.201653826961248 -36.166462571476238 -12.386918863548857 1 0 0 I I #
coedge $-1 $404 $403 $396 $508 forward $393 $-1 #
edge $-1 $509 56.273409892686722 $512 71.104892629136003 $507 $566 forward 7 unknown #
vertex $-1 $408 $567 #
straight-curve $-1 -27.940098892375175 35.9198773203168 16.936880138952176 0 1 0 I I #
edge $-1 $512 8.3529377354918886 $405 30.821384578274685 $404 $568 forward 7 unknown #
vertex $-1 $511 $569 #
straight-curve $-1 -27.940098892375175 -16.734489433838121 51.436334315026599 0 -0.7313536940579346 0.68199836817093118 I I #
point $-1 -27.940098892375175 20.261644915167651 16.936880138952169 #
point $-1 -50.408545735157972 36.166462571476238 2.1053974025028808 #
straight-curve $-1 0 36.166462571476238 16.936880138952169 -1 0 0 I I #
vertex $-1 $411 $570 #
point $-1 -41.48898949436289 25.612721273156151 6.7315512873572123 #
vertex $-1 $415 $571 #
point $-1 -31.859655133170264 25.612721273156151 6.7315512873572123 #
coedge $-1 $522 $421 $528 $572 reversed $297 $-1 #
coedge $-1 $421 $521 $424 $526 reversed $297 $-1 #
edge $-1 $524 -38.085753942209124 $429 -15.61730709942632 $428 $573 forward 7 unknown #
vertex $-1 $423 $574 #
straight-curve $-1 64.937284463026828 0.5687270926279826 35.300823506731746 0 0.7313536940579346 -0.68199836817093118 I I #
edge $-1 $425 20.261644915167651 $530 36.166462571476238 $522 $575 forward 7 unknown #
point $-1 64.937284463026842 20.261644915167651 16.936880138952169 #
coedge $-1 $428 $427 $521 $572 forward $419 $-1 #
point $-1 42.468837620244038 36.166462571476238 2.1053974025028808 #
vertex $-1 $526 $576 #
straight-curve $-1 0 36.166462571476238 16.936880138952169 -1 0 0 I I #
vertex $-1 $435 $577 #
point $-1 51.388393861039106 25.612721273156151 6.7315512873572123 #
vertex $-1 $439 $578 #
point $-1 61.017728222231739 25.612721273156151 6.7315512873572123 #
coedge $-1 $454 $453 $446 $537 forward $443 $-1 #
edge $-1 $538 34.169814382694888 $541 37.467547348705402 $536 $579 forward 7 unknown #
vertex $-1 $458 $580 #
straight-curve $-1 -50.408545735157972 -65.57535518755094 16.936880138952169 0 -1 0 I I #
edge $-1 $541 -29.75982944905504 $455 -11.537603123150824 $454 $581 forward 7 unknown #
vertex $-1 $540 $582 #
straight-curve $-1 -50.408545735157972 -36.166462571476231 13.639147172941662 0 0.68199835119979291 0.73135370988377701 I I #
point $-1 -50.408545735157972 -33.09127690533149 16.936880138952169 #
point $-1 -32.186319409253755 -36.166462571476238 13.639147172941655 #
straight-curve $-1 0 -36.166462571476238 16.936880138952169 1 0 0 I I #
vertex $-1 $461 $583 #
point $-1 -45.76410046997713 -31.915046841057489 12.757332924550067 #
vertex $-1 $465 $584 #
point $-1 -40.297432572205864 -31.915046841057489 12.757332924550067 #
vertex $-1 $469 $585 #
point $-1 -34.830764674434597 -31.915046841057489 12.757332924550067 #
straight-curve $-1 -64.937284463026828 36.166462571476238 0 0 0 -1 I I #
point $-1 -64.937284463026828 -36.166462571476238 -16.936880138952169 #
straight-curve $-1 -64.937284463026828 0 -16.936880138952169 0 1 0 I I #
point $-1 -64.937284463026828 36.166462571476238 -16.936880138952169 #
coedge $-1 $491 $490 $501 $561 reversed $260 $-1 #
edge $-1 $562 -36.166462571476238 $494 36.166462571476238 $490 $586 forward 7 unknown #
straight-curve $-1 -79.466023190895669 36.166462571476238 -14.661899501250513 0 0 -1 I I #
point $-1 -79.466023190895669 36.166462571476238 -16.936880138952169 #
point $-1 -79.466023190895669 36.166462571476238 -12.386918863548857 #
edge $-1 $505 -2.2749806377016561 $562 2.2749806377016561 $556 $587 forward 7 unknown #
vertex $-1 $557 $588 #
straight-curve $-1 -72.201653826961248 -36.166462571476238 -16.936880138952169 -1 0 0 I I #
straight-curve $-1 -79.466023190895669 0 -12.386918863548857 0 -1 0 I I #
point $-1 -79.466023190895669 -36.166462571476238 -12.386918863548857 #
straight-curve $-1 -27.940098892375175 36.166462571476238 73.210290031638891 0 0 -1 I I #
point $-1 -27.940098892375175 36.166462571476238 16.936880138952169 #
straight-curve $-1 -19.587161156883287 36.166462571476238 2.1053974025028914 -1 0 0 I I #
point $-1 -27.940098892375175 36.166462571476238 2.1053974025028808 #
point $-1 -43.98898949436289 23.907725352728821 4.9031670522123756 #
point $-1 -34.359655133170264 23.907725352728821 4.9031670522123756 #
edge $-1 $530 -16.936880138952169 $524 -2.1053974025028808 $521 $589 forward 7 unknown #
straight-curve $-1 26.851530520817718 36.166462571476238 2.1053974025028914 -1 0 0 I I #
point $-1 64.937284463026842 36.166462571476238 2.1053974025028808 #
straight-curve $-1 64.937284463026828 0 16.936880138952169 0 1 0 I I #
point $-1 64.937284463026828 36.166462571476238 16.936880138952169 #
point $-1 48.888393861039106 23.907725352728821 4.9031670522123756 #
point $-1 58.517728222231739 23.907725352728821 4.9031670522123756 #
straight-curve $-1 -50.408545735157972 -36.166462571476238 51.106694521647057 0 0 -1 I I #
point $-1 -50.408545735157972 -36.166462571476238 16.936880138952169 #
straight-curve $-1 -20.648716286102932 -36.166462571476238 13.639147172941652 1 0 0 I I #
point $-1 -50.408545735157972 -36.166462571476238 13.639147172941655 #
point $-1 -46.76410046997713 -31.183693131173712 12.075334573350272 #
point $-1 -41.297432572205864 -31.183693131173712 12.075334573350272 #
point $-1 -35.830764674434597 -31.183693131173712 12.075334573350272 #
straight-curve $-1 -79.466023190895669 0 -16.936880138952169 0 1 0 I I #
straight-curve $-1 -79.466023190895669 -36.166462571476238 -14.661899501250513 0 0 -1 I I #
point $-1 -79.466023190895669 -36.166462571476238 -16.936880138952169 #
straight-curve $-1 64.937284463026828 36.166462571476238 0 0 0 -1 I I #
End-of-ACIS-data 