500 0 16 0           
7 Unknown 11 ACIS 5.0 NT 24 Fri Mar 26 18:46:51 1999 
-1 9.9999999999999995e-007 1e-010 
body $-1 $16 $-1 $17 #
body $-1 $18 $-1 $19 #
body $-1 $20 $-1 $21 #
body $-1 $22 $-1 $23 #
body $-1 $24 $-1 $25 #
body $-1 $26 $-1 $27 #
body $-1 $28 $-1 $29 #
body $-1 $30 $-1 $31 #
body $-1 $32 $-1 $33 #
body $-1 $34 $-1 $35 #
body $-1 $36 $-1 $37 #
body $-1 $38 $-1 $39 #
body $-1 $40 $-1 $41 #
body $-1 $42 $-1 $43 #
body $-1 $44 $-1 $45 #
body $-1 $46 $-1 $47 #
lump $-1 $-1 $48 $0 #
transform $-1 1 0 0 0 1 0 0 0 1 58.082827234717854 25.981903750507428 5.2432428525721111 1 rotate no_reflect no_shear #
lump $-1 $-1 $49 $1 #
transform $-1 1 0 0 0 1 0 0 0 1 58.082827234717854 25.981903750507428 5.2432428525721111 1 rotate no_reflect no_shear #
lump $-1 $-1 $50 $2 #
transform $-1 1 0 0 0 1 0 0 0 1 58.082827234717854 25.981903750507428 5.2432428525721111 1 rotate no_reflect no_shear #
lump $-1 $-1 $51 $3 #
transform $-1 1 0 0 0 1 0 0 0 1 58.082827234717854 25.981903750507428 5.2432428525721111 1 rotate no_reflect no_shear #
lump $-1 $-1 $52 $4 #
transform $-1 1 0 0 0 1 0 0 0 1 58.082827234717854 25.981903750507428 5.2432428525721111 1 rotate no_reflect no_shear #
lump $-1 $-1 $53 $5 #
transform $-1 1 0 0 0 1 0 0 0 1 58.082827234717854 25.981903750507428 5.2432428525721111 1 rotate no_reflect no_shear #
lump $-1 $-1 $54 $6 #
transform $-1 1 0 0 0 1 0 0 0 1 58.082827234717854 25.981903750507428 5.2432428525721111 1 rotate no_reflect no_shear #
lump $-1 $-1 $55 $7 #
transform $-1 1 0 0 0 1 0 0 0 1 58.082827234717854 25.981903750507428 5.2432428525721111 1 rotate no_reflect no_shear #
lump $-1 $-1 $56 $8 #
transform $-1 1 0 0 0 1 0 0 0 1 58.082827234717854 25.981903750507428 5.2432428525721111 1 rotate no_reflect no_shear #
lump $-1 $-1 $57 $9 #
transform $-1 1 0 0 0 1 0 0 0 1 58.082827234717854 25.981903750507428 5.2432428525721111 1 rotate no_reflect no_shear #
lump $-1 $-1 $58 $10 #
transform $-1 1 0 0 0 1 0 0 0 1 58.082827234717854 25.981903750507428 5.2432428525721111 1 rotate no_reflect no_shear #
lump $-1 $-1 $59 $11 #
transform $-1 1 0 0 0 1 0 0 0 1 58.082827234717854 25.981903750507428 5.2432428525721111 1 rotate no_reflect no_shear #
lump $-1 $-1 $60 $12 #
transform $-1 1 0 0 0 1 0 0 0 1 58.082827234717854 25.981903750507428 5.2432428525721111 1 rotate no_reflect no_shear #
lump $-1 $-1 $61 $13 #
transform $-1 1 0 0 0 1 0 0 0 1 58.082827234717854 25.981903750507428 5.2432428525721111 1 rotate no_reflect no_shear #
lump $-1 $-1 $62 $14 #
transform $-1 1 0 0 0 1 0 0 0 1 58.082827234717854 25.981903750507428 5.2432428525721111 1 rotate no_reflect no_shear #
lump $-1 $-1 $63 $15 #
transform $-1 1 0 0 0 1 0 0 0 1 58.082827234717854 25.981903750507428 5.2432428525721111 1 rotate no_reflect no_shear #
shell $-1 $-1 $-1 $64 $-1 $16 #
shell $-1 $-1 $-1 $65 $-1 $18 #
shell $-1 $-1 $-1 $66 $-1 $20 #
shell $-1 $-1 $-1 $67 $-1 $22 #
shell $-1 $-1 $-1 $68 $-1 $24 #
shell $-1 $-1 $-1 $69 $-1 $26 #
shell $-1 $-1 $-1 $70 $-1 $28 #
shell $-1 $-1 $-1 $71 $-1 $30 #
shell $-1 $-1 $-1 $72 $-1 $32 #
shell $-1 $-1 $-1 $73 $-1 $34 #
shell $-1 $-1 $-1 $74 $-1 $36 #
shell $-1 $-1 $-1 $75 $-1 $38 #
shell $-1 $-1 $-1 $76 $-1 $40 #
shell $-1 $-1 $-1 $77 $-1 $42 #
shell $-1 $-1 $-1 $78 $-1 $44 #
shell $-1 $-1 $-1 $79 $-1 $46 #
face $-1 $80 $81 $48 $-1 $82 forward single #
face $-1 $83 $84 $49 $-1 $85 forward single #
face $-1 $86 $87 $50 $-1 $88 reversed single #
face $-1 $89 $90 $51 $-1 $91 forward single #
face $-1 $92 $93 $52 $-1 $94 reversed single #
face $-1 $95 $96 $53 $-1 $97 forward single #
face $-1 $98 $99 $54 $-1 $100 forward single #
face $-1 $101 $102 $55 $-1 $103 reversed single #
face $-1 $104 $105 $56 $-1 $106 forward single #
face $-1 $107 $108 $57 $-1 $109 forward single #
face $-1 $110 $111 $58 $-1 $112 reversed single #
face $-1 $113 $114 $59 $-1 $115 forward single #
face $-1 $116 $117 $60 $-1 $118 forward single #
face $-1 $119 $120 $61 $-1 $121 reversed single #
face $-1 $122 $123 $62 $-1 $124 forward single #
face $-1 $125 $126 $63 $-1 $127 forward single #
face $-1 $128 $129 $48 $-1 $130 reversed single #
loop $-1 $-1 $131 $64 #
plane-surface $-1 0 0 5.2432428525721111 0 0 1 1 0 0 forward_v I I I I #
face $-1 $132 $133 $49 $-1 $134 reversed single #
loop $-1 $-1 $135 $65 #
plane-surface $-1 0 -22.739660436233429 -2.2432428525721111 0 0 1 1 0 0 forward_v I I I I #
face $-1 $136 $137 $50 $-1 $138 reversed single #
loop $-1 $-1 $139 $66 #
plane-surface $-1 -117.91256307919969 -19.49741712195943 101.69074412266374 0 1 0 -0.51503808176128008 0 0.85716729658548041 forward_v I I I I #
face $-1 $140 $141 $51 $-1 $142 forward single #
loop $-1 $143 $144 $67 #
cone-surface $-1 -54.06932757488557 -15.746031039649036 1.3298064065269197 0.51503808176128008 0 -0.85716729658548041 1.2857509448782207 0 0.77255712264192011 1 I I 0 1 1.5 forward I I I I #
face $-1 $145 $146 $52 $-1 $147 reversed single #
loop $-1 $-1 $148 $68 #
plane-surface $-1 63.816224777816601 -8.1275869038427153 165.33967456726458 0 -1 0 -0.73135370988377701 0 -0.68199835119979291 forward_v I I I I #
face $-1 $149 $150 $53 $-1 $151 forward single #
loop $-1 $152 $153 $69 #
cone-surface $-1 55.806170168207672 -12.720599097614304 2.8537517417100009 -0.73135370988377701 0 -0.68199835119979291 0.34099917559989645 0 -0.36567685494188851 1 I I 0 1 0.5 forward I I I I #
face $-1 $154 $155 $54 $-1 $156 forward single #
loop $-1 $157 $158 $70 #
cone-surface $-1 55.806170168207672 -9.9647917813513516 2.8537517417100009 -0.73135370988377701 0 -0.68199835119979291 0.34099917559989645 0 -0.36567685494188851 1 I I 0 1 0.5 forward I I I I #
face $-1 $159 $160 $55 $-1 $161 reversed single #
loop $-1 $-1 $162 $71 #
plane-surface $-1 63.816224777816601 3.242243314273999 165.33967456726458 0 -1 0 -0.73135370988377701 0 -0.68199835119979291 forward_v I I I I #
face $-1 $163 $164 $56 $-1 $165 forward single #
loop $-1 $166 $167 $72 #
cone-surface $-1 55.806170168207672 -1.3507688794975898 2.8537517417100009 -0.73135370988377701 0 -0.68199835119979291 0.34099917559989645 0 -0.36567685494188851 1 I I 0 1 0.5 forward I I I I #
face $-1 $168 $169 $57 $-1 $170 forward single #
loop $-1 $171 $172 $73 #
cone-surface $-1 55.806170168207672 1.4050384367653628 2.8537517417100009 -0.73135370988377701 0 -0.68199835119979291 0.34099917559989645 0 -0.36567685494188851 1 I I 0 1 0.5 forward I I I I #
face $-1 $173 $174 $58 $-1 $175 reversed single #
loop $-1 $-1 $176 $74 #
plane-surface $-1 63.816224777816601 14.61207353239071 165.33967456726458 0 -1 0 -0.73135370988377701 0 -0.68199835119979291 forward_v I I I I #
face $-1 $177 $178 $59 $-1 $179 forward single #
loop $-1 $180 $181 $75 #
cone-surface $-1 55.806170168207672 10.019061338619125 2.8537517417100009 -0.73135370988377701 0 -0.68199835119979291 0.34099917559989645 0 -0.36567685494188851 1 I I 0 1 0.5 forward I I I I #
face $-1 $182 $183 $60 $-1 $184 forward single #
loop $-1 $185 $186 $76 #
cone-surface $-1 55.806170168207672 12.774868654882077 2.8537517417100009 -0.73135370988377701 0 -0.68199835119979291 0.34099917559989645 0 -0.36567685494188851 1 I I 0 1 0.5 forward I I I I #
face $-1 $187 $188 $61 $-1 $189 reversed single #
loop $-1 $-1 $190 $77 #
plane-surface $-1 63.816224777816601 19.551686679227203 165.33967456726458 0 1 0 0.73135370988377701 0 0.68199835119979291 forward_v I I I I #
face $-1 $191 $192 $62 $-1 $193 forward single #
loop $-1 $194 $195 $78 #
cone-surface $-1 55.806170168207672 21.388891556735842 2.8537517417100009 -0.73135370988377701 0 -0.68199835119979291 0.34099917559989645 0 -0.36567685494188851 1 I I 0 1 0.5 forward I I I I #
face $-1 $196 $197 $63 $-1 $198 forward single #
loop $-1 $199 $200 $79 #
cone-surface $-1 55.806170168207672 24.144698872998788 2.8537517417100009 -0.73135370988377701 0 -0.68199835119979291 0.34099917559989645 0 -0.36567685494188851 1 I I 0 1 0.5 forward I I I I #
face $-1 $201 $202 $48 $-1 $203 reversed single #
loop $-1 $-1 $204 $80 #
plane-surface $-1 0 0 -5.2432428525721111 0 0 1 1 0 0 forward_v I I I I #
coedge $-1 $205 $206 $207 $208 forward $81 $-1 #
face $-1 $209 $210 $49 $-1 $211 reversed single #
loop $-1 $-1 $212 $83 #
plane-surface $-1 0 -19.49741712195943 -3.7432428525721111 0 -1 0 0 0 -1 forward_v I I I I #
coedge $-1 $213 $214 $215 $216 reversed $84 $-1 #
face $-1 $217 $218 $50 $-1 $219 reversed single #
loop $-1 $-1 $220 $86 #
plane-surface $-1 -58.082827234717847 -15.746031039649035 2.1173441250145117 -0.51503808176128008 0 0.85716729658548041 0.85716729658548041 0 0.51503808176128008 forward_v I I I I #
coedge $-1 $221 $222 $223 $224 reversed $87 $-1 #
face $-1 $-1 $225 $51 $-1 $226 forward single #
loop $-1 $227 $228 $89 #
cone-surface $-1 -52.270733864727823 -15.746031039649036 -1.6635561481785786 0.51503808176128008 0 -0.85716729658548041 0.64287547243911036 0 0.38627856132096006 1 I I -0.70710678118654757 0.70710678118654757 0.75 forward I I I I #
loop $-1 $-1 $229 $67 #
coedge $-1 $144 $144 $230 $231 reversed $90 $-1 #
face $-1 $232 $233 $52 $-1 $234 reversed single #
loop $-1 $-1 $235 $92 #
plane-surface $-1 -21.141957579482167 -11.342695439482828 86.114889753064574 0.73135370988377701 0 0.68199835119979291 0.68199835119979291 0 -0.73135370988377701 forward_v I I I I #
coedge $-1 $236 $237 $238 $239 reversed $93 $-1 #
face $-1 $-1 $240 $53 $-1 $241 forward single #
loop $-1 $242 $243 $95 #
cone-surface $-1 55.252052609688363 -12.720599097614304 2.3370287714510862 -0.73135370988377701 0 -0.68199835119979291 0.17049958779994823 0 -0.18283842747094425 1 I I -0.70710678118654746 0.70710678118654746 0.25 forward I I I I #
loop $-1 $-1 $244 $69 #
coedge $-1 $153 $153 $245 $246 reversed $96 $-1 #
face $-1 $-1 $247 $54 $-1 $248 forward single #
loop $-1 $249 $250 $98 #
cone-surface $-1 55.252052609688363 -9.9647917813513516 2.3370287714510862 -0.73135370988377701 0 -0.68199835119979291 0.17049958779994823 0 -0.18283842747094425 1 I I -0.70710678118654746 0.70710678118654746 0.25 forward I I I I #
loop $-1 $-1 $251 $70 #
coedge $-1 $158 $158 $252 $253 reversed $99 $-1 #
face $-1 $254 $255 $55 $-1 $256 reversed single #
loop $-1 $-1 $257 $101 #
plane-surface $-1 -21.141957579482167 0.027134778633886469 86.114889753064574 0.73135370988377701 0 0.68199835119979291 0.68199835119979291 0 -0.73135370988377701 forward_v I I I I #
coedge $-1 $258 $259 $260 $261 reversed $102 $-1 #
face $-1 $-1 $262 $56 $-1 $263 forward single #
loop $-1 $264 $265 $104 #
cone-surface $-1 55.252052609688363 -1.3507688794975898 2.3370287714510862 -0.73135370988377701 0 -0.68199835119979291 0.17049958779994823 0 -0.18283842747094425 1 I I -0.70710678118654746 0.70710678118654746 0.25 forward I I I I #
loop $-1 $-1 $266 $72 #
coedge $-1 $167 $167 $267 $268 reversed $105 $-1 #
face $-1 $-1 $269 $57 $-1 $270 forward single #
loop $-1 $271 $272 $107 #
cone-surface $-1 55.252052609688363 1.4050384367653628 2.3370287714510862 -0.73135370988377701 0 -0.68199835119979291 0.17049958779994823 0 -0.18283842747094425 1 I I -0.70710678118654746 0.70710678118654746 0.25 forward I I I I #
loop $-1 $-1 $273 $73 #
coedge $-1 $172 $172 $274 $275 reversed $108 $-1 #
face $-1 $276 $277 $58 $-1 $278 reversed single #
loop $-1 $-1 $279 $110 #
plane-surface $-1 -21.141957579482167 11.396964996750597 86.114889753064574 0.73135370988377701 0 0.68199835119979291 0.68199835119979291 0 -0.73135370988377701 forward_v I I I I #
coedge $-1 $280 $281 $282 $283 reversed $111 $-1 #
face $-1 $-1 $284 $59 $-1 $285 forward single #
loop $-1 $286 $287 $113 #
cone-surface $-1 55.252052609688363 10.019061338619125 2.3370287714510862 -0.73135370988377701 0 -0.68199835119979291 0.17049958779994823 0 -0.18283842747094425 1 I I -0.70710678118654746 0.70710678118654746 0.25 forward I I I I #
loop $-1 $-1 $288 $75 #
coedge $-1 $181 $181 $289 $290 reversed $114 $-1 #
face $-1 $-1 $291 $60 $-1 $292 forward single #
loop $-1 $293 $294 $116 #
cone-surface $-1 55.252052609688363 12.774868654882077 2.3370287714510862 -0.73135370988377701 0 -0.68199835119979291 0.17049958779994823 0 -0.18283842747094425 1 I I -0.70710678118654746 0.70710678118654746 0.25 forward I I I I #
loop $-1 $-1 $295 $76 #
coedge $-1 $186 $186 $296 $297 reversed $117 $-1 #
face $-1 $298 $299 $61 $-1 $300 reversed single #
loop $-1 $-1 $301 $119 #
plane-surface $-1 -21.141957579482167 22.766795214867315 86.114889753064574 0.73135370988377701 0 0.68199835119979291 0.68199835119979291 0 -0.73135370988377701 forward_v I I I I #
coedge $-1 $302 $303 $304 $305 reversed $120 $-1 #
face $-1 $-1 $306 $62 $-1 $307 forward single #
loop $-1 $308 $309 $122 #
cone-surface $-1 55.252052609688363 21.388891556735842 2.3370287714510862 -0.73135370988377701 0 -0.68199835119979291 0.17049958779994823 0 -0.18283842747094425 1 I I -0.70710678118654746 0.70710678118654746 0.25 forward I I I I #
loop $-1 $-1 $310 $78 #
coedge $-1 $195 $195 $311 $312 reversed $123 $-1 #
face $-1 $-1 $313 $63 $-1 $314 forward single #
loop $-1 $315 $316 $125 #
cone-surface $-1 55.252052609688363 24.144698872998788 2.3370287714510862 -0.73135370988377701 0 -0.68199835119979291 0.17049958779994823 0 -0.18283842747094425 1 I I -0.70710678118654746 0.70710678118654746 0.25 forward I I I I #
loop $-1 $-1 $317 $79 #
coedge $-1 $200 $200 $318 $319 reversed $126 $-1 #
face $-1 $320 $321 $48 $-1 $322 reversed single #
loop $-1 $-1 $323 $128 #
plane-surface $-1 0 -25.981903750507428 0 0 1 0 0 0 1 forward_v I I I I #
coedge $-1 $324 $325 $326 $327 forward $129 $-1 #
coedge $-1 $328 $131 $329 $330 forward $81 $-1 #
coedge $-1 $131 $328 $331 $332 forward $81 $-1 #
coedge $-1 $333 $334 $131 $208 reversed $335 $-1 #
edge $-1 $336 -25.981903750507428 $337 25.981903750507428 $207 $338 forward 7 unknown #
face $-1 $339 $340 $49 $-1 $341 reversed single #
loop $-1 $-1 $342 $132 #
plane-surface $-1 0 0 -5.2432428525721111 0 0 1 1 0 0 forward_v I I I I #
coedge $-1 $343 $344 $345 $346 reversed $133 $-1 #
coedge $-1 $347 $135 $344 $348 forward $84 $-1 #
coedge $-1 $135 $347 $349 $350 reversed $84 $-1 #
coedge $-1 $351 $345 $135 $216 forward $340 $-1 #
edge $-1 $352 8.1275869038427153 $353 14.612073532390713 $215 $354 forward 7 unknown #
face $-1 $355 $356 $50 $-1 $357 forward single #
loop $-1 $-1 $358 $136 #
plane-surface $-1 -117.91256307919969 -11.99464495733864 101.69074412266374 0 -1 0 0.51503808176128008 0 -0.85716729658548041 forward_v I I I I #
coedge $-1 $359 $360 $361 $362 reversed $137 $-1 #
coedge $-1 $222 $139 $363 $364 reversed $87 $-1 #
coedge $-1 $139 $221 $359 $365 reversed $87 $-1 #
coedge $-1 $361 $366 $139 $224 forward $356 $-1 #
edge $-1 $367 0.87345430488198872 $368 6.0758233268729782 $223 $369 forward 7 unknown #
loop $-1 $-1 $230 $140 #
plane-surface $-1 -58.082827234717847 -15.746031039649035 2.1173441250145117 -0.51503808176128008 0 0.85716729658548041 0.85716729658548041 0 0.51503808176128008 forward_v I I I I #
loop $-1 $-1 $370 $89 #
coedge $-1 $228 $228 $229 $371 reversed $141 $-1 #
coedge $-1 $229 $229 $228 $371 forward $143 $-1 #
coedge $-1 $230 $230 $144 $231 forward $225 $-1 #
edge $-1 $372 0 $372 6.2831853071796004 $230 $373 forward 7 unknown #
face $-1 $374 $375 $52 $-1 $376 reversed single #
loop $-1 $-1 $377 $145 #
plane-surface $-1 63.816224777816601 -14.55780397512294 165.33967456726458 0 1 0 0.73135370988377701 0 0.68199835119979291 forward_v I I I I #
coedge $-1 $378 $379 $380 $381 reversed $146 $-1 #
coedge $-1 $237 $148 $382 $383 reversed $93 $-1 #
coedge $-1 $148 $236 $378 $384 reversed $93 $-1 #
coedge $-1 $380 $385 $148 $239 forward $386 $-1 #
edge $-1 $387 -26.174714845809554 $388 -22.363958974885897 $238 $389 forward 7 unknown #
loop $-1 $-1 $245 $149 #
plane-surface $-1 -21.141957579482167 -11.342695439482828 86.114889753064574 0.73135370988377701 0 0.68199835119979291 0.68199835119979291 0 -0.73135370988377701 forward_v I I I I #
loop $-1 $-1 $390 $95 #
coedge $-1 $243 $243 $244 $391 reversed $150 $-1 #
coedge $-1 $244 $244 $243 $391 forward $152 $-1 #
coedge $-1 $245 $245 $153 $246 forward $240 $-1 #
edge $-1 $392 0 $392 6.2831853071796004 $245 $393 forward 7 unknown #
loop $-1 $-1 $252 $154 #
plane-surface $-1 -21.141957579482167 -11.342695439482828 86.114889753064574 0.73135370988377701 0 0.68199835119979291 0.68199835119979291 0 -0.73135370988377701 forward_v I I I I #
loop $-1 $-1 $394 $98 #
coedge $-1 $250 $250 $251 $395 reversed $155 $-1 #
coedge $-1 $251 $251 $250 $395 forward $157 $-1 #
coedge $-1 $252 $252 $158 $253 forward $247 $-1 #
edge $-1 $396 0 $396 6.2831853071796004 $252 $397 forward 7 unknown #
face $-1 $398 $399 $55 $-1 $400 reversed single #
loop $-1 $-1 $401 $159 #
plane-surface $-1 63.816224777816601 -3.1879737570062261 165.33967456726458 0 1 0 0.73135370988377701 0 0.68199835119979291 forward_v I I I I #
coedge $-1 $402 $403 $404 $405 reversed $160 $-1 #
coedge $-1 $259 $162 $406 $407 reversed $102 $-1 #
coedge $-1 $162 $258 $402 $408 reversed $102 $-1 #
coedge $-1 $404 $409 $162 $261 forward $410 $-1 #
edge $-1 $411 -26.174714845809554 $412 -22.363958974885897 $260 $413 forward 7 unknown #
loop $-1 $-1 $267 $163 #
plane-surface $-1 -21.141957579482167 0.027134778633886469 86.114889753064574 0.73135370988377701 0 0.68199835119979291 0.68199835119979291 0 -0.73135370988377701 forward_v I I I I #
loop $-1 $-1 $414 $104 #
coedge $-1 $265 $265 $266 $415 reversed $164 $-1 #
coedge $-1 $266 $266 $265 $415 forward $166 $-1 #
coedge $-1 $267 $267 $167 $268 forward $262 $-1 #
edge $-1 $416 0 $416 6.2831853071796004 $267 $417 forward 7 unknown #
loop $-1 $-1 $274 $168 #
plane-surface $-1 -21.141957579482167 0.027134778633886469 86.114889753064574 0.73135370988377701 0 0.68199835119979291 0.68199835119979291 0 -0.73135370988377701 forward_v I I I I #
loop $-1 $-1 $418 $107 #
coedge $-1 $272 $272 $273 $419 reversed $169 $-1 #
coedge $-1 $273 $273 $272 $419 forward $171 $-1 #
coedge $-1 $274 $274 $172 $275 forward $269 $-1 #
edge $-1 $420 0 $420 6.2831853071796004 $274 $421 forward 7 unknown #
face $-1 $422 $423 $58 $-1 $424 reversed single #
loop $-1 $-1 $425 $173 #
plane-surface $-1 63.816224777816601 8.1818564611104847 165.33967456726458 0 1 0 0.73135370988377701 0 0.68199835119979291 forward_v I I I I #
coedge $-1 $426 $427 $428 $429 reversed $174 $-1 #
coedge $-1 $281 $176 $430 $431 reversed $111 $-1 #
coedge $-1 $176 $280 $426 $432 reversed $111 $-1 #
coedge $-1 $428 $433 $176 $283 forward $434 $-1 #
edge $-1 $435 -26.174714845809554 $436 -22.363958974885897 $282 $437 forward 7 unknown #
loop $-1 $-1 $289 $177 #
plane-surface $-1 -21.141957579482167 11.396964996750597 86.114889753064574 0.73135370988377701 0 0.68199835119979291 0.68199835119979291 0 -0.73135370988377701 forward_v I I I I #
loop $-1 $-1 $438 $113 #
coedge $-1 $287 $287 $288 $439 reversed $178 $-1 #
coedge $-1 $288 $288 $287 $439 forward $180 $-1 #
coedge $-1 $289 $289 $181 $290 forward $284 $-1 #
edge $-1 $440 0 $440 6.2831853071796004 $289 $441 forward 7 unknown #
loop $-1 $-1 $296 $182 #
plane-surface $-1 -21.141957579482167 11.396964996750597 86.114889753064574 0.73135370988377701 0 0.68199835119979291 0.68199835119979291 0 -0.73135370988377701 forward_v I I I I #
loop $-1 $-1 $442 $116 #
coedge $-1 $294 $294 $295 $443 reversed $183 $-1 #
coedge $-1 $295 $295 $294 $443 forward $185 $-1 #
coedge $-1 $296 $296 $186 $297 forward $291 $-1 #
edge $-1 $444 0 $444 6.2831853071796004 $296 $445 forward 7 unknown #
face $-1 $446 $447 $61 $-1 $448 reversed single #
loop $-1 $-1 $304 $187 #
plane-surface $-1 58.082827234717854 0 0 -1 0 0 0 0 1 forward_v I I I I #
coedge $-1 $449 $450 $451 $452 reversed $188 $-1 #
coedge $-1 $303 $190 $453 $454 reversed $120 $-1 #
coedge $-1 $190 $302 $449 $455 reversed $120 $-1 #
coedge $-1 $451 $456 $190 $305 forward $299 $-1 #
edge $-1 $457 77.426594431060181 $458 81.513129887866498 $304 $459 forward 7 unknown #
loop $-1 $-1 $311 $191 #
plane-surface $-1 -21.141957579482167 22.766795214867315 86.114889753064574 0.73135370988377701 0 0.68199835119979291 0.68199835119979291 0 -0.73135370988377701 forward_v I I I I #
loop $-1 $-1 $460 $122 #
coedge $-1 $309 $309 $310 $461 reversed $192 $-1 #
coedge $-1 $310 $310 $309 $461 forward $194 $-1 #
coedge $-1 $311 $311 $195 $312 forward $306 $-1 #
edge $-1 $462 0 $462 6.2831853071796004 $311 $463 forward 7 unknown #
loop $-1 $-1 $318 $196 #
plane-surface $-1 -21.141957579482167 22.766795214867315 86.114889753064574 0.73135370988377701 0 0.68199835119979291 0.68199835119979291 0 -0.73135370988377701 forward_v I I I I #
loop $-1 $-1 $464 $125 #
coedge $-1 $316 $316 $317 $465 reversed $197 $-1 #
coedge $-1 $317 $317 $316 $465 forward $199 $-1 #
coedge $-1 $318 $318 $200 $319 forward $313 $-1 #
edge $-1 $466 0 $466 6.2831853071796004 $318 $467 forward 7 unknown #
face $-1 $468 $469 $48 $-1 $470 reversed single #
loop $-1 $-1 $471 $201 #
plane-surface $-1 -58.082827234717854 0 0 1 0 0 0 0 -1 forward_v I I I I #
coedge $-1 $472 $331 $473 $474 forward $202 $-1 #
coedge $-1 $475 $204 $472 $476 forward $129 $-1 #
coedge $-1 $204 $475 $477 $478 forward $129 $-1 #
coedge $-1 $334 $333 $204 $327 reversed $335 $-1 #
edge $-1 $479 -25.981903750507428 $480 25.981903750507428 $326 $481 forward 7 unknown #
coedge $-1 $206 $205 $482 $483 forward $81 $-1 #
coedge $-1 $484 $485 $205 $330 reversed $469 $-1 #
edge $-1 $337 -58.082827234717854 $486 58.082827234717854 $329 $487 forward 7 unknown #
coedge $-1 $323 $488 $206 $332 reversed $202 $-1 #
edge $-1 $489 -58.082827234717854 $336 58.082827234717854 $331 $490 forward 7 unknown #
coedge $-1 $326 $207 $488 $491 forward $335 $-1 #
coedge $-1 $207 $326 $484 $492 reversed $335 $-1 #
loop $-1 $-1 $333 $468 #
vertex $-1 $208 $493 #
vertex $-1 $208 $494 #
straight-curve $-1 58.082827234717854 0 5.2432428525721111 0 1 0 I I #
face $-1 $495 $496 $49 $-1 $497 reversed single #
loop $-1 $-1 $345 $209 #
plane-surface $-1 58.082827234717854 0 0 -1 0 0 0 0 1 forward_v I I I I #
coedge $-1 $498 $499 $343 $500 forward $210 $-1 #
coedge $-1 $501 $212 $342 $500 reversed $133 $-1 #
coedge $-1 $212 $501 $213 $348 reversed $133 $-1 #
coedge $-1 $215 $502 $212 $346 forward $340 $-1 #
edge $-1 $503 -3.3716214262860555 $352 -0.37162142628605555 $345 $504 forward 7 unknown #
coedge $-1 $214 $213 $505 $506 reversed $84 $-1 #
edge $-1 $352 -58.082827234717854 $507 58.082827234717854 $344 $508 forward 7 unknown #
coedge $-1 $509 $510 $214 $350 forward $496 $-1 #
edge $-1 $353 -58.082827234717854 $511 58.082827234717854 $349 $512 forward 7 unknown #
coedge $-1 $502 $215 $510 $513 forward $340 $-1 #
vertex $-1 $216 $514 #
vertex $-1 $513 $515 #
straight-curve $-1 58.082827234717854 -11.369830218116714 -2.2432428525721111 0 -1 0 I I #
face $-1 $-1 $516 $50 $-1 $517 reversed single #
loop $-1 $-1 $223 $217 #
plane-surface $-1 0 0 5.2432428525721111 0 0 1 1 0 0 forward_v I I I I #
coedge $-1 $518 $519 $520 $521 reversed $218 $-1 #
coedge $-1 $522 $220 $222 $365 forward $137 $-1 #
coedge $-1 $220 $522 $518 $523 forward $137 $-1 #
coedge $-1 $520 $223 $220 $362 forward $356 $-1 #
edge $-1 $368 -11.624401602134913 $524 -4.1216294375141223 $361 $525 forward 7 unknown #
coedge $-1 $526 $527 $221 $364 forward $516 $-1 #
edge $-1 $528 -48.728027936317368 $367 -45.602129208759763 $363 $529 forward 7 unknown #
edge $-1 $368 -6.0692574748413524 $528 8.3777685069199533e-015 $222 $530 forward 7 unknown #
coedge $-1 $223 $520 $526 $531 forward $356 $-1 #
vertex $-1 $364 $532 #
vertex $-1 $224 $533 #
straight-curve $-1 -58.956281539599843 -19.49741712195943 5.2432428525721093 1 0 0 I I #
coedge $-1 $370 $370 $-1 $534 reversed $227 $-1 #
edge $-1 $535 0 $535 6.2831853071796004 $228 $536 forward 7 unknown #
vertex $-1 $231 $537 #
ellipse-curve $-1 -55.481642723722359 -15.746031039649036 3.680293488793311 -0.51503808176128008 0 0.85716729658548041 1.2857509448782207 0 0.77255712264192011 1 I I #
face $-1 $-1 $386 $52 $-1 $538 forward single #
loop $-1 $-1 $539 $232 #
plane-surface $-1 58.082827234717854 0 0 -1 0 0 0 0 1 forward_v I I I I #
coedge $-1 $540 $541 $542 $543 reversed $233 $-1 #
coedge $-1 $544 $235 $237 $384 forward $146 $-1 #
coedge $-1 $235 $544 $540 $545 forward $146 $-1 #
coedge $-1 $542 $238 $235 $381 forward $386 $-1 #
edge $-1 $388 2.4562391841013014 $546 8.8864562553815265 $380 $547 forward 7 unknown #
coedge $-1 $548 $549 $236 $383 forward $375 $-1 #
edge $-1 $550 -81.513129887866498 $387 -77.426594431060181 $382 $551 forward 7 unknown #
edge $-1 $388 110.57802238173396 $550 116.16565446943572 $237 $552 forward 7 unknown #
coedge $-1 $238 $542 $548 $553 forward $386 $-1 #
loop $-1 $-1 $542 $374 #
vertex $-1 $383 $554 #
vertex $-1 $239 $555 #
straight-curve $-1 31.9081123889083 -8.1275869038427153 5.2432428525721093 -1 0 0 I I #
coedge $-1 $390 $390 $-1 $556 reversed $242 $-1 #
edge $-1 $557 0 $557 6.2831853071796004 $243 $558 forward 7 unknown #
vertex $-1 $246 $559 #
ellipse-curve $-1 56.177449299256025 -12.720599097614304 3.1999751241689576 0.73135370988377701 0 0.68199835119979291 0.34099917559989645 0 -0.36567685494188851 1 I I #
coedge $-1 $394 $394 $-1 $560 reversed $249 $-1 #
edge $-1 $561 0 $561 6.2831853071796004 $250 $562 forward 7 unknown #
vertex $-1 $253 $563 #
ellipse-curve $-1 56.177449299256025 -9.9647917813513516 3.1999751241689576 0.73135370988377701 0 0.68199835119979291 0.34099917559989645 0 -0.36567685494188851 1 I I #
face $-1 $-1 $410 $55 $-1 $564 forward single #
loop $-1 $-1 $565 $254 #
plane-surface $-1 58.082827234717854 0 0 -1 0 0 0 0 1 forward_v I I I I #
coedge $-1 $566 $567 $568 $569 reversed $255 $-1 #
coedge $-1 $570 $257 $259 $408 forward $160 $-1 #
coedge $-1 $257 $570 $566 $571 forward $160 $-1 #
coedge $-1 $568 $260 $257 $405 forward $410 $-1 #
edge $-1 $412 -3.2286759249570558 $572 3.2015411463231693 $404 $573 forward 7 unknown #
coedge $-1 $574 $575 $258 $407 forward $399 $-1 #
edge $-1 $576 -81.513129887866498 $411 -77.426594431060181 $406 $577 forward 7 unknown #
edge $-1 $412 110.57802238173396 $576 116.16565446943572 $259 $578 forward 7 unknown #
coedge $-1 $260 $568 $574 $579 forward $410 $-1 #
loop $-1 $-1 $568 $398 #
vertex $-1 $407 $580 #
vertex $-1 $261 $581 #
straight-curve $-1 31.9081123889083 3.242243314273999 5.2432428525721093 -1 0 0 I I #
coedge $-1 $414 $414 $-1 $582 reversed $264 $-1 #
edge $-1 $583 0 $583 6.2831853071796004 $265 $584 forward 7 unknown #
vertex $-1 $268 $585 #
ellipse-curve $-1 56.177449299256025 -1.3507688794975898 3.1999751241689576 0.73135370988377701 0 0.68199835119979291 0.34099917559989645 0 -0.36567685494188851 1 I I #
coedge $-1 $418 $418 $-1 $586 reversed $271 $-1 #
edge $-1 $587 0 $587 6.2831853071796004 $272 $588 forward 7 unknown #
vertex $-1 $275 $589 #
ellipse-curve $-1 56.177449299256025 1.4050384367653628 3.1999751241689576 0.73135370988377701 0 0.68199835119979291 0.34099917559989645 0 -0.36567685494188851 1 I I #
face $-1 $-1 $434 $58 $-1 $590 forward single #
loop $-1 $-1 $591 $276 #
plane-surface $-1 58.082827234717854 0 0 -1 0 0 0 0 1 forward_v I I I I #
coedge $-1 $592 $593 $594 $595 reversed $277 $-1 #
coedge $-1 $596 $279 $281 $432 forward $174 $-1 #
coedge $-1 $279 $596 $592 $597 forward $174 $-1 #
coedge $-1 $594 $282 $279 $429 forward $434 $-1 #
edge $-1 $436 -8.9135910340154112 $598 -2.4833739627351861 $428 $599 forward 7 unknown #
coedge $-1 $600 $601 $280 $431 forward $423 $-1 #
edge $-1 $602 -81.513129887866498 $435 -77.426594431060181 $430 $603 forward 7 unknown #
edge $-1 $436 110.57802238173396 $602 116.16565446943572 $281 $604 forward 7 unknown #
coedge $-1 $282 $594 $600 $605 forward $434 $-1 #
loop $-1 $-1 $594 $422 #
vertex $-1 $431 $606 #
vertex $-1 $283 $607 #
straight-curve $-1 31.9081123889083 14.61207353239071 5.2432428525721093 -1 0 0 I I #
coedge $-1 $438 $438 $-1 $608 reversed $286 $-1 #
edge $-1 $609 0 $609 6.2831853071796004 $287 $610 forward 7 unknown #
vertex $-1 $290 $611 #
ellipse-curve $-1 56.177449299256025 10.019061338619125 3.1999751241689576 0.73135370988377701 0 0.68199835119979291 0.34099917559989645 0 -0.36567685494188851 1 I I #
coedge $-1 $442 $442 $-1 $612 reversed $293 $-1 #
edge $-1 $613 0 $613 6.2831853071796004 $294 $614 forward 7 unknown #
vertex $-1 $297 $615 #
ellipse-curve $-1 56.177449299256025 12.774868654882077 3.1999751241689576 0.73135370988377701 0 0.68199835119979291 0.34099917559989645 0 -0.36567685494188851 1 I I #
face $-1 $-1 $616 $61 $-1 $617 forward single #
loop $-1 $-1 $618 $298 #
plane-surface $-1 0 25.981903750507428 0 0 -1 0 0 0 -1 forward_v I I I I #
coedge $-1 $619 $301 $303 $455 forward $188 $-1 #
coedge $-1 $301 $619 $618 $620 reversed $188 $-1 #
coedge $-1 $621 $304 $301 $452 forward $299 $-1 #
edge $-1 $458 8.168289071793545 $622 14.59850614307377 $451 $623 forward 7 unknown #
coedge $-1 $624 $625 $302 $454 forward $616 $-1 #
edge $-1 $626 22.363958974885897 $457 26.174714845809554 $453 $627 forward 7 unknown #
edge $-1 $458 -116.16565446943572 $626 -110.57802238173396 $303 $628 forward 7 unknown #
coedge $-1 $304 $621 $624 $629 reversed $299 $-1 #
vertex $-1 $629 $630 #
vertex $-1 $305 $631 #
straight-curve $-1 58.082827234717854 19.551686679227203 82.66983728363229 0 0 -1 I I #
coedge $-1 $460 $460 $-1 $632 reversed $308 $-1 #
edge $-1 $633 0 $633 6.2831853071796004 $309 $634 forward 7 unknown #
vertex $-1 $312 $635 #
ellipse-curve $-1 56.177449299256025 21.388891556735842 3.1999751241689576 0.73135370988377701 0 0.68199835119979291 0.34099917559989645 0 -0.36567685494188851 1 I I #
coedge $-1 $464 $464 $-1 $636 reversed $315 $-1 #
edge $-1 $637 0 $637 6.2831853071796004 $316 $638 forward 7 unknown #
vertex $-1 $319 $639 #
ellipse-curve $-1 56.177449299256025 24.144698872998788 3.1999751241689576 0.73135370988377701 0 0.68199835119979291 0.34099917559989645 0 -0.36567685494188851 1 I I #
face $-1 $-1 $335 $48 $-1 $640 reversed single #
loop $-1 $-1 $484 $320 #
plane-surface $-1 0 25.981903750507428 0 0 -1 0 0 0 -1 forward_v I I I I #
coedge $-1 $641 $482 $485 $642 forward $321 $-1 #
coedge $-1 $488 $323 $324 $476 reversed $202 $-1 #
coedge $-1 $482 $641 $323 $474 reversed $321 $-1 #
edge $-1 $489 -5.2432428525721111 $643 5.2432428525721111 $473 $644 forward 7 unknown #
coedge $-1 $325 $324 $641 $645 forward $129 $-1 #
edge $-1 $480 -58.082827234717854 $643 58.082827234717854 $472 $646 forward 7 unknown #
coedge $-1 $485 $484 $325 $478 reversed $469 $-1 #
edge $-1 $647 -58.082827234717854 $479 58.082827234717854 $477 $648 forward 7 unknown #
vertex $-1 $327 $649 #
vertex $-1 $491 $650 #
straight-curve $-1 58.082827234717854 0 -5.2432428525721111 0 -1 0 I I #
coedge $-1 $471 $473 $328 $483 reversed $321 $-1 #
edge $-1 $486 -25.981903750507428 $489 25.981903750507428 $482 $651 forward 7 unknown #
coedge $-1 $477 $329 $334 $492 forward $469 $-1 #
coedge $-1 $329 $477 $471 $642 reversed $469 $-1 #
vertex $-1 $330 $652 #
straight-curve $-1 0 25.981903750507428 5.2432428525721111 -1 0 0 I I #
coedge $-1 $331 $472 $333 $491 reversed $202 $-1 #
vertex $-1 $483 $653 #
straight-curve $-1 0 -25.981903750507428 5.2432428525721111 1 0 0 I I #
edge $-1 $336 -5.2432428525721111 $480 5.2432428525721111 $333 $654 forward 7 unknown #
edge $-1 $337 -5.2432428525721111 $479 5.2432428525721111 $334 $655 forward 7 unknown #
point $-1 58.082827234717854 -25.981903750507428 5.2432428525721111 #
point $-1 58.082827234717854 25.981903750507428 5.2432428525721111 #
face $-1 $-1 $656 $49 $-1 $657 reversed single #
loop $-1 $-1 $349 $339 #
plane-surface $-1 0 -25.981903750507428 0 0 1 0 0 0 1 forward_v I I I I #
coedge $-1 $658 $342 $502 $659 forward $210 $-1 #
coedge $-1 $342 $658 $660 $661 forward $210 $-1 #
edge $-1 $662 -58.082827234717854 $503 58.082827234717854 $342 $663 forward 7 unknown #
coedge $-1 $344 $343 $664 $665 reversed $133 $-1 #
coedge $-1 $345 $351 $498 $659 reversed $340 $-1 #
vertex $-1 $659 $666 #
straight-curve $-1 58.082827234717854 -19.49741712195943 -1.8716214262860555 0 0 1 I I #
coedge $-1 $664 $667 $347 $506 forward $656 $-1 #
edge $-1 $511 -14.612073532390713 $507 -8.1275869038427153 $505 $668 forward 7 unknown #
vertex $-1 $506 $669 #
straight-curve $-1 0 -19.49741712195943 -2.2432428525721111 -1 0 0 I I #
coedge $-1 $670 $349 $667 $671 forward $496 $-1 #
coedge $-1 $349 $670 $351 $513 reversed $496 $-1 #
vertex $-1 $671 $672 #
straight-curve $-1 0 -25.981903750507428 -2.2432428525721111 -1 0 0 I I #
edge $-1 $353 2.2432428525721111 $673 5.2432428525721111 $351 $674 forward 7 unknown #
point $-1 58.082827234717854 -19.49741712195943 -2.2432428525721111 #
point $-1 58.082827234717854 -25.981903750507428 -2.2432428525721111 #
loop $-1 $-1 $363 $355 #
plane-surface $-1 -58.082827234717854 0 0 1 0 0 0 0 -1 forward_v I I I I #
coedge $-1 $519 $358 $360 $523 reversed $218 $-1 #
coedge $-1 $358 $518 $675 $676 reversed $218 $-1 #
coedge $-1 $366 $361 $358 $521 forward $356 $-1 #
edge $-1 $524 -6.0758233268729782 $677 -0.87345430488198872 $520 $678 forward 7 unknown #
coedge $-1 $360 $359 $527 $679 reversed $137 $-1 #
edge $-1 $680 -8.3777685069199533e-015 $524 6.0692574748413524 $518 $681 forward 7 unknown #
vertex $-1 $362 $682 #
straight-curve $-1 -52.880458212726872 -7.8730155198245173 5.2432428525721093 0 1 0 I I #
coedge $-1 $675 $363 $366 $531 reversed $516 $-1 #
coedge $-1 $363 $675 $522 $679 forward $516 $-1 #
vertex $-1 $364 $683 #
straight-curve $-1 -58.082827234717854 -19.49741712195943 50.845372061331872 0 0 1 I I #
straight-curve $-1 -58.082827234717847 -19.49741712195943 2.1173441250145117 -0.85716729658548041 0 -0.51503808176128008 I I #
edge $-1 $677 11.99464495733864 $367 19.49741712195943 $526 $684 forward 7 unknown #
point $-1 -58.082827234717854 -19.49741712195943 5.2432428525721111 #
point $-1 -52.880458212726865 -19.49741712195943 5.2432428525721111 #
edge $-1 $685 1 $685 0 $370 $-1 forward 7 unknown #
vertex $-1 $371 $686 #
ellipse-curve $-1 -52.65701242604878 -15.746031039649036 -1.0206806757394682 -0.51503808176128008 0 0.85716729658548041 1.2857509448782207 0 0.77255712264192011 1 I I #
point $-1 -54.195891778844135 -15.746031039649036 4.4528506114352275 #
plane-surface $-1 0 0 5.2432428525721111 0 0 1 1 0 0 forward_v I I I I #
coedge $-1 $549 $548 $541 $687 forward $375 $-1 #
coedge $-1 $541 $377 $379 $545 reversed $233 $-1 #
coedge $-1 $377 $540 $539 $687 reversed $233 $-1 #
coedge $-1 $385 $380 $377 $543 forward $386 $-1 #
edge $-1 $546 22.363958974885897 $688 26.174714845809554 $542 $689 forward 7 unknown #
coedge $-1 $379 $378 $549 $690 reversed $146 $-1 #
edge $-1 $691 -116.16565446943572 $546 -110.57802238173396 $540 $692 forward 7 unknown #
vertex $-1 $381 $693 #
straight-curve $-1 54.272071363794197 -5.6713477197414139 5.2432428525721022 0 -1 0 I I #
coedge $-1 $539 $382 $385 $553 reversed $375 $-1 #
coedge $-1 $382 $539 $544 $690 forward $375 $-1 #
vertex $-1 $383 $694 #
straight-curve $-1 58.082827234717854 -8.1275869038427153 82.66983728363229 0 0 1 I I #
straight-curve $-1 -21.141957579482167 -8.1275869038427153 86.114889753064574 0.68199835119979291 0 -0.73135370988377701 I I #
edge $-1 $688 -14.55780397512294 $387 -8.1275869038427153 $548 $695 forward 7 unknown #
point $-1 58.082827234717854 -8.1275869038427153 5.2432428525721111 #
point $-1 54.272071363794197 -8.1275869038427153 5.2432428525721093 #
edge $-1 $696 1 $696 0 $390 $-1 forward 7 unknown #
vertex $-1 $391 $697 #
ellipse-curve $-1 55.434891037159304 -12.720599097614304 2.5075283592510345 0.73135370988377701 0 0.68199835119979291 0.34099917559989645 0 -0.36567685494188851 1 I I #
point $-1 56.51844847485593 -12.720599097614304 2.8342982692270788 #
edge $-1 $698 1 $698 0 $394 $-1 forward 7 unknown #
vertex $-1 $395 $699 #
ellipse-curve $-1 55.434891037159304 -9.9647917813513516 2.5075283592510345 0.73135370988377701 0 0.68199835119979291 0.34099917559989645 0 -0.36567685494188851 1 I I #
point $-1 56.51844847485593 -9.9647917813513516 2.8342982692270788 #
plane-surface $-1 0 0 5.2432428525721111 0 0 1 1 0 0 forward_v I I I I #
coedge $-1 $575 $574 $567 $700 forward $399 $-1 #
coedge $-1 $567 $401 $403 $571 reversed $255 $-1 #
coedge $-1 $401 $566 $565 $700 reversed $255 $-1 #
coedge $-1 $409 $404 $401 $569 forward $410 $-1 #
edge $-1 $572 22.363958974885897 $701 26.174714845809554 $568 $702 forward 7 unknown #
coedge $-1 $403 $402 $575 $703 reversed $160 $-1 #
edge $-1 $704 -116.16565446943572 $572 -110.57802238173396 $566 $705 forward 7 unknown #
vertex $-1 $405 $706 #
straight-curve $-1 54.272071363794197 0.013567389316943235 5.2432428525721022 0 -1 0 I I #
coedge $-1 $565 $406 $409 $579 reversed $399 $-1 #
coedge $-1 $406 $565 $570 $703 forward $399 $-1 #
vertex $-1 $407 $707 #
straight-curve $-1 58.082827234717854 3.242243314273999 82.66983728363229 0 0 1 I I #
straight-curve $-1 -21.141957579482167 3.242243314273999 86.114889753064574 0.68199835119979291 0 -0.73135370988377701 I I #
edge $-1 $701 -3.1879737570062261 $411 3.242243314273999 $574 $708 forward 7 unknown #
point $-1 58.082827234717854 3.242243314273999 5.2432428525721111 #
point $-1 54.272071363794197 3.242243314273999 5.2432428525721093 #
edge $-1 $709 1 $709 0 $414 $-1 forward 7 unknown #
vertex $-1 $415 $710 #
ellipse-curve $-1 55.434891037159304 -1.3507688794975898 2.5075283592510345 0.73135370988377701 0 0.68199835119979291 0.34099917559989645 0 -0.36567685494188851 1 I I #
point $-1 56.51844847485593 -1.3507688794975898 2.8342982692270788 #
edge $-1 $711 1 $711 0 $418 $-1 forward 7 unknown #
vertex $-1 $419 $712 #
ellipse-curve $-1 55.434891037159304 1.4050384367653628 2.5075283592510345 0.73135370988377701 0 0.68199835119979291 0.34099917559989645 0 -0.36567685494188851 1 I I #
point $-1 56.51844847485593 1.4050384367653628 2.8342982692270788 #
plane-surface $-1 0 0 5.2432428525721111 0 0 1 1 0 0 forward_v I I I I #
coedge $-1 $601 $600 $593 $713 forward $423 $-1 #
coedge $-1 $593 $425 $427 $597 reversed $277 $-1 #
coedge $-1 $425 $592 $591 $713 reversed $277 $-1 #
coedge $-1 $433 $428 $425 $595 forward $434 $-1 #
edge $-1 $598 22.363958974885897 $714 26.174714845809554 $594 $715 forward 7 unknown #
coedge $-1 $427 $426 $601 $716 reversed $174 $-1 #
edge $-1 $717 -116.16565446943572 $598 -110.57802238173396 $592 $718 forward 7 unknown #
vertex $-1 $429 $719 #
straight-curve $-1 54.272071363794197 5.6984824983752986 5.2432428525721022 0 -1 0 I I #
coedge $-1 $591 $430 $433 $605 reversed $423 $-1 #
coedge $-1 $430 $591 $596 $716 forward $423 $-1 #
vertex $-1 $431 $720 #
straight-curve $-1 58.082827234717854 14.61207353239071 82.66983728363229 0 0 1 I I #
straight-curve $-1 -21.141957579482167 14.61207353239071 86.114889753064574 0.68199835119979291 0 -0.73135370988377701 I I #
edge $-1 $714 8.1818564611104847 $435 14.61207353239071 $600 $721 forward 7 unknown #
point $-1 58.082827234717854 14.61207353239071 5.2432428525721111 #
point $-1 54.272071363794197 14.61207353239071 5.2432428525721093 #
edge $-1 $722 1 $722 0 $438 $-1 forward 7 unknown #
vertex $-1 $439 $723 #
ellipse-curve $-1 55.434891037159304 10.019061338619125 2.5075283592510345 0.73135370988377701 0 0.68199835119979291 0.34099917559989645 0 -0.36567685494188851 1 I I #
point $-1 56.51844847485593 10.019061338619125 2.8342982692270788 #
edge $-1 $724 1 $724 0 $442 $-1 forward 7 unknown #
vertex $-1 $443 $725 #
ellipse-curve $-1 55.434891037159304 12.774868654882077 2.5075283592510345 0.73135370988377701 0 0.68199835119979291 0.34099917559989645 0 -0.36567685494188851 1 I I #
point $-1 56.51844847485593 12.774868654882077 2.8342982692270788 #
loop $-1 $-1 $453 $446 #
plane-surface $-1 0 0 5.2432428525721111 0 0 1 1 0 0 forward_v I I I I #
coedge $-1 $726 $727 $450 $620 forward $447 $-1 #
coedge $-1 $450 $449 $625 $728 reversed $188 $-1 #
edge $-1 $622 -77.4660423156962 $729 -71.878410227994436 $618 $730 forward 7 unknown #
coedge $-1 $456 $451 $727 $731 reversed $299 $-1 #
vertex $-1 $620 $732 #
straight-curve $-1 58.082827234717854 11.383397607433658 1.1567073957657996 0 1 0 I I #
coedge $-1 $733 $453 $456 $629 forward $616 $-1 #
coedge $-1 $453 $733 $619 $728 forward $616 $-1 #
vertex $-1 $454 $734 #
straight-curve $-1 31.9081123889083 19.551686679227203 5.2432428525721093 1 0 0 I I #
straight-curve $-1 -21.141957579482167 19.551686679227203 86.114889753064574 -0.68199835119979291 0 0.73135370988377701 I I #
edge $-1 $457 19.551686679227203 $735 25.981903750507428 $456 $736 forward 7 unknown #
point $-1 58.082827234717854 19.551686679227203 5.2432428525721111 #
point $-1 58.082827234717854 19.551686679227203 1.1567073957657925 #
edge $-1 $737 1 $737 0 $460 $-1 forward 7 unknown #
vertex $-1 $461 $738 #
ellipse-curve $-1 55.434891037159304 21.388891556735842 2.5075283592510345 0.73135370988377701 0 0.68199835119979291 0.34099917559989645 0 -0.36567685494188851 1 I I #
point $-1 56.51844847485593 21.388891556735842 2.8342982692270788 #
edge $-1 $739 1 $739 0 $464 $-1 forward 7 unknown #
vertex $-1 $465 $740 #
ellipse-curve $-1 55.434891037159304 24.144698872998788 2.5075283592510345 0.73135370988377701 0 0.68199835119979291 0.34099917559989645 0 -0.36567685494188851 1 I I #
point $-1 56.51844847485593 24.144698872998788 2.8342982692270788 #
plane-surface $-1 58.082827234717854 0 0 -1 0 0 0 0 1 forward_v I I I I #
coedge $-1 $473 $471 $475 $645 reversed $321 $-1 #
edge $-1 $486 -5.2432428525721111 $647 5.2432428525721111 $485 $741 forward 7 unknown #
vertex $-1 $645 $742 #
straight-curve $-1 -58.082827234717854 -25.981903750507428 0 0 0 -1 I I #
edge $-1 $643 -25.981903750507428 $647 25.981903750507428 $641 $743 forward 7 unknown #
straight-curve $-1 0 -25.981903750507428 -5.2432428525721111 -1 0 0 I I #
vertex $-1 $478 $744 #
straight-curve $-1 0 25.981903750507428 -5.2432428525721111 1 0 0 I I #
point $-1 58.082827234717854 25.981903750507428 -5.2432428525721111 #
point $-1 58.082827234717854 -25.981903750507428 -5.2432428525721111 #
straight-curve $-1 -58.082827234717854 0 5.2432428525721111 0 -1 0 I I #
point $-1 -58.082827234717854 25.981903750507428 5.2432428525721111 #
point $-1 -58.082827234717854 -25.981903750507428 5.2432428525721111 #
straight-curve $-1 58.082827234717854 -25.981903750507428 0 0 0 -1 I I #
straight-curve $-1 58.082827234717854 25.981903750507428 0 0 0 -1 I I #
loop $-1 $-1 $664 $495 #
plane-surface $-1 -58.082827234717854 0 0 1 0 0 0 0 -1 forward_v I I I I #
coedge $-1 $499 $498 $670 $745 forward $210 $-1 #
edge $-1 $503 19.49741712195943 $673 25.981903750507428 $502 $746 forward 7 unknown #
coedge $-1 $667 $664 $499 $661 reversed $656 $-1 #
edge $-1 $747 -25.981903750507428 $662 -19.49741712195943 $660 $748 forward 7 unknown #
vertex $-1 $665 $749 #
straight-curve $-1 0 -19.49741712195943 -5.2432428525721111 1 0 0 I I #
coedge $-1 $660 $505 $501 $665 forward $656 $-1 #
edge $-1 $507 0.37162142628605555 $662 3.3716214262860555 $664 $750 forward 7 unknown #
point $-1 58.082827234717854 -19.49741712195943 -5.2432428525721111 #
coedge $-1 $505 $660 $509 $671 reversed $656 $-1 #
straight-curve $-1 -58.082827234717854 -11.369830218116714 -2.2432428525721111 0 1 0 I I #
point $-1 -58.082827234717854 -19.49741712195943 -2.2432428525721111 #
coedge $-1 $510 $509 $658 $745 reversed $496 $-1 #
edge $-1 $511 2.2432428525721111 $747 5.2432428525721111 $667 $751 forward 7 unknown #
point $-1 -58.082827234717854 -25.981903750507428 -2.2432428525721111 #
vertex $-1 $513 $752 #
straight-curve $-1 58.082827234717854 -25.981903750507428 0 0 0 -1 I I #
coedge $-1 $527 $526 $519 $676 forward $516 $-1 #
edge $-1 $677 45.602129208759763 $680 48.728027936317368 $675 $753 forward 7 unknown #
vertex $-1 $531 $754 #
straight-curve $-1 -58.956281539599843 -11.99464495733864 5.2432428525721093 -1 0 0 I I #
edge $-1 $680 4.1216294375141223 $528 11.624401602134913 $527 $755 forward 7 unknown #
vertex $-1 $679 $756 #
straight-curve $-1 -58.082827234717847 -11.99464495733864 2.1173441250145117 0.85716729658548041 0 0.51503808176128008 I I #
point $-1 -52.880458212726865 -11.99464495733864 5.2432428525721111 #
point $-1 -58.082827234717854 -19.49741712195943 2.1173441250145073 #
straight-curve $-1 -58.082827234717854 0 5.2432428525721111 0 -1 0 I I #
vertex $-1 $534 $757 #
point $-1 -51.371261481170563 -15.746031039649036 -0.24812355309754808 #
edge $-1 $688 77.426594431060181 $691 81.513129887866498 $539 $758 forward 7 unknown #
vertex $-1 $553 $759 #
straight-curve $-1 31.9081123889083 -14.55780397512294 5.2432428525721093 1 0 0 I I #
edge $-1 $691 -8.8864562553815265 $550 -2.4562391841013014 $549 $760 forward 7 unknown #
vertex $-1 $690 $761 #
straight-curve $-1 -21.141957579482167 -14.55780397512294 86.114889753064574 -0.68199835119979291 0 0.73135370988377701 I I #
point $-1 54.272071363794197 -14.55780397512294 5.2432428525721093 #
point $-1 58.082827234717854 -8.1275869038427153 1.1567073957657925 #
straight-curve $-1 58.082827234717854 0 5.2432428525721111 0 1 0 I I #
vertex $-1 $556 $762 #
point $-1 55.775890212759201 -12.720599097614304 2.1418515043091459 #
vertex $-1 $560 $763 #
point $-1 55.775890212759201 -9.9647917813513516 2.1418515043091459 #
edge $-1 $701 77.426594431060181 $704 81.513129887866498 $565 $764 forward 7 unknown #
vertex $-1 $579 $765 #
straight-curve $-1 31.9081123889083 -3.1879737570062261 5.2432428525721093 1 0 0 I I #
edge $-1 $704 -3.2015411463231693 $576 3.2286759249570558 $575 $766 forward 7 unknown #
vertex $-1 $703 $767 #
straight-curve $-1 -21.141957579482167 -3.1879737570062261 86.114889753064574 -0.68199835119979291 0 0.73135370988377701 I I #
point $-1 54.272071363794197 -3.1879737570062261 5.2432428525721093 #
point $-1 58.082827234717854 3.242243314273999 1.1567073957657925 #
straight-curve $-1 58.082827234717854 0 5.2432428525721111 0 1 0 I I #
vertex $-1 $582 $768 #
point $-1 55.775890212759201 -1.3507688794975898 2.1418515043091459 #
vertex $-1 $586 $769 #
point $-1 55.775890212759201 1.4050384367653628 2.1418515043091459 #
edge $-1 $714 77.426594431060181 $717 81.513129887866498 $591 $770 forward 7 unknown #
vertex $-1 $605 $771 #
straight-curve $-1 31.9081123889083 8.1818564611104847 5.2432428525721093 1 0 0 I I #
edge $-1 $717 2.4833739627351861 $602 8.9135910340154112 $601 $772 forward 7 unknown #
vertex $-1 $716 $773 #
straight-curve $-1 -21.141957579482167 8.1818564611104847 86.114889753064574 -0.68199835119979291 0 0.73135370988377701 I I #
point $-1 54.272071363794197 8.1818564611104847 5.2432428525721093 #
point $-1 58.082827234717854 14.61207353239071 1.1567073957657925 #
straight-curve $-1 58.082827234717854 0 5.2432428525721111 0 1 0 I I #
vertex $-1 $608 $774 #
point $-1 55.775890212759201 10.019061338619125 2.1418515043091459 #
vertex $-1 $612 $775 #
point $-1 55.775890212759201 12.774868654882077 2.1418515043091459 #
coedge $-1 $727 $618 $733 $776 reversed $447 $-1 #
coedge $-1 $618 $726 $621 $731 forward $447 $-1 #
edge $-1 $729 -14.59850614307377 $626 -8.168289071793545 $625 $777 forward 7 unknown #
vertex $-1 $620 $778 #
straight-curve $-1 5.2511141014396507 25.981903750507428 57.811784833363873 -0.68199835119979291 0 0.73135370988377701 I I #
edge $-1 $735 -5.2432428525721111 $622 -1.1567073957657892 $621 $779 forward 7 unknown #
point $-1 58.082827234717854 25.981903750507428 1.1567073957657892 #
coedge $-1 $625 $624 $726 $776 forward $616 $-1 #
point $-1 54.272071363794197 19.551686679227203 5.2432428525721093 #
vertex $-1 $629 $780 #
straight-curve $-1 58.082827234717854 0 5.2432428525721111 0 1 0 I I #
vertex $-1 $632 $781 #
point $-1 55.775890212759201 21.388891556735842 2.1418515043091459 #
vertex $-1 $636 $782 #
point $-1 55.775890212759201 24.144698872998788 2.1418515043091459 #
straight-curve $-1 -58.082827234717854 25.981903750507428 0 0 0 -1 I I #
point $-1 -58.082827234717854 -25.981903750507428 -5.2432428525721111 #
straight-curve $-1 -58.082827234717854 0 -5.2432428525721111 0 1 0 I I #
point $-1 -58.082827234717854 25.981903750507428 -5.2432428525721111 #
edge $-1 $673 -58.082827234717854 $747 58.082827234717854 $670 $783 forward 7 unknown #
straight-curve $-1 58.082827234717854 0 -5.2432428525721111 0 -1 0 I I #
vertex $-1 $661 $784 #
straight-curve $-1 -58.082827234717854 0 -5.2432428525721111 0 1 0 I I #
point $-1 -58.082827234717854 -19.49741712195943 -5.2432428525721111 #
straight-curve $-1 -58.082827234717854 -19.49741712195943 -1.8716214262860555 0 0 -1 I I #
straight-curve $-1 -58.082827234717854 -25.981903750507428 0 0 0 -1 I I #
point $-1 58.082827234717854 -25.981903750507428 -5.2432428525721111 #
straight-curve $-1 -58.082827234717854 -11.99464495733864 50.845372061331872 0 0 -1 I I #
point $-1 -58.082827234717854 -11.99464495733864 5.2432428525721111 #
straight-curve $-1 -58.082827234717854 -7.8730155198245173 2.1173441250145082 0 -1 0 I I #
point $-1 -58.082827234717854 -11.99464495733864 2.1173441250145073 #
point $-1 -51.884455303406867 -15.746031039649036 -2.3064316206176887 #
straight-curve $-1 58.082827234717854 -14.55780397512294 82.66983728363229 0 0 -1 I I #
point $-1 58.082827234717854 -14.55780397512294 5.2432428525721111 #
straight-curve $-1 58.082827234717854 -5.6713477197414139 1.1567073957657996 0 1 0 I I #
point $-1 58.082827234717854 -14.55780397512294 1.1567073957657925 #
point $-1 55.069214182217422 -12.720599097614304 2.166529183651138 #
point $-1 55.069214182217422 -9.9647917813513516 2.166529183651138 #
straight-curve $-1 58.082827234717854 -3.1879737570062261 82.66983728363229 0 0 -1 I I #
point $-1 58.082827234717854 -3.1879737570062261 5.2432428525721111 #
straight-curve $-1 58.082827234717854 0.013567389316943235 1.1567073957657996 0 1 0 I I #
point $-1 58.082827234717854 -3.1879737570062261 1.1567073957657925 #
point $-1 55.069214182217422 -1.3507688794975898 2.166529183651138 #
point $-1 55.069214182217422 1.4050384367653628 2.166529183651138 #
straight-curve $-1 58.082827234717854 8.1818564611104847 82.66983728363229 0 0 -1 I I #
point $-1 58.082827234717854 8.1818564611104847 5.2432428525721111 #
straight-curve $-1 58.082827234717854 5.6984824983752986 1.1567073957657996 0 1 0 I I #
point $-1 58.082827234717854 8.1818564611104847 1.1567073957657925 #
point $-1 55.069214182217422 10.019061338619125 2.166529183651138 #
point $-1 55.069214182217422 12.774868654882077 2.166529183651138 #
edge $-1 $735 -58.082827234717854 $729 -54.272071363794197 $726 $785 forward 7 unknown #
straight-curve $-1 54.272071363794197 11.383397607433658 5.2432428525721022 0 -1 0 I I #
point $-1 54.272071363794197 25.981903750507428 5.2432428525721093 #
straight-curve $-1 58.082827234717854 25.981903750507428 0 0 0 -1 I I #
point $-1 58.082827234717854 25.981903750507428 5.2432428525721111 #
point $-1 55.069214182217422 21.388891556735842 2.166529183651138 #
point $-1 55.069214182217422 24.144698872998788 2.166529183651138 #
straight-curve $-1 0 -25.981903750507428 -5.2432428525721111 -1 0 0 I I #
point $-1 -58.082827234717854 -25.981903750507428 -5.2432428525721111 #
straight-curve $-1 0 25.981903750507428 5.2432428525721111 -1 0 0 I I #
End-of-ACIS-data 