500 0 14 0           
7 Unknown 11 ACIS 5.0 NT 24 Thu Mar 25 18:35:37 1999 
-1 9.9999999999999995e-007 1e-010 
body $-1 $14 $-1 $15 #
body $-1 $16 $-1 $17 #
body $-1 $18 $-1 $19 #
body $-1 $20 $-1 $21 #
body $-1 $22 $-1 $23 #
body $-1 $24 $-1 $25 #
body $-1 $26 $-1 $27 #
body $-1 $28 $-1 $29 #
body $-1 $30 $-1 $31 #
body $-1 $32 $-1 $33 #
body $-1 $34 $-1 $35 #
body $-1 $36 $-1 $37 #
body $-1 $38 $-1 $39 #
body $-1 $40 $-1 $41 #
lump $-1 $-1 $42 $0 #
transform $-1 1 0 0 0 1 0 0 0 1 62.390820032349623 26.597450110961706 6.6972942709287651 1 rotate no_reflect no_shear #
lump $-1 $-1 $43 $1 #
transform $-1 1 0 0 0 1 0 0 0 1 62.390820032349623 26.597450110961706 6.6972942709287651 1 rotate no_reflect no_shear #
lump $-1 $-1 $44 $2 #
transform $-1 1 0 0 0 1 0 0 0 1 62.390820032349623 26.597450110961706 6.6972942709287651 1 rotate no_reflect no_shear #
lump $-1 $-1 $45 $3 #
transform $-1 1 0 0 0 1 0 0 0 1 62.390820032349623 26.597450110961706 6.6972942709287651 1 rotate no_reflect no_shear #
lump $-1 $-1 $46 $4 #
transform $-1 1 0 0 0 1 0 0 0 1 62.390820032349623 26.597450110961706 6.6972942709287651 1 rotate no_reflect no_shear #
lump $-1 $-1 $47 $5 #
transform $-1 1 0 0 0 1 0 0 0 1 62.390820032349623 26.597450110961706 6.6972942709287651 1 rotate no_reflect no_shear #
lump $-1 $-1 $48 $6 #
transform $-1 1 0 0 0 1 0 0 0 1 62.390820032349623 26.597450110961706 6.6972942709287651 1 rotate no_reflect no_shear #
lump $-1 $-1 $49 $7 #
transform $-1 1 0 0 0 1 0 0 0 1 62.390820032349623 26.597450110961706 6.6972942709287651 1 rotate no_reflect no_shear #
lump $-1 $-1 $50 $8 #
transform $-1 1 0 0 0 1 0 0 0 1 62.390820032349623 26.597450110961706 6.6972942709287651 1 rotate no_reflect no_shear #
lump $-1 $-1 $51 $9 #
transform $-1 1 0 0 0 1 0 0 0 1 62.390820032349623 26.597450110961706 6.6972942709287651 1 rotate no_reflect no_shear #
lump $-1 $-1 $52 $10 #
transform $-1 1 0 0 0 1 0 0 0 1 62.390820032349623 26.597450110961706 6.6972942709287651 1 rotate no_reflect no_shear #
lump $-1 $-1 $53 $11 #
transform $-1 1 0 0 0 1 0 0 0 1 62.390820032349623 26.597450110961706 6.6972942709287651 1 rotate no_reflect no_shear #
lump $-1 $-1 $54 $12 #
transform $-1 1 0 0 0 1 0 0 0 1 62.390820032349623 26.597450110961706 6.6972942709287651 1 rotate no_reflect no_shear #
lump $-1 $-1 $55 $13 #
transform $-1 1 0 0 0 1 0 0 0 1 62.390820032349623 26.597450110961706 6.6972942709287651 1 rotate no_reflect no_shear #
shell $-1 $-1 $-1 $56 $-1 $14 #
shell $-1 $-1 $-1 $57 $-1 $16 #
shell $-1 $-1 $-1 $58 $-1 $18 #
shell $-1 $-1 $-1 $59 $-1 $20 #
shell $-1 $-1 $-1 $60 $-1 $22 #
shell $-1 $-1 $-1 $61 $-1 $24 #
shell $-1 $-1 $-1 $62 $-1 $26 #
shell $-1 $-1 $-1 $63 $-1 $28 #
shell $-1 $-1 $-1 $64 $-1 $30 #
shell $-1 $-1 $-1 $65 $-1 $32 #
shell $-1 $-1 $-1 $66 $-1 $34 #
shell $-1 $-1 $-1 $67 $-1 $36 #
shell $-1 $-1 $-1 $68 $-1 $38 #
shell $-1 $-1 $-1 $69 $-1 $40 #
face $-1 $70 $71 $42 $-1 $72 forward single #
face $-1 $73 $74 $43 $-1 $75 forward single #
face $-1 $76 $77 $44 $-1 $78 reversed single #
face $-1 $79 $80 $45 $-1 $81 forward single #
face $-1 $82 $83 $46 $-1 $84 forward single #
face $-1 $85 $86 $47 $-1 $87 reversed single #
face $-1 $88 $89 $48 $-1 $90 forward single #
face $-1 $91 $92 $49 $-1 $93 forward single #
face $-1 $94 $95 $50 $-1 $96 reversed single #
face $-1 $97 $98 $51 $-1 $99 forward single #
face $-1 $100 $101 $52 $-1 $102 forward single #
face $-1 $103 $104 $53 $-1 $105 reversed single #
face $-1 $106 $107 $54 $-1 $108 forward single #
face $-1 $109 $110 $55 $-1 $111 forward single #
face $-1 $112 $113 $42 $-1 $114 reversed single #
loop $-1 $-1 $115 $56 #
plane-surface $-1 0 0 6.6972942709287651 0 0 1 1 0 0 forward_v I I I I #
face $-1 $116 $117 $43 $-1 $118 reversed single #
loop $-1 $-1 $119 $57 #
plane-surface $-1 0 -23.340936504306995 -3.6972942709287651 0 0 1 1 0 0 forward_v I I I I #
face $-1 $120 $121 $44 $-1 $122 reversed single #
loop $-1 $-1 $123 $58 #
plane-surface $-1 28.719161179856044 -8.4139546454987872 175.7697871497208 0 -1 0 -0.55919291073839883 0 -0.82903756765294845 forward_v I I I I #
face $-1 $124 $125 $45 $-1 $126 forward single #
loop $-1 $127 $128 $59 #
cone-surface $-1 59.03255012776345 -13.100482555797337 4.2061839857611201 -0.55919291073839883 0 -0.82903756765294845 0.41451878382647422 0 -0.27959645536919941 1 I I 0 1 0.5 forward I I I I #
face $-1 $129 $130 $46 $-1 $131 forward single #
loop $-1 $132 $133 $60 #
cone-surface $-1 59.03255012776345 -10.288565809618209 4.2061839857611201 -0.55919291073839883 0 -0.82903756765294845 0.41451878382647422 0 -0.27959645536919941 1 I I 0 1 0.5 forward I I I I #
face $-1 $134 $135 $47 $-1 $136 reversed single #
loop $-1 $-1 $137 $61 #
plane-surface $-1 28.719161179856044 1.5534038807428683 175.7697871497208 0 -1 0 -0.55919291073839883 0 -0.82903756765294845 forward_v I I I I #
face $-1 $138 $139 $48 $-1 $140 forward single #
loop $-1 $141 $142 $62 #
cone-surface $-1 59.03255012776345 -3.133124029555681 4.2061839857611201 -0.55919291073839883 0 -0.82903756765294845 0.41451878382647422 0 -0.27959645536919941 1 I I 0 1 0.5 forward I I I I #
face $-1 $143 $144 $49 $-1 $145 forward single #
loop $-1 $146 $147 $63 #
cone-surface $-1 59.03255012776345 -0.32120728337655535 4.2061839857611201 -0.55919291073839883 0 -0.82903756765294845 0.41451878382647422 0 -0.27959645536919941 1 I I 0 1 0.5 forward I I I I #
face $-1 $148 $149 $50 $-1 $150 reversed single #
loop $-1 $-1 $151 $64 #
plane-surface $-1 28.719161179856044 11.520762406984522 175.7697871497208 0 -1 0 -0.55919291073839883 0 -0.82903756765294845 forward_v I I I I #
face $-1 $152 $153 $51 $-1 $154 forward single #
loop $-1 $155 $156 $65 #
cone-surface $-1 59.03255012776345 6.8342344966859763 4.2061839857611201 -0.55919291073839883 0 -0.82903756765294845 0.41451878382647422 0 -0.27959645536919941 1 I I 0 1 0.5 forward I I I I #
face $-1 $157 $158 $52 $-1 $159 forward single #
loop $-1 $160 $161 $66 #
cone-surface $-1 59.03255012776345 9.6461512428650984 4.2061839857611201 -0.55919291073839883 0 -0.82903756765294845 0.41451878382647422 0 -0.27959645536919941 1 I I 0 1 0.5 forward I I I I #
face $-1 $162 $163 $53 $-1 $164 reversed single #
loop $-1 $-1 $165 $67 #
plane-surface $-1 28.719161179856044 21.488120933226178 175.7697871497208 0 -1 0 -0.55919291073839883 0 -0.82903756765294845 forward_v I I I I #
face $-1 $166 $167 $54 $-1 $168 forward single #
loop $-1 $169 $170 $68 #
cone-surface $-1 59.03255012776345 16.80159302292763 4.2061839857611201 -0.55919291073839883 0 -0.82903756765294845 0.41451878382647422 0 -0.27959645536919941 1 I I 0 1 0.5 forward I I I I #
face $-1 $171 $172 $55 $-1 $173 forward single #
loop $-1 $174 $175 $69 #
cone-surface $-1 59.03255012776345 19.613509769106752 4.2061839857611201 -0.55919291073839883 0 -0.82903756765294845 0.41451878382647422 0 -0.27959645536919941 1 I I 0 1 0.5 forward I I I I #
face $-1 $176 $177 $42 $-1 $178 reversed single #
loop $-1 $-1 $179 $70 #
plane-surface $-1 0 0 -6.6972942709287651 0 0 1 1 0 0 forward_v I I I I #
coedge $-1 $180 $181 $182 $183 forward $71 $-1 #
face $-1 $184 $185 $43 $-1 $186 reversed single #
loop $-1 $-1 $187 $73 #
plane-surface $-1 0 -20.084422897652285 -5.1972942709287651 0 -1 0 0 0 -1 forward_v I I I I #
coedge $-1 $188 $189 $190 $191 reversed $74 $-1 #
face $-1 $192 $193 $44 $-1 $194 reversed single #
loop $-1 $-1 $195 $76 #
plane-surface $-1 -41.057847334634346 -11.694524182707772 72.32111978273683 0.55919291073839883 0 0.82903756765294845 0.82903756765294845 0 -0.55919291073839883 forward_v I I I I #
coedge $-1 $196 $197 $198 $199 reversed $77 $-1 #
face $-1 $-1 $200 $45 $-1 $201 forward single #
loop $-1 $202 $203 $79 #
cone-surface $-1 58.613155444709648 -13.100482555797337 3.5844058100214085 -0.55919291073839883 0 -0.82903756765294845 0.20725939191323711 0 -0.13979822768459971 1 I I -0.70710678118654746 0.70710678118654746 0.25 forward I I I I #
loop $-1 $-1 $204 $59 #
coedge $-1 $128 $128 $205 $206 reversed $80 $-1 #
face $-1 $-1 $207 $46 $-1 $208 forward single #
loop $-1 $209 $210 $82 #
cone-surface $-1 58.613155444709648 -10.288565809618209 3.5844058100214085 -0.55919291073839883 0 -0.82903756765294845 0.20725939191323711 0 -0.13979822768459971 1 I I -0.70710678118654746 0.70710678118654746 0.25 forward I I I I #
loop $-1 $-1 $211 $60 #
coedge $-1 $133 $133 $212 $213 reversed $83 $-1 #
face $-1 $214 $215 $47 $-1 $216 reversed single #
loop $-1 $-1 $217 $85 #
plane-surface $-1 -41.057847334634346 -1.7271656564661164 72.32111978273683 0.55919291073839883 0 0.82903756765294845 0.82903756765294845 0 -0.55919291073839883 forward_v I I I I #
coedge $-1 $218 $219 $220 $221 reversed $86 $-1 #
face $-1 $-1 $222 $48 $-1 $223 forward single #
loop $-1 $224 $225 $88 #
cone-surface $-1 58.613155444709648 -3.133124029555681 3.5844058100214085 -0.55919291073839883 0 -0.82903756765294845 0.20725939191323711 0 -0.13979822768459971 1 I I -0.70710678118654746 0.70710678118654746 0.25 forward I I I I #
loop $-1 $-1 $226 $62 #
coedge $-1 $142 $142 $227 $228 reversed $89 $-1 #
face $-1 $-1 $229 $49 $-1 $230 forward single #
loop $-1 $231 $232 $91 #
cone-surface $-1 58.613155444709648 -0.32120728337655535 3.5844058100214085 -0.55919291073839883 0 -0.82903756765294845 0.20725939191323711 0 -0.13979822768459971 1 I I -0.70710678118654746 0.70710678118654746 0.25 forward I I I I #
loop $-1 $-1 $233 $63 #
coedge $-1 $147 $147 $234 $235 reversed $92 $-1 #
face $-1 $236 $237 $50 $-1 $238 reversed single #
loop $-1 $-1 $239 $94 #
plane-surface $-1 -41.057847334634346 8.2401928697755373 72.32111978273683 0.55919291073839883 0 0.82903756765294845 0.82903756765294845 0 -0.55919291073839883 forward_v I I I I #
coedge $-1 $240 $241 $242 $243 reversed $95 $-1 #
face $-1 $-1 $244 $51 $-1 $245 forward single #
loop $-1 $246 $247 $97 #
cone-surface $-1 58.613155444709648 6.8342344966859763 3.5844058100214085 -0.55919291073839883 0 -0.82903756765294845 0.20725939191323711 0 -0.13979822768459971 1 I I -0.70710678118654746 0.70710678118654746 0.25 forward I I I I #
loop $-1 $-1 $248 $65 #
coedge $-1 $156 $156 $249 $250 reversed $98 $-1 #
face $-1 $-1 $251 $52 $-1 $252 forward single #
loop $-1 $253 $254 $100 #
cone-surface $-1 58.613155444709648 9.6461512428650984 3.5844058100214085 -0.55919291073839883 0 -0.82903756765294845 0.20725939191323711 0 -0.13979822768459971 1 I I -0.70710678118654746 0.70710678118654746 0.25 forward I I I I #
loop $-1 $-1 $255 $66 #
coedge $-1 $161 $161 $256 $257 reversed $101 $-1 #
face $-1 $258 $259 $53 $-1 $260 reversed single #
loop $-1 $-1 $261 $103 #
plane-surface $-1 -41.057847334634346 18.207551396017191 72.32111978273683 0.55919291073839883 0 0.82903756765294845 0.82903756765294845 0 -0.55919291073839883 forward_v I I I I #
coedge $-1 $262 $263 $264 $265 reversed $104 $-1 #
face $-1 $-1 $266 $54 $-1 $267 forward single #
loop $-1 $268 $269 $106 #
cone-surface $-1 58.613155444709648 16.80159302292763 3.5844058100214085 -0.55919291073839883 0 -0.82903756765294845 0.20725939191323711 0 -0.13979822768459971 1 I I -0.70710678118654746 0.70710678118654746 0.25 forward I I I I #
loop $-1 $-1 $270 $68 #
coedge $-1 $170 $170 $271 $272 reversed $107 $-1 #
face $-1 $-1 $273 $55 $-1 $274 forward single #
loop $-1 $275 $276 $109 #
cone-surface $-1 58.613155444709648 19.613509769106752 3.5844058100214085 -0.55919291073839883 0 -0.82903756765294845 0.20725939191323711 0 -0.13979822768459971 1 I I -0.70710678118654746 0.70710678118654746 0.25 forward I I I I #
loop $-1 $-1 $277 $69 #
coedge $-1 $175 $175 $278 $279 reversed $110 $-1 #
face $-1 $280 $281 $42 $-1 $282 reversed single #
loop $-1 $-1 $283 $112 #
plane-surface $-1 0 -26.597450110961706 0 0 1 0 0 0 1 forward_v I I I I #
coedge $-1 $284 $285 $286 $287 forward $113 $-1 #
coedge $-1 $288 $115 $289 $290 forward $71 $-1 #
coedge $-1 $115 $288 $291 $292 forward $71 $-1 #
coedge $-1 $293 $294 $115 $183 reversed $295 $-1 #
edge $-1 $296 -26.597450110961706 $297 26.597450110961706 $182 $298 forward 7 unknown #
face $-1 $299 $300 $43 $-1 $301 reversed single #
loop $-1 $-1 $302 $116 #
plane-surface $-1 0 0 -6.6972942709287651 0 0 1 1 0 0 forward_v I I I I #
coedge $-1 $303 $304 $305 $306 reversed $117 $-1 #
coedge $-1 $307 $119 $304 $308 forward $74 $-1 #
coedge $-1 $119 $307 $309 $310 reversed $74 $-1 #
coedge $-1 $311 $305 $119 $191 forward $300 $-1 #
edge $-1 $312 8.4139546454987872 $313 14.926981858808208 $190 $314 forward 7 unknown #
face $-1 $315 $316 $44 $-1 $317 reversed single #
loop $-1 $-1 $318 $120 #
plane-surface $-1 28.719161179856044 -14.975093719916757 175.7697871497208 0 1 0 0.55919291073839883 0 0.82903756765294845 forward_v I I I I #
coedge $-1 $319 $320 $321 $322 reversed $121 $-1 #
coedge $-1 $197 $123 $323 $324 reversed $77 $-1 #
coedge $-1 $123 $196 $319 $325 reversed $77 $-1 #
coedge $-1 $321 $326 $123 $199 forward $327 $-1 #
edge $-1 $328 -48.031239442421601 $329 -41.873892543987687 $198 $330 forward 7 unknown #
loop $-1 $-1 $205 $124 #
plane-surface $-1 -41.057847334634346 -11.694524182707772 72.32111978273683 0.55919291073839883 0 0.82903756765294845 0.82903756765294845 0 -0.55919291073839883 forward_v I I I I #
loop $-1 $-1 $331 $79 #
coedge $-1 $203 $203 $204 $332 reversed $125 $-1 #
coedge $-1 $204 $204 $203 $332 forward $127 $-1 #
coedge $-1 $205 $205 $128 $206 forward $200 $-1 #
edge $-1 $333 0 $333 6.2831853071796004 $205 $334 forward 7 unknown #
loop $-1 $-1 $212 $129 #
plane-surface $-1 -41.057847334634346 -11.694524182707772 72.32111978273683 0.55919291073839883 0 0.82903756765294845 0.82903756765294845 0 -0.55919291073839883 forward_v I I I I #
loop $-1 $-1 $335 $82 #
coedge $-1 $210 $210 $211 $336 reversed $130 $-1 #
coedge $-1 $211 $211 $210 $336 forward $132 $-1 #
coedge $-1 $212 $212 $133 $213 forward $207 $-1 #
edge $-1 $337 0 $337 6.2831853071796004 $212 $338 forward 7 unknown #
face $-1 $339 $340 $47 $-1 $341 reversed single #
loop $-1 $-1 $342 $134 #
plane-surface $-1 28.719161179856044 -5.0077351936751011 175.7697871497208 0 1 0 0.55919291073839883 0 0.82903756765294845 forward_v I I I I #
coedge $-1 $343 $344 $345 $346 reversed $135 $-1 #
coedge $-1 $219 $137 $347 $348 reversed $86 $-1 #
coedge $-1 $137 $218 $343 $349 reversed $86 $-1 #
coedge $-1 $345 $350 $137 $221 forward $351 $-1 #
edge $-1 $352 -48.031239442421601 $353 -41.873892543987687 $220 $354 forward 7 unknown #
loop $-1 $-1 $227 $138 #
plane-surface $-1 -41.057847334634346 -1.7271656564661164 72.32111978273683 0.55919291073839883 0 0.82903756765294845 0.82903756765294845 0 -0.55919291073839883 forward_v I I I I #
loop $-1 $-1 $355 $88 #
coedge $-1 $225 $225 $226 $356 reversed $139 $-1 #
coedge $-1 $226 $226 $225 $356 forward $141 $-1 #
coedge $-1 $227 $227 $142 $228 forward $222 $-1 #
edge $-1 $357 0 $357 6.2831853071796004 $227 $358 forward 7 unknown #
loop $-1 $-1 $234 $143 #
plane-surface $-1 -41.057847334634346 -1.7271656564661164 72.32111978273683 0.55919291073839883 0 0.82903756765294845 0.82903756765294845 0 -0.55919291073839883 forward_v I I I I #
loop $-1 $-1 $359 $91 #
coedge $-1 $232 $232 $233 $360 reversed $144 $-1 #
coedge $-1 $233 $233 $232 $360 forward $146 $-1 #
coedge $-1 $234 $234 $147 $235 forward $229 $-1 #
edge $-1 $361 0 $361 6.2831853071796004 $234 $362 forward 7 unknown #
face $-1 $363 $364 $50 $-1 $365 reversed single #
loop $-1 $-1 $366 $148 #
plane-surface $-1 28.719161179856044 4.9596233325665526 175.7697871497208 0 1 0 0.55919291073839883 0 0.82903756765294845 forward_v I I I I #
coedge $-1 $367 $368 $369 $370 reversed $149 $-1 #
coedge $-1 $241 $151 $371 $372 reversed $95 $-1 #
coedge $-1 $151 $240 $367 $373 reversed $95 $-1 #
coedge $-1 $369 $374 $151 $243 forward $375 $-1 #
edge $-1 $376 -48.031239442421601 $377 -41.873892543987687 $242 $378 forward 7 unknown #
loop $-1 $-1 $249 $152 #
plane-surface $-1 -41.057847334634346 8.2401928697755373 72.32111978273683 0.55919291073839883 0 0.82903756765294845 0.82903756765294845 0 -0.55919291073839883 forward_v I I I I #
loop $-1 $-1 $379 $97 #
coedge $-1 $247 $247 $248 $380 reversed $153 $-1 #
coedge $-1 $248 $248 $247 $380 forward $155 $-1 #
coedge $-1 $249 $249 $156 $250 forward $244 $-1 #
edge $-1 $381 0 $381 6.2831853071796004 $249 $382 forward 7 unknown #
loop $-1 $-1 $256 $157 #
plane-surface $-1 -41.057847334634346 8.2401928697755373 72.32111978273683 0.55919291073839883 0 0.82903756765294845 0.82903756765294845 0 -0.55919291073839883 forward_v I I I I #
loop $-1 $-1 $383 $100 #
coedge $-1 $254 $254 $255 $384 reversed $158 $-1 #
coedge $-1 $255 $255 $254 $384 forward $160 $-1 #
coedge $-1 $256 $256 $161 $257 forward $251 $-1 #
edge $-1 $385 0 $385 6.2831853071796004 $256 $386 forward 7 unknown #
face $-1 $387 $388 $53 $-1 $389 reversed single #
loop $-1 $-1 $390 $162 #
plane-surface $-1 28.719161179856044 14.926981858808206 175.7697871497208 0 1 0 0.55919291073839883 0 0.82903756765294845 forward_v I I I I #
coedge $-1 $391 $392 $393 $394 reversed $163 $-1 #
coedge $-1 $263 $165 $395 $396 reversed $104 $-1 #
coedge $-1 $165 $262 $391 $397 reversed $104 $-1 #
coedge $-1 $393 $398 $165 $265 forward $399 $-1 #
edge $-1 $400 -48.031239442421601 $401 -41.873892543987687 $264 $402 forward 7 unknown #
loop $-1 $-1 $271 $166 #
plane-surface $-1 -41.057847334634346 18.207551396017191 72.32111978273683 0.55919291073839883 0 0.82903756765294845 0.82903756765294845 0 -0.55919291073839883 forward_v I I I I #
loop $-1 $-1 $403 $106 #
coedge $-1 $269 $269 $270 $404 reversed $167 $-1 #
coedge $-1 $270 $270 $269 $404 forward $169 $-1 #
coedge $-1 $271 $271 $170 $272 forward $266 $-1 #
edge $-1 $405 0 $405 6.2831853071796004 $271 $406 forward 7 unknown #
loop $-1 $-1 $278 $171 #
plane-surface $-1 -41.057847334634346 18.207551396017191 72.32111978273683 0.55919291073839883 0 0.82903756765294845 0.82903756765294845 0 -0.55919291073839883 forward_v I I I I #
loop $-1 $-1 $407 $109 #
coedge $-1 $276 $276 $277 $408 reversed $172 $-1 #
coedge $-1 $277 $277 $276 $408 forward $174 $-1 #
coedge $-1 $278 $278 $175 $279 forward $273 $-1 #
edge $-1 $409 0 $409 6.2831853071796004 $278 $410 forward 7 unknown #
face $-1 $411 $412 $42 $-1 $413 reversed single #
loop $-1 $-1 $414 $176 #
plane-surface $-1 -62.390820032349623 0 0 1 0 0 0 0 -1 forward_v I I I I #
coedge $-1 $415 $291 $416 $417 forward $177 $-1 #
coedge $-1 $418 $179 $415 $419 forward $113 $-1 #
coedge $-1 $179 $418 $420 $421 forward $113 $-1 #
coedge $-1 $294 $293 $179 $287 reversed $295 $-1 #
edge $-1 $422 -26.597450110961706 $423 26.597450110961706 $286 $424 forward 7 unknown #
coedge $-1 $181 $180 $425 $426 forward $71 $-1 #
coedge $-1 $427 $428 $180 $290 reversed $412 $-1 #
edge $-1 $297 -62.390820032349623 $429 62.390820032349623 $289 $430 forward 7 unknown #
coedge $-1 $283 $431 $181 $292 reversed $177 $-1 #
edge $-1 $432 -62.390820032349623 $296 62.390820032349623 $291 $433 forward 7 unknown #
coedge $-1 $286 $182 $431 $434 forward $295 $-1 #
coedge $-1 $182 $286 $427 $435 reversed $295 $-1 #
loop $-1 $-1 $293 $411 #
vertex $-1 $183 $436 #
vertex $-1 $183 $437 #
straight-curve $-1 62.390820032349623 0 6.6972942709287651 0 1 0 I I #
face $-1 $438 $439 $43 $-1 $440 reversed single #
loop $-1 $-1 $305 $184 #
plane-surface $-1 62.390820032349623 0 0 -1 0 0 0 0 1 forward_v I I I I #
coedge $-1 $441 $442 $303 $443 forward $185 $-1 #
coedge $-1 $444 $187 $302 $443 reversed $117 $-1 #
coedge $-1 $187 $444 $188 $308 reversed $117 $-1 #
coedge $-1 $190 $445 $187 $306 forward $300 $-1 #
edge $-1 $446 -4.0986471354643825 $312 -1.0986471354643825 $305 $447 forward 7 unknown #
coedge $-1 $189 $188 $448 $449 reversed $74 $-1 #
edge $-1 $312 -62.390820032349623 $450 62.390820032349623 $304 $451 forward 7 unknown #
coedge $-1 $452 $453 $189 $310 forward $439 $-1 #
edge $-1 $313 -62.390820032349623 $454 62.390820032349623 $309 $455 forward 7 unknown #
coedge $-1 $445 $190 $453 $456 forward $300 $-1 #
vertex $-1 $191 $457 #
vertex $-1 $456 $458 #
straight-curve $-1 62.390820032349623 -11.670468252153498 -3.6972942709287651 0 -1 0 I I #
face $-1 $-1 $327 $44 $-1 $459 forward single #
loop $-1 $-1 $460 $192 #
plane-surface $-1 62.390820032349623 0 0 -1 0 0 0 0 1 forward_v I I I I #
coedge $-1 $461 $462 $463 $464 reversed $193 $-1 #
coedge $-1 $465 $195 $197 $325 forward $121 $-1 #
coedge $-1 $195 $465 $461 $466 forward $121 $-1 #
coedge $-1 $463 $198 $195 $322 forward $327 $-1 #
edge $-1 $329 2.5666925541449013 $467 9.1278316285628698 $321 $468 forward 7 unknown #
coedge $-1 $469 $470 $196 $324 forward $316 $-1 #
edge $-1 $471 -85.340782306613946 $328 -81.187599303931634 $323 $472 forward 7 unknown #
edge $-1 $329 117.35453767672701 $471 124.78164006469925 $197 $473 forward 7 unknown #
coedge $-1 $198 $463 $469 $474 forward $327 $-1 #
loop $-1 $-1 $463 $315 #
vertex $-1 $324 $475 #
vertex $-1 $199 $476 #
straight-curve $-1 14.359580589928022 -8.4139546454987872 6.6972942709287651 -1 0 0 I I #
coedge $-1 $331 $331 $-1 $477 reversed $202 $-1 #
edge $-1 $478 0 $478 6.2831853071796004 $203 $479 forward 7 unknown #
vertex $-1 $206 $480 #
ellipse-curve $-1 59.312146583132666 -13.100482555797337 4.6207027695876182 0.55919291073839883 0 0.82903756765294845 0.41451878382647422 0 -0.27959645536919941 1 I I #
coedge $-1 $335 $335 $-1 $481 reversed $209 $-1 #
edge $-1 $482 0 $482 6.2831853071796004 $210 $483 forward 7 unknown #
vertex $-1 $213 $484 #
ellipse-curve $-1 59.312146583132666 -10.288565809618209 4.6207027695876182 0.55919291073839883 0 0.82903756765294845 0.41451878382647422 0 -0.27959645536919941 1 I I #
face $-1 $-1 $351 $47 $-1 $485 forward single #
loop $-1 $-1 $486 $214 #
plane-surface $-1 62.390820032349623 0 0 -1 0 0 0 0 1 forward_v I I I I #
coedge $-1 $487 $488 $489 $490 reversed $215 $-1 #
coedge $-1 $491 $217 $219 $349 forward $135 $-1 #
coedge $-1 $217 $491 $487 $492 forward $135 $-1 #
coedge $-1 $489 $220 $217 $346 forward $351 $-1 #
edge $-1 $353 -2.4169867089759265 $493 4.1441523654420429 $345 $494 forward 7 unknown #
coedge $-1 $495 $496 $218 $348 forward $340 $-1 #
edge $-1 $497 -85.340782306613946 $352 -81.187599303931634 $347 $498 forward 7 unknown #
edge $-1 $353 117.35453767672701 $497 124.78164006469925 $219 $499 forward 7 unknown #
coedge $-1 $220 $489 $495 $500 forward $351 $-1 #
loop $-1 $-1 $489 $339 #
vertex $-1 $348 $501 #
vertex $-1 $221 $502 #
straight-curve $-1 14.359580589928022 1.5534038807428683 6.6972942709287651 -1 0 0 I I #
coedge $-1 $355 $355 $-1 $503 reversed $224 $-1 #
edge $-1 $504 0 $504 6.2831853071796004 $225 $505 forward 7 unknown #
vertex $-1 $228 $506 #
ellipse-curve $-1 59.312146583132666 -3.133124029555681 4.6207027695876182 0.55919291073839883 0 0.82903756765294845 0.41451878382647422 0 -0.27959645536919941 1 I I #
coedge $-1 $359 $359 $-1 $507 reversed $231 $-1 #
edge $-1 $508 0 $508 6.2831853071796004 $232 $509 forward 7 unknown #
vertex $-1 $235 $510 #
ellipse-curve $-1 59.312146583132666 -0.32120728337655535 4.6207027695876182 0.55919291073839883 0 0.82903756765294845 0.41451878382647422 0 -0.27959645536919941 1 I I #
face $-1 $-1 $375 $50 $-1 $511 forward single #
loop $-1 $-1 $512 $236 #
plane-surface $-1 62.390820032349623 0 0 -1 0 0 0 0 1 forward_v I I I I #
coedge $-1 $513 $514 $515 $516 reversed $237 $-1 #
coedge $-1 $517 $239 $241 $373 forward $149 $-1 #
coedge $-1 $239 $517 $513 $518 forward $149 $-1 #
coedge $-1 $515 $242 $239 $370 forward $375 $-1 #
edge $-1 $377 -7.4006659720967534 $519 -0.83952689767878397 $369 $520 forward 7 unknown #
coedge $-1 $521 $522 $240 $372 forward $364 $-1 #
edge $-1 $523 -85.340782306613946 $376 -81.187599303931634 $371 $524 forward 7 unknown #
edge $-1 $377 117.35453767672701 $523 124.78164006469925 $241 $525 forward 7 unknown #
coedge $-1 $242 $515 $521 $526 forward $375 $-1 #
loop $-1 $-1 $515 $363 #
vertex $-1 $372 $527 #
vertex $-1 $243 $528 #
straight-curve $-1 14.359580589928022 11.520762406984522 6.6972942709287651 -1 0 0 I I #
coedge $-1 $379 $379 $-1 $529 reversed $246 $-1 #
edge $-1 $530 0 $530 6.2831853071796004 $247 $531 forward 7 unknown #
vertex $-1 $250 $532 #
ellipse-curve $-1 59.312146583132666 6.8342344966859763 4.6207027695876182 0.55919291073839883 0 0.82903756765294845 0.41451878382647422 0 -0.27959645536919941 1 I I #
coedge $-1 $383 $383 $-1 $533 reversed $253 $-1 #
edge $-1 $534 0 $534 6.2831853071796004 $254 $535 forward 7 unknown #
vertex $-1 $257 $536 #
ellipse-curve $-1 59.312146583132666 9.6461512428650984 4.6207027695876182 0.55919291073839883 0 0.82903756765294845 0.41451878382647422 0 -0.27959645536919941 1 I I #
face $-1 $-1 $399 $53 $-1 $537 forward single #
loop $-1 $-1 $538 $258 #
plane-surface $-1 62.390820032349623 0 0 -1 0 0 0 0 1 forward_v I I I I #
coedge $-1 $539 $540 $541 $542 reversed $259 $-1 #
coedge $-1 $543 $261 $263 $397 forward $163 $-1 #
coedge $-1 $261 $543 $539 $544 forward $163 $-1 #
coedge $-1 $541 $264 $261 $394 forward $399 $-1 #
edge $-1 $401 -12.384345235217582 $545 -5.8232061607996108 $393 $546 forward 7 unknown #
coedge $-1 $547 $548 $262 $396 forward $388 $-1 #
edge $-1 $549 -85.340782306613946 $400 -81.187599303931634 $395 $550 forward 7 unknown #
edge $-1 $401 117.35453767672701 $549 124.78164006469925 $263 $551 forward 7 unknown #
coedge $-1 $264 $541 $547 $552 forward $399 $-1 #
loop $-1 $-1 $541 $387 #
vertex $-1 $396 $553 #
vertex $-1 $265 $554 #
straight-curve $-1 14.359580589928022 21.488120933226178 6.6972942709287651 -1 0 0 I I #
coedge $-1 $403 $403 $-1 $555 reversed $268 $-1 #
edge $-1 $556 0 $556 6.2831853071796004 $269 $557 forward 7 unknown #
vertex $-1 $272 $558 #
ellipse-curve $-1 59.312146583132666 16.80159302292763 4.6207027695876182 0.55919291073839883 0 0.82903756765294845 0.41451878382647422 0 -0.27959645536919941 1 I I #
coedge $-1 $407 $407 $-1 $559 reversed $275 $-1 #
edge $-1 $560 0 $560 6.2831853071796004 $276 $561 forward 7 unknown #
vertex $-1 $279 $562 #
ellipse-curve $-1 59.312146583132666 19.613509769106752 4.6207027695876182 0.55919291073839883 0 0.82903756765294845 0.41451878382647422 0 -0.27959645536919941 1 I I #
face $-1 $-1 $295 $42 $-1 $563 reversed single #
loop $-1 $-1 $427 $280 #
plane-surface $-1 0 26.597450110961706 0 0 -1 0 0 0 -1 forward_v I I I I #
coedge $-1 $564 $425 $428 $565 forward $281 $-1 #
coedge $-1 $431 $283 $284 $419 reversed $177 $-1 #
coedge $-1 $425 $564 $283 $417 reversed $281 $-1 #
edge $-1 $432 -6.6972942709287651 $566 6.6972942709287651 $416 $567 forward 7 unknown #
coedge $-1 $285 $284 $564 $568 forward $113 $-1 #
edge $-1 $423 -62.390820032349623 $566 62.390820032349623 $415 $569 forward 7 unknown #
coedge $-1 $428 $427 $285 $421 reversed $412 $-1 #
edge $-1 $570 -62.390820032349623 $422 62.390820032349623 $420 $571 forward 7 unknown #
vertex $-1 $287 $572 #
vertex $-1 $434 $573 #
straight-curve $-1 62.390820032349623 0 -6.6972942709287651 0 -1 0 I I #
coedge $-1 $414 $416 $288 $426 reversed $281 $-1 #
edge $-1 $429 -26.597450110961706 $432 26.597450110961706 $425 $574 forward 7 unknown #
coedge $-1 $420 $289 $294 $435 forward $412 $-1 #
coedge $-1 $289 $420 $414 $565 reversed $412 $-1 #
vertex $-1 $290 $575 #
straight-curve $-1 0 26.597450110961706 6.6972942709287651 -1 0 0 I I #
coedge $-1 $291 $415 $293 $434 reversed $177 $-1 #
vertex $-1 $426 $576 #
straight-curve $-1 0 -26.597450110961706 6.6972942709287651 1 0 0 I I #
edge $-1 $296 -6.6972942709287651 $423 6.6972942709287651 $293 $577 forward 7 unknown #
edge $-1 $297 -6.6972942709287651 $422 6.6972942709287651 $294 $578 forward 7 unknown #
point $-1 62.390820032349623 -26.597450110961706 6.6972942709287651 #
point $-1 62.390820032349623 26.597450110961706 6.6972942709287651 #
face $-1 $-1 $579 $43 $-1 $580 reversed single #
loop $-1 $-1 $309 $299 #
plane-surface $-1 0 -26.597450110961706 0 0 1 0 0 0 1 forward_v I I I I #
coedge $-1 $581 $302 $445 $582 forward $185 $-1 #
coedge $-1 $302 $581 $583 $584 forward $185 $-1 #
edge $-1 $585 -62.390820032349623 $446 62.390820032349623 $302 $586 forward 7 unknown #
coedge $-1 $304 $303 $587 $588 reversed $117 $-1 #
coedge $-1 $305 $311 $441 $582 reversed $300 $-1 #
vertex $-1 $582 $589 #
straight-curve $-1 62.390820032349623 -20.084422897652285 -2.5986471354643825 0 0 1 I I #
coedge $-1 $587 $590 $307 $449 forward $579 $-1 #
edge $-1 $454 -14.926981858808208 $450 -8.4139546454987872 $448 $591 forward 7 unknown #
vertex $-1 $449 $592 #
straight-curve $-1 0 -20.084422897652285 -3.6972942709287651 -1 0 0 I I #
coedge $-1 $593 $309 $590 $594 forward $439 $-1 #
coedge $-1 $309 $593 $311 $456 reversed $439 $-1 #
vertex $-1 $594 $595 #
straight-curve $-1 0 -26.597450110961706 -3.6972942709287651 -1 0 0 I I #
edge $-1 $313 3.6972942709287651 $596 6.6972942709287651 $311 $597 forward 7 unknown #
point $-1 62.390820032349623 -20.084422897652285 -3.6972942709287651 #
point $-1 62.390820032349623 -26.597450110961706 -3.6972942709287651 #
plane-surface $-1 0 0 6.6972942709287651 0 0 1 1 0 0 forward_v I I I I #
coedge $-1 $470 $469 $462 $598 forward $316 $-1 #
coedge $-1 $462 $318 $320 $466 reversed $193 $-1 #
coedge $-1 $318 $461 $460 $598 reversed $193 $-1 #
coedge $-1 $326 $321 $318 $464 forward $327 $-1 #
edge $-1 $467 41.873892543987687 $599 48.031239442421601 $463 $600 forward 7 unknown #
coedge $-1 $320 $319 $470 $601 reversed $121 $-1 #
edge $-1 $602 -124.78164006469925 $467 -117.35453767672701 $461 $603 forward 7 unknown #
vertex $-1 $322 $604 #
straight-curve $-1 56.233473133915709 -5.847262091353886 6.697294270928758 0 -1 0 I I #
coedge $-1 $460 $323 $326 $474 reversed $316 $-1 #
coedge $-1 $323 $460 $465 $601 forward $316 $-1 #
vertex $-1 $324 $605 #
straight-curve $-1 62.390820032349623 -8.4139546454987872 87.884893574860399 0 0 1 I I #
straight-curve $-1 -41.057847334634346 -8.4139546454987872 72.32111978273683 0.82903756765294845 0 -0.55919291073839883 I I #
edge $-1 $599 -14.975093719916757 $328 -8.4139546454987872 $469 $606 forward 7 unknown #
point $-1 62.390820032349623 -8.4139546454987872 6.6972942709287651 #
point $-1 56.233473133915709 -8.4139546454987872 6.6972942709287651 #
edge $-1 $607 1 $607 0 $331 $-1 forward 7 unknown #
vertex $-1 $332 $608 #
ellipse-curve $-1 58.752953672394248 -13.100482555797337 3.7916652019346455 0.55919291073839883 0 0.82903756765294845 0.41451878382647422 0 -0.27959645536919941 1 I I #
point $-1 59.726665366959118 -13.100482555797337 4.3411063142183943 #
edge $-1 $609 1 $609 0 $335 $-1 forward 7 unknown #
vertex $-1 $336 $610 #
ellipse-curve $-1 58.752953672394248 -10.288565809618209 3.7916652019346455 0.55919291073839883 0 0.82903756765294845 0.41451878382647422 0 -0.27959645536919941 1 I I #
point $-1 59.726665366959118 -10.288565809618209 4.3411063142183943 #
plane-surface $-1 0 0 6.6972942709287651 0 0 1 1 0 0 forward_v I I I I #
coedge $-1 $496 $495 $488 $611 forward $340 $-1 #
coedge $-1 $488 $342 $344 $492 reversed $215 $-1 #
coedge $-1 $342 $487 $486 $611 reversed $215 $-1 #
coedge $-1 $350 $345 $342 $490 forward $351 $-1 #
edge $-1 $493 41.873892543987687 $612 48.031239442421601 $489 $613 forward 7 unknown #
coedge $-1 $344 $343 $496 $614 reversed $135 $-1 #
edge $-1 $615 -124.78164006469925 $493 -117.35453767672701 $487 $616 forward 7 unknown #
vertex $-1 $346 $617 #
straight-curve $-1 56.233473133915709 -0.86358282823305821 6.697294270928758 0 -1 0 I I #
coedge $-1 $486 $347 $350 $500 reversed $340 $-1 #
coedge $-1 $347 $486 $491 $614 forward $340 $-1 #
vertex $-1 $348 $618 #
straight-curve $-1 62.390820032349623 1.5534038807428683 87.884893574860399 0 0 1 I I #
straight-curve $-1 -41.057847334634346 1.5534038807428683 72.32111978273683 0.82903756765294845 0 -0.55919291073839883 I I #
edge $-1 $612 -5.0077351936751011 $352 1.5534038807428683 $495 $619 forward 7 unknown #
point $-1 62.390820032349623 1.5534038807428683 6.6972942709287651 #
point $-1 56.233473133915709 1.5534038807428683 6.6972942709287651 #
edge $-1 $620 1 $620 0 $355 $-1 forward 7 unknown #
vertex $-1 $356 $621 #
ellipse-curve $-1 58.752953672394248 -3.133124029555681 3.7916652019346455 0.55919291073839883 0 0.82903756765294845 0.41451878382647422 0 -0.27959645536919941 1 I I #
point $-1 59.726665366959118 -3.133124029555681 4.3411063142183943 #
edge $-1 $622 1 $622 0 $359 $-1 forward 7 unknown #
vertex $-1 $360 $623 #
ellipse-curve $-1 58.752953672394248 -0.32120728337655535 3.7916652019346455 0.55919291073839883 0 0.82903756765294845 0.41451878382647422 0 -0.27959645536919941 1 I I #
point $-1 59.726665366959118 -0.32120728337655535 4.3411063142183943 #
plane-surface $-1 0 0 6.6972942709287651 0 0 1 1 0 0 forward_v I I I I #
coedge $-1 $522 $521 $514 $624 forward $364 $-1 #
coedge $-1 $514 $366 $368 $518 reversed $237 $-1 #
coedge $-1 $366 $513 $512 $624 reversed $237 $-1 #
coedge $-1 $374 $369 $366 $516 forward $375 $-1 #
edge $-1 $519 41.873892543987687 $625 48.031239442421601 $515 $626 forward 7 unknown #
coedge $-1 $368 $367 $522 $627 reversed $149 $-1 #
edge $-1 $628 -124.78164006469925 $519 -117.35453767672701 $513 $629 forward 7 unknown #
vertex $-1 $370 $630 #
straight-curve $-1 56.233473133915709 4.1200964348877687 6.697294270928758 0 -1 0 I I #
coedge $-1 $512 $371 $374 $526 reversed $364 $-1 #
coedge $-1 $371 $512 $517 $627 forward $364 $-1 #
vertex $-1 $372 $631 #
straight-curve $-1 62.390820032349623 11.520762406984522 87.884893574860399 0 0 1 I I #
straight-curve $-1 -41.057847334634346 11.520762406984522 72.32111978273683 0.82903756765294845 0 -0.55919291073839883 I I #
edge $-1 $625 4.9596233325665526 $376 11.520762406984522 $521 $632 forward 7 unknown #
point $-1 62.390820032349623 11.520762406984522 6.6972942709287651 #
point $-1 56.233473133915709 11.520762406984522 6.6972942709287651 #
edge $-1 $633 1 $633 0 $379 $-1 forward 7 unknown #
vertex $-1 $380 $634 #
ellipse-curve $-1 58.752953672394248 6.8342344966859763 3.7916652019346455 0.55919291073839883 0 0.82903756765294845 0.41451878382647422 0 -0.27959645536919941 1 I I #
point $-1 59.726665366959118 6.8342344966859763 4.3411063142183943 #
edge $-1 $635 1 $635 0 $383 $-1 forward 7 unknown #
vertex $-1 $384 $636 #
ellipse-curve $-1 58.752953672394248 9.6461512428650984 3.7916652019346455 0.55919291073839883 0 0.82903756765294845 0.41451878382647422 0 -0.27959645536919941 1 I I #
point $-1 59.726665366959118 9.6461512428650984 4.3411063142183943 #
plane-surface $-1 0 0 6.6972942709287651 0 0 1 1 0 0 forward_v I I I I #
coedge $-1 $548 $547 $540 $637 forward $388 $-1 #
coedge $-1 $540 $390 $392 $544 reversed $259 $-1 #
coedge $-1 $390 $539 $538 $637 reversed $259 $-1 #
coedge $-1 $398 $393 $390 $542 forward $399 $-1 #
edge $-1 $545 41.873892543987687 $638 48.031239442421601 $541 $639 forward 7 unknown #
coedge $-1 $392 $391 $548 $640 reversed $163 $-1 #
edge $-1 $641 -124.78164006469925 $545 -117.35453767672701 $539 $642 forward 7 unknown #
vertex $-1 $394 $643 #
straight-curve $-1 56.233473133915709 9.1037756980085955 6.697294270928758 0 -1 0 I I #
coedge $-1 $538 $395 $398 $552 reversed $388 $-1 #
coedge $-1 $395 $538 $543 $640 forward $388 $-1 #
vertex $-1 $396 $644 #
straight-curve $-1 62.390820032349623 21.488120933226178 87.884893574860399 0 0 1 I I #
straight-curve $-1 -41.057847334634346 21.488120933226178 72.32111978273683 0.82903756765294845 0 -0.55919291073839883 I I #
edge $-1 $638 14.926981858808206 $400 21.488120933226178 $547 $645 forward 7 unknown #
point $-1 62.390820032349623 21.488120933226178 6.6972942709287651 #
point $-1 56.233473133915709 21.488120933226178 6.6972942709287651 #
edge $-1 $646 1 $646 0 $403 $-1 forward 7 unknown #
vertex $-1 $404 $647 #
ellipse-curve $-1 58.752953672394248 16.80159302292763 3.7916652019346455 0.55919291073839883 0 0.82903756765294845 0.41451878382647422 0 -0.27959645536919941 1 I I #
point $-1 59.726665366959118 16.80159302292763 4.3411063142183943 #
edge $-1 $648 1 $648 0 $407 $-1 forward 7 unknown #
vertex $-1 $408 $649 #
ellipse-curve $-1 58.752953672394248 19.613509769106752 3.7916652019346455 0.55919291073839883 0 0.82903756765294845 0.41451878382647422 0 -0.27959645536919941 1 I I #
point $-1 59.726665366959118 19.613509769106752 4.3411063142183943 #
plane-surface $-1 62.390820032349623 0 0 -1 0 0 0 0 1 forward_v I I I I #
coedge $-1 $416 $414 $418 $568 reversed $281 $-1 #
edge $-1 $429 -6.6972942709287651 $570 6.6972942709287651 $428 $650 forward 7 unknown #
vertex $-1 $568 $651 #
straight-curve $-1 -62.390820032349623 -26.597450110961706 0 0 0 -1 I I #
edge $-1 $566 -26.597450110961706 $570 26.597450110961706 $564 $652 forward 7 unknown #
straight-curve $-1 0 -26.597450110961706 -6.6972942709287651 -1 0 0 I I #
vertex $-1 $421 $653 #
straight-curve $-1 0 26.597450110961706 -6.6972942709287651 1 0 0 I I #
point $-1 62.390820032349623 26.597450110961706 -6.6972942709287651 #
point $-1 62.390820032349623 -26.597450110961706 -6.6972942709287651 #
straight-curve $-1 -62.390820032349623 0 6.6972942709287651 0 -1 0 I I #
point $-1 -62.390820032349623 26.597450110961706 6.6972942709287651 #
point $-1 -62.390820032349623 -26.597450110961706 6.6972942709287651 #
straight-curve $-1 62.390820032349623 -26.597450110961706 0 0 0 -1 I I #
straight-curve $-1 62.390820032349623 26.597450110961706 0 0 0 -1 I I #
loop $-1 $-1 $587 $438 #
plane-surface $-1 -62.390820032349623 0 0 1 0 0 0 0 -1 forward_v I I I I #
coedge $-1 $442 $441 $593 $654 forward $185 $-1 #
edge $-1 $446 20.084422897652285 $596 26.597450110961706 $445 $655 forward 7 unknown #
coedge $-1 $590 $587 $442 $584 reversed $579 $-1 #
edge $-1 $656 -26.597450110961706 $585 -20.084422897652285 $583 $657 forward 7 unknown #
vertex $-1 $588 $658 #
straight-curve $-1 0 -20.084422897652285 -6.6972942709287651 1 0 0 I I #
coedge $-1 $583 $448 $444 $588 forward $579 $-1 #
edge $-1 $450 1.0986471354643825 $585 4.0986471354643825 $587 $659 forward 7 unknown #
point $-1 62.390820032349623 -20.084422897652285 -6.6972942709287651 #
coedge $-1 $448 $583 $452 $594 reversed $579 $-1 #
straight-curve $-1 -62.390820032349623 -11.670468252153498 -3.6972942709287651 0 1 0 I I #
point $-1 -62.390820032349623 -20.084422897652285 -3.6972942709287651 #
coedge $-1 $453 $452 $581 $654 reversed $439 $-1 #
edge $-1 $454 3.6972942709287651 $656 6.6972942709287651 $590 $660 forward 7 unknown #
point $-1 -62.390820032349623 -26.597450110961706 -3.6972942709287651 #
vertex $-1 $456 $661 #
straight-curve $-1 62.390820032349623 -26.597450110961706 0 0 0 -1 I I #
edge $-1 $599 81.187599303931634 $602 85.340782306613946 $460 $662 forward 7 unknown #
vertex $-1 $474 $663 #
straight-curve $-1 14.359580589928022 -14.975093719916757 6.6972942709287651 1 0 0 I I #
edge $-1 $602 -9.1278316285628698 $471 -2.5666925541449013 $470 $664 forward 7 unknown #
vertex $-1 $601 $665 #
straight-curve $-1 -41.057847334634346 -14.975093719916757 72.32111978273683 -0.82903756765294845 0 0.55919291073839883 I I #
point $-1 56.233473133915709 -14.975093719916757 6.6972942709287651 #
point $-1 62.390820032349623 -8.4139546454987872 2.5441112682464535 #
straight-curve $-1 62.390820032349623 0 6.6972942709287651 0 1 0 I I #
vertex $-1 $477 $666 #
point $-1 59.167472456220722 -13.100482555797337 3.5120687465654461 #
vertex $-1 $481 $667 #
point $-1 59.167472456220722 -10.288565809618209 3.5120687465654461 #
edge $-1 $612 81.187599303931634 $615 85.340782306613946 $486 $668 forward 7 unknown #
vertex $-1 $500 $669 #
straight-curve $-1 14.359580589928022 -5.0077351936751011 6.6972942709287651 1 0 0 I I #
edge $-1 $615 -4.1441523654420429 $497 2.4169867089759265 $496 $670 forward 7 unknown #
vertex $-1 $614 $671 #
straight-curve $-1 -41.057847334634346 -5.0077351936751011 72.32111978273683 -0.82903756765294845 0 0.55919291073839883 I I #
point $-1 56.233473133915709 -5.0077351936751011 6.6972942709287651 #
point $-1 62.390820032349623 1.5534038807428683 2.5441112682464535 #
straight-curve $-1 62.390820032349623 0 6.6972942709287651 0 1 0 I I #
vertex $-1 $503 $672 #
point $-1 59.167472456220722 -3.133124029555681 3.5120687465654461 #
vertex $-1 $507 $673 #
point $-1 59.167472456220722 -0.32120728337655535 3.5120687465654461 #
edge $-1 $625 81.187599303931634 $628 85.340782306613946 $512 $674 forward 7 unknown #
vertex $-1 $526 $675 #
straight-curve $-1 14.359580589928022 4.9596233325665526 6.6972942709287651 1 0 0 I I #
edge $-1 $628 0.83952689767878397 $523 7.4006659720967534 $522 $676 forward 7 unknown #
vertex $-1 $627 $677 #
straight-curve $-1 -41.057847334634346 4.9596233325665526 72.32111978273683 -0.82903756765294845 0 0.55919291073839883 I I #
point $-1 56.233473133915709 4.9596233325665526 6.6972942709287651 #
point $-1 62.390820032349623 11.520762406984522 2.5441112682464535 #
straight-curve $-1 62.390820032349623 0 6.6972942709287651 0 1 0 I I #
vertex $-1 $529 $678 #
point $-1 59.167472456220722 6.8342344966859763 3.5120687465654461 #
vertex $-1 $533 $679 #
point $-1 59.167472456220722 9.6461512428650984 3.5120687465654461 #
edge $-1 $638 81.187599303931634 $641 85.340782306613946 $538 $680 forward 7 unknown #
vertex $-1 $552 $681 #
straight-curve $-1 14.359580589928022 14.926981858808206 6.6972942709287651 1 0 0 I I #
edge $-1 $641 5.8232061607996108 $549 12.384345235217582 $548 $682 forward 7 unknown #
vertex $-1 $640 $683 #
straight-curve $-1 -41.057847334634346 14.926981858808206 72.32111978273683 -0.82903756765294845 0 0.55919291073839883 I I #
point $-1 56.233473133915709 14.926981858808206 6.6972942709287651 #
point $-1 62.390820032349623 21.488120933226178 2.5441112682464535 #
straight-curve $-1 62.390820032349623 0 6.6972942709287651 0 1 0 I I #
vertex $-1 $555 $684 #
point $-1 59.167472456220722 16.80159302292763 3.5120687465654461 #
vertex $-1 $559 $685 #
point $-1 59.167472456220722 19.613509769106752 3.5120687465654461 #
straight-curve $-1 -62.390820032349623 26.597450110961706 0 0 0 -1 I I #
point $-1 -62.390820032349623 -26.597450110961706 -6.6972942709287651 #
straight-curve $-1 -62.390820032349623 0 -6.6972942709287651 0 1 0 I I #
point $-1 -62.390820032349623 26.597450110961706 -6.6972942709287651 #
edge $-1 $596 -62.390820032349623 $656 62.390820032349623 $593 $686 forward 7 unknown #
straight-curve $-1 62.390820032349623 0 -6.6972942709287651 0 -1 0 I I #
vertex $-1 $584 $687 #
straight-curve $-1 -62.390820032349623 0 -6.6972942709287651 0 1 0 I I #
point $-1 -62.390820032349623 -20.084422897652285 -6.6972942709287651 #
straight-curve $-1 -62.390820032349623 -20.084422897652285 -2.5986471354643825 0 0 -1 I I #
straight-curve $-1 -62.390820032349623 -26.597450110961706 0 0 0 -1 I I #
point $-1 62.390820032349623 -26.597450110961706 -6.6972942709287651 #
straight-curve $-1 62.390820032349623 -14.975093719916757 87.884893574860399 0 0 -1 I I #
point $-1 62.390820032349623 -14.975093719916757 6.6972942709287651 #
straight-curve $-1 62.390820032349616 -5.847262091353886 2.5441112682464464 0 1 0 I I #
point $-1 62.390820032349623 -14.975093719916757 2.5441112682464535 #
point $-1 58.473357217025047 -13.100482555797337 3.3771464181081714 #
point $-1 58.473357217025047 -10.288565809618209 3.3771464181081714 #
straight-curve $-1 62.390820032349623 -5.0077351936751011 87.884893574860399 0 0 -1 I I #
point $-1 62.390820032349623 -5.0077351936751011 6.6972942709287651 #
straight-curve $-1 62.390820032349616 -0.86358282823305821 2.5441112682464464 0 1 0 I I #
point $-1 62.390820032349623 -5.0077351936751011 2.5441112682464535 #
point $-1 58.473357217025047 -3.133124029555681 3.3771464181081714 #
point $-1 58.473357217025047 -0.32120728337655535 3.3771464181081714 #
straight-curve $-1 62.390820032349623 4.9596233325665526 87.884893574860399 0 0 -1 I I #
point $-1 62.390820032349623 4.9596233325665526 6.6972942709287651 #
straight-curve $-1 62.390820032349616 4.1200964348877687 2.5441112682464464 0 1 0 I I #
point $-1 62.390820032349623 4.9596233325665526 2.5441112682464535 #
point $-1 58.473357217025047 6.8342344966859763 3.3771464181081714 #
point $-1 58.473357217025047 9.6461512428650984 3.3771464181081714 #
straight-curve $-1 62.390820032349623 14.926981858808206 87.884893574860399 0 0 -1 I I #
point $-1 62.390820032349623 14.926981858808206 6.6972942709287651 #
straight-curve $-1 62.390820032349616 9.1037756980085955 2.5441112682464464 0 1 0 I I #
point $-1 62.390820032349623 14.926981858808206 2.5441112682464535 #
point $-1 58.473357217025047 16.80159302292763 3.3771464181081714 #
point $-1 58.473357217025047 19.613509769106752 3.3771464181081714 #
straight-curve $-1 0 -26.597450110961706 -6.6972942709287651 -1 0 0 I I #
point $-1 -62.390820032349623 -26.597450110961706 -6.6972942709287651 #
End-of-ACIS-data 