500 0 10 0           
7 Unknown 11 ACIS 5.0 NT 24 Fri Mar 26 03:08:45 1999 
-1 9.9999999999999995e-007 1e-010 
body $-1 $10 $-1 $11 #
body $-1 $12 $-1 $13 #
body $-1 $14 $-1 $15 #
body $-1 $16 $-1 $17 #
body $-1 $18 $-1 $19 #
body $-1 $20 $-1 $21 #
body $-1 $22 $-1 $23 #
body $-1 $24 $-1 $25 #
body $-1 $26 $-1 $27 #
body $-1 $28 $-1 $29 #
lump $-1 $-1 $30 $0 #
transform $-1 1 0 0 0 1 0 0 0 1 63.190404980620741 39.588161001104119 18.363846881572385 1 rotate no_reflect no_shear #
lump $-1 $-1 $31 $1 #
transform $-1 1 0 0 0 1 0 0 0 1 63.190404980620741 39.588161001104119 18.363846881572385 1 rotate no_reflect no_shear #
lump $-1 $-1 $32 $2 #
transform $-1 1 0 0 0 1 0 0 0 1 63.190404980620741 39.588161001104119 18.363846881572385 1 rotate no_reflect no_shear #
lump $-1 $-1 $33 $3 #
transform $-1 1 0 0 0 1 0 0 0 1 63.190404980620741 39.588161001104119 18.363846881572385 1 rotate no_reflect no_shear #
lump $-1 $-1 $34 $4 #
transform $-1 1 0 0 0 1 0 0 0 1 63.190404980620741 39.588161001104119 18.363846881572385 1 rotate no_reflect no_shear #
lump $-1 $-1 $35 $5 #
transform $-1 1 0 0 0 1 0 0 0 1 63.190404980620741 39.588161001104119 18.363846881572385 1 rotate no_reflect no_shear #
lump $-1 $-1 $36 $6 #
transform $-1 1 0 0 0 1 0 0 0 1 63.190404980620741 39.588161001104119 18.363846881572385 1 rotate no_reflect no_shear #
lump $-1 $-1 $37 $7 #
transform $-1 1 0 0 0 1 0 0 0 1 63.190404980620741 39.588161001104119 18.363846881572385 1 rotate no_reflect no_shear #
lump $-1 $-1 $38 $8 #
transform $-1 1 0 0 0 1 0 0 0 1 63.190404980620741 39.588161001104119 18.363846881572385 1 rotate no_reflect no_shear #
lump $-1 $-1 $39 $9 #
transform $-1 1 0 0 0 1 0 0 0 1 63.190404980620741 39.588161001104119 18.363846881572385 1 rotate no_reflect no_shear #
shell $-1 $-1 $-1 $40 $-1 $10 #
shell $-1 $-1 $-1 $41 $-1 $12 #
shell $-1 $-1 $-1 $42 $-1 $14 #
shell $-1 $-1 $-1 $43 $-1 $16 #
shell $-1 $-1 $-1 $44 $-1 $18 #
shell $-1 $-1 $-1 $45 $-1 $20 #
shell $-1 $-1 $-1 $46 $-1 $22 #
shell $-1 $-1 $-1 $47 $-1 $24 #
shell $-1 $-1 $-1 $48 $-1 $26 #
shell $-1 $-1 $-1 $49 $-1 $28 #
face $-1 $50 $51 $30 $-1 $52 forward single #
face $-1 $53 $54 $31 $-1 $55 reversed single #
face $-1 $56 $57 $32 $-1 $58 reversed single #
face $-1 $59 $60 $33 $-1 $61 forward single #
face $-1 $62 $63 $34 $-1 $64 reversed single #
face $-1 $65 $66 $35 $-1 $67 forward single #
face $-1 $68 $69 $36 $-1 $70 reversed single #
face $-1 $71 $72 $37 $-1 $73 forward single #
face $-1 $74 $75 $38 $-1 $76 reversed single #
face $-1 $77 $78 $39 $-1 $79 forward single #
face $-1 $80 $81 $30 $-1 $82 reversed single #
loop $-1 $-1 $83 $40 #
plane-surface $-1 0 0 18.363846881572385 0 0 1 1 0 0 forward_v I I I I #
face $-1 $84 $85 $31 $-1 $86 reversed single #
loop $-1 $-1 $87 $41 #
plane-surface $-1 0 -29.559557007434371 14.191615841362605 0 0 1 1 0 0 forward_v I I I I #
face $-1 $88 $89 $32 $-1 $90 reversed single #
loop $-1 $-1 $91 $42 #
plane-surface $-1 -63.190404980620755 -14.98019181779614 6.4930738735927775 -0.68199836817093118 0 0.7313536940579346 0.7313536940579346 0 0.68199836817093118 forward_v I I I I #
face $-1 $92 $93 $33 $-1 $94 forward single #
loop $-1 $95 $96 $43 #
cone-surface $-1 -55.695346930638536 -14.98019181779614 11.216538539148853 0.68199836817093118 0 -0.7313536940579346 1.4627073881158692 0 1.3639967363418624 1 I I 0 1 2 forward I I I I #
face $-1 $97 $98 $34 $-1 $99 reversed single #
loop $-1 $-1 $100 $44 #
plane-surface $-1 -149.38191114230801 -4.7511745100474325 98.922146096780551 0 1 0 -0.68199836817093118 0 0.7313536940579346 forward_v I I I I #
face $-1 $101 $102 $35 $-1 $103 forward single #
loop $-1 $104 $105 $45 #
cone-surface $-1 -55.695346930638536 -0.20041331407895058 11.216538539148853 0.68199836817093118 0 -0.7313536940579346 1.4627073881158692 0 1.3639967363418624 1 I I 0 1 2 forward I I I I #
face $-1 $106 $107 $36 $-1 $108 reversed single #
loop $-1 $-1 $109 $46 #
plane-surface $-1 -149.38191114230801 10.028603993669757 98.922146096780551 0 1 0 -0.68199836817093118 0 0.7313536940579346 forward_v I I I I #
face $-1 $110 $111 $37 $-1 $112 forward single #
loop $-1 $113 $114 $47 #
cone-surface $-1 -55.695346930638536 14.579365189638239 11.216538539148853 0.68199836817093118 0 -0.7313536940579346 1.4627073881158692 0 1.3639967363418624 1 I I 0 1 2 forward I I I I #
face $-1 $115 $116 $38 $-1 $117 reversed single #
loop $-1 $-1 $118 $48 #
plane-surface $-1 -149.38191114230801 24.808382497386944 98.922146096780551 0 1 0 -0.68199836817093118 0 0.7313536940579346 forward_v I I I I #
face $-1 $119 $120 $39 $-1 $121 forward single #
loop $-1 $122 $123 $49 #
cone-surface $-1 -55.695346930638536 29.359143693355428 11.216538539148853 0.68199836817093118 0 -0.7313536940579346 1.4627073881158692 0 1.3639967363418624 1 I I 0 1 2 forward I I I I #
face $-1 $124 $125 $30 $-1 $126 reversed single #
loop $-1 $-1 $127 $50 #
plane-surface $-1 0 0 -18.363846881572385 0 0 1 1 0 0 forward_v I I I I #
coedge $-1 $128 $129 $130 $131 forward $51 $-1 #
face $-1 $132 $133 $31 $-1 $134 reversed single #
loop $-1 $-1 $135 $53 #
plane-surface $-1 0 -19.530953013764623 16.277731361467495 0 -1 0 0 0 -1 forward_v I I I I #
coedge $-1 $136 $137 $138 $139 reversed $54 $-1 #
face $-1 $140 $141 $32 $-1 $142 forward single #
loop $-1 $-1 $143 $56 #
plane-surface $-1 -149.38191114230801 -10.429430621827658 98.922146096780551 0 -1 0 0.68199836817093118 0 -0.7313536940579346 forward_v I I I I #
coedge $-1 $144 $145 $146 $147 reversed $57 $-1 #
face $-1 $-1 $148 $33 $-1 $149 forward single #
loop $-1 $150 $151 $59 #
cone-surface $-1 -53.883213139787919 -14.98019181779614 9.2732630066571993 0.68199836817093118 0 -0.7313536940579346 0.7313536940579346 0 0.68199836817093118 1 I I -0.70710678118654746 0.70710678118654746 1 forward I I I I #
loop $-1 $-1 $152 $43 #
coedge $-1 $96 $96 $153 $154 reversed $60 $-1 #
face $-1 $155 $156 $34 $-1 $157 reversed single #
loop $-1 $-1 $158 $62 #
plane-surface $-1 -63.190404980620755 -0.20041331407895058 6.4930738735927775 -0.68199836817093118 0 0.7313536940579346 0.7313536940579346 0 0.68199836817093118 forward_v I I I I #
coedge $-1 $159 $160 $161 $162 reversed $63 $-1 #
face $-1 $-1 $163 $35 $-1 $164 forward single #
loop $-1 $165 $166 $65 #
cone-surface $-1 -53.883213139787919 -0.20041331407895058 9.2732630066571993 0.68199836817093118 0 -0.7313536940579346 0.7313536940579346 0 0.68199836817093118 1 I I -0.70710678118654746 0.70710678118654746 1 forward I I I I #
loop $-1 $-1 $167 $45 #
coedge $-1 $105 $105 $168 $169 reversed $66 $-1 #
face $-1 $170 $171 $36 $-1 $172 reversed single #
loop $-1 $-1 $173 $68 #
plane-surface $-1 -63.190404980620755 14.579365189638239 6.4930738735927775 -0.68199836817093118 0 0.7313536940579346 0.7313536940579346 0 0.68199836817093118 forward_v I I I I #
coedge $-1 $174 $175 $176 $177 reversed $69 $-1 #
face $-1 $-1 $178 $37 $-1 $179 forward single #
loop $-1 $180 $181 $71 #
cone-surface $-1 -53.883213139787919 14.579365189638239 9.2732630066571993 0.68199836817093118 0 -0.7313536940579346 0.7313536940579346 0 0.68199836817093118 1 I I -0.70710678118654746 0.70710678118654746 1 forward I I I I #
loop $-1 $-1 $182 $47 #
coedge $-1 $114 $114 $183 $184 reversed $72 $-1 #
face $-1 $185 $186 $38 $-1 $187 reversed single #
loop $-1 $-1 $188 $74 #
plane-surface $-1 -63.190404980620755 29.359143693355428 6.4930738735927775 -0.68199836817093118 0 0.7313536940579346 0.7313536940579346 0 0.68199836817093118 forward_v I I I I #
coedge $-1 $189 $190 $191 $192 reversed $75 $-1 #
face $-1 $-1 $193 $39 $-1 $194 forward single #
loop $-1 $195 $196 $77 #
cone-surface $-1 -53.883213139787919 29.359143693355428 9.2732630066571993 0.68199836817093118 0 -0.7313536940579346 0.7313536940579346 0 0.68199836817093118 1 I I -0.70710678118654746 0.70710678118654746 1 forward I I I I #
loop $-1 $-1 $197 $49 #
coedge $-1 $123 $123 $198 $199 reversed $78 $-1 #
face $-1 $200 $201 $30 $-1 $202 reversed single #
loop $-1 $-1 $203 $80 #
plane-surface $-1 0 -39.588161001104119 0 0 1 0 0 0 1 forward_v I I I I #
coedge $-1 $204 $205 $206 $207 forward $81 $-1 #
coedge $-1 $208 $83 $209 $210 forward $51 $-1 #
coedge $-1 $83 $208 $211 $212 forward $51 $-1 #
coedge $-1 $213 $214 $83 $131 reversed $215 $-1 #
edge $-1 $216 -39.588161001104119 $217 39.588161001104119 $130 $218 forward 7 unknown #
face $-1 $219 $220 $31 $-1 $221 reversed single #
loop $-1 $-1 $222 $84 #
plane-surface $-1 -63.190404980620741 0 0 1 0 0 0 0 -1 forward_v I I I I #
coedge $-1 $223 $224 $225 $226 reversed $85 $-1 #
coedge $-1 $227 $87 $228 $229 reversed $54 $-1 #
coedge $-1 $87 $227 $223 $230 forward $54 $-1 #
coedge $-1 $225 $231 $87 $139 forward $232 $-1 #
edge $-1 $233 -24.808382497386933 $234 -4.7511745100474378 $138 $235 forward 7 unknown #
face $-1 $236 $237 $32 $-1 $238 reversed single #
loop $-1 $-1 $146 $88 #
plane-surface $-1 0 0 18.363846881572385 0 0 1 1 0 0 forward_v I I I I #
coedge $-1 $239 $240 $241 $242 reversed $89 $-1 #
coedge $-1 $243 $91 $244 $245 reversed $57 $-1 #
coedge $-1 $91 $243 $239 $246 forward $57 $-1 #
coedge $-1 $241 $247 $91 $147 forward $141 $-1 #
edge $-1 $248 -12.040857104866554 $249 -2.9393347129295879 $146 $250 forward 7 unknown #
loop $-1 $-1 $153 $92 #
plane-surface $-1 -63.190404980620755 -14.98019181779614 6.4930738735927775 -0.68199836817093118 0 0.7313536940579346 0.7313536940579346 0 0.68199836817093118 forward_v I I I I #
loop $-1 $-1 $251 $59 #
coedge $-1 $151 $151 $152 $252 reversed $93 $-1 #
coedge $-1 $152 $152 $151 $252 forward $95 $-1 #
coedge $-1 $153 $153 $96 $154 forward $148 $-1 #
edge $-1 $253 0 $253 6.2831853071796004 $153 $254 forward 7 unknown #
face $-1 $255 $256 $34 $-1 $257 forward single #
loop $-1 $-1 $258 $97 #
plane-surface $-1 -149.38191114230801 4.3503478818895314 98.922146096780551 0 -1 0 0.68199836817093118 0 -0.7313536940579346 forward_v I I I I #
coedge $-1 $259 $260 $261 $262 reversed $98 $-1 #
coedge $-1 $160 $100 $263 $264 reversed $63 $-1 #
coedge $-1 $100 $159 $259 $265 reversed $63 $-1 #
coedge $-1 $261 $266 $100 $162 forward $256 $-1 #
edge $-1 $267 11.500550590533265 $268 24.23039584513829 $161 $269 forward 7 unknown #
loop $-1 $-1 $168 $101 #
plane-surface $-1 -63.190404980620755 -0.20041331407895058 6.4930738735927775 -0.68199836817093118 0 0.7313536940579346 0.7313536940579346 0 0.68199836817093118 forward_v I I I I #
loop $-1 $-1 $270 $65 #
coedge $-1 $166 $166 $167 $271 reversed $102 $-1 #
coedge $-1 $167 $167 $166 $271 forward $104 $-1 #
coedge $-1 $168 $168 $105 $169 forward $163 $-1 #
edge $-1 $272 0 $272 6.2831853071796004 $168 $273 forward 7 unknown #
face $-1 $274 $275 $36 $-1 $276 forward single #
loop $-1 $-1 $277 $106 #
plane-surface $-1 -149.38191114230801 19.130126385606722 98.922146096780551 0 -1 0 0.68199836817093118 0 -0.7313536940579346 forward_v I I I I #
coedge $-1 $278 $279 $280 $281 reversed $107 $-1 #
coedge $-1 $175 $109 $282 $283 reversed $69 $-1 #
coedge $-1 $109 $174 $278 $284 reversed $69 $-1 #
coedge $-1 $280 $285 $109 $177 forward $275 $-1 #
edge $-1 $286 11.500550590533265 $287 24.23039584513829 $176 $288 forward 7 unknown #
loop $-1 $-1 $183 $110 #
plane-surface $-1 -63.190404980620755 14.579365189638239 6.4930738735927775 -0.68199836817093118 0 0.7313536940579346 0.7313536940579346 0 0.68199836817093118 forward_v I I I I #
loop $-1 $-1 $289 $71 #
coedge $-1 $181 $181 $182 $290 reversed $111 $-1 #
coedge $-1 $182 $182 $181 $290 forward $113 $-1 #
coedge $-1 $183 $183 $114 $184 forward $178 $-1 #
edge $-1 $291 0 $291 6.2831853071796004 $183 $292 forward 7 unknown #
face $-1 $293 $294 $38 $-1 $295 forward single #
loop $-1 $-1 $296 $115 #
plane-surface $-1 -149.38191114230801 33.909904889323911 98.922146096780551 0 -1 0 0.68199836817093118 0 -0.7313536940579346 forward_v I I I I #
coedge $-1 $297 $298 $299 $300 reversed $116 $-1 #
coedge $-1 $190 $118 $301 $302 reversed $75 $-1 #
coedge $-1 $118 $189 $297 $303 reversed $75 $-1 #
coedge $-1 $299 $304 $118 $192 forward $294 $-1 #
edge $-1 $305 11.500550590533265 $306 24.23039584513829 $191 $307 forward 7 unknown #
loop $-1 $-1 $198 $119 #
plane-surface $-1 -63.190404980620755 29.359143693355428 6.4930738735927775 -0.68199836817093118 0 0.7313536940579346 0.7313536940579346 0 0.68199836817093118 forward_v I I I I #
loop $-1 $-1 $308 $77 #
coedge $-1 $196 $196 $197 $309 reversed $120 $-1 #
coedge $-1 $197 $197 $196 $309 forward $122 $-1 #
coedge $-1 $198 $198 $123 $199 forward $193 $-1 #
edge $-1 $310 0 $310 6.2831853071796004 $198 $311 forward 7 unknown #
face $-1 $312 $313 $30 $-1 $314 reversed single #
loop $-1 $-1 $315 $124 #
plane-surface $-1 -63.190404980620741 0 0 1 0 0 0 0 -1 forward_v I I I I #
coedge $-1 $316 $211 $317 $318 forward $125 $-1 #
coedge $-1 $319 $127 $316 $320 forward $81 $-1 #
coedge $-1 $127 $319 $321 $322 forward $81 $-1 #
coedge $-1 $214 $213 $127 $207 reversed $215 $-1 #
edge $-1 $323 -39.588161001104119 $324 39.588161001104119 $206 $325 forward 7 unknown #
coedge $-1 $129 $128 $326 $327 forward $51 $-1 #
coedge $-1 $328 $329 $128 $210 reversed $313 $-1 #
edge $-1 $217 -63.190404980620741 $330 63.190404980620741 $209 $331 forward 7 unknown #
coedge $-1 $203 $332 $129 $212 reversed $125 $-1 #
edge $-1 $333 -63.190404980620741 $216 63.190404980620741 $211 $334 forward 7 unknown #
coedge $-1 $206 $130 $332 $335 forward $215 $-1 #
coedge $-1 $130 $206 $328 $336 reversed $215 $-1 #
loop $-1 $-1 $213 $312 #
vertex $-1 $131 $337 #
vertex $-1 $131 $338 #
straight-curve $-1 63.190404980620741 0 18.363846881572385 0 1 0 I I #
face $-1 $339 $340 $31 $-1 $341 forward single #
loop $-1 $-1 $228 $132 #
plane-surface $-1 0 -39.588161001104119 0 0 1 0 0 0 1 forward_v I I I I #
coedge $-1 $342 $343 $344 $345 forward $133 $-1 #
coedge $-1 $344 $135 $137 $230 reversed $85 $-1 #
coedge $-1 $135 $344 $346 $347 reversed $85 $-1 #
coedge $-1 $348 $138 $135 $226 forward $232 $-1 #
edge $-1 $234 6.0527501606288574 $349 10.224981200838638 $225 $350 forward 7 unknown #
coedge $-1 $137 $136 $342 $351 reversed $54 $-1 #
coedge $-1 $352 $353 $136 $229 forward $220 $-1 #
edge $-1 $354 -63.190404980620741 $233 63.190404980620741 $228 $355 forward 7 unknown #
edge $-1 $356 -63.190404980620741 $234 63.190404980620741 $223 $357 forward 7 unknown #
coedge $-1 $138 $348 $352 $358 forward $232 $-1 #
loop $-1 $-1 $225 $339 #
vertex $-1 $229 $359 #
vertex $-1 $139 $360 #
straight-curve $-1 63.190404980620741 -14.779778503717186 14.191615841362605 0 1 0 I I #
face $-1 $-1 $361 $32 $-1 $362 forward single #
loop $-1 $-1 $363 $140 #
plane-surface $-1 -63.190404980620741 0 0 1 0 0 0 0 -1 forward_v I I I I #
coedge $-1 $240 $143 $145 $246 reversed $89 $-1 #
coedge $-1 $143 $239 $363 $364 reversed $89 $-1 #
coedge $-1 $365 $146 $143 $242 forward $141 $-1 #
edge $-1 $249 -24.23039584513829 $366 -11.500550590533265 $241 $367 forward 7 unknown #
coedge $-1 $145 $144 $368 $369 reversed $57 $-1 #
coedge $-1 $370 $371 $144 $245 forward $361 $-1 #
edge $-1 $372 -26.443828275717948 $248 -9.0379611036070742 $244 $373 forward 7 unknown #
edge $-1 $374 1.9479204584885432e-014 $249 17.405867172110895 $239 $375 forward 7 unknown #
coedge $-1 $146 $365 $370 $376 forward $141 $-1 #
vertex $-1 $245 $377 #
vertex $-1 $147 $378 #
straight-curve $-1 -50.460559726015717 -7.4900959088980699 18.363846881572385 0 1 0 I I #
coedge $-1 $251 $251 $-1 $379 reversed $150 $-1 #
edge $-1 $380 0 $380 6.2831853071796004 $151 $381 forward 7 unknown #
vertex $-1 $154 $382 #
ellipse-curve $-1 -56.825482353318229 -14.98019181779614 12.428460377582587 -0.68199836817093118 0 0.7313536940579346 1.4627073881158692 0 1.3639967363418624 1 I I #
face $-1 $-1 $383 $34 $-1 $384 reversed single #
loop $-1 $-1 $161 $155 #
plane-surface $-1 0 0 18.363846881572385 0 0 1 1 0 0 forward_v I I I I #
coedge $-1 $385 $386 $387 $388 reversed $156 $-1 #
coedge $-1 $389 $158 $160 $265 forward $98 $-1 #
coedge $-1 $158 $389 $385 $390 forward $98 $-1 #
coedge $-1 $387 $161 $158 $262 forward $256 $-1 #
edge $-1 $268 -4.6509678530079572 $391 4.4505545389290067 $261 $392 forward 7 unknown #
coedge $-1 $393 $394 $159 $264 forward $383 $-1 #
edge $-1 $395 -42.967999174797484 $267 -31.09722616681789 $263 $396 forward 7 unknown #
edge $-1 $268 -17.405867172110895 $395 -1.9479204584885432e-014 $160 $397 forward 7 unknown #
coedge $-1 $161 $387 $393 $398 forward $256 $-1 #
vertex $-1 $162 $399 #
vertex $-1 $162 $400 #
straight-curve $-1 -74.690955571154007 -4.7511745100474325 18.363846881572385 1 0 0 I I #
coedge $-1 $270 $270 $-1 $401 reversed $165 $-1 #
edge $-1 $402 0 $402 6.2831853071796004 $166 $403 forward 7 unknown #
vertex $-1 $169 $404 #
ellipse-curve $-1 -56.825482353318229 -0.20041331407895058 12.428460377582587 -0.68199836817093118 0 0.7313536940579346 1.4627073881158692 0 1.3639967363418624 1 I I #
face $-1 $-1 $405 $36 $-1 $406 reversed single #
loop $-1 $-1 $176 $170 #
plane-surface $-1 0 0 18.363846881572385 0 0 1 1 0 0 forward_v I I I I #
coedge $-1 $407 $408 $409 $410 reversed $171 $-1 #
coedge $-1 $411 $173 $175 $284 forward $107 $-1 #
coedge $-1 $173 $411 $407 $412 forward $107 $-1 #
coedge $-1 $409 $176 $173 $281 forward $275 $-1 #
edge $-1 $287 2.7389213988506373 $413 11.840443790787603 $280 $414 forward 7 unknown #
coedge $-1 $415 $416 $174 $283 forward $405 $-1 #
edge $-1 $417 -42.967999174797484 $286 -31.09722616681789 $282 $418 forward 7 unknown #
edge $-1 $287 -17.405867172110895 $417 -1.9479204584885432e-014 $175 $419 forward 7 unknown #
coedge $-1 $176 $409 $415 $420 forward $275 $-1 #
vertex $-1 $177 $421 #
vertex $-1 $177 $422 #
straight-curve $-1 -74.690955571154007 10.028603993669757 18.363846881572385 1 0 0 I I #
coedge $-1 $289 $289 $-1 $423 reversed $180 $-1 #
edge $-1 $424 0 $424 6.2831853071796004 $181 $425 forward 7 unknown #
vertex $-1 $184 $426 #
ellipse-curve $-1 -56.825482353318229 14.579365189638239 12.428460377582587 -0.68199836817093118 0 0.7313536940579346 1.4627073881158692 0 1.3639967363418624 1 I I #
face $-1 $-1 $427 $38 $-1 $428 reversed single #
loop $-1 $-1 $191 $185 #
plane-surface $-1 0 0 18.363846881572385 0 0 1 1 0 0 forward_v I I I I #
coedge $-1 $429 $430 $431 $432 reversed $186 $-1 #
coedge $-1 $433 $188 $190 $303 forward $116 $-1 #
coedge $-1 $188 $433 $429 $434 forward $116 $-1 #
coedge $-1 $431 $191 $188 $300 forward $294 $-1 #
edge $-1 $306 10.12881065070923 $435 19.230333042646198 $299 $436 forward 7 unknown #
coedge $-1 $437 $438 $189 $302 forward $427 $-1 #
edge $-1 $439 -42.967999174797484 $305 -31.09722616681789 $301 $440 forward 7 unknown #
edge $-1 $306 -17.405867172110895 $439 -1.9479204584885432e-014 $190 $441 forward 7 unknown #
coedge $-1 $191 $431 $437 $442 forward $294 $-1 #
vertex $-1 $192 $443 #
vertex $-1 $192 $444 #
straight-curve $-1 -74.690955571154007 24.808382497386944 18.363846881572385 1 0 0 I I #
coedge $-1 $308 $308 $-1 $445 reversed $195 $-1 #
edge $-1 $446 0 $446 6.2831853071796004 $196 $447 forward 7 unknown #
vertex $-1 $199 $448 #
ellipse-curve $-1 -56.825482353318229 29.359143693355428 12.428460377582587 -0.68199836817093118 0 0.7313536940579346 1.4627073881158692 0 1.3639967363418624 1 I I #
face $-1 $-1 $215 $30 $-1 $449 reversed single #
loop $-1 $-1 $328 $200 #
plane-surface $-1 0 39.588161001104119 0 0 -1 0 0 0 -1 forward_v I I I I #
coedge $-1 $450 $326 $329 $451 forward $201 $-1 #
coedge $-1 $332 $203 $204 $320 reversed $125 $-1 #
coedge $-1 $326 $450 $203 $318 reversed $201 $-1 #
edge $-1 $333 -18.363846881572385 $452 18.363846881572385 $317 $453 forward 7 unknown #
coedge $-1 $205 $204 $450 $454 forward $81 $-1 #
edge $-1 $324 -63.190404980620741 $452 63.190404980620741 $316 $455 forward 7 unknown #
coedge $-1 $329 $328 $205 $322 reversed $313 $-1 #
edge $-1 $456 -63.190404980620741 $323 63.190404980620741 $321 $457 forward 7 unknown #
vertex $-1 $207 $458 #
vertex $-1 $335 $459 #
straight-curve $-1 63.190404980620741 0 -18.363846881572385 0 -1 0 I I #
coedge $-1 $315 $317 $208 $327 reversed $201 $-1 #
edge $-1 $330 -39.588161001104119 $333 39.588161001104119 $326 $460 forward 7 unknown #
coedge $-1 $321 $209 $214 $336 forward $313 $-1 #
coedge $-1 $209 $321 $315 $451 reversed $313 $-1 #
vertex $-1 $210 $461 #
straight-curve $-1 0 39.588161001104119 18.363846881572385 -1 0 0 I I #
coedge $-1 $211 $316 $213 $335 reversed $125 $-1 #
vertex $-1 $327 $462 #
straight-curve $-1 0 -39.588161001104119 18.363846881572385 1 0 0 I I #
edge $-1 $216 -18.363846881572385 $324 18.363846881572385 $213 $463 forward 7 unknown #
edge $-1 $217 -18.363846881572385 $323 18.363846881572385 $214 $464 forward 7 unknown #
point $-1 63.190404980620741 -39.588161001104119 18.363846881572385 #
point $-1 63.190404980620741 39.588161001104119 18.363846881572385 #
face $-1 $-1 $232 $31 $-1 $465 reversed single #
loop $-1 $-1 $346 $219 #
plane-surface $-1 0 0 18.363846881572385 0 0 1 1 0 0 forward_v I I I I #
coedge $-1 $466 $222 $227 $351 forward $133 $-1 #
coedge $-1 $222 $466 $467 $468 reversed $133 $-1 #
coedge $-1 $224 $223 $222 $345 reversed $85 $-1 #
edge $-1 $469 -10.224981200838638 $356 -6.0527501606288574 $222 $470 forward 7 unknown #
coedge $-1 $467 $471 $224 $347 forward $340 $-1 #
edge $-1 $349 -63.190404980620741 $469 63.190404980620741 $346 $472 forward 7 unknown #
coedge $-1 $231 $225 $471 $473 reversed $232 $-1 #
vertex $-1 $226 $474 #
straight-curve $-1 63.190404980620741 -19.530953013764623 8.1388656807337476 0 0 1 I I #
edge $-1 $356 4.7511745100474378 $354 24.808382497386933 $342 $475 forward 7 unknown #
coedge $-1 $476 $228 $231 $358 reversed $220 $-1 #
coedge $-1 $228 $476 $466 $477 forward $220 $-1 #
vertex $-1 $229 $478 #
straight-curve $-1 0 -39.588161001104119 14.191615841362605 1 0 0 I I #
vertex $-1 $351 $479 #
straight-curve $-1 0 -19.530953013764623 14.191615841362605 1 0 0 I I #
edge $-1 $480 -18.363846881572385 $233 -14.191615841362605 $231 $481 forward 7 unknown #
point $-1 63.190404980620741 -39.588161001104119 14.191615841362605 #
point $-1 63.190404980620741 -19.530953013764623 14.191615841362605 #
loop $-1 $-1 $244 $236 #
plane-surface $-1 0 -19.530953013764623 16.277731361467495 0 -1 0 0 0 -1 forward_v I I I I #
coedge $-1 $368 $482 $240 $364 forward $237 $-1 #
edge $-1 $366 31.09722616681789 $374 42.967999174797484 $363 $483 forward 7 unknown #
coedge $-1 $247 $241 $482 $484 forward $141 $-1 #
vertex $-1 $484 $485 #
straight-curve $-1 -74.690955571154007 -10.429430621827658 18.363846881572385 -1 0 0 I I #
coedge $-1 $486 $363 $243 $369 forward $237 $-1 #
edge $-1 $374 2.9393347129295879 $372 12.040857104866554 $368 $487 forward 7 unknown #
coedge $-1 $371 $244 $247 $376 reversed $361 $-1 #
coedge $-1 $244 $370 $486 $488 reversed $361 $-1 #
vertex $-1 $488 $489 #
straight-curve $-1 -43.850613486140759 -19.530953013764623 24.527721605824762 0.7313536940579346 0 0.68199836817093118 I I #
vertex $-1 $369 $490 #
straight-curve $-1 -63.190404980620755 -10.429430621827658 6.4930738735927775 0.7313536940579346 0 0.68199836817093118 I I #
edge $-1 $491 -63.190404980620741 $248 -50.460559726015717 $247 $492 forward 7 unknown #
point $-1 -50.460559726015717 -19.530953013764623 18.363846881572385 #
point $-1 -50.460559726015717 -10.429430621827658 18.363846881572385 #
edge $-1 $493 1 $493 0 $251 $-1 forward 7 unknown #
vertex $-1 $252 $494 #
ellipse-curve $-1 -54.56521150795885 -14.98019181779614 10.004616700715134 -0.68199836817093118 0 0.7313536940579346 1.4627073881158692 0 1.3639967363418624 1 I I #
point $-1 -55.362774965202348 -14.98019181779614 13.792457113924437 #
loop $-1 $-1 $263 $255 #
plane-surface $-1 -63.190404980620741 0 0 1 0 0 0 0 -1 forward_v I I I I #
coedge $-1 $386 $258 $260 $390 reversed $156 $-1 #
coedge $-1 $258 $385 $495 $496 reversed $156 $-1 #
coedge $-1 $266 $261 $258 $388 forward $256 $-1 #
edge $-1 $391 -24.23039584513829 $497 -11.500550590533265 $387 $498 forward 7 unknown #
coedge $-1 $260 $259 $394 $499 reversed $98 $-1 #
edge $-1 $500 1.9479204584885432e-014 $391 17.405867172110895 $385 $501 forward 7 unknown #
vertex $-1 $262 $502 #
straight-curve $-1 -50.460559726015717 -0.10020665703947529 18.363846881572385 0 1 0 I I #
coedge $-1 $495 $263 $266 $398 reversed $383 $-1 #
coedge $-1 $263 $495 $389 $499 forward $383 $-1 #
vertex $-1 $264 $503 #
straight-curve $-1 -63.190404980620741 -4.7511745100474325 49.461073048390276 0 0 1 I I #
straight-curve $-1 -63.190404980620755 -4.7511745100474325 6.4930738735927775 -0.7313536940579346 0 -0.68199836817093118 I I #
edge $-1 $497 -4.3503478818895314 $267 4.7511745100474325 $393 $504 forward 7 unknown #
point $-1 -63.190404980620741 -4.7511745100474325 18.363846881572385 #
point $-1 -50.460559726015717 -4.7511745100474325 18.363846881572385 #
edge $-1 $505 1 $505 0 $270 $-1 forward 7 unknown #
vertex $-1 $271 $506 #
ellipse-curve $-1 -54.56521150795885 -0.20041331407895058 10.004616700715134 -0.68199836817093118 0 0.7313536940579346 1.4627073881158692 0 1.3639967363418624 1 I I #
point $-1 -55.362774965202348 -0.20041331407895058 13.792457113924437 #
loop $-1 $-1 $282 $274 #
plane-surface $-1 -63.190404980620741 0 0 1 0 0 0 0 -1 forward_v I I I I #
coedge $-1 $408 $277 $279 $412 reversed $171 $-1 #
coedge $-1 $277 $407 $507 $508 reversed $171 $-1 #
coedge $-1 $285 $280 $277 $410 forward $275 $-1 #
edge $-1 $413 -24.23039584513829 $509 -11.500550590533265 $409 $510 forward 7 unknown #
coedge $-1 $279 $278 $416 $511 reversed $107 $-1 #
edge $-1 $512 1.9479204584885432e-014 $413 17.405867172110895 $407 $513 forward 7 unknown #
vertex $-1 $281 $514 #
straight-curve $-1 -50.460559726015717 7.2896825948191193 18.363846881572385 0 1 0 I I #
coedge $-1 $507 $282 $285 $420 reversed $405 $-1 #
coedge $-1 $282 $507 $411 $511 forward $405 $-1 #
vertex $-1 $283 $515 #
straight-curve $-1 -63.190404980620741 10.028603993669757 49.461073048390276 0 0 1 I I #
straight-curve $-1 -63.190404980620755 10.028603993669757 6.4930738735927775 -0.7313536940579346 0 -0.68199836817093118 I I #
edge $-1 $509 -19.130126385606722 $286 -10.028603993669757 $415 $516 forward 7 unknown #
point $-1 -63.190404980620741 10.028603993669757 18.363846881572385 #
point $-1 -50.460559726015717 10.028603993669757 18.363846881572385 #
edge $-1 $517 1 $517 0 $289 $-1 forward 7 unknown #
vertex $-1 $290 $518 #
ellipse-curve $-1 -54.56521150795885 14.579365189638239 10.004616700715134 -0.68199836817093118 0 0.7313536940579346 1.4627073881158692 0 1.3639967363418624 1 I I #
point $-1 -55.362774965202348 14.579365189638239 13.792457113924437 #
loop $-1 $-1 $301 $293 #
plane-surface $-1 -63.190404980620741 0 0 1 0 0 0 0 -1 forward_v I I I I #
coedge $-1 $430 $296 $298 $434 reversed $186 $-1 #
coedge $-1 $296 $429 $519 $520 reversed $186 $-1 #
coedge $-1 $304 $299 $296 $432 forward $294 $-1 #
edge $-1 $435 -24.23039584513829 $521 -11.500550590533265 $431 $522 forward 7 unknown #
coedge $-1 $298 $297 $438 $523 reversed $116 $-1 #
edge $-1 $524 1.9479204584885432e-014 $435 17.405867172110895 $429 $525 forward 7 unknown #
vertex $-1 $300 $526 #
straight-curve $-1 -50.460559726015717 14.679571846677714 18.363846881572385 0 1 0 I I #
coedge $-1 $519 $301 $304 $442 reversed $427 $-1 #
coedge $-1 $301 $519 $433 $523 forward $427 $-1 #
vertex $-1 $302 $527 #
straight-curve $-1 -63.190404980620741 24.808382497386944 49.461073048390276 0 0 1 I I #
straight-curve $-1 -63.190404980620755 24.808382497386944 6.4930738735927775 -0.7313536940579346 0 -0.68199836817093118 I I #
edge $-1 $521 -33.909904889323911 $305 -24.808382497386944 $437 $528 forward 7 unknown #
point $-1 -63.190404980620741 24.808382497386944 18.363846881572385 #
point $-1 -50.460559726015717 24.808382497386944 18.363846881572385 #
edge $-1 $529 1 $529 0 $308 $-1 forward 7 unknown #
vertex $-1 $309 $530 #
ellipse-curve $-1 -54.56521150795885 29.359143693355428 10.004616700715134 -0.68199836817093118 0 0.7313536940579346 1.4627073881158692 0 1.3639967363418624 1 I I #
point $-1 -55.362774965202348 29.359143693355428 13.792457113924437 #
plane-surface $-1 63.190404980620741 0 0 -1 0 0 0 0 1 forward_v I I I I #
coedge $-1 $317 $315 $319 $454 reversed $201 $-1 #
edge $-1 $330 -18.363846881572385 $456 18.363846881572385 $329 $531 forward 7 unknown #
vertex $-1 $454 $532 #
straight-curve $-1 -63.190404980620741 -39.588161001104119 0 0 0 -1 I I #
edge $-1 $452 -39.588161001104119 $456 39.588161001104119 $450 $533 forward 7 unknown #
straight-curve $-1 0 -39.588161001104119 -18.363846881572385 -1 0 0 I I #
vertex $-1 $322 $534 #
straight-curve $-1 0 39.588161001104119 -18.363846881572385 1 0 0 I I #
point $-1 63.190404980620741 39.588161001104119 -18.363846881572385 #
point $-1 63.190404980620741 -39.588161001104119 -18.363846881572385 #
straight-curve $-1 -63.190404980620741 0 18.363846881572385 0 -1 0 I I #
point $-1 -63.190404980620741 39.588161001104119 18.363846881572385 #
point $-1 -63.190404980620741 -39.588161001104119 18.363846881572385 #
straight-curve $-1 63.190404980620741 -39.588161001104119 0 0 0 -1 I I #
straight-curve $-1 63.190404980620741 39.588161001104119 0 0 0 -1 I I #
plane-surface $-1 63.190404980620741 0 0 -1 0 0 0 0 1 forward_v I I I I #
coedge $-1 $343 $342 $353 $477 reversed $133 $-1 #
coedge $-1 $535 $346 $343 $468 forward $340 $-1 #
edge $-1 $469 19.530953013764623 $536 39.588161001104119 $343 $537 forward 7 unknown #
vertex $-1 $468 $538 #
straight-curve $-1 -63.190404980620741 -19.530953013764623 8.1388656807337476 0 0 -1 I I #
coedge $-1 $346 $535 $348 $473 forward $340 $-1 #
straight-curve $-1 0 -19.530953013764623 18.363846881572385 -1 0 0 I I #
edge $-1 $480 -39.588161001104119 $349 -19.530953013764623 $348 $539 forward 7 unknown #
point $-1 63.190404980620741 -19.530953013764623 18.363846881572385 #
straight-curve $-1 -63.190404980620741 -14.779778503717186 14.191615841362605 0 -1 0 I I #
coedge $-1 $353 $352 $535 $540 reversed $220 $-1 #
edge $-1 $536 -18.363846881572385 $354 -14.191615841362605 $466 $541 forward 7 unknown #
point $-1 -63.190404980620741 -39.588161001104119 14.191615841362605 #
point $-1 -63.190404980620741 -19.530953013764623 14.191615841362605 #
vertex $-1 $473 $542 #
straight-curve $-1 63.190404980620741 -39.588161001104119 0 0 0 -1 I I #
coedge $-1 $363 $486 $365 $484 reversed $237 $-1 #
straight-curve $-1 -63.190404980620741 -10.429430621827658 49.461073048390276 0 0 -1 I I #
edge $-1 $366 10.429430621827658 $491 19.530953013764623 $482 $543 forward 7 unknown #
point $-1 -63.190404980620741 -10.429430621827658 18.363846881572385 #
coedge $-1 $482 $368 $371 $488 forward $237 $-1 #
straight-curve $-1 -63.190404980620741 -7.4900959088980699 6.4930738735927891 0 -1 0 I I #
edge $-1 $372 -42.967999174797484 $491 -31.09722616681789 $486 $544 forward 7 unknown #
point $-1 -63.190404980620741 -19.530953013764623 6.4930738735927909 #
point $-1 -63.190404980620741 -10.429430621827658 6.4930738735927909 #
vertex $-1 $488 $545 #
straight-curve $-1 0 -19.530953013764623 18.363846881572385 1 0 0 I I #
vertex $-1 $379 $546 #
point $-1 -53.102504119842983 -14.98019181779614 11.368613437056997 #
coedge $-1 $394 $393 $386 $496 forward $383 $-1 #
edge $-1 $497 31.09722616681789 $500 42.967999174797484 $495 $547 forward 7 unknown #
vertex $-1 $398 $548 #
straight-curve $-1 -74.690955571154007 4.3503478818895314 18.363846881572385 -1 0 0 I I #
edge $-1 $500 -4.4505545389290067 $395 4.6509678530079572 $394 $549 forward 7 unknown #
vertex $-1 $499 $550 #
straight-curve $-1 -63.190404980620755 4.3503478818895314 6.4930738735927775 0.7313536940579346 0 0.68199836817093118 I I #
point $-1 -50.460559726015717 4.3503478818895314 18.363846881572385 #
point $-1 -63.190404980620741 -4.7511745100474325 6.4930738735927909 #
straight-curve $-1 -63.190404980620741 0 18.363846881572385 0 -1 0 I I #
vertex $-1 $401 $551 #
point $-1 -53.102504119842983 -0.20041331407895058 11.368613437056997 #
coedge $-1 $416 $415 $408 $508 forward $405 $-1 #
edge $-1 $509 31.09722616681789 $512 42.967999174797484 $507 $552 forward 7 unknown #
vertex $-1 $420 $553 #
straight-curve $-1 -74.690955571154007 19.130126385606722 18.363846881572385 -1 0 0 I I #
edge $-1 $512 -11.840443790787603 $417 -2.7389213988506373 $416 $554 forward 7 unknown #
vertex $-1 $511 $555 #
straight-curve $-1 -63.190404980620755 19.130126385606722 6.4930738735927775 0.7313536940579346 0 0.68199836817093118 I I #
point $-1 -50.460559726015717 19.130126385606722 18.363846881572385 #
point $-1 -63.190404980620741 10.028603993669757 6.4930738735927909 #
straight-curve $-1 -63.190404980620741 0 18.363846881572385 0 -1 0 I I #
vertex $-1 $423 $556 #
point $-1 -53.102504119842983 14.579365189638239 11.368613437056997 #
coedge $-1 $438 $437 $430 $520 forward $427 $-1 #
edge $-1 $521 31.09722616681789 $524 42.967999174797484 $519 $557 forward 7 unknown #
vertex $-1 $442 $558 #
straight-curve $-1 -74.690955571154007 33.909904889323911 18.363846881572385 -1 0 0 I I #
edge $-1 $524 -19.230333042646198 $439 -10.12881065070923 $438 $559 forward 7 unknown #
vertex $-1 $523 $560 #
straight-curve $-1 -63.190404980620755 33.909904889323911 6.4930738735927775 0.7313536940579346 0 0.68199836817093118 I I #
point $-1 -50.460559726015717 33.909904889323911 18.363846881572385 #
point $-1 -63.190404980620741 24.808382497386944 6.4930738735927909 #
straight-curve $-1 -63.190404980620741 0 18.363846881572385 0 -1 0 I I #
vertex $-1 $445 $561 #
point $-1 -53.102504119842983 29.359143693355428 11.368613437056997 #
straight-curve $-1 -63.190404980620741 39.588161001104119 0 0 0 -1 I I #
point $-1 -63.190404980620741 -39.588161001104119 -18.363846881572385 #
straight-curve $-1 -63.190404980620741 0 -18.363846881572385 0 1 0 I I #
point $-1 -63.190404980620741 39.588161001104119 -18.363846881572385 #
coedge $-1 $471 $467 $476 $540 forward $340 $-1 #
vertex $-1 $468 $562 #
straight-curve $-1 -63.190404980620741 0 18.363846881572385 0 -1 0 I I #
point $-1 -63.190404980620741 -19.530953013764623 18.363846881572385 #
straight-curve $-1 63.190404980620741 0 18.363846881572385 0 1 0 I I #
edge $-1 $536 -63.190404980620741 $480 63.190404980620741 $476 $563 forward 7 unknown #
straight-curve $-1 -63.190404980620741 -39.588161001104119 0 0 0 -1 I I #
point $-1 63.190404980620741 -39.588161001104119 18.363846881572385 #
straight-curve $-1 -63.190404980620741 0 18.363846881572385 0 -1 0 I I #
straight-curve $-1 -63.190404980620741 -19.530953013764623 49.461073048390276 0 0 1 I I #
point $-1 -63.190404980620741 -19.530953013764623 18.363846881572385 #
point $-1 -53.201214771616989 -14.98019181779614 8.5419093125992642 #
straight-curve $-1 -63.190404980620741 4.3503478818895314 49.461073048390276 0 0 -1 I I #
point $-1 -63.190404980620741 4.3503478818895314 18.363846881572385 #
straight-curve $-1 -63.190404980620741 -0.10020665703947529 6.4930738735927891 0 -1 0 I I #
point $-1 -63.190404980620741 4.3503478818895314 6.4930738735927909 #
point $-1 -53.201214771616989 -0.20041331407895058 8.5419093125992642 #
straight-curve $-1 -63.190404980620741 19.130126385606722 49.461073048390276 0 0 -1 I I #
point $-1 -63.190404980620741 19.130126385606722 18.363846881572385 #
straight-curve $-1 -63.190404980620741 7.2896825948191193 6.4930738735927891 0 -1 0 I I #
point $-1 -63.190404980620741 19.130126385606722 6.4930738735927909 #
point $-1 -53.201214771616989 14.579365189638239 8.5419093125992642 #
straight-curve $-1 -63.190404980620741 33.909904889323911 49.461073048390276 0 0 -1 I I #
point $-1 -63.190404980620741 33.909904889323911 18.363846881572385 #
straight-curve $-1 -63.190404980620741 14.679571846677714 6.4930738735927891 0 -1 0 I I #
point $-1 -63.190404980620741 33.909904889323911 6.4930738735927909 #
point $-1 -53.201214771616989 29.359143693355428 8.5419093125992642 #
point $-1 -63.190404980620741 -39.588161001104119 18.363846881572385 #
straight-curve $-1 0 -39.588161001104119 18.363846881572385 1 0 0 I I #
End-of-ACIS-data 