500 0 8 0           
7 Unknown 11 ACIS 5.0 NT 24 Fri Mar 26 02:25:11 1999 
-1 9.9999999999999995e-007 1e-010 
body $-1 $8 $-1 $9 #
body $-1 $10 $-1 $11 #
body $-1 $12 $-1 $13 #
body $-1 $14 $-1 $15 #
body $-1 $16 $-1 $17 #
body $-1 $18 $-1 $19 #
body $-1 $20 $-1 $21 #
body $-1 $22 $-1 $23 #
lump $-1 $-1 $24 $0 #
transform $-1 1 0 0 0 1 0 0 0 1 72.691427350688201 49.517000105792597 23.892137671211955 1 rotate no_reflect no_shear #
lump $-1 $-1 $25 $1 #
transform $-1 1 0 0 0 1 0 0 0 1 72.691427350688201 49.517000105792597 23.892137671211955 1 rotate no_reflect no_shear #
lump $-1 $-1 $26 $2 #
transform $-1 1 0 0 0 1 0 0 0 1 72.691427350688201 49.517000105792597 23.892137671211955 1 rotate no_reflect no_shear #
lump $-1 $-1 $27 $3 #
transform $-1 1 0 0 0 1 0 0 0 1 72.691427350688201 49.517000105792597 23.892137671211955 1 rotate no_reflect no_shear #
lump $-1 $-1 $28 $4 #
transform $-1 1 0 0 0 1 0 0 0 1 72.691427350688201 49.517000105792597 23.892137671211955 1 rotate no_reflect no_shear #
lump $-1 $-1 $29 $5 #
transform $-1 1 0 0 0 1 0 0 0 1 72.691427350688201 49.517000105792597 23.892137671211955 1 rotate no_reflect no_shear #
lump $-1 $-1 $30 $6 #
transform $-1 1 0 0 0 1 0 0 0 1 72.691427350688201 49.517000105792597 23.892137671211955 1 rotate no_reflect no_shear #
lump $-1 $-1 $31 $7 #
transform $-1 1 0 0 0 1 0 0 0 1 72.691427350688201 49.517000105792597 23.892137671211955 1 rotate no_reflect no_shear #
shell $-1 $-1 $-1 $32 $-1 $8 #
shell $-1 $-1 $-1 $33 $-1 $10 #
shell $-1 $-1 $-1 $34 $-1 $12 #
shell $-1 $-1 $-1 $35 $-1 $14 #
shell $-1 $-1 $-1 $36 $-1 $16 #
shell $-1 $-1 $-1 $37 $-1 $18 #
shell $-1 $-1 $-1 $38 $-1 $20 #
shell $-1 $-1 $-1 $39 $-1 $22 #
face $-1 $40 $41 $24 $-1 $42 forward single #
face $-1 $43 $44 $25 $-1 $45 forward single #
face $-1 $46 $47 $26 $-1 $48 reversed single #
face $-1 $49 $50 $27 $-1 $51 forward single #
face $-1 $52 $53 $28 $-1 $54 reversed single #
face $-1 $55 $56 $29 $-1 $57 forward single #
face $-1 $58 $59 $30 $-1 $60 forward single #
face $-1 $61 $62 $31 $-1 $63 forward single #
face $-1 $64 $65 $24 $-1 $66 reversed single #
loop $-1 $-1 $67 $32 #
plane-surface $-1 0 0 23.892137671211955 0 0 1 1 0 0 forward_v I I I I #
face $-1 $68 $69 $25 $-1 $70 reversed single #
loop $-1 $-1 $71 $33 #
plane-surface $-1 0 -33.82494711909046 16.655656149210348 0 0 1 1 0 0 forward_v I I I I #
face $-1 $72 $73 $26 $-1 $74 reversed single #
loop $-1 $-1 $75 $34 #
plane-surface $-1 101.30575438149449 41.054930904644124 209.54389911547582 0 1 0 0.79863551827123203 0 0.60181501223851219 forward_v I I I I #
face $-1 $76 $77 $27 $-1 $78 forward single #
loop $-1 $79 $80 $35 #
cone-surface $-1 65.035712767746375 45.28596550521835 14.244597438304224 -0.79863551827123203 0 -0.60181501223851219 1.2036300244770244 0 -1.5972710365424641 1 I I 0 1 2 forward I I I I #
face $-1 $81 $82 $28 $-1 $83 reversed single #
loop $-1 $-1 $84 $36 #
plane-surface $-1 -171.84229701705848 25.556115979691185 119.13879757403579 0 1 0 -0.68199836817093118 0 0.7313536940579346 forward_v I I I I #
face $-1 $85 $86 $29 $-1 $87 forward single #
loop $-1 $88 $89 $37 #
cone-surface $-1 -66.378973898652731 27.914643955392741 17.953691635240592 0.68199836817093118 0 -0.7313536940579346 0.3656768470289673 0 0.34099918408546559 1 I I 0 1 0.5 forward I I I I #
face $-1 $90 $91 $30 $-1 $92 forward single #
loop $-1 $93 $94 $38 #
cone-surface $-1 -66.378973898652731 31.452435918945092 17.953691635240592 0.68199836817093118 0 -0.7313536940579346 0.3656768470289673 0 0.34099918408546559 1 I I 0 1 0.5 forward I I I I #
face $-1 $95 $96 $31 $-1 $97 forward single #
loop $-1 $98 $99 $39 #
cone-surface $-1 -66.378973898652731 34.990227882497443 17.953691635240592 0.68199836817093118 0 -0.7313536940579346 0.3656768470289673 0 0.34099918408546559 1 I I 0 1 0.5 forward I I I I #
face $-1 $100 $101 $24 $-1 $102 reversed single #
loop $-1 $-1 $103 $40 #
plane-surface $-1 0 0 -23.892137671211955 0 0 1 1 0 0 forward_v I I I I #
coedge $-1 $104 $105 $106 $107 forward $41 $-1 #
face $-1 $108 $109 $25 $-1 $110 reversed single #
loop $-1 $-1 $111 $43 #
plane-surface $-1 0 -33.82494711909046 3.6240980911814056 0 0 1 1 0 0 forward_v I I I I #
coedge $-1 $112 $113 $114 $115 reversed $44 $-1 #
face $-1 $116 $117 $26 $-1 $118 forward single #
loop $-1 $-1 $119 $46 #
plane-surface $-1 -14.802157130690475 45.285965505218364 122.05031463409715 0.79863551827123203 0 0.60181501223851219 0.60181501223851219 0 -0.79863551827123203 forward_v I I I I #
coedge $-1 $120 $121 $122 $123 reversed $47 $-1 #
face $-1 $-1 $124 $27 $-1 $125 forward single #
loop $-1 $126 $127 $49 #
cone-surface $-1 63.344410058194768 45.28596550521835 12.970109467807845 -0.79863551827123203 0 -0.60181501223851219 0.60181501223851219 0 -0.79863551827123203 1 I I -0.70710678118654746 0.70710678118654746 1 forward I I I I #
loop $-1 $-1 $128 $35 #
coedge $-1 $80 $80 $129 $130 reversed $50 $-1 #
face $-1 $131 $132 $28 $-1 $133 reversed single #
loop $-1 $-1 $134 $52 #
plane-surface $-1 -72.691427350688187 31.452435918945092 12.812509735496192 -0.68199836817093118 0 0.7313536940579346 0.7313536940579346 0 0.68199836817093118 forward_v I I I I #
coedge $-1 $135 $136 $137 $138 reversed $53 $-1 #
face $-1 $-1 $139 $29 $-1 $140 forward single #
loop $-1 $141 $142 $55 #
cone-surface $-1 -65.83674388101312 27.914643955392741 17.37222114361262 0.68199836817093118 0 -0.7313536940579346 0.18283842351448365 0 0.17049959204273279 1 I I -0.70710678118654746 0.70710678118654746 0.25 forward I I I I #
loop $-1 $-1 $143 $37 #
coedge $-1 $89 $89 $144 $145 reversed $56 $-1 #
face $-1 $-1 $146 $30 $-1 $147 forward single #
loop $-1 $148 $149 $58 #
cone-surface $-1 -65.83674388101312 31.452435918945092 17.37222114361262 0.68199836817093118 0 -0.7313536940579346 0.18283842351448365 0 0.17049959204273279 1 I I -0.70710678118654746 0.70710678118654746 0.25 forward I I I I #
loop $-1 $-1 $150 $38 #
coedge $-1 $94 $94 $151 $152 reversed $59 $-1 #
face $-1 $-1 $153 $31 $-1 $154 forward single #
loop $-1 $155 $156 $61 #
cone-surface $-1 -65.83674388101312 34.990227882497443 17.37222114361262 0.68199836817093118 0 -0.7313536940579346 0.18283842351448365 0 0.17049959204273279 1 I I -0.70710678118654746 0.70710678118654746 0.25 forward I I I I #
loop $-1 $-1 $157 $39 #
coedge $-1 $99 $99 $158 $159 reversed $62 $-1 #
face $-1 $160 $161 $24 $-1 $162 reversed single #
loop $-1 $-1 $163 $64 #
plane-surface $-1 0 -49.517000105792597 0 0 1 0 0 0 1 forward_v I I I I #
coedge $-1 $164 $165 $166 $167 forward $65 $-1 #
coedge $-1 $168 $67 $169 $170 forward $41 $-1 #
coedge $-1 $67 $168 $171 $172 forward $41 $-1 #
coedge $-1 $173 $174 $67 $107 reversed $175 $-1 #
edge $-1 $176 -49.517000105792597 $177 49.517000105792597 $106 $178 forward 7 unknown #
face $-1 $179 $180 $25 $-1 $181 reversed single #
loop $-1 $-1 $182 $68 #
plane-surface $-1 0 -18.132894132388323 10.139877120195877 0 -1 0 0 0 -1 forward_v I I I I #
coedge $-1 $183 $184 $185 $186 reversed $69 $-1 #
coedge $-1 $187 $71 $188 $189 forward $44 $-1 #
coedge $-1 $71 $187 $190 $191 reversed $44 $-1 #
coedge $-1 $192 $193 $71 $115 forward $194 $-1 #
edge $-1 $195 1.2204205728430928 $196 32.604526546247371 $114 $197 forward 7 unknown #
face $-1 $198 $199 $26 $-1 $200 reversed single #
loop $-1 $-1 $201 $72 #
plane-surface $-1 0 0 23.892137671211955 0 0 1 1 0 0 forward_v I I I I #
coedge $-1 $202 $203 $204 $205 reversed $73 $-1 #
coedge $-1 $121 $75 $206 $207 reversed $47 $-1 #
coedge $-1 $75 $120 $202 $208 reversed $47 $-1 #
coedge $-1 $204 $209 $75 $123 forward $199 $-1 #
edge $-1 $210 80.879811886525957 $211 98.829546435825733 $122 $212 forward 7 unknown #
loop $-1 $-1 $129 $76 #
plane-surface $-1 -14.802157130690475 45.285965505218364 122.05031463409715 0.79863551827123203 0 0.60181501223851219 0.60181501223851219 0 -0.79863551827123203 forward_v I I I I #
loop $-1 $-1 $213 $49 #
coedge $-1 $127 $127 $128 $214 reversed $77 $-1 #
coedge $-1 $128 $128 $127 $214 forward $79 $-1 #
coedge $-1 $129 $129 $80 $130 forward $124 $-1 #
edge $-1 $215 0 $215 6.2831853071796004 $129 $216 forward 7 unknown #
face $-1 $217 $218 $28 $-1 $219 reversed single #
loop $-1 $-1 $220 $81 #
plane-surface $-1 -171.84229701705848 37.348755858198999 119.13879757403579 0 -1 0 0.68199836817093118 0 -0.7313536940579346 forward_v I I I I #
coedge $-1 $221 $222 $223 $224 reversed $82 $-1 #
coedge $-1 $136 $84 $225 $226 reversed $53 $-1 #
coedge $-1 $84 $135 $221 $227 reversed $53 $-1 #
coedge $-1 $223 $228 $84 $138 forward $229 $-1 #
edge $-1 $230 13.229721157841041 $231 25.111167210718271 $137 $232 forward 7 unknown #
loop $-1 $-1 $144 $85 #
plane-surface $-1 -72.691427350688187 31.452435918945092 12.812509735496192 -0.68199836817093118 0 0.7313536940579346 0.7313536940579346 0 0.68199836817093118 forward_v I I I I #
loop $-1 $-1 $233 $55 #
coedge $-1 $142 $142 $143 $234 reversed $86 $-1 #
coedge $-1 $143 $143 $142 $234 forward $88 $-1 #
coedge $-1 $144 $144 $89 $145 forward $139 $-1 #
edge $-1 $235 0 $235 6.2831853071796004 $144 $236 forward 7 unknown #
loop $-1 $-1 $151 $90 #
plane-surface $-1 -72.691427350688187 31.452435918945092 12.812509735496192 -0.68199836817093118 0 0.7313536940579346 0.7313536940579346 0 0.68199836817093118 forward_v I I I I #
loop $-1 $-1 $237 $58 #
coedge $-1 $149 $149 $150 $238 reversed $91 $-1 #
coedge $-1 $150 $150 $149 $238 forward $93 $-1 #
coedge $-1 $151 $151 $94 $152 forward $146 $-1 #
edge $-1 $239 0 $239 6.2831853071796004 $151 $240 forward 7 unknown #
loop $-1 $-1 $158 $95 #
plane-surface $-1 -72.691427350688187 31.452435918945092 12.812509735496192 -0.68199836817093118 0 0.7313536940579346 0.7313536940579346 0 0.68199836817093118 forward_v I I I I #
loop $-1 $-1 $241 $61 #
coedge $-1 $156 $156 $157 $242 reversed $96 $-1 #
coedge $-1 $157 $157 $156 $242 forward $98 $-1 #
coedge $-1 $158 $158 $99 $159 forward $153 $-1 #
edge $-1 $243 0 $243 6.2831853071796004 $158 $244 forward 7 unknown #
face $-1 $245 $246 $24 $-1 $247 reversed single #
loop $-1 $-1 $248 $100 #
plane-surface $-1 -72.691427350688201 0 0 1 0 0 0 0 -1 forward_v I I I I #
coedge $-1 $249 $171 $250 $251 forward $101 $-1 #
coedge $-1 $252 $103 $249 $253 forward $65 $-1 #
coedge $-1 $103 $252 $254 $255 forward $65 $-1 #
coedge $-1 $174 $173 $103 $167 reversed $175 $-1 #
edge $-1 $256 -49.517000105792597 $257 49.517000105792597 $166 $258 forward 7 unknown #
coedge $-1 $105 $104 $259 $260 forward $41 $-1 #
coedge $-1 $261 $262 $104 $170 reversed $246 $-1 #
edge $-1 $177 -72.691427350688201 $263 72.691427350688201 $169 $264 forward 7 unknown #
coedge $-1 $163 $265 $105 $172 reversed $101 $-1 #
edge $-1 $266 -72.691427350688201 $176 72.691427350688201 $171 $267 forward 7 unknown #
coedge $-1 $166 $106 $265 $268 forward $175 $-1 #
coedge $-1 $106 $166 $261 $269 reversed $175 $-1 #
loop $-1 $-1 $173 $245 #
vertex $-1 $107 $270 #
vertex $-1 $107 $271 #
straight-curve $-1 72.691427350688201 0 23.892137671211955 0 1 0 I I #
face $-1 $272 $273 $25 $-1 $274 reversed single #
loop $-1 $-1 $275 $108 #
plane-surface $-1 -72.691427350688201 0 0 1 0 0 0 0 -1 forward_v I I I I #
coedge $-1 $276 $188 $193 $277 reversed $109 $-1 #
coedge $-1 $278 $111 $279 $280 reversed $69 $-1 #
coedge $-1 $111 $278 $276 $281 forward $69 $-1 #
coedge $-1 $193 $192 $111 $186 forward $194 $-1 #
edge $-1 $282 -32.604526546247371 $283 -1.2204205728430928 $185 $284 forward 7 unknown #
coedge $-1 $113 $112 $275 $285 reversed $44 $-1 #
coedge $-1 $182 $286 $112 $189 reversed $109 $-1 #
edge $-1 $195 -72.691427350688201 $287 72.691427350688201 $188 $288 forward 7 unknown #
coedge $-1 $289 $290 $113 $191 forward $273 $-1 #
edge $-1 $196 -72.691427350688201 $291 72.691427350688201 $190 $292 forward 7 unknown #
coedge $-1 $185 $114 $290 $293 forward $194 $-1 #
coedge $-1 $114 $185 $182 $277 forward $194 $-1 #
loop $-1 $-1 $114 $272 #
vertex $-1 $115 $294 #
vertex $-1 $293 $295 #
straight-curve $-1 72.691427350688201 -16.91247355954523 16.655656149210348 0 -1 0 I I #
face $-1 $-1 $296 $26 $-1 $297 reversed single #
loop $-1 $-1 $122 $116 #
plane-surface $-1 72.691427350688201 0 0 -1 0 0 0 0 1 forward_v I I I I #
coedge $-1 $206 $298 $299 $300 forward $117 $-1 #
coedge $-1 $299 $119 $121 $208 forward $73 $-1 #
coedge $-1 $119 $299 $301 $302 reversed $73 $-1 #
coedge $-1 $303 $122 $119 $205 forward $199 $-1 #
edge $-1 $211 18.411948152034942 $304 26.874017353183422 $204 $305 forward 7 unknown #
coedge $-1 $306 $201 $120 $207 forward $117 $-1 #
edge $-1 $307 8.512455376618064 $210 22.038550159940954 $206 $308 forward 7 unknown #
edge $-1 $211 -145.3828547013764 $307 -122.90735224920058 $121 $309 forward 7 unknown #
coedge $-1 $122 $303 $306 $310 reversed $199 $-1 #
vertex $-1 $310 $311 #
vertex $-1 $123 $312 #
straight-curve $-1 72.691427350688201 41.054930904644124 104.77194955773791 0 0 -1 I I #
coedge $-1 $213 $213 $-1 $313 reversed $126 $-1 #
edge $-1 $314 0 $314 6.2831853071796004 $127 $315 forward 7 unknown #
vertex $-1 $130 $316 #
ellipse-curve $-1 65.928379959026742 45.28596550521835 14.917270396562085 0.79863551827123203 0 0.60181501223851219 1.2036300244770244 0 -1.5972710365424641 1 I I #
face $-1 $-1 $229 $28 $-1 $317 forward single #
loop $-1 $-1 $318 $131 #
plane-surface $-1 -72.691427350688201 0 0 1 0 0 0 0 -1 forward_v I I I I #
coedge $-1 $319 $320 $321 $322 reversed $132 $-1 #
coedge $-1 $323 $134 $136 $227 forward $82 $-1 #
coedge $-1 $134 $323 $319 $324 forward $82 $-1 #
coedge $-1 $321 $137 $134 $224 forward $229 $-1 #
edge $-1 $231 9.8298980202186392 $325 21.622537898726453 $223 $326 forward 7 unknown #
coedge $-1 $327 $328 $135 $226 forward $218 $-1 #
edge $-1 $329 -46.756889051521718 $230 -35.677261115805941 $225 $330 forward 7 unknown #
edge $-1 $231 -16.245827633621033 $329 1.8873468352005311e-014 $136 $331 forward 7 unknown #
coedge $-1 $137 $321 $327 $332 forward $229 $-1 #
loop $-1 $-1 $321 $217 #
vertex $-1 $226 $333 #
vertex $-1 $138 $334 #
straight-curve $-1 -85.921148508529242 25.556115979691185 23.892137671211955 1 0 0 I I #
coedge $-1 $233 $233 $-1 $335 reversed $141 $-1 #
edge $-1 $336 0 $336 6.2831853071796004 $142 $337 forward 7 unknown #
vertex $-1 $145 $338 #
ellipse-curve $-1 -66.750704324249597 27.914643955392741 18.352323703354063 -0.68199836817093118 0 0.7313536940579346 0.3656768470289673 0 0.34099918408546559 1 I I #
coedge $-1 $237 $237 $-1 $339 reversed $148 $-1 #
edge $-1 $340 0 $340 6.2831853071796004 $149 $341 forward 7 unknown #
vertex $-1 $152 $342 #
ellipse-curve $-1 -66.750704324249597 31.452435918945092 18.352323703354063 -0.68199836817093118 0 0.7313536940579346 0.3656768470289673 0 0.34099918408546559 1 I I #
coedge $-1 $241 $241 $-1 $343 reversed $155 $-1 #
edge $-1 $344 0 $344 6.2831853071796004 $156 $345 forward 7 unknown #
vertex $-1 $159 $346 #
ellipse-curve $-1 -66.750704324249597 34.990227882497443 18.352323703354063 -0.68199836817093118 0 0.7313536940579346 0.3656768470289673 0 0.34099918408546559 1 I I #
face $-1 $-1 $175 $24 $-1 $347 reversed single #
loop $-1 $-1 $261 $160 #
plane-surface $-1 0 49.517000105792597 0 0 -1 0 0 0 -1 forward_v I I I I #
coedge $-1 $348 $259 $262 $349 forward $161 $-1 #
coedge $-1 $265 $163 $164 $253 reversed $101 $-1 #
coedge $-1 $259 $348 $163 $251 reversed $161 $-1 #
edge $-1 $266 -23.892137671211955 $350 23.892137671211955 $250 $351 forward 7 unknown #
coedge $-1 $165 $164 $348 $352 forward $65 $-1 #
edge $-1 $257 -72.691427350688201 $350 72.691427350688201 $249 $353 forward 7 unknown #
coedge $-1 $262 $261 $165 $255 reversed $246 $-1 #
edge $-1 $354 -72.691427350688201 $256 72.691427350688201 $254 $355 forward 7 unknown #
vertex $-1 $167 $356 #
vertex $-1 $268 $357 #
straight-curve $-1 72.691427350688201 0 -23.892137671211955 0 -1 0 I I #
coedge $-1 $248 $250 $168 $260 reversed $161 $-1 #
edge $-1 $263 -49.517000105792597 $266 49.517000105792597 $259 $358 forward 7 unknown #
coedge $-1 $254 $169 $174 $269 forward $246 $-1 #
coedge $-1 $169 $254 $248 $349 reversed $246 $-1 #
vertex $-1 $170 $359 #
straight-curve $-1 0 49.517000105792597 23.892137671211955 -1 0 0 I I #
coedge $-1 $171 $249 $173 $268 reversed $101 $-1 #
vertex $-1 $260 $360 #
straight-curve $-1 0 -49.517000105792597 23.892137671211955 1 0 0 I I #
edge $-1 $176 -23.892137671211955 $257 23.892137671211955 $173 $361 forward 7 unknown #
edge $-1 $177 -23.892137671211955 $256 23.892137671211955 $174 $362 forward 7 unknown #
point $-1 72.691427350688201 -49.517000105792597 23.892137671211955 #
point $-1 72.691427350688201 49.517000105792597 23.892137671211955 #
face $-1 $-1 $194 $25 $-1 $363 reversed single #
loop $-1 $-1 $190 $179 #
plane-surface $-1 0 -49.517000105792597 0 0 1 0 0 0 1 forward_v I I I I #
coedge $-1 $364 $365 $187 $285 forward $180 $-1 #
coedge $-1 $286 $182 $184 $281 reversed $109 $-1 #
edge $-1 $283 -1.4458404689165327 $195 11.585717589112409 $193 $366 forward 7 unknown #
coedge $-1 $184 $183 $367 $368 reversed $69 $-1 #
coedge $-1 $290 $289 $183 $280 forward $273 $-1 #
edge $-1 $369 -72.691427350688201 $282 72.691427350688201 $279 $370 forward 7 unknown #
edge $-1 $371 -72.691427350688201 $283 72.691427350688201 $276 $372 forward 7 unknown #
vertex $-1 $280 $373 #
vertex $-1 $186 $374 #
straight-curve $-1 72.691427350688201 -16.91247355954523 3.6240980911814056 0 1 0 I I #
edge $-1 $291 -32.604526546247371 $287 -1.2204205728430928 $275 $375 forward 7 unknown #
coedge $-1 $188 $276 $364 $376 reversed $109 $-1 #
vertex $-1 $285 $377 #
straight-curve $-1 0 -18.132894132388323 16.655656149210348 -1 0 0 I I #
coedge $-1 $279 $190 $365 $378 forward $273 $-1 #
coedge $-1 $190 $279 $192 $293 reversed $273 $-1 #
vertex $-1 $378 $379 #
straight-curve $-1 0 -49.517000105792597 16.655656149210348 -1 0 0 I I #
edge $-1 $196 -16.655656149210348 $282 -3.6240980911814056 $192 $380 forward 7 unknown #
point $-1 72.691427350688201 -18.132894132388323 16.655656149210348 #
point $-1 72.691427350688201 -49.517000105792597 16.655656149210348 #
loop $-1 $-1 $301 $198 #
plane-surface $-1 0 49.517000105792597 0 0 -1 0 0 0 -1 forward_v I I I I #
coedge $-1 $201 $306 $381 $382 forward $117 $-1 #
coedge $-1 $203 $202 $201 $300 reversed $73 $-1 #
edge $-1 $383 -26.874017353183422 $307 -18.411948152034942 $201 $384 forward 7 unknown #
coedge $-1 $381 $385 $203 $302 forward $296 $-1 #
edge $-1 $304 -92.191916372510406 $383 -69.716413920334602 $301 $386 forward 7 unknown #
coedge $-1 $209 $204 $385 $387 reversed $199 $-1 #
vertex $-1 $302 $388 #
straight-curve $-1 72.691427350688201 22.642982752609182 5.9424031219121787 0 1 0 I I #
coedge $-1 $298 $206 $209 $310 forward $117 $-1 #
vertex $-1 $207 $389 #
straight-curve $-1 50.652877190747247 41.054930904644124 23.892137671211955 1 0 0 I I #
straight-curve $-1 -14.802157130690475 41.054930904644124 122.05031463409715 -0.60181501223851219 0 0.79863551827123203 I I #
edge $-1 $210 41.054930904644124 $390 49.517000105792597 $209 $391 forward 7 unknown #
point $-1 72.691427350688201 41.054930904644124 23.892137671211955 #
point $-1 72.691427350688201 41.054930904644124 5.9424031219121787 #
edge $-1 $392 1 $392 0 $213 $-1 forward 7 unknown #
vertex $-1 $214 $393 #
ellipse-curve $-1 64.143045576465994 45.28596550521835 13.571924480046357 0.79863551827123203 0 0.60181501223851219 1.2036300244770244 0 -1.5972710365424641 1 I I #
point $-1 67.132009983503764 45.28596550521835 13.319999360019626 #
plane-surface $-1 0 0 23.892137671211955 0 0 1 1 0 0 forward_v I I I I #
coedge $-1 $328 $327 $320 $394 forward $218 $-1 #
coedge $-1 $320 $220 $222 $324 reversed $132 $-1 #
coedge $-1 $220 $319 $318 $394 reversed $132 $-1 #
coedge $-1 $228 $223 $220 $322 forward $229 $-1 #
edge $-1 $325 -25.111167210718271 $395 -13.229721157841041 $321 $396 forward 7 unknown #
coedge $-1 $222 $221 $328 $397 reversed $82 $-1 #
edge $-1 $398 -1.8873468352005311e-014 $325 16.245827633621033 $319 $399 forward 7 unknown #
vertex $-1 $224 $400 #
straight-curve $-1 -60.809981297810978 15.726217959472546 23.892137671211955 0 1 0 I I #
coedge $-1 $318 $225 $228 $332 reversed $218 $-1 #
coedge $-1 $225 $318 $323 $397 forward $218 $-1 #
vertex $-1 $226 $401 #
straight-curve $-1 -72.691427350688201 25.556115979691185 59.569398787017896 0 0 1 I I #
straight-curve $-1 -72.691427350688187 25.556115979691185 12.812509735496192 -0.7313536940579346 0 -0.68199836817093118 I I #
edge $-1 $395 -37.348755858198999 $230 -25.556115979691185 $327 $402 forward 7 unknown #
point $-1 -72.691427350688201 25.556115979691185 23.892137671211955 #
point $-1 -60.809981297810971 25.556115979691185 23.892137671211955 #
edge $-1 $403 1 $403 0 $233 $-1 forward 7 unknown #
vertex $-1 $234 $404 #
ellipse-curve $-1 -66.007243473055851 27.914643955392741 17.555059567127103 -0.68199836817093118 0 0.7313536940579346 0.3656768470289673 0 0.34099918408546559 1 I I #
point $-1 -66.385027477220632 27.914643955392741 18.693322887439546 #
edge $-1 $405 1 $405 0 $237 $-1 forward 7 unknown #
vertex $-1 $238 $406 #
ellipse-curve $-1 -66.007243473055851 31.452435918945092 17.555059567127103 -0.68199836817093118 0 0.7313536940579346 0.3656768470289673 0 0.34099918408546559 1 I I #
point $-1 -66.385027477220632 31.452435918945092 18.693322887439546 #
edge $-1 $407 1 $407 0 $241 $-1 forward 7 unknown #
vertex $-1 $242 $408 #
ellipse-curve $-1 -66.007243473055851 34.990227882497443 17.555059567127103 -0.68199836817093118 0 0.7313536940579346 0.3656768470289673 0 0.34099918408546559 1 I I #
point $-1 -66.385027477220632 34.990227882497443 18.693322887439546 #
plane-surface $-1 72.691427350688201 0 0 -1 0 0 0 0 1 forward_v I I I I #
coedge $-1 $250 $248 $252 $352 reversed $161 $-1 #
edge $-1 $263 -23.892137671211955 $354 23.892137671211955 $262 $409 forward 7 unknown #
vertex $-1 $352 $410 #
straight-curve $-1 -72.691427350688201 -49.517000105792597 0 0 0 -1 I I #
edge $-1 $350 -49.517000105792597 $354 49.517000105792597 $348 $411 forward 7 unknown #
straight-curve $-1 0 -49.517000105792597 -23.892137671211955 -1 0 0 I I #
vertex $-1 $255 $412 #
straight-curve $-1 0 49.517000105792597 -23.892137671211955 1 0 0 I I #
point $-1 72.691427350688201 49.517000105792597 -23.892137671211955 #
point $-1 72.691427350688201 -49.517000105792597 -23.892137671211955 #
straight-curve $-1 -72.691427350688201 0 23.892137671211955 0 -1 0 I I #
point $-1 -72.691427350688201 49.517000105792597 23.892137671211955 #
point $-1 -72.691427350688201 -49.517000105792597 23.892137671211955 #
straight-curve $-1 72.691427350688201 -49.517000105792597 0 0 0 -1 I I #
straight-curve $-1 72.691427350688201 49.517000105792597 0 0 0 -1 I I #
plane-surface $-1 72.691427350688201 0 0 -1 0 0 0 0 1 forward_v I I I I #
coedge $-1 $367 $275 $286 $376 forward $180 $-1 #
coedge $-1 $275 $367 $289 $378 reversed $180 $-1 #
straight-curve $-1 72.691427350688201 -18.132894132388323 5.0699385600979383 0 0 1 I I #
coedge $-1 $365 $364 $278 $368 forward $180 $-1 #
edge $-1 $371 1.2204205728430928 $369 32.604526546247371 $367 $413 forward 7 unknown #
vertex $-1 $280 $414 #
straight-curve $-1 0 -49.517000105792597 3.6240980911814056 1 0 0 I I #
vertex $-1 $368 $415 #
straight-curve $-1 0 -18.132894132388323 3.6240980911814056 1 0 0 I I #
point $-1 72.691427350688201 -49.517000105792597 3.6240980911814056 #
point $-1 72.691427350688201 -18.132894132388323 3.6240980911814056 #
straight-curve $-1 -72.691427350688201 -16.91247355954523 16.655656149210348 0 1 0 I I #
edge $-1 $287 -11.585717589112409 $371 1.4458404689165327 $364 $416 forward 7 unknown #
point $-1 -72.691427350688201 -18.132894132388323 16.655656149210348 #
edge $-1 $291 -16.655656149210348 $369 -3.6240980911814056 $365 $417 forward 7 unknown #
point $-1 -72.691427350688201 -49.517000105792597 16.655656149210348 #
straight-curve $-1 72.691427350688201 -49.517000105792597 0 0 0 -1 I I #
coedge $-1 $385 $301 $298 $382 reversed $296 $-1 #
edge $-1 $390 -72.691427350688201 $383 -59.165332567365311 $381 $418 forward 7 unknown #
vertex $-1 $302 $419 #
straight-curve $-1 59.165332567365311 22.642982752609182 23.892137671211955 0 -1 0 I I #
coedge $-1 $301 $381 $303 $387 forward $296 $-1 #
straight-curve $-1 17.208948070673955 49.517000105792597 79.570142034490118 -0.60181501223851219 0 0.79863551827123203 I I #
edge $-1 $390 -23.892137671211955 $304 -5.9424031219121787 $303 $420 forward 7 unknown #
point $-1 72.691427350688201 49.517000105792604 5.9424031219121787 #
point $-1 59.165332567365311 41.054930904644124 23.892137671211955 #
vertex $-1 $310 $421 #
straight-curve $-1 72.691427350688201 0 23.892137671211955 0 1 0 I I #
vertex $-1 $313 $422 #
point $-1 65.34667560094303 45.28596550521835 11.974653443503893 #
edge $-1 $395 35.677261115805941 $398 46.756889051521718 $318 $423 forward 7 unknown #
vertex $-1 $332 $424 #
straight-curve $-1 -85.921148508529242 37.348755858198999 23.892137671211955 -1 0 0 I I #
edge $-1 $398 -21.622537898726453 $329 -9.8298980202186392 $328 $425 forward 7 unknown #
vertex $-1 $397 $426 #
straight-curve $-1 -72.691427350688187 37.348755858198999 12.812509735496192 0.7313536940579346 0 0.68199836817093118 I I #
point $-1 -60.809981297810971 37.348755858198999 23.892137671211955 #
point $-1 -72.691427350688201 25.556115979691185 12.81250973549618 #
straight-curve $-1 -72.691427350688201 0 23.892137671211955 0 -1 0 I I #
vertex $-1 $335 $427 #
point $-1 -65.641566626026886 27.914643955392741 17.896058751212568 #
vertex $-1 $339 $428 #
point $-1 -65.641566626026886 31.452435918945092 17.896058751212568 #
vertex $-1 $343 $429 #
point $-1 -65.641566626026886 34.990227882497443 17.896058751212568 #
straight-curve $-1 -72.691427350688201 49.517000105792597 0 0 0 -1 I I #
point $-1 -72.691427350688201 -49.517000105792597 -23.892137671211955 #
straight-curve $-1 -72.691427350688201 0 -23.892137671211955 0 1 0 I I #
point $-1 -72.691427350688201 49.517000105792597 -23.892137671211955 #
straight-curve $-1 -72.691427350688201 -16.91247355954523 3.6240980911814056 0 -1 0 I I #
point $-1 -72.691427350688201 -49.517000105792597 3.6240980911814056 #
point $-1 -72.691427350688201 -18.132894132388323 3.6240980911814056 #
straight-curve $-1 -72.691427350688201 -18.132894132388323 5.0699385600979383 0 0 -1 I I #
straight-curve $-1 -72.691427350688201 -49.517000105792597 0 0 0 -1 I I #
straight-curve $-1 0 49.517000105792597 23.892137671211955 -1 0 0 I I #
point $-1 59.165332567365311 49.517000105792604 23.892137671211955 #
straight-curve $-1 72.691427350688201 49.517000105792597 0 0 0 -1 I I #
point $-1 72.691427350688201 49.517000105792597 23.892137671211955 #
point $-1 62.545774539923535 45.28596550521835 12.368294455569332 #
straight-curve $-1 -72.691427350688201 37.348755858198999 59.569398787017896 0 0 -1 I I #
point $-1 -72.691427350688201 37.348755858198999 23.892137671211955 #
straight-curve $-1 -72.691427350688201 15.726217959472546 12.812509735496178 0 -1 0 I I #
point $-1 -72.691427350688201 37.348755858198999 12.81250973549618 #
point $-1 -65.66624428897039 27.914643955392741 17.189382720098138 #
point $-1 -65.66624428897039 31.452435918945092 17.189382720098138 #
point $-1 -65.66624428897039 34.990227882497443 17.189382720098138 #
End-of-ACIS-data 