500 0 12 0           
7 Unknown 11 ACIS 5.0 NT 24 Thu Mar 25 22:34:26 1999 
-1 9.9999999999999995e-007 1e-010 
body $-1 $12 $-1 $13 #
body $-1 $14 $-1 $15 #
body $-1 $16 $-1 $17 #
body $-1 $18 $-1 $19 #
body $-1 $20 $-1 $21 #
body $-1 $22 $-1 $23 #
body $-1 $24 $-1 $25 #
body $-1 $26 $-1 $27 #
body $-1 $28 $-1 $29 #
body $-1 $30 $-1 $31 #
body $-1 $32 $-1 $33 #
body $-1 $34 $-1 $35 #
lump $-1 $-1 $36 $0 #
transform $-1 1 0 0 0 1 0 0 0 1 64.372081667531361 40.169341968210311 14.644579675223351 1 rotate no_reflect no_shear #
lump $-1 $-1 $37 $1 #
transform $-1 1 0 0 0 1 0 0 0 1 64.372081667531361 40.169341968210311 14.644579675223351 1 rotate no_reflect no_shear #
lump $-1 $-1 $38 $2 #
transform $-1 1 0 0 0 1 0 0 0 1 64.372081667531361 40.169341968210311 14.644579675223351 1 rotate no_reflect no_shear #
lump $-1 $-1 $39 $3 #
transform $-1 1 0 0 0 1 0 0 0 1 64.372081667531361 40.169341968210311 14.644579675223351 1 rotate no_reflect no_shear #
lump $-1 $-1 $40 $4 #
transform $-1 1 0 0 0 1 0 0 0 1 64.372081667531361 40.169341968210311 14.644579675223351 1 rotate no_reflect no_shear #
lump $-1 $-1 $41 $5 #
transform $-1 1 0 0 0 1 0 0 0 1 64.372081667531361 40.169341968210311 14.644579675223351 1 rotate no_reflect no_shear #
lump $-1 $-1 $42 $6 #
transform $-1 1 0 0 0 1 0 0 0 1 64.372081667531361 40.169341968210311 14.644579675223351 1 rotate no_reflect no_shear #
lump $-1 $-1 $43 $7 #
transform $-1 1 0 0 0 1 0 0 0 1 64.372081667531361 40.169341968210311 14.644579675223351 1 rotate no_reflect no_shear #
lump $-1 $-1 $44 $8 #
transform $-1 1 0 0 0 1 0 0 0 1 64.372081667531361 40.169341968210311 14.644579675223351 1 rotate no_reflect no_shear #
lump $-1 $-1 $45 $9 #
transform $-1 1 0 0 0 1 0 0 0 1 64.372081667531361 40.169341968210311 14.644579675223351 1 rotate no_reflect no_shear #
lump $-1 $-1 $46 $10 #
transform $-1 1 0 0 0 1 0 0 0 1 64.372081667531361 40.169341968210311 14.644579675223351 1 rotate no_reflect no_shear #
lump $-1 $-1 $47 $11 #
transform $-1 1 0 0 0 1 0 0 0 1 64.372081667531361 40.169341968210311 14.644579675223351 1 rotate no_reflect no_shear #
shell $-1 $-1 $-1 $48 $-1 $12 #
shell $-1 $-1 $-1 $49 $-1 $14 #
shell $-1 $-1 $-1 $50 $-1 $16 #
shell $-1 $-1 $-1 $51 $-1 $18 #
shell $-1 $-1 $-1 $52 $-1 $20 #
shell $-1 $-1 $-1 $53 $-1 $22 #
shell $-1 $-1 $-1 $54 $-1 $24 #
shell $-1 $-1 $-1 $55 $-1 $26 #
shell $-1 $-1 $-1 $56 $-1 $28 #
shell $-1 $-1 $-1 $57 $-1 $30 #
shell $-1 $-1 $-1 $58 $-1 $32 #
shell $-1 $-1 $-1 $59 $-1 $34 #
face $-1 $60 $61 $36 $-1 $62 forward single #
face $-1 $63 $64 $37 $-1 $65 forward single #
face $-1 $66 $67 $38 $-1 $68 reversed single #
face $-1 $69 $70 $39 $-1 $71 forward single #
face $-1 $72 $73 $40 $-1 $74 reversed single #
face $-1 $75 $76 $41 $-1 $77 forward single #
face $-1 $78 $79 $42 $-1 $80 reversed single #
face $-1 $81 $82 $43 $-1 $83 forward single #
face $-1 $84 $85 $44 $-1 $86 reversed single #
face $-1 $87 $88 $45 $-1 $89 forward single #
face $-1 $90 $91 $46 $-1 $92 reversed single #
face $-1 $93 $94 $47 $-1 $95 forward single #
face $-1 $96 $97 $36 $-1 $98 reversed single #
loop $-1 $-1 $99 $48 #
plane-surface $-1 0 0 14.644579675223351 0 0 1 1 0 0 forward_v I I I I #
face $-1 $100 $101 $37 $-1 $102 reversed single #
loop $-1 $-1 $103 $49 #
plane-surface $-1 0 -31.97421873490396 -2.2046785597783698 0 0 1 1 0 0 forward_v I I I I #
face $-1 $104 $105 $38 $-1 $106 reversed single #
loop $-1 $-1 $107 $50 #
plane-surface $-1 29.631157082630622 -9.297707247447196 187.5906954485213 0 1 0 0.55919291073839883 0 0.82903756765294845 forward_v I I I I #
face $-1 $108 $109 $39 $-1 $110 forward single #
loop $-1 $111 $112 $51 #
cone-surface $-1 59.511728869279281 -1.2714142892818003 10.901265674038875 -0.55919291073839883 0 -0.82903756765294845 0.82903756765294845 0 -0.55919291073839883 1 I I 0 1 1 forward I I I I #
face $-1 $113 $114 $40 $-1 $115 reversed single #
loop $-1 $-1 $116 $52 #
plane-surface $-1 -145.39340988902467 -20.511003674215509 107.1050715519679 0 1 0 -0.62932039886446345 0 0.77714595512881146 forward_v I I I I #
face $-1 $117 $118 $41 $-1 $119 forward single #
loop $-1 $120 $121 $53 #
cone-surface $-1 -57.176896360298677 -15.546666391357185 7.7521905034396621 0.62932039886446345 0 -0.77714595512881146 1.5542919102576229 0 1.2586407977289269 1 I I 0 1 2 forward I I I I #
face $-1 $122 $123 $42 $-1 $124 reversed single #
loop $-1 $-1 $125 $54 #
plane-surface $-1 -145.39340988902467 -4.5238943067635322 107.1050715519679 0 1 0 -0.62932039886446345 0 0.77714595512881146 forward_v I I I I #
face $-1 $126 $127 $43 $-1 $128 forward single #
loop $-1 $129 $130 $55 #
cone-surface $-1 -57.176896360298677 0.44044297609479344 7.7521905034396621 0.62932039886446345 0 -0.77714595512881146 1.5542919102576229 0 1.2586407977289269 1 I I 0 1 2 forward I I I I #
face $-1 $131 $132 $44 $-1 $133 reversed single #
loop $-1 $-1 $134 $56 #
plane-surface $-1 -145.39340988902467 11.463215060688446 107.1050715519679 0 1 0 -0.62932039886446345 0 0.77714595512881146 forward_v I I I I #
face $-1 $135 $136 $45 $-1 $137 forward single #
loop $-1 $138 $139 $57 #
cone-surface $-1 -57.176896360298677 16.427552343546772 7.7521905034396621 0.62932039886446345 0 -0.77714595512881146 1.5542919102576229 0 1.2586407977289269 1 I I 0 1 2 forward I I I I #
face $-1 $140 $141 $46 $-1 $142 reversed single #
loop $-1 $-1 $143 $58 #
plane-surface $-1 -145.39340988902467 27.450324428140426 107.1050715519679 0 1 0 -0.62932039886446345 0 0.77714595512881146 forward_v I I I I #
face $-1 $144 $145 $47 $-1 $146 forward single #
loop $-1 $147 $148 $59 #
cone-surface $-1 -57.176896360298677 32.41466171099875 7.7521905034396621 0.62932039886446345 0 -0.77714595512881146 1.5542919102576229 0 1.2586407977289269 1 I I 0 1 2 forward I I I I #
face $-1 $149 $150 $36 $-1 $151 reversed single #
loop $-1 $-1 $152 $60 #
plane-surface $-1 0 0 -14.644579675223351 0 0 1 1 0 0 forward_v I I I I #
coedge $-1 $153 $154 $155 $156 forward $61 $-1 #
face $-1 $157 $158 $37 $-1 $159 reversed single #
loop $-1 $-1 $160 $63 #
plane-surface $-1 0 -31.97421873490396 -10.403623050942418 0 0 1 1 0 0 forward_v I I I I #
coedge $-1 $161 $162 $163 $164 reversed $64 $-1 #
face $-1 $165 $166 $38 $-1 $167 reversed single #
loop $-1 $-1 $168 $66 #
plane-surface $-1 -42.361666353282942 -1.2714142892818003 80.856947427706999 0.55919291073839883 0 0.82903756765294845 0.82903756765294845 0 -0.55919291073839883 forward_v I I I I #
coedge $-1 $169 $170 $171 $172 reversed $67 $-1 #
face $-1 $-1 $173 $39 $-1 $174 forward single #
loop $-1 $175 $176 $69 #
cone-surface $-1 58.656718522866598 -1.2714142892818003 9.6336607307428643 -0.55919291073839883 0 -0.82903756765294845 0.41451878382647422 0 -0.27959645536919941 1 I I -0.70710678118654746 0.70710678118654746 0.5 forward I I I I #
loop $-1 $-1 $177 $51 #
coedge $-1 $112 $112 $178 $179 reversed $70 $-1 #
face $-1 $180 $181 $40 $-1 $182 reversed single #
loop $-1 $-1 $183 $72 #
plane-surface $-1 -64.372081667531361 -15.546666391357185 7.0520657696808655 -0.62932039886446345 0 0.77714595512881146 0.77714595512881146 0 0.62932039886446345 forward_v I I I I #
coedge $-1 $184 $185 $186 $187 reversed $73 $-1 #
face $-1 $-1 $188 $41 $-1 $189 forward single #
loop $-1 $190 $191 $75 #
cone-surface $-1 -54.040377474268354 -15.546666391357185 3.8789123292984158 0.62932039886446345 0 -0.77714595512881146 0.77714595512881146 0 0.62932039886446345 1 I I -0.70710678118654746 0.70710678118654746 1 forward I I I I #
loop $-1 $-1 $192 $53 #
coedge $-1 $121 $121 $193 $194 reversed $76 $-1 #
face $-1 $195 $196 $42 $-1 $197 reversed single #
loop $-1 $-1 $198 $78 #
plane-surface $-1 -64.372081667531361 0.44044297609479344 7.0520657696808655 -0.62932039886446345 0 0.77714595512881146 0.77714595512881146 0 0.62932039886446345 forward_v I I I I #
coedge $-1 $199 $200 $201 $202 reversed $79 $-1 #
face $-1 $-1 $203 $43 $-1 $204 forward single #
loop $-1 $205 $206 $81 #
cone-surface $-1 -54.040377474268354 0.44044297609479344 3.8789123292984158 0.62932039886446345 0 -0.77714595512881146 0.77714595512881146 0 0.62932039886446345 1 I I -0.70710678118654746 0.70710678118654746 1 forward I I I I #
loop $-1 $-1 $207 $55 #
coedge $-1 $130 $130 $208 $209 reversed $82 $-1 #
face $-1 $210 $211 $44 $-1 $212 reversed single #
loop $-1 $-1 $213 $84 #
plane-surface $-1 -64.372081667531361 16.427552343546772 7.0520657696808655 -0.62932039886446345 0 0.77714595512881146 0.77714595512881146 0 0.62932039886446345 forward_v I I I I #
coedge $-1 $214 $215 $216 $217 reversed $85 $-1 #
face $-1 $-1 $218 $45 $-1 $219 forward single #
loop $-1 $220 $221 $87 #
cone-surface $-1 -54.040377474268354 16.427552343546772 3.8789123292984158 0.62932039886446345 0 -0.77714595512881146 0.77714595512881146 0 0.62932039886446345 1 I I -0.70710678118654746 0.70710678118654746 1 forward I I I I #
loop $-1 $-1 $222 $57 #
coedge $-1 $139 $139 $223 $224 reversed $88 $-1 #
face $-1 $225 $226 $46 $-1 $227 reversed single #
loop $-1 $-1 $228 $90 #
plane-surface $-1 -64.372081667531361 32.41466171099875 7.0520657696808655 -0.62932039886446345 0 0.77714595512881146 0.77714595512881146 0 0.62932039886446345 forward_v I I I I #
coedge $-1 $229 $230 $231 $232 reversed $91 $-1 #
face $-1 $-1 $233 $47 $-1 $234 forward single #
loop $-1 $235 $236 $93 #
cone-surface $-1 -54.040377474268354 32.41466171099875 3.8789123292984158 0.62932039886446345 0 -0.77714595512881146 0.77714595512881146 0 0.62932039886446345 1 I I -0.70710678118654746 0.70710678118654746 1 forward I I I I #
loop $-1 $-1 $237 $59 #
coedge $-1 $148 $148 $238 $239 reversed $94 $-1 #
face $-1 $240 $241 $36 $-1 $242 reversed single #
loop $-1 $-1 $243 $96 #
plane-surface $-1 0 -40.169341968210311 0 0 1 0 0 0 1 forward_v I I I I #
coedge $-1 $244 $245 $246 $247 forward $97 $-1 #
coedge $-1 $248 $99 $249 $250 forward $61 $-1 #
coedge $-1 $99 $248 $251 $252 forward $61 $-1 #
coedge $-1 $253 $254 $99 $156 reversed $255 $-1 #
edge $-1 $256 -40.169341968210311 $257 40.169341968210311 $155 $258 forward 7 unknown #
face $-1 $259 $260 $37 $-1 $261 reversed single #
loop $-1 $-1 $262 $100 #
plane-surface $-1 0 -23.77909550159761 -6.3041508053603934 0 -1 0 0 0 -1 forward_v I I I I #
coedge $-1 $263 $264 $265 $266 reversed $101 $-1 #
coedge $-1 $267 $103 $268 $269 forward $64 $-1 #
coedge $-1 $103 $267 $270 $271 reversed $64 $-1 #
coedge $-1 $272 $273 $103 $164 forward $274 $-1 #
edge $-1 $275 7.7919861341456294 $276 24.182232600758333 $163 $277 forward 7 unknown #
face $-1 $278 $279 $38 $-1 $280 forward single #
loop $-1 $-1 $281 $104 #
plane-surface $-1 29.631157082630622 6.7548786688835953 187.5906954485213 0 -1 0 -0.55919291073839883 0 -0.82903756765294845 forward_v I I I I #
coedge $-1 $282 $283 $284 $285 reversed $105 $-1 #
coedge $-1 $170 $107 $286 $287 reversed $67 $-1 #
coedge $-1 $107 $169 $282 $288 reversed $67 $-1 #
coedge $-1 $284 $289 $107 $172 forward $290 $-1 #
edge $-1 $291 79.150768049037296 $292 84.931223732467217 $171 $293 forward 7 unknown #
loop $-1 $-1 $178 $108 #
plane-surface $-1 -42.361666353282942 -1.2714142892818003 80.856947427706999 0.55919291073839883 0 0.82903756765294845 0.82903756765294845 0 -0.55919291073839883 forward_v I I I I #
loop $-1 $-1 $294 $69 #
coedge $-1 $176 $176 $177 $295 reversed $109 $-1 #
coedge $-1 $177 $177 $176 $295 forward $111 $-1 #
coedge $-1 $178 $178 $112 $179 forward $173 $-1 #
edge $-1 $296 0 $296 6.2831853071796004 $178 $297 forward 7 unknown #
face $-1 $298 $299 $40 $-1 $300 reversed single #
loop $-1 $-1 $301 $113 #
plane-surface $-1 -145.39340988902467 -10.582329108498859 107.1050715519679 0 -1 0 0.62932039886446345 0 -0.77714595512881146 forward_v I I I I #
coedge $-1 $302 $303 $304 $305 reversed $114 $-1 #
coedge $-1 $185 $116 $306 $307 reversed $73 $-1 #
coedge $-1 $116 $184 $302 $308 reversed $73 $-1 #
coedge $-1 $304 $309 $116 $187 forward $310 $-1 #
edge $-1 $311 8.3246232769809723 $312 17.700596917114609 $186 $313 forward 7 unknown #
loop $-1 $-1 $193 $117 #
plane-surface $-1 -64.372081667531361 -15.546666391357185 7.0520657696808655 -0.62932039886446345 0 0.77714595512881146 0.77714595512881146 0 0.62932039886446345 forward_v I I I I #
loop $-1 $-1 $314 $75 #
coedge $-1 $191 $191 $192 $315 reversed $118 $-1 #
coedge $-1 $192 $192 $191 $315 forward $120 $-1 #
coedge $-1 $193 $193 $121 $194 forward $188 $-1 #
edge $-1 $316 0 $316 6.2831853071796004 $193 $317 forward 7 unknown #
face $-1 $318 $319 $42 $-1 $320 forward single #
loop $-1 $-1 $321 $122 #
plane-surface $-1 -145.39340988902467 5.4047802589531191 107.1050715519679 0 -1 0 0.62932039886446345 0 -0.77714595512881146 forward_v I I I I #
coedge $-1 $322 $323 $324 $325 reversed $123 $-1 #
coedge $-1 $200 $125 $326 $327 reversed $79 $-1 #
coedge $-1 $125 $199 $322 $328 reversed $79 $-1 #
coedge $-1 $324 $329 $125 $202 forward $319 $-1 #
edge $-1 $330 8.3246232769809723 $331 17.700596917114609 $201 $332 forward 7 unknown #
loop $-1 $-1 $208 $126 #
plane-surface $-1 -64.372081667531361 0.44044297609479344 7.0520657696808655 -0.62932039886446345 0 0.77714595512881146 0.77714595512881146 0 0.62932039886446345 forward_v I I I I #
loop $-1 $-1 $333 $81 #
coedge $-1 $206 $206 $207 $334 reversed $127 $-1 #
coedge $-1 $207 $207 $206 $334 forward $129 $-1 #
coedge $-1 $208 $208 $130 $209 forward $203 $-1 #
edge $-1 $335 0 $335 6.2831853071796004 $208 $336 forward 7 unknown #
face $-1 $337 $338 $44 $-1 $339 forward single #
loop $-1 $-1 $340 $131 #
plane-surface $-1 -145.39340988902467 21.391889626405096 107.1050715519679 0 -1 0 0.62932039886446345 0 -0.77714595512881146 forward_v I I I I #
coedge $-1 $341 $342 $343 $344 reversed $132 $-1 #
coedge $-1 $215 $134 $345 $346 reversed $85 $-1 #
coedge $-1 $134 $214 $341 $347 reversed $85 $-1 #
coedge $-1 $343 $348 $134 $217 forward $338 $-1 #
edge $-1 $349 8.3246232769809723 $350 17.700596917114609 $216 $351 forward 7 unknown #
loop $-1 $-1 $223 $135 #
plane-surface $-1 -64.372081667531361 16.427552343546772 7.0520657696808655 -0.62932039886446345 0 0.77714595512881146 0.77714595512881146 0 0.62932039886446345 forward_v I I I I #
loop $-1 $-1 $352 $87 #
coedge $-1 $221 $221 $222 $353 reversed $136 $-1 #
coedge $-1 $222 $222 $221 $353 forward $138 $-1 #
coedge $-1 $223 $223 $139 $224 forward $218 $-1 #
edge $-1 $354 0 $354 6.2831853071796004 $223 $355 forward 7 unknown #
face $-1 $356 $357 $46 $-1 $358 forward single #
loop $-1 $-1 $359 $140 #
plane-surface $-1 -145.39340988902467 37.378998993857074 107.1050715519679 0 -1 0 0.62932039886446345 0 -0.77714595512881146 forward_v I I I I #
coedge $-1 $360 $361 $362 $363 reversed $141 $-1 #
coedge $-1 $230 $143 $364 $365 reversed $91 $-1 #
coedge $-1 $143 $229 $360 $366 reversed $91 $-1 #
coedge $-1 $362 $367 $143 $232 forward $357 $-1 #
edge $-1 $368 8.3246232769809723 $369 17.700596917114609 $231 $370 forward 7 unknown #
loop $-1 $-1 $238 $144 #
plane-surface $-1 -64.372081667531361 32.41466171099875 7.0520657696808655 -0.62932039886446345 0 0.77714595512881146 0.77714595512881146 0 0.62932039886446345 forward_v I I I I #
loop $-1 $-1 $371 $93 #
coedge $-1 $236 $236 $237 $372 reversed $145 $-1 #
coedge $-1 $237 $237 $236 $372 forward $147 $-1 #
coedge $-1 $238 $238 $148 $239 forward $233 $-1 #
edge $-1 $373 0 $373 6.2831853071796004 $238 $374 forward 7 unknown #
face $-1 $375 $376 $36 $-1 $377 reversed single #
loop $-1 $-1 $378 $149 #
plane-surface $-1 -64.372081667531361 0 0 1 0 0 0 0 -1 forward_v I I I I #
coedge $-1 $379 $251 $380 $381 forward $150 $-1 #
coedge $-1 $382 $152 $379 $383 forward $97 $-1 #
coedge $-1 $152 $382 $384 $385 forward $97 $-1 #
coedge $-1 $254 $253 $152 $247 reversed $255 $-1 #
edge $-1 $386 -40.169341968210311 $387 40.169341968210311 $246 $388 forward 7 unknown #
coedge $-1 $154 $153 $389 $390 forward $61 $-1 #
coedge $-1 $391 $392 $153 $250 reversed $376 $-1 #
edge $-1 $257 -64.372081667531361 $393 64.372081667531361 $249 $394 forward 7 unknown #
coedge $-1 $243 $395 $154 $252 reversed $150 $-1 #
edge $-1 $396 -64.372081667531361 $256 64.372081667531361 $251 $397 forward 7 unknown #
coedge $-1 $246 $155 $395 $398 forward $255 $-1 #
coedge $-1 $155 $246 $391 $399 reversed $255 $-1 #
loop $-1 $-1 $253 $375 #
vertex $-1 $156 $400 #
vertex $-1 $156 $401 #
straight-curve $-1 64.372081667531361 0 14.644579675223351 0 1 0 I I #
face $-1 $402 $403 $37 $-1 $404 reversed single #
loop $-1 $-1 $405 $157 #
plane-surface $-1 -64.372081667531361 0 0 1 0 0 0 0 -1 forward_v I I I I #
coedge $-1 $406 $268 $273 $407 reversed $158 $-1 #
coedge $-1 $408 $160 $409 $410 reversed $101 $-1 #
coedge $-1 $160 $408 $406 $411 forward $101 $-1 #
coedge $-1 $273 $272 $160 $266 forward $274 $-1 #
edge $-1 $412 -24.182232600758333 $413 -7.7919861341456294 $265 $414 forward 7 unknown #
coedge $-1 $162 $161 $405 $415 reversed $64 $-1 #
coedge $-1 $262 $416 $161 $269 reversed $158 $-1 #
edge $-1 $275 -64.372081667531361 $417 64.372081667531361 $268 $418 forward 7 unknown #
coedge $-1 $419 $420 $162 $271 forward $403 $-1 #
edge $-1 $276 -64.372081667531361 $421 64.372081667531361 $270 $422 forward 7 unknown #
coedge $-1 $265 $163 $420 $423 forward $274 $-1 #
coedge $-1 $163 $265 $262 $407 forward $274 $-1 #
loop $-1 $-1 $163 $402 #
vertex $-1 $164 $424 #
vertex $-1 $423 $425 #
straight-curve $-1 64.372081667531361 -15.98710936745198 -2.2046785597783698 0 -1 0 I I #
face $-1 $-1 $290 $38 $-1 $426 reversed single #
loop $-1 $-1 $427 $165 #
plane-surface $-1 0 0 14.644579675223351 0 0 1 1 0 0 forward_v I I I I #
coedge $-1 $428 $429 $430 $431 reversed $166 $-1 #
coedge $-1 $432 $168 $170 $288 forward $105 $-1 #
coedge $-1 $168 $432 $428 $433 forward $105 $-1 #
coedge $-1 $430 $171 $168 $285 forward $290 $-1 #
edge $-1 $292 -8.6620001028062958 $434 7.3905858135244955 $284 $435 forward 7 unknown #
coedge $-1 $436 $437 $169 $287 forward $279 $-1 #
edge $-1 $438 40.986625311798811 $291 49.55650312621605 $286 $439 forward 7 unknown #
edge $-1 $292 -128.74416333506272 $438 -118.40702283770378 $170 $440 forward 7 unknown #
coedge $-1 $171 $430 $436 $441 reversed $290 $-1 #
loop $-1 $-1 $430 $278 #
vertex $-1 $441 $442 #
vertex $-1 $172 $443 #
straight-curve $-1 64.372081667531361 -9.297707247447196 93.795347724260651 0 0 -1 I I #
coedge $-1 $294 $294 $-1 $444 reversed $175 $-1 #
edge $-1 $445 0 $445 6.2831853071796004 $176 $446 forward 7 unknown #
vertex $-1 $179 $447 #
ellipse-curve $-1 60.087142760322756 -1.2714142892818003 11.754351833508393 0.55919291073839883 0 0.82903756765294845 0.82903756765294845 0 -0.55919291073839883 1 I I #
face $-1 $-1 $310 $40 $-1 $448 forward single #
loop $-1 $-1 $449 $180 #
plane-surface $-1 -64.372081667531361 0 0 1 0 0 0 0 -1 forward_v I I I I #
coedge $-1 $450 $451 $452 $453 reversed $181 $-1 #
coedge $-1 $454 $183 $185 $308 forward $114 $-1 #
coedge $-1 $183 $454 $450 $455 forward $114 $-1 #
coedge $-1 $452 $186 $183 $305 forward $310 $-1 #
edge $-1 $312 -12.737670478536916 $456 -2.8089959128202668 $304 $457 forward 7 unknown #
coedge $-1 $458 $459 $184 $307 forward $299 $-1 #
edge $-1 $460 -46.500470006303082 $311 -38.9079561007606 $306 $461 forward 7 unknown #
edge $-1 $312 -12.064623869244198 $460 0 $185 $462 forward 7 unknown #
coedge $-1 $186 $452 $458 $463 forward $310 $-1 #
loop $-1 $-1 $452 $298 #
vertex $-1 $307 $464 #
vertex $-1 $187 $465 #
straight-curve $-1 -72.696704944512334 -20.511003674215509 14.644579675223348 1 0 0 I I #
coedge $-1 $314 $314 $-1 $466 reversed $190 $-1 #
edge $-1 $467 0 $467 6.2831853071796004 $191 $468 forward 7 unknown #
vertex $-1 $194 $469 #
ellipse-curve $-1 -59.684094847464543 -15.546666391357185 10.848322722452107 -0.62932039886446345 0 0.77714595512881146 1.5542919102576229 0 1.2586407977289269 1 I I #
face $-1 $-1 $470 $42 $-1 $471 reversed single #
loop $-1 $-1 $201 $195 #
plane-surface $-1 0 0 14.644579675223351 0 0 1 1 0 0 forward_v I I I I #
coedge $-1 $472 $473 $474 $475 reversed $196 $-1 #
coedge $-1 $476 $198 $200 $328 forward $123 $-1 #
coedge $-1 $198 $476 $472 $477 forward $123 $-1 #
coedge $-1 $474 $201 $198 $325 forward $319 $-1 #
edge $-1 $331 -4.7441157948109289 $478 5.1845587709057224 $324 $479 forward 7 unknown #
coedge $-1 $480 $481 $199 $327 forward $470 $-1 #
edge $-1 $482 -46.500470006303082 $330 -38.9079561007606 $326 $483 forward 7 unknown #
edge $-1 $331 -12.064623869244198 $482 0 $200 $484 forward 7 unknown #
coedge $-1 $201 $474 $480 $485 forward $319 $-1 #
vertex $-1 $202 $486 #
vertex $-1 $202 $487 #
straight-curve $-1 -72.696704944512334 -4.5238943067635322 14.644579675223348 1 0 0 I I #
coedge $-1 $333 $333 $-1 $488 reversed $205 $-1 #
edge $-1 $489 0 $489 6.2831853071796004 $206 $490 forward 7 unknown #
vertex $-1 $209 $491 #
ellipse-curve $-1 -59.684094847464543 0.44044297609479344 10.848322722452107 -0.62932039886446345 0 0.77714595512881146 1.5542919102576229 0 1.2586407977289269 1 I I #
face $-1 $-1 $492 $44 $-1 $493 reversed single #
loop $-1 $-1 $216 $210 #
plane-surface $-1 0 0 14.644579675223351 0 0 1 1 0 0 forward_v I I I I #
coedge $-1 $494 $495 $496 $497 reversed $211 $-1 #
coedge $-1 $498 $213 $215 $347 forward $132 $-1 #
coedge $-1 $213 $498 $494 $499 forward $132 $-1 #
coedge $-1 $496 $216 $213 $344 forward $338 $-1 #
edge $-1 $350 3.2494388889150603 $500 13.17811345463171 $343 $501 forward 7 unknown #
coedge $-1 $502 $503 $214 $346 forward $492 $-1 #
edge $-1 $504 -46.500470006303082 $349 -38.9079561007606 $345 $505 forward 7 unknown #
edge $-1 $350 -12.064623869244198 $504 0 $215 $506 forward 7 unknown #
coedge $-1 $216 $496 $502 $507 forward $338 $-1 #
vertex $-1 $217 $508 #
vertex $-1 $217 $509 #
straight-curve $-1 -72.696704944512334 11.463215060688446 14.644579675223348 1 0 0 I I #
coedge $-1 $352 $352 $-1 $510 reversed $220 $-1 #
edge $-1 $511 0 $511 6.2831853071796004 $221 $512 forward 7 unknown #
vertex $-1 $224 $513 #
ellipse-curve $-1 -59.684094847464543 16.427552343546772 10.848322722452107 -0.62932039886446345 0 0.77714595512881146 1.5542919102576229 0 1.2586407977289269 1 I I #
face $-1 $-1 $514 $46 $-1 $515 reversed single #
loop $-1 $-1 $231 $225 #
plane-surface $-1 0 0 14.644579675223351 0 0 1 1 0 0 forward_v I I I I #
coedge $-1 $516 $517 $518 $519 reversed $226 $-1 #
coedge $-1 $520 $228 $230 $366 forward $141 $-1 #
coedge $-1 $228 $520 $516 $521 forward $141 $-1 #
coedge $-1 $518 $231 $228 $363 forward $357 $-1 #
edge $-1 $369 11.242993572641051 $522 21.171668138357699 $362 $523 forward 7 unknown #
coedge $-1 $524 $525 $229 $365 forward $514 $-1 #
edge $-1 $526 -46.500470006303082 $368 -38.9079561007606 $364 $527 forward 7 unknown #
edge $-1 $369 -12.064623869244198 $526 0 $230 $528 forward 7 unknown #
coedge $-1 $231 $518 $524 $529 forward $357 $-1 #
vertex $-1 $232 $530 #
vertex $-1 $232 $531 #
straight-curve $-1 -72.696704944512334 27.450324428140426 14.644579675223348 1 0 0 I I #
coedge $-1 $371 $371 $-1 $532 reversed $235 $-1 #
edge $-1 $533 0 $533 6.2831853071796004 $236 $534 forward 7 unknown #
vertex $-1 $239 $535 #
ellipse-curve $-1 -59.684094847464543 32.41466171099875 10.848322722452107 -0.62932039886446345 0 0.77714595512881146 1.5542919102576229 0 1.2586407977289269 1 I I #
face $-1 $-1 $255 $36 $-1 $536 reversed single #
loop $-1 $-1 $391 $240 #
plane-surface $-1 0 40.169341968210311 0 0 -1 0 0 0 -1 forward_v I I I I #
coedge $-1 $537 $389 $392 $538 forward $241 $-1 #
coedge $-1 $395 $243 $244 $383 reversed $150 $-1 #
coedge $-1 $389 $537 $243 $381 reversed $241 $-1 #
edge $-1 $396 -14.644579675223351 $539 14.644579675223351 $380 $540 forward 7 unknown #
coedge $-1 $245 $244 $537 $541 forward $97 $-1 #
edge $-1 $387 -64.372081667531361 $539 64.372081667531361 $379 $542 forward 7 unknown #
coedge $-1 $392 $391 $245 $385 reversed $376 $-1 #
edge $-1 $543 -64.372081667531361 $386 64.372081667531361 $384 $544 forward 7 unknown #
vertex $-1 $247 $545 #
vertex $-1 $398 $546 #
straight-curve $-1 64.372081667531361 0 -14.644579675223351 0 -1 0 I I #
coedge $-1 $378 $380 $248 $390 reversed $241 $-1 #
edge $-1 $393 -40.169341968210311 $396 40.169341968210311 $389 $547 forward 7 unknown #
coedge $-1 $384 $249 $254 $399 forward $376 $-1 #
coedge $-1 $249 $384 $378 $538 reversed $376 $-1 #
vertex $-1 $250 $548 #
straight-curve $-1 0 40.169341968210311 14.644579675223351 -1 0 0 I I #
coedge $-1 $251 $379 $253 $398 reversed $150 $-1 #
vertex $-1 $390 $549 #
straight-curve $-1 0 -40.169341968210311 14.644579675223351 1 0 0 I I #
edge $-1 $256 -14.644579675223351 $387 14.644579675223351 $253 $550 forward 7 unknown #
edge $-1 $257 -14.644579675223351 $386 14.644579675223351 $254 $551 forward 7 unknown #
point $-1 64.372081667531361 -40.169341968210311 14.644579675223351 #
point $-1 64.372081667531361 40.169341968210311 14.644579675223351 #
face $-1 $-1 $274 $37 $-1 $552 reversed single #
loop $-1 $-1 $270 $259 #
plane-surface $-1 0 -40.169341968210311 0 0 1 0 0 0 1 forward_v I I I I #
coedge $-1 $553 $554 $267 $415 forward $260 $-1 #
coedge $-1 $416 $262 $264 $411 reversed $158 $-1 #
edge $-1 $413 -7.2515476482622212 $275 0.94739684290182691 $273 $555 forward 7 unknown #
coedge $-1 $264 $263 $556 $557 reversed $101 $-1 #
coedge $-1 $420 $419 $263 $410 forward $403 $-1 #
edge $-1 $558 -64.372081667531361 $412 64.372081667531361 $409 $559 forward 7 unknown #
edge $-1 $560 -64.372081667531361 $413 64.372081667531361 $406 $561 forward 7 unknown #
vertex $-1 $410 $562 #
vertex $-1 $266 $563 #
straight-curve $-1 64.372081667531361 -15.98710936745198 -10.403623050942418 0 1 0 I I #
edge $-1 $421 -24.182232600758333 $417 -7.7919861341456294 $405 $564 forward 7 unknown #
coedge $-1 $268 $406 $553 $565 reversed $158 $-1 #
vertex $-1 $415 $566 #
straight-curve $-1 0 -23.77909550159761 -2.2046785597783698 -1 0 0 I I #
coedge $-1 $409 $270 $554 $567 forward $403 $-1 #
coedge $-1 $270 $409 $272 $423 reversed $403 $-1 #
vertex $-1 $567 $568 #
straight-curve $-1 0 -40.169341968210311 -2.2046785597783698 -1 0 0 I I #
edge $-1 $276 2.2046785597783698 $412 10.403623050942418 $272 $569 forward 7 unknown #
point $-1 64.372081667531361 -23.77909550159761 -2.2046785597783698 #
point $-1 64.372081667531361 -40.169341968210311 -2.2046785597783698 #
plane-surface $-1 64.372081667531361 0 0 -1 0 0 0 0 1 forward_v I I I I #
coedge $-1 $437 $436 $429 $570 forward $279 $-1 #
coedge $-1 $429 $281 $283 $433 reversed $166 $-1 #
coedge $-1 $281 $428 $427 $570 reversed $166 $-1 #
coedge $-1 $289 $284 $281 $431 forward $290 $-1 #
edge $-1 $434 -84.931223732467217 $571 -79.150768049037296 $430 $572 forward 7 unknown #
coedge $-1 $283 $282 $437 $573 reversed $105 $-1 #
edge $-1 $574 118.40702283770378 $434 128.74416333506272 $428 $575 forward 7 unknown #
vertex $-1 $285 $576 #
straight-curve $-1 64.372081667531376 -0.63570714464090017 8.8641239917934413 0 1 0 I I #
coedge $-1 $427 $286 $289 $441 forward $279 $-1 #
coedge $-1 $286 $427 $432 $573 forward $279 $-1 #
vertex $-1 $287 $577 #
straight-curve $-1 14.815578541315311 -9.297707247447196 14.644579675223355 1 0 0 I I #
straight-curve $-1 -42.361666353282942 -9.297707247447196 80.856947427706999 -0.82903756765294845 0 0.55919291073839883 I I #
edge $-1 $291 -9.297707247447196 $571 6.7548786688835953 $289 $578 forward 7 unknown #
point $-1 64.372081667531361 -9.297707247447196 14.644579675223351 #
point $-1 64.372081667531361 -9.297707247447196 8.8641239917934342 #
edge $-1 $579 1 $579 0 $294 $-1 forward 7 unknown #
vertex $-1 $295 $580 #
ellipse-curve $-1 58.936314978235799 -1.2714142892818003 10.048179514569339 0.55919291073839883 0 0.82903756765294845 0.82903756765294845 0 -0.55919291073839883 1 I I #
point $-1 60.916180327975724 -1.2714142892818003 11.195158922770011 #
plane-surface $-1 0 0 14.644579675223351 0 0 1 1 0 0 forward_v I I I I #
coedge $-1 $459 $458 $451 $581 forward $299 $-1 #
coedge $-1 $451 $301 $303 $455 reversed $181 $-1 #
coedge $-1 $301 $450 $449 $581 reversed $181 $-1 #
coedge $-1 $309 $304 $301 $453 forward $310 $-1 #
edge $-1 $456 -17.700596917114609 $582 -8.3246232769809723 $452 $583 forward 7 unknown #
coedge $-1 $303 $302 $459 $584 reversed $114 $-1 #
edge $-1 $585 0 $456 12.064623869244198 $450 $586 forward 7 unknown #
vertex $-1 $305 $587 #
straight-curve $-1 -54.996108027397717 -7.7733331956785925 14.644579675223351 0 1 0 I I #
coedge $-1 $449 $306 $309 $463 reversed $299 $-1 #
coedge $-1 $306 $449 $454 $584 forward $299 $-1 #
vertex $-1 $307 $588 #
straight-curve $-1 -64.372081667531361 -20.511003674215509 53.552535775983948 0 0 1 I I #
straight-curve $-1 -64.372081667531361 -20.511003674215509 7.0520657696808655 -0.77714595512881146 0 -0.62932039886446345 I I #
edge $-1 $582 10.582329108498859 $311 20.511003674215509 $458 $589 forward 7 unknown #
point $-1 -64.372081667531361 -20.511003674215509 14.644579675223351 #
point $-1 -54.996108027397725 -20.511003674215509 14.644579675223351 #
edge $-1 $590 1 $590 0 $314 $-1 forward 7 unknown #
vertex $-1 $315 $591 #
ellipse-curve $-1 -54.669697873132819 -15.546666391357185 4.6560582844272274 -0.62932039886446345 0 0.77714595512881146 1.5542919102576229 0 1.2586407977289269 1 I I #
point $-1 -58.129802937206911 -15.546666391357185 12.106963520181024 #
loop $-1 $-1 $326 $318 #
plane-surface $-1 -64.372081667531361 0 0 1 0 0 0 0 -1 forward_v I I I I #
coedge $-1 $473 $321 $323 $477 reversed $196 $-1 #
coedge $-1 $321 $472 $592 $593 reversed $196 $-1 #
coedge $-1 $329 $324 $321 $475 forward $319 $-1 #
edge $-1 $478 -17.700596917114609 $594 -8.3246232769809723 $474 $595 forward 7 unknown #
coedge $-1 $323 $322 $481 $596 reversed $123 $-1 #
edge $-1 $597 0 $478 12.064623869244198 $472 $598 forward 7 unknown #
vertex $-1 $325 $599 #
straight-curve $-1 -54.996108027397717 0.22022148804739672 14.644579675223351 0 1 0 I I #
coedge $-1 $592 $326 $329 $485 reversed $470 $-1 #
coedge $-1 $326 $592 $476 $596 forward $470 $-1 #
vertex $-1 $327 $600 #
straight-curve $-1 -64.372081667531361 -4.5238943067635322 53.552535775983948 0 0 1 I I #
straight-curve $-1 -64.372081667531361 -4.5238943067635322 7.0520657696808655 -0.77714595512881146 0 -0.62932039886446345 I I #
edge $-1 $594 -5.4047802589531191 $330 4.5238943067635322 $480 $601 forward 7 unknown #
point $-1 -64.372081667531361 -4.5238943067635322 14.644579675223351 #
point $-1 -54.996108027397725 -4.5238943067635322 14.644579675223351 #
edge $-1 $602 1 $602 0 $333 $-1 forward 7 unknown #
vertex $-1 $334 $603 #
ellipse-curve $-1 -54.669697873132819 0.44044297609479344 4.6560582844272274 -0.62932039886446345 0 0.77714595512881146 1.5542919102576229 0 1.2586407977289269 1 I I #
point $-1 -58.129802937206911 0.44044297609479344 12.106963520181024 #
loop $-1 $-1 $345 $337 #
plane-surface $-1 -64.372081667531361 0 0 1 0 0 0 0 -1 forward_v I I I I #
coedge $-1 $495 $340 $342 $499 reversed $211 $-1 #
coedge $-1 $340 $494 $604 $605 reversed $211 $-1 #
coedge $-1 $348 $343 $340 $497 forward $338 $-1 #
edge $-1 $500 -17.700596917114609 $606 -8.3246232769809723 $496 $607 forward 7 unknown #
coedge $-1 $342 $341 $503 $608 reversed $132 $-1 #
edge $-1 $609 0 $500 12.064623869244198 $494 $610 forward 7 unknown #
vertex $-1 $344 $611 #
straight-curve $-1 -54.996108027397717 8.2137761717733859 14.644579675223351 0 1 0 I I #
coedge $-1 $604 $345 $348 $507 reversed $492 $-1 #
coedge $-1 $345 $604 $498 $608 forward $492 $-1 #
vertex $-1 $346 $612 #
straight-curve $-1 -64.372081667531361 11.463215060688446 53.552535775983948 0 0 1 I I #
straight-curve $-1 -64.372081667531361 11.463215060688446 7.0520657696808655 -0.77714595512881146 0 -0.62932039886446345 I I #
edge $-1 $606 -21.391889626405096 $349 -11.463215060688446 $502 $613 forward 7 unknown #
point $-1 -64.372081667531361 11.463215060688446 14.644579675223351 #
point $-1 -54.996108027397725 11.463215060688446 14.644579675223351 #
edge $-1 $614 1 $614 0 $352 $-1 forward 7 unknown #
vertex $-1 $353 $615 #
ellipse-curve $-1 -54.669697873132819 16.427552343546772 4.6560582844272274 -0.62932039886446345 0 0.77714595512881146 1.5542919102576229 0 1.2586407977289269 1 I I #
point $-1 -58.129802937206911 16.427552343546772 12.106963520181024 #
loop $-1 $-1 $364 $356 #
plane-surface $-1 -64.372081667531361 0 0 1 0 0 0 0 -1 forward_v I I I I #
coedge $-1 $517 $359 $361 $521 reversed $226 $-1 #
coedge $-1 $359 $516 $616 $617 reversed $226 $-1 #
coedge $-1 $367 $362 $359 $519 forward $357 $-1 #
edge $-1 $522 -17.700596917114609 $618 -8.3246232769809723 $518 $619 forward 7 unknown #
coedge $-1 $361 $360 $525 $620 reversed $141 $-1 #
edge $-1 $621 0 $522 12.064623869244198 $516 $622 forward 7 unknown #
vertex $-1 $363 $623 #
straight-curve $-1 -54.996108027397717 16.207330855499375 14.644579675223351 0 1 0 I I #
coedge $-1 $616 $364 $367 $529 reversed $514 $-1 #
coedge $-1 $364 $616 $520 $620 forward $514 $-1 #
vertex $-1 $365 $624 #
straight-curve $-1 -64.372081667531361 27.450324428140426 53.552535775983948 0 0 1 I I #
straight-curve $-1 -64.372081667531361 27.450324428140426 7.0520657696808655 -0.77714595512881146 0 -0.62932039886446345 I I #
edge $-1 $618 -37.378998993857074 $368 -27.450324428140426 $524 $625 forward 7 unknown #
point $-1 -64.372081667531361 27.450324428140426 14.644579675223351 #
point $-1 -54.996108027397725 27.450324428140426 14.644579675223351 #
edge $-1 $626 1 $626 0 $371 $-1 forward 7 unknown #
vertex $-1 $372 $627 #
ellipse-curve $-1 -54.669697873132819 32.41466171099875 4.6560582844272274 -0.62932039886446345 0 0.77714595512881146 1.5542919102576229 0 1.2586407977289269 1 I I #
point $-1 -58.129802937206911 32.41466171099875 12.106963520181024 #
plane-surface $-1 64.372081667531361 0 0 -1 0 0 0 0 1 forward_v I I I I #
coedge $-1 $380 $378 $382 $541 reversed $241 $-1 #
edge $-1 $393 -14.644579675223351 $543 14.644579675223351 $392 $628 forward 7 unknown #
vertex $-1 $541 $629 #
straight-curve $-1 -64.372081667531361 -40.169341968210311 0 0 0 -1 I I #
edge $-1 $539 -40.169341968210311 $543 40.169341968210311 $537 $630 forward 7 unknown #
straight-curve $-1 0 -40.169341968210311 -14.644579675223351 -1 0 0 I I #
vertex $-1 $385 $631 #
straight-curve $-1 0 40.169341968210311 -14.644579675223351 1 0 0 I I #
point $-1 64.372081667531361 40.169341968210311 -14.644579675223351 #
point $-1 64.372081667531361 -40.169341968210311 -14.644579675223351 #
straight-curve $-1 -64.372081667531361 0 14.644579675223351 0 -1 0 I I #
point $-1 -64.372081667531361 40.169341968210311 14.644579675223351 #
point $-1 -64.372081667531361 -40.169341968210311 14.644579675223351 #
straight-curve $-1 64.372081667531361 -40.169341968210311 0 0 0 -1 I I #
straight-curve $-1 64.372081667531361 40.169341968210311 0 0 0 -1 I I #
plane-surface $-1 64.372081667531361 0 0 -1 0 0 0 0 1 forward_v I I I I #
coedge $-1 $556 $405 $416 $565 forward $260 $-1 #
coedge $-1 $405 $556 $419 $567 reversed $260 $-1 #
straight-curve $-1 64.372081667531361 -23.77909550159761 -3.1520754026801967 0 0 1 I I #
coedge $-1 $554 $553 $408 $557 forward $260 $-1 #
edge $-1 $560 7.7919861341456294 $558 24.182232600758333 $556 $632 forward 7 unknown #
vertex $-1 $410 $633 #
straight-curve $-1 0 -40.169341968210311 -10.403623050942418 1 0 0 I I #
vertex $-1 $557 $634 #
straight-curve $-1 0 -23.77909550159761 -10.403623050942418 1 0 0 I I #
point $-1 64.372081667531361 -40.169341968210311 -10.403623050942418 #
point $-1 64.372081667531361 -23.77909550159761 -10.403623050942418 #
straight-curve $-1 -64.372081667531361 -15.98710936745198 -2.2046785597783698 0 1 0 I I #
edge $-1 $417 -0.94739684290182691 $560 7.2515476482622212 $553 $635 forward 7 unknown #
point $-1 -64.372081667531361 -23.77909550159761 -2.2046785597783698 #
edge $-1 $421 2.2046785597783698 $558 10.403623050942418 $554 $636 forward 7 unknown #
point $-1 -64.372081667531361 -40.169341968210311 -2.2046785597783698 #
straight-curve $-1 64.372081667531361 -40.169341968210311 0 0 0 -1 I I #
edge $-1 $571 -49.55650312621605 $574 -40.986625311798811 $427 $637 forward 7 unknown #
vertex $-1 $570 $638 #
straight-curve $-1 64.372081667531361 6.7548786688835953 93.795347724260651 0 0 1 I I #
edge $-1 $574 -7.3905858135244955 $438 8.6620001028062958 $437 $639 forward 7 unknown #
vertex $-1 $573 $640 #
straight-curve $-1 -42.361666353282942 6.7548786688835953 80.856947427706999 0.82903756765294845 0 -0.55919291073839883 I I #
point $-1 64.372081667531361 6.7548786688835953 8.8641239917934342 #
point $-1 55.802203853114122 -9.297707247447196 14.644579675223355 #
straight-curve $-1 64.372081667531361 0 14.644579675223351 0 1 0 I I #
vertex $-1 $444 $641 #
point $-1 59.765352545888746 -1.2714142892818003 9.4889866038309396 #
edge $-1 $582 38.9079561007606 $585 46.500470006303082 $449 $642 forward 7 unknown #
vertex $-1 $463 $643 #
straight-curve $-1 -72.696704944512334 -10.582329108498859 14.644579675223348 -1 0 0 I I #
edge $-1 $585 2.8089959128202668 $460 12.737670478536916 $459 $644 forward 7 unknown #
vertex $-1 $584 $645 #
straight-curve $-1 -64.372081667531361 -10.582329108498859 7.0520657696808655 0.77714595512881146 0 0.62932039886446345 I I #
point $-1 -54.996108027397725 -10.582329108498859 14.644579675223351 #
point $-1 -64.372081667531361 -20.511003674215509 7.0520657696808655 #
straight-curve $-1 -64.372081667531361 0 14.644579675223351 0 -1 0 I I #
vertex $-1 $466 $646 #
point $-1 -53.115405962875194 -15.546666391357185 5.9146990821561545 #
coedge $-1 $481 $480 $473 $593 forward $470 $-1 #
edge $-1 $594 38.9079561007606 $597 46.500470006303082 $592 $647 forward 7 unknown #
vertex $-1 $485 $648 #
straight-curve $-1 -72.696704944512334 5.4047802589531191 14.644579675223348 -1 0 0 I I #
edge $-1 $597 -5.1845587709057224 $482 4.7441157948109289 $481 $649 forward 7 unknown #
vertex $-1 $596 $650 #
straight-curve $-1 -64.372081667531361 5.4047802589531191 7.0520657696808655 0.77714595512881146 0 0.62932039886446345 I I #
point $-1 -54.996108027397725 5.4047802589531191 14.644579675223351 #
point $-1 -64.372081667531361 -4.5238943067635322 7.0520657696808655 #
straight-curve $-1 -64.372081667531361 0 14.644579675223351 0 -1 0 I I #
vertex $-1 $488 $651 #
point $-1 -53.115405962875194 0.44044297609479344 5.9146990821561545 #
coedge $-1 $503 $502 $495 $605 forward $492 $-1 #
edge $-1 $606 38.9079561007606 $609 46.500470006303082 $604 $652 forward 7 unknown #
vertex $-1 $507 $653 #
straight-curve $-1 -72.696704944512334 21.391889626405096 14.644579675223348 -1 0 0 I I #
edge $-1 $609 -13.17811345463171 $504 -3.2494388889150603 $503 $654 forward 7 unknown #
vertex $-1 $608 $655 #
straight-curve $-1 -64.372081667531361 21.391889626405096 7.0520657696808655 0.77714595512881146 0 0.62932039886446345 I I #
point $-1 -54.996108027397725 21.391889626405096 14.644579675223351 #
point $-1 -64.372081667531361 11.463215060688446 7.0520657696808655 #
straight-curve $-1 -64.372081667531361 0 14.644579675223351 0 -1 0 I I #
vertex $-1 $510 $656 #
point $-1 -53.115405962875194 16.427552343546772 5.9146990821561545 #
coedge $-1 $525 $524 $517 $617 forward $514 $-1 #
edge $-1 $618 38.9079561007606 $621 46.500470006303082 $616 $657 forward 7 unknown #
vertex $-1 $529 $658 #
straight-curve $-1 -72.696704944512334 37.378998993857074 14.644579675223348 -1 0 0 I I #
edge $-1 $621 -21.171668138357699 $526 -11.242993572641051 $525 $659 forward 7 unknown #
vertex $-1 $620 $660 #
straight-curve $-1 -64.372081667531361 37.378998993857074 7.0520657696808655 0.77714595512881146 0 0.62932039886446345 I I #
point $-1 -54.996108027397725 37.378998993857074 14.644579675223351 #
point $-1 -64.372081667531361 27.450324428140426 7.0520657696808655 #
straight-curve $-1 -64.372081667531361 0 14.644579675223351 0 -1 0 I I #
vertex $-1 $532 $661 #
point $-1 -53.115405962875194 32.41466171099875 5.9146990821561545 #
straight-curve $-1 -64.372081667531361 40.169341968210311 0 0 0 -1 I I #
point $-1 -64.372081667531361 -40.169341968210311 -14.644579675223351 #
straight-curve $-1 -64.372081667531361 0 -14.644579675223351 0 1 0 I I #
point $-1 -64.372081667531361 40.169341968210311 -14.644579675223351 #
straight-curve $-1 -64.372081667531361 -15.98710936745198 -10.403623050942418 0 -1 0 I I #
point $-1 -64.372081667531361 -40.169341968210311 -10.403623050942418 #
point $-1 -64.372081667531361 -23.77909550159761 -10.403623050942418 #
straight-curve $-1 -64.372081667531361 -23.77909550159761 -3.1520754026801967 0 0 -1 I I #
straight-curve $-1 -64.372081667531361 -40.169341968210311 0 0 0 -1 I I #
straight-curve $-1 14.815578541315311 6.7548786688835953 14.644579675223355 -1 0 0 I I #
point $-1 64.372081667531361 6.7548786688835953 14.644579675223351 #
straight-curve $-1 55.802203853114136 -0.63570714464090017 14.644579675223355 0 -1 0 I I #
point $-1 55.802203853114122 6.7548786688835953 14.644579675223355 #
point $-1 58.377122067497396 -1.2714142892818003 9.2191419469163893 #
straight-curve $-1 -64.372081667531361 -10.582329108498859 53.552535775983948 0 0 -1 I I #
point $-1 -64.372081667531361 -10.582329108498859 14.644579675223351 #
straight-curve $-1 -64.372081667531361 -7.7733331956785925 7.0520657696808673 0 -1 0 I I #
point $-1 -64.372081667531361 -10.582329108498859 7.0520657696808655 #
point $-1 -53.411057075403889 -15.546666391357185 3.1017663741696042 #
straight-curve $-1 -64.372081667531361 5.4047802589531191 53.552535775983948 0 0 -1 I I #
point $-1 -64.372081667531361 5.4047802589531191 14.644579675223351 #
straight-curve $-1 -64.372081667531361 0.22022148804739672 7.0520657696808673 0 -1 0 I I #
point $-1 -64.372081667531361 5.4047802589531191 7.0520657696808655 #
point $-1 -53.411057075403889 0.44044297609479344 3.1017663741696042 #
straight-curve $-1 -64.372081667531361 21.391889626405096 53.552535775983948 0 0 -1 I I #
point $-1 -64.372081667531361 21.391889626405096 14.644579675223351 #
straight-curve $-1 -64.372081667531361 8.2137761717733859 7.0520657696808673 0 -1 0 I I #
point $-1 -64.372081667531361 21.391889626405096 7.0520657696808655 #
point $-1 -53.411057075403889 16.427552343546772 3.1017663741696042 #
straight-curve $-1 -64.372081667531361 37.378998993857074 53.552535775983948 0 0 -1 I I #
point $-1 -64.372081667531361 37.378998993857074 14.644579675223351 #
straight-curve $-1 -64.372081667531361 16.207330855499375 7.0520657696808673 0 -1 0 I I #
point $-1 -64.372081667531361 37.378998993857074 7.0520657696808655 #
point $-1 -53.411057075403889 32.41466171099875 3.1017663741696042 #
End-of-ACIS-data 