500 0 15 0           
7 Unknown 11 ACIS 5.0 NT 24 Thu Mar 25 18:22:49 1999 
-1 9.9999999999999995e-007 1e-010 
body $-1 $15 $-1 $16 #
body $-1 $17 $-1 $18 #
body $-1 $19 $-1 $20 #
body $-1 $21 $-1 $22 #
body $-1 $23 $-1 $24 #
body $-1 $25 $-1 $26 #
body $-1 $27 $-1 $28 #
body $-1 $29 $-1 $30 #
body $-1 $31 $-1 $32 #
body $-1 $33 $-1 $34 #
body $-1 $35 $-1 $36 #
body $-1 $37 $-1 $38 #
body $-1 $39 $-1 $40 #
body $-1 $41 $-1 $42 #
body $-1 $43 $-1 $44 #
lump $-1 $-1 $45 $0 #
transform $-1 1 0 0 0 1 0 0 0 1 45.713064973906675 24.39322919610456 7.8092280119369137 1 rotate no_reflect no_shear #
lump $-1 $-1 $46 $1 #
transform $-1 1 0 0 0 1 0 0 0 1 45.713064973906675 24.39322919610456 7.8092280119369137 1 rotate no_reflect no_shear #
lump $-1 $-1 $47 $2 #
transform $-1 1 0 0 0 1 0 0 0 1 45.713064973906675 24.39322919610456 7.8092280119369137 1 rotate no_reflect no_shear #
lump $-1 $-1 $48 $3 #
transform $-1 1 0 0 0 1 0 0 0 1 45.713064973906675 24.39322919610456 7.8092280119369137 1 rotate no_reflect no_shear #
lump $-1 $-1 $49 $4 #
transform $-1 1 0 0 0 1 0 0 0 1 45.713064973906675 24.39322919610456 7.8092280119369137 1 rotate no_reflect no_shear #
lump $-1 $-1 $50 $5 #
transform $-1 1 0 0 0 1 0 0 0 1 45.713064973906675 24.39322919610456 7.8092280119369137 1 rotate no_reflect no_shear #
lump $-1 $-1 $51 $6 #
transform $-1 1 0 0 0 1 0 0 0 1 45.713064973906675 24.39322919610456 7.8092280119369137 1 rotate no_reflect no_shear #
lump $-1 $-1 $52 $7 #
transform $-1 1 0 0 0 1 0 0 0 1 45.713064973906675 24.39322919610456 7.8092280119369137 1 rotate no_reflect no_shear #
lump $-1 $-1 $53 $8 #
transform $-1 1 0 0 0 1 0 0 0 1 45.713064973906675 24.39322919610456 7.8092280119369137 1 rotate no_reflect no_shear #
lump $-1 $-1 $54 $9 #
transform $-1 1 0 0 0 1 0 0 0 1 45.713064973906675 24.39322919610456 7.8092280119369137 1 rotate no_reflect no_shear #
lump $-1 $-1 $55 $10 #
transform $-1 1 0 0 0 1 0 0 0 1 45.713064973906675 24.39322919610456 7.8092280119369137 1 rotate no_reflect no_shear #
lump $-1 $-1 $56 $11 #
transform $-1 1 0 0 0 1 0 0 0 1 45.713064973906675 24.39322919610456 7.8092280119369137 1 rotate no_reflect no_shear #
lump $-1 $-1 $57 $12 #
transform $-1 1 0 0 0 1 0 0 0 1 45.713064973906675 24.39322919610456 7.8092280119369137 1 rotate no_reflect no_shear #
lump $-1 $-1 $58 $13 #
transform $-1 1 0 0 0 1 0 0 0 1 45.713064973906675 24.39322919610456 7.8092280119369137 1 rotate no_reflect no_shear #
lump $-1 $-1 $59 $14 #
transform $-1 1 0 0 0 1 0 0 0 1 45.713064973906675 24.39322919610456 7.8092280119369137 1 rotate no_reflect no_shear #
shell $-1 $-1 $-1 $60 $-1 $15 #
shell $-1 $-1 $-1 $61 $-1 $17 #
shell $-1 $-1 $-1 $62 $-1 $19 #
shell $-1 $-1 $-1 $63 $-1 $21 #
shell $-1 $-1 $-1 $64 $-1 $23 #
shell $-1 $-1 $-1 $65 $-1 $25 #
shell $-1 $-1 $-1 $66 $-1 $27 #
shell $-1 $-1 $-1 $67 $-1 $29 #
shell $-1 $-1 $-1 $68 $-1 $31 #
shell $-1 $-1 $-1 $69 $-1 $33 #
shell $-1 $-1 $-1 $70 $-1 $35 #
shell $-1 $-1 $-1 $71 $-1 $37 #
shell $-1 $-1 $-1 $72 $-1 $39 #
shell $-1 $-1 $-1 $73 $-1 $41 #
shell $-1 $-1 $-1 $74 $-1 $43 #
face $-1 $75 $76 $45 $-1 $77 forward single #
face $-1 $78 $79 $46 $-1 $80 reversed single #
face $-1 $81 $82 $47 $-1 $83 reversed single #
face $-1 $84 $85 $48 $-1 $86 reversed single #
face $-1 $87 $88 $49 $-1 $89 forward single #
face $-1 $90 $91 $50 $-1 $92 forward single #
face $-1 $93 $94 $51 $-1 $95 reversed single #
face $-1 $96 $97 $52 $-1 $98 forward single #
face $-1 $99 $100 $53 $-1 $101 forward single #
face $-1 $102 $103 $54 $-1 $104 reversed single #
face $-1 $105 $106 $55 $-1 $107 forward single #
face $-1 $108 $109 $56 $-1 $110 forward single #
face $-1 $111 $112 $57 $-1 $113 reversed single #
face $-1 $114 $115 $58 $-1 $116 forward single #
face $-1 $117 $118 $59 $-1 $119 forward single #
face $-1 $120 $121 $45 $-1 $122 reversed single #
loop $-1 $-1 $123 $60 #
plane-surface $-1 0 0 7.8092280119369137 0 0 1 1 0 0 forward_v I I I I #
face $-1 $124 $125 $46 $-1 $126 reversed single #
loop $-1 $-1 $127 $61 #
plane-surface $-1 -38.707610459955482 0 6.3092280119369137 -1 0 0 0 0 1 forward_v I I I I #
face $-1 $128 $129 $47 $-1 $130 reversed single #
loop $-1 $-1 $131 $62 #
plane-surface $-1 42.210337716931072 0 4.8092280119369137 0 0 1 1 0 0 forward_v I I I I #
face $-1 $132 $133 $48 $-1 $134 reversed single #
loop $-1 $-1 $135 $63 #
plane-surface $-1 -34.369498164586489 -15.075844472387431 31.240041243209077 0 0.5877852598018023 0.80901698891910034 1 0 0 forward_v I I I I #
face $-1 $136 $137 $49 $-1 $138 forward single #
loop $-1 $139 $140 $64 #
cone-surface $-1 -36.228689148316057 20.298701812534389 4.5192959110034057 0 -0.5877852598018023 -0.80901698891910034 0.5 0 0 1 I I 0 1 0.5 forward I I I I #
face $-1 $141 $142 $50 $-1 $143 forward single #
loop $-1 $144 $145 $65 #
cone-surface $-1 -32.510307180856913 20.298701812534389 4.5192959110034057 0 -0.5877852598018023 -0.80901698891910034 0.5 0 0 1 I I 0 1 0.5 forward I I I I #
face $-1 $146 $147 $51 $-1 $148 reversed single #
loop $-1 $-1 $149 $66 #
plane-surface $-1 -15.794611683564495 38.66308707166138 105.20533360211542 1 0 0 0 -0.5877852598018023 -0.80901698891910034 forward_v I I I I #
face $-1 $150 $151 $52 $-1 $152 forward single #
loop $-1 $153 $154 $67 #
cone-surface $-1 -13.315690371925065 20.298701812534389 4.5192959110034057 0 -0.5877852598018023 -0.80901698891910034 0.5 0 0 1 I I 0 1 0.5 forward I I I I #
face $-1 $155 $156 $53 $-1 $157 forward single #
loop $-1 $158 $159 $68 #
cone-surface $-1 -9.5973084044659274 20.298701812534389 4.5192959110034057 0 -0.5877852598018023 -0.80901698891910034 0.5 0 0 1 I I 0 1 0.5 forward I I I I #
face $-1 $160 $161 $54 $-1 $162 reversed single #
loop $-1 $-1 $163 $69 #
plane-surface $-1 7.1183870928264898 38.66308707166138 105.20533360211542 1 0 0 0 -0.5877852598018023 -0.80901698891910034 forward_v I I I I #
face $-1 $164 $165 $55 $-1 $166 forward single #
loop $-1 $167 $168 $70 #
cone-surface $-1 9.5973084044659274 20.298701812534389 4.5192959110034057 0 -0.5877852598018023 -0.80901698891910034 0.5 0 0 1 I I 0 1 0.5 forward I I I I #
face $-1 $169 $170 $56 $-1 $171 forward single #
loop $-1 $172 $173 $71 #
cone-surface $-1 13.315690371925065 20.298701812534389 4.5192959110034057 0 -0.5877852598018023 -0.80901698891910034 0.5 0 0 1 I I 0 1 0.5 forward I I I I #
face $-1 $174 $175 $57 $-1 $176 reversed single #
loop $-1 $-1 $177 $72 #
plane-surface $-1 30.03138586921748 38.66308707166138 105.20533360211542 1 0 0 0 -0.5877852598018023 -0.80901698891910034 forward_v I I I I #
face $-1 $178 $179 $58 $-1 $180 forward single #
loop $-1 $181 $182 $73 #
cone-surface $-1 32.51030718085692 20.298701812534389 4.5192959110034057 0 -0.5877852598018023 -0.80901698891910034 0.5 0 0 1 I I 0 1 0.5 forward I I I I #
face $-1 $183 $184 $59 $-1 $185 forward single #
loop $-1 $186 $187 $74 #
cone-surface $-1 36.228689148316057 20.298701812534389 4.5192959110034057 0 -0.5877852598018023 -0.80901698891910034 0.5 0 0 1 I I 0 1 0.5 forward I I I I #
face $-1 $188 $189 $45 $-1 $190 reversed single #
loop $-1 $-1 $191 $75 #
plane-surface $-1 0 0 -7.8092280119369137 0 0 1 1 0 0 forward_v I I I I #
coedge $-1 $192 $193 $194 $195 forward $76 $-1 #
face $-1 $196 $197 $46 $-1 $198 reversed single #
loop $-1 $-1 $199 $78 #
plane-surface $-1 -42.210337716931079 0 4.8092280119369137 0 0 1 1 0 0 forward_v I I I I #
coedge $-1 $200 $201 $202 $203 reversed $79 $-1 #
face $-1 $204 $205 $47 $-1 $206 forward single #
loop $-1 $-1 $207 $81 #
plane-surface $-1 38.707610459955475 0 6.3092280119369137 1 0 0 0 0 -1 forward_v I I I I #
coedge $-1 $208 $209 $210 $211 reversed $82 $-1 #
face $-1 $212 $213 $48 $-1 $214 reversed single #
loop $-1 $-1 $215 $84 #
plane-surface $-1 -30.031385869217488 38.66308707166138 105.20533360211542 -1 0 0 0 0.5877852598018023 0.80901698891910034 forward_v I I I I #
coedge $-1 $216 $217 $218 $219 reversed $85 $-1 #
face $-1 $-1 $220 $49 $-1 $221 forward single #
loop $-1 $222 $223 $87 #
cone-surface $-1 -36.228689148316057 19.666891406278271 3.649683507641277 0 -0.5877852598018023 -0.80901698891910034 0.25 0 0 1 I I -0.70710678118654746 0.70710678118654746 0.25 forward I I I I #
loop $-1 $-1 $224 $64 #
coedge $-1 $140 $140 $225 $226 reversed $88 $-1 #
face $-1 $-1 $227 $50 $-1 $228 forward single #
loop $-1 $229 $230 $90 #
cone-surface $-1 -32.510307180856913 19.666891406278271 3.649683507641277 0 -0.5877852598018023 -0.80901698891910034 0.25 0 0 1 I I -0.70710678118654746 0.70710678118654746 0.25 forward I I I I #
loop $-1 $-1 $231 $65 #
coedge $-1 $145 $145 $232 $233 reversed $91 $-1 #
face $-1 $234 $235 $51 $-1 $236 reversed single #
loop $-1 $-1 $237 $93 #
plane-surface $-1 -11.456499388195496 -15.075844472387431 31.240041243209077 0 0.5877852598018023 0.80901698891910034 1 0 0 forward_v I I I I #
coedge $-1 $238 $239 $240 $241 reversed $94 $-1 #
face $-1 $-1 $242 $52 $-1 $243 forward single #
loop $-1 $244 $245 $96 #
cone-surface $-1 -13.315690371925065 19.666891406278271 3.649683507641277 0 -0.5877852598018023 -0.80901698891910034 0.25 0 0 1 I I -0.70710678118654746 0.70710678118654746 0.25 forward I I I I #
loop $-1 $-1 $246 $67 #
coedge $-1 $154 $154 $247 $248 reversed $97 $-1 #
face $-1 $-1 $249 $53 $-1 $250 forward single #
loop $-1 $251 $252 $99 #
cone-surface $-1 -9.5973084044659274 19.666891406278271 3.649683507641277 0 -0.5877852598018023 -0.80901698891910034 0.25 0 0 1 I I -0.70710678118654746 0.70710678118654746 0.25 forward I I I I #
loop $-1 $-1 $253 $68 #
coedge $-1 $159 $159 $254 $255 reversed $100 $-1 #
face $-1 $256 $257 $54 $-1 $258 reversed single #
loop $-1 $-1 $259 $102 #
plane-surface $-1 11.456499388195489 -15.075844472387431 31.240041243209077 0 0.5877852598018023 0.80901698891910034 1 0 0 forward_v I I I I #
coedge $-1 $260 $261 $262 $263 reversed $103 $-1 #
face $-1 $-1 $264 $55 $-1 $265 forward single #
loop $-1 $266 $267 $105 #
cone-surface $-1 9.5973084044659274 19.666891406278271 3.649683507641277 0 -0.5877852598018023 -0.80901698891910034 0.25 0 0 1 I I -0.70710678118654746 0.70710678118654746 0.25 forward I I I I #
loop $-1 $-1 $268 $70 #
coedge $-1 $168 $168 $269 $270 reversed $106 $-1 #
face $-1 $-1 $271 $56 $-1 $272 forward single #
loop $-1 $273 $274 $108 #
cone-surface $-1 13.315690371925065 19.666891406278271 3.649683507641277 0 -0.5877852598018023 -0.80901698891910034 0.25 0 0 1 I I -0.70710678118654746 0.70710678118654746 0.25 forward I I I I #
loop $-1 $-1 $275 $71 #
coedge $-1 $173 $173 $276 $277 reversed $109 $-1 #
face $-1 $278 $279 $57 $-1 $280 forward single #
loop $-1 $-1 $281 $111 #
plane-surface $-1 34.369498164586481 -15.075844472387431 31.240041243209077 0 0.5877852598018023 0.80901698891910034 1 0 0 forward_v I I I I #
coedge $-1 $282 $283 $284 $285 reversed $112 $-1 #
face $-1 $-1 $286 $58 $-1 $287 forward single #
loop $-1 $288 $289 $114 #
cone-surface $-1 32.51030718085692 19.666891406278271 3.649683507641277 0 -0.5877852598018023 -0.80901698891910034 0.25 0 0 1 I I -0.70710678118654746 0.70710678118654746 0.25 forward I I I I #
loop $-1 $-1 $290 $73 #
coedge $-1 $182 $182 $291 $292 reversed $115 $-1 #
face $-1 $-1 $293 $59 $-1 $294 forward single #
loop $-1 $295 $296 $117 #
cone-surface $-1 36.228689148316057 19.666891406278271 3.649683507641277 0 -0.5877852598018023 -0.80901698891910034 0.25 0 0 1 I I -0.70710678118654746 0.70710678118654746 0.25 forward I I I I #
loop $-1 $-1 $297 $74 #
coedge $-1 $187 $187 $298 $299 reversed $118 $-1 #
face $-1 $300 $301 $45 $-1 $302 reversed single #
loop $-1 $-1 $303 $120 #
plane-surface $-1 0 -24.39322919610456 0 0 1 0 0 0 1 forward_v I I I I #
coedge $-1 $304 $305 $306 $307 forward $121 $-1 #
coedge $-1 $308 $123 $309 $310 forward $76 $-1 #
coedge $-1 $123 $308 $311 $312 forward $76 $-1 #
coedge $-1 $313 $314 $123 $195 reversed $315 $-1 #
edge $-1 $316 -24.39322919610456 $317 24.39322919610456 $194 $318 forward 7 unknown #
face $-1 $319 $320 $46 $-1 $321 reversed single #
loop $-1 $-1 $322 $124 #
plane-surface $-1 0 24.39322919610456 0 0 -1 0 0 0 -1 forward_v I I I I #
coedge $-1 $323 $324 $325 $326 forward $125 $-1 #
coedge $-1 $325 $127 $327 $328 reversed $79 $-1 #
coedge $-1 $127 $325 $322 $329 reversed $79 $-1 #
coedge $-1 $330 $331 $127 $203 forward $332 $-1 #
edge $-1 $333 -24.39322919610456 $334 24.39322919610456 $202 $335 forward 7 unknown #
face $-1 $336 $337 $47 $-1 $338 reversed single #
loop $-1 $-1 $339 $128 #
plane-surface $-1 0 0 7.8092280119369137 0 0 1 1 0 0 forward_v I I I I #
coedge $-1 $340 $341 $342 $343 reversed $129 $-1 #
coedge $-1 $342 $131 $344 $345 reversed $82 $-1 #
coedge $-1 $131 $342 $346 $347 reversed $82 $-1 #
coedge $-1 $348 $349 $131 $211 forward $350 $-1 #
edge $-1 $351 -24.39322919610456 $352 24.39322919610456 $210 $353 forward 7 unknown #
face $-1 $354 $355 $48 $-1 $356 forward single #
loop $-1 $-1 $357 $132 #
plane-surface $-1 0 24.39322919610456 0 0 -1 0 0 0 -1 forward_v I I I I #
coedge $-1 $358 $359 $360 $361 reversed $133 $-1 #
coedge $-1 $362 $135 $363 $364 reversed $85 $-1 #
coedge $-1 $135 $362 $358 $365 forward $85 $-1 #
coedge $-1 $360 $366 $135 $219 forward $355 $-1 #
edge $-1 $367 -21.522861377662245 $368 -12.846636786924243 $218 $369 forward 7 unknown #
loop $-1 $-1 $225 $136 #
plane-surface $-1 -34.369498164586489 -15.075844472387431 31.240041243209077 0 0.5877852598018023 0.80901698891910034 1 0 0 forward_v I I I I #
loop $-1 $-1 $370 $87 #
coedge $-1 $223 $223 $224 $371 reversed $137 $-1 #
coedge $-1 $224 $224 $223 $371 forward $139 $-1 #
coedge $-1 $225 $225 $140 $226 forward $220 $-1 #
edge $-1 $372 2.5929766231148224e-015 $372 6.2831853071796031 $225 $373 forward 7 unknown #
loop $-1 $-1 $232 $141 #
plane-surface $-1 -34.369498164586489 -15.075844472387431 31.240041243209077 0 0.5877852598018023 0.80901698891910034 1 0 0 forward_v I I I I #
loop $-1 $-1 $374 $90 #
coedge $-1 $230 $230 $231 $375 reversed $142 $-1 #
coedge $-1 $231 $231 $230 $375 forward $144 $-1 #
coedge $-1 $232 $232 $145 $233 forward $227 $-1 #
edge $-1 $376 2.5929766231148224e-015 $376 6.2831853071796031 $232 $377 forward 7 unknown #
face $-1 $378 $379 $51 $-1 $380 forward single #
loop $-1 $-1 $381 $146 #
plane-surface $-1 -7.118387092826497 38.66308707166138 105.20533360211542 -1 0 0 0 0.5877852598018023 0.80901698891910034 forward_v I I I I #
coedge $-1 $382 $383 $384 $385 reversed $147 $-1 #
coedge $-1 $239 $149 $386 $387 reversed $94 $-1 #
coedge $-1 $149 $238 $382 $388 reversed $94 $-1 #
coedge $-1 $384 $389 $149 $241 forward $379 $-1 #
edge $-1 $390 -5.06168566027387 $391 2.157640924255098 $240 $392 forward 7 unknown #
loop $-1 $-1 $247 $150 #
plane-surface $-1 -11.456499388195496 -15.075844472387431 31.240041243209077 0 0.5877852598018023 0.80901698891910034 1 0 0 forward_v I I I I #
loop $-1 $-1 $393 $96 #
coedge $-1 $245 $245 $246 $394 reversed $151 $-1 #
coedge $-1 $246 $246 $245 $394 forward $153 $-1 #
coedge $-1 $247 $247 $154 $248 forward $242 $-1 #
edge $-1 $395 2.5929766231148224e-015 $395 6.2831853071796031 $247 $396 forward 7 unknown #
loop $-1 $-1 $254 $155 #
plane-surface $-1 -11.456499388195496 -15.075844472387431 31.240041243209077 0 0.5877852598018023 0.80901698891910034 1 0 0 forward_v I I I I #
loop $-1 $-1 $397 $99 #
coedge $-1 $252 $252 $253 $398 reversed $156 $-1 #
coedge $-1 $253 $253 $252 $398 forward $158 $-1 #
coedge $-1 $254 $254 $159 $255 forward $249 $-1 #
edge $-1 $399 2.5929766231148224e-015 $399 6.2831853071796031 $254 $400 forward 7 unknown #
face $-1 $401 $402 $54 $-1 $403 forward single #
loop $-1 $-1 $404 $160 #
plane-surface $-1 15.794611683564488 38.66308707166138 105.20533360211542 -1 0 0 0 0.5877852598018023 0.80901698891910034 forward_v I I I I #
coedge $-1 $405 $406 $407 $408 reversed $161 $-1 #
coedge $-1 $261 $163 $409 $410 reversed $103 $-1 #
coedge $-1 $163 $260 $405 $411 reversed $103 $-1 #
coedge $-1 $407 $412 $163 $263 forward $402 $-1 #
edge $-1 $413 -5.06168566027387 $414 2.157640924255098 $262 $415 forward 7 unknown #
loop $-1 $-1 $269 $164 #
plane-surface $-1 11.456499388195489 -15.075844472387431 31.240041243209077 0 0.5877852598018023 0.80901698891910034 1 0 0 forward_v I I I I #
loop $-1 $-1 $416 $105 #
coedge $-1 $267 $267 $268 $417 reversed $165 $-1 #
coedge $-1 $268 $268 $267 $417 forward $167 $-1 #
coedge $-1 $269 $269 $168 $270 forward $264 $-1 #
edge $-1 $418 2.5929766231148224e-015 $418 6.2831853071796031 $269 $419 forward 7 unknown #
loop $-1 $-1 $276 $169 #
plane-surface $-1 11.456499388195489 -15.075844472387431 31.240041243209077 0 0.5877852598018023 0.80901698891910034 1 0 0 forward_v I I I I #
loop $-1 $-1 $420 $108 #
coedge $-1 $274 $274 $275 $421 reversed $170 $-1 #
coedge $-1 $275 $275 $274 $421 forward $172 $-1 #
coedge $-1 $276 $276 $173 $277 forward $271 $-1 #
edge $-1 $422 2.5929766231148224e-015 $422 6.2831853071796031 $276 $423 forward 7 unknown #
face $-1 $424 $425 $57 $-1 $426 forward single #
loop $-1 $-1 $284 $174 #
plane-surface $-1 0 0 7.8092280119369137 0 0 1 1 0 0 forward_v I I I I #
coedge $-1 $427 $428 $429 $430 reversed $175 $-1 #
coedge $-1 $283 $177 $431 $432 reversed $112 $-1 #
coedge $-1 $177 $282 $427 $433 reversed $112 $-1 #
coedge $-1 $429 $434 $177 $285 forward $279 $-1 #
edge $-1 $435 -5.06168566027387 $436 2.157640924255098 $284 $437 forward 7 unknown #
loop $-1 $-1 $291 $178 #
plane-surface $-1 34.369498164586481 -15.075844472387431 31.240041243209077 0 0.5877852598018023 0.80901698891910034 1 0 0 forward_v I I I I #
loop $-1 $-1 $438 $114 #
coedge $-1 $289 $289 $290 $439 reversed $179 $-1 #
coedge $-1 $290 $290 $289 $439 forward $181 $-1 #
coedge $-1 $291 $291 $182 $292 forward $286 $-1 #
edge $-1 $440 2.5929766231148224e-015 $440 6.2831853071796031 $291 $441 forward 7 unknown #
loop $-1 $-1 $298 $183 #
plane-surface $-1 34.369498164586481 -15.075844472387431 31.240041243209077 0 0.5877852598018023 0.80901698891910034 1 0 0 forward_v I I I I #
loop $-1 $-1 $442 $117 #
coedge $-1 $296 $296 $297 $443 reversed $184 $-1 #
coedge $-1 $297 $297 $296 $443 forward $186 $-1 #
coedge $-1 $298 $298 $187 $299 forward $293 $-1 #
edge $-1 $444 2.5929766231148224e-015 $444 6.2831853071796031 $298 $445 forward 7 unknown #
face $-1 $446 $447 $45 $-1 $448 reversed single #
loop $-1 $-1 $449 $188 #
plane-surface $-1 -45.713064973906675 0 0 1 0 0 0 0 -1 forward_v I I I I #
coedge $-1 $450 $311 $451 $452 forward $189 $-1 #
coedge $-1 $453 $191 $450 $454 forward $121 $-1 #
coedge $-1 $191 $453 $455 $456 forward $121 $-1 #
coedge $-1 $314 $313 $191 $307 reversed $315 $-1 #
edge $-1 $457 -24.39322919610456 $458 24.39322919610456 $306 $459 forward 7 unknown #
coedge $-1 $193 $192 $460 $461 forward $76 $-1 #
coedge $-1 $462 $463 $192 $310 reversed $447 $-1 #
edge $-1 $317 -45.713064973906675 $464 45.713064973906675 $309 $465 forward 7 unknown #
coedge $-1 $303 $466 $193 $312 reversed $189 $-1 #
edge $-1 $467 -45.713064973906675 $316 45.713064973906675 $311 $468 forward 7 unknown #
coedge $-1 $306 $194 $466 $469 forward $315 $-1 #
coedge $-1 $194 $306 $462 $470 reversed $315 $-1 #
loop $-1 $-1 $313 $446 #
vertex $-1 $195 $471 #
vertex $-1 $195 $472 #
straight-curve $-1 45.713064973906675 0 7.8092280119369137 0 1 0 I I #
face $-1 $473 $332 $46 $-1 $474 forward single #
loop $-1 $-1 $475 $196 #
plane-surface $-1 -45.713064973906675 0 0 1 0 0 0 0 -1 forward_v I I I I #
coedge $-1 $476 $477 $201 $329 forward $197 $-1 #
coedge $-1 $478 $199 $479 $480 reversed $125 $-1 #
coedge $-1 $199 $478 $476 $481 reversed $125 $-1 #
coedge $-1 $201 $200 $199 $326 reversed $79 $-1 #
edge $-1 $482 -24.39322919610456 $483 24.39322919610456 $325 $484 forward 7 unknown #
coedge $-1 $485 $479 $200 $328 forward $486 $-1 #
edge $-1 $483 1.6546140059684569 $333 4.6546140059684564 $327 $487 forward 7 unknown #
edge $-1 $334 -4.6546140059684564 $482 -1.6546140059684569 $322 $488 forward 7 unknown #
coedge $-1 $489 $202 $477 $490 forward $332 $-1 #
coedge $-1 $202 $489 $485 $491 forward $332 $-1 #
loop $-1 $-1 $202 $319 #
vertex $-1 $328 $492 #
vertex $-1 $490 $493 #
straight-curve $-1 -38.707610459955482 0 7.8092280119369137 0 1 0 I I #
face $-1 $494 $495 $47 $-1 $496 reversed single #
loop $-1 $-1 $497 $204 #
plane-surface $-1 0 -24.39322919610456 0 0 1 0 0 0 1 forward_v I I I I #
coedge $-1 $498 $499 $500 $501 forward $205 $-1 #
coedge $-1 $500 $207 $497 $502 reversed $129 $-1 #
coedge $-1 $207 $500 $503 $504 reversed $129 $-1 #
coedge $-1 $209 $208 $207 $343 forward $82 $-1 #
edge $-1 $505 -24.39322919610456 $506 24.39322919610456 $207 $507 forward 7 unknown #
coedge $-1 $508 $497 $208 $345 forward $337 $-1 #
edge $-1 $505 17.602441601489939 $351 24.607896115441132 $344 $509 forward 7 unknown #
coedge $-1 $503 $510 $209 $347 forward $495 $-1 #
edge $-1 $352 -24.607896115441132 $506 -17.602441601489939 $346 $511 forward 7 unknown #
coedge $-1 $512 $210 $510 $513 reversed $350 $-1 #
coedge $-1 $210 $512 $508 $514 forward $350 $-1 #
loop $-1 $-1 $210 $494 #
vertex $-1 $345 $515 #
vertex $-1 $211 $516 #
straight-curve $-1 45.713064973906675 0 4.8092280119369137 0 1 0 I I #
face $-1 $-1 $517 $48 $-1 $518 forward single #
loop $-1 $-1 $360 $212 #
plane-surface $-1 0 0 7.8092280119369137 0 0 1 1 0 0 forward_v I I I I #
coedge $-1 $519 $520 $359 $521 forward $213 $-1 #
coedge $-1 $359 $215 $217 $365 reversed $133 $-1 #
coedge $-1 $215 $358 $357 $521 reversed $133 $-1 #
coedge $-1 $522 $218 $215 $361 forward $355 $-1 #
edge $-1 $368 -2.157640924255098 $523 5.06168566027387 $360 $524 forward 7 unknown #
coedge $-1 $217 $216 $519 $525 reversed $85 $-1 #
coedge $-1 $526 $527 $216 $364 forward $517 $-1 #
edge $-1 $528 -35.361168975870577 $367 -26.437590505442586 $363 $529 forward 7 unknown #
edge $-1 $530 -48.786458392209113 $368 -39.862879921781115 $358 $531 forward 7 unknown #
coedge $-1 $218 $522 $526 $532 forward $355 $-1 #
vertex $-1 $364 $533 #
vertex $-1 $219 $534 #
straight-curve $-1 -17.184749082293244 17.173902611575599 7.8092280119369111 1 0 0 I I #
coedge $-1 $370 $370 $-1 $535 reversed $222 $-1 #
edge $-1 $536 0 $536 6.2831853071796004 $223 $537 forward 7 unknown #
vertex $-1 $226 $538 #
ellipse-curve $-1 -36.228689148316057 20.783565903840067 5.186654067135775 0 0.5877852598018023 0.80901698891910034 0.5 0 0 1 I I #
coedge $-1 $374 $374 $-1 $539 reversed $229 $-1 #
edge $-1 $540 0 $540 6.2831853071796004 $230 $541 forward 7 unknown #
vertex $-1 $233 $542 #
ellipse-curve $-1 -32.510307180856913 20.783565903840067 5.186654067135775 0 0.5877852598018023 0.80901698891910034 0.5 0 0 1 I I #
face $-1 $-1 $543 $51 $-1 $544 reversed single #
loop $-1 $-1 $240 $234 #
plane-surface $-1 0 0 7.8092280119369137 0 0 1 1 0 0 forward_v I I I I #
coedge $-1 $545 $546 $547 $548 reversed $235 $-1 #
coedge $-1 $549 $237 $239 $388 forward $147 $-1 #
coedge $-1 $237 $549 $545 $550 forward $147 $-1 #
coedge $-1 $547 $240 $237 $385 forward $379 $-1 #
edge $-1 $391 -10.066361989466747 $551 -1.3901373987287489 $384 $552 forward 7 unknown #
coedge $-1 $553 $554 $238 $387 forward $543 $-1 #
edge $-1 $555 -50.038586678723078 $390 -44.793438789120792 $386 $556 forward 7 unknown #
edge $-1 $391 39.862879921781115 $555 48.786458392209113 $239 $557 forward 7 unknown #
coedge $-1 $240 $547 $553 $558 forward $379 $-1 #
vertex $-1 $387 $559 #
vertex $-1 $241 $560 #
straight-curve $-1 -15.794611683564495 19.33154353583069 7.8092280119369164 0 -1 0 I I #
coedge $-1 $393 $393 $-1 $561 reversed $244 $-1 #
edge $-1 $562 0 $562 6.2831853071796004 $245 $563 forward 7 unknown #
vertex $-1 $248 $564 #
ellipse-curve $-1 -13.315690371925065 20.783565903840067 5.186654067135775 0 0.5877852598018023 0.80901698891910034 0.5 0 0 1 I I #
coedge $-1 $397 $397 $-1 $565 reversed $251 $-1 #
edge $-1 $566 0 $566 6.2831853071796004 $252 $567 forward 7 unknown #
vertex $-1 $255 $568 #
ellipse-curve $-1 -9.5973084044659274 20.783565903840067 5.186654067135775 0 0.5877852598018023 0.80901698891910034 0.5 0 0 1 I I #
face $-1 $-1 $569 $54 $-1 $570 reversed single #
loop $-1 $-1 $262 $256 #
plane-surface $-1 0 0 7.8092280119369137 0 0 1 1 0 0 forward_v I I I I #
coedge $-1 $571 $572 $573 $574 reversed $257 $-1 #
coedge $-1 $575 $259 $261 $411 forward $161 $-1 #
coedge $-1 $259 $575 $571 $576 forward $161 $-1 #
coedge $-1 $573 $262 $259 $408 forward $402 $-1 #
edge $-1 $414 1.3901373987287453 $577 10.066361989466744 $407 $578 forward 7 unknown #
coedge $-1 $579 $580 $260 $410 forward $569 $-1 #
edge $-1 $581 -50.038586678723078 $413 -44.793438789120792 $409 $582 forward 7 unknown #
edge $-1 $414 39.862879921781115 $581 48.786458392209113 $261 $583 forward 7 unknown #
coedge $-1 $262 $573 $579 $584 forward $402 $-1 #
vertex $-1 $263 $585 #
vertex $-1 $263 $586 #
straight-curve $-1 7.1183870928264898 19.33154353583069 7.8092280119369164 0 -1 0 I I #
coedge $-1 $416 $416 $-1 $587 reversed $266 $-1 #
edge $-1 $588 0 $588 6.2831853071796004 $267 $589 forward 7 unknown #
vertex $-1 $270 $590 #
ellipse-curve $-1 9.5973084044659274 20.783565903840067 5.186654067135775 0 0.5877852598018023 0.80901698891910034 0.5 0 0 1 I I #
coedge $-1 $420 $420 $-1 $591 reversed $273 $-1 #
edge $-1 $592 0 $592 6.2831853071796004 $274 $593 forward 7 unknown #
vertex $-1 $277 $594 #
ellipse-curve $-1 13.315690371925065 20.783565903840067 5.186654067135775 0 0.5877852598018023 0.80901698891910034 0.5 0 0 1 I I #
face $-1 $-1 $595 $57 $-1 $596 reversed single #
loop $-1 $-1 $597 $278 #
plane-surface $-1 38.707610459955475 0 6.3092280119369137 1 0 0 0 0 -1 forward_v I I I I #
coedge $-1 $598 $281 $283 $433 forward $175 $-1 #
coedge $-1 $281 $598 $597 $599 forward $175 $-1 #
coedge $-1 $600 $284 $281 $430 forward $279 $-1 #
edge $-1 $436 12.84663678692424 $601 21.522861377662242 $429 $602 forward 7 unknown #
coedge $-1 $603 $604 $282 $432 forward $595 $-1 #
edge $-1 $605 -50.038586678723078 $435 -44.793438789120792 $431 $606 forward 7 unknown #
edge $-1 $436 39.862879921781115 $605 48.786458392209113 $283 $607 forward 7 unknown #
coedge $-1 $284 $600 $603 $608 forward $279 $-1 #
vertex $-1 $432 $609 #
vertex $-1 $285 $610 #
straight-curve $-1 30.03138586921748 19.33154353583069 7.8092280119369164 0 -1 0 I I #
coedge $-1 $438 $438 $-1 $611 reversed $288 $-1 #
edge $-1 $612 0 $612 6.2831853071796004 $289 $613 forward 7 unknown #
vertex $-1 $292 $614 #
ellipse-curve $-1 32.51030718085692 20.783565903840067 5.186654067135775 0 0.5877852598018023 0.80901698891910034 0.5 0 0 1 I I #
coedge $-1 $442 $442 $-1 $615 reversed $295 $-1 #
edge $-1 $616 0 $616 6.2831853071796004 $296 $617 forward 7 unknown #
vertex $-1 $299 $618 #
ellipse-curve $-1 36.228689148316057 20.783565903840067 5.186654067135775 0 0.5877852598018023 0.80901698891910034 0.5 0 0 1 I I #
face $-1 $-1 $315 $45 $-1 $619 reversed single #
loop $-1 $-1 $462 $300 #
plane-surface $-1 0 24.39322919610456 0 0 -1 0 0 0 -1 forward_v I I I I #
coedge $-1 $620 $460 $463 $621 forward $301 $-1 #
coedge $-1 $466 $303 $304 $454 reversed $189 $-1 #
coedge $-1 $460 $620 $303 $452 reversed $301 $-1 #
edge $-1 $467 -7.8092280119369137 $622 7.8092280119369137 $451 $623 forward 7 unknown #
coedge $-1 $305 $304 $620 $624 forward $121 $-1 #
edge $-1 $458 -45.713064973906675 $622 45.713064973906675 $450 $625 forward 7 unknown #
coedge $-1 $463 $462 $305 $456 reversed $447 $-1 #
edge $-1 $626 -45.713064973906675 $457 45.713064973906675 $455 $627 forward 7 unknown #
vertex $-1 $307 $628 #
vertex $-1 $469 $629 #
straight-curve $-1 45.713064973906675 0 -7.8092280119369137 0 -1 0 I I #
coedge $-1 $449 $451 $308 $461 reversed $301 $-1 #
edge $-1 $464 -24.39322919610456 $467 24.39322919610456 $460 $630 forward 7 unknown #
coedge $-1 $455 $309 $314 $470 forward $447 $-1 #
coedge $-1 $309 $455 $449 $621 reversed $447 $-1 #
vertex $-1 $310 $631 #
straight-curve $-1 0 24.39322919610456 7.8092280119369137 -1 0 0 I I #
coedge $-1 $311 $450 $313 $469 reversed $189 $-1 #
vertex $-1 $461 $632 #
straight-curve $-1 0 -24.39322919610456 7.8092280119369137 1 0 0 I I #
edge $-1 $316 -7.8092280119369137 $458 7.8092280119369137 $313 $633 forward 7 unknown #
edge $-1 $317 -7.8092280119369137 $457 7.8092280119369137 $314 $634 forward 7 unknown #
point $-1 45.713064973906675 -24.39322919610456 7.8092280119369137 #
point $-1 45.713064973906675 24.39322919610456 7.8092280119369137 #
face $-1 $-1 $486 $46 $-1 $635 reversed single #
plane-surface $-1 0 0 7.8092280119369137 0 0 1 1 0 0 forward_v I I I I #
coedge $-1 $636 $637 $478 $638 forward $320 $-1 #
coedge $-1 $639 $322 $324 $481 forward $197 $-1 #
coedge $-1 $322 $639 $330 $490 reversed $197 $-1 #
coedge $-1 $324 $323 $475 $638 reversed $125 $-1 #
coedge $-1 $327 $640 $323 $480 forward $486 $-1 #
edge $-1 $641 -24.607896115441136 $483 -17.602441601489943 $479 $642 forward 7 unknown #
edge $-1 $482 17.602441601489943 $643 24.607896115441136 $476 $644 forward 7 unknown #
vertex $-1 $481 $645 #
vertex $-1 $480 $646 #
straight-curve $-1 -38.707610459955482 0 4.8092280119369137 0 -1 0 I I #
coedge $-1 $640 $327 $331 $491 reversed $486 $-1 #
loop $-1 $-1 $327 $473 #
straight-curve $-1 -38.707610459955482 -24.39322919610456 3.1546140059684569 0 0 1 I I #
straight-curve $-1 -38.707610459955482 24.39322919610456 3.1546140059684569 0 0 -1 I I #
coedge $-1 $331 $330 $647 $648 forward $332 $-1 #
edge $-1 $334 38.707610459955482 $649 45.713064973906675 $477 $650 forward 7 unknown #
edge $-1 $651 -45.713064973906675 $333 -38.707610459955482 $485 $652 forward 7 unknown #
point $-1 -38.707610459955482 -24.39322919610456 7.8092280119369137 #
point $-1 -38.707610459955482 24.39322919610456 7.8092280119369137 #
face $-1 $-1 $350 $47 $-1 $653 reversed single #
loop $-1 $-1 $503 $336 #
plane-surface $-1 0 24.39322919610456 0 0 -1 0 0 0 -1 forward_v I I I I #
coedge $-1 $344 $654 $340 $502 forward $337 $-1 #
coedge $-1 $655 $339 $654 $656 forward $205 $-1 #
coedge $-1 $339 $655 $657 $658 forward $205 $-1 #
coedge $-1 $341 $340 $339 $501 reversed $129 $-1 #
edge $-1 $659 -24.39322919610456 $660 24.39322919610456 $339 $661 forward 7 unknown #
edge $-1 $660 -4.6546140059684564 $505 -1.6546140059684569 $497 $662 forward 7 unknown #
coedge $-1 $657 $346 $341 $504 forward $495 $-1 #
edge $-1 $506 1.6546140059684569 $659 4.6546140059684564 $503 $663 forward 7 unknown #
vertex $-1 $345 $664 #
vertex $-1 $347 $665 #
straight-curve $-1 38.707610459955475 0 4.8092280119369137 0 1 0 I I #
coedge $-1 $654 $344 $349 $514 reversed $337 $-1 #
straight-curve $-1 21.105168858465536 -24.39322919610456 4.8092280119369137 1 0 0 I I #
coedge $-1 $346 $657 $348 $513 forward $495 $-1 #
straight-curve $-1 21.105168858465536 24.39322919610456 4.8092280119369137 -1 0 0 I I #
coedge $-1 $349 $348 $655 $666 reversed $350 $-1 #
edge $-1 $667 -7.8092280119369137 $352 -4.8092280119369137 $348 $668 forward 7 unknown #
edge $-1 $669 -7.8092280119369137 $351 -4.8092280119369137 $349 $670 forward 7 unknown #
point $-1 45.713064973906668 -24.39322919610456 4.8092280119369137 #
point $-1 45.713064973906668 24.39322919610456 4.8092280119369137 #
loop $-1 $-1 $363 $354 #
plane-surface $-1 -38.707610459955482 0 6.3092280119369137 -1 0 0 0 0 1 forward_v I I I I #
coedge $-1 $671 $357 $362 $525 forward $213 $-1 #
coedge $-1 $357 $671 $522 $672 reversed $213 $-1 #
edge $-1 $523 44.793438789120792 $530 50.038586678723078 $357 $673 forward 7 unknown #
coedge $-1 $366 $360 $520 $672 forward $355 $-1 #
vertex $-1 $672 $674 #
straight-curve $-1 -30.031385869217488 19.33154353583069 7.8092280119369164 0 1 0 I I #
edge $-1 $530 12.846636786924243 $528 21.522861377662245 $519 $675 forward 7 unknown #
coedge $-1 $527 $363 $366 $532 reversed $517 $-1 #
coedge $-1 $363 $526 $671 $676 reversed $517 $-1 #
vertex $-1 $676 $677 #
straight-curve $-1 -38.707610459955482 -4.2145572534137656 23.348854015712149 0 -0.80901698891910034 0.5877852598018023 I I #
vertex $-1 $525 $678 #
straight-curve $-1 -30.031385869217488 -15.075844472387431 31.240041243209077 0 -0.80901698891910034 0.5877852598018023 I I #
edge $-1 $679 -24.39322919610456 $367 -17.173902611575592 $366 $680 forward 7 unknown #
point $-1 -38.70761045995549 17.173902611575592 7.8092280119369128 #
point $-1 -30.031385869217488 17.173902611575592 7.8092280119369128 #
edge $-1 $681 1 $681 0 $370 $-1 forward 7 unknown #
vertex $-1 $371 $682 #
ellipse-curve $-1 -36.228689148316057 19.813837721228722 3.8519377548710523 0 0.5877852598018023 0.80901698891910034 0.5 0 0 1 I I #
point $-1 -35.728689148316057 20.783565903840056 5.1866540671357582 #
edge $-1 $683 1 $683 0 $374 $-1 forward 7 unknown #
vertex $-1 $375 $684 #
ellipse-curve $-1 -32.510307180856913 19.813837721228722 3.8519377548710523 0 0.5877852598018023 0.80901698891910034 0.5 0 0 1 I I #
point $-1 -32.010307180856913 20.783565903840056 5.1866540671357582 #
loop $-1 $-1 $386 $378 #
plane-surface $-1 0 24.39322919610456 0 0 -1 0 0 0 -1 forward_v I I I I #
coedge $-1 $546 $381 $383 $550 reversed $235 $-1 #
coedge $-1 $381 $545 $685 $686 reversed $235 $-1 #
coedge $-1 $389 $384 $381 $548 forward $379 $-1 #
edge $-1 $551 -2.157640924255098 $687 5.06168566027387 $547 $688 forward 7 unknown #
coedge $-1 $383 $382 $554 $689 reversed $147 $-1 #
edge $-1 $690 -48.786458392209113 $551 -39.862879921781115 $545 $691 forward 7 unknown #
vertex $-1 $385 $692 #
straight-curve $-1 -5.7282496940977481 17.173902611575599 7.8092280119369111 1 0 0 I I #
coedge $-1 $685 $386 $389 $558 reversed $543 $-1 #
coedge $-1 $386 $685 $549 $689 forward $543 $-1 #
vertex $-1 $387 $693 #
straight-curve $-1 -15.794611683564495 24.39322919610456 52.602666801057708 0 0 1 I I #
straight-curve $-1 -15.794611683564495 -15.075844472387431 31.240041243209077 0 0.80901698891910034 -0.5877852598018023 I I #
edge $-1 $687 7.118387092826497 $390 15.794611683564495 $553 $694 forward 7 unknown #
point $-1 -15.794611683564495 24.39322919610456 7.8092280119369137 #
point $-1 -15.794611683564495 17.173902611575592 7.8092280119369128 #
edge $-1 $695 1 $695 0 $393 $-1 forward 7 unknown #
vertex $-1 $394 $696 #
ellipse-curve $-1 -13.315690371925065 19.813837721228722 3.8519377548710523 0 0.5877852598018023 0.80901698891910034 0.5 0 0 1 I I #
point $-1 -12.815690371925065 20.783565903840056 5.1866540671357582 #
edge $-1 $697 1 $697 0 $397 $-1 forward 7 unknown #
vertex $-1 $398 $698 #
ellipse-curve $-1 -9.5973084044659274 19.813837721228722 3.8519377548710523 0 0.5877852598018023 0.80901698891910034 0.5 0 0 1 I I #
point $-1 -9.0973084044659274 20.783565903840056 5.1866540671357582 #
loop $-1 $-1 $409 $401 #
plane-surface $-1 0 24.39322919610456 0 0 -1 0 0 0 -1 forward_v I I I I #
coedge $-1 $572 $404 $406 $576 reversed $257 $-1 #
coedge $-1 $404 $571 $699 $700 reversed $257 $-1 #
coedge $-1 $412 $407 $404 $574 forward $402 $-1 #
edge $-1 $577 -2.157640924255098 $701 5.06168566027387 $573 $702 forward 7 unknown #
coedge $-1 $406 $405 $580 $703 reversed $161 $-1 #
edge $-1 $704 -48.786458392209113 $577 -39.862879921781115 $571 $705 forward 7 unknown #
vertex $-1 $408 $706 #
straight-curve $-1 5.7282496940977445 17.173902611575599 7.8092280119369111 1 0 0 I I #
coedge $-1 $699 $409 $412 $584 reversed $569 $-1 #
coedge $-1 $409 $699 $575 $703 forward $569 $-1 #
vertex $-1 $410 $707 #
straight-curve $-1 7.1183870928264898 24.39322919610456 52.602666801057708 0 0 1 I I #
straight-curve $-1 7.1183870928264898 -15.075844472387431 31.240041243209077 0 0.80901698891910034 -0.5877852598018023 I I #
edge $-1 $701 -15.794611683564488 $413 -7.1183870928264898 $579 $708 forward 7 unknown #
point $-1 7.1183870928264898 24.39322919610456 7.8092280119369137 #
point $-1 7.1183870928264898 17.173902611575592 7.8092280119369128 #
edge $-1 $709 1 $709 0 $416 $-1 forward 7 unknown #
vertex $-1 $417 $710 #
ellipse-curve $-1 9.5973084044659274 19.813837721228722 3.8519377548710523 0 0.5877852598018023 0.80901698891910034 0.5 0 0 1 I I #
point $-1 10.097308404465927 20.783565903840056 5.1866540671357582 #
edge $-1 $711 1 $711 0 $420 $-1 forward 7 unknown #
vertex $-1 $421 $712 #
ellipse-curve $-1 13.315690371925065 19.813837721228722 3.8519377548710523 0 0.5877852598018023 0.80901698891910034 0.5 0 0 1 I I #
point $-1 13.815690371925065 20.783565903840056 5.1866540671357582 #
loop $-1 $-1 $431 $424 #
plane-surface $-1 0 24.39322919610456 0 0 -1 0 0 0 -1 forward_v I I I I #
coedge $-1 $713 $714 $428 $599 reversed $425 $-1 #
coedge $-1 $428 $427 $604 $715 reversed $175 $-1 #
edge $-1 $716 -48.786458392209113 $601 -39.862879921781115 $597 $717 forward 7 unknown #
coedge $-1 $434 $429 $714 $718 forward $279 $-1 #
vertex $-1 $718 $719 #
straight-curve $-1 17.184749082293241 17.173902611575599 7.8092280119369111 1 0 0 I I #
coedge $-1 $720 $431 $434 $608 reversed $595 $-1 #
coedge $-1 $431 $720 $598 $715 forward $595 $-1 #
vertex $-1 $432 $721 #
straight-curve $-1 30.03138586921748 24.39322919610456 52.602666801057708 0 0 1 I I #
straight-curve $-1 30.03138586921748 -15.075844472387431 31.240041243209077 0 0.80901698891910034 -0.5877852598018023 I I #
edge $-1 $722 -38.707610459955475 $435 -30.03138586921748 $603 $723 forward 7 unknown #
point $-1 30.03138586921748 24.39322919610456 7.8092280119369137 #
point $-1 30.03138586921748 17.173902611575592 7.8092280119369128 #
edge $-1 $724 1 $724 0 $438 $-1 forward 7 unknown #
vertex $-1 $439 $725 #
ellipse-curve $-1 32.51030718085692 19.813837721228722 3.8519377548710523 0 0.5877852598018023 0.80901698891910034 0.5 0 0 1 I I #
point $-1 33.01030718085692 20.783565903840056 5.1866540671357582 #
edge $-1 $726 1 $726 0 $442 $-1 forward 7 unknown #
vertex $-1 $443 $727 #
ellipse-curve $-1 36.228689148316057 19.813837721228722 3.8519377548710523 0 0.5877852598018023 0.80901698891910034 0.5 0 0 1 I I #
point $-1 36.728689148316057 20.783565903840056 5.1866540671357582 #
plane-surface $-1 45.713064973906675 0 0 -1 0 0 0 0 1 forward_v I I I I #
coedge $-1 $451 $449 $453 $624 reversed $301 $-1 #
edge $-1 $464 -7.8092280119369137 $626 7.8092280119369137 $463 $728 forward 7 unknown #
vertex $-1 $624 $729 #
straight-curve $-1 -45.713064973906675 -24.39322919610456 0 0 0 -1 I I #
edge $-1 $622 -24.39322919610456 $626 24.39322919610456 $620 $730 forward 7 unknown #
straight-curve $-1 0 -24.39322919610456 -7.8092280119369137 -1 0 0 I I #
vertex $-1 $456 $731 #
straight-curve $-1 0 24.39322919610456 -7.8092280119369137 1 0 0 I I #
point $-1 45.713064973906675 24.39322919610456 -7.8092280119369137 #
point $-1 45.713064973906675 -24.39322919610456 -7.8092280119369137 #
straight-curve $-1 -45.713064973906675 0 7.8092280119369137 0 -1 0 I I #
point $-1 -45.713064973906675 24.39322919610456 7.8092280119369137 #
point $-1 -45.713064973906675 -24.39322919610456 7.8092280119369137 #
straight-curve $-1 45.713064973906675 -24.39322919610456 0 0 0 -1 I I #
straight-curve $-1 45.713064973906675 24.39322919610456 0 0 0 -1 I I #
plane-surface $-1 0 -24.39322919610456 0 0 1 0 0 0 1 forward_v I I I I #
coedge $-1 $647 $475 $640 $732 reversed $320 $-1 #
coedge $-1 $475 $647 $639 $733 forward $320 $-1 #
edge $-1 $643 -24.39322919610456 $641 24.39322919610456 $475 $734 forward 7 unknown #
coedge $-1 $477 $476 $637 $733 reversed $197 $-1 #
coedge $-1 $479 $485 $636 $732 forward $486 $-1 #
vertex $-1 $638 $735 #
straight-curve $-1 -21.105168858465539 -24.39322919610456 4.8092280119369137 1 0 0 I I #
vertex $-1 $638 $736 #
straight-curve $-1 -21.105168858465539 24.39322919610456 4.8092280119369137 -1 0 0 I I #
point $-1 -38.707610459955482 24.39322919610456 4.8092280119369137 #
point $-1 -38.707610459955482 -24.39322919610456 4.8092280119369137 #
coedge $-1 $637 $636 $489 $648 reversed $320 $-1 #
edge $-1 $649 -24.39322919610456 $651 24.39322919610456 $647 $737 forward 7 unknown #
vertex $-1 $490 $738 #
straight-curve $-1 0 24.39322919610456 7.8092280119369137 -1 0 0 I I #
vertex $-1 $648 $739 #
straight-curve $-1 0 -24.39322919610456 7.8092280119369137 1 0 0 I I #
plane-surface $-1 45.713064973906675 0 0 -1 0 0 0 0 1 forward_v I I I I #
coedge $-1 $497 $508 $498 $656 reversed $337 $-1 #
coedge $-1 $499 $498 $512 $666 forward $205 $-1 #
edge $-1 $660 38.707610459955475 $669 45.713064973906675 $654 $740 forward 7 unknown #
coedge $-1 $510 $503 $499 $658 reversed $495 $-1 #
edge $-1 $667 -45.713064973906675 $659 -38.707610459955475 $657 $741 forward 7 unknown #
vertex $-1 $504 $742 #
vertex $-1 $656 $743 #
straight-curve $-1 38.707610459955475 0 7.8092280119369137 0 -1 0 I I #
straight-curve $-1 38.707610459955475 -24.39322919610456 3.1546140059684569 0 0 -1 I I #
straight-curve $-1 38.707610459955475 24.39322919610456 3.1546140059684569 0 0 1 I I #
point $-1 38.707610459955475 -24.39322919610456 4.8092280119369137 #
point $-1 38.707610459955475 24.39322919610456 4.8092280119369137 #
edge $-1 $669 -24.39322919610456 $667 24.39322919610456 $512 $744 forward 7 unknown #
vertex $-1 $666 $745 #
straight-curve $-1 45.713064973906675 24.39322919610456 0 0 0 -1 I I #
vertex $-1 $666 $746 #
straight-curve $-1 45.713064973906675 -24.39322919610456 0 0 0 -1 I I #
coedge $-1 $520 $519 $527 $676 forward $213 $-1 #
edge $-1 $523 30.031385869217488 $679 38.707610459955482 $520 $747 forward 7 unknown #
straight-curve $-1 -30.031385869217488 24.39322919610456 52.602666801057708 0 0 -1 I I #
point $-1 -30.031385869217488 24.39322919610456 7.8092280119369137 #
straight-curve $-1 -17.184749082293244 24.39322919610456 2.5640801223346266 -1 0 0 I I #
edge $-1 $528 -50.038586678723078 $679 -44.793438789120792 $671 $748 forward 7 unknown #
point $-1 -38.70761045995549 24.393229196104556 2.5640801223346266 #
point $-1 -30.031385869217488 24.393229196104556 2.5640801223346266 #
vertex $-1 $532 $749 #
straight-curve $-1 -38.707610459955482 0 7.8092280119369137 0 -1 0 I I #
vertex $-1 $535 $750 #
point $-1 -35.728689148316057 19.813837721228722 3.8519377548710523 #
vertex $-1 $539 $751 #
point $-1 -32.010307180856913 19.813837721228722 3.8519377548710523 #
coedge $-1 $554 $553 $546 $686 forward $543 $-1 #
edge $-1 $687 44.793438789120792 $690 50.038586678723078 $685 $752 forward 7 unknown #
vertex $-1 $558 $753 #
straight-curve $-1 -7.118387092826497 19.33154353583069 7.8092280119369164 0 1 0 I I #
edge $-1 $690 1.3901373987287489 $555 10.066361989466747 $554 $754 forward 7 unknown #
vertex $-1 $689 $755 #
straight-curve $-1 -7.118387092826497 -15.075844472387431 31.240041243209077 0 -0.80901698891910034 0.5877852598018023 I I #
point $-1 -7.118387092826497 17.173902611575592 7.8092280119369128 #
point $-1 -15.794611683564495 24.393229196104556 2.5640801223346266 #
straight-curve $-1 0 24.39322919610456 7.8092280119369137 -1 0 0 I I #
vertex $-1 $561 $756 #
point $-1 -12.815690371925065 19.813837721228722 3.8519377548710523 #
vertex $-1 $565 $757 #
point $-1 -9.0973084044659274 19.813837721228722 3.8519377548710523 #
coedge $-1 $580 $579 $572 $700 forward $569 $-1 #
edge $-1 $701 44.793438789120792 $704 50.038586678723078 $699 $758 forward 7 unknown #
vertex $-1 $584 $759 #
straight-curve $-1 15.794611683564488 19.33154353583069 7.8092280119369164 0 1 0 I I #
edge $-1 $704 -10.066361989466744 $581 -1.3901373987287453 $580 $760 forward 7 unknown #
vertex $-1 $703 $761 #
straight-curve $-1 15.794611683564488 -15.075844472387431 31.240041243209077 0 -0.80901698891910034 0.5877852598018023 I I #
point $-1 15.794611683564488 17.173902611575592 7.8092280119369128 #
point $-1 7.1183870928264898 24.393229196104556 2.5640801223346266 #
straight-curve $-1 0 24.39322919610456 7.8092280119369137 -1 0 0 I I #
vertex $-1 $587 $762 #
point $-1 10.097308404465927 19.813837721228722 3.8519377548710523 #
vertex $-1 $591 $763 #
point $-1 13.815690371925065 19.813837721228722 3.8519377548710523 #
coedge $-1 $714 $597 $720 $764 reversed $425 $-1 #
coedge $-1 $597 $713 $600 $718 reversed $425 $-1 #
edge $-1 $716 -21.522861377662242 $605 -12.84663678692424 $604 $765 forward 7 unknown #
vertex $-1 $764 $766 #
straight-curve $-1 38.707610459955482 -15.075844472387431 31.240041243209077 0 -0.80901698891910034 0.5877852598018023 I I #
edge $-1 $601 17.173902611575592 $722 24.39322919610456 $600 $767 forward 7 unknown #
point $-1 38.707610459955482 17.173902611575592 7.8092280119369128 #
coedge $-1 $604 $603 $713 $764 forward $595 $-1 #
point $-1 30.03138586921748 24.393229196104556 2.5640801223346266 #
vertex $-1 $608 $768 #
straight-curve $-1 0 24.39322919610456 7.8092280119369137 -1 0 0 I I #
vertex $-1 $611 $769 #
point $-1 33.01030718085692 19.813837721228722 3.8519377548710523 #
vertex $-1 $615 $770 #
point $-1 36.728689148316057 19.813837721228722 3.8519377548710523 #
straight-curve $-1 -45.713064973906675 24.39322919610456 0 0 0 -1 I I #
point $-1 -45.713064973906675 -24.39322919610456 -7.8092280119369137 #
straight-curve $-1 -45.713064973906675 0 -7.8092280119369137 0 1 0 I I #
point $-1 -45.713064973906675 24.39322919610456 -7.8092280119369137 #
edge $-1 $651 -7.8092280119369137 $641 -4.8092280119369137 $636 $771 forward 7 unknown #
edge $-1 $649 -7.8092280119369137 $643 -4.8092280119369137 $639 $772 forward 7 unknown #
straight-curve $-1 -45.713064973906675 0 4.8092280119369137 0 -1 0 I I #
point $-1 -45.713064973906675 -24.39322919610456 4.8092280119369137 #
point $-1 -45.713064973906675 24.39322919610456 4.8092280119369137 #
straight-curve $-1 -45.713064973906675 0 7.8092280119369137 0 -1 0 I I #
point $-1 -45.713064973906675 24.39322919610456 7.8092280119369137 #
point $-1 -45.713064973906675 -24.39322919610456 7.8092280119369137 #
straight-curve $-1 0 -24.39322919610456 7.8092280119369137 1 0 0 I I #
straight-curve $-1 0 24.39322919610456 7.8092280119369137 -1 0 0 I I #
point $-1 38.707610459955475 24.39322919610456 7.8092280119369137 #
point $-1 38.707610459955475 -24.39322919610456 7.8092280119369137 #
straight-curve $-1 45.713064973906675 0 7.8092280119369137 0 1 0 I I #
point $-1 45.713064973906675 24.39322919610456 7.8092280119369137 #
point $-1 45.713064973906675 -24.39322919610456 7.8092280119369137 #
straight-curve $-1 0 24.39322919610456 7.8092280119369137 -1 0 0 I I #
straight-curve $-1 -38.70761045995549 24.39322919610456 52.602666801057708 0 0 1 I I #
point $-1 -38.707610459955482 24.39322919610456 7.8092280119369137 #
point $-1 -36.228689148316057 19.51994509132782 3.4474292604115018 #
point $-1 -32.510307180856913 19.51994509132782 3.4474292604115018 #
straight-curve $-1 -7.118387092826497 24.39322919610456 52.602666801057708 0 0 -1 I I #
point $-1 -7.118387092826497 24.39322919610456 7.8092280119369137 #
straight-curve $-1 -5.7282496940977481 24.39322919610456 2.5640801223346266 -1 0 0 I I #
point $-1 -7.118387092826497 24.393229196104556 2.5640801223346266 #
point $-1 -13.315690371925065 19.51994509132782 3.4474292604115018 #
point $-1 -9.5973084044659274 19.51994509132782 3.4474292604115018 #
straight-curve $-1 15.794611683564488 24.39322919610456 52.602666801057708 0 0 -1 I I #
point $-1 15.794611683564488 24.39322919610456 7.8092280119369137 #
straight-curve $-1 5.7282496940977445 24.39322919610456 2.5640801223346266 -1 0 0 I I #
point $-1 15.794611683564488 24.393229196104556 2.5640801223346266 #
point $-1 9.5973084044659274 19.51994509132782 3.4474292604115018 #
point $-1 13.315690371925065 19.51994509132782 3.4474292604115018 #
edge $-1 $722 44.793438789120792 $716 50.038586678723078 $720 $773 forward 7 unknown #
straight-curve $-1 17.184749082293241 24.39322919610456 2.5640801223346266 -1 0 0 I I #
point $-1 38.707610459955482 24.393229196104556 2.5640801223346266 #
straight-curve $-1 38.707610459955475 0 7.8092280119369137 0 1 0 I I #
point $-1 38.707610459955475 24.39322919610456 7.8092280119369137 #
point $-1 32.51030718085692 19.51994509132782 3.4474292604115018 #
point $-1 36.228689148316057 19.51994509132782 3.4474292604115018 #
straight-curve $-1 -45.713064973906675 -24.39322919610456 0 0 0 -1 I I #
straight-curve $-1 -45.713064973906675 24.39322919610456 0 0 0 -1 I I #
straight-curve $-1 38.707610459955482 24.39322919610456 52.602666801057708 0 0 -1 I I #
End-of-ACIS-data 