500 0 18 0           
7 Unknown 11 ACIS 5.0 NT 24 Fri Mar 26 01:31:43 1999 
-1 9.9999999999999995e-007 1e-010 
body $-1 $18 $-1 $19 #
body $-1 $20 $-1 $21 #
body $-1 $22 $-1 $23 #
body $-1 $24 $-1 $25 #
body $-1 $26 $-1 $27 #
body $-1 $28 $-1 $29 #
body $-1 $30 $-1 $31 #
body $-1 $32 $-1 $33 #
body $-1 $34 $-1 $35 #
body $-1 $36 $-1 $37 #
body $-1 $38 $-1 $39 #
body $-1 $40 $-1 $41 #
body $-1 $42 $-1 $43 #
body $-1 $44 $-1 $45 #
body $-1 $46 $-1 $47 #
body $-1 $48 $-1 $49 #
body $-1 $50 $-1 $51 #
body $-1 $52 $-1 $53 #
lump $-1 $-1 $54 $0 #
transform $-1 1 0 0 0 1 0 0 0 1 74.828943754387041 31.431947265438776 14.437668846625948 1 rotate no_reflect no_shear #
lump $-1 $-1 $55 $1 #
transform $-1 1 0 0 0 1 0 0 0 1 74.828943754387041 31.431947265438776 14.437668846625948 1 rotate no_reflect no_shear #
lump $-1 $-1 $56 $2 #
transform $-1 1 0 0 0 1 0 0 0 1 74.828943754387041 31.431947265438776 14.437668846625948 1 rotate no_reflect no_shear #
lump $-1 $-1 $57 $3 #
transform $-1 1 0 0 0 1 0 0 0 1 74.828943754387041 31.431947265438776 14.437668846625948 1 rotate no_reflect no_shear #
lump $-1 $-1 $58 $4 #
transform $-1 1 0 0 0 1 0 0 0 1 74.828943754387041 31.431947265438776 14.437668846625948 1 rotate no_reflect no_shear #
lump $-1 $-1 $59 $5 #
transform $-1 1 0 0 0 1 0 0 0 1 74.828943754387041 31.431947265438776 14.437668846625948 1 rotate no_reflect no_shear #
lump $-1 $-1 $60 $6 #
transform $-1 1 0 0 0 1 0 0 0 1 74.828943754387041 31.431947265438776 14.437668846625948 1 rotate no_reflect no_shear #
lump $-1 $-1 $61 $7 #
transform $-1 1 0 0 0 1 0 0 0 1 74.828943754387041 31.431947265438776 14.437668846625948 1 rotate no_reflect no_shear #
lump $-1 $-1 $62 $8 #
transform $-1 1 0 0 0 1 0 0 0 1 74.828943754387041 31.431947265438776 14.437668846625948 1 rotate no_reflect no_shear #
lump $-1 $-1 $63 $9 #
transform $-1 1 0 0 0 1 0 0 0 1 74.828943754387041 31.431947265438776 14.437668846625948 1 rotate no_reflect no_shear #
lump $-1 $-1 $64 $10 #
transform $-1 1 0 0 0 1 0 0 0 1 74.828943754387041 31.431947265438776 14.437668846625948 1 rotate no_reflect no_shear #
lump $-1 $-1 $65 $11 #
transform $-1 1 0 0 0 1 0 0 0 1 74.828943754387041 31.431947265438776 14.437668846625948 1 rotate no_reflect no_shear #
lump $-1 $-1 $66 $12 #
transform $-1 1 0 0 0 1 0 0 0 1 74.828943754387041 31.431947265438776 14.437668846625948 1 rotate no_reflect no_shear #
lump $-1 $-1 $67 $13 #
transform $-1 1 0 0 0 1 0 0 0 1 74.828943754387041 31.431947265438776 14.437668846625948 1 rotate no_reflect no_shear #
lump $-1 $-1 $68 $14 #
transform $-1 1 0 0 0 1 0 0 0 1 74.828943754387041 31.431947265438776 14.437668846625948 1 rotate no_reflect no_shear #
lump $-1 $-1 $69 $15 #
transform $-1 1 0 0 0 1 0 0 0 1 74.828943754387041 31.431947265438776 14.437668846625948 1 rotate no_reflect no_shear #
lump $-1 $-1 $70 $16 #
transform $-1 1 0 0 0 1 0 0 0 1 74.828943754387041 31.431947265438776 14.437668846625948 1 rotate no_reflect no_shear #
lump $-1 $-1 $71 $17 #
transform $-1 1 0 0 0 1 0 0 0 1 74.828943754387041 31.431947265438776 14.437668846625948 1 rotate no_reflect no_shear #
shell $-1 $-1 $-1 $72 $-1 $18 #
shell $-1 $-1 $-1 $73 $-1 $20 #
shell $-1 $-1 $-1 $74 $-1 $22 #
shell $-1 $-1 $-1 $75 $-1 $24 #
shell $-1 $-1 $-1 $76 $-1 $26 #
shell $-1 $-1 $-1 $77 $-1 $28 #
shell $-1 $-1 $-1 $78 $-1 $30 #
shell $-1 $-1 $-1 $79 $-1 $32 #
shell $-1 $-1 $-1 $80 $-1 $34 #
shell $-1 $-1 $-1 $81 $-1 $36 #
shell $-1 $-1 $-1 $82 $-1 $38 #
shell $-1 $-1 $-1 $83 $-1 $40 #
shell $-1 $-1 $-1 $84 $-1 $42 #
shell $-1 $-1 $-1 $85 $-1 $44 #
shell $-1 $-1 $-1 $86 $-1 $46 #
shell $-1 $-1 $-1 $87 $-1 $48 #
shell $-1 $-1 $-1 $88 $-1 $50 #
shell $-1 $-1 $-1 $89 $-1 $52 #
face $-1 $90 $91 $54 $-1 $92 reversed single #
face $-1 $93 $94 $55 $-1 $95 forward single #
face $-1 $96 $97 $56 $-1 $98 reversed single #
face $-1 $99 $100 $57 $-1 $101 forward single #
face $-1 $102 $103 $58 $-1 $104 reversed single #
face $-1 $105 $106 $59 $-1 $107 forward single #
face $-1 $108 $109 $60 $-1 $110 reversed single #
face $-1 $111 $112 $61 $-1 $113 forward single #
face $-1 $114 $115 $62 $-1 $116 forward single #
face $-1 $117 $118 $63 $-1 $119 reversed single #
face $-1 $120 $121 $64 $-1 $122 forward single #
face $-1 $123 $124 $65 $-1 $125 forward single #
face $-1 $126 $127 $66 $-1 $128 reversed single #
face $-1 $129 $130 $67 $-1 $131 forward single #
face $-1 $132 $133 $68 $-1 $134 forward single #
face $-1 $135 $136 $69 $-1 $137 reversed single #
face $-1 $138 $139 $70 $-1 $140 forward single #
face $-1 $141 $142 $71 $-1 $143 forward single #
face $-1 $144 $145 $54 $-1 $146 forward single #
loop $-1 $-1 $147 $72 #
plane-surface $-1 -74.828943754387041 0 0 1 0 0 0 0 -1 forward_v I I I I #
face $-1 $148 $149 $55 $-1 $150 reversed single #
loop $-1 $-1 $151 $73 #
plane-surface $-1 -74.828943754387041 0 0 1 0 0 0 0 -1 forward_v I I I I #
face $-1 $152 $153 $56 $-1 $154 reversed single #
loop $-1 $-1 $155 $74 #
plane-surface $-1 -39.769347992131927 -139.08682341812346 104.79116910523055 -1 0 0 0 -0.71933980857756763 0.69465836192734942 forward_v I I I I #
face $-1 $156 $157 $57 $-1 $158 forward single #
loop $-1 $159 $160 $75 #
cone-surface $-1 -49.595968571350205 -22.208907903738208 5.0721994984830996 0 0.71933980857756763 -0.69465836192734942 2.5 0 0 1 I I 0 1 2.5 forward I I I I #
face $-1 $161 $162 $58 $-1 $163 reversed single #
loop $-1 $-1 $164 $76 #
plane-surface $-1 27.356418460345843 -139.08682341812346 104.79116910523055 -1 0 0 0 -0.71933980857756763 0.69465836192734942 forward_v I I I I #
face $-1 $165 $166 $59 $-1 $167 forward single #
loop $-1 $168 $169 $77 #
cone-surface $-1 17.529797881127564 -22.208907903738208 5.0721994984830996 0 0.71933980857756763 -0.69465836192734942 2.5 0 0 1 I I 0 1 2.5 forward I I I I #
face $-1 $170 $171 $60 $-1 $172 reversed single #
loop $-1 $-1 $173 $78 #
plane-surface $-1 -49.054039706327814 95.417893418930404 152.20412062401408 1 0 0 0 -0.71933980857756763 -0.69465836192734942 forward_v I I I I #
face $-1 $174 $175 $61 $-1 $176 forward single #
loop $-1 $177 $178 $79 #
cone-surface $-1 -44.917930773344224 24.836661762107902 7.6837269829558741 0 -0.71933980857756763 -0.69465836192734942 2 0 0 1 I I 0 1 2 forward I I I I #
face $-1 $179 $180 $62 $-1 $181 forward single #
loop $-1 $182 $183 $80 #
cone-surface $-1 -38.713767373868841 24.836661762107902 7.6837269829558741 0 -0.71933980857756763 -0.69465836192734942 2 0 0 1 I I 0 1 2 forward I I I I #
face $-1 $184 $185 $63 $-1 $186 reversed single #
loop $-1 $-1 $187 $81 #
plane-surface $-1 -16.041355455983936 95.417893418930404 152.20412062401408 1 0 0 0 -0.71933980857756763 -0.69465836192734942 forward_v I I I I #
face $-1 $188 $189 $64 $-1 $190 forward single #
loop $-1 $191 $192 $82 #
cone-surface $-1 -11.905246523000343 24.836661762107902 7.6837269829558741 0 -0.71933980857756763 -0.69465836192734942 2 0 0 1 I I 0 1 2 forward I I I I #
face $-1 $193 $194 $65 $-1 $195 forward single #
loop $-1 $196 $197 $83 #
cone-surface $-1 -5.7010831235249668 24.836661762107902 7.6837269829558741 0 -0.71933980857756763 -0.69465836192734942 2 0 0 1 I I 0 1 2 forward I I I I #
face $-1 $198 $199 $66 $-1 $200 reversed single #
loop $-1 $-1 $201 $84 #
plane-surface $-1 16.971328794359945 95.417893418930404 152.20412062401408 1 0 0 0 -0.71933980857756763 -0.69465836192734942 forward_v I I I I #
face $-1 $202 $203 $67 $-1 $204 forward single #
loop $-1 $205 $206 $85 #
cone-surface $-1 21.107437727343537 24.836661762107902 7.6837269829558741 0 -0.71933980857756763 -0.69465836192734942 2 0 0 1 I I 0 1 2 forward I I I I #
face $-1 $207 $208 $68 $-1 $209 forward single #
loop $-1 $210 $211 $86 #
cone-surface $-1 27.311601126818914 24.836661762107902 7.6837269829558741 0 -0.71933980857756763 -0.69465836192734942 2 0 0 1 I I 0 1 2 forward I I I I #
face $-1 $212 $213 $69 $-1 $214 reversed single #
loop $-1 $-1 $215 $87 #
plane-surface $-1 49.984013044703829 95.417893418930404 152.20412062401408 1 0 0 0 -0.71933980857756763 -0.69465836192734942 forward_v I I I I #
face $-1 $216 $217 $70 $-1 $218 forward single #
loop $-1 $219 $220 $88 #
cone-surface $-1 54.120121977687432 24.836661762107902 7.6837269829558741 0 -0.71933980857756763 -0.69465836192734942 2 0 0 1 I I 0 1 2 forward I I I I #
face $-1 $221 $222 $71 $-1 $223 forward single #
loop $-1 $224 $225 $89 #
cone-surface $-1 60.324285377162795 24.836661762107902 7.6837269829558741 0 -0.71933980857756763 -0.69465836192734942 2 0 0 1 I I 0 1 2 forward I I I I #
face $-1 $226 $227 $54 $-1 $228 reversed single #
loop $-1 $-1 $229 $90 #
plane-surface $-1 0 0 14.437668846625948 0 0 1 1 0 0 forward_v I I I I #
coedge $-1 $230 $231 $232 $233 reversed $91 $-1 #
face $-1 $234 $235 $55 $-1 $236 reversed single #
loop $-1 $-1 $237 $93 #
plane-surface $-1 0 0 -14.437668846625948 0 0 1 1 0 0 forward_v I I I I #
coedge $-1 $238 $239 $240 $241 forward $94 $-1 #
face $-1 $242 $243 $56 $-1 $244 reversed single #
loop $-1 $-1 $245 $96 #
plane-surface $-1 -49.595968571350205 -31.431947265438765 0.83006611887802251 0 -0.71933980857756763 0.69465836192734942 1 0 0 forward_v I I I I #
coedge $-1 $246 $247 $248 $249 reversed $97 $-1 #
face $-1 $-1 $250 $57 $-1 $251 forward single #
loop $-1 $252 $253 $99 #
cone-surface $-1 -49.595968571350205 -18.657048228476935 1.6422085618050186 0 0.71933980857756763 -0.69465836192734942 1.25 0 0 1 I I -0.70710678118654746 0.70710678118654768 1.25 forward I I I I #
loop $-1 $-1 $254 $75 #
coedge $-1 $160 $160 $255 $256 reversed $100 $-1 #
face $-1 $257 $258 $58 $-1 $259 reversed single #
loop $-1 $-1 $260 $102 #
plane-surface $-1 17.529797881127564 -31.431947265438765 0.83006611887802251 0 -0.71933980857756763 0.69465836192734942 1 0 0 forward_v I I I I #
coedge $-1 $261 $262 $263 $264 reversed $103 $-1 #
face $-1 $-1 $265 $59 $-1 $266 forward single #
loop $-1 $267 $268 $105 #
cone-surface $-1 17.529797881127564 -18.657048228476935 1.6422085618050186 0 0.71933980857756763 -0.69465836192734942 1.25 0 0 1 I I -0.70710678118654746 0.70710678118654768 1.25 forward I I I I #
loop $-1 $-1 $269 $77 #
coedge $-1 $169 $169 $270 $271 reversed $106 $-1 #
face $-1 $272 $273 $60 $-1 $274 reversed single #
loop $-1 $-1 $275 $108 #
plane-surface $-1 -41.815849073606529 -12.236982733754289 48.243017637661552 0 0.71933980857756763 0.69465836192734942 1 0 0 forward_v I I I I #
coedge $-1 $276 $277 $278 $279 reversed $109 $-1 #
face $-1 $-1 $280 $61 $-1 $281 forward single #
loop $-1 $282 $283 $111 #
cone-surface $-1 -44.917930773344224 23.033778909249104 5.9427032909815818 0 -0.71933980857756763 -0.69465836192734942 1 0 0 1 I I -0.70710678118654746 0.70710678118654746 1 forward I I I I #
loop $-1 $-1 $284 $79 #
coedge $-1 $178 $178 $285 $286 reversed $112 $-1 #
face $-1 $-1 $287 $62 $-1 $288 forward single #
loop $-1 $289 $290 $114 #
cone-surface $-1 -38.713767373868841 23.033778909249104 5.9427032909815818 0 -0.71933980857756763 -0.69465836192734942 1 0 0 1 I I -0.70710678118654746 0.70710678118654746 1 forward I I I I #
loop $-1 $-1 $291 $80 #
coedge $-1 $183 $183 $292 $293 reversed $115 $-1 #
face $-1 $294 $295 $63 $-1 $296 reversed single #
loop $-1 $-1 $297 $117 #
plane-surface $-1 -8.803164823262648 -12.236982733754289 48.243017637661552 0 0.71933980857756763 0.69465836192734942 1 0 0 forward_v I I I I #
coedge $-1 $298 $299 $300 $301 reversed $118 $-1 #
face $-1 $-1 $302 $64 $-1 $303 forward single #
loop $-1 $304 $305 $120 #
cone-surface $-1 -11.905246523000343 23.033778909249104 5.9427032909815818 0 -0.71933980857756763 -0.69465836192734942 1 0 0 1 I I -0.70710678118654746 0.70710678118654746 1 forward I I I I #
loop $-1 $-1 $306 $82 #
coedge $-1 $192 $192 $307 $308 reversed $121 $-1 #
face $-1 $-1 $309 $65 $-1 $310 forward single #
loop $-1 $311 $312 $123 #
cone-surface $-1 -5.7010831235249668 23.033778909249104 5.9427032909815818 0 -0.71933980857756763 -0.69465836192734942 1 0 0 1 I I -0.70710678118654746 0.70710678118654746 1 forward I I I I #
loop $-1 $-1 $313 $83 #
coedge $-1 $197 $197 $314 $315 reversed $124 $-1 #
face $-1 $316 $317 $66 $-1 $318 reversed single #
loop $-1 $-1 $319 $126 #
plane-surface $-1 24.209519427081233 -12.236982733754289 48.243017637661552 0 0.71933980857756763 0.69465836192734942 1 0 0 forward_v I I I I #
coedge $-1 $320 $321 $322 $323 reversed $127 $-1 #
face $-1 $-1 $324 $67 $-1 $325 forward single #
loop $-1 $326 $327 $129 #
cone-surface $-1 21.107437727343537 23.033778909249104 5.9427032909815818 0 -0.71933980857756763 -0.69465836192734942 1 0 0 1 I I -0.70710678118654746 0.70710678118654746 1 forward I I I I #
loop $-1 $-1 $328 $85 #
coedge $-1 $206 $206 $329 $330 reversed $130 $-1 #
face $-1 $-1 $331 $68 $-1 $332 forward single #
loop $-1 $333 $334 $132 #
cone-surface $-1 27.311601126818914 23.033778909249104 5.9427032909815818 0 -0.71933980857756763 -0.69465836192734942 1 0 0 1 I I -0.70710678118654746 0.70710678118654746 1 forward I I I I #
loop $-1 $-1 $335 $86 #
coedge $-1 $211 $211 $336 $337 reversed $133 $-1 #
face $-1 $338 $339 $69 $-1 $340 reversed single #
loop $-1 $-1 $341 $135 #
plane-surface $-1 57.222203677425114 -12.236982733754289 48.243017637661552 0 0.71933980857756763 0.69465836192734942 1 0 0 forward_v I I I I #
coedge $-1 $342 $343 $344 $345 reversed $136 $-1 #
face $-1 $-1 $346 $70 $-1 $347 forward single #
loop $-1 $348 $349 $138 #
cone-surface $-1 54.120121977687432 23.033778909249104 5.9427032909815818 0 -0.71933980857756763 -0.69465836192734942 1 0 0 1 I I -0.70710678118654746 0.70710678118654746 1 forward I I I I #
loop $-1 $-1 $350 $88 #
coedge $-1 $220 $220 $351 $352 reversed $139 $-1 #
face $-1 $-1 $353 $71 $-1 $354 forward single #
loop $-1 $355 $356 $141 #
cone-surface $-1 60.324285377162795 23.033778909249104 5.9427032909815818 0 -0.71933980857756763 -0.69465836192734942 1 0 0 1 I I -0.70710678118654746 0.70710678118654746 1 forward I I I I #
loop $-1 $-1 $357 $89 #
coedge $-1 $225 $225 $358 $359 reversed $142 $-1 #
face $-1 $360 $361 $54 $-1 $362 reversed single #
loop $-1 $-1 $363 $144 #
plane-surface $-1 0 0 -14.437668846625948 0 0 1 1 0 0 forward_v I I I I #
coedge $-1 $364 $365 $366 $367 forward $145 $-1 #
coedge $-1 $368 $147 $369 $370 reversed $91 $-1 #
coedge $-1 $147 $368 $371 $372 forward $91 $-1 #
coedge $-1 $373 $374 $147 $233 forward $227 $-1 #
edge $-1 $375 -31.431947265438776 $376 31.431947265438776 $147 $377 forward 7 unknown #
face $-1 $378 $379 $55 $-1 $380 reversed single #
loop $-1 $-1 $381 $148 #
plane-surface $-1 -82.532121056296319 -10.368821742493814 0 0 1 0 0 0 1 forward_v I I I I #
coedge $-1 $382 $383 $239 $384 forward $149 $-1 #
coedge $-1 $385 $151 $386 $387 reversed $94 $-1 #
coedge $-1 $151 $385 $237 $384 reversed $94 $-1 #
coedge $-1 $388 $389 $151 $241 reversed $390 $-1 #
edge $-1 $391 -14.437668846625948 $392 14.437668846625948 $240 $393 forward 7 unknown #
face $-1 $394 $395 $56 $-1 $396 forward single #
loop $-1 $-1 $397 $152 #
plane-surface $-1 -59.422589150568484 -139.08682341812346 104.79116910523055 1 0 0 0 0.71933980857756763 -0.69465836192734942 forward_v I I I I #
coedge $-1 $398 $399 $400 $401 reversed $153 $-1 #
coedge $-1 $247 $155 $402 $403 reversed $97 $-1 #
coedge $-1 $155 $246 $398 $404 reversed $97 $-1 #
coedge $-1 $400 $405 $155 $249 forward $395 $-1 #
edge $-1 $406 38.11146444362295 $407 51.252173337945493 $248 $408 forward 7 unknown #
loop $-1 $-1 $255 $156 #
plane-surface $-1 -49.595968571350205 -31.431947265438765 0.83006611887802251 0 -0.71933980857756763 0.69465836192734942 1 0 0 forward_v I I I I #
loop $-1 $-1 $409 $99 #
coedge $-1 $253 $253 $254 $410 reversed $157 $-1 #
coedge $-1 $254 $254 $253 $410 forward $159 $-1 #
coedge $-1 $255 $255 $160 $256 forward $250 $-1 #
edge $-1 $411 -1.1526305676102147e-016 $411 6.2831853071796004 $255 $412 forward 7 unknown #
face $-1 $413 $414 $58 $-1 $415 reversed single #
loop $-1 $-1 $416 $161 #
plane-surface $-1 7.7031773019092853 -139.08682341812346 104.79116910523055 1 0 0 0 0.71933980857756763 -0.69465836192734942 forward_v I I I I #
coedge $-1 $417 $418 $419 $420 reversed $162 $-1 #
coedge $-1 $262 $164 $421 $422 reversed $103 $-1 #
coedge $-1 $164 $261 $417 $423 reversed $103 $-1 #
coedge $-1 $419 $424 $164 $264 forward $425 $-1 #
edge $-1 $426 38.11146444362295 $427 51.252173337945493 $263 $428 forward 7 unknown #
loop $-1 $-1 $270 $165 #
plane-surface $-1 17.529797881127564 -31.431947265438765 0.83006611887802251 0 -0.71933980857756763 0.69465836192734942 1 0 0 forward_v I I I I #
loop $-1 $-1 $429 $105 #
coedge $-1 $268 $268 $269 $430 reversed $166 $-1 #
coedge $-1 $269 $269 $268 $430 forward $168 $-1 #
coedge $-1 $270 $270 $169 $271 forward $265 $-1 #
edge $-1 $431 -1.1526305676102147e-016 $431 6.2831853071796004 $270 $432 forward 7 unknown #
face $-1 $433 $434 $60 $-1 $435 reversed single #
loop $-1 $-1 $436 $170 #
plane-surface $-1 -34.577658440885244 95.417893418930404 152.20412062401408 -1 0 0 0 0.71933980857756763 0.69465836192734942 forward_v I I I I #
coedge $-1 $437 $438 $439 $440 reversed $171 $-1 #
coedge $-1 $277 $173 $441 $442 reversed $109 $-1 #
coedge $-1 $173 $276 $437 $443 reversed $109 $-1 #
coedge $-1 $439 $444 $173 $279 forward $445 $-1 #
edge $-1 $446 16.276999444026426 $447 27.300484362125715 $278 $448 forward 7 unknown #
loop $-1 $-1 $285 $174 #
plane-surface $-1 -41.815849073606529 -12.236982733754289 48.243017637661552 0 0.71933980857756763 0.69465836192734942 1 0 0 forward_v I I I I #
loop $-1 $-1 $449 $111 #
coedge $-1 $283 $283 $284 $450 reversed $175 $-1 #
coedge $-1 $284 $284 $283 $450 forward $177 $-1 #
coedge $-1 $285 $285 $178 $286 forward $280 $-1 #
edge $-1 $451 0 $451 6.2831853071796004 $285 $452 forward 7 unknown #
loop $-1 $-1 $292 $179 #
plane-surface $-1 -41.815849073606529 -12.236982733754289 48.243017637661552 0 0.71933980857756763 0.69465836192734942 1 0 0 forward_v I I I I #
loop $-1 $-1 $453 $114 #
coedge $-1 $290 $290 $291 $454 reversed $180 $-1 #
coedge $-1 $291 $291 $290 $454 forward $182 $-1 #
coedge $-1 $292 $292 $183 $293 forward $287 $-1 #
edge $-1 $455 0 $455 6.2831853071796004 $292 $456 forward 7 unknown #
face $-1 $457 $458 $63 $-1 $459 forward single #
loop $-1 $-1 $460 $184 #
plane-surface $-1 -1.5649741905413599 95.417893418930404 152.20412062401408 -1 0 0 0 0.71933980857756763 0.69465836192734942 forward_v I I I I #
coedge $-1 $461 $462 $463 $464 reversed $185 $-1 #
coedge $-1 $299 $187 $465 $466 reversed $118 $-1 #
coedge $-1 $187 $298 $461 $467 reversed $118 $-1 #
coedge $-1 $463 $468 $187 $301 forward $458 $-1 #
edge $-1 $469 16.276999444026426 $470 27.300484362125715 $300 $471 forward 7 unknown #
loop $-1 $-1 $307 $188 #
plane-surface $-1 -8.803164823262648 -12.236982733754289 48.243017637661552 0 0.71933980857756763 0.69465836192734942 1 0 0 forward_v I I I I #
loop $-1 $-1 $472 $120 #
coedge $-1 $305 $305 $306 $473 reversed $189 $-1 #
coedge $-1 $306 $306 $305 $473 forward $191 $-1 #
coedge $-1 $307 $307 $192 $308 forward $302 $-1 #
edge $-1 $474 0 $474 6.2831853071796004 $307 $475 forward 7 unknown #
loop $-1 $-1 $314 $193 #
plane-surface $-1 -8.803164823262648 -12.236982733754289 48.243017637661552 0 0.71933980857756763 0.69465836192734942 1 0 0 forward_v I I I I #
loop $-1 $-1 $476 $123 #
coedge $-1 $312 $312 $313 $477 reversed $194 $-1 #
coedge $-1 $313 $313 $312 $477 forward $196 $-1 #
coedge $-1 $314 $314 $197 $315 forward $309 $-1 #
edge $-1 $478 0 $478 6.2831853071796004 $314 $479 forward 7 unknown #
face $-1 $480 $481 $66 $-1 $482 forward single #
loop $-1 $-1 $483 $198 #
plane-surface $-1 31.447710059802521 95.417893418930404 152.20412062401408 -1 0 0 0 0.71933980857756763 0.69465836192734942 forward_v I I I I #
coedge $-1 $484 $485 $486 $487 reversed $199 $-1 #
coedge $-1 $321 $201 $488 $489 reversed $127 $-1 #
coedge $-1 $201 $320 $484 $490 reversed $127 $-1 #
coedge $-1 $486 $491 $201 $323 forward $481 $-1 #
edge $-1 $492 16.276999444026426 $493 27.300484362125715 $322 $494 forward 7 unknown #
loop $-1 $-1 $329 $202 #
plane-surface $-1 24.209519427081233 -12.236982733754289 48.243017637661552 0 0.71933980857756763 0.69465836192734942 1 0 0 forward_v I I I I #
loop $-1 $-1 $495 $129 #
coedge $-1 $327 $327 $328 $496 reversed $203 $-1 #
coedge $-1 $328 $328 $327 $496 forward $205 $-1 #
coedge $-1 $329 $329 $206 $330 forward $324 $-1 #
edge $-1 $497 0 $497 6.2831853071796004 $329 $498 forward 7 unknown #
loop $-1 $-1 $336 $207 #
plane-surface $-1 24.209519427081233 -12.236982733754289 48.243017637661552 0 0.71933980857756763 0.69465836192734942 1 0 0 forward_v I I I I #
loop $-1 $-1 $499 $132 #
coedge $-1 $334 $334 $335 $500 reversed $208 $-1 #
coedge $-1 $335 $335 $334 $500 forward $210 $-1 #
coedge $-1 $336 $336 $211 $337 forward $331 $-1 #
edge $-1 $501 0 $501 6.2831853071796004 $336 $502 forward 7 unknown #
face $-1 $503 $504 $69 $-1 $505 forward single #
loop $-1 $-1 $506 $212 #
plane-surface $-1 64.460394310146398 95.417893418930404 152.20412062401408 -1 0 0 0 0.71933980857756763 0.69465836192734942 forward_v I I I I #
coedge $-1 $507 $508 $509 $510 reversed $213 $-1 #
coedge $-1 $343 $215 $511 $512 reversed $136 $-1 #
coedge $-1 $215 $342 $507 $513 reversed $136 $-1 #
coedge $-1 $509 $514 $215 $345 forward $504 $-1 #
edge $-1 $515 16.276999444026426 $516 27.300484362125715 $344 $517 forward 7 unknown #
loop $-1 $-1 $351 $216 #
plane-surface $-1 57.222203677425114 -12.236982733754289 48.243017637661552 0 0.71933980857756763 0.69465836192734942 1 0 0 forward_v I I I I #
loop $-1 $-1 $518 $138 #
coedge $-1 $349 $349 $350 $519 reversed $217 $-1 #
coedge $-1 $350 $350 $349 $519 forward $219 $-1 #
coedge $-1 $351 $351 $220 $352 forward $346 $-1 #
edge $-1 $520 0 $520 6.2831853071796004 $351 $521 forward 7 unknown #
loop $-1 $-1 $358 $221 #
plane-surface $-1 57.222203677425114 -12.236982733754289 48.243017637661552 0 0.71933980857756763 0.69465836192734942 1 0 0 forward_v I I I I #
loop $-1 $-1 $522 $141 #
coedge $-1 $356 $356 $357 $523 reversed $222 $-1 #
coedge $-1 $357 $357 $356 $523 forward $224 $-1 #
coedge $-1 $358 $358 $225 $359 forward $353 $-1 #
edge $-1 $524 0 $524 6.2831853071796004 $358 $525 forward 7 unknown #
face $-1 $526 $527 $54 $-1 $528 reversed single #
loop $-1 $-1 $369 $226 #
plane-surface $-1 0 -31.431947265438776 0 0 1 0 0 0 1 forward_v I I I I #
coedge $-1 $374 $373 $529 $530 forward $227 $-1 #
coedge $-1 $531 $229 $532 $533 forward $145 $-1 #
coedge $-1 $229 $531 $534 $535 forward $145 $-1 #
coedge $-1 $536 $537 $229 $367 reversed $538 $-1 #
edge $-1 $539 -31.431947265438776 $540 31.431947265438776 $366 $541 forward 7 unknown #
coedge $-1 $231 $230 $531 $542 reversed $91 $-1 #
coedge $-1 $543 $534 $230 $370 forward $361 $-1 #
edge $-1 $544 -14.437668846625948 $375 14.437668846625948 $230 $545 forward 7 unknown #
coedge $-1 $532 $546 $231 $372 reversed $527 $-1 #
edge $-1 $547 -14.437668846625948 $376 14.437668846625948 $371 $548 forward 7 unknown #
coedge $-1 $363 $232 $546 $549 forward $227 $-1 #
coedge $-1 $232 $363 $543 $550 forward $227 $-1 #
vertex $-1 $233 $551 #
vertex $-1 $549 $552 #
straight-curve $-1 -74.828943754387041 0 -14.437668846625948 0 1 0 I I #
face $-1 $553 $390 $55 $-1 $554 reversed single #
loop $-1 $-1 $555 $234 #
plane-surface $-1 -90.235298358205597 -6.4627156573403468 0 1 0 0 0 0 -1 forward_v I I I I #
coedge $-1 $556 $557 $558 $559 forward $235 $-1 #
coedge $-1 $560 $237 $556 $561 forward $149 $-1 #
coedge $-1 $237 $560 $388 $562 forward $149 $-1 #
edge $-1 $391 2.5566095721868791 $563 10.368821742493814 $237 $564 forward 7 unknown #
coedge $-1 $239 $238 $565 $566 forward $94 $-1 #
coedge $-1 $567 $568 $238 $387 forward $569 $-1 #
edge $-1 $570 -10.368821742493814 $392 -2.5566095721868791 $386 $571 forward 7 unknown #
coedge $-1 $572 $240 $383 $562 reversed $390 $-1 #
coedge $-1 $240 $572 $567 $573 reversed $390 $-1 #
loop $-1 $-1 $240 $378 #
vertex $-1 $384 $574 #
vertex $-1 $573 $575 #
straight-curve $-1 -74.828943754387041 -2.5566095721868791 0 0 0 1 I I #
face $-1 $-1 $576 $56 $-1 $577 reversed single #
loop $-1 $-1 $248 $242 #
plane-surface $-1 0 0 14.437668846625948 0 0 1 1 0 0 forward_v I I I I #
coedge $-1 $578 $579 $580 $581 reversed $243 $-1 #
coedge $-1 $582 $245 $247 $404 forward $153 $-1 #
coedge $-1 $245 $582 $578 $583 forward $153 $-1 #
coedge $-1 $580 $248 $245 $401 forward $395 $-1 #
edge $-1 $407 14.971363706456824 $584 34.624604864893385 $400 $585 forward 7 unknown #
coedge $-1 $586 $587 $246 $403 forward $576 $-1 #
edge $-1 $588 -51.565518433737267 $406 -37.957915705989329 $402 $589 forward 7 unknown #
edge $-1 $407 -18.916793656472016 $588 1.5310180211858787e-014 $247 $590 forward 7 unknown #
coedge $-1 $248 $580 $586 $591 forward $395 $-1 #
vertex $-1 $249 $592 #
vertex $-1 $249 $593 #
straight-curve $-1 -39.769347992131927 -69.543411709061729 14.437668846625947 0 1 0 I I #
coedge $-1 $409 $409 $-1 $594 reversed $252 $-1 #
edge $-1 $595 0 $595 6.2831853071796004 $253 $596 forward 7 unknown #
vertex $-1 $256 $597 #
ellipse-curve $-1 -49.595968571350205 -24.861592818277508 7.633867482751981 0 -0.71933980857756763 0.69465836192734942 2.5 0 0 1 I I #
face $-1 $-1 $425 $58 $-1 $598 forward single #
loop $-1 $-1 $599 $257 #
plane-surface $-1 0 -31.431947265438776 0 0 1 0 0 0 1 forward_v I I I I #
coedge $-1 $600 $601 $602 $603 reversed $258 $-1 #
coedge $-1 $604 $260 $262 $423 forward $162 $-1 #
coedge $-1 $260 $604 $600 $605 forward $162 $-1 #
coedge $-1 $602 $263 $260 $420 forward $425 $-1 #
edge $-1 $427 -18.591519519782061 $606 1.0617216386544968 $419 $607 forward 7 unknown #
coedge $-1 $608 $609 $261 $422 forward $414 $-1 #
edge $-1 $610 -51.565518433737267 $426 -37.957915705989329 $421 $611 forward 7 unknown #
edge $-1 $427 -18.916793656472016 $610 1.5310180211858787e-014 $262 $612 forward 7 unknown #
coedge $-1 $263 $602 $608 $613 forward $425 $-1 #
loop $-1 $-1 $602 $413 #
vertex $-1 $422 $614 #
vertex $-1 $264 $615 #
straight-curve $-1 27.356418460345843 -69.543411709061729 14.437668846625947 0 1 0 I I #
coedge $-1 $429 $429 $-1 $616 reversed $267 $-1 #
edge $-1 $617 0 $617 6.2831853071796004 $268 $618 forward 7 unknown #
vertex $-1 $271 $619 #
ellipse-curve $-1 17.529797881127564 -24.861592818277508 7.633867482751981 0 -0.71933980857756763 0.69465836192734942 2.5 0 0 1 I I #
face $-1 $-1 $445 $60 $-1 $620 forward single #
loop $-1 $-1 $621 $272 #
plane-surface $-1 0 31.431947265438776 0 0 -1 0 0 0 -1 forward_v I I I I #
coedge $-1 $622 $623 $624 $625 reversed $273 $-1 #
coedge $-1 $626 $275 $277 $443 forward $171 $-1 #
coedge $-1 $275 $626 $622 $627 forward $171 $-1 #
coedge $-1 $624 $278 $275 $440 forward $445 $-1 #
edge $-1 $447 -28.146115169524549 $628 -13.66973390408198 $439 $629 forward 7 unknown #
coedge $-1 $630 $631 $276 $442 forward $434 $-1 #
edge $-1 $632 -73.079544532627352 $446 -61.664391465381094 $441 $633 forward 7 unknown #
edge $-1 $447 46.99496453266331 $632 62.863894530877573 $277 $634 forward 7 unknown #
coedge $-1 $278 $624 $630 $635 forward $445 $-1 #
loop $-1 $-1 $624 $433 #
vertex $-1 $442 $636 #
vertex $-1 $279 $637 #
straight-curve $-1 -49.054039706327814 47.708946709465202 14.437668846625954 0 -1 0 I I #
coedge $-1 $449 $449 $-1 $638 reversed $282 $-1 #
edge $-1 $639 0 $639 6.2831853071796004 $283 $640 forward 7 unknown #
vertex $-1 $286 $641 #
ellipse-curve $-1 -44.917930773344224 25.92020480638913 8.7300923130028174 0 0.71933980857756763 0.69465836192734942 2 0 0 1 I I #
coedge $-1 $453 $453 $-1 $642 reversed $289 $-1 #
edge $-1 $643 0 $643 6.2831853071796004 $290 $644 forward 7 unknown #
vertex $-1 $293 $645 #
ellipse-curve $-1 -38.713767373868841 25.92020480638913 8.7300923130028174 0 0.71933980857756763 0.69465836192734942 2 0 0 1 I I #
face $-1 $-1 $646 $63 $-1 $647 reversed single #
loop $-1 $-1 $300 $294 #
plane-surface $-1 0 0 14.437668846625948 0 0 1 1 0 0 forward_v I I I I #
coedge $-1 $648 $649 $650 $651 reversed $295 $-1 #
coedge $-1 $652 $297 $299 $467 forward $185 $-1 #
coedge $-1 $297 $652 $648 $653 forward $185 $-1 #
coedge $-1 $650 $300 $297 $464 forward $458 $-1 #
edge $-1 $470 -11.639773044352612 $654 2.8366082210899641 $463 $655 forward 7 unknown #
coedge $-1 $656 $657 $298 $466 forward $646 $-1 #
edge $-1 $658 -73.079544532627352 $469 -61.664391465381094 $465 $659 forward 7 unknown #
edge $-1 $470 46.99496453266331 $658 62.863894530877573 $299 $660 forward 7 unknown #
coedge $-1 $300 $650 $656 $661 forward $458 $-1 #
vertex $-1 $301 $662 #
vertex $-1 $301 $663 #
straight-curve $-1 -16.041355455983936 47.708946709465202 14.437668846625954 0 -1 0 I I #
coedge $-1 $472 $472 $-1 $664 reversed $304 $-1 #
edge $-1 $665 0 $665 6.2831853071796004 $305 $666 forward 7 unknown #
vertex $-1 $308 $667 #
ellipse-curve $-1 -11.905246523000343 25.92020480638913 8.7300923130028174 0 0.71933980857756763 0.69465836192734942 2 0 0 1 I I #
coedge $-1 $476 $476 $-1 $668 reversed $311 $-1 #
edge $-1 $669 0 $669 6.2831853071796004 $312 $670 forward 7 unknown #
vertex $-1 $315 $671 #
ellipse-curve $-1 -5.7010831235249668 25.92020480638913 8.7300923130028174 0 0.71933980857756763 0.69465836192734942 2 0 0 1 I I #
face $-1 $-1 $672 $66 $-1 $673 reversed single #
loop $-1 $-1 $322 $316 #
plane-surface $-1 0 0 14.437668846625948 0 0 1 1 0 0 forward_v I I I I #
coedge $-1 $674 $675 $676 $677 reversed $317 $-1 #
coedge $-1 $678 $319 $321 $490 forward $199 $-1 #
coedge $-1 $319 $678 $674 $679 forward $199 $-1 #
coedge $-1 $676 $322 $319 $487 forward $481 $-1 #
edge $-1 $493 4.8665690808193283 $680 19.342950346261905 $486 $681 forward 7 unknown #
coedge $-1 $682 $683 $320 $489 forward $672 $-1 #
edge $-1 $684 -73.079544532627352 $492 -61.664391465381094 $488 $685 forward 7 unknown #
edge $-1 $493 46.99496453266331 $684 62.863894530877573 $321 $686 forward 7 unknown #
coedge $-1 $322 $676 $682 $687 forward $481 $-1 #
vertex $-1 $323 $688 #
vertex $-1 $323 $689 #
straight-curve $-1 16.971328794359945 47.708946709465202 14.437668846625954 0 -1 0 I I #
coedge $-1 $495 $495 $-1 $690 reversed $326 $-1 #
edge $-1 $691 0 $691 6.2831853071796004 $327 $692 forward 7 unknown #
vertex $-1 $330 $693 #
ellipse-curve $-1 21.107437727343537 25.92020480638913 8.7300923130028174 0 0.71933980857756763 0.69465836192734942 2 0 0 1 I I #
coedge $-1 $499 $499 $-1 $694 reversed $333 $-1 #
edge $-1 $695 0 $695 6.2831853071796004 $334 $696 forward 7 unknown #
vertex $-1 $337 $697 #
ellipse-curve $-1 27.311601126818914 25.92020480638913 8.7300923130028174 0 0.71933980857756763 0.69465836192734942 2 0 0 1 I I #
face $-1 $-1 $698 $69 $-1 $699 reversed single #
loop $-1 $-1 $344 $338 #
plane-surface $-1 0 0 14.437668846625948 0 0 1 1 0 0 forward_v I I I I #
coedge $-1 $700 $701 $702 $703 reversed $339 $-1 #
coedge $-1 $704 $341 $343 $513 forward $213 $-1 #
coedge $-1 $341 $704 $700 $705 forward $213 $-1 #
coedge $-1 $702 $344 $341 $510 forward $504 $-1 #
edge $-1 $516 21.372911205991272 $706 35.849292471433841 $509 $707 forward 7 unknown #
coedge $-1 $708 $709 $342 $512 forward $698 $-1 #
edge $-1 $710 -73.079544532627352 $515 -61.664391465381094 $511 $711 forward 7 unknown #
edge $-1 $516 46.99496453266331 $710 62.863894530877573 $343 $712 forward 7 unknown #
coedge $-1 $344 $702 $708 $713 forward $504 $-1 #
vertex $-1 $345 $714 #
vertex $-1 $345 $715 #
straight-curve $-1 49.984013044703829 47.708946709465202 14.437668846625954 0 -1 0 I I #
coedge $-1 $518 $518 $-1 $716 reversed $348 $-1 #
edge $-1 $717 0 $717 6.2831853071796004 $349 $718 forward 7 unknown #
vertex $-1 $352 $719 #
ellipse-curve $-1 54.120121977687432 25.92020480638913 8.7300923130028174 0 0.71933980857756763 0.69465836192734942 2 0 0 1 I I #
coedge $-1 $522 $522 $-1 $720 reversed $355 $-1 #
edge $-1 $721 0 $721 6.2831853071796004 $356 $722 forward 7 unknown #
vertex $-1 $359 $723 #
ellipse-curve $-1 60.324285377162795 25.92020480638913 8.7300923130028174 0 0.71933980857756763 0.69465836192734942 2 0 0 1 I I #
face $-1 $-1 $538 $54 $-1 $724 reversed single #
loop $-1 $-1 $725 $360 #
plane-surface $-1 0 31.431947265438776 0 0 -1 0 0 0 -1 forward_v I I I I #
coedge $-1 $537 $536 $363 $530 reversed $538 $-1 #
edge $-1 $726 -31.431947265438776 $727 31.431947265438776 $529 $728 forward 7 unknown #
coedge $-1 $365 $364 $368 $542 forward $145 $-1 #
coedge $-1 $725 $371 $364 $533 reversed $527 $-1 #
edge $-1 $540 -74.828943754387041 $547 74.828943754387041 $532 $729 forward 7 unknown #
coedge $-1 $369 $730 $365 $535 reversed $361 $-1 #
edge $-1 $544 -74.828943754387041 $539 74.828943754387041 $534 $731 forward 7 unknown #
coedge $-1 $529 $366 $730 $732 forward $538 $-1 #
coedge $-1 $366 $529 $725 $733 reversed $538 $-1 #
loop $-1 $-1 $536 $526 #
vertex $-1 $367 $734 #
vertex $-1 $367 $735 #
straight-curve $-1 74.828943754387041 0 14.437668846625948 0 1 0 I I #
edge $-1 $547 -31.431947265438776 $544 31.431947265438776 $368 $736 forward 7 unknown #
coedge $-1 $730 $369 $374 $550 reversed $361 $-1 #
vertex $-1 $542 $737 #
straight-curve $-1 -74.828943754387041 -31.431947265438776 0 0 0 -1 I I #
coedge $-1 $371 $725 $373 $549 reversed $527 $-1 #
vertex $-1 $533 $738 #
straight-curve $-1 -74.828943754387041 31.431947265438776 0 0 0 -1 I I #
edge $-1 $376 -74.828943754387041 $726 74.828943754387041 $546 $739 forward 7 unknown #
edge $-1 $727 -74.828943754387041 $375 74.828943754387041 $543 $740 forward 7 unknown #
point $-1 -74.828943754387041 -31.431947265438776 -14.437668846625948 #
point $-1 -74.828943754387041 31.431947265438776 -14.437668846625948 #
face $-1 $-1 $569 $55 $-1 $741 forward single #
plane-surface $-1 -82.532121056296319 -2.5566095721868791 0 0 -1 0 0 0 -1 forward_v I I I I #
coedge $-1 $742 $743 $572 $744 forward $379 $-1 #
coedge $-1 $565 $381 $382 $561 reversed $235 $-1 #
coedge $-1 $381 $565 $568 $745 reversed $235 $-1 #
coedge $-1 $743 $742 $381 $559 reversed $379 $-1 #
edge $-1 $746 -14.437668846625948 $747 14.437668846625948 $558 $748 forward 7 unknown #
coedge $-1 $383 $382 $742 $749 forward $149 $-1 #
edge $-1 $563 -7.7031773019092782 $747 7.7031773019092782 $556 $750 forward 7 unknown #
edge $-1 $751 -7.7031773019092782 $391 7.7031773019092782 $388 $752 forward 7 unknown #
vertex $-1 $561 $753 #
straight-curve $-1 -74.828943754387041 0 -14.437668846625948 0 -1 0 I I #
coedge $-1 $557 $556 $385 $566 reversed $235 $-1 #
edge $-1 $570 -14.437668846625948 $563 14.437668846625948 $565 $754 forward 7 unknown #
coedge $-1 $755 $386 $389 $573 forward $569 $-1 #
coedge $-1 $386 $755 $557 $745 forward $569 $-1 #
loop $-1 $-1 $386 $553 #
vertex $-1 $387 $756 #
straight-curve $-1 -74.828943754387041 0 14.437668846625948 0 1 0 I I #
coedge $-1 $389 $388 $555 $744 reversed $390 $-1 #
edge $-1 $392 -7.7031773019092782 $757 7.7031773019092782 $389 $758 forward 7 unknown #
point $-1 -74.828943754387041 -2.5566095721868791 -14.437668846625948 #
point $-1 -74.828943754387041 -2.5566095721868791 14.437668846625948 #
loop $-1 $-1 $402 $394 #
plane-surface $-1 0 -31.431947265438776 0 0 1 0 0 0 1 forward_v I I I I #
coedge $-1 $579 $397 $399 $583 reversed $243 $-1 #
coedge $-1 $397 $578 $759 $760 reversed $243 $-1 #
coedge $-1 $405 $400 $397 $581 forward $395 $-1 #
edge $-1 $584 -51.252173337945493 $761 -38.11146444362295 $580 $762 forward 7 unknown #
coedge $-1 $399 $398 $587 $763 reversed $153 $-1 #
edge $-1 $764 -1.5310180211858787e-014 $584 18.916793656472016 $578 $765 forward 7 unknown #
vertex $-1 $401 $766 #
straight-curve $-1 -24.797984285675103 -18.291238371116236 14.437668846625948 -1 0 0 I I #
coedge $-1 $759 $402 $405 $591 reversed $576 $-1 #
coedge $-1 $402 $759 $582 $763 forward $576 $-1 #
vertex $-1 $403 $767 #
straight-curve $-1 -39.769347992131927 -31.431947265438779 52.395584552615276 0 0 1 I I #
straight-curve $-1 -39.769347992131927 -31.431947265438765 0.83006611887802251 0 -0.69465836192734942 -0.71933980857756763 I I #
edge $-1 $761 -59.422589150568484 $406 -39.769347992131927 $586 $768 forward 7 unknown #
point $-1 -39.769347992131927 -31.431947265438776 14.437668846625948 #
point $-1 -39.769347992131927 -18.29123837111624 14.437668846625948 #
edge $-1 $769 1 $769 0 $409 $-1 forward 7 unknown #
vertex $-1 $410 $770 #
ellipse-curve $-1 -49.595968571350205 -19.556222989198893 2.5105315142142057 0 -0.71933980857756763 0.69465836192734942 2.5 0 0 1 I I #
point $-1 -47.095968571350205 -24.861592818277522 7.6338674827519943 #
plane-surface $-1 0 0 14.437668846625948 0 0 1 1 0 0 forward_v I I I I #
coedge $-1 $609 $608 $601 $771 forward $414 $-1 #
coedge $-1 $601 $416 $418 $605 reversed $258 $-1 #
coedge $-1 $416 $600 $599 $771 reversed $258 $-1 #
coedge $-1 $424 $419 $416 $603 forward $425 $-1 #
edge $-1 $606 -51.252173337945493 $772 -38.11146444362295 $602 $773 forward 7 unknown #
coedge $-1 $418 $417 $609 $774 reversed $162 $-1 #
edge $-1 $775 -1.5310180211858787e-014 $606 18.916793656472016 $600 $776 forward 7 unknown #
vertex $-1 $420 $777 #
straight-curve $-1 8.764898940563782 -18.291238371116236 14.437668846625948 -1 0 0 I I #
coedge $-1 $599 $421 $424 $613 reversed $414 $-1 #
coedge $-1 $421 $599 $604 $774 forward $414 $-1 #
vertex $-1 $422 $778 #
straight-curve $-1 27.356418460345843 -31.431947265438779 52.395584552615276 0 0 1 I I #
straight-curve $-1 27.356418460345843 -31.431947265438765 0.83006611887802251 0 -0.69465836192734942 -0.71933980857756763 I I #
edge $-1 $772 7.7031773019092853 $426 27.356418460345843 $608 $779 forward 7 unknown #
point $-1 27.356418460345843 -31.431947265438776 14.437668846625948 #
point $-1 27.356418460345843 -18.29123837111624 14.437668846625948 #
edge $-1 $780 1 $780 0 $429 $-1 forward 7 unknown #
vertex $-1 $430 $781 #
ellipse-curve $-1 17.529797881127564 -19.556222989198893 2.5105315142142057 0 -0.71933980857756763 0.69465836192734942 2.5 0 0 1 I I #
point $-1 20.029797881127564 -24.861592818277522 7.6338674827519943 #
plane-surface $-1 0 0 14.437668846625948 0 0 1 1 0 0 forward_v I I I I #
coedge $-1 $631 $630 $623 $782 forward $434 $-1 #
coedge $-1 $623 $436 $438 $627 reversed $273 $-1 #
coedge $-1 $436 $622 $621 $782 reversed $273 $-1 #
coedge $-1 $444 $439 $436 $625 forward $445 $-1 #
edge $-1 $628 -27.300484362125715 $783 -16.276999444026426 $624 $784 forward 7 unknown #
coedge $-1 $438 $437 $631 $785 reversed $171 $-1 #
edge $-1 $786 -62.863894530877573 $628 -46.99496453266331 $622 $787 forward 7 unknown #
vertex $-1 $440 $788 #
straight-curve $-1 -20.907924536803264 20.408462347339487 14.43766884662595 1 0 0 I I #
coedge $-1 $621 $441 $444 $635 reversed $434 $-1 #
coedge $-1 $441 $621 $626 $785 forward $434 $-1 #
vertex $-1 $442 $789 #
straight-curve $-1 -49.054039706327814 31.431947265438776 76.10206031200704 0 0 1 I I #
straight-curve $-1 -49.054039706327814 -12.236982733754289 48.243017637661552 0 0.69465836192734942 -0.71933980857756763 I I #
edge $-1 $783 34.577658440885244 $446 49.054039706327814 $630 $790 forward 7 unknown #
point $-1 -49.054039706327814 31.431947265438776 14.437668846625948 #
point $-1 -49.054039706327814 20.408462347339487 14.437668846625947 #
edge $-1 $791 1 $791 0 $449 $-1 forward 7 unknown #
vertex $-1 $450 $792 #
ellipse-curve $-1 -44.917930773344224 23.753118717826673 6.6373616529089308 0 0.71933980857756763 0.69465836192734942 2 0 0 1 I I #
point $-1 -42.917930773344224 25.92020480638913 8.7300923130028174 #
edge $-1 $793 1 $793 0 $453 $-1 forward 7 unknown #
vertex $-1 $454 $794 #
ellipse-curve $-1 -38.713767373868841 23.753118717826673 6.6373616529089308 0 0.71933980857756763 0.69465836192734942 2 0 0 1 I I #
point $-1 -36.713767373868841 25.92020480638913 8.7300923130028174 #
loop $-1 $-1 $465 $457 #
plane-surface $-1 0 31.431947265438776 0 0 -1 0 0 0 -1 forward_v I I I I #
coedge $-1 $649 $460 $462 $653 reversed $295 $-1 #
coedge $-1 $460 $648 $795 $796 reversed $295 $-1 #
coedge $-1 $468 $463 $460 $651 forward $458 $-1 #
edge $-1 $654 -27.300484362125715 $797 -16.276999444026426 $650 $798 forward 7 unknown #
coedge $-1 $462 $461 $657 $799 reversed $185 $-1 #
edge $-1 $800 -62.863894530877573 $654 -46.99496453266331 $648 $801 forward 7 unknown #
vertex $-1 $464 $802 #
straight-curve $-1 -4.401582411631324 20.408462347339487 14.43766884662595 1 0 0 I I #
coedge $-1 $795 $465 $468 $661 reversed $646 $-1 #
coedge $-1 $465 $795 $652 $799 forward $646 $-1 #
vertex $-1 $466 $803 #
straight-curve $-1 -16.041355455983936 31.431947265438776 76.10206031200704 0 0 1 I I #
straight-curve $-1 -16.041355455983936 -12.236982733754289 48.243017637661552 0 0.69465836192734942 -0.71933980857756763 I I #
edge $-1 $797 1.5649741905413599 $469 16.041355455983936 $656 $804 forward 7 unknown #
point $-1 -16.041355455983936 31.431947265438776 14.437668846625948 #
point $-1 -16.041355455983936 20.408462347339487 14.437668846625947 #
edge $-1 $805 1 $805 0 $472 $-1 forward 7 unknown #
vertex $-1 $473 $806 #
ellipse-curve $-1 -11.905246523000343 23.753118717826673 6.6373616529089308 0 0.71933980857756763 0.69465836192734942 2 0 0 1 I I #
point $-1 -9.9052465230003435 25.92020480638913 8.7300923130028174 #
edge $-1 $807 1 $807 0 $476 $-1 forward 7 unknown #
vertex $-1 $477 $808 #
ellipse-curve $-1 -5.7010831235249668 23.753118717826673 6.6373616529089308 0 0.71933980857756763 0.69465836192734942 2 0 0 1 I I #
point $-1 -3.7010831235249668 25.92020480638913 8.7300923130028174 #
loop $-1 $-1 $488 $480 #
plane-surface $-1 0 31.431947265438776 0 0 -1 0 0 0 -1 forward_v I I I I #
coedge $-1 $675 $483 $485 $679 reversed $317 $-1 #
coedge $-1 $483 $674 $809 $810 reversed $317 $-1 #
coedge $-1 $491 $486 $483 $677 forward $481 $-1 #
edge $-1 $680 -27.300484362125715 $811 -16.276999444026426 $676 $812 forward 7 unknown #
coedge $-1 $485 $484 $683 $813 reversed $199 $-1 #
edge $-1 $814 -62.863894530877573 $680 -46.99496453266331 $674 $815 forward 7 unknown #
vertex $-1 $487 $816 #
straight-curve $-1 12.104759713540616 20.408462347339487 14.43766884662595 1 0 0 I I #
coedge $-1 $809 $488 $491 $687 reversed $672 $-1 #
coedge $-1 $488 $809 $678 $813 forward $672 $-1 #
vertex $-1 $489 $817 #
straight-curve $-1 16.971328794359945 31.431947265438776 76.10206031200704 0 0 1 I I #
straight-curve $-1 16.971328794359945 -12.236982733754289 48.243017637661552 0 0.69465836192734942 -0.71933980857756763 I I #
edge $-1 $811 -31.447710059802521 $492 -16.971328794359945 $682 $818 forward 7 unknown #
point $-1 16.971328794359945 31.431947265438776 14.437668846625948 #
point $-1 16.971328794359945 20.408462347339487 14.437668846625947 #
edge $-1 $819 1 $819 0 $495 $-1 forward 7 unknown #
vertex $-1 $496 $820 #
ellipse-curve $-1 21.107437727343537 23.753118717826673 6.6373616529089308 0 0.71933980857756763 0.69465836192734942 2 0 0 1 I I #
point $-1 23.107437727343537 25.92020480638913 8.7300923130028174 #
edge $-1 $821 1 $821 0 $499 $-1 forward 7 unknown #
vertex $-1 $500 $822 #
ellipse-curve $-1 27.311601126818914 23.753118717826673 6.6373616529089308 0 0.71933980857756763 0.69465836192734942 2 0 0 1 I I #
point $-1 29.311601126818914 25.92020480638913 8.7300923130028174 #
loop $-1 $-1 $511 $503 #
plane-surface $-1 0 31.431947265438776 0 0 -1 0 0 0 -1 forward_v I I I I #
coedge $-1 $701 $506 $508 $705 reversed $339 $-1 #
coedge $-1 $506 $700 $823 $824 reversed $339 $-1 #
coedge $-1 $514 $509 $506 $703 forward $504 $-1 #
edge $-1 $706 -27.300484362125715 $825 -16.276999444026426 $702 $826 forward 7 unknown #
coedge $-1 $508 $507 $709 $827 reversed $213 $-1 #
edge $-1 $828 -62.863894530877573 $706 -46.99496453266331 $700 $829 forward 7 unknown #
vertex $-1 $510 $830 #
straight-curve $-1 28.611101838712557 20.408462347339487 14.43766884662595 1 0 0 I I #
coedge $-1 $823 $511 $514 $713 reversed $698 $-1 #
coedge $-1 $511 $823 $704 $827 forward $698 $-1 #
vertex $-1 $512 $831 #
straight-curve $-1 49.984013044703829 31.431947265438776 76.10206031200704 0 0 1 I I #
straight-curve $-1 49.984013044703829 -12.236982733754289 48.243017637661552 0 0.69465836192734942 -0.71933980857756763 I I #
edge $-1 $825 -64.460394310146398 $515 -49.984013044703829 $708 $832 forward 7 unknown #
point $-1 49.984013044703829 31.431947265438776 14.437668846625948 #
point $-1 49.984013044703829 20.408462347339487 14.437668846625947 #
edge $-1 $833 1 $833 0 $518 $-1 forward 7 unknown #
vertex $-1 $519 $834 #
ellipse-curve $-1 54.120121977687432 23.753118717826673 6.6373616529089308 0 0.71933980857756763 0.69465836192734942 2 0 0 1 I I #
point $-1 56.120121977687432 25.92020480638913 8.7300923130028174 #
edge $-1 $835 1 $835 0 $522 $-1 forward 7 unknown #
vertex $-1 $523 $836 #
ellipse-curve $-1 60.324285377162795 23.753118717826673 6.6373616529089308 0 0.71933980857756763 0.69465836192734942 2 0 0 1 I I #
point $-1 62.324285377162795 25.92020480638913 8.7300923130028174 #
plane-surface $-1 74.828943754387041 0 0 -1 0 0 0 0 1 forward_v I I I I #
coedge $-1 $546 $532 $537 $733 forward $527 $-1 #
vertex $-1 $530 $837 #
vertex $-1 $732 $838 #
straight-curve $-1 74.828943754387041 0 -14.437668846625948 0 -1 0 I I #
straight-curve $-1 0 31.431947265438776 14.437668846625948 -1 0 0 I I #
coedge $-1 $534 $543 $536 $732 reversed $361 $-1 #
straight-curve $-1 0 -31.431947265438776 14.437668846625948 1 0 0 I I #
edge $-1 $539 -14.437668846625948 $727 14.437668846625948 $536 $839 forward 7 unknown #
edge $-1 $540 -14.437668846625948 $726 14.437668846625948 $537 $840 forward 7 unknown #
point $-1 74.828943754387041 -31.431947265438776 14.437668846625948 #
point $-1 74.828943754387041 31.431947265438776 14.437668846625948 #
straight-curve $-1 -74.828943754387041 0 14.437668846625948 0 -1 0 I I #
point $-1 -74.828943754387041 -31.431947265438776 14.437668846625948 #
point $-1 -74.828943754387041 31.431947265438776 14.437668846625948 #
straight-curve $-1 0 31.431947265438776 -14.437668846625948 1 0 0 I I #
straight-curve $-1 0 -31.431947265438776 -14.437668846625948 -1 0 0 I I #
plane-surface $-1 0 0 14.437668846625948 0 0 1 1 0 0 forward_v I I I I #
coedge $-1 $558 $555 $560 $749 reversed $379 $-1 #
coedge $-1 $555 $558 $755 $841 reversed $379 $-1 #
edge $-1 $757 -14.437668846625948 $751 14.437668846625948 $572 $842 forward 7 unknown #
edge $-1 $746 -7.7031773019092782 $570 7.7031773019092782 $557 $843 forward 7 unknown #
vertex $-1 $841 $844 #
vertex $-1 $749 $845 #
straight-curve $-1 -90.235298358205597 -10.368821742493814 0 0 0 -1 I I #
edge $-1 $747 -3.9061060851534677 $751 3.9061060851534677 $742 $846 forward 7 unknown #
straight-curve $-1 -82.532121056296319 -10.368821742493814 -14.437668846625948 -1 0 0 I I #
vertex $-1 $562 $847 #
straight-curve $-1 -82.532121056296319 -2.5566095721868791 -14.437668846625948 1 0 0 I I #
point $-1 -74.828943754387041 -10.368821742493814 -14.437668846625948 #
straight-curve $-1 -74.828943754387041 -10.368821742493814 0 0 0 -1 I I #
coedge $-1 $568 $567 $743 $841 forward $569 $-1 #
point $-1 -74.828943754387041 -10.368821742493814 14.437668846625948 #
vertex $-1 $573 $848 #
straight-curve $-1 -82.532121056296319 -2.5566095721868791 14.437668846625948 -1 0 0 I I #
coedge $-1 $587 $586 $579 $760 forward $576 $-1 #
edge $-1 $761 37.957915705989329 $764 51.565518433737267 $759 $849 forward 7 unknown #
vertex $-1 $591 $850 #
straight-curve $-1 -59.422589150568484 -69.543411709061729 14.437668846625947 0 -1 0 I I #
edge $-1 $764 -34.624604864893385 $588 -14.971363706456824 $587 $851 forward 7 unknown #
vertex $-1 $763 $852 #
straight-curve $-1 -59.422589150568484 -31.431947265438765 0.83006611887802251 0 0.69465836192734942 0.71933980857756763 I I #
point $-1 -59.422589150568484 -18.29123837111624 14.437668846625948 #
point $-1 -39.769347992131927 -31.431947265438776 0.83006611887801152 #
straight-curve $-1 0 -31.431947265438776 14.437668846625948 1 0 0 I I #
vertex $-1 $594 $853 #
point $-1 -47.095968571350205 -19.556222989198893 2.5105315142142057 #
edge $-1 $772 37.957915705989329 $775 51.565518433737267 $599 $854 forward 7 unknown #
vertex $-1 $613 $855 #
straight-curve $-1 7.7031773019092853 -69.543411709061729 14.437668846625947 0 -1 0 I I #
edge $-1 $775 -1.0617216386544968 $610 18.591519519782061 $609 $856 forward 7 unknown #
vertex $-1 $774 $857 #
straight-curve $-1 7.7031773019092853 -31.431947265438765 0.83006611887802251 0 0.69465836192734942 0.71933980857756763 I I #
point $-1 7.7031773019092853 -18.29123837111624 14.437668846625948 #
point $-1 27.356418460345843 -31.431947265438776 0.83006611887801152 #
straight-curve $-1 0 -31.431947265438776 14.437668846625948 1 0 0 I I #
vertex $-1 $616 $858 #
point $-1 20.029797881127564 -19.556222989198893 2.5105315142142057 #
edge $-1 $783 61.664391465381094 $786 73.079544532627352 $621 $859 forward 7 unknown #
vertex $-1 $635 $860 #
straight-curve $-1 -34.577658440885244 47.708946709465202 14.437668846625954 0 1 0 I I #
edge $-1 $786 13.66973390408198 $632 28.146115169524549 $631 $861 forward 7 unknown #
vertex $-1 $785 $862 #
straight-curve $-1 -34.577658440885244 -12.236982733754289 48.243017637661552 0 -0.69465836192734942 0.71933980857756763 I I #
point $-1 -34.577658440885244 20.408462347339487 14.437668846625947 #
point $-1 -49.054039706327814 31.431947265438779 3.0225157793796811 #
straight-curve $-1 0 31.431947265438776 14.437668846625948 -1 0 0 I I #
vertex $-1 $638 $863 #
point $-1 -42.917930773344224 23.753118717826673 6.6373616529089308 #
vertex $-1 $642 $864 #
point $-1 -36.713767373868841 23.753118717826673 6.6373616529089308 #
coedge $-1 $657 $656 $649 $796 forward $646 $-1 #
edge $-1 $797 61.664391465381094 $800 73.079544532627352 $795 $865 forward 7 unknown #
vertex $-1 $661 $866 #
straight-curve $-1 -1.5649741905413599 47.708946709465202 14.437668846625954 0 1 0 I I #
edge $-1 $800 -2.8366082210899641 $658 11.639773044352612 $657 $867 forward 7 unknown #
vertex $-1 $799 $868 #
straight-curve $-1 -1.5649741905413599 -12.236982733754289 48.243017637661552 0 -0.69465836192734942 0.71933980857756763 I I #
point $-1 -1.5649741905413599 20.408462347339487 14.437668846625947 #
point $-1 -16.041355455983936 31.431947265438779 3.0225157793796811 #
straight-curve $-1 0 31.431947265438776 14.437668846625948 -1 0 0 I I #
vertex $-1 $664 $869 #
point $-1 -9.9052465230003435 23.753118717826673 6.6373616529089308 #
vertex $-1 $668 $870 #
point $-1 -3.7010831235249668 23.753118717826673 6.6373616529089308 #
coedge $-1 $683 $682 $675 $810 forward $672 $-1 #
edge $-1 $811 61.664391465381094 $814 73.079544532627352 $809 $871 forward 7 unknown #
vertex $-1 $687 $872 #
straight-curve $-1 31.447710059802521 47.708946709465202 14.437668846625954 0 1 0 I I #
edge $-1 $814 -19.342950346261905 $684 -4.8665690808193283 $683 $873 forward 7 unknown #
vertex $-1 $813 $874 #
straight-curve $-1 31.447710059802521 -12.236982733754289 48.243017637661552 0 -0.69465836192734942 0.71933980857756763 I I #
point $-1 31.447710059802521 20.408462347339487 14.437668846625947 #
point $-1 16.971328794359945 31.431947265438779 3.0225157793796811 #
straight-curve $-1 0 31.431947265438776 14.437668846625948 -1 0 0 I I #
vertex $-1 $690 $875 #
point $-1 23.107437727343537 23.753118717826673 6.6373616529089308 #
vertex $-1 $694 $876 #
point $-1 29.311601126818914 23.753118717826673 6.6373616529089308 #
coedge $-1 $709 $708 $701 $824 forward $698 $-1 #
edge $-1 $825 61.664391465381094 $828 73.079544532627352 $823 $877 forward 7 unknown #
vertex $-1 $713 $878 #
straight-curve $-1 64.460394310146398 47.708946709465202 14.437668846625954 0 1 0 I I #
edge $-1 $828 -35.849292471433841 $710 -21.372911205991272 $709 $879 forward 7 unknown #
vertex $-1 $827 $880 #
straight-curve $-1 64.460394310146398 -12.236982733754289 48.243017637661552 0 -0.69465836192734942 0.71933980857756763 I I #
point $-1 64.460394310146398 20.408462347339487 14.437668846625947 #
point $-1 49.984013044703829 31.431947265438779 3.0225157793796811 #
straight-curve $-1 0 31.431947265438776 14.437668846625948 -1 0 0 I I #
vertex $-1 $716 $881 #
point $-1 56.120121977687432 23.753118717826673 6.6373616529089308 #
vertex $-1 $720 $882 #
point $-1 62.324285377162795 23.753118717826673 6.6373616529089308 #
point $-1 74.828943754387041 31.431947265438776 -14.437668846625948 #
point $-1 74.828943754387041 -31.431947265438776 -14.437668846625948 #
straight-curve $-1 74.828943754387041 -31.431947265438776 0 0 0 -1 I I #
straight-curve $-1 74.828943754387041 31.431947265438776 0 0 0 -1 I I #
edge $-1 $757 -3.9061060851534677 $746 3.9061060851534677 $743 $883 forward 7 unknown #
straight-curve $-1 -90.235298358205597 -2.5566095721868791 0 0 0 -1 I I #
straight-curve $-1 -82.532121056296319 -10.368821742493814 14.437668846625948 1 0 0 I I #
point $-1 -90.235298358205597 -10.368821742493814 14.437668846625948 #
point $-1 -90.235298358205597 -10.368821742493814 -14.437668846625948 #
straight-curve $-1 -90.235298358205597 -6.4627156573403468 -14.437668846625948 0 1 0 I I #
point $-1 -90.235298358205597 -2.5566095721868791 -14.437668846625948 #
point $-1 -90.235298358205597 -2.5566095721868791 14.437668846625948 #
straight-curve $-1 -59.422589150568484 -31.431947265438779 52.395584552615276 0 0 -1 I I #
point $-1 -59.422589150568484 -31.431947265438776 14.437668846625948 #
straight-curve $-1 -24.797984285675103 -31.431947265438776 0.83006611887801496 1 0 0 I I #
point $-1 -59.422589150568484 -31.431947265438776 0.83006611887801152 #
point $-1 -49.595968571350205 -17.757873467754976 0.77388560939583151 #
straight-curve $-1 7.7031773019092853 -31.431947265438779 52.395584552615276 0 0 -1 I I #
point $-1 7.7031773019092853 -31.431947265438776 14.437668846625948 #
straight-curve $-1 8.764898940563782 -31.431947265438776 0.83006611887801496 1 0 0 I I #
point $-1 7.7031773019092853 -31.431947265438776 0.83006611887801152 #
point $-1 17.529797881127564 -17.757873467754976 0.77388560939583151 #
straight-curve $-1 -34.577658440885244 31.431947265438776 76.10206031200704 0 0 -1 I I #
point $-1 -34.577658440885244 31.431947265438776 14.437668846625948 #
straight-curve $-1 -20.907924536803264 31.431947265438779 3.0225157793796882 -1 0 0 I I #
point $-1 -34.577658440885244 31.431947265438779 3.0225157793796811 #
point $-1 -44.917930773344224 22.314439100671535 5.2480449290542328 #
point $-1 -38.713767373868841 22.314439100671535 5.2480449290542328 #
straight-curve $-1 -1.5649741905413599 31.431947265438776 76.10206031200704 0 0 -1 I I #
point $-1 -1.5649741905413599 31.431947265438776 14.437668846625948 #
straight-curve $-1 -4.401582411631324 31.431947265438779 3.0225157793796882 -1 0 0 I I #
point $-1 -1.5649741905413599 31.431947265438779 3.0225157793796811 #
point $-1 -11.905246523000343 22.314439100671535 5.2480449290542328 #
point $-1 -5.7010831235249668 22.314439100671535 5.2480449290542328 #
straight-curve $-1 31.447710059802521 31.431947265438776 76.10206031200704 0 0 -1 I I #
point $-1 31.447710059802521 31.431947265438776 14.437668846625948 #
straight-curve $-1 12.104759713540616 31.431947265438779 3.0225157793796882 -1 0 0 I I #
point $-1 31.447710059802521 31.431947265438779 3.0225157793796811 #
point $-1 21.107437727343537 22.314439100671535 5.2480449290542328 #
point $-1 27.311601126818914 22.314439100671535 5.2480449290542328 #
straight-curve $-1 64.460394310146398 31.431947265438776 76.10206031200704 0 0 -1 I I #
point $-1 64.460394310146398 31.431947265438776 14.437668846625948 #
straight-curve $-1 28.611101838712557 31.431947265438779 3.0225157793796882 -1 0 0 I I #
point $-1 64.460394310146398 31.431947265438779 3.0225157793796811 #
point $-1 54.120121977687432 22.314439100671535 5.2480449290542328 #
point $-1 60.324285377162795 22.314439100671535 5.2480449290542328 #
straight-curve $-1 -90.235298358205597 -6.4627156573403468 14.437668846625948 0 -1 0 I I #
End-of-ACIS-data 