500 0 11 0           
7 Unknown 11 ACIS 5.0 NT 24 Thu Mar 25 18:13:00 1999 
-1 9.9999999999999995e-007 1e-010 
body $-1 $11 $-1 $12 #
body $-1 $13 $-1 $14 #
body $-1 $15 $-1 $16 #
body $-1 $17 $-1 $18 #
body $-1 $19 $-1 $20 #
body $-1 $21 $-1 $22 #
body $-1 $23 $-1 $24 #
body $-1 $25 $-1 $26 #
body $-1 $27 $-1 $28 #
body $-1 $29 $-1 $30 #
body $-1 $31 $-1 $32 #
lump $-1 $-1 $33 $0 #
transform $-1 1 0 0 0 1 0 0 0 1 69.640797143467523 37.29981243164066 12.54763550131195 1 rotate no_reflect no_shear #
lump $-1 $-1 $34 $1 #
transform $-1 1 0 0 0 1 0 0 0 1 69.640797143467523 37.29981243164066 12.54763550131195 1 rotate no_reflect no_shear #
lump $-1 $-1 $35 $2 #
transform $-1 1 0 0 0 1 0 0 0 1 69.640797143467523 37.29981243164066 12.54763550131195 1 rotate no_reflect no_shear #
lump $-1 $-1 $36 $3 #
transform $-1 1 0 0 0 1 0 0 0 1 69.640797143467523 37.29981243164066 12.54763550131195 1 rotate no_reflect no_shear #
lump $-1 $-1 $37 $4 #
transform $-1 1 0 0 0 1 0 0 0 1 69.640797143467523 37.29981243164066 12.54763550131195 1 rotate no_reflect no_shear #
lump $-1 $-1 $38 $5 #
transform $-1 1 0 0 0 1 0 0 0 1 69.640797143467523 37.29981243164066 12.54763550131195 1 rotate no_reflect no_shear #
lump $-1 $-1 $39 $6 #
transform $-1 1 0 0 0 1 0 0 0 1 69.640797143467523 37.29981243164066 12.54763550131195 1 rotate no_reflect no_shear #
lump $-1 $-1 $40 $7 #
transform $-1 1 0 0 0 1 0 0 0 1 69.640797143467523 37.29981243164066 12.54763550131195 1 rotate no_reflect no_shear #
lump $-1 $-1 $41 $8 #
transform $-1 1 0 0 0 1 0 0 0 1 69.640797143467523 37.29981243164066 12.54763550131195 1 rotate no_reflect no_shear #
lump $-1 $-1 $42 $9 #
transform $-1 1 0 0 0 1 0 0 0 1 69.640797143467523 37.29981243164066 12.54763550131195 1 rotate no_reflect no_shear #
lump $-1 $-1 $43 $10 #
transform $-1 1 0 0 0 1 0 0 0 1 69.640797143467523 37.29981243164066 12.54763550131195 1 rotate no_reflect no_shear #
shell $-1 $-1 $-1 $44 $-1 $11 #
shell $-1 $-1 $-1 $45 $-1 $13 #
shell $-1 $-1 $-1 $46 $-1 $15 #
shell $-1 $-1 $-1 $47 $-1 $17 #
shell $-1 $-1 $-1 $48 $-1 $19 #
shell $-1 $-1 $-1 $49 $-1 $21 #
shell $-1 $-1 $-1 $50 $-1 $23 #
shell $-1 $-1 $-1 $51 $-1 $25 #
shell $-1 $-1 $-1 $52 $-1 $27 #
shell $-1 $-1 $-1 $53 $-1 $29 #
shell $-1 $-1 $-1 $54 $-1 $31 #
face $-1 $55 $56 $33 $-1 $57 forward single #
face $-1 $58 $59 $34 $-1 $60 reversed single #
face $-1 $61 $62 $35 $-1 $63 forward single #
face $-1 $64 $65 $36 $-1 $66 forward single #
face $-1 $67 $68 $37 $-1 $69 forward single #
face $-1 $70 $71 $38 $-1 $72 reversed single #
face $-1 $73 $74 $39 $-1 $75 forward single #
face $-1 $76 $77 $40 $-1 $78 forward single #
face $-1 $79 $80 $41 $-1 $81 forward single #
face $-1 $82 $83 $42 $-1 $84 reversed single #
face $-1 $85 $86 $43 $-1 $87 forward single #
face $-1 $88 $89 $33 $-1 $90 reversed single #
loop $-1 $-1 $91 $44 #
plane-surface $-1 0 0 12.54763550131195 0 0 1 1 0 0 forward_v I I I I #
face $-1 $92 $93 $34 $-1 $94 reversed single #
loop $-1 $-1 $95 $45 #
plane-surface $-1 -139.2815952199457 -11.132799328598971 120.67326396301389 0 1 0 -0.50000000669873634 0 0.8660253999169214 forward_v I I I I #
face $-1 $96 $97 $35 $-1 $98 forward single #
loop $-1 $99 $100 $46 #
cone-surface $-1 -58.363074524354161 -8.9062394628791779 5.5098165423335734 0.50000000669873634 0 -0.8660253999169214 0.8660253999169214 0 0.50000000669873634 1 I I 0 1 1 forward I I I I #
face $-1 $101 $102 $36 $-1 $103 forward single #
loop $-1 $104 $105 $47 #
cone-surface $-1 -58.363074524354161 -5.5663996642994888 5.5098165423335734 0.50000000669873634 0 -0.8660253999169214 0.8660253999169214 0 0.50000000669873634 1 I I 0 1 1 forward I I I I #
face $-1 $106 $107 $37 $-1 $108 forward single #
loop $-1 $109 $110 $48 #
cone-surface $-1 -58.363074524354161 -2.2265598657197998 5.5098165423335734 0.50000000669873634 0 -0.8660253999169214 0.8660253999169214 0 0.50000000669873634 1 I I 0 1 1 forward I I I I #
face $-1 $111 $112 $38 $-1 $113 reversed single #
loop $-1 $-1 $114 $49 #
plane-surface $-1 -139.2815952199457 26.167013103041693 120.67326396301389 0 1 0 -0.50000000669873634 0 0.8660253999169214 forward_v I I I I #
face $-1 $115 $116 $39 $-1 $117 forward single #
loop $-1 $118 $119 $50 #
cone-surface $-1 -58.363074524354161 28.39357296876149 5.5098165423335734 0.50000000669873634 0 -0.8660253999169214 0.8660253999169214 0 0.50000000669873634 1 I I 0 1 1 forward I I I I #
face $-1 $120 $121 $40 $-1 $122 forward single #
loop $-1 $123 $124 $51 #
cone-surface $-1 -58.363074524354161 31.733412767341164 5.5098165423335734 0.50000000669873634 0 -0.8660253999169214 0.8660253999169214 0 0.50000000669873634 1 I I 0 1 1 forward I I I I #
face $-1 $125 $126 $41 $-1 $127 forward single #
loop $-1 $128 $129 $52 #
cone-surface $-1 -58.363074524354161 35.073252565920868 5.5098165423335734 0.50000000669873634 0 -0.8660253999169214 0.8660253999169214 0 0.50000000669873634 1 I I 0 1 1 forward I I I I #
face $-1 $130 $131 $42 $-1 $132 reversed single #
loop $-1 $-1 $133 $53 #
plane-surface $-1 117.29310407134733 14.222032116272164 198.43279181806417 0 -1 0 -0.85716730853699208 0 -0.51503806187062418 forward_v I I I I #
face $-1 $134 $135 $43 $-1 $136 forward single #
loop $-1 $137 $138 $54 #
cone-surface $-1 65.610359741085901 10.292842304257206 8.4525164785206002 -0.85716730853699208 0 -0.51503806187062418 0.77255709280593621 0 -1.2857509628054882 1 I I 0 1 1.5 forward I I I I #
face $-1 $139 $140 $33 $-1 $141 reversed single #
loop $-1 $-1 $142 $55 #
plane-surface $-1 0 0 -12.54763550131195 0 0 1 1 0 0 forward_v I I I I #
coedge $-1 $143 $144 $145 $146 forward $56 $-1 #
face $-1 $147 $148 $34 $-1 $149 reversed single #
loop $-1 $-1 $150 $58 #
plane-surface $-1 -69.640797143467495 -5.5663996642994853 0.05186556960457267 -0.50000000669873634 0 0.8660253999169214 0.8660253999169214 0 0.50000000669873634 forward_v I I I I #
coedge $-1 $151 $152 $153 $154 reversed $59 $-1 #
face $-1 $-1 $155 $35 $-1 $156 forward single #
loop $-1 $157 $158 $61 #
cone-surface $-1 -57.657005909285324 -8.9062394628791779 4.2868698492504169 0.50000000669873634 0 -0.8660253999169214 0.4330126999584607 0 0.25000000334936817 1 I I -0.70710678118654746 0.70710678118654746 0.5 forward I I I I #
loop $-1 $-1 $159 $46 #
coedge $-1 $100 $100 $160 $161 reversed $62 $-1 #
face $-1 $-1 $162 $36 $-1 $163 forward single #
loop $-1 $164 $165 $64 #
cone-surface $-1 -57.657005909285324 -5.5663996642994888 4.2868698492504169 0.50000000669873634 0 -0.8660253999169214 0.4330126999584607 0 0.25000000334936817 1 I I -0.70710678118654746 0.70710678118654746 0.5 forward I I I I #
loop $-1 $-1 $166 $47 #
coedge $-1 $105 $105 $167 $168 reversed $65 $-1 #
face $-1 $-1 $169 $37 $-1 $170 forward single #
loop $-1 $171 $172 $67 #
cone-surface $-1 -57.657005909285324 -2.2265598657197998 4.2868698492504169 0.50000000669873634 0 -0.8660253999169214 0.4330126999584607 0 0.25000000334936817 1 I I -0.70710678118654746 0.70710678118654746 0.5 forward I I I I #
loop $-1 $-1 $173 $48 #
coedge $-1 $110 $110 $174 $175 reversed $68 $-1 #
face $-1 $176 $177 $38 $-1 $178 forward single #
loop $-1 $-1 $179 $70 #
plane-surface $-1 -69.640797143467495 31.733412767341179 0.05186556960457267 -0.50000000669873634 0 0.8660253999169214 0.8660253999169214 0 0.50000000669873634 forward_v I I I I #
coedge $-1 $180 $181 $182 $183 reversed $71 $-1 #
face $-1 $-1 $184 $39 $-1 $185 forward single #
loop $-1 $186 $187 $73 #
cone-surface $-1 -57.657005909285324 28.39357296876149 4.2868698492504169 0.50000000669873634 0 -0.8660253999169214 0.4330126999584607 0 0.25000000334936817 1 I I -0.70710678118654746 0.70710678118654746 0.5 forward I I I I #
loop $-1 $-1 $188 $50 #
coedge $-1 $119 $119 $189 $190 reversed $74 $-1 #
face $-1 $-1 $191 $40 $-1 $192 forward single #
loop $-1 $193 $194 $76 #
cone-surface $-1 -57.657005909285324 31.733412767341164 4.2868698492504169 0.50000000669873634 0 -0.8660253999169214 0.4330126999584607 0 0.25000000334936817 1 I I -0.70710678118654746 0.70710678118654746 0.5 forward I I I I #
loop $-1 $-1 $195 $51 #
coedge $-1 $124 $124 $196 $197 reversed $77 $-1 #
face $-1 $-1 $198 $41 $-1 $199 forward single #
loop $-1 $200 $201 $79 #
cone-surface $-1 -57.657005909285324 35.073252565920868 4.2868698492504169 0.50000000669873634 0 -0.8660253999169214 0.4330126999584607 0 0.25000000334936817 1 I I -0.70710678118654746 0.70710678118654746 0.5 forward I I I I #
loop $-1 $-1 $202 $52 #
coedge $-1 $129 $129 $203 $204 reversed $80 $-1 #
face $-1 $205 $206 $42 $-1 $207 reversed single #
loop $-1 $-1 $208 $82 #
plane-surface $-1 -2.0945252323260775 10.292842304257206 126.69746944227055 0.85716730853699208 0 0.51503806187062418 0.51503806187062418 0 -0.85716730853699208 forward_v I I I I #
coedge $-1 $209 $210 $211 $212 reversed $83 $-1 #
face $-1 $-1 $213 $43 $-1 $214 forward single #
loop $-1 $215 $216 $85 #
cone-surface $-1 62.510639285069146 10.292842304257206 6.590016590683712 -0.85716730853699208 0 -0.51503806187062418 0.3862785464029681 0 -0.64287548140274409 1 I I -0.70710678118654757 0.70710678118654757 0.75 forward I I I I #
loop $-1 $-1 $217 $54 #
coedge $-1 $138 $138 $218 $219 reversed $86 $-1 #
face $-1 $220 $221 $33 $-1 $222 reversed single #
loop $-1 $-1 $223 $88 #
plane-surface $-1 0 -37.29981243164066 0 0 1 0 0 0 1 forward_v I I I I #
coedge $-1 $224 $225 $226 $227 forward $89 $-1 #
coedge $-1 $228 $91 $229 $230 forward $56 $-1 #
coedge $-1 $91 $228 $231 $232 forward $56 $-1 #
coedge $-1 $233 $234 $91 $146 reversed $235 $-1 #
edge $-1 $236 -37.29981243164066 $237 37.29981243164066 $145 $238 forward 7 unknown #
face $-1 $239 $240 $34 $-1 $241 reversed single #
loop $-1 $-1 $242 $92 #
plane-surface $-1 -139.2815952199457 0 120.67326396301389 0 -1 0 0.50000000669873634 0 -0.8660253999169214 forward_v I I I I #
coedge $-1 $243 $244 $245 $246 reversed $93 $-1 #
coedge $-1 $152 $95 $247 $248 reversed $59 $-1 #
coedge $-1 $95 $151 $243 $249 reversed $59 $-1 #
coedge $-1 $245 $250 $95 $154 forward $251 $-1 #
edge $-1 $252 4.6650532681269397e-007 $253 21.643308481293175 $153 $254 forward 7 unknown #
loop $-1 $-1 $160 $96 #
plane-surface $-1 -69.640797143467495 -5.5663996642994853 0.05186556960457267 -0.50000000669873634 0 0.8660253999169214 0.8660253999169214 0 0.50000000669873634 forward_v I I I I #
loop $-1 $-1 $255 $61 #
coedge $-1 $158 $158 $159 $256 reversed $97 $-1 #
coedge $-1 $159 $159 $158 $256 forward $99 $-1 #
coedge $-1 $160 $160 $100 $161 forward $155 $-1 #
edge $-1 $257 0 $257 6.2831853071796004 $160 $258 forward 7 unknown #
loop $-1 $-1 $167 $101 #
plane-surface $-1 -69.640797143467495 -5.5663996642994853 0.05186556960457267 -0.50000000669873634 0 0.8660253999169214 0.8660253999169214 0 0.50000000669873634 forward_v I I I I #
loop $-1 $-1 $259 $64 #
coedge $-1 $165 $165 $166 $260 reversed $102 $-1 #
coedge $-1 $166 $166 $165 $260 forward $104 $-1 #
coedge $-1 $167 $167 $105 $168 forward $162 $-1 #
edge $-1 $261 0 $261 6.2831853071796004 $167 $262 forward 7 unknown #
loop $-1 $-1 $174 $106 #
plane-surface $-1 -69.640797143467495 -5.5663996642994853 0.05186556960457267 -0.50000000669873634 0 0.8660253999169214 0.8660253999169214 0 0.50000000669873634 forward_v I I I I #
loop $-1 $-1 $263 $67 #
coedge $-1 $172 $172 $173 $264 reversed $107 $-1 #
coedge $-1 $173 $173 $172 $264 forward $109 $-1 #
coedge $-1 $174 $174 $110 $175 forward $169 $-1 #
edge $-1 $265 0 $265 6.2831853071796004 $174 $266 forward 7 unknown #
face $-1 $267 $268 $38 $-1 $269 reversed single #
loop $-1 $-1 $182 $111 #
plane-surface $-1 0 0 12.54763550131195 0 0 1 1 0 0 forward_v I I I I #
coedge $-1 $270 $271 $272 $273 reversed $112 $-1 #
coedge $-1 $181 $114 $274 $275 reversed $71 $-1 #
coedge $-1 $114 $180 $270 $276 reversed $71 $-1 #
coedge $-1 $272 $277 $114 $183 forward $177 $-1 #
edge $-1 $278 4.6650532681269397e-007 $279 21.643308481293175 $182 $280 forward 7 unknown #
loop $-1 $-1 $189 $115 #
plane-surface $-1 -69.640797143467495 31.733412767341179 0.05186556960457267 -0.50000000669873634 0 0.8660253999169214 0.8660253999169214 0 0.50000000669873634 forward_v I I I I #
loop $-1 $-1 $281 $73 #
coedge $-1 $187 $187 $188 $282 reversed $116 $-1 #
coedge $-1 $188 $188 $187 $282 forward $118 $-1 #
coedge $-1 $189 $189 $119 $190 forward $184 $-1 #
edge $-1 $283 0 $283 6.2831853071796004 $189 $284 forward 7 unknown #
loop $-1 $-1 $196 $120 #
plane-surface $-1 -69.640797143467495 31.733412767341179 0.05186556960457267 -0.50000000669873634 0 0.8660253999169214 0.8660253999169214 0 0.50000000669873634 forward_v I I I I #
loop $-1 $-1 $285 $76 #
coedge $-1 $194 $194 $195 $286 reversed $121 $-1 #
coedge $-1 $195 $195 $194 $286 forward $123 $-1 #
coedge $-1 $196 $196 $124 $197 forward $191 $-1 #
edge $-1 $287 0 $287 6.2831853071796004 $196 $288 forward 7 unknown #
loop $-1 $-1 $203 $125 #
plane-surface $-1 -69.640797143467495 31.733412767341179 0.05186556960457267 -0.50000000669873634 0 0.8660253999169214 0.8660253999169214 0 0.50000000669873634 forward_v I I I I #
loop $-1 $-1 $289 $79 #
coedge $-1 $201 $201 $202 $290 reversed $126 $-1 #
coedge $-1 $202 $202 $201 $290 forward $128 $-1 #
coedge $-1 $203 $203 $129 $204 forward $198 $-1 #
edge $-1 $291 0 $291 6.2831853071796004 $203 $292 forward 7 unknown #
face $-1 $293 $294 $42 $-1 $295 forward single #
loop $-1 $-1 $296 $130 #
plane-surface $-1 117.29310407134733 6.3636524922422488 198.43279181806417 0 1 0 0.85716730853699208 0 0.51503806187062418 forward_v I I I I #
coedge $-1 $297 $298 $299 $300 reversed $131 $-1 #
coedge $-1 $210 $133 $301 $302 reversed $83 $-1 #
coedge $-1 $133 $209 $297 $303 reversed $83 $-1 #
coedge $-1 $299 $304 $133 $212 forward $294 $-1 #
edge $-1 $305 -10.994245107793859 $306 -7.8470602522585864 $211 $307 forward 7 unknown #
loop $-1 $-1 $218 $134 #
plane-surface $-1 -2.0945252323260775 10.292842304257206 126.69746944227055 0.85716730853699208 0 0.51503806187062418 0.51503806187062418 0 -0.85716730853699208 forward_v I I I I #
loop $-1 $-1 $308 $85 #
coedge $-1 $216 $216 $217 $309 reversed $135 $-1 #
coedge $-1 $217 $217 $216 $309 forward $137 $-1 #
coedge $-1 $218 $218 $138 $219 forward $213 $-1 #
edge $-1 $310 0 $310 6.2831853071796004 $218 $311 forward 7 unknown #
face $-1 $312 $313 $33 $-1 $314 reversed single #
loop $-1 $-1 $315 $139 #
plane-surface $-1 -69.640797143467523 0 0 1 0 0 0 0 -1 forward_v I I I I #
coedge $-1 $316 $231 $317 $318 forward $140 $-1 #
coedge $-1 $319 $142 $316 $320 forward $89 $-1 #
coedge $-1 $142 $319 $321 $322 forward $89 $-1 #
coedge $-1 $234 $233 $142 $227 reversed $235 $-1 #
edge $-1 $323 -37.29981243164066 $324 37.29981243164066 $226 $325 forward 7 unknown #
coedge $-1 $144 $143 $326 $327 forward $56 $-1 #
coedge $-1 $328 $329 $143 $230 reversed $313 $-1 #
edge $-1 $237 -69.640797143467523 $330 69.640797143467523 $229 $331 forward 7 unknown #
coedge $-1 $223 $332 $144 $232 reversed $140 $-1 #
edge $-1 $333 -69.640797143467523 $236 69.640797143467523 $231 $334 forward 7 unknown #
coedge $-1 $226 $145 $332 $335 forward $235 $-1 #
coedge $-1 $145 $226 $328 $336 reversed $235 $-1 #
loop $-1 $-1 $233 $312 #
vertex $-1 $146 $337 #
vertex $-1 $146 $338 #
straight-curve $-1 69.640797143467523 0 12.54763550131195 0 1 0 I I #
face $-1 $-1 $251 $34 $-1 $339 forward single #
loop $-1 $-1 $340 $147 #
plane-surface $-1 -69.640797143467523 0 0 1 0 0 0 0 -1 forward_v I I I I #
coedge $-1 $341 $342 $343 $344 reversed $148 $-1 #
coedge $-1 $345 $150 $152 $249 forward $93 $-1 #
coedge $-1 $150 $345 $341 $346 forward $93 $-1 #
coedge $-1 $343 $153 $150 $246 forward $251 $-1 #
edge $-1 $253 -8.3495994964492279 $347 2.7831998321497426 $245 $348 forward 7 unknown #
coedge $-1 $349 $350 $151 $248 forward $240 $-1 #
edge $-1 $351 -60.284766411902389 $252 -47.788996480194996 $247 $352 forward 7 unknown #
edge $-1 $253 -24.991539528591289 $351 3.2819164427087973e-014 $152 $353 forward 7 unknown #
coedge $-1 $153 $343 $349 $354 forward $251 $-1 #
loop $-1 $-1 $343 $239 #
vertex $-1 $248 $355 #
vertex $-1 $154 $356 #
straight-curve $-1 -69.64079760997285 -11.132799328598971 12.547635501311952 1 0 0 I I #
coedge $-1 $255 $255 $-1 $357 reversed $157 $-1 #
edge $-1 $358 0 $358 6.2831853071796004 $158 $359 forward 7 unknown #
vertex $-1 $161 $360 #
ellipse-curve $-1 -58.819143136073613 -8.9062394628791779 6.2997505354582444 -0.50000000669873634 0 0.8660253999169214 0.8660253999169214 0 0.50000000669873634 1 I I #
coedge $-1 $259 $259 $-1 $361 reversed $164 $-1 #
edge $-1 $362 0 $362 6.2831853071796004 $165 $363 forward 7 unknown #
vertex $-1 $168 $364 #
ellipse-curve $-1 -58.819143136073613 -5.5663996642994888 6.2997505354582444 -0.50000000669873634 0 0.8660253999169214 0.8660253999169214 0 0.50000000669873634 1 I I #
coedge $-1 $263 $263 $-1 $365 reversed $171 $-1 #
edge $-1 $366 0 $366 6.2831853071796004 $172 $367 forward 7 unknown #
vertex $-1 $175 $368 #
ellipse-curve $-1 -58.819143136073613 -2.2265598657197998 6.2997505354582444 -0.50000000669873634 0 0.8660253999169214 0.8660253999169214 0 0.50000000669873634 1 I I #
face $-1 $-1 $369 $38 $-1 $370 reversed single #
loop $-1 $-1 $371 $176 #
plane-surface $-1 0 37.29981243164066 0 0 -1 0 0 0 -1 forward_v I I I I #
coedge $-1 $372 $179 $181 $276 forward $112 $-1 #
coedge $-1 $179 $372 $371 $373 reversed $112 $-1 #
coedge $-1 $374 $182 $179 $273 forward $177 $-1 #
edge $-1 $279 10.300306719371104 $375 21.433106047970071 $272 $376 forward 7 unknown #
coedge $-1 $377 $378 $180 $275 forward $369 $-1 #
edge $-1 $379 -60.284766411902389 $278 -47.788996480194996 $274 $380 forward 7 unknown #
edge $-1 $279 -24.991539528591289 $379 3.2819164427087973e-014 $181 $381 forward 7 unknown #
coedge $-1 $182 $374 $377 $382 forward $177 $-1 #
vertex $-1 $275 $383 #
vertex $-1 $183 $384 #
straight-curve $-1 -69.64079760997285 26.167013103041693 12.547635501311952 1 0 0 I I #
coedge $-1 $281 $281 $-1 $385 reversed $186 $-1 #
edge $-1 $386 0 $386 6.2831853071796004 $187 $387 forward 7 unknown #
vertex $-1 $190 $388 #
ellipse-curve $-1 -58.819143136073613 28.39357296876149 6.2997505354582444 -0.50000000669873634 0 0.8660253999169214 0.8660253999169214 0 0.50000000669873634 1 I I #
coedge $-1 $285 $285 $-1 $389 reversed $193 $-1 #
edge $-1 $390 0 $390 6.2831853071796004 $194 $391 forward 7 unknown #
vertex $-1 $197 $392 #
ellipse-curve $-1 -58.819143136073613 31.733412767341164 6.2997505354582444 -0.50000000669873634 0 0.8660253999169214 0.8660253999169214 0 0.50000000669873634 1 I I #
coedge $-1 $289 $289 $-1 $393 reversed $200 $-1 #
edge $-1 $394 0 $394 6.2831853071796004 $201 $395 forward 7 unknown #
vertex $-1 $204 $396 #
ellipse-curve $-1 -58.819143136073613 35.073252565920868 6.2997505354582444 -0.50000000669873634 0 0.8660253999169214 0.8660253999169214 0 0.50000000669873634 1 I I #
face $-1 $-1 $397 $42 $-1 $398 reversed single #
loop $-1 $-1 $211 $205 #
plane-surface $-1 0 0 12.54763550131195 0 0 1 1 0 0 forward_v I I I I #
coedge $-1 $399 $400 $401 $402 reversed $206 $-1 #
coedge $-1 $403 $208 $210 $303 forward $131 $-1 #
coedge $-1 $208 $403 $399 $404 forward $131 $-1 #
coedge $-1 $401 $211 $208 $300 forward $294 $-1 #
edge $-1 $306 -9.0756109641435607 $405 -1.2172313401136456 $299 $406 forward 7 unknown #
coedge $-1 $407 $408 $209 $302 forward $397 $-1 #
edge $-1 $409 -91.906555770434892 $305 -86.668760407720143 $301 $410 forward 7 unknown #
edge $-1 $306 133.17100734486581 $409 139.28159428693502 $210 $411 forward 7 unknown #
coedge $-1 $211 $401 $407 $412 forward $294 $-1 #
vertex $-1 $302 $413 #
vertex $-1 $212 $414 #
straight-curve $-1 58.646552035673665 14.222032116272164 12.547635501311944 -1 0 0 I I #
coedge $-1 $308 $308 $-1 $415 reversed $215 $-1 #
edge $-1 $416 0 $416 6.2831853071796004 $216 $417 forward 7 unknown #
vertex $-1 $219 $418 #
ellipse-curve $-1 68.067204715699901 10.292842304257206 9.9287378199545202 0.85716730853699208 0 0.51503806187062418 0.77255709280593621 0 -1.2857509628054882 1 I I #
face $-1 $-1 $235 $33 $-1 $419 reversed single #
loop $-1 $-1 $328 $220 #
plane-surface $-1 0 37.29981243164066 0 0 -1 0 0 0 -1 forward_v I I I I #
coedge $-1 $420 $326 $329 $421 forward $221 $-1 #
coedge $-1 $332 $223 $224 $320 reversed $140 $-1 #
coedge $-1 $326 $420 $223 $318 reversed $221 $-1 #
edge $-1 $333 -12.54763550131195 $422 12.54763550131195 $317 $423 forward 7 unknown #
coedge $-1 $225 $224 $420 $424 forward $89 $-1 #
edge $-1 $324 -69.640797143467523 $422 69.640797143467523 $316 $425 forward 7 unknown #
coedge $-1 $329 $328 $225 $322 reversed $313 $-1 #
edge $-1 $426 -69.640797143467523 $323 69.640797143467523 $321 $427 forward 7 unknown #
vertex $-1 $227 $428 #
vertex $-1 $335 $429 #
straight-curve $-1 69.640797143467523 0 -12.54763550131195 0 -1 0 I I #
coedge $-1 $315 $317 $228 $327 reversed $221 $-1 #
edge $-1 $330 -37.29981243164066 $333 37.29981243164066 $326 $430 forward 7 unknown #
coedge $-1 $321 $229 $234 $336 forward $313 $-1 #
coedge $-1 $229 $321 $315 $421 reversed $313 $-1 #
vertex $-1 $230 $431 #
straight-curve $-1 0 37.29981243164066 12.54763550131195 -1 0 0 I I #
coedge $-1 $231 $316 $233 $335 reversed $140 $-1 #
vertex $-1 $327 $432 #
straight-curve $-1 0 -37.29981243164066 12.54763550131195 1 0 0 I I #
edge $-1 $236 -12.54763550131195 $324 12.54763550131195 $233 $433 forward 7 unknown #
edge $-1 $237 -12.54763550131195 $323 12.54763550131195 $234 $434 forward 7 unknown #
point $-1 69.640797143467523 -37.29981243164066 12.54763550131195 #
point $-1 69.640797143467523 37.29981243164066 12.54763550131195 #
plane-surface $-1 0 0 12.54763550131195 0 0 1 1 0 0 forward_v I I I I #
coedge $-1 $350 $349 $342 $435 forward $240 $-1 #
coedge $-1 $342 $242 $244 $346 reversed $148 $-1 #
coedge $-1 $242 $341 $340 $435 reversed $148 $-1 #
coedge $-1 $250 $245 $242 $344 forward $251 $-1 #
edge $-1 $347 -21.643308481293175 $436 -4.6650532681269397e-007 $343 $437 forward 7 unknown #
coedge $-1 $244 $243 $350 $438 reversed $93 $-1 #
edge $-1 $439 -3.2819164427087973e-014 $347 24.991539528591289 $341 $440 forward 7 unknown #
vertex $-1 $246 $441 #
straight-curve $-1 -47.997489128679682 -2.7831998321497426 12.54763550131195 0 1 0 I I #
coedge $-1 $340 $247 $250 $354 reversed $240 $-1 #
coedge $-1 $247 $340 $345 $438 forward $240 $-1 #
vertex $-1 $248 $442 #
straight-curve $-1 -69.640797143467523 -11.132799328598971 60.336631981506947 0 0 1 I I #
straight-curve $-1 -69.640797143467495 -11.132799328598971 0.05186556960457267 -0.8660253999169214 0 -0.50000000669873634 I I #
edge $-1 $436 0 $252 11.132799328598971 $349 $443 forward 7 unknown #
point $-1 -69.640797143467523 -11.132799328598971 12.54763550131195 #
point $-1 -47.997489128679675 -11.132799328598971 12.54763550131195 #
edge $-1 $444 1 $444 0 $255 $-1 forward 7 unknown #
vertex $-1 $256 $445 #
ellipse-curve $-1 -57.907005912634695 -8.9062394628791779 4.7198825492088776 -0.50000000669873634 0 0.8660253999169214 0.8660253999169214 0 0.50000000669873634 1 I I #
point $-1 -57.953117736156706 -8.9062394628791779 6.7997505421570068 #
edge $-1 $446 1 $446 0 $259 $-1 forward 7 unknown #
vertex $-1 $260 $447 #
ellipse-curve $-1 -57.907005912634695 -5.5663996642994888 4.7198825492088776 -0.50000000669873634 0 0.8660253999169214 0.8660253999169214 0 0.50000000669873634 1 I I #
point $-1 -57.953117736156706 -5.5663996642994888 6.7997505421570068 #
edge $-1 $448 1 $448 0 $263 $-1 forward 7 unknown #
vertex $-1 $264 $449 #
ellipse-curve $-1 -57.907005912634695 -2.2265598657197998 4.7198825492088776 -0.50000000669873634 0 0.8660253999169214 0.8660253999169214 0 0.50000000669873634 1 I I #
point $-1 -57.953117736156706 -2.2265598657197998 6.7997505421570068 #
loop $-1 $-1 $274 $267 #
plane-surface $-1 -69.640797143467523 0 0 1 0 0 0 0 -1 forward_v I I I I #
coedge $-1 $450 $451 $271 $373 forward $268 $-1 #
coedge $-1 $271 $270 $378 $452 reversed $112 $-1 #
edge $-1 $375 5.1508436771861694 $453 30.142383205777492 $371 $454 forward 7 unknown #
coedge $-1 $277 $272 $451 $455 forward $177 $-1 #
vertex $-1 $455 $456 #
straight-curve $-1 -47.997489128679682 15.866706383670589 12.54763550131195 0 1 0 I I #
coedge $-1 $457 $274 $277 $382 reversed $369 $-1 #
coedge $-1 $274 $457 $372 $452 forward $369 $-1 #
vertex $-1 $275 $458 #
straight-curve $-1 -69.640797143467523 26.167013103041693 60.336631981506947 0 0 1 I I #
straight-curve $-1 -69.640797143467495 26.167013103041693 0.05186556960457267 -0.8660253999169214 0 -0.50000000669873634 I I #
edge $-1 $459 -37.29981243164066 $278 -26.167013103041693 $377 $460 forward 7 unknown #
point $-1 -69.640797143467523 26.167013103041693 12.54763550131195 #
point $-1 -47.997489128679675 26.167013103041693 12.54763550131195 #
edge $-1 $461 1 $461 0 $281 $-1 forward 7 unknown #
vertex $-1 $282 $462 #
ellipse-curve $-1 -57.907005912634695 28.39357296876149 4.7198825492088776 -0.50000000669873634 0 0.8660253999169214 0.8660253999169214 0 0.50000000669873634 1 I I #
point $-1 -57.953117736156706 28.39357296876149 6.7997505421570068 #
edge $-1 $463 1 $463 0 $285 $-1 forward 7 unknown #
vertex $-1 $286 $464 #
ellipse-curve $-1 -57.907005912634695 31.733412767341164 4.7198825492088776 -0.50000000669873634 0 0.8660253999169214 0.8660253999169214 0 0.50000000669873634 1 I I #
point $-1 -57.953117736156706 31.733412767341164 6.7997505421570068 #
edge $-1 $465 1 $465 0 $289 $-1 forward 7 unknown #
vertex $-1 $290 $466 #
ellipse-curve $-1 -57.907005912634695 35.073252565920868 4.7198825492088776 -0.50000000669873634 0 0.8660253999169214 0.8660253999169214 0 0.50000000669873634 1 I I #
point $-1 -57.953117736156706 35.073252565920868 6.7997505421570068 #
loop $-1 $-1 $301 $293 #
plane-surface $-1 69.640797143467523 0 0 -1 0 0 0 0 1 forward_v I I I I #
coedge $-1 $400 $296 $298 $404 reversed $206 $-1 #
coedge $-1 $296 $399 $467 $468 reversed $206 $-1 #
coedge $-1 $304 $299 $296 $402 forward $294 $-1 #
edge $-1 $405 7.8470602522585864 $469 10.994245107793859 $401 $470 forward 7 unknown #
coedge $-1 $298 $297 $408 $471 reversed $131 $-1 #
edge $-1 $472 -139.28159428693502 $405 -133.17100734486581 $399 $473 forward 7 unknown #
vertex $-1 $300 $474 #
straight-curve $-1 66.493612287932251 5.1464211521286032 12.547635501311944 0 -1 0 I I #
coedge $-1 $467 $301 $304 $412 reversed $397 $-1 #
coedge $-1 $301 $467 $403 $471 forward $397 $-1 #
vertex $-1 $302 $475 #
straight-curve $-1 69.640797143467523 14.222032116272164 99.216395909032087 0 0 1 I I #
straight-curve $-1 -2.0945252323260775 14.222032116272164 126.69746944227055 0.51503806187062418 0 -0.85716730853699208 I I #
edge $-1 $469 6.3636524922422488 $305 14.222032116272164 $407 $476 forward 7 unknown #
point $-1 69.640797143467523 14.222032116272164 12.54763550131195 #
point $-1 66.493612287932251 14.222032116272164 12.547635501311944 #
edge $-1 $477 1 $477 0 $308 $-1 forward 7 unknown #
vertex $-1 $309 $478 #
ellipse-curve $-1 63.153514766471893 10.292842304257206 6.9762951370866801 0.85716730853699208 0 0.51503806187062418 0.77255709280593621 0 -1.2857509628054882 1 I I #
point $-1 68.839761808505841 10.292842304257206 8.6429868571490331 #
plane-surface $-1 69.640797143467523 0 0 -1 0 0 0 0 1 forward_v I I I I #
coedge $-1 $317 $315 $319 $424 reversed $221 $-1 #
edge $-1 $330 -12.54763550131195 $426 12.54763550131195 $329 $479 forward 7 unknown #
vertex $-1 $424 $480 #
straight-curve $-1 -69.640797143467523 -37.29981243164066 0 0 0 -1 I I #
edge $-1 $422 -37.29981243164066 $426 37.29981243164066 $420 $481 forward 7 unknown #
straight-curve $-1 0 -37.29981243164066 -12.54763550131195 -1 0 0 I I #
vertex $-1 $322 $482 #
straight-curve $-1 0 37.29981243164066 -12.54763550131195 1 0 0 I I #
point $-1 69.640797143467523 37.29981243164066 -12.54763550131195 #
point $-1 69.640797143467523 -37.29981243164066 -12.54763550131195 #
straight-curve $-1 -69.640797143467523 0 12.54763550131195 0 -1 0 I I #
point $-1 -69.640797143467523 37.29981243164066 12.54763550131195 #
point $-1 -69.640797143467523 -37.29981243164066 12.54763550131195 #
straight-curve $-1 69.640797143467523 -37.29981243164066 0 0 0 -1 I I #
straight-curve $-1 69.640797143467523 37.29981243164066 0 0 0 -1 I I #
edge $-1 $436 47.788996480194996 $439 60.284766411902389 $340 $483 forward 7 unknown #
vertex $-1 $354 $484 #
straight-curve $-1 -69.64079760997285 0 12.547635501311952 -1 0 0 I I #
edge $-1 $439 -2.7831998321497426 $351 8.3495994964492279 $350 $485 forward 7 unknown #
vertex $-1 $438 $486 #
straight-curve $-1 -69.640797143467495 0 0.05186556960457267 0.8660253999169214 0 0.50000000669873634 I I #
point $-1 -47.997489128679675 0 12.54763550131195 #
point $-1 -69.640797143467523 -11.132799328598971 0.051865569604556259 #
straight-curve $-1 -69.640797143467523 0 12.54763550131195 0 -1 0 I I #
vertex $-1 $357 $487 #
point $-1 -57.040980512717773 -8.9062394628791779 5.2198825559076143 #
vertex $-1 $361 $488 #
point $-1 -57.040980512717773 -5.5663996642994888 5.2198825559076143 #
vertex $-1 $365 $489 #
point $-1 -57.040980512717773 -2.2265598657197998 5.2198825559076143 #
coedge $-1 $451 $371 $457 $490 reversed $268 $-1 #
coedge $-1 $371 $450 $374 $455 reversed $268 $-1 #
edge $-1 $453 -21.433106047970071 $379 -10.300306719371104 $378 $491 forward 7 unknown #
vertex $-1 $373 $492 #
straight-curve $-1 -43.536727673234978 37.29981243164066 15.12305737440918 -0.8660253999169214 0 -0.50000000669873634 I I #
edge $-1 $375 47.997489128679675 $459 69.640797143467523 $451 $493 forward 7 unknown #
point $-1 -47.997489128679675 37.29981243164066 12.54763550131195 #
coedge $-1 $378 $377 $450 $490 forward $369 $-1 #
point $-1 -69.640797143467523 26.167013103041693 0.051865569604556259 #
vertex $-1 $455 $494 #
straight-curve $-1 -69.640797143467523 0 12.54763550131195 0 -1 0 I I #
vertex $-1 $385 $495 #
point $-1 -57.040980512717773 28.39357296876149 5.2198825559076143 #
vertex $-1 $389 $496 #
point $-1 -57.040980512717773 31.733412767341164 5.2198825559076143 #
vertex $-1 $393 $497 #
point $-1 -57.040980512717773 35.073252565920868 5.2198825559076143 #
coedge $-1 $408 $407 $400 $468 forward $397 $-1 #
edge $-1 $469 86.668760407720143 $472 91.906555770434892 $467 $498 forward 7 unknown #
vertex $-1 $412 $499 #
straight-curve $-1 58.646552035673665 6.3636524922422488 12.547635501311944 1 0 0 I I #
edge $-1 $472 1.2172313401136456 $409 9.0756109641435607 $408 $500 forward 7 unknown #
vertex $-1 $471 $501 #
straight-curve $-1 -2.0945252323260775 6.3636524922422488 126.69746944227055 -0.51503806187062418 0 0.85716730853699208 I I #
point $-1 66.493612287932251 6.3636524922422488 12.547635501311944 #
point $-1 69.640797143467523 14.222032116272164 7.3098401385971954 #
straight-curve $-1 69.640797143467523 0 12.54763550131195 0 1 0 I I #
vertex $-1 $415 $502 #
point $-1 63.926071859277826 10.292842304257206 5.6905441742811922 #
straight-curve $-1 -69.640797143467523 37.29981243164066 0 0 0 -1 I I #
point $-1 -69.640797143467523 -37.29981243164066 -12.54763550131195 #
straight-curve $-1 -69.640797143467523 0 -12.54763550131195 0 1 0 I I #
point $-1 -69.640797143467523 37.29981243164066 -12.54763550131195 #
straight-curve $-1 -69.640797143467523 0 60.336631981506947 0 0 -1 I I #
point $-1 -69.640797143467523 0 12.54763550131195 #
straight-curve $-1 -69.640797143467523 -2.7831998321497426 0.051865569604556364 0 -1 0 I I #
point $-1 -69.640797143467523 0 0.051865569604556259 #
point $-1 -57.407005905935954 -8.9062394628791779 3.8538571492919562 #
point $-1 -57.407005905935954 -5.5663996642994888 3.8538571492919562 #
point $-1 -57.407005905935954 -2.2265598657197998 3.8538571492919562 #
edge $-1 $459 -12.54763550131195 $453 -0.051865569604556259 $450 $503 forward 7 unknown #
straight-curve $-1 -69.640797143467523 15.866706383670589 0.051865569604556364 0 -1 0 I I #
point $-1 -69.640797143467523 37.29981243164066 0.051865569604556259 #
straight-curve $-1 0 37.29981243164066 12.54763550131195 -1 0 0 I I #
point $-1 -69.640797143467523 37.29981243164066 12.54763550131195 #
point $-1 -57.407005905935954 28.39357296876149 3.8538571492919562 #
point $-1 -57.407005905935954 31.733412767341164 3.8538571492919562 #
point $-1 -57.407005905935954 35.073252565920868 3.8538571492919562 #
straight-curve $-1 69.640797143467523 6.3636524922422488 99.216395909032087 0 0 -1 I I #
point $-1 69.640797143467523 6.3636524922422488 12.54763550131195 #
straight-curve $-1 69.640797143467523 5.1464211521286032 7.3098401385971812 0 1 0 I I #
point $-1 69.640797143467523 6.3636524922422488 7.3098401385971954 #
point $-1 61.867763803666399 10.292842304257206 6.2037380442807439 #
straight-curve $-1 -69.640797143467523 37.29981243164066 0 0 0 -1 I I #
End-of-ACIS-data 