500 0 5 0           
7 Unknown 11 ACIS 5.0 NT 24 Thu Mar 25 22:49:10 1999 
-1 9.9999999999999995e-007 1e-010 
body $-1 $5 $-1 $6 #
body $-1 $7 $-1 $8 #
body $-1 $9 $-1 $10 #
body $-1 $11 $-1 $12 #
body $-1 $13 $-1 $14 #
lump $-1 $-1 $15 $0 #
transform $-1 1 0 0 0 1 0 0 0 1 48.733176671651357 33.73040193867967 16.452307991111603 1 rotate no_reflect no_shear #
lump $-1 $-1 $16 $1 #
transform $-1 1 0 0 0 1 0 0 0 1 48.733176671651357 33.73040193867967 16.452307991111603 1 rotate no_reflect no_shear #
lump $-1 $-1 $17 $2 #
transform $-1 1 0 0 0 1 0 0 0 1 48.733176671651357 33.73040193867967 16.452307991111603 1 rotate no_reflect no_shear #
lump $-1 $-1 $18 $3 #
transform $-1 1 0 0 0 1 0 0 0 1 48.733176671651357 33.73040193867967 16.452307991111603 1 rotate no_reflect no_shear #
lump $-1 $-1 $19 $4 #
transform $-1 1 0 0 0 1 0 0 0 1 48.733176671651357 33.73040193867967 16.452307991111603 1 rotate no_reflect no_shear #
shell $-1 $-1 $-1 $20 $-1 $5 #
shell $-1 $-1 $-1 $21 $-1 $7 #
shell $-1 $-1 $-1 $22 $-1 $9 #
shell $-1 $-1 $-1 $23 $-1 $11 #
shell $-1 $-1 $-1 $24 $-1 $13 #
face $-1 $25 $26 $15 $-1 $27 forward single #
face $-1 $28 $29 $16 $-1 $30 reversed single #
face $-1 $31 $32 $17 $-1 $33 forward single #
face $-1 $34 $35 $18 $-1 $36 reversed single #
face $-1 $37 $38 $19 $-1 $39 forward single #
face $-1 $40 $41 $15 $-1 $42 reversed single #
loop $-1 $-1 $43 $20 #
plane-surface $-1 0 0 16.452307991111603 0 0 1 1 0 0 forward_v I I I I #
face $-1 $44 $45 $16 $-1 $46 reversed single #
loop $-1 $-1 $47 $21 #
plane-surface $-1 -117.65229685786247 -26.68660422581987 72.478538438705527 0 1 0 -0.70710678939079041 0 0.70710677298230451 forward_v I I I I #
face $-1 $48 $49 $17 $-1 $50 forward single #
loop $-1 $51 $52 $22 #
cone-surface $-1 -41.225684130270068 -17.564973786083719 8.9448153247616577 0.70710678939079041 0 -0.70710677298230451 2.1213203189469136 0 2.1213203681723711 1 I I 0 1 3 forward I I I I #
face $-1 $53 $54 $18 $-1 $55 reversed single #
loop $-1 $-1 $56 $23 #
plane-surface $-1 48.733178270926651 -8.443343346347568 141.39765862491663 0 -1 0 -0.70710678939079041 0 -0.70710677298230451 forward_v I I I I #
face $-1 $57 $58 $19 $-1 $59 forward single #
loop $-1 $60 $61 $24 #
cone-surface $-1 41.225684130270075 -17.564973786083719 8.9448153247616577 -0.70710678939079041 0 -0.70710677298230451 2.1213203189469136 0 -2.1213203681723711 1 I I 0 1 3 forward I I I I #
face $-1 $62 $63 $15 $-1 $64 reversed single #
loop $-1 $-1 $65 $25 #
plane-surface $-1 0 0 -16.452307991111603 0 0 1 1 0 0 forward_v I I I I #
coedge $-1 $66 $67 $68 $69 forward $26 $-1 #
face $-1 $70 $71 $16 $-1 $72 reversed single #
loop $-1 $-1 $73 $28 #
plane-surface $-1 -48.73317667165135 -17.564973786083719 3.5594198517697038 -0.70710678939079041 0 0.70710677298230451 0.70710677298230451 0 0.70710678939079041 forward_v I I I I #
coedge $-1 $74 $75 $76 $77 reversed $29 $-1 #
face $-1 $-1 $78 $17 $-1 $79 forward single #
loop $-1 $80 $81 $31 #
cone-surface $-1 -39.103975324883152 -17.564973786083719 6.8231065686092123 0.70710678939079041 0 -0.70710677298230451 1.0606601594734568 0 1.0606601840861856 1 I I -0.70710678118654757 0.70710678118654757 1.5 forward I I I I #
loop $-1 $-1 $82 $22 #
coedge $-1 $52 $52 $83 $84 reversed $32 $-1 #
face $-1 $85 $86 $18 $-1 $87 reversed single #
loop $-1 $-1 $88 $34 #
plane-surface $-1 -20.185941915284467 -17.564973786083719 72.478540037980807 0.70710678939079041 0 0.70710677298230451 0.70710677298230451 0 -0.70710678939079041 forward_v I I I I #
coedge $-1 $89 $90 $91 $92 reversed $35 $-1 #
face $-1 $-1 $93 $19 $-1 $94 forward single #
loop $-1 $95 $96 $37 #
cone-surface $-1 39.103975324883159 -17.564973786083719 6.8231065686092123 -0.70710678939079041 0 -0.70710677298230451 1.0606601594734568 0 -1.0606601840861856 1 I I -0.70710678118654757 0.70710678118654757 1.5 forward I I I I #
loop $-1 $-1 $97 $24 #
coedge $-1 $61 $61 $98 $99 reversed $38 $-1 #
face $-1 $100 $101 $15 $-1 $102 reversed single #
loop $-1 $-1 $103 $40 #
plane-surface $-1 0 -33.73040193867967 0 0 1 0 0 0 1 forward_v I I I I #
coedge $-1 $104 $105 $106 $107 forward $41 $-1 #
coedge $-1 $108 $43 $109 $110 forward $26 $-1 #
coedge $-1 $43 $108 $111 $112 forward $26 $-1 #
coedge $-1 $113 $114 $43 $69 reversed $115 $-1 #
edge $-1 $116 -33.73040193867967 $117 33.73040193867967 $68 $118 forward 7 unknown #
face $-1 $119 $120 $16 $-1 $121 reversed single #
loop $-1 $-1 $122 $44 #
plane-surface $-1 -117.65229685786247 -8.443343346347568 72.478538438705527 0 -1 0 0.70710678939079041 0 -0.70710677298230451 forward_v I I I I #
coedge $-1 $123 $124 $125 $126 reversed $45 $-1 #
coedge $-1 $75 $47 $127 $128 reversed $29 $-1 #
coedge $-1 $47 $74 $123 $129 reversed $29 $-1 #
coedge $-1 $125 $130 $47 $77 forward $131 $-1 #
edge $-1 $132 10.092971757279876 $133 22.985859597440985 $76 $134 forward 7 unknown #
loop $-1 $-1 $83 $48 #
plane-surface $-1 -48.73317667165135 -17.564973786083719 3.5594198517697038 -0.70710678939079041 0 0.70710677298230451 0.70710677298230451 0 0.70710678939079041 forward_v I I I I #
loop $-1 $-1 $135 $31 #
coedge $-1 $81 $81 $82 $136 reversed $49 $-1 #
coedge $-1 $82 $82 $81 $136 forward $51 $-1 #
coedge $-1 $83 $83 $52 $84 forward $78 $-1 #
edge $-1 $137 0 $137 6.2831853071796004 $83 $138 forward 7 unknown #
face $-1 $139 $140 $18 $-1 $141 forward single #
loop $-1 $-1 $142 $53 #
plane-surface $-1 48.733178270926651 -26.68660422581987 141.39765862491663 0 1 0 0.70710678939079041 0 0.70710677298230451 forward_v I I I I #
coedge $-1 $143 $144 $145 $146 reversed $54 $-1 #
coedge $-1 $90 $56 $147 $148 reversed $35 $-1 #
coedge $-1 $56 $89 $143 $149 reversed $35 $-1 #
coedge $-1 $145 $150 $56 $92 forward $140 $-1 #
edge $-1 $151 -24.366587536188032 $152 -11.47369969602693 $91 $153 forward 7 unknown #
loop $-1 $-1 $98 $57 #
plane-surface $-1 -20.185941915284467 -17.564973786083719 72.478540037980807 0.70710678939079041 0 0.70710677298230451 0.70710677298230451 0 -0.70710678939079041 forward_v I I I I #
loop $-1 $-1 $154 $37 #
coedge $-1 $96 $96 $97 $155 reversed $58 $-1 #
coedge $-1 $97 $97 $96 $155 forward $60 $-1 #
coedge $-1 $98 $98 $61 $99 forward $93 $-1 #
edge $-1 $156 0 $156 6.2831853071796004 $98 $157 forward 7 unknown #
face $-1 $158 $159 $15 $-1 $160 reversed single #
loop $-1 $-1 $161 $62 #
plane-surface $-1 -48.733176671651357 0 0 1 0 0 0 0 -1 forward_v I I I I #
coedge $-1 $162 $111 $163 $164 forward $63 $-1 #
coedge $-1 $165 $65 $162 $166 forward $41 $-1 #
coedge $-1 $65 $165 $167 $168 forward $41 $-1 #
coedge $-1 $114 $113 $65 $107 reversed $115 $-1 #
edge $-1 $169 -33.73040193867967 $170 33.73040193867967 $106 $171 forward 7 unknown #
coedge $-1 $67 $66 $172 $173 forward $26 $-1 #
coedge $-1 $174 $175 $66 $110 reversed $159 $-1 #
edge $-1 $117 -48.733176671651357 $176 48.733176671651357 $109 $177 forward 7 unknown #
coedge $-1 $103 $178 $67 $112 reversed $63 $-1 #
edge $-1 $179 -48.733176671651357 $116 48.733176671651357 $111 $180 forward 7 unknown #
coedge $-1 $106 $68 $178 $181 forward $115 $-1 #
coedge $-1 $68 $106 $174 $182 reversed $115 $-1 #
loop $-1 $-1 $113 $158 #
vertex $-1 $69 $183 #
vertex $-1 $69 $184 #
straight-curve $-1 48.733176671651357 0 16.452307991111603 0 1 0 I I #
face $-1 $-1 $131 $16 $-1 $185 forward single #
loop $-1 $-1 $186 $70 #
plane-surface $-1 -48.733176671651357 0 0 1 0 0 0 0 -1 forward_v I I I I #
coedge $-1 $187 $188 $189 $190 reversed $71 $-1 #
coedge $-1 $191 $73 $75 $129 forward $45 $-1 #
coedge $-1 $73 $191 $187 $192 forward $45 $-1 #
coedge $-1 $189 $76 $73 $126 forward $131 $-1 #
edge $-1 $133 -17.904117332778011 $193 0.33914354669429159 $125 $194 forward 7 unknown #
coedge $-1 $195 $196 $74 $128 forward $120 $-1 #
edge $-1 $197 -32.679849367583067 $132 -19.786961228241161 $127 $198 forward 7 unknown #
edge $-1 $133 -18.233297053263769 $197 1.0048591735576163e-014 $75 $199 forward 7 unknown #
coedge $-1 $76 $189 $195 $200 forward $131 $-1 #
loop $-1 $-1 $189 $119 #
vertex $-1 $128 $201 #
vertex $-1 $77 $202 #
straight-curve $-1 -58.826148428931234 -26.68660422581987 16.452307991111603 1 0 0 I I #
coedge $-1 $135 $135 $-1 $203 reversed $80 $-1 #
edge $-1 $204 0 $204 6.2831853071796004 $81 $205 forward 7 unknown #
vertex $-1 $84 $206 #
ellipse-curve $-1 -42.286732751570803 -17.564973786083719 10.00586392144065 -0.70710678939079041 0 0.70710677298230451 2.1213203189469136 0 2.1213203681723711 1 I I #
face $-1 $-1 $207 $18 $-1 $208 reversed single #
loop $-1 $-1 $91 $85 #
plane-surface $-1 0 0 16.452307991111603 0 0 1 1 0 0 forward_v I I I I #
coedge $-1 $209 $210 $211 $212 reversed $86 $-1 #
coedge $-1 $213 $88 $90 $149 forward $54 $-1 #
coedge $-1 $88 $213 $209 $214 forward $54 $-1 #
coedge $-1 $211 $91 $88 $146 forward $140 $-1 #
edge $-1 $152 -0.33914354669429159 $215 17.904117332778011 $145 $216 forward 7 unknown #
coedge $-1 $217 $218 $89 $148 forward $207 $-1 #
edge $-1 $219 -67.139409460688611 $151 -54.246521321346712 $147 $220 forward 7 unknown #
edge $-1 $152 79.233056290038959 $219 97.466353343302742 $90 $221 forward 7 unknown #
coedge $-1 $91 $211 $217 $222 forward $140 $-1 #
vertex $-1 $148 $223 #
vertex $-1 $92 $224 #
straight-curve $-1 24.366589135463325 -8.443343346347568 16.452307991111603 -1 0 0 I I #
coedge $-1 $154 $154 $-1 $225 reversed $95 $-1 #
edge $-1 $226 0 $226 6.2831853071796004 $96 $227 forward 7 unknown #
vertex $-1 $99 $228 #
ellipse-curve $-1 42.28673275157081 -17.564973786083719 10.005863921440652 0.70710678939079041 0 0.70710677298230451 2.1213203189469136 0 -2.1213203681723711 1 I I #
face $-1 $-1 $115 $15 $-1 $229 reversed single #
loop $-1 $-1 $174 $100 #
plane-surface $-1 0 33.73040193867967 0 0 -1 0 0 0 -1 forward_v I I I I #
coedge $-1 $230 $172 $175 $231 forward $101 $-1 #
coedge $-1 $178 $103 $104 $166 reversed $63 $-1 #
coedge $-1 $172 $230 $103 $164 reversed $101 $-1 #
edge $-1 $179 -16.452307991111603 $232 16.452307991111603 $163 $233 forward 7 unknown #
coedge $-1 $105 $104 $230 $234 forward $41 $-1 #
edge $-1 $170 -48.733176671651357 $232 48.733176671651357 $162 $235 forward 7 unknown #
coedge $-1 $175 $174 $105 $168 reversed $159 $-1 #
edge $-1 $236 -48.733176671651357 $169 48.733176671651357 $167 $237 forward 7 unknown #
vertex $-1 $107 $238 #
vertex $-1 $181 $239 #
straight-curve $-1 48.733176671651357 0 -16.452307991111603 0 -1 0 I I #
coedge $-1 $161 $163 $108 $173 reversed $101 $-1 #
edge $-1 $176 -33.73040193867967 $179 33.73040193867967 $172 $240 forward 7 unknown #
coedge $-1 $167 $109 $114 $182 forward $159 $-1 #
coedge $-1 $109 $167 $161 $231 reversed $159 $-1 #
vertex $-1 $110 $241 #
straight-curve $-1 0 33.73040193867967 16.452307991111603 -1 0 0 I I #
coedge $-1 $111 $162 $113 $181 reversed $63 $-1 #
vertex $-1 $173 $242 #
straight-curve $-1 0 -33.73040193867967 16.452307991111603 1 0 0 I I #
edge $-1 $116 -16.452307991111603 $170 16.452307991111603 $113 $243 forward 7 unknown #
edge $-1 $117 -16.452307991111603 $169 16.452307991111603 $114 $244 forward 7 unknown #
point $-1 48.733176671651357 -33.73040193867967 16.452307991111603 #
point $-1 48.733176671651357 33.73040193867967 16.452307991111603 #
plane-surface $-1 0 0 16.452307991111603 0 0 1 1 0 0 forward_v I I I I #
coedge $-1 $196 $195 $188 $245 forward $120 $-1 #
coedge $-1 $188 $122 $124 $192 reversed $71 $-1 #
coedge $-1 $122 $187 $186 $245 reversed $71 $-1 #
coedge $-1 $130 $125 $122 $190 forward $131 $-1 #
edge $-1 $193 -22.985859597440985 $246 -10.092971757279876 $189 $247 forward 7 unknown #
coedge $-1 $124 $123 $196 $248 reversed $45 $-1 #
edge $-1 $249 -1.0048591735576163e-014 $193 18.233297053263769 $187 $250 forward 7 unknown #
vertex $-1 $126 $251 #
straight-curve $-1 -35.840288831490248 -8.7824868930418596 16.452307991111603 0 1 0 I I #
coedge $-1 $186 $127 $130 $200 reversed $120 $-1 #
coedge $-1 $127 $186 $191 $248 forward $120 $-1 #
vertex $-1 $128 $252 #
straight-curve $-1 -48.733176671651357 -26.68660422581987 36.239269219352764 0 0 1 I I #
straight-curve $-1 -48.73317667165135 -26.68660422581987 3.5594198517697038 -0.70710677298230451 0 -0.70710678939079041 I I #
edge $-1 $246 8.443343346347568 $132 26.68660422581987 $195 $253 forward 7 unknown #
point $-1 -48.733176671651357 -26.68660422581987 16.452307991111603 #
point $-1 -35.840288831490248 -26.68660422581987 16.452307991111603 #
edge $-1 $254 1 $254 0 $135 $-1 forward 7 unknown #
vertex $-1 $136 $255 #
ellipse-curve $-1 -40.16463550896934 -17.564973786083719 7.8837667280826693 -0.70710678939079041 0 0.70710677298230451 2.1213203189469136 0 2.1213203681723711 1 I I #
point $-1 -40.165412432623889 -17.564973786083719 12.12718428961302 #
loop $-1 $-1 $147 $139 #
plane-surface $-1 48.733176671651357 0 0 -1 0 0 0 0 1 forward_v I I I I #
coedge $-1 $210 $142 $144 $214 reversed $86 $-1 #
coedge $-1 $142 $209 $256 $257 reversed $86 $-1 #
coedge $-1 $150 $145 $142 $212 forward $140 $-1 #
edge $-1 $215 11.47369969602693 $258 24.366587536188032 $211 $259 forward 7 unknown #
coedge $-1 $144 $143 $218 $260 reversed $54 $-1 #
edge $-1 $261 -97.466353343302742 $215 -79.233056290038959 $209 $262 forward 7 unknown #
vertex $-1 $146 $263 #
straight-curve $-1 35.840288831490241 -8.7824868930418596 16.452307991111603 0 -1 0 I I #
coedge $-1 $256 $147 $150 $222 reversed $207 $-1 #
coedge $-1 $147 $256 $213 $260 forward $207 $-1 #
vertex $-1 $148 $264 #
straight-curve $-1 48.733176671651357 -8.443343346347568 70.698829312458315 0 0 1 I I #
straight-curve $-1 -20.185941915284467 -8.443343346347568 72.478540037980807 0.70710677298230451 0 -0.70710678939079041 I I #
edge $-1 $258 -26.68660422581987 $151 -8.443343346347568 $217 $265 forward 7 unknown #
point $-1 48.733176671651357 -8.443343346347568 16.452307991111603 #
point $-1 35.840288831490255 -8.443343346347568 16.452307991111596 #
edge $-1 $266 1 $266 0 $154 $-1 forward 7 unknown #
vertex $-1 $155 $267 #
ellipse-curve $-1 40.164635508969347 -17.564973786083719 7.8837667280826693 0.70710678939079041 0 0.70710677298230451 2.1213203189469136 0 -2.1213203681723711 1 I I #
point $-1 44.408053070517724 -17.564973786083719 7.8845435532682764 #
plane-surface $-1 48.733176671651357 0 0 -1 0 0 0 0 1 forward_v I I I I #
coedge $-1 $163 $161 $165 $234 reversed $101 $-1 #
edge $-1 $176 -16.452307991111603 $236 16.452307991111603 $175 $268 forward 7 unknown #
vertex $-1 $234 $269 #
straight-curve $-1 -48.733176671651357 -33.73040193867967 0 0 0 -1 I I #
edge $-1 $232 -33.73040193867967 $236 33.73040193867967 $230 $270 forward 7 unknown #
straight-curve $-1 0 -33.73040193867967 -16.452307991111603 -1 0 0 I I #
vertex $-1 $168 $271 #
straight-curve $-1 0 33.73040193867967 -16.452307991111603 1 0 0 I I #
point $-1 48.733176671651357 33.73040193867967 -16.452307991111603 #
point $-1 48.733176671651357 -33.73040193867967 -16.452307991111603 #
straight-curve $-1 -48.733176671651357 0 16.452307991111603 0 -1 0 I I #
point $-1 -48.733176671651357 33.73040193867967 16.452307991111603 #
point $-1 -48.733176671651357 -33.73040193867967 16.452307991111603 #
straight-curve $-1 48.733176671651357 -33.73040193867967 0 0 0 -1 I I #
straight-curve $-1 48.733176671651357 33.73040193867967 0 0 0 -1 I I #
edge $-1 $246 19.786961228241161 $249 32.679849367583067 $186 $272 forward 7 unknown #
vertex $-1 $200 $273 #
straight-curve $-1 -58.826148428931234 -8.443343346347568 16.452307991111603 -1 0 0 I I #
edge $-1 $249 -0.33914354669429159 $197 17.904117332778011 $196 $274 forward 7 unknown #
vertex $-1 $248 $275 #
straight-curve $-1 -48.73317667165135 -8.443343346347568 3.5594198517697038 0.70710677298230451 0 0.70710678939079041 I I #
point $-1 -35.840288831490248 -8.443343346347568 16.452307991111603 #
point $-1 -48.733176671651357 -26.68660422581987 3.5594198517696967 #
straight-curve $-1 -48.733176671651357 0 16.452307991111603 0 -1 0 I I #
vertex $-1 $203 $276 #
point $-1 -38.043315190022426 -17.564973786083719 10.005087096255039 #
coedge $-1 $218 $217 $210 $257 forward $207 $-1 #
edge $-1 $258 54.246521321346712 $261 67.139409460688611 $256 $277 forward 7 unknown #
vertex $-1 $222 $278 #
straight-curve $-1 24.366589135463325 -26.68660422581987 16.452307991111603 1 0 0 I I #
edge $-1 $261 -17.904117332778011 $219 0.33914354669429159 $218 $279 forward 7 unknown #
vertex $-1 $260 $280 #
straight-curve $-1 -20.185941915284467 -26.68660422581987 72.478540037980807 -0.70710677298230451 0 0.70710678939079041 I I #
point $-1 35.840288831490255 -26.68660422581987 16.452307991111596 #
point $-1 48.733176671651357 -8.443343346347568 3.5594198517697038 #
straight-curve $-1 48.733176671651357 0 16.452307991111603 0 1 0 I I #
vertex $-1 $225 $281 #
point $-1 42.285955827916254 -17.564973786083719 5.7624463599102977 #
straight-curve $-1 -48.733176671651357 33.73040193867967 0 0 0 -1 I I #
point $-1 -48.733176671651357 -33.73040193867967 -16.452307991111603 #
straight-curve $-1 -48.733176671651357 0 -16.452307991111603 0 1 0 I I #
point $-1 -48.733176671651357 33.73040193867967 -16.452307991111603 #
straight-curve $-1 -48.733176671651357 -8.443343346347568 36.239269219352764 0 0 -1 I I #
point $-1 -48.733176671651357 -8.443343346347568 16.452307991111603 #
straight-curve $-1 -48.733176671651357 -8.7824868930418596 3.5594198517696913 0 -1 0 I I #
point $-1 -48.733176671651357 -8.443343346347568 3.5594198517696967 #
point $-1 -38.043315140796963 -17.564973786083719 5.7624464091357552 #
straight-curve $-1 48.733176671651357 -26.68660422581987 70.698829312458315 0 0 -1 I I #
point $-1 48.733176671651357 -26.68660422581987 16.452307991111603 #
straight-curve $-1 48.73317667165135 -8.7824868930418596 3.5594198517697109 0 1 0 I I #
point $-1 48.733176671651357 -26.68660422581987 3.5594198517697038 #
point $-1 38.04331514079697 -17.564973786083719 5.7624464091357552 #
End-of-ACIS-data 