500 0 14 0           
7 Unknown 11 ACIS 5.0 NT 24 Thu Mar 25 16:37:51 1999 
-1 9.9999999999999995e-007 1e-010 
body $-1 $14 $-1 $15 #
body $-1 $16 $-1 $17 #
body $-1 $18 $-1 $19 #
body $-1 $20 $-1 $21 #
body $-1 $22 $-1 $23 #
body $-1 $24 $-1 $25 #
body $-1 $26 $-1 $27 #
body $-1 $28 $-1 $29 #
body $-1 $30 $-1 $31 #
body $-1 $32 $-1 $33 #
body $-1 $34 $-1 $35 #
body $-1 $36 $-1 $37 #
body $-1 $38 $-1 $39 #
body $-1 $40 $-1 $41 #
lump $-1 $-1 $42 $0 #
transform $-1 1 0 0 0 1 0 0 0 1 55.399639881588186 24.293199426331004 11.008266072637269 1 rotate no_reflect no_shear #
lump $-1 $-1 $43 $1 #
transform $-1 1 0 0 0 1 0 0 0 1 55.399639881588186 24.293199426331004 11.008266072637269 1 rotate no_reflect no_shear #
lump $-1 $-1 $44 $2 #
transform $-1 1 0 0 0 1 0 0 0 1 55.399639881588186 24.293199426331004 11.008266072637269 1 rotate no_reflect no_shear #
lump $-1 $-1 $45 $3 #
transform $-1 1 0 0 0 1 0 0 0 1 55.399639881588186 24.293199426331004 11.008266072637269 1 rotate no_reflect no_shear #
lump $-1 $-1 $46 $4 #
transform $-1 1 0 0 0 1 0 0 0 1 55.399639881588186 24.293199426331004 11.008266072637269 1 rotate no_reflect no_shear #
lump $-1 $-1 $47 $5 #
transform $-1 1 0 0 0 1 0 0 0 1 55.399639881588186 24.293199426331004 11.008266072637269 1 rotate no_reflect no_shear #
lump $-1 $-1 $48 $6 #
transform $-1 1 0 0 0 1 0 0 0 1 55.399639881588186 24.293199426331004 11.008266072637269 1 rotate no_reflect no_shear #
lump $-1 $-1 $49 $7 #
transform $-1 1 0 0 0 1 0 0 0 1 55.399639881588186 24.293199426331004 11.008266072637269 1 rotate no_reflect no_shear #
lump $-1 $-1 $50 $8 #
transform $-1 1 0 0 0 1 0 0 0 1 55.399639881588186 24.293199426331004 11.008266072637269 1 rotate no_reflect no_shear #
lump $-1 $-1 $51 $9 #
transform $-1 1 0 0 0 1 0 0 0 1 55.399639881588186 24.293199426331004 11.008266072637269 1 rotate no_reflect no_shear #
lump $-1 $-1 $52 $10 #
transform $-1 1 0 0 0 1 0 0 0 1 55.399639881588186 24.293199426331004 11.008266072637269 1 rotate no_reflect no_shear #
lump $-1 $-1 $53 $11 #
transform $-1 1 0 0 0 1 0 0 0 1 55.399639881588186 24.293199426331004 11.008266072637269 1 rotate no_reflect no_shear #
lump $-1 $-1 $54 $12 #
transform $-1 1 0 0 0 1 0 0 0 1 55.399639881588186 24.293199426331004 11.008266072637269 1 rotate no_reflect no_shear #
lump $-1 $-1 $55 $13 #
transform $-1 1 0 0 0 1 0 0 0 1 55.399639881588186 24.293199426331004 11.008266072637269 1 rotate no_reflect no_shear #
shell $-1 $-1 $-1 $56 $-1 $14 #
shell $-1 $-1 $-1 $57 $-1 $16 #
shell $-1 $-1 $-1 $58 $-1 $18 #
shell $-1 $-1 $-1 $59 $-1 $20 #
shell $-1 $-1 $-1 $60 $-1 $22 #
shell $-1 $-1 $-1 $61 $-1 $24 #
shell $-1 $-1 $-1 $62 $-1 $26 #
shell $-1 $-1 $-1 $63 $-1 $28 #
shell $-1 $-1 $-1 $64 $-1 $30 #
shell $-1 $-1 $-1 $65 $-1 $32 #
shell $-1 $-1 $-1 $66 $-1 $34 #
shell $-1 $-1 $-1 $67 $-1 $36 #
shell $-1 $-1 $-1 $68 $-1 $38 #
shell $-1 $-1 $-1 $69 $-1 $40 #
face $-1 $70 $71 $42 $-1 $72 forward single #
face $-1 $73 $74 $43 $-1 $75 forward single #
face $-1 $76 $77 $44 $-1 $78 reversed single #
face $-1 $79 $80 $45 $-1 $81 forward single #
face $-1 $82 $83 $46 $-1 $84 forward single #
face $-1 $85 $86 $47 $-1 $87 reversed single #
face $-1 $88 $89 $48 $-1 $90 forward single #
face $-1 $91 $92 $49 $-1 $93 forward single #
face $-1 $94 $95 $50 $-1 $96 reversed single #
face $-1 $97 $98 $51 $-1 $99 forward single #
face $-1 $100 $101 $52 $-1 $102 forward single #
face $-1 $103 $104 $53 $-1 $105 reversed single #
face $-1 $106 $107 $54 $-1 $108 forward single #
face $-1 $109 $110 $55 $-1 $111 forward single #
face $-1 $112 $113 $42 $-1 $114 reversed single #
loop $-1 $-1 $115 $56 #
plane-surface $-1 0 0 11.008266072637269 0 0 1 1 0 0 forward_v I I I I #
face $-1 $116 $117 $43 $-1 $118 forward single #
loop $-1 $-1 $119 $57 #
plane-surface $-1 -55.399639881588186 0 0 1 0 0 0 0 -1 forward_v I I I I #
face $-1 $120 $121 $44 $-1 $122 reversed single #
loop $-1 $-1 $123 $58 #
plane-surface $-1 -18.340292904622132 79.824002114370188 113.32691520893641 1 0 0 0 -0.77714596973225614 -0.62932038083071107 forward_v I I I I #
face $-1 $124 $125 $45 $-1 $126 forward single #
loop $-1 $127 $128 $59 #
cone-surface $-1 -11.444956553763689 20.231651828589744 6.8296930869032479 0 -0.77714596973225614 -0.62932038083071107 1.5 0 0 1 I I 0 1 1.5 forward I I I I #
face $-1 $129 $130 $46 $-1 $131 forward single #
loop $-1 $132 $133 $60 #
cone-surface $-1 -1.1019520274760168 20.231651828589744 6.8296930869032479 0 -0.77714596973225614 -0.62932038083071107 1.5 0 0 1 I I 0 1 1.5 forward I I I I #
face $-1 $134 $135 $47 $-1 $136 reversed single #
loop $-1 $-1 $137 $61 #
plane-surface $-1 31.265962653583628 79.824002114370188 113.32691520893641 1 0 0 0 -0.77714596973225614 -0.62932038083071107 forward_v I I I I #
face $-1 $138 $139 $48 $-1 $140 forward single #
loop $-1 $141 $142 $62 #
cone-surface $-1 38.161299004442071 20.231651828589744 6.8296930869032479 0 -0.77714596973225614 -0.62932038083071107 1.5 0 0 1 I I 0 1 1.5 forward I I I I #
face $-1 $143 $144 $49 $-1 $145 forward single #
loop $-1 $146 $147 $63 #
cone-surface $-1 48.504303530729743 20.231651828589744 6.8296930869032479 0 -0.77714596973225614 -0.62932038083071107 1.5 0 0 1 I I 0 1 1.5 forward I I I I #
face $-1 $148 $149 $50 $-1 $150 reversed single #
loop $-1 $-1 $151 $64 #
plane-surface $-1 5.7933843233824263 -110.40041314352025 75.568191156786227 -1 0 0 0 -0.77714596973225614 0.62932038083071107 forward_v I I I I #
face $-1 $152 $153 $51 $-1 $154 forward single #
loop $-1 $155 $156 $65 #
cone-surface $-1 -11.444956553763689 -20.231651828589747 6.8296930869032444 0 0.77714596973225614 -0.62932038083071107 1.5 0 0 1 I I 0 1 1.5 forward I I I I #
face $-1 $157 $158 $52 $-1 $159 forward single #
loop $-1 $160 $161 $66 #
cone-surface $-1 -1.1019520274760168 -20.231651828589747 6.8296930869032444 0 0.77714596973225614 -0.62932038083071107 1.5 0 0 1 I I 0 1 1.5 forward I I I I #
face $-1 $162 $163 $53 $-1 $164 reversed single #
loop $-1 $-1 $165 $67 #
plane-surface $-1 43.332801267585907 -24.293199426331014 5.8399462204555732 0 -0.77714596973225614 0.62932038083071107 1 0 0 forward_v I I I I #
face $-1 $166 $167 $54 $-1 $168 forward single #
loop $-1 $169 $170 $68 #
cone-surface $-1 38.161299004442071 -20.231651828589747 6.8296930869032444 0 0.77714596973225614 -0.62932038083071107 1.5 0 0 1 I I 0 1 1.5 forward I I I I #
face $-1 $171 $172 $55 $-1 $173 forward single #
loop $-1 $174 $175 $69 #
cone-surface $-1 48.504303530729743 -20.231651828589747 6.8296930869032444 0 0.77714596973225614 -0.62932038083071107 1.5 0 0 1 I I 0 1 1.5 forward I I I I #
face $-1 $176 $177 $42 $-1 $178 reversed single #
loop $-1 $-1 $179 $70 #
plane-surface $-1 0 0 -11.008266072637269 0 0 1 1 0 0 forward_v I I I I #
coedge $-1 $180 $181 $182 $183 forward $71 $-1 #
face $-1 $184 $185 $43 $-1 $186 reversed single #
loop $-1 $-1 $187 $73 #
plane-surface $-1 0 0 11.008266072637269 0 0 1 1 0 0 forward_v I I I I #
coedge $-1 $188 $189 $190 $191 forward $74 $-1 #
face $-1 $192 $193 $44 $-1 $194 reversed single #
loop $-1 $-1 $195 $76 #
plane-surface $-1 -6.2734542906198527 -6.2832116028190512 43.598670272605759 0 0.77714596973225614 0.62932038083071107 1 0 0 forward_v I I I I #
coedge $-1 $196 $197 $198 $199 reversed $77 $-1 #
face $-1 $-1 $200 $45 $-1 $201 forward single #
loop $-1 $202 $203 $79 #
cone-surface $-1 -11.444956553763689 17.679856144656735 4.7632897416370383 0 -0.77714596973225614 -0.62932038083071107 0.75 0 0 1 I I -0.70710678118654757 0.70710678118654757 0.75 forward I I I I #
loop $-1 $-1 $204 $59 #
coedge $-1 $128 $128 $205 $206 reversed $80 $-1 #
face $-1 $-1 $207 $46 $-1 $208 forward single #
loop $-1 $209 $210 $82 #
cone-surface $-1 -1.1019520274760168 17.679856144656735 4.7632897416370383 0 -0.77714596973225614 -0.62932038083071107 0.75 0 0 1 I I -0.70710678118654757 0.70710678118654757 0.75 forward I I I I #
loop $-1 $-1 $211 $60 #
coedge $-1 $133 $133 $212 $213 reversed $83 $-1 #
face $-1 $214 $215 $47 $-1 $216 forward single #
loop $-1 $-1 $217 $85 #
plane-surface $-1 43.332801267585907 -6.2832116028190512 43.598670272605759 0 0.77714596973225614 0.62932038083071107 1 0 0 forward_v I I I I #
coedge $-1 $218 $219 $220 $221 reversed $86 $-1 #
face $-1 $-1 $222 $48 $-1 $223 forward single #
loop $-1 $224 $225 $88 #
cone-surface $-1 38.161299004442071 17.679856144656735 4.7632897416370383 0 -0.77714596973225614 -0.62932038083071107 0.75 0 0 1 I I -0.70710678118654757 0.70710678118654757 0.75 forward I I I I #
loop $-1 $-1 $226 $62 #
coedge $-1 $142 $142 $227 $228 reversed $89 $-1 #
face $-1 $-1 $229 $49 $-1 $230 forward single #
loop $-1 $231 $232 $91 #
cone-surface $-1 48.504303530729743 17.679856144656735 4.7632897416370383 0 -0.77714596973225614 -0.62932038083071107 0.75 0 0 1 I I -0.70710678118654757 0.70710678118654757 0.75 forward I I I I #
loop $-1 $-1 $233 $63 #
coedge $-1 $147 $147 $234 $235 reversed $92 $-1 #
face $-1 $236 $237 $50 $-1 $238 reversed single #
loop $-1 $-1 $239 $94 #
plane-surface $-1 -6.2734542906198527 -24.293199426331014 5.8399462204555732 0 -0.77714596973225614 0.62932038083071107 1 0 0 forward_v I I I I #
coedge $-1 $240 $241 $242 $243 reversed $95 $-1 #
face $-1 $-1 $244 $51 $-1 $245 forward single #
loop $-1 $246 $247 $97 #
cone-surface $-1 -11.444956553763689 -17.679856144656739 4.7632897416370348 0 0.77714596973225614 -0.62932038083071107 0.75 0 0 1 I I -0.70710678118654757 0.70710678118654757 0.75 forward I I I I #
loop $-1 $-1 $248 $65 #
coedge $-1 $156 $156 $249 $250 reversed $98 $-1 #
face $-1 $-1 $251 $52 $-1 $252 forward single #
loop $-1 $253 $254 $100 #
cone-surface $-1 -1.1019520274760168 -17.679856144656739 4.7632897416370348 0 0.77714596973225614 -0.62932038083071107 0.75 0 0 1 I I -0.70710678118654757 0.70710678118654757 0.75 forward I I I I #
loop $-1 $-1 $255 $66 #
coedge $-1 $161 $161 $256 $257 reversed $101 $-1 #
face $-1 $258 $259 $53 $-1 $260 reversed single #
loop $-1 $-1 $261 $103 #
plane-surface $-1 31.265962653583628 -110.40041314352025 75.568191156786227 1 0 0 0 0.77714596973225614 -0.62932038083071107 forward_v I I I I #
coedge $-1 $262 $263 $264 $265 reversed $104 $-1 #
face $-1 $-1 $266 $54 $-1 $267 forward single #
loop $-1 $268 $269 $106 #
cone-surface $-1 38.161299004442071 -17.679856144656739 4.7632897416370348 0 0.77714596973225614 -0.62932038083071107 0.75 0 0 1 I I -0.70710678118654757 0.70710678118654757 0.75 forward I I I I #
loop $-1 $-1 $270 $68 #
coedge $-1 $170 $170 $271 $272 reversed $107 $-1 #
face $-1 $-1 $273 $55 $-1 $274 forward single #
loop $-1 $275 $276 $109 #
cone-surface $-1 48.504303530729743 -17.679856144656739 4.7632897416370348 0 0.77714596973225614 -0.62932038083071107 0.75 0 0 1 I I -0.70710678118654757 0.70710678118654757 0.75 forward I I I I #
loop $-1 $-1 $277 $69 #
coedge $-1 $175 $175 $278 $279 reversed $110 $-1 #
face $-1 $280 $281 $42 $-1 $282 reversed single #
loop $-1 $-1 $283 $112 #
plane-surface $-1 0 -24.293199426331004 0 0 1 0 0 0 1 forward_v I I I I #
coedge $-1 $284 $285 $286 $287 forward $113 $-1 #
coedge $-1 $288 $115 $289 $290 forward $71 $-1 #
coedge $-1 $115 $288 $291 $292 forward $71 $-1 #
coedge $-1 $293 $294 $115 $183 reversed $295 $-1 #
edge $-1 $296 -24.293199426331004 $297 24.293199426331004 $182 $298 forward 7 unknown #
face $-1 $299 $300 $43 $-1 $301 reversed single #
loop $-1 $-1 $302 $116 #
plane-surface $-1 -66.986408528353039 -21.980512795958138 0 1 0 0 0 0 -1 forward_v I I I I #
coedge $-1 $303 $304 $188 $305 forward $117 $-1 #
coedge $-1 $306 $119 $187 $305 reversed $74 $-1 #
coedge $-1 $119 $306 $307 $308 reversed $74 $-1 #
coedge $-1 $309 $310 $119 $191 reversed $300 $-1 #
edge $-1 $311 -11.008266072637269 $312 11.008266072637269 $190 $313 forward 7 unknown #
face $-1 $314 $315 $44 $-1 $316 forward single #
loop $-1 $-1 $317 $120 #
plane-surface $-1 5.7933843233824263 79.824002114370188 113.32691520893641 -1 0 0 0 0.77714596973225614 0.62932038083071107 forward_v I I I I #
coedge $-1 $318 $319 $320 $321 reversed $121 $-1 #
coedge $-1 $197 $123 $322 $323 reversed $77 $-1 #
coedge $-1 $123 $196 $318 $324 reversed $77 $-1 #
coedge $-1 $320 $325 $123 $199 forward $315 $-1 #
edge $-1 $326 15.61880163085409 $327 19.804024413068948 $198 $328 forward 7 unknown #
loop $-1 $-1 $205 $124 #
plane-surface $-1 -6.2734542906198527 -6.2832116028190512 43.598670272605759 0 0.77714596973225614 0.62932038083071107 1 0 0 forward_v I I I I #
loop $-1 $-1 $329 $79 #
coedge $-1 $203 $203 $204 $330 reversed $125 $-1 #
coedge $-1 $204 $204 $203 $330 forward $127 $-1 #
coedge $-1 $205 $205 $128 $206 forward $200 $-1 #
edge $-1 $331 -4.4016610001562174e-016 $331 6.2831853071796004 $205 $332 forward 7 unknown #
loop $-1 $-1 $212 $129 #
plane-surface $-1 -6.2734542906198527 -6.2832116028190512 43.598670272605759 0 0.77714596973225614 0.62932038083071107 1 0 0 forward_v I I I I #
loop $-1 $-1 $333 $82 #
coedge $-1 $210 $210 $211 $334 reversed $130 $-1 #
coedge $-1 $211 $211 $210 $334 forward $132 $-1 #
coedge $-1 $212 $212 $133 $213 forward $207 $-1 #
edge $-1 $335 -4.4016610001562174e-016 $335 6.2831853071796004 $212 $336 forward 7 unknown #
face $-1 $337 $338 $47 $-1 $339 reversed single #
loop $-1 $-1 $220 $134 #
plane-surface $-1 0 0 11.008266072637269 0 0 1 1 0 0 forward_v I I I I #
coedge $-1 $340 $341 $342 $343 reversed $135 $-1 #
coedge $-1 $219 $137 $344 $345 reversed $86 $-1 #
coedge $-1 $137 $218 $340 $346 reversed $86 $-1 #
coedge $-1 $342 $347 $137 $221 forward $215 $-1 #
edge $-1 $348 15.61880163085409 $349 19.804024413068948 $220 $350 forward 7 unknown #
loop $-1 $-1 $227 $138 #
plane-surface $-1 43.332801267585907 -6.2832116028190512 43.598670272605759 0 0.77714596973225614 0.62932038083071107 1 0 0 forward_v I I I I #
loop $-1 $-1 $351 $88 #
coedge $-1 $225 $225 $226 $352 reversed $139 $-1 #
coedge $-1 $226 $226 $225 $352 forward $141 $-1 #
coedge $-1 $227 $227 $142 $228 forward $222 $-1 #
edge $-1 $353 -4.4016610001562174e-016 $353 6.2831853071796004 $227 $354 forward 7 unknown #
loop $-1 $-1 $234 $143 #
plane-surface $-1 43.332801267585907 -6.2832116028190512 43.598670272605759 0 0.77714596973225614 0.62932038083071107 1 0 0 forward_v I I I I #
loop $-1 $-1 $355 $91 #
coedge $-1 $232 $232 $233 $356 reversed $144 $-1 #
coedge $-1 $233 $233 $232 $356 forward $146 $-1 #
coedge $-1 $234 $234 $147 $235 forward $229 $-1 #
edge $-1 $357 -4.4016610001562174e-016 $357 6.2831853071796004 $234 $358 forward 7 unknown #
face $-1 $359 $360 $50 $-1 $361 reversed single #
loop $-1 $-1 $362 $148 #
plane-surface $-1 -18.340292904622132 -110.40041314352025 75.568191156786227 1 0 0 0 0.77714596973225614 -0.62932038083071107 forward_v I I I I #
coedge $-1 $363 $364 $365 $366 reversed $149 $-1 #
coedge $-1 $241 $151 $367 $368 reversed $95 $-1 #
coedge $-1 $151 $240 $363 $369 reversed $95 $-1 #
coedge $-1 $365 $370 $151 $243 forward $371 $-1 #
edge $-1 $372 30.907007145429123 $373 35.092229927643984 $242 $374 forward 7 unknown #
loop $-1 $-1 $249 $152 #
plane-surface $-1 -6.2734542906198527 -24.293199426331014 5.8399462204555732 0 -0.77714596973225614 0.62932038083071107 1 0 0 forward_v I I I I #
loop $-1 $-1 $375 $97 #
coedge $-1 $247 $247 $248 $376 reversed $153 $-1 #
coedge $-1 $248 $248 $247 $376 forward $155 $-1 #
coedge $-1 $249 $249 $156 $250 forward $244 $-1 #
edge $-1 $377 -7.0024265568967864e-016 $377 6.2831853071795996 $249 $378 forward 7 unknown #
loop $-1 $-1 $256 $157 #
plane-surface $-1 -6.2734542906198527 -24.293199426331014 5.8399462204555732 0 -0.77714596973225614 0.62932038083071107 1 0 0 forward_v I I I I #
loop $-1 $-1 $379 $100 #
coedge $-1 $254 $254 $255 $380 reversed $158 $-1 #
coedge $-1 $255 $255 $254 $380 forward $160 $-1 #
coedge $-1 $256 $256 $161 $257 forward $251 $-1 #
edge $-1 $381 -7.0024265568967864e-016 $381 6.2831853071795996 $256 $382 forward 7 unknown #
face $-1 $383 $384 $53 $-1 $385 forward single #
loop $-1 $-1 $386 $162 #
plane-surface $-1 0 -24.293199426331004 0 0 1 0 0 0 1 forward_v I I I I #
coedge $-1 $387 $388 $389 $390 reversed $163 $-1 #
coedge $-1 $391 $165 $392 $393 reversed $104 $-1 #
coedge $-1 $165 $391 $387 $394 forward $104 $-1 #
coedge $-1 $389 $395 $165 $265 forward $384 $-1 #
edge $-1 $396 -33.733239247795233 $397 -9.5995620197906746 $264 $398 forward 7 unknown #
loop $-1 $-1 $271 $166 #
plane-surface $-1 43.332801267585907 -24.293199426331014 5.8399462204555732 0 -0.77714596973225614 0.62932038083071107 1 0 0 forward_v I I I I #
loop $-1 $-1 $399 $106 #
coedge $-1 $269 $269 $270 $400 reversed $167 $-1 #
coedge $-1 $270 $270 $269 $400 forward $169 $-1 #
coedge $-1 $271 $271 $170 $272 forward $266 $-1 #
edge $-1 $401 -7.0024265568967864e-016 $401 6.2831853071795996 $271 $402 forward 7 unknown #
loop $-1 $-1 $278 $171 #
plane-surface $-1 43.332801267585907 -24.293199426331014 5.8399462204555732 0 -0.77714596973225614 0.62932038083071107 1 0 0 forward_v I I I I #
loop $-1 $-1 $403 $109 #
coedge $-1 $276 $276 $277 $404 reversed $172 $-1 #
coedge $-1 $277 $277 $276 $404 forward $174 $-1 #
coedge $-1 $278 $278 $175 $279 forward $273 $-1 #
edge $-1 $405 -7.0024265568967864e-016 $405 6.2831853071795996 $278 $406 forward 7 unknown #
face $-1 $407 $408 $42 $-1 $409 reversed single #
loop $-1 $-1 $410 $176 #
plane-surface $-1 -55.399639881588186 0 0 1 0 0 0 0 -1 forward_v I I I I #
coedge $-1 $411 $291 $412 $413 forward $177 $-1 #
coedge $-1 $414 $179 $411 $415 forward $113 $-1 #
coedge $-1 $179 $414 $416 $417 forward $113 $-1 #
coedge $-1 $294 $293 $179 $287 reversed $295 $-1 #
edge $-1 $418 -24.293199426331004 $419 24.293199426331004 $286 $420 forward 7 unknown #
coedge $-1 $181 $180 $421 $422 forward $71 $-1 #
coedge $-1 $423 $424 $180 $290 reversed $408 $-1 #
edge $-1 $297 -55.399639881588186 $425 55.399639881588186 $289 $426 forward 7 unknown #
coedge $-1 $283 $427 $181 $292 reversed $177 $-1 #
edge $-1 $428 -55.399639881588186 $296 55.399639881588186 $291 $429 forward 7 unknown #
coedge $-1 $286 $182 $427 $430 forward $295 $-1 #
coedge $-1 $182 $286 $423 $431 reversed $295 $-1 #
loop $-1 $-1 $293 $407 #
vertex $-1 $183 $432 #
vertex $-1 $183 $433 #
straight-curve $-1 55.399639881588186 0 11.008266072637269 0 1 0 I I #
face $-1 $434 $435 $43 $-1 $436 reversed single #
loop $-1 $-1 $190 $184 #
plane-surface $-1 -61.193024204970612 -19.667826165585272 0 0 -1 0 0 0 -1 forward_v I I I I #
coedge $-1 $437 $438 $439 $440 forward $185 $-1 #
coedge $-1 $441 $187 $310 $442 forward $117 $-1 #
coedge $-1 $187 $441 $443 $444 forward $117 $-1 #
edge $-1 $445 -24.293199426331004 $312 -19.667826165585272 $187 $446 forward 7 unknown #
coedge $-1 $189 $188 $447 $448 reversed $74 $-1 #
coedge $-1 $449 $450 $189 $308 forward $435 $-1 #
edge $-1 $311 19.667826165585272 $451 24.293199426331004 $307 $452 forward 7 unknown #
coedge $-1 $439 $190 $450 $453 reversed $300 $-1 #
coedge $-1 $190 $439 $303 $442 reversed $300 $-1 #
vertex $-1 $308 $454 #
vertex $-1 $442 $455 #
straight-curve $-1 -55.399639881588186 -19.667826165585272 0 0 0 1 I I #
face $-1 $-1 $456 $44 $-1 $457 reversed single #
loop $-1 $-1 $198 $192 #
plane-surface $-1 0 0 11.008266072637269 0 0 1 1 0 0 forward_v I I I I #
coedge $-1 $458 $459 $460 $461 reversed $193 $-1 #
coedge $-1 $462 $195 $197 $324 forward $121 $-1 #
coedge $-1 $195 $462 $458 $463 forward $121 $-1 #
coedge $-1 $460 $198 $195 $321 forward $315 $-1 #
edge $-1 $327 -15.203565759312205 $464 8.9301114686923526 $320 $465 forward 7 unknown #
coedge $-1 $466 $467 $196 $323 forward $456 $-1 #
edge $-1 $468 -50.823511384012612 $326 -45.655191531830937 $322 $469 forward 7 unknown #
edge $-1 $327 41.936013914086949 $468 48.586398852661972 $197 $470 forward 7 unknown #
coedge $-1 $198 $460 $466 $471 forward $315 $-1 #
vertex $-1 $323 $472 #
vertex $-1 $199 $473 #
straight-curve $-1 -18.340292904622132 39.912001057185094 11.008266072637269 0 -1 0 I I #
coedge $-1 $329 $329 $-1 $474 reversed $202 $-1 #
edge $-1 $475 0 $475 6.2831853071796004 $203 $476 forward 7 unknown #
vertex $-1 $206 $477 #
ellipse-curve $-1 -11.444956553763689 22.200588035223575 8.4241061465464337 0 0.77714596973225614 0.62932038083071107 1.5 0 0 1 I I #
coedge $-1 $333 $333 $-1 $478 reversed $209 $-1 #
edge $-1 $479 0 $479 6.2831853071796004 $210 $480 forward 7 unknown #
vertex $-1 $213 $481 #
ellipse-curve $-1 -1.1019520274760168 22.200588035223575 8.4241061465464337 0 0.77714596973225614 0.62932038083071107 1.5 0 0 1 I I #
face $-1 $-1 $482 $47 $-1 $483 reversed single #
loop $-1 $-1 $484 $214 #
plane-surface $-1 55.399639881588186 0 0 -1 0 0 0 0 1 forward_v I I I I #
coedge $-1 $485 $217 $219 $346 forward $135 $-1 #
coedge $-1 $217 $485 $484 $486 reversed $135 $-1 #
coedge $-1 $487 $220 $217 $343 forward $215 $-1 #
edge $-1 $349 9.5995620197906746 $488 33.733239247795233 $342 $489 forward 7 unknown #
coedge $-1 $490 $491 $218 $345 forward $482 $-1 #
edge $-1 $492 -50.823511384012612 $348 -45.655191531830937 $344 $493 forward 7 unknown #
edge $-1 $349 41.936013914086949 $492 48.586398852661972 $219 $494 forward 7 unknown #
coedge $-1 $220 $487 $490 $495 forward $215 $-1 #
vertex $-1 $345 $496 #
vertex $-1 $221 $497 #
straight-curve $-1 31.265962653583628 39.912001057185094 11.008266072637269 0 -1 0 I I #
coedge $-1 $351 $351 $-1 $498 reversed $224 $-1 #
edge $-1 $499 0 $499 6.2831853071796004 $225 $500 forward 7 unknown #
vertex $-1 $228 $501 #
ellipse-curve $-1 38.161299004442071 22.200588035223575 8.4241061465464337 0 0.77714596973225614 0.62932038083071107 1.5 0 0 1 I I #
coedge $-1 $355 $355 $-1 $502 reversed $231 $-1 #
edge $-1 $503 0 $503 6.2831853071796004 $232 $504 forward 7 unknown #
vertex $-1 $235 $505 #
ellipse-curve $-1 48.504303530729743 22.200588035223575 8.4241061465464337 0 0.77714596973225614 0.62932038083071107 1.5 0 0 1 I I #
face $-1 $-1 $371 $50 $-1 $506 forward single #
loop $-1 $-1 $507 $236 #
plane-surface $-1 0 -24.293199426331004 0 0 1 0 0 0 1 forward_v I I I I #
coedge $-1 $508 $509 $510 $511 reversed $237 $-1 #
coedge $-1 $512 $239 $241 $369 forward $149 $-1 #
coedge $-1 $239 $512 $508 $513 forward $149 $-1 #
coedge $-1 $510 $242 $239 $366 forward $371 $-1 #
edge $-1 $373 -8.9301114686923526 $514 15.203565759312205 $365 $515 forward 7 unknown #
coedge $-1 $516 $517 $240 $368 forward $360 $-1 #
edge $-1 $518 -31.944149357937526 $372 -26.775829505755844 $367 $519 forward 7 unknown #
edge $-1 $373 -6.650384938575046 $518 -1.7061049565072372e-014 $241 $520 forward 7 unknown #
coedge $-1 $242 $510 $516 $521 forward $371 $-1 #
loop $-1 $-1 $510 $359 #
vertex $-1 $368 $522 #
vertex $-1 $243 $523 #
straight-curve $-1 5.7933843233824263 -55.200206571760127 11.008266072637269 0 1 0 I I #
coedge $-1 $375 $375 $-1 $524 reversed $246 $-1 #
edge $-1 $525 0 $525 6.2831853071796004 $247 $526 forward 7 unknown #
vertex $-1 $250 $527 #
ellipse-curve $-1 -11.444956553763689 -22.200588035223571 8.4241061465464266 0 -0.77714596973225614 0.62932038083071107 1.5 0 0 1 I I #
coedge $-1 $379 $379 $-1 $528 reversed $253 $-1 #
edge $-1 $529 0 $529 6.2831853071796004 $254 $530 forward 7 unknown #
vertex $-1 $257 $531 #
ellipse-curve $-1 -1.1019520274760168 -22.200588035223571 8.4241061465464266 0 -0.77714596973225614 0.62932038083071107 1.5 0 0 1 I I #
face $-1 $-1 $532 $53 $-1 $533 reversed single #
loop $-1 $-1 $389 $258 #
plane-surface $-1 0 0 11.008266072637269 0 0 1 1 0 0 forward_v I I I I #
coedge $-1 $534 $535 $388 $536 forward $259 $-1 #
coedge $-1 $388 $261 $263 $394 reversed $163 $-1 #
coedge $-1 $261 $387 $386 $536 reversed $163 $-1 #
coedge $-1 $537 $264 $261 $390 forward $384 $-1 #
edge $-1 $397 -35.092229927643984 $538 -30.907007145429123 $389 $539 forward 7 unknown #
coedge $-1 $263 $262 $534 $540 reversed $104 $-1 #
coedge $-1 $541 $542 $262 $393 forward $532 $-1 #
edge $-1 $543 -5.3748574229474233 $396 1.2755275156276065 $392 $544 forward 7 unknown #
edge $-1 $545 1.7061049565072372e-014 $397 6.650384938575046 $387 $546 forward 7 unknown #
coedge $-1 $264 $537 $541 $547 forward $384 $-1 #
vertex $-1 $393 $548 #
vertex $-1 $265 $549 #
straight-curve $-1 21.666400633792954 -20.107976644116135 11.008266072637269 -1 0 0 I I #
coedge $-1 $399 $399 $-1 $550 reversed $268 $-1 #
edge $-1 $551 0 $551 6.2831853071796004 $269 $552 forward 7 unknown #
vertex $-1 $272 $553 #
ellipse-curve $-1 38.161299004442071 -22.200588035223571 8.4241061465464266 0 -0.77714596973225614 0.62932038083071107 1.5 0 0 1 I I #
coedge $-1 $403 $403 $-1 $554 reversed $275 $-1 #
edge $-1 $555 0 $555 6.2831853071796004 $276 $556 forward 7 unknown #
vertex $-1 $279 $557 #
ellipse-curve $-1 48.504303530729743 -22.200588035223571 8.4241061465464266 0 -0.77714596973225614 0.62932038083071107 1.5 0 0 1 I I #
face $-1 $-1 $295 $42 $-1 $558 reversed single #
loop $-1 $-1 $423 $280 #
plane-surface $-1 0 24.293199426331004 0 0 -1 0 0 0 -1 forward_v I I I I #
coedge $-1 $559 $421 $424 $560 forward $281 $-1 #
coedge $-1 $427 $283 $284 $415 reversed $177 $-1 #
coedge $-1 $421 $559 $283 $413 reversed $281 $-1 #
edge $-1 $428 -11.008266072637269 $561 11.008266072637269 $412 $562 forward 7 unknown #
coedge $-1 $285 $284 $559 $563 forward $113 $-1 #
edge $-1 $419 -55.399639881588186 $561 55.399639881588186 $411 $564 forward 7 unknown #
coedge $-1 $424 $423 $285 $417 reversed $408 $-1 #
edge $-1 $565 -55.399639881588186 $418 55.399639881588186 $416 $566 forward 7 unknown #
vertex $-1 $287 $567 #
vertex $-1 $430 $568 #
straight-curve $-1 55.399639881588186 0 -11.008266072637269 0 -1 0 I I #
coedge $-1 $410 $412 $288 $422 reversed $281 $-1 #
edge $-1 $425 -24.293199426331004 $428 24.293199426331004 $421 $569 forward 7 unknown #
coedge $-1 $416 $289 $294 $431 forward $408 $-1 #
coedge $-1 $289 $416 $410 $560 reversed $408 $-1 #
vertex $-1 $290 $570 #
straight-curve $-1 0 24.293199426331004 11.008266072637269 -1 0 0 I I #
coedge $-1 $291 $411 $293 $430 reversed $177 $-1 #
vertex $-1 $422 $571 #
straight-curve $-1 0 -24.293199426331004 11.008266072637269 1 0 0 I I #
edge $-1 $296 -11.008266072637269 $419 11.008266072637269 $293 $572 forward 7 unknown #
edge $-1 $297 -11.008266072637269 $418 11.008266072637269 $294 $573 forward 7 unknown #
point $-1 55.399639881588186 -24.293199426331004 11.008266072637269 #
point $-1 55.399639881588186 24.293199426331004 11.008266072637269 #
face $-1 $-1 $574 $43 $-1 $575 reversed single #
loop $-1 $-1 $307 $299 #
plane-surface $-1 0 0 -11.008266072637269 0 0 1 1 0 0 forward_v I I I I #
coedge $-1 $576 $302 $577 $578 reversed $185 $-1 #
coedge $-1 $302 $576 $441 $579 reversed $185 $-1 #
coedge $-1 $310 $309 $302 $440 reversed $300 $-1 #
edge $-1 $580 -11.008266072637269 $581 11.008266072637269 $439 $582 forward 7 unknown #
coedge $-1 $304 $303 $438 $579 forward $117 $-1 #
edge $-1 $312 -5.7933843233824263 $580 5.7933843233824263 $310 $583 forward 7 unknown #
coedge $-1 $584 $447 $304 $444 reversed $574 $-1 #
edge $-1 $585 -66.986408528353039 $445 -55.399639881588186 $443 $586 forward 7 unknown #
vertex $-1 $448 $587 #
straight-curve $-1 -55.399639881588186 0 11.008266072637269 0 1 0 I I #
coedge $-1 $443 $588 $306 $448 forward $574 $-1 #
edge $-1 $451 -11.008266072637269 $445 11.008266072637269 $447 $589 forward 7 unknown #
coedge $-1 $577 $307 $588 $590 forward $435 $-1 #
coedge $-1 $307 $577 $309 $453 forward $435 $-1 #
vertex $-1 $590 $591 #
straight-curve $-1 -55.399639881588186 0 -11.008266072637269 0 -1 0 I I #
edge $-1 $581 -5.7933843233824263 $311 5.7933843233824263 $309 $592 forward 7 unknown #
point $-1 -55.399639881588186 -19.667826165585272 -11.008266072637269 #
point $-1 -55.399639881588186 -19.667826165585272 11.008266072637269 #
loop $-1 $-1 $322 $314 #
plane-surface $-1 0 24.293199426331004 0 0 -1 0 0 0 -1 forward_v I I I I #
coedge $-1 $459 $317 $319 $463 reversed $193 $-1 #
coedge $-1 $317 $458 $593 $594 reversed $193 $-1 #
coedge $-1 $325 $320 $317 $461 forward $315 $-1 #
edge $-1 $464 -19.804024413068948 $595 -15.61880163085409 $460 $596 forward 7 unknown #
coedge $-1 $319 $318 $467 $597 reversed $121 $-1 #
edge $-1 $598 -48.586398852661972 $464 -41.936013914086949 $458 $599 forward 7 unknown #
vertex $-1 $321 $600 #
straight-curve $-1 -3.1367271453099264 20.107976644116146 11.008266072637269 1 0 0 I I #
coedge $-1 $593 $322 $325 $471 reversed $456 $-1 #
coedge $-1 $322 $593 $462 $597 forward $456 $-1 #
vertex $-1 $323 $601 #
straight-curve $-1 -18.340292904622132 24.293199426331004 56.663457604468206 0 0 1 I I #
straight-curve $-1 -18.340292904622132 -6.2832116028190512 43.598670272605759 0 0.62932038083071107 -0.77714596973225614 I I #
edge $-1 $595 -5.7933843233824263 $326 18.340292904622132 $466 $602 forward 7 unknown #
point $-1 -18.340292904622132 24.293199426331004 11.008266072637269 #
point $-1 -18.340292904622132 20.107976644116146 11.008266072637269 #
edge $-1 $603 1 $603 0 $329 $-1 forward 7 unknown #
vertex $-1 $330 $604 #
ellipse-curve $-1 -11.444956553763689 18.262715621955927 5.2352800272600719 0 0.77714596973225614 0.62932038083071107 1.5 0 0 1 I I #
point $-1 -9.9449565537636886 22.200588035223561 8.4241061465464231 #
edge $-1 $605 1 $605 0 $333 $-1 forward 7 unknown #
vertex $-1 $334 $606 #
ellipse-curve $-1 -1.1019520274760168 18.262715621955927 5.2352800272600719 0 0.77714596973225614 0.62932038083071107 1.5 0 0 1 I I #
point $-1 0.39804797252398316 22.200588035223561 8.4241061465464231 #
loop $-1 $-1 $344 $337 #
plane-surface $-1 0 24.293199426331004 0 0 -1 0 0 0 -1 forward_v I I I I #
coedge $-1 $607 $608 $341 $486 forward $338 $-1 #
coedge $-1 $341 $340 $491 $609 reversed $135 $-1 #
edge $-1 $488 23.017671910703392 $610 29.668056849278411 $484 $611 forward 7 unknown #
coedge $-1 $347 $342 $608 $612 forward $215 $-1 #
vertex $-1 $612 $613 #
straight-curve $-1 21.666400633792954 20.107976644116146 11.008266072637269 1 0 0 I I #
coedge $-1 $614 $344 $347 $495 reversed $482 $-1 #
coedge $-1 $344 $614 $485 $609 forward $482 $-1 #
vertex $-1 $345 $615 #
straight-curve $-1 31.265962653583628 24.293199426331004 56.663457604468206 0 0 1 I I #
straight-curve $-1 31.265962653583628 -6.2832116028190512 43.598670272605759 0 0.62932038083071107 -0.77714596973225614 I I #
edge $-1 $616 -55.399639881588186 $348 -31.265962653583628 $490 $617 forward 7 unknown #
point $-1 31.265962653583628 24.293199426331004 11.008266072637269 #
point $-1 31.265962653583628 20.107976644116146 11.008266072637269 #
edge $-1 $618 1 $618 0 $351 $-1 forward 7 unknown #
vertex $-1 $352 $619 #
ellipse-curve $-1 38.161299004442071 18.262715621955927 5.2352800272600719 0 0.77714596973225614 0.62932038083071107 1.5 0 0 1 I I #
point $-1 39.661299004442071 22.200588035223561 8.4241061465464231 #
edge $-1 $620 1 $620 0 $355 $-1 forward 7 unknown #
vertex $-1 $356 $621 #
ellipse-curve $-1 48.504303530729743 18.262715621955927 5.2352800272600719 0 0.77714596973225614 0.62932038083071107 1.5 0 0 1 I I #
point $-1 50.004303530729743 22.200588035223561 8.4241061465464231 #
plane-surface $-1 0 0 11.008266072637269 0 0 1 1 0 0 forward_v I I I I #
coedge $-1 $517 $516 $509 $622 forward $360 $-1 #
coedge $-1 $509 $362 $364 $513 reversed $237 $-1 #
coedge $-1 $362 $508 $507 $622 reversed $237 $-1 #
coedge $-1 $370 $365 $362 $511 forward $371 $-1 #
edge $-1 $514 -35.092229927643984 $623 -30.907007145429123 $510 $624 forward 7 unknown #
coedge $-1 $364 $363 $517 $625 reversed $149 $-1 #
edge $-1 $626 1.7061049565072372e-014 $514 6.650384938575046 $508 $627 forward 7 unknown #
vertex $-1 $366 $628 #
straight-curve $-1 -3.1367271453099264 -20.107976644116135 11.008266072637269 -1 0 0 I I #
coedge $-1 $507 $367 $370 $521 reversed $360 $-1 #
coedge $-1 $367 $507 $512 $625 forward $360 $-1 #
vertex $-1 $368 $629 #
straight-curve $-1 5.7933843233824263 -24.293199426331 37.784095578393114 0 0 1 I I #
straight-curve $-1 5.7933843233824263 -24.293199426331014 5.8399462204555732 0 -0.62932038083071107 -0.77714596973225614 I I #
edge $-1 $623 -18.340292904622132 $372 5.7933843233824263 $516 $630 forward 7 unknown #
point $-1 5.7933843233824263 -24.293199426331004 11.008266072637269 #
point $-1 5.7933843233824263 -20.107976644116142 11.008266072637269 #
edge $-1 $631 1 $631 0 $375 $-1 forward 7 unknown #
vertex $-1 $376 $632 #
ellipse-curve $-1 -11.444956553763689 -18.26271562195593 5.2352800272600684 0 -0.77714596973225614 0.62932038083071107 1.5 0 0 1 I I #
point $-1 -9.9449565537636886 -22.200588035223564 8.4241061465464195 #
edge $-1 $633 1 $633 0 $379 $-1 forward 7 unknown #
vertex $-1 $380 $634 #
ellipse-curve $-1 -1.1019520274760168 -18.26271562195593 5.2352800272600684 0 -0.77714596973225614 0.62932038083071107 1.5 0 0 1 I I #
point $-1 0.39804797252398316 -22.200588035223564 8.4241061465464195 #
loop $-1 $-1 $392 $383 #
plane-surface $-1 55.399639881588186 0 0 -1 0 0 0 0 1 forward_v I I I I #
coedge $-1 $635 $386 $391 $540 forward $259 $-1 #
coedge $-1 $386 $635 $537 $636 reversed $259 $-1 #
edge $-1 $538 26.775829505755844 $545 31.944149357937526 $386 $637 forward 7 unknown #
coedge $-1 $395 $389 $535 $636 forward $384 $-1 #
vertex $-1 $636 $638 #
straight-curve $-1 31.265962653583628 -55.200206571760127 11.008266072637269 0 -1 0 I I #
edge $-1 $545 9.5995620197906746 $543 33.733239247795233 $534 $639 forward 7 unknown #
coedge $-1 $542 $392 $395 $547 reversed $532 $-1 #
coedge $-1 $392 $541 $635 $640 forward $532 $-1 #
vertex $-1 $540 $641 #
straight-curve $-1 55.399639881588186 -20.910692106010956 10.016995004584675 0 0.62932038083071107 0.77714596973225614 I I #
vertex $-1 $540 $642 #
straight-curve $-1 31.265962653583628 -24.293199426331014 5.8399462204555732 0 0.62932038083071107 0.77714596973225614 I I #
edge $-1 $643 -24.293199426331004 $396 -20.107976644116142 $541 $644 forward 7 unknown #
point $-1 55.399639881588186 -20.107976644116142 11.008266072637269 #
point $-1 31.265962653583628 -20.107976644116142 11.008266072637269 #
edge $-1 $645 1 $645 0 $399 $-1 forward 7 unknown #
vertex $-1 $400 $646 #
ellipse-curve $-1 38.161299004442071 -18.26271562195593 5.2352800272600684 0 -0.77714596973225614 0.62932038083071107 1.5 0 0 1 I I #
point $-1 39.661299004442071 -22.200588035223564 8.4241061465464195 #
edge $-1 $647 1 $647 0 $403 $-1 forward 7 unknown #
vertex $-1 $404 $648 #
ellipse-curve $-1 48.504303530729743 -18.26271562195593 5.2352800272600684 0 -0.77714596973225614 0.62932038083071107 1.5 0 0 1 I I #
point $-1 50.004303530729743 -22.200588035223564 8.4241061465464195 #
plane-surface $-1 55.399639881588186 0 0 -1 0 0 0 0 1 forward_v I I I I #
coedge $-1 $412 $410 $414 $563 reversed $281 $-1 #
edge $-1 $425 -11.008266072637269 $565 11.008266072637269 $424 $649 forward 7 unknown #
vertex $-1 $563 $650 #
straight-curve $-1 -55.399639881588186 -24.293199426331004 0 0 0 -1 I I #
edge $-1 $561 -24.293199426331004 $565 24.293199426331004 $559 $651 forward 7 unknown #
straight-curve $-1 0 -24.293199426331004 -11.008266072637269 -1 0 0 I I #
vertex $-1 $417 $652 #
straight-curve $-1 0 24.293199426331004 -11.008266072637269 1 0 0 I I #
point $-1 55.399639881588186 24.293199426331004 -11.008266072637269 #
point $-1 55.399639881588186 -24.293199426331004 -11.008266072637269 #
straight-curve $-1 -55.399639881588186 0 11.008266072637269 0 -1 0 I I #
point $-1 -55.399639881588186 24.293199426331004 11.008266072637269 #
point $-1 -55.399639881588186 -24.293199426331004 11.008266072637269 #
straight-curve $-1 55.399639881588186 -24.293199426331004 0 0 0 -1 I I #
straight-curve $-1 55.399639881588186 24.293199426331004 0 0 0 -1 I I #
loop $-1 $-1 $447 $434 #
plane-surface $-1 0 -24.293199426331004 0 0 1 0 0 0 1 forward_v I I I I #
coedge $-1 $438 $437 $584 $653 reversed $185 $-1 #
coedge $-1 $450 $449 $437 $578 forward $435 $-1 #
edge $-1 $654 -2.3126866303728661 $581 2.3126866303728661 $437 $655 forward 7 unknown #
edge $-1 $580 -2.3126866303728661 $585 2.3126866303728661 $438 $656 forward 7 unknown #
vertex $-1 $442 $657 #
vertex $-1 $453 $658 #
straight-curve $-1 -66.986408528353039 -19.667826165585272 0 0 0 -1 I I #
straight-curve $-1 -61.193024204970612 -19.667826165585272 11.008266072637269 -1 0 0 I I #
coedge $-1 $588 $443 $576 $653 forward $574 $-1 #
vertex $-1 $579 $659 #
straight-curve $-1 0 -24.293199426331004 11.008266072637269 1 0 0 I I #
point $-1 -55.399639881588186 -24.293199426331004 11.008266072637269 #
coedge $-1 $447 $584 $449 $590 reversed $574 $-1 #
straight-curve $-1 -55.399639881588186 -24.293199426331004 0 0 0 1 I I #
edge $-1 $451 -5.7933843233824263 $654 5.7933843233824263 $588 $660 forward 7 unknown #
point $-1 -55.399639881588186 -24.293199426331004 -11.008266072637269 #
straight-curve $-1 -61.193024204970612 -19.667826165585272 -11.008266072637269 1 0 0 I I #
coedge $-1 $467 $466 $459 $594 forward $456 $-1 #
edge $-1 $595 45.655191531830937 $598 50.823511384012612 $593 $661 forward 7 unknown #
vertex $-1 $471 $662 #
straight-curve $-1 5.7933843233824263 39.912001057185094 11.008266072637269 0 1 0 I I #
edge $-1 $598 -8.9301114686923526 $468 15.203565759312205 $467 $663 forward 7 unknown #
vertex $-1 $597 $664 #
straight-curve $-1 5.7933843233824263 -6.2832116028190512 43.598670272605759 0 -0.62932038083071107 0.77714596973225614 I I #
point $-1 5.7933843233824263 20.107976644116146 11.008266072637269 #
point $-1 -18.340292904622132 24.293199426331004 5.8399462204555945 #
straight-curve $-1 0 24.293199426331004 11.008266072637269 -1 0 0 I I #
vertex $-1 $474 $665 #
point $-1 -9.9449565537636886 18.262715621955927 5.2352800272600719 #
vertex $-1 $478 $666 #
point $-1 0.39804797252398316 18.262715621955927 5.2352800272600719 #
coedge $-1 $608 $484 $614 $667 reversed $338 $-1 #
coedge $-1 $484 $607 $487 $612 reversed $338 $-1 #
edge $-1 $610 -33.733239247795233 $492 -9.5995620197906746 $491 $668 forward 7 unknown #
vertex $-1 $486 $669 #
straight-curve $-1 55.399639881588186 5.6224865914359281 28.896357030659768 0 0.62932038083071107 -0.77714596973225614 I I #
edge $-1 $488 20.107976644116146 $616 24.293199426331004 $608 $670 forward 7 unknown #
point $-1 55.399639881588186 20.107976644116146 11.008266072637269 #
coedge $-1 $491 $490 $607 $667 forward $482 $-1 #
point $-1 31.265962653583628 24.293199426331004 5.8399462204555945 #
vertex $-1 $612 $671 #
straight-curve $-1 0 24.293199426331004 11.008266072637269 -1 0 0 I I #
vertex $-1 $498 $672 #
point $-1 39.661299004442071 18.262715621955927 5.2352800272600719 #
vertex $-1 $502 $673 #
point $-1 50.004303530729743 18.262715621955927 5.2352800272600719 #
edge $-1 $623 26.775829505755844 $626 31.944149357937526 $507 $674 forward 7 unknown #
vertex $-1 $521 $675 #
straight-curve $-1 -18.340292904622132 -55.200206571760127 11.008266072637269 0 -1 0 I I #
edge $-1 $626 -15.203565759312205 $518 8.9301114686923526 $517 $676 forward 7 unknown #
vertex $-1 $625 $677 #
straight-curve $-1 -18.340292904622132 -24.293199426331014 5.8399462204555732 0 0.62932038083071107 0.77714596973225614 I I #
point $-1 -18.340292904622132 -20.107976644116142 11.008266072637269 #
point $-1 5.7933843233824263 -24.293199426331004 5.8399462204555865 #
straight-curve $-1 0 -24.293199426331004 11.008266072637269 1 0 0 I I #
vertex $-1 $524 $678 #
point $-1 -9.9449565537636886 -18.26271562195593 5.2352800272600684 #
vertex $-1 $528 $679 #
point $-1 0.39804797252398316 -18.26271562195593 5.2352800272600684 #
coedge $-1 $535 $534 $542 $640 reversed $259 $-1 #
edge $-1 $538 31.265962653583628 $643 55.399639881588186 $535 $680 forward 7 unknown #
straight-curve $-1 31.265962653583628 -24.293199426331 37.784095578393114 0 0 -1 I I #
point $-1 31.265962653583628 -24.293199426331004 11.008266072637269 #
straight-curve $-1 21.666400633792954 -24.293199426331004 5.8399462204555821 1 0 0 I I #
edge $-1 $643 -11.008266072637269 $543 -5.8399462204555865 $542 $681 forward 7 unknown #
point $-1 55.399639881588186 -24.293199426331004 5.8399462204555865 #
point $-1 31.265962653583628 -24.293199426331004 5.8399462204555865 #
vertex $-1 $547 $682 #
straight-curve $-1 55.399639881588186 0 11.008266072637269 0 1 0 I I #
vertex $-1 $550 $683 #
point $-1 39.661299004442071 -18.26271562195593 5.2352800272600684 #
vertex $-1 $554 $684 #
point $-1 50.004303530729743 -18.26271562195593 5.2352800272600684 #
straight-curve $-1 -55.399639881588186 24.293199426331004 0 0 0 -1 I I #
point $-1 -55.399639881588186 -24.293199426331004 -11.008266072637269 #
straight-curve $-1 -55.399639881588186 0 -11.008266072637269 0 1 0 I I #
point $-1 -55.399639881588186 24.293199426331004 -11.008266072637269 #
edge $-1 $585 -11.008266072637269 $654 11.008266072637269 $576 $685 forward 7 unknown #
vertex $-1 $578 $686 #
straight-curve $-1 -66.986408528353039 -21.980512795958138 -11.008266072637269 0 1 0 I I #
straight-curve $-1 -66.986408528353039 -21.980512795958138 11.008266072637269 0 -1 0 I I #
point $-1 -66.986408528353039 -19.667826165585272 11.008266072637269 #
point $-1 -66.986408528353039 -19.667826165585272 -11.008266072637269 #
point $-1 -66.986408528353039 -24.293199426331004 11.008266072637269 #
straight-curve $-1 -61.193024204970612 -24.293199426331004 -11.008266072637269 -1 0 0 I I #
straight-curve $-1 5.7933843233824263 24.293199426331004 56.663457604468206 0 0 -1 I I #
point $-1 5.7933843233824263 24.293199426331004 11.008266072637269 #
straight-curve $-1 -3.1367271453099264 24.293199426331004 5.8399462204555945 -1 0 0 I I #
point $-1 5.7933843233824263 24.293199426331004 5.8399462204555945 #
point $-1 -11.444956553763689 17.096996667357544 4.2912994560140048 #
point $-1 -1.1019520274760168 17.096996667357544 4.2912994560140048 #
edge $-1 $616 -11.008266072637269 $610 -5.8399462204555945 $607 $687 forward 7 unknown #
straight-curve $-1 21.666400633792954 24.293199426331004 5.8399462204555945 -1 0 0 I I #
point $-1 55.399639881588186 24.293199426331004 5.8399462204555945 #
straight-curve $-1 55.399639881588186 0 11.008266072637269 0 1 0 I I #
point $-1 55.399639881588186 24.293199426331004 11.008266072637269 #
point $-1 38.161299004442071 17.096996667357544 4.2912994560140048 #
point $-1 48.504303530729743 17.096996667357544 4.2912994560140048 #
straight-curve $-1 -18.340292904622132 -24.293199426331 37.784095578393114 0 0 -1 I I #
point $-1 -18.340292904622132 -24.293199426331004 11.008266072637269 #
straight-curve $-1 -3.1367271453099264 -24.293199426331004 5.8399462204555821 1 0 0 I I #
point $-1 -18.340292904622132 -24.293199426331004 5.8399462204555865 #
point $-1 -11.444956553763689 -17.096996667357548 4.2912994560140012 #
point $-1 -1.1019520274760168 -17.096996667357548 4.2912994560140012 #
straight-curve $-1 0 -24.293199426331004 11.008266072637269 1 0 0 I I #
straight-curve $-1 55.399639881588186 -24.293199426331004 0 0 0 -1 I I #
point $-1 55.399639881588186 -24.293199426331004 11.008266072637269 #
point $-1 38.161299004442071 -17.096996667357548 4.2912994560140012 #
point $-1 48.504303530729743 -17.096996667357548 4.2912994560140012 #
straight-curve $-1 -66.986408528353039 -24.293199426331004 0 0 0 -1 I I #
point $-1 -66.986408528353039 -24.293199426331004 -11.008266072637269 #
straight-curve $-1 55.399639881588186 24.293199426331004 0 0 0 -1 I I #
End-of-ACIS-data 