500 0 6 0           
7 Unknown 11 ACIS 5.0 NT 24 Thu Mar 25 23:41:25 1999 
-1 9.9999999999999995e-007 1e-010 
body $-1 $6 $-1 $7 #
body $-1 $8 $-1 $9 #
body $-1 $10 $-1 $11 #
body $-1 $12 $-1 $13 #
body $-1 $14 $-1 $15 #
body $-1 $16 $-1 $17 #
lump $-1 $-1 $18 $0 #
transform $-1 1 0 0 0 1 0 0 0 1 53.021637623218481 22.124684867656605 5.6806294827137602 1 rotate no_reflect no_shear #
lump $-1 $-1 $19 $1 #
transform $-1 1 0 0 0 1 0 0 0 1 53.021637623218481 22.124684867656605 5.6806294827137602 1 rotate no_reflect no_shear #
lump $-1 $-1 $20 $2 #
transform $-1 1 0 0 0 1 0 0 0 1 53.021637623218481 22.124684867656605 5.6806294827137602 1 rotate no_reflect no_shear #
lump $-1 $-1 $21 $3 #
transform $-1 1 0 0 0 1 0 0 0 1 53.021637623218481 22.124684867656605 5.6806294827137602 1 rotate no_reflect no_shear #
lump $-1 $-1 $22 $4 #
transform $-1 1 0 0 0 1 0 0 0 1 53.021637623218481 22.124684867656605 5.6806294827137602 1 rotate no_reflect no_shear #
lump $-1 $-1 $23 $5 #
transform $-1 1 0 0 0 1 0 0 0 1 53.021637623218481 22.124684867656605 5.6806294827137602 1 rotate no_reflect no_shear #
shell $-1 $-1 $-1 $24 $-1 $6 #
shell $-1 $-1 $-1 $25 $-1 $8 #
shell $-1 $-1 $-1 $26 $-1 $10 #
shell $-1 $-1 $-1 $27 $-1 $12 #
shell $-1 $-1 $-1 $28 $-1 $14 #
shell $-1 $-1 $-1 $29 $-1 $16 #
face $-1 $30 $31 $18 $-1 $32 forward single #
face $-1 $33 $34 $19 $-1 $35 forward single #
face $-1 $36 $37 $20 $-1 $38 reversed single #
face $-1 $39 $40 $21 $-1 $41 forward single #
face $-1 $42 $43 $22 $-1 $44 reversed single #
face $-1 $45 $46 $23 $-1 $47 forward single #
face $-1 $48 $49 $18 $-1 $50 reversed single #
loop $-1 $-1 $51 $24 #
plane-surface $-1 0 0 5.6806294827137602 0 0 1 1 0 0 forward_v I I I I #
face $-1 $52 $53 $19 $-1 $54 reversed single #
loop $-1 $-1 $55 $25 #
plane-surface $-1 -49.43850347320447 0 -1.5357457031427568 0 0 1 1 0 0 forward_v I I I I #
face $-1 $56 $57 $20 $-1 $58 reversed single #
loop $-1 $-1 $59 $26 #
plane-surface $-1 -20.199012151043394 93.419704487556174 91.675699776133342 1 0 0 0 -0.87461971476443456 -0.48480960649040278 forward_v I I I I #
face $-1 $60 $61 $21 $-1 $62 forward single #
loop $-1 $63 $64 $27 #
cone-surface $-1 -14.442905010461452 20.20124033069893 3.188404006806036 0 -0.87461971476443456 -0.48480960649040278 0.5 0 0 1 I I 0 1 0.5 forward I I I I #
face $-1 $65 $66 $22 $-1 $67 reversed single #
loop $-1 $-1 $68 $28 #
plane-surface $-1 15.853066169907517 93.419704487556174 91.675699776133342 1 0 0 0 -0.87461971476443456 -0.48480960649040278 forward_v I I I I #
face $-1 $69 $70 $23 $-1 $71 forward single #
loop $-1 $72 $73 $29 #
cone-surface $-1 21.609173310489467 20.20124033069893 3.188404006806036 0 -0.87461971476443456 -0.48480960649040278 0.5 0 0 1 I I 0 1 0.5 forward I I I I #
face $-1 $74 $75 $18 $-1 $76 reversed single #
loop $-1 $-1 $77 $30 #
plane-surface $-1 0 0 -5.6806294827137602 0 0 1 1 0 0 forward_v I I I I #
coedge $-1 $78 $79 $80 $81 forward $31 $-1 #
face $-1 $82 $83 $19 $-1 $84 reversed single #
loop $-1 $-1 $85 $33 #
plane-surface $-1 -49.43850347320447 0 -4.6439256934922524 0 0 1 1 0 0 forward_v I I I I #
coedge $-1 $86 $87 $88 $89 forward $34 $-1 #
face $-1 $90 $91 $20 $-1 $92 reversed single #
loop $-1 $-1 $93 $36 #
plane-surface $-1 -14.442905010461445 0.67216533883105001 40.26490123295477 0 0.87461971476443456 0.48480960649040278 1 0 0 forward_v I I I I #
coedge $-1 $94 $95 $96 $97 reversed $37 $-1 #
face $-1 $-1 $98 $21 $-1 $99 forward single #
loop $-1 $100 $101 $39 #
cone-surface $-1 -14.442905010461452 19.200213550466323 2.6335258223580258 0 -0.87461971476443456 -0.48480960649040278 0.25 0 0 1 I I -0.70710678118654746 0.70710678118654746 0.25 forward I I I I #
loop $-1 $-1 $102 $27 #
coedge $-1 $64 $64 $103 $104 reversed $40 $-1 #
face $-1 $105 $106 $22 $-1 $107 reversed single #
loop $-1 $-1 $108 $42 #
plane-surface $-1 21.609173310489467 0.67216533883105001 40.26490123295477 0 0.87461971476443456 0.48480960649040278 1 0 0 forward_v I I I I #
coedge $-1 $109 $110 $111 $112 reversed $43 $-1 #
face $-1 $-1 $113 $23 $-1 $114 forward single #
loop $-1 $115 $116 $45 #
cone-surface $-1 21.609173310489467 19.200213550466323 2.6335258223580258 0 -0.87461971476443456 -0.48480960649040278 0.25 0 0 1 I I -0.70710678118654746 0.70710678118654746 0.25 forward I I I I #
loop $-1 $-1 $117 $29 #
coedge $-1 $73 $73 $118 $119 reversed $46 $-1 #
face $-1 $120 $121 $18 $-1 $122 reversed single #
loop $-1 $-1 $123 $48 #
plane-surface $-1 0 -22.124684867656605 0 0 1 0 0 0 1 forward_v I I I I #
coedge $-1 $124 $125 $126 $127 forward $49 $-1 #
coedge $-1 $128 $51 $129 $130 forward $31 $-1 #
coedge $-1 $51 $128 $131 $132 forward $31 $-1 #
coedge $-1 $133 $134 $51 $81 reversed $135 $-1 #
edge $-1 $136 -22.124684867656605 $137 22.124684867656605 $80 $138 forward 7 unknown #
face $-1 $139 $140 $19 $-1 $141 reversed single #
loop $-1 $-1 $142 $52 #
plane-surface $-1 -45.855369323190459 0 -3.0898356983175046 -1 0 0 0 0 1 forward_v I I I I #
coedge $-1 $143 $144 $145 $146 forward $53 $-1 #
coedge $-1 $147 $55 $148 $149 reversed $34 $-1 #
coedge $-1 $55 $147 $150 $151 reversed $34 $-1 #
coedge $-1 $142 $152 $55 $89 reversed $83 $-1 #
edge $-1 $153 -22.124684867656605 $154 22.124684867656605 $88 $155 forward 7 unknown #
face $-1 $156 $157 $20 $-1 $158 forward single #
loop $-1 $-1 $159 $56 #
plane-surface $-1 -8.686797869879495 93.419704487556174 91.675699776133342 -1 0 0 0 0.87461971476443456 0.48480960649040278 forward_v I I I I #
coedge $-1 $160 $161 $162 $163 reversed $57 $-1 #
coedge $-1 $95 $59 $164 $165 reversed $37 $-1 #
coedge $-1 $59 $94 $160 $166 reversed $37 $-1 #
coedge $-1 $162 $167 $59 $97 forward $157 $-1 #
edge $-1 $168 24.585167376121483 $169 26.867312746953839 $96 $170 forward 7 unknown #
loop $-1 $-1 $103 $60 #
plane-surface $-1 -14.442905010461445 0.67216533883105001 40.26490123295477 0 0.87461971476443456 0.48480960649040278 1 0 0 forward_v I I I I #
loop $-1 $-1 $171 $39 #
coedge $-1 $101 $101 $102 $172 reversed $61 $-1 #
coedge $-1 $102 $102 $101 $172 forward $63 $-1 #
coedge $-1 $103 $103 $64 $104 forward $98 $-1 #
edge $-1 $173 1.350024067169941e-015 $173 6.2831853071796022 $103 $174 forward 7 unknown #
face $-1 $175 $176 $22 $-1 $177 forward single #
loop $-1 $-1 $178 $65 #
plane-surface $-1 27.365280451071417 93.419704487556174 91.675699776133342 -1 0 0 0 0.87461971476443456 0.48480960649040278 forward_v I I I I #
coedge $-1 $179 $180 $181 $182 reversed $66 $-1 #
coedge $-1 $110 $68 $183 $184 reversed $43 $-1 #
coedge $-1 $68 $109 $179 $185 reversed $43 $-1 #
coedge $-1 $181 $186 $68 $112 forward $176 $-1 #
edge $-1 $187 24.585167376121483 $188 26.867312746953839 $111 $189 forward 7 unknown #
loop $-1 $-1 $118 $69 #
plane-surface $-1 21.609173310489467 0.67216533883105001 40.26490123295477 0 0.87461971476443456 0.48480960649040278 1 0 0 forward_v I I I I #
loop $-1 $-1 $190 $45 #
coedge $-1 $116 $116 $117 $191 reversed $70 $-1 #
coedge $-1 $117 $117 $116 $191 forward $72 $-1 #
coedge $-1 $118 $118 $73 $119 forward $113 $-1 #
edge $-1 $192 1.350024067169941e-015 $192 6.2831853071796022 $118 $193 forward 7 unknown #
face $-1 $194 $195 $18 $-1 $196 reversed single #
loop $-1 $-1 $197 $74 #
plane-surface $-1 -53.021637623218481 0 0 1 0 0 0 0 -1 forward_v I I I I #
coedge $-1 $198 $131 $199 $200 forward $75 $-1 #
coedge $-1 $201 $77 $198 $202 forward $49 $-1 #
coedge $-1 $77 $201 $203 $204 forward $49 $-1 #
coedge $-1 $134 $133 $77 $127 reversed $135 $-1 #
edge $-1 $205 -22.124684867656605 $206 22.124684867656605 $126 $207 forward 7 unknown #
coedge $-1 $79 $78 $208 $209 forward $31 $-1 #
coedge $-1 $210 $211 $78 $130 reversed $195 $-1 #
edge $-1 $137 -53.021637623218481 $212 53.021637623218481 $129 $213 forward 7 unknown #
coedge $-1 $123 $214 $79 $132 reversed $75 $-1 #
edge $-1 $215 -53.021637623218481 $136 53.021637623218481 $131 $216 forward 7 unknown #
coedge $-1 $126 $80 $214 $217 forward $135 $-1 #
coedge $-1 $80 $126 $210 $218 reversed $135 $-1 #
loop $-1 $-1 $133 $194 #
vertex $-1 $81 $219 #
vertex $-1 $81 $220 #
straight-curve $-1 53.021637623218481 0 5.6806294827137602 0 1 0 I I #
face $-1 $221 $222 $19 $-1 $223 reversed single #
loop $-1 $-1 $224 $82 #
plane-surface $-1 0 -22.124684867656605 0 0 1 0 0 0 1 forward_v I I I I #
coedge $-1 $145 $88 $225 $226 reversed $83 $-1 #
coedge $-1 $227 $85 $224 $228 reversed $53 $-1 #
coedge $-1 $85 $227 $229 $230 reversed $53 $-1 #
coedge $-1 $152 $142 $85 $146 reversed $83 $-1 #
edge $-1 $231 -22.124684867656605 $232 22.124684867656605 $145 $233 forward 7 unknown #
coedge $-1 $87 $86 $234 $235 reversed $34 $-1 #
coedge $-1 $236 $237 $86 $149 forward $238 $-1 #
edge $-1 $239 -28.302385886616246 $154 -21.136117586588224 $148 $240 forward 7 unknown #
coedge $-1 $241 $225 $87 $151 forward $140 $-1 #
edge $-1 $153 21.136117586588224 $242 28.302385886616246 $150 $243 forward 7 unknown #
coedge $-1 $88 $145 $236 $244 reversed $83 $-1 #
vertex $-1 $151 $245 #
vertex $-1 $149 $246 #
straight-curve $-1 -45.855369323190459 0 -1.5357457031427568 0 1 0 I I #
face $-1 $-1 $247 $20 $-1 $248 reversed single #
loop $-1 $-1 $96 $90 #
plane-surface $-1 0 0 5.6806294827137602 0 0 1 1 0 0 forward_v I I I I #
coedge $-1 $249 $250 $251 $252 reversed $91 $-1 #
coedge $-1 $253 $93 $95 $166 forward $57 $-1 #
coedge $-1 $93 $253 $249 $254 forward $57 $-1 #
coedge $-1 $251 $96 $93 $163 forward $157 $-1 #
edge $-1 $169 -12.977559645812672 $255 -1.4653453646487726 $162 $256 forward 7 unknown #
coedge $-1 $257 $258 $94 $165 forward $247 $-1 #
edge $-1 $259 -44.274319791517584 $168 -40.157220405352909 $164 $260 forward 7 unknown #
edge $-1 $169 39.542067445341949 $259 44.249369735313259 $95 $261 forward 7 unknown #
coedge $-1 $96 $251 $257 $262 forward $157 $-1 #
vertex $-1 $165 $263 #
vertex $-1 $97 $264 #
straight-curve $-1 -20.199012151043394 46.709852243778087 5.680629482713762 0 -1 0 I I #
coedge $-1 $171 $171 $-1 $265 reversed $100 $-1 #
edge $-1 $266 0 $266 6.2831853071796004 $101 $267 forward 7 unknown #
vertex $-1 $104 $268 #
ellipse-curve $-1 -14.442905010461452 20.983612182240417 3.6220797896314383 0 0.87461971476443456 0.48480960649040278 0.5 0 0 1 I I #
face $-1 $-1 $269 $22 $-1 $270 reversed single #
loop $-1 $-1 $111 $105 #
plane-surface $-1 0 0 5.6806294827137602 0 0 1 1 0 0 forward_v I I I I #
coedge $-1 $271 $272 $273 $274 reversed $106 $-1 #
coedge $-1 $275 $108 $110 $185 forward $66 $-1 #
coedge $-1 $108 $275 $271 $276 forward $66 $-1 #
coedge $-1 $273 $111 $108 $182 forward $176 $-1 #
edge $-1 $188 5.0484795146627839 $277 16.560693795826683 $181 $278 forward 7 unknown #
coedge $-1 $279 $280 $109 $184 forward $269 $-1 #
edge $-1 $281 -44.274319791517584 $187 -40.157220405352909 $183 $282 forward 7 unknown #
edge $-1 $188 39.542067445341949 $281 44.249369735313259 $110 $283 forward 7 unknown #
coedge $-1 $111 $273 $279 $284 forward $176 $-1 #
vertex $-1 $112 $285 #
vertex $-1 $112 $286 #
straight-curve $-1 15.853066169907517 46.709852243778087 5.680629482713762 0 -1 0 I I #
coedge $-1 $190 $190 $-1 $287 reversed $115 $-1 #
edge $-1 $288 0 $288 6.2831853071796004 $116 $289 forward 7 unknown #
vertex $-1 $119 $290 #
ellipse-curve $-1 21.609173310489467 20.983612182240417 3.6220797896314383 0 0.87461971476443456 0.48480960649040278 0.5 0 0 1 I I #
face $-1 $-1 $135 $18 $-1 $291 reversed single #
loop $-1 $-1 $210 $120 #
plane-surface $-1 0 22.124684867656605 0 0 -1 0 0 0 -1 forward_v I I I I #
coedge $-1 $292 $208 $211 $293 forward $121 $-1 #
coedge $-1 $214 $123 $124 $202 reversed $75 $-1 #
coedge $-1 $208 $292 $123 $200 reversed $121 $-1 #
edge $-1 $215 -5.6806294827137602 $294 5.6806294827137602 $199 $295 forward 7 unknown #
coedge $-1 $125 $124 $292 $296 forward $49 $-1 #
edge $-1 $206 -53.021637623218481 $294 53.021637623218481 $198 $297 forward 7 unknown #
coedge $-1 $211 $210 $125 $204 reversed $195 $-1 #
edge $-1 $298 -53.021637623218481 $205 53.021637623218481 $203 $299 forward 7 unknown #
vertex $-1 $127 $300 #
vertex $-1 $217 $301 #
straight-curve $-1 53.021637623218481 0 -5.6806294827137602 0 -1 0 I I #
coedge $-1 $197 $199 $128 $209 reversed $121 $-1 #
edge $-1 $212 -22.124684867656605 $215 22.124684867656605 $208 $302 forward 7 unknown #
coedge $-1 $203 $129 $134 $218 forward $195 $-1 #
coedge $-1 $129 $203 $197 $293 reversed $195 $-1 #
vertex $-1 $130 $303 #
straight-curve $-1 0 22.124684867656605 5.6806294827137602 -1 0 0 I I #
coedge $-1 $131 $198 $133 $217 reversed $75 $-1 #
vertex $-1 $209 $304 #
straight-curve $-1 0 -22.124684867656605 5.6806294827137602 1 0 0 I I #
edge $-1 $136 -5.6806294827137602 $206 5.6806294827137602 $133 $305 forward 7 unknown #
edge $-1 $137 -5.6806294827137602 $205 5.6806294827137602 $134 $306 forward 7 unknown #
point $-1 53.021637623218481 -22.124684867656605 5.6806294827137602 #
point $-1 53.021637623218481 22.124684867656605 5.6806294827137602 #
face $-1 $-1 $238 $19 $-1 $307 reversed single #
loop $-1 $-1 $308 $139 #
plane-surface $-1 -53.021637623218481 0 0 1 0 0 0 0 -1 forward_v I I I I #
coedge $-1 $225 $241 $143 $228 forward $140 $-1 #
coedge $-1 $150 $224 $142 $226 forward $140 $-1 #
edge $-1 $232 -3.0990078443335003 $153 0.0091721460159954749 $225 $309 forward 7 unknown #
coedge $-1 $144 $143 $308 $310 reversed $53 $-1 #
edge $-1 $311 -28.302385886616246 $232 -21.136117586588224 $224 $312 forward 7 unknown #
coedge $-1 $237 $236 $144 $230 forward $238 $-1 #
edge $-1 $231 21.136117586588224 $313 28.302385886616246 $229 $314 forward 7 unknown #
vertex $-1 $230 $315 #
vertex $-1 $228 $316 #
straight-curve $-1 -45.855369323190459 0 -4.6439256934922524 0 -1 0 I I #
coedge $-1 $317 $318 $147 $235 forward $222 $-1 #
edge $-1 $242 -22.124684867656605 $239 22.124684867656605 $234 $319 forward 7 unknown #
coedge $-1 $229 $148 $152 $244 forward $238 $-1 #
coedge $-1 $148 $229 $317 $320 reversed $238 $-1 #
loop $-1 $-1 $229 $221 #
vertex $-1 $320 $321 #
straight-curve $-1 -24.719251736602235 22.124684867656605 -1.5357457031427568 1 0 0 I I #
coedge $-1 $224 $150 $318 $322 forward $140 $-1 #
vertex $-1 $322 $323 #
straight-curve $-1 -24.719251736602235 -22.124684867656605 -1.5357457031427568 -1 0 0 I I #
edge $-1 $154 -0.0091721460159954749 $231 3.0990078443335003 $236 $324 forward 7 unknown #
point $-1 -45.855369323190459 -22.124684867656605 -1.5357457031427568 #
point $-1 -45.855369323190459 22.124684867656605 -1.5357457031427568 #
loop $-1 $-1 $164 $156 #
plane-surface $-1 0 22.124684867656605 0 0 -1 0 0 0 -1 forward_v I I I I #
coedge $-1 $250 $159 $161 $254 reversed $91 $-1 #
coedge $-1 $159 $249 $325 $326 reversed $91 $-1 #
coedge $-1 $167 $162 $159 $252 forward $157 $-1 #
edge $-1 $255 -26.867312746953839 $327 -24.585167376121483 $251 $328 forward 7 unknown #
coedge $-1 $161 $160 $258 $329 reversed $57 $-1 #
edge $-1 $330 -44.249369735313259 $255 -39.542067445341949 $249 $331 forward 7 unknown #
vertex $-1 $163 $332 #
straight-curve $-1 -7.2214525052307224 19.842539496824248 5.6806294827137584 1 0 0 I I #
coedge $-1 $325 $164 $167 $262 reversed $247 $-1 #
coedge $-1 $164 $325 $253 $329 forward $247 $-1 #
vertex $-1 $165 $333 #
straight-curve $-1 -20.199012151043394 22.124684867656605 45.837849888066671 0 0 1 I I #
straight-curve $-1 -20.199012151043394 0.67216533883105001 40.26490123295477 0 0.48480960649040278 -0.87461971476443456 I I #
edge $-1 $327 8.686797869879495 $168 20.199012151043394 $257 $334 forward 7 unknown #
point $-1 -20.199012151043394 22.124684867656605 5.6806294827137602 #
point $-1 -20.199012151043394 19.842539496824248 5.680629482713762 #
edge $-1 $335 1 $335 0 $171 $-1 forward 7 unknown #
vertex $-1 $172 $336 #
ellipse-curve $-1 -14.442905010461452 19.418868479157432 2.7547282239806266 0 0.87461971476443456 0.48480960649040278 0.5 0 0 1 I I #
point $-1 -13.942905010461452 20.983612182240432 3.6220797896314454 #
loop $-1 $-1 $183 $175 #
plane-surface $-1 0 22.124684867656605 0 0 -1 0 0 0 -1 forward_v I I I I #
coedge $-1 $272 $178 $180 $276 reversed $106 $-1 #
coedge $-1 $178 $271 $337 $338 reversed $106 $-1 #
coedge $-1 $186 $181 $178 $274 forward $176 $-1 #
edge $-1 $277 -26.867312746953839 $339 -24.585167376121483 $273 $340 forward 7 unknown #
coedge $-1 $180 $179 $280 $341 reversed $66 $-1 #
edge $-1 $342 -44.249369735313259 $277 -39.542067445341949 $271 $343 forward 7 unknown #
vertex $-1 $182 $344 #
straight-curve $-1 10.804586655244734 19.842539496824248 5.6806294827137584 1 0 0 I I #
coedge $-1 $337 $183 $186 $284 reversed $269 $-1 #
coedge $-1 $183 $337 $275 $341 forward $269 $-1 #
vertex $-1 $184 $345 #
straight-curve $-1 15.853066169907517 22.124684867656605 45.837849888066671 0 0 1 I I #
straight-curve $-1 15.853066169907517 0.67216533883105001 40.26490123295477 0 0.48480960649040278 -0.87461971476443456 I I #
edge $-1 $339 -27.365280451071417 $187 -15.853066169907517 $279 $346 forward 7 unknown #
point $-1 15.853066169907517 22.124684867656605 5.6806294827137602 #
point $-1 15.853066169907517 19.842539496824248 5.680629482713762 #
edge $-1 $347 1 $347 0 $190 $-1 forward 7 unknown #
vertex $-1 $191 $348 #
ellipse-curve $-1 21.609173310489467 19.418868479157432 2.7547282239806266 0 0.87461971476443456 0.48480960649040278 0.5 0 0 1 I I #
point $-1 22.109173310489467 20.983612182240432 3.6220797896314454 #
plane-surface $-1 53.021637623218481 0 0 -1 0 0 0 0 1 forward_v I I I I #
coedge $-1 $199 $197 $201 $296 reversed $121 $-1 #
edge $-1 $212 -5.6806294827137602 $298 5.6806294827137602 $211 $349 forward 7 unknown #
vertex $-1 $296 $350 #
straight-curve $-1 -53.021637623218481 -22.124684867656605 0 0 0 -1 I I #
edge $-1 $294 -22.124684867656605 $298 22.124684867656605 $292 $351 forward 7 unknown #
straight-curve $-1 0 -22.124684867656605 -5.6806294827137602 -1 0 0 I I #
vertex $-1 $204 $352 #
straight-curve $-1 0 22.124684867656605 -5.6806294827137602 1 0 0 I I #
point $-1 53.021637623218481 22.124684867656605 -5.6806294827137602 #
point $-1 53.021637623218481 -22.124684867656605 -5.6806294827137602 #
straight-curve $-1 -53.021637623218481 0 5.6806294827137602 0 -1 0 I I #
point $-1 -53.021637623218481 22.124684867656605 5.6806294827137602 #
point $-1 -53.021637623218481 -22.124684867656605 5.6806294827137602 #
straight-curve $-1 53.021637623218481 -22.124684867656605 0 0 0 -1 I I #
straight-curve $-1 53.021637623218481 22.124684867656605 0 0 0 -1 I I #
plane-surface $-1 0 22.124684867656605 0 0 -1 0 0 0 -1 forward_v I I I I #
coedge $-1 $318 $317 $227 $310 forward $222 $-1 #
straight-curve $-1 -45.855369323190459 -22.124684867656605 -1.5449178491587523 0 0 1 I I #
edge $-1 $313 -22.124684867656605 $311 22.124684867656605 $308 $353 forward 7 unknown #
vertex $-1 $228 $354 #
straight-curve $-1 -24.719251736602235 -22.124684867656605 -4.6439256934922524 1 0 0 I I #
vertex $-1 $230 $355 #
straight-curve $-1 -24.719251736602235 22.124684867656605 -4.6439256934922524 -1 0 0 I I #
point $-1 -45.855369323190459 22.124684867656605 -4.6439256934922524 #
point $-1 -45.855369323190459 -22.124684867656605 -4.6439256934922524 #
coedge $-1 $308 $234 $237 $320 forward $222 $-1 #
coedge $-1 $234 $308 $241 $322 reversed $222 $-1 #
straight-curve $-1 -53.021637623218481 0 -1.5357457031427568 0 1 0 I I #
edge $-1 $239 1.5357457031427568 $313 4.6439256934922524 $237 $356 forward 7 unknown #
point $-1 -53.021637623218481 22.124684867656605 -1.5357457031427568 #
edge $-1 $242 1.5357457031427568 $311 4.6439256934922524 $318 $357 forward 7 unknown #
point $-1 -53.021637623218481 -22.124684867656605 -1.5357457031427568 #
straight-curve $-1 -45.855369323190459 22.124684867656605 -1.5449178491587523 0 0 -1 I I #
coedge $-1 $258 $257 $250 $326 forward $247 $-1 #
edge $-1 $327 40.157220405352909 $330 44.274319791517584 $325 $358 forward 7 unknown #
vertex $-1 $262 $359 #
straight-curve $-1 -8.686797869879495 46.709852243778087 5.680629482713762 0 1 0 I I #
edge $-1 $330 1.4653453646487726 $259 12.977559645812672 $258 $360 forward 7 unknown #
vertex $-1 $329 $361 #
straight-curve $-1 -8.686797869879495 0.67216533883105001 40.26490123295477 0 -0.48480960649040278 0.87461971476443456 I I #
point $-1 -8.686797869879495 19.842539496824248 5.680629482713762 #
point $-1 -20.199012151043394 22.124684867656605 1.563530096549087 #
straight-curve $-1 0 22.124684867656605 5.6806294827137602 -1 0 0 I I #
vertex $-1 $265 $362 #
point $-1 -13.942905010461452 19.418868479157432 2.7547282239806266 #
coedge $-1 $280 $279 $272 $338 forward $269 $-1 #
edge $-1 $339 40.157220405352909 $342 44.274319791517584 $337 $363 forward 7 unknown #
vertex $-1 $284 $364 #
straight-curve $-1 27.365280451071417 46.709852243778087 5.680629482713762 0 1 0 I I #
edge $-1 $342 -16.560693795826683 $281 -5.0484795146627839 $280 $365 forward 7 unknown #
vertex $-1 $341 $366 #
straight-curve $-1 27.365280451071417 0.67216533883105001 40.26490123295477 0 -0.48480960649040278 0.87461971476443456 I I #
point $-1 27.365280451071417 19.842539496824248 5.680629482713762 #
point $-1 15.853066169907517 22.124684867656605 1.563530096549087 #
straight-curve $-1 0 22.124684867656605 5.6806294827137602 -1 0 0 I I #
vertex $-1 $287 $367 #
point $-1 22.109173310489467 19.418868479157432 2.7547282239806266 #
straight-curve $-1 -53.021637623218481 22.124684867656605 0 0 0 -1 I I #
point $-1 -53.021637623218481 -22.124684867656605 -5.6806294827137602 #
straight-curve $-1 -53.021637623218481 0 -5.6806294827137602 0 1 0 I I #
point $-1 -53.021637623218481 22.124684867656605 -5.6806294827137602 #
straight-curve $-1 -53.021637623218481 0 -4.6439256934922524 0 -1 0 I I #
point $-1 -53.021637623218481 -22.124684867656605 -4.6439256934922524 #
point $-1 -53.021637623218481 22.124684867656605 -4.6439256934922524 #
straight-curve $-1 -53.021637623218481 22.124684867656605 0 0 0 -1 I I #
straight-curve $-1 -53.021637623218481 -22.124684867656605 0 0 0 -1 I I #
straight-curve $-1 -8.686797869879495 22.124684867656605 45.837849888066671 0 0 -1 I I #
point $-1 -8.686797869879495 22.124684867656605 5.6806294827137602 #
straight-curve $-1 -7.2214525052307224 22.124684867656605 1.5635300965490941 -1 0 0 I I #
point $-1 -8.686797869879495 22.124684867656605 1.563530096549087 #
point $-1 -14.442905010461452 18.981558621775214 2.512323420735425 #
straight-curve $-1 27.365280451071417 22.124684867656605 45.837849888066671 0 0 -1 I I #
point $-1 27.365280451071417 22.124684867656605 5.6806294827137602 #
straight-curve $-1 10.804586655244734 22.124684867656605 1.5635300965490941 -1 0 0 I I #
point $-1 27.365280451071417 22.124684867656605 1.563530096549087 #
point $-1 21.609173310489467 18.981558621775214 2.512323420735425 #
End-of-ACIS-data 