500 0 6 0           
7 Unknown 11 ACIS 5.0 NT 24 Thu Mar 25 16:55:03 1999 
-1 9.9999999999999995e-007 1e-010 
body $-1 $6 $-1 $7 #
body $-1 $8 $-1 $9 #
body $-1 $10 $-1 $11 #
body $-1 $12 $-1 $13 #
body $-1 $14 $-1 $15 #
body $-1 $16 $-1 $17 #
lump $-1 $-1 $18 $0 #
transform $-1 1 0 0 0 1 0 0 0 1 42.078920865504926 19.877015315181279 4.7766833001596716 1 rotate no_reflect no_shear #
lump $-1 $-1 $19 $1 #
transform $-1 1 0 0 0 1 0 0 0 1 42.078920865504926 19.877015315181279 4.7766833001596716 1 rotate no_reflect no_shear #
lump $-1 $-1 $20 $2 #
transform $-1 1 0 0 0 1 0 0 0 1 42.078920865504926 19.877015315181279 4.7766833001596716 1 rotate no_reflect no_shear #
lump $-1 $-1 $21 $3 #
transform $-1 1 0 0 0 1 0 0 0 1 42.078920865504926 19.877015315181279 4.7766833001596716 1 rotate no_reflect no_shear #
lump $-1 $-1 $22 $4 #
transform $-1 1 0 0 0 1 0 0 0 1 42.078920865504926 19.877015315181279 4.7766833001596716 1 rotate no_reflect no_shear #
lump $-1 $-1 $23 $5 #
transform $-1 1 0 0 0 1 0 0 0 1 42.078920865504926 19.877015315181279 4.7766833001596716 1 rotate no_reflect no_shear #
shell $-1 $-1 $-1 $24 $-1 $6 #
shell $-1 $-1 $-1 $25 $-1 $8 #
shell $-1 $-1 $-1 $26 $-1 $10 #
shell $-1 $-1 $-1 $27 $-1 $12 #
shell $-1 $-1 $-1 $28 $-1 $14 #
shell $-1 $-1 $-1 $29 $-1 $16 #
face $-1 $30 $31 $18 $-1 $32 forward single #
face $-1 $33 $34 $19 $-1 $35 forward single #
face $-1 $36 $37 $20 $-1 $38 reversed single #
face $-1 $39 $40 $21 $-1 $41 forward single #
face $-1 $42 $43 $22 $-1 $44 reversed single #
face $-1 $45 $46 $23 $-1 $47 forward single #
face $-1 $48 $49 $18 $-1 $50 reversed single #
loop $-1 $-1 $51 $24 #
plane-surface $-1 0 0 4.7766833001596716 0 0 1 1 0 0 forward_v I I I I #
face $-1 $52 $53 $19 $-1 $54 reversed single #
loop $-1 $-1 $55 $25 #
plane-surface $-1 0 -19.877015315181279 0 0 1 0 0 0 1 forward_v I I I I #
face $-1 $56 $57 $20 $-1 $58 reversed single #
loop $-1 $-1 $59 $26 #
plane-surface $-1 -95.041167391236442 -12.443722026338957 65.583267754739268 0 1 0 -0.62932039886446345 0 0.77714595512881146 forward_v I I I I #
face $-1 $60 $61 $21 $-1 $62 forward single #
loop $-1 $63 $64 $27 #
cone-surface $-1 -38.156338650377023 -9.3407945531768597 1.1391706883221655 0.62932039886446345 0 -0.77714595512881146 0.77714595512881146 0 0.62932039886446345 1 I I 0 1 1 forward I I I I #
face $-1 $65 $66 $22 $-1 $67 reversed single #
loop $-1 $-1 $68 $28 #
plane-surface $-1 -95.041167391236442 10.276311038723083 65.583267754739268 0 1 0 -0.62932039886446345 0 0.77714595512881146 forward_v I I I I #
face $-1 $69 $70 $23 $-1 $71 forward single #
loop $-1 $72 $73 $29 #
cone-surface $-1 -38.156338650377023 13.37923851188518 1.1391706883221655 0.62932039886446345 0 -0.77714595512881146 0.77714595512881146 0 0.62932039886446345 1 I I 0 1 1 forward I I I I #
face $-1 $74 $75 $18 $-1 $76 reversed single #
loop $-1 $-1 $77 $30 #
plane-surface $-1 0 0 -4.7766833001596716 0 0 1 1 0 0 forward_v I I I I #
coedge $-1 $78 $79 $80 $81 forward $31 $-1 #
face $-1 $82 $83 $19 $-1 $84 reversed single #
loop $-1 $-1 $85 $33 #
plane-surface $-1 0 0 -4.7766833001596716 0 0 1 1 0 0 forward_v I I I I #
coedge $-1 $86 $87 $88 $89 forward $34 $-1 #
face $-1 $90 $91 $20 $-1 $92 reversed single #
loop $-1 $-1 $93 $36 #
plane-surface $-1 -42.078920865504934 -9.3407945531768597 0.18034146111426708 -0.62932039886446345 0 0.77714595512881146 0.77714595512881146 0 0.62932039886446345 forward_v I I I I #
coedge $-1 $94 $95 $96 $97 reversed $37 $-1 #
face $-1 $-1 $98 $21 $-1 $99 forward single #
loop $-1 $100 $101 $39 #
cone-surface $-1 -36.757100911216554 -9.3407945531768597 -0.58874398155704188 0.62932039886446345 0 -0.77714595512881146 0.38857297756440573 0 0.31466019943223172 1 I I -0.70710678118654768 0.70710678118654735 0.5 forward I I I I #
loop $-1 $-1 $102 $27 #
coedge $-1 $64 $64 $103 $104 reversed $40 $-1 #
face $-1 $105 $106 $22 $-1 $107 reversed single #
loop $-1 $-1 $108 $42 #
plane-surface $-1 -42.078920865504934 13.37923851188518 0.18034146111426708 -0.62932039886446345 0 0.77714595512881146 0.77714595512881146 0 0.62932039886446345 forward_v I I I I #
coedge $-1 $109 $110 $111 $112 reversed $43 $-1 #
face $-1 $-1 $113 $23 $-1 $114 forward single #
loop $-1 $115 $116 $45 #
cone-surface $-1 -36.757100911216554 13.37923851188518 -0.58874398155704188 0.62932039886446345 0 -0.77714595512881146 0.38857297756440573 0 0.31466019943223172 1 I I -0.70710678118654768 0.70710678118654735 0.5 forward I I I I #
loop $-1 $-1 $117 $29 #
coedge $-1 $73 $73 $118 $119 reversed $46 $-1 #
face $-1 $120 $121 $18 $-1 $122 reversed single #
loop $-1 $-1 $123 $48 #
plane-surface $-1 0 -19.877015315181279 0 0 1 0 0 0 1 forward_v I I I I #
coedge $-1 $124 $125 $126 $127 forward $49 $-1 #
coedge $-1 $128 $51 $129 $130 forward $31 $-1 #
coedge $-1 $51 $128 $131 $132 forward $31 $-1 #
coedge $-1 $133 $134 $51 $81 reversed $135 $-1 #
edge $-1 $136 -19.877015315181279 $137 19.877015315181279 $80 $138 forward 7 unknown #
face $-1 $139 $140 $19 $-1 $141 forward single #
loop $-1 $-1 $142 $52 #
plane-surface $-1 42.078920865504926 0 0 -1 0 0 0 0 1 forward_v I I I I #
coedge $-1 $143 $144 $145 $146 forward $53 $-1 #
coedge $-1 $145 $55 $142 $147 reversed $34 $-1 #
coedge $-1 $55 $145 $148 $149 reversed $34 $-1 #
coedge $-1 $150 $151 $55 $89 reversed $140 $-1 #
edge $-1 $152 -42.078920865504926 $153 42.078920865504926 $88 $154 forward 7 unknown #
face $-1 $155 $156 $20 $-1 $157 forward single #
loop $-1 $-1 $158 $56 #
plane-surface $-1 -95.041167391236442 -6.2378670800147624 65.583267754739268 0 -1 0 0.62932039886446345 0 -0.77714595512881146 forward_v I I I I #
coedge $-1 $159 $160 $161 $162 reversed $57 $-1 #
coedge $-1 $95 $59 $163 $164 reversed $37 $-1 #
coedge $-1 $59 $94 $159 $165 reversed $37 $-1 #
coedge $-1 $161 $166 $59 $97 forward $156 $-1 #
edge $-1 $167 5.4416628301132945 $168 11.117672180912614 $96 $169 forward 7 unknown #
loop $-1 $-1 $103 $60 #
plane-surface $-1 -42.078920865504934 -9.3407945531768597 0.18034146111426708 -0.62932039886446345 0 0.77714595512881146 0.77714595512881146 0 0.62932039886446345 forward_v I I I I #
loop $-1 $-1 $170 $39 #
coedge $-1 $101 $101 $102 $171 reversed $61 $-1 #
coedge $-1 $102 $102 $101 $171 forward $63 $-1 #
coedge $-1 $103 $103 $64 $104 forward $98 $-1 #
edge $-1 $172 0 $172 6.2831853071796004 $103 $173 forward 7 unknown #
face $-1 $174 $175 $22 $-1 $176 forward single #
loop $-1 $-1 $177 $65 #
plane-surface $-1 -95.041167391236442 16.482165985047278 65.583267754739268 0 -1 0 0.62932039886446345 0 -0.77714595512881146 forward_v I I I I #
coedge $-1 $178 $179 $180 $181 reversed $66 $-1 #
coedge $-1 $110 $68 $182 $183 reversed $43 $-1 #
coedge $-1 $68 $109 $178 $184 reversed $43 $-1 #
coedge $-1 $180 $185 $68 $112 forward $175 $-1 #
edge $-1 $186 5.4416628301132945 $187 11.117672180912614 $111 $188 forward 7 unknown #
loop $-1 $-1 $118 $69 #
plane-surface $-1 -42.078920865504934 13.37923851188518 0.18034146111426708 -0.62932039886446345 0 0.77714595512881146 0.77714595512881146 0 0.62932039886446345 forward_v I I I I #
loop $-1 $-1 $189 $45 #
coedge $-1 $116 $116 $117 $190 reversed $70 $-1 #
coedge $-1 $117 $117 $116 $190 forward $72 $-1 #
coedge $-1 $118 $118 $73 $119 forward $113 $-1 #
edge $-1 $191 0 $191 6.2831853071796004 $118 $192 forward 7 unknown #
face $-1 $193 $194 $18 $-1 $195 reversed single #
loop $-1 $-1 $196 $74 #
plane-surface $-1 -42.078920865504926 0 0 1 0 0 0 0 -1 forward_v I I I I #
coedge $-1 $131 $197 $133 $198 reversed $75 $-1 #
coedge $-1 $199 $77 $197 $200 forward $49 $-1 #
coedge $-1 $77 $199 $201 $202 forward $49 $-1 #
coedge $-1 $134 $133 $77 $127 reversed $135 $-1 #
edge $-1 $203 -19.877015315181279 $204 19.877015315181279 $126 $205 forward 7 unknown #
coedge $-1 $79 $78 $206 $207 forward $31 $-1 #
coedge $-1 $208 $209 $78 $130 reversed $194 $-1 #
edge $-1 $137 -42.078920865504926 $210 42.078920865504926 $129 $211 forward 7 unknown #
coedge $-1 $212 $123 $79 $132 reversed $75 $-1 #
edge $-1 $213 -42.078920865504926 $136 42.078920865504926 $131 $214 forward 7 unknown #
coedge $-1 $126 $80 $123 $198 forward $135 $-1 #
coedge $-1 $80 $126 $208 $215 reversed $135 $-1 #
loop $-1 $-1 $133 $193 #
vertex $-1 $81 $216 #
vertex $-1 $81 $217 #
straight-curve $-1 42.078920865504926 0 4.7766833001596716 0 1 0 I I #
face $-1 $218 $219 $19 $-1 $220 reversed single #
loop $-1 $-1 $151 $82 #
plane-surface $-1 0 -21.896237294535435 -1.7766833001596716 0 0 1 1 0 0 forward_v I I I I #
coedge $-1 $221 $222 $86 $147 forward $83 $-1 #
coedge $-1 $223 $85 $222 $224 forward $53 $-1 #
coedge $-1 $85 $223 $225 $226 forward $53 $-1 #
coedge $-1 $87 $86 $85 $146 reversed $34 $-1 #
edge $-1 $227 -42.078920865504926 $228 42.078920865504926 $85 $229 forward 7 unknown #
edge $-1 $228 -4.7766833001596716 $153 -1.7766833001596716 $142 $230 forward 7 unknown #
coedge $-1 $225 $231 $87 $149 forward $232 $-1 #
edge $-1 $152 1.7766833001596716 $227 4.7766833001596716 $148 $233 forward 7 unknown #
coedge $-1 $234 $88 $231 $235 forward $140 $-1 #
coedge $-1 $88 $234 $221 $236 forward $140 $-1 #
vertex $-1 $149 $237 #
vertex $-1 $236 $238 #
straight-curve $-1 0 -19.877015315181279 -1.7766833001596716 1 0 0 I I #
face $-1 $-1 $239 $20 $-1 $240 reversed single #
loop $-1 $-1 $96 $90 #
plane-surface $-1 0 0 4.7766833001596716 0 0 1 1 0 0 forward_v I I I I #
coedge $-1 $241 $242 $243 $244 reversed $91 $-1 #
coedge $-1 $245 $93 $95 $165 forward $57 $-1 #
coedge $-1 $93 $245 $241 $246 forward $57 $-1 #
coedge $-1 $243 $96 $93 $162 forward $156 $-1 #
edge $-1 $168 -7.7733247497505271 $247 -1.5674698034263326 $161 $248 forward 7 unknown #
coedge $-1 $249 $250 $94 $164 forward $239 $-1 #
edge $-1 $251 -32.61129241625536 $167 -28.014950577209962 $163 $252 forward 7 unknown #
edge $-1 $168 -7.3036593877124822 $251 -9.137654163269272e-015 $95 $253 forward 7 unknown #
coedge $-1 $96 $243 $249 $254 forward $156 $-1 #
vertex $-1 $164 $255 #
vertex $-1 $97 $256 #
straight-curve $-1 -47.520583695618221 -12.443722026338957 4.7766833001596716 1 0 0 I I #
coedge $-1 $170 $170 $-1 $257 reversed $100 $-1 #
edge $-1 $258 0 $258 6.2831853071796004 $101 $259 forward 7 unknown #
vertex $-1 $104 $260 #
ellipse-curve $-1 -39.240916190105267 -9.3407945531768597 2.4785123806369729 -0.62932039886446345 0 0.77714595512881146 0.77714595512881146 0 0.62932039886446345 1 I I #
face $-1 $-1 $261 $22 $-1 $262 reversed single #
loop $-1 $-1 $111 $105 #
plane-surface $-1 0 0 4.7766833001596716 0 0 1 1 0 0 forward_v I I I I #
coedge $-1 $263 $264 $265 $266 reversed $106 $-1 #
coedge $-1 $267 $108 $110 $184 forward $66 $-1 #
coedge $-1 $108 $267 $263 $268 forward $66 $-1 #
coedge $-1 $265 $111 $108 $181 forward $175 $-1 #
edge $-1 $187 3.5866917827804929 $269 9.7925467291046875 $180 $270 forward 7 unknown #
coedge $-1 $271 $272 $109 $183 forward $261 $-1 #
edge $-1 $273 -32.61129241625536 $186 -28.014950577209962 $182 $274 forward 7 unknown #
edge $-1 $187 -7.3036593877124822 $273 -9.137654163269272e-015 $110 $275 forward 7 unknown #
coedge $-1 $111 $265 $271 $276 forward $175 $-1 #
vertex $-1 $112 $277 #
vertex $-1 $112 $278 #
straight-curve $-1 -47.520583695618221 10.276311038723083 4.7766833001596716 1 0 0 I I #
coedge $-1 $189 $189 $-1 $279 reversed $115 $-1 #
edge $-1 $280 0 $280 6.2831853071796004 $116 $281 forward 7 unknown #
vertex $-1 $119 $282 #
ellipse-curve $-1 -39.240916190105267 13.37923851188518 2.4785123806369729 -0.62932039886446345 0 0.77714595512881146 0.77714595512881146 0 0.62932039886446345 1 I I #
face $-1 $-1 $135 $18 $-1 $283 reversed single #
loop $-1 $-1 $208 $120 #
plane-surface $-1 0 19.877015315181279 0 0 -1 0 0 0 -1 forward_v I I I I #
coedge $-1 $284 $206 $209 $285 forward $121 $-1 #
coedge $-1 $123 $212 $124 $200 reversed $75 $-1 #
edge $-1 $136 -4.7766833001596716 $204 4.7766833001596716 $133 $286 forward 7 unknown #
coedge $-1 $125 $124 $284 $287 forward $49 $-1 #
edge $-1 $204 -42.078920865504926 $288 42.078920865504926 $197 $289 forward 7 unknown #
coedge $-1 $209 $208 $125 $202 reversed $194 $-1 #
edge $-1 $290 -42.078920865504926 $203 42.078920865504926 $201 $291 forward 7 unknown #
vertex $-1 $127 $292 #
vertex $-1 $198 $293 #
straight-curve $-1 42.078920865504926 0 -4.7766833001596716 0 -1 0 I I #
coedge $-1 $196 $294 $128 $207 reversed $121 $-1 #
edge $-1 $210 -19.877015315181279 $213 19.877015315181279 $206 $295 forward 7 unknown #
coedge $-1 $201 $129 $134 $215 forward $194 $-1 #
coedge $-1 $129 $201 $196 $285 reversed $194 $-1 #
vertex $-1 $130 $296 #
straight-curve $-1 0 19.877015315181279 4.7766833001596716 -1 0 0 I I #
coedge $-1 $197 $131 $294 $297 forward $75 $-1 #
vertex $-1 $207 $298 #
straight-curve $-1 0 -19.877015315181279 4.7766833001596716 1 0 0 I I #
edge $-1 $137 -4.7766833001596716 $203 4.7766833001596716 $134 $299 forward 7 unknown #
point $-1 42.078920865504926 -19.877015315181279 4.7766833001596716 #
point $-1 42.078920865504926 19.877015315181279 4.7766833001596716 #
face $-1 $-1 $232 $19 $-1 $300 reversed single #
loop $-1 $-1 $301 $139 #
plane-surface $-1 0 -23.915459273889592 -3.2766833001596716 0 1 0 0 0 1 forward_v I I I I #
coedge $-1 $302 $142 $151 $236 reversed $83 $-1 #
coedge $-1 $142 $302 $143 $224 reversed $83 $-1 #
coedge $-1 $144 $143 $303 $304 forward $53 $-1 #
edge $-1 $228 19.877015315181279 $305 23.915459273889592 $222 $306 forward 7 unknown #
coedge $-1 $307 $148 $144 $226 reversed $232 $-1 #
edge $-1 $308 -23.915459273889592 $227 -19.877015315181279 $225 $309 forward 7 unknown #
vertex $-1 $149 $310 #
vertex $-1 $224 $311 #
straight-curve $-1 0 -19.877015315181279 -4.7766833001596716 1 0 0 I I #
straight-curve $-1 42.078920865504926 -19.877015315181279 0 0 0 1 I I #
coedge $-1 $148 $307 $150 $235 reversed $232 $-1 #
loop $-1 $-1 $148 $218 #
straight-curve $-1 -42.078920865504926 -19.877015315181279 0 0 0 -1 I I #
coedge $-1 $151 $150 $312 $313 forward $140 $-1 #
edge $-1 $152 -2.0192219793541568 $314 2.0192219793541568 $231 $315 forward 7 unknown #
edge $-1 $316 -2.0192219793541568 $153 2.0192219793541568 $221 $317 forward 7 unknown #
point $-1 -42.078920865504926 -19.877015315181279 -1.7766833001596716 #
point $-1 42.078920865504926 -19.877015315181279 -1.7766833001596716 #
loop $-1 $-1 $163 $155 #
plane-surface $-1 -42.078920865504926 0 0 1 0 0 0 0 -1 forward_v I I I I #
coedge $-1 $242 $158 $160 $246 reversed $91 $-1 #
coedge $-1 $158 $241 $318 $319 reversed $91 $-1 #
coedge $-1 $166 $161 $158 $244 forward $156 $-1 #
edge $-1 $247 -11.117672180912614 $320 -5.4416628301132945 $243 $321 forward 7 unknown #
coedge $-1 $160 $159 $250 $322 reversed $57 $-1 #
edge $-1 $323 9.137654163269272e-015 $247 7.3036593877124822 $241 $324 forward 7 unknown #
vertex $-1 $162 $325 #
straight-curve $-1 -36.402911514705607 -4.6703972765884298 4.7766833001596707 0 1 0 I I #
coedge $-1 $318 $163 $166 $254 reversed $239 $-1 #
coedge $-1 $163 $318 $245 $322 forward $239 $-1 #
vertex $-1 $164 $326 #
straight-curve $-1 -42.078920865504926 -12.443722026338957 32.791633877369634 0 0 1 I I #
straight-curve $-1 -42.078920865504934 -12.443722026338957 0.18034146111426708 -0.77714595512881146 0 -0.62932039886446345 I I #
edge $-1 $320 6.2378670800147624 $167 12.443722026338957 $249 $327 forward 7 unknown #
point $-1 -42.078920865504926 -12.443722026338957 4.7766833001596716 #
point $-1 -36.402911514705607 -12.443722026338957 4.7766833001596716 #
edge $-1 $328 1 $328 0 $170 $-1 forward 7 unknown #
vertex $-1 $171 $329 #
ellipse-curve $-1 -37.071761110648787 -9.3407945531768597 -0.20017100399263632 -0.62932039886446345 0 0.77714595512881146 0.77714595512881146 0 0.62932039886446345 1 I I #
point $-1 -38.463770234976444 -9.3407945531768597 3.1078327795014311 #
loop $-1 $-1 $182 $174 #
plane-surface $-1 -42.078920865504926 0 0 1 0 0 0 0 -1 forward_v I I I I #
coedge $-1 $264 $177 $179 $268 reversed $106 $-1 #
coedge $-1 $177 $263 $330 $331 reversed $106 $-1 #
coedge $-1 $185 $180 $177 $266 forward $175 $-1 #
edge $-1 $269 -11.117672180912614 $332 -5.4416628301132945 $265 $333 forward 7 unknown #
coedge $-1 $179 $178 $272 $334 reversed $66 $-1 #
edge $-1 $335 9.137654163269272e-015 $269 7.3036593877124822 $263 $336 forward 7 unknown #
vertex $-1 $181 $337 #
straight-curve $-1 -36.402911514705607 6.6896192559425902 4.7766833001596707 0 1 0 I I #
coedge $-1 $330 $182 $185 $276 reversed $261 $-1 #
coedge $-1 $182 $330 $267 $334 forward $261 $-1 #
vertex $-1 $183 $338 #
straight-curve $-1 -42.078920865504926 10.276311038723083 32.791633877369634 0 0 1 I I #
straight-curve $-1 -42.078920865504934 10.276311038723083 0.18034146111426708 -0.77714595512881146 0 -0.62932039886446345 I I #
edge $-1 $332 -16.482165985047278 $186 -10.276311038723083 $271 $339 forward 7 unknown #
point $-1 -42.078920865504926 10.276311038723083 4.7766833001596716 #
point $-1 -36.402911514705607 10.276311038723083 4.7766833001596716 #
edge $-1 $340 1 $340 0 $189 $-1 forward 7 unknown #
vertex $-1 $190 $341 #
ellipse-curve $-1 -37.071761110648787 13.37923851188518 -0.20017100399263632 -0.62932039886446345 0 0.77714595512881146 0.77714595512881146 0 0.62932039886446345 1 I I #
point $-1 -38.463770234976444 13.37923851188518 3.1078327795014311 #
plane-surface $-1 42.078920865504926 0 0 -1 0 0 0 0 1 forward_v I I I I #
coedge $-1 $294 $196 $199 $287 reversed $121 $-1 #
edge $-1 $210 -4.7766833001596716 $290 4.7766833001596716 $209 $342 forward 7 unknown #
straight-curve $-1 42.078920865504926 -19.877015315181279 0 0 0 -1 I I #
edge $-1 $288 -19.877015315181279 $290 19.877015315181279 $284 $343 forward 7 unknown #
vertex $-1 $287 $344 #
straight-curve $-1 0 -19.877015315181279 -4.7766833001596716 -1 0 0 I I #
vertex $-1 $202 $345 #
straight-curve $-1 0 19.877015315181279 -4.7766833001596716 1 0 0 I I #
point $-1 42.078920865504926 19.877015315181279 -4.7766833001596716 #
point $-1 42.078920865504926 -19.877015315181279 -4.7766833001596716 #
coedge $-1 $206 $284 $212 $297 reversed $121 $-1 #
straight-curve $-1 -42.078920865504926 0 4.7766833001596716 0 -1 0 I I #
point $-1 -42.078920865504926 19.877015315181279 4.7766833001596716 #
edge $-1 $213 -4.7766833001596716 $288 4.7766833001596716 $294 $346 forward 7 unknown #
point $-1 -42.078920865504926 -19.877015315181279 4.7766833001596716 #
straight-curve $-1 42.078920865504926 19.877015315181279 0 0 0 -1 I I #
plane-surface $-1 -42.078920865504926 0 0 1 0 0 0 0 -1 forward_v I I I I #
coedge $-1 $303 $312 $307 $347 forward $219 $-1 #
coedge $-1 $222 $221 $348 $349 forward $83 $-1 #
coedge $-1 $348 $301 $223 $304 reversed $219 $-1 #
edge $-1 $305 -42.078920865504926 $308 42.078920865504926 $303 $350 forward 7 unknown #
vertex $-1 $349 $351 #
straight-curve $-1 42.078920865504926 0 -4.7766833001596716 0 -1 0 I I #
coedge $-1 $231 $225 $301 $347 reversed $232 $-1 #
vertex $-1 $226 $352 #
straight-curve $-1 -42.078920865504926 0 -4.7766833001596716 0 1 0 I I #
point $-1 -42.078920865504926 -19.877015315181279 -4.7766833001596716 #
point $-1 42.078920865504926 -19.877015315181279 -4.7766833001596716 #
coedge $-1 $301 $348 $234 $313 reversed $219 $-1 #
edge $-1 $314 -42.078920865504926 $316 42.078920865504926 $312 $353 forward 7 unknown #
vertex $-1 $235 $354 #
straight-curve $-1 -42.078920865504926 -21.896237294535435 -1.7766833001596716 0 -1 0 I I #
vertex $-1 $236 $355 #
straight-curve $-1 42.078920865504926 -21.896237294535435 -1.7766833001596716 0 1 0 I I #
coedge $-1 $250 $249 $242 $319 forward $239 $-1 #
edge $-1 $320 28.014950577209962 $323 32.61129241625536 $318 $356 forward 7 unknown #
vertex $-1 $254 $357 #
straight-curve $-1 -47.520583695618221 -6.2378670800147624 4.7766833001596716 -1 0 0 I I #
edge $-1 $323 1.5674698034263326 $251 7.7733247497505271 $250 $358 forward 7 unknown #
vertex $-1 $322 $359 #
straight-curve $-1 -42.078920865504934 -6.2378670800147624 0.18034146111426708 0.77714595512881146 0 0.62932039886446345 I I #
point $-1 -36.402911514705607 -6.2378670800147624 4.7766833001596716 #
point $-1 -42.078920865504926 -12.443722026338957 0.18034146111427282 #
straight-curve $-1 -42.078920865504926 0 4.7766833001596716 0 -1 0 I I #
vertex $-1 $257 $360 #
point $-1 -36.294615155519978 -9.3407945531768597 0.42914939487182702 #
coedge $-1 $272 $271 $264 $331 forward $261 $-1 #
edge $-1 $332 28.014950577209962 $335 32.61129241625536 $330 $361 forward 7 unknown #
vertex $-1 $276 $362 #
straight-curve $-1 -47.520583695618221 16.482165985047278 4.7766833001596716 -1 0 0 I I #
edge $-1 $335 -9.7925467291046875 $273 -3.5866917827804929 $272 $363 forward 7 unknown #
vertex $-1 $334 $364 #
straight-curve $-1 -42.078920865504934 16.482165985047278 0.18034146111426708 0.77714595512881146 0 0.62932039886446345 I I #
point $-1 -36.402911514705607 16.482165985047278 4.7766833001596716 #
point $-1 -42.078920865504926 10.276311038723083 0.18034146111427282 #
straight-curve $-1 -42.078920865504926 0 4.7766833001596716 0 -1 0 I I #
vertex $-1 $279 $365 #
point $-1 -36.294615155519978 13.37923851188518 0.42914939487182702 #
straight-curve $-1 -42.078920865504926 19.877015315181279 0 0 0 -1 I I #
straight-curve $-1 -42.078920865504926 0 -4.7766833001596716 0 1 0 I I #
point $-1 -42.078920865504926 -19.877015315181279 -4.7766833001596716 #
point $-1 -42.078920865504926 19.877015315181279 -4.7766833001596716 #
straight-curve $-1 -42.078920865504926 -19.877015315181279 0 0 0 -1 I I #
edge $-1 $314 -1.5 $308 1.5 $307 $366 forward 7 unknown #
coedge $-1 $312 $303 $302 $349 reversed $219 $-1 #
edge $-1 $316 -1.5 $305 1.5 $302 $367 forward 7 unknown #
straight-curve $-1 0 -23.915459273889592 -4.7766833001596716 -1 0 0 I I #
point $-1 42.078920865504926 -23.915459273889592 -4.7766833001596716 #
point $-1 -42.078920865504926 -23.915459273889592 -4.7766833001596716 #
straight-curve $-1 0 -23.915459273889592 -1.7766833001596716 1 0 0 I I #
point $-1 -42.078920865504926 -23.915459273889592 -1.7766833001596716 #
point $-1 42.078920865504926 -23.915459273889592 -1.7766833001596716 #
straight-curve $-1 -42.078920865504926 -6.2378670800147624 32.791633877369634 0 0 -1 I I #
point $-1 -42.078920865504926 -6.2378670800147624 4.7766833001596716 #
straight-curve $-1 -42.078920865504926 -4.6703972765884298 0.18034146111426852 0 -1 0 I I #
point $-1 -42.078920865504926 -6.2378670800147624 0.18034146111427282 #
point $-1 -36.442440711784322 -9.3407945531768597 -0.97731695912144745 #
straight-curve $-1 -42.078920865504926 16.482165985047278 32.791633877369634 0 0 -1 I I #
point $-1 -42.078920865504926 16.482165985047278 4.7766833001596716 #
straight-curve $-1 -42.078920865504926 6.6896192559425902 0.18034146111426852 0 -1 0 I I #
point $-1 -42.078920865504926 16.482165985047278 0.18034146111427282 #
point $-1 -36.442440711784322 13.37923851188518 -0.97731695912144745 #
straight-curve $-1 -42.078920865504926 -23.915459273889592 -3.2766833001596716 0 0 -1 I I #
straight-curve $-1 42.078920865504926 -23.915459273889592 -3.2766833001596716 0 0 -1 I I #
End-of-ACIS-data 