500 0 12 0           
7 Unknown 11 ACIS 5.0 NT 24 Fri Mar 26 17:21:08 1999 
-1 9.9999999999999995e-007 1e-010 
body $-1 $12 $-1 $13 #
body $-1 $14 $-1 $15 #
body $-1 $16 $-1 $17 #
body $-1 $18 $-1 $19 #
body $-1 $20 $-1 $21 #
body $-1 $22 $-1 $23 #
body $-1 $24 $-1 $25 #
body $-1 $26 $-1 $27 #
body $-1 $28 $-1 $29 #
body $-1 $30 $-1 $31 #
body $-1 $32 $-1 $33 #
body $-1 $34 $-1 $35 #
lump $-1 $-1 $36 $0 #
transform $-1 1 0 0 0 1 0 0 0 1 59.888302255317853 40.457822501098377 17.581193895547042 1 rotate no_reflect no_shear #
lump $-1 $-1 $37 $1 #
transform $-1 1 0 0 0 1 0 0 0 1 59.888302255317853 40.457822501098377 17.581193895547042 1 rotate no_reflect no_shear #
lump $-1 $-1 $38 $2 #
transform $-1 1 0 0 0 1 0 0 0 1 59.888302255317853 40.457822501098377 17.581193895547042 1 rotate no_reflect no_shear #
lump $-1 $-1 $39 $3 #
transform $-1 1 0 0 0 1 0 0 0 1 59.888302255317853 40.457822501098377 17.581193895547042 1 rotate no_reflect no_shear #
lump $-1 $-1 $40 $4 #
transform $-1 1 0 0 0 1 0 0 0 1 59.888302255317853 40.457822501098377 17.581193895547042 1 rotate no_reflect no_shear #
lump $-1 $-1 $41 $5 #
transform $-1 1 0 0 0 1 0 0 0 1 59.888302255317853 40.457822501098377 17.581193895547042 1 rotate no_reflect no_shear #
lump $-1 $-1 $42 $6 #
transform $-1 1 0 0 0 1 0 0 0 1 59.888302255317853 40.457822501098377 17.581193895547042 1 rotate no_reflect no_shear #
lump $-1 $-1 $43 $7 #
transform $-1 1 0 0 0 1 0 0 0 1 59.888302255317853 40.457822501098377 17.581193895547042 1 rotate no_reflect no_shear #
lump $-1 $-1 $44 $8 #
transform $-1 1 0 0 0 1 0 0 0 1 59.888302255317853 40.457822501098377 17.581193895547042 1 rotate no_reflect no_shear #
lump $-1 $-1 $45 $9 #
transform $-1 1 0 0 0 1 0 0 0 1 59.888302255317853 40.457822501098377 17.581193895547042 1 rotate no_reflect no_shear #
lump $-1 $-1 $46 $10 #
transform $-1 1 0 0 0 1 0 0 0 1 59.888302255317853 40.457822501098377 17.581193895547042 1 rotate no_reflect no_shear #
lump $-1 $-1 $47 $11 #
transform $-1 1 0 0 0 1 0 0 0 1 59.888302255317853 40.457822501098377 17.581193895547042 1 rotate no_reflect no_shear #
shell $-1 $-1 $-1 $48 $-1 $12 #
shell $-1 $-1 $-1 $49 $-1 $14 #
shell $-1 $-1 $-1 $50 $-1 $16 #
shell $-1 $-1 $-1 $51 $-1 $18 #
shell $-1 $-1 $-1 $52 $-1 $20 #
shell $-1 $-1 $-1 $53 $-1 $22 #
shell $-1 $-1 $-1 $54 $-1 $24 #
shell $-1 $-1 $-1 $55 $-1 $26 #
shell $-1 $-1 $-1 $56 $-1 $28 #
shell $-1 $-1 $-1 $57 $-1 $30 #
shell $-1 $-1 $-1 $58 $-1 $32 #
shell $-1 $-1 $-1 $59 $-1 $34 #
face $-1 $60 $61 $36 $-1 $62 forward single #
face $-1 $63 $64 $37 $-1 $65 forward single #
face $-1 $66 $67 $38 $-1 $68 reversed single #
face $-1 $69 $70 $39 $-1 $71 reversed single #
face $-1 $72 $73 $40 $-1 $74 forward single #
face $-1 $75 $76 $41 $-1 $77 forward single #
face $-1 $78 $79 $42 $-1 $80 reversed single #
face $-1 $81 $82 $43 $-1 $83 forward single #
face $-1 $84 $85 $44 $-1 $86 forward single #
face $-1 $87 $88 $45 $-1 $89 reversed single #
face $-1 $90 $91 $46 $-1 $92 forward single #
face $-1 $93 $94 $47 $-1 $95 forward single #
face $-1 $96 $97 $36 $-1 $98 reversed single #
loop $-1 $-1 $99 $48 #
plane-surface $-1 0 0 17.581193895547042 0 0 1 1 0 0 forward_v I I I I #
face $-1 $100 $101 $37 $-1 $102 reversed single #
loop $-1 $-1 $103 $49 #
plane-surface $-1 0 -32.013730726753742 9.550288262241569 0 0 1 1 0 0 forward_v I I I I #
face $-1 $104 $105 $38 $-1 $106 forward single #
loop $-1 $-1 $107 $50 #
plane-surface $-1 0 23.569638952409115 7.1484139840526488 0 1 0 0 0 1 forward_v I I I I #
face $-1 $108 $109 $39 $-1 $110 reversed single #
loop $-1 $-1 $111 $51 #
plane-surface $-1 95.106403323824367 -11.781818227048522 169.38204103208005 0 1 0 0.83867057594974714 0 0.54463902268945019 forward_v I I I I #
face $-1 $112 $113 $40 $-1 $114 forward single #
loop $-1 $115 $116 $52 #
cone-surface $-1 54.714194903346915 -8.4155844478918027 10.205792174986472 -0.83867057594974714 0 -0.54463902268945019 0.54463902268945019 0 -0.83867057594974714 1 I I 0 1 1 forward I I I I #
face $-1 $117 $118 $41 $-1 $119 forward single #
loop $-1 $120 $121 $53 #
cone-surface $-1 54.714194903346915 -3.3662337791567154 10.205792174986472 -0.83867057594974714 0 -0.54463902268945019 0.54463902268945019 0 -0.83867057594974714 1 I I 0 1 1 forward I I I I #
face $-1 $122 $123 $42 $-1 $124 reversed single #
loop $-1 $-1 $125 $54 #
plane-surface $-1 95.106403323824367 11.787820725360586 169.38204103208005 0 1 0 0.83867057594974714 0 0.54463902268945019 forward_v I I I I #
face $-1 $126 $127 $43 $-1 $128 forward single #
loop $-1 $129 $130 $55 #
cone-surface $-1 54.714194903346915 15.154054504517305 10.205792174986472 -0.83867057594974714 0 -0.54463902268945019 0.54463902268945019 0 -0.83867057594974714 1 I I 0 1 1 forward I I I I #
face $-1 $131 $132 $44 $-1 $133 forward single #
loop $-1 $134 $135 $56 #
cone-surface $-1 54.714194903346915 20.203405173252392 10.205792174986472 -0.83867057594974714 0 -0.54463902268945019 0.54463902268945019 0 -0.83867057594974714 1 I I 0 1 1 forward I I I I #
face $-1 $136 $137 $45 $-1 $138 reversed single #
loop $-1 $-1 $139 $57 #
plane-surface $-1 -130.29122485577957 12.658777214891231 104.32251128716725 0 1 0 -0.5877852598018023 0 0.80901698891910034 forward_v I I I I #
face $-1 $140 $141 $46 $-1 $142 forward single #
loop $-1 $143 $144 $58 #
cone-surface $-1 -52.015732007156537 15.776166282753479 11.289216270444445 0.5877852598018023 0 -0.80901698891910034 0.80901698891910034 0 0.5877852598018023 1 I I 0 1 1 forward I I I I #
face $-1 $145 $146 $47 $-1 $147 forward single #
loop $-1 $148 $149 $59 #
cone-surface $-1 -52.015732007156537 20.452249884546852 11.289216270444445 0.5877852598018023 0 -0.80901698891910034 0.80901698891910034 0 0.5877852598018023 1 I I 0 1 1 forward I I I I #
face $-1 $150 $151 $36 $-1 $152 reversed single #
loop $-1 $-1 $153 $60 #
plane-surface $-1 0 0 -17.581193895547042 0 0 1 1 0 0 forward_v I I I I #
coedge $-1 $154 $155 $156 $157 forward $61 $-1 #
face $-1 $158 $159 $37 $-1 $160 reversed single #
loop $-1 $-1 $161 $63 #
plane-surface $-1 0 -32.013730726753742 4.7465397058637286 0 0 1 1 0 0 forward_v I I I I #
coedge $-1 $162 $163 $164 $165 reversed $64 $-1 #
face $-1 $166 $167 $38 $-1 $168 reversed single #
loop $-1 $-1 $169 $66 #
plane-surface $-1 0 32.013730726753749 9.550288262241569 0 0 1 1 0 0 forward_v I I I I #
coedge $-1 $170 $171 $172 $173 reversed $67 $-1 #
face $-1 $174 $175 $39 $-1 $176 reversed single #
loop $-1 $-1 $177 $69 #
plane-surface $-1 -5.3467105664155667 -5.8909091135242591 104.14702821034663 0.83867057594974714 0 0.54463902268945019 0.54463902268945019 0 -0.83867057594974714 forward_v I I I I #
coedge $-1 $178 $179 $180 $181 reversed $70 $-1 #
face $-1 $-1 $182 $40 $-1 $183 forward single #
loop $-1 $184 $185 $72 #
cone-surface $-1 53.630004520890679 -8.4155844478918027 9.5017107308013529 -0.83867057594974714 0 -0.54463902268945019 0.2723195113447251 0 -0.41933528797487357 1 I I -0.70710678118654746 0.70710678118654746 0.5 forward I I I I #
loop $-1 $-1 $186 $52 #
coedge $-1 $116 $116 $187 $188 reversed $73 $-1 #
face $-1 $-1 $189 $41 $-1 $190 forward single #
loop $-1 $191 $192 $75 #
cone-surface $-1 53.630004520890679 -3.3662337791567154 9.5017107308013529 -0.83867057594974714 0 -0.54463902268945019 0.2723195113447251 0 -0.41933528797487357 1 I I -0.70710678118654746 0.70710678118654746 0.5 forward I I I I #
loop $-1 $-1 $193 $53 #
coedge $-1 $121 $121 $194 $195 reversed $76 $-1 #
face $-1 $196 $197 $42 $-1 $198 reversed single #
loop $-1 $-1 $199 $78 #
plane-surface $-1 -5.3467105664155667 17.678729838884848 104.14702821034663 0.83867057594974714 0 0.54463902268945019 0.54463902268945019 0 -0.83867057594974714 forward_v I I I I #
coedge $-1 $200 $201 $202 $203 reversed $79 $-1 #
face $-1 $-1 $204 $43 $-1 $205 forward single #
loop $-1 $206 $207 $81 #
cone-surface $-1 53.630004520890679 15.154054504517305 9.5017107308013529 -0.83867057594974714 0 -0.54463902268945019 0.2723195113447251 0 -0.41933528797487357 1 I I -0.70710678118654746 0.70710678118654746 0.5 forward I I I I #
loop $-1 $-1 $208 $55 #
coedge $-1 $130 $130 $209 $210 reversed $82 $-1 #
face $-1 $-1 $211 $44 $-1 $212 forward single #
loop $-1 $213 $214 $84 #
cone-surface $-1 53.630004520890679 20.203405173252392 9.5017107308013529 -0.83867057594974714 0 -0.54463902268945019 0.2723195113447251 0 -0.41933528797487357 1 I I -0.70710678118654746 0.70710678118654746 0.5 forward I I I I #
loop $-1 $-1 $215 $56 #
coedge $-1 $135 $135 $216 $217 reversed $85 $-1 #
face $-1 $218 $219 $45 $-1 $220 forward single #
loop $-1 $-1 $221 $87 #
plane-surface $-1 -59.888302255317853 18.114208083650169 7.4212033630188188 -0.5877852598018023 0 0.80901698891910034 0.80901698891910034 0 0.5877852598018023 forward_v I I I I #
coedge $-1 $222 $223 $224 $225 reversed $88 $-1 #
face $-1 $-1 $226 $46 $-1 $227 forward single #
loop $-1 $228 $229 $90 #
cone-surface $-1 -50.841282633179254 15.776166282753479 9.6727254171464061 0.5877852598018023 0 -0.80901698891910034 0.40450849445955017 0 0.29389262990090115 1 I I -0.70710678118654746 0.70710678118654746 0.5 forward I I I I #
loop $-1 $-1 $230 $58 #
coedge $-1 $144 $144 $231 $232 reversed $91 $-1 #
face $-1 $-1 $233 $47 $-1 $234 forward single #
loop $-1 $235 $236 $93 #
cone-surface $-1 -50.841282633179254 20.452249884546852 9.6727254171464061 0.5877852598018023 0 -0.80901698891910034 0.40450849445955017 0 0.29389262990090115 1 I I -0.70710678118654746 0.70710678118654746 0.5 forward I I I I #
loop $-1 $-1 $237 $59 #
coedge $-1 $149 $149 $238 $239 reversed $94 $-1 #
face $-1 $240 $241 $36 $-1 $242 reversed single #
loop $-1 $-1 $243 $96 #
plane-surface $-1 0 -40.457822501098377 0 0 1 0 0 0 1 forward_v I I I I #
coedge $-1 $244 $245 $246 $247 forward $97 $-1 #
coedge $-1 $248 $99 $249 $250 forward $61 $-1 #
coedge $-1 $99 $248 $251 $252 forward $61 $-1 #
coedge $-1 $253 $254 $99 $157 reversed $255 $-1 #
edge $-1 $256 -40.457822501098377 $257 40.457822501098377 $156 $258 forward 7 unknown #
face $-1 $259 $260 $37 $-1 $261 reversed single #
loop $-1 $-1 $262 $100 #
plane-surface $-1 0 -23.569638952409107 7.1484139840526488 0 -1 0 0 0 -1 forward_v I I I I #
coedge $-1 $263 $264 $265 $266 reversed $101 $-1 #
coedge $-1 $267 $103 $268 $269 forward $64 $-1 #
coedge $-1 $103 $267 $270 $271 reversed $64 $-1 #
coedge $-1 $272 $273 $103 $165 forward $274 $-1 #
edge $-1 $275 7.5627735890322363 $276 24.450957137721506 $164 $277 forward 7 unknown #
face $-1 $278 $279 $38 $-1 $280 reversed single #
loop $-1 $-1 $281 $104 #
plane-surface $-1 0 32.013730726753749 4.7465397058637286 0 0 1 1 0 0 forward_v I I I I #
coedge $-1 $282 $283 $284 $285 reversed $105 $-1 #
coedge $-1 $286 $107 $287 $288 reversed $67 $-1 #
coedge $-1 $107 $286 $283 $289 reversed $67 $-1 #
coedge $-1 $290 $291 $107 $173 forward $292 $-1 #
edge $-1 $293 1.1723327138374042 $294 5.9760812702152446 $172 $295 forward 7 unknown #
face $-1 $296 $297 $39 $-1 $298 forward single #
loop $-1 $-1 $299 $108 #
plane-surface $-1 95.106403323824367 3.5527136788005009e-015 169.38204103208005 0 -1 0 -0.83867057594974714 0 -0.54463902268945019 forward_v I I I I #
coedge $-1 $300 $301 $302 $303 reversed $109 $-1 #
coedge $-1 $179 $111 $304 $305 reversed $70 $-1 #
coedge $-1 $111 $178 $300 $306 reversed $70 $-1 #
coedge $-1 $302 $307 $111 $181 forward $308 $-1 #
edge $-1 $309 67.109826620492981 $310 80.997106195933327 $180 $311 forward 7 unknown #
loop $-1 $-1 $187 $112 #
plane-surface $-1 -5.3467105664155667 -5.8909091135242591 104.14702821034663 0.83867057594974714 0 0.54463902268945019 0.54463902268945019 0 -0.83867057594974714 forward_v I I I I #
loop $-1 $-1 $312 $72 #
coedge $-1 $185 $185 $186 $313 reversed $113 $-1 #
coedge $-1 $186 $186 $185 $313 forward $115 $-1 #
coedge $-1 $187 $187 $116 $188 forward $182 $-1 #
edge $-1 $314 0 $314 6.2831853071796004 $187 $315 forward 7 unknown #
loop $-1 $-1 $194 $117 #
plane-surface $-1 -5.3467105664155667 -5.8909091135242591 104.14702821034663 0.83867057594974714 0 0.54463902268945019 0.54463902268945019 0 -0.83867057594974714 forward_v I I I I #
loop $-1 $-1 $316 $75 #
coedge $-1 $192 $192 $193 $317 reversed $118 $-1 #
coedge $-1 $193 $193 $192 $317 forward $120 $-1 #
coedge $-1 $194 $194 $121 $195 forward $189 $-1 #
edge $-1 $318 0 $318 6.2831853071796004 $194 $319 forward 7 unknown #
face $-1 $320 $321 $42 $-1 $322 forward single #
loop $-1 $-1 $202 $122 #
plane-surface $-1 59.888302255317853 0 0 -1 0 0 0 0 1 forward_v I I I I #
coedge $-1 $323 $324 $325 $326 reversed $123 $-1 #
coedge $-1 $201 $125 $327 $328 reversed $79 $-1 #
coedge $-1 $125 $200 $323 $329 reversed $79 $-1 #
coedge $-1 $325 $330 $125 $203 forward $197 $-1 #
edge $-1 $331 67.109826620492981 $332 80.997106195933327 $202 $333 forward 7 unknown #
loop $-1 $-1 $209 $126 #
plane-surface $-1 -5.3467105664155667 17.678729838884848 104.14702821034663 0.83867057594974714 0 0.54463902268945019 0.54463902268945019 0 -0.83867057594974714 forward_v I I I I #
loop $-1 $-1 $334 $81 #
coedge $-1 $207 $207 $208 $335 reversed $127 $-1 #
coedge $-1 $208 $208 $207 $335 forward $129 $-1 #
coedge $-1 $209 $209 $130 $210 forward $204 $-1 #
edge $-1 $336 0 $336 6.2831853071796004 $209 $337 forward 7 unknown #
loop $-1 $-1 $216 $131 #
plane-surface $-1 -5.3467105664155667 17.678729838884848 104.14702821034663 0.83867057594974714 0 0.54463902268945019 0.54463902268945019 0 -0.83867057594974714 forward_v I I I I #
loop $-1 $-1 $338 $84 #
coedge $-1 $214 $214 $215 $339 reversed $132 $-1 #
coedge $-1 $215 $215 $214 $339 forward $134 $-1 #
coedge $-1 $216 $216 $135 $217 forward $211 $-1 #
edge $-1 $340 0 $340 6.2831853071796004 $216 $341 forward 7 unknown #
face $-1 $342 $343 $45 $-1 $344 forward single #
loop $-1 $-1 $345 $136 #
plane-surface $-1 0 23.569638952409115 7.1484139840526488 0 1 0 0 0 1 forward_v I I I I #
coedge $-1 $346 $347 $348 $349 reversed $137 $-1 #
coedge $-1 $223 $139 $350 $351 reversed $88 $-1 #
coedge $-1 $139 $222 $346 $352 reversed $88 $-1 #
coedge $-1 $348 $353 $139 $225 forward $343 $-1 #
edge $-1 $354 5.257310172571934 $355 19.241337180741809 $224 $356 forward 7 unknown #
loop $-1 $-1 $231 $140 #
plane-surface $-1 -59.888302255317853 18.114208083650169 7.4212033630188188 -0.5877852598018023 0 0.80901698891910034 0.80901698891910034 0 0.5877852598018023 forward_v I I I I #
loop $-1 $-1 $357 $90 #
coedge $-1 $229 $229 $230 $358 reversed $141 $-1 #
coedge $-1 $230 $230 $229 $358 forward $143 $-1 #
coedge $-1 $231 $231 $144 $232 forward $226 $-1 #
edge $-1 $359 0 $359 6.2831853071796004 $231 $360 forward 7 unknown #
loop $-1 $-1 $238 $145 #
plane-surface $-1 -59.888302255317853 18.114208083650169 7.4212033630188188 -0.5877852598018023 0 0.80901698891910034 0.80901698891910034 0 0.5877852598018023 forward_v I I I I #
loop $-1 $-1 $361 $93 #
coedge $-1 $236 $236 $237 $362 reversed $146 $-1 #
coedge $-1 $237 $237 $236 $362 forward $148 $-1 #
coedge $-1 $238 $238 $149 $239 forward $233 $-1 #
edge $-1 $363 0 $363 6.2831853071796004 $238 $364 forward 7 unknown #
face $-1 $365 $366 $36 $-1 $367 reversed single #
loop $-1 $-1 $368 $150 #
plane-surface $-1 -59.888302255317853 0 0 1 0 0 0 0 -1 forward_v I I I I #
coedge $-1 $369 $251 $370 $371 forward $151 $-1 #
coedge $-1 $372 $153 $369 $373 forward $97 $-1 #
coedge $-1 $153 $372 $374 $375 forward $97 $-1 #
coedge $-1 $254 $253 $153 $247 reversed $255 $-1 #
edge $-1 $376 -40.457822501098377 $377 40.457822501098377 $246 $378 forward 7 unknown #
coedge $-1 $155 $154 $379 $380 forward $61 $-1 #
coedge $-1 $381 $382 $154 $250 reversed $366 $-1 #
edge $-1 $257 -59.888302255317853 $383 59.888302255317853 $249 $384 forward 7 unknown #
coedge $-1 $243 $385 $155 $252 reversed $151 $-1 #
edge $-1 $386 -59.888302255317853 $256 59.888302255317853 $251 $387 forward 7 unknown #
coedge $-1 $246 $156 $385 $388 forward $255 $-1 #
coedge $-1 $156 $246 $381 $389 reversed $255 $-1 #
loop $-1 $-1 $253 $365 #
vertex $-1 $157 $390 #
vertex $-1 $157 $391 #
straight-curve $-1 59.888302255317853 0 17.581193895547042 0 1 0 I I #
face $-1 $392 $393 $37 $-1 $394 reversed single #
loop $-1 $-1 $395 $158 #
plane-surface $-1 -59.888302255317853 0 0 1 0 0 0 0 -1 forward_v I I I I #
coedge $-1 $396 $268 $273 $397 reversed $159 $-1 #
coedge $-1 $398 $161 $399 $400 reversed $101 $-1 #
coedge $-1 $161 $398 $396 $401 forward $101 $-1 #
coedge $-1 $273 $272 $161 $266 forward $274 $-1 #
edge $-1 $402 -24.450957137721506 $403 -7.5627735890322363 $265 $404 forward 7 unknown #
coedge $-1 $163 $162 $395 $405 reversed $64 $-1 #
coedge $-1 $262 $406 $162 $269 reversed $159 $-1 #
edge $-1 $275 -59.888302255317853 $407 59.888302255317853 $268 $408 forward 7 unknown #
coedge $-1 $409 $410 $163 $271 forward $393 $-1 #
edge $-1 $276 -59.888302255317853 $411 59.888302255317853 $270 $412 forward 7 unknown #
coedge $-1 $265 $164 $410 $413 forward $274 $-1 #
coedge $-1 $164 $265 $262 $397 forward $274 $-1 #
loop $-1 $-1 $164 $392 #
vertex $-1 $165 $414 #
vertex $-1 $413 $415 #
straight-curve $-1 59.888302255317853 -16.006865363376871 9.550288262241569 0 -1 0 I I #
face $-1 $416 $292 $38 $-1 $417 reversed single #
loop $-1 $-1 $284 $166 #
plane-surface $-1 59.888302255317853 0 0 -1 0 0 0 0 1 forward_v I I I I #
coedge $-1 $287 $418 $419 $420 reversed $167 $-1 #
coedge $-1 $421 $169 $422 $423 reversed $105 $-1 #
coedge $-1 $169 $421 $171 $289 forward $105 $-1 #
coedge $-1 $424 $425 $169 $285 forward $279 $-1 #
edge $-1 $426 -24.45095713772151 $427 -7.5627735890322398 $284 $428 forward 7 unknown #
coedge $-1 $171 $170 $424 $429 reversed $67 $-1 #
coedge $-1 $430 $281 $170 $288 forward $167 $-1 #
edge $-1 $431 -59.888302255317853 $293 59.888302255317853 $170 $432 forward 7 unknown #
edge $-1 $294 -59.888302255317853 $427 59.888302255317853 $171 $433 forward 7 unknown #
coedge $-1 $434 $172 $421 $435 forward $292 $-1 #
coedge $-1 $172 $434 $430 $436 forward $292 $-1 #
loop $-1 $-1 $290 $278 #
vertex $-1 $436 $437 #
vertex $-1 $435 $438 #
straight-curve $-1 -59.888302255317853 23.569638952409115 3.5742069920263244 0 0 1 I I #
face $-1 $-1 $308 $39 $-1 $439 reversed single #
loop $-1 $-1 $440 $174 #
plane-surface $-1 0 0 17.581193895547042 0 0 1 1 0 0 forward_v I I I I #
coedge $-1 $441 $442 $443 $444 reversed $175 $-1 #
coedge $-1 $445 $177 $179 $306 forward $109 $-1 #
coedge $-1 $177 $445 $441 $446 forward $109 $-1 #
coedge $-1 $443 $180 $177 $303 forward $308 $-1 #
edge $-1 $310 -8.8363636702863921 $447 2.9454545567621331 $302 $448 forward 7 unknown #
coedge $-1 $449 $450 $178 $305 forward $297 $-1 #
edge $-1 $451 3.3165960784264854 $309 12.33510059340567 $304 $452 forward 7 unknown #
edge $-1 $310 -119.77660451063571 $451 -103.21792226556734 $179 $453 forward 7 unknown #
coedge $-1 $180 $443 $449 $454 reversed $308 $-1 #
loop $-1 $-1 $443 $296 #
vertex $-1 $454 $455 #
vertex $-1 $181 $456 #
straight-curve $-1 59.888302255317853 -11.781818227048522 84.691020516040027 0 0 -1 I I #
coedge $-1 $312 $312 $-1 $457 reversed $184 $-1 #
edge $-1 $458 0 $458 6.2831853071796004 $185 $459 forward 7 unknown #
vertex $-1 $188 $460 #
ellipse-curve $-1 55.379049997828268 -8.4155844478918027 10.637554107826865 0.83867057594974714 0 0.54463902268945019 0.54463902268945019 0 -0.83867057594974714 1 I I #
coedge $-1 $316 $316 $-1 $461 reversed $191 $-1 #
edge $-1 $462 0 $462 6.2831853071796004 $192 $463 forward 7 unknown #
vertex $-1 $195 $464 #
ellipse-curve $-1 55.379049997828268 -3.3662337791567154 10.637554107826865 0.83867057594974714 0 0.54463902268945019 0.54463902268945019 0 -0.83867057594974714 1 I I #
face $-1 $-1 $465 $42 $-1 $466 forward single #
loop $-1 $-1 $467 $196 #
plane-surface $-1 0 23.569638952409115 7.1484139840526488 0 1 0 0 0 1 forward_v I I I I #
coedge $-1 $468 $199 $201 $329 forward $123 $-1 #
coedge $-1 $199 $468 $467 $469 forward $123 $-1 #
coedge $-1 $470 $202 $199 $326 forward $197 $-1 #
edge $-1 $332 2.9484558059181616 $471 14.730274032966687 $325 $472 forward 7 unknown #
coedge $-1 $473 $474 $200 $328 forward $465 $-1 #
edge $-1 $475 3.3165960784264854 $331 12.33510059340567 $327 $476 forward 7 unknown #
edge $-1 $332 -119.77660451063571 $475 -103.21792226556734 $201 $477 forward 7 unknown #
coedge $-1 $202 $470 $473 $478 reversed $197 $-1 #
vertex $-1 $478 $479 #
vertex $-1 $203 $480 #
straight-curve $-1 59.888302255317853 11.787820725360586 84.691020516040027 0 0 -1 I I #
coedge $-1 $334 $334 $-1 $481 reversed $206 $-1 #
edge $-1 $482 0 $482 6.2831853071796004 $207 $483 forward 7 unknown #
vertex $-1 $210 $484 #
ellipse-curve $-1 55.379049997828268 15.154054504517305 10.637554107826865 0.83867057594974714 0 0.54463902268945019 0.54463902268945019 0 -0.83867057594974714 1 I I #
coedge $-1 $338 $338 $-1 $485 reversed $213 $-1 #
edge $-1 $486 0 $486 6.2831853071796004 $214 $487 forward 7 unknown #
vertex $-1 $217 $488 #
ellipse-curve $-1 55.379049997828268 20.203405173252392 10.637554107826865 0.83867057594974714 0 0.54463902268945019 0.54463902268945019 0 -0.83867057594974714 1 I I #
face $-1 $-1 $489 $45 $-1 $490 reversed single #
loop $-1 $-1 $491 $218 #
plane-surface $-1 0 0 17.581193895547042 0 0 1 1 0 0 forward_v I I I I #
coedge $-1 $492 $493 $347 $494 forward $219 $-1 #
coedge $-1 $495 $221 $223 $352 forward $137 $-1 #
coedge $-1 $221 $495 $345 $494 reversed $137 $-1 #
coedge $-1 $491 $224 $221 $349 forward $343 $-1 #
edge $-1 $355 3.6016731730661462 $496 14.512534910584023 $348 $497 forward 7 unknown #
coedge $-1 $498 $499 $222 $351 forward $489 $-1 #
edge $-1 $500 -44.740052280564804 $354 -34.580061748036584 $350 $501 forward 7 unknown #
edge $-1 $355 -17.28520809785892 $500 0 $223 $502 forward 7 unknown #
coedge $-1 $224 $491 $498 $503 forward $343 $-1 #
vertex $-1 $351 $504 #
vertex $-1 $225 $505 #
straight-curve $-1 -65.145612427889787 12.658777214891231 17.581193895547038 1 0 0 I I #
coedge $-1 $357 $357 $-1 $506 reversed $228 $-1 #
edge $-1 $507 0 $507 6.2831853071796004 $229 $508 forward 7 unknown #
vertex $-1 $232 $509 #
ellipse-curve $-1 -52.896288751232916 15.776166282753479 12.501198629282928 -0.5877852598018023 0 0.80901698891910034 0.80901698891910034 0 0.5877852598018023 1 I I #
coedge $-1 $361 $361 $-1 $510 reversed $235 $-1 #
edge $-1 $511 0 $511 6.2831853071796004 $236 $512 forward 7 unknown #
vertex $-1 $239 $513 #
ellipse-curve $-1 -52.896288751232916 20.452249884546852 12.501198629282928 -0.5877852598018023 0 0.80901698891910034 0.80901698891910034 0 0.5877852598018023 1 I I #
face $-1 $-1 $255 $36 $-1 $514 reversed single #
loop $-1 $-1 $381 $240 #
plane-surface $-1 0 40.457822501098377 0 0 -1 0 0 0 -1 forward_v I I I I #
coedge $-1 $515 $379 $382 $516 forward $241 $-1 #
coedge $-1 $385 $243 $244 $373 reversed $151 $-1 #
coedge $-1 $379 $515 $243 $371 reversed $241 $-1 #
edge $-1 $386 -17.581193895547042 $517 17.581193895547042 $370 $518 forward 7 unknown #
coedge $-1 $245 $244 $515 $519 forward $97 $-1 #
edge $-1 $377 -59.888302255317853 $517 59.888302255317853 $369 $520 forward 7 unknown #
coedge $-1 $382 $381 $245 $375 reversed $366 $-1 #
edge $-1 $521 -59.888302255317853 $376 59.888302255317853 $374 $522 forward 7 unknown #
vertex $-1 $247 $523 #
vertex $-1 $388 $524 #
straight-curve $-1 59.888302255317853 0 -17.581193895547042 0 -1 0 I I #
coedge $-1 $368 $370 $248 $380 reversed $241 $-1 #
edge $-1 $383 -40.457822501098377 $386 40.457822501098377 $379 $525 forward 7 unknown #
coedge $-1 $374 $249 $254 $389 forward $366 $-1 #
coedge $-1 $249 $374 $368 $516 reversed $366 $-1 #
vertex $-1 $250 $526 #
straight-curve $-1 0 40.457822501098377 17.581193895547042 -1 0 0 I I #
coedge $-1 $251 $369 $253 $388 reversed $151 $-1 #
vertex $-1 $380 $527 #
straight-curve $-1 0 -40.457822501098377 17.581193895547042 1 0 0 I I #
edge $-1 $256 -17.581193895547042 $377 17.581193895547042 $253 $528 forward 7 unknown #
edge $-1 $257 -17.581193895547042 $376 17.581193895547042 $254 $529 forward 7 unknown #
point $-1 59.888302255317853 -40.457822501098377 17.581193895547042 #
point $-1 59.888302255317853 40.457822501098377 17.581193895547042 #
face $-1 $-1 $274 $37 $-1 $530 reversed single #
loop $-1 $-1 $270 $259 #
plane-surface $-1 0 -40.457822501098377 0 0 1 0 0 0 1 forward_v I I I I #
coedge $-1 $531 $532 $267 $405 forward $260 $-1 #
coedge $-1 $406 $262 $264 $401 reversed $159 $-1 #
edge $-1 $403 1.1723327138374042 $275 5.9760812702152446 $273 $533 forward 7 unknown #
coedge $-1 $264 $263 $534 $535 reversed $101 $-1 #
coedge $-1 $410 $409 $263 $400 forward $393 $-1 #
edge $-1 $536 -59.888302255317853 $402 59.888302255317853 $399 $537 forward 7 unknown #
edge $-1 $538 -59.888302255317853 $403 59.888302255317853 $396 $539 forward 7 unknown #
vertex $-1 $400 $540 #
vertex $-1 $266 $541 #
straight-curve $-1 59.888302255317853 -16.006865363376871 4.7465397058637286 0 1 0 I I #
edge $-1 $411 -24.450957137721506 $407 -7.5627735890322363 $395 $542 forward 7 unknown #
coedge $-1 $268 $396 $531 $543 reversed $159 $-1 #
vertex $-1 $405 $544 #
straight-curve $-1 0 -23.569638952409107 9.550288262241569 -1 0 0 I I #
coedge $-1 $399 $270 $532 $545 forward $393 $-1 #
coedge $-1 $270 $399 $272 $413 reversed $393 $-1 #
vertex $-1 $545 $546 #
straight-curve $-1 0 -40.457822501098377 9.550288262241569 -1 0 0 I I #
edge $-1 $276 -9.550288262241569 $402 -4.7465397058637286 $272 $547 forward 7 unknown #
point $-1 59.888302255317853 -23.569638952409107 9.550288262241569 #
point $-1 59.888302255317853 -40.457822501098377 9.550288262241569 #
face $-1 $-1 $548 $38 $-1 $549 reversed single #
plane-surface $-1 -59.888302255317853 0 0 1 0 0 0 0 -1 forward_v I I I I #
coedge $-1 $281 $430 $550 $551 reversed $167 $-1 #
coedge $-1 $425 $424 $281 $420 forward $279 $-1 #
edge $-1 $431 7.5627735890322398 $552 24.45095713772151 $419 $553 forward 7 unknown #
coedge $-1 $283 $282 $290 $435 reversed $105 $-1 #
coedge $-1 $554 $555 $282 $423 forward $548 $-1 #
edge $-1 $556 -59.888302255317853 $426 59.888302255317853 $422 $557 forward 7 unknown #
coedge $-1 $419 $284 $286 $429 forward $279 $-1 #
coedge $-1 $284 $419 $554 $558 reversed $279 $-1 #
vertex $-1 $558 $559 #
vertex $-1 $285 $560 #
straight-curve $-1 59.888302255317853 16.006865363376875 9.550288262241569 0 -1 0 I I #
edge $-1 $427 -5.9760812702152446 $431 -1.1723327138374042 $424 $561 forward 7 unknown #
coedge $-1 $418 $287 $291 $436 reversed $167 $-1 #
vertex $-1 $420 $562 #
straight-curve $-1 0 23.569638952409115 4.7465397058637286 -1 0 0 I I #
straight-curve $-1 0 23.569638952409115 9.550288262241569 1 0 0 I I #
coedge $-1 $291 $290 $555 $563 forward $292 $-1 #
edge $-1 $294 7.5627735890322398 $556 24.45095713772151 $290 $564 forward 7 unknown #
edge $-1 $565 -24.45095713772151 $293 -7.5627735890322398 $291 $566 forward 7 unknown #
point $-1 -59.888302255317853 23.569638952409115 4.7465397058637286 #
point $-1 -59.888302255317853 23.569638952409115 9.550288262241569 #
plane-surface $-1 59.888302255317853 0 0 -1 0 0 0 0 1 forward_v I I I I #
coedge $-1 $450 $449 $442 $567 forward $297 $-1 #
coedge $-1 $442 $299 $301 $446 reversed $175 $-1 #
coedge $-1 $299 $441 $440 $567 reversed $175 $-1 #
coedge $-1 $307 $302 $299 $444 forward $308 $-1 #
edge $-1 $447 -80.997106195933327 $568 -67.109826620492981 $443 $569 forward 7 unknown #
coedge $-1 $301 $300 $450 $570 reversed $109 $-1 #
edge $-1 $571 103.21792226556734 $447 119.77660451063571 $441 $572 forward 7 unknown #
vertex $-1 $303 $573 #
straight-curve $-1 59.888302255317853 -2.9454545567621295 3.6939143201067068 0 1 0 I I #
coedge $-1 $440 $304 $307 $454 forward $297 $-1 #
coedge $-1 $304 $440 $445 $570 forward $297 $-1 #
vertex $-1 $305 $574 #
straight-curve $-1 47.553201661912183 -11.781818227048522 17.581193895547045 1 0 0 I I #
straight-curve $-1 -5.3467105664155667 -11.781818227048522 104.14702821034663 -0.54463902268945019 0 0.83867057594974714 I I #
edge $-1 $309 -11.781818227048522 $568 3.5527136788005009e-015 $307 $575 forward 7 unknown #
point $-1 59.888302255317853 -11.781818227048522 17.581193895547042 #
point $-1 59.888302255317853 -11.781818227048522 3.6939143201066997 #
edge $-1 $576 1 $576 0 $312 $-1 forward 7 unknown #
vertex $-1 $313 $577 #
ellipse-curve $-1 54.049339808865554 -8.4155844478918027 9.7740302421460772 0.83867057594974714 0 0.54463902268945019 0.54463902268945019 0 -0.83867057594974714 1 I I #
point $-1 55.92368902051772 -8.4155844478918027 9.7988835318771184 #
edge $-1 $578 1 $578 0 $316 $-1 forward 7 unknown #
vertex $-1 $317 $579 #
ellipse-curve $-1 54.049339808865554 -3.3662337791567154 9.7740302421460772 0.83867057594974714 0 0.54463902268945019 0.54463902268945019 0 -0.83867057594974714 1 I I #
point $-1 55.92368902051772 -3.3662337791567154 9.7988835318771184 #
loop $-1 $-1 $327 $320 #
plane-surface $-1 0 0 17.581193895547042 0 0 1 1 0 0 forward_v I I I I #
coedge $-1 $580 $581 $324 $469 reversed $321 $-1 #
coedge $-1 $324 $323 $474 $582 reversed $123 $-1 #
edge $-1 $583 103.21792226556734 $471 119.77660451063571 $467 $584 forward 7 unknown #
coedge $-1 $330 $325 $581 $585 forward $197 $-1 #
vertex $-1 $326 $586 #
straight-curve $-1 59.888302255317853 8.8393649194424242 3.6939143201067068 0 1 0 I I #
coedge $-1 $587 $327 $330 $478 forward $465 $-1 #
coedge $-1 $327 $587 $468 $582 forward $465 $-1 #
vertex $-1 $328 $588 #
straight-curve $-1 47.553201661912183 11.787820725360586 17.581193895547045 1 0 0 I I #
straight-curve $-1 -5.3467105664155667 11.787820725360586 104.14702821034663 -0.54463902268945019 0 0.83867057594974714 I I #
edge $-1 $331 11.787820725360586 $589 23.569638952409111 $330 $590 forward 7 unknown #
point $-1 59.888302255317853 11.787820725360586 17.581193895547042 #
point $-1 59.888302255317853 11.787820725360586 3.6939143201066997 #
edge $-1 $591 1 $591 0 $334 $-1 forward 7 unknown #
vertex $-1 $335 $592 #
ellipse-curve $-1 54.049339808865554 15.154054504517305 9.7740302421460772 0.83867057594974714 0 0.54463902268945019 0.54463902268945019 0 -0.83867057594974714 1 I I #
point $-1 55.92368902051772 15.154054504517305 9.7988835318771184 #
edge $-1 $593 1 $593 0 $338 $-1 forward 7 unknown #
vertex $-1 $339 $594 #
ellipse-curve $-1 54.049339808865554 20.203405173252392 9.7740302421460772 0.83867057594974714 0 0.54463902268945019 0.54463902268945019 0 -0.83867057594974714 1 I I #
point $-1 55.92368902051772 20.203405173252392 9.7988835318771184 #
loop $-1 $-1 $595 $342 #
plane-surface $-1 -59.888302255317853 0 0 1 0 0 0 0 -1 forward_v I I I I #
coedge $-1 $353 $348 $493 $596 forward $343 $-1 #
coedge $-1 $493 $345 $595 $597 reversed $219 $-1 #
coedge $-1 $345 $492 $491 $596 reversed $219 $-1 #
edge $-1 $496 6.85994809518479 $598 24.145156193043711 $345 $599 forward 7 unknown #
coedge $-1 $347 $346 $499 $600 reversed $137 $-1 #
vertex $-1 $349 $601 #
straight-curve $-1 -45.904275247147979 9.0571040418250846 17.581193895547042 0 1 0 I I #
coedge $-1 $595 $350 $353 $503 reversed $489 $-1 #
coedge $-1 $350 $595 $495 $600 forward $489 $-1 #
vertex $-1 $351 $602 #
straight-curve $-1 -59.888302255317853 12.658777214891231 52.161255643583623 0 0 1 I I #
straight-curve $-1 -59.888302255317853 12.658777214891231 7.4212033630188188 -0.80901698891910034 0 -0.5877852598018023 I I #
edge $-1 $603 -23.569638952409107 $354 -12.658777214891231 $498 $604 forward 7 unknown #
point $-1 -59.888302255317853 12.658777214891231 17.581193895547042 #
point $-1 -45.904275247147979 12.658777214891231 17.581193895547042 #
edge $-1 $605 1 $605 0 $357 $-1 forward 7 unknown #
vertex $-1 $358 $606 #
ellipse-curve $-1 -51.135175263080157 15.776166282753479 10.077233911605957 -0.5877852598018023 0 0.80901698891910034 0.80901698891910034 0 0.5877852598018023 1 I I #
point $-1 -52.087271762313826 15.776166282753479 13.088983889084737 #
edge $-1 $607 1 $607 0 $361 $-1 forward 7 unknown #
vertex $-1 $362 $608 #
ellipse-curve $-1 -51.135175263080157 20.452249884546852 10.077233911605957 -0.5877852598018023 0 0.80901698891910034 0.80901698891910034 0 0.5877852598018023 1 I I #
point $-1 -52.087271762313826 20.452249884546852 13.088983889084737 #
plane-surface $-1 59.888302255317853 0 0 -1 0 0 0 0 1 forward_v I I I I #
coedge $-1 $370 $368 $372 $519 reversed $241 $-1 #
edge $-1 $383 -17.581193895547042 $521 17.581193895547042 $382 $609 forward 7 unknown #
vertex $-1 $519 $610 #
straight-curve $-1 -59.888302255317853 -40.457822501098377 0 0 0 -1 I I #
edge $-1 $517 -40.457822501098377 $521 40.457822501098377 $515 $611 forward 7 unknown #
straight-curve $-1 0 -40.457822501098377 -17.581193895547042 -1 0 0 I I #
vertex $-1 $375 $612 #
straight-curve $-1 0 40.457822501098377 -17.581193895547042 1 0 0 I I #
point $-1 59.888302255317853 40.457822501098377 -17.581193895547042 #
point $-1 59.888302255317853 -40.457822501098377 -17.581193895547042 #
straight-curve $-1 -59.888302255317853 0 17.581193895547042 0 -1 0 I I #
point $-1 -59.888302255317853 40.457822501098377 17.581193895547042 #
point $-1 -59.888302255317853 -40.457822501098377 17.581193895547042 #
straight-curve $-1 59.888302255317853 -40.457822501098377 0 0 0 -1 I I #
straight-curve $-1 59.888302255317853 40.457822501098377 0 0 0 -1 I I #
plane-surface $-1 59.888302255317853 0 0 -1 0 0 0 0 1 forward_v I I I I #
coedge $-1 $534 $395 $406 $543 forward $260 $-1 #
coedge $-1 $395 $534 $409 $545 reversed $260 $-1 #
straight-curve $-1 59.888302255317853 -23.569638952409107 3.5742069920263244 0 0 1 I I #
coedge $-1 $532 $531 $398 $535 forward $260 $-1 #
edge $-1 $538 7.5627735890322363 $536 24.450957137721506 $534 $613 forward 7 unknown #
vertex $-1 $400 $614 #
straight-curve $-1 0 -40.457822501098377 4.7465397058637286 1 0 0 I I #
vertex $-1 $535 $615 #
straight-curve $-1 0 -23.569638952409107 4.7465397058637286 1 0 0 I I #
point $-1 59.888302255317853 -40.457822501098377 4.7465397058637286 #
point $-1 59.888302255317853 -23.569638952409107 4.7465397058637286 #
straight-curve $-1 -59.888302255317853 -16.006865363376871 9.550288262241569 0 1 0 I I #
edge $-1 $407 -5.9760812702152446 $538 -1.1723327138374042 $531 $616 forward 7 unknown #
point $-1 -59.888302255317853 -23.569638952409107 9.550288262241569 #
edge $-1 $411 -9.550288262241569 $536 -4.7465397058637286 $532 $617 forward 7 unknown #
point $-1 -59.888302255317853 -40.457822501098377 9.550288262241569 #
straight-curve $-1 59.888302255317853 -40.457822501098377 0 0 0 -1 I I #
loop $-1 $-1 $422 $416 #
plane-surface $-1 0 40.457822501098377 0 0 -1 0 0 0 -1 forward_v I I I I #
coedge $-1 $555 $554 $418 $551 forward $548 $-1 #
edge $-1 $552 -59.888302255317853 $565 59.888302255317853 $550 $618 forward 7 unknown #
vertex $-1 $551 $619 #
straight-curve $-1 59.888302255317853 16.006865363376875 4.7465397058637286 0 1 0 I I #
coedge $-1 $550 $422 $425 $558 forward $548 $-1 #
coedge $-1 $422 $550 $434 $563 reversed $548 $-1 #
vertex $-1 $563 $620 #
straight-curve $-1 0 40.457822501098377 9.550288262241569 1 0 0 I I #
edge $-1 $426 -9.550288262241569 $552 -4.7465397058637286 $425 $621 forward 7 unknown #
point $-1 59.888302255317853 40.457822501098384 9.550288262241569 #
point $-1 59.888302255317853 23.569638952409115 9.550288262241569 #
straight-curve $-1 59.888302255317853 23.569638952409115 3.5742069920263244 0 0 -1 I I #
point $-1 59.888302255317853 23.569638952409115 4.7465397058637286 #
edge $-1 $556 -9.550288262241569 $565 -4.7465397058637286 $555 $622 forward 7 unknown #
straight-curve $-1 -59.888302255317853 16.006865363376875 9.550288262241569 0 1 0 I I #
vertex $-1 $551 $623 #
straight-curve $-1 -59.888302255317853 16.006865363376875 4.7465397058637286 0 -1 0 I I #
edge $-1 $568 -12.33510059340567 $571 -3.3165960784264854 $440 $624 forward 7 unknown #
vertex $-1 $567 $625 #
straight-curve $-1 59.888302255317853 3.5527136788005009e-015 84.691020516040027 0 0 1 I I #
edge $-1 $571 -2.9454545567621331 $451 8.8363636702863921 $450 $626 forward 7 unknown #
vertex $-1 $570 $627 #
straight-curve $-1 -5.3467105664155667 3.5527136788005009e-015 104.14702821034663 0.54463902268945019 0 -0.83867057594974714 I I #
point $-1 59.888302255317853 3.5527136788005009e-015 3.6939143201066997 #
point $-1 50.869797740338669 -11.781818227048522 17.581193895547045 #
straight-curve $-1 59.888302255317853 0 17.581193895547042 0 1 0 I I #
vertex $-1 $457 $628 #
point $-1 54.593978831555006 -8.4155844478918027 8.9353596661963302 #
vertex $-1 $461 $629 #
point $-1 54.593978831555006 -3.3662337791567154 8.9353596661963302 #
coedge $-1 $581 $467 $587 $630 reversed $321 $-1 #
coedge $-1 $467 $580 $470 $585 reversed $321 $-1 #
edge $-1 $583 -14.730274032966687 $475 -2.9484558059181616 $474 $631 forward 7 unknown #
vertex $-1 $630 $632 #
straight-curve $-1 -5.3467105664155667 23.569638952409111 104.14702821034663 0.54463902268945019 0 -0.83867057594974714 I I #
edge $-1 $471 -80.997106195933327 $589 -67.109826620492981 $470 $633 forward 7 unknown #
point $-1 59.888302255317853 23.569638952409111 3.6939143201066997 #
coedge $-1 $474 $473 $580 $630 forward $465 $-1 #
point $-1 50.869797740338669 11.787820725360586 17.581193895547045 #
vertex $-1 $630 $634 #
straight-curve $-1 59.888302255317853 0 17.581193895547042 0 1 0 I I #
vertex $-1 $481 $635 #
point $-1 54.593978831555006 15.154054504517305 8.9353596661963302 #
vertex $-1 $485 $636 #
point $-1 54.593978831555006 20.203405173252392 8.9353596661963302 #
coedge $-1 $499 $498 $492 $597 forward $489 $-1 #
edge $-1 $496 -19.241337180741809 $603 -5.257310172571934 $491 $637 forward 7 unknown #
edge $-1 $603 34.580061748036584 $598 44.740052280564804 $595 $638 forward 7 unknown #
vertex $-1 $600 $639 #
straight-curve $-1 -40.35446069504026 23.569638952409115 21.613370268902109 -0.80901698891910034 0 -0.5877852598018023 I I #
edge $-1 $598 -14.51253491058403 $500 -3.6016731730661462 $499 $640 forward 7 unknown #
point $-1 -45.904275247147979 23.569638952409107 17.581193895547042 #
point $-1 -59.888302255317853 12.658777214891231 7.4212033630188188 #
vertex $-1 $503 $641 #
straight-curve $-1 -59.888302255317853 0 17.581193895547042 0 -1 0 I I #
vertex $-1 $506 $642 #
point $-1 -50.326158274161052 15.776166282753479 10.665019171407758 #
vertex $-1 $510 $643 #
point $-1 -50.326158274161052 20.452249884546852 10.665019171407758 #
straight-curve $-1 -59.888302255317853 40.457822501098377 0 0 0 -1 I I #
point $-1 -59.888302255317853 -40.457822501098377 -17.581193895547042 #
straight-curve $-1 -59.888302255317853 0 -17.581193895547042 0 1 0 I I #
point $-1 -59.888302255317853 40.457822501098377 -17.581193895547042 #
straight-curve $-1 -59.888302255317853 -16.006865363376871 4.7465397058637286 0 -1 0 I I #
point $-1 -59.888302255317853 -40.457822501098377 4.7465397058637286 #
point $-1 -59.888302255317853 -23.569638952409107 4.7465397058637286 #
straight-curve $-1 -59.888302255317853 -23.569638952409107 3.5742069920263244 0 0 -1 I I #
straight-curve $-1 -59.888302255317853 -40.457822501098377 0 0 0 -1 I I #
straight-curve $-1 0 40.457822501098377 4.7465397058637286 -1 0 0 I I #
point $-1 59.888302255317853 40.457822501098384 4.7465397058637286 #
point $-1 -59.888302255317853 40.457822501098384 9.550288262241569 #
straight-curve $-1 59.888302255317853 40.457822501098377 0 0 0 -1 I I #
straight-curve $-1 -59.888302255317853 40.457822501098377 0 0 0 -1 I I #
point $-1 -59.888302255317853 40.457822501098384 4.7465397058637286 #
straight-curve $-1 47.553201661912183 3.5527136788005009e-015 17.581193895547045 -1 0 0 I I #
point $-1 59.888302255317853 3.5527136788005009e-015 17.581193895547042 #
straight-curve $-1 50.869797740338669 -2.9454545567621295 17.581193895547045 0 -1 0 I I #
point $-1 50.869797740338669 3.5527136788005009e-015 17.581193895547045 #
point $-1 53.210669232915805 -8.4155844478918027 9.2293912194566285 #
point $-1 53.210669232915805 -3.3662337791567154 9.2293912194566285 #
edge $-1 $589 -12.33510059340567 $583 -3.3165960784264854 $587 $644 forward 7 unknown #
straight-curve $-1 50.869797740338669 8.8393649194424242 17.581193895547045 0 -1 0 I I #
point $-1 50.869797740338669 23.569638952409111 17.581193895547045 #
straight-curve $-1 59.888302255317853 23.569638952409111 84.691020516040027 0 0 1 I I #
point $-1 59.888302255317853 23.569638952409111 17.581193895547042 #
point $-1 53.210669232915805 15.154054504517305 9.2293912194566285 #
point $-1 53.210669232915805 20.203405173252392 9.2293912194566285 #
straight-curve $-1 -65.145612427889787 23.569638952409107 17.581193895547038 -1 0 0 I I #
straight-curve $-1 -59.888302255317853 23.569638952409107 52.161255643583623 0 0 -1 I I #
point $-1 -59.888302255317853 23.569638952409115 7.4212033630188188 #
straight-curve $-1 -59.888302255317853 9.0571040418250846 7.4212033630188188 0 -1 0 I I #
point $-1 -59.888302255317853 23.569638952409107 17.581193895547042 #
point $-1 -50.547390003278352 15.776166282753479 9.2682169226868556 #
point $-1 -50.547390003278352 20.452249884546852 9.2682169226868556 #
straight-curve $-1 47.553201661912183 23.569638952409111 17.581193895547045 -1 0 0 I I #
End-of-ACIS-data 