500 0 12 0           
7 Unknown 11 ACIS 5.0 NT 24 Fri Mar 26 02:58:15 1999 
-1 9.9999999999999995e-007 1e-010 
body $-1 $12 $-1 $13 #
body $-1 $14 $-1 $15 #
body $-1 $16 $-1 $17 #
body $-1 $18 $-1 $19 #
body $-1 $20 $-1 $21 #
body $-1 $22 $-1 $23 #
body $-1 $24 $-1 $25 #
body $-1 $26 $-1 $27 #
body $-1 $28 $-1 $29 #
body $-1 $30 $-1 $31 #
body $-1 $32 $-1 $33 #
body $-1 $34 $-1 $35 #
lump $-1 $-1 $36 $0 #
transform $-1 1 0 0 0 1 0 0 0 1 48.883327738273266 33.764509772088296 8.4961015510069657 1 rotate no_reflect no_shear #
lump $-1 $-1 $37 $1 #
transform $-1 1 0 0 0 1 0 0 0 1 48.883327738273266 33.764509772088296 8.4961015510069657 1 rotate no_reflect no_shear #
lump $-1 $-1 $38 $2 #
transform $-1 1 0 0 0 1 0 0 0 1 48.883327738273266 33.764509772088296 8.4961015510069657 1 rotate no_reflect no_shear #
lump $-1 $-1 $39 $3 #
transform $-1 1 0 0 0 1 0 0 0 1 48.883327738273266 33.764509772088296 8.4961015510069657 1 rotate no_reflect no_shear #
lump $-1 $-1 $40 $4 #
transform $-1 1 0 0 0 1 0 0 0 1 48.883327738273266 33.764509772088296 8.4961015510069657 1 rotate no_reflect no_shear #
lump $-1 $-1 $41 $5 #
transform $-1 1 0 0 0 1 0 0 0 1 48.883327738273266 33.764509772088296 8.4961015510069657 1 rotate no_reflect no_shear #
lump $-1 $-1 $42 $6 #
transform $-1 1 0 0 0 1 0 0 0 1 48.883327738273266 33.764509772088296 8.4961015510069657 1 rotate no_reflect no_shear #
lump $-1 $-1 $43 $7 #
transform $-1 1 0 0 0 1 0 0 0 1 48.883327738273266 33.764509772088296 8.4961015510069657 1 rotate no_reflect no_shear #
lump $-1 $-1 $44 $8 #
transform $-1 1 0 0 0 1 0 0 0 1 48.883327738273266 33.764509772088296 8.4961015510069657 1 rotate no_reflect no_shear #
lump $-1 $-1 $45 $9 #
transform $-1 1 0 0 0 1 0 0 0 1 48.883327738273266 33.764509772088296 8.4961015510069657 1 rotate no_reflect no_shear #
lump $-1 $-1 $46 $10 #
transform $-1 1 0 0 0 1 0 0 0 1 48.883327738273266 33.764509772088296 8.4961015510069657 1 rotate no_reflect no_shear #
lump $-1 $-1 $47 $11 #
transform $-1 1 0 0 0 1 0 0 0 1 48.883327738273266 33.764509772088296 8.4961015510069657 1 rotate no_reflect no_shear #
shell $-1 $-1 $-1 $48 $-1 $12 #
shell $-1 $-1 $-1 $49 $-1 $14 #
shell $-1 $-1 $-1 $50 $-1 $16 #
shell $-1 $-1 $-1 $51 $-1 $18 #
shell $-1 $-1 $-1 $52 $-1 $20 #
shell $-1 $-1 $-1 $53 $-1 $22 #
shell $-1 $-1 $-1 $54 $-1 $24 #
shell $-1 $-1 $-1 $55 $-1 $26 #
shell $-1 $-1 $-1 $56 $-1 $28 #
shell $-1 $-1 $-1 $57 $-1 $30 #
shell $-1 $-1 $-1 $58 $-1 $32 #
shell $-1 $-1 $-1 $59 $-1 $34 #
face $-1 $60 $61 $36 $-1 $62 forward single #
face $-1 $63 $64 $37 $-1 $65 reversed single #
face $-1 $66 $67 $38 $-1 $68 reversed single #
face $-1 $69 $70 $39 $-1 $71 reversed single #
face $-1 $72 $73 $40 $-1 $74 forward single #
face $-1 $75 $76 $41 $-1 $77 forward single #
face $-1 $78 $79 $42 $-1 $80 reversed single #
face $-1 $81 $82 $43 $-1 $83 forward single #
face $-1 $84 $85 $44 $-1 $86 forward single #
face $-1 $87 $88 $45 $-1 $89 reversed single #
face $-1 $90 $91 $46 $-1 $92 forward single #
face $-1 $93 $94 $47 $-1 $95 forward single #
face $-1 $96 $97 $36 $-1 $98 reversed single #
loop $-1 $-1 $99 $48 #
plane-surface $-1 0 0 8.4961015510069657 0 0 1 1 0 0 forward_v I I I I #
face $-1 $100 $101 $37 $-1 $102 reversed single #
loop $-1 $-1 $103 $49 #
plane-surface $-1 -45.16560721532025 -19.772306670074364 0 0 1 0 0 0 1 forward_v I I I I #
face $-1 $104 $105 $38 $-1 $106 reversed single #
loop $-1 $-1 $107 $50 #
plane-surface $-1 45.16560721532025 -19.772306670074364 0 0 1 0 0 0 1 forward_v I I I I #
face $-1 $108 $109 $39 $-1 $110 reversed single #
loop $-1 $-1 $111 $51 #
plane-surface $-1 -20.073391018357313 -85.572944592833721 87.8721949146952 -1 0 0 0 -0.52991927123019833 0.84804809178421925 forward_v I I I I #
face $-1 $112 $113 $40 $-1 $114 forward single #
loop $-1 $115 $116 $52 #
cone-surface $-1 -35.340887928364396 -29.941986314274985 5.1377685278292375 0 0.52991927123019833 -0.84804809178421925 1 0 0 1 I I 0 1 1 forward I I I I #
face $-1 $117 $118 $41 $-1 $119 forward single #
loop $-1 $120 $121 $53 #
cone-surface $-1 -26.180389782360145 -29.941986314274985 5.1377685278292375 0 0.52991927123019833 -0.84804809178421925 1 0 0 1 I I 0 1 1 forward I I I I #
face $-1 $122 $123 $42 $-1 $124 reversed single #
loop $-1 $-1 $125 $54 #
plane-surface $-1 -41.447886692367234 84.668408946676948 109.52406258843283 1 0 0 0 -0.86602541151947299 -0.49999998660252726 forward_v I I I I #
face $-1 $126 $127 $43 $-1 $128 forward single #
loop $-1 $129 $130 $55 #
cone-surface $-1 -36.794651289760637 29.862132125633487 4.130658660946648 0 -0.86602541151947299 -0.49999998660252726 1.5 0 0 1 I I 0 1 1.5 forward I I I I #
face $-1 $131 $132 $44 $-1 $133 forward single #
loop $-1 $134 $135 $56 #
cone-surface $-1 -29.814798185850748 29.862132125633487 4.130658660946648 0 -0.86602541151947299 -0.49999998660252726 1.5 0 0 1 I I 0 1 1.5 forward I I I I #
face $-1 $136 $137 $45 $-1 $138 reversed single #
loop $-1 $-1 $139 $57 #
plane-surface $-1 3.5527136788005009e-015 84.668408946676948 109.52406258843283 1 0 0 0 -0.86602541151947299 -0.49999998660252726 forward_v I I I I #
face $-1 $140 $141 $46 $-1 $142 forward single #
loop $-1 $143 $144 $58 #
cone-surface $-1 4.6532354026065974 29.862132125633487 4.130658660946648 0 -0.86602541151947299 -0.49999998660252726 1.5 0 0 1 I I 0 1 1.5 forward I I I I #
face $-1 $145 $146 $47 $-1 $147 forward single #
loop $-1 $148 $149 $59 #
cone-surface $-1 11.633088506516486 29.862132125633487 4.130658660946648 0 -0.86602541151947299 -0.49999998660252726 1.5 0 0 1 I I 0 1 1.5 forward I I I I #
face $-1 $150 $151 $36 $-1 $152 reversed single #
loop $-1 $-1 $153 $60 #
plane-surface $-1 0 0 -8.4961015510069657 0 0 1 1 0 0 forward_v I I I I #
coedge $-1 $154 $155 $156 $157 forward $61 $-1 #
face $-1 $158 $159 $37 $-1 $160 reversed single #
loop $-1 $-1 $161 $63 #
plane-surface $-1 -45.16560721532025 -16.772306670074364 0 0 -1 0 0 0 -1 forward_v I I I I #
coedge $-1 $162 $163 $164 $165 reversed $64 $-1 #
face $-1 $166 $167 $38 $-1 $168 reversed single #
loop $-1 $-1 $169 $66 #
plane-surface $-1 41.447886692367234 -18.272306670074364 0 1 0 0 0 0 -1 forward_v I I I I #
coedge $-1 $170 $171 $172 $173 forward $67 $-1 #
face $-1 $174 $175 $39 $-1 $176 reversed single #
loop $-1 $-1 $177 $69 #
plane-surface $-1 -30.76063885536227 -33.764509772088303 4.9613692976847261 0 -0.52991927123019833 0.84804809178421925 1 0 0 forward_v I I I I #
coedge $-1 $178 $179 $180 $181 reversed $70 $-1 #
face $-1 $-1 $182 $40 $-1 $183 forward single #
loop $-1 $184 $185 $72 #
cone-surface $-1 -35.340887928364396 -28.682880206872333 3.1227775854205255 0 0.52991927123019833 -0.84804809178421925 0.5 0 0 1 I I -0.70710678118654746 0.70710678118654746 0.5 forward I I I I #
loop $-1 $-1 $186 $52 #
coedge $-1 $116 $116 $187 $188 reversed $73 $-1 #
face $-1 $-1 $189 $41 $-1 $190 forward single #
loop $-1 $191 $192 $75 #
cone-surface $-1 -26.180389782360145 -28.682880206872333 3.1227775854205255 0 0.52991927123019833 -0.84804809178421925 0.5 0 0 1 I I -0.70710678118654746 0.70710678118654746 0.5 forward I I I I #
loop $-1 $-1 $193 $53 #
coedge $-1 $121 $121 $194 $195 reversed $76 $-1 #
face $-1 $196 $197 $42 $-1 $198 reversed single #
loop $-1 $-1 $199 $78 #
plane-surface $-1 -33.304724737805692 9.047182061294734e-007 60.640736159985664 0 0.86602541151947299 0.49999998660252726 1 0 0 forward_v I I I I #
coedge $-1 $200 $201 $202 $203 reversed $79 $-1 #
face $-1 $-1 $204 $43 $-1 $205 forward single #
loop $-1 $206 $207 $81 #
cone-surface $-1 -36.794651289760637 27.139630977867242 2.5588219465711148 0 -0.86602541151947299 -0.49999998660252726 0.75 0 0 1 I I -0.70710678118654757 0.70710678118654757 0.75 forward I I I I #
loop $-1 $-1 $208 $55 #
coedge $-1 $130 $130 $209 $210 reversed $82 $-1 #
face $-1 $-1 $211 $44 $-1 $212 forward single #
loop $-1 $213 $214 $84 #
cone-surface $-1 -29.814798185850748 27.139630977867242 2.5588219465711148 0 -0.86602541151947299 -0.49999998660252726 0.75 0 0 1 I I -0.70710678118654757 0.70710678118654757 0.75 forward I I I I #
loop $-1 $-1 $215 $56 #
coedge $-1 $135 $135 $216 $217 reversed $85 $-1 #
face $-1 $218 $219 $45 $-1 $220 reversed single #
loop $-1 $-1 $221 $87 #
plane-surface $-1 8.1431619545615419 9.047182061294734e-007 60.640736159985664 0 0.86602541151947299 0.49999998660252726 1 0 0 forward_v I I I I #
coedge $-1 $222 $223 $224 $225 reversed $88 $-1 #
face $-1 $-1 $226 $46 $-1 $227 forward single #
loop $-1 $228 $229 $90 #
cone-surface $-1 4.6532354026065974 27.139630977867242 2.5588219465711148 0 -0.86602541151947299 -0.49999998660252726 0.75 0 0 1 I I -0.70710678118654757 0.70710678118654757 0.75 forward I I I I #
loop $-1 $-1 $230 $58 #
coedge $-1 $144 $144 $231 $232 reversed $91 $-1 #
face $-1 $-1 $233 $47 $-1 $234 forward single #
loop $-1 $235 $236 $93 #
cone-surface $-1 11.633088506516486 27.139630977867242 2.5588219465711148 0 -0.86602541151947299 -0.49999998660252726 0.75 0 0 1 I I -0.70710678118654757 0.70710678118654757 0.75 forward I I I I #
loop $-1 $-1 $237 $59 #
coedge $-1 $149 $149 $238 $239 reversed $94 $-1 #
face $-1 $240 $241 $36 $-1 $242 reversed single #
loop $-1 $-1 $243 $96 #
plane-surface $-1 0 -33.764509772088296 0 0 1 0 0 0 1 forward_v I I I I #
coedge $-1 $244 $245 $246 $247 forward $97 $-1 #
coedge $-1 $248 $99 $249 $250 forward $61 $-1 #
coedge $-1 $99 $248 $251 $252 forward $61 $-1 #
coedge $-1 $253 $254 $99 $157 reversed $255 $-1 #
edge $-1 $256 -33.764509772088296 $257 33.764509772088296 $156 $258 forward 7 unknown #
face $-1 $259 $260 $37 $-1 $261 reversed single #
loop $-1 $-1 $262 $100 #
plane-surface $-1 -41.447886692367234 -18.272306670074364 0 -1 0 0 0 0 1 forward_v I I I I #
coedge $-1 $263 $264 $265 $266 forward $101 $-1 #
coedge $-1 $267 $103 $268 $269 reversed $64 $-1 #
coedge $-1 $103 $267 $270 $271 reversed $64 $-1 #
coedge $-1 $272 $273 $103 $165 forward $274 $-1 #
edge $-1 $275 -8.4961015510069657 $276 8.4961015510069657 $164 $277 forward 7 unknown #
face $-1 $278 $279 $38 $-1 $280 reversed single #
loop $-1 $-1 $281 $104 #
plane-surface $-1 45.16560721532025 -16.772306670074364 0 0 -1 0 0 0 -1 forward_v I I I I #
coedge $-1 $282 $283 $284 $285 forward $105 $-1 #
coedge $-1 $286 $107 $287 $288 reversed $67 $-1 #
coedge $-1 $107 $286 $289 $290 reversed $67 $-1 #
coedge $-1 $283 $282 $107 $173 reversed $105 $-1 #
edge $-1 $291 -8.4961015510069657 $292 8.4961015510069657 $172 $293 forward 7 unknown #
face $-1 $294 $295 $39 $-1 $296 forward single #
loop $-1 $-1 $297 $108 #
plane-surface $-1 -41.447886692367227 -85.572944592833721 87.8721949146952 1 0 0 0 0.52991927123019833 -0.84804809178421925 forward_v I I I I #
coedge $-1 $298 $299 $300 $301 reversed $109 $-1 #
coedge $-1 $179 $111 $302 $303 reversed $70 $-1 #
coedge $-1 $111 $178 $298 $304 reversed $70 $-1 #
coedge $-1 $300 $305 $111 $181 forward $295 $-1 #
edge $-1 $306 9.0219625243285648 $307 14.678716496380055 $180 $308 forward 7 unknown #
loop $-1 $-1 $187 $112 #
plane-surface $-1 -30.76063885536227 -33.764509772088303 4.9613692976847261 0 -0.52991927123019833 0.84804809178421925 1 0 0 forward_v I I I I #
loop $-1 $-1 $309 $72 #
coedge $-1 $185 $185 $186 $310 reversed $113 $-1 #
coedge $-1 $186 $186 $185 $310 forward $115 $-1 #
coedge $-1 $187 $187 $116 $188 forward $182 $-1 #
edge $-1 $311 -3.1057451356059755e-015 $311 6.2831853071795978 $187 $312 forward 7 unknown #
loop $-1 $-1 $194 $117 #
plane-surface $-1 -30.76063885536227 -33.764509772088303 4.9613692976847261 0 -0.52991927123019833 0.84804809178421925 1 0 0 forward_v I I I I #
loop $-1 $-1 $313 $75 #
coedge $-1 $192 $192 $193 $314 reversed $118 $-1 #
coedge $-1 $193 $193 $192 $314 forward $120 $-1 #
coedge $-1 $194 $194 $121 $195 forward $189 $-1 #
edge $-1 $315 -3.1057451356059755e-015 $315 6.2831853071795978 $194 $316 forward 7 unknown #
face $-1 $317 $318 $42 $-1 $319 reversed single #
loop $-1 $-1 $320 $122 #
plane-surface $-1 -25.161562783244154 84.668408946676948 109.52406258843283 -1 0 0 0 0.86602541151947299 0.49999998660252726 forward_v I I I I #
coedge $-1 $321 $322 $323 $324 reversed $123 $-1 #
coedge $-1 $201 $125 $325 $326 reversed $79 $-1 #
coedge $-1 $125 $200 $321 $327 reversed $79 $-1 #
coedge $-1 $323 $328 $125 $203 forward $329 $-1 #
edge $-1 $330 8.5696947012501781 $331 12.228485815906517 $202 $332 forward 7 unknown #
loop $-1 $-1 $209 $126 #
plane-surface $-1 -33.304724737805692 9.047182061294734e-007 60.640736159985664 0 0.86602541151947299 0.49999998660252726 1 0 0 forward_v I I I I #
loop $-1 $-1 $333 $81 #
coedge $-1 $207 $207 $208 $334 reversed $127 $-1 #
coedge $-1 $208 $208 $207 $334 forward $129 $-1 #
coedge $-1 $209 $209 $130 $210 forward $204 $-1 #
edge $-1 $335 -5.1279005428234403e-016 $335 6.2831853071795996 $209 $336 forward 7 unknown #
loop $-1 $-1 $216 $131 #
plane-surface $-1 -33.304724737805692 9.047182061294734e-007 60.640736159985664 0 0.86602541151947299 0.49999998660252726 1 0 0 forward_v I I I I #
loop $-1 $-1 $337 $84 #
coedge $-1 $214 $214 $215 $338 reversed $132 $-1 #
coedge $-1 $215 $215 $214 $338 forward $134 $-1 #
coedge $-1 $216 $216 $135 $217 forward $211 $-1 #
edge $-1 $339 -5.1279005428234403e-016 $339 6.2831853071795996 $216 $340 forward 7 unknown #
face $-1 $341 $342 $45 $-1 $343 forward single #
loop $-1 $-1 $344 $136 #
plane-surface $-1 16.28632390912308 84.668408946676948 109.52406258843283 -1 0 0 0 0.86602541151947299 0.49999998660252726 forward_v I I I I #
coedge $-1 $345 $346 $347 $348 reversed $137 $-1 #
coedge $-1 $223 $139 $349 $350 reversed $88 $-1 #
coedge $-1 $139 $222 $345 $351 reversed $88 $-1 #
coedge $-1 $347 $352 $139 $225 forward $342 $-1 #
edge $-1 $353 8.5696947012501781 $354 12.228485815906517 $224 $355 forward 7 unknown #
loop $-1 $-1 $231 $140 #
plane-surface $-1 8.1431619545615419 9.047182061294734e-007 60.640736159985664 0 0.86602541151947299 0.49999998660252726 1 0 0 forward_v I I I I #
loop $-1 $-1 $356 $90 #
coedge $-1 $229 $229 $230 $357 reversed $141 $-1 #
coedge $-1 $230 $230 $229 $357 forward $143 $-1 #
coedge $-1 $231 $231 $144 $232 forward $226 $-1 #
edge $-1 $358 -5.1279005428234403e-016 $358 6.2831853071795996 $231 $359 forward 7 unknown #
loop $-1 $-1 $238 $145 #
plane-surface $-1 8.1431619545615419 9.047182061294734e-007 60.640736159985664 0 0.86602541151947299 0.49999998660252726 1 0 0 forward_v I I I I #
loop $-1 $-1 $360 $93 #
coedge $-1 $236 $236 $237 $361 reversed $146 $-1 #
coedge $-1 $237 $237 $236 $361 forward $148 $-1 #
coedge $-1 $238 $238 $149 $239 forward $233 $-1 #
edge $-1 $362 -5.1279005428234403e-016 $362 6.2831853071795996 $238 $363 forward 7 unknown #
face $-1 $364 $365 $36 $-1 $366 reversed single #
loop $-1 $-1 $367 $150 #
plane-surface $-1 -48.883327738273266 0 0 1 0 0 0 0 -1 forward_v I I I I #
coedge $-1 $368 $251 $369 $370 forward $151 $-1 #
coedge $-1 $371 $153 $368 $372 forward $97 $-1 #
coedge $-1 $153 $371 $373 $374 forward $97 $-1 #
coedge $-1 $254 $253 $153 $247 reversed $255 $-1 #
edge $-1 $375 -33.764509772088296 $376 33.764509772088296 $246 $377 forward 7 unknown #
coedge $-1 $155 $154 $378 $379 forward $61 $-1 #
coedge $-1 $380 $381 $154 $250 reversed $365 $-1 #
edge $-1 $257 -48.883327738273266 $382 48.883327738273266 $249 $383 forward 7 unknown #
coedge $-1 $243 $384 $155 $252 reversed $151 $-1 #
edge $-1 $385 -48.883327738273266 $256 48.883327738273266 $251 $386 forward 7 unknown #
coedge $-1 $246 $156 $384 $387 forward $255 $-1 #
coedge $-1 $156 $246 $380 $388 reversed $255 $-1 #
loop $-1 $-1 $253 $364 #
vertex $-1 $157 $389 #
vertex $-1 $157 $390 #
straight-curve $-1 48.883327738273266 0 8.4961015510069657 0 1 0 I I #
face $-1 $391 $392 $37 $-1 $393 forward single #
loop $-1 $-1 $394 $158 #
plane-surface $-1 0 0 -8.4961015510069657 0 0 1 1 0 0 forward_v I I I I #
coedge $-1 $395 $396 $267 $397 forward $159 $-1 #
coedge $-1 $398 $161 $394 $399 reversed $101 $-1 #
coedge $-1 $161 $398 $400 $401 reversed $101 $-1 #
coedge $-1 $396 $395 $161 $266 reversed $159 $-1 #
edge $-1 $402 -8.4961015510069657 $403 8.4961015510069657 $265 $404 forward 7 unknown #
coedge $-1 $163 $162 $262 $397 reversed $64 $-1 #
coedge $-1 $405 $406 $162 $269 forward $260 $-1 #
edge $-1 $407 18.865083084707109 $275 26.300524130613141 $268 $408 forward 7 unknown #
coedge $-1 $409 $410 $163 $271 forward $392 $-1 #
edge $-1 $276 -26.300524130613141 $411 -18.865083084707109 $270 $412 forward 7 unknown #
coedge $-1 $413 $164 $410 $414 reversed $274 $-1 #
coedge $-1 $164 $413 $405 $415 reversed $274 $-1 #
loop $-1 $-1 $413 $391 #
vertex $-1 $415 $416 #
vertex $-1 $165 $417 #
straight-curve $-1 -48.883327738273266 -19.772306670074364 0 0 0 1 I I #
face $-1 $418 $419 $38 $-1 $420 forward single #
loop $-1 $-1 $287 $166 #
plane-surface $-1 0 0 -8.4961015510069657 0 0 1 1 0 0 forward_v I I I I #
coedge $-1 $421 $422 $423 $424 reversed $167 $-1 #
coedge $-1 $172 $169 $425 $426 reversed $105 $-1 #
coedge $-1 $169 $172 $427 $428 reversed $105 $-1 #
coedge $-1 $422 $421 $169 $285 reversed $167 $-1 #
edge $-1 $429 -8.4961015510069657 $430 8.4961015510069657 $284 $431 forward 7 unknown #
coedge $-1 $171 $170 $432 $433 reversed $67 $-1 #
coedge $-1 $425 $434 $170 $288 forward $279 $-1 #
edge $-1 $435 -26.300524130613141 $292 -18.865083084707109 $287 $436 forward 7 unknown #
coedge $-1 $437 $427 $171 $290 forward $419 $-1 #
edge $-1 $291 18.865083084707109 $438 26.300524130613141 $289 $439 forward 7 unknown #
vertex $-1 $290 $440 #
vertex $-1 $288 $441 #
straight-curve $-1 41.447886692367234 -19.772306670074364 0 0 0 -1 I I #
face $-1 $-1 $442 $39 $-1 $443 reversed single #
loop $-1 $-1 $180 $174 #
plane-surface $-1 0 0 8.4961015510069657 0 0 1 1 0 0 forward_v I I I I #
coedge $-1 $444 $445 $446 $447 reversed $175 $-1 #
coedge $-1 $448 $177 $179 $304 forward $109 $-1 #
coedge $-1 $177 $448 $444 $449 forward $109 $-1 #
coedge $-1 $446 $180 $177 $301 forward $295 $-1 #
edge $-1 $307 4.693071590676178 $450 26.06756726468609 $300 $451 forward 7 unknown #
coedge $-1 $452 $453 $178 $303 forward $442 $-1 #
edge $-1 $454 -38.974728159662867 $306 -35.439995906340634 $302 $455 forward 7 unknown #
edge $-1 $307 -6.6703221513654727 $454 -8.3790584163743152e-015 $179 $456 forward 7 unknown #
coedge $-1 $180 $446 $452 $457 forward $295 $-1 #
vertex $-1 $181 $458 #
vertex $-1 $181 $459 #
straight-curve $-1 -20.073391018357313 -42.786472296416861 8.4961015510069657 0 1 0 I I #
coedge $-1 $309 $309 $-1 $460 reversed $184 $-1 #
edge $-1 $461 0 $461 6.2831853071796004 $185 $462 forward 7 unknown #
vertex $-1 $188 $463 #
ellipse-curve $-1 -35.340887928364396 -30.936132786062544 6.7287354243458521 0 -0.52991927123019833 0.84804809178421925 1 0 0 1 I I #
coedge $-1 $313 $313 $-1 $464 reversed $191 $-1 #
edge $-1 $465 0 $465 6.2831853071796004 $192 $466 forward 7 unknown #
vertex $-1 $195 $467 #
ellipse-curve $-1 -26.180389782360145 -30.936132786062544 6.7287354243458521 0 -0.52991927123019833 0.84804809178421925 1 0 0 1 I I #
face $-1 $-1 $329 $42 $-1 $468 forward single #
loop $-1 $-1 $469 $196 #
plane-surface $-1 0 33.764509772088296 0 0 -1 0 0 0 -1 forward_v I I I I #
coedge $-1 $470 $471 $472 $473 reversed $197 $-1 #
coedge $-1 $474 $199 $201 $327 forward $123 $-1 #
coedge $-1 $199 $474 $470 $475 forward $123 $-1 #
coedge $-1 $472 $202 $199 $324 forward $329 $-1 #
edge $-1 $331 -24.795524323464388 $476 -8.5092004143413078 $323 $477 forward 7 unknown #
coedge $-1 $478 $479 $200 $326 forward $318 $-1 #
edge $-1 $480 -52.603142074482804 $330 -46.265929743209448 $325 $481 forward 7 unknown #
edge $-1 $331 60.211437118789675 $480 67.529019544176577 $201 $482 forward 7 unknown #
coedge $-1 $202 $472 $478 $483 forward $329 $-1 #
loop $-1 $-1 $472 $317 #
vertex $-1 $326 $484 #
vertex $-1 $203 $485 #
straight-curve $-1 -41.447886692367234 42.334204473338474 8.4961015510069657 0 -1 0 I I #
coedge $-1 $333 $333 $-1 $486 reversed $206 $-1 #
edge $-1 $487 0 $487 6.2831853071796004 $207 $488 forward 7 unknown #
vertex $-1 $210 $489 #
ellipse-curve $-1 -36.794651289760637 31.935114214760127 5.3274953853702849 0 0.86602541151947299 0.49999998660252726 1.5 0 0 1 I I #
coedge $-1 $337 $337 $-1 $490 reversed $213 $-1 #
edge $-1 $491 0 $491 6.2831853071796004 $214 $492 forward 7 unknown #
vertex $-1 $217 $493 #
ellipse-curve $-1 -29.814798185850748 31.935114214760127 5.3274953853702849 0 0.86602541151947299 0.49999998660252726 1.5 0 0 1 I I #
face $-1 $-1 $494 $45 $-1 $495 reversed single #
loop $-1 $-1 $224 $218 #
plane-surface $-1 0 0 8.4961015510069657 0 0 1 1 0 0 forward_v I I I I #
coedge $-1 $496 $497 $498 $499 reversed $219 $-1 #
coedge $-1 $500 $221 $223 $351 forward $137 $-1 #
coedge $-1 $221 $500 $496 $501 forward $137 $-1 #
coedge $-1 $498 $224 $221 $348 forward $342 $-1 #
edge $-1 $354 -4.0715809772807674 $502 12.214742931842309 $347 $503 forward 7 unknown #
coedge $-1 $504 $505 $222 $350 forward $494 $-1 #
edge $-1 $506 -52.603142074482804 $353 -46.265929743209448 $349 $507 forward 7 unknown #
edge $-1 $354 60.211437118789675 $506 67.529019544176577 $223 $508 forward 7 unknown #
coedge $-1 $224 $498 $504 $509 forward $342 $-1 #
vertex $-1 $350 $510 #
vertex $-1 $225 $511 #
straight-curve $-1 3.5527136788005009e-015 42.334204473338474 8.4961015510069657 0 -1 0 I I #
coedge $-1 $356 $356 $-1 $512 reversed $228 $-1 #
edge $-1 $513 0 $513 6.2831853071796004 $229 $514 forward 7 unknown #
vertex $-1 $232 $515 #
ellipse-curve $-1 4.6532354026065974 31.935114214760127 5.3274953853702849 0 0.86602541151947299 0.49999998660252726 1.5 0 0 1 I I #
coedge $-1 $360 $360 $-1 $516 reversed $235 $-1 #
edge $-1 $517 0 $517 6.2831853071796004 $236 $518 forward 7 unknown #
vertex $-1 $239 $519 #
ellipse-curve $-1 11.633088506516486 31.935114214760127 5.3274953853702849 0 0.86602541151947299 0.49999998660252726 1.5 0 0 1 I I #
face $-1 $-1 $255 $36 $-1 $520 reversed single #
loop $-1 $-1 $380 $240 #
plane-surface $-1 0 33.764509772088296 0 0 -1 0 0 0 -1 forward_v I I I I #
coedge $-1 $521 $378 $381 $522 forward $241 $-1 #
coedge $-1 $384 $243 $244 $372 reversed $151 $-1 #
coedge $-1 $378 $521 $243 $370 reversed $241 $-1 #
edge $-1 $385 -8.4961015510069657 $523 8.4961015510069657 $369 $524 forward 7 unknown #
coedge $-1 $245 $244 $521 $525 forward $97 $-1 #
edge $-1 $376 -48.883327738273266 $523 48.883327738273266 $368 $526 forward 7 unknown #
coedge $-1 $381 $380 $245 $374 reversed $365 $-1 #
edge $-1 $527 -48.883327738273266 $375 48.883327738273266 $373 $528 forward 7 unknown #
vertex $-1 $247 $529 #
vertex $-1 $387 $530 #
straight-curve $-1 48.883327738273266 0 -8.4961015510069657 0 -1 0 I I #
coedge $-1 $367 $369 $248 $379 reversed $241 $-1 #
edge $-1 $382 -33.764509772088296 $385 33.764509772088296 $378 $531 forward 7 unknown #
coedge $-1 $373 $249 $254 $388 forward $365 $-1 #
coedge $-1 $249 $373 $367 $522 reversed $365 $-1 #
vertex $-1 $250 $532 #
straight-curve $-1 0 33.764509772088296 8.4961015510069657 -1 0 0 I I #
coedge $-1 $251 $368 $253 $387 reversed $151 $-1 #
vertex $-1 $379 $533 #
straight-curve $-1 0 -33.764509772088296 8.4961015510069657 1 0 0 I I #
edge $-1 $256 -8.4961015510069657 $376 8.4961015510069657 $253 $534 forward 7 unknown #
edge $-1 $257 -8.4961015510069657 $375 8.4961015510069657 $254 $535 forward 7 unknown #
point $-1 48.883327738273266 -33.764509772088296 8.4961015510069657 #
point $-1 48.883327738273266 33.764509772088296 8.4961015510069657 #
face $-1 $-1 $274 $37 $-1 $536 reversed single #
loop $-1 $-1 $400 $259 #
plane-surface $-1 0 0 8.4961015510069657 0 0 1 1 0 0 forward_v I I I I #
coedge $-1 $406 $405 $263 $399 forward $260 $-1 #
coedge $-1 $265 $262 $406 $537 reversed $159 $-1 #
coedge $-1 $262 $265 $409 $538 reversed $159 $-1 #
edge $-1 $411 -8.4961015510069657 $407 8.4961015510069657 $262 $539 forward 7 unknown #
coedge $-1 $264 $263 $413 $540 reversed $101 $-1 #
edge $-1 $541 -26.300524130613141 $403 -18.865083084707109 $394 $542 forward 7 unknown #
coedge $-1 $410 $409 $264 $401 forward $392 $-1 #
edge $-1 $402 18.865083084707109 $543 26.300524130613141 $400 $544 forward 7 unknown #
vertex $-1 $401 $545 #
vertex $-1 $399 $546 #
straight-curve $-1 -41.447886692367234 -16.772306670074364 0 0 0 -1 I I #
coedge $-1 $394 $268 $273 $415 forward $260 $-1 #
coedge $-1 $268 $394 $395 $537 forward $260 $-1 #
vertex $-1 $269 $547 #
straight-curve $-1 -22.582803607660125 -19.772306670074364 -8.4961015510069657 -1 0 0 I I #
coedge $-1 $400 $270 $396 $538 forward $392 $-1 #
coedge $-1 $270 $400 $272 $414 forward $392 $-1 #
vertex $-1 $271 $548 #
straight-curve $-1 -22.582803607660125 -19.772306670074364 8.4961015510069657 1 0 0 I I #
coedge $-1 $273 $272 $398 $540 forward $274 $-1 #
edge $-1 $543 16.772306670074364 $276 19.772306670074364 $272 $549 forward 7 unknown #
edge $-1 $275 -19.772306670074364 $541 -16.772306670074364 $273 $550 forward 7 unknown #
point $-1 -48.883327738273266 -19.772306670074364 -8.4961015510069657 #
point $-1 -48.883327738273266 -19.772306670074364 8.4961015510069657 #
face $-1 $-1 $551 $38 $-1 $552 reversed single #
loop $-1 $-1 $289 $278 #
plane-surface $-1 0 0 8.4961015510069657 0 0 1 1 0 0 forward_v I I I I #
coedge $-1 $284 $281 $553 $554 reversed $167 $-1 #
coedge $-1 $281 $284 $555 $556 reversed $167 $-1 #
coedge $-1 $557 $558 $281 $424 forward $551 $-1 #
edge $-1 $559 -8.4961015510069657 $560 8.4961015510069657 $423 $561 forward 7 unknown #
coedge $-1 $553 $287 $282 $426 forward $279 $-1 #
edge $-1 $292 -10.636153335037182 $430 -7.6361533350371822 $425 $562 forward 7 unknown #
coedge $-1 $289 $555 $283 $428 forward $419 $-1 #
edge $-1 $429 7.6361533350371822 $291 10.636153335037182 $427 $563 forward 7 unknown #
vertex $-1 $428 $564 #
vertex $-1 $426 $565 #
straight-curve $-1 41.447886692367234 -16.772306670074364 0 0 0 -1 I I #
coedge $-1 $558 $557 $286 $433 forward $551 $-1 #
edge $-1 $438 -8.4961015510069657 $435 8.4961015510069657 $432 $566 forward 7 unknown #
coedge $-1 $287 $553 $558 $567 forward $279 $-1 #
vertex $-1 $433 $568 #
straight-curve $-1 22.582803607660125 -19.772306670074364 -8.4961015510069657 -1 0 0 I I #
coedge $-1 $555 $289 $557 $569 forward $419 $-1 #
vertex $-1 $569 $570 #
straight-curve $-1 22.582803607660125 -19.772306670074364 8.4961015510069657 1 0 0 I I #
point $-1 41.447886692367234 -19.772306670074364 8.4961015510069657 #
point $-1 41.447886692367234 -19.772306670074364 -8.4961015510069657 #
loop $-1 $-1 $302 $294 #
plane-surface $-1 0 -33.764509772088296 0 0 1 0 0 0 1 forward_v I I I I #
coedge $-1 $445 $297 $299 $449 reversed $175 $-1 #
coedge $-1 $297 $444 $571 $572 reversed $175 $-1 #
coedge $-1 $305 $300 $297 $447 forward $295 $-1 #
edge $-1 $450 -14.678716496380055 $573 -9.0219625243285648 $446 $574 forward 7 unknown #
coedge $-1 $299 $298 $453 $575 reversed $109 $-1 #
edge $-1 $576 8.3790584163743152e-015 $450 6.6703221513654727 $444 $577 forward 7 unknown #
vertex $-1 $301 $578 #
straight-curve $-1 -15.380319427681135 -28.107755800036806 8.4961015510069657 -1 0 0 I I #
coedge $-1 $571 $302 $305 $457 reversed $442 $-1 #
coedge $-1 $302 $571 $448 $575 forward $442 $-1 #
vertex $-1 $303 $579 #
straight-curve $-1 -20.073391018357313 -33.764509772088296 43.9360974573476 0 0 1 I I #
straight-curve $-1 -20.073391018357313 -33.764509772088303 4.9613692976847261 0 -0.84804809178421925 -0.52991927123019833 I I #
edge $-1 $573 -41.447886692367227 $306 -20.073391018357313 $452 $580 forward 7 unknown #
point $-1 -20.073391018357313 -33.764509772088296 8.4961015510069657 #
point $-1 -20.073391018357313 -28.107755800036806 8.4961015510069657 #
edge $-1 $581 1 $581 0 $309 $-1 forward 7 unknown #
vertex $-1 $310 $582 #
ellipse-curve $-1 -35.340887928364396 -28.947839842487433 3.5468016313126354 0 -0.52991927123019833 0.84804809178421925 1 0 0 1 I I #
point $-1 -34.340887928364396 -30.93613278606254 6.7287354243458406 #
edge $-1 $583 1 $583 0 $313 $-1 forward 7 unknown #
vertex $-1 $314 $584 #
ellipse-curve $-1 -26.180389782360145 -28.947839842487433 3.5468016313126354 0 -0.52991927123019833 0.84804809178421925 1 0 0 1 I I #
point $-1 -25.180389782360145 -30.93613278606254 6.7287354243458406 #
plane-surface $-1 0 0 8.4961015510069657 0 0 1 1 0 0 forward_v I I I I #
coedge $-1 $479 $478 $471 $585 forward $318 $-1 #
coedge $-1 $471 $320 $322 $475 reversed $197 $-1 #
coedge $-1 $320 $470 $469 $585 reversed $197 $-1 #
coedge $-1 $328 $323 $320 $473 forward $329 $-1 #
edge $-1 $476 -12.228485815906517 $586 -8.5696947012501781 $472 $587 forward 7 unknown #
coedge $-1 $322 $321 $479 $588 reversed $123 $-1 #
edge $-1 $589 -67.529019544176577 $476 -60.211437118789675 $470 $590 forward 7 unknown #
vertex $-1 $324 $591 #
straight-curve $-1 -16.652362368902846 30.105718657431957 8.4961015510069657 1 0 0 I I #
coedge $-1 $469 $325 $328 $483 reversed $318 $-1 #
coedge $-1 $325 $469 $474 $588 forward $318 $-1 #
vertex $-1 $326 $592 #
straight-curve $-1 -41.447886692367234 33.764509772088296 54.762031294216413 0 0 1 I I #
straight-curve $-1 -41.447886692367234 9.047182061294734e-007 60.640736159985664 0 0.49999998660252726 -0.86602541151947299 I I #
edge $-1 $586 25.161562783244154 $330 41.447886692367234 $478 $593 forward 7 unknown #
point $-1 -41.447886692367234 33.764509772088296 8.4961015510069657 #
point $-1 -41.447886692367234 30.105718657431957 8.4961015510069657 #
edge $-1 $594 1 $594 0 $333 $-1 forward 7 unknown #
vertex $-1 $334 $595 #
ellipse-curve $-1 -36.794651289760637 27.789150036506847 2.9338219365230103 0 0.86602541151947299 0.49999998660252726 1.5 0 0 1 I I #
point $-1 -35.294651289760637 31.935114214760127 5.3274953853702858 #
edge $-1 $596 1 $596 0 $337 $-1 forward 7 unknown #
vertex $-1 $338 $597 #
ellipse-curve $-1 -29.814798185850748 27.789150036506847 2.9338219365230103 0 0.86602541151947299 0.49999998660252726 1.5 0 0 1 I I #
point $-1 -28.314798185850748 31.935114214760127 5.3274953853702858 #
loop $-1 $-1 $349 $341 #
plane-surface $-1 0 33.764509772088296 0 0 -1 0 0 0 -1 forward_v I I I I #
coedge $-1 $497 $344 $346 $501 reversed $219 $-1 #
coedge $-1 $344 $496 $598 $599 reversed $219 $-1 #
coedge $-1 $352 $347 $344 $499 forward $342 $-1 #
edge $-1 $502 -12.228485815906517 $600 -8.5696947012501781 $498 $601 forward 7 unknown #
coedge $-1 $346 $345 $505 $602 reversed $137 $-1 #
edge $-1 $603 -67.529019544176577 $502 -60.211437118789675 $496 $604 forward 7 unknown #
vertex $-1 $348 $605 #
straight-curve $-1 4.071580977280771 30.105718657431957 8.4961015510069657 1 0 0 I I #
coedge $-1 $598 $349 $352 $509 reversed $494 $-1 #
coedge $-1 $349 $598 $500 $602 forward $494 $-1 #
vertex $-1 $350 $606 #
straight-curve $-1 3.5527136788005009e-015 33.764509772088296 54.762031294216413 0 0 1 I I #
straight-curve $-1 3.5527136788005009e-015 9.047182061294734e-007 60.640736159985664 0 0.49999998660252726 -0.86602541151947299 I I #
edge $-1 $600 -16.28632390912308 $353 -3.5527136788005009e-015 $504 $607 forward 7 unknown #
point $-1 3.5527136788005009e-015 33.764509772088296 8.4961015510069657 #
point $-1 3.5527136788005009e-015 30.105718657431957 8.4961015510069657 #
edge $-1 $608 1 $608 0 $356 $-1 forward 7 unknown #
vertex $-1 $357 $609 #
ellipse-curve $-1 4.6532354026065974 27.789150036506847 2.9338219365230103 0 0.86602541151947299 0.49999998660252726 1.5 0 0 1 I I #
point $-1 6.1532354026065974 31.935114214760127 5.3274953853702858 #
edge $-1 $610 1 $610 0 $360 $-1 forward 7 unknown #
vertex $-1 $361 $611 #
ellipse-curve $-1 11.633088506516486 27.789150036506847 2.9338219365230103 0 0.86602541151947299 0.49999998660252726 1.5 0 0 1 I I #
point $-1 13.133088506516486 31.935114214760127 5.3274953853702858 #
plane-surface $-1 48.883327738273266 0 0 -1 0 0 0 0 1 forward_v I I I I #
coedge $-1 $369 $367 $371 $525 reversed $241 $-1 #
edge $-1 $382 -8.4961015510069657 $527 8.4961015510069657 $381 $612 forward 7 unknown #
vertex $-1 $525 $613 #
straight-curve $-1 -48.883327738273266 -33.764509772088296 0 0 0 -1 I I #
edge $-1 $523 -33.764509772088296 $527 33.764509772088296 $521 $614 forward 7 unknown #
straight-curve $-1 0 -33.764509772088296 -8.4961015510069657 -1 0 0 I I #
vertex $-1 $374 $615 #
straight-curve $-1 0 33.764509772088296 -8.4961015510069657 1 0 0 I I #
point $-1 48.883327738273266 33.764509772088296 -8.4961015510069657 #
point $-1 48.883327738273266 -33.764509772088296 -8.4961015510069657 #
straight-curve $-1 -48.883327738273266 0 8.4961015510069657 0 -1 0 I I #
point $-1 -48.883327738273266 33.764509772088296 8.4961015510069657 #
point $-1 -48.883327738273266 -33.764509772088296 8.4961015510069657 #
straight-curve $-1 48.883327738273266 -33.764509772088296 0 0 0 -1 I I #
straight-curve $-1 48.883327738273266 33.764509772088296 0 0 0 -1 I I #
plane-surface $-1 -48.883327738273266 0 0 1 0 0 0 0 -1 forward_v I I I I #
edge $-1 $403 7.6361533350371822 $407 10.636153335037182 $406 $616 forward 7 unknown #
edge $-1 $411 -10.636153335037182 $402 -7.6361533350371822 $409 $617 forward 7 unknown #
straight-curve $-1 -41.447886692367234 -19.772306670074364 0 0 0 -1 I I #
edge $-1 $543 -8.4961015510069657 $541 8.4961015510069657 $413 $618 forward 7 unknown #
vertex $-1 $540 $619 #
straight-curve $-1 -22.582803607660125 -16.772306670074364 -8.4961015510069657 1 0 0 I I #
vertex $-1 $414 $620 #
straight-curve $-1 -22.582803607660125 -16.772306670074364 8.4961015510069657 -1 0 0 I I #
point $-1 -41.447886692367234 -16.772306670074364 8.4961015510069657 #
point $-1 -41.447886692367234 -16.772306670074364 -8.4961015510069657 #
point $-1 -41.447886692367234 -19.772306670074364 -8.4961015510069657 #
point $-1 -41.447886692367234 -19.772306670074364 8.4961015510069657 #
straight-curve $-1 -48.883327738273266 0 8.4961015510069657 0 -1 0 I I #
straight-curve $-1 -48.883327738273266 0 -8.4961015510069657 0 1 0 I I #
loop $-1 $-1 $432 $418 #
plane-surface $-1 48.883327738273266 0 0 -1 0 0 0 0 1 forward_v I I I I #
coedge $-1 $434 $425 $421 $554 forward $279 $-1 #
edge $-1 $430 18.865083084707109 $559 26.300524130613141 $553 $621 forward 7 unknown #
coedge $-1 $427 $437 $422 $556 forward $419 $-1 #
edge $-1 $560 -26.300524130613141 $429 -18.865083084707109 $555 $622 forward 7 unknown #
coedge $-1 $432 $423 $437 $569 reversed $551 $-1 #
coedge $-1 $423 $432 $434 $567 reversed $551 $-1 #
vertex $-1 $567 $623 #
vertex $-1 $424 $624 #
straight-curve $-1 48.883327738273266 -16.772306670074364 0 0 0 1 I I #
straight-curve $-1 41.447886692367234 -9.1361533350371822 -8.4961015510069657 0 1 0 I I #
straight-curve $-1 41.447886692367234 -9.1361533350371822 8.4961015510069657 0 -1 0 I I #
point $-1 41.447886692367234 -16.772306670074364 8.4961015510069657 #
point $-1 41.447886692367234 -16.772306670074364 -8.4961015510069657 #
straight-curve $-1 48.883327738273266 -19.772306670074364 0 0 0 -1 I I #
edge $-1 $559 16.772306670074364 $435 19.772306670074364 $558 $625 forward 7 unknown #
point $-1 48.883327738273266 -19.772306670074364 -8.4961015510069657 #
edge $-1 $438 -19.772306670074364 $560 -16.772306670074364 $557 $626 forward 7 unknown #
point $-1 48.883327738273266 -19.772306670074364 8.4961015510069657 #
coedge $-1 $453 $452 $445 $572 forward $442 $-1 #
edge $-1 $573 35.439995906340634 $576 38.974728159662867 $571 $627 forward 7 unknown #
vertex $-1 $457 $628 #
straight-curve $-1 -41.447886692367227 -42.786472296416861 8.4961015510069657 0 -1 0 I I #
edge $-1 $576 -26.06756726468609 $454 -4.693071590676178 $453 $629 forward 7 unknown #
vertex $-1 $575 $630 #
straight-curve $-1 -41.447886692367227 -33.764509772088303 4.9613692976847261 0 0.84804809178421925 0.52991927123019833 I I #
point $-1 -41.447886692367227 -28.107755800036806 8.4961015510069657 #
point $-1 -20.073391018357313 -33.764509772088296 4.9613692976847306 #
straight-curve $-1 0 -33.764509772088296 8.4961015510069657 1 0 0 I I #
vertex $-1 $460 $631 #
point $-1 -34.340887928364396 -28.947839842487433 3.5468016313126354 #
vertex $-1 $464 $632 #
point $-1 -25.180389782360145 -28.947839842487433 3.5468016313126354 #
edge $-1 $586 46.265929743209448 $589 52.603142074482804 $469 $633 forward 7 unknown #
vertex $-1 $483 $634 #
straight-curve $-1 -25.161562783244154 42.334204473338474 8.4961015510069657 0 1 0 I I #
edge $-1 $589 8.5092004143413078 $480 24.795524323464388 $479 $635 forward 7 unknown #
vertex $-1 $588 $636 #
straight-curve $-1 -25.161562783244154 9.047182061294734e-007 60.640736159985664 0 -0.49999998660252726 0.86602541151947299 I I #
point $-1 -25.161562783244154 30.105718657431957 8.4961015510069657 #
point $-1 -41.447886692367234 33.764509772088296 2.1588892197336094 #
straight-curve $-1 0 33.764509772088296 8.4961015510069657 -1 0 0 I I #
vertex $-1 $486 $637 #
point $-1 -35.294651289760637 27.789150036506847 2.9338219365230103 #
vertex $-1 $490 $638 #
point $-1 -28.314798185850748 27.789150036506847 2.9338219365230103 #
coedge $-1 $505 $504 $497 $599 forward $494 $-1 #
edge $-1 $600 46.265929743209448 $603 52.603142074482804 $598 $639 forward 7 unknown #
vertex $-1 $509 $640 #
straight-curve $-1 16.28632390912308 42.334204473338474 8.4961015510069657 0 1 0 I I #
edge $-1 $603 -12.214742931842309 $506 4.0715809772807674 $505 $641 forward 7 unknown #
vertex $-1 $602 $642 #
straight-curve $-1 16.28632390912308 9.047182061294734e-007 60.640736159985664 0 -0.49999998660252726 0.86602541151947299 I I #
point $-1 16.28632390912308 30.105718657431957 8.4961015510069657 #
point $-1 3.5527136788005009e-015 33.764509772088296 2.1588892197336094 #
straight-curve $-1 0 33.764509772088296 8.4961015510069657 -1 0 0 I I #
vertex $-1 $512 $643 #
point $-1 6.1532354026065974 27.789150036506847 2.9338219365230103 #
vertex $-1 $516 $644 #
point $-1 13.133088506516486 27.789150036506847 2.9338219365230103 #
straight-curve $-1 -48.883327738273266 33.764509772088296 0 0 0 -1 I I #
point $-1 -48.883327738273266 -33.764509772088296 -8.4961015510069657 #
straight-curve $-1 -48.883327738273266 0 -8.4961015510069657 0 1 0 I I #
point $-1 -48.883327738273266 33.764509772088296 -8.4961015510069657 #
straight-curve $-1 -41.447886692367234 -9.1361533350371822 -8.4961015510069657 0 -1 0 I I #
straight-curve $-1 -41.447886692367234 -9.1361533350371822 8.4961015510069657 0 1 0 I I #
straight-curve $-1 -48.883327738273266 -16.772306670074364 0 0 0 -1 I I #
point $-1 -48.883327738273266 -16.772306670074364 -8.4961015510069657 #
point $-1 -48.883327738273266 -16.772306670074364 8.4961015510069657 #
straight-curve $-1 22.582803607660125 -16.772306670074364 -8.4961015510069657 1 0 0 I I #
straight-curve $-1 22.582803607660125 -16.772306670074364 8.4961015510069657 -1 0 0 I I #
point $-1 48.883327738273266 -16.772306670074364 -8.4961015510069657 #
point $-1 48.883327738273266 -16.772306670074364 8.4961015510069657 #
straight-curve $-1 48.883327738273266 0 -8.4961015510069657 0 -1 0 I I #
straight-curve $-1 48.883327738273266 0 8.4961015510069657 0 1 0 I I #
straight-curve $-1 -41.447886692367227 -33.764509772088296 43.9360974573476 0 0 -1 I I #
point $-1 -41.447886692367227 -33.764509772088296 8.4961015510069657 #
straight-curve $-1 -15.380319427681135 -33.764509772088296 4.9613692976847314 1 0 0 I I #
point $-1 -41.447886692367227 -33.764509772088296 4.9613692976847306 #
point $-1 -35.340887928364396 -28.417920571257234 2.6987535395284157 #
point $-1 -26.180389782360145 -28.417920571257234 2.6987535395284157 #
straight-curve $-1 -25.161562783244154 33.764509772088296 54.762031294216413 0 0 -1 I I #
point $-1 -25.161562783244154 33.764509772088296 8.4961015510069657 #
straight-curve $-1 -16.652362368902846 33.764509772088296 2.1588892197336058 -1 0 0 I I #
point $-1 -25.161562783244154 33.764509772088296 2.1588892197336094 #
point $-1 -36.794651289760637 26.490111919227637 2.1838219566192194 #
point $-1 -29.814798185850748 26.490111919227637 2.1838219566192194 #
straight-curve $-1 16.28632390912308 33.764509772088296 54.762031294216413 0 0 -1 I I #
point $-1 16.28632390912308 33.764509772088296 8.4961015510069657 #
straight-curve $-1 4.071580977280771 33.764509772088296 2.1588892197336058 -1 0 0 I I #
point $-1 16.28632390912308 33.764509772088296 2.1588892197336094 #
point $-1 4.6532354026065974 26.490111919227637 2.1838219566192194 #
point $-1 11.633088506516486 26.490111919227637 2.1838219566192194 #
End-of-ACIS-data 