500 0 6 0           
7 Unknown 11 ACIS 5.0 NT 24 Thu Mar 25 16:33:28 1999 
-1 9.9999999999999995e-007 1e-010 
body $-1 $6 $-1 $7 #
body $-1 $8 $-1 $9 #
body $-1 $10 $-1 $11 #
body $-1 $12 $-1 $13 #
body $-1 $14 $-1 $15 #
body $-1 $16 $-1 $17 #
lump $-1 $-1 $18 $0 #
transform $-1 1 0 0 0 1 0 0 0 1 74.070863979003263 39.097489612160004 19.495766854519594 1 rotate no_reflect no_shear #
lump $-1 $-1 $19 $1 #
transform $-1 1 0 0 0 1 0 0 0 1 74.070863979003263 39.097489612160004 19.495766854519594 1 rotate no_reflect no_shear #
lump $-1 $-1 $20 $2 #
transform $-1 1 0 0 0 1 0 0 0 1 74.070863979003263 39.097489612160004 19.495766854519594 1 rotate no_reflect no_shear #
lump $-1 $-1 $21 $3 #
transform $-1 1 0 0 0 1 0 0 0 1 74.070863979003263 39.097489612160004 19.495766854519594 1 rotate no_reflect no_shear #
lump $-1 $-1 $22 $4 #
transform $-1 1 0 0 0 1 0 0 0 1 74.070863979003263 39.097489612160004 19.495766854519594 1 rotate no_reflect no_shear #
lump $-1 $-1 $23 $5 #
transform $-1 1 0 0 0 1 0 0 0 1 74.070863979003263 39.097489612160004 19.495766854519594 1 rotate no_reflect no_shear #
shell $-1 $-1 $-1 $24 $-1 $6 #
shell $-1 $-1 $-1 $25 $-1 $8 #
shell $-1 $-1 $-1 $26 $-1 $10 #
shell $-1 $-1 $-1 $27 $-1 $12 #
shell $-1 $-1 $-1 $28 $-1 $14 #
shell $-1 $-1 $-1 $29 $-1 $16 #
face $-1 $30 $31 $18 $-1 $32 forward single #
face $-1 $33 $34 $19 $-1 $35 reversed single #
face $-1 $36 $37 $20 $-1 $38 reversed single #
face $-1 $39 $40 $21 $-1 $41 reversed single #
face $-1 $42 $43 $22 $-1 $44 forward single #
face $-1 $45 $46 $23 $-1 $47 forward single #
face $-1 $48 $49 $18 $-1 $50 reversed single #
loop $-1 $-1 $51 $24 #
plane-surface $-1 0 0 19.495766854519594 0 0 1 1 0 0 forward_v I I I I #
face $-1 $52 $53 $19 $-1 $54 reversed single #
loop $-1 $-1 $55 $25 #
plane-surface $-1 -65.274457509681085 0 14.048946967243218 0 0 1 1 0 0 forward_v I I I I #
face $-1 $56 $57 $20 $-1 $58 reversed single #
loop $-1 $-1 $59 $26 #
plane-surface $-1 65.274457509681099 0 14.048946967243218 0 0 1 1 0 0 forward_v I I I I #
face $-1 $60 $61 $21 $-1 $62 reversed single #
loop $-1 $-1 $63 $27 #
plane-surface $-1 -30.988725975658589 -164.72880114223818 89.170755142577036 -1 0 0 0 -0.84804810408105047 0.52991925155115449 forward_v I I I I #
face $-1 $64 $65 $22 $-1 $66 forward single #
loop $-1 $67 $68 $28 #
cone-surface $-1 -49.195386736158824 -34.092313829618433 13.67763348806692 0 0.84804810408105047 -0.52991925155115449 2 0 0 1 I I 0 1 2 forward I I I I #
face $-1 $69 $70 $23 $-1 $71 forward single #
loop $-1 $72 $73 $29 #
cone-surface $-1 -38.271390279858679 -34.092313829618433 13.67763348806692 0 0.84804810408105047 -0.52991925155115449 2 0 0 1 I I 0 1 2 forward I I I I #
face $-1 $74 $75 $18 $-1 $76 reversed single #
loop $-1 $-1 $77 $30 #
plane-surface $-1 0 0 -19.495766854519594 0 0 1 1 0 0 forward_v I I I I #
coedge $-1 $78 $79 $80 $81 forward $31 $-1 #
face $-1 $82 $83 $19 $-1 $84 reversed single #
loop $-1 $-1 $85 $33 #
plane-surface $-1 -56.478051040358906 0 16.772356910881406 -1 0 0 0 0 1 forward_v I I I I #
coedge $-1 $86 $87 $88 $89 forward $34 $-1 #
face $-1 $90 $91 $20 $-1 $92 forward single #
loop $-1 $-1 $93 $36 #
plane-surface $-1 56.47805104035892 0 16.772356910881406 1 0 0 0 0 -1 forward_v I I I I #
coedge $-1 $94 $95 $96 $97 reversed $37 $-1 #
face $-1 $98 $99 $21 $-1 $100 forward single #
loop $-1 $-1 $101 $39 #
plane-surface $-1 -43.733388508008751 -39.097489612160004 10.667601539575486 0 -0.84804810408105047 0.52991925155115449 1 0 0 forward_v I I I I #
coedge $-1 $102 $103 $104 $105 reversed $40 $-1 #
face $-1 $-1 $106 $22 $-1 $107 forward single #
loop $-1 $108 $109 $42 #
cone-surface $-1 -49.195386736158824 -30.997314820660264 11.743663527535141 0 0.84804810408105047 -0.52991925155115449 1 0 0 1 I I -0.70710678118654746 0.70710678118654746 1 forward I I I I #
loop $-1 $-1 $110 $28 #
coedge $-1 $68 $68 $111 $112 reversed $43 $-1 #
face $-1 $-1 $113 $23 $-1 $114 forward single #
loop $-1 $115 $116 $45 #
cone-surface $-1 -38.271390279858679 -30.997314820660264 11.743663527535141 0 0.84804810408105047 -0.52991925155115449 1 0 0 1 I I -0.70710678118654746 0.70710678118654746 1 forward I I I I #
loop $-1 $-1 $117 $29 #
coedge $-1 $73 $73 $118 $119 reversed $46 $-1 #
face $-1 $120 $121 $18 $-1 $122 reversed single #
loop $-1 $-1 $123 $48 #
plane-surface $-1 0 -39.097489612160004 0 0 1 0 0 0 1 forward_v I I I I #
coedge $-1 $124 $125 $126 $127 forward $49 $-1 #
coedge $-1 $128 $51 $129 $130 forward $31 $-1 #
coedge $-1 $51 $128 $131 $132 forward $31 $-1 #
coedge $-1 $133 $134 $51 $81 reversed $135 $-1 #
edge $-1 $136 -39.097489612160004 $137 39.097489612160004 $80 $138 forward 7 unknown #
face $-1 $139 $140 $19 $-1 $141 reversed single #
loop $-1 $-1 $142 $52 #
plane-surface $-1 0 39.097489612160004 0 0 -1 0 0 0 -1 forward_v I I I I #
coedge $-1 $88 $143 $144 $145 reversed $53 $-1 #
coedge $-1 $146 $55 $147 $148 reversed $34 $-1 #
coedge $-1 $55 $146 $149 $150 reversed $34 $-1 #
coedge $-1 $151 $85 $55 $89 reversed $53 $-1 #
edge $-1 $152 -39.097489612160004 $153 39.097489612160004 $88 $154 forward 7 unknown #
face $-1 $155 $156 $20 $-1 $157 reversed single #
loop $-1 $-1 $158 $56 #
plane-surface $-1 0 0 19.495766854519594 0 0 1 1 0 0 forward_v I I I I #
coedge $-1 $159 $160 $161 $162 reversed $57 $-1 #
coedge $-1 $163 $59 $164 $165 reversed $37 $-1 #
coedge $-1 $59 $163 $166 $167 reversed $37 $-1 #
coedge $-1 $168 $169 $59 $97 forward $170 $-1 #
edge $-1 $171 -39.097489612160004 $172 39.097489612160004 $96 $173 forward 7 unknown #
face $-1 $174 $175 $21 $-1 $176 forward single #
loop $-1 $-1 $104 $60 #
plane-surface $-1 0 0 19.495766854519594 0 0 1 1 0 0 forward_v I I I I #
coedge $-1 $177 $178 $179 $180 reversed $61 $-1 #
coedge $-1 $103 $63 $181 $182 reversed $40 $-1 #
coedge $-1 $63 $102 $177 $183 reversed $40 $-1 #
coedge $-1 $179 $184 $63 $105 forward $99 $-1 #
edge $-1 $185 43.266910958959087 $186 48.78336071428798 $104 $187 forward 7 unknown #
loop $-1 $-1 $111 $64 #
plane-surface $-1 -43.733388508008751 -39.097489612160004 10.667601539575486 0 -0.84804810408105047 0.52991925155115449 1 0 0 forward_v I I I I #
loop $-1 $-1 $188 $42 #
coedge $-1 $109 $109 $110 $189 reversed $65 $-1 #
coedge $-1 $110 $110 $109 $189 forward $67 $-1 #
coedge $-1 $111 $111 $68 $112 forward $106 $-1 #
edge $-1 $190 -1.8826513736455101e-015 $190 6.2831853071795987 $111 $191 forward 7 unknown #
loop $-1 $-1 $118 $69 #
plane-surface $-1 -43.733388508008751 -39.097489612160004 10.667601539575486 0 -0.84804810408105047 0.52991925155115449 1 0 0 forward_v I I I I #
loop $-1 $-1 $192 $45 #
coedge $-1 $116 $116 $117 $193 reversed $70 $-1 #
coedge $-1 $117 $117 $116 $193 forward $72 $-1 #
coedge $-1 $118 $118 $73 $119 forward $113 $-1 #
edge $-1 $194 -1.8826513736455101e-015 $194 6.2831853071795987 $118 $195 forward 7 unknown #
face $-1 $196 $197 $18 $-1 $198 reversed single #
loop $-1 $-1 $199 $74 #
plane-surface $-1 -74.070863979003263 0 0 1 0 0 0 0 -1 forward_v I I I I #
coedge $-1 $200 $131 $201 $202 forward $75 $-1 #
coedge $-1 $203 $77 $200 $204 forward $49 $-1 #
coedge $-1 $77 $203 $205 $206 forward $49 $-1 #
coedge $-1 $134 $133 $77 $127 reversed $135 $-1 #
edge $-1 $207 -39.097489612160004 $208 39.097489612160004 $126 $209 forward 7 unknown #
coedge $-1 $79 $78 $210 $211 forward $31 $-1 #
coedge $-1 $212 $213 $78 $130 reversed $197 $-1 #
edge $-1 $137 -74.070863979003263 $214 74.070863979003263 $129 $215 forward 7 unknown #
coedge $-1 $123 $216 $79 $132 reversed $75 $-1 #
edge $-1 $217 -74.070863979003263 $136 74.070863979003263 $131 $218 forward 7 unknown #
coedge $-1 $126 $80 $216 $219 forward $135 $-1 #
coedge $-1 $80 $126 $212 $220 reversed $135 $-1 #
loop $-1 $-1 $133 $196 #
vertex $-1 $81 $221 #
vertex $-1 $81 $222 #
straight-curve $-1 74.070863979003263 0 19.495766854519594 0 1 0 I I #
face $-1 $223 $224 $19 $-1 $225 forward single #
loop $-1 $-1 $226 $82 #
plane-surface $-1 -74.070863979003263 0 0 1 0 0 0 0 -1 forward_v I I I I #
coedge $-1 $149 $227 $151 $228 forward $83 $-1 #
coedge $-1 $85 $151 $229 $230 reversed $53 $-1 #
coedge $-1 $231 $147 $85 $145 forward $232 $-1 #
edge $-1 $153 5.6627685118025148 $233 11.109588399078891 $144 $234 forward 7 unknown #
coedge $-1 $87 $86 $226 $235 reversed $34 $-1 #
coedge $-1 $144 $236 $86 $148 forward $232 $-1 #
edge $-1 $237 -41.433635224162721 $153 -23.840822285518364 $147 $238 forward 7 unknown #
coedge $-1 $239 $142 $87 $150 forward $83 $-1 #
edge $-1 $152 23.840822285518364 $240 41.433635224162721 $149 $241 forward 7 unknown #
coedge $-1 $143 $88 $142 $228 reversed $53 $-1 #
vertex $-1 $150 $242 #
vertex $-1 $148 $243 #
straight-curve $-1 -56.478051040358906 0 14.048946967243218 0 -1 0 I I #
face $-1 $244 $245 $20 $-1 $246 reversed single #
loop $-1 $-1 $247 $90 #
plane-surface $-1 0 -39.097489612160004 0 0 1 0 0 0 1 forward_v I I I I #
coedge $-1 $248 $249 $160 $250 forward $91 $-1 #
coedge $-1 $251 $93 $163 $252 reversed $57 $-1 #
coedge $-1 $93 $251 $158 $250 reversed $57 $-1 #
coedge $-1 $253 $166 $93 $162 forward $245 $-1 #
edge $-1 $254 5.6627685118025148 $255 11.109588399078891 $161 $256 forward 7 unknown #
coedge $-1 $95 $94 $159 $252 forward $37 $-1 #
coedge $-1 $257 $247 $94 $165 forward $156 $-1 #
edge $-1 $258 23.840822285518371 $171 41.433635224162728 $164 $259 forward 7 unknown #
coedge $-1 $161 $260 $95 $167 forward $245 $-1 #
edge $-1 $172 -41.433635224162728 $254 -23.840822285518371 $166 $261 forward 7 unknown #
coedge $-1 $262 $96 $260 $263 reversed $170 $-1 #
coedge $-1 $96 $262 $257 $264 forward $170 $-1 #
loop $-1 $-1 $96 $244 #
vertex $-1 $165 $265 #
vertex $-1 $97 $266 #
straight-curve $-1 74.070863979003263 0 14.048946967243218 0 1 0 I I #
face $-1 $-1 $267 $21 $-1 $268 reversed single #
loop $-1 $-1 $269 $98 #
plane-surface $-1 -56.478051040358906 0 16.772356910881406 -1 0 0 0 0 1 forward_v I I I I #
coedge $-1 $270 $101 $103 $183 forward $61 $-1 #
coedge $-1 $101 $270 $269 $271 forward $61 $-1 #
coedge $-1 $272 $104 $101 $180 forward $99 $-1 #
edge $-1 $186 9.1220317216542135 $273 34.611356786354534 $179 $274 forward 7 unknown #
coedge $-1 $275 $276 $102 $182 forward $267 $-1 #
edge $-1 $277 -33.917776031713032 $185 -25.089610716768924 $181 $278 forward 7 unknown #
edge $-1 $186 -10.409981783415876 $277 0 $103 $279 forward 7 unknown #
coedge $-1 $104 $272 $275 $280 forward $99 $-1 #
vertex $-1 $182 $281 #
vertex $-1 $105 $282 #
straight-curve $-1 -30.988725975658589 -82.364400571119091 19.495766854519594 0 1 0 I I #
coedge $-1 $188 $188 $-1 $283 reversed $108 $-1 #
edge $-1 $284 0 $284 6.2831853071796004 $109 $285 forward 7 unknown #
vertex $-1 $112 $286 #
ellipse-curve $-1 -49.195386736158824 -36.339264734495551 15.081684197047544 0 -0.84804810408105047 0.52991925155115449 2 0 0 1 I I #
coedge $-1 $192 $192 $-1 $287 reversed $115 $-1 #
edge $-1 $288 0 $288 6.2831853071796004 $116 $289 forward 7 unknown #
vertex $-1 $119 $290 #
ellipse-curve $-1 -38.271390279858679 -36.339264734495551 15.081684197047544 0 -0.84804810408105047 0.52991925155115449 2 0 0 1 I I #
face $-1 $-1 $135 $18 $-1 $291 reversed single #
loop $-1 $-1 $212 $120 #
plane-surface $-1 0 39.097489612160004 0 0 -1 0 0 0 -1 forward_v I I I I #
coedge $-1 $292 $210 $213 $293 forward $121 $-1 #
coedge $-1 $216 $123 $124 $204 reversed $75 $-1 #
coedge $-1 $210 $292 $123 $202 reversed $121 $-1 #
edge $-1 $217 -19.495766854519594 $294 19.495766854519594 $201 $295 forward 7 unknown #
coedge $-1 $125 $124 $292 $296 forward $49 $-1 #
edge $-1 $208 -74.070863979003263 $294 74.070863979003263 $200 $297 forward 7 unknown #
coedge $-1 $213 $212 $125 $206 reversed $197 $-1 #
edge $-1 $298 -74.070863979003263 $207 74.070863979003263 $205 $299 forward 7 unknown #
vertex $-1 $127 $300 #
vertex $-1 $219 $301 #
straight-curve $-1 74.070863979003263 0 -19.495766854519594 0 -1 0 I I #
coedge $-1 $199 $201 $128 $211 reversed $121 $-1 #
edge $-1 $214 -39.097489612160004 $217 39.097489612160004 $210 $302 forward 7 unknown #
coedge $-1 $205 $129 $134 $220 forward $197 $-1 #
coedge $-1 $129 $205 $199 $293 reversed $197 $-1 #
vertex $-1 $130 $303 #
straight-curve $-1 0 39.097489612160004 19.495766854519594 -1 0 0 I I #
coedge $-1 $131 $200 $133 $219 reversed $75 $-1 #
vertex $-1 $211 $304 #
straight-curve $-1 0 -39.097489612160004 19.495766854519594 1 0 0 I I #
edge $-1 $136 -19.495766854519594 $208 19.495766854519594 $133 $305 forward 7 unknown #
edge $-1 $137 -19.495766854519594 $207 19.495766854519594 $134 $306 forward 7 unknown #
point $-1 74.070863979003263 -39.097489612160004 19.495766854519594 #
point $-1 74.070863979003263 39.097489612160004 19.495766854519594 #
face $-1 $-1 $232 $19 $-1 $307 reversed single #
loop $-1 $-1 $229 $139 #
plane-surface $-1 0 0 19.495766854519594 0 0 1 1 0 0 forward_v I I I I #
coedge $-1 $308 $309 $146 $235 forward $140 $-1 #
coedge $-1 $142 $239 $310 $311 reversed $83 $-1 #
edge $-1 $312 -11.109588399078891 $152 -5.6627685118025148 $142 $313 forward 7 unknown #
coedge $-1 $310 $314 $143 $230 forward $224 $-1 #
edge $-1 $233 -39.097489612160004 $312 39.097489612160004 $229 $315 forward 7 unknown #
coedge $-1 $236 $144 $314 $316 reversed $232 $-1 #
loop $-1 $-1 $144 $223 #
vertex $-1 $145 $317 #
straight-curve $-1 -56.478051040358906 -39.097489612160004 8.3861784554407031 0 0 1 I I #
edge $-1 $240 -39.097489612160004 $237 39.097489612160004 $226 $318 forward 7 unknown #
coedge $-1 $147 $231 $308 $319 forward $232 $-1 #
vertex $-1 $235 $320 #
straight-curve $-1 -32.637228754840542 -39.097489612160004 14.048946967243218 1 0 0 I I #
coedge $-1 $227 $149 $309 $321 reversed $83 $-1 #
vertex $-1 $235 $322 #
straight-curve $-1 -32.637228754840542 39.097489612160004 14.048946967243218 -1 0 0 I I #
point $-1 -56.478051040358906 39.097489612160004 14.048946967243218 #
point $-1 -56.478051040358906 -39.097489612160004 14.048946967243218 #
face $-1 $-1 $170 $20 $-1 $323 reversed single #
loop $-1 $-1 $161 $155 #
plane-surface $-1 0 39.097489612160004 0 0 -1 0 0 0 -1 forward_v I I I I #
coedge $-1 $164 $324 $251 $325 forward $156 $-1 #
coedge $-1 $326 $158 $324 $327 forward $91 $-1 #
coedge $-1 $158 $326 $253 $328 forward $91 $-1 #
edge $-1 $255 -39.097489612160004 $329 39.097489612160004 $158 $330 forward 7 unknown #
coedge $-1 $160 $159 $247 $325 reversed $57 $-1 #
edge $-1 $258 -39.097489612160004 $254 39.097489612160004 $159 $331 forward 7 unknown #
coedge $-1 $260 $161 $249 $328 reversed $245 $-1 #
vertex $-1 $167 $332 #
vertex $-1 $162 $333 #
straight-curve $-1 56.47805104035892 39.097489612160004 8.3861784554407031 0 0 1 I I #
coedge $-1 $324 $164 $169 $264 reversed $156 $-1 #
vertex $-1 $165 $334 #
straight-curve $-1 32.63722875484055 -39.097489612160004 14.048946967243218 1 0 0 I I #
coedge $-1 $166 $253 $168 $263 forward $245 $-1 #
straight-curve $-1 32.63722875484055 39.097489612160004 14.048946967243218 -1 0 0 I I #
coedge $-1 $169 $168 $326 $335 reversed $170 $-1 #
edge $-1 $336 -19.495766854519594 $172 -14.048946967243218 $168 $337 forward 7 unknown #
edge $-1 $338 -19.495766854519594 $171 -14.048946967243218 $169 $339 forward 7 unknown #
point $-1 74.070863979003278 -39.097489612160004 14.048946967243218 #
point $-1 74.070863979003278 39.097489612160004 14.048946967243218 #
loop $-1 $-1 $181 $174 #
plane-surface $-1 0 -39.097489612160004 0 0 1 0 0 0 1 forward_v I I I I #
coedge $-1 $340 $341 $178 $271 reversed $175 $-1 #
coedge $-1 $178 $177 $276 $342 reversed $61 $-1 #
edge $-1 $343 0 $273 10.409981783415876 $269 $344 forward 7 unknown #
coedge $-1 $184 $179 $341 $345 forward $99 $-1 #
vertex $-1 $345 $346 #
straight-curve $-1 -21.866694254004376 -33.581039856831111 19.495766854519594 -1 0 0 I I #
coedge $-1 $347 $181 $184 $280 reversed $267 $-1 #
coedge $-1 $181 $347 $270 $342 forward $267 $-1 #
vertex $-1 $182 $348 #
straight-curve $-1 -30.988725975658589 -39.097489612160004 44.585377571288518 0 0 1 I I #
straight-curve $-1 -30.988725975658589 -39.097489612160004 10.667601539575486 0 -0.52991925155115449 -0.84804810408105047 I I #
edge $-1 $349 -56.478051040358906 $185 -30.988725975658589 $275 $350 forward 7 unknown #
point $-1 -30.988725975658589 -39.097489612160004 19.495766854519594 #
point $-1 -30.988725975658589 -33.581039856831111 19.495766854519594 #
edge $-1 $351 1 $351 0 $188 $-1 forward 7 unknown #
vertex $-1 $189 $352 #
ellipse-curve $-1 -49.195386736158824 -31.845362924741316 12.273582779086295 0 -0.84804810408105047 0.52991925155115449 2 0 0 1 I I #
point $-1 -47.195386736158824 -36.339264734495558 15.081684197047544 #
edge $-1 $353 1 $353 0 $192 $-1 forward 7 unknown #
vertex $-1 $193 $354 #
ellipse-curve $-1 -38.271390279858679 -31.845362924741316 12.273582779086295 0 -0.84804810408105047 0.52991925155115449 2 0 0 1 I I #
point $-1 -36.271390279858679 -36.339264734495558 15.081684197047544 #
plane-surface $-1 74.070863979003263 0 0 -1 0 0 0 0 1 forward_v I I I I #
coedge $-1 $201 $199 $203 $296 reversed $121 $-1 #
edge $-1 $214 -19.495766854519594 $298 19.495766854519594 $213 $355 forward 7 unknown #
vertex $-1 $296 $356 #
straight-curve $-1 -74.070863979003263 -39.097489612160004 0 0 0 -1 I I #
edge $-1 $294 -39.097489612160004 $298 39.097489612160004 $292 $357 forward 7 unknown #
straight-curve $-1 0 -39.097489612160004 -19.495766854519594 -1 0 0 I I #
vertex $-1 $206 $358 #
straight-curve $-1 0 39.097489612160004 -19.495766854519594 1 0 0 I I #
point $-1 74.070863979003263 39.097489612160004 -19.495766854519594 #
point $-1 74.070863979003263 -39.097489612160004 -19.495766854519594 #
straight-curve $-1 -74.070863979003263 0 19.495766854519594 0 -1 0 I I #
point $-1 -74.070863979003263 39.097489612160004 19.495766854519594 #
point $-1 -74.070863979003263 -39.097489612160004 19.495766854519594 #
straight-curve $-1 74.070863979003263 -39.097489612160004 0 0 0 -1 I I #
straight-curve $-1 74.070863979003263 39.097489612160004 0 0 0 -1 I I #
plane-surface $-1 0 -39.097489612160004 0 0 1 0 0 0 1 forward_v I I I I #
coedge $-1 $359 $226 $236 $319 reversed $140 $-1 #
coedge $-1 $226 $359 $239 $321 forward $140 $-1 #
coedge $-1 $360 $229 $227 $311 forward $224 $-1 #
edge $-1 $312 56.478051040358906 $361 74.070863979003263 $227 $362 forward 7 unknown #
vertex $-1 $311 $363 #
straight-curve $-1 -56.478051040358906 39.097489612160004 8.3861784554407031 0 0 -1 I I #
coedge $-1 $229 $360 $231 $316 forward $224 $-1 #
straight-curve $-1 -56.478051040358906 0 19.495766854519594 0 1 0 I I #
edge $-1 $364 -74.070863979003263 $233 -56.478051040358906 $231 $365 forward 7 unknown #
point $-1 -56.478051040358906 -39.097489612160004 19.495766854519594 #
straight-curve $-1 -74.070863979003263 0 14.048946967243218 0 -1 0 I I #
edge $-1 $364 -19.495766854519594 $237 -14.048946967243218 $308 $366 forward 7 unknown #
point $-1 -74.070863979003263 -39.097489612160004 14.048946967243218 #
edge $-1 $361 -19.495766854519594 $240 -14.048946967243218 $239 $367 forward 7 unknown #
point $-1 -74.070863979003263 39.097489612160004 14.048946967243218 #
plane-surface $-1 74.070863979003263 0 0 -1 0 0 0 0 1 forward_v I I I I #
coedge $-1 $247 $257 $248 $327 reversed $156 $-1 #
edge $-1 $329 -11.109588399078891 $258 -5.6627685118025148 $247 $368 forward 7 unknown #
coedge $-1 $249 $248 $262 $335 forward $91 $-1 #
edge $-1 $329 56.47805104035892 $338 74.070863979003263 $324 $369 forward 7 unknown #
edge $-1 $336 -74.070863979003263 $255 -56.47805104035892 $253 $370 forward 7 unknown #
vertex $-1 $327 $371 #
straight-curve $-1 56.47805104035892 0 19.495766854519594 0 -1 0 I I #
straight-curve $-1 56.47805104035892 0 14.048946967243218 0 1 0 I I #
point $-1 56.47805104035892 39.097489612160004 14.048946967243218 #
point $-1 56.47805104035892 39.097489612160004 19.495766854519594 #
point $-1 56.47805104035892 -39.097489612160004 14.048946967243218 #
edge $-1 $338 -39.097489612160004 $336 39.097489612160004 $262 $372 forward 7 unknown #
vertex $-1 $335 $373 #
straight-curve $-1 74.070863979003263 39.097489612160004 0 0 0 -1 I I #
vertex $-1 $335 $374 #
straight-curve $-1 74.070863979003263 -39.097489612160004 0 0 0 -1 I I #
coedge $-1 $341 $269 $347 $375 reversed $175 $-1 #
coedge $-1 $269 $340 $272 $345 reversed $175 $-1 #
edge $-1 $343 -34.611356786354534 $277 -9.1220317216542135 $276 $376 forward 7 unknown #
vertex $-1 $375 $377 #
straight-curve $-1 -56.478051040358913 -39.097489612160004 10.667601539575486 0 0.52991925155115449 0.84804810408105047 I I #
edge $-1 $273 33.581039856831111 $349 39.097489612160004 $272 $378 forward 7 unknown #
point $-1 -56.478051040358913 -33.581039856831111 19.495766854519594 #
coedge $-1 $276 $275 $340 $375 forward $267 $-1 #
point $-1 -30.988725975658589 -39.097489612160004 10.667601539575486 #
vertex $-1 $280 $379 #
straight-curve $-1 0 -39.097489612160004 19.495766854519594 1 0 0 I I #
vertex $-1 $283 $380 #
point $-1 -47.195386736158824 -31.845362924741316 12.273582779086295 #
vertex $-1 $287 $381 #
point $-1 -36.271390279858679 -31.845362924741316 12.273582779086295 #
straight-curve $-1 -74.070863979003263 39.097489612160004 0 0 0 -1 I I #
point $-1 -74.070863979003263 -39.097489612160004 -19.495766854519594 #
straight-curve $-1 -74.070863979003263 0 -19.495766854519594 0 1 0 I I #
point $-1 -74.070863979003263 39.097489612160004 -19.495766854519594 #
coedge $-1 $309 $308 $360 $382 reversed $140 $-1 #
coedge $-1 $314 $310 $359 $382 forward $224 $-1 #
vertex $-1 $311 $383 #
straight-curve $-1 0 39.097489612160004 19.495766854519594 -1 0 0 I I #
point $-1 -56.478051040358906 39.097489612160004 19.495766854519594 #
vertex $-1 $382 $384 #
straight-curve $-1 0 -39.097489612160004 19.495766854519594 1 0 0 I I #
straight-curve $-1 -74.070863979003263 -39.097489612160004 0 0 0 -1 I I #
straight-curve $-1 -74.070863979003263 39.097489612160004 0 0 0 -1 I I #
straight-curve $-1 56.47805104035892 -39.097489612160004 8.3861784554407031 0 0 -1 I I #
straight-curve $-1 0 -39.097489612160004 19.495766854519594 1 0 0 I I #
straight-curve $-1 0 39.097489612160004 19.495766854519594 -1 0 0 I I #
point $-1 56.47805104035892 -39.097489612160004 19.495766854519594 #
straight-curve $-1 74.070863979003263 0 19.495766854519594 0 1 0 I I #
point $-1 74.070863979003263 39.097489612160004 19.495766854519594 #
point $-1 74.070863979003263 -39.097489612160004 19.495766854519594 #
edge $-1 $349 25.089610716768924 $343 33.917776031713032 $347 $385 forward 7 unknown #
straight-curve $-1 -21.866694254004376 -39.097489612160004 10.667601539575479 1 0 0 I I #
point $-1 -56.478051040358913 -39.097489612160004 10.667601539575486 #
straight-curve $-1 -56.478051040358906 0 19.495766854519594 0 -1 0 I I #
point $-1 -56.478051040358906 -39.097489612160004 19.495766854519594 #
point $-1 -49.195386736158824 -30.149266716579213 11.213744275983986 #
point $-1 -38.271390279858679 -30.149266716579213 11.213744275983986 #
edge $-1 $361 -39.097489612160004 $364 39.097489612160004 $359 $386 forward 7 unknown #
point $-1 -74.070863979003263 39.097489612160004 19.495766854519594 #
point $-1 -74.070863979003263 -39.097489612160004 19.495766854519594 #
straight-curve $-1 -56.478051040358913 -39.097489612160004 44.585377571288518 0 0 -1 I I #
straight-curve $-1 -74.070863979003263 0 19.495766854519594 0 -1 0 I I #
End-of-ACIS-data 