500 0 9 0           
7 Unknown 11 ACIS 5.0 NT 24 Fri Mar 26 01:00:28 1999 
-1 9.9999999999999995e-007 1e-010 
body $-1 $9 $-1 $10 #
body $-1 $11 $-1 $12 #
body $-1 $13 $-1 $14 #
body $-1 $15 $-1 $16 #
body $-1 $17 $-1 $18 #
body $-1 $19 $-1 $20 #
body $-1 $21 $-1 $22 #
body $-1 $23 $-1 $24 #
body $-1 $25 $-1 $26 #
lump $-1 $-1 $27 $0 #
transform $-1 1 0 0 0 1 0 0 0 1 55.140842921231723 24.43213727336024 5.849411715927114 1 rotate no_reflect no_shear #
lump $-1 $-1 $28 $1 #
transform $-1 1 0 0 0 1 0 0 0 1 55.140842921231723 24.43213727336024 5.849411715927114 1 rotate no_reflect no_shear #
lump $-1 $-1 $29 $2 #
transform $-1 1 0 0 0 1 0 0 0 1 55.140842921231723 24.43213727336024 5.849411715927114 1 rotate no_reflect no_shear #
lump $-1 $-1 $30 $3 #
transform $-1 1 0 0 0 1 0 0 0 1 55.140842921231723 24.43213727336024 5.849411715927114 1 rotate no_reflect no_shear #
lump $-1 $-1 $31 $4 #
transform $-1 1 0 0 0 1 0 0 0 1 55.140842921231723 24.43213727336024 5.849411715927114 1 rotate no_reflect no_shear #
lump $-1 $-1 $32 $5 #
transform $-1 1 0 0 0 1 0 0 0 1 55.140842921231723 24.43213727336024 5.849411715927114 1 rotate no_reflect no_shear #
lump $-1 $-1 $33 $6 #
transform $-1 1 0 0 0 1 0 0 0 1 55.140842921231723 24.43213727336024 5.849411715927114 1 rotate no_reflect no_shear #
lump $-1 $-1 $34 $7 #
transform $-1 1 0 0 0 1 0 0 0 1 55.140842921231723 24.43213727336024 5.849411715927114 1 rotate no_reflect no_shear #
lump $-1 $-1 $35 $8 #
transform $-1 1 0 0 0 1 0 0 0 1 55.140842921231723 24.43213727336024 5.849411715927114 1 rotate no_reflect no_shear #
shell $-1 $-1 $-1 $36 $-1 $9 #
shell $-1 $-1 $-1 $37 $-1 $11 #
shell $-1 $-1 $-1 $38 $-1 $13 #
shell $-1 $-1 $-1 $39 $-1 $15 #
shell $-1 $-1 $-1 $40 $-1 $17 #
shell $-1 $-1 $-1 $41 $-1 $19 #
shell $-1 $-1 $-1 $42 $-1 $21 #
shell $-1 $-1 $-1 $43 $-1 $23 #
shell $-1 $-1 $-1 $44 $-1 $25 #
face $-1 $45 $46 $27 $-1 $47 forward single #
face $-1 $48 $49 $28 $-1 $50 reversed single #
face $-1 $51 $52 $29 $-1 $53 reversed single #
face $-1 $54 $55 $30 $-1 $56 reversed single #
face $-1 $57 $58 $31 $-1 $59 forward single #
face $-1 $60 $61 $32 $-1 $62 reversed single #
face $-1 $63 $64 $33 $-1 $65 forward single #
face $-1 $66 $67 $34 $-1 $68 forward single #
face $-1 $69 $70 $35 $-1 $71 forward single #
face $-1 $72 $73 $27 $-1 $74 reversed single #
loop $-1 $-1 $75 $36 #
plane-surface $-1 0 0 5.849411715927114 0 0 1 1 0 0 forward_v I I I I #
face $-1 $76 $77 $28 $-1 $78 reversed single #
loop $-1 $-1 $79 $37 #
plane-surface $-1 -46.442019489377493 -20.804986100190742 0 1 0 0 0 0 -1 forward_v I I I I #
face $-1 $80 $81 $29 $-1 $82 reversed single #
loop $-1 $-1 $83 $38 #
plane-surface $-1 -44.942019489377493 17.177834927021248 0 0 1 0 0 0 1 forward_v I I I I #
face $-1 $84 $85 $30 $-1 $86 reversed single #
loop $-1 $-1 $87 $39 #
plane-surface $-1 -127.4921395303234 -17.177834927021244 83.449347956694822 0 1 0 -0.6560590369687036 0 0.75470957328743171 forward_v I I I I #
face $-1 $88 $89 $31 $-1 $90 forward single #
loop $-1 $91 $92 $40 #
cone-surface $-1 -51.196034898738326 -12.550483692872614 2.2217667030714559 0.6560590369687036 0 -0.75470957328743171 0.75470957328743171 0 0.6560590369687036 1 I I 0 1 1 forward I I I I #
face $-1 $93 $94 $32 $-1 $95 reversed single #
loop $-1 $-1 $96 $41 #
plane-surface $-1 49.697854377108811 7.4368453269004089 156.55017820776953 0 -1 0 -0.68199836817093118 0 -0.7313536940579346 forward_v I I I I #
face $-1 $97 $98 $33 $-1 $99 forward single #
loop $-1 $100 $101 $42 #
cone-surface $-1 52.02987165752814 1.5410004252457128 2.9006940590585311 -0.68199836817093118 0 -0.7313536940579346 0.3656768470289673 0 -0.34099918408546559 1 I I 0 1 0.5 forward I I I I #
face $-1 $102 $103 $34 $-1 $104 forward single #
loop $-1 $105 $106 $43 #
cone-surface $-1 52.02987165752814 3.7519422633662245 2.9006940590585311 -0.68199836817093118 0 -0.7313536940579346 0.3656768470289673 0 -0.34099918408546559 1 I I 0 1 0.5 forward I I I I #
face $-1 $107 $108 $35 $-1 $109 forward single #
loop $-1 $110 $111 $44 #
cone-surface $-1 52.02987165752814 5.9628841014867362 2.9006940590585311 -0.68199836817093118 0 -0.7313536940579346 0.3656768470289673 0 -0.34099918408546559 1 I I 0 1 0.5 forward I I I I #
face $-1 $112 $113 $27 $-1 $114 reversed single #
loop $-1 $-1 $115 $45 #
plane-surface $-1 0 0 -5.849411715927114 0 0 1 1 0 0 forward_v I I I I #
coedge $-1 $116 $117 $118 $119 forward $46 $-1 #
face $-1 $120 $121 $28 $-1 $122 reversed single #
loop $-1 $-1 $123 $48 #
plane-surface $-1 -44.942019489377493 -17.177834927021244 0 0 -1 0 0 0 -1 forward_v I I I I #
coedge $-1 $124 $125 $126 $127 forward $49 $-1 #
face $-1 $128 $129 $29 $-1 $130 reversed single #
loop $-1 $-1 $131 $51 #
plane-surface $-1 -46.442019489377493 20.804986100190746 0 1 0 0 0 0 -1 forward_v I I I I #
coedge $-1 $132 $133 $134 $135 forward $52 $-1 #
face $-1 $136 $137 $30 $-1 $138 reversed single #
loop $-1 $-1 $139 $54 #
plane-surface $-1 -55.140842921231723 -12.550483692872616 0.21870389311064287 -0.6560590369687036 0 0.75470957328743171 0.75470957328743171 0 0.6560590369687036 forward_v I I I I #
coedge $-1 $140 $141 $142 $143 reversed $55 $-1 #
face $-1 $-1 $144 $31 $-1 $145 forward single #
loop $-1 $146 $147 $57 #
cone-surface $-1 -50.16189148344391 -12.550483692872614 1.0321208149803125 0.6560590369687036 0 -0.75470957328743171 0.37735478664371586 0 0.3280295184843518 1 I I -0.70710678118654746 0.70710678118654746 0.5 forward I I I I #
loop $-1 $-1 $148 $40 #
coedge $-1 $92 $92 $149 $150 reversed $58 $-1 #
face $-1 $151 $152 $32 $-1 $153 reversed single #
loop $-1 $-1 $154 $60 #
plane-surface $-1 -25.51407540659055 3.7519422633662245 75.895259879947261 0.68199836817093118 0 0.7313536940579346 0.7313536940579346 0 -0.68199836817093118 forward_v I I I I #
coedge $-1 $155 $156 $157 $158 reversed $61 $-1 #
face $-1 $-1 $159 $33 $-1 $160 forward single #
loop $-1 $161 $162 $63 #
cone-surface $-1 51.518372881399941 1.5410004252457128 2.3521787885150802 -0.68199836817093118 0 -0.7313536940579346 0.18283842351448365 0 -0.17049959204273279 1 I I -0.70710678118654746 0.70710678118654746 0.25 forward I I I I #
loop $-1 $-1 $163 $42 #
coedge $-1 $101 $101 $164 $165 reversed $64 $-1 #
face $-1 $-1 $166 $34 $-1 $167 forward single #
loop $-1 $168 $169 $66 #
cone-surface $-1 51.518372881399941 3.7519422633662245 2.3521787885150802 -0.68199836817093118 0 -0.7313536940579346 0.18283842351448365 0 -0.17049959204273279 1 I I -0.70710678118654746 0.70710678118654746 0.25 forward I I I I #
loop $-1 $-1 $170 $43 #
coedge $-1 $106 $106 $171 $172 reversed $67 $-1 #
face $-1 $-1 $173 $35 $-1 $174 forward single #
loop $-1 $175 $176 $69 #
cone-surface $-1 51.518372881399941 5.9628841014867362 2.3521787885150802 -0.68199836817093118 0 -0.7313536940579346 0.18283842351448365 0 -0.17049959204273279 1 I I -0.70710678118654746 0.70710678118654746 0.25 forward I I I I #
loop $-1 $-1 $177 $44 #
coedge $-1 $111 $111 $178 $179 reversed $70 $-1 #
face $-1 $180 $181 $27 $-1 $182 reversed single #
loop $-1 $-1 $183 $72 #
plane-surface $-1 0 -24.43213727336024 0 0 1 0 0 0 1 forward_v I I I I #
coedge $-1 $184 $185 $186 $187 forward $73 $-1 #
coedge $-1 $188 $75 $189 $190 forward $46 $-1 #
coedge $-1 $75 $188 $191 $192 forward $46 $-1 #
coedge $-1 $193 $194 $75 $119 reversed $195 $-1 #
edge $-1 $196 -24.43213727336024 $197 24.43213727336024 $118 $198 forward 7 unknown #
face $-1 $199 $200 $28 $-1 $201 forward single #
loop $-1 $-1 $202 $76 #
plane-surface $-1 -43.442019489377493 -20.804986100190742 0 -1 0 0 0 0 1 forward_v I I I I #
coedge $-1 $203 $204 $205 $206 forward $77 $-1 #
coedge $-1 $207 $79 $208 $209 reversed $49 $-1 #
coedge $-1 $79 $207 $210 $211 reversed $49 $-1 #
coedge $-1 $204 $203 $79 $127 reversed $77 $-1 #
edge $-1 $212 -5.849411715927114 $213 5.849411715927114 $126 $214 forward 7 unknown #
face $-1 $215 $216 $29 $-1 $217 reversed single #
loop $-1 $-1 $218 $80 #
plane-surface $-1 -43.442019489377493 20.804986100190746 0 -1 0 0 0 0 1 forward_v I I I I #
coedge $-1 $219 $220 $221 $222 reversed $81 $-1 #
coedge $-1 $223 $83 $224 $225 reversed $52 $-1 #
coedge $-1 $83 $223 $226 $227 reversed $52 $-1 #
coedge $-1 $220 $219 $83 $135 reversed $81 $-1 #
edge $-1 $228 -5.849411715927114 $229 5.849411715927114 $134 $230 forward 7 unknown #
face $-1 $231 $232 $30 $-1 $233 reversed single #
loop $-1 $-1 $234 $84 #
plane-surface $-1 -127.4921395303234 -7.9231324587239875 83.449347956694822 0 -1 0 0.6560590369687036 0 -0.75470957328743171 forward_v I I I I #
coedge $-1 $235 $236 $237 $238 reversed $85 $-1 #
coedge $-1 $141 $87 $239 $240 reversed $55 $-1 #
coedge $-1 $87 $140 $235 $241 reversed $55 $-1 #
coedge $-1 $237 $242 $87 $143 forward $243 $-1 #
edge $-1 $244 8.6052268439299766 $245 15.08261509529666 $142 $246 forward 7 unknown #
loop $-1 $-1 $149 $88 #
plane-surface $-1 -55.140842921231723 -12.550483692872616 0.21870389311064287 -0.6560590369687036 0 0.75470957328743171 0.75470957328743171 0 0.6560590369687036 forward_v I I I I #
loop $-1 $-1 $247 $57 #
coedge $-1 $147 $147 $148 $248 reversed $89 $-1 #
coedge $-1 $148 $148 $147 $248 forward $91 $-1 #
coedge $-1 $149 $149 $92 $150 forward $144 $-1 #
edge $-1 $249 0 $249 6.2831853071796004 $149 $250 forward 7 unknown #
face $-1 $251 $252 $32 $-1 $253 forward single #
loop $-1 $-1 $254 $93 #
plane-surface $-1 49.697854377108811 0.067039199832040097 156.55017820776953 0 1 0 0.68199836817093118 0 0.7313536940579346 forward_v I I I I #
coedge $-1 $255 $256 $257 $258 reversed $94 $-1 #
coedge $-1 $156 $96 $259 $260 reversed $61 $-1 #
coedge $-1 $96 $155 $255 $261 reversed $61 $-1 #
coedge $-1 $257 $262 $96 $158 forward $252 $-1 #
edge $-1 $263 -30.291915732677317 $264 -24.751971573441075 $157 $265 forward 7 unknown #
loop $-1 $-1 $164 $97 #
plane-surface $-1 -25.51407540659055 3.7519422633662245 75.895259879947261 0.68199836817093118 0 0.7313536940579346 0.7313536940579346 0 -0.68199836817093118 forward_v I I I I #
loop $-1 $-1 $266 $63 #
coedge $-1 $162 $162 $163 $267 reversed $98 $-1 #
coedge $-1 $163 $163 $162 $267 forward $100 $-1 #
coedge $-1 $164 $164 $101 $165 forward $159 $-1 #
edge $-1 $268 0 $268 6.2831853071796004 $164 $269 forward 7 unknown #
loop $-1 $-1 $171 $102 #
plane-surface $-1 -25.51407540659055 3.7519422633662245 75.895259879947261 0.68199836817093118 0 0.7313536940579346 0.7313536940579346 0 -0.68199836817093118 forward_v I I I I #
loop $-1 $-1 $270 $66 #
coedge $-1 $169 $169 $170 $271 reversed $103 $-1 #
coedge $-1 $170 $170 $169 $271 forward $105 $-1 #
coedge $-1 $171 $171 $106 $172 forward $166 $-1 #
edge $-1 $272 0 $272 6.2831853071796004 $171 $273 forward 7 unknown #
loop $-1 $-1 $178 $107 #
plane-surface $-1 -25.51407540659055 3.7519422633662245 75.895259879947261 0.68199836817093118 0 0.7313536940579346 0.7313536940579346 0 -0.68199836817093118 forward_v I I I I #
loop $-1 $-1 $274 $69 #
coedge $-1 $176 $176 $177 $275 reversed $108 $-1 #
coedge $-1 $177 $177 $176 $275 forward $110 $-1 #
coedge $-1 $178 $178 $111 $179 forward $173 $-1 #
edge $-1 $276 0 $276 6.2831853071796004 $178 $277 forward 7 unknown #
face $-1 $278 $279 $27 $-1 $280 reversed single #
loop $-1 $-1 $281 $112 #
plane-surface $-1 -55.140842921231723 0 0 1 0 0 0 0 -1 forward_v I I I I #
coedge $-1 $282 $191 $283 $284 forward $113 $-1 #
coedge $-1 $285 $115 $282 $286 forward $73 $-1 #
coedge $-1 $115 $285 $287 $288 forward $73 $-1 #
coedge $-1 $194 $193 $115 $187 reversed $195 $-1 #
edge $-1 $289 -24.43213727336024 $290 24.43213727336024 $186 $291 forward 7 unknown #
coedge $-1 $117 $116 $292 $293 forward $46 $-1 #
coedge $-1 $294 $295 $116 $190 reversed $279 $-1 #
edge $-1 $197 -55.140842921231723 $296 55.140842921231723 $189 $297 forward 7 unknown #
coedge $-1 $183 $298 $117 $192 reversed $113 $-1 #
edge $-1 $299 -55.140842921231723 $196 55.140842921231723 $191 $300 forward 7 unknown #
coedge $-1 $186 $118 $298 $301 forward $195 $-1 #
coedge $-1 $118 $186 $294 $302 reversed $195 $-1 #
loop $-1 $-1 $193 $278 #
vertex $-1 $119 $303 #
vertex $-1 $119 $304 #
straight-curve $-1 55.140842921231723 0 5.849411715927114 0 1 0 I I #
face $-1 $305 $306 $28 $-1 $307 reversed single #
loop $-1 $-1 $308 $120 #
plane-surface $-1 0 0 5.849411715927114 0 0 1 1 0 0 forward_v I I I I #
coedge $-1 $309 $310 $311 $312 reversed $121 $-1 #
coedge $-1 $126 $123 $313 $314 reversed $77 $-1 #
coedge $-1 $123 $126 $315 $316 reversed $77 $-1 #
coedge $-1 $310 $309 $123 $206 reversed $121 $-1 #
edge $-1 $317 -5.849411715927114 $318 5.849411715927114 $205 $319 forward 7 unknown #
coedge $-1 $125 $124 $320 $321 reversed $49 $-1 #
coedge $-1 $313 $322 $124 $209 forward $306 $-1 #
edge $-1 $323 -14.029644223264869 $213 -6.7753418769258733 $208 $324 forward 7 unknown #
coedge $-1 $325 $315 $125 $211 forward $200 $-1 #
edge $-1 $212 6.7753418769258733 $326 14.029644223264869 $210 $327 forward 7 unknown #
vertex $-1 $211 $328 #
vertex $-1 $209 $329 #
straight-curve $-1 -46.442019489377493 -17.177834927021244 0 0 0 -1 I I #
face $-1 $330 $331 $29 $-1 $332 forward single #
loop $-1 $-1 $333 $128 #
plane-surface $-1 0 0 -5.849411715927114 0 0 1 1 0 0 forward_v I I I I #
coedge $-1 $334 $335 $223 $336 forward $129 $-1 #
coedge $-1 $134 $131 $337 $338 reversed $81 $-1 #
coedge $-1 $131 $134 $339 $340 reversed $81 $-1 #
coedge $-1 $341 $342 $131 $222 forward $343 $-1 #
edge $-1 $344 -5.849411715927114 $345 5.849411715927114 $221 $346 forward 7 unknown #
coedge $-1 $133 $132 $218 $336 reversed $52 $-1 #
coedge $-1 $337 $333 $132 $225 forward $216 $-1 #
edge $-1 $347 20.971009744688747 $229 23.971009744688747 $224 $348 forward 7 unknown #
coedge $-1 $349 $339 $133 $227 forward $331 $-1 #
edge $-1 $228 -23.971009744688747 $350 -20.971009744688747 $226 $351 forward 7 unknown #
vertex $-1 $227 $352 #
vertex $-1 $225 $353 #
straight-curve $-1 -46.442019489377493 17.177834927021248 0 0 0 -1 I I #
face $-1 $-1 $243 $30 $-1 $354 forward single #
loop $-1 $-1 $355 $136 #
plane-surface $-1 -55.140842921231723 0 0 1 0 0 0 0 -1 forward_v I I I I #
coedge $-1 $356 $357 $358 $359 reversed $137 $-1 #
coedge $-1 $360 $139 $141 $241 forward $85 $-1 #
coedge $-1 $139 $360 $356 $361 forward $85 $-1 #
coedge $-1 $358 $142 $139 $238 forward $243 $-1 #
edge $-1 $245 -10.902593080584936 $362 -1.6478906122876795 $237 $363 forward 7 unknown #
coedge $-1 $364 $365 $140 $240 forward $232 $-1 #
edge $-1 $366 -41.505970085236768 $244 -35.8752622624203 $239 $367 forward 7 unknown #
edge $-1 $245 -8.5826236748950926 $366 0 $141 $368 forward 7 unknown #
coedge $-1 $142 $358 $364 $369 forward $243 $-1 #
loop $-1 $-1 $358 $231 #
vertex $-1 $240 $370 #
vertex $-1 $143 $371 #
straight-curve $-1 -63.7460697651617 -17.177834927021244 5.8494117159271113 1 0 0 I I #
coedge $-1 $247 $247 $-1 $372 reversed $146 $-1 #
edge $-1 $373 0 $373 6.2831853071796004 $147 $374 forward 7 unknown #
vertex $-1 $150 $375 #
ellipse-curve $-1 -51.902148795548385 -12.550483692872614 3.0340578045188775 -0.6560590369687036 0 0.75470957328743171 0.75470957328743171 0 0.6560590369687036 1 I I #
face $-1 $-1 $376 $32 $-1 $377 reversed single #
loop $-1 $-1 $157 $151 #
plane-surface $-1 0 0 5.849411715927114 0 0 1 1 0 0 forward_v I I I I #
coedge $-1 $378 $379 $380 $381 reversed $152 $-1 #
coedge $-1 $382 $154 $156 $261 forward $94 $-1 #
coedge $-1 $154 $382 $378 $383 forward $94 $-1 #
coedge $-1 $380 $157 $154 $258 forward $252 $-1 #
edge $-1 $264 -5.5608741952172966 $384 1.8089319318510722 $257 $385 forward 7 unknown #
coedge $-1 $386 $387 $155 $260 forward $376 $-1 #
edge $-1 $388 -77.591759007636867 $263 -72.425677387957649 $259 $389 forward 7 unknown #
edge $-1 $264 102.70676798227228 $388 110.28168584246346 $156 $390 forward 7 unknown #
coedge $-1 $157 $380 $386 $391 forward $252 $-1 #
vertex $-1 $158 $392 #
vertex $-1 $158 $393 #
straight-curve $-1 24.848927188554406 7.4368453269004089 5.8494117159271184 -1 0 0 I I #
coedge $-1 $266 $266 $-1 $394 reversed $161 $-1 #
edge $-1 $395 0 $395 6.2831853071796004 $162 $396 forward 7 unknown #
vertex $-1 $165 $397 #
ellipse-curve $-1 52.370870841613609 1.5410004252457128 3.2663709060874986 0.68199836817093118 0 0.7313536940579346 0.3656768470289673 0 -0.34099918408546559 1 I I #
coedge $-1 $270 $270 $-1 $398 reversed $168 $-1 #
edge $-1 $399 0 $399 6.2831853071796004 $169 $400 forward 7 unknown #
vertex $-1 $172 $401 #
ellipse-curve $-1 52.370870841613609 3.7519422633662245 3.2663709060874986 0.68199836817093118 0 0.7313536940579346 0.3656768470289673 0 -0.34099918408546559 1 I I #
coedge $-1 $274 $274 $-1 $402 reversed $175 $-1 #
edge $-1 $403 0 $403 6.2831853071796004 $176 $404 forward 7 unknown #
vertex $-1 $179 $405 #
ellipse-curve $-1 52.370870841613609 5.9628841014867362 3.2663709060874986 0.68199836817093118 0 0.7313536940579346 0.3656768470289673 0 -0.34099918408546559 1 I I #
face $-1 $-1 $195 $27 $-1 $406 reversed single #
loop $-1 $-1 $294 $180 #
plane-surface $-1 0 24.43213727336024 0 0 -1 0 0 0 -1 forward_v I I I I #
coedge $-1 $407 $292 $295 $408 forward $181 $-1 #
coedge $-1 $298 $183 $184 $286 reversed $113 $-1 #
coedge $-1 $292 $407 $183 $284 reversed $181 $-1 #
edge $-1 $299 -5.849411715927114 $409 5.849411715927114 $283 $410 forward 7 unknown #
coedge $-1 $185 $184 $407 $411 forward $73 $-1 #
edge $-1 $290 -55.140842921231723 $409 55.140842921231723 $282 $412 forward 7 unknown #
coedge $-1 $295 $294 $185 $288 reversed $279 $-1 #
edge $-1 $413 -55.140842921231723 $289 55.140842921231723 $287 $414 forward 7 unknown #
vertex $-1 $187 $415 #
vertex $-1 $301 $416 #
straight-curve $-1 55.140842921231723 0 -5.849411715927114 0 -1 0 I I #
coedge $-1 $281 $283 $188 $293 reversed $181 $-1 #
edge $-1 $296 -24.43213727336024 $299 24.43213727336024 $292 $417 forward 7 unknown #
coedge $-1 $287 $189 $194 $302 forward $279 $-1 #
coedge $-1 $189 $287 $281 $408 reversed $279 $-1 #
vertex $-1 $190 $418 #
straight-curve $-1 0 24.43213727336024 5.849411715927114 -1 0 0 I I #
coedge $-1 $191 $282 $193 $301 reversed $113 $-1 #
vertex $-1 $293 $419 #
straight-curve $-1 0 -24.43213727336024 5.849411715927114 1 0 0 I I #
edge $-1 $196 -5.849411715927114 $290 5.849411715927114 $193 $420 forward 7 unknown #
edge $-1 $197 -5.849411715927114 $289 5.849411715927114 $194 $421 forward 7 unknown #
point $-1 55.140842921231723 -24.43213727336024 5.849411715927114 #
point $-1 55.140842921231723 24.43213727336024 5.849411715927114 #
face $-1 $-1 $422 $28 $-1 $423 reversed single #
loop $-1 $-1 $424 $199 #
plane-surface $-1 0 0 -5.849411715927114 0 0 1 1 0 0 forward_v I I I I #
coedge $-1 $315 $325 $310 $425 forward $200 $-1 #
coedge $-1 $205 $202 $424 $426 reversed $121 $-1 #
coedge $-1 $202 $205 $308 $425 reversed $121 $-1 #
coedge $-1 $427 $428 $202 $312 forward $422 $-1 #
edge $-1 $429 -5.849411715927114 $430 5.849411715927114 $311 $431 forward 7 unknown #
coedge $-1 $424 $208 $203 $314 forward $306 $-1 #
edge $-1 $213 -23.971009744688747 $318 -20.971009744688747 $313 $432 forward 7 unknown #
coedge $-1 $210 $308 $204 $316 forward $200 $-1 #
edge $-1 $317 20.971009744688747 $212 23.971009744688747 $315 $433 forward 7 unknown #
vertex $-1 $316 $434 #
vertex $-1 $314 $435 #
straight-curve $-1 -43.442019489377493 -17.177834927021244 0 0 0 -1 I I #
coedge $-1 $428 $427 $207 $321 forward $422 $-1 #
edge $-1 $326 -5.849411715927114 $323 5.849411715927114 $320 $436 forward 7 unknown #
coedge $-1 $208 $424 $428 $437 forward $306 $-1 #
vertex $-1 $209 $438 #
straight-curve $-1 -46.442019489377493 -10.402493050095371 -5.849411715927114 0 1 0 I I #
coedge $-1 $308 $210 $427 $439 forward $200 $-1 #
vertex $-1 $439 $440 #
straight-curve $-1 -46.442019489377493 -10.402493050095371 5.849411715927114 0 -1 0 I I #
point $-1 -46.442019489377493 -17.177834927021244 5.849411715927114 #
point $-1 -46.442019489377493 -17.177834927021244 -5.849411715927114 #
face $-1 $-1 $343 $29 $-1 $441 reversed single #
loop $-1 $-1 $349 $215 #
plane-surface $-1 0 0 5.849411715927114 0 0 1 1 0 0 forward_v I I I I #
coedge $-1 $224 $442 $334 $443 forward $216 $-1 #
coedge $-1 $444 $218 $333 $443 reversed $129 $-1 #
coedge $-1 $218 $444 $349 $445 reversed $129 $-1 #
edge $-1 $350 -5.849411715927114 $347 5.849411715927114 $218 $446 forward 7 unknown #
coedge $-1 $442 $224 $219 $338 forward $216 $-1 #
edge $-1 $229 6.7753418769258751 $344 14.029644223264871 $337 $447 forward 7 unknown #
coedge $-1 $226 $448 $220 $340 forward $331 $-1 #
edge $-1 $345 -14.029644223264871 $228 -6.7753418769258751 $339 $449 forward 7 unknown #
coedge $-1 $450 $221 $448 $451 reversed $343 $-1 #
coedge $-1 $221 $450 $442 $452 reversed $343 $-1 #
loop $-1 $-1 $450 $330 #
vertex $-1 $452 $453 #
vertex $-1 $222 $454 #
straight-curve $-1 -46.442019489377493 24.43213727336024 0 0 0 1 I I #
vertex $-1 $225 $455 #
straight-curve $-1 -22.471009744688747 17.177834927021248 -5.849411715927114 -1 0 0 I I #
coedge $-1 $448 $226 $335 $445 forward $331 $-1 #
vertex $-1 $227 $456 #
straight-curve $-1 -22.471009744688747 17.177834927021248 5.849411715927114 1 0 0 I I #
point $-1 -46.442019489377493 17.177834927021248 5.849411715927114 #
point $-1 -46.442019489377493 17.177834927021248 -5.849411715927114 #
plane-surface $-1 0 0 5.849411715927114 0 0 1 1 0 0 forward_v I I I I #
coedge $-1 $365 $364 $357 $457 forward $232 $-1 #
coedge $-1 $357 $234 $236 $361 reversed $137 $-1 #
coedge $-1 $234 $356 $355 $457 reversed $137 $-1 #
coedge $-1 $242 $237 $234 $359 forward $243 $-1 #
edge $-1 $362 -15.08261509529666 $458 -8.6052268439299766 $358 $459 forward 7 unknown #
coedge $-1 $236 $235 $365 $460 reversed $85 $-1 #
edge $-1 $461 0 $362 8.5826236748950926 $356 $462 forward 7 unknown #
vertex $-1 $238 $463 #
straight-curve $-1 -48.66345466986504 -6.275241846436308 5.8494117159271166 0 1 0 I I #
coedge $-1 $355 $239 $242 $369 reversed $232 $-1 #
coedge $-1 $239 $355 $360 $460 forward $232 $-1 #
vertex $-1 $240 $464 #
straight-curve $-1 -55.140842921231723 -17.177834927021244 41.724673978347411 0 0 1 I I #
straight-curve $-1 -55.140842921231723 -17.177834927021244 0.21870389311064287 -0.75470957328743171 0 -0.6560590369687036 I I #
edge $-1 $458 7.9231324587239875 $244 17.177834927021244 $364 $465 forward 7 unknown #
point $-1 -55.140842921231723 -17.177834927021244 5.849411715927114 #
point $-1 -48.66345466986504 -17.177834927021244 5.849411715927114 #
edge $-1 $466 1 $466 0 $247 $-1 forward 7 unknown #
vertex $-1 $248 $467 #
ellipse-curve $-1 -50.489921001928259 -12.550483692872614 1.4094756016240284 -0.6560590369687036 0 0.75470957328743171 0.75470957328743171 0 0.6560590369687036 1 I I #
point $-1 -51.14743922226095 -12.550483692872614 3.6901168414875873 #
loop $-1 $-1 $259 $251 #
plane-surface $-1 55.140842921231723 0 0 -1 0 0 0 0 1 forward_v I I I I #
coedge $-1 $379 $254 $256 $383 reversed $152 $-1 #
coedge $-1 $254 $378 $468 $469 reversed $152 $-1 #
coedge $-1 $262 $257 $254 $381 forward $252 $-1 #
edge $-1 $384 24.751971573441075 $470 30.291915732677317 $380 $471 forward 7 unknown #
coedge $-1 $256 $255 $387 $472 reversed $94 $-1 #
edge $-1 $473 -110.28168584246346 $384 -102.70676798227228 $378 $474 forward 7 unknown #
vertex $-1 $258 $475 #
straight-curve $-1 49.600898761995509 1.8759711316831122 5.8494117159271113 0 -1 0 I I #
coedge $-1 $468 $259 $262 $391 reversed $376 $-1 #
coedge $-1 $259 $468 $382 $472 forward $376 $-1 #
vertex $-1 $260 $476 #
straight-curve $-1 55.140842921231723 7.4368453269004089 78.275089103884767 0 0 1 I I #
straight-curve $-1 -25.51407540659055 7.4368453269004089 75.895259879947261 0.7313536940579346 0 -0.68199836817093118 I I #
edge $-1 $470 0.067039199832040097 $263 7.4368453269004089 $386 $477 forward 7 unknown #
point $-1 55.140842921231723 7.4368453269004089 5.849411715927114 #
point $-1 49.600898761995481 7.4368453269004089 5.8494117159271184 #
edge $-1 $478 1 $478 0 $266 $-1 forward 7 unknown #
vertex $-1 $267 $479 #
ellipse-curve $-1 51.688872473442672 1.5410004252457128 2.535017212029564 0.68199836817093118 0 0.7313536940579346 0.3656768470289673 0 -0.34099918408546559 1 I I #
point $-1 52.736547688642574 1.5410004252457128 2.925371722002033 #
edge $-1 $480 1 $480 0 $270 $-1 forward 7 unknown #
vertex $-1 $271 $481 #
ellipse-curve $-1 51.688872473442672 3.7519422633662245 2.535017212029564 0.68199836817093118 0 0.7313536940579346 0.3656768470289673 0 -0.34099918408546559 1 I I #
point $-1 52.736547688642574 3.7519422633662245 2.925371722002033 #
edge $-1 $482 1 $482 0 $274 $-1 forward 7 unknown #
vertex $-1 $275 $483 #
ellipse-curve $-1 51.688872473442672 5.9628841014867362 2.535017212029564 0.68199836817093118 0 0.7313536940579346 0.3656768470289673 0 -0.34099918408546559 1 I I #
point $-1 52.736547688642574 5.9628841014867362 2.925371722002033 #
plane-surface $-1 55.140842921231723 0 0 -1 0 0 0 0 1 forward_v I I I I #
coedge $-1 $283 $281 $285 $411 reversed $181 $-1 #
edge $-1 $296 -5.849411715927114 $413 5.849411715927114 $295 $484 forward 7 unknown #
vertex $-1 $411 $485 #
straight-curve $-1 -55.140842921231723 -24.43213727336024 0 0 0 -1 I I #
edge $-1 $409 -24.43213727336024 $413 24.43213727336024 $407 $486 forward 7 unknown #
straight-curve $-1 0 -24.43213727336024 -5.849411715927114 -1 0 0 I I #
vertex $-1 $288 $487 #
straight-curve $-1 0 24.43213727336024 -5.849411715927114 1 0 0 I I #
point $-1 55.140842921231723 24.43213727336024 -5.849411715927114 #
point $-1 55.140842921231723 -24.43213727336024 -5.849411715927114 #
straight-curve $-1 -55.140842921231723 0 5.849411715927114 0 -1 0 I I #
point $-1 -55.140842921231723 24.43213727336024 5.849411715927114 #
point $-1 -55.140842921231723 -24.43213727336024 5.849411715927114 #
straight-curve $-1 55.140842921231723 -24.43213727336024 0 0 0 -1 I I #
straight-curve $-1 55.140842921231723 24.43213727336024 0 0 0 -1 I I #
loop $-1 $-1 $311 $305 #
plane-surface $-1 0 -24.43213727336024 0 0 1 0 0 0 1 forward_v I I I I #
coedge $-1 $322 $313 $309 $426 forward $306 $-1 #
edge $-1 $430 -14.029644223264869 $317 -6.7753418769258733 $308 $488 forward 7 unknown #
edge $-1 $318 6.7753418769258733 $429 14.029644223264869 $424 $489 forward 7 unknown #
coedge $-1 $320 $311 $325 $439 reversed $422 $-1 #
coedge $-1 $311 $320 $322 $437 reversed $422 $-1 #
vertex $-1 $437 $490 #
vertex $-1 $312 $491 #
straight-curve $-1 -43.442019489377493 -24.43213727336024 0 0 0 1 I I #
straight-curve $-1 -22.471009744688747 -17.177834927021244 -5.849411715927114 1 0 0 I I #
straight-curve $-1 -22.471009744688747 -17.177834927021244 5.849411715927114 -1 0 0 I I #
point $-1 -43.442019489377493 -17.177834927021244 5.849411715927114 #
point $-1 -43.442019489377493 -17.177834927021244 -5.849411715927114 #
straight-curve $-1 -46.442019489377493 -24.43213727336024 0 0 0 -1 I I #
edge $-1 $429 43.442019489377493 $323 46.442019489377493 $428 $492 forward 7 unknown #
point $-1 -46.442019489377493 -24.43213727336024 -5.849411715927114 #
edge $-1 $326 -46.442019489377493 $430 -43.442019489377493 $427 $493 forward 7 unknown #
point $-1 -46.442019489377493 -24.43213727336024 5.849411715927114 #
plane-surface $-1 0 24.43213727336024 0 0 -1 0 0 0 -1 forward_v I I I I #
coedge $-1 $333 $337 $342 $452 forward $216 $-1 #
edge $-1 $494 -14.029644223264871 $347 -6.7753418769258751 $333 $495 forward 7 unknown #
coedge $-1 $335 $334 $450 $496 reversed $129 $-1 #
edge $-1 $350 6.7753418769258751 $497 14.029644223264871 $349 $498 forward 7 unknown #
straight-curve $-1 -43.442019489377493 17.177834927021248 0 0 0 -1 I I #
straight-curve $-1 -46.442019489377493 10.402493050095373 -5.849411715927114 0 1 0 I I #
coedge $-1 $339 $349 $341 $451 forward $331 $-1 #
straight-curve $-1 -46.442019489377493 10.402493050095373 5.849411715927114 0 -1 0 I I #
coedge $-1 $342 $341 $444 $496 forward $343 $-1 #
edge $-1 $497 43.442019489377493 $345 46.442019489377493 $341 $499 forward 7 unknown #
edge $-1 $344 -46.442019489377493 $494 -43.442019489377493 $342 $500 forward 7 unknown #
point $-1 -46.442019489377493 24.432137273360244 -5.849411715927114 #
point $-1 -46.442019489377493 24.432137273360244 5.849411715927114 #
point $-1 -43.442019489377493 17.177834927021248 -5.849411715927114 #
point $-1 -43.442019489377493 17.177834927021248 5.849411715927114 #
edge $-1 $458 35.8752622624203 $461 41.505970085236768 $355 $501 forward 7 unknown #
vertex $-1 $369 $502 #
straight-curve $-1 -63.7460697651617 -7.9231324587239875 5.8494117159271113 -1 0 0 I I #
edge $-1 $461 1.6478906122876795 $366 10.902593080584936 $365 $503 forward 7 unknown #
vertex $-1 $460 $504 #
straight-curve $-1 -55.140842921231723 -7.9231324587239875 0.21870389311064287 0.75470957328743171 0 0.6560590369687036 I I #
point $-1 -48.66345466986504 -7.9231324587239875 5.849411715927114 #
point $-1 -55.140842921231723 -17.177834927021244 0.21870389311064287 #
straight-curve $-1 -55.140842921231723 0 5.849411715927114 0 -1 0 I I #
vertex $-1 $372 $505 #
point $-1 -49.735211428640831 -12.550483692872614 2.065534638592732 #
coedge $-1 $387 $386 $379 $469 forward $376 $-1 #
edge $-1 $470 72.425677387957649 $473 77.591759007636867 $468 $506 forward 7 unknown #
vertex $-1 $391 $507 #
straight-curve $-1 24.848927188554406 0.067039199832040097 5.8494117159271184 1 0 0 I I #
edge $-1 $473 -1.8089319318510722 $388 5.5608741952172966 $387 $508 forward 7 unknown #
vertex $-1 $472 $509 #
straight-curve $-1 -25.51407540659055 0.067039199832040097 75.895259879947261 -0.7313536940579346 0 0.68199836817093118 I I #
point $-1 49.600898761995481 0.067039199832040097 5.8494117159271184 #
point $-1 55.140842921231723 7.4368453269004089 0.68333009624790009 #
straight-curve $-1 55.140842921231723 0 5.849411715927114 0 1 0 I I #
vertex $-1 $394 $510 #
point $-1 52.054549320471644 1.5410004252457128 2.1940180279440984 #
vertex $-1 $398 $511 #
point $-1 52.054549320471644 3.7519422633662245 2.1940180279440984 #
vertex $-1 $402 $512 #
point $-1 52.054549320471644 5.9628841014867362 2.1940180279440984 #
straight-curve $-1 -55.140842921231723 24.43213727336024 0 0 0 -1 I I #
point $-1 -55.140842921231723 -24.43213727336024 -5.849411715927114 #
straight-curve $-1 -55.140842921231723 0 -5.849411715927114 0 1 0 I I #
point $-1 -55.140842921231723 24.43213727336024 -5.849411715927114 #
straight-curve $-1 -43.442019489377493 -10.402493050095371 5.849411715927114 0 1 0 I I #
straight-curve $-1 -43.442019489377493 -10.402493050095371 -5.849411715927114 0 -1 0 I I #
point $-1 -43.442019489377493 -24.43213727336024 -5.849411715927114 #
point $-1 -43.442019489377493 -24.43213727336024 5.849411715927114 #
straight-curve $-1 0 -24.43213727336024 -5.849411715927114 -1 0 0 I I #
straight-curve $-1 0 -24.43213727336024 5.849411715927114 1 0 0 I I #
vertex $-1 $496 $513 #
straight-curve $-1 -43.442019489377493 10.402493050095373 -5.849411715927114 0 -1 0 I I #
edge $-1 $497 -5.849411715927114 $494 5.849411715927114 $450 $514 forward 7 unknown #
vertex $-1 $451 $515 #
straight-curve $-1 -43.442019489377493 10.402493050095373 5.849411715927114 0 1 0 I I #
straight-curve $-1 0 24.43213727336024 5.849411715927114 -1 0 0 I I #
straight-curve $-1 0 24.43213727336024 -5.849411715927114 1 0 0 I I #
straight-curve $-1 -55.140842921231723 -7.9231324587239875 41.724673978347411 0 0 -1 I I #
point $-1 -55.140842921231723 -7.9231324587239875 5.849411715927114 #
straight-curve $-1 -55.140842921231723 -6.275241846436308 0.21870389311064464 0 -1 0 I I #
point $-1 -55.140842921231723 -7.9231324587239875 0.21870389311064287 #
point $-1 -49.83386196495956 -12.550483692872614 0.65476602833659658 #
straight-curve $-1 55.140842921231723 0.067039199832040097 78.275089103884767 0 0 -1 I I #
point $-1 55.140842921231723 0.067039199832040097 5.849411715927114 #
straight-curve $-1 55.140842921231723 1.8759711316831122 0.68333009624790009 0 1 0 I I #
point $-1 55.140842921231723 0.067039199832040097 0.68333009624790009 #
point $-1 51.34787328935721 1.5410004252457128 2.1693403650005965 #
point $-1 51.34787328935721 3.7519422633662245 2.1693403650005965 #
point $-1 51.34787328935721 5.9628841014867362 2.1693403650005965 #
point $-1 -43.442019489377493 24.432137273360244 -5.849411715927114 #
straight-curve $-1 -43.442019489377493 24.43213727336024 0 0 0 -1 I I #
point $-1 -43.442019489377493 24.432137273360244 5.849411715927114 #
End-of-ACIS-data 