500 0 7 0           
7 Unknown 11 ACIS 5.0 NT 24 Fri Mar 26 18:47:20 1999 
-1 9.9999999999999995e-007 1e-010 
body $-1 $7 $-1 $8 #
body $-1 $9 $-1 $10 #
body $-1 $11 $-1 $12 #
body $-1 $13 $-1 $14 #
body $-1 $15 $-1 $16 #
body $-1 $17 $-1 $18 #
body $-1 $19 $-1 $20 #
lump $-1 $-1 $21 $0 #
transform $-1 1 0 0 0 1 0 0 0 1 46.698202459791865 20.481395215015318 7.75532745906734 1 rotate no_reflect no_shear #
lump $-1 $-1 $22 $1 #
transform $-1 1 0 0 0 1 0 0 0 1 46.698202459791865 20.481395215015318 7.75532745906734 1 rotate no_reflect no_shear #
lump $-1 $-1 $23 $2 #
transform $-1 1 0 0 0 1 0 0 0 1 46.698202459791865 20.481395215015318 7.75532745906734 1 rotate no_reflect no_shear #
lump $-1 $-1 $24 $3 #
transform $-1 1 0 0 0 1 0 0 0 1 46.698202459791865 20.481395215015318 7.75532745906734 1 rotate no_reflect no_shear #
lump $-1 $-1 $25 $4 #
transform $-1 1 0 0 0 1 0 0 0 1 46.698202459791865 20.481395215015318 7.75532745906734 1 rotate no_reflect no_shear #
lump $-1 $-1 $26 $5 #
transform $-1 1 0 0 0 1 0 0 0 1 46.698202459791865 20.481395215015318 7.75532745906734 1 rotate no_reflect no_shear #
lump $-1 $-1 $27 $6 #
transform $-1 1 0 0 0 1 0 0 0 1 46.698202459791865 20.481395215015318 7.75532745906734 1 rotate no_reflect no_shear #
shell $-1 $-1 $-1 $28 $-1 $7 #
shell $-1 $-1 $-1 $29 $-1 $9 #
shell $-1 $-1 $-1 $30 $-1 $11 #
shell $-1 $-1 $-1 $31 $-1 $13 #
shell $-1 $-1 $-1 $32 $-1 $15 #
shell $-1 $-1 $-1 $33 $-1 $17 #
shell $-1 $-1 $-1 $34 $-1 $19 #
face $-1 $35 $36 $21 $-1 $37 forward single #
face $-1 $38 $39 $22 $-1 $40 forward single #
face $-1 $41 $42 $23 $-1 $43 reversed single #
face $-1 $44 $45 $24 $-1 $46 forward single #
face $-1 $47 $48 $25 $-1 $49 reversed single #
face $-1 $50 $51 $26 $-1 $52 forward single #
face $-1 $53 $54 $27 $-1 $55 forward single #
face $-1 $56 $57 $21 $-1 $58 reversed single #
loop $-1 $-1 $59 $28 #
plane-surface $-1 0 0 7.75532745906734 0 0 1 1 0 0 forward_v I I I I #
face $-1 $60 $61 $22 $-1 $62 forward single #
loop $-1 $-1 $63 $29 #
plane-surface $-1 -46.698202459791865 0 0 1 0 0 0 0 -1 forward_v I I I I #
face $-1 $64 $65 $23 $-1 $66 reversed single #
loop $-1 $-1 $67 $30 #
plane-surface $-1 35.909948342031647 -20.481395215015326 2.2687470371898257 0 -0.6560590369687036 0.75470957328743171 1 0 0 forward_v I I I I #
face $-1 $68 $69 $24 $-1 $70 forward single #
loop $-1 $71 $72 $31 #
cone-surface $-1 35.909948342031633 -15.35704336404868 2.7474709086522835 0 0.6560590369687036 -0.75470957328743171 2 0 0 1 I I 0 1 2 forward I I I I #
face $-1 $73 $74 $25 $-1 $75 reversed single #
loop $-1 $-1 $76 $32 #
plane-surface $-1 -37.235344410591395 49.136130112452541 99.099433738114058 1 0 0 0 -0.64278761758704617 -0.76604443648966558 forward_v I I I I #
face $-1 $77 $78 $26 $-1 $79 forward single #
loop $-1 $80 $81 $33 #
cone-surface $-1 -31.19621576888008 15.236306785481183 2.877111443267363 0 -0.64278761758704617 -0.76604443648966558 2.5 0 0 1 I I 0 1 2.5 forward I I I I #
face $-1 $82 $83 $27 $-1 $84 forward single #
loop $-1 $85 $86 $34 #
cone-surface $-1 -22.137522806313108 15.236306785481183 2.877111443267363 0 -0.64278761758704617 -0.76604443648966558 2.5 0 0 1 I I 0 1 2.5 forward I I I I #
face $-1 $87 $88 $21 $-1 $89 reversed single #
loop $-1 $-1 $90 $35 #
plane-surface $-1 0 0 -7.75532745906734 0 0 1 1 0 0 forward_v I I I I #
coedge $-1 $91 $92 $93 $94 forward $36 $-1 #
face $-1 $95 $96 $22 $-1 $97 reversed single #
loop $-1 $-1 $98 $38 #
plane-surface $-1 0 0 7.75532745906734 0 0 1 1 0 0 forward_v I I I I #
coedge $-1 $99 $100 $101 $102 forward $39 $-1 #
face $-1 $103 $104 $23 $-1 $105 reversed single #
loop $-1 $-1 $106 $41 #
plane-surface $-1 25.121694224271408 -81.754950682896521 72.755907940629058 1 0 0 0 0.6560590369687036 -0.75470957328743171 forward_v I I I I #
coedge $-1 $107 $108 $109 $110 reversed $42 $-1 #
face $-1 $-1 $111 $24 $-1 $112 forward single #
loop $-1 $113 $114 $44 #
cone-surface $-1 35.909948342031633 -12.732426799239072 -0.27180500411145925 0 0.6560590369687036 -0.75470957328743171 1 0 0 1 I I -0.70710678118654746 0.70710678118654746 1 forward I I I I #
loop $-1 $-1 $115 $31 #
coedge $-1 $72 $72 $116 $117 reversed $45 $-1 #
face $-1 $118 $119 $25 $-1 $120 reversed single #
loop $-1 $-1 $121 $47 #
plane-surface $-1 -26.666869287596594 -10.897922497001765 27.553637361330914 0 0.64278761758704617 0.76604443648966558 1 0 0 forward_v I I I I #
coedge $-1 $122 $123 $124 $125 reversed $48 $-1 #
face $-1 $-1 $126 $26 $-1 $127 forward single #
loop $-1 $128 $129 $50 #
cone-surface $-1 -31.19621576888008 13.08003946040882 0.30737216584195259 0 -0.64278761758704617 -0.76604443648966558 1.25 0 0 1 I I -0.70710678118654746 0.70710678118654746 1.25 forward I I I I #
loop $-1 $-1 $130 $33 #
coedge $-1 $81 $81 $131 $132 reversed $51 $-1 #
face $-1 $-1 $133 $27 $-1 $134 forward single #
loop $-1 $135 $136 $53 #
cone-surface $-1 -22.137522806313108 13.08003946040882 0.30737216584195259 0 -0.64278761758704617 -0.76604443648966558 1.25 0 0 1 I I -0.70710678118654746 0.70710678118654746 1.25 forward I I I I #
loop $-1 $-1 $137 $34 #
coedge $-1 $86 $86 $138 $139 reversed $54 $-1 #
face $-1 $140 $141 $21 $-1 $142 reversed single #
loop $-1 $-1 $143 $56 #
plane-surface $-1 0 -20.481395215015318 0 0 1 0 0 0 1 forward_v I I I I #
coedge $-1 $144 $145 $146 $147 forward $57 $-1 #
coedge $-1 $148 $59 $149 $150 forward $36 $-1 #
coedge $-1 $59 $148 $151 $152 forward $36 $-1 #
coedge $-1 $153 $154 $59 $94 reversed $155 $-1 #
edge $-1 $156 -20.481395215015318 $157 20.481395215015318 $93 $158 forward 7 unknown #
face $-1 $159 $160 $22 $-1 $161 reversed single #
loop $-1 $-1 $162 $60 #
plane-surface $-1 -56.161060508992328 -18.16166072729704 0 1 0 0 0 0 -1 forward_v I I I I #
coedge $-1 $163 $164 $99 $165 forward $61 $-1 #
coedge $-1 $166 $63 $98 $165 reversed $39 $-1 #
coedge $-1 $63 $166 $167 $168 reversed $39 $-1 #
coedge $-1 $169 $170 $63 $102 reversed $160 $-1 #
edge $-1 $171 -7.75532745906734 $172 7.75532745906734 $101 $173 forward 7 unknown #
face $-1 $174 $175 $23 $-1 $176 forward single #
loop $-1 $-1 $177 $64 #
plane-surface $-1 0 -20.481395215015318 0 0 1 0 0 0 1 forward_v I I I I #
coedge $-1 $178 $179 $180 $181 reversed $65 $-1 #
coedge $-1 $182 $67 $183 $184 reversed $42 $-1 #
coedge $-1 $67 $182 $178 $185 forward $42 $-1 #
coedge $-1 $180 $186 $67 $110 forward $175 $-1 #
edge $-1 $187 -28.743228288776063 $188 -7.1667200532555846 $109 $189 forward 7 unknown #
loop $-1 $-1 $116 $68 #
plane-surface $-1 35.909948342031647 -20.481395215015326 2.2687470371898257 0 -0.6560590369687036 0.75470957328743171 1 0 0 forward_v I I I I #
loop $-1 $-1 $190 $44 #
coedge $-1 $114 $114 $115 $191 reversed $69 $-1 #
coedge $-1 $115 $115 $114 $191 forward $71 $-1 #
coedge $-1 $116 $116 $72 $117 forward $111 $-1 #
edge $-1 $192 2.3222036888429843e-016 $192 6.2831853071796004 $116 $193 forward 7 unknown #
face $-1 $194 $195 $25 $-1 $196 forward single #
loop $-1 $-1 $197 $73 #
plane-surface $-1 -16.098394164601789 49.136130112452541 99.099433738114058 -1 0 0 0 0.64278761758704617 0.76604443648966558 forward_v I I I I #
coedge $-1 $198 $199 $200 $201 reversed $74 $-1 #
coedge $-1 $123 $76 $202 $203 reversed $48 $-1 #
coedge $-1 $76 $122 $198 $204 reversed $48 $-1 #
coedge $-1 $200 $205 $76 $125 forward $195 $-1 #
edge $-1 $206 4.0866698412109521 $207 11.871281094102073 $124 $208 forward 7 unknown #
loop $-1 $-1 $131 $77 #
plane-surface $-1 -26.666869287596594 -10.897922497001765 27.553637361330914 0 0.64278761758704617 0.76604443648966558 1 0 0 forward_v I I I I #
loop $-1 $-1 $209 $50 #
coedge $-1 $129 $129 $130 $210 reversed $78 $-1 #
coedge $-1 $130 $130 $129 $210 forward $80 $-1 #
coedge $-1 $131 $131 $81 $132 forward $126 $-1 #
edge $-1 $211 -1.5541789963710291e-017 $211 6.2831853071796004 $131 $212 forward 7 unknown #
loop $-1 $-1 $138 $82 #
plane-surface $-1 -26.666869287596594 -10.897922497001765 27.553637361330914 0 0.64278761758704617 0.76604443648966558 1 0 0 forward_v I I I I #
loop $-1 $-1 $213 $53 #
coedge $-1 $136 $136 $137 $214 reversed $83 $-1 #
coedge $-1 $137 $137 $136 $214 forward $85 $-1 #
coedge $-1 $138 $138 $86 $139 forward $133 $-1 #
edge $-1 $215 -1.5541789963710291e-017 $215 6.2831853071796004 $138 $216 forward 7 unknown #
face $-1 $217 $218 $21 $-1 $219 reversed single #
loop $-1 $-1 $220 $87 #
plane-surface $-1 -46.698202459791865 0 0 1 0 0 0 0 -1 forward_v I I I I #
coedge $-1 $221 $151 $222 $223 forward $88 $-1 #
coedge $-1 $224 $90 $221 $225 forward $57 $-1 #
coedge $-1 $90 $224 $226 $227 forward $57 $-1 #
coedge $-1 $154 $153 $90 $147 reversed $155 $-1 #
edge $-1 $228 -20.481395215015318 $229 20.481395215015318 $146 $230 forward 7 unknown #
coedge $-1 $92 $91 $231 $232 forward $36 $-1 #
coedge $-1 $233 $234 $91 $150 reversed $218 $-1 #
edge $-1 $157 -46.698202459791865 $235 46.698202459791865 $149 $236 forward 7 unknown #
coedge $-1 $143 $237 $92 $152 reversed $88 $-1 #
edge $-1 $238 -46.698202459791865 $156 46.698202459791865 $151 $239 forward 7 unknown #
coedge $-1 $146 $93 $237 $240 forward $155 $-1 #
coedge $-1 $93 $146 $233 $241 reversed $155 $-1 #
loop $-1 $-1 $153 $217 #
vertex $-1 $94 $242 #
vertex $-1 $94 $243 #
straight-curve $-1 46.698202459791865 0 7.75532745906734 0 1 0 I I #
face $-1 $244 $245 $22 $-1 $246 reversed single #
loop $-1 $-1 $101 $95 #
plane-surface $-1 -51.429631484392097 -15.841926239578759 0 0 -1 0 0 0 -1 forward_v I I I I #
coedge $-1 $247 $248 $249 $250 forward $96 $-1 #
coedge $-1 $251 $98 $170 $252 forward $61 $-1 #
coedge $-1 $98 $251 $253 $254 forward $61 $-1 #
edge $-1 $255 -20.481395215015318 $172 -15.841926239578759 $98 $256 forward 7 unknown #
coedge $-1 $100 $99 $257 $258 reversed $39 $-1 #
coedge $-1 $259 $260 $100 $168 forward $245 $-1 #
edge $-1 $171 15.841926239578759 $261 20.481395215015318 $167 $262 forward 7 unknown #
coedge $-1 $249 $101 $260 $263 reversed $160 $-1 #
coedge $-1 $101 $249 $163 $252 reversed $160 $-1 #
vertex $-1 $168 $264 #
vertex $-1 $252 $265 #
straight-curve $-1 -46.698202459791865 -15.841926239578759 0 0 0 1 I I #
face $-1 $-1 $266 $23 $-1 $267 reversed single #
loop $-1 $-1 $180 $103 #
plane-surface $-1 0 0 7.75532745906734 0 0 1 1 0 0 forward_v I I I I #
coedge $-1 $268 $269 $179 $270 forward $104 $-1 #
coedge $-1 $179 $106 $108 $185 reversed $65 $-1 #
coedge $-1 $106 $178 $177 $270 reversed $65 $-1 #
coedge $-1 $271 $109 $106 $181 forward $175 $-1 #
edge $-1 $188 -26.707668772684425 $272 -20.396080126432942 $180 $273 forward 7 unknown #
coedge $-1 $108 $107 $268 $274 reversed $42 $-1 #
coedge $-1 $275 $276 $107 $184 forward $266 $-1 #
edge $-1 $277 -6.9845365233555423 $187 1.3784005184510142 $183 $278 forward 7 unknown #
edge $-1 $279 9.44141639987384e-015 $188 8.3629370418065676 $178 $280 forward 7 unknown #
coedge $-1 $109 $271 $275 $281 forward $175 $-1 #
vertex $-1 $184 $282 #
vertex $-1 $110 $283 #
straight-curve $-1 17.954974171015824 -14.169806568763837 7.75532745906734 -1 0 0 I I #
coedge $-1 $190 $190 $-1 $284 reversed $113 $-1 #
edge $-1 $285 0 $285 6.2831853071796004 $114 $286 forward 7 unknown #
vertex $-1 $117 $287 #
ellipse-curve $-1 35.909948342031633 -17.325600891889579 5.0120372481285855 0 -0.6560590369687036 0.75470957328743171 2 0 0 1 I I #
face $-1 $-1 $288 $25 $-1 $289 reversed single #
loop $-1 $-1 $124 $118 #
plane-surface $-1 0 0 7.75532745906734 0 0 1 1 0 0 forward_v I I I I #
coedge $-1 $290 $291 $292 $293 reversed $119 $-1 #
coedge $-1 $294 $121 $123 $204 forward $74 $-1 #
coedge $-1 $121 $294 $290 $295 forward $74 $-1 #
coedge $-1 $292 $124 $121 $201 forward $195 $-1 #
edge $-1 $207 -23.901909766793096 $296 -2.7649595208034921 $200 $297 forward 7 unknown #
coedge $-1 $298 $299 $122 $203 forward $288 $-1 #
edge $-1 $300 -48.326453977962963 $206 -41.794389409989691 $202 $301 forward 7 unknown #
edge $-1 $207 30.800702067946247 $300 40.962790430030637 $123 $302 forward 7 unknown #
coedge $-1 $124 $292 $298 $303 forward $195 $-1 #
vertex $-1 $203 $304 #
vertex $-1 $125 $305 #
straight-curve $-1 -37.235344410591395 24.568065056226271 7.7553274590673382 0 -1 0 I I #
coedge $-1 $209 $209 $-1 $306 reversed $128 $-1 #
edge $-1 $307 0 $307 6.2831853071796004 $129 $308 forward 7 unknown #
vertex $-1 $132 $309 #
ellipse-curve $-1 -31.19621576888008 16.589089588569752 4.4892951750807084 0 0.64278761758704617 0.76604443648966558 2.5 0 0 1 I I #
coedge $-1 $213 $213 $-1 $310 reversed $135 $-1 #
edge $-1 $311 0 $311 6.2831853071796004 $136 $312 forward 7 unknown #
vertex $-1 $139 $313 #
ellipse-curve $-1 -22.137522806313108 16.589089588569752 4.4892951750807084 0 0.64278761758704617 0.76604443648966558 2.5 0 0 1 I I #
face $-1 $-1 $155 $21 $-1 $314 reversed single #
loop $-1 $-1 $233 $140 #
plane-surface $-1 0 20.481395215015318 0 0 -1 0 0 0 -1 forward_v I I I I #
coedge $-1 $315 $231 $234 $316 forward $141 $-1 #
coedge $-1 $237 $143 $144 $225 reversed $88 $-1 #
coedge $-1 $231 $315 $143 $223 reversed $141 $-1 #
edge $-1 $238 -7.75532745906734 $317 7.75532745906734 $222 $318 forward 7 unknown #
coedge $-1 $145 $144 $315 $319 forward $57 $-1 #
edge $-1 $229 -46.698202459791865 $317 46.698202459791865 $221 $320 forward 7 unknown #
coedge $-1 $234 $233 $145 $227 reversed $218 $-1 #
edge $-1 $321 -46.698202459791865 $228 46.698202459791865 $226 $322 forward 7 unknown #
vertex $-1 $147 $323 #
vertex $-1 $240 $324 #
straight-curve $-1 46.698202459791865 0 -7.75532745906734 0 -1 0 I I #
coedge $-1 $220 $222 $148 $232 reversed $141 $-1 #
edge $-1 $235 -20.481395215015318 $238 20.481395215015318 $231 $325 forward 7 unknown #
coedge $-1 $226 $149 $154 $241 forward $218 $-1 #
coedge $-1 $149 $226 $220 $316 reversed $218 $-1 #
vertex $-1 $150 $326 #
straight-curve $-1 0 20.481395215015318 7.75532745906734 -1 0 0 I I #
coedge $-1 $151 $221 $153 $240 reversed $88 $-1 #
vertex $-1 $232 $327 #
straight-curve $-1 0 -20.481395215015318 7.75532745906734 1 0 0 I I #
edge $-1 $156 -7.75532745906734 $229 7.75532745906734 $153 $328 forward 7 unknown #
edge $-1 $157 -7.75532745906734 $228 7.75532745906734 $154 $329 forward 7 unknown #
point $-1 46.698202459791865 -20.481395215015318 7.75532745906734 #
point $-1 46.698202459791865 20.481395215015318 7.75532745906734 #
face $-1 $-1 $330 $22 $-1 $331 reversed single #
loop $-1 $-1 $167 $159 #
plane-surface $-1 0 0 -7.75532745906734 0 0 1 1 0 0 forward_v I I I I #
coedge $-1 $332 $162 $333 $334 reversed $96 $-1 #
coedge $-1 $162 $332 $251 $335 reversed $96 $-1 #
coedge $-1 $170 $169 $162 $250 reversed $160 $-1 #
edge $-1 $336 -7.75532745906734 $337 7.75532745906734 $249 $338 forward 7 unknown #
coedge $-1 $164 $163 $248 $335 forward $61 $-1 #
edge $-1 $172 -4.7314290246002315 $336 4.7314290246002315 $170 $339 forward 7 unknown #
coedge $-1 $340 $257 $164 $254 reversed $330 $-1 #
edge $-1 $341 -56.161060508992328 $255 -46.698202459791865 $253 $342 forward 7 unknown #
vertex $-1 $258 $343 #
straight-curve $-1 -46.698202459791865 0 7.75532745906734 0 1 0 I I #
coedge $-1 $253 $344 $166 $258 forward $330 $-1 #
edge $-1 $261 -7.75532745906734 $255 7.75532745906734 $257 $345 forward 7 unknown #
coedge $-1 $333 $167 $344 $346 forward $245 $-1 #
coedge $-1 $167 $333 $169 $263 forward $245 $-1 #
vertex $-1 $346 $347 #
straight-curve $-1 -46.698202459791865 0 -7.75532745906734 0 -1 0 I I #
edge $-1 $337 -4.7314290246002315 $171 4.7314290246002315 $169 $348 forward 7 unknown #
point $-1 -46.698202459791865 -15.841926239578759 -7.75532745906734 #
point $-1 -46.698202459791865 -15.841926239578759 7.75532745906734 #
loop $-1 $-1 $183 $174 #
plane-surface $-1 46.698202459791865 0 0 -1 0 0 0 0 1 forward_v I I I I #
coedge $-1 $349 $177 $182 $274 forward $104 $-1 #
coedge $-1 $177 $349 $271 $350 reversed $104 $-1 #
edge $-1 $272 28.622626511247191 $279 34.109206933124696 $177 $351 forward 7 unknown #
coedge $-1 $186 $180 $269 $350 forward $175 $-1 #
vertex $-1 $350 $352 #
straight-curve $-1 25.121694224271408 -40.87747534144826 7.7553274590673382 0 -1 0 I I #
edge $-1 $279 7.1667200532555846 $277 28.743228288776063 $268 $353 forward 7 unknown #
coedge $-1 $276 $183 $186 $281 reversed $266 $-1 #
coedge $-1 $183 $275 $349 $354 forward $266 $-1 #
vertex $-1 $274 $355 #
straight-curve $-1 46.698202459791865 -15.210098635863176 6.8510153423752067 0 0.75470957328743171 0.6560590369687036 I I #
vertex $-1 $274 $356 #
straight-curve $-1 25.121694224271408 -20.481395215015326 2.2687470371898257 0 0.75470957328743171 0.6560590369687036 I I #
edge $-1 $357 -20.481395215015318 $187 -14.169806568763835 $275 $358 forward 7 unknown #
point $-1 46.698202459791887 -14.169806568763835 7.75532745906734 #
point $-1 25.121694224271408 -14.169806568763835 7.75532745906734 #
edge $-1 $359 1 $359 0 $190 $-1 forward 7 unknown #
vertex $-1 $191 $360 #
ellipse-curve $-1 35.909948342031633 -13.388485836207774 0.48290456917597246 0 -0.6560590369687036 0.75470957328743171 2 0 0 1 I I #
point $-1 37.909948342031633 -17.325600891889586 5.0120372481285944 #
loop $-1 $-1 $202 $194 #
plane-surface $-1 0 20.481395215015318 0 0 -1 0 0 0 -1 forward_v I I I I #
coedge $-1 $291 $197 $199 $295 reversed $119 $-1 #
coedge $-1 $197 $290 $361 $362 reversed $119 $-1 #
coedge $-1 $205 $200 $197 $293 forward $195 $-1 #
edge $-1 $296 -11.871281094102073 $363 -4.0866698412109521 $292 $364 forward 7 unknown #
coedge $-1 $199 $198 $299 $365 reversed $74 $-1 #
edge $-1 $366 -40.962790430030637 $296 -30.800702067946247 $290 $367 forward 7 unknown #
vertex $-1 $201 $368 #
straight-curve $-1 -13.333434643798297 12.69678396212419 7.7553274590673436 1 0 0 I I #
coedge $-1 $361 $202 $205 $303 reversed $288 $-1 #
coedge $-1 $202 $361 $294 $365 forward $288 $-1 #
vertex $-1 $203 $369 #
straight-curve $-1 -37.235344410591395 20.481395215015318 49.549716869057029 0 0 1 I I #
straight-curve $-1 -37.235344410591395 -10.897922497001765 27.553637361330914 0 0.76604443648966558 -0.64278761758704617 I I #
edge $-1 $363 16.098394164601789 $206 37.235344410591395 $298 $370 forward 7 unknown #
point $-1 -37.235344410591395 20.481395215015318 7.75532745906734 #
point $-1 -37.235344410591395 12.696783962124197 7.7553274590673382 #
edge $-1 $371 1 $371 0 $209 $-1 forward 7 unknown #
vertex $-1 $210 $372 #
ellipse-curve $-1 -31.19621576888008 13.883523982392628 1.2649277114540345 0 0.64278761758704617 0.76604443648966558 2.5 0 0 1 I I #
point $-1 -28.69621576888008 16.589089588569738 4.4892951750806915 #
edge $-1 $373 1 $373 0 $213 $-1 forward 7 unknown #
vertex $-1 $214 $374 #
ellipse-curve $-1 -22.137522806313108 13.883523982392628 1.2649277114540345 0 0.64278761758704617 0.76604443648966558 2.5 0 0 1 I I #
point $-1 -19.637522806313108 16.589089588569738 4.4892951750806915 #
plane-surface $-1 46.698202459791865 0 0 -1 0 0 0 0 1 forward_v I I I I #
coedge $-1 $222 $220 $224 $319 reversed $141 $-1 #
edge $-1 $235 -7.75532745906734 $321 7.75532745906734 $234 $375 forward 7 unknown #
vertex $-1 $319 $376 #
straight-curve $-1 -46.698202459791865 -20.481395215015318 0 0 0 -1 I I #
edge $-1 $317 -20.481395215015318 $321 20.481395215015318 $315 $377 forward 7 unknown #
straight-curve $-1 0 -20.481395215015318 -7.75532745906734 -1 0 0 I I #
vertex $-1 $227 $378 #
straight-curve $-1 0 20.481395215015318 -7.75532745906734 1 0 0 I I #
point $-1 46.698202459791865 20.481395215015318 -7.75532745906734 #
point $-1 46.698202459791865 -20.481395215015318 -7.75532745906734 #
straight-curve $-1 -46.698202459791865 0 7.75532745906734 0 -1 0 I I #
point $-1 -46.698202459791865 20.481395215015318 7.75532745906734 #
point $-1 -46.698202459791865 -20.481395215015318 7.75532745906734 #
straight-curve $-1 46.698202459791865 -20.481395215015318 0 0 0 -1 I I #
straight-curve $-1 46.698202459791865 20.481395215015318 0 0 0 -1 I I #
loop $-1 $-1 $257 $244 #
plane-surface $-1 0 -20.481395215015318 0 0 1 0 0 0 1 forward_v I I I I #
coedge $-1 $248 $247 $340 $379 reversed $96 $-1 #
coedge $-1 $260 $259 $247 $334 forward $245 $-1 #
edge $-1 $380 -2.3197344877182786 $337 2.3197344877182804 $247 $381 forward 7 unknown #
edge $-1 $336 -2.3197344877182804 $341 2.3197344877182786 $248 $382 forward 7 unknown #
vertex $-1 $252 $383 #
vertex $-1 $263 $384 #
straight-curve $-1 -56.161060508992328 -15.841926239578759 0 0 0 -1 I I #
straight-curve $-1 -51.429631484392097 -15.841926239578759 7.75532745906734 -1 0 0 I I #
coedge $-1 $344 $253 $332 $379 forward $330 $-1 #
vertex $-1 $335 $385 #
straight-curve $-1 0 -20.481395215015318 7.75532745906734 1 0 0 I I #
point $-1 -46.698202459791865 -20.481395215015318 7.75532745906734 #
coedge $-1 $257 $340 $259 $346 reversed $330 $-1 #
straight-curve $-1 -46.698202459791865 -20.481395215015318 0 0 0 1 I I #
edge $-1 $261 -4.7314290246002315 $380 4.7314290246002315 $344 $386 forward 7 unknown #
point $-1 -46.698202459791865 -20.481395215015318 -7.75532745906734 #
straight-curve $-1 -51.429631484392097 -15.841926239578759 -7.75532745906734 1 0 0 I I #
coedge $-1 $269 $268 $276 $354 reversed $104 $-1 #
edge $-1 $272 25.121694224271408 $357 46.698202459791865 $269 $387 forward 7 unknown #
straight-curve $-1 25.121694224271408 -20.481395215015318 36.377953970314529 0 0 -1 I I #
point $-1 25.121694224271408 -20.481395215015318 7.75532745906734 #
straight-curve $-1 17.954974171015824 -20.481395215015318 2.2687470371898315 1 0 0 I I #
edge $-1 $357 -7.75532745906734 $277 -2.2687470371898319 $276 $388 forward 7 unknown #
point $-1 46.698202459791887 -20.481395215015318 2.2687470371898319 #
point $-1 25.121694224271408 -20.481395215015318 2.2687470371898319 #
vertex $-1 $281 $389 #
straight-curve $-1 46.698202459791865 0 7.75532745906734 0 1 0 I I #
vertex $-1 $284 $390 #
point $-1 37.909948342031633 -13.388485836207774 0.48290456917597246 #
coedge $-1 $299 $298 $291 $362 forward $288 $-1 #
edge $-1 $363 41.794389409989691 $366 48.326453977962963 $361 $391 forward 7 unknown #
vertex $-1 $303 $392 #
straight-curve $-1 -16.098394164601789 24.568065056226271 7.7553274590673382 0 1 0 I I #
edge $-1 $366 2.7649595208034921 $300 23.901909766793096 $299 $393 forward 7 unknown #
vertex $-1 $365 $394 #
straight-curve $-1 -16.098394164601789 -10.897922497001765 27.553637361330914 0 -0.76604443648966558 0.64278761758704617 I I #
point $-1 -16.098394164601789 12.696783962124197 7.7553274590673382 #
point $-1 -37.235344410591395 20.481395215015318 1.2232628910940662 #
straight-curve $-1 0 20.481395215015318 7.75532745906734 -1 0 0 I I #
vertex $-1 $306 $395 #
point $-1 -28.69621576888008 13.883523982392628 1.2649277114540345 #
vertex $-1 $310 $396 #
point $-1 -19.637522806313108 13.883523982392628 1.2649277114540345 #
straight-curve $-1 -46.698202459791865 20.481395215015318 0 0 0 -1 I I #
point $-1 -46.698202459791865 -20.481395215015318 -7.75532745906734 #
straight-curve $-1 -46.698202459791865 0 -7.75532745906734 0 1 0 I I #
point $-1 -46.698202459791865 20.481395215015318 -7.75532745906734 #
edge $-1 $341 -7.75532745906734 $380 7.75532745906734 $332 $397 forward 7 unknown #
vertex $-1 $334 $398 #
straight-curve $-1 -56.161060508992328 -18.16166072729704 -7.75532745906734 0 1 0 I I #
straight-curve $-1 -56.161060508992328 -18.16166072729704 7.75532745906734 0 -1 0 I I #
point $-1 -56.161060508992328 -15.841926239578759 7.75532745906734 #
point $-1 -56.161060508992328 -15.841926239578759 -7.75532745906734 #
point $-1 -56.161060508992328 -20.481395215015318 7.75532745906734 #
straight-curve $-1 -51.429631484392097 -20.481395215015318 -7.75532745906734 -1 0 0 I I #
straight-curve $-1 0 -20.481395215015318 7.75532745906734 1 0 0 I I #
straight-curve $-1 46.698202459791865 -20.481395215015318 0 0 0 -1 I I #
point $-1 46.698202459791865 -20.481395215015318 7.75532745906734 #
point $-1 35.909948342031633 -12.076367762270369 -1.0265145773988911 #
straight-curve $-1 -16.098394164601789 20.481395215015318 49.549716869057029 0 0 -1 I I #
point $-1 -16.098394164601789 20.481395215015318 7.75532745906734 #
straight-curve $-1 -13.333434643798297 20.481395215015318 1.2232628910940662 -1 0 0 I I #
point $-1 -16.098394164601789 20.481395215015318 1.2232628910940662 #
point $-1 -31.19621576888008 12.276554938425011 -0.65018337977012941 #
point $-1 -22.137522806313108 12.276554938425011 -0.65018337977012941 #
straight-curve $-1 -56.161060508992328 -20.481395215015318 0 0 0 -1 I I #
point $-1 -56.161060508992328 -20.481395215015318 -7.75532745906734 #
End-of-ACIS-data 