500 0 8 0           
7 Unknown 11 ACIS 5.0 NT 24 Fri Mar 26 15:07:48 1999 
-1 9.9999999999999995e-007 1e-010 
body $-1 $8 $-1 $9 #
body $-1 $10 $-1 $11 #
body $-1 $12 $-1 $13 #
body $-1 $14 $-1 $15 #
body $-1 $16 $-1 $17 #
body $-1 $18 $-1 $19 #
body $-1 $20 $-1 $21 #
body $-1 $22 $-1 $23 #
lump $-1 $-1 $24 $0 #
transform $-1 1 0 0 0 1 0 0 0 1 68.047730948820458 28.889394512837193 14.132853668687327 1 rotate no_reflect no_shear #
lump $-1 $-1 $25 $1 #
transform $-1 1 0 0 0 1 0 0 0 1 68.047730948820458 28.889394512837193 14.132853668687327 1 rotate no_reflect no_shear #
lump $-1 $-1 $26 $2 #
transform $-1 1 0 0 0 1 0 0 0 1 68.047730948820458 28.889394512837193 14.132853668687327 1 rotate no_reflect no_shear #
lump $-1 $-1 $27 $3 #
transform $-1 1 0 0 0 1 0 0 0 1 68.047730948820458 28.889394512837193 14.132853668687327 1 rotate no_reflect no_shear #
lump $-1 $-1 $28 $4 #
transform $-1 1 0 0 0 1 0 0 0 1 68.047730948820458 28.889394512837193 14.132853668687327 1 rotate no_reflect no_shear #
lump $-1 $-1 $29 $5 #
transform $-1 1 0 0 0 1 0 0 0 1 68.047730948820458 28.889394512837193 14.132853668687327 1 rotate no_reflect no_shear #
lump $-1 $-1 $30 $6 #
transform $-1 1 0 0 0 1 0 0 0 1 68.047730948820458 28.889394512837193 14.132853668687327 1 rotate no_reflect no_shear #
lump $-1 $-1 $31 $7 #
transform $-1 1 0 0 0 1 0 0 0 1 68.047730948820458 28.889394512837193 14.132853668687327 1 rotate no_reflect no_shear #
shell $-1 $-1 $-1 $32 $-1 $8 #
shell $-1 $-1 $-1 $33 $-1 $10 #
shell $-1 $-1 $-1 $34 $-1 $12 #
shell $-1 $-1 $-1 $35 $-1 $14 #
shell $-1 $-1 $-1 $36 $-1 $16 #
shell $-1 $-1 $-1 $37 $-1 $18 #
shell $-1 $-1 $-1 $38 $-1 $20 #
shell $-1 $-1 $-1 $39 $-1 $22 #
face $-1 $40 $41 $24 $-1 $42 forward single #
face $-1 $43 $44 $25 $-1 $45 forward single #
face $-1 $46 $47 $26 $-1 $48 reversed single #
face $-1 $49 $50 $27 $-1 $51 forward single #
face $-1 $52 $53 $28 $-1 $54 forward single #
face $-1 $55 $56 $29 $-1 $57 reversed single #
face $-1 $58 $59 $30 $-1 $60 forward single #
face $-1 $61 $62 $31 $-1 $63 forward single #
face $-1 $64 $65 $24 $-1 $66 reversed single #
loop $-1 $-1 $67 $32 #
plane-surface $-1 0 0 14.132853668687327 0 0 1 1 0 0 forward_v I I I I #
face $-1 $68 $69 $25 $-1 $70 reversed single #
loop $-1 $-1 $71 $33 #
plane-surface $-1 0 -28.889394512837193 0 0 1 0 0 0 1 forward_v I I I I #
face $-1 $72 $73 $26 $-1 $74 reversed single #
loop $-1 $-1 $75 $34 #
plane-surface $-1 68.047733181940941 8.5301905181393138 202.16270562368842 0 -1 0 -0.70710678939079041 0 -0.70710677298230451 forward_v I I I I #
face $-1 $76 $77 $27 $-1 $78 forward single #
loop $-1 $79 $80 $35 #
cone-surface $-1 65.25369195413667 2.4885246035706459 11.338814635850682 -0.70710678939079041 0 -0.70710677298230451 0.35355338649115226 0 -0.35355339469539521 1 I I 0 1 0.5 forward I I I I #
face $-1 $81 $82 $28 $-1 $83 forward single #
loop $-1 $84 $85 $36 #
cone-surface $-1 65.25369195413667 6.1135241523118466 11.338814635850682 -0.70710678939079041 0 -0.70710677298230451 0.35355338649115226 0 -0.35355339469539521 1 I I 0 1 0.5 forward I I I I #
face $-1 $86 $87 $29 $-1 $88 reversed single #
loop $-1 $-1 $89 $37 #
plane-surface $-1 -146.10888199366343 2.7903223087602775 111.84709581086304 0 1 0 -0.57357644374324357 0 0.81915203911291934 forward_v I I I I #
face $-1 $90 $91 $30 $-1 $92 forward single #
loop $-1 $93 $94 $38 #
cone-surface $-1 -57.929120039032057 6.0921211418164418 6.8389611564851442 0.57357644374324357 0 -0.81915203911291934 0.40957601955645967 0 0.28678822187162178 1 I I 0 1 0.5 forward I I I I #
face $-1 $95 $96 $31 $-1 $97 forward single #
loop $-1 $98 $99 $39 #
cone-surface $-1 -57.929120039032057 11.044819391400686 6.8389611564851442 0.57357644374324357 0 -0.81915203911291934 0.40957601955645967 0 0.28678822187162178 1 I I 0 1 0.5 forward I I I I #
face $-1 $100 $101 $24 $-1 $102 reversed single #
loop $-1 $-1 $103 $40 #
plane-surface $-1 0 0 -14.132853668687327 0 0 1 1 0 0 forward_v I I I I #
coedge $-1 $104 $105 $106 $107 forward $41 $-1 #
face $-1 $108 $109 $25 $-1 $110 reversed single #
loop $-1 $-1 $111 $43 #
plane-surface $-1 0 0 -14.132853668687327 0 0 1 1 0 0 forward_v I I I I #
coedge $-1 $112 $113 $114 $115 forward $44 $-1 #
face $-1 $116 $117 $26 $-1 $118 reversed single #
loop $-1 $-1 $119 $46 #
plane-surface $-1 -28.186291931156575 4.3010243779412463 105.92868274371138 0.70710678939079041 0 0.70710677298230451 0.70710677298230451 0 -0.70710678939079041 forward_v I I I I #
coedge $-1 $120 $121 $122 $123 reversed $47 $-1 #
face $-1 $-1 $124 $27 $-1 $125 forward single #
loop $-1 $126 $127 $49 #
cone-surface $-1 64.501974229647516 2.4885246035706459 10.587096928805215 -0.70710678939079041 0 -0.70710677298230451 0.17677669324557613 0 -0.1767766973476976 1 I I -0.70710678118654746 0.70710678118654746 0.25 forward I I I I #
loop $-1 $-1 $128 $35 #
coedge $-1 $80 $80 $129 $130 reversed $50 $-1 #
face $-1 $-1 $131 $28 $-1 $132 forward single #
loop $-1 $133 $134 $52 #
cone-surface $-1 64.501974229647516 6.1135241523118466 10.587096928805215 -0.70710678939079041 0 -0.70710677298230451 0.17677669324557613 0 -0.1767766973476976 1 I I -0.70710678118654746 0.70710678118654746 0.25 forward I I I I #
loop $-1 $-1 $135 $36 #
coedge $-1 $85 $85 $136 $137 reversed $53 $-1 #
face $-1 $138 $139 $29 $-1 $140 reversed single #
loop $-1 $-1 $141 $55 #
plane-surface $-1 -68.047730948820444 8.5684702666085641 0.36422068339585678 -0.57357644374324357 0 0.81915203911291934 0.81915203911291934 0 0.57357644374324357 forward_v I I I I #
coedge $-1 $142 $143 $144 $145 reversed $56 $-1 #
face $-1 $-1 $146 $30 $-1 $147 forward single #
loop $-1 $148 $149 $58 #
cone-surface $-1 -57.498937706224623 6.0921211418164418 6.2245971271504548 0.57357644374324357 0 -0.81915203911291934 0.20478800977822983 0 0.14339411093581089 1 I I -0.70710678118654746 0.70710678118654746 0.25 forward I I I I #
loop $-1 $-1 $150 $38 #
coedge $-1 $94 $94 $151 $152 reversed $59 $-1 #
face $-1 $-1 $153 $31 $-1 $154 forward single #
loop $-1 $155 $156 $61 #
cone-surface $-1 -57.498937706224623 11.044819391400686 6.2245971271504548 0.57357644374324357 0 -0.81915203911291934 0.20478800977822983 0 0.14339411093581089 1 I I -0.70710678118654746 0.70710678118654746 0.25 forward I I I I #
loop $-1 $-1 $157 $39 #
coedge $-1 $99 $99 $158 $159 reversed $62 $-1 #
face $-1 $160 $161 $24 $-1 $162 reversed single #
loop $-1 $-1 $163 $64 #
plane-surface $-1 0 -28.889394512837193 0 0 1 0 0 0 1 forward_v I I I I #
coedge $-1 $164 $165 $166 $167 forward $65 $-1 #
coedge $-1 $168 $67 $169 $170 forward $41 $-1 #
coedge $-1 $67 $168 $171 $172 forward $41 $-1 #
coedge $-1 $173 $174 $67 $107 reversed $175 $-1 #
edge $-1 $176 -28.889394512837193 $177 28.889394512837193 $106 $178 forward 7 unknown #
face $-1 $179 $180 $25 $-1 $181 forward single #
loop $-1 $-1 $182 $68 #
plane-surface $-1 68.047730948820458 0 0 -1 0 0 0 0 1 forward_v I I I I #
coedge $-1 $183 $184 $185 $186 forward $69 $-1 #
coedge $-1 $185 $71 $182 $187 reversed $44 $-1 #
coedge $-1 $71 $185 $188 $189 reversed $44 $-1 #
coedge $-1 $190 $191 $71 $115 reversed $180 $-1 #
edge $-1 $192 -68.047730948820458 $193 68.047730948820458 $114 $194 forward 7 unknown #
face $-1 $195 $196 $26 $-1 $197 reversed single #
loop $-1 $-1 $198 $72 #
plane-surface $-1 68.047733181940941 0.071858237743178677 202.16270562368842 0 1 0 0.70710678939079041 0 0.70710677298230451 forward_v I I I I #
coedge $-1 $199 $200 $201 $202 reversed $73 $-1 #
coedge $-1 $121 $75 $203 $204 reversed $47 $-1 #
coedge $-1 $75 $120 $199 $205 reversed $47 $-1 #
coedge $-1 $201 $206 $75 $123 forward $207 $-1 #
edge $-1 $208 -34.023864357849988 $209 -29.585668422765337 $122 $210 forward 7 unknown #
loop $-1 $-1 $129 $76 #
plane-surface $-1 -28.186291931156575 4.3010243779412463 105.92868274371138 0.70710678939079041 0 0.70710677298230451 0.70710677298230451 0 -0.70710678939079041 forward_v I I I I #
loop $-1 $-1 $211 $49 #
coedge $-1 $127 $127 $128 $212 reversed $77 $-1 #
coedge $-1 $128 $128 $127 $212 forward $79 $-1 #
coedge $-1 $129 $129 $80 $130 forward $124 $-1 #
edge $-1 $213 0 $213 6.2831853071796004 $129 $214 forward 7 unknown #
loop $-1 $-1 $136 $81 #
plane-surface $-1 -28.186291931156575 4.3010243779412463 105.92868274371138 0.70710678939079041 0 0.70710677298230451 0.70710677298230451 0 -0.70710678939079041 forward_v I I I I #
loop $-1 $-1 $215 $52 #
coedge $-1 $134 $134 $135 $216 reversed $82 $-1 #
coedge $-1 $135 $135 $134 $216 forward $84 $-1 #
coedge $-1 $136 $136 $85 $137 forward $131 $-1 #
edge $-1 $217 0 $217 6.2831853071796004 $136 $218 forward 7 unknown #
face $-1 $219 $220 $29 $-1 $221 forward single #
loop $-1 $-1 $222 $86 #
plane-surface $-1 -146.10888199366343 14.346618224456851 111.84709581086304 0 -1 0 0.57357644374324357 0 -0.81915203911291934 forward_v I I I I #
coedge $-1 $223 $224 $225 $226 reversed $87 $-1 #
coedge $-1 $143 $89 $227 $228 reversed $56 $-1 #
coedge $-1 $89 $142 $223 $229 reversed $56 $-1 #
coedge $-1 $225 $230 $89 $145 forward $220 $-1 #
edge $-1 $231 5.0067100480112572 $232 24.670355423844867 $144 $233 forward 7 unknown #
loop $-1 $-1 $151 $90 #
plane-surface $-1 -68.047730948820444 8.5684702666085641 0.36422068339585678 -0.57357644374324357 0 0.81915203911291934 0.81915203911291934 0 0.57357644374324357 forward_v I I I I #
loop $-1 $-1 $234 $58 #
coedge $-1 $149 $149 $150 $235 reversed $91 $-1 #
coedge $-1 $150 $150 $149 $235 forward $93 $-1 #
coedge $-1 $151 $151 $94 $152 forward $146 $-1 #
edge $-1 $236 0 $236 6.2831853071796004 $151 $237 forward 7 unknown #
loop $-1 $-1 $158 $95 #
plane-surface $-1 -68.047730948820444 8.5684702666085641 0.36422068339585678 -0.57357644374324357 0 0.81915203911291934 0.81915203911291934 0 0.57357644374324357 forward_v I I I I #
loop $-1 $-1 $238 $61 #
coedge $-1 $156 $156 $157 $239 reversed $96 $-1 #
coedge $-1 $157 $157 $156 $239 forward $98 $-1 #
coedge $-1 $158 $158 $99 $159 forward $153 $-1 #
edge $-1 $240 0 $240 6.2831853071796004 $158 $241 forward 7 unknown #
face $-1 $242 $243 $24 $-1 $244 reversed single #
loop $-1 $-1 $245 $100 #
plane-surface $-1 -68.047730948820458 0 0 1 0 0 0 0 -1 forward_v I I I I #
coedge $-1 $246 $171 $247 $248 forward $101 $-1 #
coedge $-1 $249 $103 $246 $250 forward $65 $-1 #
coedge $-1 $103 $249 $251 $252 forward $65 $-1 #
coedge $-1 $174 $173 $103 $167 reversed $175 $-1 #
edge $-1 $253 -28.889394512837193 $254 28.889394512837193 $166 $255 forward 7 unknown #
coedge $-1 $105 $104 $256 $257 forward $41 $-1 #
coedge $-1 $258 $259 $104 $170 reversed $243 $-1 #
edge $-1 $177 -68.047730948820458 $260 68.047730948820458 $169 $261 forward 7 unknown #
coedge $-1 $163 $262 $105 $172 reversed $101 $-1 #
edge $-1 $263 -68.047730948820458 $176 68.047730948820458 $171 $264 forward 7 unknown #
coedge $-1 $166 $106 $262 $265 forward $175 $-1 #
coedge $-1 $106 $166 $258 $266 reversed $175 $-1 #
loop $-1 $-1 $173 $242 #
vertex $-1 $107 $267 #
vertex $-1 $107 $268 #
straight-curve $-1 68.047730948820458 0 14.132853668687327 0 1 0 I I #
face $-1 $269 $270 $25 $-1 $271 reversed single #
loop $-1 $-1 $191 $108 #
plane-surface $-1 0 -36.543236004258361 -10.829250061706409 0 0 1 1 0 0 forward_v I I I I #
coedge $-1 $272 $273 $112 $187 forward $109 $-1 #
coedge $-1 $274 $111 $273 $275 forward $69 $-1 #
coedge $-1 $111 $274 $276 $277 forward $69 $-1 #
coedge $-1 $113 $112 $111 $186 reversed $44 $-1 #
edge $-1 $278 -68.047730948820458 $279 68.047730948820458 $111 $280 forward 7 unknown #
edge $-1 $279 -14.132853668687327 $193 -10.829250061706409 $182 $281 forward 7 unknown #
coedge $-1 $276 $282 $113 $189 forward $283 $-1 #
edge $-1 $192 10.829250061706409 $278 14.132853668687327 $188 $284 forward 7 unknown #
coedge $-1 $285 $114 $282 $286 forward $180 $-1 #
coedge $-1 $114 $285 $272 $287 forward $180 $-1 #
vertex $-1 $189 $288 #
vertex $-1 $287 $289 #
straight-curve $-1 0 -28.889394512837193 -10.829250061706409 1 0 0 I I #
face $-1 $-1 $207 $26 $-1 $290 forward single #
loop $-1 $-1 $291 $116 #
plane-surface $-1 68.047730948820458 0 0 -1 0 0 0 0 1 forward_v I I I I #
coedge $-1 $292 $293 $294 $295 reversed $117 $-1 #
coedge $-1 $296 $119 $121 $205 forward $73 $-1 #
coedge $-1 $119 $296 $292 $297 forward $73 $-1 #
coedge $-1 $294 $122 $119 $202 forward $207 $-1 #
edge $-1 $209 -6.3796783291686907 $298 2.0786539512274445 $201 $299 forward 7 unknown #
coedge $-1 $300 $301 $120 $204 forward $196 $-1 #
edge $-1 $302 -91.386695181230323 $208 -86.94849914315688 $203 $303 forward 7 unknown #
edge $-1 $209 129.818904940951 $302 136.09546189764092 $121 $304 forward 7 unknown #
coedge $-1 $122 $294 $300 $305 forward $207 $-1 #
loop $-1 $-1 $294 $195 #
vertex $-1 $204 $306 #
vertex $-1 $123 $307 #
straight-curve $-1 34.023866590970471 8.5301905181393138 14.132853668687332 -1 0 0 I I #
coedge $-1 $211 $211 $-1 $308 reversed $126 $-1 #
edge $-1 $309 0 $309 6.2831853071796004 $127 $310 forward 7 unknown #
vertex $-1 $130 $311 #
ellipse-curve $-1 65.828632981278147 2.4885246035706459 11.913755649650588 0.70710678939079041 0 0.70710677298230451 0.35355338649115226 0 -0.35355339469539521 1 I I #
coedge $-1 $215 $215 $-1 $312 reversed $133 $-1 #
edge $-1 $313 0 $313 6.2831853071796004 $134 $314 forward 7 unknown #
vertex $-1 $137 $315 #
ellipse-curve $-1 65.828632981278147 6.1135241523118466 11.913755649650588 0.70710678939079041 0 0.70710677298230451 0.35355338649115226 0 -0.35355339469539521 1 I I #
face $-1 $-1 $316 $29 $-1 $317 reversed single #
loop $-1 $-1 $144 $138 #
plane-surface $-1 0 0 14.132853668687327 0 0 1 1 0 0 forward_v I I I I #
coedge $-1 $318 $319 $320 $321 reversed $139 $-1 #
coedge $-1 $322 $141 $143 $229 forward $87 $-1 #
coedge $-1 $141 $322 $318 $323 forward $87 $-1 #
coedge $-1 $320 $144 $141 $226 forward $220 $-1 #
edge $-1 $232 -1.4939128245440045 $324 10.062383091152569 $225 $325 forward 7 unknown #
coedge $-1 $326 $327 $142 $228 forward $316 $-1 #
edge $-1 $328 -55.55932722203567 $231 -41.790694236744194 $227 $329 forward 7 unknown #
edge $-1 $232 -24.004878748916816 $328 1.7340190696821129e-014 $143 $330 forward 7 unknown #
coedge $-1 $144 $320 $326 $331 forward $220 $-1 #
vertex $-1 $228 $332 #
vertex $-1 $145 $333 #
straight-curve $-1 -73.054440996831715 2.7903223087602775 14.132853668687325 1 0 0 I I #
coedge $-1 $234 $234 $-1 $334 reversed $148 $-1 #
edge $-1 $335 0 $335 6.2831853071796004 $149 $336 forward 7 unknown #
vertex $-1 $152 $337 #
ellipse-curve $-1 -58.21590826090366 6.0921211418164418 7.2485371760415802 -0.57357644374324357 0 0.81915203911291934 0.40957601955645967 0 0.28678822187162178 1 I I #
coedge $-1 $238 $238 $-1 $338 reversed $155 $-1 #
edge $-1 $339 0 $339 6.2831853071796004 $156 $340 forward 7 unknown #
vertex $-1 $159 $341 #
ellipse-curve $-1 -58.21590826090366 11.044819391400686 7.2485371760415802 -0.57357644374324357 0 0.81915203911291934 0.40957601955645967 0 0.28678822187162178 1 I I #
face $-1 $-1 $175 $24 $-1 $342 reversed single #
loop $-1 $-1 $258 $160 #
plane-surface $-1 0 28.889394512837193 0 0 -1 0 0 0 -1 forward_v I I I I #
coedge $-1 $343 $256 $259 $344 forward $161 $-1 #
coedge $-1 $262 $163 $164 $250 reversed $101 $-1 #
coedge $-1 $256 $343 $163 $248 reversed $161 $-1 #
edge $-1 $263 -14.132853668687327 $345 14.132853668687327 $247 $346 forward 7 unknown #
coedge $-1 $165 $164 $343 $347 forward $65 $-1 #
edge $-1 $254 -68.047730948820458 $345 68.047730948820458 $246 $348 forward 7 unknown #
coedge $-1 $259 $258 $165 $252 reversed $243 $-1 #
edge $-1 $349 -68.047730948820458 $253 68.047730948820458 $251 $350 forward 7 unknown #
vertex $-1 $167 $351 #
vertex $-1 $265 $352 #
straight-curve $-1 68.047730948820458 0 -14.132853668687327 0 -1 0 I I #
coedge $-1 $245 $247 $168 $257 reversed $161 $-1 #
edge $-1 $260 -28.889394512837193 $263 28.889394512837193 $256 $353 forward 7 unknown #
coedge $-1 $251 $169 $174 $266 forward $243 $-1 #
coedge $-1 $169 $251 $245 $344 reversed $243 $-1 #
vertex $-1 $170 $354 #
straight-curve $-1 0 28.889394512837193 14.132853668687327 -1 0 0 I I #
coedge $-1 $171 $246 $173 $265 reversed $101 $-1 #
vertex $-1 $257 $355 #
straight-curve $-1 0 -28.889394512837193 14.132853668687327 1 0 0 I I #
edge $-1 $176 -14.132853668687327 $254 14.132853668687327 $173 $356 forward 7 unknown #
edge $-1 $177 -14.132853668687327 $253 14.132853668687327 $174 $357 forward 7 unknown #
point $-1 68.047730948820458 -28.889394512837193 14.132853668687327 #
point $-1 68.047730948820458 28.889394512837193 14.132853668687327 #
face $-1 $-1 $283 $25 $-1 $358 reversed single #
loop $-1 $-1 $359 $179 #
plane-surface $-1 0 -44.19707749567953 -12.481051865196868 0 1 0 0 0 1 forward_v I I I I #
coedge $-1 $360 $182 $191 $287 reversed $109 $-1 #
coedge $-1 $182 $360 $183 $275 reversed $109 $-1 #
coedge $-1 $184 $183 $361 $362 forward $69 $-1 #
edge $-1 $279 28.889394512837193 $363 44.19707749567953 $273 $364 forward 7 unknown #
coedge $-1 $365 $188 $184 $277 reversed $283 $-1 #
edge $-1 $366 -44.19707749567953 $278 -28.889394512837193 $276 $367 forward 7 unknown #
vertex $-1 $189 $368 #
vertex $-1 $275 $369 #
straight-curve $-1 0 -28.889394512837193 -14.132853668687327 1 0 0 I I #
straight-curve $-1 68.047730948820458 -28.889394512837193 0 0 0 1 I I #
coedge $-1 $188 $365 $190 $286 reversed $283 $-1 #
loop $-1 $-1 $188 $269 #
straight-curve $-1 -68.047730948820458 -28.889394512837193 0 0 0 -1 I I #
coedge $-1 $191 $190 $370 $371 forward $180 $-1 #
edge $-1 $192 -7.6538414914211685 $372 7.6538414914211685 $282 $373 forward 7 unknown #
edge $-1 $374 -7.6538414914211685 $193 7.6538414914211685 $272 $375 forward 7 unknown #
point $-1 -68.047730948820458 -28.889394512837193 -10.829250061706409 #
point $-1 68.047730948820458 -28.889394512837193 -10.829250061706409 #
plane-surface $-1 0 0 14.132853668687327 0 0 1 1 0 0 forward_v I I I I #
coedge $-1 $301 $300 $293 $376 forward $196 $-1 #
coedge $-1 $293 $198 $200 $297 reversed $117 $-1 #
coedge $-1 $198 $292 $291 $376 reversed $117 $-1 #
coedge $-1 $206 $201 $198 $295 forward $207 $-1 #
edge $-1 $298 29.585668422765337 $377 34.023864357849988 $294 $378 forward 7 unknown #
coedge $-1 $200 $199 $301 $379 reversed $73 $-1 #
edge $-1 $380 -136.09546189764092 $298 -129.818904940951 $292 $381 forward 7 unknown #
vertex $-1 $202 $382 #
straight-curve $-1 63.609535013735801 2.1505121889706231 14.132853668687318 0 -1 0 I I #
coedge $-1 $291 $203 $206 $305 reversed $196 $-1 #
coedge $-1 $203 $291 $296 $379 forward $196 $-1 #
vertex $-1 $204 $383 #
straight-curve $-1 68.047730948820458 8.5301905181393138 101.08135281184421 0 0 1 I I #
straight-curve $-1 -28.186291931156575 8.5301905181393138 105.92868274371138 0.70710677298230451 0 -0.70710678939079041 I I #
edge $-1 $377 0.071858237743178677 $208 8.5301905181393138 $300 $384 forward 7 unknown #
point $-1 68.047730948820458 8.5301905181393138 14.132853668687327 #
point $-1 63.609535013735808 8.5301905181393138 14.132853668687318 #
edge $-1 $385 1 $385 0 $211 $-1 forward 7 unknown #
vertex $-1 $212 $386 #
ellipse-curve $-1 64.678750926995207 2.4885246035706459 10.763873622050792 0.70710678939079041 0 0.70710677298230451 0.35355338649115226 0 -0.35355339469539521 1 I I #
point $-1 66.182186367769276 2.4885246035706459 11.560202254955177 #
edge $-1 $387 1 $387 0 $215 $-1 forward 7 unknown #
vertex $-1 $216 $388 #
ellipse-curve $-1 64.678750926995207 6.1135241523118466 10.763873622050792 0.70710678939079041 0 0.70710677298230451 0.35355338649115226 0 -0.35355339469539521 1 I I #
point $-1 66.182186367769276 6.1135241523118466 11.560202254955177 #
loop $-1 $-1 $227 $219 #
plane-surface $-1 -68.047730948820458 0 0 1 0 0 0 0 -1 forward_v I I I I #
coedge $-1 $319 $222 $224 $323 reversed $139 $-1 #
coedge $-1 $222 $318 $389 $390 reversed $139 $-1 #
coedge $-1 $230 $225 $222 $321 forward $220 $-1 #
edge $-1 $324 -24.670355423844867 $391 -5.0067100480112572 $320 $392 forward 7 unknown #
coedge $-1 $224 $223 $327 $393 reversed $87 $-1 #
edge $-1 $394 -1.7340190696821129e-014 $324 24.004878748916816 $318 $395 forward 7 unknown #
vertex $-1 $226 $396 #
straight-curve $-1 -48.384085572986848 4.2842351333042821 14.132853668687327 0 1 0 I I #
coedge $-1 $389 $227 $230 $331 reversed $316 $-1 #
coedge $-1 $227 $389 $322 $393 forward $316 $-1 #
vertex $-1 $228 $397 #
straight-curve $-1 -68.047730948820458 2.7903223087602775 55.923547905431519 0 0 1 I I #
straight-curve $-1 -68.047730948820444 2.7903223087602775 0.36422068339585678 -0.81915203911291934 0 -0.57357644374324357 I I #
edge $-1 $391 -14.346618224456851 $231 -2.7903223087602775 $326 $398 forward 7 unknown #
point $-1 -68.047730948820458 2.7903223087602775 14.132853668687327 #
point $-1 -48.384085572986848 2.7903223087602775 14.132853668687327 #
edge $-1 $399 1 $399 0 $234 $-1 forward 7 unknown #
vertex $-1 $235 $400 #
ellipse-curve $-1 -57.642331817160432 6.0921211418164418 6.4293851369286843 -0.57357644374324357 0 0.81915203911291934 0.40957601955645967 0 0.28678822187162178 1 I I #
point $-1 -57.806332241347221 6.0921211418164418 7.5353253979132262 #
edge $-1 $401 1 $401 0 $238 $-1 forward 7 unknown #
vertex $-1 $239 $402 #
ellipse-curve $-1 -57.642331817160432 11.044819391400686 6.4293851369286843 -0.57357644374324357 0 0.81915203911291934 0.40957601955645967 0 0.28678822187162178 1 I I #
point $-1 -57.806332241347221 11.044819391400686 7.5353253979132262 #
plane-surface $-1 68.047730948820458 0 0 -1 0 0 0 0 1 forward_v I I I I #
coedge $-1 $247 $245 $249 $347 reversed $161 $-1 #
edge $-1 $260 -14.132853668687327 $349 14.132853668687327 $259 $403 forward 7 unknown #
vertex $-1 $347 $404 #
straight-curve $-1 -68.047730948820458 -28.889394512837193 0 0 0 -1 I I #
edge $-1 $345 -28.889394512837193 $349 28.889394512837193 $343 $405 forward 7 unknown #
straight-curve $-1 0 -28.889394512837193 -14.132853668687327 -1 0 0 I I #
vertex $-1 $252 $406 #
straight-curve $-1 0 28.889394512837193 -14.132853668687327 1 0 0 I I #
point $-1 68.047730948820458 28.889394512837193 -14.132853668687327 #
point $-1 68.047730948820458 -28.889394512837193 -14.132853668687327 #
straight-curve $-1 -68.047730948820458 0 14.132853668687327 0 -1 0 I I #
point $-1 -68.047730948820458 28.889394512837193 14.132853668687327 #
point $-1 -68.047730948820458 -28.889394512837193 14.132853668687327 #
straight-curve $-1 68.047730948820458 -28.889394512837193 0 0 0 -1 I I #
straight-curve $-1 68.047730948820458 28.889394512837193 0 0 0 -1 I I #
plane-surface $-1 -68.047730948820458 0 0 1 0 0 0 0 -1 forward_v I I I I #
coedge $-1 $361 $370 $365 $407 forward $270 $-1 #
coedge $-1 $273 $272 $408 $409 forward $109 $-1 #
coedge $-1 $408 $359 $274 $362 reversed $270 $-1 #
edge $-1 $363 -68.047730948820458 $366 68.047730948820458 $361 $410 forward 7 unknown #
vertex $-1 $409 $411 #
straight-curve $-1 68.047730948820458 0 -14.132853668687327 0 -1 0 I I #
coedge $-1 $282 $276 $359 $407 reversed $283 $-1 #
vertex $-1 $277 $412 #
straight-curve $-1 -68.047730948820458 0 -14.132853668687327 0 1 0 I I #
point $-1 -68.047730948820458 -28.889394512837193 -14.132853668687327 #
point $-1 68.047730948820458 -28.889394512837193 -14.132853668687327 #
coedge $-1 $359 $408 $285 $371 reversed $270 $-1 #
edge $-1 $372 -68.047730948820458 $374 68.047730948820458 $370 $413 forward 7 unknown #
vertex $-1 $286 $414 #
straight-curve $-1 -68.047730948820458 -36.543236004258361 -10.829250061706409 0 -1 0 I I #
vertex $-1 $287 $415 #
straight-curve $-1 68.047730948820458 -36.543236004258361 -10.829250061706409 0 1 0 I I #
edge $-1 $377 86.94849914315688 $380 91.386695181230323 $291 $416 forward 7 unknown #
vertex $-1 $305 $417 #
straight-curve $-1 34.023866590970471 0.071858237743178677 14.132853668687332 1 0 0 I I #
edge $-1 $380 -2.0786539512274445 $302 6.3796783291686907 $301 $418 forward 7 unknown #
vertex $-1 $379 $419 #
straight-curve $-1 -28.186291931156575 0.071858237743178677 105.92868274371138 -0.70710677298230451 0 0.70710678939079041 I I #
point $-1 63.609535013735808 0.071858237743178677 14.132853668687318 #
point $-1 68.047730948820444 8.5301905181393138 9.6946576306138894 #
straight-curve $-1 68.047730948820458 0 14.132853668687327 0 1 0 I I #
vertex $-1 $308 $420 #
point $-1 65.032304313486364 2.4885246035706459 10.410320227355395 #
vertex $-1 $312 $421 #
point $-1 65.032304313486364 6.1135241523118466 10.410320227355395 #
coedge $-1 $327 $326 $319 $390 forward $316 $-1 #
edge $-1 $391 41.790694236744194 $394 55.55932722203567 $389 $422 forward 7 unknown #
vertex $-1 $331 $423 #
straight-curve $-1 -73.054440996831715 14.346618224456851 14.132853668687325 -1 0 0 I I #
edge $-1 $394 -10.062383091152569 $328 1.4939128245440045 $327 $424 forward 7 unknown #
vertex $-1 $393 $425 #
straight-curve $-1 -68.047730948820444 14.346618224456851 0.36422068339585678 0.81915203911291934 0 0.57357644374324357 I I #
point $-1 -48.384085572986848 14.346618224456851 14.132853668687327 #
point $-1 -68.047730948820458 2.7903223087602775 0.36422068339584684 #
straight-curve $-1 -68.047730948820458 0 14.132853668687327 0 -1 0 I I #
vertex $-1 $334 $426 #
point $-1 -57.232755797603971 6.0921211418164418 6.7161733588003063 #
vertex $-1 $338 $427 #
point $-1 -57.232755797603971 11.044819391400686 6.7161733588003063 #
straight-curve $-1 -68.047730948820458 28.889394512837193 0 0 0 -1 I I #
point $-1 -68.047730948820458 -28.889394512837193 -14.132853668687327 #
straight-curve $-1 -68.047730948820458 0 -14.132853668687327 0 1 0 I I #
point $-1 -68.047730948820458 28.889394512837193 -14.132853668687327 #
edge $-1 $372 -1.6518018034904589 $366 1.6518018034904589 $365 $428 forward 7 unknown #
coedge $-1 $370 $361 $360 $409 reversed $270 $-1 #
edge $-1 $374 -1.6518018034904589 $363 1.6518018034904589 $360 $429 forward 7 unknown #
straight-curve $-1 0 -44.19707749567953 -14.132853668687327 -1 0 0 I I #
point $-1 68.047730948820458 -44.19707749567953 -14.132853668687327 #
point $-1 -68.047730948820458 -44.19707749567953 -14.132853668687327 #
straight-curve $-1 0 -44.19707749567953 -10.829250061706409 1 0 0 I I #
point $-1 -68.047730948820458 -44.19707749567953 -10.829250061706409 #
point $-1 68.047730948820458 -44.19707749567953 -10.829250061706409 #
straight-curve $-1 68.047730948820458 0.071858237743178677 101.08135281184421 0 0 -1 I I #
point $-1 68.047730948820458 0.071858237743178677 14.132853668687327 #
straight-curve $-1 68.047730948820458 2.1505121889706231 9.6946576306138681 0 1 0 I I #
point $-1 68.047730948820444 0.071858237743178677 9.6946576306138894 #
point $-1 64.325197532299825 2.4885246035706459 10.410320235559638 #
point $-1 64.325197532299825 6.1135241523118466 10.410320235559638 #
straight-curve $-1 -68.047730948820458 14.346618224456851 55.923547905431519 0 0 -1 I I #
point $-1 -68.047730948820458 14.346618224456851 14.132853668687327 #
straight-curve $-1 -68.047730948820458 4.2842351333042821 0.36422068339584956 0 -1 0 I I #
point $-1 -68.047730948820458 14.346618224456851 0.36422068339584684 #
point $-1 -57.355543595288815 6.0921211418164418 6.0198091173722252 #
point $-1 -57.355543595288815 11.044819391400686 6.0198091173722252 #
straight-curve $-1 -68.047730948820458 -44.19707749567953 -12.481051865196868 0 0 -1 I I #
straight-curve $-1 68.047730948820458 -44.19707749567953 -12.481051865196868 0 0 -1 I I #
End-of-ACIS-data 