500 0 12 0           
7 Unknown 11 ACIS 5.0 NT 24 Thu Mar 25 16:48:53 1999 
-1 9.9999999999999995e-007 1e-010 
body $-1 $12 $-1 $13 #
body $-1 $14 $-1 $15 #
body $-1 $16 $-1 $17 #
body $-1 $18 $-1 $19 #
body $-1 $20 $-1 $21 #
body $-1 $22 $-1 $23 #
body $-1 $24 $-1 $25 #
body $-1 $26 $-1 $27 #
body $-1 $28 $-1 $29 #
body $-1 $30 $-1 $31 #
body $-1 $32 $-1 $33 #
body $-1 $34 $-1 $35 #
lump $-1 $-1 $36 $0 #
transform $-1 1 0 0 0 1 0 0 0 1 55.505844294564653 25.86636375649719 8.2123948505498596 1 rotate no_reflect no_shear #
lump $-1 $-1 $37 $1 #
transform $-1 1 0 0 0 1 0 0 0 1 55.505844294564653 25.86636375649719 8.2123948505498596 1 rotate no_reflect no_shear #
lump $-1 $-1 $38 $2 #
transform $-1 1 0 0 0 1 0 0 0 1 55.505844294564653 25.86636375649719 8.2123948505498596 1 rotate no_reflect no_shear #
lump $-1 $-1 $39 $3 #
transform $-1 1 0 0 0 1 0 0 0 1 55.505844294564653 25.86636375649719 8.2123948505498596 1 rotate no_reflect no_shear #
lump $-1 $-1 $40 $4 #
transform $-1 1 0 0 0 1 0 0 0 1 55.505844294564653 25.86636375649719 8.2123948505498596 1 rotate no_reflect no_shear #
lump $-1 $-1 $41 $5 #
transform $-1 1 0 0 0 1 0 0 0 1 55.505844294564653 25.86636375649719 8.2123948505498596 1 rotate no_reflect no_shear #
lump $-1 $-1 $42 $6 #
transform $-1 1 0 0 0 1 0 0 0 1 55.505844294564653 25.86636375649719 8.2123948505498596 1 rotate no_reflect no_shear #
lump $-1 $-1 $43 $7 #
transform $-1 1 0 0 0 1 0 0 0 1 55.505844294564653 25.86636375649719 8.2123948505498596 1 rotate no_reflect no_shear #
lump $-1 $-1 $44 $8 #
transform $-1 1 0 0 0 1 0 0 0 1 55.505844294564653 25.86636375649719 8.2123948505498596 1 rotate no_reflect no_shear #
lump $-1 $-1 $45 $9 #
transform $-1 1 0 0 0 1 0 0 0 1 55.505844294564653 25.86636375649719 8.2123948505498596 1 rotate no_reflect no_shear #
lump $-1 $-1 $46 $10 #
transform $-1 1 0 0 0 1 0 0 0 1 55.505844294564653 25.86636375649719 8.2123948505498596 1 rotate no_reflect no_shear #
lump $-1 $-1 $47 $11 #
transform $-1 1 0 0 0 1 0 0 0 1 55.505844294564653 25.86636375649719 8.2123948505498596 1 rotate no_reflect no_shear #
shell $-1 $-1 $-1 $48 $-1 $12 #
shell $-1 $-1 $-1 $49 $-1 $14 #
shell $-1 $-1 $-1 $50 $-1 $16 #
shell $-1 $-1 $-1 $51 $-1 $18 #
shell $-1 $-1 $-1 $52 $-1 $20 #
shell $-1 $-1 $-1 $53 $-1 $22 #
shell $-1 $-1 $-1 $54 $-1 $24 #
shell $-1 $-1 $-1 $55 $-1 $26 #
shell $-1 $-1 $-1 $56 $-1 $28 #
shell $-1 $-1 $-1 $57 $-1 $30 #
shell $-1 $-1 $-1 $58 $-1 $32 #
shell $-1 $-1 $-1 $59 $-1 $34 #
face $-1 $60 $61 $36 $-1 $62 forward single #
face $-1 $63 $64 $37 $-1 $65 forward single #
face $-1 $66 $67 $38 $-1 $68 reversed single #
face $-1 $69 $70 $39 $-1 $71 forward single #
face $-1 $72 $73 $40 $-1 $74 reversed single #
face $-1 $75 $76 $41 $-1 $77 forward single #
face $-1 $78 $79 $42 $-1 $80 reversed single #
face $-1 $81 $82 $43 $-1 $83 forward single #
face $-1 $84 $85 $44 $-1 $86 reversed single #
face $-1 $87 $88 $45 $-1 $89 forward single #
face $-1 $90 $91 $46 $-1 $92 reversed single #
face $-1 $93 $94 $47 $-1 $95 forward single #
face $-1 $96 $97 $36 $-1 $98 reversed single #
loop $-1 $-1 $99 $48 #
plane-surface $-1 0 0 8.2123948505498596 0 0 1 1 0 0 forward_v I I I I #
face $-1 $100 $101 $37 $-1 $102 reversed single #
loop $-1 $-1 $103 $49 #
plane-surface $-1 -55.505844294564653 0 0 1 0 0 0 0 -1 forward_v I I I I #
face $-1 $104 $105 $38 $-1 $106 reversed single #
loop $-1 $-1 $107 $50 #
plane-surface $-1 -29.179709912472568 -102.98156335965723 84.135502258376775 -1 0 0 0 -0.69465837861970381 0.71933979245794832 forward_v I I I I #
face $-1 $108 $109 $39 $-1 $110 forward single #
loop $-1 $111 $112 $51 #
cone-surface $-1 -38.287946924607454 -23.425996658667895 5.8275084213778356 0 0.69465837861970381 -0.71933979245794832 1 0 0 1 I I 0 1 1 forward I I I I #
face $-1 $113 $114 $40 $-1 $115 reversed single #
loop $-1 $-1 $116 $52 #
plane-surface $-1 -2.7850585242753354 -102.98156335965723 84.135502258376775 -1 0 0 0 -0.69465837861970381 0.71933979245794832 forward_v I I I I #
face $-1 $117 $118 $41 $-1 $119 forward single #
loop $-1 $120 $121 $53 #
cone-surface $-1 -11.893295536410221 -23.425996658667895 5.8275084213778356 0 0.69465837861970381 -0.71933979245794832 1 0 0 1 I I 0 1 1 forward I I I I #
face $-1 $122 $123 $42 $-1 $124 reversed single #
loop $-1 $-1 $125 $54 #
plane-surface $-1 23.609592863921897 -102.98156335965723 84.135502258376775 -1 0 0 0 -0.69465837861970381 0.71933979245794832 forward_v I I I I #
face $-1 $126 $127 $43 $-1 $128 forward single #
loop $-1 $129 $130 $55 #
cone-surface $-1 14.501355851787011 -23.425996658667895 5.8275084213778356 0 0.69465837861970381 -0.71933979245794832 1 0 0 1 I I 0 1 1 forward I I I I #
face $-1 $131 $132 $44 $-1 $133 reversed single #
loop $-1 $-1 $134 $56 #
plane-surface $-1 50.004244252119129 -102.98156335965723 84.135502258376775 -1 0 0 0 -0.69465837861970381 0.71933979245794832 forward_v I I I I #
face $-1 $135 $136 $45 $-1 $137 forward single #
loop $-1 $138 $139 $57 #
cone-surface $-1 40.896007239984243 -23.425996658667895 5.8275084213778356 0 0.69465837861970381 -0.71933979245794832 1 0 0 1 I I 0 1 1 forward I I I I #
face $-1 $140 $141 $46 $-1 $142 reversed single #
loop $-1 $-1 $143 $58 #
plane-surface $-1 -18.585616756614613 63.741232851861966 118.80820344817124 1 0 0 0 -0.68199836817093118 -0.7313536940579346 forward_v I I I I #
face $-1 $144 $145 $47 $-1 $146 forward single #
loop $-1 $147 $148 $59 #
cone-surface $-1 -5.0526286206244038 21.003258801185588 3.4378764444007679 0 -0.68199836817093118 -0.7313536940579346 1.5 0 0 1 I I 0 1 1.5 forward I I I I #
face $-1 $149 $150 $36 $-1 $151 reversed single #
loop $-1 $-1 $152 $60 #
plane-surface $-1 0 0 -8.2123948505498596 0 0 1 1 0 0 forward_v I I I I #
coedge $-1 $153 $154 $155 $156 forward $61 $-1 #
face $-1 $157 $158 $37 $-1 $159 reversed single #
loop $-1 $-1 $160 $63 #
plane-surface $-1 0 25.86636375649719 0 0 -1 0 0 0 -1 forward_v I I I I #
coedge $-1 $161 $162 $163 $164 forward $64 $-1 #
face $-1 $165 $166 $38 $-1 $167 reversed single #
loop $-1 $-1 $168 $66 #
plane-surface $-1 -38.287946924607454 -25.866363756497194 4.2803772282661043 0 -0.69465837861970381 0.71933979245794832 1 0 0 forward_v I I I I #
coedge $-1 $169 $170 $171 $172 reversed $67 $-1 #
face $-1 $-1 $173 $39 $-1 $174 forward single #
loop $-1 $175 $176 $69 #
cone-surface $-1 -38.287946924607454 -22.674162046424808 5.0489609071187118 0 0.69465837861970381 -0.71933979245794832 0.5 0 0 1 I I -0.70710678118654746 0.70710678118654746 0.5 forward I I I I #
loop $-1 $-1 $177 $51 #
coedge $-1 $112 $112 $178 $179 reversed $70 $-1 #
face $-1 $180 $181 $40 $-1 $182 reversed single #
loop $-1 $-1 $183 $72 #
plane-surface $-1 -11.893295536410221 -25.866363756497194 4.2803772282661043 0 -0.69465837861970381 0.71933979245794832 1 0 0 forward_v I I I I #
coedge $-1 $184 $185 $186 $187 reversed $73 $-1 #
face $-1 $-1 $188 $41 $-1 $189 forward single #
loop $-1 $190 $191 $75 #
cone-surface $-1 -11.893295536410221 -22.674162046424808 5.0489609071187118 0 0.69465837861970381 -0.71933979245794832 0.5 0 0 1 I I -0.70710678118654746 0.70710678118654746 0.5 forward I I I I #
loop $-1 $-1 $192 $53 #
coedge $-1 $121 $121 $193 $194 reversed $76 $-1 #
face $-1 $195 $196 $42 $-1 $197 reversed single #
loop $-1 $-1 $198 $78 #
plane-surface $-1 14.501355851787011 -25.866363756497194 4.2803772282661043 0 -0.69465837861970381 0.71933979245794832 1 0 0 forward_v I I I I #
coedge $-1 $199 $200 $201 $202 reversed $79 $-1 #
face $-1 $-1 $203 $43 $-1 $204 forward single #
loop $-1 $205 $206 $81 #
cone-surface $-1 14.501355851787011 -22.674162046424808 5.0489609071187118 0 0.69465837861970381 -0.71933979245794832 0.5 0 0 1 I I -0.70710678118654746 0.70710678118654746 0.5 forward I I I I #
loop $-1 $-1 $207 $55 #
coedge $-1 $130 $130 $208 $209 reversed $82 $-1 #
face $-1 $210 $211 $44 $-1 $212 reversed single #
loop $-1 $-1 $213 $84 #
plane-surface $-1 40.896007239984243 -25.866363756497194 4.2803772282661043 0 -0.69465837861970381 0.71933979245794832 1 0 0 forward_v I I I I #
coedge $-1 $214 $215 $216 $217 reversed $85 $-1 #
face $-1 $-1 $218 $45 $-1 $219 forward single #
loop $-1 $220 $221 $87 #
cone-surface $-1 40.896007239984243 -22.674162046424808 5.0489609071187118 0 0.69465837861970381 -0.71933979245794832 0.5 0 0 1 I I -0.70710678118654746 0.70710678118654746 0.5 forward I I I I #
loop $-1 $-1 $222 $57 #
coedge $-1 $139 $139 $223 $224 reversed $88 $-1 #
face $-1 $225 $226 $46 $-1 $227 reversed single #
loop $-1 $-1 $228 $90 #
plane-surface $-1 -5.0526286206244038 -11.968557613823805 37.619394914902458 0 0.68199836817093118 0.7313536940579346 1 0 0 forward_v I I I I #
coedge $-1 $229 $230 $231 $232 reversed $91 $-1 #
face $-1 $-1 $233 $47 $-1 $234 forward single #
loop $-1 $235 $236 $93 #
cone-surface $-1 -5.0526286206244038 18.778542743033714 1.0521606079787276 0 -0.68199836817093118 -0.7313536940579346 0.75 0 0 1 I I -0.70710678118654757 0.70710678118654757 0.75 forward I I I I #
loop $-1 $-1 $237 $59 #
coedge $-1 $148 $148 $238 $239 reversed $94 $-1 #
face $-1 $240 $241 $36 $-1 $242 reversed single #
loop $-1 $-1 $243 $96 #
plane-surface $-1 0 -25.86636375649719 0 0 1 0 0 0 1 forward_v I I I I #
coedge $-1 $244 $245 $246 $247 forward $97 $-1 #
coedge $-1 $248 $99 $249 $250 forward $61 $-1 #
coedge $-1 $99 $248 $251 $252 forward $61 $-1 #
coedge $-1 $253 $254 $99 $156 reversed $255 $-1 #
edge $-1 $256 -25.86636375649719 $257 25.86636375649719 $155 $258 forward 7 unknown #
face $-1 $259 $260 $37 $-1 $261 reversed single #
loop $-1 $-1 $163 $100 #
plane-surface $-1 -58.222385812734835 0 4.9085394045548547 0 0 1 1 0 0 forward_v I I I I #
coedge $-1 $262 $263 $161 $264 forward $101 $-1 #
coedge $-1 $265 $103 $160 $264 reversed $64 $-1 #
coedge $-1 $103 $265 $266 $267 reversed $64 $-1 #
coedge $-1 $268 $269 $103 $164 reversed $158 $-1 #
edge $-1 $270 -25.86636375649719 $271 25.86636375649719 $163 $272 forward 7 unknown #
face $-1 $273 $274 $38 $-1 $275 reversed single #
loop $-1 $-1 $276 $104 #
plane-surface $-1 -47.396183936742339 -102.98156335965723 84.135502258376775 1 0 0 0 0.69465837861970381 -0.71933979245794832 forward_v I I I I #
coedge $-1 $277 $278 $279 $280 reversed $105 $-1 #
coedge $-1 $170 $107 $281 $282 reversed $67 $-1 #
coedge $-1 $107 $169 $277 $283 reversed $67 $-1 #
coedge $-1 $279 $284 $107 $172 forward $285 $-1 #
edge $-1 $286 25.624417923331425 $287 29.696141273123555 $171 $288 forward 7 unknown #
loop $-1 $-1 $178 $108 #
plane-surface $-1 -38.287946924607454 -25.866363756497194 4.2803772282661043 0 -0.69465837861970381 0.71933979245794832 1 0 0 forward_v I I I I #
loop $-1 $-1 $289 $69 #
coedge $-1 $176 $176 $177 $290 reversed $109 $-1 #
coedge $-1 $177 $177 $176 $290 forward $111 $-1 #
coedge $-1 $178 $178 $112 $179 forward $173 $-1 #
edge $-1 $291 -1.3216471584630668e-015 $291 6.2831853071795996 $178 $292 forward 7 unknown #
face $-1 $293 $294 $40 $-1 $295 reversed single #
loop $-1 $-1 $296 $113 #
plane-surface $-1 -21.001532548545107 -102.98156335965723 84.135502258376775 1 0 0 0 0.69465837861970381 -0.71933979245794832 forward_v I I I I #
coedge $-1 $297 $298 $299 $300 reversed $114 $-1 #
coedge $-1 $185 $116 $301 $302 reversed $73 $-1 #
coedge $-1 $116 $184 $297 $303 reversed $73 $-1 #
coedge $-1 $299 $304 $116 $187 forward $305 $-1 #
edge $-1 $306 25.624417923331425 $307 29.696141273123555 $186 $308 forward 7 unknown #
loop $-1 $-1 $193 $117 #
plane-surface $-1 -11.893295536410221 -25.866363756497194 4.2803772282661043 0 -0.69465837861970381 0.71933979245794832 1 0 0 forward_v I I I I #
loop $-1 $-1 $309 $75 #
coedge $-1 $191 $191 $192 $310 reversed $118 $-1 #
coedge $-1 $192 $192 $191 $310 forward $120 $-1 #
coedge $-1 $193 $193 $121 $194 forward $188 $-1 #
edge $-1 $311 -1.3216471584630668e-015 $311 6.2831853071795996 $193 $312 forward 7 unknown #
face $-1 $313 $314 $42 $-1 $315 reversed single #
loop $-1 $-1 $316 $122 #
plane-surface $-1 5.393118839652125 -102.98156335965723 84.135502258376775 1 0 0 0 0.69465837861970381 -0.71933979245794832 forward_v I I I I #
coedge $-1 $317 $318 $319 $320 reversed $123 $-1 #
coedge $-1 $200 $125 $321 $322 reversed $79 $-1 #
coedge $-1 $125 $199 $317 $323 reversed $79 $-1 #
coedge $-1 $319 $324 $125 $202 forward $325 $-1 #
edge $-1 $326 25.624417923331425 $327 29.696141273123555 $201 $328 forward 7 unknown #
loop $-1 $-1 $208 $126 #
plane-surface $-1 14.501355851787011 -25.866363756497194 4.2803772282661043 0 -0.69465837861970381 0.71933979245794832 1 0 0 forward_v I I I I #
loop $-1 $-1 $329 $81 #
coedge $-1 $206 $206 $207 $330 reversed $127 $-1 #
coedge $-1 $207 $207 $206 $330 forward $129 $-1 #
coedge $-1 $208 $208 $130 $209 forward $203 $-1 #
edge $-1 $331 -1.3216471584630668e-015 $331 6.2831853071795996 $208 $332 forward 7 unknown #
face $-1 $333 $334 $44 $-1 $335 reversed single #
loop $-1 $-1 $336 $131 #
plane-surface $-1 31.787770227849357 -102.98156335965723 84.135502258376775 1 0 0 0 0.69465837861970381 -0.71933979245794832 forward_v I I I I #
coedge $-1 $337 $338 $339 $340 reversed $132 $-1 #
coedge $-1 $215 $134 $341 $342 reversed $85 $-1 #
coedge $-1 $134 $214 $337 $343 reversed $85 $-1 #
coedge $-1 $339 $344 $134 $217 forward $345 $-1 #
edge $-1 $346 25.624417923331425 $347 29.696141273123555 $216 $348 forward 7 unknown #
loop $-1 $-1 $223 $135 #
plane-surface $-1 40.896007239984243 -25.866363756497194 4.2803772282661043 0 -0.69465837861970381 0.71933979245794832 1 0 0 forward_v I I I I #
loop $-1 $-1 $349 $87 #
coedge $-1 $221 $221 $222 $350 reversed $136 $-1 #
coedge $-1 $222 $222 $221 $350 forward $138 $-1 #
coedge $-1 $223 $223 $139 $224 forward $218 $-1 #
edge $-1 $351 -1.3216471584630668e-015 $351 6.2831853071795996 $223 $352 forward 7 unknown #
face $-1 $353 $354 $46 $-1 $355 forward single #
loop $-1 $-1 $356 $140 #
plane-surface $-1 8.4803595153658051 63.741232851861966 118.80820344817124 -1 0 0 0 0.68199836817093118 0.7313536940579346 forward_v I I I I #
coedge $-1 $357 $358 $359 $360 reversed $141 $-1 #
coedge $-1 $230 $143 $361 $362 reversed $91 $-1 #
coedge $-1 $143 $229 $357 $363 reversed $91 $-1 #
coedge $-1 $359 $364 $143 $232 forward $354 $-1 #
edge $-1 $365 6.004252669433793 $366 12.304028016009681 $231 $367 forward 7 unknown #
loop $-1 $-1 $238 $144 #
plane-surface $-1 -5.0526286206244038 -11.968557613823805 37.619394914902458 0 0.68199836817093118 0.7313536940579346 1 0 0 forward_v I I I I #
loop $-1 $-1 $368 $93 #
coedge $-1 $236 $236 $237 $369 reversed $145 $-1 #
coedge $-1 $237 $237 $236 $369 forward $147 $-1 #
coedge $-1 $238 $238 $148 $239 forward $233 $-1 #
edge $-1 $370 -1.3815028324797736e-015 $370 6.2831853071795987 $238 $371 forward 7 unknown #
face $-1 $372 $373 $36 $-1 $374 reversed single #
loop $-1 $-1 $375 $149 #
plane-surface $-1 -55.505844294564653 0 0 1 0 0 0 0 -1 forward_v I I I I #
coedge $-1 $376 $251 $377 $378 forward $150 $-1 #
coedge $-1 $379 $152 $376 $380 forward $97 $-1 #
coedge $-1 $152 $379 $381 $382 forward $97 $-1 #
coedge $-1 $254 $253 $152 $247 reversed $255 $-1 #
edge $-1 $383 -25.86636375649719 $384 25.86636375649719 $246 $385 forward 7 unknown #
coedge $-1 $154 $153 $386 $387 forward $61 $-1 #
coedge $-1 $388 $389 $153 $250 reversed $373 $-1 #
edge $-1 $257 -55.505844294564653 $390 55.505844294564653 $249 $391 forward 7 unknown #
coedge $-1 $243 $392 $154 $252 reversed $150 $-1 #
edge $-1 $393 -55.505844294564653 $256 55.505844294564653 $251 $394 forward 7 unknown #
coedge $-1 $246 $155 $392 $395 forward $255 $-1 #
coedge $-1 $155 $246 $388 $396 reversed $255 $-1 #
loop $-1 $-1 $253 $372 #
vertex $-1 $156 $397 #
vertex $-1 $156 $398 #
straight-curve $-1 55.505844294564653 0 8.2123948505498596 0 1 0 I I #
face $-1 $399 $400 $37 $-1 $401 forward single #
loop $-1 $-1 $402 $157 #
plane-surface $-1 -60.938927330905017 0 6.5604671275523572 1 0 0 0 0 -1 forward_v I I I I #
coedge $-1 $403 $160 $269 $404 reversed $101 $-1 #
coedge $-1 $160 $403 $405 $406 reversed $101 $-1 #
edge $-1 $407 -8.2123948505498596 $271 -4.9085394045548547 $160 $408 forward 7 unknown #
coedge $-1 $162 $161 $409 $410 reversed $64 $-1 #
coedge $-1 $411 $412 $162 $267 forward $413 $-1 #
edge $-1 $270 4.9085394045548547 $414 8.2123948505498596 $266 $415 forward 7 unknown #
coedge $-1 $416 $163 $412 $417 forward $158 $-1 #
coedge $-1 $163 $416 $262 $404 forward $158 $-1 #
vertex $-1 $267 $418 #
vertex $-1 $264 $419 #
straight-curve $-1 -55.505844294564653 0 4.9085394045548547 0 1 0 I I #
face $-1 $-1 $285 $38 $-1 $420 forward single #
loop $-1 $-1 $421 $165 #
plane-surface $-1 0 -25.86636375649719 0 0 1 0 0 0 1 forward_v I I I I #
coedge $-1 $422 $423 $424 $425 reversed $166 $-1 #
coedge $-1 $426 $168 $170 $283 forward $105 $-1 #
coedge $-1 $168 $426 $422 $427 forward $105 $-1 #
coedge $-1 $424 $171 $168 $280 forward $285 $-1 #
edge $-1 $287 10.035736450168841 $428 28.252210474438613 $279 $429 forward 7 unknown #
coedge $-1 $430 $431 $169 $282 forward $274 $-1 #
edge $-1 $432 -37.787373900922276 $286 -33.855356278638524 $281 $433 forward 7 unknown #
edge $-1 $287 -5.6603616155853924 $432 -5.0235306441864656e-015 $170 $434 forward 7 unknown #
coedge $-1 $171 $424 $430 $435 forward $285 $-1 #
loop $-1 $-1 $424 $273 #
vertex $-1 $282 $436 #
vertex $-1 $172 $437 #
straight-curve $-1 -29.179709912472568 -51.490781679828615 8.2123948505498632 0 1 0 I I #
coedge $-1 $289 $289 $-1 $438 reversed $175 $-1 #
edge $-1 $439 0 $439 6.2831853071796004 $176 $440 forward 7 unknown #
vertex $-1 $179 $441 #
ellipse-curve $-1 -38.287946924607454 -23.830502081601125 6.2463860394079829 0 -0.69465837861970381 0.71933979245794832 1 0 0 1 I I #
face $-1 $-1 $305 $40 $-1 $442 forward single #
loop $-1 $-1 $443 $180 #
plane-surface $-1 0 -25.86636375649719 0 0 1 0 0 0 1 forward_v I I I I #
coedge $-1 $444 $445 $446 $447 reversed $181 $-1 #
coedge $-1 $448 $183 $185 $303 forward $114 $-1 #
coedge $-1 $183 $448 $444 $449 forward $114 $-1 #
coedge $-1 $446 $186 $183 $300 forward $305 $-1 #
edge $-1 $307 -3.1615892439297753 $450 15.054884780339997 $299 $451 forward 7 unknown #
coedge $-1 $452 $453 $184 $302 forward $294 $-1 #
edge $-1 $454 -37.787373900922276 $306 -33.855356278638524 $301 $455 forward 7 unknown #
edge $-1 $307 -5.6603616155853924 $454 -5.0235306441864656e-015 $185 $456 forward 7 unknown #
coedge $-1 $186 $446 $452 $457 forward $305 $-1 #
loop $-1 $-1 $446 $293 #
vertex $-1 $302 $458 #
vertex $-1 $187 $459 #
straight-curve $-1 -2.7850585242753354 -51.490781679828615 8.2123948505498632 0 1 0 I I #
coedge $-1 $309 $309 $-1 $460 reversed $190 $-1 #
edge $-1 $461 0 $461 6.2831853071796004 $191 $462 forward 7 unknown #
vertex $-1 $194 $463 #
ellipse-curve $-1 -11.893295536410221 -23.830502081601125 6.2463860394079829 0 -0.69465837861970381 0.71933979245794832 1 0 0 1 I I #
face $-1 $-1 $325 $42 $-1 $464 forward single #
loop $-1 $-1 $465 $195 #
plane-surface $-1 0 -25.86636375649719 0 0 1 0 0 0 1 forward_v I I I I #
coedge $-1 $466 $467 $468 $469 reversed $196 $-1 #
coedge $-1 $470 $198 $200 $323 forward $123 $-1 #
coedge $-1 $198 $470 $466 $471 forward $123 $-1 #
coedge $-1 $468 $201 $198 $320 forward $325 $-1 #
edge $-1 $327 -16.358914938028391 $472 1.8575590862413804 $319 $473 forward 7 unknown #
coedge $-1 $474 $475 $199 $322 forward $314 $-1 #
edge $-1 $476 -37.787373900922276 $326 -33.855356278638524 $321 $477 forward 7 unknown #
edge $-1 $327 -5.6603616155853924 $476 -5.0235306441864656e-015 $200 $478 forward 7 unknown #
coedge $-1 $201 $468 $474 $479 forward $325 $-1 #
loop $-1 $-1 $468 $313 #
vertex $-1 $322 $480 #
vertex $-1 $202 $481 #
straight-curve $-1 23.609592863921897 -51.490781679828615 8.2123948505498632 0 1 0 I I #
coedge $-1 $329 $329 $-1 $482 reversed $205 $-1 #
edge $-1 $483 0 $483 6.2831853071796004 $206 $484 forward 7 unknown #
vertex $-1 $209 $485 #
ellipse-curve $-1 14.501355851787011 -23.830502081601125 6.2463860394079829 0 -0.69465837861970381 0.71933979245794832 1 0 0 1 I I #
face $-1 $-1 $345 $44 $-1 $486 forward single #
loop $-1 $-1 $487 $210 #
plane-surface $-1 0 -25.86636375649719 0 0 1 0 0 0 1 forward_v I I I I #
coedge $-1 $488 $489 $490 $491 reversed $211 $-1 #
coedge $-1 $492 $213 $215 $343 forward $132 $-1 #
coedge $-1 $213 $492 $488 $493 forward $132 $-1 #
coedge $-1 $490 $216 $213 $340 forward $345 $-1 #
edge $-1 $347 -29.556240632127007 $494 -11.339766607857236 $339 $495 forward 7 unknown #
coedge $-1 $496 $497 $214 $342 forward $334 $-1 #
edge $-1 $498 -37.787373900922276 $346 -33.855356278638524 $341 $499 forward 7 unknown #
edge $-1 $347 -5.6603616155853924 $498 -5.0235306441864656e-015 $215 $500 forward 7 unknown #
coedge $-1 $216 $490 $496 $501 forward $345 $-1 #
loop $-1 $-1 $490 $333 #
vertex $-1 $342 $502 #
vertex $-1 $217 $503 #
straight-curve $-1 50.004244252119129 -51.490781679828615 8.2123948505498632 0 1 0 I I #
coedge $-1 $349 $349 $-1 $504 reversed $220 $-1 #
edge $-1 $505 0 $505 6.2831853071796004 $221 $506 forward 7 unknown #
vertex $-1 $224 $507 #
ellipse-curve $-1 40.896007239984243 -23.830502081601125 6.2463860394079829 0 -0.69465837861970381 0.71933979245794832 1 0 0 1 I I #
face $-1 $-1 $508 $46 $-1 $509 reversed single #
loop $-1 $-1 $231 $225 #
plane-surface $-1 0 0 8.2123948505498596 0 0 1 1 0 0 forward_v I I I I #
coedge $-1 $510 $511 $512 $513 reversed $226 $-1 #
coedge $-1 $514 $228 $230 $363 forward $141 $-1 #
coedge $-1 $228 $514 $510 $515 forward $141 $-1 #
coedge $-1 $512 $231 $228 $360 forward $354 $-1 #
edge $-1 $366 -16.059302446302411 $516 11.006673825678007 $359 $517 forward 7 unknown #
coedge $-1 $518 $519 $229 $362 forward $508 $-1 #
edge $-1 $520 -57.066342554076776 $365 -51.191706873535765 $361 $521 forward 7 unknown #
edge $-1 $366 43.11887159381331 $520 51.732727512994394 $230 $522 forward 7 unknown #
coedge $-1 $231 $512 $518 $523 forward $354 $-1 #
vertex $-1 $362 $524 #
vertex $-1 $232 $525 #
straight-curve $-1 -18.585616756614613 31.870616425930983 8.2123948505498561 0 -1 0 I I #
coedge $-1 $368 $368 $-1 $526 reversed $235 $-1 #
edge $-1 $527 0 $527 6.2831853071796004 $236 $528 forward 7 unknown #
vertex $-1 $239 $529 #
ellipse-curve $-1 -5.0526286206244038 22.716476083209255 5.2750770102793467 0 0.68199836817093118 0.7313536940579346 1.5 0 0 1 I I #
face $-1 $-1 $255 $36 $-1 $530 reversed single #
loop $-1 $-1 $388 $240 #
plane-surface $-1 0 25.86636375649719 0 0 -1 0 0 0 -1 forward_v I I I I #
coedge $-1 $531 $386 $389 $532 forward $241 $-1 #
coedge $-1 $392 $243 $244 $380 reversed $150 $-1 #
coedge $-1 $386 $531 $243 $378 reversed $241 $-1 #
edge $-1 $393 -8.2123948505498596 $533 8.2123948505498596 $377 $534 forward 7 unknown #
coedge $-1 $245 $244 $531 $535 forward $97 $-1 #
edge $-1 $384 -55.505844294564653 $533 55.505844294564653 $376 $536 forward 7 unknown #
coedge $-1 $389 $388 $245 $382 reversed $373 $-1 #
edge $-1 $537 -55.505844294564653 $383 55.505844294564653 $381 $538 forward 7 unknown #
vertex $-1 $247 $539 #
vertex $-1 $395 $540 #
straight-curve $-1 55.505844294564653 0 -8.2123948505498596 0 -1 0 I I #
coedge $-1 $375 $377 $248 $387 reversed $241 $-1 #
edge $-1 $390 -25.86636375649719 $393 25.86636375649719 $386 $541 forward 7 unknown #
coedge $-1 $381 $249 $254 $396 forward $373 $-1 #
coedge $-1 $249 $381 $375 $532 reversed $373 $-1 #
vertex $-1 $250 $542 #
straight-curve $-1 0 25.86636375649719 8.2123948505498596 -1 0 0 I I #
coedge $-1 $251 $376 $253 $395 reversed $150 $-1 #
vertex $-1 $387 $543 #
straight-curve $-1 0 -25.86636375649719 8.2123948505498596 1 0 0 I I #
edge $-1 $256 -8.2123948505498596 $384 8.2123948505498596 $253 $544 forward 7 unknown #
edge $-1 $257 -8.2123948505498596 $383 8.2123948505498596 $254 $545 forward 7 unknown #
point $-1 55.505844294564653 -25.86636375649719 8.2123948505498596 #
point $-1 55.505844294564653 25.86636375649719 8.2123948505498596 #
face $-1 $-1 $413 $37 $-1 $546 reversed single #
loop $-1 $-1 $409 $259 #
plane-surface $-1 0 0 8.2123948505498596 0 0 1 1 0 0 forward_v I I I I #
coedge $-1 $547 $548 $403 $549 forward $260 $-1 #
coedge $-1 $263 $262 $402 $549 reversed $101 $-1 #
edge $-1 $550 -2.7165415181701817 $271 2.7165415181701817 $262 $551 forward 7 unknown #
coedge $-1 $552 $409 $263 $406 forward $400 $-1 #
edge $-1 $407 55.505844294564653 $553 60.938927330905017 $263 $554 forward 7 unknown #
vertex $-1 $406 $555 #
straight-curve $-1 -55.505844294564653 25.86636375649719 0 0 0 -1 I I #
coedge $-1 $405 $556 $265 $410 forward $400 $-1 #
edge $-1 $414 -25.86636375649719 $407 25.86636375649719 $409 $557 forward 7 unknown #
coedge $-1 $558 $266 $556 $559 reversed $413 $-1 #
coedge $-1 $266 $558 $268 $417 reversed $413 $-1 #
loop $-1 $-1 $266 $399 #
vertex $-1 $267 $560 #
straight-curve $-1 -55.505844294564653 -25.86636375649719 0 0 0 1 I I #
coedge $-1 $269 $268 $547 $561 forward $158 $-1 #
edge $-1 $270 -2.7165415181701817 $562 2.7165415181701817 $412 $563 forward 7 unknown #
point $-1 -55.505844294564653 -25.86636375649719 4.9085394045548547 #
point $-1 -55.505844294564653 25.86636375649719 4.9085394045548547 #
plane-surface $-1 0 0 8.2123948505498596 0 0 1 1 0 0 forward_v I I I I #
coedge $-1 $431 $430 $423 $564 forward $274 $-1 #
coedge $-1 $423 $276 $278 $427 reversed $166 $-1 #
coedge $-1 $276 $422 $421 $564 reversed $166 $-1 #
coedge $-1 $284 $279 $276 $425 forward $285 $-1 #
edge $-1 $428 -29.696141273123555 $565 -25.624417923331425 $424 $566 forward 7 unknown #
coedge $-1 $278 $277 $431 $567 reversed $105 $-1 #
edge $-1 $568 5.0235306441864656e-015 $428 5.6603616155853924 $422 $569 forward 7 unknown #
vertex $-1 $280 $570 #
straight-curve $-1 -19.143973462303727 -21.794640406705064 8.2123948505498596 -1 0 0 I I #
coedge $-1 $421 $281 $284 $435 reversed $274 $-1 #
coedge $-1 $281 $421 $426 $567 forward $274 $-1 #
vertex $-1 $282 $571 #
straight-curve $-1 -29.179709912472568 -25.866363756497194 42.067751129188387 0 0 1 I I #
straight-curve $-1 -29.179709912472568 -25.866363756497194 4.2803772282661043 0 -0.71933979245794832 -0.69465837861970381 I I #
edge $-1 $565 -47.396183936742339 $286 -29.179709912472568 $430 $572 forward 7 unknown #
point $-1 -29.179709912472568 -25.86636375649719 8.2123948505498596 #
point $-1 -29.179709912472568 -21.79464040670506 8.2123948505498596 #
edge $-1 $573 1 $573 0 $289 $-1 forward 7 unknown #
vertex $-1 $290 $574 #
ellipse-curve $-1 -38.287946924607454 -23.021491235734661 5.4086308033476858 0 -0.69465837861970381 0.71933979245794832 1 0 0 1 I I #
point $-1 -37.287946924607454 -23.830502081601129 6.2463860394079846 #
plane-surface $-1 0 0 8.2123948505498596 0 0 1 1 0 0 forward_v I I I I #
coedge $-1 $453 $452 $445 $575 forward $294 $-1 #
coedge $-1 $445 $296 $298 $449 reversed $181 $-1 #
coedge $-1 $296 $444 $443 $575 reversed $181 $-1 #
coedge $-1 $304 $299 $296 $447 forward $305 $-1 #
edge $-1 $450 -29.696141273123555 $576 -25.624417923331425 $446 $577 forward 7 unknown #
coedge $-1 $298 $297 $453 $578 reversed $114 $-1 #
edge $-1 $579 5.0235306441864656e-015 $450 5.6603616155853924 $444 $580 forward 7 unknown #
vertex $-1 $300 $581 #
straight-curve $-1 -5.9466477682051107 -21.794640406705064 8.2123948505498596 -1 0 0 I I #
coedge $-1 $443 $301 $304 $457 reversed $294 $-1 #
coedge $-1 $301 $443 $448 $578 forward $294 $-1 #
vertex $-1 $302 $582 #
straight-curve $-1 -2.7850585242753354 -25.866363756497194 42.067751129188387 0 0 1 I I #
straight-curve $-1 -2.7850585242753354 -25.866363756497194 4.2803772282661043 0 -0.71933979245794832 -0.69465837861970381 I I #
edge $-1 $576 -21.001532548545107 $306 -2.7850585242753354 $452 $583 forward 7 unknown #
point $-1 -2.7850585242753354 -25.86636375649719 8.2123948505498596 #
point $-1 -2.7850585242753354 -21.79464040670506 8.2123948505498596 #
edge $-1 $584 1 $584 0 $309 $-1 forward 7 unknown #
vertex $-1 $310 $585 #
ellipse-curve $-1 -11.893295536410221 -23.021491235734661 5.4086308033476858 0 -0.69465837861970381 0.71933979245794832 1 0 0 1 I I #
point $-1 -10.893295536410221 -23.830502081601129 6.2463860394079846 #
plane-surface $-1 0 0 8.2123948505498596 0 0 1 1 0 0 forward_v I I I I #
coedge $-1 $475 $474 $467 $586 forward $314 $-1 #
coedge $-1 $467 $316 $318 $471 reversed $196 $-1 #
coedge $-1 $316 $466 $465 $586 reversed $196 $-1 #
coedge $-1 $324 $319 $316 $469 forward $325 $-1 #
edge $-1 $472 -29.696141273123555 $587 -25.624417923331425 $468 $588 forward 7 unknown #
coedge $-1 $318 $317 $475 $589 reversed $123 $-1 #
edge $-1 $590 5.0235306441864656e-015 $472 5.6603616155853924 $466 $591 forward 7 unknown #
vertex $-1 $320 $592 #
straight-curve $-1 7.2506779258935055 -21.794640406705064 8.2123948505498596 -1 0 0 I I #
coedge $-1 $465 $321 $324 $479 reversed $314 $-1 #
coedge $-1 $321 $465 $470 $589 forward $314 $-1 #
vertex $-1 $322 $593 #
straight-curve $-1 23.609592863921897 -25.866363756497194 42.067751129188387 0 0 1 I I #
straight-curve $-1 23.609592863921897 -25.866363756497194 4.2803772282661043 0 -0.71933979245794832 -0.69465837861970381 I I #
edge $-1 $587 5.393118839652125 $326 23.609592863921897 $474 $594 forward 7 unknown #
point $-1 23.609592863921897 -25.86636375649719 8.2123948505498596 #
point $-1 23.609592863921897 -21.79464040670506 8.2123948505498596 #
edge $-1 $595 1 $595 0 $329 $-1 forward 7 unknown #
vertex $-1 $330 $596 #
ellipse-curve $-1 14.501355851787011 -23.021491235734661 5.4086308033476858 0 -0.69465837861970381 0.71933979245794832 1 0 0 1 I I #
point $-1 15.501355851787011 -23.830502081601129 6.2463860394079846 #
plane-surface $-1 0 0 8.2123948505498596 0 0 1 1 0 0 forward_v I I I I #
coedge $-1 $497 $496 $489 $597 forward $334 $-1 #
coedge $-1 $489 $336 $338 $493 reversed $211 $-1 #
coedge $-1 $336 $488 $487 $597 reversed $211 $-1 #
coedge $-1 $344 $339 $336 $491 forward $345 $-1 #
edge $-1 $494 -29.696141273123555 $598 -25.624417923331425 $490 $599 forward 7 unknown #
coedge $-1 $338 $337 $497 $600 reversed $132 $-1 #
edge $-1 $601 5.0235306441864656e-015 $494 5.6603616155853924 $488 $602 forward 7 unknown #
vertex $-1 $340 $603 #
straight-curve $-1 20.448003619992122 -21.794640406705064 8.2123948505498596 -1 0 0 I I #
coedge $-1 $487 $341 $344 $501 reversed $334 $-1 #
coedge $-1 $341 $487 $492 $600 forward $334 $-1 #
vertex $-1 $342 $604 #
straight-curve $-1 50.004244252119129 -25.866363756497194 42.067751129188387 0 0 1 I I #
straight-curve $-1 50.004244252119129 -25.866363756497194 4.2803772282661043 0 -0.71933979245794832 -0.69465837861970381 I I #
edge $-1 $598 31.787770227849357 $346 50.004244252119129 $496 $605 forward 7 unknown #
point $-1 50.004244252119129 -25.86636375649719 8.2123948505498596 #
point $-1 50.004244252119129 -21.79464040670506 8.2123948505498596 #
edge $-1 $606 1 $606 0 $349 $-1 forward 7 unknown #
vertex $-1 $350 $607 #
ellipse-curve $-1 40.896007239984243 -23.021491235734661 5.4086308033476858 0 -0.69465837861970381 0.71933979245794832 1 0 0 1 I I #
point $-1 41.896007239984243 -23.830502081601129 6.2463860394079846 #
loop $-1 $-1 $361 $353 #
plane-surface $-1 0 25.86636375649719 0 0 -1 0 0 0 -1 forward_v I I I I #
coedge $-1 $511 $356 $358 $515 reversed $226 $-1 #
coedge $-1 $356 $510 $608 $609 reversed $226 $-1 #
coedge $-1 $364 $359 $356 $513 forward $354 $-1 #
edge $-1 $516 -12.304028016009681 $610 -6.004252669433793 $512 $611 forward 7 unknown #
coedge $-1 $358 $357 $519 $612 reversed $141 $-1 #
edge $-1 $613 -51.732727512994394 $516 -43.11887159381331 $510 $614 forward 7 unknown #
vertex $-1 $360 $615 #
straight-curve $-1 -2.5263143103122019 19.566588409921305 8.2123948505498596 1 0 0 I I #
coedge $-1 $608 $361 $364 $523 reversed $508 $-1 #
coedge $-1 $361 $608 $514 $612 forward $508 $-1 #
vertex $-1 $362 $616 #
straight-curve $-1 -18.585616756614613 25.86636375649719 59.404101724085621 0 0 1 I I #
straight-curve $-1 -18.585616756614613 -11.968557613823805 37.619394914902458 0 0.7313536940579346 -0.68199836817093118 I I #
edge $-1 $610 -8.4803595153658051 $365 18.585616756614613 $518 $617 forward 7 unknown #
point $-1 -18.585616756614613 25.86636375649719 8.2123948505498596 #
point $-1 -18.585616756614613 19.566588409921302 8.2123948505498632 #
edge $-1 $618 1 $618 0 $368 $-1 forward 7 unknown #
vertex $-1 $369 $619 #
ellipse-curve $-1 -5.0526286206244038 19.290041519161914 1.6006758785221784 0 0.68199836817093118 0.7313536940579346 1.5 0 0 1 I I #
point $-1 -3.5526286206244038 22.716476083209262 5.2750770102793574 #
plane-surface $-1 55.505844294564653 0 0 -1 0 0 0 0 1 forward_v I I I I #
coedge $-1 $377 $375 $379 $535 reversed $241 $-1 #
edge $-1 $390 -8.2123948505498596 $537 8.2123948505498596 $389 $620 forward 7 unknown #
vertex $-1 $535 $621 #
straight-curve $-1 -55.505844294564653 -25.86636375649719 0 0 0 -1 I I #
edge $-1 $533 -25.86636375649719 $537 25.86636375649719 $531 $622 forward 7 unknown #
straight-curve $-1 0 -25.86636375649719 -8.2123948505498596 -1 0 0 I I #
vertex $-1 $382 $623 #
straight-curve $-1 0 25.86636375649719 -8.2123948505498596 1 0 0 I I #
point $-1 55.505844294564653 25.86636375649719 -8.2123948505498596 #
point $-1 55.505844294564653 -25.86636375649719 -8.2123948505498596 #
straight-curve $-1 -55.505844294564653 0 8.2123948505498596 0 -1 0 I I #
point $-1 -55.505844294564653 25.86636375649719 8.2123948505498596 #
point $-1 -55.505844294564653 -25.86636375649719 8.2123948505498596 #
straight-curve $-1 55.505844294564653 -25.86636375649719 0 0 0 -1 I I #
straight-curve $-1 55.505844294564653 25.86636375649719 0 0 0 -1 I I #
plane-surface $-1 0 -25.86636375649719 0 0 1 0 0 0 1 forward_v I I I I #
coedge $-1 $624 $402 $416 $561 reversed $260 $-1 #
coedge $-1 $402 $624 $552 $625 reversed $260 $-1 #
edge $-1 $553 -1.6519277229975025 $550 1.6519277229975025 $403 $626 forward 7 unknown #
vertex $-1 $404 $627 #
straight-curve $-1 -58.222385812734835 25.86636375649719 4.9085394045548547 1 0 0 I I #
coedge $-1 $556 $405 $548 $625 forward $400 $-1 #
vertex $-1 $406 $628 #
straight-curve $-1 0 25.86636375649719 8.2123948505498596 -1 0 0 I I #
point $-1 -55.505844294564653 25.86636375649719 8.2123948505498596 #
coedge $-1 $409 $552 $411 $559 forward $400 $-1 #
straight-curve $-1 -55.505844294564653 0 8.2123948505498596 0 1 0 I I #
coedge $-1 $412 $411 $624 $629 forward $413 $-1 #
edge $-1 $630 -60.938927330905017 $414 -55.505844294564653 $411 $631 forward 7 unknown #
point $-1 -55.505844294564653 -25.86636375649719 8.2123948505498596 #
edge $-1 $562 -25.86636375649719 $550 25.86636375649719 $547 $632 forward 7 unknown #
vertex $-1 $561 $633 #
straight-curve $-1 -58.222385812734835 -25.86636375649719 4.9085394045548547 -1 0 0 I I #
edge $-1 $565 33.855356278638524 $568 37.787373900922276 $421 $634 forward 7 unknown #
vertex $-1 $435 $635 #
straight-curve $-1 -47.396183936742339 -51.490781679828615 8.2123948505498632 0 -1 0 I I #
edge $-1 $568 -28.252210474438613 $432 -10.035736450168841 $431 $636 forward 7 unknown #
vertex $-1 $567 $637 #
straight-curve $-1 -47.396183936742339 -25.866363756497194 4.2803772282661043 0 0.71933979245794832 0.69465837861970381 I I #
point $-1 -47.396183936742339 -21.79464040670506 8.2123948505498596 #
point $-1 -29.179709912472568 -25.86636375649719 4.2803772282661079 #
straight-curve $-1 0 -25.86636375649719 8.2123948505498596 1 0 0 I I #
vertex $-1 $438 $638 #
point $-1 -37.287946924607454 -23.021491235734661 5.4086308033476858 #
edge $-1 $576 33.855356278638524 $579 37.787373900922276 $443 $639 forward 7 unknown #
vertex $-1 $457 $640 #
straight-curve $-1 -21.001532548545107 -51.490781679828615 8.2123948505498632 0 -1 0 I I #
edge $-1 $579 -15.054884780339997 $454 3.1615892439297753 $453 $641 forward 7 unknown #
vertex $-1 $578 $642 #
straight-curve $-1 -21.001532548545107 -25.866363756497194 4.2803772282661043 0 0.71933979245794832 0.69465837861970381 I I #
point $-1 -21.001532548545107 -21.79464040670506 8.2123948505498596 #
point $-1 -2.7850585242753354 -25.86636375649719 4.2803772282661079 #
straight-curve $-1 0 -25.86636375649719 8.2123948505498596 1 0 0 I I #
vertex $-1 $460 $643 #
point $-1 -10.893295536410221 -23.021491235734661 5.4086308033476858 #
edge $-1 $587 33.855356278638524 $590 37.787373900922276 $465 $644 forward 7 unknown #
vertex $-1 $479 $645 #
straight-curve $-1 5.393118839652125 -51.490781679828615 8.2123948505498632 0 -1 0 I I #
edge $-1 $590 -1.8575590862413804 $476 16.358914938028391 $475 $646 forward 7 unknown #
vertex $-1 $589 $647 #
straight-curve $-1 5.393118839652125 -25.866363756497194 4.2803772282661043 0 0.71933979245794832 0.69465837861970381 I I #
point $-1 5.393118839652125 -21.79464040670506 8.2123948505498596 #
point $-1 23.609592863921897 -25.86636375649719 4.2803772282661079 #
straight-curve $-1 0 -25.86636375649719 8.2123948505498596 1 0 0 I I #
vertex $-1 $482 $648 #
point $-1 15.501355851787011 -23.021491235734661 5.4086308033476858 #
edge $-1 $598 33.855356278638524 $601 37.787373900922276 $487 $649 forward 7 unknown #
vertex $-1 $501 $650 #
straight-curve $-1 31.787770227849357 -51.490781679828615 8.2123948505498632 0 -1 0 I I #
edge $-1 $601 11.339766607857236 $498 29.556240632127007 $497 $651 forward 7 unknown #
vertex $-1 $600 $652 #
straight-curve $-1 31.787770227849357 -25.866363756497194 4.2803772282661043 0 0.71933979245794832 0.69465837861970381 I I #
point $-1 31.787770227849357 -21.79464040670506 8.2123948505498596 #
point $-1 50.004244252119129 -25.86636375649719 4.2803772282661079 #
straight-curve $-1 0 -25.86636375649719 8.2123948505498596 1 0 0 I I #
vertex $-1 $504 $653 #
point $-1 41.896007239984243 -23.021491235734661 5.4086308033476858 #
coedge $-1 $519 $518 $511 $609 forward $508 $-1 #
edge $-1 $610 51.191706873535765 $613 57.066342554076776 $608 $654 forward 7 unknown #
vertex $-1 $523 $655 #
straight-curve $-1 8.4803595153658051 31.870616425930983 8.2123948505498561 0 1 0 I I #
edge $-1 $613 -11.006673825678007 $520 16.059302446302411 $519 $656 forward 7 unknown #
vertex $-1 $612 $657 #
straight-curve $-1 8.4803595153658051 -11.968557613823805 37.619394914902458 0 -0.7313536940579346 0.68199836817093118 I I #
point $-1 8.4803595153658051 19.566588409921302 8.2123948505498632 #
point $-1 -18.585616756614613 25.866363756497194 2.3377591700088445 #
straight-curve $-1 0 25.86636375649719 8.2123948505498596 -1 0 0 I I #
vertex $-1 $526 $658 #
point $-1 -3.5526286206244038 19.290041519161914 1.6006758785221784 #
straight-curve $-1 -55.505844294564653 25.86636375649719 0 0 0 -1 I I #
point $-1 -55.505844294564653 -25.86636375649719 -8.2123948505498596 #
straight-curve $-1 -55.505844294564653 0 -8.2123948505498596 0 1 0 I I #
point $-1 -55.505844294564653 25.86636375649719 -8.2123948505498596 #
coedge $-1 $548 $547 $558 $629 reversed $260 $-1 #
edge $-1 $553 -25.86636375649719 $630 25.86636375649719 $548 $659 forward 7 unknown #
straight-curve $-1 -60.938927330905017 25.86636375649719 6.5604671275523572 0 0 -1 I I #
point $-1 -60.938927330905017 25.86636375649719 4.9085394045548547 #
point $-1 -60.938927330905017 25.86636375649719 8.2123948505498596 #
edge $-1 $630 -1.6519277229975025 $562 1.6519277229975025 $624 $660 forward 7 unknown #
vertex $-1 $625 $661 #
straight-curve $-1 0 -25.86636375649719 8.2123948505498596 1 0 0 I I #
straight-curve $-1 -60.938927330905017 0 4.9085394045548547 0 1 0 I I #
point $-1 -60.938927330905017 -25.86636375649719 4.9085394045548547 #
straight-curve $-1 -47.396183936742339 -25.866363756497194 42.067751129188387 0 0 -1 I I #
point $-1 -47.396183936742339 -25.86636375649719 8.2123948505498596 #
straight-curve $-1 -19.143973462303727 -25.86636375649719 4.2803772282661079 1 0 0 I I #
point $-1 -47.396183936742339 -25.86636375649719 4.2803772282661079 #
point $-1 -38.287946924607454 -22.326832857114955 4.6892910108897379 #
straight-curve $-1 -21.001532548545107 -25.866363756497194 42.067751129188387 0 0 -1 I I #
point $-1 -21.001532548545107 -25.86636375649719 8.2123948505498596 #
straight-curve $-1 -5.9466477682051107 -25.86636375649719 4.2803772282661079 1 0 0 I I #
point $-1 -21.001532548545107 -25.86636375649719 4.2803772282661079 #
point $-1 -11.893295536410221 -22.326832857114955 4.6892910108897379 #
straight-curve $-1 5.393118839652125 -25.866363756497194 42.067751129188387 0 0 -1 I I #
point $-1 5.393118839652125 -25.86636375649719 8.2123948505498596 #
straight-curve $-1 7.2506779258935055 -25.86636375649719 4.2803772282661079 1 0 0 I I #
point $-1 5.393118839652125 -25.86636375649719 4.2803772282661079 #
point $-1 14.501355851787011 -22.326832857114955 4.6892910108897379 #
straight-curve $-1 31.787770227849357 -25.866363756497194 42.067751129188387 0 0 -1 I I #
point $-1 31.787770227849357 -25.86636375649719 8.2123948505498596 #
straight-curve $-1 20.448003619992122 -25.86636375649719 4.2803772282661079 1 0 0 I I #
point $-1 31.787770227849357 -25.86636375649719 4.2803772282661079 #
point $-1 40.896007239984243 -22.326832857114955 4.6892910108897379 #
straight-curve $-1 8.4803595153658051 25.86636375649719 59.404101724085621 0 0 -1 I I #
point $-1 8.4803595153658051 25.86636375649719 8.2123948505498596 #
straight-curve $-1 -2.5263143103122019 25.866363756497186 2.3377591700088516 -1 0 0 I I #
point $-1 8.4803595153658051 25.866363756497194 2.3377591700088445 #
point $-1 -5.0526286206244038 18.267043966905515 0.50364533743527662 #
straight-curve $-1 -60.938927330905017 0 8.2123948505498596 0 -1 0 I I #
straight-curve $-1 -60.938927330905017 -25.86636375649719 6.5604671275523572 0 0 -1 I I #
point $-1 -60.938927330905017 -25.86636375649719 8.2123948505498596 #
End-of-ACIS-data 