500 0 9 0           
7 Unknown 11 ACIS 5.0 NT 24 Thu Mar 25 16:49:17 1999 
-1 9.9999999999999995e-007 1e-010 
body $-1 $9 $-1 $10 #
body $-1 $11 $-1 $12 #
body $-1 $13 $-1 $14 #
body $-1 $15 $-1 $16 #
body $-1 $17 $-1 $18 #
body $-1 $19 $-1 $20 #
body $-1 $21 $-1 $22 #
body $-1 $23 $-1 $24 #
body $-1 $25 $-1 $26 #
lump $-1 $-1 $27 $0 #
transform $-1 1 0 0 0 1 0 0 0 1 40.800805688650165 21.779065891246479 4.6162287798054464 1 rotate no_reflect no_shear #
lump $-1 $-1 $28 $1 #
transform $-1 1 0 0 0 1 0 0 0 1 40.800805688650165 21.779065891246479 4.6162287798054464 1 rotate no_reflect no_shear #
lump $-1 $-1 $29 $2 #
transform $-1 1 0 0 0 1 0 0 0 1 40.800805688650165 21.779065891246479 4.6162287798054464 1 rotate no_reflect no_shear #
lump $-1 $-1 $30 $3 #
transform $-1 1 0 0 0 1 0 0 0 1 40.800805688650165 21.779065891246479 4.6162287798054464 1 rotate no_reflect no_shear #
lump $-1 $-1 $31 $4 #
transform $-1 1 0 0 0 1 0 0 0 1 40.800805688650165 21.779065891246479 4.6162287798054464 1 rotate no_reflect no_shear #
lump $-1 $-1 $32 $5 #
transform $-1 1 0 0 0 1 0 0 0 1 40.800805688650165 21.779065891246479 4.6162287798054464 1 rotate no_reflect no_shear #
lump $-1 $-1 $33 $6 #
transform $-1 1 0 0 0 1 0 0 0 1 40.800805688650165 21.779065891246479 4.6162287798054464 1 rotate no_reflect no_shear #
lump $-1 $-1 $34 $7 #
transform $-1 1 0 0 0 1 0 0 0 1 40.800805688650165 21.779065891246479 4.6162287798054464 1 rotate no_reflect no_shear #
lump $-1 $-1 $35 $8 #
transform $-1 1 0 0 0 1 0 0 0 1 40.800805688650165 21.779065891246479 4.6162287798054464 1 rotate no_reflect no_shear #
shell $-1 $-1 $-1 $36 $-1 $9 #
shell $-1 $-1 $-1 $37 $-1 $11 #
shell $-1 $-1 $-1 $38 $-1 $13 #
shell $-1 $-1 $-1 $39 $-1 $15 #
shell $-1 $-1 $-1 $40 $-1 $17 #
shell $-1 $-1 $-1 $41 $-1 $19 #
shell $-1 $-1 $-1 $42 $-1 $21 #
shell $-1 $-1 $-1 $43 $-1 $23 #
shell $-1 $-1 $-1 $44 $-1 $25 #
face $-1 $45 $46 $27 $-1 $47 forward single #
face $-1 $48 $49 $28 $-1 $50 forward single #
face $-1 $51 $52 $29 $-1 $53 forward single #
face $-1 $54 $55 $30 $-1 $56 reversed single #
face $-1 $57 $58 $31 $-1 $59 forward single #
face $-1 $60 $61 $32 $-1 $62 reversed single #
face $-1 $63 $64 $33 $-1 $65 forward single #
face $-1 $66 $67 $34 $-1 $68 reversed single #
face $-1 $69 $70 $35 $-1 $71 forward single #
face $-1 $72 $73 $27 $-1 $74 reversed single #
loop $-1 $-1 $75 $36 #
plane-surface $-1 0 0 4.6162287798054464 0 0 1 1 0 0 forward_v I I I I #
face $-1 $76 $77 $28 $-1 $78 reversed single #
loop $-1 $-1 $79 $37 #
plane-surface $-1 0 -20.227769579863047 -1.6162287798054464 0 0 1 1 0 0 forward_v I I I I #
face $-1 $80 $81 $29 $-1 $82 reversed single #
loop $-1 $-1 $83 $38 #
plane-surface $-1 0 21.779065891246479 0 0 -1 0 0 0 -1 forward_v I I I I #
face $-1 $84 $85 $30 $-1 $86 reversed single #
loop $-1 $-1 $87 $39 #
plane-surface $-1 -82.828743081044379 -16.598177988222464 69.983423590871752 0 1 0 -0.51503808176128008 0 0.85716729658548041 forward_v I I I I #
face $-1 $88 $89 $31 $-1 $90 forward single #
loop $-1 $91 $92 $40 #
cone-surface $-1 -36.429777714261242 -12.926164962174866 1.3936670404054867 0.51503808176128008 0 -0.85716729658548041 0.85716729658548041 0 0.51503808176128008 1 I I 0 1 1 forward I I I I #
face $-1 $93 $94 $32 $-1 $95 reversed single #
loop $-1 $-1 $96 $41 #
plane-surface $-1 -82.828743081044379 -5.0215588764549031 69.983423590871752 0 1 0 -0.51503808176128008 0 0.85716729658548041 forward_v I I I I #
face $-1 $97 $98 $33 $-1 $99 forward single #
loop $-1 $100 $101 $42 #
cone-surface $-1 -36.429777714261242 -1.3495458504073063 1.3936670404054867 0.51503808176128008 0 -0.85716729658548041 0.85716729658548041 0 0.51503808176128008 1 I I 0 1 1 forward I I I I #
face $-1 $102 $103 $34 $-1 $104 reversed single #
loop $-1 $-1 $105 $43 #
plane-surface $-1 -82.828743081044379 6.555060235312653 69.983423590871752 0 1 0 -0.51503808176128008 0 0.85716729658548041 forward_v I I I I #
face $-1 $106 $107 $35 $-1 $108 forward single #
loop $-1 $109 $110 $44 #
cone-surface $-1 -36.429777714261242 10.22707326136025 1.3936670404054867 0.51503808176128008 0 -0.85716729658548041 0.85716729658548041 0 0.51503808176128008 1 I I 0 1 1 forward I I I I #
face $-1 $111 $112 $27 $-1 $113 reversed single #
loop $-1 $-1 $114 $45 #
plane-surface $-1 0 0 -4.6162287798054464 0 0 1 1 0 0 forward_v I I I I #
coedge $-1 $115 $116 $117 $118 forward $46 $-1 #
face $-1 $119 $120 $28 $-1 $121 reversed single #
loop $-1 $-1 $122 $48 #
plane-surface $-1 0 -18.676473268479615 -3.1162287798054464 0 -1 0 0 0 -1 forward_v I I I I #
coedge $-1 $123 $124 $125 $126 reversed $49 $-1 #
face $-1 $127 $128 $29 $-1 $129 forward single #
loop $-1 $-1 $130 $51 #
plane-surface $-1 -40.800805688650165 0 0 1 0 0 0 0 -1 forward_v I I I I #
coedge $-1 $131 $132 $133 $134 forward $52 $-1 #
face $-1 $135 $136 $30 $-1 $137 reversed single #
loop $-1 $-1 $138 $54 #
plane-surface $-1 -40.800805688650172 -12.926164962174866 0.037190969572250765 -0.51503808176128008 0 0.85716729658548041 0.85716729658548041 0 0.51503808176128008 forward_v I I I I #
coedge $-1 $139 $140 $141 $142 reversed $55 $-1 #
face $-1 $-1 $143 $31 $-1 $144 forward single #
loop $-1 $145 $146 $57 #
cone-surface $-1 -35.611629968243712 -12.926164962174866 0.032040557829393634 0.51503808176128008 0 -0.85716729658548041 0.4285836482927402 0 0.25751904088064004 1 I I -0.70710678118654746 0.70710678118654746 0.5 forward I I I I #
loop $-1 $-1 $147 $40 #
coedge $-1 $92 $92 $148 $149 reversed $58 $-1 #
face $-1 $150 $151 $32 $-1 $152 reversed single #
loop $-1 $-1 $153 $60 #
plane-surface $-1 -40.800805688650172 -1.3495458504073063 0.037190969572250765 -0.51503808176128008 0 0.85716729658548041 0.85716729658548041 0 0.51503808176128008 forward_v I I I I #
coedge $-1 $154 $155 $156 $157 reversed $61 $-1 #
face $-1 $-1 $158 $33 $-1 $159 forward single #
loop $-1 $160 $161 $63 #
cone-surface $-1 -35.611629968243712 -1.3495458504073063 0.032040557829393634 0.51503808176128008 0 -0.85716729658548041 0.4285836482927402 0 0.25751904088064004 1 I I -0.70710678118654746 0.70710678118654746 0.5 forward I I I I #
loop $-1 $-1 $162 $42 #
coedge $-1 $101 $101 $163 $164 reversed $64 $-1 #
face $-1 $165 $166 $34 $-1 $167 reversed single #
loop $-1 $-1 $168 $66 #
plane-surface $-1 -40.800805688650172 10.22707326136025 0.037190969572250765 -0.51503808176128008 0 0.85716729658548041 0.85716729658548041 0 0.51503808176128008 forward_v I I I I #
coedge $-1 $169 $170 $171 $172 reversed $67 $-1 #
face $-1 $-1 $173 $35 $-1 $174 forward single #
loop $-1 $175 $176 $69 #
cone-surface $-1 -35.611629968243712 10.22707326136025 0.032040557829393634 0.51503808176128008 0 -0.85716729658548041 0.4285836482927402 0 0.25751904088064004 1 I I -0.70710678118654746 0.70710678118654746 0.5 forward I I I I #
loop $-1 $-1 $177 $44 #
coedge $-1 $110 $110 $178 $179 reversed $70 $-1 #
face $-1 $180 $181 $27 $-1 $182 reversed single #
loop $-1 $-1 $183 $72 #
plane-surface $-1 0 -21.779065891246479 0 0 1 0 0 0 1 forward_v I I I I #
coedge $-1 $184 $185 $186 $187 forward $73 $-1 #
coedge $-1 $188 $75 $189 $190 forward $46 $-1 #
coedge $-1 $75 $188 $191 $192 forward $46 $-1 #
coedge $-1 $193 $194 $75 $118 reversed $195 $-1 #
edge $-1 $196 -21.779065891246479 $197 21.779065891246479 $117 $198 forward 7 unknown #
face $-1 $199 $200 $28 $-1 $201 reversed single #
loop $-1 $-1 $202 $76 #
plane-surface $-1 0 0 -4.6162287798054464 0 0 1 1 0 0 forward_v I I I I #
coedge $-1 $203 $204 $205 $206 reversed $77 $-1 #
coedge $-1 $207 $79 $204 $208 forward $49 $-1 #
coedge $-1 $79 $207 $209 $210 reversed $49 $-1 #
coedge $-1 $211 $205 $79 $126 forward $200 $-1 #
edge $-1 $212 8.5625884785480917 $213 11.665181101314955 $125 $214 forward 7 unknown #
face $-1 $215 $216 $29 $-1 $217 reversed single #
loop $-1 $-1 $218 $80 #
plane-surface $-1 0 24.641906803458188 0.11844369383118014 0 0 1 1 0 0 forward_v I I I I #
coedge $-1 $219 $220 $132 $221 forward $81 $-1 #
coedge $-1 $222 $83 $223 $224 reversed $52 $-1 #
coedge $-1 $83 $222 $130 $221 reversed $52 $-1 #
coedge $-1 $225 $226 $83 $134 reversed $216 $-1 #
edge $-1 $227 -40.800805688650165 $228 40.800805688650165 $133 $229 forward 7 unknown #
face $-1 $230 $231 $30 $-1 $232 reversed single #
loop $-1 $-1 $233 $84 #
plane-surface $-1 -82.828743081044379 -9.2541519361272684 69.983423590871752 0 -1 0 0.51503808176128008 0 -0.85716729658548041 forward_v I I I I #
coedge $-1 $234 $235 $236 $237 reversed $85 $-1 #
coedge $-1 $140 $87 $238 $239 reversed $55 $-1 #
coedge $-1 $87 $139 $234 $240 reversed $55 $-1 #
coedge $-1 $236 $241 $87 $142 forward $242 $-1 #
edge $-1 $243 0.61356585187202484 $244 8.2343643903760579 $141 $245 forward 7 unknown #
loop $-1 $-1 $148 $88 #
plane-surface $-1 -40.800805688650172 -12.926164962174866 0.037190969572250765 -0.51503808176128008 0 0.85716729658548041 0.85716729658548041 0 0.51503808176128008 forward_v I I I I #
loop $-1 $-1 $246 $57 #
coedge $-1 $146 $146 $147 $247 reversed $89 $-1 #
coedge $-1 $147 $147 $146 $247 forward $91 $-1 #
coedge $-1 $148 $148 $92 $149 forward $143 $-1 #
edge $-1 $248 0 $248 6.2831853071796004 $148 $249 forward 7 unknown #
face $-1 $250 $251 $32 $-1 $252 forward single #
loop $-1 $-1 $253 $93 #
plane-surface $-1 -82.828743081044379 2.3224671756402904 69.983423590871752 0 -1 0 0.51503808176128008 0 -0.85716729658548041 forward_v I I I I #
coedge $-1 $254 $255 $256 $257 reversed $94 $-1 #
coedge $-1 $155 $96 $258 $259 reversed $61 $-1 #
coedge $-1 $96 $154 $254 $260 reversed $61 $-1 #
coedge $-1 $256 $261 $96 $157 forward $251 $-1 #
edge $-1 $262 0.61356585187202484 $263 8.2343643903760579 $156 $264 forward 7 unknown #
loop $-1 $-1 $163 $97 #
plane-surface $-1 -40.800805688650172 -1.3495458504073063 0.037190969572250765 -0.51503808176128008 0 0.85716729658548041 0.85716729658548041 0 0.51503808176128008 forward_v I I I I #
loop $-1 $-1 $265 $63 #
coedge $-1 $161 $161 $162 $266 reversed $98 $-1 #
coedge $-1 $162 $162 $161 $266 forward $100 $-1 #
coedge $-1 $163 $163 $101 $164 forward $158 $-1 #
edge $-1 $267 0 $267 6.2831853071796004 $163 $268 forward 7 unknown #
face $-1 $269 $270 $34 $-1 $271 forward single #
loop $-1 $-1 $272 $102 #
plane-surface $-1 -82.828743081044379 13.899086287407847 69.983423590871752 0 -1 0 0.51503808176128008 0 -0.85716729658548041 forward_v I I I I #
coedge $-1 $273 $274 $275 $276 reversed $103 $-1 #
coedge $-1 $170 $105 $277 $278 reversed $67 $-1 #
coedge $-1 $105 $169 $273 $279 reversed $67 $-1 #
coedge $-1 $275 $280 $105 $172 forward $270 $-1 #
edge $-1 $281 0.61356585187202484 $282 8.2343643903760579 $171 $283 forward 7 unknown #
loop $-1 $-1 $178 $106 #
plane-surface $-1 -40.800805688650172 10.22707326136025 0.037190969572250765 -0.51503808176128008 0 0.85716729658548041 0.85716729658548041 0 0.51503808176128008 forward_v I I I I #
loop $-1 $-1 $284 $69 #
coedge $-1 $176 $176 $177 $285 reversed $107 $-1 #
coedge $-1 $177 $177 $176 $285 forward $109 $-1 #
coedge $-1 $178 $178 $110 $179 forward $173 $-1 #
edge $-1 $286 0 $286 6.2831853071796004 $178 $287 forward 7 unknown #
face $-1 $288 $289 $27 $-1 $290 reversed single #
loop $-1 $-1 $291 $111 #
plane-surface $-1 -40.800805688650165 0 0 1 0 0 0 0 -1 forward_v I I I I #
coedge $-1 $292 $191 $293 $294 forward $112 $-1 #
coedge $-1 $295 $114 $292 $296 forward $73 $-1 #
coedge $-1 $114 $295 $297 $298 forward $73 $-1 #
coedge $-1 $194 $193 $114 $187 reversed $195 $-1 #
edge $-1 $299 -21.779065891246479 $300 21.779065891246479 $186 $301 forward 7 unknown #
coedge $-1 $116 $115 $302 $303 forward $46 $-1 #
coedge $-1 $304 $305 $115 $190 reversed $289 $-1 #
edge $-1 $197 -40.800805688650165 $306 40.800805688650165 $189 $307 forward 7 unknown #
coedge $-1 $183 $308 $116 $192 reversed $112 $-1 #
edge $-1 $309 -40.800805688650165 $196 40.800805688650165 $191 $310 forward 7 unknown #
coedge $-1 $186 $117 $308 $311 forward $195 $-1 #
coedge $-1 $117 $186 $304 $312 reversed $195 $-1 #
loop $-1 $-1 $193 $288 #
vertex $-1 $118 $313 #
vertex $-1 $118 $314 #
straight-curve $-1 40.800805688650165 0 4.6162287798054464 0 1 0 I I #
face $-1 $315 $316 $28 $-1 $317 reversed single #
loop $-1 $-1 $205 $119 #
plane-surface $-1 40.800805688650165 0 0 -1 0 0 0 0 1 forward_v I I I I #
coedge $-1 $318 $319 $203 $320 forward $120 $-1 #
coedge $-1 $321 $122 $202 $320 reversed $77 $-1 #
coedge $-1 $122 $321 $123 $208 reversed $77 $-1 #
coedge $-1 $125 $322 $122 $206 forward $200 $-1 #
edge $-1 $323 -3.0581143899027232 $212 -0.058114389902723218 $205 $324 forward 7 unknown #
coedge $-1 $124 $123 $325 $326 reversed $49 $-1 #
edge $-1 $212 -40.800805688650165 $327 40.800805688650165 $204 $328 forward 7 unknown #
coedge $-1 $329 $330 $124 $210 forward $316 $-1 #
edge $-1 $213 -40.800805688650165 $331 40.800805688650165 $209 $332 forward 7 unknown #
coedge $-1 $322 $125 $330 $333 forward $200 $-1 #
vertex $-1 $126 $334 #
vertex $-1 $333 $335 #
straight-curve $-1 40.800805688650165 -10.113884789931523 -1.6162287798054464 0 -1 0 I I #
face $-1 $336 $337 $29 $-1 $338 reversed single #
loop $-1 $-1 $226 $127 #
plane-surface $-1 0 24.641906803458188 -2.8815563061688199 0 0 1 1 0 0 forward_v I I I I #
coedge $-1 $339 $340 $341 $342 forward $128 $-1 #
coedge $-1 $343 $130 $344 $345 reversed $81 $-1 #
coedge $-1 $130 $343 $225 $346 reversed $81 $-1 #
edge $-1 $227 -2.8815563061688199 $347 0.11844369383118014 $130 $348 forward 7 unknown #
coedge $-1 $132 $131 $340 $349 forward $52 $-1 #
coedge $-1 $350 $341 $131 $224 forward $351 $-1 #
edge $-1 $352 -0.11844369383118014 $228 2.8815563061688199 $223 $353 forward 7 unknown #
coedge $-1 $354 $133 $220 $346 forward $216 $-1 #
coedge $-1 $133 $354 $350 $355 forward $216 $-1 #
vertex $-1 $221 $356 #
vertex $-1 $224 $357 #
straight-curve $-1 0 21.779065891246479 -2.8815563061688199 1 0 0 I I #
face $-1 $-1 $242 $30 $-1 $358 forward single #
loop $-1 $-1 $359 $135 #
plane-surface $-1 -40.800805688650165 0 0 1 0 0 0 0 -1 forward_v I I I I #
coedge $-1 $360 $361 $362 $363 reversed $136 $-1 #
coedge $-1 $364 $138 $140 $240 forward $85 $-1 #
coedge $-1 $138 $364 $360 $365 forward $85 $-1 #
coedge $-1 $362 $141 $138 $237 forward $242 $-1 #
edge $-1 $244 -10.135095507135031 $366 -2.7910694550398354 $236 $367 forward 7 unknown #
coedge $-1 $368 $369 $139 $239 forward $231 $-1 #
edge $-1 $370 -34.954520825863618 $243 -30.375483015630429 $238 $371 forward 7 unknown #
edge $-1 $244 -8.8906781311669665 $370 -8.2884236417746168e-015 $140 $372 forward 7 unknown #
coedge $-1 $141 $362 $368 $373 forward $242 $-1 #
loop $-1 $-1 $362 $230 #
vertex $-1 $239 $374 #
vertex $-1 $142 $375 #
straight-curve $-1 -41.41437154052219 -16.598177988222464 4.6162287798054464 1 0 0 I I #
coedge $-1 $246 $246 $-1 $376 reversed $145 $-1 #
edge $-1 $377 0 $377 6.2831853071796004 $146 $378 forward 7 unknown #
vertex $-1 $149 $379 #
ellipse-curve $-1 -36.990406419398141 -12.926164962174866 2.3267098746888557 -0.51503808176128008 0 0.85716729658548041 0.85716729658548041 0 0.51503808176128008 1 I I #
face $-1 $-1 $380 $32 $-1 $381 reversed single #
loop $-1 $-1 $156 $150 #
plane-surface $-1 0 0 4.6162287798054464 0 0 1 1 0 0 forward_v I I I I #
coedge $-1 $382 $383 $384 $385 reversed $151 $-1 #
coedge $-1 $386 $153 $155 $260 forward $94 $-1 #
coedge $-1 $153 $386 $382 $387 forward $94 $-1 #
coedge $-1 $384 $156 $153 $257 forward $251 $-1 #
edge $-1 $263 -4.3467859512512499 $388 2.9972401008439435 $256 $389 forward 7 unknown #
coedge $-1 $390 $391 $154 $259 forward $380 $-1 #
edge $-1 $392 -34.954520825863618 $262 -30.375483015630429 $258 $393 forward 7 unknown #
edge $-1 $263 -8.8906781311669665 $392 -8.2884236417746168e-015 $155 $394 forward 7 unknown #
coedge $-1 $156 $384 $390 $395 forward $251 $-1 #
vertex $-1 $157 $396 #
vertex $-1 $157 $397 #
straight-curve $-1 -41.41437154052219 -5.0215588764549031 4.6162287798054464 1 0 0 I I #
coedge $-1 $265 $265 $-1 $398 reversed $160 $-1 #
edge $-1 $399 0 $399 6.2831853071796004 $161 $400 forward 7 unknown #
vertex $-1 $164 $401 #
ellipse-curve $-1 -36.990406419398141 -1.3495458504073063 2.3267098746888557 -0.51503808176128008 0 0.85716729658548041 0.85716729658548041 0 0.51503808176128008 1 I I #
face $-1 $-1 $402 $34 $-1 $403 reversed single #
loop $-1 $-1 $171 $165 #
plane-surface $-1 0 0 4.6162287798054464 0 0 1 1 0 0 forward_v I I I I #
coedge $-1 $404 $405 $406 $407 reversed $166 $-1 #
coedge $-1 $408 $168 $170 $279 forward $103 $-1 #
coedge $-1 $168 $408 $404 $409 forward $103 $-1 #
coedge $-1 $406 $171 $168 $276 forward $270 $-1 #
edge $-1 $282 1.4415236046325282 $410 8.7855496567277225 $275 $411 forward 7 unknown #
coedge $-1 $412 $413 $169 $278 forward $402 $-1 #
edge $-1 $414 -34.954520825863618 $281 -30.375483015630429 $277 $415 forward 7 unknown #
edge $-1 $282 -8.8906781311669665 $414 -8.2884236417746168e-015 $170 $416 forward 7 unknown #
coedge $-1 $171 $406 $412 $417 forward $270 $-1 #
vertex $-1 $172 $418 #
vertex $-1 $172 $419 #
straight-curve $-1 -41.41437154052219 6.555060235312653 4.6162287798054464 1 0 0 I I #
coedge $-1 $284 $284 $-1 $420 reversed $175 $-1 #
edge $-1 $421 0 $421 6.2831853071796004 $176 $422 forward 7 unknown #
vertex $-1 $179 $423 #
ellipse-curve $-1 -36.990406419398141 10.22707326136025 2.3267098746888557 -0.51503808176128008 0 0.85716729658548041 0.85716729658548041 0 0.51503808176128008 1 I I #
face $-1 $-1 $195 $27 $-1 $424 reversed single #
loop $-1 $-1 $304 $180 #
plane-surface $-1 0 21.779065891246479 0 0 -1 0 0 0 -1 forward_v I I I I #
coedge $-1 $425 $302 $305 $426 forward $181 $-1 #
coedge $-1 $308 $183 $184 $296 reversed $112 $-1 #
coedge $-1 $302 $425 $183 $294 reversed $181 $-1 #
edge $-1 $309 -4.6162287798054464 $427 4.6162287798054464 $293 $428 forward 7 unknown #
coedge $-1 $185 $184 $425 $429 forward $73 $-1 #
edge $-1 $300 -40.800805688650165 $427 40.800805688650165 $292 $430 forward 7 unknown #
coedge $-1 $305 $304 $185 $298 reversed $289 $-1 #
edge $-1 $431 -40.800805688650165 $299 40.800805688650165 $297 $432 forward 7 unknown #
vertex $-1 $187 $433 #
vertex $-1 $311 $434 #
straight-curve $-1 40.800805688650165 0 -4.6162287798054464 0 -1 0 I I #
coedge $-1 $291 $293 $188 $303 reversed $181 $-1 #
edge $-1 $306 -21.779065891246479 $309 21.779065891246479 $302 $435 forward 7 unknown #
coedge $-1 $297 $189 $194 $312 forward $289 $-1 #
coedge $-1 $189 $297 $291 $426 reversed $289 $-1 #
vertex $-1 $190 $436 #
straight-curve $-1 0 21.779065891246479 4.6162287798054464 -1 0 0 I I #
coedge $-1 $191 $292 $193 $311 reversed $112 $-1 #
vertex $-1 $303 $437 #
straight-curve $-1 0 -21.779065891246479 4.6162287798054464 1 0 0 I I #
edge $-1 $196 -4.6162287798054464 $300 4.6162287798054464 $193 $438 forward 7 unknown #
edge $-1 $197 -4.6162287798054464 $299 4.6162287798054464 $194 $439 forward 7 unknown #
point $-1 40.800805688650165 -21.779065891246479 4.6162287798054464 #
point $-1 40.800805688650165 21.779065891246479 4.6162287798054464 #
face $-1 $-1 $440 $28 $-1 $441 reversed single #
loop $-1 $-1 $209 $199 #
plane-surface $-1 0 -21.779065891246479 0 0 1 0 0 0 1 forward_v I I I I #
coedge $-1 $442 $202 $322 $443 forward $120 $-1 #
coedge $-1 $202 $442 $444 $445 forward $120 $-1 #
edge $-1 $446 -40.800805688650165 $323 40.800805688650165 $202 $447 forward 7 unknown #
coedge $-1 $204 $203 $448 $449 reversed $77 $-1 #
coedge $-1 $205 $211 $318 $443 reversed $200 $-1 #
vertex $-1 $443 $450 #
straight-curve $-1 40.800805688650165 -18.676473268479615 -1.5581143899027232 0 0 1 I I #
coedge $-1 $448 $451 $207 $326 forward $440 $-1 #
edge $-1 $331 -11.665181101314955 $327 -8.5625884785480917 $325 $452 forward 7 unknown #
vertex $-1 $326 $453 #
straight-curve $-1 0 -18.676473268479615 -1.6162287798054464 -1 0 0 I I #
coedge $-1 $454 $209 $451 $455 forward $316 $-1 #
coedge $-1 $209 $454 $211 $333 reversed $316 $-1 #
vertex $-1 $455 $456 #
straight-curve $-1 0 -21.779065891246479 -1.6162287798054464 -1 0 0 I I #
edge $-1 $213 1.6162287798054464 $457 4.6162287798054464 $211 $458 forward 7 unknown #
point $-1 40.800805688650165 -18.676473268479615 -1.6162287798054464 #
point $-1 40.800805688650165 -21.779065891246479 -1.6162287798054464 #
face $-1 $-1 $351 $29 $-1 $459 reversed single #
loop $-1 $-1 $460 $215 #
plane-surface $-1 0 27.504747715669897 -1.3815563061688199 0 -1 0 0 0 -1 forward_v I I I I #
coedge $-1 $344 $218 $461 $462 forward $128 $-1 #
coedge $-1 $218 $344 $222 $349 reversed $128 $-1 #
coedge $-1 $223 $463 $218 $342 reversed $351 $-1 #
edge $-1 $352 -2.8628409122117091 $464 2.8628409122117091 $341 $465 forward 7 unknown #
coedge $-1 $220 $219 $466 $467 forward $81 $-1 #
coedge $-1 $340 $339 $219 $345 forward $128 $-1 #
edge $-1 $468 -2.8628409122117091 $347 2.8628409122117091 $219 $469 forward 7 unknown #
edge $-1 $227 -2.8628409122117091 $470 2.8628409122117091 $220 $471 forward 7 unknown #
vertex $-1 $345 $472 #
straight-curve $-1 -40.800805688650165 21.779065891246479 0 0 0 1 I I #
edge $-1 $352 -40.800805688650165 $347 40.800805688650165 $340 $473 forward 7 unknown #
coedge $-1 $463 $223 $226 $355 reversed $351 $-1 #
loop $-1 $-1 $223 $336 #
vertex $-1 $224 $474 #
straight-curve $-1 40.800805688650165 21.779065891246479 0 0 0 -1 I I #
coedge $-1 $226 $225 $475 $476 forward $216 $-1 #
edge $-1 $477 -2.8628409122117091 $228 2.8628409122117091 $350 $478 forward 7 unknown #
point $-1 -40.800805688650165 21.779065891246479 -2.8815563061688199 #
point $-1 40.800805688650165 21.779065891246479 -2.8815563061688199 #
plane-surface $-1 0 0 4.6162287798054464 0 0 1 1 0 0 forward_v I I I I #
coedge $-1 $369 $368 $361 $479 forward $231 $-1 #
coedge $-1 $361 $233 $235 $365 reversed $136 $-1 #
coedge $-1 $233 $360 $359 $479 reversed $136 $-1 #
coedge $-1 $241 $236 $233 $363 forward $242 $-1 #
edge $-1 $366 -8.2343643903760579 $480 -0.61356585187202484 $362 $481 forward 7 unknown #
coedge $-1 $235 $234 $369 $482 reversed $85 $-1 #
edge $-1 $483 8.2884236417746168e-015 $366 8.8906781311669665 $360 $484 forward 7 unknown #
vertex $-1 $237 $485 #
straight-curve $-1 -33.180007150146139 -6.463082481087433 4.6162287798054464 0 1 0 I I #
coedge $-1 $359 $238 $241 $373 reversed $231 $-1 #
coedge $-1 $238 $359 $364 $482 forward $231 $-1 #
vertex $-1 $239 $486 #
straight-curve $-1 -40.800805688650165 -16.598177988222464 34.991711795435876 0 0 1 I I #
straight-curve $-1 -40.800805688650172 -16.598177988222464 0.037190969572250765 -0.85716729658548041 0 -0.51503808176128008 I I #
edge $-1 $480 9.2541519361272684 $243 16.598177988222464 $368 $487 forward 7 unknown #
point $-1 -40.800805688650165 -16.598177988222464 4.6162287798054464 #
point $-1 -33.180007150146132 -16.598177988222464 4.6162287798054464 #
edge $-1 $488 1 $488 0 $246 $-1 forward 7 unknown #
vertex $-1 $247 $489 #
ellipse-curve $-1 -35.869149009124349 -12.926164962174866 0.46062420612213384 -0.51503808176128008 0 0.85716729658548041 0.85716729658548041 0 0.51503808176128008 1 I I #
point $-1 -36.133239122812654 -12.926164962174866 2.8417479564501198 #
loop $-1 $-1 $258 $250 #
plane-surface $-1 -40.800805688650165 0 0 1 0 0 0 0 -1 forward_v I I I I #
coedge $-1 $383 $253 $255 $387 reversed $151 $-1 #
coedge $-1 $253 $382 $490 $491 reversed $151 $-1 #
coedge $-1 $261 $256 $253 $385 forward $251 $-1 #
edge $-1 $388 -8.2343643903760579 $492 -0.61356585187202484 $384 $493 forward 7 unknown #
coedge $-1 $255 $254 $391 $494 reversed $94 $-1 #
edge $-1 $495 8.2884236417746168e-015 $388 8.8906781311669665 $382 $496 forward 7 unknown #
vertex $-1 $257 $497 #
straight-curve $-1 -33.180007150146139 -0.67477292520365317 4.6162287798054464 0 1 0 I I #
coedge $-1 $490 $258 $261 $395 reversed $380 $-1 #
coedge $-1 $258 $490 $386 $494 forward $380 $-1 #
vertex $-1 $259 $498 #
straight-curve $-1 -40.800805688650165 -5.0215588764549031 34.991711795435876 0 0 1 I I #
straight-curve $-1 -40.800805688650172 -5.0215588764549031 0.037190969572250765 -0.85716729658548041 0 -0.51503808176128008 I I #
edge $-1 $492 -2.3224671756402904 $262 5.0215588764549031 $390 $499 forward 7 unknown #
point $-1 -40.800805688650165 -5.0215588764549031 4.6162287798054464 #
point $-1 -33.180007150146132 -5.0215588764549031 4.6162287798054464 #
edge $-1 $500 1 $500 0 $265 $-1 forward 7 unknown #
vertex $-1 $266 $501 #
ellipse-curve $-1 -35.869149009124349 -1.3495458504073063 0.46062420612213384 -0.51503808176128008 0 0.85716729658548041 0.85716729658548041 0 0.51503808176128008 1 I I #
point $-1 -36.133239122812654 -1.3495458504073063 2.8417479564501198 #
loop $-1 $-1 $277 $269 #
plane-surface $-1 -40.800805688650165 0 0 1 0 0 0 0 -1 forward_v I I I I #
coedge $-1 $405 $272 $274 $409 reversed $166 $-1 #
coedge $-1 $272 $404 $502 $503 reversed $166 $-1 #
coedge $-1 $280 $275 $272 $407 forward $270 $-1 #
edge $-1 $410 -8.2343643903760579 $504 -0.61356585187202484 $406 $505 forward 7 unknown #
coedge $-1 $274 $273 $413 $506 reversed $103 $-1 #
edge $-1 $507 8.2884236417746168e-015 $410 8.8906781311669665 $404 $508 forward 7 unknown #
vertex $-1 $276 $509 #
straight-curve $-1 -33.180007150146139 5.1135366306801249 4.6162287798054464 0 1 0 I I #
coedge $-1 $502 $277 $280 $417 reversed $402 $-1 #
coedge $-1 $277 $502 $408 $506 forward $402 $-1 #
vertex $-1 $278 $510 #
straight-curve $-1 -40.800805688650165 6.555060235312653 34.991711795435876 0 0 1 I I #
straight-curve $-1 -40.800805688650172 6.555060235312653 0.037190969572250765 -0.85716729658548041 0 -0.51503808176128008 I I #
edge $-1 $504 -13.899086287407847 $281 -6.555060235312653 $412 $511 forward 7 unknown #
point $-1 -40.800805688650165 6.555060235312653 4.6162287798054464 #
point $-1 -33.180007150146132 6.555060235312653 4.6162287798054464 #
edge $-1 $512 1 $512 0 $284 $-1 forward 7 unknown #
vertex $-1 $285 $513 #
ellipse-curve $-1 -35.869149009124349 10.22707326136025 0.46062420612213384 -0.51503808176128008 0 0.85716729658548041 0.85716729658548041 0 0.51503808176128008 1 I I #
point $-1 -36.133239122812654 10.22707326136025 2.8417479564501198 #
plane-surface $-1 40.800805688650165 0 0 -1 0 0 0 0 1 forward_v I I I I #
coedge $-1 $293 $291 $295 $429 reversed $181 $-1 #
edge $-1 $306 -4.6162287798054464 $431 4.6162287798054464 $305 $514 forward 7 unknown #
vertex $-1 $429 $515 #
straight-curve $-1 -40.800805688650165 -21.779065891246479 0 0 0 -1 I I #
edge $-1 $427 -21.779065891246479 $431 21.779065891246479 $425 $516 forward 7 unknown #
straight-curve $-1 0 -21.779065891246479 -4.6162287798054464 -1 0 0 I I #
vertex $-1 $298 $517 #
straight-curve $-1 0 21.779065891246479 -4.6162287798054464 1 0 0 I I #
point $-1 40.800805688650165 21.779065891246479 -4.6162287798054464 #
point $-1 40.800805688650165 -21.779065891246479 -4.6162287798054464 #
straight-curve $-1 -40.800805688650165 0 4.6162287798054464 0 -1 0 I I #
point $-1 -40.800805688650165 21.779065891246479 4.6162287798054464 #
point $-1 -40.800805688650165 -21.779065891246479 4.6162287798054464 #
straight-curve $-1 40.800805688650165 -21.779065891246479 0 0 0 -1 I I #
straight-curve $-1 40.800805688650165 21.779065891246479 0 0 0 -1 I I #
loop $-1 $-1 $448 $315 #
plane-surface $-1 -40.800805688650165 0 0 1 0 0 0 0 -1 forward_v I I I I #
coedge $-1 $319 $318 $454 $518 forward $120 $-1 #
edge $-1 $323 18.676473268479615 $457 21.779065891246479 $322 $519 forward 7 unknown #
coedge $-1 $451 $448 $319 $445 reversed $440 $-1 #
edge $-1 $520 -21.779065891246479 $446 -18.676473268479615 $444 $521 forward 7 unknown #
vertex $-1 $449 $522 #
straight-curve $-1 0 -18.676473268479615 -4.6162287798054464 1 0 0 I I #
coedge $-1 $444 $325 $321 $449 forward $440 $-1 #
edge $-1 $327 0.058114389902723218 $446 3.0581143899027232 $448 $523 forward 7 unknown #
point $-1 40.800805688650165 -18.676473268479615 -4.6162287798054464 #
coedge $-1 $325 $444 $329 $455 reversed $440 $-1 #
straight-curve $-1 -40.800805688650165 -10.113884789931523 -1.6162287798054464 0 1 0 I I #
point $-1 -40.800805688650165 -18.676473268479615 -1.6162287798054464 #
coedge $-1 $330 $329 $442 $518 reversed $316 $-1 #
edge $-1 $331 1.6162287798054464 $520 4.6162287798054464 $451 $524 forward 7 unknown #
point $-1 -40.800805688650165 -21.779065891246479 -1.6162287798054464 #
vertex $-1 $333 $525 #
straight-curve $-1 40.800805688650165 -21.779065891246479 0 0 0 -1 I I #
plane-surface $-1 40.800805688650165 0 0 -1 0 0 0 0 1 forward_v I I I I #
coedge $-1 $475 $461 $463 $526 forward $337 $-1 #
coedge $-1 $460 $466 $339 $462 reversed $337 $-1 #
edge $-1 $464 -40.800805688650165 $468 40.800805688650165 $461 $527 forward 7 unknown #
coedge $-1 $341 $350 $460 $526 reversed $351 $-1 #
vertex $-1 $342 $528 #
straight-curve $-1 40.800805688650165 24.641906803458188 0.11844369383118014 0 1 0 I I #
coedge $-1 $461 $475 $343 $467 reversed $337 $-1 #
edge $-1 $468 -1.5 $470 1.5 $466 $529 forward 7 unknown #
vertex $-1 $462 $530 #
straight-curve $-1 -40.800805688650165 24.641906803458188 0.11844369383118014 0 -1 0 I I #
vertex $-1 $476 $531 #
straight-curve $-1 -40.800805688650165 24.641906803458188 -2.8815563061688199 0 1 0 I I #
point $-1 -40.800805688650165 21.779065891246479 0.11844369383118014 #
straight-curve $-1 0 21.779065891246479 0.11844369383118014 -1 0 0 I I #
point $-1 40.800805688650165 21.779065891246479 0.11844369383118014 #
coedge $-1 $466 $460 $354 $476 reversed $337 $-1 #
edge $-1 $470 -40.800805688650165 $477 40.800805688650165 $475 $532 forward 7 unknown #
vertex $-1 $355 $533 #
straight-curve $-1 40.800805688650165 24.641906803458188 -2.8815563061688199 0 -1 0 I I #
edge $-1 $480 30.375483015630429 $483 34.954520825863618 $359 $534 forward 7 unknown #
vertex $-1 $373 $535 #
straight-curve $-1 -41.41437154052219 -9.2541519361272684 4.6162287798054464 -1 0 0 I I #
edge $-1 $483 2.7910694550398354 $370 10.135095507135031 $369 $536 forward 7 unknown #
vertex $-1 $482 $537 #
straight-curve $-1 -40.800805688650172 -9.2541519361272684 0.037190969572250765 0.85716729658548041 0 0.51503808176128008 I I #
point $-1 -33.180007150146132 -9.2541519361272684 4.6162287798054464 #
point $-1 -40.800805688650165 -16.598177988222464 0.037190969572255032 #
straight-curve $-1 -40.800805688650165 0 4.6162287798054464 0 -1 0 I I #
vertex $-1 $376 $538 #
point $-1 -35.011981712538869 -12.926164962174866 0.97566228788341391 #
coedge $-1 $391 $390 $383 $491 forward $380 $-1 #
edge $-1 $492 30.375483015630429 $495 34.954520825863618 $490 $539 forward 7 unknown #
vertex $-1 $395 $540 #
straight-curve $-1 -41.41437154052219 2.3224671756402904 4.6162287798054464 -1 0 0 I I #
edge $-1 $495 -2.9972401008439435 $392 4.3467859512512499 $391 $541 forward 7 unknown #
vertex $-1 $494 $542 #
straight-curve $-1 -40.800805688650172 2.3224671756402904 0.037190969572250765 0.85716729658548041 0 0.51503808176128008 I I #
point $-1 -33.180007150146132 2.3224671756402904 4.6162287798054464 #
point $-1 -40.800805688650165 -5.0215588764549031 0.037190969572255032 #
straight-curve $-1 -40.800805688650165 0 4.6162287798054464 0 -1 0 I I #
vertex $-1 $398 $543 #
point $-1 -35.011981712538869 -1.3495458504073063 0.97566228788341391 #
coedge $-1 $413 $412 $405 $503 forward $402 $-1 #
edge $-1 $504 30.375483015630429 $507 34.954520825863618 $502 $544 forward 7 unknown #
vertex $-1 $417 $545 #
straight-curve $-1 -41.41437154052219 13.899086287407847 4.6162287798054464 -1 0 0 I I #
edge $-1 $507 -8.7855496567277225 $414 -1.4415236046325282 $413 $546 forward 7 unknown #
vertex $-1 $506 $547 #
straight-curve $-1 -40.800805688650172 13.899086287407847 0.037190969572250765 0.85716729658548041 0 0.51503808176128008 I I #
point $-1 -33.180007150146132 13.899086287407847 4.6162287798054464 #
point $-1 -40.800805688650165 6.555060235312653 0.037190969572255032 #
straight-curve $-1 -40.800805688650165 0 4.6162287798054464 0 -1 0 I I #
vertex $-1 $420 $548 #
point $-1 -35.011981712538869 10.22707326136025 0.97566228788341391 #
straight-curve $-1 -40.800805688650165 21.779065891246479 0 0 0 -1 I I #
point $-1 -40.800805688650165 -21.779065891246479 -4.6162287798054464 #
straight-curve $-1 -40.800805688650165 0 -4.6162287798054464 0 1 0 I I #
point $-1 -40.800805688650165 21.779065891246479 -4.6162287798054464 #
edge $-1 $457 -40.800805688650165 $520 40.800805688650165 $454 $549 forward 7 unknown #
straight-curve $-1 40.800805688650165 0 -4.6162287798054464 0 -1 0 I I #
vertex $-1 $445 $550 #
straight-curve $-1 -40.800805688650165 0 -4.6162287798054464 0 1 0 I I #
point $-1 -40.800805688650165 -18.676473268479615 -4.6162287798054464 #
straight-curve $-1 -40.800805688650165 -18.676473268479615 -1.5581143899027232 0 0 -1 I I #
straight-curve $-1 -40.800805688650165 -21.779065891246479 0 0 0 -1 I I #
point $-1 40.800805688650165 -21.779065891246479 -4.6162287798054464 #
edge $-1 $464 -1.5 $477 1.5 $463 $551 forward 7 unknown #
straight-curve $-1 0 27.504747715669897 0.11844369383118014 -1 0 0 I I #
point $-1 40.800805688650165 27.504747715669897 0.11844369383118014 #
straight-curve $-1 -40.800805688650165 27.504747715669897 -1.3815563061688199 0 0 -1 I I #
point $-1 -40.800805688650165 27.504747715669897 0.11844369383118014 #
point $-1 -40.800805688650165 27.504747715669897 -2.8815563061688199 #
straight-curve $-1 0 27.504747715669897 -2.8815563061688199 1 0 0 I I #
point $-1 40.800805688650165 27.504747715669897 -2.8815563061688199 #
straight-curve $-1 -40.800805688650165 -9.2541519361272684 34.991711795435876 0 0 -1 I I #
point $-1 -40.800805688650165 -9.2541519361272684 4.6162287798054464 #
straight-curve $-1 -40.800805688650165 -6.463082481087433 0.037190969572256073 0 -1 0 I I #
point $-1 -40.800805688650165 -9.2541519361272684 0.037190969572255032 #
point $-1 -35.354110927363074 -12.926164962174866 -0.39654309046334657 #
straight-curve $-1 -40.800805688650165 2.3224671756402904 34.991711795435876 0 0 -1 I I #
point $-1 -40.800805688650165 2.3224671756402904 4.6162287798054464 #
straight-curve $-1 -40.800805688650165 -0.67477292520365317 0.037190969572256073 0 -1 0 I I #
point $-1 -40.800805688650165 2.3224671756402904 0.037190969572255032 #
point $-1 -35.354110927363074 -1.3495458504073063 -0.39654309046334657 #
straight-curve $-1 -40.800805688650165 13.899086287407847 34.991711795435876 0 0 -1 I I #
point $-1 -40.800805688650165 13.899086287407847 4.6162287798054464 #
straight-curve $-1 -40.800805688650165 5.1135366306801249 0.037190969572256073 0 -1 0 I I #
point $-1 -40.800805688650165 13.899086287407847 0.037190969572255032 #
point $-1 -35.354110927363074 10.22707326136025 -0.39654309046334657 #
straight-curve $-1 0 -21.779065891246479 -4.6162287798054464 -1 0 0 I I #
point $-1 -40.800805688650165 -21.779065891246479 -4.6162287798054464 #
straight-curve $-1 40.800805688650165 27.504747715669897 -1.3815563061688199 0 0 -1 I I #
End-of-ACIS-data 