500 0 8 0           
7 Unknown 11 ACIS 5.0 NT 24 Fri Mar 26 16:34:19 1999 
-1 9.9999999999999995e-007 1e-010 
body $-1 $8 $-1 $9 #
body $-1 $10 $-1 $11 #
body $-1 $12 $-1 $13 #
body $-1 $14 $-1 $15 #
body $-1 $16 $-1 $17 #
body $-1 $18 $-1 $19 #
body $-1 $20 $-1 $21 #
body $-1 $22 $-1 $23 #
lump $-1 $-1 $24 $0 #
transform $-1 1 0 0 0 1 0 0 0 1 49.084749900814842 22.396349598440278 8.2099671265793415 1 rotate no_reflect no_shear #
lump $-1 $-1 $25 $1 #
transform $-1 1 0 0 0 1 0 0 0 1 49.084749900814842 22.396349598440278 8.2099671265793415 1 rotate no_reflect no_shear #
lump $-1 $-1 $26 $2 #
transform $-1 1 0 0 0 1 0 0 0 1 49.084749900814842 22.396349598440278 8.2099671265793415 1 rotate no_reflect no_shear #
lump $-1 $-1 $27 $3 #
transform $-1 1 0 0 0 1 0 0 0 1 49.084749900814842 22.396349598440278 8.2099671265793415 1 rotate no_reflect no_shear #
lump $-1 $-1 $28 $4 #
transform $-1 1 0 0 0 1 0 0 0 1 49.084749900814842 22.396349598440278 8.2099671265793415 1 rotate no_reflect no_shear #
lump $-1 $-1 $29 $5 #
transform $-1 1 0 0 0 1 0 0 0 1 49.084749900814842 22.396349598440278 8.2099671265793415 1 rotate no_reflect no_shear #
lump $-1 $-1 $30 $6 #
transform $-1 1 0 0 0 1 0 0 0 1 49.084749900814842 22.396349598440278 8.2099671265793415 1 rotate no_reflect no_shear #
lump $-1 $-1 $31 $7 #
transform $-1 1 0 0 0 1 0 0 0 1 49.084749900814842 22.396349598440278 8.2099671265793415 1 rotate no_reflect no_shear #
shell $-1 $-1 $-1 $32 $-1 $8 #
shell $-1 $-1 $-1 $33 $-1 $10 #
shell $-1 $-1 $-1 $34 $-1 $12 #
shell $-1 $-1 $-1 $35 $-1 $14 #
shell $-1 $-1 $-1 $36 $-1 $16 #
shell $-1 $-1 $-1 $37 $-1 $18 #
shell $-1 $-1 $-1 $38 $-1 $20 #
shell $-1 $-1 $-1 $39 $-1 $22 #
face $-1 $40 $41 $24 $-1 $42 forward single #
face $-1 $43 $44 $25 $-1 $45 forward single #
face $-1 $46 $47 $26 $-1 $48 reversed single #
face $-1 $49 $50 $27 $-1 $51 forward single #
face $-1 $52 $53 $28 $-1 $54 forward single #
face $-1 $55 $56 $29 $-1 $57 reversed single #
face $-1 $58 $59 $30 $-1 $60 forward single #
face $-1 $61 $62 $31 $-1 $63 forward single #
face $-1 $64 $65 $24 $-1 $66 reversed single #
loop $-1 $-1 $67 $32 #
plane-surface $-1 0 0 8.2099671265793415 0 0 1 1 0 0 forward_v I I I I #
face $-1 $68 $69 $25 $-1 $70 forward single #
loop $-1 $-1 $71 $33 #
plane-surface $-1 -49.084749900814842 0 0 1 0 0 0 0 -1 forward_v I I I I #
face $-1 $72 $73 $26 $-1 $74 reversed single #
loop $-1 $-1 $75 $34 #
plane-surface $-1 11.109628872626661 -85.498488495641823 76.492964655861314 -1 0 0 0 -0.64278761758704617 0.76604443648966558 forward_v I I I I #
face $-1 $76 $77 $27 $-1 $78 forward single #
loop $-1 $79 $80 $35 #
cone-surface $-1 4.4709804742754713 -17.703143164473698 4.0708107647155627 0 0.64278761758704617 -0.76604443648966558 1 0 0 1 I I 0 1 1 forward I I I I #
face $-1 $81 $82 $28 $-1 $83 forward single #
loop $-1 $84 $85 $36 #
cone-surface $-1 8.4541695132861818 -17.703143164473698 4.0708107647155627 0 0.64278761758704617 -0.76604443648966558 1 0 0 1 I I 0 1 1 forward I I I I #
face $-1 $86 $87 $29 $-1 $88 reversed single #
loop $-1 $-1 $89 $37 #
plane-surface $-1 -40.417875883872533 56.58848224284381 103.92913637682429 1 0 0 0 -0.68199836817093118 -0.7313536940579346 forward_v I I I I #
face $-1 $90 $91 $30 $-1 $92 forward single #
loop $-1 $93 $94 $38 #
cone-surface $-1 -35.020290423602049 17.852072528302099 3.8336929043938244 0 -0.68199836817093118 -0.7313536940579346 2 0 0 1 I I 0 1 2 forward I I I I #
face $-1 $95 $96 $31 $-1 $97 forward single #
loop $-1 $98 $99 $39 #
cone-surface $-1 -26.923912233196326 17.852072528302099 3.8336929043938244 0 -0.68199836817093118 -0.7313536940579346 2 0 0 1 I I 0 1 2 forward I I I I #
face $-1 $100 $101 $24 $-1 $102 reversed single #
loop $-1 $-1 $103 $40 #
plane-surface $-1 0 0 -8.2099671265793415 0 0 1 1 0 0 forward_v I I I I #
coedge $-1 $104 $105 $106 $107 forward $41 $-1 #
face $-1 $108 $109 $25 $-1 $110 reversed single #
loop $-1 $-1 $111 $43 #
plane-surface $-1 0 0 8.2099671265793415 0 0 1 1 0 0 forward_v I I I I #
coedge $-1 $112 $113 $114 $115 forward $44 $-1 #
face $-1 $116 $117 $26 $-1 $118 reversed single #
loop $-1 $-1 $119 $46 #
plane-surface $-1 6.4625749937808337 -22.396349598440274 1.2907654998495701 0 -0.64278761758704617 0.76604443648966558 1 0 0 forward_v I I I I #
coedge $-1 $120 $121 $122 $123 reversed $47 $-1 #
face $-1 $-1 $124 $27 $-1 $125 forward single #
loop $-1 $126 $127 $49 #
cone-surface $-1 4.4709804742754713 -16.81153453362715 3.0082329979718327 0 0.64278761758704617 -0.76604443648966558 0.5 0 0 1 I I -0.70710678118654746 0.70710678118654746 0.5 forward I I I I #
loop $-1 $-1 $128 $35 #
coedge $-1 $80 $80 $129 $130 reversed $50 $-1 #
face $-1 $-1 $131 $28 $-1 $132 forward single #
loop $-1 $133 $134 $52 #
cone-surface $-1 8.4541695132861818 -16.81153453362715 3.0082329979718327 0 0.64278761758704617 -0.76604443648966558 0.5 0 0 1 I I -0.70710678118654746 0.70710678118654746 0.5 forward I I I I #
loop $-1 $-1 $135 $36 #
coedge $-1 $85 $85 $136 $137 reversed $53 $-1 #
face $-1 $138 $139 $29 $-1 $140 reversed single #
loop $-1 $-1 $141 $55 #
plane-surface $-1 -30.972101328399187 -10.362956426024184 32.13251005308274 0 0.68199836817093118 0.7313536940579346 1 0 0 forward_v I I I I #
coedge $-1 $142 $143 $144 $145 reversed $56 $-1 #
face $-1 $-1 $146 $30 $-1 $147 forward single #
loop $-1 $148 $149 $58 #
cone-surface $-1 -35.020290423602049 16.178557138037998 2.0390674040206367 0 -0.68199836817093118 -0.7313536940579346 1 0 0 1 I I -0.70710678118654746 0.70710678118654746 1 forward I I I I #
loop $-1 $-1 $150 $38 #
coedge $-1 $94 $94 $151 $152 reversed $59 $-1 #
face $-1 $-1 $153 $31 $-1 $154 forward single #
loop $-1 $155 $156 $61 #
cone-surface $-1 -26.923912233196326 16.178557138037998 2.0390674040206367 0 -0.68199836817093118 -0.7313536940579346 1 0 0 1 I I -0.70710678118654746 0.70710678118654746 1 forward I I I I #
loop $-1 $-1 $157 $39 #
coedge $-1 $99 $99 $158 $159 reversed $62 $-1 #
face $-1 $160 $161 $24 $-1 $162 reversed single #
loop $-1 $-1 $163 $64 #
plane-surface $-1 0 -22.396349598440278 0 0 1 0 0 0 1 forward_v I I I I #
coedge $-1 $164 $165 $166 $167 forward $65 $-1 #
coedge $-1 $168 $67 $169 $170 forward $41 $-1 #
coedge $-1 $67 $168 $171 $172 forward $41 $-1 #
coedge $-1 $173 $174 $67 $107 reversed $175 $-1 #
edge $-1 $176 -22.396349598440278 $177 22.396349598440278 $106 $178 forward 7 unknown #
face $-1 $179 $180 $25 $-1 $181 reversed single #
loop $-1 $-1 $182 $68 #
plane-surface $-1 -55.478331643112227 -20.896349598440278 0 1 0 0 0 0 -1 forward_v I I I I #
coedge $-1 $183 $184 $112 $185 forward $69 $-1 #
coedge $-1 $186 $71 $111 $185 reversed $44 $-1 #
coedge $-1 $71 $186 $187 $188 reversed $44 $-1 #
coedge $-1 $189 $190 $71 $115 reversed $180 $-1 #
edge $-1 $191 -8.2099671265793415 $192 8.2099671265793415 $114 $193 forward 7 unknown #
face $-1 $194 $195 $26 $-1 $196 forward single #
loop $-1 $-1 $197 $72 #
plane-surface $-1 1.8155211149350059 -85.498488495641823 76.492964655861314 1 0 0 0 0.64278761758704617 -0.76604443648966558 forward_v I I I I #
coedge $-1 $198 $199 $200 $201 reversed $73 $-1 #
coedge $-1 $121 $75 $202 $203 reversed $47 $-1 #
coedge $-1 $75 $120 $198 $204 reversed $47 $-1 #
coedge $-1 $200 $205 $75 $123 forward $195 $-1 #
edge $-1 $206 20.352894649380634 $207 28.598877873207758 $122 $208 forward 7 unknown #
loop $-1 $-1 $129 $76 #
plane-surface $-1 6.4625749937808337 -22.396349598440274 1.2907654998495701 0 -0.64278761758704617 0.76604443648966558 1 0 0 forward_v I I I I #
loop $-1 $-1 $209 $49 #
coedge $-1 $127 $127 $128 $210 reversed $77 $-1 #
coedge $-1 $128 $128 $127 $210 forward $79 $-1 #
coedge $-1 $129 $129 $80 $130 forward $124 $-1 #
edge $-1 $211 1.8457441750443118e-015 $211 6.2831853071796022 $129 $212 forward 7 unknown #
loop $-1 $-1 $136 $81 #
plane-surface $-1 6.4625749937808337 -22.396349598440274 1.2907654998495701 0 -0.64278761758704617 0.76604443648966558 1 0 0 forward_v I I I I #
loop $-1 $-1 $213 $52 #
coedge $-1 $134 $134 $135 $214 reversed $82 $-1 #
coedge $-1 $135 $135 $134 $214 forward $84 $-1 #
coedge $-1 $136 $136 $85 $137 forward $131 $-1 #
edge $-1 $215 1.8457441750443118e-015 $215 6.2831853071796022 $136 $216 forward 7 unknown #
face $-1 $217 $218 $29 $-1 $219 reversed single #
loop $-1 $-1 $220 $86 #
plane-surface $-1 -21.526326772925842 56.58848224284381 103.92913637682429 -1 0 0 0 0.68199836817093118 0.7313536940579346 forward_v I I I I #
coedge $-1 $221 $222 $223 $224 reversed $87 $-1 #
coedge $-1 $143 $89 $225 $226 reversed $56 $-1 #
coedge $-1 $89 $142 $221 $227 reversed $56 $-1 #
coedge $-1 $223 $228 $89 $145 forward $229 $-1 #
edge $-1 $230 5.8978915229816273 $231 13.003411619071638 $144 $232 forward 7 unknown #
loop $-1 $-1 $151 $90 #
plane-surface $-1 -30.972101328399187 -10.362956426024184 32.13251005308274 0 0.68199836817093118 0.7313536940579346 1 0 0 forward_v I I I I #
loop $-1 $-1 $233 $58 #
coedge $-1 $149 $149 $150 $234 reversed $91 $-1 #
coedge $-1 $150 $150 $149 $234 forward $93 $-1 #
coedge $-1 $151 $151 $94 $152 forward $146 $-1 #
edge $-1 $235 -8.6875424498074232e-016 $235 6.2831853071795996 $151 $236 forward 7 unknown #
loop $-1 $-1 $158 $95 #
plane-surface $-1 -30.972101328399187 -10.362956426024184 32.13251005308274 0 0.68199836817093118 0.7313536940579346 1 0 0 forward_v I I I I #
loop $-1 $-1 $237 $61 #
coedge $-1 $156 $156 $157 $238 reversed $96 $-1 #
coedge $-1 $157 $157 $156 $238 forward $98 $-1 #
coedge $-1 $158 $158 $99 $159 forward $153 $-1 #
edge $-1 $239 -8.6875424498074232e-016 $239 6.2831853071795996 $158 $240 forward 7 unknown #
face $-1 $241 $242 $24 $-1 $243 reversed single #
loop $-1 $-1 $244 $100 #
plane-surface $-1 -49.084749900814842 0 0 1 0 0 0 0 -1 forward_v I I I I #
coedge $-1 $245 $171 $246 $247 forward $101 $-1 #
coedge $-1 $248 $103 $245 $249 forward $65 $-1 #
coedge $-1 $103 $248 $250 $251 forward $65 $-1 #
coedge $-1 $174 $173 $103 $167 reversed $175 $-1 #
edge $-1 $252 -22.396349598440278 $253 22.396349598440278 $166 $254 forward 7 unknown #
coedge $-1 $105 $104 $255 $256 forward $41 $-1 #
coedge $-1 $257 $258 $104 $170 reversed $242 $-1 #
edge $-1 $177 -49.084749900814842 $259 49.084749900814842 $169 $260 forward 7 unknown #
coedge $-1 $163 $261 $105 $172 reversed $101 $-1 #
edge $-1 $262 -49.084749900814842 $176 49.084749900814842 $171 $263 forward 7 unknown #
coedge $-1 $166 $106 $261 $264 forward $175 $-1 #
coedge $-1 $106 $166 $257 $265 reversed $175 $-1 #
loop $-1 $-1 $173 $241 #
vertex $-1 $107 $266 #
vertex $-1 $107 $267 #
straight-curve $-1 49.084749900814842 0 8.2099671265793415 0 1 0 I I #
face $-1 $268 $269 $25 $-1 $270 reversed single #
loop $-1 $-1 $114 $108 #
plane-surface $-1 -52.281540771963535 -19.396349598440278 0 0 -1 0 0 0 -1 forward_v I I I I #
coedge $-1 $271 $272 $273 $274 forward $109 $-1 #
coedge $-1 $275 $111 $190 $276 forward $69 $-1 #
coedge $-1 $111 $275 $277 $278 forward $69 $-1 #
edge $-1 $279 -22.396349598440278 $192 -19.396349598440278 $111 $280 forward 7 unknown #
coedge $-1 $113 $112 $281 $282 reversed $44 $-1 #
coedge $-1 $283 $284 $113 $188 forward $269 $-1 #
edge $-1 $191 19.396349598440278 $285 22.396349598440278 $187 $286 forward 7 unknown #
coedge $-1 $273 $114 $284 $287 reversed $180 $-1 #
coedge $-1 $114 $273 $183 $276 reversed $180 $-1 #
vertex $-1 $188 $288 #
vertex $-1 $276 $289 #
straight-curve $-1 -49.084749900814842 -19.396349598440278 0 0 0 1 I I #
face $-1 $-1 $290 $26 $-1 $291 reversed single #
loop $-1 $-1 $122 $116 #
plane-surface $-1 0 0 8.2099671265793415 0 0 1 1 0 0 forward_v I I I I #
coedge $-1 $292 $293 $294 $295 reversed $117 $-1 #
coedge $-1 $296 $119 $121 $204 forward $73 $-1 #
coedge $-1 $119 $296 $292 $297 forward $73 $-1 #
coedge $-1 $294 $122 $119 $201 forward $195 $-1 #
edge $-1 $207 -7.8783413757362446 $298 1.4157663819554109 $200 $299 forward 7 unknown #
coedge $-1 $300 $301 $120 $203 forward $290 $-1 #
edge $-1 $302 -36.955716828081087 $206 -30.036515201351314 $202 $303 forward 7 unknown #
edge $-1 $207 -10.764366701249926 $302 4.5769943418574876e-015 $121 $304 forward 7 unknown #
coedge $-1 $122 $294 $300 $305 forward $195 $-1 #
vertex $-1 $123 $306 #
vertex $-1 $123 $307 #
straight-curve $-1 11.109628872626661 -42.749244247820911 8.2099671265793432 0 1 0 I I #
coedge $-1 $209 $209 $-1 $308 reversed $126 $-1 #
edge $-1 $309 0 $309 6.2831853071796004 $127 $310 forward 7 unknown #
vertex $-1 $130 $311 #
ellipse-curve $-1 4.4709804742754713 -18.273357986526719 4.7503663132144531 0 -0.64278761758704617 0.76604443648966558 1 0 0 1 I I #
coedge $-1 $213 $213 $-1 $312 reversed $133 $-1 #
edge $-1 $313 0 $313 6.2831853071796004 $134 $314 forward 7 unknown #
vertex $-1 $137 $315 #
ellipse-curve $-1 8.4541695132861818 -18.273357986526719 4.7503663132144531 0 -0.64278761758704617 0.76604443648966558 1 0 0 1 I I #
face $-1 $-1 $229 $29 $-1 $316 forward single #
loop $-1 $-1 $317 $138 #
plane-surface $-1 0 22.396349598440278 0 0 -1 0 0 0 -1 forward_v I I I I #
coedge $-1 $318 $319 $320 $321 reversed $139 $-1 #
coedge $-1 $322 $141 $143 $227 forward $87 $-1 #
coedge $-1 $141 $322 $318 $323 forward $87 $-1 #
coedge $-1 $320 $144 $141 $224 forward $229 $-1 #
edge $-1 $231 -24.931825219672938 $324 -6.040276108726248 $223 $325 forward 7 unknown #
coedge $-1 $326 $327 $142 $226 forward $218 $-1 #
edge $-1 $328 -50.380605893573318 $230 -43.754601061832801 $225 $329 forward 7 unknown #
edge $-1 $231 35.077126343662485 $328 44.792699196880548 $143 $330 forward 7 unknown #
coedge $-1 $144 $320 $326 $331 forward $229 $-1 #
loop $-1 $-1 $320 $217 #
vertex $-1 $226 $332 #
vertex $-1 $145 $333 #
straight-curve $-1 -40.417875883872533 28.294241121421905 8.2099671265793432 0 -1 0 I I #
coedge $-1 $233 $233 $-1 $334 reversed $148 $-1 #
edge $-1 $335 0 $335 6.2831853071796004 $149 $336 forward 7 unknown #
vertex $-1 $152 $337 #
ellipse-curve $-1 -35.020290423602049 18.843589550395276 4.8969647107090859 0 0.68199836817093118 0.7313536940579346 2 0 0 1 I I #
coedge $-1 $237 $237 $-1 $338 reversed $155 $-1 #
edge $-1 $339 0 $339 6.2831853071796004 $156 $340 forward 7 unknown #
vertex $-1 $159 $341 #
ellipse-curve $-1 -26.923912233196326 18.843589550395276 4.8969647107090859 0 0.68199836817093118 0.7313536940579346 2 0 0 1 I I #
face $-1 $-1 $175 $24 $-1 $342 reversed single #
loop $-1 $-1 $257 $160 #
plane-surface $-1 0 22.396349598440278 0 0 -1 0 0 0 -1 forward_v I I I I #
coedge $-1 $343 $255 $258 $344 forward $161 $-1 #
coedge $-1 $261 $163 $164 $249 reversed $101 $-1 #
coedge $-1 $255 $343 $163 $247 reversed $161 $-1 #
edge $-1 $262 -8.2099671265793415 $345 8.2099671265793415 $246 $346 forward 7 unknown #
coedge $-1 $165 $164 $343 $347 forward $65 $-1 #
edge $-1 $253 -49.084749900814842 $345 49.084749900814842 $245 $348 forward 7 unknown #
coedge $-1 $258 $257 $165 $251 reversed $242 $-1 #
edge $-1 $349 -49.084749900814842 $252 49.084749900814842 $250 $350 forward 7 unknown #
vertex $-1 $167 $351 #
vertex $-1 $264 $352 #
straight-curve $-1 49.084749900814842 0 -8.2099671265793415 0 -1 0 I I #
coedge $-1 $244 $246 $168 $256 reversed $161 $-1 #
edge $-1 $259 -22.396349598440278 $262 22.396349598440278 $255 $353 forward 7 unknown #
coedge $-1 $250 $169 $174 $265 forward $242 $-1 #
coedge $-1 $169 $250 $244 $344 reversed $242 $-1 #
vertex $-1 $170 $354 #
straight-curve $-1 0 22.396349598440278 8.2099671265793415 -1 0 0 I I #
coedge $-1 $171 $245 $173 $264 reversed $101 $-1 #
vertex $-1 $256 $355 #
straight-curve $-1 0 -22.396349598440278 8.2099671265793415 1 0 0 I I #
edge $-1 $176 -8.2099671265793415 $253 8.2099671265793415 $173 $356 forward 7 unknown #
edge $-1 $177 -8.2099671265793415 $252 8.2099671265793415 $174 $357 forward 7 unknown #
point $-1 49.084749900814842 -22.396349598440278 8.2099671265793415 #
point $-1 49.084749900814842 22.396349598440278 8.2099671265793415 #
face $-1 $-1 $358 $25 $-1 $359 reversed single #
loop $-1 $-1 $187 $179 #
plane-surface $-1 0 0 -8.2099671265793415 0 0 1 1 0 0 forward_v I I I I #
coedge $-1 $360 $182 $361 $362 reversed $109 $-1 #
coedge $-1 $182 $360 $275 $363 reversed $109 $-1 #
coedge $-1 $190 $189 $182 $274 reversed $180 $-1 #
edge $-1 $364 -8.2099671265793415 $365 8.2099671265793415 $273 $366 forward 7 unknown #
coedge $-1 $184 $183 $272 $363 forward $69 $-1 #
edge $-1 $192 -3.1967908711486928 $364 3.1967908711486928 $190 $367 forward 7 unknown #
coedge $-1 $368 $281 $184 $278 reversed $358 $-1 #
edge $-1 $369 -55.478331643112227 $279 -49.084749900814842 $277 $370 forward 7 unknown #
vertex $-1 $282 $371 #
straight-curve $-1 -49.084749900814842 0 8.2099671265793415 0 1 0 I I #
coedge $-1 $277 $372 $186 $282 forward $358 $-1 #
edge $-1 $285 -8.2099671265793415 $279 8.2099671265793415 $281 $373 forward 7 unknown #
coedge $-1 $361 $187 $372 $374 forward $269 $-1 #
coedge $-1 $187 $361 $189 $287 forward $269 $-1 #
vertex $-1 $374 $375 #
straight-curve $-1 -49.084749900814842 0 -8.2099671265793415 0 -1 0 I I #
edge $-1 $365 -3.1967908711486928 $191 3.1967908711486928 $189 $376 forward 7 unknown #
point $-1 -49.084749900814842 -19.396349598440278 -8.2099671265793415 #
point $-1 -49.084749900814842 -19.396349598440278 8.2099671265793415 #
loop $-1 $-1 $202 $194 #
plane-surface $-1 0 -22.396349598440278 0 0 1 0 0 0 1 forward_v I I I I #
coedge $-1 $293 $197 $199 $297 reversed $117 $-1 #
coedge $-1 $197 $292 $377 $378 reversed $117 $-1 #
coedge $-1 $205 $200 $197 $295 forward $195 $-1 #
edge $-1 $298 -28.598877873207758 $379 -20.352894649380634 $294 $380 forward 7 unknown #
coedge $-1 $199 $198 $301 $381 reversed $73 $-1 #
edge $-1 $382 -4.5769943418574876e-015 $298 10.764366701249926 $292 $383 forward 7 unknown #
vertex $-1 $201 $384 #
straight-curve $-1 3.2312874968904168 -14.150366374613155 8.2099671265793415 -1 0 0 I I #
coedge $-1 $377 $202 $205 $305 reversed $290 $-1 #
coedge $-1 $202 $377 $296 $381 forward $290 $-1 #
vertex $-1 $203 $385 #
straight-curve $-1 11.109628872626661 -22.396349598440278 38.246482327930657 0 0 1 I I #
straight-curve $-1 11.109628872626661 -22.396349598440274 1.2907654998495701 0 -0.76604443648966558 -0.64278761758704617 I I #
edge $-1 $379 1.8155211149350059 $206 11.109628872626661 $300 $386 forward 7 unknown #
point $-1 11.109628872626661 -22.396349598440278 8.2099671265793415 #
point $-1 11.109628872626661 -14.150366374613153 8.2099671265793415 #
edge $-1 $387 1 $387 0 $209 $-1 forward 7 unknown #
vertex $-1 $210 $388 #
ellipse-curve $-1 4.4709804742754713 -17.132928342420673 3.3912552162166656 0 -0.64278761758704617 0.76604443648966558 1 0 0 1 I I #
point $-1 5.4709804742754713 -18.273357986526722 4.7503663132144602 #
edge $-1 $389 1 $389 0 $213 $-1 forward 7 unknown #
vertex $-1 $214 $390 #
ellipse-curve $-1 8.4541695132861818 -17.132928342420673 3.3912552162166656 0 -0.64278761758704617 0.76604443648966558 1 0 0 1 I I #
point $-1 9.4541695132861818 -18.273357986526722 4.7503663132144602 #
plane-surface $-1 0 0 8.2099671265793415 0 0 1 1 0 0 forward_v I I I I #
coedge $-1 $327 $326 $319 $391 forward $218 $-1 #
coedge $-1 $319 $220 $222 $323 reversed $139 $-1 #
coedge $-1 $220 $318 $317 $391 reversed $139 $-1 #
coedge $-1 $228 $223 $220 $321 forward $229 $-1 #
edge $-1 $324 -13.003411619071638 $392 -5.8978915229816273 $320 $393 forward 7 unknown #
coedge $-1 $222 $221 $327 $394 reversed $87 $-1 #
edge $-1 $395 -44.792699196880548 $324 -35.077126343662485 $318 $396 forward 7 unknown #
vertex $-1 $224 $397 #
straight-curve $-1 -15.486050664199594 15.290829502350272 8.2099671265793397 1 0 0 I I #
coedge $-1 $317 $225 $228 $331 reversed $218 $-1 #
coedge $-1 $225 $317 $322 $394 forward $218 $-1 #
vertex $-1 $226 $398 #
straight-curve $-1 -40.417875883872533 22.396349598440278 51.964568188412144 0 0 1 I I #
straight-curve $-1 -40.417875883872533 -10.362956426024184 32.13251005308274 0 0.7313536940579346 -0.68199836817093118 I I #
edge $-1 $392 21.526326772925842 $230 40.417875883872533 $326 $399 forward 7 unknown #
point $-1 -40.417875883872533 22.396349598440278 8.2099671265793415 #
point $-1 -40.417875883872533 15.290829502350267 8.2099671265793432 #
edge $-1 $400 1 $400 0 $233 $-1 forward 7 unknown #
vertex $-1 $234 $401 #
ellipse-curve $-1 -35.020290423602049 16.860555506208929 2.7704210980785713 0 0.68199836817093118 0.7313536940579346 2 0 0 1 I I #
point $-1 -33.020290423602049 18.843589550395265 4.896964710709077 #
edge $-1 $402 1 $402 0 $237 $-1 forward 7 unknown #
vertex $-1 $238 $403 #
ellipse-curve $-1 -26.923912233196326 16.860555506208929 2.7704210980785713 0 0.68199836817093118 0.7313536940579346 2 0 0 1 I I #
point $-1 -24.923912233196326 18.843589550395265 4.896964710709077 #
plane-surface $-1 49.084749900814842 0 0 -1 0 0 0 0 1 forward_v I I I I #
coedge $-1 $246 $244 $248 $347 reversed $161 $-1 #
edge $-1 $259 -8.2099671265793415 $349 8.2099671265793415 $258 $404 forward 7 unknown #
vertex $-1 $347 $405 #
straight-curve $-1 -49.084749900814842 -22.396349598440278 0 0 0 -1 I I #
edge $-1 $345 -22.396349598440278 $349 22.396349598440278 $343 $406 forward 7 unknown #
straight-curve $-1 0 -22.396349598440278 -8.2099671265793415 -1 0 0 I I #
vertex $-1 $251 $407 #
straight-curve $-1 0 22.396349598440278 -8.2099671265793415 1 0 0 I I #
point $-1 49.084749900814842 22.396349598440278 -8.2099671265793415 #
point $-1 49.084749900814842 -22.396349598440278 -8.2099671265793415 #
straight-curve $-1 -49.084749900814842 0 8.2099671265793415 0 -1 0 I I #
point $-1 -49.084749900814842 22.396349598440278 8.2099671265793415 #
point $-1 -49.084749900814842 -22.396349598440278 8.2099671265793415 #
straight-curve $-1 49.084749900814842 -22.396349598440278 0 0 0 -1 I I #
straight-curve $-1 49.084749900814842 22.396349598440278 0 0 0 -1 I I #
loop $-1 $-1 $281 $268 #
plane-surface $-1 0 -22.396349598440278 0 0 1 0 0 0 1 forward_v I I I I #
coedge $-1 $272 $271 $368 $408 reversed $109 $-1 #
coedge $-1 $284 $283 $271 $362 forward $269 $-1 #
edge $-1 $409 -1.5 $365 1.5 $271 $410 forward 7 unknown #
edge $-1 $364 -1.5 $369 1.5 $272 $411 forward 7 unknown #
vertex $-1 $276 $412 #
vertex $-1 $287 $413 #
straight-curve $-1 -55.478331643112227 -19.396349598440278 0 0 0 -1 I I #
straight-curve $-1 -52.281540771963535 -19.396349598440278 8.2099671265793415 -1 0 0 I I #
coedge $-1 $372 $277 $360 $408 forward $358 $-1 #
vertex $-1 $363 $414 #
straight-curve $-1 0 -22.396349598440278 8.2099671265793415 1 0 0 I I #
point $-1 -49.084749900814842 -22.396349598440278 8.2099671265793415 #
coedge $-1 $281 $368 $283 $374 reversed $358 $-1 #
straight-curve $-1 -49.084749900814842 -22.396349598440278 0 0 0 1 I I #
edge $-1 $285 -3.1967908711486928 $409 3.1967908711486928 $372 $415 forward 7 unknown #
point $-1 -49.084749900814842 -22.396349598440278 -8.2099671265793415 #
straight-curve $-1 -52.281540771963535 -19.396349598440278 -8.2099671265793415 1 0 0 I I #
coedge $-1 $301 $300 $293 $378 forward $290 $-1 #
edge $-1 $379 30.036515201351314 $382 36.955716828081087 $377 $416 forward 7 unknown #
vertex $-1 $305 $417 #
straight-curve $-1 1.8155211149350059 -42.749244247820911 8.2099671265793432 0 -1 0 I I #
edge $-1 $382 -1.4157663819554109 $302 7.8783413757362446 $301 $418 forward 7 unknown #
vertex $-1 $381 $419 #
straight-curve $-1 1.8155211149350059 -22.396349598440274 1.2907654998495701 0 0.76604443648966558 0.64278761758704617 I I #
point $-1 1.8155211149350059 -14.150366374613153 8.2099671265793415 #
point $-1 11.109628872626661 -22.396349598440278 1.2907654998495672 #
straight-curve $-1 0 -22.396349598440278 8.2099671265793415 1 0 0 I I #
vertex $-1 $308 $420 #
point $-1 5.4709804742754713 -17.132928342420673 3.3912552162166656 #
vertex $-1 $312 $421 #
point $-1 9.4541695132861818 -17.132928342420673 3.3912552162166656 #
edge $-1 $392 43.754601061832801 $395 50.380605893573318 $317 $422 forward 7 unknown #
vertex $-1 $331 $423 #
straight-curve $-1 -21.526326772925842 28.294241121421905 8.2099671265793432 0 1 0 I I #
edge $-1 $395 6.040276108726248 $328 24.931825219672938 $327 $424 forward 7 unknown #
vertex $-1 $394 $425 #
straight-curve $-1 -21.526326772925842 -10.362956426024184 32.13251005308274 0 -0.7313536940579346 0.68199836817093118 I I #
point $-1 -21.526326772925842 15.290829502350267 8.2099671265793432 #
point $-1 -40.417875883872533 22.396349598440281 1.5839622948388303 #
straight-curve $-1 0 22.396349598440278 8.2099671265793415 -1 0 0 I I #
vertex $-1 $334 $426 #
point $-1 -33.020290423602049 16.860555506208929 2.7704210980785713 #
vertex $-1 $338 $427 #
point $-1 -24.923912233196326 16.860555506208929 2.7704210980785713 #
straight-curve $-1 -49.084749900814842 22.396349598440278 0 0 0 -1 I I #
point $-1 -49.084749900814842 -22.396349598440278 -8.2099671265793415 #
straight-curve $-1 -49.084749900814842 0 -8.2099671265793415 0 1 0 I I #
point $-1 -49.084749900814842 22.396349598440278 -8.2099671265793415 #
edge $-1 $369 -8.2099671265793415 $409 8.2099671265793415 $360 $428 forward 7 unknown #
vertex $-1 $362 $429 #
straight-curve $-1 -55.478331643112227 -20.896349598440278 -8.2099671265793415 0 1 0 I I #
straight-curve $-1 -55.478331643112227 -20.896349598440278 8.2099671265793415 0 -1 0 I I #
point $-1 -55.478331643112227 -19.396349598440278 8.2099671265793415 #
point $-1 -55.478331643112227 -19.396349598440278 -8.2099671265793415 #
point $-1 -55.478331643112227 -22.396349598440278 8.2099671265793415 #
straight-curve $-1 -52.281540771963535 -22.396349598440278 -8.2099671265793415 -1 0 0 I I #
straight-curve $-1 1.8155211149350059 -22.396349598440278 38.246482327930657 0 0 -1 I I #
point $-1 1.8155211149350059 -22.396349598440278 8.2099671265793415 #
straight-curve $-1 3.2312874968904168 -22.396349598440278 1.2907654998495652 1 0 0 I I #
point $-1 1.8155211149350059 -22.396349598440278 1.2907654998495672 #
point $-1 4.4709804742754713 -16.490140724833626 2.6252107797269999 #
point $-1 8.4541695132861818 -16.490140724833626 2.6252107797269999 #
straight-curve $-1 -21.526326772925842 22.396349598440278 51.964568188412144 0 0 -1 I I #
point $-1 -21.526326772925842 22.396349598440278 8.2099671265793415 #
straight-curve $-1 -15.486050664199594 22.396349598440278 1.5839622948388339 -1 0 0 I I #
point $-1 -21.526326772925842 22.396349598440281 1.5839622948388303 #
point $-1 -35.020290423602049 15.496558769867068 1.3077137099627021 #
point $-1 -26.923912233196326 15.496558769867068 1.3077137099627021 #
straight-curve $-1 -55.478331643112227 -22.396349598440278 0 0 0 -1 I I #
point $-1 -55.478331643112227 -22.396349598440278 -8.2099671265793415 #
End-of-ACIS-data 