500 0 5 0           
7 Unknown 11 ACIS 5.0 NT 24 Thu Mar 25 19:46:32 1999 
-1 9.9999999999999995e-007 1e-010 
body $-1 $5 $-1 $6 #
body $-1 $7 $-1 $8 #
body $-1 $9 $-1 $10 #
body $-1 $11 $-1 $12 #
body $-1 $13 $-1 $14 #
lump $-1 $-1 $15 $0 #
transform $-1 1 0 0 0 1 0 0 0 1 63.159886471144745 32.63565995728159 14.718964506384435 1 rotate no_reflect no_shear #
lump $-1 $-1 $16 $1 #
transform $-1 1 0 0 0 1 0 0 0 1 63.159886471144745 32.63565995728159 14.718964506384435 1 rotate no_reflect no_shear #
lump $-1 $-1 $17 $2 #
transform $-1 1 0 0 0 1 0 0 0 1 63.159886471144745 32.63565995728159 14.718964506384435 1 rotate no_reflect no_shear #
lump $-1 $-1 $18 $3 #
transform $-1 1 0 0 0 1 0 0 0 1 63.159886471144745 32.63565995728159 14.718964506384435 1 rotate no_reflect no_shear #
lump $-1 $-1 $19 $4 #
transform $-1 1 0 0 0 1 0 0 0 1 63.159886471144745 32.63565995728159 14.718964506384435 1 rotate no_reflect no_shear #
shell $-1 $-1 $-1 $20 $-1 $5 #
shell $-1 $-1 $-1 $21 $-1 $7 #
shell $-1 $-1 $-1 $22 $-1 $9 #
shell $-1 $-1 $-1 $23 $-1 $11 #
shell $-1 $-1 $-1 $24 $-1 $13 #
face $-1 $25 $26 $15 $-1 $27 forward single #
face $-1 $28 $29 $16 $-1 $30 reversed single #
face $-1 $31 $32 $17 $-1 $33 reversed single #
face $-1 $34 $35 $18 $-1 $36 forward single #
face $-1 $37 $38 $19 $-1 $39 forward single #
face $-1 $40 $41 $15 $-1 $42 reversed single #
loop $-1 $-1 $43 $20 #
plane-surface $-1 0 0 14.718964506384435 0 0 1 1 0 0 forward_v I I I I #
face $-1 $44 $45 $16 $-1 $46 reversed single #
loop $-1 $-1 $47 $21 #
plane-surface $-1 0 -26.067013782218893 9.7715560991327202 0 0 1 1 0 0 forward_v I I I I #
face $-1 $48 $49 $17 $-1 $50 reversed single #
loop $-1 $-1 $51 $22 #
plane-surface $-1 97.246606331549771 6.1638967324414153 183.92906718590083 0 -1 0 -0.82903758062907751 0 -0.55919289150049634 forward_v I I I I #
face $-1 $52 $53 $18 $-1 $54 forward single #
loop $-1 $55 $56 $23 #
cone-surface $-1 60.181960676640699 -4.7389035148610716 11.034102419559336 -0.82903758062907751 0 -0.55919289150049634 0.55919289150049634 0 -0.82903758062907751 1 I I 0 1 1 forward I I I I #
face $-1 $57 $58 $19 $-1 $59 forward single #
loop $-1 $60 $61 $24 #
cone-surface $-1 60.181960676640699 1.8027766335204234 11.034102419559336 -0.82903758062907751 0 -0.55919289150049634 0.55919289150049634 0 -0.82903758062907751 1 I I 0 1 1 forward I I I I #
face $-1 $62 $63 $15 $-1 $64 reversed single #
loop $-1 $-1 $65 $25 #
plane-surface $-1 0 0 -14.718964506384435 0 0 1 1 0 0 forward_v I I I I #
coedge $-1 $66 $67 $68 $69 forward $26 $-1 #
face $-1 $70 $71 $16 $-1 $72 reversed single #
loop $-1 $-1 $73 $28 #
plane-surface $-1 0 -19.498367607156197 12.245260302758577 0 -1 0 0 0 -1 forward_v I I I I #
coedge $-1 $74 $75 $76 $77 reversed $29 $-1 #
face $-1 $78 $79 $17 $-1 $80 reversed single #
loop $-1 $-1 $81 $31 #
plane-surface $-1 -7.4772326141403056 -1.4680634406703277 113.29194810061583 0.82903758062907751 0 0.55919289150049634 0.55919289150049634 0 -0.82903758062907751 forward_v I I I I #
coedge $-1 $82 $83 $84 $85 reversed $32 $-1 #
face $-1 $-1 $86 $18 $-1 $87 forward single #
loop $-1 $88 $89 $34 #
cone-surface $-1 58.863918187426506 -4.7389035148610716 10.145071562713344 -0.82903758062907751 0 -0.55919289150049634 0.27959644575024817 0 -0.41451879031453875 1 I I -0.70710678118654746 0.70710678118654746 0.5 forward I I I I #
loop $-1 $-1 $90 $23 #
coedge $-1 $56 $56 $91 $92 reversed $35 $-1 #
face $-1 $-1 $93 $19 $-1 $94 forward single #
loop $-1 $95 $96 $37 #
cone-surface $-1 58.863918187426506 1.8027766335204234 10.145071562713344 -0.82903758062907751 0 -0.55919289150049634 0.27959644575024817 0 -0.41451879031453875 1 I I -0.70710678118654746 0.70710678118654746 0.5 forward I I I I #
loop $-1 $-1 $97 $24 #
coedge $-1 $61 $61 $98 $99 reversed $38 $-1 #
face $-1 $100 $101 $15 $-1 $102 reversed single #
loop $-1 $-1 $103 $40 #
plane-surface $-1 0 -32.63565995728159 0 0 1 0 0 0 1 forward_v I I I I #
coedge $-1 $104 $105 $106 $107 forward $41 $-1 #
coedge $-1 $108 $43 $109 $110 forward $26 $-1 #
coedge $-1 $43 $108 $111 $112 forward $26 $-1 #
coedge $-1 $113 $114 $43 $69 reversed $115 $-1 #
edge $-1 $116 -32.63565995728159 $117 32.63565995728159 $68 $118 forward 7 unknown #
face $-1 $119 $120 $16 $-1 $121 reversed single #
loop $-1 $-1 $122 $44 #
plane-surface $-1 -63.159886471144745 0 0 1 0 0 0 0 -1 forward_v I I I I #
coedge $-1 $123 $124 $125 $126 reversed $45 $-1 #
coedge $-1 $127 $47 $128 $129 reversed $29 $-1 #
coedge $-1 $47 $127 $123 $130 forward $29 $-1 #
coedge $-1 $125 $131 $47 $77 forward $132 $-1 #
edge $-1 $133 -19.602153066172143 $134 -6.4648607160467506 $76 $135 forward 7 unknown #
face $-1 $136 $137 $17 $-1 $138 reversed single #
loop $-1 $-1 $139 $48 #
plane-surface $-1 97.246606331549771 -9.1000236137820707 183.92906718590083 0 1 0 0.82903758062907751 0 0.55919289150049634 forward_v I I I I #
coedge $-1 $140 $141 $142 $143 reversed $49 $-1 #
coedge $-1 $83 $51 $144 $145 reversed $32 $-1 #
coedge $-1 $51 $82 $140 $146 reversed $32 $-1 #
coedge $-1 $142 $147 $51 $85 forward $148 $-1 #
edge $-1 $149 -14.536583305369859 $150 -10.387779114161063 $84 $151 forward 7 unknown #
loop $-1 $-1 $91 $52 #
plane-surface $-1 -7.4772326141403056 -1.4680634406703277 113.29194810061583 0.82903758062907751 0 0.55919289150049634 0.55919289150049634 0 -0.82903758062907751 forward_v I I I I #
loop $-1 $-1 $152 $34 #
coedge $-1 $89 $89 $90 $153 reversed $53 $-1 #
coedge $-1 $90 $90 $89 $153 forward $55 $-1 #
coedge $-1 $91 $91 $56 $92 forward $86 $-1 #
edge $-1 $154 0 $154 6.2831853071796004 $91 $155 forward 7 unknown #
loop $-1 $-1 $98 $57 #
plane-surface $-1 -7.4772326141403056 -1.4680634406703277 113.29194810061583 0.82903758062907751 0 0.55919289150049634 0.55919289150049634 0 -0.82903758062907751 forward_v I I I I #
loop $-1 $-1 $156 $37 #
coedge $-1 $96 $96 $97 $157 reversed $58 $-1 #
coedge $-1 $97 $97 $96 $157 forward $60 $-1 #
coedge $-1 $98 $98 $61 $99 forward $93 $-1 #
edge $-1 $158 0 $158 6.2831853071796004 $98 $159 forward 7 unknown #
face $-1 $160 $161 $15 $-1 $162 reversed single #
loop $-1 $-1 $163 $62 #
plane-surface $-1 -63.159886471144745 0 0 1 0 0 0 0 -1 forward_v I I I I #
coedge $-1 $164 $111 $165 $166 forward $63 $-1 #
coedge $-1 $167 $65 $164 $168 forward $41 $-1 #
coedge $-1 $65 $167 $169 $170 forward $41 $-1 #
coedge $-1 $114 $113 $65 $107 reversed $115 $-1 #
edge $-1 $171 -32.63565995728159 $172 32.63565995728159 $106 $173 forward 7 unknown #
coedge $-1 $67 $66 $174 $175 forward $26 $-1 #
coedge $-1 $176 $177 $66 $110 reversed $161 $-1 #
edge $-1 $117 -63.159886471144745 $178 63.159886471144745 $109 $179 forward 7 unknown #
coedge $-1 $103 $180 $67 $112 reversed $63 $-1 #
edge $-1 $181 -63.159886471144745 $116 63.159886471144745 $111 $182 forward 7 unknown #
coedge $-1 $106 $68 $180 $183 forward $115 $-1 #
coedge $-1 $68 $106 $176 $184 reversed $115 $-1 #
loop $-1 $-1 $113 $160 #
vertex $-1 $69 $185 #
vertex $-1 $69 $186 #
straight-curve $-1 63.159886471144745 0 14.718964506384435 0 1 0 I I #
face $-1 $187 $188 $16 $-1 $189 forward single #
loop $-1 $-1 $128 $70 #
plane-surface $-1 0 -32.63565995728159 0 0 1 0 0 0 1 forward_v I I I I #
coedge $-1 $190 $191 $192 $193 forward $71 $-1 #
coedge $-1 $192 $73 $75 $130 reversed $45 $-1 #
coedge $-1 $73 $192 $194 $195 reversed $45 $-1 #
coedge $-1 $196 $76 $73 $126 forward $132 $-1 #
edge $-1 $134 3.6489259477534315 $197 8.5963343550051459 $125 $198 forward 7 unknown #
coedge $-1 $75 $74 $190 $199 reversed $29 $-1 #
coedge $-1 $200 $201 $74 $129 forward $120 $-1 #
edge $-1 $202 -63.159886471144745 $133 63.159886471144745 $128 $203 forward 7 unknown #
edge $-1 $204 -63.159886471144745 $134 63.159886471144745 $123 $205 forward 7 unknown #
coedge $-1 $76 $196 $200 $206 forward $132 $-1 #
loop $-1 $-1 $125 $187 #
vertex $-1 $129 $207 #
vertex $-1 $77 $208 #
straight-curve $-1 63.159886471144745 -13.033506891109447 9.7715560991327202 0 1 0 I I #
face $-1 $-1 $148 $17 $-1 $209 forward single #
loop $-1 $-1 $210 $78 #
plane-surface $-1 63.159886471144745 0 0 -1 0 0 0 0 1 forward_v I I I I #
coedge $-1 $211 $212 $213 $214 reversed $79 $-1 #
coedge $-1 $215 $81 $83 $146 forward $49 $-1 #
coedge $-1 $81 $215 $211 $216 forward $49 $-1 #
coedge $-1 $213 $84 $81 $143 forward $148 $-1 #
edge $-1 $150 -6.8979284527765792 $217 8.3659918934469069 $142 $218 forward 7 unknown #
coedge $-1 $219 $220 $82 $145 forward $137 $-1 #
edge $-1 $221 -83.396424438024724 $149 -77.245569086565979 $144 $222 forward 7 unknown #
edge $-1 $150 118.90050089096536 $221 126.31977294228955 $83 $223 forward 7 unknown #
coedge $-1 $84 $213 $219 $224 forward $148 $-1 #
loop $-1 $-1 $213 $136 #
vertex $-1 $145 $225 #
vertex $-1 $85 $226 #
straight-curve $-1 48.623303165774885 6.1638967324414153 14.718964506384438 -1 0 0 I I #
coedge $-1 $152 $152 $-1 $227 reversed $88 $-1 #
edge $-1 $228 0 $228 6.2831853071796004 $89 $229 forward 7 unknown #
vertex $-1 $92 $230 #
ellipse-curve $-1 61.085484375540346 -4.7389035148610716 11.643536830655073 0.82903758062907751 0 0.55919289150049634 0.55919289150049634 0 -0.82903758062907751 1 I I #
coedge $-1 $156 $156 $-1 $231 reversed $95 $-1 #
edge $-1 $232 0 $232 6.2831853071796004 $96 $233 forward 7 unknown #
vertex $-1 $99 $234 #
ellipse-curve $-1 61.085484375540346 1.8027766335204234 11.643536830655073 0.82903758062907751 0 0.55919289150049634 0.55919289150049634 0 -0.82903758062907751 1 I I #
face $-1 $-1 $115 $15 $-1 $235 reversed single #
loop $-1 $-1 $176 $100 #
plane-surface $-1 0 32.63565995728159 0 0 -1 0 0 0 -1 forward_v I I I I #
coedge $-1 $236 $174 $177 $237 forward $101 $-1 #
coedge $-1 $180 $103 $104 $168 reversed $63 $-1 #
coedge $-1 $174 $236 $103 $166 reversed $101 $-1 #
edge $-1 $181 -14.718964506384435 $238 14.718964506384435 $165 $239 forward 7 unknown #
coedge $-1 $105 $104 $236 $240 forward $41 $-1 #
edge $-1 $172 -63.159886471144745 $238 63.159886471144745 $164 $241 forward 7 unknown #
coedge $-1 $177 $176 $105 $170 reversed $161 $-1 #
edge $-1 $242 -63.159886471144745 $171 63.159886471144745 $169 $243 forward 7 unknown #
vertex $-1 $107 $244 #
vertex $-1 $183 $245 #
straight-curve $-1 63.159886471144745 0 -14.718964506384435 0 -1 0 I I #
coedge $-1 $163 $165 $108 $175 reversed $101 $-1 #
edge $-1 $178 -32.63565995728159 $181 32.63565995728159 $174 $246 forward 7 unknown #
coedge $-1 $169 $109 $114 $184 forward $161 $-1 #
coedge $-1 $109 $169 $163 $237 reversed $161 $-1 #
vertex $-1 $110 $247 #
straight-curve $-1 0 32.63565995728159 14.718964506384435 -1 0 0 I I #
coedge $-1 $111 $164 $113 $183 reversed $63 $-1 #
vertex $-1 $175 $248 #
straight-curve $-1 0 -32.63565995728159 14.718964506384435 1 0 0 I I #
edge $-1 $116 -14.718964506384435 $172 14.718964506384435 $113 $249 forward 7 unknown #
edge $-1 $117 -14.718964506384435 $171 14.718964506384435 $114 $250 forward 7 unknown #
point $-1 63.159886471144745 -32.63565995728159 14.718964506384435 #
point $-1 63.159886471144745 32.63565995728159 14.718964506384435 #
face $-1 $-1 $132 $16 $-1 $251 reversed single #
loop $-1 $-1 $194 $119 #
plane-surface $-1 0 0 14.718964506384435 0 0 1 1 0 0 forward_v I I I I #
coedge $-1 $252 $122 $127 $199 forward $71 $-1 #
coedge $-1 $122 $252 $253 $254 reversed $71 $-1 #
coedge $-1 $124 $123 $122 $193 reversed $45 $-1 #
edge $-1 $255 -8.5963343550051459 $204 -3.6489259477534315 $122 $256 forward 7 unknown #
coedge $-1 $253 $257 $124 $195 forward $188 $-1 #
edge $-1 $197 -63.159886471144745 $255 63.159886471144745 $194 $258 forward 7 unknown #
coedge $-1 $131 $125 $257 $259 reversed $132 $-1 #
vertex $-1 $126 $260 #
straight-curve $-1 63.159886471144745 -19.498367607156197 6.1226301513792887 0 0 1 I I #
edge $-1 $204 6.4648607160467506 $202 19.602153066172143 $190 $261 forward 7 unknown #
coedge $-1 $262 $128 $131 $206 reversed $120 $-1 #
coedge $-1 $128 $262 $252 $263 forward $120 $-1 #
vertex $-1 $129 $264 #
straight-curve $-1 0 -32.63565995728159 9.7715560991327202 1 0 0 I I #
vertex $-1 $199 $265 #
straight-curve $-1 0 -19.498367607156197 9.7715560991327202 1 0 0 I I #
edge $-1 $266 -14.718964506384435 $133 -9.7715560991327202 $131 $267 forward 7 unknown #
point $-1 63.159886471144745 -32.63565995728159 9.7715560991327202 #
point $-1 63.159886471144745 -19.498367607156197 9.7715560991327202 #
plane-surface $-1 0 0 14.718964506384435 0 0 1 1 0 0 forward_v I I I I #
coedge $-1 $220 $219 $212 $268 forward $137 $-1 #
coedge $-1 $212 $139 $141 $216 reversed $79 $-1 #
coedge $-1 $139 $211 $210 $268 reversed $79 $-1 #
coedge $-1 $147 $142 $139 $214 forward $148 $-1 #
edge $-1 $217 10.387779114161063 $269 14.536583305369859 $213 $270 forward 7 unknown #
coedge $-1 $141 $140 $220 $271 reversed $49 $-1 #
edge $-1 $272 -126.31977294228955 $217 -118.90050089096536 $211 $273 forward 7 unknown #
vertex $-1 $143 $274 #
straight-curve $-1 59.011082279935941 -0.73403172033516384 14.718964506384438 0 -1 0 I I #
coedge $-1 $210 $144 $147 $224 reversed $137 $-1 #
coedge $-1 $144 $210 $215 $271 forward $137 $-1 #
vertex $-1 $145 $275 #
straight-curve $-1 63.159886471144745 6.1638967324414153 91.964533592950417 0 0 1 I I #
straight-curve $-1 -7.4772326141403056 6.1638967324414153 113.29194810061583 0.55919289150049634 0 -0.82903758062907751 I I #
edge $-1 $269 -9.1000236137820707 $149 6.1638967324414153 $219 $276 forward 7 unknown #
point $-1 63.159886471144745 6.1638967324414153 14.718964506384435 #
point $-1 59.011082279935948 6.1638967324414153 14.718964506384438 #
edge $-1 $277 1 $277 0 $152 $-1 forward 7 unknown #
vertex $-1 $153 $278 #
ellipse-curve $-1 59.278436977741045 -4.7389035148610716 10.424668008463593 0.82903758062907751 0 0.55919289150049634 0.55919289150049634 0 -0.82903758062907751 1 I I #
point $-1 61.644677267040855 -4.7389035148610716 10.814499250026003 #
edge $-1 $279 1 $279 0 $156 $-1 forward 7 unknown #
vertex $-1 $157 $280 #
ellipse-curve $-1 59.278436977741045 1.8027766335204234 10.424668008463593 0.82903758062907751 0 0.55919289150049634 0.55919289150049634 0 -0.82903758062907751 1 I I #
point $-1 61.644677267040855 1.8027766335204234 10.814499250026003 #
plane-surface $-1 63.159886471144745 0 0 -1 0 0 0 0 1 forward_v I I I I #
coedge $-1 $165 $163 $167 $240 reversed $101 $-1 #
edge $-1 $178 -14.718964506384435 $242 14.718964506384435 $177 $281 forward 7 unknown #
vertex $-1 $240 $282 #
straight-curve $-1 -63.159886471144745 -32.63565995728159 0 0 0 -1 I I #
edge $-1 $238 -32.63565995728159 $242 32.63565995728159 $236 $283 forward 7 unknown #
straight-curve $-1 0 -32.63565995728159 -14.718964506384435 -1 0 0 I I #
vertex $-1 $170 $284 #
straight-curve $-1 0 32.63565995728159 -14.718964506384435 1 0 0 I I #
point $-1 63.159886471144745 32.63565995728159 -14.718964506384435 #
point $-1 63.159886471144745 -32.63565995728159 -14.718964506384435 #
straight-curve $-1 -63.159886471144745 0 14.718964506384435 0 -1 0 I I #
point $-1 -63.159886471144745 32.63565995728159 14.718964506384435 #
point $-1 -63.159886471144745 -32.63565995728159 14.718964506384435 #
straight-curve $-1 63.159886471144745 -32.63565995728159 0 0 0 -1 I I #
straight-curve $-1 63.159886471144745 32.63565995728159 0 0 0 -1 I I #
plane-surface $-1 63.159886471144745 0 0 -1 0 0 0 0 1 forward_v I I I I #
coedge $-1 $191 $190 $201 $263 reversed $71 $-1 #
coedge $-1 $285 $194 $191 $254 forward $188 $-1 #
edge $-1 $255 19.498367607156197 $286 32.63565995728159 $191 $287 forward 7 unknown #
vertex $-1 $254 $288 #
straight-curve $-1 -63.159886471144745 -19.498367607156197 6.1226301513792887 0 0 -1 I I #
coedge $-1 $194 $285 $196 $259 forward $188 $-1 #
straight-curve $-1 0 -19.498367607156197 14.718964506384435 -1 0 0 I I #
edge $-1 $266 -32.63565995728159 $197 -19.498367607156197 $196 $289 forward 7 unknown #
point $-1 63.159886471144745 -19.498367607156197 14.718964506384435 #
straight-curve $-1 -63.159886471144745 -13.033506891109447 9.7715560991327202 0 -1 0 I I #
coedge $-1 $201 $200 $285 $290 reversed $120 $-1 #
edge $-1 $286 -14.718964506384435 $202 -9.7715560991327202 $252 $291 forward 7 unknown #
point $-1 -63.159886471144745 -32.63565995728159 9.7715560991327202 #
point $-1 -63.159886471144745 -19.498367607156197 9.7715560991327202 #
vertex $-1 $259 $292 #
straight-curve $-1 63.159886471144745 -32.63565995728159 0 0 0 -1 I I #
edge $-1 $269 77.245569086565979 $272 83.396424438024724 $210 $293 forward 7 unknown #
vertex $-1 $224 $294 #
straight-curve $-1 48.623303165774885 -9.1000236137820707 14.718964506384438 1 0 0 I I #
edge $-1 $272 -8.3659918934469069 $221 6.8979284527765792 $220 $295 forward 7 unknown #
vertex $-1 $271 $296 #
straight-curve $-1 -7.4772326141403056 -9.1000236137820707 113.29194810061583 -0.55919289150049634 0 0.82903758062907751 I I #
point $-1 59.011082279935948 -9.1000236137820707 14.718964506384438 #
point $-1 63.159886471144745 6.1638967324414153 8.5681091549256934 #
straight-curve $-1 63.159886471144745 0 14.718964506384435 0 1 0 I I #
vertex $-1 $227 $297 #
point $-1 59.837629869241539 -4.7389035148610716 9.5956304278345144 #
vertex $-1 $231 $298 #
point $-1 59.837629869241539 1.8027766335204234 9.5956304278345144 #
straight-curve $-1 -63.159886471144745 32.63565995728159 0 0 0 -1 I I #
point $-1 -63.159886471144745 -32.63565995728159 -14.718964506384435 #
straight-curve $-1 -63.159886471144745 0 -14.718964506384435 0 1 0 I I #
point $-1 -63.159886471144745 32.63565995728159 -14.718964506384435 #
coedge $-1 $257 $253 $262 $290 forward $188 $-1 #
vertex $-1 $254 $299 #
straight-curve $-1 -63.159886471144745 0 14.718964506384435 0 -1 0 I I #
point $-1 -63.159886471144745 -19.498367607156197 14.718964506384435 #
straight-curve $-1 63.159886471144745 0 14.718964506384435 0 1 0 I I #
edge $-1 $286 -63.159886471144745 $266 63.159886471144745 $262 $300 forward 7 unknown #
straight-curve $-1 -63.159886471144745 -32.63565995728159 0 0 0 -1 I I #
point $-1 63.159886471144745 -32.63565995728159 14.718964506384435 #
straight-curve $-1 63.159886471144745 -9.1000236137820707 91.964533592950417 0 0 -1 I I #
point $-1 63.159886471144745 -9.1000236137820707 14.718964506384435 #
straight-curve $-1 63.159886471144745 -0.73403172033516384 8.5681091549257005 0 1 0 I I #
point $-1 63.159886471144745 -9.1000236137820707 8.5681091549256934 #
point $-1 58.449399397111968 -4.7389035148610716 9.8654751169630952 #
point $-1 58.449399397111968 1.8027766335204234 9.8654751169630952 #
point $-1 -63.159886471144745 -32.63565995728159 14.718964506384435 #
straight-curve $-1 0 -32.63565995728159 14.718964506384435 1 0 0 I I #
End-of-ACIS-data 