500 0 6 0           
7 Unknown 11 ACIS 5.0 NT 24 Fri Mar 26 02:59:46 1999 
-1 9.9999999999999995e-007 1e-010 
body $-1 $6 $-1 $7 #
body $-1 $8 $-1 $9 #
body $-1 $10 $-1 $11 #
body $-1 $12 $-1 $13 #
body $-1 $14 $-1 $15 #
body $-1 $16 $-1 $17 #
lump $-1 $-1 $18 $0 #
transform $-1 1 0 0 0 1 0 0 0 1 50.36652729880673 31.647277970203923 11.402659030244592 1 rotate no_reflect no_shear #
lump $-1 $-1 $19 $1 #
transform $-1 1 0 0 0 1 0 0 0 1 50.36652729880673 31.647277970203923 11.402659030244592 1 rotate no_reflect no_shear #
lump $-1 $-1 $20 $2 #
transform $-1 1 0 0 0 1 0 0 0 1 50.36652729880673 31.647277970203923 11.402659030244592 1 rotate no_reflect no_shear #
lump $-1 $-1 $21 $3 #
transform $-1 1 0 0 0 1 0 0 0 1 50.36652729880673 31.647277970203923 11.402659030244592 1 rotate no_reflect no_shear #
lump $-1 $-1 $22 $4 #
transform $-1 1 0 0 0 1 0 0 0 1 50.36652729880673 31.647277970203923 11.402659030244592 1 rotate no_reflect no_shear #
lump $-1 $-1 $23 $5 #
transform $-1 1 0 0 0 1 0 0 0 1 50.36652729880673 31.647277970203923 11.402659030244592 1 rotate no_reflect no_shear #
shell $-1 $-1 $-1 $24 $-1 $6 #
shell $-1 $-1 $-1 $25 $-1 $8 #
shell $-1 $-1 $-1 $26 $-1 $10 #
shell $-1 $-1 $-1 $27 $-1 $12 #
shell $-1 $-1 $-1 $28 $-1 $14 #
shell $-1 $-1 $-1 $29 $-1 $16 #
face $-1 $30 $31 $18 $-1 $32 forward single #
face $-1 $33 $34 $19 $-1 $35 reversed single #
face $-1 $36 $37 $20 $-1 $38 forward single #
face $-1 $39 $40 $21 $-1 $41 reversed single #
face $-1 $42 $43 $22 $-1 $44 forward single #
face $-1 $45 $46 $23 $-1 $47 forward single #
face $-1 $48 $49 $18 $-1 $50 reversed single #
loop $-1 $-1 $51 $24 #
plane-surface $-1 0 0 11.402659030244592 0 0 1 1 0 0 forward_v I I I I #
face $-1 $52 $53 $19 $-1 $54 reversed single #
loop $-1 $-1 $55 $25 #
plane-surface $-1 -20.287090487921446 -96.397238147269718 84.582143362677158 -1 0 0 0 -0.64278761758704617 0.76604443648966558 forward_v I I I I #
face $-1 $56 $57 $20 $-1 $58 forward single #
loop $-1 $59 $60 $26 #
cone-surface $-1 -25.793177021234097 -28.65833806155657 8.6782979570673557 0 0.64278761758704617 -0.76604443648966558 1 0 0 1 I I 0 1 1 forward I I I I #
face $-1 $61 $62 $21 $-1 $63 reversed single #
loop $-1 $-1 $64 $27 #
plane-surface $-1 -15.740415198095207 54.056349525875738 125.21862450266696 1 0 0 0 -0.68199836817093118 -0.7313536940579346 forward_v I I I I #
face $-1 $65 $66 $22 $-1 $67 forward single #
loop $-1 $68 $69 $28 #
cone-surface $-1 -10.651171301631152 29.01249641722972 8.803836662223322 0 -0.68199836817093118 -0.7313536940579346 1 0 0 1 I I 0 1 1 forward I I I I #
face $-1 $70 $71 $23 $-1 $72 forward single #
loop $-1 $73 $74 $29 #
cone-surface $-1 -3.0173054569350697 29.01249641722972 8.803836662223322 0 -0.68199836817093118 -0.7313536940579346 1 0 0 1 I I 0 1 1 forward I I I I #
face $-1 $75 $76 $18 $-1 $77 reversed single #
loop $-1 $-1 $78 $30 #
plane-surface $-1 0 0 -11.402659030244592 0 0 1 1 0 0 forward_v I I I I #
coedge $-1 $79 $80 $81 $82 forward $31 $-1 #
face $-1 $83 $84 $19 $-1 $85 reversed single #
loop $-1 $-1 $86 $33 #
plane-surface $-1 -25.793177021234097 -31.647277970203916 7.4161473175656312 0 -0.64278761758704617 0.76604443648966558 1 0 0 forward_v I I I I #
coedge $-1 $87 $88 $89 $90 reversed $34 $-1 #
face $-1 $-1 $91 $20 $-1 $92 forward single #
loop $-1 $93 $94 $36 #
cone-surface $-1 -25.793177021234097 -27.723474122113586 7.5641705219847566 0 0.64278761758704617 -0.76604443648966558 0.5 0 0 1 I I -0.70710678118654746 0.70710678118654746 0.5 forward I I I I #
loop $-1 $-1 $95 $26 #
coedge $-1 $60 $60 $96 $97 reversed $37 $-1 #
face $-1 $98 $99 $21 $-1 $100 reversed single #
loop $-1 $-1 $101 $39 #
plane-surface $-1 -6.8342383792831072 -14.643429330569951 51.547132908962737 0 0.68199836817093118 0.7313536940579346 1 0 0 forward_v I I I I #
coedge $-1 $102 $103 $104 $105 reversed $40 $-1 #
face $-1 $-1 $106 $22 $-1 $107 forward single #
loop $-1 $108 $109 $42 #
cone-surface $-1 -10.651171301631152 27.657230975038914 7.3504924405449437 0 -0.68199836817093118 -0.7313536940579346 0.5 0 0 1 I I -0.70710678118654746 0.70710678118654746 0.5 forward I I I I #
loop $-1 $-1 $110 $28 #
coedge $-1 $69 $69 $111 $112 reversed $43 $-1 #
face $-1 $-1 $113 $23 $-1 $114 forward single #
loop $-1 $115 $116 $45 #
cone-surface $-1 -3.0173054569350697 27.657230975038914 7.3504924405449437 0 -0.68199836817093118 -0.7313536940579346 0.5 0 0 1 I I -0.70710678118654746 0.70710678118654746 0.5 forward I I I I #
loop $-1 $-1 $117 $29 #
coedge $-1 $74 $74 $118 $119 reversed $46 $-1 #
face $-1 $120 $121 $18 $-1 $122 reversed single #
loop $-1 $-1 $123 $48 #
plane-surface $-1 0 -31.647277970203923 0 0 1 0 0 0 1 forward_v I I I I #
coedge $-1 $124 $125 $126 $127 forward $49 $-1 #
coedge $-1 $128 $51 $129 $130 forward $31 $-1 #
coedge $-1 $51 $128 $131 $132 forward $31 $-1 #
coedge $-1 $133 $134 $51 $82 reversed $135 $-1 #
edge $-1 $136 -31.647277970203923 $137 31.647277970203923 $81 $138 forward 7 unknown #
face $-1 $139 $140 $19 $-1 $141 reversed single #
loop $-1 $-1 $142 $52 #
plane-surface $-1 -31.299263554546748 -96.397238147269718 84.582143362677158 1 0 0 0 0.64278761758704617 -0.76604443648966558 forward_v I I I I #
coedge $-1 $143 $144 $145 $146 reversed $53 $-1 #
coedge $-1 $88 $55 $147 $148 reversed $34 $-1 #
coedge $-1 $55 $87 $143 $149 reversed $34 $-1 #
coedge $-1 $145 $150 $55 $90 forward $151 $-1 #
edge $-1 $152 16.551341103430936 $153 21.302280659426756 $89 $154 forward 7 unknown #
loop $-1 $-1 $96 $56 #
plane-surface $-1 -25.793177021234097 -31.647277970203916 7.4161473175656312 0 -0.64278761758704617 0.76604443648966558 1 0 0 forward_v I I I I #
loop $-1 $-1 $155 $36 #
coedge $-1 $94 $94 $95 $156 reversed $57 $-1 #
coedge $-1 $95 $95 $94 $156 forward $59 $-1 #
coedge $-1 $96 $96 $60 $97 forward $91 $-1 #
edge $-1 $157 -3.3313011133864009e-015 $157 6.2831853071795969 $96 $158 forward 7 unknown #
face $-1 $159 $160 $21 $-1 $161 reversed single #
loop $-1 $-1 $162 $61 #
plane-surface $-1 2.0719384395289921 54.056349525875738 125.21862450266696 -1 0 0 0 0.68199836817093118 0.7313536940579346 forward_v I I I I #
coedge $-1 $163 $164 $165 $166 reversed $62 $-1 #
coedge $-1 $103 $64 $167 $168 reversed $40 $-1 #
coedge $-1 $64 $102 $163 $169 reversed $40 $-1 #
coedge $-1 $165 $170 $64 $105 forward $171 $-1 #
edge $-1 $172 -4.6191032072660541 $173 -1.3780726175283071 $104 $174 forward 7 unknown #
loop $-1 $-1 $111 $65 #
plane-surface $-1 -6.8342383792831072 -14.643429330569951 51.547132908962737 0 0.68199836817093118 0.7313536940579346 1 0 0 forward_v I I I I #
loop $-1 $-1 $175 $42 #
coedge $-1 $109 $109 $110 $176 reversed $66 $-1 #
coedge $-1 $110 $110 $109 $176 forward $68 $-1 #
coedge $-1 $111 $111 $69 $112 forward $106 $-1 #
edge $-1 $177 -1.0361271243598302e-015 $177 6.2831853071795996 $111 $178 forward 7 unknown #
loop $-1 $-1 $118 $70 #
plane-surface $-1 -6.8342383792831072 -14.643429330569951 51.547132908962737 0 0.68199836817093118 0.7313536940579346 1 0 0 forward_v I I I I #
loop $-1 $-1 $179 $45 #
coedge $-1 $116 $116 $117 $180 reversed $71 $-1 #
coedge $-1 $117 $117 $116 $180 forward $73 $-1 #
coedge $-1 $118 $118 $74 $119 forward $113 $-1 #
edge $-1 $181 -1.0361271243598302e-015 $181 6.2831853071795996 $118 $182 forward 7 unknown #
face $-1 $183 $184 $18 $-1 $185 reversed single #
loop $-1 $-1 $186 $75 #
plane-surface $-1 -50.36652729880673 0 0 1 0 0 0 0 -1 forward_v I I I I #
coedge $-1 $187 $131 $188 $189 forward $76 $-1 #
coedge $-1 $190 $78 $187 $191 forward $49 $-1 #
coedge $-1 $78 $190 $192 $193 forward $49 $-1 #
coedge $-1 $134 $133 $78 $127 reversed $135 $-1 #
edge $-1 $194 -31.647277970203923 $195 31.647277970203923 $126 $196 forward 7 unknown #
coedge $-1 $80 $79 $197 $198 forward $31 $-1 #
coedge $-1 $199 $200 $79 $130 reversed $184 $-1 #
edge $-1 $137 -50.36652729880673 $201 50.36652729880673 $129 $202 forward 7 unknown #
coedge $-1 $123 $203 $80 $132 reversed $76 $-1 #
edge $-1 $204 -50.36652729880673 $136 50.36652729880673 $131 $205 forward 7 unknown #
coedge $-1 $126 $81 $203 $206 forward $135 $-1 #
coedge $-1 $81 $126 $199 $207 reversed $135 $-1 #
loop $-1 $-1 $133 $183 #
vertex $-1 $82 $208 #
vertex $-1 $82 $209 #
straight-curve $-1 50.36652729880673 0 11.402659030244592 0 1 0 I I #
face $-1 $-1 $151 $19 $-1 $210 forward single #
loop $-1 $-1 $211 $83 #
plane-surface $-1 0 -31.647277970203923 0 0 1 0 0 0 1 forward_v I I I I #
coedge $-1 $212 $213 $214 $215 reversed $84 $-1 #
coedge $-1 $216 $86 $88 $149 forward $53 $-1 #
coedge $-1 $86 $216 $212 $217 forward $53 $-1 #
coedge $-1 $214 $89 $86 $146 forward $151 $-1 #
edge $-1 $153 7.3905019773043978 $218 18.402675043929698 $145 $219 forward 7 unknown #
coedge $-1 $220 $221 $87 $148 forward $140 $-1 #
edge $-1 $222 -34.874924363772955 $152 -30.888412651093986 $147 $223 forward 7 unknown #
edge $-1 $153 -6.2019111812450394 $222 9.439443728910611e-015 $88 $224 forward 7 unknown #
coedge $-1 $89 $214 $220 $225 forward $151 $-1 #
loop $-1 $-1 $214 $139 #
vertex $-1 $148 $226 #
vertex $-1 $90 $227 #
straight-curve $-1 -20.287090487921446 -48.198619073634859 11.402659030244592 0 1 0 I I #
coedge $-1 $155 $155 $-1 $228 reversed $93 $-1 #
edge $-1 $229 0 $229 6.2831853071796004 $94 $230 forward 7 unknown #
vertex $-1 $97 $231 #
ellipse-curve $-1 -25.793177021234097 -29.271808192206016 9.4094031739051047 0 -0.64278761758704617 0.76604443648966558 1 0 0 1 I I #
face $-1 $-1 $171 $21 $-1 $232 forward single #
loop $-1 $-1 $233 $98 #
plane-surface $-1 0 31.647277970203923 0 0 -1 0 0 0 -1 forward_v I I I I #
coedge $-1 $234 $235 $236 $237 reversed $99 $-1 #
coedge $-1 $238 $101 $103 $169 forward $62 $-1 #
coedge $-1 $101 $238 $234 $239 forward $62 $-1 #
coedge $-1 $236 $104 $101 $166 forward $171 $-1 #
edge $-1 $173 -12.323296008453653 $240 5.4890576291705457 $165 $241 forward 7 unknown #
coedge $-1 $242 $243 $102 $168 forward $160 $-1 #
edge $-1 $244 -54.228963207832614 $172 -51.206653221088885 $167 $245 forward 7 unknown #
edge $-1 $173 58.863005766982454 $244 63.294555940407847 $103 $246 forward 7 unknown #
coedge $-1 $104 $236 $242 $247 forward $171 $-1 #
loop $-1 $-1 $236 $159 #
vertex $-1 $168 $248 #
vertex $-1 $105 $249 #
straight-curve $-1 -15.740415198095207 27.028174762937869 11.402659030244592 0 -1 0 I I #
coedge $-1 $175 $175 $-1 $250 reversed $108 $-1 #
edge $-1 $251 0 $251 6.2831853071796004 $109 $252 forward 7 unknown #
vertex $-1 $112 $253 #
ellipse-curve $-1 -10.651171301631152 30.026762675335053 9.8915040368727265 0 0.68199836817093118 0.7313536940579346 1 0 0 1 I I #
coedge $-1 $179 $179 $-1 $254 reversed $115 $-1 #
edge $-1 $255 0 $255 6.2831853071796004 $116 $256 forward 7 unknown #
vertex $-1 $119 $257 #
ellipse-curve $-1 -3.0173054569350697 30.026762675335053 9.8915040368727265 0 0.68199836817093118 0.7313536940579346 1 0 0 1 I I #
face $-1 $-1 $135 $18 $-1 $258 reversed single #
loop $-1 $-1 $199 $120 #
plane-surface $-1 0 31.647277970203923 0 0 -1 0 0 0 -1 forward_v I I I I #
coedge $-1 $259 $197 $200 $260 forward $121 $-1 #
coedge $-1 $203 $123 $124 $191 reversed $76 $-1 #
coedge $-1 $197 $259 $123 $189 reversed $121 $-1 #
edge $-1 $204 -11.402659030244592 $261 11.402659030244592 $188 $262 forward 7 unknown #
coedge $-1 $125 $124 $259 $263 forward $49 $-1 #
edge $-1 $195 -50.36652729880673 $261 50.36652729880673 $187 $264 forward 7 unknown #
coedge $-1 $200 $199 $125 $193 reversed $184 $-1 #
edge $-1 $265 -50.36652729880673 $194 50.36652729880673 $192 $266 forward 7 unknown #
vertex $-1 $127 $267 #
vertex $-1 $206 $268 #
straight-curve $-1 50.36652729880673 0 -11.402659030244592 0 -1 0 I I #
coedge $-1 $186 $188 $128 $198 reversed $121 $-1 #
edge $-1 $201 -31.647277970203923 $204 31.647277970203923 $197 $269 forward 7 unknown #
coedge $-1 $192 $129 $134 $207 forward $184 $-1 #
coedge $-1 $129 $192 $186 $260 reversed $184 $-1 #
vertex $-1 $130 $270 #
straight-curve $-1 0 31.647277970203923 11.402659030244592 -1 0 0 I I #
coedge $-1 $131 $187 $133 $206 reversed $76 $-1 #
vertex $-1 $198 $271 #
straight-curve $-1 0 -31.647277970203923 11.402659030244592 1 0 0 I I #
edge $-1 $136 -11.402659030244592 $195 11.402659030244592 $133 $272 forward 7 unknown #
edge $-1 $137 -11.402659030244592 $194 11.402659030244592 $134 $273 forward 7 unknown #
point $-1 50.36652729880673 -31.647277970203923 11.402659030244592 #
point $-1 50.36652729880673 31.647277970203923 11.402659030244592 #
plane-surface $-1 0 0 11.402659030244592 0 0 1 1 0 0 forward_v I I I I #
coedge $-1 $221 $220 $213 $274 forward $140 $-1 #
coedge $-1 $213 $142 $144 $217 reversed $84 $-1 #
coedge $-1 $142 $212 $211 $274 reversed $84 $-1 #
coedge $-1 $150 $145 $142 $215 forward $151 $-1 #
edge $-1 $218 -21.302280659426756 $275 -16.551341103430936 $214 $276 forward 7 unknown #
coedge $-1 $144 $143 $221 $277 reversed $53 $-1 #
edge $-1 $278 -9.439443728910611e-015 $218 6.2019111812450394 $212 $279 forward 7 unknown #
vertex $-1 $146 $280 #
straight-curve $-1 -12.896588510617049 -26.896338414208103 11.402659030244592 -1 0 0 I I #
coedge $-1 $211 $147 $150 $225 reversed $140 $-1 #
coedge $-1 $147 $211 $216 $277 forward $140 $-1 #
vertex $-1 $148 $281 #
straight-curve $-1 -20.287090487921446 -31.647277970203923 42.291071681338579 0 0 1 I I #
straight-curve $-1 -20.287090487921446 -31.647277970203916 7.4161473175656312 0 -0.76604443648966558 -0.64278761758704617 I I #
edge $-1 $275 -31.299263554546748 $152 -20.287090487921446 $220 $282 forward 7 unknown #
point $-1 -20.287090487921446 -31.647277970203923 11.402659030244592 #
point $-1 -20.287090487921446 -26.896338414208103 11.402659030244592 #
edge $-1 $283 1 $283 0 $155 $-1 forward 7 unknown #
vertex $-1 $156 $284 #
ellipse-curve $-1 -25.793177021234097 -28.04486793090711 7.947192740229589 0 -0.64278761758704617 0.76604443648966558 1 0 0 1 I I #
point $-1 -24.793177021234097 -29.271808192206034 9.4094031739051207 #
plane-surface $-1 0 0 11.402659030244592 0 0 1 1 0 0 forward_v I I I I #
coedge $-1 $243 $242 $235 $285 forward $160 $-1 #
coedge $-1 $235 $162 $164 $239 reversed $99 $-1 #
coedge $-1 $162 $234 $233 $285 reversed $99 $-1 #
coedge $-1 $170 $165 $162 $237 forward $171 $-1 #
edge $-1 $240 1.3780726175283071 $286 4.6191032072660541 $236 $287 forward 7 unknown #
coedge $-1 $164 $163 $243 $288 reversed $62 $-1 #
edge $-1 $289 -63.294555940407847 $240 -58.863005766982454 $234 $290 forward 7 unknown #
vertex $-1 $166 $291 #
straight-curve $-1 -3.4171191896415536 28.406247380466176 11.402659030244596 1 0 0 I I #
coedge $-1 $233 $167 $170 $247 reversed $160 $-1 #
coedge $-1 $167 $233 $238 $288 forward $160 $-1 #
vertex $-1 $168 $292 #
straight-curve $-1 -15.740415198095207 31.647277970203923 62.609312251333478 0 0 1 I I #
straight-curve $-1 -15.740415198095207 -14.643429330569951 51.547132908962737 0 0.7313536940579346 -0.68199836817093118 I I #
edge $-1 $286 -2.0719384395289921 $172 15.740415198095207 $242 $293 forward 7 unknown #
point $-1 -15.740415198095207 31.647277970203923 11.402659030244592 #
point $-1 -15.740415198095207 28.406247380466176 11.402659030244592 #
edge $-1 $294 1 $294 0 $175 $-1 forward 7 unknown #
vertex $-1 $176 $295 #
ellipse-curve $-1 -10.651171301631152 27.998230159124379 7.7161692875739112 0 0.68199836817093118 0.7313536940579346 1 0 0 1 I I #
point $-1 -9.6511713016311518 30.026762675335057 9.8915040368727318 #
edge $-1 $296 1 $296 0 $179 $-1 forward 7 unknown #
vertex $-1 $180 $297 #
ellipse-curve $-1 -3.0173054569350697 27.998230159124379 7.7161692875739112 0 0.68199836817093118 0.7313536940579346 1 0 0 1 I I #
point $-1 -2.0173054569350697 30.026762675335057 9.8915040368727318 #
plane-surface $-1 50.36652729880673 0 0 -1 0 0 0 0 1 forward_v I I I I #
coedge $-1 $188 $186 $190 $263 reversed $121 $-1 #
edge $-1 $201 -11.402659030244592 $265 11.402659030244592 $200 $298 forward 7 unknown #
vertex $-1 $263 $299 #
straight-curve $-1 -50.36652729880673 -31.647277970203923 0 0 0 -1 I I #
edge $-1 $261 -31.647277970203923 $265 31.647277970203923 $259 $300 forward 7 unknown #
straight-curve $-1 0 -31.647277970203923 -11.402659030244592 -1 0 0 I I #
vertex $-1 $193 $301 #
straight-curve $-1 0 31.647277970203923 -11.402659030244592 1 0 0 I I #
point $-1 50.36652729880673 31.647277970203923 -11.402659030244592 #
point $-1 50.36652729880673 -31.647277970203923 -11.402659030244592 #
straight-curve $-1 -50.36652729880673 0 11.402659030244592 0 -1 0 I I #
point $-1 -50.36652729880673 31.647277970203923 11.402659030244592 #
point $-1 -50.36652729880673 -31.647277970203923 11.402659030244592 #
straight-curve $-1 50.36652729880673 -31.647277970203923 0 0 0 -1 I I #
straight-curve $-1 50.36652729880673 31.647277970203923 0 0 0 -1 I I #
edge $-1 $275 30.888412651093986 $278 34.874924363772955 $211 $302 forward 7 unknown #
vertex $-1 $225 $303 #
straight-curve $-1 -31.299263554546748 -48.198619073634859 11.402659030244592 0 -1 0 I I #
edge $-1 $278 -18.402675043929698 $222 -7.3905019773043978 $221 $304 forward 7 unknown #
vertex $-1 $277 $305 #
straight-curve $-1 -31.299263554546748 -31.647277970203916 7.4161473175656312 0 0.76604443648966558 0.64278761758704617 I I #
point $-1 -31.299263554546748 -26.896338414208103 11.402659030244592 #
point $-1 -20.287090487921446 -31.647277970203923 7.416147317565625 #
straight-curve $-1 0 -31.647277970203923 11.402659030244592 1 0 0 I I #
vertex $-1 $228 $306 #
point $-1 -24.793177021234097 -28.04486793090711 7.947192740229589 #
edge $-1 $286 51.206653221088885 $289 54.228963207832614 $233 $307 forward 7 unknown #
vertex $-1 $247 $308 #
straight-curve $-1 2.0719384395289921 27.028174762937869 11.402659030244592 0 1 0 I I #
edge $-1 $289 -5.4890576291705457 $244 12.323296008453653 $243 $309 forward 7 unknown #
vertex $-1 $288 $310 #
straight-curve $-1 2.0719384395289921 -14.643429330569951 51.547132908962737 0 -0.7313536940579346 0.68199836817093118 I I #
point $-1 2.0719384395289921 28.406247380466176 11.402659030244592 #
point $-1 -15.740415198095207 31.647277970203923 8.3803490435008641 #
straight-curve $-1 0 31.647277970203923 11.402659030244592 -1 0 0 I I #
vertex $-1 $250 $311 #
point $-1 -9.6511713016311518 27.998230159124379 7.7161692875739112 #
vertex $-1 $254 $312 #
point $-1 -2.0173054569350697 27.998230159124379 7.7161692875739112 #
straight-curve $-1 -50.36652729880673 31.647277970203923 0 0 0 -1 I I #
point $-1 -50.36652729880673 -31.647277970203923 -11.402659030244592 #
straight-curve $-1 -50.36652729880673 0 -11.402659030244592 0 1 0 I I #
point $-1 -50.36652729880673 31.647277970203923 -11.402659030244592 #
straight-curve $-1 -31.299263554546748 -31.647277970203923 42.291071681338579 0 0 -1 I I #
point $-1 -31.299263554546748 -31.647277970203923 11.402659030244592 #
straight-curve $-1 -12.896588510617049 -31.647277970203923 7.4161473175656276 1 0 0 I I #
point $-1 -31.299263554546748 -31.647277970203923 7.416147317565625 #
point $-1 -25.793177021234097 -27.402080313320063 7.1811483037399242 #
straight-curve $-1 2.0719384395289921 31.647277970203923 62.609312251333478 0 0 -1 I I #
point $-1 2.0719384395289921 31.647277970203923 11.402659030244592 #
straight-curve $-1 -3.4171191896415536 31.64727797020392 8.3803490435008641 -1 0 0 I I #
point $-1 2.0719384395289921 31.647277970203923 8.3803490435008641 #
point $-1 -10.651171301631152 27.316231790953449 6.9848155935159761 #
point $-1 -3.0173054569350697 27.316231790953449 6.9848155935159761 #
End-of-ACIS-data 