500 0 9 0           
7 Unknown 11 ACIS 5.0 NT 24 Thu Mar 25 16:01:48 1999 
-1 9.9999999999999995e-007 1e-010 
body $-1 $9 $-1 $10 #
body $-1 $11 $-1 $12 #
body $-1 $13 $-1 $14 #
body $-1 $15 $-1 $16 #
body $-1 $17 $-1 $18 #
body $-1 $19 $-1 $20 #
body $-1 $21 $-1 $22 #
body $-1 $23 $-1 $24 #
body $-1 $25 $-1 $26 #
lump $-1 $-1 $27 $0 #
transform $-1 1 0 0 0 1 0 0 0 1 68.247932370982994 32.351690247673893 10.195319188071236 1 rotate no_reflect no_shear #
lump $-1 $-1 $28 $1 #
transform $-1 1 0 0 0 1 0 0 0 1 68.247932370982994 32.351690247673893 10.195319188071236 1 rotate no_reflect no_shear #
lump $-1 $-1 $29 $2 #
transform $-1 1 0 0 0 1 0 0 0 1 68.247932370982994 32.351690247673893 10.195319188071236 1 rotate no_reflect no_shear #
lump $-1 $-1 $30 $3 #
transform $-1 1 0 0 0 1 0 0 0 1 68.247932370982994 32.351690247673893 10.195319188071236 1 rotate no_reflect no_shear #
lump $-1 $-1 $31 $4 #
transform $-1 1 0 0 0 1 0 0 0 1 68.247932370982994 32.351690247673893 10.195319188071236 1 rotate no_reflect no_shear #
lump $-1 $-1 $32 $5 #
transform $-1 1 0 0 0 1 0 0 0 1 68.247932370982994 32.351690247673893 10.195319188071236 1 rotate no_reflect no_shear #
lump $-1 $-1 $33 $6 #
transform $-1 1 0 0 0 1 0 0 0 1 68.247932370982994 32.351690247673893 10.195319188071236 1 rotate no_reflect no_shear #
lump $-1 $-1 $34 $7 #
transform $-1 1 0 0 0 1 0 0 0 1 68.247932370982994 32.351690247673893 10.195319188071236 1 rotate no_reflect no_shear #
lump $-1 $-1 $35 $8 #
transform $-1 1 0 0 0 1 0 0 0 1 68.247932370982994 32.351690247673893 10.195319188071236 1 rotate no_reflect no_shear #
shell $-1 $-1 $-1 $36 $-1 $9 #
shell $-1 $-1 $-1 $37 $-1 $11 #
shell $-1 $-1 $-1 $38 $-1 $13 #
shell $-1 $-1 $-1 $39 $-1 $15 #
shell $-1 $-1 $-1 $40 $-1 $17 #
shell $-1 $-1 $-1 $41 $-1 $19 #
shell $-1 $-1 $-1 $42 $-1 $21 #
shell $-1 $-1 $-1 $43 $-1 $23 #
shell $-1 $-1 $-1 $44 $-1 $25 #
face $-1 $45 $46 $27 $-1 $47 reversed single #
face $-1 $48 $49 $28 $-1 $50 forward single #
face $-1 $51 $52 $29 $-1 $53 forward single #
face $-1 $54 $55 $30 $-1 $56 reversed single #
face $-1 $57 $58 $31 $-1 $59 forward single #
face $-1 $60 $61 $32 $-1 $62 forward single #
face $-1 $63 $64 $33 $-1 $65 reversed single #
face $-1 $66 $67 $34 $-1 $68 forward single #
face $-1 $69 $70 $35 $-1 $71 forward single #
face $-1 $72 $73 $27 $-1 $74 forward single #
loop $-1 $-1 $75 $36 #
plane-surface $-1 68.247932370982994 0 0 -1 0 0 0 0 1 forward_v I I I I #
face $-1 $76 $77 $28 $-1 $78 forward single #
loop $-1 $-1 $79 $37 #
plane-surface $-1 -68.247932370982994 0 0 1 0 0 0 0 -1 forward_v I I I I #
face $-1 $80 $81 $29 $-1 $82 reversed single #
loop $-1 $-1 $83 $38 #
plane-surface $-1 68.247932370982994 0 0 -1 0 0 0 0 1 forward_v I I I I #
face $-1 $84 $85 $30 $-1 $86 reversed single #
loop $-1 $-1 $87 $39 #
plane-surface $-1 -56.414479564511389 113.81918259207737 128.51344206737659 1 0 0 0 -0.84804810408105047 -0.52991925155115449 forward_v I I I I #
face $-1 $88 $89 $31 $-1 $90 forward single #
loop $-1 $91 $92 $40 #
cone-surface $-1 -53.035941675389694 28.931152589297959 5.3499821409735597 0 -0.84804810408105047 -0.52991925155115449 1.5 0 0 1 I I 0 1 1.5 forward I I I I #
face $-1 $93 $94 $32 $-1 $95 forward single #
loop $-1 $96 $97 $41 #
cone-surface $-1 -47.968134841707148 28.931152589297959 5.3499821409735597 0 -0.84804810408105047 -0.52991925155115449 1.5 0 0 1 I I 0 1 1.5 forward I I I I #
face $-1 $98 $99 $33 $-1 $100 reversed single #
loop $-1 $-1 $101 $42 #
plane-surface $-1 -7.0205343668838687 -149.35148325497417 74.874634012500437 -1 0 0 0 -0.85716730853699208 0.51503806187062418 forward_v I I I I #
face $-1 $102 $103 $34 $-1 $104 forward single #
loop $-1 $105 $106 $43 #
cone-surface $-1 -17.979556579806861 -30.224659688284483 7.1213747407464645 0 0.85716730853699208 -0.51503806187062418 1 0 0 1 I I 0 1 1 forward I I I I #
face $-1 $107 $108 $35 $-1 $109 forward single #
loop $-1 $110 $111 $44 #
cone-surface $-1 -11.404143252053068 -30.224659688284483 7.1213747407464645 0 0.85716730853699208 -0.51503806187062418 1 0 0 1 I I 0 1 1 forward I I I I #
face $-1 $112 $113 $27 $-1 $114 reversed single #
loop $-1 $-1 $115 $45 #
plane-surface $-1 0 0 10.195319188071236 0 0 1 1 0 0 forward_v I I I I #
coedge $-1 $116 $117 $118 $119 reversed $46 $-1 #
face $-1 $120 $121 $28 $-1 $122 reversed single #
loop $-1 $-1 $123 $48 #
plane-surface $-1 0 0 10.195319188071236 0 0 1 1 0 0 forward_v I I I I #
coedge $-1 $124 $125 $126 $127 forward $49 $-1 #
face $-1 $128 $129 $29 $-1 $130 reversed single #
loop $-1 $-1 $131 $51 #
plane-surface $-1 0 -32.351690247673893 0 0 1 0 0 0 1 forward_v I I I I #
coedge $-1 $132 $133 $134 $135 forward $52 $-1 #
face $-1 $136 $137 $30 $-1 $138 reversed single #
loop $-1 $-1 $139 $54 #
plane-surface $-1 -50.502038258548424 -1.9358767172503946 56.181655583486361 0 0.84804810408105047 0.52991925155115449 1 0 0 forward_v I I I I #
coedge $-1 $140 $141 $142 $143 reversed $55 $-1 #
face $-1 $-1 $144 $31 $-1 $145 forward single #
loop $-1 $146 $147 $57 #
cone-surface $-1 -53.035941675389694 27.650636703388592 4.5498270358622097 0 -0.84804810408105047 -0.52991925155115449 0.75 0 0 1 I I -0.70710678118654713 0.70710678118654802 0.75 forward I I I I #
loop $-1 $-1 $148 $40 #
coedge $-1 $92 $92 $149 $150 reversed $58 $-1 #
face $-1 $-1 $151 $32 $-1 $152 forward single #
loop $-1 $153 $154 $60 #
cone-surface $-1 -47.968134841707148 27.650636703388592 4.5498270358622097 0 -0.84804810408105047 -0.52991925155115449 0.75 0 0 1 I I -0.70710678118654713 0.70710678118654802 0.75 forward I I I I #
loop $-1 $-1 $155 $41 #
coedge $-1 $97 $97 $156 $157 reversed $61 $-1 #
face $-1 $158 $159 $33 $-1 $160 reversed single #
loop $-1 $-1 $161 $63 #
plane-surface $-1 -14.691849915929964 -32.351690247673872 4.5740683824434143 0 -0.85716730853699208 0.51503806187062418 1 0 0 forward_v I I I I #
coedge $-1 $162 $163 $164 $165 reversed $64 $-1 #
face $-1 $-1 $166 $34 $-1 $167 forward single #
loop $-1 $168 $169 $66 #
cone-surface $-1 -17.979556579806861 -29.357839535823722 6.6005366653002842 0 0.85716730853699208 -0.51503806187062418 0.5 0 0 1 I I -0.70710678118654746 0.70710678118654746 0.5 forward I I I I #
loop $-1 $-1 $170 $43 #
coedge $-1 $106 $106 $171 $172 reversed $67 $-1 #
face $-1 $-1 $173 $35 $-1 $174 forward single #
loop $-1 $175 $176 $69 #
cone-surface $-1 -11.404143252053068 -29.357839535823722 6.6005366653002842 0 0.85716730853699208 -0.51503806187062418 0.5 0 0 1 I I -0.70710678118654746 0.70710678118654746 0.5 forward I I I I #
loop $-1 $-1 $177 $44 #
coedge $-1 $111 $111 $178 $179 reversed $70 $-1 #
face $-1 $180 $181 $27 $-1 $182 reversed single #
loop $-1 $-1 $118 $72 #
plane-surface $-1 0 0 -10.195319188071236 0 0 1 1 0 0 forward_v I I I I #
coedge $-1 $183 $184 $185 $186 forward $73 $-1 #
coedge $-1 $185 $75 $187 $188 reversed $46 $-1 #
coedge $-1 $75 $185 $189 $190 forward $46 $-1 #
coedge $-1 $191 $192 $75 $119 forward $113 $-1 #
edge $-1 $193 -32.351690247673893 $194 32.351690247673893 $75 $195 forward 7 unknown #
face $-1 $196 $197 $28 $-1 $198 reversed single #
loop $-1 $-1 $199 $76 #
plane-surface $-1 -80.081385177454592 -30.434502276814843 0 1 0 0 0 0 -1 forward_v I I I I #
coedge $-1 $200 $201 $124 $202 forward $77 $-1 #
coedge $-1 $203 $79 $123 $202 reversed $49 $-1 #
coedge $-1 $79 $203 $204 $205 reversed $49 $-1 #
coedge $-1 $206 $207 $79 $127 reversed $197 $-1 #
edge $-1 $208 -10.195319188071236 $209 10.195319188071236 $126 $210 forward 7 unknown #
face $-1 $211 $212 $29 $-1 $213 reversed single #
loop $-1 $-1 $214 $80 #
plane-surface $-1 0 0 -10.195319188071236 0 0 1 1 0 0 forward_v I I I I #
coedge $-1 $215 $216 $217 $218 forward $81 $-1 #
coedge $-1 $217 $83 $214 $219 reversed $52 $-1 #
coedge $-1 $83 $217 $220 $221 reversed $52 $-1 #
coedge $-1 $222 $223 $83 $135 reversed $212 $-1 #
edge $-1 $224 -10.195319188071236 $225 10.195319188071236 $134 $226 forward 7 unknown #
face $-1 $227 $228 $30 $-1 $229 reversed single #
loop $-1 $-1 $230 $84 #
plane-surface $-1 -44.58959695258546 113.81918259207737 128.51344206737659 -1 0 0 0 0.84804810408105047 0.52991925155115449 forward_v I I I I #
coedge $-1 $231 $232 $233 $234 reversed $85 $-1 #
coedge $-1 $141 $87 $235 $236 reversed $55 $-1 #
coedge $-1 $87 $140 $231 $237 reversed $55 $-1 #
coedge $-1 $233 $238 $87 $143 forward $239 $-1 #
edge $-1 $240 24.557901048364791 $241 30.110016749419529 $142 $242 forward 7 unknown #
loop $-1 $-1 $149 $88 #
plane-surface $-1 -50.502038258548424 -1.9358767172503946 56.181655583486361 0 0.84804810408105047 0.52991925155115449 1 0 0 forward_v I I I I #
loop $-1 $-1 $243 $57 #
coedge $-1 $147 $147 $148 $244 reversed $89 $-1 #
coedge $-1 $148 $148 $147 $244 forward $91 $-1 #
coedge $-1 $149 $149 $92 $150 forward $144 $-1 #
edge $-1 $245 -1.7582961020665412e-015 $245 6.2831853071795987 $149 $246 forward 7 unknown #
loop $-1 $-1 $156 $93 #
plane-surface $-1 -50.502038258548424 -1.9358767172503946 56.181655583486361 0 0.84804810408105047 0.52991925155115449 1 0 0 forward_v I I I I #
loop $-1 $-1 $247 $60 #
coedge $-1 $154 $154 $155 $248 reversed $94 $-1 #
coedge $-1 $155 $155 $154 $248 forward $96 $-1 #
coedge $-1 $156 $156 $97 $157 forward $151 $-1 #
edge $-1 $249 -1.7582961020665412e-015 $249 6.2831853071795987 $156 $250 forward 7 unknown #
face $-1 $251 $252 $33 $-1 $253 forward single #
loop $-1 $-1 $254 $98 #
plane-surface $-1 -22.36316546497606 -149.35148325497417 74.874634012500437 1 0 0 0 0.85716730853699208 -0.51503806187062418 forward_v I I I I #
coedge $-1 $255 $256 $257 $258 reversed $99 $-1 #
coedge $-1 $163 $101 $259 $260 reversed $64 $-1 #
coedge $-1 $101 $162 $255 $261 reversed $64 $-1 #
coedge $-1 $257 $262 $101 $165 forward $252 $-1 #
edge $-1 $263 42.324051379813191 $264 45.701639502207513 $164 $265 forward 7 unknown #
loop $-1 $-1 $171 $102 #
plane-surface $-1 -14.691849915929964 -32.351690247673872 4.5740683824434143 0 -0.85716730853699208 0.51503806187062418 1 0 0 forward_v I I I I #
loop $-1 $-1 $266 $66 #
coedge $-1 $169 $169 $170 $267 reversed $103 $-1 #
coedge $-1 $170 $170 $169 $267 forward $105 $-1 #
coedge $-1 $171 $171 $106 $172 forward $166 $-1 #
edge $-1 $268 1.9637009886909285e-015 $268 6.2831853071796022 $171 $269 forward 7 unknown #
loop $-1 $-1 $178 $107 #
plane-surface $-1 -14.691849915929964 -32.351690247673872 4.5740683824434143 0 -0.85716730853699208 0.51503806187062418 1 0 0 forward_v I I I I #
loop $-1 $-1 $270 $69 #
coedge $-1 $176 $176 $177 $271 reversed $108 $-1 #
coedge $-1 $177 $177 $176 $271 forward $110 $-1 #
coedge $-1 $178 $178 $111 $179 forward $173 $-1 #
edge $-1 $272 1.9637009886909285e-015 $272 6.2831853071796022 $178 $273 forward 7 unknown #
face $-1 $274 $275 $27 $-1 $276 reversed single #
loop $-1 $-1 $277 $112 #
plane-surface $-1 0 -32.351690247673893 0 0 1 0 0 0 1 forward_v I I I I #
coedge $-1 $278 $115 $279 $280 forward $73 $-1 #
coedge $-1 $115 $278 $281 $282 forward $73 $-1 #
coedge $-1 $117 $116 $115 $186 reversed $46 $-1 #
edge $-1 $283 -32.351690247673893 $284 32.351690247673893 $185 $285 forward 7 unknown #
coedge $-1 $286 $279 $116 $188 forward $287 $-1 #
edge $-1 $284 -10.195319188071236 $193 10.195319188071236 $116 $288 forward 7 unknown #
coedge $-1 $281 $289 $117 $190 reversed $181 $-1 #
edge $-1 $283 -10.195319188071236 $194 10.195319188071236 $117 $290 forward 7 unknown #
coedge $-1 $291 $118 $289 $292 forward $113 $-1 #
coedge $-1 $118 $291 $286 $293 forward $113 $-1 #
vertex $-1 $119 $294 #
vertex $-1 $190 $295 #
straight-curve $-1 68.247932370982994 0 -10.195319188071236 0 -1 0 I I #
face $-1 $296 $297 $28 $-1 $298 reversed single #
loop $-1 $-1 $126 $120 #
plane-surface $-1 -74.164658774218793 -28.517314305955793 0 0 -1 0 0 0 -1 forward_v I I I I #
coedge $-1 $299 $300 $301 $302 forward $121 $-1 #
coedge $-1 $303 $123 $207 $304 forward $77 $-1 #
coedge $-1 $123 $303 $305 $306 forward $77 $-1 #
edge $-1 $307 -32.351690247673893 $209 -28.517314305955793 $123 $308 forward 7 unknown #
coedge $-1 $125 $124 $309 $310 reversed $49 $-1 #
coedge $-1 $311 $312 $125 $205 forward $297 $-1 #
edge $-1 $208 28.517314305955793 $313 32.351690247673893 $204 $314 forward 7 unknown #
coedge $-1 $301 $126 $312 $315 reversed $197 $-1 #
coedge $-1 $126 $301 $200 $304 reversed $197 $-1 #
vertex $-1 $205 $316 #
vertex $-1 $304 $317 #
straight-curve $-1 -68.247932370982994 -28.517314305955793 0 0 0 1 I I #
face $-1 $318 $319 $29 $-1 $320 reversed single #
loop $-1 $-1 $321 $128 #
plane-surface $-1 74.164658774218793 -28.517314305955793 0 0 -1 0 0 0 -1 forward_v I I I I #
coedge $-1 $322 $323 $132 $219 forward $129 $-1 #
coedge $-1 $324 $131 $323 $325 reversed $81 $-1 #
coedge $-1 $131 $324 $326 $327 reversed $81 $-1 #
coedge $-1 $133 $132 $131 $218 reversed $52 $-1 #
edge $-1 $328 -10.195319188071236 $329 10.195319188071236 $131 $330 forward 7 unknown #
edge $-1 $329 -32.351690247673893 $225 -28.517314305955793 $214 $331 forward 7 unknown #
coedge $-1 $326 $332 $133 $221 forward $333 $-1 #
edge $-1 $224 28.517314305955793 $328 32.351690247673893 $220 $334 forward 7 unknown #
coedge $-1 $321 $134 $332 $335 reversed $212 $-1 #
coedge $-1 $134 $321 $322 $336 reversed $212 $-1 #
vertex $-1 $221 $337 #
vertex $-1 $336 $338 #
straight-curve $-1 68.247932370982994 -28.517314305955793 0 0 0 -1 I I #
face $-1 $-1 $239 $30 $-1 $339 forward single #
loop $-1 $-1 $340 $136 #
plane-surface $-1 0 32.351690247673893 0 0 -1 0 0 0 -1 forward_v I I I I #
coedge $-1 $341 $342 $343 $344 reversed $137 $-1 #
coedge $-1 $345 $139 $141 $237 forward $85 $-1 #
coedge $-1 $139 $345 $341 $346 forward $85 $-1 #
coedge $-1 $343 $142 $139 $234 forward $239 $-1 #
edge $-1 $241 -31.163460435237177 $347 -19.338577823311248 $233 $348 forward 7 unknown #
coedge $-1 $349 $350 $140 $236 forward $228 $-1 #
edge $-1 $351 -62.946644606916479 $240 -54.061401845617056 $235 $352 forward 7 unknown #
edge $-1 $241 54.226094220499633 $351 64.70338049534783 $141 $353 forward 7 unknown #
coedge $-1 $142 $343 $349 $354 forward $239 $-1 #
loop $-1 $-1 $343 $227 #
vertex $-1 $236 $355 #
vertex $-1 $143 $356 #
straight-curve $-1 -56.414479564511389 56.909591296038684 10.195319188071238 0 -1 0 I I #
coedge $-1 $243 $243 $-1 $357 reversed $146 $-1 #
edge $-1 $358 0 $358 6.2831853071796004 $147 $359 forward 7 unknown #
vertex $-1 $150 $360 #
ellipse-curve $-1 -53.035941675389694 29.575632397146521 5.7526978074215336 0 0.84804810408105047 0.52991925155115449 1.5 0 0 1 I I #
coedge $-1 $247 $247 $-1 $361 reversed $153 $-1 #
edge $-1 $362 0 $362 6.2831853071796004 $154 $363 forward 7 unknown #
vertex $-1 $157 $364 #
ellipse-curve $-1 -47.968134841707148 29.575632397146521 5.7526978074215336 0 0.84804810408105047 0.52991925155115449 1.5 0 0 1 I I #
face $-1 $-1 $365 $33 $-1 $366 reversed single #
loop $-1 $-1 $164 $158 #
plane-surface $-1 0 0 10.195319188071236 0 0 1 1 0 0 forward_v I I I I #
coedge $-1 $367 $368 $369 $370 reversed $159 $-1 #
coedge $-1 $371 $161 $163 $261 forward $99 $-1 #
coedge $-1 $161 $371 $367 $372 forward $99 $-1 #
coedge $-1 $369 $164 $161 $258 forward $252 $-1 #
edge $-1 $264 -0.32539059108111346 $373 15.017240507011078 $257 $374 forward 7 unknown #
coedge $-1 $375 $376 $162 $260 forward $365 $-1 #
edge $-1 $377 -32.86324862380684 $263 -27.24199781817898 $259 $378 forward 7 unknown #
edge $-1 $264 -6.5579388640266032 $377 4.1431396825663817e-014 $163 $379 forward 7 unknown #
coedge $-1 $164 $369 $375 $380 forward $252 $-1 #
vertex $-1 $165 $381 #
vertex $-1 $165 $382 #
straight-curve $-1 -7.0205343668838687 -74.675741627487085 10.195319188071238 0 1 0 I I #
coedge $-1 $266 $266 $-1 $383 reversed $168 $-1 #
edge $-1 $384 0 $384 6.2831853071796004 $169 $385 forward 7 unknown #
vertex $-1 $172 $386 #
ellipse-curve $-1 -17.979556579806861 -30.662896186476726 7.3846937852573182 0 -0.85716730853699208 0.51503806187062418 1 0 0 1 I I #
coedge $-1 $270 $270 $-1 $387 reversed $175 $-1 #
edge $-1 $388 0 $388 6.2831853071796004 $176 $389 forward 7 unknown #
vertex $-1 $179 $390 #
ellipse-curve $-1 -11.404143252053068 -30.662896186476726 7.3846937852573182 0 -0.85716730853699208 0.51503806187062418 1 0 0 1 I I #
face $-1 $-1 $287 $27 $-1 $391 reversed single #
loop $-1 $-1 $392 $180 #
plane-surface $-1 -68.247932370982994 0 0 1 0 0 0 0 -1 forward_v I I I I #
coedge $-1 $289 $281 $393 $394 forward $181 $-1 #
coedge $-1 $184 $183 $392 $395 forward $73 $-1 #
coedge $-1 $187 $396 $183 $280 reversed $287 $-1 #
edge $-1 $284 -68.247932370982994 $397 68.247932370982994 $279 $398 forward 7 unknown #
coedge $-1 $277 $189 $184 $282 reversed $181 $-1 #
edge $-1 $399 -68.247932370982994 $283 68.247932370982994 $281 $400 forward 7 unknown #
vertex $-1 $186 $401 #
vertex $-1 $186 $402 #
straight-curve $-1 68.247932370982994 0 10.195319188071236 0 1 0 I I #
coedge $-1 $396 $187 $192 $293 reversed $287 $-1 #
loop $-1 $-1 $187 $274 #
straight-curve $-1 68.247932370982994 32.351690247673893 0 0 0 -1 I I #
coedge $-1 $189 $277 $191 $292 reversed $181 $-1 #
straight-curve $-1 68.247932370982994 -32.351690247673893 0 0 0 -1 I I #
coedge $-1 $192 $191 $403 $404 forward $113 $-1 #
edge $-1 $194 -68.247932370982994 $405 68.247932370982994 $289 $406 forward 7 unknown #
edge $-1 $407 -68.247932370982994 $193 68.247932370982994 $286 $408 forward 7 unknown #
point $-1 68.247932370982994 32.351690247673893 -10.195319188071236 #
point $-1 68.247932370982994 -32.351690247673893 -10.195319188071236 #
face $-1 $-1 $409 $28 $-1 $410 reversed single #
loop $-1 $-1 $204 $196 #
plane-surface $-1 0 0 -10.195319188071236 0 0 1 1 0 0 forward_v I I I I #
coedge $-1 $411 $199 $412 $413 reversed $121 $-1 #
coedge $-1 $199 $411 $303 $414 reversed $121 $-1 #
coedge $-1 $207 $206 $199 $302 reversed $197 $-1 #
edge $-1 $415 -10.195319188071236 $416 10.195319188071236 $301 $417 forward 7 unknown #
coedge $-1 $201 $200 $300 $414 forward $77 $-1 #
edge $-1 $209 -5.9167264032357991 $415 5.9167264032357991 $207 $418 forward 7 unknown #
coedge $-1 $419 $309 $201 $306 reversed $409 $-1 #
edge $-1 $420 -80.081385177454592 $307 -68.247932370982994 $305 $421 forward 7 unknown #
vertex $-1 $310 $422 #
straight-curve $-1 -68.247932370982994 0 10.195319188071236 0 1 0 I I #
coedge $-1 $305 $423 $203 $310 forward $409 $-1 #
edge $-1 $313 -10.195319188071236 $307 10.195319188071236 $309 $424 forward 7 unknown #
coedge $-1 $412 $204 $423 $425 forward $297 $-1 #
coedge $-1 $204 $412 $206 $315 forward $297 $-1 #
vertex $-1 $425 $426 #
straight-curve $-1 -68.247932370982994 0 -10.195319188071236 0 -1 0 I I #
edge $-1 $416 -5.9167264032357991 $208 5.9167264032357991 $206 $427 forward 7 unknown #
point $-1 -68.247932370982994 -28.517314305955793 -10.195319188071236 #
point $-1 -68.247932370982994 -28.517314305955793 10.195319188071236 #
face $-1 $-1 $333 $29 $-1 $428 forward single #
loop $-1 $-1 $429 $211 #
plane-surface $-1 80.081385177454592 -30.434502276814843 0 -1 0 0 0 0 1 forward_v I I I I #
coedge $-1 $223 $222 $430 $431 forward $212 $-1 #
coedge $-1 $432 $214 $223 $336 forward $129 $-1 #
coedge $-1 $214 $432 $215 $325 forward $129 $-1 #
coedge $-1 $216 $215 $429 $433 reversed $81 $-1 #
edge $-1 $434 -5.9167264032357991 $329 5.9167264032357991 $215 $435 forward 7 unknown #
coedge $-1 $436 $220 $216 $327 forward $333 $-1 #
edge $-1 $328 -5.9167264032357991 $437 5.9167264032357991 $216 $438 forward 7 unknown #
vertex $-1 $327 $439 #
vertex $-1 $219 $440 #
straight-curve $-1 68.247932370982994 -32.351690247673893 0 0 0 -1 I I #
straight-curve $-1 68.247932370982994 0 -10.195319188071236 0 1 0 I I #
coedge $-1 $220 $436 $222 $335 forward $333 $-1 #
loop $-1 $-1 $220 $318 #
straight-curve $-1 68.247932370982994 0 10.195319188071236 0 -1 0 I I #
edge $-1 $441 -5.9167264032357991 $224 5.9167264032357991 $222 $442 forward 7 unknown #
edge $-1 $225 -5.9167264032357991 $443 5.9167264032357991 $223 $444 forward 7 unknown #
point $-1 68.247932370982994 -28.517314305955793 10.195319188071236 #
point $-1 68.247932370982994 -28.517314305955793 -10.195319188071236 #
plane-surface $-1 0 0 10.195319188071236 0 0 1 1 0 0 forward_v I I I I #
coedge $-1 $350 $349 $342 $445 forward $228 $-1 #
coedge $-1 $342 $230 $232 $346 reversed $137 $-1 #
coedge $-1 $230 $341 $340 $445 reversed $137 $-1 #
coedge $-1 $238 $233 $230 $344 forward $239 $-1 #
edge $-1 $347 -30.110016749419529 $446 -24.557901048364791 $343 $447 forward 7 unknown #
coedge $-1 $232 $231 $350 $448 reversed $85 $-1 #
edge $-1 $449 -64.70338049534783 $347 -54.226094220499633 $341 $450 forward 7 unknown #
vertex $-1 $234 $451 #
straight-curve $-1 -25.251019129274212 26.799574546619148 10.195319188071238 1 0 0 I I #
coedge $-1 $340 $235 $238 $354 reversed $228 $-1 #
coedge $-1 $235 $340 $345 $448 forward $228 $-1 #
vertex $-1 $236 $452 #
straight-curve $-1 -56.414479564511389 32.351690247673893 64.256721033688294 0 0 1 I I #
straight-curve $-1 -56.414479564511389 -1.9358767172503946 56.181655583486361 0 0.52991925155115449 -0.84804810408105047 I I #
edge $-1 $446 44.58959695258546 $240 56.414479564511389 $349 $453 forward 7 unknown #
point $-1 -56.414479564511389 32.351690247673893 10.195319188071236 #
point $-1 -56.414479564511389 26.799574546619155 10.195319188071238 #
edge $-1 $454 1 $454 0 $243 $-1 forward 7 unknown #
vertex $-1 $244 $455 #
ellipse-curve $-1 -53.035941675389694 28.286672781449379 4.9472664745255761 0 0.84804810408105047 0.52991925155115449 1.5 0 0 1 I I #
point $-1 -51.535941675389694 29.575632397146531 5.7526978074215434 #
edge $-1 $456 1 $456 0 $247 $-1 forward 7 unknown #
vertex $-1 $248 $457 #
ellipse-curve $-1 -47.968134841707148 28.286672781449379 4.9472664745255761 0 0.84804810408105047 0.52991925155115449 1.5 0 0 1 I I #
point $-1 -46.468134841707148 29.575632397146531 5.7526978074215434 #
loop $-1 $-1 $259 $251 #
plane-surface $-1 0 -32.351690247673893 0 0 1 0 0 0 1 forward_v I I I I #
coedge $-1 $368 $254 $256 $372 reversed $159 $-1 #
coedge $-1 $254 $367 $458 $459 reversed $159 $-1 #
coedge $-1 $262 $257 $254 $370 forward $252 $-1 #
edge $-1 $373 -45.701639502207513 $460 -42.324051379813191 $369 $461 forward 7 unknown #
coedge $-1 $256 $255 $376 $462 reversed $99 $-1 #
edge $-1 $463 -4.1431396825663817e-014 $373 6.5579388640266032 $367 $464 forward 7 unknown #
vertex $-1 $258 $465 #
straight-curve $-1 -7.3459249579649821 -28.974102125279565 10.195319188071236 -1 0 0 I I #
coedge $-1 $458 $259 $262 $380 reversed $365 $-1 #
coedge $-1 $259 $458 $371 $462 forward $365 $-1 #
vertex $-1 $260 $466 #
straight-curve $-1 -7.0205343668838687 -32.351690247673893 37.437317006250218 0 0 1 I I #
straight-curve $-1 -7.0205343668838687 -32.351690247673872 4.5740683824434143 0 -0.51503806187062418 -0.85716730853699208 I I #
edge $-1 $460 -96.527824239194857 $263 -81.185193141102658 $375 $467 forward 7 unknown #
point $-1 -7.0205343668838651 -32.351690247673893 10.195319188071236 #
point $-1 -7.0205343668838687 -28.974102125279568 10.195319188071236 #
edge $-1 $468 1 $468 0 $266 $-1 forward 7 unknown #
vertex $-1 $267 $469 #
ellipse-curve $-1 -17.979556579806861 -29.786423190092219 6.8580556962355965 0 -0.85716730853699208 0.51503806187062418 1 0 0 1 I I #
point $-1 -16.979556579806861 -30.662896186476747 7.3846937852573333 #
edge $-1 $470 1 $470 0 $270 $-1 forward 7 unknown #
vertex $-1 $271 $471 #
ellipse-curve $-1 -11.404143252053068 -29.786423190092219 6.8580556962355965 0 -0.85716730853699208 0.51503806187062418 1 0 0 1 I I #
point $-1 -10.404143252053068 -30.662896186476747 7.3846937852573333 #
plane-surface $-1 0 32.351690247673893 0 0 -1 0 0 0 -1 forward_v I I I I #
coedge $-1 $472 $393 $278 $395 reversed $275 $-1 #
coedge $-1 $392 $403 $277 $394 reversed $275 $-1 #
edge $-1 $399 -10.195319188071236 $405 10.195319188071236 $393 $473 forward 7 unknown #
edge $-1 $397 -32.351690247673893 $399 32.351690247673893 $392 $474 forward 7 unknown #
coedge $-1 $279 $286 $472 $475 reversed $287 $-1 #
vertex $-1 $280 $476 #
straight-curve $-1 0 32.351690247673893 10.195319188071236 -1 0 0 I I #
vertex $-1 $395 $477 #
straight-curve $-1 0 -32.351690247673893 10.195319188071236 1 0 0 I I #
point $-1 68.247932370982994 -32.351690247673893 10.195319188071236 #
point $-1 68.247932370982994 32.351690247673893 10.195319188071236 #
coedge $-1 $393 $472 $291 $404 reversed $275 $-1 #
edge $-1 $405 -32.351690247673893 $407 32.351690247673893 $403 $478 forward 7 unknown #
vertex $-1 $404 $479 #
straight-curve $-1 0 -32.351690247673893 -10.195319188071236 -1 0 0 I I #
vertex $-1 $293 $480 #
straight-curve $-1 0 32.351690247673893 -10.195319188071236 1 0 0 I I #
loop $-1 $-1 $309 $296 #
plane-surface $-1 0 -32.351690247673893 0 0 1 0 0 0 1 forward_v I I I I #
coedge $-1 $300 $299 $419 $481 reversed $121 $-1 #
coedge $-1 $312 $311 $299 $413 forward $297 $-1 #
edge $-1 $482 -1.9171879708590502 $416 1.9171879708590502 $299 $483 forward 7 unknown #
edge $-1 $415 -1.9171879708590502 $420 1.9171879708590502 $300 $484 forward 7 unknown #
vertex $-1 $304 $485 #
vertex $-1 $315 $486 #
straight-curve $-1 -80.081385177454592 -28.517314305955793 0 0 0 -1 I I #
straight-curve $-1 -74.164658774218793 -28.517314305955793 10.195319188071236 -1 0 0 I I #
coedge $-1 $423 $305 $411 $481 forward $409 $-1 #
vertex $-1 $414 $487 #
straight-curve $-1 0 -32.351690247673893 10.195319188071236 1 0 0 I I #
point $-1 -68.247932370982994 -32.351690247673893 10.195319188071236 #
coedge $-1 $309 $419 $311 $425 reversed $409 $-1 #
straight-curve $-1 -68.247932370982994 -32.351690247673893 0 0 0 1 I I #
edge $-1 $313 -5.9167264032357991 $482 5.9167264032357991 $423 $488 forward 7 unknown #
point $-1 -68.247932370982994 -32.351690247673893 -10.195319188071236 #
straight-curve $-1 -74.164658774218793 -28.517314305955793 -10.195319188071236 1 0 0 I I #
plane-surface $-1 0 0 10.195319188071236 0 0 1 1 0 0 forward_v I I I I #
coedge $-1 $489 $490 $324 $433 forward $319 $-1 #
coedge $-1 $490 $489 $321 $431 reversed $319 $-1 #
edge $-1 $441 -10.195319188071236 $443 10.195319188071236 $430 $491 forward 7 unknown #
coedge $-1 $323 $322 $489 $492 forward $129 $-1 #
edge $-1 $437 -10.195319188071236 $434 10.195319188071236 $429 $493 forward 7 unknown #
vertex $-1 $433 $494 #
straight-curve $-1 74.164658774218793 -32.351690247673893 -10.195319188071236 -1 0 0 I I #
coedge $-1 $332 $326 $490 $495 forward $333 $-1 #
vertex $-1 $495 $496 #
straight-curve $-1 74.164658774218793 -32.351690247673893 10.195319188071236 1 0 0 I I #
point $-1 68.247932370982994 -32.351690247673893 10.195319188071236 #
point $-1 68.247932370982994 -32.351690247673893 -10.195319188071236 #
vertex $-1 $495 $497 #
straight-curve $-1 74.164658774218793 -28.517314305955793 10.195319188071236 -1 0 0 I I #
vertex $-1 $492 $498 #
straight-curve $-1 74.164658774218793 -28.517314305955793 -10.195319188071236 1 0 0 I I #
edge $-1 $446 54.061401845617056 $449 62.946644606916479 $340 $499 forward 7 unknown #
vertex $-1 $354 $500 #
straight-curve $-1 -44.58959695258546 56.909591296038684 10.195319188071238 0 1 0 I I #
edge $-1 $449 19.338577823311248 $351 31.163460435237177 $350 $501 forward 7 unknown #
vertex $-1 $448 $502 #
straight-curve $-1 -44.58959695258546 -1.9358767172503946 56.181655583486361 0 -0.52991925155115449 0.84804810408105047 I I #
point $-1 -44.58959695258546 26.799574546619155 10.195319188071238 #
point $-1 -56.414479564511389 32.351690247673893 1.3100764267718148 #
straight-curve $-1 0 32.351690247673893 10.195319188071236 -1 0 0 I I #
vertex $-1 $357 $503 #
point $-1 -51.535941675389694 28.286672781449379 4.9472664745255761 #
vertex $-1 $361 $504 #
point $-1 -46.468134841707148 28.286672781449379 4.9472664745255761 #
coedge $-1 $376 $375 $368 $459 forward $365 $-1 #
edge $-1 $460 27.24199781817898 $463 32.86324862380684 $458 $505 forward 7 unknown #
vertex $-1 $380 $506 #
straight-curve $-1 -22.36316546497606 -74.675741627487085 10.195319188071238 0 -1 0 I I #
edge $-1 $463 -15.017240507011078 $377 0.32539059108111346 $376 $507 forward 7 unknown #
vertex $-1 $462 $508 #
straight-curve $-1 -22.36316546497606 -32.351690247673872 4.5740683824434143 0 0.51503806187062418 0.85716730853699208 I I #
point $-1 -22.36316546497606 -28.974102125279568 10.195319188071236 #
point $-1 -7.0205343668838687 -32.351690247673893 4.5740683824433788 #
straight-curve $-1 74.164658774218793 -32.351690247673893 10.195319188071236 1 0 0 I I #
vertex $-1 $383 $509 #
point $-1 -16.979556579806861 -29.786423190092219 6.8580556962355965 #
vertex $-1 $387 $510 #
point $-1 -10.404143252053068 -29.786423190092219 6.8580556962355965 #
coedge $-1 $403 $392 $396 $475 forward $275 $-1 #
straight-curve $-1 -68.247932370982994 -32.351690247673893 0 0 0 -1 I I #
straight-curve $-1 -68.247932370982994 0 10.195319188071236 0 -1 0 I I #
edge $-1 $397 -10.195319188071236 $407 10.195319188071236 $396 $511 forward 7 unknown #
point $-1 -68.247932370982994 32.351690247673893 10.195319188071236 #
point $-1 -68.247932370982994 -32.351690247673893 10.195319188071236 #
straight-curve $-1 -68.247932370982994 0 -10.195319188071236 0 1 0 I I #
point $-1 -68.247932370982994 -32.351690247673893 -10.195319188071236 #
point $-1 -68.247932370982994 32.351690247673893 -10.195319188071236 #
edge $-1 $420 -10.195319188071236 $482 10.195319188071236 $411 $512 forward 7 unknown #
vertex $-1 $413 $513 #
straight-curve $-1 -80.081385177454592 -30.434502276814843 -10.195319188071236 0 1 0 I I #
straight-curve $-1 -80.081385177454592 -30.434502276814843 10.195319188071236 0 -1 0 I I #
point $-1 -80.081385177454592 -28.517314305955793 10.195319188071236 #
point $-1 -80.081385177454592 -28.517314305955793 -10.195319188071236 #
point $-1 -80.081385177454592 -32.351690247673893 10.195319188071236 #
straight-curve $-1 -74.164658774218793 -32.351690247673893 -10.195319188071236 -1 0 0 I I #
coedge $-1 $430 $429 $432 $492 reversed $319 $-1 #
coedge $-1 $429 $430 $436 $495 reversed $319 $-1 #
straight-curve $-1 80.081385177454592 -28.517314305955793 0 0 0 -1 I I #
edge $-1 $443 -1.9171879708590502 $434 1.9171879708590502 $489 $514 forward 7 unknown #
straight-curve $-1 80.081385177454592 -32.351690247673893 0 0 0 -1 I I #
point $-1 80.081385177454592 -32.351690247673893 -10.195319188071236 #
edge $-1 $437 -1.9171879708590502 $441 1.9171879708590502 $490 $515 forward 7 unknown #
point $-1 80.081385177454592 -32.351690247673893 10.195319188071236 #
point $-1 80.081385177454592 -28.517314305955793 10.195319188071236 #
point $-1 80.081385177454592 -28.517314305955793 -10.195319188071236 #
straight-curve $-1 -44.58959695258546 32.351690247673893 64.256721033688294 0 0 -1 I I #
point $-1 -44.58959695258546 32.351690247673893 10.195319188071236 #
straight-curve $-1 -25.251019129274212 32.351690247673893 1.3100764267718148 -1 0 0 I I #
point $-1 -44.58959695258546 32.351690247673893 1.3100764267718148 #
point $-1 -53.035941675389694 27.014600625327805 4.1523875971988433 #
point $-1 -47.968134841707148 27.014600625327805 4.1523875971988433 #
straight-curve $-1 -22.36316546497606 -32.351690247673893 37.437317006250218 0 0 -1 I I #
point $-1 -22.363165464976063 -32.351690247673893 10.195319188071236 #
straight-curve $-1 -7.3459249579649821 -32.351690247673893 4.5740683824433841 1 0 0 I I #
point $-1 -22.36316546497606 -32.351690247673893 4.5740683824433788 #
point $-1 -17.979556579806861 -28.929255881555225 6.3430176343649718 #
point $-1 -11.404143252053068 -28.929255881555225 6.3430176343649718 #
straight-curve $-1 -68.247932370982994 32.351690247673893 0 0 0 -1 I I #
straight-curve $-1 -80.081385177454592 -32.351690247673893 0 0 0 -1 I I #
point $-1 -80.081385177454592 -32.351690247673893 -10.195319188071236 #
straight-curve $-1 80.081385177454592 -30.434502276814843 -10.195319188071236 0 -1 0 I I #
straight-curve $-1 80.081385177454592 -30.434502276814843 10.195319188071236 0 1 0 I I #
End-of-ACIS-data 