500 0 8 0           
7 Unknown 11 ACIS 5.0 NT 24 Fri Mar 26 20:10:37 1999 
-1 9.9999999999999995e-007 1e-010 
body $-1 $8 $-1 $9 #
body $-1 $10 $-1 $11 #
body $-1 $12 $-1 $13 #
body $-1 $14 $-1 $15 #
body $-1 $16 $-1 $17 #
body $-1 $18 $-1 $19 #
body $-1 $20 $-1 $21 #
body $-1 $22 $-1 $23 #
lump $-1 $-1 $24 $0 #
transform $-1 1 0 0 0 1 0 0 0 1 71.868648335215312 47.056889632029488 9.9145895151098724 1 rotate no_reflect no_shear #
lump $-1 $-1 $25 $1 #
transform $-1 1 0 0 0 1 0 0 0 1 71.868648335215312 47.056889632029488 9.9145895151098724 1 rotate no_reflect no_shear #
lump $-1 $-1 $26 $2 #
transform $-1 1 0 0 0 1 0 0 0 1 71.868648335215312 47.056889632029488 9.9145895151098724 1 rotate no_reflect no_shear #
lump $-1 $-1 $27 $3 #
transform $-1 1 0 0 0 1 0 0 0 1 71.868648335215312 47.056889632029488 9.9145895151098724 1 rotate no_reflect no_shear #
lump $-1 $-1 $28 $4 #
transform $-1 1 0 0 0 1 0 0 0 1 71.868648335215312 47.056889632029488 9.9145895151098724 1 rotate no_reflect no_shear #
lump $-1 $-1 $29 $5 #
transform $-1 1 0 0 0 1 0 0 0 1 71.868648335215312 47.056889632029488 9.9145895151098724 1 rotate no_reflect no_shear #
lump $-1 $-1 $30 $6 #
transform $-1 1 0 0 0 1 0 0 0 1 71.868648335215312 47.056889632029488 9.9145895151098724 1 rotate no_reflect no_shear #
lump $-1 $-1 $31 $7 #
transform $-1 1 0 0 0 1 0 0 0 1 71.868648335215312 47.056889632029488 9.9145895151098724 1 rotate no_reflect no_shear #
shell $-1 $-1 $-1 $32 $-1 $8 #
shell $-1 $-1 $-1 $33 $-1 $10 #
shell $-1 $-1 $-1 $34 $-1 $12 #
shell $-1 $-1 $-1 $35 $-1 $14 #
shell $-1 $-1 $-1 $36 $-1 $16 #
shell $-1 $-1 $-1 $37 $-1 $18 #
shell $-1 $-1 $-1 $38 $-1 $20 #
shell $-1 $-1 $-1 $39 $-1 $22 #
face $-1 $40 $41 $24 $-1 $42 forward single #
face $-1 $43 $44 $25 $-1 $45 forward single #
face $-1 $46 $47 $26 $-1 $48 reversed single #
face $-1 $49 $50 $27 $-1 $51 forward single #
face $-1 $52 $53 $28 $-1 $54 forward single #
face $-1 $55 $56 $29 $-1 $57 reversed single #
face $-1 $58 $59 $30 $-1 $60 forward single #
face $-1 $61 $62 $31 $-1 $63 forward single #
face $-1 $64 $65 $24 $-1 $66 reversed single #
loop $-1 $-1 $67 $32 #
plane-surface $-1 0 0 9.9145895151098724 0 0 1 1 0 0 forward_v I I I I #
face $-1 $68 $69 $25 $-1 $70 reversed single #
loop $-1 $-1 $71 $33 #
plane-surface $-1 0 -43.301497168609487 -6.0842483587093508 0 0 1 1 0 0 forward_v I I I I #
face $-1 $72 $73 $26 $-1 $74 reversed single #
loop $-1 $-1 $75 $34 #
plane-surface $-1 -176.99145350379982 -11.527357084406145 101.44463910292158 0 1 0 -0.73135370988377701 0 0.68199835119979291 forward_v I I I I #
face $-1 $76 $77 $27 $-1 $78 forward single #
loop $-1 $79 $80 $35 #
cone-surface $-1 -68.019200510473155 -8.0626936092321344 5.9011651170431456 0.73135370988377701 0 -0.68199835119979291 1.0229975267996894 0 1.0970305648256655 1 I I 0 1 1.5 forward I I I I #
face $-1 $81 $82 $28 $-1 $83 forward single #
loop $-1 $84 $85 $36 #
cone-surface $-1 -68.019200510473155 -2.8656983964711102 5.9011651170431456 0.73135370988377701 0 -0.68199835119979291 1.0229975267996894 0 1.0970305648256655 1 I I 0 1 1.5 forward I I I I #
face $-1 $86 $87 $29 $-1 $88 reversed single #
loop $-1 $-1 $89 $37 #
plane-surface $-1 50.620602498975288 35.693864223722173 205.80223978412312 0 1 0 0.62932039886446345 0 0.77714595512881146 forward_v I I I I #
face $-1 $90 $91 $30 $-1 $92 forward single #
loop $-1 $93 $94 $38 #
cone-surface $-1 66.917872505787273 38.940442911809988 5.4477300306589429 -0.62932039886446345 0 -0.77714595512881146 1.1657189326932171 0 -0.94398059829669512 1 I I 0 1 1.5 forward I I I I #
face $-1 $95 $96 $31 $-1 $97 forward single #
loop $-1 $98 $99 $39 #
cone-surface $-1 66.917872505787273 43.810310943941694 5.4477300306589429 -0.62932039886446345 0 -0.77714595512881146 1.1657189326932171 0 -0.94398059829669512 1 I I 0 1 1.5 forward I I I I #
face $-1 $100 $101 $24 $-1 $102 reversed single #
loop $-1 $-1 $103 $40 #
plane-surface $-1 0 0 -9.9145895151098724 0 0 1 1 0 0 forward_v I I I I #
coedge $-1 $104 $105 $106 $107 forward $41 $-1 #
face $-1 $108 $109 $25 $-1 $110 reversed single #
loop $-1 $-1 $111 $43 #
plane-surface $-1 0 -39.546104705189485 -7.9994189369096116 0 -1 0 0 0 -1 forward_v I I I I #
coedge $-1 $112 $113 $114 $115 reversed $44 $-1 #
face $-1 $116 $117 $26 $-1 $118 reversed single #
loop $-1 $-1 $119 $46 #
plane-surface $-1 -71.868648335215312 -5.4641960028516152 3.4160397677724177 -0.73135370988377701 0 0.68199835119979291 0.68199835119979291 0 0.73135370988377701 forward_v I I I I #
coedge $-1 $120 $121 $122 $123 reversed $47 $-1 #
face $-1 $-1 $124 $27 $-1 $125 forward single #
loop $-1 $126 $127 $49 #
cone-surface $-1 -66.651235168406615 -8.0626936092321344 4.6255168292453028 0.73135370988377701 0 -0.68199835119979291 0.51149876339984468 0 0.54851528241283276 1 I I -0.70710678118654757 0.70710678118654757 0.75 forward I I I I #
loop $-1 $-1 $128 $35 #
coedge $-1 $80 $80 $129 $130 reversed $50 $-1 #
face $-1 $-1 $131 $28 $-1 $132 forward single #
loop $-1 $133 $134 $52 #
cone-surface $-1 -66.651235168406615 -2.8656983964711102 4.6255168292453028 0.73135370988377701 0 -0.68199835119979291 0.51149876339984468 0 0.54851528241283276 1 I I -0.70710678118654757 0.70710678118654757 0.75 forward I I I I #
loop $-1 $-1 $135 $36 #
coedge $-1 $85 $85 $136 $137 reversed $53 $-1 #
face $-1 $138 $139 $29 $-1 $140 reversed single #
loop $-1 $-1 $141 $55 #
plane-surface $-1 -39.836210373359833 41.375376927875827 94.097381075547972 0.62932039886446345 0 0.77714595512881146 0.77714595512881146 0 -0.62932039886446345 forward_v I I I I #
coedge $-1 $142 $143 $144 $145 reversed $56 $-1 #
face $-1 $-1 $146 $30 $-1 $147 forward single #
loop $-1 $148 $149 $58 #
cone-surface $-1 65.368991836613304 38.940442911809988 3.5350217358099147 -0.62932039886446345 0 -0.77714595512881146 0.58285946634660857 0 -0.47199029914834756 1 I I -0.70710678118654757 0.70710678118654757 0.75 forward I I I I #
loop $-1 $-1 $150 $38 #
coedge $-1 $94 $94 $151 $152 reversed $59 $-1 #
face $-1 $-1 $153 $31 $-1 $154 forward single #
loop $-1 $155 $156 $61 #
cone-surface $-1 65.368991836613304 43.810310943941694 3.5350217358099147 -0.62932039886446345 0 -0.77714595512881146 0.58285946634660857 0 -0.47199029914834756 1 I I -0.70710678118654757 0.70710678118654757 0.75 forward I I I I #
loop $-1 $-1 $157 $39 #
coedge $-1 $99 $99 $158 $159 reversed $62 $-1 #
face $-1 $160 $161 $24 $-1 $162 reversed single #
loop $-1 $-1 $163 $64 #
plane-surface $-1 0 -47.056889632029488 0 0 1 0 0 0 1 forward_v I I I I #
coedge $-1 $164 $165 $166 $167 forward $65 $-1 #
coedge $-1 $168 $67 $169 $170 forward $41 $-1 #
coedge $-1 $67 $168 $171 $172 forward $41 $-1 #
coedge $-1 $173 $174 $67 $107 reversed $175 $-1 #
edge $-1 $176 -47.056889632029488 $177 47.056889632029488 $106 $178 forward 7 unknown #
face $-1 $179 $180 $25 $-1 $181 reversed single #
loop $-1 $-1 $182 $68 #
plane-surface $-1 0 0 -9.9145895151098724 0 0 1 1 0 0 forward_v I I I I #
coedge $-1 $183 $184 $185 $186 reversed $69 $-1 #
coedge $-1 $187 $71 $184 $188 forward $44 $-1 #
coedge $-1 $71 $187 $189 $190 reversed $44 $-1 #
coedge $-1 $191 $185 $71 $115 forward $180 $-1 #
edge $-1 $192 17.895356120884742 $193 25.406141047724745 $114 $194 forward 7 unknown #
face $-1 $195 $196 $26 $-1 $197 forward single #
loop $-1 $-1 $198 $72 #
plane-surface $-1 -176.99145350379982 0.59896507870291416 101.44463910292158 0 -1 0 0.73135370988377701 0 -0.68199835119979291 forward_v I I I I #
coedge $-1 $199 $200 $201 $202 reversed $73 $-1 #
coedge $-1 $121 $75 $203 $204 reversed $47 $-1 #
coedge $-1 $75 $120 $199 $205 reversed $47 $-1 #
coedge $-1 $201 $206 $75 $123 forward $196 $-1 #
edge $-1 $207 16.627078416684597 $208 22.687073946861489 $122 $209 forward 7 unknown #
loop $-1 $-1 $129 $76 #
plane-surface $-1 -71.868648335215312 -5.4641960028516152 3.4160397677724177 -0.73135370988377701 0 0.68199835119979291 0.68199835119979291 0 0.73135370988377701 forward_v I I I I #
loop $-1 $-1 $210 $49 #
coedge $-1 $127 $127 $128 $211 reversed $77 $-1 #
coedge $-1 $128 $128 $127 $211 forward $79 $-1 #
coedge $-1 $129 $129 $80 $130 forward $124 $-1 #
edge $-1 $212 0 $212 6.2831853071796004 $129 $213 forward 7 unknown #
loop $-1 $-1 $136 $81 #
plane-surface $-1 -71.868648335215312 -5.4641960028516152 3.4160397677724177 -0.73135370988377701 0 0.68199835119979291 0.68199835119979291 0 0.73135370988377701 forward_v I I I I #
loop $-1 $-1 $214 $52 #
coedge $-1 $134 $134 $135 $215 reversed $82 $-1 #
coedge $-1 $135 $135 $134 $215 forward $84 $-1 #
coedge $-1 $136 $136 $85 $137 forward $131 $-1 #
edge $-1 $216 0 $216 6.2831853071796004 $136 $217 forward 7 unknown #
face $-1 $218 $219 $29 $-1 $220 forward single #
loop $-1 $-1 $221 $86 #
plane-surface $-1 0 47.056889632029488 0 0 -1 0 0 0 -1 forward_v I I I I #
coedge $-1 $222 $223 $224 $225 reversed $87 $-1 #
coedge $-1 $143 $89 $226 $227 reversed $56 $-1 #
coedge $-1 $89 $142 $222 $228 reversed $56 $-1 #
coedge $-1 $224 $229 $89 $145 forward $230 $-1 #
edge $-1 $231 92.986530376951691 $232 99.260551688848707 $144 $233 forward 7 unknown #
loop $-1 $-1 $151 $90 #
plane-surface $-1 -39.836210373359833 41.375376927875827 94.097381075547972 0.62932039886446345 0 0.77714595512881146 0.77714595512881146 0 -0.62932039886446345 forward_v I I I I #
loop $-1 $-1 $234 $58 #
coedge $-1 $149 $149 $150 $235 reversed $91 $-1 #
coedge $-1 $150 $150 $149 $235 forward $93 $-1 #
coedge $-1 $151 $151 $94 $152 forward $146 $-1 #
edge $-1 $236 0 $236 6.2831853071796004 $151 $237 forward 7 unknown #
loop $-1 $-1 $158 $95 #
plane-surface $-1 -39.836210373359833 41.375376927875827 94.097381075547972 0.62932039886446345 0 0.77714595512881146 0.77714595512881146 0 -0.62932039886446345 forward_v I I I I #
loop $-1 $-1 $238 $61 #
coedge $-1 $156 $156 $157 $239 reversed $96 $-1 #
coedge $-1 $157 $157 $156 $239 forward $98 $-1 #
coedge $-1 $158 $158 $99 $159 forward $153 $-1 #
edge $-1 $240 0 $240 6.2831853071796004 $158 $241 forward 7 unknown #
face $-1 $242 $243 $24 $-1 $244 reversed single #
loop $-1 $-1 $245 $100 #
plane-surface $-1 -71.868648335215312 0 0 1 0 0 0 0 -1 forward_v I I I I #
coedge $-1 $246 $171 $247 $248 forward $101 $-1 #
coedge $-1 $249 $103 $246 $250 forward $65 $-1 #
coedge $-1 $103 $249 $251 $252 forward $65 $-1 #
coedge $-1 $174 $173 $103 $167 reversed $175 $-1 #
edge $-1 $253 -47.056889632029488 $254 47.056889632029488 $166 $255 forward 7 unknown #
coedge $-1 $105 $104 $256 $257 forward $41 $-1 #
coedge $-1 $258 $259 $104 $170 reversed $243 $-1 #
edge $-1 $177 -71.868648335215312 $260 71.868648335215312 $169 $261 forward 7 unknown #
coedge $-1 $163 $262 $105 $172 reversed $101 $-1 #
edge $-1 $263 -71.868648335215312 $176 71.868648335215312 $171 $264 forward 7 unknown #
coedge $-1 $166 $106 $262 $265 forward $175 $-1 #
coedge $-1 $106 $166 $258 $266 reversed $175 $-1 #
loop $-1 $-1 $173 $242 #
vertex $-1 $107 $267 #
vertex $-1 $107 $268 #
straight-curve $-1 71.868648335215312 0 9.9145895151098724 0 1 0 I I #
face $-1 $269 $270 $25 $-1 $271 reversed single #
loop $-1 $-1 $185 $108 #
plane-surface $-1 71.868648335215312 0 0 -1 0 0 0 0 1 forward_v I I I I #
coedge $-1 $272 $273 $183 $274 forward $109 $-1 #
coedge $-1 $275 $111 $182 $274 reversed $69 $-1 #
coedge $-1 $111 $275 $112 $188 reversed $69 $-1 #
coedge $-1 $114 $276 $111 $186 forward $180 $-1 #
edge $-1 $277 -5.9148800466550666 $192 -2.084538890254545 $185 $278 forward 7 unknown #
coedge $-1 $113 $112 $279 $280 reversed $44 $-1 #
edge $-1 $192 -71.868648335215312 $281 71.868648335215312 $184 $282 forward 7 unknown #
coedge $-1 $283 $284 $113 $190 forward $270 $-1 #
edge $-1 $193 -71.868648335215312 $285 71.868648335215312 $189 $286 forward 7 unknown #
coedge $-1 $276 $114 $284 $287 forward $180 $-1 #
vertex $-1 $115 $288 #
vertex $-1 $287 $289 #
straight-curve $-1 71.868648335215312 -21.650748584304743 -6.0842483587093508 0 -1 0 I I #
face $-1 $-1 $290 $26 $-1 $291 reversed single #
loop $-1 $-1 $122 $116 #
plane-surface $-1 0 0 9.9145895151098724 0 0 1 1 0 0 forward_v I I I I #
coedge $-1 $292 $293 $294 $295 reversed $117 $-1 #
coedge $-1 $296 $119 $121 $205 forward $73 $-1 #
coedge $-1 $119 $296 $292 $297 forward $73 $-1 #
coedge $-1 $294 $122 $119 $202 forward $196 $-1 #
edge $-1 $208 -8.795259082980337 $298 3.3310630801287218 $201 $299 forward 7 unknown #
coedge $-1 $300 $301 $120 $204 forward $290 $-1 #
edge $-1 $302 -47.306279783688375 $207 -40.807730036350918 $203 $303 forward 7 unknown #
edge $-1 $208 -8.885645426438284 $302 0 $121 $304 forward 7 unknown #
coedge $-1 $122 $294 $300 $305 forward $196 $-1 #
vertex $-1 $204 $306 #
vertex $-1 $123 $307 #
straight-curve $-1 -88.495726751899909 -11.527357084406145 9.9145895151098742 1 0 0 I I #
coedge $-1 $210 $210 $-1 $308 reversed $126 $-1 #
edge $-1 $309 0 $309 6.2831853071796004 $127 $310 forward 7 unknown #
vertex $-1 $130 $311 #
ellipse-curve $-1 -68.838650570126859 -8.0626936092321344 6.6653146414411468 -0.73135370988377701 0 0.68199835119979291 1.0229975267996894 0 1.0970305648256655 1 I I #
coedge $-1 $214 $214 $-1 $312 reversed $133 $-1 #
edge $-1 $313 0 $313 6.2831853071796004 $134 $314 forward 7 unknown #
vertex $-1 $137 $315 #
ellipse-curve $-1 -68.838650570126859 -2.8656983964711102 6.6653146414411468 -0.73135370988377701 0 0.68199835119979291 1.0229975267996894 0 1.0970305648256655 1 I I #
face $-1 $-1 $230 $29 $-1 $316 reversed single #
loop $-1 $-1 $317 $138 #
plane-surface $-1 0 0 9.9145895151098724 0 0 1 1 0 0 forward_v I I I I #
coedge $-1 $318 $319 $223 $320 forward $139 $-1 #
coedge $-1 $321 $141 $143 $228 forward $87 $-1 #
coedge $-1 $141 $321 $221 $320 reversed $87 $-1 #
coedge $-1 $322 $144 $141 $225 forward $230 $-1 #
edge $-1 $232 15.006175759784259 $323 26.369201168091575 $224 $324 forward 7 unknown #
coedge $-1 $325 $317 $142 $227 forward $219 $-1 #
edge $-1 $326 38.810576166922878 $231 46.558347085727668 $226 $327 forward 7 unknown #
edge $-1 $232 -143.73729667043062 $326 -133.76777824512968 $143 $328 forward 7 unknown #
coedge $-1 $144 $322 $325 $329 reversed $230 $-1 #
loop $-1 $-1 $224 $218 #
vertex $-1 $329 $330 #
vertex $-1 $145 $331 #
straight-curve $-1 71.868648335215312 35.693864223722173 102.90111989206156 0 0 -1 I I #
coedge $-1 $234 $234 $-1 $332 reversed $148 $-1 #
edge $-1 $333 0 $333 6.2831853071796004 $149 $334 forward 7 unknown #
vertex $-1 $152 $335 #
ellipse-curve $-1 67.994762875812896 38.940442911809988 6.7775788591613644 0.62932039886446345 0 0.77714595512881146 1.1657189326932171 0 -0.94398059829669512 1 I I #
coedge $-1 $238 $238 $-1 $336 reversed $155 $-1 #
edge $-1 $337 0 $337 6.2831853071796004 $156 $338 forward 7 unknown #
vertex $-1 $159 $339 #
ellipse-curve $-1 67.994762875812896 43.810310943941694 6.7775788591613644 0.62932039886446345 0 0.77714595512881146 1.1657189326932171 0 -0.94398059829669512 1 I I #
face $-1 $-1 $175 $24 $-1 $340 reversed single #
loop $-1 $-1 $258 $160 #
plane-surface $-1 0 47.056889632029488 0 0 -1 0 0 0 -1 forward_v I I I I #
coedge $-1 $341 $256 $259 $342 forward $161 $-1 #
coedge $-1 $262 $163 $164 $250 reversed $101 $-1 #
coedge $-1 $256 $341 $163 $248 reversed $161 $-1 #
edge $-1 $263 -9.9145895151098724 $343 9.9145895151098724 $247 $344 forward 7 unknown #
coedge $-1 $165 $164 $341 $345 forward $65 $-1 #
edge $-1 $254 -71.868648335215312 $343 71.868648335215312 $246 $346 forward 7 unknown #
coedge $-1 $259 $258 $165 $252 reversed $243 $-1 #
edge $-1 $347 -71.868648335215312 $253 71.868648335215312 $251 $348 forward 7 unknown #
vertex $-1 $167 $349 #
vertex $-1 $265 $350 #
straight-curve $-1 71.868648335215312 0 -9.9145895151098724 0 -1 0 I I #
coedge $-1 $245 $247 $168 $257 reversed $161 $-1 #
edge $-1 $260 -47.056889632029488 $263 47.056889632029488 $256 $351 forward 7 unknown #
coedge $-1 $251 $169 $174 $266 forward $243 $-1 #
coedge $-1 $169 $251 $245 $342 reversed $243 $-1 #
vertex $-1 $170 $352 #
straight-curve $-1 0 47.056889632029488 9.9145895151098724 -1 0 0 I I #
coedge $-1 $171 $246 $173 $265 reversed $101 $-1 #
vertex $-1 $257 $353 #
straight-curve $-1 0 -47.056889632029488 9.9145895151098724 1 0 0 I I #
edge $-1 $176 -9.9145895151098724 $254 9.9145895151098724 $173 $354 forward 7 unknown #
edge $-1 $177 -9.9145895151098724 $253 9.9145895151098724 $174 $355 forward 7 unknown #
point $-1 71.868648335215312 -47.056889632029488 9.9145895151098724 #
point $-1 71.868648335215312 47.056889632029488 9.9145895151098724 #
face $-1 $-1 $356 $25 $-1 $357 reversed single #
loop $-1 $-1 $189 $179 #
plane-surface $-1 0 -47.056889632029488 0 0 1 0 0 0 1 forward_v I I I I #
coedge $-1 $358 $182 $276 $359 forward $109 $-1 #
coedge $-1 $182 $358 $360 $361 forward $109 $-1 #
edge $-1 $362 -71.868648335215312 $277 71.868648335215312 $182 $363 forward 7 unknown #
coedge $-1 $184 $183 $364 $365 reversed $69 $-1 #
coedge $-1 $185 $191 $272 $359 reversed $180 $-1 #
vertex $-1 $359 $366 #
straight-curve $-1 71.868648335215312 -39.546104705189485 -3.9997094684548058 0 0 1 I I #
coedge $-1 $364 $367 $187 $280 forward $356 $-1 #
edge $-1 $285 -25.406141047724745 $281 -17.895356120884742 $279 $368 forward 7 unknown #
vertex $-1 $280 $369 #
straight-curve $-1 0 -39.546104705189485 -6.0842483587093508 -1 0 0 I I #
coedge $-1 $370 $189 $367 $371 forward $270 $-1 #
coedge $-1 $189 $370 $191 $287 reversed $270 $-1 #
vertex $-1 $371 $372 #
straight-curve $-1 0 -47.056889632029488 -6.0842483587093508 -1 0 0 I I #
edge $-1 $193 6.0842483587093508 $373 9.9145895151098724 $191 $374 forward 7 unknown #
point $-1 71.868648335215312 -39.546104705189485 -6.0842483587093508 #
point $-1 71.868648335215312 -47.056889632029488 -6.0842483587093508 #
loop $-1 $-1 $203 $195 #
plane-surface $-1 -71.868648335215312 0 0 1 0 0 0 0 -1 forward_v I I I I #
coedge $-1 $293 $198 $200 $297 reversed $117 $-1 #
coedge $-1 $198 $292 $375 $376 reversed $117 $-1 #
coedge $-1 $206 $201 $198 $295 forward $196 $-1 #
edge $-1 $298 -22.687073946861489 $377 -16.627078416684597 $294 $378 forward 7 unknown #
coedge $-1 $200 $199 $301 $379 reversed $73 $-1 #
edge $-1 $380 0 $298 8.885645426438284 $292 $381 forward 7 unknown #
vertex $-1 $202 $382 #
straight-curve $-1 -65.80865280503842 -2.7320980014258076 9.9145895151098706 0 1 0 I I #
coedge $-1 $375 $203 $206 $305 reversed $290 $-1 #
coedge $-1 $203 $375 $296 $379 forward $290 $-1 #
vertex $-1 $204 $383 #
straight-curve $-1 -71.868648335215312 -11.527357084406145 50.722319551460792 0 0 1 I I #
straight-curve $-1 -71.868648335215312 -11.527357084406145 3.4160397677724177 -0.68199835119979291 0 -0.73135370988377701 I I #
edge $-1 $377 -0.59896507870291416 $207 11.527357084406145 $300 $384 forward 7 unknown #
point $-1 -71.868648335215312 -11.527357084406145 9.9145895151098724 #
point $-1 -65.80865280503842 -11.527357084406145 9.9145895151098724 #
edge $-1 $385 1 $385 0 $210 $-1 forward 7 unknown #
vertex $-1 $211 $386 #
ellipse-curve $-1 -67.199750450819451 -8.0626936092321344 5.1370155926451471 -0.73135370988377701 0 0.68199835119979291 1.0229975267996894 0 1.0970305648256655 1 I I #
point $-1 -67.815653043327174 -8.0626936092321344 7.7623452062668088 #
edge $-1 $387 1 $387 0 $214 $-1 forward 7 unknown #
vertex $-1 $215 $388 #
ellipse-curve $-1 -67.199750450819451 -2.8656983964711102 5.1370155926451471 -0.73135370988377701 0 0.68199835119979291 1.0229975267996894 0 1.0970305648256655 1 I I #
point $-1 -67.815653043327174 -2.8656983964711102 7.7623452062668088 #
plane-surface $-1 71.868648335215312 0 0 -1 0 0 0 0 1 forward_v I I I I #
coedge $-1 $226 $389 $321 $390 forward $219 $-1 #
coedge $-1 $319 $221 $389 $391 reversed $139 $-1 #
coedge $-1 $221 $318 $322 $392 forward $139 $-1 #
edge $-1 $323 -98.649321095489512 $393 -88.679802670188536 $221 $394 forward 7 unknown #
coedge $-1 $223 $222 $317 $390 reversed $87 $-1 #
coedge $-1 $229 $224 $319 $392 reversed $230 $-1 #
vertex $-1 $320 $395 #
straight-curve $-1 71.868648335215312 20.687688463937913 3.6405682032128652 0 1 0 I I #
coedge $-1 $389 $226 $229 $329 forward $219 $-1 #
vertex $-1 $227 $396 #
straight-curve $-1 25.310301249487644 35.693864223722173 9.9145895151098671 1 0 0 I I #
straight-curve $-1 -39.836210373359833 35.693864223722173 94.097381075547972 -0.77714595512881146 0 0.62932039886446345 I I #
edge $-1 $231 35.693864223722173 $397 47.056889632029488 $229 $398 forward 7 unknown #
point $-1 71.868648335215312 35.693864223722173 9.9145895151098724 #
point $-1 71.868648335215312 35.693864223722173 3.640568203212851 #
edge $-1 $399 1 $399 0 $234 $-1 forward 7 unknown #
vertex $-1 $235 $400 #
ellipse-curve $-1 65.840982135761649 38.940442911809988 4.1178812021565232 0.62932039886446345 0 0.77714595512881146 1.1657189326932171 0 -0.94398059829669512 1 I I #
point $-1 69.16048180850612 38.940442911809988 5.8335982608646688 #
edge $-1 $401 1 $401 0 $238 $-1 forward 7 unknown #
vertex $-1 $239 $402 #
ellipse-curve $-1 65.840982135761649 43.810310943941694 4.1178812021565232 0.62932039886446345 0 0.77714595512881146 1.1657189326932171 0 -0.94398059829669512 1 I I #
point $-1 69.16048180850612 43.810310943941694 5.8335982608646688 #
plane-surface $-1 71.868648335215312 0 0 -1 0 0 0 0 1 forward_v I I I I #
coedge $-1 $247 $245 $249 $345 reversed $161 $-1 #
edge $-1 $260 -9.9145895151098724 $347 9.9145895151098724 $259 $403 forward 7 unknown #
vertex $-1 $345 $404 #
straight-curve $-1 -71.868648335215312 -47.056889632029488 0 0 0 -1 I I #
edge $-1 $343 -47.056889632029488 $347 47.056889632029488 $341 $405 forward 7 unknown #
straight-curve $-1 0 -47.056889632029488 -9.9145895151098724 -1 0 0 I I #
vertex $-1 $252 $406 #
straight-curve $-1 0 47.056889632029488 -9.9145895151098724 1 0 0 I I #
point $-1 71.868648335215312 47.056889632029488 -9.9145895151098724 #
point $-1 71.868648335215312 -47.056889632029488 -9.9145895151098724 #
straight-curve $-1 -71.868648335215312 0 9.9145895151098724 0 -1 0 I I #
point $-1 -71.868648335215312 47.056889632029488 9.9145895151098724 #
point $-1 -71.868648335215312 -47.056889632029488 9.9145895151098724 #
straight-curve $-1 71.868648335215312 -47.056889632029488 0 0 0 -1 I I #
straight-curve $-1 71.868648335215312 47.056889632029488 0 0 0 -1 I I #
loop $-1 $-1 $364 $269 #
plane-surface $-1 -71.868648335215312 0 0 1 0 0 0 0 -1 forward_v I I I I #
coedge $-1 $273 $272 $370 $407 forward $109 $-1 #
edge $-1 $277 39.546104705189485 $373 47.056889632029488 $276 $408 forward 7 unknown #
coedge $-1 $367 $364 $273 $361 reversed $356 $-1 #
edge $-1 $409 -47.056889632029488 $362 -39.546104705189485 $360 $410 forward 7 unknown #
vertex $-1 $365 $411 #
straight-curve $-1 0 -39.546104705189485 -9.9145895151098724 1 0 0 I I #
coedge $-1 $360 $279 $275 $365 forward $356 $-1 #
edge $-1 $281 2.084538890254545 $362 5.9148800466550666 $364 $412 forward 7 unknown #
point $-1 71.868648335215312 -39.546104705189485 -9.9145895151098724 #
coedge $-1 $279 $360 $283 $371 reversed $356 $-1 #
straight-curve $-1 -71.868648335215312 -21.650748584304743 -6.0842483587093508 0 1 0 I I #
point $-1 -71.868648335215312 -39.546104705189485 -6.0842483587093508 #
coedge $-1 $284 $283 $358 $407 reversed $270 $-1 #
edge $-1 $285 6.0842483587093508 $409 9.9145895151098724 $367 $413 forward 7 unknown #
point $-1 -71.868648335215312 -47.056889632029488 -6.0842483587093508 #
vertex $-1 $287 $414 #
straight-curve $-1 71.868648335215312 -47.056889632029488 0 0 0 -1 I I #
coedge $-1 $301 $300 $293 $376 forward $290 $-1 #
edge $-1 $377 40.807730036350918 $380 47.306279783688375 $375 $415 forward 7 unknown #
vertex $-1 $305 $416 #
straight-curve $-1 -88.495726751899909 0.59896507870291416 9.9145895151098742 -1 0 0 I I #
edge $-1 $380 -3.3310630801287218 $302 8.795259082980337 $301 $417 forward 7 unknown #
vertex $-1 $379 $418 #
straight-curve $-1 -71.868648335215312 0.59896507870291416 3.4160397677724177 0.68199835119979291 0 0.73135370988377701 I I #
point $-1 -65.80865280503842 0.59896507870291416 9.9145895151098724 #
point $-1 -71.868648335215312 -11.527357084406145 3.4160397677724177 #
straight-curve $-1 -71.868648335215312 0 9.9145895151098724 0 -1 0 I I #
vertex $-1 $308 $419 #
point $-1 -66.176752924019752 -8.0626936092321344 6.2340461574708126 #
vertex $-1 $312 $420 #
point $-1 -66.176752924019752 -2.8656983964711102 6.2340461574708126 #
coedge $-1 $317 $325 $318 $391 forward $219 $-1 #
edge $-1 $393 -26.369201168091568 $326 -15.006175759784259 $317 $421 forward 7 unknown #
edge $-1 $397 -71.868648335215312 $393 -64.120877416410522 $318 $422 forward 7 unknown #
edge $-1 $397 -9.9145895151098724 $323 -3.6405682032128568 $322 $423 forward 7 unknown #
vertex $-1 $320 $424 #
straight-curve $-1 -4.7962725303476859 47.056889632029488 65.722598302734838 -0.77714595512881146 0 0.62932039886446345 I I #
point $-1 71.868648335215312 47.056889632029488 3.6405682032128568 #
point $-1 64.120877416410522 35.693864223722173 9.9145895151098671 #
vertex $-1 $329 $425 #
straight-curve $-1 71.868648335215312 0 9.9145895151098724 0 1 0 I I #
vertex $-1 $332 $426 #
point $-1 67.006701068454873 38.940442911809988 3.1739006038598281 #
vertex $-1 $336 $427 #
point $-1 67.006701068454873 43.810310943941694 3.1739006038598281 #
straight-curve $-1 -71.868648335215312 47.056889632029488 0 0 0 -1 I I #
point $-1 -71.868648335215312 -47.056889632029488 -9.9145895151098724 #
straight-curve $-1 -71.868648335215312 0 -9.9145895151098724 0 1 0 I I #
point $-1 -71.868648335215312 47.056889632029488 -9.9145895151098724 #
edge $-1 $373 -71.868648335215312 $409 71.868648335215312 $370 $428 forward 7 unknown #
straight-curve $-1 71.868648335215312 0 -9.9145895151098724 0 -1 0 I I #
vertex $-1 $361 $429 #
straight-curve $-1 -71.868648335215312 0 -9.9145895151098724 0 1 0 I I #
point $-1 -71.868648335215312 -39.546104705189485 -9.9145895151098724 #
straight-curve $-1 -71.868648335215312 -39.546104705189485 -3.9997094684548058 0 0 -1 I I #
straight-curve $-1 -71.868648335215312 -47.056889632029488 0 0 0 -1 I I #
point $-1 71.868648335215312 -47.056889632029488 -9.9145895151098724 #
straight-curve $-1 -71.868648335215312 0.59896507870291416 50.722319551460792 0 0 -1 I I #
point $-1 -71.868648335215312 0.59896507870291416 9.9145895151098724 #
straight-curve $-1 -71.868648335215312 -2.7320980014258076 3.4160397677724181 0 -1 0 I I #
point $-1 -71.868648335215312 0.59896507870291416 3.4160397677724177 #
point $-1 -66.102719885993778 -8.0626936092321344 4.1140180658454586 #
point $-1 -66.102719885993778 -2.8656983964711102 4.1140180658454586 #
straight-curve $-1 64.120877416410508 20.687688463937913 9.9145895151098742 0 -1 0 I I #
straight-curve $-1 0 47.056889632029488 9.9145895151098724 -1 0 0 I I #
straight-curve $-1 71.868648335215312 47.056889632029488 0 0 0 -1 I I #
point $-1 64.120877416410522 47.056889632029481 9.9145895151098671 #
point $-1 71.868648335215312 47.056889632029488 9.9145895151098724 #
point $-1 64.897001537464959 38.940442911809988 2.9521622694633063 #
point $-1 64.897001537464959 43.810310943941694 2.9521622694633063 #
straight-curve $-1 0 -47.056889632029488 -9.9145895151098724 -1 0 0 I I #
point $-1 -71.868648335215312 -47.056889632029488 -9.9145895151098724 #
End-of-ACIS-data 