500 0 14 0           
7 Unknown 11 ACIS 5.0 NT 24 Fri Mar 26 00:13:14 1999 
-1 9.9999999999999995e-007 1e-010 
body $-1 $14 $-1 $15 #
body $-1 $16 $-1 $17 #
body $-1 $18 $-1 $19 #
body $-1 $20 $-1 $21 #
body $-1 $22 $-1 $23 #
body $-1 $24 $-1 $25 #
body $-1 $26 $-1 $27 #
body $-1 $28 $-1 $29 #
body $-1 $30 $-1 $31 #
body $-1 $32 $-1 $33 #
body $-1 $34 $-1 $35 #
body $-1 $36 $-1 $37 #
body $-1 $38 $-1 $39 #
body $-1 $40 $-1 $41 #
lump $-1 $-1 $42 $0 #
transform $-1 1 0 0 0 1 0 0 0 1 67.514267403180028 30.408515049176057 12.237276615022893 1 rotate no_reflect no_shear #
lump $-1 $-1 $43 $1 #
transform $-1 1 0 0 0 1 0 0 0 1 67.514267403180028 30.408515049176057 12.237276615022893 1 rotate no_reflect no_shear #
lump $-1 $-1 $44 $2 #
transform $-1 1 0 0 0 1 0 0 0 1 67.514267403180028 30.408515049176057 12.237276615022893 1 rotate no_reflect no_shear #
lump $-1 $-1 $45 $3 #
transform $-1 1 0 0 0 1 0 0 0 1 67.514267403180028 30.408515049176057 12.237276615022893 1 rotate no_reflect no_shear #
lump $-1 $-1 $46 $4 #
transform $-1 1 0 0 0 1 0 0 0 1 67.514267403180028 30.408515049176057 12.237276615022893 1 rotate no_reflect no_shear #
lump $-1 $-1 $47 $5 #
transform $-1 1 0 0 0 1 0 0 0 1 67.514267403180028 30.408515049176057 12.237276615022893 1 rotate no_reflect no_shear #
lump $-1 $-1 $48 $6 #
transform $-1 1 0 0 0 1 0 0 0 1 67.514267403180028 30.408515049176057 12.237276615022893 1 rotate no_reflect no_shear #
lump $-1 $-1 $49 $7 #
transform $-1 1 0 0 0 1 0 0 0 1 67.514267403180028 30.408515049176057 12.237276615022893 1 rotate no_reflect no_shear #
lump $-1 $-1 $50 $8 #
transform $-1 1 0 0 0 1 0 0 0 1 67.514267403180028 30.408515049176057 12.237276615022893 1 rotate no_reflect no_shear #
lump $-1 $-1 $51 $9 #
transform $-1 1 0 0 0 1 0 0 0 1 67.514267403180028 30.408515049176057 12.237276615022893 1 rotate no_reflect no_shear #
lump $-1 $-1 $52 $10 #
transform $-1 1 0 0 0 1 0 0 0 1 67.514267403180028 30.408515049176057 12.237276615022893 1 rotate no_reflect no_shear #
lump $-1 $-1 $53 $11 #
transform $-1 1 0 0 0 1 0 0 0 1 67.514267403180028 30.408515049176057 12.237276615022893 1 rotate no_reflect no_shear #
lump $-1 $-1 $54 $12 #
transform $-1 1 0 0 0 1 0 0 0 1 67.514267403180028 30.408515049176057 12.237276615022893 1 rotate no_reflect no_shear #
lump $-1 $-1 $55 $13 #
transform $-1 1 0 0 0 1 0 0 0 1 67.514267403180028 30.408515049176057 12.237276615022893 1 rotate no_reflect no_shear #
shell $-1 $-1 $-1 $56 $-1 $14 #
shell $-1 $-1 $-1 $57 $-1 $16 #
shell $-1 $-1 $-1 $58 $-1 $18 #
shell $-1 $-1 $-1 $59 $-1 $20 #
shell $-1 $-1 $-1 $60 $-1 $22 #
shell $-1 $-1 $-1 $61 $-1 $24 #
shell $-1 $-1 $-1 $62 $-1 $26 #
shell $-1 $-1 $-1 $63 $-1 $28 #
shell $-1 $-1 $-1 $64 $-1 $30 #
shell $-1 $-1 $-1 $65 $-1 $32 #
shell $-1 $-1 $-1 $66 $-1 $34 #
shell $-1 $-1 $-1 $67 $-1 $36 #
shell $-1 $-1 $-1 $68 $-1 $38 #
shell $-1 $-1 $-1 $69 $-1 $40 #
face $-1 $70 $71 $42 $-1 $72 forward single #
face $-1 $73 $74 $43 $-1 $75 forward single #
face $-1 $76 $77 $44 $-1 $78 reversed single #
face $-1 $79 $80 $45 $-1 $81 forward single #
face $-1 $82 $83 $46 $-1 $84 forward single #
face $-1 $85 $86 $47 $-1 $87 reversed single #
face $-1 $88 $89 $48 $-1 $90 forward single #
face $-1 $91 $92 $49 $-1 $93 forward single #
face $-1 $94 $95 $50 $-1 $96 reversed single #
face $-1 $97 $98 $51 $-1 $99 forward single #
face $-1 $100 $101 $52 $-1 $102 forward single #
face $-1 $103 $104 $53 $-1 $105 reversed single #
face $-1 $106 $107 $54 $-1 $108 forward single #
face $-1 $109 $110 $55 $-1 $111 forward single #
face $-1 $112 $113 $42 $-1 $114 reversed single #
loop $-1 $-1 $115 $56 #
plane-surface $-1 0 0 12.237276615022893 0 0 1 1 0 0 forward_v I I I I #
face $-1 $116 $117 $43 $-1 $118 reversed single #
loop $-1 $-1 $119 $57 #
plane-surface $-1 -67.514267403180028 0 0 1 0 0 0 0 -1 forward_v I I I I #
face $-1 $120 $121 $44 $-1 $122 reversed single #
loop $-1 $-1 $123 $58 #
plane-surface $-1 -30.231508042157795 45.253690544191812 152.46525830527449 1 0 0 0 -0.50000000669873634 -0.8660253999169214 forward_v I I I I #
face $-1 $124 $125 $45 $-1 $126 forward single #
loop $-1 $127 $128 $59 #
cone-surface $-1 -23.547087666985242 22.109612513712054 4.9818302740129097 0 -0.50000000669873634 -0.8660253999169214 2.5 0 0 1 I I 0 1 2.5 forward I I I I #
face $-1 $129 $130 $46 $-1 $131 forward single #
loop $-1 $132 $133 $60 #
cone-surface $-1 -13.520457104226409 22.109612513712054 4.9818302740129097 0 -0.50000000669873634 -0.8660253999169214 2.5 0 0 1 I I 0 1 2.5 forward I I I I #
face $-1 $134 $135 $47 $-1 $136 reversed single #
loop $-1 $-1 $137 $61 #
plane-surface $-1 17.359011573990774 45.253690544191812 152.46525830527449 1 0 0 0 -0.50000000669873634 -0.8660253999169214 forward_v I I I I #
face $-1 $138 $139 $48 $-1 $140 forward single #
loop $-1 $141 $142 $62 #
cone-surface $-1 24.04343194916332 22.109612513712054 4.9818302740129097 0 -0.50000000669873634 -0.8660253999169214 2.5 0 0 1 I I 0 1 2.5 forward I I I I #
face $-1 $143 $144 $49 $-1 $145 forward single #
loop $-1 $146 $147 $63 #
cone-surface $-1 34.07006251192216 22.109612513712054 4.9818302740129097 0 -0.50000000669873634 -0.8660253999169214 2.5 0 0 1 I I 0 1 2.5 forward I I I I #
face $-1 $148 $149 $50 $-1 $150 reversed single #
loop $-1 $-1 $151 $64 #
plane-surface $-1 -6.8360367290538626 -97.92278335687665 122.05674284870119 -1 0 0 0 -0.50000000669873634 0.8660253999169214 forward_v I I I I #
face $-1 $152 $153 $51 $-1 $154 forward single #
loop $-1 $155 $156 $65 #
cone-surface $-1 -23.547087666985242 -22.109612513712062 4.9818302740129132 0 0.50000000669873634 -0.8660253999169214 2.5 0 0 1 I I 0 1 2.5 forward I I I I #
face $-1 $157 $158 $52 $-1 $159 forward single #
loop $-1 $160 $161 $66 #
cone-surface $-1 -13.520457104226409 -22.109612513712062 4.9818302740129132 0 0.50000000669873634 -0.8660253999169214 2.5 0 0 1 I I 0 1 2.5 forward I I I I #
face $-1 $162 $163 $53 $-1 $164 reversed single #
loop $-1 $-1 $165 $67 #
plane-surface $-1 40.75448288709471 -97.92278335687665 122.05674284870119 -1 0 0 0 -0.50000000669873634 0.8660253999169214 forward_v I I I I #
face $-1 $166 $167 $54 $-1 $168 forward single #
loop $-1 $169 $170 $68 #
cone-surface $-1 24.04343194916332 -22.109612513712062 4.9818302740129132 0 0.50000000669873634 -0.8660253999169214 2.5 0 0 1 I I 0 1 2.5 forward I I I I #
face $-1 $171 $172 $55 $-1 $173 forward single #
loop $-1 $174 $175 $69 #
cone-surface $-1 34.07006251192216 -22.109612513712062 4.9818302740129132 0 0.50000000669873634 -0.8660253999169214 2.5 0 0 1 I I 0 1 2.5 forward I I I I #
face $-1 $176 $177 $42 $-1 $178 reversed single #
loop $-1 $-1 $179 $70 #
plane-surface $-1 0 0 -12.237276615022893 0 0 1 1 0 0 forward_v I I I I #
coedge $-1 $180 $181 $182 $183 forward $71 $-1 #
face $-1 $184 $185 $43 $-1 $186 reversed single #
loop $-1 $-1 $187 $73 #
plane-surface $-1 0 30.408515049176057 0 0 -1 0 0 0 -1 forward_v I I I I #
coedge $-1 $188 $189 $190 $191 forward $74 $-1 #
face $-1 $192 $193 $44 $-1 $194 reversed single #
loop $-1 $-1 $195 $76 #
plane-surface $-1 -18.533772385605829 -22.260577763508763 35.527117449400578 0 0.50000000669873634 0.8660253999169214 1 0 0 forward_v I I I I #
coedge $-1 $196 $197 $198 $199 reversed $77 $-1 #
face $-1 $-1 $200 $45 $-1 $201 forward single #
loop $-1 $202 $203 $79 #
cone-surface $-1 -23.547087666985242 19.350662923845267 0.20318949420459731 0 -0.50000000669873634 -0.8660253999169214 1.25 0 0 1 I I -0.70710678118654746 0.70710678118654746 1.25 forward I I I I #
loop $-1 $-1 $204 $59 #
coedge $-1 $128 $128 $205 $206 reversed $80 $-1 #
face $-1 $-1 $207 $46 $-1 $208 forward single #
loop $-1 $209 $210 $82 #
cone-surface $-1 -13.520457104226409 19.350662923845267 0.20318949420459731 0 -0.50000000669873634 -0.8660253999169214 1.25 0 0 1 I I -0.70710678118654746 0.70710678118654746 1.25 forward I I I I #
loop $-1 $-1 $211 $60 #
coedge $-1 $133 $133 $212 $213 reversed $83 $-1 #
face $-1 $214 $215 $47 $-1 $216 reversed single #
loop $-1 $-1 $217 $85 #
plane-surface $-1 29.05674723054274 -22.260577763508763 35.527117449400578 0 0.50000000669873634 0.8660253999169214 1 0 0 forward_v I I I I #
coedge $-1 $218 $219 $220 $221 reversed $86 $-1 #
face $-1 $-1 $222 $48 $-1 $223 forward single #
loop $-1 $224 $225 $88 #
cone-surface $-1 24.04343194916332 19.350662923845267 0.20318949420459731 0 -0.50000000669873634 -0.8660253999169214 1.25 0 0 1 I I -0.70710678118654746 0.70710678118654746 1.25 forward I I I I #
loop $-1 $-1 $226 $62 #
coedge $-1 $142 $142 $227 $228 reversed $89 $-1 #
face $-1 $-1 $229 $49 $-1 $230 forward single #
loop $-1 $231 $232 $91 #
cone-surface $-1 34.07006251192216 19.350662923845267 0.20318949420459731 0 -0.50000000669873634 -0.8660253999169214 1.25 0 0 1 I I -0.70710678118654746 0.70710678118654746 1.25 forward I I I I #
loop $-1 $-1 $233 $63 #
coedge $-1 $147 $147 $234 $235 reversed $92 $-1 #
face $-1 $236 $237 $50 $-1 $238 reversed single #
loop $-1 $-1 $239 $94 #
plane-surface $-1 -18.533772385605829 -30.408515049176074 5.1186019928272799 0 -0.50000000669873634 0.8660253999169214 1 0 0 forward_v I I I I #
coedge $-1 $240 $241 $242 $243 reversed $95 $-1 #
face $-1 $-1 $244 $51 $-1 $245 forward single #
loop $-1 $246 $247 $97 #
cone-surface $-1 -23.547087666985242 -19.350662923845274 0.20318949420460086 0 0.50000000669873634 -0.8660253999169214 1.25 0 0 1 I I -0.70710678118654746 0.70710678118654746 1.25 forward I I I I #
loop $-1 $-1 $248 $65 #
coedge $-1 $156 $156 $249 $250 reversed $98 $-1 #
face $-1 $-1 $251 $52 $-1 $252 forward single #
loop $-1 $253 $254 $100 #
cone-surface $-1 -13.520457104226409 -19.350662923845274 0.20318949420460086 0 0.50000000669873634 -0.8660253999169214 1.25 0 0 1 I I -0.70710678118654746 0.70710678118654746 1.25 forward I I I I #
loop $-1 $-1 $255 $66 #
coedge $-1 $161 $161 $256 $257 reversed $101 $-1 #
face $-1 $258 $259 $53 $-1 $260 reversed single #
loop $-1 $-1 $261 $103 #
plane-surface $-1 29.05674723054274 -30.408515049176074 5.1186019928272799 0 -0.50000000669873634 0.8660253999169214 1 0 0 forward_v I I I I #
coedge $-1 $262 $263 $264 $265 reversed $104 $-1 #
face $-1 $-1 $266 $54 $-1 $267 forward single #
loop $-1 $268 $269 $106 #
cone-surface $-1 24.04343194916332 -19.350662923845274 0.20318949420460086 0 0.50000000669873634 -0.8660253999169214 1.25 0 0 1 I I -0.70710678118654746 0.70710678118654746 1.25 forward I I I I #
loop $-1 $-1 $270 $68 #
coedge $-1 $170 $170 $271 $272 reversed $107 $-1 #
face $-1 $-1 $273 $55 $-1 $274 forward single #
loop $-1 $275 $276 $109 #
cone-surface $-1 34.07006251192216 -19.350662923845274 0.20318949420460086 0 0.50000000669873634 -0.8660253999169214 1.25 0 0 1 I I -0.70710678118654746 0.70710678118654746 1.25 forward I I I I #
loop $-1 $-1 $277 $69 #
coedge $-1 $175 $175 $278 $279 reversed $110 $-1 #
face $-1 $280 $281 $42 $-1 $282 reversed single #
loop $-1 $-1 $283 $112 #
plane-surface $-1 0 -30.408515049176057 0 0 1 0 0 0 1 forward_v I I I I #
coedge $-1 $284 $285 $286 $287 forward $113 $-1 #
coedge $-1 $288 $115 $289 $290 forward $71 $-1 #
coedge $-1 $115 $288 $291 $292 forward $71 $-1 #
coedge $-1 $293 $294 $115 $183 reversed $295 $-1 #
edge $-1 $296 -30.408515049176057 $297 30.408515049176057 $182 $298 forward 7 unknown #
face $-1 $299 $300 $43 $-1 $301 reversed single #
loop $-1 $-1 $190 $116 #
plane-surface $-1 -72.775754825648491 0 8.4661174670026877 0 0 1 1 0 0 forward_v I I I I #
coedge $-1 $302 $303 $188 $304 forward $117 $-1 #
coedge $-1 $305 $119 $187 $304 reversed $74 $-1 #
coedge $-1 $119 $305 $306 $307 reversed $74 $-1 #
coedge $-1 $308 $309 $119 $191 reversed $185 $-1 #
edge $-1 $310 -30.408515049176057 $311 30.408515049176057 $190 $312 forward 7 unknown #
face $-1 $313 $314 $44 $-1 $315 forward single #
loop $-1 $-1 $316 $120 #
plane-surface $-1 -6.8360367290538626 45.253690544191812 152.46525830527449 -1 0 0 0 0.50000000669873634 0.8660253999169214 forward_v I I I I #
coedge $-1 $317 $318 $319 $320 reversed $121 $-1 #
coedge $-1 $197 $123 $321 $322 reversed $77 $-1 #
coedge $-1 $123 $196 $317 $323 reversed $77 $-1 #
coedge $-1 $319 $324 $123 $199 forward $314 $-1 #
edge $-1 $325 -7.7816697770801504 $326 4.5482361308610635 $198 $327 forward 7 unknown #
loop $-1 $-1 $205 $124 #
plane-surface $-1 -18.533772385605829 -22.260577763508763 35.527117449400578 0 0.50000000669873634 0.8660253999169214 1 0 0 forward_v I I I I #
loop $-1 $-1 $328 $79 #
coedge $-1 $203 $203 $204 $329 reversed $125 $-1 #
coedge $-1 $204 $204 $203 $329 forward $127 $-1 #
coedge $-1 $205 $205 $128 $206 forward $200 $-1 #
edge $-1 $330 5.1014761799406246e-017 $330 6.2831853071796004 $205 $331 forward 7 unknown #
loop $-1 $-1 $212 $129 #
plane-surface $-1 -18.533772385605829 -22.260577763508763 35.527117449400578 0 0.50000000669873634 0.8660253999169214 1 0 0 forward_v I I I I #
loop $-1 $-1 $332 $82 #
coedge $-1 $210 $210 $211 $333 reversed $130 $-1 #
coedge $-1 $211 $211 $210 $333 forward $132 $-1 #
coedge $-1 $212 $212 $133 $213 forward $207 $-1 #
edge $-1 $334 5.1014761799406246e-017 $334 6.2831853071796004 $212 $335 forward 7 unknown #
face $-1 $336 $337 $47 $-1 $338 forward single #
loop $-1 $-1 $339 $134 #
plane-surface $-1 40.75448288709471 45.253690544191812 152.46525830527449 -1 0 0 0 0.50000000669873634 0.8660253999169214 forward_v I I I I #
coedge $-1 $340 $341 $342 $343 reversed $135 $-1 #
coedge $-1 $219 $137 $344 $345 reversed $86 $-1 #
coedge $-1 $137 $218 $340 $346 reversed $86 $-1 #
coedge $-1 $342 $347 $137 $221 forward $337 $-1 #
edge $-1 $348 -7.7816697770801504 $349 4.5482361308610635 $220 $350 forward 7 unknown #
loop $-1 $-1 $227 $138 #
plane-surface $-1 29.05674723054274 -22.260577763508763 35.527117449400578 0 0.50000000669873634 0.8660253999169214 1 0 0 forward_v I I I I #
loop $-1 $-1 $351 $88 #
coedge $-1 $225 $225 $226 $352 reversed $139 $-1 #
coedge $-1 $226 $226 $225 $352 forward $141 $-1 #
coedge $-1 $227 $227 $142 $228 forward $222 $-1 #
edge $-1 $353 5.1014761799406246e-017 $353 6.2831853071796004 $227 $354 forward 7 unknown #
loop $-1 $-1 $234 $143 #
plane-surface $-1 29.05674723054274 -22.260577763508763 35.527117449400578 0 0.50000000669873634 0.8660253999169214 1 0 0 forward_v I I I I #
loop $-1 $-1 $355 $91 #
coedge $-1 $232 $232 $233 $356 reversed $144 $-1 #
coedge $-1 $233 $233 $232 $356 forward $146 $-1 #
coedge $-1 $234 $234 $147 $235 forward $229 $-1 #
edge $-1 $357 5.1014761799406246e-017 $357 6.2831853071796004 $234 $358 forward 7 unknown #
face $-1 $359 $360 $50 $-1 $361 reversed single #
loop $-1 $-1 $362 $148 #
plane-surface $-1 -30.231508042157795 -97.92278335687665 122.05674284870119 1 0 0 0 0.50000000669873634 -0.8660253999169214 forward_v I I I I #
coedge $-1 $363 $364 $365 $366 reversed $149 $-1 #
coedge $-1 $241 $151 $367 $368 reversed $95 $-1 #
coedge $-1 $151 $240 $363 $369 reversed $95 $-1 #
coedge $-1 $365 $370 $151 $243 forward $371 $-1 #
edge $-1 $372 18.552876629262268 $373 30.882782537203461 $242 $374 forward 7 unknown #
loop $-1 $-1 $249 $152 #
plane-surface $-1 -18.533772385605829 -30.408515049176074 5.1186019928272799 0 -0.50000000669873634 0.8660253999169214 1 0 0 forward_v I I I I #
loop $-1 $-1 $375 $97 #
coedge $-1 $247 $247 $248 $376 reversed $153 $-1 #
coedge $-1 $248 $248 $247 $376 forward $155 $-1 #
coedge $-1 $249 $249 $156 $250 forward $244 $-1 #
edge $-1 $377 8.2440997935021382e-016 $377 6.2831853071796013 $249 $378 forward 7 unknown #
loop $-1 $-1 $256 $157 #
plane-surface $-1 -18.533772385605829 -30.408515049176074 5.1186019928272799 0 -0.50000000669873634 0.8660253999169214 1 0 0 forward_v I I I I #
loop $-1 $-1 $379 $100 #
coedge $-1 $254 $254 $255 $380 reversed $158 $-1 #
coedge $-1 $255 $255 $254 $380 forward $160 $-1 #
coedge $-1 $256 $256 $161 $257 forward $251 $-1 #
edge $-1 $381 8.2440997935021382e-016 $381 6.2831853071796013 $256 $382 forward 7 unknown #
face $-1 $383 $384 $53 $-1 $385 reversed single #
loop $-1 $-1 $386 $162 #
plane-surface $-1 17.359011573990774 -97.92278335687665 122.05674284870119 1 0 0 0 0.50000000669873634 -0.8660253999169214 forward_v I I I I #
coedge $-1 $387 $388 $389 $390 reversed $163 $-1 #
coedge $-1 $263 $165 $391 $392 reversed $104 $-1 #
coedge $-1 $165 $262 $387 $393 reversed $104 $-1 #
coedge $-1 $389 $394 $165 $265 forward $395 $-1 #
edge $-1 $396 18.552876629262268 $397 30.882782537203461 $264 $398 forward 7 unknown #
loop $-1 $-1 $271 $166 #
plane-surface $-1 29.05674723054274 -30.408515049176074 5.1186019928272799 0 -0.50000000669873634 0.8660253999169214 1 0 0 forward_v I I I I #
loop $-1 $-1 $399 $106 #
coedge $-1 $269 $269 $270 $400 reversed $167 $-1 #
coedge $-1 $270 $270 $269 $400 forward $169 $-1 #
coedge $-1 $271 $271 $170 $272 forward $266 $-1 #
edge $-1 $401 8.2440997935021382e-016 $401 6.2831853071796013 $271 $402 forward 7 unknown #
loop $-1 $-1 $278 $171 #
plane-surface $-1 29.05674723054274 -30.408515049176074 5.1186019928272799 0 -0.50000000669873634 0.8660253999169214 1 0 0 forward_v I I I I #
loop $-1 $-1 $403 $109 #
coedge $-1 $276 $276 $277 $404 reversed $172 $-1 #
coedge $-1 $277 $277 $276 $404 forward $174 $-1 #
coedge $-1 $278 $278 $175 $279 forward $273 $-1 #
edge $-1 $405 8.2440997935021382e-016 $405 6.2831853071796013 $278 $406 forward 7 unknown #
face $-1 $407 $408 $42 $-1 $409 reversed single #
loop $-1 $-1 $410 $176 #
plane-surface $-1 -67.514267403180028 0 0 1 0 0 0 0 -1 forward_v I I I I #
coedge $-1 $411 $291 $412 $413 forward $177 $-1 #
coedge $-1 $414 $179 $411 $415 forward $113 $-1 #
coedge $-1 $179 $414 $416 $417 forward $113 $-1 #
coedge $-1 $294 $293 $179 $287 reversed $295 $-1 #
edge $-1 $418 -30.408515049176057 $419 30.408515049176057 $286 $420 forward 7 unknown #
coedge $-1 $181 $180 $421 $422 forward $71 $-1 #
coedge $-1 $423 $424 $180 $290 reversed $408 $-1 #
edge $-1 $297 -67.514267403180028 $425 67.514267403180028 $289 $426 forward 7 unknown #
coedge $-1 $283 $427 $181 $292 reversed $177 $-1 #
edge $-1 $428 -67.514267403180028 $296 67.514267403180028 $291 $429 forward 7 unknown #
coedge $-1 $286 $182 $427 $430 forward $295 $-1 #
coedge $-1 $182 $286 $423 $431 reversed $295 $-1 #
loop $-1 $-1 $293 $407 #
vertex $-1 $183 $432 #
vertex $-1 $183 $433 #
straight-curve $-1 67.514267403180028 0 12.237276615022893 0 1 0 I I #
face $-1 $434 $435 $43 $-1 $436 forward single #
loop $-1 $-1 $437 $184 #
plane-surface $-1 -78.037242248116954 0 10.351697041012791 1 0 0 0 0 -1 forward_v I I I I #
coedge $-1 $438 $187 $309 $439 reversed $117 $-1 #
coedge $-1 $187 $438 $440 $441 reversed $117 $-1 #
edge $-1 $442 -12.237276615022893 $311 -8.4661174670026877 $187 $443 forward 7 unknown #
coedge $-1 $189 $188 $444 $445 reversed $74 $-1 #
coedge $-1 $446 $447 $189 $307 forward $448 $-1 #
edge $-1 $310 8.4661174670026877 $449 12.237276615022893 $306 $450 forward 7 unknown #
coedge $-1 $451 $190 $447 $452 forward $185 $-1 #
coedge $-1 $190 $451 $302 $439 forward $185 $-1 #
vertex $-1 $307 $453 #
vertex $-1 $304 $454 #
straight-curve $-1 -67.514267403180028 0 8.4661174670026877 0 1 0 I I #
face $-1 $-1 $455 $44 $-1 $456 reversed single #
loop $-1 $-1 $198 $192 #
plane-surface $-1 0 0 12.237276615022893 0 0 1 1 0 0 forward_v I I I I #
coedge $-1 $457 $458 $459 $460 reversed $193 $-1 #
coedge $-1 $461 $195 $197 $323 forward $121 $-1 #
coedge $-1 $195 $461 $457 $462 forward $121 $-1 #
coedge $-1 $459 $198 $195 $320 forward $314 $-1 #
edge $-1 $326 -20.964621849354881 $463 2.4308494637490519 $319 $464 forward 7 unknown #
coedge $-1 $465 $466 $196 $322 forward $455 $-1 #
edge $-1 $467 -71.114027159809964 $325 -63.995352537614352 $321 $468 forward 7 unknown #
edge $-1 $326 46.579681044705367 $467 60.817030098352099 $197 $469 forward 7 unknown #
coedge $-1 $198 $459 $465 $470 forward $314 $-1 #
vertex $-1 $322 $471 #
vertex $-1 $199 $472 #
straight-curve $-1 -30.231508042157795 22.626845272095906 12.237276615022893 0 -1 0 I I #
coedge $-1 $328 $328 $-1 $473 reversed $202 $-1 #
edge $-1 $474 0 $474 6.2831853071796004 $203 $475 forward 7 unknown #
vertex $-1 $206 $476 #
ellipse-curve $-1 -23.547087666985242 24.243562095205434 8.6779393039250952 0 0.50000000669873634 0.8660253999169214 2.5 0 0 1 I I #
coedge $-1 $332 $332 $-1 $477 reversed $209 $-1 #
edge $-1 $478 0 $478 6.2831853071796004 $210 $479 forward 7 unknown #
vertex $-1 $213 $480 #
ellipse-curve $-1 -13.520457104226409 24.243562095205434 8.6779393039250952 0 0.50000000669873634 0.8660253999169214 2.5 0 0 1 I I #
face $-1 $-1 $481 $47 $-1 $482 reversed single #
loop $-1 $-1 $220 $214 #
plane-surface $-1 0 0 12.237276615022893 0 0 1 1 0 0 forward_v I I I I #
coedge $-1 $483 $484 $485 $486 reversed $215 $-1 #
coedge $-1 $487 $217 $219 $346 forward $135 $-1 #
coedge $-1 $217 $487 $483 $488 forward $135 $-1 #
coedge $-1 $485 $220 $217 $343 forward $337 $-1 #
edge $-1 $349 2.8306379587194037 $489 26.22610927182334 $342 $490 forward 7 unknown #
coedge $-1 $491 $492 $218 $345 forward $481 $-1 #
edge $-1 $493 -71.114027159809964 $348 -63.995352537614352 $344 $494 forward 7 unknown #
edge $-1 $349 46.579681044705367 $493 60.817030098352099 $219 $495 forward 7 unknown #
coedge $-1 $220 $485 $491 $496 forward $337 $-1 #
vertex $-1 $221 $497 #
vertex $-1 $221 $498 #
straight-curve $-1 17.359011573990774 22.626845272095906 12.237276615022893 0 -1 0 I I #
coedge $-1 $351 $351 $-1 $499 reversed $224 $-1 #
edge $-1 $500 0 $500 6.2831853071796004 $225 $501 forward 7 unknown #
vertex $-1 $228 $502 #
ellipse-curve $-1 24.04343194916332 24.243562095205434 8.6779393039250952 0 0.50000000669873634 0.8660253999169214 2.5 0 0 1 I I #
coedge $-1 $355 $355 $-1 $503 reversed $231 $-1 #
edge $-1 $504 0 $504 6.2831853071796004 $232 $505 forward 7 unknown #
vertex $-1 $235 $506 #
ellipse-curve $-1 34.07006251192216 24.243562095205434 8.6779393039250952 0 0.50000000669873634 0.8660253999169214 2.5 0 0 1 I I #
face $-1 $-1 $371 $50 $-1 $507 forward single #
loop $-1 $-1 $508 $236 #
plane-surface $-1 0 -30.408515049176057 0 0 1 0 0 0 1 forward_v I I I I #
coedge $-1 $509 $510 $511 $512 reversed $237 $-1 #
coedge $-1 $513 $239 $241 $369 forward $149 $-1 #
coedge $-1 $239 $513 $509 $514 forward $149 $-1 #
coedge $-1 $511 $242 $239 $366 forward $371 $-1 #
edge $-1 $373 -2.4308494637490519 $515 20.964621849354881 $365 $516 forward 7 unknown #
coedge $-1 $517 $518 $240 $368 forward $360 $-1 #
edge $-1 $519 -55.909769431523301 $372 -48.791094809327703 $367 $520 forward 7 unknown #
edge $-1 $373 -14.237349053646728 $519 -2.0712772011964433e-014 $241 $521 forward 7 unknown #
coedge $-1 $242 $511 $517 $522 forward $371 $-1 #
loop $-1 $-1 $511 $359 #
vertex $-1 $368 $523 #
vertex $-1 $243 $524 #
straight-curve $-1 -6.8360367290538626 -48.961391678438325 12.237276615022893 0 1 0 I I #
coedge $-1 $375 $375 $-1 $525 reversed $246 $-1 #
edge $-1 $526 0 $526 6.2831853071796004 $247 $527 forward 7 unknown #
vertex $-1 $250 $528 #
ellipse-curve $-1 -23.547087666985242 -24.243562095205444 8.6779393039251005 0 -0.50000000669873634 0.8660253999169214 2.5 0 0 1 I I #
coedge $-1 $379 $379 $-1 $529 reversed $253 $-1 #
edge $-1 $530 0 $530 6.2831853071796004 $254 $531 forward 7 unknown #
vertex $-1 $257 $532 #
ellipse-curve $-1 -13.520457104226409 -24.243562095205444 8.6779393039251005 0 -0.50000000669873634 0.8660253999169214 2.5 0 0 1 I I #
face $-1 $-1 $395 $53 $-1 $533 forward single #
loop $-1 $-1 $534 $258 #
plane-surface $-1 0 -30.408515049176057 0 0 1 0 0 0 1 forward_v I I I I #
coedge $-1 $535 $536 $537 $538 reversed $259 $-1 #
coedge $-1 $539 $261 $263 $393 forward $163 $-1 #
coedge $-1 $261 $539 $535 $540 forward $163 $-1 #
coedge $-1 $537 $264 $261 $390 forward $395 $-1 #
edge $-1 $397 -26.22610927182334 $541 -2.8306379587194037 $389 $542 forward 7 unknown #
coedge $-1 $543 $544 $262 $392 forward $384 $-1 #
edge $-1 $545 -55.909769431523301 $396 -48.791094809327703 $391 $546 forward 7 unknown #
edge $-1 $397 -14.237349053646728 $545 -2.0712772011964433e-014 $263 $547 forward 7 unknown #
coedge $-1 $264 $537 $543 $548 forward $395 $-1 #
loop $-1 $-1 $537 $383 #
vertex $-1 $392 $549 #
vertex $-1 $265 $550 #
straight-curve $-1 40.75448288709471 -48.961391678438325 12.237276615022893 0 1 0 I I #
coedge $-1 $399 $399 $-1 $551 reversed $268 $-1 #
edge $-1 $552 0 $552 6.2831853071796004 $269 $553 forward 7 unknown #
vertex $-1 $272 $554 #
ellipse-curve $-1 24.04343194916332 -24.243562095205444 8.6779393039251005 0 -0.50000000669873634 0.8660253999169214 2.5 0 0 1 I I #
coedge $-1 $403 $403 $-1 $555 reversed $275 $-1 #
edge $-1 $556 0 $556 6.2831853071796004 $276 $557 forward 7 unknown #
vertex $-1 $279 $558 #
ellipse-curve $-1 34.07006251192216 -24.243562095205444 8.6779393039251005 0 -0.50000000669873634 0.8660253999169214 2.5 0 0 1 I I #
face $-1 $-1 $295 $42 $-1 $559 reversed single #
loop $-1 $-1 $423 $280 #
plane-surface $-1 0 30.408515049176057 0 0 -1 0 0 0 -1 forward_v I I I I #
coedge $-1 $560 $421 $424 $561 forward $281 $-1 #
coedge $-1 $427 $283 $284 $415 reversed $177 $-1 #
coedge $-1 $421 $560 $283 $413 reversed $281 $-1 #
edge $-1 $428 -12.237276615022893 $562 12.237276615022893 $412 $563 forward 7 unknown #
coedge $-1 $285 $284 $560 $564 forward $113 $-1 #
edge $-1 $419 -67.514267403180028 $562 67.514267403180028 $411 $565 forward 7 unknown #
coedge $-1 $424 $423 $285 $417 reversed $408 $-1 #
edge $-1 $566 -67.514267403180028 $418 67.514267403180028 $416 $567 forward 7 unknown #
vertex $-1 $287 $568 #
vertex $-1 $430 $569 #
straight-curve $-1 67.514267403180028 0 -12.237276615022893 0 -1 0 I I #
coedge $-1 $410 $412 $288 $422 reversed $281 $-1 #
edge $-1 $425 -30.408515049176057 $428 30.408515049176057 $421 $570 forward 7 unknown #
coedge $-1 $416 $289 $294 $431 forward $408 $-1 #
coedge $-1 $289 $416 $410 $561 reversed $408 $-1 #
vertex $-1 $290 $571 #
straight-curve $-1 0 30.408515049176057 12.237276615022893 -1 0 0 I I #
coedge $-1 $291 $411 $293 $430 reversed $177 $-1 #
vertex $-1 $422 $572 #
straight-curve $-1 0 -30.408515049176057 12.237276615022893 1 0 0 I I #
edge $-1 $296 -12.237276615022893 $419 12.237276615022893 $293 $573 forward 7 unknown #
edge $-1 $297 -12.237276615022893 $418 12.237276615022893 $294 $574 forward 7 unknown #
point $-1 67.514267403180028 -30.408515049176057 12.237276615022893 #
point $-1 67.514267403180028 30.408515049176057 12.237276615022893 #
face $-1 $-1 $448 $43 $-1 $575 reversed single #
loop $-1 $-1 $444 $299 #
plane-surface $-1 0 0 12.237276615022893 0 0 1 1 0 0 forward_v I I I I #
coedge $-1 $576 $577 $438 $578 forward $300 $-1 #
coedge $-1 $303 $302 $437 $578 reversed $117 $-1 #
edge $-1 $579 -5.2614874224684627 $311 5.2614874224684627 $302 $580 forward 7 unknown #
coedge $-1 $581 $444 $303 $441 forward $435 $-1 #
edge $-1 $442 67.514267403180028 $582 78.037242248116954 $303 $583 forward 7 unknown #
vertex $-1 $441 $584 #
straight-curve $-1 -67.514267403180028 30.408515049176057 0 0 0 -1 I I #
coedge $-1 $440 $585 $305 $445 forward $435 $-1 #
edge $-1 $449 -30.408515049176057 $442 30.408515049176057 $444 $586 forward 7 unknown #
coedge $-1 $587 $306 $585 $588 reversed $448 $-1 #
coedge $-1 $306 $587 $308 $452 reversed $448 $-1 #
loop $-1 $-1 $306 $434 #
vertex $-1 $307 $589 #
straight-curve $-1 -67.514267403180028 -30.408515049176057 0 0 0 1 I I #
coedge $-1 $309 $308 $576 $590 forward $185 $-1 #
edge $-1 $310 -5.2614874224684627 $591 5.2614874224684627 $447 $592 forward 7 unknown #
point $-1 -67.514267403180028 -30.408515049176057 8.4661174670026877 #
point $-1 -67.514267403180028 30.408515049176057 8.4661174670026877 #
loop $-1 $-1 $321 $313 #
plane-surface $-1 0 30.408515049176057 0 0 -1 0 0 0 -1 forward_v I I I I #
coedge $-1 $458 $316 $318 $462 reversed $193 $-1 #
coedge $-1 $316 $457 $593 $594 reversed $193 $-1 #
coedge $-1 $324 $319 $316 $460 forward $314 $-1 #
edge $-1 $463 -4.5482361308610635 $595 7.7816697770801504 $459 $596 forward 7 unknown #
coedge $-1 $318 $317 $466 $597 reversed $121 $-1 #
edge $-1 $598 -60.817030098352099 $463 -46.579681044705367 $457 $599 forward 7 unknown #
vertex $-1 $320 $600 #
straight-curve $-1 -9.2668861928029145 18.078609141234839 12.237276615022894 1 0 0 I I #
coedge $-1 $593 $321 $324 $470 reversed $455 $-1 #
coedge $-1 $321 $593 $461 $597 forward $455 $-1 #
vertex $-1 $322 $601 #
straight-curve $-1 -30.231508042157795 30.408515049176057 76.232629152637244 0 0 1 I I #
straight-curve $-1 -30.231508042157795 -22.260577763508763 35.527117449400578 0 0.8660253999169214 -0.50000000669873634 I I #
edge $-1 $595 6.8360367290538626 $325 30.231508042157795 $465 $602 forward 7 unknown #
point $-1 -30.231508042157795 30.408515049176057 12.237276615022893 #
point $-1 -30.231508042157795 18.078609141234843 12.237276615022893 #
edge $-1 $603 1 $603 0 $328 $-1 forward 7 unknown #
vertex $-1 $329 $604 #
ellipse-curve $-1 -23.547087666985242 19.975662932218686 1.2857212441007491 0 0.50000000669873634 0.8660253999169214 2.5 0 0 1 I I #
point $-1 -21.047087666985242 24.243562095205419 8.6779393039250703 #
edge $-1 $605 1 $605 0 $332 $-1 forward 7 unknown #
vertex $-1 $333 $606 #
ellipse-curve $-1 -13.520457104226409 19.975662932218686 1.2857212441007491 0 0.50000000669873634 0.8660253999169214 2.5 0 0 1 I I #
point $-1 -11.020457104226409 24.243562095205419 8.6779393039250703 #
loop $-1 $-1 $344 $336 #
plane-surface $-1 0 30.408515049176057 0 0 -1 0 0 0 -1 forward_v I I I I #
coedge $-1 $484 $339 $341 $488 reversed $215 $-1 #
coedge $-1 $339 $483 $607 $608 reversed $215 $-1 #
coedge $-1 $347 $342 $339 $486 forward $337 $-1 #
edge $-1 $489 -4.5482361308610635 $609 7.7816697770801504 $485 $610 forward 7 unknown #
coedge $-1 $341 $340 $492 $611 reversed $135 $-1 #
edge $-1 $612 -60.817030098352099 $489 -46.579681044705367 $483 $613 forward 7 unknown #
vertex $-1 $343 $614 #
straight-curve $-1 14.52837361527137 18.078609141234839 12.237276615022894 1 0 0 I I #
coedge $-1 $607 $344 $347 $496 reversed $481 $-1 #
coedge $-1 $344 $607 $487 $611 forward $481 $-1 #
vertex $-1 $345 $615 #
straight-curve $-1 17.359011573990774 30.408515049176057 76.232629152637244 0 0 1 I I #
straight-curve $-1 17.359011573990774 -22.260577763508763 35.527117449400578 0 0.8660253999169214 -0.50000000669873634 I I #
edge $-1 $609 -40.75448288709471 $348 -17.359011573990774 $491 $616 forward 7 unknown #
point $-1 17.359011573990774 30.408515049176057 12.237276615022893 #
point $-1 17.359011573990774 18.078609141234843 12.237276615022893 #
edge $-1 $617 1 $617 0 $351 $-1 forward 7 unknown #
vertex $-1 $352 $618 #
ellipse-curve $-1 24.04343194916332 19.975662932218686 1.2857212441007491 0 0.50000000669873634 0.8660253999169214 2.5 0 0 1 I I #
point $-1 26.54343194916332 24.243562095205419 8.6779393039250703 #
edge $-1 $619 1 $619 0 $355 $-1 forward 7 unknown #
vertex $-1 $356 $620 #
ellipse-curve $-1 34.07006251192216 19.975662932218686 1.2857212441007491 0 0.50000000669873634 0.8660253999169214 2.5 0 0 1 I I #
point $-1 36.57006251192216 24.243562095205419 8.6779393039250703 #
plane-surface $-1 0 0 12.237276615022893 0 0 1 1 0 0 forward_v I I I I #
coedge $-1 $518 $517 $510 $621 forward $360 $-1 #
coedge $-1 $510 $362 $364 $514 reversed $237 $-1 #
coedge $-1 $362 $509 $508 $621 reversed $237 $-1 #
coedge $-1 $370 $365 $362 $512 forward $371 $-1 #
edge $-1 $515 -30.882782537203461 $622 -18.552876629262268 $511 $623 forward 7 unknown #
coedge $-1 $364 $363 $518 $624 reversed $149 $-1 #
edge $-1 $625 2.0712772011964433e-014 $515 14.237349053646728 $509 $626 forward 7 unknown #
vertex $-1 $366 $627 #
straight-curve $-1 -9.2668861928029145 -18.078609141234864 12.237276615022893 -1 0 0 I I #
coedge $-1 $508 $367 $370 $522 reversed $360 $-1 #
coedge $-1 $367 $508 $513 $624 forward $360 $-1 #
vertex $-1 $368 $628 #
straight-curve $-1 -6.8360367290538626 -30.40851504917606 61.028371424350595 0 0 1 I I #
straight-curve $-1 -6.8360367290538626 -30.408515049176074 5.1186019928272799 0 -0.8660253999169214 -0.50000000669873634 I I #
edge $-1 $622 -30.231508042157795 $372 -6.8360367290538626 $517 $629 forward 7 unknown #
point $-1 -6.8360367290538626 -30.408515049176057 12.237276615022893 #
point $-1 -6.8360367290538626 -18.078609141234864 12.237276615022893 #
edge $-1 $630 1 $630 0 $375 $-1 forward 7 unknown #
vertex $-1 $376 $631 #
ellipse-curve $-1 -23.547087666985242 -19.975662932218693 1.2857212441007526 0 -0.50000000669873634 0.8660253999169214 2.5 0 0 1 I I #
point $-1 -21.047087666985242 -24.243562095205426 8.6779393039250738 #
edge $-1 $632 1 $632 0 $379 $-1 forward 7 unknown #
vertex $-1 $380 $633 #
ellipse-curve $-1 -13.520457104226409 -19.975662932218693 1.2857212441007526 0 -0.50000000669873634 0.8660253999169214 2.5 0 0 1 I I #
point $-1 -11.020457104226409 -24.243562095205426 8.6779393039250738 #
plane-surface $-1 0 0 12.237276615022893 0 0 1 1 0 0 forward_v I I I I #
coedge $-1 $544 $543 $536 $634 forward $384 $-1 #
coedge $-1 $536 $386 $388 $540 reversed $259 $-1 #
coedge $-1 $386 $535 $534 $634 reversed $259 $-1 #
coedge $-1 $394 $389 $386 $538 forward $395 $-1 #
edge $-1 $541 -30.882782537203461 $635 -18.552876629262268 $537 $636 forward 7 unknown #
coedge $-1 $388 $387 $544 $637 reversed $163 $-1 #
edge $-1 $638 2.0712772011964433e-014 $541 14.237349053646728 $535 $639 forward 7 unknown #
vertex $-1 $390 $640 #
straight-curve $-1 14.52837361527137 -18.078609141234864 12.237276615022893 -1 0 0 I I #
coedge $-1 $534 $391 $394 $548 reversed $384 $-1 #
coedge $-1 $391 $534 $539 $637 forward $384 $-1 #
vertex $-1 $392 $641 #
straight-curve $-1 40.75448288709471 -30.40851504917606 61.028371424350595 0 0 1 I I #
straight-curve $-1 40.75448288709471 -30.408515049176074 5.1186019928272799 0 -0.8660253999169214 -0.50000000669873634 I I #
edge $-1 $635 17.359011573990774 $396 40.75448288709471 $543 $642 forward 7 unknown #
point $-1 40.75448288709471 -30.408515049176057 12.237276615022893 #
point $-1 40.75448288709471 -18.078609141234864 12.237276615022893 #
edge $-1 $643 1 $643 0 $399 $-1 forward 7 unknown #
vertex $-1 $400 $644 #
ellipse-curve $-1 24.04343194916332 -19.975662932218693 1.2857212441007526 0 -0.50000000669873634 0.8660253999169214 2.5 0 0 1 I I #
point $-1 26.54343194916332 -24.243562095205426 8.6779393039250738 #
edge $-1 $645 1 $645 0 $403 $-1 forward 7 unknown #
vertex $-1 $404 $646 #
ellipse-curve $-1 34.07006251192216 -19.975662932218693 1.2857212441007526 0 -0.50000000669873634 0.8660253999169214 2.5 0 0 1 I I #
point $-1 36.57006251192216 -24.243562095205426 8.6779393039250738 #
plane-surface $-1 67.514267403180028 0 0 -1 0 0 0 0 1 forward_v I I I I #
coedge $-1 $412 $410 $414 $564 reversed $281 $-1 #
edge $-1 $425 -12.237276615022893 $566 12.237276615022893 $424 $647 forward 7 unknown #
vertex $-1 $564 $648 #
straight-curve $-1 -67.514267403180028 -30.408515049176057 0 0 0 -1 I I #
edge $-1 $562 -30.408515049176057 $566 30.408515049176057 $560 $649 forward 7 unknown #
straight-curve $-1 0 -30.408515049176057 -12.237276615022893 -1 0 0 I I #
vertex $-1 $417 $650 #
straight-curve $-1 0 30.408515049176057 -12.237276615022893 1 0 0 I I #
point $-1 67.514267403180028 30.408515049176057 -12.237276615022893 #
point $-1 67.514267403180028 -30.408515049176057 -12.237276615022893 #
straight-curve $-1 -67.514267403180028 0 12.237276615022893 0 -1 0 I I #
point $-1 -67.514267403180028 30.408515049176057 12.237276615022893 #
point $-1 -67.514267403180028 -30.408515049176057 12.237276615022893 #
straight-curve $-1 67.514267403180028 -30.408515049176057 0 0 0 -1 I I #
straight-curve $-1 67.514267403180028 30.408515049176057 0 0 0 -1 I I #
plane-surface $-1 0 -30.408515049176057 0 0 1 0 0 0 1 forward_v I I I I #
coedge $-1 $651 $437 $451 $590 reversed $300 $-1 #
coedge $-1 $437 $651 $581 $652 reversed $300 $-1 #
edge $-1 $582 -1.8855795740101033 $579 1.8855795740101033 $438 $653 forward 7 unknown #
vertex $-1 $439 $654 #
straight-curve $-1 -72.775754825648491 30.408515049176057 8.4661174670026877 1 0 0 I I #
coedge $-1 $585 $440 $577 $652 forward $435 $-1 #
vertex $-1 $441 $655 #
straight-curve $-1 0 30.408515049176057 12.237276615022893 -1 0 0 I I #
point $-1 -67.514267403180028 30.408515049176057 12.237276615022893 #
coedge $-1 $444 $581 $446 $588 forward $435 $-1 #
straight-curve $-1 -67.514267403180028 0 12.237276615022893 0 1 0 I I #
coedge $-1 $447 $446 $651 $656 forward $448 $-1 #
edge $-1 $657 -78.037242248116954 $449 -67.514267403180028 $446 $658 forward 7 unknown #
point $-1 -67.514267403180028 -30.408515049176057 12.237276615022893 #
edge $-1 $591 -30.408515049176057 $579 30.408515049176057 $576 $659 forward 7 unknown #
vertex $-1 $590 $660 #
straight-curve $-1 -72.775754825648491 -30.408515049176057 8.4661174670026877 -1 0 0 I I #
coedge $-1 $466 $465 $458 $594 forward $455 $-1 #
edge $-1 $595 63.995352537614352 $598 71.114027159809964 $593 $661 forward 7 unknown #
vertex $-1 $470 $662 #
straight-curve $-1 -6.8360367290538626 22.626845272095906 12.237276615022893 0 1 0 I I #
edge $-1 $598 -2.4308494637490519 $467 20.964621849354881 $466 $663 forward 7 unknown #
vertex $-1 $597 $664 #
straight-curve $-1 -6.8360367290538626 -22.260577763508763 35.527117449400578 0 -0.8660253999169214 0.50000000669873634 I I #
point $-1 -6.8360367290538626 18.078609141234843 12.237276615022893 #
point $-1 -30.231508042157795 30.40851504917606 5.1186019928272799 #
straight-curve $-1 0 30.408515049176057 12.237276615022893 -1 0 0 I I #
vertex $-1 $473 $665 #
point $-1 -21.047087666985242 19.975662932218686 1.2857212441007491 #
vertex $-1 $477 $666 #
point $-1 -11.020457104226409 19.975662932218686 1.2857212441007491 #
coedge $-1 $492 $491 $484 $608 forward $481 $-1 #
edge $-1 $609 63.995352537614352 $612 71.114027159809964 $607 $667 forward 7 unknown #
vertex $-1 $496 $668 #
straight-curve $-1 40.75448288709471 22.626845272095906 12.237276615022893 0 1 0 I I #
edge $-1 $612 -26.22610927182334 $493 -2.8306379587194037 $492 $669 forward 7 unknown #
vertex $-1 $611 $670 #
straight-curve $-1 40.75448288709471 -22.260577763508763 35.527117449400578 0 -0.8660253999169214 0.50000000669873634 I I #
point $-1 40.75448288709471 18.078609141234843 12.237276615022893 #
point $-1 17.359011573990774 30.40851504917606 5.1186019928272799 #
straight-curve $-1 0 30.408515049176057 12.237276615022893 -1 0 0 I I #
vertex $-1 $499 $671 #
point $-1 26.54343194916332 19.975662932218686 1.2857212441007491 #
vertex $-1 $503 $672 #
point $-1 36.57006251192216 19.975662932218686 1.2857212441007491 #
edge $-1 $622 48.791094809327703 $625 55.909769431523301 $508 $673 forward 7 unknown #
vertex $-1 $522 $674 #
straight-curve $-1 -30.231508042157795 -48.961391678438325 12.237276615022893 0 -1 0 I I #
edge $-1 $625 -20.964621849354881 $519 2.4308494637490519 $518 $675 forward 7 unknown #
vertex $-1 $624 $676 #
straight-curve $-1 -30.231508042157795 -30.408515049176074 5.1186019928272799 0 0.8660253999169214 0.50000000669873634 I I #
point $-1 -30.231508042157795 -18.078609141234864 12.237276615022893 #
point $-1 -6.8360367290538626 -30.408515049176057 5.1186019928272906 #
straight-curve $-1 0 -30.408515049176057 12.237276615022893 1 0 0 I I #
vertex $-1 $525 $677 #
point $-1 -21.047087666985242 -19.975662932218693 1.2857212441007526 #
vertex $-1 $529 $678 #
point $-1 -11.020457104226409 -19.975662932218693 1.2857212441007526 #
edge $-1 $635 48.791094809327703 $638 55.909769431523301 $534 $679 forward 7 unknown #
vertex $-1 $548 $680 #
straight-curve $-1 17.359011573990774 -48.961391678438325 12.237276615022893 0 -1 0 I I #
edge $-1 $638 2.8306379587194037 $545 26.22610927182334 $544 $681 forward 7 unknown #
vertex $-1 $637 $682 #
straight-curve $-1 17.359011573990774 -30.408515049176074 5.1186019928272799 0 0.8660253999169214 0.50000000669873634 I I #
point $-1 17.359011573990774 -18.078609141234864 12.237276615022893 #
point $-1 40.75448288709471 -30.408515049176057 5.1186019928272906 #
straight-curve $-1 0 -30.408515049176057 12.237276615022893 1 0 0 I I #
vertex $-1 $551 $683 #
point $-1 26.54343194916332 -19.975662932218693 1.2857212441007526 #
vertex $-1 $555 $684 #
point $-1 36.57006251192216 -19.975662932218693 1.2857212441007526 #
straight-curve $-1 -67.514267403180028 30.408515049176057 0 0 0 -1 I I #
point $-1 -67.514267403180028 -30.408515049176057 -12.237276615022893 #
straight-curve $-1 -67.514267403180028 0 -12.237276615022893 0 1 0 I I #
point $-1 -67.514267403180028 30.408515049176057 -12.237276615022893 #
coedge $-1 $577 $576 $587 $656 reversed $300 $-1 #
edge $-1 $582 -30.408515049176057 $657 30.408515049176057 $577 $685 forward 7 unknown #
straight-curve $-1 -78.037242248116954 30.408515049176057 10.351697041012791 0 0 -1 I I #
point $-1 -78.037242248116954 30.408515049176057 8.4661174670026877 #
point $-1 -78.037242248116954 30.408515049176057 12.237276615022894 #
edge $-1 $657 -1.8855795740101033 $591 1.8855795740101033 $651 $686 forward 7 unknown #
vertex $-1 $652 $687 #
straight-curve $-1 0 -30.408515049176057 12.237276615022893 1 0 0 I I #
straight-curve $-1 -78.037242248116954 0 8.4661174670026877 0 1 0 I I #
point $-1 -78.037242248116954 -30.408515049176057 8.4661174670026877 #
straight-curve $-1 -6.8360367290538626 30.408515049176057 76.232629152637244 0 0 -1 I I #
point $-1 -6.8360367290538626 30.408515049176057 12.237276615022893 #
straight-curve $-1 -9.2668861928029145 30.408515049176053 5.1186019928272817 -1 0 0 I I #
point $-1 -6.8360367290538626 30.40851504917606 5.1186019928272799 #
point $-1 -23.547087666985242 18.725662915471847 -0.87934225569155444 #
point $-1 -13.520457104226409 18.725662915471847 -0.87934225569155444 #
straight-curve $-1 40.75448288709471 30.408515049176057 76.232629152637244 0 0 -1 I I #
point $-1 40.75448288709471 30.408515049176057 12.237276615022893 #
straight-curve $-1 14.52837361527137 30.408515049176053 5.1186019928272817 -1 0 0 I I #
point $-1 40.75448288709471 30.40851504917606 5.1186019928272799 #
point $-1 24.04343194916332 18.725662915471847 -0.87934225569155444 #
point $-1 34.07006251192216 18.725662915471847 -0.87934225569155444 #
straight-curve $-1 -30.231508042157795 -30.40851504917606 61.028371424350595 0 0 -1 I I #
point $-1 -30.231508042157795 -30.408515049176057 12.237276615022893 #
straight-curve $-1 -9.2668861928029145 -30.408515049176057 5.1186019928272906 1 0 0 I I #
point $-1 -30.231508042157795 -30.408515049176057 5.1186019928272906 #
point $-1 -23.547087666985242 -18.725662915471855 -0.87934225569155089 #
point $-1 -13.520457104226409 -18.725662915471855 -0.87934225569155089 #
straight-curve $-1 17.359011573990774 -30.40851504917606 61.028371424350595 0 0 -1 I I #
point $-1 17.359011573990774 -30.408515049176057 12.237276615022893 #
straight-curve $-1 14.52837361527137 -30.408515049176057 5.1186019928272906 1 0 0 I I #
point $-1 17.359011573990774 -30.408515049176057 5.1186019928272906 #
point $-1 24.04343194916332 -18.725662915471855 -0.87934225569155089 #
point $-1 34.07006251192216 -18.725662915471855 -0.87934225569155089 #
straight-curve $-1 -78.037242248116954 0 12.237276615022894 0 -1 0 I I #
straight-curve $-1 -78.037242248116954 -30.408515049176057 10.351697041012791 0 0 -1 I I #
point $-1 -78.037242248116954 -30.408515049176057 12.237276615022894 #
End-of-ACIS-data 