500 0 20 0           
7 Unknown 11 ACIS 5.0 NT 24 Thu Mar 25 19:12:46 1999 
-1 9.9999999999999995e-007 1e-010 
body $-1 $20 $-1 $21 #
body $-1 $22 $-1 $23 #
body $-1 $24 $-1 $25 #
body $-1 $26 $-1 $27 #
body $-1 $28 $-1 $29 #
body $-1 $30 $-1 $31 #
body $-1 $32 $-1 $33 #
body $-1 $34 $-1 $35 #
body $-1 $36 $-1 $37 #
body $-1 $38 $-1 $39 #
body $-1 $40 $-1 $41 #
body $-1 $42 $-1 $43 #
body $-1 $44 $-1 $45 #
body $-1 $46 $-1 $47 #
body $-1 $48 $-1 $49 #
body $-1 $50 $-1 $51 #
body $-1 $52 $-1 $53 #
body $-1 $54 $-1 $55 #
body $-1 $56 $-1 $57 #
body $-1 $58 $-1 $59 #
lump $-1 $-1 $60 $0 #
transform $-1 1 0 0 0 1 0 0 0 1 78.740195928830843 39.312905769124242 10.845692482428337 1 rotate no_reflect no_shear #
lump $-1 $-1 $61 $1 #
transform $-1 0.5877852410284794 0 0.80901700255871778 0 1 0 -0.80901700255871778 0 0.5877852410284794 -127.40431458245776 10.222364209182986 108.45603725087619 1 rotate no_reflect no_shear #
lump $-1 $-1 $62 $2 #
transform $-1 0.5877852410284794 0 0.80901700255871778 0 -1 0 0.80901700255871778 0 -0.5877852410284794 3.5979641159057181 6.387079330675828 17.708117257327551 1 rotate no_reflect no_shear #
lump $-1 $-1 $63 $3 #
transform $-1 0.5877852410284794 0 0.80901700255871778 0 -1 0 0.80901700255871778 0 -0.5877852410284794 3.5979641159057181 10.222364209182986 17.708117257327551 1 rotate no_reflect no_shear #
lump $-1 $-1 $64 $4 #
transform $-1 0.5877852410284794 0 0.80901700255871778 0 -1 0 0.80901700255871778 0 -0.5877852410284794 3.5979641159057181 14.057649087690145 17.708117257327551 1 rotate no_reflect no_shear #
lump $-1 $-1 $65 $5 #
transform $-1 0.5877852410284794 0 0.80901700255871778 0 1 0 -0.80901700255871778 0 0.5877852410284794 -127.40431458245776 29.616058582477159 108.45603725087619 1 rotate no_reflect no_shear #
lump $-1 $-1 $66 $6 #
transform $-1 0.5877852410284794 0 0.80901700255871778 0 -1 0 0.80901700255871778 0 -0.5877852410284794 3.5979641159057181 25.780773703969999 17.708117257327551 1 rotate no_reflect no_shear #
lump $-1 $-1 $67 $7 #
transform $-1 0.5877852410284794 0 0.80901700255871778 0 -1 0 0.80901700255871778 0 -0.5877852410284794 3.5979641159057181 29.616058582477159 17.708117257327551 1 rotate no_reflect no_shear #
lump $-1 $-1 $68 $8 #
transform $-1 0.5877852410284794 0 0.80901700255871778 0 -1 0 0.80901700255871778 0 -0.5877852410284794 3.5979641159057181 33.451343460984319 17.708117257327551 1 rotate no_reflect no_shear #
lump $-1 $-1 $69 $9 #
transform $-1 0.5877852410284794 0 0.80901700255871778 0 1 0 -0.80901700255871778 0 0.5877852410284794 -127.40431458245776 49.009752955771333 108.45603725087619 1 rotate no_reflect no_shear #
lump $-1 $-1 $70 $10 #
transform $-1 0.5877852410284794 0 0.80901700255871778 0 -1 0 0.80901700255871778 0 -0.5877852410284794 3.5979641159057181 45.174468077264166 17.708117257327551 1 rotate no_reflect no_shear #
lump $-1 $-1 $71 $11 #
transform $-1 0.5877852410284794 0 0.80901700255871778 0 -1 0 0.80901700255871778 0 -0.5877852410284794 3.5979641159057181 49.009752955771333 17.708117257327551 1 rotate no_reflect no_shear #
lump $-1 $-1 $72 $12 #
transform $-1 0.5877852410284794 0 0.80901700255871778 0 -1 0 0.80901700255871778 0 -0.5877852410284794 3.5979641159057181 52.845037834278486 17.708117257327551 1 rotate no_reflect no_shear #
lump $-1 $-1 $73 $13 #
transform $-1 0.5877852410284794 0 0.80901700255871778 0 1 0 -0.80901700255871778 0 0.5877852410284794 -127.40431458245776 68.4034473290655 108.45603725087619 1 rotate no_reflect no_shear #
lump $-1 $-1 $74 $14 #
transform $-1 0.5877852410284794 0 0.80901700255871778 0 -1 0 0.80901700255871778 0 -0.5877852410284794 3.5979641159057181 64.568162450558333 17.708117257327551 1 rotate no_reflect no_shear #
lump $-1 $-1 $75 $15 #
transform $-1 0.5877852410284794 0 0.80901700255871778 0 -1 0 0.80901700255871778 0 -0.5877852410284794 3.5979641159057181 68.4034473290655 17.708117257327551 1 rotate no_reflect no_shear #
lump $-1 $-1 $76 $16 #
transform $-1 0.5877852410284794 0 0.80901700255871778 0 -1 0 0.80901700255871778 0 -0.5877852410284794 3.5979641159057181 72.238732207572653 17.708117257327551 1 rotate no_reflect no_shear #
lump $-1 $-1 $77 $17 #
transform $-1 0.57357642473473569 0 -0.81915205242281985 0 1 0 0.81915205242281985 0 0.57357642473473569 196.1537379366724 70.444451153402909 237.78727394031438 1 rotate no_reflect no_shear #
lump $-1 $-1 $78 $18 #
transform $-1 0.57357642473473569 0 -0.81915205242281985 0 -1 0 -0.81915205242281985 0 -0.57357642473473569 155.32507841701778 66.938153845611936 19.358645754618976 1 rotate no_reflect no_shear #
lump $-1 $-1 $79 $19 #
transform $-1 0.57357642473473569 0 -0.81915205242281985 0 -1 0 -0.81915205242281985 0 -0.57357642473473569 155.32507841701778 73.950748461193854 19.358645754618976 1 rotate no_reflect no_shear #
shell $-1 $-1 $-1 $80 $-1 $20 #
shell $-1 $-1 $-1 $81 $-1 $22 #
shell $-1 $-1 $-1 $82 $-1 $24 #
shell $-1 $-1 $-1 $83 $-1 $26 #
shell $-1 $-1 $-1 $84 $-1 $28 #
shell $-1 $-1 $-1 $85 $-1 $30 #
shell $-1 $-1 $-1 $86 $-1 $32 #
shell $-1 $-1 $-1 $87 $-1 $34 #
shell $-1 $-1 $-1 $88 $-1 $36 #
shell $-1 $-1 $-1 $89 $-1 $38 #
shell $-1 $-1 $-1 $90 $-1 $40 #
shell $-1 $-1 $-1 $91 $-1 $42 #
shell $-1 $-1 $-1 $92 $-1 $44 #
shell $-1 $-1 $-1 $93 $-1 $46 #
shell $-1 $-1 $-1 $94 $-1 $48 #
shell $-1 $-1 $-1 $95 $-1 $50 #
shell $-1 $-1 $-1 $96 $-1 $52 #
shell $-1 $-1 $-1 $97 $-1 $54 #
shell $-1 $-1 $-1 $98 $-1 $56 #
shell $-1 $-1 $-1 $99 $-1 $58 #
face $-1 $100 $101 $60 $-1 $102 forward single #
face $-1 $103 $104 $61 $-1 $105 forward single #
face $-1 $106 $107 $62 $-1 $108 forward single #
face $-1 $109 $110 $63 $-1 $111 forward single #
face $-1 $112 $113 $64 $-1 $114 forward single #
face $-1 $115 $116 $65 $-1 $117 forward single #
face $-1 $118 $119 $66 $-1 $120 forward single #
face $-1 $121 $122 $67 $-1 $123 forward single #
face $-1 $124 $125 $68 $-1 $126 forward single #
face $-1 $127 $128 $69 $-1 $129 forward single #
face $-1 $130 $131 $70 $-1 $132 forward single #
face $-1 $133 $134 $71 $-1 $135 forward single #
face $-1 $136 $137 $72 $-1 $138 forward single #
face $-1 $139 $140 $73 $-1 $141 forward single #
face $-1 $142 $143 $74 $-1 $144 forward single #
face $-1 $145 $146 $75 $-1 $147 forward single #
face $-1 $148 $149 $76 $-1 $150 forward single #
face $-1 $151 $152 $77 $-1 $153 forward single #
face $-1 $154 $155 $78 $-1 $156 forward single #
face $-1 $157 $158 $79 $-1 $159 forward single #
face $-1 $160 $161 $60 $-1 $162 reversed single #
loop $-1 $-1 $163 $80 #
plane-surface $-1 0 0 10.845692482428337 0 0 1 1 0 0 forward_v I I I I #
face $-1 $164 $165 $61 $-1 $166 reversed single #
loop $-1 $-1 $167 $81 #
plane-surface $-1 0 0 157.48039185766169 0 0 1 1 0 0 forward_v I I I I #
face $-1 $168 $169 $62 $-1 $170 forward single #
loop $-1 $171 $172 $82 #
cone-surface $-1 0 0 -1.1714835047456287 0 0 1 1 0 0 1 I I 0 1 1 forward I I I I #
face $-1 $173 $174 $63 $-1 $175 forward single #
loop $-1 $176 $177 $83 #
cone-surface $-1 0 0 -1.1714835047456287 0 0 1 1 0 0 1 I I 0 1 1 forward I I I I #
face $-1 $178 $179 $64 $-1 $180 forward single #
loop $-1 $181 $182 $84 #
cone-surface $-1 0 0 -1.1714835047456287 0 0 1 1 0 0 1 I I 0 1 1 forward I I I I #
face $-1 $183 $184 $65 $-1 $185 reversed single #
loop $-1 $-1 $186 $85 #
plane-surface $-1 0 0 157.48039185766169 0 0 1 1 0 0 forward_v I I I I #
face $-1 $187 $188 $66 $-1 $189 forward single #
loop $-1 $190 $191 $86 #
cone-surface $-1 0 0 -1.1714835047456287 0 0 1 1 0 0 1 I I 0 1 1 forward I I I I #
face $-1 $192 $193 $67 $-1 $194 forward single #
loop $-1 $195 $196 $87 #
cone-surface $-1 0 0 -1.1714835047456287 0 0 1 1 0 0 1 I I 0 1 1 forward I I I I #
face $-1 $197 $198 $68 $-1 $199 forward single #
loop $-1 $200 $201 $88 #
cone-surface $-1 0 0 -1.1714835047456287 0 0 1 1 0 0 1 I I 0 1 1 forward I I I I #
face $-1 $202 $203 $69 $-1 $204 reversed single #
loop $-1 $-1 $205 $89 #
plane-surface $-1 0 0 157.48039185766169 0 0 1 1 0 0 forward_v I I I I #
face $-1 $206 $207 $70 $-1 $208 forward single #
loop $-1 $209 $210 $90 #
cone-surface $-1 0 0 -1.1714835047456287 0 0 1 1 0 0 1 I I 0 1 1 forward I I I I #
face $-1 $211 $212 $71 $-1 $213 forward single #
loop $-1 $214 $215 $91 #
cone-surface $-1 0 0 -1.1714835047456287 0 0 1 1 0 0 1 I I 0 1 1 forward I I I I #
face $-1 $216 $217 $72 $-1 $218 forward single #
loop $-1 $219 $220 $92 #
cone-surface $-1 0 0 -1.1714835047456287 0 0 1 1 0 0 1 I I 0 1 1 forward I I I I #
face $-1 $221 $222 $73 $-1 $223 reversed single #
loop $-1 $-1 $224 $93 #
plane-surface $-1 0 0 157.48039185766169 0 0 1 1 0 0 forward_v I I I I #
face $-1 $225 $226 $74 $-1 $227 forward single #
loop $-1 $228 $229 $94 #
cone-surface $-1 0 0 -1.1714835047456287 0 0 1 1 0 0 1 I I 0 1 1 forward I I I I #
face $-1 $230 $231 $75 $-1 $232 forward single #
loop $-1 $233 $234 $95 #
cone-surface $-1 0 0 -1.1714835047456287 0 0 1 1 0 0 1 I I 0 1 1 forward I I I I #
face $-1 $235 $236 $76 $-1 $237 forward single #
loop $-1 $238 $239 $96 #
cone-surface $-1 0 0 -1.1714835047456287 0 0 1 1 0 0 1 I I 0 1 1 forward I I I I #
face $-1 $240 $241 $77 $-1 $242 reversed single #
loop $-1 $-1 $243 $97 #
plane-surface $-1 0 0 157.48039185766169 0 0 1 1 0 0 forward_v I I I I #
face $-1 $244 $245 $78 $-1 $246 forward single #
loop $-1 $247 $248 $98 #
cone-surface $-1 0 0 -0.75 0 0 1 0.5 0 0 1 I I 0 1 0.5 forward I I I I #
face $-1 $249 $250 $79 $-1 $251 forward single #
loop $-1 $252 $253 $99 #
cone-surface $-1 0 0 -0.75 0 0 1 0.5 0 0 1 I I 0 1 0.5 forward I I I I #
face $-1 $254 $255 $60 $-1 $256 reversed single #
loop $-1 $-1 $257 $100 #
plane-surface $-1 0 0 -10.845692482428337 0 0 1 1 0 0 forward_v I I I I #
coedge $-1 $258 $259 $260 $261 forward $101 $-1 #
face $-1 $262 $263 $61 $-1 $264 reversed single #
loop $-1 $-1 $265 $103 #
plane-surface $-1 0 0 -157.48039185766169 0 0 1 1 0 0 forward_v I I I I #
coedge $-1 $266 $267 $268 $269 forward $104 $-1 #
face $-1 $-1 $270 $62 $-1 $271 forward single #
loop $-1 $-1 $272 $106 #
plane-surface $-1 0 0 -1.8429670094912574 0 0 -1 -1 0 0 forward_v I I I I #
loop $-1 $-1 $273 $82 #
coedge $-1 $172 $172 $272 $274 reversed $107 $-1 #
face $-1 $-1 $275 $63 $-1 $276 forward single #
loop $-1 $-1 $277 $109 #
plane-surface $-1 0 0 -1.8429670094912574 0 0 -1 -1 0 0 forward_v I I I I #
loop $-1 $-1 $278 $83 #
coedge $-1 $177 $177 $277 $279 reversed $110 $-1 #
face $-1 $-1 $280 $64 $-1 $281 forward single #
loop $-1 $-1 $282 $112 #
plane-surface $-1 0 0 -1.8429670094912574 0 0 -1 -1 0 0 forward_v I I I I #
loop $-1 $-1 $283 $84 #
coedge $-1 $182 $182 $282 $284 reversed $113 $-1 #
face $-1 $285 $286 $65 $-1 $287 reversed single #
loop $-1 $-1 $288 $115 #
plane-surface $-1 0 0 -157.48039185766169 0 0 1 1 0 0 forward_v I I I I #
coedge $-1 $289 $290 $291 $292 forward $116 $-1 #
face $-1 $-1 $293 $66 $-1 $294 forward single #
loop $-1 $-1 $295 $118 #
plane-surface $-1 0 0 -1.8429670094912574 0 0 -1 -1 0 0 forward_v I I I I #
loop $-1 $-1 $296 $86 #
coedge $-1 $191 $191 $295 $297 reversed $119 $-1 #
face $-1 $-1 $298 $67 $-1 $299 forward single #
loop $-1 $-1 $300 $121 #
plane-surface $-1 0 0 -1.8429670094912574 0 0 -1 -1 0 0 forward_v I I I I #
loop $-1 $-1 $301 $87 #
coedge $-1 $196 $196 $300 $302 reversed $122 $-1 #
face $-1 $-1 $303 $68 $-1 $304 forward single #
loop $-1 $-1 $305 $124 #
plane-surface $-1 0 0 -1.8429670094912574 0 0 -1 -1 0 0 forward_v I I I I #
loop $-1 $-1 $306 $88 #
coedge $-1 $201 $201 $305 $307 reversed $125 $-1 #
face $-1 $308 $309 $69 $-1 $310 reversed single #
loop $-1 $-1 $311 $127 #
plane-surface $-1 0 0 -157.48039185766169 0 0 1 1 0 0 forward_v I I I I #
coedge $-1 $312 $313 $314 $315 forward $128 $-1 #
face $-1 $-1 $316 $70 $-1 $317 forward single #
loop $-1 $-1 $318 $130 #
plane-surface $-1 0 0 -1.8429670094912574 0 0 -1 -1 0 0 forward_v I I I I #
loop $-1 $-1 $319 $90 #
coedge $-1 $210 $210 $318 $320 reversed $131 $-1 #
face $-1 $-1 $321 $71 $-1 $322 forward single #
loop $-1 $-1 $323 $133 #
plane-surface $-1 0 0 -1.8429670094912574 0 0 -1 -1 0 0 forward_v I I I I #
loop $-1 $-1 $324 $91 #
coedge $-1 $215 $215 $323 $325 reversed $134 $-1 #
face $-1 $-1 $326 $72 $-1 $327 forward single #
loop $-1 $-1 $328 $136 #
plane-surface $-1 0 0 -1.8429670094912574 0 0 -1 -1 0 0 forward_v I I I I #
loop $-1 $-1 $329 $92 #
coedge $-1 $220 $220 $328 $330 reversed $137 $-1 #
face $-1 $331 $332 $73 $-1 $333 reversed single #
loop $-1 $-1 $334 $139 #
plane-surface $-1 0 0 -157.48039185766169 0 0 1 1 0 0 forward_v I I I I #
coedge $-1 $335 $336 $337 $338 forward $140 $-1 #
face $-1 $-1 $339 $74 $-1 $340 forward single #
loop $-1 $-1 $341 $142 #
plane-surface $-1 0 0 -1.8429670094912574 0 0 -1 -1 0 0 forward_v I I I I #
loop $-1 $-1 $342 $94 #
coedge $-1 $229 $229 $341 $343 reversed $143 $-1 #
face $-1 $-1 $344 $75 $-1 $345 forward single #
loop $-1 $-1 $346 $145 #
plane-surface $-1 0 0 -1.8429670094912574 0 0 -1 -1 0 0 forward_v I I I I #
loop $-1 $-1 $347 $95 #
coedge $-1 $234 $234 $346 $348 reversed $146 $-1 #
face $-1 $-1 $349 $76 $-1 $350 forward single #
loop $-1 $-1 $351 $148 #
plane-surface $-1 0 0 -1.8429670094912574 0 0 -1 -1 0 0 forward_v I I I I #
loop $-1 $-1 $352 $96 #
coedge $-1 $239 $239 $351 $353 reversed $149 $-1 #
face $-1 $354 $355 $77 $-1 $356 reversed single #
loop $-1 $-1 $357 $151 #
plane-surface $-1 0 0 -157.48039185766169 0 0 1 1 0 0 forward_v I I I I #
coedge $-1 $358 $359 $360 $361 forward $152 $-1 #
face $-1 $-1 $362 $78 $-1 $363 forward single #
loop $-1 $-1 $364 $154 #
plane-surface $-1 0 0 -1.25 0 0 -1 -1 0 0 forward_v I I I I #
loop $-1 $-1 $365 $98 #
coedge $-1 $248 $248 $364 $366 reversed $155 $-1 #
face $-1 $-1 $367 $79 $-1 $368 forward single #
loop $-1 $-1 $369 $157 #
plane-surface $-1 0 0 -1.25 0 0 -1 -1 0 0 forward_v I I I I #
loop $-1 $-1 $370 $99 #
coedge $-1 $253 $253 $369 $371 reversed $158 $-1 #
face $-1 $372 $373 $60 $-1 $374 reversed single #
loop $-1 $-1 $375 $160 #
plane-surface $-1 0 -39.312905769124242 0 0 1 0 0 0 1 forward_v I I I I #
coedge $-1 $376 $377 $378 $379 forward $161 $-1 #
coedge $-1 $380 $163 $381 $382 forward $101 $-1 #
coedge $-1 $163 $380 $383 $384 forward $101 $-1 #
coedge $-1 $385 $386 $163 $261 reversed $387 $-1 #
edge $-1 $388 -39.312905769124242 $389 39.312905769124242 $260 $390 forward 7 unknown #
face $-1 $391 $392 $61 $-1 $393 reversed single #
loop $-1 $-1 $394 $164 #
plane-surface $-1 0 -6.3921414641785974 0 0 1 0 0 0 1 forward_v I I I I #
coedge $-1 $395 $396 $397 $398 forward $165 $-1 #
coedge $-1 $399 $167 $400 $401 forward $104 $-1 #
coedge $-1 $167 $399 $402 $403 forward $104 $-1 #
coedge $-1 $404 $405 $167 $269 reversed $406 $-1 #
edge $-1 $407 -6.3921414641785974 $408 6.3921414641785974 $268 $409 forward 7 unknown #
loop $-1 $410 $411 $168 #
cone-surface $-1 0 0 0 0 0 1 0.5 0 0 1 I I -0.70710678118654746 0.70710678118654746 0.5 forward I I I I #
coedge $-1 $272 $272 $172 $274 forward $169 $-1 #
coedge $-1 $273 $273 $411 $412 forward $171 $-1 #
edge $-1 $413 0 $413 6.2831853071796004 $272 $414 forward 7 unknown #
loop $-1 $415 $416 $173 #
cone-surface $-1 0 0 0 0 0 1 0.5 0 0 1 I I -0.70710678118654746 0.70710678118654746 0.5 forward I I I I #
coedge $-1 $277 $277 $177 $279 forward $174 $-1 #
coedge $-1 $278 $278 $416 $417 forward $176 $-1 #
edge $-1 $418 0 $418 6.2831853071796004 $277 $419 forward 7 unknown #
loop $-1 $420 $421 $178 #
cone-surface $-1 0 0 0 0 0 1 0.5 0 0 1 I I -0.70710678118654746 0.70710678118654746 0.5 forward I I I I #
coedge $-1 $282 $282 $182 $284 forward $179 $-1 #
coedge $-1 $283 $283 $421 $422 forward $181 $-1 #
edge $-1 $423 0 $423 6.2831853071796004 $282 $424 forward 7 unknown #
face $-1 $425 $426 $65 $-1 $427 reversed single #
loop $-1 $-1 $428 $183 #
plane-surface $-1 0 -6.3921414641785974 0 0 1 0 0 0 1 forward_v I I I I #
coedge $-1 $429 $430 $431 $432 forward $184 $-1 #
coedge $-1 $433 $186 $434 $435 forward $116 $-1 #
coedge $-1 $186 $433 $436 $437 forward $116 $-1 #
coedge $-1 $438 $439 $186 $292 reversed $440 $-1 #
edge $-1 $441 -6.3921414641785974 $442 6.3921414641785974 $291 $443 forward 7 unknown #
loop $-1 $444 $445 $187 #
cone-surface $-1 0 0 0 0 0 1 0.5 0 0 1 I I -0.70710678118654746 0.70710678118654746 0.5 forward I I I I #
coedge $-1 $295 $295 $191 $297 forward $188 $-1 #
coedge $-1 $296 $296 $445 $446 forward $190 $-1 #
edge $-1 $447 0 $447 6.2831853071796004 $295 $448 forward 7 unknown #
loop $-1 $449 $450 $192 #
cone-surface $-1 0 0 0 0 0 1 0.5 0 0 1 I I -0.70710678118654746 0.70710678118654746 0.5 forward I I I I #
coedge $-1 $300 $300 $196 $302 forward $193 $-1 #
coedge $-1 $301 $301 $450 $451 forward $195 $-1 #
edge $-1 $452 0 $452 6.2831853071796004 $300 $453 forward 7 unknown #
loop $-1 $454 $455 $197 #
cone-surface $-1 0 0 0 0 0 1 0.5 0 0 1 I I -0.70710678118654746 0.70710678118654746 0.5 forward I I I I #
coedge $-1 $305 $305 $201 $307 forward $198 $-1 #
coedge $-1 $306 $306 $455 $456 forward $200 $-1 #
edge $-1 $457 0 $457 6.2831853071796004 $305 $458 forward 7 unknown #
face $-1 $459 $460 $69 $-1 $461 reversed single #
loop $-1 $-1 $462 $202 #
plane-surface $-1 0 -6.3921414641785974 0 0 1 0 0 0 1 forward_v I I I I #
coedge $-1 $463 $464 $465 $466 forward $203 $-1 #
coedge $-1 $467 $205 $468 $469 forward $128 $-1 #
coedge $-1 $205 $467 $470 $471 forward $128 $-1 #
coedge $-1 $472 $473 $205 $315 reversed $474 $-1 #
edge $-1 $475 -6.3921414641785974 $476 6.3921414641785974 $314 $477 forward 7 unknown #
loop $-1 $478 $479 $206 #
cone-surface $-1 0 0 0 0 0 1 0.5 0 0 1 I I -0.70710678118654746 0.70710678118654746 0.5 forward I I I I #
coedge $-1 $318 $318 $210 $320 forward $207 $-1 #
coedge $-1 $319 $319 $479 $480 forward $209 $-1 #
edge $-1 $481 0 $481 6.2831853071796004 $318 $482 forward 7 unknown #
loop $-1 $483 $484 $211 #
cone-surface $-1 0 0 0 0 0 1 0.5 0 0 1 I I -0.70710678118654746 0.70710678118654746 0.5 forward I I I I #
coedge $-1 $323 $323 $215 $325 forward $212 $-1 #
coedge $-1 $324 $324 $484 $485 forward $214 $-1 #
edge $-1 $486 0 $486 6.2831853071796004 $323 $487 forward 7 unknown #
loop $-1 $488 $489 $216 #
cone-surface $-1 0 0 0 0 0 1 0.5 0 0 1 I I -0.70710678118654746 0.70710678118654746 0.5 forward I I I I #
coedge $-1 $328 $328 $220 $330 forward $217 $-1 #
coedge $-1 $329 $329 $489 $490 forward $219 $-1 #
edge $-1 $491 0 $491 6.2831853071796004 $328 $492 forward 7 unknown #
face $-1 $493 $494 $73 $-1 $495 reversed single #
loop $-1 $-1 $496 $221 #
plane-surface $-1 0 -6.3921414641785974 0 0 1 0 0 0 1 forward_v I I I I #
coedge $-1 $497 $498 $499 $500 forward $222 $-1 #
coedge $-1 $501 $224 $502 $503 forward $140 $-1 #
coedge $-1 $224 $501 $504 $505 forward $140 $-1 #
coedge $-1 $506 $507 $224 $338 reversed $508 $-1 #
edge $-1 $509 -6.3921414641785974 $510 6.3921414641785974 $337 $511 forward 7 unknown #
loop $-1 $512 $513 $225 #
cone-surface $-1 0 0 0 0 0 1 0.5 0 0 1 I I -0.70710678118654746 0.70710678118654746 0.5 forward I I I I #
coedge $-1 $341 $341 $229 $343 forward $226 $-1 #
coedge $-1 $342 $342 $513 $514 forward $228 $-1 #
edge $-1 $515 0 $515 6.2831853071796004 $341 $516 forward 7 unknown #
loop $-1 $517 $518 $230 #
cone-surface $-1 0 0 0 0 0 1 0.5 0 0 1 I I -0.70710678118654746 0.70710678118654746 0.5 forward I I I I #
coedge $-1 $346 $346 $234 $348 forward $231 $-1 #
coedge $-1 $347 $347 $518 $519 forward $233 $-1 #
edge $-1 $520 0 $520 6.2831853071796004 $346 $521 forward 7 unknown #
loop $-1 $522 $523 $235 #
cone-surface $-1 0 0 0 0 0 1 0.5 0 0 1 I I -0.70710678118654746 0.70710678118654746 0.5 forward I I I I #
coedge $-1 $351 $351 $239 $353 forward $236 $-1 #
coedge $-1 $352 $352 $523 $524 forward $238 $-1 #
edge $-1 $525 0 $525 6.2831853071796004 $351 $526 forward 7 unknown #
face $-1 $527 $528 $77 $-1 $529 reversed single #
loop $-1 $-1 $530 $240 #
plane-surface $-1 0 -8.1813603848455791 0 0 1 0 0 0 1 forward_v I I I I #
coedge $-1 $531 $532 $533 $534 forward $241 $-1 #
coedge $-1 $535 $243 $536 $537 forward $152 $-1 #
coedge $-1 $243 $535 $538 $539 forward $152 $-1 #
coedge $-1 $540 $541 $243 $361 reversed $542 $-1 #
edge $-1 $543 -8.1813603848455791 $544 8.1813603848455791 $360 $545 forward 7 unknown #
loop $-1 $546 $547 $244 #
cone-surface $-1 0 0 0 0 0 1 0.25 0 0 1 I I -0.70710678118654746 0.70710678118654746 0.25 forward I I I I #
coedge $-1 $364 $364 $248 $366 forward $245 $-1 #
coedge $-1 $365 $365 $547 $548 forward $247 $-1 #
edge $-1 $549 0 $549 6.2831853071796004 $364 $550 forward 7 unknown #
loop $-1 $551 $552 $249 #
cone-surface $-1 0 0 0 0 0 1 0.25 0 0 1 I I -0.70710678118654746 0.70710678118654746 0.25 forward I I I I #
coedge $-1 $369 $369 $253 $371 forward $250 $-1 #
coedge $-1 $370 $370 $552 $553 forward $252 $-1 #
edge $-1 $554 0 $554 6.2831853071796004 $369 $555 forward 7 unknown #
face $-1 $556 $557 $60 $-1 $558 reversed single #
loop $-1 $-1 $559 $254 #
plane-surface $-1 -78.740195928830843 0 0 1 0 0 0 0 -1 forward_v I I I I #
coedge $-1 $560 $383 $561 $562 forward $255 $-1 #
coedge $-1 $563 $257 $560 $564 forward $161 $-1 #
coedge $-1 $257 $563 $565 $566 forward $161 $-1 #
coedge $-1 $386 $385 $257 $379 reversed $387 $-1 #
edge $-1 $567 -39.312905769124242 $568 39.312905769124242 $378 $569 forward 7 unknown #
coedge $-1 $259 $258 $570 $571 forward $101 $-1 #
coedge $-1 $572 $573 $258 $382 reversed $557 $-1 #
edge $-1 $389 -78.740195928830843 $574 78.740195928830843 $381 $575 forward 7 unknown #
coedge $-1 $375 $576 $259 $384 reversed $255 $-1 #
edge $-1 $577 -78.740195928830843 $388 78.740195928830843 $383 $578 forward 7 unknown #
coedge $-1 $378 $260 $576 $579 forward $387 $-1 #
coedge $-1 $260 $378 $572 $580 reversed $387 $-1 #
loop $-1 $-1 $385 $556 #
vertex $-1 $261 $581 #
vertex $-1 $261 $582 #
straight-curve $-1 78.740195928830843 0 10.845692482428337 0 1 0 I I #
face $-1 $583 $584 $61 $-1 $585 reversed single #
loop $-1 $-1 $586 $262 #
plane-surface $-1 -314.96078371532337 0 0 1 0 0 0 0 -1 forward_v I I I I #
coedge $-1 $587 $402 $588 $589 forward $263 $-1 #
coedge $-1 $590 $265 $587 $591 forward $165 $-1 #
coedge $-1 $265 $590 $592 $593 forward $165 $-1 #
coedge $-1 $405 $404 $265 $398 reversed $406 $-1 #
edge $-1 $594 -6.3921414641785974 $595 6.3921414641785974 $397 $596 forward 7 unknown #
coedge $-1 $267 $266 $597 $598 forward $104 $-1 #
coedge $-1 $599 $600 $266 $401 reversed $584 $-1 #
edge $-1 $408 -314.96078371532337 $601 314.96078371532337 $400 $602 forward 7 unknown #
coedge $-1 $394 $603 $267 $403 reversed $263 $-1 #
edge $-1 $604 -314.96078371532337 $407 314.96078371532337 $402 $605 forward 7 unknown #
coedge $-1 $397 $268 $603 $606 forward $406 $-1 #
coedge $-1 $268 $397 $599 $607 reversed $406 $-1 #
loop $-1 $-1 $404 $583 #
vertex $-1 $269 $608 #
vertex $-1 $269 $609 #
straight-curve $-1 314.96078371532337 0 157.48039185766169 0 1 0 I I #
loop $-1 $-1 $610 $168 #
coedge $-1 $411 $411 $273 $412 reversed $270 $-1 #
edge $-1 $611 0 $611 6.2831853071796004 $411 $612 forward 7 unknown #
vertex $-1 $274 $613 #
ellipse-curve $-1 0 0 -1.8429670094912574 0 0 -1 1 0 0 1 I I #
loop $-1 $-1 $614 $173 #
coedge $-1 $416 $416 $278 $417 reversed $275 $-1 #
edge $-1 $615 0 $615 6.2831853071796004 $416 $616 forward 7 unknown #
vertex $-1 $279 $617 #
ellipse-curve $-1 0 0 -1.8429670094912574 0 0 -1 1 0 0 1 I I #
loop $-1 $-1 $618 $178 #
coedge $-1 $421 $421 $283 $422 reversed $280 $-1 #
edge $-1 $619 0 $619 6.2831853071796004 $421 $620 forward 7 unknown #
vertex $-1 $284 $621 #
ellipse-curve $-1 0 0 -1.8429670094912574 0 0 -1 1 0 0 1 I I #
face $-1 $622 $623 $65 $-1 $624 reversed single #
loop $-1 $-1 $625 $285 #
plane-surface $-1 -314.96078371532337 0 0 1 0 0 0 0 -1 forward_v I I I I #
coedge $-1 $626 $436 $627 $628 forward $286 $-1 #
coedge $-1 $629 $288 $626 $630 forward $184 $-1 #
coedge $-1 $288 $629 $631 $632 forward $184 $-1 #
coedge $-1 $439 $438 $288 $432 reversed $440 $-1 #
edge $-1 $633 -6.3921414641785974 $634 6.3921414641785974 $431 $635 forward 7 unknown #
coedge $-1 $290 $289 $636 $637 forward $116 $-1 #
coedge $-1 $638 $639 $289 $435 reversed $623 $-1 #
edge $-1 $442 -314.96078371532337 $640 314.96078371532337 $434 $641 forward 7 unknown #
coedge $-1 $428 $642 $290 $437 reversed $286 $-1 #
edge $-1 $643 -314.96078371532337 $441 314.96078371532337 $436 $644 forward 7 unknown #
coedge $-1 $431 $291 $642 $645 forward $440 $-1 #
coedge $-1 $291 $431 $638 $646 reversed $440 $-1 #
loop $-1 $-1 $438 $622 #
vertex $-1 $292 $647 #
vertex $-1 $292 $648 #
straight-curve $-1 314.96078371532337 0 157.48039185766169 0 1 0 I I #
loop $-1 $-1 $649 $187 #
coedge $-1 $445 $445 $296 $446 reversed $293 $-1 #
edge $-1 $650 0 $650 6.2831853071796004 $445 $651 forward 7 unknown #
vertex $-1 $297 $652 #
ellipse-curve $-1 0 0 -1.8429670094912574 0 0 -1 1 0 0 1 I I #
loop $-1 $-1 $653 $192 #
coedge $-1 $450 $450 $301 $451 reversed $298 $-1 #
edge $-1 $654 0 $654 6.2831853071796004 $450 $655 forward 7 unknown #
vertex $-1 $302 $656 #
ellipse-curve $-1 0 0 -1.8429670094912574 0 0 -1 1 0 0 1 I I #
loop $-1 $-1 $657 $197 #
coedge $-1 $455 $455 $306 $456 reversed $303 $-1 #
edge $-1 $658 0 $658 6.2831853071796004 $455 $659 forward 7 unknown #
vertex $-1 $307 $660 #
ellipse-curve $-1 0 0 -1.8429670094912574 0 0 -1 1 0 0 1 I I #
face $-1 $661 $662 $69 $-1 $663 reversed single #
loop $-1 $-1 $664 $308 #
plane-surface $-1 -314.96078371532337 0 0 1 0 0 0 0 -1 forward_v I I I I #
coedge $-1 $665 $470 $666 $667 forward $309 $-1 #
coedge $-1 $668 $311 $665 $669 forward $203 $-1 #
coedge $-1 $311 $668 $670 $671 forward $203 $-1 #
coedge $-1 $473 $472 $311 $466 reversed $474 $-1 #
edge $-1 $672 -6.3921414641785974 $673 6.3921414641785974 $465 $674 forward 7 unknown #
coedge $-1 $313 $312 $675 $676 forward $128 $-1 #
coedge $-1 $677 $678 $312 $469 reversed $662 $-1 #
edge $-1 $476 -314.96078371532337 $679 314.96078371532337 $468 $680 forward 7 unknown #
coedge $-1 $462 $681 $313 $471 reversed $309 $-1 #
edge $-1 $682 -314.96078371532337 $475 314.96078371532337 $470 $683 forward 7 unknown #
coedge $-1 $465 $314 $681 $684 forward $474 $-1 #
coedge $-1 $314 $465 $677 $685 reversed $474 $-1 #
loop $-1 $-1 $472 $661 #
vertex $-1 $315 $686 #
vertex $-1 $315 $687 #
straight-curve $-1 314.96078371532337 0 157.48039185766169 0 1 0 I I #
loop $-1 $-1 $688 $206 #
coedge $-1 $479 $479 $319 $480 reversed $316 $-1 #
edge $-1 $689 0 $689 6.2831853071796004 $479 $690 forward 7 unknown #
vertex $-1 $320 $691 #
ellipse-curve $-1 0 0 -1.8429670094912574 0 0 -1 1 0 0 1 I I #
loop $-1 $-1 $692 $211 #
coedge $-1 $484 $484 $324 $485 reversed $321 $-1 #
edge $-1 $693 0 $693 6.2831853071796004 $484 $694 forward 7 unknown #
vertex $-1 $325 $695 #
ellipse-curve $-1 0 0 -1.8429670094912574 0 0 -1 1 0 0 1 I I #
loop $-1 $-1 $696 $216 #
coedge $-1 $489 $489 $329 $490 reversed $326 $-1 #
edge $-1 $697 0 $697 6.2831853071796004 $489 $698 forward 7 unknown #
vertex $-1 $330 $699 #
ellipse-curve $-1 0 0 -1.8429670094912574 0 0 -1 1 0 0 1 I I #
face $-1 $700 $701 $73 $-1 $702 reversed single #
loop $-1 $-1 $703 $331 #
plane-surface $-1 -314.96078371532337 0 0 1 0 0 0 0 -1 forward_v I I I I #
coedge $-1 $704 $504 $705 $706 forward $332 $-1 #
coedge $-1 $707 $334 $704 $708 forward $222 $-1 #
coedge $-1 $334 $707 $709 $710 forward $222 $-1 #
coedge $-1 $507 $506 $334 $500 reversed $508 $-1 #
edge $-1 $711 -6.3921414641785974 $712 6.3921414641785974 $499 $713 forward 7 unknown #
coedge $-1 $336 $335 $714 $715 forward $140 $-1 #
coedge $-1 $716 $717 $335 $503 reversed $701 $-1 #
edge $-1 $510 -314.96078371532337 $718 314.96078371532337 $502 $719 forward 7 unknown #
coedge $-1 $496 $720 $336 $505 reversed $332 $-1 #
edge $-1 $721 -314.96078371532337 $509 314.96078371532337 $504 $722 forward 7 unknown #
coedge $-1 $499 $337 $720 $723 forward $508 $-1 #
coedge $-1 $337 $499 $716 $724 reversed $508 $-1 #
loop $-1 $-1 $506 $700 #
vertex $-1 $338 $725 #
vertex $-1 $338 $726 #
straight-curve $-1 314.96078371532337 0 157.48039185766169 0 1 0 I I #
loop $-1 $-1 $727 $225 #
coedge $-1 $513 $513 $342 $514 reversed $339 $-1 #
edge $-1 $728 0 $728 6.2831853071796004 $513 $729 forward 7 unknown #
vertex $-1 $343 $730 #
ellipse-curve $-1 0 0 -1.8429670094912574 0 0 -1 1 0 0 1 I I #
loop $-1 $-1 $731 $230 #
coedge $-1 $518 $518 $347 $519 reversed $344 $-1 #
edge $-1 $732 0 $732 6.2831853071796004 $518 $733 forward 7 unknown #
vertex $-1 $348 $734 #
ellipse-curve $-1 0 0 -1.8429670094912574 0 0 -1 1 0 0 1 I I #
loop $-1 $-1 $735 $235 #
coedge $-1 $523 $523 $352 $524 reversed $349 $-1 #
edge $-1 $736 0 $736 6.2831853071796004 $523 $737 forward 7 unknown #
vertex $-1 $353 $738 #
ellipse-curve $-1 0 0 -1.8429670094912574 0 0 -1 1 0 0 1 I I #
face $-1 $739 $740 $77 $-1 $741 reversed single #
loop $-1 $-1 $742 $354 #
plane-surface $-1 -314.96078371532337 0 0 1 0 0 0 0 -1 forward_v I I I I #
coedge $-1 $743 $538 $744 $745 forward $355 $-1 #
coedge $-1 $746 $357 $743 $747 forward $241 $-1 #
coedge $-1 $357 $746 $748 $749 forward $241 $-1 #
coedge $-1 $541 $540 $357 $534 reversed $542 $-1 #
edge $-1 $750 -8.1813603848455791 $751 8.1813603848455791 $533 $752 forward 7 unknown #
coedge $-1 $359 $358 $753 $754 forward $152 $-1 #
coedge $-1 $755 $756 $358 $537 reversed $740 $-1 #
edge $-1 $544 -314.96078371532337 $757 314.96078371532337 $536 $758 forward 7 unknown #
coedge $-1 $530 $759 $359 $539 reversed $355 $-1 #
edge $-1 $760 -314.96078371532337 $543 314.96078371532337 $538 $761 forward 7 unknown #
coedge $-1 $533 $360 $759 $762 forward $542 $-1 #
coedge $-1 $360 $533 $755 $763 reversed $542 $-1 #
loop $-1 $-1 $540 $739 #
vertex $-1 $361 $764 #
vertex $-1 $361 $765 #
straight-curve $-1 314.96078371532337 0 157.48039185766169 0 1 0 I I #
loop $-1 $-1 $766 $244 #
coedge $-1 $547 $547 $365 $548 reversed $362 $-1 #
edge $-1 $767 0 $767 6.2831853071796004 $547 $768 forward 7 unknown #
vertex $-1 $366 $769 #
ellipse-curve $-1 0 0 -1.25 0 0 -1 0.5 0 0 1 I I #
loop $-1 $-1 $770 $249 #
coedge $-1 $552 $552 $370 $553 reversed $367 $-1 #
edge $-1 $771 0 $771 6.2831853071796004 $552 $772 forward 7 unknown #
vertex $-1 $371 $773 #
ellipse-curve $-1 0 0 -1.25 0 0 -1 0.5 0 0 1 I I #
face $-1 $-1 $387 $60 $-1 $774 reversed single #
loop $-1 $-1 $572 $372 #
plane-surface $-1 0 39.312905769124242 0 0 -1 0 0 0 -1 forward_v I I I I #
coedge $-1 $775 $570 $573 $776 forward $373 $-1 #
coedge $-1 $576 $375 $376 $564 reversed $255 $-1 #
coedge $-1 $570 $775 $375 $562 reversed $373 $-1 #
edge $-1 $577 -10.845692482428337 $777 10.845692482428337 $561 $778 forward 7 unknown #
coedge $-1 $377 $376 $775 $779 forward $161 $-1 #
edge $-1 $568 -78.740195928830843 $777 78.740195928830843 $560 $780 forward 7 unknown #
coedge $-1 $573 $572 $377 $566 reversed $557 $-1 #
edge $-1 $781 -78.740195928830843 $567 78.740195928830843 $565 $782 forward 7 unknown #
vertex $-1 $379 $783 #
vertex $-1 $579 $784 #
straight-curve $-1 78.740195928830843 0 -10.845692482428337 0 -1 0 I I #
coedge $-1 $559 $561 $380 $571 reversed $373 $-1 #
edge $-1 $574 -39.312905769124242 $577 39.312905769124242 $570 $785 forward 7 unknown #
coedge $-1 $565 $381 $386 $580 forward $557 $-1 #
coedge $-1 $381 $565 $559 $776 reversed $557 $-1 #
vertex $-1 $382 $786 #
straight-curve $-1 0 39.312905769124242 10.845692482428337 -1 0 0 I I #
coedge $-1 $383 $560 $385 $579 reversed $255 $-1 #
vertex $-1 $571 $787 #
straight-curve $-1 0 -39.312905769124242 10.845692482428337 1 0 0 I I #
edge $-1 $388 -10.845692482428337 $568 10.845692482428337 $385 $788 forward 7 unknown #
edge $-1 $389 -10.845692482428337 $567 10.845692482428337 $386 $789 forward 7 unknown #
point $-1 78.740195928830843 -39.312905769124242 10.845692482428337 #
point $-1 78.740195928830843 39.312905769124242 10.845692482428337 #
face $-1 $-1 $406 $61 $-1 $790 reversed single #
loop $-1 $-1 $599 $391 #
plane-surface $-1 0 6.3921414641785974 0 0 -1 0 0 0 -1 forward_v I I I I #
coedge $-1 $791 $597 $600 $792 forward $392 $-1 #
coedge $-1 $603 $394 $395 $591 reversed $263 $-1 #
coedge $-1 $597 $791 $394 $589 reversed $392 $-1 #
edge $-1 $604 -157.48039185766169 $793 157.48039185766169 $588 $794 forward 7 unknown #
coedge $-1 $396 $395 $791 $795 forward $165 $-1 #
edge $-1 $595 -314.96078371532337 $793 314.96078371532337 $587 $796 forward 7 unknown #
coedge $-1 $600 $599 $396 $593 reversed $584 $-1 #
edge $-1 $797 -314.96078371532337 $594 314.96078371532337 $592 $798 forward 7 unknown #
vertex $-1 $398 $799 #
vertex $-1 $606 $800 #
straight-curve $-1 314.96078371532337 0 -157.48039185766169 0 -1 0 I I #
coedge $-1 $586 $588 $399 $598 reversed $392 $-1 #
edge $-1 $601 -6.3921414641785974 $604 6.3921414641785974 $597 $801 forward 7 unknown #
coedge $-1 $592 $400 $405 $607 forward $584 $-1 #
coedge $-1 $400 $592 $586 $792 reversed $584 $-1 #
vertex $-1 $401 $802 #
straight-curve $-1 0 6.3921414641785974 157.48039185766169 -1 0 0 I I #
coedge $-1 $402 $587 $404 $606 reversed $263 $-1 #
vertex $-1 $598 $803 #
straight-curve $-1 0 -6.3921414641785974 157.48039185766169 1 0 0 I I #
edge $-1 $407 -157.48039185766169 $595 157.48039185766169 $404 $804 forward 7 unknown #
edge $-1 $408 -157.48039185766169 $594 157.48039185766169 $405 $805 forward 7 unknown #
point $-1 314.96078371532337 -6.3921414641785974 157.48039185766169 #
point $-1 314.96078371532337 6.3921414641785974 157.48039185766169 #
coedge $-1 $610 $610 $-1 $806 reversed $410 $-1 #
vertex $-1 $412 $807 #
ellipse-curve $-1 0 0 -0.5 0 0 -1 1 0 0 1 I I #
point $-1 1 0 -1.8429670094912574 #
coedge $-1 $614 $614 $-1 $808 reversed $415 $-1 #
vertex $-1 $417 $809 #
ellipse-curve $-1 0 0 -0.5 0 0 -1 1 0 0 1 I I #
point $-1 1 0 -1.8429670094912574 #
coedge $-1 $618 $618 $-1 $810 reversed $420 $-1 #
vertex $-1 $422 $811 #
ellipse-curve $-1 0 0 -0.5 0 0 -1 1 0 0 1 I I #
point $-1 1 0 -1.8429670094912574 #
face $-1 $-1 $440 $65 $-1 $812 reversed single #
loop $-1 $-1 $638 $425 #
plane-surface $-1 0 6.3921414641785974 0 0 -1 0 0 0 -1 forward_v I I I I #
coedge $-1 $813 $636 $639 $814 forward $426 $-1 #
coedge $-1 $642 $428 $429 $630 reversed $286 $-1 #
coedge $-1 $636 $813 $428 $628 reversed $426 $-1 #
edge $-1 $643 -157.48039185766169 $815 157.48039185766169 $627 $816 forward 7 unknown #
coedge $-1 $430 $429 $813 $817 forward $184 $-1 #
edge $-1 $634 -314.96078371532337 $815 314.96078371532337 $626 $818 forward 7 unknown #
coedge $-1 $639 $638 $430 $632 reversed $623 $-1 #
edge $-1 $819 -314.96078371532337 $633 314.96078371532337 $631 $820 forward 7 unknown #
vertex $-1 $432 $821 #
vertex $-1 $645 $822 #
straight-curve $-1 314.96078371532337 0 -157.48039185766169 0 -1 0 I I #
coedge $-1 $625 $627 $433 $637 reversed $426 $-1 #
edge $-1 $640 -6.3921414641785974 $643 6.3921414641785974 $636 $823 forward 7 unknown #
coedge $-1 $631 $434 $439 $646 forward $623 $-1 #
coedge $-1 $434 $631 $625 $814 reversed $623 $-1 #
vertex $-1 $435 $824 #
straight-curve $-1 0 6.3921414641785974 157.48039185766169 -1 0 0 I I #
coedge $-1 $436 $626 $438 $645 reversed $286 $-1 #
vertex $-1 $637 $825 #
straight-curve $-1 0 -6.3921414641785974 157.48039185766169 1 0 0 I I #
edge $-1 $441 -157.48039185766169 $634 157.48039185766169 $438 $826 forward 7 unknown #
edge $-1 $442 -157.48039185766169 $633 157.48039185766169 $439 $827 forward 7 unknown #
point $-1 314.96078371532337 -6.3921414641785974 157.48039185766169 #
point $-1 314.96078371532337 6.3921414641785974 157.48039185766169 #
coedge $-1 $649 $649 $-1 $828 reversed $444 $-1 #
vertex $-1 $446 $829 #
ellipse-curve $-1 0 0 -0.5 0 0 -1 1 0 0 1 I I #
point $-1 1 0 -1.8429670094912574 #
coedge $-1 $653 $653 $-1 $830 reversed $449 $-1 #
vertex $-1 $451 $831 #
ellipse-curve $-1 0 0 -0.5 0 0 -1 1 0 0 1 I I #
point $-1 1 0 -1.8429670094912574 #
coedge $-1 $657 $657 $-1 $832 reversed $454 $-1 #
vertex $-1 $456 $833 #
ellipse-curve $-1 0 0 -0.5 0 0 -1 1 0 0 1 I I #
point $-1 1 0 -1.8429670094912574 #
face $-1 $-1 $474 $69 $-1 $834 reversed single #
loop $-1 $-1 $677 $459 #
plane-surface $-1 0 6.3921414641785974 0 0 -1 0 0 0 -1 forward_v I I I I #
coedge $-1 $835 $675 $678 $836 forward $460 $-1 #
coedge $-1 $681 $462 $463 $669 reversed $309 $-1 #
coedge $-1 $675 $835 $462 $667 reversed $460 $-1 #
edge $-1 $682 -157.48039185766169 $837 157.48039185766169 $666 $838 forward 7 unknown #
coedge $-1 $464 $463 $835 $839 forward $203 $-1 #
edge $-1 $673 -314.96078371532337 $837 314.96078371532337 $665 $840 forward 7 unknown #
coedge $-1 $678 $677 $464 $671 reversed $662 $-1 #
edge $-1 $841 -314.96078371532337 $672 314.96078371532337 $670 $842 forward 7 unknown #
vertex $-1 $466 $843 #
vertex $-1 $684 $844 #
straight-curve $-1 314.96078371532337 0 -157.48039185766169 0 -1 0 I I #
coedge $-1 $664 $666 $467 $676 reversed $460 $-1 #
edge $-1 $679 -6.3921414641785974 $682 6.3921414641785974 $675 $845 forward 7 unknown #
coedge $-1 $670 $468 $473 $685 forward $662 $-1 #
coedge $-1 $468 $670 $664 $836 reversed $662 $-1 #
vertex $-1 $469 $846 #
straight-curve $-1 0 6.3921414641785974 157.48039185766169 -1 0 0 I I #
coedge $-1 $470 $665 $472 $684 reversed $309 $-1 #
vertex $-1 $676 $847 #
straight-curve $-1 0 -6.3921414641785974 157.48039185766169 1 0 0 I I #
edge $-1 $475 -157.48039185766169 $673 157.48039185766169 $472 $848 forward 7 unknown #
edge $-1 $476 -157.48039185766169 $672 157.48039185766169 $473 $849 forward 7 unknown #
point $-1 314.96078371532337 -6.3921414641785974 157.48039185766169 #
point $-1 314.96078371532337 6.3921414641785974 157.48039185766169 #
coedge $-1 $688 $688 $-1 $850 reversed $478 $-1 #
vertex $-1 $480 $851 #
ellipse-curve $-1 0 0 -0.5 0 0 -1 1 0 0 1 I I #
point $-1 1 0 -1.8429670094912574 #
coedge $-1 $692 $692 $-1 $852 reversed $483 $-1 #
vertex $-1 $485 $853 #
ellipse-curve $-1 0 0 -0.5 0 0 -1 1 0 0 1 I I #
point $-1 1 0 -1.8429670094912574 #
coedge $-1 $696 $696 $-1 $854 reversed $488 $-1 #
vertex $-1 $490 $855 #
ellipse-curve $-1 0 0 -0.5 0 0 -1 1 0 0 1 I I #
point $-1 1 0 -1.8429670094912574 #
face $-1 $-1 $508 $73 $-1 $856 reversed single #
loop $-1 $-1 $716 $493 #
plane-surface $-1 0 6.3921414641785974 0 0 -1 0 0 0 -1 forward_v I I I I #
coedge $-1 $857 $714 $717 $858 forward $494 $-1 #
coedge $-1 $720 $496 $497 $708 reversed $332 $-1 #
coedge $-1 $714 $857 $496 $706 reversed $494 $-1 #
edge $-1 $721 -157.48039185766169 $859 157.48039185766169 $705 $860 forward 7 unknown #
coedge $-1 $498 $497 $857 $861 forward $222 $-1 #
edge $-1 $712 -314.96078371532337 $859 314.96078371532337 $704 $862 forward 7 unknown #
coedge $-1 $717 $716 $498 $710 reversed $701 $-1 #
edge $-1 $863 -314.96078371532337 $711 314.96078371532337 $709 $864 forward 7 unknown #
vertex $-1 $500 $865 #
vertex $-1 $723 $866 #
straight-curve $-1 314.96078371532337 0 -157.48039185766169 0 -1 0 I I #
coedge $-1 $703 $705 $501 $715 reversed $494 $-1 #
edge $-1 $718 -6.3921414641785974 $721 6.3921414641785974 $714 $867 forward 7 unknown #
coedge $-1 $709 $502 $507 $724 forward $701 $-1 #
coedge $-1 $502 $709 $703 $858 reversed $701 $-1 #
vertex $-1 $503 $868 #
straight-curve $-1 0 6.3921414641785974 157.48039185766169 -1 0 0 I I #
coedge $-1 $504 $704 $506 $723 reversed $332 $-1 #
vertex $-1 $715 $869 #
straight-curve $-1 0 -6.3921414641785974 157.48039185766169 1 0 0 I I #
edge $-1 $509 -157.48039185766169 $712 157.48039185766169 $506 $870 forward 7 unknown #
edge $-1 $510 -157.48039185766169 $711 157.48039185766169 $507 $871 forward 7 unknown #
point $-1 314.96078371532337 -6.3921414641785974 157.48039185766169 #
point $-1 314.96078371532337 6.3921414641785974 157.48039185766169 #
coedge $-1 $727 $727 $-1 $872 reversed $512 $-1 #
vertex $-1 $514 $873 #
ellipse-curve $-1 0 0 -0.5 0 0 -1 1 0 0 1 I I #
point $-1 1 0 -1.8429670094912574 #
coedge $-1 $731 $731 $-1 $874 reversed $517 $-1 #
vertex $-1 $519 $875 #
ellipse-curve $-1 0 0 -0.5 0 0 -1 1 0 0 1 I I #
point $-1 1 0 -1.8429670094912574 #
coedge $-1 $735 $735 $-1 $876 reversed $522 $-1 #
vertex $-1 $524 $877 #
ellipse-curve $-1 0 0 -0.5 0 0 -1 1 0 0 1 I I #
point $-1 1 0 -1.8429670094912574 #
face $-1 $-1 $542 $77 $-1 $878 reversed single #
loop $-1 $-1 $755 $527 #
plane-surface $-1 0 8.1813603848455791 0 0 -1 0 0 0 -1 forward_v I I I I #
coedge $-1 $879 $753 $756 $880 forward $528 $-1 #
coedge $-1 $759 $530 $531 $747 reversed $355 $-1 #
coedge $-1 $753 $879 $530 $745 reversed $528 $-1 #
edge $-1 $760 -157.48039185766169 $881 157.48039185766169 $744 $882 forward 7 unknown #
coedge $-1 $532 $531 $879 $883 forward $241 $-1 #
edge $-1 $751 -314.96078371532337 $881 314.96078371532337 $743 $884 forward 7 unknown #
coedge $-1 $756 $755 $532 $749 reversed $740 $-1 #
edge $-1 $885 -314.96078371532337 $750 314.96078371532337 $748 $886 forward 7 unknown #
vertex $-1 $534 $887 #
vertex $-1 $762 $888 #
straight-curve $-1 314.96078371532337 0 -157.48039185766169 0 -1 0 I I #
coedge $-1 $742 $744 $535 $754 reversed $528 $-1 #
edge $-1 $757 -8.1813603848455791 $760 8.1813603848455791 $753 $889 forward 7 unknown #
coedge $-1 $748 $536 $541 $763 forward $740 $-1 #
coedge $-1 $536 $748 $742 $880 reversed $740 $-1 #
vertex $-1 $537 $890 #
straight-curve $-1 0 8.1813603848455791 157.48039185766169 -1 0 0 I I #
coedge $-1 $538 $743 $540 $762 reversed $355 $-1 #
vertex $-1 $754 $891 #
straight-curve $-1 0 -8.1813603848455791 157.48039185766169 1 0 0 I I #
edge $-1 $543 -157.48039185766169 $751 157.48039185766169 $540 $892 forward 7 unknown #
edge $-1 $544 -157.48039185766169 $750 157.48039185766169 $541 $893 forward 7 unknown #
point $-1 314.96078371532337 -8.1813603848455791 157.48039185766169 #
point $-1 314.96078371532337 8.1813603848455791 157.48039185766169 #
coedge $-1 $766 $766 $-1 $894 reversed $546 $-1 #
vertex $-1 $548 $895 #
ellipse-curve $-1 0 0 -0.25 0 0 -1 0.5 0 0 1 I I #
point $-1 0.5 0 -1.25 #
coedge $-1 $770 $770 $-1 $896 reversed $551 $-1 #
vertex $-1 $553 $897 #
ellipse-curve $-1 0 0 -0.25 0 0 -1 0.5 0 0 1 I I #
point $-1 0.5 0 -1.25 #
plane-surface $-1 78.740195928830843 0 0 -1 0 0 0 0 1 forward_v I I I I #
coedge $-1 $561 $559 $563 $779 reversed $373 $-1 #
edge $-1 $574 -10.845692482428337 $781 10.845692482428337 $573 $898 forward 7 unknown #
vertex $-1 $779 $899 #
straight-curve $-1 -78.740195928830843 -39.312905769124242 0 0 0 -1 I I #
edge $-1 $777 -39.312905769124242 $781 39.312905769124242 $775 $900 forward 7 unknown #
straight-curve $-1 0 -39.312905769124242 -10.845692482428337 -1 0 0 I I #
vertex $-1 $566 $901 #
straight-curve $-1 0 39.312905769124242 -10.845692482428337 1 0 0 I I #
point $-1 78.740195928830843 39.312905769124242 -10.845692482428337 #
point $-1 78.740195928830843 -39.312905769124242 -10.845692482428337 #
straight-curve $-1 -78.740195928830843 0 10.845692482428337 0 -1 0 I I #
point $-1 -78.740195928830843 39.312905769124242 10.845692482428337 #
point $-1 -78.740195928830843 -39.312905769124242 10.845692482428337 #
straight-curve $-1 78.740195928830843 -39.312905769124242 0 0 0 -1 I I #
straight-curve $-1 78.740195928830843 39.312905769124242 0 0 0 -1 I I #
plane-surface $-1 314.96078371532337 0 0 -1 0 0 0 0 1 forward_v I I I I #
coedge $-1 $588 $586 $590 $795 reversed $392 $-1 #
edge $-1 $601 -157.48039185766169 $797 157.48039185766169 $600 $902 forward 7 unknown #
vertex $-1 $795 $903 #
straight-curve $-1 -314.96078371532337 -6.3921414641785974 0 0 0 -1 I I #
edge $-1 $793 -6.3921414641785974 $797 6.3921414641785974 $791 $904 forward 7 unknown #
straight-curve $-1 0 -6.3921414641785974 -157.48039185766169 -1 0 0 I I #
vertex $-1 $593 $905 #
straight-curve $-1 0 6.3921414641785974 -157.48039185766169 1 0 0 I I #
point $-1 314.96078371532337 6.3921414641785974 -157.48039185766169 #
point $-1 314.96078371532337 -6.3921414641785974 -157.48039185766169 #
straight-curve $-1 -314.96078371532337 0 157.48039185766169 0 -1 0 I I #
point $-1 -314.96078371532337 6.3921414641785974 157.48039185766169 #
point $-1 -314.96078371532337 -6.3921414641785974 157.48039185766169 #
straight-curve $-1 314.96078371532337 -6.3921414641785974 0 0 0 -1 I I #
straight-curve $-1 314.96078371532337 6.3921414641785974 0 0 0 -1 I I #
edge $-1 $906 1 $906 0 $610 $-1 forward 7 unknown #
point $-1 1 0 -0.5 #
edge $-1 $907 1 $907 0 $614 $-1 forward 7 unknown #
point $-1 1 0 -0.5 #
edge $-1 $908 1 $908 0 $618 $-1 forward 7 unknown #
point $-1 1 0 -0.5 #
plane-surface $-1 314.96078371532337 0 0 -1 0 0 0 0 1 forward_v I I I I #
coedge $-1 $627 $625 $629 $817 reversed $426 $-1 #
edge $-1 $640 -157.48039185766169 $819 157.48039185766169 $639 $909 forward 7 unknown #
vertex $-1 $817 $910 #
straight-curve $-1 -314.96078371532337 -6.3921414641785974 0 0 0 -1 I I #
edge $-1 $815 -6.3921414641785974 $819 6.3921414641785974 $813 $911 forward 7 unknown #
straight-curve $-1 0 -6.3921414641785974 -157.48039185766169 -1 0 0 I I #
vertex $-1 $632 $912 #
straight-curve $-1 0 6.3921414641785974 -157.48039185766169 1 0 0 I I #
point $-1 314.96078371532337 6.3921414641785974 -157.48039185766169 #
point $-1 314.96078371532337 -6.3921414641785974 -157.48039185766169 #
straight-curve $-1 -314.96078371532337 0 157.48039185766169 0 -1 0 I I #
point $-1 -314.96078371532337 6.3921414641785974 157.48039185766169 #
point $-1 -314.96078371532337 -6.3921414641785974 157.48039185766169 #
straight-curve $-1 314.96078371532337 -6.3921414641785974 0 0 0 -1 I I #
straight-curve $-1 314.96078371532337 6.3921414641785974 0 0 0 -1 I I #
edge $-1 $913 1 $913 0 $649 $-1 forward 7 unknown #
point $-1 1 0 -0.5 #
edge $-1 $914 1 $914 0 $653 $-1 forward 7 unknown #
point $-1 1 0 -0.5 #
edge $-1 $915 1 $915 0 $657 $-1 forward 7 unknown #
point $-1 1 0 -0.5 #
plane-surface $-1 314.96078371532337 0 0 -1 0 0 0 0 1 forward_v I I I I #
coedge $-1 $666 $664 $668 $839 reversed $460 $-1 #
edge $-1 $679 -157.48039185766169 $841 157.48039185766169 $678 $916 forward 7 unknown #
vertex $-1 $839 $917 #
straight-curve $-1 -314.96078371532337 -6.3921414641785974 0 0 0 -1 I I #
edge $-1 $837 -6.3921414641785974 $841 6.3921414641785974 $835 $918 forward 7 unknown #
straight-curve $-1 0 -6.3921414641785974 -157.48039185766169 -1 0 0 I I #
vertex $-1 $671 $919 #
straight-curve $-1 0 6.3921414641785974 -157.48039185766169 1 0 0 I I #
point $-1 314.96078371532337 6.3921414641785974 -157.48039185766169 #
point $-1 314.96078371532337 -6.3921414641785974 -157.48039185766169 #
straight-curve $-1 -314.96078371532337 0 157.48039185766169 0 -1 0 I I #
point $-1 -314.96078371532337 6.3921414641785974 157.48039185766169 #
point $-1 -314.96078371532337 -6.3921414641785974 157.48039185766169 #
straight-curve $-1 314.96078371532337 -6.3921414641785974 0 0 0 -1 I I #
straight-curve $-1 314.96078371532337 6.3921414641785974 0 0 0 -1 I I #
edge $-1 $920 1 $920 0 $688 $-1 forward 7 unknown #
point $-1 1 0 -0.5 #
edge $-1 $921 1 $921 0 $692 $-1 forward 7 unknown #
point $-1 1 0 -0.5 #
edge $-1 $922 1 $922 0 $696 $-1 forward 7 unknown #
point $-1 1 0 -0.5 #
plane-surface $-1 314.96078371532337 0 0 -1 0 0 0 0 1 forward_v I I I I #
coedge $-1 $705 $703 $707 $861 reversed $494 $-1 #
edge $-1 $718 -157.48039185766169 $863 157.48039185766169 $717 $923 forward 7 unknown #
vertex $-1 $861 $924 #
straight-curve $-1 -314.96078371532337 -6.3921414641785974 0 0 0 -1 I I #
edge $-1 $859 -6.3921414641785974 $863 6.3921414641785974 $857 $925 forward 7 unknown #
straight-curve $-1 0 -6.3921414641785974 -157.48039185766169 -1 0 0 I I #
vertex $-1 $710 $926 #
straight-curve $-1 0 6.3921414641785974 -157.48039185766169 1 0 0 I I #
point $-1 314.96078371532337 6.3921414641785974 -157.48039185766169 #
point $-1 314.96078371532337 -6.3921414641785974 -157.48039185766169 #
straight-curve $-1 -314.96078371532337 0 157.48039185766169 0 -1 0 I I #
point $-1 -314.96078371532337 6.3921414641785974 157.48039185766169 #
point $-1 -314.96078371532337 -6.3921414641785974 157.48039185766169 #
straight-curve $-1 314.96078371532337 -6.3921414641785974 0 0 0 -1 I I #
straight-curve $-1 314.96078371532337 6.3921414641785974 0 0 0 -1 I I #
edge $-1 $927 1 $927 0 $727 $-1 forward 7 unknown #
point $-1 1 0 -0.5 #
edge $-1 $928 1 $928 0 $731 $-1 forward 7 unknown #
point $-1 1 0 -0.5 #
edge $-1 $929 1 $929 0 $735 $-1 forward 7 unknown #
point $-1 1 0 -0.5 #
plane-surface $-1 314.96078371532337 0 0 -1 0 0 0 0 1 forward_v I I I I #
coedge $-1 $744 $742 $746 $883 reversed $528 $-1 #
edge $-1 $757 -157.48039185766169 $885 157.48039185766169 $756 $930 forward 7 unknown #
vertex $-1 $883 $931 #
straight-curve $-1 -314.96078371532337 -8.1813603848455791 0 0 0 -1 I I #
edge $-1 $881 -8.1813603848455791 $885 8.1813603848455791 $879 $932 forward 7 unknown #
straight-curve $-1 0 -8.1813603848455791 -157.48039185766169 -1 0 0 I I #
vertex $-1 $749 $933 #
straight-curve $-1 0 8.1813603848455791 -157.48039185766169 1 0 0 I I #
point $-1 314.96078371532337 8.1813603848455791 -157.48039185766169 #
point $-1 314.96078371532337 -8.1813603848455791 -157.48039185766169 #
straight-curve $-1 -314.96078371532337 0 157.48039185766169 0 -1 0 I I #
point $-1 -314.96078371532337 8.1813603848455791 157.48039185766169 #
point $-1 -314.96078371532337 -8.1813603848455791 157.48039185766169 #
straight-curve $-1 314.96078371532337 -8.1813603848455791 0 0 0 -1 I I #
straight-curve $-1 314.96078371532337 8.1813603848455791 0 0 0 -1 I I #
edge $-1 $934 1 $934 0 $766 $-1 forward 7 unknown #
point $-1 0.5 0 -0.25 #
edge $-1 $935 1 $935 0 $770 $-1 forward 7 unknown #
point $-1 0.5 0 -0.25 #
straight-curve $-1 -78.740195928830843 39.312905769124242 0 0 0 -1 I I #
point $-1 -78.740195928830843 -39.312905769124242 -10.845692482428337 #
straight-curve $-1 -78.740195928830843 0 -10.845692482428337 0 1 0 I I #
point $-1 -78.740195928830843 39.312905769124242 -10.845692482428337 #
straight-curve $-1 -314.96078371532337 6.3921414641785974 0 0 0 -1 I I #
point $-1 -314.96078371532337 -6.3921414641785974 -157.48039185766169 #
straight-curve $-1 -314.96078371532337 0 -157.48039185766169 0 1 0 I I #
point $-1 -314.96078371532337 6.3921414641785974 -157.48039185766169 #
vertex $-1 $806 $936 #
vertex $-1 $808 $937 #
vertex $-1 $810 $938 #
straight-curve $-1 -314.96078371532337 6.3921414641785974 0 0 0 -1 I I #
point $-1 -314.96078371532337 -6.3921414641785974 -157.48039185766169 #
straight-curve $-1 -314.96078371532337 0 -157.48039185766169 0 1 0 I I #
point $-1 -314.96078371532337 6.3921414641785974 -157.48039185766169 #
vertex $-1 $828 $939 #
vertex $-1 $830 $940 #
vertex $-1 $832 $941 #
straight-curve $-1 -314.96078371532337 6.3921414641785974 0 0 0 -1 I I #
point $-1 -314.96078371532337 -6.3921414641785974 -157.48039185766169 #
straight-curve $-1 -314.96078371532337 0 -157.48039185766169 0 1 0 I I #
point $-1 -314.96078371532337 6.3921414641785974 -157.48039185766169 #
vertex $-1 $850 $942 #
vertex $-1 $852 $943 #
vertex $-1 $854 $944 #
straight-curve $-1 -314.96078371532337 6.3921414641785974 0 0 0 -1 I I #
point $-1 -314.96078371532337 -6.3921414641785974 -157.48039185766169 #
straight-curve $-1 -314.96078371532337 0 -157.48039185766169 0 1 0 I I #
point $-1 -314.96078371532337 6.3921414641785974 -157.48039185766169 #
vertex $-1 $872 $945 #
vertex $-1 $874 $946 #
vertex $-1 $876 $947 #
straight-curve $-1 -314.96078371532337 8.1813603848455791 0 0 0 -1 I I #
point $-1 -314.96078371532337 -8.1813603848455791 -157.48039185766169 #
straight-curve $-1 -314.96078371532337 0 -157.48039185766169 0 1 0 I I #
point $-1 -314.96078371532337 8.1813603848455791 -157.48039185766169 #
vertex $-1 $894 $948 #
vertex $-1 $896 $949 #
point $-1 0 0 0.5 #
point $-1 0 0 0.5 #
point $-1 0 0 0.5 #
point $-1 0 0 0.5 #
point $-1 0 0 0.5 #
point $-1 0 0 0.5 #
point $-1 0 0 0.5 #
point $-1 0 0 0.5 #
point $-1 0 0 0.5 #
point $-1 0 0 0.5 #
point $-1 0 0 0.5 #
point $-1 0 0 0.5 #
point $-1 0 0 0.25 #
point $-1 0 0 0.25 #
End-of-ACIS-data 