500 0 16 0           
7 Unknown 11 ACIS 5.0 NT 24 Fri Mar 26 00:48:31 1999 
-1 9.9999999999999995e-007 1e-010 
body $-1 $16 $-1 $17 #
body $-1 $18 $-1 $19 #
body $-1 $20 $-1 $21 #
body $-1 $22 $-1 $23 #
body $-1 $24 $-1 $25 #
body $-1 $26 $-1 $27 #
body $-1 $28 $-1 $29 #
body $-1 $30 $-1 $31 #
body $-1 $32 $-1 $33 #
body $-1 $34 $-1 $35 #
body $-1 $36 $-1 $37 #
body $-1 $38 $-1 $39 #
body $-1 $40 $-1 $41 #
body $-1 $42 $-1 $43 #
body $-1 $44 $-1 $45 #
body $-1 $46 $-1 $47 #
lump $-1 $-1 $48 $0 #
transform $-1 1 0 0 0 1 0 0 0 1 67.210303048799091 38.255742671057526 12.596012956007735 1 rotate no_reflect no_shear #
lump $-1 $-1 $49 $1 #
transform $-1 1 0 0 0 1 0 0 0 1 67.210303048799091 38.255742671057526 12.596012956007735 1 rotate no_reflect no_shear #
lump $-1 $-1 $50 $2 #
transform $-1 1 0 0 0 1 0 0 0 1 67.210303048799091 38.255742671057526 12.596012956007735 1 rotate no_reflect no_shear #
lump $-1 $-1 $51 $3 #
transform $-1 1 0 0 0 1 0 0 0 1 67.210303048799091 38.255742671057526 12.596012956007735 1 rotate no_reflect no_shear #
lump $-1 $-1 $52 $4 #
transform $-1 1 0 0 0 1 0 0 0 1 67.210303048799091 38.255742671057526 12.596012956007735 1 rotate no_reflect no_shear #
lump $-1 $-1 $53 $5 #
transform $-1 1 0 0 0 1 0 0 0 1 67.210303048799091 38.255742671057526 12.596012956007735 1 rotate no_reflect no_shear #
lump $-1 $-1 $54 $6 #
transform $-1 1 0 0 0 1 0 0 0 1 67.210303048799091 38.255742671057526 12.596012956007735 1 rotate no_reflect no_shear #
lump $-1 $-1 $55 $7 #
transform $-1 1 0 0 0 1 0 0 0 1 67.210303048799091 38.255742671057526 12.596012956007735 1 rotate no_reflect no_shear #
lump $-1 $-1 $56 $8 #
transform $-1 1 0 0 0 1 0 0 0 1 67.210303048799091 38.255742671057526 12.596012956007735 1 rotate no_reflect no_shear #
lump $-1 $-1 $57 $9 #
transform $-1 1 0 0 0 1 0 0 0 1 67.210303048799091 38.255742671057526 12.596012956007735 1 rotate no_reflect no_shear #
lump $-1 $-1 $58 $10 #
transform $-1 1 0 0 0 1 0 0 0 1 67.210303048799091 38.255742671057526 12.596012956007735 1 rotate no_reflect no_shear #
lump $-1 $-1 $59 $11 #
transform $-1 1 0 0 0 1 0 0 0 1 67.210303048799091 38.255742671057526 12.596012956007735 1 rotate no_reflect no_shear #
lump $-1 $-1 $60 $12 #
transform $-1 1 0 0 0 1 0 0 0 1 67.210303048799091 38.255742671057526 12.596012956007735 1 rotate no_reflect no_shear #
lump $-1 $-1 $61 $13 #
transform $-1 1 0 0 0 1 0 0 0 1 67.210303048799091 38.255742671057526 12.596012956007735 1 rotate no_reflect no_shear #
lump $-1 $-1 $62 $14 #
transform $-1 1 0 0 0 1 0 0 0 1 67.210303048799091 38.255742671057526 12.596012956007735 1 rotate no_reflect no_shear #
lump $-1 $-1 $63 $15 #
transform $-1 1 0 0 0 1 0 0 0 1 67.210303048799091 38.255742671057526 12.596012956007735 1 rotate no_reflect no_shear #
shell $-1 $-1 $-1 $64 $-1 $16 #
shell $-1 $-1 $-1 $65 $-1 $18 #
shell $-1 $-1 $-1 $66 $-1 $20 #
shell $-1 $-1 $-1 $67 $-1 $22 #
shell $-1 $-1 $-1 $68 $-1 $24 #
shell $-1 $-1 $-1 $69 $-1 $26 #
shell $-1 $-1 $-1 $70 $-1 $28 #
shell $-1 $-1 $-1 $71 $-1 $30 #
shell $-1 $-1 $-1 $72 $-1 $32 #
shell $-1 $-1 $-1 $73 $-1 $34 #
shell $-1 $-1 $-1 $74 $-1 $36 #
shell $-1 $-1 $-1 $75 $-1 $38 #
shell $-1 $-1 $-1 $76 $-1 $40 #
shell $-1 $-1 $-1 $77 $-1 $42 #
shell $-1 $-1 $-1 $78 $-1 $44 #
shell $-1 $-1 $-1 $79 $-1 $46 #
face $-1 $80 $81 $48 $-1 $82 forward single #
face $-1 $83 $84 $49 $-1 $85 reversed single #
face $-1 $86 $87 $50 $-1 $88 reversed single #
face $-1 $89 $90 $51 $-1 $91 forward single #
face $-1 $92 $93 $52 $-1 $94 forward single #
face $-1 $95 $96 $53 $-1 $97 reversed single #
face $-1 $98 $99 $54 $-1 $100 forward single #
face $-1 $101 $102 $55 $-1 $103 forward single #
face $-1 $104 $105 $56 $-1 $106 reversed single #
face $-1 $107 $108 $57 $-1 $109 forward single #
face $-1 $110 $111 $58 $-1 $112 forward single #
face $-1 $113 $114 $59 $-1 $115 reversed single #
face $-1 $116 $117 $60 $-1 $118 forward single #
face $-1 $119 $120 $61 $-1 $121 forward single #
face $-1 $122 $123 $62 $-1 $124 reversed single #
face $-1 $125 $126 $63 $-1 $127 forward single #
face $-1 $128 $129 $48 $-1 $130 reversed single #
loop $-1 $-1 $131 $64 #
plane-surface $-1 0 0 12.596012956007735 0 0 1 1 0 0 forward_v I I I I #
face $-1 $132 $133 $49 $-1 $134 reversed single #
loop $-1 $-1 $135 $65 #
plane-surface $-1 -57.968683191474319 -33.17377212874036 0 1 0 0 0 0 -1 forward_v I I I I #
face $-1 $136 $137 $50 $-1 $138 reversed single #
loop $-1 $-1 $139 $66 #
plane-surface $-1 50.642046746247104 -14.786410972426658 198.13684620755922 0 -1 0 -0.64278761758704617 0 -0.76604443648966558 forward_v I I I I #
face $-1 $140 $141 $51 $-1 $142 forward single #
loop $-1 $143 $144 $67 #
cone-surface $-1 63.657149572683757 -20.200439890812326 9.1674572938056471 -0.64278761758704617 0 -0.76604443648966558 0.76604443648966558 0 -0.64278761758704617 1 I I 0 1 1 forward I I I I #
face $-1 $145 $146 $52 $-1 $147 forward single #
loop $-1 $148 $149 $68 #
cone-surface $-1 63.657149572683757 -16.952022539780927 9.1674572938056471 -0.64278761758704617 0 -0.76604443648966558 0.76604443648966558 0 -0.64278761758704617 1 I I 0 1 1 forward I I I I #
face $-1 $150 $151 $53 $-1 $152 reversed single #
loop $-1 $-1 $153 $69 #
plane-surface $-1 50.642046746247104 0.98572353264919954 198.13684620755922 0 -1 0 -0.64278761758704617 0 -0.76604443648966558 forward_v I I I I #
face $-1 $154 $155 $54 $-1 $156 forward single #
loop $-1 $157 $158 $70 #
cone-surface $-1 63.657149572683757 -4.4283053857364649 9.1674572938056471 -0.64278761758704617 0 -0.76604443648966558 0.76604443648966558 0 -0.64278761758704617 1 I I 0 1 1 forward I I I I #
face $-1 $159 $160 $55 $-1 $161 forward single #
loop $-1 $162 $163 $71 #
cone-surface $-1 63.657149572683757 -1.1798880347050655 9.1674572938056471 -0.64278761758704617 0 -0.76604443648966558 0.76604443648966558 0 -0.64278761758704617 1 I I 0 1 1 forward I I I I #
face $-1 $164 $165 $56 $-1 $166 reversed single #
loop $-1 $-1 $167 $72 #
plane-surface $-1 50.642046746247104 16.757858037725061 198.13684620755922 0 -1 0 -0.64278761758704617 0 -0.76604443648966558 forward_v I I I I #
face $-1 $168 $169 $57 $-1 $170 forward single #
loop $-1 $171 $172 $73 #
cone-surface $-1 63.657149572683757 11.343829119339397 9.1674572938056471 -0.64278761758704617 0 -0.76604443648966558 0.76604443648966558 0 -0.64278761758704617 1 I I 0 1 1 forward I I I I #
face $-1 $173 $174 $58 $-1 $175 forward single #
loop $-1 $176 $177 $74 #
cone-surface $-1 63.657149572683757 14.592246470370796 9.1674572938056471 -0.64278761758704617 0 -0.76604443648966558 0.76604443648966558 0 -0.64278761758704617 1 I I 0 1 1 forward I I I I #
face $-1 $178 $179 $59 $-1 $180 reversed single #
loop $-1 $-1 $181 $75 #
plane-surface $-1 50.642046746247104 32.529992542800926 198.13684620755922 0 -1 0 -0.64278761758704617 0 -0.76604443648966558 forward_v I I I I #
face $-1 $182 $183 $60 $-1 $184 forward single #
loop $-1 $185 $186 $76 #
cone-surface $-1 63.657149572683757 27.115963624415265 9.1674572938056471 -0.64278761758704617 0 -0.76604443648966558 0.76604443648966558 0 -0.64278761758704617 1 I I 0 1 1 forward I I I I #
face $-1 $187 $188 $61 $-1 $189 forward single #
loop $-1 $190 $191 $77 #
cone-surface $-1 63.657149572683757 30.364380975446657 9.1674572938056471 -0.64278761758704617 0 -0.76604443648966558 0.76604443648966558 0 -0.64278761758704617 1 I I 0 1 1 forward I I I I #
face $-1 $192 $193 $62 $-1 $194 reversed single #
loop $-1 $-1 $195 $78 #
plane-surface $-1 -148.10664424367246 3.1513698144001481 110.62397734159111 0 1 0 -0.6018150307709319 0 0.79863550430605224 forward_v I I I I #
face $-1 $196 $197 $63 $-1 $198 forward single #
loop $-1 $199 $200 $79 #
cone-surface $-1 -60.160066252234408 9.8971860646217067 6.7884583238101825 0.6018150307709319 0 -0.79863550430605224 1.5972710086121045 0 1.2036300615418638 1 I I 0 1 2 forward I I I I #
face $-1 $201 $202 $48 $-1 $203 reversed single #
loop $-1 $-1 $204 $80 #
plane-surface $-1 0 0 -12.596012956007735 0 0 1 1 0 0 forward_v I I I I #
coedge $-1 $205 $206 $207 $208 forward $81 $-1 #
face $-1 $209 $210 $49 $-1 $211 reversed single #
loop $-1 $-1 $212 $83 #
plane-surface $-1 -55.845078516866529 -28.091801586423195 0 0 -1 0 0 0 -1 forward_v I I I I #
coedge $-1 $213 $214 $215 $216 forward $84 $-1 #
face $-1 $217 $218 $50 $-1 $219 reversed single #
loop $-1 $-1 $220 $86 #
plane-surface $-1 -35.761854401834796 -18.576231215296627 95.164688756925315 0.64278761758704617 0 0.76604443648966558 0.76604443648966558 0 -0.64278761758704617 forward_v I I I I #
coedge $-1 $221 $222 $223 $224 reversed $87 $-1 #
face $-1 $-1 $225 $51 $-1 $226 forward single #
loop $-1 $227 $228 $89 #
cone-surface $-1 62.067924032854677 -20.200439890812326 7.2734920869408963 -0.64278761758704617 0 -0.76604443648966558 0.38302221824483279 0 -0.32139380879352308 1 I I -0.70710678118654746 0.70710678118654746 0.5 forward I I I I #
loop $-1 $-1 $229 $67 #
coedge $-1 $144 $144 $230 $231 reversed $90 $-1 #
face $-1 $-1 $232 $52 $-1 $233 forward single #
loop $-1 $234 $235 $92 #
cone-surface $-1 62.067924032854677 -16.952022539780927 7.2734920869408963 -0.64278761758704617 0 -0.76604443648966558 0.38302221824483279 0 -0.32139380879352308 1 I I -0.70710678118654746 0.70710678118654746 0.5 forward I I I I #
loop $-1 $-1 $236 $68 #
coedge $-1 $149 $149 $237 $238 reversed $93 $-1 #
face $-1 $239 $240 $53 $-1 $241 reversed single #
loop $-1 $-1 $242 $95 #
plane-surface $-1 -35.761854401834796 -2.8040967102207688 95.164688756925315 0.64278761758704617 0 0.76604443648966558 0.76604443648966558 0 -0.64278761758704617 forward_v I I I I #
coedge $-1 $243 $244 $245 $246 reversed $96 $-1 #
face $-1 $-1 $247 $54 $-1 $248 forward single #
loop $-1 $249 $250 $98 #
cone-surface $-1 62.067924032854677 -4.4283053857364649 7.2734920869408963 -0.64278761758704617 0 -0.76604443648966558 0.38302221824483279 0 -0.32139380879352308 1 I I -0.70710678118654746 0.70710678118654746 0.5 forward I I I I #
loop $-1 $-1 $251 $70 #
coedge $-1 $158 $158 $252 $253 reversed $99 $-1 #
face $-1 $-1 $254 $55 $-1 $255 forward single #
loop $-1 $256 $257 $101 #
cone-surface $-1 62.067924032854677 -1.1798880347050655 7.2734920869408963 -0.64278761758704617 0 -0.76604443648966558 0.38302221824483279 0 -0.32139380879352308 1 I I -0.70710678118654746 0.70710678118654746 0.5 forward I I I I #
loop $-1 $-1 $258 $71 #
coedge $-1 $163 $163 $259 $260 reversed $102 $-1 #
face $-1 $261 $262 $56 $-1 $263 reversed single #
loop $-1 $-1 $264 $104 #
plane-surface $-1 -35.761854401834796 12.968037794855093 95.164688756925315 0.64278761758704617 0 0.76604443648966558 0.76604443648966558 0 -0.64278761758704617 forward_v I I I I #
coedge $-1 $265 $266 $267 $268 reversed $105 $-1 #
face $-1 $-1 $269 $57 $-1 $270 forward single #
loop $-1 $271 $272 $107 #
cone-surface $-1 62.067924032854677 11.343829119339397 7.2734920869408963 -0.64278761758704617 0 -0.76604443648966558 0.38302221824483279 0 -0.32139380879352308 1 I I -0.70710678118654746 0.70710678118654746 0.5 forward I I I I #
loop $-1 $-1 $273 $73 #
coedge $-1 $172 $172 $274 $275 reversed $108 $-1 #
face $-1 $-1 $276 $58 $-1 $277 forward single #
loop $-1 $278 $279 $110 #
cone-surface $-1 62.067924032854677 14.592246470370796 7.2734920869408963 -0.64278761758704617 0 -0.76604443648966558 0.38302221824483279 0 -0.32139380879352308 1 I I -0.70710678118654746 0.70710678118654746 0.5 forward I I I I #
loop $-1 $-1 $280 $74 #
coedge $-1 $177 $177 $281 $282 reversed $111 $-1 #
face $-1 $283 $284 $59 $-1 $285 reversed single #
loop $-1 $-1 $286 $113 #
plane-surface $-1 -35.761854401834796 28.740172299930954 95.164688756925315 0.64278761758704617 0 0.76604443648966558 0.76604443648966558 0 -0.64278761758704617 forward_v I I I I #
coedge $-1 $287 $288 $289 $290 reversed $114 $-1 #
face $-1 $-1 $291 $60 $-1 $292 forward single #
loop $-1 $293 $294 $116 #
cone-surface $-1 62.067924032854677 27.115963624415265 7.2734920869408963 -0.64278761758704617 0 -0.76604443648966558 0.38302221824483279 0 -0.32139380879352308 1 I I -0.70710678118654746 0.70710678118654746 0.5 forward I I I I #
loop $-1 $-1 $295 $76 #
coedge $-1 $186 $186 $296 $297 reversed $117 $-1 #
face $-1 $-1 $298 $61 $-1 $299 forward single #
loop $-1 $300 $301 $119 #
cone-surface $-1 62.067924032854677 30.364380975446657 7.2734920869408963 -0.64278761758704617 0 -0.76604443648966558 0.38302221824483279 0 -0.32139380879352308 1 I I -0.70710678118654746 0.70710678118654746 0.5 forward I I I I #
loop $-1 $-1 $302 $77 #
coedge $-1 $191 $191 $303 $304 reversed $120 $-1 #
face $-1 $305 $306 $62 $-1 $307 reversed single #
loop $-1 $-1 $308 $122 #
plane-surface $-1 -67.210303048799091 9.8971860646217067 3.2709088017105898 -0.6018150307709319 0 0.79863550430605224 0.79863550430605224 0 0.6018150307709319 forward_v I I I I #
coedge $-1 $309 $310 $311 $312 reversed $123 $-1 #
face $-1 $-1 $313 $63 $-1 $314 forward single #
loop $-1 $315 $316 $125 #
cone-surface $-1 -58.69542989160243 9.8971860646217067 4.8448202644551568 0.6018150307709319 0 -0.79863550430605224 0.79863550430605224 0 0.6018150307709319 1 I I -0.70710678118654746 0.70710678118654746 1 forward I I I I #
loop $-1 $-1 $317 $79 #
coedge $-1 $200 $200 $318 $319 reversed $126 $-1 #
face $-1 $320 $321 $48 $-1 $322 reversed single #
loop $-1 $-1 $323 $128 #
plane-surface $-1 0 -38.255742671057526 0 0 1 0 0 0 1 forward_v I I I I #
coedge $-1 $324 $325 $326 $327 forward $129 $-1 #
coedge $-1 $328 $131 $329 $330 forward $81 $-1 #
coedge $-1 $131 $328 $331 $332 forward $81 $-1 #
coedge $-1 $333 $334 $131 $208 reversed $335 $-1 #
edge $-1 $336 -38.255742671057526 $337 38.255742671057526 $207 $338 forward 7 unknown #
face $-1 $339 $340 $49 $-1 $341 forward single #
loop $-1 $-1 $342 $132 #
plane-surface $-1 -53.721473842258739 -33.17377212874036 0 -1 0 0 0 0 1 forward_v I I I I #
coedge $-1 $343 $344 $345 $346 forward $133 $-1 #
coedge $-1 $347 $135 $348 $349 reversed $84 $-1 #
coedge $-1 $135 $347 $350 $351 reversed $84 $-1 #
coedge $-1 $344 $343 $135 $216 reversed $133 $-1 #
edge $-1 $352 -12.596012956007735 $353 12.596012956007735 $215 $354 forward 7 unknown #
face $-1 $355 $356 $50 $-1 $357 reversed single #
loop $-1 $-1 $358 $136 #
plane-surface $-1 50.642046746247104 -22.366051458166595 198.13684620755922 0 1 0 0.64278761758704617 0 0.76604443648966558 forward_v I I I I #
coedge $-1 $359 $360 $361 $362 reversed $137 $-1 #
coedge $-1 $222 $139 $363 $364 reversed $87 $-1 #
coedge $-1 $139 $221 $359 $365 reversed $87 $-1 #
coedge $-1 $361 $366 $139 $224 forward $367 $-1 #
edge $-1 $368 -41.889279675675539 $369 -37.318636185516027 $223 $370 forward 7 unknown #
loop $-1 $-1 $230 $140 #
plane-surface $-1 -35.761854401834796 -18.576231215296627 95.164688756925315 0.64278761758704617 0 0.76604443648966558 0.76604443648966558 0 -0.64278761758704617 forward_v I I I I #
loop $-1 $-1 $371 $89 #
coedge $-1 $228 $228 $229 $372 reversed $141 $-1 #
coedge $-1 $229 $229 $228 $372 forward $143 $-1 #
coedge $-1 $230 $230 $144 $231 forward $225 $-1 #
edge $-1 $373 0 $373 6.2831853071796004 $230 $374 forward 7 unknown #
loop $-1 $-1 $237 $145 #
plane-surface $-1 -35.761854401834796 -18.576231215296627 95.164688756925315 0.64278761758704617 0 0.76604443648966558 0.76604443648966558 0 -0.64278761758704617 forward_v I I I I #
loop $-1 $-1 $375 $92 #
coedge $-1 $235 $235 $236 $376 reversed $146 $-1 #
coedge $-1 $236 $236 $235 $376 forward $148 $-1 #
coedge $-1 $237 $237 $149 $238 forward $232 $-1 #
edge $-1 $377 0 $377 6.2831853071796004 $237 $378 forward 7 unknown #
face $-1 $379 $380 $53 $-1 $381 reversed single #
loop $-1 $-1 $382 $150 #
plane-surface $-1 50.642046746247104 -6.5939169530907371 198.13684620755922 0 1 0 0.64278761758704617 0 0.76604443648966558 forward_v I I I I #
coedge $-1 $383 $384 $385 $386 reversed $151 $-1 #
coedge $-1 $244 $153 $387 $388 reversed $96 $-1 #
coedge $-1 $153 $243 $383 $389 reversed $96 $-1 #
coedge $-1 $385 $390 $153 $246 forward $391 $-1 #
edge $-1 $392 -41.889279675675539 $393 -37.318636185516027 $245 $394 forward 7 unknown #
loop $-1 $-1 $252 $154 #
plane-surface $-1 -35.761854401834796 -2.8040967102207688 95.164688756925315 0.64278761758704617 0 0.76604443648966558 0.76604443648966558 0 -0.64278761758704617 forward_v I I I I #
loop $-1 $-1 $395 $98 #
coedge $-1 $250 $250 $251 $396 reversed $155 $-1 #
coedge $-1 $251 $251 $250 $396 forward $157 $-1 #
coedge $-1 $252 $252 $158 $253 forward $247 $-1 #
edge $-1 $397 0 $397 6.2831853071796004 $252 $398 forward 7 unknown #
loop $-1 $-1 $259 $159 #
plane-surface $-1 -35.761854401834796 -2.8040967102207688 95.164688756925315 0.64278761758704617 0 0.76604443648966558 0.76604443648966558 0 -0.64278761758704617 forward_v I I I I #
loop $-1 $-1 $399 $101 #
coedge $-1 $257 $257 $258 $400 reversed $160 $-1 #
coedge $-1 $258 $258 $257 $400 forward $162 $-1 #
coedge $-1 $259 $259 $163 $260 forward $254 $-1 #
edge $-1 $401 0 $401 6.2831853071796004 $259 $402 forward 7 unknown #
face $-1 $403 $404 $56 $-1 $405 reversed single #
loop $-1 $-1 $406 $164 #
plane-surface $-1 50.642046746247104 9.1782175519851243 198.13684620755922 0 1 0 0.64278761758704617 0 0.76604443648966558 forward_v I I I I #
coedge $-1 $407 $408 $409 $410 reversed $165 $-1 #
coedge $-1 $266 $167 $411 $412 reversed $105 $-1 #
coedge $-1 $167 $265 $407 $413 reversed $105 $-1 #
coedge $-1 $409 $414 $167 $268 forward $415 $-1 #
edge $-1 $416 -41.889279675675539 $417 -37.318636185516027 $267 $418 forward 7 unknown #
loop $-1 $-1 $274 $168 #
plane-surface $-1 -35.761854401834796 12.968037794855093 95.164688756925315 0.64278761758704617 0 0.76604443648966558 0.76604443648966558 0 -0.64278761758704617 forward_v I I I I #
loop $-1 $-1 $419 $107 #
coedge $-1 $272 $272 $273 $420 reversed $169 $-1 #
coedge $-1 $273 $273 $272 $420 forward $171 $-1 #
coedge $-1 $274 $274 $172 $275 forward $269 $-1 #
edge $-1 $421 0 $421 6.2831853071796004 $274 $422 forward 7 unknown #
loop $-1 $-1 $281 $173 #
plane-surface $-1 -35.761854401834796 12.968037794855093 95.164688756925315 0.64278761758704617 0 0.76604443648966558 0.76604443648966558 0 -0.64278761758704617 forward_v I I I I #
loop $-1 $-1 $423 $110 #
coedge $-1 $279 $279 $280 $424 reversed $174 $-1 #
coedge $-1 $280 $280 $279 $424 forward $176 $-1 #
coedge $-1 $281 $281 $177 $282 forward $276 $-1 #
edge $-1 $425 0 $425 6.2831853071796004 $281 $426 forward 7 unknown #
face $-1 $427 $428 $59 $-1 $429 reversed single #
loop $-1 $-1 $430 $178 #
plane-surface $-1 50.642046746247104 24.950352057060986 198.13684620755922 0 1 0 0.64278761758704617 0 0.76604443648966558 forward_v I I I I #
coedge $-1 $431 $432 $433 $434 reversed $179 $-1 #
coedge $-1 $288 $181 $435 $436 reversed $114 $-1 #
coedge $-1 $181 $287 $431 $437 reversed $114 $-1 #
coedge $-1 $433 $438 $181 $290 forward $439 $-1 #
edge $-1 $440 -41.889279675675539 $441 -37.318636185516027 $289 $442 forward 7 unknown #
loop $-1 $-1 $296 $182 #
plane-surface $-1 -35.761854401834796 28.740172299930954 95.164688756925315 0.64278761758704617 0 0.76604443648966558 0.76604443648966558 0 -0.64278761758704617 forward_v I I I I #
loop $-1 $-1 $443 $116 #
coedge $-1 $294 $294 $295 $444 reversed $183 $-1 #
coedge $-1 $295 $295 $294 $444 forward $185 $-1 #
coedge $-1 $296 $296 $186 $297 forward $291 $-1 #
edge $-1 $445 0 $445 6.2831853071796004 $296 $446 forward 7 unknown #
loop $-1 $-1 $303 $187 #
plane-surface $-1 -35.761854401834796 28.740172299930954 95.164688756925315 0.64278761758704617 0 0.76604443648966558 0.76604443648966558 0 -0.64278761758704617 forward_v I I I I #
loop $-1 $-1 $447 $119 #
coedge $-1 $301 $301 $302 $448 reversed $188 $-1 #
coedge $-1 $302 $302 $301 $448 forward $190 $-1 #
coedge $-1 $303 $303 $191 $304 forward $298 $-1 #
edge $-1 $449 0 $449 6.2831853071796004 $303 $450 forward 7 unknown #
face $-1 $451 $452 $62 $-1 $453 reversed single #
loop $-1 $-1 $454 $192 #
plane-surface $-1 -148.10664424367246 16.643002314843265 110.62397734159111 0 -1 0 0.6018150307709319 0 -0.79863550430605224 forward_v I I I I #
coedge $-1 $455 $456 $457 $458 reversed $193 $-1 #
coedge $-1 $310 $195 $459 $460 reversed $123 $-1 #
coedge $-1 $195 $309 $455 $461 reversed $123 $-1 #
coedge $-1 $457 $462 $195 $312 forward $463 $-1 #
edge $-1 $464 6.8430190730371407 $465 19.217850006444394 $311 $466 forward 7 unknown #
loop $-1 $-1 $318 $196 #
plane-surface $-1 -67.210303048799091 9.8971860646217067 3.2709088017105898 -0.6018150307709319 0 0.79863550430605224 0.79863550430605224 0 0.6018150307709319 forward_v I I I I #
loop $-1 $-1 $467 $125 #
coedge $-1 $316 $316 $317 $468 reversed $197 $-1 #
coedge $-1 $317 $317 $316 $468 forward $199 $-1 #
coedge $-1 $318 $318 $200 $319 forward $313 $-1 #
edge $-1 $469 0 $469 6.2831853071796004 $318 $470 forward 7 unknown #
face $-1 $471 $472 $48 $-1 $473 reversed single #
loop $-1 $-1 $474 $201 #
plane-surface $-1 -67.210303048799091 0 0 1 0 0 0 0 -1 forward_v I I I I #
coedge $-1 $475 $331 $476 $477 forward $202 $-1 #
coedge $-1 $478 $204 $475 $479 forward $129 $-1 #
coedge $-1 $204 $478 $480 $481 forward $129 $-1 #
coedge $-1 $334 $333 $204 $327 reversed $335 $-1 #
edge $-1 $482 -38.255742671057526 $483 38.255742671057526 $326 $484 forward 7 unknown #
coedge $-1 $206 $205 $485 $486 forward $81 $-1 #
coedge $-1 $487 $488 $205 $330 reversed $472 $-1 #
edge $-1 $337 -67.210303048799091 $489 67.210303048799091 $329 $490 forward 7 unknown #
coedge $-1 $323 $491 $206 $332 reversed $202 $-1 #
edge $-1 $492 -67.210303048799091 $336 67.210303048799091 $331 $493 forward 7 unknown #
coedge $-1 $326 $207 $491 $494 forward $335 $-1 #
coedge $-1 $207 $326 $487 $495 reversed $335 $-1 #
loop $-1 $-1 $333 $471 #
vertex $-1 $208 $496 #
vertex $-1 $208 $497 #
straight-curve $-1 67.210303048799091 0 12.596012956007735 0 1 0 I I #
face $-1 $498 $499 $49 $-1 $500 reversed single #
loop $-1 $-1 $501 $209 #
plane-surface $-1 0 0 12.596012956007735 0 0 1 1 0 0 forward_v I I I I #
coedge $-1 $502 $503 $504 $505 reversed $210 $-1 #
coedge $-1 $215 $212 $506 $507 reversed $133 $-1 #
coedge $-1 $212 $215 $508 $509 reversed $133 $-1 #
coedge $-1 $503 $502 $212 $346 reversed $210 $-1 #
edge $-1 $510 -12.596012956007735 $511 12.596012956007735 $345 $512 forward 7 unknown #
coedge $-1 $214 $213 $513 $514 reversed $84 $-1 #
coedge $-1 $506 $515 $213 $349 forward $499 $-1 #
edge $-1 $516 -21.668856606687346 $353 -11.504915522053015 $348 $517 forward 7 unknown #
coedge $-1 $518 $508 $214 $351 forward $340 $-1 #
edge $-1 $352 11.504915522053015 $519 21.668856606687346 $350 $520 forward 7 unknown #
vertex $-1 $351 $521 #
vertex $-1 $349 $522 #
straight-curve $-1 -57.968683191474319 -28.091801586423195 0 0 0 -1 I I #
face $-1 $-1 $367 $50 $-1 $523 forward single #
loop $-1 $-1 $524 $217 #
plane-surface $-1 67.210303048799091 0 0 -1 0 0 0 0 1 forward_v I I I I #
coedge $-1 $525 $526 $527 $528 reversed $218 $-1 #
coedge $-1 $529 $220 $222 $365 forward $137 $-1 #
coedge $-1 $220 $529 $525 $530 forward $137 $-1 #
coedge $-1 $527 $223 $220 $362 forward $367 $-1 #
edge $-1 $369 5.498295364778345 $531 13.077935850518282 $361 $532 forward 7 unknown #
coedge $-1 $533 $534 $221 $364 forward $356 $-1 #
edge $-1 $535 -90.307635494936179 $368 -86.472410147771868 $363 $536 forward 7 unknown #
edge $-1 $369 128.45405471697055 $535 134.42060609759815 $222 $537 forward 7 unknown #
coedge $-1 $223 $527 $533 $538 forward $367 $-1 #
loop $-1 $-1 $527 $355 #
vertex $-1 $364 $539 #
vertex $-1 $224 $540 #
straight-curve $-1 25.321023373123552 -14.786410972426658 12.596012956007741 -1 0 0 I I #
coedge $-1 $371 $371 $-1 $541 reversed $227 $-1 #
edge $-1 $542 0 $542 6.2831853071796004 $228 $543 forward 7 unknown #
vertex $-1 $231 $544 #
ellipse-curve $-1 64.924981303719335 -20.200439890812326 10.678400282425597 0.64278761758704617 0 0.76604443648966558 0.76604443648966558 0 -0.64278761758704617 1 I I #
coedge $-1 $375 $375 $-1 $545 reversed $234 $-1 #
edge $-1 $546 0 $546 6.2831853071796004 $235 $547 forward 7 unknown #
vertex $-1 $238 $548 #
ellipse-curve $-1 64.924981303719335 -16.952022539780927 10.678400282425597 0.64278761758704617 0 0.76604443648966558 0.76604443648966558 0 -0.64278761758704617 1 I I #
face $-1 $-1 $391 $53 $-1 $549 forward single #
loop $-1 $-1 $550 $239 #
plane-surface $-1 67.210303048799091 0 0 -1 0 0 0 0 1 forward_v I I I I #
coedge $-1 $551 $552 $553 $554 reversed $240 $-1 #
coedge $-1 $555 $242 $244 $389 forward $151 $-1 #
coedge $-1 $242 $555 $551 $556 forward $151 $-1 #
coedge $-1 $553 $245 $242 $386 forward $391 $-1 #
edge $-1 $393 -2.3877718877595839 $557 5.1918685979803527 $385 $558 forward 7 unknown #
coedge $-1 $559 $560 $243 $388 forward $380 $-1 #
edge $-1 $561 -90.307635494936179 $392 -86.472410147771868 $387 $562 forward 7 unknown #
edge $-1 $393 128.45405471697055 $561 134.42060609759815 $244 $563 forward 7 unknown #
coedge $-1 $245 $553 $559 $564 forward $391 $-1 #
loop $-1 $-1 $553 $379 #
vertex $-1 $388 $565 #
vertex $-1 $246 $566 #
straight-curve $-1 25.321023373123552 0.98572353264919954 12.596012956007741 -1 0 0 I I #
coedge $-1 $395 $395 $-1 $567 reversed $249 $-1 #
edge $-1 $568 0 $568 6.2831853071796004 $250 $569 forward 7 unknown #
vertex $-1 $253 $570 #
ellipse-curve $-1 64.924981303719335 -4.4283053857364649 10.678400282425597 0.64278761758704617 0 0.76604443648966558 0.76604443648966558 0 -0.64278761758704617 1 I I #
coedge $-1 $399 $399 $-1 $571 reversed $256 $-1 #
edge $-1 $572 0 $572 6.2831853071796004 $257 $573 forward 7 unknown #
vertex $-1 $260 $574 #
ellipse-curve $-1 64.924981303719335 -1.1798880347050655 10.678400282425597 0.64278761758704617 0 0.76604443648966558 0.76604443648966558 0 -0.64278761758704617 1 I I #
face $-1 $-1 $415 $56 $-1 $575 forward single #
loop $-1 $-1 $576 $261 #
plane-surface $-1 67.210303048799091 0 0 -1 0 0 0 0 1 forward_v I I I I #
coedge $-1 $577 $578 $579 $580 reversed $262 $-1 #
coedge $-1 $581 $264 $266 $413 forward $165 $-1 #
coedge $-1 $264 $581 $577 $582 forward $165 $-1 #
coedge $-1 $579 $267 $264 $410 forward $415 $-1 #
edge $-1 $417 -10.273839140297515 $583 -2.694198654557578 $409 $584 forward 7 unknown #
coedge $-1 $585 $586 $265 $412 forward $404 $-1 #
edge $-1 $587 -90.307635494936179 $416 -86.472410147771868 $411 $588 forward 7 unknown #
edge $-1 $417 128.45405471697055 $587 134.42060609759815 $266 $589 forward 7 unknown #
coedge $-1 $267 $579 $585 $590 forward $415 $-1 #
loop $-1 $-1 $579 $403 #
vertex $-1 $412 $591 #
vertex $-1 $268 $592 #
straight-curve $-1 25.321023373123552 16.757858037725061 12.596012956007741 -1 0 0 I I #
coedge $-1 $419 $419 $-1 $593 reversed $271 $-1 #
edge $-1 $594 0 $594 6.2831853071796004 $272 $595 forward 7 unknown #
vertex $-1 $275 $596 #
ellipse-curve $-1 64.924981303719335 11.343829119339397 10.678400282425597 0.64278761758704617 0 0.76604443648966558 0.76604443648966558 0 -0.64278761758704617 1 I I #
coedge $-1 $423 $423 $-1 $597 reversed $278 $-1 #
edge $-1 $598 0 $598 6.2831853071796004 $279 $599 forward 7 unknown #
vertex $-1 $282 $600 #
ellipse-curve $-1 64.924981303719335 14.592246470370796 10.678400282425597 0.64278761758704617 0 0.76604443648966558 0.76604443648966558 0 -0.64278761758704617 1 I I #
face $-1 $-1 $439 $59 $-1 $601 forward single #
loop $-1 $-1 $602 $283 #
plane-surface $-1 67.210303048799091 0 0 -1 0 0 0 0 1 forward_v I I I I #
coedge $-1 $603 $604 $605 $606 reversed $284 $-1 #
coedge $-1 $607 $286 $288 $437 forward $179 $-1 #
coedge $-1 $286 $607 $603 $608 forward $179 $-1 #
coedge $-1 $605 $289 $286 $434 forward $439 $-1 #
edge $-1 $441 -18.159906392835449 $609 -10.580265907095509 $433 $610 forward 7 unknown #
coedge $-1 $611 $612 $287 $436 forward $428 $-1 #
edge $-1 $613 -90.307635494936179 $440 -86.472410147771868 $435 $614 forward 7 unknown #
edge $-1 $441 128.45405471697055 $613 134.42060609759815 $288 $615 forward 7 unknown #
coedge $-1 $289 $605 $611 $616 forward $439 $-1 #
loop $-1 $-1 $605 $427 #
vertex $-1 $436 $617 #
vertex $-1 $290 $618 #
straight-curve $-1 25.321023373123552 32.529992542800926 12.596012956007741 -1 0 0 I I #
coedge $-1 $443 $443 $-1 $619 reversed $293 $-1 #
edge $-1 $620 0 $620 6.2831853071796004 $294 $621 forward 7 unknown #
vertex $-1 $297 $622 #
ellipse-curve $-1 64.924981303719335 27.115963624415265 10.678400282425597 0.64278761758704617 0 0.76604443648966558 0.76604443648966558 0 -0.64278761758704617 1 I I #
coedge $-1 $447 $447 $-1 $623 reversed $300 $-1 #
edge $-1 $624 0 $624 6.2831853071796004 $301 $625 forward 7 unknown #
vertex $-1 $304 $626 #
ellipse-curve $-1 64.924981303719335 30.364380975446657 10.678400282425597 0.64278761758704617 0 0.76604443648966558 0.76604443648966558 0 -0.64278761758704617 1 I I #
face $-1 $-1 $463 $62 $-1 $627 forward single #
loop $-1 $-1 $628 $305 #
plane-surface $-1 -67.210303048799091 0 0 1 0 0 0 0 -1 forward_v I I I I #
coedge $-1 $629 $630 $631 $632 reversed $306 $-1 #
coedge $-1 $633 $308 $310 $461 forward $193 $-1 #
coedge $-1 $308 $633 $629 $634 forward $193 $-1 #
coedge $-1 $631 $311 $308 $458 forward $463 $-1 #
edge $-1 $465 -1.7972232179107053 $635 11.694409282532412 $457 $636 forward 7 unknown #
coedge $-1 $637 $638 $309 $460 forward $452 $-1 #
edge $-1 $639 -52.041079869084967 $464 -42.715975714787824 $459 $640 forward 7 unknown #
edge $-1 $465 -15.494967186764317 $639 0 $310 $641 forward 7 unknown #
coedge $-1 $311 $631 $637 $642 forward $463 $-1 #
loop $-1 $-1 $631 $451 #
vertex $-1 $460 $643 #
vertex $-1 $312 $644 #
straight-curve $-1 -74.053322121836231 3.1513698144001481 12.596012956007733 1 0 0 I I #
coedge $-1 $467 $467 $-1 $645 reversed $315 $-1 #
edge $-1 $646 0 $646 6.2831853071796004 $316 $647 forward 7 unknown #
vertex $-1 $319 $648 #
ellipse-curve $-1 -61.022887582095464 9.8971860646217067 7.933460878859167 -0.6018150307709319 0 0.79863550430605224 1.5972710086121045 0 1.2036300615418638 1 I I #
face $-1 $-1 $335 $48 $-1 $649 reversed single #
loop $-1 $-1 $487 $320 #
plane-surface $-1 0 38.255742671057526 0 0 -1 0 0 0 -1 forward_v I I I I #
coedge $-1 $650 $485 $488 $651 forward $321 $-1 #
coedge $-1 $491 $323 $324 $479 reversed $202 $-1 #
coedge $-1 $485 $650 $323 $477 reversed $321 $-1 #
edge $-1 $492 -12.596012956007735 $652 12.596012956007735 $476 $653 forward 7 unknown #
coedge $-1 $325 $324 $650 $654 forward $129 $-1 #
edge $-1 $483 -67.210303048799091 $652 67.210303048799091 $475 $655 forward 7 unknown #
coedge $-1 $488 $487 $325 $481 reversed $472 $-1 #
edge $-1 $656 -67.210303048799091 $482 67.210303048799091 $480 $657 forward 7 unknown #
vertex $-1 $327 $658 #
vertex $-1 $494 $659 #
straight-curve $-1 67.210303048799091 0 -12.596012956007735 0 -1 0 I I #
coedge $-1 $474 $476 $328 $486 reversed $321 $-1 #
edge $-1 $489 -38.255742671057526 $492 38.255742671057526 $485 $660 forward 7 unknown #
coedge $-1 $480 $329 $334 $495 forward $472 $-1 #
coedge $-1 $329 $480 $474 $651 reversed $472 $-1 #
vertex $-1 $330 $661 #
straight-curve $-1 0 38.255742671057526 12.596012956007735 -1 0 0 I I #
coedge $-1 $331 $475 $333 $494 reversed $202 $-1 #
vertex $-1 $486 $662 #
straight-curve $-1 0 -38.255742671057526 12.596012956007735 1 0 0 I I #
edge $-1 $336 -12.596012956007735 $483 12.596012956007735 $333 $663 forward 7 unknown #
edge $-1 $337 -12.596012956007735 $482 12.596012956007735 $334 $664 forward 7 unknown #
point $-1 67.210303048799091 -38.255742671057526 12.596012956007735 #
point $-1 67.210303048799091 38.255742671057526 12.596012956007735 #
face $-1 $-1 $665 $49 $-1 $666 reversed single #
loop $-1 $-1 $667 $339 #
plane-surface $-1 0 0 -12.596012956007735 0 0 1 1 0 0 forward_v I I I I #
coedge $-1 $508 $518 $503 $668 forward $340 $-1 #
coedge $-1 $345 $342 $667 $669 reversed $210 $-1 #
coedge $-1 $342 $345 $501 $668 reversed $210 $-1 #
coedge $-1 $670 $671 $342 $505 forward $665 $-1 #
edge $-1 $672 -12.596012956007735 $673 12.596012956007735 $504 $674 forward 7 unknown #
coedge $-1 $667 $348 $343 $507 forward $499 $-1 #
edge $-1 $353 -30.046143933041055 $511 -25.798934583825474 $506 $675 forward 7 unknown #
coedge $-1 $350 $501 $344 $509 forward $340 $-1 #
edge $-1 $510 25.798934583825474 $352 30.046143933041055 $508 $676 forward 7 unknown #
vertex $-1 $509 $677 #
vertex $-1 $507 $678 #
straight-curve $-1 -53.721473842258739 -28.091801586423195 0 0 0 -1 I I #
coedge $-1 $671 $670 $347 $514 forward $665 $-1 #
edge $-1 $519 -12.596012956007735 $516 12.596012956007735 $513 $679 forward 7 unknown #
coedge $-1 $348 $667 $671 $680 forward $499 $-1 #
vertex $-1 $349 $681 #
straight-curve $-1 -57.968683191474319 -16.58688606437018 -12.596012956007735 0 1 0 I I #
coedge $-1 $501 $350 $670 $682 forward $340 $-1 #
vertex $-1 $682 $683 #
straight-curve $-1 -57.968683191474319 -16.58688606437018 12.596012956007735 0 -1 0 I I #
point $-1 -57.968683191474319 -28.091801586423195 12.596012956007735 #
point $-1 -57.968683191474319 -28.091801586423195 -12.596012956007735 #
plane-surface $-1 0 0 12.596012956007735 0 0 1 1 0 0 forward_v I I I I #
coedge $-1 $534 $533 $526 $684 forward $356 $-1 #
coedge $-1 $526 $358 $360 $530 reversed $218 $-1 #
coedge $-1 $358 $525 $524 $684 reversed $218 $-1 #
coedge $-1 $366 $361 $358 $528 forward $367 $-1 #
edge $-1 $531 37.318636185516027 $685 41.889279675675539 $527 $686 forward 7 unknown #
coedge $-1 $360 $359 $534 $687 reversed $137 $-1 #
edge $-1 $688 -134.42060609759815 $531 -128.45405471697055 $525 $689 forward 7 unknown #
vertex $-1 $362 $690 #
straight-curve $-1 62.639659558639593 -9.2881156076483133 12.596012956007741 0 -1 0 I I #
coedge $-1 $524 $363 $366 $538 reversed $356 $-1 #
coedge $-1 $363 $524 $529 $687 forward $356 $-1 #
vertex $-1 $364 $691 #
straight-curve $-1 67.210303048799091 -14.786410972426658 99.068423103779608 0 0 1 I I #
straight-curve $-1 -35.761854401834796 -14.786410972426658 95.164688756925315 0.76604443648966558 0 -0.64278761758704617 I I #
edge $-1 $685 -22.366051458166595 $368 -14.786410972426658 $533 $692 forward 7 unknown #
point $-1 67.210303048799091 -14.786410972426658 12.596012956007735 #
point $-1 62.639659558639579 -14.786410972426658 12.596012956007755 #
edge $-1 $693 1 $693 0 $371 $-1 forward 7 unknown #
vertex $-1 $372 $694 #
ellipse-curve $-1 62.3893178416482 -20.200439890812326 7.6565143051857287 0.64278761758704617 0 0.76604443648966558 0.76604443648966558 0 -0.64278761758704617 1 I I #
point $-1 65.691025740208971 -20.200439890812326 10.035612664838519 #
edge $-1 $695 1 $695 0 $375 $-1 forward 7 unknown #
vertex $-1 $376 $696 #
ellipse-curve $-1 62.3893178416482 -16.952022539780927 7.6565143051857287 0.64278761758704617 0 0.76604443648966558 0.76604443648966558 0 -0.64278761758704617 1 I I #
point $-1 65.691025740208971 -16.952022539780927 10.035612664838519 #
plane-surface $-1 0 0 12.596012956007735 0 0 1 1 0 0 forward_v I I I I #
coedge $-1 $560 $559 $552 $697 forward $380 $-1 #
coedge $-1 $552 $382 $384 $556 reversed $240 $-1 #
coedge $-1 $382 $551 $550 $697 reversed $240 $-1 #
coedge $-1 $390 $385 $382 $554 forward $391 $-1 #
edge $-1 $557 37.318636185516027 $698 41.889279675675539 $553 $699 forward 7 unknown #
coedge $-1 $384 $383 $560 $700 reversed $151 $-1 #
edge $-1 $701 -134.42060609759815 $557 -128.45405471697055 $551 $702 forward 7 unknown #
vertex $-1 $386 $703 #
straight-curve $-1 62.639659558639593 -1.4020483551103844 12.596012956007741 0 -1 0 I I #
coedge $-1 $550 $387 $390 $564 reversed $380 $-1 #
coedge $-1 $387 $550 $555 $700 forward $380 $-1 #
vertex $-1 $388 $704 #
straight-curve $-1 67.210303048799091 0.98572353264919954 99.068423103779608 0 0 1 I I #
straight-curve $-1 -35.761854401834796 0.98572353264919954 95.164688756925315 0.76604443648966558 0 -0.64278761758704617 I I #
edge $-1 $698 -6.5939169530907371 $392 0.98572353264919954 $559 $705 forward 7 unknown #
point $-1 67.210303048799091 0.98572353264919954 12.596012956007735 #
point $-1 62.639659558639579 0.98572353264919954 12.596012956007755 #
edge $-1 $706 1 $706 0 $395 $-1 forward 7 unknown #
vertex $-1 $396 $707 #
ellipse-curve $-1 62.3893178416482 -4.4283053857364649 7.6565143051857287 0.64278761758704617 0 0.76604443648966558 0.76604443648966558 0 -0.64278761758704617 1 I I #
point $-1 65.691025740208971 -4.4283053857364649 10.035612664838519 #
edge $-1 $708 1 $708 0 $399 $-1 forward 7 unknown #
vertex $-1 $400 $709 #
ellipse-curve $-1 62.3893178416482 -1.1798880347050655 7.6565143051857287 0.64278761758704617 0 0.76604443648966558 0.76604443648966558 0 -0.64278761758704617 1 I I #
point $-1 65.691025740208971 -1.1798880347050655 10.035612664838519 #
plane-surface $-1 0 0 12.596012956007735 0 0 1 1 0 0 forward_v I I I I #
coedge $-1 $586 $585 $578 $710 forward $404 $-1 #
coedge $-1 $578 $406 $408 $582 reversed $262 $-1 #
coedge $-1 $406 $577 $576 $710 reversed $262 $-1 #
coedge $-1 $414 $409 $406 $580 forward $415 $-1 #
edge $-1 $583 37.318636185516027 $711 41.889279675675539 $579 $712 forward 7 unknown #
coedge $-1 $408 $407 $586 $713 reversed $165 $-1 #
edge $-1 $714 -134.42060609759815 $583 -128.45405471697055 $577 $715 forward 7 unknown #
vertex $-1 $410 $716 #
straight-curve $-1 62.639659558639593 6.4840188974275463 12.596012956007741 0 -1 0 I I #
coedge $-1 $576 $411 $414 $590 reversed $404 $-1 #
coedge $-1 $411 $576 $581 $713 forward $404 $-1 #
vertex $-1 $412 $717 #
straight-curve $-1 67.210303048799091 16.757858037725061 99.068423103779608 0 0 1 I I #
straight-curve $-1 -35.761854401834796 16.757858037725061 95.164688756925315 0.76604443648966558 0 -0.64278761758704617 I I #
edge $-1 $711 9.1782175519851243 $416 16.757858037725061 $585 $718 forward 7 unknown #
point $-1 67.210303048799091 16.757858037725061 12.596012956007735 #
point $-1 62.639659558639579 16.757858037725061 12.596012956007755 #
edge $-1 $719 1 $719 0 $419 $-1 forward 7 unknown #
vertex $-1 $420 $720 #
ellipse-curve $-1 62.3893178416482 11.343829119339397 7.6565143051857287 0.64278761758704617 0 0.76604443648966558 0.76604443648966558 0 -0.64278761758704617 1 I I #
point $-1 65.691025740208971 11.343829119339397 10.035612664838519 #
edge $-1 $721 1 $721 0 $423 $-1 forward 7 unknown #
vertex $-1 $424 $722 #
ellipse-curve $-1 62.3893178416482 14.592246470370796 7.6565143051857287 0.64278761758704617 0 0.76604443648966558 0.76604443648966558 0 -0.64278761758704617 1 I I #
point $-1 65.691025740208971 14.592246470370796 10.035612664838519 #
plane-surface $-1 0 0 12.596012956007735 0 0 1 1 0 0 forward_v I I I I #
coedge $-1 $612 $611 $604 $723 forward $428 $-1 #
coedge $-1 $604 $430 $432 $608 reversed $284 $-1 #
coedge $-1 $430 $603 $602 $723 reversed $284 $-1 #
coedge $-1 $438 $433 $430 $606 forward $439 $-1 #
edge $-1 $609 37.318636185516027 $724 41.889279675675539 $605 $725 forward 7 unknown #
coedge $-1 $432 $431 $612 $726 reversed $179 $-1 #
edge $-1 $727 -134.42060609759815 $609 -128.45405471697055 $603 $728 forward 7 unknown #
vertex $-1 $434 $729 #
straight-curve $-1 62.639659558639593 14.370086149965477 12.596012956007741 0 -1 0 I I #
coedge $-1 $602 $435 $438 $616 reversed $428 $-1 #
coedge $-1 $435 $602 $607 $726 forward $428 $-1 #
vertex $-1 $436 $730 #
straight-curve $-1 67.210303048799091 32.529992542800926 99.068423103779608 0 0 1 I I #
straight-curve $-1 -35.761854401834796 32.529992542800926 95.164688756925315 0.76604443648966558 0 -0.64278761758704617 I I #
edge $-1 $724 24.950352057060986 $440 32.529992542800926 $611 $731 forward 7 unknown #
point $-1 67.210303048799091 32.529992542800926 12.596012956007735 #
point $-1 62.639659558639579 32.529992542800926 12.596012956007755 #
edge $-1 $732 1 $732 0 $443 $-1 forward 7 unknown #
vertex $-1 $444 $733 #
ellipse-curve $-1 62.3893178416482 27.115963624415265 7.6565143051857287 0.64278761758704617 0 0.76604443648966558 0.76604443648966558 0 -0.64278761758704617 1 I I #
point $-1 65.691025740208971 27.115963624415265 10.035612664838519 #
edge $-1 $734 1 $734 0 $447 $-1 forward 7 unknown #
vertex $-1 $448 $735 #
ellipse-curve $-1 62.3893178416482 30.364380975446657 7.6565143051857287 0.64278761758704617 0 0.76604443648966558 0.76604443648966558 0 -0.64278761758704617 1 I I #
point $-1 65.691025740208971 30.364380975446657 10.035612664838519 #
plane-surface $-1 0 0 12.596012956007735 0 0 1 1 0 0 forward_v I I I I #
coedge $-1 $638 $637 $630 $736 forward $452 $-1 #
coedge $-1 $630 $454 $456 $634 reversed $306 $-1 #
coedge $-1 $454 $629 $628 $736 reversed $306 $-1 #
coedge $-1 $462 $457 $454 $632 forward $463 $-1 #
edge $-1 $635 -19.217850006444394 $737 -6.8430190730371407 $631 $738 forward 7 unknown #
coedge $-1 $456 $455 $638 $739 reversed $193 $-1 #
edge $-1 $740 0 $635 15.494967186764317 $629 $741 forward 7 unknown #
vertex $-1 $458 $742 #
straight-curve $-1 -54.835472115391845 4.9485930323108533 12.596012956007735 0 1 0 I I #
coedge $-1 $628 $459 $462 $642 reversed $452 $-1 #
coedge $-1 $459 $628 $633 $739 forward $452 $-1 #
vertex $-1 $460 $743 #
straight-curve $-1 -67.210303048799091 3.1513698144001481 55.311988670795557 0 0 1 I I #
straight-curve $-1 -67.210303048799091 3.1513698144001481 3.2709088017105898 -0.79863550430605224 0 -0.6018150307709319 I I #
edge $-1 $737 -16.643002314843265 $464 -3.1513698144001481 $637 $744 forward 7 unknown #
point $-1 -67.210303048799091 3.1513698144001481 12.596012956007735 #
point $-1 -54.835472115391838 3.1513698144001481 12.596012956007735 #
edge $-1 $745 1 $745 0 $467 $-1 forward 7 unknown #
vertex $-1 $468 $746 #
ellipse-curve $-1 -59.297244922373359 9.8971860646217067 5.6434557687612088 -0.6018150307709319 0 0.79863550430605224 1.5972710086121045 0 1.2036300615418638 1 I I #
point $-1 -59.425616573483346 9.8971860646217067 9.1370909404010199 #
plane-surface $-1 67.210303048799091 0 0 -1 0 0 0 0 1 forward_v I I I I #
coedge $-1 $476 $474 $478 $654 reversed $321 $-1 #
edge $-1 $489 -12.596012956007735 $656 12.596012956007735 $488 $747 forward 7 unknown #
vertex $-1 $654 $748 #
straight-curve $-1 -67.210303048799091 -38.255742671057526 0 0 0 -1 I I #
edge $-1 $652 -38.255742671057526 $656 38.255742671057526 $650 $749 forward 7 unknown #
straight-curve $-1 0 -38.255742671057526 -12.596012956007735 -1 0 0 I I #
vertex $-1 $481 $750 #
straight-curve $-1 0 38.255742671057526 -12.596012956007735 1 0 0 I I #
point $-1 67.210303048799091 38.255742671057526 -12.596012956007735 #
point $-1 67.210303048799091 -38.255742671057526 -12.596012956007735 #
straight-curve $-1 -67.210303048799091 0 12.596012956007735 0 -1 0 I I #
point $-1 -67.210303048799091 38.255742671057526 12.596012956007735 #
point $-1 -67.210303048799091 -38.255742671057526 12.596012956007735 #
straight-curve $-1 67.210303048799091 -38.255742671057526 0 0 0 -1 I I #
straight-curve $-1 67.210303048799091 38.255742671057526 0 0 0 -1 I I #
loop $-1 $-1 $504 $498 #
plane-surface $-1 0 -38.255742671057526 0 0 1 0 0 0 1 forward_v I I I I #
coedge $-1 $515 $506 $502 $669 forward $499 $-1 #
edge $-1 $673 -21.668856606687346 $510 -11.504915522053015 $501 $751 forward 7 unknown #
edge $-1 $511 11.504915522053015 $672 21.668856606687346 $667 $752 forward 7 unknown #
coedge $-1 $513 $504 $518 $682 reversed $665 $-1 #
coedge $-1 $504 $513 $515 $680 reversed $665 $-1 #
vertex $-1 $680 $753 #
vertex $-1 $505 $754 #
straight-curve $-1 -53.721473842258739 -38.255742671057526 0 0 0 1 I I #
straight-curve $-1 -27.922539258433265 -28.091801586423195 -12.596012956007735 1 0 0 I I #
straight-curve $-1 -27.922539258433265 -28.091801586423195 12.596012956007735 -1 0 0 I I #
point $-1 -53.721473842258739 -28.091801586423195 12.596012956007735 #
point $-1 -53.721473842258739 -28.091801586423195 -12.596012956007735 #
straight-curve $-1 -57.968683191474319 -38.255742671057526 0 0 0 -1 I I #
edge $-1 $672 53.721473842258739 $516 57.968683191474319 $671 $755 forward 7 unknown #
point $-1 -57.968683191474319 -38.255742671057526 -12.596012956007735 #
edge $-1 $519 -57.968683191474319 $673 -53.721473842258739 $670 $756 forward 7 unknown #
point $-1 -57.968683191474319 -38.255742671057526 12.596012956007735 #
edge $-1 $685 86.472410147771868 $688 90.307635494936179 $524 $757 forward 7 unknown #
vertex $-1 $538 $758 #
straight-curve $-1 25.321023373123552 -22.366051458166595 12.596012956007741 1 0 0 I I #
edge $-1 $688 -13.077935850518282 $535 -5.498295364778345 $534 $759 forward 7 unknown #
vertex $-1 $687 $760 #
straight-curve $-1 -35.761854401834796 -22.366051458166595 95.164688756925315 -0.76604443648966558 0 0.64278761758704617 I I #
point $-1 62.639659558639579 -22.366051458166595 12.596012956007755 #
point $-1 67.210303048799091 -14.786410972426658 8.7607876088434296 #
straight-curve $-1 67.210303048799091 0 12.596012956007735 0 1 0 I I #
vertex $-1 $541 $761 #
point $-1 63.155362278137865 -20.200439890812326 7.013726687598683 #
vertex $-1 $545 $762 #
point $-1 63.155362278137865 -16.952022539780927 7.013726687598683 #
edge $-1 $698 86.472410147771868 $701 90.307635494936179 $550 $763 forward 7 unknown #
vertex $-1 $564 $764 #
straight-curve $-1 25.321023373123552 -6.5939169530907371 12.596012956007741 1 0 0 I I #
edge $-1 $701 -5.1918685979803527 $561 2.3877718877595839 $560 $765 forward 7 unknown #
vertex $-1 $700 $766 #
straight-curve $-1 -35.761854401834796 -6.5939169530907371 95.164688756925315 -0.76604443648966558 0 0.64278761758704617 I I #
point $-1 62.639659558639579 -6.5939169530907371 12.596012956007755 #
point $-1 67.210303048799091 0.98572353264919954 8.7607876088434296 #
straight-curve $-1 67.210303048799091 0 12.596012956007735 0 1 0 I I #
vertex $-1 $567 $767 #
point $-1 63.155362278137865 -4.4283053857364649 7.013726687598683 #
vertex $-1 $571 $768 #
point $-1 63.155362278137865 -1.1798880347050655 7.013726687598683 #
edge $-1 $711 86.472410147771868 $714 90.307635494936179 $576 $769 forward 7 unknown #
vertex $-1 $590 $770 #
straight-curve $-1 25.321023373123552 9.1782175519851243 12.596012956007741 1 0 0 I I #
edge $-1 $714 2.694198654557578 $587 10.273839140297515 $586 $771 forward 7 unknown #
vertex $-1 $713 $772 #
straight-curve $-1 -35.761854401834796 9.1782175519851243 95.164688756925315 -0.76604443648966558 0 0.64278761758704617 I I #
point $-1 62.639659558639579 9.1782175519851243 12.596012956007755 #
point $-1 67.210303048799091 16.757858037725061 8.7607876088434296 #
straight-curve $-1 67.210303048799091 0 12.596012956007735 0 1 0 I I #
vertex $-1 $593 $773 #
point $-1 63.155362278137865 11.343829119339397 7.013726687598683 #
vertex $-1 $597 $774 #
point $-1 63.155362278137865 14.592246470370796 7.013726687598683 #
edge $-1 $724 86.472410147771868 $727 90.307635494936179 $602 $775 forward 7 unknown #
vertex $-1 $616 $776 #
straight-curve $-1 25.321023373123552 24.950352057060986 12.596012956007741 1 0 0 I I #
edge $-1 $727 10.580265907095509 $613 18.159906392835449 $612 $777 forward 7 unknown #
vertex $-1 $726 $778 #
straight-curve $-1 -35.761854401834796 24.950352057060986 95.164688756925315 -0.76604443648966558 0 0.64278761758704617 I I #
point $-1 62.639659558639579 24.950352057060986 12.596012956007755 #
point $-1 67.210303048799091 32.529992542800926 8.7607876088434296 #
straight-curve $-1 67.210303048799091 0 12.596012956007735 0 1 0 I I #
vertex $-1 $619 $779 #
point $-1 63.155362278137865 27.115963624415265 7.013726687598683 #
vertex $-1 $623 $780 #
point $-1 63.155362278137865 30.364380975446657 7.013726687598683 #
edge $-1 $737 42.715975714787824 $740 52.041079869084967 $628 $781 forward 7 unknown #
vertex $-1 $642 $782 #
straight-curve $-1 -74.053322121836231 16.643002314843265 12.596012956007733 -1 0 0 I I #
edge $-1 $740 -11.694409282532412 $639 1.7972232179107053 $638 $783 forward 7 unknown #
vertex $-1 $739 $784 #
straight-curve $-1 -67.210303048799091 16.643002314843265 3.2709088017105898 0.79863550430605224 0 0.6018150307709319 I I #
point $-1 -54.835472115391838 16.643002314843265 12.596012956007735 #
point $-1 -67.210303048799091 3.1513698144001481 3.2709088017105898 #
straight-curve $-1 -67.210303048799091 0 12.596012956007735 0 -1 0 I I #
vertex $-1 $645 $785 #
point $-1 -57.699973913761255 9.8971860646217067 6.8470858303030724 #
straight-curve $-1 -67.210303048799091 38.255742671057526 0 0 0 -1 I I #
point $-1 -67.210303048799091 -38.255742671057526 -12.596012956007735 #
straight-curve $-1 -67.210303048799091 0 -12.596012956007735 0 1 0 I I #
point $-1 -67.210303048799091 38.255742671057526 -12.596012956007735 #
straight-curve $-1 -53.721473842258739 -16.58688606437018 12.596012956007735 0 1 0 I I #
straight-curve $-1 -53.721473842258739 -16.58688606437018 -12.596012956007735 0 -1 0 I I #
point $-1 -53.721473842258739 -38.255742671057526 -12.596012956007735 #
point $-1 -53.721473842258739 -38.255742671057526 12.596012956007735 #
straight-curve $-1 0 -38.255742671057526 -12.596012956007735 -1 0 0 I I #
straight-curve $-1 0 -38.255742671057526 12.596012956007735 1 0 0 I I #
straight-curve $-1 67.210303048799091 -22.366051458166595 99.068423103779608 0 0 -1 I I #
point $-1 67.210303048799091 -22.366051458166595 12.596012956007735 #
straight-curve $-1 67.210303048799091 -9.2881156076483133 8.7607876088434296 0 1 0 I I #
point $-1 67.210303048799091 -22.366051458166595 8.7607876088434296 #
point $-1 61.746530224061154 -20.200439890812326 6.8904698686960639 #
point $-1 61.746530224061154 -16.952022539780927 6.8904698686960639 #
straight-curve $-1 67.210303048799091 -6.5939169530907371 99.068423103779608 0 0 -1 I I #
point $-1 67.210303048799091 -6.5939169530907371 12.596012956007735 #
straight-curve $-1 67.210303048799091 -1.4020483551103844 8.7607876088434296 0 1 0 I I #
point $-1 67.210303048799091 -6.5939169530907371 8.7607876088434296 #
point $-1 61.746530224061154 -4.4283053857364649 6.8904698686960639 #
point $-1 61.746530224061154 -1.1798880347050655 6.8904698686960639 #
straight-curve $-1 67.210303048799091 9.1782175519851243 99.068423103779608 0 0 -1 I I #
point $-1 67.210303048799091 9.1782175519851243 12.596012956007735 #
straight-curve $-1 67.210303048799091 6.4840188974275463 8.7607876088434296 0 1 0 I I #
point $-1 67.210303048799091 9.1782175519851243 8.7607876088434296 #
point $-1 61.746530224061154 11.343829119339397 6.8904698686960639 #
point $-1 61.746530224061154 14.592246470370796 6.8904698686960639 #
straight-curve $-1 67.210303048799091 24.950352057060986 99.068423103779608 0 0 -1 I I #
point $-1 67.210303048799091 24.950352057060986 12.596012956007735 #
straight-curve $-1 67.210303048799091 14.370086149965477 8.7607876088434296 0 1 0 I I #
point $-1 67.210303048799091 24.950352057060986 8.7607876088434296 #
point $-1 61.746530224061154 27.115963624415265 6.8904698686960639 #
point $-1 61.746530224061154 30.364380975446657 6.8904698686960639 #
straight-curve $-1 -67.210303048799091 16.643002314843265 55.311988670795557 0 0 -1 I I #
point $-1 -67.210303048799091 16.643002314843265 12.596012956007735 #
straight-curve $-1 -67.210303048799091 4.9485930323108533 3.2709088017105921 0 -1 0 I I #
point $-1 -67.210303048799091 16.643002314843265 3.2709088017105898 #
point $-1 -58.093614860831501 9.8971860646217067 4.0461847601491048 #
End-of-ACIS-data 