500 0 14 0           
7 Unknown 11 ACIS 5.0 NT 24 Fri Mar 26 19:52:10 1999 
-1 9.9999999999999995e-007 1e-010 
body $-1 $14 $-1 $15 #
body $-1 $16 $-1 $17 #
body $-1 $18 $-1 $19 #
body $-1 $20 $-1 $21 #
body $-1 $22 $-1 $23 #
body $-1 $24 $-1 $25 #
body $-1 $26 $-1 $27 #
body $-1 $28 $-1 $29 #
body $-1 $30 $-1 $31 #
body $-1 $32 $-1 $33 #
body $-1 $34 $-1 $35 #
body $-1 $36 $-1 $37 #
body $-1 $38 $-1 $39 #
body $-1 $40 $-1 $41 #
lump $-1 $-1 $42 $0 #
transform $-1 1 0 0 0 1 0 0 0 1 53.373210852381973 21.890232347302963 10.006161690051082 1 rotate no_reflect no_shear #
lump $-1 $-1 $43 $1 #
transform $-1 1 0 0 0 1 0 0 0 1 53.373210852381973 21.890232347302963 10.006161690051082 1 rotate no_reflect no_shear #
lump $-1 $-1 $44 $2 #
transform $-1 1 0 0 0 1 0 0 0 1 53.373210852381973 21.890232347302963 10.006161690051082 1 rotate no_reflect no_shear #
lump $-1 $-1 $45 $3 #
transform $-1 1 0 0 0 1 0 0 0 1 53.373210852381973 21.890232347302963 10.006161690051082 1 rotate no_reflect no_shear #
lump $-1 $-1 $46 $4 #
transform $-1 1 0 0 0 1 0 0 0 1 53.373210852381973 21.890232347302963 10.006161690051082 1 rotate no_reflect no_shear #
lump $-1 $-1 $47 $5 #
transform $-1 1 0 0 0 1 0 0 0 1 53.373210852381973 21.890232347302963 10.006161690051082 1 rotate no_reflect no_shear #
lump $-1 $-1 $48 $6 #
transform $-1 1 0 0 0 1 0 0 0 1 53.373210852381973 21.890232347302963 10.006161690051082 1 rotate no_reflect no_shear #
lump $-1 $-1 $49 $7 #
transform $-1 1 0 0 0 1 0 0 0 1 53.373210852381973 21.890232347302963 10.006161690051082 1 rotate no_reflect no_shear #
lump $-1 $-1 $50 $8 #
transform $-1 1 0 0 0 1 0 0 0 1 53.373210852381973 21.890232347302963 10.006161690051082 1 rotate no_reflect no_shear #
lump $-1 $-1 $51 $9 #
transform $-1 1 0 0 0 1 0 0 0 1 53.373210852381973 21.890232347302963 10.006161690051082 1 rotate no_reflect no_shear #
lump $-1 $-1 $52 $10 #
transform $-1 1 0 0 0 1 0 0 0 1 53.373210852381973 21.890232347302963 10.006161690051082 1 rotate no_reflect no_shear #
lump $-1 $-1 $53 $11 #
transform $-1 1 0 0 0 1 0 0 0 1 53.373210852381973 21.890232347302963 10.006161690051082 1 rotate no_reflect no_shear #
lump $-1 $-1 $54 $12 #
transform $-1 1 0 0 0 1 0 0 0 1 53.373210852381973 21.890232347302963 10.006161690051082 1 rotate no_reflect no_shear #
lump $-1 $-1 $55 $13 #
transform $-1 1 0 0 0 1 0 0 0 1 53.373210852381973 21.890232347302963 10.006161690051082 1 rotate no_reflect no_shear #
shell $-1 $-1 $-1 $56 $-1 $14 #
shell $-1 $-1 $-1 $57 $-1 $16 #
shell $-1 $-1 $-1 $58 $-1 $18 #
shell $-1 $-1 $-1 $59 $-1 $20 #
shell $-1 $-1 $-1 $60 $-1 $22 #
shell $-1 $-1 $-1 $61 $-1 $24 #
shell $-1 $-1 $-1 $62 $-1 $26 #
shell $-1 $-1 $-1 $63 $-1 $28 #
shell $-1 $-1 $-1 $64 $-1 $30 #
shell $-1 $-1 $-1 $65 $-1 $32 #
shell $-1 $-1 $-1 $66 $-1 $34 #
shell $-1 $-1 $-1 $67 $-1 $36 #
shell $-1 $-1 $-1 $68 $-1 $38 #
shell $-1 $-1 $-1 $69 $-1 $40 #
face $-1 $70 $71 $42 $-1 $72 forward single #
face $-1 $73 $74 $43 $-1 $75 reversed single #
face $-1 $76 $77 $44 $-1 $78 reversed single #
face $-1 $79 $80 $45 $-1 $81 forward single #
face $-1 $82 $83 $46 $-1 $84 forward single #
face $-1 $85 $86 $47 $-1 $87 reversed single #
face $-1 $88 $89 $48 $-1 $90 forward single #
face $-1 $91 $92 $49 $-1 $93 forward single #
face $-1 $94 $95 $50 $-1 $96 reversed single #
face $-1 $97 $98 $51 $-1 $99 forward single #
face $-1 $100 $101 $52 $-1 $102 forward single #
face $-1 $103 $104 $53 $-1 $105 reversed single #
face $-1 $106 $107 $54 $-1 $108 forward single #
face $-1 $109 $110 $55 $-1 $111 forward single #
face $-1 $112 $113 $42 $-1 $114 reversed single #
loop $-1 $-1 $115 $56 #
plane-surface $-1 0 0 10.006161690051082 0 0 1 1 0 0 forward_v I I I I #
face $-1 $116 $117 $43 $-1 $118 reversed single #
loop $-1 $-1 $119 $57 #
plane-surface $-1 -40.719329671261022 -20.390232347302963 0 -1 0 0 0 0 1 forward_v I I I I #
face $-1 $120 $121 $44 $-1 $122 reversed single #
loop $-1 $-1 $123 $58 #
plane-surface $-1 -29.968265508932873 -21.890232347302955 3.7796539260546496 0 -0.79863551827123203 0.60181501223851219 1 0 0 forward_v I I I I #
face $-1 $124 $125 $45 $-1 $126 forward single #
loop $-1 $127 $128 $59 #
cone-surface $-1 -34.575864435644938 -18.333429406531209 5.9805061456950499 0 0.79863551827123203 -0.60181501223851219 1 0 0 1 I I 0 1 1 forward I I I I #
face $-1 $129 $130 $46 $-1 $131 forward single #
loop $-1 $132 $133 $60 #
cone-surface $-1 -25.360666582220816 -18.333429406531209 5.9805061456950499 0 0.79863551827123203 -0.60181501223851219 1 0 0 1 I I 0 1 1 forward I I I I #
face $-1 $134 $135 $47 $-1 $136 reversed single #
loop $-1 $-1 $137 $61 #
plane-surface $-1 27.829068915216759 -107.14171616908661 68.02125301072455 -1 0 0 0 -0.79863551827123203 0.60181501223851219 forward_v I I I I #
face $-1 $138 $139 $48 $-1 $140 forward single #
loop $-1 $141 $142 $62 #
cone-surface $-1 12.47040582617656 -18.333429406531209 5.9805061456950499 0 0.79863551827123203 -0.60181501223851219 1 0 0 1 I I 0 1 1 forward I I I I #
face $-1 $143 $144 $49 $-1 $145 forward single #
loop $-1 $146 $147 $63 #
cone-surface $-1 21.685603679600675 -18.333429406531209 5.9805061456950499 0 0.79863551827123203 -0.60181501223851219 1 0 0 1 I I 0 1 1 forward I I I I #
face $-1 $148 $149 $50 $-1 $150 reversed single #
loop $-1 $-1 $151 $64 #
plane-surface $-1 -40.719329671261015 80.793975273094588 102.98588712225653 1 0 0 0 -0.79863551827123203 -0.60181501223851219 forward_v I I I I #
face $-1 $152 $153 $51 $-1 $154 forward single #
loop $-1 $155 $156 $65 #
cone-surface $-1 -34.575864435644938 18.333429406531209 5.9805061456950446 0 -0.79863551827123203 -0.60181501223851219 1 0 0 1 I I 0 1 1 forward I I I I #
face $-1 $157 $158 $52 $-1 $159 forward single #
loop $-1 $160 $161 $66 #
cone-surface $-1 -25.360666582220816 18.333429406531209 5.9805061456950446 0 -0.79863551827123203 -0.60181501223851219 1 0 0 1 I I 0 1 1 forward I I I I #
face $-1 $162 $163 $53 $-1 $164 reversed single #
loop $-1 $-1 $165 $67 #
plane-surface $-1 6.3269405905604739 80.793975273094588 102.98588712225653 1 0 0 0 -0.79863551827123203 -0.60181501223851219 forward_v I I I I #
face $-1 $166 $167 $54 $-1 $168 forward single #
loop $-1 $169 $170 $68 #
cone-surface $-1 12.47040582617656 18.333429406531209 5.9805061456950446 0 -0.79863551827123203 -0.60181501223851219 1 0 0 1 I I 0 1 1 forward I I I I #
face $-1 $171 $172 $55 $-1 $173 forward single #
loop $-1 $174 $175 $69 #
cone-surface $-1 21.685603679600675 18.333429406531209 5.9805061456950446 0 -0.79863551827123203 -0.60181501223851219 1 0 0 1 I I 0 1 1 forward I I I I #
face $-1 $176 $177 $42 $-1 $178 reversed single #
loop $-1 $-1 $179 $70 #
plane-surface $-1 0 0 -10.006161690051082 0 0 1 1 0 0 forward_v I I I I #
coedge $-1 $180 $181 $182 $183 forward $71 $-1 #
face $-1 $184 $185 $43 $-1 $186 forward single #
loop $-1 $-1 $187 $73 #
plane-surface $-1 -47.046270261821498 -18.890232347302963 0 0 -1 0 0 0 -1 forward_v I I I I #
coedge $-1 $188 $189 $190 $191 reversed $74 $-1 #
face $-1 $192 $193 $44 $-1 $194 forward single #
loop $-1 $-1 $195 $76 #
plane-surface $-1 -19.217201346604732 -107.14171616908661 68.02125301072455 -1 0 0 0 -0.79863551827123203 0.60181501223851219 forward_v I I I I #
coedge $-1 $196 $197 $198 $199 reversed $77 $-1 #
face $-1 $-1 $200 $45 $-1 $201 forward single #
loop $-1 $202 $203 $79 #
cone-surface $-1 -34.575864435644938 -16.723313711700563 4.7671969772179743 0 0.79863551827123203 -0.60181501223851219 0.5 0 0 1 I I -0.70710678118654746 0.70710678118654746 0.5 forward I I I I #
loop $-1 $-1 $204 $59 #
coedge $-1 $128 $128 $205 $206 reversed $80 $-1 #
face $-1 $-1 $207 $46 $-1 $208 forward single #
loop $-1 $209 $210 $82 #
cone-surface $-1 -25.360666582220816 -16.723313711700563 4.7671969772179743 0 0.79863551827123203 -0.60181501223851219 0.5 0 0 1 I I -0.70710678118654746 0.70710678118654746 0.5 forward I I I I #
loop $-1 $-1 $211 $60 #
coedge $-1 $133 $133 $212 $213 reversed $83 $-1 #
face $-1 $214 $215 $47 $-1 $216 reversed single #
loop $-1 $-1 $217 $85 #
plane-surface $-1 17.078004752888617 -21.890232347302955 3.7796539260546496 0 -0.79863551827123203 0.60181501223851219 1 0 0 forward_v I I I I #
coedge $-1 $218 $219 $220 $221 reversed $86 $-1 #
face $-1 $-1 $222 $48 $-1 $223 forward single #
loop $-1 $224 $225 $88 #
cone-surface $-1 12.47040582617656 -16.723313711700563 4.7671969772179743 0 0.79863551827123203 -0.60181501223851219 0.5 0 0 1 I I -0.70710678118654746 0.70710678118654746 0.5 forward I I I I #
loop $-1 $-1 $226 $62 #
coedge $-1 $142 $142 $227 $228 reversed $89 $-1 #
face $-1 $-1 $229 $49 $-1 $230 forward single #
loop $-1 $231 $232 $91 #
cone-surface $-1 21.685603679600675 -16.723313711700563 4.7671969772179743 0 0.79863551827123203 -0.60181501223851219 0.5 0 0 1 I I -0.70710678118654746 0.70710678118654746 0.5 forward I I I I #
loop $-1 $-1 $233 $63 #
coedge $-1 $147 $147 $234 $235 reversed $92 $-1 #
face $-1 $236 $237 $50 $-1 $238 reversed single #
loop $-1 $-1 $239 $94 #
plane-surface $-1 -29.968265508932873 -4.4575085486890629 38.744288037586628 0 0.79863551827123203 0.60181501223851219 1 0 0 forward_v I I I I #
coedge $-1 $240 $241 $242 $243 reversed $95 $-1 #
face $-1 $-1 $244 $51 $-1 $245 forward single #
loop $-1 $246 $247 $97 #
cone-surface $-1 -34.575864435644938 16.723313711700563 4.767196977217969 0 -0.79863551827123203 -0.60181501223851219 0.5 0 0 1 I I -0.70710678118654746 0.70710678118654746 0.5 forward I I I I #
loop $-1 $-1 $248 $65 #
coedge $-1 $156 $156 $249 $250 reversed $98 $-1 #
face $-1 $-1 $251 $52 $-1 $252 forward single #
loop $-1 $253 $254 $100 #
cone-surface $-1 -25.360666582220816 16.723313711700563 4.767196977217969 0 -0.79863551827123203 -0.60181501223851219 0.5 0 0 1 I I -0.70710678118654746 0.70710678118654746 0.5 forward I I I I #
loop $-1 $-1 $255 $66 #
coedge $-1 $161 $161 $256 $257 reversed $101 $-1 #
face $-1 $258 $259 $53 $-1 $260 reversed single #
loop $-1 $-1 $261 $103 #
plane-surface $-1 17.078004752888617 -4.4575085486890629 38.744288037586628 0 0.79863551827123203 0.60181501223851219 1 0 0 forward_v I I I I #
coedge $-1 $262 $263 $264 $265 reversed $104 $-1 #
face $-1 $-1 $266 $54 $-1 $267 forward single #
loop $-1 $268 $269 $106 #
cone-surface $-1 12.47040582617656 16.723313711700563 4.767196977217969 0 -0.79863551827123203 -0.60181501223851219 0.5 0 0 1 I I -0.70710678118654746 0.70710678118654746 0.5 forward I I I I #
loop $-1 $-1 $270 $68 #
coedge $-1 $170 $170 $271 $272 reversed $107 $-1 #
face $-1 $-1 $273 $55 $-1 $274 forward single #
loop $-1 $275 $276 $109 #
cone-surface $-1 21.685603679600675 16.723313711700563 4.767196977217969 0 -0.79863551827123203 -0.60181501223851219 0.5 0 0 1 I I -0.70710678118654746 0.70710678118654746 0.5 forward I I I I #
loop $-1 $-1 $277 $69 #
coedge $-1 $175 $175 $278 $279 reversed $110 $-1 #
face $-1 $280 $281 $42 $-1 $282 reversed single #
loop $-1 $-1 $283 $112 #
plane-surface $-1 0 -21.890232347302963 0 0 1 0 0 0 1 forward_v I I I I #
coedge $-1 $284 $285 $286 $287 forward $113 $-1 #
coedge $-1 $288 $115 $289 $290 forward $71 $-1 #
coedge $-1 $115 $288 $291 $292 forward $71 $-1 #
coedge $-1 $293 $294 $115 $183 reversed $295 $-1 #
edge $-1 $296 -21.890232347302963 $297 21.890232347302963 $182 $298 forward 7 unknown #
face $-1 $299 $300 $43 $-1 $301 reversed single #
loop $-1 $-1 $302 $116 #
plane-surface $-1 0 0 10.006161690051082 0 0 1 1 0 0 forward_v I I I I #
coedge $-1 $303 $304 $305 $306 forward $117 $-1 #
coedge $-1 $305 $119 $307 $308 reversed $74 $-1 #
coedge $-1 $119 $305 $302 $309 reversed $74 $-1 #
coedge $-1 $310 $311 $119 $191 forward $312 $-1 #
edge $-1 $313 -10.006161690051082 $314 10.006161690051082 $190 $315 forward 7 unknown #
face $-1 $316 $317 $44 $-1 $318 forward single #
loop $-1 $-1 $319 $120 #
plane-surface $-1 0 0 10.006161690051082 0 0 1 1 0 0 forward_v I I I I #
coedge $-1 $320 $321 $322 $323 reversed $121 $-1 #
coedge $-1 $324 $123 $325 $326 reversed $77 $-1 #
coedge $-1 $123 $324 $320 $327 forward $77 $-1 #
coedge $-1 $322 $328 $123 $199 forward $329 $-1 #
edge $-1 $330 -25.735196916794585 $331 -4.2330685921382951 $198 $332 forward 7 unknown #
loop $-1 $-1 $205 $124 #
plane-surface $-1 -29.968265508932873 -21.890232347302955 3.7796539260546496 0 -0.79863551827123203 0.60181501223851219 1 0 0 forward_v I I I I #
loop $-1 $-1 $333 $79 #
coedge $-1 $203 $203 $204 $334 reversed $125 $-1 #
coedge $-1 $204 $204 $203 $334 forward $127 $-1 #
coedge $-1 $205 $205 $128 $206 forward $200 $-1 #
edge $-1 $335 -2.0167856967305989e-017 $335 6.2831853071796004 $205 $336 forward 7 unknown #
loop $-1 $-1 $212 $129 #
plane-surface $-1 -29.968265508932873 -21.890232347302955 3.7796539260546496 0 -0.79863551827123203 0.60181501223851219 1 0 0 forward_v I I I I #
loop $-1 $-1 $337 $82 #
coedge $-1 $210 $210 $211 $338 reversed $130 $-1 #
coedge $-1 $211 $211 $210 $338 forward $132 $-1 #
coedge $-1 $212 $212 $133 $213 forward $207 $-1 #
edge $-1 $339 -2.0167856967305989e-017 $339 6.2831853071796004 $212 $340 forward 7 unknown #
face $-1 $341 $342 $47 $-1 $343 forward single #
loop $-1 $-1 $344 $134 #
plane-surface $-1 6.3269405905604739 -107.14171616908661 68.02125301072455 1 0 0 0 0.79863551827123203 -0.60181501223851219 forward_v I I I I #
coedge $-1 $345 $346 $347 $348 reversed $135 $-1 #
coedge $-1 $219 $137 $349 $350 reversed $86 $-1 #
coedge $-1 $137 $218 $345 $351 reversed $86 $-1 #
coedge $-1 $347 $352 $137 $221 forward $342 $-1 #
edge $-1 $353 31.680625737240341 $354 36.372635747393787 $220 $355 forward 7 unknown #
loop $-1 $-1 $227 $138 #
plane-surface $-1 17.078004752888617 -21.890232347302955 3.7796539260546496 0 -0.79863551827123203 0.60181501223851219 1 0 0 forward_v I I I I #
loop $-1 $-1 $356 $88 #
coedge $-1 $225 $225 $226 $357 reversed $139 $-1 #
coedge $-1 $226 $226 $225 $357 forward $141 $-1 #
coedge $-1 $227 $227 $142 $228 forward $222 $-1 #
edge $-1 $358 -2.0167856967305989e-017 $358 6.2831853071796004 $227 $359 forward 7 unknown #
loop $-1 $-1 $234 $143 #
plane-surface $-1 17.078004752888617 -21.890232347302955 3.7796539260546496 0 -0.79863551827123203 0.60181501223851219 1 0 0 forward_v I I I I #
loop $-1 $-1 $360 $91 #
coedge $-1 $232 $232 $233 $361 reversed $144 $-1 #
coedge $-1 $233 $233 $232 $361 forward $146 $-1 #
coedge $-1 $234 $234 $147 $235 forward $229 $-1 #
edge $-1 $362 -2.0167856967305989e-017 $362 6.2831853071796004 $234 $363 forward 7 unknown #
face $-1 $364 $365 $50 $-1 $366 reversed single #
loop $-1 $-1 $367 $148 #
plane-surface $-1 -19.217201346604732 80.793975273094588 102.98588712225653 -1 0 0 0 0.79863551827123203 0.60181501223851219 forward_v I I I I #
coedge $-1 $368 $369 $370 $371 reversed $149 $-1 #
coedge $-1 $241 $151 $372 $373 reversed $95 $-1 #
coedge $-1 $151 $240 $368 $374 reversed $95 $-1 #
coedge $-1 $370 $375 $151 $243 forward $376 $-1 #
edge $-1 $377 18.506755289244332 $378 23.198765299397785 $242 $379 forward 7 unknown #
loop $-1 $-1 $249 $152 #
plane-surface $-1 -29.968265508932873 -4.4575085486890629 38.744288037586628 0 0.79863551827123203 0.60181501223851219 1 0 0 forward_v I I I I #
loop $-1 $-1 $380 $97 #
coedge $-1 $247 $247 $248 $381 reversed $153 $-1 #
coedge $-1 $248 $248 $247 $381 forward $155 $-1 #
coedge $-1 $249 $249 $156 $250 forward $244 $-1 #
edge $-1 $382 7.3958261798549163e-016 $382 6.2831853071796013 $249 $383 forward 7 unknown #
loop $-1 $-1 $256 $157 #
plane-surface $-1 -29.968265508932873 -4.4575085486890629 38.744288037586628 0 0.79863551827123203 0.60181501223851219 1 0 0 forward_v I I I I #
loop $-1 $-1 $384 $100 #
coedge $-1 $254 $254 $255 $385 reversed $158 $-1 #
coedge $-1 $255 $255 $254 $385 forward $160 $-1 #
coedge $-1 $256 $256 $161 $257 forward $251 $-1 #
edge $-1 $386 7.3958261798549163e-016 $386 6.2831853071796013 $256 $387 forward 7 unknown #
face $-1 $388 $389 $53 $-1 $390 forward single #
loop $-1 $-1 $391 $162 #
plane-surface $-1 27.829068915216759 80.793975273094588 102.98588712225653 -1 0 0 0 0.79863551827123203 0.60181501223851219 forward_v I I I I #
coedge $-1 $392 $393 $394 $395 reversed $163 $-1 #
coedge $-1 $263 $165 $396 $397 reversed $104 $-1 #
coedge $-1 $165 $262 $392 $398 reversed $104 $-1 #
coedge $-1 $394 $399 $165 $265 forward $389 $-1 #
edge $-1 $400 18.506755289244332 $401 23.198765299397785 $264 $402 forward 7 unknown #
loop $-1 $-1 $271 $166 #
plane-surface $-1 17.078004752888617 -4.4575085486890629 38.744288037586628 0 0.79863551827123203 0.60181501223851219 1 0 0 forward_v I I I I #
loop $-1 $-1 $403 $106 #
coedge $-1 $269 $269 $270 $404 reversed $167 $-1 #
coedge $-1 $270 $270 $269 $404 forward $169 $-1 #
coedge $-1 $271 $271 $170 $272 forward $266 $-1 #
edge $-1 $405 7.3958261798549163e-016 $405 6.2831853071796013 $271 $406 forward 7 unknown #
loop $-1 $-1 $278 $171 #
plane-surface $-1 17.078004752888617 -4.4575085486890629 38.744288037586628 0 0.79863551827123203 0.60181501223851219 1 0 0 forward_v I I I I #
loop $-1 $-1 $407 $109 #
coedge $-1 $276 $276 $277 $408 reversed $172 $-1 #
coedge $-1 $277 $277 $276 $408 forward $174 $-1 #
coedge $-1 $278 $278 $175 $279 forward $273 $-1 #
edge $-1 $409 7.3958261798549163e-016 $409 6.2831853071796013 $278 $410 forward 7 unknown #
face $-1 $411 $412 $42 $-1 $413 reversed single #
loop $-1 $-1 $414 $176 #
plane-surface $-1 -53.373210852381973 0 0 1 0 0 0 0 -1 forward_v I I I I #
coedge $-1 $415 $291 $416 $417 forward $177 $-1 #
coedge $-1 $418 $179 $415 $419 forward $113 $-1 #
coedge $-1 $179 $418 $420 $421 forward $113 $-1 #
coedge $-1 $294 $293 $179 $287 reversed $295 $-1 #
edge $-1 $422 -21.890232347302963 $423 21.890232347302963 $286 $424 forward 7 unknown #
coedge $-1 $181 $180 $425 $426 forward $71 $-1 #
coedge $-1 $427 $428 $180 $290 reversed $412 $-1 #
edge $-1 $297 -53.373210852381973 $429 53.373210852381973 $289 $430 forward 7 unknown #
coedge $-1 $283 $431 $181 $292 reversed $177 $-1 #
edge $-1 $432 -53.373210852381973 $296 53.373210852381973 $291 $433 forward 7 unknown #
coedge $-1 $286 $182 $431 $434 forward $295 $-1 #
coedge $-1 $182 $286 $427 $435 reversed $295 $-1 #
loop $-1 $-1 $293 $411 #
vertex $-1 $183 $436 #
vertex $-1 $183 $437 #
straight-curve $-1 53.373210852381973 0 10.006161690051082 0 1 0 I I #
face $-1 $438 $439 $43 $-1 $440 reversed single #
loop $-1 $-1 $441 $184 #
plane-surface $-1 -53.373210852381973 0 0 1 0 0 0 0 -1 forward_v I I I I #
coedge $-1 $442 $443 $189 $309 forward $185 $-1 #
coedge $-1 $444 $187 $445 $446 reversed $117 $-1 #
coedge $-1 $187 $444 $442 $447 reversed $117 $-1 #
coedge $-1 $189 $188 $187 $306 reversed $74 $-1 #
edge $-1 $448 -10.006161690051082 $449 10.006161690051082 $305 $450 forward 7 unknown #
coedge $-1 $451 $445 $188 $308 forward $439 $-1 #
edge $-1 $449 8.6951161736514813 $313 11.695116173651481 $307 $452 forward 7 unknown #
edge $-1 $314 -11.695116173651481 $448 -8.6951161736514813 $302 $453 forward 7 unknown #
coedge $-1 $454 $190 $443 $455 reversed $312 $-1 #
coedge $-1 $190 $454 $451 $456 reversed $312 $-1 #
loop $-1 $-1 $190 $438 #
vertex $-1 $456 $457 #
vertex $-1 $191 $458 #
straight-curve $-1 -40.719329671261022 -21.890232347302963 0 0 0 1 I I #
face $-1 $-1 $329 $44 $-1 $459 reversed single #
loop $-1 $-1 $325 $192 #
plane-surface $-1 -40.719329671261022 -20.390232347302963 0 -1 0 0 0 0 1 forward_v I I I I #
coedge $-1 $460 $461 $321 $462 forward $193 $-1 #
coedge $-1 $321 $195 $197 $327 reversed $121 $-1 #
coedge $-1 $195 $320 $319 $462 reversed $121 $-1 #
coedge $-1 $463 $198 $195 $323 forward $329 $-1 #
edge $-1 $331 -30.230972579307636 $464 -24.004464815311195 $322 $465 forward 7 unknown #
coedge $-1 $197 $196 $460 $466 reversed $77 $-1 #
coedge $-1 $467 $468 $196 $326 forward $317 $-1 #
edge $-1 $469 -8.8543539936842492 $330 -1.0579216768813808 $325 $470 forward 7 unknown #
edge $-1 $471 -7.7964323168028553 $331 1.1724126593787106e-014 $320 $472 forward 7 unknown #
coedge $-1 $198 $463 $467 $473 forward $329 $-1 #
loop $-1 $-1 $322 $316 #
vertex $-1 $326 $474 #
vertex $-1 $199 $475 #
straight-curve $-1 -14.984132754466437 -21.890232347302963 3.779653926054638 1 0 0 I I #
coedge $-1 $333 $333 $-1 $476 reversed $202 $-1 #
edge $-1 $477 0 $477 6.2831853071796004 $203 $478 forward 7 unknown #
vertex $-1 $206 $479 #
ellipse-curve $-1 -34.575864435644938 -19.544227342226236 6.8929078080528647 0 -0.79863551827123203 0.60181501223851219 1 0 0 1 I I #
coedge $-1 $337 $337 $-1 $480 reversed $209 $-1 #
edge $-1 $481 0 $481 6.2831853071796004 $210 $482 forward 7 unknown #
vertex $-1 $213 $483 #
ellipse-curve $-1 -25.360666582220816 -19.544227342226236 6.8929078080528647 0 -0.79863551827123203 0.60181501223851219 1 0 0 1 I I #
face $-1 $-1 $484 $47 $-1 $485 reversed single #
loop $-1 $-1 $220 $214 #
plane-surface $-1 0 0 10.006161690051082 0 0 1 1 0 0 forward_v I I I I #
coedge $-1 $486 $487 $488 $489 reversed $215 $-1 #
coedge $-1 $490 $217 $219 $351 forward $135 $-1 #
coedge $-1 $217 $490 $486 $491 forward $135 $-1 #
coedge $-1 $488 $220 $217 $348 forward $342 $-1 #
edge $-1 $354 -19.29006653877245 $492 2.2120617858838347 $347 $493 forward 7 unknown #
coedge $-1 $494 $495 $218 $350 forward $484 $-1 #
edge $-1 $496 -30.230972579307636 $353 -24.004464815311195 $349 $497 forward 7 unknown #
edge $-1 $354 -7.7964323168028553 $496 1.1724126593787106e-014 $219 $498 forward 7 unknown #
coedge $-1 $220 $488 $494 $499 forward $342 $-1 #
vertex $-1 $350 $500 #
vertex $-1 $221 $501 #
straight-curve $-1 27.829068915216759 -53.570858084543303 10.00616169005108 0 1 0 I I #
coedge $-1 $356 $356 $-1 $502 reversed $224 $-1 #
edge $-1 $503 0 $503 6.2831853071796004 $225 $504 forward 7 unknown #
vertex $-1 $228 $505 #
ellipse-curve $-1 12.47040582617656 -19.544227342226236 6.8929078080528647 0 -0.79863551827123203 0.60181501223851219 1 0 0 1 I I #
coedge $-1 $360 $360 $-1 $506 reversed $231 $-1 #
edge $-1 $507 0 $507 6.2831853071796004 $232 $508 forward 7 unknown #
vertex $-1 $235 $509 #
ellipse-curve $-1 21.685603679600675 -19.544227342226236 6.8929078080528647 0 -0.79863551827123203 0.60181501223851219 1 0 0 1 I I #
face $-1 $-1 $376 $50 $-1 $510 forward single #
loop $-1 $-1 $511 $236 #
plane-surface $-1 0 21.890232347302963 0 0 -1 0 0 0 -1 forward_v I I I I #
coedge $-1 $512 $513 $514 $515 reversed $237 $-1 #
coedge $-1 $516 $239 $241 $374 forward $149 $-1 #
coedge $-1 $239 $516 $512 $517 forward $149 $-1 #
coedge $-1 $514 $242 $239 $371 forward $376 $-1 #
edge $-1 $378 -25.735196916794578 $518 -4.2330685921382951 $370 $519 forward 7 unknown #
coedge $-1 $520 $521 $240 $373 forward $365 $-1 #
edge $-1 $522 -47.713289635073629 $377 -41.486781871077184 $372 $523 forward 7 unknown #
edge $-1 $378 35.984032377803068 $522 43.780464694605939 $241 $524 forward 7 unknown #
coedge $-1 $242 $514 $520 $525 forward $376 $-1 #
loop $-1 $-1 $514 $364 #
vertex $-1 $373 $526 #
vertex $-1 $243 $527 #
straight-curve $-1 -40.719329671261015 40.396987636547294 10.00616169005108 0 -1 0 I I #
coedge $-1 $380 $380 $-1 $528 reversed $246 $-1 #
edge $-1 $529 0 $529 6.2831853071796004 $247 $530 forward 7 unknown #
vertex $-1 $250 $531 #
ellipse-curve $-1 -34.575864435644938 19.544227342226232 6.8929078080528576 0 0.79863551827123203 0.60181501223851219 1 0 0 1 I I #
coedge $-1 $384 $384 $-1 $532 reversed $253 $-1 #
edge $-1 $533 0 $533 6.2831853071796004 $254 $534 forward 7 unknown #
vertex $-1 $257 $535 #
ellipse-curve $-1 -25.360666582220816 19.544227342226232 6.8929078080528576 0 0.79863551827123203 0.60181501223851219 1 0 0 1 I I #
face $-1 $-1 $536 $53 $-1 $537 reversed single #
loop $-1 $-1 $264 $258 #
plane-surface $-1 0 0 10.006161690051082 0 0 1 1 0 0 forward_v I I I I #
coedge $-1 $538 $539 $540 $541 reversed $259 $-1 #
coedge $-1 $542 $261 $263 $398 forward $163 $-1 #
coedge $-1 $261 $542 $538 $543 forward $163 $-1 #
coedge $-1 $540 $264 $261 $395 forward $389 $-1 #
edge $-1 $401 -2.2120617858838347 $544 19.29006653877245 $394 $545 forward 7 unknown #
coedge $-1 $546 $547 $262 $397 forward $536 $-1 #
edge $-1 $548 -47.713289635073629 $400 -41.486781871077184 $396 $549 forward 7 unknown #
edge $-1 $401 35.984032377803068 $548 43.780464694605939 $263 $550 forward 7 unknown #
coedge $-1 $264 $540 $546 $551 forward $389 $-1 #
vertex $-1 $397 $552 #
vertex $-1 $265 $553 #
straight-curve $-1 6.3269405905604739 40.396987636547294 10.00616169005108 0 -1 0 I I #
coedge $-1 $403 $403 $-1 $554 reversed $268 $-1 #
edge $-1 $555 0 $555 6.2831853071796004 $269 $556 forward 7 unknown #
vertex $-1 $272 $557 #
ellipse-curve $-1 12.47040582617656 19.544227342226232 6.8929078080528576 0 0.79863551827123203 0.60181501223851219 1 0 0 1 I I #
coedge $-1 $407 $407 $-1 $558 reversed $275 $-1 #
edge $-1 $559 0 $559 6.2831853071796004 $276 $560 forward 7 unknown #
vertex $-1 $279 $561 #
ellipse-curve $-1 21.685603679600675 19.544227342226232 6.8929078080528576 0 0.79863551827123203 0.60181501223851219 1 0 0 1 I I #
face $-1 $-1 $295 $42 $-1 $562 reversed single #
loop $-1 $-1 $427 $280 #
plane-surface $-1 0 21.890232347302963 0 0 -1 0 0 0 -1 forward_v I I I I #
coedge $-1 $563 $425 $428 $564 forward $281 $-1 #
coedge $-1 $431 $283 $284 $419 reversed $177 $-1 #
coedge $-1 $425 $563 $283 $417 reversed $281 $-1 #
edge $-1 $432 -10.006161690051082 $565 10.006161690051082 $416 $566 forward 7 unknown #
coedge $-1 $285 $284 $563 $567 forward $113 $-1 #
edge $-1 $423 -53.373210852381973 $565 53.373210852381973 $415 $568 forward 7 unknown #
coedge $-1 $428 $427 $285 $421 reversed $412 $-1 #
edge $-1 $569 -53.373210852381973 $422 53.373210852381973 $420 $570 forward 7 unknown #
vertex $-1 $287 $571 #
vertex $-1 $434 $572 #
straight-curve $-1 53.373210852381973 0 -10.006161690051082 0 -1 0 I I #
coedge $-1 $414 $416 $288 $426 reversed $281 $-1 #
edge $-1 $429 -21.890232347302963 $432 21.890232347302963 $425 $573 forward 7 unknown #
coedge $-1 $420 $289 $294 $435 forward $412 $-1 #
coedge $-1 $289 $420 $414 $564 reversed $412 $-1 #
vertex $-1 $290 $574 #
straight-curve $-1 0 21.890232347302963 10.006161690051082 -1 0 0 I I #
coedge $-1 $291 $415 $293 $434 reversed $177 $-1 #
vertex $-1 $426 $575 #
straight-curve $-1 0 -21.890232347302963 10.006161690051082 1 0 0 I I #
edge $-1 $296 -10.006161690051082 $423 10.006161690051082 $293 $576 forward 7 unknown #
edge $-1 $297 -10.006161690051082 $422 10.006161690051082 $294 $577 forward 7 unknown #
point $-1 53.373210852381973 -21.890232347302963 10.006161690051082 #
point $-1 53.373210852381973 21.890232347302963 10.006161690051082 #
face $-1 $-1 $312 $43 $-1 $578 reversed single #
loop $-1 $-1 $307 $299 #
plane-surface $-1 0 0 -10.006161690051082 0 0 1 1 0 0 forward_v I I I I #
coedge $-1 $579 $580 $444 $581 forward $300 $-1 #
coedge $-1 $582 $302 $304 $447 forward $185 $-1 #
coedge $-1 $302 $582 $310 $455 forward $185 $-1 #
coedge $-1 $304 $303 $441 $581 reversed $117 $-1 #
coedge $-1 $307 $583 $303 $446 forward $439 $-1 #
edge $-1 $584 -29.850075721471224 $449 -17.196194540350273 $445 $585 forward 7 unknown #
edge $-1 $448 17.196194540350273 $586 29.850075721471224 $442 $587 forward 7 unknown #
vertex $-1 $447 $588 #
vertex $-1 $446 $589 #
straight-curve $-1 -40.719329671261022 -18.890232347302963 0 0 0 -1 I I #
coedge $-1 $583 $307 $311 $456 forward $439 $-1 #
straight-curve $-1 -40.719329671261022 -10.195116173651481 -10.006161690051082 0 -1 0 I I #
straight-curve $-1 -40.719329671261022 -10.195116173651481 10.006161690051082 0 1 0 I I #
coedge $-1 $311 $310 $590 $591 forward $312 $-1 #
edge $-1 $592 -53.373210852381973 $314 -40.719329671261022 $310 $593 forward 7 unknown #
edge $-1 $313 40.719329671261022 $594 53.373210852381973 $311 $595 forward 7 unknown #
point $-1 -40.719329671261022 -21.890232347302963 -10.006161690051082 #
point $-1 -40.719329671261022 -21.890232347302963 10.006161690051082 #
plane-surface $-1 0 -21.890232347302963 0 0 1 0 0 0 1 forward_v I I I I #
coedge $-1 $596 $319 $324 $466 forward $193 $-1 #
coedge $-1 $319 $596 $463 $597 forward $193 $-1 #
edge $-1 $464 31.680625737240341 $471 36.372635747393787 $319 $598 forward 7 unknown #
coedge $-1 $328 $322 $461 $597 reversed $329 $-1 #
vertex $-1 $462 $599 #
straight-curve $-1 -19.217201346604732 -21.890232347302963 34.010626505362275 0 0 1 I I #
edge $-1 $471 4.2330685921382951 $469 25.735196916794578 $460 $600 forward 7 unknown #
coedge $-1 $468 $325 $328 $473 reversed $317 $-1 #
coedge $-1 $325 $467 $596 $601 reversed $317 $-1 #
vertex $-1 $601 $602 #
straight-curve $-1 -40.719329671261022 -22.526905494222717 2.9347600993481064 0 -0.60181501223851219 -0.79863551827123203 I I #
vertex $-1 $466 $603 #
straight-curve $-1 -19.217201346604732 -21.890232347302955 3.7796539260546496 0 -0.60181501223851219 -0.79863551827123203 I I #
edge $-1 $604 -10.006161690051082 $330 -3.7796539260546398 $328 $605 forward 7 unknown #
point $-1 -40.719329671261022 -21.890232347302963 3.7796539260546398 #
point $-1 -19.217201346604732 -21.890232347302963 3.7796539260546402 #
edge $-1 $606 1 $606 0 $333 $-1 forward 7 unknown #
vertex $-1 $334 $607 #
ellipse-curve $-1 -34.575864435644938 -17.122631470836179 5.0681044833372306 0 -0.79863551827123203 0.60181501223851219 1 0 0 1 I I #
point $-1 -33.575864435644938 -19.544227342226243 6.8929078080528701 #
edge $-1 $608 1 $608 0 $337 $-1 forward 7 unknown #
vertex $-1 $338 $609 #
ellipse-curve $-1 -25.360666582220816 -17.122631470836179 5.0681044833372306 0 -0.79863551827123203 0.60181501223851219 1 0 0 1 I I #
point $-1 -24.360666582220816 -19.544227342226243 6.8929078080528701 #
loop $-1 $-1 $349 $341 #
plane-surface $-1 0 -21.890232347302963 0 0 1 0 0 0 1 forward_v I I I I #
coedge $-1 $487 $344 $346 $491 reversed $215 $-1 #
coedge $-1 $344 $486 $610 $611 reversed $215 $-1 #
coedge $-1 $352 $347 $344 $489 forward $342 $-1 #
edge $-1 $492 -36.372635747393787 $612 -31.680625737240341 $488 $613 forward 7 unknown #
coedge $-1 $346 $345 $495 $614 reversed $135 $-1 #
edge $-1 $615 -1.1724126593787106e-014 $492 7.7964323168028553 $486 $616 forward 7 unknown #
vertex $-1 $348 $617 #
straight-curve $-1 8.5390023764443086 -17.19822233714951 10.006161690051082 -1 0 0 I I #
coedge $-1 $610 $349 $352 $499 reversed $484 $-1 #
coedge $-1 $349 $610 $490 $614 forward $484 $-1 #
vertex $-1 $350 $618 #
straight-curve $-1 27.829068915216759 -21.890232347302963 34.010626505362275 0 0 1 I I #
straight-curve $-1 27.829068915216759 -21.890232347302955 3.7796539260546496 0 -0.60181501223851219 -0.79863551827123203 I I #
edge $-1 $612 6.3269405905604739 $353 27.829068915216759 $494 $619 forward 7 unknown #
point $-1 27.829068915216759 -21.890232347302963 10.006161690051082 #
point $-1 27.829068915216759 -17.198222337149513 10.006161690051082 #
edge $-1 $620 1 $620 0 $356 $-1 forward 7 unknown #
vertex $-1 $357 $621 #
ellipse-curve $-1 12.47040582617656 -17.122631470836179 5.0681044833372306 0 -0.79863551827123203 0.60181501223851219 1 0 0 1 I I #
point $-1 13.47040582617656 -19.544227342226243 6.8929078080528701 #
edge $-1 $622 1 $622 0 $360 $-1 forward 7 unknown #
vertex $-1 $361 $623 #
ellipse-curve $-1 21.685603679600675 -17.122631470836179 5.0681044833372306 0 -0.79863551827123203 0.60181501223851219 1 0 0 1 I I #
point $-1 22.685603679600675 -19.544227342226243 6.8929078080528701 #
plane-surface $-1 0 0 10.006161690051082 0 0 1 1 0 0 forward_v I I I I #
coedge $-1 $521 $520 $513 $624 forward $365 $-1 #
coedge $-1 $513 $367 $369 $517 reversed $237 $-1 #
coedge $-1 $367 $512 $511 $624 reversed $237 $-1 #
coedge $-1 $375 $370 $367 $515 forward $376 $-1 #
edge $-1 $518 -23.198765299397785 $625 -18.506755289244332 $514 $626 forward 7 unknown #
coedge $-1 $369 $368 $521 $627 reversed $149 $-1 #
edge $-1 $628 -43.780464694605939 $518 -35.984032377803068 $512 $629 forward 7 unknown #
vertex $-1 $371 $630 #
straight-curve $-1 -14.984132754466437 17.198222337149513 10.006161690051083 1 0 0 I I #
coedge $-1 $511 $372 $375 $525 reversed $365 $-1 #
coedge $-1 $372 $511 $516 $627 forward $365 $-1 #
vertex $-1 $373 $631 #
straight-curve $-1 -40.719329671261015 21.890232347302963 51.492943561128264 0 0 1 I I #
straight-curve $-1 -40.719329671261015 -4.4575085486890629 38.744288037586628 0 0.60181501223851219 -0.79863551827123203 I I #
edge $-1 $625 19.217201346604732 $377 40.719329671261015 $520 $632 forward 7 unknown #
point $-1 -40.719329671261015 21.890232347302963 10.006161690051082 #
point $-1 -40.719329671261015 17.19822233714951 10.00616169005108 #
edge $-1 $633 1 $633 0 $380 $-1 forward 7 unknown #
vertex $-1 $381 $634 #
ellipse-curve $-1 -34.575864435644938 17.122631470836179 5.0681044833372253 0 0.79863551827123203 0.60181501223851219 1 0 0 1 I I #
point $-1 -33.575864435644938 19.544227342226243 6.8929078080528647 #
edge $-1 $635 1 $635 0 $384 $-1 forward 7 unknown #
vertex $-1 $385 $636 #
ellipse-curve $-1 -25.360666582220816 17.122631470836179 5.0681044833372253 0 0.79863551827123203 0.60181501223851219 1 0 0 1 I I #
point $-1 -24.360666582220816 19.544227342226243 6.8929078080528647 #
loop $-1 $-1 $396 $388 #
plane-surface $-1 0 21.890232347302963 0 0 -1 0 0 0 -1 forward_v I I I I #
coedge $-1 $539 $391 $393 $543 reversed $259 $-1 #
coedge $-1 $391 $538 $637 $638 reversed $259 $-1 #
coedge $-1 $399 $394 $391 $541 forward $389 $-1 #
edge $-1 $544 -23.198765299397785 $639 -18.506755289244332 $540 $640 forward 7 unknown #
coedge $-1 $393 $392 $547 $641 reversed $163 $-1 #
edge $-1 $642 -43.780464694605939 $544 -35.984032377803068 $538 $643 forward 7 unknown #
vertex $-1 $395 $644 #
straight-curve $-1 8.5390023764443086 17.198222337149513 10.006161690051083 1 0 0 I I #
coedge $-1 $637 $396 $399 $551 reversed $536 $-1 #
coedge $-1 $396 $637 $542 $641 forward $536 $-1 #
vertex $-1 $397 $645 #
straight-curve $-1 6.3269405905604739 21.890232347302963 51.492943561128264 0 0 1 I I #
straight-curve $-1 6.3269405905604739 -4.4575085486890629 38.744288037586628 0 0.60181501223851219 -0.79863551827123203 I I #
edge $-1 $639 -27.829068915216759 $400 -6.3269405905604739 $546 $646 forward 7 unknown #
point $-1 6.3269405905604739 21.890232347302963 10.006161690051082 #
point $-1 6.3269405905604739 17.19822233714951 10.00616169005108 #
edge $-1 $647 1 $647 0 $403 $-1 forward 7 unknown #
vertex $-1 $404 $648 #
ellipse-curve $-1 12.47040582617656 17.122631470836179 5.0681044833372253 0 0.79863551827123203 0.60181501223851219 1 0 0 1 I I #
point $-1 13.47040582617656 19.544227342226243 6.8929078080528647 #
edge $-1 $649 1 $649 0 $407 $-1 forward 7 unknown #
vertex $-1 $408 $650 #
ellipse-curve $-1 21.685603679600675 17.122631470836179 5.0681044833372253 0 0.79863551827123203 0.60181501223851219 1 0 0 1 I I #
point $-1 22.685603679600675 19.544227342226243 6.8929078080528647 #
plane-surface $-1 53.373210852381973 0 0 -1 0 0 0 0 1 forward_v I I I I #
coedge $-1 $416 $414 $418 $567 reversed $281 $-1 #
edge $-1 $429 -10.006161690051082 $569 10.006161690051082 $428 $651 forward 7 unknown #
vertex $-1 $567 $652 #
straight-curve $-1 -53.373210852381973 -21.890232347302963 0 0 0 -1 I I #
edge $-1 $565 -21.890232347302963 $569 21.890232347302963 $563 $653 forward 7 unknown #
straight-curve $-1 0 -21.890232347302963 -10.006161690051082 -1 0 0 I I #
vertex $-1 $421 $654 #
straight-curve $-1 0 21.890232347302963 -10.006161690051082 1 0 0 I I #
point $-1 53.373210852381973 21.890232347302963 -10.006161690051082 #
point $-1 53.373210852381973 -21.890232347302963 -10.006161690051082 #
straight-curve $-1 -53.373210852381973 0 10.006161690051082 0 -1 0 I I #
point $-1 -53.373210852381973 21.890232347302963 10.006161690051082 #
point $-1 -53.373210852381973 -21.890232347302963 10.006161690051082 #
straight-curve $-1 53.373210852381973 -21.890232347302963 0 0 0 -1 I I #
straight-curve $-1 53.373210852381973 21.890232347302963 0 0 0 -1 I I #
plane-surface $-1 0 -21.890232347302963 0 0 1 0 0 0 1 forward_v I I I I #
coedge $-1 $590 $441 $583 $655 reversed $300 $-1 #
coedge $-1 $441 $590 $582 $656 reversed $300 $-1 #
edge $-1 $586 -10.006161690051082 $584 10.006161690051082 $441 $657 forward 7 unknown #
coedge $-1 $443 $442 $580 $656 forward $185 $-1 #
coedge $-1 $445 $451 $579 $655 forward $439 $-1 #
vertex $-1 $446 $658 #
straight-curve $-1 -23.523135130910749 -18.890232347302963 -10.006161690051082 1 0 0 I I #
vertex $-1 $656 $659 #
straight-curve $-1 -23.523135130910749 -18.890232347302963 10.006161690051082 -1 0 0 I I #
point $-1 -40.719329671261022 -18.890232347302963 10.006161690051082 #
point $-1 -40.719329671261022 -18.890232347302963 -10.006161690051082 #
coedge $-1 $580 $579 $454 $591 reversed $300 $-1 #
edge $-1 $592 -10.006161690051082 $594 10.006161690051082 $590 $660 forward 7 unknown #
vertex $-1 $656 $661 #
straight-curve $-1 0 -21.890232347302963 10.006161690051082 1 0 0 I I #
vertex $-1 $655 $662 #
straight-curve $-1 0 -21.890232347302963 -10.006161690051082 -1 0 0 I I #
coedge $-1 $461 $460 $468 $601 forward $193 $-1 #
edge $-1 $604 -40.719329671261022 $464 -19.217201346604732 $463 $663 forward 7 unknown #
straight-curve $-1 -19.217201346604732 -53.570858084543303 10.00616169005108 0 1 0 I I #
point $-1 -19.217201346604732 -21.890232347302963 10.006161690051082 #
straight-curve $-1 -14.984132754466437 -17.19822233714951 10.006161690051082 -1 0 0 I I #
edge $-1 $469 -36.372635747393787 $604 -31.680625737240341 $596 $664 forward 7 unknown #
point $-1 -40.719329671261015 -17.198222337149513 10.006161690051082 #
point $-1 -19.217201346604732 -17.198222337149513 10.006161690051082 #
vertex $-1 $597 $665 #
straight-curve $-1 -40.719329671261022 -21.890232347302963 0 0 0 -1 I I #
vertex $-1 $476 $666 #
point $-1 -33.575864435644938 -17.122631470836179 5.0681044833372306 #
vertex $-1 $480 $667 #
point $-1 -24.360666582220816 -17.122631470836179 5.0681044833372306 #
coedge $-1 $495 $494 $487 $611 forward $484 $-1 #
edge $-1 $612 24.004464815311195 $615 30.230972579307636 $610 $668 forward 7 unknown #
vertex $-1 $499 $669 #
straight-curve $-1 6.3269405905604739 -53.570858084543303 10.00616169005108 0 -1 0 I I #
edge $-1 $615 -2.2120617858838347 $496 19.29006653877245 $495 $670 forward 7 unknown #
vertex $-1 $614 $671 #
straight-curve $-1 6.3269405905604739 -21.890232347302955 3.7796539260546496 0 0.60181501223851219 0.79863551827123203 I I #
point $-1 6.3269405905604739 -17.198222337149513 10.006161690051082 #
point $-1 27.829068915216759 -21.890232347302963 3.7796539260546402 #
straight-curve $-1 0 -21.890232347302963 10.006161690051082 1 0 0 I I #
vertex $-1 $502 $672 #
point $-1 13.47040582617656 -17.122631470836179 5.0681044833372306 #
vertex $-1 $506 $673 #
point $-1 22.685603679600675 -17.122631470836179 5.0681044833372306 #
edge $-1 $625 41.486781871077184 $628 47.713289635073629 $511 $674 forward 7 unknown #
vertex $-1 $525 $675 #
straight-curve $-1 -19.217201346604732 40.396987636547294 10.00616169005108 0 1 0 I I #
edge $-1 $628 4.2330685921382951 $522 25.735196916794578 $521 $676 forward 7 unknown #
vertex $-1 $627 $677 #
straight-curve $-1 -19.217201346604732 -4.4575085486890629 38.744288037586628 0 -0.60181501223851219 0.79863551827123203 I I #
point $-1 -19.217201346604732 17.19822233714951 10.00616169005108 #
point $-1 -40.719329671261015 21.890232347302963 3.7796539260546353 #
straight-curve $-1 0 21.890232347302963 10.006161690051082 -1 0 0 I I #
vertex $-1 $528 $678 #
point $-1 -33.575864435644938 17.122631470836179 5.0681044833372253 #
vertex $-1 $532 $679 #
point $-1 -24.360666582220816 17.122631470836179 5.0681044833372253 #
coedge $-1 $547 $546 $539 $638 forward $536 $-1 #
edge $-1 $639 41.486781871077184 $642 47.713289635073629 $637 $680 forward 7 unknown #
vertex $-1 $551 $681 #
straight-curve $-1 27.829068915216759 40.396987636547294 10.00616169005108 0 1 0 I I #
edge $-1 $642 -19.29006653877245 $548 2.2120617858838347 $547 $682 forward 7 unknown #
vertex $-1 $641 $683 #
straight-curve $-1 27.829068915216759 -4.4575085486890629 38.744288037586628 0 -0.60181501223851219 0.79863551827123203 I I #
point $-1 27.829068915216759 17.19822233714951 10.00616169005108 #
point $-1 6.3269405905604739 21.890232347302963 3.7796539260546353 #
straight-curve $-1 0 21.890232347302963 10.006161690051082 -1 0 0 I I #
vertex $-1 $554 $684 #
point $-1 13.47040582617656 17.122631470836179 5.0681044833372253 #
vertex $-1 $558 $685 #
point $-1 22.685603679600675 17.122631470836179 5.0681044833372253 #
straight-curve $-1 -53.373210852381973 21.890232347302963 0 0 0 -1 I I #
point $-1 -53.373210852381973 -21.890232347302963 -10.006161690051082 #
straight-curve $-1 -53.373210852381973 0 -10.006161690051082 0 1 0 I I #
point $-1 -53.373210852381973 21.890232347302963 -10.006161690051082 #
edge $-1 $594 -21.890232347302963 $584 -18.890232347302963 $579 $686 forward 7 unknown #
edge $-1 $586 18.890232347302963 $592 21.890232347302963 $580 $687 forward 7 unknown #
straight-curve $-1 -53.373210852381973 -18.890232347302963 0 0 0 -1 I I #
point $-1 -53.373210852381973 -18.890232347302963 -10.006161690051082 #
point $-1 -53.373210852381973 -18.890232347302963 10.006161690051082 #
straight-curve $-1 -53.373210852381973 -21.890232347302963 0 0 0 -1 I I #
point $-1 -53.373210852381973 -21.890232347302963 10.006161690051082 #
point $-1 -53.373210852381973 -21.890232347302963 -10.006161690051082 #
straight-curve $-1 0 -21.890232347302963 10.006161690051082 1 0 0 I I #
straight-curve $-1 -40.719329671261015 -53.570858084543303 10.00616169005108 0 -1 0 I I #
point $-1 -40.719329671261022 -21.890232347302963 10.006161690051082 #
point $-1 -34.575864435644938 -16.323995952564946 4.466289471098718 #
point $-1 -25.360666582220816 -16.323995952564946 4.466289471098718 #
straight-curve $-1 6.3269405905604739 -21.890232347302963 34.010626505362275 0 0 -1 I I #
point $-1 6.3269405905604739 -21.890232347302963 10.006161690051082 #
straight-curve $-1 8.5390023764443086 -21.890232347302963 3.779653926054638 1 0 0 I I #
point $-1 6.3269405905604739 -21.890232347302963 3.7796539260546402 #
point $-1 12.47040582617656 -16.323995952564946 4.466289471098718 #
point $-1 21.685603679600675 -16.323995952564946 4.466289471098718 #
straight-curve $-1 -19.217201346604732 21.890232347302963 51.492943561128264 0 0 -1 I I #
point $-1 -19.217201346604732 21.890232347302963 10.006161690051082 #
straight-curve $-1 -14.984132754466437 21.890232347302963 3.7796539260546389 -1 0 0 I I #
point $-1 -19.217201346604732 21.890232347302963 3.7796539260546353 #
point $-1 -34.575864435644938 16.323995952564946 4.4662894710987127 #
point $-1 -25.360666582220816 16.323995952564946 4.4662894710987127 #
straight-curve $-1 27.829068915216759 21.890232347302963 51.492943561128264 0 0 -1 I I #
point $-1 27.829068915216759 21.890232347302963 10.006161690051082 #
straight-curve $-1 8.5390023764443086 21.890232347302963 3.7796539260546389 -1 0 0 I I #
point $-1 27.829068915216759 21.890232347302963 3.7796539260546353 #
point $-1 12.47040582617656 16.323995952564946 4.4662894710987127 #
point $-1 21.685603679600675 16.323995952564946 4.4662894710987127 #
straight-curve $-1 -53.373210852381973 0 -10.006161690051082 0 1 0 I I #
straight-curve $-1 -53.373210852381973 0 10.006161690051082 0 -1 0 I I #
End-of-ACIS-data 