500 0 7 0           
7 Unknown 11 ACIS 5.0 NT 24 Thu Mar 25 19:44:11 1999 
-1 9.9999999999999995e-007 1e-010 
body $-1 $7 $-1 $8 #
body $-1 $9 $-1 $10 #
body $-1 $11 $-1 $12 #
body $-1 $13 $-1 $14 #
body $-1 $15 $-1 $16 #
body $-1 $17 $-1 $18 #
body $-1 $19 $-1 $20 #
lump $-1 $-1 $21 $0 #
transform $-1 1 0 0 0 1 0 0 0 1 75.095065157017729 47.244322952539378 21.478454107092297 1 rotate no_reflect no_shear #
lump $-1 $-1 $22 $1 #
transform $-1 1 0 0 0 1 0 0 0 1 75.095065157017729 47.244322952539378 21.478454107092297 1 rotate no_reflect no_shear #
lump $-1 $-1 $23 $2 #
transform $-1 1 0 0 0 1 0 0 0 1 75.095065157017729 47.244322952539378 21.478454107092297 1 rotate no_reflect no_shear #
lump $-1 $-1 $24 $3 #
transform $-1 1 0 0 0 1 0 0 0 1 75.095065157017729 47.244322952539378 21.478454107092297 1 rotate no_reflect no_shear #
lump $-1 $-1 $25 $4 #
transform $-1 1 0 0 0 1 0 0 0 1 75.095065157017729 47.244322952539378 21.478454107092297 1 rotate no_reflect no_shear #
lump $-1 $-1 $26 $5 #
transform $-1 1 0 0 0 1 0 0 0 1 75.095065157017729 47.244322952539378 21.478454107092297 1 rotate no_reflect no_shear #
lump $-1 $-1 $27 $6 #
transform $-1 1 0 0 0 1 0 0 0 1 75.095065157017729 47.244322952539378 21.478454107092297 1 rotate no_reflect no_shear #
shell $-1 $-1 $-1 $28 $-1 $7 #
shell $-1 $-1 $-1 $29 $-1 $9 #
shell $-1 $-1 $-1 $30 $-1 $11 #
shell $-1 $-1 $-1 $31 $-1 $13 #
shell $-1 $-1 $-1 $32 $-1 $15 #
shell $-1 $-1 $-1 $33 $-1 $17 #
shell $-1 $-1 $-1 $34 $-1 $19 #
face $-1 $35 $36 $21 $-1 $37 forward single #
face $-1 $38 $39 $22 $-1 $40 reversed single #
face $-1 $41 $42 $23 $-1 $43 reversed single #
face $-1 $44 $45 $24 $-1 $46 forward single #
face $-1 $47 $48 $25 $-1 $49 forward single #
face $-1 $50 $51 $26 $-1 $52 reversed single #
face $-1 $53 $54 $27 $-1 $55 forward single #
face $-1 $56 $57 $21 $-1 $58 reversed single #
loop $-1 $-1 $59 $28 #
plane-surface $-1 0 0 21.478454107092297 0 0 1 1 0 0 forward_v I I I I #
face $-1 $60 $61 $22 $-1 $62 reversed single #
loop $-1 $-1 $63 $29 #
plane-surface $-1 -69.005472568837789 -33.101638952416863 0 1 0 0 0 0 -1 forward_v I I I I #
face $-1 $64 $65 $23 $-1 $66 reversed single #
loop $-1 $-1 $67 $30 #
plane-surface $-1 -163.37460992331961 16.374975075211303 139.08365316604358 0 1 0 -0.5877852598018023 0 0.80901698891910034 forward_v I I I I #
face $-1 $68 $69 $24 $-1 $70 forward single #
loop $-1 $71 $72 $31 #
cone-surface $-1 -71.890230701215842 20.525679216739803 18.812033183867772 0.5877852598018023 0 -0.80901698891910034 0.40450849445955017 0 0.29389262990090115 1 I I 0 1 0.5 forward I I I I #
face $-1 $73 $74 $25 $-1 $75 forward single #
loop $-1 $76 $77 $32 #
cone-surface $-1 -71.890230701215842 26.751735429032564 18.812033183867772 0.5877852598018023 0 -0.80901698891910034 0.40450849445955017 0 0.29389262990090115 1 I I 0 1 0.5 forward I I I I #
face $-1 $78 $79 $26 $-1 $80 reversed single #
loop $-1 $-1 $81 $33 #
plane-surface $-1 126.47950129808234 -2.4530899404367119 221.14199739035226 0 -1 0 -0.85716730853699208 0 -0.51503806187062418 forward_v I I I I #
face $-1 $82 $83 $27 $-1 $84 forward single #
loop $-1 $85 $86 $34 #
cone-surface $-1 70.77463488200226 -10.70602244636553 16.828788168684078 -0.85716730853699208 0 -0.51503806187062418 0.77255709280593621 0 -1.2857509628054882 1 I I 0 1 1.5 forward I I I I #
face $-1 $87 $88 $21 $-1 $89 reversed single #
loop $-1 $-1 $90 $35 #
plane-surface $-1 0 0 -21.478454107092297 0 0 1 1 0 0 forward_v I I I I #
coedge $-1 $91 $92 $93 $94 forward $36 $-1 #
face $-1 $95 $96 $22 $-1 $97 reversed single #
loop $-1 $-1 $98 $38 #
plane-surface $-1 -66.287612701769191 -18.958954952294349 0 0 -1 0 0 0 -1 forward_v I I I I #
coedge $-1 $99 $100 $101 $102 forward $39 $-1 #
face $-1 $103 $104 $23 $-1 $105 reversed single #
loop $-1 $-1 $106 $41 #
plane-surface $-1 -75.095065157017743 23.638707322886191 17.577286174015313 -0.5877852598018023 0 0.80901698891910034 0.80901698891910034 0 0.5877852598018023 forward_v I I I I #
coedge $-1 $107 $108 $109 $110 reversed $42 $-1 #
face $-1 $-1 $111 $24 $-1 $112 forward single #
loop $-1 $113 $114 $44 #
cone-surface $-1 -71.223198383963265 20.525679216739803 17.893941979951954 0.5877852598018023 0 -0.80901698891910034 0.20225424722977509 0 0.14694631495045057 1 I I -0.70710678118654746 0.70710678118654746 0.25 forward I I I I #
loop $-1 $-1 $115 $31 #
coedge $-1 $72 $72 $116 $117 reversed $45 $-1 #
face $-1 $-1 $118 $25 $-1 $119 forward single #
loop $-1 $120 $121 $47 #
cone-surface $-1 -71.223198383963265 26.751735429032564 17.893941979951954 0.5877852598018023 0 -0.80901698891910034 0.20225424722977509 0 0.14694631495045057 1 I I -0.70710678118654746 0.70710678118654746 0.25 forward I I I I #
loop $-1 $-1 $122 $32 #
coedge $-1 $77 $77 $123 $124 reversed $48 $-1 #
face $-1 $125 $126 $26 $-1 $127 reversed single #
loop $-1 $-1 $128 $50 #
plane-surface $-1 -2.2585684720195331 -10.70602244636553 143.78836376131494 0.85716730853699208 0 0.51503806187062418 0.51503806187062418 0 -0.85716730853699208 forward_v I I I I #
coedge $-1 $129 $130 $131 $132 reversed $51 $-1 #
face $-1 $-1 $133 $27 $-1 $134 forward single #
loop $-1 $135 $136 $53 #
cone-surface $-1 67.742543192256306 -10.70602244636553 15.006923741812521 -0.85716730853699208 0 -0.51503806187062418 0.3862785464029681 0 -0.64287548140274409 1 I I -0.70710678118654757 0.70710678118654757 0.75 forward I I I I #
loop $-1 $-1 $137 $34 #
coedge $-1 $86 $86 $138 $139 reversed $54 $-1 #
face $-1 $140 $141 $21 $-1 $142 reversed single #
loop $-1 $-1 $143 $56 #
plane-surface $-1 0 -47.244322952539378 0 0 1 0 0 0 1 forward_v I I I I #
coedge $-1 $144 $145 $146 $147 forward $57 $-1 #
coedge $-1 $148 $59 $149 $150 forward $36 $-1 #
coedge $-1 $59 $148 $151 $152 forward $36 $-1 #
coedge $-1 $153 $154 $59 $94 reversed $155 $-1 #
edge $-1 $156 -47.244322952539378 $157 47.244322952539378 $93 $158 forward 7 unknown #
face $-1 $159 $160 $22 $-1 $161 forward single #
loop $-1 $-1 $162 $60 #
plane-surface $-1 -63.569752834700594 -33.101638952416863 0 -1 0 0 0 0 1 forward_v I I I I #
coedge $-1 $163 $164 $165 $166 forward $61 $-1 #
coedge $-1 $167 $63 $168 $169 reversed $39 $-1 #
coedge $-1 $63 $167 $170 $171 reversed $39 $-1 #
coedge $-1 $164 $163 $63 $102 reversed $61 $-1 #
edge $-1 $172 -21.478454107092297 $173 21.478454107092297 $101 $174 forward 7 unknown #
face $-1 $175 $176 $23 $-1 $177 reversed single #
loop $-1 $-1 $178 $64 #
plane-surface $-1 -163.37460992331961 30.902439570561079 139.08365316604358 0 -1 0 0.5877852598018023 0 -0.80901698891910034 forward_v I I I I #
coedge $-1 $179 $180 $181 $182 reversed $65 $-1 #
coedge $-1 $108 $67 $183 $184 reversed $42 $-1 #
coedge $-1 $67 $107 $179 $185 reversed $42 $-1 #
coedge $-1 $181 $186 $67 $110 forward $187 $-1 #
edge $-1 $188 6.5922398046420767 $189 11.961736711641592 $109 $190 forward 7 unknown #
loop $-1 $-1 $116 $68 #
plane-surface $-1 -75.095065157017743 23.638707322886191 17.577286174015313 -0.5877852598018023 0 0.80901698891910034 0.80901698891910034 0 0.5877852598018023 forward_v I I I I #
loop $-1 $-1 $191 $44 #
coedge $-1 $114 $114 $115 $192 reversed $69 $-1 #
coedge $-1 $115 $115 $114 $192 forward $71 $-1 #
coedge $-1 $116 $116 $72 $117 forward $111 $-1 #
edge $-1 $193 0 $193 6.2831853071796004 $116 $194 forward 7 unknown #
loop $-1 $-1 $123 $73 #
plane-surface $-1 -75.095065157017743 23.638707322886191 17.577286174015313 -0.5877852598018023 0 0.80901698891910034 0.80901698891910034 0 0.5877852598018023 forward_v I I I I #
loop $-1 $-1 $195 $47 #
coedge $-1 $121 $121 $122 $196 reversed $74 $-1 #
coedge $-1 $122 $122 $121 $196 forward $76 $-1 #
coedge $-1 $123 $123 $77 $124 forward $118 $-1 #
edge $-1 $197 0 $197 6.2831853071796004 $123 $198 forward 7 unknown #
face $-1 $199 $200 $26 $-1 $201 forward single #
loop $-1 $-1 $202 $78 #
plane-surface $-1 126.47950129808234 -18.958954952294349 221.14199739035226 0 1 0 0.85716730853699208 0 0.51503806187062418 forward_v I I I I #
coedge $-1 $203 $204 $205 $206 reversed $79 $-1 #
coedge $-1 $130 $81 $207 $208 reversed $51 $-1 #
coedge $-1 $81 $129 $203 $209 reversed $51 $-1 #
coedge $-1 $205 $210 $81 $132 forward $200 $-1 #
edge $-1 $211 -11.855314507976559 $212 -7.9928863746320786 $131 $213 forward 7 unknown #
loop $-1 $-1 $138 $82 #
plane-surface $-1 -2.2585684720195331 -10.70602244636553 143.78836376131494 0.85716730853699208 0 0.51503806187062418 0.51503806187062418 0 -0.85716730853699208 forward_v I I I I #
loop $-1 $-1 $214 $53 #
coedge $-1 $136 $136 $137 $215 reversed $83 $-1 #
coedge $-1 $137 $137 $136 $215 forward $85 $-1 #
coedge $-1 $138 $138 $86 $139 forward $133 $-1 #
edge $-1 $216 0 $216 6.2831853071796004 $138 $217 forward 7 unknown #
face $-1 $218 $219 $21 $-1 $220 reversed single #
loop $-1 $-1 $221 $87 #
plane-surface $-1 -75.095065157017729 0 0 1 0 0 0 0 -1 forward_v I I I I #
coedge $-1 $222 $151 $223 $224 forward $88 $-1 #
coedge $-1 $225 $90 $222 $226 forward $57 $-1 #
coedge $-1 $90 $225 $227 $228 forward $57 $-1 #
coedge $-1 $154 $153 $90 $147 reversed $155 $-1 #
edge $-1 $229 -47.244322952539378 $230 47.244322952539378 $146 $231 forward 7 unknown #
coedge $-1 $92 $91 $232 $233 forward $36 $-1 #
coedge $-1 $234 $235 $91 $150 reversed $219 $-1 #
edge $-1 $157 -75.095065157017729 $236 75.095065157017729 $149 $237 forward 7 unknown #
coedge $-1 $143 $238 $92 $152 reversed $88 $-1 #
edge $-1 $239 -75.095065157017729 $156 75.095065157017729 $151 $240 forward 7 unknown #
coedge $-1 $146 $93 $238 $241 forward $155 $-1 #
coedge $-1 $93 $146 $234 $242 reversed $155 $-1 #
loop $-1 $-1 $153 $218 #
vertex $-1 $94 $243 #
vertex $-1 $94 $244 #
straight-curve $-1 75.095065157017729 0 21.478454107092297 0 1 0 I I #
face $-1 $245 $246 $22 $-1 $247 reversed single #
loop $-1 $-1 $248 $95 #
plane-surface $-1 0 0 21.478454107092297 0 0 1 1 0 0 forward_v I I I I #
coedge $-1 $249 $250 $251 $252 reversed $96 $-1 #
coedge $-1 $101 $98 $253 $254 reversed $61 $-1 #
coedge $-1 $98 $101 $255 $256 reversed $61 $-1 #
coedge $-1 $250 $249 $98 $166 reversed $96 $-1 #
edge $-1 $257 -21.478454107092297 $258 21.478454107092297 $165 $259 forward 7 unknown #
coedge $-1 $100 $99 $260 $261 reversed $39 $-1 #
coedge $-1 $253 $262 $99 $169 forward $246 $-1 #
edge $-1 $263 -30.693503476330946 $173 -2.408135476085917 $168 $264 forward 7 unknown #
coedge $-1 $265 $255 $100 $171 forward $160 $-1 #
edge $-1 $172 2.408135476085917 $266 30.693503476330946 $170 $267 forward 7 unknown #
vertex $-1 $171 $268 #
vertex $-1 $169 $269 #
straight-curve $-1 -69.005472568837789 -18.958954952294349 0 0 0 -1 I I #
face $-1 $-1 $187 $23 $-1 $270 forward single #
loop $-1 $-1 $271 $103 #
plane-surface $-1 -75.095065157017729 0 0 1 0 0 0 0 -1 forward_v I I I I #
coedge $-1 $272 $273 $274 $275 reversed $104 $-1 #
coedge $-1 $276 $106 $108 $185 forward $65 $-1 #
coedge $-1 $106 $276 $272 $277 forward $65 $-1 #
coedge $-1 $274 $109 $106 $182 forward $187 $-1 #
edge $-1 $189 4.5556214137682076 $278 19.083085909117983 $181 $279 forward 7 unknown #
coedge $-1 $280 $281 $107 $184 forward $176 $-1 #
edge $-1 $282 -51.96454040900646 $188 -48.063372475929491 $183 $283 forward 7 unknown #
edge $-1 $189 -6.6370632267852976 $282 -1.7761521089745031e-014 $108 $284 forward 7 unknown #
coedge $-1 $109 $274 $280 $285 forward $187 $-1 #
loop $-1 $-1 $274 $175 #
vertex $-1 $184 $286 #
vertex $-1 $110 $287 #
straight-curve $-1 -81.687304961659805 16.374975075211303 21.478454107092297 1 0 0 I I #
coedge $-1 $191 $191 $-1 $288 reversed $113 $-1 #
edge $-1 $289 0 $289 6.2831853071796004 $114 $290 forward 7 unknown #
vertex $-1 $117 $291 #
ellipse-curve $-1 -72.410316703517964 20.525679216739803 19.527870140553816 -0.5877852598018023 0 0.80901698891910034 0.40450849445955017 0 0.29389262990090115 1 I I #
coedge $-1 $195 $195 $-1 $292 reversed $120 $-1 #
edge $-1 $293 0 $293 6.2831853071796004 $121 $294 forward 7 unknown #
vertex $-1 $124 $295 #
ellipse-curve $-1 -72.410316703517964 26.751735429032564 19.527870140553816 -0.5877852598018023 0 0.80901698891910034 0.40450849445955017 0 0.29389262990090115 1 I I #
face $-1 $-1 $296 $26 $-1 $297 reversed single #
loop $-1 $-1 $131 $125 #
plane-surface $-1 0 0 21.478454107092297 0 0 1 1 0 0 forward_v I I I I #
coedge $-1 $298 $299 $300 $301 reversed $126 $-1 #
coedge $-1 $302 $128 $130 $209 forward $79 $-1 #
coedge $-1 $128 $302 $298 $303 forward $79 $-1 #
coedge $-1 $300 $131 $128 $206 forward $200 $-1 #
edge $-1 $212 -2.8999212827460532 $304 13.605943729111583 $205 $305 forward 7 unknown #
coedge $-1 $306 $307 $129 $208 forward $296 $-1 #
edge $-1 $308 -95.520704703962977 $211 -89.092544588083825 $207 $309 forward 7 unknown #
edge $-1 $212 142.69082410875012 $308 150.1901303140354 $130 $310 forward 7 unknown #
coedge $-1 $131 $300 $306 $311 forward $200 $-1 #
vertex $-1 $208 $312 #
vertex $-1 $132 $313 #
straight-curve $-1 63.23975064904117 -2.4530899404367119 21.47845410709229 -1 0 0 I I #
coedge $-1 $214 $214 $-1 $314 reversed $135 $-1 #
edge $-1 $315 0 $315 6.2831853071796004 $136 $316 forward 7 unknown #
vertex $-1 $139 $317 #
ellipse-curve $-1 73.163851090345503 -10.70602244636553 18.264374049152689 0.85716730853699208 0 0.51503806187062418 0.77255709280593621 0 -1.2857509628054882 1 I I #
face $-1 $-1 $155 $21 $-1 $318 reversed single #
loop $-1 $-1 $234 $140 #
plane-surface $-1 0 47.244322952539378 0 0 -1 0 0 0 -1 forward_v I I I I #
coedge $-1 $319 $232 $235 $320 forward $141 $-1 #
coedge $-1 $238 $143 $144 $226 reversed $88 $-1 #
coedge $-1 $232 $319 $143 $224 reversed $141 $-1 #
edge $-1 $239 -21.478454107092297 $321 21.478454107092297 $223 $322 forward 7 unknown #
coedge $-1 $145 $144 $319 $323 forward $57 $-1 #
edge $-1 $230 -75.095065157017729 $321 75.095065157017729 $222 $324 forward 7 unknown #
coedge $-1 $235 $234 $145 $228 reversed $219 $-1 #
edge $-1 $325 -75.095065157017729 $229 75.095065157017729 $227 $326 forward 7 unknown #
vertex $-1 $147 $327 #
vertex $-1 $241 $328 #
straight-curve $-1 75.095065157017729 0 -21.478454107092297 0 -1 0 I I #
coedge $-1 $221 $223 $148 $233 reversed $141 $-1 #
edge $-1 $236 -47.244322952539378 $239 47.244322952539378 $232 $329 forward 7 unknown #
coedge $-1 $227 $149 $154 $242 forward $219 $-1 #
coedge $-1 $149 $227 $221 $320 reversed $219 $-1 #
vertex $-1 $150 $330 #
straight-curve $-1 0 47.244322952539378 21.478454107092297 -1 0 0 I I #
coedge $-1 $151 $222 $153 $241 reversed $88 $-1 #
vertex $-1 $233 $331 #
straight-curve $-1 0 -47.244322952539378 21.478454107092297 1 0 0 I I #
edge $-1 $156 -21.478454107092297 $230 21.478454107092297 $153 $332 forward 7 unknown #
edge $-1 $157 -21.478454107092297 $229 21.478454107092297 $154 $333 forward 7 unknown #
point $-1 75.095065157017729 -47.244322952539378 21.478454107092297 #
point $-1 75.095065157017729 47.244322952539378 21.478454107092297 #
face $-1 $-1 $334 $22 $-1 $335 reversed single #
loop $-1 $-1 $336 $159 #
plane-surface $-1 0 0 -21.478454107092297 0 0 1 1 0 0 forward_v I I I I #
coedge $-1 $255 $265 $250 $337 forward $160 $-1 #
coedge $-1 $165 $162 $336 $338 reversed $96 $-1 #
coedge $-1 $162 $165 $248 $337 reversed $96 $-1 #
coedge $-1 $339 $340 $162 $252 forward $334 $-1 #
edge $-1 $341 -21.478454107092297 $342 21.478454107092297 $251 $343 forward 7 unknown #
coedge $-1 $336 $168 $163 $254 forward $246 $-1 #
edge $-1 $173 -35.861666217953193 $258 -30.425946483815999 $253 $344 forward 7 unknown #
coedge $-1 $170 $248 $164 $256 forward $160 $-1 #
edge $-1 $257 30.425946483815999 $172 35.861666217953193 $255 $345 forward 7 unknown #
vertex $-1 $256 $346 #
vertex $-1 $254 $347 #
straight-curve $-1 -63.569752834700594 -18.958954952294349 0 0 0 -1 I I #
coedge $-1 $340 $339 $167 $261 forward $334 $-1 #
edge $-1 $266 -21.478454107092297 $263 21.478454107092297 $260 $348 forward 7 unknown #
coedge $-1 $168 $336 $340 $349 forward $246 $-1 #
vertex $-1 $169 $350 #
straight-curve $-1 -69.005472568837789 -16.550819476208432 -21.478454107092297 0 1 0 I I #
coedge $-1 $248 $170 $339 $351 forward $160 $-1 #
vertex $-1 $351 $352 #
straight-curve $-1 -69.005472568837789 -16.550819476208432 21.478454107092297 0 -1 0 I I #
point $-1 -69.005472568837789 -18.958954952294349 21.478454107092297 #
point $-1 -69.005472568837789 -18.958954952294349 -21.478454107092297 #
plane-surface $-1 0 0 21.478454107092297 0 0 1 1 0 0 forward_v I I I I #
coedge $-1 $281 $280 $273 $353 forward $176 $-1 #
coedge $-1 $273 $178 $180 $277 reversed $104 $-1 #
coedge $-1 $178 $272 $271 $353 reversed $104 $-1 #
coedge $-1 $186 $181 $178 $275 forward $187 $-1 #
edge $-1 $278 -11.961736711641592 $354 -6.5922398046420767 $274 $355 forward 7 unknown #
coedge $-1 $180 $179 $281 $356 reversed $65 $-1 #
edge $-1 $357 1.7761521089745031e-014 $278 6.6370632267852976 $272 $358 forward 7 unknown #
vertex $-1 $182 $359 #
straight-curve $-1 -69.725568250018227 11.819353661443095 21.478454107092297 0 1 0 I I #
coedge $-1 $271 $183 $186 $285 reversed $176 $-1 #
coedge $-1 $183 $271 $276 $356 forward $176 $-1 #
vertex $-1 $184 $360 #
straight-curve $-1 -75.095065157017729 16.374975075211303 69.541826583021788 0 0 1 I I #
straight-curve $-1 -75.095065157017743 16.374975075211303 17.577286174015313 -0.80901698891910034 0 -0.5877852598018023 I I #
edge $-1 $354 -30.902439570561079 $188 -16.374975075211303 $280 $361 forward 7 unknown #
point $-1 -75.095065157017729 16.374975075211303 21.478454107092297 #
point $-1 -69.725568250018213 16.374975075211303 21.478454107092297 #
edge $-1 $362 1 $362 0 $191 $-1 forward 7 unknown #
vertex $-1 $192 $363 #
ellipse-curve $-1 -71.37014469891372 20.525679216739803 18.096196227181728 -0.5877852598018023 0 0.80901698891910034 0.40450849445955017 0 0.29389262990090115 1 I I #
point $-1 -72.005808209058415 20.525679216739803 19.821762770454711 #
edge $-1 $364 1 $364 0 $195 $-1 forward 7 unknown #
vertex $-1 $196 $365 #
ellipse-curve $-1 -71.37014469891372 26.751735429032564 18.096196227181728 -0.5877852598018023 0 0.80901698891910034 0.40450849445955017 0 0.29389262990090115 1 I I #
point $-1 -72.005808209058415 26.751735429032564 19.821762770454711 #
loop $-1 $-1 $207 $199 #
plane-surface $-1 75.095065157017729 0 0 -1 0 0 0 0 1 forward_v I I I I #
coedge $-1 $299 $202 $204 $303 reversed $126 $-1 #
coedge $-1 $202 $298 $366 $367 reversed $126 $-1 #
coedge $-1 $210 $205 $202 $301 forward $200 $-1 #
edge $-1 $304 7.9928863746320786 $368 11.855314507976559 $300 $369 forward 7 unknown #
coedge $-1 $204 $203 $307 $370 reversed $79 $-1 #
edge $-1 $371 -150.1901303140354 $304 -142.69082410875012 $298 $372 forward 7 unknown #
vertex $-1 $206 $373 #
straight-curve $-1 71.23263702367322 -5.3530112231827651 21.478454107092304 0 -1 0 I I #
coedge $-1 $366 $207 $210 $311 reversed $296 $-1 #
coedge $-1 $207 $366 $302 $370 forward $296 $-1 #
vertex $-1 $208 $374 #
straight-curve $-1 75.095065157017729 -2.4530899404367119 110.57099869517613 0 0 1 I I #
straight-curve $-1 -2.2585684720195331 -2.4530899404367119 143.78836376131494 0.51503806187062418 0 -0.85716730853699208 I I #
edge $-1 $368 -18.958954952294349 $211 -2.4530899404367119 $306 $375 forward 7 unknown #
point $-1 75.095065157017729 -2.4530899404367119 21.478454107092297 #
point $-1 71.232637023673249 -2.4530899404367119 21.47845410709229 #
edge $-1 $376 1 $376 0 $214 $-1 forward 7 unknown #
vertex $-1 $215 $377 #
ellipse-curve $-1 68.385418673659046 -10.70602244636553 15.393202288215489 0.85716730853699208 0 0.51503806187062418 0.77255709280593621 0 -1.2857509628054882 1 I I #
point $-1 73.9364081831514 -10.70602244636553 16.978623086347177 #
plane-surface $-1 75.095065157017729 0 0 -1 0 0 0 0 1 forward_v I I I I #
coedge $-1 $223 $221 $225 $323 reversed $141 $-1 #
edge $-1 $236 -21.478454107092297 $325 21.478454107092297 $235 $378 forward 7 unknown #
vertex $-1 $323 $379 #
straight-curve $-1 -75.095065157017729 -47.244322952539378 0 0 0 -1 I I #
edge $-1 $321 -47.244322952539378 $325 47.244322952539378 $319 $380 forward 7 unknown #
straight-curve $-1 0 -47.244322952539378 -21.478454107092297 -1 0 0 I I #
vertex $-1 $228 $381 #
straight-curve $-1 0 47.244322952539378 -21.478454107092297 1 0 0 I I #
point $-1 75.095065157017729 47.244322952539378 -21.478454107092297 #
point $-1 75.095065157017729 -47.244322952539378 -21.478454107092297 #
straight-curve $-1 -75.095065157017729 0 21.478454107092297 0 -1 0 I I #
point $-1 -75.095065157017729 47.244322952539378 21.478454107092297 #
point $-1 -75.095065157017729 -47.244322952539378 21.478454107092297 #
straight-curve $-1 75.095065157017729 -47.244322952539378 0 0 0 -1 I I #
straight-curve $-1 75.095065157017729 47.244322952539378 0 0 0 -1 I I #
loop $-1 $-1 $251 $245 #
plane-surface $-1 0 -47.244322952539378 0 0 1 0 0 0 1 forward_v I I I I #
coedge $-1 $262 $253 $249 $338 forward $246 $-1 #
edge $-1 $342 -30.693503476330946 $257 -2.408135476085917 $248 $382 forward 7 unknown #
edge $-1 $258 2.408135476085917 $341 30.693503476330946 $336 $383 forward 7 unknown #
coedge $-1 $260 $251 $265 $351 reversed $334 $-1 #
coedge $-1 $251 $260 $262 $349 reversed $334 $-1 #
vertex $-1 $349 $384 #
vertex $-1 $252 $385 #
straight-curve $-1 -63.569752834700594 -47.244322952539378 0 0 0 1 I I #
straight-curve $-1 -33.143806350884596 -18.958954952294349 -21.478454107092297 1 0 0 I I #
straight-curve $-1 -33.143806350884596 -18.958954952294349 21.478454107092297 -1 0 0 I I #
point $-1 -63.569752834700594 -18.958954952294349 21.478454107092297 #
point $-1 -63.569752834700594 -18.958954952294349 -21.478454107092297 #
straight-curve $-1 -69.005472568837789 -47.244322952539378 0 0 0 -1 I I #
edge $-1 $341 63.569752834700594 $263 69.005472568837789 $340 $386 forward 7 unknown #
point $-1 -69.005472568837789 -47.244322952539378 -21.478454107092297 #
edge $-1 $266 -69.005472568837789 $342 -63.569752834700594 $339 $387 forward 7 unknown #
point $-1 -69.005472568837789 -47.244322952539378 21.478454107092297 #
edge $-1 $354 48.063372475929491 $357 51.96454040900646 $271 $388 forward 7 unknown #
vertex $-1 $285 $389 #
straight-curve $-1 -81.687304961659805 30.902439570561079 21.478454107092297 -1 0 0 I I #
edge $-1 $357 -19.083085909117983 $282 -4.5556214137682076 $281 $390 forward 7 unknown #
vertex $-1 $356 $391 #
straight-curve $-1 -75.095065157017743 30.902439570561079 17.577286174015313 0.80901698891910034 0 0.5877852598018023 I I #
point $-1 -69.725568250018213 30.902439570561079 21.478454107092297 #
point $-1 -75.095065157017729 16.374975075211303 17.577286174015324 #
straight-curve $-1 -75.095065157017729 0 21.478454107092297 0 -1 0 I I #
vertex $-1 $288 $392 #
point $-1 -70.965636204454171 20.525679216739803 18.390088857082631 #
vertex $-1 $292 $393 #
point $-1 -70.965636204454171 26.751735429032564 18.390088857082631 #
coedge $-1 $307 $306 $299 $367 forward $296 $-1 #
edge $-1 $368 89.092544588083825 $371 95.520704703962977 $366 $394 forward 7 unknown #
vertex $-1 $311 $395 #
straight-curve $-1 63.23975064904117 -18.958954952294349 21.47845410709229 1 0 0 I I #
edge $-1 $371 -13.605943729111583 $308 2.8999212827460532 $307 $396 forward 7 unknown #
vertex $-1 $370 $397 #
straight-curve $-1 -2.2585684720195331 -18.958954952294349 143.78836376131494 -0.51503806187062418 0 0.85716730853699208 I I #
point $-1 71.232637023673249 -18.958954952294349 21.47845410709229 #
point $-1 75.095065157017729 -2.4530899404367119 15.050293991213152 #
straight-curve $-1 75.095065157017729 0 21.478454107092297 0 1 0 I I #
vertex $-1 $314 $398 #
point $-1 69.157975766464986 -10.70602244636553 14.10745132541 #
straight-curve $-1 -75.095065157017729 47.244322952539378 0 0 0 -1 I I #
point $-1 -75.095065157017729 -47.244322952539378 -21.478454107092297 #
straight-curve $-1 -75.095065157017729 0 -21.478454107092297 0 1 0 I I #
point $-1 -75.095065157017729 47.244322952539378 -21.478454107092297 #
straight-curve $-1 -63.569752834700594 -16.550819476208432 21.478454107092297 0 1 0 I I #
straight-curve $-1 -63.569752834700594 -16.550819476208432 -21.478454107092297 0 -1 0 I I #
point $-1 -63.569752834700594 -47.244322952539378 -21.478454107092297 #
point $-1 -63.569752834700594 -47.244322952539378 21.478454107092297 #
straight-curve $-1 0 -47.244322952539378 -21.478454107092297 -1 0 0 I I #
straight-curve $-1 0 -47.244322952539378 21.478454107092297 1 0 0 I I #
straight-curve $-1 -75.095065157017729 30.902439570561079 69.541826583021788 0 0 -1 I I #
point $-1 -75.095065157017729 30.902439570561079 21.478454107092297 #
straight-curve $-1 -75.095065157017729 11.819353661443095 17.577286174015324 0 -1 0 I I #
point $-1 -75.095065157017729 30.902439570561079 17.577286174015324 #
point $-1 -71.07625206901281 20.525679216739803 17.69168773272218 #
point $-1 -71.07625206901281 26.751735429032564 17.69168773272218 #
straight-curve $-1 75.095065157017729 -18.958954952294349 110.57099869517613 0 0 -1 I I #
point $-1 75.095065157017729 -18.958954952294349 21.478454107092297 #
straight-curve $-1 75.095065157017729 -5.3530112231827651 15.050293991213131 0 1 0 I I #
point $-1 75.095065157017729 -18.958954952294349 15.050293991213152 #
point $-1 67.099667710853566 -10.70602244636553 14.620645195409553 #
End-of-ACIS-data 