500 0 9 0           
7 Unknown 11 ACIS 5.0 NT 24 Thu Mar 25 23:04:15 1999 
-1 9.9999999999999995e-007 1e-010 
body $-1 $9 $-1 $10 #
body $-1 $11 $-1 $12 #
body $-1 $13 $-1 $14 #
body $-1 $15 $-1 $16 #
body $-1 $17 $-1 $18 #
body $-1 $19 $-1 $20 #
body $-1 $21 $-1 $22 #
body $-1 $23 $-1 $24 #
body $-1 $25 $-1 $26 #
lump $-1 $-1 $27 $0 #
transform $-1 1 0 0 0 1 0 0 0 1 79.521469771416363 41.303985797529329 15.262066665918946 1 rotate no_reflect no_shear #
lump $-1 $-1 $28 $1 #
transform $-1 1 0 0 0 1 0 0 0 1 79.521469771416363 41.303985797529329 15.262066665918946 1 rotate no_reflect no_shear #
lump $-1 $-1 $29 $2 #
transform $-1 1 0 0 0 1 0 0 0 1 79.521469771416363 41.303985797529329 15.262066665918946 1 rotate no_reflect no_shear #
lump $-1 $-1 $30 $3 #
transform $-1 1 0 0 0 1 0 0 0 1 79.521469771416363 41.303985797529329 15.262066665918946 1 rotate no_reflect no_shear #
lump $-1 $-1 $31 $4 #
transform $-1 1 0 0 0 1 0 0 0 1 79.521469771416363 41.303985797529329 15.262066665918946 1 rotate no_reflect no_shear #
lump $-1 $-1 $32 $5 #
transform $-1 1 0 0 0 1 0 0 0 1 79.521469771416363 41.303985797529329 15.262066665918946 1 rotate no_reflect no_shear #
lump $-1 $-1 $33 $6 #
transform $-1 1 0 0 0 1 0 0 0 1 79.521469771416363 41.303985797529329 15.262066665918946 1 rotate no_reflect no_shear #
lump $-1 $-1 $34 $7 #
transform $-1 1 0 0 0 1 0 0 0 1 79.521469771416363 41.303985797529329 15.262066665918946 1 rotate no_reflect no_shear #
lump $-1 $-1 $35 $8 #
transform $-1 1 0 0 0 1 0 0 0 1 79.521469771416363 41.303985797529329 15.262066665918946 1 rotate no_reflect no_shear #
shell $-1 $-1 $-1 $36 $-1 $9 #
shell $-1 $-1 $-1 $37 $-1 $11 #
shell $-1 $-1 $-1 $38 $-1 $13 #
shell $-1 $-1 $-1 $39 $-1 $15 #
shell $-1 $-1 $-1 $40 $-1 $17 #
shell $-1 $-1 $-1 $41 $-1 $19 #
shell $-1 $-1 $-1 $42 $-1 $21 #
shell $-1 $-1 $-1 $43 $-1 $23 #
shell $-1 $-1 $-1 $44 $-1 $25 #
face $-1 $45 $46 $27 $-1 $47 forward single #
face $-1 $48 $49 $28 $-1 $50 forward single #
face $-1 $51 $52 $29 $-1 $53 reversed single #
face $-1 $54 $55 $30 $-1 $56 forward single #
face $-1 $57 $58 $31 $-1 $59 forward single #
face $-1 $60 $61 $32 $-1 $62 reversed single #
face $-1 $63 $64 $33 $-1 $65 forward single #
face $-1 $66 $67 $34 $-1 $68 forward single #
face $-1 $69 $70 $35 $-1 $71 forward single #
face $-1 $72 $73 $27 $-1 $74 reversed single #
loop $-1 $-1 $75 $36 #
plane-surface $-1 0 0 15.262066665918946 0 0 1 1 0 0 forward_v I I I I #
face $-1 $76 $77 $28 $-1 $78 reversed single #
loop $-1 $-1 $79 $37 #
plane-surface $-1 -73.407355541057015 0 6.3691826203069262 0 0 1 1 0 0 forward_v I I I I #
face $-1 $80 $81 $29 $-1 $82 reversed single #
loop $-1 $-1 $83 $38 #
plane-surface $-1 14.196066659147633 121.41668152972392 163.78523659938253 1 0 0 0 -0.80901700255871778 -0.5877852410284794 forward_v I I I I #
face $-1 $84 $85 $30 $-1 $86 forward single #
loop $-1 $87 $88 $39 #
cone-surface $-1 24.676366919565936 35.175112224278905 8.0256601995412282 0 -0.80901700255871778 -0.5877852410284794 2 0 0 1 I I 0 1 2 forward I I I I #
face $-1 $89 $90 $31 $-1 $91 forward single #
loop $-1 $92 $93 $40 #
cone-surface $-1 40.396817310193384 35.175112224278905 8.0256601995412282 0 -0.80901700255871778 -0.5877852410284794 2 0 0 1 I I 0 1 2 forward I I I I #
face $-1 $94 $95 $32 $-1 $96 reversed single #
loop $-1 $-1 $97 $41 #
plane-surface $-1 63.855394251440245 -41.303985797529336 5.9239025642108487 0 -0.71933980857756763 0.69465836192734942 1 0 0 forward_v I I I I #
face $-1 $98 $99 $33 $-1 $100 forward single #
loop $-1 $101 $102 $42 #
cone-surface $-1 54.45574893945458 -34.731380744741365 8.6000685621228534 0 0.71933980857756763 -0.69465836192734942 1.5 0 0 1 I I 0 1 1.5 forward I I I I #
face $-1 $103 $104 $34 $-1 $105 forward single #
loop $-1 $106 $107 $43 #
cone-surface $-1 63.855394251440245 -34.731380744741365 8.6000685621228534 0 0.71933980857756763 -0.69465836192734942 1.5 0 0 1 I I 0 1 1.5 forward I I I I #
face $-1 $108 $109 $35 $-1 $110 forward single #
loop $-1 $111 $112 $44 #
cone-surface $-1 73.25503956342591 -34.731380744741365 8.6000685621228534 0 0.71933980857756763 -0.69465836192734942 1.5 0 0 1 I I 0 1 1.5 forward I I I I #
face $-1 $113 $114 $27 $-1 $115 reversed single #
loop $-1 $-1 $116 $45 #
plane-surface $-1 0 0 -15.262066665918946 0 0 1 1 0 0 forward_v I I I I #
coedge $-1 $117 $118 $119 $120 forward $46 $-1 #
face $-1 $121 $122 $28 $-1 $123 reversed single #
loop $-1 $-1 $124 $48 #
plane-surface $-1 -73.407355541057015 0 -0.69523478507021252 0 0 1 1 0 0 forward_v I I I I #
coedge $-1 $125 $126 $127 $128 forward $49 $-1 #
face $-1 $129 $130 $29 $-1 $131 reversed single #
loop $-1 $-1 $132 $51 #
plane-surface $-1 32.536592114879667 -7.2517606973459863 70.30214404632072 0 0.80901700255871778 0.5877852410284794 1 0 0 forward_v I I I I #
coedge $-1 $133 $134 $135 $136 reversed $52 $-1 #
face $-1 $-1 $137 $30 $-1 $138 forward single #
loop $-1 $139 $140 $54 #
cone-surface $-1 24.676366919565936 32.520617000544796 6.0970565855791659 0 -0.80901700255871778 -0.5877852410284794 1 0 0 1 I I -0.70710678118654746 0.70710678118654746 1 forward I I I I #
loop $-1 $-1 $141 $39 #
coedge $-1 $88 $88 $142 $143 reversed $55 $-1 #
face $-1 $-1 $144 $31 $-1 $145 forward single #
loop $-1 $146 $147 $57 #
cone-surface $-1 40.396817310193384 32.520617000544796 6.0970565855791659 0 -0.80901700255871778 -0.5877852410284794 1 0 0 1 I I -0.70710678118654746 0.70710678118654746 1 forward I I I I #
loop $-1 $-1 $148 $40 #
coedge $-1 $93 $93 $149 $150 reversed $58 $-1 #
face $-1 $151 $152 $32 $-1 $153 reversed single #
loop $-1 $-1 $154 $60 #
plane-surface $-1 48.189318731464127 -155.70990348388429 116.40441042314549 1 0 0 0 0.71933980857756763 -0.69465836192734942 forward_v I I I I #
coedge $-1 $155 $156 $157 $158 reversed $61 $-1 #
face $-1 $-1 $159 $33 $-1 $160 forward single #
loop $-1 $161 $162 $63 #
cone-surface $-1 54.45574893945458 -32.128150853663861 6.0861587377352979 0 0.71933980857756763 -0.69465836192734942 0.75 0 0 1 I I -0.70710678118654757 0.70710678118654757 0.75 forward I I I I #
loop $-1 $-1 $163 $42 #
coedge $-1 $102 $102 $164 $165 reversed $64 $-1 #
face $-1 $-1 $166 $34 $-1 $167 forward single #
loop $-1 $168 $169 $66 #
cone-surface $-1 63.855394251440245 -32.128150853663861 6.0861587377352979 0 0.71933980857756763 -0.69465836192734942 0.75 0 0 1 I I -0.70710678118654757 0.70710678118654757 0.75 forward I I I I #
loop $-1 $-1 $170 $43 #
coedge $-1 $107 $107 $171 $172 reversed $67 $-1 #
face $-1 $-1 $173 $35 $-1 $174 forward single #
loop $-1 $175 $176 $69 #
cone-surface $-1 73.25503956342591 -32.128150853663861 6.0861587377352979 0 0.71933980857756763 -0.69465836192734942 0.75 0 0 1 I I -0.70710678118654757 0.70710678118654757 0.75 forward I I I I #
loop $-1 $-1 $177 $44 #
coedge $-1 $112 $112 $178 $179 reversed $70 $-1 #
face $-1 $180 $181 $27 $-1 $182 reversed single #
loop $-1 $-1 $183 $72 #
plane-surface $-1 0 -41.303985797529329 0 0 1 0 0 0 1 forward_v I I I I #
coedge $-1 $184 $185 $186 $187 forward $73 $-1 #
coedge $-1 $188 $75 $189 $190 forward $46 $-1 #
coedge $-1 $75 $188 $191 $192 forward $46 $-1 #
coedge $-1 $193 $194 $75 $120 reversed $195 $-1 #
edge $-1 $196 -41.303985797529329 $197 41.303985797529329 $119 $198 forward 7 unknown #
face $-1 $199 $200 $28 $-1 $201 reversed single #
loop $-1 $-1 $202 $76 #
plane-surface $-1 -67.293241310697667 0 2.8369739176183568 -1 0 0 0 0 1 forward_v I I I I #
coedge $-1 $203 $204 $205 $206 forward $77 $-1 #
coedge $-1 $207 $79 $208 $209 reversed $49 $-1 #
coedge $-1 $79 $207 $210 $211 reversed $49 $-1 #
coedge $-1 $202 $212 $79 $128 reversed $122 $-1 #
edge $-1 $213 -41.303985797529329 $214 41.303985797529329 $127 $215 forward 7 unknown #
face $-1 $216 $217 $29 $-1 $218 forward single #
loop $-1 $-1 $219 $80 #
plane-surface $-1 50.877117570611702 121.41668152972392 163.78523659938253 -1 0 0 0 0.80901700255871778 0.5877852410284794 forward_v I I I I #
coedge $-1 $220 $221 $222 $223 reversed $81 $-1 #
coedge $-1 $134 $83 $224 $225 reversed $52 $-1 #
coedge $-1 $83 $133 $220 $226 reversed $52 $-1 #
coedge $-1 $222 $227 $83 $136 forward $217 $-1 #
edge $-1 $228 19.40435496733263 $229 27.971145671482702 $135 $230 forward 7 unknown #
loop $-1 $-1 $142 $84 #
plane-surface $-1 32.536592114879667 -7.2517606973459863 70.30214404632072 0 0.80901700255871778 0.5877852410284794 1 0 0 forward_v I I I I #
loop $-1 $-1 $231 $54 #
coedge $-1 $140 $140 $141 $232 reversed $85 $-1 #
coedge $-1 $141 $141 $140 $232 forward $87 $-1 #
coedge $-1 $142 $142 $88 $143 forward $137 $-1 #
edge $-1 $233 -6.5112978031266002e-016 $233 6.2831853071795996 $142 $234 forward 7 unknown #
loop $-1 $-1 $149 $89 #
plane-surface $-1 32.536592114879667 -7.2517606973459863 70.30214404632072 0 0.80901700255871778 0.5877852410284794 1 0 0 forward_v I I I I #
loop $-1 $-1 $235 $57 #
coedge $-1 $147 $147 $148 $236 reversed $90 $-1 #
coedge $-1 $148 $148 $147 $236 forward $92 $-1 #
coedge $-1 $149 $149 $93 $150 forward $144 $-1 #
edge $-1 $237 -6.5112978031266002e-016 $237 6.2831853071795996 $149 $238 forward 7 unknown #
face $-1 $239 $240 $32 $-1 $241 forward single #
loop $-1 $-1 $242 $94 #
plane-surface $-1 0 -41.303985797529329 0 0 1 0 0 0 1 forward_v I I I I #
coedge $-1 $243 $244 $245 $246 reversed $95 $-1 #
coedge $-1 $247 $97 $248 $249 reversed $61 $-1 #
coedge $-1 $97 $247 $243 $250 forward $61 $-1 #
coedge $-1 $245 $251 $97 $158 forward $240 $-1 #
edge $-1 $252 -47.593772645696241 $253 -16.261621605744004 $157 $254 forward 7 unknown #
loop $-1 $-1 $164 $98 #
plane-surface $-1 63.855394251440245 -41.303985797529336 5.9239025642108487 0 -0.71933980857756763 0.69465836192734942 1 0 0 forward_v I I I I #
loop $-1 $-1 $255 $63 #
coedge $-1 $162 $162 $163 $256 reversed $99 $-1 #
coedge $-1 $163 $163 $162 $256 forward $101 $-1 #
coedge $-1 $164 $164 $102 $165 forward $159 $-1 #
edge $-1 $257 -1.7037389184261722e-015 $257 6.2831853071795987 $164 $258 forward 7 unknown #
loop $-1 $-1 $171 $103 #
plane-surface $-1 63.855394251440245 -41.303985797529336 5.9239025642108487 0 -0.71933980857756763 0.69465836192734942 1 0 0 forward_v I I I I #
loop $-1 $-1 $259 $66 #
coedge $-1 $169 $169 $170 $260 reversed $104 $-1 #
coedge $-1 $170 $170 $169 $260 forward $106 $-1 #
coedge $-1 $171 $171 $107 $172 forward $166 $-1 #
edge $-1 $261 -1.7037389184261722e-015 $261 6.2831853071795987 $171 $262 forward 7 unknown #
loop $-1 $-1 $178 $108 #
plane-surface $-1 63.855394251440245 -41.303985797529336 5.9239025642108487 0 -0.71933980857756763 0.69465836192734942 1 0 0 forward_v I I I I #
loop $-1 $-1 $263 $69 #
coedge $-1 $176 $176 $177 $264 reversed $109 $-1 #
coedge $-1 $177 $177 $176 $264 forward $111 $-1 #
coedge $-1 $178 $178 $112 $179 forward $173 $-1 #
edge $-1 $265 -1.7037389184261722e-015 $265 6.2831853071795987 $178 $266 forward 7 unknown #
face $-1 $267 $268 $27 $-1 $269 reversed single #
loop $-1 $-1 $270 $113 #
plane-surface $-1 -79.521469771416363 0 0 1 0 0 0 0 -1 forward_v I I I I #
coedge $-1 $271 $191 $272 $273 forward $114 $-1 #
coedge $-1 $274 $116 $271 $275 forward $73 $-1 #
coedge $-1 $116 $274 $276 $277 forward $73 $-1 #
coedge $-1 $194 $193 $116 $187 reversed $195 $-1 #
edge $-1 $278 -41.303985797529329 $279 41.303985797529329 $186 $280 forward 7 unknown #
coedge $-1 $118 $117 $281 $282 forward $46 $-1 #
coedge $-1 $283 $284 $117 $190 reversed $268 $-1 #
edge $-1 $197 -79.521469771416363 $285 79.521469771416363 $189 $286 forward 7 unknown #
coedge $-1 $183 $287 $118 $192 reversed $114 $-1 #
edge $-1 $288 -79.521469771416363 $196 79.521469771416363 $191 $289 forward 7 unknown #
coedge $-1 $186 $119 $287 $290 forward $195 $-1 #
coedge $-1 $119 $186 $283 $291 reversed $195 $-1 #
loop $-1 $-1 $193 $267 #
vertex $-1 $120 $292 #
vertex $-1 $120 $293 #
straight-curve $-1 79.521469771416363 0 15.262066665918946 0 1 0 I I #
face $-1 $294 $295 $28 $-1 $296 reversed single #
loop $-1 $-1 $297 $121 #
plane-surface $-1 0 -41.303985797529329 0 0 1 0 0 0 1 forward_v I I I I #
coedge $-1 $205 $127 $298 $299 reversed $122 $-1 #
coedge $-1 $300 $124 $297 $301 reversed $77 $-1 #
coedge $-1 $124 $300 $302 $303 reversed $77 $-1 #
coedge $-1 $212 $202 $124 $206 reversed $122 $-1 #
edge $-1 $304 -41.303985797529329 $305 41.303985797529329 $205 $306 forward 7 unknown #
coedge $-1 $126 $125 $307 $308 reversed $49 $-1 #
coedge $-1 $309 $310 $125 $209 forward $311 $-1 #
edge $-1 $312 -42.817792000887856 $214 -30.589563540169159 $208 $313 forward 7 unknown #
coedge $-1 $314 $298 $126 $211 forward $200 $-1 #
edge $-1 $213 30.589563540169159 $315 42.817792000887856 $210 $316 forward 7 unknown #
coedge $-1 $127 $205 $309 $317 reversed $122 $-1 #
vertex $-1 $211 $318 #
vertex $-1 $209 $319 #
straight-curve $-1 -67.293241310697667 0 6.3691826203069262 0 1 0 I I #
face $-1 $-1 $320 $29 $-1 $321 reversed single #
loop $-1 $-1 $135 $129 #
plane-surface $-1 0 0 15.262066665918946 0 0 1 1 0 0 forward_v I I I I #
coedge $-1 $322 $323 $324 $325 reversed $130 $-1 #
coedge $-1 $326 $132 $134 $226 forward $81 $-1 #
coedge $-1 $132 $326 $322 $327 forward $81 $-1 #
coedge $-1 $324 $135 $132 $223 forward $217 $-1 #
edge $-1 $229 -2.0722293982922011 $328 34.608821513171868 $222 $329 forward 7 unknown #
coedge $-1 $330 $331 $133 $225 forward $320 $-1 #
edge $-1 $332 -78.421727820660578 $228 -66.630551633772313 $224 $333 forward 7 unknown #
edge $-1 $229 68.033276440821169 $332 82.607971595058629 $134 $334 forward 7 unknown #
coedge $-1 $135 $324 $330 $335 forward $217 $-1 #
vertex $-1 $225 $336 #
vertex $-1 $136 $337 #
straight-curve $-1 14.196066659147633 60.708340764861958 15.262066665918951 0 -1 0 I I #
coedge $-1 $231 $231 $-1 $338 reversed $139 $-1 #
edge $-1 $339 0 $339 6.2831853071796004 $140 $340 forward 7 unknown #
vertex $-1 $143 $341 #
ellipse-curve $-1 24.676366919565936 37.020590445454296 9.366478572474815 0 0.80901700255871778 0.5877852410284794 2 0 0 1 I I #
coedge $-1 $235 $235 $-1 $342 reversed $146 $-1 #
edge $-1 $343 0 $343 6.2831853071796004 $147 $344 forward 7 unknown #
vertex $-1 $150 $345 #
ellipse-curve $-1 40.396817310193384 37.020590445454296 9.366478572474815 0 0.80901700255871778 0.5877852410284794 2 0 0 1 I I #
face $-1 $-1 $346 $32 $-1 $347 reversed single #
loop $-1 $-1 $245 $151 #
plane-surface $-1 0 0 15.262066665918946 0 0 1 1 0 0 forward_v I I I I #
coedge $-1 $348 $349 $244 $350 forward $152 $-1 #
coedge $-1 $244 $154 $156 $250 reversed $95 $-1 #
coedge $-1 $154 $243 $242 $350 reversed $95 $-1 #
coedge $-1 $351 $157 $154 $246 forward $240 $-1 #
edge $-1 $253 -45.56872598070008 $352 -36.550965944412816 $245 $353 forward 7 unknown #
coedge $-1 $156 $155 $348 $354 reversed $61 $-1 #
coedge $-1 $355 $356 $155 $249 forward $346 $-1 #
edge $-1 $357 -12.215430089305311 $252 0.76614550314452501 $248 $358 forward 7 unknown #
edge $-1 $359 1.0047061284303404e-014 $253 12.981575592449847 $243 $360 forward 7 unknown #
coedge $-1 $157 $351 $355 $361 forward $240 $-1 #
vertex $-1 $249 $362 #
vertex $-1 $158 $363 #
straight-curve $-1 31.927697125720123 -32.286225761242065 15.262066665918946 -1 0 0 I I #
coedge $-1 $255 $255 $-1 $364 reversed $161 $-1 #
edge $-1 $365 0 $365 6.2831853071796004 $162 $366 forward 7 unknown #
vertex $-1 $165 $367 #
ellipse-curve $-1 54.45574893945458 -36.795105779385693 10.5929846150649 0 -0.71933980857756763 0.69465836192734942 1.5 0 0 1 I I #
coedge $-1 $259 $259 $-1 $368 reversed $168 $-1 #
edge $-1 $369 0 $369 6.2831853071796004 $169 $370 forward 7 unknown #
vertex $-1 $172 $371 #
ellipse-curve $-1 63.855394251440245 -36.795105779385693 10.5929846150649 0 -0.71933980857756763 0.69465836192734942 1.5 0 0 1 I I #
coedge $-1 $263 $263 $-1 $372 reversed $175 $-1 #
edge $-1 $373 0 $373 6.2831853071796004 $176 $374 forward 7 unknown #
vertex $-1 $179 $375 #
ellipse-curve $-1 73.25503956342591 -36.795105779385693 10.5929846150649 0 -0.71933980857756763 0.69465836192734942 1.5 0 0 1 I I #
face $-1 $-1 $195 $27 $-1 $376 reversed single #
loop $-1 $-1 $283 $180 #
plane-surface $-1 0 41.303985797529329 0 0 -1 0 0 0 -1 forward_v I I I I #
coedge $-1 $377 $281 $284 $378 forward $181 $-1 #
coedge $-1 $287 $183 $184 $275 reversed $114 $-1 #
coedge $-1 $281 $377 $183 $273 reversed $181 $-1 #
edge $-1 $288 -15.262066665918946 $379 15.262066665918946 $272 $380 forward 7 unknown #
coedge $-1 $185 $184 $377 $381 forward $73 $-1 #
edge $-1 $279 -79.521469771416363 $379 79.521469771416363 $271 $382 forward 7 unknown #
coedge $-1 $284 $283 $185 $277 reversed $268 $-1 #
edge $-1 $383 -79.521469771416363 $278 79.521469771416363 $276 $384 forward 7 unknown #
vertex $-1 $187 $385 #
vertex $-1 $290 $386 #
straight-curve $-1 79.521469771416363 0 -15.262066665918946 0 -1 0 I I #
coedge $-1 $270 $272 $188 $282 reversed $181 $-1 #
edge $-1 $285 -41.303985797529329 $288 41.303985797529329 $281 $387 forward 7 unknown #
coedge $-1 $276 $189 $194 $291 forward $268 $-1 #
coedge $-1 $189 $276 $270 $378 reversed $268 $-1 #
vertex $-1 $190 $388 #
straight-curve $-1 0 41.303985797529329 15.262066665918946 -1 0 0 I I #
coedge $-1 $191 $271 $193 $290 reversed $114 $-1 #
vertex $-1 $282 $389 #
straight-curve $-1 0 -41.303985797529329 15.262066665918946 1 0 0 I I #
edge $-1 $196 -15.262066665918946 $279 15.262066665918946 $193 $390 forward 7 unknown #
edge $-1 $197 -15.262066665918946 $278 15.262066665918946 $194 $391 forward 7 unknown #
point $-1 79.521469771416363 -41.303985797529329 15.262066665918946 #
point $-1 79.521469771416363 41.303985797529329 15.262066665918946 #
face $-1 $-1 $311 $28 $-1 $392 reversed single #
loop $-1 $-1 $393 $199 #
plane-surface $-1 -79.521469771416363 0 0 1 0 0 0 0 -1 forward_v I I I I #
coedge $-1 $298 $314 $203 $301 forward $200 $-1 #
coedge $-1 $210 $297 $202 $299 forward $200 $-1 #
edge $-1 $305 -2.1137217438793909 $213 4.9506956614977478 $298 $394 forward 7 unknown #
coedge $-1 $204 $203 $393 $395 reversed $77 $-1 #
edge $-1 $396 -42.817792000887856 $305 -30.589563540169159 $297 $397 forward 7 unknown #
coedge $-1 $310 $309 $204 $303 forward $311 $-1 #
edge $-1 $304 30.589563540169159 $398 42.817792000887856 $302 $399 forward 7 unknown #
vertex $-1 $303 $400 #
vertex $-1 $301 $401 #
straight-curve $-1 -67.293241310697667 0 -0.69523478507021252 0 -1 0 I I #
coedge $-1 $402 $403 $207 $308 forward $295 $-1 #
edge $-1 $315 -41.303985797529329 $312 41.303985797529329 $307 $404 forward 7 unknown #
coedge $-1 $302 $208 $212 $317 forward $311 $-1 #
coedge $-1 $208 $302 $402 $405 reversed $311 $-1 #
loop $-1 $-1 $302 $294 #
vertex $-1 $405 $406 #
straight-curve $-1 -36.703677770528508 41.303985797529329 6.3691826203069262 1 0 0 I I #
coedge $-1 $297 $210 $403 $407 forward $200 $-1 #
vertex $-1 $407 $408 #
straight-curve $-1 -36.703677770528508 -41.303985797529329 6.3691826203069262 -1 0 0 I I #
edge $-1 $214 -4.9506956614977478 $304 2.1137217438793909 $309 $409 forward 7 unknown #
point $-1 -67.293241310697667 -41.303985797529329 6.3691826203069262 #
point $-1 -67.293241310697667 41.303985797529329 6.3691826203069262 #
loop $-1 $-1 $224 $216 #
plane-surface $-1 0 41.303985797529329 0 0 -1 0 0 0 -1 forward_v I I I I #
coedge $-1 $323 $219 $221 $327 reversed $130 $-1 #
coedge $-1 $219 $322 $410 $411 reversed $130 $-1 #
coedge $-1 $227 $222 $219 $325 forward $217 $-1 #
edge $-1 $328 -27.971145671482702 $412 -19.40435496733263 $324 $413 forward 7 unknown #
coedge $-1 $221 $220 $331 $414 reversed $81 $-1 #
edge $-1 $415 -82.607971595058629 $328 -68.033276440821169 $322 $416 forward 7 unknown #
vertex $-1 $223 $417 #
straight-curve $-1 16.268296057439834 32.737195093379256 15.262066665918944 1 0 0 I I #
coedge $-1 $410 $224 $227 $335 reversed $320 $-1 #
coedge $-1 $224 $410 $326 $414 forward $320 $-1 #
vertex $-1 $225 $418 #
straight-curve $-1 14.196066659147633 41.303985797529329 81.892618299691264 0 0 1 I I #
straight-curve $-1 14.196066659147633 -7.2517606973459863 70.30214404632072 0 0.5877852410284794 -0.80901700255871778 I I #
edge $-1 $412 -50.877117570611702 $228 -14.196066659147633 $330 $419 forward 7 unknown #
point $-1 14.196066659147633 41.303985797529329 15.262066665918946 #
point $-1 14.196066659147633 32.737195093379256 15.262066665918944 #
edge $-1 $420 1 $420 0 $231 $-1 forward 7 unknown #
vertex $-1 $232 $421 #
ellipse-curve $-1 24.676366919565936 33.329634003103514 6.684841826607645 0 0.80901700255871778 0.5877852410284794 2 0 0 1 I I #
point $-1 26.676366919565936 37.020590445454289 9.3664785724748114 #
edge $-1 $422 1 $422 0 $235 $-1 forward 7 unknown #
vertex $-1 $236 $423 #
ellipse-curve $-1 40.396817310193384 33.329634003103514 6.684841826607645 0 0.80901700255871778 0.5877852410284794 2 0 0 1 I I #
point $-1 42.396817310193384 37.020590445454289 9.3664785724748114 #
loop $-1 $-1 $248 $239 #
plane-surface $-1 79.521469771416363 0 0 -1 0 0 0 0 1 forward_v I I I I #
coedge $-1 $424 $242 $247 $354 forward $152 $-1 #
coedge $-1 $242 $424 $351 $425 reversed $152 $-1 #
edge $-1 $352 42.940138545653802 $359 52.27830264736189 $242 $426 forward 7 unknown #
coedge $-1 $251 $245 $349 $425 forward $240 $-1 #
vertex $-1 $425 $427 #
straight-curve $-1 48.189318731464127 -77.854951741942145 15.262066665918944 0 -1 0 I I #
edge $-1 $359 16.261621605744004 $357 47.593772645696241 $348 $428 forward 7 unknown #
coedge $-1 $356 $248 $251 $361 reversed $346 $-1 #
coedge $-1 $248 $355 $424 $429 forward $346 $-1 #
vertex $-1 $354 $430 #
straight-curve $-1 79.521469771416363 -32.818435141454444 14.710947706344397 0 0.69465836192734942 0.71933980857756763 I I #
vertex $-1 $354 $431 #
straight-curve $-1 48.189318731464127 -41.303985797529336 5.9239025642108487 0 0.69465836192734942 0.71933980857756763 I I #
edge $-1 $432 -41.303985797529329 $252 -32.286225761242065 $355 $433 forward 7 unknown #
point $-1 79.521469771416363 -32.286225761242065 15.262066665918946 #
point $-1 48.189318731464127 -32.286225761242065 15.262066665918946 #
edge $-1 $434 1 $434 0 $255 $-1 forward 7 unknown #
vertex $-1 $256 $435 #
ellipse-curve $-1 54.45574893945458 -32.667655710097037 6.6071525091808097 0 -0.71933980857756763 0.69465836192734942 1.5 0 0 1 I I #
point $-1 55.95574893945458 -36.795105779385693 10.592984615064896 #
edge $-1 $436 1 $436 0 $259 $-1 forward 7 unknown #
vertex $-1 $260 $437 #
ellipse-curve $-1 63.855394251440245 -32.667655710097037 6.6071525091808097 0 -0.71933980857756763 0.69465836192734942 1.5 0 0 1 I I #
point $-1 65.355394251440245 -36.795105779385693 10.592984615064896 #
edge $-1 $438 1 $438 0 $263 $-1 forward 7 unknown #
vertex $-1 $264 $439 #
ellipse-curve $-1 73.25503956342591 -32.667655710097037 6.6071525091808097 0 -0.71933980857756763 0.69465836192734942 1.5 0 0 1 I I #
point $-1 74.75503956342591 -36.795105779385693 10.592984615064896 #
plane-surface $-1 79.521469771416363 0 0 -1 0 0 0 0 1 forward_v I I I I #
coedge $-1 $272 $270 $274 $381 reversed $181 $-1 #
edge $-1 $285 -15.262066665918946 $383 15.262066665918946 $284 $440 forward 7 unknown #
vertex $-1 $381 $441 #
straight-curve $-1 -79.521469771416363 -41.303985797529329 0 0 0 -1 I I #
edge $-1 $379 -41.303985797529329 $383 41.303985797529329 $377 $442 forward 7 unknown #
straight-curve $-1 0 -41.303985797529329 -15.262066665918946 -1 0 0 I I #
vertex $-1 $277 $443 #
straight-curve $-1 0 41.303985797529329 -15.262066665918946 1 0 0 I I #
point $-1 79.521469771416363 41.303985797529329 -15.262066665918946 #
point $-1 79.521469771416363 -41.303985797529329 -15.262066665918946 #
straight-curve $-1 -79.521469771416363 0 15.262066665918946 0 -1 0 I I #
point $-1 -79.521469771416363 41.303985797529329 15.262066665918946 #
point $-1 -79.521469771416363 -41.303985797529329 15.262066665918946 #
straight-curve $-1 79.521469771416363 -41.303985797529329 0 0 0 -1 I I #
straight-curve $-1 79.521469771416363 41.303985797529329 0 0 0 -1 I I #
plane-surface $-1 0 41.303985797529329 0 0 -1 0 0 0 -1 forward_v I I I I #
coedge $-1 $403 $402 $300 $395 forward $295 $-1 #
straight-curve $-1 -67.293241310697667 -41.303985797529329 1.4184869588091784 0 0 1 I I #
edge $-1 $398 -41.303985797529329 $396 41.303985797529329 $393 $444 forward 7 unknown #
vertex $-1 $301 $445 #
straight-curve $-1 -36.703677770528508 -41.303985797529329 -0.69523478507021252 1 0 0 I I #
vertex $-1 $303 $446 #
straight-curve $-1 -36.703677770528508 41.303985797529329 -0.69523478507021252 -1 0 0 I I #
point $-1 -67.293241310697667 41.303985797529329 -0.69523478507021252 #
point $-1 -67.293241310697667 -41.303985797529329 -0.69523478507021252 #
coedge $-1 $393 $307 $310 $405 forward $295 $-1 #
coedge $-1 $307 $393 $314 $407 reversed $295 $-1 #
straight-curve $-1 -79.521469771416363 0 6.3691826203069262 0 1 0 I I #
edge $-1 $312 -6.3691826203069262 $398 0.69523478507021252 $310 $447 forward 7 unknown #
point $-1 -79.521469771416363 41.303985797529329 6.3691826203069262 #
edge $-1 $315 -6.3691826203069262 $396 0.69523478507021252 $403 $448 forward 7 unknown #
point $-1 -79.521469771416363 -41.303985797529329 6.3691826203069262 #
straight-curve $-1 -67.293241310697667 41.303985797529329 1.4184869588091784 0 0 -1 I I #
coedge $-1 $331 $330 $323 $411 forward $320 $-1 #
edge $-1 $412 66.630551633772313 $415 78.421727820660578 $410 $449 forward 7 unknown #
vertex $-1 $335 $450 #
straight-curve $-1 50.877117570611702 60.708340764861958 15.262066665918951 0 1 0 I I #
edge $-1 $415 -34.608821513171868 $332 2.0722293982922011 $331 $451 forward 7 unknown #
vertex $-1 $414 $452 #
straight-curve $-1 50.877117570611702 -7.2517606973459863 70.30214404632072 0 -0.5877852410284794 0.80901700255871778 I I #
point $-1 50.877117570611702 32.737195093379256 15.262066665918944 #
point $-1 14.196066659147633 41.303985797529329 3.470890479030686 #
straight-curve $-1 0 41.303985797529329 15.262066665918946 -1 0 0 I I #
vertex $-1 $338 $453 #
point $-1 26.676366919565936 33.329634003103514 6.684841826607645 #
vertex $-1 $342 $454 #
point $-1 42.396817310193384 33.329634003103514 6.684841826607645 #
coedge $-1 $349 $348 $356 $429 reversed $152 $-1 #
edge $-1 $352 48.189318731464127 $432 79.521469771416363 $349 $455 forward 7 unknown #
straight-curve $-1 48.189318731464127 -41.303985797529329 58.202205211572746 0 0 -1 I I #
point $-1 48.189318731464127 -41.303985797529329 15.262066665918946 #
straight-curve $-1 31.927697125720123 -41.303985797529329 5.9239025642108611 1 0 0 I I #
edge $-1 $432 -15.262066665918946 $357 -5.9239025642108558 $356 $456 forward 7 unknown #
point $-1 79.521469771416363 -41.303985797529329 5.9239025642108558 #
point $-1 48.189318731464127 -41.303985797529329 5.9239025642108558 #
vertex $-1 $361 $457 #
straight-curve $-1 79.521469771416363 0 15.262066665918946 0 1 0 I I #
vertex $-1 $364 $458 #
point $-1 55.95574893945458 -32.667655710097037 6.6071525091808097 #
vertex $-1 $368 $459 #
point $-1 65.355394251440245 -32.667655710097037 6.6071525091808097 #
vertex $-1 $372 $460 #
point $-1 74.75503956342591 -32.667655710097037 6.6071525091808097 #
straight-curve $-1 -79.521469771416363 41.303985797529329 0 0 0 -1 I I #
point $-1 -79.521469771416363 -41.303985797529329 -15.262066665918946 #
straight-curve $-1 -79.521469771416363 0 -15.262066665918946 0 1 0 I I #
point $-1 -79.521469771416363 41.303985797529329 -15.262066665918946 #
straight-curve $-1 -79.521469771416363 0 -0.69523478507021252 0 -1 0 I I #
point $-1 -79.521469771416363 -41.303985797529329 -0.69523478507021252 #
point $-1 -79.521469771416363 41.303985797529329 -0.69523478507021252 #
straight-curve $-1 -79.521469771416363 41.303985797529329 0 0 0 -1 I I #
straight-curve $-1 -79.521469771416363 -41.303985797529329 0 0 0 -1 I I #
straight-curve $-1 50.877117570611702 41.303985797529329 81.892618299691264 0 0 -1 I I #
point $-1 50.877117570611702 41.303985797529329 15.262066665918946 #
straight-curve $-1 16.268296057439834 41.303985797529336 3.470890479030686 -1 0 0 I I #
point $-1 50.877117570611702 41.303985797529329 3.470890479030686 #
point $-1 24.676366919565936 31.711599997986077 5.5092713445506867 #
point $-1 40.396817310193384 31.711599997986077 5.5092713445506867 #
straight-curve $-1 0 -41.303985797529329 15.262066665918946 1 0 0 I I #
straight-curve $-1 79.521469771416363 -41.303985797529329 0 0 0 -1 I I #
point $-1 79.521469771416363 -41.303985797529329 15.262066665918946 #
point $-1 54.45574893945458 -31.588645997230685 5.5651649662897862 #
point $-1 63.855394251440245 -31.588645997230685 5.5651649662897862 #
point $-1 73.25503956342591 -31.588645997230685 5.5651649662897862 #
End-of-ACIS-data 