500 0 14 0           
7 Unknown 11 ACIS 5.0 NT 24 Thu Mar 25 23:37:12 1999 
-1 9.9999999999999995e-007 1e-010 
body $-1 $14 $-1 $15 #
body $-1 $16 $-1 $17 #
body $-1 $18 $-1 $19 #
body $-1 $20 $-1 $21 #
body $-1 $22 $-1 $23 #
body $-1 $24 $-1 $25 #
body $-1 $26 $-1 $27 #
body $-1 $28 $-1 $29 #
body $-1 $30 $-1 $31 #
body $-1 $32 $-1 $33 #
body $-1 $34 $-1 $35 #
body $-1 $36 $-1 $37 #
body $-1 $38 $-1 $39 #
body $-1 $40 $-1 $41 #
lump $-1 $-1 $42 $0 #
transform $-1 1 0 0 0 1 0 0 0 1 69.867854853968936 37.653628616175951 16.816981352684923 1 rotate no_reflect no_shear #
lump $-1 $-1 $43 $1 #
transform $-1 1 0 0 0 1 0 0 0 1 69.867854853968936 37.653628616175951 16.816981352684923 1 rotate no_reflect no_shear #
lump $-1 $-1 $44 $2 #
transform $-1 1 0 0 0 1 0 0 0 1 69.867854853968936 37.653628616175951 16.816981352684923 1 rotate no_reflect no_shear #
lump $-1 $-1 $45 $3 #
transform $-1 1 0 0 0 1 0 0 0 1 69.867854853968936 37.653628616175951 16.816981352684923 1 rotate no_reflect no_shear #
lump $-1 $-1 $46 $4 #
transform $-1 1 0 0 0 1 0 0 0 1 69.867854853968936 37.653628616175951 16.816981352684923 1 rotate no_reflect no_shear #
lump $-1 $-1 $47 $5 #
transform $-1 1 0 0 0 1 0 0 0 1 69.867854853968936 37.653628616175951 16.816981352684923 1 rotate no_reflect no_shear #
lump $-1 $-1 $48 $6 #
transform $-1 1 0 0 0 1 0 0 0 1 69.867854853968936 37.653628616175951 16.816981352684923 1 rotate no_reflect no_shear #
lump $-1 $-1 $49 $7 #
transform $-1 1 0 0 0 1 0 0 0 1 69.867854853968936 37.653628616175951 16.816981352684923 1 rotate no_reflect no_shear #
lump $-1 $-1 $50 $8 #
transform $-1 1 0 0 0 1 0 0 0 1 69.867854853968936 37.653628616175951 16.816981352684923 1 rotate no_reflect no_shear #
lump $-1 $-1 $51 $9 #
transform $-1 1 0 0 0 1 0 0 0 1 69.867854853968936 37.653628616175951 16.816981352684923 1 rotate no_reflect no_shear #
lump $-1 $-1 $52 $10 #
transform $-1 1 0 0 0 1 0 0 0 1 69.867854853968936 37.653628616175951 16.816981352684923 1 rotate no_reflect no_shear #
lump $-1 $-1 $53 $11 #
transform $-1 1 0 0 0 1 0 0 0 1 69.867854853968936 37.653628616175951 16.816981352684923 1 rotate no_reflect no_shear #
lump $-1 $-1 $54 $12 #
transform $-1 1 0 0 0 1 0 0 0 1 69.867854853968936 37.653628616175951 16.816981352684923 1 rotate no_reflect no_shear #
lump $-1 $-1 $55 $13 #
transform $-1 1 0 0 0 1 0 0 0 1 69.867854853968936 37.653628616175951 16.816981352684923 1 rotate no_reflect no_shear #
shell $-1 $-1 $-1 $56 $-1 $14 #
shell $-1 $-1 $-1 $57 $-1 $16 #
shell $-1 $-1 $-1 $58 $-1 $18 #
shell $-1 $-1 $-1 $59 $-1 $20 #
shell $-1 $-1 $-1 $60 $-1 $22 #
shell $-1 $-1 $-1 $61 $-1 $24 #
shell $-1 $-1 $-1 $62 $-1 $26 #
shell $-1 $-1 $-1 $63 $-1 $28 #
shell $-1 $-1 $-1 $64 $-1 $30 #
shell $-1 $-1 $-1 $65 $-1 $32 #
shell $-1 $-1 $-1 $66 $-1 $34 #
shell $-1 $-1 $-1 $67 $-1 $36 #
shell $-1 $-1 $-1 $68 $-1 $38 #
shell $-1 $-1 $-1 $69 $-1 $40 #
face $-1 $70 $71 $42 $-1 $72 forward single #
face $-1 $73 $74 $43 $-1 $75 forward single #
face $-1 $76 $77 $44 $-1 $78 reversed single #
face $-1 $79 $80 $45 $-1 $81 forward single #
face $-1 $82 $83 $46 $-1 $84 forward single #
face $-1 $85 $86 $47 $-1 $87 reversed single #
face $-1 $88 $89 $48 $-1 $90 forward single #
face $-1 $91 $92 $49 $-1 $93 forward single #
face $-1 $94 $95 $50 $-1 $96 reversed single #
face $-1 $97 $98 $51 $-1 $99 forward single #
face $-1 $100 $101 $52 $-1 $102 forward single #
face $-1 $103 $104 $53 $-1 $105 reversed single #
face $-1 $106 $107 $54 $-1 $108 forward single #
face $-1 $109 $110 $55 $-1 $111 forward single #
face $-1 $112 $113 $42 $-1 $114 reversed single #
loop $-1 $-1 $115 $56 #
plane-surface $-1 0 0 16.816981352684923 0 0 1 1 0 0 forward_v I I I I #
face $-1 $116 $117 $43 $-1 $118 reversed single #
loop $-1 $-1 $119 $57 #
plane-surface $-1 -69.867854853968936 0 0 1 0 0 0 0 -1 forward_v I I I I #
face $-1 $120 $121 $44 $-1 $122 reversed single #
loop $-1 $-1 $123 $58 #
plane-surface $-1 -36.356739571462505 -111.70227406944096 121.50618356851147 -1 0 0 0 -0.52991927123019833 0.84804809178421925 forward_v I I I I #
face $-1 $124 $125 $45 $-1 $126 forward single #
loop $-1 $127 $128 $59 #
cone-surface $-1 -46.275098616452482 -25.60075129867549 8.3101914679032944 0 0.52991927123019833 -0.84804809178421925 1 0 0 1 I I 0 1 1 forward I I I I #
face $-1 $129 $130 $46 $-1 $131 forward single #
loop $-1 $132 $133 $60 #
cone-surface $-1 -40.324083189458491 -25.60075129867549 8.3101914679032944 0 0.52991927123019833 -0.84804809178421925 1 0 0 1 I I 0 1 1 forward I I I I #
face $-1 $134 $135 $47 $-1 $136 reversed single #
loop $-1 $-1 $137 $61 #
plane-surface $-1 -0.94854142965202293 -111.70227406944096 121.50618356851147 -1 0 0 0 -0.52991927123019833 0.84804809178421925 forward_v I I I I #
face $-1 $138 $139 $48 $-1 $140 forward single #
loop $-1 $141 $142 $62 #
cone-surface $-1 -10.866900474642001 -25.60075129867549 8.3101914679032944 0 0.52991927123019833 -0.84804809178421925 1 0 0 1 I I 0 1 1 forward I I I I #
face $-1 $143 $144 $49 $-1 $145 forward single #
loop $-1 $146 $147 $63 #
cone-surface $-1 -4.9158850476480183 -25.60075129867549 8.3101914679032944 0 0.52991927123019833 -0.84804809178421925 1 0 0 1 I I 0 1 1 forward I I I I #
face $-1 $148 $149 $50 $-1 $150 reversed single #
loop $-1 $-1 $151 $64 #
plane-surface $-1 34.459656712158456 -111.70227406944096 121.50618356851147 -1 0 0 0 -0.52991927123019833 0.84804809178421925 forward_v I I I I #
face $-1 $152 $153 $51 $-1 $154 forward single #
loop $-1 $155 $156 $65 #
cone-surface $-1 24.541297667168479 -25.60075129867549 8.3101914679032944 0 0.52991927123019833 -0.84804809178421925 1 0 0 1 I I 0 1 1 forward I I I I #
face $-1 $157 $158 $52 $-1 $159 forward single #
loop $-1 $160 $161 $66 #
cone-surface $-1 30.492313094162455 -25.60075129867549 8.3101914679032944 0 0.52991927123019833 -0.84804809178421925 1 0 0 1 I I 0 1 1 forward I I I I #
face $-1 $162 $163 $53 $-1 $164 reversed single #
loop $-1 $-1 $165 $67 #
plane-surface $-1 62.925003522475947 -37.653628616175979 3.0035815965811565 0 -0.52991927123019833 0.84804809178421925 1 0 0 forward_v I I I I #
face $-1 $166 $167 $54 $-1 $168 forward single #
loop $-1 $169 $170 $68 #
cone-surface $-1 59.949495808978952 -25.60075129867549 8.3101914679032944 0 0.52991927123019833 -0.84804809178421925 1 0 0 1 I I 0 1 1 forward I I I I #
face $-1 $171 $172 $55 $-1 $173 forward single #
loop $-1 $174 $175 $69 #
cone-surface $-1 65.900511235972942 -25.60075129867549 8.3101914679032944 0 0.52991927123019833 -0.84804809178421925 1 0 0 1 I I 0 1 1 forward I I I I #
face $-1 $176 $177 $42 $-1 $178 reversed single #
loop $-1 $-1 $179 $70 #
plane-surface $-1 0 0 -16.816981352684923 0 0 1 1 0 0 forward_v I I I I #
coedge $-1 $180 $181 $182 $183 forward $71 $-1 #
face $-1 $184 $185 $43 $-1 $186 reversed single #
loop $-1 $-1 $187 $73 #
plane-surface $-1 0 37.653628616175951 0 0 -1 0 0 0 -1 forward_v I I I I #
coedge $-1 $188 $189 $190 $191 forward $74 $-1 #
face $-1 $192 $193 $44 $-1 $194 reversed single #
loop $-1 $-1 $195 $76 #
plane-surface $-1 -43.299590902955487 -37.653628616175979 3.0035815965811565 0 -0.52991927123019833 0.84804809178421925 1 0 0 forward_v I I I I #
coedge $-1 $196 $197 $198 $199 reversed $77 $-1 #
face $-1 $-1 $200 $45 $-1 $201 forward single #
loop $-1 $202 $203 $79 #
cone-surface $-1 -46.275098616452482 -24.335944439201892 6.2860774152814436 0 0.52991927123019833 -0.84804809178421925 0.5 0 0 1 I I -0.70710678118654746 0.70710678118654746 0.5 forward I I I I #
loop $-1 $-1 $204 $59 #
coedge $-1 $128 $128 $205 $206 reversed $80 $-1 #
face $-1 $-1 $207 $46 $-1 $208 forward single #
loop $-1 $209 $210 $82 #
cone-surface $-1 -40.324083189458491 -24.335944439201892 6.2860774152814436 0 0.52991927123019833 -0.84804809178421925 0.5 0 0 1 I I -0.70710678118654746 0.70710678118654746 0.5 forward I I I I #
loop $-1 $-1 $211 $60 #
coedge $-1 $133 $133 $212 $213 reversed $83 $-1 #
face $-1 $214 $215 $47 $-1 $216 reversed single #
loop $-1 $-1 $217 $85 #
plane-surface $-1 -7.8913927611450063 -37.653628616175979 3.0035815965811565 0 -0.52991927123019833 0.84804809178421925 1 0 0 forward_v I I I I #
coedge $-1 $218 $219 $220 $221 reversed $86 $-1 #
face $-1 $-1 $222 $48 $-1 $223 forward single #
loop $-1 $224 $225 $88 #
cone-surface $-1 -10.866900474642001 -24.335944439201892 6.2860774152814436 0 0.52991927123019833 -0.84804809178421925 0.5 0 0 1 I I -0.70710678118654746 0.70710678118654746 0.5 forward I I I I #
loop $-1 $-1 $226 $62 #
coedge $-1 $142 $142 $227 $228 reversed $89 $-1 #
face $-1 $-1 $229 $49 $-1 $230 forward single #
loop $-1 $231 $232 $91 #
cone-surface $-1 -4.9158850476480183 -24.335944439201892 6.2860774152814436 0 0.52991927123019833 -0.84804809178421925 0.5 0 0 1 I I -0.70710678118654746 0.70710678118654746 0.5 forward I I I I #
loop $-1 $-1 $233 $63 #
coedge $-1 $147 $147 $234 $235 reversed $92 $-1 #
face $-1 $236 $237 $50 $-1 $238 reversed single #
loop $-1 $-1 $239 $94 #
plane-surface $-1 27.516805380665474 -37.653628616175979 3.0035815965811565 0 -0.52991927123019833 0.84804809178421925 1 0 0 forward_v I I I I #
coedge $-1 $240 $241 $242 $243 reversed $95 $-1 #
face $-1 $-1 $244 $51 $-1 $245 forward single #
loop $-1 $246 $247 $97 #
cone-surface $-1 24.541297667168479 -24.335944439201892 6.2860774152814436 0 0.52991927123019833 -0.84804809178421925 0.5 0 0 1 I I -0.70710678118654746 0.70710678118654746 0.5 forward I I I I #
loop $-1 $-1 $248 $65 #
coedge $-1 $156 $156 $249 $250 reversed $98 $-1 #
face $-1 $-1 $251 $52 $-1 $252 forward single #
loop $-1 $253 $254 $100 #
cone-surface $-1 30.492313094162455 -24.335944439201892 6.2860774152814436 0 0.52991927123019833 -0.84804809178421925 0.5 0 0 1 I I -0.70710678118654746 0.70710678118654746 0.5 forward I I I I #
loop $-1 $-1 $255 $66 #
coedge $-1 $161 $161 $256 $257 reversed $101 $-1 #
face $-1 $258 $259 $53 $-1 $260 reversed single #
loop $-1 $-1 $261 $103 #
plane-surface $-1 55.982152190982966 -111.70227406944096 121.50618356851147 1 0 0 0 0.52991927123019833 -0.84804809178421925 forward_v I I I I #
coedge $-1 $262 $263 $264 $265 reversed $104 $-1 #
face $-1 $-1 $266 $54 $-1 $267 forward single #
loop $-1 $268 $269 $106 #
cone-surface $-1 59.949495808978952 -24.335944439201892 6.2860774152814436 0 0.52991927123019833 -0.84804809178421925 0.5 0 0 1 I I -0.70710678118654746 0.70710678118654746 0.5 forward I I I I #
loop $-1 $-1 $270 $68 #
coedge $-1 $170 $170 $271 $272 reversed $107 $-1 #
face $-1 $-1 $273 $55 $-1 $274 forward single #
loop $-1 $275 $276 $109 #
cone-surface $-1 65.900511235972942 -24.335944439201892 6.2860774152814436 0 0.52991927123019833 -0.84804809178421925 0.5 0 0 1 I I -0.70710678118654746 0.70710678118654746 0.5 forward I I I I #
loop $-1 $-1 $277 $69 #
coedge $-1 $175 $175 $278 $279 reversed $110 $-1 #
face $-1 $280 $281 $42 $-1 $282 reversed single #
loop $-1 $-1 $283 $112 #
plane-surface $-1 0 -37.653628616175951 0 0 1 0 0 0 1 forward_v I I I I #
coedge $-1 $284 $285 $286 $287 forward $113 $-1 #
coedge $-1 $288 $115 $289 $290 forward $71 $-1 #
coedge $-1 $115 $288 $291 $292 forward $71 $-1 #
coedge $-1 $293 $294 $115 $183 reversed $295 $-1 #
edge $-1 $296 -37.653628616175951 $297 37.653628616175951 $182 $298 forward 7 unknown #
face $-1 $299 $300 $43 $-1 $301 reversed single #
loop $-1 $-1 $190 $116 #
plane-surface $-1 -79.680561163729166 0 7.4867823474967672 0 0 1 1 0 0 forward_v I I I I #
coedge $-1 $302 $303 $188 $304 forward $117 $-1 #
coedge $-1 $305 $119 $187 $304 reversed $74 $-1 #
coedge $-1 $119 $305 $306 $307 reversed $74 $-1 #
coedge $-1 $308 $309 $119 $191 reversed $185 $-1 #
edge $-1 $310 -37.653628616175951 $311 37.653628616175951 $190 $312 forward 7 unknown #
face $-1 $313 $314 $44 $-1 $315 reversed single #
loop $-1 $-1 $316 $120 #
plane-surface $-1 -50.242442234448468 -111.70227406944096 121.50618356851147 1 0 0 0 0.52991927123019833 -0.84804809178421925 forward_v I I I I #
coedge $-1 $317 $318 $319 $320 reversed $121 $-1 #
coedge $-1 $197 $123 $321 $322 reversed $77 $-1 #
coedge $-1 $123 $196 $317 $323 reversed $77 $-1 #
coedge $-1 $319 $324 $123 $199 forward $325 $-1 #
edge $-1 $326 18.19750841854453 $327 40.303568605828431 $198 $328 forward 7 unknown #
loop $-1 $-1 $205 $124 #
plane-surface $-1 -43.299590902955487 -37.653628616175979 3.0035815965811565 0 -0.52991927123019833 0.84804809178421925 1 0 0 forward_v I I I I #
loop $-1 $-1 $329 $79 #
coedge $-1 $203 $203 $204 $330 reversed $125 $-1 #
coedge $-1 $204 $204 $203 $330 forward $127 $-1 #
coedge $-1 $205 $205 $128 $206 forward $200 $-1 #
edge $-1 $331 1.5080103936493007e-015 $331 6.2831853071796022 $205 $332 forward 7 unknown #
loop $-1 $-1 $212 $129 #
plane-surface $-1 -43.299590902955487 -37.653628616175979 3.0035815965811565 0 -0.52991927123019833 0.84804809178421925 1 0 0 forward_v I I I I #
loop $-1 $-1 $333 $82 #
coedge $-1 $210 $210 $211 $334 reversed $130 $-1 #
coedge $-1 $211 $211 $210 $334 forward $132 $-1 #
coedge $-1 $212 $212 $133 $213 forward $207 $-1 #
edge $-1 $335 1.5080103936493007e-015 $335 6.2831853071796022 $212 $336 forward 7 unknown #
face $-1 $337 $338 $47 $-1 $339 reversed single #
loop $-1 $-1 $340 $134 #
plane-surface $-1 -14.83424409263799 -111.70227406944096 121.50618356851147 1 0 0 0 0.52991927123019833 -0.84804809178421925 forward_v I I I I #
coedge $-1 $341 $342 $343 $344 reversed $135 $-1 #
coedge $-1 $219 $137 $345 $346 reversed $86 $-1 #
coedge $-1 $137 $218 $341 $347 reversed $86 $-1 #
coedge $-1 $343 $348 $137 $221 forward $349 $-1 #
edge $-1 $350 18.19750841854453 $351 40.303568605828431 $220 $352 forward 7 unknown #
loop $-1 $-1 $227 $138 #
plane-surface $-1 -7.8913927611450063 -37.653628616175979 3.0035815965811565 0 -0.52991927123019833 0.84804809178421925 1 0 0 forward_v I I I I #
loop $-1 $-1 $353 $88 #
coedge $-1 $225 $225 $226 $354 reversed $139 $-1 #
coedge $-1 $226 $226 $225 $354 forward $141 $-1 #
coedge $-1 $227 $227 $142 $228 forward $222 $-1 #
edge $-1 $355 1.5080103936493007e-015 $355 6.2831853071796022 $227 $356 forward 7 unknown #
loop $-1 $-1 $234 $143 #
plane-surface $-1 -7.8913927611450063 -37.653628616175979 3.0035815965811565 0 -0.52991927123019833 0.84804809178421925 1 0 0 forward_v I I I I #
loop $-1 $-1 $357 $91 #
coedge $-1 $232 $232 $233 $358 reversed $144 $-1 #
coedge $-1 $233 $233 $232 $358 forward $146 $-1 #
coedge $-1 $234 $234 $147 $235 forward $229 $-1 #
edge $-1 $359 1.5080103936493007e-015 $359 6.2831853071796022 $234 $360 forward 7 unknown #
face $-1 $361 $362 $50 $-1 $363 reversed single #
loop $-1 $-1 $364 $148 #
plane-surface $-1 20.573954049172492 -111.70227406944096 121.50618356851147 1 0 0 0 0.52991927123019833 -0.84804809178421925 forward_v I I I I #
coedge $-1 $365 $366 $367 $368 reversed $149 $-1 #
coedge $-1 $241 $151 $369 $370 reversed $95 $-1 #
coedge $-1 $151 $240 $365 $371 reversed $95 $-1 #
coedge $-1 $367 $372 $151 $243 forward $373 $-1 #
edge $-1 $374 18.19750841854453 $375 40.303568605828431 $242 $376 forward 7 unknown #
loop $-1 $-1 $249 $152 #
plane-surface $-1 27.516805380665474 -37.653628616175979 3.0035815965811565 0 -0.52991927123019833 0.84804809178421925 1 0 0 forward_v I I I I #
loop $-1 $-1 $377 $97 #
coedge $-1 $247 $247 $248 $378 reversed $153 $-1 #
coedge $-1 $248 $248 $247 $378 forward $155 $-1 #
coedge $-1 $249 $249 $156 $250 forward $244 $-1 #
edge $-1 $379 1.5080103936493007e-015 $379 6.2831853071796022 $249 $380 forward 7 unknown #
loop $-1 $-1 $256 $157 #
plane-surface $-1 27.516805380665474 -37.653628616175979 3.0035815965811565 0 -0.52991927123019833 0.84804809178421925 1 0 0 forward_v I I I I #
loop $-1 $-1 $381 $100 #
coedge $-1 $254 $254 $255 $382 reversed $158 $-1 #
coedge $-1 $255 $255 $254 $382 forward $160 $-1 #
coedge $-1 $256 $256 $161 $257 forward $251 $-1 #
edge $-1 $383 1.5080103936493007e-015 $383 6.2831853071796022 $256 $384 forward 7 unknown #
face $-1 $385 $386 $53 $-1 $387 reversed single #
loop $-1 $-1 $388 $162 #
plane-surface $-1 0 -37.653628616175951 0 0 1 0 0 0 1 forward_v I I I I #
coedge $-1 $389 $390 $391 $392 reversed $163 $-1 #
coedge $-1 $393 $165 $394 $395 reversed $104 $-1 #
coedge $-1 $165 $393 $389 $396 forward $104 $-1 #
coedge $-1 $391 $397 $165 $265 forward $398 $-1 #
edge $-1 $399 -38.405353092730962 $400 -24.519650429744992 $264 $401 forward 7 unknown #
loop $-1 $-1 $271 $166 #
plane-surface $-1 62.925003522475947 -37.653628616175979 3.0035815965811565 0 -0.52991927123019833 0.84804809178421925 1 0 0 forward_v I I I I #
loop $-1 $-1 $402 $106 #
coedge $-1 $269 $269 $270 $403 reversed $167 $-1 #
coedge $-1 $270 $270 $269 $403 forward $169 $-1 #
coedge $-1 $271 $271 $170 $272 forward $266 $-1 #
edge $-1 $404 1.5080103936493007e-015 $404 6.2831853071796022 $271 $405 forward 7 unknown #
loop $-1 $-1 $278 $171 #
plane-surface $-1 62.925003522475947 -37.653628616175979 3.0035815965811565 0 -0.52991927123019833 0.84804809178421925 1 0 0 forward_v I I I I #
loop $-1 $-1 $406 $109 #
coedge $-1 $276 $276 $277 $407 reversed $172 $-1 #
coedge $-1 $277 $277 $276 $407 forward $174 $-1 #
coedge $-1 $278 $278 $175 $279 forward $273 $-1 #
edge $-1 $408 1.5080103936493007e-015 $408 6.2831853071796022 $278 $409 forward 7 unknown #
face $-1 $410 $411 $42 $-1 $412 reversed single #
loop $-1 $-1 $413 $176 #
plane-surface $-1 -69.867854853968936 0 0 1 0 0 0 0 -1 forward_v I I I I #
coedge $-1 $414 $291 $415 $416 forward $177 $-1 #
coedge $-1 $417 $179 $414 $418 forward $113 $-1 #
coedge $-1 $179 $417 $419 $420 forward $113 $-1 #
coedge $-1 $294 $293 $179 $287 reversed $295 $-1 #
edge $-1 $421 -37.653628616175951 $422 37.653628616175951 $286 $423 forward 7 unknown #
coedge $-1 $181 $180 $424 $425 forward $71 $-1 #
coedge $-1 $426 $427 $180 $290 reversed $411 $-1 #
edge $-1 $297 -69.867854853968936 $428 69.867854853968936 $289 $429 forward 7 unknown #
coedge $-1 $283 $430 $181 $292 reversed $177 $-1 #
edge $-1 $431 -69.867854853968936 $296 69.867854853968936 $291 $432 forward 7 unknown #
coedge $-1 $286 $182 $430 $433 forward $295 $-1 #
coedge $-1 $182 $286 $426 $434 reversed $295 $-1 #
loop $-1 $-1 $293 $410 #
vertex $-1 $183 $435 #
vertex $-1 $183 $436 #
straight-curve $-1 69.867854853968936 0 16.816981352684923 0 1 0 I I #
face $-1 $437 $438 $43 $-1 $439 forward single #
loop $-1 $-1 $440 $184 #
plane-surface $-1 -89.493267473489396 0 12.151881850090845 1 0 0 0 0 -1 forward_v I I I I #
coedge $-1 $441 $187 $309 $442 reversed $117 $-1 #
coedge $-1 $187 $441 $443 $444 reversed $117 $-1 #
edge $-1 $445 -16.816981352684923 $311 -7.4867823474967672 $187 $446 forward 7 unknown #
coedge $-1 $189 $188 $447 $448 reversed $74 $-1 #
coedge $-1 $449 $450 $189 $307 forward $451 $-1 #
edge $-1 $310 7.4867823474967672 $452 16.816981352684923 $306 $453 forward 7 unknown #
coedge $-1 $454 $190 $450 $455 forward $185 $-1 #
coedge $-1 $190 $454 $302 $442 forward $185 $-1 #
vertex $-1 $307 $456 #
vertex $-1 $304 $457 #
straight-curve $-1 -69.867854853968936 0 7.4867823474967672 0 1 0 I I #
face $-1 $-1 $325 $44 $-1 $458 forward single #
loop $-1 $-1 $459 $192 #
plane-surface $-1 0 -37.653628616175951 0 0 1 0 0 0 1 forward_v I I I I #
coedge $-1 $460 $461 $462 $463 reversed $193 $-1 #
coedge $-1 $464 $195 $197 $323 forward $121 $-1 #
coedge $-1 $195 $464 $460 $465 forward $121 $-1 #
coedge $-1 $462 $198 $195 $320 forward $325 $-1 #
edge $-1 $327 14.706944119984762 $466 28.592646782970725 $319 $467 forward 7 unknown #
coedge $-1 $468 $469 $196 $322 forward $314 $-1 #
edge $-1 $470 -57.749510187674559 $326 -43.93611043157081 $321 $471 forward 7 unknown #
edge $-1 $327 -26.066988890659143 $470 -3.3516233665497261e-014 $197 $472 forward 7 unknown #
coedge $-1 $198 $462 $468 $473 forward $325 $-1 #
loop $-1 $-1 $462 $313 #
vertex $-1 $322 $474 #
vertex $-1 $199 $475 #
straight-curve $-1 -36.356739571462505 -55.85113703472048 16.81698135268492 0 1 0 I I #
coedge $-1 $329 $329 $-1 $476 reversed $202 $-1 #
edge $-1 $477 0 $477 6.2831853071796004 $203 $478 forward 7 unknown #
vertex $-1 $206 $479 #
ellipse-curve $-1 -46.275098616452482 -26.600598522533996 9.9102814746330523 0 -0.52991927123019833 0.84804809178421925 1 0 0 1 I I #
coedge $-1 $333 $333 $-1 $480 reversed $209 $-1 #
edge $-1 $481 0 $481 6.2831853071796004 $210 $482 forward 7 unknown #
vertex $-1 $213 $483 #
ellipse-curve $-1 -40.324083189458491 -26.600598522533996 9.9102814746330523 0 -0.52991927123019833 0.84804809178421925 1 0 0 1 I I #
face $-1 $-1 $349 $47 $-1 $484 forward single #
loop $-1 $-1 $485 $214 #
plane-surface $-1 0 -37.653628616175951 0 0 1 0 0 0 1 forward_v I I I I #
coedge $-1 $486 $487 $488 $489 reversed $215 $-1 #
coedge $-1 $490 $217 $219 $347 forward $135 $-1 #
coedge $-1 $217 $490 $486 $491 forward $135 $-1 #
coedge $-1 $488 $220 $217 $344 forward $349 $-1 #
edge $-1 $351 -2.9971549509204802 $492 10.888547712065487 $343 $493 forward 7 unknown #
coedge $-1 $494 $495 $218 $346 forward $338 $-1 #
edge $-1 $496 -57.749510187674559 $350 -43.93611043157081 $345 $497 forward 7 unknown #
edge $-1 $351 -26.066988890659143 $496 -3.3516233665497261e-014 $219 $498 forward 7 unknown #
coedge $-1 $220 $488 $494 $499 forward $349 $-1 #
loop $-1 $-1 $488 $337 #
vertex $-1 $346 $500 #
vertex $-1 $221 $501 #
straight-curve $-1 -0.94854142965202293 -55.85113703472048 16.81698135268492 0 1 0 I I #
coedge $-1 $353 $353 $-1 $502 reversed $224 $-1 #
edge $-1 $503 0 $503 6.2831853071796004 $225 $504 forward 7 unknown #
vertex $-1 $228 $505 #
ellipse-curve $-1 -10.866900474642001 -26.600598522533996 9.9102814746330523 0 -0.52991927123019833 0.84804809178421925 1 0 0 1 I I #
coedge $-1 $357 $357 $-1 $506 reversed $231 $-1 #
edge $-1 $507 0 $507 6.2831853071796004 $232 $508 forward 7 unknown #
vertex $-1 $235 $509 #
ellipse-curve $-1 -4.9158850476480183 -26.600598522533996 9.9102814746330523 0 -0.52991927123019833 0.84804809178421925 1 0 0 1 I I #
face $-1 $-1 $373 $50 $-1 $510 forward single #
loop $-1 $-1 $511 $236 #
plane-surface $-1 0 -37.653628616175951 0 0 1 0 0 0 1 forward_v I I I I #
coedge $-1 $512 $513 $514 $515 reversed $237 $-1 #
coedge $-1 $516 $239 $241 $371 forward $149 $-1 #
coedge $-1 $239 $516 $512 $517 forward $149 $-1 #
coedge $-1 $514 $242 $239 $368 forward $373 $-1 #
edge $-1 $375 -20.701254021825719 $518 -6.8155513588397554 $367 $519 forward 7 unknown #
coedge $-1 $520 $521 $240 $370 forward $362 $-1 #
edge $-1 $522 -57.749510187674559 $374 -43.93611043157081 $369 $523 forward 7 unknown #
edge $-1 $375 -26.066988890659143 $522 -3.3516233665497261e-014 $241 $524 forward 7 unknown #
coedge $-1 $242 $514 $520 $525 forward $373 $-1 #
loop $-1 $-1 $514 $361 #
vertex $-1 $370 $526 #
vertex $-1 $243 $527 #
straight-curve $-1 34.459656712158456 -55.85113703472048 16.81698135268492 0 1 0 I I #
coedge $-1 $377 $377 $-1 $528 reversed $246 $-1 #
edge $-1 $529 0 $529 6.2831853071796004 $247 $530 forward 7 unknown #
vertex $-1 $250 $531 #
ellipse-curve $-1 24.541297667168479 -26.600598522533996 9.9102814746330523 0 -0.52991927123019833 0.84804809178421925 1 0 0 1 I I #
coedge $-1 $381 $381 $-1 $532 reversed $253 $-1 #
edge $-1 $533 0 $533 6.2831853071796004 $254 $534 forward 7 unknown #
vertex $-1 $257 $535 #
ellipse-curve $-1 30.492313094162455 -26.600598522533996 9.9102814746330523 0 -0.52991927123019833 0.84804809178421925 1 0 0 1 I I #
face $-1 $-1 $398 $53 $-1 $536 forward single #
loop $-1 $-1 $394 $258 #
plane-surface $-1 69.867854853968936 0 0 -1 0 0 0 0 1 forward_v I I I I #
coedge $-1 $537 $538 $390 $539 forward $259 $-1 #
coedge $-1 $390 $261 $263 $396 reversed $163 $-1 #
coedge $-1 $261 $389 $388 $539 reversed $163 $-1 #
coedge $-1 $540 $264 $261 $392 forward $398 $-1 #
edge $-1 $400 -40.303568605828431 $541 -18.19750841854453 $391 $542 forward 7 unknown #
coedge $-1 $263 $262 $537 $543 reversed $104 $-1 #
coedge $-1 $544 $545 $262 $395 forward $386 $-1 #
edge $-1 $546 -15.170216062979462 $399 10.896772827679648 $394 $547 forward 7 unknown #
edge $-1 $548 3.3516233665497261e-014 $400 26.066988890659143 $389 $549 forward 7 unknown #
coedge $-1 $264 $540 $544 $550 forward $398 $-1 #
loop $-1 $-1 $391 $385 #
vertex $-1 $395 $551 #
vertex $-1 $265 $552 #
straight-curve $-1 31.462501761237974 -15.547568428892054 16.816981352684923 -1 0 0 I I #
coedge $-1 $402 $402 $-1 $553 reversed $268 $-1 #
edge $-1 $554 0 $554 6.2831853071796004 $269 $555 forward 7 unknown #
vertex $-1 $272 $556 #
ellipse-curve $-1 59.949495808978952 -26.600598522533996 9.9102814746330523 0 -0.52991927123019833 0.84804809178421925 1 0 0 1 I I #
coedge $-1 $406 $406 $-1 $557 reversed $275 $-1 #
edge $-1 $558 0 $558 6.2831853071796004 $276 $559 forward 7 unknown #
vertex $-1 $279 $560 #
ellipse-curve $-1 65.900511235972942 -26.600598522533996 9.9102814746330523 0 -0.52991927123019833 0.84804809178421925 1 0 0 1 I I #
face $-1 $-1 $295 $42 $-1 $561 reversed single #
loop $-1 $-1 $426 $280 #
plane-surface $-1 0 37.653628616175951 0 0 -1 0 0 0 -1 forward_v I I I I #
coedge $-1 $562 $424 $427 $563 forward $281 $-1 #
coedge $-1 $430 $283 $284 $418 reversed $177 $-1 #
coedge $-1 $424 $562 $283 $416 reversed $281 $-1 #
edge $-1 $431 -16.816981352684923 $564 16.816981352684923 $415 $565 forward 7 unknown #
coedge $-1 $285 $284 $562 $566 forward $113 $-1 #
edge $-1 $422 -69.867854853968936 $564 69.867854853968936 $414 $567 forward 7 unknown #
coedge $-1 $427 $426 $285 $420 reversed $411 $-1 #
edge $-1 $568 -69.867854853968936 $421 69.867854853968936 $419 $569 forward 7 unknown #
vertex $-1 $287 $570 #
vertex $-1 $433 $571 #
straight-curve $-1 69.867854853968936 0 -16.816981352684923 0 -1 0 I I #
coedge $-1 $413 $415 $288 $425 reversed $281 $-1 #
edge $-1 $428 -37.653628616175951 $431 37.653628616175951 $424 $572 forward 7 unknown #
coedge $-1 $419 $289 $294 $434 forward $411 $-1 #
coedge $-1 $289 $419 $413 $563 reversed $411 $-1 #
vertex $-1 $290 $573 #
straight-curve $-1 0 37.653628616175951 16.816981352684923 -1 0 0 I I #
coedge $-1 $291 $414 $293 $433 reversed $177 $-1 #
vertex $-1 $425 $574 #
straight-curve $-1 0 -37.653628616175951 16.816981352684923 1 0 0 I I #
edge $-1 $296 -16.816981352684923 $422 16.816981352684923 $293 $575 forward 7 unknown #
edge $-1 $297 -16.816981352684923 $421 16.816981352684923 $294 $576 forward 7 unknown #
point $-1 69.867854853968936 -37.653628616175951 16.816981352684923 #
point $-1 69.867854853968936 37.653628616175951 16.816981352684923 #
face $-1 $-1 $451 $43 $-1 $577 reversed single #
loop $-1 $-1 $447 $299 #
plane-surface $-1 0 0 16.816981352684923 0 0 1 1 0 0 forward_v I I I I #
coedge $-1 $578 $579 $441 $580 forward $300 $-1 #
coedge $-1 $303 $302 $440 $580 reversed $117 $-1 #
edge $-1 $581 -9.8127063097602303 $311 9.8127063097602303 $302 $582 forward 7 unknown #
coedge $-1 $583 $447 $303 $444 forward $438 $-1 #
edge $-1 $445 69.867854853968936 $584 89.493267473489396 $303 $585 forward 7 unknown #
vertex $-1 $444 $586 #
straight-curve $-1 -69.867854853968936 37.653628616175951 0 0 0 -1 I I #
coedge $-1 $443 $587 $305 $448 forward $438 $-1 #
edge $-1 $452 -37.653628616175951 $445 37.653628616175951 $447 $588 forward 7 unknown #
coedge $-1 $589 $306 $587 $590 reversed $451 $-1 #
coedge $-1 $306 $589 $308 $455 reversed $451 $-1 #
loop $-1 $-1 $306 $437 #
vertex $-1 $307 $591 #
straight-curve $-1 -69.867854853968936 -37.653628616175951 0 0 0 1 I I #
coedge $-1 $309 $308 $578 $592 forward $185 $-1 #
edge $-1 $310 -9.8127063097602303 $593 9.8127063097602303 $450 $594 forward 7 unknown #
point $-1 -69.867854853968936 -37.653628616175951 7.4867823474967672 #
point $-1 -69.867854853968936 37.653628616175951 7.4867823474967672 #
plane-surface $-1 0 0 16.816981352684923 0 0 1 1 0 0 forward_v I I I I #
coedge $-1 $469 $468 $461 $595 forward $314 $-1 #
coedge $-1 $461 $316 $318 $465 reversed $193 $-1 #
coedge $-1 $316 $460 $459 $595 reversed $193 $-1 #
coedge $-1 $324 $319 $316 $463 forward $325 $-1 #
edge $-1 $466 -40.303568605828431 $596 -18.19750841854453 $462 $597 forward 7 unknown #
coedge $-1 $318 $317 $469 $598 reversed $121 $-1 #
edge $-1 $599 3.3516233665497261e-014 $466 26.066988890659143 $460 $600 forward 7 unknown #
vertex $-1 $320 $601 #
straight-curve $-1 -21.649795451477743 -15.547568428892054 16.816981352684923 -1 0 0 I I #
coedge $-1 $459 $321 $324 $473 reversed $314 $-1 #
coedge $-1 $321 $459 $464 $598 forward $314 $-1 #
vertex $-1 $322 $602 #
straight-curve $-1 -36.356739571462505 -37.653628616175951 60.753091784255737 0 0 1 I I #
straight-curve $-1 -36.356739571462505 -37.653628616175979 3.0035815965811565 0 -0.84804809178421925 -0.52991927123019833 I I #
edge $-1 $596 -50.242442234448468 $326 -36.356739571462505 $468 $603 forward 7 unknown #
point $-1 -36.356739571462505 -37.653628616175951 16.816981352684923 #
point $-1 -36.356739571462505 -15.547568428892053 16.816981352684923 #
edge $-1 $604 1 $604 0 $329 $-1 forward 7 unknown #
vertex $-1 $330 $605 #
ellipse-curve $-1 -46.275098616452482 -24.600904074816992 6.7101014611735534 0 -0.52991927123019833 0.84804809178421925 1 0 0 1 I I #
point $-1 -45.275098616452482 -26.600598522533986 9.9102814746330381 #
edge $-1 $606 1 $606 0 $333 $-1 forward 7 unknown #
vertex $-1 $334 $607 #
ellipse-curve $-1 -40.324083189458491 -24.600904074816992 6.7101014611735534 0 -0.52991927123019833 0.84804809178421925 1 0 0 1 I I #
point $-1 -39.324083189458491 -26.600598522533986 9.9102814746330381 #
plane-surface $-1 0 0 16.816981352684923 0 0 1 1 0 0 forward_v I I I I #
coedge $-1 $495 $494 $487 $608 forward $338 $-1 #
coedge $-1 $487 $340 $342 $491 reversed $215 $-1 #
coedge $-1 $340 $486 $485 $608 reversed $215 $-1 #
coedge $-1 $348 $343 $340 $489 forward $349 $-1 #
edge $-1 $492 -40.303568605828431 $609 -18.19750841854453 $488 $610 forward 7 unknown #
coedge $-1 $342 $341 $495 $611 reversed $135 $-1 #
edge $-1 $612 3.3516233665497261e-014 $492 26.066988890659143 $486 $613 forward 7 unknown #
vertex $-1 $344 $614 #
straight-curve $-1 -3.9456963805725032 -15.547568428892054 16.816981352684923 -1 0 0 I I #
coedge $-1 $485 $345 $348 $499 reversed $338 $-1 #
coedge $-1 $345 $485 $490 $611 forward $338 $-1 #
vertex $-1 $346 $615 #
straight-curve $-1 -0.94854142965202293 -37.653628616175951 60.753091784255737 0 0 1 I I #
straight-curve $-1 -0.94854142965202293 -37.653628616175979 3.0035815965811565 0 -0.84804809178421925 -0.52991927123019833 I I #
edge $-1 $609 -14.83424409263799 $350 -0.94854142965202293 $494 $616 forward 7 unknown #
point $-1 -0.94854142965202293 -37.653628616175951 16.816981352684923 #
point $-1 -0.94854142965202293 -15.547568428892053 16.816981352684923 #
edge $-1 $617 1 $617 0 $353 $-1 forward 7 unknown #
vertex $-1 $354 $618 #
ellipse-curve $-1 -10.866900474642001 -24.600904074816992 6.7101014611735534 0 -0.52991927123019833 0.84804809178421925 1 0 0 1 I I #
point $-1 -9.8669004746420015 -26.600598522533986 9.9102814746330381 #
edge $-1 $619 1 $619 0 $357 $-1 forward 7 unknown #
vertex $-1 $358 $620 #
ellipse-curve $-1 -4.9158850476480183 -24.600904074816992 6.7101014611735534 0 -0.52991927123019833 0.84804809178421925 1 0 0 1 I I #
point $-1 -3.9158850476480183 -26.600598522533986 9.9102814746330381 #
plane-surface $-1 0 0 16.816981352684923 0 0 1 1 0 0 forward_v I I I I #
coedge $-1 $521 $520 $513 $621 forward $362 $-1 #
coedge $-1 $513 $364 $366 $517 reversed $237 $-1 #
coedge $-1 $364 $512 $511 $621 reversed $237 $-1 #
coedge $-1 $372 $367 $364 $515 forward $373 $-1 #
edge $-1 $518 -40.303568605828431 $622 -18.19750841854453 $514 $623 forward 7 unknown #
coedge $-1 $366 $365 $521 $624 reversed $149 $-1 #
edge $-1 $625 3.3516233665497261e-014 $518 26.066988890659143 $512 $626 forward 7 unknown #
vertex $-1 $368 $627 #
straight-curve $-1 13.758402690332737 -15.547568428892054 16.816981352684923 -1 0 0 I I #
coedge $-1 $511 $369 $372 $525 reversed $362 $-1 #
coedge $-1 $369 $511 $516 $624 forward $362 $-1 #
vertex $-1 $370 $628 #
straight-curve $-1 34.459656712158456 -37.653628616175951 60.753091784255737 0 0 1 I I #
straight-curve $-1 34.459656712158456 -37.653628616175979 3.0035815965811565 0 -0.84804809178421925 -0.52991927123019833 I I #
edge $-1 $622 20.573954049172492 $374 34.459656712158456 $520 $629 forward 7 unknown #
point $-1 34.459656712158456 -37.653628616175951 16.816981352684923 #
point $-1 34.459656712158456 -15.547568428892053 16.816981352684923 #
edge $-1 $630 1 $630 0 $377 $-1 forward 7 unknown #
vertex $-1 $378 $631 #
ellipse-curve $-1 24.541297667168479 -24.600904074816992 6.7101014611735534 0 -0.52991927123019833 0.84804809178421925 1 0 0 1 I I #
point $-1 25.541297667168479 -26.600598522533986 9.9102814746330381 #
edge $-1 $632 1 $632 0 $381 $-1 forward 7 unknown #
vertex $-1 $382 $633 #
ellipse-curve $-1 30.492313094162455 -24.600904074816992 6.7101014611735534 0 -0.52991927123019833 0.84804809178421925 1 0 0 1 I I #
point $-1 31.492313094162455 -26.600598522533986 9.9102814746330381 #
plane-surface $-1 0 0 16.816981352684923 0 0 1 1 0 0 forward_v I I I I #
coedge $-1 $634 $388 $393 $543 forward $259 $-1 #
coedge $-1 $388 $634 $540 $635 reversed $259 $-1 #
edge $-1 $541 43.93611043157081 $548 57.749510187674559 $388 $636 forward 7 unknown #
coedge $-1 $397 $391 $538 $635 forward $398 $-1 #
vertex $-1 $635 $637 #
straight-curve $-1 55.982152190982966 -55.85113703472048 16.81698135268492 0 -1 0 I I #
edge $-1 $548 24.519650429744992 $546 38.405353092730962 $537 $638 forward 7 unknown #
coedge $-1 $545 $394 $397 $550 reversed $386 $-1 #
coedge $-1 $394 $544 $634 $639 forward $386 $-1 #
vertex $-1 $395 $640 #
straight-curve $-1 69.867854853968936 -24.788555832011909 11.042571437079898 0 0.84804809178421925 0.52991927123019833 I I #
vertex $-1 $543 $641 #
straight-curve $-1 55.982152190982966 -37.653628616175979 3.0035815965811565 0 0.84804809178421925 0.52991927123019833 I I #
edge $-1 $642 -37.653628616175951 $399 -15.547568428892053 $544 $643 forward 7 unknown #
point $-1 69.867854853968936 -15.547568428892053 16.816981352684923 #
point $-1 55.982152190982966 -15.547568428892053 16.816981352684923 #
edge $-1 $644 1 $644 0 $402 $-1 forward 7 unknown #
vertex $-1 $403 $645 #
ellipse-curve $-1 59.949495808978952 -24.600904074816992 6.7101014611735534 0 -0.52991927123019833 0.84804809178421925 1 0 0 1 I I #
point $-1 60.949495808978952 -26.600598522533986 9.9102814746330381 #
edge $-1 $646 1 $646 0 $406 $-1 forward 7 unknown #
vertex $-1 $407 $647 #
ellipse-curve $-1 65.900511235972942 -24.600904074816992 6.7101014611735534 0 -0.52991927123019833 0.84804809178421925 1 0 0 1 I I #
point $-1 66.900511235972942 -26.600598522533986 9.9102814746330381 #
plane-surface $-1 69.867854853968936 0 0 -1 0 0 0 0 1 forward_v I I I I #
coedge $-1 $415 $413 $417 $566 reversed $281 $-1 #
edge $-1 $428 -16.816981352684923 $568 16.816981352684923 $427 $648 forward 7 unknown #
vertex $-1 $566 $649 #
straight-curve $-1 -69.867854853968936 -37.653628616175951 0 0 0 -1 I I #
edge $-1 $564 -37.653628616175951 $568 37.653628616175951 $562 $650 forward 7 unknown #
straight-curve $-1 0 -37.653628616175951 -16.816981352684923 -1 0 0 I I #
vertex $-1 $420 $651 #
straight-curve $-1 0 37.653628616175951 -16.816981352684923 1 0 0 I I #
point $-1 69.867854853968936 37.653628616175951 -16.816981352684923 #
point $-1 69.867854853968936 -37.653628616175951 -16.816981352684923 #
straight-curve $-1 -69.867854853968936 0 16.816981352684923 0 -1 0 I I #
point $-1 -69.867854853968936 37.653628616175951 16.816981352684923 #
point $-1 -69.867854853968936 -37.653628616175951 16.816981352684923 #
straight-curve $-1 69.867854853968936 -37.653628616175951 0 0 0 -1 I I #
straight-curve $-1 69.867854853968936 37.653628616175951 0 0 0 -1 I I #
plane-surface $-1 0 -37.653628616175951 0 0 1 0 0 0 1 forward_v I I I I #
coedge $-1 $652 $440 $454 $592 reversed $300 $-1 #
coedge $-1 $440 $652 $583 $653 reversed $300 $-1 #
edge $-1 $584 -4.665099502594078 $581 4.665099502594078 $441 $654 forward 7 unknown #
vertex $-1 $442 $655 #
straight-curve $-1 -79.680561163729166 37.653628616175951 7.4867823474967672 1 0 0 I I #
coedge $-1 $587 $443 $579 $653 forward $438 $-1 #
vertex $-1 $444 $656 #
straight-curve $-1 0 37.653628616175951 16.816981352684923 -1 0 0 I I #
point $-1 -69.867854853968936 37.653628616175951 16.816981352684923 #
coedge $-1 $447 $583 $449 $590 forward $438 $-1 #
straight-curve $-1 -69.867854853968936 0 16.816981352684923 0 1 0 I I #
coedge $-1 $450 $449 $652 $657 forward $451 $-1 #
edge $-1 $658 -89.493267473489396 $452 -69.867854853968936 $449 $659 forward 7 unknown #
point $-1 -69.867854853968936 -37.653628616175951 16.816981352684923 #
edge $-1 $593 -37.653628616175951 $581 37.653628616175951 $578 $660 forward 7 unknown #
vertex $-1 $592 $661 #
straight-curve $-1 -79.680561163729166 -37.653628616175951 7.4867823474967672 -1 0 0 I I #
edge $-1 $596 43.93611043157081 $599 57.749510187674559 $459 $662 forward 7 unknown #
vertex $-1 $473 $663 #
straight-curve $-1 -50.242442234448468 -55.85113703472048 16.81698135268492 0 -1 0 I I #
edge $-1 $599 -28.592646782970725 $470 -14.706944119984762 $469 $664 forward 7 unknown #
vertex $-1 $598 $665 #
straight-curve $-1 -50.242442234448468 -37.653628616175979 3.0035815965811565 0 0.84804809178421925 0.52991927123019833 I I #
point $-1 -50.242442234448468 -15.547568428892053 16.816981352684923 #
point $-1 -36.356739571462505 -37.653628616175951 3.0035815965811743 #
straight-curve $-1 0 -37.653628616175951 16.816981352684923 1 0 0 I I #
vertex $-1 $476 $666 #
point $-1 -45.275098616452482 -24.600904074816992 6.7101014611735534 #
vertex $-1 $480 $667 #
point $-1 -39.324083189458491 -24.600904074816992 6.7101014611735534 #
edge $-1 $609 43.93611043157081 $612 57.749510187674559 $485 $668 forward 7 unknown #
vertex $-1 $499 $669 #
straight-curve $-1 -14.83424409263799 -55.85113703472048 16.81698135268492 0 -1 0 I I #
edge $-1 $612 -10.888547712065487 $496 2.9971549509204802 $495 $670 forward 7 unknown #
vertex $-1 $611 $671 #
straight-curve $-1 -14.83424409263799 -37.653628616175979 3.0035815965811565 0 0.84804809178421925 0.52991927123019833 I I #
point $-1 -14.83424409263799 -15.547568428892053 16.816981352684923 #
point $-1 -0.94854142965202293 -37.653628616175951 3.0035815965811743 #
straight-curve $-1 0 -37.653628616175951 16.816981352684923 1 0 0 I I #
vertex $-1 $502 $672 #
point $-1 -9.8669004746420015 -24.600904074816992 6.7101014611735534 #
vertex $-1 $506 $673 #
point $-1 -3.9158850476480183 -24.600904074816992 6.7101014611735534 #
edge $-1 $622 43.93611043157081 $625 57.749510187674559 $511 $674 forward 7 unknown #
vertex $-1 $525 $675 #
straight-curve $-1 20.573954049172492 -55.85113703472048 16.81698135268492 0 -1 0 I I #
edge $-1 $625 6.8155513588397554 $522 20.701254021825719 $521 $676 forward 7 unknown #
vertex $-1 $624 $677 #
straight-curve $-1 20.573954049172492 -37.653628616175979 3.0035815965811565 0 0.84804809178421925 0.52991927123019833 I I #
point $-1 20.573954049172492 -15.547568428892053 16.816981352684923 #
point $-1 34.459656712158456 -37.653628616175951 3.0035815965811743 #
straight-curve $-1 0 -37.653628616175951 16.816981352684923 1 0 0 I I #
vertex $-1 $528 $678 #
point $-1 25.541297667168479 -24.600904074816992 6.7101014611735534 #
vertex $-1 $532 $679 #
point $-1 31.492313094162455 -24.600904074816992 6.7101014611735534 #
coedge $-1 $538 $537 $545 $639 reversed $259 $-1 #
edge $-1 $541 55.982152190982966 $642 69.867854853968936 $538 $680 forward 7 unknown #
straight-curve $-1 55.982152190982966 -37.653628616175951 60.753091784255737 0 0 -1 I I #
point $-1 55.982152190982966 -37.653628616175951 16.816981352684923 #
straight-curve $-1 31.462501761237974 -37.653628616175951 3.0035815965811725 1 0 0 I I #
edge $-1 $642 -16.816981352684923 $546 -3.0035815965811743 $545 $681 forward 7 unknown #
point $-1 69.867854853968936 -37.653628616175951 3.0035815965811743 #
point $-1 55.982152190982966 -37.653628616175951 3.0035815965811743 #
vertex $-1 $550 $682 #
straight-curve $-1 69.867854853968936 0 16.816981352684923 0 1 0 I I #
vertex $-1 $553 $683 #
point $-1 60.949495808978952 -24.600904074816992 6.7101014611735534 #
vertex $-1 $557 $684 #
point $-1 66.900511235972942 -24.600904074816992 6.7101014611735534 #
straight-curve $-1 -69.867854853968936 37.653628616175951 0 0 0 -1 I I #
point $-1 -69.867854853968936 -37.653628616175951 -16.816981352684923 #
straight-curve $-1 -69.867854853968936 0 -16.816981352684923 0 1 0 I I #
point $-1 -69.867854853968936 37.653628616175951 -16.816981352684923 #
coedge $-1 $579 $578 $589 $657 reversed $300 $-1 #
edge $-1 $584 -37.653628616175951 $658 37.653628616175951 $579 $685 forward 7 unknown #
straight-curve $-1 -89.493267473489396 37.653628616175951 12.151881850090845 0 0 -1 I I #
point $-1 -89.493267473489396 37.653628616175951 7.4867823474967672 #
point $-1 -89.493267473489396 37.653628616175951 16.816981352684923 #
edge $-1 $658 -4.665099502594078 $593 4.665099502594078 $652 $686 forward 7 unknown #
vertex $-1 $653 $687 #
straight-curve $-1 0 -37.653628616175951 16.816981352684923 1 0 0 I I #
straight-curve $-1 -89.493267473489396 0 7.4867823474967672 0 1 0 I I #
point $-1 -89.493267473489396 -37.653628616175951 7.4867823474967672 #
straight-curve $-1 -50.242442234448468 -37.653628616175951 60.753091784255737 0 0 -1 I I #
point $-1 -50.242442234448468 -37.653628616175951 16.816981352684923 #
straight-curve $-1 -21.649795451477743 -37.653628616175951 3.0035815965811725 1 0 0 I I #
point $-1 -50.242442234448468 -37.653628616175951 3.0035815965811743 #
point $-1 -46.275098616452482 -24.070984803586793 5.8620533693893337 #
point $-1 -40.324083189458491 -24.070984803586793 5.8620533693893337 #
straight-curve $-1 -14.83424409263799 -37.653628616175951 60.753091784255737 0 0 -1 I I #
point $-1 -14.83424409263799 -37.653628616175951 16.816981352684923 #
straight-curve $-1 -3.9456963805725032 -37.653628616175951 3.0035815965811725 1 0 0 I I #
point $-1 -14.83424409263799 -37.653628616175951 3.0035815965811743 #
point $-1 -10.866900474642001 -24.070984803586793 5.8620533693893337 #
point $-1 -4.9158850476480183 -24.070984803586793 5.8620533693893337 #
straight-curve $-1 20.573954049172492 -37.653628616175951 60.753091784255737 0 0 -1 I I #
point $-1 20.573954049172492 -37.653628616175951 16.816981352684923 #
straight-curve $-1 13.758402690332737 -37.653628616175951 3.0035815965811725 1 0 0 I I #
point $-1 20.573954049172492 -37.653628616175951 3.0035815965811743 #
point $-1 24.541297667168479 -24.070984803586793 5.8620533693893337 #
point $-1 30.492313094162455 -24.070984803586793 5.8620533693893337 #
straight-curve $-1 0 -37.653628616175951 16.816981352684923 1 0 0 I I #
straight-curve $-1 69.867854853968936 -37.653628616175951 0 0 0 -1 I I #
point $-1 69.867854853968936 -37.653628616175951 16.816981352684923 #
point $-1 59.949495808978952 -24.070984803586793 5.8620533693893337 #
point $-1 65.900511235972942 -24.070984803586793 5.8620533693893337 #
straight-curve $-1 -89.493267473489396 0 16.816981352684923 0 -1 0 I I #
straight-curve $-1 -89.493267473489396 -37.653628616175951 12.151881850090845 0 0 -1 I I #
point $-1 -89.493267473489396 -37.653628616175951 16.816981352684923 #
End-of-ACIS-data 