500 0 8 0           
7 Unknown 11 ACIS 5.0 NT 24 Thu Mar 25 15:21:25 1999 
-1 9.9999999999999995e-007 1e-010 
body $-1 $8 $-1 $9 #
body $-1 $10 $-1 $11 #
body $-1 $12 $-1 $13 #
body $-1 $14 $-1 $15 #
body $-1 $16 $-1 $17 #
body $-1 $18 $-1 $19 #
body $-1 $20 $-1 $21 #
body $-1 $22 $-1 $23 #
lump $-1 $-1 $24 $0 #
transform $-1 1 0 0 0 1 0 0 0 1 74.122135074922937 35.704940337003194 17.377486694491168 1 rotate no_reflect no_shear #
lump $-1 $-1 $25 $1 #
transform $-1 1 0 0 0 1 0 0 0 1 74.122135074922937 35.704940337003194 17.377486694491168 1 rotate no_reflect no_shear #
lump $-1 $-1 $26 $2 #
transform $-1 1 0 0 0 1 0 0 0 1 74.122135074922937 35.704940337003194 17.377486694491168 1 rotate no_reflect no_shear #
lump $-1 $-1 $27 $3 #
transform $-1 1 0 0 0 1 0 0 0 1 74.122135074922937 35.704940337003194 17.377486694491168 1 rotate no_reflect no_shear #
lump $-1 $-1 $28 $4 #
transform $-1 1 0 0 0 1 0 0 0 1 74.122135074922937 35.704940337003194 17.377486694491168 1 rotate no_reflect no_shear #
lump $-1 $-1 $29 $5 #
transform $-1 1 0 0 0 1 0 0 0 1 74.122135074922937 35.704940337003194 17.377486694491168 1 rotate no_reflect no_shear #
lump $-1 $-1 $30 $6 #
transform $-1 1 0 0 0 1 0 0 0 1 74.122135074922937 35.704940337003194 17.377486694491168 1 rotate no_reflect no_shear #
lump $-1 $-1 $31 $7 #
transform $-1 1 0 0 0 1 0 0 0 1 74.122135074922937 35.704940337003194 17.377486694491168 1 rotate no_reflect no_shear #
shell $-1 $-1 $-1 $32 $-1 $8 #
shell $-1 $-1 $-1 $33 $-1 $10 #
shell $-1 $-1 $-1 $34 $-1 $12 #
shell $-1 $-1 $-1 $35 $-1 $14 #
shell $-1 $-1 $-1 $36 $-1 $16 #
shell $-1 $-1 $-1 $37 $-1 $18 #
shell $-1 $-1 $-1 $38 $-1 $20 #
shell $-1 $-1 $-1 $39 $-1 $22 #
face $-1 $40 $41 $24 $-1 $42 forward single #
face $-1 $43 $44 $25 $-1 $45 reversed single #
face $-1 $46 $47 $26 $-1 $48 reversed single #
face $-1 $49 $50 $27 $-1 $51 forward single #
face $-1 $52 $53 $28 $-1 $54 forward single #
face $-1 $55 $56 $29 $-1 $57 forward single #
face $-1 $58 $59 $30 $-1 $60 reversed single #
face $-1 $61 $62 $31 $-1 $63 forward single #
face $-1 $64 $65 $24 $-1 $66 reversed single #
loop $-1 $-1 $67 $32 #
plane-surface $-1 0 0 17.377486694491168 0 0 1 1 0 0 forward_v I I I I #
face $-1 $68 $69 $25 $-1 $70 reversed single #
loop $-1 $-1 $71 $33 #
plane-surface $-1 -62.864931629553531 0 9.4047486204238595 0 0 1 1 0 0 forward_v I I I I #
face $-1 $72 $73 $26 $-1 $74 reversed single #
loop $-1 $-1 $75 $34 #
plane-surface $-1 50.779967581044041 -138.68406467895647 109.99115518599915 -1 0 0 0 -0.69465837861970381 0.71933979245794832 forward_v I I I I #
face $-1 $76 $77 $27 $-1 $78 forward single #
loop $-1 $79 $80 $35 #
cone-surface $-1 39.718410227506837 -27.642546922923767 9.5357749315237399 0 0.69465837861970381 -0.71933979245794832 1 0 0 1 I I 0 1 1 forward I I I I #
face $-1 $81 $82 $28 $-1 $83 forward single #
loop $-1 $84 $85 $36 #
cone-surface $-1 43.866494235083294 -27.642546922923767 9.5357749315237399 0 0.69465837861970381 -0.71933979245794832 1 0 0 1 I I 0 1 1 forward I I I I #
face $-1 $86 $87 $29 $-1 $88 forward single #
loop $-1 $89 $90 $37 #
cone-surface $-1 48.014578242659752 -27.642546922923767 9.5357749315237399 0 0.69465837861970381 -0.71933979245794832 1 0 0 1 I I 0 1 1 forward I I I I #
face $-1 $91 $92 $30 $-1 $93 reversed single #
loop $-1 $-1 $94 $38 #
plane-surface $-1 -35.712399193308734 -22.790609029919395 43.066921949830544 0 0.57357644374324357 0.81915203911291934 1 0 0 forward_v I I I I #
face $-1 $95 $96 $31 $-1 $97 forward single #
loop $-1 $98 $99 $39 #
cone-surface $-1 -35.712399193308734 22.274082385295959 6.1334177877875975 0 -0.57357644374324357 -0.81915203911291934 3 0 0 1 I I 0 1 3 forward I I I I #
face $-1 $100 $101 $24 $-1 $102 reversed single #
loop $-1 $-1 $103 $40 #
plane-surface $-1 0 0 -17.377486694491168 0 0 1 1 0 0 forward_v I I I I #
coedge $-1 $104 $105 $106 $107 forward $41 $-1 #
face $-1 $108 $109 $25 $-1 $110 reversed single #
loop $-1 $-1 $111 $43 #
plane-surface $-1 -51.607728184184126 0 13.391117657457514 -1 0 0 0 0 1 forward_v I I I I #
coedge $-1 $112 $113 $114 $115 forward $44 $-1 #
face $-1 $116 $117 $26 $-1 $118 reversed single #
loop $-1 $-1 $119 $46 #
plane-surface $-1 43.86649423508328 -35.70494033700318 3.3531526633289985 0 -0.69465837861970381 0.71933979245794832 1 0 0 forward_v I I I I #
coedge $-1 $120 $121 $122 $123 reversed $47 $-1 #
face $-1 $-1 $124 $27 $-1 $125 forward single #
loop $-1 $126 $127 $49 #
cone-surface $-1 39.718410227506837 -26.494135664675571 8.3465602879084173 0 0.69465837861970381 -0.71933979245794832 0.5 0 0 1 I I -0.70710678118654746 0.70710678118654746 0.5 forward I I I I #
loop $-1 $-1 $128 $35 #
coedge $-1 $80 $80 $129 $130 reversed $50 $-1 #
face $-1 $-1 $131 $28 $-1 $132 forward single #
loop $-1 $133 $134 $52 #
cone-surface $-1 43.866494235083294 -26.494135664675571 8.3465602879084173 0 0.69465837861970381 -0.71933979245794832 0.5 0 0 1 I I -0.70710678118654746 0.70710678118654746 0.5 forward I I I I #
loop $-1 $-1 $135 $36 #
coedge $-1 $85 $85 $136 $137 reversed $53 $-1 #
face $-1 $-1 $138 $29 $-1 $139 forward single #
loop $-1 $140 $141 $55 #
cone-surface $-1 48.014578242659752 -26.494135664675571 8.3465602879084173 0 0.69465837861970381 -0.71933979245794832 0.5 0 0 1 I I -0.70710678118654746 0.70710678118654746 0.5 forward I I I I #
loop $-1 $-1 $142 $37 #
coedge $-1 $90 $90 $143 $144 reversed $56 $-1 #
face $-1 $145 $146 $30 $-1 $147 forward single #
loop $-1 $-1 $148 $58 #
plane-surface $-1 -19.817070202433342 62.23881224794188 164.50151812988327 -1 0 0 0 0.57357644374324357 0.81915203911291934 forward_v I I I I #
coedge $-1 $149 $150 $151 $152 reversed $59 $-1 #
face $-1 $-1 $153 $31 $-1 $154 forward single #
loop $-1 $155 $156 $61 #
cone-surface $-1 -35.712399193308734 18.886476926644477 1.2954158973079295 0 -0.57357644374324357 -0.81915203911291934 1.5 0 0 1 I I -0.70710678118654757 0.70710678118654757 1.5 forward I I I I #
loop $-1 $-1 $157 $39 #
coedge $-1 $99 $99 $158 $159 reversed $62 $-1 #
face $-1 $160 $161 $24 $-1 $162 reversed single #
loop $-1 $-1 $163 $64 #
plane-surface $-1 0 -35.704940337003194 0 0 1 0 0 0 1 forward_v I I I I #
coedge $-1 $164 $165 $166 $167 forward $65 $-1 #
coedge $-1 $168 $67 $169 $170 forward $41 $-1 #
coedge $-1 $67 $168 $171 $172 forward $41 $-1 #
coedge $-1 $173 $174 $67 $107 reversed $175 $-1 #
edge $-1 $176 -35.704940337003194 $177 35.704940337003194 $106 $178 forward 7 unknown #
face $-1 $179 $180 $25 $-1 $181 reversed single #
loop $-1 $-1 $182 $68 #
plane-surface $-1 0 35.704940337003194 0 0 -1 0 0 0 -1 forward_v I I I I #
coedge $-1 $183 $184 $185 $186 reversed $69 $-1 #
coedge $-1 $187 $71 $188 $189 reversed $44 $-1 #
coedge $-1 $71 $187 $190 $191 reversed $44 $-1 #
coedge $-1 $184 $183 $71 $115 reversed $69 $-1 #
edge $-1 $192 -35.704940337003194 $193 35.704940337003194 $114 $194 forward 7 unknown #
face $-1 $195 $196 $26 $-1 $197 reversed single #
loop $-1 $-1 $198 $72 #
plane-surface $-1 36.95302088912252 -138.68406467895647 109.99115518599915 1 0 0 0 0.69465837861970381 -0.71933979245794832 forward_v I I I I #
coedge $-1 $199 $200 $201 $202 reversed $73 $-1 #
coedge $-1 $121 $75 $203 $204 reversed $47 $-1 #
coedge $-1 $75 $120 $199 $205 reversed $47 $-1 #
coedge $-1 $201 $206 $75 $123 forward $207 $-1 #
edge $-1 $208 33.637092002475043 $209 48.159714692757234 $122 $210 forward 7 unknown #
loop $-1 $-1 $129 $76 #
plane-surface $-1 43.86649423508328 -35.70494033700318 3.3531526633289985 0 -0.69465837861970381 0.71933979245794832 1 0 0 forward_v I I I I #
loop $-1 $-1 $211 $49 #
coedge $-1 $127 $127 $128 $212 reversed $77 $-1 #
coedge $-1 $128 $128 $127 $212 forward $79 $-1 #
coedge $-1 $129 $129 $80 $130 forward $124 $-1 #
edge $-1 $213 -1.5847051481288678e-015 $213 6.2831853071795987 $129 $214 forward 7 unknown #
loop $-1 $-1 $136 $81 #
plane-surface $-1 43.86649423508328 -35.70494033700318 3.3531526633289985 0 -0.69465837861970381 0.71933979245794832 1 0 0 forward_v I I I I #
loop $-1 $-1 $215 $52 #
coedge $-1 $134 $134 $135 $216 reversed $82 $-1 #
coedge $-1 $135 $135 $134 $216 forward $84 $-1 #
coedge $-1 $136 $136 $85 $137 forward $131 $-1 #
edge $-1 $217 -1.5847051481288678e-015 $217 6.2831853071795987 $136 $218 forward 7 unknown #
loop $-1 $-1 $143 $86 #
plane-surface $-1 43.86649423508328 -35.70494033700318 3.3531526633289985 0 -0.69465837861970381 0.71933979245794832 1 0 0 forward_v I I I I #
loop $-1 $-1 $219 $55 #
coedge $-1 $141 $141 $142 $220 reversed $87 $-1 #
coedge $-1 $142 $142 $141 $220 forward $89 $-1 #
coedge $-1 $143 $143 $90 $144 forward $138 $-1 #
edge $-1 $221 -1.5847051481288678e-015 $221 6.2831853071795987 $143 $222 forward 7 unknown #
face $-1 $223 $224 $30 $-1 $225 reversed single #
loop $-1 $-1 $151 $91 #
plane-surface $-1 0 0 17.377486694491168 0 0 1 1 0 0 forward_v I I I I #
coedge $-1 $226 $227 $228 $229 reversed $92 $-1 #
coedge $-1 $230 $94 $231 $232 reversed $59 $-1 #
coedge $-1 $94 $230 $226 $233 forward $59 $-1 #
coedge $-1 $228 $234 $94 $152 forward $146 $-1 #
edge $-1 $235 -33.751528587529762 $236 -1.9608706057789753 $151 $237 forward 7 unknown #
loop $-1 $-1 $158 $95 #
plane-surface $-1 -35.712399193308734 -22.790609029919395 43.066921949830544 0 0.57357644374324357 0.81915203911291934 1 0 0 forward_v I I I I #
loop $-1 $-1 $238 $61 #
coedge $-1 $156 $156 $157 $239 reversed $96 $-1 #
coedge $-1 $157 $157 $156 $239 forward $98 $-1 #
coedge $-1 $158 $158 $99 $159 forward $153 $-1 #
edge $-1 $240 -8.2566762108754879e-016 $240 6.2831853071795996 $158 $241 forward 7 unknown #
face $-1 $242 $243 $24 $-1 $244 reversed single #
loop $-1 $-1 $245 $100 #
plane-surface $-1 -74.122135074922937 0 0 1 0 0 0 0 -1 forward_v I I I I #
coedge $-1 $246 $171 $247 $248 forward $101 $-1 #
coedge $-1 $249 $103 $246 $250 forward $65 $-1 #
coedge $-1 $103 $249 $251 $252 forward $65 $-1 #
coedge $-1 $174 $173 $103 $167 reversed $175 $-1 #
edge $-1 $253 -35.704940337003194 $254 35.704940337003194 $166 $255 forward 7 unknown #
coedge $-1 $105 $104 $256 $257 forward $41 $-1 #
coedge $-1 $258 $259 $104 $170 reversed $243 $-1 #
edge $-1 $177 -74.122135074922937 $260 74.122135074922937 $169 $261 forward 7 unknown #
coedge $-1 $163 $262 $105 $172 reversed $101 $-1 #
edge $-1 $263 -74.122135074922937 $176 74.122135074922937 $171 $264 forward 7 unknown #
coedge $-1 $166 $106 $262 $265 forward $175 $-1 #
coedge $-1 $106 $166 $258 $266 reversed $175 $-1 #
loop $-1 $-1 $173 $242 #
vertex $-1 $107 $267 #
vertex $-1 $107 $268 #
straight-curve $-1 74.122135074922937 0 17.377486694491168 0 1 0 I I #
face $-1 $269 $270 $25 $-1 $271 forward single #
loop $-1 $-1 $272 $108 #
plane-surface $-1 -74.122135074922937 0 0 1 0 0 0 0 -1 forward_v I I I I #
coedge $-1 $190 $273 $184 $274 forward $109 $-1 #
coedge $-1 $114 $111 $275 $276 reversed $69 $-1 #
coedge $-1 $111 $114 $182 $274 reversed $69 $-1 #
coedge $-1 $277 $278 $111 $186 forward $270 $-1 #
edge $-1 $279 -35.704940337003194 $280 35.704940337003194 $185 $281 forward 7 unknown #
coedge $-1 $113 $112 $272 $282 reversed $44 $-1 #
coedge $-1 $275 $283 $112 $189 forward $284 $-1 #
edge $-1 $285 -42.689669260146175 $193 -20.17526236940736 $188 $286 forward 7 unknown #
coedge $-1 $287 $182 $113 $191 forward $109 $-1 #
edge $-1 $192 20.17526236940736 $288 42.689669260146175 $190 $289 forward 7 unknown #
vertex $-1 $191 $290 #
vertex $-1 $189 $291 #
straight-curve $-1 -51.607728184184126 0 9.4047486204238595 0 -1 0 I I #
face $-1 $-1 $207 $26 $-1 $292 forward single #
loop $-1 $-1 $293 $116 #
plane-surface $-1 0 -35.704940337003194 0 0 1 0 0 0 1 forward_v I I I I #
coedge $-1 $294 $295 $296 $297 reversed $117 $-1 #
coedge $-1 $298 $119 $121 $205 forward $73 $-1 #
coedge $-1 $119 $298 $294 $299 forward $73 $-1 #
coedge $-1 $296 $122 $119 $202 forward $207 $-1 #
edge $-1 $209 -28.8467204635024 $300 -15.01977377158088 $201 $301 forward 7 unknown #
coedge $-1 $302 $303 $120 $204 forward $196 $-1 #
edge $-1 $304 -51.64242492967059 $208 -37.618090898508406 $203 $305 forward 7 unknown #
edge $-1 $209 -20.188821531280919 $304 1.9785632286268914e-014 $121 $306 forward 7 unknown #
coedge $-1 $122 $296 $302 $307 forward $207 $-1 #
loop $-1 $-1 $296 $195 #
vertex $-1 $204 $308 #
vertex $-1 $123 $309 #
straight-curve $-1 50.779967581044041 -69.342032339478237 17.377486694491168 0 1 0 I I #
coedge $-1 $211 $211 $-1 $310 reversed $126 $-1 #
edge $-1 $311 0 $311 6.2831853071796004 $127 $312 forward 7 unknown #
vertex $-1 $130 $313 #
ellipse-curve $-1 39.718410227506837 -28.443628991862099 10.365319678910076 0 -0.69465837861970381 0.71933979245794832 1 0 0 1 I I #
coedge $-1 $215 $215 $-1 $314 reversed $133 $-1 #
edge $-1 $315 0 $315 6.2831853071796004 $134 $316 forward 7 unknown #
vertex $-1 $137 $317 #
ellipse-curve $-1 43.866494235083294 -28.443628991862099 10.365319678910076 0 -0.69465837861970381 0.71933979245794832 1 0 0 1 I I #
coedge $-1 $219 $219 $-1 $318 reversed $140 $-1 #
edge $-1 $319 0 $319 6.2831853071796004 $141 $320 forward 7 unknown #
vertex $-1 $144 $321 #
ellipse-curve $-1 48.014578242659752 -28.443628991862099 10.365319678910076 0 -0.69465837861970381 0.71933979245794832 1 0 0 1 I I #
face $-1 $-1 $322 $30 $-1 $323 forward single #
loop $-1 $-1 $324 $145 #
plane-surface $-1 0 35.704940337003194 0 0 -1 0 0 0 -1 forward_v I I I I #
coedge $-1 $227 $148 $150 $233 reversed $92 $-1 #
coedge $-1 $148 $226 $324 $325 reversed $92 $-1 #
coedge $-1 $326 $151 $148 $229 forward $146 $-1 #
edge $-1 $236 -17.221700104309022 $327 4.5855342130322541 $228 $328 forward 7 unknown #
coedge $-1 $150 $149 $329 $330 reversed $59 $-1 #
coedge $-1 $331 $332 $149 $232 forward $322 $-1 #
edge $-1 $333 -53.564722598644593 $235 -26.943004924649809 $231 $334 forward 7 unknown #
edge $-1 $335 -71.409880674006388 $236 -44.7881630000116 $226 $336 forward 7 unknown #
coedge $-1 $151 $326 $331 $337 forward $146 $-1 #
vertex $-1 $232 $338 #
vertex $-1 $152 $339 #
straight-curve $-1 -17.856199596654367 13.897706019661904 17.377486694491168 1 0 0 I I #
coedge $-1 $238 $238 $-1 $340 reversed $155 $-1 #
edge $-1 $341 0 $341 6.2831853071796004 $156 $342 forward 7 unknown #
vertex $-1 $159 $343 #
ellipse-curve $-1 -35.712399193308734 24.801323178332563 9.742691619597867 0 0.57357644374324357 0.81915203911291934 3 0 0 1 I I #
face $-1 $-1 $175 $24 $-1 $344 reversed single #
loop $-1 $-1 $258 $160 #
plane-surface $-1 0 35.704940337003194 0 0 -1 0 0 0 -1 forward_v I I I I #
coedge $-1 $345 $256 $259 $346 forward $161 $-1 #
coedge $-1 $262 $163 $164 $250 reversed $101 $-1 #
coedge $-1 $256 $345 $163 $248 reversed $161 $-1 #
edge $-1 $263 -17.377486694491168 $347 17.377486694491168 $247 $348 forward 7 unknown #
coedge $-1 $165 $164 $345 $349 forward $65 $-1 #
edge $-1 $254 -74.122135074922937 $347 74.122135074922937 $246 $350 forward 7 unknown #
coedge $-1 $259 $258 $165 $252 reversed $243 $-1 #
edge $-1 $351 -74.122135074922937 $253 74.122135074922937 $251 $352 forward 7 unknown #
vertex $-1 $167 $353 #
vertex $-1 $265 $354 #
straight-curve $-1 74.122135074922937 0 -17.377486694491168 0 -1 0 I I #
coedge $-1 $245 $247 $168 $257 reversed $161 $-1 #
edge $-1 $260 -35.704940337003194 $263 35.704940337003194 $256 $355 forward 7 unknown #
coedge $-1 $251 $169 $174 $266 forward $243 $-1 #
coedge $-1 $169 $251 $245 $346 reversed $243 $-1 #
vertex $-1 $170 $356 #
straight-curve $-1 0 35.704940337003194 17.377486694491168 -1 0 0 I I #
coedge $-1 $171 $246 $173 $265 reversed $101 $-1 #
vertex $-1 $257 $357 #
straight-curve $-1 0 -35.704940337003194 17.377486694491168 1 0 0 I I #
edge $-1 $176 -17.377486694491168 $254 17.377486694491168 $173 $358 forward 7 unknown #
edge $-1 $177 -17.377486694491168 $253 17.377486694491168 $174 $359 forward 7 unknown #
point $-1 74.122135074922937 -35.704940337003194 17.377486694491168 #
point $-1 74.122135074922937 35.704940337003194 17.377486694491168 #
face $-1 $-1 $284 $25 $-1 $360 reversed single #
loop $-1 $-1 $185 $179 #
plane-surface $-1 0 0 17.377486694491168 0 0 1 1 0 0 forward_v I I I I #
coedge $-1 $361 $362 $187 $282 forward $180 $-1 #
coedge $-1 $182 $287 $277 $363 reversed $109 $-1 #
edge $-1 $280 -10.681927865762411 $192 -2.7091897916951027 $182 $364 forward 7 unknown #
coedge $-1 $365 $188 $183 $276 forward $284 $-1 #
edge $-1 $193 2.7091897916951027 $279 10.681927865762411 $275 $366 forward 7 unknown #
coedge $-1 $367 $185 $273 $363 forward $270 $-1 #
coedge $-1 $185 $367 $365 $368 forward $270 $-1 #
vertex $-1 $276 $369 #
vertex $-1 $363 $370 #
straight-curve $-1 -51.607728184184126 0 17.377486694491168 0 1 0 I I #
edge $-1 $288 -35.704940337003194 $285 35.704940337003194 $272 $371 forward 7 unknown #
coedge $-1 $188 $365 $361 $372 forward $284 $-1 #
loop $-1 $-1 $275 $269 #
vertex $-1 $282 $373 #
straight-curve $-1 -31.432465814776766 -35.704940337003194 9.4047486204238595 1 0 0 I I #
coedge $-1 $273 $190 $362 $374 reversed $109 $-1 #
vertex $-1 $282 $375 #
straight-curve $-1 -31.432465814776766 35.704940337003194 9.4047486204238595 -1 0 0 I I #
point $-1 -51.607728184184126 35.704940337003194 9.4047486204238595 #
point $-1 -51.607728184184126 -35.704940337003194 9.4047486204238595 #
plane-surface $-1 0 0 17.377486694491168 0 0 1 1 0 0 forward_v I I I I #
coedge $-1 $303 $302 $295 $376 forward $196 $-1 #
coedge $-1 $295 $198 $200 $299 reversed $117 $-1 #
coedge $-1 $198 $294 $293 $376 reversed $117 $-1 #
coedge $-1 $206 $201 $198 $297 forward $207 $-1 #
edge $-1 $300 -48.159714692757234 $377 -33.637092002475043 $296 $378 forward 7 unknown #
coedge $-1 $200 $199 $303 $379 reversed $73 $-1 #
edge $-1 $380 -1.9785632286268914e-014 $300 20.188821531280919 $294 $381 forward 7 unknown #
vertex $-1 $202 $382 #
straight-curve $-1 21.93324711754164 -21.182317646721003 17.377486694491168 -1 0 0 I I #
coedge $-1 $293 $203 $206 $307 reversed $196 $-1 #
coedge $-1 $203 $293 $298 $379 forward $196 $-1 #
vertex $-1 $204 $383 #
straight-curve $-1 50.779967581044041 -35.704940337003194 54.995577592999574 0 0 1 I I #
straight-curve $-1 50.779967581044041 -35.70494033700318 3.3531526633289985 0 -0.71933979245794832 -0.69465837861970381 I I #
edge $-1 $377 36.95302088912252 $208 50.779967581044041 $302 $384 forward 7 unknown #
point $-1 50.779967581044041 -35.704940337003194 17.377486694491168 #
point $-1 50.779967581044041 -21.182317646721003 17.377486694491168 #
edge $-1 $385 1 $385 0 $211 $-1 forward 7 unknown #
vertex $-1 $212 $386 #
ellipse-curve $-1 39.718410227506837 -26.841464853985425 8.7062301841373912 0 -0.69465837861970381 0.71933979245794832 1 0 0 1 I I #
point $-1 40.718410227506837 -28.443628991862113 10.365319678910089 #
edge $-1 $387 1 $387 0 $215 $-1 forward 7 unknown #
vertex $-1 $216 $388 #
ellipse-curve $-1 43.866494235083294 -26.841464853985425 8.7062301841373912 0 -0.69465837861970381 0.71933979245794832 1 0 0 1 I I #
point $-1 44.866494235083294 -28.443628991862113 10.365319678910089 #
edge $-1 $389 1 $389 0 $219 $-1 forward 7 unknown #
vertex $-1 $220 $390 #
ellipse-curve $-1 48.014578242659752 -26.841464853985425 8.7062301841373912 0 -0.69465837861970381 0.71933979245794832 1 0 0 1 I I #
point $-1 49.014578242659752 -28.443628991862113 10.365319678910089 #
loop $-1 $-1 $231 $223 #
plane-surface $-1 -51.607728184184126 0 13.391117657457514 -1 0 0 0 0 1 forward_v I I I I #
coedge $-1 $329 $391 $227 $325 forward $224 $-1 #
edge $-1 $327 64.873272370450465 $335 80.14286252023706 $324 $392 forward 7 unknown #
coedge $-1 $234 $228 $391 $393 forward $146 $-1 #
vertex $-1 $393 $394 #
straight-curve $-1 -19.817070202433342 31.11940612397094 17.377486694491168 0 1 0 I I #
coedge $-1 $395 $324 $230 $330 forward $224 $-1 #
edge $-1 $335 1.9608706057789753 $333 33.751528587529762 $329 $396 forward 7 unknown #
coedge $-1 $332 $231 $234 $337 reversed $322 $-1 #
coedge $-1 $231 $331 $395 $397 reversed $322 $-1 #
vertex $-1 $397 $398 #
straight-curve $-1 -51.607728184184126 -8.1727114041944002 32.831359642928504 0 -0.81915203911291934 0.57357644374324357 I I #
vertex $-1 $330 $399 #
straight-curve $-1 -19.817070202433342 -22.790609029919395 43.066921949830544 0 -0.81915203911291934 0.57357644374324357 I I #
edge $-1 $400 -35.704940337003194 $235 -13.897706019661918 $234 $401 forward 7 unknown #
point $-1 -51.607728184184126 13.897706019661918 17.377486694491168 #
point $-1 -19.817070202433342 13.897706019661918 17.377486694491168 #
edge $-1 $402 1 $402 0 $238 $-1 forward 7 unknown #
vertex $-1 $239 $403 #
ellipse-curve $-1 -35.712399193308734 19.746841592259344 2.5241439559773085 0 0.57357644374324357 0.81915203911291934 3 0 0 1 I I #
point $-1 -32.712399193308734 24.801323178332574 9.7426916195978865 #
plane-surface $-1 74.122135074922937 0 0 -1 0 0 0 0 1 forward_v I I I I #
coedge $-1 $247 $245 $249 $349 reversed $161 $-1 #
edge $-1 $260 -17.377486694491168 $351 17.377486694491168 $259 $404 forward 7 unknown #
vertex $-1 $349 $405 #
straight-curve $-1 -74.122135074922937 -35.704940337003194 0 0 0 -1 I I #
edge $-1 $347 -35.704940337003194 $351 35.704940337003194 $345 $406 forward 7 unknown #
straight-curve $-1 0 -35.704940337003194 -17.377486694491168 -1 0 0 I I #
vertex $-1 $252 $407 #
straight-curve $-1 0 35.704940337003194 -17.377486694491168 1 0 0 I I #
point $-1 74.122135074922937 35.704940337003194 -17.377486694491168 #
point $-1 74.122135074922937 -35.704940337003194 -17.377486694491168 #
straight-curve $-1 -74.122135074922937 0 17.377486694491168 0 -1 0 I I #
point $-1 -74.122135074922937 35.704940337003194 17.377486694491168 #
point $-1 -74.122135074922937 -35.704940337003194 17.377486694491168 #
straight-curve $-1 74.122135074922937 -35.704940337003194 0 0 0 -1 I I #
straight-curve $-1 74.122135074922937 35.704940337003194 0 0 0 -1 I I #
plane-surface $-1 0 -35.704940337003194 0 0 1 0 0 0 1 forward_v I I I I #
coedge $-1 $408 $272 $283 $372 reversed $180 $-1 #
coedge $-1 $272 $408 $287 $374 forward $180 $-1 #
edge $-1 $280 51.607728184184126 $409 74.122135074922937 $273 $410 forward 7 unknown #
straight-curve $-1 -51.607728184184126 35.704940337003194 6.6955588287287569 0 0 -1 I I #
coedge $-1 $283 $275 $278 $368 reversed $284 $-1 #
straight-curve $-1 -51.607728184184126 -35.704940337003194 6.6955588287287569 0 0 1 I I #
coedge $-1 $278 $277 $408 $411 forward $270 $-1 #
edge $-1 $412 -74.122135074922937 $279 -51.607728184184126 $365 $413 forward 7 unknown #
point $-1 -51.607728184184126 -35.704940337003194 17.377486694491168 #
point $-1 -51.607728184184126 35.704940337003194 17.377486694491168 #
straight-curve $-1 -74.122135074922937 0 9.4047486204238595 0 -1 0 I I #
edge $-1 $412 -17.377486694491168 $285 -9.4047486204238595 $361 $414 forward 7 unknown #
point $-1 -74.122135074922937 -35.704940337003194 9.4047486204238595 #
edge $-1 $409 -17.377486694491168 $288 -9.4047486204238595 $287 $415 forward 7 unknown #
point $-1 -74.122135074922937 35.704940337003194 9.4047486204238595 #
edge $-1 $377 37.618090898508406 $380 51.64242492967059 $293 $416 forward 7 unknown #
vertex $-1 $307 $417 #
straight-curve $-1 36.95302088912252 -69.342032339478237 17.377486694491168 0 -1 0 I I #
edge $-1 $380 15.01977377158088 $304 28.8467204635024 $303 $418 forward 7 unknown #
vertex $-1 $379 $419 #
straight-curve $-1 36.95302088912252 -35.70494033700318 3.3531526633289985 0 0.71933979245794832 0.69465837861970381 I I #
point $-1 36.95302088912252 -21.182317646721003 17.377486694491168 #
point $-1 50.779967581044041 -35.704940337003194 3.3531526633289848 #
straight-curve $-1 0 -35.704940337003194 17.377486694491168 1 0 0 I I #
vertex $-1 $310 $420 #
point $-1 40.718410227506837 -26.841464853985425 8.7062301841373912 #
vertex $-1 $314 $421 #
point $-1 44.866494235083294 -26.841464853985425 8.7062301841373912 #
vertex $-1 $318 $422 #
point $-1 49.014578242659752 -26.841464853985425 8.7062301841373912 #
coedge $-1 $324 $395 $326 $393 reversed $224 $-1 #
straight-curve $-1 -19.817070202433342 35.704940337003194 82.250759064941633 0 0 -1 I I #
edge $-1 $327 19.817070202433342 $400 51.607728184184126 $391 $423 forward 7 unknown #
point $-1 -19.817070202433342 35.704940337003194 17.377486694491168 #
coedge $-1 $391 $329 $332 $397 forward $224 $-1 #
straight-curve $-1 -17.856199596654367 35.704940337003194 2.1078965447045732 -1 0 0 I I #
edge $-1 $333 -80.14286252023706 $400 -64.873272370450465 $395 $424 forward 7 unknown #
point $-1 -51.607728184184126 35.704940337003187 2.1078965447045803 #
point $-1 -19.817070202433342 35.704940337003187 2.1078965447045803 #
vertex $-1 $337 $425 #
straight-curve $-1 -51.607728184184126 0 17.377486694491168 0 -1 0 I I #
vertex $-1 $340 $426 #
point $-1 -32.712399193308734 19.746841592259344 2.5241439559773085 #
straight-curve $-1 -74.122135074922937 35.704940337003194 0 0 0 -1 I I #
point $-1 -74.122135074922937 -35.704940337003194 -17.377486694491168 #
straight-curve $-1 -74.122135074922937 0 -17.377486694491168 0 1 0 I I #
point $-1 -74.122135074922937 35.704940337003194 -17.377486694491168 #
coedge $-1 $362 $361 $367 $411 reversed $180 $-1 #
vertex $-1 $363 $427 #
straight-curve $-1 0 35.704940337003194 17.377486694491168 -1 0 0 I I #
edge $-1 $409 -35.704940337003194 $412 35.704940337003194 $408 $428 forward 7 unknown #
vertex $-1 $411 $429 #
straight-curve $-1 0 -35.704940337003194 17.377486694491168 1 0 0 I I #
straight-curve $-1 -74.122135074922937 -35.704940337003194 0 0 0 -1 I I #
straight-curve $-1 -74.122135074922937 35.704940337003194 0 0 0 -1 I I #
straight-curve $-1 36.95302088912252 -35.704940337003194 54.995577592999574 0 0 -1 I I #
point $-1 36.95302088912252 -35.704940337003194 17.377486694491168 #
straight-curve $-1 21.93324711754164 -35.704940337003194 3.353152663328983 1 0 0 I I #
point $-1 36.95302088912252 -35.704940337003194 3.3531526633289848 #
point $-1 39.718410227506837 -26.146806475365718 7.9868903916794434 #
point $-1 43.866494235083294 -26.146806475365718 7.9868903916794434 #
point $-1 48.014578242659752 -26.146806475365718 7.9868903916794434 #
straight-curve $-1 0 35.704940337003194 17.377486694491168 -1 0 0 I I #
straight-curve $-1 -51.607728184184126 35.704940337003194 82.250759064941633 0 0 1 I I #
point $-1 -51.607728184184126 35.704940337003194 17.377486694491168 #
point $-1 -35.712399193308734 18.02611226102961 0.066687838638550545 #
point $-1 -74.122135074922937 35.704940337003194 17.377486694491168 #
straight-curve $-1 -74.122135074922937 0 17.377486694491168 0 -1 0 I I #
point $-1 -74.122135074922937 -35.704940337003194 17.377486694491168 #
End-of-ACIS-data 