500 0 5 0           
7 Unknown 11 ACIS 5.0 NT 24 Thu Mar 25 16:10:24 1999 
-1 9.9999999999999995e-007 1e-010 
body $-1 $5 $-1 $6 #
body $-1 $7 $-1 $8 #
body $-1 $9 $-1 $10 #
body $-1 $11 $-1 $12 #
body $-1 $13 $-1 $14 #
lump $-1 $-1 $15 $0 #
transform $-1 1 0 0 0 1 0 0 0 1 46.73970763267922 29.895183157947152 11.482461855963129 1 rotate no_reflect no_shear #
lump $-1 $-1 $16 $1 #
transform $-1 1 0 0 0 1 0 0 0 1 46.73970763267922 29.895183157947152 11.482461855963129 1 rotate no_reflect no_shear #
lump $-1 $-1 $17 $2 #
transform $-1 1 0 0 0 1 0 0 0 1 46.73970763267922 29.895183157947152 11.482461855963129 1 rotate no_reflect no_shear #
lump $-1 $-1 $18 $3 #
transform $-1 1 0 0 0 1 0 0 0 1 46.73970763267922 29.895183157947152 11.482461855963129 1 rotate no_reflect no_shear #
lump $-1 $-1 $19 $4 #
transform $-1 1 0 0 0 1 0 0 0 1 46.73970763267922 29.895183157947152 11.482461855963129 1 rotate no_reflect no_shear #
shell $-1 $-1 $-1 $20 $-1 $5 #
shell $-1 $-1 $-1 $21 $-1 $7 #
shell $-1 $-1 $-1 $22 $-1 $9 #
shell $-1 $-1 $-1 $23 $-1 $11 #
shell $-1 $-1 $-1 $24 $-1 $13 #
face $-1 $25 $26 $15 $-1 $27 forward single #
face $-1 $28 $29 $16 $-1 $30 forward single #
face $-1 $31 $32 $17 $-1 $33 reversed single #
face $-1 $34 $35 $18 $-1 $36 forward single #
face $-1 $37 $38 $19 $-1 $39 forward single #
face $-1 $40 $41 $15 $-1 $42 reversed single #
loop $-1 $-1 $43 $20 #
plane-surface $-1 0 0 11.482461855963129 0 0 1 1 0 0 forward_v I I I I #
face $-1 $44 $45 $16 $-1 $46 reversed single #
loop $-1 $-1 $47 $21 #
plane-surface $-1 -40.464905096196873 0 -6.8996395145856884 0 0 1 1 0 0 forward_v I I I I #
face $-1 $48 $49 $17 $-1 $50 reversed single #
loop $-1 $-1 $51 $22 #
plane-surface $-1 22.799743204084798 70.377724620700064 104.45576303467388 1 0 0 0 -0.80901700255871778 -0.5877852410284794 forward_v I I I I #
face $-1 $52 $53 $18 $-1 $54 forward single #
loop $-1 $55 $56 $23 #
cone-surface $-1 25.336568796563604 25.209824440895318 5.6364758687713366 0 -0.80901700255871778 -0.5877852410284794 1 0 0 1 I I 0 1 1 forward I I I I #
face $-1 $57 $58 $19 $-1 $59 forward single #
loop $-1 $60 $61 $24 #
cone-surface $-1 29.141807185281827 25.209824440895318 5.6364758687713366 0 -0.80901700255871778 -0.5877852410284794 1 0 0 1 I I 0 1 1 forward I I I I #
face $-1 $62 $63 $15 $-1 $64 reversed single #
loop $-1 $-1 $65 $25 #
plane-surface $-1 0 0 -11.482461855963129 0 0 1 1 0 0 forward_v I I I I #
coedge $-1 $66 $67 $68 $69 forward $26 $-1 #
face $-1 $70 $71 $16 $-1 $72 reversed single #
loop $-1 $-1 $73 $28 #
plane-surface $-1 -34.190102559714525 0 -9.1910506852744085 -1 0 0 0 0 1 forward_v I I I I #
coedge $-1 $74 $75 $76 $77 forward $29 $-1 #
face $-1 $78 $79 $17 $-1 $80 reversed single #
loop $-1 $-1 $81 $31 #
plane-surface $-1 27.239187990922723 -5.2487117182218554 49.509942401723862 0 0.80901700255871778 0.5877852410284794 1 0 0 forward_v I I I I #
coedge $-1 $82 $83 $84 $85 reversed $32 $-1 #
face $-1 $-1 $86 $18 $-1 $87 forward single #
loop $-1 $88 $89 $34 #
cone-surface $-1 25.336568796563604 23.877614140423439 4.6685684575712205 0 -0.80901700255871778 -0.5877852410284794 0.5 0 0 1 I I -0.70710678118654746 0.70710678118654746 0.5 forward I I I I #
loop $-1 $-1 $90 $23 #
coedge $-1 $56 $56 $91 $92 reversed $35 $-1 #
face $-1 $-1 $93 $19 $-1 $94 forward single #
loop $-1 $95 $96 $37 #
cone-surface $-1 29.141807185281827 23.877614140423439 4.6685684575712205 0 -0.80901700255871778 -0.5877852410284794 0.5 0 0 1 I I -0.70710678118654746 0.70710678118654746 0.5 forward I I I I #
loop $-1 $-1 $97 $24 #
coedge $-1 $61 $61 $98 $99 reversed $38 $-1 #
face $-1 $100 $101 $15 $-1 $102 reversed single #
loop $-1 $-1 $103 $40 #
plane-surface $-1 0 -29.895183157947152 0 0 1 0 0 0 1 forward_v I I I I #
coedge $-1 $104 $105 $106 $107 forward $41 $-1 #
coedge $-1 $108 $43 $109 $110 forward $26 $-1 #
coedge $-1 $43 $108 $111 $112 forward $26 $-1 #
coedge $-1 $113 $114 $43 $69 reversed $115 $-1 #
edge $-1 $116 -29.895183157947152 $117 29.895183157947152 $68 $118 forward 7 unknown #
face $-1 $119 $120 $16 $-1 $121 reversed single #
loop $-1 $-1 $122 $44 #
plane-surface $-1 0 0 -11.482461855963129 0 0 1 1 0 0 forward_v I I I I #
coedge $-1 $123 $76 $124 $125 reversed $45 $-1 #
coedge $-1 $126 $47 $127 $128 reversed $29 $-1 #
coedge $-1 $47 $126 $129 $130 reversed $29 $-1 #
coedge $-1 $73 $131 $47 $77 reversed $45 $-1 #
edge $-1 $132 -29.895183157947152 $133 29.895183157947152 $76 $134 forward 7 unknown #
face $-1 $135 $136 $17 $-1 $137 reversed single #
loop $-1 $-1 $138 $48 #
plane-surface $-1 31.678632777760647 70.377724620700064 104.45576303467388 -1 0 0 0 0.80901700255871778 0.5877852410284794 forward_v I I I I #
coedge $-1 $139 $140 $141 $142 reversed $49 $-1 #
coedge $-1 $83 $51 $143 $144 reversed $32 $-1 #
coedge $-1 $51 $82 $139 $145 reversed $32 $-1 #
coedge $-1 $141 $146 $51 $85 forward $147 $-1 #
edge $-1 $148 5.2936791524028806 $149 12.808992988121513 $84 $150 forward 7 unknown #
loop $-1 $-1 $91 $52 #
plane-surface $-1 27.239187990922723 -5.2487117182218554 49.509942401723862 0 0.80901700255871778 0.5877852410284794 1 0 0 forward_v I I I I #
loop $-1 $-1 $151 $34 #
coedge $-1 $89 $89 $90 $152 reversed $53 $-1 #
coedge $-1 $90 $90 $89 $152 forward $55 $-1 #
coedge $-1 $91 $91 $56 $92 forward $86 $-1 #
edge $-1 $153 8.5339476790408293e-016 $153 6.2831853071796013 $91 $154 forward 7 unknown #
loop $-1 $-1 $98 $57 #
plane-surface $-1 27.239187990922723 -5.2487117182218554 49.509942401723862 0 0.80901700255871778 0.5877852410284794 1 0 0 forward_v I I I I #
loop $-1 $-1 $155 $37 #
coedge $-1 $96 $96 $97 $156 reversed $58 $-1 #
coedge $-1 $97 $97 $96 $156 forward $60 $-1 #
coedge $-1 $98 $98 $61 $99 forward $93 $-1 #
edge $-1 $157 8.5339476790408293e-016 $157 6.2831853071796013 $98 $158 forward 7 unknown #
face $-1 $159 $160 $15 $-1 $161 reversed single #
loop $-1 $-1 $162 $62 #
plane-surface $-1 -46.73970763267922 0 0 1 0 0 0 0 -1 forward_v I I I I #
coedge $-1 $163 $111 $164 $165 forward $63 $-1 #
coedge $-1 $166 $65 $163 $167 forward $41 $-1 #
coedge $-1 $65 $166 $168 $169 forward $41 $-1 #
coedge $-1 $114 $113 $65 $107 reversed $115 $-1 #
edge $-1 $170 -29.895183157947152 $171 29.895183157947152 $106 $172 forward 7 unknown #
coedge $-1 $67 $66 $173 $174 forward $26 $-1 #
coedge $-1 $175 $176 $66 $110 reversed $160 $-1 #
edge $-1 $117 -46.73970763267922 $177 46.73970763267922 $109 $178 forward 7 unknown #
coedge $-1 $103 $179 $67 $112 reversed $63 $-1 #
edge $-1 $180 -46.73970763267922 $116 46.73970763267922 $111 $181 forward 7 unknown #
coedge $-1 $106 $68 $179 $182 forward $115 $-1 #
coedge $-1 $68 $106 $175 $183 reversed $115 $-1 #
loop $-1 $-1 $113 $159 #
vertex $-1 $69 $184 #
vertex $-1 $69 $185 #
straight-curve $-1 46.73970763267922 0 11.482461855963129 0 1 0 I I #
face $-1 $186 $187 $16 $-1 $188 reversed single #
loop $-1 $-1 $124 $70 #
plane-surface $-1 0 -29.895183157947152 0 0 1 0 0 0 1 forward_v I I I I #
coedge $-1 $189 $190 $123 $191 forward $71 $-1 #
coedge $-1 $131 $73 $122 $191 reversed $45 $-1 #
coedge $-1 $129 $192 $73 $125 forward $120 $-1 #
edge $-1 $193 -6.8869365133259244 $132 -2.3041141719484841 $124 $194 forward 7 unknown #
coedge $-1 $75 $74 $195 $196 reversed $29 $-1 #
coedge $-1 $197 $198 $74 $128 forward $199 $-1 #
edge $-1 $200 -26.507255084580784 $133 -13.957650011616089 $127 $201 forward 7 unknown #
coedge $-1 $202 $124 $75 $130 forward $120 $-1 #
edge $-1 $132 13.957650011616089 $203 26.507255084580784 $129 $204 forward 7 unknown #
coedge $-1 $76 $123 $197 $205 reversed $45 $-1 #
vertex $-1 $130 $206 #
vertex $-1 $128 $207 #
straight-curve $-1 -34.190102559714525 0 -6.8996395145856884 0 1 0 I I #
face $-1 $-1 $147 $17 $-1 $208 forward single #
loop $-1 $-1 $209 $78 #
plane-surface $-1 0 29.895183157947152 0 0 -1 0 0 0 -1 forward_v I I I I #
coedge $-1 $210 $211 $212 $213 reversed $79 $-1 #
coedge $-1 $214 $81 $83 $145 forward $49 $-1 #
coedge $-1 $81 $214 $210 $215 forward $49 $-1 #
coedge $-1 $212 $84 $81 $142 forward $147 $-1 #
edge $-1 $149 9.1801492086234369 $216 18.059038782299286 $141 $217 forward 7 unknown #
coedge $-1 $218 $219 $82 $144 forward $136 $-1 #
edge $-1 $220 -51.08936205438561 $148 -40.745419661373809 $143 $221 forward 7 unknown #
edge $-1 $149 47.004550492127301 $220 59.790366315894303 $83 $222 forward 7 unknown #
coedge $-1 $84 $212 $218 $223 forward $147 $-1 #
loop $-1 $-1 $212 $135 #
vertex $-1 $144 $224 #
vertex $-1 $85 $225 #
straight-curve $-1 22.799743204084798 35.188862310350032 11.48246185596313 0 -1 0 I I #
coedge $-1 $151 $151 $-1 $226 reversed $88 $-1 #
edge $-1 $227 0 $227 6.2831853071796004 $89 $228 forward 7 unknown #
vertex $-1 $92 $229 #
ellipse-curve $-1 25.336568796563604 26.137526240087844 6.3104906594572183 0 0.80901700255871778 0.5877852410284794 1 0 0 1 I I #
coedge $-1 $155 $155 $-1 $230 reversed $95 $-1 #
edge $-1 $231 0 $231 6.2831853071796004 $96 $232 forward 7 unknown #
vertex $-1 $99 $233 #
ellipse-curve $-1 29.141807185281827 26.137526240087844 6.3104906594572183 0 0.80901700255871778 0.5877852410284794 1 0 0 1 I I #
face $-1 $-1 $115 $15 $-1 $234 reversed single #
loop $-1 $-1 $175 $100 #
plane-surface $-1 0 29.895183157947152 0 0 -1 0 0 0 -1 forward_v I I I I #
coedge $-1 $235 $173 $176 $236 forward $101 $-1 #
coedge $-1 $179 $103 $104 $167 reversed $63 $-1 #
coedge $-1 $173 $235 $103 $165 reversed $101 $-1 #
edge $-1 $180 -11.482461855963129 $237 11.482461855963129 $164 $238 forward 7 unknown #
coedge $-1 $105 $104 $235 $239 forward $41 $-1 #
edge $-1 $171 -46.73970763267922 $237 46.73970763267922 $163 $240 forward 7 unknown #
coedge $-1 $176 $175 $105 $169 reversed $160 $-1 #
edge $-1 $241 -46.73970763267922 $170 46.73970763267922 $168 $242 forward 7 unknown #
vertex $-1 $107 $243 #
vertex $-1 $182 $244 #
straight-curve $-1 46.73970763267922 0 -11.482461855963129 0 -1 0 I I #
coedge $-1 $162 $164 $108 $174 reversed $101 $-1 #
edge $-1 $177 -29.895183157947152 $180 29.895183157947152 $173 $245 forward 7 unknown #
coedge $-1 $168 $109 $114 $183 forward $160 $-1 #
coedge $-1 $109 $168 $162 $236 reversed $160 $-1 #
vertex $-1 $110 $246 #
straight-curve $-1 0 29.895183157947152 11.482461855963129 -1 0 0 I I #
coedge $-1 $111 $163 $113 $182 reversed $63 $-1 #
vertex $-1 $174 $247 #
straight-curve $-1 0 -29.895183157947152 11.482461855963129 1 0 0 I I #
edge $-1 $116 -11.482461855963129 $171 11.482461855963129 $113 $248 forward 7 unknown #
edge $-1 $117 -11.482461855963129 $170 11.482461855963129 $114 $249 forward 7 unknown #
point $-1 46.73970763267922 -29.895183157947152 11.482461855963129 #
point $-1 46.73970763267922 29.895183157947152 11.482461855963129 #
face $-1 $-1 $199 $16 $-1 $250 reversed single #
loop $-1 $-1 $195 $119 #
plane-surface $-1 -46.73970763267922 0 0 1 0 0 0 0 -1 forward_v I I I I #
coedge $-1 $251 $122 $192 $252 forward $71 $-1 #
coedge $-1 $122 $251 $253 $254 forward $71 $-1 #
edge $-1 $255 -29.895183157947152 $193 29.895183157947152 $122 $256 forward 7 unknown #
coedge $-1 $124 $202 $189 $252 reversed $120 $-1 #
vertex $-1 $252 $257 #
straight-curve $-1 -34.190102559714525 -29.895183157947152 -4.5955253426372042 0 0 1 I I #
coedge $-1 $258 $259 $126 $196 forward $187 $-1 #
edge $-1 $203 -29.895183157947152 $200 29.895183157947152 $195 $260 forward 7 unknown #
coedge $-1 $253 $127 $131 $205 forward $199 $-1 #
coedge $-1 $127 $253 $258 $261 reversed $199 $-1 #
loop $-1 $-1 $197 $186 #
vertex $-1 $261 $262 #
straight-curve $-1 -20.232452548098436 29.895183157947152 -6.8996395145856884 1 0 0 I I #
coedge $-1 $192 $129 $259 $263 forward $120 $-1 #
vertex $-1 $263 $264 #
straight-curve $-1 -20.232452548098436 -29.895183157947152 -6.8996395145856884 -1 0 0 I I #
edge $-1 $133 2.3041141719484841 $255 6.8869365133259244 $197 $265 forward 7 unknown #
point $-1 -34.190102559714525 -29.895183157947152 -6.8996395145856884 #
point $-1 -34.190102559714525 29.895183157947152 -6.8996395145856884 #
plane-surface $-1 0 0 11.482461855963129 0 0 1 1 0 0 forward_v I I I I #
coedge $-1 $219 $218 $211 $266 forward $136 $-1 #
coedge $-1 $211 $138 $140 $215 reversed $79 $-1 #
coedge $-1 $138 $210 $209 $266 reversed $79 $-1 #
coedge $-1 $146 $141 $138 $213 forward $147 $-1 #
edge $-1 $216 -12.808992988121513 $267 -5.2936791524028806 $212 $268 forward 7 unknown #
coedge $-1 $140 $139 $219 $269 reversed $49 $-1 #
edge $-1 $270 -59.790366315894303 $216 -47.004550492127301 $210 $271 forward 7 unknown #
vertex $-1 $142 $272 #
straight-curve $-1 13.619593995461361 22.379869322228519 11.482461855963134 1 0 0 I I #
coedge $-1 $209 $143 $146 $223 reversed $136 $-1 #
coedge $-1 $143 $209 $214 $269 forward $136 $-1 #
vertex $-1 $144 $273 #
straight-curve $-1 22.799743204084798 29.895183157947152 52.22788151733694 0 0 1 I I #
straight-curve $-1 22.799743204084798 -5.2487117182218554 49.509942401723862 0 0.5877852410284794 -0.80901700255871778 I I #
edge $-1 $267 -31.678632777760647 $148 -22.799743204084798 $218 $274 forward 7 unknown #
point $-1 22.799743204084798 29.895183157947152 11.482461855963129 #
point $-1 22.799743204084798 22.379869322228519 11.48246185596313 #
edge $-1 $275 1 $275 0 $151 $-1 forward 7 unknown #
vertex $-1 $152 $276 #
ellipse-curve $-1 25.336568796563604 24.282122641702799 4.9624610780854601 0 0.80901700255871778 0.5877852410284794 1 0 0 1 I I #
point $-1 26.336568796563604 26.137526240087837 6.3104906594572121 #
edge $-1 $277 1 $277 0 $155 $-1 forward 7 unknown #
vertex $-1 $156 $278 #
ellipse-curve $-1 29.141807185281827 24.282122641702799 4.9624610780854601 0 0.80901700255871778 0.5877852410284794 1 0 0 1 I I #
point $-1 30.141807185281827 26.137526240087837 6.3104906594572121 #
plane-surface $-1 46.73970763267922 0 0 -1 0 0 0 0 1 forward_v I I I I #
coedge $-1 $164 $162 $166 $239 reversed $101 $-1 #
edge $-1 $177 -11.482461855963129 $241 11.482461855963129 $176 $279 forward 7 unknown #
vertex $-1 $239 $280 #
straight-curve $-1 -46.73970763267922 -29.895183157947152 0 0 0 -1 I I #
edge $-1 $237 -29.895183157947152 $241 29.895183157947152 $235 $281 forward 7 unknown #
straight-curve $-1 0 -29.895183157947152 -11.482461855963129 -1 0 0 I I #
vertex $-1 $169 $282 #
straight-curve $-1 0 29.895183157947152 -11.482461855963129 1 0 0 I I #
point $-1 46.73970763267922 29.895183157947152 -11.482461855963129 #
point $-1 46.73970763267922 -29.895183157947152 -11.482461855963129 #
straight-curve $-1 -46.73970763267922 0 11.482461855963129 0 -1 0 I I #
point $-1 -46.73970763267922 29.895183157947152 11.482461855963129 #
point $-1 -46.73970763267922 -29.895183157947152 11.482461855963129 #
straight-curve $-1 46.73970763267922 -29.895183157947152 0 0 0 -1 I I #
straight-curve $-1 46.73970763267922 29.895183157947152 0 0 0 -1 I I #
plane-surface $-1 0 29.895183157947152 0 0 -1 0 0 0 -1 forward_v I I I I #
coedge $-1 $190 $189 $283 $284 forward $71 $-1 #
edge $-1 $193 34.190102559714525 $285 46.73970763267922 $192 $286 forward 7 unknown #
coedge $-1 $198 $197 $190 $254 reversed $199 $-1 #
edge $-1 $287 -46.73970763267922 $255 -34.190102559714525 $253 $288 forward 7 unknown #
vertex $-1 $205 $289 #
straight-curve $-1 -34.190102559714525 0 -11.482461855963129 0 -1 0 I I #
point $-1 -34.190102559714525 -29.895183157947152 -11.482461855963129 #
coedge $-1 $283 $195 $198 $261 forward $187 $-1 #
coedge $-1 $195 $283 $202 $263 reversed $187 $-1 #
straight-curve $-1 -46.73970763267922 0 -6.8996395145856884 0 1 0 I I #
edge $-1 $200 6.8996395145856884 $287 11.482461855963129 $198 $290 forward 7 unknown #
point $-1 -46.73970763267922 29.895183157947152 -6.8996395145856884 #
edge $-1 $203 6.8996395145856884 $285 11.482461855963129 $259 $291 forward 7 unknown #
point $-1 -46.73970763267922 -29.895183157947152 -6.8996395145856884 #
straight-curve $-1 -34.190102559714525 29.895183157947152 -4.5955253426372042 0 0 -1 I I #
edge $-1 $267 40.745419661373809 $270 51.08936205438561 $209 $292 forward 7 unknown #
vertex $-1 $223 $293 #
straight-curve $-1 31.678632777760647 35.188862310350032 11.48246185596313 0 1 0 I I #
edge $-1 $270 -18.059038782299286 $220 -9.1801492086234369 $219 $294 forward 7 unknown #
vertex $-1 $269 $295 #
straight-curve $-1 31.678632777760647 -5.2487117182218554 49.509942401723862 0 -0.5877852410284794 0.80901700255871778 I I #
point $-1 31.678632777760647 22.379869322228519 11.48246185596313 #
point $-1 22.799743204084798 29.895183157947152 1.1385194629513293 #
straight-curve $-1 0 29.895183157947152 11.482461855963129 -1 0 0 I I #
vertex $-1 $226 $296 #
point $-1 26.336568796563604 24.282122641702799 4.9624610780854601 #
vertex $-1 $230 $297 #
point $-1 30.141807185281827 24.282122641702799 4.9624610780854601 #
straight-curve $-1 -46.73970763267922 29.895183157947152 0 0 0 -1 I I #
point $-1 -46.73970763267922 -29.895183157947152 -11.482461855963129 #
straight-curve $-1 -46.73970763267922 0 -11.482461855963129 0 1 0 I I #
point $-1 -46.73970763267922 29.895183157947152 -11.482461855963129 #
coedge $-1 $259 $258 $251 $284 reversed $187 $-1 #
edge $-1 $285 -29.895183157947152 $287 29.895183157947152 $283 $298 forward 7 unknown #
vertex $-1 $284 $299 #
straight-curve $-1 0 -29.895183157947152 -11.482461855963129 -1 0 0 I I #
vertex $-1 $254 $300 #
straight-curve $-1 0 29.895183157947152 -11.482461855963129 1 0 0 I I #
point $-1 -34.190102559714525 29.895183157947152 -11.482461855963129 #
straight-curve $-1 -46.73970763267922 29.895183157947152 0 0 0 -1 I I #
straight-curve $-1 -46.73970763267922 -29.895183157947152 0 0 0 -1 I I #
straight-curve $-1 31.678632777760647 29.895183157947152 52.22788151733694 0 0 -1 I I #
point $-1 31.678632777760647 29.895183157947152 11.482461855963129 #
straight-curve $-1 13.619593995461361 29.895183157947152 1.1385194629513293 -1 0 0 I I #
point $-1 31.678632777760647 29.895183157947152 1.1385194629513293 #
point $-1 25.336568796563604 23.47310563914408 4.3746758370569809 #
point $-1 29.141807185281827 23.47310563914408 4.3746758370569809 #
straight-curve $-1 -46.73970763267922 0 -11.482461855963129 0 1 0 I I #
point $-1 -46.73970763267922 -29.895183157947152 -11.482461855963129 #
point $-1 -46.73970763267922 29.895183157947152 -11.482461855963129 #
End-of-ACIS-data 