500 0 5 0           
7 Unknown 11 ACIS 5.0 NT 24 Fri Mar 26 18:14:04 1999 
-1 9.9999999999999995e-007 1e-010 
body $-1 $5 $-1 $6 #
body $-1 $7 $-1 $8 #
body $-1 $9 $-1 $10 #
body $-1 $11 $-1 $12 #
body $-1 $13 $-1 $14 #
lump $-1 $-1 $15 $0 #
transform $-1 1 0 0 0 1 0 0 0 1 62.977996154667807 41.406874469964194 12.741519656764488 1 rotate no_reflect no_shear #
lump $-1 $-1 $16 $1 #
transform $-1 1 0 0 0 1 0 0 0 1 62.977996154667807 41.406874469964194 12.741519656764488 1 rotate no_reflect no_shear #
lump $-1 $-1 $17 $2 #
transform $-1 1 0 0 0 1 0 0 0 1 62.977996154667807 41.406874469964194 12.741519656764488 1 rotate no_reflect no_shear #
lump $-1 $-1 $18 $3 #
transform $-1 1 0 0 0 1 0 0 0 1 62.977996154667807 41.406874469964194 12.741519656764488 1 rotate no_reflect no_shear #
lump $-1 $-1 $19 $4 #
transform $-1 1 0 0 0 1 0 0 0 1 62.977996154667807 41.406874469964194 12.741519656764488 1 rotate no_reflect no_shear #
shell $-1 $-1 $-1 $20 $-1 $5 #
shell $-1 $-1 $-1 $21 $-1 $7 #
shell $-1 $-1 $-1 $22 $-1 $9 #
shell $-1 $-1 $-1 $23 $-1 $11 #
shell $-1 $-1 $-1 $24 $-1 $13 #
face $-1 $25 $26 $15 $-1 $27 forward single #
face $-1 $28 $29 $16 $-1 $30 forward single #
face $-1 $31 $32 $17 $-1 $33 reversed single #
face $-1 $34 $35 $18 $-1 $36 forward single #
face $-1 $37 $38 $19 $-1 $39 forward single #
face $-1 $40 $41 $15 $-1 $42 reversed single #
loop $-1 $-1 $43 $20 #
plane-surface $-1 0 0 12.741519656764488 0 0 1 1 0 0 forward_v I I I I #
face $-1 $44 $45 $16 $-1 $46 reversed single #
loop $-1 $-1 $47 $21 #
plane-surface $-1 0 -41.406874469964194 0 0 1 0 0 0 1 forward_v I I I I #
face $-1 $48 $49 $17 $-1 $50 reversed single #
loop $-1 $-1 $51 $22 #
plane-surface $-1 -140.52424917840921 32.03514140058472 101.02091511798244 0 1 0 -0.61566148304635926 0 0.78801074757464917 forward_v I I I I #
face $-1 $52 $53 $18 $-1 $54 forward single #
loop $-1 $55 $56 $23 #
cone-surface $-1 -55.596900666851603 34.712779420407429 6.7966375650313751 0.61566148304635926 0 -0.78801074757464917 0.78801074757464917 0 0.61566148304635926 1 I I 0 1 1 forward I I I I #
face $-1 $57 $58 $19 $-1 $59 forward single #
loop $-1 $60 $61 $24 #
cone-surface $-1 -55.596900666851603 38.729236450141485 6.7966375650313751 0.61566148304635926 0 -0.78801074757464917 0.78801074757464917 0 0.61566148304635926 1 I I 0 1 1 forward I I I I #
face $-1 $62 $63 $15 $-1 $64 reversed single #
loop $-1 $-1 $65 $25 #
plane-surface $-1 0 0 -12.741519656764488 0 0 1 1 0 0 forward_v I I I I #
coedge $-1 $66 $67 $68 $69 forward $26 $-1 #
face $-1 $70 $71 $16 $-1 $72 forward single #
loop $-1 $-1 $73 $28 #
plane-surface $-1 -62.977996154667807 0 0 1 0 0 0 0 -1 forward_v I I I I #
coedge $-1 $74 $75 $76 $77 forward $29 $-1 #
face $-1 $78 $79 $17 $-1 $80 forward single #
loop $-1 $-1 $81 $31 #
plane-surface $-1 -62.977996154667807 36.721007935274457 1.7662394567961144 -0.61566148304635926 0 0.78801074757464917 0.78801074757464917 0 0.61566148304635926 forward_v I I I I #
coedge $-1 $82 $83 $84 $85 reversed $32 $-1 #
face $-1 $-1 $86 $18 $-1 $87 forward single #
loop $-1 $88 $89 $34 #
cone-surface $-1 -54.931833322125186 34.712779420407429 5.945390199495133 0.61566148304635926 0 -0.78801074757464917 0.39400537378732459 0 0.30783074152317963 1 I I -0.70710678118654746 0.70710678118654746 0.5 forward I I I I #
loop $-1 $-1 $90 $23 #
coedge $-1 $56 $56 $91 $92 reversed $35 $-1 #
face $-1 $-1 $93 $19 $-1 $94 forward single #
loop $-1 $95 $96 $37 #
cone-surface $-1 -54.931833322125186 38.729236450141485 5.945390199495133 0.61566148304635926 0 -0.78801074757464917 0.39400537378732459 0 0.30783074152317963 1 I I -0.70710678118654746 0.70710678118654746 0.5 forward I I I I #
loop $-1 $-1 $97 $24 #
coedge $-1 $61 $61 $98 $99 reversed $38 $-1 #
face $-1 $100 $101 $15 $-1 $102 reversed single #
loop $-1 $-1 $103 $40 #
plane-surface $-1 0 -41.406874469964194 0 0 1 0 0 0 1 forward_v I I I I #
coedge $-1 $104 $105 $106 $107 forward $41 $-1 #
coedge $-1 $108 $43 $109 $110 forward $26 $-1 #
coedge $-1 $43 $108 $111 $112 forward $26 $-1 #
coedge $-1 $113 $114 $43 $69 reversed $115 $-1 #
edge $-1 $116 -41.406874469964194 $117 41.406874469964194 $68 $118 forward 7 unknown #
face $-1 $119 $120 $16 $-1 $121 reversed single #
loop $-1 $-1 $122 $44 #
plane-surface $-1 0 -46.89838117258293 7.8225185630211129 0 0 1 1 0 0 forward_v I I I I #
coedge $-1 $123 $124 $75 $125 forward $45 $-1 #
coedge $-1 $126 $47 $127 $128 reversed $29 $-1 #
coedge $-1 $47 $126 $73 $125 reversed $29 $-1 #
coedge $-1 $129 $122 $47 $77 reversed $71 $-1 #
edge $-1 $130 -62.977996154667807 $131 62.977996154667807 $76 $132 forward 7 unknown #
face $-1 $133 $134 $17 $-1 $135 reversed single #
loop $-1 $-1 $84 $48 #
plane-surface $-1 0 0 12.741519656764488 0 0 1 1 0 0 forward_v I I I I #
coedge $-1 $136 $137 $138 $139 reversed $49 $-1 #
coedge $-1 $83 $51 $140 $141 reversed $32 $-1 #
coedge $-1 $51 $82 $136 $142 reversed $32 $-1 #
coedge $-1 $138 $143 $51 $85 forward $79 $-1 #
edge $-1 $144 7.2841284345367967 $145 21.331846203762716 $84 $146 forward 7 unknown #
loop $-1 $-1 $91 $52 #
plane-surface $-1 -62.977996154667807 36.721007935274457 1.7662394567961144 -0.61566148304635926 0 0.78801074757464917 0.78801074757464917 0 0.61566148304635926 forward_v I I I I #
loop $-1 $-1 $147 $34 #
coedge $-1 $89 $89 $90 $148 reversed $53 $-1 #
coedge $-1 $90 $90 $89 $148 forward $55 $-1 #
coedge $-1 $91 $91 $56 $92 forward $86 $-1 #
edge $-1 $149 0 $149 6.2831853071796004 $91 $150 forward 7 unknown #
loop $-1 $-1 $98 $57 #
plane-surface $-1 -62.977996154667807 36.721007935274457 1.7662394567961144 -0.61566148304635926 0 0.78801074757464917 0.78801074757464917 0 0.61566148304635926 forward_v I I I I #
loop $-1 $-1 $151 $37 #
coedge $-1 $96 $96 $97 $152 reversed $58 $-1 #
coedge $-1 $97 $97 $96 $152 forward $60 $-1 #
coedge $-1 $98 $98 $61 $99 forward $93 $-1 #
edge $-1 $153 0 $153 6.2831853071796004 $98 $154 forward 7 unknown #
face $-1 $155 $156 $15 $-1 $157 reversed single #
loop $-1 $-1 $158 $62 #
plane-surface $-1 -62.977996154667807 0 0 1 0 0 0 0 -1 forward_v I I I I #
coedge $-1 $159 $111 $160 $161 forward $63 $-1 #
coedge $-1 $162 $65 $159 $163 forward $41 $-1 #
coedge $-1 $65 $162 $164 $165 forward $41 $-1 #
coedge $-1 $114 $113 $65 $107 reversed $115 $-1 #
edge $-1 $166 -41.406874469964194 $167 41.406874469964194 $106 $168 forward 7 unknown #
coedge $-1 $67 $66 $169 $170 forward $26 $-1 #
coedge $-1 $171 $172 $66 $110 reversed $156 $-1 #
edge $-1 $117 -62.977996154667807 $173 62.977996154667807 $109 $174 forward 7 unknown #
coedge $-1 $103 $175 $67 $112 reversed $63 $-1 #
edge $-1 $176 -62.977996154667807 $116 62.977996154667807 $111 $177 forward 7 unknown #
coedge $-1 $106 $68 $175 $178 forward $115 $-1 #
coedge $-1 $68 $106 $171 $179 reversed $115 $-1 #
loop $-1 $-1 $113 $155 #
vertex $-1 $69 $180 #
vertex $-1 $69 $181 #
straight-curve $-1 62.977996154667807 0 12.741519656764488 0 1 0 I I #
face $-1 $182 $183 $16 $-1 $184 reversed single #
loop $-1 $-1 $185 $70 #
plane-surface $-1 0 -46.89838117258293 4.8225185630211129 0 0 1 1 0 0 forward_v I I I I #
coedge $-1 $76 $186 $187 $188 forward $71 $-1 #
coedge $-1 $189 $73 $190 $191 reversed $45 $-1 #
coedge $-1 $73 $189 $129 $192 reversed $45 $-1 #
edge $-1 $130 -7.8225185630211129 $193 -4.8225185630211129 $73 $194 forward 7 unknown #
coedge $-1 $75 $74 $195 $196 forward $29 $-1 #
coedge $-1 $187 $197 $74 $128 forward $198 $-1 #
edge $-1 $199 4.8225185630211129 $131 7.8225185630211129 $127 $200 forward 7 unknown #
coedge $-1 $186 $76 $124 $192 forward $71 $-1 #
vertex $-1 $125 $201 #
vertex $-1 $188 $202 #
straight-curve $-1 0 -41.406874469964194 7.8225185630211129 1 0 0 I I #
face $-1 $-1 $203 $17 $-1 $204 reversed single #
loop $-1 $-1 $205 $78 #
plane-surface $-1 0 41.406874469964194 0 0 -1 0 0 0 -1 forward_v I I I I #
coedge $-1 $206 $81 $83 $142 forward $49 $-1 #
coedge $-1 $81 $206 $205 $207 reversed $49 $-1 #
coedge $-1 $208 $84 $81 $139 forward $79 $-1 #
edge $-1 $145 13.674637432947492 $209 23.046370502326965 $138 $210 forward 7 unknown #
coedge $-1 $211 $212 $82 $141 forward $203 $-1 #
edge $-1 $213 -48.744218102195106 $144 -37.768937902226732 $140 $214 forward 7 unknown #
edge $-1 $145 -17.82680986580727 $213 0 $83 $215 forward 7 unknown #
coedge $-1 $84 $208 $211 $216 forward $79 $-1 #
vertex $-1 $141 $217 #
vertex $-1 $85 $218 #
straight-curve $-1 -70.262124589204603 32.03514140058472 12.741519656764488 1 0 0 I I #
coedge $-1 $147 $147 $-1 $219 reversed $88 $-1 #
edge $-1 $220 0 $220 6.2831853071796004 $89 $221 forward 7 unknown #
vertex $-1 $92 $222 #
ellipse-curve $-1 -55.954137270054844 34.712779420407429 7.2538795567803023 -0.61566148304635926 0 0.78801074757464917 0.78801074757464917 0 0.61566148304635926 1 I I #
coedge $-1 $151 $151 $-1 $223 reversed $95 $-1 #
edge $-1 $224 0 $224 6.2831853071796004 $96 $225 forward 7 unknown #
vertex $-1 $99 $226 #
ellipse-curve $-1 -55.954137270054844 38.729236450141485 7.2538795567803023 -0.61566148304635926 0 0.78801074757464917 0.78801074757464917 0 0.61566148304635926 1 I I #
face $-1 $-1 $115 $15 $-1 $227 reversed single #
loop $-1 $-1 $171 $100 #
plane-surface $-1 0 41.406874469964194 0 0 -1 0 0 0 -1 forward_v I I I I #
coedge $-1 $228 $169 $172 $229 forward $101 $-1 #
coedge $-1 $175 $103 $104 $163 reversed $63 $-1 #
coedge $-1 $169 $228 $103 $161 reversed $101 $-1 #
edge $-1 $176 -12.741519656764488 $230 12.741519656764488 $160 $231 forward 7 unknown #
coedge $-1 $105 $104 $228 $232 forward $41 $-1 #
edge $-1 $167 -62.977996154667807 $230 62.977996154667807 $159 $233 forward 7 unknown #
coedge $-1 $172 $171 $105 $165 reversed $156 $-1 #
edge $-1 $234 -62.977996154667807 $166 62.977996154667807 $164 $235 forward 7 unknown #
vertex $-1 $107 $236 #
vertex $-1 $178 $237 #
straight-curve $-1 62.977996154667807 0 -12.741519656764488 0 -1 0 I I #
coedge $-1 $158 $160 $108 $170 reversed $101 $-1 #
edge $-1 $173 -41.406874469964194 $176 41.406874469964194 $169 $238 forward 7 unknown #
coedge $-1 $164 $109 $114 $179 forward $156 $-1 #
coedge $-1 $109 $164 $158 $229 reversed $156 $-1 #
vertex $-1 $110 $239 #
straight-curve $-1 0 41.406874469964194 12.741519656764488 -1 0 0 I I #
coedge $-1 $111 $159 $113 $178 reversed $63 $-1 #
vertex $-1 $170 $240 #
straight-curve $-1 0 -41.406874469964194 12.741519656764488 1 0 0 I I #
edge $-1 $116 -12.741519656764488 $167 12.741519656764488 $113 $241 forward 7 unknown #
edge $-1 $117 -12.741519656764488 $166 12.741519656764488 $114 $242 forward 7 unknown #
point $-1 62.977996154667807 -41.406874469964194 12.741519656764488 #
point $-1 62.977996154667807 41.406874469964194 12.741519656764488 #
face $-1 $-1 $198 $16 $-1 $243 reversed single #
loop $-1 $-1 $244 $119 #
plane-surface $-1 0 -52.389887875201666 6.3225185630211129 0 1 0 0 0 1 forward_v I I I I #
coedge $-1 $245 $195 $197 $246 forward $120 $-1 #
coedge $-1 $122 $129 $247 $248 forward $71 $-1 #
coedge $-1 $249 $127 $122 $188 reversed $198 $-1 #
edge $-1 $250 -5.4915067026187359 $131 5.4915067026187359 $187 $251 forward 7 unknown #
coedge $-1 $124 $123 $244 $252 reversed $45 $-1 #
coedge $-1 $195 $245 $123 $191 forward $120 $-1 #
edge $-1 $253 -5.4915067026187359 $193 5.4915067026187359 $123 $254 forward 7 unknown #
edge $-1 $130 -5.4915067026187359 $255 5.4915067026187359 $124 $256 forward 7 unknown #
vertex $-1 $125 $257 #
straight-curve $-1 -62.977996154667807 -41.406874469964194 0 0 0 -1 I I #
coedge $-1 $185 $190 $126 $196 reversed $120 $-1 #
edge $-1 $199 -62.977996154667807 $193 62.977996154667807 $195 $258 forward 7 unknown #
coedge $-1 $127 $249 $185 $246 reversed $198 $-1 #
loop $-1 $-1 $127 $182 #
vertex $-1 $128 $259 #
straight-curve $-1 62.977996154667807 -41.406874469964194 0 0 0 1 I I #
point $-1 -62.977996154667807 -41.406874469964194 7.8225185630211129 #
point $-1 62.977996154667807 -41.406874469964194 7.8225185630211129 #
loop $-1 $-1 $140 $133 #
plane-surface $-1 -62.977996154667807 0 0 1 0 0 0 0 -1 forward_v I I I I #
coedge $-1 $260 $261 $137 $207 forward $134 $-1 #
coedge $-1 $137 $136 $212 $262 reversed $49 $-1 #
edge $-1 $209 6.4431562477962636 $263 24.269966113603537 $205 $264 forward 7 unknown #
coedge $-1 $143 $138 $261 $265 forward $79 $-1 #
vertex $-1 $265 $266 #
straight-curve $-1 -48.930278385441888 18.360503967637229 12.741519656764488 0 1 0 I I #
coedge $-1 $267 $140 $143 $216 reversed $203 $-1 #
coedge $-1 $140 $267 $206 $262 forward $203 $-1 #
vertex $-1 $141 $268 #
straight-curve $-1 -62.977996154667807 32.03514140058472 50.51045755899122 0 0 1 I I #
straight-curve $-1 -62.977996154667807 32.03514140058472 1.7662394567961144 -0.78801074757464917 0 -0.61566148304635926 I I #
edge $-1 $269 -41.406874469964194 $144 -32.03514140058472 $211 $270 forward 7 unknown #
point $-1 -62.977996154667807 32.03514140058472 12.741519656764488 #
point $-1 -48.930278385441888 32.03514140058472 12.741519656764488 #
edge $-1 $271 1 $271 0 $147 $-1 forward 7 unknown #
vertex $-1 $148 $272 #
ellipse-curve $-1 -55.239664063648362 34.712779420407429 6.3393955732824576 -0.61566148304635926 0 0.78801074757464917 0.78801074757464917 0 0.61566148304635926 1 I I #
point $-1 -55.166126522480191 34.712779420407429 7.8695410398266521 #
edge $-1 $273 1 $273 0 $151 $-1 forward 7 unknown #
vertex $-1 $152 $274 #
ellipse-curve $-1 -55.239664063648362 38.729236450141485 6.3393955732824576 -0.61566148304635926 0 0.78801074757464917 0.78801074757464917 0 0.61566148304635926 1 I I #
point $-1 -55.166126522480191 38.729236450141485 7.8695410398266521 #
plane-surface $-1 62.977996154667807 0 0 -1 0 0 0 0 1 forward_v I I I I #
coedge $-1 $160 $158 $162 $232 reversed $101 $-1 #
edge $-1 $173 -12.741519656764488 $234 12.741519656764488 $172 $275 forward 7 unknown #
vertex $-1 $232 $276 #
straight-curve $-1 -62.977996154667807 -41.406874469964194 0 0 0 -1 I I #
edge $-1 $230 -41.406874469964194 $234 41.406874469964194 $228 $277 forward 7 unknown #
straight-curve $-1 0 -41.406874469964194 -12.741519656764488 -1 0 0 I I #
vertex $-1 $165 $278 #
straight-curve $-1 0 41.406874469964194 -12.741519656764488 1 0 0 I I #
point $-1 62.977996154667807 41.406874469964194 -12.741519656764488 #
point $-1 62.977996154667807 -41.406874469964194 -12.741519656764488 #
straight-curve $-1 -62.977996154667807 0 12.741519656764488 0 -1 0 I I #
point $-1 -62.977996154667807 41.406874469964194 12.741519656764488 #
point $-1 -62.977996154667807 -41.406874469964194 12.741519656764488 #
straight-curve $-1 62.977996154667807 -41.406874469964194 0 0 0 -1 I I #
straight-curve $-1 62.977996154667807 41.406874469964194 0 0 0 -1 I I #
plane-surface $-1 62.977996154667807 0 0 -1 0 0 0 0 1 forward_v I I I I #
coedge $-1 $279 $247 $189 $252 forward $183 $-1 #
coedge $-1 $190 $185 $279 $280 forward $120 $-1 #
edge $-1 $199 -5.4915067026187359 $281 5.4915067026187359 $197 $282 forward 7 unknown #
coedge $-1 $244 $283 $186 $248 reversed $183 $-1 #
edge $-1 $255 -62.977996154667807 $250 62.977996154667807 $247 $284 forward 7 unknown #
coedge $-1 $197 $187 $283 $285 forward $198 $-1 #
vertex $-1 $188 $286 #
straight-curve $-1 62.977996154667807 -46.89838117258293 7.8225185630211129 0 1 0 I I #
edge $-1 $255 -1.5 $253 1.5 $189 $287 forward 7 unknown #
vertex $-1 $191 $288 #
straight-curve $-1 -62.977996154667807 -46.89838117258293 4.8225185630211129 0 1 0 I I #
vertex $-1 $192 $289 #
straight-curve $-1 -62.977996154667807 -46.89838117258293 7.8225185630211129 0 -1 0 I I #
point $-1 -62.977996154667807 -41.406874469964194 4.8225185630211129 #
straight-curve $-1 0 -41.406874469964194 4.8225185630211129 -1 0 0 I I #
point $-1 62.977996154667807 -41.406874469964194 4.8225185630211129 #
coedge $-1 $261 $205 $267 $290 reversed $134 $-1 #
coedge $-1 $205 $260 $208 $265 reversed $134 $-1 #
edge $-1 $263 -23.046370502326965 $213 -13.674637432947492 $212 $291 forward 7 unknown #
vertex $-1 $207 $292 #
straight-curve $-1 -43.853002013875681 41.406874469964194 16.708322787782151 -0.78801074757464917 0 -0.61566148304635926 I I #
edge $-1 $209 48.930278385441888 $269 62.977996154667807 $261 $293 forward 7 unknown #
point $-1 -48.930278385441888 41.406874469964194 12.741519656764488 #
coedge $-1 $212 $211 $260 $290 forward $203 $-1 #
point $-1 -62.977996154667807 32.03514140058472 1.7662394567961144 #
vertex $-1 $265 $294 #
straight-curve $-1 -62.977996154667807 0 12.741519656764488 0 -1 0 I I #
vertex $-1 $219 $295 #
point $-1 -54.451653316073717 34.712779420407429 6.9550570563288172 #
vertex $-1 $223 $296 #
point $-1 -54.451653316073717 38.729236450141485 6.9550570563288172 #
straight-curve $-1 -62.977996154667807 41.406874469964194 0 0 0 -1 I I #
point $-1 -62.977996154667807 -41.406874469964194 -12.741519656764488 #
straight-curve $-1 -62.977996154667807 0 -12.741519656764488 0 1 0 I I #
point $-1 -62.977996154667807 41.406874469964194 -12.741519656764488 #
coedge $-1 $283 $244 $245 $280 reversed $183 $-1 #
edge $-1 $281 -62.977996154667807 $253 62.977996154667807 $279 $297 forward 7 unknown #
vertex $-1 $285 $298 #
straight-curve $-1 62.977996154667807 -46.89838117258293 4.8225185630211129 0 -1 0 I I #
coedge $-1 $247 $279 $249 $285 reversed $183 $-1 #
straight-curve $-1 0 -52.389887875201666 7.8225185630211129 1 0 0 I I #
edge $-1 $250 -1.5 $281 1.5 $249 $299 forward 7 unknown #
point $-1 62.977996154667807 -52.389887875201666 7.8225185630211129 #
straight-curve $-1 -62.977996154667807 -52.389887875201666 6.3225185630211129 0 0 -1 I I #
point $-1 -62.977996154667807 -52.389887875201666 4.8225185630211129 #
point $-1 -62.977996154667807 -52.389887875201666 7.8225185630211129 #
edge $-1 $269 -12.741519656764488 $263 -1.7662394567961144 $260 $300 forward 7 unknown #
straight-curve $-1 -62.977996154667807 18.360503967637229 1.7662394567961146 0 -1 0 I I #
point $-1 -62.977996154667807 41.406874469964194 1.7662394567961144 #
straight-curve $-1 0 41.406874469964194 12.741519656764488 -1 0 0 I I #
point $-1 -62.977996154667807 41.406874469964194 12.741519656764488 #
point $-1 -54.62400258060201 34.712779420407429 5.5513848257078084 #
point $-1 -54.62400258060201 38.729236450141485 5.5513848257078084 #
straight-curve $-1 0 -52.389887875201666 4.8225185630211129 -1 0 0 I I #
point $-1 62.977996154667807 -52.389887875201666 4.8225185630211129 #
straight-curve $-1 62.977996154667807 -52.389887875201666 6.3225185630211129 0 0 -1 I I #
straight-curve $-1 -62.977996154667807 41.406874469964194 0 0 0 -1 I I #
End-of-ACIS-data 