500 0 4 0           
7 Unknown 11 ACIS 5.0 NT 24 Thu Mar 25 18:42:09 1999 
-1 9.9999999999999995e-007 1e-010 
body $-1 $4 $-1 $5 #
body $-1 $6 $-1 $7 #
body $-1 $8 $-1 $9 #
body $-1 $10 $-1 $11 #
lump $-1 $-1 $12 $0 #
transform $-1 1 0 0 0 1 0 0 0 1 54.420606097598196 34.695856005813312 13.784738664695579 1 rotate no_reflect no_shear #
lump $-1 $-1 $13 $1 #
transform $-1 1 0 0 0 1 0 0 0 1 54.420606097598196 34.695856005813312 13.784738664695579 1 rotate no_reflect no_shear #
lump $-1 $-1 $14 $2 #
transform $-1 1 0 0 0 1 0 0 0 1 54.420606097598196 34.695856005813312 13.784738664695579 1 rotate no_reflect no_shear #
lump $-1 $-1 $15 $3 #
transform $-1 1 0 0 0 1 0 0 0 1 54.420606097598196 34.695856005813312 13.784738664695579 1 rotate no_reflect no_shear #
shell $-1 $-1 $-1 $16 $-1 $4 #
shell $-1 $-1 $-1 $17 $-1 $6 #
shell $-1 $-1 $-1 $18 $-1 $8 #
shell $-1 $-1 $-1 $19 $-1 $10 #
face $-1 $20 $21 $12 $-1 $22 forward single #
face $-1 $23 $24 $13 $-1 $25 forward single #
face $-1 $26 $27 $14 $-1 $28 reversed single #
face $-1 $29 $30 $15 $-1 $31 forward single #
face $-1 $32 $33 $12 $-1 $34 reversed single #
loop $-1 $-1 $35 $16 #
plane-surface $-1 0 0 13.784738664695579 0 0 1 1 0 0 forward_v I I I I #
face $-1 $36 $37 $13 $-1 $38 forward single #
loop $-1 $-1 $39 $17 #
plane-surface $-1 0 -34.695856005813312 0 0 1 0 0 0 1 forward_v I I I I #
face $-1 $40 $41 $14 $-1 $42 reversed single #
loop $-1 $-1 $43 $18 #
plane-surface $-1 -38.519432145157495 66.972247154157358 132.16737395755248 -1 0 0 0 0.73135370988377701 0.68199835119979291 forward_v I I I I #
face $-1 $44 $45 $15 $-1 $46 forward single #
loop $-1 $47 $48 $19 #
cone-surface $-1 -46.470019121377845 30.767921143053542 9.6917186715567993 0 -0.73135370988377701 -0.68199835119979291 1 0 0 1 I I 0 1 1 forward I I I I #
face $-1 $49 $50 $12 $-1 $51 reversed single #
loop $-1 $-1 $52 $20 #
plane-surface $-1 0 0 -13.784738664695579 0 0 1 1 0 0 forward_v I I I I #
coedge $-1 $53 $54 $55 $56 forward $21 $-1 #
face $-1 $57 $58 $13 $-1 $59 reversed single #
loop $-1 $-1 $60 $23 #
plane-surface $-1 0 0 13.784738664695579 0 0 1 1 0 0 forward_v I I I I #
coedge $-1 $61 $62 $63 $64 forward $24 $-1 #
face $-1 $65 $66 $14 $-1 $67 reversed single #
loop $-1 $-1 $68 $26 #
plane-surface $-1 -46.470019121377845 -12.629177173046912 57.937846697841749 0 0.73135370988377701 0.68199835119979291 1 0 0 forward_v I I I I #
coedge $-1 $69 $70 $71 $72 reversed $27 $-1 #
face $-1 $-1 $73 $15 $-1 $74 forward single #
loop $-1 $75 $76 $29 #
cone-surface $-1 -46.470019121377845 29.55010684456181 8.5560884936899502 0 -0.73135370988377701 -0.68199835119979291 0.5 0 0 1 I I -0.70710678118654746 0.70710678118654746 0.5 forward I I I I #
loop $-1 $-1 $77 $19 #
coedge $-1 $48 $48 $78 $79 reversed $30 $-1 #
face $-1 $80 $81 $12 $-1 $82 reversed single #
loop $-1 $-1 $83 $32 #
plane-surface $-1 0 -34.695856005813312 0 0 1 0 0 0 1 forward_v I I I I #
coedge $-1 $84 $85 $86 $87 forward $33 $-1 #
coedge $-1 $88 $35 $89 $90 forward $21 $-1 #
coedge $-1 $35 $88 $91 $92 forward $21 $-1 #
coedge $-1 $93 $94 $35 $56 reversed $95 $-1 #
edge $-1 $96 -34.695856005813312 $97 34.695856005813312 $55 $98 forward 7 unknown #
face $-1 $99 $100 $13 $-1 $101 reversed single #
loop $-1 $-1 $102 $36 #
plane-surface $-1 -54.420606097598196 0 0 1 0 0 0 0 -1 forward_v I I I I #
coedge $-1 $103 $104 $105 $106 forward $37 $-1 #
coedge $-1 $105 $39 $102 $107 reversed $24 $-1 #
coedge $-1 $39 $105 $108 $109 reversed $24 $-1 #
coedge $-1 $110 $111 $39 $64 reversed $100 $-1 #
edge $-1 $112 -54.420606097598196 $113 54.420606097598196 $63 $114 forward 7 unknown #
face $-1 $115 $116 $14 $-1 $117 forward single #
loop $-1 $-1 $71 $40 #
plane-surface $-1 0 34.695856005813312 0 0 -1 0 0 0 -1 forward_v I I I I #
coedge $-1 $118 $119 $120 $121 reversed $41 $-1 #
coedge $-1 $70 $43 $122 $123 reversed $27 $-1 #
coedge $-1 $43 $69 $118 $124 reversed $27 $-1 #
coedge $-1 $120 $125 $43 $72 forward $66 $-1 #
edge $-1 $126 52.298948314080661 $127 58.895726295824275 $71 $128 forward 7 unknown #
loop $-1 $-1 $78 $44 #
plane-surface $-1 -46.470019121377845 -12.629177173046912 57.937846697841749 0 0.73135370988377701 0.68199835119979291 1 0 0 forward_v I I I I #
loop $-1 $-1 $129 $29 #
coedge $-1 $76 $76 $77 $130 reversed $45 $-1 #
coedge $-1 $77 $77 $76 $130 forward $47 $-1 #
coedge $-1 $78 $78 $48 $79 forward $73 $-1 #
edge $-1 $131 5.2603637375608609e-016 $131 6.2831853071796013 $78 $132 forward 7 unknown #
face $-1 $133 $134 $12 $-1 $135 reversed single #
loop $-1 $-1 $136 $49 #
plane-surface $-1 -54.420606097598196 0 0 1 0 0 0 0 -1 forward_v I I I I #
coedge $-1 $137 $91 $138 $139 forward $50 $-1 #
coedge $-1 $140 $52 $137 $141 forward $33 $-1 #
coedge $-1 $52 $140 $142 $143 forward $33 $-1 #
coedge $-1 $94 $93 $52 $87 reversed $95 $-1 #
edge $-1 $144 -34.695856005813312 $145 34.695856005813312 $86 $146 forward 7 unknown #
coedge $-1 $54 $53 $147 $148 forward $21 $-1 #
coedge $-1 $149 $150 $53 $90 reversed $134 $-1 #
edge $-1 $97 -54.420606097598196 $151 54.420606097598196 $89 $152 forward 7 unknown #
coedge $-1 $83 $153 $54 $92 reversed $50 $-1 #
edge $-1 $154 -54.420606097598196 $96 54.420606097598196 $91 $155 forward 7 unknown #
coedge $-1 $86 $55 $153 $156 forward $95 $-1 #
coedge $-1 $55 $86 $149 $157 reversed $95 $-1 #
loop $-1 $-1 $93 $133 #
vertex $-1 $56 $158 #
vertex $-1 $56 $159 #
straight-curve $-1 54.420606097598196 0 13.784738664695579 0 1 0 I I #
face $-1 $160 $161 $13 $-1 $162 reversed single #
loop $-1 $-1 $110 $57 #
plane-surface $-1 0 -41.892123147438816 8.0121190471163128 0 0 1 1 0 0 forward_v I I I I #
coedge $-1 $163 $164 $61 $107 forward $58 $-1 #
coedge $-1 $165 $60 $164 $166 forward $37 $-1 #
coedge $-1 $60 $165 $167 $168 forward $37 $-1 #
coedge $-1 $62 $61 $60 $106 reversed $24 $-1 #
edge $-1 $169 -54.420606097598196 $170 54.420606097598196 $60 $171 forward 7 unknown #
edge $-1 $170 -13.784738664695579 $113 -8.0121190471163128 $102 $172 forward 7 unknown #
coedge $-1 $167 $173 $62 $109 forward $174 $-1 #
edge $-1 $112 8.0121190471163128 $169 13.784738664695579 $108 $175 forward 7 unknown #
coedge $-1 $176 $63 $173 $177 forward $100 $-1 #
coedge $-1 $63 $176 $163 $178 forward $100 $-1 #
vertex $-1 $109 $179 #
vertex $-1 $107 $180 #
straight-curve $-1 0 -34.695856005813312 8.0121190471163128 -1 0 0 I I #
face $-1 $-1 $181 $14 $-1 $182 reversed single #
loop $-1 $-1 $122 $65 #
plane-surface $-1 0 0 13.784738664695579 0 0 1 1 0 0 forward_v I I I I #
coedge $-1 $183 $68 $70 $124 forward $41 $-1 #
coedge $-1 $68 $183 $184 $185 reversed $41 $-1 #
coedge $-1 $186 $71 $68 $121 forward $66 $-1 #
edge $-1 $127 15.284422584468572 $187 31.185596536909273 $120 $188 forward 7 unknown #
coedge $-1 $189 $190 $69 $123 forward $116 $-1 #
edge $-1 $191 -4.9418624096852071 $126 1.2097324287346325 $122 $192 forward 7 unknown #
edge $-1 $127 -69.391712011626623 $191 -60.371756424347325 $70 $193 forward 7 unknown #
coedge $-1 $71 $186 $189 $194 reversed $66 $-1 #
vertex $-1 $194 $195 #
vertex $-1 $72 $196 #
straight-curve $-1 -38.519432145157495 34.695856005813312 66.083686978776242 0 0 -1 I I #
coedge $-1 $129 $129 $-1 $197 reversed $75 $-1 #
edge $-1 $198 0 $198 6.2831853071796004 $76 $199 forward 7 unknown #
vertex $-1 $79 $200 #
ellipse-curve $-1 -46.470019121377845 31.620058586603399 10.486349673823765 0 0.73135370988377701 0.68199835119979291 1 0 0 1 I I #
face $-1 $-1 $95 $12 $-1 $201 reversed single #
loop $-1 $-1 $149 $80 #
plane-surface $-1 0 34.695856005813312 0 0 -1 0 0 0 -1 forward_v I I I I #
coedge $-1 $202 $147 $150 $203 forward $81 $-1 #
coedge $-1 $153 $83 $84 $141 reversed $50 $-1 #
coedge $-1 $147 $202 $83 $139 reversed $81 $-1 #
edge $-1 $154 -13.784738664695579 $204 13.784738664695579 $138 $205 forward 7 unknown #
coedge $-1 $85 $84 $202 $206 forward $33 $-1 #
edge $-1 $145 -54.420606097598196 $204 54.420606097598196 $137 $207 forward 7 unknown #
coedge $-1 $150 $149 $85 $143 reversed $134 $-1 #
edge $-1 $208 -54.420606097598196 $144 54.420606097598196 $142 $209 forward 7 unknown #
vertex $-1 $87 $210 #
vertex $-1 $156 $211 #
straight-curve $-1 54.420606097598196 0 -13.784738664695579 0 -1 0 I I #
coedge $-1 $136 $138 $88 $148 reversed $81 $-1 #
edge $-1 $151 -34.695856005813312 $154 34.695856005813312 $147 $212 forward 7 unknown #
coedge $-1 $142 $89 $94 $157 forward $134 $-1 #
coedge $-1 $89 $142 $136 $203 reversed $134 $-1 #
vertex $-1 $90 $213 #
straight-curve $-1 0 34.695856005813312 13.784738664695579 -1 0 0 I I #
coedge $-1 $91 $137 $93 $156 reversed $50 $-1 #
vertex $-1 $148 $214 #
straight-curve $-1 0 -34.695856005813312 13.784738664695579 1 0 0 I I #
edge $-1 $96 -13.784738664695579 $145 13.784738664695579 $93 $215 forward 7 unknown #
edge $-1 $97 -13.784738664695579 $144 13.784738664695579 $94 $216 forward 7 unknown #
point $-1 54.420606097598196 -34.695856005813312 13.784738664695579 #
point $-1 54.420606097598196 34.695856005813312 13.784738664695579 #
face $-1 $-1 $174 $13 $-1 $217 reversed single #
loop $-1 $-1 $218 $99 #
plane-surface $-1 0 -49.088390289064321 10.898428855905946 0 1 0 0 0 1 forward_v I I I I #
coedge $-1 $219 $102 $111 $178 reversed $58 $-1 #
coedge $-1 $102 $219 $103 $166 reversed $58 $-1 #
coedge $-1 $104 $103 $220 $221 forward $37 $-1 #
edge $-1 $170 34.695856005813312 $222 49.088390289064321 $164 $223 forward 7 unknown #
coedge $-1 $224 $108 $104 $168 reversed $174 $-1 #
edge $-1 $225 -49.088390289064321 $169 -34.695856005813312 $167 $226 forward 7 unknown #
vertex $-1 $109 $227 #
vertex $-1 $166 $228 #
straight-curve $-1 0 -34.695856005813312 13.784738664695579 -1 0 0 I I #
straight-curve $-1 -54.420606097598196 -34.695856005813312 0 0 0 -1 I I #
coedge $-1 $108 $224 $110 $177 reversed $174 $-1 #
loop $-1 $-1 $108 $160 #
straight-curve $-1 54.420606097598196 -34.695856005813312 0 0 0 1 I I #
coedge $-1 $111 $110 $229 $230 forward $100 $-1 #
edge $-1 $112 -7.1962671416255048 $231 7.1962671416255048 $173 $232 forward 7 unknown #
edge $-1 $233 -7.1962671416255048 $113 7.1962671416255048 $163 $234 forward 7 unknown #
point $-1 54.420606097598196 -34.695856005813312 8.0121190471163128 #
point $-1 -54.420606097598196 -34.695856005813312 8.0121190471163128 #
loop $-1 $-1 $184 $115 #
plane-surface $-1 -54.420606097598196 0 0 1 0 0 0 0 -1 forward_v I I I I #
coedge $-1 $119 $118 $190 $235 reversed $41 $-1 #
coedge $-1 $236 $237 $119 $185 forward $181 $-1 #
edge $-1 $187 -43.898643444540539 $238 -34.878687857261241 $184 $239 forward 7 unknown #
coedge $-1 $125 $120 $237 $240 reversed $66 $-1 #
vertex $-1 $121 $241 #
straight-curve $-1 -23.235009560688923 34.695856005813312 7.1879606829519673 -1 0 0 I I #
coedge $-1 $242 $122 $125 $194 forward $116 $-1 #
coedge $-1 $122 $242 $183 $235 forward $116 $-1 #
vertex $-1 $123 $243 #
straight-curve $-1 -38.519432145157495 33.486123577078679 13.784738664695581 0 1 0 I I #
straight-curve $-1 -38.519432145157495 -12.629177173046912 57.937846697841749 0 -0.68199835119979291 0.73135370988377701 I I #
edge $-1 $126 38.519432145157495 $244 54.420606097598196 $125 $245 forward 7 unknown #
point $-1 -38.519432145157495 34.695856005813312 13.784738664695579 #
point $-1 -38.519432145157495 34.695856005813312 7.1879606829519673 #
edge $-1 $246 1 $246 0 $129 $-1 forward 7 unknown #
vertex $-1 $130 $247 #
ellipse-curve $-1 -46.470019121377845 29.915783699503699 8.8970876692898457 0 0.73135370988377701 0.68199835119979291 1 0 0 1 I I #
point $-1 -45.470019121377845 31.620058586603388 10.486349673823755 #
plane-surface $-1 54.420606097598196 0 0 -1 0 0 0 0 1 forward_v I I I I #
coedge $-1 $138 $136 $140 $206 reversed $81 $-1 #
edge $-1 $151 -13.784738664695579 $208 13.784738664695579 $150 $248 forward 7 unknown #
vertex $-1 $206 $249 #
straight-curve $-1 -54.420606097598196 -34.695856005813312 0 0 0 -1 I I #
edge $-1 $204 -34.695856005813312 $208 34.695856005813312 $202 $250 forward 7 unknown #
straight-curve $-1 0 -34.695856005813312 -13.784738664695579 -1 0 0 I I #
vertex $-1 $143 $251 #
straight-curve $-1 0 34.695856005813312 -13.784738664695579 1 0 0 I I #
point $-1 54.420606097598196 34.695856005813312 -13.784738664695579 #
point $-1 54.420606097598196 -34.695856005813312 -13.784738664695579 #
straight-curve $-1 -54.420606097598196 0 13.784738664695579 0 -1 0 I I #
point $-1 -54.420606097598196 34.695856005813312 13.784738664695579 #
point $-1 -54.420606097598196 -34.695856005813312 13.784738664695579 #
straight-curve $-1 54.420606097598196 -34.695856005813312 0 0 0 -1 I I #
straight-curve $-1 54.420606097598196 34.695856005813312 0 0 0 -1 I I #
plane-surface $-1 54.420606097598196 0 0 -1 0 0 0 0 1 forward_v I I I I #
coedge $-1 $229 $220 $219 $252 forward $161 $-1 #
coedge $-1 $164 $163 $218 $252 reversed $58 $-1 #
coedge $-1 $218 $253 $165 $221 reversed $161 $-1 #
edge $-1 $222 -54.420606097598196 $225 54.420606097598196 $220 $254 forward 7 unknown #
vertex $-1 $166 $255 #
straight-curve $-1 -54.420606097598196 0 13.784738664695579 0 -1 0 I I #
coedge $-1 $173 $167 $253 $256 forward $174 $-1 #
vertex $-1 $168 $257 #
straight-curve $-1 54.420606097598196 0 13.784738664695579 0 1 0 I I #
point $-1 54.420606097598196 -34.695856005813312 13.784738664695579 #
point $-1 -54.420606097598196 -34.695856005813312 13.784738664695579 #
coedge $-1 $253 $218 $176 $230 reversed $161 $-1 #
edge $-1 $231 -54.420606097598196 $233 54.420606097598196 $229 $258 forward 7 unknown #
vertex $-1 $256 $259 #
straight-curve $-1 54.420606097598196 -41.892123147438816 8.0121190471163128 0 -1 0 I I #
vertex $-1 $178 $260 #
straight-curve $-1 -54.420606097598196 -41.892123147438816 8.0121190471163128 0 1 0 I I #
edge $-1 $238 -31.185596536909273 $191 -15.284422584468572 $190 $261 forward 7 unknown #
coedge $-1 $237 $184 $242 $262 reversed $181 $-1 #
coedge $-1 $184 $236 $186 $240 forward $181 $-1 #
vertex $-1 $185 $263 #
straight-curve $-1 -54.420606097598196 4.7570535567290619 39.293396424981836 0 -0.68199835119979291 0.73135370988377701 I I #
edge $-1 $244 -13.784738664695579 $187 -7.1879606829519647 $186 $264 forward 7 unknown #
point $-1 -54.420606097598196 34.695856005813312 7.1879606829519647 #
coedge $-1 $190 $189 $236 $262 forward $116 $-1 #
point $-1 -38.519432145157495 28.544261167393472 13.784738664695581 #
vertex $-1 $194 $265 #
straight-curve $-1 0 34.695856005813312 13.784738664695579 -1 0 0 I I #
vertex $-1 $197 $266 #
point $-1 -45.470019121377845 29.915783699503699 8.8970876692898457 #
straight-curve $-1 -54.420606097598196 34.695856005813312 0 0 0 -1 I I #
point $-1 -54.420606097598196 -34.695856005813312 -13.784738664695579 #
straight-curve $-1 -54.420606097598196 0 -13.784738664695579 0 1 0 I I #
point $-1 -54.420606097598196 34.695856005813312 -13.784738664695579 #
edge $-1 $222 -2.8863098087896333 $233 2.8863098087896333 $219 $267 forward 7 unknown #
coedge $-1 $220 $229 $224 $256 reversed $161 $-1 #
straight-curve $-1 0 -49.088390289064321 13.784738664695579 1 0 0 I I #
point $-1 -54.420606097598196 -49.088390289064321 13.784738664695579 #
edge $-1 $225 -2.8863098087896333 $231 2.8863098087896333 $224 $268 forward 7 unknown #
point $-1 54.420606097598196 -49.088390289064321 13.784738664695579 #
straight-curve $-1 0 -49.088390289064321 8.0121190471163128 -1 0 0 I I #
point $-1 54.420606097598196 -49.088390289064321 8.0121190471163128 #
point $-1 -54.420606097598196 -49.088390289064321 8.0121190471163128 #
straight-curve $-1 -23.235009560688923 28.544261167393479 13.784738664695578 1 0 0 I I #
edge $-1 $244 -34.695856005813312 $238 -28.544261167393472 $236 $269 forward 7 unknown #
point $-1 -54.420606097598196 28.544261167393472 13.784738664695581 #
straight-curve $-1 -54.420606097598196 34.695856005813312 0 0 0 -1 I I #
point $-1 -54.420606097598196 34.695856005813312 13.784738664695579 #
point $-1 -46.470019121377845 29.184429989619922 8.2150893180900546 #
straight-curve $-1 -54.420606097598196 -49.088390289064321 10.898428855905946 0 0 -1 I I #
straight-curve $-1 54.420606097598196 -49.088390289064321 10.898428855905946 0 0 -1 I I #
straight-curve $-1 -54.420606097598196 0 13.784738664695579 0 -1 0 I I #
End-of-ACIS-data 