500 0 5 0           
7 Unknown 11 ACIS 5.0 NT 24 Thu Mar 25 15:40:51 1999 
-1 9.9999999999999995e-007 1e-010 
body $-1 $5 $-1 $6 #
body $-1 $7 $-1 $8 #
body $-1 $9 $-1 $10 #
body $-1 $11 $-1 $12 #
body $-1 $13 $-1 $14 #
lump $-1 $-1 $15 $0 #
transform $-1 1 0 0 0 1 0 0 0 1 67.806024353770567 45.141798116024148 16.00028557693155 1 rotate no_reflect no_shear #
lump $-1 $-1 $16 $1 #
transform $-1 1 0 0 0 1 0 0 0 1 67.806024353770567 45.141798116024148 16.00028557693155 1 rotate no_reflect no_shear #
lump $-1 $-1 $17 $2 #
transform $-1 1 0 0 0 1 0 0 0 1 67.806024353770567 45.141798116024148 16.00028557693155 1 rotate no_reflect no_shear #
lump $-1 $-1 $18 $3 #
transform $-1 1 0 0 0 1 0 0 0 1 67.806024353770567 45.141798116024148 16.00028557693155 1 rotate no_reflect no_shear #
lump $-1 $-1 $19 $4 #
transform $-1 1 0 0 0 1 0 0 0 1 67.806024353770567 45.141798116024148 16.00028557693155 1 rotate no_reflect no_shear #
shell $-1 $-1 $-1 $20 $-1 $5 #
shell $-1 $-1 $-1 $21 $-1 $7 #
shell $-1 $-1 $-1 $22 $-1 $9 #
shell $-1 $-1 $-1 $23 $-1 $11 #
shell $-1 $-1 $-1 $24 $-1 $13 #
face $-1 $25 $26 $15 $-1 $27 forward single #
face $-1 $28 $29 $16 $-1 $30 reversed single #
face $-1 $31 $32 $17 $-1 $33 forward single #
face $-1 $34 $35 $18 $-1 $36 reversed single #
face $-1 $37 $38 $19 $-1 $39 forward single #
face $-1 $40 $41 $15 $-1 $42 reversed single #
loop $-1 $-1 $43 $20 #
plane-surface $-1 0 0 16.00028557693155 0 0 1 1 0 0 forward_v I I I I #
face $-1 $44 $45 $16 $-1 $46 reversed single #
loop $-1 $-1 $47 $21 #
plane-surface $-1 61.019213902003202 -45.141798116024162 4.9077893181140695 0 -0.69465837861970381 0.71933979245794832 1 0 0 forward_v I I I I #
face $-1 $48 $49 $17 $-1 $50 forward single #
loop $-1 $51 $52 $22 #
cone-surface $-1 61.019213902003202 -38.290115005860144 9.3062813810752658 0 0.69465837861970381 -0.71933979245794832 2 0 0 1 I I 0 1 2 forward I I I I #
face $-1 $53 $54 $18 $-1 $55 reversed single #
loop $-1 $-1 $56 $23 #
plane-surface $-1 61.019213902003202 -19.802785259894677 67.624045892624707 0 0.69465837861970381 0.71933979245794832 1 0 0 forward_v I I I I #
face $-1 $57 $58 $19 $-1 $59 forward single #
loop $-1 $60 $61 $24 #
cone-surface $-1 61.019213902003202 38.290115005860137 9.3062813810752658 0 -0.69465837861970381 -0.71933979245794832 2 0 0 1 I I 0 1 2 forward I I I I #
face $-1 $62 $63 $15 $-1 $64 reversed single #
loop $-1 $-1 $65 $25 #
plane-surface $-1 0 0 -16.00028557693155 0 0 1 1 0 0 forward_v I I I I #
coedge $-1 $66 $67 $68 $69 forward $26 $-1 #
face $-1 $70 $71 $16 $-1 $72 reversed single #
loop $-1 $-1 $73 $28 #
plane-surface $-1 54.232403450235836 -139.34584399250099 102.45893229019389 1 0 0 0 0.69465837861970381 -0.71933979245794832 forward_v I I I I #
coedge $-1 $74 $75 $76 $77 reversed $29 $-1 #
face $-1 $-1 $78 $17 $-1 $79 forward single #
loop $-1 $80 $81 $31 #
cone-surface $-1 61.019213902003202 -36.487081452491601 7.4391855221697831 0 0.69465837861970381 -0.71933979245794832 1 0 0 1 I I -0.70710678118654724 0.70710678118654791 1 forward I I I I #
loop $-1 $-1 $82 $22 #
coedge $-1 $52 $52 $83 $84 reversed $32 $-1 #
face $-1 $85 $86 $18 $-1 $87 forward single #
loop $-1 $-1 $88 $34 #
plane-surface $-1 54.232403450235836 74.40126061658215 165.17518886470452 1 0 0 0 -0.69465837861970381 -0.71933979245794832 forward_v I I I I #
coedge $-1 $89 $90 $91 $92 reversed $35 $-1 #
face $-1 $-1 $93 $19 $-1 $94 forward single #
loop $-1 $95 $96 $37 #
cone-surface $-1 61.019213902003202 36.487081452491594 7.4391855221697831 0 -0.69465837861970381 -0.71933979245794832 1 0 0 1 I I -0.70710678118654724 0.70710678118654791 1 forward I I I I #
loop $-1 $-1 $97 $24 #
coedge $-1 $61 $61 $98 $99 reversed $38 $-1 #
face $-1 $100 $101 $15 $-1 $102 reversed single #
loop $-1 $-1 $103 $40 #
plane-surface $-1 0 -45.141798116024148 0 0 1 0 0 0 1 forward_v I I I I #
coedge $-1 $104 $105 $106 $107 forward $41 $-1 #
coedge $-1 $108 $43 $109 $110 forward $26 $-1 #
coedge $-1 $43 $108 $111 $112 forward $26 $-1 #
coedge $-1 $113 $114 $43 $69 reversed $115 $-1 #
edge $-1 $116 -45.141798116024148 $117 45.141798116024148 $68 $118 forward 7 unknown #
face $-1 $119 $120 $16 $-1 $121 forward single #
loop $-1 $-1 $122 $44 #
plane-surface $-1 0 -45.141798116024148 0 0 1 0 0 0 1 forward_v I I I I #
coedge $-1 $123 $124 $125 $126 reversed $45 $-1 #
coedge $-1 $127 $47 $128 $129 reversed $29 $-1 #
coedge $-1 $47 $127 $123 $130 forward $29 $-1 #
coedge $-1 $125 $131 $47 $77 forward $120 $-1 #
edge $-1 $132 -37.296417402768967 $133 -23.722796499234235 $76 $134 forward 7 unknown #
loop $-1 $-1 $83 $48 #
plane-surface $-1 61.019213902003202 -45.141798116024162 4.9077893181140695 0 -0.69465837861970381 0.71933979245794832 1 0 0 forward_v I I I I #
loop $-1 $-1 $135 $31 #
coedge $-1 $81 $81 $82 $136 reversed $49 $-1 #
coedge $-1 $82 $82 $81 $136 forward $51 $-1 #
coedge $-1 $83 $83 $52 $84 forward $78 $-1 #
edge $-1 $137 1.7537199311053519e-016 $137 6.2831853071796004 $83 $138 forward 7 unknown #
face $-1 $139 $140 $18 $-1 $141 reversed single #
loop $-1 $-1 $142 $53 #
plane-surface $-1 0 0 16.00028557693155 0 0 1 1 0 0 forward_v I I I I #
coedge $-1 $143 $144 $145 $146 reversed $54 $-1 #
coedge $-1 $147 $56 $148 $149 reversed $35 $-1 #
coedge $-1 $56 $147 $143 $150 forward $35 $-1 #
coedge $-1 $145 $151 $56 $92 forward $152 $-1 #
edge $-1 $153 -37.296417402768967 $154 -23.722796499234235 $91 $155 forward 7 unknown #
loop $-1 $-1 $98 $57 #
plane-surface $-1 61.019213902003202 -19.802785259894677 67.624045892624707 0 0.69465837861970381 0.71933979245794832 1 0 0 forward_v I I I I #
loop $-1 $-1 $156 $37 #
coedge $-1 $96 $96 $97 $157 reversed $58 $-1 #
coedge $-1 $97 $97 $96 $157 forward $60 $-1 #
coedge $-1 $98 $98 $61 $99 forward $93 $-1 #
edge $-1 $158 -1.2339611619077996e-015 $158 6.2831853071795996 $98 $159 forward 7 unknown #
face $-1 $160 $161 $15 $-1 $162 reversed single #
loop $-1 $-1 $163 $62 #
plane-surface $-1 -67.806024353770567 0 0 1 0 0 0 0 -1 forward_v I I I I #
coedge $-1 $164 $111 $165 $166 forward $63 $-1 #
coedge $-1 $167 $65 $164 $168 forward $41 $-1 #
coedge $-1 $65 $167 $169 $170 forward $41 $-1 #
coedge $-1 $114 $113 $65 $107 reversed $115 $-1 #
edge $-1 $171 -45.141798116024148 $172 45.141798116024148 $106 $173 forward 7 unknown #
coedge $-1 $67 $66 $174 $175 forward $26 $-1 #
coedge $-1 $176 $177 $66 $110 reversed $161 $-1 #
edge $-1 $117 -67.806024353770567 $178 67.806024353770567 $109 $179 forward 7 unknown #
coedge $-1 $103 $180 $67 $112 reversed $63 $-1 #
edge $-1 $181 -67.806024353770567 $116 67.806024353770567 $111 $182 forward 7 unknown #
coedge $-1 $106 $68 $180 $183 forward $115 $-1 #
coedge $-1 $68 $106 $176 $184 reversed $115 $-1 #
loop $-1 $-1 $113 $160 #
vertex $-1 $69 $185 #
vertex $-1 $69 $186 #
straight-curve $-1 67.806024353770567 0 16.00028557693155 0 1 0 I I #
face $-1 $-1 $187 $16 $-1 $188 reversed single #
loop $-1 $-1 $125 $70 #
plane-surface $-1 0 0 16.00028557693155 0 0 1 1 0 0 forward_v I I I I #
coedge $-1 $189 $190 $124 $191 forward $71 $-1 #
coedge $-1 $124 $73 $75 $130 reversed $45 $-1 #
coedge $-1 $73 $123 $122 $191 reversed $45 $-1 #
coedge $-1 $192 $76 $73 $126 forward $120 $-1 #
edge $-1 $133 -36.017739751056631 $193 -24.531123880226346 $125 $194 forward 7 unknown #
coedge $-1 $75 $74 $189 $195 reversed $29 $-1 #
coedge $-1 $196 $197 $74 $129 forward $187 $-1 #
edge $-1 $198 -14.531527358815584 $132 1.4367479837469201 $128 $199 forward 7 unknown #
edge $-1 $200 1.9477141995791963e-014 $133 15.968275342562524 $123 $201 forward 7 unknown #
coedge $-1 $76 $192 $196 $202 forward $120 $-1 #
vertex $-1 $129 $203 #
vertex $-1 $77 $204 #
straight-curve $-1 30.509606951001601 -33.655182245193856 16.00028557693155 -1 0 0 I I #
coedge $-1 $135 $135 $-1 $205 reversed $80 $-1 #
edge $-1 $206 0 $206 6.2831853071796004 $81 $207 forward 7 unknown #
vertex $-1 $84 $208 #
ellipse-curve $-1 61.019213902003202 -39.398490180609002 10.454037447522818 0 -0.69465837861970381 0.71933979245794832 2 0 0 1 I I #
face $-1 $-1 $152 $18 $-1 $209 reversed single #
loop $-1 $-1 $148 $85 #
plane-surface $-1 67.806024353770567 0 0 -1 0 0 0 0 1 forward_v I I I I #
coedge $-1 $210 $211 $144 $212 forward $86 $-1 #
coedge $-1 $144 $88 $90 $150 reversed $54 $-1 #
coedge $-1 $88 $143 $142 $212 reversed $54 $-1 #
coedge $-1 $213 $91 $88 $146 forward $152 $-1 #
edge $-1 $154 -77.679805114238221 $214 -66.587308855420716 $145 $215 forward 7 unknown #
coedge $-1 $90 $89 $210 $216 reversed $35 $-1 #
coedge $-1 $217 $218 $89 $149 forward $140 $-1 #
edge $-1 $219 43.705050132277186 $153 59.67332547483975 $148 $220 forward 7 unknown #
edge $-1 $221 74.315320889485719 $154 90.283596232048282 $143 $222 forward 7 unknown #
coedge $-1 $91 $213 $217 $223 forward $152 $-1 #
loop $-1 $-1 $145 $139 #
vertex $-1 $149 $224 #
vertex $-1 $92 $225 #
straight-curve $-1 30.509606951001601 45.141798116024148 4.9077893181140446 -1 0 0 I I #
coedge $-1 $156 $156 $-1 $226 reversed $95 $-1 #
edge $-1 $227 0 $227 6.2831853071796004 $96 $228 forward 7 unknown #
vertex $-1 $99 $229 #
ellipse-curve $-1 61.019213902003202 39.398490180608981 10.454037447522801 0 0.69465837861970381 0.71933979245794832 2 0 0 1 I I #
face $-1 $-1 $115 $15 $-1 $230 reversed single #
loop $-1 $-1 $176 $100 #
plane-surface $-1 0 45.141798116024148 0 0 -1 0 0 0 -1 forward_v I I I I #
coedge $-1 $231 $174 $177 $232 forward $101 $-1 #
coedge $-1 $180 $103 $104 $168 reversed $63 $-1 #
coedge $-1 $174 $231 $103 $166 reversed $101 $-1 #
edge $-1 $181 -16.00028557693155 $233 16.00028557693155 $165 $234 forward 7 unknown #
coedge $-1 $105 $104 $231 $235 forward $41 $-1 #
edge $-1 $172 -67.806024353770567 $233 67.806024353770567 $164 $236 forward 7 unknown #
coedge $-1 $177 $176 $105 $170 reversed $161 $-1 #
edge $-1 $237 -67.806024353770567 $171 67.806024353770567 $169 $238 forward 7 unknown #
vertex $-1 $107 $239 #
vertex $-1 $183 $240 #
straight-curve $-1 67.806024353770567 0 -16.00028557693155 0 -1 0 I I #
coedge $-1 $163 $165 $108 $175 reversed $101 $-1 #
edge $-1 $178 -45.141798116024148 $181 45.141798116024148 $174 $241 forward 7 unknown #
coedge $-1 $169 $109 $114 $184 forward $161 $-1 #
coedge $-1 $109 $169 $163 $232 reversed $161 $-1 #
vertex $-1 $110 $242 #
straight-curve $-1 0 45.141798116024148 16.00028557693155 -1 0 0 I I #
coedge $-1 $111 $164 $113 $183 reversed $63 $-1 #
vertex $-1 $175 $243 #
straight-curve $-1 0 -45.141798116024148 16.00028557693155 1 0 0 I I #
edge $-1 $116 -16.00028557693155 $172 16.00028557693155 $113 $244 forward 7 unknown #
edge $-1 $117 -16.00028557693155 $171 16.00028557693155 $114 $245 forward 7 unknown #
point $-1 67.806024353770567 -45.141798116024148 16.00028557693155 #
point $-1 67.806024353770567 45.141798116024148 16.00028557693155 #
loop $-1 $-1 $128 $119 #
plane-surface $-1 67.806024353770567 0 0 -1 0 0 0 0 1 forward_v I I I I #
coedge $-1 $246 $122 $127 $195 forward $71 $-1 #
coedge $-1 $122 $246 $192 $247 reversed $71 $-1 #
edge $-1 $193 35.22918056816539 $200 46.321676826982859 $122 $248 forward 7 unknown #
coedge $-1 $131 $125 $190 $247 forward $120 $-1 #
vertex $-1 $247 $249 #
straight-curve $-1 54.232403450235836 -69.672921996250494 16.000285576931546 0 -1 0 I I #
edge $-1 $200 23.722796499234235 $198 37.296417402768967 $189 $250 forward 7 unknown #
coedge $-1 $197 $128 $131 $202 reversed $187 $-1 #
coedge $-1 $128 $196 $246 $251 forward $187 $-1 #
vertex $-1 $195 $252 #
straight-curve $-1 67.806024353770567 -34.688692241636744 15.002236552056781 0 0.71933979245794832 0.69465837861970381 I I #
vertex $-1 $195 $253 #
straight-curve $-1 54.232403450235836 -45.141798116024162 4.9077893181140695 0 0.71933979245794832 0.69465837861970381 I I #
edge $-1 $254 -45.141798116024148 $132 -33.655182245193863 $196 $255 forward 7 unknown #
point $-1 67.806024353770567 -33.655182245193863 16.00028557693155 #
point $-1 54.232403450235836 -33.655182245193863 16.00028557693155 #
edge $-1 $256 1 $256 0 $135 $-1 forward 7 unknown #
vertex $-1 $136 $257 #
ellipse-curve $-1 61.019213902003202 -37.181739831111308 8.1585253146277328 0 -0.69465837861970381 0.71933979245794832 2 0 0 1 I I #
point $-1 63.019213902003202 -39.398490180608988 10.454037447522804 #
plane-surface $-1 0 45.141798116024148 0 0 -1 0 0 0 -1 forward_v I I I I #
coedge $-1 $258 $142 $147 $216 forward $86 $-1 #
coedge $-1 $142 $258 $213 $259 forward $86 $-1 #
edge $-1 $214 -7.9411678077330734 $221 3.545448063097254 $142 $260 forward 7 unknown #
coedge $-1 $151 $145 $211 $259 reversed $152 $-1 #
vertex $-1 $212 $261 #
straight-curve $-1 54.232403450235836 45.141798116024148 82.587594432352262 0 0 1 I I #
edge $-1 $221 23.722796499234235 $219 37.296417402768967 $210 $262 forward 7 unknown #
coedge $-1 $218 $148 $151 $223 reversed $140 $-1 #
coedge $-1 $148 $217 $258 $263 reversed $140 $-1 #
vertex $-1 $263 $264 #
straight-curve $-1 67.806024353770567 2.216400553677321 46.360364839312091 0 0.71933979245794832 -0.69465837861970381 I I #
vertex $-1 $216 $265 #
straight-curve $-1 54.232403450235836 -19.802785259894677 67.624045892624707 0 0.71933979245794832 -0.69465837861970381 I I #
edge $-1 $266 -16.00028557693155 $153 -4.9077893181140402 $217 $267 forward 7 unknown #
point $-1 67.806024353770567 45.141798116024148 4.9077893181140402 #
point $-1 54.232403450235836 45.141798116024148 4.9077893181140411 #
edge $-1 $268 1 $268 0 $156 $-1 forward 7 unknown #
vertex $-1 $157 $269 #
ellipse-curve $-1 61.019213902003202 37.181739831111301 8.1585253146277328 0 0.69465837861970381 0.71933979245794832 2 0 0 1 I I #
point $-1 63.019213902003202 39.398490180608981 10.454037447522804 #
plane-surface $-1 67.806024353770567 0 0 -1 0 0 0 0 1 forward_v I I I I #
coedge $-1 $165 $163 $167 $235 reversed $101 $-1 #
edge $-1 $178 -16.00028557693155 $237 16.00028557693155 $177 $270 forward 7 unknown #
vertex $-1 $235 $271 #
straight-curve $-1 -67.806024353770567 -45.141798116024148 0 0 0 -1 I I #
edge $-1 $233 -45.141798116024148 $237 45.141798116024148 $231 $272 forward 7 unknown #
straight-curve $-1 0 -45.141798116024148 -16.00028557693155 -1 0 0 I I #
vertex $-1 $170 $273 #
straight-curve $-1 0 45.141798116024148 -16.00028557693155 1 0 0 I I #
point $-1 67.806024353770567 45.141798116024148 -16.00028557693155 #
point $-1 67.806024353770567 -45.141798116024148 -16.00028557693155 #
straight-curve $-1 -67.806024353770567 0 16.00028557693155 0 -1 0 I I #
point $-1 -67.806024353770567 45.141798116024148 16.00028557693155 #
point $-1 -67.806024353770567 -45.141798116024148 16.00028557693155 #
straight-curve $-1 67.806024353770567 -45.141798116024148 0 0 0 -1 I I #
straight-curve $-1 67.806024353770567 45.141798116024148 0 0 0 -1 I I #
coedge $-1 $190 $189 $197 $251 reversed $71 $-1 #
edge $-1 $193 54.232403450235836 $254 67.806024353770567 $190 $274 forward 7 unknown #
straight-curve $-1 54.232403450235836 -45.141798116024148 51.229466145096943 0 0 -1 I I #
point $-1 54.232403450235836 -45.141798116024148 16.00028557693155 #
straight-curve $-1 30.509606951001601 -45.141798116024148 4.9077893181140819 1 0 0 I I #
edge $-1 $254 -16.00028557693155 $198 -4.9077893181140828 $197 $275 forward 7 unknown #
point $-1 67.806024353770567 -45.141798116024148 4.9077893181140828 #
point $-1 54.232403450235836 -45.141798116024148 4.9077893181140828 #
vertex $-1 $202 $276 #
straight-curve $-1 67.806024353770567 0 16.00028557693155 0 1 0 I I #
vertex $-1 $205 $277 #
point $-1 63.019213902003202 -37.181739831111308 8.1585253146277328 #
coedge $-1 $211 $210 $218 $263 forward $86 $-1 #
edge $-1 $266 -67.806024353770567 $214 -54.232403450235836 $213 $278 forward 7 unknown #
straight-curve $-1 54.232403450235836 37.200630308291075 16.000285576931546 0 -1 0 I I #
point $-1 54.232403450235836 45.141798116024148 16.00028557693155 #
straight-curve $-1 30.509606951001601 33.655182245193807 16.000285576931553 1 0 0 I I #
edge $-1 $219 33.655182245193821 $266 45.141798116024148 $218 $279 forward 7 unknown #
point $-1 67.806024353770567 33.655182245193821 16.000285576931546 #
point $-1 54.232403450235836 33.655182245193821 16.000285576931546 #
vertex $-1 $263 $280 #
straight-curve $-1 67.806024353770567 45.141798116024148 0 0 0 -1 I I #
vertex $-1 $226 $281 #
point $-1 63.019213902003202 37.181739831111301 8.1585253146277328 #
straight-curve $-1 -67.806024353770567 45.141798116024148 0 0 0 -1 I I #
point $-1 -67.806024353770567 -45.141798116024148 -16.00028557693155 #
straight-curve $-1 -67.806024353770567 0 -16.00028557693155 0 1 0 I I #
point $-1 -67.806024353770567 45.141798116024148 -16.00028557693155 #
straight-curve $-1 0 -45.141798116024148 16.00028557693155 1 0 0 I I #
straight-curve $-1 67.806024353770567 -45.141798116024148 0 0 0 -1 I I #
point $-1 67.806024353770567 -45.141798116024148 16.00028557693155 #
point $-1 61.019213902003202 -35.792423073871895 6.7198457297118344 #
straight-curve $-1 0 45.141798116024148 16.00028557693155 -1 0 0 I I #
straight-curve $-1 67.806024353770567 0 16.00028557693155 0 1 0 I I #
point $-1 67.806024353770567 45.141798116024148 16.00028557693155 #
point $-1 61.019213902003202 35.792423073871888 6.7198457297118344 #
End-of-ACIS-data 