500 0 7 0           
7 Unknown 11 ACIS 5.0 NT 24 Thu Mar 25 18:08:27 1999 
-1 9.9999999999999995e-007 1e-010 
body $-1 $7 $-1 $8 #
body $-1 $9 $-1 $10 #
body $-1 $11 $-1 $12 #
body $-1 $13 $-1 $14 #
body $-1 $15 $-1 $16 #
body $-1 $17 $-1 $18 #
body $-1 $19 $-1 $20 #
lump $-1 $-1 $21 $0 #
transform $-1 1 0 0 0 1 0 0 0 1 55.631580553605758 34.446690298475986 9.8901644233232293 1 rotate no_reflect no_shear #
lump $-1 $-1 $22 $1 #
transform $-1 1 0 0 0 1 0 0 0 1 55.631580553605758 34.446690298475986 9.8901644233232293 1 rotate no_reflect no_shear #
lump $-1 $-1 $23 $2 #
transform $-1 1 0 0 0 1 0 0 0 1 55.631580553605758 34.446690298475986 9.8901644233232293 1 rotate no_reflect no_shear #
lump $-1 $-1 $24 $3 #
transform $-1 1 0 0 0 1 0 0 0 1 55.631580553605758 34.446690298475986 9.8901644233232293 1 rotate no_reflect no_shear #
lump $-1 $-1 $25 $4 #
transform $-1 1 0 0 0 1 0 0 0 1 55.631580553605758 34.446690298475986 9.8901644233232293 1 rotate no_reflect no_shear #
lump $-1 $-1 $26 $5 #
transform $-1 1 0 0 0 1 0 0 0 1 55.631580553605758 34.446690298475986 9.8901644233232293 1 rotate no_reflect no_shear #
lump $-1 $-1 $27 $6 #
transform $-1 1 0 0 0 1 0 0 0 1 55.631580553605758 34.446690298475986 9.8901644233232293 1 rotate no_reflect no_shear #
shell $-1 $-1 $-1 $28 $-1 $7 #
shell $-1 $-1 $-1 $29 $-1 $9 #
shell $-1 $-1 $-1 $30 $-1 $11 #
shell $-1 $-1 $-1 $31 $-1 $13 #
shell $-1 $-1 $-1 $32 $-1 $15 #
shell $-1 $-1 $-1 $33 $-1 $17 #
shell $-1 $-1 $-1 $34 $-1 $19 #
face $-1 $35 $36 $21 $-1 $37 forward single #
face $-1 $38 $39 $22 $-1 $40 forward single #
face $-1 $41 $42 $23 $-1 $43 forward single #
face $-1 $44 $45 $24 $-1 $46 reversed single #
face $-1 $47 $48 $25 $-1 $49 forward single #
face $-1 $50 $51 $26 $-1 $52 reversed single #
face $-1 $53 $54 $27 $-1 $55 forward single #
face $-1 $56 $57 $21 $-1 $58 reversed single #
loop $-1 $-1 $59 $28 #
plane-surface $-1 0 0 9.8901644233232293 0 0 1 1 0 0 forward_v I I I I #
face $-1 $60 $61 $22 $-1 $62 reversed single #
loop $-1 $-1 $63 $29 #
plane-surface $-1 0 -28.481849945622969 8.6813509228779981 0 0 1 1 0 0 forward_v I I I I #
face $-1 $64 $65 $23 $-1 $66 reversed single #
loop $-1 $-1 $67 $30 #
plane-surface $-1 0 28.481849945622969 8.6813509228779981 0 0 1 1 0 0 forward_v I I I I #
face $-1 $68 $69 $24 $-1 $70 reversed single #
loop $-1 $-1 $71 $31 #
plane-surface $-1 55.63158237926578 -13.846443591691539 160.63461701144647 0 1 0 0.70710678939079041 0 0.70710677298230451 forward_v I I I I #
face $-1 $72 $73 $25 $-1 $74 forward single #
loop $-1 $75 $76 $32 #
cone-surface $-1 51.874583096812131 -7.9988592443803945 6.1331669004316769 -0.70710678939079041 0 -0.70710677298230451 0.70710677298230451 0 -0.70710678939079041 1 I I 0 1 1 forward I I I I #
face $-1 $77 $78 $26 $-1 $79 reversed single #
loop $-1 $-1 $80 $33 #
plane-surface $-1 -134.30651718159635 -2.1512748970692499 81.959680383455876 0 -1 0 0.70710678939079041 0 -0.70710677298230451 forward_v I I I I #
face $-1 $81 $82 $27 $-1 $83 forward single #
loop $-1 $84 $85 $34 #
cone-surface $-1 -51.874583096812131 -7.9988592443803945 6.1331669004316929 0.70710678939079041 0 -0.70710677298230451 0.70710677298230451 0 0.70710678939079041 1 I I 0 1 1 forward I I I I #
face $-1 $86 $87 $21 $-1 $88 reversed single #
loop $-1 $-1 $89 $35 #
plane-surface $-1 0 0 -9.8901644233232293 0 0 1 1 0 0 forward_v I I I I #
coedge $-1 $90 $91 $92 $93 forward $36 $-1 #
face $-1 $94 $95 $22 $-1 $96 reversed single #
loop $-1 $-1 $97 $38 #
plane-surface $-1 0 -28.481849945622969 3.5061813568690443 0 0 1 1 0 0 forward_v I I I I #
coedge $-1 $98 $99 $100 $101 reversed $39 $-1 #
face $-1 $102 $103 $23 $-1 $104 reversed single #
loop $-1 $-1 $105 $41 #
plane-surface $-1 0 28.481849945622969 3.5061813568690443 0 0 1 1 0 0 forward_v I I I I #
coedge $-1 $106 $107 $108 $109 reversed $42 $-1 #
face $-1 $110 $111 $24 $-1 $112 reversed single #
loop $-1 $-1 $113 $44 #
plane-surface $-1 -23.04335424872481 -7.9988592443803945 81.959682209115883 0.70710678939079041 0 0.70710677298230451 0.70710677298230451 0 -0.70710678939079041 forward_v I I I I #
coedge $-1 $114 $115 $116 $117 reversed $45 $-1 #
face $-1 $-1 $118 $25 $-1 $119 forward single #
loop $-1 $120 $121 $47 #
cone-surface $-1 51.066741589782367 -7.9988592443803945 5.3253254121479596 -0.70710678939079041 0 -0.70710677298230451 0.35355338649115226 0 -0.35355339469539521 1 I I -0.70710678118654746 0.70710678118654746 0.5 forward I I I I #
loop $-1 $-1 $122 $32 #
coedge $-1 $76 $76 $123 $124 reversed $48 $-1 #
face $-1 $125 $126 $26 $-1 $127 reversed single #
loop $-1 $-1 $128 $50 #
plane-surface $-1 -55.631580553605758 -7.9988592443803945 3.2847455811252928 -0.70710678939079041 0 0.70710677298230451 0.70710677298230451 0 0.70710678939079041 forward_v I I I I #
coedge $-1 $129 $130 $131 $132 reversed $51 $-1 #
face $-1 $-1 $133 $27 $-1 $134 forward single #
loop $-1 $135 $136 $53 #
cone-surface $-1 -51.066741589782367 -7.9988592443803945 5.3253254121479756 0.70710678939079041 0 -0.70710677298230451 0.35355338649115226 0 0.35355339469539521 1 I I -0.70710678118654746 0.70710678118654746 0.5 forward I I I I #
loop $-1 $-1 $137 $34 #
coedge $-1 $85 $85 $138 $139 reversed $54 $-1 #
face $-1 $140 $141 $21 $-1 $142 reversed single #
loop $-1 $-1 $143 $56 #
plane-surface $-1 0 -34.446690298475986 0 0 1 0 0 0 1 forward_v I I I I #
coedge $-1 $144 $145 $146 $147 forward $57 $-1 #
coedge $-1 $148 $59 $149 $150 forward $36 $-1 #
coedge $-1 $59 $148 $151 $152 forward $36 $-1 #
coedge $-1 $153 $154 $59 $93 reversed $155 $-1 #
edge $-1 $156 -34.446690298475986 $157 34.446690298475986 $92 $158 forward 7 unknown #
face $-1 $159 $160 $22 $-1 $161 reversed single #
loop $-1 $-1 $162 $60 #
plane-surface $-1 0 -22.517009592769952 6.0937661398735212 0 -1 0 0 0 -1 forward_v I I I I #
coedge $-1 $163 $164 $165 $166 reversed $61 $-1 #
coedge $-1 $167 $63 $168 $169 forward $39 $-1 #
coedge $-1 $63 $167 $170 $171 reversed $39 $-1 #
coedge $-1 $172 $173 $63 $101 forward $174 $-1 #
edge $-1 $175 8.2760846199584677 $176 20.205765325664501 $100 $177 forward 7 unknown #
face $-1 $178 $179 $23 $-1 $180 reversed single #
loop $-1 $-1 $181 $64 #
plane-surface $-1 0 22.517009592769952 6.0937661398735212 0 1 0 0 0 1 forward_v I I I I #
coedge $-1 $182 $183 $184 $185 reversed $65 $-1 #
coedge $-1 $186 $67 $187 $188 reversed $42 $-1 #
coedge $-1 $67 $186 $189 $190 forward $42 $-1 #
coedge $-1 $191 $192 $67 $109 forward $179 $-1 #
edge $-1 $193 -20.205765325664501 $194 -8.2760846199584677 $108 $195 forward 7 unknown #
face $-1 $196 $197 $24 $-1 $198 forward single #
loop $-1 $-1 $199 $68 #
plane-surface $-1 55.63158237926578 -2.1512748970692499 160.63461701144647 0 -1 0 -0.70710678939079041 0 -0.70710677298230451 forward_v I I I I #
coedge $-1 $200 $201 $202 $203 reversed $69 $-1 #
coedge $-1 $115 $71 $204 $205 reversed $45 $-1 #
coedge $-1 $71 $114 $200 $206 reversed $45 $-1 #
coedge $-1 $202 $207 $71 $117 forward $208 $-1 #
edge $-1 $209 70.427144082400005 $210 77.032562924597926 $116 $211 forward 7 unknown #
loop $-1 $-1 $123 $72 #
plane-surface $-1 -23.04335424872481 -7.9988592443803945 81.959682209115883 0.70710678939079041 0 0.70710677298230451 0.70710677298230451 0 -0.70710678939079041 forward_v I I I I #
loop $-1 $-1 $212 $47 #
coedge $-1 $121 $121 $122 $213 reversed $73 $-1 #
coedge $-1 $122 $122 $121 $213 forward $75 $-1 #
coedge $-1 $123 $123 $76 $124 forward $118 $-1 #
edge $-1 $214 0 $214 6.2831853071796004 $123 $215 forward 7 unknown #
face $-1 $216 $217 $26 $-1 $218 reversed single #
loop $-1 $-1 $219 $77 #
plane-surface $-1 -134.30651718159635 -13.846443591691539 81.959680383455876 0 1 0 -0.70710678939079041 0 0.70710677298230451 forward_v I I I I #
coedge $-1 $220 $221 $222 $223 reversed $78 $-1 #
coedge $-1 $130 $80 $224 $225 reversed $51 $-1 #
coedge $-1 $80 $129 $220 $226 reversed $51 $-1 #
coedge $-1 $222 $227 $80 $132 forward $217 $-1 #
edge $-1 $228 31.08967576840471 $229 37.695094610602645 $131 $230 forward 7 unknown #
loop $-1 $-1 $138 $81 #
plane-surface $-1 -55.631580553605758 -7.9988592443803945 3.2847455811252928 -0.70710678939079041 0 0.70710677298230451 0.70710677298230451 0 0.70710678939079041 forward_v I I I I #
loop $-1 $-1 $231 $53 #
coedge $-1 $136 $136 $137 $232 reversed $82 $-1 #
coedge $-1 $137 $137 $136 $232 forward $84 $-1 #
coedge $-1 $138 $138 $85 $139 forward $133 $-1 #
edge $-1 $233 0 $233 6.2831853071796004 $138 $234 forward 7 unknown #
face $-1 $235 $236 $21 $-1 $237 reversed single #
loop $-1 $-1 $238 $86 #
plane-surface $-1 -55.631580553605758 0 0 1 0 0 0 0 -1 forward_v I I I I #
coedge $-1 $239 $151 $240 $241 forward $87 $-1 #
coedge $-1 $242 $89 $239 $243 forward $57 $-1 #
coedge $-1 $89 $242 $244 $245 forward $57 $-1 #
coedge $-1 $154 $153 $89 $147 reversed $155 $-1 #
edge $-1 $246 -34.446690298475986 $247 34.446690298475986 $146 $248 forward 7 unknown #
coedge $-1 $91 $90 $249 $250 forward $36 $-1 #
coedge $-1 $251 $252 $90 $150 reversed $236 $-1 #
edge $-1 $157 -55.631580553605758 $253 55.631580553605758 $149 $254 forward 7 unknown #
coedge $-1 $143 $255 $91 $152 reversed $87 $-1 #
edge $-1 $256 -55.631580553605758 $156 55.631580553605758 $151 $257 forward 7 unknown #
coedge $-1 $146 $92 $255 $258 forward $155 $-1 #
coedge $-1 $92 $146 $251 $259 reversed $155 $-1 #
loop $-1 $-1 $153 $235 #
vertex $-1 $93 $260 #
vertex $-1 $93 $261 #
straight-curve $-1 55.631580553605758 0 9.8901644233232293 0 1 0 I I #
face $-1 $262 $263 $22 $-1 $264 reversed single #
loop $-1 $-1 $265 $94 #
plane-surface $-1 -55.631580553605758 0 0 1 0 0 0 0 -1 forward_v I I I I #
coedge $-1 $266 $168 $173 $267 reversed $95 $-1 #
coedge $-1 $268 $97 $269 $270 reversed $61 $-1 #
coedge $-1 $97 $268 $266 $271 forward $61 $-1 #
coedge $-1 $173 $172 $97 $166 forward $174 $-1 #
edge $-1 $272 -20.205765325664501 $273 -8.2760846199584677 $165 $274 forward 7 unknown #
coedge $-1 $99 $98 $265 $275 reversed $39 $-1 #
coedge $-1 $162 $276 $98 $169 reversed $95 $-1 #
edge $-1 $175 -55.631580553605758 $277 55.631580553605758 $168 $278 forward 7 unknown #
coedge $-1 $279 $280 $99 $171 forward $263 $-1 #
edge $-1 $176 -55.631580553605758 $281 55.631580553605758 $170 $282 forward 7 unknown #
coedge $-1 $165 $100 $280 $283 forward $174 $-1 #
coedge $-1 $100 $165 $162 $267 forward $174 $-1 #
loop $-1 $-1 $100 $262 #
vertex $-1 $101 $284 #
vertex $-1 $283 $285 #
straight-curve $-1 55.631580553605758 -14.240924972811484 8.6813509228779981 0 -1 0 I I #
face $-1 $286 $287 $23 $-1 $288 reversed single #
loop $-1 $-1 $108 $102 #
plane-surface $-1 55.631580553605758 0 0 -1 0 0 0 0 1 forward_v I I I I #
coedge $-1 $289 $189 $290 $291 reversed $103 $-1 #
coedge $-1 $292 $105 $289 $293 forward $65 $-1 #
coedge $-1 $105 $292 $294 $295 reversed $65 $-1 #
coedge $-1 $192 $191 $105 $185 forward $179 $-1 #
edge $-1 $296 8.2760846199584677 $297 20.205765325664501 $184 $298 forward 7 unknown #
coedge $-1 $107 $106 $299 $300 reversed $42 $-1 #
coedge $-1 $301 $302 $106 $188 forward $303 $-1 #
edge $-1 $304 -55.631580553605758 $193 55.631580553605758 $187 $305 forward 7 unknown #
coedge $-1 $181 $306 $107 $190 reversed $103 $-1 #
edge $-1 $307 -55.631580553605758 $194 55.631580553605758 $189 $308 forward 7 unknown #
coedge $-1 $184 $108 $306 $309 forward $179 $-1 #
coedge $-1 $108 $184 $301 $310 reversed $179 $-1 #
vertex $-1 $310 $311 #
vertex $-1 $109 $312 #
straight-curve $-1 55.631580553605758 14.240924972811484 8.6813509228779981 0 -1 0 I I #
face $-1 $-1 $208 $24 $-1 $313 reversed single #
loop $-1 $-1 $314 $110 #
plane-surface $-1 0 0 9.8901644233232293 0 0 1 1 0 0 forward_v I I I I #
coedge $-1 $315 $316 $317 $318 reversed $111 $-1 #
coedge $-1 $319 $113 $115 $206 forward $69 $-1 #
coedge $-1 $113 $319 $315 $320 forward $69 $-1 #
coedge $-1 $317 $116 $113 $203 forward $208 $-1 #
edge $-1 $210 -9.8470139695013419 $321 1.8481547251209474 $202 $322 forward 7 unknown #
coedge $-1 $323 $324 $114 $205 forward $197 $-1 #
edge $-1 $325 21.210370675054378 $209 27.815789363972868 $204 $326 forward 7 unknown #
edge $-1 $210 -111.26316110721152 $325 -101.92168830380535 $115 $327 forward 7 unknown #
coedge $-1 $116 $317 $323 $328 reversed $208 $-1 #
loop $-1 $-1 $317 $196 #
vertex $-1 $328 $329 #
vertex $-1 $117 $330 #
straight-curve $-1 55.631580553605758 -13.846443591691539 80.317308505723233 0 0 -1 I I #
coedge $-1 $212 $212 $-1 $331 reversed $120 $-1 #
edge $-1 $332 0 $332 6.2831853071796004 $121 $333 forward 7 unknown #
vertex $-1 $124 $334 #
ellipse-curve $-1 52.328871209146513 -7.9988592443803945 6.5874550022242593 0.70710678939079041 0 0.70710677298230451 0.70710677298230451 0 -0.70710678939079041 1 I I #
face $-1 $-1 $335 $26 $-1 $336 forward single #
loop $-1 $-1 $131 $125 #
plane-surface $-1 -55.631580553605758 0 0 1 0 0 0 0 -1 forward_v I I I I #
coedge $-1 $337 $338 $339 $340 reversed $126 $-1 #
coedge $-1 $341 $128 $130 $226 forward $78 $-1 #
coedge $-1 $128 $341 $337 $342 forward $78 $-1 #
coedge $-1 $339 $131 $128 $223 forward $217 $-1 #
edge $-1 $229 -1.8481547251209474 $343 9.8470139695013419 $222 $344 forward 7 unknown #
coedge $-1 $345 $346 $129 $225 forward $335 $-1 #
edge $-1 $347 -18.127096726110928 $228 -11.521678037192416 $224 $348 forward 7 unknown #
edge $-1 $229 0 $347 9.3414728034061927 $130 $349 forward 7 unknown #
coedge $-1 $131 $339 $345 $350 reversed $217 $-1 #
vertex $-1 $350 $351 #
vertex $-1 $132 $352 #
straight-curve $-1 -55.631580553605758 -2.1512748970692499 40.979840191727938 0 0 -1 I I #
coedge $-1 $231 $231 $-1 $353 reversed $135 $-1 #
edge $-1 $354 0 $354 6.2831853071796004 $136 $355 forward 7 unknown #
vertex $-1 $139 $356 #
ellipse-curve $-1 -52.328871209146499 -7.9988592443803945 6.5874550022242619 -0.70710678939079041 0 0.70710677298230451 0.70710677298230451 0 0.70710678939079041 1 I I #
face $-1 $-1 $155 $21 $-1 $357 reversed single #
loop $-1 $-1 $251 $140 #
plane-surface $-1 0 34.446690298475986 0 0 -1 0 0 0 -1 forward_v I I I I #
coedge $-1 $358 $249 $252 $359 forward $141 $-1 #
coedge $-1 $255 $143 $144 $243 reversed $87 $-1 #
coedge $-1 $249 $358 $143 $241 reversed $141 $-1 #
edge $-1 $256 -9.8901644233232293 $360 9.8901644233232293 $240 $361 forward 7 unknown #
coedge $-1 $145 $144 $358 $362 forward $57 $-1 #
edge $-1 $247 -55.631580553605758 $360 55.631580553605758 $239 $363 forward 7 unknown #
coedge $-1 $252 $251 $145 $245 reversed $236 $-1 #
edge $-1 $364 -55.631580553605758 $246 55.631580553605758 $244 $365 forward 7 unknown #
vertex $-1 $147 $366 #
vertex $-1 $258 $367 #
straight-curve $-1 55.631580553605758 0 -9.8901644233232293 0 -1 0 I I #
coedge $-1 $238 $240 $148 $250 reversed $141 $-1 #
edge $-1 $253 -34.446690298475986 $256 34.446690298475986 $249 $368 forward 7 unknown #
coedge $-1 $244 $149 $154 $259 forward $236 $-1 #
coedge $-1 $149 $244 $238 $359 reversed $236 $-1 #
vertex $-1 $150 $369 #
straight-curve $-1 0 34.446690298475986 9.8901644233232293 -1 0 0 I I #
coedge $-1 $151 $239 $153 $258 reversed $87 $-1 #
vertex $-1 $250 $370 #
straight-curve $-1 0 -34.446690298475986 9.8901644233232293 1 0 0 I I #
edge $-1 $156 -9.8901644233232293 $247 9.8901644233232293 $153 $371 forward 7 unknown #
edge $-1 $157 -9.8901644233232293 $246 9.8901644233232293 $154 $372 forward 7 unknown #
point $-1 55.631580553605758 -34.446690298475986 9.8901644233232293 #
point $-1 55.631580553605758 34.446690298475986 9.8901644233232293 #
face $-1 $-1 $174 $22 $-1 $373 reversed single #
loop $-1 $-1 $170 $159 #
plane-surface $-1 0 -34.446690298475986 0 0 1 0 0 0 1 forward_v I I I I #
coedge $-1 $374 $375 $167 $275 forward $160 $-1 #
coedge $-1 $276 $162 $164 $271 reversed $95 $-1 #
edge $-1 $273 0.45929828693228369 $175 5.6344678529412375 $173 $376 forward 7 unknown #
coedge $-1 $164 $163 $377 $378 reversed $61 $-1 #
coedge $-1 $280 $279 $163 $270 forward $263 $-1 #
edge $-1 $379 -55.631580553605758 $272 55.631580553605758 $269 $380 forward 7 unknown #
edge $-1 $381 -55.631580553605758 $273 55.631580553605758 $266 $382 forward 7 unknown #
vertex $-1 $270 $383 #
vertex $-1 $166 $384 #
straight-curve $-1 55.631580553605758 -14.240924972811484 3.5061813568690443 0 1 0 I I #
edge $-1 $281 -20.205765325664501 $277 -8.2760846199584677 $265 $385 forward 7 unknown #
coedge $-1 $168 $266 $374 $386 reversed $95 $-1 #
vertex $-1 $275 $387 #
straight-curve $-1 0 -22.517009592769952 8.6813509228779981 -1 0 0 I I #
coedge $-1 $269 $170 $375 $388 forward $263 $-1 #
coedge $-1 $170 $269 $172 $283 reversed $263 $-1 #
vertex $-1 $388 $389 #
straight-curve $-1 0 -34.446690298475986 8.6813509228779981 -1 0 0 I I #
edge $-1 $176 -8.6813509228779981 $272 -3.5061813568690443 $172 $390 forward 7 unknown #
point $-1 55.631580553605758 -22.517009592769952 8.6813509228779981 #
point $-1 55.631580553605758 -34.446690298475986 8.6813509228779981 #
face $-1 $-1 $303 $23 $-1 $391 reversed single #
loop $-1 $-1 $299 $178 #
plane-surface $-1 -55.631580553605758 0 0 1 0 0 0 0 -1 forward_v I I I I #
coedge $-1 $306 $181 $182 $293 reversed $103 $-1 #
coedge $-1 $299 $392 $181 $291 forward $287 $-1 #
edge $-1 $393 0.45929828693228369 $307 5.6344678529412375 $290 $394 forward 7 unknown #
coedge $-1 $183 $182 $392 $395 reversed $65 $-1 #
edge $-1 $296 -55.631580553605758 $393 55.631580553605758 $289 $396 forward 7 unknown #
coedge $-1 $302 $301 $183 $295 forward $303 $-1 #
edge $-1 $297 -55.631580553605758 $397 55.631580553605758 $294 $398 forward 7 unknown #
vertex $-1 $185 $399 #
vertex $-1 $295 $400 #
straight-curve $-1 55.631580553605758 14.240924972811484 3.5061813568690443 0 1 0 I I #
coedge $-1 $401 $290 $186 $300 forward $287 $-1 #
edge $-1 $307 8.2760846199584677 $304 20.205765325664501 $299 $402 forward 7 unknown #
coedge $-1 $294 $187 $192 $310 forward $303 $-1 #
coedge $-1 $187 $294 $401 $403 reversed $303 $-1 #
loop $-1 $-1 $187 $286 #
vertex $-1 $403 $404 #
straight-curve $-1 0 34.446690298475986 8.6813509228779981 1 0 0 I I #
coedge $-1 $189 $289 $191 $309 reversed $103 $-1 #
vertex $-1 $300 $405 #
straight-curve $-1 0 22.517009592769952 8.6813509228779981 1 0 0 I I #
edge $-1 $194 -5.6344678529412375 $296 -0.45929828693228369 $191 $406 forward 7 unknown #
edge $-1 $193 -8.6813509228779981 $297 -3.5061813568690443 $192 $407 forward 7 unknown #
point $-1 55.631580553605758 34.446690298475986 8.6813509228779981 #
point $-1 55.631580553605758 22.517009592769952 8.6813509228779981 #
plane-surface $-1 55.631580553605758 0 0 -1 0 0 0 0 1 forward_v I I I I #
coedge $-1 $324 $323 $316 $408 forward $197 $-1 #
coedge $-1 $316 $199 $201 $320 reversed $111 $-1 #
coedge $-1 $199 $315 $314 $408 reversed $111 $-1 #
coedge $-1 $207 $202 $199 $318 forward $208 $-1 #
edge $-1 $321 -77.032562924597926 $409 -70.427144082400005 $317 $410 forward 7 unknown #
coedge $-1 $201 $200 $324 $411 reversed $69 $-1 #
edge $-1 $412 101.92168830380535 $321 111.26316110721152 $315 $413 forward 7 unknown #
vertex $-1 $203 $414 #
straight-curve $-1 55.631580553605758 -3.9994296221901973 3.2847455811252999 0 1 0 I I #
coedge $-1 $314 $204 $207 $328 forward $197 $-1 #
coedge $-1 $204 $314 $319 $411 forward $197 $-1 #
vertex $-1 $205 $415 #
straight-curve $-1 27.81579118963289 -13.846443591691539 9.8901644233232275 1 0 0 I I #
straight-curve $-1 -23.04335424872481 -13.846443591691539 81.959682209115883 -0.70710677298230451 0 0.70710678939079041 I I #
edge $-1 $209 -13.846443591691539 $409 -2.1512748970692499 $207 $416 forward 7 unknown #
point $-1 55.631580553605758 -13.846443591691539 9.8901644233232293 #
point $-1 55.631580553605758 -13.846443591691539 3.284745581125307 #
edge $-1 $417 1 $417 0 $212 $-1 forward 7 unknown #
vertex $-1 $213 $418 #
ellipse-curve $-1 51.420294984477763 -7.9988592443803945 5.6788787986391123 0.70710678939079041 0 0.70710677298230451 0.70710677298230451 0 -0.70710678939079041 1 I I #
point $-1 53.035977982128799 -7.9988592443803945 5.880348212833451 #
loop $-1 $-1 $224 $216 #
plane-surface $-1 0 0 9.8901644233232293 0 0 1 1 0 0 forward_v I I I I #
coedge $-1 $338 $219 $221 $342 reversed $126 $-1 #
coedge $-1 $219 $337 $419 $420 reversed $126 $-1 #
coedge $-1 $227 $222 $219 $340 forward $217 $-1 #
edge $-1 $343 -37.695094610602645 $421 -31.08967576840471 $339 $422 forward 7 unknown #
coedge $-1 $221 $220 $346 $423 reversed $78 $-1 #
edge $-1 $424 -9.3414728034061927 $343 0 $337 $425 forward 7 unknown #
vertex $-1 $223 $426 #
straight-curve $-1 -55.631580553605758 -3.9994296221901973 3.2847455811252928 0 -1 0 I I #
coedge $-1 $419 $224 $227 $350 forward $335 $-1 #
coedge $-1 $224 $419 $341 $423 forward $335 $-1 #
vertex $-1 $225 $427 #
straight-curve $-1 -67.153258590798174 -2.1512748970692499 9.8901644233232275 -1 0 0 I I #
straight-curve $-1 -55.631580553605758 -2.1512748970692499 3.2847455811252928 0.70710677298230451 0 0.70710678939079041 I I #
edge $-1 $228 2.1512748970692499 $421 13.846443591691539 $227 $428 forward 7 unknown #
point $-1 -55.631580553605758 -2.1512748970692499 9.8901644233232293 #
point $-1 -55.631580553605758 -2.1512748970692499 3.2847455811252928 #
edge $-1 $429 1 $429 0 $231 $-1 forward 7 unknown #
vertex $-1 $232 $430 #
ellipse-curve $-1 -51.420294984477763 -7.9988592443803945 5.6788787986391283 -0.70710678939079041 0 0.70710677298230451 0.70710677298230451 0 0.70710678939079041 1 I I #
point $-1 -51.621764436164192 -7.9988592443803945 7.294561791615048 #
plane-surface $-1 55.631580553605758 0 0 -1 0 0 0 0 1 forward_v I I I I #
coedge $-1 $240 $238 $242 $362 reversed $141 $-1 #
edge $-1 $253 -9.8901644233232293 $364 9.8901644233232293 $252 $431 forward 7 unknown #
vertex $-1 $362 $432 #
straight-curve $-1 -55.631580553605758 -34.446690298475986 0 0 0 -1 I I #
edge $-1 $360 -34.446690298475986 $364 34.446690298475986 $358 $433 forward 7 unknown #
straight-curve $-1 0 -34.446690298475986 -9.8901644233232293 -1 0 0 I I #
vertex $-1 $245 $434 #
straight-curve $-1 0 34.446690298475986 -9.8901644233232293 1 0 0 I I #
point $-1 55.631580553605758 34.446690298475986 -9.8901644233232293 #
point $-1 55.631580553605758 -34.446690298475986 -9.8901644233232293 #
straight-curve $-1 -55.631580553605758 0 9.8901644233232293 0 -1 0 I I #
point $-1 -55.631580553605758 34.446690298475986 9.8901644233232293 #
point $-1 -55.631580553605758 -34.446690298475986 9.8901644233232293 #
straight-curve $-1 55.631580553605758 -34.446690298475986 0 0 0 -1 I I #
straight-curve $-1 55.631580553605758 34.446690298475986 0 0 0 -1 I I #
plane-surface $-1 55.631580553605758 0 0 -1 0 0 0 0 1 forward_v I I I I #
coedge $-1 $377 $265 $276 $386 forward $160 $-1 #
coedge $-1 $265 $377 $279 $388 reversed $160 $-1 #
straight-curve $-1 55.631580553605758 -22.517009592769952 3.0468830699367606 0 0 1 I I #
coedge $-1 $375 $374 $268 $378 forward $160 $-1 #
edge $-1 $381 8.2760846199584677 $379 20.205765325664501 $377 $435 forward 7 unknown #
vertex $-1 $270 $436 #
straight-curve $-1 0 -34.446690298475986 3.5061813568690443 1 0 0 I I #
vertex $-1 $378 $437 #
straight-curve $-1 0 -22.517009592769952 3.5061813568690443 1 0 0 I I #
point $-1 55.631580553605758 -34.446690298475986 3.5061813568690443 #
point $-1 55.631580553605758 -22.517009592769952 3.5061813568690443 #
straight-curve $-1 -55.631580553605758 -14.240924972811484 8.6813509228779981 0 1 0 I I #
edge $-1 $277 -5.6344678529412375 $381 -0.45929828693228369 $374 $438 forward 7 unknown #
point $-1 -55.631580553605758 -22.517009592769952 8.6813509228779981 #
edge $-1 $281 -8.6813509228779981 $379 -3.5061813568690443 $375 $439 forward 7 unknown #
point $-1 -55.631580553605758 -34.446690298475986 8.6813509228779981 #
straight-curve $-1 55.631580553605758 -34.446690298475986 0 0 0 -1 I I #
plane-surface $-1 0 34.446690298475986 0 0 -1 0 0 0 -1 forward_v I I I I #
coedge $-1 $290 $401 $292 $395 forward $287 $-1 #
vertex $-1 $395 $440 #
straight-curve $-1 -55.631580553605758 22.517009592769952 3.0468830699367606 0 0 1 I I #
edge $-1 $397 -20.205765325664501 $393 -8.2760846199584677 $392 $441 forward 7 unknown #
straight-curve $-1 0 22.517009592769952 3.5061813568690443 -1 0 0 I I #
vertex $-1 $295 $442 #
straight-curve $-1 0 34.446690298475986 3.5061813568690443 -1 0 0 I I #
point $-1 55.631580553605758 22.517009592769952 3.5061813568690443 #
point $-1 55.631580553605758 34.446690298475986 3.5061813568690443 #
coedge $-1 $392 $299 $302 $403 forward $287 $-1 #
straight-curve $-1 -55.631580553605758 14.240924972811484 8.6813509228779981 0 1 0 I I #
edge $-1 $304 -8.6813509228779981 $397 -3.5061813568690443 $302 $443 forward 7 unknown #
point $-1 -55.631580553605758 34.446690298475986 8.6813509228779981 #
point $-1 -55.631580553605758 22.517009592769952 8.6813509228779981 #
straight-curve $-1 55.631580553605758 22.517009592769952 3.0468830699367606 0 0 -1 I I #
straight-curve $-1 55.631580553605758 34.446690298475986 0 0 0 -1 I I #
edge $-1 $409 -27.815789363972868 $412 -21.210370675054378 $314 $444 forward 7 unknown #
vertex $-1 $408 $445 #
straight-curve $-1 55.631580553605758 -2.1512748970692499 80.317308505723233 0 0 1 I I #
edge $-1 $412 -1.8481547251209474 $325 9.8470139695013419 $324 $446 forward 7 unknown #
vertex $-1 $411 $447 #
straight-curve $-1 -23.04335424872481 -2.1512748970692499 81.959682209115883 0.70710677298230451 0 -0.70710678939079041 I I #
point $-1 55.631580553605758 -2.1512748970692499 3.284745581125307 #
point $-1 49.026161864687268 -13.846443591691539 9.8901644233232275 #
straight-curve $-1 55.631580553605758 0 9.8901644233232293 0 1 0 I I #
vertex $-1 $331 $448 #
point $-1 52.127401757460063 -7.9988592443803945 4.9717720092483217 #
coedge $-1 $346 $345 $338 $420 forward $335 $-1 #
edge $-1 $421 11.521678037192416 $424 18.127096726110928 $419 $449 forward 7 unknown #
vertex $-1 $420 $450 #
straight-curve $-1 -55.631580553605758 -13.846443591691539 40.979840191727938 0 0 1 I I #
edge $-1 $424 -9.8470139695013419 $347 1.8481547251209474 $346 $451 forward 7 unknown #
vertex $-1 $423 $452 #
straight-curve $-1 -55.631580553605758 -13.846443591691539 3.2847455811252928 -0.70710677298230451 0 -0.70710678939079041 I I #
point $-1 -55.631580553605758 -13.846443591691539 3.2847455811252928 #
point $-1 -49.026161864687246 -2.1512748970692499 9.8901644233232293 #
straight-curve $-1 -55.631580553605758 0 9.8901644233232293 0 -1 0 I I #
vertex $-1 $353 $453 #
point $-1 -50.713188211495456 -7.9988592443803945 6.3859855880299179 #
straight-curve $-1 -55.631580553605758 34.446690298475986 0 0 0 -1 I I #
point $-1 -55.631580553605758 -34.446690298475986 -9.8901644233232293 #
straight-curve $-1 -55.631580553605758 0 -9.8901644233232293 0 1 0 I I #
point $-1 -55.631580553605758 34.446690298475986 -9.8901644233232293 #
straight-curve $-1 -55.631580553605758 -14.240924972811484 3.5061813568690443 0 -1 0 I I #
point $-1 -55.631580553605758 -34.446690298475986 3.5061813568690443 #
point $-1 -55.631580553605758 -22.517009592769952 3.5061813568690443 #
straight-curve $-1 -55.631580553605758 -22.517009592769952 3.0468830699367606 0 0 -1 I I #
straight-curve $-1 -55.631580553605758 -34.446690298475986 0 0 0 -1 I I #
point $-1 -55.631580553605758 22.517009592769952 3.5061813568690443 #
straight-curve $-1 -55.631580553605758 14.240924972811484 3.5061813568690443 0 -1 0 I I #
point $-1 -55.631580553605758 34.446690298475986 3.5061813568690443 #
straight-curve $-1 -55.631580553605758 34.446690298475986 0 0 0 -1 I I #
straight-curve $-1 27.81579118963289 -2.1512748970692499 9.8901644233232275 -1 0 0 I I #
point $-1 55.631580553605758 -2.1512748970692499 9.8901644233232293 #
straight-curve $-1 49.026161864687246 -3.9994296221901973 9.8901644233232204 0 -1 0 I I #
point $-1 49.026161864687268 -2.1512748970692499 9.8901644233232275 #
point $-1 50.713188195086971 -7.9988592443803945 4.971772025656807 #
straight-curve $-1 -67.153258590798174 -13.846443591691539 9.8901644233232275 1 0 0 I I #
point $-1 -55.631580553605758 -13.846443591691539 9.8901644233232293 #
straight-curve $-1 -49.026161864687239 -3.9994296221901973 9.8901644233232275 0 1 0 I I #
point $-1 -49.026161864687246 -13.846443591691539 9.8901644233232293 #
point $-1 -50.713188195086971 -7.9988592443803945 4.971772025656823 #
End-of-ACIS-data 