500 0 3 0           
7 Unknown 11 ACIS 5.0 NT 24 Fri Mar 26 15:15:35 1999 
-1 9.9999999999999995e-007 1e-010 
body $-1 $3 $-1 $4 #
body $-1 $5 $-1 $6 #
body $-1 $7 $-1 $8 #
lump $-1 $-1 $9 $0 #
transform $-1 1 0 0 0 1 0 0 0 1 70.384228034302794 37.26624379985725 11.374580648686553 1 rotate no_reflect no_shear #
lump $-1 $-1 $10 $1 #
transform $-1 1 0 0 0 1 0 0 0 1 70.384228034302794 37.26624379985725 11.374580648686553 1 rotate no_reflect no_shear #
lump $-1 $-1 $11 $2 #
transform $-1 1 0 0 0 1 0 0 0 1 70.384228034302794 37.26624379985725 11.374580648686553 1 rotate no_reflect no_shear #
shell $-1 $-1 $-1 $12 $-1 $3 #
shell $-1 $-1 $-1 $13 $-1 $5 #
shell $-1 $-1 $-1 $14 $-1 $7 #
face $-1 $15 $16 $9 $-1 $17 forward single #
face $-1 $18 $19 $10 $-1 $20 reversed single #
face $-1 $21 $22 $11 $-1 $23 forward single #
face $-1 $24 $25 $9 $-1 $26 reversed single #
loop $-1 $-1 $27 $12 #
plane-surface $-1 0 0 11.374580648686553 0 0 1 1 0 0 forward_v I I I I #
face $-1 $28 $29 $10 $-1 $30 reversed single #
loop $-1 $-1 $31 $13 #
plane-surface $-1 -185.6949977392926 -28.425931502231887 85.982896622141652 0 -1 0 0.81915205242281985 0 -0.57357642473473569 forward_v I I I I #
face $-1 $32 $33 $11 $-1 $34 forward single #
loop $-1 $35 $36 $14 #
cone-surface $-1 -67.045684419587687 -32.84608765104457 7.4738446569198054 0.81915205242281985 0 -0.57357642473473569 0.86036463710210354 0 1.2287280786342298 1 I I 0 1 1.5 forward I I I I #
face $-1 $37 $38 $9 $-1 $39 reversed single #
loop $-1 $-1 $40 $15 #
plane-surface $-1 0 0 -11.374580648686553 0 0 1 1 0 0 forward_v I I I I #
coedge $-1 $41 $42 $43 $44 forward $16 $-1 #
face $-1 $45 $46 $10 $-1 $47 forward single #
loop $-1 $-1 $48 $18 #
plane-surface $-1 -70.38422803430278 -32.84608765104457 5.2414288748821463 -0.81915205242281985 0 0.57357642473473569 0.57357642473473569 0 0.81915205242281985 forward_v I I I I #
coedge $-1 $49 $50 $51 $52 reversed $19 $-1 #
face $-1 $-1 $53 $11 $-1 $54 forward single #
loop $-1 $55 $56 $21 #
cone-surface $-1 -65.240016253248541 -32.84608765104457 6.2095022335042032 0.81915205242281985 0 -0.57357642473473569 0.43018231855105177 0 0.61436403931711492 1 I I -0.70710678118654757 0.70710678118654757 0.75 forward I I I I #
loop $-1 $-1 $57 $14 #
coedge $-1 $36 $36 $58 $59 reversed $22 $-1 #
face $-1 $60 $61 $9 $-1 $62 reversed single #
loop $-1 $-1 $63 $24 #
plane-surface $-1 0 -37.26624379985725 0 0 1 0 0 0 1 forward_v I I I I #
coedge $-1 $64 $65 $66 $67 forward $25 $-1 #
coedge $-1 $68 $27 $69 $70 forward $16 $-1 #
coedge $-1 $27 $68 $71 $72 forward $16 $-1 #
coedge $-1 $73 $74 $27 $44 reversed $75 $-1 #
edge $-1 $76 -37.26624379985725 $77 37.26624379985725 $43 $78 forward 7 unknown #
face $-1 $79 $80 $10 $-1 $81 reversed single #
loop $-1 $-1 $82 $28 #
plane-surface $-1 0 0 11.374580648686553 0 0 1 1 0 0 forward_v I I I I #
coedge $-1 $83 $84 $85 $86 reversed $29 $-1 #
coedge $-1 $50 $31 $87 $88 reversed $19 $-1 #
coedge $-1 $31 $49 $83 $89 reversed $19 $-1 #
coedge $-1 $85 $90 $31 $52 forward $80 $-1 #
edge $-1 $91 31.616867662384273 $92 37.750019436188701 $51 $93 forward 7 unknown #
loop $-1 $-1 $58 $32 #
plane-surface $-1 -70.38422803430278 -32.84608765104457 5.2414288748821463 -0.81915205242281985 0 0.57357642473473569 0.57357642473473569 0 0.81915205242281985 forward_v I I I I #
loop $-1 $-1 $94 $21 #
coedge $-1 $56 $56 $57 $95 reversed $33 $-1 #
coedge $-1 $57 $57 $56 $95 forward $35 $-1 #
coedge $-1 $58 $58 $36 $59 forward $53 $-1 #
edge $-1 $96 0 $96 6.2831853071796004 $58 $97 forward 7 unknown #
face $-1 $98 $99 $9 $-1 $100 reversed single #
loop $-1 $-1 $101 $37 #
plane-surface $-1 -70.384228034302794 0 0 1 0 0 0 0 -1 forward_v I I I I #
coedge $-1 $102 $71 $103 $104 forward $38 $-1 #
coedge $-1 $105 $40 $102 $106 forward $25 $-1 #
coedge $-1 $40 $105 $107 $108 forward $25 $-1 #
coedge $-1 $74 $73 $40 $67 reversed $75 $-1 #
edge $-1 $109 -37.26624379985725 $110 37.26624379985725 $66 $111 forward 7 unknown #
coedge $-1 $42 $41 $112 $113 forward $16 $-1 #
coedge $-1 $114 $115 $41 $70 reversed $99 $-1 #
edge $-1 $77 -70.384228034302794 $116 70.384228034302794 $69 $117 forward 7 unknown #
coedge $-1 $63 $118 $42 $72 reversed $38 $-1 #
edge $-1 $119 -70.384228034302794 $76 70.384228034302794 $71 $120 forward 7 unknown #
coedge $-1 $66 $43 $118 $121 forward $75 $-1 #
coedge $-1 $43 $66 $114 $122 reversed $75 $-1 #
loop $-1 $-1 $73 $98 #
vertex $-1 $44 $123 #
vertex $-1 $44 $124 #
straight-curve $-1 70.384228034302794 0 11.374580648686553 0 1 0 I I #
face $-1 $-1 $125 $10 $-1 $126 reversed single #
loop $-1 $-1 $51 $45 #
plane-surface $-1 -70.384228034302794 0 0 1 0 0 0 0 -1 forward_v I I I I #
coedge $-1 $87 $127 $128 $129 forward $46 $-1 #
coedge $-1 $128 $48 $50 $89 forward $29 $-1 #
coedge $-1 $48 $128 $130 $131 reversed $29 $-1 #
coedge $-1 $132 $51 $48 $86 forward $80 $-1 #
edge $-1 $92 12.002887676709602 $133 20.843199974334965 $85 $134 forward 7 unknown #
coedge $-1 $135 $82 $49 $88 forward $46 $-1 #
edge $-1 $136 -26.757749810729692 $91 -22.463270835343508 $87 $137 forward 7 unknown #
edge $-1 $92 -2.4884734274515653e-014 $136 7.4871957601330283 $50 $138 forward 7 unknown #
coedge $-1 $51 $132 $135 $139 reversed $80 $-1 #
vertex $-1 $139 $140 #
vertex $-1 $52 $141 #
straight-curve $-1 -70.384228034302794 -28.425931502231887 42.991448311070826 0 0 -1 I I #
coedge $-1 $94 $94 $-1 $142 reversed $55 $-1 #
edge $-1 $143 0 $143 6.2831853071796004 $56 $144 forward 7 unknown #
vertex $-1 $59 $145 #
ellipse-curve $-1 -68.236988546609695 -32.84608765104457 8.3080047617843427 -0.81915205242281985 0 0.57357642473473569 0.86036463710210354 0 1.2287280786342298 1 I I #
face $-1 $-1 $75 $9 $-1 $146 reversed single #
loop $-1 $-1 $114 $60 #
plane-surface $-1 0 37.26624379985725 0 0 -1 0 0 0 -1 forward_v I I I I #
coedge $-1 $147 $112 $115 $148 forward $61 $-1 #
coedge $-1 $118 $63 $64 $106 reversed $38 $-1 #
coedge $-1 $112 $147 $63 $104 reversed $61 $-1 #
edge $-1 $119 -11.374580648686553 $149 11.374580648686553 $103 $150 forward 7 unknown #
coedge $-1 $65 $64 $147 $151 forward $25 $-1 #
edge $-1 $110 -70.384228034302794 $149 70.384228034302794 $102 $152 forward 7 unknown #
coedge $-1 $115 $114 $65 $108 reversed $99 $-1 #
edge $-1 $153 -70.384228034302794 $109 70.384228034302794 $107 $154 forward 7 unknown #
vertex $-1 $67 $155 #
vertex $-1 $121 $156 #
straight-curve $-1 70.384228034302794 0 -11.374580648686553 0 -1 0 I I #
coedge $-1 $101 $103 $68 $113 reversed $61 $-1 #
edge $-1 $116 -37.26624379985725 $119 37.26624379985725 $112 $157 forward 7 unknown #
coedge $-1 $107 $69 $74 $122 forward $99 $-1 #
coedge $-1 $69 $107 $101 $148 reversed $99 $-1 #
vertex $-1 $70 $158 #
straight-curve $-1 0 37.26624379985725 11.374580648686553 -1 0 0 I I #
coedge $-1 $71 $102 $73 $121 reversed $38 $-1 #
vertex $-1 $113 $159 #
straight-curve $-1 0 -37.26624379985725 11.374580648686553 1 0 0 I I #
edge $-1 $76 -11.374580648686553 $110 11.374580648686553 $73 $160 forward 7 unknown #
edge $-1 $77 -11.374580648686553 $109 11.374580648686553 $74 $161 forward 7 unknown #
point $-1 70.384228034302794 -37.26624379985725 11.374580648686553 #
point $-1 70.384228034302794 37.26624379985725 11.374580648686553 #
loop $-1 $-1 $130 $79 #
plane-surface $-1 0 -37.26624379985725 0 0 1 0 0 0 1 forward_v I I I I #
coedge $-1 $82 $135 $162 $163 forward $46 $-1 #
coedge $-1 $84 $83 $82 $129 reversed $29 $-1 #
edge $-1 $164 -20.843199974334965 $136 -12.002887676709602 $82 $165 forward 7 unknown #
coedge $-1 $162 $166 $84 $131 forward $125 $-1 #
edge $-1 $133 -18.038603326570925 $164 -10.551407566437872 $130 $167 forward 7 unknown #
coedge $-1 $90 $85 $166 $168 reversed $80 $-1 #
vertex $-1 $86 $169 #
straight-curve $-1 -70.384228034302794 -16.423043825522285 5.2414288748821347 0 -1 0 I I #
coedge $-1 $127 $87 $90 $139 forward $46 $-1 #
vertex $-1 $88 $170 #
straight-curve $-1 -92.847498869646302 -28.425931502231887 11.374580648686553 -1 0 0 I I #
straight-curve $-1 -70.38422803430278 -28.425931502231887 5.2414288748821463 0.57357642473473569 0 0.81915205242281985 I I #
edge $-1 $91 28.425931502231887 $171 37.26624379985725 $90 $172 forward 7 unknown #
point $-1 -70.384228034302794 -28.425931502231887 11.374580648686553 #
point $-1 -70.384228034302794 -28.425931502231887 5.2414288748821258 #
edge $-1 $173 1 $173 0 $94 $-1 forward 7 unknown #
vertex $-1 $95 $174 #
ellipse-curve $-1 -65.854380292565651 -32.84608765104457 6.6396845520552548 -0.81915205242281985 0 0.57357642473473569 0.86036463710210354 0 1.2287280786342298 1 I I #
point $-1 -67.376623909507614 -32.84608765104457 9.5367328404185852 #
plane-surface $-1 70.384228034302794 0 0 -1 0 0 0 0 1 forward_v I I I I #
coedge $-1 $103 $101 $105 $151 reversed $61 $-1 #
edge $-1 $116 -11.374580648686553 $153 11.374580648686553 $115 $175 forward 7 unknown #
vertex $-1 $151 $176 #
straight-curve $-1 -70.384228034302794 -37.26624379985725 0 0 0 -1 I I #
edge $-1 $149 -37.26624379985725 $153 37.26624379985725 $147 $177 forward 7 unknown #
straight-curve $-1 0 -37.26624379985725 -11.374580648686553 -1 0 0 I I #
vertex $-1 $108 $178 #
straight-curve $-1 0 37.26624379985725 -11.374580648686553 1 0 0 I I #
point $-1 70.384228034302794 37.26624379985725 -11.374580648686553 #
point $-1 70.384228034302794 -37.26624379985725 -11.374580648686553 #
straight-curve $-1 -70.384228034302794 0 11.374580648686553 0 -1 0 I I #
point $-1 -70.384228034302794 37.26624379985725 11.374580648686553 #
point $-1 -70.384228034302794 -37.26624379985725 11.374580648686553 #
straight-curve $-1 70.384228034302794 -37.26624379985725 0 0 0 -1 I I #
straight-curve $-1 70.384228034302794 37.26624379985725 0 0 0 -1 I I #
coedge $-1 $166 $130 $127 $163 reversed $125 $-1 #
edge $-1 $171 -70.384228034302794 $164 -66.08974905891661 $162 $179 forward 7 unknown #
vertex $-1 $131 $180 #
straight-curve $-1 -66.08974905891661 -16.423043825522285 11.374580648686553 0 1 0 I I #
coedge $-1 $130 $162 $132 $168 forward $125 $-1 #
straight-curve $-1 -60.037710431040139 -37.26624379985725 20.017787812683807 0.57357642473473569 0 0.81915205242281985 I I #
edge $-1 $171 -11.374580648686553 $133 -5.2414288748821258 $132 $181 forward 7 unknown #
point $-1 -70.384228034302794 -37.26624379985725 5.2414288748821258 #
point $-1 -66.08974905891661 -28.425931502231887 11.374580648686553 #
vertex $-1 $139 $182 #
straight-curve $-1 -70.384228034302794 0 11.374580648686553 0 -1 0 I I #
vertex $-1 $142 $183 #
point $-1 -64.994015655463556 -32.84608765104457 7.8684126306894848 #
straight-curve $-1 -70.384228034302794 37.26624379985725 0 0 0 -1 I I #
point $-1 -70.384228034302794 -37.26624379985725 -11.374580648686553 #
straight-curve $-1 -70.384228034302794 0 -11.374580648686553 0 1 0 I I #
point $-1 -70.384228034302794 37.26624379985725 -11.374580648686553 #
straight-curve $-1 0 -37.26624379985725 11.374580648686553 1 0 0 I I #
point $-1 -66.08974905891661 -37.26624379985725 11.374580648686553 #
straight-curve $-1 -70.384228034302794 -37.26624379985725 0 0 0 -1 I I #
point $-1 -70.384228034302794 -37.26624379985725 11.374580648686553 #
point $-1 -64.625652213931431 -32.84608765104457 5.7793199149531516 #
End-of-ACIS-data 