500 0 21 0           
7 Unknown 11 ACIS 5.0 NT 24 Thu Mar 25 16:27:56 1999 
-1 9.9999999999999995e-007 1e-010 
body $-1 $21 $-1 $22 #
body $-1 $23 $-1 $24 #
body $-1 $25 $-1 $26 #
body $-1 $27 $-1 $28 #
body $-1 $29 $-1 $30 #
body $-1 $31 $-1 $32 #
body $-1 $33 $-1 $34 #
body $-1 $35 $-1 $36 #
body $-1 $37 $-1 $38 #
body $-1 $39 $-1 $40 #
body $-1 $41 $-1 $42 #
body $-1 $43 $-1 $44 #
body $-1 $45 $-1 $46 #
body $-1 $47 $-1 $48 #
body $-1 $49 $-1 $50 #
body $-1 $51 $-1 $52 #
body $-1 $53 $-1 $54 #
body $-1 $55 $-1 $56 #
body $-1 $57 $-1 $58 #
body $-1 $59 $-1 $60 #
body $-1 $61 $-1 $62 #
lump $-1 $-1 $63 $0 #
transform $-1 1 0 0 0 1 0 0 0 1 74.555497909482099 46.941044331845163 23.264661755433792 1 rotate no_reflect no_shear #
lump $-1 $-1 $64 $1 #
transform $-1 1 0 0 0 1 0 0 0 1 23.724753968570937 12.838050533054892 23.264661755433792 1 rotate no_reflect no_shear #
lump $-1 $-1 $65 $2 #
transform $-1 0.49999998660252726 0 0.86602541151947299 0 1 0 -0.86602541151947299 0 0.49999998660252726 -129.13391151619689 36.840051787326367 99.168991167025368 1 rotate no_reflect no_shear #
lump $-1 $-1 $66 $3 #
transform $-1 0.49999998660252726 0 0.86602541151947299 0 -1 0 0.86602541151947299 0 -0.49999998660252726 9.0229099088590328 33.307524080419235 34.014667886030232 1 rotate no_reflect no_shear #
lump $-1 $-1 $67 $4 #
transform $-1 0.49999998660252726 0 0.86602541151947299 0 -1 0 0.86602541151947299 0 -0.49999998660252726 9.0229099088590328 36.840051787326367 34.014667886030232 1 rotate no_reflect no_shear #
lump $-1 $-1 $68 $5 #
transform $-1 0.49999998660252726 0 0.86602541151947299 0 -1 0 0.86602541151947299 0 -0.49999998660252726 9.0229099088590328 40.372579494233499 34.014667886030232 1 rotate no_reflect no_shear #
lump $-1 $-1 $69 $6 #
transform $-1 0.49999998660252726 0 0.86602541151947299 0 1 0 -0.86602541151947299 0 0.49999998660252726 -129.13391151619689 52.132747172375495 99.168991167025368 1 rotate no_reflect no_shear #
lump $-1 $-1 $70 $7 #
transform $-1 0.49999998660252726 0 0.86602541151947299 0 -1 0 0.86602541151947299 0 -0.49999998660252726 9.0229099088590328 48.600219465468363 34.014667886030232 1 rotate no_reflect no_shear #
lump $-1 $-1 $71 $8 #
transform $-1 0.49999998660252726 0 0.86602541151947299 0 -1 0 0.86602541151947299 0 -0.49999998660252726 9.0229099088590328 52.132747172375495 34.014667886030232 1 rotate no_reflect no_shear #
lump $-1 $-1 $72 $9 #
transform $-1 0.49999998660252726 0 0.86602541151947299 0 -1 0 0.86602541151947299 0 -0.49999998660252726 9.0229099088590328 55.665274879282627 34.014667886030232 1 rotate no_reflect no_shear #
lump $-1 $-1 $73 $10 #
transform $-1 0.49999998660252726 0 0.86602541151947299 0 1 0 -0.86602541151947299 0 0.49999998660252726 -129.13391151619689 67.425442557424617 99.168991167025368 1 rotate no_reflect no_shear #
lump $-1 $-1 $74 $11 #
transform $-1 0.49999998660252726 0 0.86602541151947299 0 -1 0 0.86602541151947299 0 -0.49999998660252726 9.0229099088590328 63.892914850517492 34.014667886030232 1 rotate no_reflect no_shear #
lump $-1 $-1 $75 $12 #
transform $-1 0.49999998660252726 0 0.86602541151947299 0 -1 0 0.86602541151947299 0 -0.49999998660252726 9.0229099088590328 67.425442557424617 34.014667886030232 1 rotate no_reflect no_shear #
lump $-1 $-1 $76 $13 #
transform $-1 0.49999998660252726 0 0.86602541151947299 0 -1 0 0.86602541151947299 0 -0.49999998660252726 9.0229099088590328 70.957970264331749 34.014667886030232 1 rotate no_reflect no_shear #
lump $-1 $-1 $77 $14 #
transform $-1 0.49999998660252726 0 0.86602541151947299 0 1 0 -0.86602541151947299 0 0.49999998660252726 -129.13391151619689 82.718137942473746 99.168991167025368 1 rotate no_reflect no_shear #
lump $-1 $-1 $78 $15 #
transform $-1 0.49999998660252726 0 0.86602541151947299 0 -1 0 0.86602541151947299 0 -0.49999998660252726 9.0229099088590328 79.185610235566628 34.014667886030232 1 rotate no_reflect no_shear #
lump $-1 $-1 $79 $16 #
transform $-1 0.49999998660252726 0 0.86602541151947299 0 -1 0 0.86602541151947299 0 -0.49999998660252726 9.0229099088590328 82.718137942473746 34.014667886030232 1 rotate no_reflect no_shear #
lump $-1 $-1 $80 $17 #
transform $-1 0.49999998660252726 0 0.86602541151947299 0 -1 0 0.86602541151947299 0 -0.49999998660252726 9.0229099088590328 86.250665649380878 34.014667886030232 1 rotate no_reflect no_shear #
lump $-1 $-1 $81 $18 #
transform $-1 0.49999998660252726 0 -0.86602541151947299 0 1 0 0.86602541151947299 0 0.49999998660252726 203.68941142338952 34.717188038695348 234.84731171352712 1 rotate no_reflect no_shear #
lump $-1 $-1 $82 $19 #
transform $-1 0.49999998660252726 0 -0.86602541151947299 0 -1 0 -0.86602541151947299 0 -0.49999998660252726 141.62631940839265 30.84243647901582 37.084237133319036 1 rotate no_reflect no_shear #
lump $-1 $-1 $83 $20 #
transform $-1 0.49999998660252726 0 -0.86602541151947299 0 -1 0 -0.86602541151947299 0 -0.49999998660252726 141.62631940839265 38.591939598374879 37.084237133319036 1 rotate no_reflect no_shear #
shell $-1 $-1 $-1 $84 $-1 $21 #
shell $-1 $-1 $-1 $85 $-1 $23 #
shell $-1 $-1 $-1 $86 $-1 $25 #
shell $-1 $-1 $-1 $87 $-1 $27 #
shell $-1 $-1 $-1 $88 $-1 $29 #
shell $-1 $-1 $-1 $89 $-1 $31 #
shell $-1 $-1 $-1 $90 $-1 $33 #
shell $-1 $-1 $-1 $91 $-1 $35 #
shell $-1 $-1 $-1 $92 $-1 $37 #
shell $-1 $-1 $-1 $93 $-1 $39 #
shell $-1 $-1 $-1 $94 $-1 $41 #
shell $-1 $-1 $-1 $95 $-1 $43 #
shell $-1 $-1 $-1 $96 $-1 $45 #
shell $-1 $-1 $-1 $97 $-1 $47 #
shell $-1 $-1 $-1 $98 $-1 $49 #
shell $-1 $-1 $-1 $99 $-1 $51 #
shell $-1 $-1 $-1 $100 $-1 $53 #
shell $-1 $-1 $-1 $101 $-1 $55 #
shell $-1 $-1 $-1 $102 $-1 $57 #
shell $-1 $-1 $-1 $103 $-1 $59 #
shell $-1 $-1 $-1 $104 $-1 $61 #
face $-1 $105 $106 $63 $-1 $107 forward single #
face $-1 $108 $109 $64 $-1 $110 forward single #
face $-1 $111 $112 $65 $-1 $113 forward single #
face $-1 $114 $115 $66 $-1 $116 forward single #
face $-1 $117 $118 $67 $-1 $119 forward single #
face $-1 $120 $121 $68 $-1 $122 forward single #
face $-1 $123 $124 $69 $-1 $125 forward single #
face $-1 $126 $127 $70 $-1 $128 forward single #
face $-1 $129 $130 $71 $-1 $131 forward single #
face $-1 $132 $133 $72 $-1 $134 forward single #
face $-1 $135 $136 $73 $-1 $137 forward single #
face $-1 $138 $139 $74 $-1 $140 forward single #
face $-1 $141 $142 $75 $-1 $143 forward single #
face $-1 $144 $145 $76 $-1 $146 forward single #
face $-1 $147 $148 $77 $-1 $149 forward single #
face $-1 $150 $151 $78 $-1 $152 forward single #
face $-1 $153 $154 $79 $-1 $155 forward single #
face $-1 $156 $157 $80 $-1 $158 forward single #
face $-1 $159 $160 $81 $-1 $161 forward single #
face $-1 $162 $163 $82 $-1 $164 forward single #
face $-1 $165 $166 $83 $-1 $167 forward single #
face $-1 $168 $169 $63 $-1 $170 reversed single #
loop $-1 $-1 $171 $84 #
plane-surface $-1 0 0 23.264661755433792 0 0 1 1 0 0 forward_v I I I I #
face $-1 $172 $173 $64 $-1 $174 reversed single #
loop $-1 $-1 $175 $85 #
plane-surface $-1 0 0 23.264661755433792 0 0 1 1 0 0 forward_v I I I I #
face $-1 $176 $177 $65 $-1 $178 reversed single #
loop $-1 $-1 $179 $86 #
plane-surface $-1 0 0 149.1109958189642 0 0 1 1 0 0 forward_v I I I I #
face $-1 $180 $181 $66 $-1 $182 forward single #
loop $-1 $183 $184 $87 #
cone-surface $-1 0 0 -1.8067415387432497 0 0 1 1 0 0 1 I I 0 1 1 forward I I I I #
face $-1 $185 $186 $67 $-1 $187 forward single #
loop $-1 $188 $189 $88 #
cone-surface $-1 0 0 -1.8067415387432497 0 0 1 1 0 0 1 I I 0 1 1 forward I I I I #
face $-1 $190 $191 $68 $-1 $192 forward single #
loop $-1 $193 $194 $89 #
cone-surface $-1 0 0 -1.8067415387432497 0 0 1 1 0 0 1 I I 0 1 1 forward I I I I #
face $-1 $195 $196 $69 $-1 $197 reversed single #
loop $-1 $-1 $198 $90 #
plane-surface $-1 0 0 149.1109958189642 0 0 1 1 0 0 forward_v I I I I #
face $-1 $199 $200 $70 $-1 $201 forward single #
loop $-1 $202 $203 $91 #
cone-surface $-1 0 0 -1.8067415387432497 0 0 1 1 0 0 1 I I 0 1 1 forward I I I I #
face $-1 $204 $205 $71 $-1 $206 forward single #
loop $-1 $207 $208 $92 #
cone-surface $-1 0 0 -1.8067415387432497 0 0 1 1 0 0 1 I I 0 1 1 forward I I I I #
face $-1 $209 $210 $72 $-1 $211 forward single #
loop $-1 $212 $213 $93 #
cone-surface $-1 0 0 -1.8067415387432497 0 0 1 1 0 0 1 I I 0 1 1 forward I I I I #
face $-1 $214 $215 $73 $-1 $216 reversed single #
loop $-1 $-1 $217 $94 #
plane-surface $-1 0 0 149.1109958189642 0 0 1 1 0 0 forward_v I I I I #
face $-1 $218 $219 $74 $-1 $220 forward single #
loop $-1 $221 $222 $95 #
cone-surface $-1 0 0 -1.8067415387432497 0 0 1 1 0 0 1 I I 0 1 1 forward I I I I #
face $-1 $223 $224 $75 $-1 $225 forward single #
loop $-1 $226 $227 $96 #
cone-surface $-1 0 0 -1.8067415387432497 0 0 1 1 0 0 1 I I 0 1 1 forward I I I I #
face $-1 $228 $229 $76 $-1 $230 forward single #
loop $-1 $231 $232 $97 #
cone-surface $-1 0 0 -1.8067415387432497 0 0 1 1 0 0 1 I I 0 1 1 forward I I I I #
face $-1 $233 $234 $77 $-1 $235 reversed single #
loop $-1 $-1 $236 $98 #
plane-surface $-1 0 0 149.1109958189642 0 0 1 1 0 0 forward_v I I I I #
face $-1 $237 $238 $78 $-1 $239 forward single #
loop $-1 $240 $241 $99 #
cone-surface $-1 0 0 -1.8067415387432497 0 0 1 1 0 0 1 I I 0 1 1 forward I I I I #
face $-1 $242 $243 $79 $-1 $244 forward single #
loop $-1 $245 $246 $100 #
cone-surface $-1 0 0 -1.8067415387432497 0 0 1 1 0 0 1 I I 0 1 1 forward I I I I #
face $-1 $247 $248 $80 $-1 $249 forward single #
loop $-1 $250 $251 $101 #
cone-surface $-1 0 0 -1.8067415387432497 0 0 1 1 0 0 1 I I 0 1 1 forward I I I I #
face $-1 $252 $253 $81 $-1 $254 reversed single #
loop $-1 $-1 $255 $102 #
plane-surface $-1 0 0 149.11099581896423 0 0 1 1 0 0 forward_v I I I I #
face $-1 $256 $257 $82 $-1 $258 forward single #
loop $-1 $259 $260 $103 #
cone-surface $-1 0 0 -2.2593768120364999 0 0 1 2 0 0 1 I I 0 1 2 forward I I I I #
face $-1 $261 $262 $83 $-1 $263 forward single #
loop $-1 $264 $265 $104 #
cone-surface $-1 0 0 -2.2593768120364999 0 0 1 2 0 0 1 I I 0 1 2 forward I I I I #
face $-1 $266 $267 $63 $-1 $268 reversed single #
loop $-1 $-1 $269 $105 #
plane-surface $-1 0 0 -23.264661755433792 0 0 1 1 0 0 forward_v I I I I #
coedge $-1 $270 $271 $272 $273 forward $106 $-1 #
face $-1 $274 $275 $64 $-1 $276 reversed single #
loop $-1 $-1 $277 $108 #
plane-surface $-1 0 0 -23.264661755433792 0 0 1 1 0 0 forward_v I I I I #
coedge $-1 $278 $279 $280 $281 forward $109 $-1 #
face $-1 $282 $283 $65 $-1 $284 reversed single #
loop $-1 $-1 $285 $111 #
plane-surface $-1 0 0 -149.1109958189642 0 0 1 1 0 0 forward_v I I I I #
coedge $-1 $286 $287 $288 $289 forward $112 $-1 #
face $-1 $-1 $290 $66 $-1 $291 forward single #
loop $-1 $-1 $292 $114 #
plane-surface $-1 0 0 -3.1134830774864977 0 0 -1 -1 0 0 forward_v I I I I #
loop $-1 $-1 $293 $87 #
coedge $-1 $184 $184 $292 $294 reversed $115 $-1 #
face $-1 $-1 $295 $67 $-1 $296 forward single #
loop $-1 $-1 $297 $117 #
plane-surface $-1 0 0 -3.1134830774864977 0 0 -1 -1 0 0 forward_v I I I I #
loop $-1 $-1 $298 $88 #
coedge $-1 $189 $189 $297 $299 reversed $118 $-1 #
face $-1 $-1 $300 $68 $-1 $301 forward single #
loop $-1 $-1 $302 $120 #
plane-surface $-1 0 0 -3.1134830774864977 0 0 -1 -1 0 0 forward_v I I I I #
loop $-1 $-1 $303 $89 #
coedge $-1 $194 $194 $302 $304 reversed $121 $-1 #
face $-1 $305 $306 $69 $-1 $307 reversed single #
loop $-1 $-1 $308 $123 #
plane-surface $-1 0 0 -149.1109958189642 0 0 1 1 0 0 forward_v I I I I #
coedge $-1 $309 $310 $311 $312 forward $124 $-1 #
face $-1 $-1 $313 $70 $-1 $314 forward single #
loop $-1 $-1 $315 $126 #
plane-surface $-1 0 0 -3.1134830774864977 0 0 -1 -1 0 0 forward_v I I I I #
loop $-1 $-1 $316 $91 #
coedge $-1 $203 $203 $315 $317 reversed $127 $-1 #
face $-1 $-1 $318 $71 $-1 $319 forward single #
loop $-1 $-1 $320 $129 #
plane-surface $-1 0 0 -3.1134830774864977 0 0 -1 -1 0 0 forward_v I I I I #
loop $-1 $-1 $321 $92 #
coedge $-1 $208 $208 $320 $322 reversed $130 $-1 #
face $-1 $-1 $323 $72 $-1 $324 forward single #
loop $-1 $-1 $325 $132 #
plane-surface $-1 0 0 -3.1134830774864977 0 0 -1 -1 0 0 forward_v I I I I #
loop $-1 $-1 $326 $93 #
coedge $-1 $213 $213 $325 $327 reversed $133 $-1 #
face $-1 $328 $329 $73 $-1 $330 reversed single #
loop $-1 $-1 $331 $135 #
plane-surface $-1 0 0 -149.1109958189642 0 0 1 1 0 0 forward_v I I I I #
coedge $-1 $332 $333 $334 $335 forward $136 $-1 #
face $-1 $-1 $336 $74 $-1 $337 forward single #
loop $-1 $-1 $338 $138 #
plane-surface $-1 0 0 -3.1134830774864977 0 0 -1 -1 0 0 forward_v I I I I #
loop $-1 $-1 $339 $95 #
coedge $-1 $222 $222 $338 $340 reversed $139 $-1 #
face $-1 $-1 $341 $75 $-1 $342 forward single #
loop $-1 $-1 $343 $141 #
plane-surface $-1 0 0 -3.1134830774864977 0 0 -1 -1 0 0 forward_v I I I I #
loop $-1 $-1 $344 $96 #
coedge $-1 $227 $227 $343 $345 reversed $142 $-1 #
face $-1 $-1 $346 $76 $-1 $347 forward single #
loop $-1 $-1 $348 $144 #
plane-surface $-1 0 0 -3.1134830774864977 0 0 -1 -1 0 0 forward_v I I I I #
loop $-1 $-1 $349 $97 #
coedge $-1 $232 $232 $348 $350 reversed $145 $-1 #
face $-1 $351 $352 $77 $-1 $353 reversed single #
loop $-1 $-1 $354 $147 #
plane-surface $-1 0 0 -149.1109958189642 0 0 1 1 0 0 forward_v I I I I #
coedge $-1 $355 $356 $357 $358 forward $148 $-1 #
face $-1 $-1 $359 $78 $-1 $360 forward single #
loop $-1 $-1 $361 $150 #
plane-surface $-1 0 0 -3.1134830774864977 0 0 -1 -1 0 0 forward_v I I I I #
loop $-1 $-1 $362 $99 #
coedge $-1 $241 $241 $361 $363 reversed $151 $-1 #
face $-1 $-1 $364 $79 $-1 $365 forward single #
loop $-1 $-1 $366 $153 #
plane-surface $-1 0 0 -3.1134830774864977 0 0 -1 -1 0 0 forward_v I I I I #
loop $-1 $-1 $367 $100 #
coedge $-1 $246 $246 $366 $368 reversed $154 $-1 #
face $-1 $-1 $369 $80 $-1 $370 forward single #
loop $-1 $-1 $371 $156 #
plane-surface $-1 0 0 -3.1134830774864977 0 0 -1 -1 0 0 forward_v I I I I #
loop $-1 $-1 $372 $101 #
coedge $-1 $251 $251 $371 $373 reversed $157 $-1 #
face $-1 $374 $375 $81 $-1 $376 reversed single #
loop $-1 $-1 $377 $159 #
plane-surface $-1 0 0 -149.11099581896423 0 0 1 1 0 0 forward_v I I I I #
coedge $-1 $378 $379 $380 $381 forward $160 $-1 #
face $-1 $-1 $382 $82 $-1 $383 forward single #
loop $-1 $-1 $384 $162 #
plane-surface $-1 0 0 -3.5187536240729997 0 0 -1 -1 0 0 forward_v I I I I #
loop $-1 $-1 $385 $103 #
coedge $-1 $260 $260 $384 $386 reversed $163 $-1 #
face $-1 $-1 $387 $83 $-1 $388 forward single #
loop $-1 $-1 $389 $165 #
plane-surface $-1 0 0 -3.5187536240729997 0 0 -1 -1 0 0 forward_v I I I I #
loop $-1 $-1 $390 $104 #
coedge $-1 $265 $265 $389 $391 reversed $166 $-1 #
face $-1 $392 $393 $63 $-1 $394 reversed single #
loop $-1 $-1 $395 $168 #
plane-surface $-1 0 -46.941044331845163 0 0 1 0 0 0 1 forward_v I I I I #
coedge $-1 $396 $397 $398 $399 forward $169 $-1 #
coedge $-1 $400 $171 $401 $402 forward $106 $-1 #
coedge $-1 $171 $400 $403 $404 forward $106 $-1 #
coedge $-1 $405 $406 $171 $273 reversed $407 $-1 #
edge $-1 $408 -46.941044331845163 $409 46.941044331845163 $272 $410 forward 7 unknown #
face $-1 $411 $412 $64 $-1 $413 reversed single #
loop $-1 $-1 $414 $172 #
plane-surface $-1 0 -12.838050533054892 0 0 1 0 0 0 1 forward_v I I I I #
coedge $-1 $415 $416 $417 $418 forward $173 $-1 #
coedge $-1 $419 $175 $420 $421 forward $109 $-1 #
coedge $-1 $175 $419 $422 $423 forward $109 $-1 #
coedge $-1 $424 $425 $175 $281 reversed $426 $-1 #
edge $-1 $427 -12.838050533054892 $428 12.838050533054892 $280 $429 forward 7 unknown #
face $-1 $430 $431 $65 $-1 $432 reversed single #
loop $-1 $-1 $433 $176 #
plane-surface $-1 0 -5.8875461781785532 0 0 1 0 0 0 1 forward_v I I I I #
coedge $-1 $434 $435 $436 $437 forward $177 $-1 #
coedge $-1 $438 $179 $439 $440 forward $112 $-1 #
coedge $-1 $179 $438 $441 $442 forward $112 $-1 #
coedge $-1 $443 $444 $179 $289 reversed $445 $-1 #
edge $-1 $446 -5.8875461781785532 $447 5.8875461781785532 $288 $448 forward 7 unknown #
loop $-1 $449 $450 $180 #
cone-surface $-1 0 0 0 0 0 1 0.5 0 0 1 I I -0.70710678118654746 0.70710678118654746 0.5 forward I I I I #
coedge $-1 $292 $292 $184 $294 forward $181 $-1 #
coedge $-1 $293 $293 $450 $451 forward $183 $-1 #
edge $-1 $452 0 $452 6.2831853071796004 $292 $453 forward 7 unknown #
loop $-1 $454 $455 $185 #
cone-surface $-1 0 0 0 0 0 1 0.5 0 0 1 I I -0.70710678118654746 0.70710678118654746 0.5 forward I I I I #
coedge $-1 $297 $297 $189 $299 forward $186 $-1 #
coedge $-1 $298 $298 $455 $456 forward $188 $-1 #
edge $-1 $457 0 $457 6.2831853071796004 $297 $458 forward 7 unknown #
loop $-1 $459 $460 $190 #
cone-surface $-1 0 0 0 0 0 1 0.5 0 0 1 I I -0.70710678118654746 0.70710678118654746 0.5 forward I I I I #
coedge $-1 $302 $302 $194 $304 forward $191 $-1 #
coedge $-1 $303 $303 $460 $461 forward $193 $-1 #
edge $-1 $462 0 $462 6.2831853071796004 $302 $463 forward 7 unknown #
face $-1 $464 $465 $69 $-1 $466 reversed single #
loop $-1 $-1 $467 $195 #
plane-surface $-1 0 -5.8875461781785532 0 0 1 0 0 0 1 forward_v I I I I #
coedge $-1 $468 $469 $470 $471 forward $196 $-1 #
coedge $-1 $472 $198 $473 $474 forward $124 $-1 #
coedge $-1 $198 $472 $475 $476 forward $124 $-1 #
coedge $-1 $477 $478 $198 $312 reversed $479 $-1 #
edge $-1 $480 -5.8875461781785532 $481 5.8875461781785532 $311 $482 forward 7 unknown #
loop $-1 $483 $484 $199 #
cone-surface $-1 0 0 0 0 0 1 0.5 0 0 1 I I -0.70710678118654746 0.70710678118654746 0.5 forward I I I I #
coedge $-1 $315 $315 $203 $317 forward $200 $-1 #
coedge $-1 $316 $316 $484 $485 forward $202 $-1 #
edge $-1 $486 0 $486 6.2831853071796004 $315 $487 forward 7 unknown #
loop $-1 $488 $489 $204 #
cone-surface $-1 0 0 0 0 0 1 0.5 0 0 1 I I -0.70710678118654746 0.70710678118654746 0.5 forward I I I I #
coedge $-1 $320 $320 $208 $322 forward $205 $-1 #
coedge $-1 $321 $321 $489 $490 forward $207 $-1 #
edge $-1 $491 0 $491 6.2831853071796004 $320 $492 forward 7 unknown #
loop $-1 $493 $494 $209 #
cone-surface $-1 0 0 0 0 0 1 0.5 0 0 1 I I -0.70710678118654746 0.70710678118654746 0.5 forward I I I I #
coedge $-1 $325 $325 $213 $327 forward $210 $-1 #
coedge $-1 $326 $326 $494 $495 forward $212 $-1 #
edge $-1 $496 0 $496 6.2831853071796004 $325 $497 forward 7 unknown #
face $-1 $498 $499 $73 $-1 $500 reversed single #
loop $-1 $-1 $501 $214 #
plane-surface $-1 0 -5.8875461781785532 0 0 1 0 0 0 1 forward_v I I I I #
coedge $-1 $502 $503 $504 $505 forward $215 $-1 #
coedge $-1 $506 $217 $507 $508 forward $136 $-1 #
coedge $-1 $217 $506 $509 $510 forward $136 $-1 #
coedge $-1 $511 $512 $217 $335 reversed $513 $-1 #
edge $-1 $514 -5.8875461781785532 $515 5.8875461781785532 $334 $516 forward 7 unknown #
loop $-1 $517 $518 $218 #
cone-surface $-1 0 0 0 0 0 1 0.5 0 0 1 I I -0.70710678118654746 0.70710678118654746 0.5 forward I I I I #
coedge $-1 $338 $338 $222 $340 forward $219 $-1 #
coedge $-1 $339 $339 $518 $519 forward $221 $-1 #
edge $-1 $520 0 $520 6.2831853071796004 $338 $521 forward 7 unknown #
loop $-1 $522 $523 $223 #
cone-surface $-1 0 0 0 0 0 1 0.5 0 0 1 I I -0.70710678118654746 0.70710678118654746 0.5 forward I I I I #
coedge $-1 $343 $343 $227 $345 forward $224 $-1 #
coedge $-1 $344 $344 $523 $524 forward $226 $-1 #
edge $-1 $525 0 $525 6.2831853071796004 $343 $526 forward 7 unknown #
loop $-1 $527 $528 $228 #
cone-surface $-1 0 0 0 0 0 1 0.5 0 0 1 I I -0.70710678118654746 0.70710678118654746 0.5 forward I I I I #
coedge $-1 $348 $348 $232 $350 forward $229 $-1 #
coedge $-1 $349 $349 $528 $529 forward $231 $-1 #
edge $-1 $530 0 $530 6.2831853071796004 $348 $531 forward 7 unknown #
face $-1 $532 $533 $77 $-1 $534 reversed single #
loop $-1 $-1 $535 $233 #
plane-surface $-1 0 -5.8875461781785532 0 0 1 0 0 0 1 forward_v I I I I #
coedge $-1 $536 $537 $538 $539 forward $234 $-1 #
coedge $-1 $540 $236 $541 $542 forward $148 $-1 #
coedge $-1 $236 $540 $543 $544 forward $148 $-1 #
coedge $-1 $545 $546 $236 $358 reversed $547 $-1 #
edge $-1 $548 -5.8875461781785532 $549 5.8875461781785532 $357 $550 forward 7 unknown #
loop $-1 $551 $552 $237 #
cone-surface $-1 0 0 0 0 0 1 0.5 0 0 1 I I -0.70710678118654746 0.70710678118654746 0.5 forward I I I I #
coedge $-1 $361 $361 $241 $363 forward $238 $-1 #
coedge $-1 $362 $362 $552 $553 forward $240 $-1 #
edge $-1 $554 0 $554 6.2831853071796004 $361 $555 forward 7 unknown #
loop $-1 $556 $557 $242 #
cone-surface $-1 0 0 0 0 0 1 0.5 0 0 1 I I -0.70710678118654746 0.70710678118654746 0.5 forward I I I I #
coedge $-1 $366 $366 $246 $368 forward $243 $-1 #
coedge $-1 $367 $367 $557 $558 forward $245 $-1 #
edge $-1 $559 0 $559 6.2831853071796004 $366 $560 forward 7 unknown #
loop $-1 $561 $562 $247 #
cone-surface $-1 0 0 0 0 0 1 0.5 0 0 1 I I -0.70710678118654746 0.70710678118654746 0.5 forward I I I I #
coedge $-1 $371 $371 $251 $373 forward $248 $-1 #
coedge $-1 $372 $372 $562 $563 forward $250 $-1 #
edge $-1 $564 0 $564 6.2831853071796004 $371 $565 forward 7 unknown #
face $-1 $566 $567 $81 $-1 $568 reversed single #
loop $-1 $-1 $569 $252 #
plane-surface $-1 0 -9.0410869725855658 0 0 1 0 0 0 1 forward_v I I I I #
coedge $-1 $570 $571 $572 $573 forward $253 $-1 #
coedge $-1 $574 $255 $575 $576 forward $160 $-1 #
coedge $-1 $255 $574 $577 $578 forward $160 $-1 #
coedge $-1 $579 $580 $255 $381 reversed $581 $-1 #
edge $-1 $582 -9.0410869725855658 $583 9.0410869725855658 $380 $584 forward 7 unknown #
loop $-1 $585 $586 $256 #
cone-surface $-1 0 0 0 0 0 1 1 0 0 1 I I -0.70710678118654746 0.70710678118654746 1 forward I I I I #
coedge $-1 $384 $384 $260 $386 forward $257 $-1 #
coedge $-1 $385 $385 $586 $587 forward $259 $-1 #
edge $-1 $588 0 $588 6.2831853071796004 $384 $589 forward 7 unknown #
loop $-1 $590 $591 $261 #
cone-surface $-1 0 0 0 0 0 1 1 0 0 1 I I -0.70710678118654746 0.70710678118654746 1 forward I I I I #
coedge $-1 $389 $389 $265 $391 forward $262 $-1 #
coedge $-1 $390 $390 $591 $592 forward $264 $-1 #
edge $-1 $593 0 $593 6.2831853071796004 $389 $594 forward 7 unknown #
face $-1 $595 $596 $63 $-1 $597 reversed single #
loop $-1 $-1 $598 $266 #
plane-surface $-1 -74.555497909482099 0 0 1 0 0 0 0 -1 forward_v I I I I #
coedge $-1 $599 $403 $600 $601 forward $267 $-1 #
coedge $-1 $602 $269 $599 $603 forward $169 $-1 #
coedge $-1 $269 $602 $604 $605 forward $169 $-1 #
coedge $-1 $406 $405 $269 $399 reversed $407 $-1 #
edge $-1 $606 -46.941044331845163 $607 46.941044331845163 $398 $608 forward 7 unknown #
coedge $-1 $271 $270 $609 $610 forward $106 $-1 #
coedge $-1 $611 $612 $270 $402 reversed $596 $-1 #
edge $-1 $409 -74.555497909482099 $613 74.555497909482099 $401 $614 forward 7 unknown #
coedge $-1 $395 $615 $271 $404 reversed $267 $-1 #
edge $-1 $616 -74.555497909482099 $408 74.555497909482099 $403 $617 forward 7 unknown #
coedge $-1 $398 $272 $615 $618 forward $407 $-1 #
coedge $-1 $272 $398 $611 $619 reversed $407 $-1 #
loop $-1 $-1 $405 $595 #
vertex $-1 $273 $620 #
vertex $-1 $273 $621 #
straight-curve $-1 74.555497909482099 0 23.264661755433792 0 1 0 I I #
face $-1 $622 $623 $64 $-1 $624 reversed single #
loop $-1 $-1 $625 $274 #
plane-surface $-1 -5.2958398867032397 0 0 1 0 0 0 0 -1 forward_v I I I I #
coedge $-1 $626 $422 $627 $628 forward $275 $-1 #
coedge $-1 $629 $277 $626 $630 forward $173 $-1 #
coedge $-1 $277 $629 $631 $632 forward $173 $-1 #
coedge $-1 $425 $424 $277 $418 reversed $426 $-1 #
edge $-1 $633 -12.838050533054892 $634 12.838050533054892 $417 $635 forward 7 unknown #
coedge $-1 $279 $278 $636 $637 forward $109 $-1 #
coedge $-1 $638 $639 $278 $421 reversed $623 $-1 #
edge $-1 $428 -5.2958398867032397 $640 5.2958398867032397 $420 $641 forward 7 unknown #
coedge $-1 $414 $642 $279 $423 reversed $275 $-1 #
edge $-1 $643 -5.2958398867032397 $427 5.2958398867032397 $422 $644 forward 7 unknown #
coedge $-1 $417 $280 $642 $645 forward $426 $-1 #
coedge $-1 $280 $417 $638 $646 reversed $426 $-1 #
loop $-1 $-1 $424 $622 #
vertex $-1 $281 $647 #
vertex $-1 $281 $648 #
straight-curve $-1 5.2958398867032397 0 23.264661755433792 0 1 0 I I #
face $-1 $649 $650 $65 $-1 $651 reversed single #
loop $-1 $-1 $652 $282 #
plane-surface $-1 -298.2219916379284 0 0 1 0 0 0 0 -1 forward_v I I I I #
coedge $-1 $653 $441 $654 $655 forward $283 $-1 #
coedge $-1 $656 $285 $653 $657 forward $177 $-1 #
coedge $-1 $285 $656 $658 $659 forward $177 $-1 #
coedge $-1 $444 $443 $285 $437 reversed $445 $-1 #
edge $-1 $660 -5.8875461781785532 $661 5.8875461781785532 $436 $662 forward 7 unknown #
coedge $-1 $287 $286 $663 $664 forward $112 $-1 #
coedge $-1 $665 $666 $286 $440 reversed $650 $-1 #
edge $-1 $447 -298.2219916379284 $667 298.2219916379284 $439 $668 forward 7 unknown #
coedge $-1 $433 $669 $287 $442 reversed $283 $-1 #
edge $-1 $670 -298.2219916379284 $446 298.2219916379284 $441 $671 forward 7 unknown #
coedge $-1 $436 $288 $669 $672 forward $445 $-1 #
coedge $-1 $288 $436 $665 $673 reversed $445 $-1 #
loop $-1 $-1 $443 $649 #
vertex $-1 $289 $674 #
vertex $-1 $289 $675 #
straight-curve $-1 298.2219916379284 0 149.1109958189642 0 1 0 I I #
loop $-1 $-1 $676 $180 #
coedge $-1 $450 $450 $293 $451 reversed $290 $-1 #
edge $-1 $677 0 $677 6.2831853071796004 $450 $678 forward 7 unknown #
vertex $-1 $294 $679 #
ellipse-curve $-1 0 0 -3.1134830774864977 0 0 -1 1 0 0 1 I I #
loop $-1 $-1 $680 $185 #
coedge $-1 $455 $455 $298 $456 reversed $295 $-1 #
edge $-1 $681 0 $681 6.2831853071796004 $455 $682 forward 7 unknown #
vertex $-1 $299 $683 #
ellipse-curve $-1 0 0 -3.1134830774864977 0 0 -1 1 0 0 1 I I #
loop $-1 $-1 $684 $190 #
coedge $-1 $460 $460 $303 $461 reversed $300 $-1 #
edge $-1 $685 0 $685 6.2831853071796004 $460 $686 forward 7 unknown #
vertex $-1 $304 $687 #
ellipse-curve $-1 0 0 -3.1134830774864977 0 0 -1 1 0 0 1 I I #
face $-1 $688 $689 $69 $-1 $690 reversed single #
loop $-1 $-1 $691 $305 #
plane-surface $-1 -298.2219916379284 0 0 1 0 0 0 0 -1 forward_v I I I I #
coedge $-1 $692 $475 $693 $694 forward $306 $-1 #
coedge $-1 $695 $308 $692 $696 forward $196 $-1 #
coedge $-1 $308 $695 $697 $698 forward $196 $-1 #
coedge $-1 $478 $477 $308 $471 reversed $479 $-1 #
edge $-1 $699 -5.8875461781785532 $700 5.8875461781785532 $470 $701 forward 7 unknown #
coedge $-1 $310 $309 $702 $703 forward $124 $-1 #
coedge $-1 $704 $705 $309 $474 reversed $689 $-1 #
edge $-1 $481 -298.2219916379284 $706 298.2219916379284 $473 $707 forward 7 unknown #
coedge $-1 $467 $708 $310 $476 reversed $306 $-1 #
edge $-1 $709 -298.2219916379284 $480 298.2219916379284 $475 $710 forward 7 unknown #
coedge $-1 $470 $311 $708 $711 forward $479 $-1 #
coedge $-1 $311 $470 $704 $712 reversed $479 $-1 #
loop $-1 $-1 $477 $688 #
vertex $-1 $312 $713 #
vertex $-1 $312 $714 #
straight-curve $-1 298.2219916379284 0 149.1109958189642 0 1 0 I I #
loop $-1 $-1 $715 $199 #
coedge $-1 $484 $484 $316 $485 reversed $313 $-1 #
edge $-1 $716 0 $716 6.2831853071796004 $484 $717 forward 7 unknown #
vertex $-1 $317 $718 #
ellipse-curve $-1 0 0 -3.1134830774864977 0 0 -1 1 0 0 1 I I #
loop $-1 $-1 $719 $204 #
coedge $-1 $489 $489 $321 $490 reversed $318 $-1 #
edge $-1 $720 0 $720 6.2831853071796004 $489 $721 forward 7 unknown #
vertex $-1 $322 $722 #
ellipse-curve $-1 0 0 -3.1134830774864977 0 0 -1 1 0 0 1 I I #
loop $-1 $-1 $723 $209 #
coedge $-1 $494 $494 $326 $495 reversed $323 $-1 #
edge $-1 $724 0 $724 6.2831853071796004 $494 $725 forward 7 unknown #
vertex $-1 $327 $726 #
ellipse-curve $-1 0 0 -3.1134830774864977 0 0 -1 1 0 0 1 I I #
face $-1 $727 $728 $73 $-1 $729 reversed single #
loop $-1 $-1 $730 $328 #
plane-surface $-1 -298.2219916379284 0 0 1 0 0 0 0 -1 forward_v I I I I #
coedge $-1 $731 $509 $732 $733 forward $329 $-1 #
coedge $-1 $734 $331 $731 $735 forward $215 $-1 #
coedge $-1 $331 $734 $736 $737 forward $215 $-1 #
coedge $-1 $512 $511 $331 $505 reversed $513 $-1 #
edge $-1 $738 -5.8875461781785532 $739 5.8875461781785532 $504 $740 forward 7 unknown #
coedge $-1 $333 $332 $741 $742 forward $136 $-1 #
coedge $-1 $743 $744 $332 $508 reversed $728 $-1 #
edge $-1 $515 -298.2219916379284 $745 298.2219916379284 $507 $746 forward 7 unknown #
coedge $-1 $501 $747 $333 $510 reversed $329 $-1 #
edge $-1 $748 -298.2219916379284 $514 298.2219916379284 $509 $749 forward 7 unknown #
coedge $-1 $504 $334 $747 $750 forward $513 $-1 #
coedge $-1 $334 $504 $743 $751 reversed $513 $-1 #
loop $-1 $-1 $511 $727 #
vertex $-1 $335 $752 #
vertex $-1 $335 $753 #
straight-curve $-1 298.2219916379284 0 149.1109958189642 0 1 0 I I #
loop $-1 $-1 $754 $218 #
coedge $-1 $518 $518 $339 $519 reversed $336 $-1 #
edge $-1 $755 0 $755 6.2831853071796004 $518 $756 forward 7 unknown #
vertex $-1 $340 $757 #
ellipse-curve $-1 0 0 -3.1134830774864977 0 0 -1 1 0 0 1 I I #
loop $-1 $-1 $758 $223 #
coedge $-1 $523 $523 $344 $524 reversed $341 $-1 #
edge $-1 $759 0 $759 6.2831853071796004 $523 $760 forward 7 unknown #
vertex $-1 $345 $761 #
ellipse-curve $-1 0 0 -3.1134830774864977 0 0 -1 1 0 0 1 I I #
loop $-1 $-1 $762 $228 #
coedge $-1 $528 $528 $349 $529 reversed $346 $-1 #
edge $-1 $763 0 $763 6.2831853071796004 $528 $764 forward 7 unknown #
vertex $-1 $350 $765 #
ellipse-curve $-1 0 0 -3.1134830774864977 0 0 -1 1 0 0 1 I I #
face $-1 $766 $767 $77 $-1 $768 reversed single #
loop $-1 $-1 $769 $351 #
plane-surface $-1 -298.2219916379284 0 0 1 0 0 0 0 -1 forward_v I I I I #
coedge $-1 $770 $543 $771 $772 forward $352 $-1 #
coedge $-1 $773 $354 $770 $774 forward $234 $-1 #
coedge $-1 $354 $773 $775 $776 forward $234 $-1 #
coedge $-1 $546 $545 $354 $539 reversed $547 $-1 #
edge $-1 $777 -5.8875461781785532 $778 5.8875461781785532 $538 $779 forward 7 unknown #
coedge $-1 $356 $355 $780 $781 forward $148 $-1 #
coedge $-1 $782 $783 $355 $542 reversed $767 $-1 #
edge $-1 $549 -298.2219916379284 $784 298.2219916379284 $541 $785 forward 7 unknown #
coedge $-1 $535 $786 $356 $544 reversed $352 $-1 #
edge $-1 $787 -298.2219916379284 $548 298.2219916379284 $543 $788 forward 7 unknown #
coedge $-1 $538 $357 $786 $789 forward $547 $-1 #
coedge $-1 $357 $538 $782 $790 reversed $547 $-1 #
loop $-1 $-1 $545 $766 #
vertex $-1 $358 $791 #
vertex $-1 $358 $792 #
straight-curve $-1 298.2219916379284 0 149.1109958189642 0 1 0 I I #
loop $-1 $-1 $793 $237 #
coedge $-1 $552 $552 $362 $553 reversed $359 $-1 #
edge $-1 $794 0 $794 6.2831853071796004 $552 $795 forward 7 unknown #
vertex $-1 $363 $796 #
ellipse-curve $-1 0 0 -3.1134830774864977 0 0 -1 1 0 0 1 I I #
loop $-1 $-1 $797 $242 #
coedge $-1 $557 $557 $367 $558 reversed $364 $-1 #
edge $-1 $798 0 $798 6.2831853071796004 $557 $799 forward 7 unknown #
vertex $-1 $368 $800 #
ellipse-curve $-1 0 0 -3.1134830774864977 0 0 -1 1 0 0 1 I I #
loop $-1 $-1 $801 $247 #
coedge $-1 $562 $562 $372 $563 reversed $369 $-1 #
edge $-1 $802 0 $802 6.2831853071796004 $562 $803 forward 7 unknown #
vertex $-1 $373 $804 #
ellipse-curve $-1 0 0 -3.1134830774864977 0 0 -1 1 0 0 1 I I #
face $-1 $805 $806 $81 $-1 $807 reversed single #
loop $-1 $-1 $808 $374 #
plane-surface $-1 -298.2219916379284 0 0 1 0 0 0 0 -1 forward_v I I I I #
coedge $-1 $809 $577 $810 $811 forward $375 $-1 #
coedge $-1 $812 $377 $809 $813 forward $253 $-1 #
coedge $-1 $377 $812 $814 $815 forward $253 $-1 #
coedge $-1 $580 $579 $377 $573 reversed $581 $-1 #
edge $-1 $816 -9.0410869725855658 $817 9.0410869725855658 $572 $818 forward 7 unknown #
coedge $-1 $379 $378 $819 $820 forward $160 $-1 #
coedge $-1 $821 $822 $378 $576 reversed $806 $-1 #
edge $-1 $583 -298.2219916379284 $823 298.2219916379284 $575 $824 forward 7 unknown #
coedge $-1 $569 $825 $379 $578 reversed $375 $-1 #
edge $-1 $826 -298.2219916379284 $582 298.2219916379284 $577 $827 forward 7 unknown #
coedge $-1 $572 $380 $825 $828 forward $581 $-1 #
coedge $-1 $380 $572 $821 $829 reversed $581 $-1 #
loop $-1 $-1 $579 $805 #
vertex $-1 $381 $830 #
vertex $-1 $381 $831 #
straight-curve $-1 298.2219916379284 0 149.11099581896423 0 1 0 I I #
loop $-1 $-1 $832 $256 #
coedge $-1 $586 $586 $385 $587 reversed $382 $-1 #
edge $-1 $833 0 $833 6.2831853071796004 $586 $834 forward 7 unknown #
vertex $-1 $386 $835 #
ellipse-curve $-1 0 0 -3.5187536240729997 0 0 -1 2 0 0 1 I I #
loop $-1 $-1 $836 $261 #
coedge $-1 $591 $591 $390 $592 reversed $387 $-1 #
edge $-1 $837 0 $837 6.2831853071796004 $591 $838 forward 7 unknown #
vertex $-1 $391 $839 #
ellipse-curve $-1 0 0 -3.5187536240729997 0 0 -1 2 0 0 1 I I #
face $-1 $-1 $407 $63 $-1 $840 reversed single #
loop $-1 $-1 $611 $392 #
plane-surface $-1 0 46.941044331845163 0 0 -1 0 0 0 -1 forward_v I I I I #
coedge $-1 $841 $609 $612 $842 forward $393 $-1 #
coedge $-1 $615 $395 $396 $603 reversed $267 $-1 #
coedge $-1 $609 $841 $395 $601 reversed $393 $-1 #
edge $-1 $616 -23.264661755433792 $843 23.264661755433792 $600 $844 forward 7 unknown #
coedge $-1 $397 $396 $841 $845 forward $169 $-1 #
edge $-1 $607 -74.555497909482099 $843 74.555497909482099 $599 $846 forward 7 unknown #
coedge $-1 $612 $611 $397 $605 reversed $596 $-1 #
edge $-1 $847 -74.555497909482099 $606 74.555497909482099 $604 $848 forward 7 unknown #
vertex $-1 $399 $849 #
vertex $-1 $618 $850 #
straight-curve $-1 74.555497909482099 0 -23.264661755433792 0 -1 0 I I #
coedge $-1 $598 $600 $400 $610 reversed $393 $-1 #
edge $-1 $613 -46.941044331845163 $616 46.941044331845163 $609 $851 forward 7 unknown #
coedge $-1 $604 $401 $406 $619 forward $596 $-1 #
coedge $-1 $401 $604 $598 $842 reversed $596 $-1 #
vertex $-1 $402 $852 #
straight-curve $-1 0 46.941044331845163 23.264661755433792 -1 0 0 I I #
coedge $-1 $403 $599 $405 $618 reversed $267 $-1 #
vertex $-1 $610 $853 #
straight-curve $-1 0 -46.941044331845163 23.264661755433792 1 0 0 I I #
edge $-1 $408 -23.264661755433792 $607 23.264661755433792 $405 $854 forward 7 unknown #
edge $-1 $409 -23.264661755433792 $606 23.264661755433792 $406 $855 forward 7 unknown #
point $-1 74.555497909482099 -46.941044331845163 23.264661755433792 #
point $-1 74.555497909482099 46.941044331845163 23.264661755433792 #
face $-1 $-1 $426 $64 $-1 $856 reversed single #
loop $-1 $-1 $638 $411 #
plane-surface $-1 0 12.838050533054892 0 0 -1 0 0 0 -1 forward_v I I I I #
coedge $-1 $857 $636 $639 $858 forward $412 $-1 #
coedge $-1 $642 $414 $415 $630 reversed $275 $-1 #
coedge $-1 $636 $857 $414 $628 reversed $412 $-1 #
edge $-1 $643 -23.264661755433792 $859 23.264661755433792 $627 $860 forward 7 unknown #
coedge $-1 $416 $415 $857 $861 forward $173 $-1 #
edge $-1 $634 -5.2958398867032397 $859 5.2958398867032397 $626 $862 forward 7 unknown #
coedge $-1 $639 $638 $416 $632 reversed $623 $-1 #
edge $-1 $863 -5.2958398867032397 $633 5.2958398867032397 $631 $864 forward 7 unknown #
vertex $-1 $418 $865 #
vertex $-1 $645 $866 #
straight-curve $-1 5.2958398867032397 0 -23.264661755433792 0 -1 0 I I #
coedge $-1 $625 $627 $419 $637 reversed $412 $-1 #
edge $-1 $640 -12.838050533054892 $643 12.838050533054892 $636 $867 forward 7 unknown #
coedge $-1 $631 $420 $425 $646 forward $623 $-1 #
coedge $-1 $420 $631 $625 $858 reversed $623 $-1 #
vertex $-1 $421 $868 #
straight-curve $-1 0 12.838050533054892 23.264661755433792 -1 0 0 I I #
coedge $-1 $422 $626 $424 $645 reversed $275 $-1 #
vertex $-1 $637 $869 #
straight-curve $-1 0 -12.838050533054892 23.264661755433792 1 0 0 I I #
edge $-1 $427 -23.264661755433792 $634 23.264661755433792 $424 $870 forward 7 unknown #
edge $-1 $428 -23.264661755433792 $633 23.264661755433792 $425 $871 forward 7 unknown #
point $-1 5.2958398867032397 -12.838050533054892 23.264661755433792 #
point $-1 5.2958398867032397 12.838050533054892 23.264661755433792 #
face $-1 $-1 $445 $65 $-1 $872 reversed single #
loop $-1 $-1 $665 $430 #
plane-surface $-1 0 5.8875461781785532 0 0 -1 0 0 0 -1 forward_v I I I I #
coedge $-1 $873 $663 $666 $874 forward $431 $-1 #
coedge $-1 $669 $433 $434 $657 reversed $283 $-1 #
coedge $-1 $663 $873 $433 $655 reversed $431 $-1 #
edge $-1 $670 -149.1109958189642 $875 149.1109958189642 $654 $876 forward 7 unknown #
coedge $-1 $435 $434 $873 $877 forward $177 $-1 #
edge $-1 $661 -298.2219916379284 $875 298.2219916379284 $653 $878 forward 7 unknown #
coedge $-1 $666 $665 $435 $659 reversed $650 $-1 #
edge $-1 $879 -298.2219916379284 $660 298.2219916379284 $658 $880 forward 7 unknown #
vertex $-1 $437 $881 #
vertex $-1 $672 $882 #
straight-curve $-1 298.2219916379284 0 -149.1109958189642 0 -1 0 I I #
coedge $-1 $652 $654 $438 $664 reversed $431 $-1 #
edge $-1 $667 -5.8875461781785532 $670 5.8875461781785532 $663 $883 forward 7 unknown #
coedge $-1 $658 $439 $444 $673 forward $650 $-1 #
coedge $-1 $439 $658 $652 $874 reversed $650 $-1 #
vertex $-1 $440 $884 #
straight-curve $-1 0 5.8875461781785532 149.1109958189642 -1 0 0 I I #
coedge $-1 $441 $653 $443 $672 reversed $283 $-1 #
vertex $-1 $664 $885 #
straight-curve $-1 0 -5.8875461781785532 149.1109958189642 1 0 0 I I #
edge $-1 $446 -149.1109958189642 $661 149.1109958189642 $443 $886 forward 7 unknown #
edge $-1 $447 -149.1109958189642 $660 149.1109958189642 $444 $887 forward 7 unknown #
point $-1 298.2219916379284 -5.8875461781785532 149.1109958189642 #
point $-1 298.2219916379284 5.8875461781785532 149.1109958189642 #
coedge $-1 $676 $676 $-1 $888 reversed $449 $-1 #
vertex $-1 $451 $889 #
ellipse-curve $-1 0 0 -0.5 0 0 -1 1 0 0 1 I I #
point $-1 1 0 -3.1134830774864977 #
coedge $-1 $680 $680 $-1 $890 reversed $454 $-1 #
vertex $-1 $456 $891 #
ellipse-curve $-1 0 0 -0.5 0 0 -1 1 0 0 1 I I #
point $-1 1 0 -3.1134830774864977 #
coedge $-1 $684 $684 $-1 $892 reversed $459 $-1 #
vertex $-1 $461 $893 #
ellipse-curve $-1 0 0 -0.5 0 0 -1 1 0 0 1 I I #
point $-1 1 0 -3.1134830774864977 #
face $-1 $-1 $479 $69 $-1 $894 reversed single #
loop $-1 $-1 $704 $464 #
plane-surface $-1 0 5.8875461781785532 0 0 -1 0 0 0 -1 forward_v I I I I #
coedge $-1 $895 $702 $705 $896 forward $465 $-1 #
coedge $-1 $708 $467 $468 $696 reversed $306 $-1 #
coedge $-1 $702 $895 $467 $694 reversed $465 $-1 #
edge $-1 $709 -149.1109958189642 $897 149.1109958189642 $693 $898 forward 7 unknown #
coedge $-1 $469 $468 $895 $899 forward $196 $-1 #
edge $-1 $700 -298.2219916379284 $897 298.2219916379284 $692 $900 forward 7 unknown #
coedge $-1 $705 $704 $469 $698 reversed $689 $-1 #
edge $-1 $901 -298.2219916379284 $699 298.2219916379284 $697 $902 forward 7 unknown #
vertex $-1 $471 $903 #
vertex $-1 $711 $904 #
straight-curve $-1 298.2219916379284 0 -149.1109958189642 0 -1 0 I I #
coedge $-1 $691 $693 $472 $703 reversed $465 $-1 #
edge $-1 $706 -5.8875461781785532 $709 5.8875461781785532 $702 $905 forward 7 unknown #
coedge $-1 $697 $473 $478 $712 forward $689 $-1 #
coedge $-1 $473 $697 $691 $896 reversed $689 $-1 #
vertex $-1 $474 $906 #
straight-curve $-1 0 5.8875461781785532 149.1109958189642 -1 0 0 I I #
coedge $-1 $475 $692 $477 $711 reversed $306 $-1 #
vertex $-1 $703 $907 #
straight-curve $-1 0 -5.8875461781785532 149.1109958189642 1 0 0 I I #
edge $-1 $480 -149.1109958189642 $700 149.1109958189642 $477 $908 forward 7 unknown #
edge $-1 $481 -149.1109958189642 $699 149.1109958189642 $478 $909 forward 7 unknown #
point $-1 298.2219916379284 -5.8875461781785532 149.1109958189642 #
point $-1 298.2219916379284 5.8875461781785532 149.1109958189642 #
coedge $-1 $715 $715 $-1 $910 reversed $483 $-1 #
vertex $-1 $485 $911 #
ellipse-curve $-1 0 0 -0.5 0 0 -1 1 0 0 1 I I #
point $-1 1 0 -3.1134830774864977 #
coedge $-1 $719 $719 $-1 $912 reversed $488 $-1 #
vertex $-1 $490 $913 #
ellipse-curve $-1 0 0 -0.5 0 0 -1 1 0 0 1 I I #
point $-1 1 0 -3.1134830774864977 #
coedge $-1 $723 $723 $-1 $914 reversed $493 $-1 #
vertex $-1 $495 $915 #
ellipse-curve $-1 0 0 -0.5 0 0 -1 1 0 0 1 I I #
point $-1 1 0 -3.1134830774864977 #
face $-1 $-1 $513 $73 $-1 $916 reversed single #
loop $-1 $-1 $743 $498 #
plane-surface $-1 0 5.8875461781785532 0 0 -1 0 0 0 -1 forward_v I I I I #
coedge $-1 $917 $741 $744 $918 forward $499 $-1 #
coedge $-1 $747 $501 $502 $735 reversed $329 $-1 #
coedge $-1 $741 $917 $501 $733 reversed $499 $-1 #
edge $-1 $748 -149.1109958189642 $919 149.1109958189642 $732 $920 forward 7 unknown #
coedge $-1 $503 $502 $917 $921 forward $215 $-1 #
edge $-1 $739 -298.2219916379284 $919 298.2219916379284 $731 $922 forward 7 unknown #
coedge $-1 $744 $743 $503 $737 reversed $728 $-1 #
edge $-1 $923 -298.2219916379284 $738 298.2219916379284 $736 $924 forward 7 unknown #
vertex $-1 $505 $925 #
vertex $-1 $750 $926 #
straight-curve $-1 298.2219916379284 0 -149.1109958189642 0 -1 0 I I #
coedge $-1 $730 $732 $506 $742 reversed $499 $-1 #
edge $-1 $745 -5.8875461781785532 $748 5.8875461781785532 $741 $927 forward 7 unknown #
coedge $-1 $736 $507 $512 $751 forward $728 $-1 #
coedge $-1 $507 $736 $730 $918 reversed $728 $-1 #
vertex $-1 $508 $928 #
straight-curve $-1 0 5.8875461781785532 149.1109958189642 -1 0 0 I I #
coedge $-1 $509 $731 $511 $750 reversed $329 $-1 #
vertex $-1 $742 $929 #
straight-curve $-1 0 -5.8875461781785532 149.1109958189642 1 0 0 I I #
edge $-1 $514 -149.1109958189642 $739 149.1109958189642 $511 $930 forward 7 unknown #
edge $-1 $515 -149.1109958189642 $738 149.1109958189642 $512 $931 forward 7 unknown #
point $-1 298.2219916379284 -5.8875461781785532 149.1109958189642 #
point $-1 298.2219916379284 5.8875461781785532 149.1109958189642 #
coedge $-1 $754 $754 $-1 $932 reversed $517 $-1 #
vertex $-1 $519 $933 #
ellipse-curve $-1 0 0 -0.5 0 0 -1 1 0 0 1 I I #
point $-1 1 0 -3.1134830774864977 #
coedge $-1 $758 $758 $-1 $934 reversed $522 $-1 #
vertex $-1 $524 $935 #
ellipse-curve $-1 0 0 -0.5 0 0 -1 1 0 0 1 I I #
point $-1 1 0 -3.1134830774864977 #
coedge $-1 $762 $762 $-1 $936 reversed $527 $-1 #
vertex $-1 $529 $937 #
ellipse-curve $-1 0 0 -0.5 0 0 -1 1 0 0 1 I I #
point $-1 1 0 -3.1134830774864977 #
face $-1 $-1 $547 $77 $-1 $938 reversed single #
loop $-1 $-1 $782 $532 #
plane-surface $-1 0 5.8875461781785532 0 0 -1 0 0 0 -1 forward_v I I I I #
coedge $-1 $939 $780 $783 $940 forward $533 $-1 #
coedge $-1 $786 $535 $536 $774 reversed $352 $-1 #
coedge $-1 $780 $939 $535 $772 reversed $533 $-1 #
edge $-1 $787 -149.1109958189642 $941 149.1109958189642 $771 $942 forward 7 unknown #
coedge $-1 $537 $536 $939 $943 forward $234 $-1 #
edge $-1 $778 -298.2219916379284 $941 298.2219916379284 $770 $944 forward 7 unknown #
coedge $-1 $783 $782 $537 $776 reversed $767 $-1 #
edge $-1 $945 -298.2219916379284 $777 298.2219916379284 $775 $946 forward 7 unknown #
vertex $-1 $539 $947 #
vertex $-1 $789 $948 #
straight-curve $-1 298.2219916379284 0 -149.1109958189642 0 -1 0 I I #
coedge $-1 $769 $771 $540 $781 reversed $533 $-1 #
edge $-1 $784 -5.8875461781785532 $787 5.8875461781785532 $780 $949 forward 7 unknown #
coedge $-1 $775 $541 $546 $790 forward $767 $-1 #
coedge $-1 $541 $775 $769 $940 reversed $767 $-1 #
vertex $-1 $542 $950 #
straight-curve $-1 0 5.8875461781785532 149.1109958189642 -1 0 0 I I #
coedge $-1 $543 $770 $545 $789 reversed $352 $-1 #
vertex $-1 $781 $951 #
straight-curve $-1 0 -5.8875461781785532 149.1109958189642 1 0 0 I I #
edge $-1 $548 -149.1109958189642 $778 149.1109958189642 $545 $952 forward 7 unknown #
edge $-1 $549 -149.1109958189642 $777 149.1109958189642 $546 $953 forward 7 unknown #
point $-1 298.2219916379284 -5.8875461781785532 149.1109958189642 #
point $-1 298.2219916379284 5.8875461781785532 149.1109958189642 #
coedge $-1 $793 $793 $-1 $954 reversed $551 $-1 #
vertex $-1 $553 $955 #
ellipse-curve $-1 0 0 -0.5 0 0 -1 1 0 0 1 I I #
point $-1 1 0 -3.1134830774864977 #
coedge $-1 $797 $797 $-1 $956 reversed $556 $-1 #
vertex $-1 $558 $957 #
ellipse-curve $-1 0 0 -0.5 0 0 -1 1 0 0 1 I I #
point $-1 1 0 -3.1134830774864977 #
coedge $-1 $801 $801 $-1 $958 reversed $561 $-1 #
vertex $-1 $563 $959 #
ellipse-curve $-1 0 0 -0.5 0 0 -1 1 0 0 1 I I #
point $-1 1 0 -3.1134830774864977 #
face $-1 $-1 $581 $81 $-1 $960 reversed single #
loop $-1 $-1 $821 $566 #
plane-surface $-1 0 9.0410869725855658 0 0 -1 0 0 0 -1 forward_v I I I I #
coedge $-1 $961 $819 $822 $962 forward $567 $-1 #
coedge $-1 $825 $569 $570 $813 reversed $375 $-1 #
coedge $-1 $819 $961 $569 $811 reversed $567 $-1 #
edge $-1 $826 -149.11099581896423 $963 149.11099581896423 $810 $964 forward 7 unknown #
coedge $-1 $571 $570 $961 $965 forward $253 $-1 #
edge $-1 $817 -298.2219916379284 $963 298.2219916379284 $809 $966 forward 7 unknown #
coedge $-1 $822 $821 $571 $815 reversed $806 $-1 #
edge $-1 $967 -298.2219916379284 $816 298.2219916379284 $814 $968 forward 7 unknown #
vertex $-1 $573 $969 #
vertex $-1 $828 $970 #
straight-curve $-1 298.2219916379284 0 -149.11099581896423 0 -1 0 I I #
coedge $-1 $808 $810 $574 $820 reversed $567 $-1 #
edge $-1 $823 -9.0410869725855658 $826 9.0410869725855658 $819 $971 forward 7 unknown #
coedge $-1 $814 $575 $580 $829 forward $806 $-1 #
coedge $-1 $575 $814 $808 $962 reversed $806 $-1 #
vertex $-1 $576 $972 #
straight-curve $-1 0 9.0410869725855658 149.11099581896423 -1 0 0 I I #
coedge $-1 $577 $809 $579 $828 reversed $375 $-1 #
vertex $-1 $820 $973 #
straight-curve $-1 0 -9.0410869725855658 149.11099581896423 1 0 0 I I #
edge $-1 $582 -149.11099581896423 $817 149.11099581896423 $579 $974 forward 7 unknown #
edge $-1 $583 -149.11099581896423 $816 149.11099581896423 $580 $975 forward 7 unknown #
point $-1 298.2219916379284 -9.0410869725855658 149.11099581896423 #
point $-1 298.2219916379284 9.0410869725855658 149.11099581896423 #
coedge $-1 $832 $832 $-1 $976 reversed $585 $-1 #
vertex $-1 $587 $977 #
ellipse-curve $-1 0 0 -1 0 0 -1 2 0 0 1 I I #
point $-1 2 0 -3.5187536240729997 #
coedge $-1 $836 $836 $-1 $978 reversed $590 $-1 #
vertex $-1 $592 $979 #
ellipse-curve $-1 0 0 -1 0 0 -1 2 0 0 1 I I #
point $-1 2 0 -3.5187536240729997 #
plane-surface $-1 74.555497909482099 0 0 -1 0 0 0 0 1 forward_v I I I I #
coedge $-1 $600 $598 $602 $845 reversed $393 $-1 #
edge $-1 $613 -23.264661755433792 $847 23.264661755433792 $612 $980 forward 7 unknown #
vertex $-1 $845 $981 #
straight-curve $-1 -74.555497909482099 -46.941044331845163 0 0 0 -1 I I #
edge $-1 $843 -46.941044331845163 $847 46.941044331845163 $841 $982 forward 7 unknown #
straight-curve $-1 0 -46.941044331845163 -23.264661755433792 -1 0 0 I I #
vertex $-1 $605 $983 #
straight-curve $-1 0 46.941044331845163 -23.264661755433792 1 0 0 I I #
point $-1 74.555497909482099 46.941044331845163 -23.264661755433792 #
point $-1 74.555497909482099 -46.941044331845163 -23.264661755433792 #
straight-curve $-1 -74.555497909482099 0 23.264661755433792 0 -1 0 I I #
point $-1 -74.555497909482099 46.941044331845163 23.264661755433792 #
point $-1 -74.555497909482099 -46.941044331845163 23.264661755433792 #
straight-curve $-1 74.555497909482099 -46.941044331845163 0 0 0 -1 I I #
straight-curve $-1 74.555497909482099 46.941044331845163 0 0 0 -1 I I #
plane-surface $-1 5.2958398867032397 0 0 -1 0 0 0 0 1 forward_v I I I I #
coedge $-1 $627 $625 $629 $861 reversed $412 $-1 #
edge $-1 $640 -23.264661755433792 $863 23.264661755433792 $639 $984 forward 7 unknown #
vertex $-1 $861 $985 #
straight-curve $-1 -5.2958398867032397 -12.838050533054892 0 0 0 -1 I I #
edge $-1 $859 -12.838050533054892 $863 12.838050533054892 $857 $986 forward 7 unknown #
straight-curve $-1 0 -12.838050533054892 -23.264661755433792 -1 0 0 I I #
vertex $-1 $632 $987 #
straight-curve $-1 0 12.838050533054892 -23.264661755433792 1 0 0 I I #
point $-1 5.2958398867032397 12.838050533054892 -23.264661755433792 #
point $-1 5.2958398867032397 -12.838050533054892 -23.264661755433792 #
straight-curve $-1 -5.2958398867032397 0 23.264661755433792 0 -1 0 I I #
point $-1 -5.2958398867032397 12.838050533054892 23.264661755433792 #
point $-1 -5.2958398867032397 -12.838050533054892 23.264661755433792 #
straight-curve $-1 5.2958398867032397 -12.838050533054892 0 0 0 -1 I I #
straight-curve $-1 5.2958398867032397 12.838050533054892 0 0 0 -1 I I #
plane-surface $-1 298.2219916379284 0 0 -1 0 0 0 0 1 forward_v I I I I #
coedge $-1 $654 $652 $656 $877 reversed $431 $-1 #
edge $-1 $667 -149.1109958189642 $879 149.1109958189642 $666 $988 forward 7 unknown #
vertex $-1 $877 $989 #
straight-curve $-1 -298.2219916379284 -5.8875461781785532 0 0 0 -1 I I #
edge $-1 $875 -5.8875461781785532 $879 5.8875461781785532 $873 $990 forward 7 unknown #
straight-curve $-1 0 -5.8875461781785532 -149.1109958189642 -1 0 0 I I #
vertex $-1 $659 $991 #
straight-curve $-1 0 5.8875461781785532 -149.1109958189642 1 0 0 I I #
point $-1 298.2219916379284 5.8875461781785532 -149.1109958189642 #
point $-1 298.2219916379284 -5.8875461781785532 -149.1109958189642 #
straight-curve $-1 -298.2219916379284 0 149.1109958189642 0 -1 0 I I #
point $-1 -298.2219916379284 5.8875461781785532 149.1109958189642 #
point $-1 -298.2219916379284 -5.8875461781785532 149.1109958189642 #
straight-curve $-1 298.2219916379284 -5.8875461781785532 0 0 0 -1 I I #
straight-curve $-1 298.2219916379284 5.8875461781785532 0 0 0 -1 I I #
edge $-1 $992 1 $992 0 $676 $-1 forward 7 unknown #
point $-1 1 0 -0.5 #
edge $-1 $993 1 $993 0 $680 $-1 forward 7 unknown #
point $-1 1 0 -0.5 #
edge $-1 $994 1 $994 0 $684 $-1 forward 7 unknown #
point $-1 1 0 -0.5 #
plane-surface $-1 298.2219916379284 0 0 -1 0 0 0 0 1 forward_v I I I I #
coedge $-1 $693 $691 $695 $899 reversed $465 $-1 #
edge $-1 $706 -149.1109958189642 $901 149.1109958189642 $705 $995 forward 7 unknown #
vertex $-1 $899 $996 #
straight-curve $-1 -298.2219916379284 -5.8875461781785532 0 0 0 -1 I I #
edge $-1 $897 -5.8875461781785532 $901 5.8875461781785532 $895 $997 forward 7 unknown #
straight-curve $-1 0 -5.8875461781785532 -149.1109958189642 -1 0 0 I I #
vertex $-1 $698 $998 #
straight-curve $-1 0 5.8875461781785532 -149.1109958189642 1 0 0 I I #
point $-1 298.2219916379284 5.8875461781785532 -149.1109958189642 #
point $-1 298.2219916379284 -5.8875461781785532 -149.1109958189642 #
straight-curve $-1 -298.2219916379284 0 149.1109958189642 0 -1 0 I I #
point $-1 -298.2219916379284 5.8875461781785532 149.1109958189642 #
point $-1 -298.2219916379284 -5.8875461781785532 149.1109958189642 #
straight-curve $-1 298.2219916379284 -5.8875461781785532 0 0 0 -1 I I #
straight-curve $-1 298.2219916379284 5.8875461781785532 0 0 0 -1 I I #
edge $-1 $999 1 $999 0 $715 $-1 forward 7 unknown #
point $-1 1 0 -0.5 #
edge $-1 $1000 1 $1000 0 $719 $-1 forward 7 unknown #
point $-1 1 0 -0.5 #
edge $-1 $1001 1 $1001 0 $723 $-1 forward 7 unknown #
point $-1 1 0 -0.5 #
plane-surface $-1 298.2219916379284 0 0 -1 0 0 0 0 1 forward_v I I I I #
coedge $-1 $732 $730 $734 $921 reversed $499 $-1 #
edge $-1 $745 -149.1109958189642 $923 149.1109958189642 $744 $1002 forward 7 unknown #
vertex $-1 $921 $1003 #
straight-curve $-1 -298.2219916379284 -5.8875461781785532 0 0 0 -1 I I #
edge $-1 $919 -5.8875461781785532 $923 5.8875461781785532 $917 $1004 forward 7 unknown #
straight-curve $-1 0 -5.8875461781785532 -149.1109958189642 -1 0 0 I I #
vertex $-1 $737 $1005 #
straight-curve $-1 0 5.8875461781785532 -149.1109958189642 1 0 0 I I #
point $-1 298.2219916379284 5.8875461781785532 -149.1109958189642 #
point $-1 298.2219916379284 -5.8875461781785532 -149.1109958189642 #
straight-curve $-1 -298.2219916379284 0 149.1109958189642 0 -1 0 I I #
point $-1 -298.2219916379284 5.8875461781785532 149.1109958189642 #
point $-1 -298.2219916379284 -5.8875461781785532 149.1109958189642 #
straight-curve $-1 298.2219916379284 -5.8875461781785532 0 0 0 -1 I I #
straight-curve $-1 298.2219916379284 5.8875461781785532 0 0 0 -1 I I #
edge $-1 $1006 1 $1006 0 $754 $-1 forward 7 unknown #
point $-1 1 0 -0.5 #
edge $-1 $1007 1 $1007 0 $758 $-1 forward 7 unknown #
point $-1 1 0 -0.5 #
edge $-1 $1008 1 $1008 0 $762 $-1 forward 7 unknown #
point $-1 1 0 -0.5 #
plane-surface $-1 298.2219916379284 0 0 -1 0 0 0 0 1 forward_v I I I I #
coedge $-1 $771 $769 $773 $943 reversed $533 $-1 #
edge $-1 $784 -149.1109958189642 $945 149.1109958189642 $783 $1009 forward 7 unknown #
vertex $-1 $943 $1010 #
straight-curve $-1 -298.2219916379284 -5.8875461781785532 0 0 0 -1 I I #
edge $-1 $941 -5.8875461781785532 $945 5.8875461781785532 $939 $1011 forward 7 unknown #
straight-curve $-1 0 -5.8875461781785532 -149.1109958189642 -1 0 0 I I #
vertex $-1 $776 $1012 #
straight-curve $-1 0 5.8875461781785532 -149.1109958189642 1 0 0 I I #
point $-1 298.2219916379284 5.8875461781785532 -149.1109958189642 #
point $-1 298.2219916379284 -5.8875461781785532 -149.1109958189642 #
straight-curve $-1 -298.2219916379284 0 149.1109958189642 0 -1 0 I I #
point $-1 -298.2219916379284 5.8875461781785532 149.1109958189642 #
point $-1 -298.2219916379284 -5.8875461781785532 149.1109958189642 #
straight-curve $-1 298.2219916379284 -5.8875461781785532 0 0 0 -1 I I #
straight-curve $-1 298.2219916379284 5.8875461781785532 0 0 0 -1 I I #
edge $-1 $1013 1 $1013 0 $793 $-1 forward 7 unknown #
point $-1 1 0 -0.5 #
edge $-1 $1014 1 $1014 0 $797 $-1 forward 7 unknown #
point $-1 1 0 -0.5 #
edge $-1 $1015 1 $1015 0 $801 $-1 forward 7 unknown #
point $-1 1 0 -0.5 #
plane-surface $-1 298.2219916379284 0 0 -1 0 0 0 0 1 forward_v I I I I #
coedge $-1 $810 $808 $812 $965 reversed $567 $-1 #
edge $-1 $823 -149.11099581896423 $967 149.11099581896423 $822 $1016 forward 7 unknown #
vertex $-1 $965 $1017 #
straight-curve $-1 -298.2219916379284 -9.0410869725855658 0 0 0 -1 I I #
edge $-1 $963 -9.0410869725855658 $967 9.0410869725855658 $961 $1018 forward 7 unknown #
straight-curve $-1 0 -9.0410869725855658 -149.11099581896423 -1 0 0 I I #
vertex $-1 $815 $1019 #
straight-curve $-1 0 9.0410869725855658 -149.11099581896423 1 0 0 I I #
point $-1 298.2219916379284 9.0410869725855658 -149.11099581896423 #
point $-1 298.2219916379284 -9.0410869725855658 -149.11099581896423 #
straight-curve $-1 -298.2219916379284 0 149.11099581896423 0 -1 0 I I #
point $-1 -298.2219916379284 9.0410869725855658 149.11099581896423 #
point $-1 -298.2219916379284 -9.0410869725855658 149.11099581896423 #
straight-curve $-1 298.2219916379284 -9.0410869725855658 0 0 0 -1 I I #
straight-curve $-1 298.2219916379284 9.0410869725855658 0 0 0 -1 I I #
edge $-1 $1020 1 $1020 0 $832 $-1 forward 7 unknown #
point $-1 2 0 -1 #
edge $-1 $1021 1 $1021 0 $836 $-1 forward 7 unknown #
point $-1 2 0 -1 #
straight-curve $-1 -74.555497909482099 46.941044331845163 0 0 0 -1 I I #
point $-1 -74.555497909482099 -46.941044331845163 -23.264661755433792 #
straight-curve $-1 -74.555497909482099 0 -23.264661755433792 0 1 0 I I #
point $-1 -74.555497909482099 46.941044331845163 -23.264661755433792 #
straight-curve $-1 -5.2958398867032397 12.838050533054892 0 0 0 -1 I I #
point $-1 -5.2958398867032397 -12.838050533054892 -23.264661755433792 #
straight-curve $-1 -5.2958398867032397 0 -23.264661755433792 0 1 0 I I #
point $-1 -5.2958398867032397 12.838050533054892 -23.264661755433792 #
straight-curve $-1 -298.2219916379284 5.8875461781785532 0 0 0 -1 I I #
point $-1 -298.2219916379284 -5.8875461781785532 -149.1109958189642 #
straight-curve $-1 -298.2219916379284 0 -149.1109958189642 0 1 0 I I #
point $-1 -298.2219916379284 5.8875461781785532 -149.1109958189642 #
vertex $-1 $888 $1022 #
vertex $-1 $890 $1023 #
vertex $-1 $892 $1024 #
straight-curve $-1 -298.2219916379284 5.8875461781785532 0 0 0 -1 I I #
point $-1 -298.2219916379284 -5.8875461781785532 -149.1109958189642 #
straight-curve $-1 -298.2219916379284 0 -149.1109958189642 0 1 0 I I #
point $-1 -298.2219916379284 5.8875461781785532 -149.1109958189642 #
vertex $-1 $910 $1025 #
vertex $-1 $912 $1026 #
vertex $-1 $914 $1027 #
straight-curve $-1 -298.2219916379284 5.8875461781785532 0 0 0 -1 I I #
point $-1 -298.2219916379284 -5.8875461781785532 -149.1109958189642 #
straight-curve $-1 -298.2219916379284 0 -149.1109958189642 0 1 0 I I #
point $-1 -298.2219916379284 5.8875461781785532 -149.1109958189642 #
vertex $-1 $932 $1028 #
vertex $-1 $934 $1029 #
vertex $-1 $936 $1030 #
straight-curve $-1 -298.2219916379284 5.8875461781785532 0 0 0 -1 I I #
point $-1 -298.2219916379284 -5.8875461781785532 -149.1109958189642 #
straight-curve $-1 -298.2219916379284 0 -149.1109958189642 0 1 0 I I #
point $-1 -298.2219916379284 5.8875461781785532 -149.1109958189642 #
vertex $-1 $954 $1031 #
vertex $-1 $956 $1032 #
vertex $-1 $958 $1033 #
straight-curve $-1 -298.2219916379284 9.0410869725855658 0 0 0 -1 I I #
point $-1 -298.2219916379284 -9.0410869725855658 -149.11099581896423 #
straight-curve $-1 -298.2219916379284 0 -149.11099581896423 0 1 0 I I #
point $-1 -298.2219916379284 9.0410869725855658 -149.11099581896423 #
vertex $-1 $976 $1034 #
vertex $-1 $978 $1035 #
point $-1 0 0 0.5 #
point $-1 0 0 0.5 #
point $-1 0 0 0.5 #
point $-1 0 0 0.5 #
point $-1 0 0 0.5 #
point $-1 0 0 0.5 #
point $-1 0 0 0.5 #
point $-1 0 0 0.5 #
point $-1 0 0 0.5 #
point $-1 0 0 0.5 #
point $-1 0 0 0.5 #
point $-1 0 0 0.5 #
point $-1 0 0 1 #
point $-1 0 0 1 #
End-of-ACIS-data 