500 0 12 0           
7 Unknown 11 ACIS 5.0 NT 24 Fri Mar 26 16:48:57 1999 
-1 9.9999999999999995e-007 1e-010 
body $-1 $12 $-1 $13 #
body $-1 $14 $-1 $15 #
body $-1 $16 $-1 $17 #
body $-1 $18 $-1 $19 #
body $-1 $20 $-1 $21 #
body $-1 $22 $-1 $23 #
body $-1 $24 $-1 $25 #
body $-1 $26 $-1 $27 #
body $-1 $28 $-1 $29 #
body $-1 $30 $-1 $31 #
body $-1 $32 $-1 $33 #
body $-1 $34 $-1 $35 #
lump $-1 $-1 $36 $0 #
transform $-1 1 0 0 0 1 0 0 0 1 52.757957701345866 34.423653671651493 9.4590195296736272 1 rotate no_reflect no_shear #
lump $-1 $-1 $37 $1 #
transform $-1 1 0 0 0 1 0 0 0 1 52.757957701345866 34.423653671651493 9.4590195296736272 1 rotate no_reflect no_shear #
lump $-1 $-1 $38 $2 #
transform $-1 1 0 0 0 1 0 0 0 1 52.757957701345866 34.423653671651493 9.4590195296736272 1 rotate no_reflect no_shear #
lump $-1 $-1 $39 $3 #
transform $-1 1 0 0 0 1 0 0 0 1 52.757957701345866 34.423653671651493 9.4590195296736272 1 rotate no_reflect no_shear #
lump $-1 $-1 $40 $4 #
transform $-1 1 0 0 0 1 0 0 0 1 52.757957701345866 34.423653671651493 9.4590195296736272 1 rotate no_reflect no_shear #
lump $-1 $-1 $41 $5 #
transform $-1 1 0 0 0 1 0 0 0 1 52.757957701345866 34.423653671651493 9.4590195296736272 1 rotate no_reflect no_shear #
lump $-1 $-1 $42 $6 #
transform $-1 1 0 0 0 1 0 0 0 1 52.757957701345866 34.423653671651493 9.4590195296736272 1 rotate no_reflect no_shear #
lump $-1 $-1 $43 $7 #
transform $-1 1 0 0 0 1 0 0 0 1 52.757957701345866 34.423653671651493 9.4590195296736272 1 rotate no_reflect no_shear #
lump $-1 $-1 $44 $8 #
transform $-1 1 0 0 0 1 0 0 0 1 52.757957701345866 34.423653671651493 9.4590195296736272 1 rotate no_reflect no_shear #
lump $-1 $-1 $45 $9 #
transform $-1 1 0 0 0 1 0 0 0 1 52.757957701345866 34.423653671651493 9.4590195296736272 1 rotate no_reflect no_shear #
lump $-1 $-1 $46 $10 #
transform $-1 1 0 0 0 1 0 0 0 1 52.757957701345866 34.423653671651493 9.4590195296736272 1 rotate no_reflect no_shear #
lump $-1 $-1 $47 $11 #
transform $-1 1 0 0 0 1 0 0 0 1 52.757957701345866 34.423653671651493 9.4590195296736272 1 rotate no_reflect no_shear #
shell $-1 $-1 $-1 $48 $-1 $12 #
shell $-1 $-1 $-1 $49 $-1 $14 #
shell $-1 $-1 $-1 $50 $-1 $16 #
shell $-1 $-1 $-1 $51 $-1 $18 #
shell $-1 $-1 $-1 $52 $-1 $20 #
shell $-1 $-1 $-1 $53 $-1 $22 #
shell $-1 $-1 $-1 $54 $-1 $24 #
shell $-1 $-1 $-1 $55 $-1 $26 #
shell $-1 $-1 $-1 $56 $-1 $28 #
shell $-1 $-1 $-1 $57 $-1 $30 #
shell $-1 $-1 $-1 $58 $-1 $32 #
shell $-1 $-1 $-1 $59 $-1 $34 #
face $-1 $60 $61 $36 $-1 $62 forward single #
face $-1 $63 $64 $37 $-1 $65 forward single #
face $-1 $66 $67 $38 $-1 $68 reversed single #
face $-1 $69 $70 $39 $-1 $71 forward single #
face $-1 $72 $73 $40 $-1 $74 forward single #
face $-1 $75 $76 $41 $-1 $77 reversed single #
face $-1 $78 $79 $42 $-1 $80 forward single #
face $-1 $81 $82 $43 $-1 $83 forward single #
face $-1 $84 $85 $44 $-1 $86 reversed single #
face $-1 $87 $88 $45 $-1 $89 forward single #
face $-1 $90 $91 $46 $-1 $92 reversed single #
face $-1 $93 $94 $47 $-1 $95 forward single #
face $-1 $96 $97 $36 $-1 $98 reversed single #
loop $-1 $-1 $99 $48 #
plane-surface $-1 0 0 9.4590195296736272 0 0 1 1 0 0 forward_v I I I I #
face $-1 $100 $101 $37 $-1 $102 reversed single #
loop $-1 $-1 $103 $49 #
plane-surface $-1 -46.657803761642057 0 -5.7138055163651238 0 0 1 1 0 0 forward_v I I I I #
face $-1 $104 $105 $38 $-1 $106 reversed single #
loop $-1 $-1 $107 $50 #
plane-surface $-1 -11.110277620874289 62.500094317102963 124.51321130269714 1 0 0 0 -0.71933980857756763 -0.69465836192734942 forward_v I I I I #
face $-1 $108 $109 $39 $-1 $110 forward single #
loop $-1 $111 $112 $51 #
cone-surface $-1 -6.1930114607091156 29.726067821401639 4.6606587807944635 0 -0.71933980857756763 -0.69465836192734942 2 0 0 1 I I 0 1 2 forward I I I I #
face $-1 $113 $114 $40 $-1 $115 forward single #
loop $-1 $116 $117 $52 #
cone-surface $-1 1.1828877795386461 29.726067821401639 4.6606587807944635 0 -0.71933980857756763 -0.69465836192734942 2 0 0 1 I I 0 1 2 forward I I I I #
face $-1 $118 $119 $41 $-1 $120 reversed single #
loop $-1 $-1 $121 $53 #
plane-surface $-1 35.547526140767772 62.500094317102963 124.51321130269714 1 0 0 0 -0.71933980857756763 -0.69465836192734942 forward_v I I I I #
face $-1 $122 $123 $42 $-1 $124 forward single #
loop $-1 $125 $126 $54 #
cone-surface $-1 40.464792300932949 29.726067821401639 4.6606587807944635 0 -0.71933980857756763 -0.69465836192734942 2 0 0 1 I I 0 1 2 forward I I I I #
face $-1 $127 $128 $43 $-1 $129 forward single #
loop $-1 $130 $131 $55 #
cone-surface $-1 47.840691541180696 29.726067821401639 4.6606587807944635 0 -0.71933980857756763 -0.69465836192734942 2 0 0 1 I I 0 1 2 forward I I I I #
face $-1 $132 $133 $44 $-1 $134 reversed single #
loop $-1 $-1 $135 $56 #
plane-surface $-1 -3.1917651674406571 -112.83726108247043 76.083459478636016 -1 0 0 0 -0.74314483375859142 0.66913059716165679 forward_v I I I I #
face $-1 $136 $137 $45 $-1 $138 forward single #
loop $-1 $139 $140 $57 #
cone-surface $-1 -14.499095309992967 -32.260507964213545 7.1347104638429997 0 0.74314483375859142 -0.66913059716165679 0.5 0 0 1 I I 0 1 0.5 forward I I I I #
face $-1 $141 $142 $46 $-1 $143 reversed single #
loop $-1 $-1 $144 $58 #
plane-surface $-1 38.006733331952901 -112.83726108247043 76.083459478636016 -1 0 0 0 -0.74314483375859142 0.66913059716165679 forward_v I I I I #
face $-1 $145 $146 $47 $-1 $147 forward single #
loop $-1 $148 $149 $59 #
cone-surface $-1 26.699403189400591 -32.260507964213545 7.1347104638429997 0 0.74314483375859142 -0.66913059716165679 0.5 0 0 1 I I 0 1 0.5 forward I I I I #
face $-1 $150 $151 $36 $-1 $152 reversed single #
loop $-1 $-1 $153 $60 #
plane-surface $-1 0 0 -9.4590195296736272 0 0 1 1 0 0 forward_v I I I I #
coedge $-1 $154 $155 $156 $157 forward $61 $-1 #
face $-1 $158 $159 $37 $-1 $160 reversed single #
loop $-1 $-1 $161 $63 #
plane-surface $-1 -40.557649821938249 0 -7.5864125230193755 -1 0 0 0 0 1 forward_v I I I I #
coedge $-1 $162 $163 $164 $165 forward $64 $-1 #
face $-1 $166 $167 $38 $-1 $168 reversed single #
loop $-1 $-1 $169 $66 #
plane-surface $-1 -2.5050618405852347 -13.401704070556121 51.215698351798522 0 0.71933980857756763 0.69465836192734942 1 0 0 forward_v I I I I #
coedge $-1 $170 $171 $172 $173 reversed $67 $-1 #
face $-1 $-1 $174 $39 $-1 $175 forward single #
loop $-1 $176 $177 $69 #
cone-surface $-1 -6.1930114607091156 28.059843506352081 3.0516047016317724 0 -0.71933980857756763 -0.69465836192734942 1 0 0 1 I I -0.70710678118654746 0.70710678118654746 1 forward I I I I #
loop $-1 $-1 $178 $51 #
coedge $-1 $112 $112 $179 $180 reversed $70 $-1 #
face $-1 $-1 $181 $40 $-1 $182 forward single #
loop $-1 $183 $184 $72 #
cone-surface $-1 1.1828877795386461 28.059843506352081 3.0516047016317724 0 -0.71933980857756763 -0.69465836192734942 1 0 0 1 I I -0.70710678118654746 0.70710678118654746 1 forward I I I I #
loop $-1 $-1 $185 $52 #
coedge $-1 $117 $117 $186 $187 reversed $73 $-1 #
face $-1 $188 $189 $41 $-1 $190 forward single #
loop $-1 $-1 $191 $75 #
plane-surface $-1 44.152741921056823 -13.401704070556121 51.215698351798522 0 0.71933980857756763 0.69465836192734942 1 0 0 forward_v I I I I #
coedge $-1 $192 $193 $194 $195 reversed $76 $-1 #
face $-1 $-1 $196 $42 $-1 $197 forward single #
loop $-1 $198 $199 $78 #
cone-surface $-1 40.464792300932949 28.059843506352081 3.0516047016317724 0 -0.71933980857756763 -0.69465836192734942 1 0 0 1 I I -0.70710678118654746 0.70710678118654746 1 forward I I I I #
loop $-1 $-1 $200 $54 #
coedge $-1 $126 $126 $201 $202 reversed $79 $-1 #
face $-1 $-1 $203 $43 $-1 $204 forward single #
loop $-1 $205 $206 $81 #
cone-surface $-1 47.840691541180696 28.059843506352081 3.0516047016317724 0 -0.71933980857756763 -0.69465836192734942 1 0 0 1 I I -0.70710678118654746 0.70710678118654746 1 forward I I I I #
loop $-1 $-1 $207 $55 #
coedge $-1 $131 $131 $208 $209 reversed $82 $-1 #
face $-1 $210 $211 $44 $-1 $212 reversed single #
loop $-1 $-1 $213 $84 #
plane-surface $-1 -14.499095309992967 -34.423653671651493 5.4795319951740424 0 -0.74314483375859142 0.66913059716165679 1 0 0 forward_v I I I I #
coedge $-1 $214 $215 $216 $217 reversed $85 $-1 #
face $-1 $-1 $218 $45 $-1 $219 forward single #
loop $-1 $220 $221 $87 #
cone-surface $-1 -14.499095309992967 -31.703149338894601 6.6328625159717571 0 0.74314483375859142 -0.66913059716165679 0.25 0 0 1 I I -0.70710678118654746 0.70710678118654746 0.25 forward I I I I #
loop $-1 $-1 $222 $57 #
coedge $-1 $140 $140 $223 $224 reversed $88 $-1 #
face $-1 $225 $226 $46 $-1 $227 reversed single #
loop $-1 $-1 $228 $90 #
plane-surface $-1 26.699403189400591 -34.423653671651493 5.4795319951740424 0 -0.74314483375859142 0.66913059716165679 1 0 0 forward_v I I I I #
coedge $-1 $229 $230 $231 $232 reversed $91 $-1 #
face $-1 $-1 $233 $47 $-1 $234 forward single #
loop $-1 $235 $236 $93 #
cone-surface $-1 26.699403189400591 -31.703149338894601 6.6328625159717571 0 0.74314483375859142 -0.66913059716165679 0.25 0 0 1 I I -0.70710678118654746 0.70710678118654746 0.25 forward I I I I #
loop $-1 $-1 $237 $59 #
coedge $-1 $149 $149 $238 $239 reversed $94 $-1 #
face $-1 $240 $241 $36 $-1 $242 reversed single #
loop $-1 $-1 $243 $96 #
plane-surface $-1 0 -34.423653671651493 0 0 1 0 0 0 1 forward_v I I I I #
coedge $-1 $244 $245 $246 $247 forward $97 $-1 #
coedge $-1 $248 $99 $249 $250 forward $61 $-1 #
coedge $-1 $99 $248 $251 $252 forward $61 $-1 #
coedge $-1 $253 $254 $99 $157 reversed $255 $-1 #
edge $-1 $256 -34.423653671651493 $257 34.423653671651493 $156 $258 forward 7 unknown #
face $-1 $259 $260 $37 $-1 $261 reversed single #
loop $-1 $-1 $262 $100 #
plane-surface $-1 0 0 -9.4590195296736272 0 0 1 1 0 0 forward_v I I I I #
coedge $-1 $263 $164 $264 $265 reversed $101 $-1 #
coedge $-1 $266 $103 $267 $268 reversed $64 $-1 #
coedge $-1 $103 $266 $269 $270 reversed $64 $-1 #
coedge $-1 $161 $271 $103 $165 reversed $101 $-1 #
edge $-1 $272 -34.423653671651493 $273 34.423653671651493 $164 $274 forward 7 unknown #
face $-1 $275 $276 $38 $-1 $277 reversed single #
loop $-1 $-1 $278 $104 #
plane-surface $-1 6.1001539397038194 62.500094317102963 124.51321130269714 -1 0 0 0 0.71933980857756763 0.69465836192734942 forward_v I I I I #
coedge $-1 $279 $280 $281 $282 reversed $105 $-1 #
coedge $-1 $171 $107 $283 $284 reversed $67 $-1 #
coedge $-1 $107 $170 $279 $285 reversed $67 $-1 #
coedge $-1 $281 $286 $107 $173 forward $287 $-1 #
edge $-1 $288 -3.1736065131000117 $289 4.3277961744557274 $172 $290 forward 7 unknown #
loop $-1 $-1 $179 $108 #
plane-surface $-1 -2.5050618405852347 -13.401704070556121 51.215698351798522 0 0.71933980857756763 0.69465836192734942 1 0 0 forward_v I I I I #
loop $-1 $-1 $291 $69 #
coedge $-1 $177 $177 $178 $292 reversed $109 $-1 #
coedge $-1 $178 $178 $177 $292 forward $111 $-1 #
coedge $-1 $179 $179 $112 $180 forward $174 $-1 #
edge $-1 $293 -5.9505903784640709e-016 $293 6.2831853071795996 $179 $294 forward 7 unknown #
loop $-1 $-1 $186 $113 #
plane-surface $-1 -2.5050618405852347 -13.401704070556121 51.215698351798522 0 0.71933980857756763 0.69465836192734942 1 0 0 forward_v I I I I #
loop $-1 $-1 $295 $72 #
coedge $-1 $184 $184 $185 $296 reversed $114 $-1 #
coedge $-1 $185 $185 $184 $296 forward $116 $-1 #
coedge $-1 $186 $186 $117 $187 forward $181 $-1 #
edge $-1 $297 -5.9505903784640709e-016 $297 6.2831853071795996 $186 $298 forward 7 unknown #
face $-1 $299 $300 $41 $-1 $301 reversed single #
loop $-1 $-1 $194 $118 #
plane-surface $-1 0 0 9.4590195296736272 0 0 1 1 0 0 forward_v I I I I #
coedge $-1 $302 $303 $304 $305 reversed $119 $-1 #
coedge $-1 $193 $121 $306 $307 reversed $76 $-1 #
coedge $-1 $121 $192 $302 $308 reversed $76 $-1 #
coedge $-1 $304 $309 $121 $195 forward $189 $-1 #
edge $-1 $310 -3.1736065131000117 $311 4.3277961744557274 $194 $312 forward 7 unknown #
loop $-1 $-1 $201 $122 #
plane-surface $-1 44.152741921056823 -13.401704070556121 51.215698351798522 0 0.71933980857756763 0.69465836192734942 1 0 0 forward_v I I I I #
loop $-1 $-1 $313 $78 #
coedge $-1 $199 $199 $200 $314 reversed $123 $-1 #
coedge $-1 $200 $200 $199 $314 forward $125 $-1 #
coedge $-1 $201 $201 $126 $202 forward $196 $-1 #
edge $-1 $315 -5.9505903784640709e-016 $315 6.2831853071795996 $201 $316 forward 7 unknown #
loop $-1 $-1 $208 $127 #
plane-surface $-1 44.152741921056823 -13.401704070556121 51.215698351798522 0 0.71933980857756763 0.69465836192734942 1 0 0 forward_v I I I I #
loop $-1 $-1 $317 $81 #
coedge $-1 $206 $206 $207 $318 reversed $128 $-1 #
coedge $-1 $207 $207 $206 $318 forward $130 $-1 #
coedge $-1 $208 $208 $131 $209 forward $203 $-1 #
edge $-1 $319 -5.9505903784640709e-016 $319 6.2831853071795996 $208 $320 forward 7 unknown #
face $-1 $321 $322 $44 $-1 $323 forward single #
loop $-1 $-1 $324 $132 #
plane-surface $-1 -25.806425452545277 -112.83726108247043 76.083459478636016 1 0 0 0 0.74314483375859142 -0.66913059716165679 forward_v I I I I #
coedge $-1 $325 $326 $327 $328 reversed $133 $-1 #
coedge $-1 $215 $135 $329 $330 reversed $85 $-1 #
coedge $-1 $135 $214 $325 $331 reversed $85 $-1 #
coedge $-1 $327 $332 $135 $217 forward $322 $-1 #
edge $-1 $333 21.994976869583724 $334 25.578123450701018 $216 $335 forward 7 unknown #
loop $-1 $-1 $223 $136 #
plane-surface $-1 -14.499095309992967 -34.423653671651493 5.4795319951740424 0 -0.74314483375859142 0.66913059716165679 1 0 0 forward_v I I I I #
loop $-1 $-1 $336 $87 #
coedge $-1 $221 $221 $222 $337 reversed $137 $-1 #
coedge $-1 $222 $222 $221 $337 forward $139 $-1 #
coedge $-1 $223 $223 $140 $224 forward $218 $-1 #
edge $-1 $338 1.5883752530884473e-015 $338 6.2831853071796022 $223 $339 forward 7 unknown #
face $-1 $340 $341 $46 $-1 $342 reversed single #
loop $-1 $-1 $343 $141 #
plane-surface $-1 15.392073046848282 -112.83726108247043 76.083459478636016 1 0 0 0 0.74314483375859142 -0.66913059716165679 forward_v I I I I #
coedge $-1 $344 $345 $346 $347 reversed $142 $-1 #
coedge $-1 $230 $144 $348 $349 reversed $91 $-1 #
coedge $-1 $144 $229 $344 $350 reversed $91 $-1 #
coedge $-1 $346 $351 $144 $232 forward $352 $-1 #
edge $-1 $353 21.994976869583724 $354 25.578123450701018 $231 $355 forward 7 unknown #
loop $-1 $-1 $238 $145 #
plane-surface $-1 26.699403189400591 -34.423653671651493 5.4795319951740424 0 -0.74314483375859142 0.66913059716165679 1 0 0 forward_v I I I I #
loop $-1 $-1 $356 $93 #
coedge $-1 $236 $236 $237 $357 reversed $146 $-1 #
coedge $-1 $237 $237 $236 $357 forward $148 $-1 #
coedge $-1 $238 $238 $149 $239 forward $233 $-1 #
edge $-1 $358 1.5883752530884473e-015 $358 6.2831853071796022 $238 $359 forward 7 unknown #
face $-1 $360 $361 $36 $-1 $362 reversed single #
loop $-1 $-1 $363 $150 #
plane-surface $-1 -52.757957701345866 0 0 1 0 0 0 0 -1 forward_v I I I I #
coedge $-1 $364 $251 $365 $366 forward $151 $-1 #
coedge $-1 $367 $153 $364 $368 forward $97 $-1 #
coedge $-1 $153 $367 $369 $370 forward $97 $-1 #
coedge $-1 $254 $253 $153 $247 reversed $255 $-1 #
edge $-1 $371 -34.423653671651493 $372 34.423653671651493 $246 $373 forward 7 unknown #
coedge $-1 $155 $154 $374 $375 forward $61 $-1 #
coedge $-1 $376 $377 $154 $250 reversed $361 $-1 #
edge $-1 $257 -52.757957701345866 $378 52.757957701345866 $249 $379 forward 7 unknown #
coedge $-1 $243 $380 $155 $252 reversed $151 $-1 #
edge $-1 $381 -52.757957701345866 $256 52.757957701345866 $251 $382 forward 7 unknown #
coedge $-1 $246 $156 $380 $383 forward $255 $-1 #
coedge $-1 $156 $246 $376 $384 reversed $255 $-1 #
loop $-1 $-1 $253 $360 #
vertex $-1 $157 $385 #
vertex $-1 $157 $386 #
straight-curve $-1 52.757957701345866 0 9.4590195296736272 0 1 0 I I #
face $-1 $387 $388 $37 $-1 $389 reversed single #
loop $-1 $-1 $264 $158 #
plane-surface $-1 0 -34.423653671651493 0 0 1 0 0 0 1 forward_v I I I I #
coedge $-1 $390 $391 $263 $392 forward $159 $-1 #
coedge $-1 $271 $161 $262 $392 reversed $101 $-1 #
coedge $-1 $269 $393 $161 $265 forward $260 $-1 #
edge $-1 $394 -5.665813268163939 $272 -1.920599254855436 $264 $395 forward 7 unknown #
coedge $-1 $163 $162 $396 $397 reversed $64 $-1 #
coedge $-1 $398 $399 $162 $268 forward $400 $-1 #
edge $-1 $401 -29.429055820524837 $273 -17.22874794111722 $267 $402 forward 7 unknown #
coedge $-1 $403 $264 $163 $270 forward $260 $-1 #
edge $-1 $272 17.22874794111722 $404 29.429055820524837 $269 $405 forward 7 unknown #
coedge $-1 $164 $263 $398 $406 reversed $101 $-1 #
vertex $-1 $270 $407 #
vertex $-1 $268 $408 #
straight-curve $-1 -40.557649821938249 0 -5.7138055163651238 0 1 0 I I #
face $-1 $-1 $287 $38 $-1 $409 forward single #
loop $-1 $-1 $410 $166 #
plane-surface $-1 0 34.423653671651493 0 0 -1 0 0 0 -1 forward_v I I I I #
coedge $-1 $411 $412 $413 $414 reversed $167 $-1 #
coedge $-1 $415 $169 $171 $285 forward $105 $-1 #
coedge $-1 $169 $415 $411 $416 forward $105 $-1 #
coedge $-1 $413 $172 $169 $282 forward $287 $-1 #
edge $-1 $289 -9.8577467005816715 $417 7.3526848599964367 $281 $418 forward 7 unknown #
coedge $-1 $419 $420 $170 $284 forward $276 $-1 #
edge $-1 $421 -60.565516184962576 $288 -52.797586121674946 $283 $422 forward 7 unknown #
edge $-1 $289 58.048613915438828 $421 68.847307343302973 $171 $423 forward 7 unknown #
coedge $-1 $172 $413 $419 $424 forward $287 $-1 #
loop $-1 $-1 $413 $275 #
vertex $-1 $284 $425 #
vertex $-1 $173 $426 #
straight-curve $-1 -11.110277620874289 31.250047158551482 9.4590195296736255 0 -1 0 I I #
coedge $-1 $291 $291 $-1 $427 reversed $176 $-1 #
edge $-1 $428 0 $428 6.2831853071796004 $177 $429 forward 7 unknown #
vertex $-1 $180 $430 #
ellipse-curve $-1 -6.1930114607091156 30.672952327873627 5.5750544980298065 0 0.71933980857756763 0.69465836192734942 2 0 0 1 I I #
coedge $-1 $295 $295 $-1 $431 reversed $183 $-1 #
edge $-1 $432 0 $432 6.2831853071796004 $184 $433 forward 7 unknown #
vertex $-1 $187 $434 #
ellipse-curve $-1 1.1828877795386461 30.672952327873627 5.5750544980298065 0 0.71933980857756763 0.69465836192734942 2 0 0 1 I I #
face $-1 $-1 $435 $41 $-1 $436 reversed single #
loop $-1 $-1 $437 $188 #
plane-surface $-1 52.757957701345866 0 0 -1 0 0 0 0 1 forward_v I I I I #
coedge $-1 $438 $191 $193 $308 forward $119 $-1 #
coedge $-1 $191 $438 $437 $439 reversed $119 $-1 #
coedge $-1 $440 $194 $191 $305 forward $189 $-1 #
edge $-1 $311 13.471155180239361 $441 30.681586740817462 $304 $442 forward 7 unknown #
coedge $-1 $443 $444 $192 $307 forward $435 $-1 #
edge $-1 $445 -60.565516184962576 $310 -52.797586121674946 $306 $446 forward 7 unknown #
edge $-1 $311 58.048613915438828 $445 68.847307343302973 $193 $447 forward 7 unknown #
coedge $-1 $194 $440 $443 $448 forward $189 $-1 #
vertex $-1 $307 $449 #
vertex $-1 $195 $450 #
straight-curve $-1 35.547526140767772 31.250047158551482 9.4590195296736255 0 -1 0 I I #
coedge $-1 $313 $313 $-1 $451 reversed $198 $-1 #
edge $-1 $452 0 $452 6.2831853071796004 $199 $453 forward 7 unknown #
vertex $-1 $202 $454 #
ellipse-curve $-1 40.464792300932949 30.672952327873627 5.5750544980298065 0 0.71933980857756763 0.69465836192734942 2 0 0 1 I I #
coedge $-1 $317 $317 $-1 $455 reversed $205 $-1 #
edge $-1 $456 0 $456 6.2831853071796004 $206 $457 forward 7 unknown #
vertex $-1 $209 $458 #
ellipse-curve $-1 47.840691541180696 30.672952327873627 5.5750544980298065 0 0.71933980857756763 0.69465836192734942 2 0 0 1 I I #
face $-1 $-1 $459 $44 $-1 $460 reversed single #
loop $-1 $-1 $216 $210 #
plane-surface $-1 0 0 9.4590195296736272 0 0 1 1 0 0 forward_v I I I I #
coedge $-1 $461 $462 $463 $464 reversed $211 $-1 #
coedge $-1 $465 $213 $215 $331 forward $133 $-1 #
coedge $-1 $213 $465 $461 $466 forward $133 $-1 #
coedge $-1 $463 $216 $213 $328 forward $322 $-1 #
edge $-1 $334 -4.0577824875558264 $467 18.556877797548793 $327 $468 forward 7 unknown #
coedge $-1 $469 $470 $214 $330 forward $459 $-1 #
edge $-1 $471 -32.562197744143965 $333 -28.582710209644382 $329 $472 forward 7 unknown #
edge $-1 $334 -5.354928613810845 $471 0 $215 $473 forward 7 unknown #
coedge $-1 $216 $463 $469 $474 forward $322 $-1 #
vertex $-1 $330 $475 #
vertex $-1 $217 $476 #
straight-curve $-1 -3.1917651674406571 -56.418630541235217 9.4590195296736255 0 1 0 I I #
coedge $-1 $336 $336 $-1 $477 reversed $220 $-1 #
edge $-1 $478 0 $478 6.2831853071796004 $221 $479 forward 7 unknown #
vertex $-1 $224 $480 #
ellipse-curve $-1 -14.499095309992967 -32.632080381092848 7.469275762423834 0 -0.74314483375859142 0.66913059716165679 0.5 0 0 1 I I #
face $-1 $-1 $352 $46 $-1 $481 forward single #
loop $-1 $-1 $482 $225 #
plane-surface $-1 0 -34.423653671651493 0 0 1 0 0 0 1 forward_v I I I I #
coedge $-1 $483 $484 $485 $486 reversed $226 $-1 #
coedge $-1 $487 $228 $230 $350 forward $142 $-1 #
coedge $-1 $228 $487 $483 $488 forward $142 $-1 #
coedge $-1 $485 $231 $228 $347 forward $352 $-1 #
edge $-1 $354 -24.657031737252606 $489 -2.0423714521479859 $346 $490 forward 7 unknown #
coedge $-1 $491 $492 $229 $349 forward $341 $-1 #
edge $-1 $493 -32.562197744143965 $353 -28.582710209644382 $348 $494 forward 7 unknown #
edge $-1 $354 -5.354928613810845 $493 0 $230 $495 forward 7 unknown #
coedge $-1 $231 $485 $491 $496 forward $352 $-1 #
loop $-1 $-1 $485 $340 #
vertex $-1 $349 $497 #
vertex $-1 $232 $498 #
straight-curve $-1 38.006733331952901 -56.418630541235217 9.4590195296736255 0 1 0 I I #
coedge $-1 $356 $356 $-1 $499 reversed $235 $-1 #
edge $-1 $500 0 $500 6.2831853071796004 $236 $501 forward 7 unknown #
vertex $-1 $239 $502 #
ellipse-curve $-1 26.699403189400591 -32.632080381092848 7.469275762423834 0 -0.74314483375859142 0.66913059716165679 0.5 0 0 1 I I #
face $-1 $-1 $255 $36 $-1 $503 reversed single #
loop $-1 $-1 $376 $240 #
plane-surface $-1 0 34.423653671651493 0 0 -1 0 0 0 -1 forward_v I I I I #
coedge $-1 $504 $374 $377 $505 forward $241 $-1 #
coedge $-1 $380 $243 $244 $368 reversed $151 $-1 #
coedge $-1 $374 $504 $243 $366 reversed $241 $-1 #
edge $-1 $381 -9.4590195296736272 $506 9.4590195296736272 $365 $507 forward 7 unknown #
coedge $-1 $245 $244 $504 $508 forward $97 $-1 #
edge $-1 $372 -52.757957701345866 $506 52.757957701345866 $364 $509 forward 7 unknown #
coedge $-1 $377 $376 $245 $370 reversed $361 $-1 #
edge $-1 $510 -52.757957701345866 $371 52.757957701345866 $369 $511 forward 7 unknown #
vertex $-1 $247 $512 #
vertex $-1 $383 $513 #
straight-curve $-1 52.757957701345866 0 -9.4590195296736272 0 -1 0 I I #
coedge $-1 $363 $365 $248 $375 reversed $241 $-1 #
edge $-1 $378 -34.423653671651493 $381 34.423653671651493 $374 $514 forward 7 unknown #
coedge $-1 $369 $249 $254 $384 forward $361 $-1 #
coedge $-1 $249 $369 $363 $505 reversed $361 $-1 #
vertex $-1 $250 $515 #
straight-curve $-1 0 34.423653671651493 9.4590195296736272 -1 0 0 I I #
coedge $-1 $251 $364 $253 $383 reversed $151 $-1 #
vertex $-1 $375 $516 #
straight-curve $-1 0 -34.423653671651493 9.4590195296736272 1 0 0 I I #
edge $-1 $256 -9.4590195296736272 $372 9.4590195296736272 $253 $517 forward 7 unknown #
edge $-1 $257 -9.4590195296736272 $371 9.4590195296736272 $254 $518 forward 7 unknown #
point $-1 52.757957701345866 -34.423653671651493 9.4590195296736272 #
point $-1 52.757957701345866 34.423653671651493 9.4590195296736272 #
face $-1 $-1 $400 $37 $-1 $519 reversed single #
loop $-1 $-1 $396 $259 #
plane-surface $-1 -52.757957701345866 0 0 1 0 0 0 0 -1 forward_v I I I I #
coedge $-1 $520 $262 $393 $521 forward $159 $-1 #
coedge $-1 $262 $520 $522 $523 forward $159 $-1 #
edge $-1 $524 -34.423653671651493 $394 34.423653671651493 $262 $525 forward 7 unknown #
coedge $-1 $264 $403 $390 $521 reversed $260 $-1 #
vertex $-1 $521 $526 #
straight-curve $-1 -40.557649821938249 -34.423653671651493 -3.7932062615096878 0 0 1 I I #
coedge $-1 $527 $528 $266 $397 forward $388 $-1 #
edge $-1 $404 -34.423653671651493 $401 34.423653671651493 $396 $529 forward 7 unknown #
coedge $-1 $522 $267 $271 $406 forward $400 $-1 #
coedge $-1 $267 $522 $527 $530 reversed $400 $-1 #
loop $-1 $-1 $398 $387 #
vertex $-1 $530 $531 #
straight-curve $-1 -23.328901880821029 34.423653671651493 -5.7138055163651238 1 0 0 I I #
coedge $-1 $393 $269 $528 $532 forward $260 $-1 #
vertex $-1 $532 $533 #
straight-curve $-1 -23.328901880821029 -34.423653671651493 -5.7138055163651238 -1 0 0 I I #
edge $-1 $273 1.920599254855436 $524 5.665813268163939 $398 $534 forward 7 unknown #
point $-1 -40.557649821938249 -34.423653671651493 -5.7138055163651238 #
point $-1 -40.557649821938249 34.423653671651493 -5.7138055163651238 #
plane-surface $-1 0 0 9.4590195296736272 0 0 1 1 0 0 forward_v I I I I #
coedge $-1 $420 $419 $412 $535 forward $276 $-1 #
coedge $-1 $412 $278 $280 $416 reversed $167 $-1 #
coedge $-1 $278 $411 $410 $535 reversed $167 $-1 #
coedge $-1 $286 $281 $278 $414 forward $287 $-1 #
edge $-1 $417 -4.3277961744557274 $536 3.1736065131000117 $413 $537 forward 7 unknown #
coedge $-1 $280 $279 $420 $538 reversed $105 $-1 #
edge $-1 $539 -68.847307343302973 $417 -58.048613915438828 $411 $540 forward 7 unknown #
vertex $-1 $282 $541 #
straight-curve $-1 -1.2525309202926174 26.922250984095754 9.4590195296736255 1 0 0 I I #
coedge $-1 $410 $283 $286 $424 reversed $276 $-1 #
coedge $-1 $283 $410 $415 $538 forward $276 $-1 #
vertex $-1 $284 $542 #
straight-curve $-1 -11.110277620874289 34.423653671651493 62.256605651348572 0 0 1 I I #
straight-curve $-1 -11.110277620874289 -13.401704070556121 51.215698351798522 0 0.69465836192734942 -0.71933980857756763 I I #
edge $-1 $536 -6.1001539397038194 $288 11.110277620874289 $419 $543 forward 7 unknown #
point $-1 -11.110277620874289 34.423653671651493 9.4590195296736272 #
point $-1 -11.110277620874289 26.922250984095754 9.4590195296736255 #
edge $-1 $544 1 $544 0 $291 $-1 forward 7 unknown #
vertex $-1 $292 $545 #
ellipse-curve $-1 -6.1930114607091156 28.77918331492965 3.7462630635591219 0 0.71933980857756763 0.69465836192734942 2 0 0 1 I I #
point $-1 -4.1930114607091156 30.672952327873624 5.5750544980298047 #
edge $-1 $546 1 $546 0 $295 $-1 forward 7 unknown #
vertex $-1 $296 $547 #
ellipse-curve $-1 1.1828877795386461 28.77918331492965 3.7462630635591219 0 0.71933980857756763 0.69465836192734942 2 0 0 1 I I #
point $-1 3.1828877795386461 30.672952327873624 5.5750544980298047 #
loop $-1 $-1 $306 $299 #
plane-surface $-1 0 34.423653671651493 0 0 -1 0 0 0 -1 forward_v I I I I #
coedge $-1 $548 $549 $303 $439 forward $300 $-1 #
coedge $-1 $303 $302 $444 $550 reversed $119 $-1 #
edge $-1 $441 34.973065692820427 $551 45.771759120684571 $437 $552 forward 7 unknown #
coedge $-1 $309 $304 $549 $553 forward $189 $-1 #
vertex $-1 $553 $554 #
straight-curve $-1 22.076370960528411 26.922250984095754 9.4590195296736255 1 0 0 I I #
coedge $-1 $555 $306 $309 $448 reversed $435 $-1 #
coedge $-1 $306 $555 $438 $550 forward $435 $-1 #
vertex $-1 $307 $556 #
straight-curve $-1 35.547526140767772 34.423653671651493 62.256605651348572 0 0 1 I I #
straight-curve $-1 35.547526140767772 -13.401704070556121 51.215698351798522 0 0.69465836192734942 -0.71933980857756763 I I #
edge $-1 $557 -52.757957701345866 $310 -35.547526140767772 $443 $558 forward 7 unknown #
point $-1 35.547526140767772 34.423653671651493 9.4590195296736272 #
point $-1 35.547526140767772 26.922250984095754 9.4590195296736255 #
edge $-1 $559 1 $559 0 $313 $-1 forward 7 unknown #
vertex $-1 $314 $560 #
ellipse-curve $-1 40.464792300932949 28.77918331492965 3.7462630635591219 0 0.71933980857756763 0.69465836192734942 2 0 0 1 I I #
point $-1 42.464792300932949 30.672952327873624 5.5750544980298047 #
edge $-1 $561 1 $561 0 $317 $-1 forward 7 unknown #
vertex $-1 $318 $562 #
ellipse-curve $-1 47.840691541180696 28.77918331492965 3.7462630635591219 0 0.71933980857756763 0.69465836192734942 2 0 0 1 I I #
point $-1 49.840691541180696 30.672952327873624 5.5750544980298047 #
loop $-1 $-1 $329 $321 #
plane-surface $-1 0 -34.423653671651493 0 0 1 0 0 0 1 forward_v I I I I #
coedge $-1 $462 $324 $326 $466 reversed $211 $-1 #
coedge $-1 $324 $461 $563 $564 reversed $211 $-1 #
coedge $-1 $332 $327 $324 $464 forward $322 $-1 #
edge $-1 $467 -25.578123450701018 $565 -21.994976869583724 $463 $566 forward 7 unknown #
coedge $-1 $326 $325 $470 $567 reversed $133 $-1 #
edge $-1 $568 0 $467 5.354928613810845 $461 $569 forward 7 unknown #
vertex $-1 $328 $570 #
straight-curve $-1 -7.2495476549964835 -30.840507090534199 9.4590195296736272 -1 0 0 I I #
coedge $-1 $563 $329 $332 $474 reversed $459 $-1 #
coedge $-1 $329 $563 $465 $567 forward $459 $-1 #
vertex $-1 $330 $571 #
straight-curve $-1 -3.1917651674406571 -34.423653671651493 38.041729739318008 0 0 1 I I #
straight-curve $-1 -3.1917651674406571 -34.423653671651493 5.4795319951740424 0 -0.66913059716165679 -0.74314483375859142 I I #
edge $-1 $565 -25.806425452545277 $333 -3.1917651674406571 $469 $572 forward 7 unknown #
point $-1 -3.1917651674406571 -34.423653671651493 9.4590195296736272 #
point $-1 -3.1917651674406571 -30.840507090534199 9.4590195296736272 #
edge $-1 $573 1 $573 0 $336 $-1 forward 7 unknown #
vertex $-1 $337 $574 #
ellipse-curve $-1 -14.499095309992967 -31.888935547334249 6.8001451652621716 0 -0.74314483375859142 0.66913059716165679 0.5 0 0 1 I I #
point $-1 -13.999095309992967 -32.632080381092841 7.4692757624238286 #
plane-surface $-1 0 0 9.4590195296736272 0 0 1 1 0 0 forward_v I I I I #
coedge $-1 $492 $491 $484 $575 forward $341 $-1 #
coedge $-1 $484 $343 $345 $488 reversed $226 $-1 #
coedge $-1 $343 $483 $482 $575 reversed $226 $-1 #
coedge $-1 $351 $346 $343 $486 forward $352 $-1 #
edge $-1 $489 -25.578123450701018 $576 -21.994976869583724 $485 $577 forward 7 unknown #
coedge $-1 $345 $344 $492 $578 reversed $142 $-1 #
edge $-1 $579 0 $489 5.354928613810845 $483 $580 forward 7 unknown #
vertex $-1 $347 $581 #
straight-curve $-1 13.349701594700296 -30.840507090534199 9.4590195296736272 -1 0 0 I I #
coedge $-1 $482 $348 $351 $496 reversed $341 $-1 #
coedge $-1 $348 $482 $487 $578 forward $341 $-1 #
vertex $-1 $349 $582 #
straight-curve $-1 38.006733331952901 -34.423653671651493 38.041729739318008 0 0 1 I I #
straight-curve $-1 38.006733331952901 -34.423653671651493 5.4795319951740424 0 -0.66913059716165679 -0.74314483375859142 I I #
edge $-1 $576 15.392073046848282 $353 38.006733331952901 $491 $583 forward 7 unknown #
point $-1 38.006733331952901 -34.423653671651493 9.4590195296736272 #
point $-1 38.006733331952901 -30.840507090534199 9.4590195296736272 #
edge $-1 $584 1 $584 0 $356 $-1 forward 7 unknown #
vertex $-1 $357 $585 #
ellipse-curve $-1 26.699403189400591 -31.888935547334249 6.8001451652621716 0 -0.74314483375859142 0.66913059716165679 0.5 0 0 1 I I #
point $-1 27.199403189400591 -32.632080381092841 7.4692757624238286 #
plane-surface $-1 52.757957701345866 0 0 -1 0 0 0 0 1 forward_v I I I I #
coedge $-1 $365 $363 $367 $508 reversed $241 $-1 #
edge $-1 $378 -9.4590195296736272 $510 9.4590195296736272 $377 $586 forward 7 unknown #
vertex $-1 $508 $587 #
straight-curve $-1 -52.757957701345866 -34.423653671651493 0 0 0 -1 I I #
edge $-1 $506 -34.423653671651493 $510 34.423653671651493 $504 $588 forward 7 unknown #
straight-curve $-1 0 -34.423653671651493 -9.4590195296736272 -1 0 0 I I #
vertex $-1 $370 $589 #
straight-curve $-1 0 34.423653671651493 -9.4590195296736272 1 0 0 I I #
point $-1 52.757957701345866 34.423653671651493 -9.4590195296736272 #
point $-1 52.757957701345866 -34.423653671651493 -9.4590195296736272 #
straight-curve $-1 -52.757957701345866 0 9.4590195296736272 0 -1 0 I I #
point $-1 -52.757957701345866 34.423653671651493 9.4590195296736272 #
point $-1 -52.757957701345866 -34.423653671651493 9.4590195296736272 #
straight-curve $-1 52.757957701345866 -34.423653671651493 0 0 0 -1 I I #
straight-curve $-1 52.757957701345866 34.423653671651493 0 0 0 -1 I I #
plane-surface $-1 0 34.423653671651493 0 0 -1 0 0 0 -1 forward_v I I I I #
coedge $-1 $391 $390 $590 $591 forward $159 $-1 #
edge $-1 $394 40.557649821938249 $592 52.757957701345866 $393 $593 forward 7 unknown #
coedge $-1 $399 $398 $391 $523 reversed $400 $-1 #
edge $-1 $594 -52.757957701345866 $524 -40.557649821938249 $522 $595 forward 7 unknown #
vertex $-1 $406 $596 #
straight-curve $-1 -40.557649821938249 0 -9.4590195296736272 0 -1 0 I I #
point $-1 -40.557649821938249 -34.423653671651493 -9.4590195296736272 #
coedge $-1 $590 $396 $399 $530 forward $388 $-1 #
coedge $-1 $396 $590 $403 $532 reversed $388 $-1 #
straight-curve $-1 -52.757957701345866 0 -5.7138055163651238 0 1 0 I I #
edge $-1 $401 5.7138055163651238 $594 9.4590195296736272 $399 $597 forward 7 unknown #
point $-1 -52.757957701345866 34.423653671651493 -5.7138055163651238 #
edge $-1 $404 5.7138055163651238 $592 9.4590195296736272 $528 $598 forward 7 unknown #
point $-1 -52.757957701345866 -34.423653671651493 -5.7138055163651238 #
straight-curve $-1 -40.557649821938249 34.423653671651493 -3.7932062615096878 0 0 -1 I I #
edge $-1 $536 52.797586121674946 $539 60.565516184962576 $410 $599 forward 7 unknown #
vertex $-1 $424 $600 #
straight-curve $-1 6.1001539397038194 31.250047158551482 9.4590195296736255 0 1 0 I I #
edge $-1 $539 -7.3526848599964367 $421 9.8577467005816715 $420 $601 forward 7 unknown #
vertex $-1 $538 $602 #
straight-curve $-1 6.1001539397038194 -13.401704070556121 51.215698351798522 0 -0.69465836192734942 0.71933980857756763 I I #
point $-1 6.1001539397038194 26.922250984095754 9.4590195296736255 #
point $-1 -11.110277620874289 34.423653671651493 1.6910894663859963 #
straight-curve $-1 0 34.423653671651493 9.4590195296736272 -1 0 0 I I #
vertex $-1 $427 $603 #
point $-1 -4.1930114607091156 28.77918331492965 3.7462630635591219 #
vertex $-1 $431 $604 #
point $-1 3.1828877795386461 28.77918331492965 3.7462630635591219 #
coedge $-1 $549 $437 $555 $605 reversed $300 $-1 #
coedge $-1 $437 $548 $440 $553 reversed $300 $-1 #
edge $-1 $551 -30.681586740817462 $445 -13.471155180239361 $444 $606 forward 7 unknown #
vertex $-1 $439 $607 #
straight-curve $-1 52.757957701345866 2.6279184583435349 34.616537910517771 0 0.69465836192734942 -0.71933980857756763 I I #
edge $-1 $441 26.922250984095754 $557 34.423653671651493 $549 $608 forward 7 unknown #
point $-1 52.757957701345873 26.922250984095754 9.4590195296736255 #
coedge $-1 $444 $443 $548 $605 forward $435 $-1 #
point $-1 35.547526140767772 34.423653671651493 1.6910894663859963 #
vertex $-1 $553 $609 #
straight-curve $-1 0 34.423653671651493 9.4590195296736272 -1 0 0 I I #
vertex $-1 $451 $610 #
point $-1 42.464792300932949 28.77918331492965 3.7462630635591219 #
vertex $-1 $455 $611 #
point $-1 49.840691541180696 28.77918331492965 3.7462630635591219 #
coedge $-1 $470 $469 $462 $564 forward $459 $-1 #
edge $-1 $565 28.582710209644382 $568 32.562197744143965 $563 $612 forward 7 unknown #
vertex $-1 $474 $613 #
straight-curve $-1 -25.806425452545277 -56.418630541235217 9.4590195296736255 0 -1 0 I I #
edge $-1 $568 -18.556877797548793 $471 4.0577824875558264 $470 $614 forward 7 unknown #
vertex $-1 $567 $615 #
straight-curve $-1 -25.806425452545277 -34.423653671651493 5.4795319951740424 0 0.66913059716165679 0.74314483375859142 I I #
point $-1 -25.806425452545277 -30.840507090534199 9.4590195296736272 #
point $-1 -3.1917651674406571 -34.423653671651493 5.4795319951740424 #
straight-curve $-1 0 -34.423653671651493 9.4590195296736272 1 0 0 I I #
vertex $-1 $477 $616 #
point $-1 -13.999095309992967 -31.888935547334249 6.8001451652621716 #
edge $-1 $576 28.582710209644382 $579 32.562197744143965 $482 $617 forward 7 unknown #
vertex $-1 $496 $618 #
straight-curve $-1 15.392073046848282 -56.418630541235217 9.4590195296736255 0 -1 0 I I #
edge $-1 $579 2.0423714521479859 $493 24.657031737252606 $492 $619 forward 7 unknown #
vertex $-1 $578 $620 #
straight-curve $-1 15.392073046848282 -34.423653671651493 5.4795319951740424 0 0.66913059716165679 0.74314483375859142 I I #
point $-1 15.392073046848282 -30.840507090534199 9.4590195296736272 #
point $-1 38.006733331952901 -34.423653671651493 5.4795319951740424 #
straight-curve $-1 0 -34.423653671651493 9.4590195296736272 1 0 0 I I #
vertex $-1 $499 $621 #
point $-1 27.199403189400591 -31.888935547334249 6.8001451652621716 #
straight-curve $-1 -52.757957701345866 34.423653671651493 0 0 0 -1 I I #
point $-1 -52.757957701345866 -34.423653671651493 -9.4590195296736272 #
straight-curve $-1 -52.757957701345866 0 -9.4590195296736272 0 1 0 I I #
point $-1 -52.757957701345866 34.423653671651493 -9.4590195296736272 #
coedge $-1 $528 $527 $520 $591 reversed $388 $-1 #
edge $-1 $592 -34.423653671651493 $594 34.423653671651493 $590 $622 forward 7 unknown #
vertex $-1 $591 $623 #
straight-curve $-1 0 -34.423653671651493 -9.4590195296736272 -1 0 0 I I #
vertex $-1 $523 $624 #
straight-curve $-1 0 34.423653671651493 -9.4590195296736272 1 0 0 I I #
point $-1 -40.557649821938249 34.423653671651493 -9.4590195296736272 #
straight-curve $-1 -52.757957701345866 34.423653671651493 0 0 0 -1 I I #
straight-curve $-1 -52.757957701345866 -34.423653671651493 0 0 0 -1 I I #
straight-curve $-1 6.1001539397038194 34.423653671651493 62.256605651348572 0 0 -1 I I #
point $-1 6.1001539397038194 34.423653671651493 9.4590195296736272 #
straight-curve $-1 -1.2525309202926174 34.423653671651493 1.6910894663859963 -1 0 0 I I #
point $-1 6.1001539397038194 34.423653671651493 1.6910894663859963 #
point $-1 -6.1930114607091156 27.340503697774512 2.356946339704423 #
point $-1 1.1828877795386461 27.340503697774512 2.356946339704423 #
edge $-1 $557 -9.4590195296736272 $551 -1.6910894663859963 $548 $625 forward 7 unknown #
straight-curve $-1 22.076370960528411 34.423653671651493 1.6910894663859963 -1 0 0 I I #
point $-1 52.757957701345873 34.423653671651493 1.6910894663859963 #
straight-curve $-1 52.757957701345866 0 9.4590195296736272 0 1 0 I I #
point $-1 52.757957701345866 34.423653671651493 9.4590195296736272 #
point $-1 40.464792300932949 27.340503697774512 2.356946339704423 #
point $-1 47.840691541180696 27.340503697774512 2.356946339704423 #
straight-curve $-1 -25.806425452545277 -34.423653671651493 38.041729739318008 0 0 -1 I I #
point $-1 -25.806425452545277 -34.423653671651493 9.4590195296736272 #
straight-curve $-1 -7.2495476549964835 -34.423653671651493 5.4795319951740415 1 0 0 I I #
point $-1 -25.806425452545277 -34.423653671651493 5.4795319951740424 #
point $-1 -14.499095309992967 -31.517363130454953 6.4655798666813427 #
straight-curve $-1 15.392073046848282 -34.423653671651493 38.041729739318008 0 0 -1 I I #
point $-1 15.392073046848282 -34.423653671651493 9.4590195296736272 #
straight-curve $-1 13.349701594700296 -34.423653671651493 5.4795319951740415 1 0 0 I I #
point $-1 15.392073046848282 -34.423653671651493 5.4795319951740424 #
point $-1 26.699403189400591 -31.517363130454953 6.4655798666813427 #
straight-curve $-1 -52.757957701345866 0 -9.4590195296736272 0 1 0 I I #
point $-1 -52.757957701345866 -34.423653671651493 -9.4590195296736272 #
point $-1 -52.757957701345866 34.423653671651493 -9.4590195296736272 #
straight-curve $-1 52.757957701345866 34.423653671651493 0 0 0 -1 I I #
End-of-ACIS-data 