500 0 6 0           
7 Unknown 11 ACIS 5.0 NT 24 Fri Mar 26 18:46:38 1999 
-1 9.9999999999999995e-007 1e-010 
body $-1 $6 $-1 $7 #
body $-1 $8 $-1 $9 #
body $-1 $10 $-1 $11 #
body $-1 $12 $-1 $13 #
body $-1 $14 $-1 $15 #
body $-1 $16 $-1 $17 #
lump $-1 $-1 $18 $0 #
transform $-1 1 0 0 0 1 0 0 0 1 62.023377178258613 37.211376301521362 12.420107400642374 1 rotate no_reflect no_shear #
lump $-1 $-1 $19 $1 #
transform $-1 1 0 0 0 1 0 0 0 1 62.023377178258613 37.211376301521362 12.420107400642374 1 rotate no_reflect no_shear #
lump $-1 $-1 $20 $2 #
transform $-1 1 0 0 0 1 0 0 0 1 62.023377178258613 37.211376301521362 12.420107400642374 1 rotate no_reflect no_shear #
lump $-1 $-1 $21 $3 #
transform $-1 1 0 0 0 1 0 0 0 1 62.023377178258613 37.211376301521362 12.420107400642374 1 rotate no_reflect no_shear #
lump $-1 $-1 $22 $4 #
transform $-1 1 0 0 0 1 0 0 0 1 62.023377178258613 37.211376301521362 12.420107400642374 1 rotate no_reflect no_shear #
lump $-1 $-1 $23 $5 #
transform $-1 1 0 0 0 1 0 0 0 1 62.023377178258613 37.211376301521362 12.420107400642374 1 rotate no_reflect no_shear #
shell $-1 $-1 $-1 $24 $-1 $6 #
shell $-1 $-1 $-1 $25 $-1 $8 #
shell $-1 $-1 $-1 $26 $-1 $10 #
shell $-1 $-1 $-1 $27 $-1 $12 #
shell $-1 $-1 $-1 $28 $-1 $14 #
shell $-1 $-1 $-1 $29 $-1 $16 #
face $-1 $30 $31 $18 $-1 $32 forward single #
face $-1 $33 $34 $19 $-1 $35 forward single #
face $-1 $36 $37 $20 $-1 $38 forward single #
face $-1 $39 $40 $21 $-1 $41 reversed single #
face $-1 $42 $43 $22 $-1 $44 forward single #
face $-1 $45 $46 $23 $-1 $47 forward single #
face $-1 $48 $49 $18 $-1 $50 reversed single #
loop $-1 $-1 $51 $24 #
plane-surface $-1 0 0 12.420107400642374 0 0 1 1 0 0 forward_v I I I I #
face $-1 $52 $53 $19 $-1 $54 reversed single #
loop $-1 $-1 $55 $25 #
plane-surface $-1 -57.749623793632104 0 -7.9166955525320173 0 0 1 1 0 0 forward_v I I I I #
face $-1 $56 $57 $20 $-1 $58 reversed single #
loop $-1 $-1 $59 $26 #
plane-surface $-1 57.749623793632111 0 -7.9166955525320173 0 0 1 1 0 0 forward_v I I I I #
face $-1 $60 $61 $21 $-1 $62 reversed single #
loop $-1 $-1 $63 $27 #
plane-surface $-1 -42.288811503124947 -142.40899115097355 69.578185444626357 1 0 0 0 0.84804810408105047 -0.52991925155115449 forward_v I I I I #
face $-1 $64 $65 $22 $-1 $66 forward single #
loop $-1 $67 $68 $28 #
cone-surface $-1 -35.822066159557728 -31.423815295543367 6.1897288917069719 0 0.84804810408105047 -0.52991925155115449 2.5 0 0 1 I I 0 1 2.5 forward I I I I #
face $-1 $69 $70 $23 $-1 $71 forward single #
loop $-1 $72 $73 $29 #
cone-surface $-1 -26.121948144206897 -31.423815295543367 6.1897288917069719 0 0.84804810408105047 -0.52991925155115449 2.5 0 0 1 I I 0 1 2.5 forward I I I I #
face $-1 $74 $75 $18 $-1 $76 reversed single #
loop $-1 $-1 $77 $30 #
plane-surface $-1 0 0 -12.420107400642374 0 0 1 1 0 0 forward_v I I I I #
coedge $-1 $78 $79 $80 $81 forward $31 $-1 #
face $-1 $82 $83 $19 $-1 $84 reversed single #
loop $-1 $-1 $85 $33 #
plane-surface $-1 -53.475870409005594 0 -10.168401476587196 -1 0 0 0 0 1 forward_v I I I I #
coedge $-1 $86 $87 $88 $89 forward $34 $-1 #
face $-1 $90 $91 $20 $-1 $92 reversed single #
loop $-1 $-1 $93 $36 #
plane-surface $-1 53.475870409005601 0 -10.168401476587196 1 0 0 0 0 -1 forward_v I I I I #
coedge $-1 $94 $95 $96 $97 reversed $37 $-1 #
face $-1 $98 $99 $21 $-1 $100 reversed single #
loop $-1 $-1 $101 $39 #
plane-surface $-1 -30.972007151882309 -37.211376301521341 3.8434222186708382 0 -0.84804810408105047 0.52991925155115449 1 0 0 forward_v I I I I #
coedge $-1 $102 $103 $104 $105 reversed $40 $-1 #
face $-1 $-1 $106 $22 $-1 $107 forward single #
loop $-1 $108 $109 $42 #
cone-surface $-1 -35.822066159557728 -27.255847925888759 3.585293909318386 0 0.84804810408105047 -0.52991925155115449 1.25 0 0 1 I I -0.70710678118654746 0.70710678118654746 1.25 forward I I I I #
loop $-1 $-1 $110 $28 #
coedge $-1 $68 $68 $111 $112 reversed $43 $-1 #
face $-1 $-1 $113 $23 $-1 $114 forward single #
loop $-1 $115 $116 $45 #
cone-surface $-1 -26.121948144206897 -27.255847925888759 3.585293909318386 0 0.84804810408105047 -0.52991925155115449 1.25 0 0 1 I I -0.70710678118654746 0.70710678118654746 1.25 forward I I I I #
loop $-1 $-1 $117 $29 #
coedge $-1 $73 $73 $118 $119 reversed $46 $-1 #
face $-1 $120 $121 $18 $-1 $122 reversed single #
loop $-1 $-1 $123 $48 #
plane-surface $-1 0 -37.211376301521362 0 0 1 0 0 0 1 forward_v I I I I #
coedge $-1 $124 $125 $126 $127 forward $49 $-1 #
coedge $-1 $128 $51 $129 $130 forward $31 $-1 #
coedge $-1 $51 $128 $131 $132 forward $31 $-1 #
coedge $-1 $133 $134 $51 $81 reversed $135 $-1 #
edge $-1 $136 -37.211376301521362 $137 37.211376301521362 $80 $138 forward 7 unknown #
face $-1 $139 $140 $19 $-1 $141 reversed single #
loop $-1 $-1 $142 $52 #
plane-surface $-1 0 0 -12.420107400642374 0 0 1 1 0 0 forward_v I I I I #
coedge $-1 $143 $88 $144 $145 reversed $53 $-1 #
coedge $-1 $146 $55 $147 $148 reversed $34 $-1 #
coedge $-1 $55 $146 $149 $150 reversed $34 $-1 #
coedge $-1 $85 $151 $55 $89 reversed $53 $-1 #
edge $-1 $152 -37.211376301521362 $153 37.211376301521362 $88 $154 forward 7 unknown #
face $-1 $155 $156 $20 $-1 $157 reversed single #
loop $-1 $-1 $158 $56 #
plane-surface $-1 0 -37.211376301521362 0 0 1 0 0 0 1 forward_v I I I I #
coedge $-1 $159 $160 $161 $162 reversed $57 $-1 #
coedge $-1 $163 $59 $164 $165 reversed $37 $-1 #
coedge $-1 $59 $163 $158 $166 reversed $37 $-1 #
coedge $-1 $167 $168 $59 $97 forward $169 $-1 #
edge $-1 $170 -37.211376301521362 $171 37.211376301521362 $96 $172 forward 7 unknown #
face $-1 $173 $174 $21 $-1 $175 forward single #
loop $-1 $-1 $176 $60 #
plane-surface $-1 -19.655202800639671 -142.40899115097355 69.578185444626357 -1 0 0 0 -0.84804810408105047 0.52991925155115449 forward_v I I I I #
coedge $-1 $177 $178 $179 $180 reversed $61 $-1 #
coedge $-1 $103 $63 $181 $182 reversed $40 $-1 #
coedge $-1 $63 $102 $177 $183 reversed $40 $-1 #
coedge $-1 $179 $184 $63 $105 forward $185 $-1 #
edge $-1 $186 22.368985321670806 $187 30.945670503642376 $104 $188 forward 7 unknown #
loop $-1 $-1 $111 $64 #
plane-surface $-1 -30.972007151882309 -37.211376301521341 3.8434222186708382 0 -0.84804810408105047 0.52991925155115449 1 0 0 forward_v I I I I #
loop $-1 $-1 $189 $42 #
coedge $-1 $109 $109 $110 $190 reversed $65 $-1 #
coedge $-1 $110 $110 $109 $190 forward $67 $-1 #
coedge $-1 $111 $111 $68 $112 forward $106 $-1 #
edge $-1 $191 9.0480648262001734e-016 $191 6.2831853071796013 $111 $192 forward 7 unknown #
loop $-1 $-1 $118 $69 #
plane-surface $-1 -30.972007151882309 -37.211376301521341 3.8434222186708382 0 -0.84804810408105047 0.52991925155115449 1 0 0 forward_v I I I I #
loop $-1 $-1 $193 $45 #
coedge $-1 $116 $116 $117 $194 reversed $70 $-1 #
coedge $-1 $117 $117 $116 $194 forward $72 $-1 #
coedge $-1 $118 $118 $73 $119 forward $113 $-1 #
edge $-1 $195 9.0480648262001734e-016 $195 6.2831853071796013 $118 $196 forward 7 unknown #
face $-1 $197 $198 $18 $-1 $199 reversed single #
loop $-1 $-1 $200 $74 #
plane-surface $-1 -62.023377178258613 0 0 1 0 0 0 0 -1 forward_v I I I I #
coedge $-1 $201 $131 $202 $203 forward $75 $-1 #
coedge $-1 $204 $77 $201 $205 forward $49 $-1 #
coedge $-1 $77 $204 $206 $207 forward $49 $-1 #
coedge $-1 $134 $133 $77 $127 reversed $135 $-1 #
edge $-1 $208 -37.211376301521362 $209 37.211376301521362 $126 $210 forward 7 unknown #
coedge $-1 $79 $78 $211 $212 forward $31 $-1 #
coedge $-1 $213 $214 $78 $130 reversed $198 $-1 #
edge $-1 $137 -62.023377178258613 $215 62.023377178258613 $129 $216 forward 7 unknown #
coedge $-1 $123 $217 $79 $132 reversed $75 $-1 #
edge $-1 $218 -62.023377178258613 $136 62.023377178258613 $131 $219 forward 7 unknown #
coedge $-1 $126 $80 $217 $220 forward $135 $-1 #
coedge $-1 $80 $126 $213 $221 reversed $135 $-1 #
loop $-1 $-1 $133 $197 #
vertex $-1 $81 $222 #
vertex $-1 $81 $223 #
straight-curve $-1 62.023377178258613 0 12.420107400642374 0 1 0 I I #
face $-1 $224 $225 $19 $-1 $226 reversed single #
loop $-1 $-1 $144 $82 #
plane-surface $-1 0 -37.211376301521362 0 0 1 0 0 0 1 forward_v I I I I #
coedge $-1 $227 $228 $143 $229 forward $83 $-1 #
coedge $-1 $151 $85 $142 $229 reversed $53 $-1 #
coedge $-1 $149 $230 $85 $145 forward $140 $-1 #
edge $-1 $231 -7.3359066623487763 $152 -2.8324948142384194 $144 $232 forward 7 unknown #
coedge $-1 $87 $86 $233 $234 reversed $34 $-1 #
coedge $-1 $235 $236 $86 $148 forward $237 $-1 #
edge $-1 $238 -33.148565281442558 $153 -24.601058512189542 $147 $239 forward 7 unknown #
coedge $-1 $240 $144 $87 $150 forward $140 $-1 #
edge $-1 $152 24.601058512189542 $241 33.148565281442558 $149 $242 forward 7 unknown #
coedge $-1 $88 $143 $235 $243 reversed $53 $-1 #
vertex $-1 $150 $244 #
vertex $-1 $148 $245 #
straight-curve $-1 -53.475870409005594 0 -7.9166955525320173 0 1 0 I I #
face $-1 $246 $247 $20 $-1 $248 reversed single #
loop $-1 $-1 $249 $90 #
plane-surface $-1 0 0 -12.420107400642374 0 0 1 1 0 0 forward_v I I I I #
coedge $-1 $250 $251 $95 $166 forward $91 $-1 #
coedge $-1 $252 $93 $249 $253 reversed $57 $-1 #
coedge $-1 $93 $252 $163 $254 reversed $57 $-1 #
coedge $-1 $164 $255 $93 $162 forward $247 $-1 #
edge $-1 $256 -7.3359066623487763 $257 -2.8324948142384194 $161 $258 forward 7 unknown #
coedge $-1 $95 $94 $160 $254 forward $37 $-1 #
coedge $-1 $259 $161 $94 $165 forward $247 $-1 #
edge $-1 $257 24.601058512189546 $170 33.148565281442565 $164 $260 forward 7 unknown #
edge $-1 $171 -33.148565281442565 $261 -24.601058512189546 $158 $262 forward 7 unknown #
coedge $-1 $263 $96 $251 $264 forward $169 $-1 #
coedge $-1 $96 $263 $259 $265 reversed $169 $-1 #
loop $-1 $-1 $96 $246 #
vertex $-1 $265 $266 #
vertex $-1 $264 $267 #
straight-curve $-1 62.023377178258613 0 -7.9166955525320173 0 -1 0 I I #
face $-1 $-1 $185 $21 $-1 $268 reversed single #
loop $-1 $-1 $269 $98 #
plane-surface $-1 0 0 12.420107400642374 0 0 1 1 0 0 forward_v I I I I #
coedge $-1 $270 $271 $272 $273 reversed $99 $-1 #
coedge $-1 $274 $101 $103 $183 forward $61 $-1 #
coedge $-1 $101 $274 $270 $275 forward $61 $-1 #
coedge $-1 $272 $104 $101 $180 forward $185 $-1 #
edge $-1 $187 -26.802807927183792 $276 -4.1691992246985166 $179 $277 forward 7 unknown #
coedge $-1 $278 $279 $102 $182 forward $174 $-1 #
edge $-1 $280 -39.352426806814847 $186 -33.993119273965412 $181 $281 forward 7 unknown #
edge $-1 $187 -4.0294802201000261e-014 $280 10.113441844511025 $103 $282 forward 7 unknown #
coedge $-1 $104 $272 $278 $283 reversed $185 $-1 #
loop $-1 $-1 $272 $173 #
vertex $-1 $283 $284 #
vertex $-1 $105 $285 #
straight-curve $-1 -42.288811503124947 -37.211376301521362 34.789092722313178 0 0 -1 I I #
coedge $-1 $189 $189 $-1 $286 reversed $108 $-1 #
edge $-1 $287 0 $287 6.2831853071796004 $109 $288 forward 7 unknown #
vertex $-1 $112 $289 #
ellipse-curve $-1 -35.822066159557728 -34.531722535096641 8.1317648096566 0 -0.84804810408105047 0.52991925155115449 2.5 0 0 1 I I #
coedge $-1 $193 $193 $-1 $290 reversed $115 $-1 #
edge $-1 $291 0 $291 6.2831853071796004 $116 $292 forward 7 unknown #
vertex $-1 $119 $293 #
ellipse-curve $-1 -26.121948144206897 -34.531722535096641 8.1317648096566 0 -0.84804810408105047 0.52991925155115449 2.5 0 0 1 I I #
face $-1 $-1 $135 $18 $-1 $294 reversed single #
loop $-1 $-1 $213 $120 #
plane-surface $-1 0 37.211376301521362 0 0 -1 0 0 0 -1 forward_v I I I I #
coedge $-1 $295 $211 $214 $296 forward $121 $-1 #
coedge $-1 $217 $123 $124 $205 reversed $75 $-1 #
coedge $-1 $211 $295 $123 $203 reversed $121 $-1 #
edge $-1 $218 -12.420107400642374 $297 12.420107400642374 $202 $298 forward 7 unknown #
coedge $-1 $125 $124 $295 $299 forward $49 $-1 #
edge $-1 $209 -62.023377178258613 $297 62.023377178258613 $201 $300 forward 7 unknown #
coedge $-1 $214 $213 $125 $207 reversed $198 $-1 #
edge $-1 $301 -62.023377178258613 $208 62.023377178258613 $206 $302 forward 7 unknown #
vertex $-1 $127 $303 #
vertex $-1 $220 $304 #
straight-curve $-1 62.023377178258613 0 -12.420107400642374 0 -1 0 I I #
coedge $-1 $200 $202 $128 $212 reversed $121 $-1 #
edge $-1 $215 -37.211376301521362 $218 37.211376301521362 $211 $305 forward 7 unknown #
coedge $-1 $206 $129 $134 $221 forward $198 $-1 #
coedge $-1 $129 $206 $200 $296 reversed $198 $-1 #
vertex $-1 $130 $306 #
straight-curve $-1 0 37.211376301521362 12.420107400642374 -1 0 0 I I #
coedge $-1 $131 $201 $133 $220 reversed $75 $-1 #
vertex $-1 $212 $307 #
straight-curve $-1 0 -37.211376301521362 12.420107400642374 1 0 0 I I #
edge $-1 $136 -12.420107400642374 $209 12.420107400642374 $133 $308 forward 7 unknown #
edge $-1 $137 -12.420107400642374 $208 12.420107400642374 $134 $309 forward 7 unknown #
point $-1 62.023377178258613 -37.211376301521362 12.420107400642374 #
point $-1 62.023377178258613 37.211376301521362 12.420107400642374 #
face $-1 $-1 $237 $19 $-1 $310 reversed single #
loop $-1 $-1 $233 $139 #
plane-surface $-1 -62.023377178258613 0 0 1 0 0 0 0 -1 forward_v I I I I #
coedge $-1 $311 $142 $230 $312 forward $83 $-1 #
coedge $-1 $142 $311 $313 $314 forward $83 $-1 #
edge $-1 $315 -37.211376301521362 $231 37.211376301521362 $142 $316 forward 7 unknown #
coedge $-1 $144 $240 $227 $312 reversed $140 $-1 #
vertex $-1 $312 $317 #
straight-curve $-1 -53.475870409005594 -37.211376301521362 -5.0842007382935979 0 0 1 I I #
coedge $-1 $318 $319 $146 $234 forward $225 $-1 #
edge $-1 $241 -37.211376301521362 $238 37.211376301521362 $233 $320 forward 7 unknown #
coedge $-1 $313 $147 $151 $243 forward $237 $-1 #
coedge $-1 $147 $313 $318 $321 reversed $237 $-1 #
loop $-1 $-1 $235 $224 #
vertex $-1 $321 $322 #
straight-curve $-1 -28.874811896816052 37.211376301521362 -7.9166955525320173 1 0 0 I I #
coedge $-1 $230 $149 $319 $323 forward $140 $-1 #
vertex $-1 $323 $324 #
straight-curve $-1 -28.874811896816052 -37.211376301521362 -7.9166955525320173 -1 0 0 I I #
edge $-1 $153 2.8324948142384194 $315 7.3359066623487763 $235 $325 forward 7 unknown #
point $-1 -53.475870409005594 -37.211376301521362 -7.9166955525320173 #
point $-1 -53.475870409005594 37.211376301521362 -7.9166955525320173 #
face $-1 $-1 $169 $20 $-1 $326 reversed single #
loop $-1 $-1 $164 $155 #
plane-surface $-1 0 37.211376301521362 0 0 -1 0 0 0 -1 forward_v I I I I #
coedge $-1 $327 $328 $159 $253 forward $156 $-1 #
coedge $-1 $329 $158 $252 $330 forward $91 $-1 #
coedge $-1 $158 $329 $167 $264 reversed $91 $-1 #
coedge $-1 $160 $159 $250 $330 reversed $57 $-1 #
edge $-1 $331 -37.211376301521362 $256 37.211376301521362 $249 $332 forward 7 unknown #
edge $-1 $257 -37.211376301521362 $261 37.211376301521362 $160 $333 forward 7 unknown #
coedge $-1 $161 $259 $327 $334 reversed $247 $-1 #
vertex $-1 $334 $335 #
vertex $-1 $165 $336 #
straight-curve $-1 53.475870409005601 37.211376301521362 -5.0842007382935979 0 0 1 I I #
coedge $-1 $255 $164 $168 $265 forward $247 $-1 #
straight-curve $-1 28.874811896816055 37.211376301521362 -7.9166955525320173 1 0 0 I I #
vertex $-1 $166 $337 #
straight-curve $-1 28.874811896816055 -37.211376301521362 -7.9166955525320173 -1 0 0 I I #
coedge $-1 $168 $167 $338 $339 reversed $169 $-1 #
edge $-1 $171 7.9166955525320173 $340 12.420107400642374 $167 $341 forward 7 unknown #
edge $-1 $170 7.9166955525320173 $342 12.420107400642374 $168 $343 forward 7 unknown #
point $-1 62.02337717825862 37.211376301521362 -7.9166955525320173 #
point $-1 62.02337717825862 -37.211376301521362 -7.9166955525320173 #
plane-surface $-1 0 -37.211376301521362 0 0 1 0 0 0 1 forward_v I I I I #
coedge $-1 $279 $278 $271 $344 forward $174 $-1 #
coedge $-1 $271 $176 $178 $275 reversed $99 $-1 #
coedge $-1 $176 $270 $269 $344 reversed $99 $-1 #
coedge $-1 $184 $179 $176 $273 forward $185 $-1 #
edge $-1 $276 -30.945670503642376 $345 -22.368985321670806 $272 $346 forward 7 unknown #
coedge $-1 $178 $177 $279 $347 reversed $61 $-1 #
edge $-1 $348 -10.113441844511025 $276 4.0294802201000261e-014 $270 $349 forward 7 unknown #
vertex $-1 $180 $350 #
straight-curve $-1 -15.486003575941155 -37.211376301521362 3.8434222186708142 1 0 0 I I #
coedge $-1 $269 $181 $184 $283 forward $174 $-1 #
coedge $-1 $181 $269 $274 $347 forward $174 $-1 #
vertex $-1 $182 $351 #
straight-curve $-1 -42.288811503124947 -71.204495575486774 12.420107400642372 0 -1 0 I I #
straight-curve $-1 -42.288811503124947 -37.211376301521341 3.8434222186708382 0 0.52991925155115449 0.84804810408105047 I I #
edge $-1 $186 -42.288811503124947 $345 -19.655202800639671 $184 $352 forward 7 unknown #
point $-1 -42.288811503124947 -37.211376301521362 12.420107400642374 #
point $-1 -42.288811503124947 -37.211376301521362 3.843422218670804 #
edge $-1 $353 1 $353 0 $189 $-1 forward 7 unknown #
vertex $-1 $190 $354 #
ellipse-curve $-1 -35.822066159557728 -28.315908055990072 4.2476929737573288 0 -0.84804810408105047 0.52991925155115449 2.5 0 0 1 I I #
point $-1 -33.322066159557728 -34.531722535096662 8.131764809656616 #
edge $-1 $355 1 $355 0 $193 $-1 forward 7 unknown #
vertex $-1 $194 $356 #
ellipse-curve $-1 -26.121948144206897 -28.315908055990072 4.2476929737573288 0 -0.84804810408105047 0.52991925155115449 2.5 0 0 1 I I #
point $-1 -23.621948144206897 -34.531722535096662 8.131764809656616 #
plane-surface $-1 62.023377178258613 0 0 -1 0 0 0 0 1 forward_v I I I I #
coedge $-1 $202 $200 $204 $299 reversed $121 $-1 #
edge $-1 $215 -12.420107400642374 $301 12.420107400642374 $214 $357 forward 7 unknown #
vertex $-1 $299 $358 #
straight-curve $-1 -62.023377178258613 -37.211376301521362 0 0 0 -1 I I #
edge $-1 $297 -37.211376301521362 $301 37.211376301521362 $295 $359 forward 7 unknown #
straight-curve $-1 0 -37.211376301521362 -12.420107400642374 -1 0 0 I I #
vertex $-1 $207 $360 #
straight-curve $-1 0 37.211376301521362 -12.420107400642374 1 0 0 I I #
point $-1 62.023377178258613 37.211376301521362 -12.420107400642374 #
point $-1 62.023377178258613 -37.211376301521362 -12.420107400642374 #
straight-curve $-1 -62.023377178258613 0 12.420107400642374 0 -1 0 I I #
point $-1 -62.023377178258613 37.211376301521362 12.420107400642374 #
point $-1 -62.023377178258613 -37.211376301521362 12.420107400642374 #
straight-curve $-1 62.023377178258613 -37.211376301521362 0 0 0 -1 I I #
straight-curve $-1 62.023377178258613 37.211376301521362 0 0 0 -1 I I #
plane-surface $-1 0 37.211376301521362 0 0 -1 0 0 0 -1 forward_v I I I I #
coedge $-1 $228 $227 $361 $362 forward $83 $-1 #
edge $-1 $231 53.475870409005594 $363 62.023377178258613 $230 $364 forward 7 unknown #
coedge $-1 $236 $235 $228 $314 reversed $237 $-1 #
edge $-1 $365 -62.023377178258613 $315 -53.475870409005594 $313 $366 forward 7 unknown #
vertex $-1 $243 $367 #
straight-curve $-1 -53.475870409005594 0 -12.420107400642374 0 -1 0 I I #
point $-1 -53.475870409005594 -37.211376301521362 -12.420107400642374 #
coedge $-1 $361 $233 $236 $321 forward $225 $-1 #
coedge $-1 $233 $361 $240 $323 reversed $225 $-1 #
straight-curve $-1 -62.023377178258613 0 -7.9166955525320173 0 1 0 I I #
edge $-1 $238 7.9166955525320173 $365 12.420107400642374 $236 $368 forward 7 unknown #
point $-1 -62.023377178258613 37.211376301521362 -7.9166955525320173 #
edge $-1 $241 7.9166955525320173 $363 12.420107400642374 $319 $369 forward 7 unknown #
point $-1 -62.023377178258613 -37.211376301521362 -7.9166955525320173 #
straight-curve $-1 -53.475870409005594 37.211376301521362 -5.0842007382935979 0 0 -1 I I #
plane-surface $-1 62.023377178258613 0 0 -1 0 0 0 0 1 forward_v I I I I #
coedge $-1 $338 $249 $255 $334 forward $156 $-1 #
coedge $-1 $249 $338 $329 $370 forward $156 $-1 #
coedge $-1 $251 $250 $328 $370 reversed $91 $-1 #
edge $-1 $261 2.8324948142384194 $331 7.3359066623487763 $250 $371 forward 7 unknown #
vertex $-1 $253 $372 #
straight-curve $-1 53.475870409005601 0 -12.420107400642374 0 1 0 I I #
straight-curve $-1 53.475870409005601 0 -7.9166955525320173 0 -1 0 I I #
edge $-1 $256 53.475870409005601 $342 62.023377178258613 $255 $373 forward 7 unknown #
point $-1 53.475870409005601 37.211376301521362 -12.420107400642374 #
point $-1 53.475870409005601 37.211376301521362 -7.9166955525320173 #
point $-1 53.475870409005601 -37.211376301521362 -7.9166955525320173 #
coedge $-1 $328 $327 $263 $339 forward $156 $-1 #
edge $-1 $342 -37.211376301521362 $340 37.211376301521362 $263 $374 forward 7 unknown #
vertex $-1 $264 $375 #
straight-curve $-1 62.023377178258613 -37.211376301521362 0 0 0 -1 I I #
vertex $-1 $339 $376 #
straight-curve $-1 62.023377178258613 37.211376301521362 0 0 0 -1 I I #
edge $-1 $345 33.993119273965412 $348 39.352426806814847 $269 $377 forward 7 unknown #
vertex $-1 $344 $378 #
straight-curve $-1 -19.655202800639671 -37.211376301521362 34.789092722313178 0 0 1 I I #
edge $-1 $348 4.1691992246985166 $280 26.802807927183792 $279 $379 forward 7 unknown #
vertex $-1 $347 $380 #
straight-curve $-1 -19.655202800639671 -37.211376301521341 3.8434222186708382 0 -0.52991925155115449 -0.84804810408105047 I I #
point $-1 -19.655202800639671 -37.211376301521362 3.843422218670804 #
point $-1 -42.288811503124947 -31.852068768671931 12.420107400642374 #
straight-curve $-1 0 -37.211376301521362 12.420107400642374 1 0 0 I I #
vertex $-1 $286 $381 #
point $-1 -33.322066159557728 -28.315908055990072 4.2476929737573288 #
vertex $-1 $290 $382 #
point $-1 -23.621948144206897 -28.315908055990072 4.2476929737573288 #
straight-curve $-1 -62.023377178258613 37.211376301521362 0 0 0 -1 I I #
point $-1 -62.023377178258613 -37.211376301521362 -12.420107400642374 #
straight-curve $-1 -62.023377178258613 0 -12.420107400642374 0 1 0 I I #
point $-1 -62.023377178258613 37.211376301521362 -12.420107400642374 #
coedge $-1 $319 $318 $311 $362 reversed $225 $-1 #
edge $-1 $363 -37.211376301521362 $365 37.211376301521362 $361 $383 forward 7 unknown #
vertex $-1 $362 $384 #
straight-curve $-1 0 -37.211376301521362 -12.420107400642374 -1 0 0 I I #
vertex $-1 $314 $385 #
straight-curve $-1 0 37.211376301521362 -12.420107400642374 1 0 0 I I #
point $-1 -53.475870409005594 37.211376301521362 -12.420107400642374 #
straight-curve $-1 -62.023377178258613 37.211376301521362 0 0 0 -1 I I #
straight-curve $-1 -62.023377178258613 -37.211376301521362 0 0 0 -1 I I #
edge $-1 $340 -62.023377178258613 $331 -53.475870409005601 $329 $386 forward 7 unknown #
straight-curve $-1 53.475870409005601 -37.211376301521362 -5.0842007382935979 0 0 -1 I I #
point $-1 53.475870409005601 -37.211376301521362 -12.420107400642374 #
straight-curve $-1 0 37.211376301521362 -12.420107400642374 1 0 0 I I #
straight-curve $-1 62.023377178258613 0 -12.420107400642374 0 -1 0 I I #
point $-1 62.023377178258613 -37.211376301521362 -12.420107400642374 #
point $-1 62.023377178258613 37.211376301521362 -12.420107400642374 #
straight-curve $-1 -19.655202800639671 -71.204495575486774 12.420107400642372 0 1 0 I I #
point $-1 -19.655202800639671 -37.211376301521362 12.420107400642374 #
straight-curve $-1 -15.486003575941155 -31.852068768671931 12.420107400642374 -1 0 0 I I #
point $-1 -19.655202800639671 -31.852068768671931 12.420107400642374 #
point $-1 -35.822066159557728 -26.195787795787446 2.9228948448794427 #
point $-1 -26.121948144206897 -26.195787795787446 2.9228948448794427 #
straight-curve $-1 -62.023377178258613 0 -12.420107400642374 0 1 0 I I #
point $-1 -62.023377178258613 -37.211376301521362 -12.420107400642374 #
point $-1 -62.023377178258613 37.211376301521362 -12.420107400642374 #
straight-curve $-1 0 -37.211376301521362 -12.420107400642374 -1 0 0 I I #
End-of-ACIS-data 