500 0 3 0           
7 Unknown 11 ACIS 5.0 NT 24 Fri Mar 26 14:28:40 1999 
-1 9.9999999999999995e-007 1e-010 
body $-1 $3 $-1 $4 #
body $-1 $5 $-1 $6 #
body $-1 $7 $-1 $8 #
lump $-1 $-1 $9 $0 #
transform $-1 1 0 0 0 1 0 0 0 1 48.297372356334115 25.613511418430885 5.3677609045449097 1 rotate no_reflect no_shear #
lump $-1 $-1 $10 $1 #
transform $-1 1 0 0 0 1 0 0 0 1 48.297372356334115 25.613511418430885 5.3677609045449097 1 rotate no_reflect no_shear #
lump $-1 $-1 $11 $2 #
transform $-1 1 0 0 0 1 0 0 0 1 48.297372356334115 25.613511418430885 5.3677609045449097 1 rotate no_reflect no_shear #
shell $-1 $-1 $-1 $12 $-1 $3 #
shell $-1 $-1 $-1 $13 $-1 $5 #
shell $-1 $-1 $-1 $14 $-1 $7 #
face $-1 $15 $16 $9 $-1 $17 forward single #
face $-1 $18 $19 $10 $-1 $20 forward single #
face $-1 $21 $22 $11 $-1 $23 reversed single #
face $-1 $24 $25 $9 $-1 $26 reversed single #
loop $-1 $-1 $27 $12 #
plane-surface $-1 0 0 5.3677609045449097 0 0 1 1 0 0 forward_v I I I I #
face $-1 $28 $29 $10 $-1 $30 forward single #
loop $-1 $-1 $31 $13 #
plane-surface $-1 -40.561850547244298 -22.972768649772853 0 1 0 0 0 0 -1 forward_v I I I I #
face $-1 $32 $33 $11 $-1 $34 forward single #
loop $-1 $-1 $35 $14 #
plane-surface $-1 0 22.145445115380287 3.1741371779278067 0 0 1 1 0 0 forward_v I I I I #
face $-1 $36 $37 $9 $-1 $38 reversed single #
loop $-1 $-1 $39 $15 #
plane-surface $-1 0 0 -5.3677609045449097 0 0 1 1 0 0 forward_v I I I I #
coedge $-1 $40 $41 $42 $43 forward $16 $-1 #
face $-1 $44 $45 $10 $-1 $46 forward single #
loop $-1 $-1 $47 $18 #
plane-surface $-1 -39.061850547244298 -20.33202588111482 0 0 -1 0 0 0 -1 forward_v I I I I #
coedge $-1 $48 $49 $50 $51 reversed $19 $-1 #
face $-1 $52 $53 $11 $-1 $54 forward single #
loop $-1 $-1 $55 $21 #
plane-surface $-1 0 22.145445115380287 0.1741371779278067 0 0 1 1 0 0 forward_v I I I I #
coedge $-1 $56 $57 $58 $59 reversed $22 $-1 #
face $-1 $60 $61 $9 $-1 $62 reversed single #
loop $-1 $-1 $63 $24 #
plane-surface $-1 0 -25.613511418430885 0 0 1 0 0 0 1 forward_v I I I I #
coedge $-1 $64 $65 $66 $67 forward $25 $-1 #
coedge $-1 $68 $27 $69 $70 forward $16 $-1 #
coedge $-1 $27 $68 $71 $72 forward $16 $-1 #
coedge $-1 $73 $74 $27 $43 reversed $75 $-1 #
edge $-1 $76 -25.613511418430885 $77 25.613511418430885 $42 $78 forward 7 unknown #
face $-1 $79 $80 $10 $-1 $81 forward single #
loop $-1 $-1 $82 $28 #
plane-surface $-1 -37.561850547244298 -22.972768649772853 0 -1 0 0 0 0 1 forward_v I I I I #
coedge $-1 $83 $84 $85 $86 reversed $29 $-1 #
coedge $-1 $87 $31 $88 $89 reversed $19 $-1 #
coedge $-1 $31 $87 $90 $91 reversed $19 $-1 #
coedge $-1 $84 $83 $31 $51 forward $29 $-1 #
edge $-1 $92 -5.3677609045449097 $93 5.3677609045449097 $50 $94 forward 7 unknown #
face $-1 $95 $96 $11 $-1 $97 reversed single #
loop $-1 $-1 $98 $32 #
plane-surface $-1 0 18.677378812329689 1.6741371779278067 0 1 0 0 0 1 forward_v I I I I #
coedge $-1 $99 $100 $101 $102 reversed $33 $-1 #
coedge $-1 $103 $35 $104 $105 reversed $22 $-1 #
coedge $-1 $35 $103 $106 $107 reversed $22 $-1 #
coedge $-1 $108 $109 $35 $59 forward $110 $-1 #
edge $-1 $111 7.6046562546395453 $112 14.540788860740742 $58 $113 forward 7 unknown #
face $-1 $114 $115 $9 $-1 $116 reversed single #
loop $-1 $-1 $117 $36 #
plane-surface $-1 -48.297372356334115 0 0 1 0 0 0 0 -1 forward_v I I I I #
coedge $-1 $118 $71 $119 $120 forward $37 $-1 #
coedge $-1 $121 $39 $118 $122 forward $25 $-1 #
coedge $-1 $39 $121 $123 $124 forward $25 $-1 #
coedge $-1 $74 $73 $39 $67 reversed $75 $-1 #
edge $-1 $125 -25.613511418430885 $126 25.613511418430885 $66 $127 forward 7 unknown #
coedge $-1 $41 $40 $128 $129 forward $16 $-1 #
coedge $-1 $130 $131 $40 $70 reversed $115 $-1 #
edge $-1 $77 -48.297372356334115 $132 48.297372356334115 $69 $133 forward 7 unknown #
coedge $-1 $63 $134 $41 $72 reversed $37 $-1 #
edge $-1 $135 -48.297372356334115 $76 48.297372356334115 $71 $136 forward 7 unknown #
coedge $-1 $66 $42 $134 $137 forward $75 $-1 #
coedge $-1 $42 $66 $130 $138 reversed $75 $-1 #
loop $-1 $-1 $73 $114 #
vertex $-1 $43 $139 #
vertex $-1 $43 $140 #
straight-curve $-1 48.297372356334115 0 5.3677609045449097 0 1 0 I I #
face $-1 $141 $142 $10 $-1 $143 reversed single #
loop $-1 $-1 $88 $44 #
plane-surface $-1 0 0 5.3677609045449097 0 0 1 1 0 0 forward_v I I I I #
coedge $-1 $144 $145 $146 $147 reversed $45 $-1 #
coedge $-1 $50 $47 $148 $149 reversed $29 $-1 #
coedge $-1 $47 $50 $150 $151 reversed $29 $-1 #
coedge $-1 $145 $144 $47 $86 forward $45 $-1 #
edge $-1 $152 -5.3677609045449097 $153 5.3677609045449097 $85 $154 forward 7 unknown #
coedge $-1 $49 $48 $155 $156 reversed $19 $-1 #
coedge $-1 $148 $157 $48 $89 forward $80 $-1 #
edge $-1 $158 -14.127127093544459 $92 -8.8456415562283937 $88 $159 forward 7 unknown #
coedge $-1 $160 $150 $49 $91 forward $161 $-1 #
edge $-1 $93 8.8456415562283937 $162 14.127127093544459 $90 $163 forward 7 unknown #
vertex $-1 $89 $164 #
vertex $-1 $91 $165 #
straight-curve $-1 -40.561850547244298 -20.33202588111482 0 0 0 -1 I I #
face $-1 $166 $167 $11 $-1 $97 reversed single #
loop $-1 $-1 $168 $52 #
plane-surface $-1 0 25.613511418430885 0 0 -1 0 0 0 -1 forward_v I I I I #
coedge $-1 $104 $169 $170 $171 reversed $53 $-1 #
coedge $-1 $172 $55 $168 $173 reversed $33 $-1 #
coedge $-1 $55 $172 $169 $174 reversed $33 $-1 #
coedge $-1 $109 $175 $55 $102 forward $110 $-1 #
edge $-1 $176 -14.540788860740742 $177 -7.6046562546395453 $101 $178 forward 7 unknown #
coedge $-1 $57 $56 $179 $180 reversed $22 $-1 #
coedge $-1 $181 $98 $56 $105 forward $53 $-1 #
edge $-1 $182 -48.297372356334115 $111 48.297372356334115 $104 $183 forward 7 unknown #
coedge $-1 $184 $185 $57 $107 forward $167 $-1 #
edge $-1 $112 -48.297372356334115 $186 48.297372356334115 $106 $187 forward 7 unknown #
coedge $-1 $188 $58 $185 $189 reversed $110 $-1 #
coedge $-1 $58 $101 $181 $190 forward $110 $-1 #
loop $-1 $-1 $58 $191 #
vertex $-1 $59 $192 #
vertex $-1 $107 $193 #
straight-curve $-1 48.297372356334115 11.072722557690144 3.1741371779278067 0 1 0 I I #
face $-1 $-1 $75 $9 $-1 $194 reversed single #
loop $-1 $-1 $130 $60 #
plane-surface $-1 0 25.613511418430885 0 0 -1 0 0 0 -1 forward_v I I I I #
coedge $-1 $195 $128 $131 $196 forward $61 $-1 #
coedge $-1 $134 $63 $64 $122 reversed $37 $-1 #
coedge $-1 $128 $195 $63 $120 reversed $61 $-1 #
edge $-1 $135 -5.3677609045449097 $197 5.3677609045449097 $119 $198 forward 7 unknown #
coedge $-1 $65 $64 $195 $199 forward $25 $-1 #
edge $-1 $126 -48.297372356334115 $197 48.297372356334115 $118 $200 forward 7 unknown #
coedge $-1 $131 $130 $65 $124 reversed $115 $-1 #
edge $-1 $201 -48.297372356334115 $125 48.297372356334115 $123 $202 forward 7 unknown #
vertex $-1 $67 $203 #
vertex $-1 $137 $204 #
straight-curve $-1 48.297372356334115 0 -5.3677609045449097 0 -1 0 I I #
coedge $-1 $117 $119 $68 $129 reversed $61 $-1 #
edge $-1 $132 -25.613511418430885 $135 25.613511418430885 $128 $205 forward 7 unknown #
coedge $-1 $123 $69 $74 $138 forward $115 $-1 #
coedge $-1 $69 $123 $117 $196 reversed $115 $-1 #
vertex $-1 $70 $206 #
straight-curve $-1 0 25.613511418430885 5.3677609045449097 -1 0 0 I I #
coedge $-1 $71 $118 $73 $137 reversed $37 $-1 #
vertex $-1 $129 $207 #
straight-curve $-1 0 -25.613511418430885 5.3677609045449097 1 0 0 I I #
edge $-1 $76 -5.3677609045449097 $126 5.3677609045449097 $73 $208 forward 7 unknown #
edge $-1 $77 -5.3677609045449097 $125 5.3677609045449097 $74 $209 forward 7 unknown #
point $-1 48.297372356334115 -25.613511418430885 5.3677609045449097 #
point $-1 48.297372356334115 25.613511418430885 5.3677609045449097 #
face $-1 $210 $161 $10 $-1 $211 reversed single #
loop $-1 $-1 $146 $79 #
plane-surface $-1 0 -25.613511418430885 0 0 1 0 0 0 1 forward_v I I I I #
coedge $-1 $85 $82 $212 $213 reversed $45 $-1 #
coedge $-1 $82 $85 $214 $215 reversed $45 $-1 #
coedge $-1 $216 $217 $82 $147 forward $142 $-1 #
edge $-1 $218 -5.3677609045449097 $219 5.3677609045449097 $146 $220 forward 7 unknown #
coedge $-1 $212 $88 $83 $149 forward $80 $-1 #
edge $-1 $92 -21.030925273622149 $152 -18.030925273622149 $148 $221 forward 7 unknown #
coedge $-1 $90 $214 $84 $151 forward $161 $-1 #
edge $-1 $153 18.030925273622149 $93 21.030925273622149 $150 $222 forward 7 unknown #
vertex $-1 $149 $223 #
vertex $-1 $151 $224 #
straight-curve $-1 -37.561850547244298 -20.33202588111482 0 0 0 -1 I I #
coedge $-1 $225 $226 $87 $156 forward $227 $-1 #
edge $-1 $162 -5.3677609045449097 $158 5.3677609045449097 $155 $228 forward 7 unknown #
coedge $-1 $88 $229 $225 $230 forward $80 $-1 #
vertex $-1 $156 $231 #
straight-curve $-1 -40.561850547244298 -11.486384324886426 5.3677609045449097 0 1 0 I I #
coedge $-1 $232 $90 $226 $233 forward $161 $-1 #
loop $-1 $-1 $90 $141 #
vertex $-1 $233 $234 #
straight-curve $-1 -40.561850547244298 -11.486384324886426 -5.3677609045449097 0 -1 0 I I #
point $-1 -40.561850547244298 -20.33202588111482 5.3677609045449097 #
point $-1 -40.561850547244298 -20.33202588111482 -5.3677609045449097 #
face $-1 $235 $236 $11 $-1 $237 reversed single #
loop $-1 $-1 $106 $95 #
coedge $-1 $238 $239 $99 $173 forward $96 $-1 #
coedge $-1 $98 $181 $100 $174 forward $53 $-1 #
coedge $-1 $240 $179 $98 $171 forward $236 $-1 #
edge $-1 $182 -2.3370685889639033 $241 0.66293141103609665 $170 $242 forward 7 unknown #
coedge $-1 $100 $99 $240 $243 reversed $33 $-1 #
edge $-1 $244 -48.297372356334115 $176 48.297372356334115 $168 $245 forward 7 unknown #
edge $-1 $177 -48.297372356334115 $241 48.297372356334115 $169 $246 forward 7 unknown #
coedge $-1 $101 $247 $238 $248 reversed $110 $-1 #
vertex $-1 $248 $249 #
vertex $-1 $102 $250 #
straight-curve $-1 48.297372356334115 11.072722557690144 0.1741371779278067 0 -1 0 I I #
coedge $-1 $170 $251 $103 $180 forward $236 $-1 #
edge $-1 $186 -14.540788860740742 $182 -7.6046562546395453 $179 $252 forward 7 unknown #
coedge $-1 $169 $104 $109 $190 reversed $53 $-1 #
vertex $-1 $180 $253 #
straight-curve $-1 0 18.677378812329689 3.1741371779278067 1 0 0 I I #
coedge $-1 $254 $106 $251 $255 reversed $167 $-1 #
coedge $-1 $106 $254 $108 $189 forward $167 $-1 #
vertex $-1 $180 $256 #
straight-curve $-1 0 25.613511418430885 3.1741371779278067 -1 0 0 I I #
coedge $-1 $257 $108 $258 $259 reversed $110 $-1 #
edge $-1 $260 -5.3677609045449097 $112 -3.1741371779278067 $108 $261 forward 7 unknown #
edge $-1 $177 -0.66293141103609665 $111 2.3370685889639033 $109 $262 forward 7 unknown #
face $-1 $-1 $110 $11 $-1 $263 reversed single #
point $-1 48.297372356334115 18.677378812329689 3.1741371779278067 #
point $-1 48.297372356334115 25.613511418430885 3.1741371779278067 #
plane-surface $-1 48.297372356334115 0 0 -1 0 0 0 0 1 forward_v I I I I #
coedge $-1 $119 $117 $121 $199 reversed $61 $-1 #
edge $-1 $132 -5.3677609045449097 $201 5.3677609045449097 $131 $264 forward 7 unknown #
vertex $-1 $199 $265 #
straight-curve $-1 -48.297372356334115 -25.613511418430885 0 0 0 -1 I I #
edge $-1 $197 -25.613511418430885 $201 25.613511418430885 $195 $266 forward 7 unknown #
straight-curve $-1 0 -25.613511418430885 -5.3677609045449097 -1 0 0 I I #
vertex $-1 $124 $267 #
straight-curve $-1 0 25.613511418430885 -5.3677609045449097 1 0 0 I I #
point $-1 48.297372356334115 25.613511418430885 -5.3677609045449097 #
point $-1 48.297372356334115 -25.613511418430885 -5.3677609045449097 #
straight-curve $-1 -48.297372356334115 0 5.3677609045449097 0 -1 0 I I #
point $-1 -48.297372356334115 25.613511418430885 5.3677609045449097 #
point $-1 -48.297372356334115 -25.613511418430885 5.3677609045449097 #
straight-curve $-1 48.297372356334115 -25.613511418430885 0 0 0 -1 I I #
straight-curve $-1 48.297372356334115 25.613511418430885 0 0 0 -1 I I #
face $-1 $268 $227 $10 $-1 $143 reversed single #
plane-surface $-1 0 0 -5.3677609045449097 0 0 1 1 0 0 forward_v I I I I #
coedge $-1 $269 $148 $144 $213 forward $80 $-1 #
edge $-1 $152 8.8456415562283937 $218 14.127127093544459 $212 $270 forward 7 unknown #
coedge $-1 $150 $271 $145 $215 forward $161 $-1 #
edge $-1 $219 -14.127127093544459 $153 -8.8456415562283937 $214 $272 forward 7 unknown #
coedge $-1 $273 $146 $271 $274 reversed $142 $-1 #
coedge $-1 $146 $273 $269 $275 reversed $142 $-1 #
vertex $-1 $275 $276 #
vertex $-1 $147 $277 #
straight-curve $-1 -37.561850547244298 -25.613511418430885 0 0 0 -1 I I #
straight-curve $-1 -19.530925273622149 -20.33202588111482 5.3677609045449097 1 0 0 I I #
straight-curve $-1 -19.530925273622149 -20.33202588111482 -5.3677609045449097 -1 0 0 I I #
point $-1 -37.561850547244298 -20.33202588111482 5.3677609045449097 #
point $-1 -37.561850547244298 -20.33202588111482 -5.3677609045449097 #
coedge $-1 $278 $155 $157 $230 reversed $227 $-1 #
coedge $-1 $155 $278 $160 $233 reversed $227 $-1 #
loop $-1 $-1 $155 $210 #
straight-curve $-1 -40.561850547244298 -25.613511418430885 0 0 0 1 I I #
coedge $-1 $157 $279 $280 $281 forward $80 $-1 #
edge $-1 $282 -48.297372356334115 $158 -40.561850547244298 $225 $283 forward 7 unknown #
point $-1 -40.561850547244298 -25.613511418430885 5.3677609045449097 #
coedge $-1 $284 $160 $285 $286 forward $161 $-1 #
edge $-1 $162 40.561850547244298 $287 48.297372356334115 $226 $288 forward 7 unknown #
point $-1 -40.561850547244298 -25.613511418430885 -5.3677609045449097 #
face $-1 $289 $290 $11 $-1 $291 forward single #
loop $-1 $-1 $179 $166 #
plane-surface $-1 -48.297372356334115 0 0 1 0 0 0 0 -1 forward_v I I I I #
coedge $-1 $292 $168 $175 $248 forward $96 $-1 #
coedge $-1 $168 $292 $293 $294 reversed $96 $-1 #
coedge $-1 $293 $170 $172 $243 forward $236 $-1 #
vertex $-1 $243 $295 #
straight-curve $-1 -48.297372356334115 18.677378812329689 0.83706858896390335 0 0 -1 I I #
edge $-1 $241 7.6046562546395453 $244 14.540788860740742 $240 $296 forward 7 unknown #
vertex $-1 $294 $297 #
straight-curve $-1 0 25.613511418430885 0.1741371779278067 1 0 0 I I #
straight-curve $-1 0 18.677378812329689 0.1741371779278067 -1 0 0 I I #
coedge $-1 $175 $257 $298 $299 reversed $110 $-1 #
edge $-1 $176 -0.1741371779278067 $300 5.3677609045449097 $175 $261 forward 7 unknown #
point $-1 48.297372356334115 25.613511418430885 0.1741371779278067 #
point $-1 48.297372356334115 18.677378812329689 0.1741371779278067 #
coedge $-1 $179 $301 $184 $255 forward $236 $-1 #
straight-curve $-1 -48.297372356334115 11.072722557690144 3.1741371779278067 0 -1 0 I I #
point $-1 -48.297372356334115 18.677378812329689 3.1741371779278067 #
coedge $-1 $185 $184 $302 $303 reversed $167 $-1 #
edge $-1 $304 -5.3677609045449097 $186 -3.1741371779278067 $184 $305 forward 7 unknown #
point $-1 -48.297372356334115 25.613511418430885 3.1741371779278067 #
coedge $-1 $247 $188 $306 $307 forward $110 $-1 #
coedge $-1 $302 $308 $188 $259 forward $309 $-1 #
edge $-1 $310 -25.613511418430885 $260 25.613511418430885 $188 $311 forward 7 unknown #
vertex $-1 $259 $312 #
straight-curve $-1 48.297372356334115 25.613511418430885 0 0 0 -1 I I #
straight-curve $-1 48.297372356334115 18.677378812329689 0.83706858896390335 0 0 1 I I #
plane-surface $-1 48.297372356334115 0 0 -1 0 0 0 0 1 forward_v I I I I #
straight-curve $-1 -48.297372356334115 25.613511418430885 0 0 0 -1 I I #
point $-1 -48.297372356334115 -25.613511418430885 -5.3677609045449097 #
straight-curve $-1 -48.297372356334115 0 -5.3677609045449097 0 1 0 I I #
point $-1 -48.297372356334115 25.613511418430885 -5.3677609045449097 #
face $-1 $313 $314 $10 $-1 $315 reversed single #
coedge $-1 $316 $212 $217 $275 forward $80 $-1 #
straight-curve $-1 -37.561850547244298 -11.486384324886426 5.3677609045449097 0 -1 0 I I #
coedge $-1 $214 $317 $216 $274 forward $161 $-1 #
straight-curve $-1 -37.561850547244298 -11.486384324886426 -5.3677609045449097 0 1 0 I I #
coedge $-1 $217 $216 $318 $319 reversed $142 $-1 #
edge $-1 $320 -48.297372356334115 $219 37.561850547244298 $216 $288 forward 7 unknown #
edge $-1 $218 -37.561850547244298 $321 48.297372356334115 $217 $283 forward 7 unknown #
point $-1 -37.561850547244298 -25.613511418430885 5.3677609045449097 #
point $-1 -37.561850547244298 -25.613511418430885 -5.3677609045449097 #
coedge $-1 $226 $225 $322 $323 forward $227 $-1 #
coedge $-1 $229 $316 $324 $325 forward $80 $-1 #
coedge $-1 $326 $322 $229 $281 reversed $314 $-1 #
edge $-1 $327 -25.613511418430885 $282 25.613511418430885 $280 $328 forward 7 unknown #
vertex $-1 $281 $329 #
straight-curve $-1 0 -25.613511418430885 5.3677609045449097 1 0 0 I I #
coedge $-1 $317 $232 $330 $331 forward $161 $-1 #
coedge $-1 $322 $326 $232 $286 reversed $314 $-1 #
edge $-1 $287 -25.613511418430885 $332 25.613511418430885 $285 $333 forward 7 unknown #
vertex $-1 $286 $334 #
straight-curve $-1 0 -25.613511418430885 -5.3677609045449097 -1 0 0 I I #
face $-1 $335 $336 $11 $-1 $337 forward single #
loop $-1 $-1 $338 $235 #
plane-surface $-1 -40.561850547244298 -22.972768649772853 0 1 0 0 0 0 -1 forward_v I I I I #
coedge $-1 $239 $238 $339 $340 reversed $96 $-1 #
coedge $-1 $341 $240 $239 $294 forward $236 $-1 #
edge $-1 $244 -0.1741371779278067 $342 5.3677609045449097 $239 $305 forward 7 unknown #
point $-1 -48.297372356334115 18.677378812329689 0.1741371779278067 #
straight-curve $-1 -48.297372356334115 11.072722557690144 0.1741371779278067 0 1 0 I I #
point $-1 -48.297372356334115 25.613511418430885 0.1741371779278067 #
coedge $-1 $343 $339 $247 $299 forward $344 $-1 #
edge $-1 $300 -25.613511418430885 $345 25.613511418430885 $247 $346 forward 7 unknown #
vertex $-1 $299 $347 #
coedge $-1 $251 $348 $349 $350 reversed $236 $-1 #
coedge $-1 $349 $258 $254 $303 forward $309 $-1 #
edge $-1 $260 -48.297372356334115 $304 48.297372356334115 $254 $351 forward 7 unknown #
vertex $-1 $303 $352 #
straight-curve $-1 -48.297372356334115 25.613511418430885 0 0 0 -1 I I #
coedge $-1 $353 $354 $257 $307 reversed $355 $-1 #
edge $-1 $310 -5.3677609045449097 $345 5.3677609045449097 $257 $356 forward 7 unknown #
coedge $-1 $258 $357 $353 $358 forward $309 $-1 #
loop $-1 $-1 $359 $360 #
vertex $-1 $259 $361 #
straight-curve $-1 48.297372356334115 0 5.3677609045449097 0 1 0 I I #
point $-1 48.297372356334115 25.613511418430885 5.3677609045449097 #
face $-1 $362 $363 $10 $-1 $364 reversed single #
loop $-1 $-1 $326 $268 #
plane-surface $-1 -48.297372356334115 0 0 1 0 0 0 0 -1 forward_v I I I I #
coedge $-1 $279 $269 $365 $366 forward $80 $-1 #
coedge $-1 $271 $284 $367 $368 forward $161 $-1 #
coedge $-1 $367 $365 $273 $319 forward $369 $-1 #
edge $-1 $321 -5.3677609045449097 $320 5.3677609045449097 $318 $370 forward 7 unknown #
vertex $-1 $319 $371 #
vertex $-1 $366 $372 #
coedge $-1 $280 $285 $278 $323 reversed $314 $-1 #
edge $-1 $282 -5.3677609045449097 $287 5.3677609045449097 $322 $373 forward 7 unknown #
coedge $-1 $374 $375 $279 $325 reversed $363 $-1 #
edge $-1 $376 -48.297372356334115 $327 48.297372356334115 $324 $377 forward 7 unknown #
coedge $-1 $285 $280 $375 $378 forward $314 $-1 #
vertex $-1 $325 $379 #
straight-curve $-1 -48.297372356334115 0 5.3677609045449097 0 -1 0 I I #
point $-1 -48.297372356334115 -25.613511418430885 5.3677609045449097 #
coedge $-1 $375 $374 $284 $331 reversed $363 $-1 #
edge $-1 $332 -48.297372356334115 $380 48.297372356334115 $330 $381 forward 7 unknown #
vertex $-1 $331 $382 #
straight-curve $-1 -48.297372356334115 0 -5.3677609045449097 0 1 0 I I #
point $-1 -48.297372356334115 -25.613511418430885 -5.3677609045449097 #
face $-1 $360 $383 $11 $-1 $384 forward single #
loop $-1 $-1 $385 $289 #
plane-surface $-1 -39.061850547244298 -20.33202588111482 0 0 -1 0 0 0 -1 forward_v I I I I #
coedge $-1 $386 $387 $388 $389 reversed $290 $-1 #
coedge $-1 $298 $390 $292 $340 forward $344 $-1 #
edge $-1 $342 -48.297372356334115 $300 48.297372356334115 $292 $391 forward 7 unknown #
coedge $-1 $348 $293 $390 $392 reversed $236 $-1 #
vertex $-1 $340 $393 #
coedge $-1 $394 $298 $354 $395 forward $344 $-1 #
loop $-1 $-1 $396 $397 #
vertex $-1 $307 $398 #
straight-curve $-1 48.297372356334115 0 -5.3677609045449097 0 -1 0 I I #
point $-1 48.297372356334115 25.613511418430885 -5.3677609045449097 #
coedge $-1 $301 $341 $399 $400 reversed $236 $-1 #
coedge $-1 $401 $302 $301 $350 forward $309 $-1 #
edge $-1 $304 -25.613511418430885 $402 25.613511418430885 $301 $403 forward 7 unknown #
straight-curve $-1 0 25.613511418430885 5.3677609045449097 -1 0 0 I I #
point $-1 -48.297372356334115 25.613511418430885 5.3677609045449097 #
coedge $-1 $404 $306 $308 $358 reversed $355 $-1 #
coedge $-1 $306 $404 $343 $395 reversed $355 $-1 #
loop $-1 $-1 $404 $405 #
straight-curve $-1 48.297372356334115 -25.613511418430885 0 0 0 -1 I I #
coedge $-1 $308 $406 $407 $408 forward $309 $-1 #
edge $-1 $409 -37.561850547244298 $310 48.297372356334115 $353 $410 forward 7 unknown #
coedge $-1 $406 $401 $386 $411 forward $309 $-1 #
face $-1 $405 $309 $11 $-1 $412 forward single #
point $-1 48.297372356334115 -25.613511418430885 5.3677609045449097 #
face $-1 $-1 $369 $10 $-1 $413 reversed single #
loop $-1 $-1 $374 $313 #
plane-surface $-1 0 25.613511418430885 0 0 -1 0 0 0 -1 forward_v I I I I #
coedge $-1 $318 $414 $316 $366 reversed $369 $-1 #
edge $-1 $321 -25.613511418430885 $376 25.613511418430885 $365 $415 forward 7 unknown #
coedge $-1 $414 $318 $317 $368 reversed $369 $-1 #
edge $-1 $380 -25.613511418430885 $320 25.613511418430885 $367 $416 forward 7 unknown #
loop $-1 $-1 $318 $362 #
straight-curve $-1 48.297372356334115 -25.613511418430885 0 0 0 -1 I I #
point $-1 48.297372356334115 -25.613511418430885 -5.3677609045449097 #
point $-1 48.297372356334115 -25.613511418430885 5.3677609045449097 #
straight-curve $-1 -48.297372356334115 -25.613511418430885 0 0 0 -1 I I #
coedge $-1 $330 $324 $414 $417 forward $363 $-1 #
coedge $-1 $324 $330 $326 $378 reversed $363 $-1 #
vertex $-1 $366 $418 #
straight-curve $-1 0 25.613511418430885 5.3677609045449097 -1 0 0 I I #
edge $-1 $327 -5.3677609045449097 $332 5.3677609045449097 $375 $419 forward 7 unknown #
point $-1 -48.297372356334115 25.613511418430885 5.3677609045449097 #
vertex $-1 $368 $420 #
straight-curve $-1 0 25.613511418430885 -5.3677609045449097 1 0 0 I I #
point $-1 -48.297372356334115 25.613511418430885 -5.3677609045449097 #
loop $-1 $-1 $421 $335 #
plane-surface $-1 -37.561850547244298 -22.972768649772853 0 -1 0 0 0 0 1 forward_v I I I I #
coedge $-1 $422 $423 $424 $425 reversed $336 $-1 #
coedge $-1 $426 $338 $359 $411 reversed $290 $-1 #
coedge $-1 $338 $426 $396 $427 reversed $290 $-1 #
coedge $-1 $423 $422 $338 $389 forward $336 $-1 #
edge $-1 $428 -5.3677609045449097 $429 5.3677609045449097 $388 $430 forward 7 unknown #
coedge $-1 $339 $431 $341 $392 forward $344 $-1 #
straight-curve $-1 0 25.613511418430885 -5.3677609045449097 1 0 0 I I #
edge $-1 $432 -25.613511418430885 $342 25.613511418430885 $341 $433 forward 7 unknown #
point $-1 -48.297372356334115 25.613511418430885 -5.3677609045449097 #
coedge $-1 $434 $343 $435 $436 forward $344 $-1 #
edge $-1 $345 -48.297372356334115 $437 37.561850547244298 $354 $438 forward 7 unknown #
coedge $-1 $431 $434 $387 $427 forward $344 $-1 #
face $-1 $439 $344 $11 $-1 $440 reversed single #
point $-1 48.297372356334115 -25.613511418430885 -5.3677609045449097 #
coedge $-1 $441 $442 $348 $400 forward $443 $-1 #
edge $-1 $402 -5.3677609045449097 $432 5.3677609045449097 $348 $444 forward 7 unknown #
coedge $-1 $359 $349 $442 $445 forward $309 $-1 #
vertex $-1 $350 $446 #
straight-curve $-1 -48.297372356334115 0 5.3677609045449097 0 -1 0 I I #
coedge $-1 $354 $353 $421 $447 forward $355 $-1 #
face $-1 $397 $355 $11 $-1 $448 reversed single #
coedge $-1 $357 $359 $422 $449 forward $309 $-1 #
coedge $-1 $424 $421 $357 $408 reversed $383 $-1 #
edge $-1 $450 8.8456415562283937 $409 14.127127093544459 $357 $451 forward 7 unknown #
vertex $-1 $358 $452 #
straight-curve $-1 0 -25.613511418430885 5.3677609045449097 1 0 0 I I #
edge $-1 $453 -14.127127093544459 $428 -8.8456415562283937 $359 $454 forward 7 unknown #
plane-surface $-1 0 0 5.3677609045449097 0 0 1 1 0 0 forward_v I I I I #
plane-surface $-1 48.297372356334115 0 0 -1 0 0 0 0 1 forward_v I I I I #
coedge $-1 $365 $367 $374 $417 reversed $369 $-1 #
straight-curve $-1 48.297372356334115 0 5.3677609045449097 0 1 0 I I #
straight-curve $-1 48.297372356334115 0 -5.3677609045449097 0 -1 0 I I #
edge $-1 $376 -5.3677609045449097 $380 5.3677609045449097 $414 $455 forward 7 unknown #
point $-1 48.297372356334115 25.613511418430885 5.3677609045449097 #
straight-curve $-1 -48.297372356334115 25.613511418430885 0 0 0 -1 I I #
point $-1 48.297372356334115 25.613511418430885 -5.3677609045449097 #
coedge $-1 $407 $435 $404 $447 reversed $383 $-1 #
coedge $-1 $388 $385 $406 $449 reversed $336 $-1 #
coedge $-1 $385 $388 $434 $456 reversed $336 $-1 #
coedge $-1 $435 $407 $385 $425 forward $383 $-1 #
edge $-1 $450 -5.3677609045449097 $457 5.3677609045449097 $424 $458 forward 7 unknown #
coedge $-1 $387 $386 $459 $460 reversed $290 $-1 #
edge $-1 $429 8.8456415562283937 $461 14.127127093544459 $396 $462 forward 7 unknown #
vertex $-1 $411 $463 #
vertex $-1 $427 $464 #
straight-curve $-1 -40.561850547244298 -20.33202588111482 0 0 0 -1 I I #
coedge $-1 $390 $396 $441 $465 forward $344 $-1 #
vertex $-1 $392 $466 #
straight-curve $-1 -48.297372356334115 0 -5.3677609045449097 0 1 0 I I #
coedge $-1 $396 $394 $423 $456 forward $344 $-1 #
coedge $-1 $421 $424 $394 $436 reversed $383 $-1 #
edge $-1 $437 -14.127127093544459 $457 -8.8456415562283937 $394 $467 forward 7 unknown #
vertex $-1 $447 $468 #
straight-curve $-1 0 -25.613511418430885 -5.3677609045449097 -1 0 0 I I #
face $-1 $191 $443 $11 $-1 $448 reversed single #
plane-surface $-1 0 0 -5.3677609045449097 0 0 1 1 0 0 forward_v I I I I #
coedge $-1 $459 $399 $431 $465 reversed $443 $-1 #
coedge $-1 $399 $459 $401 $445 reversed $443 $-1 #
loop $-1 $-1 $459 $439 #
straight-curve $-1 -48.297372356334115 -25.613511418430885 0 0 0 -1 I I #
edge $-1 $402 -48.297372356334115 $453 -40.561850547244298 $442 $410 forward 7 unknown #
point $-1 -48.297372356334115 -25.613511418430885 5.3677609045449097 #
edge $-1 $409 -5.3677609045449097 $437 5.3677609045449097 $404 $469 forward 7 unknown #
plane-surface $-1 0 -25.613511418430885 0 0 1 0 0 0 1 forward_v I I I I #
edge $-1 $428 -21.030925273622149 $450 -18.030925273622149 $406 $470 forward 7 unknown #
vertex $-1 $449 $471 #
straight-curve $-1 -37.561850547244298 -11.486384324886426 5.3677609045449097 0 -1 0 I I #
point $-1 -37.561850547244298 -25.613511418430885 5.3677609045449097 #
vertex $-1 $460 $472 #
straight-curve $-1 -40.561850547244298 -11.486384324886426 5.3677609045449097 0 1 0 I I #
straight-curve $-1 48.297372356334115 25.613511418430885 0 0 0 -1 I I #
edge $-1 $457 18.030925273622149 $429 21.030925273622149 $434 $473 forward 7 unknown #
vertex $-1 $456 $474 #
straight-curve $-1 -37.561850547244298 -20.33202588111482 0 0 0 -1 I I #
coedge $-1 $442 $441 $426 $460 forward $443 $-1 #
edge $-1 $461 -5.3677609045449097 $453 5.3677609045449097 $459 $475 forward 7 unknown #
vertex $-1 $465 $476 #
straight-curve $-1 -40.561850547244298 -11.486384324886426 -5.3677609045449097 0 -1 0 I I #
point $-1 -40.561850547244298 -20.33202588111482 5.3677609045449097 #
point $-1 -40.561850547244298 -20.33202588111482 -5.3677609045449097 #
edge $-1 $461 40.561850547244298 $432 48.297372356334115 $441 $438 forward 7 unknown #
point $-1 -48.297372356334115 -25.613511418430885 -5.3677609045449097 #
straight-curve $-1 -37.561850547244298 -11.486384324886426 -5.3677609045449097 0 1 0 I I #
point $-1 -37.561850547244298 -25.613511418430885 -5.3677609045449097 #
straight-curve $-1 -37.561850547244298 -25.613511418430885 0 0 0 -1 I I #
straight-curve $-1 -19.530925273622149 -20.33202588111482 5.3677609045449097 1 0 0 I I #
point $-1 -37.561850547244298 -20.33202588111482 5.3677609045449097 #
point $-1 -40.561850547244298 -25.613511418430885 5.3677609045449097 #
straight-curve $-1 -19.530925273622149 -20.33202588111482 -5.3677609045449097 -1 0 0 I I #
point $-1 -37.561850547244298 -20.33202588111482 -5.3677609045449097 #
straight-curve $-1 -40.561850547244298 -25.613511418430885 0 0 0 1 I I #
point $-1 -40.561850547244298 -25.613511418430885 -5.3677609045449097 #
End-of-ACIS-data 