500 0 8 0           
7 Unknown 11 ACIS 5.0 NT 24 Thu Mar 25 22:51:27 1999 
-1 9.9999999999999995e-007 1e-010 
body $-1 $8 $-1 $9 #
body $-1 $10 $-1 $11 #
body $-1 $12 $-1 $13 #
body $-1 $14 $-1 $15 #
body $-1 $16 $-1 $17 #
body $-1 $18 $-1 $19 #
body $-1 $20 $-1 $21 #
body $-1 $22 $-1 $23 #
lump $-1 $-1 $24 $0 #
transform $-1 1 0 0 0 1 0 0 0 1 67.976928006836147 45.286695383099776 14.505508063716096 1 rotate no_reflect no_shear #
lump $-1 $-1 $25 $1 #
transform $-1 1 0 0 0 1 0 0 0 1 67.976928006836147 45.286695383099776 14.505508063716096 1 rotate no_reflect no_shear #
lump $-1 $-1 $26 $2 #
transform $-1 1 0 0 0 1 0 0 0 1 67.976928006836147 45.286695383099776 14.505508063716096 1 rotate no_reflect no_shear #
lump $-1 $-1 $27 $3 #
transform $-1 1 0 0 0 1 0 0 0 1 67.976928006836147 45.286695383099776 14.505508063716096 1 rotate no_reflect no_shear #
lump $-1 $-1 $28 $4 #
transform $-1 1 0 0 0 1 0 0 0 1 67.976928006836147 45.286695383099776 14.505508063716096 1 rotate no_reflect no_shear #
lump $-1 $-1 $29 $5 #
transform $-1 1 0 0 0 1 0 0 0 1 67.976928006836147 45.286695383099776 14.505508063716096 1 rotate no_reflect no_shear #
lump $-1 $-1 $30 $6 #
transform $-1 1 0 0 0 1 0 0 0 1 67.976928006836147 45.286695383099776 14.505508063716096 1 rotate no_reflect no_shear #
lump $-1 $-1 $31 $7 #
transform $-1 1 0 0 0 1 0 0 0 1 67.976928006836147 45.286695383099776 14.505508063716096 1 rotate no_reflect no_shear #
shell $-1 $-1 $-1 $32 $-1 $8 #
shell $-1 $-1 $-1 $33 $-1 $10 #
shell $-1 $-1 $-1 $34 $-1 $12 #
shell $-1 $-1 $-1 $35 $-1 $14 #
shell $-1 $-1 $-1 $36 $-1 $16 #
shell $-1 $-1 $-1 $37 $-1 $18 #
shell $-1 $-1 $-1 $38 $-1 $20 #
shell $-1 $-1 $-1 $39 $-1 $22 #
face $-1 $40 $41 $24 $-1 $42 forward single #
face $-1 $43 $44 $25 $-1 $45 forward single #
face $-1 $46 $47 $26 $-1 $48 reversed single #
face $-1 $49 $50 $27 $-1 $51 forward single #
face $-1 $52 $53 $28 $-1 $54 forward single #
face $-1 $55 $56 $29 $-1 $57 reversed single #
face $-1 $58 $59 $30 $-1 $60 forward single #
face $-1 $61 $62 $31 $-1 $63 forward single #
face $-1 $64 $65 $24 $-1 $66 reversed single #
loop $-1 $-1 $67 $32 #
plane-surface $-1 0 0 14.505508063716096 0 0 1 1 0 0 forward_v I I I I #
face $-1 $68 $69 $25 $-1 $70 reversed single #
loop $-1 $-1 $71 $33 #
plane-surface $-1 0 -45.286695383099776 0 0 1 0 0 0 1 forward_v I I I I #
face $-1 $72 $73 $26 $-1 $74 reversed single #
loop $-1 $-1 $75 $34 #
plane-surface $-1 -176.55450626528778 27.43273253572238 85.508053353603501 0 1 0 -0.79863551827123203 0 0.60181501223851219 forward_v I I I I #
face $-1 $76 $77 $27 $-1 $78 forward single #
loop $-1 $79 $80 $35 #
cone-surface $-1 -63.035835637713717 32.53386477783021 8.4449128856292006 0.79863551827123203 0 -0.60181501223851219 0.60181501223851219 0 0.79863551827123203 1 I I 0 1 1 forward I I I I #
face $-1 $81 $82 $28 $-1 $83 forward single #
loop $-1 $84 $85 $36 #
cone-surface $-1 -63.035835637713717 40.185563140991952 8.4449128856292006 0.79863551827123203 0 -0.60181501223851219 0.60181501223851219 0 0.79863551827123203 1 I I 0 1 1 forward I I I I #
face $-1 $86 $87 $29 $-1 $88 reversed single #
loop $-1 $-1 $89 $37 #
plane-surface $-1 41.2184256872996 -15.48766136812668 193.87530478982464 0 -1 0 -0.6018150307709319 0 -0.79863550430605224 forward_v I I I I #
face $-1 $90 $91 $30 $-1 $92 forward single #
loop $-1 $93 $94 $38 #
cone-surface $-1 59.816505697658499 -26.293689444669653 7.8722439647333164 -0.6018150307709319 0 -0.79863550430605224 0.79863550430605224 0 -0.6018150307709319 1 I I 0 1 1 forward I I I I #
face $-1 $95 $96 $31 $-1 $97 forward single #
loop $-1 $98 $99 $39 #
cone-surface $-1 59.816505697658499 -19.810072598743869 7.8722439647333164 -0.6018150307709319 0 -0.79863550430605224 0.79863550430605224 0 -0.6018150307709319 1 I I 0 1 1 forward I I I I #
face $-1 $100 $101 $24 $-1 $102 reversed single #
loop $-1 $-1 $103 $40 #
plane-surface $-1 0 0 -14.505508063716096 0 0 1 1 0 0 forward_v I I I I #
coedge $-1 $104 $105 $106 $107 forward $41 $-1 #
face $-1 $108 $109 $25 $-1 $110 reversed single #
loop $-1 $-1 $111 $43 #
plane-surface $-1 0 0 -14.505508063716096 0 0 1 1 0 0 forward_v I I I I #
coedge $-1 $112 $113 $114 $115 forward $44 $-1 #
face $-1 $116 $117 $26 $-1 $118 reversed single #
loop $-1 $-1 $119 $46 #
plane-surface $-1 -67.976928006836161 36.359713959411074 3.6889818328623818 -0.79863551827123203 0 0.60181501223851219 0.60181501223851219 0 0.79863551827123203 forward_v I I I I #
coedge $-1 $120 $121 $122 $123 reversed $47 $-1 #
face $-1 $-1 $124 $27 $-1 $125 forward single #
loop $-1 $126 $127 $49 #
cone-surface $-1 -61.770843968235425 32.53386477783021 7.4916733168499086 0.79863551827123203 0 -0.60181501223851219 0.3009075061192561 0 0.39931775913561601 1 I I -0.70710678118654746 0.70710678118654746 0.5 forward I I I I #
loop $-1 $-1 $128 $35 #
coedge $-1 $80 $80 $129 $130 reversed $50 $-1 #
face $-1 $-1 $131 $28 $-1 $132 forward single #
loop $-1 $133 $134 $52 #
cone-surface $-1 -61.770843968235425 40.185563140991952 7.4916733168499086 0.79863551827123203 0 -0.60181501223851219 0.3009075061192561 0 0.39931775913561601 1 I I -0.70710678118654746 0.70710678118654746 0.5 forward I I I I #
loop $-1 $-1 $135 $36 #
coedge $-1 $85 $85 $136 $137 reversed $53 $-1 #
face $-1 $138 $139 $29 $-1 $140 reversed single #
loop $-1 $-1 $141 $55 #
plane-surface $-1 -40.600648352995435 -23.051881021706762 85.297728429993057 0.6018150307709319 0 0.79863550430605224 0.79863550430605224 0 -0.6018150307709319 forward_v I I I I #
coedge $-1 $142 $143 $144 $145 reversed $56 $-1 #
face $-1 $-1 $146 $30 $-1 $147 forward single #
loop $-1 $148 $149 $58 #
cone-surface $-1 58.671740261307249 -26.293689444669653 6.3530889506065442 -0.6018150307709319 0 -0.79863550430605224 0.39931775215302612 0 -0.30090751538546595 1 I I -0.70710678118654746 0.70710678118654746 0.5 forward I I I I #
loop $-1 $-1 $150 $38 #
coedge $-1 $94 $94 $151 $152 reversed $59 $-1 #
face $-1 $-1 $153 $31 $-1 $154 forward single #
loop $-1 $155 $156 $61 #
cone-surface $-1 58.671740261307249 -19.810072598743869 6.3530889506065442 -0.6018150307709319 0 -0.79863550430605224 0.39931775215302612 0 -0.30090751538546595 1 I I -0.70710678118654746 0.70710678118654746 0.5 forward I I I I #
loop $-1 $-1 $157 $39 #
coedge $-1 $99 $99 $158 $159 reversed $62 $-1 #
face $-1 $160 $161 $24 $-1 $162 reversed single #
loop $-1 $-1 $163 $64 #
plane-surface $-1 0 -45.286695383099776 0 0 1 0 0 0 1 forward_v I I I I #
coedge $-1 $164 $165 $166 $167 forward $65 $-1 #
coedge $-1 $168 $67 $169 $170 forward $41 $-1 #
coedge $-1 $67 $168 $171 $172 forward $41 $-1 #
coedge $-1 $173 $174 $67 $107 reversed $175 $-1 #
edge $-1 $176 -45.286695383099776 $177 45.286695383099776 $106 $178 forward 7 unknown #
face $-1 $179 $180 $25 $-1 $181 forward single #
loop $-1 $-1 $182 $68 #
plane-surface $-1 67.976928006836147 0 0 -1 0 0 0 0 1 forward_v I I I I #
coedge $-1 $183 $184 $185 $186 forward $69 $-1 #
coedge $-1 $185 $71 $182 $187 reversed $44 $-1 #
coedge $-1 $71 $185 $188 $189 reversed $44 $-1 #
coedge $-1 $190 $191 $71 $115 reversed $180 $-1 #
edge $-1 $192 -67.976928006836147 $193 67.976928006836147 $114 $194 forward 7 unknown #
face $-1 $195 $196 $26 $-1 $197 reversed single #
loop $-1 $-1 $198 $72 #
plane-surface $-1 0 45.286695383099776 0 0 -1 0 0 0 -1 forward_v I I I I #
coedge $-1 $199 $200 $201 $202 reversed $73 $-1 #
coedge $-1 $121 $75 $203 $204 reversed $47 $-1 #
coedge $-1 $75 $120 $199 $205 reversed $47 $-1 #
coedge $-1 $201 $206 $75 $123 forward $207 $-1 #
edge $-1 $208 20.300325125807746 $209 28.451162043367219 $122 $210 forward 7 unknown #
loop $-1 $-1 $129 $76 #
plane-surface $-1 -67.976928006836161 36.359713959411074 3.6889818328623818 -0.79863551827123203 0 0.60181501223851219 0.60181501223851219 0 0.79863551827123203 forward_v I I I I #
loop $-1 $-1 $211 $49 #
coedge $-1 $127 $127 $128 $212 reversed $77 $-1 #
coedge $-1 $128 $128 $127 $212 forward $79 $-1 #
coedge $-1 $129 $129 $80 $130 forward $124 $-1 #
edge $-1 $213 0 $213 6.2831853071796004 $129 $214 forward 7 unknown #
loop $-1 $-1 $136 $81 #
plane-surface $-1 -67.976928006836161 36.359713959411074 3.6889818328623818 -0.79863551827123203 0 0.60181501223851219 0.60181501223851219 0 0.79863551827123203 forward_v I I I I #
loop $-1 $-1 $215 $52 #
coedge $-1 $134 $134 $135 $216 reversed $82 $-1 #
coedge $-1 $135 $135 $134 $216 forward $84 $-1 #
coedge $-1 $136 $136 $85 $137 forward $131 $-1 #
edge $-1 $217 0 $217 6.2831853071796004 $136 $218 forward 7 unknown #
face $-1 $219 $220 $29 $-1 $221 forward single #
loop $-1 $-1 $222 $86 #
plane-surface $-1 41.2184256872996 -30.616100675286845 193.87530478982464 0 1 0 0.6018150307709319 0 0.79863550430605224 forward_v I I I I #
coedge $-1 $223 $224 $225 $226 reversed $87 $-1 #
coedge $-1 $143 $89 $227 $228 reversed $56 $-1 #
coedge $-1 $89 $142 $223 $229 reversed $56 $-1 #
coedge $-1 $225 $230 $89 $145 forward $220 $-1 #
edge $-1 $231 -47.367715163186347 $232 -32.734586386762601 $144 $233 forward 7 unknown #
loop $-1 $-1 $151 $90 #
plane-surface $-1 -40.600648352995435 -23.051881021706762 85.297728429993057 0.6018150307709319 0 0.79863550430605224 0.79863550430605224 0 -0.6018150307709319 forward_v I I I I #
loop $-1 $-1 $234 $58 #
coedge $-1 $149 $149 $150 $235 reversed $91 $-1 #
coedge $-1 $150 $150 $149 $235 forward $93 $-1 #
coedge $-1 $151 $151 $94 $152 forward $146 $-1 #
edge $-1 $236 0 $236 6.2831853071796004 $151 $237 forward 7 unknown #
loop $-1 $-1 $158 $95 #
plane-surface $-1 -40.600648352995435 -23.051881021706762 85.297728429993057 0.6018150307709319 0 0.79863550430605224 0.79863550430605224 0 -0.6018150307709319 forward_v I I I I #
loop $-1 $-1 $238 $61 #
coedge $-1 $156 $156 $157 $239 reversed $96 $-1 #
coedge $-1 $157 $157 $156 $239 forward $98 $-1 #
coedge $-1 $158 $158 $99 $159 forward $153 $-1 #
edge $-1 $240 0 $240 6.2831853071796004 $158 $241 forward 7 unknown #
face $-1 $242 $243 $24 $-1 $244 reversed single #
loop $-1 $-1 $245 $100 #
plane-surface $-1 -67.976928006836147 0 0 1 0 0 0 0 -1 forward_v I I I I #
coedge $-1 $171 $246 $173 $247 reversed $101 $-1 #
coedge $-1 $248 $103 $246 $249 forward $65 $-1 #
coedge $-1 $103 $248 $250 $251 forward $65 $-1 #
coedge $-1 $174 $173 $103 $167 reversed $175 $-1 #
edge $-1 $252 -45.286695383099776 $253 45.286695383099776 $166 $254 forward 7 unknown #
coedge $-1 $105 $104 $255 $256 forward $41 $-1 #
coedge $-1 $257 $258 $104 $170 reversed $243 $-1 #
edge $-1 $177 -67.976928006836147 $259 67.976928006836147 $169 $260 forward 7 unknown #
coedge $-1 $261 $163 $105 $172 reversed $101 $-1 #
edge $-1 $262 -67.976928006836147 $176 67.976928006836147 $171 $263 forward 7 unknown #
coedge $-1 $166 $106 $163 $247 forward $175 $-1 #
coedge $-1 $106 $166 $257 $264 reversed $175 $-1 #
loop $-1 $-1 $173 $242 #
vertex $-1 $107 $265 #
vertex $-1 $107 $266 #
straight-curve $-1 67.976928006836147 0 14.505508063716096 0 1 0 I I #
face $-1 $267 $268 $25 $-1 $269 reversed single #
loop $-1 $-1 $191 $108 #
plane-surface $-1 0 -52.621992737006238 -6.2712738253067952 0 0 1 1 0 0 forward_v I I I I #
coedge $-1 $270 $271 $112 $187 forward $109 $-1 #
coedge $-1 $272 $111 $271 $273 forward $69 $-1 #
coedge $-1 $111 $272 $274 $275 forward $69 $-1 #
coedge $-1 $113 $112 $111 $186 reversed $44 $-1 #
edge $-1 $276 -67.976928006836147 $277 67.976928006836147 $111 $278 forward 7 unknown #
edge $-1 $277 -14.505508063716096 $193 -6.2712738253067952 $182 $279 forward 7 unknown #
coedge $-1 $274 $280 $113 $189 forward $281 $-1 #
edge $-1 $192 6.2712738253067952 $276 14.505508063716096 $188 $282 forward 7 unknown #
coedge $-1 $283 $114 $280 $284 forward $180 $-1 #
coedge $-1 $114 $283 $270 $285 forward $180 $-1 #
vertex $-1 $189 $286 #
vertex $-1 $285 $287 #
straight-curve $-1 0 -45.286695383099776 -6.2712738253067952 1 0 0 I I #
face $-1 $-1 $207 $26 $-1 $288 forward single #
loop $-1 $-1 $289 $116 #
plane-surface $-1 -67.976928006836147 0 0 1 0 0 0 0 -1 forward_v I I I I #
coedge $-1 $290 $291 $200 $292 forward $117 $-1 #
coedge $-1 $293 $119 $121 $205 forward $73 $-1 #
coedge $-1 $119 $293 $198 $292 reversed $73 $-1 #
coedge $-1 $294 $122 $119 $202 forward $207 $-1 #
edge $-1 $209 9.2528755560168428 $295 27.106838403394232 $201 $296 forward 7 unknown #
coedge $-1 $297 $289 $120 $204 forward $196 $-1 #
edge $-1 $298 -39.065044843939347 $208 -28.248518613085654 $203 $299 forward 7 unknown #
edge $-1 $209 -13.543758051567412 $298 -2.3448253187574213e-014 $121 $300 forward 7 unknown #
coedge $-1 $122 $294 $297 $301 forward $207 $-1 #
loop $-1 $-1 $201 $195 #
vertex $-1 $204 $302 #
vertex $-1 $123 $303 #
straight-curve $-1 -88.277253132643892 27.43273253572238 14.5055080637161 1 0 0 I I #
coedge $-1 $211 $211 $-1 $304 reversed $126 $-1 #
edge $-1 $305 0 $305 6.2831853071796004 $127 $306 forward 7 unknown #
vertex $-1 $130 $307 #
ellipse-curve $-1 -63.90150954805641 32.53386477783021 9.0972449482892479 -0.79863551827123203 0 0.60181501223851219 0.60181501223851219 0 0.79863551827123203 1 I I #
coedge $-1 $215 $215 $-1 $308 reversed $133 $-1 #
edge $-1 $309 0 $309 6.2831853071796004 $134 $310 forward 7 unknown #
vertex $-1 $137 $311 #
ellipse-curve $-1 -63.90150954805641 40.185563140991952 9.0972449482892479 -0.79863551827123203 0 0.60181501223851219 0.60181501223851219 0 0.79863551827123203 1 I I #
face $-1 $-1 $312 $29 $-1 $313 reversed single #
loop $-1 $-1 $144 $138 #
plane-surface $-1 0 0 14.505508063716096 0 0 1 1 0 0 forward_v I I I I #
coedge $-1 $314 $315 $316 $317 reversed $139 $-1 #
coedge $-1 $318 $141 $143 $229 forward $87 $-1 #
coedge $-1 $141 $318 $314 $319 forward $87 $-1 #
coedge $-1 $316 $144 $141 $226 forward $220 $-1 #
edge $-1 $232 3.9617208572732991 $320 19.090160164433463 $225 $321 forward 7 unknown #
coedge $-1 $322 $323 $142 $228 forward $312 $-1 #
edge $-1 $324 -93.458998005214298 $231 -82.432144331196227 $227 $325 forward 7 unknown #
edge $-1 $232 117.63119355060198 $324 135.95385601367229 $143 $326 forward 7 unknown #
coedge $-1 $144 $316 $322 $327 forward $220 $-1 #
vertex $-1 $228 $328 #
vertex $-1 $145 $329 #
straight-curve $-1 20.6092128436498 -15.48766136812668 14.505508063716093 -1 0 0 I I #
coedge $-1 $234 $234 $-1 $330 reversed $148 $-1 #
edge $-1 $331 0 $331 6.2831853071796004 $149 $332 forward 7 unknown #
vertex $-1 $152 $333 #
ellipse-curve $-1 60.660363618624281 -26.293689444669653 8.9920812267070591 0.6018150307709319 0 0.79863550430605224 0.79863550430605224 0 -0.6018150307709319 1 I I #
coedge $-1 $238 $238 $-1 $334 reversed $155 $-1 #
edge $-1 $335 0 $335 6.2831853071796004 $156 $336 forward 7 unknown #
vertex $-1 $159 $337 #
ellipse-curve $-1 60.660363618624281 -19.810072598743869 8.9920812267070591 0.6018150307709319 0 0.79863550430605224 0.79863550430605224 0 -0.6018150307709319 1 I I #
face $-1 $-1 $175 $24 $-1 $338 reversed single #
loop $-1 $-1 $257 $160 #
plane-surface $-1 0 45.286695383099776 0 0 -1 0 0 0 -1 forward_v I I I I #
coedge $-1 $339 $255 $258 $340 forward $161 $-1 #
coedge $-1 $163 $261 $164 $249 reversed $101 $-1 #
edge $-1 $176 -14.505508063716096 $253 14.505508063716096 $173 $341 forward 7 unknown #
coedge $-1 $165 $164 $339 $342 forward $65 $-1 #
edge $-1 $253 -67.976928006836147 $343 67.976928006836147 $246 $344 forward 7 unknown #
coedge $-1 $258 $257 $165 $251 reversed $243 $-1 #
edge $-1 $345 -67.976928006836147 $252 67.976928006836147 $250 $346 forward 7 unknown #
vertex $-1 $167 $347 #
vertex $-1 $247 $348 #
straight-curve $-1 67.976928006836147 0 -14.505508063716096 0 -1 0 I I #
coedge $-1 $245 $349 $168 $256 reversed $161 $-1 #
edge $-1 $259 -45.286695383099776 $262 45.286695383099776 $255 $350 forward 7 unknown #
coedge $-1 $250 $169 $174 $264 forward $243 $-1 #
coedge $-1 $169 $250 $245 $340 reversed $243 $-1 #
vertex $-1 $170 $351 #
straight-curve $-1 0 45.286695383099776 14.505508063716096 -1 0 0 I I #
coedge $-1 $246 $171 $349 $352 forward $101 $-1 #
vertex $-1 $256 $353 #
straight-curve $-1 0 -45.286695383099776 14.505508063716096 1 0 0 I I #
edge $-1 $177 -14.505508063716096 $252 14.505508063716096 $174 $354 forward 7 unknown #
point $-1 67.976928006836147 -45.286695383099776 14.505508063716096 #
point $-1 67.976928006836147 45.286695383099776 14.505508063716096 #
face $-1 $-1 $281 $25 $-1 $355 reversed single #
loop $-1 $-1 $356 $179 #
plane-surface $-1 0 -59.957290090912707 -10.388390944511446 0 1 0 0 0 1 forward_v I I I I #
coedge $-1 $357 $182 $191 $285 reversed $109 $-1 #
coedge $-1 $182 $357 $183 $273 reversed $109 $-1 #
coedge $-1 $184 $183 $358 $359 forward $69 $-1 #
edge $-1 $277 45.286695383099776 $360 59.957290090912707 $271 $361 forward 7 unknown #
coedge $-1 $362 $188 $184 $275 reversed $281 $-1 #
edge $-1 $363 -59.957290090912707 $276 -45.286695383099776 $274 $364 forward 7 unknown #
vertex $-1 $189 $365 #
vertex $-1 $273 $366 #
straight-curve $-1 0 -45.286695383099776 -14.505508063716096 1 0 0 I I #
straight-curve $-1 67.976928006836147 -45.286695383099776 0 0 0 1 I I #
coedge $-1 $188 $362 $190 $284 reversed $281 $-1 #
loop $-1 $-1 $188 $267 #
straight-curve $-1 -67.976928006836147 -45.286695383099776 0 0 0 -1 I I #
coedge $-1 $191 $190 $367 $368 forward $180 $-1 #
edge $-1 $192 -7.3352973539064692 $369 7.3352973539064692 $280 $370 forward 7 unknown #
edge $-1 $371 -7.3352973539064692 $193 7.3352973539064692 $270 $372 forward 7 unknown #
point $-1 -67.976928006836147 -45.286695383099769 -6.2712738253067952 #
point $-1 67.976928006836147 -45.286695383099769 -6.2712738253067952 #
plane-surface $-1 0 0 14.505508063716096 0 0 1 1 0 0 forward_v I I I I #
coedge $-1 $203 $373 $293 $374 forward $196 $-1 #
coedge $-1 $291 $198 $373 $375 reversed $117 $-1 #
coedge $-1 $198 $290 $294 $376 reversed $117 $-1 #
edge $-1 $295 5.4379338696272663 $377 18.981691921194656 $198 $378 forward 7 unknown #
coedge $-1 $200 $199 $289 $374 reversed $73 $-1 #
coedge $-1 $206 $201 $291 $376 forward $207 $-1 #
vertex $-1 $376 $379 #
straight-curve $-1 -59.826091089276666 18.179856979705537 14.505508063716096 0 1 0 I I #
coedge $-1 $373 $203 $206 $301 reversed $196 $-1 #
vertex $-1 $204 $380 #
straight-curve $-1 -67.976928006836147 27.43273253572238 42.75402667680175 0 0 1 I I #
straight-curve $-1 -67.976928006836161 27.43273253572238 3.6889818328623818 -0.60181501223851219 0 -0.79863551827123203 I I #
edge $-1 $381 -45.286695383099776 $208 -27.43273253572238 $297 $382 forward 7 unknown #
point $-1 -67.976928006836147 27.43273253572238 14.505508063716096 #
point $-1 -59.826091089276673 27.43273253572238 14.505508063716096 #
edge $-1 $383 1 $383 0 $211 $-1 forward 7 unknown #
vertex $-1 $212 $384 #
ellipse-curve $-1 -62.170161727371038 32.53386477783021 7.7925808229691649 -0.79863551827123203 0 0.60181501223851219 0.60181501223851219 0 0.79863551827123203 1 I I #
point $-1 -63.299694535817885 32.53386477783021 9.8958804665604667 #
edge $-1 $385 1 $385 0 $215 $-1 forward 7 unknown #
vertex $-1 $216 $386 #
ellipse-curve $-1 -62.170161727371038 40.185563140991952 7.7925808229691649 -0.79863551827123203 0 0.60181501223851219 0.60181501223851219 0 0.79863551827123203 1 I I #
point $-1 -63.299694535817885 40.185563140991952 9.8958804665604667 #
loop $-1 $-1 $227 $219 #
plane-surface $-1 67.976928006836147 0 0 -1 0 0 0 0 1 forward_v I I I I #
coedge $-1 $315 $222 $224 $319 reversed $139 $-1 #
coedge $-1 $222 $314 $387 $388 reversed $139 $-1 #
coedge $-1 $230 $225 $222 $317 forward $220 $-1 #
edge $-1 $320 32.734586386762601 $389 47.367715163186347 $316 $390 forward 7 unknown #
coedge $-1 $224 $223 $323 $391 reversed $87 $-1 #
edge $-1 $392 -135.95385601367229 $320 -117.63119355060198 $314 $393 forward 7 unknown #
vertex $-1 $226 $394 #
straight-curve $-1 53.343799230412401 -11.525940510853381 14.505508063716093 0 -1 0 I I #
coedge $-1 $387 $227 $230 $327 reversed $312 $-1 #
coedge $-1 $227 $387 $318 $391 forward $312 $-1 #
vertex $-1 $228 $395 #
straight-curve $-1 67.976928006836147 -15.48766136812668 96.93765239491232 0 0 1 I I #
straight-curve $-1 -40.600648352995435 -15.48766136812668 85.297728429993057 0.79863550430605224 0 -0.6018150307709319 I I #
edge $-1 $389 -30.616100675286845 $231 -15.48766136812668 $322 $396 forward 7 unknown #
point $-1 67.976928006836147 -15.48766136812668 14.505508063716096 #
point $-1 53.343799230412401 -15.48766136812668 14.505508063716093 #
edge $-1 $397 1 $397 0 $234 $-1 forward 7 unknown #
vertex $-1 $235 $398 #
ellipse-curve $-1 58.972647776692718 -26.293689444669653 6.7524067027595702 0.6018150307709319 0 0.79863550430605224 0.79863550430605224 0 -0.6018150307709319 1 I I #
point $-1 61.458999122930337 -26.293689444669653 8.3902661959361318 #
edge $-1 $399 1 $399 0 $238 $-1 forward 7 unknown #
vertex $-1 $239 $400 #
ellipse-curve $-1 58.972647776692718 -19.810072598743869 6.7524067027595702 0.6018150307709319 0 0.79863550430605224 0.79863550430605224 0 -0.6018150307709319 1 I I #
point $-1 61.458999122930337 -19.810072598743869 8.3902661959361318 #
plane-surface $-1 67.976928006836147 0 0 -1 0 0 0 0 1 forward_v I I I I #
coedge $-1 $349 $245 $248 $342 reversed $161 $-1 #
edge $-1 $259 -14.505508063716096 $345 14.505508063716096 $258 $401 forward 7 unknown #
straight-curve $-1 67.976928006836147 -45.286695383099776 0 0 0 -1 I I #
edge $-1 $343 -45.286695383099776 $345 45.286695383099776 $339 $402 forward 7 unknown #
vertex $-1 $342 $403 #
straight-curve $-1 0 -45.286695383099776 -14.505508063716096 -1 0 0 I I #
vertex $-1 $251 $404 #
straight-curve $-1 0 45.286695383099776 -14.505508063716096 1 0 0 I I #
point $-1 67.976928006836147 45.286695383099776 -14.505508063716096 #
point $-1 67.976928006836147 -45.286695383099776 -14.505508063716096 #
coedge $-1 $255 $339 $261 $352 reversed $161 $-1 #
straight-curve $-1 -67.976928006836147 0 14.505508063716096 0 -1 0 I I #
point $-1 -67.976928006836147 45.286695383099776 14.505508063716096 #
edge $-1 $262 -14.505508063716096 $343 14.505508063716096 $349 $405 forward 7 unknown #
point $-1 -67.976928006836147 -45.286695383099776 14.505508063716096 #
straight-curve $-1 67.976928006836147 45.286695383099776 0 0 0 -1 I I #
plane-surface $-1 -67.976928006836147 0 0 1 0 0 0 0 -1 forward_v I I I I #
coedge $-1 $358 $367 $362 $406 forward $268 $-1 #
coedge $-1 $271 $270 $407 $408 forward $109 $-1 #
coedge $-1 $407 $356 $272 $359 reversed $268 $-1 #
edge $-1 $360 -67.976928006836147 $363 67.976928006836147 $358 $409 forward 7 unknown #
vertex $-1 $408 $410 #
straight-curve $-1 67.976928006836147 0 -14.505508063716096 0 -1 0 I I #
coedge $-1 $280 $274 $356 $406 reversed $281 $-1 #
vertex $-1 $275 $411 #
straight-curve $-1 -67.976928006836147 0 -14.505508063716096 0 1 0 I I #
point $-1 -67.976928006836147 -45.286695383099776 -14.505508063716096 #
point $-1 67.976928006836147 -45.286695383099776 -14.505508063716096 #
coedge $-1 $356 $407 $283 $368 reversed $268 $-1 #
edge $-1 $369 -67.976928006836147 $371 67.976928006836147 $367 $412 forward 7 unknown #
vertex $-1 $284 $413 #
straight-curve $-1 -67.976928006836147 -52.621992737006238 -6.2712738253067952 0 -1 0 I I #
vertex $-1 $285 $414 #
straight-curve $-1 67.976928006836147 -52.621992737006238 -6.2712738253067952 0 1 0 I I #
coedge $-1 $289 $297 $290 $375 forward $196 $-1 #
edge $-1 $377 -27.106838403394232 $298 -9.2528755560168428 $289 $415 forward 7 unknown #
edge $-1 $381 -14.505508063716096 $377 -3.6889818328624004 $290 $416 forward 7 unknown #
edge $-1 $295 59.826091089276673 $381 67.976928006836147 $291 $417 forward 7 unknown #
vertex $-1 $292 $418 #
straight-curve $-1 -56.553460850974716 45.286695383099776 18.848435198010552 -0.60181501223851219 0 -0.79863551827123203 I I #
point $-1 -59.826091089276673 45.286695383099769 14.505508063716096 #
point $-1 -67.976928006836147 27.43273253572238 3.6889818328624004 #
vertex $-1 $376 $419 #
straight-curve $-1 -67.976928006836147 0 14.505508063716096 0 -1 0 I I #
vertex $-1 $304 $420 #
point $-1 -61.568346715132527 32.53386477783021 8.591216341240397 #
vertex $-1 $308 $421 #
point $-1 -61.568346715132527 40.185563140991952 8.591216341240397 #
coedge $-1 $323 $322 $315 $388 forward $312 $-1 #
edge $-1 $389 82.432144331196227 $392 93.458998005214298 $387 $422 forward 7 unknown #
vertex $-1 $327 $423 #
straight-curve $-1 20.6092128436498 -30.616100675286845 14.505508063716093 1 0 0 I I #
edge $-1 $392 -19.090160164433463 $324 -3.9617208572732991 $323 $424 forward 7 unknown #
vertex $-1 $391 $425 #
straight-curve $-1 -40.600648352995435 -30.616100675286845 85.297728429993057 -0.79863550430605224 0 0.6018150307709319 I I #
point $-1 53.343799230412401 -30.616100675286845 14.505508063716093 #
point $-1 67.976928006836147 -15.48766136812668 3.478654389698022 #
straight-curve $-1 67.976928006836147 0 14.505508063716096 0 1 0 I I #
vertex $-1 $330 $426 #
point $-1 59.771283280998766 -26.293689444669653 6.1505916719886384 #
vertex $-1 $334 $427 #
point $-1 59.771283280998766 -19.810072598743869 6.1505916719886384 #
straight-curve $-1 -67.976928006836147 45.286695383099776 0 0 0 -1 I I #
straight-curve $-1 -67.976928006836147 0 -14.505508063716096 0 1 0 I I #
point $-1 -67.976928006836147 -45.286695383099776 -14.505508063716096 #
point $-1 -67.976928006836147 45.286695383099776 -14.505508063716096 #
straight-curve $-1 -67.976928006836147 -45.286695383099776 0 0 0 -1 I I #
edge $-1 $369 -4.117117119204651 $363 4.1171171192046501 $362 $428 forward 7 unknown #
coedge $-1 $367 $358 $357 $408 reversed $268 $-1 #
edge $-1 $371 -4.117117119204651 $360 4.1171171192046501 $357 $429 forward 7 unknown #
straight-curve $-1 0 -59.957290090912707 -14.505508063716096 -1 0 0 I I #
point $-1 67.976928006836147 -59.957290090912707 -14.505508063716096 #
point $-1 -67.976928006836147 -59.957290090912707 -14.505508063716096 #
straight-curve $-1 0 -59.957290090912707 -6.2712738253067952 1 0 0 I I #
point $-1 -67.976928006836147 -59.957290090912707 -6.2712738253067952 #
point $-1 67.976928006836147 -59.957290090912707 -6.2712738253067952 #
straight-curve $-1 -67.976928006836147 18.179856979705537 3.6889818328623822 0 -1 0 I I #
straight-curve $-1 -67.976928006836147 45.286695383099776 0 0 0 -1 I I #
straight-curve $-1 0 45.286695383099776 14.505508063716096 -1 0 0 I I #
point $-1 -67.976928006836147 45.286695383099769 3.6889818328624004 #
point $-1 -67.976928006836147 45.286695383099776 14.505508063716096 #
point $-1 -61.371526209099812 32.53386477783021 7.1907658107306522 #
point $-1 -61.371526209099812 40.185563140991952 7.1907658107306522 #
straight-curve $-1 67.976928006836147 -30.616100675286845 96.93765239491232 0 0 -1 I I #
point $-1 67.976928006836147 -30.616100675286845 14.505508063716096 #
straight-curve $-1 67.976928006836147 -11.525940510853381 3.4786543896980291 0 1 0 I I #
point $-1 67.976928006836147 -30.616100675286845 3.478654389698022 #
point $-1 58.370832745921781 -26.293689444669653 5.9537711984535182 #
point $-1 58.370832745921781 -19.810072598743869 5.9537711984535182 #
straight-curve $-1 -67.976928006836147 -59.957290090912707 -10.388390944511446 0 0 -1 I I #
straight-curve $-1 67.976928006836147 -59.957290090912707 -10.388390944511446 0 0 -1 I I #
End-of-ACIS-data 