500 0 7 0           
7 Unknown 11 ACIS 5.0 NT 24 Fri Mar 26 02:20:50 1999 
-1 9.9999999999999995e-007 1e-010 
body $-1 $7 $-1 $8 #
body $-1 $9 $-1 $10 #
body $-1 $11 $-1 $12 #
body $-1 $13 $-1 $14 #
body $-1 $15 $-1 $16 #
body $-1 $17 $-1 $18 #
body $-1 $19 $-1 $20 #
lump $-1 $-1 $21 $0 #
transform $-1 1 0 0 0 1 0 0 0 1 49.580370494705036 33.731205458333442 6.7490205421729144 1 rotate no_reflect no_shear #
lump $-1 $-1 $22 $1 #
transform $-1 1 0 0 0 1 0 0 0 1 49.580370494705036 33.731205458333442 6.7490205421729144 1 rotate no_reflect no_shear #
lump $-1 $-1 $23 $2 #
transform $-1 1 0 0 0 1 0 0 0 1 49.580370494705036 33.731205458333442 6.7490205421729144 1 rotate no_reflect no_shear #
lump $-1 $-1 $24 $3 #
transform $-1 1 0 0 0 1 0 0 0 1 49.580370494705036 33.731205458333442 6.7490205421729144 1 rotate no_reflect no_shear #
lump $-1 $-1 $25 $4 #
transform $-1 1 0 0 0 1 0 0 0 1 49.580370494705036 33.731205458333442 6.7490205421729144 1 rotate no_reflect no_shear #
lump $-1 $-1 $26 $5 #
transform $-1 1 0 0 0 1 0 0 0 1 49.580370494705036 33.731205458333442 6.7490205421729144 1 rotate no_reflect no_shear #
lump $-1 $-1 $27 $6 #
transform $-1 1 0 0 0 1 0 0 0 1 49.580370494705036 33.731205458333442 6.7490205421729144 1 rotate no_reflect no_shear #
shell $-1 $-1 $-1 $28 $-1 $7 #
shell $-1 $-1 $-1 $29 $-1 $9 #
shell $-1 $-1 $-1 $30 $-1 $11 #
shell $-1 $-1 $-1 $31 $-1 $13 #
shell $-1 $-1 $-1 $32 $-1 $15 #
shell $-1 $-1 $-1 $33 $-1 $17 #
shell $-1 $-1 $-1 $34 $-1 $19 #
face $-1 $35 $36 $21 $-1 $37 forward single #
face $-1 $38 $39 $22 $-1 $40 forward single #
face $-1 $41 $42 $23 $-1 $43 reversed single #
face $-1 $44 $45 $24 $-1 $46 forward single #
face $-1 $47 $48 $25 $-1 $49 reversed single #
face $-1 $50 $51 $26 $-1 $52 forward single #
face $-1 $53 $54 $27 $-1 $55 forward single #
face $-1 $56 $57 $21 $-1 $58 reversed single #
loop $-1 $-1 $59 $28 #
plane-surface $-1 0 0 6.7490205421729144 0 0 1 1 0 0 forward_v I I I I #
face $-1 $60 $61 $22 $-1 $62 reversed single #
loop $-1 $-1 $63 $29 #
plane-surface $-1 0 -30.204643978877499 2.7022430850858399 0 0 1 1 0 0 forward_v I I I I #
face $-1 $64 $65 $23 $-1 $66 reversed single #
loop $-1 $-1 $67 $30 #
plane-surface $-1 -109.25679488451527 -23.341624892808518 80.592806783138045 0 1 0 -0.6018150307709319 0 0.79863550430605224 forward_v I I I I #
face $-1 $68 $69 $24 $-1 $70 forward single #
loop $-1 $71 $72 $31 #
cone-surface $-1 -45.092226955097402 -19.962211297088345 2.8286666744989337 0.6018150307709319 0 -0.79863550430605224 0.79863550430605224 0 0.6018150307709319 1 I I 0 1 1 forward I I I I #
face $-1 $73 $74 $25 $-1 $75 reversed single #
loop $-1 $-1 $76 $32 #
plane-surface $-1 52.02780103323127 29.398619103999536 141.68504913112679 0 -1 0 -0.71933980857756763 0 -0.69465836192734942 forward_v I I I I #
face $-1 $77 $78 $26 $-1 $79 forward single #
loop $-1 $80 $81 $33 #
cone-surface $-1 46.564656193529935 24.215070320421304 3.658822289313802 -0.71933980857756763 0 -0.69465836192734942 0.34732918096367471 0 -0.35966990428878381 1 I I 0 1 0.5 forward I I I I #
face $-1 $82 $83 $27 $-1 $84 forward single #
loop $-1 $85 $86 $34 #
cone-surface $-1 46.564656193529935 27.325199590568239 3.658822289313802 -0.71933980857756763 0 -0.69465836192734942 0.34732918096367471 0 -0.35966990428878381 1 I I 0 1 0.5 forward I I I I #
face $-1 $87 $88 $21 $-1 $89 reversed single #
loop $-1 $-1 $90 $35 #
plane-surface $-1 0 0 -6.7490205421729144 0 0 1 1 0 0 forward_v I I I I #
coedge $-1 $91 $92 $93 $94 forward $36 $-1 #
face $-1 $95 $96 $22 $-1 $97 reversed single #
loop $-1 $-1 $98 $38 #
plane-surface $-1 0 -30.204643978877499 -0.29775691491416012 0 0 1 1 0 0 forward_v I I I I #
coedge $-1 $99 $100 $101 $102 reversed $39 $-1 #
face $-1 $103 $104 $23 $-1 $105 reversed single #
loop $-1 $-1 $106 $41 #
plane-surface $-1 -49.580370494705043 -19.962211297088349 1.3995183956987063 -0.6018150307709319 0 0.79863550430605224 0.79863550430605224 0 0.6018150307709319 forward_v I I I I #
coedge $-1 $107 $108 $109 $110 reversed $42 $-1 #
face $-1 $-1 $111 $24 $-1 $112 forward single #
loop $-1 $113 $114 $44 #
cone-surface $-1 -43.852690390514148 -19.962211297088345 1.1837461279090364 0.6018150307709319 0 -0.79863550430605224 0.39931775215302612 0 0.30090751538546595 1 I I -0.70710678118654746 0.70710678118654746 0.5 forward I I I I #
loop $-1 $-1 $115 $31 #
coedge $-1 $72 $72 $116 $117 reversed $45 $-1 #
face $-1 $118 $119 $25 $-1 $120 reversed single #
loop $-1 $-1 $121 $47 #
plane-surface $-1 -19.302467408500732 25.770134955494775 72.802211227921021 0.71933980857756763 0 0.69465836192734942 0.69465836192734942 0 -0.71933980857756763 forward_v I I I I #
coedge $-1 $122 $123 $124 $125 reversed $48 $-1 #
face $-1 $-1 $126 $26 $-1 $127 forward single #
loop $-1 $128 $129 $50 #
cone-surface $-1 45.917114256101783 24.215070320421304 3.033498323964821 -0.71933980857756763 0 -0.69465836192734942 0.17366459048183736 0 -0.17983495214439191 1 I I -0.70710678118654746 0.70710678118654746 0.25 forward I I I I #
loop $-1 $-1 $130 $33 #
coedge $-1 $81 $81 $131 $132 reversed $51 $-1 #
face $-1 $-1 $133 $27 $-1 $134 forward single #
loop $-1 $135 $136 $53 #
cone-surface $-1 45.917114256101783 27.325199590568239 3.033498323964821 -0.71933980857756763 0 -0.69465836192734942 0.17366459048183736 0 -0.17983495214439191 1 I I -0.70710678118654746 0.70710678118654746 0.25 forward I I I I #
loop $-1 $-1 $137 $34 #
coedge $-1 $86 $86 $138 $139 reversed $54 $-1 #
face $-1 $140 $141 $21 $-1 $142 reversed single #
loop $-1 $-1 $143 $56 #
plane-surface $-1 0 -33.731205458333442 0 0 1 0 0 0 1 forward_v I I I I #
coedge $-1 $144 $145 $146 $147 forward $57 $-1 #
coedge $-1 $148 $59 $149 $150 forward $36 $-1 #
coedge $-1 $59 $148 $151 $152 forward $36 $-1 #
coedge $-1 $153 $154 $59 $94 reversed $155 $-1 #
edge $-1 $156 -33.731205458333442 $157 33.731205458333442 $93 $158 forward 7 unknown #
face $-1 $159 $160 $22 $-1 $161 reversed single #
loop $-1 $-1 $162 $60 #
plane-surface $-1 0 -26.678082499421556 1.2022430850858399 0 -1 0 0 0 -1 forward_v I I I I #
coedge $-1 $163 $164 $165 $166 reversed $61 $-1 #
coedge $-1 $167 $63 $168 $169 forward $39 $-1 #
coedge $-1 $63 $167 $170 $171 reversed $39 $-1 #
coedge $-1 $172 $173 $63 $102 forward $174 $-1 #
edge $-1 $175 11.575760509982807 $176 18.628883468894692 $101 $177 forward 7 unknown #
face $-1 $178 $179 $23 $-1 $180 reversed single #
loop $-1 $-1 $181 $64 #
plane-surface $-1 -109.25679488451527 -16.582797701368179 80.592806783138045 0 -1 0 0.6018150307709319 0 -0.79863550430605224 forward_v I I I I #
coedge $-1 $182 $183 $184 $185 reversed $65 $-1 #
coedge $-1 $108 $67 $186 $187 reversed $42 $-1 #
coedge $-1 $67 $107 $182 $188 reversed $42 $-1 #
coedge $-1 $184 $189 $67 $110 forward $190 $-1 #
edge $-1 $191 5.0480269475526001 $192 12.147055928372282 $109 $193 forward 7 unknown #
loop $-1 $-1 $116 $68 #
plane-surface $-1 -49.580370494705043 -19.962211297088349 1.3995183956987063 -0.6018150307709319 0 0.79863550430605224 0.79863550430605224 0 0.6018150307709319 forward_v I I I I #
loop $-1 $-1 $194 $44 #
coedge $-1 $114 $114 $115 $195 reversed $69 $-1 #
coedge $-1 $115 $115 $114 $195 forward $71 $-1 #
coedge $-1 $116 $116 $72 $117 forward $111 $-1 #
edge $-1 $196 0 $196 6.2831853071796004 $116 $197 forward 7 unknown #
face $-1 $198 $199 $25 $-1 $200 forward single #
loop $-1 $-1 $201 $73 #
plane-surface $-1 52.02780103323127 22.141650806990015 141.68504913112679 0 1 0 0.71933980857756763 0 0.69465836192734942 forward_v I I I I #
coedge $-1 $202 $203 $204 $205 reversed $74 $-1 #
coedge $-1 $123 $76 $206 $207 reversed $48 $-1 #
coedge $-1 $76 $122 $202 $208 reversed $48 $-1 #
coedge $-1 $204 $209 $76 $125 forward $199 $-1 #
edge $-1 $210 -23.566469978089401 $211 -18.470455346306736 $124 $212 forward 7 unknown #
loop $-1 $-1 $131 $77 #
plane-surface $-1 -19.302467408500732 25.770134955494775 72.802211227921021 0.71933980857756763 0 0.69465836192734942 0.69465836192734942 0 -0.71933980857756763 forward_v I I I I #
loop $-1 $-1 $213 $50 #
coedge $-1 $129 $129 $130 $214 reversed $78 $-1 #
coedge $-1 $130 $130 $129 $214 forward $80 $-1 #
coedge $-1 $131 $131 $81 $132 forward $126 $-1 #
edge $-1 $215 0 $215 6.2831853071796004 $131 $216 forward 7 unknown #
loop $-1 $-1 $138 $82 #
plane-surface $-1 -19.302467408500732 25.770134955494775 72.802211227921021 0.71933980857756763 0 0.69465836192734942 0.69465836192734942 0 -0.71933980857756763 forward_v I I I I #
loop $-1 $-1 $217 $53 #
coedge $-1 $136 $136 $137 $218 reversed $83 $-1 #
coedge $-1 $137 $137 $136 $218 forward $85 $-1 #
coedge $-1 $138 $138 $86 $139 forward $133 $-1 #
edge $-1 $219 0 $219 6.2831853071796004 $138 $220 forward 7 unknown #
face $-1 $221 $222 $21 $-1 $223 reversed single #
loop $-1 $-1 $224 $87 #
plane-surface $-1 -49.580370494705036 0 0 1 0 0 0 0 -1 forward_v I I I I #
coedge $-1 $225 $151 $226 $227 forward $88 $-1 #
coedge $-1 $228 $90 $225 $229 forward $57 $-1 #
coedge $-1 $90 $228 $230 $231 forward $57 $-1 #
coedge $-1 $154 $153 $90 $147 reversed $155 $-1 #
edge $-1 $232 -33.731205458333442 $233 33.731205458333442 $146 $234 forward 7 unknown #
coedge $-1 $92 $91 $235 $236 forward $36 $-1 #
coedge $-1 $237 $238 $91 $150 reversed $222 $-1 #
edge $-1 $157 -49.580370494705036 $239 49.580370494705036 $149 $240 forward 7 unknown #
coedge $-1 $143 $241 $92 $152 reversed $88 $-1 #
edge $-1 $242 -49.580370494705036 $156 49.580370494705036 $151 $243 forward 7 unknown #
coedge $-1 $146 $93 $241 $244 forward $155 $-1 #
coedge $-1 $93 $146 $237 $245 reversed $155 $-1 #
loop $-1 $-1 $153 $221 #
vertex $-1 $94 $246 #
vertex $-1 $94 $247 #
straight-curve $-1 49.580370494705036 0 6.7490205421729144 0 1 0 I I #
face $-1 $248 $249 $22 $-1 $250 reversed single #
loop $-1 $-1 $251 $95 #
plane-surface $-1 -49.580370494705036 0 0 1 0 0 0 0 -1 forward_v I I I I #
coedge $-1 $252 $168 $173 $253 reversed $96 $-1 #
coedge $-1 $254 $98 $255 $256 reversed $61 $-1 #
coedge $-1 $98 $254 $252 $257 forward $61 $-1 #
coedge $-1 $173 $172 $98 $166 forward $174 $-1 #
edge $-1 $258 -18.628883468894692 $259 -11.575760509982807 $165 $260 forward 7 unknown #
coedge $-1 $100 $99 $251 $261 reversed $39 $-1 #
coedge $-1 $162 $262 $99 $169 reversed $96 $-1 #
edge $-1 $175 -49.580370494705036 $263 49.580370494705036 $168 $264 forward 7 unknown #
coedge $-1 $265 $266 $100 $171 forward $249 $-1 #
edge $-1 $176 -49.580370494705036 $267 49.580370494705036 $170 $268 forward 7 unknown #
coedge $-1 $165 $101 $266 $269 forward $174 $-1 #
coedge $-1 $101 $165 $162 $253 forward $174 $-1 #
loop $-1 $-1 $101 $248 #
vertex $-1 $102 $270 #
vertex $-1 $269 $271 #
straight-curve $-1 49.580370494705036 -15.102321989438749 2.7022430850858399 0 -1 0 I I #
face $-1 $-1 $190 $23 $-1 $272 forward single #
loop $-1 $-1 $273 $103 #
plane-surface $-1 -49.580370494705036 0 0 1 0 0 0 0 -1 forward_v I I I I #
coedge $-1 $274 $275 $276 $277 reversed $104 $-1 #
coedge $-1 $278 $106 $108 $188 forward $65 $-1 #
coedge $-1 $106 $278 $274 $279 forward $65 $-1 #
coedge $-1 $276 $109 $106 $185 forward $190 $-1 #
edge $-1 $192 -13.360519244264344 $280 -6.6016920528240046 $184 $281 forward 7 unknown #
coedge $-1 $282 $283 $107 $187 forward $179 $-1 #
edge $-1 $284 -38.896884995870309 $191 -33.547382849396108 $186 $285 forward 7 unknown #
edge $-1 $192 -8.8889473890697541 $284 -8.8817612989391469e-015 $108 $286 forward 7 unknown #
coedge $-1 $109 $276 $282 $287 forward $190 $-1 #
loop $-1 $-1 $276 $178 #
vertex $-1 $187 $288 #
vertex $-1 $110 $289 #
straight-curve $-1 -54.628397442257636 -23.341624892808518 6.7490205421729144 1 0 0 I I #
coedge $-1 $194 $194 $-1 $290 reversed $113 $-1 #
edge $-1 $291 0 $291 6.2831853071796004 $114 $292 forward 7 unknown #
vertex $-1 $117 $293 #
ellipse-curve $-1 -46.030856004295195 -19.962211297088345 4.0742694689358139 -0.6018150307709319 0 0.79863550430605224 0.79863550430605224 0 0.6018150307709319 1 I I #
face $-1 $-1 $294 $25 $-1 $295 reversed single #
loop $-1 $-1 $124 $118 #
plane-surface $-1 0 0 6.7490205421729144 0 0 1 1 0 0 forward_v I I I I #
coedge $-1 $296 $297 $298 $299 reversed $119 $-1 #
coedge $-1 $300 $121 $123 $208 forward $74 $-1 #
coedge $-1 $121 $300 $296 $301 forward $74 $-1 #
coedge $-1 $298 $124 $121 $205 forward $199 $-1 #
edge $-1 $211 -16.513551626252148 $302 -9.2565833292426269 $204 $303 forward 7 unknown #
coedge $-1 $304 $305 $122 $207 forward $294 $-1 #
edge $-1 $306 -69.370581779374376 $210 -64.09350402339048 $206 $307 forward 7 unknown #
edge $-1 $211 91.82473971009972 $306 99.160740989410073 $123 $308 forward 7 unknown #
coedge $-1 $124 $298 $304 $309 forward $199 $-1 #
vertex $-1 $207 $310 #
vertex $-1 $125 $311 #
straight-curve $-1 26.013900516615635 29.398619103999536 6.7490205421729144 -1 0 0 I I #
coedge $-1 $213 $213 $-1 $312 reversed $128 $-1 #
edge $-1 $313 0 $313 6.2831853071796004 $129 $314 forward 7 unknown #
vertex $-1 $132 $315 #
ellipse-curve $-1 47.032363178813718 24.215070320421304 4.1104816641809672 0.71933980857756763 0 0.69465836192734942 0.34732918096367471 0 -0.35966990428878381 1 I I #
coedge $-1 $217 $217 $-1 $316 reversed $135 $-1 #
edge $-1 $317 0 $317 6.2831853071796004 $136 $318 forward 7 unknown #
vertex $-1 $139 $319 #
ellipse-curve $-1 47.032363178813718 27.325199590568239 4.1104816641809672 0.71933980857756763 0 0.69465836192734942 0.34732918096367471 0 -0.35966990428878381 1 I I #
face $-1 $-1 $155 $21 $-1 $320 reversed single #
loop $-1 $-1 $237 $140 #
plane-surface $-1 0 33.731205458333442 0 0 -1 0 0 0 -1 forward_v I I I I #
coedge $-1 $321 $235 $238 $322 forward $141 $-1 #
coedge $-1 $241 $143 $144 $229 reversed $88 $-1 #
coedge $-1 $235 $321 $143 $227 reversed $141 $-1 #
edge $-1 $242 -6.7490205421729144 $323 6.7490205421729144 $226 $324 forward 7 unknown #
coedge $-1 $145 $144 $321 $325 forward $57 $-1 #
edge $-1 $233 -49.580370494705036 $323 49.580370494705036 $225 $326 forward 7 unknown #
coedge $-1 $238 $237 $145 $231 reversed $222 $-1 #
edge $-1 $327 -49.580370494705036 $232 49.580370494705036 $230 $328 forward 7 unknown #
vertex $-1 $147 $329 #
vertex $-1 $244 $330 #
straight-curve $-1 49.580370494705036 0 -6.7490205421729144 0 -1 0 I I #
coedge $-1 $224 $226 $148 $236 reversed $141 $-1 #
edge $-1 $239 -33.731205458333442 $242 33.731205458333442 $235 $331 forward 7 unknown #
coedge $-1 $230 $149 $154 $245 forward $222 $-1 #
coedge $-1 $149 $230 $224 $322 reversed $222 $-1 #
vertex $-1 $150 $332 #
straight-curve $-1 0 33.731205458333442 6.7490205421729144 -1 0 0 I I #
coedge $-1 $151 $225 $153 $244 reversed $88 $-1 #
vertex $-1 $236 $333 #
straight-curve $-1 0 -33.731205458333442 6.7490205421729144 1 0 0 I I #
edge $-1 $156 -6.7490205421729144 $233 6.7490205421729144 $153 $334 forward 7 unknown #
edge $-1 $157 -6.7490205421729144 $232 6.7490205421729144 $154 $335 forward 7 unknown #
point $-1 49.580370494705036 -33.731205458333442 6.7490205421729144 #
point $-1 49.580370494705036 33.731205458333442 6.7490205421729144 #
face $-1 $-1 $174 $22 $-1 $336 reversed single #
loop $-1 $-1 $170 $159 #
plane-surface $-1 0 -33.731205458333442 0 0 1 0 0 0 1 forward_v I I I I #
coedge $-1 $337 $338 $167 $261 forward $160 $-1 #
coedge $-1 $262 $162 $164 $257 reversed $96 $-1 #
edge $-1 $259 -0.89887845745708006 $175 2.1011215425429199 $173 $339 forward 7 unknown #
coedge $-1 $164 $163 $340 $341 reversed $61 $-1 #
coedge $-1 $266 $265 $163 $256 forward $249 $-1 #
edge $-1 $342 -49.580370494705036 $258 49.580370494705036 $255 $343 forward 7 unknown #
edge $-1 $344 -49.580370494705036 $259 49.580370494705036 $252 $345 forward 7 unknown #
vertex $-1 $256 $346 #
vertex $-1 $166 $347 #
straight-curve $-1 49.580370494705036 -15.102321989438749 -0.29775691491416012 0 1 0 I I #
edge $-1 $267 -18.628883468894692 $263 -11.575760509982807 $251 $348 forward 7 unknown #
coedge $-1 $168 $252 $337 $349 reversed $96 $-1 #
vertex $-1 $261 $350 #
straight-curve $-1 0 -26.678082499421556 2.7022430850858399 -1 0 0 I I #
coedge $-1 $255 $170 $338 $351 forward $249 $-1 #
coedge $-1 $170 $255 $172 $269 reversed $249 $-1 #
vertex $-1 $351 $352 #
straight-curve $-1 0 -33.731205458333442 2.7022430850858399 -1 0 0 I I #
edge $-1 $176 -2.7022430850858399 $258 0.29775691491416012 $172 $353 forward 7 unknown #
point $-1 49.580370494705036 -26.678082499421556 2.7022430850858399 #
point $-1 49.580370494705036 -33.731205458333442 2.7022430850858399 #
plane-surface $-1 0 0 6.7490205421729144 0 0 1 1 0 0 forward_v I I I I #
coedge $-1 $283 $282 $275 $354 forward $179 $-1 #
coedge $-1 $275 $181 $183 $279 reversed $104 $-1 #
coedge $-1 $181 $274 $273 $354 reversed $104 $-1 #
coedge $-1 $189 $184 $181 $277 forward $190 $-1 #
edge $-1 $280 -12.147055928372282 $355 -5.0480269475526001 $276 $356 forward 7 unknown #
coedge $-1 $183 $182 $283 $357 reversed $65 $-1 #
edge $-1 $358 8.8817612989391469e-015 $280 8.8889473890697541 $274 $359 forward 7 unknown #
vertex $-1 $185 $360 #
straight-curve $-1 -42.481341513885354 -9.9811056485441743 6.7490205421729144 0 1 0 I I #
coedge $-1 $273 $186 $189 $287 reversed $179 $-1 #
coedge $-1 $186 $273 $278 $357 forward $179 $-1 #
vertex $-1 $187 $361 #
straight-curve $-1 -49.580370494705036 -23.341624892808518 40.296403391569022 0 0 1 I I #
straight-curve $-1 -49.580370494705043 -23.341624892808518 1.3995183956987063 -0.79863550430605224 0 -0.6018150307709319 I I #
edge $-1 $355 16.582797701368179 $191 23.341624892808518 $282 $362 forward 7 unknown #
point $-1 -49.580370494705036 -23.341624892808518 6.7490205421729144 #
point $-1 -42.481341513885354 -23.341624892808518 6.7490205421729144 #
edge $-1 $363 1 $363 0 $194 $-1 forward 7 unknown #
vertex $-1 $195 $364 #
ellipse-curve $-1 -44.153597905899616 -19.962211297088345 1.5830638800620624 -0.6018150307709319 0 0.79863550430605224 0.79863550430605224 0 0.6018150307709319 1 I I #
point $-1 -45.232220499989133 -19.962211297088345 4.6760844997067359 #
loop $-1 $-1 $206 $198 #
plane-surface $-1 49.580370494705036 0 0 -1 0 0 0 0 1 forward_v I I I I #
coedge $-1 $297 $201 $203 $301 reversed $119 $-1 #
coedge $-1 $201 $296 $365 $366 reversed $119 $-1 #
coedge $-1 $209 $204 $201 $299 forward $199 $-1 #
edge $-1 $302 18.470455346306736 $367 23.566469978089401 $298 $368 forward 7 unknown #
coedge $-1 $203 $202 $305 $369 reversed $74 $-1 #
edge $-1 $370 -99.160740989410073 $302 -91.82473971009972 $296 $371 forward 7 unknown #
vertex $-1 $205 $372 #
straight-curve $-1 44.484355862922371 12.885067477747388 6.7490205421729144 0 -1 0 I I #
coedge $-1 $365 $206 $209 $309 reversed $294 $-1 #
coedge $-1 $206 $365 $300 $369 forward $294 $-1 #
vertex $-1 $207 $373 #
straight-curve $-1 49.580370494705036 29.398619103999536 70.842524565563394 0 0 1 I I #
straight-curve $-1 -19.302467408500732 29.398619103999536 72.802211227921021 0.69465836192734942 0 -0.71933980857756763 I I #
edge $-1 $367 22.141650806990015 $210 29.398619103999536 $304 $374 forward 7 unknown #
point $-1 49.580370494705036 29.398619103999536 6.7490205421729144 #
point $-1 44.484355862922371 29.398619103999536 6.7490205421729144 #
edge $-1 $375 1 $375 0 $213 $-1 forward 7 unknown #
vertex $-1 $214 $376 #
ellipse-curve $-1 46.096949208246173 24.215070320421304 3.2071629144466582 0.71933980857756763 0 0.69465836192734942 0.34732918096367471 0 -0.35966990428878381 1 I I #
point $-1 47.379692359777366 24.215070320421304 3.7508117598921622 #
edge $-1 $377 1 $377 0 $217 $-1 forward 7 unknown #
vertex $-1 $218 $378 #
ellipse-curve $-1 46.096949208246173 27.325199590568239 3.2071629144466582 0.71933980857756763 0 0.69465836192734942 0.34732918096367471 0 -0.35966990428878381 1 I I #
point $-1 47.379692359777366 27.325199590568239 3.7508117598921622 #
plane-surface $-1 49.580370494705036 0 0 -1 0 0 0 0 1 forward_v I I I I #
coedge $-1 $226 $224 $228 $325 reversed $141 $-1 #
edge $-1 $239 -6.7490205421729144 $327 6.7490205421729144 $238 $379 forward 7 unknown #
vertex $-1 $325 $380 #
straight-curve $-1 -49.580370494705036 -33.731205458333442 0 0 0 -1 I I #
edge $-1 $323 -33.731205458333442 $327 33.731205458333442 $321 $381 forward 7 unknown #
straight-curve $-1 0 -33.731205458333442 -6.7490205421729144 -1 0 0 I I #
vertex $-1 $231 $382 #
straight-curve $-1 0 33.731205458333442 -6.7490205421729144 1 0 0 I I #
point $-1 49.580370494705036 33.731205458333442 -6.7490205421729144 #
point $-1 49.580370494705036 -33.731205458333442 -6.7490205421729144 #
straight-curve $-1 -49.580370494705036 0 6.7490205421729144 0 -1 0 I I #
point $-1 -49.580370494705036 33.731205458333442 6.7490205421729144 #
point $-1 -49.580370494705036 -33.731205458333442 6.7490205421729144 #
straight-curve $-1 49.580370494705036 -33.731205458333442 0 0 0 -1 I I #
straight-curve $-1 49.580370494705036 33.731205458333442 0 0 0 -1 I I #
plane-surface $-1 49.580370494705036 0 0 -1 0 0 0 0 1 forward_v I I I I #
coedge $-1 $340 $251 $262 $349 forward $160 $-1 #
coedge $-1 $251 $340 $265 $351 reversed $160 $-1 #
straight-curve $-1 49.580370494705036 -26.678082499421556 0.60112154254291994 0 0 1 I I #
coedge $-1 $338 $337 $254 $341 forward $160 $-1 #
edge $-1 $344 11.575760509982807 $342 18.628883468894692 $340 $383 forward 7 unknown #
vertex $-1 $256 $384 #
straight-curve $-1 0 -33.731205458333442 -0.29775691491416012 1 0 0 I I #
vertex $-1 $341 $385 #
straight-curve $-1 0 -26.678082499421556 -0.29775691491416012 1 0 0 I I #
point $-1 49.580370494705036 -33.731205458333442 -0.29775691491416012 #
point $-1 49.580370494705036 -26.678082499421556 -0.29775691491416012 #
straight-curve $-1 -49.580370494705036 -15.102321989438749 2.7022430850858399 0 1 0 I I #
edge $-1 $263 -2.1011215425429199 $344 0.89887845745708006 $337 $386 forward 7 unknown #
point $-1 -49.580370494705036 -26.678082499421556 2.7022430850858399 #
edge $-1 $267 -2.7022430850858399 $342 0.29775691491416012 $338 $387 forward 7 unknown #
point $-1 -49.580370494705036 -33.731205458333442 2.7022430850858399 #
straight-curve $-1 49.580370494705036 -33.731205458333442 0 0 0 -1 I I #
edge $-1 $355 33.547382849396108 $358 38.896884995870309 $273 $388 forward 7 unknown #
vertex $-1 $287 $389 #
straight-curve $-1 -54.628397442257636 -16.582797701368179 6.7490205421729144 -1 0 0 I I #
edge $-1 $358 6.6016920528240046 $284 13.360519244264344 $283 $390 forward 7 unknown #
vertex $-1 $357 $391 #
straight-curve $-1 -49.580370494705043 -16.582797701368179 1.3995183956987063 0.79863550430605224 0 0.6018150307709319 I I #
point $-1 -42.481341513885354 -16.582797701368179 6.7490205421729144 #
point $-1 -49.580370494705036 -23.341624892808518 1.3995183956987116 #
straight-curve $-1 -49.580370494705036 0 6.7490205421729144 0 -1 0 I I #
vertex $-1 $290 $392 #
point $-1 -43.354962401593561 -19.962211297088345 2.1848789108329942 #
coedge $-1 $305 $304 $297 $366 forward $294 $-1 #
edge $-1 $367 64.09350402339048 $370 69.370581779374376 $365 $393 forward 7 unknown #
vertex $-1 $309 $394 #
straight-curve $-1 26.013900516615635 22.141650806990015 6.7490205421729144 1 0 0 I I #
edge $-1 $370 9.2565833292426269 $306 16.513551626252148 $305 $395 forward 7 unknown #
vertex $-1 $369 $396 #
straight-curve $-1 -19.302467408500732 22.141650806990015 72.802211227921021 -0.69465836192734942 0 0.71933980857756763 I I #
point $-1 44.484355862922371 22.141650806990015 6.7490205421729144 #
point $-1 49.580370494705036 29.398619103999536 1.4719427861890182 #
straight-curve $-1 49.580370494705036 0 6.7490205421729144 0 1 0 I I #
vertex $-1 $312 $397 #
point $-1 46.444278389209849 24.215070320421304 2.8474930101578746 #
vertex $-1 $316 $398 #
point $-1 46.444278389209849 27.325199590568239 2.8474930101578746 #
straight-curve $-1 -49.580370494705036 33.731205458333442 0 0 0 -1 I I #
point $-1 -49.580370494705036 -33.731205458333442 -6.7490205421729144 #
straight-curve $-1 -49.580370494705036 0 -6.7490205421729144 0 1 0 I I #
point $-1 -49.580370494705036 33.731205458333442 -6.7490205421729144 #
straight-curve $-1 -49.580370494705036 -15.102321989438749 -0.29775691491416012 0 -1 0 I I #
point $-1 -49.580370494705036 -33.731205458333442 -0.29775691491416012 #
point $-1 -49.580370494705036 -26.678082499421556 -0.29775691491416012 #
straight-curve $-1 -49.580370494705036 -26.678082499421556 0.60112154254291994 0 0 -1 I I #
straight-curve $-1 -49.580370494705036 -33.731205458333442 0 0 0 -1 I I #
straight-curve $-1 -49.580370494705036 -16.582797701368179 40.296403391569022 0 0 -1 I I #
point $-1 -49.580370494705036 -16.582797701368179 6.7490205421729144 #
straight-curve $-1 -49.580370494705036 -9.9811056485441743 1.3995183956987105 0 -1 0 I I #
point $-1 -49.580370494705036 -16.582797701368179 1.3995183956987116 #
point $-1 -43.55178287512868 -19.962211297088345 0.78442837575601032 #
straight-curve $-1 49.580370494705036 22.141650806990015 70.842524565563394 0 0 -1 I I #
point $-1 49.580370494705036 22.141650806990015 6.7490205421729144 #
straight-curve $-1 49.580370494705036 12.885067477747388 1.4719427861890253 0 1 0 I I #
point $-1 49.580370494705036 22.141650806990015 1.4719427861890182 #
point $-1 45.737279303957393 24.215070320421304 2.8598337334829838 #
point $-1 45.737279303957393 27.325199590568239 2.8598337334829838 #
End-of-ACIS-data 