500 0 8 0           
7 Unknown 11 ACIS 5.0 NT 24 Fri Mar 26 18:38:37 1999 
-1 9.9999999999999995e-007 1e-010 
body $-1 $8 $-1 $9 #
body $-1 $10 $-1 $11 #
body $-1 $12 $-1 $13 #
body $-1 $14 $-1 $15 #
body $-1 $16 $-1 $17 #
body $-1 $18 $-1 $19 #
body $-1 $20 $-1 $21 #
body $-1 $22 $-1 $23 #
lump $-1 $-1 $24 $0 #
transform $-1 1 0 0 0 1 0 0 0 1 47.815179906613359 19.258717607761199 6.8586002191304587 1 rotate no_reflect no_shear #
lump $-1 $-1 $25 $1 #
transform $-1 1 0 0 0 1 0 0 0 1 47.815179906613359 19.258717607761199 6.8586002191304587 1 rotate no_reflect no_shear #
lump $-1 $-1 $26 $2 #
transform $-1 1 0 0 0 1 0 0 0 1 47.815179906613359 19.258717607761199 6.8586002191304587 1 rotate no_reflect no_shear #
lump $-1 $-1 $27 $3 #
transform $-1 1 0 0 0 1 0 0 0 1 47.815179906613359 19.258717607761199 6.8586002191304587 1 rotate no_reflect no_shear #
lump $-1 $-1 $28 $4 #
transform $-1 1 0 0 0 1 0 0 0 1 47.815179906613359 19.258717607761199 6.8586002191304587 1 rotate no_reflect no_shear #
lump $-1 $-1 $29 $5 #
transform $-1 1 0 0 0 1 0 0 0 1 47.815179906613359 19.258717607761199 6.8586002191304587 1 rotate no_reflect no_shear #
lump $-1 $-1 $30 $6 #
transform $-1 1 0 0 0 1 0 0 0 1 47.815179906613359 19.258717607761199 6.8586002191304587 1 rotate no_reflect no_shear #
lump $-1 $-1 $31 $7 #
transform $-1 1 0 0 0 1 0 0 0 1 47.815179906613359 19.258717607761199 6.8586002191304587 1 rotate no_reflect no_shear #
shell $-1 $-1 $-1 $32 $-1 $8 #
shell $-1 $-1 $-1 $33 $-1 $10 #
shell $-1 $-1 $-1 $34 $-1 $12 #
shell $-1 $-1 $-1 $35 $-1 $14 #
shell $-1 $-1 $-1 $36 $-1 $16 #
shell $-1 $-1 $-1 $37 $-1 $18 #
shell $-1 $-1 $-1 $38 $-1 $20 #
shell $-1 $-1 $-1 $39 $-1 $22 #
face $-1 $40 $41 $24 $-1 $42 reversed single #
face $-1 $43 $44 $25 $-1 $45 reversed single #
face $-1 $46 $47 $26 $-1 $48 forward single #
face $-1 $49 $50 $27 $-1 $51 reversed single #
face $-1 $52 $53 $28 $-1 $54 forward single #
face $-1 $55 $56 $29 $-1 $57 forward single #
face $-1 $58 $59 $30 $-1 $60 reversed single #
face $-1 $61 $62 $31 $-1 $63 forward single #
face $-1 $64 $65 $24 $-1 $66 forward single #
loop $-1 $-1 $67 $32 #
plane-surface $-1 47.815179906613359 0 0 -1 0 0 0 0 1 forward_v I I I I #
face $-1 $68 $69 $25 $-1 $70 reversed single #
loop $-1 $-1 $71 $33 #
plane-surface $-1 -43.523285283267569 -15.399004594036358 0 0 -1 0 0 0 -1 forward_v I I I I #
face $-1 $72 $73 $26 $-1 $74 reversed single #
loop $-1 $-1 $75 $34 #
plane-surface $-1 47.815179906613359 0 0 -1 0 0 0 0 1 forward_v I I I I #
face $-1 $76 $77 $27 $-1 $78 reversed single #
loop $-1 $-1 $79 $35 #
plane-surface $-1 12.77290909332611 59.643654984775011 97.225649636888363 1 0 0 0 -0.70710678939079041 -0.70710677298230451 forward_v I I I I #
face $-1 $80 $81 $28 $-1 $82 forward single #
loop $-1 $83 $84 $36 #
cone-surface $-1 17.247068784000938 16.170278679068527 3.7701612579198462 0 -0.70710678939079041 -0.70710677298230451 1.5 0 0 1 I I 0 1 1.5 forward I I I I #
face $-1 $85 $86 $29 $-1 $87 forward single #
loop $-1 $88 $89 $37 #
cone-surface $-1 23.958308320013181 16.170278679068527 3.7701612579198462 0 -0.70710678939079041 -0.70710677298230451 1.5 0 0 1 I I 0 1 1.5 forward I I I I #
face $-1 $90 $91 $30 $-1 $92 reversed single #
loop $-1 $-1 $93 $38 #
plane-surface $-1 -7.3165351965690917 -102.89891563042579 46.968150244355442 -1 0 0 0 -0.87461971476443456 0.48480960649040278 forward_v I I I I #
face $-1 $94 $95 $31 $-1 $96 forward single #
loop $-1 $97 $98 $39 #
cone-surface $-1 -18.777848393873697 -17.088369688012055 3.4897118737047128 0 0.87461971476443456 -0.48480960649040278 0.5 0 0 1 I I 0 1 0.5 forward I I I I #
face $-1 $99 $100 $24 $-1 $101 reversed single #
loop $-1 $-1 $102 $40 #
plane-surface $-1 0 0 6.8586002191304587 0 0 1 1 0 0 forward_v I I I I #
coedge $-1 $103 $104 $105 $106 reversed $41 $-1 #
face $-1 $107 $108 $25 $-1 $109 forward single #
loop $-1 $-1 $110 $43 #
plane-surface $-1 -39.231390659921779 -17.328861100898777 0 -1 0 0 0 0 1 forward_v I I I I #
coedge $-1 $111 $112 $113 $114 forward $44 $-1 #
face $-1 $115 $116 $26 $-1 $117 reversed single #
loop $-1 $-1 $118 $46 #
plane-surface $-1 0 -19.258717607761199 0 0 1 0 0 0 1 forward_v I I I I #
coedge $-1 $119 $120 $121 $122 forward $47 $-1 #
face $-1 $123 $124 $27 $-1 $125 reversed single #
loop $-1 $-1 $126 $49 #
plane-surface $-1 20.602688552007059 -7.9772217110418069 29.604774510220963 0 0.70710678939079041 0.70710677298230451 1 0 0 forward_v I I I I #
coedge $-1 $127 $128 $129 $130 reversed $50 $-1 #
face $-1 $-1 $131 $28 $-1 $132 forward single #
loop $-1 $133 $134 $52 #
cone-surface $-1 17.247068784000938 14.796392436102678 2.3962750468351679 0 -0.70710678939079041 -0.70710677298230451 0.75 0 0 1 I I -0.70710678118654757 0.70710678118654757 0.75 forward I I I I #
loop $-1 $-1 $135 $36 #
coedge $-1 $84 $84 $136 $137 reversed $53 $-1 #
face $-1 $-1 $138 $29 $-1 $139 forward single #
loop $-1 $140 $141 $55 #
cone-surface $-1 23.958308320013181 14.796392436102678 2.3962750468351679 0 -0.70710678939079041 -0.70710677298230451 0.75 0 0 1 I I -0.70710678118654757 0.70710678118654757 0.75 forward I I I I #
loop $-1 $-1 $142 $37 #
coedge $-1 $89 $89 $143 $144 reversed $56 $-1 #
face $-1 $145 $146 $30 $-1 $147 reversed single #
loop $-1 $-1 $148 $58 #
plane-surface $-1 -18.777848393873697 -19.258717607761199 0.60563313476936997 0 -0.87461971476443456 0.48480960649040278 1 0 0 forward_v I I I I #
coedge $-1 $149 $150 $151 $152 reversed $59 $-1 #
face $-1 $-1 $153 $31 $-1 $154 forward single #
loop $-1 $155 $156 $61 #
cone-surface $-1 -18.777848393873697 -16.432404901938728 3.126104668836911 0 0.87461971476443456 -0.48480960649040278 0.25 0 0 1 I I -0.70710678118654746 0.70710678118654746 0.25 forward I I I I #
loop $-1 $-1 $157 $39 #
coedge $-1 $98 $98 $158 $159 reversed $62 $-1 #
face $-1 $160 $161 $24 $-1 $162 reversed single #
loop $-1 $-1 $105 $64 #
plane-surface $-1 0 0 -6.8586002191304587 0 0 1 1 0 0 forward_v I I I I #
coedge $-1 $163 $164 $165 $166 forward $65 $-1 #
coedge $-1 $165 $67 $167 $168 reversed $41 $-1 #
coedge $-1 $67 $165 $169 $170 forward $41 $-1 #
coedge $-1 $171 $172 $67 $106 forward $100 $-1 #
edge $-1 $173 -19.258717607761199 $174 19.258717607761199 $67 $175 forward 7 unknown #
face $-1 $176 $177 $25 $-1 $178 reversed single #
loop $-1 $-1 $179 $68 #
plane-surface $-1 0 0 6.8586002191304587 0 0 1 1 0 0 forward_v I I I I #
coedge $-1 $180 $181 $182 $183 reversed $69 $-1 #
coedge $-1 $184 $71 $185 $186 reversed $44 $-1 #
coedge $-1 $71 $184 $187 $188 reversed $44 $-1 #
coedge $-1 $181 $180 $71 $114 reversed $69 $-1 #
edge $-1 $189 -6.8586002191304587 $190 6.8586002191304587 $113 $191 forward 7 unknown #
face $-1 $192 $193 $26 $-1 $194 reversed single #
loop $-1 $-1 $195 $72 #
plane-surface $-1 0 0 -6.8586002191304587 0 0 1 1 0 0 forward_v I I I I #
coedge $-1 $196 $197 $198 $199 forward $73 $-1 #
coedge $-1 $198 $75 $195 $200 reversed $47 $-1 #
coedge $-1 $75 $198 $201 $202 reversed $47 $-1 #
coedge $-1 $203 $204 $75 $122 reversed $193 $-1 #
edge $-1 $205 -6.8586002191304587 $206 6.8586002191304587 $121 $207 forward 7 unknown #
face $-1 $208 $209 $27 $-1 $210 reversed single #
loop $-1 $-1 $211 $76 #
plane-surface $-1 28.432468010688009 59.643654984775011 97.225649636888363 -1 0 0 0 0.70710678939079041 0.70710677298230451 forward_v I I I I #
coedge $-1 $212 $213 $214 $215 reversed $77 $-1 #
coedge $-1 $128 $79 $216 $217 reversed $50 $-1 #
coedge $-1 $79 $127 $212 $218 reversed $50 $-1 #
coedge $-1 $214 $219 $79 $130 forward $220 $-1 #
edge $-1 $221 10.563109884626307 $222 15.052875440166126 $129 $223 forward 7 unknown #
loop $-1 $-1 $136 $80 #
plane-surface $-1 20.602688552007059 -7.9772217110418069 29.604774510220963 0 0.70710678939079041 0.70710677298230451 1 0 0 forward_v I I I I #
loop $-1 $-1 $224 $52 #
coedge $-1 $134 $134 $135 $225 reversed $81 $-1 #
coedge $-1 $135 $135 $134 $225 forward $83 $-1 #
coedge $-1 $136 $136 $84 $137 forward $131 $-1 #
edge $-1 $226 4.1869144376286518e-016 $226 6.2831853071796004 $136 $227 forward 7 unknown #
loop $-1 $-1 $143 $85 #
plane-surface $-1 20.602688552007059 -7.9772217110418069 29.604774510220963 0 0.70710678939079041 0.70710677298230451 1 0 0 forward_v I I I I #
loop $-1 $-1 $228 $55 #
coedge $-1 $141 $141 $142 $229 reversed $86 $-1 #
coedge $-1 $142 $142 $141 $229 forward $88 $-1 #
coedge $-1 $143 $143 $89 $144 forward $138 $-1 #
edge $-1 $230 4.1869144376286518e-016 $230 6.2831853071796004 $143 $231 forward 7 unknown #
face $-1 $232 $233 $30 $-1 $234 forward single #
loop $-1 $-1 $235 $90 #
plane-surface $-1 -30.239161591178302 -102.89891563042579 46.968150244355442 1 0 0 0 0.87461971476443456 -0.48480960649040278 forward_v I I I I #
coedge $-1 $236 $237 $238 $239 reversed $91 $-1 #
coedge $-1 $150 $93 $240 $241 reversed $59 $-1 #
coedge $-1 $93 $149 $236 $242 reversed $59 $-1 #
coedge $-1 $238 $243 $93 $152 forward $233 $-1 #
edge $-1 $244 32.190740207451697 $245 35.656816332185549 $151 $246 forward 7 unknown #
loop $-1 $-1 $158 $94 #
plane-surface $-1 -18.777848393873697 -19.258717607761199 0.60563313476936997 0 -0.87461971476443456 0.48480960649040278 1 0 0 forward_v I I I I #
loop $-1 $-1 $247 $61 #
coedge $-1 $156 $156 $157 $248 reversed $95 $-1 #
coedge $-1 $157 $157 $156 $248 forward $97 $-1 #
coedge $-1 $158 $158 $98 $159 forward $153 $-1 #
edge $-1 $249 7.7681835609804978e-016 $249 6.2831853071796013 $158 $250 forward 7 unknown #
face $-1 $251 $252 $24 $-1 $253 reversed single #
loop $-1 $-1 $254 $99 #
plane-surface $-1 0 -19.258717607761199 0 0 1 0 0 0 1 forward_v I I I I #
coedge $-1 $255 $102 $256 $257 forward $65 $-1 #
coedge $-1 $102 $255 $258 $259 forward $65 $-1 #
coedge $-1 $104 $103 $102 $166 reversed $41 $-1 #
edge $-1 $260 -19.258717607761199 $261 19.258717607761199 $165 $262 forward 7 unknown #
coedge $-1 $263 $256 $103 $168 forward $264 $-1 #
edge $-1 $261 -6.8586002191304587 $173 6.8586002191304587 $103 $265 forward 7 unknown #
coedge $-1 $258 $266 $104 $170 reversed $161 $-1 #
edge $-1 $260 -6.8586002191304587 $174 6.8586002191304587 $104 $267 forward 7 unknown #
coedge $-1 $268 $105 $266 $269 forward $100 $-1 #
coedge $-1 $105 $268 $263 $270 forward $100 $-1 #
vertex $-1 $106 $271 #
vertex $-1 $170 $272 #
straight-curve $-1 47.815179906613359 0 -6.8586002191304587 0 -1 0 I I #
face $-1 $273 $274 $25 $-1 $275 reversed single #
loop $-1 $-1 $276 $107 #
plane-surface $-1 -47.815179906613359 0 0 1 0 0 0 0 -1 forward_v I I I I #
coedge $-1 $187 $277 $181 $278 forward $108 $-1 #
coedge $-1 $113 $110 $279 $280 reversed $69 $-1 #
coedge $-1 $110 $113 $179 $278 reversed $69 $-1 #
coedge $-1 $281 $282 $110 $183 forward $283 $-1 #
edge $-1 $284 -6.8586002191304587 $285 6.8586002191304587 $182 $286 forward 7 unknown #
coedge $-1 $112 $111 $276 $287 reversed $44 $-1 #
coedge $-1 $279 $288 $111 $186 forward $274 $-1 #
edge $-1 $289 -26.053537264979575 $190 -17.469748018287994 $185 $290 forward 7 unknown #
coedge $-1 $291 $179 $112 $188 forward $108 $-1 #
edge $-1 $189 17.469748018287994 $292 26.053537264979575 $187 $293 forward 7 unknown #
vertex $-1 $188 $294 #
vertex $-1 $186 $295 #
straight-curve $-1 -39.231390659921779 -15.399004594036358 0 0 0 -1 I I #
face $-1 $296 $297 $26 $-1 $298 reversed single #
loop $-1 $-1 $299 $115 #
plane-surface $-1 51.870980608295092 -16.258717607761199 0 0 -1 0 0 0 -1 forward_v I I I I #
coedge $-1 $300 $301 $119 $200 forward $116 $-1 #
coedge $-1 $302 $118 $301 $303 reversed $73 $-1 #
coedge $-1 $118 $302 $304 $305 reversed $73 $-1 #
coedge $-1 $120 $119 $118 $199 reversed $47 $-1 #
edge $-1 $306 -6.8586002191304587 $307 6.8586002191304587 $118 $308 forward 7 unknown #
edge $-1 $307 -19.258717607761199 $206 -16.258717607761199 $195 $309 forward 7 unknown #
coedge $-1 $304 $310 $120 $202 forward $311 $-1 #
edge $-1 $205 16.258717607761199 $306 19.258717607761199 $201 $312 forward 7 unknown #
coedge $-1 $299 $121 $310 $313 reversed $193 $-1 #
coedge $-1 $121 $299 $300 $314 reversed $193 $-1 #
vertex $-1 $202 $315 #
vertex $-1 $314 $316 #
straight-curve $-1 47.815179906613359 -16.258717607761199 0 0 0 -1 I I #
face $-1 $-1 $220 $27 $-1 $317 forward single #
loop $-1 $-1 $318 $123 #
plane-surface $-1 0 19.258717607761199 0 0 -1 0 0 0 -1 forward_v I I I I #
coedge $-1 $319 $320 $321 $322 reversed $124 $-1 #
coedge $-1 $323 $126 $128 $218 forward $77 $-1 #
coedge $-1 $126 $323 $319 $324 forward $77 $-1 #
coedge $-1 $321 $129 $126 $215 forward $220 $-1 #
edge $-1 $222 2.4715648173225802 $325 18.131123734684479 $214 $326 forward 7 unknown #
coedge $-1 $327 $328 $127 $217 forward $209 $-1 #
edge $-1 $329 -46.243990259039016 $221 -41.754224599313723 $216 $330 forward 7 unknown #
edge $-1 $222 32.167947801332154 $329 38.51743521552239 $128 $331 forward 7 unknown #
coedge $-1 $129 $321 $327 $332 forward $220 $-1 #
loop $-1 $-1 $321 $208 #
vertex $-1 $217 $333 #
vertex $-1 $130 $334 #
straight-curve $-1 12.77290909332611 29.821827492387506 6.8586002191304587 0 -1 0 I I #
coedge $-1 $224 $224 $-1 $335 reversed $133 $-1 #
edge $-1 $336 0 $336 6.2831853071796004 $134 $337 forward 7 unknown #
vertex $-1 $137 $338 #
ellipse-curve $-1 17.247068784000938 17.013834829991296 4.6137173892678076 0 0.70710678939079041 0.70710677298230451 1.5 0 0 1 I I #
coedge $-1 $228 $228 $-1 $339 reversed $140 $-1 #
edge $-1 $340 0 $340 6.2831853071796004 $141 $341 forward 7 unknown #
vertex $-1 $144 $342 #
ellipse-curve $-1 23.958308320013181 17.013834829991296 4.6137173892678076 0 0.70710678939079041 0.70710677298230451 1.5 0 0 1 I I #
face $-1 $-1 $343 $30 $-1 $344 reversed single #
loop $-1 $-1 $151 $145 #
plane-surface $-1 0 0 6.8586002191304587 0 0 1 1 0 0 forward_v I I I I #
coedge $-1 $345 $346 $347 $348 reversed $146 $-1 #
coedge $-1 $349 $148 $150 $242 forward $91 $-1 #
coedge $-1 $148 $349 $345 $350 forward $91 $-1 #
coedge $-1 $347 $151 $148 $239 forward $233 $-1 #
edge $-1 $245 -2.0723890003677568 $351 20.850237394241454 $238 $352 forward 7 unknown #
coedge $-1 $353 $354 $149 $241 forward $343 $-1 #
edge $-1 $355 -22.878441987408351 $244 -16.625474903047262 $240 $356 forward 7 unknown #
edge $-1 $245 -7.1493552898532942 $355 0 $150 $357 forward 7 unknown #
coedge $-1 $151 $347 $353 $358 forward $233 $-1 #
vertex $-1 $152 $359 #
vertex $-1 $152 $360 #
straight-curve $-1 -7.3165351965690917 -51.449457815212895 6.8586002191304587 0 1 0 I I #
coedge $-1 $247 $247 $-1 $361 reversed $155 $-1 #
edge $-1 $362 0 $362 6.2831853071796004 $156 $363 forward 7 unknown #
vertex $-1 $159 $364 #
ellipse-curve $-1 -18.777848393873697 -17.525679545394272 3.7321166769499139 0 -0.87461971476443456 0.48480960649040278 0.5 0 0 1 I I #
face $-1 $-1 $264 $24 $-1 $365 reversed single #
loop $-1 $-1 $366 $160 #
plane-surface $-1 -47.815179906613359 0 0 1 0 0 0 0 -1 forward_v I I I I #
coedge $-1 $266 $258 $367 $368 forward $161 $-1 #
coedge $-1 $164 $163 $369 $370 forward $65 $-1 #
coedge $-1 $167 $371 $163 $257 reversed $264 $-1 #
edge $-1 $261 -47.815179906613359 $372 47.815179906613359 $256 $373 forward 7 unknown #
coedge $-1 $254 $169 $164 $259 reversed $161 $-1 #
edge $-1 $374 -47.815179906613359 $260 47.815179906613359 $258 $375 forward 7 unknown #
vertex $-1 $166 $376 #
vertex $-1 $166 $377 #
straight-curve $-1 47.815179906613359 0 6.8586002191304587 0 1 0 I I #
coedge $-1 $371 $167 $172 $270 reversed $264 $-1 #
loop $-1 $-1 $167 $251 #
straight-curve $-1 47.815179906613359 19.258717607761199 0 0 0 -1 I I #
coedge $-1 $169 $254 $171 $269 reversed $161 $-1 #
straight-curve $-1 47.815179906613359 -19.258717607761199 0 0 0 -1 I I #
coedge $-1 $172 $171 $378 $379 forward $100 $-1 #
edge $-1 $174 -47.815179906613359 $380 47.815179906613359 $266 $381 forward 7 unknown #
edge $-1 $382 -47.815179906613359 $173 47.815179906613359 $263 $383 forward 7 unknown #
point $-1 47.815179906613359 19.258717607761199 -6.8586002191304587 #
point $-1 47.815179906613359 -19.258717607761199 -6.8586002191304587 #
face $-1 $-1 $283 $25 $-1 $384 reversed single #
loop $-1 $-1 $279 $176 #
plane-surface $-1 0 0 -6.8586002191304587 0 0 1 1 0 0 forward_v I I I I #
coedge $-1 $385 $386 $184 $287 forward $177 $-1 #
coedge $-1 $179 $291 $281 $387 forward $108 $-1 #
edge $-1 $285 -10.59428705731181 $189 -6.734574043586969 $179 $388 forward 7 unknown #
coedge $-1 $389 $185 $180 $280 forward $274 $-1 #
edge $-1 $190 6.734574043586969 $284 10.59428705731181 $279 $390 forward 7 unknown #
coedge $-1 $391 $182 $277 $387 reversed $283 $-1 #
coedge $-1 $182 $391 $389 $392 reversed $283 $-1 #
loop $-1 $-1 $182 $273 #
vertex $-1 $392 $393 #
vertex $-1 $183 $394 #
straight-curve $-1 -39.231390659921779 -19.258717607761199 0 0 0 1 I I #
edge $-1 $292 -6.8586002191304587 $289 6.8586002191304587 $276 $395 forward 7 unknown #
coedge $-1 $185 $389 $385 $396 forward $274 $-1 #
vertex $-1 $186 $397 #
straight-curve $-1 -21.761642641633784 -15.399004594036358 -6.8586002191304587 1 0 0 I I #
coedge $-1 $277 $187 $386 $398 forward $108 $-1 #
vertex $-1 $398 $399 #
straight-curve $-1 -21.761642641633784 -15.399004594036358 6.8586002191304587 -1 0 0 I I #
point $-1 -39.231390659921779 -15.399004594036358 6.8586002191304587 #
point $-1 -39.231390659921779 -15.399004594036358 -6.8586002191304587 #
face $-1 $-1 $311 $26 $-1 $400 forward single #
loop $-1 $-1 $401 $192 #
plane-surface $-1 55.926781309976825 -17.758717607761199 0 -1 0 0 0 0 1 forward_v I I I I #
coedge $-1 $204 $203 $402 $403 forward $193 $-1 #
coedge $-1 $404 $195 $204 $314 forward $116 $-1 #
coedge $-1 $195 $404 $196 $303 forward $116 $-1 #
coedge $-1 $197 $196 $401 $405 reversed $73 $-1 #
edge $-1 $406 -4.0558007016817328 $307 4.0558007016817328 $196 $407 forward 7 unknown #
coedge $-1 $408 $201 $197 $305 forward $311 $-1 #
edge $-1 $306 -4.0558007016817328 $409 4.0558007016817328 $197 $410 forward 7 unknown #
vertex $-1 $305 $411 #
vertex $-1 $200 $412 #
straight-curve $-1 47.815179906613359 -19.258717607761199 0 0 0 -1 I I #
straight-curve $-1 47.815179906613359 0 -6.8586002191304587 0 1 0 I I #
coedge $-1 $201 $408 $203 $313 forward $311 $-1 #
loop $-1 $-1 $201 $296 #
straight-curve $-1 47.815179906613359 0 6.8586002191304587 0 -1 0 I I #
edge $-1 $413 -4.0558007016817328 $205 4.0558007016817328 $203 $414 forward 7 unknown #
edge $-1 $206 -4.0558007016817328 $415 4.0558007016817328 $204 $416 forward 7 unknown #
point $-1 47.815179906613359 -16.258717607761199 6.8586002191304587 #
point $-1 47.815179906613359 -16.258717607761199 -6.8586002191304587 #
plane-surface $-1 0 0 6.8586002191304587 0 0 1 1 0 0 forward_v I I I I #
coedge $-1 $328 $327 $320 $417 forward $209 $-1 #
coedge $-1 $320 $211 $213 $324 reversed $124 $-1 #
coedge $-1 $211 $319 $318 $417 reversed $124 $-1 #
coedge $-1 $219 $214 $211 $322 forward $220 $-1 #
edge $-1 $325 -15.052875440166126 $418 -10.563109884626307 $321 $419 forward 7 unknown #
coedge $-1 $213 $212 $328 $420 reversed $77 $-1 #
edge $-1 $421 -38.51743521552239 $325 -32.167947801332154 $319 $422 forward 7 unknown #
vertex $-1 $215 $423 #
straight-curve $-1 10.30134427600353 14.768952052221382 6.8586002191304569 1 0 0 I I #
coedge $-1 $318 $216 $219 $332 reversed $209 $-1 #
coedge $-1 $216 $318 $323 $420 forward $209 $-1 #
vertex $-1 $217 $424 #
straight-curve $-1 12.77290909332611 19.258717607761199 48.612824818444182 0 0 1 I I #
straight-curve $-1 12.77290909332611 -7.9772217110418069 29.604774510220963 0 0.70710677298230451 -0.70710678939079041 I I #
edge $-1 $418 -28.432468010688009 $221 -12.77290909332611 $327 $425 forward 7 unknown #
point $-1 12.77290909332611 19.258717607761199 6.8586002191304587 #
point $-1 12.77290909332611 14.76895205222138 6.8586002191304587 #
edge $-1 $426 1 $426 0 $224 $-1 forward 7 unknown #
vertex $-1 $225 $427 #
ellipse-curve $-1 17.247068784000938 15.326722528145771 2.9266051265718964 0 0.70710678939079041 0.70710677298230451 1.5 0 0 1 I I #
point $-1 18.747068784000938 17.013834829991286 4.6137173892677961 #
edge $-1 $428 1 $428 0 $228 $-1 forward 7 unknown #
vertex $-1 $229 $429 #
ellipse-curve $-1 23.958308320013181 15.326722528145771 2.9266051265718964 0 0.70710678939079041 0.70710677298230451 1.5 0 0 1 I I #
point $-1 25.458308320013181 17.013834829991286 4.6137173892677961 #
loop $-1 $-1 $240 $232 #
plane-surface $-1 0 -19.258717607761199 0 0 1 0 0 0 1 forward_v I I I I #
coedge $-1 $346 $235 $237 $350 reversed $146 $-1 #
coedge $-1 $235 $345 $430 $431 reversed $146 $-1 #
coedge $-1 $243 $238 $235 $348 forward $233 $-1 #
edge $-1 $351 -35.656816332185549 $432 -32.190740207451697 $347 $433 forward 7 unknown #
coedge $-1 $237 $236 $354 $434 reversed $91 $-1 #
edge $-1 $435 0 $351 7.1493552898532942 $345 $436 forward 7 unknown #
vertex $-1 $239 $437 #
straight-curve $-1 -9.3889241969368484 -15.792641483027342 6.8586002191304587 -1 0 0 I I #
coedge $-1 $430 $240 $243 $358 reversed $343 $-1 #
coedge $-1 $240 $430 $349 $434 forward $343 $-1 #
vertex $-1 $241 $438 #
straight-curve $-1 -7.3165351965690917 -19.258717607761199 23.484075122177721 0 0 1 I I #
straight-curve $-1 -7.3165351965690917 -19.258717607761199 0.60563313476936997 0 -0.48480960649040278 -0.87461971476443456 I I #
edge $-1 $432 -82.110142199473387 $244 -59.187515804864184 $353 $439 forward 7 unknown #
point $-1 -7.3165351965690917 -19.258717607761199 6.8586002191304587 #
point $-1 -7.3165351965690917 -15.792641483027344 6.8586002191304587 #
edge $-1 $440 1 $440 0 $247 $-1 forward 7 unknown #
vertex $-1 $248 $441 #
ellipse-curve $-1 -18.777848393873697 -16.651059830629837 3.2473070704595117 0 -0.87461971476443456 0.48480960649040278 0.5 0 0 1 I I #
point $-1 -18.277848393873697 -17.525679545394272 3.7321166769499143 #
plane-surface $-1 0 19.258717607761199 0 0 -1 0 0 0 -1 forward_v I I I I #
coedge $-1 $378 $369 $371 $442 forward $252 $-1 #
coedge $-1 $369 $378 $254 $368 reversed $252 $-1 #
edge $-1 $374 -6.8586002191304587 $380 6.8586002191304587 $367 $443 forward 7 unknown #
coedge $-1 $366 $367 $255 $370 reversed $252 $-1 #
edge $-1 $372 -19.258717607761199 $374 19.258717607761199 $369 $444 forward 7 unknown #
coedge $-1 $256 $263 $366 $442 reversed $264 $-1 #
vertex $-1 $257 $445 #
straight-curve $-1 0 19.258717607761199 6.8586002191304587 -1 0 0 I I #
vertex $-1 $370 $446 #
straight-curve $-1 0 -19.258717607761199 6.8586002191304587 1 0 0 I I #
point $-1 47.815179906613359 -19.258717607761199 6.8586002191304587 #
point $-1 47.815179906613359 19.258717607761199 6.8586002191304587 #
coedge $-1 $367 $366 $268 $379 reversed $252 $-1 #
edge $-1 $380 -19.258717607761199 $382 19.258717607761199 $378 $447 forward 7 unknown #
vertex $-1 $379 $448 #
straight-curve $-1 0 -19.258717607761199 -6.8586002191304587 -1 0 0 I I #
vertex $-1 $270 $449 #
straight-curve $-1 0 19.258717607761199 -6.8586002191304587 1 0 0 I I #
plane-surface $-1 0 -19.258717607761199 0 0 1 0 0 0 1 forward_v I I I I #
coedge $-1 $450 $276 $288 $396 reversed $177 $-1 #
coedge $-1 $276 $450 $291 $398 reversed $177 $-1 #
edge $-1 $451 -47.815179906613359 $285 -39.231390659921779 $281 $452 forward 7 unknown #
straight-curve $-1 -39.231390659921779 -8.6644305504493886 6.8586002191304587 0 1 0 I I #
coedge $-1 $288 $279 $282 $392 forward $274 $-1 #
straight-curve $-1 -39.231390659921779 -8.6644305504493886 -6.8586002191304587 0 -1 0 I I #
coedge $-1 $282 $281 $450 $453 forward $283 $-1 #
edge $-1 $284 39.231390659921779 $454 47.815179906613359 $282 $455 forward 7 unknown #
point $-1 -39.231390659921779 -19.258717607761199 -6.8586002191304587 #
point $-1 -39.231390659921779 -19.258717607761199 6.8586002191304587 #
straight-curve $-1 -47.815179906613359 -15.399004594036358 0 0 0 -1 I I #
edge $-1 $454 -19.258717607761199 $289 -15.399004594036358 $385 $456 forward 7 unknown #
point $-1 -47.815179906613359 -15.399004594036358 -6.8586002191304587 #
edge $-1 $292 15.399004594036358 $451 19.258717607761199 $386 $457 forward 7 unknown #
point $-1 -47.815179906613359 -15.399004594036358 6.8586002191304587 #
plane-surface $-1 0 0 6.8586002191304587 0 0 1 1 0 0 forward_v I I I I #
coedge $-1 $458 $459 $302 $405 forward $297 $-1 #
coedge $-1 $459 $458 $299 $403 reversed $297 $-1 #
edge $-1 $413 -6.8586002191304587 $415 6.8586002191304587 $402 $460 forward 7 unknown #
coedge $-1 $301 $300 $458 $461 forward $116 $-1 #
edge $-1 $409 -6.8586002191304587 $406 6.8586002191304587 $401 $462 forward 7 unknown #
vertex $-1 $405 $463 #
straight-curve $-1 51.870980608295092 -19.258717607761199 -6.8586002191304587 -1 0 0 I I #
coedge $-1 $310 $304 $459 $464 forward $311 $-1 #
vertex $-1 $464 $465 #
straight-curve $-1 51.870980608295092 -19.258717607761199 6.8586002191304587 1 0 0 I I #
point $-1 47.815179906613359 -19.258717607761199 6.8586002191304587 #
point $-1 47.815179906613359 -19.258717607761199 -6.8586002191304587 #
vertex $-1 $464 $466 #
straight-curve $-1 51.870980608295092 -16.258717607761199 6.8586002191304587 -1 0 0 I I #
vertex $-1 $461 $467 #
straight-curve $-1 51.870980608295092 -16.258717607761199 -6.8586002191304587 1 0 0 I I #
edge $-1 $418 41.754224599313723 $421 46.243990259039016 $318 $468 forward 7 unknown #
vertex $-1 $332 $469 #
straight-curve $-1 28.432468010688009 29.821827492387506 6.8586002191304587 0 1 0 I I #
edge $-1 $421 -18.131123734684479 $329 -2.4715648173225802 $328 $470 forward 7 unknown #
vertex $-1 $420 $471 #
straight-curve $-1 28.432468010688009 -7.9772217110418069 29.604774510220963 0 -0.70710677298230451 0.70710678939079041 I I #
point $-1 28.432468010688009 14.76895205222138 6.8586002191304587 #
point $-1 12.77290909332611 19.258717607761199 2.3688345594051654 #
straight-curve $-1 0 19.258717607761199 6.8586002191304587 -1 0 0 I I #
vertex $-1 $335 $472 #
point $-1 18.747068784000938 15.326722528145771 2.9266051265718964 #
vertex $-1 $339 $473 #
point $-1 25.458308320013181 15.326722528145771 2.9266051265718964 #
coedge $-1 $354 $353 $346 $431 forward $343 $-1 #
edge $-1 $432 16.625474903047262 $435 22.878441987408351 $430 $474 forward 7 unknown #
vertex $-1 $358 $475 #
straight-curve $-1 -30.239161591178302 -51.449457815212895 6.8586002191304587 0 -1 0 I I #
edge $-1 $435 -20.850237394241454 $355 2.0723890003677568 $354 $476 forward 7 unknown #
vertex $-1 $434 $477 #
straight-curve $-1 -30.239161591178302 -19.258717607761199 0.60563313476936997 0 0.48480960649040278 0.87461971476443456 I I #
point $-1 -30.239161591178302 -15.792641483027344 6.8586002191304587 #
point $-1 -7.3165351965690917 -19.258717607761199 0.60563313476936997 #
straight-curve $-1 51.870980608295092 -19.258717607761199 6.8586002191304587 1 0 0 I I #
vertex $-1 $361 $478 #
point $-1 -18.277848393873697 -16.651059830629837 3.2473070704595117 #
edge $-1 $372 -6.8586002191304587 $382 6.8586002191304587 $371 $479 forward 7 unknown #
straight-curve $-1 -47.815179906613359 -19.258717607761199 0 0 0 -1 I I #
straight-curve $-1 -47.815179906613359 0 6.8586002191304587 0 -1 0 I I #
point $-1 -47.815179906613359 19.258717607761199 6.8586002191304587 #
point $-1 -47.815179906613359 -19.258717607761199 6.8586002191304587 #
straight-curve $-1 -47.815179906613359 0 -6.8586002191304587 0 1 0 I I #
point $-1 -47.815179906613359 -19.258717607761199 -6.8586002191304587 #
point $-1 -47.815179906613359 19.258717607761199 -6.8586002191304587 #
coedge $-1 $386 $385 $391 $453 reversed $177 $-1 #
vertex $-1 $398 $480 #
straight-curve $-1 0 -19.258717607761199 6.8586002191304587 1 0 0 I I #
edge $-1 $451 -6.8586002191304587 $454 6.8586002191304587 $450 $481 forward 7 unknown #
vertex $-1 $396 $482 #
straight-curve $-1 0 -19.258717607761199 -6.8586002191304587 -1 0 0 I I #
straight-curve $-1 -47.815179906613359 0 -6.8586002191304587 0 1 0 I I #
straight-curve $-1 -47.815179906613359 0 6.8586002191304587 0 -1 0 I I #
coedge $-1 $402 $401 $404 $461 reversed $297 $-1 #
coedge $-1 $401 $402 $408 $464 reversed $297 $-1 #
straight-curve $-1 55.926781309976825 -16.258717607761199 0 0 0 -1 I I #
edge $-1 $415 -1.5 $406 1.5 $458 $483 forward 7 unknown #
straight-curve $-1 55.926781309976825 -19.258717607761199 0 0 0 -1 I I #
point $-1 55.926781309976825 -19.258717607761199 -6.8586002191304587 #
edge $-1 $409 -1.5 $413 1.5 $459 $484 forward 7 unknown #
point $-1 55.926781309976825 -19.258717607761199 6.8586002191304587 #
point $-1 55.926781309976825 -16.258717607761199 6.8586002191304587 #
point $-1 55.926781309976825 -16.258717607761199 -6.8586002191304587 #
straight-curve $-1 28.432468010688009 19.258717607761199 48.612824818444182 0 0 -1 I I #
point $-1 28.432468010688009 19.258717607761199 6.8586002191304587 #
straight-curve $-1 10.30134427600353 19.258717607761199 2.3688345594051672 -1 0 0 I I #
point $-1 28.432468010688009 19.258717607761199 2.3688345594051654 #
point $-1 17.247068784000938 14.266062344059586 1.8659449670984394 #
point $-1 23.958308320013181 14.266062344059586 1.8659449670984394 #
straight-curve $-1 -30.239161591178302 -19.258717607761199 23.484075122177721 0 0 -1 I I #
point $-1 -30.239161591178295 -19.258717607761199 6.8586002191304587 #
straight-curve $-1 -9.3889241969368484 -19.258717607761199 0.60563313476936942 1 0 0 I I #
point $-1 -30.239161591178302 -19.258717607761199 0.60563313476936997 #
point $-1 -18.777848393873697 -16.213749973247619 3.0049022672143102 #
straight-curve $-1 -47.815179906613359 19.258717607761199 0 0 0 -1 I I #
point $-1 -47.815179906613359 -19.258717607761199 6.8586002191304587 #
straight-curve $-1 -47.815179906613359 -19.258717607761199 0 0 0 -1 I I #
point $-1 -47.815179906613359 -19.258717607761199 -6.8586002191304587 #
straight-curve $-1 55.926781309976825 -17.758717607761199 -6.8586002191304587 0 -1 0 I I #
straight-curve $-1 55.926781309976825 -17.758717607761199 6.8586002191304587 0 1 0 I I #
End-of-ACIS-data 