500 0 5 0           
7 Unknown 11 ACIS 5.0 NT 24 Fri Mar 26 18:06:56 1999 
-1 9.9999999999999995e-007 1e-010 
body $-1 $5 $-1 $6 #
body $-1 $7 $-1 $8 #
body $-1 $9 $-1 $10 #
body $-1 $11 $-1 $12 #
body $-1 $13 $-1 $14 #
lump $-1 $-1 $15 $0 #
transform $-1 1 0 0 0 1 0 0 0 1 50.558183538315987 24.685977790089765 11.43486555057715 1 rotate no_reflect no_shear #
lump $-1 $-1 $16 $1 #
transform $-1 1 0 0 0 1 0 0 0 1 50.558183538315987 24.685977790089765 11.43486555057715 1 rotate no_reflect no_shear #
lump $-1 $-1 $17 $2 #
transform $-1 1 0 0 0 1 0 0 0 1 50.558183538315987 24.685977790089765 11.43486555057715 1 rotate no_reflect no_shear #
lump $-1 $-1 $18 $3 #
transform $-1 1 0 0 0 1 0 0 0 1 50.558183538315987 24.685977790089765 11.43486555057715 1 rotate no_reflect no_shear #
lump $-1 $-1 $19 $4 #
transform $-1 1 0 0 0 1 0 0 0 1 50.558183538315987 24.685977790089765 11.43486555057715 1 rotate no_reflect no_shear #
shell $-1 $-1 $-1 $20 $-1 $5 #
shell $-1 $-1 $-1 $21 $-1 $7 #
shell $-1 $-1 $-1 $22 $-1 $9 #
shell $-1 $-1 $-1 $23 $-1 $11 #
shell $-1 $-1 $-1 $24 $-1 $13 #
face $-1 $25 $26 $15 $-1 $27 forward single #
face $-1 $28 $29 $16 $-1 $30 forward single #
face $-1 $31 $32 $17 $-1 $33 forward single #
face $-1 $34 $35 $18 $-1 $36 reversed single #
face $-1 $37 $38 $19 $-1 $39 reversed single #
face $-1 $40 $41 $15 $-1 $42 reversed single #
loop $-1 $-1 $43 $20 #
plane-surface $-1 0 0 11.43486555057715 0 0 1 1 0 0 forward_v I I I I #
face $-1 $44 $45 $16 $-1 $46 reversed single #
loop $-1 $-1 $47 $21 #
plane-surface $-1 0 -31.385628769099874 1.7646713558927125 0 0 1 1 0 0 forward_v I I I I #
face $-1 $48 $49 $17 $-1 $50 forward single #
loop $-1 $-1 $51 $22 #
plane-surface $-1 50.558185197482473 14.958350332848948 143.26836884192113 0 -1 0 -0.70710678939079041 0 -0.70710677298230451 forward_v I I I I #
face $-1 $52 $53 $18 $-1 $54 reversed single #
loop $-1 $55 $56 $23 #
cone-surface $-1 44.405379743460927 9.6108402678276335 5.2820616393756392 -0.70710678939079041 0 -0.70710677298230451 0.35355338649115226 0 -0.35355339469539521 1 I I 0 1 0.5 forward I I I I #
face $-1 $57 $58 $19 $-1 $59 reversed single #
loop $-1 $60 $61 $24 #
cone-surface $-1 44.405379743460927 12.819346306840423 5.2820616393756392 -0.70710678939079041 0 -0.70710677298230451 0.35355338649115226 0 -0.35355339469539521 1 I I 0 1 0.5 forward I I I I #
face $-1 $62 $63 $15 $-1 $64 reversed single #
loop $-1 $-1 $65 $25 #
plane-surface $-1 0 0 -11.43486555057715 0 0 1 1 0 0 forward_v I I I I #
coedge $-1 $66 $67 $68 $69 forward $26 $-1 #
face $-1 $70 $71 $16 $-1 $72 reversed single #
loop $-1 $-1 $73 $28 #
plane-surface $-1 0 -31.385628769099874 -2.2911865011560799 0 0 1 1 0 0 forward_v I I I I #
coedge $-1 $74 $75 $76 $77 forward $29 $-1 #
face $-1 $78 $79 $17 $-1 $80 forward single #
loop $-1 $-1 $81 $31 #
plane-surface $-1 -20.941884480935386 11.215093287334028 71.768300822669758 0.70710678939079041 0 0.70710677298230451 0.70710677298230451 0 -0.70710678939079041 forward_v I I I I #
coedge $-1 $82 $83 $84 $85 reversed $32 $-1 #
face $-1 $86 $87 $18 $-1 $88 forward single #
loop $-1 $89 $90 $34 #
cone-surface $-1 43.659116324859355 9.6108402678276335 4.5357982380911892 -0.70710678939079041 0 -0.70710677298230451 0.17677669324557613 0 -0.1767766973476976 1 I I -0.70710678118654746 0.70710678118654746 0.25 forward I I I I #
loop $-1 $-1 $91 $23 #
coedge $-1 $56 $56 $92 $93 reversed $35 $-1 #
face $-1 $94 $95 $19 $-1 $96 reversed single #
loop $-1 $97 $98 $37 #
cone-surface $-1 43.659116324859355 12.819346306840423 4.5357982380911892 -0.70710678939079041 0 -0.70710677298230451 0.17677669324557613 0 -0.1767766973476976 1 I I -0.70710678118654746 0.70710678118654746 0.25 forward I I I I #
loop $-1 $-1 $99 $24 #
coedge $-1 $61 $61 $100 $101 reversed $38 $-1 #
face $-1 $102 $103 $15 $-1 $104 reversed single #
loop $-1 $-1 $105 $40 #
plane-surface $-1 0 -24.685977790089765 0 0 1 0 0 0 1 forward_v I I I I #
coedge $-1 $106 $107 $108 $109 forward $41 $-1 #
coedge $-1 $110 $43 $111 $112 forward $26 $-1 #
coedge $-1 $43 $110 $113 $114 forward $26 $-1 #
coedge $-1 $115 $116 $43 $69 reversed $117 $-1 #
edge $-1 $118 -24.685977790089765 $119 24.685977790089765 $68 $120 forward 7 unknown #
face $-1 $121 $122 $16 $-1 $123 reversed single #
loop $-1 $-1 $124 $44 #
plane-surface $-1 0 -38.085279748109983 -0.2632575726316837 0 1 0 0 0 1 forward_v I I I I #
coedge $-1 $125 $126 $127 $128 forward $45 $-1 #
coedge $-1 $129 $47 $130 $131 reversed $29 $-1 #
coedge $-1 $47 $129 $132 $133 forward $29 $-1 #
coedge $-1 $134 $135 $47 $77 reversed $136 $-1 #
edge $-1 $137 -6.6996509790101086 $138 6.6996509790101086 $76 $139 forward 7 unknown #
face $-1 $140 $141 $17 $-1 $142 forward single #
loop $-1 $-1 $143 $48 #
plane-surface $-1 50.558185197482473 7.4718362418191084 143.26836884192113 0 1 0 0.70710678939079041 0 0.70710677298230451 forward_v I I I I #
coedge $-1 $144 $145 $146 $147 reversed $49 $-1 #
coedge $-1 $83 $51 $145 $148 forward $32 $-1 #
coedge $-1 $51 $82 $149 $150 reversed $32 $-1 #
coedge $-1 $151 $146 $51 $85 forward $141 $-1 #
edge $-1 $152 14.112456792372406 $153 25.279090939574751 $84 $154 forward 7 unknown #
face $-1 $155 $156 $18 $-1 $157 forward single #
loop $-1 $-1 $158 $52 #
plane-surface $-1 50.558185197482473 14.958350332848948 143.26836884192113 0 -1 0 -0.70710678939079041 0 -0.70710677298230451 forward_v I I I I #
loop $-1 $-1 $159 $34 #
coedge $-1 $90 $90 $91 $160 forward $53 $-1 #
coedge $-1 $91 $91 $90 $160 reversed $55 $-1 #
coedge $-1 $92 $92 $56 $93 forward $156 $-1 #
edge $-1 $161 0 $161 6.2831853071796004 $92 $162 forward 7 unknown #
face $-1 $163 $164 $19 $-1 $165 reversed single #
loop $-1 $166 $167 $57 #
cone-surface $-1 44.405379743460927 9.6108402678276335 5.2820616393756392 -0.70710678939079041 0 -0.70710677298230451 0.35355338649115226 0 -0.35355339469539521 1 I I 0 1 0.5 forward I I I I #
loop $-1 $-1 $168 $37 #
coedge $-1 $98 $98 $99 $169 forward $58 $-1 #
coedge $-1 $99 $99 $98 $169 reversed $60 $-1 #
coedge $-1 $100 $100 $61 $101 forward $170 $-1 #
edge $-1 $171 0 $171 6.2831853071796004 $100 $172 forward 7 unknown #
face $-1 $173 $174 $15 $-1 $175 reversed single #
loop $-1 $-1 $176 $62 #
plane-surface $-1 -50.558183538315987 0 0 1 0 0 0 0 -1 forward_v I I I I #
coedge $-1 $177 $113 $178 $179 forward $63 $-1 #
coedge $-1 $180 $65 $177 $181 forward $41 $-1 #
coedge $-1 $65 $180 $182 $183 forward $41 $-1 #
coedge $-1 $116 $115 $65 $109 reversed $117 $-1 #
edge $-1 $184 -24.685977790089765 $185 24.685977790089765 $108 $186 forward 7 unknown #
coedge $-1 $67 $66 $187 $188 forward $26 $-1 #
coedge $-1 $189 $190 $66 $112 reversed $174 $-1 #
edge $-1 $119 -50.558183538315987 $191 50.558183538315987 $111 $192 forward 7 unknown #
coedge $-1 $105 $193 $67 $114 reversed $63 $-1 #
edge $-1 $194 -50.558183538315987 $118 50.558183538315987 $113 $195 forward 7 unknown #
coedge $-1 $108 $68 $193 $196 forward $117 $-1 #
coedge $-1 $68 $108 $189 $197 reversed $117 $-1 #
loop $-1 $-1 $115 $173 #
vertex $-1 $69 $198 #
vertex $-1 $69 $199 #
straight-curve $-1 50.558183538315987 0 11.43486555057715 0 1 0 I I #
face $-1 $200 $201 $16 $-1 $123 reversed single #
loop $-1 $-1 $202 $70 #
plane-surface $-1 0 -24.685977790089765 0 0 1 0 0 0 1 forward_v I I I I #
coedge $-1 $203 $132 $204 $205 forward $71 $-1 #
coedge $-1 $206 $73 $203 $207 forward $45 $-1 #
coedge $-1 $73 $206 $202 $208 reversed $45 $-1 #
coedge $-1 $209 $134 $73 $128 reversed $136 $-1 #
edge $-1 $210 -6.6996509790101086 $211 6.6996509790101086 $127 $212 forward 7 unknown #
coedge $-1 $75 $74 $213 $214 forward $29 $-1 #
coedge $-1 $215 $216 $74 $131 forward $201 $-1 #
edge $-1 $217 -50.558183538315987 $138 50.558183538315987 $130 $218 forward 7 unknown #
coedge $-1 $124 $219 $75 $133 reversed $71 $-1 #
edge $-1 $220 -50.558183538315987 $137 50.558183538315987 $132 $221 forward 7 unknown #
coedge $-1 $127 $76 $219 $222 forward $136 $-1 #
coedge $-1 $76 $223 $215 $224 forward $136 $-1 #
loop $-1 $-1 $135 $225 #
vertex $-1 $77 $226 #
vertex $-1 $77 $227 #
straight-curve $-1 50.558183538315987 -31.385628769099874 1.7646713558927125 0 1 0 I I #
face $-1 $228 $229 $17 $-1 $230 forward single #
loop $-1 $-1 $231 $78 #
plane-surface $-1 0 0 11.43486555057715 0 0 1 1 0 0 forward_v I I I I #
coedge $-1 $232 $233 $231 $234 reversed $79 $-1 #
coedge $-1 $235 $81 $233 $236 reversed $49 $-1 #
coedge $-1 $81 $235 $82 $148 reversed $49 $-1 #
coedge $-1 $84 $231 $81 $147 forward $141 $-1 #
edge $-1 $237 1.8642895981520944 $152 9.3508036891819337 $146 $238 forward 7 unknown #
edge $-1 $152 85.324361436372342 $239 101.11636707663199 $82 $240 forward 7 unknown #
coedge $-1 $241 $242 $83 $150 forward $243 $-1 #
edge $-1 $153 60.199318870383415 $239 71.365953276708666 $149 $244 forward 7 unknown #
coedge $-1 $245 $84 $242 $246 forward $141 $-1 #
vertex $-1 $147 $247 #
vertex $-1 $246 $248 #
straight-curve $-1 25.279092598741236 14.958350332848948 11.434865550577157 1 0 0 I I #
face $-1 $249 $250 $18 $-1 $251 forward single #
loop $-1 $252 $92 $86 #
plane-surface $-1 -20.941884480935386 11.215093287334028 71.768300822669758 0.70710678939079041 0 0.70710677298230451 0.70710677298230451 0 -0.70710678939079041 forward_v I I I I #
coedge $-1 $253 $254 $255 $256 reversed $87 $-1 #
coedge $-1 $159 $159 $-1 $257 forward $89 $-1 #
edge $-1 $258 0 $258 6.2831853071796004 $90 $259 forward 7 unknown #
vertex $-1 $93 $260 #
ellipse-curve $-1 44.974866464714815 9.6108402678276335 5.8515483474145267 -0.70710678939079041 0 -0.70710677298230451 0.35355338649115226 0 -0.35355339469539521 1 I I #
face $-1 $261 $262 $19 $-1 $263 forward single #
loop $-1 $264 $265 $94 #
cone-surface $-1 43.659116324859355 9.6108402678276335 4.5357982380911892 -0.70710678939079041 0 -0.70710677298230451 0.17677669324557613 0 -0.1767766973476976 1 I I -0.70710678118654746 0.70710678118654746 0.25 forward I I I I #
loop $-1 $-1 $266 $57 #
coedge $-1 $167 $167 $267 $268 reversed $95 $-1 #
coedge $-1 $168 $168 $-1 $269 forward $97 $-1 #
edge $-1 $270 0 $270 6.2831853071796004 $98 $271 forward 7 unknown #
loop $-1 $272 $100 $261 #
vertex $-1 $101 $273 #
ellipse-curve $-1 44.974866464714815 12.819346306840423 5.8515483474145267 -0.70710678939079041 0 -0.70710677298230451 0.35355338649115226 0 -0.35355339469539521 1 I I #
face $-1 $-1 $117 $15 $-1 $274 reversed single #
loop $-1 $-1 $189 $102 #
plane-surface $-1 0 24.685977790089765 0 0 -1 0 0 0 -1 forward_v I I I I #
coedge $-1 $275 $187 $190 $276 forward $103 $-1 #
coedge $-1 $193 $105 $106 $181 reversed $63 $-1 #
coedge $-1 $187 $275 $105 $179 reversed $103 $-1 #
edge $-1 $194 -11.43486555057715 $277 11.43486555057715 $178 $278 forward 7 unknown #
coedge $-1 $107 $106 $275 $279 forward $41 $-1 #
edge $-1 $185 -50.558183538315987 $277 50.558183538315987 $177 $280 forward 7 unknown #
coedge $-1 $190 $189 $107 $183 reversed $174 $-1 #
edge $-1 $281 -50.558183538315987 $184 50.558183538315987 $182 $282 forward 7 unknown #
vertex $-1 $109 $283 #
vertex $-1 $196 $284 #
straight-curve $-1 50.558183538315987 0 -11.43486555057715 0 -1 0 I I #
coedge $-1 $176 $178 $110 $188 reversed $103 $-1 #
edge $-1 $191 -24.685977790089765 $194 24.685977790089765 $187 $285 forward 7 unknown #
coedge $-1 $182 $111 $116 $197 forward $174 $-1 #
coedge $-1 $111 $182 $176 $276 reversed $174 $-1 #
vertex $-1 $112 $286 #
straight-curve $-1 0 24.685977790089765 11.43486555057715 -1 0 0 I I #
coedge $-1 $113 $177 $115 $196 reversed $63 $-1 #
vertex $-1 $188 $287 #
straight-curve $-1 0 -24.685977790089765 11.43486555057715 1 0 0 I I #
edge $-1 $118 -11.43486555057715 $185 11.43486555057715 $115 $288 forward 7 unknown #
edge $-1 $119 -11.43486555057715 $184 11.43486555057715 $116 $289 forward 7 unknown #
point $-1 50.558183538315987 -24.685977790089765 11.43486555057715 #
point $-1 50.558183538315987 24.685977790089765 11.43486555057715 #
face $-1 $290 $291 $16 $-1 $292 forward single #
loop $-1 $-1 $130 $121 #
coedge $-1 $293 $294 $126 $208 forward $122 $-1 #
coedge $-1 $219 $124 $125 $207 reversed $71 $-1 #
coedge $-1 $213 $295 $124 $205 reversed $296 $-1 #
edge $-1 $220 -2.0279289285243962 $297 2.0279289285243962 $204 $298 forward 7 unknown #
coedge $-1 $126 $125 $295 $299 forward $45 $-1 #
edge $-1 $211 -50.558183538315987 $297 50.558183538315987 $203 $300 forward 7 unknown #
edge $-1 $210 -50.558183538315987 $301 50.558183538315987 $202 $302 forward 7 unknown #
coedge $-1 $303 $127 $294 $304 forward $136 $-1 #
vertex $-1 $304 $305 #
vertex $-1 $222 $306 #
straight-curve $-1 50.558183538315987 -31.385628769099874 -2.2911865011560799 0 -1 0 I I #
coedge $-1 $307 $204 $129 $214 reversed $296 $-1 #
edge $-1 $217 -6.6996509790101086 $220 6.6996509790101086 $213 $308 forward 7 unknown #
coedge $-1 $309 $130 $135 $224 reversed $201 $-1 #
coedge $-1 $130 $309 $307 $310 forward $201 $-1 #
vertex $-1 $310 $311 #
straight-curve $-1 0 -24.685977790089765 1.7646713558927125 1 0 0 I I #
coedge $-1 $132 $203 $134 $222 reversed $71 $-1 #
vertex $-1 $214 $312 #
straight-curve $-1 0 -38.085279748109983 1.7646713558927125 1 0 0 I I #
edge $-1 $137 -2.0279289285243962 $211 2.0279289285243962 $134 $313 forward 7 unknown #
coedge $-1 $135 $314 $315 $316 reversed $136 $-1 #
edge $-1 $317 -11.43486555057715 $138 -1.7646713558927125 $135 $318 forward 7 unknown #
face $-1 $-1 $136 $16 $-1 $319 reversed single #
point $-1 50.558183538315987 -38.085279748109983 1.7646713558927125 #
point $-1 50.558183538315987 -24.685977790089765 1.7646713558927125 #
face $-1 $320 $321 $17 $-1 $322 reversed single #
loop $-1 $-1 $323 $140 #
plane-surface $-1 0 -31.385628769099874 1.7646713558927125 0 0 1 1 0 0 forward_v I I I I #
coedge $-1 $146 $324 $143 $234 forward $141 $-1 #
coedge $-1 $233 $143 $325 $326 reversed $79 $-1 #
coedge $-1 $143 $232 $144 $236 forward $79 $-1 #
edge $-1 $327 -25.279090939574751 $237 -14.112456792372406 $231 $328 forward 7 unknown #
coedge $-1 $145 $144 $241 $329 reversed $49 $-1 #
edge $-1 $330 -101.11636707663199 $237 -85.324361436372342 $233 $331 forward 7 unknown #
vertex $-1 $147 $332 #
straight-curve $-1 39.391549391113642 5.6075466436670141 11.43486555057715 0 1 0 I I #
vertex $-1 $329 $333 #
straight-curve $-1 -20.941884480935386 14.958350332848948 71.768300822669758 0.70710677298230451 0 -0.70710678939079041 I I #
coedge $-1 $325 $149 $235 $329 forward $243 $-1 #
coedge $-1 $149 $334 $151 $246 reversed $243 $-1 #
loop $-1 $-1 $325 $335 #
straight-curve $-1 50.558183538315987 14.958350332848948 71.634184420960565 0 0 -1 I I #
coedge $-1 $336 $151 $337 $338 forward $141 $-1 #
edge $-1 $153 14.958350332848948 $339 24.685977790089765 $242 $340 forward 7 unknown #
point $-1 39.391549391113642 14.958350332848948 11.43486555057715 #
point $-1 50.558183538315987 14.958350332848948 11.43486555057715 #
face $-1 $341 $342 $18 $-1 $343 forward single #
loop $-1 $-1 $344 $155 #
plane-surface $-1 50.558185197482473 7.4718362418191084 143.26836884192113 0 1 0 0.70710678939079041 0 0.70710677298230451 forward_v I I I I #
loop $-1 $-1 $345 $86 #
coedge $-1 $254 $158 $346 $347 forward $87 $-1 #
coedge $-1 $158 $253 $348 $349 reversed $87 $-1 #
coedge $-1 $350 $351 $158 $256 forward $342 $-1 #
edge $-1 $352 14.112456792372406 $353 25.279090939574751 $255 $354 forward 7 unknown #
edge $-1 $355 1 $355 0 $159 $-1 forward 7 unknown #
vertex $-1 $160 $356 #
ellipse-curve $-1 43.835893022207053 9.6108402678276335 4.7125749313367651 0.70710678939079041 0 0.70710677298230451 0.35355338649115226 0 -0.35355339469539521 1 I I #
point $-1 45.32841985120595 9.6108402678276335 5.4979949527191172 #
face $-1 $357 $170 $19 $-1 $358 forward single #
loop $-1 $-1 $359 $163 #
plane-surface $-1 50.558185197482473 14.958350332848948 143.26836884192113 0 -1 0 -0.70710678939079041 0 -0.70710677298230451 forward_v I I I I #
loop $-1 $-1 $360 $94 #
coedge $-1 $265 $265 $266 $361 forward $164 $-1 #
coedge $-1 $266 $266 $265 $361 reversed $166 $-1 #
coedge $-1 $267 $267 $167 $268 forward $272 $-1 #
edge $-1 $362 0 $362 6.2831853071796004 $267 $363 forward 7 unknown #
edge $-1 $364 1 $364 0 $168 $-1 forward 7 unknown #
vertex $-1 $169 $365 #
ellipse-curve $-1 43.835893022207053 12.819346306840423 4.7125749313367651 0.70710678939079041 0 0.70710677298230451 0.35355338649115226 0 -0.35355339469539521 1 I I #
loop $-1 $366 $267 $261 #
point $-1 45.32841985120595 12.819346306840423 5.4979949527191172 #
plane-surface $-1 50.558183538315987 0 0 -1 0 0 0 0 1 forward_v I I I I #
coedge $-1 $178 $176 $180 $279 reversed $103 $-1 #
edge $-1 $191 -11.43486555057715 $281 11.43486555057715 $190 $367 forward 7 unknown #
vertex $-1 $279 $368 #
straight-curve $-1 -50.558183538315987 -24.685977790089765 0 0 0 -1 I I #
edge $-1 $277 -24.685977790089765 $281 24.685977790089765 $275 $369 forward 7 unknown #
straight-curve $-1 0 -24.685977790089765 -11.43486555057715 -1 0 0 I I #
vertex $-1 $183 $370 #
straight-curve $-1 0 24.685977790089765 -11.43486555057715 1 0 0 I I #
point $-1 50.558183538315987 24.685977790089765 -11.43486555057715 #
point $-1 50.558183538315987 -24.685977790089765 -11.43486555057715 #
straight-curve $-1 -50.558183538315987 0 11.43486555057715 0 -1 0 I I #
point $-1 -50.558183538315987 24.685977790089765 11.43486555057715 #
point $-1 -50.558183538315987 -24.685977790089765 11.43486555057715 #
straight-curve $-1 50.558183538315987 -24.685977790089765 0 0 0 -1 I I #
straight-curve $-1 50.558183538315987 24.685977790089765 0 0 0 -1 I I #
face $-1 $371 $372 $16 $-1 $373 reversed single #
loop $-1 $-1 $315 $200 #
plane-surface $-1 0 0 11.43486555057715 0 0 1 1 0 0 forward_v I I I I #
coedge $-1 $374 $202 $375 $376 forward $122 $-1 #
coedge $-1 $202 $374 $209 $304 reversed $122 $-1 #
coedge $-1 $204 $375 $206 $299 reversed $296 $-1 #
loop $-1 $-1 $377 $371 #
vertex $-1 $299 $378 #
straight-curve $-1 -50.558183538315987 -38.085279748109983 -0.2632575726316837 0 0 -1 I I #
edge $-1 $297 -6.6996509790101086 $301 6.6996509790101086 $295 $379 forward 7 unknown #
straight-curve $-1 0 -38.085279748109983 -2.2911865011560799 -1 0 0 I I #
vertex $-1 $376 $380 #
straight-curve $-1 0 -24.685977790089765 -2.2911865011560799 -1 0 0 I I #
coedge $-1 $314 $209 $381 $382 reversed $136 $-1 #
edge $-1 $210 2.2911865011560799 $383 11.43486555057715 $209 $318 forward 7 unknown #
point $-1 50.558183538315987 -24.685977790089765 -2.2911865011560799 #
point $-1 50.558183538315987 -38.085279748109983 -2.2911865011560799 #
coedge $-1 $384 $213 $216 $310 reversed $296 $-1 #
straight-curve $-1 -50.558183538315987 -31.385628769099874 1.7646713558927125 0 -1 0 I I #
coedge $-1 $216 $215 $385 $386 reversed $201 $-1 #
edge $-1 $387 -11.43486555057715 $217 -1.7646713558927125 $307 $388 forward 7 unknown #
point $-1 -50.558183538315987 -24.685977790089765 1.7646713558927125 #
point $-1 -50.558183538315987 -38.085279748109983 1.7646713558927125 #
straight-curve $-1 50.558183538315987 -38.085279748109983 -0.2632575726316837 0 0 -1 I I #
coedge $-1 $223 $303 $389 $390 reversed $136 $-1 #
coedge $-1 $391 $385 $223 $316 forward $291 $-1 #
edge $-1 $317 -24.685977790089765 $392 24.685977790089765 $223 $393 forward 7 unknown #
vertex $-1 $316 $394 #
straight-curve $-1 50.558183538315987 -24.685977790089765 0 0 0 -1 I I #
plane-surface $-1 50.558183538315987 0 0 -1 0 0 0 0 1 forward_v I I I I #
face $-1 $395 $396 $17 $-1 $397 reversed single #
loop $-1 $-1 $398 $228 #
plane-surface $-1 0 -31.385628769099874 -2.2911865011560799 0 0 1 1 0 0 forward_v I I I I #
coedge $-1 $399 $400 $401 $402 forward $229 $-1 #
coedge $-1 $231 $403 $404 $405 forward $141 $-1 #
coedge $-1 $404 $241 $232 $326 forward $243 $-1 #
edge $-1 $330 -71.365953276708666 $327 -60.199318870383415 $325 $406 forward 7 unknown #
vertex $-1 $326 $407 #
straight-curve $-1 25.279092598741236 7.4718362418191084 11.434865550577157 -1 0 0 I I #
edge $-1 $239 -9.3508036891819337 $330 -1.8642895981520944 $241 $408 forward 7 unknown #
vertex $-1 $329 $409 #
straight-curve $-1 -20.941884480935386 7.4718362418191084 71.768300822669758 -0.70710677298230451 0 0.70710678939079041 I I #
point $-1 39.391549391113642 7.4718362418191084 11.43486555057715 #
point $-1 50.558183538315987 14.958350332848948 0.26823114425189942 #
coedge $-1 $242 $410 $411 $412 reversed $243 $-1 #
face $-1 $-1 $243 $17 $-1 $413 reversed single #
coedge $-1 $403 $245 $414 $415 forward $141 $-1 #
coedge $-1 $411 $416 $245 $338 reversed $417 $-1 #
edge $-1 $339 -50.558183538315987 $418 50.558183538315987 $337 $419 forward 7 unknown #
vertex $-1 $246 $420 #
straight-curve $-1 50.558183538315987 0 11.43486555057715 0 1 0 I I #
face $-1 $421 $422 $18 $-1 $423 forward single #
loop $-1 $-1 $424 $249 #
plane-surface $-1 0 0 11.43486555057715 0 0 1 1 0 0 forward_v I I I I #
coedge $-1 $425 $426 $424 $427 reversed $250 $-1 #
coedge $-1 $428 $346 $351 $429 reversed $252 $-1 #
coedge $-1 $345 $430 $253 $347 reversed $252 $-1 #
edge $-1 $352 85.324361436372342 $431 101.11636707663199 $253 $432 forward 7 unknown #
coedge $-1 $433 $434 $254 $349 forward $435 $-1 #
edge $-1 $353 60.199318870383415 $431 71.365953276708666 $348 $436 forward 7 unknown #
coedge $-1 $437 $255 $434 $438 forward $342 $-1 #
coedge $-1 $255 $424 $345 $429 forward $342 $-1 #
vertex $-1 $429 $439 #
vertex $-1 $438 $440 #
straight-curve $-1 25.279092598741236 14.958350332848948 11.434865550577157 1 0 0 I I #
vertex $-1 $257 $441 #
point $-1 44.189446408698203 9.6108402678276335 4.3590215366413698 #
face $-1 $442 $443 $19 $-1 $444 forward single #
plane-surface $-1 -20.941884480935386 11.215093287334028 71.768300822669758 0.70710678939079041 0 0.70710677298230451 0.70710677298230451 0 -0.70710678939079041 forward_v I I I I #
coedge $-1 $445 $446 $447 $448 reversed $262 $-1 #
coedge $-1 $360 $360 $-1 $449 forward $264 $-1 #
edge $-1 $450 0 $450 6.2831853071796004 $265 $451 forward 7 unknown #
vertex $-1 $268 $452 #
ellipse-curve $-1 44.974866464714815 9.6108402678276335 5.8515483474145267 -0.70710678939079041 0 -0.70710677298230451 0.35355338649115226 0 -0.35355339469539521 1 I I #
vertex $-1 $269 $453 #
point $-1 44.189446408698203 12.819346306840423 4.3590215366413698 #
loop $-1 $-1 $454 $261 #
straight-curve $-1 -50.558183538315987 24.685977790089765 0 0 0 -1 I I #
point $-1 -50.558183538315987 -24.685977790089765 -11.43486555057715 #
straight-curve $-1 -50.558183538315987 0 -11.43486555057715 0 1 0 I I #
point $-1 -50.558183538315987 24.685977790089765 -11.43486555057715 #
face $-1 $455 $296 $16 $-1 $456 reversed single #
loop $-1 $-1 $381 $290 #
plane-surface $-1 0 0 -11.43486555057715 0 0 1 1 0 0 forward_v I I I I #
coedge $-1 $294 $293 $457 $458 reversed $122 $-1 #
coedge $-1 $295 $459 $293 $376 reversed $296 $-1 #
edge $-1 $301 2.2911865011560799 $460 11.43486555057715 $375 $388 forward 7 unknown #
coedge $-1 $459 $384 $461 $462 forward $296 $-1 #
point $-1 -50.558183538315987 -38.085279748109983 -2.2911865011560799 #
straight-curve $-1 -50.558183538315987 -31.385628769099874 -2.2911865011560799 0 1 0 I I #
point $-1 -50.558183538315987 -24.685977790089765 -2.2911865011560799 #
coedge $-1 $457 $463 $303 $382 forward $372 $-1 #
edge $-1 $464 -24.685977790089765 $383 24.685977790089765 $303 $465 forward 7 unknown #
vertex $-1 $304 $466 #
coedge $-1 $377 $307 $467 $468 reversed $296 $-1 #
coedge $-1 $315 $467 $309 $386 forward $291 $-1 #
edge $-1 $387 -50.558183538315987 $317 50.558183538315987 $309 $469 forward 7 unknown #
vertex $-1 $468 $470 #
straight-curve $-1 -50.558183538315987 -24.685977790089765 0 0 0 -1 I I #
coedge $-1 $471 $472 $314 $390 forward $473 $-1 #
edge $-1 $392 -11.43486555057715 $464 11.43486555057715 $314 $474 forward 7 unknown #
coedge $-1 $467 $315 $472 $475 forward $291 $-1 #
vertex $-1 $316 $476 #
straight-curve $-1 50.558183538315987 0 11.43486555057715 0 1 0 I I #
point $-1 50.558183538315987 -24.685977790089765 11.43486555057715 #
face $-1 $477 $478 $17 $-1 $479 reversed single #
loop $-1 $-1 $480 $320 #
plane-surface $-1 0 -38.085279748109983 -0.2632575726316837 0 1 0 0 0 1 forward_v I I I I #
coedge $-1 $481 $482 $483 $484 forward $321 $-1 #
coedge $-1 $485 $323 $486 $487 reversed $229 $-1 #
coedge $-1 $323 $485 $488 $489 forward $229 $-1 #
coedge $-1 $490 $491 $323 $402 reversed $243 $-1 #
edge $-1 $492 -6.6996509790101086 $493 6.6996509790101086 $401 $494 forward 7 unknown #
coedge $-1 $324 $336 $495 $496 forward $141 $-1 #
coedge $-1 $491 $325 $324 $405 reversed $243 $-1 #
edge $-1 $497 -24.685977790089765 $327 7.4718362418191084 $404 $340 forward 7 unknown #
straight-curve $-1 50.558183538315987 7.4718362418191084 71.634184420960565 0 0 1 I I #
point $-1 50.558183538315987 7.4718362418191084 11.43486555057715 #
straight-curve $-1 50.558183538315987 5.6075466436670141 0.26823114425189942 0 -1 0 I I #
point $-1 50.558183538315987 7.4718362418191084 0.26823114425189942 #
coedge $-1 $334 $498 $499 $500 reversed $243 $-1 #
coedge $-1 $501 $337 $334 $412 forward $417 $-1 #
edge $-1 $339 -11.43486555057715 $502 11.43486555057715 $334 $503 forward 7 unknown #
plane-surface $-1 50.558183538315987 0 0 -1 0 0 0 0 1 forward_v I I I I #
coedge $-1 $504 $505 $336 $415 reversed $506 $-1 #
edge $-1 $418 -24.685977790089765 $507 24.685977790089765 $414 $508 forward 7 unknown #
coedge $-1 $337 $501 $504 $509 reversed $417 $-1 #
loop $-1 $-1 $411 $510 #
vertex $-1 $338 $511 #
straight-curve $-1 0 24.685977790089765 11.43486555057715 -1 0 0 I I #
point $-1 50.558183538315987 24.685977790089765 11.43486555057715 #
face $-1 $512 $513 $18 $-1 $514 reversed single #
loop $-1 $-1 $515 $341 #
plane-surface $-1 0 -31.385628769099874 1.7646713558927125 0 0 1 1 0 0 forward_v I I I I #
coedge $-1 $351 $516 $344 $427 forward $342 $-1 #
coedge $-1 $426 $344 $517 $518 reversed $250 $-1 #
coedge $-1 $344 $425 $428 $519 forward $250 $-1 #
edge $-1 $520 -25.279090939574751 $521 -14.112456792372406 $424 $522 forward 7 unknown #
coedge $-1 $430 $345 $426 $519 reversed $252 $-1 #
edge $-1 $521 1.8642895981520944 $352 9.3508036891819337 $351 $523 forward 7 unknown #
coedge $-1 $346 $428 $433 $524 reversed $252 $-1 #
vertex $-1 $524 $525 #
straight-curve $-1 -20.941884480935386 14.958350332848948 71.768300822669758 0.70710677298230451 0 -0.70710678939079041 I I #
coedge $-1 $517 $348 $430 $524 forward $435 $-1 #
coedge $-1 $348 $526 $350 $438 reversed $435 $-1 #
loop $-1 $-1 $517 $527 #
straight-curve $-1 50.558183538315987 14.958350332848948 71.634184420960565 0 0 -1 I I #
coedge $-1 $528 $350 $529 $530 forward $342 $-1 #
edge $-1 $353 14.958350332848948 $531 24.685977790089765 $434 $532 forward 7 unknown #
point $-1 39.391549391113642 14.958350332848948 11.43486555057715 #
point $-1 50.558183538315987 14.958350332848948 11.43486555057715 #
point $-1 43.482339627511656 9.6108402678276335 4.3590215448456133 #
face $-1 $533 $534 $19 $-1 $535 forward single #
loop $-1 $-1 $536 $357 #
plane-surface $-1 50.558185197482473 7.4718362418191084 143.26836884192113 0 1 0 0.70710678939079041 0 0.70710677298230451 forward_v I I I I #
coedge $-1 $446 $359 $537 $538 forward $262 $-1 #
coedge $-1 $359 $445 $539 $540 reversed $262 $-1 #
coedge $-1 $541 $542 $359 $448 forward $534 $-1 #
edge $-1 $543 14.112456792372406 $544 25.279090939574751 $447 $545 forward 7 unknown #
edge $-1 $546 1 $546 0 $360 $-1 forward 7 unknown #
vertex $-1 $361 $547 #
ellipse-curve $-1 43.835893022207053 9.6108402678276335 4.7125749313367651 0.70710678939079041 0 0.70710677298230451 0.35355338649115226 0 -0.35355339469539521 1 I I #
point $-1 45.32841985120595 9.6108402678276335 5.4979949527191172 #
point $-1 43.482339627511656 12.819346306840423 4.3590215448456133 #
coedge $-1 $548 $537 $542 $549 reversed $366 $-1 #
face $-1 $225 $473 $16 $-1 $550 reversed single #
plane-surface $-1 -50.558183538315987 0 0 1 0 0 0 0 -1 forward_v I I I I #
coedge $-1 $551 $381 $374 $458 forward $372 $-1 #
edge $-1 $383 -50.558183538315987 $460 50.558183538315987 $374 $552 forward 7 unknown #
coedge $-1 $375 $377 $551 $553 reversed $296 $-1 #
vertex $-1 $553 $554 #
coedge $-1 $472 $471 $377 $462 reversed $473 $-1 #
edge $-1 $555 -11.43486555057715 $556 11.43486555057715 $461 $557 forward 7 unknown #
coedge $-1 $381 $551 $471 $558 forward $372 $-1 #
vertex $-1 $382 $559 #
straight-curve $-1 50.558183538315987 0 -11.43486555057715 0 -1 0 I I #
point $-1 50.558183538315987 -24.685977790089765 -11.43486555057715 #
coedge $-1 $385 $391 $384 $468 forward $291 $-1 #
edge $-1 $555 -24.685977790089765 $387 24.685977790089765 $384 $560 forward 7 unknown #
straight-curve $-1 0 -24.685977790089765 11.43486555057715 1 0 0 I I #
point $-1 -50.558183538315987 -24.685977790089765 11.43486555057715 #
coedge $-1 $461 $389 $463 $558 reversed $473 $-1 #
coedge $-1 $389 $461 $391 $475 reversed $473 $-1 #
loop $-1 $-1 $389 $455 #
straight-curve $-1 50.558183538315987 24.685977790089765 0 0 0 -1 I I #
edge $-1 $392 -50.558183538315987 $555 50.558183538315987 $472 $561 forward 7 unknown #
point $-1 50.558183538315987 24.685977790089765 11.43486555057715 #
face $-1 $562 $563 $17 $-1 $479 reversed single #
loop $-1 $-1 $564 $395 #
plane-surface $-1 0 -24.685977790089765 0 0 1 0 0 0 1 forward_v I I I I #
coedge $-1 $565 $488 $566 $567 forward $396 $-1 #
coedge $-1 $568 $398 $565 $569 forward $321 $-1 #
coedge $-1 $398 $568 $564 $570 reversed $321 $-1 #
coedge $-1 $498 $490 $398 $484 reversed $243 $-1 #
edge $-1 $571 -6.6996509790101086 $572 6.6996509790101086 $483 $573 forward 7 unknown #
coedge $-1 $400 $399 $574 $575 forward $229 $-1 #
coedge $-1 $576 $577 $399 $487 forward $563 $-1 #
edge $-1 $578 -50.558183538315987 $493 50.558183538315987 $486 $579 forward 7 unknown #
coedge $-1 $480 $580 $400 $489 reversed $396 $-1 #
edge $-1 $581 -50.558183538315987 $492 50.558183538315987 $488 $582 forward 7 unknown #
coedge $-1 $483 $401 $580 $583 forward $243 $-1 #
coedge $-1 $401 $404 $576 $584 forward $243 $-1 #
vertex $-1 $402 $585 #
vertex $-1 $402 $586 #
straight-curve $-1 50.558183538315987 -31.385628769099874 1.7646713558927125 0 1 0 I I #
coedge $-1 $577 $576 $403 $496 reversed $563 $-1 #
edge $-1 $507 -50.558183538315987 $497 50.558183538315987 $495 $587 forward 7 unknown #
vertex $-1 $405 $588 #
coedge $-1 $410 $483 $589 $590 forward $243 $-1 #
coedge $-1 $591 $592 $410 $500 forward $593 $-1 #
edge $-1 $502 -24.685977790089765 $594 24.685977790089765 $410 $595 forward 7 unknown #
coedge $-1 $416 $411 $592 $596 reversed $417 $-1 #
vertex $-1 $500 $597 #
straight-curve $-1 50.558183538315987 24.685977790089765 0 0 0 -1 I I #
coedge $-1 $598 $414 $416 $509 forward $506 $-1 #
coedge $-1 $414 $574 $577 $599 reversed $506 $-1 #
loop $-1 $-1 $504 $600 #
vertex $-1 $415 $601 #
straight-curve $-1 -50.558183538315987 0 11.43486555057715 0 -1 0 I I #
edge $-1 $418 -11.43486555057715 $602 11.43486555057715 $416 $603 forward 7 unknown #
face $-1 $335 $417 $17 $-1 $604 reversed single #
point $-1 -50.558183538315987 24.685977790089765 11.43486555057715 #
face $-1 $605 $606 $18 $-1 $607 reversed single #
loop $-1 $-1 $608 $421 #
plane-surface $-1 0 -31.385628769099874 -2.2911865011560799 0 0 1 1 0 0 forward_v I I I I #
coedge $-1 $609 $610 $611 $612 forward $422 $-1 #
coedge $-1 $424 $613 $614 $615 forward $342 $-1 #
coedge $-1 $614 $433 $425 $518 forward $435 $-1 #
edge $-1 $616 -71.365953276708666 $520 -60.199318870383415 $517 $617 forward 7 unknown #
edge $-1 $616 -101.11636707663199 $521 -85.324361436372342 $426 $618 forward 7 unknown #
vertex $-1 $518 $619 #
vertex $-1 $429 $620 #
straight-curve $-1 25.279092598741236 7.4718362418191084 11.434865550577157 -1 0 0 I I #
straight-curve $-1 39.391549391113642 5.6075466436670141 11.43486555057715 0 1 0 I I #
edge $-1 $431 -9.3508036891819337 $616 -1.8642895981520944 $433 $621 forward 7 unknown #
point $-1 50.558183538315987 14.958350332848948 0.26823114425189942 #
coedge $-1 $434 $622 $623 $624 reversed $435 $-1 #
face $-1 $-1 $435 $18 $-1 $625 reversed single #
coedge $-1 $613 $437 $626 $627 forward $342 $-1 #
coedge $-1 $623 $628 $437 $530 reversed $629 $-1 #
edge $-1 $531 -50.558183538315987 $630 50.558183538315987 $529 $631 forward 7 unknown #
vertex $-1 $438 $632 #
straight-curve $-1 50.558183538315987 0 11.43486555057715 0 1 0 I I #
face $-1 $633 $634 $19 $-1 $635 forward single #
loop $-1 $-1 $636 $442 #
plane-surface $-1 0 0 11.43486555057715 0 0 1 1 0 0 forward_v I I I I #
coedge $-1 $637 $638 $636 $639 reversed $443 $-1 #
coedge $-1 $454 $640 $445 $538 reversed $366 $-1 #
edge $-1 $543 85.324361436372342 $641 101.11636707663199 $445 $642 forward 7 unknown #
coedge $-1 $643 $644 $446 $540 forward $645 $-1 #
edge $-1 $544 60.199318870383415 $641 71.365953276708666 $539 $646 forward 7 unknown #
coedge $-1 $647 $447 $644 $648 forward $534 $-1 #
coedge $-1 $447 $636 $454 $549 forward $534 $-1 #
vertex $-1 $549 $649 #
vertex $-1 $648 $650 #
straight-curve $-1 25.279092598741236 14.958350332848948 11.434865550577157 1 0 0 I I #
vertex $-1 $449 $651 #
point $-1 44.189446408698203 9.6108402678276335 4.3590215366413698 #
coedge $-1 $640 $454 $638 $652 reversed $366 $-1 #
edge $-1 $653 1.8642895981520944 $543 9.3508036891819337 $542 $654 forward 7 unknown #
plane-surface $-1 0 24.685977790089765 0 0 -1 0 0 0 -1 forward_v I I I I #
coedge $-1 $463 $457 $459 $553 forward $372 $-1 #
straight-curve $-1 0 -24.685977790089765 -11.43486555057715 -1 0 0 I I #
edge $-1 $460 -24.685977790089765 $556 24.685977790089765 $459 $655 forward 7 unknown #
point $-1 -50.558183538315987 -24.685977790089765 -11.43486555057715 #
vertex $-1 $475 $656 #
vertex $-1 $558 $657 #
straight-curve $-1 -50.558183538315987 24.685977790089765 0 0 0 -1 I I #
edge $-1 $556 -50.558183538315987 $464 50.558183538315987 $471 $658 forward 7 unknown #
point $-1 50.558183538315987 24.685977790089765 -11.43486555057715 #
straight-curve $-1 -50.558183538315987 0 11.43486555057715 0 -1 0 I I #
straight-curve $-1 0 24.685977790089765 11.43486555057715 -1 0 0 I I #
face $-1 $600 $593 $17 $-1 $659 reversed single #
loop $-1 $-1 $486 $477 #
coedge $-1 $660 $589 $482 $570 forward $478 $-1 #
coedge $-1 $580 $480 $481 $569 reversed $396 $-1 #
coedge $-1 $574 $661 $480 $567 reversed $506 $-1 #
edge $-1 $581 -2.0279289285243962 $662 2.0279289285243962 $566 $663 forward 7 unknown #
coedge $-1 $482 $481 $661 $664 forward $321 $-1 #
edge $-1 $572 -50.558183538315987 $662 50.558183538315987 $565 $665 forward 7 unknown #
edge $-1 $571 -50.558183538315987 $666 50.558183538315987 $564 $667 forward 7 unknown #
vertex $-1 $590 $668 #
vertex $-1 $583 $669 #
straight-curve $-1 50.558183538315987 -31.385628769099874 -2.2911865011560799 0 -1 0 I I #
coedge $-1 $505 $566 $485 $575 reversed $506 $-1 #
edge $-1 $578 -6.6996509790101086 $581 6.6996509790101086 $574 $670 forward 7 unknown #
coedge $-1 $495 $486 $491 $584 reversed $563 $-1 #
coedge $-1 $486 $495 $505 $599 forward $563 $-1 #
vertex $-1 $599 $671 #
straight-curve $-1 0 -24.685977790089765 1.7646713558927125 1 0 0 I I #
coedge $-1 $488 $565 $490 $583 reversed $396 $-1 #
vertex $-1 $575 $672 #
straight-curve $-1 0 -38.085279748109983 1.7646713558927125 1 0 0 I I #
edge $-1 $492 -2.0279289285243962 $572 2.0279289285243962 $490 $673 forward 7 unknown #
edge $-1 $497 -11.43486555057715 $493 -1.7646713558927125 $491 $674 forward 7 unknown #
point $-1 50.558183538315987 -38.085279748109983 1.7646713558927125 #
point $-1 50.558183538315987 -24.685977790089765 1.7646713558927125 #
straight-curve $-1 0 -24.685977790089765 11.43486555057715 1 0 0 I I #
point $-1 50.558183538315987 -24.685977790089765 11.43486555057715 #
coedge $-1 $564 $675 $498 $590 reversed $478 $-1 #
edge $-1 $571 2.2911865011560799 $594 11.43486555057715 $498 $674 forward 7 unknown #
coedge $-1 $676 $499 $675 $677 forward $593 $-1 #
coedge $-1 $499 $676 $501 $596 forward $593 $-1 #
loop $-1 $-1 $499 $562 #
vertex $-1 $590 $678 #
straight-curve $-1 50.558183538315987 0 -11.43486555057715 0 -1 0 I I #
edge $-1 $602 -50.558183538315987 $502 50.558183538315987 $501 $679 forward 7 unknown #
point $-1 50.558183538315987 24.685977790089765 -11.43486555057715 #
coedge $-1 $680 $504 $676 $681 reversed $506 $-1 #
edge $-1 $507 -11.43486555057715 $578 -1.7646713558927125 $505 $682 forward 7 unknown #
face $-1 $510 $506 $17 $-1 $683 reversed single #
point $-1 -50.558183538315987 -24.685977790089765 11.43486555057715 #
vertex $-1 $596 $684 #
straight-curve $-1 -50.558183538315987 24.685977790089765 0 0 0 -1 I I #
plane-surface $-1 0 24.685977790089765 0 0 -1 0 0 0 -1 forward_v I I I I #
face $-1 $685 $686 $18 $-1 $687 reversed single #
loop $-1 $-1 $688 $512 #
plane-surface $-1 0 -38.085279748109983 -0.2632575726316837 0 1 0 0 0 1 forward_v I I I I #
coedge $-1 $689 $690 $691 $692 forward $513 $-1 #
coedge $-1 $693 $515 $694 $695 reversed $422 $-1 #
coedge $-1 $515 $693 $696 $697 forward $422 $-1 #
coedge $-1 $698 $699 $515 $612 reversed $435 $-1 #
edge $-1 $700 -6.6996509790101086 $701 6.6996509790101086 $611 $702 forward 7 unknown #
coedge $-1 $516 $528 $703 $704 forward $342 $-1 #
coedge $-1 $699 $517 $516 $615 reversed $435 $-1 #
edge $-1 $705 -24.685977790089765 $520 7.4718362418191084 $614 $532 forward 7 unknown #
vertex $-1 $524 $706 #
straight-curve $-1 50.558183538315987 7.4718362418191084 71.634184420960565 0 0 1 I I #
straight-curve $-1 -20.941884480935386 7.4718362418191084 71.768300822669758 -0.70710677298230451 0 0.70710678939079041 I I #
point $-1 50.558183538315987 7.4718362418191084 11.43486555057715 #
point $-1 39.391549391113642 7.4718362418191084 11.43486555057715 #
straight-curve $-1 50.558183538315987 5.6075466436670141 0.26823114425189942 0 -1 0 I I #
coedge $-1 $526 $707 $708 $709 reversed $435 $-1 #
coedge $-1 $710 $529 $526 $624 forward $629 $-1 #
edge $-1 $531 -11.43486555057715 $711 11.43486555057715 $526 $712 forward 7 unknown #
plane-surface $-1 50.558183538315987 0 0 -1 0 0 0 0 1 forward_v I I I I #
coedge $-1 $713 $714 $528 $627 reversed $715 $-1 #
edge $-1 $630 -24.685977790089765 $716 24.685977790089765 $626 $717 forward 7 unknown #
coedge $-1 $529 $710 $713 $718 reversed $629 $-1 #
loop $-1 $-1 $623 $719 #
vertex $-1 $530 $720 #
straight-curve $-1 0 24.685977790089765 11.43486555057715 -1 0 0 I I #
point $-1 50.558183538315987 24.685977790089765 11.43486555057715 #
face $-1 $721 $722 $19 $-1 $723 reversed single #
loop $-1 $-1 $724 $533 #
plane-surface $-1 0 -31.385628769099874 1.7646713558927125 0 0 1 1 0 0 forward_v I I I I #
coedge $-1 $542 $725 $536 $639 forward $534 $-1 #
coedge $-1 $638 $536 $726 $727 reversed $443 $-1 #
coedge $-1 $536 $637 $548 $652 forward $443 $-1 #
edge $-1 $728 -25.279090939574751 $653 -14.112456792372406 $636 $729 forward 7 unknown #
coedge $-1 $537 $548 $643 $730 reversed $366 $-1 #
vertex $-1 $730 $731 #
straight-curve $-1 -20.941884480935386 14.958350332848948 71.768300822669758 0.70710677298230451 0 -0.70710678939079041 I I #
coedge $-1 $726 $539 $640 $730 forward $645 $-1 #
coedge $-1 $539 $732 $541 $648 reversed $645 $-1 #
loop $-1 $-1 $726 $733 #
straight-curve $-1 50.558183538315987 14.958350332848948 71.634184420960565 0 0 -1 I I #
coedge $-1 $734 $541 $735 $736 forward $534 $-1 #
edge $-1 $544 14.958350332848948 $737 24.685977790089765 $644 $738 forward 7 unknown #
point $-1 39.391549391113642 14.958350332848948 11.43486555057715 #
point $-1 50.558183538315987 14.958350332848948 11.43486555057715 #
point $-1 43.482339627511656 9.6108402678276335 4.3590215448456133 #
edge $-1 $739 -101.11636707663199 $653 -85.324361436372342 $638 $740 forward 7 unknown #
vertex $-1 $549 $741 #
straight-curve $-1 39.391549391113642 5.6075466436670141 11.43486555057715 0 1 0 I I #
straight-curve $-1 -50.558183538315987 0 -11.43486555057715 0 1 0 I I #
point $-1 -50.558183538315987 24.685977790089765 11.43486555057715 #
point $-1 -50.558183538315987 24.685977790089765 -11.43486555057715 #
straight-curve $-1 0 24.685977790089765 -11.43486555057715 1 0 0 I I #
plane-surface $-1 0 0 -11.43486555057715 0 0 1 1 0 0 forward_v I I I I #
coedge $-1 $675 $564 $680 $742 forward $478 $-1 #
coedge $-1 $566 $680 $568 $664 reversed $506 $-1 #
vertex $-1 $664 $743 #
straight-curve $-1 -50.558183538315987 -38.085279748109983 -0.2632575726316837 0 0 -1 I I #
edge $-1 $662 -6.6996509790101086 $666 6.6996509790101086 $661 $744 forward 7 unknown #
straight-curve $-1 0 -38.085279748109983 -2.2911865011560799 -1 0 0 I I #
vertex $-1 $742 $745 #
straight-curve $-1 0 -24.685977790089765 -2.2911865011560799 -1 0 0 I I #
point $-1 50.558183538315987 -24.685977790089765 -2.2911865011560799 #
point $-1 50.558183538315987 -38.085279748109983 -2.2911865011560799 #
straight-curve $-1 -50.558183538315987 -31.385628769099874 1.7646713558927125 0 -1 0 I I #
point $-1 -50.558183538315987 -24.685977790089765 1.7646713558927125 #
point $-1 -50.558183538315987 -38.085279748109983 1.7646713558927125 #
straight-curve $-1 50.558183538315987 -38.085279748109983 -0.2632575726316837 0 0 -1 I I #
straight-curve $-1 50.558183538315987 -24.685977790089765 0 0 0 -1 I I #
coedge $-1 $589 $660 $591 $677 reversed $478 $-1 #
coedge $-1 $592 $591 $598 $681 forward $593 $-1 #
edge $-1 $594 -50.558183538315987 $746 50.558183538315987 $675 $747 forward 7 unknown #
point $-1 50.558183538315987 -24.685977790089765 -11.43486555057715 #
straight-curve $-1 0 24.685977790089765 -11.43486555057715 1 0 0 I I #
coedge $-1 $661 $598 $660 $742 reversed $506 $-1 #
edge $-1 $746 -24.685977790089765 $602 24.685977790089765 $598 $748 forward 7 unknown #
straight-curve $-1 -50.558183538315987 -24.685977790089765 0 0 0 -1 I I #
plane-surface $-1 -50.558183538315987 0 0 1 0 0 0 0 -1 forward_v I I I I #
point $-1 -50.558183538315987 24.685977790089765 -11.43486555057715 #
face $-1 $749 $750 $18 $-1 $687 reversed single #
loop $-1 $-1 $751 $605 #
plane-surface $-1 0 -24.685977790089765 0 0 1 0 0 0 1 forward_v I I I I #
coedge $-1 $752 $696 $753 $754 forward $606 $-1 #
coedge $-1 $755 $608 $752 $756 forward $513 $-1 #
coedge $-1 $608 $755 $751 $757 reversed $513 $-1 #
coedge $-1 $707 $698 $608 $692 reversed $435 $-1 #
edge $-1 $758 -6.6996509790101086 $759 6.6996509790101086 $691 $760 forward 7 unknown #
coedge $-1 $610 $609 $761 $762 forward $422 $-1 #
coedge $-1 $763 $764 $609 $695 forward $750 $-1 #
edge $-1 $765 -50.558183538315987 $701 50.558183538315987 $694 $766 forward 7 unknown #
coedge $-1 $688 $767 $610 $697 reversed $606 $-1 #
edge $-1 $768 -50.558183538315987 $700 50.558183538315987 $696 $769 forward 7 unknown #
coedge $-1 $691 $611 $767 $770 forward $435 $-1 #
coedge $-1 $611 $614 $763 $771 forward $435 $-1 #
vertex $-1 $612 $772 #
vertex $-1 $612 $773 #
straight-curve $-1 50.558183538315987 -31.385628769099874 1.7646713558927125 0 1 0 I I #
coedge $-1 $764 $763 $613 $704 reversed $750 $-1 #
edge $-1 $716 -50.558183538315987 $705 50.558183538315987 $703 $774 forward 7 unknown #
vertex $-1 $615 $775 #
point $-1 50.558183538315987 7.4718362418191084 0.26823114425189942 #
coedge $-1 $622 $691 $776 $777 forward $435 $-1 #
coedge $-1 $778 $779 $622 $709 forward $780 $-1 #
edge $-1 $711 -24.685977790089765 $781 24.685977790089765 $622 $782 forward 7 unknown #
coedge $-1 $628 $623 $779 $783 reversed $629 $-1 #
vertex $-1 $709 $784 #
straight-curve $-1 50.558183538315987 24.685977790089765 0 0 0 -1 I I #
coedge $-1 $785 $626 $628 $718 forward $715 $-1 #
coedge $-1 $626 $761 $764 $786 reversed $715 $-1 #
loop $-1 $-1 $713 $787 #
vertex $-1 $627 $788 #
straight-curve $-1 -50.558183538315987 0 11.43486555057715 0 -1 0 I I #
edge $-1 $630 -11.43486555057715 $789 11.43486555057715 $628 $790 forward 7 unknown #
face $-1 $527 $629 $18 $-1 $791 reversed single #
point $-1 -50.558183538315987 24.685977790089765 11.43486555057715 #
face $-1 $792 $793 $19 $-1 $794 reversed single #
loop $-1 $-1 $795 $633 #
plane-surface $-1 0 -31.385628769099874 -2.2911865011560799 0 0 1 1 0 0 forward_v I I I I #
coedge $-1 $796 $797 $798 $799 forward $634 $-1 #
coedge $-1 $636 $800 $801 $802 forward $534 $-1 #
coedge $-1 $801 $643 $637 $727 forward $645 $-1 #
edge $-1 $739 -71.365953276708666 $728 -60.199318870383415 $726 $803 forward 7 unknown #
vertex $-1 $727 $804 #
straight-curve $-1 25.279092598741236 7.4718362418191084 11.434865550577157 -1 0 0 I I #
edge $-1 $641 -9.3508036891819337 $739 -1.8642895981520944 $643 $805 forward 7 unknown #
point $-1 50.558183538315987 14.958350332848948 0.26823114425189942 #
coedge $-1 $644 $806 $807 $808 reversed $645 $-1 #
face $-1 $-1 $645 $19 $-1 $809 reversed single #
coedge $-1 $800 $647 $810 $811 forward $534 $-1 #
coedge $-1 $807 $812 $647 $736 reversed $813 $-1 #
edge $-1 $737 -50.558183538315987 $814 50.558183538315987 $735 $815 forward 7 unknown #
vertex $-1 $648 $816 #
straight-curve $-1 50.558183538315987 0 11.43486555057715 0 1 0 I I #
vertex $-1 $730 $817 #
straight-curve $-1 -20.941884480935386 7.4718362418191084 71.768300822669758 -0.70710677298230451 0 0.70710678939079041 I I #
point $-1 39.391549391113642 7.4718362418191084 11.43486555057715 #
edge $-1 $666 2.2911865011560799 $746 11.43486555057715 $680 $682 forward 7 unknown #
point $-1 -50.558183538315987 -38.085279748109983 -2.2911865011560799 #
straight-curve $-1 -50.558183538315987 -31.385628769099874 -2.2911865011560799 0 1 0 I I #
point $-1 -50.558183538315987 -24.685977790089765 -2.2911865011560799 #
vertex $-1 $681 $818 #
straight-curve $-1 0 -24.685977790089765 -11.43486555057715 -1 0 0 I I #
straight-curve $-1 -50.558183538315987 0 -11.43486555057715 0 1 0 I I #
face $-1 $787 $780 $18 $-1 $819 reversed single #
loop $-1 $-1 $694 $685 #
coedge $-1 $820 $776 $690 $757 forward $686 $-1 #
coedge $-1 $767 $688 $689 $756 reversed $606 $-1 #
coedge $-1 $761 $821 $688 $754 reversed $715 $-1 #
edge $-1 $768 -2.0279289285243962 $822 2.0279289285243962 $753 $823 forward 7 unknown #
coedge $-1 $690 $689 $821 $824 forward $513 $-1 #
edge $-1 $759 -50.558183538315987 $822 50.558183538315987 $752 $825 forward 7 unknown #
edge $-1 $758 -50.558183538315987 $826 50.558183538315987 $751 $827 forward 7 unknown #
vertex $-1 $777 $828 #
vertex $-1 $770 $829 #
straight-curve $-1 50.558183538315987 -31.385628769099874 -2.2911865011560799 0 -1 0 I I #
coedge $-1 $714 $753 $693 $762 reversed $715 $-1 #
edge $-1 $765 -6.6996509790101086 $768 6.6996509790101086 $761 $830 forward 7 unknown #
coedge $-1 $703 $694 $699 $771 reversed $750 $-1 #
coedge $-1 $694 $703 $714 $786 forward $750 $-1 #
vertex $-1 $786 $831 #
straight-curve $-1 0 -24.685977790089765 1.7646713558927125 1 0 0 I I #
coedge $-1 $696 $752 $698 $770 reversed $606 $-1 #
vertex $-1 $762 $832 #
straight-curve $-1 0 -38.085279748109983 1.7646713558927125 1 0 0 I I #
edge $-1 $700 -2.0279289285243962 $759 2.0279289285243962 $698 $833 forward 7 unknown #
edge $-1 $705 -11.43486555057715 $701 -1.7646713558927125 $699 $834 forward 7 unknown #
point $-1 50.558183538315987 -38.085279748109983 1.7646713558927125 #
point $-1 50.558183538315987 -24.685977790089765 1.7646713558927125 #
straight-curve $-1 0 -24.685977790089765 11.43486555057715 1 0 0 I I #
point $-1 50.558183538315987 -24.685977790089765 11.43486555057715 #
coedge $-1 $751 $835 $707 $777 reversed $686 $-1 #
edge $-1 $758 2.2911865011560799 $781 11.43486555057715 $707 $834 forward 7 unknown #
coedge $-1 $836 $708 $835 $837 forward $780 $-1 #
coedge $-1 $708 $836 $710 $783 forward $780 $-1 #
loop $-1 $-1 $708 $749 #
vertex $-1 $777 $838 #
straight-curve $-1 50.558183538315987 0 -11.43486555057715 0 -1 0 I I #
edge $-1 $789 -50.558183538315987 $711 50.558183538315987 $710 $839 forward 7 unknown #
point $-1 50.558183538315987 24.685977790089765 -11.43486555057715 #
coedge $-1 $840 $713 $836 $841 reversed $715 $-1 #
edge $-1 $716 -11.43486555057715 $765 -1.7646713558927125 $714 $842 forward 7 unknown #
face $-1 $719 $715 $18 $-1 $843 reversed single #
point $-1 -50.558183538315987 -24.685977790089765 11.43486555057715 #
vertex $-1 $783 $844 #
straight-curve $-1 -50.558183538315987 24.685977790089765 0 0 0 -1 I I #
plane-surface $-1 0 24.685977790089765 0 0 -1 0 0 0 -1 forward_v I I I I #
face $-1 $845 $846 $19 $-1 $847 reversed single #
loop $-1 $-1 $848 $721 #
plane-surface $-1 0 -38.085279748109983 -0.2632575726316837 0 1 0 0 0 1 forward_v I I I I #
coedge $-1 $849 $850 $851 $852 forward $722 $-1 #
coedge $-1 $853 $724 $854 $855 reversed $634 $-1 #
coedge $-1 $724 $853 $856 $857 forward $634 $-1 #
coedge $-1 $858 $859 $724 $799 reversed $645 $-1 #
edge $-1 $860 -6.6996509790101086 $861 6.6996509790101086 $798 $862 forward 7 unknown #
coedge $-1 $725 $734 $863 $864 forward $534 $-1 #
coedge $-1 $859 $726 $725 $802 reversed $645 $-1 #
edge $-1 $865 -24.685977790089765 $728 7.4718362418191084 $801 $738 forward 7 unknown #
straight-curve $-1 50.558183538315987 7.4718362418191084 71.634184420960565 0 0 1 I I #
point $-1 50.558183538315987 7.4718362418191084 11.43486555057715 #
straight-curve $-1 50.558183538315987 5.6075466436670141 0.26823114425189942 0 -1 0 I I #
coedge $-1 $732 $866 $867 $868 reversed $645 $-1 #
coedge $-1 $869 $735 $732 $808 forward $813 $-1 #
edge $-1 $737 -11.43486555057715 $870 11.43486555057715 $732 $871 forward 7 unknown #
plane-surface $-1 50.558183538315987 0 0 -1 0 0 0 0 1 forward_v I I I I #
coedge $-1 $872 $873 $734 $811 reversed $874 $-1 #
edge $-1 $814 -24.685977790089765 $875 24.685977790089765 $810 $876 forward 7 unknown #
coedge $-1 $735 $869 $872 $877 reversed $813 $-1 #
loop $-1 $-1 $807 $878 #
vertex $-1 $736 $879 #
straight-curve $-1 0 24.685977790089765 11.43486555057715 -1 0 0 I I #
point $-1 50.558183538315987 24.685977790089765 11.43486555057715 #
point $-1 50.558183538315987 7.4718362418191084 0.26823114425189942 #
point $-1 -50.558183538315987 -24.685977790089765 -11.43486555057715 #
plane-surface $-1 0 0 -11.43486555057715 0 0 1 1 0 0 forward_v I I I I #
coedge $-1 $835 $751 $840 $880 forward $686 $-1 #
coedge $-1 $753 $840 $755 $824 reversed $715 $-1 #
vertex $-1 $824 $881 #
straight-curve $-1 -50.558183538315987 -38.085279748109983 -0.2632575726316837 0 0 -1 I I #
edge $-1 $822 -6.6996509790101086 $826 6.6996509790101086 $821 $882 forward 7 unknown #
straight-curve $-1 0 -38.085279748109983 -2.2911865011560799 -1 0 0 I I #
vertex $-1 $880 $883 #
straight-curve $-1 0 -24.685977790089765 -2.2911865011560799 -1 0 0 I I #
point $-1 50.558183538315987 -24.685977790089765 -2.2911865011560799 #
point $-1 50.558183538315987 -38.085279748109983 -2.2911865011560799 #
straight-curve $-1 -50.558183538315987 -31.385628769099874 1.7646713558927125 0 -1 0 I I #
point $-1 -50.558183538315987 -24.685977790089765 1.7646713558927125 #
point $-1 -50.558183538315987 -38.085279748109983 1.7646713558927125 #
straight-curve $-1 50.558183538315987 -38.085279748109983 -0.2632575726316837 0 0 -1 I I #
straight-curve $-1 50.558183538315987 -24.685977790089765 0 0 0 -1 I I #
coedge $-1 $776 $820 $778 $837 reversed $686 $-1 #
coedge $-1 $779 $778 $785 $841 forward $780 $-1 #
edge $-1 $781 -50.558183538315987 $884 50.558183538315987 $835 $885 forward 7 unknown #
point $-1 50.558183538315987 -24.685977790089765 -11.43486555057715 #
straight-curve $-1 0 24.685977790089765 -11.43486555057715 1 0 0 I I #
coedge $-1 $821 $785 $820 $880 reversed $715 $-1 #
edge $-1 $884 -24.685977790089765 $789 24.685977790089765 $785 $886 forward 7 unknown #
straight-curve $-1 -50.558183538315987 -24.685977790089765 0 0 0 -1 I I #
plane-surface $-1 -50.558183538315987 0 0 1 0 0 0 0 -1 forward_v I I I I #
point $-1 -50.558183538315987 24.685977790089765 -11.43486555057715 #
face $-1 $887 $888 $19 $-1 $847 reversed single #
loop $-1 $-1 $889 $792 #
plane-surface $-1 0 -24.685977790089765 0 0 1 0 0 0 1 forward_v I I I I #
coedge $-1 $890 $856 $891 $892 forward $793 $-1 #
coedge $-1 $893 $795 $890 $894 forward $722 $-1 #
coedge $-1 $795 $893 $889 $895 reversed $722 $-1 #
coedge $-1 $866 $858 $795 $852 reversed $645 $-1 #
edge $-1 $896 -6.6996509790101086 $897 6.6996509790101086 $851 $898 forward 7 unknown #
coedge $-1 $797 $796 $899 $900 forward $634 $-1 #
coedge $-1 $901 $902 $796 $855 forward $888 $-1 #
edge $-1 $903 -50.558183538315987 $861 50.558183538315987 $854 $904 forward 7 unknown #
coedge $-1 $848 $905 $797 $857 reversed $793 $-1 #
edge $-1 $906 -50.558183538315987 $860 50.558183538315987 $856 $907 forward 7 unknown #
coedge $-1 $851 $798 $905 $908 forward $645 $-1 #
coedge $-1 $798 $801 $901 $909 forward $645 $-1 #
vertex $-1 $799 $910 #
vertex $-1 $799 $911 #
straight-curve $-1 50.558183538315987 -31.385628769099874 1.7646713558927125 0 1 0 I I #
coedge $-1 $902 $901 $800 $864 reversed $888 $-1 #
edge $-1 $875 -50.558183538315987 $865 50.558183538315987 $863 $912 forward 7 unknown #
vertex $-1 $802 $913 #
coedge $-1 $806 $851 $914 $915 forward $645 $-1 #
coedge $-1 $916 $917 $806 $868 forward $918 $-1 #
edge $-1 $870 -24.685977790089765 $919 24.685977790089765 $806 $920 forward 7 unknown #
coedge $-1 $812 $807 $917 $921 reversed $813 $-1 #
vertex $-1 $868 $922 #
straight-curve $-1 50.558183538315987 24.685977790089765 0 0 0 -1 I I #
coedge $-1 $923 $810 $812 $877 forward $874 $-1 #
coedge $-1 $810 $899 $902 $924 reversed $874 $-1 #
loop $-1 $-1 $872 $925 #
vertex $-1 $811 $926 #
straight-curve $-1 -50.558183538315987 0 11.43486555057715 0 -1 0 I I #
edge $-1 $814 -11.43486555057715 $927 11.43486555057715 $812 $928 forward 7 unknown #
face $-1 $733 $813 $19 $-1 $929 reversed single #
point $-1 -50.558183538315987 24.685977790089765 11.43486555057715 #
edge $-1 $826 2.2911865011560799 $884 11.43486555057715 $840 $842 forward 7 unknown #
point $-1 -50.558183538315987 -38.085279748109983 -2.2911865011560799 #
straight-curve $-1 -50.558183538315987 -31.385628769099874 -2.2911865011560799 0 1 0 I I #
point $-1 -50.558183538315987 -24.685977790089765 -2.2911865011560799 #
vertex $-1 $841 $930 #
straight-curve $-1 0 -24.685977790089765 -11.43486555057715 -1 0 0 I I #
straight-curve $-1 -50.558183538315987 0 -11.43486555057715 0 1 0 I I #
face $-1 $925 $918 $19 $-1 $931 reversed single #
loop $-1 $-1 $854 $845 #
coedge $-1 $932 $914 $850 $895 forward $846 $-1 #
coedge $-1 $905 $848 $849 $894 reversed $793 $-1 #
coedge $-1 $899 $933 $848 $892 reversed $874 $-1 #
edge $-1 $906 -2.0279289285243962 $934 2.0279289285243962 $891 $935 forward 7 unknown #
coedge $-1 $850 $849 $933 $936 forward $722 $-1 #
edge $-1 $897 -50.558183538315987 $934 50.558183538315987 $890 $937 forward 7 unknown #
edge $-1 $896 -50.558183538315987 $938 50.558183538315987 $889 $939 forward 7 unknown #
vertex $-1 $915 $940 #
vertex $-1 $908 $941 #
straight-curve $-1 50.558183538315987 -31.385628769099874 -2.2911865011560799 0 -1 0 I I #
coedge $-1 $873 $891 $853 $900 reversed $874 $-1 #
edge $-1 $903 -6.6996509790101086 $906 6.6996509790101086 $899 $942 forward 7 unknown #
coedge $-1 $863 $854 $859 $909 reversed $888 $-1 #
coedge $-1 $854 $863 $873 $924 forward $888 $-1 #
vertex $-1 $924 $943 #
straight-curve $-1 0 -24.685977790089765 1.7646713558927125 1 0 0 I I #
coedge $-1 $856 $890 $858 $908 reversed $793 $-1 #
vertex $-1 $900 $944 #
straight-curve $-1 0 -38.085279748109983 1.7646713558927125 1 0 0 I I #
edge $-1 $860 -2.0279289285243962 $897 2.0279289285243962 $858 $945 forward 7 unknown #
edge $-1 $865 -11.43486555057715 $861 -1.7646713558927125 $859 $946 forward 7 unknown #
point $-1 50.558183538315987 -38.085279748109983 1.7646713558927125 #
point $-1 50.558183538315987 -24.685977790089765 1.7646713558927125 #
straight-curve $-1 0 -24.685977790089765 11.43486555057715 1 0 0 I I #
point $-1 50.558183538315987 -24.685977790089765 11.43486555057715 #
coedge $-1 $889 $947 $866 $915 reversed $846 $-1 #
edge $-1 $896 2.2911865011560799 $919 11.43486555057715 $866 $946 forward 7 unknown #
coedge $-1 $948 $867 $947 $949 forward $918 $-1 #
coedge $-1 $867 $948 $869 $921 forward $918 $-1 #
loop $-1 $-1 $867 $887 #
vertex $-1 $915 $950 #
straight-curve $-1 50.558183538315987 0 -11.43486555057715 0 -1 0 I I #
edge $-1 $927 -50.558183538315987 $870 50.558183538315987 $869 $951 forward 7 unknown #
point $-1 50.558183538315987 24.685977790089765 -11.43486555057715 #
coedge $-1 $952 $872 $948 $953 reversed $874 $-1 #
edge $-1 $875 -11.43486555057715 $903 -1.7646713558927125 $873 $954 forward 7 unknown #
face $-1 $878 $874 $19 $-1 $955 reversed single #
point $-1 -50.558183538315987 -24.685977790089765 11.43486555057715 #
vertex $-1 $921 $956 #
straight-curve $-1 -50.558183538315987 24.685977790089765 0 0 0 -1 I I #
plane-surface $-1 0 24.685977790089765 0 0 -1 0 0 0 -1 forward_v I I I I #
point $-1 -50.558183538315987 -24.685977790089765 -11.43486555057715 #
plane-surface $-1 0 0 -11.43486555057715 0 0 1 1 0 0 forward_v I I I I #
coedge $-1 $947 $889 $952 $957 forward $846 $-1 #
coedge $-1 $891 $952 $893 $936 reversed $874 $-1 #
vertex $-1 $936 $958 #
straight-curve $-1 -50.558183538315987 -38.085279748109983 -0.2632575726316837 0 0 -1 I I #
edge $-1 $934 -6.6996509790101086 $938 6.6996509790101086 $933 $959 forward 7 unknown #
straight-curve $-1 0 -38.085279748109983 -2.2911865011560799 -1 0 0 I I #
vertex $-1 $957 $960 #
straight-curve $-1 0 -24.685977790089765 -2.2911865011560799 -1 0 0 I I #
point $-1 50.558183538315987 -24.685977790089765 -2.2911865011560799 #
point $-1 50.558183538315987 -38.085279748109983 -2.2911865011560799 #
straight-curve $-1 -50.558183538315987 -31.385628769099874 1.7646713558927125 0 -1 0 I I #
point $-1 -50.558183538315987 -24.685977790089765 1.7646713558927125 #
point $-1 -50.558183538315987 -38.085279748109983 1.7646713558927125 #
straight-curve $-1 50.558183538315987 -38.085279748109983 -0.2632575726316837 0 0 -1 I I #
straight-curve $-1 50.558183538315987 -24.685977790089765 0 0 0 -1 I I #
coedge $-1 $914 $932 $916 $949 reversed $846 $-1 #
coedge $-1 $917 $916 $923 $953 forward $918 $-1 #
edge $-1 $919 -50.558183538315987 $961 50.558183538315987 $947 $962 forward 7 unknown #
point $-1 50.558183538315987 -24.685977790089765 -11.43486555057715 #
straight-curve $-1 0 24.685977790089765 -11.43486555057715 1 0 0 I I #
coedge $-1 $933 $923 $932 $957 reversed $874 $-1 #
edge $-1 $961 -24.685977790089765 $927 24.685977790089765 $923 $963 forward 7 unknown #
straight-curve $-1 -50.558183538315987 -24.685977790089765 0 0 0 -1 I I #
plane-surface $-1 -50.558183538315987 0 0 1 0 0 0 0 -1 forward_v I I I I #
point $-1 -50.558183538315987 24.685977790089765 -11.43486555057715 #
edge $-1 $938 2.2911865011560799 $961 11.43486555057715 $952 $954 forward 7 unknown #
point $-1 -50.558183538315987 -38.085279748109983 -2.2911865011560799 #
straight-curve $-1 -50.558183538315987 -31.385628769099874 -2.2911865011560799 0 1 0 I I #
point $-1 -50.558183538315987 -24.685977790089765 -2.2911865011560799 #
vertex $-1 $953 $964 #
straight-curve $-1 0 -24.685977790089765 -11.43486555057715 -1 0 0 I I #
straight-curve $-1 -50.558183538315987 0 -11.43486555057715 0 1 0 I I #
point $-1 -50.558183538315987 -24.685977790089765 -11.43486555057715 #
End-of-ACIS-data 