500 0 7 0           
7 Unknown 11 ACIS 5.0 NT 24 Fri Mar 26 14:41:14 1999 
-1 9.9999999999999995e-007 1e-010 
body $-1 $7 $-1 $8 #
body $-1 $9 $-1 $10 #
body $-1 $11 $-1 $12 #
body $-1 $13 $-1 $14 #
body $-1 $15 $-1 $16 #
body $-1 $17 $-1 $18 #
body $-1 $19 $-1 $20 #
lump $-1 $-1 $21 $0 #
transform $-1 1 0 0 0 1 0 0 0 1 76.092410046693317 52.223168251413242 22.695809285274819 1 rotate no_reflect no_shear #
lump $-1 $-1 $22 $1 #
transform $-1 1 0 0 0 1 0 0 0 1 76.092410046693317 52.223168251413242 22.695809285274819 1 rotate no_reflect no_shear #
lump $-1 $-1 $23 $2 #
transform $-1 1 0 0 0 1 0 0 0 1 76.092410046693317 52.223168251413242 22.695809285274819 1 rotate no_reflect no_shear #
lump $-1 $-1 $24 $3 #
transform $-1 1 0 0 0 1 0 0 0 1 76.092410046693317 52.223168251413242 22.695809285274819 1 rotate no_reflect no_shear #
lump $-1 $-1 $25 $4 #
transform $-1 1 0 0 0 1 0 0 0 1 76.092410046693317 52.223168251413242 22.695809285274819 1 rotate no_reflect no_shear #
lump $-1 $-1 $26 $5 #
transform $-1 1 0 0 0 1 0 0 0 1 76.092410046693317 52.223168251413242 22.695809285274819 1 rotate no_reflect no_shear #
lump $-1 $-1 $27 $6 #
transform $-1 1 0 0 0 1 0 0 0 1 76.092410046693317 52.223168251413242 22.695809285274819 1 rotate no_reflect no_shear #
shell $-1 $-1 $-1 $28 $-1 $7 #
shell $-1 $-1 $-1 $29 $-1 $9 #
shell $-1 $-1 $-1 $30 $-1 $11 #
shell $-1 $-1 $-1 $31 $-1 $13 #
shell $-1 $-1 $-1 $32 $-1 $15 #
shell $-1 $-1 $-1 $33 $-1 $17 #
shell $-1 $-1 $-1 $34 $-1 $19 #
face $-1 $35 $36 $21 $-1 $37 forward single #
face $-1 $38 $39 $22 $-1 $40 forward single #
face $-1 $41 $42 $23 $-1 $43 reversed single #
face $-1 $44 $45 $24 $-1 $46 reversed single #
face $-1 $47 $48 $25 $-1 $49 forward single #
face $-1 $50 $51 $26 $-1 $52 forward single #
face $-1 $53 $54 $27 $-1 $55 forward single #
face $-1 $56 $57 $21 $-1 $58 reversed single #
loop $-1 $-1 $59 $28 #
plane-surface $-1 0 0 22.695809285274819 0 0 1 1 0 0 forward_v I I I I #
face $-1 $60 $61 $22 $-1 $62 reversed single #
loop $-1 $-1 $63 $29 #
plane-surface $-1 -76.092410046693317 0 0 1 0 0 0 0 -1 forward_v I I I I #
face $-1 $64 $65 $23 $-1 $66 reversed single #
loop $-1 $-1 $67 $30 #
plane-surface $-1 66.747474469730889 -49.943325045629308 0 0 1 0 0 0 1 forward_v I I I I #
face $-1 $68 $69 $24 $-1 $70 reversed single #
loop $-1 $-1 $71 $31 #
plane-surface $-1 -5.366656708219022 -150.04568619215445 128.6213043726753 -1 0 0 0 -0.64278761758704617 0.76604443648966558 forward_v I I I I #
face $-1 $72 $73 $25 $-1 $74 forward single #
loop $-1 $75 $76 $32 #
cone-surface $-1 -23.283470517051498 -45.086145750579249 16.429226969937734 0 0.64278761758704617 -0.76604443648966558 1 0 0 1 I I 0 1 1 forward I I I I #
face $-1 $77 $78 $26 $-1 $79 forward single #
loop $-1 $80 $81 $33 #
cone-surface $-1 -16.564665338739324 -45.086145750579249 16.429226969937734 0 0.64278761758704617 -0.76604443648966558 1 0 0 1 I I 0 1 1 forward I I I I #
face $-1 $82 $83 $27 $-1 $84 forward single #
loop $-1 $85 $86 $34 #
cone-surface $-1 -9.8458601604271507 -45.086145750579249 16.429226969937734 0 0.64278761758704617 -0.76604443648966558 1 0 0 1 I I 0 1 1 forward I I I I #
face $-1 $87 $88 $21 $-1 $89 reversed single #
loop $-1 $-1 $90 $35 #
plane-surface $-1 0 0 -22.695809285274819 0 0 1 1 0 0 forward_v I I I I #
coedge $-1 $91 $92 $93 $94 forward $36 $-1 #
face $-1 $95 $96 $22 $-1 $97 forward single #
loop $-1 $-1 $98 $38 #
plane-surface $-1 0 52.223168251413242 0 0 -1 0 0 0 -1 forward_v I I I I #
coedge $-1 $99 $100 $101 $102 forward $39 $-1 #
face $-1 $103 $104 $23 $-1 $105 reversed single #
loop $-1 $-1 $106 $41 #
plane-surface $-1 57.402538892768462 -44.452403444353145 0 1 0 0 0 0 -1 forward_v I I I I #
coedge $-1 $107 $108 $109 $110 forward $42 $-1 #
face $-1 $111 $112 $24 $-1 $113 reversed single #
loop $-1 $-1 $114 $44 #
plane-surface $-1 -16.564665338739317 -52.223168251413227 12.040969621955796 0 -0.64278761758704617 0.76604443648966558 1 0 0 forward_v I I I I #
coedge $-1 $115 $116 $117 $118 reversed $45 $-1 #
face $-1 $-1 $119 $25 $-1 $120 forward single #
loop $-1 $121 $122 $47 #
cone-surface $-1 -23.283470517051498 -43.976701031610645 15.107042268015334 0 0.64278761758704617 -0.76604443648966558 0.5 0 0 1 I I -0.70710678118654746 0.70710678118654746 0.5 forward I I I I #
loop $-1 $-1 $123 $32 #
coedge $-1 $76 $76 $124 $125 reversed $48 $-1 #
face $-1 $-1 $126 $26 $-1 $127 forward single #
loop $-1 $128 $129 $50 #
cone-surface $-1 -16.564665338739324 -43.976701031610645 15.107042268015334 0 0.64278761758704617 -0.76604443648966558 0.5 0 0 1 I I -0.70710678118654746 0.70710678118654746 0.5 forward I I I I #
loop $-1 $-1 $130 $33 #
coedge $-1 $81 $81 $131 $132 reversed $51 $-1 #
face $-1 $-1 $133 $27 $-1 $134 forward single #
loop $-1 $135 $136 $53 #
cone-surface $-1 -9.8458601604271507 -43.976701031610645 15.107042268015334 0 0.64278761758704617 -0.76604443648966558 0.5 0 0 1 I I -0.70710678118654746 0.70710678118654746 0.5 forward I I I I #
loop $-1 $-1 $137 $34 #
coedge $-1 $86 $86 $138 $139 reversed $54 $-1 #
face $-1 $140 $141 $21 $-1 $142 reversed single #
loop $-1 $-1 $143 $56 #
plane-surface $-1 0 -52.223168251413242 0 0 1 0 0 0 1 forward_v I I I I #
coedge $-1 $144 $145 $146 $147 forward $57 $-1 #
coedge $-1 $148 $59 $149 $150 forward $36 $-1 #
coedge $-1 $59 $148 $151 $152 forward $36 $-1 #
coedge $-1 $153 $154 $59 $94 reversed $155 $-1 #
edge $-1 $156 -52.223168251413242 $157 52.223168251413242 $93 $158 forward 7 unknown #
face $-1 $159 $160 $22 $-1 $161 reversed single #
loop $-1 $-1 $101 $60 #
plane-surface $-1 -90.36878543074323 0 22.195809285274823 0 0 1 1 0 0 forward_v I I I I #
coedge $-1 $162 $163 $100 $164 forward $61 $-1 #
coedge $-1 $165 $63 $166 $167 reversed $39 $-1 #
coedge $-1 $63 $165 $98 $164 reversed $39 $-1 #
coedge $-1 $168 $169 $63 $102 reversed $96 $-1 #
edge $-1 $170 -52.223168251413242 $171 52.223168251413242 $101 $172 forward 7 unknown #
face $-1 $173 $174 $23 $-1 $175 forward single #
loop $-1 $-1 $176 $64 #
plane-surface $-1 66.747474469730889 -38.961481843076982 0 0 -1 0 0 0 -1 forward_v I I I I #
coedge $-1 $177 $178 $179 $180 forward $65 $-1 #
coedge $-1 $181 $67 $182 $183 reversed $42 $-1 #
coedge $-1 $67 $181 $184 $185 reversed $42 $-1 #
coedge $-1 $178 $177 $67 $110 reversed $65 $-1 #
edge $-1 $186 -22.695809285274819 $187 22.695809285274819 $109 $188 forward 7 unknown #
face $-1 $189 $190 $24 $-1 $191 reversed single #
loop $-1 $-1 $192 $68 #
plane-surface $-1 -27.762673969259613 -150.04568619215445 128.6213043726753 1 0 0 0 0.64278761758704617 -0.76604443648966558 forward_v I I I I #
coedge $-1 $193 $194 $195 $196 reversed $69 $-1 #
coedge $-1 $116 $71 $197 $198 reversed $45 $-1 #
coedge $-1 $71 $115 $193 $199 reversed $45 $-1 #
coedge $-1 $195 $200 $71 $118 forward $201 $-1 #
edge $-1 $202 22.799674844663983 $203 35.497618025981815 $117 $204 forward 7 unknown #
loop $-1 $-1 $124 $72 #
plane-surface $-1 -16.564665338739317 -52.223168251413227 12.040969621955796 0 -0.64278761758704617 0.76604443648966558 1 0 0 forward_v I I I I #
loop $-1 $-1 $205 $47 #
coedge $-1 $122 $122 $123 $206 reversed $73 $-1 #
coedge $-1 $123 $123 $122 $206 forward $75 $-1 #
coedge $-1 $124 $124 $76 $125 forward $119 $-1 #
edge $-1 $207 2.2836403615650844e-015 $207 6.2831853071796031 $124 $208 forward 7 unknown #
loop $-1 $-1 $131 $77 #
plane-surface $-1 -16.564665338739317 -52.223168251413227 12.040969621955796 0 -0.64278761758704617 0.76604443648966558 1 0 0 forward_v I I I I #
loop $-1 $-1 $209 $50 #
coedge $-1 $129 $129 $130 $210 reversed $78 $-1 #
coedge $-1 $130 $130 $129 $210 forward $80 $-1 #
coedge $-1 $131 $131 $81 $132 forward $126 $-1 #
edge $-1 $211 2.2836403615650844e-015 $211 6.2831853071796031 $131 $212 forward 7 unknown #
loop $-1 $-1 $138 $82 #
plane-surface $-1 -16.564665338739317 -52.223168251413227 12.040969621955796 0 -0.64278761758704617 0.76604443648966558 1 0 0 forward_v I I I I #
loop $-1 $-1 $213 $53 #
coedge $-1 $136 $136 $137 $214 reversed $83 $-1 #
coedge $-1 $137 $137 $136 $214 forward $85 $-1 #
coedge $-1 $138 $138 $86 $139 forward $133 $-1 #
edge $-1 $215 2.2836403615650844e-015 $215 6.2831853071796031 $138 $216 forward 7 unknown #
face $-1 $217 $218 $21 $-1 $219 reversed single #
loop $-1 $-1 $220 $87 #
plane-surface $-1 -76.092410046693317 0 0 1 0 0 0 0 -1 forward_v I I I I #
coedge $-1 $221 $151 $222 $223 forward $88 $-1 #
coedge $-1 $224 $90 $221 $225 forward $57 $-1 #
coedge $-1 $90 $224 $226 $227 forward $57 $-1 #
coedge $-1 $154 $153 $90 $147 reversed $155 $-1 #
edge $-1 $228 -52.223168251413242 $229 52.223168251413242 $146 $230 forward 7 unknown #
coedge $-1 $92 $91 $231 $232 forward $36 $-1 #
coedge $-1 $233 $234 $91 $150 reversed $218 $-1 #
edge $-1 $157 -76.092410046693317 $235 76.092410046693317 $149 $236 forward 7 unknown #
coedge $-1 $143 $237 $92 $152 reversed $88 $-1 #
edge $-1 $238 -76.092410046693317 $156 76.092410046693317 $151 $239 forward 7 unknown #
coedge $-1 $146 $93 $237 $240 forward $155 $-1 #
coedge $-1 $93 $146 $233 $241 reversed $155 $-1 #
loop $-1 $-1 $153 $217 #
vertex $-1 $94 $242 #
vertex $-1 $94 $243 #
straight-curve $-1 76.092410046693317 0 22.695809285274819 0 1 0 I I #
face $-1 $244 $245 $22 $-1 $246 reversed single #
loop $-1 $-1 $247 $95 #
plane-surface $-1 -90.36878543074323 0 9.8067940454909994 0 0 1 1 0 0 forward_v I I I I #
coedge $-1 $248 $98 $249 $250 reversed $61 $-1 #
coedge $-1 $98 $248 $168 $251 reversed $61 $-1 #
edge $-1 $170 -22.195809285274823 $252 -9.8067940454909994 $98 $253 forward 7 unknown #
coedge $-1 $100 $99 $247 $254 forward $39 $-1 #
coedge $-1 $255 $256 $99 $167 forward $257 $-1 #
edge $-1 $258 9.8067940454909994 $171 22.195809285274823 $166 $259 forward 7 unknown #
coedge $-1 $260 $101 $163 $251 forward $96 $-1 #
coedge $-1 $101 $260 $255 $261 forward $96 $-1 #
vertex $-1 $164 $262 #
vertex $-1 $261 $263 #
straight-curve $-1 -76.092410046693317 0 22.195809285274823 0 -1 0 I I #
face $-1 $264 $265 $23 $-1 $266 reversed single #
loop $-1 $-1 $267 $103 #
plane-surface $-1 0 0 22.695809285274819 0 0 1 1 0 0 forward_v I I I I #
coedge $-1 $268 $269 $270 $271 reversed $104 $-1 #
coedge $-1 $109 $106 $272 $273 reversed $65 $-1 #
coedge $-1 $106 $109 $274 $275 reversed $65 $-1 #
coedge $-1 $269 $268 $106 $180 reversed $104 $-1 #
edge $-1 $276 -22.695809285274819 $277 22.695809285274819 $179 $278 forward 7 unknown #
coedge $-1 $108 $107 $279 $280 reversed $42 $-1 #
coedge $-1 $272 $281 $107 $183 forward $265 $-1 #
edge $-1 $282 -42.718672811827872 $187 -24.028801657903017 $182 $283 forward 7 unknown #
coedge $-1 $284 $274 $108 $185 forward $174 $-1 #
edge $-1 $186 24.028801657903017 $285 42.718672811827872 $184 $286 forward 7 unknown #
vertex $-1 $185 $287 #
vertex $-1 $183 $288 #
straight-curve $-1 57.402538892768462 -49.943325045629308 0 0 0 -1 I I #
face $-1 $-1 $201 $24 $-1 $289 forward single #
loop $-1 $-1 $290 $111 #
plane-surface $-1 0 -52.223168251413242 0 0 1 0 0 0 1 forward_v I I I I #
coedge $-1 $291 $292 $293 $294 reversed $112 $-1 #
coedge $-1 $295 $114 $116 $199 forward $69 $-1 #
coedge $-1 $114 $295 $291 $296 forward $69 $-1 #
coedge $-1 $293 $117 $114 $196 forward $201 $-1 #
edge $-1 $203 -2.9156759611506367 $297 19.480341299889954 $195 $298 forward 7 unknown #
coedge $-1 $299 $300 $115 $198 forward $190 $-1 #
edge $-1 $301 -52.269682564381867 $202 -41.614842901062829 $197 $302 forward 7 unknown #
edge $-1 $203 -16.575987731867201 $301 1.8878887457821222e-014 $116 $303 forward 7 unknown #
coedge $-1 $117 $293 $299 $304 forward $201 $-1 #
loop $-1 $-1 $293 $189 #
vertex $-1 $198 $305 #
vertex $-1 $118 $306 #
straight-curve $-1 -5.366656708219022 -75.022843096077224 22.695809285274819 0 1 0 I I #
coedge $-1 $205 $205 $-1 $307 reversed $121 $-1 #
edge $-1 $308 0 $308 6.2831853071796004 $122 $309 forward 7 unknown #
vertex $-1 $125 $310 #
ellipse-curve $-1 -23.283470517051498 -45.874196660754329 17.368389453615301 0 -0.64278761758704617 0.76604443648966558 1 0 0 1 I I #
coedge $-1 $209 $209 $-1 $311 reversed $128 $-1 #
edge $-1 $312 0 $312 6.2831853071796004 $129 $313 forward 7 unknown #
vertex $-1 $132 $314 #
ellipse-curve $-1 -16.564665338739324 -45.874196660754329 17.368389453615301 0 -0.64278761758704617 0.76604443648966558 1 0 0 1 I I #
coedge $-1 $213 $213 $-1 $315 reversed $135 $-1 #
edge $-1 $316 0 $316 6.2831853071796004 $136 $317 forward 7 unknown #
vertex $-1 $139 $318 #
ellipse-curve $-1 -9.8458601604271507 -45.874196660754329 17.368389453615301 0 -0.64278761758704617 0.76604443648966558 1 0 0 1 I I #
face $-1 $-1 $155 $21 $-1 $319 reversed single #
loop $-1 $-1 $233 $140 #
plane-surface $-1 0 52.223168251413242 0 0 -1 0 0 0 -1 forward_v I I I I #
coedge $-1 $320 $231 $234 $321 forward $141 $-1 #
coedge $-1 $237 $143 $144 $225 reversed $88 $-1 #
coedge $-1 $231 $320 $143 $223 reversed $141 $-1 #
edge $-1 $238 -22.695809285274819 $322 22.695809285274819 $222 $323 forward 7 unknown #
coedge $-1 $145 $144 $320 $324 forward $57 $-1 #
edge $-1 $229 -76.092410046693317 $322 76.092410046693317 $221 $325 forward 7 unknown #
coedge $-1 $234 $233 $145 $227 reversed $218 $-1 #
edge $-1 $326 -76.092410046693317 $228 76.092410046693317 $226 $327 forward 7 unknown #
vertex $-1 $147 $328 #
vertex $-1 $240 $329 #
straight-curve $-1 76.092410046693317 0 -22.695809285274819 0 -1 0 I I #
coedge $-1 $220 $222 $148 $232 reversed $141 $-1 #
edge $-1 $235 -52.223168251413242 $238 52.223168251413242 $231 $330 forward 7 unknown #
coedge $-1 $226 $149 $154 $241 forward $218 $-1 #
coedge $-1 $149 $226 $220 $321 reversed $218 $-1 #
vertex $-1 $150 $331 #
straight-curve $-1 0 52.223168251413242 22.695809285274819 -1 0 0 I I #
coedge $-1 $151 $221 $153 $240 reversed $88 $-1 #
vertex $-1 $232 $332 #
straight-curve $-1 0 -52.223168251413242 22.695809285274819 1 0 0 I I #
edge $-1 $156 -22.695809285274819 $229 22.695809285274819 $153 $333 forward 7 unknown #
edge $-1 $157 -22.695809285274819 $228 22.695809285274819 $154 $334 forward 7 unknown #
point $-1 76.092410046693317 -52.223168251413242 22.695809285274819 #
point $-1 76.092410046693317 52.223168251413242 22.695809285274819 #
face $-1 $-1 $257 $22 $-1 $335 reversed single #
loop $-1 $-1 $336 $159 #
plane-surface $-1 -104.64516081479314 0 16.001301665382911 1 0 0 0 0 -1 forward_v I I I I #
coedge $-1 $337 $249 $165 $254 reversed $160 $-1 #
coedge $-1 $163 $162 $336 $338 reversed $61 $-1 #
coedge $-1 $247 $339 $162 $250 forward $160 $-1 #
edge $-1 $340 -14.276375384049913 $252 14.276375384049913 $162 $341 forward 7 unknown #
edge $-1 $170 -14.276375384049913 $342 14.276375384049913 $163 $343 forward 7 unknown #
vertex $-1 $164 $344 #
straight-curve $-1 -76.092410046693317 52.223168251413242 0 0 0 -1 I I #
edge $-1 $258 -52.223168251413242 $252 52.223168251413242 $247 $345 forward 7 unknown #
coedge $-1 $346 $166 $169 $261 reversed $257 $-1 #
coedge $-1 $166 $346 $337 $347 reversed $257 $-1 #
loop $-1 $-1 $166 $244 #
vertex $-1 $167 $348 #
straight-curve $-1 -76.092410046693317 -52.223168251413242 0 0 0 1 I I #
coedge $-1 $169 $168 $349 $350 forward $96 $-1 #
edge $-1 $351 -14.276375384049913 $171 14.276375384049913 $255 $352 forward 7 unknown #
point $-1 -76.092410046693317 52.223168251413242 22.195809285274823 #
point $-1 -76.092410046693317 -52.223168251413242 22.195809285274823 #
face $-1 $-1 $353 $23 $-1 $354 reversed single #
loop $-1 $-1 $355 $173 #
plane-surface $-1 0 0 -22.695809285274819 0 0 1 1 0 0 forward_v I I I I #
coedge $-1 $274 $284 $269 $356 forward $174 $-1 #
coedge $-1 $179 $176 $355 $357 reversed $104 $-1 #
coedge $-1 $176 $179 $267 $356 reversed $104 $-1 #
coedge $-1 $358 $359 $176 $271 forward $353 $-1 #
edge $-1 $360 -22.695809285274819 $361 22.695809285274819 $270 $362 forward 7 unknown #
coedge $-1 $355 $182 $177 $273 forward $265 $-1 #
edge $-1 $187 -27.717123323452736 $277 -16.735280120900409 $272 $363 forward 7 unknown #
coedge $-1 $184 $267 $178 $275 forward $174 $-1 #
edge $-1 $276 16.735280120900409 $186 27.717123323452736 $274 $364 forward 7 unknown #
vertex $-1 $275 $365 #
vertex $-1 $273 $366 #
straight-curve $-1 57.402538892768462 -38.961481843076982 0 0 0 -1 I I #
coedge $-1 $359 $358 $181 $280 forward $353 $-1 #
edge $-1 $285 -22.695809285274819 $282 22.695809285274819 $279 $367 forward 7 unknown #
coedge $-1 $182 $355 $359 $368 forward $265 $-1 #
vertex $-1 $280 $369 #
straight-curve $-1 33.373737234865445 -49.943325045629308 -22.695809285274819 -1 0 0 I I #
coedge $-1 $267 $184 $358 $370 forward $174 $-1 #
vertex $-1 $370 $371 #
straight-curve $-1 33.373737234865445 -49.943325045629308 22.695809285274819 1 0 0 I I #
point $-1 57.402538892768462 -49.943325045629308 22.695809285274819 #
point $-1 57.402538892768462 -49.943325045629308 -22.695809285274819 #
plane-surface $-1 0 0 22.695809285274819 0 0 1 1 0 0 forward_v I I I I #
coedge $-1 $300 $299 $292 $372 forward $190 $-1 #
coedge $-1 $292 $192 $194 $296 reversed $112 $-1 #
coedge $-1 $192 $291 $290 $372 reversed $112 $-1 #
coedge $-1 $200 $195 $192 $294 forward $201 $-1 #
edge $-1 $297 -35.497618025981815 $373 -22.799674844663983 $293 $374 forward 7 unknown #
coedge $-1 $194 $193 $300 $375 reversed $69 $-1 #
edge $-1 $376 -1.8878887457821222e-014 $297 16.575987731867201 $291 $377 forward 7 unknown #
vertex $-1 $196 $378 #
straight-curve $-1 -8.2823326693696586 -39.525225070095409 22.695809285274819 -1 0 0 I I #
coedge $-1 $290 $197 $200 $304 reversed $190 $-1 #
coedge $-1 $197 $290 $295 $375 forward $190 $-1 #
vertex $-1 $198 $379 #
straight-curve $-1 -5.366656708219022 -52.223168251413242 64.310652186337649 0 0 1 I I #
straight-curve $-1 -5.366656708219022 -52.223168251413227 12.040969621955796 0 -0.76604443648966558 -0.64278761758704617 I I #
edge $-1 $373 -27.762673969259613 $202 -5.366656708219022 $299 $380 forward 7 unknown #
point $-1 -5.366656708219022 -52.223168251413242 22.695809285274819 #
point $-1 -5.366656708219022 -39.525225070095409 22.695809285274819 #
edge $-1 $381 1 $381 0 $205 $-1 forward 7 unknown #
vertex $-1 $206 $382 #
ellipse-curve $-1 -23.283470517051498 -44.298094840404168 15.490064486260167 0 -0.64278761758704617 0.76604443648966558 1 0 0 1 I I #
point $-1 -22.283470517051498 -45.874196660754329 17.368389453615304 #
edge $-1 $383 1 $383 0 $209 $-1 forward 7 unknown #
vertex $-1 $210 $384 #
ellipse-curve $-1 -16.564665338739324 -44.298094840404168 15.490064486260167 0 -0.64278761758704617 0.76604443648966558 1 0 0 1 I I #
point $-1 -15.564665338739324 -45.874196660754329 17.368389453615304 #
edge $-1 $385 1 $385 0 $213 $-1 forward 7 unknown #
vertex $-1 $214 $386 #
ellipse-curve $-1 -9.8458601604271507 -44.298094840404168 15.490064486260167 0 -0.64278761758704617 0.76604443648966558 1 0 0 1 I I #
point $-1 -8.8458601604271507 -45.874196660754329 17.368389453615304 #
plane-surface $-1 76.092410046693317 0 0 -1 0 0 0 0 1 forward_v I I I I #
coedge $-1 $222 $220 $224 $324 reversed $141 $-1 #
edge $-1 $235 -22.695809285274819 $326 22.695809285274819 $234 $387 forward 7 unknown #
vertex $-1 $324 $388 #
straight-curve $-1 -76.092410046693317 -52.223168251413242 0 0 0 -1 I I #
edge $-1 $322 -52.223168251413242 $326 52.223168251413242 $320 $389 forward 7 unknown #
straight-curve $-1 0 -52.223168251413242 -22.695809285274819 -1 0 0 I I #
vertex $-1 $227 $390 #
straight-curve $-1 0 52.223168251413242 -22.695809285274819 1 0 0 I I #
point $-1 76.092410046693317 52.223168251413242 -22.695809285274819 #
point $-1 76.092410046693317 -52.223168251413242 -22.695809285274819 #
straight-curve $-1 -76.092410046693317 0 22.695809285274819 0 -1 0 I I #
point $-1 -76.092410046693317 52.223168251413242 22.695809285274819 #
point $-1 -76.092410046693317 -52.223168251413242 22.695809285274819 #
straight-curve $-1 76.092410046693317 -52.223168251413242 0 0 0 -1 I I #
straight-curve $-1 76.092410046693317 52.223168251413242 0 0 0 -1 I I #
plane-surface $-1 0 -52.223168251413242 0 0 1 0 0 0 1 forward_v I I I I #
coedge $-1 $391 $349 $248 $338 forward $245 $-1 #
coedge $-1 $339 $247 $256 $347 forward $160 $-1 #
edge $-1 $342 -6.1945076198919118 $340 6.1945076198919118 $248 $392 forward 7 unknown #
coedge $-1 $249 $337 $391 $393 forward $160 $-1 #
vertex $-1 $250 $394 #
straight-curve $-1 -90.36878543074323 52.223168251413242 9.8067940454909994 1 0 0 I I #
vertex $-1 $251 $395 #
straight-curve $-1 -90.36878543074323 52.223168251413242 22.195809285274823 -1 0 0 I I #
point $-1 -76.092410046693317 52.223168251413242 9.8067940454909994 #
straight-curve $-1 -76.092410046693317 0 9.8067940454909994 0 1 0 I I #
coedge $-1 $256 $255 $396 $397 forward $257 $-1 #
edge $-1 $258 -14.276375384049913 $398 14.276375384049913 $256 $399 forward 7 unknown #
point $-1 -76.092410046693317 -52.223168251413242 9.8067940454909994 #
coedge $-1 $336 $396 $260 $350 reversed $245 $-1 #
edge $-1 $342 -52.223168251413242 $351 52.223168251413242 $349 $400 forward 7 unknown #
vertex $-1 $350 $401 #
straight-curve $-1 -90.36878543074323 -52.223168251413242 22.195809285274823 1 0 0 I I #
loop $-1 $-1 $270 $264 #
plane-surface $-1 76.092410046693317 0 0 -1 0 0 0 0 1 forward_v I I I I #
coedge $-1 $281 $272 $268 $357 forward $265 $-1 #
edge $-1 $361 -42.718672811827872 $276 -24.028801657903017 $267 $402 forward 7 unknown #
edge $-1 $277 24.028801657903017 $360 42.718672811827872 $355 $403 forward 7 unknown #
coedge $-1 $279 $270 $284 $370 reversed $353 $-1 #
coedge $-1 $270 $279 $281 $368 reversed $353 $-1 #
vertex $-1 $368 $404 #
vertex $-1 $271 $405 #
straight-curve $-1 76.092410046693317 -38.961481843076982 0 0 0 1 I I #
straight-curve $-1 57.402538892768462 -22.226201722176572 -22.695809285274819 0 1 0 I I #
straight-curve $-1 57.402538892768462 -22.226201722176572 22.695809285274819 0 -1 0 I I #
point $-1 57.402538892768462 -38.961481843076982 22.695809285274819 #
point $-1 57.402538892768462 -38.961481843076982 -22.695809285274819 #
straight-curve $-1 76.092410046693317 -49.943325045629308 0 0 0 -1 I I #
edge $-1 $360 38.961481843076982 $282 49.943325045629308 $359 $406 forward 7 unknown #
point $-1 76.092410046693317 -49.943325045629308 -22.695809285274819 #
edge $-1 $285 -49.943325045629308 $361 -38.961481843076982 $358 $407 forward 7 unknown #
point $-1 76.092410046693317 -49.943325045629308 22.695809285274819 #
edge $-1 $373 41.614842901062829 $376 52.269682564381867 $290 $408 forward 7 unknown #
vertex $-1 $304 $409 #
straight-curve $-1 -27.762673969259613 -75.022843096077224 22.695809285274819 0 -1 0 I I #
edge $-1 $376 -19.480341299889954 $301 2.9156759611506367 $300 $410 forward 7 unknown #
vertex $-1 $375 $411 #
straight-curve $-1 -27.762673969259613 -52.223168251413227 12.040969621955796 0 0.76604443648966558 0.64278761758704617 I I #
point $-1 -27.762673969259613 -39.525225070095409 22.695809285274819 #
point $-1 -5.366656708219022 -52.223168251413242 12.040969621955783 #
straight-curve $-1 0 -52.223168251413242 22.695809285274819 1 0 0 I I #
vertex $-1 $307 $412 #
point $-1 -22.283470517051498 -44.298094840404168 15.490064486260167 #
vertex $-1 $311 $413 #
point $-1 -15.564665338739324 -44.298094840404168 15.490064486260167 #
vertex $-1 $315 $414 #
point $-1 -8.8458601604271507 -44.298094840404168 15.490064486260167 #
straight-curve $-1 -76.092410046693317 52.223168251413242 0 0 0 -1 I I #
point $-1 -76.092410046693317 -52.223168251413242 -22.695809285274819 #
straight-curve $-1 -76.092410046693317 0 -22.695809285274819 0 1 0 I I #
point $-1 -76.092410046693317 52.223168251413242 -22.695809285274819 #
coedge $-1 $396 $336 $339 $393 reversed $245 $-1 #
straight-curve $-1 -104.64516081479314 52.223168251413242 16.001301665382911 0 0 -1 I I #
edge $-1 $398 -52.223168251413242 $340 52.223168251413242 $391 $415 forward 7 unknown #
point $-1 -104.64516081479314 52.223168251413242 9.8067940454909994 #
point $-1 -104.64516081479314 52.223168251413242 22.195809285274823 #
coedge $-1 $349 $391 $346 $397 reversed $245 $-1 #
edge $-1 $351 -6.1945076198919118 $398 6.1945076198919118 $396 $416 forward 7 unknown #
vertex $-1 $393 $417 #
straight-curve $-1 -90.36878543074323 -52.223168251413242 9.8067940454909994 -1 0 0 I I #
straight-curve $-1 -104.64516081479314 0 22.195809285274823 0 -1 0 I I #
point $-1 -104.64516081479314 -52.223168251413242 22.195809285274823 #
straight-curve $-1 33.373737234865445 -38.961481843076982 22.695809285274819 -1 0 0 I I #
straight-curve $-1 33.373737234865445 -38.961481843076982 -22.695809285274819 1 0 0 I I #
point $-1 76.092410046693317 -38.961481843076982 -22.695809285274819 #
point $-1 76.092410046693317 -38.961481843076982 22.695809285274819 #
straight-curve $-1 76.092410046693317 0 -22.695809285274819 0 -1 0 I I #
straight-curve $-1 76.092410046693317 0 22.695809285274819 0 1 0 I I #
straight-curve $-1 -27.762673969259613 -52.223168251413242 64.310652186337649 0 0 -1 I I #
point $-1 -27.762673969259613 -52.223168251413242 22.695809285274819 #
straight-curve $-1 -8.2823326693696586 -52.223168251413242 12.040969621955782 1 0 0 I I #
point $-1 -27.762673969259613 -52.223168251413242 12.040969621955783 #
point $-1 -23.283470517051498 -43.655307222817122 14.724020049770502 #
point $-1 -16.564665338739324 -43.655307222817122 14.724020049770502 #
point $-1 -9.8458601604271507 -43.655307222817122 14.724020049770502 #
straight-curve $-1 -104.64516081479314 0 9.8067940454909994 0 1 0 I I #
straight-curve $-1 -104.64516081479314 -52.223168251413242 16.001301665382911 0 0 -1 I I #
point $-1 -104.64516081479314 -52.223168251413242 9.8067940454909994 #
End-of-ACIS-data 