500 0 8 0           
7 Unknown 11 ACIS 5.0 NT 24 Thu Mar 25 15:30:23 1999 
-1 9.9999999999999995e-007 1e-010 
body $-1 $8 $-1 $9 #
body $-1 $10 $-1 $11 #
body $-1 $12 $-1 $13 #
body $-1 $14 $-1 $15 #
body $-1 $16 $-1 $17 #
body $-1 $18 $-1 $19 #
body $-1 $20 $-1 $21 #
body $-1 $22 $-1 $23 #
lump $-1 $-1 $24 $0 #
transform $-1 1 0 0 0 1 0 0 0 1 47.613757744071776 30.735845284183224 6.8850094419966696 1 rotate no_reflect no_shear #
lump $-1 $-1 $25 $1 #
transform $-1 1 0 0 0 1 0 0 0 1 47.613757744071776 30.735845284183224 6.8850094419966696 1 rotate no_reflect no_shear #
lump $-1 $-1 $26 $2 #
transform $-1 1 0 0 0 1 0 0 0 1 47.613757744071776 30.735845284183224 6.8850094419966696 1 rotate no_reflect no_shear #
lump $-1 $-1 $27 $3 #
transform $-1 1 0 0 0 1 0 0 0 1 47.613757744071776 30.735845284183224 6.8850094419966696 1 rotate no_reflect no_shear #
lump $-1 $-1 $28 $4 #
transform $-1 1 0 0 0 1 0 0 0 1 47.613757744071776 30.735845284183224 6.8850094419966696 1 rotate no_reflect no_shear #
lump $-1 $-1 $29 $5 #
transform $-1 1 0 0 0 1 0 0 0 1 47.613757744071776 30.735845284183224 6.8850094419966696 1 rotate no_reflect no_shear #
lump $-1 $-1 $30 $6 #
transform $-1 1 0 0 0 1 0 0 0 1 47.613757744071776 30.735845284183224 6.8850094419966696 1 rotate no_reflect no_shear #
lump $-1 $-1 $31 $7 #
transform $-1 1 0 0 0 1 0 0 0 1 47.613757744071776 30.735845284183224 6.8850094419966696 1 rotate no_reflect no_shear #
shell $-1 $-1 $-1 $32 $-1 $8 #
shell $-1 $-1 $-1 $33 $-1 $10 #
shell $-1 $-1 $-1 $34 $-1 $12 #
shell $-1 $-1 $-1 $35 $-1 $14 #
shell $-1 $-1 $-1 $36 $-1 $16 #
shell $-1 $-1 $-1 $37 $-1 $18 #
shell $-1 $-1 $-1 $38 $-1 $20 #
shell $-1 $-1 $-1 $39 $-1 $22 #
face $-1 $40 $41 $24 $-1 $42 forward single #
face $-1 $43 $44 $25 $-1 $45 forward single #
face $-1 $46 $47 $26 $-1 $48 reversed single #
face $-1 $49 $50 $27 $-1 $51 forward single #
face $-1 $52 $53 $28 $-1 $54 forward single #
face $-1 $55 $56 $29 $-1 $57 forward single #
face $-1 $58 $59 $30 $-1 $60 reversed single #
face $-1 $61 $62 $31 $-1 $63 forward single #
face $-1 $64 $65 $24 $-1 $66 reversed single #
loop $-1 $-1 $67 $32 #
plane-surface $-1 0 0 6.8850094419966696 0 0 1 1 0 0 forward_v I I I I #
face $-1 $68 $69 $25 $-1 $70 reversed single #
loop $-1 $-1 $71 $33 #
plane-surface $-1 0 -28.16701836126612 2.0858808759031393 0 0 1 1 0 0 forward_v I I I I #
face $-1 $72 $73 $26 $-1 $74 reversed single #
loop $-1 $-1 $75 $34 #
plane-surface $-1 75.613652036169626 20.787239994575824 131.94231555536274 0 1 0 0.83867057594974714 0 0.54463902268945019 forward_v I I I I #
face $-1 $76 $77 $27 $-1 $78 forward single #
loop $-1 $79 $80 $35 #
cone-surface $-1 44.938145205229105 22.360948208822716 3.2183874485342856 -0.83867057594974714 0 -0.54463902268945019 0.2723195113447251 0 -0.41933528797487357 1 I I 0 1 0.5 forward I I I I #
face $-1 $81 $82 $28 $-1 $83 forward single #
loop $-1 $84 $85 $36 #
cone-surface $-1 44.938145205229105 24.721510530193047 3.2183874485342856 -0.83867057594974714 0 -0.54463902268945019 0.2723195113447251 0 -0.41933528797487357 1 I I 0 1 0.5 forward I I I I #
face $-1 $86 $87 $29 $-1 $88 forward single #
loop $-1 $89 $90 $37 #
cone-surface $-1 44.938145205229105 27.082072851563378 3.2183874485342856 -0.83867057594974714 0 -0.54463902268945019 0.2723195113447251 0 -0.41933528797487357 1 I I 0 1 0.5 forward I I I I #
face $-1 $91 $92 $30 $-1 $93 reversed single #
loop $-1 $-1 $94 $38 #
plane-surface $-1 -129.23967089370851 15.549821937010716 50.572434058390904 0 1 0 -0.85716730853699208 0 0.51503806187062418 forward_v I I I I #
face $-1 $95 $96 $31 $-1 $97 forward single #
loop $-1 $98 $99 $39 #
cone-surface $-1 -45.294326096829835 23.14283361059697 3.7794446545363791 0.85716730853699208 0 -0.51503806187062418 0.51503806187062418 0 0.85716730853699208 1 I I 0 1 1 forward I I I I #
face $-1 $100 $101 $24 $-1 $102 reversed single #
loop $-1 $-1 $103 $40 #
plane-surface $-1 0 0 -6.8850094419966696 0 0 1 1 0 0 forward_v I I I I #
coedge $-1 $104 $105 $106 $107 forward $41 $-1 #
face $-1 $108 $109 $25 $-1 $110 reversed single #
loop $-1 $-1 $111 $43 #
plane-surface $-1 0 -28.16701836126612 -0.91411912409686158 0 0 1 1 0 0 forward_v I I I I #
coedge $-1 $112 $113 $114 $115 reversed $44 $-1 #
face $-1 $116 $117 $26 $-1 $118 reversed single #
loop $-1 $-1 $119 $46 #
plane-surface $-1 -4.2508632245351947 24.721510530193047 80.077694586755754 0.83867057594974714 0 0.54463902268945019 0.54463902268945019 0 -0.83867057594974714 forward_v I I I I #
coedge $-1 $120 $121 $122 $123 reversed $47 $-1 #
face $-1 $-1 $124 $27 $-1 $125 forward single #
loop $-1 $126 $127 $49 #
cone-surface $-1 44.219233521606057 22.360948208822716 2.7515207573724068 -0.83867057594974714 0 -0.54463902268945019 0.13615975567236255 0 -0.20966764398743679 1 I I -0.70710678118654746 0.70710678118654746 0.25 forward I I I I #
loop $-1 $-1 $128 $35 #
coedge $-1 $80 $80 $129 $130 reversed $50 $-1 #
face $-1 $-1 $131 $28 $-1 $132 forward single #
loop $-1 $133 $134 $52 #
cone-surface $-1 44.219233521606057 24.721510530193047 2.7515207573724068 -0.83867057594974714 0 -0.54463902268945019 0.13615975567236255 0 -0.20966764398743679 1 I I -0.70710678118654746 0.70710678118654746 0.25 forward I I I I #
loop $-1 $-1 $135 $36 #
coedge $-1 $85 $85 $136 $137 reversed $53 $-1 #
face $-1 $-1 $138 $29 $-1 $139 forward single #
loop $-1 $140 $141 $55 #
cone-surface $-1 44.219233521606057 27.082072851563378 2.7515207573724068 -0.83867057594974714 0 -0.54463902268945019 0.13615975567236255 0 -0.20966764398743679 1 I I -0.70710678118654746 0.70710678118654746 0.25 forward I I I I #
loop $-1 $-1 $142 $37 #
coedge $-1 $90 $90 $143 $144 reversed $56 $-1 #
face $-1 $145 $146 $30 $-1 $147 forward single #
loop $-1 $-1 $148 $58 #
plane-surface $-1 -47.613757744071776 23.14283361059697 1.5266390446226055 -0.85716730853699208 0 0.51503806187062418 0.51503806187062418 0 0.85716730853699208 forward_v I I I I #
coedge $-1 $149 $150 $151 $152 reversed $59 $-1 #
face $-1 $-1 $153 $31 $-1 $154 forward single #
loop $-1 $155 $156 $61 #
cone-surface $-1 -44.156127616821152 23.14283361059697 3.0955460348278043 0.85716730853699208 0 -0.51503806187062418 0.25751903093531209 0 0.42858365426849604 1 I I -0.70710678118654746 0.70710678118654746 0.5 forward I I I I #
loop $-1 $-1 $157 $39 #
coedge $-1 $99 $99 $158 $159 reversed $62 $-1 #
face $-1 $160 $161 $24 $-1 $162 reversed single #
loop $-1 $-1 $163 $64 #
plane-surface $-1 0 -30.735845284183224 0 0 1 0 0 0 1 forward_v I I I I #
coedge $-1 $164 $165 $166 $167 forward $65 $-1 #
coedge $-1 $168 $67 $169 $170 forward $41 $-1 #
coedge $-1 $67 $168 $171 $172 forward $41 $-1 #
coedge $-1 $173 $174 $67 $107 reversed $175 $-1 #
edge $-1 $176 -30.735845284183224 $177 30.735845284183224 $106 $178 forward 7 unknown #
face $-1 $179 $180 $25 $-1 $181 reversed single #
loop $-1 $-1 $182 $68 #
plane-surface $-1 0 -25.598191438349016 0.58588087590313886 0 -1 0 0 0 -1 forward_v I I I I #
coedge $-1 $183 $184 $185 $186 reversed $69 $-1 #
coedge $-1 $187 $71 $188 $189 forward $44 $-1 #
coedge $-1 $71 $187 $190 $191 reversed $44 $-1 #
coedge $-1 $192 $193 $71 $115 forward $194 $-1 #
edge $-1 $195 11.514682257715956 $196 16.652336103550162 $114 $197 forward 7 unknown #
face $-1 $198 $199 $26 $-1 $200 forward single #
loop $-1 $-1 $201 $72 #
plane-surface $-1 75.613652036169626 28.65578106581027 131.94231555536274 0 -1 0 -0.83867057594974714 0 -0.54463902268945019 forward_v I I I I #
coedge $-1 $202 $203 $204 $205 reversed $73 $-1 #
coedge $-1 $121 $75 $206 $207 reversed $47 $-1 #
coedge $-1 $75 $120 $202 $208 reversed $47 $-1 #
coedge $-1 $204 $209 $75 $123 forward $210 $-1 #
edge $-1 $211 59.086148335684697 $212 65.757978451630407 $122 $213 forward 7 unknown #
loop $-1 $-1 $129 $76 #
plane-surface $-1 -4.2508632245351947 24.721510530193047 80.077694586755754 0.83867057594974714 0 0.54463902268945019 0.54463902268945019 0 -0.83867057594974714 forward_v I I I I #
loop $-1 $-1 $214 $49 #
coedge $-1 $127 $127 $128 $215 reversed $77 $-1 #
coedge $-1 $128 $128 $127 $215 forward $79 $-1 #
coedge $-1 $129 $129 $80 $130 forward $124 $-1 #
edge $-1 $216 0 $216 6.2831853071796004 $129 $217 forward 7 unknown #
loop $-1 $-1 $136 $81 #
plane-surface $-1 -4.2508632245351947 24.721510530193047 80.077694586755754 0.83867057594974714 0 0.54463902268945019 0.54463902268945019 0 -0.83867057594974714 forward_v I I I I #
loop $-1 $-1 $218 $52 #
coedge $-1 $134 $134 $135 $219 reversed $82 $-1 #
coedge $-1 $135 $135 $134 $219 forward $84 $-1 #
coedge $-1 $136 $136 $85 $137 forward $131 $-1 #
edge $-1 $220 0 $220 6.2831853071796004 $136 $221 forward 7 unknown #
loop $-1 $-1 $143 $86 #
plane-surface $-1 -4.2508632245351947 24.721510530193047 80.077694586755754 0.83867057594974714 0 0.54463902268945019 0.54463902268945019 0 -0.83867057594974714 forward_v I I I I #
loop $-1 $-1 $222 $55 #
coedge $-1 $141 $141 $142 $223 reversed $87 $-1 #
coedge $-1 $142 $142 $141 $223 forward $89 $-1 #
coedge $-1 $143 $143 $90 $144 forward $138 $-1 #
edge $-1 $224 0 $224 6.2831853071796004 $143 $225 forward 7 unknown #
face $-1 $226 $227 $30 $-1 $228 reversed single #
loop $-1 $-1 $151 $91 #
plane-surface $-1 0 0 6.8850094419966696 0 0 1 1 0 0 forward_v I I I I #
coedge $-1 $229 $230 $231 $232 reversed $92 $-1 #
coedge $-1 $150 $94 $233 $234 reversed $59 $-1 #
coedge $-1 $94 $149 $229 $235 reversed $59 $-1 #
coedge $-1 $231 $236 $94 $152 forward $146 $-1 #
edge $-1 $237 17.006077702782477 $238 20.225711345785982 $151 $239 forward 7 unknown #
loop $-1 $-1 $158 $95 #
plane-surface $-1 -47.613757744071776 23.14283361059697 1.5266390446226055 -0.85716730853699208 0 0.51503806187062418 0.51503806187062418 0 0.85716730853699208 forward_v I I I I #
loop $-1 $-1 $240 $61 #
coedge $-1 $156 $156 $157 $241 reversed $96 $-1 #
coedge $-1 $157 $157 $156 $241 forward $98 $-1 #
coedge $-1 $158 $158 $99 $159 forward $153 $-1 #
edge $-1 $242 0 $242 6.2831853071796004 $158 $243 forward 7 unknown #
face $-1 $244 $245 $24 $-1 $246 reversed single #
loop $-1 $-1 $247 $100 #
plane-surface $-1 -47.613757744071776 0 0 1 0 0 0 0 -1 forward_v I I I I #
coedge $-1 $248 $171 $249 $250 forward $101 $-1 #
coedge $-1 $251 $103 $248 $252 forward $65 $-1 #
coedge $-1 $103 $251 $253 $254 forward $65 $-1 #
coedge $-1 $174 $173 $103 $167 reversed $175 $-1 #
edge $-1 $255 -30.735845284183224 $256 30.735845284183224 $166 $257 forward 7 unknown #
coedge $-1 $105 $104 $258 $259 forward $41 $-1 #
coedge $-1 $260 $261 $104 $170 reversed $245 $-1 #
edge $-1 $177 -47.613757744071776 $262 47.613757744071776 $169 $263 forward 7 unknown #
coedge $-1 $163 $264 $105 $172 reversed $101 $-1 #
edge $-1 $265 -47.613757744071776 $176 47.613757744071776 $171 $266 forward 7 unknown #
coedge $-1 $166 $106 $264 $267 forward $175 $-1 #
coedge $-1 $106 $166 $260 $268 reversed $175 $-1 #
loop $-1 $-1 $173 $244 #
vertex $-1 $107 $269 #
vertex $-1 $107 $270 #
straight-curve $-1 47.613757744071776 0 6.8850094419966696 0 1 0 I I #
face $-1 $271 $272 $25 $-1 $273 reversed single #
loop $-1 $-1 $274 $108 #
plane-surface $-1 -47.613757744071776 0 0 1 0 0 0 0 -1 forward_v I I I I #
coedge $-1 $275 $188 $193 $276 reversed $109 $-1 #
coedge $-1 $277 $111 $278 $279 reversed $69 $-1 #
coedge $-1 $111 $277 $275 $280 forward $69 $-1 #
coedge $-1 $193 $192 $111 $186 forward $194 $-1 #
edge $-1 $281 -16.652336103550162 $282 -11.514682257715956 $185 $283 forward 7 unknown #
coedge $-1 $113 $112 $274 $284 reversed $44 $-1 #
coedge $-1 $182 $285 $112 $189 reversed $109 $-1 #
edge $-1 $195 -47.613757744071776 $286 47.613757744071776 $188 $287 forward 7 unknown #
coedge $-1 $288 $289 $113 $191 forward $272 $-1 #
edge $-1 $196 -47.613757744071776 $290 47.613757744071776 $190 $291 forward 7 unknown #
coedge $-1 $185 $114 $289 $292 forward $194 $-1 #
coedge $-1 $114 $185 $182 $276 forward $194 $-1 #
loop $-1 $-1 $114 $271 #
vertex $-1 $115 $293 #
vertex $-1 $292 $294 #
straight-curve $-1 47.613757744071776 -14.08350918063306 2.0858808759031393 0 -1 0 I I #
face $-1 $-1 $210 $26 $-1 $295 reversed single #
loop $-1 $-1 $296 $116 #
plane-surface $-1 0 0 6.8850094419966696 0 0 1 1 0 0 forward_v I I I I #
coedge $-1 $297 $298 $299 $300 reversed $117 $-1 #
coedge $-1 $301 $119 $121 $208 forward $73 $-1 #
coedge $-1 $119 $301 $297 $302 forward $73 $-1 #
coedge $-1 $299 $122 $119 $205 forward $210 $-1 #
edge $-1 $212 8.4264847294793004 $303 16.295025800713745 $204 $304 forward 7 unknown #
coedge $-1 $305 $306 $120 $207 forward $199 $-1 #
edge $-1 $307 5.4741947275728862 $211 9.8069317259869635 $206 $308 forward 7 unknown #
edge $-1 $212 -95.227515488143524 $307 -87.272270237777803 $121 $309 forward 7 unknown #
coedge $-1 $122 $299 $305 $310 reversed $210 $-1 #
loop $-1 $-1 $299 $198 #
vertex $-1 $310 $311 #
vertex $-1 $123 $312 #
straight-curve $-1 47.613757744071776 20.787239994575824 65.97115777768137 0 0 -1 I I #
coedge $-1 $214 $214 $-1 $313 reversed $126 $-1 #
edge $-1 $314 0 $314 6.2831853071796004 $127 $315 forward 7 unknown #
vertex $-1 $130 $316 #
ellipse-curve $-1 45.447389244864738 22.360948208822716 3.5490943840238116 0.83867057594974714 0 0.54463902268945019 0.2723195113447251 0 -0.41933528797487357 1 I I #
coedge $-1 $218 $218 $-1 $317 reversed $133 $-1 #
edge $-1 $318 0 $318 6.2831853071796004 $134 $319 forward 7 unknown #
vertex $-1 $137 $320 #
ellipse-curve $-1 45.447389244864738 24.721510530193047 3.5490943840238116 0.83867057594974714 0 0.54463902268945019 0.2723195113447251 0 -0.41933528797487357 1 I I #
coedge $-1 $222 $222 $-1 $321 reversed $140 $-1 #
edge $-1 $322 0 $322 6.2831853071796004 $141 $323 forward 7 unknown #
vertex $-1 $144 $324 #
ellipse-curve $-1 45.447389244864738 27.082072851563378 3.5490943840238116 0.83867057594974714 0 0.54463902268945019 0.2723195113447251 0 -0.41933528797487357 1 I I #
face $-1 $-1 $325 $30 $-1 $326 reversed single #
loop $-1 $-1 $327 $145 #
plane-surface $-1 0 30.735845284183224 0 0 -1 0 0 0 -1 forward_v I I I I #
coedge $-1 $328 $148 $150 $235 forward $92 $-1 #
coedge $-1 $148 $328 $327 $329 reversed $92 $-1 #
coedge $-1 $330 $151 $148 $232 forward $146 $-1 #
edge $-1 $238 3.9784051317122309 $331 19.164428478884737 $231 $332 forward 7 unknown #
coedge $-1 $333 $334 $149 $234 forward $325 $-1 #
edge $-1 $335 -23.759577984572847 $237 -18.401207587198783 $233 $336 forward 7 unknown #
edge $-1 $238 -6.2512538030874039 $335 0 $150 $337 forward 7 unknown #
coedge $-1 $151 $330 $333 $338 forward $146 $-1 #
vertex $-1 $234 $339 #
vertex $-1 $152 $340 #
straight-curve $-1 -64.619835446854253 15.549821937010716 6.8850094419966688 1 0 0 I I #
coedge $-1 $240 $240 $-1 $341 reversed $155 $-1 #
edge $-1 $342 0 $342 6.2831853071796004 $156 $343 forward 7 unknown #
vertex $-1 $159 $344 #
ellipse-curve $-1 -46.003940922570024 23.14283361059697 4.2058242433096416 -0.85716730853699208 0 0.51503806187062418 0.51503806187062418 0 0.85716730853699208 1 I I #
face $-1 $-1 $175 $24 $-1 $345 reversed single #
loop $-1 $-1 $260 $160 #
plane-surface $-1 0 30.735845284183224 0 0 -1 0 0 0 -1 forward_v I I I I #
coedge $-1 $346 $258 $261 $347 forward $161 $-1 #
coedge $-1 $264 $163 $164 $252 reversed $101 $-1 #
coedge $-1 $258 $346 $163 $250 reversed $161 $-1 #
edge $-1 $265 -6.8850094419966696 $348 6.8850094419966696 $249 $349 forward 7 unknown #
coedge $-1 $165 $164 $346 $350 forward $65 $-1 #
edge $-1 $256 -47.613757744071776 $348 47.613757744071776 $248 $351 forward 7 unknown #
coedge $-1 $261 $260 $165 $254 reversed $245 $-1 #
edge $-1 $352 -47.613757744071776 $255 47.613757744071776 $253 $353 forward 7 unknown #
vertex $-1 $167 $354 #
vertex $-1 $267 $355 #
straight-curve $-1 47.613757744071776 0 -6.8850094419966696 0 -1 0 I I #
coedge $-1 $247 $249 $168 $259 reversed $161 $-1 #
edge $-1 $262 -30.735845284183224 $265 30.735845284183224 $258 $356 forward 7 unknown #
coedge $-1 $253 $169 $174 $268 forward $245 $-1 #
coedge $-1 $169 $253 $247 $347 reversed $245 $-1 #
vertex $-1 $170 $357 #
straight-curve $-1 0 30.735845284183224 6.8850094419966696 -1 0 0 I I #
coedge $-1 $171 $248 $173 $267 reversed $101 $-1 #
vertex $-1 $259 $358 #
straight-curve $-1 0 -30.735845284183224 6.8850094419966696 1 0 0 I I #
edge $-1 $176 -6.8850094419966696 $256 6.8850094419966696 $173 $359 forward 7 unknown #
edge $-1 $177 -6.8850094419966696 $255 6.8850094419966696 $174 $360 forward 7 unknown #
point $-1 47.613757744071776 -30.735845284183224 6.8850094419966696 #
point $-1 47.613757744071776 30.735845284183224 6.8850094419966696 #
face $-1 $-1 $194 $25 $-1 $361 reversed single #
loop $-1 $-1 $190 $179 #
plane-surface $-1 0 -30.735845284183224 0 0 1 0 0 0 1 forward_v I I I I #
coedge $-1 $362 $363 $187 $284 forward $180 $-1 #
coedge $-1 $285 $182 $184 $280 reversed $109 $-1 #
edge $-1 $282 -1.207059562048431 $195 1.7929404379515699 $193 $364 forward 7 unknown #
coedge $-1 $184 $183 $365 $366 reversed $69 $-1 #
coedge $-1 $289 $288 $183 $279 forward $272 $-1 #
edge $-1 $367 -47.613757744071776 $281 47.613757744071776 $278 $368 forward 7 unknown #
edge $-1 $369 -47.613757744071776 $282 47.613757744071776 $275 $370 forward 7 unknown #
vertex $-1 $279 $371 #
vertex $-1 $186 $372 #
straight-curve $-1 47.613757744071776 -14.08350918063306 -0.91411912409686158 0 1 0 I I #
edge $-1 $290 -16.652336103550162 $286 -11.514682257715956 $274 $373 forward 7 unknown #
coedge $-1 $188 $275 $362 $374 reversed $109 $-1 #
vertex $-1 $284 $375 #
straight-curve $-1 0 -25.598191438349016 2.0858808759031393 -1 0 0 I I #
coedge $-1 $278 $190 $363 $376 forward $272 $-1 #
coedge $-1 $190 $278 $192 $292 reversed $272 $-1 #
vertex $-1 $376 $377 #
straight-curve $-1 0 -30.735845284183224 2.0858808759031393 -1 0 0 I I #
edge $-1 $196 -2.0858808759031393 $281 0.91411912409686158 $192 $378 forward 7 unknown #
point $-1 47.613757744071776 -25.598191438349016 2.0858808759031393 #
point $-1 47.613757744071776 -30.735845284183224 2.0858808759031393 #
plane-surface $-1 47.613757744071776 0 0 -1 0 0 0 0 1 forward_v I I I I #
coedge $-1 $306 $305 $298 $379 forward $199 $-1 #
coedge $-1 $298 $201 $203 $302 reversed $117 $-1 #
coedge $-1 $201 $297 $296 $379 reversed $117 $-1 #
coedge $-1 $209 $204 $201 $300 forward $210 $-1 #
edge $-1 $303 -65.757978451630407 $380 -59.086148335684697 $299 $381 forward 7 unknown #
coedge $-1 $203 $202 $306 $382 reversed $73 $-1 #
edge $-1 $383 87.272270237777803 $303 95.227515488143524 $297 $384 forward 7 unknown #
vertex $-1 $205 $385 #
straight-curve $-1 47.613757744071776 12.360755265096524 0.21317932605095535 0 1 0 I I #
coedge $-1 $296 $206 $209 $310 forward $199 $-1 #
coedge $-1 $206 $296 $301 $382 forward $199 $-1 #
vertex $-1 $207 $386 #
straight-curve $-1 37.806826018084813 20.787239994575824 6.8850094419966723 1 0 0 I I #
straight-curve $-1 -4.2508632245351947 20.787239994575824 80.077694586755754 -0.54463902268945019 0 0.83867057594974714 I I #
edge $-1 $211 20.787239994575824 $380 28.65578106581027 $209 $387 forward 7 unknown #
point $-1 47.613757744071776 20.787239994575824 6.8850094419966696 #
point $-1 47.613757744071776 20.787239994575824 0.21317932605096246 #
edge $-1 $388 1 $388 0 $214 $-1 forward 7 unknown #
vertex $-1 $215 $389 #
ellipse-curve $-1 44.428901165593494 22.360948208822716 2.8876805130447694 0.83867057594974714 0 0.54463902268945019 0.2723195113447251 0 -0.41933528797487357 1 I I #
point $-1 45.71970875620945 22.360948208822716 3.1297590960489283 #
edge $-1 $390 1 $390 0 $218 $-1 forward 7 unknown #
vertex $-1 $219 $391 #
ellipse-curve $-1 44.428901165593494 24.721510530193047 2.8876805130447694 0.83867057594974714 0 0.54463902268945019 0.2723195113447251 0 -0.41933528797487357 1 I I #
point $-1 45.71970875620945 24.721510530193047 3.1297590960489283 #
edge $-1 $392 1 $392 0 $222 $-1 forward 7 unknown #
vertex $-1 $223 $393 #
ellipse-curve $-1 44.428901165593494 27.082072851563378 2.8876805130447694 0.83867057594974714 0 0.54463902268945019 0.2723195113447251 0 -0.41933528797487357 1 I I #
point $-1 45.71970875620945 27.082072851563378 3.1297590960489283 #
loop $-1 $-1 $233 $226 #
plane-surface $-1 -47.613757744071776 0 0 1 0 0 0 0 -1 forward_v I I I I #
coedge $-1 $394 $395 $230 $329 forward $227 $-1 #
coedge $-1 $230 $229 $334 $396 reversed $92 $-1 #
edge $-1 $331 5.3559024098613524 $397 11.607156212948755 $327 $398 forward 7 unknown #
coedge $-1 $236 $231 $395 $399 forward $146 $-1 #
vertex $-1 $399 $400 #
straight-curve $-1 -44.394124101068272 11.571416805298485 6.8850094419966688 0 1 0 I I #
coedge $-1 $401 $233 $236 $338 reversed $325 $-1 #
coedge $-1 $233 $401 $328 $396 forward $325 $-1 #
vertex $-1 $234 $402 #
straight-curve $-1 -47.613757744071776 15.549821937010716 25.286217029195452 0 0 1 I I #
straight-curve $-1 -47.613757744071776 15.549821937010716 1.5266390446226055 -0.51503806187062418 0 -0.85716730853699208 I I #
edge $-1 $403 -30.735845284183224 $237 -15.549821937010716 $333 $404 forward 7 unknown #
point $-1 -47.613757744071776 15.549821937010716 6.8850094419966696 #
point $-1 -44.394124101068272 15.549821937010716 6.8850094419966696 #
edge $-1 $405 1 $405 0 $240 $-1 forward 7 unknown #
vertex $-1 $241 $406 #
ellipse-curve $-1 -44.584711271089645 23.14283361059697 3.3530650657631162 -0.85716730853699208 0 0.51503806187062418 0.51503806187062418 0 0.85716730853699208 1 I I #
point $-1 -45.488902860699397 23.14283361059697 5.0629915518466335 #
plane-surface $-1 47.613757744071776 0 0 -1 0 0 0 0 1 forward_v I I I I #
coedge $-1 $249 $247 $251 $350 reversed $161 $-1 #
edge $-1 $262 -6.8850094419966696 $352 6.8850094419966696 $261 $407 forward 7 unknown #
vertex $-1 $350 $408 #
straight-curve $-1 -47.613757744071776 -30.735845284183224 0 0 0 -1 I I #
edge $-1 $348 -30.735845284183224 $352 30.735845284183224 $346 $409 forward 7 unknown #
straight-curve $-1 0 -30.735845284183224 -6.8850094419966696 -1 0 0 I I #
vertex $-1 $254 $410 #
straight-curve $-1 0 30.735845284183224 -6.8850094419966696 1 0 0 I I #
point $-1 47.613757744071776 30.735845284183224 -6.8850094419966696 #
point $-1 47.613757744071776 -30.735845284183224 -6.8850094419966696 #
straight-curve $-1 -47.613757744071776 0 6.8850094419966696 0 -1 0 I I #
point $-1 -47.613757744071776 30.735845284183224 6.8850094419966696 #
point $-1 -47.613757744071776 -30.735845284183224 6.8850094419966696 #
straight-curve $-1 47.613757744071776 -30.735845284183224 0 0 0 -1 I I #
straight-curve $-1 47.613757744071776 30.735845284183224 0 0 0 -1 I I #
plane-surface $-1 47.613757744071776 0 0 -1 0 0 0 0 1 forward_v I I I I #
coedge $-1 $365 $274 $285 $374 forward $180 $-1 #
coedge $-1 $274 $365 $288 $376 reversed $180 $-1 #
straight-curve $-1 47.613757744071776 -25.598191438349016 0.29294043795156943 0 0 1 I I #
coedge $-1 $363 $362 $277 $366 forward $180 $-1 #
edge $-1 $369 11.514682257715956 $367 16.652336103550162 $365 $411 forward 7 unknown #
vertex $-1 $279 $412 #
straight-curve $-1 0 -30.735845284183224 -0.91411912409686158 1 0 0 I I #
vertex $-1 $366 $413 #
straight-curve $-1 0 -25.598191438349016 -0.91411912409686158 1 0 0 I I #
point $-1 47.613757744071776 -30.735845284183224 -0.91411912409686158 #
point $-1 47.613757744071776 -25.598191438349016 -0.91411912409686158 #
straight-curve $-1 -47.613757744071776 -14.08350918063306 2.0858808759031393 0 1 0 I I #
edge $-1 $286 -1.7929404379515699 $369 1.207059562048431 $362 $414 forward 7 unknown #
point $-1 -47.613757744071776 -25.598191438349016 2.0858808759031393 #
edge $-1 $290 -2.0858808759031393 $367 0.91411912409686158 $363 $415 forward 7 unknown #
point $-1 -47.613757744071776 -30.735845284183224 2.0858808759031393 #
straight-curve $-1 47.613757744071776 -30.735845284183224 0 0 0 -1 I I #
edge $-1 $380 -9.8069317259869635 $383 -5.4741947275728862 $296 $416 forward 7 unknown #
vertex $-1 $379 $417 #
straight-curve $-1 47.613757744071776 28.65578106581027 65.97115777768137 0 0 1 I I #
edge $-1 $383 -16.295025800713745 $307 -8.4264847294793004 $306 $418 forward 7 unknown #
vertex $-1 $382 $419 #
straight-curve $-1 -4.2508632245351947 28.65578106581027 80.077694586755754 0.54463902268945019 0 -0.83867057594974714 I I #
point $-1 47.613757744071776 28.65578106581027 0.21317932605096246 #
point $-1 43.281020745657699 20.787239994575824 6.8850094419966723 #
straight-curve $-1 47.613757744071776 0 6.8850094419966696 0 1 0 I I #
vertex $-1 $313 $420 #
point $-1 44.70122067693822 22.360948208822716 2.4683452250698958 #
vertex $-1 $317 $421 #
point $-1 44.70122067693822 24.721510530193047 2.4683452250698958 #
vertex $-1 $321 $422 #
point $-1 44.70122067693822 27.082072851563378 2.4683452250698958 #
coedge $-1 $395 $327 $401 $423 reversed $227 $-1 #
coedge $-1 $327 $394 $330 $399 reversed $227 $-1 #
edge $-1 $397 -19.164428478884737 $335 -3.9784051317122309 $334 $424 forward 7 unknown #
vertex $-1 $329 $425 #
straight-curve $-1 -41.635630504325071 30.735845284183224 11.475913895444313 -0.51503806187062429 0 -0.85716730853699219 I I #
edge $-1 $331 44.394124101068272 $403 47.613757744071776 $395 $426 forward 7 unknown #
point $-1 -44.394124101068272 30.735845284183224 6.8850094419966696 #
coedge $-1 $334 $333 $394 $423 forward $325 $-1 #
point $-1 -47.613757744071776 15.549821937010716 1.5266390446226055 #
vertex $-1 $399 $427 #
straight-curve $-1 -47.613757744071776 0 6.8850094419966696 0 -1 0 I I #
vertex $-1 $341 $428 #
point $-1 -44.069673209219026 23.14283361059697 4.2102323743001087 #
straight-curve $-1 -47.613757744071776 30.735845284183224 0 0 0 -1 I I #
point $-1 -47.613757744071776 -30.735845284183224 -6.8850094419966696 #
straight-curve $-1 -47.613757744071776 0 -6.8850094419966696 0 1 0 I I #
point $-1 -47.613757744071776 30.735845284183224 -6.8850094419966696 #
straight-curve $-1 -47.613757744071776 -14.08350918063306 -0.91411912409686158 0 -1 0 I I #
point $-1 -47.613757744071776 -30.735845284183224 -0.91411912409686158 #
point $-1 -47.613757744071776 -25.598191438349016 -0.91411912409686158 #
straight-curve $-1 -47.613757744071776 -25.598191438349016 0.29294043795156943 0 0 -1 I I #
straight-curve $-1 -47.613757744071776 -30.735845284183224 0 0 0 -1 I I #
straight-curve $-1 37.806826018084813 28.65578106581027 6.8850094419966723 -1 0 0 I I #
point $-1 47.613757744071776 28.65578106581027 6.8850094419966696 #
straight-curve $-1 43.281020745657699 12.360755265096524 6.8850094419966652 0 -1 0 I I #
point $-1 43.281020745657699 28.65578106581027 6.8850094419966723 #
point $-1 44.00956587761862 22.360948208822716 2.6153610017000442 #
point $-1 44.00956587761862 24.721510530193047 2.6153610017000442 #
point $-1 44.00956587761862 27.082072851563378 2.6153610017000442 #
edge $-1 $403 -6.8850094419966696 $397 -1.5266390446226055 $394 $429 forward 7 unknown #
straight-curve $-1 -47.613757744071776 11.571416805298485 1.5266390446226106 0 -1 0 I I #
point $-1 -47.613757744071776 30.735845284183224 1.5266390446226055 #
straight-curve $-1 0 30.735845284183224 6.8850094419966696 -1 0 0 I I #
point $-1 -47.613757744071776 30.735845284183224 6.8850094419966696 #
point $-1 -43.727543962552659 23.14283361059697 2.8380270038924924 #
straight-curve $-1 -47.613757744071776 30.735845284183224 0 0 0 -1 I I #
End-of-ACIS-data 