500 0 18 0           
7 Unknown 11 ACIS 5.0 NT 24 Thu Mar 25 23:03:05 1999 
-1 9.9999999999999995e-007 1e-010 
body $-1 $18 $-1 $19 #
body $-1 $20 $-1 $21 #
body $-1 $22 $-1 $23 #
body $-1 $24 $-1 $25 #
body $-1 $26 $-1 $27 #
body $-1 $28 $-1 $29 #
body $-1 $30 $-1 $31 #
body $-1 $32 $-1 $33 #
body $-1 $34 $-1 $35 #
body $-1 $36 $-1 $37 #
body $-1 $38 $-1 $39 #
body $-1 $40 $-1 $41 #
body $-1 $42 $-1 $43 #
body $-1 $44 $-1 $45 #
body $-1 $46 $-1 $47 #
body $-1 $48 $-1 $49 #
body $-1 $50 $-1 $51 #
body $-1 $52 $-1 $53 #
lump $-1 $-1 $54 $0 #
transform $-1 1 0 0 0 1 0 0 0 1 49.444868312631613 25.975343307595388 11.710823438656123 1 rotate no_reflect no_shear #
lump $-1 $-1 $55 $1 #
transform $-1 1 0 0 0 1 0 0 0 1 49.444868312631613 25.975343307595388 11.710823438656123 1 rotate no_reflect no_shear #
lump $-1 $-1 $56 $2 #
transform $-1 1 0 0 0 1 0 0 0 1 49.444868312631613 25.975343307595388 11.710823438656123 1 rotate no_reflect no_shear #
lump $-1 $-1 $57 $3 #
transform $-1 1 0 0 0 1 0 0 0 1 49.444868312631613 25.975343307595388 11.710823438656123 1 rotate no_reflect no_shear #
lump $-1 $-1 $58 $4 #
transform $-1 1 0 0 0 1 0 0 0 1 49.444868312631613 25.975343307595388 11.710823438656123 1 rotate no_reflect no_shear #
lump $-1 $-1 $59 $5 #
transform $-1 1 0 0 0 1 0 0 0 1 49.444868312631613 25.975343307595388 11.710823438656123 1 rotate no_reflect no_shear #
lump $-1 $-1 $60 $6 #
transform $-1 1 0 0 0 1 0 0 0 1 49.444868312631613 25.975343307595388 11.710823438656123 1 rotate no_reflect no_shear #
lump $-1 $-1 $61 $7 #
transform $-1 1 0 0 0 1 0 0 0 1 49.444868312631613 25.975343307595388 11.710823438656123 1 rotate no_reflect no_shear #
lump $-1 $-1 $62 $8 #
transform $-1 1 0 0 0 1 0 0 0 1 49.444868312631613 25.975343307595388 11.710823438656123 1 rotate no_reflect no_shear #
lump $-1 $-1 $63 $9 #
transform $-1 1 0 0 0 1 0 0 0 1 49.444868312631613 25.975343307595388 11.710823438656123 1 rotate no_reflect no_shear #
lump $-1 $-1 $64 $10 #
transform $-1 1 0 0 0 1 0 0 0 1 49.444868312631613 25.975343307595388 11.710823438656123 1 rotate no_reflect no_shear #
lump $-1 $-1 $65 $11 #
transform $-1 1 0 0 0 1 0 0 0 1 49.444868312631613 25.975343307595388 11.710823438656123 1 rotate no_reflect no_shear #
lump $-1 $-1 $66 $12 #
transform $-1 1 0 0 0 1 0 0 0 1 49.444868312631613 25.975343307595388 11.710823438656123 1 rotate no_reflect no_shear #
lump $-1 $-1 $67 $13 #
transform $-1 1 0 0 0 1 0 0 0 1 49.444868312631613 25.975343307595388 11.710823438656123 1 rotate no_reflect no_shear #
lump $-1 $-1 $68 $14 #
transform $-1 1 0 0 0 1 0 0 0 1 49.444868312631613 25.975343307595388 11.710823438656123 1 rotate no_reflect no_shear #
lump $-1 $-1 $69 $15 #
transform $-1 1 0 0 0 1 0 0 0 1 49.444868312631613 25.975343307595388 11.710823438656123 1 rotate no_reflect no_shear #
lump $-1 $-1 $70 $16 #
transform $-1 1 0 0 0 1 0 0 0 1 49.444868312631613 25.975343307595388 11.710823438656123 1 rotate no_reflect no_shear #
lump $-1 $-1 $71 $17 #
transform $-1 1 0 0 0 1 0 0 0 1 49.444868312631613 25.975343307595388 11.710823438656123 1 rotate no_reflect no_shear #
shell $-1 $-1 $-1 $72 $-1 $18 #
shell $-1 $-1 $-1 $73 $-1 $20 #
shell $-1 $-1 $-1 $74 $-1 $22 #
shell $-1 $-1 $-1 $75 $-1 $24 #
shell $-1 $-1 $-1 $76 $-1 $26 #
shell $-1 $-1 $-1 $77 $-1 $28 #
shell $-1 $-1 $-1 $78 $-1 $30 #
shell $-1 $-1 $-1 $79 $-1 $32 #
shell $-1 $-1 $-1 $80 $-1 $34 #
shell $-1 $-1 $-1 $81 $-1 $36 #
shell $-1 $-1 $-1 $82 $-1 $38 #
shell $-1 $-1 $-1 $83 $-1 $40 #
shell $-1 $-1 $-1 $84 $-1 $42 #
shell $-1 $-1 $-1 $85 $-1 $44 #
shell $-1 $-1 $-1 $86 $-1 $46 #
shell $-1 $-1 $-1 $87 $-1 $48 #
shell $-1 $-1 $-1 $88 $-1 $50 #
shell $-1 $-1 $-1 $89 $-1 $52 #
face $-1 $90 $91 $54 $-1 $92 forward single #
face $-1 $93 $94 $55 $-1 $95 forward single #
face $-1 $96 $97 $56 $-1 $98 reversed single #
face $-1 $99 $100 $57 $-1 $101 forward single #
face $-1 $102 $103 $58 $-1 $104 forward single #
face $-1 $105 $106 $59 $-1 $107 forward single #
face $-1 $108 $109 $60 $-1 $110 reversed single #
face $-1 $111 $112 $61 $-1 $113 forward single #
face $-1 $114 $115 $62 $-1 $116 forward single #
face $-1 $117 $118 $63 $-1 $119 forward single #
face $-1 $120 $121 $64 $-1 $122 reversed single #
face $-1 $123 $124 $65 $-1 $125 forward single #
face $-1 $126 $127 $66 $-1 $128 forward single #
face $-1 $129 $130 $67 $-1 $131 forward single #
face $-1 $132 $133 $68 $-1 $134 reversed single #
face $-1 $135 $136 $69 $-1 $137 forward single #
face $-1 $138 $139 $70 $-1 $140 forward single #
face $-1 $141 $142 $71 $-1 $143 forward single #
face $-1 $144 $145 $54 $-1 $146 reversed single #
loop $-1 $-1 $147 $72 #
plane-surface $-1 0 0 11.710823438656123 0 0 1 1 0 0 forward_v I I I I #
face $-1 $148 $149 $55 $-1 $150 reversed single #
loop $-1 $-1 $151 $73 #
plane-surface $-1 -42.524210186352803 0 10.031819663898618 0 0 1 1 0 0 forward_v I I I I #
face $-1 $152 $153 $56 $-1 $154 reversed single #
loop $-1 $-1 $155 $74 #
plane-surface $-1 -30.264698271960107 -6.0086925092260515 46.066045576484619 0 0.78801076186113728 0.61566146476048833 1 0 0 forward_v I I I I #
face $-1 $156 $157 $57 $-1 $158 forward single #
loop $-1 $159 $160 $75 #
cone-surface $-1 -33.468010544828431 22.775090604511256 7.9282690402770513 0 -0.78801076186113728 -0.61566146476048833 0.5 0 0 1 I I 0 1 0.5 forward I I I I #
face $-1 $161 $162 $58 $-1 $163 forward single #
loop $-1 $164 $165 $76 #
cone-surface $-1 -30.264698271960107 22.775090604511256 7.9282690402770513 0 -0.78801076186113728 -0.61566146476048833 0.5 0 0 1 I I 0 1 0.5 forward I I I I #
face $-1 $166 $167 $59 $-1 $168 forward single #
loop $-1 $169 $170 $77 #
cone-surface $-1 -27.06138599909178 22.775090604511256 7.9282690402770513 0 -0.78801076186113728 -0.61566146476048833 0.5 0 0 1 I I 0 1 0.5 forward I I I I #
face $-1 $171 $172 $60 $-1 $173 reversed single #
loop $-1 $-1 $174 $78 #
plane-surface $-1 17.598365702506577 71.917484189094836 106.94864567697309 -1 0 0 0 0.78801076186113728 0.61566146476048833 forward_v I I I I #
face $-1 $175 $176 $61 $-1 $177 forward single #
loop $-1 $178 $179 $79 #
cone-surface $-1 9.0561996415243726 22.775090604511256 7.9282690402770513 0 -0.78801076186113728 -0.61566146476048833 0.5 0 0 1 I I 0 1 0.5 forward I I I I #
face $-1 $180 $181 $62 $-1 $182 forward single #
loop $-1 $183 $184 $80 #
cone-surface $-1 12.259511914392696 22.775090604511256 7.9282690402770513 0 -0.78801076186113728 -0.61566146476048833 0.5 0 0 1 I I 0 1 0.5 forward I I I I #
face $-1 $185 $186 $63 $-1 $187 forward single #
loop $-1 $188 $189 $81 #
cone-surface $-1 15.46282418726102 22.775090604511256 7.9282690402770513 0 -0.78801076186113728 -0.61566146476048833 0.5 0 0 1 I I 0 1 0.5 forward I I I I #
face $-1 $190 $191 $64 $-1 $192 reversed single #
loop $-1 $-1 $193 $82 #
plane-surface $-1 -30.264698271960107 -25.975343307595409 5.1283454376389486 0 -0.78801076186113728 0.61566146476048833 1 0 0 forward_v I I I I #
face $-1 $194 $195 $65 $-1 $196 forward single #
loop $-1 $197 $198 $83 #
cone-surface $-1 -33.468010544828431 -22.775090604511252 7.9282690402770513 0 0.78801076186113728 -0.61566146476048833 0.5 0 0 1 I I 0 1 0.5 forward I I I I #
face $-1 $199 $200 $66 $-1 $201 forward single #
loop $-1 $202 $203 $84 #
cone-surface $-1 -30.264698271960107 -22.775090604511252 7.9282690402770513 0 0.78801076186113728 -0.61566146476048833 0.5 0 0 1 I I 0 1 0.5 forward I I I I #
face $-1 $204 $205 $67 $-1 $206 forward single #
loop $-1 $207 $208 $85 #
cone-surface $-1 -27.06138599909178 -22.775090604511252 7.9282690402770513 0 0.78801076186113728 -0.61566146476048833 0.5 0 0 1 I I 0 1 0.5 forward I I I I #
face $-1 $209 $210 $68 $-1 $211 reversed single #
loop $-1 $-1 $212 $86 #
plane-surface $-1 6.9206581262788163 -103.9015200059163 66.010945538127416 1 0 0 0 0.78801076186113728 -0.61566146476048833 forward_v I I I I #
face $-1 $213 $214 $69 $-1 $215 forward single #
loop $-1 $216 $217 $87 #
cone-surface $-1 9.0561996415243726 -22.775090604511252 7.9282690402770513 0 0.78801076186113728 -0.61566146476048833 0.5 0 0 1 I I 0 1 0.5 forward I I I I #
face $-1 $218 $219 $70 $-1 $220 forward single #
loop $-1 $221 $222 $88 #
cone-surface $-1 12.259511914392696 -22.775090604511252 7.9282690402770513 0 0.78801076186113728 -0.61566146476048833 0.5 0 0 1 I I 0 1 0.5 forward I I I I #
face $-1 $223 $224 $71 $-1 $225 forward single #
loop $-1 $226 $227 $89 #
cone-surface $-1 15.46282418726102 -22.775090604511252 7.9282690402770513 0 0.78801076186113728 -0.61566146476048833 0.5 0 0 1 I I 0 1 0.5 forward I I I I #
face $-1 $228 $229 $54 $-1 $230 reversed single #
loop $-1 $-1 $231 $90 #
plane-surface $-1 0 0 -11.710823438656123 0 0 1 1 0 0 forward_v I I I I #
coedge $-1 $232 $233 $234 $235 forward $91 $-1 #
face $-1 $236 $237 $55 $-1 $238 reversed single #
loop $-1 $-1 $239 $93 #
plane-surface $-1 -42.524210186352803 0 7.0318196638986183 0 0 1 1 0 0 forward_v I I I I #
coedge $-1 $240 $241 $242 $243 forward $94 $-1 #
face $-1 $244 $245 $56 $-1 $246 forward single #
loop $-1 $-1 $247 $96 #
plane-surface $-1 -24.925844483846227 71.917484189094836 106.94864567697309 -1 0 0 0 0.78801076186113728 0.61566146476048833 forward_v I I I I #
coedge $-1 $248 $249 $250 $251 reversed $97 $-1 #
face $-1 $-1 $252 $57 $-1 $253 forward single #
loop $-1 $254 $255 $99 #
cone-surface $-1 -33.468010544828431 21.949232864395199 7.2830382762164501 0 -0.78801076186113728 -0.61566146476048833 0.25 0 0 1 I I -0.70710678118654746 0.70710678118654746 0.25 forward I I I I #
loop $-1 $-1 $256 $75 #
coedge $-1 $160 $160 $257 $258 reversed $100 $-1 #
face $-1 $-1 $259 $58 $-1 $260 forward single #
loop $-1 $261 $262 $102 #
cone-surface $-1 -30.264698271960107 21.949232864395199 7.2830382762164501 0 -0.78801076186113728 -0.61566146476048833 0.25 0 0 1 I I -0.70710678118654746 0.70710678118654746 0.25 forward I I I I #
loop $-1 $-1 $263 $76 #
coedge $-1 $165 $165 $264 $265 reversed $103 $-1 #
face $-1 $-1 $266 $59 $-1 $267 forward single #
loop $-1 $268 $269 $105 #
cone-surface $-1 -27.06138599909178 21.949232864395199 7.2830382762164501 0 -0.78801076186113728 -0.61566146476048833 0.25 0 0 1 I I -0.70710678118654746 0.70710678118654746 0.25 forward I I I I #
loop $-1 $-1 $270 $77 #
coedge $-1 $170 $170 $271 $272 reversed $106 $-1 #
face $-1 $273 $274 $60 $-1 $275 reversed single #
loop $-1 $-1 $276 $108 #
plane-surface $-1 12.259511914392696 -6.0086925092260515 46.066045576484619 0 0.78801076186113728 0.61566146476048833 1 0 0 forward_v I I I I #
coedge $-1 $277 $278 $279 $280 reversed $109 $-1 #
face $-1 $-1 $281 $61 $-1 $282 forward single #
loop $-1 $283 $284 $111 #
cone-surface $-1 9.0561996415243726 21.949232864395199 7.2830382762164501 0 -0.78801076186113728 -0.61566146476048833 0.25 0 0 1 I I -0.70710678118654746 0.70710678118654746 0.25 forward I I I I #
loop $-1 $-1 $285 $79 #
coedge $-1 $179 $179 $286 $287 reversed $112 $-1 #
face $-1 $-1 $288 $62 $-1 $289 forward single #
loop $-1 $290 $291 $114 #
cone-surface $-1 12.259511914392696 21.949232864395199 7.2830382762164501 0 -0.78801076186113728 -0.61566146476048833 0.25 0 0 1 I I -0.70710678118654746 0.70710678118654746 0.25 forward I I I I #
loop $-1 $-1 $292 $80 #
coedge $-1 $184 $184 $293 $294 reversed $115 $-1 #
face $-1 $-1 $295 $63 $-1 $296 forward single #
loop $-1 $297 $298 $117 #
cone-surface $-1 15.46282418726102 21.949232864395199 7.2830382762164501 0 -0.78801076186113728 -0.61566146476048833 0.25 0 0 1 I I -0.70710678118654746 0.70710678118654746 0.25 forward I I I I #
loop $-1 $-1 $299 $81 #
coedge $-1 $189 $189 $300 $301 reversed $118 $-1 #
face $-1 $302 $303 $64 $-1 $304 forward single #
loop $-1 $-1 $305 $120 #
plane-surface $-1 -24.925844483846227 -103.9015200059163 66.010945538127416 -1 0 0 0 -0.78801076186113728 0.61566146476048833 forward_v I I I I #
coedge $-1 $306 $307 $308 $309 reversed $121 $-1 #
face $-1 $-1 $310 $65 $-1 $311 forward single #
loop $-1 $312 $313 $123 #
cone-surface $-1 -33.468010544828431 -21.949232864395196 7.2830382762164501 0 0.78801076186113728 -0.61566146476048833 0.25 0 0 1 I I -0.70710678118654746 0.70710678118654746 0.25 forward I I I I #
loop $-1 $-1 $314 $83 #
coedge $-1 $198 $198 $315 $316 reversed $124 $-1 #
face $-1 $-1 $317 $66 $-1 $318 forward single #
loop $-1 $319 $320 $126 #
cone-surface $-1 -30.264698271960107 -21.949232864395196 7.2830382762164501 0 0.78801076186113728 -0.61566146476048833 0.25 0 0 1 I I -0.70710678118654746 0.70710678118654746 0.25 forward I I I I #
loop $-1 $-1 $321 $84 #
coedge $-1 $203 $203 $322 $323 reversed $127 $-1 #
face $-1 $-1 $324 $67 $-1 $325 forward single #
loop $-1 $326 $327 $129 #
cone-surface $-1 -27.06138599909178 -21.949232864395196 7.2830382762164501 0 0.78801076186113728 -0.61566146476048833 0.25 0 0 1 I I -0.70710678118654746 0.70710678118654746 0.25 forward I I I I #
loop $-1 $-1 $328 $85 #
coedge $-1 $208 $208 $329 $330 reversed $130 $-1 #
face $-1 $331 $332 $68 $-1 $333 reversed single #
loop $-1 $-1 $334 $132 #
plane-surface $-1 12.259511914392696 -25.975343307595409 5.1283454376389486 0 -0.78801076186113728 0.61566146476048833 1 0 0 forward_v I I I I #
coedge $-1 $335 $336 $337 $338 reversed $133 $-1 #
face $-1 $-1 $339 $69 $-1 $340 forward single #
loop $-1 $341 $342 $135 #
cone-surface $-1 9.0561996415243726 -21.949232864395196 7.2830382762164501 0 0.78801076186113728 -0.61566146476048833 0.25 0 0 1 I I -0.70710678118654746 0.70710678118654746 0.25 forward I I I I #
loop $-1 $-1 $343 $87 #
coedge $-1 $217 $217 $344 $345 reversed $136 $-1 #
face $-1 $-1 $346 $70 $-1 $347 forward single #
loop $-1 $348 $349 $138 #
cone-surface $-1 12.259511914392696 -21.949232864395196 7.2830382762164501 0 0.78801076186113728 -0.61566146476048833 0.25 0 0 1 I I -0.70710678118654746 0.70710678118654746 0.25 forward I I I I #
loop $-1 $-1 $350 $88 #
coedge $-1 $222 $222 $351 $352 reversed $139 $-1 #
face $-1 $-1 $353 $71 $-1 $354 forward single #
loop $-1 $355 $356 $141 #
cone-surface $-1 15.46282418726102 -21.949232864395196 7.2830382762164501 0 0.78801076186113728 -0.61566146476048833 0.25 0 0 1 I I -0.70710678118654746 0.70710678118654746 0.25 forward I I I I #
loop $-1 $-1 $357 $89 #
coedge $-1 $227 $227 $358 $359 reversed $142 $-1 #
face $-1 $360 $361 $54 $-1 $362 reversed single #
loop $-1 $-1 $363 $144 #
plane-surface $-1 0 -25.975343307595388 0 0 1 0 0 0 1 forward_v I I I I #
coedge $-1 $364 $365 $366 $367 forward $145 $-1 #
coedge $-1 $368 $147 $369 $370 forward $91 $-1 #
coedge $-1 $147 $368 $371 $372 forward $91 $-1 #
coedge $-1 $373 $374 $147 $235 reversed $375 $-1 #
edge $-1 $376 -25.975343307595388 $377 25.975343307595388 $234 $378 forward 7 unknown #
face $-1 $379 $380 $55 $-1 $381 reversed single #
loop $-1 $-1 $382 $148 #
plane-surface $-1 -35.603552060073994 0 8.5318196638986183 -1 0 0 0 0 1 forward_v I I I I #
coedge $-1 $383 $384 $385 $386 forward $149 $-1 #
coedge $-1 $387 $151 $388 $389 reversed $94 $-1 #
coedge $-1 $151 $387 $390 $391 reversed $94 $-1 #
coedge $-1 $382 $392 $151 $243 reversed $237 $-1 #
edge $-1 $393 -25.975343307595388 $394 25.975343307595388 $242 $395 forward 7 unknown #
face $-1 $396 $397 $56 $-1 $398 forward single #
loop $-1 $-1 $399 $152 #
plane-surface $-1 -35.603552060073994 0 8.5318196638986183 -1 0 0 0 0 1 forward_v I I I I #
coedge $-1 $400 $401 $402 $403 reversed $153 $-1 #
coedge $-1 $404 $155 $399 $405 forward $97 $-1 #
coedge $-1 $155 $404 $400 $406 forward $97 $-1 #
coedge $-1 $402 $407 $155 $251 forward $397 $-1 #
edge $-1 $408 -20.471202924093934 $409 -9.7934953478661733 $250 $410 forward 7 unknown #
loop $-1 $-1 $257 $156 #
plane-surface $-1 -30.264698271960107 -6.0086925092260515 46.066045576484619 0 0.78801076186113728 0.61566146476048833 1 0 0 forward_v I I I I #
loop $-1 $-1 $411 $99 #
coedge $-1 $255 $255 $256 $412 reversed $157 $-1 #
coedge $-1 $256 $256 $255 $412 forward $159 $-1 #
coedge $-1 $257 $257 $160 $258 forward $252 $-1 #
edge $-1 $413 -1.9253069933653708e-015 $413 6.2831853071795987 $257 $414 forward 7 unknown #
loop $-1 $-1 $264 $161 #
plane-surface $-1 -30.264698271960107 -6.0086925092260515 46.066045576484619 0 0.78801076186113728 0.61566146476048833 1 0 0 forward_v I I I I #
loop $-1 $-1 $415 $102 #
coedge $-1 $262 $262 $263 $416 reversed $162 $-1 #
coedge $-1 $263 $263 $262 $416 forward $164 $-1 #
coedge $-1 $264 $264 $165 $265 forward $259 $-1 #
edge $-1 $417 -1.9253069933653708e-015 $417 6.2831853071795987 $264 $418 forward 7 unknown #
loop $-1 $-1 $271 $166 #
plane-surface $-1 -30.264698271960107 -6.0086925092260515 46.066045576484619 0 0.78801076186113728 0.61566146476048833 1 0 0 forward_v I I I I #
loop $-1 $-1 $419 $105 #
coedge $-1 $269 $269 $270 $420 reversed $167 $-1 #
coedge $-1 $270 $270 $269 $420 forward $169 $-1 #
coedge $-1 $271 $271 $170 $272 forward $266 $-1 #
edge $-1 $421 -1.9253069933653708e-015 $421 6.2831853071795987 $271 $422 forward 7 unknown #
face $-1 $423 $424 $60 $-1 $425 reversed single #
loop $-1 $-1 $426 $171 #
plane-surface $-1 6.9206581262788163 71.917484189094836 106.94864567697309 1 0 0 0 -0.78801076186113728 -0.61566146476048833 forward_v I I I I #
coedge $-1 $427 $428 $429 $430 reversed $172 $-1 #
coedge $-1 $278 $174 $431 $432 reversed $109 $-1 #
coedge $-1 $174 $277 $427 $433 reversed $109 $-1 #
coedge $-1 $429 $434 $174 $280 forward $424 $-1 #
edge $-1 $435 41.763499399830422 $436 48.34597740084758 $279 $437 forward 7 unknown #
loop $-1 $-1 $286 $175 #
plane-surface $-1 12.259511914392696 -6.0086925092260515 46.066045576484619 0 0.78801076186113728 0.61566146476048833 1 0 0 forward_v I I I I #
loop $-1 $-1 $438 $111 #
coedge $-1 $284 $284 $285 $439 reversed $176 $-1 #
coedge $-1 $285 $285 $284 $439 forward $178 $-1 #
coedge $-1 $286 $286 $179 $287 forward $281 $-1 #
edge $-1 $440 -1.9253069933653708e-015 $440 6.2831853071795987 $286 $441 forward 7 unknown #
loop $-1 $-1 $293 $180 #
plane-surface $-1 12.259511914392696 -6.0086925092260515 46.066045576484619 0 0.78801076186113728 0.61566146476048833 1 0 0 forward_v I I I I #
loop $-1 $-1 $442 $114 #
coedge $-1 $291 $291 $292 $443 reversed $181 $-1 #
coedge $-1 $292 $292 $291 $443 forward $183 $-1 #
coedge $-1 $293 $293 $184 $294 forward $288 $-1 #
edge $-1 $444 -1.9253069933653708e-015 $444 6.2831853071795987 $293 $445 forward 7 unknown #
loop $-1 $-1 $300 $185 #
plane-surface $-1 12.259511914392696 -6.0086925092260515 46.066045576484619 0 0.78801076186113728 0.61566146476048833 1 0 0 forward_v I I I I #
loop $-1 $-1 $446 $117 #
coedge $-1 $298 $298 $299 $447 reversed $186 $-1 #
coedge $-1 $299 $299 $298 $447 forward $188 $-1 #
coedge $-1 $300 $300 $189 $301 forward $295 $-1 #
edge $-1 $448 -1.9253069933653708e-015 $448 6.2831853071795987 $300 $449 forward 7 unknown #
face $-1 $450 $451 $64 $-1 $452 forward single #
loop $-1 $-1 $453 $190 #
plane-surface $-1 0 0 11.710823438656123 0 0 1 1 0 0 forward_v I I I I #
coedge $-1 $454 $455 $456 $457 reversed $191 $-1 #
coedge $-1 $458 $193 $459 $460 forward $121 $-1 #
coedge $-1 $193 $458 $454 $461 forward $121 $-1 #
coedge $-1 $456 $462 $193 $309 forward $463 $-1 #
edge $-1 $464 -20.471202924093934 $465 -9.7934953478661733 $308 $466 forward 7 unknown #
loop $-1 $-1 $315 $194 #
plane-surface $-1 -30.264698271960107 -25.975343307595409 5.1283454376389486 0 -0.78801076186113728 0.61566146476048833 1 0 0 forward_v I I I I #
loop $-1 $-1 $467 $123 #
coedge $-1 $313 $313 $314 $468 reversed $195 $-1 #
coedge $-1 $314 $314 $313 $468 forward $197 $-1 #
coedge $-1 $315 $315 $198 $316 forward $310 $-1 #
edge $-1 $469 -5.2392382799913551e-016 $469 6.2831853071795996 $315 $470 forward 7 unknown #
loop $-1 $-1 $322 $199 #
plane-surface $-1 -30.264698271960107 -25.975343307595409 5.1283454376389486 0 -0.78801076186113728 0.61566146476048833 1 0 0 forward_v I I I I #
loop $-1 $-1 $471 $126 #
coedge $-1 $320 $320 $321 $472 reversed $200 $-1 #
coedge $-1 $321 $321 $320 $472 forward $202 $-1 #
coedge $-1 $322 $322 $203 $323 forward $317 $-1 #
edge $-1 $473 -5.2392382799913551e-016 $473 6.2831853071795996 $322 $474 forward 7 unknown #
loop $-1 $-1 $329 $204 #
plane-surface $-1 -30.264698271960107 -25.975343307595409 5.1283454376389486 0 -0.78801076186113728 0.61566146476048833 1 0 0 forward_v I I I I #
loop $-1 $-1 $475 $129 #
coedge $-1 $327 $327 $328 $476 reversed $205 $-1 #
coedge $-1 $328 $328 $327 $476 forward $207 $-1 #
coedge $-1 $329 $329 $208 $330 forward $324 $-1 #
edge $-1 $477 -5.2392382799913551e-016 $477 6.2831853071795996 $329 $478 forward 7 unknown #
face $-1 $479 $480 $68 $-1 $481 forward single #
loop $-1 $-1 $482 $209 #
plane-surface $-1 17.598365702506577 -103.9015200059163 66.010945538127416 -1 0 0 0 -0.78801076186113728 0.61566146476048833 forward_v I I I I #
coedge $-1 $483 $484 $485 $486 reversed $210 $-1 #
coedge $-1 $336 $212 $487 $488 reversed $133 $-1 #
coedge $-1 $212 $335 $483 $489 reversed $133 $-1 #
coedge $-1 $485 $490 $212 $338 forward $491 $-1 #
edge $-1 $492 21.294649330407587 $493 27.877127331424731 $337 $494 forward 7 unknown #
loop $-1 $-1 $344 $213 #
plane-surface $-1 12.259511914392696 -25.975343307595409 5.1283454376389486 0 -0.78801076186113728 0.61566146476048833 1 0 0 forward_v I I I I #
loop $-1 $-1 $495 $135 #
coedge $-1 $342 $342 $343 $496 reversed $214 $-1 #
coedge $-1 $343 $343 $342 $496 forward $216 $-1 #
coedge $-1 $344 $344 $217 $345 forward $339 $-1 #
edge $-1 $497 -5.2392382799913551e-016 $497 6.2831853071795996 $344 $498 forward 7 unknown #
loop $-1 $-1 $351 $218 #
plane-surface $-1 12.259511914392696 -25.975343307595409 5.1283454376389486 0 -0.78801076186113728 0.61566146476048833 1 0 0 forward_v I I I I #
loop $-1 $-1 $499 $138 #
coedge $-1 $349 $349 $350 $500 reversed $219 $-1 #
coedge $-1 $350 $350 $349 $500 forward $221 $-1 #
coedge $-1 $351 $351 $222 $352 forward $346 $-1 #
edge $-1 $501 -5.2392382799913551e-016 $501 6.2831853071795996 $351 $502 forward 7 unknown #
loop $-1 $-1 $358 $223 #
plane-surface $-1 12.259511914392696 -25.975343307595409 5.1283454376389486 0 -0.78801076186113728 0.61566146476048833 1 0 0 forward_v I I I I #
loop $-1 $-1 $503 $141 #
coedge $-1 $356 $356 $357 $504 reversed $224 $-1 #
coedge $-1 $357 $357 $356 $504 forward $226 $-1 #
coedge $-1 $358 $358 $227 $359 forward $353 $-1 #
edge $-1 $505 -5.2392382799913551e-016 $505 6.2831853071795996 $358 $506 forward 7 unknown #
face $-1 $507 $508 $54 $-1 $509 reversed single #
loop $-1 $-1 $510 $228 #
plane-surface $-1 -49.444868312631613 0 0 1 0 0 0 0 -1 forward_v I I I I #
coedge $-1 $511 $371 $512 $513 forward $229 $-1 #
coedge $-1 $514 $231 $511 $515 forward $145 $-1 #
coedge $-1 $231 $514 $516 $517 forward $145 $-1 #
coedge $-1 $374 $373 $231 $367 reversed $375 $-1 #
edge $-1 $518 -25.975343307595388 $519 25.975343307595388 $366 $520 forward 7 unknown #
coedge $-1 $233 $232 $521 $522 forward $91 $-1 #
coedge $-1 $523 $524 $232 $370 reversed $508 $-1 #
edge $-1 $377 -49.444868312631613 $525 49.444868312631613 $369 $526 forward 7 unknown #
coedge $-1 $363 $527 $233 $372 reversed $229 $-1 #
edge $-1 $528 -49.444868312631613 $376 49.444868312631613 $371 $529 forward 7 unknown #
coedge $-1 $366 $234 $527 $530 forward $375 $-1 #
coedge $-1 $234 $366 $523 $531 reversed $375 $-1 #
loop $-1 $-1 $373 $507 #
vertex $-1 $235 $532 #
vertex $-1 $235 $533 #
straight-curve $-1 49.444868312631613 0 11.710823438656123 0 1 0 I I #
face $-1 $534 $535 $55 $-1 $536 reversed single #
loop $-1 $-1 $537 $236 #
plane-surface $-1 0 -25.975343307595388 0 0 1 0 0 0 1 forward_v I I I I #
coedge $-1 $385 $242 $538 $539 reversed $237 $-1 #
coedge $-1 $540 $239 $537 $541 reversed $149 $-1 #
coedge $-1 $239 $540 $542 $543 reversed $149 $-1 #
coedge $-1 $392 $382 $239 $386 reversed $237 $-1 #
edge $-1 $544 -25.975343307595388 $545 25.975343307595388 $385 $546 forward 7 unknown #
coedge $-1 $241 $240 $547 $548 reversed $94 $-1 #
coedge $-1 $549 $550 $240 $389 forward $551 $-1 #
edge $-1 $552 -28.182763219455211 $394 -14.341446966897593 $388 $553 forward 7 unknown #
coedge $-1 $554 $538 $241 $391 forward $380 $-1 #
edge $-1 $393 14.341446966897593 $555 28.182763219455211 $390 $556 forward 7 unknown #
coedge $-1 $242 $385 $549 $557 reversed $237 $-1 #
vertex $-1 $391 $558 #
vertex $-1 $389 $559 #
straight-curve $-1 -35.603552060073994 0 10.031819663898618 0 1 0 I I #
face $-1 $-1 $560 $56 $-1 $561 reversed single #
loop $-1 $-1 $402 $244 #
plane-surface $-1 0 0 11.710823438656123 0 0 1 1 0 0 forward_v I I I I #
coedge $-1 $562 $563 $248 $405 reversed $245 $-1 #
coedge $-1 $401 $247 $249 $406 reversed $153 $-1 #
coedge $-1 $247 $400 $564 $565 reversed $153 $-1 #
coedge $-1 $566 $250 $247 $403 forward $397 $-1 #
edge $-1 $409 -15.126194093818739 $567 -9.98339878695203 $402 $568 forward 7 unknown #
coedge $-1 $249 $248 $569 $570 reversed $97 $-1 #
edge $-1 $408 43.597402219086128 $571 51.950686615190762 $399 $572 forward 7 unknown #
edge $-1 $573 -51.950686615190762 $409 -43.597402219086128 $400 $574 forward 7 unknown #
coedge $-1 $250 $566 $562 $575 forward $397 $-1 #
vertex $-1 $575 $576 #
vertex $-1 $251 $577 #
straight-curve $-1 -15.132349135980053 20.832548000728679 11.710823438656124 1 0 0 I I #
coedge $-1 $411 $411 $-1 $578 reversed $254 $-1 #
edge $-1 $579 0 $579 6.2831853071796004 $255 $580 forward 7 unknown #
vertex $-1 $258 $581 #
ellipse-curve $-1 -33.468010544828431 23.40394565416204 8.4195844381475382 0 0.78801076186113728 0.61566146476048833 0.5 0 0 1 I I #
coedge $-1 $415 $415 $-1 $582 reversed $261 $-1 #
edge $-1 $583 0 $583 6.2831853071796004 $262 $584 forward 7 unknown #
vertex $-1 $265 $585 #
ellipse-curve $-1 -30.264698271960107 23.40394565416204 8.4195844381475382 0 0.78801076186113728 0.61566146476048833 0.5 0 0 1 I I #
coedge $-1 $419 $419 $-1 $586 reversed $268 $-1 #
edge $-1 $587 0 $587 6.2831853071796004 $269 $588 forward 7 unknown #
vertex $-1 $272 $589 #
ellipse-curve $-1 -27.06138599909178 23.40394565416204 8.4195844381475382 0 0.78801076186113728 0.61566146476048833 0.5 0 0 1 I I #
face $-1 $-1 $590 $60 $-1 $591 forward single #
loop $-1 $-1 $279 $273 #
plane-surface $-1 0 25.975343307595388 0 0 -1 0 0 0 -1 forward_v I I I I #
coedge $-1 $592 $593 $594 $595 reversed $274 $-1 #
coedge $-1 $596 $276 $278 $433 forward $172 $-1 #
coedge $-1 $276 $596 $592 $597 forward $172 $-1 #
coedge $-1 $594 $279 $276 $430 forward $424 $-1 #
edge $-1 $436 -11.468609745310228 $598 -0.79090216908246802 $429 $599 forward 7 unknown #
coedge $-1 $600 $601 $277 $432 forward $590 $-1 #
edge $-1 $602 -15.126194093818739 $435 -9.98339878695203 $431 $603 forward 7 unknown #
edge $-1 $436 -51.950686615190762 $602 -43.597402219086128 $278 $604 forward 7 unknown #
coedge $-1 $279 $594 $600 $605 reversed $424 $-1 #
vertex $-1 $605 $606 #
vertex $-1 $280 $607 #
straight-curve $-1 17.598365702506577 25.975343307595388 53.474322838486543 0 0 -1 I I #
coedge $-1 $438 $438 $-1 $608 reversed $283 $-1 #
edge $-1 $609 0 $609 6.2831853071796004 $284 $610 forward 7 unknown #
vertex $-1 $287 $611 #
ellipse-curve $-1 9.0561996415243726 23.40394565416204 8.4195844381475382 0 0.78801076186113728 0.61566146476048833 0.5 0 0 1 I I #
coedge $-1 $442 $442 $-1 $612 reversed $290 $-1 #
edge $-1 $613 0 $613 6.2831853071796004 $291 $614 forward 7 unknown #
vertex $-1 $294 $615 #
ellipse-curve $-1 12.259511914392696 23.40394565416204 8.4195844381475382 0 0.78801076186113728 0.61566146476048833 0.5 0 0 1 I I #
coedge $-1 $446 $446 $-1 $616 reversed $297 $-1 #
edge $-1 $617 0 $617 6.2831853071796004 $298 $618 forward 7 unknown #
vertex $-1 $301 $619 #
ellipse-curve $-1 15.46282418726102 23.40394565416204 8.4195844381475382 0 0.78801076186113728 0.61566146476048833 0.5 0 0 1 I I #
face $-1 $-1 $463 $64 $-1 $620 reversed single #
loop $-1 $-1 $459 $302 #
plane-surface $-1 -35.603552060073994 0 8.5318196638986183 -1 0 0 0 0 1 forward_v I I I I #
coedge $-1 $621 $622 $455 $623 forward $303 $-1 #
coedge $-1 $455 $305 $307 $461 reversed $191 $-1 #
coedge $-1 $305 $454 $453 $623 reversed $191 $-1 #
coedge $-1 $624 $308 $305 $457 forward $463 $-1 #
edge $-1 $465 -27.877127331424731 $625 -21.294649330407587 $456 $626 forward 7 unknown #
coedge $-1 $307 $306 $621 $627 reversed $121 $-1 #
coedge $-1 $628 $629 $306 $460 reversed $451 $-1 #
edge $-1 $464 3.482033219266165e-014 $630 8.3532843961046481 $459 $631 forward 7 unknown #
edge $-1 $632 -8.3532843961046481 $465 -3.482033219266165e-014 $454 $633 forward 7 unknown #
coedge $-1 $308 $624 $628 $634 forward $463 $-1 #
loop $-1 $-1 $456 $450 #
vertex $-1 $309 $635 #
vertex $-1 $309 $636 #
straight-curve $-1 -15.132349135980053 -25.975343307595388 5.1283454376389752 1 0 0 I I #
coedge $-1 $467 $467 $-1 $637 reversed $312 $-1 #
edge $-1 $638 0 $638 6.2831853071796004 $313 $639 forward 7 unknown #
vertex $-1 $316 $640 #
ellipse-curve $-1 -33.468010544828431 -23.403945654162044 8.4195844381475453 0 -0.78801076186113728 0.61566146476048833 0.5 0 0 1 I I #
coedge $-1 $471 $471 $-1 $641 reversed $319 $-1 #
edge $-1 $642 0 $642 6.2831853071796004 $320 $643 forward 7 unknown #
vertex $-1 $323 $644 #
ellipse-curve $-1 -30.264698271960107 -23.403945654162044 8.4195844381475453 0 -0.78801076186113728 0.61566146476048833 0.5 0 0 1 I I #
coedge $-1 $475 $475 $-1 $645 reversed $326 $-1 #
edge $-1 $646 0 $646 6.2831853071796004 $327 $647 forward 7 unknown #
vertex $-1 $330 $648 #
ellipse-curve $-1 -27.06138599909178 -23.403945654162044 8.4195844381475453 0 -0.78801076186113728 0.61566146476048833 0.5 0 0 1 I I #
face $-1 $-1 $491 $68 $-1 $649 reversed single #
loop $-1 $-1 $650 $331 #
plane-surface $-1 0 0 11.710823438656123 0 0 1 1 0 0 forward_v I I I I #
coedge $-1 $651 $652 $653 $654 reversed $332 $-1 #
coedge $-1 $655 $334 $336 $489 forward $210 $-1 #
coedge $-1 $334 $655 $651 $656 forward $210 $-1 #
coedge $-1 $653 $337 $334 $486 forward $491 $-1 #
edge $-1 $493 0.79090216908246802 $657 11.468609745310228 $485 $658 forward 7 unknown #
coedge $-1 $659 $660 $335 $488 forward $480 $-1 #
edge $-1 $661 -31.118212002229459 $492 -25.97541669536276 $487 $662 forward 7 unknown #
edge $-1 $493 3.482033219266165e-014 $661 8.3532843961046481 $336 $663 forward 7 unknown #
coedge $-1 $337 $653 $659 $664 reversed $491 $-1 #
loop $-1 $-1 $653 $479 #
vertex $-1 $664 $665 #
vertex $-1 $338 $666 #
straight-curve $-1 6.9206581262788163 -25.975343307595388 33.005472769063708 0 0 -1 I I #
coedge $-1 $495 $495 $-1 $667 reversed $341 $-1 #
edge $-1 $668 0 $668 6.2831853071796004 $342 $669 forward 7 unknown #
vertex $-1 $345 $670 #
ellipse-curve $-1 9.0561996415243726 -23.403945654162044 8.4195844381475453 0 -0.78801076186113728 0.61566146476048833 0.5 0 0 1 I I #
coedge $-1 $499 $499 $-1 $671 reversed $348 $-1 #
edge $-1 $672 0 $672 6.2831853071796004 $349 $673 forward 7 unknown #
vertex $-1 $352 $674 #
ellipse-curve $-1 12.259511914392696 -23.403945654162044 8.4195844381475453 0 -0.78801076186113728 0.61566146476048833 0.5 0 0 1 I I #
coedge $-1 $503 $503 $-1 $675 reversed $355 $-1 #
edge $-1 $676 0 $676 6.2831853071796004 $356 $677 forward 7 unknown #
vertex $-1 $359 $678 #
ellipse-curve $-1 15.46282418726102 -23.403945654162044 8.4195844381475453 0 -0.78801076186113728 0.61566146476048833 0.5 0 0 1 I I #
face $-1 $-1 $375 $54 $-1 $679 reversed single #
loop $-1 $-1 $523 $360 #
plane-surface $-1 0 25.975343307595388 0 0 -1 0 0 0 -1 forward_v I I I I #
coedge $-1 $680 $521 $524 $681 forward $361 $-1 #
coedge $-1 $527 $363 $364 $515 reversed $229 $-1 #
coedge $-1 $521 $680 $363 $513 reversed $361 $-1 #
edge $-1 $528 -11.710823438656123 $682 11.710823438656123 $512 $683 forward 7 unknown #
coedge $-1 $365 $364 $680 $684 forward $145 $-1 #
edge $-1 $519 -49.444868312631613 $682 49.444868312631613 $511 $685 forward 7 unknown #
coedge $-1 $524 $523 $365 $517 reversed $508 $-1 #
edge $-1 $686 -49.444868312631613 $518 49.444868312631613 $516 $687 forward 7 unknown #
vertex $-1 $367 $688 #
vertex $-1 $530 $689 #
straight-curve $-1 49.444868312631613 0 -11.710823438656123 0 -1 0 I I #
coedge $-1 $510 $512 $368 $522 reversed $361 $-1 #
edge $-1 $525 -25.975343307595388 $528 25.975343307595388 $521 $690 forward 7 unknown #
coedge $-1 $516 $369 $374 $531 forward $508 $-1 #
coedge $-1 $369 $516 $510 $681 reversed $508 $-1 #
vertex $-1 $370 $691 #
straight-curve $-1 0 25.975343307595388 11.710823438656123 -1 0 0 I I #
coedge $-1 $371 $511 $373 $530 reversed $229 $-1 #
vertex $-1 $522 $692 #
straight-curve $-1 0 -25.975343307595388 11.710823438656123 1 0 0 I I #
edge $-1 $376 -11.710823438656123 $519 11.710823438656123 $373 $693 forward 7 unknown #
edge $-1 $377 -11.710823438656123 $518 11.710823438656123 $374 $694 forward 7 unknown #
point $-1 49.444868312631613 -25.975343307595388 11.710823438656123 #
point $-1 49.444868312631613 25.975343307595388 11.710823438656123 #
face $-1 $-1 $551 $55 $-1 $695 reversed single #
loop $-1 $-1 $696 $379 #
plane-surface $-1 -49.444868312631613 0 0 1 0 0 0 0 -1 forward_v I I I I #
coedge $-1 $538 $554 $383 $541 forward $380 $-1 #
coedge $-1 $390 $537 $382 $539 forward $380 $-1 #
edge $-1 $545 2.7659098319493092 $393 5.7659098319493092 $538 $697 forward 7 unknown #
coedge $-1 $384 $383 $696 $698 reversed $149 $-1 #
edge $-1 $699 -28.182763219455211 $545 -14.341446966897593 $537 $700 forward 7 unknown #
coedge $-1 $550 $549 $384 $543 forward $551 $-1 #
edge $-1 $544 14.341446966897593 $701 28.182763219455211 $542 $702 forward 7 unknown #
vertex $-1 $543 $703 #
vertex $-1 $541 $704 #
straight-curve $-1 -35.603552060073994 0 7.0318196638986183 0 -1 0 I I #
coedge $-1 $705 $706 $387 $548 forward $535 $-1 #
edge $-1 $555 -25.975343307595388 $552 25.975343307595388 $547 $707 forward 7 unknown #
coedge $-1 $542 $388 $392 $557 forward $551 $-1 #
coedge $-1 $388 $542 $705 $708 reversed $551 $-1 #
loop $-1 $-1 $542 $534 #
vertex $-1 $708 $709 #
straight-curve $-1 -21.262105093176402 25.975343307595388 10.031819663898618 1 0 0 I I #
coedge $-1 $537 $390 $706 $710 forward $380 $-1 #
vertex $-1 $710 $711 #
straight-curve $-1 -21.262105093176402 -25.975343307595388 10.031819663898618 -1 0 0 I I #
edge $-1 $394 -5.7659098319493092 $544 -2.7659098319493092 $549 $712 forward 7 unknown #
point $-1 -35.603552060073994 -25.975343307595388 10.031819663898618 #
point $-1 -35.603552060073994 25.975343307595388 10.031819663898618 #
loop $-1 $-1 $713 $396 #
plane-surface $-1 0 25.975343307595388 0 0 -1 0 0 0 -1 forward_v I I I I #
coedge $-1 $563 $399 $407 $575 reversed $245 $-1 #
coedge $-1 $399 $562 $713 $714 reversed $245 $-1 #
coedge $-1 $569 $715 $401 $565 forward $560 $-1 #
edge $-1 $567 41.763499399830422 $573 48.34597740084758 $564 $716 forward 7 unknown #
coedge $-1 $407 $402 $715 $717 forward $397 $-1 #
vertex $-1 $717 $718 #
straight-curve $-1 -24.925844483846227 35.958742094547418 11.710823438656121 0 1 0 I I #
coedge $-1 $713 $564 $404 $570 forward $560 $-1 #
edge $-1 $573 9.7934953478661733 $571 20.471202924093934 $569 $719 forward 7 unknown #
vertex $-1 $714 $720 #
straight-curve $-1 -35.603552060073987 -6.0086925092260515 46.066045576484619 0 0.61566146476048833 -0.78801076186113728 I I #
vertex $-1 $570 $721 #
straight-curve $-1 -24.925844483846227 -6.0086925092260515 46.066045576484619 0 -0.61566146476048833 0.78801076186113728 I I #
edge $-1 $722 9.98339878695203 $408 15.126194093818739 $407 $723 forward 7 unknown #
point $-1 -35.603552060073987 20.832548000728679 11.710823438656121 #
point $-1 -24.925844483846227 20.832548000728679 11.710823438656121 #
edge $-1 $724 1 $724 0 $411 $-1 forward 7 unknown #
vertex $-1 $412 $725 #
ellipse-curve $-1 -33.468010544828431 22.146235554860482 7.4369536424065723 0 0.78801076186113728 0.61566146476048833 0.5 0 0 1 I I #
point $-1 -32.968010544828431 23.40394565416203 8.4195844381475311 #
edge $-1 $726 1 $726 0 $415 $-1 forward 7 unknown #
vertex $-1 $416 $727 #
ellipse-curve $-1 -30.264698271960107 22.146235554860482 7.4369536424065723 0 0.78801076186113728 0.61566146476048833 0.5 0 0 1 I I #
point $-1 -29.764698271960107 23.40394565416203 8.4195844381475311 #
edge $-1 $728 1 $728 0 $419 $-1 forward 7 unknown #
vertex $-1 $420 $729 #
ellipse-curve $-1 -27.06138599909178 22.146235554860482 7.4369536424065723 0 0.78801076186113728 0.61566146476048833 0.5 0 0 1 I I #
point $-1 -26.56138599909178 23.40394565416203 8.4195844381475311 #
loop $-1 $-1 $431 $423 #
plane-surface $-1 0 0 11.710823438656123 0 0 1 1 0 0 forward_v I I I I #
coedge $-1 $593 $426 $428 $597 reversed $274 $-1 #
coedge $-1 $426 $592 $730 $731 reversed $274 $-1 #
coedge $-1 $434 $429 $426 $595 forward $424 $-1 #
edge $-1 $598 -48.34597740084758 $732 -41.763499399830422 $594 $733 forward 7 unknown #
coedge $-1 $428 $427 $601 $734 reversed $172 $-1 #
edge $-1 $735 43.597402219086128 $598 51.950686615190762 $592 $736 forward 7 unknown #
vertex $-1 $430 $737 #
straight-curve $-1 6.1297559571963482 25.975343307595388 5.1283454376389592 -1 0 0 I I #
coedge $-1 $730 $431 $434 $605 forward $590 $-1 #
coedge $-1 $431 $730 $596 $734 forward $590 $-1 #
vertex $-1 $432 $738 #
straight-curve $-1 17.598365702506577 35.958742094547418 11.710823438656121 0 1 0 I I #
straight-curve $-1 17.598365702506577 -6.0086925092260515 46.066045576484619 0 -0.61566146476048833 0.78801076186113728 I I #
edge $-1 $435 -17.598365702506577 $732 -6.9206581262788163 $434 $739 forward 7 unknown #
point $-1 17.598365702506577 25.975343307595388 11.710823438656123 #
point $-1 17.598365702506577 25.975343307595388 5.1283454376389628 #
edge $-1 $740 1 $740 0 $438 $-1 forward 7 unknown #
vertex $-1 $439 $741 #
ellipse-curve $-1 9.0561996415243726 22.146235554860482 7.4369536424065723 0 0.78801076186113728 0.61566146476048833 0.5 0 0 1 I I #
point $-1 9.5561996415243726 23.40394565416203 8.4195844381475311 #
edge $-1 $742 1 $742 0 $442 $-1 forward 7 unknown #
vertex $-1 $443 $743 #
ellipse-curve $-1 12.259511914392696 22.146235554860482 7.4369536424065723 0 0.78801076186113728 0.61566146476048833 0.5 0 0 1 I I #
point $-1 12.759511914392696 23.40394565416203 8.4195844381475311 #
edge $-1 $744 1 $744 0 $446 $-1 forward 7 unknown #
vertex $-1 $447 $745 #
ellipse-curve $-1 15.46282418726102 22.146235554860482 7.4369536424065723 0 0.78801076186113728 0.61566146476048833 0.5 0 0 1 I I #
point $-1 15.96282418726102 23.40394565416203 8.4195844381475311 #
plane-surface $-1 0 -25.975343307595388 0 0 1 0 0 0 1 forward_v I I I I #
coedge $-1 $746 $453 $458 $627 forward $303 $-1 #
coedge $-1 $453 $746 $624 $747 forward $303 $-1 #
edge $-1 $625 25.97541669536276 $632 31.118212002229459 $453 $748 forward 7 unknown #
coedge $-1 $462 $456 $622 $747 reversed $463 $-1 #
vertex $-1 $623 $749 #
straight-curve $-1 -24.925844483846227 -25.975343307595388 33.005472769063708 0 0 1 I I #
edge $-1 $632 9.7934953478661733 $630 20.471202924093934 $621 $750 forward 7 unknown #
coedge $-1 $629 $459 $462 $634 reversed $451 $-1 #
coedge $-1 $459 $628 $746 $751 reversed $451 $-1 #
vertex $-1 $751 $752 #
straight-curve $-1 -35.603552060073987 -25.975343307595409 5.1283454376389486 0 0.61566146476048833 0.78801076186113728 I I #
vertex $-1 $627 $753 #
straight-curve $-1 -24.925844483846227 -25.975343307595409 5.1283454376389486 0 -0.61566146476048833 -0.78801076186113728 I I #
edge $-1 $754 21.294649330407587 $464 27.877127331424731 $462 $755 forward 7 unknown #
point $-1 -35.603552060073987 -25.975343307595388 5.1283454376389761 #
point $-1 -24.925844483846227 -25.975343307595388 5.1283454376389761 #
edge $-1 $756 1 $756 0 $467 $-1 forward 7 unknown #
vertex $-1 $468 $757 #
ellipse-curve $-1 -33.468010544828431 -22.146235554860478 7.4369536424065723 0 -0.78801076186113728 0.61566146476048833 0.5 0 0 1 I I #
point $-1 -32.968010544828431 -23.403945654162026 8.4195844381475311 #
edge $-1 $758 1 $758 0 $471 $-1 forward 7 unknown #
vertex $-1 $472 $759 #
ellipse-curve $-1 -30.264698271960107 -22.146235554860478 7.4369536424065723 0 -0.78801076186113728 0.61566146476048833 0.5 0 0 1 I I #
point $-1 -29.764698271960107 -23.403945654162026 8.4195844381475311 #
edge $-1 $760 1 $760 0 $475 $-1 forward 7 unknown #
vertex $-1 $476 $761 #
ellipse-curve $-1 -27.06138599909178 -22.146235554860478 7.4369536424065723 0 -0.78801076186113728 0.61566146476048833 0.5 0 0 1 I I #
point $-1 -26.56138599909178 -23.403945654162026 8.4195844381475311 #
plane-surface $-1 0 -25.975343307595388 0 0 1 0 0 0 1 forward_v I I I I #
coedge $-1 $660 $659 $652 $762 forward $480 $-1 #
coedge $-1 $652 $482 $484 $656 reversed $332 $-1 #
coedge $-1 $482 $651 $650 $762 reversed $332 $-1 #
coedge $-1 $490 $485 $482 $654 forward $491 $-1 #
edge $-1 $657 -27.877127331424731 $763 -21.294649330407587 $653 $764 forward 7 unknown #
coedge $-1 $484 $483 $660 $765 reversed $210 $-1 #
edge $-1 $766 -8.3532843961046481 $657 -3.482033219266165e-014 $651 $767 forward 7 unknown #
vertex $-1 $486 $768 #
straight-curve $-1 6.1297559571963482 -25.975343307595388 5.1283454376389752 1 0 0 I I #
coedge $-1 $650 $487 $490 $664 forward $480 $-1 #
coedge $-1 $487 $650 $655 $765 forward $480 $-1 #
vertex $-1 $488 $769 #
straight-curve $-1 6.9206581262788163 -51.950760002958148 11.710823438656121 0 -1 0 I I #
straight-curve $-1 6.9206581262788163 -25.975343307595409 5.1283454376389486 0 0.61566146476048833 0.78801076186113728 I I #
edge $-1 $492 6.9206581262788163 $763 17.598365702506577 $490 $770 forward 7 unknown #
point $-1 6.9206581262788163 -25.975343307595388 11.710823438656123 #
point $-1 6.9206581262788163 -25.975343307595388 5.1283454376389761 #
edge $-1 $771 1 $771 0 $495 $-1 forward 7 unknown #
vertex $-1 $496 $772 #
ellipse-curve $-1 9.0561996415243726 -22.146235554860478 7.4369536424065723 0 -0.78801076186113728 0.61566146476048833 0.5 0 0 1 I I #
point $-1 9.5561996415243726 -23.403945654162026 8.4195844381475311 #
edge $-1 $773 1 $773 0 $499 $-1 forward 7 unknown #
vertex $-1 $500 $774 #
ellipse-curve $-1 12.259511914392696 -22.146235554860478 7.4369536424065723 0 -0.78801076186113728 0.61566146476048833 0.5 0 0 1 I I #
point $-1 12.759511914392696 -23.403945654162026 8.4195844381475311 #
edge $-1 $775 1 $775 0 $503 $-1 forward 7 unknown #
vertex $-1 $504 $776 #
ellipse-curve $-1 15.46282418726102 -22.146235554860478 7.4369536424065723 0 -0.78801076186113728 0.61566146476048833 0.5 0 0 1 I I #
point $-1 15.96282418726102 -23.403945654162026 8.4195844381475311 #
plane-surface $-1 49.444868312631613 0 0 -1 0 0 0 0 1 forward_v I I I I #
coedge $-1 $512 $510 $514 $684 reversed $361 $-1 #
edge $-1 $525 -11.710823438656123 $686 11.710823438656123 $524 $777 forward 7 unknown #
vertex $-1 $684 $778 #
straight-curve $-1 -49.444868312631613 -25.975343307595388 0 0 0 -1 I I #
edge $-1 $682 -25.975343307595388 $686 25.975343307595388 $680 $779 forward 7 unknown #
straight-curve $-1 0 -25.975343307595388 -11.710823438656123 -1 0 0 I I #
vertex $-1 $517 $780 #
straight-curve $-1 0 25.975343307595388 -11.710823438656123 1 0 0 I I #
point $-1 49.444868312631613 25.975343307595388 -11.710823438656123 #
point $-1 49.444868312631613 -25.975343307595388 -11.710823438656123 #
straight-curve $-1 -49.444868312631613 0 11.710823438656123 0 -1 0 I I #
point $-1 -49.444868312631613 25.975343307595388 11.710823438656123 #
point $-1 -49.444868312631613 -25.975343307595388 11.710823438656123 #
straight-curve $-1 49.444868312631613 -25.975343307595388 0 0 0 -1 I I #
straight-curve $-1 49.444868312631613 25.975343307595388 0 0 0 -1 I I #
plane-surface $-1 0 25.975343307595388 0 0 -1 0 0 0 -1 forward_v I I I I #
coedge $-1 $706 $705 $540 $698 forward $535 $-1 #
straight-curve $-1 -35.603552060073994 -25.975343307595388 4.2659098319493092 0 0 1 I I #
edge $-1 $701 -25.975343307595388 $699 25.975343307595388 $696 $781 forward 7 unknown #
vertex $-1 $541 $782 #
straight-curve $-1 -21.262105093176402 -25.975343307595388 7.0318196638986183 1 0 0 I I #
vertex $-1 $543 $783 #
straight-curve $-1 -21.262105093176402 25.975343307595388 7.0318196638986183 -1 0 0 I I #
point $-1 -35.603552060073994 25.975343307595388 7.0318196638986183 #
point $-1 -35.603552060073994 -25.975343307595388 7.0318196638986183 #
coedge $-1 $696 $547 $550 $708 forward $535 $-1 #
coedge $-1 $547 $696 $554 $710 reversed $535 $-1 #
straight-curve $-1 -49.444868312631613 0 10.031819663898618 0 1 0 I I #
edge $-1 $552 -10.031819663898618 $701 -7.0318196638986183 $550 $784 forward 7 unknown #
point $-1 -49.444868312631613 25.975343307595388 10.031819663898618 #
edge $-1 $555 -10.031819663898618 $699 -7.0318196638986183 $706 $785 forward 7 unknown #
point $-1 -49.444868312631613 -25.975343307595388 10.031819663898618 #
straight-curve $-1 -35.603552060073994 25.975343307595388 4.2659098319493092 0 0 -1 I I #
coedge $-1 $715 $569 $563 $714 forward $560 $-1 #
edge $-1 $571 -48.34597740084758 $722 -41.763499399830422 $713 $786 forward 7 unknown #
coedge $-1 $564 $713 $566 $717 reversed $560 $-1 #
straight-curve $-1 -24.925844483846227 25.975343307595388 53.474322838486543 0 0 -1 I I #
edge $-1 $567 24.925844483846227 $722 35.603552060073987 $715 $787 forward 7 unknown #
point $-1 -24.925844483846227 25.975343307595388 11.710823438656123 #
straight-curve $-1 -15.132349135980053 25.975343307595388 5.1283454376389592 -1 0 0 I I #
point $-1 -35.603552060073987 25.975343307595388 5.1283454376389628 #
point $-1 -24.925844483846227 25.975343307595388 5.1283454376389628 #
vertex $-1 $575 $788 #
straight-curve $-1 -35.603552060073987 35.958742094547418 11.710823438656121 0 -1 0 I I #
vertex $-1 $578 $789 #
point $-1 -32.968010544828431 22.146235554860482 7.4369536424065723 #
vertex $-1 $582 $790 #
point $-1 -29.764698271960107 22.146235554860482 7.4369536424065723 #
vertex $-1 $586 $791 #
point $-1 -26.56138599909178 22.146235554860482 7.4369536424065723 #
coedge $-1 $601 $600 $593 $731 forward $590 $-1 #
edge $-1 $732 9.98339878695203 $735 15.126194093818739 $730 $792 forward 7 unknown #
vertex $-1 $731 $793 #
straight-curve $-1 6.9206581262788163 25.975343307595388 53.474322838486543 0 0 1 I I #
edge $-1 $735 0.79090216908246802 $602 11.468609745310228 $601 $794 forward 7 unknown #
vertex $-1 $734 $795 #
straight-curve $-1 6.9206581262788163 -6.0086925092260515 46.066045576484619 0 0.61566146476048833 -0.78801076186113728 I I #
point $-1 6.9206581262788163 25.975343307595388 5.1283454376389628 #
point $-1 17.598365702506577 20.832548000728679 11.710823438656121 #
straight-curve $-1 0 25.975343307595388 11.710823438656123 -1 0 0 I I #
vertex $-1 $608 $796 #
point $-1 9.5561996415243726 22.146235554860482 7.4369536424065723 #
vertex $-1 $612 $797 #
point $-1 12.759511914392696 22.146235554860482 7.4369536424065723 #
vertex $-1 $616 $798 #
point $-1 15.96282418726102 22.146235554860482 7.4369536424065723 #
coedge $-1 $622 $621 $629 $751 forward $303 $-1 #
edge $-1 $754 -35.603552060073987 $625 -24.925844483846227 $624 $799 forward 7 unknown #
straight-curve $-1 -24.925844483846227 -51.950760002958148 11.710823438656121 0 1 0 I I #
point $-1 -24.925844483846227 -25.975343307595388 11.710823438656123 #
straight-curve $-1 -15.132349135980053 -20.832548000728693 11.710823438656123 -1 0 0 I I #
edge $-1 $630 -31.118212002229459 $754 -25.97541669536276 $746 $800 forward 7 unknown #
point $-1 -35.603552060073987 -20.832548000728689 11.710823438656123 #
point $-1 -24.925844483846227 -20.832548000728689 11.710823438656123 #
vertex $-1 $747 $801 #
straight-curve $-1 -35.603552060073987 -25.975343307595388 33.005472769063708 0 0 -1 I I #
vertex $-1 $637 $802 #
point $-1 -32.968010544828431 -22.146235554860478 7.4369536424065723 #
vertex $-1 $641 $803 #
point $-1 -29.764698271960107 -22.146235554860478 7.4369536424065723 #
vertex $-1 $645 $804 #
point $-1 -26.56138599909178 -22.146235554860478 7.4369536424065723 #
edge $-1 $763 25.97541669536276 $766 31.118212002229459 $650 $805 forward 7 unknown #
vertex $-1 $654 $806 #
straight-curve $-1 17.598365702506577 -25.975343307595388 33.005472769063708 0 0 1 I I #
edge $-1 $766 -11.468609745310228 $661 -0.79090216908246802 $660 $807 forward 7 unknown #
vertex $-1 $765 $808 #
straight-curve $-1 17.598365702506577 -25.975343307595409 5.1283454376389486 0 -0.61566146476048833 -0.78801076186113728 I I #
point $-1 17.598365702506577 -25.975343307595388 5.1283454376389761 #
point $-1 6.9206581262788163 -20.832548000728689 11.710823438656123 #
straight-curve $-1 0 -25.975343307595388 11.710823438656123 1 0 0 I I #
vertex $-1 $667 $809 #
point $-1 9.5561996415243726 -22.146235554860478 7.4369536424065723 #
vertex $-1 $671 $810 #
point $-1 12.759511914392696 -22.146235554860478 7.4369536424065723 #
vertex $-1 $675 $811 #
point $-1 15.96282418726102 -22.146235554860478 7.4369536424065723 #
straight-curve $-1 -49.444868312631613 25.975343307595388 0 0 0 -1 I I #
point $-1 -49.444868312631613 -25.975343307595388 -11.710823438656123 #
straight-curve $-1 -49.444868312631613 0 -11.710823438656123 0 1 0 I I #
point $-1 -49.444868312631613 25.975343307595388 -11.710823438656123 #
straight-curve $-1 -49.444868312631613 0 7.0318196638986183 0 -1 0 I I #
point $-1 -49.444868312631613 -25.975343307595388 7.0318196638986183 #
point $-1 -49.444868312631613 25.975343307595388 7.0318196638986183 #
straight-curve $-1 -49.444868312631613 25.975343307595388 0 0 0 -1 I I #
straight-curve $-1 -49.444868312631613 -25.975343307595388 0 0 0 -1 I I #
straight-curve $-1 -35.603552060073987 25.975343307595388 53.474322838486543 0 0 1 I I #
straight-curve $-1 0 25.975343307595388 11.710823438656123 -1 0 0 I I #
point $-1 -35.603552060073987 25.975343307595388 11.710823438656123 #
point $-1 -33.468010544828431 21.752230173929917 7.1291229100263278 #
point $-1 -30.264698271960107 21.752230173929917 7.1291229100263278 #
point $-1 -27.06138599909178 21.752230173929917 7.1291229100263278 #
straight-curve $-1 6.9206581262788163 35.958742094547418 11.710823438656121 0 -1 0 I I #
point $-1 6.9206581262788163 25.975343307595388 11.710823438656123 #
straight-curve $-1 6.1297559571963482 20.832548000728679 11.710823438656124 1 0 0 I I #
point $-1 6.9206581262788163 20.832548000728679 11.710823438656121 #
point $-1 9.0561996415243726 21.752230173929917 7.1291229100263278 #
point $-1 12.259511914392696 21.752230173929917 7.1291229100263278 #
point $-1 15.46282418726102 21.752230173929917 7.1291229100263278 #
straight-curve $-1 0 -25.975343307595388 11.710823438656123 1 0 0 I I #
straight-curve $-1 -35.603552060073987 -51.950760002958148 11.710823438656121 0 -1 0 I I #
point $-1 -35.603552060073987 -25.975343307595388 11.710823438656123 #
point $-1 -33.468010544828431 -21.752230173929913 7.1291229100263278 #
point $-1 -30.264698271960107 -21.752230173929913 7.1291229100263278 #
point $-1 -27.06138599909178 -21.752230173929913 7.1291229100263278 #
straight-curve $-1 17.598365702506577 -51.950760002958148 11.710823438656121 0 1 0 I I #
point $-1 17.598365702506577 -25.975343307595388 11.710823438656123 #
straight-curve $-1 6.1297559571963482 -20.832548000728693 11.710823438656123 -1 0 0 I I #
point $-1 17.598365702506577 -20.832548000728689 11.710823438656123 #
point $-1 9.0561996415243726 -21.752230173929913 7.1291229100263278 #
point $-1 12.259511914392696 -21.752230173929913 7.1291229100263278 #
point $-1 15.46282418726102 -21.752230173929913 7.1291229100263278 #
End-of-ACIS-data 