500 0 14 0           
7 Unknown 11 ACIS 5.0 NT 24 Fri Mar 26 15:20:20 1999 
-1 9.9999999999999995e-007 1e-010 
body $-1 $14 $-1 $15 #
body $-1 $16 $-1 $17 #
body $-1 $18 $-1 $19 #
body $-1 $20 $-1 $21 #
body $-1 $22 $-1 $23 #
body $-1 $24 $-1 $25 #
body $-1 $26 $-1 $27 #
body $-1 $28 $-1 $29 #
body $-1 $30 $-1 $31 #
body $-1 $32 $-1 $33 #
body $-1 $34 $-1 $35 #
body $-1 $36 $-1 $37 #
body $-1 $38 $-1 $39 #
body $-1 $40 $-1 $41 #
lump $-1 $-1 $42 $0 #
transform $-1 1 0 0 0 1 0 0 0 1 71.368144779808958 43.865261556502531 8.8144182154753157 1 rotate no_reflect no_shear #
lump $-1 $-1 $43 $1 #
transform $-1 1 0 0 0 1 0 0 0 1 71.368144779808958 43.865261556502531 8.8144182154753157 1 rotate no_reflect no_shear #
lump $-1 $-1 $44 $2 #
transform $-1 1 0 0 0 1 0 0 0 1 71.368144779808958 43.865261556502531 8.8144182154753157 1 rotate no_reflect no_shear #
lump $-1 $-1 $45 $3 #
transform $-1 1 0 0 0 1 0 0 0 1 71.368144779808958 43.865261556502531 8.8144182154753157 1 rotate no_reflect no_shear #
lump $-1 $-1 $46 $4 #
transform $-1 1 0 0 0 1 0 0 0 1 71.368144779808958 43.865261556502531 8.8144182154753157 1 rotate no_reflect no_shear #
lump $-1 $-1 $47 $5 #
transform $-1 1 0 0 0 1 0 0 0 1 71.368144779808958 43.865261556502531 8.8144182154753157 1 rotate no_reflect no_shear #
lump $-1 $-1 $48 $6 #
transform $-1 1 0 0 0 1 0 0 0 1 71.368144779808958 43.865261556502531 8.8144182154753157 1 rotate no_reflect no_shear #
lump $-1 $-1 $49 $7 #
transform $-1 1 0 0 0 1 0 0 0 1 71.368144779808958 43.865261556502531 8.8144182154753157 1 rotate no_reflect no_shear #
lump $-1 $-1 $50 $8 #
transform $-1 1 0 0 0 1 0 0 0 1 71.368144779808958 43.865261556502531 8.8144182154753157 1 rotate no_reflect no_shear #
lump $-1 $-1 $51 $9 #
transform $-1 1 0 0 0 1 0 0 0 1 71.368144779808958 43.865261556502531 8.8144182154753157 1 rotate no_reflect no_shear #
lump $-1 $-1 $52 $10 #
transform $-1 1 0 0 0 1 0 0 0 1 71.368144779808958 43.865261556502531 8.8144182154753157 1 rotate no_reflect no_shear #
lump $-1 $-1 $53 $11 #
transform $-1 1 0 0 0 1 0 0 0 1 71.368144779808958 43.865261556502531 8.8144182154753157 1 rotate no_reflect no_shear #
lump $-1 $-1 $54 $12 #
transform $-1 1 0 0 0 1 0 0 0 1 71.368144779808958 43.865261556502531 8.8144182154753157 1 rotate no_reflect no_shear #
lump $-1 $-1 $55 $13 #
transform $-1 1 0 0 0 1 0 0 0 1 71.368144779808958 43.865261556502531 8.8144182154753157 1 rotate no_reflect no_shear #
shell $-1 $-1 $-1 $56 $-1 $14 #
shell $-1 $-1 $-1 $57 $-1 $16 #
shell $-1 $-1 $-1 $58 $-1 $18 #
shell $-1 $-1 $-1 $59 $-1 $20 #
shell $-1 $-1 $-1 $60 $-1 $22 #
shell $-1 $-1 $-1 $61 $-1 $24 #
shell $-1 $-1 $-1 $62 $-1 $26 #
shell $-1 $-1 $-1 $63 $-1 $28 #
shell $-1 $-1 $-1 $64 $-1 $30 #
shell $-1 $-1 $-1 $65 $-1 $32 #
shell $-1 $-1 $-1 $66 $-1 $34 #
shell $-1 $-1 $-1 $67 $-1 $36 #
shell $-1 $-1 $-1 $68 $-1 $38 #
shell $-1 $-1 $-1 $69 $-1 $40 #
face $-1 $70 $71 $42 $-1 $72 forward single #
face $-1 $73 $74 $43 $-1 $75 reversed single #
face $-1 $76 $77 $44 $-1 $78 reversed single #
face $-1 $79 $80 $45 $-1 $81 forward single #
face $-1 $82 $83 $46 $-1 $84 forward single #
face $-1 $85 $86 $47 $-1 $87 forward single #
face $-1 $88 $89 $48 $-1 $90 reversed single #
face $-1 $91 $92 $49 $-1 $93 forward single #
face $-1 $94 $95 $50 $-1 $96 forward single #
face $-1 $97 $98 $51 $-1 $99 forward single #
face $-1 $100 $101 $52 $-1 $102 reversed single #
face $-1 $103 $104 $53 $-1 $105 forward single #
face $-1 $106 $107 $54 $-1 $108 forward single #
face $-1 $109 $110 $55 $-1 $111 forward single #
face $-1 $112 $113 $42 $-1 $114 reversed single #
loop $-1 $-1 $115 $56 #
plane-surface $-1 0 0 8.8144182154753157 0 0 1 1 0 0 forward_v I I I I #
face $-1 $116 $117 $43 $-1 $118 reversed single #
loop $-1 $-1 $119 $57 #
plane-surface $-1 0 -40.557566855985165 5.8144182154753157 0 0 1 1 0 0 forward_v I I I I #
face $-1 $120 $121 $44 $-1 $122 reversed single #
loop $-1 $-1 $123 $58 #
plane-surface $-1 -166.87736591092721 -14.835587458008035 107.64893432903565 0 1 0 -0.66913061440640931 0 0.74314481823134659 forward_v I I I I #
face $-1 $124 $125 $45 $-1 $126 forward single #
loop $-1 $127 $128 $59 #
cone-surface $-1 -66.319613779371636 -11.206931026302954 4.0524909039692272 0.66913061440640931 0 -0.74314481823134659 0.74314481823134659 0 0.66913061440640931 1 I I 0 1 1 forward I I I I #
face $-1 $129 $130 $46 $-1 $131 forward single #
loop $-1 $132 $133 $60 #
cone-surface $-1 -66.319613779371636 -5.7639463787453309 4.0524909039692272 0.66913061440640931 0 -0.74314481823134659 0.74314481823134659 0 0.66913061440640931 1 I I 0 1 1 forward I I I I #
face $-1 $134 $135 $47 $-1 $136 forward single #
loop $-1 $137 $138 $61 #
cone-surface $-1 -66.319613779371636 -0.32096173118770821 4.0524909039692272 0.66913061440640931 0 -0.74314481823134659 0.74314481823134659 0 0.66913061440640931 1 I I 0 1 1 forward I I I I #
face $-1 $139 $140 $48 $-1 $141 reversed single #
loop $-1 $-1 $142 $62 #
plane-surface $-1 -71.368144779808929 -5.763946378745338 1.5752003692365406 -0.66913061440640931 0 0.74314481823134659 0.74314481823134659 0 0.66913061440640931 forward_v I I I I #
face $-1 $143 $144 $49 $-1 $145 forward single #
loop $-1 $146 $147 $63 #
cone-surface $-1 -66.319613779371636 6.9363511322224483 4.0524909039692272 0.66913061440640931 0 -0.74314481823134659 0.74314481823134659 0 0.66913061440640931 1 I I 0 1 1 forward I I I I #
face $-1 $148 $149 $50 $-1 $150 forward single #
loop $-1 $151 $152 $64 #
cone-surface $-1 -66.319613779371636 12.379335779780071 4.0524909039692272 0.66913061440640931 0 -0.74314481823134659 0.74314481823134659 0 0.66913061440640931 1 I I 0 1 1 forward I I I I #
face $-1 $153 $154 $51 $-1 $155 forward single #
loop $-1 $156 $157 $65 #
cone-surface $-1 -66.319613779371636 17.822320427337694 4.0524909039692272 0.66913061440640931 0 -0.74314481823134659 0.74314481823134659 0 0.66913061440640931 1 I I 0 1 1 forward I I I I #
face $-1 $158 $159 $52 $-1 $160 reversed single #
loop $-1 $-1 $161 $66 #
plane-surface $-1 36.315595490347349 -15.204191340258848 203.1181758311655 0 -1 0 -0.57357644374324357 0 -0.81915203911291934 forward_v I I I I #
face $-1 $162 $163 $53 $-1 $164 forward single #
loop $-1 $165 $166 $67 #
cone-surface $-1 67.696627763770834 -32.840735992426012 5.90441767196379 -0.57357644374324357 0 -0.81915203911291934 0.81915203911291934 0 -0.57357644374324357 1 I I 0 1 1 forward I I I I #
face $-1 $167 $168 $54 $-1 $169 forward single #
loop $-1 $170 $171 $68 #
cone-surface $-1 67.696627763770834 -26.227031747863325 5.90441767196379 -0.57357644374324357 0 -0.81915203911291934 0.81915203911291934 0 -0.57357644374324357 1 I I 0 1 1 forward I I I I #
face $-1 $172 $173 $55 $-1 $174 forward single #
loop $-1 $175 $176 $69 #
cone-surface $-1 67.696627763770834 -19.613327503300638 5.90441767196379 -0.57357644374324357 0 -0.81915203911291934 0.81915203911291934 0 -0.57357644374324357 1 I I 0 1 1 forward I I I I #
face $-1 $177 $178 $42 $-1 $179 reversed single #
loop $-1 $-1 $180 $70 #
plane-surface $-1 0 0 -8.8144182154753157 0 0 1 1 0 0 forward_v I I I I #
coedge $-1 $181 $182 $183 $184 forward $71 $-1 #
face $-1 $185 $186 $43 $-1 $187 reversed single #
loop $-1 $-1 $188 $73 #
plane-surface $-1 0 -37.249872155467799 7.3144182154753157 0 -1 0 0 0 -1 forward_v I I I I #
coedge $-1 $189 $190 $191 $192 reversed $74 $-1 #
face $-1 $193 $194 $44 $-1 $195 reversed single #
loop $-1 $-1 $196 $76 #
plane-surface $-1 -71.368144779808929 -5.763946378745338 1.5752003692365406 -0.66913061440640931 0 0.74314481823134659 0.74314481823134659 0 0.66913061440640931 forward_v I I I I #
coedge $-1 $197 $198 $199 $200 reversed $77 $-1 #
face $-1 $-1 $201 $45 $-1 $202 forward single #
loop $-1 $203 $204 $79 #
cone-surface $-1 -64.956500352990147 -11.206931026302954 2.5386001064668431 0.66913061440640931 0 -0.74314481823134659 0.3715724091156733 0 0.33456530720320465 1 I I -0.70710678118654746 0.70710678118654746 0.5 forward I I I I #
loop $-1 $-1 $205 $59 #
coedge $-1 $128 $128 $206 $207 reversed $80 $-1 #
face $-1 $-1 $208 $46 $-1 $209 forward single #
loop $-1 $210 $211 $82 #
cone-surface $-1 -64.956500352990147 -5.7639463787453309 2.5386001064668431 0.66913061440640931 0 -0.74314481823134659 0.3715724091156733 0 0.33456530720320465 1 I I -0.70710678118654746 0.70710678118654746 0.5 forward I I I I #
loop $-1 $-1 $212 $60 #
coedge $-1 $133 $133 $213 $214 reversed $83 $-1 #
face $-1 $-1 $215 $47 $-1 $216 forward single #
loop $-1 $217 $218 $85 #
cone-surface $-1 -64.956500352990147 -0.32096173118770821 2.5386001064668431 0.66913061440640931 0 -0.74314481823134659 0.3715724091156733 0 0.33456530720320465 1 I I -0.70710678118654746 0.70710678118654746 0.5 forward I I I I #
loop $-1 $-1 $219 $61 #
coedge $-1 $138 $138 $220 $221 reversed $86 $-1 #
face $-1 $222 $223 $48 $-1 $224 forward single #
loop $-1 $-1 $225 $88 #
plane-surface $-1 -166.87736591092721 21.450976859042761 107.64893432903565 0 -1 0 0.66913061440640931 0 -0.74314481823134659 forward_v I I I I #
coedge $-1 $226 $227 $228 $229 reversed $89 $-1 #
face $-1 $-1 $230 $49 $-1 $231 forward single #
loop $-1 $232 $233 $91 #
cone-surface $-1 -64.956500352990147 6.9363511322224483 2.5386001064668431 0.66913061440640931 0 -0.74314481823134659 0.3715724091156733 0 0.33456530720320465 1 I I -0.70710678118654746 0.70710678118654746 0.5 forward I I I I #
loop $-1 $-1 $234 $63 #
coedge $-1 $147 $147 $235 $236 reversed $92 $-1 #
face $-1 $-1 $237 $50 $-1 $238 forward single #
loop $-1 $239 $240 $94 #
cone-surface $-1 -64.956500352990147 12.379335779780071 2.5386001064668431 0.66913061440640931 0 -0.74314481823134659 0.3715724091156733 0 0.33456530720320465 1 I I -0.70710678118654746 0.70710678118654746 0.5 forward I I I I #
loop $-1 $-1 $241 $64 #
coedge $-1 $152 $152 $242 $243 reversed $95 $-1 #
face $-1 $-1 $244 $51 $-1 $245 forward single #
loop $-1 $246 $247 $97 #
cone-surface $-1 -64.956500352990147 17.822320427337694 2.5386001064668431 0.66913061440640931 0 -0.74314481823134659 0.3715724091156733 0 0.33456530720320465 1 I I -0.70710678118654746 0.70710678118654746 0.5 forward I I I I #
loop $-1 $-1 $248 $65 #
coedge $-1 $157 $157 $249 $250 reversed $98 $-1 #
face $-1 $251 $252 $52 $-1 $253 forward single #
loop $-1 $-1 $254 $100 #
plane-surface $-1 -45.554577868364163 -26.227031747863325 86.195453182992381 0.57357644374324357 0 0.81915203911291934 0.81915203911291934 0 -0.57357644374324357 forward_v I I I I #
coedge $-1 $255 $256 $257 $258 reversed $101 $-1 #
face $-1 $-1 $259 $53 $-1 $260 forward single #
loop $-1 $261 $262 $103 #
cone-surface $-1 66.94389948697939 -32.840735992426012 4.8294103044930363 -0.57357644374324357 0 -0.81915203911291934 0.40957601955645967 0 -0.28678822187162178 1 I I -0.70710678118654746 0.70710678118654746 0.5 forward I I I I #
loop $-1 $-1 $263 $67 #
coedge $-1 $166 $166 $264 $265 reversed $104 $-1 #
face $-1 $-1 $266 $54 $-1 $267 forward single #
loop $-1 $268 $269 $106 #
cone-surface $-1 66.94389948697939 -26.227031747863325 4.8294103044930363 -0.57357644374324357 0 -0.81915203911291934 0.40957601955645967 0 -0.28678822187162178 1 I I -0.70710678118654746 0.70710678118654746 0.5 forward I I I I #
loop $-1 $-1 $270 $68 #
coedge $-1 $171 $171 $271 $272 reversed $107 $-1 #
face $-1 $-1 $273 $55 $-1 $274 forward single #
loop $-1 $275 $276 $109 #
cone-surface $-1 66.94389948697939 -19.613327503300638 4.8294103044930363 -0.57357644374324357 0 -0.81915203911291934 0.40957601955645967 0 -0.28678822187162178 1 I I -0.70710678118654746 0.70710678118654746 0.5 forward I I I I #
loop $-1 $-1 $277 $69 #
coedge $-1 $176 $176 $278 $279 reversed $110 $-1 #
face $-1 $280 $281 $42 $-1 $282 reversed single #
loop $-1 $-1 $283 $112 #
plane-surface $-1 0 -43.865261556502531 0 0 1 0 0 0 1 forward_v I I I I #
coedge $-1 $284 $285 $286 $287 forward $113 $-1 #
coedge $-1 $288 $115 $289 $290 forward $71 $-1 #
coedge $-1 $115 $288 $291 $292 forward $71 $-1 #
coedge $-1 $293 $294 $115 $184 reversed $295 $-1 #
edge $-1 $296 -43.865261556502531 $297 43.865261556502531 $183 $298 forward 7 unknown #
face $-1 $299 $300 $43 $-1 $301 reversed single #
loop $-1 $-1 $302 $116 #
plane-surface $-1 -71.368144779808958 0 0 1 0 0 0 0 -1 forward_v I I I I #
coedge $-1 $303 $304 $190 $305 reversed $117 $-1 #
coedge $-1 $306 $119 $307 $308 reversed $74 $-1 #
coedge $-1 $119 $306 $188 $305 forward $74 $-1 #
coedge $-1 $309 $310 $119 $192 forward $311 $-1 #
edge $-1 $312 -23.586478128509949 $313 -16.971088727475216 $191 $314 forward 7 unknown #
face $-1 $315 $316 $44 $-1 $317 forward single #
loop $-1 $-1 $318 $120 #
plane-surface $-1 -166.87736591092721 3.3076947005173594 107.64893432903565 0 -1 0 0.66913061440640931 0 -0.74314481823134659 forward_v I I I I #
coedge $-1 $319 $320 $321 $322 reversed $121 $-1 #
coedge $-1 $198 $123 $323 $324 reversed $77 $-1 #
coedge $-1 $123 $197 $319 $325 reversed $77 $-1 #
coedge $-1 $321 $326 $123 $200 forward $316 $-1 #
edge $-1 $327 12.070538175654647 $328 20.110503938172783 $199 $329 forward 7 unknown #
loop $-1 $-1 $206 $124 #
plane-surface $-1 -71.368144779808929 -5.763946378745338 1.5752003692365406 -0.66913061440640931 0 0.74314481823134659 0.74314481823134659 0 0.66913061440640931 forward_v I I I I #
loop $-1 $-1 $330 $79 #
coedge $-1 $204 $204 $205 $331 reversed $125 $-1 #
coedge $-1 $205 $205 $204 $331 forward $127 $-1 #
coedge $-1 $206 $206 $128 $207 forward $201 $-1 #
edge $-1 $332 0 $332 6.2831853071796004 $206 $333 forward 7 unknown #
loop $-1 $-1 $213 $129 #
plane-surface $-1 -71.368144779808929 -5.763946378745338 1.5752003692365406 -0.66913061440640931 0 0.74314481823134659 0.74314481823134659 0 0.66913061440640931 forward_v I I I I #
loop $-1 $-1 $334 $82 #
coedge $-1 $211 $211 $212 $335 reversed $130 $-1 #
coedge $-1 $212 $212 $211 $335 forward $132 $-1 #
coedge $-1 $213 $213 $133 $214 forward $208 $-1 #
edge $-1 $336 0 $336 6.2831853071796004 $213 $337 forward 7 unknown #
loop $-1 $-1 $220 $134 #
plane-surface $-1 -71.368144779808929 -5.763946378745338 1.5752003692365406 -0.66913061440640931 0 0.74314481823134659 0.74314481823134659 0 0.66913061440640931 forward_v I I I I #
loop $-1 $-1 $338 $85 #
coedge $-1 $218 $218 $219 $339 reversed $135 $-1 #
coedge $-1 $219 $219 $218 $339 forward $137 $-1 #
coedge $-1 $220 $220 $138 $221 forward $215 $-1 #
edge $-1 $340 0 $340 6.2831853071796004 $220 $341 forward 7 unknown #
face $-1 $342 $343 $48 $-1 $344 forward single #
loop $-1 $-1 $345 $139 #
plane-surface $-1 0 0 8.8144182154753157 0 0 1 1 0 0 forward_v I I I I #
coedge $-1 $346 $347 $348 $349 reversed $140 $-1 #
coedge $-1 $350 $142 $351 $352 reversed $89 $-1 #
coedge $-1 $142 $350 $345 $353 reversed $89 $-1 #
coedge $-1 $354 $355 $142 $229 forward $343 $-1 #
edge $-1 $356 -3.8207783024179916e-014 $357 10.818841180448365 $228 $358 forward 7 unknown #
loop $-1 $-1 $235 $143 #
plane-surface $-1 -71.368144779808929 -5.763946378745338 1.5752003692365406 -0.66913061440640931 0 0.74314481823134659 0.74314481823134659 0 0.66913061440640931 forward_v I I I I #
loop $-1 $-1 $359 $91 #
coedge $-1 $233 $233 $234 $360 reversed $144 $-1 #
coedge $-1 $234 $234 $233 $360 forward $146 $-1 #
coedge $-1 $235 $235 $147 $236 forward $230 $-1 #
edge $-1 $361 0 $361 6.2831853071796004 $235 $362 forward 7 unknown #
loop $-1 $-1 $242 $148 #
plane-surface $-1 -71.368144779808929 -5.763946378745338 1.5752003692365406 -0.66913061440640931 0 0.74314481823134659 0.74314481823134659 0 0.66913061440640931 forward_v I I I I #
loop $-1 $-1 $363 $94 #
coedge $-1 $240 $240 $241 $364 reversed $149 $-1 #
coedge $-1 $241 $241 $240 $364 forward $151 $-1 #
coedge $-1 $242 $242 $152 $243 forward $237 $-1 #
edge $-1 $365 0 $365 6.2831853071796004 $242 $366 forward 7 unknown #
loop $-1 $-1 $249 $153 #
plane-surface $-1 -71.368144779808929 -5.763946378745338 1.5752003692365406 -0.66913061440640931 0 0.74314481823134659 0.74314481823134659 0 0.66913061440640931 forward_v I I I I #
loop $-1 $-1 $367 $97 #
coedge $-1 $247 $247 $248 $368 reversed $154 $-1 #
coedge $-1 $248 $248 $247 $368 forward $156 $-1 #
coedge $-1 $249 $249 $157 $250 forward $244 $-1 #
edge $-1 $369 0 $369 6.2831853071796004 $249 $370 forward 7 unknown #
face $-1 $371 $372 $52 $-1 $373 forward single #
loop $-1 $-1 $374 $158 #
plane-surface $-1 0 -37.249872155467799 7.3144182154753157 0 -1 0 0 0 -1 forward_v I I I I #
coedge $-1 $375 $376 $377 $378 reversed $159 $-1 #
coedge $-1 $256 $161 $379 $380 reversed $101 $-1 #
coedge $-1 $161 $255 $375 $381 reversed $101 $-1 #
coedge $-1 $377 $382 $161 $258 forward $372 $-1 #
edge $-1 $383 -53.210347034635284 $384 -46.79919311239869 $257 $385 forward 7 unknown #
loop $-1 $-1 $264 $162 #
plane-surface $-1 -45.554577868364163 -26.227031747863325 86.195453182992381 0.57357644374324357 0 0.81915203911291934 0.81915203911291934 0 -0.57357644374324357 forward_v I I I I #
loop $-1 $-1 $386 $103 #
coedge $-1 $262 $262 $263 $387 reversed $163 $-1 #
coedge $-1 $263 $263 $262 $387 forward $165 $-1 #
coedge $-1 $264 $264 $166 $265 forward $259 $-1 #
edge $-1 $388 0 $388 6.2831853071796004 $264 $389 forward 7 unknown #
loop $-1 $-1 $271 $167 #
plane-surface $-1 -45.554577868364163 -26.227031747863325 86.195453182992381 0.57357644374324357 0 0.81915203911291934 0.81915203911291934 0 -0.57357644374324357 forward_v I I I I #
loop $-1 $-1 $390 $106 #
coedge $-1 $269 $269 $270 $391 reversed $168 $-1 #
coedge $-1 $270 $270 $269 $391 forward $170 $-1 #
coedge $-1 $271 $271 $171 $272 forward $266 $-1 #
edge $-1 $392 0 $392 6.2831853071796004 $271 $393 forward 7 unknown #
loop $-1 $-1 $278 $172 #
plane-surface $-1 -45.554577868364163 -26.227031747863325 86.195453182992381 0.57357644374324357 0 0.81915203911291934 0.81915203911291934 0 -0.57357644374324357 forward_v I I I I #
loop $-1 $-1 $394 $109 #
coedge $-1 $276 $276 $277 $395 reversed $173 $-1 #
coedge $-1 $277 $277 $276 $395 forward $175 $-1 #
coedge $-1 $278 $278 $176 $279 forward $273 $-1 #
edge $-1 $396 0 $396 6.2831853071796004 $278 $397 forward 7 unknown #
face $-1 $398 $399 $42 $-1 $400 reversed single #
loop $-1 $-1 $401 $177 #
plane-surface $-1 -71.368144779808958 0 0 1 0 0 0 0 -1 forward_v I I I I #
coedge $-1 $402 $291 $403 $404 forward $178 $-1 #
coedge $-1 $405 $180 $402 $406 forward $113 $-1 #
coedge $-1 $180 $405 $407 $408 forward $113 $-1 #
coedge $-1 $294 $293 $180 $287 reversed $295 $-1 #
edge $-1 $409 -43.865261556502531 $410 43.865261556502531 $286 $411 forward 7 unknown #
coedge $-1 $182 $181 $412 $413 forward $71 $-1 #
coedge $-1 $414 $415 $181 $290 reversed $399 $-1 #
edge $-1 $297 -71.368144779808958 $416 71.368144779808958 $289 $417 forward 7 unknown #
coedge $-1 $283 $418 $182 $292 reversed $178 $-1 #
edge $-1 $419 -71.368144779808958 $296 71.368144779808958 $291 $420 forward 7 unknown #
coedge $-1 $286 $183 $418 $421 forward $295 $-1 #
coedge $-1 $183 $286 $414 $422 reversed $295 $-1 #
loop $-1 $-1 $293 $398 #
vertex $-1 $184 $423 #
vertex $-1 $184 $424 #
straight-curve $-1 71.368144779808958 0 8.8144182154753157 0 1 0 I I #
face $-1 $425 $426 $43 $-1 $427 forward single #
loop $-1 $-1 $307 $185 #
plane-surface $-1 0 -43.865261556502531 0 0 1 0 0 0 1 forward_v I I I I #
coedge $-1 $428 $429 $303 $430 forward $186 $-1 #
coedge $-1 $431 $188 $302 $430 reversed $117 $-1 #
coedge $-1 $188 $431 $309 $432 reversed $117 $-1 #
edge $-1 $433 -71.368144779808958 $313 71.368144779808958 $188 $434 forward 7 unknown #
coedge $-1 $190 $189 $428 $435 reversed $74 $-1 #
coedge $-1 $436 $437 $189 $308 forward $300 $-1 #
edge $-1 $438 -71.368144779808958 $312 71.368144779808958 $307 $439 forward 7 unknown #
coedge $-1 $440 $191 $304 $432 forward $311 $-1 #
coedge $-1 $191 $440 $436 $441 forward $311 $-1 #
loop $-1 $-1 $309 $425 #
vertex $-1 $308 $442 #
vertex $-1 $192 $443 #
straight-curve $-1 71.368144779808958 -20.278783427992582 5.8144182154753157 0 1 0 I I #
face $-1 $-1 $444 $44 $-1 $445 reversed single #
loop $-1 $-1 $199 $193 #
plane-surface $-1 0 0 8.8144182154753157 0 0 1 1 0 0 forward_v I I I I #
coedge $-1 $446 $447 $448 $449 reversed $194 $-1 #
coedge $-1 $450 $196 $198 $325 forward $121 $-1 #
coedge $-1 $196 $450 $446 $451 forward $121 $-1 #
coedge $-1 $448 $199 $196 $322 forward $316 $-1 #
edge $-1 $328 -11.953614268635366 $452 6.1896678898900284 $321 $453 forward 7 unknown #
coedge $-1 $454 $455 $197 $324 forward $444 $-1 #
edge $-1 $456 -52.249266795281315 $327 -45.010048949042513 $323 $457 forward 7 unknown #
edge $-1 $328 -10.818841180448365 $456 3.8207783024179916e-014 $198 $458 forward 7 unknown #
coedge $-1 $199 $448 $454 $459 forward $316 $-1 #
vertex $-1 $324 $460 #
vertex $-1 $200 $461 #
straight-curve $-1 -83.438682955463605 -14.835587458008035 8.8144182154753139 1 0 0 I I #
coedge $-1 $330 $330 $-1 $462 reversed $203 $-1 #
edge $-1 $463 0 $463 6.2831853071796004 $204 $464 forward 7 unknown #
vertex $-1 $207 $465 #
ellipse-curve $-1 -67.34816189854989 -11.206931026302954 5.1948092923559113 -0.66913061440640931 0 0.74314481823134659 0.74314481823134659 0 0.66913061440640931 1 I I #
coedge $-1 $334 $334 $-1 $466 reversed $210 $-1 #
edge $-1 $467 0 $467 6.2831853071796004 $211 $468 forward 7 unknown #
vertex $-1 $214 $469 #
ellipse-curve $-1 -67.34816189854989 -5.7639463787453309 5.1948092923559113 -0.66913061440640931 0 0.74314481823134659 0.74314481823134659 0 0.66913061440640931 1 I I #
coedge $-1 $338 $338 $-1 $470 reversed $217 $-1 #
edge $-1 $471 0 $471 6.2831853071796004 $218 $472 forward 7 unknown #
vertex $-1 $221 $473 #
ellipse-curve $-1 -67.34816189854989 -0.32096173118770821 5.1948092923559113 -0.66913061440640931 0 0.74314481823134659 0.74314481823134659 0 0.66913061440640931 1 I I #
face $-1 $-1 $474 $48 $-1 $475 reversed single #
loop $-1 $-1 $354 $222 #
plane-surface $-1 -166.87736591092721 3.3076947005173594 107.64893432903565 0 -1 0 0.66913061440640931 0 -0.74314481823134659 forward_v I I I I #
coedge $-1 $348 $476 $227 $353 forward $223 $-1 #
coedge $-1 $347 $225 $350 $477 reversed $140 $-1 #
coedge $-1 $225 $346 $478 $479 reversed $140 $-1 #
coedge $-1 $480 $345 $225 $349 forward $223 $-1 #
edge $-1 $481 -20.110503938172783 $482 -12.070538175654647 $348 $483 forward 7 unknown #
coedge $-1 $227 $226 $346 $477 forward $89 $-1 #
coedge $-1 $484 $478 $226 $352 forward $474 $-1 #
edge $-1 $485 -24.33295004841543 $356 -6.1896678898900284 $351 $486 forward 7 unknown #
edge $-1 $357 6.1896678898900284 $481 24.33295004841543 $345 $487 forward 7 unknown #
coedge $-1 $355 $228 $476 $488 reversed $343 $-1 #
coedge $-1 $228 $354 $484 $489 reversed $343 $-1 #
vertex $-1 $352 $490 #
vertex $-1 $353 $491 #
straight-curve $-1 -71.368144779808929 3.3076947005173594 1.5752003692365406 0.74314481823134659 0 0.66913061440640931 I I #
coedge $-1 $359 $359 $-1 $492 reversed $232 $-1 #
edge $-1 $493 0 $493 6.2831853071796004 $233 $494 forward 7 unknown #
vertex $-1 $236 $495 #
ellipse-curve $-1 -67.34816189854989 6.9363511322224483 5.1948092923559113 -0.66913061440640931 0 0.74314481823134659 0.74314481823134659 0 0.66913061440640931 1 I I #
coedge $-1 $363 $363 $-1 $496 reversed $239 $-1 #
edge $-1 $497 0 $497 6.2831853071796004 $240 $498 forward 7 unknown #
vertex $-1 $243 $499 #
ellipse-curve $-1 -67.34816189854989 12.379335779780071 5.1948092923559113 -0.66913061440640931 0 0.74314481823134659 0.74314481823134659 0 0.66913061440640931 1 I I #
coedge $-1 $367 $367 $-1 $500 reversed $246 $-1 #
edge $-1 $501 0 $501 6.2831853071796004 $247 $502 forward 7 unknown #
vertex $-1 $250 $503 #
ellipse-curve $-1 -67.34816189854989 17.822320427337694 5.1948092923559113 -0.66913061440640931 0 0.74314481823134659 0.74314481823134659 0 0.66913061440640931 1 I I #
face $-1 $-1 $504 $52 $-1 $505 reversed single #
loop $-1 $-1 $377 $251 #
plane-surface $-1 0 0 8.8144182154753157 0 0 1 1 0 0 forward_v I I I I #
coedge $-1 $506 $507 $376 $508 reversed $252 $-1 #
coedge $-1 $509 $254 $256 $381 forward $159 $-1 #
coedge $-1 $254 $509 $374 $508 forward $159 $-1 #
coedge $-1 $510 $257 $254 $378 forward $372 $-1 #
edge $-1 $384 2.0906754663271858 $511 24.136356281536138 $377 $512 forward 7 unknown #
coedge $-1 $513 $514 $255 $380 forward $504 $-1 #
edge $-1 $515 -97.233808091301881 $383 -92.744669700107437 $379 $516 forward 7 unknown #
edge $-1 $384 134.90971571725845 $515 142.73628955961792 $256 $517 forward 7 unknown #
coedge $-1 $257 $510 $513 $518 forward $372 $-1 #
vertex $-1 $380 $519 #
vertex $-1 $258 $520 #
straight-curve $-1 18.157797745173674 -15.204191340258848 8.8144182154753139 -1 0 0 I I #
coedge $-1 $386 $386 $-1 $521 reversed $261 $-1 #
edge $-1 $522 0 $522 6.2831853071796004 $262 $523 forward 7 unknown #
vertex $-1 $265 $524 #
ellipse-curve $-1 68.162567818690661 -32.840735992426012 6.569849019878089 0.57357644374324357 0 0.81915203911291934 0.81915203911291934 0 -0.57357644374324357 1 I I #
coedge $-1 $390 $390 $-1 $525 reversed $268 $-1 #
edge $-1 $526 0 $526 6.2831853071796004 $269 $527 forward 7 unknown #
vertex $-1 $272 $528 #
ellipse-curve $-1 68.162567818690661 -26.227031747863325 6.569849019878089 0.57357644374324357 0 0.81915203911291934 0.81915203911291934 0 -0.57357644374324357 1 I I #
coedge $-1 $394 $394 $-1 $529 reversed $275 $-1 #
edge $-1 $530 0 $530 6.2831853071796004 $276 $531 forward 7 unknown #
vertex $-1 $279 $532 #
ellipse-curve $-1 68.162567818690661 -19.613327503300638 6.569849019878089 0.57357644374324357 0 0.81915203911291934 0.81915203911291934 0 -0.57357644374324357 1 I I #
face $-1 $-1 $295 $42 $-1 $533 reversed single #
loop $-1 $-1 $414 $280 #
plane-surface $-1 0 43.865261556502531 0 0 -1 0 0 0 -1 forward_v I I I I #
coedge $-1 $534 $412 $415 $535 forward $281 $-1 #
coedge $-1 $418 $283 $284 $406 reversed $178 $-1 #
coedge $-1 $412 $534 $283 $404 reversed $281 $-1 #
edge $-1 $419 -8.8144182154753157 $536 8.8144182154753157 $403 $537 forward 7 unknown #
coedge $-1 $285 $284 $534 $538 forward $113 $-1 #
edge $-1 $410 -71.368144779808958 $536 71.368144779808958 $402 $539 forward 7 unknown #
coedge $-1 $415 $414 $285 $408 reversed $399 $-1 #
edge $-1 $540 -71.368144779808958 $409 71.368144779808958 $407 $541 forward 7 unknown #
vertex $-1 $287 $542 #
vertex $-1 $421 $543 #
straight-curve $-1 71.368144779808958 0 -8.8144182154753157 0 -1 0 I I #
coedge $-1 $401 $403 $288 $413 reversed $281 $-1 #
edge $-1 $416 -43.865261556502531 $419 43.865261556502531 $412 $544 forward 7 unknown #
coedge $-1 $407 $289 $294 $422 forward $399 $-1 #
coedge $-1 $289 $407 $401 $535 reversed $399 $-1 #
vertex $-1 $290 $545 #
straight-curve $-1 0 43.865261556502531 8.8144182154753157 -1 0 0 I I #
coedge $-1 $291 $402 $293 $421 reversed $178 $-1 #
vertex $-1 $413 $546 #
straight-curve $-1 0 -43.865261556502531 8.8144182154753157 1 0 0 I I #
edge $-1 $296 -8.8144182154753157 $410 8.8144182154753157 $293 $547 forward 7 unknown #
edge $-1 $297 -8.8144182154753157 $409 8.8144182154753157 $294 $548 forward 7 unknown #
point $-1 71.368144779808958 -43.865261556502531 8.8144182154753157 #
point $-1 71.368144779808958 43.865261556502531 8.8144182154753157 #
face $-1 $-1 $311 $43 $-1 $549 reversed single #
loop $-1 $-1 $550 $299 #
plane-surface $-1 0 0 8.8144182154753157 0 0 1 1 0 0 forward_v I I I I #
coedge $-1 $551 $302 $306 $435 forward $186 $-1 #
coedge $-1 $302 $551 $552 $553 reversed $186 $-1 #
edge $-1 $554 -5.1572091077376578 $433 -2.1572091077376578 $302 $555 forward 7 unknown #
coedge $-1 $304 $303 $550 $556 reversed $117 $-1 #
edge $-1 $313 2.1572091077376578 $557 5.1572091077376578 $309 $558 forward 7 unknown #
vertex $-1 $435 $559 #
straight-curve $-1 0 -37.249872155467799 5.8144182154753157 1 0 0 I I #
edge $-1 $433 16.971088727475216 $438 23.586478128509949 $428 $560 forward 7 unknown #
coedge $-1 $561 $307 $310 $441 reversed $300 $-1 #
coedge $-1 $307 $561 $551 $562 forward $300 $-1 #
vertex $-1 $308 $563 #
straight-curve $-1 0 -43.865261556502531 5.8144182154753157 1 0 0 I I #
coedge $-1 $310 $309 $564 $565 reversed $311 $-1 #
edge $-1 $566 -8.8144182154753157 $312 -5.8144182154753157 $310 $567 forward 7 unknown #
point $-1 71.368144779808958 -43.865261556502531 5.8144182154753157 #
point $-1 71.368144779808958 -37.249872155467799 5.8144182154753157 #
loop $-1 $-1 $323 $315 #
plane-surface $-1 -71.368144779808958 0 0 1 0 0 0 0 -1 forward_v I I I I #
coedge $-1 $447 $318 $320 $451 reversed $194 $-1 #
coedge $-1 $318 $446 $568 $569 reversed $194 $-1 #
coedge $-1 $326 $321 $318 $449 forward $316 $-1 #
edge $-1 $452 -20.110503938172783 $570 -12.070538175654647 $448 $571 forward 7 unknown #
coedge $-1 $320 $319 $455 $572 reversed $121 $-1 #
edge $-1 $573 -3.8207783024179916e-014 $452 10.818841180448365 $446 $574 forward 7 unknown #
vertex $-1 $322 $575 #
straight-curve $-1 -63.328179017290822 -2.881973189372669 8.8144182154753139 0 1 0 I I #
coedge $-1 $568 $323 $326 $459 reversed $444 $-1 #
coedge $-1 $323 $568 $450 $572 forward $444 $-1 #
vertex $-1 $324 $576 #
straight-curve $-1 -71.368144779808958 -14.835587458008035 53.824467164517827 0 0 1 I I #
straight-curve $-1 -71.368144779808929 -14.835587458008035 1.5752003692365406 -0.74314481823134659 0 -0.66913061440640931 I I #
edge $-1 $570 -3.3076947005173594 $327 14.835587458008035 $454 $577 forward 7 unknown #
point $-1 -71.368144779808958 -14.835587458008035 8.8144182154753157 #
point $-1 -63.328179017290822 -14.835587458008035 8.8144182154753175 #
edge $-1 $578 1 $578 0 $330 $-1 forward 7 unknown #
vertex $-1 $331 $579 #
ellipse-curve $-1 -65.291065660193354 -11.206931026302954 2.9101725155825164 -0.66913061440640931 0 0.74314481823134659 0.74314481823134659 0 0.66913061440640931 1 I I #
point $-1 -66.605017080318575 -11.206931026302954 5.8639399067623472 #
edge $-1 $580 1 $580 0 $334 $-1 forward 7 unknown #
vertex $-1 $335 $581 #
ellipse-curve $-1 -65.291065660193354 -5.7639463787453309 2.9101725155825164 -0.66913061440640931 0 0.74314481823134659 0.74314481823134659 0 0.66913061440640931 1 I I #
point $-1 -66.605017080318575 -5.7639463787453309 5.8639399067623472 #
edge $-1 $582 1 $582 0 $338 $-1 forward 7 unknown #
vertex $-1 $339 $583 #
ellipse-curve $-1 -65.291065660193354 -0.32096173118770821 2.9101725155825164 -0.66913061440640931 0 0.74314481823134659 0.74314481823134659 0 0.66913061440640931 1 I I #
point $-1 -66.605017080318575 -0.32096173118770821 5.8639399067623472 #
loop $-1 $-1 $351 $342 #
plane-surface $-1 -71.368144779808958 0 0 1 0 0 0 0 -1 forward_v I I I I #
coedge $-1 $345 $480 $354 $488 forward $223 $-1 #
edge $-1 $485 -3.8207783024179916e-014 $481 10.818841180448365 $346 $584 forward 7 unknown #
coedge $-1 $351 $585 $347 $479 forward $474 $-1 #
edge $-1 $482 45.010048949042513 $485 52.249266795281315 $478 $586 forward 7 unknown #
coedge $-1 $476 $348 $585 $587 forward $223 $-1 #
vertex $-1 $349 $588 #
vertex $-1 $587 $589 #
straight-curve $-1 -83.438682955463605 21.450976859042761 8.8144182154753139 -1 0 0 I I #
coedge $-1 $585 $351 $355 $489 forward $474 $-1 #
vertex $-1 $479 $590 #
straight-curve $-1 -71.368144779808958 -2.881973189372669 1.57520036923651 0 -1 0 I I #
straight-curve $-1 -63.328179017290822 -2.881973189372669 8.8144182154753139 0 1 0 I I #
edge $-1 $591 12.070538175654647 $357 20.110503938172783 $476 $592 forward 7 unknown #
edge $-1 $356 -52.249266795281315 $591 -45.010048949042513 $484 $593 forward 7 unknown #
point $-1 -71.368144779808958 3.3076947005173594 1.5752003692365151 #
point $-1 -63.328179017290822 3.3076947005173594 8.8144182154753175 #
edge $-1 $594 1 $594 0 $359 $-1 forward 7 unknown #
vertex $-1 $360 $595 #
ellipse-curve $-1 -65.291065660193354 6.9363511322224483 2.9101725155825164 -0.66913061440640931 0 0.74314481823134659 0.74314481823134659 0 0.66913061440640931 1 I I #
point $-1 -66.605017080318575 6.9363511322224483 5.8639399067623472 #
edge $-1 $596 1 $596 0 $363 $-1 forward 7 unknown #
vertex $-1 $364 $597 #
ellipse-curve $-1 -65.291065660193354 12.379335779780071 2.9101725155825164 -0.66913061440640931 0 0.74314481823134659 0.74314481823134659 0 0.66913061440640931 1 I I #
point $-1 -66.605017080318575 12.379335779780071 5.8639399067623472 #
edge $-1 $598 1 $598 0 $367 $-1 forward 7 unknown #
vertex $-1 $368 $599 #
ellipse-curve $-1 -65.291065660193354 17.822320427337694 2.9101725155825164 -0.66913061440640931 0 0.74314481823134659 0.74314481823134659 0 0.66913061440640931 1 I I #
point $-1 -66.605017080318575 17.822320427337694 5.8639399067623472 #
loop $-1 $-1 $379 $371 #
plane-surface $-1 71.368144779808958 0 0 -1 0 0 0 0 1 forward_v I I I I #
coedge $-1 $507 $374 $600 $601 reversed $252 $-1 #
coedge $-1 $374 $506 $510 $602 reversed $252 $-1 #
edge $-1 $603 -142.73628955961792 $511 -134.90971571725845 $374 $604 forward 7 unknown #
coedge $-1 $376 $375 $514 $605 reversed $159 $-1 #
coedge $-1 $382 $377 $507 $602 forward $372 $-1 #
vertex $-1 $602 $606 #
straight-curve $-1 64.956990857572336 -13.113515873931663 8.814418215475321 0 -1 0 I I #
coedge $-1 $600 $379 $382 $518 reversed $504 $-1 #
coedge $-1 $379 $600 $509 $605 forward $504 $-1 #
vertex $-1 $380 $607 #
straight-curve $-1 71.368144779808958 -15.204191340258848 101.55908791558275 0 0 1 I I #
straight-curve $-1 -45.554577868364163 -15.204191340258848 86.195453182992381 0.81915203911291934 0 -0.57357644374324357 I I #
edge $-1 $608 -37.249872155467799 $383 -15.204191340258848 $513 $609 forward 7 unknown #
point $-1 71.368144779808958 -15.204191340258848 8.8144182154753157 #
point $-1 64.956990857572364 -15.204191340258848 8.8144182154752997 #
edge $-1 $610 1 $610 0 $386 $-1 forward 7 unknown #
vertex $-1 $387 $611 #
ellipse-curve $-1 67.230687708851008 -32.840735992426012 5.2389863240494963 0.57357644374324357 0 0.81915203911291934 0.81915203911291934 0 -0.57357644374324357 1 I I #
point $-1 68.981719857803569 -32.840735992426012 5.9962725761348414 #
edge $-1 $612 1 $612 0 $390 $-1 forward 7 unknown #
vertex $-1 $391 $613 #
ellipse-curve $-1 67.230687708851008 -26.227031747863325 5.2389863240494963 0.57357644374324357 0 0.81915203911291934 0.81915203911291934 0 -0.57357644374324357 1 I I #
point $-1 68.981719857803569 -26.227031747863325 5.9962725761348414 #
edge $-1 $614 1 $614 0 $394 $-1 forward 7 unknown #
vertex $-1 $395 $615 #
ellipse-curve $-1 67.230687708851008 -19.613327503300638 5.2389863240494963 0.57357644374324357 0 0.81915203911291934 0.81915203911291934 0 -0.57357644374324357 1 I I #
point $-1 68.981719857803569 -19.613327503300638 5.9962725761348414 #
plane-surface $-1 71.368144779808958 0 0 -1 0 0 0 0 1 forward_v I I I I #
coedge $-1 $403 $401 $405 $538 reversed $281 $-1 #
edge $-1 $416 -8.8144182154753157 $540 8.8144182154753157 $415 $616 forward 7 unknown #
vertex $-1 $538 $617 #
straight-curve $-1 -71.368144779808958 -43.865261556502531 0 0 0 -1 I I #
edge $-1 $536 -43.865261556502531 $540 43.865261556502531 $534 $618 forward 7 unknown #
straight-curve $-1 0 -43.865261556502531 -8.8144182154753157 -1 0 0 I I #
vertex $-1 $408 $619 #
straight-curve $-1 0 43.865261556502531 -8.8144182154753157 1 0 0 I I #
point $-1 71.368144779808958 43.865261556502531 -8.8144182154753157 #
point $-1 71.368144779808958 -43.865261556502531 -8.8144182154753157 #
straight-curve $-1 -71.368144779808958 0 8.8144182154753157 0 -1 0 I I #
point $-1 -71.368144779808958 43.865261556502531 8.8144182154753157 #
point $-1 -71.368144779808958 -43.865261556502531 8.8144182154753157 #
straight-curve $-1 71.368144779808958 -43.865261556502531 0 0 0 -1 I I #
straight-curve $-1 71.368144779808958 43.865261556502531 0 0 0 -1 I I #
plane-surface $-1 71.368144779808958 0 0 -1 0 0 0 0 1 forward_v I I I I #
coedge $-1 $552 $564 $431 $556 forward $426 $-1 #
coedge $-1 $429 $428 $437 $562 reversed $186 $-1 #
coedge $-1 $620 $550 $429 $553 forward $426 $-1 #
edge $-1 $554 37.249872155467799 $621 43.865261556502531 $429 $622 forward 7 unknown #
vertex $-1 $553 $623 #
straight-curve $-1 -71.368144779808958 -37.249872155467799 3.6572091077376578 0 0 -1 I I #
edge $-1 $557 -71.368144779808958 $554 71.368144779808958 $550 $624 forward 7 unknown #
vertex $-1 $432 $625 #
straight-curve $-1 71.368144779808958 -37.249872155467799 3.6572091077376578 0 0 1 I I #
point $-1 -71.368144779808958 -37.249872155467799 5.8144182154753157 #
straight-curve $-1 -71.368144779808958 -20.278783427992582 5.8144182154753157 0 -1 0 I I #
coedge $-1 $437 $436 $620 $626 reversed $300 $-1 #
edge $-1 $621 -8.8144182154753157 $438 -5.8144182154753157 $551 $627 forward 7 unknown #
point $-1 -71.368144779808958 -43.865261556502531 5.8144182154753157 #
coedge $-1 $550 $620 $440 $565 forward $426 $-1 #
edge $-1 $566 -43.865261556502531 $557 -37.249872155467799 $440 $628 forward 7 unknown #
vertex $-1 $565 $629 #
straight-curve $-1 71.368144779808958 -43.865261556502531 0 0 0 -1 I I #
coedge $-1 $455 $454 $447 $569 forward $444 $-1 #
edge $-1 $570 45.010048949042513 $573 52.249266795281315 $568 $630 forward 7 unknown #
vertex $-1 $459 $631 #
straight-curve $-1 -83.438682955463605 3.3076947005173594 8.8144182154753139 -1 0 0 I I #
edge $-1 $573 -6.1896678898900284 $456 11.953614268635366 $455 $632 forward 7 unknown #
vertex $-1 $572 $633 #
straight-curve $-1 -71.368144779808929 3.3076947005173594 1.5752003692365406 0.74314481823134659 0 0.66913061440640931 I I #
point $-1 -63.328179017290822 3.3076947005173594 8.8144182154753175 #
point $-1 -71.368144779808958 -14.835587458008035 1.5752003692365151 #
straight-curve $-1 -71.368144779808958 0 8.8144182154753157 0 -1 0 I I #
vertex $-1 $462 $634 #
point $-1 -64.547920841962011 -11.206931026302954 3.5793031299889257 #
vertex $-1 $466 $635 #
point $-1 -64.547920841962011 -5.7639463787453309 3.5793031299889257 #
vertex $-1 $470 $636 #
point $-1 -64.547920841962011 -0.32096173118770821 3.5793031299889257 #
straight-curve $-1 -71.368144779808929 21.450976859042761 1.5752003692365406 0.74314481823134659 0 0.66913061440640931 I I #
coedge $-1 $478 $484 $480 $587 reversed $474 $-1 #
straight-curve $-1 -71.368144779808958 21.450976859042761 53.824467164517827 0 0 -1 I I #
edge $-1 $482 -21.450976859042761 $591 -3.3076947005173594 $585 $637 forward 7 unknown #
point $-1 -63.328179017290822 21.450976859042761 8.8144182154753175 #
point $-1 -71.368144779808958 21.450976859042761 8.8144182154753157 #
point $-1 -71.368144779808958 21.450976859042761 1.5752003692365151 #
vertex $-1 $489 $638 #
straight-curve $-1 -83.438682955463605 3.3076947005173594 8.8144182154753139 1 0 0 I I #
straight-curve $-1 -71.368144779808958 3.3076947005173594 53.824467164517827 0 0 1 I I #
vertex $-1 $492 $639 #
point $-1 -64.547920841962011 6.9363511322224483 3.5793031299889257 #
vertex $-1 $496 $640 #
point $-1 -64.547920841962011 12.379335779780071 3.5793031299889257 #
vertex $-1 $500 $641 #
point $-1 -64.547920841962011 17.822320427337694 3.5793031299889257 #
coedge $-1 $514 $513 $506 $601 forward $504 $-1 #
edge $-1 $608 92.744669700107437 $603 97.233808091301881 $600 $642 forward 7 unknown #
edge $-1 $511 64.956990857572364 $608 71.368144779808958 $510 $643 forward 7 unknown #
vertex $-1 $601 $644 #
straight-curve $-1 -45.554577868364163 -37.249872155467799 86.195453182992381 -0.81915203911291934 0 0.57357644374324357 I I #
edge $-1 $603 -24.136356281536138 $515 -2.0906754663271858 $514 $645 forward 7 unknown #
point $-1 64.956990857572364 -37.249872155467799 8.8144182154752997 #
point $-1 71.368144779808958 -15.204191340258848 4.3252798242808694 #
vertex $-1 $518 $646 #
straight-curve $-1 71.368144779808958 0 8.8144182154753157 0 1 0 I I #
vertex $-1 $521 $647 #
point $-1 68.049839747963929 -32.840735992426012 4.6654098803062523 #
vertex $-1 $525 $648 #
point $-1 68.049839747963929 -26.227031747863325 4.6654098803062523 #
vertex $-1 $529 $649 #
point $-1 68.049839747963929 -19.613327503300638 4.6654098803062523 #
straight-curve $-1 -71.368144779808958 43.865261556502531 0 0 0 -1 I I #
point $-1 -71.368144779808958 -43.865261556502531 -8.8144182154753157 #
straight-curve $-1 -71.368144779808958 0 -8.8144182154753157 0 1 0 I I #
point $-1 -71.368144779808958 43.865261556502531 -8.8144182154753157 #
coedge $-1 $564 $552 $561 $626 forward $426 $-1 #
vertex $-1 $553 $650 #
straight-curve $-1 -71.368144779808958 0 8.8144182154753157 0 -1 0 I I #
point $-1 -71.368144779808958 -37.249872155467799 8.8144182154753157 #
straight-curve $-1 0 -37.249872155467799 8.8144182154753157 -1 0 0 I I #
point $-1 71.368144779808958 -37.249872155467799 8.8144182154753157 #
edge $-1 $621 -71.368144779808958 $566 71.368144779808958 $561 $651 forward 7 unknown #
straight-curve $-1 -71.368144779808958 -43.865261556502531 0 0 0 -1 I I #
straight-curve $-1 71.368144779808958 0 8.8144182154753157 0 1 0 I I #
point $-1 71.368144779808958 -43.865261556502531 8.8144182154753157 #
straight-curve $-1 -71.368144779808958 3.3076947005173594 53.824467164517827 0 0 -1 I I #
point $-1 -71.368144779808958 3.3076947005173594 8.8144182154753157 #
straight-curve $-1 -71.368144779808958 -2.881973189372669 1.57520036923651 0 -1 0 I I #
point $-1 -71.368144779808958 3.3076947005173594 1.5752003692365151 #
point $-1 -64.621935045786941 -11.206931026302954 2.1670276973511697 #
point $-1 -64.621935045786941 -5.7639463787453309 2.1670276973511697 #
point $-1 -64.621935045786941 -0.32096173118770821 2.1670276973511697 #
straight-curve $-1 -71.368144779808958 0 8.8144182154753157 0 -1 0 I I #
point $-1 -71.368144779808958 3.3076947005173594 8.8144182154753157 #
point $-1 -64.621935045786941 6.9363511322224483 2.1670276973511697 #
point $-1 -64.621935045786941 12.379335779780071 2.1670276973511697 #
point $-1 -64.621935045786941 17.822320427337694 2.1670276973511697 #
straight-curve $-1 71.368144779808958 -37.249872155467799 101.55908791558275 0 0 -1 I I #
straight-curve $-1 0 -37.249872155467799 8.8144182154753157 1 0 0 I I #
point $-1 71.368144779808958 -37.249872155467799 4.3252798242808694 #
straight-curve $-1 71.368144779808972 -13.113515873931663 4.3252798242808623 0 1 0 I I #
point $-1 71.368144779808958 -37.249872155467799 8.8144182154753157 #
point $-1 66.657111265107773 -32.840735992426012 4.4198342849365764 #
point $-1 66.657111265107773 -26.227031747863325 4.4198342849365764 #
point $-1 66.657111265107773 -19.613327503300638 4.4198342849365764 #
point $-1 -71.368144779808958 -43.865261556502531 8.8144182154753157 #
straight-curve $-1 0 -43.865261556502531 8.8144182154753157 1 0 0 I I #
End-of-ACIS-data 