500 0 16 0           
7 Unknown 11 ACIS 5.0 NT 24 Fri Mar 26 16:32:17 1999 
-1 9.9999999999999995e-007 1e-010 
body $-1 $16 $-1 $17 #
body $-1 $18 $-1 $19 #
body $-1 $20 $-1 $21 #
body $-1 $22 $-1 $23 #
body $-1 $24 $-1 $25 #
body $-1 $26 $-1 $27 #
body $-1 $28 $-1 $29 #
body $-1 $30 $-1 $31 #
body $-1 $32 $-1 $33 #
body $-1 $34 $-1 $35 #
body $-1 $36 $-1 $37 #
body $-1 $38 $-1 $39 #
body $-1 $40 $-1 $41 #
body $-1 $42 $-1 $43 #
body $-1 $44 $-1 $45 #
body $-1 $46 $-1 $47 #
lump $-1 $-1 $48 $0 #
transform $-1 1 0 0 0 1 0 0 0 1 55.555894650105287 35.366251475448202 14.994958193403557 1 rotate no_reflect no_shear #
lump $-1 $-1 $49 $1 #
transform $-1 1 0 0 0 1 0 0 0 1 55.555894650105287 35.366251475448202 14.994958193403557 1 rotate no_reflect no_shear #
lump $-1 $-1 $50 $2 #
transform $-1 1 0 0 0 1 0 0 0 1 55.555894650105287 35.366251475448202 14.994958193403557 1 rotate no_reflect no_shear #
lump $-1 $-1 $51 $3 #
transform $-1 1 0 0 0 1 0 0 0 1 55.555894650105287 35.366251475448202 14.994958193403557 1 rotate no_reflect no_shear #
lump $-1 $-1 $52 $4 #
transform $-1 1 0 0 0 1 0 0 0 1 55.555894650105287 35.366251475448202 14.994958193403557 1 rotate no_reflect no_shear #
lump $-1 $-1 $53 $5 #
transform $-1 1 0 0 0 1 0 0 0 1 55.555894650105287 35.366251475448202 14.994958193403557 1 rotate no_reflect no_shear #
lump $-1 $-1 $54 $6 #
transform $-1 1 0 0 0 1 0 0 0 1 55.555894650105287 35.366251475448202 14.994958193403557 1 rotate no_reflect no_shear #
lump $-1 $-1 $55 $7 #
transform $-1 1 0 0 0 1 0 0 0 1 55.555894650105287 35.366251475448202 14.994958193403557 1 rotate no_reflect no_shear #
lump $-1 $-1 $56 $8 #
transform $-1 1 0 0 0 1 0 0 0 1 55.555894650105287 35.366251475448202 14.994958193403557 1 rotate no_reflect no_shear #
lump $-1 $-1 $57 $9 #
transform $-1 1 0 0 0 1 0 0 0 1 55.555894650105287 35.366251475448202 14.994958193403557 1 rotate no_reflect no_shear #
lump $-1 $-1 $58 $10 #
transform $-1 1 0 0 0 1 0 0 0 1 55.555894650105287 35.366251475448202 14.994958193403557 1 rotate no_reflect no_shear #
lump $-1 $-1 $59 $11 #
transform $-1 1 0 0 0 1 0 0 0 1 55.555894650105287 35.366251475448202 14.994958193403557 1 rotate no_reflect no_shear #
lump $-1 $-1 $60 $12 #
transform $-1 1 0 0 0 1 0 0 0 1 55.555894650105287 35.366251475448202 14.994958193403557 1 rotate no_reflect no_shear #
lump $-1 $-1 $61 $13 #
transform $-1 1 0 0 0 1 0 0 0 1 55.555894650105287 35.366251475448202 14.994958193403557 1 rotate no_reflect no_shear #
lump $-1 $-1 $62 $14 #
transform $-1 1 0 0 0 1 0 0 0 1 55.555894650105287 35.366251475448202 14.994958193403557 1 rotate no_reflect no_shear #
lump $-1 $-1 $63 $15 #
transform $-1 1 0 0 0 1 0 0 0 1 55.555894650105287 35.366251475448202 14.994958193403557 1 rotate no_reflect no_shear #
shell $-1 $-1 $-1 $64 $-1 $16 #
shell $-1 $-1 $-1 $65 $-1 $18 #
shell $-1 $-1 $-1 $66 $-1 $20 #
shell $-1 $-1 $-1 $67 $-1 $22 #
shell $-1 $-1 $-1 $68 $-1 $24 #
shell $-1 $-1 $-1 $69 $-1 $26 #
shell $-1 $-1 $-1 $70 $-1 $28 #
shell $-1 $-1 $-1 $71 $-1 $30 #
shell $-1 $-1 $-1 $72 $-1 $32 #
shell $-1 $-1 $-1 $73 $-1 $34 #
shell $-1 $-1 $-1 $74 $-1 $36 #
shell $-1 $-1 $-1 $75 $-1 $38 #
shell $-1 $-1 $-1 $76 $-1 $40 #
shell $-1 $-1 $-1 $77 $-1 $42 #
shell $-1 $-1 $-1 $78 $-1 $44 #
shell $-1 $-1 $-1 $79 $-1 $46 #
face $-1 $80 $81 $48 $-1 $82 forward single #
face $-1 $83 $84 $49 $-1 $85 reversed single #
face $-1 $86 $87 $50 $-1 $88 reversed single #
face $-1 $89 $90 $51 $-1 $91 forward single #
face $-1 $92 $93 $52 $-1 $94 forward single #
face $-1 $95 $96 $53 $-1 $97 reversed single #
face $-1 $98 $99 $54 $-1 $100 forward single #
face $-1 $101 $102 $55 $-1 $103 forward single #
face $-1 $104 $105 $56 $-1 $106 reversed single #
face $-1 $107 $108 $57 $-1 $109 forward single #
face $-1 $110 $111 $58 $-1 $112 reversed single #
face $-1 $113 $114 $59 $-1 $115 forward single #
face $-1 $116 $117 $60 $-1 $118 reversed single #
face $-1 $119 $120 $61 $-1 $121 forward single #
face $-1 $122 $123 $62 $-1 $124 reversed single #
face $-1 $125 $126 $63 $-1 $127 forward single #
face $-1 $128 $129 $48 $-1 $130 reversed single #
loop $-1 $-1 $131 $64 #
plane-surface $-1 0 0 14.994958193403557 0 0 1 1 0 0 forward_v I I I I #
face $-1 $132 $133 $49 $-1 $134 reversed single #
loop $-1 $-1 $135 $65 #
plane-surface $-1 -32.376243739008281 -28.988852327297543 0 1 0 0 0 0 -1 forward_v I I I I #
face $-1 $136 $137 $50 $-1 $138 reversed single #
loop $-1 $-1 $139 $66 #
plane-surface $-1 25.572971987228257 1.1172232793491705 156.58428782009739 0 -1 0 -0.55919291073839883 0 -0.82903756765294845 forward_v I I I I #
face $-1 $140 $141 $51 $-1 $142 forward single #
loop $-1 $143 $144 $67 #
cone-surface $-1 45.6528900960313 -8.7852358328664835 7.8960740264031255 -0.55919291073839883 0 -0.82903756765294845 1.2435563514794228 0 -0.83878936610759824 1 I I 0 1 1.5 forward I I I I #
face $-1 $145 $146 $52 $-1 $147 forward single #
loop $-1 $148 $149 $68 #
cone-surface $-1 45.6528900960313 -2.8437603655370935 7.8960740264031255 -0.55919291073839883 0 -0.82903756765294845 1.2435563514794228 0 -0.83878936610759824 1 I I 0 1 1.5 forward I I I I #
face $-1 $150 $151 $53 $-1 $152 reversed single #
loop $-1 $-1 $153 $69 #
plane-surface $-1 25.572971987228257 30.106075606646712 156.58428782009739 0 -1 0 -0.55919291073839883 0 -0.82903756765294845 forward_v I I I I #
face $-1 $154 $155 $54 $-1 $156 forward single #
loop $-1 $157 $158 $70 #
cone-surface $-1 45.6528900960313 20.203616494431067 7.8960740264031255 -0.55919291073839883 0 -0.82903756765294845 1.2435563514794228 0 -0.83878936610759824 1 I I 0 1 1.5 forward I I I I #
face $-1 $159 $160 $55 $-1 $161 forward single #
loop $-1 $162 $163 $71 #
cone-surface $-1 45.6528900960313 26.14509196176045 7.8960740264031255 -0.55919291073839883 0 -0.82903756765294845 1.2435563514794228 0 -0.83878936610759824 1 I I 0 1 1.5 forward I I I I #
face $-1 $164 $165 $56 $-1 $166 reversed single #
loop $-1 $-1 $167 $72 #
plane-surface $-1 -139.41302743162697 -20.264171351239092 76.773652460604708 0 1 0 -0.75470958851134928 0 0.65605901945558964 forward_v I I I I #
face $-1 $168 $169 $57 $-1 $170 forward single #
loop $-1 $171 $172 $73 #
cone-surface $-1 -49.880459006109682 -15.78854652918244 8.7031860234093639 0.75470958851134928 0 -0.65605901945558964 0.65605901945558964 0 0.75470958851134928 1 I I 0 1 1 forward I I I I #
face $-1 $173 $174 $58 $-1 $175 reversed single #
loop $-1 $-1 $176 $74 #
plane-surface $-1 -139.41302743162697 -5.4868742330170281 76.773652460604708 0 1 0 -0.75470958851134928 0 0.65605901945558964 forward_v I I I I #
face $-1 $177 $178 $59 $-1 $179 forward single #
loop $-1 $180 $181 $75 #
cone-surface $-1 -49.880459006109682 -1.0112494109603745 8.7031860234093639 0.75470958851134928 0 -0.65605901945558964 0.65605901945558964 0 0.75470958851134928 1 I I 0 1 1 forward I I I I #
face $-1 $182 $183 $60 $-1 $184 reversed single #
loop $-1 $-1 $185 $76 #
plane-surface $-1 -139.41302743162697 9.2904228852050377 76.773652460604708 0 1 0 -0.75470958851134928 0 0.65605901945558964 forward_v I I I I #
face $-1 $186 $187 $61 $-1 $188 forward single #
loop $-1 $189 $190 $77 #
cone-surface $-1 -49.880459006109682 13.766047707261691 8.7031860234093639 0.75470958851134928 0 -0.65605901945558964 0.65605901945558964 0 0.75470958851134928 1 I I 0 1 1 forward I I I I #
face $-1 $191 $192 $62 $-1 $193 reversed single #
loop $-1 $-1 $194 $78 #
plane-surface $-1 -139.41302743162697 24.067720003427105 76.773652460604708 0 1 0 -0.75470958851134928 0 0.65605901945558964 forward_v I I I I #
face $-1 $195 $196 $63 $-1 $197 forward single #
loop $-1 $198 $199 $79 #
cone-surface $-1 -49.880459006109682 28.543344825483757 8.7031860234093639 0.75470958851134928 0 -0.65605901945558964 0.65605901945558964 0 0.75470958851134928 1 I I 0 1 1 forward I I I I #
face $-1 $200 $201 $48 $-1 $202 reversed single #
loop $-1 $-1 $203 $80 #
plane-surface $-1 0 0 -14.994958193403557 0 0 1 1 0 0 forward_v I I I I #
coedge $-1 $204 $205 $206 $207 forward $81 $-1 #
face $-1 $208 $209 $49 $-1 $210 reversed single #
loop $-1 $-1 $211 $83 #
plane-surface $-1 -28.971111001153226 -22.611453179146885 0 0 -1 0 0 0 -1 forward_v I I I I #
coedge $-1 $212 $213 $214 $215 forward $84 $-1 #
face $-1 $216 $217 $50 $-1 $218 reversed single #
loop $-1 $-1 $219 $86 #
plane-surface $-1 -36.559952888908171 -5.814498099201785 64.468440281083915 0.55919291073839883 0 0.82903756765294845 0.82903756765294845 0 -0.55919291073839883 forward_v I I I I #
coedge $-1 $220 $221 $222 $223 reversed $87 $-1 #
face $-1 $-1 $224 $51 $-1 $225 forward single #
loop $-1 $226 $227 $89 #
cone-surface $-1 44.714688562093912 -8.7852358328664835 6.5051330778910081 -0.55919291073839883 0 -0.82903756765294845 0.62177817573971139 0 -0.41939468305379912 1 I I -0.70710678118654757 0.70710678118654757 0.75 forward I I I I #
loop $-1 $-1 $228 $67 #
coedge $-1 $144 $144 $229 $230 reversed $90 $-1 #
face $-1 $-1 $231 $52 $-1 $232 forward single #
loop $-1 $233 $234 $92 #
cone-surface $-1 44.714688562093912 -2.8437603655370935 6.5051330778910081 -0.55919291073839883 0 -0.82903756765294845 0.62177817573971139 0 -0.41939468305379912 1 I I -0.70710678118654757 0.70710678118654757 0.75 forward I I I I #
loop $-1 $-1 $235 $68 #
coedge $-1 $149 $149 $236 $237 reversed $93 $-1 #
face $-1 $238 $239 $53 $-1 $240 reversed single #
loop $-1 $-1 $241 $95 #
plane-surface $-1 -36.559952888908171 23.174354228095758 64.468440281083915 0.55919291073839883 0 0.82903756765294845 0.82903756765294845 0 -0.55919291073839883 forward_v I I I I #
coedge $-1 $242 $243 $244 $245 reversed $96 $-1 #
face $-1 $-1 $246 $54 $-1 $247 forward single #
loop $-1 $248 $249 $98 #
cone-surface $-1 44.714688562093912 20.203616494431067 6.5051330778910081 -0.55919291073839883 0 -0.82903756765294845 0.62177817573971139 0 -0.41939468305379912 1 I I -0.70710678118654757 0.70710678118654757 0.75 forward I I I I #
loop $-1 $-1 $250 $70 #
coedge $-1 $158 $158 $251 $252 reversed $99 $-1 #
face $-1 $-1 $253 $55 $-1 $254 forward single #
loop $-1 $255 $256 $101 #
cone-surface $-1 44.714688562093912 26.14509196176045 6.5051330778910081 -0.55919291073839883 0 -0.82903756765294845 0.62177817573971139 0 -0.41939468305379912 1 I I -0.70710678118654757 0.70710678118654757 0.75 forward I I I I #
loop $-1 $-1 $257 $71 #
coedge $-1 $163 $163 $258 $259 reversed $102 $-1 #
face $-1 $260 $261 $56 $-1 $262 reversed single #
loop $-1 $-1 $263 $104 #
plane-surface $-1 -55.555894650105301 -15.78854652918244 3.8777609223524792 -0.75470958851134928 0 0.65605901945558964 0.65605901945558964 0 0.75470958851134928 forward_v I I I I #
coedge $-1 $264 $265 $266 $267 reversed $105 $-1 #
face $-1 $-1 $268 $57 $-1 $269 forward single #
loop $-1 $270 $271 $107 #
cone-surface $-1 -48.659684519269916 -15.78854652918244 7.6419829792129104 0.75470958851134928 0 -0.65605901945558964 0.32802950972779482 0 0.37735479425567464 1 I I -0.70710678118654746 0.70710678118654746 0.5 forward I I I I #
loop $-1 $-1 $272 $73 #
coedge $-1 $172 $172 $273 $274 reversed $108 $-1 #
face $-1 $275 $276 $58 $-1 $277 reversed single #
loop $-1 $-1 $278 $110 #
plane-surface $-1 -55.555894650105301 -1.0112494109603745 3.8777609223524792 -0.75470958851134928 0 0.65605901945558964 0.65605901945558964 0 0.75470958851134928 forward_v I I I I #
coedge $-1 $279 $280 $281 $282 reversed $111 $-1 #
face $-1 $-1 $283 $59 $-1 $284 forward single #
loop $-1 $285 $286 $113 #
cone-surface $-1 -48.659684519269916 -1.0112494109603745 7.6419829792129104 0.75470958851134928 0 -0.65605901945558964 0.32802950972779482 0 0.37735479425567464 1 I I -0.70710678118654746 0.70710678118654746 0.5 forward I I I I #
loop $-1 $-1 $287 $75 #
coedge $-1 $181 $181 $288 $289 reversed $114 $-1 #
face $-1 $290 $291 $60 $-1 $292 reversed single #
loop $-1 $-1 $293 $116 #
plane-surface $-1 -55.555894650105301 13.766047707261691 3.8777609223524792 -0.75470958851134928 0 0.65605901945558964 0.65605901945558964 0 0.75470958851134928 forward_v I I I I #
coedge $-1 $294 $295 $296 $297 reversed $117 $-1 #
face $-1 $-1 $298 $61 $-1 $299 forward single #
loop $-1 $300 $301 $119 #
cone-surface $-1 -48.659684519269916 13.766047707261691 7.6419829792129104 0.75470958851134928 0 -0.65605901945558964 0.32802950972779482 0 0.37735479425567464 1 I I -0.70710678118654746 0.70710678118654746 0.5 forward I I I I #
loop $-1 $-1 $302 $77 #
coedge $-1 $190 $190 $303 $304 reversed $120 $-1 #
face $-1 $305 $306 $62 $-1 $307 reversed single #
loop $-1 $-1 $308 $122 #
plane-surface $-1 -55.555894650105301 28.543344825483757 3.8777609223524792 -0.75470958851134928 0 0.65605901945558964 0.65605901945558964 0 0.75470958851134928 forward_v I I I I #
coedge $-1 $309 $310 $311 $312 reversed $123 $-1 #
face $-1 $-1 $313 $63 $-1 $314 forward single #
loop $-1 $315 $316 $125 #
cone-surface $-1 -48.659684519269916 28.543344825483757 7.6419829792129104 0.75470958851134928 0 -0.65605901945558964 0.32802950972779482 0 0.37735479425567464 1 I I -0.70710678118654746 0.70710678118654746 0.5 forward I I I I #
loop $-1 $-1 $317 $79 #
coedge $-1 $199 $199 $318 $319 reversed $126 $-1 #
face $-1 $320 $321 $48 $-1 $322 reversed single #
loop $-1 $-1 $323 $128 #
plane-surface $-1 0 -35.366251475448202 0 0 1 0 0 0 1 forward_v I I I I #
coedge $-1 $324 $325 $326 $327 forward $129 $-1 #
coedge $-1 $328 $131 $329 $330 forward $81 $-1 #
coedge $-1 $131 $328 $331 $332 forward $81 $-1 #
coedge $-1 $333 $334 $131 $207 reversed $335 $-1 #
edge $-1 $336 -35.366251475448202 $337 35.366251475448202 $206 $338 forward 7 unknown #
face $-1 $339 $340 $49 $-1 $341 forward single #
loop $-1 $-1 $342 $132 #
plane-surface $-1 -25.56597826329817 -28.988852327297543 0 -1 0 0 0 0 1 forward_v I I I I #
coedge $-1 $343 $344 $345 $346 forward $133 $-1 #
coedge $-1 $347 $135 $348 $349 reversed $84 $-1 #
coedge $-1 $135 $347 $350 $351 reversed $84 $-1 #
coedge $-1 $344 $343 $135 $215 reversed $133 $-1 #
edge $-1 $352 -14.994958193403557 $353 14.994958193403557 $214 $354 forward 7 unknown #
face $-1 $355 $356 $50 $-1 $357 reversed single #
loop $-1 $-1 $358 $136 #
plane-surface $-1 25.572971987228257 -12.74621947775274 156.58428782009739 0 1 0 0.55919291073839883 0 0.82903756765294845 forward_v I I I I #
coedge $-1 $359 $360 $361 $362 reversed $137 $-1 #
coedge $-1 $221 $139 $363 $364 reversed $87 $-1 #
coedge $-1 $139 $220 $359 $365 reversed $87 $-1 #
coedge $-1 $361 $366 $139 $223 forward $367 $-1 #
edge $-1 $368 -42.769408656491159 $369 -24.001013250110368 $222 $370 forward 7 unknown #
loop $-1 $-1 $229 $140 #
plane-surface $-1 -36.559952888908171 -5.814498099201785 64.468440281083915 0.55919291073839883 0 0.82903756765294845 0.82903756765294845 0 -0.55919291073839883 forward_v I I I I #
loop $-1 $-1 $371 $89 #
coedge $-1 $227 $227 $228 $372 reversed $141 $-1 #
coedge $-1 $228 $228 $227 $372 forward $143 $-1 #
coedge $-1 $229 $229 $144 $230 forward $224 $-1 #
edge $-1 $373 0 $373 6.2831853071796004 $229 $374 forward 7 unknown #
loop $-1 $-1 $236 $145 #
plane-surface $-1 -36.559952888908171 -5.814498099201785 64.468440281083915 0.55919291073839883 0 0.82903756765294845 0.82903756765294845 0 -0.55919291073839883 forward_v I I I I #
loop $-1 $-1 $375 $92 #
coedge $-1 $234 $234 $235 $376 reversed $146 $-1 #
coedge $-1 $235 $235 $234 $376 forward $148 $-1 #
coedge $-1 $236 $236 $149 $237 forward $231 $-1 #
edge $-1 $377 0 $377 6.2831853071796004 $236 $378 forward 7 unknown #
face $-1 $379 $380 $53 $-1 $381 reversed single #
loop $-1 $-1 $382 $150 #
plane-surface $-1 25.572971987228257 16.242632849544805 156.58428782009739 0 1 0 0.55919291073839883 0 0.82903756765294845 forward_v I I I I #
coedge $-1 $383 $384 $385 $386 reversed $151 $-1 #
coedge $-1 $243 $153 $387 $388 reversed $96 $-1 #
coedge $-1 $153 $242 $383 $389 reversed $96 $-1 #
coedge $-1 $385 $390 $153 $245 forward $391 $-1 #
edge $-1 $392 -42.769408656491159 $393 -24.001013250110368 $244 $394 forward 7 unknown #
loop $-1 $-1 $251 $154 #
plane-surface $-1 -36.559952888908171 23.174354228095758 64.468440281083915 0.55919291073839883 0 0.82903756765294845 0.82903756765294845 0 -0.55919291073839883 forward_v I I I I #
loop $-1 $-1 $395 $98 #
coedge $-1 $249 $249 $250 $396 reversed $155 $-1 #
coedge $-1 $250 $250 $249 $396 forward $157 $-1 #
coedge $-1 $251 $251 $158 $252 forward $246 $-1 #
edge $-1 $397 0 $397 6.2831853071796004 $251 $398 forward 7 unknown #
loop $-1 $-1 $258 $159 #
plane-surface $-1 -36.559952888908171 23.174354228095758 64.468440281083915 0.55919291073839883 0 0.82903756765294845 0.82903756765294845 0 -0.55919291073839883 forward_v I I I I #
loop $-1 $-1 $399 $101 #
coedge $-1 $256 $256 $257 $400 reversed $160 $-1 #
coedge $-1 $257 $257 $256 $400 forward $162 $-1 #
coedge $-1 $258 $258 $163 $259 forward $253 $-1 #
edge $-1 $401 0 $401 6.2831853071796004 $258 $402 forward 7 unknown #
face $-1 $403 $404 $56 $-1 $405 reversed single #
loop $-1 $-1 $406 $164 #
plane-surface $-1 -139.41302743162697 -11.312921707125787 76.773652460604708 0 -1 0 0.75470958851134928 0 -0.65605901945558964 forward_v I I I I #
coedge $-1 $407 $408 $409 $410 reversed $165 $-1 #
coedge $-1 $265 $167 $411 $412 reversed $105 $-1 #
coedge $-1 $167 $264 $407 $413 reversed $105 $-1 #
coedge $-1 $409 $414 $167 $267 forward $415 $-1 #
edge $-1 $416 14.150619065708199 $417 23.814650968531225 $266 $418 forward 7 unknown #
loop $-1 $-1 $273 $168 #
plane-surface $-1 -55.555894650105301 -15.78854652918244 3.8777609223524792 -0.75470958851134928 0 0.65605901945558964 0.65605901945558964 0 0.75470958851134928 forward_v I I I I #
loop $-1 $-1 $419 $107 #
coedge $-1 $271 $271 $272 $420 reversed $169 $-1 #
coedge $-1 $272 $272 $271 $420 forward $171 $-1 #
coedge $-1 $273 $273 $172 $274 forward $268 $-1 #
edge $-1 $421 0 $421 6.2831853071796004 $273 $422 forward 7 unknown #
face $-1 $423 $424 $58 $-1 $425 forward single #
loop $-1 $-1 $426 $173 #
plane-surface $-1 -139.41302743162697 3.4643754110962792 76.773652460604708 0 -1 0 0.75470958851134928 0 -0.65605901945558964 forward_v I I I I #
coedge $-1 $427 $428 $429 $430 reversed $174 $-1 #
coedge $-1 $280 $176 $431 $432 reversed $111 $-1 #
coedge $-1 $176 $279 $427 $433 reversed $111 $-1 #
coedge $-1 $429 $434 $176 $282 forward $424 $-1 #
edge $-1 $435 14.150619065708199 $436 23.814650968531225 $281 $437 forward 7 unknown #
loop $-1 $-1 $288 $177 #
plane-surface $-1 -55.555894650105301 -1.0112494109603745 3.8777609223524792 -0.75470958851134928 0 0.65605901945558964 0.65605901945558964 0 0.75470958851134928 forward_v I I I I #
loop $-1 $-1 $438 $113 #
coedge $-1 $286 $286 $287 $439 reversed $178 $-1 #
coedge $-1 $287 $287 $286 $439 forward $180 $-1 #
coedge $-1 $288 $288 $181 $289 forward $283 $-1 #
edge $-1 $440 0 $440 6.2831853071796004 $288 $441 forward 7 unknown #
face $-1 $442 $443 $60 $-1 $444 forward single #
loop $-1 $-1 $445 $182 #
plane-surface $-1 -139.41302743162697 18.241672529318343 76.773652460604708 0 -1 0 0.75470958851134928 0 -0.65605901945558964 forward_v I I I I #
coedge $-1 $446 $447 $448 $449 reversed $183 $-1 #
coedge $-1 $295 $185 $450 $451 reversed $117 $-1 #
coedge $-1 $185 $294 $446 $452 reversed $117 $-1 #
coedge $-1 $448 $453 $185 $297 forward $443 $-1 #
edge $-1 $454 14.150619065708199 $455 23.814650968531225 $296 $456 forward 7 unknown #
loop $-1 $-1 $303 $186 #
plane-surface $-1 -55.555894650105301 13.766047707261691 3.8777609223524792 -0.75470958851134928 0 0.65605901945558964 0.65605901945558964 0 0.75470958851134928 forward_v I I I I #
loop $-1 $-1 $457 $119 #
coedge $-1 $301 $301 $302 $458 reversed $187 $-1 #
coedge $-1 $302 $302 $301 $458 forward $189 $-1 #
coedge $-1 $303 $303 $190 $304 forward $298 $-1 #
edge $-1 $459 0 $459 6.2831853071796004 $303 $460 forward 7 unknown #
face $-1 $461 $462 $62 $-1 $463 forward single #
loop $-1 $-1 $464 $191 #
plane-surface $-1 -139.41302743162697 33.018969647540409 76.773652460604708 0 -1 0 0.75470958851134928 0 -0.65605901945558964 forward_v I I I I #
coedge $-1 $465 $466 $467 $468 reversed $192 $-1 #
coedge $-1 $310 $194 $469 $470 reversed $123 $-1 #
coedge $-1 $194 $309 $465 $471 reversed $123 $-1 #
coedge $-1 $467 $472 $194 $312 forward $462 $-1 #
edge $-1 $473 14.150619065708199 $474 23.814650968531225 $311 $475 forward 7 unknown #
loop $-1 $-1 $318 $195 #
plane-surface $-1 -55.555894650105301 28.543344825483757 3.8777609223524792 -0.75470958851134928 0 0.65605901945558964 0.65605901945558964 0 0.75470958851134928 forward_v I I I I #
loop $-1 $-1 $476 $125 #
coedge $-1 $316 $316 $317 $477 reversed $196 $-1 #
coedge $-1 $317 $317 $316 $477 forward $198 $-1 #
coedge $-1 $318 $318 $199 $319 forward $313 $-1 #
edge $-1 $478 0 $478 6.2831853071796004 $318 $479 forward 7 unknown #
face $-1 $480 $481 $48 $-1 $482 reversed single #
loop $-1 $-1 $483 $200 #
plane-surface $-1 -55.555894650105287 0 0 1 0 0 0 0 -1 forward_v I I I I #
coedge $-1 $484 $331 $485 $486 forward $201 $-1 #
coedge $-1 $487 $203 $484 $488 forward $129 $-1 #
coedge $-1 $203 $487 $489 $490 forward $129 $-1 #
coedge $-1 $334 $333 $203 $327 reversed $335 $-1 #
edge $-1 $491 -35.366251475448202 $492 35.366251475448202 $326 $493 forward 7 unknown #
coedge $-1 $205 $204 $494 $495 forward $81 $-1 #
coedge $-1 $496 $497 $204 $330 reversed $481 $-1 #
edge $-1 $337 -55.555894650105287 $498 55.555894650105287 $329 $499 forward 7 unknown #
coedge $-1 $323 $500 $205 $332 reversed $201 $-1 #
edge $-1 $501 -55.555894650105287 $336 55.555894650105287 $331 $502 forward 7 unknown #
coedge $-1 $326 $206 $500 $503 forward $335 $-1 #
coedge $-1 $206 $326 $496 $504 reversed $335 $-1 #
loop $-1 $-1 $333 $480 #
vertex $-1 $207 $505 #
vertex $-1 $207 $506 #
straight-curve $-1 55.555894650105287 0 14.994958193403557 0 1 0 I I #
face $-1 $507 $508 $49 $-1 $509 reversed single #
loop $-1 $-1 $510 $208 #
plane-surface $-1 0 0 14.994958193403557 0 0 1 1 0 0 forward_v I I I I #
coedge $-1 $511 $512 $513 $514 reversed $209 $-1 #
coedge $-1 $214 $211 $515 $516 reversed $133 $-1 #
coedge $-1 $211 $214 $517 $518 reversed $133 $-1 #
coedge $-1 $512 $511 $211 $346 reversed $209 $-1 #
edge $-1 $519 -14.994958193403557 $520 14.994958193403557 $345 $521 forward 7 unknown #
coedge $-1 $213 $212 $522 $523 reversed $84 $-1 #
coedge $-1 $515 $524 $212 $349 forward $508 $-1 #
edge $-1 $525 -20.87182531179943 $353 -8.1170270154981132 $348 $526 forward 7 unknown #
coedge $-1 $527 $517 $213 $351 forward $340 $-1 #
edge $-1 $352 8.1170270154981132 $528 20.87182531179943 $350 $529 forward 7 unknown #
vertex $-1 $351 $530 #
vertex $-1 $349 $531 #
straight-curve $-1 -32.376243739008281 -22.611453179146885 0 0 0 -1 I I #
face $-1 $-1 $367 $50 $-1 $532 forward single #
loop $-1 $-1 $533 $216 #
plane-surface $-1 55.555894650105287 0 0 -1 0 0 0 0 1 forward_v I I I I #
coedge $-1 $534 $535 $536 $537 reversed $217 $-1 #
coedge $-1 $538 $219 $221 $365 forward $137 $-1 #
coedge $-1 $219 $538 $534 $539 forward $137 $-1 #
coedge $-1 $536 $222 $219 $362 forward $367 $-1 #
edge $-1 $369 -4.024472328950063 $540 9.838970428151848 $361 $541 forward 7 unknown #
coedge $-1 $542 $543 $220 $364 forward $356 $-1 #
edge $-1 $544 -75.956628505101193 $368 -63.297185716645139 $363 $545 forward 7 unknown #
edge $-1 $369 88.473013762552867 $544 111.11178930021055 $221 $546 forward 7 unknown #
coedge $-1 $222 $536 $542 $547 forward $367 $-1 #
loop $-1 $-1 $536 $355 #
vertex $-1 $364 $548 #
vertex $-1 $223 $549 #
straight-curve $-1 12.786485993614129 1.1172232793491705 14.994958193403562 -1 0 0 I I #
coedge $-1 $371 $371 $-1 $550 reversed $226 $-1 #
edge $-1 $551 0 $551 6.2831853071796004 $227 $552 forward 7 unknown #
vertex $-1 $230 $553 #
ellipse-curve $-1 46.171696946914892 -8.7852358328664835 8.6652367991755277 0.55919291073839883 0 0.82903756765294845 1.2435563514794228 0 -0.83878936610759824 1 I I #
coedge $-1 $375 $375 $-1 $554 reversed $233 $-1 #
edge $-1 $555 0 $555 6.2831853071796004 $234 $556 forward 7 unknown #
vertex $-1 $237 $557 #
ellipse-curve $-1 46.171696946914892 -2.8437603655370935 8.6652367991755277 0.55919291073839883 0 0.82903756765294845 1.2435563514794228 0 -0.83878936610759824 1 I I #
face $-1 $-1 $391 $53 $-1 $558 forward single #
loop $-1 $-1 $559 $238 #
plane-surface $-1 55.555894650105287 0 0 -1 0 0 0 0 1 forward_v I I I I #
coedge $-1 $560 $561 $562 $563 reversed $239 $-1 #
coedge $-1 $564 $241 $243 $389 forward $151 $-1 #
coedge $-1 $241 $564 $560 $565 forward $151 $-1 #
coedge $-1 $562 $244 $241 $386 forward $391 $-1 #
edge $-1 $393 -18.518898492598833 $566 -4.6554557354969255 $385 $567 forward 7 unknown #
coedge $-1 $568 $569 $242 $388 forward $380 $-1 #
edge $-1 $570 -75.956628505101193 $392 -63.297185716645139 $387 $571 forward 7 unknown #
edge $-1 $393 88.473013762552867 $570 111.11178930021055 $243 $572 forward 7 unknown #
coedge $-1 $244 $562 $568 $573 forward $391 $-1 #
loop $-1 $-1 $562 $379 #
vertex $-1 $388 $574 #
vertex $-1 $245 $575 #
straight-curve $-1 12.786485993614129 30.106075606646712 14.994958193403562 -1 0 0 I I #
coedge $-1 $395 $395 $-1 $576 reversed $248 $-1 #
edge $-1 $577 0 $577 6.2831853071796004 $249 $578 forward 7 unknown #
vertex $-1 $252 $579 #
ellipse-curve $-1 46.171696946914892 20.203616494431067 8.6652367991755277 0.55919291073839883 0 0.82903756765294845 1.2435563514794228 0 -0.83878936610759824 1 I I #
coedge $-1 $399 $399 $-1 $580 reversed $255 $-1 #
edge $-1 $581 0 $581 6.2831853071796004 $256 $582 forward 7 unknown #
vertex $-1 $259 $583 #
ellipse-curve $-1 46.171696946914892 26.14509196176045 8.6652367991755277 0.55919291073839883 0 0.82903756765294845 1.2435563514794228 0 -0.83878936610759824 1 I I #
face $-1 $-1 $415 $56 $-1 $584 forward single #
loop $-1 $-1 $585 $260 #
plane-surface $-1 -55.555894650105287 0 0 1 0 0 0 0 -1 forward_v I I I I #
coedge $-1 $586 $587 $588 $589 reversed $261 $-1 #
coedge $-1 $590 $263 $265 $413 forward $165 $-1 #
coedge $-1 $263 $590 $586 $591 forward $165 $-1 #
coedge $-1 $588 $266 $263 $410 forward $415 $-1 #
edge $-1 $417 -12.369898086647872 $592 -3.4186484425345665 $409 $593 forward 7 unknown #
coedge $-1 $594 $595 $264 $412 forward $404 $-1 #
edge $-1 $596 -34.509065307949861 $416 -23.391868036898799 $411 $597 forward 7 unknown #
edge $-1 $417 -14.73043067198808 $596 -2.1724019648727301e-014 $265 $598 forward 7 unknown #
coedge $-1 $266 $588 $594 $599 forward $415 $-1 #
loop $-1 $-1 $588 $403 #
vertex $-1 $412 $600 #
vertex $-1 $267 $601 #
straight-curve $-1 -69.706513715813486 -20.264171351239092 14.994958193403555 1 0 0 I I #
coedge $-1 $419 $419 $-1 $602 reversed $270 $-1 #
edge $-1 $603 0 $603 6.2831853071796004 $271 $604 forward 7 unknown #
vertex $-1 $274 $605 #
ellipse-curve $-1 -50.723878698693774 -15.78854652918244 9.4363595578780259 -0.75470958851134928 0 0.65605901945558964 0.65605901945558964 0 0.75470958851134928 1 I I #
face $-1 $-1 $606 $58 $-1 $607 reversed single #
loop $-1 $-1 $281 $275 #
plane-surface $-1 0 0 14.994958193403557 0 0 1 1 0 0 forward_v I I I I #
coedge $-1 $608 $609 $610 $611 reversed $276 $-1 #
coedge $-1 $612 $278 $280 $433 forward $174 $-1 #
coedge $-1 $278 $612 $608 $613 forward $174 $-1 #
coedge $-1 $610 $281 $278 $430 forward $424 $-1 #
edge $-1 $436 -4.9812495275368409 $614 3.9700001165764665 $429 $615 forward 7 unknown #
coedge $-1 $616 $617 $279 $432 forward $606 $-1 #
edge $-1 $618 -34.509065307949861 $435 -23.391868036898799 $431 $619 forward 7 unknown #
edge $-1 $436 -14.73043067198808 $618 -2.1724019648727301e-014 $280 $620 forward 7 unknown #
coedge $-1 $281 $610 $616 $621 forward $424 $-1 #
vertex $-1 $432 $622 #
vertex $-1 $282 $623 #
straight-curve $-1 -69.706513715813486 -5.4868742330170281 14.994958193403555 1 0 0 I I #
coedge $-1 $438 $438 $-1 $624 reversed $285 $-1 #
edge $-1 $625 0 $625 6.2831853071796004 $286 $626 forward 7 unknown #
vertex $-1 $289 $627 #
ellipse-curve $-1 -50.723878698693774 -1.0112494109603745 9.4363595578780259 -0.75470958851134928 0 0.65605901945558964 0.65605901945558964 0 0.75470958851134928 1 I I #
face $-1 $-1 $628 $60 $-1 $629 reversed single #
loop $-1 $-1 $296 $290 #
plane-surface $-1 0 0 14.994958193403557 0 0 1 1 0 0 forward_v I I I I #
coedge $-1 $630 $631 $632 $633 reversed $291 $-1 #
coedge $-1 $634 $293 $295 $452 forward $183 $-1 #
coedge $-1 $293 $634 $630 $635 forward $183 $-1 #
coedge $-1 $632 $296 $293 $449 forward $443 $-1 #
edge $-1 $455 2.407399031574192 $636 11.358648675687498 $448 $637 forward 7 unknown #
coedge $-1 $638 $639 $294 $451 forward $628 $-1 #
edge $-1 $640 -34.509065307949861 $454 -23.391868036898799 $450 $641 forward 7 unknown #
edge $-1 $455 -14.73043067198808 $640 -2.1724019648727301e-014 $295 $642 forward 7 unknown #
coedge $-1 $296 $632 $638 $643 forward $443 $-1 #
vertex $-1 $297 $644 #
vertex $-1 $297 $645 #
straight-curve $-1 -69.706513715813486 9.2904228852050377 14.994958193403555 1 0 0 I I #
coedge $-1 $457 $457 $-1 $646 reversed $300 $-1 #
edge $-1 $647 0 $647 6.2831853071796004 $301 $648 forward 7 unknown #
vertex $-1 $304 $649 #
ellipse-curve $-1 -50.723878698693774 13.766047707261691 9.4363595578780259 -0.75470958851134928 0 0.65605901945558964 0.65605901945558964 0 0.75470958851134928 1 I I #
face $-1 $-1 $650 $62 $-1 $651 reversed single #
loop $-1 $-1 $311 $305 #
plane-surface $-1 0 0 14.994958193403557 0 0 1 1 0 0 forward_v I I I I #
coedge $-1 $652 $653 $654 $655 reversed $306 $-1 #
coedge $-1 $656 $308 $310 $471 forward $192 $-1 #
coedge $-1 $308 $656 $652 $657 forward $192 $-1 #
coedge $-1 $654 $311 $308 $468 forward $462 $-1 #
edge $-1 $474 9.7960475906852267 $658 18.74729723479853 $467 $659 forward 7 unknown #
coedge $-1 $660 $661 $309 $470 forward $650 $-1 #
edge $-1 $662 -34.509065307949861 $473 -23.391868036898799 $469 $663 forward 7 unknown #
edge $-1 $474 -14.73043067198808 $662 -2.1724019648727301e-014 $310 $664 forward 7 unknown #
coedge $-1 $311 $654 $660 $665 forward $462 $-1 #
vertex $-1 $312 $666 #
vertex $-1 $312 $667 #
straight-curve $-1 -69.706513715813486 24.067720003427105 14.994958193403555 1 0 0 I I #
coedge $-1 $476 $476 $-1 $668 reversed $315 $-1 #
edge $-1 $669 0 $669 6.2831853071796004 $316 $670 forward 7 unknown #
vertex $-1 $319 $671 #
ellipse-curve $-1 -50.723878698693774 28.543344825483757 9.4363595578780259 -0.75470958851134928 0 0.65605901945558964 0.65605901945558964 0 0.75470958851134928 1 I I #
face $-1 $-1 $335 $48 $-1 $672 reversed single #
loop $-1 $-1 $496 $320 #
plane-surface $-1 0 35.366251475448202 0 0 -1 0 0 0 -1 forward_v I I I I #
coedge $-1 $673 $494 $497 $674 forward $321 $-1 #
coedge $-1 $500 $323 $324 $488 reversed $201 $-1 #
coedge $-1 $494 $673 $323 $486 reversed $321 $-1 #
edge $-1 $501 -14.994958193403557 $675 14.994958193403557 $485 $676 forward 7 unknown #
coedge $-1 $325 $324 $673 $677 forward $129 $-1 #
edge $-1 $492 -55.555894650105287 $675 55.555894650105287 $484 $678 forward 7 unknown #
coedge $-1 $497 $496 $325 $490 reversed $481 $-1 #
edge $-1 $679 -55.555894650105287 $491 55.555894650105287 $489 $680 forward 7 unknown #
vertex $-1 $327 $681 #
vertex $-1 $503 $682 #
straight-curve $-1 55.555894650105287 0 -14.994958193403557 0 -1 0 I I #
coedge $-1 $483 $485 $328 $495 reversed $321 $-1 #
edge $-1 $498 -35.366251475448202 $501 35.366251475448202 $494 $683 forward 7 unknown #
coedge $-1 $489 $329 $334 $504 forward $481 $-1 #
coedge $-1 $329 $489 $483 $674 reversed $481 $-1 #
vertex $-1 $330 $684 #
straight-curve $-1 0 35.366251475448202 14.994958193403557 -1 0 0 I I #
coedge $-1 $331 $484 $333 $503 reversed $201 $-1 #
vertex $-1 $495 $685 #
straight-curve $-1 0 -35.366251475448202 14.994958193403557 1 0 0 I I #
edge $-1 $336 -14.994958193403557 $492 14.994958193403557 $333 $686 forward 7 unknown #
edge $-1 $337 -14.994958193403557 $491 14.994958193403557 $334 $687 forward 7 unknown #
point $-1 55.555894650105287 -35.366251475448202 14.994958193403557 #
point $-1 55.555894650105287 35.366251475448202 14.994958193403557 #
face $-1 $-1 $688 $49 $-1 $689 reversed single #
loop $-1 $-1 $690 $339 #
plane-surface $-1 0 0 -14.994958193403557 0 0 1 1 0 0 forward_v I I I I #
coedge $-1 $517 $527 $512 $691 forward $340 $-1 #
coedge $-1 $345 $342 $690 $692 reversed $209 $-1 #
coedge $-1 $342 $345 $510 $691 reversed $209 $-1 #
coedge $-1 $693 $694 $342 $514 forward $688 $-1 #
edge $-1 $695 -14.994958193403557 $696 14.994958193403557 $513 $697 forward 7 unknown #
coedge $-1 $690 $348 $343 $516 forward $508 $-1 #
edge $-1 $353 -17.890688238431668 $520 -11.080422762721557 $515 $698 forward 7 unknown #
coedge $-1 $350 $510 $344 $518 forward $340 $-1 #
edge $-1 $519 11.080422762721557 $352 17.890688238431668 $517 $699 forward 7 unknown #
vertex $-1 $518 $700 #
vertex $-1 $516 $701 #
straight-curve $-1 -25.56597826329817 -22.611453179146885 0 0 0 -1 I I #
coedge $-1 $694 $693 $347 $523 forward $688 $-1 #
edge $-1 $528 -14.994958193403557 $525 14.994958193403557 $522 $702 forward 7 unknown #
coedge $-1 $348 $690 $694 $703 forward $508 $-1 #
vertex $-1 $349 $704 #
straight-curve $-1 -32.376243739008281 -14.494426163648772 -14.994958193403557 0 1 0 I I #
coedge $-1 $510 $350 $693 $705 forward $340 $-1 #
vertex $-1 $705 $706 #
straight-curve $-1 -32.376243739008281 -14.494426163648772 14.994958193403557 0 -1 0 I I #
point $-1 -32.376243739008281 -22.611453179146885 14.994958193403557 #
point $-1 -32.376243739008281 -22.611453179146885 -14.994958193403557 #
plane-surface $-1 0 0 14.994958193403557 0 0 1 1 0 0 forward_v I I I I #
coedge $-1 $543 $542 $535 $707 forward $356 $-1 #
coedge $-1 $535 $358 $360 $539 reversed $217 $-1 #
coedge $-1 $358 $534 $533 $707 reversed $217 $-1 #
coedge $-1 $366 $361 $358 $537 forward $367 $-1 #
edge $-1 $540 24.001013250110368 $708 42.769408656491159 $536 $709 forward 7 unknown #
coedge $-1 $360 $359 $543 $710 reversed $137 $-1 #
edge $-1 $711 -111.11178930021055 $540 -88.473013762552867 $534 $712 forward 7 unknown #
vertex $-1 $362 $713 #
straight-curve $-1 36.787499243724497 -2.9072490496008925 14.994958193403555 0 -1 0 I I #
coedge $-1 $533 $363 $366 $547 reversed $356 $-1 #
coedge $-1 $363 $533 $538 $710 forward $356 $-1 #
vertex $-1 $364 $714 #
straight-curve $-1 55.555894650105287 1.1172232793491705 78.292143910048694 0 0 1 I I #
straight-curve $-1 -36.559952888908171 1.1172232793491705 64.468440281083915 0.82903756765294845 0 -0.55919291073839883 I I #
edge $-1 $708 -12.74621947775274 $368 1.1172232793491705 $542 $715 forward 7 unknown #
point $-1 55.555894650105287 1.1172232793491705 14.994958193403557 #
point $-1 36.787499243724497 1.1172232793491705 14.994958193403555 #
edge $-1 $716 1 $716 0 $371 $-1 forward 7 unknown #
vertex $-1 $372 $717 #
ellipse-curve $-1 45.134083245147714 -8.7852358328664835 7.1269112536307198 0.55919291073839883 0 0.82903756765294845 1.2435563514794228 0 -0.83878936610759824 1 I I #
point $-1 47.415253298394319 -8.7852358328664835 7.8264474330679343 #
edge $-1 $718 1 $718 0 $375 $-1 forward 7 unknown #
vertex $-1 $376 $719 #
ellipse-curve $-1 45.134083245147714 -2.8437603655370935 7.1269112536307198 0.55919291073839883 0 0.82903756765294845 1.2435563514794228 0 -0.83878936610759824 1 I I #
point $-1 47.415253298394319 -2.8437603655370935 7.8264474330679343 #
plane-surface $-1 0 0 14.994958193403557 0 0 1 1 0 0 forward_v I I I I #
coedge $-1 $569 $568 $561 $720 forward $380 $-1 #
coedge $-1 $561 $382 $384 $565 reversed $239 $-1 #
coedge $-1 $382 $560 $559 $720 reversed $239 $-1 #
coedge $-1 $390 $385 $382 $563 forward $391 $-1 #
edge $-1 $566 24.001013250110368 $721 42.769408656491159 $562 $722 forward 7 unknown #
coedge $-1 $384 $383 $569 $723 reversed $151 $-1 #
edge $-1 $724 -111.11178930021055 $566 -88.473013762552867 $560 $725 forward 7 unknown #
vertex $-1 $386 $726 #
straight-curve $-1 36.787499243724497 11.587177114047879 14.994958193403555 0 -1 0 I I #
coedge $-1 $559 $387 $390 $573 reversed $380 $-1 #
coedge $-1 $387 $559 $564 $723 forward $380 $-1 #
vertex $-1 $388 $727 #
straight-curve $-1 55.555894650105287 30.106075606646712 78.292143910048694 0 0 1 I I #
straight-curve $-1 -36.559952888908171 30.106075606646712 64.468440281083915 0.82903756765294845 0 -0.55919291073839883 I I #
edge $-1 $721 16.242632849544805 $392 30.106075606646712 $568 $728 forward 7 unknown #
point $-1 55.555894650105287 30.106075606646712 14.994958193403557 #
point $-1 36.787499243724497 30.106075606646712 14.994958193403555 #
edge $-1 $729 1 $729 0 $395 $-1 forward 7 unknown #
vertex $-1 $396 $730 #
ellipse-curve $-1 45.134083245147714 20.203616494431067 7.1269112536307198 0.55919291073839883 0 0.82903756765294845 1.2435563514794228 0 -0.83878936610759824 1 I I #
point $-1 47.415253298394319 20.203616494431067 7.8264474330679343 #
edge $-1 $731 1 $731 0 $399 $-1 forward 7 unknown #
vertex $-1 $400 $732 #
ellipse-curve $-1 45.134083245147714 26.14509196176045 7.1269112536307198 0.55919291073839883 0 0.82903756765294845 1.2435563514794228 0 -0.83878936610759824 1 I I #
point $-1 47.415253298394319 26.14509196176045 7.8264474330679343 #
plane-surface $-1 0 0 14.994958193403557 0 0 1 1 0 0 forward_v I I I I #
coedge $-1 $595 $594 $587 $733 forward $404 $-1 #
coedge $-1 $587 $406 $408 $591 reversed $261 $-1 #
coedge $-1 $406 $586 $585 $733 reversed $261 $-1 #
coedge $-1 $414 $409 $406 $589 forward $415 $-1 #
edge $-1 $592 -23.814650968531225 $734 -14.150619065708199 $588 $735 forward 7 unknown #
coedge $-1 $408 $407 $595 $736 reversed $165 $-1 #
edge $-1 $737 2.1724019648727301e-014 $592 14.73043067198808 $586 $738 forward 7 unknown #
vertex $-1 $410 $739 #
straight-curve $-1 -45.891862747282261 -7.8942732645912201 14.994958193403555 0 1 0 I I #
coedge $-1 $585 $411 $414 $599 reversed $404 $-1 #
coedge $-1 $411 $585 $590 $736 forward $404 $-1 #
vertex $-1 $412 $740 #
straight-curve $-1 -55.555894650105287 -20.264171351239092 38.386826230302354 0 0 1 I I #
straight-curve $-1 -55.555894650105301 -20.264171351239092 3.8777609223524792 -0.65605901945558964 0 -0.75470958851134928 I I #
edge $-1 $734 11.312921707125787 $416 20.264171351239092 $594 $741 forward 7 unknown #
point $-1 -55.555894650105287 -20.264171351239092 14.994958193403557 #
point $-1 -45.891862747282261 -20.264171351239092 14.994958193403557 #
edge $-1 $742 1 $742 0 $419 $-1 forward 7 unknown #
vertex $-1 $420 $743 #
ellipse-curve $-1 -49.03703931352559 -15.78854652918244 7.9700124889407054 -0.75470958851134928 0 0.65605901945558964 0.65605901945558964 0 0.75470958851134928 1 I I #
point $-1 -50.067819679238177 -15.78854652918244 10.191069146389371 #
loop $-1 $-1 $431 $423 #
plane-surface $-1 -55.555894650105287 0 0 1 0 0 0 0 -1 forward_v I I I I #
coedge $-1 $609 $426 $428 $613 reversed $276 $-1 #
coedge $-1 $426 $608 $744 $745 reversed $276 $-1 #
coedge $-1 $434 $429 $426 $611 forward $424 $-1 #
edge $-1 $614 -23.814650968531225 $746 -14.150619065708199 $610 $747 forward 7 unknown #
coedge $-1 $428 $427 $617 $748 reversed $174 $-1 #
edge $-1 $749 2.1724019648727301e-014 $614 14.73043067198808 $608 $750 forward 7 unknown #
vertex $-1 $430 $751 #
straight-curve $-1 -45.891862747282261 -0.50562470548018723 14.994958193403555 0 1 0 I I #
coedge $-1 $744 $431 $434 $621 reversed $606 $-1 #
coedge $-1 $431 $744 $612 $748 forward $606 $-1 #
vertex $-1 $432 $752 #
straight-curve $-1 -55.555894650105287 -5.4868742330170281 38.386826230302354 0 0 1 I I #
straight-curve $-1 -55.555894650105301 -5.4868742330170281 3.8777609223524792 -0.65605901945558964 0 -0.75470958851134928 I I #
edge $-1 $746 -3.4643754110962792 $435 5.4868742330170281 $616 $753 forward 7 unknown #
point $-1 -55.555894650105287 -5.4868742330170281 14.994958193403557 #
point $-1 -45.891862747282261 -5.4868742330170281 14.994958193403557 #
edge $-1 $754 1 $754 0 $438 $-1 forward 7 unknown #
vertex $-1 $439 $755 #
ellipse-curve $-1 -49.03703931352559 -1.0112494109603745 7.9700124889407054 -0.75470958851134928 0 0.65605901945558964 0.65605901945558964 0 0.75470958851134928 1 I I #
point $-1 -50.067819679238177 -1.0112494109603745 10.191069146389371 #
loop $-1 $-1 $450 $442 #
plane-surface $-1 -55.555894650105287 0 0 1 0 0 0 0 -1 forward_v I I I I #
coedge $-1 $631 $445 $447 $635 reversed $291 $-1 #
coedge $-1 $445 $630 $756 $757 reversed $291 $-1 #
coedge $-1 $453 $448 $445 $633 forward $443 $-1 #
edge $-1 $636 -23.814650968531225 $758 -14.150619065708199 $632 $759 forward 7 unknown #
coedge $-1 $447 $446 $639 $760 reversed $183 $-1 #
edge $-1 $761 2.1724019648727301e-014 $636 14.73043067198808 $630 $762 forward 7 unknown #
vertex $-1 $449 $763 #
straight-curve $-1 -45.891862747282261 6.8830238536308457 14.994958193403555 0 1 0 I I #
coedge $-1 $756 $450 $453 $643 reversed $628 $-1 #
coedge $-1 $450 $756 $634 $760 forward $628 $-1 #
vertex $-1 $451 $764 #
straight-curve $-1 -55.555894650105287 9.2904228852050377 38.386826230302354 0 0 1 I I #
straight-curve $-1 -55.555894650105301 9.2904228852050377 3.8777609223524792 -0.65605901945558964 0 -0.75470958851134928 I I #
edge $-1 $758 -18.241672529318343 $454 -9.2904228852050377 $638 $765 forward 7 unknown #
point $-1 -55.555894650105287 9.2904228852050377 14.994958193403557 #
point $-1 -45.891862747282261 9.2904228852050377 14.994958193403557 #
edge $-1 $766 1 $766 0 $457 $-1 forward 7 unknown #
vertex $-1 $458 $767 #
ellipse-curve $-1 -49.03703931352559 13.766047707261691 7.9700124889407054 -0.75470958851134928 0 0.65605901945558964 0.65605901945558964 0 0.75470958851134928 1 I I #
point $-1 -50.067819679238177 13.766047707261691 10.191069146389371 #
loop $-1 $-1 $469 $461 #
plane-surface $-1 -55.555894650105287 0 0 1 0 0 0 0 -1 forward_v I I I I #
coedge $-1 $653 $464 $466 $657 reversed $306 $-1 #
coedge $-1 $464 $652 $768 $769 reversed $306 $-1 #
coedge $-1 $472 $467 $464 $655 forward $462 $-1 #
edge $-1 $658 -23.814650968531225 $770 -14.150619065708199 $654 $771 forward 7 unknown #
coedge $-1 $466 $465 $661 $772 reversed $192 $-1 #
edge $-1 $773 2.1724019648727301e-014 $658 14.73043067198808 $652 $774 forward 7 unknown #
vertex $-1 $468 $775 #
straight-curve $-1 -45.891862747282261 14.271672412741879 14.994958193403555 0 1 0 I I #
coedge $-1 $768 $469 $472 $665 reversed $650 $-1 #
coedge $-1 $469 $768 $656 $772 forward $650 $-1 #
vertex $-1 $470 $776 #
straight-curve $-1 -55.555894650105287 24.067720003427105 38.386826230302354 0 0 1 I I #
straight-curve $-1 -55.555894650105301 24.067720003427105 3.8777609223524792 -0.65605901945558964 0 -0.75470958851134928 I I #
edge $-1 $770 -33.018969647540409 $473 -24.067720003427105 $660 $777 forward 7 unknown #
point $-1 -55.555894650105287 24.067720003427105 14.994958193403557 #
point $-1 -45.891862747282261 24.067720003427105 14.994958193403557 #
edge $-1 $778 1 $778 0 $476 $-1 forward 7 unknown #
vertex $-1 $477 $779 #
ellipse-curve $-1 -49.03703931352559 28.543344825483757 7.9700124889407054 -0.75470958851134928 0 0.65605901945558964 0.65605901945558964 0 0.75470958851134928 1 I I #
point $-1 -50.067819679238177 28.543344825483757 10.191069146389371 #
plane-surface $-1 55.555894650105287 0 0 -1 0 0 0 0 1 forward_v I I I I #
coedge $-1 $485 $483 $487 $677 reversed $321 $-1 #
edge $-1 $498 -14.994958193403557 $679 14.994958193403557 $497 $780 forward 7 unknown #
vertex $-1 $677 $781 #
straight-curve $-1 -55.555894650105287 -35.366251475448202 0 0 0 -1 I I #
edge $-1 $675 -35.366251475448202 $679 35.366251475448202 $673 $782 forward 7 unknown #
straight-curve $-1 0 -35.366251475448202 -14.994958193403557 -1 0 0 I I #
vertex $-1 $490 $783 #
straight-curve $-1 0 35.366251475448202 -14.994958193403557 1 0 0 I I #
point $-1 55.555894650105287 35.366251475448202 -14.994958193403557 #
point $-1 55.555894650105287 -35.366251475448202 -14.994958193403557 #
straight-curve $-1 -55.555894650105287 0 14.994958193403557 0 -1 0 I I #
point $-1 -55.555894650105287 35.366251475448202 14.994958193403557 #
point $-1 -55.555894650105287 -35.366251475448202 14.994958193403557 #
straight-curve $-1 55.555894650105287 -35.366251475448202 0 0 0 -1 I I #
straight-curve $-1 55.555894650105287 35.366251475448202 0 0 0 -1 I I #
loop $-1 $-1 $513 $507 #
plane-surface $-1 0 -35.366251475448202 0 0 1 0 0 0 1 forward_v I I I I #
coedge $-1 $524 $515 $511 $692 forward $508 $-1 #
edge $-1 $696 -20.87182531179943 $519 -8.1170270154981132 $510 $784 forward 7 unknown #
edge $-1 $520 8.1170270154981132 $695 20.87182531179943 $690 $785 forward 7 unknown #
coedge $-1 $522 $513 $527 $705 reversed $688 $-1 #
coedge $-1 $513 $522 $524 $703 reversed $688 $-1 #
vertex $-1 $703 $786 #
vertex $-1 $514 $787 #
straight-curve $-1 -25.56597826329817 -35.366251475448202 0 0 0 1 I I #
straight-curve $-1 -14.485555500576613 -22.611453179146885 -14.994958193403557 1 0 0 I I #
straight-curve $-1 -14.485555500576613 -22.611453179146885 14.994958193403557 -1 0 0 I I #
point $-1 -25.56597826329817 -22.611453179146885 14.994958193403557 #
point $-1 -25.56597826329817 -22.611453179146885 -14.994958193403557 #
straight-curve $-1 -32.376243739008281 -35.366251475448202 0 0 0 -1 I I #
edge $-1 $695 25.56597826329817 $525 32.376243739008281 $694 $788 forward 7 unknown #
point $-1 -32.376243739008281 -35.366251475448202 -14.994958193403557 #
edge $-1 $528 -32.376243739008281 $696 -25.56597826329817 $693 $789 forward 7 unknown #
point $-1 -32.376243739008281 -35.366251475448202 14.994958193403557 #
edge $-1 $708 63.297185716645139 $711 75.956628505101193 $533 $790 forward 7 unknown #
vertex $-1 $547 $791 #
straight-curve $-1 12.786485993614129 -12.74621947775274 14.994958193403562 1 0 0 I I #
edge $-1 $711 -9.838970428151848 $544 4.024472328950063 $543 $792 forward 7 unknown #
vertex $-1 $710 $793 #
straight-curve $-1 -36.559952888908171 -12.74621947775274 64.468440281083915 -0.82903756765294845 0 0.55919291073839883 I I #
point $-1 36.787499243724497 -12.74621947775274 14.994958193403555 #
point $-1 55.555894650105287 1.1172232793491705 2.3355154049475004 #
straight-curve $-1 55.555894650105287 0 14.994958193403557 0 1 0 I I #
vertex $-1 $550 $794 #
point $-1 46.377639596627134 -8.7852358328664835 6.2881218875231211 #
vertex $-1 $554 $795 #
point $-1 46.377639596627134 -2.8437603655370935 6.2881218875231211 #
edge $-1 $721 63.297185716645139 $724 75.956628505101193 $559 $796 forward 7 unknown #
vertex $-1 $573 $797 #
straight-curve $-1 12.786485993614129 16.242632849544805 14.994958193403562 1 0 0 I I #
edge $-1 $724 4.6554557354969255 $570 18.518898492598833 $569 $798 forward 7 unknown #
vertex $-1 $723 $799 #
straight-curve $-1 -36.559952888908171 16.242632849544805 64.468440281083915 -0.82903756765294845 0 0.55919291073839883 I I #
point $-1 36.787499243724497 16.242632849544805 14.994958193403555 #
point $-1 55.555894650105287 30.106075606646712 2.3355154049475004 #
straight-curve $-1 55.555894650105287 0 14.994958193403557 0 1 0 I I #
vertex $-1 $576 $800 #
point $-1 46.377639596627134 20.203616494431067 6.2881218875231211 #
vertex $-1 $580 $801 #
point $-1 46.377639596627134 26.14509196176045 6.2881218875231211 #
edge $-1 $734 23.391868036898799 $737 34.509065307949861 $585 $802 forward 7 unknown #
vertex $-1 $599 $803 #
straight-curve $-1 -69.706513715813486 -11.312921707125787 14.994958193403555 -1 0 0 I I #
edge $-1 $737 3.4186484425345665 $596 12.369898086647872 $595 $804 forward 7 unknown #
vertex $-1 $736 $805 #
straight-curve $-1 -55.555894650105301 -11.312921707125787 3.8777609223524792 0.65605901945558964 0 0.75470958851134928 I I #
point $-1 -45.891862747282261 -11.312921707125787 14.994958193403557 #
point $-1 -55.555894650105287 -20.264171351239092 3.8777609223524956 #
straight-curve $-1 -55.555894650105287 0 14.994958193403557 0 -1 0 I I #
vertex $-1 $602 $806 #
point $-1 -48.38098029407 -15.78854652918244 8.7247220774520535 #
coedge $-1 $617 $616 $609 $745 forward $606 $-1 #
edge $-1 $746 23.391868036898799 $749 34.509065307949861 $744 $807 forward 7 unknown #
vertex $-1 $621 $808 #
straight-curve $-1 -69.706513715813486 3.4643754110962792 14.994958193403555 -1 0 0 I I #
edge $-1 $749 -3.9700001165764665 $618 4.9812495275368409 $617 $809 forward 7 unknown #
vertex $-1 $748 $810 #
straight-curve $-1 -55.555894650105301 3.4643754110962792 3.8777609223524792 0.65605901945558964 0 0.75470958851134928 I I #
point $-1 -45.891862747282261 3.4643754110962792 14.994958193403557 #
point $-1 -55.555894650105287 -5.4868742330170281 3.8777609223524956 #
straight-curve $-1 -55.555894650105287 0 14.994958193403557 0 -1 0 I I #
vertex $-1 $624 $811 #
point $-1 -48.38098029407 -1.0112494109603745 8.7247220774520535 #
coedge $-1 $639 $638 $631 $757 forward $628 $-1 #
edge $-1 $758 23.391868036898799 $761 34.509065307949861 $756 $812 forward 7 unknown #
vertex $-1 $643 $813 #
straight-curve $-1 -69.706513715813486 18.241672529318343 14.994958193403555 -1 0 0 I I #
edge $-1 $761 -11.358648675687498 $640 -2.407399031574192 $639 $814 forward 7 unknown #
vertex $-1 $760 $815 #
straight-curve $-1 -55.555894650105301 18.241672529318343 3.8777609223524792 0.65605901945558964 0 0.75470958851134928 I I #
point $-1 -45.891862747282261 18.241672529318343 14.994958193403557 #
point $-1 -55.555894650105287 9.2904228852050377 3.8777609223524956 #
straight-curve $-1 -55.555894650105287 0 14.994958193403557 0 -1 0 I I #
vertex $-1 $646 $816 #
point $-1 -48.38098029407 13.766047707261691 8.7247220774520535 #
coedge $-1 $661 $660 $653 $769 forward $650 $-1 #
edge $-1 $770 23.391868036898799 $773 34.509065307949861 $768 $817 forward 7 unknown #
vertex $-1 $665 $818 #
straight-curve $-1 -69.706513715813486 33.018969647540409 14.994958193403555 -1 0 0 I I #
edge $-1 $773 -18.74729723479853 $662 -9.7960475906852267 $661 $819 forward 7 unknown #
vertex $-1 $772 $820 #
straight-curve $-1 -55.555894650105301 33.018969647540409 3.8777609223524792 0.65605901945558964 0 0.75470958851134928 I I #
point $-1 -45.891862747282261 33.018969647540409 14.994958193403557 #
point $-1 -55.555894650105287 24.067720003427105 3.8777609223524956 #
straight-curve $-1 -55.555894650105287 0 14.994958193403557 0 -1 0 I I #
vertex $-1 $668 $821 #
point $-1 -48.38098029407 28.543344825483757 8.7247220774520535 #
straight-curve $-1 -55.555894650105287 35.366251475448202 0 0 0 -1 I I #
point $-1 -55.555894650105287 -35.366251475448202 -14.994958193403557 #
straight-curve $-1 -55.555894650105287 0 -14.994958193403557 0 1 0 I I #
point $-1 -55.555894650105287 35.366251475448202 -14.994958193403557 #
straight-curve $-1 -25.56597826329817 -14.494426163648772 14.994958193403557 0 1 0 I I #
straight-curve $-1 -25.56597826329817 -14.494426163648772 -14.994958193403557 0 -1 0 I I #
point $-1 -25.56597826329817 -35.366251475448202 -14.994958193403557 #
point $-1 -25.56597826329817 -35.366251475448202 14.994958193403557 #
straight-curve $-1 0 -35.366251475448202 -14.994958193403557 -1 0 0 I I #
straight-curve $-1 0 -35.366251475448202 14.994958193403557 1 0 0 I I #
straight-curve $-1 55.555894650105287 -12.74621947775274 78.292143910048694 0 0 -1 I I #
point $-1 55.555894650105287 -12.74621947775274 14.994958193403557 #
straight-curve $-1 55.555894650105287 -2.9072490496008925 2.3355154049474933 0 1 0 I I #
point $-1 55.555894650105287 -12.74621947775274 2.3355154049475004 #
point $-1 44.295293879040109 -8.7852358328664835 5.8833549021512965 #
point $-1 44.295293879040109 -2.8437603655370935 5.8833549021512965 #
straight-curve $-1 55.555894650105287 16.242632849544805 78.292143910048694 0 0 -1 I I #
point $-1 55.555894650105287 16.242632849544805 14.994958193403557 #
straight-curve $-1 55.555894650105287 11.587177114047879 2.3355154049474933 0 1 0 I I #
point $-1 55.555894650105287 16.242632849544805 2.3355154049475004 #
point $-1 44.295293879040109 20.203616494431067 5.8833549021512965 #
point $-1 44.295293879040109 26.14509196176045 5.8833549021512965 #
straight-curve $-1 -55.555894650105287 -11.312921707125787 38.386826230302354 0 0 -1 I I #
point $-1 -55.555894650105287 -11.312921707125787 14.994958193403557 #
straight-curve $-1 -55.555894650105287 -7.8942732645912201 3.8777609223524934 0 -1 0 I I #
point $-1 -55.555894650105287 -11.312921707125787 3.8777609223524956 #
point $-1 -48.282329725014243 -15.78854652918244 7.3139534694851154 #
straight-curve $-1 -55.555894650105287 3.4643754110962792 38.386826230302354 0 0 -1 I I #
point $-1 -55.555894650105287 3.4643754110962792 14.994958193403557 #
straight-curve $-1 -55.555894650105287 -0.50562470548018723 3.8777609223524934 0 -1 0 I I #
point $-1 -55.555894650105287 3.4643754110962792 3.8777609223524956 #
point $-1 -48.282329725014243 -1.0112494109603745 7.3139534694851154 #
straight-curve $-1 -55.555894650105287 18.241672529318343 38.386826230302354 0 0 -1 I I #
point $-1 -55.555894650105287 18.241672529318343 14.994958193403557 #
straight-curve $-1 -55.555894650105287 6.8830238536308457 3.8777609223524934 0 -1 0 I I #
point $-1 -55.555894650105287 18.241672529318343 3.8777609223524956 #
point $-1 -48.282329725014243 13.766047707261691 7.3139534694851154 #
straight-curve $-1 -55.555894650105287 33.018969647540409 38.386826230302354 0 0 -1 I I #
point $-1 -55.555894650105287 33.018969647540409 14.994958193403557 #
straight-curve $-1 -55.555894650105287 14.271672412741879 3.8777609223524934 0 -1 0 I I #
point $-1 -55.555894650105287 33.018969647540409 3.8777609223524956 #
point $-1 -48.282329725014243 28.543344825483757 7.3139534694851154 #
End-of-ACIS-data 