500 0 12 0           
7 Unknown 11 ACIS 5.0 NT 24 Thu Mar 25 17:01:12 1999 
-1 9.9999999999999995e-007 1e-010 
body $-1 $12 $-1 $13 #
body $-1 $14 $-1 $15 #
body $-1 $16 $-1 $17 #
body $-1 $18 $-1 $19 #
body $-1 $20 $-1 $21 #
body $-1 $22 $-1 $23 #
body $-1 $24 $-1 $25 #
body $-1 $26 $-1 $27 #
body $-1 $28 $-1 $29 #
body $-1 $30 $-1 $31 #
body $-1 $32 $-1 $33 #
body $-1 $34 $-1 $35 #
lump $-1 $-1 $36 $0 #
transform $-1 1 0 0 0 1 0 0 0 1 78.712118900112927 43.277612662264914 17.802899154551874 1 rotate no_reflect no_shear #
lump $-1 $-1 $37 $1 #
transform $-1 1 0 0 0 1 0 0 0 1 78.712118900112927 43.277612662264914 17.802899154551874 1 rotate no_reflect no_shear #
lump $-1 $-1 $38 $2 #
transform $-1 1 0 0 0 1 0 0 0 1 78.712118900112927 43.277612662264914 17.802899154551874 1 rotate no_reflect no_shear #
lump $-1 $-1 $39 $3 #
transform $-1 1 0 0 0 1 0 0 0 1 78.712118900112927 43.277612662264914 17.802899154551874 1 rotate no_reflect no_shear #
lump $-1 $-1 $40 $4 #
transform $-1 1 0 0 0 1 0 0 0 1 78.712118900112927 43.277612662264914 17.802899154551874 1 rotate no_reflect no_shear #
lump $-1 $-1 $41 $5 #
transform $-1 1 0 0 0 1 0 0 0 1 78.712118900112927 43.277612662264914 17.802899154551874 1 rotate no_reflect no_shear #
lump $-1 $-1 $42 $6 #
transform $-1 1 0 0 0 1 0 0 0 1 78.712118900112927 43.277612662264914 17.802899154551874 1 rotate no_reflect no_shear #
lump $-1 $-1 $43 $7 #
transform $-1 1 0 0 0 1 0 0 0 1 78.712118900112927 43.277612662264914 17.802899154551874 1 rotate no_reflect no_shear #
lump $-1 $-1 $44 $8 #
transform $-1 1 0 0 0 1 0 0 0 1 78.712118900112927 43.277612662264914 17.802899154551874 1 rotate no_reflect no_shear #
lump $-1 $-1 $45 $9 #
transform $-1 1 0 0 0 1 0 0 0 1 78.712118900112927 43.277612662264914 17.802899154551874 1 rotate no_reflect no_shear #
lump $-1 $-1 $46 $10 #
transform $-1 1 0 0 0 1 0 0 0 1 78.712118900112927 43.277612662264914 17.802899154551874 1 rotate no_reflect no_shear #
lump $-1 $-1 $47 $11 #
transform $-1 1 0 0 0 1 0 0 0 1 78.712118900112927 43.277612662264914 17.802899154551874 1 rotate no_reflect no_shear #
shell $-1 $-1 $-1 $48 $-1 $12 #
shell $-1 $-1 $-1 $49 $-1 $14 #
shell $-1 $-1 $-1 $50 $-1 $16 #
shell $-1 $-1 $-1 $51 $-1 $18 #
shell $-1 $-1 $-1 $52 $-1 $20 #
shell $-1 $-1 $-1 $53 $-1 $22 #
shell $-1 $-1 $-1 $54 $-1 $24 #
shell $-1 $-1 $-1 $55 $-1 $26 #
shell $-1 $-1 $-1 $56 $-1 $28 #
shell $-1 $-1 $-1 $57 $-1 $30 #
shell $-1 $-1 $-1 $58 $-1 $32 #
shell $-1 $-1 $-1 $59 $-1 $34 #
face $-1 $60 $61 $36 $-1 $62 forward single #
face $-1 $63 $64 $37 $-1 $65 forward single #
face $-1 $66 $67 $38 $-1 $68 reversed single #
face $-1 $69 $70 $39 $-1 $71 forward single #
face $-1 $72 $73 $40 $-1 $74 reversed single #
face $-1 $75 $76 $41 $-1 $77 forward single #
face $-1 $78 $79 $42 $-1 $80 forward single #
face $-1 $81 $82 $43 $-1 $83 forward single #
face $-1 $84 $85 $44 $-1 $86 reversed single #
face $-1 $87 $88 $45 $-1 $89 forward single #
face $-1 $90 $91 $46 $-1 $92 forward single #
face $-1 $93 $94 $47 $-1 $95 forward single #
face $-1 $96 $97 $36 $-1 $98 reversed single #
loop $-1 $-1 $99 $48 #
plane-surface $-1 0 0 17.802899154551874 0 0 1 1 0 0 forward_v I I I I #
face $-1 $100 $101 $37 $-1 $102 reversed single #
loop $-1 $-1 $103 $49 #
plane-surface $-1 0 -43.277612662264914 0 0 1 0 0 0 1 forward_v I I I I #
face $-1 $104 $105 $38 $-1 $106 reversed single #
loop $-1 $-1 $107 $50 #
plane-surface $-1 36.232029460876518 -9.9751829437439223 228.01503462220413 0 -1 0 -0.55919291073839883 0 -0.82903756765294845 forward_v I I I I #
face $-1 $108 $109 $39 $-1 $110 forward single #
loop $-1 $111 $112 $51 #
cone-surface $-1 72.207054409275315 -14.947664445177491 13.147754947140264 -0.55919291073839883 0 -0.82903756765294845 0.82903756765294845 0 -0.55919291073839883 1 I I 0 1 1 forward I I I I #
face $-1 $113 $114 $40 $-1 $115 reversed single #
loop $-1 $-1 $116 $52 #
plane-surface $-1 -209.22272813838873 -11.817667008252156 89.127845641384539 0 1 0 -0.82903758062907751 0 0.55919289150049634 forward_v I I I I #
face $-1 $117 $118 $41 $-1 $119 forward single #
loop $-1 $120 $121 $53 #
cone-surface $-1 -72.556704869585843 -8.8609870567820508 9.0984329297832414 0.82903758062907751 0 -0.55919289150049634 0.55919289150049634 0 0.82903758062907751 1 I I 0 1 1 forward I I I I #
face $-1 $122 $123 $42 $-1 $124 forward single #
loop $-1 $125 $126 $54 #
cone-surface $-1 -72.556704869585843 -4.4259671295769039 9.0984329297832414 0.82903758062907751 0 -0.55919289150049634 0.55919289150049634 0 0.82903758062907751 1 I I 0 1 1 forward I I I I #
face $-1 $127 $128 $43 $-1 $129 forward single #
loop $-1 $130 $131 $55 #
cone-surface $-1 -72.556704869585843 0.00905279762824307 9.0984329297832414 0.82903758062907751 0 -0.55919289150049634 0.55919289150049634 0 0.82903758062907751 1 I I 0 1 1 forward I I I I #
face $-1 $132 $133 $44 $-1 $134 reversed single #
loop $-1 $-1 $135 $56 #
plane-surface $-1 -209.22272813838873 19.781212296185828 89.127845641384539 0 1 0 -0.82903758062907751 0 0.55919289150049634 forward_v I I I I #
face $-1 $136 $137 $45 $-1 $138 forward single #
loop $-1 $139 $140 $57 #
cone-surface $-1 -72.556704869585843 22.737892247655935 9.0984329297832414 0.82903758062907751 0 -0.55919289150049634 0.55919289150049634 0 0.82903758062907751 1 I I 0 1 1 forward I I I I #
face $-1 $141 $142 $46 $-1 $143 forward single #
loop $-1 $144 $145 $58 #
cone-surface $-1 -72.556704869585843 27.172912174861082 9.0984329297832414 0.82903758062907751 0 -0.55919289150049634 0.55919289150049634 0 0.82903758062907751 1 I I 0 1 1 forward I I I I #
face $-1 $146 $147 $47 $-1 $148 forward single #
loop $-1 $149 $150 $59 #
cone-surface $-1 -72.556704869585843 31.607932102066229 9.0984329297832414 0.82903758062907751 0 -0.55919289150049634 0.55919289150049634 0 0.82903758062907751 1 I I 0 1 1 forward I I I I #
face $-1 $151 $152 $36 $-1 $153 reversed single #
loop $-1 $-1 $154 $60 #
plane-surface $-1 0 0 -17.802899154551874 0 0 1 1 0 0 forward_v I I I I #
coedge $-1 $155 $156 $157 $158 forward $61 $-1 #
face $-1 $159 $160 $37 $-1 $161 reversed single #
loop $-1 $-1 $162 $63 #
plane-surface $-1 0 0 -17.802899154551874 0 0 1 1 0 0 forward_v I I I I #
coedge $-1 $163 $164 $165 $166 forward $64 $-1 #
face $-1 $167 $168 $38 $-1 $169 reversed single #
loop $-1 $-1 $170 $66 #
plane-surface $-1 -51.798488295405647 -14.947664445177487 97.504427426685538 0.55919291073839883 0 0.82903756765294845 0.82903756765294845 0 -0.55919291073839883 forward_v I I I I #
coedge $-1 $171 $172 $173 $174 reversed $67 $-1 #
face $-1 $-1 $175 $39 $-1 $176 forward single #
loop $-1 $177 $178 $69 #
cone-surface $-1 71.596510704493767 -14.947664445177491 12.242586697976414 -0.55919291073839883 0 -0.82903756765294845 0.41451878382647422 0 -0.27959645536919941 1 I I -0.70710678118654746 0.70710678118654746 0.5 forward I I I I #
loop $-1 $-1 $179 $51 #
coedge $-1 $112 $112 $180 $181 reversed $70 $-1 #
face $-1 $182 $183 $40 $-1 $184 reversed single #
loop $-1 $-1 $185 $72 #
plane-surface $-1 -78.712118900112927 -4.4259671295769039 1.0973309136145133 -0.82903758062907751 0 0.55919289150049634 0.55919289150049634 0 0.82903758062907751 forward_v I I I I #
coedge $-1 $186 $187 $188 $189 reversed $73 $-1 #
face $-1 $-1 $190 $41 $-1 $191 forward single #
loop $-1 $192 $193 $75 #
cone-surface $-1 -71.620795901872896 -8.8609870567820508 8.4671543797330422 0.82903758062907751 0 -0.55919289150049634 0.27959644575024817 0 0.41451879031453875 1 I I -0.70710678118654746 0.70710678118654746 0.5 forward I I I I #
loop $-1 $-1 $194 $53 #
coedge $-1 $121 $121 $195 $196 reversed $76 $-1 #
face $-1 $-1 $197 $42 $-1 $198 forward single #
loop $-1 $199 $200 $78 #
cone-surface $-1 -71.620795901872896 -4.4259671295769039 8.4671543797330422 0.82903758062907751 0 -0.55919289150049634 0.27959644575024817 0 0.41451879031453875 1 I I -0.70710678118654746 0.70710678118654746 0.5 forward I I I I #
loop $-1 $-1 $201 $54 #
coedge $-1 $126 $126 $202 $203 reversed $79 $-1 #
face $-1 $-1 $204 $43 $-1 $205 forward single #
loop $-1 $206 $207 $81 #
cone-surface $-1 -71.620795901872896 0.00905279762824307 8.4671543797330422 0.82903758062907751 0 -0.55919289150049634 0.27959644575024817 0 0.41451879031453875 1 I I -0.70710678118654746 0.70710678118654746 0.5 forward I I I I #
loop $-1 $-1 $208 $55 #
coedge $-1 $131 $131 $209 $210 reversed $82 $-1 #
face $-1 $211 $212 $44 $-1 $213 reversed single #
loop $-1 $-1 $214 $84 #
plane-surface $-1 -78.712118900112927 27.172912174861082 1.0973309136145133 -0.82903758062907751 0 0.55919289150049634 0.55919289150049634 0 0.82903758062907751 forward_v I I I I #
coedge $-1 $215 $216 $217 $218 reversed $85 $-1 #
face $-1 $-1 $219 $45 $-1 $220 forward single #
loop $-1 $221 $222 $87 #
cone-surface $-1 -71.620795901872896 22.737892247655935 8.4671543797330422 0.82903758062907751 0 -0.55919289150049634 0.27959644575024817 0 0.41451879031453875 1 I I -0.70710678118654746 0.70710678118654746 0.5 forward I I I I #
loop $-1 $-1 $223 $57 #
coedge $-1 $140 $140 $224 $225 reversed $88 $-1 #
face $-1 $-1 $226 $46 $-1 $227 forward single #
loop $-1 $228 $229 $90 #
cone-surface $-1 -71.620795901872896 27.172912174861082 8.4671543797330422 0.82903758062907751 0 -0.55919289150049634 0.27959644575024817 0 0.41451879031453875 1 I I -0.70710678118654746 0.70710678118654746 0.5 forward I I I I #
loop $-1 $-1 $230 $58 #
coedge $-1 $145 $145 $231 $232 reversed $91 $-1 #
face $-1 $-1 $233 $47 $-1 $234 forward single #
loop $-1 $235 $236 $93 #
cone-surface $-1 -71.620795901872896 31.607932102066229 8.4671543797330422 0.82903758062907751 0 -0.55919289150049634 0.27959644575024817 0 0.41451879031453875 1 I I -0.70710678118654746 0.70710678118654746 0.5 forward I I I I #
loop $-1 $-1 $237 $59 #
coedge $-1 $150 $150 $238 $239 reversed $94 $-1 #
face $-1 $240 $241 $36 $-1 $242 reversed single #
loop $-1 $-1 $243 $96 #
plane-surface $-1 0 -43.277612662264914 0 0 1 0 0 0 1 forward_v I I I I #
coedge $-1 $244 $245 $246 $247 forward $97 $-1 #
coedge $-1 $248 $99 $249 $250 forward $61 $-1 #
coedge $-1 $99 $248 $251 $252 forward $61 $-1 #
coedge $-1 $253 $254 $99 $158 reversed $255 $-1 #
edge $-1 $256 -43.277612662264914 $257 43.277612662264914 $157 $258 forward 7 unknown #
face $-1 $259 $260 $37 $-1 $261 forward single #
loop $-1 $-1 $262 $100 #
plane-surface $-1 78.712118900112927 0 0 -1 0 0 0 0 1 forward_v I I I I #
coedge $-1 $263 $264 $265 $266 forward $101 $-1 #
coedge $-1 $265 $103 $262 $267 reversed $64 $-1 #
coedge $-1 $103 $265 $268 $269 reversed $64 $-1 #
coedge $-1 $270 $271 $103 $166 reversed $260 $-1 #
edge $-1 $272 -78.712118900112927 $273 78.712118900112927 $165 $274 forward 7 unknown #
face $-1 $275 $276 $38 $-1 $277 reversed single #
loop $-1 $-1 $278 $104 #
plane-surface $-1 36.232029460876518 -19.920145946611051 228.01503462220413 0 1 0 0.55919291073839883 0 0.82903756765294845 forward_v I I I I #
coedge $-1 $279 $280 $281 $282 reversed $105 $-1 #
coedge $-1 $172 $107 $283 $284 reversed $67 $-1 #
coedge $-1 $107 $171 $279 $285 reversed $67 $-1 #
coedge $-1 $281 $286 $107 $174 forward $287 $-1 #
edge $-1 $288 -60.596104169674668 $289 -48.247869686824139 $173 $290 forward 7 unknown #
loop $-1 $-1 $180 $108 #
plane-surface $-1 -51.798488295405647 -14.947664445177487 97.504427426685538 0.55919291073839883 0 0.82903756765294845 0.82903756765294845 0 -0.55919291073839883 forward_v I I I I #
loop $-1 $-1 $291 $69 #
coedge $-1 $178 $178 $179 $292 reversed $109 $-1 #
coedge $-1 $179 $179 $178 $292 forward $111 $-1 #
coedge $-1 $180 $180 $112 $181 forward $175 $-1 #
edge $-1 $293 0 $293 6.2831853071796004 $180 $294 forward 7 unknown #
face $-1 $295 $296 $40 $-1 $297 forward single #
loop $-1 $-1 $298 $113 #
plane-surface $-1 -209.22272813838873 2.9657327490983487 89.127845641384539 0 -1 0 0.82903758062907751 0 -0.55919289150049634 forward_v I I I I #
coedge $-1 $299 $300 $301 $302 reversed $114 $-1 #
coedge $-1 $187 $116 $303 $304 reversed $73 $-1 #
coedge $-1 $116 $186 $299 $305 reversed $73 $-1 #
coedge $-1 $301 $306 $116 $189 forward $296 $-1 #
edge $-1 $307 25.899245169081439 $308 37.167292875338788 $188 $309 forward 7 unknown #
loop $-1 $-1 $195 $117 #
plane-surface $-1 -78.712118900112927 -4.4259671295769039 1.0973309136145133 -0.82903758062907751 0 0.55919289150049634 0.55919289150049634 0 0.82903758062907751 forward_v I I I I #
loop $-1 $-1 $310 $75 #
coedge $-1 $193 $193 $194 $311 reversed $118 $-1 #
coedge $-1 $194 $194 $193 $311 forward $120 $-1 #
coedge $-1 $195 $195 $121 $196 forward $190 $-1 #
edge $-1 $312 0 $312 6.2831853071796004 $195 $313 forward 7 unknown #
loop $-1 $-1 $202 $122 #
plane-surface $-1 -78.712118900112927 -4.4259671295769039 1.0973309136145133 -0.82903758062907751 0 0.55919289150049634 0.55919289150049634 0 0.82903758062907751 forward_v I I I I #
loop $-1 $-1 $314 $78 #
coedge $-1 $200 $200 $201 $315 reversed $123 $-1 #
coedge $-1 $201 $201 $200 $315 forward $125 $-1 #
coedge $-1 $202 $202 $126 $203 forward $197 $-1 #
edge $-1 $316 0 $316 6.2831853071796004 $202 $317 forward 7 unknown #
loop $-1 $-1 $209 $127 #
plane-surface $-1 -78.712118900112927 -4.4259671295769039 1.0973309136145133 -0.82903758062907751 0 0.55919289150049634 0.55919289150049634 0 0.82903758062907751 forward_v I I I I #
loop $-1 $-1 $318 $81 #
coedge $-1 $207 $207 $208 $319 reversed $128 $-1 #
coedge $-1 $208 $208 $207 $319 forward $130 $-1 #
coedge $-1 $209 $209 $131 $210 forward $204 $-1 #
edge $-1 $320 0 $320 6.2831853071796004 $209 $321 forward 7 unknown #
face $-1 $322 $323 $44 $-1 $324 forward single #
loop $-1 $-1 $325 $132 #
plane-surface $-1 -209.22272813838873 34.564612053536337 89.127845641384539 0 -1 0 0.82903758062907751 0 -0.55919289150049634 forward_v I I I I #
coedge $-1 $326 $327 $328 $329 reversed $133 $-1 #
coedge $-1 $216 $135 $330 $331 reversed $85 $-1 #
coedge $-1 $135 $215 $326 $332 reversed $85 $-1 #
coedge $-1 $328 $333 $135 $218 forward $323 $-1 #
edge $-1 $334 25.899245169081439 $335 37.167292875338788 $217 $336 forward 7 unknown #
loop $-1 $-1 $224 $136 #
plane-surface $-1 -78.712118900112927 27.172912174861082 1.0973309136145133 -0.82903758062907751 0 0.55919289150049634 0.55919289150049634 0 0.82903758062907751 forward_v I I I I #
loop $-1 $-1 $337 $87 #
coedge $-1 $222 $222 $223 $338 reversed $137 $-1 #
coedge $-1 $223 $223 $222 $338 forward $139 $-1 #
coedge $-1 $224 $224 $140 $225 forward $219 $-1 #
edge $-1 $339 0 $339 6.2831853071796004 $224 $340 forward 7 unknown #
loop $-1 $-1 $231 $141 #
plane-surface $-1 -78.712118900112927 27.172912174861082 1.0973309136145133 -0.82903758062907751 0 0.55919289150049634 0.55919289150049634 0 0.82903758062907751 forward_v I I I I #
loop $-1 $-1 $341 $90 #
coedge $-1 $229 $229 $230 $342 reversed $142 $-1 #
coedge $-1 $230 $230 $229 $342 forward $144 $-1 #
coedge $-1 $231 $231 $145 $232 forward $226 $-1 #
edge $-1 $343 0 $343 6.2831853071796004 $231 $344 forward 7 unknown #
loop $-1 $-1 $238 $146 #
plane-surface $-1 -78.712118900112927 27.172912174861082 1.0973309136145133 -0.82903758062907751 0 0.55919289150049634 0.55919289150049634 0 0.82903758062907751 forward_v I I I I #
loop $-1 $-1 $345 $93 #
coedge $-1 $236 $236 $237 $346 reversed $147 $-1 #
coedge $-1 $237 $237 $236 $346 forward $149 $-1 #
coedge $-1 $238 $238 $150 $239 forward $233 $-1 #
edge $-1 $347 0 $347 6.2831853071796004 $238 $348 forward 7 unknown #
face $-1 $349 $350 $36 $-1 $351 reversed single #
loop $-1 $-1 $352 $151 #
plane-surface $-1 -78.712118900112927 0 0 1 0 0 0 0 -1 forward_v I I I I #
coedge $-1 $251 $353 $253 $354 reversed $152 $-1 #
coedge $-1 $355 $154 $353 $356 forward $97 $-1 #
coedge $-1 $154 $355 $357 $358 forward $97 $-1 #
coedge $-1 $254 $253 $154 $247 reversed $255 $-1 #
edge $-1 $359 -43.277612662264914 $360 43.277612662264914 $246 $361 forward 7 unknown #
coedge $-1 $156 $155 $362 $363 forward $61 $-1 #
coedge $-1 $364 $365 $155 $250 reversed $350 $-1 #
edge $-1 $257 -78.712118900112927 $366 78.712118900112927 $249 $367 forward 7 unknown #
coedge $-1 $368 $243 $156 $252 reversed $152 $-1 #
edge $-1 $369 -78.712118900112927 $256 78.712118900112927 $251 $370 forward 7 unknown #
coedge $-1 $246 $157 $243 $354 forward $255 $-1 #
coedge $-1 $157 $246 $364 $371 reversed $255 $-1 #
loop $-1 $-1 $253 $349 #
vertex $-1 $158 $372 #
vertex $-1 $158 $373 #
straight-curve $-1 78.712118900112927 0 17.802899154551874 0 1 0 I I #
face $-1 $374 $375 $37 $-1 $376 reversed single #
loop $-1 $-1 $271 $159 #
plane-surface $-1 0 -54.956346020091843 -10.037690398892636 0 0 1 1 0 0 forward_v I I I I #
coedge $-1 $377 $378 $163 $267 forward $160 $-1 #
coedge $-1 $379 $162 $378 $380 forward $101 $-1 #
coedge $-1 $162 $379 $381 $382 forward $101 $-1 #
coedge $-1 $164 $163 $162 $266 reversed $64 $-1 #
edge $-1 $383 -78.712118900112927 $384 78.712118900112927 $162 $385 forward 7 unknown #
edge $-1 $384 -17.802899154551874 $273 -10.037690398892636 $262 $386 forward 7 unknown #
coedge $-1 $381 $387 $164 $269 forward $388 $-1 #
edge $-1 $272 10.037690398892636 $383 17.802899154551874 $268 $389 forward 7 unknown #
coedge $-1 $390 $165 $387 $391 forward $260 $-1 #
coedge $-1 $165 $390 $377 $392 forward $260 $-1 #
vertex $-1 $269 $393 #
vertex $-1 $392 $394 #
straight-curve $-1 0 -43.277612662264914 -10.037690398892636 1 0 0 I I #
face $-1 $-1 $287 $38 $-1 $395 forward single #
loop $-1 $-1 $396 $167 #
plane-surface $-1 78.712118900112927 0 0 -1 0 0 0 0 1 forward_v I I I I #
coedge $-1 $397 $398 $399 $400 reversed $168 $-1 #
coedge $-1 $401 $170 $172 $285 forward $105 $-1 #
coedge $-1 $170 $401 $397 $402 forward $105 $-1 #
coedge $-1 $399 $173 $170 $282 forward $287 $-1 #
edge $-1 $289 2.5013507211551786 $403 12.446313724022307 $281 $404 forward 7 unknown #
coedge $-1 $405 $406 $171 $284 forward $276 $-1 #
edge $-1 $407 -104.53360764069868 $288 -96.204618156550197 $283 $408 forward 7 unknown #
edge $-1 $289 142.52957564660466 $407 157.42423780022582 $172 $409 forward 7 unknown #
coedge $-1 $173 $399 $405 $410 forward $287 $-1 #
loop $-1 $-1 $399 $275 #
vertex $-1 $284 $411 #
vertex $-1 $174 $412 #
straight-curve $-1 18.116014730438259 -9.9751829437439223 17.802899154551866 -1 0 0 I I #
coedge $-1 $291 $291 $-1 $413 reversed $177 $-1 #
edge $-1 $414 0 $414 6.2831853071796004 $178 $415 forward 7 unknown #
vertex $-1 $181 $416 #
ellipse-curve $-1 72.538001658687648 -14.947664445177491 13.638404412477627 0.55919291073839883 0 0.82903756765294845 0.82903756765294845 0 -0.55919291073839883 1 I I #
face $-1 $-1 $417 $40 $-1 $418 reversed single #
loop $-1 $-1 $188 $182 #
plane-surface $-1 0 0 17.802899154551874 0 0 1 1 0 0 forward_v I I I I #
coedge $-1 $419 $420 $421 $422 reversed $183 $-1 #
coedge $-1 $423 $185 $187 $305 forward $114 $-1 #
coedge $-1 $185 $423 $419 $424 forward $114 $-1 #
coedge $-1 $421 $188 $185 $302 forward $296 $-1 #
edge $-1 $308 -9.6046834434637045 $425 5.1787163138868006 $301 $426 forward 7 unknown #
coedge $-1 $427 $428 $186 $304 forward $417 $-1 #
edge $-1 $429 -43.466591907077756 $307 -26.761023666140396 $303 $430 forward 7 unknown #
edge $-1 $308 -20.150556055928245 $429 0 $187 $431 forward 7 unknown #
coedge $-1 $188 $421 $427 $432 forward $296 $-1 #
vertex $-1 $304 $433 #
vertex $-1 $189 $434 #
straight-curve $-1 -104.61136406919437 -11.817667008252156 17.802899154551874 1 0 0 I I #
coedge $-1 $310 $310 $-1 $435 reversed $192 $-1 #
edge $-1 $436 0 $436 6.2831853071796004 $193 $437 forward 7 unknown #
vertex $-1 $196 $438 #
ellipse-curve $-1 -73.078095046984245 -8.8609870567820508 9.4501150340831916 -0.82903758062907751 0 0.55919289150049634 0.55919289150049634 0 0.82903758062907751 1 I I #
coedge $-1 $314 $314 $-1 $439 reversed $199 $-1 #
edge $-1 $440 0 $440 6.2831853071796004 $200 $441 forward 7 unknown #
vertex $-1 $203 $442 #
ellipse-curve $-1 -73.078095046984245 -4.4259671295769039 9.4501150340831916 -0.82903758062907751 0 0.55919289150049634 0.55919289150049634 0 0.82903758062907751 1 I I #
coedge $-1 $318 $318 $-1 $443 reversed $206 $-1 #
edge $-1 $444 0 $444 6.2831853071796004 $207 $445 forward 7 unknown #
vertex $-1 $210 $446 #
ellipse-curve $-1 -73.078095046984245 0.00905279762824307 9.4501150340831916 -0.82903758062907751 0 0.55919289150049634 0.55919289150049634 0 0.82903758062907751 1 I I #
face $-1 $-1 $447 $44 $-1 $448 reversed single #
loop $-1 $-1 $217 $211 #
plane-surface $-1 0 0 17.802899154551874 0 0 1 1 0 0 forward_v I I I I #
coedge $-1 $449 $450 $451 $452 reversed $212 $-1 #
coedge $-1 $453 $214 $216 $332 forward $133 $-1 #
coedge $-1 $214 $453 $449 $454 forward $133 $-1 #
coedge $-1 $451 $217 $214 $329 forward $323 $-1 #
edge $-1 $335 6.1947562087552868 $455 20.978155966105795 $328 $456 forward 7 unknown #
coedge $-1 $457 $458 $215 $331 forward $447 $-1 #
edge $-1 $459 -43.466591907077756 $334 -26.761023666140396 $330 $460 forward 7 unknown #
edge $-1 $335 -20.150556055928245 $459 0 $216 $461 forward 7 unknown #
coedge $-1 $217 $451 $457 $462 forward $323 $-1 #
vertex $-1 $218 $463 #
vertex $-1 $218 $464 #
straight-curve $-1 -104.61136406919437 19.781212296185828 17.802899154551874 1 0 0 I I #
coedge $-1 $337 $337 $-1 $465 reversed $221 $-1 #
edge $-1 $466 0 $466 6.2831853071796004 $222 $467 forward 7 unknown #
vertex $-1 $225 $468 #
ellipse-curve $-1 -73.078095046984245 22.737892247655935 9.4501150340831916 -0.82903758062907751 0 0.55919289150049634 0.55919289150049634 0 0.82903758062907751 1 I I #
coedge $-1 $341 $341 $-1 $469 reversed $228 $-1 #
edge $-1 $470 0 $470 6.2831853071796004 $229 $471 forward 7 unknown #
vertex $-1 $232 $472 #
ellipse-curve $-1 -73.078095046984245 27.172912174861082 9.4501150340831916 -0.82903758062907751 0 0.55919289150049634 0.55919289150049634 0 0.82903758062907751 1 I I #
coedge $-1 $345 $345 $-1 $473 reversed $235 $-1 #
edge $-1 $474 0 $474 6.2831853071796004 $236 $475 forward 7 unknown #
vertex $-1 $239 $476 #
ellipse-curve $-1 -73.078095046984245 31.607932102066229 9.4501150340831916 -0.82903758062907751 0 0.55919289150049634 0.55919289150049634 0 0.82903758062907751 1 I I #
face $-1 $-1 $255 $36 $-1 $477 reversed single #
loop $-1 $-1 $364 $240 #
plane-surface $-1 0 43.277612662264914 0 0 -1 0 0 0 -1 forward_v I I I I #
coedge $-1 $478 $362 $365 $479 forward $241 $-1 #
coedge $-1 $243 $368 $244 $356 reversed $152 $-1 #
edge $-1 $256 -17.802899154551874 $360 17.802899154551874 $253 $480 forward 7 unknown #
coedge $-1 $245 $244 $478 $481 forward $97 $-1 #
edge $-1 $360 -78.712118900112927 $482 78.712118900112927 $353 $483 forward 7 unknown #
coedge $-1 $365 $364 $245 $358 reversed $350 $-1 #
edge $-1 $484 -78.712118900112927 $359 78.712118900112927 $357 $485 forward 7 unknown #
vertex $-1 $247 $486 #
vertex $-1 $354 $487 #
straight-curve $-1 78.712118900112927 0 -17.802899154551874 0 -1 0 I I #
coedge $-1 $352 $488 $248 $363 reversed $241 $-1 #
edge $-1 $366 -43.277612662264914 $369 43.277612662264914 $362 $489 forward 7 unknown #
coedge $-1 $357 $249 $254 $371 forward $350 $-1 #
coedge $-1 $249 $357 $352 $479 reversed $350 $-1 #
vertex $-1 $250 $490 #
straight-curve $-1 0 43.277612662264914 17.802899154551874 -1 0 0 I I #
coedge $-1 $353 $251 $488 $491 forward $152 $-1 #
vertex $-1 $363 $492 #
straight-curve $-1 0 -43.277612662264914 17.802899154551874 1 0 0 I I #
edge $-1 $257 -17.802899154551874 $359 17.802899154551874 $254 $493 forward 7 unknown #
point $-1 78.712118900112927 -43.277612662264914 17.802899154551874 #
point $-1 78.712118900112927 43.277612662264914 17.802899154551874 #
face $-1 $-1 $388 $37 $-1 $494 reversed single #
loop $-1 $-1 $495 $259 #
plane-surface $-1 0 -66.635079377918771 -13.920294776722255 0 1 0 0 0 1 forward_v I I I I #
coedge $-1 $496 $262 $271 $392 reversed $160 $-1 #
coedge $-1 $262 $496 $263 $380 reversed $160 $-1 #
coedge $-1 $264 $263 $497 $498 forward $101 $-1 #
edge $-1 $384 43.277612662264914 $499 66.635079377918771 $378 $500 forward 7 unknown #
coedge $-1 $501 $268 $264 $382 reversed $388 $-1 #
edge $-1 $502 -66.635079377918771 $383 -43.277612662264914 $381 $503 forward 7 unknown #
vertex $-1 $269 $504 #
vertex $-1 $380 $505 #
straight-curve $-1 0 -43.277612662264914 -17.802899154551874 1 0 0 I I #
straight-curve $-1 78.712118900112927 -43.277612662264914 0 0 0 1 I I #
coedge $-1 $268 $501 $270 $391 reversed $388 $-1 #
loop $-1 $-1 $268 $374 #
straight-curve $-1 -78.712118900112927 -43.277612662264914 0 0 0 -1 I I #
coedge $-1 $271 $270 $506 $507 forward $260 $-1 #
edge $-1 $272 -11.678733357826928 $508 11.678733357826928 $387 $509 forward 7 unknown #
edge $-1 $510 -11.678733357826928 $273 11.678733357826928 $377 $511 forward 7 unknown #
point $-1 -78.712118900112927 -43.277612662264914 -10.037690398892636 #
point $-1 78.712118900112927 -43.277612662264914 -10.037690398892636 #
plane-surface $-1 0 0 17.802899154551874 0 0 1 1 0 0 forward_v I I I I #
coedge $-1 $406 $405 $398 $512 forward $276 $-1 #
coedge $-1 $398 $278 $280 $402 reversed $168 $-1 #
coedge $-1 $278 $397 $396 $512 reversed $168 $-1 #
coedge $-1 $286 $281 $278 $400 forward $287 $-1 #
edge $-1 $403 48.247869686824139 $513 60.596104169674668 $399 $514 forward 7 unknown #
coedge $-1 $280 $279 $406 $515 reversed $105 $-1 #
edge $-1 $516 -157.42423780022582 $403 -142.52957564660466 $397 $517 forward 7 unknown #
vertex $-1 $282 $518 #
straight-curve $-1 66.363884417262398 -7.4738322225887437 17.802899154551874 0 -1 0 I I #
coedge $-1 $396 $283 $286 $410 reversed $276 $-1 #
coedge $-1 $283 $396 $401 $515 forward $276 $-1 #
vertex $-1 $284 $519 #
straight-curve $-1 78.712118900112927 -9.9751829437439223 114.00751731110206 0 0 1 I I #
straight-curve $-1 -51.798488295405647 -9.9751829437439223 97.504427426685538 0.82903756765294845 0 -0.55919291073839883 I I #
edge $-1 $513 -19.920145946611051 $288 -9.9751829437439223 $405 $520 forward 7 unknown #
point $-1 78.712118900112927 -9.9751829437439223 17.802899154551874 #
point $-1 66.363884417262398 -9.9751829437439223 17.802899154551881 #
edge $-1 $521 1 $521 0 $291 $-1 forward 7 unknown #
vertex $-1 $292 $522 #
ellipse-curve $-1 71.876107159862968 -14.947664445177491 12.657105481802889 0.55919291073839883 0 0.82903756765294845 0.82903756765294845 0 -0.55919291073839883 1 I I #
point $-1 73.367039226340609 -14.947664445177491 13.079211501739243 #
loop $-1 $-1 $303 $295 #
plane-surface $-1 -78.712118900112927 0 0 1 0 0 0 0 -1 forward_v I I I I #
coedge $-1 $420 $298 $300 $424 reversed $183 $-1 #
coedge $-1 $298 $419 $523 $524 reversed $183 $-1 #
coedge $-1 $306 $301 $298 $422 forward $296 $-1 #
edge $-1 $425 -37.167292875338788 $525 -25.899245169081439 $421 $526 forward 7 unknown #
coedge $-1 $300 $299 $428 $527 reversed $114 $-1 #
edge $-1 $528 0 $425 20.150556055928245 $419 $529 forward 7 unknown #
vertex $-1 $302 $530 #
straight-curve $-1 -67.444071193855578 -2.2129835647884519 17.802899154551874 0 1 0 I I #
coedge $-1 $523 $303 $306 $432 reversed $417 $-1 #
coedge $-1 $303 $523 $423 $527 forward $417 $-1 #
vertex $-1 $304 $531 #
straight-curve $-1 -78.712118900112927 -11.817667008252156 44.56392282069227 0 0 1 I I #
straight-curve $-1 -78.712118900112927 -11.817667008252156 1.0973309136145133 -0.55919289150049634 0 -0.82903758062907751 I I #
edge $-1 $525 -2.9657327490983487 $307 11.817667008252156 $427 $532 forward 7 unknown #
point $-1 -78.712118900112927 -11.817667008252156 17.802899154551874 #
point $-1 -67.444071193855578 -11.817667008252156 17.802899154551874 #
edge $-1 $533 1 $533 0 $310 $-1 forward 7 unknown #
vertex $-1 $311 $534 #
ellipse-curve $-1 -72.035314692187441 -8.8609870567820508 8.7467508254832911 -0.82903758062907751 0 0.55919289150049634 0.55919289150049634 0 0.82903758062907751 1 I I #
point $-1 -72.518902155483758 -8.8609870567820508 10.279152614712268 #
edge $-1 $535 1 $535 0 $314 $-1 forward 7 unknown #
vertex $-1 $315 $536 #
ellipse-curve $-1 -72.035314692187441 -4.4259671295769039 8.7467508254832911 -0.82903758062907751 0 0.55919289150049634 0.55919289150049634 0 0.82903758062907751 1 I I #
point $-1 -72.518902155483758 -4.4259671295769039 10.279152614712268 #
edge $-1 $537 1 $537 0 $318 $-1 forward 7 unknown #
vertex $-1 $319 $538 #
ellipse-curve $-1 -72.035314692187441 0.00905279762824307 8.7467508254832911 -0.82903758062907751 0 0.55919289150049634 0.55919289150049634 0 0.82903758062907751 1 I I #
point $-1 -72.518902155483758 0.00905279762824307 10.279152614712268 #
loop $-1 $-1 $330 $322 #
plane-surface $-1 -78.712118900112927 0 0 1 0 0 0 0 -1 forward_v I I I I #
coedge $-1 $450 $325 $327 $454 reversed $212 $-1 #
coedge $-1 $325 $449 $539 $540 reversed $212 $-1 #
coedge $-1 $333 $328 $325 $452 forward $323 $-1 #
edge $-1 $455 -37.167292875338788 $541 -25.899245169081439 $451 $542 forward 7 unknown #
coedge $-1 $327 $326 $458 $543 reversed $133 $-1 #
edge $-1 $544 0 $455 20.150556055928245 $449 $545 forward 7 unknown #
vertex $-1 $329 $546 #
straight-curve $-1 -67.444071193855578 13.586456087430541 17.802899154551874 0 1 0 I I #
coedge $-1 $539 $330 $333 $462 reversed $447 $-1 #
coedge $-1 $330 $539 $453 $543 forward $447 $-1 #
vertex $-1 $331 $547 #
straight-curve $-1 -78.712118900112927 19.781212296185828 44.56392282069227 0 0 1 I I #
straight-curve $-1 -78.712118900112927 19.781212296185828 1.0973309136145133 -0.55919289150049634 0 -0.82903758062907751 I I #
edge $-1 $541 -34.564612053536337 $334 -19.781212296185828 $457 $548 forward 7 unknown #
point $-1 -78.712118900112927 19.781212296185828 17.802899154551874 #
point $-1 -67.444071193855578 19.781212296185828 17.802899154551874 #
edge $-1 $549 1 $549 0 $337 $-1 forward 7 unknown #
vertex $-1 $338 $550 #
ellipse-curve $-1 -72.035314692187441 22.737892247655935 8.7467508254832911 -0.82903758062907751 0 0.55919289150049634 0.55919289150049634 0 0.82903758062907751 1 I I #
point $-1 -72.518902155483758 22.737892247655935 10.279152614712268 #
edge $-1 $551 1 $551 0 $341 $-1 forward 7 unknown #
vertex $-1 $342 $552 #
ellipse-curve $-1 -72.035314692187441 27.172912174861082 8.7467508254832911 -0.82903758062907751 0 0.55919289150049634 0.55919289150049634 0 0.82903758062907751 1 I I #
point $-1 -72.518902155483758 27.172912174861082 10.279152614712268 #
edge $-1 $553 1 $553 0 $345 $-1 forward 7 unknown #
vertex $-1 $346 $554 #
ellipse-curve $-1 -72.035314692187441 31.607932102066229 8.7467508254832911 -0.82903758062907751 0 0.55919289150049634 0.55919289150049634 0 0.82903758062907751 1 I I #
point $-1 -72.518902155483758 31.607932102066229 10.279152614712268 #
plane-surface $-1 78.712118900112927 0 0 -1 0 0 0 0 1 forward_v I I I I #
coedge $-1 $488 $352 $355 $481 reversed $241 $-1 #
edge $-1 $366 -17.802899154551874 $484 17.802899154551874 $365 $555 forward 7 unknown #
straight-curve $-1 78.712118900112927 -43.277612662264914 0 0 0 -1 I I #
edge $-1 $482 -43.277612662264914 $484 43.277612662264914 $478 $556 forward 7 unknown #
vertex $-1 $481 $557 #
straight-curve $-1 0 -43.277612662264914 -17.802899154551874 -1 0 0 I I #
vertex $-1 $358 $558 #
straight-curve $-1 0 43.277612662264914 -17.802899154551874 1 0 0 I I #
point $-1 78.712118900112927 43.277612662264914 -17.802899154551874 #
point $-1 78.712118900112927 -43.277612662264914 -17.802899154551874 #
coedge $-1 $362 $478 $368 $491 reversed $241 $-1 #
straight-curve $-1 -78.712118900112927 0 17.802899154551874 0 -1 0 I I #
point $-1 -78.712118900112927 43.277612662264914 17.802899154551874 #
edge $-1 $369 -17.802899154551874 $482 17.802899154551874 $488 $559 forward 7 unknown #
point $-1 -78.712118900112927 -43.277612662264914 17.802899154551874 #
straight-curve $-1 78.712118900112927 43.277612662264914 0 0 0 -1 I I #
plane-surface $-1 -78.712118900112927 0 0 1 0 0 0 0 -1 forward_v I I I I #
coedge $-1 $497 $506 $501 $560 forward $375 $-1 #
coedge $-1 $378 $377 $561 $562 forward $160 $-1 #
coedge $-1 $561 $495 $379 $498 reversed $375 $-1 #
edge $-1 $499 -78.712118900112927 $502 78.712118900112927 $497 $563 forward 7 unknown #
vertex $-1 $562 $564 #
straight-curve $-1 78.712118900112927 0 -17.802899154551874 0 -1 0 I I #
coedge $-1 $387 $381 $495 $560 reversed $388 $-1 #
vertex $-1 $382 $565 #
straight-curve $-1 -78.712118900112927 0 -17.802899154551874 0 1 0 I I #
point $-1 -78.712118900112927 -43.277612662264914 -17.802899154551874 #
point $-1 78.712118900112927 -43.277612662264914 -17.802899154551874 #
coedge $-1 $495 $561 $390 $507 reversed $375 $-1 #
edge $-1 $508 -78.712118900112927 $510 78.712118900112927 $506 $566 forward 7 unknown #
vertex $-1 $391 $567 #
straight-curve $-1 -78.712118900112927 -54.956346020091843 -10.037690398892636 0 -1 0 I I #
vertex $-1 $392 $568 #
straight-curve $-1 78.712118900112927 -54.956346020091843 -10.037690398892636 0 1 0 I I #
edge $-1 $513 96.204618156550197 $516 104.53360764069868 $396 $569 forward 7 unknown #
vertex $-1 $410 $570 #
straight-curve $-1 18.116014730438259 -19.920145946611051 17.802899154551866 1 0 0 I I #
edge $-1 $516 -12.446313724022307 $407 -2.5013507211551786 $406 $571 forward 7 unknown #
vertex $-1 $515 $572 #
straight-curve $-1 -51.798488295405647 -19.920145946611051 97.504427426685538 -0.82903756765294845 0 0.55919291073839883 I I #
point $-1 66.363884417262398 -19.920145946611051 17.802899154551881 #
point $-1 78.712118900112912 -9.9751829437439223 9.4739096704033869 #
straight-curve $-1 78.712118900112927 0 17.802899154551874 0 1 0 I I #
vertex $-1 $413 $573 #
point $-1 72.705144727515915 -14.947664445177491 12.097912571064489 #
coedge $-1 $428 $427 $420 $524 forward $417 $-1 #
edge $-1 $525 26.761023666140396 $528 43.466591907077756 $523 $574 forward 7 unknown #
vertex $-1 $432 $575 #
straight-curve $-1 -104.61136406919437 2.9657327490983487 17.802899154551874 -1 0 0 I I #
edge $-1 $528 -5.1787163138868006 $429 9.6046834434637045 $428 $576 forward 7 unknown #
vertex $-1 $527 $577 #
straight-curve $-1 -78.712118900112927 2.9657327490983487 1.0973309136145133 0.55919289150049634 0 0.82903758062907751 I I #
point $-1 -67.444071193855578 2.9657327490983487 17.802899154551874 #
point $-1 -78.712118900112927 -11.817667008252156 1.0973309136145133 #
straight-curve $-1 -78.712118900112927 0 17.802899154551874 0 -1 0 I I #
vertex $-1 $435 $578 #
point $-1 -71.47612180068694 -8.8609870567820508 9.5757884061123679 #
vertex $-1 $439 $579 #
point $-1 -71.47612180068694 -4.4259671295769039 9.5757884061123679 #
vertex $-1 $443 $580 #
point $-1 -71.47612180068694 0.00905279762824307 9.5757884061123679 #
coedge $-1 $458 $457 $450 $540 forward $447 $-1 #
edge $-1 $541 26.761023666140396 $544 43.466591907077756 $539 $581 forward 7 unknown #
vertex $-1 $462 $582 #
straight-curve $-1 -104.61136406919437 34.564612053536337 17.802899154551874 -1 0 0 I I #
edge $-1 $544 -20.978155966105795 $459 -6.1947562087552868 $458 $583 forward 7 unknown #
vertex $-1 $543 $584 #
straight-curve $-1 -78.712118900112927 34.564612053536337 1.0973309136145133 0.55919289150049634 0 0.82903758062907751 I I #
point $-1 -67.444071193855578 34.564612053536337 17.802899154551874 #
point $-1 -78.712118900112927 19.781212296185828 1.0973309136145133 #
straight-curve $-1 -78.712118900112927 0 17.802899154551874 0 -1 0 I I #
vertex $-1 $465 $585 #
point $-1 -71.47612180068694 22.737892247655935 9.5757884061123679 #
vertex $-1 $469 $586 #
point $-1 -71.47612180068694 27.172912174861082 9.5757884061123679 #
vertex $-1 $473 $587 #
point $-1 -71.47612180068694 31.607932102066229 9.5757884061123679 #
straight-curve $-1 -78.712118900112927 43.277612662264914 0 0 0 -1 I I #
straight-curve $-1 -78.712118900112927 0 -17.802899154551874 0 1 0 I I #
point $-1 -78.712118900112927 -43.277612662264914 -17.802899154551874 #
point $-1 -78.712118900112927 43.277612662264914 -17.802899154551874 #
straight-curve $-1 -78.712118900112927 -43.277612662264914 0 0 0 -1 I I #
edge $-1 $508 -3.8826043778296189 $502 3.8826043778296189 $501 $588 forward 7 unknown #
coedge $-1 $506 $497 $496 $562 reversed $375 $-1 #
edge $-1 $510 -3.8826043778296189 $499 3.8826043778296189 $496 $589 forward 7 unknown #
straight-curve $-1 0 -66.635079377918771 -17.802899154551874 -1 0 0 I I #
point $-1 78.712118900112927 -66.635079377918771 -17.802899154551874 #
point $-1 -78.712118900112927 -66.635079377918771 -17.802899154551874 #
straight-curve $-1 0 -66.635079377918771 -10.037690398892636 1 0 0 I I #
point $-1 -78.712118900112927 -66.635079377918771 -10.037690398892636 #
point $-1 78.712118900112927 -66.635079377918771 -10.037690398892636 #
straight-curve $-1 78.712118900112927 -19.920145946611051 114.00751731110206 0 0 -1 I I #
point $-1 78.712118900112927 -19.920145946611051 17.802899154551874 #
straight-curve $-1 78.712118900112927 -7.4738322225887437 9.4739096704033798 0 1 0 I I #
point $-1 78.712118900112912 -19.920145946611051 9.4739096704033869 #
point $-1 71.316914249124565 -14.947664445177491 11.828067914149939 #
straight-curve $-1 -78.712118900112927 2.9657327490983487 44.56392282069227 0 0 -1 I I #
point $-1 -78.712118900112927 2.9657327490983487 17.802899154551874 #
straight-curve $-1 -78.712118900112927 -2.2129835647884519 1.0973309136145142 0 -1 0 I I #
point $-1 -78.712118900112927 2.9657327490983487 1.0973309136145133 #
point $-1 -71.20627711155835 -8.8609870567820508 8.1875579339827933 #
point $-1 -71.20627711155835 -4.4259671295769039 8.1875579339827933 #
point $-1 -71.20627711155835 0.00905279762824307 8.1875579339827933 #
straight-curve $-1 -78.712118900112927 34.564612053536337 44.56392282069227 0 0 -1 I I #
point $-1 -78.712118900112927 34.564612053536337 17.802899154551874 #
straight-curve $-1 -78.712118900112927 13.586456087430541 1.0973309136145142 0 -1 0 I I #
point $-1 -78.712118900112927 34.564612053536337 1.0973309136145133 #
point $-1 -71.20627711155835 22.737892247655935 8.1875579339827933 #
point $-1 -71.20627711155835 27.172912174861082 8.1875579339827933 #
point $-1 -71.20627711155835 31.607932102066229 8.1875579339827933 #
straight-curve $-1 -78.712118900112927 -66.635079377918771 -13.920294776722255 0 0 -1 I I #
straight-curve $-1 78.712118900112927 -66.635079377918771 -13.920294776722255 0 0 -1 I I #
End-of-ACIS-data 