500 0 7 0           
7 Unknown 11 ACIS 5.0 NT 24 Fri Mar 26 01:54:14 1999 
-1 9.9999999999999995e-007 1e-010 
body $-1 $7 $-1 $8 #
body $-1 $9 $-1 $10 #
body $-1 $11 $-1 $12 #
body $-1 $13 $-1 $14 #
body $-1 $15 $-1 $16 #
body $-1 $17 $-1 $18 #
body $-1 $19 $-1 $20 #
lump $-1 $-1 $21 $0 #
transform $-1 1 0 0 0 1 0 0 0 1 79.132053590502636 52.40968048983337 21.338307029841548 1 rotate no_reflect no_shear #
lump $-1 $-1 $22 $1 #
transform $-1 1 0 0 0 1 0 0 0 1 79.132053590502636 52.40968048983337 21.338307029841548 1 rotate no_reflect no_shear #
lump $-1 $-1 $23 $2 #
transform $-1 1 0 0 0 1 0 0 0 1 79.132053590502636 52.40968048983337 21.338307029841548 1 rotate no_reflect no_shear #
lump $-1 $-1 $24 $3 #
transform $-1 1 0 0 0 1 0 0 0 1 79.132053590502636 52.40968048983337 21.338307029841548 1 rotate no_reflect no_shear #
lump $-1 $-1 $25 $4 #
transform $-1 1 0 0 0 1 0 0 0 1 79.132053590502636 52.40968048983337 21.338307029841548 1 rotate no_reflect no_shear #
lump $-1 $-1 $26 $5 #
transform $-1 1 0 0 0 1 0 0 0 1 79.132053590502636 52.40968048983337 21.338307029841548 1 rotate no_reflect no_shear #
lump $-1 $-1 $27 $6 #
transform $-1 1 0 0 0 1 0 0 0 1 79.132053590502636 52.40968048983337 21.338307029841548 1 rotate no_reflect no_shear #
shell $-1 $-1 $-1 $28 $-1 $7 #
shell $-1 $-1 $-1 $29 $-1 $9 #
shell $-1 $-1 $-1 $30 $-1 $11 #
shell $-1 $-1 $-1 $31 $-1 $13 #
shell $-1 $-1 $-1 $32 $-1 $15 #
shell $-1 $-1 $-1 $33 $-1 $17 #
shell $-1 $-1 $-1 $34 $-1 $19 #
face $-1 $35 $36 $21 $-1 $37 reversed single #
face $-1 $38 $39 $22 $-1 $40 forward single #
face $-1 $41 $42 $23 $-1 $43 forward single #
face $-1 $44 $45 $24 $-1 $46 reversed single #
face $-1 $47 $48 $25 $-1 $49 forward single #
face $-1 $50 $51 $26 $-1 $52 reversed single #
face $-1 $53 $54 $27 $-1 $55 forward single #
face $-1 $56 $57 $21 $-1 $58 forward single #
loop $-1 $-1 $59 $28 #
plane-surface $-1 79.132053590502636 0 0 -1 0 0 0 0 1 forward_v I I I I #
face $-1 $60 $61 $22 $-1 $62 reversed single #
loop $-1 $-1 $63 $29 #
plane-surface $-1 -79.132053590502636 0 0 1 0 0 0 0 -1 forward_v I I I I #
face $-1 $64 $65 $23 $-1 $66 reversed single #
loop $-1 $-1 $67 $30 #
plane-surface $-1 79.132053590502636 0 0 -1 0 0 0 0 1 forward_v I I I I #
face $-1 $68 $69 $24 $-1 $70 reversed single #
loop $-1 $-1 $71 $31 #
plane-surface $-1 -56.261923504109831 118.83676073615732 194.75056305039766 1 0 0 0 -0.80901700255871778 -0.5877852410284794 forward_v I I I I #
face $-1 $72 $73 $25 $-1 $74 forward single #
loop $-1 $75 $76 $32 #
cone-surface $-1 -49.279964229694663 50.101486527253662 18.619373741645202 0 -0.80901700255871778 -0.5877852410284794 1 0 0 1 I I 0 1 1 forward I I I I #
face $-1 $77 $78 $26 $-1 $79 reversed single #
loop $-1 $-1 $80 $33 #
plane-surface $-1 -42.298004955279495 -180.4480340940419 109.94991782050745 -1 0 0 0 -0.80901700255871778 0.5877852410284794 forward_v I I I I #
face $-1 $81 $82 $27 $-1 $83 forward single #
loop $-1 $84 $85 $34 #
cone-surface $-1 -49.279964229694663 -50.101486527253662 18.619373741645195 0 0.80901700255871778 -0.5877852410284794 1 0 0 1 I I 0 1 1 forward I I I I #
face $-1 $86 $87 $21 $-1 $88 reversed single #
loop $-1 $-1 $89 $35 #
plane-surface $-1 0 0 21.338307029841548 0 0 1 1 0 0 forward_v I I I I #
coedge $-1 $90 $91 $92 $93 reversed $36 $-1 #
face $-1 $94 $95 $22 $-1 $96 forward single #
loop $-1 $-1 $97 $38 #
plane-surface $-1 0 52.40968048983337 0 0 -1 0 0 0 -1 forward_v I I I I #
coedge $-1 $98 $99 $100 $101 forward $39 $-1 #
face $-1 $102 $103 $23 $-1 $104 forward single #
loop $-1 $-1 $105 $41 #
plane-surface $-1 0 -52.40968048983337 0 0 1 0 0 0 1 forward_v I I I I #
coedge $-1 $106 $107 $108 $109 forward $42 $-1 #
face $-1 $110 $111 $24 $-1 $112 reversed single #
loop $-1 $-1 $113 $44 #
plane-surface $-1 -49.279964229694663 -9.2015928680512218 101.72525666485338 0 0.80901700255871778 0.5877852410284794 1 0 0 forward_v I I I I #
coedge $-1 $114 $115 $116 $117 reversed $45 $-1 #
face $-1 $-1 $118 $25 $-1 $119 forward single #
loop $-1 $120 $121 $47 #
cone-surface $-1 -49.279964229694663 48.992152794123847 17.813395630373794 0 -0.80901700255871778 -0.5877852410284794 0.5 0 0 1 I I -0.70710678118654746 0.70710678118654746 0.5 forward I I I I #
loop $-1 $-1 $122 $32 #
coedge $-1 $76 $76 $123 $124 reversed $48 $-1 #
face $-1 $125 $126 $26 $-1 $127 reversed single #
loop $-1 $-1 $128 $50 #
plane-surface $-1 -49.279964229694663 -52.409680489833363 16.924611434963168 0 -0.80901700255871778 0.5877852410284794 1 0 0 forward_v I I I I #
coedge $-1 $129 $130 $131 $132 reversed $51 $-1 #
face $-1 $-1 $133 $27 $-1 $134 forward single #
loop $-1 $135 $136 $53 #
cone-surface $-1 -49.279964229694663 -48.992152794123847 17.813395630373787 0 0.80901700255871778 -0.5877852410284794 0.5 0 0 1 I I -0.70710678118654746 0.70710678118654746 0.5 forward I I I I #
loop $-1 $-1 $137 $34 #
coedge $-1 $85 $85 $138 $139 reversed $54 $-1 #
face $-1 $140 $141 $21 $-1 $142 reversed single #
loop $-1 $-1 $143 $56 #
plane-surface $-1 0 0 -21.338307029841548 0 0 1 1 0 0 forward_v I I I I #
coedge $-1 $144 $145 $90 $146 forward $57 $-1 #
coedge $-1 $147 $59 $89 $146 reversed $36 $-1 #
coedge $-1 $59 $147 $143 $148 reversed $36 $-1 #
coedge $-1 $149 $150 $59 $93 forward $151 $-1 #
edge $-1 $152 -21.338307029841548 $153 21.338307029841548 $59 $154 forward 7 unknown #
face $-1 $155 $156 $22 $-1 $157 reversed single #
loop $-1 $-1 $100 $60 #
plane-surface $-1 -90.567118633699039 0 -9.9819948417582189 0 0 1 1 0 0 forward_v I I I I #
coedge $-1 $158 $159 $99 $160 forward $61 $-1 #
coedge $-1 $161 $63 $162 $163 reversed $39 $-1 #
coedge $-1 $63 $161 $97 $160 reversed $39 $-1 #
coedge $-1 $164 $165 $63 $101 reversed $95 $-1 #
edge $-1 $166 -52.40968048983337 $167 52.40968048983337 $100 $168 forward 7 unknown #
face $-1 $169 $170 $23 $-1 $171 reversed single #
loop $-1 $-1 $172 $64 #
plane-surface $-1 90.567118633699039 0 -9.9819948417582189 0 0 1 1 0 0 forward_v I I I I #
coedge $-1 $173 $174 $107 $175 forward $65 $-1 #
coedge $-1 $176 $67 $177 $178 reversed $42 $-1 #
coedge $-1 $67 $176 $105 $175 reversed $42 $-1 #
coedge $-1 $179 $180 $67 $109 reversed $103 $-1 #
edge $-1 $181 -52.40968048983337 $182 52.40968048983337 $108 $183 forward 7 unknown #
face $-1 $184 $185 $24 $-1 $186 reversed single #
loop $-1 $-1 $187 $68 #
plane-surface $-1 -42.298004955279495 118.83676073615732 194.75056305039766 -1 0 0 0 0.80901700255871778 0.5877852410284794 forward_v I I I I #
coedge $-1 $188 $189 $190 $191 reversed $69 $-1 #
coedge $-1 $115 $71 $192 $193 reversed $45 $-1 #
coedge $-1 $71 $114 $188 $194 reversed $45 $-1 #
coedge $-1 $190 $195 $71 $117 forward $196 $-1 #
edge $-1 $197 7.0086998782452881 $198 10.215437339703804 $116 $199 forward 7 unknown #
loop $-1 $-1 $123 $72 #
plane-surface $-1 -49.279964229694663 -9.2015928680512218 101.72525666485338 0 0.80901700255871778 0.5877852410284794 1 0 0 forward_v I I I I #
loop $-1 $-1 $200 $47 #
coedge $-1 $121 $121 $122 $201 reversed $73 $-1 #
coedge $-1 $122 $122 $121 $201 forward $75 $-1 #
coedge $-1 $123 $123 $76 $124 forward $118 $-1 #
edge $-1 $202 0 $202 6.2831853071796004 $123 $203 forward 7 unknown #
face $-1 $204 $205 $26 $-1 $206 forward single #
loop $-1 $-1 $207 $77 #
plane-surface $-1 -56.261923504109831 -180.4480340940419 109.94991782050745 1 0 0 0 0.80901700255871778 -0.5877852410284794 forward_v I I I I #
coedge $-1 $208 $209 $210 $211 reversed $78 $-1 #
coedge $-1 $130 $80 $212 $213 reversed $51 $-1 #
coedge $-1 $80 $129 $208 $214 reversed $51 $-1 #
coedge $-1 $210 $215 $80 $132 forward $205 $-1 #
edge $-1 $216 37.81433655718758 $217 41.021074018646111 $131 $218 forward 7 unknown #
loop $-1 $-1 $138 $81 #
plane-surface $-1 -49.279964229694663 -52.409680489833363 16.924611434963168 0 -0.80901700255871778 0.5877852410284794 1 0 0 forward_v I I I I #
loop $-1 $-1 $219 $53 #
coedge $-1 $136 $136 $137 $220 reversed $82 $-1 #
coedge $-1 $137 $137 $136 $220 forward $84 $-1 #
coedge $-1 $138 $138 $85 $139 forward $133 $-1 #
edge $-1 $221 -1.30225956062532e-015 $221 6.2831853071795996 $138 $222 forward 7 unknown #
face $-1 $223 $224 $21 $-1 $225 reversed single #
loop $-1 $-1 $226 $86 #
plane-surface $-1 0 -52.40968048983337 0 0 1 0 0 0 1 forward_v I I I I #
coedge $-1 $227 $228 $91 $148 forward $87 $-1 #
coedge $-1 $229 $89 $150 $230 forward $57 $-1 #
coedge $-1 $89 $229 $231 $232 forward $57 $-1 #
edge $-1 $233 -52.40968048983337 $152 52.40968048983337 $90 $234 forward 7 unknown #
coedge $-1 $91 $90 $235 $236 forward $36 $-1 #
edge $-1 $153 -52.40968048983337 $237 52.40968048983337 $91 $238 forward 7 unknown #
coedge $-1 $239 $92 $228 $240 reversed $151 $-1 #
coedge $-1 $92 $239 $144 $230 reversed $151 $-1 #
loop $-1 $-1 $92 $223 #
vertex $-1 $146 $241 #
vertex $-1 $148 $242 #
straight-curve $-1 79.132053590502636 52.40968048983337 0 0 0 -1 I I #
face $-1 $243 $244 $22 $-1 $245 reversed single #
loop $-1 $-1 $246 $94 #
plane-surface $-1 -90.567118633699039 0 -16.220748740720222 0 0 1 1 0 0 forward_v I I I I #
coedge $-1 $247 $97 $248 $249 reversed $61 $-1 #
coedge $-1 $97 $247 $164 $250 reversed $61 $-1 #
edge $-1 $166 9.9819948417582189 $251 16.220748740720222 $97 $252 forward 7 unknown #
coedge $-1 $99 $98 $246 $253 forward $39 $-1 #
coedge $-1 $254 $255 $98 $163 forward $256 $-1 #
edge $-1 $257 -16.220748740720222 $167 -9.9819948417582189 $162 $258 forward 7 unknown #
coedge $-1 $259 $100 $159 $250 forward $95 $-1 #
coedge $-1 $100 $259 $254 $260 forward $95 $-1 #
vertex $-1 $160 $261 #
vertex $-1 $260 $262 #
straight-curve $-1 -79.132053590502636 0 -9.9819948417582189 0 -1 0 I I #
face $-1 $263 $264 $23 $-1 $265 reversed single #
loop $-1 $-1 $266 $102 #
plane-surface $-1 90.567118633699039 0 -16.220748740720222 0 0 1 1 0 0 forward_v I I I I #
coedge $-1 $180 $179 $267 $268 forward $103 $-1 #
coedge $-1 $269 $105 $270 $271 reversed $65 $-1 #
coedge $-1 $105 $269 $179 $272 reversed $65 $-1 #
edge $-1 $181 9.9819948417582189 $273 16.220748740720222 $105 $274 forward 7 unknown #
coedge $-1 $107 $106 $275 $276 forward $42 $-1 #
coedge $-1 $277 $278 $106 $178 forward $279 $-1 #
edge $-1 $280 -16.220748740720222 $182 -9.9819948417582189 $177 $281 forward 7 unknown #
coedge $-1 $172 $108 $174 $272 forward $103 $-1 #
coedge $-1 $108 $172 $277 $282 forward $103 $-1 #
vertex $-1 $175 $283 #
vertex $-1 $282 $284 #
straight-curve $-1 79.132053590502636 0 -9.9819948417582189 0 1 0 I I #
face $-1 $-1 $196 $24 $-1 $285 forward single #
loop $-1 $-1 $286 $110 #
plane-surface $-1 0 52.40968048983337 0 0 -1 0 0 0 -1 forward_v I I I I #
coedge $-1 $287 $288 $289 $290 reversed $111 $-1 #
coedge $-1 $291 $113 $115 $194 forward $69 $-1 #
coedge $-1 $113 $291 $287 $292 forward $69 $-1 #
coedge $-1 $289 $116 $113 $191 forward $196 $-1 #
edge $-1 $198 -31.621941389262499 $293 -17.658022840432164 $190 $294 forward 7 unknown #
coedge $-1 $295 $296 $114 $193 forward $185 $-1 #
edge $-1 $297 -80.450670090235647 $197 -76.036974495357285 $192 $298 forward 7 unknown #
edge $-1 $198 99.36373324759316 $297 104.81936097966673 $115 $299 forward 7 unknown #
coedge $-1 $116 $289 $295 $300 forward $196 $-1 #
loop $-1 $-1 $289 $184 #
vertex $-1 $193 $301 #
vertex $-1 $117 $302 #
straight-curve $-1 -56.261923504109831 59.418380368078658 21.338307029841545 0 -1 0 I I #
coedge $-1 $200 $200 $-1 $303 reversed $120 $-1 #
edge $-1 $304 0 $304 6.2831853071796004 $121 $305 forward 7 unknown #
vertex $-1 $124 $306 #
ellipse-curve $-1 -49.279964229694663 50.806311759104112 19.131459232402364 0 0.80901700255871778 0.5877852410284794 1 0 0 1 I I #
face $-1 $-1 $307 $26 $-1 $308 reversed single #
loop $-1 $-1 $131 $125 #
plane-surface $-1 0 0 21.338307029841548 0 0 1 1 0 0 forward_v I I I I #
coedge $-1 $309 $310 $311 $312 reversed $126 $-1 #
coedge $-1 $313 $128 $130 $214 forward $78 $-1 #
coedge $-1 $128 $313 $309 $314 forward $78 $-1 #
coedge $-1 $311 $131 $128 $211 forward $205 $-1 #
edge $-1 $217 17.658022840432164 $315 31.621941389262499 $210 $316 forward 7 unknown #
coedge $-1 $317 $318 $129 $213 forward $307 $-1 #
edge $-1 $319 -38.050347475290565 $216 -33.636651880412174 $212 $320 forward 7 unknown #
edge $-1 $217 -5.4556277320735758 $319 1.2799082646115467e-014 $130 $321 forward 7 unknown #
coedge $-1 $131 $311 $317 $322 forward $205 $-1 #
vertex $-1 $213 $323 #
vertex $-1 $132 $324 #
straight-curve $-1 -42.298004955279495 -90.224017047020951 21.338307029841545 0 1 0 I I #
coedge $-1 $219 $219 $-1 $325 reversed $135 $-1 #
edge $-1 $326 0 $326 6.2831853071796004 $136 $327 forward 7 unknown #
vertex $-1 $139 $328 #
ellipse-curve $-1 -49.279964229694663 -50.806311759104105 19.131459232402353 0 -0.80901700255871778 0.5877852410284794 1 0 0 1 I I #
face $-1 $-1 $151 $21 $-1 $329 reversed single #
loop $-1 $-1 $330 $140 #
plane-surface $-1 -79.132053590502636 0 0 1 0 0 0 0 -1 forward_v I I I I #
coedge $-1 $331 $231 $330 $332 forward $141 $-1 #
coedge $-1 $333 $143 $331 $334 forward $87 $-1 #
coedge $-1 $143 $333 $149 $240 forward $87 $-1 #
coedge $-1 $145 $144 $335 $336 forward $57 $-1 #
edge $-1 $152 -79.132053590502636 $337 79.132053590502636 $150 $338 forward 7 unknown #
coedge $-1 $226 $235 $145 $232 reversed $141 $-1 #
edge $-1 $339 -79.132053590502636 $233 79.132053590502636 $231 $340 forward 7 unknown #
vertex $-1 $146 $341 #
straight-curve $-1 79.132053590502636 0 21.338307029841548 0 1 0 I I #
coedge $-1 $231 $331 $147 $236 reversed $141 $-1 #
edge $-1 $233 -21.338307029841548 $237 21.338307029841548 $147 $342 forward 7 unknown #
vertex $-1 $236 $343 #
straight-curve $-1 79.132053590502636 0 -21.338307029841548 0 -1 0 I I #
coedge $-1 $150 $149 $344 $345 reversed $151 $-1 #
edge $-1 $346 -79.132053590502636 $153 79.132053590502636 $149 $347 forward 7 unknown #
point $-1 79.132053590502636 52.40968048983337 21.338307029841548 #
point $-1 79.132053590502636 52.40968048983337 -21.338307029841548 #
face $-1 $-1 $256 $22 $-1 $348 reversed single #
loop $-1 $-1 $349 $155 #
plane-surface $-1 -102.00218367689544 0 -13.10137179123922 1 0 0 0 0 -1 forward_v I I I I #
coedge $-1 $350 $248 $161 $253 reversed $156 $-1 #
coedge $-1 $159 $158 $349 $351 reversed $61 $-1 #
coedge $-1 $246 $352 $158 $249 forward $156 $-1 #
edge $-1 $353 -11.435065043196403 $251 11.435065043196403 $158 $354 forward 7 unknown #
edge $-1 $166 -11.435065043196403 $355 11.435065043196403 $159 $356 forward 7 unknown #
vertex $-1 $160 $357 #
straight-curve $-1 -79.132053590502636 52.40968048983337 0 0 0 -1 I I #
edge $-1 $257 -52.40968048983337 $251 52.40968048983337 $246 $358 forward 7 unknown #
coedge $-1 $359 $162 $165 $260 reversed $256 $-1 #
coedge $-1 $162 $359 $350 $360 reversed $256 $-1 #
loop $-1 $-1 $162 $243 #
vertex $-1 $163 $361 #
straight-curve $-1 -79.132053590502636 -52.40968048983337 0 0 0 1 I I #
coedge $-1 $165 $164 $362 $363 forward $95 $-1 #
edge $-1 $364 -11.435065043196403 $167 11.435065043196403 $254 $365 forward 7 unknown #
point $-1 -79.132053590502636 52.40968048983337 -9.9819948417582189 #
point $-1 -79.132053590502636 -52.40968048983337 -9.9819948417582189 #
face $-1 $-1 $279 $23 $-1 $366 reversed single #
loop $-1 $-1 $367 $169 #
plane-surface $-1 102.00218367689544 0 -13.10137179123922 -1 0 0 0 0 1 forward_v I I I I #
coedge $-1 $270 $368 $369 $370 forward $170 $-1 #
coedge $-1 $367 $371 $172 $268 reversed $264 $-1 #
edge $-1 $372 -52.40968048983337 $373 52.40968048983337 $267 $374 forward 7 unknown #
coedge $-1 $174 $173 $367 $375 reversed $65 $-1 #
coedge $-1 $275 $266 $173 $271 forward $170 $-1 #
edge $-1 $376 -11.435065043196403 $273 11.435065043196403 $173 $377 forward 7 unknown #
edge $-1 $181 -11.435065043196403 $372 11.435065043196403 $174 $378 forward 7 unknown #
vertex $-1 $175 $379 #
straight-curve $-1 79.132053590502636 -52.40968048983337 0 0 0 -1 I I #
coedge $-1 $368 $270 $176 $276 reversed $170 $-1 #
edge $-1 $280 -52.40968048983337 $273 52.40968048983337 $275 $380 forward 7 unknown #
coedge $-1 $381 $177 $180 $282 reversed $279 $-1 #
coedge $-1 $177 $381 $368 $382 reversed $279 $-1 #
loop $-1 $-1 $177 $263 #
vertex $-1 $178 $383 #
straight-curve $-1 79.132053590502636 52.40968048983337 0 0 0 1 I I #
edge $-1 $373 -11.435065043196403 $182 11.435065043196403 $277 $384 forward 7 unknown #
point $-1 79.132053590502636 -52.40968048983337 -9.9819948417582189 #
point $-1 79.132053590502636 52.40968048983337 -9.9819948417582189 #
plane-surface $-1 0 0 21.338307029841548 0 0 1 1 0 0 forward_v I I I I #
coedge $-1 $296 $295 $288 $385 forward $185 $-1 #
coedge $-1 $288 $187 $189 $292 reversed $111 $-1 #
coedge $-1 $187 $287 $286 $385 reversed $111 $-1 #
coedge $-1 $195 $190 $187 $290 forward $196 $-1 #
edge $-1 $293 -10.215437339703804 $386 -7.0086998782452881 $289 $387 forward 7 unknown #
coedge $-1 $189 $188 $296 $388 reversed $69 $-1 #
edge $-1 $389 -104.81936097966673 $293 -99.36373324759316 $287 $390 forward 7 unknown #
vertex $-1 $191 $391 #
straight-curve $-1 -24.639982114847331 49.202943028374861 21.338307029841545 1 0 0 I I #
coedge $-1 $286 $192 $195 $300 reversed $185 $-1 #
coedge $-1 $192 $286 $291 $388 forward $185 $-1 #
vertex $-1 $193 $392 #
straight-curve $-1 -56.261923504109831 52.40968048983337 97.37528152519883 0 0 1 I I #
straight-curve $-1 -56.261923504109831 -9.2015928680512218 101.72525666485338 0 0.5877852410284794 -0.80901700255871778 I I #
edge $-1 $386 42.298004955279495 $197 56.261923504109831 $295 $393 forward 7 unknown #
point $-1 -56.261923504109831 52.40968048983337 21.338307029841548 #
point $-1 -56.261923504109831 49.202943028374854 21.338307029841545 #
edge $-1 $394 1 $394 0 $200 $-1 forward 7 unknown #
vertex $-1 $201 $395 #
ellipse-curve $-1 -49.279964229694663 49.396661295403206 18.107288250888033 0 0.80901700255871778 0.5877852410284794 1 0 0 1 I I #
point $-1 -48.279964229694663 50.806311759104112 19.131459232402364 #
loop $-1 $-1 $212 $204 #
plane-surface $-1 0 -52.40968048983337 0 0 1 0 0 0 1 forward_v I I I I #
coedge $-1 $310 $207 $209 $314 reversed $126 $-1 #
coedge $-1 $207 $309 $396 $397 reversed $126 $-1 #
coedge $-1 $215 $210 $207 $312 forward $205 $-1 #
edge $-1 $315 -41.021074018646111 $398 -37.81433655718758 $311 $399 forward 7 unknown #
coedge $-1 $209 $208 $318 $400 reversed $78 $-1 #
edge $-1 $401 -1.2799082646115467e-014 $315 5.4556277320735758 $309 $402 forward 7 unknown #
vertex $-1 $211 $403 #
straight-curve $-1 -24.639982114847331 -49.202943028374833 21.338307029841548 -1 0 0 I I #
coedge $-1 $396 $212 $215 $322 reversed $307 $-1 #
coedge $-1 $212 $396 $313 $400 forward $307 $-1 #
vertex $-1 $213 $404 #
straight-curve $-1 -42.298004955279495 -52.409680489833377 54.974958910253726 0 0 1 I I #
straight-curve $-1 -42.298004955279495 -52.409680489833363 16.924611434963168 0 -0.5877852410284794 -0.80901700255871778 I I #
edge $-1 $398 -56.261923504109831 $216 -42.298004955279495 $317 $405 forward 7 unknown #
point $-1 -42.298004955279495 -52.40968048983337 21.338307029841548 #
point $-1 -42.298004955279495 -49.20294302837484 21.338307029841548 #
edge $-1 $406 1 $406 0 $219 $-1 forward 7 unknown #
vertex $-1 $220 $407 #
ellipse-curve $-1 -49.279964229694663 -49.396661295403206 18.107288250888026 0 -0.80901700255871778 0.5877852410284794 1 0 0 1 I I #
point $-1 -48.279964229694663 -50.806311759104112 19.131459232402356 #
plane-surface $-1 0 52.40968048983337 0 0 -1 0 0 0 -1 forward_v I I I I #
coedge $-1 $335 $408 $226 $332 reversed $224 $-1 #
coedge $-1 $235 $226 $227 $334 reversed $141 $-1 #
edge $-1 $339 -21.338307029841548 $409 21.338307029841548 $330 $410 forward 7 unknown #
coedge $-1 $228 $227 $408 $411 forward $87 $-1 #
edge $-1 $237 -79.132053590502636 $409 79.132053590502636 $331 $412 forward 7 unknown #
coedge $-1 $344 $330 $229 $336 reversed $224 $-1 #
edge $-1 $337 -52.40968048983337 $339 52.40968048983337 $335 $413 forward 7 unknown #
vertex $-1 $230 $414 #
straight-curve $-1 0 52.40968048983337 21.338307029841548 -1 0 0 I I #
vertex $-1 $336 $415 #
straight-curve $-1 0 -52.40968048983337 21.338307029841548 1 0 0 I I #
point $-1 79.132053590502636 -52.40968048983337 21.338307029841548 #
straight-curve $-1 79.132053590502636 -52.40968048983337 0 0 0 -1 I I #
point $-1 79.132053590502636 -52.40968048983337 -21.338307029841548 #
coedge $-1 $408 $335 $239 $345 forward $224 $-1 #
edge $-1 $337 -21.338307029841548 $346 21.338307029841548 $239 $416 forward 7 unknown #
vertex $-1 $240 $417 #
straight-curve $-1 0 52.40968048983337 -21.338307029841548 1 0 0 I I #
plane-surface $-1 0 -52.40968048983337 0 0 1 0 0 0 1 forward_v I I I I #
coedge $-1 $418 $362 $247 $351 forward $244 $-1 #
coedge $-1 $352 $246 $255 $360 forward $156 $-1 #
edge $-1 $355 -3.1193769494810013 $353 3.1193769494810013 $247 $419 forward 7 unknown #
coedge $-1 $248 $350 $418 $420 forward $156 $-1 #
vertex $-1 $249 $421 #
straight-curve $-1 -90.567118633699039 52.40968048983337 -16.220748740720222 1 0 0 I I #
vertex $-1 $250 $422 #
straight-curve $-1 -90.567118633699039 52.40968048983337 -9.9819948417582189 -1 0 0 I I #
point $-1 -79.132053590502636 52.40968048983337 -16.220748740720222 #
straight-curve $-1 -79.132053590502636 0 -16.220748740720222 0 1 0 I I #
coedge $-1 $255 $254 $423 $424 forward $256 $-1 #
edge $-1 $257 -11.435065043196403 $425 11.435065043196403 $255 $426 forward 7 unknown #
point $-1 -79.132053590502636 -52.40968048983337 -16.220748740720222 #
coedge $-1 $349 $423 $259 $363 reversed $244 $-1 #
edge $-1 $355 -52.40968048983337 $364 52.40968048983337 $362 $427 forward 7 unknown #
vertex $-1 $363 $428 #
straight-curve $-1 -90.567118633699039 -52.40968048983337 -9.9819948417582189 1 0 0 I I #
plane-surface $-1 0 52.40968048983337 0 0 -1 0 0 0 -1 forward_v I I I I #
coedge $-1 $369 $267 $269 $375 forward $264 $-1 #
coedge $-1 $266 $275 $278 $382 forward $170 $-1 #
coedge $-1 $371 $367 $266 $370 reversed $264 $-1 #
edge $-1 $429 -52.40968048983337 $376 52.40968048983337 $369 $430 forward 7 unknown #
coedge $-1 $267 $369 $381 $431 reversed $264 $-1 #
vertex $-1 $268 $432 #
vertex $-1 $268 $433 #
straight-curve $-1 102.00218367689544 0 -9.9819948417582189 0 1 0 I I #
edge $-1 $372 -3.1193769494810013 $376 3.1193769494810013 $367 $434 forward 7 unknown #
vertex $-1 $375 $435 #
straight-curve $-1 90.567118633699039 -52.40968048983337 -16.220748740720222 -1 0 0 I I #
straight-curve $-1 90.567118633699039 -52.40968048983337 -9.9819948417582189 1 0 0 I I #
point $-1 79.132053590502636 -52.40968048983337 -16.220748740720222 #
straight-curve $-1 79.132053590502636 0 -16.220748740720222 0 -1 0 I I #
coedge $-1 $278 $277 $371 $431 forward $279 $-1 #
edge $-1 $280 -11.435065043196403 $429 11.435065043196403 $278 $436 forward 7 unknown #
point $-1 79.132053590502636 52.40968048983337 -16.220748740720222 #
straight-curve $-1 90.567118633699039 52.40968048983337 -9.9819948417582189 -1 0 0 I I #
edge $-1 $386 76.036974495357285 $389 80.450670090235647 $286 $437 forward 7 unknown #
vertex $-1 $300 $438 #
straight-curve $-1 -42.298004955279495 59.418380368078658 21.338307029841545 0 1 0 I I #
edge $-1 $389 17.658022840432164 $297 31.621941389262499 $296 $439 forward 7 unknown #
vertex $-1 $388 $440 #
straight-curve $-1 -42.298004955279495 -9.2015928680512218 101.72525666485338 0 -0.5877852410284794 0.80901700255871778 I I #
point $-1 -42.298004955279495 49.202943028374854 21.338307029841545 #
point $-1 -56.261923504109831 52.40968048983337 16.924611434963182 #
straight-curve $-1 0 52.40968048983337 21.338307029841548 -1 0 0 I I #
vertex $-1 $303 $441 #
point $-1 -48.279964229694663 49.396661295403206 18.107288250888033 #
coedge $-1 $318 $317 $310 $397 forward $307 $-1 #
edge $-1 $398 33.636651880412174 $401 38.050347475290565 $396 $442 forward 7 unknown #
vertex $-1 $322 $443 #
straight-curve $-1 -56.261923504109831 -90.224017047020951 21.338307029841545 0 -1 0 I I #
edge $-1 $401 -31.621941389262499 $319 -17.658022840432164 $318 $444 forward 7 unknown #
vertex $-1 $400 $445 #
straight-curve $-1 -56.261923504109831 -52.409680489833363 16.924611434963168 0 0.5877852410284794 0.80901700255871778 I I #
point $-1 -56.261923504109831 -49.20294302837484 21.338307029841548 #
point $-1 -42.298004955279495 -52.40968048983337 16.924611434963158 #
straight-curve $-1 0 -52.40968048983337 21.338307029841548 1 0 0 I I #
vertex $-1 $325 $446 #
point $-1 -48.279964229694663 -49.396661295403206 18.107288250888026 #
coedge $-1 $330 $344 $333 $411 reversed $224 $-1 #
vertex $-1 $411 $447 #
straight-curve $-1 -79.132053590502636 -52.40968048983337 0 0 0 -1 I I #
edge $-1 $409 -52.40968048983337 $346 52.40968048983337 $408 $448 forward 7 unknown #
straight-curve $-1 0 -52.40968048983337 -21.338307029841548 -1 0 0 I I #
straight-curve $-1 -79.132053590502636 0 21.338307029841548 0 -1 0 I I #
point $-1 -79.132053590502636 52.40968048983337 21.338307029841548 #
point $-1 -79.132053590502636 -52.40968048983337 21.338307029841548 #
straight-curve $-1 -79.132053590502636 52.40968048983337 0 0 0 -1 I I #
point $-1 -79.132053590502636 52.40968048983337 -21.338307029841548 #
coedge $-1 $423 $349 $352 $420 reversed $244 $-1 #
straight-curve $-1 -102.00218367689544 52.40968048983337 -13.10137179123922 0 0 -1 I I #
edge $-1 $425 -52.40968048983337 $353 52.40968048983337 $418 $449 forward 7 unknown #
point $-1 -102.00218367689544 52.40968048983337 -16.220748740720222 #
point $-1 -102.00218367689544 52.40968048983337 -9.9819948417582189 #
coedge $-1 $362 $418 $359 $424 reversed $244 $-1 #
edge $-1 $364 -3.1193769494810013 $425 3.1193769494810013 $423 $450 forward 7 unknown #
vertex $-1 $420 $451 #
straight-curve $-1 -90.567118633699039 -52.40968048983337 -16.220748740720222 -1 0 0 I I #
straight-curve $-1 -102.00218367689544 0 -9.9819948417582189 0 -1 0 I I #
point $-1 -102.00218367689544 -52.40968048983337 -9.9819948417582189 #
vertex $-1 $370 $452 #
straight-curve $-1 102.00218367689544 0 -16.220748740720222 0 -1 0 I I #
edge $-1 $373 -3.1193769494810013 $429 3.1193769494810013 $371 $453 forward 7 unknown #
point $-1 102.00218367689544 -52.40968048983337 -9.9819948417582189 #
point $-1 102.00218367689544 52.40968048983337 -9.9819948417582189 #
straight-curve $-1 102.00218367689544 -52.40968048983337 -13.10137179123922 0 0 -1 I I #
point $-1 102.00218367689544 -52.40968048983337 -16.220748740720222 #
straight-curve $-1 90.567118633699039 52.40968048983337 -16.220748740720222 1 0 0 I I #
straight-curve $-1 -42.298004955279495 52.40968048983337 97.37528152519883 0 0 -1 I I #
point $-1 -42.298004955279495 52.40968048983337 21.338307029841548 #
straight-curve $-1 -24.639982114847331 52.40968048983337 16.924611434963182 -1 0 0 I I #
point $-1 -42.298004955279495 52.40968048983337 16.924611434963182 #
point $-1 -49.279964229694663 48.587644292844487 17.519503009859555 #
straight-curve $-1 -56.261923504109831 -52.409680489833377 54.974958910253726 0 0 -1 I I #
point $-1 -56.261923504109831 -52.40968048983337 21.338307029841548 #
straight-curve $-1 -24.639982114847331 -52.40968048983337 16.924611434963161 1 0 0 I I #
point $-1 -56.261923504109831 -52.40968048983337 16.924611434963158 #
point $-1 -49.279964229694663 -48.587644292844487 17.519503009859548 #
point $-1 -79.132053590502636 -52.40968048983337 -21.338307029841548 #
straight-curve $-1 -79.132053590502636 0 -21.338307029841548 0 1 0 I I #
straight-curve $-1 -102.00218367689544 0 -16.220748740720222 0 1 0 I I #
straight-curve $-1 -102.00218367689544 -52.40968048983337 -13.10137179123922 0 0 -1 I I #
point $-1 -102.00218367689544 -52.40968048983337 -16.220748740720222 #
point $-1 102.00218367689544 52.40968048983337 -16.220748740720222 #
straight-curve $-1 102.00218367689544 52.40968048983337 -13.10137179123922 0 0 -1 I I #
End-of-ACIS-data 