500 0 10 0           
7 Unknown 11 ACIS 5.0 NT 24 Thu Mar 25 21:58:38 1999 
-1 9.9999999999999995e-007 1e-010 
body $-1 $10 $-1 $11 #
body $-1 $12 $-1 $13 #
body $-1 $14 $-1 $15 #
body $-1 $16 $-1 $17 #
body $-1 $18 $-1 $19 #
body $-1 $20 $-1 $21 #
body $-1 $22 $-1 $23 #
body $-1 $24 $-1 $25 #
body $-1 $26 $-1 $27 #
body $-1 $28 $-1 $29 #
lump $-1 $-1 $30 $0 #
transform $-1 1 0 0 0 1 0 0 0 1 78.981902523880734 45.544695827775705 12.038271922812056 1 rotate no_reflect no_shear #
lump $-1 $-1 $31 $1 #
transform $-1 1 0 0 0 1 0 0 0 1 78.981902523880734 45.544695827775705 12.038271922812056 1 rotate no_reflect no_shear #
lump $-1 $-1 $32 $2 #
transform $-1 1 0 0 0 1 0 0 0 1 78.981902523880734 45.544695827775705 12.038271922812056 1 rotate no_reflect no_shear #
lump $-1 $-1 $33 $3 #
transform $-1 1 0 0 0 1 0 0 0 1 78.981902523880734 45.544695827775705 12.038271922812056 1 rotate no_reflect no_shear #
lump $-1 $-1 $34 $4 #
transform $-1 1 0 0 0 1 0 0 0 1 78.981902523880734 45.544695827775705 12.038271922812056 1 rotate no_reflect no_shear #
lump $-1 $-1 $35 $5 #
transform $-1 1 0 0 0 1 0 0 0 1 78.981902523880734 45.544695827775705 12.038271922812056 1 rotate no_reflect no_shear #
lump $-1 $-1 $36 $6 #
transform $-1 1 0 0 0 1 0 0 0 1 78.981902523880734 45.544695827775705 12.038271922812056 1 rotate no_reflect no_shear #
lump $-1 $-1 $37 $7 #
transform $-1 1 0 0 0 1 0 0 0 1 78.981902523880734 45.544695827775705 12.038271922812056 1 rotate no_reflect no_shear #
lump $-1 $-1 $38 $8 #
transform $-1 1 0 0 0 1 0 0 0 1 78.981902523880734 45.544695827775705 12.038271922812056 1 rotate no_reflect no_shear #
lump $-1 $-1 $39 $9 #
transform $-1 1 0 0 0 1 0 0 0 1 78.981902523880734 45.544695827775705 12.038271922812056 1 rotate no_reflect no_shear #
shell $-1 $-1 $-1 $40 $-1 $10 #
shell $-1 $-1 $-1 $41 $-1 $12 #
shell $-1 $-1 $-1 $42 $-1 $14 #
shell $-1 $-1 $-1 $43 $-1 $16 #
shell $-1 $-1 $-1 $44 $-1 $18 #
shell $-1 $-1 $-1 $45 $-1 $20 #
shell $-1 $-1 $-1 $46 $-1 $22 #
shell $-1 $-1 $-1 $47 $-1 $24 #
shell $-1 $-1 $-1 $48 $-1 $26 #
shell $-1 $-1 $-1 $49 $-1 $28 #
face $-1 $50 $51 $30 $-1 $52 forward single #
face $-1 $53 $54 $31 $-1 $55 forward single #
face $-1 $56 $57 $32 $-1 $58 reversed single #
face $-1 $59 $60 $33 $-1 $61 forward single #
face $-1 $62 $63 $34 $-1 $64 reversed single #
face $-1 $65 $66 $35 $-1 $67 forward single #
face $-1 $68 $69 $36 $-1 $70 reversed single #
face $-1 $71 $72 $37 $-1 $73 forward single #
face $-1 $74 $75 $38 $-1 $76 reversed single #
face $-1 $77 $78 $39 $-1 $79 forward single #
face $-1 $80 $81 $30 $-1 $82 reversed single #
loop $-1 $-1 $83 $40 #
plane-surface $-1 0 0 12.038271922812056 0 0 1 1 0 0 forward_v I I I I #
face $-1 $84 $85 $31 $-1 $86 reversed single #
loop $-1 $-1 $87 $41 #
plane-surface $-1 -78.981902523880734 0 0 1 0 0 0 0 -1 forward_v I I I I #
face $-1 $88 $89 $32 $-1 $90 reversed single #
loop $-1 $-1 $91 $42 #
plane-surface $-1 -37.64930198405591 -180.94610544682754 86.191097305756074 -1 0 0 0 -0.85716730853699208 0.51503806187062418 forward_v I I I I #
face $-1 $92 $93 $33 $-1 $94 forward single #
loop $-1 $95 $96 $43 #
cone-surface $-1 -47.705948956644455 -42.488769361130068 7.9003540013624551 0 0.85716730853699208 -0.51503806187062418 2 0 0 1 I I 0 1 2 forward I I I I #
face $-1 $97 $98 $34 $-1 $99 reversed single #
loop $-1 $-1 $100 $44 #
plane-surface $-1 -2.0988165251705695 -180.94610544682754 86.191097305756074 -1 0 0 0 -0.85716730853699208 0.51503806187062418 forward_v I I I I #
face $-1 $101 $102 $35 $-1 $103 forward single #
loop $-1 $104 $105 $45 #
cone-surface $-1 -12.155463497759115 -42.488769361130068 7.9003540013624551 0 0.85716730853699208 -0.51503806187062418 2 0 0 1 I I 0 1 2 forward I I I I #
face $-1 $106 $107 $36 $-1 $108 reversed single #
loop $-1 $-1 $109 $46 #
plane-surface $-1 33.451668933714764 -180.94610544682754 86.191097305756074 -1 0 0 0 -0.85716730853699208 0.51503806187062418 forward_v I I I I #
face $-1 $110 $111 $37 $-1 $112 forward single #
loop $-1 $113 $114 $47 #
cone-surface $-1 23.395021961126218 -42.488769361130068 7.9003540013624551 0 0.85716730853699208 -0.51503806187062418 2 0 0 1 I I 0 1 2 forward I I I I #
face $-1 $115 $116 $38 $-1 $117 reversed single #
loop $-1 $-1 $118 $48 #
plane-surface $-1 69.00215439260009 -180.94610544682754 86.191097305756074 -1 0 0 0 -0.85716730853699208 0.51503806187062418 forward_v I I I I #
face $-1 $119 $120 $39 $-1 $121 forward single #
loop $-1 $122 $123 $49 #
cone-surface $-1 58.945507420011552 -42.488769361130068 7.9003540013624551 0 0.85716730853699208 -0.51503806187062418 2 0 0 1 I I 0 1 2 forward I I I I #
face $-1 $124 $125 $30 $-1 $126 reversed single #
loop $-1 $-1 $127 $50 #
plane-surface $-1 0 0 -12.038271922812056 0 0 1 1 0 0 forward_v I I I I #
coedge $-1 $128 $129 $130 $131 forward $51 $-1 #
face $-1 $132 $133 $31 $-1 $134 forward single #
loop $-1 $-1 $135 $53 #
plane-surface $-1 0 45.544695827775705 0 0 -1 0 0 0 -1 forward_v I I I I #
coedge $-1 $136 $137 $138 $139 forward $54 $-1 #
face $-1 $140 $141 $32 $-1 $142 reversed single #
loop $-1 $-1 $143 $56 #
plane-surface $-1 -47.705948956644455 -45.544695827775712 4.8337253082478924 0 -0.85716730853699208 0.51503806187062418 1 0 0 forward_v I I I I #
coedge $-1 $144 $145 $146 $147 reversed $57 $-1 #
face $-1 $-1 $148 $33 $-1 $149 forward single #
loop $-1 $150 $151 $59 #
cone-surface $-1 -47.705948956644455 -40.740139680684642 6.8496713253243104 0 0.85716730853699208 -0.51503806187062418 1 0 0 1 I I -0.70710678118654746 0.70710678118654746 1 forward I I I I #
loop $-1 $-1 $152 $43 #
coedge $-1 $96 $96 $153 $154 reversed $60 $-1 #
face $-1 $155 $156 $34 $-1 $157 reversed single #
loop $-1 $-1 $158 $62 #
plane-surface $-1 -12.155463497759115 -45.544695827775712 4.8337253082478924 0 -0.85716730853699208 0.51503806187062418 1 0 0 forward_v I I I I #
coedge $-1 $159 $160 $161 $162 reversed $63 $-1 #
face $-1 $-1 $163 $35 $-1 $164 forward single #
loop $-1 $165 $166 $65 #
cone-surface $-1 -12.155463497759115 -40.740139680684642 6.8496713253243104 0 0.85716730853699208 -0.51503806187062418 1 0 0 1 I I -0.70710678118654746 0.70710678118654746 1 forward I I I I #
loop $-1 $-1 $167 $45 #
coedge $-1 $105 $105 $168 $169 reversed $66 $-1 #
face $-1 $170 $171 $36 $-1 $172 reversed single #
loop $-1 $-1 $173 $68 #
plane-surface $-1 23.395021961126218 -45.544695827775712 4.8337253082478924 0 -0.85716730853699208 0.51503806187062418 1 0 0 forward_v I I I I #
coedge $-1 $174 $175 $176 $177 reversed $69 $-1 #
face $-1 $-1 $178 $37 $-1 $179 forward single #
loop $-1 $180 $181 $71 #
cone-surface $-1 23.395021961126218 -40.740139680684642 6.8496713253243104 0 0.85716730853699208 -0.51503806187062418 1 0 0 1 I I -0.70710678118654746 0.70710678118654746 1 forward I I I I #
loop $-1 $-1 $182 $47 #
coedge $-1 $114 $114 $183 $184 reversed $72 $-1 #
face $-1 $185 $186 $38 $-1 $187 reversed single #
loop $-1 $-1 $188 $74 #
plane-surface $-1 58.945507420011552 -45.544695827775712 4.8337253082478924 0 -0.85716730853699208 0.51503806187062418 1 0 0 forward_v I I I I #
coedge $-1 $189 $190 $191 $192 reversed $75 $-1 #
face $-1 $-1 $193 $39 $-1 $194 forward single #
loop $-1 $195 $196 $77 #
cone-surface $-1 58.945507420011552 -40.740139680684642 6.8496713253243104 0 0.85716730853699208 -0.51503806187062418 1 0 0 1 I I -0.70710678118654746 0.70710678118654746 1 forward I I I I #
loop $-1 $-1 $197 $49 #
coedge $-1 $123 $123 $198 $199 reversed $78 $-1 #
face $-1 $200 $201 $30 $-1 $202 reversed single #
loop $-1 $-1 $203 $80 #
plane-surface $-1 0 -45.544695827775705 0 0 1 0 0 0 1 forward_v I I I I #
coedge $-1 $204 $205 $206 $207 forward $81 $-1 #
coedge $-1 $208 $83 $209 $210 forward $51 $-1 #
coedge $-1 $83 $208 $211 $212 forward $51 $-1 #
coedge $-1 $213 $214 $83 $131 reversed $215 $-1 #
edge $-1 $216 -45.544695827775705 $217 45.544695827775705 $130 $218 forward 7 unknown #
face $-1 $219 $220 $31 $-1 $221 reversed single #
loop $-1 $-1 $138 $84 #
plane-surface $-1 -84.6016817555643 0 1.8558278693257555 0 0 1 1 0 0 forward_v I I I I #
coedge $-1 $222 $223 $137 $224 forward $85 $-1 #
coedge $-1 $225 $87 $226 $227 reversed $54 $-1 #
coedge $-1 $87 $225 $135 $224 reversed $54 $-1 #
coedge $-1 $228 $229 $87 $139 reversed $133 $-1 #
edge $-1 $230 -45.544695827775705 $231 45.544695827775705 $138 $232 forward 7 unknown #
face $-1 $233 $234 $32 $-1 $235 reversed single #
loop $-1 $-1 $236 $88 #
plane-surface $-1 -57.762595929233001 -180.94610544682754 86.191097305756074 1 0 0 0 0.85716730853699208 -0.51503806187062418 forward_v I I I I #
coedge $-1 $237 $238 $239 $240 reversed $89 $-1 #
coedge $-1 $145 $91 $241 $242 reversed $57 $-1 #
coedge $-1 $91 $144 $237 $243 reversed $57 $-1 #
coedge $-1 $239 $244 $91 $147 forward $245 $-1 #
edge $-1 $246 44.928356895638068 $247 49.257285085112471 $146 $248 forward 7 unknown #
loop $-1 $-1 $153 $92 #
plane-surface $-1 -47.705948956644455 -45.544695827775712 4.8337253082478924 0 -0.85716730853699208 0.51503806187062418 1 0 0 forward_v I I I I #
loop $-1 $-1 $249 $59 #
coedge $-1 $151 $151 $152 $250 reversed $93 $-1 #
coedge $-1 $152 $152 $151 $250 forward $95 $-1 #
coedge $-1 $153 $153 $96 $154 forward $148 $-1 #
edge $-1 $251 3.0714775648067455e-016 $251 6.2831853071796004 $153 $252 forward 7 unknown #
face $-1 $253 $254 $34 $-1 $255 reversed single #
loop $-1 $-1 $256 $97 #
plane-surface $-1 -22.21211047034766 -180.94610544682754 86.191097305756074 1 0 0 0 0.85716730853699208 -0.51503806187062418 forward_v I I I I #
coedge $-1 $257 $258 $259 $260 reversed $98 $-1 #
coedge $-1 $160 $100 $261 $262 reversed $63 $-1 #
coedge $-1 $100 $159 $257 $263 reversed $63 $-1 #
coedge $-1 $259 $264 $100 $162 forward $265 $-1 #
edge $-1 $266 44.928356895638068 $267 49.257285085112471 $161 $268 forward 7 unknown #
loop $-1 $-1 $168 $101 #
plane-surface $-1 -12.155463497759115 -45.544695827775712 4.8337253082478924 0 -0.85716730853699208 0.51503806187062418 1 0 0 forward_v I I I I #
loop $-1 $-1 $269 $65 #
coedge $-1 $166 $166 $167 $270 reversed $102 $-1 #
coedge $-1 $167 $167 $166 $270 forward $104 $-1 #
coedge $-1 $168 $168 $105 $169 forward $163 $-1 #
edge $-1 $271 3.0714775648067455e-016 $271 6.2831853071796004 $168 $272 forward 7 unknown #
face $-1 $273 $274 $36 $-1 $275 reversed single #
loop $-1 $-1 $276 $106 #
plane-surface $-1 13.338374988537673 -180.94610544682754 86.191097305756074 1 0 0 0 0.85716730853699208 -0.51503806187062418 forward_v I I I I #
coedge $-1 $277 $278 $279 $280 reversed $107 $-1 #
coedge $-1 $175 $109 $281 $282 reversed $69 $-1 #
coedge $-1 $109 $174 $277 $283 reversed $69 $-1 #
coedge $-1 $279 $284 $109 $177 forward $285 $-1 #
edge $-1 $286 44.928356895638068 $287 49.257285085112471 $176 $288 forward 7 unknown #
loop $-1 $-1 $183 $110 #
plane-surface $-1 23.395021961126218 -45.544695827775712 4.8337253082478924 0 -0.85716730853699208 0.51503806187062418 1 0 0 forward_v I I I I #
loop $-1 $-1 $289 $71 #
coedge $-1 $181 $181 $182 $290 reversed $111 $-1 #
coedge $-1 $182 $182 $181 $290 forward $113 $-1 #
coedge $-1 $183 $183 $114 $184 forward $178 $-1 #
edge $-1 $291 3.0714775648067455e-016 $291 6.2831853071796004 $183 $292 forward 7 unknown #
face $-1 $293 $294 $38 $-1 $295 reversed single #
loop $-1 $-1 $296 $115 #
plane-surface $-1 48.888860447423006 -180.94610544682754 86.191097305756074 1 0 0 0 0.85716730853699208 -0.51503806187062418 forward_v I I I I #
coedge $-1 $297 $298 $299 $300 reversed $116 $-1 #
coedge $-1 $190 $118 $301 $302 reversed $75 $-1 #
coedge $-1 $118 $189 $297 $303 reversed $75 $-1 #
coedge $-1 $299 $304 $118 $192 forward $305 $-1 #
edge $-1 $306 44.928356895638068 $307 49.257285085112471 $191 $308 forward 7 unknown #
loop $-1 $-1 $198 $119 #
plane-surface $-1 58.945507420011552 -45.544695827775712 4.8337253082478924 0 -0.85716730853699208 0.51503806187062418 1 0 0 forward_v I I I I #
loop $-1 $-1 $309 $77 #
coedge $-1 $196 $196 $197 $310 reversed $120 $-1 #
coedge $-1 $197 $197 $196 $310 forward $122 $-1 #
coedge $-1 $198 $198 $123 $199 forward $193 $-1 #
edge $-1 $311 3.0714775648067455e-016 $311 6.2831853071796004 $198 $312 forward 7 unknown #
face $-1 $313 $314 $30 $-1 $315 reversed single #
loop $-1 $-1 $316 $124 #
plane-surface $-1 -78.981902523880734 0 0 1 0 0 0 0 -1 forward_v I I I I #
coedge $-1 $317 $211 $318 $319 forward $125 $-1 #
coedge $-1 $320 $127 $317 $321 forward $81 $-1 #
coedge $-1 $127 $320 $322 $323 forward $81 $-1 #
coedge $-1 $214 $213 $127 $207 reversed $215 $-1 #
edge $-1 $324 -45.544695827775705 $325 45.544695827775705 $206 $326 forward 7 unknown #
coedge $-1 $129 $128 $327 $328 forward $51 $-1 #
coedge $-1 $329 $330 $128 $210 reversed $314 $-1 #
edge $-1 $217 -78.981902523880734 $331 78.981902523880734 $209 $332 forward 7 unknown #
coedge $-1 $203 $333 $129 $212 reversed $125 $-1 #
edge $-1 $334 -78.981902523880734 $216 78.981902523880734 $211 $335 forward 7 unknown #
coedge $-1 $206 $130 $333 $336 forward $215 $-1 #
coedge $-1 $130 $206 $329 $337 reversed $215 $-1 #
loop $-1 $-1 $213 $313 #
vertex $-1 $131 $338 #
vertex $-1 $131 $339 #
straight-curve $-1 78.981902523880734 0 12.038271922812056 0 1 0 I I #
face $-1 $340 $341 $31 $-1 $342 reversed single #
loop $-1 $-1 $343 $132 #
plane-surface $-1 -84.6016817555643 0 -4.2942091903223432 0 0 1 1 0 0 forward_v I I I I #
coedge $-1 $344 $135 $345 $346 reversed $85 $-1 #
coedge $-1 $135 $344 $228 $347 reversed $85 $-1 #
edge $-1 $230 -1.8558278693257555 $348 4.2942091903223432 $135 $349 forward 7 unknown #
coedge $-1 $137 $136 $343 $350 forward $54 $-1 #
coedge $-1 $351 $352 $136 $227 forward $353 $-1 #
edge $-1 $354 -4.2942091903223432 $231 1.8558278693257555 $226 $355 forward 7 unknown #
coedge $-1 $356 $138 $223 $347 forward $133 $-1 #
coedge $-1 $138 $356 $351 $357 forward $133 $-1 #
vertex $-1 $224 $358 #
vertex $-1 $357 $359 #
straight-curve $-1 -78.981902523880734 0 1.8558278693257555 0 -1 0 I I #
face $-1 $-1 $245 $32 $-1 $360 forward single #
loop $-1 $-1 $361 $140 #
plane-surface $-1 0 -45.544695827775705 0 0 1 0 0 0 1 forward_v I I I I #
coedge $-1 $362 $363 $364 $365 reversed $141 $-1 #
coedge $-1 $366 $143 $145 $243 forward $89 $-1 #
coedge $-1 $143 $366 $362 $367 forward $89 $-1 #
coedge $-1 $364 $146 $143 $240 forward $245 $-1 #
edge $-1 $247 13.796327505733682 $368 33.909621450910777 $239 $369 forward 7 unknown #
coedge $-1 $370 $371 $144 $242 forward $234 $-1 #
edge $-1 $372 -38.26182334463013 $246 -31.057276730065979 $241 $373 forward 7 unknown #
edge $-1 $247 -8.4050646155192759 $372 -1.3556693106716273e-014 $145 $374 forward 7 unknown #
coedge $-1 $146 $364 $370 $375 forward $245 $-1 #
loop $-1 $-1 $364 $233 #
vertex $-1 $242 $376 #
vertex $-1 $147 $377 #
straight-curve $-1 -37.64930198405591 -90.473052723413772 12.038271922812058 0 1 0 I I #
coedge $-1 $249 $249 $-1 $378 reversed $150 $-1 #
edge $-1 $379 0 $379 6.2831853071796004 $151 $380 forward 7 unknown #
vertex $-1 $154 $381 #
ellipse-curve $-1 -47.705948956644455 -43.380231733038507 8.4359986155299787 0 -0.85716730853699208 0.51503806187062418 2 0 0 1 I I #
face $-1 $-1 $265 $34 $-1 $382 forward single #
loop $-1 $-1 $383 $155 #
plane-surface $-1 0 -45.544695827775705 0 0 1 0 0 0 1 forward_v I I I I #
coedge $-1 $384 $385 $386 $387 reversed $156 $-1 #
coedge $-1 $388 $158 $160 $263 forward $98 $-1 #
coedge $-1 $158 $388 $384 $389 forward $98 $-1 #
coedge $-1 $386 $161 $158 $260 forward $265 $-1 #
edge $-1 $267 -3.978915223708988 $390 16.134378721468103 $259 $391 forward 7 unknown #
coedge $-1 $392 $393 $159 $262 forward $254 $-1 #
edge $-1 $394 -38.26182334463013 $266 -31.057276730065979 $261 $395 forward 7 unknown #
edge $-1 $267 -8.4050646155192759 $394 -1.3556693106716273e-014 $160 $396 forward 7 unknown #
coedge $-1 $161 $386 $392 $397 forward $265 $-1 #
loop $-1 $-1 $386 $253 #
vertex $-1 $262 $398 #
vertex $-1 $162 $399 #
straight-curve $-1 -2.0988165251705695 -90.473052723413772 12.038271922812058 0 1 0 I I #
coedge $-1 $269 $269 $-1 $400 reversed $165 $-1 #
edge $-1 $401 0 $401 6.2831853071796004 $166 $402 forward 7 unknown #
vertex $-1 $169 $403 #
ellipse-curve $-1 -12.155463497759115 -43.380231733038507 8.4359986155299787 0 -0.85716730853699208 0.51503806187062418 2 0 0 1 I I #
face $-1 $-1 $285 $36 $-1 $404 forward single #
loop $-1 $-1 $405 $170 #
plane-surface $-1 0 -45.544695827775705 0 0 1 0 0 0 1 forward_v I I I I #
coedge $-1 $406 $407 $408 $409 reversed $171 $-1 #
coedge $-1 $410 $173 $175 $283 forward $107 $-1 #
coedge $-1 $173 $410 $406 $411 forward $107 $-1 #
coedge $-1 $408 $176 $173 $280 forward $285 $-1 #
edge $-1 $287 -21.754157953151655 $412 -1.6408640079745638 $279 $413 forward 7 unknown #
coedge $-1 $414 $415 $174 $282 forward $274 $-1 #
edge $-1 $416 -38.26182334463013 $286 -31.057276730065979 $281 $417 forward 7 unknown #
edge $-1 $287 -8.4050646155192759 $416 -1.3556693106716273e-014 $175 $418 forward 7 unknown #
coedge $-1 $176 $408 $414 $419 forward $285 $-1 #
loop $-1 $-1 $408 $273 #
vertex $-1 $282 $420 #
vertex $-1 $177 $421 #
straight-curve $-1 33.451668933714764 -90.473052723413772 12.038271922812058 0 1 0 I I #
coedge $-1 $289 $289 $-1 $422 reversed $180 $-1 #
edge $-1 $423 0 $423 6.2831853071796004 $181 $424 forward 7 unknown #
vertex $-1 $184 $425 #
ellipse-curve $-1 23.395021961126218 -43.380231733038507 8.4359986155299787 0 -0.85716730853699208 0.51503806187062418 2 0 0 1 I I #
face $-1 $-1 $305 $38 $-1 $426 forward single #
loop $-1 $-1 $427 $185 #
plane-surface $-1 0 -45.544695827775705 0 0 1 0 0 0 1 forward_v I I I I #
coedge $-1 $428 $429 $430 $431 reversed $186 $-1 #
coedge $-1 $432 $188 $190 $303 forward $116 $-1 #
coedge $-1 $188 $432 $428 $433 forward $116 $-1 #
coedge $-1 $430 $191 $188 $300 forward $305 $-1 #
edge $-1 $307 -39.529400682594314 $434 -19.41610673741723 $299 $435 forward 7 unknown #
coedge $-1 $436 $437 $189 $302 forward $294 $-1 #
edge $-1 $438 -38.26182334463013 $306 -31.057276730065979 $301 $439 forward 7 unknown #
edge $-1 $307 -8.4050646155192759 $438 -1.3556693106716273e-014 $190 $440 forward 7 unknown #
coedge $-1 $191 $430 $436 $441 forward $305 $-1 #
loop $-1 $-1 $430 $293 #
vertex $-1 $302 $442 #
vertex $-1 $192 $443 #
straight-curve $-1 69.00215439260009 -90.473052723413772 12.038271922812058 0 1 0 I I #
coedge $-1 $309 $309 $-1 $444 reversed $195 $-1 #
edge $-1 $445 0 $445 6.2831853071796004 $196 $446 forward 7 unknown #
vertex $-1 $199 $447 #
ellipse-curve $-1 58.945507420011552 -43.380231733038507 8.4359986155299787 0 -0.85716730853699208 0.51503806187062418 2 0 0 1 I I #
face $-1 $-1 $215 $30 $-1 $448 reversed single #
loop $-1 $-1 $329 $200 #
plane-surface $-1 0 45.544695827775705 0 0 -1 0 0 0 -1 forward_v I I I I #
coedge $-1 $449 $327 $330 $450 forward $201 $-1 #
coedge $-1 $333 $203 $204 $321 reversed $125 $-1 #
coedge $-1 $327 $449 $203 $319 reversed $201 $-1 #
edge $-1 $334 -12.038271922812056 $451 12.038271922812056 $318 $452 forward 7 unknown #
coedge $-1 $205 $204 $449 $453 forward $81 $-1 #
edge $-1 $325 -78.981902523880734 $451 78.981902523880734 $317 $454 forward 7 unknown #
coedge $-1 $330 $329 $205 $323 reversed $314 $-1 #
edge $-1 $455 -78.981902523880734 $324 78.981902523880734 $322 $456 forward 7 unknown #
vertex $-1 $207 $457 #
vertex $-1 $336 $458 #
straight-curve $-1 78.981902523880734 0 -12.038271922812056 0 -1 0 I I #
coedge $-1 $316 $318 $208 $328 reversed $201 $-1 #
edge $-1 $331 -45.544695827775705 $334 45.544695827775705 $327 $459 forward 7 unknown #
coedge $-1 $322 $209 $214 $337 forward $314 $-1 #
coedge $-1 $209 $322 $316 $450 reversed $314 $-1 #
vertex $-1 $210 $460 #
straight-curve $-1 0 45.544695827775705 12.038271922812056 -1 0 0 I I #
coedge $-1 $211 $317 $213 $336 reversed $125 $-1 #
vertex $-1 $328 $461 #
straight-curve $-1 0 -45.544695827775705 12.038271922812056 1 0 0 I I #
edge $-1 $216 -12.038271922812056 $325 12.038271922812056 $213 $462 forward 7 unknown #
edge $-1 $217 -12.038271922812056 $324 12.038271922812056 $214 $463 forward 7 unknown #
point $-1 78.981902523880734 -45.544695827775705 12.038271922812056 #
point $-1 78.981902523880734 45.544695827775705 12.038271922812056 #
face $-1 $-1 $353 $31 $-1 $464 reversed single #
loop $-1 $-1 $465 $219 #
plane-surface $-1 -90.221460987247866 0 -1.2191906604982936 1 0 0 0 0 -1 forward_v I I I I #
coedge $-1 $466 $345 $225 $350 reversed $220 $-1 #
coedge $-1 $223 $222 $465 $467 reversed $85 $-1 #
coedge $-1 $343 $468 $222 $346 forward $220 $-1 #
edge $-1 $469 -5.619779231683566 $348 5.619779231683566 $222 $470 forward 7 unknown #
edge $-1 $230 -5.619779231683566 $471 5.619779231683566 $223 $472 forward 7 unknown #
vertex $-1 $224 $473 #
straight-curve $-1 -78.981902523880734 45.544695827775705 0 0 0 -1 I I #
edge $-1 $354 -45.544695827775705 $348 45.544695827775705 $343 $474 forward 7 unknown #
coedge $-1 $475 $226 $229 $357 reversed $353 $-1 #
coedge $-1 $226 $475 $466 $476 reversed $353 $-1 #
loop $-1 $-1 $226 $340 #
vertex $-1 $227 $477 #
straight-curve $-1 -78.981902523880734 -45.544695827775705 0 0 0 1 I I #
coedge $-1 $229 $228 $478 $479 forward $133 $-1 #
edge $-1 $480 -5.619779231683566 $231 5.619779231683566 $351 $481 forward 7 unknown #
point $-1 -78.981902523880734 45.544695827775705 1.8558278693257555 #
point $-1 -78.981902523880734 -45.544695827775705 1.8558278693257555 #
plane-surface $-1 0 0 12.038271922812056 0 0 1 1 0 0 forward_v I I I I #
coedge $-1 $371 $370 $363 $482 forward $234 $-1 #
coedge $-1 $363 $236 $238 $367 reversed $141 $-1 #
coedge $-1 $236 $362 $361 $482 reversed $141 $-1 #
coedge $-1 $244 $239 $236 $365 forward $245 $-1 #
edge $-1 $368 -49.257285085112471 $483 -44.928356895638068 $364 $484 forward 7 unknown #
coedge $-1 $238 $237 $371 $485 reversed $89 $-1 #
edge $-1 $486 1.3556693106716273e-014 $368 8.4050646155192759 $362 $487 forward 7 unknown #
vertex $-1 $240 $488 #
straight-curve $-1 -23.852974478322228 -41.215767638301294 12.038271922812056 -1 0 0 I I #
coedge $-1 $361 $241 $244 $375 reversed $234 $-1 #
coedge $-1 $241 $361 $366 $485 forward $234 $-1 #
vertex $-1 $242 $489 #
straight-curve $-1 -37.64930198405591 -45.544695827775712 43.095548652878037 0 0 1 I I #
straight-curve $-1 -37.64930198405591 -45.544695827775712 4.8337253082478924 0 -0.51503806187062418 -0.85716730853699208 I I #
edge $-1 $483 -57.762595929233001 $246 -37.64930198405591 $370 $490 forward 7 unknown #
point $-1 -37.64930198405591 -45.544695827775705 12.038271922812056 #
point $-1 -37.64930198405591 -41.215767638301301 12.038271922812056 #
edge $-1 $491 1 $491 0 $249 $-1 forward 7 unknown #
vertex $-1 $250 $492 #
ellipse-curve $-1 -47.705948956644455 -41.597306989221636 7.3647093871949343 0 -0.85716730853699208 0.51503806187062418 2 0 0 1 I I #
point $-1 -45.705948956644455 -43.380231733038499 8.4359986155299751 #
plane-surface $-1 0 0 12.038271922812056 0 0 1 1 0 0 forward_v I I I I #
coedge $-1 $393 $392 $385 $493 forward $254 $-1 #
coedge $-1 $385 $256 $258 $389 reversed $156 $-1 #
coedge $-1 $256 $384 $383 $493 reversed $156 $-1 #
coedge $-1 $264 $259 $256 $387 forward $265 $-1 #
edge $-1 $390 -49.257285085112471 $494 -44.928356895638068 $386 $495 forward 7 unknown #
coedge $-1 $258 $257 $393 $496 reversed $98 $-1 #
edge $-1 $497 1.3556693106716273e-014 $390 8.4050646155192759 $384 $498 forward 7 unknown #
vertex $-1 $260 $499 #
straight-curve $-1 -6.0777317488795575 -41.215767638301294 12.038271922812056 -1 0 0 I I #
coedge $-1 $383 $261 $264 $397 reversed $254 $-1 #
coedge $-1 $261 $383 $388 $496 forward $254 $-1 #
vertex $-1 $262 $500 #
straight-curve $-1 -2.0988165251705695 -45.544695827775712 43.095548652878037 0 0 1 I I #
straight-curve $-1 -2.0988165251705695 -45.544695827775712 4.8337253082478924 0 -0.51503806187062418 -0.85716730853699208 I I #
edge $-1 $494 -22.21211047034766 $266 -2.0988165251705695 $392 $501 forward 7 unknown #
point $-1 -2.0988165251705695 -45.544695827775705 12.038271922812056 #
point $-1 -2.0988165251705695 -41.215767638301301 12.038271922812056 #
edge $-1 $502 1 $502 0 $269 $-1 forward 7 unknown #
vertex $-1 $270 $503 #
ellipse-curve $-1 -12.155463497759115 -41.597306989221636 7.3647093871949343 0 -0.85716730853699208 0.51503806187062418 2 0 0 1 I I #
point $-1 -10.155463497759115 -43.380231733038499 8.4359986155299751 #
plane-surface $-1 0 0 12.038271922812056 0 0 1 1 0 0 forward_v I I I I #
coedge $-1 $415 $414 $407 $504 forward $274 $-1 #
coedge $-1 $407 $276 $278 $411 reversed $171 $-1 #
coedge $-1 $276 $406 $405 $504 reversed $171 $-1 #
coedge $-1 $284 $279 $276 $409 forward $285 $-1 #
edge $-1 $412 -49.257285085112471 $505 -44.928356895638068 $408 $506 forward 7 unknown #
coedge $-1 $278 $277 $415 $507 reversed $107 $-1 #
edge $-1 $508 1.3556693106716273e-014 $412 8.4050646155192759 $406 $509 forward 7 unknown #
vertex $-1 $280 $510 #
straight-curve $-1 11.697510980563109 -41.215767638301294 12.038271922812056 -1 0 0 I I #
coedge $-1 $405 $281 $284 $419 reversed $274 $-1 #
coedge $-1 $281 $405 $410 $507 forward $274 $-1 #
vertex $-1 $282 $511 #
straight-curve $-1 33.451668933714764 -45.544695827775712 43.095548652878037 0 0 1 I I #
straight-curve $-1 33.451668933714764 -45.544695827775712 4.8337253082478924 0 -0.51503806187062418 -0.85716730853699208 I I #
edge $-1 $505 13.338374988537673 $286 33.451668933714764 $414 $512 forward 7 unknown #
point $-1 33.451668933714764 -45.544695827775705 12.038271922812056 #
point $-1 33.451668933714764 -41.215767638301301 12.038271922812056 #
edge $-1 $513 1 $513 0 $289 $-1 forward 7 unknown #
vertex $-1 $290 $514 #
ellipse-curve $-1 23.395021961126218 -41.597306989221636 7.3647093871949343 0 -0.85716730853699208 0.51503806187062418 2 0 0 1 I I #
point $-1 25.395021961126218 -43.380231733038499 8.4359986155299751 #
plane-surface $-1 0 0 12.038271922812056 0 0 1 1 0 0 forward_v I I I I #
coedge $-1 $437 $436 $429 $515 forward $294 $-1 #
coedge $-1 $429 $296 $298 $433 reversed $186 $-1 #
coedge $-1 $296 $428 $427 $515 reversed $186 $-1 #
coedge $-1 $304 $299 $296 $431 forward $305 $-1 #
edge $-1 $434 -49.257285085112471 $516 -44.928356895638068 $430 $517 forward 7 unknown #
coedge $-1 $298 $297 $437 $518 reversed $116 $-1 #
edge $-1 $519 1.3556693106716273e-014 $434 8.4050646155192759 $428 $520 forward 7 unknown #
vertex $-1 $300 $521 #
straight-curve $-1 29.472753710005776 -41.215767638301294 12.038271922812056 -1 0 0 I I #
coedge $-1 $427 $301 $304 $441 reversed $294 $-1 #
coedge $-1 $301 $427 $432 $518 forward $294 $-1 #
vertex $-1 $302 $522 #
straight-curve $-1 69.00215439260009 -45.544695827775712 43.095548652878037 0 0 1 I I #
straight-curve $-1 69.00215439260009 -45.544695827775712 4.8337253082478924 0 -0.51503806187062418 -0.85716730853699208 I I #
edge $-1 $516 48.888860447423006 $306 69.00215439260009 $436 $523 forward 7 unknown #
point $-1 69.00215439260009 -45.544695827775705 12.038271922812056 #
point $-1 69.00215439260009 -41.215767638301301 12.038271922812056 #
edge $-1 $524 1 $524 0 $309 $-1 forward 7 unknown #
vertex $-1 $310 $525 #
ellipse-curve $-1 58.945507420011552 -41.597306989221636 7.3647093871949343 0 -0.85716730853699208 0.51503806187062418 2 0 0 1 I I #
point $-1 60.945507420011552 -43.380231733038499 8.4359986155299751 #
plane-surface $-1 78.981902523880734 0 0 -1 0 0 0 0 1 forward_v I I I I #
coedge $-1 $318 $316 $320 $453 reversed $201 $-1 #
edge $-1 $331 -12.038271922812056 $455 12.038271922812056 $330 $526 forward 7 unknown #
vertex $-1 $453 $527 #
straight-curve $-1 -78.981902523880734 -45.544695827775705 0 0 0 -1 I I #
edge $-1 $451 -45.544695827775705 $455 45.544695827775705 $449 $528 forward 7 unknown #
straight-curve $-1 0 -45.544695827775705 -12.038271922812056 -1 0 0 I I #
vertex $-1 $323 $529 #
straight-curve $-1 0 45.544695827775705 -12.038271922812056 1 0 0 I I #
point $-1 78.981902523880734 45.544695827775705 -12.038271922812056 #
point $-1 78.981902523880734 -45.544695827775705 -12.038271922812056 #
straight-curve $-1 -78.981902523880734 0 12.038271922812056 0 -1 0 I I #
point $-1 -78.981902523880734 45.544695827775705 12.038271922812056 #
point $-1 -78.981902523880734 -45.544695827775705 12.038271922812056 #
straight-curve $-1 78.981902523880734 -45.544695827775705 0 0 0 -1 I I #
straight-curve $-1 78.981902523880734 45.544695827775705 0 0 0 -1 I I #
plane-surface $-1 0 -45.544695827775705 0 0 1 0 0 0 1 forward_v I I I I #
coedge $-1 $530 $478 $344 $467 forward $341 $-1 #
coedge $-1 $468 $343 $352 $476 forward $220 $-1 #
edge $-1 $471 -3.0750185298240491 $469 3.0750185298240496 $344 $531 forward 7 unknown #
coedge $-1 $345 $466 $530 $532 forward $220 $-1 #
vertex $-1 $346 $533 #
straight-curve $-1 -84.6016817555643 45.544695827775705 -4.2942091903223432 1 0 0 I I #
vertex $-1 $347 $534 #
straight-curve $-1 -84.6016817555643 45.544695827775705 1.8558278693257555 -1 0 0 I I #
point $-1 -78.981902523880734 45.544695827775705 -4.2942091903223432 #
straight-curve $-1 -78.981902523880734 0 -4.2942091903223432 0 1 0 I I #
coedge $-1 $352 $351 $535 $536 forward $353 $-1 #
edge $-1 $354 -5.619779231683566 $537 5.619779231683566 $352 $538 forward 7 unknown #
point $-1 -78.981902523880734 -45.544695827775705 -4.2942091903223432 #
coedge $-1 $465 $535 $356 $479 reversed $341 $-1 #
edge $-1 $471 -45.544695827775705 $480 45.544695827775705 $478 $539 forward 7 unknown #
vertex $-1 $479 $540 #
straight-curve $-1 -84.6016817555643 -45.544695827775705 1.8558278693257555 1 0 0 I I #
edge $-1 $483 31.057276730065979 $486 38.26182334463013 $361 $541 forward 7 unknown #
vertex $-1 $375 $542 #
straight-curve $-1 -57.762595929233001 -90.473052723413772 12.038271922812058 0 -1 0 I I #
edge $-1 $486 -33.909621450910777 $372 -13.796327505733682 $371 $543 forward 7 unknown #
vertex $-1 $485 $544 #
straight-curve $-1 -57.762595929233001 -45.544695827775712 4.8337253082478924 0 0.51503806187062418 0.85716730853699208 I I #
point $-1 -57.762595929233001 -41.215767638301301 12.038271922812056 #
point $-1 -37.64930198405591 -45.544695827775705 4.8337253082479039 #
straight-curve $-1 0 -45.544695827775705 12.038271922812056 1 0 0 I I #
vertex $-1 $378 $545 #
point $-1 -45.705948956644455 -41.597306989221636 7.3647093871949343 #
edge $-1 $494 31.057276730065979 $497 38.26182334463013 $383 $546 forward 7 unknown #
vertex $-1 $397 $547 #
straight-curve $-1 -22.21211047034766 -90.473052723413772 12.038271922812058 0 -1 0 I I #
edge $-1 $497 -16.134378721468103 $394 3.978915223708988 $393 $548 forward 7 unknown #
vertex $-1 $496 $549 #
straight-curve $-1 -22.21211047034766 -45.544695827775712 4.8337253082478924 0 0.51503806187062418 0.85716730853699208 I I #
point $-1 -22.21211047034766 -41.215767638301301 12.038271922812056 #
point $-1 -2.0988165251705695 -45.544695827775705 4.8337253082479039 #
straight-curve $-1 0 -45.544695827775705 12.038271922812056 1 0 0 I I #
vertex $-1 $400 $550 #
point $-1 -10.155463497759115 -41.597306989221636 7.3647093871949343 #
edge $-1 $505 31.057276730065979 $508 38.26182334463013 $405 $551 forward 7 unknown #
vertex $-1 $419 $552 #
straight-curve $-1 13.338374988537673 -90.473052723413772 12.038271922812058 0 -1 0 I I #
edge $-1 $508 1.6408640079745638 $416 21.754157953151655 $415 $553 forward 7 unknown #
vertex $-1 $507 $554 #
straight-curve $-1 13.338374988537673 -45.544695827775712 4.8337253082478924 0 0.51503806187062418 0.85716730853699208 I I #
point $-1 13.338374988537673 -41.215767638301301 12.038271922812056 #
point $-1 33.451668933714764 -45.544695827775705 4.8337253082479039 #
straight-curve $-1 0 -45.544695827775705 12.038271922812056 1 0 0 I I #
vertex $-1 $422 $555 #
point $-1 25.395021961126218 -41.597306989221636 7.3647093871949343 #
edge $-1 $516 31.057276730065979 $519 38.26182334463013 $427 $556 forward 7 unknown #
vertex $-1 $441 $557 #
straight-curve $-1 48.888860447423006 -90.473052723413772 12.038271922812058 0 -1 0 I I #
edge $-1 $519 19.41610673741723 $438 39.529400682594314 $437 $558 forward 7 unknown #
vertex $-1 $518 $559 #
straight-curve $-1 48.888860447423006 -45.544695827775712 4.8337253082478924 0 0.51503806187062418 0.85716730853699208 I I #
point $-1 48.888860447423006 -41.215767638301301 12.038271922812056 #
point $-1 69.00215439260009 -45.544695827775705 4.8337253082479039 #
straight-curve $-1 0 -45.544695827775705 12.038271922812056 1 0 0 I I #
vertex $-1 $444 $560 #
point $-1 60.945507420011552 -41.597306989221636 7.3647093871949343 #
straight-curve $-1 -78.981902523880734 45.544695827775705 0 0 0 -1 I I #
point $-1 -78.981902523880734 -45.544695827775705 -12.038271922812056 #
straight-curve $-1 -78.981902523880734 0 -12.038271922812056 0 1 0 I I #
point $-1 -78.981902523880734 45.544695827775705 -12.038271922812056 #
coedge $-1 $535 $465 $468 $532 reversed $341 $-1 #
straight-curve $-1 -90.221460987247866 45.544695827775705 -1.2191906604982936 0 0 -1 I I #
edge $-1 $537 -45.544695827775705 $469 45.544695827775705 $530 $561 forward 7 unknown #
point $-1 -90.221460987247866 45.544695827775705 -4.2942091903223432 #
point $-1 -90.221460987247866 45.544695827775705 1.8558278693257555 #
coedge $-1 $478 $530 $475 $536 reversed $341 $-1 #
edge $-1 $480 -3.0750185298240491 $537 3.0750185298240496 $535 $562 forward 7 unknown #
vertex $-1 $532 $563 #
straight-curve $-1 -84.6016817555643 -45.544695827775705 -4.2942091903223432 -1 0 0 I I #
straight-curve $-1 -90.221460987247866 0 1.8558278693257555 0 -1 0 I I #
point $-1 -90.221460987247866 -45.544695827775705 1.8558278693257555 #
straight-curve $-1 -57.762595929233001 -45.544695827775712 43.095548652878037 0 0 -1 I I #
point $-1 -57.762595929233001 -45.544695827775705 12.038271922812056 #
straight-curve $-1 -23.852974478322228 -45.544695827775705 4.8337253082479146 1 0 0 I I #
point $-1 -57.762595929233001 -45.544695827775705 4.8337253082479039 #
point $-1 -47.705948956644455 -39.882972372147648 6.3346332634536866 #
straight-curve $-1 -22.21211047034766 -45.544695827775712 43.095548652878037 0 0 -1 I I #
point $-1 -22.21211047034766 -45.544695827775705 12.038271922812056 #
straight-curve $-1 -6.0777317488795575 -45.544695827775705 4.8337253082479146 1 0 0 I I #
point $-1 -22.21211047034766 -45.544695827775705 4.8337253082479039 #
point $-1 -12.155463497759115 -39.882972372147648 6.3346332634536866 #
straight-curve $-1 13.338374988537673 -45.544695827775712 43.095548652878037 0 0 -1 I I #
point $-1 13.338374988537673 -45.544695827775705 12.038271922812056 #
straight-curve $-1 11.697510980563109 -45.544695827775705 4.8337253082479146 1 0 0 I I #
point $-1 13.338374988537673 -45.544695827775705 4.8337253082479039 #
point $-1 23.395021961126218 -39.882972372147648 6.3346332634536866 #
straight-curve $-1 48.888860447423006 -45.544695827775712 43.095548652878037 0 0 -1 I I #
point $-1 48.888860447423006 -45.544695827775705 12.038271922812056 #
straight-curve $-1 29.472753710005776 -45.544695827775705 4.8337253082479146 1 0 0 I I #
point $-1 48.888860447423006 -45.544695827775705 4.8337253082479039 #
point $-1 58.945507420011552 -39.882972372147648 6.3346332634536866 #
straight-curve $-1 -90.221460987247866 0 -4.2942091903223432 0 1 0 I I #
straight-curve $-1 -90.221460987247866 -45.544695827775705 -1.2191906604982936 0 0 -1 I I #
point $-1 -90.221460987247866 -45.544695827775705 -4.2942091903223432 #
End-of-ACIS-data 