500 0 9 0           
7 Unknown 11 ACIS 5.0 NT 24 Fri Mar 26 20:43:49 1999 
-1 9.9999999999999995e-007 1e-010 
body $-1 $9 $-1 $10 #
body $-1 $11 $-1 $12 #
body $-1 $13 $-1 $14 #
body $-1 $15 $-1 $16 #
body $-1 $17 $-1 $18 #
body $-1 $19 $-1 $20 #
body $-1 $21 $-1 $22 #
body $-1 $23 $-1 $24 #
body $-1 $25 $-1 $26 #
lump $-1 $-1 $27 $0 #
transform $-1 1 0 0 0 1 0 0 0 1 56.982940153202918 28.995790052321812 13.544317849111376 1 rotate no_reflect no_shear #
lump $-1 $-1 $28 $1 #
transform $-1 1 0 0 0 1 0 0 0 1 56.982940153202918 28.995790052321812 13.544317849111376 1 rotate no_reflect no_shear #
lump $-1 $-1 $29 $2 #
transform $-1 1 0 0 0 1 0 0 0 1 56.982940153202918 28.995790052321812 13.544317849111376 1 rotate no_reflect no_shear #
lump $-1 $-1 $30 $3 #
transform $-1 1 0 0 0 1 0 0 0 1 56.982940153202918 28.995790052321812 13.544317849111376 1 rotate no_reflect no_shear #
lump $-1 $-1 $31 $4 #
transform $-1 1 0 0 0 1 0 0 0 1 56.982940153202918 28.995790052321812 13.544317849111376 1 rotate no_reflect no_shear #
lump $-1 $-1 $32 $5 #
transform $-1 1 0 0 0 1 0 0 0 1 56.982940153202918 28.995790052321812 13.544317849111376 1 rotate no_reflect no_shear #
lump $-1 $-1 $33 $6 #
transform $-1 1 0 0 0 1 0 0 0 1 56.982940153202918 28.995790052321812 13.544317849111376 1 rotate no_reflect no_shear #
lump $-1 $-1 $34 $7 #
transform $-1 1 0 0 0 1 0 0 0 1 56.982940153202918 28.995790052321812 13.544317849111376 1 rotate no_reflect no_shear #
lump $-1 $-1 $35 $8 #
transform $-1 1 0 0 0 1 0 0 0 1 56.982940153202918 28.995790052321812 13.544317849111376 1 rotate no_reflect no_shear #
shell $-1 $-1 $-1 $36 $-1 $9 #
shell $-1 $-1 $-1 $37 $-1 $11 #
shell $-1 $-1 $-1 $38 $-1 $13 #
shell $-1 $-1 $-1 $39 $-1 $15 #
shell $-1 $-1 $-1 $40 $-1 $17 #
shell $-1 $-1 $-1 $41 $-1 $19 #
shell $-1 $-1 $-1 $42 $-1 $21 #
shell $-1 $-1 $-1 $43 $-1 $23 #
shell $-1 $-1 $-1 $44 $-1 $25 #
face $-1 $45 $46 $27 $-1 $47 forward single #
face $-1 $48 $49 $28 $-1 $50 forward single #
face $-1 $51 $52 $29 $-1 $53 reversed single #
face $-1 $54 $55 $30 $-1 $56 forward single #
face $-1 $57 $58 $31 $-1 $59 reversed single #
face $-1 $60 $61 $32 $-1 $62 forward single #
face $-1 $63 $64 $33 $-1 $65 reversed single #
face $-1 $66 $67 $34 $-1 $68 forward single #
face $-1 $69 $70 $35 $-1 $71 forward single #
face $-1 $72 $73 $27 $-1 $74 reversed single #
loop $-1 $-1 $75 $36 #
plane-surface $-1 0 0 13.544317849111376 0 0 1 1 0 0 forward_v I I I I #
face $-1 $76 $77 $28 $-1 $78 reversed single #
loop $-1 $-1 $79 $37 #
plane-surface $-1 -56.982940153202918 0 0 1 0 0 0 0 -1 forward_v I I I I #
face $-1 $80 $81 $29 $-1 $82 reversed single #
loop $-1 $-1 $83 $38 #
plane-surface $-1 -15.842731489962091 -89.388506289400411 101.27309005771737 -1 0 0 0 -0.52991927123019833 0.84804809178421925 forward_v I I I I #
face $-1 $84 $85 $30 $-1 $86 forward single #
loop $-1 $87 $88 $39 #
cone-surface $-1 -21.86485544622618 -21.112447795607036 7.8905322095919672 0 0.52991927123019833 -0.84804809178421925 2.5 0 0 1 I I 0 1 2.5 forward I I I I #
face $-1 $89 $90 $31 $-1 $91 reversed single #
loop $-1 $-1 $92 $40 #
plane-surface $-1 35.996736702578396 -89.388506289400411 101.27309005771737 -1 0 0 0 -0.52991927123019833 0.84804809178421925 forward_v I I I I #
face $-1 $93 $94 $32 $-1 $95 forward single #
loop $-1 $96 $97 $41 #
cone-surface $-1 29.974612746314307 -21.112447795607036 7.8905322095919672 0 0.52991927123019833 -0.84804809178421925 2.5 0 0 1 I I 0 1 2.5 forward I I I I #
face $-1 $98 $99 $33 $-1 $100 reversed single #
loop $-1 $-1 $101 $42 #
plane-surface $-1 5.8790014435908198 87.10953004234554 122.19087137846653 1 0 0 0 -0.80901700255871778 -0.5877852410284794 forward_v I I I I #
face $-1 $102 $103 $34 $-1 $104 forward single #
loop $-1 $105 $106 $43 #
cone-surface $-1 12.893327699695206 26.12046659867412 10.214244058316508 0 -0.80901700255871778 -0.5877852410284794 1.5 0 0 1 I I 0 1 1.5 forward I I I I #
face $-1 $107 $108 $35 $-1 $109 forward single #
loop $-1 $110 $111 $44 #
cone-surface $-1 23.414817083851801 26.12046659867412 10.214244058316508 0 -0.80901700255871778 -0.5877852410284794 1.5 0 0 1 I I 0 1 1.5 forward I I I I #
face $-1 $112 $113 $27 $-1 $114 reversed single #
loop $-1 $-1 $115 $45 #
plane-surface $-1 0 0 -13.544317849111376 0 0 1 1 0 0 forward_v I I I I #
coedge $-1 $116 $117 $118 $119 forward $46 $-1 #
face $-1 $120 $121 $28 $-1 $122 forward single #
loop $-1 $-1 $123 $48 #
plane-surface $-1 0 28.995790052321812 0 0 -1 0 0 0 -1 forward_v I I I I #
coedge $-1 $124 $125 $126 $127 forward $49 $-1 #
face $-1 $128 $129 $29 $-1 $130 reversed single #
loop $-1 $-1 $131 $51 #
plane-surface $-1 -21.86485544622618 -28.995790052321816 4.6245427353611603 0 -0.52991927123019833 0.84804809178421925 1 0 0 forward_v I I I I #
coedge $-1 $132 $133 $134 $135 reversed $52 $-1 #
face $-1 $-1 $136 $30 $-1 $137 forward single #
loop $-1 $138 $139 $54 #
cone-surface $-1 -21.86485544622618 -19.704018371724807 5.636574012217384 0 0.52991927123019833 -0.84804809178421925 1.25 0 0 1 I I -0.70710678118654746 0.70710678118654746 1.25 forward I I I I #
loop $-1 $-1 $140 $39 #
coedge $-1 $88 $88 $141 $142 reversed $55 $-1 #
face $-1 $143 $144 $31 $-1 $145 reversed single #
loop $-1 $-1 $146 $57 #
plane-surface $-1 29.974612746314307 -28.995790052321816 4.6245427353611603 0 -0.52991927123019833 0.84804809178421925 1 0 0 forward_v I I I I #
coedge $-1 $147 $148 $149 $150 reversed $58 $-1 #
face $-1 $-1 $151 $32 $-1 $152 forward single #
loop $-1 $153 $154 $60 #
cone-surface $-1 29.974612746314307 -19.704018371724807 5.636574012217384 0 0.52991927123019833 -0.84804809178421925 1.25 0 0 1 I I -0.70710678118654746 0.70710678118654746 1.25 forward I I I I #
loop $-1 $-1 $155 $41 #
coedge $-1 $97 $97 $156 $157 reversed $61 $-1 #
face $-1 $158 $159 $33 $-1 $160 reversed single #
loop $-1 $-1 $161 $63 #
plane-surface $-1 18.154072391773511 -5.0908048371085215 55.203408953542933 0 0.80901700255871778 0.5877852410284794 1 0 0 forward_v I I I I #
coedge $-1 $162 $163 $164 $165 reversed $64 $-1 #
face $-1 $-1 $166 $34 $-1 $167 forward single #
loop $-1 $168 $169 $66 #
cone-surface $-1 12.893327699695206 24.548127598210318 9.0718729394857682 0 -0.80901700255871778 -0.5877852410284794 0.75 0 0 1 I I -0.70710678118654757 0.70710678118654757 0.75 forward I I I I #
loop $-1 $-1 $170 $43 #
coedge $-1 $106 $106 $171 $172 reversed $67 $-1 #
face $-1 $-1 $173 $35 $-1 $174 forward single #
loop $-1 $175 $176 $69 #
cone-surface $-1 23.414817083851801 24.548127598210318 9.0718729394857682 0 -0.80901700255871778 -0.5877852410284794 0.75 0 0 1 I I -0.70710678118654757 0.70710678118654757 0.75 forward I I I I #
loop $-1 $-1 $177 $44 #
coedge $-1 $111 $111 $178 $179 reversed $70 $-1 #
face $-1 $180 $181 $27 $-1 $182 reversed single #
loop $-1 $-1 $183 $72 #
plane-surface $-1 0 -28.995790052321812 0 0 1 0 0 0 1 forward_v I I I I #
coedge $-1 $184 $185 $186 $187 forward $73 $-1 #
coedge $-1 $188 $75 $189 $190 forward $46 $-1 #
coedge $-1 $75 $188 $191 $192 forward $46 $-1 #
coedge $-1 $193 $194 $75 $119 reversed $195 $-1 #
edge $-1 $196 -28.995790052321812 $197 28.995790052321812 $118 $198 forward 7 unknown #
face $-1 $199 $200 $28 $-1 $201 reversed single #
loop $-1 $-1 $126 $76 #
plane-surface $-1 -62.126412113865356 0 1.312172450059423 0 0 1 1 0 0 forward_v I I I I #
coedge $-1 $202 $203 $125 $204 forward $77 $-1 #
coedge $-1 $205 $79 $206 $207 reversed $49 $-1 #
coedge $-1 $79 $205 $123 $204 reversed $49 $-1 #
coedge $-1 $208 $209 $79 $127 reversed $121 $-1 #
edge $-1 $210 -28.995790052321812 $211 28.995790052321812 $126 $212 forward 7 unknown #
face $-1 $213 $214 $29 $-1 $215 reversed single #
loop $-1 $-1 $216 $80 #
plane-surface $-1 -27.886979402490269 -89.388506289400411 101.27309005771737 1 0 0 0 0.52991927123019833 -0.84804809178421925 forward_v I I I I #
coedge $-1 $217 $218 $219 $220 reversed $81 $-1 #
coedge $-1 $133 $83 $221 $222 reversed $52 $-1 #
coedge $-1 $83 $132 $217 $223 reversed $52 $-1 #
coedge $-1 $219 $224 $83 $135 forward $225 $-1 #
edge $-1 $226 15.698463092378393 $227 29.973086936119003 $134 $228 forward 7 unknown #
loop $-1 $-1 $141 $84 #
plane-surface $-1 -21.86485544622618 -28.995790052321816 4.6245427353611603 0 -0.52991927123019833 0.84804809178421925 1 0 0 forward_v I I I I #
loop $-1 $-1 $229 $54 #
coedge $-1 $139 $139 $140 $230 reversed $85 $-1 #
coedge $-1 $140 $140 $139 $230 forward $87 $-1 #
coedge $-1 $141 $141 $88 $142 forward $136 $-1 #
edge $-1 $231 3.0097233246263133e-016 $231 6.2831853071796004 $141 $232 forward 7 unknown #
face $-1 $233 $234 $31 $-1 $235 reversed single #
loop $-1 $-1 $236 $89 #
plane-surface $-1 23.952488790050218 -89.388506289400411 101.27309005771737 1 0 0 0 0.52991927123019833 -0.84804809178421925 forward_v I I I I #
coedge $-1 $237 $238 $239 $240 reversed $90 $-1 #
coedge $-1 $148 $92 $241 $242 reversed $58 $-1 #
coedge $-1 $92 $147 $237 $243 reversed $58 $-1 #
coedge $-1 $239 $244 $92 $150 forward $245 $-1 #
edge $-1 $246 15.698463092378393 $247 29.973086936119003 $149 $248 forward 7 unknown #
loop $-1 $-1 $156 $93 #
plane-surface $-1 29.974612746314307 -28.995790052321816 4.6245427353611603 0 -0.52991927123019833 0.84804809178421925 1 0 0 forward_v I I I I #
loop $-1 $-1 $249 $60 #
coedge $-1 $154 $154 $155 $250 reversed $94 $-1 #
coedge $-1 $155 $155 $154 $250 forward $96 $-1 #
coedge $-1 $156 $156 $97 $157 forward $151 $-1 #
edge $-1 $251 3.0097233246263133e-016 $251 6.2831853071796004 $156 $252 forward 7 unknown #
face $-1 $253 $254 $33 $-1 $255 forward single #
loop $-1 $-1 $256 $98 #
plane-surface $-1 30.429143339956202 87.10953004234554 122.19087137846653 -1 0 0 0 0.80901700255871778 0.5877852410284794 forward_v I I I I #
coedge $-1 $257 $258 $259 $260 reversed $99 $-1 #
coedge $-1 $163 $101 $261 $262 reversed $64 $-1 #
coedge $-1 $101 $162 $257 $263 reversed $64 $-1 #
coedge $-1 $259 $264 $101 $165 forward $254 $-1 #
edge $-1 $265 14.558974968850958 $266 18.378469379056856 $164 $267 forward 7 unknown #
loop $-1 $-1 $171 $102 #
plane-surface $-1 18.154072391773511 -5.0908048371085215 55.203408953542933 0 0.80901700255871778 0.5877852410284794 1 0 0 forward_v I I I I #
loop $-1 $-1 $268 $66 #
coedge $-1 $169 $169 $170 $269 reversed $103 $-1 #
coedge $-1 $170 $170 $169 $269 forward $105 $-1 #
coedge $-1 $171 $171 $106 $172 forward $166 $-1 #
edge $-1 $270 -1.7517373108284817e-015 $270 6.2831853071795987 $171 $271 forward 7 unknown #
loop $-1 $-1 $178 $107 #
plane-surface $-1 18.154072391773511 -5.0908048371085215 55.203408953542933 0 0.80901700255871778 0.5877852410284794 1 0 0 forward_v I I I I #
loop $-1 $-1 $272 $69 #
coedge $-1 $176 $176 $177 $273 reversed $108 $-1 #
coedge $-1 $177 $177 $176 $273 forward $110 $-1 #
coedge $-1 $178 $178 $111 $179 forward $173 $-1 #
edge $-1 $274 -1.7517373108284817e-015 $274 6.2831853071795987 $178 $275 forward 7 unknown #
face $-1 $276 $277 $27 $-1 $278 reversed single #
loop $-1 $-1 $279 $112 #
plane-surface $-1 -56.982940153202918 0 0 1 0 0 0 0 -1 forward_v I I I I #
coedge $-1 $280 $191 $281 $282 forward $113 $-1 #
coedge $-1 $283 $115 $280 $284 forward $73 $-1 #
coedge $-1 $115 $283 $285 $286 forward $73 $-1 #
coedge $-1 $194 $193 $115 $187 reversed $195 $-1 #
edge $-1 $287 -28.995790052321812 $288 28.995790052321812 $186 $289 forward 7 unknown #
coedge $-1 $117 $116 $290 $291 forward $46 $-1 #
coedge $-1 $292 $293 $116 $190 reversed $277 $-1 #
edge $-1 $197 -56.982940153202918 $294 56.982940153202918 $189 $295 forward 7 unknown #
coedge $-1 $183 $296 $117 $192 reversed $113 $-1 #
edge $-1 $297 -56.982940153202918 $196 56.982940153202918 $191 $298 forward 7 unknown #
coedge $-1 $186 $118 $296 $299 forward $195 $-1 #
coedge $-1 $118 $186 $292 $300 reversed $195 $-1 #
loop $-1 $-1 $193 $276 #
vertex $-1 $119 $301 #
vertex $-1 $119 $302 #
straight-curve $-1 56.982940153202918 0 13.544317849111376 0 1 0 I I #
face $-1 $303 $304 $28 $-1 $305 reversed single #
loop $-1 $-1 $306 $120 #
plane-surface $-1 -62.126412113865356 0 -5.1246336783603947 0 0 1 1 0 0 forward_v I I I I #
coedge $-1 $307 $123 $308 $309 reversed $77 $-1 #
coedge $-1 $123 $307 $208 $310 reversed $77 $-1 #
edge $-1 $210 -1.312172450059423 $311 5.1246336783603947 $123 $312 forward 7 unknown #
coedge $-1 $125 $124 $306 $313 forward $49 $-1 #
coedge $-1 $314 $315 $124 $207 forward $316 $-1 #
edge $-1 $317 -5.1246336783603947 $211 1.312172450059423 $206 $318 forward 7 unknown #
coedge $-1 $319 $126 $203 $310 forward $121 $-1 #
coedge $-1 $126 $319 $314 $320 forward $121 $-1 #
vertex $-1 $204 $321 #
vertex $-1 $320 $322 #
straight-curve $-1 -56.982940153202918 0 1.312172450059423 0 -1 0 I I #
face $-1 $-1 $225 $29 $-1 $323 forward single #
loop $-1 $-1 $324 $128 #
plane-surface $-1 0 -28.995790052321812 0 0 1 0 0 0 1 forward_v I I I I #
coedge $-1 $325 $326 $327 $328 reversed $129 $-1 #
coedge $-1 $329 $131 $133 $223 forward $81 $-1 #
coedge $-1 $131 $329 $325 $330 forward $81 $-1 #
coedge $-1 $327 $134 $131 $220 forward $225 $-1 #
edge $-1 $227 4.9103037668490011 $331 16.954551679377179 $219 $332 forward 7 unknown #
coedge $-1 $333 $334 $132 $222 forward $214 $-1 #
edge $-1 $335 -46.012002293497524 $226 -37.092227179747312 $221 $336 forward 7 unknown #
edge $-1 $227 -16.832328239437516 $335 -3.9541977777422176e-015 $133 $337 forward 7 unknown #
coedge $-1 $134 $327 $333 $338 forward $225 $-1 #
loop $-1 $-1 $327 $213 #
vertex $-1 $222 $339 #
vertex $-1 $135 $340 #
straight-curve $-1 -15.842731489962091 -44.694253144700205 13.54431784911138 0 1 0 I I #
coedge $-1 $229 $229 $-1 $341 reversed $138 $-1 #
edge $-1 $342 0 $342 6.2831853071796004 $139 $343 forward 7 unknown #
vertex $-1 $142 $344 #
ellipse-curve $-1 -21.86485544622618 -21.858478130451509 9.0844302922362665 0 -0.52991927123019833 0.84804809178421925 2.5 0 0 1 I I #
face $-1 $-1 $245 $31 $-1 $345 forward single #
loop $-1 $-1 $346 $143 #
plane-surface $-1 0 -28.995790052321812 0 0 1 0 0 0 1 forward_v I I I I #
coedge $-1 $347 $348 $349 $350 reversed $144 $-1 #
coedge $-1 $351 $146 $148 $243 forward $90 $-1 #
coedge $-1 $146 $351 $347 $352 forward $90 $-1 #
coedge $-1 $349 $149 $146 $240 forward $245 $-1 #
edge $-1 $247 -21.009430329421242 $353 -8.9651824168930645 $239 $354 forward 7 unknown #
coedge $-1 $355 $356 $147 $242 forward $234 $-1 #
edge $-1 $357 -46.012002293497524 $246 -37.092227179747312 $241 $358 forward 7 unknown #
edge $-1 $247 -16.832328239437516 $357 -3.9541977777422176e-015 $148 $359 forward 7 unknown #
coedge $-1 $149 $349 $355 $360 forward $245 $-1 #
loop $-1 $-1 $349 $233 #
vertex $-1 $242 $361 #
vertex $-1 $150 $362 #
straight-curve $-1 35.996736702578396 -44.694253144700205 13.54431784911138 0 1 0 I I #
coedge $-1 $249 $249 $-1 $363 reversed $153 $-1 #
edge $-1 $364 0 $364 6.2831853071796004 $154 $365 forward 7 unknown #
vertex $-1 $157 $366 #
ellipse-curve $-1 29.974612746314307 -21.858478130451509 9.0844302922362665 0 -0.52991927123019833 0.84804809178421925 2.5 0 0 1 I I #
face $-1 $-1 $367 $33 $-1 $368 reversed single #
loop $-1 $-1 $164 $158 #
plane-surface $-1 0 0 13.544317849111376 0 0 1 1 0 0 forward_v I I I I #
coedge $-1 $369 $370 $371 $372 reversed $159 $-1 #
coedge $-1 $373 $161 $163 $263 forward $99 $-1 #
coedge $-1 $161 $373 $369 $374 forward $99 $-1 #
coedge $-1 $371 $164 $161 $260 forward $254 $-1 #
edge $-1 $266 -3.1980347522959356 $375 21.352107144069446 $259 $376 forward 7 unknown #
coedge $-1 $377 $378 $162 $262 forward $367 $-1 #
edge $-1 $379 -52.808201045592902 $265 -47.55111784012189 $261 $380 forward 7 unknown #
edge $-1 $266 51.493467965041901 $379 57.991580104643639 $163 $381 forward 7 unknown #
coedge $-1 $164 $371 $377 $382 forward $254 $-1 #
vertex $-1 $165 $383 #
vertex $-1 $165 $384 #
straight-curve $-1 5.8790014435908198 43.55476502117277 13.54431784911138 0 -1 0 I I #
coedge $-1 $268 $268 $-1 $385 reversed $168 $-1 #
edge $-1 $386 0 $386 6.2831853071796004 $169 $387 forward 7 unknown #
vertex $-1 $172 $388 #
ellipse-curve $-1 12.893327699695206 27.086042847218859 10.91577624637587 0 0.80901700255871778 0.5877852410284794 1.5 0 0 1 I I #
coedge $-1 $272 $272 $-1 $389 reversed $175 $-1 #
edge $-1 $390 0 $390 6.2831853071796004 $176 $391 forward 7 unknown #
vertex $-1 $179 $392 #
ellipse-curve $-1 23.414817083851801 27.086042847218859 10.91577624637587 0 0.80901700255871778 0.5877852410284794 1.5 0 0 1 I I #
face $-1 $-1 $195 $27 $-1 $393 reversed single #
loop $-1 $-1 $292 $180 #
plane-surface $-1 0 28.995790052321812 0 0 -1 0 0 0 -1 forward_v I I I I #
coedge $-1 $394 $290 $293 $395 forward $181 $-1 #
coedge $-1 $296 $183 $184 $284 reversed $113 $-1 #
coedge $-1 $290 $394 $183 $282 reversed $181 $-1 #
edge $-1 $297 -13.544317849111376 $396 13.544317849111376 $281 $397 forward 7 unknown #
coedge $-1 $185 $184 $394 $398 forward $73 $-1 #
edge $-1 $288 -56.982940153202918 $396 56.982940153202918 $280 $399 forward 7 unknown #
coedge $-1 $293 $292 $185 $286 reversed $277 $-1 #
edge $-1 $400 -56.982940153202918 $287 56.982940153202918 $285 $401 forward 7 unknown #
vertex $-1 $187 $402 #
vertex $-1 $299 $403 #
straight-curve $-1 56.982940153202918 0 -13.544317849111376 0 -1 0 I I #
coedge $-1 $279 $281 $188 $291 reversed $181 $-1 #
edge $-1 $294 -28.995790052321812 $297 28.995790052321812 $290 $404 forward 7 unknown #
coedge $-1 $285 $189 $194 $300 forward $277 $-1 #
coedge $-1 $189 $285 $279 $395 reversed $277 $-1 #
vertex $-1 $190 $405 #
straight-curve $-1 0 28.995790052321812 13.544317849111376 -1 0 0 I I #
coedge $-1 $191 $280 $193 $299 reversed $113 $-1 #
vertex $-1 $291 $406 #
straight-curve $-1 0 -28.995790052321812 13.544317849111376 1 0 0 I I #
edge $-1 $196 -13.544317849111376 $288 13.544317849111376 $193 $407 forward 7 unknown #
edge $-1 $197 -13.544317849111376 $287 13.544317849111376 $194 $408 forward 7 unknown #
point $-1 56.982940153202918 -28.995790052321812 13.544317849111376 #
point $-1 56.982940153202918 28.995790052321812 13.544317849111376 #
face $-1 $-1 $316 $28 $-1 $409 reversed single #
loop $-1 $-1 $410 $199 #
plane-surface $-1 -67.269884074527795 0 -1.9062306141504859 1 0 0 0 0 -1 forward_v I I I I #
coedge $-1 $411 $308 $205 $313 reversed $200 $-1 #
coedge $-1 $203 $202 $410 $412 reversed $77 $-1 #
coedge $-1 $306 $413 $202 $309 forward $200 $-1 #
edge $-1 $414 -5.1434719606624384 $311 5.1434719606624384 $202 $415 forward 7 unknown #
edge $-1 $210 -5.1434719606624384 $416 5.1434719606624384 $203 $417 forward 7 unknown #
vertex $-1 $204 $418 #
straight-curve $-1 -56.982940153202918 28.995790052321812 0 0 0 -1 I I #
edge $-1 $317 -28.995790052321812 $311 28.995790052321812 $306 $419 forward 7 unknown #
coedge $-1 $420 $206 $209 $320 reversed $316 $-1 #
coedge $-1 $206 $420 $411 $421 reversed $316 $-1 #
loop $-1 $-1 $206 $303 #
vertex $-1 $207 $422 #
straight-curve $-1 -56.982940153202918 -28.995790052321812 0 0 0 1 I I #
coedge $-1 $209 $208 $423 $424 forward $121 $-1 #
edge $-1 $425 -5.1434719606624384 $211 5.1434719606624384 $314 $426 forward 7 unknown #
point $-1 -56.982940153202918 28.995790052321812 1.312172450059423 #
point $-1 -56.982940153202918 -28.995790052321812 1.312172450059423 #
plane-surface $-1 0 0 13.544317849111376 0 0 1 1 0 0 forward_v I I I I #
coedge $-1 $334 $333 $326 $427 forward $214 $-1 #
coedge $-1 $326 $216 $218 $330 reversed $129 $-1 #
coedge $-1 $216 $325 $324 $427 reversed $129 $-1 #
coedge $-1 $224 $219 $216 $328 forward $225 $-1 #
edge $-1 $331 -29.973086936119003 $428 -15.698463092378393 $327 $429 forward 7 unknown #
coedge $-1 $218 $217 $334 $430 reversed $81 $-1 #
edge $-1 $431 3.9541977777422176e-015 $331 16.832328239437516 $325 $432 forward 7 unknown #
vertex $-1 $220 $433 #
straight-curve $-1 -10.93242772311309 -14.721166208581206 13.544317849111376 -1 0 0 I I #
coedge $-1 $324 $221 $224 $338 reversed $214 $-1 #
coedge $-1 $221 $324 $329 $430 forward $214 $-1 #
vertex $-1 $222 $434 #
straight-curve $-1 -15.842731489962091 -28.995790052321812 50.636545028858684 0 0 1 I I #
straight-curve $-1 -15.842731489962091 -28.995790052321816 4.6245427353611603 0 -0.84804809178421925 -0.52991927123019833 I I #
edge $-1 $428 -27.886979402490269 $226 -15.842731489962091 $333 $435 forward 7 unknown #
point $-1 -15.842731489962091 -28.995790052321812 13.544317849111376 #
point $-1 -15.842731489962091 -14.721166208581204 13.544317849111376 #
edge $-1 $436 1 $436 0 $229 $-1 forward 7 unknown #
vertex $-1 $230 $437 #
ellipse-curve $-1 -21.86485544622618 -20.366417460762555 6.6966341269476581 0 -0.52991927123019833 0.84804809178421925 2.5 0 0 1 I I #
point $-1 -19.36485544622618 -21.858478130451513 9.0844302922362736 #
plane-surface $-1 0 0 13.544317849111376 0 0 1 1 0 0 forward_v I I I I #
coedge $-1 $356 $355 $348 $438 forward $234 $-1 #
coedge $-1 $348 $236 $238 $352 reversed $144 $-1 #
coedge $-1 $236 $347 $346 $438 reversed $144 $-1 #
coedge $-1 $244 $239 $236 $350 forward $245 $-1 #
edge $-1 $353 -29.973086936119003 $439 -15.698463092378393 $349 $440 forward 7 unknown #
coedge $-1 $238 $237 $356 $441 reversed $90 $-1 #
edge $-1 $442 3.9541977777422176e-015 $353 16.832328239437516 $347 $443 forward 7 unknown #
vertex $-1 $240 $444 #
straight-curve $-1 14.987306373157153 -14.721166208581206 13.544317849111376 -1 0 0 I I #
coedge $-1 $346 $241 $244 $360 reversed $234 $-1 #
coedge $-1 $241 $346 $351 $441 forward $234 $-1 #
vertex $-1 $242 $445 #
straight-curve $-1 35.996736702578396 -28.995790052321812 50.636545028858684 0 0 1 I I #
straight-curve $-1 35.996736702578396 -28.995790052321816 4.6245427353611603 0 -0.84804809178421925 -0.52991927123019833 I I #
edge $-1 $439 23.952488790050218 $246 35.996736702578396 $355 $446 forward 7 unknown #
point $-1 35.996736702578396 -28.995790052321812 13.544317849111376 #
point $-1 35.996736702578396 -14.721166208581204 13.544317849111376 #
edge $-1 $447 1 $447 0 $249 $-1 forward 7 unknown #
vertex $-1 $250 $448 #
ellipse-curve $-1 29.974612746314307 -20.366417460762555 6.6966341269476581 0 -0.52991927123019833 0.84804809178421925 2.5 0 0 1 I I #
point $-1 32.474612746314307 -21.858478130451513 9.0844302922362736 #
loop $-1 $-1 $261 $253 #
plane-surface $-1 0 28.995790052321812 0 0 -1 0 0 0 -1 forward_v I I I I #
coedge $-1 $370 $256 $258 $374 reversed $159 $-1 #
coedge $-1 $256 $369 $449 $450 reversed $159 $-1 #
coedge $-1 $264 $259 $256 $372 forward $254 $-1 #
edge $-1 $375 -18.378469379056856 $451 -14.558974968850958 $371 $452 forward 7 unknown #
coedge $-1 $258 $257 $378 $453 reversed $99 $-1 #
edge $-1 $454 -57.991580104643639 $375 -51.493467965041901 $369 $455 forward 7 unknown #
vertex $-1 $260 $456 #
straight-curve $-1 9.0770361958867554 25.176295642115917 13.544317849111376 1 0 0 I I #
coedge $-1 $449 $261 $264 $382 reversed $367 $-1 #
coedge $-1 $261 $449 $373 $453 forward $367 $-1 #
vertex $-1 $262 $457 #
straight-curve $-1 5.8790014435908198 28.995790052321812 61.095435689233263 0 0 1 I I #
straight-curve $-1 5.8790014435908198 -5.0908048371085215 55.203408953542933 0 0.5877852410284794 -0.80901700255871778 I I #
edge $-1 $451 -30.429143339956202 $265 -5.8790014435908198 $377 $458 forward 7 unknown #
point $-1 5.8790014435908198 28.995790052321812 13.544317849111376 #
point $-1 5.8790014435908198 25.176295642115914 13.54431784911138 #
edge $-1 $459 1 $459 0 $268 $-1 forward 7 unknown #
vertex $-1 $269 $460 #
ellipse-curve $-1 12.893327699695206 25.154890350129357 9.5127118702571281 0 0.80901700255871778 0.5877852410284794 1.5 0 0 1 I I #
point $-1 14.393327699695206 27.086042847218884 10.915776246375891 #
edge $-1 $461 1 $461 0 $272 $-1 forward 7 unknown #
vertex $-1 $273 $462 #
ellipse-curve $-1 23.414817083851801 25.154890350129357 9.5127118702571281 0 0.80901700255871778 0.5877852410284794 1.5 0 0 1 I I #
point $-1 24.914817083851801 27.086042847218884 10.915776246375891 #
plane-surface $-1 56.982940153202918 0 0 -1 0 0 0 0 1 forward_v I I I I #
coedge $-1 $281 $279 $283 $398 reversed $181 $-1 #
edge $-1 $294 -13.544317849111376 $400 13.544317849111376 $293 $463 forward 7 unknown #
vertex $-1 $398 $464 #
straight-curve $-1 -56.982940153202918 -28.995790052321812 0 0 0 -1 I I #
edge $-1 $396 -28.995790052321812 $400 28.995790052321812 $394 $465 forward 7 unknown #
straight-curve $-1 0 -28.995790052321812 -13.544317849111376 -1 0 0 I I #
vertex $-1 $286 $466 #
straight-curve $-1 0 28.995790052321812 -13.544317849111376 1 0 0 I I #
point $-1 56.982940153202918 28.995790052321812 -13.544317849111376 #
point $-1 56.982940153202918 -28.995790052321812 -13.544317849111376 #
straight-curve $-1 -56.982940153202918 0 13.544317849111376 0 -1 0 I I #
point $-1 -56.982940153202918 28.995790052321812 13.544317849111376 #
point $-1 -56.982940153202918 -28.995790052321812 13.544317849111376 #
straight-curve $-1 56.982940153202918 -28.995790052321812 0 0 0 -1 I I #
straight-curve $-1 56.982940153202918 28.995790052321812 0 0 0 -1 I I #
plane-surface $-1 0 -28.995790052321812 0 0 1 0 0 0 1 forward_v I I I I #
coedge $-1 $467 $423 $307 $412 forward $304 $-1 #
coedge $-1 $413 $306 $315 $421 forward $200 $-1 #
edge $-1 $416 -3.2184030642099088 $414 3.2184030642099088 $307 $468 forward 7 unknown #
coedge $-1 $308 $411 $467 $469 forward $200 $-1 #
vertex $-1 $309 $470 #
straight-curve $-1 -62.126412113865356 28.995790052321812 -5.1246336783603947 1 0 0 I I #
vertex $-1 $310 $471 #
straight-curve $-1 -62.126412113865356 28.995790052321812 1.312172450059423 -1 0 0 I I #
point $-1 -56.982940153202918 28.995790052321812 -5.1246336783603947 #
straight-curve $-1 -56.982940153202918 0 -5.1246336783603947 0 1 0 I I #
coedge $-1 $315 $314 $472 $473 forward $316 $-1 #
edge $-1 $317 -5.1434719606624384 $474 5.1434719606624384 $315 $475 forward 7 unknown #
point $-1 -56.982940153202918 -28.995790052321812 -5.1246336783603947 #
coedge $-1 $410 $472 $319 $424 reversed $304 $-1 #
edge $-1 $416 -28.995790052321812 $425 28.995790052321812 $423 $476 forward 7 unknown #
vertex $-1 $424 $477 #
straight-curve $-1 -62.126412113865356 -28.995790052321812 1.312172450059423 1 0 0 I I #
edge $-1 $428 37.092227179747312 $431 46.012002293497524 $324 $478 forward 7 unknown #
vertex $-1 $338 $479 #
straight-curve $-1 -27.886979402490269 -44.694253144700205 13.54431784911138 0 -1 0 I I #
edge $-1 $431 -16.954551679377179 $335 -4.9103037668490011 $334 $480 forward 7 unknown #
vertex $-1 $430 $481 #
straight-curve $-1 -27.886979402490269 -28.995790052321816 4.6245427353611603 0 0.84804809178421925 0.52991927123019833 I I #
point $-1 -27.886979402490269 -14.721166208581204 13.544317849111376 #
point $-1 -15.842731489962091 -28.995790052321812 4.6245427353611621 #
straight-curve $-1 0 -28.995790052321812 13.544317849111376 1 0 0 I I #
vertex $-1 $341 $482 #
point $-1 -19.36485544622618 -20.366417460762555 6.6966341269476581 #
edge $-1 $439 37.092227179747312 $442 46.012002293497524 $346 $483 forward 7 unknown #
vertex $-1 $360 $484 #
straight-curve $-1 23.952488790050218 -44.694253144700205 13.54431784911138 0 -1 0 I I #
edge $-1 $442 8.9651824168930645 $357 21.009430329421242 $356 $485 forward 7 unknown #
vertex $-1 $441 $486 #
straight-curve $-1 23.952488790050218 -28.995790052321816 4.6245427353611603 0 0.84804809178421925 0.52991927123019833 I I #
point $-1 23.952488790050218 -14.721166208581204 13.544317849111376 #
point $-1 35.996736702578396 -28.995790052321812 4.6245427353611621 #
straight-curve $-1 0 -28.995790052321812 13.544317849111376 1 0 0 I I #
vertex $-1 $363 $487 #
point $-1 32.474612746314307 -20.366417460762555 6.6966341269476581 #
coedge $-1 $378 $377 $370 $450 forward $367 $-1 #
edge $-1 $451 47.55111784012189 $454 52.808201045592902 $449 $488 forward 7 unknown #
vertex $-1 $382 $489 #
straight-curve $-1 30.429143339956202 43.55476502117277 13.54431784911138 0 1 0 I I #
edge $-1 $454 -21.352107144069446 $379 3.1980347522959356 $378 $490 forward 7 unknown #
vertex $-1 $453 $491 #
straight-curve $-1 30.429143339956202 -5.0908048371085215 55.203408953542933 0 -0.5877852410284794 0.80901700255871778 I I #
point $-1 30.429143339956202 25.176295642115914 13.54431784911138 #
point $-1 5.8790014435908198 28.995790052321809 8.2872346436403603 #
straight-curve $-1 0 28.995790052321812 13.544317849111376 -1 0 0 I I #
vertex $-1 $385 $492 #
point $-1 14.393327699695206 25.154890350129357 9.5127118702571281 #
vertex $-1 $389 $493 #
point $-1 24.914817083851801 25.154890350129357 9.5127118702571281 #
straight-curve $-1 -56.982940153202918 28.995790052321812 0 0 0 -1 I I #
point $-1 -56.982940153202918 -28.995790052321812 -13.544317849111376 #
straight-curve $-1 -56.982940153202918 0 -13.544317849111376 0 1 0 I I #
point $-1 -56.982940153202918 28.995790052321812 -13.544317849111376 #
coedge $-1 $472 $410 $413 $469 reversed $304 $-1 #
straight-curve $-1 -67.269884074527795 28.995790052321812 -1.9062306141504859 0 0 -1 I I #
edge $-1 $474 -28.995790052321812 $414 28.995790052321812 $467 $494 forward 7 unknown #
point $-1 -67.269884074527795 28.995790052321812 -5.1246336783603947 #
point $-1 -67.269884074527795 28.995790052321812 1.312172450059423 #
coedge $-1 $423 $467 $420 $473 reversed $304 $-1 #
edge $-1 $425 -3.2184030642099088 $474 3.2184030642099088 $472 $495 forward 7 unknown #
vertex $-1 $469 $496 #
straight-curve $-1 -62.126412113865356 -28.995790052321812 -5.1246336783603947 -1 0 0 I I #
straight-curve $-1 -67.269884074527795 0 1.312172450059423 0 -1 0 I I #
point $-1 -67.269884074527795 -28.995790052321812 1.312172450059423 #
straight-curve $-1 -27.886979402490269 -28.995790052321812 50.636545028858684 0 0 -1 I I #
point $-1 -27.886979402490269 -28.995790052321812 13.544317849111376 #
straight-curve $-1 -10.93242772311309 -28.995790052321812 4.624542735361163 1 0 0 I I #
point $-1 -27.886979402490269 -28.995790052321812 4.6245427353611621 #
point $-1 -21.86485544622618 -19.041619282687059 4.5765138974871098 #
straight-curve $-1 23.952488790050218 -28.995790052321812 50.636545028858684 0 0 -1 I I #
point $-1 23.952488790050218 -28.995790052321812 13.544317849111376 #
straight-curve $-1 14.987306373157153 -28.995790052321812 4.624542735361163 1 0 0 I I #
point $-1 23.952488790050218 -28.995790052321812 4.6245427353611621 #
point $-1 29.974612746314307 -19.041619282687059 4.5765138974871098 #
straight-curve $-1 30.429143339956202 28.995790052321812 61.095435689233263 0 0 -1 I I #
point $-1 30.429143339956202 28.995790052321812 13.544317849111376 #
straight-curve $-1 9.0770361958867554 28.995790052321812 8.2872346436403639 -1 0 0 I I #
point $-1 30.429143339956202 28.995790052321809 8.2872346436403603 #
point $-1 12.893327699695206 23.941364846291279 8.6310340087144084 #
point $-1 23.414817083851801 23.941364846291279 8.6310340087144084 #
straight-curve $-1 -67.269884074527795 0 -5.1246336783603947 0 1 0 I I #
straight-curve $-1 -67.269884074527795 -28.995790052321812 -1.9062306141504859 0 0 -1 I I #
point $-1 -67.269884074527795 -28.995790052321812 -5.1246336783603947 #
End-of-ACIS-data 