500 0 8 0           
7 Unknown 11 ACIS 5.0 NT 24 Fri Mar 26 03:21:03 1999 
-1 9.9999999999999995e-007 1e-010 
body $-1 $8 $-1 $9 #
body $-1 $10 $-1 $11 #
body $-1 $12 $-1 $13 #
body $-1 $14 $-1 $15 #
body $-1 $16 $-1 $17 #
body $-1 $18 $-1 $19 #
body $-1 $20 $-1 $21 #
body $-1 $22 $-1 $23 #
lump $-1 $-1 $24 $0 #
transform $-1 1 0 0 0 1 0 0 0 1 44.896389660328992 24.536609305712258 7.6484550751837217 1 rotate no_reflect no_shear #
lump $-1 $-1 $25 $1 #
transform $-1 1 0 0 0 1 0 0 0 1 44.896389660328992 24.536609305712258 7.6484550751837217 1 rotate no_reflect no_shear #
lump $-1 $-1 $26 $2 #
transform $-1 1 0 0 0 1 0 0 0 1 44.896389660328992 24.536609305712258 7.6484550751837217 1 rotate no_reflect no_shear #
lump $-1 $-1 $27 $3 #
transform $-1 1 0 0 0 1 0 0 0 1 44.896389660328992 24.536609305712258 7.6484550751837217 1 rotate no_reflect no_shear #
lump $-1 $-1 $28 $4 #
transform $-1 1 0 0 0 1 0 0 0 1 44.896389660328992 24.536609305712258 7.6484550751837217 1 rotate no_reflect no_shear #
lump $-1 $-1 $29 $5 #
transform $-1 1 0 0 0 1 0 0 0 1 44.896389660328992 24.536609305712258 7.6484550751837217 1 rotate no_reflect no_shear #
lump $-1 $-1 $30 $6 #
transform $-1 1 0 0 0 1 0 0 0 1 44.896389660328992 24.536609305712258 7.6484550751837217 1 rotate no_reflect no_shear #
lump $-1 $-1 $31 $7 #
transform $-1 1 0 0 0 1 0 0 0 1 44.896389660328992 24.536609305712258 7.6484550751837217 1 rotate no_reflect no_shear #
shell $-1 $-1 $-1 $32 $-1 $8 #
shell $-1 $-1 $-1 $33 $-1 $10 #
shell $-1 $-1 $-1 $34 $-1 $12 #
shell $-1 $-1 $-1 $35 $-1 $14 #
shell $-1 $-1 $-1 $36 $-1 $16 #
shell $-1 $-1 $-1 $37 $-1 $18 #
shell $-1 $-1 $-1 $38 $-1 $20 #
shell $-1 $-1 $-1 $39 $-1 $22 #
face $-1 $40 $41 $24 $-1 $42 forward single #
face $-1 $43 $44 $25 $-1 $45 reversed single #
face $-1 $46 $47 $26 $-1 $48 reversed single #
face $-1 $49 $50 $27 $-1 $51 forward single #
face $-1 $52 $53 $28 $-1 $54 forward single #
face $-1 $55 $56 $29 $-1 $57 reversed single #
face $-1 $58 $59 $30 $-1 $60 forward single #
face $-1 $61 $62 $31 $-1 $63 forward single #
face $-1 $64 $65 $24 $-1 $66 reversed single #
loop $-1 $-1 $67 $32 #
plane-surface $-1 0 0 7.6484550751837217 0 0 1 1 0 0 forward_v I I I I #
face $-1 $68 $69 $25 $-1 $70 reversed single #
loop $-1 $-1 $71 $33 #
plane-surface $-1 0 -21.071331862119443 4.6484550751837217 0 0 1 1 0 0 forward_v I I I I #
face $-1 $72 $73 $26 $-1 $74 reversed single #
loop $-1 $-1 $75 $34 #
plane-surface $-1 -93.801042981598158 13.326694009384713 76.549572483471877 0 1 0 -0.54463904215088732 0 0.83867056331134215 forward_v I I I I #
face $-1 $76 $77 $27 $-1 $78 forward single #
loop $-1 $79 $80 $35 #
cone-surface $-1 -39.356547231412883 16.529526951192583 3.5093667873308592 0.54463904215088732 0 -0.83867056331134215 0.83867056331134215 0 0.54463904215088732 1 I I 0 1 1 forward I I I I #
face $-1 $81 $82 $28 $-1 $83 forward single #
loop $-1 $84 $85 $36 #
cone-surface $-1 -39.356547231412883 21.333776363904388 3.5093667873308592 0.54463904215088732 0 -0.83867056331134215 0.83867056331134215 0 0.54463904215088732 1 I I 0 1 1 forward I I I I #
face $-1 $86 $87 $29 $-1 $88 reversed single #
loop $-1 $-1 $89 $37 #
plane-surface $-1 -30.410171153818276 18.931651657548482 50.147664990593796 0.54463904215088732 0 0.83867056331134215 0.83867056331134215 0 -0.54463904215088732 forward_v I I I I #
face $-1 $90 $91 $30 $-1 $92 forward single #
loop $-1 $93 $94 $38 #
cone-surface $-1 39.356547231412883 16.529526951192583 3.5093667873308592 -0.54463904215088732 0 -0.83867056331134215 0.83867056331134215 0 -0.54463904215088732 1 I I 0 1 1 forward I I I I #
face $-1 $95 $96 $31 $-1 $97 forward single #
loop $-1 $98 $99 $39 #
cone-surface $-1 39.356547231412883 21.333776363904388 3.5093667873308592 -0.54463904215088732 0 -0.83867056331134215 0.83867056331134215 0 -0.54463904215088732 1 I I 0 1 1 forward I I I I #
face $-1 $100 $101 $24 $-1 $102 reversed single #
loop $-1 $-1 $103 $40 #
plane-surface $-1 0 0 -7.6484550751837217 0 0 1 1 0 0 forward_v I I I I #
coedge $-1 $104 $105 $106 $107 forward $41 $-1 #
face $-1 $108 $109 $25 $-1 $110 reversed single #
loop $-1 $-1 $111 $43 #
plane-surface $-1 0 -17.606054418526629 6.1484550751837217 0 -1 0 0 0 -1 forward_v I I I I #
coedge $-1 $112 $113 $114 $115 reversed $44 $-1 #
face $-1 $116 $117 $26 $-1 $118 forward single #
loop $-1 $-1 $119 $46 #
plane-surface $-1 -44.896389660328992 18.931651657548482 1.2430116693246163 -0.54463904215088732 0 0.83867056331134215 0.83867056331134215 0 0.54463904215088732 forward_v I I I I #
coedge $-1 $120 $121 $122 $123 reversed $47 $-1 #
face $-1 $-1 $124 $27 $-1 $125 forward single #
loop $-1 $126 $127 $49 #
cone-surface $-1 -38.476144128744735 16.529526951192583 2.1536649207518765 0.54463904215088732 0 -0.83867056331134215 0.41933528165567108 0 0.27231952107544366 1 I I -0.70710678118654746 0.70710678118654746 0.5 forward I I I I #
loop $-1 $-1 $128 $35 #
coedge $-1 $80 $80 $129 $130 reversed $50 $-1 #
face $-1 $-1 $131 $28 $-1 $132 forward single #
loop $-1 $133 $134 $52 #
cone-surface $-1 -38.476144128744735 21.333776363904388 2.1536649207518765 0.54463904215088732 0 -0.83867056331134215 0.41933528165567108 0 0.27231952107544366 1 I I -0.70710678118654746 0.70710678118654746 0.5 forward I I I I #
loop $-1 $-1 $135 $36 #
coedge $-1 $85 $85 $136 $137 reversed $53 $-1 #
face $-1 $138 $139 $29 $-1 $140 forward single #
loop $-1 $-1 $141 $55 #
plane-surface $-1 18.49448216745089 13.326694009384713 125.45422580474106 0 1 0 0.54463904215088732 0 0.83867056331134215 forward_v I I I I #
coedge $-1 $142 $143 $144 $145 reversed $56 $-1 #
face $-1 $-1 $146 $30 $-1 $147 forward single #
loop $-1 $148 $149 $58 #
cone-surface $-1 38.476144128744735 16.529526951192583 2.1536649207518765 -0.54463904215088732 0 -0.83867056331134215 0.41933528165567108 0 -0.27231952107544366 1 I I -0.70710678118654746 0.70710678118654746 0.5 forward I I I I #
loop $-1 $-1 $150 $38 #
coedge $-1 $94 $94 $151 $152 reversed $59 $-1 #
face $-1 $-1 $153 $31 $-1 $154 forward single #
loop $-1 $155 $156 $61 #
cone-surface $-1 38.476144128744735 21.333776363904388 2.1536649207518765 -0.54463904215088732 0 -0.83867056331134215 0.41933528165567108 0 -0.27231952107544366 1 I I -0.70710678118654746 0.70710678118654746 0.5 forward I I I I #
loop $-1 $-1 $157 $39 #
coedge $-1 $99 $99 $158 $159 reversed $62 $-1 #
face $-1 $160 $161 $24 $-1 $162 reversed single #
loop $-1 $-1 $163 $64 #
plane-surface $-1 0 -24.536609305712258 0 0 1 0 0 0 1 forward_v I I I I #
coedge $-1 $164 $165 $166 $167 forward $65 $-1 #
coedge $-1 $168 $67 $169 $170 forward $41 $-1 #
coedge $-1 $67 $168 $171 $172 forward $41 $-1 #
coedge $-1 $173 $174 $67 $107 reversed $175 $-1 #
edge $-1 $176 -24.536609305712258 $177 24.536609305712258 $106 $178 forward 7 unknown #
face $-1 $179 $180 $25 $-1 $181 reversed single #
loop $-1 $-1 $182 $68 #
plane-surface $-1 -44.896389660328992 0 0 1 0 0 0 0 -1 forward_v I I I I #
coedge $-1 $183 $184 $185 $186 reversed $69 $-1 #
coedge $-1 $187 $71 $188 $189 reversed $44 $-1 #
coedge $-1 $71 $187 $183 $190 forward $44 $-1 #
coedge $-1 $185 $191 $71 $115 forward $192 $-1 #
edge $-1 $193 -14.000943374652536 $194 -7.0703884874669072 $114 $195 forward 7 unknown #
face $-1 $196 $197 $26 $-1 $198 reversed single #
loop $-1 $-1 $122 $72 #
plane-surface $-1 0 0 7.6484550751837217 0 0 1 1 0 0 forward_v I I I I #
coedge $-1 $199 $200 $201 $202 reversed $73 $-1 #
coedge $-1 $121 $75 $203 $204 reversed $47 $-1 #
coedge $-1 $75 $120 $199 $205 reversed $47 $-1 #
coedge $-1 $201 $206 $75 $123 forward $117 $-1 #
edge $-1 $207 2.0041318304700866 $208 11.867649525116917 $122 $209 forward 7 unknown #
loop $-1 $-1 $129 $76 #
plane-surface $-1 -44.896389660328992 18.931651657548482 1.2430116693246163 -0.54463904215088732 0 0.83867056331134215 0.83867056331134215 0 0.54463904215088732 forward_v I I I I #
loop $-1 $-1 $210 $49 #
coedge $-1 $127 $127 $128 $211 reversed $77 $-1 #
coedge $-1 $128 $128 $127 $211 forward $79 $-1 #
coedge $-1 $129 $129 $80 $130 forward $124 $-1 #
edge $-1 $212 0 $212 6.2831853071796004 $129 $213 forward 7 unknown #
loop $-1 $-1 $136 $81 #
plane-surface $-1 -44.896389660328992 18.931651657548482 1.2430116693246163 -0.54463904215088732 0 0.83867056331134215 0.83867056331134215 0 0.54463904215088732 forward_v I I I I #
loop $-1 $-1 $214 $52 #
coedge $-1 $134 $134 $135 $215 reversed $82 $-1 #
coedge $-1 $135 $135 $134 $215 forward $84 $-1 #
coedge $-1 $136 $136 $85 $137 forward $131 $-1 #
edge $-1 $216 0 $216 6.2831853071796004 $136 $217 forward 7 unknown #
face $-1 $218 $219 $29 $-1 $220 reversed single #
loop $-1 $-1 $144 $86 #
plane-surface $-1 0 0 7.6484550751837217 0 0 1 1 0 0 forward_v I I I I #
coedge $-1 $221 $222 $223 $224 reversed $87 $-1 #
coedge $-1 $225 $89 $226 $227 reversed $56 $-1 #
coedge $-1 $89 $225 $221 $228 forward $56 $-1 #
coedge $-1 $223 $229 $89 $145 forward $139 $-1 #
edge $-1 $230 -15.07078347693801 $231 -3.8608681806104723 $144 $232 forward 7 unknown #
loop $-1 $-1 $151 $90 #
plane-surface $-1 -30.410171153818276 18.931651657548482 50.147664990593796 0.54463904215088732 0 0.83867056331134215 0.83867056331134215 0 -0.54463904215088732 forward_v I I I I #
loop $-1 $-1 $233 $58 #
coedge $-1 $149 $149 $150 $234 reversed $91 $-1 #
coedge $-1 $150 $150 $149 $234 forward $93 $-1 #
coedge $-1 $151 $151 $94 $152 forward $146 $-1 #
edge $-1 $235 0 $235 6.2831853071796004 $151 $236 forward 7 unknown #
loop $-1 $-1 $158 $95 #
plane-surface $-1 -30.410171153818276 18.931651657548482 50.147664990593796 0.54463904215088732 0 0.83867056331134215 0.83867056331134215 0 -0.54463904215088732 forward_v I I I I #
loop $-1 $-1 $237 $61 #
coedge $-1 $156 $156 $157 $238 reversed $96 $-1 #
coedge $-1 $157 $157 $156 $238 forward $98 $-1 #
coedge $-1 $158 $158 $99 $159 forward $153 $-1 #
edge $-1 $239 0 $239 6.2831853071796004 $158 $240 forward 7 unknown #
face $-1 $241 $242 $24 $-1 $243 reversed single #
loop $-1 $-1 $244 $100 #
plane-surface $-1 -44.896389660328992 0 0 1 0 0 0 0 -1 forward_v I I I I #
coedge $-1 $245 $171 $246 $247 forward $101 $-1 #
coedge $-1 $248 $103 $245 $249 forward $65 $-1 #
coedge $-1 $103 $248 $250 $251 forward $65 $-1 #
coedge $-1 $174 $173 $103 $167 reversed $175 $-1 #
edge $-1 $252 -24.536609305712258 $253 24.536609305712258 $166 $254 forward 7 unknown #
coedge $-1 $105 $104 $255 $256 forward $41 $-1 #
coedge $-1 $257 $258 $104 $170 reversed $242 $-1 #
edge $-1 $177 -44.896389660328992 $259 44.896389660328992 $169 $260 forward 7 unknown #
coedge $-1 $163 $261 $105 $172 reversed $101 $-1 #
edge $-1 $262 -44.896389660328992 $176 44.896389660328992 $171 $263 forward 7 unknown #
coedge $-1 $166 $106 $261 $264 forward $175 $-1 #
coedge $-1 $106 $166 $257 $265 reversed $175 $-1 #
loop $-1 $-1 $173 $241 #
vertex $-1 $107 $266 #
vertex $-1 $107 $267 #
straight-curve $-1 44.896389660328992 0 7.6484550751837217 0 1 0 I I #
face $-1 $268 $269 $25 $-1 $270 forward single #
loop $-1 $-1 $188 $108 #
plane-surface $-1 0 -24.536609305712258 0 0 1 0 0 0 1 forward_v I I I I #
coedge $-1 $271 $272 $273 $274 forward $109 $-1 #
coedge $-1 $273 $111 $113 $190 reversed $69 $-1 #
coedge $-1 $111 $273 $275 $276 reversed $69 $-1 #
coedge $-1 $277 $114 $111 $186 forward $192 $-1 #
edge $-1 $194 1.5742275375918608 $278 4.5742275375918613 $185 $279 forward 7 unknown #
coedge $-1 $113 $112 $271 $280 reversed $44 $-1 #
coedge $-1 $281 $282 $112 $189 forward $180 $-1 #
edge $-1 $283 -44.896389660328992 $193 44.896389660328992 $188 $284 forward 7 unknown #
edge $-1 $285 -44.896389660328992 $194 44.896389660328992 $183 $286 forward 7 unknown #
coedge $-1 $114 $277 $281 $287 forward $192 $-1 #
loop $-1 $-1 $185 $268 #
vertex $-1 $189 $288 #
vertex $-1 $115 $289 #
straight-curve $-1 44.896389660328992 -10.535665931059722 4.6484550751837217 0 1 0 I I #
face $-1 $-1 $290 $26 $-1 $291 reversed single #
loop $-1 $-1 $292 $116 #
plane-surface $-1 0 24.536609305712258 0 0 -1 0 0 0 -1 forward_v I I I I #
coedge $-1 $293 $119 $121 $205 forward $73 $-1 #
coedge $-1 $119 $293 $292 $294 reversed $73 $-1 #
coedge $-1 $295 $122 $119 $202 forward $117 $-1 #
edge $-1 $208 3.8608681806104723 $296 15.07078347693801 $201 $297 forward 7 unknown #
coedge $-1 $298 $299 $120 $204 forward $290 $-1 #
edge $-1 $300 -37.031774572411322 $207 -30.626331166552216 $203 $301 forward 7 unknown #
edge $-1 $208 -11.760896502319669 $300 0 $121 $302 forward 7 unknown #
coedge $-1 $122 $295 $298 $303 forward $117 $-1 #
vertex $-1 $204 $304 #
vertex $-1 $123 $305 #
straight-curve $-1 -46.900521490799079 13.326694009384713 7.648455075183719 1 0 0 I I #
coedge $-1 $210 $210 $-1 $306 reversed $126 $-1 #
edge $-1 $307 0 $307 6.2831853071796004 $127 $308 forward 7 unknown #
vertex $-1 $130 $309 #
ellipse-curve $-1 -39.964630813005584 16.529526951192583 4.4457333722541659 -0.54463904215088732 0 0.83867056331134215 0.83867056331134215 0 0.54463904215088732 1 I I #
coedge $-1 $214 $214 $-1 $310 reversed $133 $-1 #
edge $-1 $311 0 $311 6.2831853071796004 $134 $312 forward 7 unknown #
vertex $-1 $137 $313 #
ellipse-curve $-1 -39.964630813005584 21.333776363904388 4.4457333722541659 -0.54463904215088732 0 0.83867056331134215 0.83867056331134215 0 0.54463904215088732 1 I I #
face $-1 $-1 $314 $29 $-1 $315 reversed single #
loop $-1 $-1 $316 $138 #
plane-surface $-1 44.896389660328992 0 0 -1 0 0 0 0 1 forward_v I I I I #
coedge $-1 $222 $141 $143 $228 reversed $87 $-1 #
coedge $-1 $141 $221 $317 $318 reversed $87 $-1 #
coedge $-1 $319 $144 $141 $224 forward $139 $-1 #
edge $-1 $231 25.785630881956738 $320 35.649148576603551 $223 $321 forward 7 unknown #
coedge $-1 $143 $142 $316 $322 reversed $56 $-1 #
coedge $-1 $323 $324 $142 $227 forward $314 $-1 #
edge $-1 $325 -63.384533521384142 $230 -51.623637019064496 $226 $326 forward 7 unknown #
edge $-1 $327 -89.792779320657985 $231 -78.031882818338346 $221 $328 forward 7 unknown #
coedge $-1 $144 $319 $323 $329 forward $139 $-1 #
vertex $-1 $227 $330 #
vertex $-1 $145 $331 #
straight-curve $-1 35.03287196568219 9.4658258287742409 7.648455075183719 0 -1 0 I I #
coedge $-1 $233 $233 $-1 $332 reversed $148 $-1 #
edge $-1 $333 0 $333 6.2831853071796004 $149 $334 forward 7 unknown #
vertex $-1 $152 $335 #
ellipse-curve $-1 39.964630813005584 16.529526951192583 4.4457333722541739 0.54463904215088732 0 0.83867056331134215 0.83867056331134215 0 -0.54463904215088732 1 I I #
coedge $-1 $237 $237 $-1 $336 reversed $155 $-1 #
edge $-1 $337 0 $337 6.2831853071796004 $156 $338 forward 7 unknown #
vertex $-1 $159 $339 #
ellipse-curve $-1 39.964630813005584 21.333776363904388 4.4457333722541739 0.54463904215088732 0 0.83867056331134215 0.83867056331134215 0 -0.54463904215088732 1 I I #
face $-1 $-1 $175 $24 $-1 $340 reversed single #
loop $-1 $-1 $257 $160 #
plane-surface $-1 0 24.536609305712258 0 0 -1 0 0 0 -1 forward_v I I I I #
coedge $-1 $341 $255 $258 $342 forward $161 $-1 #
coedge $-1 $261 $163 $164 $249 reversed $101 $-1 #
coedge $-1 $255 $341 $163 $247 reversed $161 $-1 #
edge $-1 $262 -7.6484550751837217 $343 7.6484550751837217 $246 $344 forward 7 unknown #
coedge $-1 $165 $164 $341 $345 forward $65 $-1 #
edge $-1 $253 -44.896389660328992 $343 44.896389660328992 $245 $346 forward 7 unknown #
coedge $-1 $258 $257 $165 $251 reversed $242 $-1 #
edge $-1 $347 -44.896389660328992 $252 44.896389660328992 $250 $348 forward 7 unknown #
vertex $-1 $167 $349 #
vertex $-1 $264 $350 #
straight-curve $-1 44.896389660328992 0 -7.6484550751837217 0 -1 0 I I #
coedge $-1 $244 $246 $168 $256 reversed $161 $-1 #
edge $-1 $259 -24.536609305712258 $262 24.536609305712258 $255 $351 forward 7 unknown #
coedge $-1 $250 $169 $174 $265 forward $242 $-1 #
coedge $-1 $169 $250 $244 $342 reversed $242 $-1 #
vertex $-1 $170 $352 #
straight-curve $-1 0 24.536609305712258 7.6484550751837217 -1 0 0 I I #
coedge $-1 $171 $245 $173 $264 reversed $101 $-1 #
vertex $-1 $256 $353 #
straight-curve $-1 0 -24.536609305712258 7.6484550751837217 1 0 0 I I #
edge $-1 $176 -7.6484550751837217 $253 7.6484550751837217 $173 $354 forward 7 unknown #
edge $-1 $177 -7.6484550751837217 $252 7.6484550751837217 $174 $355 forward 7 unknown #
point $-1 44.896389660328992 -24.536609305712258 7.6484550751837217 #
point $-1 44.896389660328992 24.536609305712258 7.6484550751837217 #
face $-1 $-1 $192 $25 $-1 $356 reversed single #
loop $-1 $-1 $275 $179 #
plane-surface $-1 0 0 7.6484550751837217 0 0 1 1 0 0 forward_v I I I I #
coedge $-1 $357 $182 $187 $280 forward $109 $-1 #
coedge $-1 $182 $357 $358 $359 reversed $109 $-1 #
coedge $-1 $184 $183 $182 $274 reversed $69 $-1 #
edge $-1 $360 -4.5742275375918613 $285 -1.5742275375918608 $182 $361 forward 7 unknown #
coedge $-1 $358 $362 $184 $276 forward $269 $-1 #
edge $-1 $278 -44.896389660328992 $360 44.896389660328992 $275 $363 forward 7 unknown #
coedge $-1 $191 $185 $362 $364 reversed $192 $-1 #
vertex $-1 $186 $365 #
straight-curve $-1 44.896389660328992 -17.606054418526629 3.0742275375918608 0 0 1 I I #
edge $-1 $285 7.0703884874669072 $283 14.000943374652536 $271 $366 forward 7 unknown #
coedge $-1 $367 $188 $191 $287 reversed $180 $-1 #
coedge $-1 $188 $367 $357 $368 forward $180 $-1 #
vertex $-1 $189 $369 #
straight-curve $-1 0 -24.536609305712258 4.6484550751837217 1 0 0 I I #
vertex $-1 $280 $370 #
straight-curve $-1 0 -17.606054418526629 4.6484550751837217 1 0 0 I I #
edge $-1 $371 -7.6484550751837217 $193 -4.6484550751837217 $191 $372 forward 7 unknown #
point $-1 44.896389660328992 -24.536609305712258 4.6484550751837217 #
point $-1 44.896389660328992 -17.606054418526629 4.6484550751837217 #
loop $-1 $-1 $203 $196 #
plane-surface $-1 -44.896389660328992 0 0 1 0 0 0 0 -1 forward_v I I I I #
coedge $-1 $373 $374 $200 $294 forward $197 $-1 #
coedge $-1 $200 $199 $299 $375 reversed $73 $-1 #
edge $-1 $296 6.7272473587354824 $376 18.48814386105515 $292 $377 forward 7 unknown #
coedge $-1 $206 $201 $374 $378 forward $117 $-1 #
vertex $-1 $378 $379 #
straight-curve $-1 -35.032871965682162 9.4658258287742409 7.6484550751837217 0 1 0 I I #
coedge $-1 $380 $203 $206 $303 reversed $290 $-1 #
coedge $-1 $203 $380 $293 $375 forward $290 $-1 #
vertex $-1 $204 $381 #
straight-curve $-1 -44.896389660328992 13.326694009384713 38.274786241735939 0 0 1 I I #
straight-curve $-1 -44.896389660328992 13.326694009384713 1.2430116693246163 -0.83867056331134215 0 -0.54463904215088732 I I #
edge $-1 $382 -24.536609305712258 $207 -13.326694009384713 $298 $383 forward 7 unknown #
point $-1 -44.896389660328992 13.326694009384713 7.6484550751837217 #
point $-1 -35.032871965682162 13.326694009384713 7.6484550751837217 #
edge $-1 $384 1 $384 0 $210 $-1 forward 7 unknown #
vertex $-1 $211 $385 #
ellipse-curve $-1 -38.748463649820181 16.529526951192583 2.5730002024075476 -0.54463904215088732 0 0.83867056331134215 0.83867056331134215 0 0.54463904215088732 1 I I #
point $-1 -39.125960249694238 16.529526951192583 4.9903724144050585 #
edge $-1 $386 1 $386 0 $214 $-1 forward 7 unknown #
vertex $-1 $215 $387 #
ellipse-curve $-1 -38.748463649820181 21.333776363904388 2.5730002024075476 -0.54463904215088732 0 0.83867056331134215 0.83867056331134215 0 0.54463904215088732 1 I I #
point $-1 -39.125960249694238 21.333776363904388 4.9903724144050585 #
loop $-1 $-1 $226 $218 #
plane-surface $-1 0 24.536609305712258 0 0 -1 0 0 0 -1 forward_v I I I I #
coedge $-1 $388 $317 $225 $322 forward $219 $-1 #
coedge $-1 $316 $389 $222 $318 forward $219 $-1 #
edge $-1 $320 55.078657827186809 $327 61.484101233045905 $317 $390 forward 7 unknown #
coedge $-1 $229 $223 $389 $391 forward $139 $-1 #
vertex $-1 $391 $392 #
straight-curve $-1 9.2472410837254451 13.326694009384713 7.648455075183719 1 0 0 I I #
edge $-1 $327 3.8608681806104723 $325 15.07078347693801 $316 $393 forward 7 unknown #
coedge $-1 $324 $226 $229 $329 reversed $314 $-1 #
coedge $-1 $226 $323 $388 $394 forward $314 $-1 #
vertex $-1 $227 $395 #
straight-curve $-1 -8.2623527732768931 24.536609305712258 35.764703293592092 -0.83867056331134215 0 0.54463904215088732 I I #
vertex $-1 $322 $396 #
straight-curve $-1 -30.410171153818276 13.326694009384713 50.147664990593796 -0.83867056331134215 0 0.54463904215088732 I I #
edge $-1 $397 -44.896389660328992 $230 -35.032871965682183 $323 $398 forward 7 unknown #
point $-1 35.032871965682183 24.536609305712251 7.648455075183719 #
point $-1 35.032871965682183 13.326694009384713 7.648455075183719 #
edge $-1 $399 1 $399 0 $233 $-1 forward 7 unknown #
vertex $-1 $234 $400 #
ellipse-curve $-1 38.748463649820181 16.529526951192583 2.5730002024075476 0.54463904215088732 0 0.83867056331134215 0.83867056331134215 0 -0.54463904215088732 1 I I #
point $-1 40.803301376316924 16.529526951192583 3.9010943301032834 #
edge $-1 $401 1 $401 0 $237 $-1 forward 7 unknown #
vertex $-1 $238 $402 #
ellipse-curve $-1 38.748463649820181 21.333776363904388 2.5730002024075476 0.54463904215088732 0 0.83867056331134215 0.83867056331134215 0 -0.54463904215088732 1 I I #
point $-1 40.803301376316924 21.333776363904388 3.9010943301032834 #
plane-surface $-1 44.896389660328992 0 0 -1 0 0 0 0 1 forward_v I I I I #
coedge $-1 $246 $244 $248 $345 reversed $161 $-1 #
edge $-1 $259 -7.6484550751837217 $347 7.6484550751837217 $258 $403 forward 7 unknown #
vertex $-1 $345 $404 #
straight-curve $-1 -44.896389660328992 -24.536609305712258 0 0 0 -1 I I #
edge $-1 $343 -24.536609305712258 $347 24.536609305712258 $341 $405 forward 7 unknown #
straight-curve $-1 0 -24.536609305712258 -7.6484550751837217 -1 0 0 I I #
vertex $-1 $251 $406 #
straight-curve $-1 0 24.536609305712258 -7.6484550751837217 1 0 0 I I #
point $-1 44.896389660328992 24.536609305712258 -7.6484550751837217 #
point $-1 44.896389660328992 -24.536609305712258 -7.6484550751837217 #
straight-curve $-1 -44.896389660328992 0 7.6484550751837217 0 -1 0 I I #
point $-1 -44.896389660328992 24.536609305712258 7.6484550751837217 #
point $-1 -44.896389660328992 -24.536609305712258 7.6484550751837217 #
straight-curve $-1 44.896389660328992 -24.536609305712258 0 0 0 -1 I I #
straight-curve $-1 44.896389660328992 24.536609305712258 0 0 0 -1 I I #
plane-surface $-1 44.896389660328992 0 0 -1 0 0 0 0 1 forward_v I I I I #
coedge $-1 $272 $271 $282 $368 reversed $109 $-1 #
coedge $-1 $407 $275 $272 $359 forward $269 $-1 #
edge $-1 $360 17.606054418526629 $408 24.536609305712258 $272 $409 forward 7 unknown #
vertex $-1 $359 $410 #
straight-curve $-1 -44.896389660328992 -17.606054418526629 3.0742275375918608 0 0 -1 I I #
coedge $-1 $275 $407 $277 $364 forward $269 $-1 #
straight-curve $-1 0 -17.606054418526629 7.6484550751837217 -1 0 0 I I #
edge $-1 $371 -24.536609305712258 $278 -17.606054418526629 $277 $411 forward 7 unknown #
point $-1 44.896389660328992 -17.606054418526629 7.6484550751837217 #
straight-curve $-1 -44.896389660328992 -10.535665931059722 4.6484550751837217 0 -1 0 I I #
coedge $-1 $282 $281 $407 $412 reversed $180 $-1 #
edge $-1 $408 -7.6484550751837217 $283 -4.6484550751837217 $357 $413 forward 7 unknown #
point $-1 -44.896389660328992 -24.536609305712258 4.6484550751837217 #
point $-1 -44.896389660328992 -17.606054418526629 4.6484550751837217 #
vertex $-1 $364 $414 #
straight-curve $-1 44.896389660328992 -24.536609305712258 0 0 0 -1 I I #
coedge $-1 $374 $292 $380 $415 reversed $197 $-1 #
coedge $-1 $292 $373 $295 $378 reversed $197 $-1 #
edge $-1 $376 -15.07078347693801 $300 -3.8608681806104723 $299 $416 forward 7 unknown #
vertex $-1 $294 $417 #
straight-curve $-1 -29.390927633796736 24.536609305712258 11.3123766329575 -0.83867056331134215 0 -0.54463904215088732 I I #
edge $-1 $296 35.032871965682162 $382 44.896389660328992 $374 $418 forward 7 unknown #
point $-1 -35.032871965682162 24.536609305712251 7.6484550751837217 #
coedge $-1 $299 $298 $373 $415 forward $290 $-1 #
point $-1 -44.896389660328992 13.326694009384713 1.2430116693246163 #
vertex $-1 $378 $419 #
straight-curve $-1 -44.896389660328992 0 7.6484550751837217 0 -1 0 I I #
vertex $-1 $306 $420 #
point $-1 -37.909793086508834 16.529526951192583 3.1176392445584349 #
vertex $-1 $310 $421 #
point $-1 -37.909793086508834 21.333776363904388 3.1176392445584349 #
coedge $-1 $389 $316 $324 $394 reversed $219 $-1 #
coedge $-1 $317 $388 $319 $391 reversed $219 $-1 #
straight-curve $-1 44.896389660328992 13.326694009384713 62.727112902370529 0 0 -1 I I #
edge $-1 $320 13.326694009384713 $397 24.536609305712258 $389 $422 forward 7 unknown #
point $-1 44.896389660328992 13.326694009384713 7.6484550751837217 #
straight-curve $-1 44.896389660328992 9.4658258287742409 1.2430116693246305 0 1 0 I I #
edge $-1 $397 -7.6484550751837217 $325 -1.2430116693246234 $388 $423 forward 7 unknown #
point $-1 44.896389660329 24.536609305712251 1.2430116693246234 #
point $-1 44.896389660329 13.326694009384713 1.2430116693246234 #
vertex $-1 $391 $424 #
straight-curve $-1 0 24.536609305712258 7.6484550751837217 -1 0 0 I I #
vertex $-1 $332 $425 #
point $-1 39.58713421313152 16.529526951192583 2.0283611602566602 #
vertex $-1 $336 $426 #
point $-1 39.58713421313152 21.333776363904388 2.0283611602566602 #
straight-curve $-1 -44.896389660328992 24.536609305712258 0 0 0 -1 I I #
point $-1 -44.896389660328992 -24.536609305712258 -7.6484550751837217 #
straight-curve $-1 -44.896389660328992 0 -7.6484550751837217 0 1 0 I I #
point $-1 -44.896389660328992 24.536609305712258 -7.6484550751837217 #
coedge $-1 $362 $358 $367 $412 forward $269 $-1 #
vertex $-1 $359 $427 #
straight-curve $-1 -44.896389660328992 0 7.6484550751837217 0 -1 0 I I #
point $-1 -44.896389660328992 -17.606054418526629 7.6484550751837217 #
straight-curve $-1 44.896389660328992 0 7.6484550751837217 0 1 0 I I #
edge $-1 $408 -44.896389660328992 $371 44.896389660328992 $367 $428 forward 7 unknown #
straight-curve $-1 -44.896389660328992 -24.536609305712258 0 0 0 -1 I I #
point $-1 44.896389660328992 -24.536609305712258 7.6484550751837217 #
edge $-1 $382 -7.6484550751837217 $376 -1.2430116693246163 $373 $429 forward 7 unknown #
straight-curve $-1 -44.896389660328992 9.4658258287742409 1.2430116693246158 0 -1 0 I I #
point $-1 -44.896389660328992 24.536609305712251 1.2430116693246163 #
straight-curve $-1 0 24.536609305712258 7.6484550751837217 -1 0 0 I I #
point $-1 -44.896389660328992 24.536609305712258 7.6484550751837217 #
point $-1 -38.20382460766929 16.529526951192583 1.7343296390962055 #
point $-1 -38.20382460766929 21.333776363904388 1.7343296390962055 #
straight-curve $-1 44.896389660328992 0 7.6484550751837217 0 1 0 I I #
straight-curve $-1 44.896389660328992 24.536609305712258 0 0 0 -1 I I #
point $-1 44.896389660328992 24.536609305712258 7.6484550751837217 #
point $-1 38.20382460766929 16.529526951192583 1.7343296390962055 #
point $-1 38.20382460766929 21.333776363904388 1.7343296390962055 #
point $-1 -44.896389660328992 -24.536609305712258 7.6484550751837217 #
straight-curve $-1 0 -24.536609305712258 7.6484550751837217 1 0 0 I I #
straight-curve $-1 -44.896389660328992 24.536609305712258 0 0 0 -1 I I #
End-of-ACIS-data 