500 0 16 0           
7 Unknown 11 ACIS 5.0 NT 24 Fri Mar 26 16:56:04 1999 
-1 9.9999999999999995e-007 1e-010 
body $-1 $16 $-1 $17 #
body $-1 $18 $-1 $19 #
body $-1 $20 $-1 $21 #
body $-1 $22 $-1 $23 #
body $-1 $24 $-1 $25 #
body $-1 $26 $-1 $27 #
body $-1 $28 $-1 $29 #
body $-1 $30 $-1 $31 #
body $-1 $32 $-1 $33 #
body $-1 $34 $-1 $35 #
body $-1 $36 $-1 $37 #
body $-1 $38 $-1 $39 #
body $-1 $40 $-1 $41 #
body $-1 $42 $-1 $43 #
body $-1 $44 $-1 $45 #
body $-1 $46 $-1 $47 #
lump $-1 $-1 $48 $0 #
transform $-1 1 0 0 0 1 0 0 0 1 59.316995757927181 37.433048545230562 17.457712779589077 1 rotate no_reflect no_shear #
lump $-1 $-1 $49 $1 #
transform $-1 1 0 0 0 1 0 0 0 1 59.316995757927181 37.433048545230562 17.457712779589077 1 rotate no_reflect no_shear #
lump $-1 $-1 $50 $2 #
transform $-1 1 0 0 0 1 0 0 0 1 59.316995757927181 37.433048545230562 17.457712779589077 1 rotate no_reflect no_shear #
lump $-1 $-1 $51 $3 #
transform $-1 1 0 0 0 1 0 0 0 1 59.316995757927181 37.433048545230562 17.457712779589077 1 rotate no_reflect no_shear #
lump $-1 $-1 $52 $4 #
transform $-1 1 0 0 0 1 0 0 0 1 59.316995757927181 37.433048545230562 17.457712779589077 1 rotate no_reflect no_shear #
lump $-1 $-1 $53 $5 #
transform $-1 1 0 0 0 1 0 0 0 1 59.316995757927181 37.433048545230562 17.457712779589077 1 rotate no_reflect no_shear #
lump $-1 $-1 $54 $6 #
transform $-1 1 0 0 0 1 0 0 0 1 59.316995757927181 37.433048545230562 17.457712779589077 1 rotate no_reflect no_shear #
lump $-1 $-1 $55 $7 #
transform $-1 1 0 0 0 1 0 0 0 1 59.316995757927181 37.433048545230562 17.457712779589077 1 rotate no_reflect no_shear #
lump $-1 $-1 $56 $8 #
transform $-1 1 0 0 0 1 0 0 0 1 59.316995757927181 37.433048545230562 17.457712779589077 1 rotate no_reflect no_shear #
lump $-1 $-1 $57 $9 #
transform $-1 1 0 0 0 1 0 0 0 1 59.316995757927181 37.433048545230562 17.457712779589077 1 rotate no_reflect no_shear #
lump $-1 $-1 $58 $10 #
transform $-1 1 0 0 0 1 0 0 0 1 59.316995757927181 37.433048545230562 17.457712779589077 1 rotate no_reflect no_shear #
lump $-1 $-1 $59 $11 #
transform $-1 1 0 0 0 1 0 0 0 1 59.316995757927181 37.433048545230562 17.457712779589077 1 rotate no_reflect no_shear #
lump $-1 $-1 $60 $12 #
transform $-1 1 0 0 0 1 0 0 0 1 59.316995757927181 37.433048545230562 17.457712779589077 1 rotate no_reflect no_shear #
lump $-1 $-1 $61 $13 #
transform $-1 1 0 0 0 1 0 0 0 1 59.316995757927181 37.433048545230562 17.457712779589077 1 rotate no_reflect no_shear #
lump $-1 $-1 $62 $14 #
transform $-1 1 0 0 0 1 0 0 0 1 59.316995757927181 37.433048545230562 17.457712779589077 1 rotate no_reflect no_shear #
lump $-1 $-1 $63 $15 #
transform $-1 1 0 0 0 1 0 0 0 1 59.316995757927181 37.433048545230562 17.457712779589077 1 rotate no_reflect no_shear #
shell $-1 $-1 $-1 $64 $-1 $16 #
shell $-1 $-1 $-1 $65 $-1 $18 #
shell $-1 $-1 $-1 $66 $-1 $20 #
shell $-1 $-1 $-1 $67 $-1 $22 #
shell $-1 $-1 $-1 $68 $-1 $24 #
shell $-1 $-1 $-1 $69 $-1 $26 #
shell $-1 $-1 $-1 $70 $-1 $28 #
shell $-1 $-1 $-1 $71 $-1 $30 #
shell $-1 $-1 $-1 $72 $-1 $32 #
shell $-1 $-1 $-1 $73 $-1 $34 #
shell $-1 $-1 $-1 $74 $-1 $36 #
shell $-1 $-1 $-1 $75 $-1 $38 #
shell $-1 $-1 $-1 $76 $-1 $40 #
shell $-1 $-1 $-1 $77 $-1 $42 #
shell $-1 $-1 $-1 $78 $-1 $44 #
shell $-1 $-1 $-1 $79 $-1 $46 #
face $-1 $80 $81 $48 $-1 $82 forward single #
face $-1 $83 $84 $49 $-1 $85 reversed single #
face $-1 $86 $87 $50 $-1 $88 reversed single #
face $-1 $89 $90 $51 $-1 $91 forward single #
face $-1 $92 $93 $52 $-1 $94 forward single #
face $-1 $95 $96 $53 $-1 $97 reversed single #
face $-1 $98 $99 $54 $-1 $100 forward single #
face $-1 $101 $102 $55 $-1 $103 forward single #
face $-1 $104 $105 $56 $-1 $106 reversed single #
face $-1 $107 $108 $57 $-1 $109 forward single #
face $-1 $110 $111 $58 $-1 $112 forward single #
face $-1 $113 $114 $59 $-1 $115 reversed single #
face $-1 $116 $117 $60 $-1 $118 forward single #
face $-1 $119 $120 $61 $-1 $121 forward single #
face $-1 $122 $123 $62 $-1 $124 reversed single #
face $-1 $125 $126 $63 $-1 $127 forward single #
face $-1 $128 $129 $48 $-1 $130 reversed single #
loop $-1 $-1 $131 $64 #
plane-surface $-1 0 0 17.457712779589077 0 0 1 1 0 0 forward_v I I I I #
face $-1 $132 $133 $49 $-1 $134 reversed single #
loop $-1 $-1 $135 $65 #
plane-surface $-1 -48.070412933355158 0 12.92361971959399 0 0 1 1 0 0 forward_v I I I I #
face $-1 $136 $137 $50 $-1 $138 reversed single #
loop $-1 $-1 $139 $66 #
plane-surface $-1 -28.990763662572292 98.367393993085059 133.31376834164718 1 0 0 0 -0.84804810408105047 -0.52991925155115449 forward_v I I I I #
face $-1 $140 $141 $51 $-1 $142 forward single #
loop $-1 $143 $144 $67 #
cone-surface $-1 -24.97114418941824 30.8181568175108 10.124061936066695 0 -0.84804810408105047 -0.52991925155115449 2 0 0 1 I I 0 1 2 forward I I I I #
face $-1 $145 $146 $52 $-1 $147 forward single #
loop $-1 $148 $149 $68 #
cone-surface $-1 -18.941714979687163 30.8181568175108 10.124061936066695 0 -0.84804810408105047 -0.52991925155115449 2 0 0 1 I I 0 1 2 forward I I I I #
face $-1 $150 $151 $53 $-1 $152 reversed single #
loop $-1 $-1 $153 $69 #
plane-surface $-1 -4.9555571958947144 98.367393993085059 133.31376834164718 1 0 0 0 -0.84804810408105047 -0.52991925155115449 forward_v I I I I #
face $-1 $154 $155 $54 $-1 $156 forward single #
loop $-1 $157 $158 $70 #
cone-surface $-1 -0.93593772274066112 30.8181568175108 10.124061936066695 0 -0.84804810408105047 -0.52991925155115449 2 0 0 1 I I 0 1 2 forward I I I I #
face $-1 $159 $160 $55 $-1 $161 forward single #
loop $-1 $162 $163 $71 #
cone-surface $-1 5.0934914869904091 30.8181568175108 10.124061936066695 0 -0.84804810408105047 -0.52991925155115449 2 0 0 1 I I 0 1 2 forward I I I I #
face $-1 $164 $165 $56 $-1 $166 reversed single #
loop $-1 $-1 $167 $72 #
plane-surface $-1 19.079649270782866 98.367393993085059 133.31376834164718 1 0 0 0 -0.84804810408105047 -0.52991925155115449 forward_v I I I I #
face $-1 $168 $169 $57 $-1 $170 forward single #
loop $-1 $171 $172 $73 #
cone-surface $-1 23.099268743936925 30.8181568175108 10.124061936066695 0 -0.84804810408105047 -0.52991925155115449 2 0 0 1 I I 0 1 2 forward I I I I #
face $-1 $173 $174 $58 $-1 $175 forward single #
loop $-1 $176 $177 $74 #
cone-surface $-1 29.128697953667988 30.8181568175108 10.124061936066695 0 -0.84804810408105047 -0.52991925155115449 2 0 0 1 I I 0 1 2 forward I I I I #
face $-1 $178 $179 $59 $-1 $180 reversed single #
loop $-1 $-1 $181 $75 #
plane-surface $-1 43.114855737460445 98.367393993085059 133.31376834164718 1 0 0 0 -0.84804810408105047 -0.52991925155115449 forward_v I I I I #
face $-1 $182 $183 $60 $-1 $184 forward single #
loop $-1 $185 $186 $76 #
cone-surface $-1 47.134475210614504 30.8181568175108 10.124061936066695 0 -0.84804810408105047 -0.52991925155115449 2 0 0 1 I I 0 1 2 forward I I I I #
face $-1 $187 $188 $61 $-1 $189 forward single #
loop $-1 $190 $191 $77 #
cone-surface $-1 53.163904420345567 30.8181568175108 10.124061936066695 0 -0.84804810408105047 -0.52991925155115449 2 0 0 1 I I 0 1 2 forward I I I I #
face $-1 $192 $193 $62 $-1 $194 reversed single #
loop $-1 $-1 $195 $78 #
plane-surface $-1 -13.951250744058243 -128.31195949405202 77.560286942857843 -1 0 0 0 -0.7660444514056185 0.64278759981090561 forward_v I I I I #
face $-1 $196 $197 $63 $-1 $198 forward single #
loop $-1 $199 $200 $79 #
cone-surface $-1 -25.387540426420685 -29.356620258657692 8.2907220708166083 0 0.7660444514056185 -0.64278759981090561 1.5 0 0 1 I I 0 1 1.5 forward I I I I #
face $-1 $201 $202 $48 $-1 $203 reversed single #
loop $-1 $-1 $204 $80 #
plane-surface $-1 0 0 -17.457712779589077 0 0 1 1 0 0 forward_v I I I I #
coedge $-1 $205 $206 $207 $208 forward $81 $-1 #
face $-1 $209 $210 $49 $-1 $211 reversed single #
loop $-1 $-1 $212 $83 #
plane-surface $-1 -36.823830108783127 0 15.190666249591533 -1 0 0 0 0 1 forward_v I I I I #
coedge $-1 $213 $214 $212 $215 forward $84 $-1 #
face $-1 $216 $217 $50 $-1 $218 reversed single #
loop $-1 $-1 $219 $86 #
plane-surface $-1 -21.956429584552701 -2.2399375915026525 70.447332349039613 0 0.84804810408105047 0.52991925155115449 1 0 0 forward_v I I I I #
coedge $-1 $220 $221 $222 $223 reversed $87 $-1 #
face $-1 $-1 $224 $51 $-1 $225 forward single #
loop $-1 $226 $227 $89 #
cone-surface $-1 -24.97114418941824 26.635915985854766 7.5107079050245709 0 -0.84804810408105047 -0.52991925155115449 1 0 0 1 I I -0.70710678118654746 0.70710678118654746 1 forward I I I I #
loop $-1 $-1 $228 $67 #
coedge $-1 $144 $144 $229 $230 reversed $90 $-1 #
face $-1 $-1 $231 $52 $-1 $232 forward single #
loop $-1 $233 $234 $92 #
cone-surface $-1 -18.941714979687163 26.635915985854766 7.5107079050245709 0 -0.84804810408105047 -0.52991925155115449 1 0 0 1 I I -0.70710678118654746 0.70710678118654746 1 forward I I I I #
loop $-1 $-1 $235 $68 #
coedge $-1 $149 $149 $236 $237 reversed $93 $-1 #
face $-1 $238 $239 $53 $-1 $240 reversed single #
loop $-1 $-1 $241 $95 #
plane-surface $-1 2.0787768821248775 -2.2399375915026525 70.447332349039613 0 0.84804810408105047 0.52991925155115449 1 0 0 forward_v I I I I #
coedge $-1 $242 $243 $244 $245 reversed $96 $-1 #
face $-1 $-1 $246 $54 $-1 $247 forward single #
loop $-1 $248 $249 $98 #
cone-surface $-1 -0.93593772274066112 26.635915985854766 7.5107079050245709 0 -0.84804810408105047 -0.52991925155115449 1 0 0 1 I I -0.70710678118654746 0.70710678118654746 1 forward I I I I #
loop $-1 $-1 $250 $70 #
coedge $-1 $158 $158 $251 $252 reversed $99 $-1 #
face $-1 $-1 $253 $55 $-1 $254 forward single #
loop $-1 $255 $256 $101 #
cone-surface $-1 5.0934914869904091 26.635915985854766 7.5107079050245709 0 -0.84804810408105047 -0.52991925155115449 1 0 0 1 I I -0.70710678118654746 0.70710678118654746 1 forward I I I I #
loop $-1 $-1 $257 $71 #
coedge $-1 $163 $163 $258 $259 reversed $102 $-1 #
face $-1 $260 $261 $56 $-1 $262 reversed single #
loop $-1 $-1 $263 $104 #
plane-surface $-1 26.113983348802456 -2.2399375915026525 70.447332349039613 0 0.84804810408105047 0.52991925155115449 1 0 0 forward_v I I I I #
coedge $-1 $264 $265 $266 $267 reversed $105 $-1 #
face $-1 $-1 $268 $57 $-1 $269 forward single #
loop $-1 $270 $271 $107 #
cone-surface $-1 23.099268743936925 26.635915985854766 7.5107079050245709 0 -0.84804810408105047 -0.52991925155115449 1 0 0 1 I I -0.70710678118654746 0.70710678118654746 1 forward I I I I #
loop $-1 $-1 $272 $73 #
coedge $-1 $172 $172 $273 $274 reversed $108 $-1 #
face $-1 $-1 $275 $58 $-1 $276 forward single #
loop $-1 $277 $278 $110 #
cone-surface $-1 29.128697953667988 26.635915985854766 7.5107079050245709 0 -0.84804810408105047 -0.52991925155115449 1 0 0 1 I I -0.70710678118654746 0.70710678118654746 1 forward I I I I #
loop $-1 $-1 $279 $74 #
coedge $-1 $177 $177 $280 $281 reversed $111 $-1 #
face $-1 $282 $283 $59 $-1 $284 reversed single #
loop $-1 $-1 $285 $113 #
plane-surface $-1 50.149189815480035 -2.2399375915026525 70.447332349039613 0 0.84804810408105047 0.52991925155115449 1 0 0 forward_v I I I I #
coedge $-1 $286 $287 $288 $289 reversed $114 $-1 #
face $-1 $-1 $290 $60 $-1 $291 forward single #
loop $-1 $292 $293 $116 #
cone-surface $-1 47.134475210614504 26.635915985854766 7.5107079050245709 0 -0.84804810408105047 -0.52991925155115449 1 0 0 1 I I -0.70710678118654746 0.70710678118654746 1 forward I I I I #
loop $-1 $-1 $294 $76 #
coedge $-1 $186 $186 $295 $296 reversed $117 $-1 #
face $-1 $-1 $297 $61 $-1 $298 forward single #
loop $-1 $299 $300 $119 #
cone-surface $-1 53.163904420345567 26.635915985854766 7.5107079050245709 0 -0.84804810408105047 -0.52991925155115449 1 0 0 1 I I -0.70710678118654746 0.70710678118654746 1 forward I I I I #
loop $-1 $-1 $301 $77 #
coedge $-1 $191 $191 $302 $303 reversed $120 $-1 #
face $-1 $304 $305 $62 $-1 $306 forward single #
loop $-1 $-1 $307 $122 #
plane-surface $-1 -25.387540426420685 -37.433048545230562 1.3038282803944838 0 -0.7660444514056185 0.64278759981090561 1 0 0 forward_v I I I I #
coedge $-1 $308 $309 $310 $311 reversed $123 $-1 #
face $-1 $-1 $312 $63 $-1 $313 forward single #
loop $-1 $314 $315 $125 #
cone-surface $-1 -25.387540426420685 -27.483017718768505 6.7185829117832654 0 0.7660444514056185 -0.64278759981090561 0.75 0 0 1 I I -0.70710678118654757 0.70710678118654757 0.75 forward I I I I #
loop $-1 $-1 $316 $79 #
coedge $-1 $200 $200 $317 $318 reversed $126 $-1 #
face $-1 $319 $320 $48 $-1 $321 reversed single #
loop $-1 $-1 $322 $128 #
plane-surface $-1 0 -37.433048545230562 0 0 1 0 0 0 1 forward_v I I I I #
coedge $-1 $323 $324 $325 $326 forward $129 $-1 #
coedge $-1 $327 $131 $328 $329 forward $81 $-1 #
coedge $-1 $131 $327 $330 $331 forward $81 $-1 #
coedge $-1 $332 $333 $131 $208 reversed $334 $-1 #
edge $-1 $335 -37.433048545230562 $336 37.433048545230562 $207 $337 forward 7 unknown #
face $-1 $338 $339 $49 $-1 $340 reversed single #
loop $-1 $-1 $341 $132 #
plane-surface $-1 0 37.433048545230562 0 0 -1 0 0 0 -1 forward_v I I I I #
coedge $-1 $342 $343 $135 $215 reversed $133 $-1 #
coedge $-1 $344 $135 $345 $346 reversed $84 $-1 #
coedge $-1 $135 $344 $347 $348 reversed $84 $-1 #
edge $-1 $349 -37.433048545230562 $350 37.433048545230562 $212 $351 forward 7 unknown #
face $-1 $352 $353 $50 $-1 $354 forward single #
loop $-1 $-1 $355 $136 #
plane-surface $-1 -14.922095506533109 98.367393993085059 133.31376834164718 -1 0 0 0 0.84804810408105047 0.52991925155115449 forward_v I I I I #
coedge $-1 $356 $357 $358 $359 reversed $137 $-1 #
coedge $-1 $221 $139 $360 $361 reversed $87 $-1 #
coedge $-1 $139 $220 $356 $362 reversed $87 $-1 #
coedge $-1 $358 $363 $139 $223 forward $353 $-1 #
edge $-1 $364 11.750648451311967 $365 18.312046451601532 $222 $366 forward 7 unknown #
loop $-1 $-1 $229 $140 #
plane-surface $-1 -21.956429584552701 -2.2399375915026525 70.447332349039613 0 0.84804810408105047 0.52991925155115449 1 0 0 forward_v I I I I #
loop $-1 $-1 $367 $89 #
coedge $-1 $227 $227 $228 $368 reversed $141 $-1 #
coedge $-1 $228 $228 $227 $368 forward $143 $-1 #
coedge $-1 $229 $229 $144 $230 forward $224 $-1 #
edge $-1 $369 -3.7700270109167406e-016 $369 6.2831853071796004 $229 $370 forward 7 unknown #
loop $-1 $-1 $236 $145 #
plane-surface $-1 -21.956429584552701 -2.2399375915026525 70.447332349039613 0 0.84804810408105047 0.52991925155115449 1 0 0 forward_v I I I I #
loop $-1 $-1 $371 $92 #
coedge $-1 $234 $234 $235 $372 reversed $146 $-1 #
coedge $-1 $235 $235 $234 $372 forward $148 $-1 #
coedge $-1 $236 $236 $149 $237 forward $231 $-1 #
edge $-1 $373 -3.7700270109167406e-016 $373 6.2831853071796004 $236 $374 forward 7 unknown #
face $-1 $375 $376 $53 $-1 $377 forward single #
loop $-1 $-1 $378 $150 #
plane-surface $-1 9.1131109601444695 98.367393993085059 133.31376834164718 -1 0 0 0 0.84804810408105047 0.52991925155115449 forward_v I I I I #
coedge $-1 $379 $380 $381 $382 reversed $151 $-1 #
coedge $-1 $243 $153 $383 $384 reversed $96 $-1 #
coedge $-1 $153 $242 $379 $385 reversed $96 $-1 #
coedge $-1 $381 $386 $153 $245 forward $376 $-1 #
edge $-1 $387 11.750648451311967 $388 18.312046451601532 $244 $389 forward 7 unknown #
loop $-1 $-1 $251 $154 #
plane-surface $-1 2.0787768821248775 -2.2399375915026525 70.447332349039613 0 0.84804810408105047 0.52991925155115449 1 0 0 forward_v I I I I #
loop $-1 $-1 $390 $98 #
coedge $-1 $249 $249 $250 $391 reversed $155 $-1 #
coedge $-1 $250 $250 $249 $391 forward $157 $-1 #
coedge $-1 $251 $251 $158 $252 forward $246 $-1 #
edge $-1 $392 -3.7700270109167406e-016 $392 6.2831853071796004 $251 $393 forward 7 unknown #
loop $-1 $-1 $258 $159 #
plane-surface $-1 2.0787768821248775 -2.2399375915026525 70.447332349039613 0 0.84804810408105047 0.52991925155115449 1 0 0 forward_v I I I I #
loop $-1 $-1 $394 $101 #
coedge $-1 $256 $256 $257 $395 reversed $160 $-1 #
coedge $-1 $257 $257 $256 $395 forward $162 $-1 #
coedge $-1 $258 $258 $163 $259 forward $253 $-1 #
edge $-1 $396 -3.7700270109167406e-016 $396 6.2831853071796004 $258 $397 forward 7 unknown #
face $-1 $398 $399 $56 $-1 $400 forward single #
loop $-1 $-1 $401 $164 #
plane-surface $-1 33.148317426822047 98.367393993085059 133.31376834164718 -1 0 0 0 0.84804810408105047 0.52991925155115449 forward_v I I I I #
coedge $-1 $402 $403 $404 $405 reversed $165 $-1 #
coedge $-1 $265 $167 $406 $407 reversed $105 $-1 #
coedge $-1 $167 $264 $402 $408 reversed $105 $-1 #
coedge $-1 $404 $409 $167 $267 forward $399 $-1 #
edge $-1 $410 11.750648451311967 $411 18.312046451601532 $266 $412 forward 7 unknown #
loop $-1 $-1 $273 $168 #
plane-surface $-1 26.113983348802456 -2.2399375915026525 70.447332349039613 0 0.84804810408105047 0.52991925155115449 1 0 0 forward_v I I I I #
loop $-1 $-1 $413 $107 #
coedge $-1 $271 $271 $272 $414 reversed $169 $-1 #
coedge $-1 $272 $272 $271 $414 forward $171 $-1 #
coedge $-1 $273 $273 $172 $274 forward $268 $-1 #
edge $-1 $415 -3.7700270109167406e-016 $415 6.2831853071796004 $273 $416 forward 7 unknown #
loop $-1 $-1 $280 $173 #
plane-surface $-1 26.113983348802456 -2.2399375915026525 70.447332349039613 0 0.84804810408105047 0.52991925155115449 1 0 0 forward_v I I I I #
loop $-1 $-1 $417 $110 #
coedge $-1 $278 $278 $279 $418 reversed $174 $-1 #
coedge $-1 $279 $279 $278 $418 forward $176 $-1 #
coedge $-1 $280 $280 $177 $281 forward $275 $-1 #
edge $-1 $419 -3.7700270109167406e-016 $419 6.2831853071796004 $280 $420 forward 7 unknown #
face $-1 $421 $422 $59 $-1 $423 forward single #
loop $-1 $-1 $424 $178 #
plane-surface $-1 57.183523893499626 98.367393993085059 133.31376834164718 -1 0 0 0 0.84804810408105047 0.52991925155115449 forward_v I I I I #
coedge $-1 $425 $426 $427 $428 reversed $179 $-1 #
coedge $-1 $287 $181 $429 $430 reversed $114 $-1 #
coedge $-1 $181 $286 $425 $431 reversed $114 $-1 #
coedge $-1 $427 $432 $181 $289 forward $422 $-1 #
edge $-1 $433 11.750648451311967 $434 18.312046451601532 $288 $435 forward 7 unknown #
loop $-1 $-1 $295 $182 #
plane-surface $-1 50.149189815480035 -2.2399375915026525 70.447332349039613 0 0.84804810408105047 0.52991925155115449 1 0 0 forward_v I I I I #
loop $-1 $-1 $436 $116 #
coedge $-1 $293 $293 $294 $437 reversed $183 $-1 #
coedge $-1 $294 $294 $293 $437 forward $185 $-1 #
coedge $-1 $295 $295 $186 $296 forward $290 $-1 #
edge $-1 $438 -3.7700270109167406e-016 $438 6.2831853071796004 $295 $439 forward 7 unknown #
loop $-1 $-1 $302 $187 #
plane-surface $-1 50.149189815480035 -2.2399375915026525 70.447332349039613 0 0.84804810408105047 0.52991925155115449 1 0 0 forward_v I I I I #
loop $-1 $-1 $440 $119 #
coedge $-1 $300 $300 $301 $441 reversed $188 $-1 #
coedge $-1 $301 $301 $300 $441 forward $190 $-1 #
coedge $-1 $302 $302 $191 $303 forward $297 $-1 #
edge $-1 $442 -3.7700270109167406e-016 $442 6.2831853071796004 $302 $443 forward 7 unknown #
face $-1 $444 $445 $62 $-1 $446 forward single #
loop $-1 $-1 $447 $192 #
plane-surface $-1 -36.823830108783127 0 15.190666249591533 -1 0 0 0 0 1 forward_v I I I I #
coedge $-1 $448 $449 $450 $451 reversed $193 $-1 #
coedge $-1 $309 $195 $452 $453 reversed $123 $-1 #
coedge $-1 $195 $308 $448 $454 reversed $123 $-1 #
coedge $-1 $450 $455 $195 $311 forward $445 $-1 #
edge $-1 $456 26.722931201795447 $457 40.277649372271227 $310 $458 forward 7 unknown #
loop $-1 $-1 $317 $196 #
plane-surface $-1 -25.387540426420685 -37.433048545230562 1.3038282803944838 0 -0.7660444514056185 0.64278759981090561 1 0 0 forward_v I I I I #
loop $-1 $-1 $459 $125 #
coedge $-1 $315 $315 $316 $460 reversed $197 $-1 #
coedge $-1 $316 $316 $315 $460 forward $199 $-1 #
coedge $-1 $317 $317 $200 $318 forward $312 $-1 #
edge $-1 $461 3.2331713013742915e-016 $461 6.2831853071796004 $317 $462 forward 7 unknown #
face $-1 $463 $464 $48 $-1 $465 reversed single #
loop $-1 $-1 $466 $201 #
plane-surface $-1 -59.316995757927181 0 0 1 0 0 0 0 -1 forward_v I I I I #
coedge $-1 $467 $330 $468 $469 forward $202 $-1 #
coedge $-1 $470 $204 $467 $471 forward $129 $-1 #
coedge $-1 $204 $470 $472 $473 forward $129 $-1 #
coedge $-1 $333 $332 $204 $326 reversed $334 $-1 #
edge $-1 $474 -37.433048545230562 $475 37.433048545230562 $325 $476 forward 7 unknown #
coedge $-1 $206 $205 $477 $478 forward $81 $-1 #
coedge $-1 $479 $480 $205 $329 reversed $464 $-1 #
edge $-1 $336 -59.316995757927181 $481 59.316995757927181 $328 $482 forward 7 unknown #
coedge $-1 $322 $483 $206 $331 reversed $202 $-1 #
edge $-1 $484 -59.316995757927181 $335 59.316995757927181 $330 $485 forward 7 unknown #
coedge $-1 $325 $207 $483 $486 forward $334 $-1 #
coedge $-1 $207 $325 $479 $487 reversed $334 $-1 #
loop $-1 $-1 $332 $463 #
vertex $-1 $208 $488 #
vertex $-1 $208 $489 #
straight-curve $-1 59.316995757927181 0 17.457712779589077 0 1 0 I I #
face $-1 $490 $491 $49 $-1 $492 forward single #
loop $-1 $-1 $493 $209 #
plane-surface $-1 -59.316995757927181 0 0 1 0 0 0 0 -1 forward_v I I I I #
coedge $-1 $347 $494 $342 $495 forward $210 $-1 #
coedge $-1 $496 $212 $341 $495 reversed $133 $-1 #
coedge $-1 $212 $496 $497 $498 reversed $133 $-1 #
coedge $-1 $214 $213 $493 $499 reversed $84 $-1 #
coedge $-1 $497 $500 $213 $346 forward $501 $-1 #
edge $-1 $502 -35.281789291249609 $350 -12.788623642105549 $345 $503 forward 7 unknown #
coedge $-1 $504 $341 $214 $348 forward $210 $-1 #
edge $-1 $349 12.788623642105549 $505 35.281789291249609 $347 $506 forward 7 unknown #
vertex $-1 $348 $507 #
vertex $-1 $346 $508 #
straight-curve $-1 -36.823830108783127 0 12.92361971959399 0 -1 0 I I #
face $-1 $-1 $509 $50 $-1 $510 reversed single #
loop $-1 $-1 $222 $216 #
plane-surface $-1 0 0 17.457712779589077 0 0 1 1 0 0 forward_v I I I I #
coedge $-1 $511 $512 $513 $514 reversed $217 $-1 #
coedge $-1 $515 $219 $221 $362 forward $137 $-1 #
coedge $-1 $219 $515 $511 $516 forward $137 $-1 #
coedge $-1 $513 $222 $219 $359 forward $353 $-1 #
edge $-1 $365 -18.012548870295941 $517 -3.9438807142567587 $358 $518 forward 7 unknown #
coedge $-1 $519 $520 $220 $361 forward $509 $-1 #
edge $-1 $521 -59.699603519297369 $364 -49.199171391234515 $360 $522 forward 7 unknown #
edge $-1 $365 62.484214414782961 $521 74.86609709046111 $221 $523 forward 7 unknown #
coedge $-1 $222 $513 $519 $524 forward $353 $-1 #
vertex $-1 $361 $525 #
vertex $-1 $223 $526 #
straight-curve $-1 -28.990763662572292 49.18369699654253 17.457712779589073 0 -1 0 I I #
coedge $-1 $367 $367 $-1 $527 reversed $226 $-1 #
edge $-1 $528 0 $528 6.2831853071796004 $227 $529 forward 7 unknown #
vertex $-1 $230 $530 #
ellipse-curve $-1 -24.97114418941824 34.152349545085777 12.207496715557658 0 0.84804810408105047 0.52991925155115449 2 0 0 1 I I #
coedge $-1 $371 $371 $-1 $531 reversed $233 $-1 #
edge $-1 $532 0 $532 6.2831853071796004 $234 $533 forward 7 unknown #
vertex $-1 $237 $534 #
ellipse-curve $-1 -18.941714979687163 34.152349545085777 12.207496715557658 0 0.84804810408105047 0.52991925155115449 2 0 0 1 I I #
face $-1 $-1 $535 $53 $-1 $536 reversed single #
loop $-1 $-1 $244 $238 #
plane-surface $-1 0 0 17.457712779589077 0 0 1 1 0 0 forward_v I I I I #
coedge $-1 $537 $538 $539 $540 reversed $239 $-1 #
coedge $-1 $541 $241 $243 $385 forward $151 $-1 #
coedge $-1 $241 $541 $537 $542 forward $151 $-1 #
coedge $-1 $539 $244 $241 $382 forward $376 $-1 #
edge $-1 $388 -5.9949456369571532 $543 8.0737225190820308 $381 $544 forward 7 unknown #
coedge $-1 $545 $546 $242 $384 forward $535 $-1 #
edge $-1 $547 -59.699603519297369 $387 -49.199171391234515 $383 $548 forward 7 unknown #
edge $-1 $388 62.484214414782961 $547 74.86609709046111 $243 $549 forward 7 unknown #
coedge $-1 $244 $539 $545 $550 forward $376 $-1 #
vertex $-1 $245 $551 #
vertex $-1 $245 $552 #
straight-curve $-1 -4.9555571958947144 49.18369699654253 17.457712779589073 0 -1 0 I I #
coedge $-1 $390 $390 $-1 $553 reversed $248 $-1 #
edge $-1 $554 0 $554 6.2831853071796004 $249 $555 forward 7 unknown #
vertex $-1 $252 $556 #
ellipse-curve $-1 -0.93593772274066112 34.152349545085777 12.207496715557658 0 0.84804810408105047 0.52991925155115449 2 0 0 1 I I #
coedge $-1 $394 $394 $-1 $557 reversed $255 $-1 #
edge $-1 $558 0 $558 6.2831853071796004 $256 $559 forward 7 unknown #
vertex $-1 $259 $560 #
ellipse-curve $-1 5.0934914869904091 34.152349545085777 12.207496715557658 0 0.84804810408105047 0.52991925155115449 2 0 0 1 I I #
face $-1 $-1 $561 $56 $-1 $562 reversed single #
loop $-1 $-1 $266 $260 #
plane-surface $-1 0 0 17.457712779589077 0 0 1 1 0 0 forward_v I I I I #
coedge $-1 $563 $564 $565 $566 reversed $261 $-1 #
coedge $-1 $567 $263 $265 $408 forward $165 $-1 #
coedge $-1 $263 $567 $563 $568 forward $165 $-1 #
coedge $-1 $565 $266 $263 $405 forward $399 $-1 #
edge $-1 $411 6.022657596381638 $569 20.091325752420818 $404 $570 forward 7 unknown #
coedge $-1 $571 $572 $264 $407 forward $561 $-1 #
edge $-1 $573 -59.699603519297369 $410 -49.199171391234515 $406 $574 forward 7 unknown #
edge $-1 $411 62.484214414782961 $573 74.86609709046111 $265 $575 forward 7 unknown #
coedge $-1 $266 $565 $571 $576 forward $399 $-1 #
vertex $-1 $267 $577 #
vertex $-1 $267 $578 #
straight-curve $-1 19.079649270782866 49.18369699654253 17.457712779589073 0 -1 0 I I #
coedge $-1 $413 $413 $-1 $579 reversed $270 $-1 #
edge $-1 $580 0 $580 6.2831853071796004 $271 $581 forward 7 unknown #
vertex $-1 $274 $582 #
ellipse-curve $-1 23.099268743936925 34.152349545085777 12.207496715557658 0 0.84804810408105047 0.52991925155115449 2 0 0 1 I I #
coedge $-1 $417 $417 $-1 $583 reversed $277 $-1 #
edge $-1 $584 0 $584 6.2831853071796004 $278 $585 forward 7 unknown #
vertex $-1 $281 $586 #
ellipse-curve $-1 29.128697953667988 34.152349545085777 12.207496715557658 0 0.84804810408105047 0.52991925155115449 2 0 0 1 I I #
face $-1 $-1 $587 $59 $-1 $588 reversed single #
loop $-1 $-1 $288 $282 #
plane-surface $-1 0 0 17.457712779589077 0 0 1 1 0 0 forward_v I I I I #
coedge $-1 $589 $590 $591 $592 reversed $283 $-1 #
coedge $-1 $593 $285 $287 $431 forward $179 $-1 #
coedge $-1 $285 $593 $589 $594 forward $179 $-1 #
coedge $-1 $591 $288 $285 $428 forward $422 $-1 #
edge $-1 $434 18.040260829720427 $595 32.108928985759604 $427 $596 forward 7 unknown #
coedge $-1 $597 $598 $286 $430 forward $587 $-1 #
edge $-1 $599 -59.699603519297369 $433 -49.199171391234515 $429 $600 forward 7 unknown #
edge $-1 $434 62.484214414782961 $599 74.86609709046111 $287 $601 forward 7 unknown #
coedge $-1 $288 $591 $597 $602 forward $422 $-1 #
vertex $-1 $289 $603 #
vertex $-1 $289 $604 #
straight-curve $-1 43.114855737460445 49.18369699654253 17.457712779589073 0 -1 0 I I #
coedge $-1 $436 $436 $-1 $605 reversed $292 $-1 #
edge $-1 $606 0 $606 6.2831853071796004 $293 $607 forward 7 unknown #
vertex $-1 $296 $608 #
ellipse-curve $-1 47.134475210614504 34.152349545085777 12.207496715557658 0 0.84804810408105047 0.52991925155115449 2 0 0 1 I I #
coedge $-1 $440 $440 $-1 $609 reversed $299 $-1 #
edge $-1 $610 0 $610 6.2831853071796004 $300 $611 forward 7 unknown #
vertex $-1 $303 $612 #
ellipse-curve $-1 53.163904420345567 34.152349545085777 12.207496715557658 0 0.84804810408105047 0.52991925155115449 2 0 0 1 I I #
face $-1 $-1 $613 $62 $-1 $614 reversed single #
loop $-1 $-1 $450 $304 #
plane-surface $-1 0 0 17.457712779589077 0 0 1 1 0 0 forward_v I I I I #
coedge $-1 $615 $616 $449 $617 reversed $305 $-1 #
coedge $-1 $618 $307 $309 $454 forward $193 $-1 #
coedge $-1 $307 $618 $447 $617 forward $193 $-1 #
coedge $-1 $619 $310 $307 $451 forward $445 $-1 #
edge $-1 $457 1.2574805308479 $620 24.130059895572785 $450 $621 forward 7 unknown #
coedge $-1 $622 $623 $308 $453 forward $613 $-1 #
edge $-1 $624 -37.476315191034438 $456 -21.322430691839845 $452 $625 forward 7 unknown #
edge $-1 $457 -21.087398348168648 $624 0 $309 $626 forward 7 unknown #
coedge $-1 $310 $619 $622 $627 forward $445 $-1 #
vertex $-1 $453 $628 #
vertex $-1 $311 $629 #
straight-curve $-1 -13.951250744058243 -64.155979747026009 17.457712779589077 0 1 0 I I #
coedge $-1 $459 $459 $-1 $630 reversed $314 $-1 #
edge $-1 $631 0 $631 6.2831853071796004 $315 $632 forward 7 unknown #
vertex $-1 $318 $633 #
ellipse-curve $-1 -25.387540426420685 -30.655689459992676 9.3807705299917785 0 -0.7660444514056185 0.64278759981090561 1.5 0 0 1 I I #
face $-1 $-1 $334 $48 $-1 $634 reversed single #
loop $-1 $-1 $479 $319 #
plane-surface $-1 0 37.433048545230562 0 0 -1 0 0 0 -1 forward_v I I I I #
coedge $-1 $635 $477 $480 $636 forward $320 $-1 #
coedge $-1 $483 $322 $323 $471 reversed $202 $-1 #
coedge $-1 $477 $635 $322 $469 reversed $320 $-1 #
edge $-1 $484 -17.457712779589077 $637 17.457712779589077 $468 $638 forward 7 unknown #
coedge $-1 $324 $323 $635 $639 forward $129 $-1 #
edge $-1 $475 -59.316995757927181 $637 59.316995757927181 $467 $640 forward 7 unknown #
coedge $-1 $480 $479 $324 $473 reversed $464 $-1 #
edge $-1 $641 -59.316995757927181 $474 59.316995757927181 $472 $642 forward 7 unknown #
vertex $-1 $326 $643 #
vertex $-1 $486 $644 #
straight-curve $-1 59.316995757927181 0 -17.457712779589077 0 -1 0 I I #
coedge $-1 $466 $468 $327 $478 reversed $320 $-1 #
edge $-1 $481 -37.433048545230562 $484 37.433048545230562 $477 $645 forward 7 unknown #
coedge $-1 $472 $328 $333 $487 forward $464 $-1 #
coedge $-1 $328 $472 $466 $636 reversed $464 $-1 #
vertex $-1 $329 $646 #
straight-curve $-1 0 37.433048545230562 17.457712779589077 -1 0 0 I I #
coedge $-1 $330 $467 $332 $486 reversed $202 $-1 #
vertex $-1 $478 $647 #
straight-curve $-1 0 -37.433048545230562 17.457712779589077 1 0 0 I I #
edge $-1 $335 -17.457712779589077 $475 17.457712779589077 $332 $648 forward 7 unknown #
edge $-1 $336 -17.457712779589077 $474 17.457712779589077 $333 $649 forward 7 unknown #
point $-1 59.316995757927181 -37.433048545230562 17.457712779589077 #
point $-1 59.316995757927181 37.433048545230562 17.457712779589077 #
face $-1 $-1 $501 $49 $-1 $650 reversed single #
loop $-1 $-1 $651 $338 #
plane-surface $-1 0 0 17.457712779589077 0 0 1 1 0 0 forward_v I I I I #
coedge $-1 $652 $653 $344 $499 forward $339 $-1 #
coedge $-1 $341 $504 $654 $655 reversed $210 $-1 #
edge $-1 $656 -9.86237965479331 $349 -5.3282865947982234 $341 $657 forward 7 unknown #
coedge $-1 $343 $342 $651 $658 reversed $133 $-1 #
coedge $-1 $659 $345 $343 $498 forward $501 $-1 #
edge $-1 $350 5.3282865947982234 $660 9.86237965479331 $497 $661 forward 7 unknown #
edge $-1 $505 -37.433048545230562 $502 37.433048545230562 $493 $662 forward 7 unknown #
coedge $-1 $345 $659 $652 $663 forward $501 $-1 #
loop $-1 $-1 $497 $490 #
vertex $-1 $499 $664 #
straight-curve $-1 -24.035206466677579 -37.433048545230562 12.92361971959399 1 0 0 I I #
coedge $-1 $494 $347 $653 $665 reversed $210 $-1 #
vertex $-1 $499 $666 #
straight-curve $-1 -24.035206466677579 37.433048545230562 12.92361971959399 -1 0 0 I I #
point $-1 -36.823830108783127 37.433048545230562 12.92361971959399 #
point $-1 -36.823830108783127 -37.433048545230562 12.92361971959399 #
loop $-1 $-1 $360 $352 #
plane-surface $-1 0 37.433048545230562 0 0 -1 0 0 0 -1 forward_v I I I I #
coedge $-1 $512 $355 $357 $516 reversed $217 $-1 #
coedge $-1 $355 $511 $667 $668 reversed $217 $-1 #
coedge $-1 $363 $358 $355 $514 forward $353 $-1 #
edge $-1 $517 -18.312046451601532 $669 -11.750648451311967 $513 $670 forward 7 unknown #
coedge $-1 $357 $356 $520 $671 reversed $137 $-1 #
edge $-1 $672 -74.86609709046111 $517 -62.484214414782961 $511 $673 forward 7 unknown #
vertex $-1 $359 $674 #
straight-curve $-1 -10.978214792276351 30.871650544940991 17.45771277958908 1 0 0 I I #
coedge $-1 $667 $360 $363 $524 reversed $509 $-1 #
coedge $-1 $360 $667 $515 $671 forward $509 $-1 #
vertex $-1 $361 $675 #
straight-curve $-1 -28.990763662572292 37.433048545230562 66.656884170823588 0 0 1 I I #
straight-curve $-1 -28.990763662572292 -2.2399375915026525 70.447332349039613 0 0.52991925155115449 -0.84804810408105047 I I #
edge $-1 $669 14.922095506533109 $364 28.990763662572292 $519 $676 forward 7 unknown #
point $-1 -28.990763662572292 37.433048545230562 17.457712779589077 #
point $-1 -28.990763662572292 30.871650544940998 17.457712779589073 #
edge $-1 $677 1 $677 0 $367 $-1 forward 7 unknown #
vertex $-1 $368 $678 #
ellipse-curve $-1 -24.97114418941824 27.483964089935817 8.0406271565757255 0 0.84804810408105047 0.52991925155115449 2 0 0 1 I I #
point $-1 -22.97114418941824 34.152349545085784 12.207496715557664 #
edge $-1 $679 1 $679 0 $371 $-1 forward 7 unknown #
vertex $-1 $372 $680 #
ellipse-curve $-1 -18.941714979687163 27.483964089935817 8.0406271565757255 0 0.84804810408105047 0.52991925155115449 2 0 0 1 I I #
point $-1 -16.941714979687163 34.152349545085784 12.207496715557664 #
loop $-1 $-1 $383 $375 #
plane-surface $-1 0 37.433048545230562 0 0 -1 0 0 0 -1 forward_v I I I I #
coedge $-1 $538 $378 $380 $542 reversed $239 $-1 #
coedge $-1 $378 $537 $681 $682 reversed $239 $-1 #
coedge $-1 $386 $381 $378 $540 forward $376 $-1 #
edge $-1 $543 -18.312046451601532 $683 -11.750648451311967 $539 $684 forward 7 unknown #
coedge $-1 $380 $379 $546 $685 reversed $151 $-1 #
edge $-1 $686 -74.86609709046111 $543 -62.484214414782961 $537 $687 forward 7 unknown #
vertex $-1 $382 $688 #
straight-curve $-1 1.0393884410624388 30.871650544940991 17.45771277958908 1 0 0 I I #
coedge $-1 $681 $383 $386 $550 reversed $535 $-1 #
coedge $-1 $383 $681 $541 $685 forward $535 $-1 #
vertex $-1 $384 $689 #
straight-curve $-1 -4.9555571958947144 37.433048545230562 66.656884170823588 0 0 1 I I #
straight-curve $-1 -4.9555571958947144 -2.2399375915026525 70.447332349039613 0 0.52991925155115449 -0.84804810408105047 I I #
edge $-1 $683 -9.1131109601444695 $387 4.9555571958947144 $545 $690 forward 7 unknown #
point $-1 -4.9555571958947144 37.433048545230562 17.457712779589077 #
point $-1 -4.9555571958947144 30.871650544940998 17.457712779589073 #
edge $-1 $691 1 $691 0 $390 $-1 forward 7 unknown #
vertex $-1 $391 $692 #
ellipse-curve $-1 -0.93593772274066112 27.483964089935817 8.0406271565757255 0 0.84804810408105047 0.52991925155115449 2 0 0 1 I I #
point $-1 1.0640622772593389 34.152349545085784 12.207496715557664 #
edge $-1 $693 1 $693 0 $394 $-1 forward 7 unknown #
vertex $-1 $395 $694 #
ellipse-curve $-1 5.0934914869904091 27.483964089935817 8.0406271565757255 0 0.84804810408105047 0.52991925155115449 2 0 0 1 I I #
point $-1 7.0934914869904091 34.152349545085784 12.207496715557664 #
loop $-1 $-1 $406 $398 #
plane-surface $-1 0 37.433048545230562 0 0 -1 0 0 0 -1 forward_v I I I I #
coedge $-1 $564 $401 $403 $568 reversed $261 $-1 #
coedge $-1 $401 $563 $695 $696 reversed $261 $-1 #
coedge $-1 $409 $404 $401 $566 forward $399 $-1 #
edge $-1 $569 -18.312046451601532 $697 -11.750648451311967 $565 $698 forward 7 unknown #
coedge $-1 $403 $402 $572 $699 reversed $165 $-1 #
edge $-1 $700 -74.86609709046111 $569 -62.484214414782961 $563 $701 forward 7 unknown #
vertex $-1 $405 $702 #
straight-curve $-1 13.056991674401228 30.871650544940991 17.45771277958908 1 0 0 I I #
coedge $-1 $695 $406 $409 $576 reversed $561 $-1 #
coedge $-1 $406 $695 $567 $699 forward $561 $-1 #
vertex $-1 $407 $703 #
straight-curve $-1 19.079649270782866 37.433048545230562 66.656884170823588 0 0 1 I I #
straight-curve $-1 19.079649270782866 -2.2399375915026525 70.447332349039613 0 0.52991925155115449 -0.84804810408105047 I I #
edge $-1 $697 -33.148317426822047 $410 -19.079649270782866 $571 $704 forward 7 unknown #
point $-1 19.079649270782866 37.433048545230562 17.457712779589077 #
point $-1 19.079649270782866 30.871650544940998 17.457712779589073 #
edge $-1 $705 1 $705 0 $413 $-1 forward 7 unknown #
vertex $-1 $414 $706 #
ellipse-curve $-1 23.099268743936925 27.483964089935817 8.0406271565757255 0 0.84804810408105047 0.52991925155115449 2 0 0 1 I I #
point $-1 25.099268743936925 34.152349545085784 12.207496715557664 #
edge $-1 $707 1 $707 0 $417 $-1 forward 7 unknown #
vertex $-1 $418 $708 #
ellipse-curve $-1 29.128697953667988 27.483964089935817 8.0406271565757255 0 0.84804810408105047 0.52991925155115449 2 0 0 1 I I #
point $-1 31.128697953667988 34.152349545085784 12.207496715557664 #
loop $-1 $-1 $429 $421 #
plane-surface $-1 0 37.433048545230562 0 0 -1 0 0 0 -1 forward_v I I I I #
coedge $-1 $590 $424 $426 $594 reversed $283 $-1 #
coedge $-1 $424 $589 $709 $710 reversed $283 $-1 #
coedge $-1 $432 $427 $424 $592 forward $422 $-1 #
edge $-1 $595 -18.312046451601532 $711 -11.750648451311967 $591 $712 forward 7 unknown #
coedge $-1 $426 $425 $598 $713 reversed $179 $-1 #
edge $-1 $714 -74.86609709046111 $595 -62.484214414782961 $589 $715 forward 7 unknown #
vertex $-1 $428 $716 #
straight-curve $-1 25.074594907740018 30.871650544940991 17.45771277958908 1 0 0 I I #
coedge $-1 $709 $429 $432 $602 reversed $587 $-1 #
coedge $-1 $429 $709 $593 $713 forward $587 $-1 #
vertex $-1 $430 $717 #
straight-curve $-1 43.114855737460445 37.433048545230562 66.656884170823588 0 0 1 I I #
straight-curve $-1 43.114855737460445 -2.2399375915026525 70.447332349039613 0 0.52991925155115449 -0.84804810408105047 I I #
edge $-1 $711 -57.183523893499626 $433 -43.114855737460445 $597 $718 forward 7 unknown #
point $-1 43.114855737460445 37.433048545230562 17.457712779589077 #
point $-1 43.114855737460445 30.871650544940998 17.457712779589073 #
edge $-1 $719 1 $719 0 $436 $-1 forward 7 unknown #
vertex $-1 $437 $720 #
ellipse-curve $-1 47.134475210614504 27.483964089935817 8.0406271565757255 0 0.84804810408105047 0.52991925155115449 2 0 0 1 I I #
point $-1 49.134475210614504 34.152349545085784 12.207496715557664 #
edge $-1 $721 1 $721 0 $440 $-1 forward 7 unknown #
vertex $-1 $441 $722 #
ellipse-curve $-1 53.163904420345567 27.483964089935817 8.0406271565757255 0 0.84804810408105047 0.52991925155115449 2 0 0 1 I I #
point $-1 55.163904420345567 34.152349545085784 12.207496715557664 #
loop $-1 $-1 $452 $444 #
plane-surface $-1 0 -37.433048545230562 0 0 1 0 0 0 1 forward_v I I I I #
coedge $-1 $616 $447 $723 $724 reversed $305 $-1 #
coedge $-1 $447 $615 $619 $725 reversed $305 $-1 #
edge $-1 $726 0 $620 21.087398348168648 $447 $727 forward 7 unknown #
coedge $-1 $449 $448 $623 $728 reversed $193 $-1 #
coedge $-1 $455 $450 $616 $725 forward $445 $-1 #
vertex $-1 $725 $729 #
straight-curve $-1 -12.693770213210342 -23.878330374754785 17.457712779589077 -1 0 0 I I #
coedge $-1 $723 $452 $455 $627 reversed $613 $-1 #
coedge $-1 $452 $723 $618 $728 forward $613 $-1 #
vertex $-1 $453 $730 #
straight-curve $-1 -13.951250744058243 -37.433048545230562 38.780143471428921 0 0 1 I I #
straight-curve $-1 -13.951250744058243 -37.433048545230562 1.3038282803944838 0 -0.64278759981090561 -0.7660444514056185 I I #
edge $-1 $731 -36.823830108783127 $456 -13.951250744058243 $622 $732 forward 7 unknown #
point $-1 -13.951250744058243 -37.433048545230562 17.457712779589077 #
point $-1 -13.951250744058243 -23.878330374754785 17.457712779589077 #
edge $-1 $733 1 $733 0 $459 $-1 forward 7 unknown #
vertex $-1 $460 $734 #
ellipse-curve $-1 -25.387540426420685 -28.057551057322719 7.2006736116414443 0 -0.7660444514056185 0.64278759981090561 1.5 0 0 1 I I #
point $-1 -23.887540426420685 -30.655689459992669 9.3807705299917732 #
plane-surface $-1 59.316995757927181 0 0 -1 0 0 0 0 1 forward_v I I I I #
coedge $-1 $468 $466 $470 $639 reversed $320 $-1 #
edge $-1 $481 -17.457712779589077 $641 17.457712779589077 $480 $735 forward 7 unknown #
vertex $-1 $639 $736 #
straight-curve $-1 -59.316995757927181 -37.433048545230562 0 0 0 -1 I I #
edge $-1 $637 -37.433048545230562 $641 37.433048545230562 $635 $737 forward 7 unknown #
straight-curve $-1 0 -37.433048545230562 -17.457712779589077 -1 0 0 I I #
vertex $-1 $473 $738 #
straight-curve $-1 0 37.433048545230562 -17.457712779589077 1 0 0 I I #
point $-1 59.316995757927181 37.433048545230562 -17.457712779589077 #
point $-1 59.316995757927181 -37.433048545230562 -17.457712779589077 #
straight-curve $-1 -59.316995757927181 0 17.457712779589077 0 -1 0 I I #
point $-1 -59.316995757927181 37.433048545230562 17.457712779589077 #
point $-1 -59.316995757927181 -37.433048545230562 17.457712779589077 #
straight-curve $-1 59.316995757927181 -37.433048545230562 0 0 0 -1 I I #
straight-curve $-1 59.316995757927181 37.433048545230562 0 0 0 -1 I I #
plane-surface $-1 0 -37.433048545230562 0 0 1 0 0 0 1 forward_v I I I I #
coedge $-1 $654 $739 $496 $658 forward $491 $-1 #
coedge $-1 $740 $493 $500 $663 reversed $339 $-1 #
coedge $-1 $493 $740 $504 $665 forward $339 $-1 #
coedge $-1 $741 $651 $494 $655 forward $491 $-1 #
edge $-1 $656 36.823830108783127 $742 59.316995757927181 $494 $743 forward 7 unknown #
vertex $-1 $655 $744 #
straight-curve $-1 -36.823830108783127 37.433048545230562 7.5953331247957667 0 0 -1 I I #
edge $-1 $660 -37.433048545230562 $656 37.433048545230562 $651 $745 forward 7 unknown #
coedge $-1 $500 $497 $739 $746 reversed $501 $-1 #
vertex $-1 $498 $747 #
straight-curve $-1 -36.823830108783127 -37.433048545230562 7.5953331247957667 0 0 1 I I #
straight-curve $-1 -59.316995757927181 0 12.92361971959399 0 -1 0 I I #
edge $-1 $748 -17.457712779589077 $502 -12.92361971959399 $652 $749 forward 7 unknown #
point $-1 -59.316995757927188 -37.433048545230562 12.92361971959399 #
edge $-1 $742 -17.457712779589077 $505 -12.92361971959399 $504 $750 forward 7 unknown #
point $-1 -59.316995757927188 37.433048545230562 12.92361971959399 #
coedge $-1 $520 $519 $512 $668 forward $509 $-1 #
edge $-1 $669 49.199171391234515 $672 59.699603519297369 $667 $751 forward 7 unknown #
vertex $-1 $524 $752 #
straight-curve $-1 -14.922095506533109 49.18369699654253 17.457712779589073 0 1 0 I I #
edge $-1 $672 3.9438807142567587 $521 18.012548870295941 $520 $753 forward 7 unknown #
vertex $-1 $671 $754 #
straight-curve $-1 -14.922095506533109 -2.2399375915026525 70.447332349039613 0 -0.52991925155115449 0.84804810408105047 I I #
point $-1 -14.922095506533109 30.871650544940998 17.457712779589073 #
point $-1 -28.990763662572292 37.433048545230562 6.9572806515262187 #
straight-curve $-1 0 37.433048545230562 17.457712779589077 -1 0 0 I I #
vertex $-1 $527 $755 #
point $-1 -22.97114418941824 27.483964089935817 8.0406271565757255 #
vertex $-1 $531 $756 #
point $-1 -16.941714979687163 27.483964089935817 8.0406271565757255 #
coedge $-1 $546 $545 $538 $682 forward $535 $-1 #
edge $-1 $683 49.199171391234515 $686 59.699603519297369 $681 $757 forward 7 unknown #
vertex $-1 $550 $758 #
straight-curve $-1 9.1131109601444695 49.18369699654253 17.457712779589073 0 1 0 I I #
edge $-1 $686 -8.0737225190820308 $547 5.9949456369571532 $546 $759 forward 7 unknown #
vertex $-1 $685 $760 #
straight-curve $-1 9.1131109601444695 -2.2399375915026525 70.447332349039613 0 -0.52991925155115449 0.84804810408105047 I I #
point $-1 9.1131109601444695 30.871650544940998 17.457712779589073 #
point $-1 -4.9555571958947144 37.433048545230562 6.9572806515262187 #
straight-curve $-1 0 37.433048545230562 17.457712779589077 -1 0 0 I I #
vertex $-1 $553 $761 #
point $-1 1.0640622772593389 27.483964089935817 8.0406271565757255 #
vertex $-1 $557 $762 #
point $-1 7.0934914869904091 27.483964089935817 8.0406271565757255 #
coedge $-1 $572 $571 $564 $696 forward $561 $-1 #
edge $-1 $697 49.199171391234515 $700 59.699603519297369 $695 $763 forward 7 unknown #
vertex $-1 $576 $764 #
straight-curve $-1 33.148317426822047 49.18369699654253 17.457712779589073 0 1 0 I I #
edge $-1 $700 -20.091325752420818 $573 -6.022657596381638 $572 $765 forward 7 unknown #
vertex $-1 $699 $766 #
straight-curve $-1 33.148317426822047 -2.2399375915026525 70.447332349039613 0 -0.52991925155115449 0.84804810408105047 I I #
point $-1 33.148317426822047 30.871650544940998 17.457712779589073 #
point $-1 19.079649270782866 37.433048545230562 6.9572806515262187 #
straight-curve $-1 0 37.433048545230562 17.457712779589077 -1 0 0 I I #
vertex $-1 $579 $767 #
point $-1 25.099268743936925 27.483964089935817 8.0406271565757255 #
vertex $-1 $583 $768 #
point $-1 31.128697953667988 27.483964089935817 8.0406271565757255 #
coedge $-1 $598 $597 $590 $710 forward $587 $-1 #
edge $-1 $711 49.199171391234515 $714 59.699603519297369 $709 $769 forward 7 unknown #
vertex $-1 $602 $770 #
straight-curve $-1 57.183523893499626 49.18369699654253 17.457712779589073 0 1 0 I I #
edge $-1 $714 -32.108928985759604 $599 -18.040260829720427 $598 $771 forward 7 unknown #
vertex $-1 $713 $772 #
straight-curve $-1 57.183523893499626 -2.2399375915026525 70.447332349039613 0 -0.52991925155115449 0.84804810408105047 I I #
point $-1 57.183523893499626 30.871650544940998 17.457712779589073 #
point $-1 43.114855737460445 37.433048545230562 6.9572806515262187 #
straight-curve $-1 0 37.433048545230562 17.457712779589077 -1 0 0 I I #
vertex $-1 $605 $773 #
point $-1 49.134475210614504 27.483964089935817 8.0406271565757255 #
vertex $-1 $609 $774 #
point $-1 55.163904420345567 27.483964089935817 8.0406271565757255 #
coedge $-1 $623 $622 $615 $724 forward $613 $-1 #
edge $-1 $731 21.322430691839845 $726 37.476315191034438 $723 $775 forward 7 unknown #
edge $-1 $620 23.878330374754785 $731 37.433048545230562 $619 $776 forward 7 unknown #
vertex $-1 $724 $777 #
straight-curve $-1 -36.823830108783127 -37.433048545230562 1.3038282803944838 0 0.64278759981090561 0.7660444514056185 I I #
edge $-1 $726 -24.130059895572785 $624 -1.2574805308479 $623 $778 forward 7 unknown #
point $-1 -36.823830108783127 -23.878330374754785 17.457712779589077 #
point $-1 -13.951250744058243 -37.433048545230562 1.3038282803944838 #
vertex $-1 $627 $779 #
straight-curve $-1 0 -37.433048545230562 17.457712779589077 1 0 0 I I #
vertex $-1 $630 $780 #
point $-1 -23.887540426420685 -28.057551057322719 7.2006736116414443 #
straight-curve $-1 -59.316995757927181 37.433048545230562 0 0 0 -1 I I #
point $-1 -59.316995757927181 -37.433048545230562 -17.457712779589077 #
straight-curve $-1 -59.316995757927181 0 -17.457712779589077 0 1 0 I I #
point $-1 -59.316995757927181 37.433048545230562 -17.457712779589077 #
coedge $-1 $651 $741 $659 $746 forward $491 $-1 #
coedge $-1 $653 $652 $741 $781 reversed $339 $-1 #
coedge $-1 $739 $654 $740 $781 forward $491 $-1 #
vertex $-1 $655 $782 #
straight-curve $-1 0 37.433048545230562 17.457712779589077 -1 0 0 I I #
point $-1 -36.823830108783127 37.433048545230562 17.457712779589077 #
straight-curve $-1 -36.823830108783127 0 17.457712779589077 0 1 0 I I #
edge $-1 $748 -59.316995757927181 $660 -36.823830108783127 $659 $783 forward 7 unknown #
point $-1 -36.823830108783127 -37.433048545230562 17.457712779589077 #
vertex $-1 $781 $784 #
straight-curve $-1 -59.316995757927181 -37.433048545230562 0 0 0 -1 I I #
straight-curve $-1 -59.316995757927181 37.433048545230562 0 0 0 -1 I I #
straight-curve $-1 -14.922095506533109 37.433048545230562 66.656884170823588 0 0 -1 I I #
point $-1 -14.922095506533109 37.433048545230562 17.457712779589077 #
straight-curve $-1 -10.978214792276351 37.433048545230562 6.9572806515262293 -1 0 0 I I #
point $-1 -14.922095506533109 37.433048545230562 6.9572806515262187 #
point $-1 -24.97114418941824 25.787867881773714 6.9807886534734163 #
point $-1 -18.941714979687163 25.787867881773714 6.9807886534734163 #
straight-curve $-1 9.1131109601444695 37.433048545230562 66.656884170823588 0 0 -1 I I #
point $-1 9.1131109601444695 37.433048545230562 17.457712779589077 #
straight-curve $-1 1.0393884410624388 37.433048545230562 6.9572806515262293 -1 0 0 I I #
point $-1 9.1131109601444695 37.433048545230562 6.9572806515262187 #
point $-1 -0.93593772274066112 25.787867881773714 6.9807886534734163 #
point $-1 5.0934914869904091 25.787867881773714 6.9807886534734163 #
straight-curve $-1 33.148317426822047 37.433048545230562 66.656884170823588 0 0 -1 I I #
point $-1 33.148317426822047 37.433048545230562 17.457712779589077 #
straight-curve $-1 13.056991674401228 37.433048545230562 6.9572806515262293 -1 0 0 I I #
point $-1 33.148317426822047 37.433048545230562 6.9572806515262187 #
point $-1 23.099268743936925 25.787867881773714 6.9807886534734163 #
point $-1 29.128697953667988 25.787867881773714 6.9807886534734163 #
straight-curve $-1 57.183523893499626 37.433048545230562 66.656884170823588 0 0 -1 I I #
point $-1 57.183523893499626 37.433048545230562 17.457712779589077 #
straight-curve $-1 25.074594907740018 37.433048545230562 6.9572806515262293 -1 0 0 I I #
point $-1 57.183523893499626 37.433048545230562 6.9572806515262187 #
point $-1 47.134475210614504 25.787867881773714 6.9807886534734163 #
point $-1 53.163904420345567 25.787867881773714 6.9807886534734163 #
straight-curve $-1 -36.823830108783127 -37.433048545230562 38.780143471428921 0 0 -1 I I #
straight-curve $-1 -36.823830108783127 0 17.457712779589077 0 -1 0 I I #
point $-1 -36.823830108783127 -37.433048545230562 1.3038282803944838 #
straight-curve $-1 -12.693770213210342 -37.433048545230562 1.3038282803944832 1 0 0 I I #
point $-1 -36.823830108783127 -37.433048545230562 17.457712779589077 #
point $-1 -25.387540426420685 -26.90848438021429 6.2364922119250865 #
edge $-1 $742 -37.433048545230562 $748 37.433048545230562 $740 $785 forward 7 unknown #
point $-1 -59.316995757927181 37.433048545230562 17.457712779589077 #
straight-curve $-1 0 -37.433048545230562 17.457712779589077 1 0 0 I I #
point $-1 -59.316995757927181 -37.433048545230562 17.457712779589077 #
straight-curve $-1 -59.316995757927181 0 17.457712779589077 0 -1 0 I I #
End-of-ACIS-data 