500 0 8 0           
7 Unknown 11 ACIS 5.0 NT 24 Thu Mar 25 19:54:26 1999 
-1 9.9999999999999995e-007 1e-010 
body $-1 $8 $-1 $9 #
body $-1 $10 $-1 $11 #
body $-1 $12 $-1 $13 #
body $-1 $14 $-1 $15 #
body $-1 $16 $-1 $17 #
body $-1 $18 $-1 $19 #
body $-1 $20 $-1 $21 #
body $-1 $22 $-1 $23 #
lump $-1 $-1 $24 $0 #
transform $-1 1 0 0 0 1 0 0 0 1 47.41721854304636 28.698364551477958 6.616204885853902 1 rotate no_reflect no_shear #
lump $-1 $-1 $25 $1 #
transform $-1 1 0 0 0 1 0 0 0 1 47.41721854304636 28.698364551477958 6.616204885853902 1 rotate no_reflect no_shear #
lump $-1 $-1 $26 $2 #
transform $-1 1 0 0 0 1 0 0 0 1 47.41721854304636 28.698364551477958 6.616204885853902 1 rotate no_reflect no_shear #
lump $-1 $-1 $27 $3 #
transform $-1 1 0 0 0 1 0 0 0 1 47.41721854304636 28.698364551477958 6.616204885853902 1 rotate no_reflect no_shear #
lump $-1 $-1 $28 $4 #
transform $-1 1 0 0 0 1 0 0 0 1 47.41721854304636 28.698364551477958 6.616204885853902 1 rotate no_reflect no_shear #
lump $-1 $-1 $29 $5 #
transform $-1 1 0 0 0 1 0 0 0 1 47.41721854304636 28.698364551477958 6.616204885853902 1 rotate no_reflect no_shear #
lump $-1 $-1 $30 $6 #
transform $-1 1 0 0 0 1 0 0 0 1 47.41721854304636 28.698364551477958 6.616204885853902 1 rotate no_reflect no_shear #
lump $-1 $-1 $31 $7 #
transform $-1 1 0 0 0 1 0 0 0 1 47.41721854304636 28.698364551477958 6.616204885853902 1 rotate no_reflect no_shear #
shell $-1 $-1 $-1 $32 $-1 $8 #
shell $-1 $-1 $-1 $33 $-1 $10 #
shell $-1 $-1 $-1 $34 $-1 $12 #
shell $-1 $-1 $-1 $35 $-1 $14 #
shell $-1 $-1 $-1 $36 $-1 $16 #
shell $-1 $-1 $-1 $37 $-1 $18 #
shell $-1 $-1 $-1 $38 $-1 $20 #
shell $-1 $-1 $-1 $39 $-1 $22 #
face $-1 $40 $41 $24 $-1 $42 forward single #
face $-1 $43 $44 $25 $-1 $45 forward single #
face $-1 $46 $47 $26 $-1 $48 reversed single #
face $-1 $49 $50 $27 $-1 $51 forward single #
face $-1 $52 $53 $28 $-1 $54 reversed single #
face $-1 $55 $56 $29 $-1 $57 forward single #
face $-1 $58 $59 $30 $-1 $60 forward single #
face $-1 $61 $62 $31 $-1 $63 forward single #
face $-1 $64 $65 $24 $-1 $66 reversed single #
loop $-1 $-1 $67 $32 #
plane-surface $-1 0 0 6.616204885853902 0 0 1 1 0 0 forward_v I I I I #
face $-1 $68 $69 $25 $-1 $70 reversed single #
loop $-1 $-1 $71 $33 #
plane-surface $-1 0 -28.698364551477958 0 0 1 0 0 0 1 forward_v I I I I #
face $-1 $72 $73 $26 $-1 $74 reversed single #
loop $-1 $-1 $75 $34 #
plane-surface $-1 33.398265127778387 -8.0518528072184807 134.64055569919645 0 -1 0 -0.62932039886446345 0 -0.77714595512881146 forward_v I I I I #
face $-1 $76 $77 $27 $-1 $78 forward single #
loop $-1 $79 $80 $35 #
cone-surface $-1 42.599307706387634 -15.283493257827473 2.0727399493700207 -0.62932039886446345 0 -0.77714595512881146 1.5542919102576229 0 -1.2586407977289269 1 I I 0 1 2 forward I I I I #
face $-1 $81 $82 $28 $-1 $83 reversed single #
loop $-1 $-1 $84 $36 #
plane-surface $-1 -108.37562042282451 2.7326424294602436 73.495297887004043 0 1 0 -0.64278761758704617 0 0.76604443648966558 forward_v I I I I #
face $-1 $85 $86 $29 $-1 $87 forward single #
loop $-1 $88 $89 $37 #
cone-surface $-1 -43.48661286481493 5.2712782693213072 3.1440321860010982 0.64278761758704617 0 -0.76604443648966558 0.38302221824483279 0 0.32139380879352308 1 I I 0 1 0.5 forward I I I I #
face $-1 $90 $91 $30 $-1 $92 forward single #
loop $-1 $93 $94 $38 #
cone-surface $-1 -43.48661286481493 9.0792320291128945 3.1440321860010982 0.64278761758704617 0 -0.76604443648966558 0.38302221824483279 0 0.32139380879352308 1 I I 0 1 0.5 forward I I I I #
face $-1 $95 $96 $31 $-1 $97 forward single #
loop $-1 $98 $99 $39 #
cone-surface $-1 -43.48661286481493 12.887185788904482 3.1440321860010982 0.64278761758704617 0 -0.76604443648966558 0.38302221824483279 0 0.32139380879352308 1 I I 0 1 0.5 forward I I I I #
face $-1 $100 $101 $24 $-1 $102 reversed single #
loop $-1 $-1 $103 $40 #
plane-surface $-1 0 0 -6.616204885853902 0 0 1 1 0 0 forward_v I I I I #
coedge $-1 $104 $105 $106 $107 forward $41 $-1 #
face $-1 $108 $109 $25 $-1 $110 forward single #
loop $-1 $-1 $111 $43 #
plane-surface $-1 -47.41721854304636 0 0 1 0 0 0 0 -1 forward_v I I I I #
coedge $-1 $112 $113 $114 $115 forward $44 $-1 #
face $-1 $116 $117 $26 $-1 $118 reversed single #
loop $-1 $-1 $119 $46 #
plane-surface $-1 -26.282980645328351 -15.283493257827473 60.940356510821744 0.62932039886446345 0 0.77714595512881146 0.77714595512881146 0 -0.62932039886446345 forward_v I I I I #
coedge $-1 $120 $121 $122 $123 reversed $47 $-1 #
face $-1 $-1 $124 $27 $-1 $125 forward single #
loop $-1 $126 $127 $49 #
cone-surface $-1 40.459806568269912 -15.283493257827473 -0.56932386817321934 -0.62932039886446345 0 -0.77714595512881146 0.77714595512881146 0 -0.62932039886446345 1 I I -0.70710678118654746 0.70710678118654746 1 forward I I I I #
loop $-1 $-1 $128 $35 #
coedge $-1 $80 $80 $129 $130 reversed $50 $-1 #
face $-1 $131 $132 $28 $-1 $133 reversed single #
loop $-1 $-1 $134 $52 #
plane-surface $-1 -47.417218543046353 9.0792320291128945 0.8479049695735057 -0.64278761758704617 0 0.76604443648966558 0.76604443648966558 0 0.64278761758704617 forward_v I I I I #
coedge $-1 $135 $136 $137 $138 reversed $53 $-1 #
face $-1 $-1 $139 $29 $-1 $140 forward single #
loop $-1 $141 $142 $55 #
cone-surface $-1 -42.832506284388813 5.2712782693213072 2.3644983351660684 0.64278761758704617 0 -0.76604443648966558 0.1915111091224164 0 0.16069690439676154 1 I I -0.70710678118654746 0.70710678118654746 0.25 forward I I I I #
loop $-1 $-1 $143 $37 #
coedge $-1 $89 $89 $144 $145 reversed $56 $-1 #
face $-1 $-1 $146 $30 $-1 $147 forward single #
loop $-1 $148 $149 $58 #
cone-surface $-1 -42.832506284388813 9.0792320291128945 2.3644983351660684 0.64278761758704617 0 -0.76604443648966558 0.1915111091224164 0 0.16069690439676154 1 I I -0.70710678118654746 0.70710678118654746 0.25 forward I I I I #
loop $-1 $-1 $150 $38 #
coedge $-1 $94 $94 $151 $152 reversed $59 $-1 #
face $-1 $-1 $153 $31 $-1 $154 forward single #
loop $-1 $155 $156 $61 #
cone-surface $-1 -42.832506284388813 12.887185788904482 2.3644983351660684 0.64278761758704617 0 -0.76604443648966558 0.1915111091224164 0 0.16069690439676154 1 I I -0.70710678118654746 0.70710678118654746 0.25 forward I I I I #
loop $-1 $-1 $157 $39 #
coedge $-1 $99 $99 $158 $159 reversed $62 $-1 #
face $-1 $160 $161 $24 $-1 $162 reversed single #
loop $-1 $-1 $163 $64 #
plane-surface $-1 0 -28.698364551477958 0 0 1 0 0 0 1 forward_v I I I I #
coedge $-1 $164 $165 $166 $167 forward $65 $-1 #
coedge $-1 $168 $67 $169 $170 forward $41 $-1 #
coedge $-1 $67 $168 $171 $172 forward $41 $-1 #
coedge $-1 $173 $174 $67 $107 reversed $175 $-1 #
edge $-1 $176 -28.698364551477958 $177 28.698364551477958 $106 $178 forward 7 unknown #
face $-1 $179 $180 $25 $-1 $181 reversed single #
loop $-1 $-1 $182 $68 #
plane-surface $-1 0 -31.789979972998704 0.44902874579050156 0 0 1 1 0 0 forward_v I I I I #
coedge $-1 $183 $184 $113 $185 forward $69 $-1 #
coedge $-1 $186 $71 $187 $188 reversed $44 $-1 #
coedge $-1 $71 $186 $111 $185 reversed $44 $-1 #
coedge $-1 $189 $182 $71 $115 reversed $109 $-1 #
edge $-1 $190 -47.41721854304636 $191 47.41721854304636 $114 $192 forward 7 unknown #
face $-1 $193 $194 $26 $-1 $195 reversed single #
loop $-1 $-1 $196 $72 #
plane-surface $-1 33.398265127778387 -22.515133708436466 134.64055569919645 0 1 0 0.62932039886446345 0 0.77714595512881146 forward_v I I I I #
coedge $-1 $197 $198 $199 $200 reversed $73 $-1 #
coedge $-1 $121 $75 $201 $202 reversed $47 $-1 #
coedge $-1 $75 $120 $197 $203 reversed $47 $-1 #
coedge $-1 $199 $204 $75 $123 forward $205 $-1 #
edge $-1 $206 -30.718085979157166 $207 -24.102625784346273 $122 $208 forward 7 unknown #
loop $-1 $-1 $129 $76 #
plane-surface $-1 -26.282980645328351 -15.283493257827473 60.940356510821744 0.62932039886446345 0 0.77714595512881146 0.77714595512881146 0 -0.62932039886446345 forward_v I I I I #
loop $-1 $-1 $209 $49 #
coedge $-1 $127 $127 $128 $210 reversed $77 $-1 #
coedge $-1 $128 $128 $127 $210 forward $79 $-1 #
coedge $-1 $129 $129 $80 $130 forward $124 $-1 #
edge $-1 $211 0 $211 6.2831853071796004 $129 $212 forward 7 unknown #
face $-1 $213 $214 $28 $-1 $215 forward single #
loop $-1 $-1 $216 $81 #
plane-surface $-1 -108.37562042282451 15.425821628765545 73.495297887004043 0 -1 0 0.64278761758704617 0 -0.76604443648966558 forward_v I I I I #
coedge $-1 $217 $218 $219 $220 reversed $82 $-1 #
coedge $-1 $136 $84 $221 $222 reversed $53 $-1 #
coedge $-1 $84 $135 $217 $223 reversed $53 $-1 #
coedge $-1 $219 $224 $84 $138 forward $214 $-1 #
edge $-1 $225 6.7705916683658955 $226 13.644983672770081 $137 $227 forward 7 unknown #
loop $-1 $-1 $144 $85 #
plane-surface $-1 -47.417218543046353 9.0792320291128945 0.8479049695735057 -0.64278761758704617 0 0.76604443648966558 0.76604443648966558 0 0.64278761758704617 forward_v I I I I #
loop $-1 $-1 $228 $55 #
coedge $-1 $142 $142 $143 $229 reversed $86 $-1 #
coedge $-1 $143 $143 $142 $229 forward $88 $-1 #
coedge $-1 $144 $144 $89 $145 forward $139 $-1 #
edge $-1 $230 0 $230 6.2831853071796004 $144 $231 forward 7 unknown #
loop $-1 $-1 $151 $90 #
plane-surface $-1 -47.417218543046353 9.0792320291128945 0.8479049695735057 -0.64278761758704617 0 0.76604443648966558 0.76604443648966558 0 0.64278761758704617 forward_v I I I I #
loop $-1 $-1 $232 $58 #
coedge $-1 $149 $149 $150 $233 reversed $91 $-1 #
coedge $-1 $150 $150 $149 $233 forward $93 $-1 #
coedge $-1 $151 $151 $94 $152 forward $146 $-1 #
edge $-1 $234 0 $234 6.2831853071796004 $151 $235 forward 7 unknown #
loop $-1 $-1 $158 $95 #
plane-surface $-1 -47.417218543046353 9.0792320291128945 0.8479049695735057 -0.64278761758704617 0 0.76604443648966558 0.76604443648966558 0 0.64278761758704617 forward_v I I I I #
loop $-1 $-1 $236 $61 #
coedge $-1 $156 $156 $157 $237 reversed $96 $-1 #
coedge $-1 $157 $157 $156 $237 forward $98 $-1 #
coedge $-1 $158 $158 $99 $159 forward $153 $-1 #
edge $-1 $238 0 $238 6.2831853071796004 $158 $239 forward 7 unknown #
face $-1 $240 $241 $24 $-1 $242 reversed single #
loop $-1 $-1 $243 $100 #
plane-surface $-1 -47.41721854304636 0 0 1 0 0 0 0 -1 forward_v I I I I #
coedge $-1 $244 $171 $245 $246 forward $101 $-1 #
coedge $-1 $247 $103 $244 $248 forward $65 $-1 #
coedge $-1 $103 $247 $249 $250 forward $65 $-1 #
coedge $-1 $174 $173 $103 $167 reversed $175 $-1 #
edge $-1 $251 -28.698364551477958 $252 28.698364551477958 $166 $253 forward 7 unknown #
coedge $-1 $105 $104 $254 $255 forward $41 $-1 #
coedge $-1 $256 $257 $104 $170 reversed $241 $-1 #
edge $-1 $177 -47.41721854304636 $258 47.41721854304636 $169 $259 forward 7 unknown #
coedge $-1 $163 $260 $105 $172 reversed $101 $-1 #
edge $-1 $261 -47.41721854304636 $176 47.41721854304636 $171 $262 forward 7 unknown #
coedge $-1 $166 $106 $260 $263 forward $175 $-1 #
coedge $-1 $106 $166 $256 $264 reversed $175 $-1 #
loop $-1 $-1 $173 $240 #
vertex $-1 $107 $265 #
vertex $-1 $107 $266 #
straight-curve $-1 47.41721854304636 0 6.616204885853902 0 1 0 I I #
face $-1 $267 $268 $25 $-1 $269 reversed single #
loop $-1 $-1 $270 $108 #
plane-surface $-1 0 -31.789979972998704 -2.5509712542094984 0 0 1 1 0 0 forward_v I I I I #
coedge $-1 $114 $271 $272 $273 forward $109 $-1 #
coedge $-1 $274 $111 $275 $276 reversed $69 $-1 #
coedge $-1 $111 $274 $189 $277 reversed $69 $-1 #
edge $-1 $190 -0.44902874579050156 $278 2.5509712542094984 $111 $279 forward 7 unknown #
coedge $-1 $113 $112 $280 $281 forward $44 $-1 #
coedge $-1 $272 $282 $112 $188 forward $283 $-1 #
edge $-1 $284 -2.5509712542094984 $191 0.44902874579050156 $187 $285 forward 7 unknown #
coedge $-1 $271 $114 $184 $277 forward $109 $-1 #
vertex $-1 $185 $286 #
vertex $-1 $273 $287 #
straight-curve $-1 0 -28.698364551477958 0.44902874579050156 1 0 0 I I #
face $-1 $-1 $205 $26 $-1 $288 forward single #
loop $-1 $-1 $289 $116 #
plane-surface $-1 47.41721854304636 0 0 -1 0 0 0 0 1 forward_v I I I I #
coedge $-1 $290 $291 $292 $293 reversed $117 $-1 #
coedge $-1 $294 $119 $121 $203 forward $73 $-1 #
coedge $-1 $119 $294 $290 $295 forward $73 $-1 #
coedge $-1 $292 $122 $119 $200 forward $205 $-1 #
edge $-1 $207 0.41010617830474416 $296 14.873387079522729 $199 $297 forward 7 unknown #
coedge $-1 $298 $299 $120 $202 forward $194 $-1 #
edge $-1 $300 -66.061167111883222 $206 -60.704072963744323 $201 $301 forward 7 unknown #
edge $-1 $207 86.32193032831853 $300 94.83443708609272 $121 $302 forward 7 unknown #
coedge $-1 $122 $292 $298 $303 forward $205 $-1 #
loop $-1 $-1 $292 $193 #
vertex $-1 $202 $304 #
vertex $-1 $123 $305 #
straight-curve $-1 16.699132563889194 -8.0518528072184807 6.6162048858539038 -1 0 0 I I #
coedge $-1 $209 $209 $-1 $306 reversed $126 $-1 #
edge $-1 $307 0 $307 6.2831853071796004 $127 $308 forward 7 unknown #
vertex $-1 $130 $309 #
ellipse-curve $-1 44.109488445640906 -15.283493257827473 3.9376578117844625 0.62932039886446345 0 0.77714595512881146 1.5542919102576229 0 -1.2586407977289269 1 I I #
face $-1 $-1 $310 $28 $-1 $311 reversed single #
loop $-1 $-1 $137 $131 #
plane-surface $-1 0 0 6.616204885853902 0 0 1 1 0 0 forward_v I I I I #
coedge $-1 $312 $313 $314 $315 reversed $132 $-1 #
coedge $-1 $316 $134 $136 $223 forward $82 $-1 #
coedge $-1 $134 $316 $312 $317 forward $82 $-1 #
coedge $-1 $314 $137 $134 $220 forward $214 $-1 #
edge $-1 $226 -1.8069735850962036 $318 10.886205614209098 $219 $319 forward 7 unknown #
coedge $-1 $320 $321 $135 $222 forward $310 $-1 #
edge $-1 $322 -35.899743973928523 $225 -30.131444057648118 $221 $323 forward 7 unknown #
edge $-1 $226 -8.9738815099362945 $322 9.2967162063127932e-015 $136 $324 forward 7 unknown #
coedge $-1 $137 $314 $320 $325 forward $214 $-1 #
vertex $-1 $138 $326 #
vertex $-1 $138 $327 #
straight-curve $-1 -54.187810211412256 2.7326424294602436 6.6162048858539038 1 0 0 I I #
coedge $-1 $228 $228 $-1 $328 reversed $141 $-1 #
edge $-1 $329 0 $329 6.2831853071796004 $142 $330 forward 7 unknown #
vertex $-1 $145 $331 #
ellipse-curve $-1 -43.980022540844274 5.2712782693213072 3.7320549277136976 -0.64278761758704617 0 0.76604443648966558 0.38302221824483279 0 0.32139380879352308 1 I I #
coedge $-1 $232 $232 $-1 $332 reversed $148 $-1 #
edge $-1 $333 0 $333 6.2831853071796004 $149 $334 forward 7 unknown #
vertex $-1 $152 $335 #
ellipse-curve $-1 -43.980022540844274 9.0792320291128945 3.7320549277136976 -0.64278761758704617 0 0.76604443648966558 0.38302221824483279 0 0.32139380879352308 1 I I #
coedge $-1 $236 $236 $-1 $336 reversed $155 $-1 #
edge $-1 $337 0 $337 6.2831853071796004 $156 $338 forward 7 unknown #
vertex $-1 $159 $339 #
ellipse-curve $-1 -43.980022540844274 12.887185788904482 3.7320549277136976 -0.64278761758704617 0 0.76604443648966558 0.38302221824483279 0 0.32139380879352308 1 I I #
face $-1 $-1 $175 $24 $-1 $340 reversed single #
loop $-1 $-1 $256 $160 #
plane-surface $-1 0 28.698364551477958 0 0 -1 0 0 0 -1 forward_v I I I I #
coedge $-1 $341 $254 $257 $342 forward $161 $-1 #
coedge $-1 $260 $163 $164 $248 reversed $101 $-1 #
coedge $-1 $254 $341 $163 $246 reversed $161 $-1 #
edge $-1 $261 -6.616204885853902 $343 6.616204885853902 $245 $344 forward 7 unknown #
coedge $-1 $165 $164 $341 $345 forward $65 $-1 #
edge $-1 $252 -47.41721854304636 $343 47.41721854304636 $244 $346 forward 7 unknown #
coedge $-1 $257 $256 $165 $250 reversed $241 $-1 #
edge $-1 $347 -47.41721854304636 $251 47.41721854304636 $249 $348 forward 7 unknown #
vertex $-1 $167 $349 #
vertex $-1 $263 $350 #
straight-curve $-1 47.41721854304636 0 -6.616204885853902 0 -1 0 I I #
coedge $-1 $243 $245 $168 $255 reversed $161 $-1 #
edge $-1 $258 -28.698364551477958 $261 28.698364551477958 $254 $351 forward 7 unknown #
coedge $-1 $249 $169 $174 $264 forward $241 $-1 #
coedge $-1 $169 $249 $243 $342 reversed $241 $-1 #
vertex $-1 $170 $352 #
straight-curve $-1 0 28.698364551477958 6.616204885853902 -1 0 0 I I #
coedge $-1 $171 $244 $173 $263 reversed $101 $-1 #
vertex $-1 $255 $353 #
straight-curve $-1 0 -28.698364551477958 6.616204885853902 1 0 0 I I #
edge $-1 $176 -6.616204885853902 $252 6.616204885853902 $173 $354 forward 7 unknown #
edge $-1 $177 -6.616204885853902 $251 6.616204885853902 $174 $355 forward 7 unknown #
point $-1 47.41721854304636 -28.698364551477958 6.616204885853902 #
point $-1 47.41721854304636 28.698364551477958 6.616204885853902 #
face $-1 $-1 $283 $25 $-1 $356 reversed single #
loop $-1 $-1 $357 $179 #
plane-surface $-1 0 -34.881595394519451 -1.0509712542094984 0 1 0 0 0 1 forward_v I I I I #
coedge $-1 $358 $280 $282 $359 forward $180 $-1 #
coedge $-1 $182 $189 $360 $361 forward $109 $-1 #
coedge $-1 $362 $187 $182 $273 reversed $283 $-1 #
edge $-1 $363 -3.0916154215207463 $191 3.0916154215207463 $272 $364 forward 7 unknown #
coedge $-1 $184 $183 $357 $365 reversed $69 $-1 #
coedge $-1 $280 $358 $183 $276 forward $180 $-1 #
edge $-1 $366 -3.0916154215207463 $278 3.0916154215207463 $183 $367 forward 7 unknown #
edge $-1 $190 -3.0916154215207463 $368 3.0916154215207463 $184 $369 forward 7 unknown #
vertex $-1 $185 $370 #
straight-curve $-1 -47.41721854304636 -28.698364551477958 0 0 0 -1 I I #
coedge $-1 $270 $275 $186 $281 reversed $180 $-1 #
edge $-1 $284 -47.41721854304636 $278 47.41721854304636 $280 $371 forward 7 unknown #
coedge $-1 $187 $362 $270 $359 reversed $283 $-1 #
loop $-1 $-1 $187 $267 #
vertex $-1 $188 $372 #
straight-curve $-1 47.41721854304636 -28.698364551477958 0 0 0 1 I I #
point $-1 -47.41721854304636 -28.698364551477958 0.44902874579050156 #
point $-1 47.41721854304636 -28.698364551477958 0.44902874579050156 #
plane-surface $-1 0 0 6.616204885853902 0 0 1 1 0 0 forward_v I I I I #
coedge $-1 $299 $298 $291 $373 forward $194 $-1 #
coedge $-1 $291 $196 $198 $295 reversed $117 $-1 #
coedge $-1 $196 $290 $289 $373 reversed $117 $-1 #
coedge $-1 $204 $199 $196 $293 forward $205 $-1 #
edge $-1 $296 24.102625784346273 $374 30.718085979157166 $292 $375 forward 7 unknown #
coedge $-1 $198 $197 $299 $376 reversed $73 $-1 #
edge $-1 $377 -94.83443708609272 $296 -86.32193032831853 $290 $378 forward 7 unknown #
vertex $-1 $200 $379 #
straight-curve $-1 40.801758348235467 -7.6417466289137366 6.6162048858538967 0 -1 0 I I #
coedge $-1 $289 $201 $204 $303 reversed $194 $-1 #
coedge $-1 $201 $289 $294 $376 forward $194 $-1 #
vertex $-1 $202 $380 #
straight-curve $-1 47.41721854304636 -8.0518528072184807 67.320277849598227 0 0 1 I I #
straight-curve $-1 -26.282980645328351 -8.0518528072184807 60.940356510821744 0.77714595512881146 0 -0.62932039886446345 I I #
edge $-1 $374 -22.515133708436466 $206 -8.0518528072184807 $298 $381 forward 7 unknown #
point $-1 47.41721854304636 -8.0518528072184807 6.616204885853902 #
point $-1 40.801758348235467 -8.0518528072184807 6.6162048858539038 #
edge $-1 $382 1 $382 0 $209 $-1 forward 7 unknown #
vertex $-1 $210 $383 #
ellipse-curve $-1 41.089126967134376 -15.283493257827473 0.20782208695559212 0.62932039886446345 0 0.77714595512881146 1.5542919102576229 0 -1.2586407977289269 1 I I #
point $-1 45.663780355898524 -15.283493257827473 2.6790170140555221 #
loop $-1 $-1 $221 $213 #
plane-surface $-1 -47.41721854304636 0 0 1 0 0 0 0 -1 forward_v I I I I #
coedge $-1 $313 $216 $218 $317 reversed $132 $-1 #
coedge $-1 $216 $312 $384 $385 reversed $132 $-1 #
coedge $-1 $224 $219 $216 $315 forward $214 $-1 #
edge $-1 $318 -13.644983672770081 $386 -6.7705916683658955 $314 $387 forward 7 unknown #
coedge $-1 $218 $217 $321 $388 reversed $82 $-1 #
edge $-1 $389 -9.2967162063127932e-015 $318 8.9738815099362945 $312 $390 forward 7 unknown #
vertex $-1 $220 $391 #
straight-curve $-1 -40.542826538642174 4.5396160145564473 6.6162048858539029 0 1 0 I I #
coedge $-1 $384 $221 $224 $325 reversed $310 $-1 #
coedge $-1 $221 $384 $316 $388 forward $310 $-1 #
vertex $-1 $222 $392 #
straight-curve $-1 -47.41721854304636 2.7326424294602436 36.747648943502021 0 0 1 I I #
straight-curve $-1 -47.417218543046353 2.7326424294602436 0.8479049695735057 -0.76604443648966558 0 -0.64278761758704617 I I #
edge $-1 $386 -15.425821628765545 $225 -2.7326424294602436 $320 $393 forward 7 unknown #
point $-1 -47.41721854304636 2.7326424294602436 6.616204885853902 #
point $-1 -40.542826538642174 2.7326424294602436 6.616204885853902 #
edge $-1 $394 1 $394 0 $228 $-1 forward 7 unknown #
vertex $-1 $229 $395 #
ellipse-curve $-1 -42.993203188785571 5.2712782693213072 2.5560094442884846 -0.64278761758704617 0 0.76604443648966558 0.38302221824483279 0 0.32139380879352308 1 I I #
point $-1 -43.597000322599449 5.2712782693213072 4.0534487365072343 #
edge $-1 $396 1 $396 0 $232 $-1 forward 7 unknown #
vertex $-1 $233 $397 #
ellipse-curve $-1 -42.993203188785571 9.0792320291128945 2.5560094442884846 -0.64278761758704617 0 0.76604443648966558 0.38302221824483279 0 0.32139380879352308 1 I I #
point $-1 -43.597000322599449 9.0792320291128945 4.0534487365072343 #
edge $-1 $398 1 $398 0 $236 $-1 forward 7 unknown #
vertex $-1 $237 $399 #
ellipse-curve $-1 -42.993203188785571 12.887185788904482 2.5560094442884846 -0.64278761758704617 0 0.76604443648966558 0.38302221824483279 0 0.32139380879352308 1 I I #
point $-1 -43.597000322599449 12.887185788904482 4.0534487365072343 #
plane-surface $-1 47.41721854304636 0 0 -1 0 0 0 0 1 forward_v I I I I #
coedge $-1 $245 $243 $247 $345 reversed $161 $-1 #
edge $-1 $258 -6.616204885853902 $347 6.616204885853902 $257 $400 forward 7 unknown #
vertex $-1 $345 $401 #
straight-curve $-1 -47.41721854304636 -28.698364551477958 0 0 0 -1 I I #
edge $-1 $343 -28.698364551477958 $347 28.698364551477958 $341 $402 forward 7 unknown #
straight-curve $-1 0 -28.698364551477958 -6.616204885853902 -1 0 0 I I #
vertex $-1 $250 $403 #
straight-curve $-1 0 28.698364551477958 -6.616204885853902 1 0 0 I I #
point $-1 47.41721854304636 28.698364551477958 -6.616204885853902 #
point $-1 47.41721854304636 -28.698364551477958 -6.616204885853902 #
straight-curve $-1 -47.41721854304636 0 6.616204885853902 0 -1 0 I I #
point $-1 -47.41721854304636 28.698364551477958 6.616204885853902 #
point $-1 -47.41721854304636 -28.698364551477958 6.616204885853902 #
straight-curve $-1 47.41721854304636 -28.698364551477958 0 0 0 -1 I I #
straight-curve $-1 47.41721854304636 28.698364551477958 0 0 0 -1 I I #
plane-surface $-1 47.41721854304636 0 0 -1 0 0 0 0 1 forward_v I I I I #
coedge $-1 $404 $360 $274 $365 forward $268 $-1 #
coedge $-1 $275 $270 $404 $405 forward $180 $-1 #
edge $-1 $284 -3.0916154215207463 $406 3.0916154215207463 $282 $407 forward 7 unknown #
coedge $-1 $357 $408 $271 $361 reversed $268 $-1 #
edge $-1 $368 -47.41721854304636 $363 47.41721854304636 $360 $409 forward 7 unknown #
coedge $-1 $282 $272 $408 $410 forward $283 $-1 #
vertex $-1 $273 $411 #
straight-curve $-1 47.41721854304636 -31.789979972998704 0.44902874579050156 0 1 0 I I #
edge $-1 $368 -1.5 $366 1.5 $274 $412 forward 7 unknown #
vertex $-1 $276 $413 #
straight-curve $-1 -47.41721854304636 -31.789979972998704 -2.5509712542094984 0 1 0 I I #
vertex $-1 $277 $414 #
straight-curve $-1 -47.41721854304636 -31.789979972998704 0.44902874579050156 0 -1 0 I I #
point $-1 -47.41721854304636 -28.698364551477958 -2.5509712542094984 #
straight-curve $-1 0 -28.698364551477958 -2.5509712542094984 -1 0 0 I I #
point $-1 47.41721854304636 -28.698364551477958 -2.5509712542094984 #
edge $-1 $374 60.704072963744323 $377 66.061167111883222 $289 $415 forward 7 unknown #
vertex $-1 $303 $416 #
straight-curve $-1 16.699132563889194 -22.515133708436466 6.6162048858539038 1 0 0 I I #
edge $-1 $377 -14.873387079522729 $300 -0.41010617830474416 $299 $417 forward 7 unknown #
vertex $-1 $376 $418 #
straight-curve $-1 -26.282980645328351 -22.515133708436466 60.940356510821744 -0.77714595512881146 0 0.62932039886446345 I I #
point $-1 40.801758348235467 -22.515133708436466 6.6162048858539038 #
point $-1 47.41721854304636 -8.0518528072184807 1.2591107377150053 #
straight-curve $-1 47.41721854304636 0 6.616204885853902 0 1 0 I I #
vertex $-1 $306 $419 #
point $-1 42.643418877391994 -15.283493257827473 -1.0508187107733349 #
coedge $-1 $321 $320 $313 $385 forward $310 $-1 #
edge $-1 $386 30.131444057648118 $389 35.899743973928523 $384 $420 forward 7 unknown #
vertex $-1 $325 $421 #
straight-curve $-1 -54.187810211412256 15.425821628765545 6.6162048858539038 -1 0 0 I I #
edge $-1 $389 -10.886205614209098 $322 1.8069735850962036 $321 $422 forward 7 unknown #
vertex $-1 $388 $423 #
straight-curve $-1 -47.417218543046353 15.425821628765545 0.8479049695735057 0.76604443648966558 0 0.64278761758704617 I I #
point $-1 -40.542826538642174 15.425821628765545 6.616204885853902 #
point $-1 -47.41721854304636 2.7326424294602436 0.8479049695734997 #
straight-curve $-1 -47.41721854304636 0 6.616204885853902 0 -1 0 I I #
vertex $-1 $328 $424 #
point $-1 -42.610180970540739 5.2712782693213072 2.877403253082008 #
vertex $-1 $332 $425 #
point $-1 -42.610180970540739 9.0792320291128945 2.877403253082008 #
vertex $-1 $336 $426 #
point $-1 -42.610180970540739 12.887185788904482 2.877403253082008 #
straight-curve $-1 -47.41721854304636 28.698364551477958 0 0 0 -1 I I #
point $-1 -47.41721854304636 -28.698364551477958 -6.616204885853902 #
straight-curve $-1 -47.41721854304636 0 -6.616204885853902 0 1 0 I I #
point $-1 -47.41721854304636 28.698364551477958 -6.616204885853902 #
coedge $-1 $408 $357 $358 $405 reversed $268 $-1 #
edge $-1 $406 -47.41721854304636 $366 47.41721854304636 $404 $427 forward 7 unknown #
vertex $-1 $410 $428 #
straight-curve $-1 47.41721854304636 -31.789979972998704 -2.5509712542094984 0 -1 0 I I #
coedge $-1 $360 $404 $362 $410 reversed $268 $-1 #
straight-curve $-1 0 -34.881595394519451 0.44902874579050156 1 0 0 I I #
edge $-1 $363 -1.5 $406 1.5 $362 $429 forward 7 unknown #
point $-1 47.41721854304636 -34.881595394519451 0.44902874579050156 #
straight-curve $-1 -47.41721854304636 -34.881595394519451 -1.0509712542094984 0 0 -1 I I #
point $-1 -47.41721854304636 -34.881595394519451 -2.5509712542094984 #
point $-1 -47.41721854304636 -34.881595394519451 0.44902874579050156 #
straight-curve $-1 47.41721854304636 -22.515133708436466 67.320277849598227 0 0 -1 I I #
point $-1 47.41721854304636 -22.515133708436466 6.616204885853902 #
straight-curve $-1 47.417218543046353 -7.6417466289137366 1.2591107377150053 0 1 0 I I #
point $-1 47.41721854304636 -22.515133708436466 1.2591107377150053 #
point $-1 39.830486169405447 -15.283493257827473 -1.3464698233020309 #
straight-curve $-1 -47.41721854304636 15.425821628765545 36.747648943502021 0 0 -1 I I #
point $-1 -47.41721854304636 15.425821628765545 6.616204885853902 #
straight-curve $-1 -47.41721854304636 4.5396160145564473 0.84790496957350481 0 -1 0 I I #
point $-1 -47.41721854304636 15.425821628765545 0.8479049695734997 #
point $-1 -42.671809379992055 5.2712782693213072 2.1729872260436522 #
point $-1 -42.671809379992055 9.0792320291128945 2.1729872260436522 #
point $-1 -42.671809379992055 12.887185788904482 2.1729872260436522 #
straight-curve $-1 0 -34.881595394519451 -2.5509712542094984 -1 0 0 I I #
point $-1 47.41721854304636 -34.881595394519451 -2.5509712542094984 #
straight-curve $-1 47.41721854304636 -34.881595394519451 -1.0509712542094984 0 0 -1 I I #
End-of-ACIS-data 