500 0 6 0           
7 Unknown 11 ACIS 5.0 NT 24 Fri Mar 26 03:30:27 1999 
-1 9.9999999999999995e-007 1e-010 
body $-1 $6 $-1 $7 #
body $-1 $8 $-1 $9 #
body $-1 $10 $-1 $11 #
body $-1 $12 $-1 $13 #
body $-1 $14 $-1 $15 #
body $-1 $16 $-1 $17 #
lump $-1 $-1 $18 $0 #
transform $-1 1 0 0 0 1 0 0 0 1 47.844477675710316 26.471062966726272 11.878815789331943 1 rotate no_reflect no_shear #
lump $-1 $-1 $19 $1 #
transform $-1 1 0 0 0 1 0 0 0 1 47.844477675710316 26.471062966726272 11.878815789331943 1 rotate no_reflect no_shear #
lump $-1 $-1 $20 $2 #
transform $-1 1 0 0 0 1 0 0 0 1 47.844477675710316 26.471062966726272 11.878815789331943 1 rotate no_reflect no_shear #
lump $-1 $-1 $21 $3 #
transform $-1 1 0 0 0 1 0 0 0 1 47.844477675710316 26.471062966726272 11.878815789331943 1 rotate no_reflect no_shear #
lump $-1 $-1 $22 $4 #
transform $-1 1 0 0 0 1 0 0 0 1 47.844477675710316 26.471062966726272 11.878815789331943 1 rotate no_reflect no_shear #
lump $-1 $-1 $23 $5 #
transform $-1 1 0 0 0 1 0 0 0 1 47.844477675710316 26.471062966726272 11.878815789331943 1 rotate no_reflect no_shear #
shell $-1 $-1 $-1 $24 $-1 $6 #
shell $-1 $-1 $-1 $25 $-1 $8 #
shell $-1 $-1 $-1 $26 $-1 $10 #
shell $-1 $-1 $-1 $27 $-1 $12 #
shell $-1 $-1 $-1 $28 $-1 $14 #
shell $-1 $-1 $-1 $29 $-1 $16 #
face $-1 $30 $31 $18 $-1 $32 forward single #
face $-1 $33 $34 $19 $-1 $35 reversed single #
face $-1 $36 $37 $20 $-1 $38 reversed single #
face $-1 $39 $40 $21 $-1 $41 forward single #
face $-1 $42 $43 $22 $-1 $44 reversed single #
face $-1 $45 $46 $23 $-1 $47 forward single #
face $-1 $48 $49 $18 $-1 $50 reversed single #
loop $-1 $-1 $51 $24 #
plane-surface $-1 0 0 11.878815789331943 0 0 1 1 0 0 forward_v I I I I #
face $-1 $52 $53 $19 $-1 $54 reversed single #
loop $-1 $-1 $55 $25 #
plane-surface $-1 -40.267771131708706 -17.671891017467424 0 0 1 0 0 0 1 forward_v I I I I #
face $-1 $56 $57 $20 $-1 $58 reversed single #
loop $-1 $-1 $59 $26 #
plane-surface $-1 5.0241279148903928 -82.715620448124113 84.07086688537315 -1 0 0 0 -0.5877852598018023 0.80901698891910034 forward_v I I I I #
face $-1 $60 $61 $21 $-1 $62 forward single #
loop $-1 $63 $64 $27 #
cone-surface $-1 -2.8528316060579186 -22.104875278655729 8.2045962285826217 0 0.5877852598018023 -0.80901698891910034 1 0 0 1 I I 0 1 1 forward I I I I #
face $-1 $65 $66 $22 $-1 $67 reversed single #
loop $-1 $-1 $68 $28 #
plane-surface $-1 -10.72979112700623 39.884541138466524 115.18946813162728 1 0 0 0 -0.5877852598018023 -0.80901698891910034 forward_v I I I I #
face $-1 $69 $70 $23 $-1 $71 forward single #
loop $-1 $72 $73 $29 #
cone-surface $-1 -2.8528316060579186 22.104875278655733 8.2045962285826146 0 -0.5877852598018023 -0.80901698891910034 1 0 0 1 I I 0 1 1 forward I I I I #
face $-1 $74 $75 $18 $-1 $76 reversed single #
loop $-1 $-1 $77 $30 #
plane-surface $-1 0 0 -11.878815789331943 0 0 1 1 0 0 forward_v I I I I #
coedge $-1 $78 $79 $80 $81 forward $31 $-1 #
face $-1 $82 $83 $19 $-1 $84 reversed single #
loop $-1 $-1 $85 $33 #
plane-surface $-1 -40.267771131708706 -13.558769029412295 0 0 -1 0 0 0 -1 forward_v I I I I #
coedge $-1 $86 $87 $88 $89 reversed $34 $-1 #
face $-1 $90 $91 $20 $-1 $92 reversed single #
loop $-1 $-1 $93 $36 #
plane-surface $-1 -2.8528316060579186 -26.471062966726279 6.656876354152601 0 -0.5877852598018023 0.80901698891910034 1 0 0 forward_v I I I I #
coedge $-1 $94 $95 $96 $97 reversed $37 $-1 #
face $-1 $-1 $98 $21 $-1 $99 forward single #
loop $-1 $100 $101 $39 #
cone-surface $-1 -2.8528316060579186 -21.038486404725628 6.7368378909634234 0 0.5877852598018023 -0.80901698891910034 0.5 0 0 1 I I -0.70710678118654746 0.70710678118654746 0.5 forward I I I I #
loop $-1 $-1 $102 $27 #
coedge $-1 $64 $64 $103 $104 reversed $40 $-1 #
face $-1 $105 $106 $22 $-1 $107 reversed single #
loop $-1 $-1 $108 $42 #
plane-surface $-1 -2.8528316060579186 -16.36001634293131 37.775477600406731 0 0.5877852598018023 0.80901698891910034 1 0 0 forward_v I I I I #
coedge $-1 $109 $110 $111 $112 reversed $43 $-1 #
face $-1 $-1 $113 $23 $-1 $114 forward single #
loop $-1 $115 $116 $45 #
cone-surface $-1 -2.8528316060579186 21.038486404725631 6.7368378909634163 0 -0.5877852598018023 -0.80901698891910034 0.5 0 0 1 I I -0.70710678118654746 0.70710678118654746 0.5 forward I I I I #
loop $-1 $-1 $117 $29 #
coedge $-1 $73 $73 $118 $119 reversed $46 $-1 #
face $-1 $120 $121 $18 $-1 $122 reversed single #
loop $-1 $-1 $123 $48 #
plane-surface $-1 0 -26.471062966726272 0 0 1 0 0 0 1 forward_v I I I I #
coedge $-1 $124 $125 $126 $127 forward $49 $-1 #
coedge $-1 $128 $51 $129 $130 forward $31 $-1 #
coedge $-1 $51 $128 $131 $132 forward $31 $-1 #
coedge $-1 $133 $134 $51 $81 reversed $135 $-1 #
edge $-1 $136 -26.471062966726272 $137 26.471062966726272 $80 $138 forward 7 unknown #
face $-1 $139 $140 $19 $-1 $141 reversed single #
loop $-1 $-1 $142 $52 #
plane-surface $-1 -32.691064587707096 -15.615330023439858 0 -1 0 0 0 0 1 forward_v I I I I #
coedge $-1 $143 $144 $145 $146 forward $53 $-1 #
coedge $-1 $147 $55 $148 $149 reversed $34 $-1 #
coedge $-1 $55 $147 $150 $151 reversed $34 $-1 #
coedge $-1 $152 $153 $55 $89 forward $154 $-1 #
edge $-1 $155 -11.878815789331943 $156 11.878815789331943 $88 $157 forward 7 unknown #
face $-1 $158 $159 $20 $-1 $160 reversed single #
loop $-1 $-1 $161 $56 #
plane-surface $-1 -10.72979112700623 -82.715620448124113 84.07086688537315 1 0 0 0 0.5877852598018023 -0.80901698891910034 forward_v I I I I #
coedge $-1 $162 $163 $164 $165 reversed $57 $-1 #
coedge $-1 $95 $59 $166 $167 reversed $37 $-1 #
coedge $-1 $59 $94 $162 $168 reversed $37 $-1 #
coedge $-1 $164 $169 $59 $97 forward $170 $-1 #
edge $-1 $171 14.886747257335784 $172 22.074130145418444 $96 $173 forward 7 unknown #
loop $-1 $-1 $103 $60 #
plane-surface $-1 -2.8528316060579186 -26.471062966726279 6.656876354152601 0 -0.5877852598018023 0.80901698891910034 1 0 0 forward_v I I I I #
loop $-1 $-1 $174 $39 #
coedge $-1 $101 $101 $102 $175 reversed $61 $-1 #
coedge $-1 $102 $102 $101 $175 forward $63 $-1 #
coedge $-1 $103 $103 $64 $104 forward $98 $-1 #
edge $-1 $176 -3.3904924751706262e-015 $176 6.2831853071795969 $103 $177 forward 7 unknown #
face $-1 $178 $179 $22 $-1 $180 reversed single #
loop $-1 $-1 $181 $65 #
plane-surface $-1 5.0241279148903928 39.884541138466524 115.18946813162728 -1 0 0 0 0.5877852598018023 0.80901698891910034 forward_v I I I I #
coedge $-1 $182 $183 $184 $185 reversed $66 $-1 #
coedge $-1 $110 $68 $186 $187 reversed $43 $-1 #
coedge $-1 $68 $109 $182 $188 reversed $43 $-1 #
coedge $-1 $184 $189 $68 $112 forward $190 $-1 #
edge $-1 $191 -6.5287923974930102 $192 0.65859049058966335 $111 $193 forward 7 unknown #
loop $-1 $-1 $118 $69 #
plane-surface $-1 -2.8528316060579186 -16.36001634293131 37.775477600406731 0 0.5877852598018023 0.80901698891910034 1 0 0 forward_v I I I I #
loop $-1 $-1 $194 $45 #
coedge $-1 $116 $116 $117 $195 reversed $70 $-1 #
coedge $-1 $117 $117 $116 $195 forward $72 $-1 #
coedge $-1 $118 $118 $73 $119 forward $113 $-1 #
edge $-1 $196 1.3022597424754572e-015 $196 6.2831853071796013 $118 $197 forward 7 unknown #
face $-1 $198 $199 $18 $-1 $200 reversed single #
loop $-1 $-1 $201 $74 #
plane-surface $-1 -47.844477675710316 0 0 1 0 0 0 0 -1 forward_v I I I I #
coedge $-1 $202 $131 $203 $204 forward $75 $-1 #
coedge $-1 $205 $77 $202 $206 forward $49 $-1 #
coedge $-1 $77 $205 $207 $208 forward $49 $-1 #
coedge $-1 $134 $133 $77 $127 reversed $135 $-1 #
edge $-1 $209 -26.471062966726272 $210 26.471062966726272 $126 $211 forward 7 unknown #
coedge $-1 $79 $78 $212 $213 forward $31 $-1 #
coedge $-1 $214 $215 $78 $130 reversed $199 $-1 #
edge $-1 $137 -47.844477675710316 $216 47.844477675710316 $129 $217 forward 7 unknown #
coedge $-1 $123 $218 $79 $132 reversed $75 $-1 #
edge $-1 $219 -47.844477675710316 $136 47.844477675710316 $131 $220 forward 7 unknown #
coedge $-1 $126 $80 $218 $221 forward $135 $-1 #
coedge $-1 $80 $126 $214 $222 reversed $135 $-1 #
loop $-1 $-1 $133 $198 #
vertex $-1 $81 $223 #
vertex $-1 $81 $224 #
straight-curve $-1 47.844477675710316 0 11.878815789331943 0 1 0 I I #
face $-1 $225 $226 $19 $-1 $227 forward single #
loop $-1 $-1 $228 $82 #
plane-surface $-1 0 0 -11.878815789331943 0 0 1 1 0 0 forward_v I I I I #
coedge $-1 $229 $230 $147 $231 forward $83 $-1 #
coedge $-1 $232 $85 $228 $233 reversed $53 $-1 #
coedge $-1 $85 $232 $234 $235 reversed $53 $-1 #
coedge $-1 $230 $229 $85 $146 reversed $83 $-1 #
edge $-1 $236 -11.878815789331943 $237 11.878815789331943 $145 $238 forward 7 unknown #
coedge $-1 $87 $86 $142 $231 reversed $34 $-1 #
coedge $-1 $239 $240 $86 $149 forward $140 $-1 #
edge $-1 $241 12.557179021852743 $155 27.710592109855963 $148 $242 forward 7 unknown #
coedge $-1 $243 $244 $87 $151 forward $226 $-1 #
edge $-1 $156 -27.710592109855963 $245 -12.557179021852743 $150 $246 forward 7 unknown #
coedge $-1 $247 $88 $244 $248 reversed $154 $-1 #
coedge $-1 $88 $247 $239 $249 reversed $154 $-1 #
loop $-1 $-1 $247 $225 #
vertex $-1 $249 $250 #
vertex $-1 $89 $251 #
straight-curve $-1 -47.844477675710316 -17.671891017467424 0 0 0 1 I I #
face $-1 $-1 $170 $20 $-1 $252 forward single #
loop $-1 $-1 $253 $90 #
plane-surface $-1 0 -26.471062966726272 0 0 1 0 0 0 1 forward_v I I I I #
coedge $-1 $254 $255 $256 $257 reversed $91 $-1 #
coedge $-1 $258 $93 $95 $168 forward $57 $-1 #
coedge $-1 $93 $258 $254 $259 forward $57 $-1 #
coedge $-1 $256 $96 $93 $165 forward $170 $-1 #
edge $-1 $172 -6.4505437179193521 $260 9.3033753239772707 $164 $261 forward 7 unknown #
coedge $-1 $262 $263 $94 $167 forward $159 $-1 #
edge $-1 $264 -35.378557088533967 $171 -30.15661765335463 $166 $265 forward 7 unknown #
edge $-1 $172 -8.8840938899014716 $264 -8.8807605448725156e-015 $95 $266 forward 7 unknown #
coedge $-1 $96 $256 $262 $267 forward $170 $-1 #
loop $-1 $-1 $256 $158 #
vertex $-1 $167 $268 #
vertex $-1 $97 $269 #
straight-curve $-1 5.0241279148903928 -41.357810224062057 11.878815789331945 0 1 0 I I #
coedge $-1 $174 $174 $-1 $270 reversed $100 $-1 #
edge $-1 $271 0 $271 6.2831853071796004 $101 $272 forward 7 unknown #
vertex $-1 $104 $273 #
ellipse-curve $-1 -2.8528316060579186 -22.877371522684935 9.2678460717422784 0 -0.5877852598018023 0.80901698891910034 1 0 0 1 I I #
face $-1 $-1 $190 $22 $-1 $274 forward single #
loop $-1 $-1 $275 $105 #
plane-surface $-1 0 26.471062966726272 0 0 -1 0 0 0 -1 forward_v I I I I #
coedge $-1 $276 $277 $278 $279 reversed $106 $-1 #
coedge $-1 $280 $108 $110 $188 forward $66 $-1 #
coedge $-1 $108 $280 $276 $281 forward $66 $-1 #
coedge $-1 $278 $111 $108 $185 forward $190 $-1 #
edge $-1 $192 -9.3033753239772707 $282 6.4505437179193521 $184 $283 forward 7 unknown #
coedge $-1 $284 $285 $109 $187 forward $179 $-1 #
edge $-1 $286 -50.937857711661039 $191 -45.715918276481695 $186 $287 forward 7 unknown #
edge $-1 $192 44.058032043551052 $286 52.94212593345253 $110 $288 forward 7 unknown #
coedge $-1 $111 $278 $284 $289 forward $190 $-1 #
loop $-1 $-1 $278 $178 #
vertex $-1 $187 $290 #
vertex $-1 $112 $291 #
straight-curve $-1 -10.72979112700623 19.942270569233262 11.878815789331945 0 -1 0 I I #
coedge $-1 $194 $194 $-1 $292 reversed $115 $-1 #
edge $-1 $293 0 $293 6.2831853071796004 $116 $294 forward 7 unknown #
vertex $-1 $119 $295 #
ellipse-curve $-1 -2.8528316060579186 22.877371522684939 9.2678460717422677 0 0.5877852598018023 0.80901698891910034 1 0 0 1 I I #
face $-1 $-1 $135 $18 $-1 $296 reversed single #
loop $-1 $-1 $214 $120 #
plane-surface $-1 0 26.471062966726272 0 0 -1 0 0 0 -1 forward_v I I I I #
coedge $-1 $297 $212 $215 $298 forward $121 $-1 #
coedge $-1 $218 $123 $124 $206 reversed $75 $-1 #
coedge $-1 $212 $297 $123 $204 reversed $121 $-1 #
edge $-1 $219 -11.878815789331943 $299 11.878815789331943 $203 $300 forward 7 unknown #
coedge $-1 $125 $124 $297 $301 forward $49 $-1 #
edge $-1 $210 -47.844477675710316 $299 47.844477675710316 $202 $302 forward 7 unknown #
coedge $-1 $215 $214 $125 $208 reversed $199 $-1 #
edge $-1 $303 -47.844477675710316 $209 47.844477675710316 $207 $304 forward 7 unknown #
vertex $-1 $127 $305 #
vertex $-1 $221 $306 #
straight-curve $-1 47.844477675710316 0 -11.878815789331943 0 -1 0 I I #
coedge $-1 $201 $203 $128 $213 reversed $121 $-1 #
edge $-1 $216 -26.471062966726272 $219 26.471062966726272 $212 $307 forward 7 unknown #
coedge $-1 $207 $129 $134 $222 forward $199 $-1 #
coedge $-1 $129 $207 $201 $298 reversed $199 $-1 #
vertex $-1 $130 $308 #
straight-curve $-1 0 26.471062966726272 11.878815789331943 -1 0 0 I I #
coedge $-1 $131 $202 $133 $221 reversed $75 $-1 #
vertex $-1 $213 $309 #
straight-curve $-1 0 -26.471062966726272 11.878815789331943 1 0 0 I I #
edge $-1 $136 -11.878815789331943 $210 11.878815789331943 $133 $310 forward 7 unknown #
edge $-1 $137 -11.878815789331943 $209 11.878815789331943 $134 $311 forward 7 unknown #
point $-1 47.844477675710316 -26.471062966726272 11.878815789331943 #
point $-1 47.844477675710316 26.471062966726272 11.878815789331943 #
face $-1 $-1 $154 $19 $-1 $312 reversed single #
loop $-1 $-1 $234 $139 #
plane-surface $-1 0 0 11.878815789331943 0 0 1 1 0 0 forward_v I I I I #
coedge $-1 $240 $239 $143 $233 forward $140 $-1 #
coedge $-1 $145 $142 $240 $313 reversed $83 $-1 #
coedge $-1 $142 $145 $243 $314 reversed $83 $-1 #
edge $-1 $245 -11.878815789331943 $241 11.878815789331943 $142 $315 forward 7 unknown #
coedge $-1 $144 $143 $247 $316 reversed $53 $-1 #
edge $-1 $317 -27.710592109855963 $237 -12.557179021852743 $228 $318 forward 7 unknown #
coedge $-1 $244 $243 $144 $235 forward $226 $-1 #
edge $-1 $236 12.557179021852743 $319 27.710592109855963 $234 $320 forward 7 unknown #
vertex $-1 $235 $321 #
vertex $-1 $233 $322 #
straight-curve $-1 -32.691064587707096 -13.558769029412295 0 0 0 -1 I I #
coedge $-1 $228 $148 $153 $249 forward $140 $-1 #
coedge $-1 $148 $228 $229 $313 forward $140 $-1 #
vertex $-1 $149 $323 #
straight-curve $-1 -20.133885565854353 -17.671891017467424 -11.878815789331943 -1 0 0 I I #
coedge $-1 $234 $150 $230 $314 forward $226 $-1 #
coedge $-1 $150 $234 $152 $248 forward $226 $-1 #
vertex $-1 $151 $324 #
straight-curve $-1 -20.133885565854353 -17.671891017467424 11.878815789331943 1 0 0 I I #
coedge $-1 $153 $152 $232 $316 forward $154 $-1 #
edge $-1 $319 13.558769029412295 $156 17.671891017467424 $152 $325 forward 7 unknown #
edge $-1 $155 -17.671891017467424 $317 -13.558769029412295 $153 $326 forward 7 unknown #
point $-1 -47.844477675710316 -17.671891017467424 -11.878815789331943 #
point $-1 -47.844477675710316 -17.671891017467424 11.878815789331943 #
plane-surface $-1 0 0 11.878815789331943 0 0 1 1 0 0 forward_v I I I I #
coedge $-1 $263 $262 $255 $327 forward $159 $-1 #
coedge $-1 $255 $161 $163 $259 reversed $91 $-1 #
coedge $-1 $161 $254 $253 $327 reversed $91 $-1 #
coedge $-1 $169 $164 $161 $257 forward $170 $-1 #
edge $-1 $260 -22.074130145418444 $328 -14.886747257335784 $256 $329 forward 7 unknown #
coedge $-1 $163 $162 $263 $330 reversed $57 $-1 #
edge $-1 $331 8.8807605448725156e-015 $260 8.8840938899014716 $254 $332 forward 7 unknown #
vertex $-1 $165 $333 #
straight-curve $-1 -1.4264158030289593 -19.283680078643609 11.878815789331943 -1 0 0 I I #
coedge $-1 $253 $166 $169 $267 reversed $159 $-1 #
coedge $-1 $166 $253 $258 $330 forward $159 $-1 #
vertex $-1 $167 $334 #
straight-curve $-1 5.0241279148903928 -26.471062966726272 42.035433442686575 0 0 1 I I #
straight-curve $-1 5.0241279148903928 -26.471062966726279 6.656876354152601 0 -0.80901698891910034 -0.5877852598018023 I I #
edge $-1 $328 -10.72979112700623 $171 5.0241279148903928 $262 $335 forward 7 unknown #
point $-1 5.0241279148903928 -26.471062966726272 11.878815789331943 #
point $-1 5.0241279148903928 -19.283680078643613 11.878815789331943 #
edge $-1 $336 1 $336 0 $174 $-1 forward 7 unknown #
vertex $-1 $175 $337 #
ellipse-curve $-1 -2.8528316060579186 -21.332379034626531 7.141346385422974 0 -0.5877852598018023 0.80901698891910034 1 0 0 1 I I #
point $-1 -1.8528316060579186 -22.877371522684932 9.2678460717422677 #
plane-surface $-1 0 0 11.878815789331943 0 0 1 1 0 0 forward_v I I I I #
coedge $-1 $285 $284 $277 $338 forward $179 $-1 #
coedge $-1 $277 $181 $183 $281 reversed $106 $-1 #
coedge $-1 $181 $276 $275 $338 reversed $106 $-1 #
coedge $-1 $189 $184 $181 $279 forward $190 $-1 #
edge $-1 $282 -0.65859049058966335 $339 6.5287923974930102 $278 $340 forward 7 unknown #
coedge $-1 $183 $182 $285 $341 reversed $66 $-1 #
edge $-1 $342 -52.94212593345253 $282 -44.058032043551052 $276 $343 forward 7 unknown #
vertex $-1 $185 $344 #
straight-curve $-1 -1.4264158030289593 19.283680078643606 11.878815789331945 1 0 0 I I #
coedge $-1 $275 $186 $189 $289 reversed $179 $-1 #
coedge $-1 $186 $275 $280 $341 forward $179 $-1 #
vertex $-1 $187 $345 #
straight-curve $-1 -10.72979112700623 26.471062966726272 57.59473406581364 0 0 1 I I #
straight-curve $-1 -10.72979112700623 -16.36001634293131 37.775477600406731 0 0.80901698891910034 -0.5877852598018023 I I #
edge $-1 $339 -5.0241279148903928 $191 10.72979112700623 $284 $346 forward 7 unknown #
point $-1 -10.72979112700623 26.471062966726272 11.878815789331943 #
point $-1 -10.72979112700623 19.283680078643599 11.878815789331945 #
edge $-1 $347 1 $347 0 $194 $-1 forward 7 unknown #
vertex $-1 $195 $348 #
ellipse-curve $-1 -2.8528316060579186 21.332379034626534 7.1413463854229668 0 0.5877852598018023 0.80901698891910034 1 0 0 1 I I #
point $-1 -1.8528316060579186 22.877371522684935 9.2678460717422606 #
plane-surface $-1 47.844477675710316 0 0 -1 0 0 0 0 1 forward_v I I I I #
coedge $-1 $203 $201 $205 $301 reversed $121 $-1 #
edge $-1 $216 -11.878815789331943 $303 11.878815789331943 $215 $349 forward 7 unknown #
vertex $-1 $301 $350 #
straight-curve $-1 -47.844477675710316 -26.471062966726272 0 0 0 -1 I I #
edge $-1 $299 -26.471062966726272 $303 26.471062966726272 $297 $351 forward 7 unknown #
straight-curve $-1 0 -26.471062966726272 -11.878815789331943 -1 0 0 I I #
vertex $-1 $208 $352 #
straight-curve $-1 0 26.471062966726272 -11.878815789331943 1 0 0 I I #
point $-1 47.844477675710316 26.471062966726272 -11.878815789331943 #
point $-1 47.844477675710316 -26.471062966726272 -11.878815789331943 #
straight-curve $-1 -47.844477675710316 0 11.878815789331943 0 -1 0 I I #
point $-1 -47.844477675710316 26.471062966726272 11.878815789331943 #
point $-1 -47.844477675710316 -26.471062966726272 11.878815789331943 #
straight-curve $-1 47.844477675710316 -26.471062966726272 0 0 0 -1 I I #
straight-curve $-1 47.844477675710316 26.471062966726272 0 0 0 -1 I I #
plane-surface $-1 -47.844477675710316 0 0 1 0 0 0 0 -1 forward_v I I I I #
edge $-1 $237 5.7511040176923656 $241 9.8642260057474935 $240 $353 forward 7 unknown #
edge $-1 $245 -9.8642260057474935 $236 -5.7511040176923656 $243 $354 forward 7 unknown #
straight-curve $-1 -32.691064587707096 -17.671891017467424 0 0 0 -1 I I #
edge $-1 $319 -11.878815789331943 $317 11.878815789331943 $247 $355 forward 7 unknown #
vertex $-1 $316 $356 #
straight-curve $-1 -20.133885565854353 -13.558769029412295 -11.878815789331943 1 0 0 I I #
vertex $-1 $248 $357 #
straight-curve $-1 -20.133885565854353 -13.558769029412295 11.878815789331943 -1 0 0 I I #
point $-1 -32.691064587707096 -13.558769029412295 11.878815789331943 #
point $-1 -32.691064587707096 -13.558769029412295 -11.878815789331943 #
point $-1 -32.691064587707096 -17.671891017467424 -11.878815789331943 #
point $-1 -32.691064587707096 -17.671891017467424 11.878815789331943 #
straight-curve $-1 -47.844477675710316 0 11.878815789331943 0 -1 0 I I #
straight-curve $-1 -47.844477675710316 0 -11.878815789331943 0 1 0 I I #
edge $-1 $328 30.15661765335463 $331 35.378557088533967 $253 $358 forward 7 unknown #
vertex $-1 $267 $359 #
straight-curve $-1 -10.72979112700623 -41.357810224062057 11.878815789331945 0 -1 0 I I #
edge $-1 $331 -9.3033753239772707 $264 6.4505437179193521 $263 $360 forward 7 unknown #
vertex $-1 $330 $361 #
straight-curve $-1 -10.72979112700623 -26.471062966726279 6.656876354152601 0 0.80901698891910034 0.5877852598018023 I I #
point $-1 -10.72979112700623 -19.283680078643613 11.878815789331943 #
point $-1 5.0241279148903928 -26.471062966726272 6.6568763541526064 #
straight-curve $-1 0 -26.471062966726272 11.878815789331943 1 0 0 I I #
vertex $-1 $270 $362 #
point $-1 -1.8528316060579186 -21.332379034626531 7.141346385422974 #
edge $-1 $339 45.715918276481695 $342 50.937857711661039 $275 $363 forward 7 unknown #
vertex $-1 $289 $364 #
straight-curve $-1 5.0241279148903928 19.942270569233262 11.878815789331945 0 1 0 I I #
edge $-1 $342 -6.4505437179193521 $286 9.3033753239772707 $285 $365 forward 7 unknown #
vertex $-1 $341 $366 #
straight-curve $-1 5.0241279148903928 -16.36001634293131 37.775477600406731 0 -0.80901698891910034 0.5877852598018023 I I #
point $-1 5.0241279148903928 19.283680078643599 11.878815789331945 #
point $-1 -10.72979112700623 26.471062966726272 6.656876354152601 #
straight-curve $-1 0 26.471062966726272 11.878815789331943 -1 0 0 I I #
vertex $-1 $292 $367 #
point $-1 -1.8528316060579186 21.332379034626534 7.1413463854229668 #
straight-curve $-1 -47.844477675710316 26.471062966726272 0 0 0 -1 I I #
point $-1 -47.844477675710316 -26.471062966726272 -11.878815789331943 #
straight-curve $-1 -47.844477675710316 0 -11.878815789331943 0 1 0 I I #
point $-1 -47.844477675710316 26.471062966726272 -11.878815789331943 #
straight-curve $-1 -32.691064587707096 -7.8076650117199291 -11.878815789331943 0 -1 0 I I #
straight-curve $-1 -32.691064587707096 -7.8076650117199291 11.878815789331943 0 1 0 I I #
straight-curve $-1 -47.844477675710316 -13.558769029412295 0 0 0 -1 I I #
point $-1 -47.844477675710316 -13.558769029412295 -11.878815789331943 #
point $-1 -47.844477675710316 -13.558769029412295 11.878815789331943 #
straight-curve $-1 -10.72979112700623 -26.471062966726272 42.035433442686575 0 0 -1 I I #
point $-1 -10.72979112700623 -26.471062966726272 11.878815789331943 #
straight-curve $-1 -1.4264158030289593 -26.471062966726272 6.6568763541526055 1 0 0 I I #
point $-1 -10.72979112700623 -26.471062966726272 6.6568763541526064 #
point $-1 -2.8528316060579186 -20.744593774824725 6.3323293965038729 #
straight-curve $-1 5.0241279148903928 26.471062966726272 57.59473406581364 0 0 -1 I I #
point $-1 5.0241279148903928 26.471062966726272 11.878815789331943 #
straight-curve $-1 -1.4264158030289593 26.471062966726272 6.6568763541525993 -1 0 0 I I #
point $-1 5.0241279148903928 26.471062966726272 6.656876354152601 #
point $-1 -2.8528316060579186 20.744593774824729 6.3323293965038658 #
End-of-ACIS-data 