500 0 8 0           
7 Unknown 11 ACIS 5.0 NT 24 Fri Mar 26 19:11:18 1999 
-1 9.9999999999999995e-007 1e-010 
body $-1 $8 $-1 $9 #
body $-1 $10 $-1 $11 #
body $-1 $12 $-1 $13 #
body $-1 $14 $-1 $15 #
body $-1 $16 $-1 $17 #
body $-1 $18 $-1 $19 #
body $-1 $20 $-1 $21 #
body $-1 $22 $-1 $23 #
lump $-1 $-1 $24 $0 #
transform $-1 1 0 0 0 1 0 0 0 1 56.838892788476215 30.039251627731534 7.4654878904162416 1 rotate no_reflect no_shear #
lump $-1 $-1 $25 $1 #
transform $-1 1 0 0 0 1 0 0 0 1 56.838892788476215 30.039251627731534 7.4654878904162416 1 rotate no_reflect no_shear #
lump $-1 $-1 $26 $2 #
transform $-1 1 0 0 0 1 0 0 0 1 56.838892788476215 30.039251627731534 7.4654878904162416 1 rotate no_reflect no_shear #
lump $-1 $-1 $27 $3 #
transform $-1 1 0 0 0 1 0 0 0 1 56.838892788476215 30.039251627731534 7.4654878904162416 1 rotate no_reflect no_shear #
lump $-1 $-1 $28 $4 #
transform $-1 1 0 0 0 1 0 0 0 1 56.838892788476215 30.039251627731534 7.4654878904162416 1 rotate no_reflect no_shear #
lump $-1 $-1 $29 $5 #
transform $-1 1 0 0 0 1 0 0 0 1 56.838892788476215 30.039251627731534 7.4654878904162416 1 rotate no_reflect no_shear #
lump $-1 $-1 $30 $6 #
transform $-1 1 0 0 0 1 0 0 0 1 56.838892788476215 30.039251627731534 7.4654878904162416 1 rotate no_reflect no_shear #
lump $-1 $-1 $31 $7 #
transform $-1 1 0 0 0 1 0 0 0 1 56.838892788476215 30.039251627731534 7.4654878904162416 1 rotate no_reflect no_shear #
shell $-1 $-1 $-1 $32 $-1 $8 #
shell $-1 $-1 $-1 $33 $-1 $10 #
shell $-1 $-1 $-1 $34 $-1 $12 #
shell $-1 $-1 $-1 $35 $-1 $14 #
shell $-1 $-1 $-1 $36 $-1 $16 #
shell $-1 $-1 $-1 $37 $-1 $18 #
shell $-1 $-1 $-1 $38 $-1 $20 #
shell $-1 $-1 $-1 $39 $-1 $22 #
face $-1 $40 $41 $24 $-1 $42 forward single #
face $-1 $43 $44 $25 $-1 $45 reversed single #
face $-1 $46 $47 $26 $-1 $48 forward single #
face $-1 $49 $50 $27 $-1 $51 reversed single #
face $-1 $52 $53 $28 $-1 $54 forward single #
face $-1 $55 $56 $29 $-1 $57 reversed single #
face $-1 $58 $59 $30 $-1 $60 forward single #
face $-1 $61 $62 $31 $-1 $63 forward single #
face $-1 $64 $65 $24 $-1 $66 reversed single #
loop $-1 $-1 $67 $32 #
plane-surface $-1 0 0 7.4654878904162416 0 0 1 1 0 0 forward_v I I I I #
face $-1 $68 $69 $25 $-1 $70 reversed single #
loop $-1 $-1 $71 $33 #
plane-surface $-1 -32.149952002802834 -125.37746553024608 65.686543353295505 -1 0 0 0 -0.83867057594974714 0.54463902268945019 forward_v I I I I #
face $-1 $72 $73 $26 $-1 $74 forward single #
loop $-1 $75 $76 $34 #
cone-surface $-1 -39.840991244892308 -28.42101171395516 5.3470170914450232 0 0.83867057594974714 -0.54463902268945019 0.5 0 0 1 I I 0 1 0.5 forward I I I I #
face $-1 $77 $78 $27 $-1 $79 reversed single #
loop $-1 $-1 $80 $35 #
plane-surface $-1 24.688940785673381 -125.37746553024608 65.686543353295505 -1 0 0 0 -0.83867057594974714 0.54463902268945019 forward_v I I I I #
face $-1 $81 $82 $28 $-1 $83 forward single #
loop $-1 $84 $85 $36 #
cone-surface $-1 16.997901543583907 -28.42101171395516 5.3470170914450232 0 0.83867057594974714 -0.54463902268945019 0.5 0 0 1 I I 0 1 0.5 forward I I I I #
face $-1 $86 $87 $29 $-1 $88 reversed single #
loop $-1 $-1 $89 $37 #
plane-surface $-1 -8.1394453011748205 70.078173485691352 125.72736424478988 1 0 0 0 -0.71933980857756763 -0.69465836192734942 forward_v I I I I #
face $-1 $90 $91 $30 $-1 $92 forward single #
loop $-1 $93 $94 $38 #
cone-surface $-1 0.76618767029149382 26.923961173199601 4.3248198544391636 0 -0.71933980857756763 -0.69465836192734942 1 0 0 1 I I 0 1 1 forward I I I I #
face $-1 $95 $96 $31 $-1 $97 forward single #
loop $-1 $98 $99 $39 #
cone-surface $-1 14.124637127490971 26.923961173199601 4.3248198544391636 0 -0.71933980857756763 -0.69465836192734942 1 0 0 1 I I 0 1 1 forward I I I I #
face $-1 $100 $101 $24 $-1 $102 reversed single #
loop $-1 $-1 $103 $40 #
plane-surface $-1 0 0 -7.4654878904162416 0 0 1 1 0 0 forward_v I I I I #
coedge $-1 $104 $105 $106 $107 forward $41 $-1 #
face $-1 $108 $109 $25 $-1 $110 reversed single #
loop $-1 $-1 $111 $43 #
plane-surface $-1 -39.840991244892308 -30.039251627731531 3.7731853151632535 0 -0.83867057594974714 0.54463902268945019 1 0 0 forward_v I I I I #
coedge $-1 $112 $113 $114 $115 reversed $44 $-1 #
face $-1 $-1 $116 $26 $-1 $117 forward single #
loop $-1 $118 $119 $46 #
cone-surface $-1 -39.840991244892308 -27.792008781992848 4.9385378244279359 0 0.83867057594974714 -0.54463902268945019 0.25 0 0 1 I I -0.70710678118654746 0.70710678118654746 0.25 forward I I I I #
loop $-1 $-1 $120 $34 #
coedge $-1 $76 $76 $121 $122 reversed $47 $-1 #
face $-1 $123 $124 $27 $-1 $125 reversed single #
loop $-1 $-1 $126 $49 #
plane-surface $-1 16.997901543583907 -30.039251627731531 3.7731853151632535 0 -0.83867057594974714 0.54463902268945019 1 0 0 forward_v I I I I #
coedge $-1 $127 $128 $129 $130 reversed $50 $-1 #
face $-1 $-1 $131 $28 $-1 $132 forward single #
loop $-1 $133 $134 $52 #
cone-surface $-1 16.997901543583907 -27.792008781992848 4.9385378244279359 0 0.83867057594974714 -0.54463902268945019 0.25 0 0 1 I I -0.70710678118654746 0.70710678118654746 0.25 forward I I I I #
loop $-1 $-1 $135 $36 #
coedge $-1 $85 $85 $136 $137 reversed $53 $-1 #
face $-1 $138 $139 $29 $-1 $140 reversed single #
loop $-1 $-1 $141 $55 #
plane-surface $-1 7.4454123988912357 -11.694783030755389 46.760139928375636 0 0.71933980857756763 0.69465836192734942 1 0 0 forward_v I I I I #
coedge $-1 $142 $143 $144 $145 reversed $56 $-1 #
face $-1 $-1 $146 $30 $-1 $147 forward single #
loop $-1 $148 $149 $58 #
cone-surface $-1 0.76618767029149382 25.342816402452005 2.7979261342244826 0 -0.71933980857756763 -0.69465836192734942 0.5 0 0 1 I I -0.70710678118654746 0.70710678118654746 0.5 forward I I I I #
loop $-1 $-1 $150 $38 #
coedge $-1 $94 $94 $151 $152 reversed $59 $-1 #
face $-1 $-1 $153 $31 $-1 $154 forward single #
loop $-1 $155 $156 $61 #
cone-surface $-1 14.124637127490971 25.342816402452005 2.7979261342244826 0 -0.71933980857756763 -0.69465836192734942 0.5 0 0 1 I I -0.70710678118654746 0.70710678118654746 0.5 forward I I I I #
loop $-1 $-1 $157 $39 #
coedge $-1 $99 $99 $158 $159 reversed $62 $-1 #
face $-1 $160 $161 $24 $-1 $162 reversed single #
loop $-1 $-1 $163 $64 #
plane-surface $-1 0 -30.039251627731534 0 0 1 0 0 0 1 forward_v I I I I #
coedge $-1 $164 $165 $166 $167 forward $65 $-1 #
coedge $-1 $168 $67 $169 $170 forward $41 $-1 #
coedge $-1 $67 $168 $171 $172 forward $41 $-1 #
coedge $-1 $173 $174 $67 $107 reversed $175 $-1 #
edge $-1 $176 -30.039251627731534 $177 30.039251627731534 $106 $178 forward 7 unknown #
face $-1 $179 $180 $25 $-1 $181 reversed single #
loop $-1 $-1 $182 $68 #
plane-surface $-1 -47.532030486981782 -125.37746553024608 65.686543353295505 1 0 0 0 0.83867057594974714 -0.54463902268945019 forward_v I I I I #
coedge $-1 $183 $184 $185 $186 reversed $69 $-1 #
coedge $-1 $113 $71 $187 $188 reversed $44 $-1 #
coedge $-1 $71 $112 $183 $189 reversed $44 $-1 #
coedge $-1 $185 $190 $71 $115 forward $191 $-1 #
edge $-1 $192 32.649481137391504 $193 35.047290388994519 $114 $194 forward 7 unknown #
loop $-1 $-1 $121 $72 #
plane-surface $-1 -39.840991244892308 -30.039251627731531 3.7731853151632535 0 -0.83867057594974714 0.54463902268945019 1 0 0 forward_v I I I I #
loop $-1 $-1 $195 $46 #
coedge $-1 $119 $119 $120 $196 reversed $73 $-1 #
coedge $-1 $120 $120 $119 $196 forward $75 $-1 #
coedge $-1 $121 $121 $76 $122 forward $116 $-1 #
edge $-1 $197 2.0892198425336296e-015 $197 6.2831853071796022 $121 $198 forward 7 unknown #
face $-1 $199 $200 $27 $-1 $201 reversed single #
loop $-1 $-1 $202 $77 #
plane-surface $-1 9.3068623014944318 -125.37746553024608 65.686543353295505 1 0 0 0 0.83867057594974714 -0.54463902268945019 forward_v I I I I #
coedge $-1 $203 $204 $205 $206 reversed $78 $-1 #
coedge $-1 $128 $80 $207 $208 reversed $50 $-1 #
coedge $-1 $80 $127 $203 $209 reversed $50 $-1 #
coedge $-1 $205 $210 $80 $130 forward $211 $-1 #
edge $-1 $212 32.649481137391504 $213 35.047290388994519 $129 $214 forward 7 unknown #
loop $-1 $-1 $136 $81 #
plane-surface $-1 16.997901543583907 -30.039251627731531 3.7731853151632535 0 -0.83867057594974714 0.54463902268945019 1 0 0 forward_v I I I I #
loop $-1 $-1 $215 $52 #
coedge $-1 $134 $134 $135 $216 reversed $82 $-1 #
coedge $-1 $135 $135 $134 $216 forward $84 $-1 #
coedge $-1 $136 $136 $85 $137 forward $131 $-1 #
edge $-1 $217 2.0892198425336296e-015 $217 6.2831853071796022 $136 $218 forward 7 unknown #
face $-1 $219 $220 $29 $-1 $221 reversed single #
loop $-1 $-1 $222 $86 #
plane-surface $-1 23.030270098957292 70.078173485691352 125.72736424478988 -1 0 0 0 0.71933980857756763 0.69465836192734942 forward_v I I I I #
coedge $-1 $223 $224 $225 $226 reversed $87 $-1 #
coedge $-1 $143 $89 $227 $228 reversed $56 $-1 #
coedge $-1 $89 $142 $223 $229 reversed $56 $-1 #
coedge $-1 $225 $230 $89 $145 forward $231 $-1 #
edge $-1 $232 4.9998351151141414 $233 8.7874662912604364 $144 $234 forward 7 unknown #
loop $-1 $-1 $151 $90 #
plane-surface $-1 7.4454123988912357 -11.694783030755389 46.760139928375636 0 0.71933980857756763 0.69465836192734942 1 0 0 forward_v I I I I #
loop $-1 $-1 $235 $58 #
coedge $-1 $149 $149 $150 $236 reversed $91 $-1 #
coedge $-1 $150 $150 $149 $236 forward $93 $-1 #
coedge $-1 $151 $151 $94 $152 forward $146 $-1 #
edge $-1 $237 -1.80392086758052e-015 $237 6.2831853071795987 $151 $238 forward 7 unknown #
loop $-1 $-1 $158 $95 #
plane-surface $-1 7.4454123988912357 -11.694783030755389 46.760139928375636 0 0.71933980857756763 0.69465836192734942 1 0 0 forward_v I I I I #
loop $-1 $-1 $239 $61 #
coedge $-1 $156 $156 $157 $240 reversed $96 $-1 #
coedge $-1 $157 $157 $156 $240 forward $98 $-1 #
coedge $-1 $158 $158 $99 $159 forward $153 $-1 #
edge $-1 $241 -1.80392086758052e-015 $241 6.2831853071795987 $158 $242 forward 7 unknown #
face $-1 $243 $244 $24 $-1 $245 reversed single #
loop $-1 $-1 $246 $100 #
plane-surface $-1 -56.838892788476215 0 0 1 0 0 0 0 -1 forward_v I I I I #
coedge $-1 $247 $171 $248 $249 forward $101 $-1 #
coedge $-1 $250 $103 $247 $251 forward $65 $-1 #
coedge $-1 $103 $250 $252 $253 forward $65 $-1 #
coedge $-1 $174 $173 $103 $167 reversed $175 $-1 #
edge $-1 $254 -30.039251627731534 $255 30.039251627731534 $166 $256 forward 7 unknown #
coedge $-1 $105 $104 $257 $258 forward $41 $-1 #
coedge $-1 $259 $260 $104 $170 reversed $244 $-1 #
edge $-1 $177 -56.838892788476215 $261 56.838892788476215 $169 $262 forward 7 unknown #
coedge $-1 $163 $263 $105 $172 reversed $101 $-1 #
edge $-1 $264 -56.838892788476215 $176 56.838892788476215 $171 $265 forward 7 unknown #
coedge $-1 $166 $106 $263 $266 forward $175 $-1 #
coedge $-1 $106 $166 $259 $267 reversed $175 $-1 #
loop $-1 $-1 $173 $243 #
vertex $-1 $107 $268 #
vertex $-1 $107 $269 #
straight-curve $-1 56.838892788476215 0 7.4654878904162416 0 1 0 I I #
face $-1 $-1 $191 $25 $-1 $270 forward single #
loop $-1 $-1 $271 $108 #
plane-surface $-1 0 -30.039251627731534 0 0 1 0 0 0 1 forward_v I I I I #
coedge $-1 $272 $273 $274 $275 reversed $109 $-1 #
coedge $-1 $276 $111 $113 $189 forward $69 $-1 #
coedge $-1 $111 $276 $272 $277 forward $69 $-1 #
coedge $-1 $274 $114 $111 $186 forward $191 $-1 #
edge $-1 $193 12.22945638035668 $278 27.611534864535628 $185 $279 forward 7 unknown #
coedge $-1 $280 $281 $112 $188 forward $180 $-1 #
edge $-1 $282 -29.070086361484506 $192 -25.377783786231511 $187 $283 forward 7 unknown #
edge $-1 $193 -4.4025660147569416 $282 6.4042811466935879e-015 $113 $284 forward 7 unknown #
coedge $-1 $114 $274 $280 $285 forward $191 $-1 #
loop $-1 $-1 $274 $179 #
vertex $-1 $188 $286 #
vertex $-1 $115 $287 #
straight-curve $-1 -32.149952002802834 -62.688732765123042 7.4654878904162416 0 1 0 I I #
coedge $-1 $195 $195 $-1 $288 reversed $118 $-1 #
edge $-1 $289 0 $289 6.2831853071796004 $119 $290 forward 7 unknown #
vertex $-1 $122 $291 #
ellipse-curve $-1 -39.840991244892308 -28.840347001930027 5.6193366027897449 0 -0.83867057594974714 0.54463902268945019 0.5 0 0 1 I I #
face $-1 $-1 $211 $27 $-1 $292 forward single #
loop $-1 $-1 $293 $123 #
plane-surface $-1 0 -30.039251627731534 0 0 1 0 0 0 1 forward_v I I I I #
coedge $-1 $294 $295 $296 $297 reversed $124 $-1 #
coedge $-1 $298 $126 $128 $209 forward $78 $-1 #
coedge $-1 $126 $298 $294 $299 forward $78 $-1 #
coedge $-1 $296 $129 $126 $206 forward $211 $-1 #
edge $-1 $213 -16.189990013881427 $300 -0.80791152970247815 $205 $301 forward 7 unknown #
coedge $-1 $302 $303 $127 $208 forward $200 $-1 #
edge $-1 $304 -29.070086361484506 $212 -25.377783786231511 $207 $305 forward 7 unknown #
edge $-1 $213 -4.4025660147569416 $304 6.4042811466935879e-015 $128 $306 forward 7 unknown #
coedge $-1 $129 $296 $302 $307 forward $211 $-1 #
loop $-1 $-1 $296 $199 #
vertex $-1 $208 $308 #
vertex $-1 $130 $309 #
straight-curve $-1 24.688940785673381 -62.688732765123042 7.4654878904162416 0 1 0 I I #
coedge $-1 $215 $215 $-1 $310 reversed $133 $-1 #
edge $-1 $311 0 $311 6.2831853071796004 $134 $312 forward 7 unknown #
vertex $-1 $137 $313 #
ellipse-curve $-1 16.997901543583907 -28.840347001930027 5.6193366027897449 0 -0.83867057594974714 0.54463902268945019 0.5 0 0 1 I I #
face $-1 $-1 $231 $29 $-1 $314 forward single #
loop $-1 $-1 $315 $138 #
plane-surface $-1 0 30.039251627731534 0 0 -1 0 0 0 -1 forward_v I I I I #
coedge $-1 $316 $317 $318 $319 reversed $139 $-1 #
coedge $-1 $320 $141 $143 $229 forward $87 $-1 #
coedge $-1 $141 $320 $316 $321 forward $87 $-1 #
coedge $-1 $318 $144 $141 $226 forward $231 $-1 #
edge $-1 $233 -11.862151500620438 $322 19.307563899511674 $225 $323 forward 7 unknown #
coedge $-1 $324 $325 $142 $228 forward $220 $-1 #
edge $-1 $326 -59.320401225430899 $232 -55.3981942319787 $227 $327 forward 7 unknown #
edge $-1 $233 54.625993959184846 $326 60.07850325546309 $143 $328 forward 7 unknown #
coedge $-1 $144 $318 $324 $329 forward $231 $-1 #
loop $-1 $-1 $318 $219 #
vertex $-1 $228 $330 #
vertex $-1 $145 $331 #
straight-curve $-1 -8.1394453011748205 35.039086742845676 7.4654878904162416 0 -1 0 I I #
coedge $-1 $235 $235 $-1 $332 reversed $148 $-1 #
edge $-1 $333 0 $333 6.2831853071796004 $149 $334 forward 7 unknown #
vertex $-1 $152 $335 #
ellipse-curve $-1 0.76618767029149382 28.145436039658389 5.5043843936901462 0 0.71933980857756763 0.69465836192734942 1 0 0 1 I I #
coedge $-1 $239 $239 $-1 $336 reversed $155 $-1 #
edge $-1 $337 0 $337 6.2831853071796004 $156 $338 forward 7 unknown #
vertex $-1 $159 $339 #
ellipse-curve $-1 14.124637127490971 28.145436039658389 5.5043843936901462 0 0.71933980857756763 0.69465836192734942 1 0 0 1 I I #
face $-1 $-1 $175 $24 $-1 $340 reversed single #
loop $-1 $-1 $259 $160 #
plane-surface $-1 0 30.039251627731534 0 0 -1 0 0 0 -1 forward_v I I I I #
coedge $-1 $341 $257 $260 $342 forward $161 $-1 #
coedge $-1 $263 $163 $164 $251 reversed $101 $-1 #
coedge $-1 $257 $341 $163 $249 reversed $161 $-1 #
edge $-1 $264 -7.4654878904162416 $343 7.4654878904162416 $248 $344 forward 7 unknown #
coedge $-1 $165 $164 $341 $345 forward $65 $-1 #
edge $-1 $255 -56.838892788476215 $343 56.838892788476215 $247 $346 forward 7 unknown #
coedge $-1 $260 $259 $165 $253 reversed $244 $-1 #
edge $-1 $347 -56.838892788476215 $254 56.838892788476215 $252 $348 forward 7 unknown #
vertex $-1 $167 $349 #
vertex $-1 $266 $350 #
straight-curve $-1 56.838892788476215 0 -7.4654878904162416 0 -1 0 I I #
coedge $-1 $246 $248 $168 $258 reversed $161 $-1 #
edge $-1 $261 -30.039251627731534 $264 30.039251627731534 $257 $351 forward 7 unknown #
coedge $-1 $252 $169 $174 $267 forward $244 $-1 #
coedge $-1 $169 $252 $246 $342 reversed $244 $-1 #
vertex $-1 $170 $352 #
straight-curve $-1 0 30.039251627731534 7.4654878904162416 -1 0 0 I I #
coedge $-1 $171 $247 $173 $266 reversed $101 $-1 #
vertex $-1 $258 $353 #
straight-curve $-1 0 -30.039251627731534 7.4654878904162416 1 0 0 I I #
edge $-1 $176 -7.4654878904162416 $255 7.4654878904162416 $173 $354 forward 7 unknown #
edge $-1 $177 -7.4654878904162416 $254 7.4654878904162416 $174 $355 forward 7 unknown #
point $-1 56.838892788476215 -30.039251627731534 7.4654878904162416 #
point $-1 56.838892788476215 30.039251627731534 7.4654878904162416 #
plane-surface $-1 0 0 7.4654878904162416 0 0 1 1 0 0 forward_v I I I I #
coedge $-1 $281 $280 $273 $356 forward $180 $-1 #
coedge $-1 $273 $182 $184 $277 reversed $109 $-1 #
coedge $-1 $182 $272 $271 $356 reversed $109 $-1 #
coedge $-1 $190 $185 $182 $275 forward $191 $-1 #
edge $-1 $278 -35.047290388994519 $357 -32.649481137391504 $274 $358 forward 7 unknown #
coedge $-1 $184 $183 $281 $359 reversed $69 $-1 #
edge $-1 $360 -6.4042811466935879e-015 $278 4.4025660147569416 $272 $361 forward 7 unknown #
vertex $-1 $186 $362 #
straight-curve $-1 -19.920495622446154 -27.641442376128524 7.4654878904162416 -1 0 0 I I #
coedge $-1 $271 $187 $190 $285 reversed $180 $-1 #
coedge $-1 $187 $271 $276 $359 forward $180 $-1 #
vertex $-1 $188 $363 #
straight-curve $-1 -32.149952002802834 -30.039251627731531 32.843271676647753 0 0 1 I I #
straight-curve $-1 -32.149952002802834 -30.039251627731531 3.7731853151632535 0 -0.54463902268945019 -0.83867057594974714 I I #
edge $-1 $357 -47.532030486981782 $192 -32.149952002802834 $280 $364 forward 7 unknown #
point $-1 -32.149952002802834 -30.039251627731534 7.4654878904162416 #
point $-1 -32.149952002802834 -27.641442376128524 7.4654878904162416 #
edge $-1 $365 1 $365 0 $195 $-1 forward 7 unknown #
vertex $-1 $196 $366 #
ellipse-curve $-1 -39.840991244892308 -28.001676425980286 5.074697580100298 0 -0.83867057594974714 0.54463902268945019 0.5 0 0 1 I I #
point $-1 -39.340991244892308 -28.840347001930031 5.6193366027897484 #
plane-surface $-1 0 0 7.4654878904162416 0 0 1 1 0 0 forward_v I I I I #
coedge $-1 $303 $302 $295 $367 forward $200 $-1 #
coedge $-1 $295 $202 $204 $299 reversed $124 $-1 #
coedge $-1 $202 $294 $293 $367 reversed $124 $-1 #
coedge $-1 $210 $205 $202 $297 forward $211 $-1 #
edge $-1 $300 -35.047290388994519 $368 -32.649481137391504 $296 $369 forward 7 unknown #
coedge $-1 $204 $203 $303 $370 reversed $78 $-1 #
edge $-1 $371 -6.4042811466935879e-015 $300 4.4025660147569416 $294 $372 forward 7 unknown #
vertex $-1 $206 $373 #
straight-curve $-1 8.4989507717919537 -27.641442376128524 7.4654878904162416 -1 0 0 I I #
coedge $-1 $293 $207 $210 $307 reversed $200 $-1 #
coedge $-1 $207 $293 $298 $370 forward $200 $-1 #
vertex $-1 $208 $374 #
straight-curve $-1 24.688940785673381 -30.039251627731531 32.843271676647753 0 0 1 I I #
straight-curve $-1 24.688940785673381 -30.039251627731531 3.7731853151632535 0 -0.54463902268945019 -0.83867057594974714 I I #
edge $-1 $368 9.3068623014944318 $212 24.688940785673381 $302 $375 forward 7 unknown #
point $-1 24.688940785673381 -30.039251627731534 7.4654878904162416 #
point $-1 24.688940785673381 -27.641442376128524 7.4654878904162416 #
edge $-1 $376 1 $376 0 $215 $-1 forward 7 unknown #
vertex $-1 $216 $377 #
ellipse-curve $-1 16.997901543583907 -28.001676425980286 5.074697580100298 0 -0.83867057594974714 0.54463902268945019 0.5 0 0 1 I I #
point $-1 17.497901543583907 -28.840347001930031 5.6193366027897484 #
plane-surface $-1 0 0 7.4654878904162416 0 0 1 1 0 0 forward_v I I I I #
coedge $-1 $325 $324 $317 $378 forward $220 $-1 #
coedge $-1 $317 $222 $224 $321 reversed $139 $-1 #
coedge $-1 $222 $316 $315 $378 reversed $139 $-1 #
coedge $-1 $230 $225 $222 $319 forward $231 $-1 #
edge $-1 $322 -8.7874662912604364 $379 -4.9998351151141414 $318 $380 forward 7 unknown #
coedge $-1 $224 $223 $325 $381 reversed $87 $-1 #
edge $-1 $382 -60.07850325546309 $322 -54.625993959184846 $316 $383 forward 7 unknown #
vertex $-1 $226 $384 #
straight-curve $-1 3.7227061994456179 26.251620451585239 7.4654878904162452 1 0 0 I I #
coedge $-1 $315 $227 $230 $329 reversed $220 $-1 #
coedge $-1 $227 $315 $320 $381 forward $220 $-1 #
vertex $-1 $228 $385 #
straight-curve $-1 -8.1394453011748205 30.039251627731534 62.863682122394941 0 0 1 I I #
straight-curve $-1 -8.1394453011748205 -11.694783030755389 46.760139928375636 0 0.69465836192734942 -0.71933980857756763 I I #
edge $-1 $379 -23.030270098957292 $232 8.1394453011748205 $324 $386 forward 7 unknown #
point $-1 -8.1394453011748205 30.039251627731534 7.4654878904162416 #
point $-1 -8.1394453011748205 26.251620451585239 7.4654878904162416 #
edge $-1 $387 1 $387 0 $235 $-1 forward 7 unknown #
vertex $-1 $236 $388 #
ellipse-curve $-1 0.76618767029149382 25.702486306740788 3.145255315188157 0 0.71933980857756763 0.69465836192734942 1 0 0 1 I I #
point $-1 1.7661876702914938 28.14543603965841 5.5043843936901693 #
edge $-1 $389 1 $389 0 $239 $-1 forward 7 unknown #
vertex $-1 $240 $390 #
ellipse-curve $-1 14.124637127490971 25.702486306740788 3.145255315188157 0 0.71933980857756763 0.69465836192734942 1 0 0 1 I I #
point $-1 15.124637127490971 28.14543603965841 5.5043843936901693 #
plane-surface $-1 56.838892788476215 0 0 -1 0 0 0 0 1 forward_v I I I I #
coedge $-1 $248 $246 $250 $345 reversed $161 $-1 #
edge $-1 $261 -7.4654878904162416 $347 7.4654878904162416 $260 $391 forward 7 unknown #
vertex $-1 $345 $392 #
straight-curve $-1 -56.838892788476215 -30.039251627731534 0 0 0 -1 I I #
edge $-1 $343 -30.039251627731534 $347 30.039251627731534 $341 $393 forward 7 unknown #
straight-curve $-1 0 -30.039251627731534 -7.4654878904162416 -1 0 0 I I #
vertex $-1 $253 $394 #
straight-curve $-1 0 30.039251627731534 -7.4654878904162416 1 0 0 I I #
point $-1 56.838892788476215 30.039251627731534 -7.4654878904162416 #
point $-1 56.838892788476215 -30.039251627731534 -7.4654878904162416 #
straight-curve $-1 -56.838892788476215 0 7.4654878904162416 0 -1 0 I I #
point $-1 -56.838892788476215 30.039251627731534 7.4654878904162416 #
point $-1 -56.838892788476215 -30.039251627731534 7.4654878904162416 #
straight-curve $-1 56.838892788476215 -30.039251627731534 0 0 0 -1 I I #
straight-curve $-1 56.838892788476215 30.039251627731534 0 0 0 -1 I I #
edge $-1 $357 25.377783786231511 $360 29.070086361484506 $271 $395 forward 7 unknown #
vertex $-1 $285 $396 #
straight-curve $-1 -47.532030486981782 -62.688732765123042 7.4654878904162416 0 -1 0 I I #
edge $-1 $360 -27.611534864535628 $282 -12.22945638035668 $281 $397 forward 7 unknown #
vertex $-1 $359 $398 #
straight-curve $-1 -47.532030486981782 -30.039251627731531 3.7731853151632535 0 0.54463902268945019 0.83867057594974714 I I #
point $-1 -47.532030486981782 -27.641442376128524 7.4654878904162416 #
point $-1 -32.149952002802834 -30.039251627731534 3.7731853151632482 #
straight-curve $-1 0 -30.039251627731534 7.4654878904162416 1 0 0 I I #
vertex $-1 $288 $399 #
point $-1 -39.340991244892308 -28.001676425980286 5.074697580100298 #
edge $-1 $368 25.377783786231511 $371 29.070086361484506 $293 $400 forward 7 unknown #
vertex $-1 $307 $401 #
straight-curve $-1 9.3068623014944318 -62.688732765123042 7.4654878904162416 0 -1 0 I I #
edge $-1 $371 0.80791152970247815 $304 16.189990013881427 $303 $402 forward 7 unknown #
vertex $-1 $370 $403 #
straight-curve $-1 9.3068623014944318 -30.039251627731531 3.7731853151632535 0 0.54463902268945019 0.83867057594974714 I I #
point $-1 9.3068623014944318 -27.641442376128524 7.4654878904162416 #
point $-1 24.688940785673381 -30.039251627731534 3.7731853151632482 #
straight-curve $-1 0 -30.039251627731534 7.4654878904162416 1 0 0 I I #
vertex $-1 $310 $404 #
point $-1 17.497901543583907 -28.001676425980286 5.074697580100298 #
edge $-1 $379 55.3981942319787 $382 59.320401225430899 $315 $405 forward 7 unknown #
vertex $-1 $329 $406 #
straight-curve $-1 23.030270098957292 35.039086742845676 7.4654878904162416 0 1 0 I I #
edge $-1 $382 -19.307563899511674 $326 11.862151500620438 $325 $407 forward 7 unknown #
vertex $-1 $381 $408 #
straight-curve $-1 23.030270098957292 -11.694783030755389 46.760139928375636 0 -0.69465836192734942 0.71933980857756763 I I #
point $-1 23.030270098957292 26.251620451585239 7.4654878904162416 #
point $-1 -8.1394453011748205 30.039251627731531 3.5432808969640419 #
straight-curve $-1 0 30.039251627731534 7.4654878904162416 -1 0 0 I I #
vertex $-1 $332 $409 #
point $-1 1.7661876702914938 25.702486306740788 3.145255315188157 #
vertex $-1 $336 $410 #
point $-1 15.124637127490971 25.702486306740788 3.145255315188157 #
straight-curve $-1 -56.838892788476215 30.039251627731534 0 0 0 -1 I I #
point $-1 -56.838892788476215 -30.039251627731534 -7.4654878904162416 #
straight-curve $-1 -56.838892788476215 0 -7.4654878904162416 0 1 0 I I #
point $-1 -56.838892788476215 30.039251627731534 -7.4654878904162416 #
straight-curve $-1 -47.532030486981782 -30.039251627731531 32.843271676647753 0 0 -1 I I #
point $-1 -47.532030486981782 -30.039251627731534 7.4654878904162416 #
straight-curve $-1 -19.920495622446154 -30.039251627731534 3.7731853151632455 1 0 0 I I #
point $-1 -47.532030486981782 -30.039251627731534 3.7731853151632482 #
point $-1 -39.840991244892308 -27.582341138005411 4.8023780687555737 #
straight-curve $-1 9.3068623014944318 -30.039251627731531 32.843271676647753 0 0 -1 I I #
point $-1 9.3068623014944318 -30.039251627731534 7.4654878904162416 #
straight-curve $-1 8.4989507717919537 -30.039251627731534 3.7731853151632455 1 0 0 I I #
point $-1 9.3068623014944318 -30.039251627731534 3.7731853151632482 #
point $-1 16.997901543583907 -27.582341138005411 4.8023780687555737 #
straight-curve $-1 23.030270098957292 30.039251627731534 62.863682122394941 0 0 -1 I I #
point $-1 23.030270098957292 30.039251627731534 7.4654878904162416 #
straight-curve $-1 3.7227061994456179 30.039251627731534 3.5432808969640455 -1 0 0 I I #
point $-1 23.030270098957292 30.039251627731531 3.5432808969640419 #
point $-1 0.76618767029149382 24.983146498163222 2.4505969532608081 #
point $-1 14.124637127490971 24.983146498163222 2.4505969532608081 #
End-of-ACIS-data 