500 0 8 0           
7 Unknown 11 ACIS 5.0 NT 24 Fri Mar 26 20:11:51 1999 
-1 9.9999999999999995e-007 1e-010 
body $-1 $8 $-1 $9 #
body $-1 $10 $-1 $11 #
body $-1 $12 $-1 $13 #
body $-1 $14 $-1 $15 #
body $-1 $16 $-1 $17 #
body $-1 $18 $-1 $19 #
body $-1 $20 $-1 $21 #
body $-1 $22 $-1 $23 #
lump $-1 $-1 $24 $0 #
transform $-1 1 0 0 0 1 0 0 0 1 60.568254646443066 37.748549635708677 11.882607965865571 1 rotate no_reflect no_shear #
lump $-1 $-1 $25 $1 #
transform $-1 1 0 0 0 1 0 0 0 1 60.568254646443066 37.748549635708677 11.882607965865571 1 rotate no_reflect no_shear #
lump $-1 $-1 $26 $2 #
transform $-1 1 0 0 0 1 0 0 0 1 60.568254646443066 37.748549635708677 11.882607965865571 1 rotate no_reflect no_shear #
lump $-1 $-1 $27 $3 #
transform $-1 1 0 0 0 1 0 0 0 1 60.568254646443066 37.748549635708677 11.882607965865571 1 rotate no_reflect no_shear #
lump $-1 $-1 $28 $4 #
transform $-1 1 0 0 0 1 0 0 0 1 60.568254646443066 37.748549635708677 11.882607965865571 1 rotate no_reflect no_shear #
lump $-1 $-1 $29 $5 #
transform $-1 1 0 0 0 1 0 0 0 1 60.568254646443066 37.748549635708677 11.882607965865571 1 rotate no_reflect no_shear #
lump $-1 $-1 $30 $6 #
transform $-1 1 0 0 0 1 0 0 0 1 60.568254646443066 37.748549635708677 11.882607965865571 1 rotate no_reflect no_shear #
lump $-1 $-1 $31 $7 #
transform $-1 1 0 0 0 1 0 0 0 1 60.568254646443066 37.748549635708677 11.882607965865571 1 rotate no_reflect no_shear #
shell $-1 $-1 $-1 $32 $-1 $8 #
shell $-1 $-1 $-1 $33 $-1 $10 #
shell $-1 $-1 $-1 $34 $-1 $12 #
shell $-1 $-1 $-1 $35 $-1 $14 #
shell $-1 $-1 $-1 $36 $-1 $16 #
shell $-1 $-1 $-1 $37 $-1 $18 #
shell $-1 $-1 $-1 $38 $-1 $20 #
shell $-1 $-1 $-1 $39 $-1 $22 #
face $-1 $40 $41 $24 $-1 $42 forward single #
face $-1 $43 $44 $25 $-1 $45 forward single #
face $-1 $46 $47 $26 $-1 $48 reversed single #
face $-1 $49 $50 $27 $-1 $51 forward single #
face $-1 $52 $53 $28 $-1 $54 forward single #
face $-1 $55 $56 $29 $-1 $57 reversed single #
face $-1 $58 $59 $30 $-1 $60 forward single #
face $-1 $61 $62 $31 $-1 $63 forward single #
face $-1 $64 $65 $24 $-1 $66 reversed single #
loop $-1 $-1 $67 $32 #
plane-surface $-1 0 0 11.882607965865571 0 0 1 1 0 0 forward_v I I I I #
face $-1 $68 $69 $25 $-1 $70 reversed single #
loop $-1 $-1 $71 $33 #
plane-surface $-1 0 -37.748549635708677 0 0 1 0 0 0 1 forward_v I I I I #
face $-1 $72 $73 $26 $-1 $74 reversed single #
loop $-1 $-1 $75 $34 #
plane-surface $-1 90.316428951986993 31.092611554377086 172.21673707847569 0 1 0 0.81915205242281985 0 0.57357642473473569 forward_v I I I I #
face $-1 $76 $77 $27 $-1 $78 forward single #
loop $-1 $79 $80 $35 #
cone-surface $-1 57.138757771947539 32.994308149043256 7.3465504531502299 -0.81915205242281985 0 -0.57357642473473569 0.28678821236736785 0 -0.40957602621140993 1 I I 0 1 0.5 forward I I I I #
face $-1 $81 $82 $28 $-1 $83 forward single #
loop $-1 $84 $85 $36 #
cone-surface $-1 57.138757771947539 35.846853041042515 7.3465504531502299 -0.81915205242281985 0 -0.57357642473473569 0.28678821236736785 0 -0.40957602621140993 1 I I 0 1 0.5 forward I I I I #
face $-1 $86 $87 $29 $-1 $88 reversed single #
loop $-1 $-1 $89 $37 #
plane-surface $-1 -159.79747485704672 31.092611554377086 72.987516867872003 0 1 0 -0.81915205242281985 0 0.57357642473473569 forward_v I I I I #
face $-1 $90 $91 $30 $-1 $92 forward single #
loop $-1 $93 $94 $38 #
cone-surface $-1 -57.138757771947532 32.994308149043256 7.346550453150237 0.81915205242281985 0 -0.57357642473473569 0.28678821236736785 0 0.40957602621140993 1 I I 0 1 0.5 forward I I I I #
face $-1 $95 $96 $31 $-1 $97 forward single #
loop $-1 $98 $99 $39 #
cone-surface $-1 -57.138757771947532 35.846853041042515 7.346550453150237 0.81915205242281985 0 -0.57357642473473569 0.28678821236736785 0 0.40957602621140993 1 I I 0 1 0.5 forward I I I I #
face $-1 $100 $101 $24 $-1 $102 reversed single #
loop $-1 $-1 $103 $40 #
plane-surface $-1 0 0 -11.882607965865571 0 0 1 1 0 0 forward_v I I I I #
coedge $-1 $104 $105 $106 $107 forward $41 $-1 #
face $-1 $108 $109 $25 $-1 $110 forward single #
loop $-1 $-1 $111 $43 #
plane-surface $-1 -60.568254646443066 0 0 1 0 0 0 0 -1 forward_v I I I I #
coedge $-1 $112 $113 $114 $115 forward $44 $-1 #
face $-1 $116 $117 $26 $-1 $118 forward single #
loop $-1 $-1 $119 $46 #
plane-surface $-1 -8.9127912586166644 34.420580595042885 102.73569117341599 0.81915205242281985 0 0.57357642473473569 0.57357642473473569 0 -0.81915205242281985 forward_v I I I I #
coedge $-1 $120 $121 $122 $123 reversed $47 $-1 #
face $-1 $-1 $124 $27 $-1 $125 forward single #
loop $-1 $126 $127 $49 #
cone-surface $-1 56.43698993114468 32.994308149043256 6.8551673357778391 -0.81915205242281985 0 -0.57357642473473569 0.14339410618368392 0 -0.20478801310570496 1 I I -0.70710678118654746 0.70710678118654746 0.25 forward I I I I #
loop $-1 $-1 $128 $35 #
coedge $-1 $80 $80 $129 $130 reversed $50 $-1 #
face $-1 $-1 $131 $28 $-1 $132 forward single #
loop $-1 $133 $134 $52 #
cone-surface $-1 56.43698993114468 35.846853041042515 6.8551673357778391 -0.81915205242281985 0 -0.57357642473473569 0.14339410618368392 0 -0.20478801310570496 1 I I -0.70710678118654746 0.70710678118654746 0.25 forward I I I I #
loop $-1 $-1 $135 $36 #
coedge $-1 $85 $85 $136 $137 reversed $53 $-1 #
face $-1 $138 $139 $29 $-1 $140 reversed single #
loop $-1 $-1 $141 $55 #
plane-surface $-1 -60.568254646443066 34.420580595042885 3.5064709628123012 -0.81915205242281985 0 0.57357642473473569 0.57357642473473569 0 0.81915205242281985 forward_v I I I I #
coedge $-1 $142 $143 $144 $145 reversed $56 $-1 #
face $-1 $-1 $146 $30 $-1 $147 forward single #
loop $-1 $148 $149 $58 #
cone-surface $-1 -56.436989931144673 32.994308149043256 6.8551673357778462 0.81915205242281985 0 -0.57357642473473569 0.14339410618368392 0 0.20478801310570496 1 I I -0.70710678118654746 0.70710678118654746 0.25 forward I I I I #
loop $-1 $-1 $150 $38 #
coedge $-1 $94 $94 $151 $152 reversed $59 $-1 #
face $-1 $-1 $153 $31 $-1 $154 forward single #
loop $-1 $155 $156 $61 #
cone-surface $-1 -56.436989931144673 35.846853041042515 6.8551673357778462 0.81915205242281985 0 -0.57357642473473569 0.14339410618368392 0 0.20478801310570496 1 I I -0.70710678118654746 0.70710678118654746 0.25 forward I I I I #
loop $-1 $-1 $157 $39 #
coedge $-1 $99 $99 $158 $159 reversed $62 $-1 #
face $-1 $160 $161 $24 $-1 $162 reversed single #
loop $-1 $-1 $163 $64 #
plane-surface $-1 0 -37.748549635708677 0 0 1 0 0 0 1 forward_v I I I I #
coedge $-1 $164 $165 $166 $167 forward $65 $-1 #
coedge $-1 $168 $67 $169 $170 forward $41 $-1 #
coedge $-1 $67 $168 $171 $172 forward $41 $-1 #
coedge $-1 $173 $174 $67 $107 reversed $175 $-1 #
edge $-1 $176 -37.748549635708677 $177 37.748549635708677 $106 $178 forward 7 unknown #
face $-1 $179 $180 $25 $-1 $181 reversed single #
loop $-1 $-1 $182 $68 #
plane-surface $-1 0 -44.562498393287292 -0.91226827125261956 0 0 1 1 0 0 forward_v I I I I #
coedge $-1 $183 $184 $113 $185 forward $69 $-1 #
coedge $-1 $186 $71 $187 $188 reversed $44 $-1 #
coedge $-1 $71 $186 $111 $185 reversed $44 $-1 #
coedge $-1 $189 $182 $71 $115 reversed $109 $-1 #
edge $-1 $190 -60.568254646443066 $191 60.568254646443066 $114 $192 forward 7 unknown #
face $-1 $193 $194 $26 $-1 $195 reversed single #
loop $-1 $-1 $196 $72 #
plane-surface $-1 0 0 11.882607965865571 0 0 1 1 0 0 forward_v I I I I #
coedge $-1 $197 $198 $199 $200 reversed $73 $-1 #
coedge $-1 $121 $75 $201 $202 reversed $47 $-1 #
coedge $-1 $75 $120 $197 $203 reversed $47 $-1 #
coedge $-1 $199 $204 $75 $123 forward $194 $-1 #
edge $-1 $205 74.22576057337227 $206 82.601897576425543 $122 $207 forward 7 unknown #
loop $-1 $-1 $129 $76 #
plane-surface $-1 -8.9127912586166644 34.420580595042885 102.73569117341599 0.81915205242281985 0 0.57357642473473569 0.57357642473473569 0 -0.81915205242281985 forward_v I I I I #
loop $-1 $-1 $208 $49 #
coedge $-1 $127 $127 $128 $209 reversed $77 $-1 #
coedge $-1 $128 $128 $127 $209 forward $79 $-1 #
coedge $-1 $129 $129 $80 $130 forward $124 $-1 #
edge $-1 $210 0 $210 6.2831853071796004 $129 $211 forward 7 unknown #
loop $-1 $-1 $136 $81 #
plane-surface $-1 -8.9127912586166644 34.420580595042885 102.73569117341599 0.81915205242281985 0 0.57357642473473569 0.57357642473473569 0 -0.81915205242281985 forward_v I I I I #
loop $-1 $-1 $212 $52 #
coedge $-1 $134 $134 $135 $213 reversed $82 $-1 #
coedge $-1 $135 $135 $134 $213 forward $84 $-1 #
coedge $-1 $136 $136 $85 $137 forward $131 $-1 #
edge $-1 $214 0 $214 6.2831853071796004 $136 $215 forward 7 unknown #
face $-1 $216 $217 $29 $-1 $218 forward single #
loop $-1 $-1 $219 $86 #
plane-surface $-1 0 37.748549635708677 0 0 -1 0 0 0 -1 forward_v I I I I #
coedge $-1 $220 $221 $222 $223 reversed $87 $-1 #
coedge $-1 $143 $89 $224 $225 reversed $56 $-1 #
coedge $-1 $89 $142 $220 $226 reversed $56 $-1 #
coedge $-1 $222 $227 $89 $145 forward $217 $-1 #
edge $-1 $228 19.330482782080296 $229 25.195516875677079 $144 $230 forward 7 unknown #
loop $-1 $-1 $151 $90 #
plane-surface $-1 -60.568254646443066 34.420580595042885 3.5064709628123012 -0.81915205242281985 0 0.57357642473473569 0.57357642473473569 0 0.81915205242281985 forward_v I I I I #
loop $-1 $-1 $231 $58 #
coedge $-1 $149 $149 $150 $232 reversed $91 $-1 #
coedge $-1 $150 $150 $149 $232 forward $93 $-1 #
coedge $-1 $151 $151 $94 $152 forward $146 $-1 #
edge $-1 $233 0 $233 6.2831853071796004 $151 $234 forward 7 unknown #
loop $-1 $-1 $158 $95 #
plane-surface $-1 -60.568254646443066 34.420580595042885 3.5064709628123012 -0.81915205242281985 0 0.57357642473473569 0.57357642473473569 0 0.81915205242281985 forward_v I I I I #
loop $-1 $-1 $235 $61 #
coedge $-1 $156 $156 $157 $236 reversed $96 $-1 #
coedge $-1 $157 $157 $156 $236 forward $98 $-1 #
coedge $-1 $158 $158 $99 $159 forward $153 $-1 #
edge $-1 $237 0 $237 6.2831853071796004 $158 $238 forward 7 unknown #
face $-1 $239 $240 $24 $-1 $241 reversed single #
loop $-1 $-1 $242 $100 #
plane-surface $-1 -60.568254646443066 0 0 1 0 0 0 0 -1 forward_v I I I I #
coedge $-1 $243 $171 $244 $245 forward $101 $-1 #
coedge $-1 $246 $103 $243 $247 forward $65 $-1 #
coedge $-1 $103 $246 $248 $249 forward $65 $-1 #
coedge $-1 $174 $173 $103 $167 reversed $175 $-1 #
edge $-1 $250 -37.748549635708677 $251 37.748549635708677 $166 $252 forward 7 unknown #
coedge $-1 $105 $104 $253 $254 forward $41 $-1 #
coedge $-1 $255 $256 $104 $170 reversed $240 $-1 #
edge $-1 $177 -60.568254646443066 $257 60.568254646443066 $169 $258 forward 7 unknown #
coedge $-1 $163 $259 $105 $172 reversed $101 $-1 #
edge $-1 $260 -60.568254646443066 $176 60.568254646443066 $171 $261 forward 7 unknown #
coedge $-1 $166 $106 $259 $262 forward $175 $-1 #
coedge $-1 $106 $166 $255 $263 reversed $175 $-1 #
loop $-1 $-1 $173 $239 #
vertex $-1 $107 $264 #
vertex $-1 $107 $265 #
straight-curve $-1 60.568254646443066 0 11.882607965865571 0 1 0 I I #
face $-1 $266 $267 $25 $-1 $268 reversed single #
loop $-1 $-1 $269 $108 #
plane-surface $-1 0 -44.562498393287292 -3.9122682712526196 0 0 1 1 0 0 forward_v I I I I #
coedge $-1 $114 $270 $271 $272 forward $109 $-1 #
coedge $-1 $273 $111 $274 $275 reversed $69 $-1 #
coedge $-1 $111 $273 $189 $276 reversed $69 $-1 #
edge $-1 $190 0.91226827125261956 $277 3.9122682712526196 $111 $278 forward 7 unknown #
coedge $-1 $113 $112 $279 $280 forward $44 $-1 #
coedge $-1 $271 $281 $112 $188 forward $282 $-1 #
edge $-1 $283 -3.9122682712526196 $191 -0.91226827125261956 $187 $284 forward 7 unknown #
coedge $-1 $270 $114 $184 $276 forward $109 $-1 #
vertex $-1 $185 $285 #
vertex $-1 $272 $286 #
straight-curve $-1 0 -37.748549635708677 -0.91226827125261956 1 0 0 I I #
face $-1 $-1 $287 $26 $-1 $288 reversed single #
loop $-1 $-1 $122 $116 #
plane-surface $-1 60.568254646443066 0 0 -1 0 0 0 0 1 forward_v I I I I #
coedge $-1 $201 $289 $290 $291 forward $117 $-1 #
coedge $-1 $290 $119 $121 $203 forward $73 $-1 #
coedge $-1 $119 $290 $292 $293 reversed $73 $-1 #
coedge $-1 $294 $122 $119 $200 forward $194 $-1 #
edge $-1 $206 13.882321256855644 $295 20.538259338187235 $199 $296 forward 7 unknown #
coedge $-1 $297 $196 $120 $202 forward $117 $-1 #
edge $-1 $298 9.5450060768527791 $205 15.41004017044957 $201 $299 forward 7 unknown #
edge $-1 $206 -121.13650929288617 $298 -110.91113418910777 $121 $300 forward 7 unknown #
coedge $-1 $122 $294 $297 $301 reversed $194 $-1 #
vertex $-1 $301 $302 #
vertex $-1 $123 $303 #
straight-curve $-1 60.568254646443066 31.092611554377086 86.108368539237844 0 0 -1 I I #
coedge $-1 $208 $208 $-1 $304 reversed $126 $-1 #
edge $-1 $305 0 $305 6.2831853071796004 $127 $306 forward 7 unknown #
vertex $-1 $130 $307 #
ellipse-curve $-1 57.635737599644678 32.994308149043256 7.6945394643389271 0.81915205242281985 0 0.57357642473473569 0.28678821236736785 0 -0.40957602621140993 1 I I #
coedge $-1 $212 $212 $-1 $308 reversed $133 $-1 #
edge $-1 $309 0 $309 6.2831853071796004 $134 $310 forward 7 unknown #
vertex $-1 $137 $311 #
ellipse-curve $-1 57.635737599644678 35.846853041042515 7.6945394643389271 0.81915205242281985 0 0.57357642473473569 0.28678821236736785 0 -0.40957602621140993 1 I I #
face $-1 $-1 $312 $29 $-1 $313 reversed single #
loop $-1 $-1 $222 $138 #
plane-surface $-1 0 0 11.882607965865571 0 0 1 1 0 0 forward_v I I I I #
coedge $-1 $314 $315 $221 $316 forward $139 $-1 #
coedge $-1 $317 $141 $143 $226 forward $87 $-1 #
coedge $-1 $141 $317 $219 $316 reversed $87 $-1 #
coedge $-1 $318 $144 $141 $223 forward $217 $-1 #
edge $-1 $229 13.882321256855644 $319 20.538259338187242 $222 $320 forward 7 unknown #
coedge $-1 $321 $322 $142 $225 forward $312 $-1 #
edge $-1 $323 -32.9872874711237 $228 -24.611150468070431 $224 $324 forward 7 unknown #
edge $-1 $229 -10.225375103778386 $323 0 $143 $325 forward 7 unknown #
coedge $-1 $144 $318 $321 $326 forward $217 $-1 #
vertex $-1 $225 $327 #
vertex $-1 $145 $328 #
straight-curve $-1 -79.898737428523361 31.092611554377086 11.882607965865571 1 0 0 I I #
coedge $-1 $231 $231 $-1 $329 reversed $148 $-1 #
edge $-1 $330 0 $330 6.2831853071796004 $149 $331 forward 7 unknown #
vertex $-1 $152 $332 #
ellipse-curve $-1 -57.635737599644671 32.994308149043256 7.6945394643389378 -0.81915205242281985 0 0.57357642473473569 0.28678821236736785 0 0.40957602621140993 1 I I #
coedge $-1 $235 $235 $-1 $333 reversed $155 $-1 #
edge $-1 $334 0 $334 6.2831853071796004 $156 $335 forward 7 unknown #
vertex $-1 $159 $336 #
ellipse-curve $-1 -57.635737599644671 35.846853041042515 7.6945394643389378 -0.81915205242281985 0 0.57357642473473569 0.28678821236736785 0 0.40957602621140993 1 I I #
face $-1 $-1 $175 $24 $-1 $337 reversed single #
loop $-1 $-1 $255 $160 #
plane-surface $-1 0 37.748549635708677 0 0 -1 0 0 0 -1 forward_v I I I I #
coedge $-1 $338 $253 $256 $339 forward $161 $-1 #
coedge $-1 $259 $163 $164 $247 reversed $101 $-1 #
coedge $-1 $253 $338 $163 $245 reversed $161 $-1 #
edge $-1 $260 -11.882607965865571 $340 11.882607965865571 $244 $341 forward 7 unknown #
coedge $-1 $165 $164 $338 $342 forward $65 $-1 #
edge $-1 $251 -60.568254646443066 $340 60.568254646443066 $243 $343 forward 7 unknown #
coedge $-1 $256 $255 $165 $249 reversed $240 $-1 #
edge $-1 $344 -60.568254646443066 $250 60.568254646443066 $248 $345 forward 7 unknown #
vertex $-1 $167 $346 #
vertex $-1 $262 $347 #
straight-curve $-1 60.568254646443066 0 -11.882607965865571 0 -1 0 I I #
coedge $-1 $242 $244 $168 $254 reversed $161 $-1 #
edge $-1 $257 -37.748549635708677 $260 37.748549635708677 $253 $348 forward 7 unknown #
coedge $-1 $248 $169 $174 $263 forward $240 $-1 #
coedge $-1 $169 $248 $242 $339 reversed $240 $-1 #
vertex $-1 $170 $349 #
straight-curve $-1 0 37.748549635708677 11.882607965865571 -1 0 0 I I #
coedge $-1 $171 $243 $173 $262 reversed $101 $-1 #
vertex $-1 $254 $350 #
straight-curve $-1 0 -37.748549635708677 11.882607965865571 1 0 0 I I #
edge $-1 $176 -11.882607965865571 $251 11.882607965865571 $173 $351 forward 7 unknown #
edge $-1 $177 -11.882607965865571 $250 11.882607965865571 $174 $352 forward 7 unknown #
point $-1 60.568254646443066 -37.748549635708677 11.882607965865571 #
point $-1 60.568254646443066 37.748549635708677 11.882607965865571 #
face $-1 $-1 $282 $25 $-1 $353 reversed single #
loop $-1 $-1 $354 $179 #
plane-surface $-1 0 -51.376447150865907 -2.4122682712526196 0 1 0 0 0 1 forward_v I I I I #
coedge $-1 $355 $279 $281 $356 forward $180 $-1 #
coedge $-1 $182 $189 $357 $358 forward $109 $-1 #
coedge $-1 $359 $187 $182 $272 reversed $282 $-1 #
edge $-1 $360 -6.8139487575786148 $191 6.8139487575786148 $271 $361 forward 7 unknown #
coedge $-1 $184 $183 $354 $362 reversed $69 $-1 #
coedge $-1 $279 $355 $183 $275 forward $180 $-1 #
edge $-1 $363 -6.8139487575786148 $277 6.8139487575786148 $183 $364 forward 7 unknown #
edge $-1 $190 -6.8139487575786148 $365 6.8139487575786148 $184 $366 forward 7 unknown #
vertex $-1 $185 $367 #
straight-curve $-1 -60.568254646443066 -37.748549635708677 0 0 0 -1 I I #
coedge $-1 $269 $274 $186 $280 reversed $180 $-1 #
edge $-1 $283 -60.568254646443066 $277 60.568254646443066 $279 $368 forward 7 unknown #
coedge $-1 $187 $359 $269 $356 reversed $282 $-1 #
loop $-1 $-1 $187 $266 #
vertex $-1 $188 $369 #
straight-curve $-1 60.568254646443066 -37.748549635708677 0 0 0 1 I I #
point $-1 -60.568254646443066 -37.748549635708677 -0.91226827125261956 #
point $-1 60.568254646443066 -37.748549635708677 -0.91226827125261956 #
loop $-1 $-1 $292 $193 #
plane-surface $-1 0 37.748549635708677 0 0 -1 0 0 0 -1 forward_v I I I I #
coedge $-1 $196 $297 $370 $371 forward $117 $-1 #
coedge $-1 $198 $197 $196 $291 reversed $73 $-1 #
edge $-1 $372 -20.538259338187242 $298 -13.882321256855644 $196 $373 forward 7 unknown #
coedge $-1 $370 $374 $198 $293 forward $287 $-1 #
edge $-1 $295 -76.502349679733655 $372 -66.276974575955251 $292 $375 forward 7 unknown #
coedge $-1 $204 $199 $374 $376 reversed $194 $-1 #
vertex $-1 $200 $377 #
straight-curve $-1 60.568254646443073 17.210290297521443 3.506470962812287 0 1 0 I I #
coedge $-1 $289 $201 $204 $301 forward $117 $-1 #
vertex $-1 $202 $378 #
straight-curve $-1 45.158214475993496 31.092611554377086 11.882607965865574 1 0 0 I I #
straight-curve $-1 -8.9127912586166644 31.092611554377086 102.73569117341599 -0.57357642473473569 0 0.81915205242281985 I I #
edge $-1 $205 31.092611554377086 $379 37.748549635708677 $204 $380 forward 7 unknown #
point $-1 60.568254646443066 31.092611554377086 11.882607965865571 #
point $-1 60.568254646443066 31.092611554377086 3.5064709628123012 #
edge $-1 $381 1 $381 0 $208 $-1 forward 7 unknown #
vertex $-1 $209 $382 #
ellipse-curve $-1 56.641777944250386 32.994308149043256 6.998561441961523 0.81915205242281985 0 0.57357642473473569 0.28678821236736785 0 -0.40957602621140993 1 I I #
point $-1 57.922525812012054 32.994308149043256 7.2849634381275274 #
edge $-1 $383 1 $383 0 $212 $-1 forward 7 unknown #
vertex $-1 $213 $384 #
ellipse-curve $-1 56.641777944250386 35.846853041042515 6.998561441961523 0.81915205242281985 0 0.57357642473473569 0.28678821236736785 0 -0.40957602621140993 1 I I #
point $-1 57.922525812012054 35.846853041042515 7.2849634381275274 #
loop $-1 $-1 $224 $216 #
plane-surface $-1 -60.568254646443066 0 0 1 0 0 0 0 -1 forward_v I I I I #
coedge $-1 $315 $219 $385 $386 reversed $139 $-1 #
coedge $-1 $219 $314 $318 $387 reversed $139 $-1 #
edge $-1 $319 5.7087199295121795 $388 15.934095033290568 $219 $389 forward 7 unknown #
coedge $-1 $221 $220 $322 $390 reversed $87 $-1 #
coedge $-1 $227 $222 $315 $387 forward $217 $-1 #
vertex $-1 $387 $391 #
straight-curve $-1 -54.70322055284629 17.210290297521443 11.882607965865571 0 1 0 I I #
coedge $-1 $385 $224 $227 $326 reversed $312 $-1 #
coedge $-1 $224 $385 $317 $390 forward $312 $-1 #
vertex $-1 $225 $392 #
straight-curve $-1 -60.568254646443066 31.092611554377086 36.493758433936001 0 0 1 I I #
straight-curve $-1 -60.568254646443066 31.092611554377086 3.5064709628123012 -0.57357642473473569 0 -0.81915205242281985 I I #
edge $-1 $393 -37.748549635708677 $228 -31.092611554377086 $321 $394 forward 7 unknown #
point $-1 -60.568254646443066 31.092611554377086 11.882607965865571 #
point $-1 -54.703220552846282 31.092611554377086 11.882607965865571 #
edge $-1 $395 1 $395 0 $231 $-1 forward 7 unknown #
vertex $-1 $232 $396 #
ellipse-curve $-1 -56.641777944250379 32.994308149043256 6.9985614419615301 -0.81915205242281985 0 0.57357642473473569 0.28678821236736785 0 0.40957602621140993 1 I I #
point $-1 -57.348949387277315 32.994308149043256 8.1041154905503543 #
edge $-1 $397 1 $397 0 $235 $-1 forward 7 unknown #
vertex $-1 $236 $398 #
ellipse-curve $-1 -56.641777944250379 35.846853041042515 6.9985614419615301 -0.81915205242281985 0 0.57357642473473569 0.28678821236736785 0 0.40957602621140993 1 I I #
point $-1 -57.348949387277315 35.846853041042515 8.1041154905503543 #
plane-surface $-1 60.568254646443066 0 0 -1 0 0 0 0 1 forward_v I I I I #
coedge $-1 $244 $242 $246 $342 reversed $161 $-1 #
edge $-1 $257 -11.882607965865571 $344 11.882607965865571 $256 $399 forward 7 unknown #
vertex $-1 $342 $400 #
straight-curve $-1 -60.568254646443066 -37.748549635708677 0 0 0 -1 I I #
edge $-1 $340 -37.748549635708677 $344 37.748549635708677 $338 $401 forward 7 unknown #
straight-curve $-1 0 -37.748549635708677 -11.882607965865571 -1 0 0 I I #
vertex $-1 $249 $402 #
straight-curve $-1 0 37.748549635708677 -11.882607965865571 1 0 0 I I #
point $-1 60.568254646443066 37.748549635708677 -11.882607965865571 #
point $-1 60.568254646443066 -37.748549635708677 -11.882607965865571 #
straight-curve $-1 -60.568254646443066 0 11.882607965865571 0 -1 0 I I #
point $-1 -60.568254646443066 37.748549635708677 11.882607965865571 #
point $-1 -60.568254646443066 -37.748549635708677 11.882607965865571 #
straight-curve $-1 60.568254646443066 -37.748549635708677 0 0 0 -1 I I #
straight-curve $-1 60.568254646443066 37.748549635708677 0 0 0 -1 I I #
plane-surface $-1 60.568254646443066 0 0 -1 0 0 0 0 1 forward_v I I I I #
coedge $-1 $403 $357 $273 $362 forward $267 $-1 #
coedge $-1 $274 $269 $403 $404 forward $180 $-1 #
edge $-1 $283 -6.8139487575786148 $405 6.8139487575786148 $281 $406 forward 7 unknown #
coedge $-1 $354 $407 $270 $358 reversed $267 $-1 #
edge $-1 $365 -60.568254646443066 $360 60.568254646443066 $357 $408 forward 7 unknown #
coedge $-1 $281 $271 $407 $409 forward $282 $-1 #
vertex $-1 $272 $410 #
straight-curve $-1 60.568254646443066 -44.562498393287292 -0.91226827125261956 0 1 0 I I #
edge $-1 $365 -1.5 $363 1.5 $273 $411 forward 7 unknown #
vertex $-1 $275 $412 #
straight-curve $-1 -60.568254646443066 -44.562498393287292 -3.9122682712526196 0 1 0 I I #
vertex $-1 $276 $413 #
straight-curve $-1 -60.568254646443066 -44.562498393287292 -0.91226827125261956 0 -1 0 I I #
point $-1 -60.568254646443066 -37.748549635708677 -3.9122682712526196 #
straight-curve $-1 0 -37.748549635708677 -3.9122682712526196 -1 0 0 I I #
point $-1 60.568254646443066 -37.748549635708677 -3.9122682712526196 #
coedge $-1 $374 $292 $289 $371 reversed $287 $-1 #
edge $-1 $379 -60.568254646443066 $372 -54.703220552846275 $370 $414 forward 7 unknown #
vertex $-1 $293 $415 #
straight-curve $-1 54.70322055284629 17.210290297521443 11.882607965865574 0 -1 0 I I #
coedge $-1 $292 $370 $294 $376 forward $287 $-1 #
straight-curve $-1 16.688310433334888 37.748549635708677 66.173527718134366 -0.57357642473473569 0 0.81915205242281985 I I #
edge $-1 $379 -11.882607965865571 $295 -3.5064709628122954 $294 $416 forward 7 unknown #
point $-1 60.568254646443066 37.748549635708677 3.5064709628122954 #
point $-1 54.703220552846275 31.092611554377086 11.882607965865574 #
vertex $-1 $301 $417 #
straight-curve $-1 60.568254646443066 0 11.882607965865571 0 1 0 I I #
vertex $-1 $304 $418 #
point $-1 56.928566156617755 32.994308149043256 6.5889854157501127 #
vertex $-1 $308 $419 #
point $-1 56.928566156617755 35.846853041042515 6.5889854157501127 #
coedge $-1 $322 $321 $314 $386 forward $312 $-1 #
edge $-1 $393 -11.882607965865571 $388 -3.5064709628123012 $314 $420 forward 7 unknown #
edge $-1 $319 54.703220552846282 $393 60.568254646443066 $315 $421 forward 7 unknown #
vertex $-1 $316 $422 #
straight-curve $-1 -51.428833385864763 37.748549635708677 16.558917612832534 -0.57357642473473569 0 -0.81915205242281985 I I #
edge $-1 $388 -20.538259338187242 $323 -13.882321256855644 $322 $423 forward 7 unknown #
point $-1 -54.703220552846282 37.748549635708684 11.882607965865571 #
point $-1 -60.568254646443066 31.092611554377086 3.5064709628123012 #
vertex $-1 $387 $424 #
straight-curve $-1 -60.568254646443066 0 11.882607965865571 0 -1 0 I I #
vertex $-1 $329 $425 #
point $-1 -56.354989731883009 32.994308149043256 7.4081374681729404 #
vertex $-1 $333 $426 #
point $-1 -56.354989731883009 35.846853041042515 7.4081374681729404 #
straight-curve $-1 -60.568254646443066 37.748549635708677 0 0 0 -1 I I #
point $-1 -60.568254646443066 -37.748549635708677 -11.882607965865571 #
straight-curve $-1 -60.568254646443066 0 -11.882607965865571 0 1 0 I I #
point $-1 -60.568254646443066 37.748549635708677 -11.882607965865571 #
coedge $-1 $407 $354 $355 $404 reversed $267 $-1 #
edge $-1 $405 -60.568254646443066 $363 60.568254646443066 $403 $427 forward 7 unknown #
vertex $-1 $409 $428 #
straight-curve $-1 60.568254646443066 -44.562498393287292 -3.9122682712526196 0 -1 0 I I #
coedge $-1 $357 $403 $359 $409 reversed $267 $-1 #
straight-curve $-1 0 -51.376447150865907 -0.91226827125261956 1 0 0 I I #
edge $-1 $360 -1.5 $405 1.5 $359 $429 forward 7 unknown #
point $-1 60.568254646443066 -51.376447150865907 -0.91226827125261956 #
straight-curve $-1 -60.568254646443066 -51.376447150865907 -2.4122682712526196 0 0 -1 I I #
point $-1 -60.568254646443066 -51.376447150865907 -3.9122682712526196 #
point $-1 -60.568254646443066 -51.376447150865907 -0.91226827125261956 #
straight-curve $-1 0 37.748549635708677 11.882607965865571 -1 0 0 I I #
point $-1 54.703220552846275 37.748549635708684 11.882607965865574 #
straight-curve $-1 60.568254646443066 37.748549635708677 0 0 0 -1 I I #
point $-1 60.568254646443066 37.748549635708677 11.882607965865571 #
point $-1 56.232201918038974 32.994308149043256 6.7117732295941552 #
point $-1 56.232201918038974 35.846853041042515 6.7117732295941552 #
straight-curve $-1 -60.568254646443066 37.748549635708677 0 0 0 -1 I I #
straight-curve $-1 0 37.748549635708677 11.882607965865571 -1 0 0 I I #
point $-1 -60.568254646443066 37.748549635708684 3.5064709628123012 #
straight-curve $-1 -60.568254646443066 17.210290297521443 3.5064709628123003 0 -1 0 I I #
point $-1 -60.568254646443066 37.748549635708677 11.882607965865571 #
point $-1 -56.232201918038967 32.994308149043256 6.7117732295941623 #
point $-1 -56.232201918038967 35.846853041042515 6.7117732295941623 #
straight-curve $-1 0 -51.376447150865907 -3.9122682712526196 -1 0 0 I I #
point $-1 60.568254646443066 -51.376447150865907 -3.9122682712526196 #
straight-curve $-1 60.568254646443066 -51.376447150865907 -2.4122682712526196 0 0 -1 I I #
End-of-ACIS-data 