500 0 12 0           
7 Unknown 11 ACIS 5.0 NT 24 Thu Mar 25 18:35:09 1999 
-1 9.9999999999999995e-007 1e-010 
body $-1 $12 $-1 $13 #
body $-1 $14 $-1 $15 #
body $-1 $16 $-1 $17 #
body $-1 $18 $-1 $19 #
body $-1 $20 $-1 $21 #
body $-1 $22 $-1 $23 #
body $-1 $24 $-1 $25 #
body $-1 $26 $-1 $27 #
body $-1 $28 $-1 $29 #
body $-1 $30 $-1 $31 #
body $-1 $32 $-1 $33 #
body $-1 $34 $-1 $35 #
lump $-1 $-1 $36 $0 #
transform $-1 1 0 0 0 1 0 0 0 1 78.619342631305884 45.530693428585153 11.809884017097414 1 rotate no_reflect no_shear #
lump $-1 $-1 $37 $1 #
transform $-1 1 0 0 0 1 0 0 0 1 78.619342631305884 45.530693428585153 11.809884017097414 1 rotate no_reflect no_shear #
lump $-1 $-1 $38 $2 #
transform $-1 1 0 0 0 1 0 0 0 1 78.619342631305884 45.530693428585153 11.809884017097414 1 rotate no_reflect no_shear #
lump $-1 $-1 $39 $3 #
transform $-1 1 0 0 0 1 0 0 0 1 78.619342631305884 45.530693428585153 11.809884017097414 1 rotate no_reflect no_shear #
lump $-1 $-1 $40 $4 #
transform $-1 1 0 0 0 1 0 0 0 1 78.619342631305884 45.530693428585153 11.809884017097414 1 rotate no_reflect no_shear #
lump $-1 $-1 $41 $5 #
transform $-1 1 0 0 0 1 0 0 0 1 78.619342631305884 45.530693428585153 11.809884017097414 1 rotate no_reflect no_shear #
lump $-1 $-1 $42 $6 #
transform $-1 1 0 0 0 1 0 0 0 1 78.619342631305884 45.530693428585153 11.809884017097414 1 rotate no_reflect no_shear #
lump $-1 $-1 $43 $7 #
transform $-1 1 0 0 0 1 0 0 0 1 78.619342631305884 45.530693428585153 11.809884017097414 1 rotate no_reflect no_shear #
lump $-1 $-1 $44 $8 #
transform $-1 1 0 0 0 1 0 0 0 1 78.619342631305884 45.530693428585153 11.809884017097414 1 rotate no_reflect no_shear #
lump $-1 $-1 $45 $9 #
transform $-1 1 0 0 0 1 0 0 0 1 78.619342631305884 45.530693428585153 11.809884017097414 1 rotate no_reflect no_shear #
lump $-1 $-1 $46 $10 #
transform $-1 1 0 0 0 1 0 0 0 1 78.619342631305884 45.530693428585153 11.809884017097414 1 rotate no_reflect no_shear #
lump $-1 $-1 $47 $11 #
transform $-1 1 0 0 0 1 0 0 0 1 78.619342631305884 45.530693428585153 11.809884017097414 1 rotate no_reflect no_shear #
shell $-1 $-1 $-1 $48 $-1 $12 #
shell $-1 $-1 $-1 $49 $-1 $14 #
shell $-1 $-1 $-1 $50 $-1 $16 #
shell $-1 $-1 $-1 $51 $-1 $18 #
shell $-1 $-1 $-1 $52 $-1 $20 #
shell $-1 $-1 $-1 $53 $-1 $22 #
shell $-1 $-1 $-1 $54 $-1 $24 #
shell $-1 $-1 $-1 $55 $-1 $26 #
shell $-1 $-1 $-1 $56 $-1 $28 #
shell $-1 $-1 $-1 $57 $-1 $30 #
shell $-1 $-1 $-1 $58 $-1 $32 #
shell $-1 $-1 $-1 $59 $-1 $34 #
face $-1 $60 $61 $36 $-1 $62 forward single #
face $-1 $63 $64 $37 $-1 $65 reversed single #
face $-1 $66 $67 $38 $-1 $68 reversed single #
face $-1 $69 $70 $39 $-1 $71 forward single #
face $-1 $72 $73 $40 $-1 $74 forward single #
face $-1 $75 $76 $41 $-1 $77 forward single #
face $-1 $78 $79 $42 $-1 $80 reversed single #
face $-1 $81 $82 $43 $-1 $83 forward single #
face $-1 $84 $85 $44 $-1 $86 forward single #
face $-1 $87 $88 $45 $-1 $89 reversed single #
face $-1 $90 $91 $46 $-1 $92 forward single #
face $-1 $93 $94 $47 $-1 $95 forward single #
face $-1 $96 $97 $36 $-1 $98 reversed single #
loop $-1 $-1 $99 $48 #
plane-surface $-1 0 0 11.809884017097414 0 0 1 1 0 0 forward_v I I I I #
face $-1 $100 $101 $37 $-1 $102 reversed single #
loop $-1 $-1 $103 $49 #
plane-surface $-1 0 -38.10190623043205 7.1291087331213383 0 0 1 1 0 0 forward_v I I I I #
face $-1 $104 $105 $38 $-1 $106 reversed single #
loop $-1 $-1 $107 $50 #
plane-surface $-1 -200.81675316914334 1.5477650553574911 106.73633080764614 0 1 0 -0.77714596973225614 0 0.62932038083071107 forward_v I I I I #
face $-1 $108 $109 $39 $-1 $110 forward single #
loop $-1 $111 $112 $51 #
cone-surface $-1 -75.727173495814583 5.7871500993013782 8.7746938522685998 0.77714596973225614 0 -0.62932038083071107 0.62932038083071107 0 0.77714596973225614 1 I I 0 1 1 forward I I I I #
face $-1 $113 $114 $40 $-1 $115 forward single #
loop $-1 $116 $117 $52 #
cone-surface $-1 -75.727173495814583 12.146227665217204 8.7746938522685998 0.77714596973225614 0 -0.62932038083071107 0.62932038083071107 0 0.77714596973225614 1 I I 0 1 1 forward I I I I #
face $-1 $118 $119 $41 $-1 $120 forward single #
loop $-1 $121 $122 $53 #
cone-surface $-1 -75.727173495814583 18.505305231133022 8.7746938522685998 0.77714596973225614 0 -0.62932038083071107 0.62932038083071107 0 0.77714596973225614 1 I I 0 1 1 forward I I I I #
face $-1 $123 $124 $42 $-1 $125 reversed single #
loop $-1 $-1 $126 $54 #
plane-surface $-1 90.25724388452376 -9.3910116573662812 224.10877786402622 0 -1 0 -0.74314483375859142 0 -0.66913059716165679 forward_v I I I I #
face $-1 $127 $128 $43 $-1 $129 forward single #
loop $-1 $130 $131 $55 #
cone-surface $-1 73.536329673078029 -15.024759456118456 6.3089537856363336 -0.74314483375859142 0 -0.66913059716165679 0.66913059716165679 0 -0.74314483375859142 1 I I 0 1 1 forward I I I I #
face $-1 $132 $133 $44 $-1 $134 forward single #
loop $-1 $135 $136 $56 #
cone-surface $-1 73.536329673078029 -11.644510776867151 6.3089537856363336 -0.74314483375859142 0 -0.66913059716165679 0.66913059716165679 0 -0.74314483375859142 1 I I 0 1 1 forward I I I I #
face $-1 $137 $138 $45 $-1 $139 reversed single #
loop $-1 $-1 $140 $57 #
plane-surface $-1 90.25724388452376 32.135832971925552 224.10877786402622 0 -1 0 -0.74314483375859142 0 -0.66913059716165679 forward_v I I I I #
face $-1 $141 $142 $46 $-1 $143 forward single #
loop $-1 $144 $145 $58 #
cone-surface $-1 73.536329673078029 26.50208517317337 6.3089537856363336 -0.74314483375859142 0 -0.66913059716165679 0.66913059716165679 0 -0.74314483375859142 1 I I 0 1 1 forward I I I I #
face $-1 $146 $147 $47 $-1 $148 forward single #
loop $-1 $149 $150 $59 #
cone-surface $-1 73.536329673078029 29.882333852424679 6.3089537856363336 -0.74314483375859142 0 -0.66913059716165679 0.66913059716165679 0 -0.74314483375859142 1 I I 0 1 1 forward I I I I #
face $-1 $151 $152 $36 $-1 $153 reversed single #
loop $-1 $-1 $154 $60 #
plane-surface $-1 0 0 -11.809884017097414 0 0 1 1 0 0 forward_v I I I I #
coedge $-1 $155 $156 $157 $158 forward $61 $-1 #
face $-1 $159 $160 $37 $-1 $161 reversed single #
loop $-1 $-1 $162 $63 #
plane-surface $-1 0 -30.673119032278944 9.4694963751093759 0 -1 0 0 0 -1 forward_v I I I I #
coedge $-1 $163 $164 $165 $166 reversed $64 $-1 #
face $-1 $167 $168 $38 $-1 $169 reversed single #
loop $-1 $-1 $170 $66 #
plane-surface $-1 -78.619342631305912 12.146227665217197 7.7828215168589878 -0.77714596973225614 0 0.62932038083071107 0.62932038083071107 0 0.77714596973225614 forward_v I I I I #
coedge $-1 $171 $172 $173 $174 reversed $67 $-1 #
face $-1 $-1 $175 $39 $-1 $176 forward single #
loop $-1 $177 $178 $69 #
cone-surface $-1 -74.076956788303491 5.7871500993013782 7.4383747471436372 0.77714596973225614 0 -0.62932038083071107 0.31466019041535553 0 0.38857298486612807 1 I I -0.70710678118654746 0.70710678118654746 0.5 forward I I I I #
loop $-1 $-1 $179 $51 #
coedge $-1 $112 $112 $180 $181 reversed $70 $-1 #
face $-1 $-1 $182 $40 $-1 $183 forward single #
loop $-1 $184 $185 $72 #
cone-surface $-1 -74.076956788303491 12.146227665217204 7.4383747471436372 0.77714596973225614 0 -0.62932038083071107 0.31466019041535553 0 0.38857298486612807 1 I I -0.70710678118654746 0.70710678118654746 0.5 forward I I I I #
loop $-1 $-1 $186 $52 #
coedge $-1 $117 $117 $187 $188 reversed $73 $-1 #
face $-1 $-1 $189 $41 $-1 $190 forward single #
loop $-1 $191 $192 $75 #
cone-surface $-1 -74.076956788303491 18.505305231133022 7.4383747471436372 0.77714596973225614 0 -0.62932038083071107 0.31466019041535553 0 0.38857298486612807 1 I I -0.70710678118654746 0.70710678118654746 0.5 forward I I I I #
loop $-1 $-1 $193 $53 #
coedge $-1 $122 $122 $194 $195 reversed $76 $-1 #
face $-1 $196 $197 $42 $-1 $198 reversed single #
loop $-1 $-1 $199 $78 #
plane-surface $-1 -26.593872735379335 -13.334635116492805 118.895562497341 0.74314483375859142 0 0.66913059716165679 0.66913059716165679 0 -0.74314483375859142 forward_v I I I I #
coedge $-1 $200 $201 $202 $203 reversed $79 $-1 #
face $-1 $-1 $204 $43 $-1 $205 forward single #
loop $-1 $206 $207 $81 #
cone-surface $-1 72.478164186195656 -15.024759456118456 5.3561773254241878 -0.74314483375859142 0 -0.66913059716165679 0.3345652985808284 0 -0.37157241687929571 1 I I -0.70710678118654813 0.70710678118654691 0.5 forward I I I I #
loop $-1 $-1 $208 $55 #
coedge $-1 $131 $131 $209 $210 reversed $82 $-1 #
face $-1 $-1 $211 $44 $-1 $212 forward single #
loop $-1 $213 $214 $84 #
cone-surface $-1 72.478164186195656 -11.644510776867151 5.3561773254241878 -0.74314483375859142 0 -0.66913059716165679 0.3345652985808284 0 -0.37157241687929571 1 I I -0.70710678118654813 0.70710678118654691 0.5 forward I I I I #
loop $-1 $-1 $215 $56 #
coedge $-1 $136 $136 $216 $217 reversed $85 $-1 #
face $-1 $218 $219 $45 $-1 $220 reversed single #
loop $-1 $-1 $221 $87 #
plane-surface $-1 -26.593872735379335 28.192209512799025 118.895562497341 0.74314483375859142 0 0.66913059716165679 0.66913059716165679 0 -0.74314483375859142 forward_v I I I I #
coedge $-1 $222 $223 $224 $225 reversed $88 $-1 #
face $-1 $-1 $226 $46 $-1 $227 forward single #
loop $-1 $228 $229 $90 #
cone-surface $-1 72.478164186195656 26.50208517317337 5.3561773254241878 -0.74314483375859142 0 -0.66913059716165679 0.3345652985808284 0 -0.37157241687929571 1 I I -0.70710678118654813 0.70710678118654691 0.5 forward I I I I #
loop $-1 $-1 $230 $58 #
coedge $-1 $145 $145 $231 $232 reversed $91 $-1 #
face $-1 $-1 $233 $47 $-1 $234 forward single #
loop $-1 $235 $236 $93 #
cone-surface $-1 72.478164186195656 29.882333852424679 5.3561773254241878 -0.74314483375859142 0 -0.66913059716165679 0.3345652985808284 0 -0.37157241687929571 1 I I -0.70710678118654813 0.70710678118654691 0.5 forward I I I I #
loop $-1 $-1 $237 $59 #
coedge $-1 $150 $150 $238 $239 reversed $94 $-1 #
face $-1 $240 $241 $36 $-1 $242 reversed single #
loop $-1 $-1 $243 $96 #
plane-surface $-1 0 -45.530693428585153 0 0 1 0 0 0 1 forward_v I I I I #
coedge $-1 $244 $245 $246 $247 forward $97 $-1 #
coedge $-1 $248 $99 $249 $250 forward $61 $-1 #
coedge $-1 $99 $248 $251 $252 forward $61 $-1 #
coedge $-1 $253 $254 $99 $158 reversed $255 $-1 #
edge $-1 $256 -45.530693428585153 $257 45.530693428585153 $157 $258 forward 7 unknown #
face $-1 $259 $260 $37 $-1 $261 reversed single #
loop $-1 $-1 $262 $100 #
plane-surface $-1 -78.619342631305884 0 0 1 0 0 0 0 -1 forward_v I I I I #
coedge $-1 $263 $264 $265 $266 reversed $101 $-1 #
coedge $-1 $267 $103 $268 $269 reversed $64 $-1 #
coedge $-1 $103 $267 $263 $270 forward $64 $-1 #
coedge $-1 $265 $271 $103 $166 forward $272 $-1 #
edge $-1 $273 -26.479740313369128 $274 -11.622165917062919 $165 $275 forward 7 unknown #
face $-1 $276 $277 $38 $-1 $278 forward single #
loop $-1 $-1 $279 $104 #
plane-surface $-1 -200.81675316914334 22.744690275076902 106.73633080764614 0 -1 0 0.77714596973225614 0 -0.62932038083071107 forward_v I I I I #
coedge $-1 $280 $281 $282 $283 reversed $105 $-1 #
coedge $-1 $172 $107 $284 $285 reversed $67 $-1 #
coedge $-1 $107 $171 $280 $286 reversed $67 $-1 #
coedge $-1 $282 $287 $107 $174 forward $277 $-1 #
edge $-1 $288 21.789033953265786 $289 25.05008477895845 $173 $290 forward 7 unknown #
loop $-1 $-1 $180 $108 #
plane-surface $-1 -78.619342631305912 12.146227665217197 7.7828215168589878 -0.77714596973225614 0 0.62932038083071107 0.62932038083071107 0 0.77714596973225614 forward_v I I I I #
loop $-1 $-1 $291 $69 #
coedge $-1 $178 $178 $179 $292 reversed $109 $-1 #
coedge $-1 $179 $179 $178 $292 forward $111 $-1 #
coedge $-1 $180 $180 $112 $181 forward $175 $-1 #
edge $-1 $293 0 $293 6.2831853071796004 $180 $294 forward 7 unknown #
loop $-1 $-1 $187 $113 #
plane-surface $-1 -78.619342631305912 12.146227665217197 7.7828215168589878 -0.77714596973225614 0 0.62932038083071107 0.62932038083071107 0 0.77714596973225614 forward_v I I I I #
loop $-1 $-1 $295 $72 #
coedge $-1 $185 $185 $186 $296 reversed $114 $-1 #
coedge $-1 $186 $186 $185 $296 forward $116 $-1 #
coedge $-1 $187 $187 $117 $188 forward $182 $-1 #
edge $-1 $297 0 $297 6.2831853071796004 $187 $298 forward 7 unknown #
loop $-1 $-1 $194 $118 #
plane-surface $-1 -78.619342631305912 12.146227665217197 7.7828215168589878 -0.77714596973225614 0 0.62932038083071107 0.62932038083071107 0 0.77714596973225614 forward_v I I I I #
loop $-1 $-1 $299 $75 #
coedge $-1 $192 $192 $193 $300 reversed $119 $-1 #
coedge $-1 $193 $193 $192 $300 forward $121 $-1 #
coedge $-1 $194 $194 $122 $195 forward $189 $-1 #
edge $-1 $301 0 $301 6.2831853071796004 $194 $302 forward 7 unknown #
face $-1 $303 $304 $42 $-1 $305 reversed single #
loop $-1 $-1 $306 $123 #
plane-surface $-1 90.25724388452376 -17.278258575619329 224.10877786402622 0 1 0 0.74314483375859142 0 0.66913059716165679 forward_v I I I I #
coedge $-1 $307 $308 $309 $310 reversed $124 $-1 #
coedge $-1 $201 $126 $311 $312 reversed $79 $-1 #
coedge $-1 $126 $200 $307 $313 reversed $79 $-1 #
coedge $-1 $309 $314 $126 $203 forward $315 $-1 #
edge $-1 $316 -33.490720689044004 $317 -24.697880912594378 $202 $318 forward 7 unknown #
loop $-1 $-1 $209 $127 #
plane-surface $-1 -26.593872735379335 -13.334635116492805 118.895562497341 0.74314483375859142 0 0.66913059716165679 0.66913059716165679 0 -0.74314483375859142 forward_v I I I I #
loop $-1 $-1 $319 $81 #
coedge $-1 $207 $207 $208 $320 reversed $128 $-1 #
coedge $-1 $208 $208 $207 $320 forward $130 $-1 #
coedge $-1 $209 $209 $131 $210 forward $204 $-1 #
edge $-1 $321 0 $321 6.2831853071796004 $209 $322 forward 7 unknown #
loop $-1 $-1 $216 $132 #
plane-surface $-1 -26.593872735379335 -13.334635116492805 118.895562497341 0.74314483375859142 0 0.66913059716165679 0.66913059716165679 0 -0.74314483375859142 forward_v I I I I #
loop $-1 $-1 $323 $84 #
coedge $-1 $214 $214 $215 $324 reversed $133 $-1 #
coedge $-1 $215 $215 $214 $324 forward $135 $-1 #
coedge $-1 $216 $216 $136 $217 forward $211 $-1 #
edge $-1 $325 0 $325 6.2831853071796004 $216 $326 forward 7 unknown #
face $-1 $327 $328 $45 $-1 $329 reversed single #
loop $-1 $-1 $330 $137 #
plane-surface $-1 90.25724388452376 24.248586053672501 224.10877786402622 0 1 0 0.74314483375859142 0 0.66913059716165679 forward_v I I I I #
coedge $-1 $331 $332 $333 $334 reversed $138 $-1 #
coedge $-1 $223 $140 $335 $336 reversed $88 $-1 #
coedge $-1 $140 $222 $331 $337 reversed $88 $-1 #
coedge $-1 $333 $338 $140 $225 forward $339 $-1 #
edge $-1 $340 -33.490720689044004 $341 -24.697880912594378 $224 $342 forward 7 unknown #
loop $-1 $-1 $231 $141 #
plane-surface $-1 -26.593872735379335 28.192209512799025 118.895562497341 0.74314483375859142 0 0.66913059716165679 0.66913059716165679 0 -0.74314483375859142 forward_v I I I I #
loop $-1 $-1 $343 $90 #
coedge $-1 $229 $229 $230 $344 reversed $142 $-1 #
coedge $-1 $230 $230 $229 $344 forward $144 $-1 #
coedge $-1 $231 $231 $145 $232 forward $226 $-1 #
edge $-1 $345 0 $345 6.2831853071796004 $231 $346 forward 7 unknown #
loop $-1 $-1 $238 $146 #
plane-surface $-1 -26.593872735379335 28.192209512799025 118.895562497341 0.74314483375859142 0 0.66913059716165679 0.66913059716165679 0 -0.74314483375859142 forward_v I I I I #
loop $-1 $-1 $347 $93 #
coedge $-1 $236 $236 $237 $348 reversed $147 $-1 #
coedge $-1 $237 $237 $236 $348 forward $149 $-1 #
coedge $-1 $238 $238 $150 $239 forward $233 $-1 #
edge $-1 $349 0 $349 6.2831853071796004 $238 $350 forward 7 unknown #
face $-1 $351 $352 $36 $-1 $353 reversed single #
loop $-1 $-1 $354 $151 #
plane-surface $-1 -78.619342631305884 0 0 1 0 0 0 0 -1 forward_v I I I I #
coedge $-1 $355 $251 $356 $357 forward $152 $-1 #
coedge $-1 $358 $154 $355 $359 forward $97 $-1 #
coedge $-1 $154 $358 $360 $361 forward $97 $-1 #
coedge $-1 $254 $253 $154 $247 reversed $255 $-1 #
edge $-1 $362 -45.530693428585153 $363 45.530693428585153 $246 $364 forward 7 unknown #
coedge $-1 $156 $155 $365 $366 forward $61 $-1 #
coedge $-1 $367 $368 $155 $250 reversed $352 $-1 #
edge $-1 $257 -78.619342631305884 $369 78.619342631305884 $249 $370 forward 7 unknown #
coedge $-1 $243 $371 $156 $252 reversed $152 $-1 #
edge $-1 $372 -78.619342631305884 $256 78.619342631305884 $251 $373 forward 7 unknown #
coedge $-1 $246 $157 $371 $374 forward $255 $-1 #
coedge $-1 $157 $246 $367 $375 reversed $255 $-1 #
loop $-1 $-1 $253 $351 #
vertex $-1 $158 $376 #
vertex $-1 $158 $377 #
straight-curve $-1 78.619342631305884 0 11.809884017097414 0 1 0 I I #
face $-1 $378 $379 $37 $-1 $380 forward single #
loop $-1 $-1 $268 $159 #
plane-surface $-1 0 -45.530693428585153 0 0 1 0 0 0 1 forward_v I I I I #
coedge $-1 $381 $382 $383 $384 forward $160 $-1 #
coedge $-1 $383 $162 $164 $270 reversed $101 $-1 #
coedge $-1 $162 $383 $385 $386 reversed $101 $-1 #
coedge $-1 $387 $165 $162 $266 forward $272 $-1 #
edge $-1 $274 2.3943605455666503 $388 7.0751358295427256 $265 $389 forward 7 unknown #
coedge $-1 $164 $163 $381 $390 reversed $64 $-1 #
coedge $-1 $391 $392 $163 $269 forward $260 $-1 #
edge $-1 $393 -78.619342631305884 $273 78.619342631305884 $268 $394 forward 7 unknown #
edge $-1 $395 -78.619342631305884 $274 78.619342631305884 $263 $396 forward 7 unknown #
coedge $-1 $165 $387 $391 $397 forward $272 $-1 #
loop $-1 $-1 $265 $378 #
vertex $-1 $269 $398 #
vertex $-1 $166 $399 #
straight-curve $-1 78.619342631305884 -19.050953115216025 7.1291087331213383 0 1 0 I I #
face $-1 $-1 $400 $38 $-1 $401 reversed single #
loop $-1 $-1 $173 $167 #
plane-surface $-1 0 0 11.809884017097414 0 0 1 1 0 0 forward_v I I I I #
coedge $-1 $402 $403 $404 $405 reversed $168 $-1 #
coedge $-1 $406 $170 $172 $286 forward $105 $-1 #
coedge $-1 $170 $406 $402 $407 forward $105 $-1 #
coedge $-1 $404 $173 $170 $283 forward $277 $-1 #
edge $-1 $289 -4.5253487772511072 $408 16.671576442468304 $282 $409 forward 7 unknown #
coedge $-1 $410 $411 $171 $285 forward $400 $-1 #
edge $-1 $412 -45.585343886964047 $288 -41.558281386725653 $284 $413 forward 7 unknown #
edge $-1 $289 -5.1818611394534244 $412 -4.5496132173526324e-014 $172 $414 forward 7 unknown #
coedge $-1 $173 $404 $410 $415 forward $277 $-1 #
vertex $-1 $285 $416 #
vertex $-1 $174 $417 #
straight-curve $-1 -100.40837658457167 1.5477650553574911 11.80988401709741 1 0 0 I I #
coedge $-1 $291 $291 $-1 $418 reversed $177 $-1 #
edge $-1 $419 0 $419 6.2831853071796004 $178 $420 forward 7 unknown #
vertex $-1 $181 $421 #
ellipse-curve $-1 -76.988817218459559 5.7871500993013782 9.7963527669782167 -0.77714596973225614 0 0.62932038083071107 0.62932038083071107 0 0.77714596973225614 1 I I #
coedge $-1 $295 $295 $-1 $422 reversed $184 $-1 #
edge $-1 $423 0 $423 6.2831853071796004 $185 $424 forward 7 unknown #
vertex $-1 $188 $425 #
ellipse-curve $-1 -76.988817218459559 12.146227665217204 9.7963527669782167 -0.77714596973225614 0 0.62932038083071107 0.62932038083071107 0 0.77714596973225614 1 I I #
coedge $-1 $299 $299 $-1 $426 reversed $191 $-1 #
edge $-1 $427 0 $427 6.2831853071796004 $192 $428 forward 7 unknown #
vertex $-1 $195 $429 #
ellipse-curve $-1 -76.988817218459559 18.505305231133022 9.7963527669782167 -0.77714596973225614 0 0.62932038083071107 0.62932038083071107 0 0.77714596973225614 1 I I #
face $-1 $-1 $315 $42 $-1 $430 forward single #
loop $-1 $-1 $431 $196 #
plane-surface $-1 78.619342631305884 0 0 -1 0 0 0 0 1 forward_v I I I I #
coedge $-1 $432 $433 $434 $435 reversed $197 $-1 #
coedge $-1 $436 $199 $201 $313 forward $124 $-1 #
coedge $-1 $199 $436 $432 $437 forward $124 $-1 #
coedge $-1 $434 $202 $199 $310 forward $315 $-1 #
edge $-1 $317 2.7236940991198786 $438 10.610941017372927 $309 $439 forward 7 unknown #
coedge $-1 $440 $441 $200 $312 forward $304 $-1 #
edge $-1 $442 -110.0099430545752 $316 -100.24450491491569 $311 $443 forward 7 unknown #
edge $-1 $317 144.09799222937215 $442 157.23868526261174 $201 $444 forward 7 unknown #
coedge $-1 $202 $434 $440 $445 forward $315 $-1 #
loop $-1 $-1 $434 $303 #
vertex $-1 $312 $446 #
vertex $-1 $203 $447 #
straight-curve $-1 45.12862194226188 -9.3910116573662812 11.809884017097417 -1 0 0 I I #
coedge $-1 $319 $319 $-1 $448 reversed $206 $-1 #
edge $-1 $449 0 $449 6.2831853071796004 $207 $450 forward 7 unknown #
vertex $-1 $210 $451 #
ellipse-curve $-1 74.222922743081085 -15.024759456118456 6.9271649472676344 0.74314483375859142 0 0.66913059716165679 0.66913059716165679 0 -0.74314483375859142 1 I I #
coedge $-1 $323 $323 $-1 $452 reversed $213 $-1 #
edge $-1 $453 0 $453 6.2831853071796004 $214 $454 forward 7 unknown #
vertex $-1 $217 $455 #
ellipse-curve $-1 74.222922743081085 -11.644510776867151 6.9271649472676344 0.74314483375859142 0 0.66913059716165679 0.66913059716165679 0 -0.74314483375859142 1 I I #
face $-1 $-1 $339 $45 $-1 $456 forward single #
loop $-1 $-1 $457 $218 #
plane-surface $-1 78.619342631305884 0 0 -1 0 0 0 0 1 forward_v I I I I #
coedge $-1 $458 $459 $460 $461 reversed $219 $-1 #
coedge $-1 $462 $221 $223 $337 forward $138 $-1 #
coedge $-1 $221 $462 $458 $463 forward $138 $-1 #
coedge $-1 $460 $224 $221 $334 forward $339 $-1 #
edge $-1 $341 -18.03972821552604 $464 -10.152481297272988 $333 $465 forward 7 unknown #
coedge $-1 $466 $467 $222 $336 forward $328 $-1 #
edge $-1 $468 -110.0099430545752 $340 -100.24450491491569 $335 $469 forward 7 unknown #
edge $-1 $341 144.09799222937215 $468 157.23868526261174 $223 $470 forward 7 unknown #
coedge $-1 $224 $460 $466 $471 forward $339 $-1 #
loop $-1 $-1 $460 $327 #
vertex $-1 $336 $472 #
vertex $-1 $225 $473 #
straight-curve $-1 45.12862194226188 32.135832971925552 11.809884017097417 -1 0 0 I I #
coedge $-1 $343 $343 $-1 $474 reversed $228 $-1 #
edge $-1 $475 0 $475 6.2831853071796004 $229 $476 forward 7 unknown #
vertex $-1 $232 $477 #
ellipse-curve $-1 74.222922743081085 26.50208517317337 6.9271649472676344 0.74314483375859142 0 0.66913059716165679 0.66913059716165679 0 -0.74314483375859142 1 I I #
coedge $-1 $347 $347 $-1 $478 reversed $235 $-1 #
edge $-1 $479 0 $479 6.2831853071796004 $236 $480 forward 7 unknown #
vertex $-1 $239 $481 #
ellipse-curve $-1 74.222922743081085 29.882333852424679 6.9271649472676344 0.74314483375859142 0 0.66913059716165679 0.66913059716165679 0 -0.74314483375859142 1 I I #
face $-1 $-1 $255 $36 $-1 $482 reversed single #
loop $-1 $-1 $367 $240 #
plane-surface $-1 0 45.530693428585153 0 0 -1 0 0 0 -1 forward_v I I I I #
coedge $-1 $483 $365 $368 $484 forward $241 $-1 #
coedge $-1 $371 $243 $244 $359 reversed $152 $-1 #
coedge $-1 $365 $483 $243 $357 reversed $241 $-1 #
edge $-1 $372 -11.809884017097414 $485 11.809884017097414 $356 $486 forward 7 unknown #
coedge $-1 $245 $244 $483 $487 forward $97 $-1 #
edge $-1 $363 -78.619342631305884 $485 78.619342631305884 $355 $488 forward 7 unknown #
coedge $-1 $368 $367 $245 $361 reversed $352 $-1 #
edge $-1 $489 -78.619342631305884 $362 78.619342631305884 $360 $490 forward 7 unknown #
vertex $-1 $247 $491 #
vertex $-1 $374 $492 #
straight-curve $-1 78.619342631305884 0 -11.809884017097414 0 -1 0 I I #
coedge $-1 $354 $356 $248 $366 reversed $241 $-1 #
edge $-1 $369 -45.530693428585153 $372 45.530693428585153 $365 $493 forward 7 unknown #
coedge $-1 $360 $249 $254 $375 forward $352 $-1 #
coedge $-1 $249 $360 $354 $484 reversed $352 $-1 #
vertex $-1 $250 $494 #
straight-curve $-1 0 45.530693428585153 11.809884017097414 -1 0 0 I I #
coedge $-1 $251 $355 $253 $374 reversed $152 $-1 #
vertex $-1 $366 $495 #
straight-curve $-1 0 -45.530693428585153 11.809884017097414 1 0 0 I I #
edge $-1 $256 -11.809884017097414 $363 11.809884017097414 $253 $496 forward 7 unknown #
edge $-1 $257 -11.809884017097414 $362 11.809884017097414 $254 $497 forward 7 unknown #
point $-1 78.619342631305884 -45.530693428585153 11.809884017097414 #
point $-1 78.619342631305884 45.530693428585153 11.809884017097414 #
face $-1 $-1 $272 $37 $-1 $498 reversed single #
loop $-1 $-1 $385 $259 #
plane-surface $-1 0 0 11.809884017097414 0 0 1 1 0 0 forward_v I I I I #
coedge $-1 $499 $262 $267 $390 forward $160 $-1 #
coedge $-1 $262 $499 $500 $501 reversed $160 $-1 #
coedge $-1 $264 $263 $262 $384 reversed $101 $-1 #
edge $-1 $502 -7.0751358295427256 $395 -2.3943605455666503 $262 $503 forward 7 unknown #
coedge $-1 $500 $504 $264 $386 forward $379 $-1 #
edge $-1 $388 -78.619342631305884 $502 78.619342631305884 $385 $505 forward 7 unknown #
coedge $-1 $271 $265 $504 $506 reversed $272 $-1 #
vertex $-1 $266 $507 #
straight-curve $-1 78.619342631305884 -30.673119032278944 4.734748187554688 0 0 1 I I #
edge $-1 $395 11.622165917062919 $393 26.479740313369128 $381 $508 forward 7 unknown #
coedge $-1 $509 $268 $271 $397 reversed $260 $-1 #
coedge $-1 $268 $509 $499 $510 forward $260 $-1 #
vertex $-1 $269 $511 #
straight-curve $-1 0 -45.530693428585153 7.1291087331213383 1 0 0 I I #
vertex $-1 $390 $512 #
straight-curve $-1 0 -30.673119032278944 7.1291087331213383 1 0 0 I I #
edge $-1 $513 -11.809884017097414 $273 -7.1291087331213383 $271 $514 forward 7 unknown #
point $-1 78.619342631305884 -45.530693428585153 7.1291087331213383 #
point $-1 78.619342631305884 -30.673119032278944 7.1291087331213383 #
loop $-1 $-1 $284 $276 #
plane-surface $-1 -78.619342631305884 0 0 1 0 0 0 0 -1 forward_v I I I I #
coedge $-1 $403 $279 $281 $407 reversed $168 $-1 #
coedge $-1 $279 $402 $515 $516 reversed $168 $-1 #
coedge $-1 $287 $282 $279 $405 forward $277 $-1 #
edge $-1 $408 -25.05008477895845 $517 -21.789033953265786 $404 $518 forward 7 unknown #
coedge $-1 $281 $280 $411 $519 reversed $105 $-1 #
edge $-1 $520 4.5496132173526324e-014 $408 5.1818611394534244 $402 $521 forward 7 unknown #
vertex $-1 $283 $522 #
straight-curve $-1 -75.35829180561322 6.0731138326085983 11.809884017097414 0 1 0 I I #
coedge $-1 $515 $284 $287 $415 reversed $400 $-1 #
coedge $-1 $284 $515 $406 $519 forward $400 $-1 #
vertex $-1 $285 $523 #
straight-curve $-1 -78.619342631305884 1.5477650553574911 53.36816540382307 0 0 1 I I #
straight-curve $-1 -78.619342631305912 1.5477650553574911 7.7828215168589878 -0.62932038083071107 0 -0.77714596973225614 I I #
edge $-1 $517 -22.744690275076902 $288 -1.5477650553574911 $410 $524 forward 7 unknown #
point $-1 -78.619342631305884 1.5477650553574911 11.809884017097414 #
point $-1 -75.35829180561322 1.5477650553574911 11.809884017097414 #
edge $-1 $525 1 $525 0 $291 $-1 forward 7 unknown #
vertex $-1 $292 $526 #
ellipse-curve $-1 -74.465529773169621 5.7871500993013782 7.7530349375589926 -0.77714596973225614 0 0.62932038083071107 0.62932038083071107 0 0.77714596973225614 1 I I #
point $-1 -76.359496837628825 5.7871500993013782 10.573498736710462 #
edge $-1 $527 1 $527 0 $295 $-1 forward 7 unknown #
vertex $-1 $296 $528 #
ellipse-curve $-1 -74.465529773169621 12.146227665217204 7.7530349375589926 -0.77714596973225614 0 0.62932038083071107 0.62932038083071107 0 0.77714596973225614 1 I I #
point $-1 -76.359496837628825 12.146227665217204 10.573498736710462 #
edge $-1 $529 1 $529 0 $299 $-1 forward 7 unknown #
vertex $-1 $300 $530 #
ellipse-curve $-1 -74.465529773169621 18.505305231133022 7.7530349375589926 -0.77714596973225614 0 0.62932038083071107 0.62932038083071107 0 0.77714596973225614 1 I I #
point $-1 -76.359496837628825 18.505305231133022 10.573498736710462 #
plane-surface $-1 0 0 11.809884017097414 0 0 1 1 0 0 forward_v I I I I #
coedge $-1 $441 $440 $433 $531 forward $304 $-1 #
coedge $-1 $433 $306 $308 $437 reversed $197 $-1 #
coedge $-1 $306 $432 $431 $531 reversed $197 $-1 #
coedge $-1 $314 $309 $306 $435 forward $315 $-1 #
edge $-1 $438 24.697880912594378 $532 33.490720689044004 $434 $533 forward 7 unknown #
coedge $-1 $308 $307 $441 $534 reversed $124 $-1 #
edge $-1 $535 -157.23868526261174 $438 -144.09799222937215 $432 $536 forward 7 unknown #
vertex $-1 $310 $537 #
straight-curve $-1 69.826502854856244 -6.6673175582464026 11.809884017097431 0 -1 0 I I #
coedge $-1 $431 $311 $314 $445 reversed $304 $-1 #
coedge $-1 $311 $431 $436 $534 forward $304 $-1 #
vertex $-1 $312 $538 #
straight-curve $-1 78.619342631305884 -9.3910116573662812 112.05438893201311 0 0 1 I I #
straight-curve $-1 -26.593872735379335 -9.3910116573662812 118.895562497341 0.66913059716165679 0 -0.74314483375859142 I I #
edge $-1 $532 -17.278258575619329 $316 -9.3910116573662812 $440 $539 forward 7 unknown #
point $-1 78.619342631305884 -9.3910116573662812 11.809884017097414 #
point $-1 69.826502854856258 -9.3910116573662812 11.809884017097417 #
edge $-1 $540 1 $540 0 $319 $-1 forward 7 unknown #
vertex $-1 $320 $541 #
ellipse-curve $-1 72.849736603074945 -15.024759456118456 5.6907426240050158 0.74314483375859142 0 0.66913059716165679 0.66913059716165679 0 -0.74314483375859142 1 I I #
point $-1 74.892053340242754 -15.024759456118456 6.1840201135090611 #
edge $-1 $542 1 $542 0 $323 $-1 forward 7 unknown #
vertex $-1 $324 $543 #
ellipse-curve $-1 72.849736603074945 -11.644510776867151 5.6907426240050158 0.74314483375859142 0 0.66913059716165679 0.66913059716165679 0 -0.74314483375859142 1 I I #
point $-1 74.892053340242754 -11.644510776867151 6.1840201135090611 #
plane-surface $-1 0 0 11.809884017097414 0 0 1 1 0 0 forward_v I I I I #
coedge $-1 $467 $466 $459 $544 forward $328 $-1 #
coedge $-1 $459 $330 $332 $463 reversed $219 $-1 #
coedge $-1 $330 $458 $457 $544 reversed $219 $-1 #
coedge $-1 $338 $333 $330 $461 forward $339 $-1 #
edge $-1 $464 24.697880912594378 $545 33.490720689044004 $460 $546 forward 7 unknown #
coedge $-1 $332 $331 $467 $547 reversed $138 $-1 #
edge $-1 $548 -157.23868526261174 $464 -144.09799222937215 $458 $549 forward 7 unknown #
vertex $-1 $334 $550 #
straight-curve $-1 69.826502854856244 14.096104756399512 11.809884017097431 0 -1 0 I I #
coedge $-1 $457 $335 $338 $471 reversed $328 $-1 #
coedge $-1 $335 $457 $462 $547 forward $328 $-1 #
vertex $-1 $336 $551 #
straight-curve $-1 78.619342631305884 32.135832971925552 112.05438893201311 0 0 1 I I #
straight-curve $-1 -26.593872735379335 32.135832971925552 118.895562497341 0.66913059716165679 0 -0.74314483375859142 I I #
edge $-1 $545 24.248586053672501 $340 32.135832971925552 $466 $552 forward 7 unknown #
point $-1 78.619342631305884 32.135832971925552 11.809884017097414 #
point $-1 69.826502854856258 32.135832971925552 11.809884017097417 #
edge $-1 $553 1 $553 0 $343 $-1 forward 7 unknown #
vertex $-1 $344 $554 #
ellipse-curve $-1 72.849736603074945 26.50208517317337 5.6907426240050158 0.74314483375859142 0 0.66913059716165679 0.66913059716165679 0 -0.74314483375859142 1 I I #
point $-1 74.892053340242754 26.50208517317337 6.1840201135090611 #
edge $-1 $555 1 $555 0 $347 $-1 forward 7 unknown #
vertex $-1 $348 $556 #
ellipse-curve $-1 72.849736603074945 29.882333852424679 5.6907426240050158 0.74314483375859142 0 0.66913059716165679 0.66913059716165679 0 -0.74314483375859142 1 I I #
point $-1 74.892053340242754 29.882333852424679 6.1840201135090611 #
plane-surface $-1 78.619342631305884 0 0 -1 0 0 0 0 1 forward_v I I I I #
coedge $-1 $356 $354 $358 $487 reversed $241 $-1 #
edge $-1 $369 -11.809884017097414 $489 11.809884017097414 $368 $557 forward 7 unknown #
vertex $-1 $487 $558 #
straight-curve $-1 -78.619342631305884 -45.530693428585153 0 0 0 -1 I I #
edge $-1 $485 -45.530693428585153 $489 45.530693428585153 $483 $559 forward 7 unknown #
straight-curve $-1 0 -45.530693428585153 -11.809884017097414 -1 0 0 I I #
vertex $-1 $361 $560 #
straight-curve $-1 0 45.530693428585153 -11.809884017097414 1 0 0 I I #
point $-1 78.619342631305884 45.530693428585153 -11.809884017097414 #
point $-1 78.619342631305884 -45.530693428585153 -11.809884017097414 #
straight-curve $-1 -78.619342631305884 0 11.809884017097414 0 -1 0 I I #
point $-1 -78.619342631305884 45.530693428585153 11.809884017097414 #
point $-1 -78.619342631305884 -45.530693428585153 11.809884017097414 #
straight-curve $-1 78.619342631305884 -45.530693428585153 0 0 0 -1 I I #
straight-curve $-1 78.619342631305884 45.530693428585153 0 0 0 -1 I I #
plane-surface $-1 78.619342631305884 0 0 -1 0 0 0 0 1 forward_v I I I I #
coedge $-1 $382 $381 $392 $510 reversed $160 $-1 #
coedge $-1 $561 $385 $382 $501 forward $379 $-1 #
edge $-1 $502 30.673119032278944 $562 45.530693428585153 $382 $563 forward 7 unknown #
vertex $-1 $501 $564 #
straight-curve $-1 -78.619342631305884 -30.673119032278944 4.734748187554688 0 0 -1 I I #
coedge $-1 $385 $561 $387 $506 forward $379 $-1 #
straight-curve $-1 0 -30.673119032278944 11.809884017097414 -1 0 0 I I #
edge $-1 $513 -45.530693428585153 $388 -30.673119032278944 $387 $565 forward 7 unknown #
point $-1 78.619342631305884 -30.673119032278944 11.809884017097414 #
straight-curve $-1 -78.619342631305884 -19.050953115216025 7.1291087331213383 0 -1 0 I I #
coedge $-1 $392 $391 $561 $566 reversed $260 $-1 #
edge $-1 $562 -11.809884017097414 $393 -7.1291087331213383 $499 $567 forward 7 unknown #
point $-1 -78.619342631305884 -45.530693428585153 7.1291087331213383 #
point $-1 -78.619342631305884 -30.673119032278944 7.1291087331213383 #
vertex $-1 $506 $568 #
straight-curve $-1 78.619342631305884 -45.530693428585153 0 0 0 -1 I I #
coedge $-1 $411 $410 $403 $516 forward $400 $-1 #
edge $-1 $517 41.558281386725653 $520 45.585343886964047 $515 $569 forward 7 unknown #
vertex $-1 $415 $570 #
straight-curve $-1 -100.40837658457167 22.744690275076902 11.80988401709741 -1 0 0 I I #
edge $-1 $520 -16.671576442468304 $412 4.5253487772511072 $411 $571 forward 7 unknown #
vertex $-1 $519 $572 #
straight-curve $-1 -78.619342631305912 22.744690275076902 7.7828215168589878 0.62932038083071107 0 0.77714596973225614 I I #
point $-1 -75.35829180561322 22.744690275076902 11.809884017097414 #
point $-1 -78.619342631305884 1.5477650553574911 7.7828215168590233 #
straight-curve $-1 -78.619342631305884 0 11.809884017097414 0 -1 0 I I #
vertex $-1 $418 $573 #
point $-1 -73.836209392338901 5.7871500993013782 8.5301809072912498 #
vertex $-1 $422 $574 #
point $-1 -73.836209392338901 12.146227665217204 8.5301809072912498 #
vertex $-1 $426 $575 #
point $-1 -73.836209392338901 18.505305231133022 8.5301809072912498 #
edge $-1 $532 100.24450491491569 $535 110.0099430545752 $431 $576 forward 7 unknown #
vertex $-1 $445 $577 #
straight-curve $-1 45.12862194226188 -17.278258575619329 11.809884017097417 1 0 0 I I #
edge $-1 $535 -10.610941017372927 $442 -2.7236940991198786 $441 $578 forward 7 unknown #
vertex $-1 $534 $579 #
straight-curve $-1 -26.593872735379335 -17.278258575619329 118.895562497341 -0.66913059716165679 0 0.74314483375859142 I I #
point $-1 69.826502854856258 -17.278258575619329 11.809884017097417 #
point $-1 78.619342631305884 -9.3910116573662812 2.0444458774379086 #
straight-curve $-1 78.619342631305884 0 11.809884017097414 0 1 0 I I #
vertex $-1 $448 $580 #
point $-1 73.518867200236613 -15.024759456118456 4.9475977902464239 #
vertex $-1 $452 $581 #
point $-1 73.518867200236613 -11.644510776867151 4.9475977902464239 #
edge $-1 $545 100.24450491491569 $548 110.0099430545752 $457 $582 forward 7 unknown #
vertex $-1 $471 $583 #
straight-curve $-1 45.12862194226188 24.248586053672501 11.809884017097417 1 0 0 I I #
edge $-1 $548 10.152481297272988 $468 18.03972821552604 $467 $584 forward 7 unknown #
vertex $-1 $547 $585 #
straight-curve $-1 -26.593872735379335 24.248586053672501 118.895562497341 -0.66913059716165679 0 0.74314483375859142 I I #
point $-1 69.826502854856258 24.248586053672501 11.809884017097417 #
point $-1 78.619342631305884 32.135832971925552 2.0444458774379086 #
straight-curve $-1 78.619342631305884 0 11.809884017097414 0 1 0 I I #
vertex $-1 $474 $586 #
point $-1 73.518867200236613 26.50208517317337 4.9475977902464239 #
vertex $-1 $478 $587 #
point $-1 73.518867200236613 29.882333852424679 4.9475977902464239 #
straight-curve $-1 -78.619342631305884 45.530693428585153 0 0 0 -1 I I #
point $-1 -78.619342631305884 -45.530693428585153 -11.809884017097414 #
straight-curve $-1 -78.619342631305884 0 -11.809884017097414 0 1 0 I I #
point $-1 -78.619342631305884 45.530693428585153 -11.809884017097414 #
coedge $-1 $504 $500 $509 $566 forward $379 $-1 #
vertex $-1 $501 $588 #
straight-curve $-1 -78.619342631305884 0 11.809884017097414 0 -1 0 I I #
point $-1 -78.619342631305884 -30.673119032278944 11.809884017097414 #
straight-curve $-1 78.619342631305884 0 11.809884017097414 0 1 0 I I #
edge $-1 $562 -78.619342631305884 $513 78.619342631305884 $509 $589 forward 7 unknown #
straight-curve $-1 -78.619342631305884 -45.530693428585153 0 0 0 -1 I I #
point $-1 78.619342631305884 -45.530693428585153 11.809884017097414 #
straight-curve $-1 -78.619342631305884 22.744690275076902 53.36816540382307 0 0 -1 I I #
point $-1 -78.619342631305884 22.744690275076902 11.809884017097414 #
straight-curve $-1 -78.619342631305884 6.0731138326085983 7.7828215168590162 0 -1 0 I I #
point $-1 -78.619342631305884 22.744690275076902 7.7828215168590233 #
point $-1 -73.688383803437361 5.7871500993013782 7.1237145567282818 #
point $-1 -73.688383803437361 12.146227665217204 7.1237145567282818 #
point $-1 -73.688383803437361 18.505305231133022 7.1237145567282818 #
straight-curve $-1 78.619342631305884 -17.278258575619329 112.05438893201311 0 0 -1 I I #
point $-1 78.619342631305884 -17.278258575619329 11.809884017097414 #
straight-curve $-1 78.619342631305884 -6.6673175582464026 2.0444458774378944 0 1 0 I I #
point $-1 78.619342631305884 -17.278258575619329 2.0444458774379086 #
point $-1 72.106591769316367 -15.024759456118456 5.0216120268433597 #
point $-1 72.106591769316367 -11.644510776867151 5.0216120268433597 #
straight-curve $-1 78.619342631305884 24.248586053672501 112.05438893201311 0 0 -1 I I #
point $-1 78.619342631305884 24.248586053672501 11.809884017097414 #
straight-curve $-1 78.619342631305884 14.096104756399512 2.0444458774378944 0 1 0 I I #
point $-1 78.619342631305884 24.248586053672501 2.0444458774379086 #
point $-1 72.106591769316367 26.50208517317337 5.0216120268433597 #
point $-1 72.106591769316367 29.882333852424679 5.0216120268433597 #
point $-1 -78.619342631305884 -45.530693428585153 11.809884017097414 #
straight-curve $-1 0 -45.530693428585153 11.809884017097414 1 0 0 I I #
End-of-ACIS-data 