500 0 3 0           
7 Unknown 11 ACIS 5.0 NT 24 Fri Mar 26 17:23:52 1999 
-1 9.9999999999999995e-007 1e-010 
body $-1 $3 $-1 $4 #
body $-1 $5 $-1 $6 #
body $-1 $7 $-1 $8 #
lump $-1 $-1 $9 $0 #
transform $-1 1 0 0 0 1 0 0 0 1 46.128116702780233 20.567112015267757 7.9452058656715847 1 rotate no_reflect no_shear #
lump $-1 $-1 $10 $1 #
transform $-1 1 0 0 0 1 0 0 0 1 46.128116702780233 20.567112015267757 7.9452058656715847 1 rotate no_reflect no_shear #
lump $-1 $-1 $11 $2 #
transform $-1 1 0 0 0 1 0 0 0 1 46.128116702780233 20.567112015267757 7.9452058656715847 1 rotate no_reflect no_shear #
shell $-1 $-1 $-1 $12 $-1 $3 #
shell $-1 $-1 $-1 $13 $-1 $5 #
shell $-1 $-1 $-1 $14 $-1 $7 #
face $-1 $15 $16 $9 $-1 $17 forward single #
face $-1 $18 $19 $10 $-1 $20 forward single #
face $-1 $21 $22 $11 $-1 $23 reversed single #
face $-1 $24 $25 $9 $-1 $26 reversed single #
loop $-1 $-1 $27 $12 #
plane-surface $-1 0 0 7.9452058656715847 0 0 1 1 0 0 forward_v I I I I #
face $-1 $28 $29 $10 $-1 $30 forward single #
loop $-1 $-1 $31 $13 #
plane-surface $-1 -1.5430683518737176 61.602687363303204 94.957559484477102 1 0 0 0 -0.74314483375859142 -0.66913059716165679 forward_v I I I I #
face $-1 $32 $33 $11 $-1 $34 reversed single #
loop $-1 $35 $36 $14 #
cone-surface $-1 11.02669211528697 17.401737314194605 4.5946718382128218 0 -0.74314483375859142 -0.66913059716165679 1.5 0 0 1 I I 0 1 1.5 forward I I I I #
face $-1 $37 $38 $9 $-1 $39 reversed single #
loop $-1 $-1 $40 $15 #
plane-surface $-1 0 0 -7.9452058656715847 0 0 1 1 0 0 forward_v I I I I #
coedge $-1 $41 $42 $43 $44 forward $16 $-1 #
face $-1 $45 $46 $10 $-1 $47 forward single #
loop $-1 $-1 $48 $18 #
plane-surface $-1 11.026692115286977 -6.9570558740658299 33.226090933929235 0 0.74314483375859142 0.66913059716165679 1 0 0 forward_v I I I I #
coedge $-1 $49 $50 $51 $52 reversed $19 $-1 #
face $-1 $53 $54 $11 $-1 $55 forward single #
loop $-1 $56 $57 $21 #
cone-surface $-1 11.02669211528697 16.059582636293324 3.3861903682344776 0 -0.74314483375859142 -0.66913059716165679 0.75 0 0 1 I I -0.70710678118654757 0.70710678118654757 0.75 forward I I I I #
loop $-1 $-1 $58 $14 #
coedge $-1 $36 $36 $59 $60 reversed $22 $-1 #
face $-1 $61 $62 $9 $-1 $63 reversed single #
loop $-1 $-1 $64 $24 #
plane-surface $-1 0 -20.567112015267757 0 0 1 0 0 0 1 forward_v I I I I #
coedge $-1 $65 $66 $67 $68 forward $25 $-1 #
coedge $-1 $69 $27 $70 $71 forward $16 $-1 #
coedge $-1 $27 $69 $72 $73 forward $16 $-1 #
coedge $-1 $74 $75 $27 $44 reversed $76 $-1 #
edge $-1 $77 -20.567112015267757 $78 20.567112015267757 $43 $79 forward 7 unknown #
face $-1 $80 $81 $10 $-1 $82 forward single #
loop $-1 $-1 $83 $28 #
plane-surface $-1 23.596452582447672 61.602687363303204 94.957559484477102 -1 0 0 0 0.74314483375859142 0.66913059716165679 forward_v I I I I #
coedge $-1 $84 $85 $86 $87 reversed $29 $-1 #
coedge $-1 $50 $31 $85 $88 forward $19 $-1 #
coedge $-1 $31 $49 $89 $90 reversed $19 $-1 #
coedge $-1 $91 $86 $31 $52 forward $81 $-1 #
edge $-1 $92 -14.995388963365471 $93 -10.234231666383845 $51 $94 forward 7 unknown #
face $-1 $95 $96 $11 $-1 $97 forward single #
loop $-1 $-1 $98 $32 #
plane-surface $-1 -1.5430683518737176 61.602687363303204 94.957559484477102 1 0 0 0 -0.74314483375859142 -0.66913059716165679 forward_v I I I I #
loop $-1 $-1 $99 $21 #
coedge $-1 $57 $57 $58 $100 forward $33 $-1 #
coedge $-1 $58 $58 $57 $100 reversed $35 $-1 #
coedge $-1 $59 $59 $36 $60 forward $96 $-1 #
edge $-1 $101 -1.7530092718927081e-016 $101 6.2831853071796004 $59 $102 forward 7 unknown #
face $-1 $103 $104 $9 $-1 $105 reversed single #
loop $-1 $-1 $106 $37 #
plane-surface $-1 -46.128116702780233 0 0 1 0 0 0 0 -1 forward_v I I I I #
coedge $-1 $107 $72 $108 $109 forward $38 $-1 #
coedge $-1 $110 $40 $107 $111 forward $25 $-1 #
coedge $-1 $40 $110 $112 $113 forward $25 $-1 #
coedge $-1 $75 $74 $40 $68 reversed $76 $-1 #
edge $-1 $114 -20.567112015267757 $115 20.567112015267757 $67 $116 forward 7 unknown #
coedge $-1 $42 $41 $117 $118 forward $16 $-1 #
coedge $-1 $119 $120 $41 $71 reversed $104 $-1 #
edge $-1 $78 -46.128116702780233 $121 46.128116702780233 $70 $122 forward 7 unknown #
coedge $-1 $64 $123 $42 $73 reversed $38 $-1 #
edge $-1 $124 -46.128116702780233 $77 46.128116702780233 $72 $125 forward 7 unknown #
coedge $-1 $67 $43 $123 $126 forward $76 $-1 #
coedge $-1 $43 $67 $119 $127 reversed $76 $-1 #
loop $-1 $-1 $74 $103 #
vertex $-1 $44 $128 #
vertex $-1 $44 $129 #
straight-curve $-1 46.128116702780233 0 7.9452058656715847 0 1 0 I I #
face $-1 $130 $131 $10 $-1 $132 reversed single #
loop $-1 $-1 $133 $45 #
plane-surface $-1 0 0 7.9452058656715847 0 0 1 1 0 0 forward_v I I I I #
coedge $-1 $134 $135 $133 $136 reversed $46 $-1 #
coedge $-1 $137 $48 $135 $138 reversed $29 $-1 #
coedge $-1 $48 $137 $49 $88 reversed $29 $-1 #
coedge $-1 $51 $133 $48 $87 forward $81 $-1 #
edge $-1 $139 -18.083106524804183 $92 7.0564144095172061 $86 $140 forward 7 unknown #
edge $-1 $92 34.018786002177976 $141 41.134224030535492 $49 $142 forward 7 unknown #
coedge $-1 $143 $144 $50 $90 forward $145 $-1 #
edge $-1 $93 39.533573876566969 $141 44.821374887270267 $89 $146 forward 7 unknown #
coedge $-1 $147 $51 $144 $148 forward $81 $-1 #
vertex $-1 $87 $149 #
vertex $-1 $148 $150 #
straight-curve $-1 -1.5430683518737176 30.801343681651602 7.945205865671582 0 1 0 I I #
face $-1 $151 $152 $11 $-1 $153 forward single #
loop $-1 $154 $59 $53 #
plane-surface $-1 11.026692115286977 -6.9570558740658299 33.226090933929235 0 0.74314483375859142 0.66913059716165679 1 0 0 forward_v I I I I #
coedge $-1 $155 $156 $157 $158 reversed $54 $-1 #
coedge $-1 $99 $99 $-1 $159 forward $56 $-1 #
edge $-1 $160 0 $160 6.2831853071796004 $57 $161 forward 7 unknown #
vertex $-1 $60 $162 #
ellipse-curve $-1 11.02669211528697 18.186533366776946 5.3013053603199269 0 -0.74314483375859142 -0.66913059716165679 1.5 0 0 1 I I #
face $-1 $-1 $76 $9 $-1 $163 reversed single #
loop $-1 $-1 $119 $61 #
plane-surface $-1 0 20.567112015267757 0 0 -1 0 0 0 -1 forward_v I I I I #
coedge $-1 $164 $117 $120 $165 forward $62 $-1 #
coedge $-1 $123 $64 $65 $111 reversed $38 $-1 #
coedge $-1 $117 $164 $64 $109 reversed $62 $-1 #
edge $-1 $124 -7.9452058656715847 $166 7.9452058656715847 $108 $167 forward 7 unknown #
coedge $-1 $66 $65 $164 $168 forward $25 $-1 #
edge $-1 $115 -46.128116702780233 $166 46.128116702780233 $107 $169 forward 7 unknown #
coedge $-1 $120 $119 $66 $113 reversed $104 $-1 #
edge $-1 $170 -46.128116702780233 $114 46.128116702780233 $112 $171 forward 7 unknown #
vertex $-1 $68 $172 #
vertex $-1 $126 $173 #
straight-curve $-1 46.128116702780233 0 -7.9452058656715847 0 -1 0 I I #
coedge $-1 $106 $108 $69 $118 reversed $62 $-1 #
edge $-1 $121 -20.567112015267757 $124 20.567112015267757 $117 $174 forward 7 unknown #
coedge $-1 $112 $70 $75 $127 forward $104 $-1 #
coedge $-1 $70 $112 $106 $165 reversed $104 $-1 #
vertex $-1 $71 $175 #
straight-curve $-1 0 20.567112015267757 7.9452058656715847 -1 0 0 I I #
coedge $-1 $72 $107 $74 $126 reversed $38 $-1 #
vertex $-1 $118 $176 #
straight-curve $-1 0 -20.567112015267757 7.9452058656715847 1 0 0 I I #
edge $-1 $77 -7.9452058656715847 $115 7.9452058656715847 $74 $177 forward 7 unknown #
edge $-1 $78 -7.9452058656715847 $114 7.9452058656715847 $75 $178 forward 7 unknown #
point $-1 46.128116702780233 -20.567112015267757 7.9452058656715847 #
point $-1 46.128116702780233 20.567112015267757 7.9452058656715847 #
face $-1 $179 $180 $10 $-1 $181 reversed single #
loop $-1 $-1 $182 $80 #
plane-surface $-1 0 0 -7.9452058656715847 0 0 1 1 0 0 forward_v I I I I #
coedge $-1 $86 $183 $83 $136 forward $81 $-1 #
coedge $-1 $135 $83 $184 $185 reversed $46 $-1 #
coedge $-1 $83 $134 $84 $138 forward $46 $-1 #
edge $-1 $186 10.234231666383845 $139 14.995388963365471 $133 $187 forward 7 unknown #
coedge $-1 $85 $84 $143 $188 reversed $29 $-1 #
edge $-1 $189 -41.134224030535492 $139 -34.018786002177976 $135 $190 forward 7 unknown #
vertex $-1 $87 $191 #
straight-curve $-1 5.5133460576434885 15.805954718286129 7.9452058656715856 -1 0 0 I I #
vertex $-1 $188 $192 #
straight-curve $-1 -1.5430683518737176 -6.9570558740658299 33.226090933929235 0 0.66913059716165679 -0.74314483375859142 I I #
coedge $-1 $184 $89 $137 $188 forward $145 $-1 #
coedge $-1 $89 $193 $91 $148 reversed $145 $-1 #
loop $-1 $-1 $184 $194 #
straight-curve $-1 -1.5430683518737176 20.567112015267757 47.478779742238551 0 0 -1 I I #
coedge $-1 $195 $91 $196 $197 forward $81 $-1 #
edge $-1 $93 1.5430683518737176 $198 46.128116702780233 $144 $199 forward 7 unknown #
point $-1 -1.5430683518737176 15.805954718286131 7.9452058656715856 #
point $-1 -1.5430683518737176 20.567112015267757 7.9452058656715847 #
face $-1 $200 $201 $11 $-1 $202 forward single #
loop $-1 $-1 $203 $95 #
plane-surface $-1 23.596452582447672 61.602687363303204 94.957559484477102 -1 0 0 0 0.74314483375859142 0.66913059716165679 forward_v I I I I #
loop $-1 $-1 $204 $53 #
coedge $-1 $156 $98 $205 $206 forward $54 $-1 #
coedge $-1 $98 $155 $207 $208 reversed $54 $-1 #
coedge $-1 $209 $210 $98 $158 forward $201 $-1 #
edge $-1 $211 -14.995388963365471 $212 -10.234231666383845 $157 $213 forward 7 unknown #
edge $-1 $214 1 $214 0 $99 $-1 forward 7 unknown #
vertex $-1 $100 $215 #
ellipse-curve $-1 11.02669211528697 16.616941261612268 3.8880383161057201 0 0.74314483375859142 0.66913059716165679 1.5 0 0 1 I I #
point $-1 12.52669211528697 18.186533366776942 5.3013053603199234 #
plane-surface $-1 46.128116702780233 0 0 -1 0 0 0 0 1 forward_v I I I I #
coedge $-1 $108 $106 $110 $168 reversed $62 $-1 #
edge $-1 $121 -7.9452058656715847 $170 7.9452058656715847 $120 $216 forward 7 unknown #
vertex $-1 $168 $217 #
straight-curve $-1 -46.128116702780233 -20.567112015267757 0 0 0 -1 I I #
edge $-1 $166 -20.567112015267757 $170 20.567112015267757 $164 $218 forward 7 unknown #
straight-curve $-1 0 -20.567112015267757 -7.9452058656715847 -1 0 0 I I #
vertex $-1 $113 $219 #
straight-curve $-1 0 20.567112015267757 -7.9452058656715847 1 0 0 I I #
point $-1 46.128116702780233 20.567112015267757 -7.9452058656715847 #
point $-1 46.128116702780233 -20.567112015267757 -7.9452058656715847 #
straight-curve $-1 -46.128116702780233 0 7.9452058656715847 0 -1 0 I I #
point $-1 -46.128116702780233 20.567112015267757 7.9452058656715847 #
point $-1 -46.128116702780233 -20.567112015267757 7.9452058656715847 #
straight-curve $-1 46.128116702780233 -20.567112015267757 0 0 0 -1 I I #
straight-curve $-1 46.128116702780233 20.567112015267757 0 0 0 -1 I I #
face $-1 $194 $220 $10 $-1 $221 reversed single #
loop $-1 $-1 $222 $130 #
plane-surface $-1 0 -20.567112015267757 0 0 1 0 0 0 1 forward_v I I I I #
coedge $-1 $223 $224 $225 $226 forward $131 $-1 #
coedge $-1 $133 $227 $228 $229 forward $81 $-1 #
coedge $-1 $228 $143 $134 $185 forward $145 $-1 #
edge $-1 $189 -44.821374887270267 $186 -39.533573876566969 $184 $230 forward 7 unknown #
vertex $-1 $185 $231 #
straight-curve $-1 23.596452582447672 30.801343681651602 7.945205865671582 0 -1 0 I I #
edge $-1 $141 -7.0564144095172061 $189 18.083106524804183 $143 $232 forward 7 unknown #
vertex $-1 $188 $233 #
straight-curve $-1 23.596452582447672 -6.9570558740658299 33.226090933929235 0 -0.66913059716165679 0.74314483375859142 I I #
point $-1 23.596452582447672 15.805954718286131 7.9452058656715856 #
point $-1 -1.5430683518737176 20.567112015267757 2.6574048549682807 #
coedge $-1 $144 $234 $235 $236 reversed $145 $-1 #
face $-1 $237 $145 $10 $-1 $238 reversed single #
coedge $-1 $227 $147 $239 $240 forward $81 $-1 #
coedge $-1 $235 $241 $147 $197 reversed $220 $-1 #
edge $-1 $198 -20.567112015267757 $242 20.567112015267757 $196 $243 forward 7 unknown #
vertex $-1 $148 $244 #
straight-curve $-1 0 20.567112015267757 7.9452058656715847 -1 0 0 I I #
face $-1 $245 $246 $11 $-1 $247 reversed single #
loop $-1 $-1 $248 $151 #
plane-surface $-1 0 0 7.9452058656715847 0 0 1 1 0 0 forward_v I I I I #
coedge $-1 $249 $250 $248 $251 reversed $152 $-1 #
coedge $-1 $252 $205 $210 $253 reversed $154 $-1 #
coedge $-1 $204 $254 $155 $206 reversed $154 $-1 #
edge $-1 $211 34.018786002177976 $255 41.134224030535492 $155 $256 forward 7 unknown #
coedge $-1 $257 $258 $156 $208 forward $259 $-1 #
edge $-1 $212 39.533573876566969 $255 44.821374887270267 $207 $260 forward 7 unknown #
coedge $-1 $261 $157 $258 $262 forward $201 $-1 #
coedge $-1 $157 $248 $204 $253 forward $201 $-1 #
vertex $-1 $253 $263 #
vertex $-1 $262 $264 #
straight-curve $-1 -1.5430683518737176 30.801343681651602 7.945205865671582 0 1 0 I I #
vertex $-1 $159 $265 #
point $-1 12.52669211528697 16.616941261612268 3.8880383161057201 #
straight-curve $-1 -46.128116702780233 20.567112015267757 0 0 0 -1 I I #
point $-1 -46.128116702780233 -20.567112015267757 -7.9452058656715847 #
straight-curve $-1 -46.128116702780233 0 -7.9452058656715847 0 1 0 I I #
point $-1 -46.128116702780233 20.567112015267757 -7.9452058656715847 #
loop $-1 $-1 $235 $179 #
plane-surface $-1 -46.128116702780233 0 0 1 0 0 0 0 -1 forward_v I I I I #
coedge $-1 $266 $239 $241 $267 forward $180 $-1 #
coedge $-1 $268 $182 $266 $269 forward $131 $-1 #
coedge $-1 $182 $268 $234 $270 forward $131 $-1 #
coedge $-1 $271 $272 $182 $226 reversed $273 $-1 #
edge $-1 $274 -20.567112015267757 $275 20.567112015267757 $225 $276 forward 7 unknown #
coedge $-1 $183 $195 $277 $278 forward $81 $-1 #
coedge $-1 $279 $184 $183 $229 reversed $145 $-1 #
edge $-1 $280 -46.128116702780233 $186 -23.596452582447672 $228 $199 forward 7 unknown #
straight-curve $-1 23.596452582447672 20.567112015267757 47.478779742238551 0 0 1 I I #
point $-1 23.596452582447672 20.567112015267757 7.9452058656715847 #
straight-curve $-1 5.5133460576434885 20.567112015267757 2.6574048549682789 1 0 0 I I #
point $-1 23.596452582447672 20.567112015267757 2.6574048549682807 #
coedge $-1 $193 $279 $224 $270 reversed $145 $-1 #
coedge $-1 $281 $196 $193 $236 forward $220 $-1 #
edge $-1 $198 -7.9452058656715847 $282 7.9452058656715847 $193 $283 forward 7 unknown #
face $-1 $-1 $273 $10 $-1 $284 reversed single #
plane-surface $-1 0 20.567112015267757 0 0 -1 0 0 0 -1 forward_v I I I I #
coedge $-1 $222 $285 $195 $240 reversed $180 $-1 #
edge $-1 $242 -46.128116702780233 $286 46.128116702780233 $239 $287 forward 7 unknown #
coedge $-1 $196 $281 $222 $267 reversed $220 $-1 #
vertex $-1 $197 $288 #
straight-curve $-1 -46.128116702780233 0 7.9452058656715847 0 -1 0 I I #
point $-1 -46.128116702780233 20.567112015267757 7.9452058656715847 #
face $-1 $289 $290 $11 $-1 $291 reversed single #
loop $-1 $-1 $292 $200 #
plane-surface $-1 0 0 -7.9452058656715847 0 0 1 1 0 0 forward_v I I I I #
coedge $-1 $210 $293 $203 $251 forward $201 $-1 #
coedge $-1 $250 $203 $294 $295 reversed $152 $-1 #
coedge $-1 $203 $249 $252 $296 forward $152 $-1 #
edge $-1 $297 10.234231666383845 $298 14.995388963365471 $248 $299 forward 7 unknown #
coedge $-1 $254 $204 $250 $296 reversed $154 $-1 #
edge $-1 $298 -18.083106524804183 $211 7.0564144095172061 $210 $300 forward 7 unknown #
coedge $-1 $205 $252 $257 $301 reversed $154 $-1 #
vertex $-1 $301 $302 #
straight-curve $-1 -1.5430683518737176 -6.9570558740658299 33.226090933929235 0 0.66913059716165679 -0.74314483375859142 I I #
coedge $-1 $294 $207 $254 $301 forward $259 $-1 #
coedge $-1 $207 $303 $209 $262 reversed $259 $-1 #
loop $-1 $-1 $294 $304 #
straight-curve $-1 -1.5430683518737176 20.567112015267757 47.478779742238551 0 0 -1 I I #
coedge $-1 $305 $209 $306 $307 forward $201 $-1 #
edge $-1 $212 1.5430683518737176 $308 46.128116702780233 $258 $309 forward 7 unknown #
point $-1 -1.5430683518737176 15.805954718286131 7.9452058656715856 #
point $-1 -1.5430683518737176 20.567112015267757 7.9452058656715847 #
point $-1 11.02669211528697 15.502224010974381 2.8843424203632351 #
coedge $-1 $285 $222 $223 $269 reversed $180 $-1 #
edge $-1 $242 -7.9452058656715847 $310 7.9452058656715847 $241 $311 forward 7 unknown #
coedge $-1 $224 $223 $281 $312 forward $131 $-1 #
edge $-1 $275 -46.128116702780233 $310 46.128116702780233 $266 $313 forward 7 unknown #
edge $-1 $282 -46.128116702780233 $274 46.128116702780233 $234 $314 forward 7 unknown #
coedge $-1 $277 $225 $279 $315 reversed $273 $-1 #
coedge $-1 $225 $277 $285 $316 forward $273 $-1 #
loop $-1 $-1 $272 $237 #
vertex $-1 $226 $317 #
vertex $-1 $316 $318 #
straight-curve $-1 46.128116702780233 0 -7.9452058656715847 0 -1 0 I I #
coedge $-1 $272 $271 $227 $278 reversed $273 $-1 #
edge $-1 $286 -20.567112015267757 $280 20.567112015267757 $277 $319 forward 7 unknown #
coedge $-1 $234 $228 $271 $315 forward $145 $-1 #
vertex $-1 $278 $320 #
coedge $-1 $241 $235 $268 $312 reversed $220 $-1 #
vertex $-1 $270 $321 #
straight-curve $-1 -46.128116702780233 20.567112015267757 0 0 0 -1 I I #
plane-surface $-1 46.128116702780233 0 0 -1 0 0 0 0 1 forward_v I I I I #
coedge $-1 $239 $266 $272 $316 reversed $180 $-1 #
vertex $-1 $278 $322 #
straight-curve $-1 0 -20.567112015267757 7.9452058656715847 1 0 0 I I #
point $-1 -46.128116702780233 -20.567112015267757 7.9452058656715847 #
face $-1 $304 $323 $11 $-1 $324 reversed single #
loop $-1 $-1 $325 $245 #
plane-surface $-1 0 -20.567112015267757 0 0 1 0 0 0 1 forward_v I I I I #
coedge $-1 $326 $327 $328 $329 forward $246 $-1 #
coedge $-1 $248 $330 $331 $332 forward $201 $-1 #
coedge $-1 $331 $257 $249 $295 forward $259 $-1 #
edge $-1 $333 -44.821374887270267 $297 -39.533573876566969 $294 $334 forward 7 unknown #
edge $-1 $333 -41.134224030535492 $298 -34.018786002177976 $250 $335 forward 7 unknown #
vertex $-1 $295 $336 #
vertex $-1 $253 $337 #
straight-curve $-1 23.596452582447672 30.801343681651602 7.945205865671582 0 -1 0 I I #
straight-curve $-1 5.5133460576434885 15.805954718286129 7.9452058656715856 -1 0 0 I I #
edge $-1 $255 -7.0564144095172061 $333 18.083106524804183 $257 $338 forward 7 unknown #
point $-1 -1.5430683518737176 20.567112015267757 2.6574048549682807 #
coedge $-1 $258 $339 $340 $341 reversed $259 $-1 #
face $-1 $342 $259 $11 $-1 $343 reversed single #
coedge $-1 $330 $261 $344 $345 forward $201 $-1 #
coedge $-1 $340 $346 $261 $307 reversed $323 $-1 #
edge $-1 $308 -20.567112015267757 $347 20.567112015267757 $306 $348 forward 7 unknown #
vertex $-1 $262 $349 #
straight-curve $-1 0 20.567112015267757 7.9452058656715847 -1 0 0 I I #
vertex $-1 $312 $350 #
straight-curve $-1 -46.128116702780233 -20.567112015267757 0 0 0 -1 I I #
edge $-1 $310 -20.567112015267757 $282 20.567112015267757 $281 $351 forward 7 unknown #
straight-curve $-1 0 -20.567112015267757 -7.9452058656715847 -1 0 0 I I #
straight-curve $-1 0 20.567112015267757 -7.9452058656715847 1 0 0 I I #
edge $-1 $280 -7.9452058656715847 $274 7.9452058656715847 $271 $352 forward 7 unknown #
edge $-1 $286 -7.9452058656715847 $275 7.9452058656715847 $272 $353 forward 7 unknown #
point $-1 46.128116702780233 20.567112015267757 -7.9452058656715847 #
point $-1 46.128116702780233 -20.567112015267757 -7.9452058656715847 #
straight-curve $-1 46.128116702780233 0 7.9452058656715847 0 1 0 I I #
point $-1 46.128116702780233 20.567112015267757 7.9452058656715847 #
point $-1 -46.128116702780233 20.567112015267757 -7.9452058656715847 #
point $-1 46.128116702780233 -20.567112015267757 7.9452058656715847 #
loop $-1 $-1 $340 $289 #
plane-surface $-1 -46.128116702780233 0 0 1 0 0 0 0 -1 forward_v I I I I #
coedge $-1 $354 $344 $346 $355 forward $290 $-1 #
coedge $-1 $356 $292 $354 $357 forward $246 $-1 #
coedge $-1 $292 $356 $339 $358 forward $246 $-1 #
coedge $-1 $359 $360 $292 $329 reversed $361 $-1 #
edge $-1 $362 -20.567112015267757 $363 20.567112015267757 $328 $364 forward 7 unknown #
coedge $-1 $293 $305 $365 $366 forward $201 $-1 #
coedge $-1 $367 $294 $293 $332 reversed $259 $-1 #
edge $-1 $368 -46.128116702780233 $297 -23.596452582447672 $331 $309 forward 7 unknown #
vertex $-1 $301 $369 #
straight-curve $-1 23.596452582447672 20.567112015267757 47.478779742238551 0 0 1 I I #
straight-curve $-1 23.596452582447672 -6.9570558740658299 33.226090933929235 0 -0.66913059716165679 0.74314483375859142 I I #
point $-1 23.596452582447672 20.567112015267757 7.9452058656715847 #
point $-1 23.596452582447672 15.805954718286131 7.9452058656715856 #
straight-curve $-1 5.5133460576434885 20.567112015267757 2.6574048549682789 1 0 0 I I #
coedge $-1 $303 $367 $327 $358 reversed $259 $-1 #
coedge $-1 $370 $306 $303 $341 forward $323 $-1 #
edge $-1 $308 -7.9452058656715847 $371 7.9452058656715847 $303 $372 forward 7 unknown #
face $-1 $-1 $361 $11 $-1 $373 reversed single #
plane-surface $-1 0 20.567112015267757 0 0 -1 0 0 0 -1 forward_v I I I I #
coedge $-1 $325 $374 $305 $345 reversed $290 $-1 #
edge $-1 $347 -46.128116702780233 $375 46.128116702780233 $344 $376 forward 7 unknown #
coedge $-1 $306 $370 $325 $355 reversed $323 $-1 #
vertex $-1 $307 $377 #
straight-curve $-1 -46.128116702780233 0 7.9452058656715847 0 -1 0 I I #
point $-1 -46.128116702780233 20.567112015267757 7.9452058656715847 #
point $-1 -46.128116702780233 -20.567112015267757 -7.9452058656715847 #
straight-curve $-1 -46.128116702780233 0 -7.9452058656715847 0 1 0 I I #
straight-curve $-1 46.128116702780233 20.567112015267757 0 0 0 -1 I I #
straight-curve $-1 46.128116702780233 -20.567112015267757 0 0 0 -1 I I #
coedge $-1 $374 $325 $326 $357 reversed $290 $-1 #
edge $-1 $347 -7.9452058656715847 $378 7.9452058656715847 $346 $379 forward 7 unknown #
coedge $-1 $327 $326 $370 $380 forward $246 $-1 #
edge $-1 $363 -46.128116702780233 $378 46.128116702780233 $354 $381 forward 7 unknown #
edge $-1 $371 -46.128116702780233 $362 46.128116702780233 $339 $382 forward 7 unknown #
coedge $-1 $365 $328 $367 $383 reversed $361 $-1 #
coedge $-1 $328 $365 $374 $384 forward $361 $-1 #
loop $-1 $-1 $360 $342 #
vertex $-1 $329 $385 #
vertex $-1 $384 $386 #
straight-curve $-1 46.128116702780233 0 -7.9452058656715847 0 -1 0 I I #
coedge $-1 $360 $359 $330 $366 reversed $361 $-1 #
edge $-1 $375 -20.567112015267757 $368 20.567112015267757 $365 $387 forward 7 unknown #
coedge $-1 $339 $331 $359 $383 forward $259 $-1 #
vertex $-1 $366 $388 #
point $-1 23.596452582447672 20.567112015267757 2.6574048549682807 #
coedge $-1 $346 $340 $356 $380 reversed $323 $-1 #
vertex $-1 $358 $389 #
straight-curve $-1 -46.128116702780233 20.567112015267757 0 0 0 -1 I I #
plane-surface $-1 46.128116702780233 0 0 -1 0 0 0 0 1 forward_v I I I I #
coedge $-1 $344 $354 $360 $384 reversed $290 $-1 #
vertex $-1 $366 $390 #
straight-curve $-1 0 -20.567112015267757 7.9452058656715847 1 0 0 I I #
point $-1 -46.128116702780233 -20.567112015267757 7.9452058656715847 #
vertex $-1 $380 $391 #
straight-curve $-1 -46.128116702780233 -20.567112015267757 0 0 0 -1 I I #
edge $-1 $378 -20.567112015267757 $371 20.567112015267757 $370 $392 forward 7 unknown #
straight-curve $-1 0 -20.567112015267757 -7.9452058656715847 -1 0 0 I I #
straight-curve $-1 0 20.567112015267757 -7.9452058656715847 1 0 0 I I #
edge $-1 $368 -7.9452058656715847 $362 7.9452058656715847 $359 $393 forward 7 unknown #
edge $-1 $375 -7.9452058656715847 $363 7.9452058656715847 $360 $394 forward 7 unknown #
point $-1 46.128116702780233 20.567112015267757 -7.9452058656715847 #
point $-1 46.128116702780233 -20.567112015267757 -7.9452058656715847 #
straight-curve $-1 46.128116702780233 0 7.9452058656715847 0 1 0 I I #
point $-1 46.128116702780233 20.567112015267757 7.9452058656715847 #
point $-1 -46.128116702780233 20.567112015267757 -7.9452058656715847 #
point $-1 46.128116702780233 -20.567112015267757 7.9452058656715847 #
point $-1 -46.128116702780233 -20.567112015267757 -7.9452058656715847 #
straight-curve $-1 -46.128116702780233 0 -7.9452058656715847 0 1 0 I I #
straight-curve $-1 46.128116702780233 20.567112015267757 0 0 0 -1 I I #
straight-curve $-1 46.128116702780233 -20.567112015267757 0 0 0 -1 I I #
End-of-ACIS-data 