600 0 9 0           
108 GICL ACIS Healer - Source: /gicl/data5/repository/Drexel/CICIRELLO-THESISDATA/Part10005.smdg.delta.sat - 6 0 18 ACIS 6.0.3 Solaris 24 Fri Apr 12 10:16:54 2002 
1 9.999999999999999547e-07 1.000000000000000036e-10 
body $-1 $9 $-1 $-1 #
body $-1 $10 $-1 $-1 #
body $-1 $11 $-1 $-1 #
body $-1 $12 $-1 $-1 #
body $-1 $13 $-1 $-1 #
body $-1 $14 $-1 $-1 #
body $-1 $15 $-1 $-1 #
body $-1 $16 $-1 $-1 #
body $-1 $17 $-1 $-1 #
lump $-1 $-1 $18 $0 #
lump $-1 $-1 $19 $1 #
lump $-1 $-1 $20 $2 #
lump $-1 $-1 $21 $3 #
lump $-1 $-1 $22 $4 #
lump $-1 $-1 $23 $5 #
lump $-1 $-1 $24 $6 #
lump $-1 $-1 $25 $7 #
lump $-1 $-1 $26 $8 #
shell $-1 $-1 $-1 $27 $-1 $9 #
shell $-1 $-1 $-1 $28 $-1 $10 #
shell $-1 $-1 $-1 $29 $-1 $11 #
shell $-1 $-1 $-1 $30 $-1 $12 #
shell $-1 $-1 $-1 $31 $-1 $13 #
shell $-1 $-1 $-1 $32 $-1 $14 #
shell $-1 $-1 $-1 $33 $-1 $15 #
shell $-1 $-1 $-1 $34 $-1 $16 #
shell $-1 $-1 $-1 $35 $-1 $17 #
face $-1 $36 $37 $18 $-1 $38 forward single #
face $-1 $39 $40 $19 $-1 $41 forward single #
face $-1 $42 $43 $20 $-1 $44 forward single #
face $-1 $45 $46 $21 $-1 $47 reversed single #
face $-1 $48 $49 $22 $-1 $50 forward single #
face $-1 $51 $52 $23 $-1 $53 forward single #
face $-1 $54 $55 $24 $-1 $56 reversed single #
face $-1 $57 $58 $25 $-1 $59 forward single #
face $-1 $60 $61 $26 $-1 $62 forward single #
face $-1 $63 $64 $18 $-1 $65 reversed single #
loop $-1 $-1 $66 $27 #
plane-surface $-1 50.79134495071260602 29.2310258739447697 26.20470878129758674 0 0 1 1 0 0 forward_v I I I I #
face $-1 $67 $68 $19 $-1 $69 reversed single #
loop $-1 $-1 $70 $28 #
plane-surface $-1 6.802819813358489398 29.2310258739447697 7.552053543558624682 0 0 1 1 0 0 forward_v I I I I #
face $-1 $71 $72 $20 $-1 $73 reversed single #
loop $-1 $-1 $74 $29 #
plane-surface $-1 101.582689901425212 29.2310258739447697 13.10235439064879337 -1 0 0 0 0 1 forward_v I I I I #
face $-1 $75 $76 $21 $-1 $77 reversed single #
loop $-1 $-1 $78 $30 #
plane-surface $-1 29.17820067222048408 100.6152691292171255 131.7052073006463786 1 0 0 0 -0.7771459697322561366 -0.629320380830711068 forward_v I I I I #
face $-1 $79 $80 $22 $-1 $81 forward single #
loop $-1 $82 $83 $31 #
cone-surface $-1 33.95864735209557494 55.55361557333334588 23.1849109973999461 0 -0.7771459697322561366 -0.629320380830711068 1 0 0 1 I I 0 1 1 forward I I I I #
face $-1 $84 $85 $23 $-1 $86 forward single #
loop $-1 $87 $88 $32 #
cone-surface $-1 41.1293173719082148 55.55361557333334588 23.1849109973999461 0 -0.7771459697322561366 -0.629320380830711068 1 0 0 1 I I 0 1 1 forward I I I I #
face $-1 $89 $90 $24 $-1 $91 reversed single #
loop $-1 $-1 $92 $33 #
plane-surface $-1 45.90976405178331277 -78.94457805145415819 86.27165940249543041 -1 0 0 0 -0.7771459697322561366 0.629320380830711068 forward_v I I I I #
face $-1 $93 $94 $25 $-1 $95 forward single #
loop $-1 $96 $97 $34 #
cone-surface $-1 33.95864735209557494 2.908436174556197074 23.1849109973999461 0 0.7771459697322561366 -0.629320380830711068 1 0 0 1 I I 0 1 1 forward I I I I #
face $-1 $98 $99 $26 $-1 $100 forward single #
loop $-1 $101 $102 $35 #
cone-surface $-1 41.1293173719082148 2.908436174556197074 23.1849109973999461 0 0.7771459697322561366 -0.629320380830711068 1 0 0 1 I I 0 1 1 forward I I I I #
face $-1 $103 $104 $18 $-1 $105 reversed single #
loop $-1 $-1 $106 $36 #
plane-surface $-1 50.79134495071260602 29.2310258739447697 0 0 0 1 1 0 0 forward_v I I I I #
coedge $-1 $107 $108 $109 $110 forward $37 $-1 #
face $-1 $111 $112 $19 $-1 $113 reversed single #
loop $-1 $-1 $114 $39 #
plane-surface $-1 6.802819813358489398 29.2310258739447697 3.679687431619141691 0 0 1 1 0 0 forward_v I I I I #
coedge $-1 $115 $116 $117 $118 forward $40 $-1 #
face $-1 $119 $120 $20 $-1 $121 forward single #
loop $-1 $-1 $122 $42 #
plane-surface $-1 50.79134495071260602 58.4620517478895394 13.10235439064879337 0 -1 0 0 0 -1 forward_v I I I I #
coedge $-1 $123 $124 $125 $126 forward $43 $-1 #
face $-1 $127 $128 $21 $-1 $129 reversed single #
loop $-1 $-1 $130 $45 #
plane-surface $-1 37.54398236200189842 21.67069107776296377 67.77715020607342922 0 0.7771459697322561366 0.629320380830711068 1 0 0 forward_v I I I I #
coedge $-1 $131 $132 $133 $134 reversed $46 $-1 #
face $-1 $-1 $135 $22 $-1 $136 forward single #
loop $-1 $137 $138 $48 #
cone-surface $-1 33.95864735209557494 53.81993755818079705 21.78100625977450022 0 -0.7771459697322561366 -0.629320380830711068 0.5 0 0 1 I I -0.7071067811865474617 0.7071067811865474617 0.5 forward I I I I #
loop $-1 $-1 $139 $31 #
coedge $-1 $83 $83 $140 $141 reversed $49 $-1 #
face $-1 $-1 $142 $23 $-1 $143 forward single #
loop $-1 $144 $145 $51 #
cone-surface $-1 41.1293173719082148 53.81993755818079705 21.78100625977450022 0 -0.7771459697322561366 -0.629320380830711068 0.5 0 0 1 I I -0.7071067811865474617 0.7071067811865474617 0.5 forward I I I I #
loop $-1 $-1 $146 $32 #
coedge $-1 $88 $88 $147 $148 reversed $52 $-1 #
face $-1 $149 $150 $24 $-1 $151 reversed single #
loop $-1 $-1 $152 $54 #
plane-surface $-1 37.54398236200189842 -3.552713678800500929e-15 22.34360230792248103 0 -0.7771459697322561366 0.629320380830711068 1 0 0 forward_v I I I I #
coedge $-1 $153 $154 $155 $156 reversed $55 $-1 #
face $-1 $-1 $157 $25 $-1 $158 forward single #
loop $-1 $159 $160 $57 #
cone-surface $-1 33.95864735209557494 4.642114189708745897 21.78100625977450022 0 0.7771459697322561366 -0.629320380830711068 0.5 0 0 1 I I -0.7071067811865474617 0.7071067811865474617 0.5 forward I I I I #
loop $-1 $-1 $161 $34 #
coedge $-1 $97 $97 $162 $163 reversed $58 $-1 #
face $-1 $-1 $164 $26 $-1 $165 forward single #
loop $-1 $166 $167 $60 #
cone-surface $-1 41.1293173719082148 4.642114189708745897 21.78100625977450022 0 0.7771459697322561366 -0.629320380830711068 0.5 0 0 1 I I -0.7071067811865474617 0.7071067811865474617 0.5 forward I I I I #
loop $-1 $-1 $168 $35 #
coedge $-1 $102 $102 $169 $170 reversed $61 $-1 #
face $-1 $171 $172 $18 $-1 $173 reversed single #
loop $-1 $-1 $174 $63 #
plane-surface $-1 50.79134495071260602 0 13.10235439064879337 0 1 0 0 0 1 forward_v I I I I #
coedge $-1 $175 $176 $177 $178 forward $64 $-1 #
coedge $-1 $179 $66 $180 $181 forward $37 $-1 #
coedge $-1 $66 $179 $182 $183 forward $37 $-1 #
coedge $-1 $184 $185 $66 $110 reversed $186 $-1 #
edge $-1 $187 -29.2310258739447697 $188 29.2310258739447697 $109 $189 forward 7 unknown #
face $-1 $190 $191 $19 $-1 $192 reversed single #
loop $-1 $-1 $193 $67 #
plane-surface $-1 13.6056396267169788 29.2310258739447697 5.615870487588883186 -1 0 0 0 0 1 forward_v I I I I #
coedge $-1 $194 $195 $196 $197 forward $68 $-1 #
coedge $-1 $198 $70 $199 $200 reversed $40 $-1 #
coedge $-1 $70 $198 $201 $202 reversed $40 $-1 #
coedge $-1 $193 $203 $70 $118 reversed $112 $-1 #
edge $-1 $204 -29.2310258739447697 $205 29.2310258739447697 $117 $206 forward 7 unknown #
face $-1 $207 $208 $20 $-1 $209 reversed single #
loop $-1 $-1 $210 $71 #
plane-surface $-1 106.4796803598483592 29.2310258739447697 9.920908233969949919 0 0 1 1 0 0 forward_v I I I I #
coedge $-1 $211 $212 $124 $213 forward $72 $-1 #
coedge $-1 $214 $74 $215 $216 reversed $43 $-1 #
coedge $-1 $74 $214 $122 $213 reversed $43 $-1 #
coedge $-1 $217 $218 $74 $126 reversed $208 $-1 #
edge $-1 $219 -29.2310258739447697 $220 29.2310258739447697 $125 $221 forward 7 unknown #
face $-1 $222 $223 $21 $-1 $224 reversed single #
loop $-1 $-1 $225 $75 #
plane-surface $-1 45.90976405178331277 100.6152691292171255 131.7052073006463786 -1 0 0 0 0.7771459697322561366 0.629320380830711068 forward_v I I I I #
coedge $-1 $226 $227 $228 $229 reversed $76 $-1 #
coedge $-1 $132 $78 $230 $231 reversed $46 $-1 #
coedge $-1 $78 $131 $226 $232 reversed $46 $-1 #
coedge $-1 $228 $233 $78 $134 forward $234 $-1 #
edge $-1 $235 6.461095753691402876 $236 9.587758042230944966 $133 $237 forward 7 unknown #
loop $-1 $-1 $140 $79 #
plane-surface $-1 37.54398236200189842 21.67069107776296377 67.77715020607342922 0 0.7771459697322561366 0.629320380830711068 1 0 0 forward_v I I I I #
loop $-1 $-1 $238 $48 #
coedge $-1 $138 $138 $139 $239 reversed $80 $-1 #
coedge $-1 $139 $139 $138 $239 forward $82 $-1 #
coedge $-1 $140 $140 $83 $141 forward $135 $-1 #
edge $-1 $240 -4.471590250650415527e-15 $240 6.283185307179581791 $140 $241 forward 7 unknown #
loop $-1 $-1 $147 $84 #
plane-surface $-1 37.54398236200189842 21.67069107776296377 67.77715020607342922 0 0.7771459697322561366 0.629320380830711068 1 0 0 forward_v I I I I #
loop $-1 $-1 $242 $51 #
coedge $-1 $145 $145 $146 $243 reversed $85 $-1 #
coedge $-1 $146 $146 $145 $243 forward $87 $-1 #
coedge $-1 $147 $147 $88 $148 forward $142 $-1 #
edge $-1 $244 -4.471590250650415527e-15 $244 6.283185307179581791 $147 $245 forward 7 unknown #
face $-1 $246 $247 $24 $-1 $248 forward single #
loop $-1 $-1 $249 $89 #
plane-surface $-1 29.17820067222048408 -78.94457805145415819 86.27165940249543041 1 0 0 0 0.7771459697322561366 -0.629320380830711068 forward_v I I I I #
coedge $-1 $250 $251 $252 $253 reversed $90 $-1 #
coedge $-1 $154 $92 $254 $255 reversed $55 $-1 #
coedge $-1 $92 $153 $250 $256 reversed $55 $-1 #
coedge $-1 $252 $257 $92 $156 forward $247 $-1 #
edge $-1 $258 24.85677608875469602 $259 27.98343837729424166 $155 $260 forward 7 unknown #
loop $-1 $-1 $162 $93 #
plane-surface $-1 37.54398236200189842 -3.552713678800500929e-15 22.34360230792248103 0 -0.7771459697322561366 0.629320380830711068 1 0 0 forward_v I I I I #
loop $-1 $-1 $261 $57 #
coedge $-1 $160 $160 $161 $262 reversed $94 $-1 #
coedge $-1 $161 $161 $160 $262 forward $96 $-1 #
coedge $-1 $162 $162 $97 $163 forward $157 $-1 #
edge $-1 $263 -5.251819917672589776e-16 $263 6.283185307179585344 $162 $264 forward 7 unknown #
loop $-1 $-1 $169 $98 #
plane-surface $-1 37.54398236200189842 -3.552713678800500929e-15 22.34360230792248103 0 -0.7771459697322561366 0.629320380830711068 1 0 0 forward_v I I I I #
loop $-1 $-1 $265 $60 #
coedge $-1 $167 $167 $168 $266 reversed $99 $-1 #
coedge $-1 $168 $168 $167 $266 forward $101 $-1 #
coedge $-1 $169 $169 $102 $170 forward $164 $-1 #
edge $-1 $267 -5.251819917672589776e-16 $267 6.283185307179585344 $169 $268 forward 7 unknown #
face $-1 $269 $270 $18 $-1 $271 reversed single #
loop $-1 $-1 $272 $103 #
plane-surface $-1 0 29.2310258739447697 13.10235439064879337 1 0 0 0 0 -1 forward_v I I I I #
coedge $-1 $273 $182 $274 $275 forward $104 $-1 #
coedge $-1 $276 $106 $273 $277 forward $64 $-1 #
coedge $-1 $106 $276 $278 $279 forward $64 $-1 #
coedge $-1 $185 $184 $106 $178 reversed $186 $-1 #
edge $-1 $280 -29.2310258739447697 $281 29.2310258739447697 $177 $282 forward 7 unknown #
coedge $-1 $108 $107 $283 $284 forward $37 $-1 #
coedge $-1 $285 $286 $107 $181 reversed $270 $-1 #
edge $-1 $188 -50.79134495071260602 $287 50.79134495071260602 $180 $288 forward 7 unknown #
coedge $-1 $174 $289 $108 $183 reversed $104 $-1 #
edge $-1 $290 -50.79134495071260602 $187 50.79134495071260602 $182 $291 forward 7 unknown #
coedge $-1 $177 $109 $289 $292 forward $186 $-1 #
coedge $-1 $109 $177 $285 $293 reversed $186 $-1 #
loop $-1 $-1 $184 $269 #
vertex $-1 $110 $294 #
vertex $-1 $110 $295 #
straight-curve $-1 101.582689901425212 29.2310258739447697 26.20470878129758674 0 1 0 I I #
face $-1 $296 $297 $19 $-1 $298 reversed single #
loop $-1 $-1 $299 $111 #
plane-surface $-1 50.79134495071260602 0 13.10235439064879337 0 1 0 0 0 1 forward_v I I I I #
coedge $-1 $196 $117 $300 $301 reversed $112 $-1 #
coedge $-1 $302 $114 $299 $303 reversed $68 $-1 #
coedge $-1 $114 $302 $304 $305 reversed $68 $-1 #
coedge $-1 $203 $193 $114 $197 reversed $112 $-1 #
edge $-1 $306 -29.2310258739447697 $307 29.2310258739447697 $196 $308 forward 7 unknown #
coedge $-1 $116 $115 $309 $310 reversed $40 $-1 #
coedge $-1 $311 $312 $115 $200 forward $313 $-1 #
edge $-1 $314 -28.79708238203554771 $205 -15.19144275531856891 $199 $315 forward 7 unknown #
coedge $-1 $316 $300 $116 $202 forward $191 $-1 #
edge $-1 $204 15.19144275531856891 $317 28.79708238203554771 $201 $318 forward 7 unknown #
coedge $-1 $117 $196 $311 $319 reversed $112 $-1 #
vertex $-1 $202 $320 #
vertex $-1 $200 $321 #
straight-curve $-1 13.6056396267169788 29.2310258739447697 7.552053543558624682 0 1 0 I I #
face $-1 $322 $323 $20 $-1 $324 reversed single #
loop $-1 $-1 $325 $119 #
plane-surface $-1 106.4796803598483592 29.2310258739447697 2.297174955328884494 0 0 1 1 0 0 forward_v I I I I #
coedge $-1 $326 $327 $328 $329 forward $120 $-1 #
coedge $-1 $330 $122 $326 $331 reversed $72 $-1 #
coedge $-1 $122 $330 $217 $332 reversed $72 $-1 #
edge $-1 $219 -10.80517943531990888 $333 -3.181446156678843451 $122 $334 forward 7 unknown #
coedge $-1 $124 $123 $335 $336 forward $43 $-1 #
coedge $-1 $337 $338 $123 $216 forward $339 $-1 #
edge $-1 $340 3.181446156678843451 $220 10.80517943531990888 $215 $341 forward 7 unknown #
coedge $-1 $325 $125 $212 $332 forward $208 $-1 #
coedge $-1 $125 $325 $337 $342 forward $208 $-1 #
vertex $-1 $213 $343 #
vertex $-1 $216 $344 #
straight-curve $-1 101.582689901425212 29.2310258739447697 2.297174955328884494 0 -1 0 I I #
face $-1 $-1 $234 $21 $-1 $345 forward single #
loop $-1 $-1 $346 $127 #
plane-surface $-1 50.79134495071260602 58.4620517478895394 13.10235439064879337 0 -1 0 0 0 -1 forward_v I I I I #
coedge $-1 $347 $348 $349 $350 reversed $128 $-1 #
coedge $-1 $351 $130 $132 $232 forward $76 $-1 #
coedge $-1 $130 $351 $347 $352 forward $76 $-1 #
coedge $-1 $349 $133 $130 $229 forward $234 $-1 #
edge $-1 $236 -14.98946298413676459 $353 1.742100395426064097 $228 $354 forward 7 unknown #
coedge $-1 $355 $356 $131 $231 forward $223 $-1 #
edge $-1 $357 -50.06017853772510762 $235 -46.19907206435000546 $230 $358 forward 7 unknown #
edge $-1 $236 53.49373611124621419 $357 58.46205174788953229 $132 $359 forward 7 unknown #
coedge $-1 $133 $349 $355 $360 forward $234 $-1 #
loop $-1 $-1 $349 $222 #
vertex $-1 $231 $361 #
vertex $-1 $134 $362 #
straight-curve $-1 29.17820067222048408 64.92314750158094228 26.20470878129758319 0 -1 0 I I #
coedge $-1 $238 $238 $-1 $363 reversed $137 $-1 #
edge $-1 $364 0 $364 6.283185307179586232 $138 $365 forward 7 unknown #
vertex $-1 $141 $366 #
ellipse-curve $-1 33.95864735209557494 56.89872060361977191 24.27415554461003211 0 0.7771459697322561366 0.629320380830711068 1 0 0 1 I I #
coedge $-1 $242 $242 $-1 $367 reversed $144 $-1 #
edge $-1 $368 0 $368 6.283185307179586232 $145 $369 forward 7 unknown #
vertex $-1 $148 $370 #
ellipse-curve $-1 41.1293173719082148 56.89872060361977191 24.27415554461003211 0 0.7771459697322561366 0.629320380830711068 1 0 0 1 I I #
face $-1 $-1 $371 $24 $-1 $372 reversed single #
loop $-1 $-1 $155 $149 #
plane-surface $-1 50.79134495071260602 29.2310258739447697 26.20470878129758674 0 0 1 1 0 0 forward_v I I I I #
coedge $-1 $373 $374 $375 $376 reversed $150 $-1 #
coedge $-1 $377 $152 $154 $256 forward $90 $-1 #
coedge $-1 $152 $377 $373 $378 forward $90 $-1 #
coedge $-1 $375 $155 $152 $253 forward $247 $-1 #
edge $-1 $259 -1.742100395426064097 $379 14.98946298413676459 $252 $380 forward 7 unknown #
coedge $-1 $381 $382 $153 $255 forward $371 $-1 #
edge $-1 $383 -27.34340458864961931 $258 -23.48229811527452071 $254 $384 forward 7 unknown #
edge $-1 $259 -4.968315636643319877 $383 -7.757749359510140654e-15 $154 $385 forward 7 unknown #
coedge $-1 $155 $375 $381 $386 forward $247 $-1 #
vertex $-1 $156 $387 #
vertex $-1 $156 $388 #
straight-curve $-1 45.90976405178331277 -24.85677608875469602 26.20470878129758319 0 1 0 I I #
coedge $-1 $261 $261 $-1 $389 reversed $159 $-1 #
edge $-1 $390 0 $390 6.283185307179586232 $160 $391 forward 7 unknown #
vertex $-1 $163 $392 #
ellipse-curve $-1 33.95864735209557494 1.563331144269771045 24.27415554461003566 0 -0.7771459697322561366 0.629320380830711068 1 0 0 1 I I #
coedge $-1 $265 $265 $-1 $393 reversed $166 $-1 #
edge $-1 $394 0 $394 6.283185307179586232 $167 $395 forward 7 unknown #
vertex $-1 $170 $396 #
ellipse-curve $-1 41.1293173719082148 1.563331144269771045 24.27415554461003566 0 -0.7771459697322561366 0.629320380830711068 1 0 0 1 I I #
face $-1 $-1 $186 $18 $-1 $397 reversed single #
loop $-1 $-1 $285 $171 #
plane-surface $-1 50.79134495071260602 58.4620517478895394 13.10235439064879337 0 -1 0 0 0 -1 forward_v I I I I #
coedge $-1 $398 $283 $286 $399 forward $172 $-1 #
coedge $-1 $289 $174 $175 $277 reversed $104 $-1 #
coedge $-1 $283 $398 $174 $275 reversed $172 $-1 #
edge $-1 $290 -13.10235439064879337 $400 13.10235439064879337 $274 $401 forward 7 unknown #
coedge $-1 $176 $175 $398 $402 forward $64 $-1 #
edge $-1 $281 -50.79134495071260602 $400 50.79134495071260602 $273 $403 forward 7 unknown #
coedge $-1 $286 $285 $176 $279 reversed $270 $-1 #
edge $-1 $404 -50.79134495071260602 $280 50.79134495071260602 $278 $405 forward 7 unknown #
vertex $-1 $178 $406 #
vertex $-1 $292 $407 #
straight-curve $-1 101.582689901425212 29.2310258739447697 0 0 -1 0 I I #
coedge $-1 $272 $274 $179 $284 reversed $172 $-1 #
edge $-1 $287 -29.2310258739447697 $290 29.2310258739447697 $283 $408 forward 7 unknown #
coedge $-1 $278 $180 $185 $293 forward $270 $-1 #
coedge $-1 $180 $278 $272 $399 reversed $270 $-1 #
vertex $-1 $181 $409 #
straight-curve $-1 50.79134495071260602 58.4620517478895394 26.20470878129758674 -1 0 0 I I #
coedge $-1 $182 $273 $184 $292 reversed $104 $-1 #
vertex $-1 $284 $410 #
straight-curve $-1 50.79134495071260602 0 26.20470878129758674 1 0 0 I I #
edge $-1 $187 -13.10235439064879337 $281 13.10235439064879337 $184 $411 forward 7 unknown #
edge $-1 $188 -13.10235439064879337 $280 13.10235439064879337 $185 $412 forward 7 unknown #
point $-1 101.582689901425212 0 26.20470878129758674 #
point $-1 101.582689901425212 58.4620517478895394 26.20470878129758674 #
face $-1 $-1 $313 $19 $-1 $413 reversed single #
loop $-1 $-1 $414 $190 #
plane-surface $-1 0 29.2310258739447697 13.10235439064879337 1 0 0 0 0 -1 forward_v I I I I #
coedge $-1 $300 $316 $194 $303 forward $191 $-1 #
coedge $-1 $201 $299 $193 $301 forward $191 $-1 #
edge $-1 $307 -5.679425007499697031 $204 -1.80705889556021404 $300 $415 forward 7 unknown #
coedge $-1 $195 $194 $414 $416 reversed $68 $-1 #
edge $-1 $417 -28.79708238203554771 $307 -15.19144275531856891 $299 $418 forward 7 unknown #
coedge $-1 $312 $311 $195 $305 forward $313 $-1 #
edge $-1 $306 15.19144275531856891 $419 28.79708238203554771 $304 $420 forward 7 unknown #
vertex $-1 $305 $421 #
vertex $-1 $303 $422 #
straight-curve $-1 13.6056396267169788 29.2310258739447697 3.679687431619141691 0 -1 0 I I #
coedge $-1 $423 $424 $198 $310 forward $297 $-1 #
edge $-1 $317 -29.2310258739447697 $314 29.2310258739447697 $309 $425 forward 7 unknown #
coedge $-1 $304 $199 $203 $319 forward $313 $-1 #
coedge $-1 $199 $304 $423 $426 reversed $313 $-1 #
loop $-1 $-1 $304 $296 #
vertex $-1 $426 $427 #
straight-curve $-1 28.79708238203554771 58.4620517478895394 7.552053543558624682 1 0 0 I I #
coedge $-1 $299 $201 $424 $428 forward $191 $-1 #
vertex $-1 $428 $429 #
straight-curve $-1 28.79708238203554771 0 7.552053543558624682 -1 0 0 I I #
edge $-1 $205 1.80705889556021404 $306 5.679425007499697031 $311 $430 forward 7 unknown #
point $-1 13.6056396267169788 0 7.552053543558624682 #
point $-1 13.6056396267169788 58.4620517478895394 7.552053543558624682 #
face $-1 $-1 $339 $20 $-1 $431 reversed single #
loop $-1 $-1 $432 $207 #
plane-surface $-1 111.3766708182715064 29.2310258739447697 6.109041594649417206 -1 0 0 0 0 1 forward_v I I I I #
coedge $-1 $218 $217 $433 $434 forward $208 $-1 #
coedge $-1 $335 $210 $211 $331 forward $120 $-1 #
coedge $-1 $210 $335 $338 $435 forward $120 $-1 #
coedge $-1 $432 $436 $210 $329 reversed $323 $-1 #
edge $-1 $437 -29.2310258739447697 $438 29.2310258739447697 $328 $439 forward 7 unknown #
coedge $-1 $212 $211 $436 $440 forward $72 $-1 #
edge $-1 $438 -4.896990458423147174 $333 4.896990458423147174 $211 $441 forward 7 unknown #
edge $-1 $219 -4.896990458423147174 $442 4.896990458423147174 $212 $443 forward 7 unknown #
vertex $-1 $331 $444 #
straight-curve $-1 101.582689901425212 58.4620517478895394 13.10235439064879337 0 0 1 I I #
coedge $-1 $327 $326 $214 $336 reversed $120 $-1 #
edge $-1 $340 -29.2310258739447697 $333 29.2310258739447697 $335 $445 forward 7 unknown #
coedge $-1 $446 $215 $218 $342 reversed $339 $-1 #
coedge $-1 $215 $446 $327 $435 reversed $339 $-1 #
loop $-1 $-1 $215 $322 #
vertex $-1 $216 $447 #
straight-curve $-1 101.582689901425212 0 13.10235439064879337 0 0 -1 I I #
edge $-1 $448 -4.896990458423147174 $220 4.896990458423147174 $337 $449 forward 7 unknown #
point $-1 101.582689901425212 58.4620517478895394 2.297174955328884494 #
point $-1 101.582689901425212 0 2.297174955328884494 #
plane-surface $-1 50.79134495071260602 29.2310258739447697 26.20470878129758674 0 0 1 1 0 0 forward_v I I I I #
coedge $-1 $356 $355 $348 $450 forward $223 $-1 #
coedge $-1 $348 $225 $227 $352 reversed $128 $-1 #
coedge $-1 $225 $347 $346 $450 reversed $128 $-1 #
coedge $-1 $233 $228 $225 $350 forward $234 $-1 #
edge $-1 $353 -9.587758042230944966 $451 -6.461095753691402876 $349 $452 forward 7 unknown #
coedge $-1 $227 $226 $356 $453 reversed $76 $-1 #
edge $-1 $454 -58.46205174788953229 $353 -53.49373611124621419 $347 $455 forward 7 unknown #
vertex $-1 $229 $456 #
straight-curve $-1 44.16766365635724867 55.3353894593499902 26.20470878129758319 1 0 0 I I #
coedge $-1 $346 $230 $233 $360 reversed $223 $-1 #
coedge $-1 $230 $346 $351 $453 forward $223 $-1 #
vertex $-1 $231 $457 #
straight-curve $-1 29.17820067222048408 58.4620517478895394 72.40378084564758865 0 0 1 I I #
straight-curve $-1 29.17820067222048408 21.67069107776296377 67.77715020607342922 0 0.629320380830711068 -0.7771459697322561366 I I #
edge $-1 $451 4.881580898929293255 $235 21.61314427849212194 $355 $458 forward 7 unknown #
point $-1 29.17820067222048408 58.4620517478895394 26.20470878129758674 #
point $-1 29.17820067222048408 55.33538945934999731 26.20470878129758319 #
edge $-1 $459 1 $459 0 $238 $-1 forward 7 unknown #
vertex $-1 $239 $460 #
ellipse-curve $-1 33.95864735209557494 54.20851054304692695 22.09566645018985653 0 0.7771459697322561366 0.629320380830711068 1 0 0 1 I I #
point $-1 34.95864735209557494 56.8987206036197648 24.27415554461003211 #
edge $-1 $461 1 $461 0 $242 $-1 forward 7 unknown #
vertex $-1 $243 $462 #
ellipse-curve $-1 41.1293173719082148 54.20851054304692695 22.09566645018985653 0 0.7771459697322561366 0.629320380830711068 1 0 0 1 I I #
point $-1 42.1293173719082148 56.8987206036197648 24.27415554461003211 #
loop $-1 $-1 $254 $246 #
plane-surface $-1 50.79134495071260602 0 13.10235439064879337 0 1 0 0 0 1 forward_v I I I I #
coedge $-1 $374 $249 $251 $378 reversed $150 $-1 #
coedge $-1 $249 $373 $463 $464 reversed $150 $-1 #
coedge $-1 $257 $252 $249 $376 forward $247 $-1 #
edge $-1 $379 -27.98343837729424166 $465 -24.85677608875469602 $375 $466 forward 7 unknown #
coedge $-1 $251 $250 $382 $467 reversed $90 $-1 #
edge $-1 $468 7.757749359510140654e-15 $379 4.968315636643319877 $373 $469 forward 7 unknown #
vertex $-1 $253 $470 #
straight-curve $-1 44.16766365635724867 3.126662288539545642 26.20470878129758674 -1 0 0 I I #
coedge $-1 $463 $254 $257 $386 reversed $371 $-1 #
coedge $-1 $254 $463 $377 $467 forward $371 $-1 #
vertex $-1 $255 $471 #
straight-curve $-1 45.90976405178331277 -3.552713678800500929e-15 49.68700689657210745 0 0 1 I I #
straight-curve $-1 45.90976405178331277 -3.552713678800500929e-15 22.34360230792248103 0 -0.629320380830711068 -0.7771459697322561366 I I #
edge $-1 $465 -21.61314427849212194 $258 -4.881580898929293255 $381 $472 forward 7 unknown #
point $-1 45.90976405178331277 0 26.20470878129758674 #
point $-1 45.90976405178331277 3.126662288539545642 26.20470878129758674 #
edge $-1 $473 1 $473 0 $261 $-1 forward 7 unknown #
vertex $-1 $262 $474 #
ellipse-curve $-1 33.95864735209557494 4.25354120484261955 22.09566645018985653 0 -0.7771459697322561366 0.629320380830711068 1 0 0 1 I I #
point $-1 34.95864735209557494 1.563331144269774597 24.27415554461003211 #
edge $-1 $475 1 $475 0 $265 $-1 forward 7 unknown #
vertex $-1 $266 $476 #
ellipse-curve $-1 41.1293173719082148 4.25354120484261955 22.09566645018985653 0 -0.7771459697322561366 0.629320380830711068 1 0 0 1 I I #
point $-1 42.1293173719082148 1.563331144269774597 24.27415554461003211 #
plane-surface $-1 101.582689901425212 29.2310258739447697 13.10235439064879337 -1 0 0 0 0 1 forward_v I I I I #
coedge $-1 $274 $272 $276 $402 reversed $172 $-1 #
edge $-1 $287 -13.10235439064879337 $404 13.10235439064879337 $286 $477 forward 7 unknown #
vertex $-1 $402 $478 #
straight-curve $-1 0 0 13.10235439064879337 0 0 -1 I I #
edge $-1 $400 -29.2310258739447697 $404 29.2310258739447697 $398 $479 forward 7 unknown #
straight-curve $-1 50.79134495071260602 0 0 -1 0 0 I I #
vertex $-1 $279 $480 #
straight-curve $-1 50.79134495071260602 58.4620517478895394 0 1 0 0 I I #
point $-1 101.582689901425212 58.4620517478895394 0 #
point $-1 101.582689901425212 0 0 #
straight-curve $-1 0 29.2310258739447697 26.20470878129758674 0 -1 0 I I #
point $-1 0 58.4620517478895394 26.20470878129758674 #
point $-1 0 0 26.20470878129758674 #
straight-curve $-1 101.582689901425212 0 13.10235439064879337 0 0 -1 I I #
straight-curve $-1 101.582689901425212 58.4620517478895394 13.10235439064879337 0 0 -1 I I #
plane-surface $-1 50.79134495071260602 58.4620517478895394 13.10235439064879337 0 -1 0 0 0 -1 forward_v I I I I #
coedge $-1 $424 $423 $302 $416 forward $297 $-1 #
straight-curve $-1 13.6056396267169788 0 9.359112439118838722 0 0 1 I I #
edge $-1 $419 -29.2310258739447697 $417 29.2310258739447697 $414 $481 forward 7 unknown #
vertex $-1 $303 $482 #
straight-curve $-1 28.79708238203554771 0 3.679687431619141691 1 0 0 I I #
vertex $-1 $305 $483 #
straight-curve $-1 28.79708238203554771 58.4620517478895394 3.679687431619141691 -1 0 0 I I #
point $-1 13.6056396267169788 58.4620517478895394 3.679687431619141691 #
point $-1 13.6056396267169788 0 3.679687431619141691 #
coedge $-1 $414 $309 $312 $426 forward $297 $-1 #
coedge $-1 $309 $414 $316 $428 reversed $297 $-1 #
straight-curve $-1 0 29.2310258739447697 7.552053543558624682 0 1 0 I I #
edge $-1 $314 5.550300847090168688 $419 9.422666959029651679 $312 $484 forward 7 unknown #
point $-1 0 58.4620517478895394 7.552053543558624682 #
edge $-1 $317 5.550300847090168688 $417 9.422666959029651679 $424 $485 forward 7 unknown #
point $-1 0 0 7.552053543558624682 #
straight-curve $-1 13.6056396267169788 58.4620517478895394 9.359112439118838722 0 0 -1 I I #
plane-surface $-1 50.79134495071260602 0 13.10235439064879337 0 1 0 0 0 1 forward_v I I I I #
coedge $-1 $433 $328 $446 $486 forward $323 $-1 #
coedge $-1 $436 $432 $325 $434 reversed $323 $-1 #
edge $-1 $442 -29.2310258739447697 $448 29.2310258739447697 $433 $487 forward 7 unknown #
edge $-1 $340 -4.896990458423147174 $437 4.896990458423147174 $338 $488 forward 7 unknown #
coedge $-1 $328 $433 $330 $440 reversed $323 $-1 #
vertex $-1 $329 $489 #
vertex $-1 $329 $490 #
straight-curve $-1 111.3766708182715064 29.2310258739447697 9.920908233969949919 0 1 0 I I #
edge $-1 $438 -3.811866639320532713 $442 3.811866639320532713 $436 $491 forward 7 unknown #
straight-curve $-1 106.4796803598483592 58.4620517478895394 9.920908233969949919 -1 0 0 I I #
vertex $-1 $434 $492 #
straight-curve $-1 106.4796803598483592 58.4620517478895394 2.297174955328884494 1 0 0 I I #
point $-1 101.582689901425212 58.4620517478895394 9.920908233969949919 #
straight-curve $-1 101.582689901425212 29.2310258739447697 9.920908233969949919 0 1 0 I I #
coedge $-1 $338 $337 $432 $486 reversed $339 $-1 #
point $-1 101.582689901425212 0 9.920908233969949919 #
vertex $-1 $486 $493 #
straight-curve $-1 106.4796803598483592 0 2.297174955328884494 -1 0 0 I I #
edge $-1 $451 46.19907206435000546 $454 50.06017853772510762 $346 $494 forward 7 unknown #
vertex $-1 $360 $495 #
straight-curve $-1 45.90976405178331277 64.92314750158094228 26.20470878129758319 0 1 0 I I #
edge $-1 $454 -1.742100395426064097 $357 14.98946298413676459 $356 $496 forward 7 unknown #
vertex $-1 $453 $497 #
straight-curve $-1 45.90976405178331277 21.67069107776296377 67.77715020607342922 0 -0.629320380830711068 0.7771459697322561366 I I #
point $-1 45.90976405178331277 55.33538945934999731 26.20470878129758319 #
point $-1 29.17820067222048408 58.4620517478895465 22.34360230792248103 #
straight-curve $-1 50.79134495071260602 58.4620517478895394 26.20470878129758674 -1 0 0 I I #
vertex $-1 $363 $498 #
point $-1 34.95864735209557494 54.20851054304692695 22.09566645018985653 #
vertex $-1 $367 $499 #
point $-1 42.1293173719082148 54.20851054304692695 22.09566645018985653 #
coedge $-1 $382 $381 $374 $464 forward $371 $-1 #
edge $-1 $465 23.48229811527452071 $468 27.34340458864961931 $463 $500 forward 7 unknown #
vertex $-1 $386 $501 #
straight-curve $-1 29.17820067222048408 -24.85677608875469602 26.20470878129758319 0 -1 0 I I #
edge $-1 $468 -14.98946298413676459 $383 1.742100395426064097 $382 $502 forward 7 unknown #
vertex $-1 $467 $503 #
straight-curve $-1 29.17820067222048408 -3.552713678800500929e-15 22.34360230792248103 0 0.629320380830711068 0.7771459697322561366 I I #
point $-1 29.17820067222048408 3.126662288539545642 26.20470878129758674 #
point $-1 45.90976405178331277 0 22.34360230792248814 #
straight-curve $-1 50.79134495071260602 0 26.20470878129758674 1 0 0 I I #
vertex $-1 $389 $504 #
point $-1 34.95864735209557494 4.25354120484261955 22.09566645018985653 #
vertex $-1 $393 $505 #
point $-1 42.1293173719082148 4.25354120484261955 22.09566645018985653 #
straight-curve $-1 0 58.4620517478895394 13.10235439064879337 0 0 -1 I I #
point $-1 0 0 0 #
straight-curve $-1 0 29.2310258739447697 0 0 1 0 I I #
point $-1 0 58.4620517478895394 0 #
straight-curve $-1 0 29.2310258739447697 3.679687431619141691 0 -1 0 I I #
point $-1 0 0 3.679687431619141691 #
point $-1 0 58.4620517478895394 3.679687431619141691 #
straight-curve $-1 0 58.4620517478895394 13.10235439064879337 0 0 -1 I I #
straight-curve $-1 0 0 13.10235439064879337 0 0 -1 I I #
edge $-1 $437 -3.811866639320532713 $448 3.811866639320532713 $432 $506 forward 7 unknown #
straight-curve $-1 111.3766708182715064 29.2310258739447697 2.297174955328884494 0 -1 0 I I #
straight-curve $-1 106.4796803598483592 0 9.920908233969949919 1 0 0 I I #
point $-1 111.3766708182715064 0 9.920908233969949919 #
point $-1 111.3766708182715064 58.4620517478895394 9.920908233969949919 #
straight-curve $-1 111.3766708182715064 58.4620517478895394 6.109041594649417206 0 0 -1 I I #
point $-1 111.3766708182715064 58.4620517478895394 2.297174955328884494 #
point $-1 111.3766708182715064 0 2.297174955328884494 #
straight-curve $-1 45.90976405178331277 58.4620517478895394 72.40378084564758865 0 0 -1 I I #
point $-1 45.90976405178331277 58.4620517478895394 26.20470878129758674 #
straight-curve $-1 44.16766365635724867 58.4620517478895394 22.34360230792248103 -1 0 0 I I #
point $-1 45.90976405178331277 58.4620517478895465 22.34360230792248103 #
point $-1 33.95864735209557494 53.43136457331466715 21.46634606935914391 #
point $-1 41.1293173719082148 53.43136457331466715 21.46634606935914391 #
straight-curve $-1 29.17820067222048408 -3.552713678800500929e-15 49.68700689657210745 0 0 -1 I I #
point $-1 29.17820067222048408 0 26.20470878129758674 #
straight-curve $-1 44.16766365635724867 0 22.34360230792248814 1 0 0 I I #
point $-1 29.17820067222048408 0 22.34360230792248814 #
point $-1 33.95864735209557494 5.030687174574872245 21.46634606935914391 #
point $-1 41.1293173719082148 5.030687174574872245 21.46634606935914391 #
straight-curve $-1 111.3766708182715064 0 6.109041594649417206 0 0 -1 I I #
End-of-ACIS-data 