500 0 12 0           
7 Unknown 11 ACIS 5.0 NT 24 Thu Mar 25 21:19:13 1999 
-1 9.9999999999999995e-007 1e-010 
body $-1 $12 $-1 $13 #
body $-1 $14 $-1 $15 #
body $-1 $16 $-1 $17 #
body $-1 $18 $-1 $19 #
body $-1 $20 $-1 $21 #
body $-1 $22 $-1 $23 #
body $-1 $24 $-1 $25 #
body $-1 $26 $-1 $27 #
body $-1 $28 $-1 $29 #
body $-1 $30 $-1 $31 #
body $-1 $32 $-1 $33 #
body $-1 $34 $-1 $35 #
lump $-1 $-1 $36 $0 #
transform $-1 1 0 0 0 1 0 0 0 1 50.046693319498274 32.350810608242831 15.413605766009285 1 rotate no_reflect no_shear #
lump $-1 $-1 $37 $1 #
transform $-1 1 0 0 0 1 0 0 0 1 50.046693319498274 32.350810608242831 15.413605766009285 1 rotate no_reflect no_shear #
lump $-1 $-1 $38 $2 #
transform $-1 1 0 0 0 1 0 0 0 1 50.046693319498274 32.350810608242831 15.413605766009285 1 rotate no_reflect no_shear #
lump $-1 $-1 $39 $3 #
transform $-1 1 0 0 0 1 0 0 0 1 50.046693319498274 32.350810608242831 15.413605766009285 1 rotate no_reflect no_shear #
lump $-1 $-1 $40 $4 #
transform $-1 1 0 0 0 1 0 0 0 1 50.046693319498274 32.350810608242831 15.413605766009285 1 rotate no_reflect no_shear #
lump $-1 $-1 $41 $5 #
transform $-1 1 0 0 0 1 0 0 0 1 50.046693319498274 32.350810608242831 15.413605766009285 1 rotate no_reflect no_shear #
lump $-1 $-1 $42 $6 #
transform $-1 1 0 0 0 1 0 0 0 1 50.046693319498274 32.350810608242831 15.413605766009285 1 rotate no_reflect no_shear #
lump $-1 $-1 $43 $7 #
transform $-1 1 0 0 0 1 0 0 0 1 50.046693319498274 32.350810608242831 15.413605766009285 1 rotate no_reflect no_shear #
lump $-1 $-1 $44 $8 #
transform $-1 1 0 0 0 1 0 0 0 1 50.046693319498274 32.350810608242831 15.413605766009285 1 rotate no_reflect no_shear #
lump $-1 $-1 $45 $9 #
transform $-1 1 0 0 0 1 0 0 0 1 50.046693319498274 32.350810608242831 15.413605766009285 1 rotate no_reflect no_shear #
lump $-1 $-1 $46 $10 #
transform $-1 1 0 0 0 1 0 0 0 1 50.046693319498274 32.350810608242831 15.413605766009285 1 rotate no_reflect no_shear #
lump $-1 $-1 $47 $11 #
transform $-1 1 0 0 0 1 0 0 0 1 50.046693319498274 32.350810608242831 15.413605766009285 1 rotate no_reflect no_shear #
shell $-1 $-1 $-1 $48 $-1 $12 #
shell $-1 $-1 $-1 $49 $-1 $14 #
shell $-1 $-1 $-1 $50 $-1 $16 #
shell $-1 $-1 $-1 $51 $-1 $18 #
shell $-1 $-1 $-1 $52 $-1 $20 #
shell $-1 $-1 $-1 $53 $-1 $22 #
shell $-1 $-1 $-1 $54 $-1 $24 #
shell $-1 $-1 $-1 $55 $-1 $26 #
shell $-1 $-1 $-1 $56 $-1 $28 #
shell $-1 $-1 $-1 $57 $-1 $30 #
shell $-1 $-1 $-1 $58 $-1 $32 #
shell $-1 $-1 $-1 $59 $-1 $34 #
face $-1 $60 $61 $36 $-1 $62 forward single #
face $-1 $63 $64 $37 $-1 $65 reversed single #
face $-1 $66 $67 $38 $-1 $68 reversed single #
face $-1 $69 $70 $39 $-1 $71 forward single #
face $-1 $72 $73 $40 $-1 $74 forward single #
face $-1 $75 $76 $41 $-1 $77 reversed single #
face $-1 $78 $79 $42 $-1 $80 forward single #
face $-1 $81 $82 $43 $-1 $83 forward single #
face $-1 $84 $85 $44 $-1 $86 reversed single #
face $-1 $87 $88 $45 $-1 $89 forward single #
face $-1 $90 $91 $46 $-1 $92 forward single #
face $-1 $93 $94 $47 $-1 $95 forward single #
face $-1 $96 $97 $36 $-1 $98 reversed single #
loop $-1 $-1 $99 $48 #
plane-surface $-1 0 0 15.413605766009285 0 0 1 1 0 0 forward_v I I I I #
face $-1 $100 $101 $37 $-1 $102 reversed single #
loop $-1 $-1 $103 $49 #
plane-surface $-1 0 -24.816621105646437 7.5582034365651634 0 0 1 1 0 0 forward_v I I I I #
face $-1 $104 $105 $38 $-1 $106 reversed single #
loop $-1 $-1 $107 $50 #
plane-surface $-1 89.064107202760056 -3.0594406189832792 146.67109716571559 0 -1 0 -0.87461971476443456 0 -0.48480960649040278 forward_v I I I I #
face $-1 $108 $109 $39 $-1 $110 forward single #
loop $-1 $111 $112 $51 #
cone-surface $-1 47.85355161179838 -8.1911438724285475 12.531055252442101 -0.87461971476443456 0 -0.48480960649040278 0.24240480324520139 0 -0.43730985738221728 1 I I 0 1 0.5 forward I I I I #
face $-1 $113 $114 $40 $-1 $115 forward single #
loop $-1 $116 $117 $52 #
cone-surface $-1 47.85355161179838 -5.112121920361389 12.531055252442101 -0.87461971476443456 0 -0.48480960649040278 0.24240480324520139 0 -0.43730985738221728 1 I I 0 1 0.5 forward I I I I #
face $-1 $118 $119 $41 $-1 $120 reversed single #
loop $-1 $-1 $121 $53 #
plane-surface $-1 89.064107202760056 25.312204178999437 146.67109716571559 0 -1 0 -0.87461971476443456 0 -0.48480960649040278 forward_v I I I I #
face $-1 $122 $123 $42 $-1 $124 forward single #
loop $-1 $125 $126 $54 #
cone-surface $-1 47.85355161179838 20.180500925554171 12.531055252442101 -0.87461971476443456 0 -0.48480960649040278 0.24240480324520139 0 -0.43730985738221728 1 I I 0 1 0.5 forward I I I I #
face $-1 $127 $128 $43 $-1 $129 forward single #
loop $-1 $130 $131 $55 #
cone-surface $-1 47.85355161179838 23.259522877621329 12.531055252442101 -0.87461971476443456 0 -0.48480960649040278 0.24240480324520139 0 -0.43730985738221728 1 I I 0 1 0.5 forward I I I I #
face $-1 $132 $133 $44 $-1 $134 reversed single #
loop $-1 $-1 $135 $56 #
plane-surface $-1 -128.92135918215533 13.559296674767271 72.47375453356625 0 1 0 -0.78801076186113728 0 0.61566146476048833 forward_v I I I I #
face $-1 $136 $137 $45 $-1 $138 forward single #
loop $-1 $139 $140 $57 #
cone-surface $-1 -47.538123532147836 15.062674079845564 12.564744429774898 0.78801076186113728 0 -0.61566146476048833 0.30783073238024417 0 0.39400538093056864 1 I I 0 1 0.5 forward I I I I #
face $-1 $141 $142 $46 $-1 $143 forward single #
loop $-1 $144 $145 $58 #
cone-surface $-1 -47.538123532147836 17.317740187462995 12.564744429774898 0.78801076186113728 0 -0.61566146476048833 0.30783073238024417 0 0.39400538093056864 1 I I 0 1 0.5 forward I I I I #
face $-1 $146 $147 $47 $-1 $148 forward single #
loop $-1 $149 $150 $59 #
cone-surface $-1 -47.538123532147836 19.572806295080426 12.564744429774898 0.78801076186113728 0 -0.61566146476048833 0.30783073238024417 0 0.39400538093056864 1 I I 0 1 0.5 forward I I I I #
face $-1 $151 $152 $36 $-1 $153 reversed single #
loop $-1 $-1 $154 $60 #
plane-surface $-1 0 0 -15.413605766009285 0 0 1 1 0 0 forward_v I I I I #
coedge $-1 $155 $156 $157 $158 forward $61 $-1 #
face $-1 $159 $160 $37 $-1 $161 reversed single #
loop $-1 $-1 $162 $63 #
plane-surface $-1 0 -17.282431603050043 11.485904601287222 0 -1 0 0 0 -1 forward_v I I I I #
coedge $-1 $163 $164 $165 $166 reversed $64 $-1 #
face $-1 $167 $168 $38 $-1 $169 reversed single #
loop $-1 $-1 $170 $66 #
plane-surface $-1 1.5204579307546311 -6.6516328963949647 98.144861776971936 0.87461971476443456 0 0.48480960649040278 0.48480960649040278 0 -0.87461971476443456 forward_v I I I I #
coedge $-1 $171 $172 $173 $174 reversed $67 $-1 #
face $-1 $-1 $175 $39 $-1 $176 forward single #
loop $-1 $177 $178 $69 #
cone-surface $-1 46.775531497808089 -8.1911438724285475 11.9334989677737 -0.87461971476443456 0 -0.48480960649040278 0.12120240162260069 0 -0.21865492869110864 1 I I -0.70710678118654746 0.70710678118654746 0.25 forward I I I I #
loop $-1 $-1 $179 $51 #
coedge $-1 $112 $112 $180 $181 reversed $70 $-1 #
face $-1 $-1 $182 $40 $-1 $183 forward single #
loop $-1 $184 $185 $72 #
cone-surface $-1 46.775531497808089 -5.112121920361389 11.9334989677737 -0.87461971476443456 0 -0.48480960649040278 0.12120240162260069 0 -0.21865492869110864 1 I I -0.70710678118654746 0.70710678118654746 0.25 forward I I I I #
loop $-1 $-1 $186 $52 #
coedge $-1 $117 $117 $187 $188 reversed $73 $-1 #
face $-1 $189 $190 $41 $-1 $191 reversed single #
loop $-1 $-1 $192 $75 #
plane-surface $-1 1.5204579307546311 21.720011901587753 98.144861776971936 0.87461971476443456 0 0.48480960649040278 0.48480960649040278 0 -0.87461971476443456 forward_v I I I I #
coedge $-1 $193 $194 $195 $196 reversed $76 $-1 #
face $-1 $-1 $197 $42 $-1 $198 forward single #
loop $-1 $199 $200 $78 #
cone-surface $-1 46.775531497808089 20.180500925554171 11.9334989677737 -0.87461971476443456 0 -0.48480960649040278 0.12120240162260069 0 -0.21865492869110864 1 I I -0.70710678118654746 0.70710678118654746 0.25 forward I I I I #
loop $-1 $-1 $201 $54 #
coedge $-1 $126 $126 $202 $203 reversed $79 $-1 #
face $-1 $-1 $204 $43 $-1 $205 forward single #
loop $-1 $206 $207 $81 #
cone-surface $-1 46.775531497808089 23.259522877621329 11.9334989677737 -0.87461971476443456 0 -0.48480960649040278 0.12120240162260069 0 -0.21865492869110864 1 I I -0.70710678118654746 0.70710678118654746 0.25 forward I I I I #
loop $-1 $-1 $208 $55 #
coedge $-1 $131 $131 $209 $210 reversed $82 $-1 #
face $-1 $211 $212 $44 $-1 $213 reversed single #
loop $-1 $-1 $214 $84 #
plane-surface $-1 -50.046693319498274 17.317740187462995 10.850113502563744 -0.78801076186113728 0 0.61566146476048833 0.61566146476048833 0 0.78801076186113728 forward_v I I I I #
coedge $-1 $215 $216 $217 $218 reversed $85 $-1 #
face $-1 $-1 $219 $45 $-1 $220 forward single #
loop $-1 $221 $222 $87 #
cone-surface $-1 -46.61524646111841 15.062674079845564 11.843713859073164 0.78801076186113728 0 -0.61566146476048833 0.15391536619012208 0 0.19700269046528432 1 I I -0.70710678118654746 0.70710678118654746 0.25 forward I I I I #
loop $-1 $-1 $223 $57 #
coedge $-1 $140 $140 $224 $225 reversed $88 $-1 #
face $-1 $-1 $226 $46 $-1 $227 forward single #
loop $-1 $228 $229 $90 #
cone-surface $-1 -46.61524646111841 17.317740187462995 11.843713859073164 0.78801076186113728 0 -0.61566146476048833 0.15391536619012208 0 0.19700269046528432 1 I I -0.70710678118654746 0.70710678118654746 0.25 forward I I I I #
loop $-1 $-1 $230 $58 #
coedge $-1 $145 $145 $231 $232 reversed $91 $-1 #
face $-1 $-1 $233 $47 $-1 $234 forward single #
loop $-1 $235 $236 $93 #
cone-surface $-1 -46.61524646111841 19.572806295080426 11.843713859073164 0.78801076186113728 0 -0.61566146476048833 0.15391536619012208 0 0.19700269046528432 1 I I -0.70710678118654746 0.70710678118654746 0.25 forward I I I I #
loop $-1 $-1 $237 $59 #
coedge $-1 $150 $150 $238 $239 reversed $94 $-1 #
face $-1 $240 $241 $36 $-1 $242 reversed single #
loop $-1 $-1 $243 $96 #
plane-surface $-1 0 -32.350810608242831 0 0 1 0 0 0 1 forward_v I I I I #
coedge $-1 $244 $245 $246 $247 forward $97 $-1 #
coedge $-1 $248 $99 $249 $250 forward $61 $-1 #
coedge $-1 $99 $248 $251 $252 forward $61 $-1 #
coedge $-1 $253 $254 $99 $158 reversed $255 $-1 #
edge $-1 $256 -32.350810608242831 $257 32.350810608242831 $157 $258 forward 7 unknown #
face $-1 $259 $260 $37 $-1 $261 reversed single #
loop $-1 $-1 $262 $100 #
plane-surface $-1 -50.046693319498274 0 0 1 0 0 0 0 -1 forward_v I I I I #
coedge $-1 $263 $264 $265 $266 reversed $101 $-1 #
coedge $-1 $267 $103 $268 $269 reversed $64 $-1 #
coedge $-1 $103 $267 $263 $270 forward $64 $-1 #
coedge $-1 $265 $271 $103 $166 forward $272 $-1 #
edge $-1 $273 -19.942500055419615 $274 -4.8741210502268242 $165 $275 forward 7 unknown #
face $-1 $276 $277 $38 $-1 $278 reversed single #
loop $-1 $-1 $279 $104 #
plane-surface $-1 89.064107202760056 -10.24382517380665 146.67109716571559 0 1 0 0.87461971476443456 0 0.48480960649040278 forward_v I I I I #
coedge $-1 $280 $281 $282 $283 reversed $105 $-1 #
coedge $-1 $172 $107 $284 $285 reversed $67 $-1 #
coedge $-1 $107 $171 $280 $286 reversed $67 $-1 #
coedge $-1 $282 $287 $107 $174 forward $288 $-1 #
edge $-1 $289 -5.5146397181182465 $290 -2.847086673316845 $173 $291 forward 7 unknown #
loop $-1 $-1 $180 $108 #
plane-surface $-1 1.5204579307546311 -6.6516328963949647 98.144861776971936 0.87461971476443456 0 0.48480960649040278 0.48480960649040278 0 -0.87461971476443456 forward_v I I I I #
loop $-1 $-1 $292 $69 #
coedge $-1 $178 $178 $179 $293 reversed $109 $-1 #
coedge $-1 $179 $179 $178 $293 forward $111 $-1 #
coedge $-1 $180 $180 $112 $181 forward $175 $-1 #
edge $-1 $294 0 $294 6.2831853071796004 $180 $295 forward 7 unknown #
loop $-1 $-1 $187 $113 #
plane-surface $-1 1.5204579307546311 -6.6516328963949647 98.144861776971936 0.87461971476443456 0 0.48480960649040278 0.48480960649040278 0 -0.87461971476443456 forward_v I I I I #
loop $-1 $-1 $296 $72 #
coedge $-1 $185 $185 $186 $297 reversed $114 $-1 #
coedge $-1 $186 $186 $185 $297 forward $116 $-1 #
coedge $-1 $187 $187 $117 $188 forward $182 $-1 #
edge $-1 $298 0 $298 6.2831853071796004 $187 $299 forward 7 unknown #
face $-1 $300 $301 $41 $-1 $302 reversed single #
loop $-1 $-1 $303 $118 #
plane-surface $-1 89.064107202760056 18.12781962417607 146.67109716571559 0 1 0 0.87461971476443456 0 0.48480960649040278 forward_v I I I I #
coedge $-1 $304 $305 $306 $307 reversed $119 $-1 #
coedge $-1 $194 $121 $308 $309 reversed $76 $-1 #
coedge $-1 $121 $193 $304 $310 reversed $76 $-1 #
coedge $-1 $306 $311 $121 $196 forward $312 $-1 #
edge $-1 $313 -5.5146397181182465 $314 -2.847086673316845 $195 $315 forward 7 unknown #
loop $-1 $-1 $202 $122 #
plane-surface $-1 1.5204579307546311 21.720011901587753 98.144861776971936 0.87461971476443456 0 0.48480960649040278 0.48480960649040278 0 -0.87461971476443456 forward_v I I I I #
loop $-1 $-1 $316 $78 #
coedge $-1 $200 $200 $201 $317 reversed $123 $-1 #
coedge $-1 $201 $201 $200 $317 forward $125 $-1 #
coedge $-1 $202 $202 $126 $203 forward $197 $-1 #
edge $-1 $318 0 $318 6.2831853071796004 $202 $319 forward 7 unknown #
loop $-1 $-1 $209 $127 #
plane-surface $-1 1.5204579307546311 21.720011901587753 98.144861776971936 0.87461971476443456 0 0.48480960649040278 0.48480960649040278 0 -0.87461971476443456 forward_v I I I I #
loop $-1 $-1 $320 $81 #
coedge $-1 $207 $207 $208 $321 reversed $128 $-1 #
coedge $-1 $208 $208 $207 $321 forward $130 $-1 #
coedge $-1 $209 $209 $131 $210 forward $204 $-1 #
edge $-1 $322 0 $322 6.2831853071796004 $209 $323 forward 7 unknown #
face $-1 $324 $325 $44 $-1 $326 forward single #
loop $-1 $-1 $327 $132 #
plane-surface $-1 -128.92135918215533 21.076183700158719 72.47375453356625 0 -1 0 0.78801076186113728 0 -0.61566146476048833 forward_v I I I I #
coedge $-1 $328 $329 $330 $331 reversed $133 $-1 #
coedge $-1 $216 $135 $332 $333 reversed $85 $-1 #
coedge $-1 $135 $215 $328 $334 reversed $85 $-1 #
coedge $-1 $330 $335 $135 $218 forward $325 $-1 #
edge $-1 $336 14.41398627157939 $337 17.979377085151981 $217 $338 forward 7 unknown #
loop $-1 $-1 $224 $136 #
plane-surface $-1 -50.046693319498274 17.317740187462995 10.850113502563744 -0.78801076186113728 0 0.61566146476048833 0.61566146476048833 0 0.78801076186113728 forward_v I I I I #
loop $-1 $-1 $339 $87 #
coedge $-1 $222 $222 $223 $340 reversed $137 $-1 #
coedge $-1 $223 $223 $222 $340 forward $139 $-1 #
coedge $-1 $224 $224 $140 $225 forward $219 $-1 #
edge $-1 $341 0 $341 6.2831853071796004 $224 $342 forward 7 unknown #
loop $-1 $-1 $231 $141 #
plane-surface $-1 -50.046693319498274 17.317740187462995 10.850113502563744 -0.78801076186113728 0 0.61566146476048833 0.61566146476048833 0 0.78801076186113728 forward_v I I I I #
loop $-1 $-1 $343 $90 #
coedge $-1 $229 $229 $230 $344 reversed $142 $-1 #
coedge $-1 $230 $230 $229 $344 forward $144 $-1 #
coedge $-1 $231 $231 $145 $232 forward $226 $-1 #
edge $-1 $345 0 $345 6.2831853071796004 $231 $346 forward 7 unknown #
loop $-1 $-1 $238 $146 #
plane-surface $-1 -50.046693319498274 17.317740187462995 10.850113502563744 -0.78801076186113728 0 0.61566146476048833 0.61566146476048833 0 0.78801076186113728 forward_v I I I I #
loop $-1 $-1 $347 $93 #
coedge $-1 $236 $236 $237 $348 reversed $147 $-1 #
coedge $-1 $237 $237 $236 $348 forward $149 $-1 #
coedge $-1 $238 $238 $150 $239 forward $233 $-1 #
edge $-1 $349 0 $349 6.2831853071796004 $238 $350 forward 7 unknown #
face $-1 $351 $352 $36 $-1 $353 reversed single #
loop $-1 $-1 $354 $151 #
plane-surface $-1 -50.046693319498274 0 0 1 0 0 0 0 -1 forward_v I I I I #
coedge $-1 $355 $251 $356 $357 forward $152 $-1 #
coedge $-1 $358 $154 $355 $359 forward $97 $-1 #
coedge $-1 $154 $358 $360 $361 forward $97 $-1 #
coedge $-1 $254 $253 $154 $247 reversed $255 $-1 #
edge $-1 $362 -32.350810608242831 $363 32.350810608242831 $246 $364 forward 7 unknown #
coedge $-1 $156 $155 $365 $366 forward $61 $-1 #
coedge $-1 $367 $368 $155 $250 reversed $352 $-1 #
edge $-1 $257 -50.046693319498274 $369 50.046693319498274 $249 $370 forward 7 unknown #
coedge $-1 $243 $371 $156 $252 reversed $152 $-1 #
edge $-1 $372 -50.046693319498274 $256 50.046693319498274 $251 $373 forward 7 unknown #
coedge $-1 $246 $157 $371 $374 forward $255 $-1 #
coedge $-1 $157 $246 $367 $375 reversed $255 $-1 #
loop $-1 $-1 $253 $351 #
vertex $-1 $158 $376 #
vertex $-1 $158 $377 #
straight-curve $-1 50.046693319498274 0 15.413605766009285 0 1 0 I I #
face $-1 $378 $379 $37 $-1 $380 forward single #
loop $-1 $-1 $268 $159 #
plane-surface $-1 0 -32.350810608242831 0 0 1 0 0 0 1 forward_v I I I I #
coedge $-1 $381 $382 $383 $384 forward $160 $-1 #
coedge $-1 $383 $162 $164 $270 reversed $101 $-1 #
coedge $-1 $162 $383 $385 $386 reversed $101 $-1 #
coedge $-1 $387 $165 $162 $266 forward $272 $-1 #
edge $-1 $274 1.8152511359215522 $388 9.6706534653656711 $265 $389 forward 7 unknown #
coedge $-1 $164 $163 $381 $390 reversed $64 $-1 #
coedge $-1 $391 $392 $163 $269 forward $260 $-1 #
edge $-1 $393 -50.046693319498274 $273 50.046693319498274 $268 $394 forward 7 unknown #
edge $-1 $395 -50.046693319498274 $274 50.046693319498274 $263 $396 forward 7 unknown #
coedge $-1 $165 $387 $391 $397 forward $272 $-1 #
loop $-1 $-1 $265 $378 #
vertex $-1 $269 $398 #
vertex $-1 $166 $399 #
straight-curve $-1 50.046693319498274 -12.408310552823218 7.5582034365651634 0 1 0 I I #
face $-1 $-1 $288 $38 $-1 $400 forward single #
loop $-1 $-1 $401 $167 #
plane-surface $-1 50.046693319498274 0 0 -1 0 0 0 0 1 forward_v I I I I #
coedge $-1 $402 $403 $404 $405 reversed $168 $-1 #
coedge $-1 $406 $170 $172 $286 forward $105 $-1 #
coedge $-1 $170 $406 $402 $407 forward $105 $-1 #
coedge $-1 $404 $173 $170 $283 forward $288 $-1 #
edge $-1 $290 -0.26637582921420311 $408 6.9180087256091678 $282 $409 forward 7 unknown #
coedge $-1 $410 $411 $171 $285 forward $277 $-1 #
edge $-1 $412 -62.734336077891257 $289 -57.921942816848514 $284 $413 forward 7 unknown #
edge $-1 $290 94.591117275746583 $412 100.09338663899652 $172 $414 forward 7 unknown #
coedge $-1 $173 $404 $410 $415 forward $288 $-1 #
loop $-1 $-1 $404 $276 #
vertex $-1 $285 $416 #
vertex $-1 $174 $417 #
straight-curve $-1 44.532053601380028 -3.0594406189832792 15.413605766009283 -1 0 0 I I #
coedge $-1 $292 $292 $-1 $418 reversed $177 $-1 #
edge $-1 $419 0 $419 6.2831853071796004 $178 $420 forward 7 unknown #
vertex $-1 $181 $421 #
ellipse-curve $-1 48.71291679709757 -8.1911438724285475 13.007409135487906 0.87461971476443456 0 0.48480960649040278 0.24240480324520139 0 -0.43730985738221728 1 I I #
coedge $-1 $296 $296 $-1 $422 reversed $184 $-1 #
edge $-1 $423 0 $423 6.2831853071796004 $185 $424 forward 7 unknown #
vertex $-1 $188 $425 #
ellipse-curve $-1 48.71291679709757 -5.112121920361389 13.007409135487906 0.87461971476443456 0 0.48480960649040278 0.24240480324520139 0 -0.43730985738221728 1 I I #
face $-1 $-1 $312 $41 $-1 $426 forward single #
loop $-1 $-1 $427 $189 #
plane-surface $-1 50.046693319498274 0 0 -1 0 0 0 0 1 forward_v I I I I #
coedge $-1 $428 $429 $430 $431 reversed $190 $-1 #
coedge $-1 $432 $192 $194 $310 forward $119 $-1 #
coedge $-1 $192 $432 $428 $433 forward $119 $-1 #
coedge $-1 $430 $195 $192 $307 forward $312 $-1 #
edge $-1 $314 -14.45219822820556 $434 -7.267813673382193 $306 $435 forward 7 unknown #
coedge $-1 $436 $437 $193 $309 forward $301 $-1 #
edge $-1 $438 -62.734336077891257 $313 -57.921942816848514 $308 $439 forward 7 unknown #
edge $-1 $314 94.591117275746583 $438 100.09338663899652 $194 $440 forward 7 unknown #
coedge $-1 $195 $430 $436 $441 forward $312 $-1 #
loop $-1 $-1 $430 $300 #
vertex $-1 $309 $442 #
vertex $-1 $196 $443 #
straight-curve $-1 44.532053601380028 25.312204178999437 15.413605766009283 -1 0 0 I I #
coedge $-1 $316 $316 $-1 $444 reversed $199 $-1 #
edge $-1 $445 0 $445 6.2831853071796004 $200 $446 forward 7 unknown #
vertex $-1 $203 $447 #
ellipse-curve $-1 48.71291679709757 20.180500925554171 13.007409135487906 0.87461971476443456 0 0.48480960649040278 0.24240480324520139 0 -0.43730985738221728 1 I I #
coedge $-1 $320 $320 $-1 $448 reversed $206 $-1 #
edge $-1 $449 0 $449 6.2831853071796004 $207 $450 forward 7 unknown #
vertex $-1 $210 $451 #
ellipse-curve $-1 48.71291679709757 23.259522877621329 13.007409135487906 0.87461971476443456 0 0.48480960649040278 0.24240480324520139 0 -0.43730985738221728 1 I I #
face $-1 $-1 $452 $44 $-1 $453 reversed single #
loop $-1 $-1 $217 $211 #
plane-surface $-1 0 0 15.413605766009285 0 0 1 1 0 0 forward_v I I I I #
coedge $-1 $454 $455 $456 $457 reversed $212 $-1 #
coedge $-1 $458 $214 $216 $334 forward $133 $-1 #
coedge $-1 $214 $458 $454 $459 forward $133 $-1 #
coedge $-1 $456 $217 $214 $331 forward $325 $-1 #
edge $-1 $337 4.9004265810357737 $460 12.417313606427221 $330 $461 forward 7 unknown #
coedge $-1 $462 $463 $215 $333 forward $452 $-1 #
edge $-1 $464 -25.386763764219381 $336 -20.823271500773842 $332 $465 forward 7 unknown #
edge $-1 $337 -5.7911547459928165 $464 0 $216 $466 forward 7 unknown #
coedge $-1 $217 $456 $462 $467 forward $325 $-1 #
vertex $-1 $333 $468 #
vertex $-1 $218 $469 #
straight-curve $-1 -64.460679591077664 13.559296674767271 15.413605766009283 1 0 0 I I #
coedge $-1 $339 $339 $-1 $470 reversed $221 $-1 #
edge $-1 $471 0 $471 6.2831853071796004 $222 $472 forward 7 unknown #
vertex $-1 $225 $473 #
ellipse-curve $-1 -48.263997912711979 15.062674079845564 13.131859634286513 -0.78801076186113728 0 0.61566146476048833 0.30783073238024417 0 0.39400538093056864 1 I I #
coedge $-1 $343 $343 $-1 $474 reversed $228 $-1 #
edge $-1 $475 0 $475 6.2831853071796004 $229 $476 forward 7 unknown #
vertex $-1 $232 $477 #
ellipse-curve $-1 -48.263997912711979 17.317740187462995 13.131859634286513 -0.78801076186113728 0 0.61566146476048833 0.30783073238024417 0 0.39400538093056864 1 I I #
coedge $-1 $347 $347 $-1 $478 reversed $235 $-1 #
edge $-1 $479 0 $479 6.2831853071796004 $236 $480 forward 7 unknown #
vertex $-1 $239 $481 #
ellipse-curve $-1 -48.263997912711979 19.572806295080426 13.131859634286513 -0.78801076186113728 0 0.61566146476048833 0.30783073238024417 0 0.39400538093056864 1 I I #
face $-1 $-1 $255 $36 $-1 $482 reversed single #
loop $-1 $-1 $367 $240 #
plane-surface $-1 0 32.350810608242831 0 0 -1 0 0 0 -1 forward_v I I I I #
coedge $-1 $483 $365 $368 $484 forward $241 $-1 #
coedge $-1 $371 $243 $244 $359 reversed $152 $-1 #
coedge $-1 $365 $483 $243 $357 reversed $241 $-1 #
edge $-1 $372 -15.413605766009285 $485 15.413605766009285 $356 $486 forward 7 unknown #
coedge $-1 $245 $244 $483 $487 forward $97 $-1 #
edge $-1 $363 -50.046693319498274 $485 50.046693319498274 $355 $488 forward 7 unknown #
coedge $-1 $368 $367 $245 $361 reversed $352 $-1 #
edge $-1 $489 -50.046693319498274 $362 50.046693319498274 $360 $490 forward 7 unknown #
vertex $-1 $247 $491 #
vertex $-1 $374 $492 #
straight-curve $-1 50.046693319498274 0 -15.413605766009285 0 -1 0 I I #
coedge $-1 $354 $356 $248 $366 reversed $241 $-1 #
edge $-1 $369 -32.350810608242831 $372 32.350810608242831 $365 $493 forward 7 unknown #
coedge $-1 $360 $249 $254 $375 forward $352 $-1 #
coedge $-1 $249 $360 $354 $484 reversed $352 $-1 #
vertex $-1 $250 $494 #
straight-curve $-1 0 32.350810608242831 15.413605766009285 -1 0 0 I I #
coedge $-1 $251 $355 $253 $374 reversed $152 $-1 #
vertex $-1 $366 $495 #
straight-curve $-1 0 -32.350810608242831 15.413605766009285 1 0 0 I I #
edge $-1 $256 -15.413605766009285 $363 15.413605766009285 $253 $496 forward 7 unknown #
edge $-1 $257 -15.413605766009285 $362 15.413605766009285 $254 $497 forward 7 unknown #
point $-1 50.046693319498274 -32.350810608242831 15.413605766009285 #
point $-1 50.046693319498274 32.350810608242831 15.413605766009285 #
face $-1 $-1 $272 $37 $-1 $498 reversed single #
loop $-1 $-1 $385 $259 #
plane-surface $-1 0 0 15.413605766009285 0 0 1 1 0 0 forward_v I I I I #
coedge $-1 $499 $262 $267 $390 forward $160 $-1 #
coedge $-1 $262 $499 $500 $501 reversed $160 $-1 #
coedge $-1 $264 $263 $262 $384 reversed $101 $-1 #
edge $-1 $502 -9.6706534653656711 $395 -1.8152511359215522 $262 $503 forward 7 unknown #
coedge $-1 $500 $504 $264 $386 forward $379 $-1 #
edge $-1 $388 -50.046693319498274 $502 50.046693319498274 $385 $505 forward 7 unknown #
coedge $-1 $271 $265 $504 $506 reversed $272 $-1 #
vertex $-1 $266 $507 #
straight-curve $-1 50.046693319498274 -17.282431603050043 5.7429523006436112 0 0 1 I I #
edge $-1 $395 4.8741210502268242 $393 19.942500055419615 $381 $508 forward 7 unknown #
coedge $-1 $509 $268 $271 $397 reversed $260 $-1 #
coedge $-1 $268 $509 $499 $510 forward $260 $-1 #
vertex $-1 $269 $511 #
straight-curve $-1 0 -32.350810608242831 7.5582034365651634 1 0 0 I I #
vertex $-1 $390 $512 #
straight-curve $-1 0 -17.282431603050043 7.5582034365651634 1 0 0 I I #
edge $-1 $513 -15.413605766009285 $273 -7.5582034365651634 $271 $514 forward 7 unknown #
point $-1 50.046693319498274 -32.350810608242831 7.5582034365651634 #
point $-1 50.046693319498274 -17.282431603050043 7.5582034365651634 #
plane-surface $-1 0 0 15.413605766009285 0 0 1 1 0 0 forward_v I I I I #
coedge $-1 $411 $410 $403 $515 forward $277 $-1 #
coedge $-1 $403 $279 $281 $407 reversed $168 $-1 #
coedge $-1 $279 $402 $401 $515 reversed $168 $-1 #
coedge $-1 $287 $282 $279 $405 forward $288 $-1 #
edge $-1 $408 2.847086673316845 $516 5.5146397181182465 $404 $517 forward 7 unknown #
coedge $-1 $281 $280 $411 $518 reversed $105 $-1 #
edge $-1 $519 -100.09338663899652 $408 -94.591117275746583 $402 $520 forward 7 unknown #
vertex $-1 $283 $521 #
straight-curve $-1 47.379140274696866 -3.3258164481974823 15.41360576600929 0 -1 0 I I #
coedge $-1 $401 $284 $287 $415 reversed $277 $-1 #
coedge $-1 $284 $401 $406 $518 forward $277 $-1 #
vertex $-1 $285 $522 #
straight-curve $-1 50.046693319498274 -3.0594406189832792 73.335548582857797 0 0 1 I I #
straight-curve $-1 1.5204579307546311 -3.0594406189832792 98.144861776971936 0.48480960649040278 0 -0.87461971476443456 I I #
edge $-1 $516 -10.24382517380665 $289 -3.0594406189832792 $410 $523 forward 7 unknown #
point $-1 50.046693319498274 -3.0594406189832792 15.413605766009285 #
point $-1 47.379140274696873 -3.0594406189832792 15.413605766009283 #
edge $-1 $524 1 $524 0 $292 $-1 forward 7 unknown #
vertex $-1 $293 $525 #
ellipse-curve $-1 46.994186426499198 -8.1911438724285475 12.0547013693963 0.87461971476443456 0 0.48480960649040278 0.24240480324520139 0 -0.43730985738221728 1 I I #
point $-1 48.955321600342771 -8.1911438724285475 12.570099278105685 #
edge $-1 $526 1 $526 0 $296 $-1 forward 7 unknown #
vertex $-1 $297 $527 #
ellipse-curve $-1 46.994186426499198 -5.112121920361389 12.0547013693963 0.87461971476443456 0 0.48480960649040278 0.24240480324520139 0 -0.43730985738221728 1 I I #
point $-1 48.955321600342771 -5.112121920361389 12.570099278105685 #
plane-surface $-1 0 0 15.413605766009285 0 0 1 1 0 0 forward_v I I I I #
coedge $-1 $437 $436 $429 $528 forward $301 $-1 #
coedge $-1 $429 $303 $305 $433 reversed $190 $-1 #
coedge $-1 $303 $428 $427 $528 reversed $190 $-1 #
coedge $-1 $311 $306 $303 $431 forward $312 $-1 #
edge $-1 $434 2.847086673316845 $529 5.5146397181182465 $430 $530 forward 7 unknown #
coedge $-1 $305 $304 $437 $531 reversed $119 $-1 #
edge $-1 $532 -100.09338663899652 $434 -94.591117275746583 $428 $533 forward 7 unknown #
vertex $-1 $307 $534 #
straight-curve $-1 47.379140274696866 10.860005950793877 15.41360576600929 0 -1 0 I I #
coedge $-1 $427 $308 $311 $441 reversed $301 $-1 #
coedge $-1 $308 $427 $432 $531 forward $301 $-1 #
vertex $-1 $309 $535 #
straight-curve $-1 50.046693319498274 25.312204178999437 73.335548582857797 0 0 1 I I #
straight-curve $-1 1.5204579307546311 25.312204178999437 98.144861776971936 0.48480960649040278 0 -0.87461971476443456 I I #
edge $-1 $529 18.12781962417607 $313 25.312204178999437 $436 $536 forward 7 unknown #
point $-1 50.046693319498274 25.312204178999437 15.413605766009285 #
point $-1 47.379140274696873 25.312204178999437 15.413605766009283 #
edge $-1 $537 1 $537 0 $316 $-1 forward 7 unknown #
vertex $-1 $317 $538 #
ellipse-curve $-1 46.994186426499198 20.180500925554171 12.0547013693963 0.87461971476443456 0 0.48480960649040278 0.24240480324520139 0 -0.43730985738221728 1 I I #
point $-1 48.955321600342771 20.180500925554171 12.570099278105685 #
edge $-1 $539 1 $539 0 $320 $-1 forward 7 unknown #
vertex $-1 $321 $540 #
ellipse-curve $-1 46.994186426499198 23.259522877621329 12.0547013693963 0.87461971476443456 0 0.48480960649040278 0.24240480324520139 0 -0.43730985738221728 1 I I #
point $-1 48.955321600342771 23.259522877621329 12.570099278105685 #
loop $-1 $-1 $332 $324 #
plane-surface $-1 -50.046693319498274 0 0 1 0 0 0 0 -1 forward_v I I I I #
coedge $-1 $455 $327 $329 $459 reversed $212 $-1 #
coedge $-1 $327 $454 $541 $542 reversed $212 $-1 #
coedge $-1 $335 $330 $327 $457 forward $325 $-1 #
edge $-1 $460 -17.979377085151981 $543 -14.41398627157939 $456 $544 forward 7 unknown #
coedge $-1 $329 $328 $463 $545 reversed $133 $-1 #
edge $-1 $546 0 $460 5.7911547459928165 $454 $547 forward 7 unknown #
vertex $-1 $331 $548 #
straight-curve $-1 -46.481302505925683 8.6588700937314975 15.413605766009285 0 1 0 I I #
coedge $-1 $541 $332 $335 $467 reversed $452 $-1 #
coedge $-1 $332 $541 $458 $545 forward $452 $-1 #
vertex $-1 $333 $549 #
straight-curve $-1 -50.046693319498274 13.559296674767271 36.236877266783125 0 0 1 I I #
straight-curve $-1 -50.046693319498274 13.559296674767271 10.850113502563744 -0.61566146476048833 0 -0.78801076186113728 I I #
edge $-1 $543 -21.076183700158719 $336 -13.559296674767271 $462 $550 forward 7 unknown #
point $-1 -50.046693319498274 13.559296674767271 15.413605766009285 #
point $-1 -46.481302505925683 13.559296674767271 15.413605766009285 #
edge $-1 $551 1 $551 0 $339 $-1 forward 7 unknown #
vertex $-1 $340 $552 #
ellipse-curve $-1 -46.812249151583693 15.062674079845564 11.997629225263285 -0.78801076186113728 0 0.61566146476048833 0.30783073238024417 0 0.39400538093056864 1 I I #
point $-1 -47.956167180331732 15.062674079845564 13.525865015217079 #
edge $-1 $553 1 $553 0 $343 $-1 forward 7 unknown #
vertex $-1 $344 $554 #
ellipse-curve $-1 -46.812249151583693 17.317740187462995 11.997629225263285 -0.78801076186113728 0 0.61566146476048833 0.30783073238024417 0 0.39400538093056864 1 I I #
point $-1 -47.956167180331732 17.317740187462995 13.525865015217079 #
edge $-1 $555 1 $555 0 $347 $-1 forward 7 unknown #
vertex $-1 $348 $556 #
ellipse-curve $-1 -46.812249151583693 19.572806295080426 11.997629225263285 -0.78801076186113728 0 0.61566146476048833 0.30783073238024417 0 0.39400538093056864 1 I I #
point $-1 -47.956167180331732 19.572806295080426 13.525865015217079 #
plane-surface $-1 50.046693319498274 0 0 -1 0 0 0 0 1 forward_v I I I I #
coedge $-1 $356 $354 $358 $487 reversed $241 $-1 #
edge $-1 $369 -15.413605766009285 $489 15.413605766009285 $368 $557 forward 7 unknown #
vertex $-1 $487 $558 #
straight-curve $-1 -50.046693319498274 -32.350810608242831 0 0 0 -1 I I #
edge $-1 $485 -32.350810608242831 $489 32.350810608242831 $483 $559 forward 7 unknown #
straight-curve $-1 0 -32.350810608242831 -15.413605766009285 -1 0 0 I I #
vertex $-1 $361 $560 #
straight-curve $-1 0 32.350810608242831 -15.413605766009285 1 0 0 I I #
point $-1 50.046693319498274 32.350810608242831 -15.413605766009285 #
point $-1 50.046693319498274 -32.350810608242831 -15.413605766009285 #
straight-curve $-1 -50.046693319498274 0 15.413605766009285 0 -1 0 I I #
point $-1 -50.046693319498274 32.350810608242831 15.413605766009285 #
point $-1 -50.046693319498274 -32.350810608242831 15.413605766009285 #
straight-curve $-1 50.046693319498274 -32.350810608242831 0 0 0 -1 I I #
straight-curve $-1 50.046693319498274 32.350810608242831 0 0 0 -1 I I #
plane-surface $-1 50.046693319498274 0 0 -1 0 0 0 0 1 forward_v I I I I #
coedge $-1 $382 $381 $392 $510 reversed $160 $-1 #
coedge $-1 $561 $385 $382 $501 forward $379 $-1 #
edge $-1 $502 17.282431603050043 $562 32.350810608242831 $382 $563 forward 7 unknown #
vertex $-1 $501 $564 #
straight-curve $-1 -50.046693319498274 -17.282431603050043 5.7429523006436112 0 0 -1 I I #
coedge $-1 $385 $561 $387 $506 forward $379 $-1 #
straight-curve $-1 0 -17.282431603050043 15.413605766009285 -1 0 0 I I #
edge $-1 $513 -32.350810608242831 $388 -17.282431603050043 $387 $565 forward 7 unknown #
point $-1 50.046693319498274 -17.282431603050043 15.413605766009281 #
straight-curve $-1 -50.046693319498274 -12.408310552823218 7.5582034365651634 0 -1 0 I I #
coedge $-1 $392 $391 $561 $566 reversed $260 $-1 #
edge $-1 $562 -15.413605766009285 $393 -7.5582034365651634 $499 $567 forward 7 unknown #
point $-1 -50.046693319498274 -32.350810608242831 7.5582034365651634 #
point $-1 -50.046693319498274 -17.282431603050043 7.5582034365651634 #
vertex $-1 $506 $568 #
straight-curve $-1 50.046693319498274 -32.350810608242831 0 0 0 -1 I I #
edge $-1 $516 57.921942816848514 $519 62.734336077891257 $401 $569 forward 7 unknown #
vertex $-1 $415 $570 #
straight-curve $-1 44.532053601380028 -10.24382517380665 15.413605766009283 1 0 0 I I #
edge $-1 $519 -6.9180087256091678 $412 0.26637582921420311 $411 $571 forward 7 unknown #
vertex $-1 $518 $572 #
straight-curve $-1 1.5204579307546311 -10.24382517380665 98.144861776971936 -0.48480960649040278 0 0.87461971476443456 I I #
point $-1 47.379140274696873 -10.24382517380665 15.413605766009283 #
point $-1 50.046693319498274 -3.0594406189832792 10.60121250496654 #
straight-curve $-1 50.046693319498274 0 15.413605766009285 0 1 0 I I #
vertex $-1 $418 $573 #
point $-1 47.236591229744398 -8.1911438724285475 11.617391512014082 #
vertex $-1 $422 $574 #
point $-1 47.236591229744398 -5.112121920361389 11.617391512014082 #
edge $-1 $529 57.921942816848514 $532 62.734336077891257 $427 $575 forward 7 unknown #
vertex $-1 $441 $576 #
straight-curve $-1 44.532053601380028 18.12781962417607 15.413605766009283 1 0 0 I I #
edge $-1 $532 7.267813673382193 $438 14.45219822820556 $437 $577 forward 7 unknown #
vertex $-1 $531 $578 #
straight-curve $-1 1.5204579307546311 18.12781962417607 98.144861776971936 -0.48480960649040278 0 0.87461971476443456 I I #
point $-1 47.379140274696873 18.12781962417607 15.413605766009283 #
point $-1 50.046693319498274 25.312204178999437 10.60121250496654 #
straight-curve $-1 50.046693319498274 0 15.413605766009285 0 1 0 I I #
vertex $-1 $444 $579 #
point $-1 47.236591229744398 20.180500925554171 11.617391512014082 #
vertex $-1 $448 $580 #
point $-1 47.236591229744398 23.259522877621329 11.617391512014082 #
coedge $-1 $463 $462 $455 $542 forward $452 $-1 #
edge $-1 $543 20.823271500773842 $546 25.386763764219381 $541 $581 forward 7 unknown #
vertex $-1 $467 $582 #
straight-curve $-1 -64.460679591077664 21.076183700158719 15.413605766009283 -1 0 0 I I #
edge $-1 $546 -12.417313606427221 $464 -4.9004265810357737 $463 $583 forward 7 unknown #
vertex $-1 $545 $584 #
straight-curve $-1 -50.046693319498274 21.076183700158719 10.850113502563744 0.61566146476048833 0 0.78801076186113728 I I #
point $-1 -46.481302505925683 21.076183700158719 15.413605766009285 #
point $-1 -50.046693319498274 13.559296674767271 10.850113502563744 #
straight-curve $-1 -50.046693319498274 0 15.413605766009285 0 -1 0 I I #
vertex $-1 $470 $585 #
point $-1 -46.504418419203454 15.062674079845564 12.391634606193854 #
vertex $-1 $474 $586 #
point $-1 -46.504418419203454 17.317740187462995 12.391634606193854 #
vertex $-1 $478 $587 #
point $-1 -46.504418419203454 19.572806295080426 12.391634606193854 #
straight-curve $-1 -50.046693319498274 32.350810608242831 0 0 0 -1 I I #
point $-1 -50.046693319498274 -32.350810608242831 -15.413605766009285 #
straight-curve $-1 -50.046693319498274 0 -15.413605766009285 0 1 0 I I #
point $-1 -50.046693319498274 32.350810608242831 -15.413605766009285 #
coedge $-1 $504 $500 $509 $566 forward $379 $-1 #
vertex $-1 $501 $588 #
straight-curve $-1 -50.046693319498274 0 15.413605766009285 0 -1 0 I I #
point $-1 -50.046693319498274 -17.282431603050043 15.413605766009281 #
straight-curve $-1 50.046693319498274 0 15.413605766009285 0 1 0 I I #
edge $-1 $562 -50.046693319498274 $513 50.046693319498274 $509 $589 forward 7 unknown #
straight-curve $-1 -50.046693319498274 -32.350810608242831 0 0 0 -1 I I #
point $-1 50.046693319498274 -32.350810608242831 15.413605766009285 #
straight-curve $-1 50.046693319498274 -10.24382517380665 73.335548582857797 0 0 -1 I I #
point $-1 50.046693319498274 -10.24382517380665 15.413605766009285 #
straight-curve $-1 50.046693319498274 -3.3258164481974823 10.60121250496654 0 1 0 I I #
point $-1 50.046693319498274 -10.24382517380665 10.60121250496654 #
point $-1 46.55687656911698 -8.1911438724285475 11.812296566151099 #
point $-1 46.55687656911698 -5.112121920361389 11.812296566151099 #
straight-curve $-1 50.046693319498274 18.12781962417607 73.335548582857797 0 0 -1 I I #
point $-1 50.046693319498274 18.12781962417607 15.413605766009285 #
straight-curve $-1 50.046693319498274 10.860005950793877 10.60121250496654 0 1 0 I I #
point $-1 50.046693319498274 18.12781962417607 10.60121250496654 #
point $-1 46.55687656911698 20.180500925554171 11.812296566151099 #
point $-1 46.55687656911698 23.259522877621329 11.812296566151099 #
straight-curve $-1 -50.046693319498274 21.076183700158719 36.236877266783125 0 0 -1 I I #
point $-1 -50.046693319498274 21.076183700158719 15.413605766009285 #
straight-curve $-1 -50.046693319498274 8.6588700937314975 10.850113502563742 0 -1 0 I I #
point $-1 -50.046693319498274 21.076183700158719 10.850113502563744 #
point $-1 -46.418243770653127 15.062674079845564 11.689798492883043 #
point $-1 -46.418243770653127 17.317740187462995 11.689798492883043 #
point $-1 -46.418243770653127 19.572806295080426 11.689798492883043 #
point $-1 -50.046693319498274 -32.350810608242831 15.413605766009285 #
straight-curve $-1 0 -32.350810608242831 15.413605766009285 1 0 0 I I #
End-of-ACIS-data 