500 0 9 0           
7 Unknown 11 ACIS 5.0 NT 24 Fri Mar 26 14:45:17 1999 
-1 9.9999999999999995e-007 1e-010 
body $-1 $9 $-1 $10 #
body $-1 $11 $-1 $12 #
body $-1 $13 $-1 $14 #
body $-1 $15 $-1 $16 #
body $-1 $17 $-1 $18 #
body $-1 $19 $-1 $20 #
body $-1 $21 $-1 $22 #
body $-1 $23 $-1 $24 #
body $-1 $25 $-1 $26 #
lump $-1 $-1 $27 $0 #
transform $-1 1 0 0 0 1 0 0 0 1 64.416028321176796 37.190146811559138 13.860471598338577 1 rotate no_reflect no_shear #
lump $-1 $-1 $28 $1 #
transform $-1 1 0 0 0 1 0 0 0 1 64.416028321176796 37.190146811559138 13.860471598338577 1 rotate no_reflect no_shear #
lump $-1 $-1 $29 $2 #
transform $-1 1 0 0 0 1 0 0 0 1 64.416028321176796 37.190146811559138 13.860471598338577 1 rotate no_reflect no_shear #
lump $-1 $-1 $30 $3 #
transform $-1 1 0 0 0 1 0 0 0 1 64.416028321176796 37.190146811559138 13.860471598338577 1 rotate no_reflect no_shear #
lump $-1 $-1 $31 $4 #
transform $-1 1 0 0 0 1 0 0 0 1 64.416028321176796 37.190146811559138 13.860471598338577 1 rotate no_reflect no_shear #
lump $-1 $-1 $32 $5 #
transform $-1 1 0 0 0 1 0 0 0 1 64.416028321176796 37.190146811559138 13.860471598338577 1 rotate no_reflect no_shear #
lump $-1 $-1 $33 $6 #
transform $-1 1 0 0 0 1 0 0 0 1 64.416028321176796 37.190146811559138 13.860471598338577 1 rotate no_reflect no_shear #
lump $-1 $-1 $34 $7 #
transform $-1 1 0 0 0 1 0 0 0 1 64.416028321176796 37.190146811559138 13.860471598338577 1 rotate no_reflect no_shear #
lump $-1 $-1 $35 $8 #
transform $-1 1 0 0 0 1 0 0 0 1 64.416028321176796 37.190146811559138 13.860471598338577 1 rotate no_reflect no_shear #
shell $-1 $-1 $-1 $36 $-1 $9 #
shell $-1 $-1 $-1 $37 $-1 $11 #
shell $-1 $-1 $-1 $38 $-1 $13 #
shell $-1 $-1 $-1 $39 $-1 $15 #
shell $-1 $-1 $-1 $40 $-1 $17 #
shell $-1 $-1 $-1 $41 $-1 $19 #
shell $-1 $-1 $-1 $42 $-1 $21 #
shell $-1 $-1 $-1 $43 $-1 $23 #
shell $-1 $-1 $-1 $44 $-1 $25 #
face $-1 $45 $46 $27 $-1 $47 forward single #
face $-1 $48 $49 $28 $-1 $50 reversed single #
face $-1 $51 $52 $29 $-1 $53 reversed single #
face $-1 $54 $55 $30 $-1 $56 forward single #
face $-1 $57 $58 $31 $-1 $59 forward single #
face $-1 $60 $61 $32 $-1 $62 reversed single #
face $-1 $63 $64 $33 $-1 $65 forward single #
face $-1 $66 $67 $34 $-1 $68 forward single #
face $-1 $69 $70 $35 $-1 $71 forward single #
face $-1 $72 $73 $27 $-1 $74 reversed single #
loop $-1 $-1 $75 $36 #
plane-surface $-1 0 0 13.860471598338577 0 0 1 1 0 0 forward_v I I I I #
face $-1 $76 $77 $28 $-1 $78 reversed single #
loop $-1 $-1 $79 $37 #
plane-surface $-1 0 -28.063174102879554 9.63376166746548 0 0 1 1 0 0 forward_v I I I I #
face $-1 $80 $81 $29 $-1 $82 reversed single #
loop $-1 $-1 $83 $38 #
plane-surface $-1 51.706676838363848 -8.5239071493973331 186.77295650658567 0 -1 0 -0.6560590369687036 0 -0.75470957328743171 forward_v I I I I #
face $-1 $84 $85 $30 $-1 $86 forward single #
loop $-1 $87 $88 $39 #
cone-surface $-1 58.970125453786402 -15.961260181399215 9.0248301173436154 -0.6560590369687036 0 -0.75470957328743171 0.75470957328743171 0 -0.6560590369687036 1 I I 0 1 1 forward I I I I #
face $-1 $89 $90 $31 $-1 $91 forward single #
loop $-1 $92 $93 $40 #
cone-surface $-1 58.970125453786402 -11.498848362198085 9.0248301173436154 -0.6560590369687036 0 -0.75470957328743171 0.75470957328743171 0 -0.6560590369687036 1 I I 0 1 1 forward I I I I #
face $-1 $94 $95 $32 $-1 $96 reversed single #
loop $-1 $-1 $97 $41 #
plane-surface $-1 -64.416028321176768 -12.676098079065248 2.9187082398440225 -0.86602541151947299 0 0.49999998660252726 0.49999998660252726 0 0.86602541151947299 forward_v I I I I #
face $-1 $98 $99 $33 $-1 $100 forward single #
loop $-1 $101 $102 $42 #
cone-surface $-1 -59.616624716491884 -16.432160068146082 7.4422801510847316 0.86602541151947299 0 -0.49999998660252726 0.49999998660252726 0 0.86602541151947299 1 I I 0 1 1 forward I I I I #
face $-1 $103 $104 $34 $-1 $105 forward single #
loop $-1 $106 $107 $43 #
cone-surface $-1 -59.616624716491884 -12.676098079065252 7.4422801510847316 0.86602541151947299 0 -0.49999998660252726 0.49999998660252726 0 0.86602541151947299 1 I I 0 1 1 forward I I I I #
face $-1 $108 $109 $35 $-1 $110 forward single #
loop $-1 $111 $112 $44 #
cone-surface $-1 -59.616624716491884 -8.9200360899844213 7.4422801510847316 0.86602541151947299 0 -0.49999998660252726 0.49999998660252726 0 0.86602541151947299 1 I I 0 1 1 forward I I I I #
face $-1 $113 $114 $27 $-1 $115 reversed single #
loop $-1 $-1 $116 $45 #
plane-surface $-1 0 0 -13.860471598338577 0 0 1 1 0 0 forward_v I I I I #
coedge $-1 $117 $118 $119 $120 forward $46 $-1 #
face $-1 $121 $122 $28 $-1 $123 reversed single #
loop $-1 $-1 $124 $48 #
plane-surface $-1 0 -18.936201394199969 11.747116632902028 0 -1 0 0 0 -1 forward_v I I I I #
coedge $-1 $125 $126 $127 $128 reversed $49 $-1 #
face $-1 $129 $130 $29 $-1 $131 forward single #
loop $-1 $-1 $132 $51 #
plane-surface $-1 -32.814758173116118 -13.73005427179865 89.542170012292758 0.6560590369687036 0 0.75470957328743171 0.75470957328743171 0 -0.6560590369687036 forward_v I I I I #
coedge $-1 $133 $134 $135 $136 reversed $52 $-1 #
face $-1 $-1 $137 $30 $-1 $138 forward single #
loop $-1 $139 $140 $54 #
cone-surface $-1 58.280669814331546 -15.961260181399215 8.2317021484678321 -0.6560590369687036 0 -0.75470957328743171 0.37735478664371586 0 -0.3280295184843518 1 I I -0.70710678118654746 0.70710678118654746 0.5 forward I I I I #
loop $-1 $-1 $141 $39 #
coedge $-1 $88 $88 $142 $143 reversed $55 $-1 #
face $-1 $-1 $144 $31 $-1 $145 forward single #
loop $-1 $146 $147 $57 #
cone-surface $-1 58.280669814331546 -11.498848362198085 8.2317021484678321 -0.6560590369687036 0 -0.75470957328743171 0.37735478664371586 0 -0.3280295184843518 1 I I -0.70710678118654746 0.70710678118654746 0.5 forward I I I I #
loop $-1 $-1 $148 $40 #
coedge $-1 $93 $93 $149 $150 reversed $58 $-1 #
face $-1 $151 $152 $32 $-1 $153 forward single #
loop $-1 $-1 $154 $60 #
plane-surface $-1 -175.98786319177111 -6.4159947639305273 67.334734834996866 0 -1 0 0.86602541151947299 0 -0.49999998660252726 forward_v I I I I #
coedge $-1 $155 $156 $157 $158 reversed $61 $-1 #
face $-1 $-1 $159 $33 $-1 $160 forward single #
loop $-1 $161 $162 $63 #
cone-surface $-1 -57.542823303418679 -16.432160068146082 6.244970389776892 0.86602541151947299 0 -0.49999998660252726 0.24999999330126363 0 0.43301270575973649 1 I I -0.70710678118654746 0.70710678118654746 0.5 forward I I I I #
loop $-1 $-1 $163 $42 #
coedge $-1 $102 $102 $164 $165 reversed $64 $-1 #
face $-1 $-1 $166 $34 $-1 $167 forward single #
loop $-1 $168 $169 $66 #
cone-surface $-1 -57.542823303418679 -12.676098079065252 6.244970389776892 0.86602541151947299 0 -0.49999998660252726 0.24999999330126363 0 0.43301270575973649 1 I I -0.70710678118654746 0.70710678118654746 0.5 forward I I I I #
loop $-1 $-1 $170 $43 #
coedge $-1 $107 $107 $171 $172 reversed $67 $-1 #
face $-1 $-1 $173 $35 $-1 $174 forward single #
loop $-1 $175 $176 $69 #
cone-surface $-1 -57.542823303418679 -8.9200360899844213 6.244970389776892 0.86602541151947299 0 -0.49999998660252726 0.24999999330126363 0 0.43301270575973649 1 I I -0.70710678118654746 0.70710678118654746 0.5 forward I I I I #
loop $-1 $-1 $177 $44 #
coedge $-1 $112 $112 $178 $179 reversed $70 $-1 #
face $-1 $180 $181 $27 $-1 $182 reversed single #
loop $-1 $-1 $183 $72 #
plane-surface $-1 0 -37.190146811559138 0 0 1 0 0 0 1 forward_v I I I I #
coedge $-1 $184 $185 $186 $187 forward $73 $-1 #
coedge $-1 $188 $75 $189 $190 forward $46 $-1 #
coedge $-1 $75 $188 $191 $192 forward $46 $-1 #
coedge $-1 $193 $194 $75 $120 reversed $195 $-1 #
edge $-1 $196 -37.190146811559138 $197 37.190146811559138 $119 $198 forward 7 unknown #
face $-1 $199 $200 $28 $-1 $201 reversed single #
loop $-1 $-1 $202 $76 #
plane-surface $-1 -64.416028321176796 0 0 1 0 0 0 0 -1 forward_v I I I I #
coedge $-1 $203 $204 $205 $206 reversed $77 $-1 #
coedge $-1 $207 $79 $208 $209 reversed $49 $-1 #
coedge $-1 $79 $207 $203 $210 forward $49 $-1 #
coedge $-1 $205 $211 $79 $128 forward $212 $-1 #
edge $-1 $213 -23.15855976011936 $214 -4.9046143427601923 $127 $215 forward 7 unknown #
face $-1 $216 $217 $29 $-1 $218 forward single #
loop $-1 $-1 $219 $80 #
plane-surface $-1 0 -18.936201394199969 11.747116632902028 0 -1 0 0 0 -1 forward_v I I I I #
coedge $-1 $220 $221 $222 $223 reversed $81 $-1 #
coedge $-1 $134 $83 $224 $225 reversed $52 $-1 #
coedge $-1 $83 $133 $220 $226 reversed $52 $-1 #
coedge $-1 $222 $227 $83 $136 forward $217 $-1 #
edge $-1 $228 -38.562689901994872 $229 -28.39373640915511 $135 $230 forward 7 unknown #
loop $-1 $-1 $142 $84 #
plane-surface $-1 -32.814758173116118 -13.73005427179865 89.542170012292758 0.6560590369687036 0 0.75470957328743171 0.75470957328743171 0 -0.6560590369687036 forward_v I I I I #
loop $-1 $-1 $231 $54 #
coedge $-1 $140 $140 $141 $232 reversed $85 $-1 #
coedge $-1 $141 $141 $140 $232 forward $87 $-1 #
coedge $-1 $142 $142 $88 $143 forward $137 $-1 #
edge $-1 $233 0 $233 6.2831853071796004 $142 $234 forward 7 unknown #
loop $-1 $-1 $149 $89 #
plane-surface $-1 -32.814758173116118 -13.73005427179865 89.542170012292758 0.6560590369687036 0 0.75470957328743171 0.75470957328743171 0 -0.6560590369687036 forward_v I I I I #
loop $-1 $-1 $235 $57 #
coedge $-1 $147 $147 $148 $236 reversed $90 $-1 #
coedge $-1 $148 $148 $147 $236 forward $92 $-1 #
coedge $-1 $149 $149 $93 $150 forward $144 $-1 #
edge $-1 $237 0 $237 6.2831853071796004 $149 $238 forward 7 unknown #
face $-1 $239 $240 $32 $-1 $241 reversed single #
loop $-1 $-1 $157 $94 #
plane-surface $-1 0 0 13.860471598338577 0 0 1 1 0 0 forward_v I I I I #
coedge $-1 $242 $243 $244 $245 reversed $95 $-1 #
coedge $-1 $246 $97 $247 $248 reversed $61 $-1 #
coedge $-1 $97 $246 $242 $249 forward $61 $-1 #
coedge $-1 $244 $250 $97 $158 forward $152 $-1 #
edge $-1 $251 -12.598152354667345 $252 -0.077945724397903149 $157 $253 forward 7 unknown #
loop $-1 $-1 $164 $98 #
plane-surface $-1 -64.416028321176768 -12.676098079065248 2.9187082398440225 -0.86602541151947299 0 0.49999998660252726 0.49999998660252726 0 0.86602541151947299 forward_v I I I I #
loop $-1 $-1 $254 $63 #
coedge $-1 $162 $162 $163 $255 reversed $99 $-1 #
coedge $-1 $163 $163 $162 $255 forward $101 $-1 #
coedge $-1 $164 $164 $102 $165 forward $159 $-1 #
edge $-1 $256 0 $256 6.2831853071796004 $164 $257 forward 7 unknown #
loop $-1 $-1 $171 $103 #
plane-surface $-1 -64.416028321176768 -12.676098079065248 2.9187082398440225 -0.86602541151947299 0 0.49999998660252726 0.49999998660252726 0 0.86602541151947299 forward_v I I I I #
loop $-1 $-1 $258 $66 #
coedge $-1 $169 $169 $170 $259 reversed $104 $-1 #
coedge $-1 $170 $170 $169 $259 forward $106 $-1 #
coedge $-1 $171 $171 $107 $172 forward $166 $-1 #
edge $-1 $260 0 $260 6.2831853071796004 $171 $261 forward 7 unknown #
loop $-1 $-1 $178 $108 #
plane-surface $-1 -64.416028321176768 -12.676098079065248 2.9187082398440225 -0.86602541151947299 0 0.49999998660252726 0.49999998660252726 0 0.86602541151947299 forward_v I I I I #
loop $-1 $-1 $262 $69 #
coedge $-1 $176 $176 $177 $263 reversed $109 $-1 #
coedge $-1 $177 $177 $176 $263 forward $111 $-1 #
coedge $-1 $178 $178 $112 $179 forward $173 $-1 #
edge $-1 $264 0 $264 6.2831853071796004 $178 $265 forward 7 unknown #
face $-1 $266 $267 $27 $-1 $268 reversed single #
loop $-1 $-1 $269 $113 #
plane-surface $-1 -64.416028321176796 0 0 1 0 0 0 0 -1 forward_v I I I I #
coedge $-1 $270 $191 $271 $272 forward $114 $-1 #
coedge $-1 $273 $116 $270 $274 forward $73 $-1 #
coedge $-1 $116 $273 $275 $276 forward $73 $-1 #
coedge $-1 $194 $193 $116 $187 reversed $195 $-1 #
edge $-1 $277 -37.190146811559138 $278 37.190146811559138 $186 $279 forward 7 unknown #
coedge $-1 $118 $117 $280 $281 forward $46 $-1 #
coedge $-1 $282 $283 $117 $190 reversed $267 $-1 #
edge $-1 $197 -64.416028321176796 $284 64.416028321176796 $189 $285 forward 7 unknown #
coedge $-1 $183 $286 $118 $192 reversed $114 $-1 #
edge $-1 $287 -64.416028321176796 $196 64.416028321176796 $191 $288 forward 7 unknown #
coedge $-1 $186 $119 $286 $289 forward $195 $-1 #
coedge $-1 $119 $186 $282 $290 reversed $195 $-1 #
loop $-1 $-1 $193 $266 #
vertex $-1 $120 $291 #
vertex $-1 $120 $292 #
straight-curve $-1 64.416028321176796 0 13.860471598338577 0 1 0 I I #
face $-1 $293 $294 $28 $-1 $295 forward single #
loop $-1 $-1 $208 $121 #
plane-surface $-1 0 -37.190146811559138 0 0 1 0 0 0 1 forward_v I I I I #
coedge $-1 $296 $297 $298 $299 forward $122 $-1 #
coedge $-1 $298 $124 $126 $210 reversed $77 $-1 #
coedge $-1 $124 $298 $300 $301 reversed $77 $-1 #
coedge $-1 $302 $127 $124 $206 forward $212 $-1 #
edge $-1 $214 3.7602033510144661 $303 7.9869132818875617 $205 $304 forward 7 unknown #
coedge $-1 $126 $125 $296 $305 reversed $49 $-1 #
coedge $-1 $306 $307 $125 $209 forward $200 $-1 #
edge $-1 $308 -64.416028321176796 $213 64.416028321176796 $208 $309 forward 7 unknown #
edge $-1 $310 -64.416028321176796 $214 64.416028321176796 $203 $311 forward 7 unknown #
coedge $-1 $127 $302 $306 $312 forward $212 $-1 #
loop $-1 $-1 $205 $293 #
vertex $-1 $209 $313 #
vertex $-1 $128 $314 #
straight-curve $-1 64.416028321176796 -14.031587051439777 9.63376166746548 0 1 0 I I #
face $-1 $-1 $315 $29 $-1 $316 reversed single #
loop $-1 $-1 $222 $129 #
plane-surface $-1 0 0 13.860471598338577 0 0 1 1 0 0 forward_v I I I I #
coedge $-1 $317 $318 $221 $319 reversed $130 $-1 #
coedge $-1 $320 $132 $134 $226 forward $81 $-1 #
coedge $-1 $132 $320 $219 $319 forward $81 $-1 #
coedge $-1 $321 $135 $132 $223 forward $217 $-1 #
edge $-1 $229 1.658880013498008 $322 12.071174258300644 $222 $323 forward 7 unknown #
coedge $-1 $324 $325 $133 $225 forward $315 $-1 #
edge $-1 $326 -88.365743252480044 $228 -79.526006654954259 $224 $327 forward 7 unknown #
edge $-1 $229 115.35806101176298 $326 128.83205664235359 $134 $328 forward 7 unknown #
coedge $-1 $135 $321 $324 $329 forward $217 $-1 #
vertex $-1 $225 $330 #
vertex $-1 $136 $331 #
straight-curve $-1 25.853338419181924 -8.5239071493973331 13.860471598338577 -1 0 0 I I #
coedge $-1 $231 $231 $-1 $332 reversed $139 $-1 #
edge $-1 $333 0 $333 6.2831853071796004 $140 $334 forward 7 unknown #
vertex $-1 $143 $335 #
ellipse-curve $-1 59.331551574756915 -15.961260181399215 9.4406032995756899 0.6560590369687036 0 0.75470957328743171 0.75470957328743171 0 -0.6560590369687036 1 I I #
coedge $-1 $235 $235 $-1 $336 reversed $146 $-1 #
edge $-1 $337 0 $337 6.2831853071796004 $147 $338 forward 7 unknown #
vertex $-1 $150 $339 #
ellipse-curve $-1 59.331551574756915 -11.498848362198085 9.4406032995756899 0.6560590369687036 0 0.75470957328743171 0.75470957328743171 0 -0.6560590369687036 1 I I #
face $-1 $-1 $340 $32 $-1 $341 forward single #
loop $-1 $-1 $342 $151 #
plane-surface $-1 -64.416028321176796 0 0 1 0 0 0 0 -1 forward_v I I I I #
coedge $-1 $243 $154 $156 $249 reversed $95 $-1 #
coedge $-1 $154 $242 $342 $343 reversed $95 $-1 #
coedge $-1 $344 $157 $154 $245 forward $152 $-1 #
edge $-1 $252 -29.895133069451695 $345 -23.57790327470876 $244 $346 forward 7 unknown #
coedge $-1 $156 $155 $347 $348 reversed $61 $-1 #
coedge $-1 $349 $350 $155 $248 forward $340 $-1 #
edge $-1 $351 -19.926819654618271 $251 -7.2923597265927356 $247 $352 forward 7 unknown #
edge $-1 $353 -5.6900626353428066e-014 $252 12.634459928025477 $242 $354 forward 7 unknown #
coedge $-1 $157 $344 $349 $355 forward $152 $-1 #
vertex $-1 $248 $356 #
vertex $-1 $158 $357 #
straight-curve $-1 -58.09879852643386 -6.3380490395326241 13.860471598338577 0 1 0 I I #
coedge $-1 $254 $254 $-1 $358 reversed $161 $-1 #
edge $-1 $359 0 $359 6.2831853071796004 $162 $360 forward 7 unknown #
vertex $-1 $165 $361 #
ellipse-curve $-1 -61.257413423805318 -16.432160068146082 8.3895899190912893 -0.86602541151947299 0 0.49999998660252726 0.49999998660252726 0 0.86602541151947299 1 I I #
coedge $-1 $258 $258 $-1 $362 reversed $168 $-1 #
edge $-1 $363 0 $363 6.2831853071796004 $169 $364 forward 7 unknown #
vertex $-1 $172 $365 #
ellipse-curve $-1 -61.257413423805318 -12.676098079065252 8.3895899190912893 -0.86602541151947299 0 0.49999998660252726 0.49999998660252726 0 0.86602541151947299 1 I I #
coedge $-1 $262 $262 $-1 $366 reversed $175 $-1 #
edge $-1 $367 0 $367 6.2831853071796004 $176 $368 forward 7 unknown #
vertex $-1 $179 $369 #
ellipse-curve $-1 -61.257413423805318 -8.9200360899844213 8.3895899190912893 -0.86602541151947299 0 0.49999998660252726 0.49999998660252726 0 0.86602541151947299 1 I I #
face $-1 $-1 $195 $27 $-1 $370 reversed single #
loop $-1 $-1 $282 $180 #
plane-surface $-1 0 37.190146811559138 0 0 -1 0 0 0 -1 forward_v I I I I #
coedge $-1 $371 $280 $283 $372 forward $181 $-1 #
coedge $-1 $286 $183 $184 $274 reversed $114 $-1 #
coedge $-1 $280 $371 $183 $272 reversed $181 $-1 #
edge $-1 $287 -13.860471598338577 $373 13.860471598338577 $271 $374 forward 7 unknown #
coedge $-1 $185 $184 $371 $375 forward $73 $-1 #
edge $-1 $278 -64.416028321176796 $373 64.416028321176796 $270 $376 forward 7 unknown #
coedge $-1 $283 $282 $185 $276 reversed $267 $-1 #
edge $-1 $377 -64.416028321176796 $277 64.416028321176796 $275 $378 forward 7 unknown #
vertex $-1 $187 $379 #
vertex $-1 $289 $380 #
straight-curve $-1 64.416028321176796 0 -13.860471598338577 0 -1 0 I I #
coedge $-1 $269 $271 $188 $281 reversed $181 $-1 #
edge $-1 $284 -37.190146811559138 $287 37.190146811559138 $280 $381 forward 7 unknown #
coedge $-1 $275 $189 $194 $290 forward $267 $-1 #
coedge $-1 $189 $275 $269 $372 reversed $267 $-1 #
vertex $-1 $190 $382 #
straight-curve $-1 0 37.190146811559138 13.860471598338577 -1 0 0 I I #
coedge $-1 $191 $270 $193 $289 reversed $114 $-1 #
vertex $-1 $281 $383 #
straight-curve $-1 0 -37.190146811559138 13.860471598338577 1 0 0 I I #
edge $-1 $196 -13.860471598338577 $278 13.860471598338577 $193 $384 forward 7 unknown #
edge $-1 $197 -13.860471598338577 $277 13.860471598338577 $194 $385 forward 7 unknown #
point $-1 64.416028321176796 -37.190146811559138 13.860471598338577 #
point $-1 64.416028321176796 37.190146811559138 13.860471598338577 #
face $-1 $-1 $212 $28 $-1 $386 reversed single #
loop $-1 $-1 $300 $199 #
plane-surface $-1 0 0 13.860471598338577 0 0 1 1 0 0 forward_v I I I I #
coedge $-1 $387 $202 $207 $305 forward $122 $-1 #
coedge $-1 $202 $387 $388 $389 reversed $122 $-1 #
coedge $-1 $204 $203 $202 $299 reversed $77 $-1 #
edge $-1 $390 -7.9869132818875617 $310 -3.7602033510144661 $202 $391 forward 7 unknown #
coedge $-1 $388 $392 $204 $301 forward $294 $-1 #
edge $-1 $303 -64.416028321176796 $390 64.416028321176796 $300 $393 forward 7 unknown #
coedge $-1 $211 $205 $392 $394 reversed $212 $-1 #
vertex $-1 $206 $395 #
straight-curve $-1 64.416028321176796 -18.936201394199969 5.8735583164510139 0 0 1 I I #
edge $-1 $310 4.9046143427601923 $308 23.15855976011936 $296 $396 forward 7 unknown #
coedge $-1 $397 $208 $211 $312 reversed $200 $-1 #
coedge $-1 $208 $397 $387 $398 forward $200 $-1 #
vertex $-1 $209 $399 #
straight-curve $-1 0 -37.190146811559138 9.63376166746548 1 0 0 I I #
vertex $-1 $305 $400 #
straight-curve $-1 0 -18.936201394199969 9.63376166746548 1 0 0 I I #
edge $-1 $401 -13.860471598338577 $213 -9.63376166746548 $211 $402 forward 7 unknown #
point $-1 64.416028321176796 -37.190146811559138 9.63376166746548 #
point $-1 64.416028321176796 -18.936201394199969 9.63376166746548 #
loop $-1 $-1 $224 $216 #
plane-surface $-1 64.416028321176796 0 0 -1 0 0 0 0 1 forward_v I I I I #
coedge $-1 $318 $219 $403 $404 reversed $130 $-1 #
coedge $-1 $219 $317 $321 $405 reversed $130 $-1 #
edge $-1 $406 -128.83205664235359 $322 -115.35806101176298 $219 $407 forward 7 unknown #
coedge $-1 $221 $220 $325 $408 reversed $81 $-1 #
coedge $-1 $227 $222 $318 $405 forward $217 $-1 #
vertex $-1 $405 $409 #
straight-curve $-1 54.247074828337034 -6.8650271358993251 13.860471598338584 0 -1 0 I I #
coedge $-1 $403 $224 $227 $329 reversed $315 $-1 #
coedge $-1 $224 $403 $320 $408 forward $315 $-1 #
vertex $-1 $225 $410 #
straight-curve $-1 64.416028321176796 -8.5239071493973331 93.386478253292836 0 0 1 I I #
straight-curve $-1 -32.814758173116118 -8.5239071493973331 89.542170012292758 0.75470957328743171 0 -0.6560590369687036 I I #
edge $-1 $411 -18.936201394199969 $228 -8.5239071493973331 $324 $412 forward 7 unknown #
point $-1 64.416028321176796 -8.5239071493973331 13.860471598338577 #
point $-1 54.247074828337034 -8.5239071493973331 13.860471598338577 #
edge $-1 $413 1 $413 0 $231 $-1 forward 7 unknown #
vertex $-1 $232 $414 #
ellipse-curve $-1 58.608699332815895 -15.961260181399215 8.609056935111548 0.6560590369687036 0 0.75470957328743171 0.75470957328743171 0 -0.6560590369687036 1 I I #
point $-1 60.086261148044343 -15.961260181399215 8.7845442626069765 #
edge $-1 $415 1 $415 0 $235 $-1 forward 7 unknown #
vertex $-1 $236 $416 #
ellipse-curve $-1 58.608699332815895 -11.498848362198085 8.609056935111548 0.6560590369687036 0 0.75470957328743171 0.75470957328743171 0 -0.6560590369687036 1 I I #
point $-1 60.086261148044343 -11.498848362198085 8.7845442626069765 #
loop $-1 $-1 $247 $239 #
plane-surface $-1 0 -18.936201394199969 11.747116632902028 0 -1 0 0 0 -1 forward_v I I I I #
coedge $-1 $347 $417 $243 $343 forward $240 $-1 #
edge $-1 $345 19.806895819159855 $353 30.74865917765446 $342 $418 forward 7 unknown #
coedge $-1 $250 $244 $417 $419 forward $152 $-1 #
vertex $-1 $419 $420 #
straight-curve $-1 -87.993931595885556 -6.4159947639305273 13.860471598338577 -1 0 0 I I #
coedge $-1 $421 $342 $246 $348 forward $240 $-1 #
edge $-1 $353 0.077945724397903149 $351 12.598152354667345 $347 $422 forward 7 unknown #
coedge $-1 $350 $247 $250 $355 reversed $340 $-1 #
coedge $-1 $247 $349 $421 $423 reversed $340 $-1 #
vertex $-1 $423 $424 #
straight-curve $-1 -54.452618760836685 -18.936201394199969 20.175840431509084 0.49999998660252726 0 0.86602541151947299 I I #
vertex $-1 $348 $425 #
straight-curve $-1 -64.416028321176768 -6.4159947639305273 2.9187082398440225 0.49999998660252726 0 0.86602541151947299 I I #
edge $-1 $426 -64.416028321176796 $251 -58.09879852643386 $250 $427 forward 7 unknown #
point $-1 -58.09879852643386 -18.936201394199969 13.860471598338577 #
point $-1 -58.09879852643386 -6.4159947639305273 13.860471598338577 #
edge $-1 $428 1 $428 0 $254 $-1 forward 7 unknown #
vertex $-1 $255 $429 #
ellipse-curve $-1 -57.975836009178416 -16.432160068146082 6.4949703830781553 -0.86602541151947299 0 0.49999998660252726 0.49999998660252726 0 0.86602541151947299 1 I I #
point $-1 -60.757413437202821 -16.432160068146082 9.2556153306107802 #
edge $-1 $430 1 $430 0 $258 $-1 forward 7 unknown #
vertex $-1 $259 $431 #
ellipse-curve $-1 -57.975836009178416 -12.676098079065252 6.4949703830781553 -0.86602541151947299 0 0.49999998660252726 0.49999998660252726 0 0.86602541151947299 1 I I #
point $-1 -60.757413437202821 -12.676098079065252 9.2556153306107802 #
edge $-1 $432 1 $432 0 $262 $-1 forward 7 unknown #
vertex $-1 $263 $433 #
ellipse-curve $-1 -57.975836009178416 -8.9200360899844213 6.4949703830781553 -0.86602541151947299 0 0.49999998660252726 0.49999998660252726 0 0.86602541151947299 1 I I #
point $-1 -60.757413437202821 -8.9200360899844213 9.2556153306107802 #
plane-surface $-1 64.416028321176796 0 0 -1 0 0 0 0 1 forward_v I I I I #
coedge $-1 $271 $269 $273 $375 reversed $181 $-1 #
edge $-1 $284 -13.860471598338577 $377 13.860471598338577 $283 $434 forward 7 unknown #
vertex $-1 $375 $435 #
straight-curve $-1 -64.416028321176796 -37.190146811559138 0 0 0 -1 I I #
edge $-1 $373 -37.190146811559138 $377 37.190146811559138 $371 $436 forward 7 unknown #
straight-curve $-1 0 -37.190146811559138 -13.860471598338577 -1 0 0 I I #
vertex $-1 $276 $437 #
straight-curve $-1 0 37.190146811559138 -13.860471598338577 1 0 0 I I #
point $-1 64.416028321176796 37.190146811559138 -13.860471598338577 #
point $-1 64.416028321176796 -37.190146811559138 -13.860471598338577 #
straight-curve $-1 -64.416028321176796 0 13.860471598338577 0 -1 0 I I #
point $-1 -64.416028321176796 37.190146811559138 13.860471598338577 #
point $-1 -64.416028321176796 -37.190146811559138 13.860471598338577 #
straight-curve $-1 64.416028321176796 -37.190146811559138 0 0 0 -1 I I #
straight-curve $-1 64.416028321176796 37.190146811559138 0 0 0 -1 I I #
plane-surface $-1 64.416028321176796 0 0 -1 0 0 0 0 1 forward_v I I I I #
coedge $-1 $297 $296 $307 $398 reversed $122 $-1 #
coedge $-1 $438 $300 $297 $389 forward $294 $-1 #
edge $-1 $390 18.936201394199969 $439 37.190146811559138 $297 $440 forward 7 unknown #
vertex $-1 $389 $441 #
straight-curve $-1 -64.416028321176796 -18.936201394199969 5.8735583164510139 0 0 -1 I I #
coedge $-1 $300 $438 $302 $394 forward $294 $-1 #
straight-curve $-1 0 -18.936201394199969 13.860471598338577 -1 0 0 I I #
edge $-1 $401 -37.190146811559138 $303 -18.936201394199969 $302 $442 forward 7 unknown #
point $-1 64.416028321176796 -18.936201394199969 13.860471598338576 #
straight-curve $-1 -64.416028321176796 -14.031587051439777 9.63376166746548 0 -1 0 I I #
coedge $-1 $307 $306 $438 $443 reversed $200 $-1 #
edge $-1 $439 -13.860471598338577 $308 -9.63376166746548 $387 $444 forward 7 unknown #
point $-1 -64.416028321176796 -37.190146811559138 9.63376166746548 #
point $-1 -64.416028321176796 -18.936201394199969 9.63376166746548 #
vertex $-1 $394 $445 #
straight-curve $-1 64.416028321176796 -37.190146811559138 0 0 0 -1 I I #
coedge $-1 $325 $324 $317 $404 forward $315 $-1 #
edge $-1 $411 79.526006654954259 $406 88.365743252480044 $403 $446 forward 7 unknown #
edge $-1 $322 54.247074828337041 $411 64.416028321176796 $321 $447 forward 7 unknown #
vertex $-1 $404 $448 #
straight-curve $-1 -32.814758173116118 -18.936201394199969 89.542170012292758 -0.75470957328743171 0 0.6560590369687036 I I #
edge $-1 $406 -12.071174258300644 $326 -1.658880013498008 $325 $449 forward 7 unknown #
point $-1 54.247074828337041 -18.936201394199969 13.860471598338577 #
point $-1 64.416028321176796 -8.5239071493973331 5.0207350008127918 #
vertex $-1 $329 $450 #
straight-curve $-1 64.416028321176796 0 13.860471598338577 0 1 0 I I #
vertex $-1 $332 $451 #
point $-1 59.363408906103331 -15.961260181399215 7.9529978981428444 #
vertex $-1 $336 $452 #
point $-1 59.363408906103331 -11.498848362198085 7.9529978981428444 #
coedge $-1 $342 $421 $344 $419 reversed $240 $-1 #
straight-curve $-1 -64.416028321176796 -6.4159947639305273 33.667367417498433 0 0 -1 I I #
edge $-1 $345 6.4159947639305273 $426 18.936201394199969 $417 $453 forward 7 unknown #
point $-1 -64.416028321176796 -6.4159947639305273 13.860471598338577 #
coedge $-1 $417 $347 $350 $423 forward $240 $-1 #
straight-curve $-1 -64.416028321176796 -6.3380490395326241 2.9187082398439648 0 -1 0 I I #
edge $-1 $351 -30.74865917765446 $426 -19.806895819159855 $421 $454 forward 7 unknown #
point $-1 -64.416028321176796 -18.936201394199969 2.9187082398439732 #
point $-1 -64.416028321176796 -6.4159947639305273 2.9187082398439732 #
vertex $-1 $423 $455 #
straight-curve $-1 0 -18.936201394199969 13.860471598338577 1 0 0 I I #
vertex $-1 $358 $456 #
point $-1 -57.475836022575891 -16.432160068146082 7.3609957945976285 #
vertex $-1 $362 $457 #
point $-1 -57.475836022575891 -12.676098079065252 7.3609957945976285 #
vertex $-1 $366 $458 #
point $-1 -57.475836022575891 -8.9200360899844213 7.3609957945976285 #
straight-curve $-1 -64.416028321176796 37.190146811559138 0 0 0 -1 I I #
point $-1 -64.416028321176796 -37.190146811559138 -13.860471598338577 #
straight-curve $-1 -64.416028321176796 0 -13.860471598338577 0 1 0 I I #
point $-1 -64.416028321176796 37.190146811559138 -13.860471598338577 #
coedge $-1 $392 $388 $397 $443 forward $294 $-1 #
vertex $-1 $389 $459 #
straight-curve $-1 -64.416028321176796 0 13.860471598338577 0 -1 0 I I #
point $-1 -64.416028321176796 -18.936201394199969 13.860471598338576 #
straight-curve $-1 64.416028321176796 0 13.860471598338577 0 1 0 I I #
edge $-1 $439 -64.416028321176796 $401 64.416028321176796 $397 $460 forward 7 unknown #
straight-curve $-1 -64.416028321176796 -37.190146811559138 0 0 0 -1 I I #
point $-1 64.416028321176796 -37.190146811559138 13.860471598338577 #
straight-curve $-1 64.416028321176796 -18.936201394199969 93.386478253292836 0 0 -1 I I #
straight-curve $-1 0 -18.936201394199969 13.860471598338577 1 0 0 I I #
point $-1 64.416028321176796 -18.936201394199969 5.0207350008127918 #
straight-curve $-1 64.416028321176796 -6.8650271358993251 5.0207350008127847 0 1 0 I I #
point $-1 64.416028321176796 -18.936201394199969 13.860471598338576 #
point $-1 57.952640295847196 -15.961260181399215 7.8543473618241162 #
point $-1 57.952640295847196 -11.498848362198085 7.8543473618241162 #
straight-curve $-1 -64.416028321176796 0 13.860471598338577 0 -1 0 I I #
straight-curve $-1 -64.416028321176796 -18.936201394199969 33.667367417498433 0 0 1 I I #
point $-1 -64.416028321176796 -18.936201394199969 13.860471598338576 #
point $-1 -57.109810597658942 -16.432160068146082 5.9949703964756287 #
point $-1 -57.109810597658942 -12.676098079065252 5.9949703964756287 #
point $-1 -57.109810597658942 -8.9200360899844213 5.9949703964756287 #
point $-1 -64.416028321176796 -37.190146811559138 13.860471598338577 #
straight-curve $-1 0 -37.190146811559138 13.860471598338577 1 0 0 I I #
End-of-ACIS-data 