500 0 9 0           
7 Unknown 11 ACIS 5.0 NT 24 Thu Mar 25 20:07:07 1999 
-1 9.9999999999999995e-007 1e-010 
body $-1 $9 $-1 $10 #
body $-1 $11 $-1 $12 #
body $-1 $13 $-1 $14 #
body $-1 $15 $-1 $16 #
body $-1 $17 $-1 $18 #
body $-1 $19 $-1 $20 #
body $-1 $21 $-1 $22 #
body $-1 $23 $-1 $24 #
body $-1 $25 $-1 $26 #
lump $-1 $-1 $27 $0 #
transform $-1 1 0 0 0 1 0 0 0 1 65.972472304452651 28.49095922989131 10.158213400402058 1 rotate no_reflect no_shear #
lump $-1 $-1 $28 $1 #
transform $-1 1 0 0 0 1 0 0 0 1 65.972472304452651 28.49095922989131 10.158213400402058 1 rotate no_reflect no_shear #
lump $-1 $-1 $29 $2 #
transform $-1 1 0 0 0 1 0 0 0 1 65.972472304452651 28.49095922989131 10.158213400402058 1 rotate no_reflect no_shear #
lump $-1 $-1 $30 $3 #
transform $-1 1 0 0 0 1 0 0 0 1 65.972472304452651 28.49095922989131 10.158213400402058 1 rotate no_reflect no_shear #
lump $-1 $-1 $31 $4 #
transform $-1 1 0 0 0 1 0 0 0 1 65.972472304452651 28.49095922989131 10.158213400402058 1 rotate no_reflect no_shear #
lump $-1 $-1 $32 $5 #
transform $-1 1 0 0 0 1 0 0 0 1 65.972472304452651 28.49095922989131 10.158213400402058 1 rotate no_reflect no_shear #
lump $-1 $-1 $33 $6 #
transform $-1 1 0 0 0 1 0 0 0 1 65.972472304452651 28.49095922989131 10.158213400402058 1 rotate no_reflect no_shear #
lump $-1 $-1 $34 $7 #
transform $-1 1 0 0 0 1 0 0 0 1 65.972472304452651 28.49095922989131 10.158213400402058 1 rotate no_reflect no_shear #
lump $-1 $-1 $35 $8 #
transform $-1 1 0 0 0 1 0 0 0 1 65.972472304452651 28.49095922989131 10.158213400402058 1 rotate no_reflect no_shear #
shell $-1 $-1 $-1 $36 $-1 $9 #
shell $-1 $-1 $-1 $37 $-1 $11 #
shell $-1 $-1 $-1 $38 $-1 $13 #
shell $-1 $-1 $-1 $39 $-1 $15 #
shell $-1 $-1 $-1 $40 $-1 $17 #
shell $-1 $-1 $-1 $41 $-1 $19 #
shell $-1 $-1 $-1 $42 $-1 $21 #
shell $-1 $-1 $-1 $43 $-1 $23 #
shell $-1 $-1 $-1 $44 $-1 $25 #
face $-1 $45 $46 $27 $-1 $47 forward single #
face $-1 $48 $49 $28 $-1 $50 forward single #
face $-1 $51 $52 $29 $-1 $53 forward single #
face $-1 $54 $55 $30 $-1 $56 reversed single #
face $-1 $57 $58 $31 $-1 $59 forward single #
face $-1 $60 $61 $32 $-1 $62 reversed single #
face $-1 $63 $64 $33 $-1 $65 forward single #
face $-1 $66 $67 $34 $-1 $68 reversed single #
face $-1 $69 $70 $35 $-1 $71 forward single #
face $-1 $72 $73 $27 $-1 $74 reversed single #
loop $-1 $-1 $75 $36 #
plane-surface $-1 0 0 10.158213400402058 0 0 1 1 0 0 forward_v I I I I #
face $-1 $76 $77 $28 $-1 $78 reversed single #
loop $-1 $-1 $79 $37 #
plane-surface $-1 0 -23.507401800363148 -0.57890041154023963 0 0 1 1 0 0 forward_v I I I I #
face $-1 $80 $81 $29 $-1 $82 reversed single #
loop $-1 $-1 $83 $38 #
plane-surface $-1 0 23.507401800363148 -0.57890041154023963 0 0 1 1 0 0 forward_v I I I I #
face $-1 $84 $85 $30 $-1 $86 reversed single #
loop $-1 $-1 $87 $39 #
plane-surface $-1 -147.20589258284099 18.523844370834976 110.92296507301644 0 -1 0 0.61566148304635926 0 -0.78801074757464917 forward_v I I I I #
face $-1 $88 $89 $31 $-1 $90 forward single #
loop $-1 $91 $92 $40 #
cone-surface $-1 -63.333890361726169 13.638385708161799 7.8051457807217934 0.61566148304635926 0 -0.78801074757464917 0.78801074757464917 0 0.61566148304635926 1 I I 0 1 1 forward I I I I #
face $-1 $93 $94 $32 $-1 $95 reversed single #
loop $-1 $-1 $96 $41 #
plane-surface $-1 36.782064060338399 -13.408497732484646 191.17433950092314 0 1 0 0.5877852598018023 0 0.80901698891910034 forward_v I I I I #
face $-1 $97 $98 $33 $-1 $99 forward single #
loop $-1 $100 $101 $42 #
cone-surface $-1 63.139523645938425 -10.081529031718517 7.7280322218681468 -0.5877852598018023 0 -0.80901698891910034 0.80901698891910034 0 -0.5877852598018023 1 I I 0 1 1 forward I I I I #
face $-1 $102 $103 $34 $-1 $104 reversed single #
loop $-1 $-1 $105 $43 #
plane-surface $-1 36.782064060338399 5.1153466383503403 191.17433950092314 0 1 0 0.5877852598018023 0 0.80901698891910034 forward_v I I I I #
face $-1 $106 $107 $35 $-1 $108 forward single #
loop $-1 $109 $110 $44 #
cone-surface $-1 63.139523645938425 8.4423153391164689 7.7280322218681468 -0.5877852598018023 0 -0.80901698891910034 0.80901698891910034 0 -0.5877852598018023 1 I I 0 1 1 forward I I I I #
face $-1 $111 $112 $27 $-1 $113 reversed single #
loop $-1 $-1 $114 $45 #
plane-surface $-1 0 0 -10.158213400402058 0 0 1 1 0 0 forward_v I I I I #
coedge $-1 $115 $116 $117 $118 forward $46 $-1 #
face $-1 $119 $120 $28 $-1 $121 reversed single #
loop $-1 $-1 $122 $48 #
plane-surface $-1 0 -23.507401800363148 -4.6328233630370974 0 0 1 1 0 0 forward_v I I I I #
coedge $-1 $123 $124 $125 $126 reversed $49 $-1 #
face $-1 $127 $128 $29 $-1 $129 reversed single #
loop $-1 $-1 $130 $51 #
plane-surface $-1 0 23.507401800363148 -4.6328233630370974 0 0 1 1 0 0 forward_v I I I I #
coedge $-1 $131 $132 $133 $134 reversed $52 $-1 #
face $-1 $135 $136 $30 $-1 $137 reversed single #
loop $-1 $-1 $138 $54 #
plane-surface $-1 -65.972472304452623 13.638385708161799 6.9489306330573015 -0.61566148304635926 0 0.78801074757464917 0.78801074757464917 0 0.61566148304635926 forward_v I I I I #
coedge $-1 $139 $140 $141 $142 reversed $55 $-1 #
face $-1 $-1 $143 $31 $-1 $144 forward single #
loop $-1 $145 $146 $57 #
cone-surface $-1 -62.4413249477006 13.638385708161799 6.6627141709265736 0.61566148304635926 0 -0.78801074757464917 0.39400537378732459 0 0.30783074152317963 1 I I -0.70710678118654746 0.70710678118654746 0.5 forward I I I I #
loop $-1 $-1 $147 $40 #
coedge $-1 $92 $92 $148 $149 reversed $58 $-1 #
face $-1 $150 $151 $32 $-1 $152 reversed single #
loop $-1 $-1 $153 $60 #
plane-surface $-1 -40.773229486141418 -10.081529031718517 84.428637710329085 0.5877852598018023 0 0.80901698891910034 0.80901698891910034 0 -0.5877852598018023 forward_v I I I I #
coedge $-1 $154 $155 $156 $157 reversed $61 $-1 #
face $-1 $-1 $158 $33 $-1 $159 forward single #
loop $-1 $160 $161 $63 #
cone-surface $-1 62.273299627548909 -10.081529031718517 6.5357771671510712 -0.5877852598018023 0 -0.80901698891910034 0.40450849445955017 0 -0.29389262990090115 1 I I -0.70710678118654746 0.70710678118654746 0.5 forward I I I I #
loop $-1 $-1 $162 $42 #
coedge $-1 $101 $101 $163 $164 reversed $64 $-1 #
face $-1 $165 $166 $34 $-1 $167 reversed single #
loop $-1 $-1 $168 $66 #
plane-surface $-1 -40.773229486141418 8.4423153391164689 84.428637710329085 0.5877852598018023 0 0.80901698891910034 0.80901698891910034 0 -0.5877852598018023 forward_v I I I I #
coedge $-1 $169 $170 $171 $172 reversed $67 $-1 #
face $-1 $-1 $173 $35 $-1 $174 forward single #
loop $-1 $175 $176 $69 #
cone-surface $-1 62.273299627548909 8.4423153391164689 6.5357771671510712 -0.5877852598018023 0 -0.80901698891910034 0.40450849445955017 0 -0.29389262990090115 1 I I -0.70710678118654746 0.70710678118654746 0.5 forward I I I I #
loop $-1 $-1 $177 $44 #
coedge $-1 $110 $110 $178 $179 reversed $70 $-1 #
face $-1 $180 $181 $27 $-1 $182 reversed single #
loop $-1 $-1 $183 $72 #
plane-surface $-1 0 -28.49095922989131 0 0 1 0 0 0 1 forward_v I I I I #
coedge $-1 $184 $185 $186 $187 forward $73 $-1 #
coedge $-1 $188 $75 $189 $190 forward $46 $-1 #
coedge $-1 $75 $188 $191 $192 forward $46 $-1 #
coedge $-1 $193 $194 $75 $118 reversed $195 $-1 #
edge $-1 $196 -28.49095922989131 $197 28.49095922989131 $117 $198 forward 7 unknown #
face $-1 $199 $200 $28 $-1 $201 reversed single #
loop $-1 $-1 $202 $76 #
plane-surface $-1 0 -18.523844370834986 -2.6058618872886683 0 -1 0 0 0 -1 forward_v I I I I #
coedge $-1 $203 $204 $205 $206 reversed $77 $-1 #
coedge $-1 $207 $79 $208 $209 forward $49 $-1 #
coedge $-1 $79 $207 $210 $211 reversed $49 $-1 #
coedge $-1 $212 $213 $79 $126 forward $214 $-1 #
edge $-1 $215 6.7701434706534123 $216 16.737258329709736 $125 $217 forward 7 unknown #
face $-1 $218 $219 $29 $-1 $220 reversed single #
loop $-1 $-1 $221 $80 #
plane-surface $-1 0 18.523844370834986 -2.6058618872886683 0 1 0 0 0 1 forward_v I I I I #
coedge $-1 $222 $223 $224 $225 reversed $81 $-1 #
coedge $-1 $226 $83 $227 $228 reversed $52 $-1 #
coedge $-1 $83 $226 $229 $230 forward $52 $-1 #
coedge $-1 $231 $232 $83 $134 forward $219 $-1 #
edge $-1 $233 -16.737258329709736 $234 -6.7701434706534123 $133 $235 forward 7 unknown #
face $-1 $236 $237 $30 $-1 $238 reversed single #
loop $-1 $-1 $239 $84 #
plane-surface $-1 -147.20589258284099 8.7529270454886223 110.92296507301644 0 1 0 -0.61566148304635926 0 0.78801074757464917 forward_v I I I I #
coedge $-1 $240 $241 $242 $243 reversed $85 $-1 #
coedge $-1 $140 $87 $244 $245 reversed $55 $-1 #
coedge $-1 $87 $139 $240 $246 reversed $55 $-1 #
coedge $-1 $242 $247 $87 $142 forward $237 $-1 #
edge $-1 $248 45.303269136106167 $249 48.512551903450941 $141 $250 forward 7 unknown #
loop $-1 $-1 $148 $88 #
plane-surface $-1 -65.972472304452623 13.638385708161799 6.9489306330573015 -0.61566148304635926 0 0.78801074757464917 0.78801074757464917 0 0.61566148304635926 forward_v I I I I #
loop $-1 $-1 $251 $57 #
coedge $-1 $146 $146 $147 $252 reversed $89 $-1 #
coedge $-1 $147 $147 $146 $252 forward $91 $-1 #
coedge $-1 $148 $148 $92 $149 forward $143 $-1 #
edge $-1 $253 0 $253 6.2831853071796004 $148 $254 forward 7 unknown #
face $-1 $255 $256 $32 $-1 $257 forward single #
loop $-1 $-1 $258 $93 #
plane-surface $-1 36.782064060338399 -6.7545603309523887 191.17433950092314 0 -1 0 -0.5877852598018023 0 -0.80901698891910034 forward_v I I I I #
coedge $-1 $259 $260 $261 $262 reversed $94 $-1 #
coedge $-1 $155 $96 $263 $264 reversed $61 $-1 #
coedge $-1 $96 $154 $259 $265 reversed $61 $-1 #
coedge $-1 $261 $266 $96 $157 forward $267 $-1 #
edge $-1 $268 85.428956350059508 $269 88.713825586612316 $156 $270 forward 7 unknown #
loop $-1 $-1 $163 $97 #
plane-surface $-1 -40.773229486141418 -10.081529031718517 84.428637710329085 0.5877852598018023 0 0.80901698891910034 0.80901698891910034 0 -0.5877852598018023 forward_v I I I I #
loop $-1 $-1 $271 $63 #
coedge $-1 $161 $161 $162 $272 reversed $98 $-1 #
coedge $-1 $162 $162 $161 $272 forward $100 $-1 #
coedge $-1 $163 $163 $101 $164 forward $158 $-1 #
edge $-1 $273 0 $273 6.2831853071796004 $163 $274 forward 7 unknown #
face $-1 $275 $276 $34 $-1 $277 reversed single #
loop $-1 $-1 $278 $102 #
plane-surface $-1 36.782064060338399 11.769284039882598 191.17433950092314 0 -1 0 -0.5877852598018023 0 -0.80901698891910034 forward_v I I I I #
coedge $-1 $279 $280 $281 $282 reversed $103 $-1 #
coedge $-1 $170 $105 $283 $284 reversed $67 $-1 #
coedge $-1 $105 $169 $279 $285 reversed $67 $-1 #
coedge $-1 $281 $286 $105 $172 forward $276 $-1 #
edge $-1 $287 85.428956350059508 $288 88.713825586612316 $171 $289 forward 7 unknown #
loop $-1 $-1 $178 $106 #
plane-surface $-1 -40.773229486141418 8.4423153391164689 84.428637710329085 0.5877852598018023 0 0.80901698891910034 0.80901698891910034 0 -0.5877852598018023 forward_v I I I I #
loop $-1 $-1 $290 $69 #
coedge $-1 $176 $176 $177 $291 reversed $107 $-1 #
coedge $-1 $177 $177 $176 $291 forward $109 $-1 #
coedge $-1 $178 $178 $110 $179 forward $173 $-1 #
edge $-1 $292 0 $292 6.2831853071796004 $178 $293 forward 7 unknown #
face $-1 $294 $295 $27 $-1 $296 reversed single #
loop $-1 $-1 $297 $111 #
plane-surface $-1 -65.972472304452651 0 0 1 0 0 0 0 -1 forward_v I I I I #
coedge $-1 $298 $191 $299 $300 forward $112 $-1 #
coedge $-1 $301 $114 $298 $302 forward $73 $-1 #
coedge $-1 $114 $301 $303 $304 forward $73 $-1 #
coedge $-1 $194 $193 $114 $187 reversed $195 $-1 #
edge $-1 $305 -28.49095922989131 $306 28.49095922989131 $186 $307 forward 7 unknown #
coedge $-1 $116 $115 $308 $309 forward $46 $-1 #
coedge $-1 $310 $311 $115 $190 reversed $295 $-1 #
edge $-1 $197 -65.972472304452651 $312 65.972472304452651 $189 $313 forward 7 unknown #
coedge $-1 $183 $314 $116 $192 reversed $112 $-1 #
edge $-1 $315 -65.972472304452651 $196 65.972472304452651 $191 $316 forward 7 unknown #
coedge $-1 $186 $117 $314 $317 forward $195 $-1 #
coedge $-1 $117 $186 $310 $318 reversed $195 $-1 #
loop $-1 $-1 $193 $294 #
vertex $-1 $118 $319 #
vertex $-1 $118 $320 #
straight-curve $-1 65.972472304452651 0 10.158213400402058 0 1 0 I I #
face $-1 $321 $322 $28 $-1 $323 reversed single #
loop $-1 $-1 $324 $119 #
plane-surface $-1 -65.972472304452651 0 0 1 0 0 0 0 -1 forward_v I I I I #
coedge $-1 $325 $208 $213 $326 reversed $120 $-1 #
coedge $-1 $327 $122 $328 $329 reversed $77 $-1 #
coedge $-1 $122 $327 $325 $330 forward $77 $-1 #
coedge $-1 $213 $212 $122 $206 forward $214 $-1 #
edge $-1 $331 -16.737258329709736 $332 -6.7701434706534123 $205 $333 forward 7 unknown #
coedge $-1 $124 $123 $324 $334 reversed $49 $-1 #
coedge $-1 $202 $335 $123 $209 reversed $120 $-1 #
edge $-1 $215 -65.972472304452651 $336 65.972472304452651 $208 $337 forward 7 unknown #
coedge $-1 $338 $339 $124 $211 forward $322 $-1 #
edge $-1 $216 -65.972472304452651 $340 65.972472304452651 $210 $341 forward 7 unknown #
coedge $-1 $205 $125 $339 $342 forward $214 $-1 #
coedge $-1 $125 $205 $202 $326 forward $214 $-1 #
loop $-1 $-1 $125 $321 #
vertex $-1 $126 $343 #
vertex $-1 $342 $344 #
straight-curve $-1 65.972472304452651 -11.753700900181574 -0.57890041154023963 0 -1 0 I I #
face $-1 $345 $346 $29 $-1 $347 reversed single #
loop $-1 $-1 $133 $127 #
plane-surface $-1 65.972472304452651 0 0 -1 0 0 0 0 1 forward_v I I I I #
coedge $-1 $348 $229 $349 $350 reversed $128 $-1 #
coedge $-1 $351 $130 $348 $352 forward $81 $-1 #
coedge $-1 $130 $351 $353 $354 reversed $81 $-1 #
coedge $-1 $232 $231 $130 $225 forward $219 $-1 #
edge $-1 $355 6.7701434706534123 $356 16.737258329709736 $224 $357 forward 7 unknown #
coedge $-1 $132 $131 $358 $359 reversed $52 $-1 #
coedge $-1 $360 $361 $131 $228 forward $362 $-1 #
edge $-1 $363 -65.972472304452651 $233 65.972472304452651 $227 $364 forward 7 unknown #
coedge $-1 $221 $365 $132 $230 reversed $128 $-1 #
edge $-1 $366 -65.972472304452651 $234 65.972472304452651 $229 $367 forward 7 unknown #
coedge $-1 $224 $133 $365 $368 forward $219 $-1 #
coedge $-1 $133 $224 $360 $369 reversed $219 $-1 #
vertex $-1 $369 $370 #
vertex $-1 $134 $371 #
straight-curve $-1 65.972472304452651 11.753700900181574 -0.57890041154023963 0 -1 0 I I #
face $-1 $-1 $372 $30 $-1 $373 forward single #
loop $-1 $-1 $141 $135 #
plane-surface $-1 -65.972472304452651 0 0 1 0 0 0 0 -1 forward_v I I I I #
coedge $-1 $374 $375 $376 $377 reversed $136 $-1 #
coedge $-1 $378 $138 $140 $246 forward $85 $-1 #
coedge $-1 $138 $378 $374 $379 forward $85 $-1 #
coedge $-1 $376 $141 $138 $243 forward $237 $-1 #
edge $-1 $249 -11.704651516754076 $380 -1.9337341914077228 $242 $381 forward 7 unknown #
coedge $-1 $382 $383 $139 $245 forward $372 $-1 #
edge $-1 $384 -11.738168527416086 $248 -7.6304739869678428 $244 $385 forward 7 unknown #
edge $-1 $249 -3.606704357266089e-014 $384 5.2127392336854994 $140 $386 forward 7 unknown #
coedge $-1 $141 $376 $382 $387 reversed $237 $-1 #
vertex $-1 $387 $388 #
vertex $-1 $142 $389 #
straight-curve $-1 -65.972472304452651 18.523844370834976 55.461482536508221 0 0 -1 I I #
coedge $-1 $251 $251 $-1 $390 reversed $145 $-1 #
edge $-1 $391 0 $391 6.2831853071796004 $146 $392 forward 7 unknown #
vertex $-1 $149 $393 #
ellipse-curve $-1 -63.91862503422854 13.638385708161799 8.5535720167296621 -0.61566148304635926 0 0.78801074757464917 0.78801074757464917 0 0.61566148304635926 1 I I #
face $-1 $-1 $267 $32 $-1 $394 reversed single #
loop $-1 $-1 $395 $150 #
plane-surface $-1 0 0 10.158213400402058 0 0 1 1 0 0 forward_v I I I I #
coedge $-1 $396 $397 $398 $399 reversed $151 $-1 #
coedge $-1 $400 $153 $155 $265 forward $94 $-1 #
coedge $-1 $153 $400 $396 $401 forward $94 $-1 #
coedge $-1 $398 $156 $153 $262 forward $267 $-1 #
edge $-1 $269 -8.3677332166253873 $402 -1.7137958150931301 $261 $403 forward 7 unknown #
coedge $-1 $404 $405 $154 $264 forward $256 $-1 #
edge $-1 $406 43.060205734232156 $268 47.581440274283452 $263 $407 forward 7 unknown #
edge $-1 $269 -131.94494460890533 $406 -126.35639133749385 $155 $408 forward 7 unknown #
coedge $-1 $156 $398 $404 $409 reversed $267 $-1 #
loop $-1 $-1 $398 $255 #
vertex $-1 $409 $410 #
vertex $-1 $157 $411 #
straight-curve $-1 65.972472304452651 -13.408497732484646 95.58716975046157 0 0 -1 I I #
coedge $-1 $271 $271 $-1 $412 reversed $160 $-1 #
edge $-1 $413 0 $413 6.2831853071796004 $161 $414 forward 7 unknown #
vertex $-1 $164 $415 #
ellipse-curve $-1 63.711855034427018 -10.081529031718517 8.5157787821256452 0.5877852598018023 0 0.80901698891910034 0.80901698891910034 0 -0.5877852598018023 1 I I #
face $-1 $-1 $416 $34 $-1 $417 forward single #
loop $-1 $-1 $171 $165 #
plane-surface $-1 65.972472304452651 0 0 -1 0 0 0 0 1 forward_v I I I I #
coedge $-1 $418 $419 $420 $421 reversed $166 $-1 #
coedge $-1 $422 $168 $170 $285 forward $103 $-1 #
coedge $-1 $168 $422 $418 $423 forward $103 $-1 #
coedge $-1 $420 $171 $168 $282 forward $276 $-1 #
edge $-1 $288 0.89418896879210585 $424 7.5481263703243631 $281 $425 forward 7 unknown #
coedge $-1 $426 $427 $169 $284 forward $416 $-1 #
edge $-1 $428 43.060205734232156 $287 47.581440274283452 $283 $429 forward 7 unknown #
edge $-1 $288 -131.94494460890533 $428 -126.35639133749385 $170 $430 forward 7 unknown #
coedge $-1 $171 $420 $426 $431 reversed $276 $-1 #
vertex $-1 $431 $432 #
vertex $-1 $172 $433 #
straight-curve $-1 65.972472304452651 5.1153466383503403 95.58716975046157 0 0 -1 I I #
coedge $-1 $290 $290 $-1 $434 reversed $175 $-1 #
edge $-1 $435 0 $435 6.2831853071796004 $176 $436 forward 7 unknown #
vertex $-1 $179 $437 #
ellipse-curve $-1 63.711855034427018 8.4423153391164689 8.5157787821256452 0.5877852598018023 0 0.80901698891910034 0.80901698891910034 0 -0.5877852598018023 1 I I #
face $-1 $-1 $195 $27 $-1 $438 reversed single #
loop $-1 $-1 $310 $180 #
plane-surface $-1 0 28.49095922989131 0 0 -1 0 0 0 -1 forward_v I I I I #
coedge $-1 $439 $308 $311 $440 forward $181 $-1 #
coedge $-1 $314 $183 $184 $302 reversed $112 $-1 #
coedge $-1 $308 $439 $183 $300 reversed $181 $-1 #
edge $-1 $315 -10.158213400402058 $441 10.158213400402058 $299 $442 forward 7 unknown #
coedge $-1 $185 $184 $439 $443 forward $73 $-1 #
edge $-1 $306 -65.972472304452651 $441 65.972472304452651 $298 $444 forward 7 unknown #
coedge $-1 $311 $310 $185 $304 reversed $295 $-1 #
edge $-1 $445 -65.972472304452651 $305 65.972472304452651 $303 $446 forward 7 unknown #
vertex $-1 $187 $447 #
vertex $-1 $317 $448 #
straight-curve $-1 65.972472304452651 0 -10.158213400402058 0 -1 0 I I #
coedge $-1 $297 $299 $188 $309 reversed $181 $-1 #
edge $-1 $312 -28.49095922989131 $315 28.49095922989131 $308 $449 forward 7 unknown #
coedge $-1 $303 $189 $194 $318 forward $295 $-1 #
coedge $-1 $189 $303 $297 $440 reversed $295 $-1 #
vertex $-1 $190 $450 #
straight-curve $-1 0 28.49095922989131 10.158213400402058 -1 0 0 I I #
coedge $-1 $191 $298 $193 $317 reversed $112 $-1 #
vertex $-1 $309 $451 #
straight-curve $-1 0 -28.49095922989131 10.158213400402058 1 0 0 I I #
edge $-1 $196 -10.158213400402058 $306 10.158213400402058 $193 $452 forward 7 unknown #
edge $-1 $197 -10.158213400402058 $305 10.158213400402058 $194 $453 forward 7 unknown #
point $-1 65.972472304452651 -28.49095922989131 10.158213400402058 #
point $-1 65.972472304452651 28.49095922989131 10.158213400402058 #
face $-1 $-1 $214 $28 $-1 $454 reversed single #
loop $-1 $-1 $210 $199 #
plane-surface $-1 0 -28.49095922989131 0 0 1 0 0 0 1 forward_v I I I I #
coedge $-1 $455 $456 $207 $334 forward $200 $-1 #
coedge $-1 $335 $202 $204 $330 reversed $120 $-1 #
edge $-1 $332 -3.3298924193927633 $215 0.72403053210409452 $213 $457 forward 7 unknown #
coedge $-1 $204 $203 $458 $459 reversed $77 $-1 #
coedge $-1 $339 $338 $203 $329 forward $322 $-1 #
edge $-1 $460 -65.972472304452651 $331 65.972472304452651 $328 $461 forward 7 unknown #
edge $-1 $462 -65.972472304452651 $332 65.972472304452651 $325 $463 forward 7 unknown #
vertex $-1 $329 $464 #
vertex $-1 $206 $465 #
straight-curve $-1 65.972472304452651 -11.753700900181574 -4.6328233630370974 0 1 0 I I #
edge $-1 $340 -16.737258329709736 $336 -6.7701434706534123 $324 $466 forward 7 unknown #
coedge $-1 $208 $325 $455 $467 reversed $120 $-1 #
vertex $-1 $334 $468 #
straight-curve $-1 0 -18.523844370834986 -0.57890041154023963 -1 0 0 I I #
coedge $-1 $328 $210 $456 $469 forward $322 $-1 #
coedge $-1 $210 $328 $212 $342 reversed $322 $-1 #
vertex $-1 $469 $470 #
straight-curve $-1 0 -28.49095922989131 -0.57890041154023963 -1 0 0 I I #
edge $-1 $216 0.57890041154023963 $331 4.6328233630370974 $212 $471 forward 7 unknown #
point $-1 65.972472304452651 -18.523844370834986 -0.57890041154023963 #
point $-1 65.972472304452651 -28.49095922989131 -0.57890041154023963 #
face $-1 $-1 $362 $29 $-1 $472 reversed single #
loop $-1 $-1 $358 $218 #
plane-surface $-1 -65.972472304452651 0 0 1 0 0 0 0 -1 forward_v I I I I #
coedge $-1 $365 $221 $222 $352 reversed $128 $-1 #
coedge $-1 $358 $473 $221 $350 forward $346 $-1 #
edge $-1 $474 -3.3298924193927633 $366 0.72403053210409452 $349 $475 forward 7 unknown #
coedge $-1 $223 $222 $473 $476 reversed $81 $-1 #
edge $-1 $355 -65.972472304452651 $474 65.972472304452651 $348 $477 forward 7 unknown #
coedge $-1 $361 $360 $223 $354 forward $362 $-1 #
edge $-1 $356 -65.972472304452651 $478 65.972472304452651 $353 $479 forward 7 unknown #
vertex $-1 $225 $480 #
vertex $-1 $354 $481 #
straight-curve $-1 65.972472304452651 11.753700900181574 -4.6328233630370974 0 1 0 I I #
coedge $-1 $482 $349 $226 $359 forward $346 $-1 #
edge $-1 $366 6.7701434706534123 $363 16.737258329709736 $358 $483 forward 7 unknown #
coedge $-1 $353 $227 $232 $369 forward $362 $-1 #
coedge $-1 $227 $353 $482 $484 reversed $362 $-1 #
loop $-1 $-1 $227 $345 #
vertex $-1 $484 $485 #
straight-curve $-1 0 28.49095922989131 -0.57890041154023963 1 0 0 I I #
coedge $-1 $229 $348 $231 $368 reversed $128 $-1 #
vertex $-1 $359 $486 #
straight-curve $-1 0 18.523844370834986 -0.57890041154023963 1 0 0 I I #
edge $-1 $234 -0.72403053210409452 $355 3.3298924193927633 $231 $487 forward 7 unknown #
edge $-1 $233 0.57890041154023963 $356 4.6328233630370974 $232 $488 forward 7 unknown #
point $-1 65.972472304452651 28.49095922989131 -0.57890041154023963 #
point $-1 65.972472304452651 18.523844370834986 -0.57890041154023963 #
loop $-1 $-1 $244 $236 #
plane-surface $-1 0 0 10.158213400402058 0 0 1 1 0 0 forward_v I I I I #
coedge $-1 $375 $239 $241 $379 reversed $136 $-1 #
coedge $-1 $239 $374 $489 $490 reversed $136 $-1 #
coedge $-1 $247 $242 $239 $377 forward $237 $-1 #
edge $-1 $380 -48.512551903450941 $491 -45.303269136106167 $376 $492 forward 7 unknown #
coedge $-1 $241 $240 $383 $493 reversed $85 $-1 #
edge $-1 $494 -5.2127392336854994 $380 3.606704357266089e-014 $374 $495 forward 7 unknown #
vertex $-1 $243 $496 #
straight-curve $-1 -65.972472304452651 6.8191928540808995 6.948930633057282 0 -1 0 I I #
coedge $-1 $489 $244 $247 $387 forward $372 $-1 #
coedge $-1 $244 $489 $378 $493 forward $372 $-1 #
vertex $-1 $245 $497 #
straight-curve $-1 -73.602946291420494 18.523844370834976 10.158213400402062 -1 0 0 I I #
straight-curve $-1 -65.972472304452623 18.523844370834976 6.9489306330573015 0.78801074757464917 0 0.61566148304635926 I I #
edge $-1 $248 -18.523844370834976 $491 -8.7529270454886223 $247 $498 forward 7 unknown #
point $-1 -65.972472304452651 18.523844370834976 10.158213400402058 #
point $-1 -65.972472304452651 18.523844370834976 6.9489306330572793 #
edge $-1 $499 1 $499 0 $251 $-1 forward 7 unknown #
vertex $-1 $252 $500 #
ellipse-curve $-1 -62.749155689223777 13.638385708161799 7.0567195447138982 -0.61566148304635926 0 0.78801074757464917 0.78801074757464917 0 0.61566148304635926 1 I I #
point $-1 -63.130614286653909 13.638385708161799 9.1692334997760465 #
plane-surface $-1 65.972472304452651 0 0 -1 0 0 0 0 1 forward_v I I I I #
coedge $-1 $405 $404 $397 $501 forward $256 $-1 #
coedge $-1 $397 $258 $260 $401 reversed $151 $-1 #
coedge $-1 $258 $396 $395 $501 reversed $151 $-1 #
coedge $-1 $266 $261 $258 $399 forward $267 $-1 #
edge $-1 $402 -88.713825586612316 $502 -85.428956350059508 $398 $503 forward 7 unknown #
coedge $-1 $260 $259 $405 $504 reversed $94 $-1 #
edge $-1 $505 126.35639133749385 $402 131.94494460890533 $396 $506 forward 7 unknown #
vertex $-1 $262 $507 #
straight-curve $-1 65.972472304452651 -5.0407645158592587 6.8733441638492536 0 1 0 I I #
coedge $-1 $395 $263 $266 $409 forward $256 $-1 #
coedge $-1 $263 $395 $400 $504 forward $256 $-1 #
vertex $-1 $264 $508 #
straight-curve $-1 18.3910320301692 -13.408497732484646 10.158213400402062 1 0 0 I I #
straight-curve $-1 -40.773229486141418 -13.408497732484646 84.428637710329085 -0.80901698891910034 0 0.5877852598018023 I I #
edge $-1 $268 -13.408497732484646 $502 -6.7545603309523887 $266 $509 forward 7 unknown #
point $-1 65.972472304452651 -13.408497732484646 10.158213400402058 #
point $-1 65.972472304452651 -13.408497732484646 6.8733441638492536 #
edge $-1 $510 1 $510 0 $271 $-1 forward 7 unknown #
vertex $-1 $272 $511 #
ellipse-curve $-1 62.567192257449811 -10.081529031718517 6.9402856616106217 0.5877852598018023 0 0.80901698891910034 0.80901698891910034 0 -0.5877852598018023 1 I I #
point $-1 64.520872023346129 -10.081529031718517 7.9279935223238702 #
loop $-1 $-1 $283 $275 #
plane-surface $-1 0 0 10.158213400402058 0 0 1 1 0 0 forward_v I I I I #
coedge $-1 $419 $278 $280 $423 reversed $166 $-1 #
coedge $-1 $278 $418 $512 $513 reversed $166 $-1 #
coedge $-1 $286 $281 $278 $421 forward $276 $-1 #
edge $-1 $424 -88.713825586612316 $514 -85.428956350059508 $420 $515 forward 7 unknown #
coedge $-1 $280 $279 $427 $516 reversed $103 $-1 #
edge $-1 $517 126.35639133749385 $424 131.94494460890533 $418 $518 forward 7 unknown #
vertex $-1 $282 $519 #
straight-curve $-1 65.972472304452651 4.2211576695582345 6.8733441638492536 0 1 0 I I #
coedge $-1 $512 $283 $286 $431 forward $416 $-1 #
coedge $-1 $283 $512 $422 $516 forward $416 $-1 #
vertex $-1 $284 $520 #
straight-curve $-1 18.3910320301692 5.1153466383503403 10.158213400402062 1 0 0 I I #
straight-curve $-1 -40.773229486141418 5.1153466383503403 84.428637710329085 -0.80901698891910034 0 0.5877852598018023 I I #
edge $-1 $287 5.1153466383503403 $514 11.769284039882598 $286 $521 forward 7 unknown #
point $-1 65.972472304452651 5.1153466383503403 10.158213400402058 #
point $-1 65.972472304452651 5.1153466383503403 6.8733441638492536 #
edge $-1 $522 1 $522 0 $290 $-1 forward 7 unknown #
vertex $-1 $291 $523 #
ellipse-curve $-1 62.567192257449811 8.4423153391164689 6.9402856616106217 0.5877852598018023 0 0.80901698891910034 0.80901698891910034 0 -0.5877852598018023 1 I I #
point $-1 64.520872023346129 8.4423153391164689 7.9279935223238702 #
plane-surface $-1 65.972472304452651 0 0 -1 0 0 0 0 1 forward_v I I I I #
coedge $-1 $299 $297 $301 $443 reversed $181 $-1 #
edge $-1 $312 -10.158213400402058 $445 10.158213400402058 $311 $524 forward 7 unknown #
vertex $-1 $443 $525 #
straight-curve $-1 -65.972472304452651 -28.49095922989131 0 0 0 -1 I I #
edge $-1 $441 -28.49095922989131 $445 28.49095922989131 $439 $526 forward 7 unknown #
straight-curve $-1 0 -28.49095922989131 -10.158213400402058 -1 0 0 I I #
vertex $-1 $304 $527 #
straight-curve $-1 0 28.49095922989131 -10.158213400402058 1 0 0 I I #
point $-1 65.972472304452651 28.49095922989131 -10.158213400402058 #
point $-1 65.972472304452651 -28.49095922989131 -10.158213400402058 #
straight-curve $-1 -65.972472304452651 0 10.158213400402058 0 -1 0 I I #
point $-1 -65.972472304452651 28.49095922989131 10.158213400402058 #
point $-1 -65.972472304452651 -28.49095922989131 10.158213400402058 #
straight-curve $-1 65.972472304452651 -28.49095922989131 0 0 0 -1 I I #
straight-curve $-1 65.972472304452651 28.49095922989131 0 0 0 -1 I I #
plane-surface $-1 65.972472304452651 0 0 -1 0 0 0 0 1 forward_v I I I I #
coedge $-1 $458 $324 $335 $467 forward $200 $-1 #
coedge $-1 $324 $458 $338 $469 reversed $200 $-1 #
straight-curve $-1 65.972472304452651 -18.523844370834986 -1.3029309436443341 0 0 1 I I #
coedge $-1 $456 $455 $327 $459 forward $200 $-1 #
edge $-1 $462 6.7701434706534123 $460 16.737258329709736 $458 $528 forward 7 unknown #
vertex $-1 $329 $529 #
straight-curve $-1 0 -28.49095922989131 -4.6328233630370974 1 0 0 I I #
vertex $-1 $459 $530 #
straight-curve $-1 0 -18.523844370834986 -4.6328233630370974 1 0 0 I I #
point $-1 65.972472304452651 -28.49095922989131 -4.6328233630370974 #
point $-1 65.972472304452651 -18.523844370834986 -4.6328233630370974 #
straight-curve $-1 -65.972472304452651 -11.753700900181574 -0.57890041154023963 0 1 0 I I #
edge $-1 $336 -0.72403053210409452 $462 3.3298924193927633 $455 $531 forward 7 unknown #
point $-1 -65.972472304452651 -18.523844370834986 -0.57890041154023963 #
edge $-1 $340 0.57890041154023963 $460 4.6328233630370974 $456 $532 forward 7 unknown #
point $-1 -65.972472304452651 -28.49095922989131 -0.57890041154023963 #
straight-curve $-1 65.972472304452651 -28.49095922989131 0 0 0 -1 I I #
plane-surface $-1 0 28.49095922989131 0 0 -1 0 0 0 -1 forward_v I I I I #
coedge $-1 $349 $482 $351 $476 forward $346 $-1 #
vertex $-1 $476 $533 #
straight-curve $-1 -65.972472304452651 18.523844370834986 -1.3029309436443341 0 0 1 I I #
edge $-1 $478 -16.737258329709736 $474 -6.7701434706534123 $473 $534 forward 7 unknown #
straight-curve $-1 0 18.523844370834986 -4.6328233630370974 -1 0 0 I I #
vertex $-1 $354 $535 #
straight-curve $-1 0 28.49095922989131 -4.6328233630370974 -1 0 0 I I #
point $-1 65.972472304452651 18.523844370834986 -4.6328233630370974 #
point $-1 65.972472304452651 28.49095922989131 -4.6328233630370974 #
coedge $-1 $473 $358 $361 $484 forward $346 $-1 #
straight-curve $-1 -65.972472304452651 11.753700900181574 -0.57890041154023963 0 1 0 I I #
edge $-1 $363 0.57890041154023963 $478 4.6328233630370974 $361 $536 forward 7 unknown #
point $-1 -65.972472304452651 28.49095922989131 -0.57890041154023963 #
point $-1 -65.972472304452651 18.523844370834986 -0.57890041154023963 #
straight-curve $-1 65.972472304452651 18.523844370834986 -1.3029309436443341 0 0 -1 I I #
straight-curve $-1 65.972472304452651 28.49095922989131 0 0 0 -1 I I #
coedge $-1 $383 $382 $375 $490 forward $372 $-1 #
edge $-1 $491 7.6304739869678428 $494 11.738168527416086 $489 $537 forward 7 unknown #
vertex $-1 $490 $538 #
straight-curve $-1 -65.972472304452651 8.7529270454886223 55.461482536508221 0 0 1 I I #
edge $-1 $494 1.9337341914077228 $384 11.704651516754076 $383 $539 forward 7 unknown #
vertex $-1 $493 $540 #
straight-curve $-1 -65.972472304452623 8.7529270454886223 6.9489306330573015 -0.78801074757464917 0 -0.61566148304635926 I I #
point $-1 -65.972472304452651 8.7529270454886223 6.9489306330572793 #
point $-1 -61.864777764004408 18.523844370834976 10.158213400402058 #
straight-curve $-1 -65.972472304452651 0 10.158213400402058 0 -1 0 I I #
vertex $-1 $390 $541 #
point $-1 -61.961144941649131 13.638385708161799 7.6723810277602578 #
edge $-1 $502 -47.581440274283452 $505 -43.060205734232156 $395 $542 forward 7 unknown #
vertex $-1 $399 $543 #
straight-curve $-1 65.972472304452651 -6.7545603309523887 95.58716975046157 0 0 1 I I #
edge $-1 $505 1.7137958150931301 $406 8.3677332166253873 $405 $544 forward 7 unknown #
vertex $-1 $504 $545 #
straight-curve $-1 -40.773229486141418 -6.7545603309523887 84.428637710329085 0.80901698891910034 0 -0.5877852598018023 I I #
point $-1 65.972472304452651 -6.7545603309523887 6.8733441638492536 #
point $-1 61.451237764401355 -13.408497732484646 10.158213400402062 #
straight-curve $-1 65.972472304452651 0 10.158213400402058 0 1 0 I I #
vertex $-1 $412 $546 #
point $-1 63.376209246368909 -10.081529031718517 6.3525004018088191 #
coedge $-1 $427 $426 $419 $513 forward $416 $-1 #
edge $-1 $514 -47.581440274283452 $517 -43.060205734232156 $512 $547 forward 7 unknown #
vertex $-1 $513 $548 #
straight-curve $-1 65.972472304452651 11.769284039882598 95.58716975046157 0 0 1 I I #
edge $-1 $517 -7.5481263703243631 $428 -0.89418896879210585 $427 $549 forward 7 unknown #
vertex $-1 $516 $550 #
straight-curve $-1 -40.773229486141418 11.769284039882598 84.428637710329085 0.80901698891910034 0 -0.5877852598018023 I I #
point $-1 65.972472304452651 11.769284039882598 6.8733441638492536 #
point $-1 61.451237764401355 5.1153466383503403 10.158213400402062 #
straight-curve $-1 65.972472304452651 0 10.158213400402058 0 1 0 I I #
vertex $-1 $434 $551 #
point $-1 63.376209246368909 8.4423153391164689 6.3525004018088191 #
straight-curve $-1 -65.972472304452651 28.49095922989131 0 0 0 -1 I I #
point $-1 -65.972472304452651 -28.49095922989131 -10.158213400402058 #
straight-curve $-1 -65.972472304452651 0 -10.158213400402058 0 1 0 I I #
point $-1 -65.972472304452651 28.49095922989131 -10.158213400402058 #
straight-curve $-1 -65.972472304452651 -11.753700900181574 -4.6328233630370974 0 -1 0 I I #
point $-1 -65.972472304452651 -28.49095922989131 -4.6328233630370974 #
point $-1 -65.972472304452651 -18.523844370834986 -4.6328233630370974 #
straight-curve $-1 -65.972472304452651 -18.523844370834986 -1.3029309436443341 0 0 -1 I I #
straight-curve $-1 -65.972472304452651 -28.49095922989131 0 0 0 -1 I I #
point $-1 -65.972472304452651 18.523844370834986 -4.6328233630370974 #
straight-curve $-1 -65.972472304452651 11.753700900181574 -4.6328233630370974 0 -1 0 I I #
point $-1 -65.972472304452651 28.49095922989131 -4.6328233630370974 #
straight-curve $-1 -65.972472304452651 28.49095922989131 0 0 0 -1 I I #
straight-curve $-1 -73.602946291420494 8.7529270454886223 10.158213400402062 1 0 0 I I #
point $-1 -65.972472304452651 8.7529270454886223 10.158213400402058 #
straight-curve $-1 -61.864777764004408 6.8191928540808995 10.158213400402056 0 1 0 I I #
point $-1 -61.864777764004408 8.7529270454886223 10.158213400402058 #
point $-1 -62.133494206177424 13.638385708161799 6.268708797139249 #
straight-curve $-1 18.3910320301692 -6.7545603309523887 10.158213400402062 -1 0 0 I I #
point $-1 65.972472304452651 -6.7545603309523887 10.158213400402058 #
straight-curve $-1 61.451237764401363 -5.0407645158592587 10.158213400402062 0 -1 0 I I #
point $-1 61.451237764401355 -6.7545603309523887 10.158213400402062 #
point $-1 61.979406997648006 -10.081529031718517 6.1312686726915206 #
straight-curve $-1 18.3910320301692 11.769284039882598 10.158213400402062 -1 0 0 I I #
point $-1 65.972472304452651 11.769284039882598 10.158213400402058 #
straight-curve $-1 61.451237764401363 4.2211576695582345 10.158213400402062 0 -1 0 I I #
point $-1 61.451237764401355 11.769284039882598 10.158213400402062 #
point $-1 61.979406997648006 8.4423153391164689 6.1312686726915206 #
End-of-ACIS-data 