500 0 21 0           
7 Unknown 11 ACIS 5.0 NT 24 Fri Mar 26 16:39:33 1999 
-1 9.9999999999999995e-007 1e-010 
body $-1 $21 $-1 $22 #
body $-1 $23 $-1 $24 #
body $-1 $25 $-1 $26 #
body $-1 $27 $-1 $28 #
body $-1 $29 $-1 $30 #
body $-1 $31 $-1 $32 #
body $-1 $33 $-1 $34 #
body $-1 $35 $-1 $36 #
body $-1 $37 $-1 $38 #
body $-1 $39 $-1 $40 #
body $-1 $41 $-1 $42 #
body $-1 $43 $-1 $44 #
body $-1 $45 $-1 $46 #
body $-1 $47 $-1 $48 #
body $-1 $49 $-1 $50 #
body $-1 $51 $-1 $52 #
body $-1 $53 $-1 $54 #
body $-1 $55 $-1 $56 #
body $-1 $57 $-1 $58 #
body $-1 $59 $-1 $60 #
body $-1 $61 $-1 $62 #
lump $-1 $-1 $63 $0 #
transform $-1 1 0 0 0 1 0 0 0 1 57.638477736747333 34.653975971336735 17.015422650997639 1 rotate no_reflect no_shear #
lump $-1 $-1 $64 $1 #
transform $-1 1 0 0 0 1 0 0 0 1 57.638477736747333 10.176289357379634 3.3237896591766285 1 rotate no_reflect no_shear #
lump $-1 $-1 $65 $2 #
transform $-1 0.75470957328743171 0 -0.6560590369687036 0 1 0 0.6560590369687036 0 0.75470957328743171 103.90482199084428 60.012277408424637 186.0865715720148 1 rotate no_reflect no_shear #
lump $-1 $-1 $66 $3 #
transform $-1 0.75470957328743171 0 -0.6560590369687036 0 -1 0 -0.6560590369687036 0 -0.75470957328743171 108.07337250959365 57.281148823546246 27.45350941457103 1 rotate no_reflect no_shear #
lump $-1 $-1 $67 $4 #
transform $-1 0.75470957328743171 0 -0.6560590369687036 0 -1 0 -0.6560590369687036 0 -0.75470957328743171 108.07337250959365 62.743405993303028 27.45350941457103 1 rotate no_reflect no_shear #
lump $-1 $-1 $68 $5 #
transform $-1 0.52991925155115449 0 0.84804810408105047 0 1 0 -0.84804810408105047 0 0.52991925155115449 -97.760403533532823 23.489743482322957 85.955164449946565 1 rotate no_reflect no_shear #
lump $-1 $-1 $69 $6 #
transform $-1 0.52991925155115449 0 0.84804810408105047 0 -1 0 0.84804810408105047 0 -0.52991925155115449 4.4234644232900386 21.607444621784744 28.474109835235087 1 rotate no_reflect no_shear #
lump $-1 $-1 $70 $7 #
transform $-1 0.52991925155115449 0 0.84804810408105047 0 -1 0 0.84804810408105047 0 -0.52991925155115449 4.4234644232900386 23.489743482322957 28.474109835235087 1 rotate no_reflect no_shear #
lump $-1 $-1 $71 $8 #
transform $-1 0.52991925155115449 0 0.84804810408105047 0 -1 0 0.84804810408105047 0 -0.52991925155115449 4.4234644232900386 25.372042342861171 28.474109835235087 1 rotate no_reflect no_shear #
lump $-1 $-1 $72 $9 #
transform $-1 0.52991925155115449 0 0.84804810408105047 0 1 0 -0.84804810408105047 0 0.52991925155115449 -97.760403533532823 37.716758046585234 85.955164449946565 1 rotate no_reflect no_shear #
lump $-1 $-1 $73 $10 #
transform $-1 0.52991925155115449 0 0.84804810408105047 0 -1 0 0.84804810408105047 0 -0.52991925155115449 4.4234644232900386 35.83445918604702 28.474109835235087 1 rotate no_reflect no_shear #
lump $-1 $-1 $74 $11 #
transform $-1 0.52991925155115449 0 0.84804810408105047 0 -1 0 0.84804810408105047 0 -0.52991925155115449 4.4234644232900386 37.716758046585234 28.474109835235087 1 rotate no_reflect no_shear #
lump $-1 $-1 $75 $12 #
transform $-1 0.52991925155115449 0 0.84804810408105047 0 -1 0 0.84804810408105047 0 -0.52991925155115449 4.4234644232900386 39.599056907123448 28.474109835235087 1 rotate no_reflect no_shear #
lump $-1 $-1 $76 $13 #
transform $-1 0.52991925155115449 0 0.84804810408105047 0 1 0 -0.84804810408105047 0 0.52991925155115449 -97.760403533532823 51.94377261084751 85.955164449946565 1 rotate no_reflect no_shear #
lump $-1 $-1 $77 $14 #
transform $-1 0.52991925155115449 0 0.84804810408105047 0 -1 0 0.84804810408105047 0 -0.52991925155115449 4.4234644232900386 50.061473750309297 28.474109835235087 1 rotate no_reflect no_shear #
lump $-1 $-1 $78 $15 #
transform $-1 0.52991925155115449 0 0.84804810408105047 0 -1 0 0.84804810408105047 0 -0.52991925155115449 4.4234644232900386 51.94377261084751 28.474109835235087 1 rotate no_reflect no_shear #
lump $-1 $-1 $79 $16 #
transform $-1 0.52991925155115449 0 0.84804810408105047 0 -1 0 0.84804810408105047 0 -0.52991925155115449 4.4234644232900386 53.826071471385724 28.474109835235087 1 rotate no_reflect no_shear #
lump $-1 $-1 $80 $17 #
transform $-1 0.52991925155115449 0 0.84804810408105047 0 1 0 -0.84804810408105047 0 0.52991925155115449 -97.760403533532823 66.17078717510978 85.955164449946565 1 rotate no_reflect no_shear #
lump $-1 $-1 $81 $18 #
transform $-1 0.52991925155115449 0 0.84804810408105047 0 -1 0 0.84804810408105047 0 -0.52991925155115449 4.4234644232900386 64.288488314571566 28.474109835235087 1 rotate no_reflect no_shear #
lump $-1 $-1 $82 $19 #
transform $-1 0.52991925155115449 0 0.84804810408105047 0 -1 0 0.84804810408105047 0 -0.52991925155115449 4.4234644232900386 66.17078717510978 28.474109835235087 1 rotate no_reflect no_shear #
lump $-1 $-1 $83 $20 #
transform $-1 0.52991925155115449 0 0.84804810408105047 0 -1 0 0.84804810408105047 0 -0.52991925155115449 4.4234644232900386 68.053086035647993 28.474109835235087 1 rotate no_reflect no_shear #
shell $-1 $-1 $-1 $84 $-1 $21 #
shell $-1 $-1 $-1 $85 $-1 $23 #
shell $-1 $-1 $-1 $86 $-1 $25 #
shell $-1 $-1 $-1 $87 $-1 $27 #
shell $-1 $-1 $-1 $88 $-1 $29 #
shell $-1 $-1 $-1 $89 $-1 $31 #
shell $-1 $-1 $-1 $90 $-1 $33 #
shell $-1 $-1 $-1 $91 $-1 $35 #
shell $-1 $-1 $-1 $92 $-1 $37 #
shell $-1 $-1 $-1 $93 $-1 $39 #
shell $-1 $-1 $-1 $94 $-1 $41 #
shell $-1 $-1 $-1 $95 $-1 $43 #
shell $-1 $-1 $-1 $96 $-1 $45 #
shell $-1 $-1 $-1 $97 $-1 $47 #
shell $-1 $-1 $-1 $98 $-1 $49 #
shell $-1 $-1 $-1 $99 $-1 $51 #
shell $-1 $-1 $-1 $100 $-1 $53 #
shell $-1 $-1 $-1 $101 $-1 $55 #
shell $-1 $-1 $-1 $102 $-1 $57 #
shell $-1 $-1 $-1 $103 $-1 $59 #
shell $-1 $-1 $-1 $104 $-1 $61 #
face $-1 $105 $106 $63 $-1 $107 forward single #
face $-1 $108 $109 $64 $-1 $110 forward single #
face $-1 $111 $112 $65 $-1 $113 forward single #
face $-1 $114 $115 $66 $-1 $116 forward single #
face $-1 $117 $118 $67 $-1 $119 forward single #
face $-1 $120 $121 $68 $-1 $122 forward single #
face $-1 $123 $124 $69 $-1 $125 forward single #
face $-1 $126 $127 $70 $-1 $128 forward single #
face $-1 $129 $130 $71 $-1 $131 forward single #
face $-1 $132 $133 $72 $-1 $134 forward single #
face $-1 $135 $136 $73 $-1 $137 forward single #
face $-1 $138 $139 $74 $-1 $140 forward single #
face $-1 $141 $142 $75 $-1 $143 forward single #
face $-1 $144 $145 $76 $-1 $146 forward single #
face $-1 $147 $148 $77 $-1 $149 forward single #
face $-1 $150 $151 $78 $-1 $152 forward single #
face $-1 $153 $154 $79 $-1 $155 forward single #
face $-1 $156 $157 $80 $-1 $158 forward single #
face $-1 $159 $160 $81 $-1 $161 forward single #
face $-1 $162 $163 $82 $-1 $164 forward single #
face $-1 $165 $166 $83 $-1 $167 forward single #
face $-1 $168 $169 $63 $-1 $170 reversed single #
loop $-1 $-1 $171 $84 #
plane-surface $-1 0 0 17.015422650997639 0 0 1 1 0 0 forward_v I I I I #
face $-1 $172 $173 $64 $-1 $174 reversed single #
loop $-1 $-1 $175 $85 #
plane-surface $-1 0 0 3.3237896591766285 0 0 1 1 0 0 forward_v I I I I #
face $-1 $176 $177 $65 $-1 $178 reversed single #
loop $-1 $-1 $179 $86 #
plane-surface $-1 0 0 115.27695547349467 0 0 1 1 0 0 forward_v I I I I #
face $-1 $180 $181 $66 $-1 $182 forward single #
loop $-1 $183 $184 $87 #
cone-surface $-1 0 0 -1.1050599688711209 0 0 1 1 0 0 1 I I 0 1 1 forward I I I I #
face $-1 $185 $186 $67 $-1 $187 forward single #
loop $-1 $188 $189 $88 #
cone-surface $-1 0 0 -1.1050599688711209 0 0 1 1 0 0 1 I I 0 1 1 forward I I I I #
face $-1 $190 $191 $68 $-1 $192 reversed single #
loop $-1 $-1 $193 $89 #
plane-surface $-1 0 0 115.27695547349467 0 0 1 1 0 0 forward_v I I I I #
face $-1 $194 $195 $69 $-1 $196 forward single #
loop $-1 $197 $198 $90 #
cone-surface $-1 0 0 -1.0450987273781536 0 0 1 0.5 0 0 1 I I 0 1 0.5 forward I I I I #
face $-1 $199 $200 $70 $-1 $201 forward single #
loop $-1 $202 $203 $91 #
cone-surface $-1 0 0 -1.0450987273781536 0 0 1 0.5 0 0 1 I I 0 1 0.5 forward I I I I #
face $-1 $204 $205 $71 $-1 $206 forward single #
loop $-1 $207 $208 $92 #
cone-surface $-1 0 0 -1.0450987273781536 0 0 1 0.5 0 0 1 I I 0 1 0.5 forward I I I I #
face $-1 $209 $210 $72 $-1 $211 reversed single #
loop $-1 $-1 $212 $93 #
plane-surface $-1 0 0 115.27695547349467 0 0 1 1 0 0 forward_v I I I I #
face $-1 $213 $214 $73 $-1 $215 forward single #
loop $-1 $216 $217 $94 #
cone-surface $-1 0 0 -1.0450987273781536 0 0 1 0.5 0 0 1 I I 0 1 0.5 forward I I I I #
face $-1 $218 $219 $74 $-1 $220 forward single #
loop $-1 $221 $222 $95 #
cone-surface $-1 0 0 -1.0450987273781536 0 0 1 0.5 0 0 1 I I 0 1 0.5 forward I I I I #
face $-1 $223 $224 $75 $-1 $225 forward single #
loop $-1 $226 $227 $96 #
cone-surface $-1 0 0 -1.0450987273781536 0 0 1 0.5 0 0 1 I I 0 1 0.5 forward I I I I #
face $-1 $228 $229 $76 $-1 $230 reversed single #
loop $-1 $-1 $231 $97 #
plane-surface $-1 0 0 115.27695547349467 0 0 1 1 0 0 forward_v I I I I #
face $-1 $232 $233 $77 $-1 $234 forward single #
loop $-1 $235 $236 $98 #
cone-surface $-1 0 0 -1.0450987273781536 0 0 1 0.5 0 0 1 I I 0 1 0.5 forward I I I I #
face $-1 $237 $238 $78 $-1 $239 forward single #
loop $-1 $240 $241 $99 #
cone-surface $-1 0 0 -1.0450987273781536 0 0 1 0.5 0 0 1 I I 0 1 0.5 forward I I I I #
face $-1 $242 $243 $79 $-1 $244 forward single #
loop $-1 $245 $246 $100 #
cone-surface $-1 0 0 -1.0450987273781536 0 0 1 0.5 0 0 1 I I 0 1 0.5 forward I I I I #
face $-1 $247 $248 $80 $-1 $249 reversed single #
loop $-1 $-1 $250 $101 #
plane-surface $-1 0 0 115.27695547349467 0 0 1 1 0 0 forward_v I I I I #
face $-1 $251 $252 $81 $-1 $253 forward single #
loop $-1 $254 $255 $102 #
cone-surface $-1 0 0 -1.0450987273781536 0 0 1 0.5 0 0 1 I I 0 1 0.5 forward I I I I #
face $-1 $256 $257 $82 $-1 $258 forward single #
loop $-1 $259 $260 $103 #
cone-surface $-1 0 0 -1.0450987273781536 0 0 1 0.5 0 0 1 I I 0 1 0.5 forward I I I I #
face $-1 $261 $262 $83 $-1 $263 forward single #
loop $-1 $264 $265 $104 #
cone-surface $-1 0 0 -1.0450987273781536 0 0 1 0.5 0 0 1 I I 0 1 0.5 forward I I I I #
face $-1 $266 $267 $63 $-1 $268 reversed single #
loop $-1 $-1 $269 $105 #
plane-surface $-1 0 0 -17.015422650997639 0 0 1 1 0 0 forward_v I I I I #
coedge $-1 $270 $271 $272 $273 forward $106 $-1 #
face $-1 $274 $275 $64 $-1 $276 reversed single #
loop $-1 $-1 $277 $108 #
plane-surface $-1 0 0 -3.3237896591766285 0 0 1 1 0 0 forward_v I I I I #
coedge $-1 $278 $279 $280 $281 forward $109 $-1 #
face $-1 $282 $283 $65 $-1 $284 reversed single #
loop $-1 $-1 $285 $111 #
plane-surface $-1 0 0 -115.27695547349467 0 0 1 1 0 0 forward_v I I I I #
coedge $-1 $286 $287 $288 $289 forward $112 $-1 #
face $-1 $-1 $290 $66 $-1 $291 forward single #
loop $-1 $-1 $292 $114 #
plane-surface $-1 0 0 -1.7101199377422418 0 0 -1 -1 0 0 forward_v I I I I #
loop $-1 $-1 $293 $87 #
coedge $-1 $184 $184 $292 $294 reversed $115 $-1 #
face $-1 $-1 $295 $67 $-1 $296 forward single #
loop $-1 $-1 $297 $117 #
plane-surface $-1 0 0 -1.7101199377422418 0 0 -1 -1 0 0 forward_v I I I I #
loop $-1 $-1 $298 $88 #
coedge $-1 $189 $189 $297 $299 reversed $118 $-1 #
face $-1 $300 $301 $68 $-1 $302 reversed single #
loop $-1 $-1 $303 $120 #
plane-surface $-1 0 0 -115.27695547349467 0 0 1 1 0 0 forward_v I I I I #
coedge $-1 $304 $305 $306 $307 forward $121 $-1 #
face $-1 $-1 $308 $69 $-1 $309 forward single #
loop $-1 $-1 $310 $123 #
plane-surface $-1 0 0 -1.8401974547563089 0 0 -1 -1 0 0 forward_v I I I I #
loop $-1 $-1 $311 $90 #
coedge $-1 $198 $198 $310 $312 reversed $124 $-1 #
face $-1 $-1 $313 $70 $-1 $314 forward single #
loop $-1 $-1 $315 $126 #
plane-surface $-1 0 0 -1.8401974547563089 0 0 -1 -1 0 0 forward_v I I I I #
loop $-1 $-1 $316 $91 #
coedge $-1 $203 $203 $315 $317 reversed $127 $-1 #
face $-1 $-1 $318 $71 $-1 $319 forward single #
loop $-1 $-1 $320 $129 #
plane-surface $-1 0 0 -1.8401974547563089 0 0 -1 -1 0 0 forward_v I I I I #
loop $-1 $-1 $321 $92 #
coedge $-1 $208 $208 $320 $322 reversed $130 $-1 #
face $-1 $323 $324 $72 $-1 $325 reversed single #
loop $-1 $-1 $326 $132 #
plane-surface $-1 0 0 -115.27695547349467 0 0 1 1 0 0 forward_v I I I I #
coedge $-1 $327 $328 $329 $330 forward $133 $-1 #
face $-1 $-1 $331 $73 $-1 $332 forward single #
loop $-1 $-1 $333 $135 #
plane-surface $-1 0 0 -1.8401974547563089 0 0 -1 -1 0 0 forward_v I I I I #
loop $-1 $-1 $334 $94 #
coedge $-1 $217 $217 $333 $335 reversed $136 $-1 #
face $-1 $-1 $336 $74 $-1 $337 forward single #
loop $-1 $-1 $338 $138 #
plane-surface $-1 0 0 -1.8401974547563089 0 0 -1 -1 0 0 forward_v I I I I #
loop $-1 $-1 $339 $95 #
coedge $-1 $222 $222 $338 $340 reversed $139 $-1 #
face $-1 $-1 $341 $75 $-1 $342 forward single #
loop $-1 $-1 $343 $141 #
plane-surface $-1 0 0 -1.8401974547563089 0 0 -1 -1 0 0 forward_v I I I I #
loop $-1 $-1 $344 $96 #
coedge $-1 $227 $227 $343 $345 reversed $142 $-1 #
face $-1 $346 $347 $76 $-1 $348 reversed single #
loop $-1 $-1 $349 $144 #
plane-surface $-1 0 0 -115.27695547349467 0 0 1 1 0 0 forward_v I I I I #
coedge $-1 $350 $351 $352 $353 forward $145 $-1 #
face $-1 $-1 $354 $77 $-1 $355 forward single #
loop $-1 $-1 $356 $147 #
plane-surface $-1 0 0 -1.8401974547563089 0 0 -1 -1 0 0 forward_v I I I I #
loop $-1 $-1 $357 $98 #
coedge $-1 $236 $236 $356 $358 reversed $148 $-1 #
face $-1 $-1 $359 $78 $-1 $360 forward single #
loop $-1 $-1 $361 $150 #
plane-surface $-1 0 0 -1.8401974547563089 0 0 -1 -1 0 0 forward_v I I I I #
loop $-1 $-1 $362 $99 #
coedge $-1 $241 $241 $361 $363 reversed $151 $-1 #
face $-1 $-1 $364 $79 $-1 $365 forward single #
loop $-1 $-1 $366 $153 #
plane-surface $-1 0 0 -1.8401974547563089 0 0 -1 -1 0 0 forward_v I I I I #
loop $-1 $-1 $367 $100 #
coedge $-1 $246 $246 $366 $368 reversed $154 $-1 #
face $-1 $369 $370 $80 $-1 $371 reversed single #
loop $-1 $-1 $372 $156 #
plane-surface $-1 0 0 -115.27695547349467 0 0 1 1 0 0 forward_v I I I I #
coedge $-1 $373 $374 $375 $376 forward $157 $-1 #
face $-1 $-1 $377 $81 $-1 $378 forward single #
loop $-1 $-1 $379 $159 #
plane-surface $-1 0 0 -1.8401974547563089 0 0 -1 -1 0 0 forward_v I I I I #
loop $-1 $-1 $380 $102 #
coedge $-1 $255 $255 $379 $381 reversed $160 $-1 #
face $-1 $-1 $382 $82 $-1 $383 forward single #
loop $-1 $-1 $384 $162 #
plane-surface $-1 0 0 -1.8401974547563089 0 0 -1 -1 0 0 forward_v I I I I #
loop $-1 $-1 $385 $103 #
coedge $-1 $260 $260 $384 $386 reversed $163 $-1 #
face $-1 $-1 $387 $83 $-1 $388 forward single #
loop $-1 $-1 $389 $165 #
plane-surface $-1 0 0 -1.8401974547563089 0 0 -1 -1 0 0 forward_v I I I I #
loop $-1 $-1 $390 $104 #
coedge $-1 $265 $265 $389 $391 reversed $166 $-1 #
face $-1 $392 $393 $63 $-1 $394 reversed single #
loop $-1 $-1 $395 $168 #
plane-surface $-1 0 -34.653975971336735 0 0 1 0 0 0 1 forward_v I I I I #
coedge $-1 $396 $397 $398 $399 forward $169 $-1 #
coedge $-1 $400 $171 $401 $402 forward $106 $-1 #
coedge $-1 $171 $400 $403 $404 forward $106 $-1 #
coedge $-1 $405 $406 $171 $273 reversed $407 $-1 #
edge $-1 $408 -34.653975971336735 $409 34.653975971336735 $272 $410 forward 7 unknown #
face $-1 $411 $412 $64 $-1 $413 reversed single #
loop $-1 $-1 $414 $172 #
plane-surface $-1 0 -10.176289357379634 0 0 1 0 0 0 1 forward_v I I I I #
coedge $-1 $415 $416 $417 $418 forward $173 $-1 #
coedge $-1 $419 $175 $420 $421 forward $109 $-1 #
coedge $-1 $175 $419 $422 $423 forward $109 $-1 #
coedge $-1 $424 $425 $175 $281 reversed $426 $-1 #
edge $-1 $427 -10.176289357379634 $428 10.176289357379634 $280 $429 forward 7 unknown #
face $-1 $430 $431 $65 $-1 $432 reversed single #
loop $-1 $-1 $433 $176 #
plane-surface $-1 0 -6.3726333647162505 0 0 1 0 0 0 1 forward_v I I I I #
coedge $-1 $434 $435 $436 $437 forward $177 $-1 #
coedge $-1 $438 $179 $439 $440 forward $112 $-1 #
coedge $-1 $179 $438 $441 $442 forward $112 $-1 #
coedge $-1 $443 $444 $179 $289 reversed $445 $-1 #
edge $-1 $446 -6.3726333647162505 $447 6.3726333647162505 $288 $448 forward 7 unknown #
loop $-1 $449 $450 $180 #
cone-surface $-1 0 0 0 0 0 1 0.5 0 0 1 I I -0.70710678118654746 0.70710678118654746 0.5 forward I I I I #
coedge $-1 $292 $292 $184 $294 forward $181 $-1 #
coedge $-1 $293 $293 $450 $451 forward $183 $-1 #
edge $-1 $452 0 $452 6.2831853071796004 $292 $453 forward 7 unknown #
loop $-1 $454 $455 $185 #
cone-surface $-1 0 0 0 0 0 1 0.5 0 0 1 I I -0.70710678118654746 0.70710678118654746 0.5 forward I I I I #
coedge $-1 $297 $297 $189 $299 forward $186 $-1 #
coedge $-1 $298 $298 $455 $456 forward $188 $-1 #
edge $-1 $457 0 $457 6.2831853071796004 $297 $458 forward 7 unknown #
face $-1 $459 $460 $68 $-1 $461 reversed single #
loop $-1 $-1 $462 $190 #
plane-surface $-1 0 -3.1371647675636893 0 0 1 0 0 0 1 forward_v I I I I #
coedge $-1 $463 $464 $465 $466 forward $191 $-1 #
coedge $-1 $467 $193 $468 $469 forward $121 $-1 #
coedge $-1 $193 $467 $470 $471 forward $121 $-1 #
coedge $-1 $472 $473 $193 $307 reversed $474 $-1 #
edge $-1 $475 -3.1371647675636893 $476 3.1371647675636893 $306 $477 forward 7 unknown #
loop $-1 $478 $479 $194 #
cone-surface $-1 0 0 0 0 0 1 0.25 0 0 1 I I -0.70710678118654746 0.70710678118654746 0.25 forward I I I I #
coedge $-1 $310 $310 $198 $312 forward $195 $-1 #
coedge $-1 $311 $311 $479 $480 forward $197 $-1 #
edge $-1 $481 0 $481 6.2831853071796004 $310 $482 forward 7 unknown #
loop $-1 $483 $484 $199 #
cone-surface $-1 0 0 0 0 0 1 0.25 0 0 1 I I -0.70710678118654746 0.70710678118654746 0.25 forward I I I I #
coedge $-1 $315 $315 $203 $317 forward $200 $-1 #
coedge $-1 $316 $316 $484 $485 forward $202 $-1 #
edge $-1 $486 0 $486 6.2831853071796004 $315 $487 forward 7 unknown #
loop $-1 $488 $489 $204 #
cone-surface $-1 0 0 0 0 0 1 0.25 0 0 1 I I -0.70710678118654746 0.70710678118654746 0.25 forward I I I I #
coedge $-1 $320 $320 $208 $322 forward $205 $-1 #
coedge $-1 $321 $321 $489 $490 forward $207 $-1 #
edge $-1 $491 0 $491 6.2831853071796004 $320 $492 forward 7 unknown #
face $-1 $493 $494 $72 $-1 $495 reversed single #
loop $-1 $-1 $496 $209 #
plane-surface $-1 0 -3.1371647675636893 0 0 1 0 0 0 1 forward_v I I I I #
coedge $-1 $497 $498 $499 $500 forward $210 $-1 #
coedge $-1 $501 $212 $502 $503 forward $133 $-1 #
coedge $-1 $212 $501 $504 $505 forward $133 $-1 #
coedge $-1 $506 $507 $212 $330 reversed $508 $-1 #
edge $-1 $509 -3.1371647675636893 $510 3.1371647675636893 $329 $511 forward 7 unknown #
loop $-1 $512 $513 $213 #
cone-surface $-1 0 0 0 0 0 1 0.25 0 0 1 I I -0.70710678118654746 0.70710678118654746 0.25 forward I I I I #
coedge $-1 $333 $333 $217 $335 forward $214 $-1 #
coedge $-1 $334 $334 $513 $514 forward $216 $-1 #
edge $-1 $515 0 $515 6.2831853071796004 $333 $516 forward 7 unknown #
loop $-1 $517 $518 $218 #
cone-surface $-1 0 0 0 0 0 1 0.25 0 0 1 I I -0.70710678118654746 0.70710678118654746 0.25 forward I I I I #
coedge $-1 $338 $338 $222 $340 forward $219 $-1 #
coedge $-1 $339 $339 $518 $519 forward $221 $-1 #
edge $-1 $520 0 $520 6.2831853071796004 $338 $521 forward 7 unknown #
loop $-1 $522 $523 $223 #
cone-surface $-1 0 0 0 0 0 1 0.25 0 0 1 I I -0.70710678118654746 0.70710678118654746 0.25 forward I I I I #
coedge $-1 $343 $343 $227 $345 forward $224 $-1 #
coedge $-1 $344 $344 $523 $524 forward $226 $-1 #
edge $-1 $525 0 $525 6.2831853071796004 $343 $526 forward 7 unknown #
face $-1 $527 $528 $76 $-1 $529 reversed single #
loop $-1 $-1 $530 $228 #
plane-surface $-1 0 -3.1371647675636893 0 0 1 0 0 0 1 forward_v I I I I #
coedge $-1 $531 $532 $533 $534 forward $229 $-1 #
coedge $-1 $535 $231 $536 $537 forward $145 $-1 #
coedge $-1 $231 $535 $538 $539 forward $145 $-1 #
coedge $-1 $540 $541 $231 $353 reversed $542 $-1 #
edge $-1 $543 -3.1371647675636893 $544 3.1371647675636893 $352 $545 forward 7 unknown #
loop $-1 $546 $547 $232 #
cone-surface $-1 0 0 0 0 0 1 0.25 0 0 1 I I -0.70710678118654746 0.70710678118654746 0.25 forward I I I I #
coedge $-1 $356 $356 $236 $358 forward $233 $-1 #
coedge $-1 $357 $357 $547 $548 forward $235 $-1 #
edge $-1 $549 0 $549 6.2831853071796004 $356 $550 forward 7 unknown #
loop $-1 $551 $552 $237 #
cone-surface $-1 0 0 0 0 0 1 0.25 0 0 1 I I -0.70710678118654746 0.70710678118654746 0.25 forward I I I I #
coedge $-1 $361 $361 $241 $363 forward $238 $-1 #
coedge $-1 $362 $362 $552 $553 forward $240 $-1 #
edge $-1 $554 0 $554 6.2831853071796004 $361 $555 forward 7 unknown #
loop $-1 $556 $557 $242 #
cone-surface $-1 0 0 0 0 0 1 0.25 0 0 1 I I -0.70710678118654746 0.70710678118654746 0.25 forward I I I I #
coedge $-1 $366 $366 $246 $368 forward $243 $-1 #
coedge $-1 $367 $367 $557 $558 forward $245 $-1 #
edge $-1 $559 0 $559 6.2831853071796004 $366 $560 forward 7 unknown #
face $-1 $561 $562 $80 $-1 $563 reversed single #
loop $-1 $-1 $564 $247 #
plane-surface $-1 0 -3.1371647675636893 0 0 1 0 0 0 1 forward_v I I I I #
coedge $-1 $565 $566 $567 $568 forward $248 $-1 #
coedge $-1 $569 $250 $570 $571 forward $157 $-1 #
coedge $-1 $250 $569 $572 $573 forward $157 $-1 #
coedge $-1 $574 $575 $250 $376 reversed $576 $-1 #
edge $-1 $577 -3.1371647675636893 $578 3.1371647675636893 $375 $579 forward 7 unknown #
loop $-1 $580 $581 $251 #
cone-surface $-1 0 0 0 0 0 1 0.25 0 0 1 I I -0.70710678118654746 0.70710678118654746 0.25 forward I I I I #
coedge $-1 $379 $379 $255 $381 forward $252 $-1 #
coedge $-1 $380 $380 $581 $582 forward $254 $-1 #
edge $-1 $583 0 $583 6.2831853071796004 $379 $584 forward 7 unknown #
loop $-1 $585 $586 $256 #
cone-surface $-1 0 0 0 0 0 1 0.25 0 0 1 I I -0.70710678118654746 0.70710678118654746 0.25 forward I I I I #
coedge $-1 $384 $384 $260 $386 forward $257 $-1 #
coedge $-1 $385 $385 $586 $587 forward $259 $-1 #
edge $-1 $588 0 $588 6.2831853071796004 $384 $589 forward 7 unknown #
loop $-1 $590 $591 $261 #
cone-surface $-1 0 0 0 0 0 1 0.25 0 0 1 I I -0.70710678118654746 0.70710678118654746 0.25 forward I I I I #
coedge $-1 $389 $389 $265 $391 forward $262 $-1 #
coedge $-1 $390 $390 $591 $592 forward $264 $-1 #
edge $-1 $593 0 $593 6.2831853071796004 $389 $594 forward 7 unknown #
face $-1 $595 $596 $63 $-1 $597 reversed single #
loop $-1 $-1 $598 $266 #
plane-surface $-1 -57.638477736747333 0 0 1 0 0 0 0 -1 forward_v I I I I #
coedge $-1 $599 $403 $600 $601 forward $267 $-1 #
coedge $-1 $602 $269 $599 $603 forward $169 $-1 #
coedge $-1 $269 $602 $604 $605 forward $169 $-1 #
coedge $-1 $406 $405 $269 $399 reversed $407 $-1 #
edge $-1 $606 -34.653975971336735 $607 34.653975971336735 $398 $608 forward 7 unknown #
coedge $-1 $271 $270 $609 $610 forward $106 $-1 #
coedge $-1 $611 $612 $270 $402 reversed $596 $-1 #
edge $-1 $409 -57.638477736747333 $613 57.638477736747333 $401 $614 forward 7 unknown #
coedge $-1 $395 $615 $271 $404 reversed $267 $-1 #
edge $-1 $616 -57.638477736747333 $408 57.638477736747333 $403 $617 forward 7 unknown #
coedge $-1 $398 $272 $615 $618 forward $407 $-1 #
coedge $-1 $272 $398 $611 $619 reversed $407 $-1 #
loop $-1 $-1 $405 $595 #
vertex $-1 $273 $620 #
vertex $-1 $273 $621 #
straight-curve $-1 57.638477736747333 0 17.015422650997639 0 1 0 I I #
face $-1 $622 $623 $64 $-1 $624 reversed single #
loop $-1 $-1 $625 $274 #
plane-surface $-1 -57.638477736747333 0 0 1 0 0 0 0 -1 forward_v I I I I #
coedge $-1 $626 $422 $627 $628 forward $275 $-1 #
coedge $-1 $629 $277 $626 $630 forward $173 $-1 #
coedge $-1 $277 $629 $631 $632 forward $173 $-1 #
coedge $-1 $425 $424 $277 $418 reversed $426 $-1 #
edge $-1 $633 -10.176289357379634 $634 10.176289357379634 $417 $635 forward 7 unknown #
coedge $-1 $279 $278 $636 $637 forward $109 $-1 #
coedge $-1 $638 $639 $278 $421 reversed $623 $-1 #
edge $-1 $428 -57.638477736747333 $640 57.638477736747333 $420 $641 forward 7 unknown #
coedge $-1 $414 $642 $279 $423 reversed $275 $-1 #
edge $-1 $643 -57.638477736747333 $427 57.638477736747333 $422 $644 forward 7 unknown #
coedge $-1 $417 $280 $642 $645 forward $426 $-1 #
coedge $-1 $280 $417 $638 $646 reversed $426 $-1 #
loop $-1 $-1 $424 $622 #
vertex $-1 $281 $647 #
vertex $-1 $281 $648 #
straight-curve $-1 57.638477736747333 0 3.3237896591766285 0 1 0 I I #
face $-1 $649 $650 $65 $-1 $651 reversed single #
loop $-1 $-1 $652 $282 #
plane-surface $-1 -230.55391094698933 0 0 1 0 0 0 0 -1 forward_v I I I I #
coedge $-1 $653 $441 $654 $655 forward $283 $-1 #
coedge $-1 $656 $285 $653 $657 forward $177 $-1 #
coedge $-1 $285 $656 $658 $659 forward $177 $-1 #
coedge $-1 $444 $443 $285 $437 reversed $445 $-1 #
edge $-1 $660 -6.3726333647162505 $661 6.3726333647162505 $436 $662 forward 7 unknown #
coedge $-1 $287 $286 $663 $664 forward $112 $-1 #
coedge $-1 $665 $666 $286 $440 reversed $650 $-1 #
edge $-1 $447 -230.55391094698933 $667 230.55391094698933 $439 $668 forward 7 unknown #
coedge $-1 $433 $669 $287 $442 reversed $283 $-1 #
edge $-1 $670 -230.55391094698933 $446 230.55391094698933 $441 $671 forward 7 unknown #
coedge $-1 $436 $288 $669 $672 forward $445 $-1 #
coedge $-1 $288 $436 $665 $673 reversed $445 $-1 #
loop $-1 $-1 $443 $649 #
vertex $-1 $289 $674 #
vertex $-1 $289 $675 #
straight-curve $-1 230.55391094698933 0 115.27695547349467 0 1 0 I I #
loop $-1 $-1 $676 $180 #
coedge $-1 $450 $450 $293 $451 reversed $290 $-1 #
edge $-1 $677 0 $677 6.2831853071796004 $450 $678 forward 7 unknown #
vertex $-1 $294 $679 #
ellipse-curve $-1 0 0 -1.7101199377422418 0 0 -1 1 0 0 1 I I #
loop $-1 $-1 $680 $185 #
coedge $-1 $455 $455 $298 $456 reversed $295 $-1 #
edge $-1 $681 0 $681 6.2831853071796004 $455 $682 forward 7 unknown #
vertex $-1 $299 $683 #
ellipse-curve $-1 0 0 -1.7101199377422418 0 0 -1 1 0 0 1 I I #
face $-1 $684 $685 $68 $-1 $686 reversed single #
loop $-1 $-1 $687 $300 #
plane-surface $-1 -230.55391094698933 0 0 1 0 0 0 0 -1 forward_v I I I I #
coedge $-1 $688 $470 $689 $690 forward $301 $-1 #
coedge $-1 $691 $303 $688 $692 forward $191 $-1 #
coedge $-1 $303 $691 $693 $694 forward $191 $-1 #
coedge $-1 $473 $472 $303 $466 reversed $474 $-1 #
edge $-1 $695 -3.1371647675636893 $696 3.1371647675636893 $465 $697 forward 7 unknown #
coedge $-1 $305 $304 $698 $699 forward $121 $-1 #
coedge $-1 $700 $701 $304 $469 reversed $685 $-1 #
edge $-1 $476 -230.55391094698933 $702 230.55391094698933 $468 $703 forward 7 unknown #
coedge $-1 $462 $704 $305 $471 reversed $301 $-1 #
edge $-1 $705 -230.55391094698933 $475 230.55391094698933 $470 $706 forward 7 unknown #
coedge $-1 $465 $306 $704 $707 forward $474 $-1 #
coedge $-1 $306 $465 $700 $708 reversed $474 $-1 #
loop $-1 $-1 $472 $684 #
vertex $-1 $307 $709 #
vertex $-1 $307 $710 #
straight-curve $-1 230.55391094698933 0 115.27695547349467 0 1 0 I I #
loop $-1 $-1 $711 $194 #
coedge $-1 $479 $479 $311 $480 reversed $308 $-1 #
edge $-1 $712 0 $712 6.2831853071796004 $479 $713 forward 7 unknown #
vertex $-1 $312 $714 #
ellipse-curve $-1 0 0 -1.8401974547563089 0 0 -1 0.5 0 0 1 I I #
loop $-1 $-1 $715 $199 #
coedge $-1 $484 $484 $316 $485 reversed $313 $-1 #
edge $-1 $716 0 $716 6.2831853071796004 $484 $717 forward 7 unknown #
vertex $-1 $317 $718 #
ellipse-curve $-1 0 0 -1.8401974547563089 0 0 -1 0.5 0 0 1 I I #
loop $-1 $-1 $719 $204 #
coedge $-1 $489 $489 $321 $490 reversed $318 $-1 #
edge $-1 $720 0 $720 6.2831853071796004 $489 $721 forward 7 unknown #
vertex $-1 $322 $722 #
ellipse-curve $-1 0 0 -1.8401974547563089 0 0 -1 0.5 0 0 1 I I #
face $-1 $723 $724 $72 $-1 $725 reversed single #
loop $-1 $-1 $726 $323 #
plane-surface $-1 -230.55391094698933 0 0 1 0 0 0 0 -1 forward_v I I I I #
coedge $-1 $727 $504 $728 $729 forward $324 $-1 #
coedge $-1 $730 $326 $727 $731 forward $210 $-1 #
coedge $-1 $326 $730 $732 $733 forward $210 $-1 #
coedge $-1 $507 $506 $326 $500 reversed $508 $-1 #
edge $-1 $734 -3.1371647675636893 $735 3.1371647675636893 $499 $736 forward 7 unknown #
coedge $-1 $328 $327 $737 $738 forward $133 $-1 #
coedge $-1 $739 $740 $327 $503 reversed $724 $-1 #
edge $-1 $510 -230.55391094698933 $741 230.55391094698933 $502 $742 forward 7 unknown #
coedge $-1 $496 $743 $328 $505 reversed $324 $-1 #
edge $-1 $744 -230.55391094698933 $509 230.55391094698933 $504 $745 forward 7 unknown #
coedge $-1 $499 $329 $743 $746 forward $508 $-1 #
coedge $-1 $329 $499 $739 $747 reversed $508 $-1 #
loop $-1 $-1 $506 $723 #
vertex $-1 $330 $748 #
vertex $-1 $330 $749 #
straight-curve $-1 230.55391094698933 0 115.27695547349467 0 1 0 I I #
loop $-1 $-1 $750 $213 #
coedge $-1 $513 $513 $334 $514 reversed $331 $-1 #
edge $-1 $751 0 $751 6.2831853071796004 $513 $752 forward 7 unknown #
vertex $-1 $335 $753 #
ellipse-curve $-1 0 0 -1.8401974547563089 0 0 -1 0.5 0 0 1 I I #
loop $-1 $-1 $754 $218 #
coedge $-1 $518 $518 $339 $519 reversed $336 $-1 #
edge $-1 $755 0 $755 6.2831853071796004 $518 $756 forward 7 unknown #
vertex $-1 $340 $757 #
ellipse-curve $-1 0 0 -1.8401974547563089 0 0 -1 0.5 0 0 1 I I #
loop $-1 $-1 $758 $223 #
coedge $-1 $523 $523 $344 $524 reversed $341 $-1 #
edge $-1 $759 0 $759 6.2831853071796004 $523 $760 forward 7 unknown #
vertex $-1 $345 $761 #
ellipse-curve $-1 0 0 -1.8401974547563089 0 0 -1 0.5 0 0 1 I I #
face $-1 $762 $763 $76 $-1 $764 reversed single #
loop $-1 $-1 $765 $346 #
plane-surface $-1 -230.55391094698933 0 0 1 0 0 0 0 -1 forward_v I I I I #
coedge $-1 $766 $538 $767 $768 forward $347 $-1 #
coedge $-1 $769 $349 $766 $770 forward $229 $-1 #
coedge $-1 $349 $769 $771 $772 forward $229 $-1 #
coedge $-1 $541 $540 $349 $534 reversed $542 $-1 #
edge $-1 $773 -3.1371647675636893 $774 3.1371647675636893 $533 $775 forward 7 unknown #
coedge $-1 $351 $350 $776 $777 forward $145 $-1 #
coedge $-1 $778 $779 $350 $537 reversed $763 $-1 #
edge $-1 $544 -230.55391094698933 $780 230.55391094698933 $536 $781 forward 7 unknown #
coedge $-1 $530 $782 $351 $539 reversed $347 $-1 #
edge $-1 $783 -230.55391094698933 $543 230.55391094698933 $538 $784 forward 7 unknown #
coedge $-1 $533 $352 $782 $785 forward $542 $-1 #
coedge $-1 $352 $533 $778 $786 reversed $542 $-1 #
loop $-1 $-1 $540 $762 #
vertex $-1 $353 $787 #
vertex $-1 $353 $788 #
straight-curve $-1 230.55391094698933 0 115.27695547349467 0 1 0 I I #
loop $-1 $-1 $789 $232 #
coedge $-1 $547 $547 $357 $548 reversed $354 $-1 #
edge $-1 $790 0 $790 6.2831853071796004 $547 $791 forward 7 unknown #
vertex $-1 $358 $792 #
ellipse-curve $-1 0 0 -1.8401974547563089 0 0 -1 0.5 0 0 1 I I #
loop $-1 $-1 $793 $237 #
coedge $-1 $552 $552 $362 $553 reversed $359 $-1 #
edge $-1 $794 0 $794 6.2831853071796004 $552 $795 forward 7 unknown #
vertex $-1 $363 $796 #
ellipse-curve $-1 0 0 -1.8401974547563089 0 0 -1 0.5 0 0 1 I I #
loop $-1 $-1 $797 $242 #
coedge $-1 $557 $557 $367 $558 reversed $364 $-1 #
edge $-1 $798 0 $798 6.2831853071796004 $557 $799 forward 7 unknown #
vertex $-1 $368 $800 #
ellipse-curve $-1 0 0 -1.8401974547563089 0 0 -1 0.5 0 0 1 I I #
face $-1 $801 $802 $80 $-1 $803 reversed single #
loop $-1 $-1 $804 $369 #
plane-surface $-1 -230.55391094698933 0 0 1 0 0 0 0 -1 forward_v I I I I #
coedge $-1 $805 $572 $806 $807 forward $370 $-1 #
coedge $-1 $808 $372 $805 $809 forward $248 $-1 #
coedge $-1 $372 $808 $810 $811 forward $248 $-1 #
coedge $-1 $575 $574 $372 $568 reversed $576 $-1 #
edge $-1 $812 -3.1371647675636893 $813 3.1371647675636893 $567 $814 forward 7 unknown #
coedge $-1 $374 $373 $815 $816 forward $157 $-1 #
coedge $-1 $817 $818 $373 $571 reversed $802 $-1 #
edge $-1 $578 -230.55391094698933 $819 230.55391094698933 $570 $820 forward 7 unknown #
coedge $-1 $564 $821 $374 $573 reversed $370 $-1 #
edge $-1 $822 -230.55391094698933 $577 230.55391094698933 $572 $823 forward 7 unknown #
coedge $-1 $567 $375 $821 $824 forward $576 $-1 #
coedge $-1 $375 $567 $817 $825 reversed $576 $-1 #
loop $-1 $-1 $574 $801 #
vertex $-1 $376 $826 #
vertex $-1 $376 $827 #
straight-curve $-1 230.55391094698933 0 115.27695547349467 0 1 0 I I #
loop $-1 $-1 $828 $251 #
coedge $-1 $581 $581 $380 $582 reversed $377 $-1 #
edge $-1 $829 0 $829 6.2831853071796004 $581 $830 forward 7 unknown #
vertex $-1 $381 $831 #
ellipse-curve $-1 0 0 -1.8401974547563089 0 0 -1 0.5 0 0 1 I I #
loop $-1 $-1 $832 $256 #
coedge $-1 $586 $586 $385 $587 reversed $382 $-1 #
edge $-1 $833 0 $833 6.2831853071796004 $586 $834 forward 7 unknown #
vertex $-1 $386 $835 #
ellipse-curve $-1 0 0 -1.8401974547563089 0 0 -1 0.5 0 0 1 I I #
loop $-1 $-1 $836 $261 #
coedge $-1 $591 $591 $390 $592 reversed $387 $-1 #
edge $-1 $837 0 $837 6.2831853071796004 $591 $838 forward 7 unknown #
vertex $-1 $391 $839 #
ellipse-curve $-1 0 0 -1.8401974547563089 0 0 -1 0.5 0 0 1 I I #
face $-1 $-1 $407 $63 $-1 $840 reversed single #
loop $-1 $-1 $611 $392 #
plane-surface $-1 0 34.653975971336735 0 0 -1 0 0 0 -1 forward_v I I I I #
coedge $-1 $841 $609 $612 $842 forward $393 $-1 #
coedge $-1 $615 $395 $396 $603 reversed $267 $-1 #
coedge $-1 $609 $841 $395 $601 reversed $393 $-1 #
edge $-1 $616 -17.015422650997639 $843 17.015422650997639 $600 $844 forward 7 unknown #
coedge $-1 $397 $396 $841 $845 forward $169 $-1 #
edge $-1 $607 -57.638477736747333 $843 57.638477736747333 $599 $846 forward 7 unknown #
coedge $-1 $612 $611 $397 $605 reversed $596 $-1 #
edge $-1 $847 -57.638477736747333 $606 57.638477736747333 $604 $848 forward 7 unknown #
vertex $-1 $399 $849 #
vertex $-1 $618 $850 #
straight-curve $-1 57.638477736747333 0 -17.015422650997639 0 -1 0 I I #
coedge $-1 $598 $600 $400 $610 reversed $393 $-1 #
edge $-1 $613 -34.653975971336735 $616 34.653975971336735 $609 $851 forward 7 unknown #
coedge $-1 $604 $401 $406 $619 forward $596 $-1 #
coedge $-1 $401 $604 $598 $842 reversed $596 $-1 #
vertex $-1 $402 $852 #
straight-curve $-1 0 34.653975971336735 17.015422650997639 -1 0 0 I I #
coedge $-1 $403 $599 $405 $618 reversed $267 $-1 #
vertex $-1 $610 $853 #
straight-curve $-1 0 -34.653975971336735 17.015422650997639 1 0 0 I I #
edge $-1 $408 -17.015422650997639 $607 17.015422650997639 $405 $854 forward 7 unknown #
edge $-1 $409 -17.015422650997639 $606 17.015422650997639 $406 $855 forward 7 unknown #
point $-1 57.638477736747333 -34.653975971336735 17.015422650997639 #
point $-1 57.638477736747333 34.653975971336735 17.015422650997639 #
face $-1 $-1 $426 $64 $-1 $856 reversed single #
loop $-1 $-1 $638 $411 #
plane-surface $-1 0 10.176289357379634 0 0 -1 0 0 0 -1 forward_v I I I I #
coedge $-1 $857 $636 $639 $858 forward $412 $-1 #
coedge $-1 $642 $414 $415 $630 reversed $275 $-1 #
coedge $-1 $636 $857 $414 $628 reversed $412 $-1 #
edge $-1 $643 -3.3237896591766285 $859 3.3237896591766285 $627 $860 forward 7 unknown #
coedge $-1 $416 $415 $857 $861 forward $173 $-1 #
edge $-1 $634 -57.638477736747333 $859 57.638477736747333 $626 $862 forward 7 unknown #
coedge $-1 $639 $638 $416 $632 reversed $623 $-1 #
edge $-1 $863 -57.638477736747333 $633 57.638477736747333 $631 $864 forward 7 unknown #
vertex $-1 $418 $865 #
vertex $-1 $645 $866 #
straight-curve $-1 57.638477736747333 0 -3.3237896591766285 0 -1 0 I I #
coedge $-1 $625 $627 $419 $637 reversed $412 $-1 #
edge $-1 $640 -10.176289357379634 $643 10.176289357379634 $636 $867 forward 7 unknown #
coedge $-1 $631 $420 $425 $646 forward $623 $-1 #
coedge $-1 $420 $631 $625 $858 reversed $623 $-1 #
vertex $-1 $421 $868 #
straight-curve $-1 0 10.176289357379634 3.3237896591766285 -1 0 0 I I #
coedge $-1 $422 $626 $424 $645 reversed $275 $-1 #
vertex $-1 $637 $869 #
straight-curve $-1 0 -10.176289357379634 3.3237896591766285 1 0 0 I I #
edge $-1 $427 -3.3237896591766285 $634 3.3237896591766285 $424 $870 forward 7 unknown #
edge $-1 $428 -3.3237896591766285 $633 3.3237896591766285 $425 $871 forward 7 unknown #
point $-1 57.638477736747333 -10.176289357379634 3.3237896591766285 #
point $-1 57.638477736747333 10.176289357379634 3.3237896591766285 #
face $-1 $-1 $445 $65 $-1 $872 reversed single #
loop $-1 $-1 $665 $430 #
plane-surface $-1 0 6.3726333647162505 0 0 -1 0 0 0 -1 forward_v I I I I #
coedge $-1 $873 $663 $666 $874 forward $431 $-1 #
coedge $-1 $669 $433 $434 $657 reversed $283 $-1 #
coedge $-1 $663 $873 $433 $655 reversed $431 $-1 #
edge $-1 $670 -115.27695547349467 $875 115.27695547349467 $654 $876 forward 7 unknown #
coedge $-1 $435 $434 $873 $877 forward $177 $-1 #
edge $-1 $661 -230.55391094698933 $875 230.55391094698933 $653 $878 forward 7 unknown #
coedge $-1 $666 $665 $435 $659 reversed $650 $-1 #
edge $-1 $879 -230.55391094698933 $660 230.55391094698933 $658 $880 forward 7 unknown #
vertex $-1 $437 $881 #
vertex $-1 $672 $882 #
straight-curve $-1 230.55391094698933 0 -115.27695547349467 0 -1 0 I I #
coedge $-1 $652 $654 $438 $664 reversed $431 $-1 #
edge $-1 $667 -6.3726333647162505 $670 6.3726333647162505 $663 $883 forward 7 unknown #
coedge $-1 $658 $439 $444 $673 forward $650 $-1 #
coedge $-1 $439 $658 $652 $874 reversed $650 $-1 #
vertex $-1 $440 $884 #
straight-curve $-1 0 6.3726333647162505 115.27695547349467 -1 0 0 I I #
coedge $-1 $441 $653 $443 $672 reversed $283 $-1 #
vertex $-1 $664 $885 #
straight-curve $-1 0 -6.3726333647162505 115.27695547349467 1 0 0 I I #
edge $-1 $446 -115.27695547349467 $661 115.27695547349467 $443 $886 forward 7 unknown #
edge $-1 $447 -115.27695547349467 $660 115.27695547349467 $444 $887 forward 7 unknown #
point $-1 230.55391094698933 -6.3726333647162505 115.27695547349467 #
point $-1 230.55391094698933 6.3726333647162505 115.27695547349467 #
coedge $-1 $676 $676 $-1 $888 reversed $449 $-1 #
vertex $-1 $451 $889 #
ellipse-curve $-1 0 0 -0.5 0 0 -1 1 0 0 1 I I #
point $-1 1 0 -1.7101199377422418 #
coedge $-1 $680 $680 $-1 $890 reversed $454 $-1 #
vertex $-1 $456 $891 #
ellipse-curve $-1 0 0 -0.5 0 0 -1 1 0 0 1 I I #
point $-1 1 0 -1.7101199377422418 #
face $-1 $-1 $474 $68 $-1 $892 reversed single #
loop $-1 $-1 $700 $459 #
plane-surface $-1 0 3.1371647675636893 0 0 -1 0 0 0 -1 forward_v I I I I #
coedge $-1 $893 $698 $701 $894 forward $460 $-1 #
coedge $-1 $704 $462 $463 $692 reversed $301 $-1 #
coedge $-1 $698 $893 $462 $690 reversed $460 $-1 #
edge $-1 $705 -115.27695547349467 $895 115.27695547349467 $689 $896 forward 7 unknown #
coedge $-1 $464 $463 $893 $897 forward $191 $-1 #
edge $-1 $696 -230.55391094698933 $895 230.55391094698933 $688 $898 forward 7 unknown #
coedge $-1 $701 $700 $464 $694 reversed $685 $-1 #
edge $-1 $899 -230.55391094698933 $695 230.55391094698933 $693 $900 forward 7 unknown #
vertex $-1 $466 $901 #
vertex $-1 $707 $902 #
straight-curve $-1 230.55391094698933 0 -115.27695547349467 0 -1 0 I I #
coedge $-1 $687 $689 $467 $699 reversed $460 $-1 #
edge $-1 $702 -3.1371647675636893 $705 3.1371647675636893 $698 $903 forward 7 unknown #
coedge $-1 $693 $468 $473 $708 forward $685 $-1 #
coedge $-1 $468 $693 $687 $894 reversed $685 $-1 #
vertex $-1 $469 $904 #
straight-curve $-1 0 3.1371647675636893 115.27695547349467 -1 0 0 I I #
coedge $-1 $470 $688 $472 $707 reversed $301 $-1 #
vertex $-1 $699 $905 #
straight-curve $-1 0 -3.1371647675636893 115.27695547349467 1 0 0 I I #
edge $-1 $475 -115.27695547349467 $696 115.27695547349467 $472 $906 forward 7 unknown #
edge $-1 $476 -115.27695547349467 $695 115.27695547349467 $473 $907 forward 7 unknown #
point $-1 230.55391094698933 -3.1371647675636893 115.27695547349467 #
point $-1 230.55391094698933 3.1371647675636893 115.27695547349467 #
coedge $-1 $711 $711 $-1 $908 reversed $478 $-1 #
vertex $-1 $480 $909 #
ellipse-curve $-1 0 0 -0.25 0 0 -1 0.5 0 0 1 I I #
point $-1 0.5 0 -1.8401974547563089 #
coedge $-1 $715 $715 $-1 $910 reversed $483 $-1 #
vertex $-1 $485 $911 #
ellipse-curve $-1 0 0 -0.25 0 0 -1 0.5 0 0 1 I I #
point $-1 0.5 0 -1.8401974547563089 #
coedge $-1 $719 $719 $-1 $912 reversed $488 $-1 #
vertex $-1 $490 $913 #
ellipse-curve $-1 0 0 -0.25 0 0 -1 0.5 0 0 1 I I #
point $-1 0.5 0 -1.8401974547563089 #
face $-1 $-1 $508 $72 $-1 $914 reversed single #
loop $-1 $-1 $739 $493 #
plane-surface $-1 0 3.1371647675636893 0 0 -1 0 0 0 -1 forward_v I I I I #
coedge $-1 $915 $737 $740 $916 forward $494 $-1 #
coedge $-1 $743 $496 $497 $731 reversed $324 $-1 #
coedge $-1 $737 $915 $496 $729 reversed $494 $-1 #
edge $-1 $744 -115.27695547349467 $917 115.27695547349467 $728 $918 forward 7 unknown #
coedge $-1 $498 $497 $915 $919 forward $210 $-1 #
edge $-1 $735 -230.55391094698933 $917 230.55391094698933 $727 $920 forward 7 unknown #
coedge $-1 $740 $739 $498 $733 reversed $724 $-1 #
edge $-1 $921 -230.55391094698933 $734 230.55391094698933 $732 $922 forward 7 unknown #
vertex $-1 $500 $923 #
vertex $-1 $746 $924 #
straight-curve $-1 230.55391094698933 0 -115.27695547349467 0 -1 0 I I #
coedge $-1 $726 $728 $501 $738 reversed $494 $-1 #
edge $-1 $741 -3.1371647675636893 $744 3.1371647675636893 $737 $925 forward 7 unknown #
coedge $-1 $732 $502 $507 $747 forward $724 $-1 #
coedge $-1 $502 $732 $726 $916 reversed $724 $-1 #
vertex $-1 $503 $926 #
straight-curve $-1 0 3.1371647675636893 115.27695547349467 -1 0 0 I I #
coedge $-1 $504 $727 $506 $746 reversed $324 $-1 #
vertex $-1 $738 $927 #
straight-curve $-1 0 -3.1371647675636893 115.27695547349467 1 0 0 I I #
edge $-1 $509 -115.27695547349467 $735 115.27695547349467 $506 $928 forward 7 unknown #
edge $-1 $510 -115.27695547349467 $734 115.27695547349467 $507 $929 forward 7 unknown #
point $-1 230.55391094698933 -3.1371647675636893 115.27695547349467 #
point $-1 230.55391094698933 3.1371647675636893 115.27695547349467 #
coedge $-1 $750 $750 $-1 $930 reversed $512 $-1 #
vertex $-1 $514 $931 #
ellipse-curve $-1 0 0 -0.25 0 0 -1 0.5 0 0 1 I I #
point $-1 0.5 0 -1.8401974547563089 #
coedge $-1 $754 $754 $-1 $932 reversed $517 $-1 #
vertex $-1 $519 $933 #
ellipse-curve $-1 0 0 -0.25 0 0 -1 0.5 0 0 1 I I #
point $-1 0.5 0 -1.8401974547563089 #
coedge $-1 $758 $758 $-1 $934 reversed $522 $-1 #
vertex $-1 $524 $935 #
ellipse-curve $-1 0 0 -0.25 0 0 -1 0.5 0 0 1 I I #
point $-1 0.5 0 -1.8401974547563089 #
face $-1 $-1 $542 $76 $-1 $936 reversed single #
loop $-1 $-1 $778 $527 #
plane-surface $-1 0 3.1371647675636893 0 0 -1 0 0 0 -1 forward_v I I I I #
coedge $-1 $937 $776 $779 $938 forward $528 $-1 #
coedge $-1 $782 $530 $531 $770 reversed $347 $-1 #
coedge $-1 $776 $937 $530 $768 reversed $528 $-1 #
edge $-1 $783 -115.27695547349467 $939 115.27695547349467 $767 $940 forward 7 unknown #
coedge $-1 $532 $531 $937 $941 forward $229 $-1 #
edge $-1 $774 -230.55391094698933 $939 230.55391094698933 $766 $942 forward 7 unknown #
coedge $-1 $779 $778 $532 $772 reversed $763 $-1 #
edge $-1 $943 -230.55391094698933 $773 230.55391094698933 $771 $944 forward 7 unknown #
vertex $-1 $534 $945 #
vertex $-1 $785 $946 #
straight-curve $-1 230.55391094698933 0 -115.27695547349467 0 -1 0 I I #
coedge $-1 $765 $767 $535 $777 reversed $528 $-1 #
edge $-1 $780 -3.1371647675636893 $783 3.1371647675636893 $776 $947 forward 7 unknown #
coedge $-1 $771 $536 $541 $786 forward $763 $-1 #
coedge $-1 $536 $771 $765 $938 reversed $763 $-1 #
vertex $-1 $537 $948 #
straight-curve $-1 0 3.1371647675636893 115.27695547349467 -1 0 0 I I #
coedge $-1 $538 $766 $540 $785 reversed $347 $-1 #
vertex $-1 $777 $949 #
straight-curve $-1 0 -3.1371647675636893 115.27695547349467 1 0 0 I I #
edge $-1 $543 -115.27695547349467 $774 115.27695547349467 $540 $950 forward 7 unknown #
edge $-1 $544 -115.27695547349467 $773 115.27695547349467 $541 $951 forward 7 unknown #
point $-1 230.55391094698933 -3.1371647675636893 115.27695547349467 #
point $-1 230.55391094698933 3.1371647675636893 115.27695547349467 #
coedge $-1 $789 $789 $-1 $952 reversed $546 $-1 #
vertex $-1 $548 $953 #
ellipse-curve $-1 0 0 -0.25 0 0 -1 0.5 0 0 1 I I #
point $-1 0.5 0 -1.8401974547563089 #
coedge $-1 $793 $793 $-1 $954 reversed $551 $-1 #
vertex $-1 $553 $955 #
ellipse-curve $-1 0 0 -0.25 0 0 -1 0.5 0 0 1 I I #
point $-1 0.5 0 -1.8401974547563089 #
coedge $-1 $797 $797 $-1 $956 reversed $556 $-1 #
vertex $-1 $558 $957 #
ellipse-curve $-1 0 0 -0.25 0 0 -1 0.5 0 0 1 I I #
point $-1 0.5 0 -1.8401974547563089 #
face $-1 $-1 $576 $80 $-1 $958 reversed single #
loop $-1 $-1 $817 $561 #
plane-surface $-1 0 3.1371647675636893 0 0 -1 0 0 0 -1 forward_v I I I I #
coedge $-1 $959 $815 $818 $960 forward $562 $-1 #
coedge $-1 $821 $564 $565 $809 reversed $370 $-1 #
coedge $-1 $815 $959 $564 $807 reversed $562 $-1 #
edge $-1 $822 -115.27695547349467 $961 115.27695547349467 $806 $962 forward 7 unknown #
coedge $-1 $566 $565 $959 $963 forward $248 $-1 #
edge $-1 $813 -230.55391094698933 $961 230.55391094698933 $805 $964 forward 7 unknown #
coedge $-1 $818 $817 $566 $811 reversed $802 $-1 #
edge $-1 $965 -230.55391094698933 $812 230.55391094698933 $810 $966 forward 7 unknown #
vertex $-1 $568 $967 #
vertex $-1 $824 $968 #
straight-curve $-1 230.55391094698933 0 -115.27695547349467 0 -1 0 I I #
coedge $-1 $804 $806 $569 $816 reversed $562 $-1 #
edge $-1 $819 -3.1371647675636893 $822 3.1371647675636893 $815 $969 forward 7 unknown #
coedge $-1 $810 $570 $575 $825 forward $802 $-1 #
coedge $-1 $570 $810 $804 $960 reversed $802 $-1 #
vertex $-1 $571 $970 #
straight-curve $-1 0 3.1371647675636893 115.27695547349467 -1 0 0 I I #
coedge $-1 $572 $805 $574 $824 reversed $370 $-1 #
vertex $-1 $816 $971 #
straight-curve $-1 0 -3.1371647675636893 115.27695547349467 1 0 0 I I #
edge $-1 $577 -115.27695547349467 $813 115.27695547349467 $574 $972 forward 7 unknown #
edge $-1 $578 -115.27695547349467 $812 115.27695547349467 $575 $973 forward 7 unknown #
point $-1 230.55391094698933 -3.1371647675636893 115.27695547349467 #
point $-1 230.55391094698933 3.1371647675636893 115.27695547349467 #
coedge $-1 $828 $828 $-1 $974 reversed $580 $-1 #
vertex $-1 $582 $975 #
ellipse-curve $-1 0 0 -0.25 0 0 -1 0.5 0 0 1 I I #
point $-1 0.5 0 -1.8401974547563089 #
coedge $-1 $832 $832 $-1 $976 reversed $585 $-1 #
vertex $-1 $587 $977 #
ellipse-curve $-1 0 0 -0.25 0 0 -1 0.5 0 0 1 I I #
point $-1 0.5 0 -1.8401974547563089 #
coedge $-1 $836 $836 $-1 $978 reversed $590 $-1 #
vertex $-1 $592 $979 #
ellipse-curve $-1 0 0 -0.25 0 0 -1 0.5 0 0 1 I I #
point $-1 0.5 0 -1.8401974547563089 #
plane-surface $-1 57.638477736747333 0 0 -1 0 0 0 0 1 forward_v I I I I #
coedge $-1 $600 $598 $602 $845 reversed $393 $-1 #
edge $-1 $613 -17.015422650997639 $847 17.015422650997639 $612 $980 forward 7 unknown #
vertex $-1 $845 $981 #
straight-curve $-1 -57.638477736747333 -34.653975971336735 0 0 0 -1 I I #
edge $-1 $843 -34.653975971336735 $847 34.653975971336735 $841 $982 forward 7 unknown #
straight-curve $-1 0 -34.653975971336735 -17.015422650997639 -1 0 0 I I #
vertex $-1 $605 $983 #
straight-curve $-1 0 34.653975971336735 -17.015422650997639 1 0 0 I I #
point $-1 57.638477736747333 34.653975971336735 -17.015422650997639 #
point $-1 57.638477736747333 -34.653975971336735 -17.015422650997639 #
straight-curve $-1 -57.638477736747333 0 17.015422650997639 0 -1 0 I I #
point $-1 -57.638477736747333 34.653975971336735 17.015422650997639 #
point $-1 -57.638477736747333 -34.653975971336735 17.015422650997639 #
straight-curve $-1 57.638477736747333 -34.653975971336735 0 0 0 -1 I I #
straight-curve $-1 57.638477736747333 34.653975971336735 0 0 0 -1 I I #
plane-surface $-1 57.638477736747333 0 0 -1 0 0 0 0 1 forward_v I I I I #
coedge $-1 $627 $625 $629 $861 reversed $412 $-1 #
edge $-1 $640 -3.3237896591766285 $863 3.3237896591766285 $639 $984 forward 7 unknown #
vertex $-1 $861 $985 #
straight-curve $-1 -57.638477736747333 -10.176289357379634 0 0 0 -1 I I #
edge $-1 $859 -10.176289357379634 $863 10.176289357379634 $857 $986 forward 7 unknown #
straight-curve $-1 0 -10.176289357379634 -3.3237896591766285 -1 0 0 I I #
vertex $-1 $632 $987 #
straight-curve $-1 0 10.176289357379634 -3.3237896591766285 1 0 0 I I #
point $-1 57.638477736747333 10.176289357379634 -3.3237896591766285 #
point $-1 57.638477736747333 -10.176289357379634 -3.3237896591766285 #
straight-curve $-1 -57.638477736747333 0 3.3237896591766285 0 -1 0 I I #
point $-1 -57.638477736747333 10.176289357379634 3.3237896591766285 #
point $-1 -57.638477736747333 -10.176289357379634 3.3237896591766285 #
straight-curve $-1 57.638477736747333 -10.176289357379634 0 0 0 -1 I I #
straight-curve $-1 57.638477736747333 10.176289357379634 0 0 0 -1 I I #
plane-surface $-1 230.55391094698933 0 0 -1 0 0 0 0 1 forward_v I I I I #
coedge $-1 $654 $652 $656 $877 reversed $431 $-1 #
edge $-1 $667 -115.27695547349467 $879 115.27695547349467 $666 $988 forward 7 unknown #
vertex $-1 $877 $989 #
straight-curve $-1 -230.55391094698933 -6.3726333647162505 0 0 0 -1 I I #
edge $-1 $875 -6.3726333647162505 $879 6.3726333647162505 $873 $990 forward 7 unknown #
straight-curve $-1 0 -6.3726333647162505 -115.27695547349467 -1 0 0 I I #
vertex $-1 $659 $991 #
straight-curve $-1 0 6.3726333647162505 -115.27695547349467 1 0 0 I I #
point $-1 230.55391094698933 6.3726333647162505 -115.27695547349467 #
point $-1 230.55391094698933 -6.3726333647162505 -115.27695547349467 #
straight-curve $-1 -230.55391094698933 0 115.27695547349467 0 -1 0 I I #
point $-1 -230.55391094698933 6.3726333647162505 115.27695547349467 #
point $-1 -230.55391094698933 -6.3726333647162505 115.27695547349467 #
straight-curve $-1 230.55391094698933 -6.3726333647162505 0 0 0 -1 I I #
straight-curve $-1 230.55391094698933 6.3726333647162505 0 0 0 -1 I I #
edge $-1 $992 1 $992 0 $676 $-1 forward 7 unknown #
point $-1 1 0 -0.5 #
edge $-1 $993 1 $993 0 $680 $-1 forward 7 unknown #
point $-1 1 0 -0.5 #
plane-surface $-1 230.55391094698933 0 0 -1 0 0 0 0 1 forward_v I I I I #
coedge $-1 $689 $687 $691 $897 reversed $460 $-1 #
edge $-1 $702 -115.27695547349467 $899 115.27695547349467 $701 $994 forward 7 unknown #
vertex $-1 $897 $995 #
straight-curve $-1 -230.55391094698933 -3.1371647675636893 0 0 0 -1 I I #
edge $-1 $895 -3.1371647675636893 $899 3.1371647675636893 $893 $996 forward 7 unknown #
straight-curve $-1 0 -3.1371647675636893 -115.27695547349467 -1 0 0 I I #
vertex $-1 $694 $997 #
straight-curve $-1 0 3.1371647675636893 -115.27695547349467 1 0 0 I I #
point $-1 230.55391094698933 3.1371647675636893 -115.27695547349467 #
point $-1 230.55391094698933 -3.1371647675636893 -115.27695547349467 #
straight-curve $-1 -230.55391094698933 0 115.27695547349467 0 -1 0 I I #
point $-1 -230.55391094698933 3.1371647675636893 115.27695547349467 #
point $-1 -230.55391094698933 -3.1371647675636893 115.27695547349467 #
straight-curve $-1 230.55391094698933 -3.1371647675636893 0 0 0 -1 I I #
straight-curve $-1 230.55391094698933 3.1371647675636893 0 0 0 -1 I I #
edge $-1 $998 1 $998 0 $711 $-1 forward 7 unknown #
point $-1 0.5 0 -0.25 #
edge $-1 $999 1 $999 0 $715 $-1 forward 7 unknown #
point $-1 0.5 0 -0.25 #
edge $-1 $1000 1 $1000 0 $719 $-1 forward 7 unknown #
point $-1 0.5 0 -0.25 #
plane-surface $-1 230.55391094698933 0 0 -1 0 0 0 0 1 forward_v I I I I #
coedge $-1 $728 $726 $730 $919 reversed $494 $-1 #
edge $-1 $741 -115.27695547349467 $921 115.27695547349467 $740 $1001 forward 7 unknown #
vertex $-1 $919 $1002 #
straight-curve $-1 -230.55391094698933 -3.1371647675636893 0 0 0 -1 I I #
edge $-1 $917 -3.1371647675636893 $921 3.1371647675636893 $915 $1003 forward 7 unknown #
straight-curve $-1 0 -3.1371647675636893 -115.27695547349467 -1 0 0 I I #
vertex $-1 $733 $1004 #
straight-curve $-1 0 3.1371647675636893 -115.27695547349467 1 0 0 I I #
point $-1 230.55391094698933 3.1371647675636893 -115.27695547349467 #
point $-1 230.55391094698933 -3.1371647675636893 -115.27695547349467 #
straight-curve $-1 -230.55391094698933 0 115.27695547349467 0 -1 0 I I #
point $-1 -230.55391094698933 3.1371647675636893 115.27695547349467 #
point $-1 -230.55391094698933 -3.1371647675636893 115.27695547349467 #
straight-curve $-1 230.55391094698933 -3.1371647675636893 0 0 0 -1 I I #
straight-curve $-1 230.55391094698933 3.1371647675636893 0 0 0 -1 I I #
edge $-1 $1005 1 $1005 0 $750 $-1 forward 7 unknown #
point $-1 0.5 0 -0.25 #
edge $-1 $1006 1 $1006 0 $754 $-1 forward 7 unknown #
point $-1 0.5 0 -0.25 #
edge $-1 $1007 1 $1007 0 $758 $-1 forward 7 unknown #
point $-1 0.5 0 -0.25 #
plane-surface $-1 230.55391094698933 0 0 -1 0 0 0 0 1 forward_v I I I I #
coedge $-1 $767 $765 $769 $941 reversed $528 $-1 #
edge $-1 $780 -115.27695547349467 $943 115.27695547349467 $779 $1008 forward 7 unknown #
vertex $-1 $941 $1009 #
straight-curve $-1 -230.55391094698933 -3.1371647675636893 0 0 0 -1 I I #
edge $-1 $939 -3.1371647675636893 $943 3.1371647675636893 $937 $1010 forward 7 unknown #
straight-curve $-1 0 -3.1371647675636893 -115.27695547349467 -1 0 0 I I #
vertex $-1 $772 $1011 #
straight-curve $-1 0 3.1371647675636893 -115.27695547349467 1 0 0 I I #
point $-1 230.55391094698933 3.1371647675636893 -115.27695547349467 #
point $-1 230.55391094698933 -3.1371647675636893 -115.27695547349467 #
straight-curve $-1 -230.55391094698933 0 115.27695547349467 0 -1 0 I I #
point $-1 -230.55391094698933 3.1371647675636893 115.27695547349467 #
point $-1 -230.55391094698933 -3.1371647675636893 115.27695547349467 #
straight-curve $-1 230.55391094698933 -3.1371647675636893 0 0 0 -1 I I #
straight-curve $-1 230.55391094698933 3.1371647675636893 0 0 0 -1 I I #
edge $-1 $1012 1 $1012 0 $789 $-1 forward 7 unknown #
point $-1 0.5 0 -0.25 #
edge $-1 $1013 1 $1013 0 $793 $-1 forward 7 unknown #
point $-1 0.5 0 -0.25 #
edge $-1 $1014 1 $1014 0 $797 $-1 forward 7 unknown #
point $-1 0.5 0 -0.25 #
plane-surface $-1 230.55391094698933 0 0 -1 0 0 0 0 1 forward_v I I I I #
coedge $-1 $806 $804 $808 $963 reversed $562 $-1 #
edge $-1 $819 -115.27695547349467 $965 115.27695547349467 $818 $1015 forward 7 unknown #
vertex $-1 $963 $1016 #
straight-curve $-1 -230.55391094698933 -3.1371647675636893 0 0 0 -1 I I #
edge $-1 $961 -3.1371647675636893 $965 3.1371647675636893 $959 $1017 forward 7 unknown #
straight-curve $-1 0 -3.1371647675636893 -115.27695547349467 -1 0 0 I I #
vertex $-1 $811 $1018 #
straight-curve $-1 0 3.1371647675636893 -115.27695547349467 1 0 0 I I #
point $-1 230.55391094698933 3.1371647675636893 -115.27695547349467 #
point $-1 230.55391094698933 -3.1371647675636893 -115.27695547349467 #
straight-curve $-1 -230.55391094698933 0 115.27695547349467 0 -1 0 I I #
point $-1 -230.55391094698933 3.1371647675636893 115.27695547349467 #
point $-1 -230.55391094698933 -3.1371647675636893 115.27695547349467 #
straight-curve $-1 230.55391094698933 -3.1371647675636893 0 0 0 -1 I I #
straight-curve $-1 230.55391094698933 3.1371647675636893 0 0 0 -1 I I #
edge $-1 $1019 1 $1019 0 $828 $-1 forward 7 unknown #
point $-1 0.5 0 -0.25 #
edge $-1 $1020 1 $1020 0 $832 $-1 forward 7 unknown #
point $-1 0.5 0 -0.25 #
edge $-1 $1021 1 $1021 0 $836 $-1 forward 7 unknown #
point $-1 0.5 0 -0.25 #
straight-curve $-1 -57.638477736747333 34.653975971336735 0 0 0 -1 I I #
point $-1 -57.638477736747333 -34.653975971336735 -17.015422650997639 #
straight-curve $-1 -57.638477736747333 0 -17.015422650997639 0 1 0 I I #
point $-1 -57.638477736747333 34.653975971336735 -17.015422650997639 #
straight-curve $-1 -57.638477736747333 10.176289357379634 0 0 0 -1 I I #
point $-1 -57.638477736747333 -10.176289357379634 -3.3237896591766285 #
straight-curve $-1 -57.638477736747333 0 -3.3237896591766285 0 1 0 I I #
point $-1 -57.638477736747333 10.176289357379634 -3.3237896591766285 #
straight-curve $-1 -230.55391094698933 6.3726333647162505 0 0 0 -1 I I #
point $-1 -230.55391094698933 -6.3726333647162505 -115.27695547349467 #
straight-curve $-1 -230.55391094698933 0 -115.27695547349467 0 1 0 I I #
point $-1 -230.55391094698933 6.3726333647162505 -115.27695547349467 #
vertex $-1 $888 $1022 #
vertex $-1 $890 $1023 #
straight-curve $-1 -230.55391094698933 3.1371647675636893 0 0 0 -1 I I #
point $-1 -230.55391094698933 -3.1371647675636893 -115.27695547349467 #
straight-curve $-1 -230.55391094698933 0 -115.27695547349467 0 1 0 I I #
point $-1 -230.55391094698933 3.1371647675636893 -115.27695547349467 #
vertex $-1 $908 $1024 #
vertex $-1 $910 $1025 #
vertex $-1 $912 $1026 #
straight-curve $-1 -230.55391094698933 3.1371647675636893 0 0 0 -1 I I #
point $-1 -230.55391094698933 -3.1371647675636893 -115.27695547349467 #
straight-curve $-1 -230.55391094698933 0 -115.27695547349467 0 1 0 I I #
point $-1 -230.55391094698933 3.1371647675636893 -115.27695547349467 #
vertex $-1 $930 $1027 #
vertex $-1 $932 $1028 #
vertex $-1 $934 $1029 #
straight-curve $-1 -230.55391094698933 3.1371647675636893 0 0 0 -1 I I #
point $-1 -230.55391094698933 -3.1371647675636893 -115.27695547349467 #
straight-curve $-1 -230.55391094698933 0 -115.27695547349467 0 1 0 I I #
point $-1 -230.55391094698933 3.1371647675636893 -115.27695547349467 #
vertex $-1 $952 $1030 #
vertex $-1 $954 $1031 #
vertex $-1 $956 $1032 #
straight-curve $-1 -230.55391094698933 3.1371647675636893 0 0 0 -1 I I #
point $-1 -230.55391094698933 -3.1371647675636893 -115.27695547349467 #
straight-curve $-1 -230.55391094698933 0 -115.27695547349467 0 1 0 I I #
point $-1 -230.55391094698933 3.1371647675636893 -115.27695547349467 #
vertex $-1 $974 $1033 #
vertex $-1 $976 $1034 #
vertex $-1 $978 $1035 #
point $-1 0 0 0.5 #
point $-1 0 0 0.5 #
point $-1 0 0 0.25 #
point $-1 0 0 0.25 #
point $-1 0 0 0.25 #
point $-1 0 0 0.25 #
point $-1 0 0 0.25 #
point $-1 0 0 0.25 #
point $-1 0 0 0.25 #
point $-1 0 0 0.25 #
point $-1 0 0 0.25 #
point $-1 0 0 0.25 #
point $-1 0 0 0.25 #
point $-1 0 0 0.25 #
End-of-ACIS-data 