500 0 7 0           
7 Unknown 11 ACIS 5.0 NT 24 Thu Mar 25 22:49:06 1999 
-1 9.9999999999999995e-007 1e-010 
body $-1 $7 $-1 $8 #
body $-1 $9 $-1 $10 #
body $-1 $11 $-1 $12 #
body $-1 $13 $-1 $14 #
body $-1 $15 $-1 $16 #
body $-1 $17 $-1 $18 #
body $-1 $19 $-1 $20 #
lump $-1 $-1 $21 $0 #
transform $-1 1 0 0 0 1 0 0 0 1 61.395916623432115 28.721379667163351 11.727144339334652 1 rotate no_reflect no_shear #
lump $-1 $-1 $22 $1 #
transform $-1 1 0 0 0 1 0 0 0 1 61.395916623432115 28.721379667163351 11.727144339334652 1 rotate no_reflect no_shear #
lump $-1 $-1 $23 $2 #
transform $-1 1 0 0 0 1 0 0 0 1 61.395916623432115 28.721379667163351 11.727144339334652 1 rotate no_reflect no_shear #
lump $-1 $-1 $24 $3 #
transform $-1 1 0 0 0 1 0 0 0 1 61.395916623432115 28.721379667163351 11.727144339334652 1 rotate no_reflect no_shear #
lump $-1 $-1 $25 $4 #
transform $-1 1 0 0 0 1 0 0 0 1 61.395916623432115 28.721379667163351 11.727144339334652 1 rotate no_reflect no_shear #
lump $-1 $-1 $26 $5 #
transform $-1 1 0 0 0 1 0 0 0 1 61.395916623432115 28.721379667163351 11.727144339334652 1 rotate no_reflect no_shear #
lump $-1 $-1 $27 $6 #
transform $-1 1 0 0 0 1 0 0 0 1 61.395916623432115 28.721379667163351 11.727144339334652 1 rotate no_reflect no_shear #
shell $-1 $-1 $-1 $28 $-1 $7 #
shell $-1 $-1 $-1 $29 $-1 $9 #
shell $-1 $-1 $-1 $30 $-1 $11 #
shell $-1 $-1 $-1 $31 $-1 $13 #
shell $-1 $-1 $-1 $32 $-1 $15 #
shell $-1 $-1 $-1 $33 $-1 $17 #
shell $-1 $-1 $-1 $34 $-1 $19 #
face $-1 $35 $36 $21 $-1 $37 forward single #
face $-1 $38 $39 $22 $-1 $40 reversed single #
face $-1 $41 $42 $23 $-1 $43 reversed single #
face $-1 $44 $45 $24 $-1 $46 forward single #
face $-1 $47 $48 $25 $-1 $49 reversed single #
face $-1 $50 $51 $26 $-1 $52 forward single #
face $-1 $53 $54 $27 $-1 $55 forward single #
face $-1 $56 $57 $21 $-1 $58 reversed single #
loop $-1 $-1 $59 $28 #
plane-surface $-1 0 0 11.727144339334652 0 0 1 1 0 0 forward_v I I I I #
face $-1 $60 $61 $22 $-1 $62 reversed single #
loop $-1 $-1 $63 $29 #
plane-surface $-1 0 -23.683360235802851 4.7044577444284226 0 0 1 1 0 0 forward_v I I I I #
face $-1 $64 $65 $23 $-1 $66 reversed single #
loop $-1 $-1 $67 $30 #
plane-surface $-1 -161.9810988483616 16.630327926100072 78.409231221111227 0 1 0 -0.81915205242281985 0 0.57357642473473569 forward_v I I I I #
face $-1 $68 $69 $24 $-1 $70 forward single #
loop $-1 $71 $72 $31 #
cone-surface $-1 -58.709121360905428 22.675853796631717 8.8905291585527397 0.81915205242281985 0 -0.57357642473473569 0.57357642473473569 0 0.81915205242281985 1 I I 0 1 1 forward I I I I #
face $-1 $73 $74 $25 $-1 $75 reversed single #
loop $-1 $-1 $76 $32 #
plane-surface $-1 67.456351596795074 5.4172207906809948 181.20907817583509 0 -1 0 -0.73135370988377701 0 -0.68199835119979291 forward_v I I I I #
face $-1 $77 $78 $26 $-1 $79 forward single #
loop $-1 $80 $81 $33 #
cone-surface $-1 59.134363550551271 0.87915935344472729 9.3530667801421803 -0.73135370988377701 0 -0.68199835119979291 0.17049958779994823 0 -0.18283842747094425 1 I I 0 1 0.25 forward I I I I #
face $-1 $82 $83 $27 $-1 $84 forward single #
loop $-1 $85 $86 $34 #
cone-surface $-1 59.134363550551271 3.6019962157864889 9.3530667801421803 -0.73135370988377701 0 -0.68199835119979291 0.17049958779994823 0 -0.18283842747094425 1 I I 0 1 0.25 forward I I I I #
face $-1 $87 $88 $21 $-1 $89 reversed single #
loop $-1 $-1 $90 $35 #
plane-surface $-1 0 0 -11.727144339334652 0 0 1 1 0 0 forward_v I I I I #
coedge $-1 $91 $92 $93 $94 forward $36 $-1 #
face $-1 $95 $96 $22 $-1 $97 reversed single #
loop $-1 $-1 $98 $38 #
plane-surface $-1 0 -18.645340804442355 8.2158010418815355 0 -1 0 0 0 -1 forward_v I I I I #
coedge $-1 $99 $100 $101 $102 reversed $39 $-1 #
face $-1 $103 $104 $23 $-1 $105 forward single #
loop $-1 $-1 $106 $41 #
plane-surface $-1 -61.395916623432115 22.67585379663171 7.978730520750986 -0.81915205242281985 0 0.57357642473473569 0.57357642473473569 0 0.81915205242281985 forward_v I I I I #
coedge $-1 $107 $108 $109 $110 reversed $42 $-1 #
face $-1 $-1 $111 $24 $-1 $112 forward single #
loop $-1 $113 $114 $44 #
cone-surface $-1 -56.925083838609339 22.675853796631717 7.641332674695283 0.81915205242281985 0 -0.57357642473473569 0.28678821236736785 0 0.40957602621140993 1 I I -0.70710678118654746 0.70710678118654746 0.5 forward I I I I #
loop $-1 $-1 $115 $31 #
coedge $-1 $72 $72 $116 $117 reversed $45 $-1 #
face $-1 $118 $119 $25 $-1 $120 reversed single #
loop $-1 $-1 $121 $47 #
plane-surface $-1 -22.34791119172921 2.2405777846156063 97.465250360673764 0.73135370988377701 0 0.68199835119979291 0.68199835119979291 0 -0.73135370988377701 forward_v I I I I #
coedge $-1 $122 $123 $124 $125 reversed $48 $-1 #
face $-1 $-1 $126 $26 $-1 $127 forward single #
loop $-1 $128 $129 $50 #
cone-surface $-1 58.677267481873912 0.87915935344472729 8.9268178106423104 -0.73135370988377701 0 -0.68199835119979291 0.085249793899974113 0 -0.091419213735472127 1 I I -0.70710678118654746 0.70710678118654746 0.125 forward I I I I #
loop $-1 $-1 $130 $33 #
coedge $-1 $81 $81 $131 $132 reversed $51 $-1 #
face $-1 $-1 $133 $27 $-1 $134 forward single #
loop $-1 $135 $136 $53 #
cone-surface $-1 58.677267481873912 3.6019962157864889 8.9268178106423104 -0.73135370988377701 0 -0.68199835119979291 0.085249793899974113 0 -0.091419213735472127 1 I I -0.70710678118654746 0.70710678118654746 0.125 forward I I I I #
loop $-1 $-1 $137 $34 #
coedge $-1 $86 $86 $138 $139 reversed $54 $-1 #
face $-1 $140 $141 $21 $-1 $142 reversed single #
loop $-1 $-1 $143 $56 #
plane-surface $-1 0 -28.721379667163351 0 0 1 0 0 0 1 forward_v I I I I #
coedge $-1 $144 $145 $146 $147 forward $57 $-1 #
coedge $-1 $148 $59 $149 $150 forward $36 $-1 #
coedge $-1 $59 $148 $151 $152 forward $36 $-1 #
coedge $-1 $153 $154 $59 $94 reversed $155 $-1 #
edge $-1 $156 -28.721379667163351 $157 28.721379667163351 $93 $158 forward 7 unknown #
face $-1 $159 $160 $22 $-1 $161 reversed single #
loop $-1 $-1 $162 $60 #
plane-surface $-1 -61.395916623432115 0 0 1 0 0 0 0 -1 forward_v I I I I #
coedge $-1 $163 $164 $165 $166 reversed $61 $-1 #
coedge $-1 $167 $63 $168 $169 reversed $39 $-1 #
coedge $-1 $63 $167 $163 $170 forward $39 $-1 #
coedge $-1 $165 $171 $63 $102 forward $172 $-1 #
edge $-1 $173 -16.879699549261922 $174 -6.8036606865409297 $101 $175 forward 7 unknown #
face $-1 $176 $177 $23 $-1 $178 reversed single #
loop $-1 $-1 $109 $64 #
plane-surface $-1 0 0 11.727144339334652 0 0 1 1 0 0 forward_v I I I I #
coedge $-1 $179 $180 $181 $182 reversed $65 $-1 #
coedge $-1 $108 $67 $183 $184 reversed $42 $-1 #
coedge $-1 $67 $107 $179 $185 reversed $42 $-1 #
coedge $-1 $181 $186 $67 $110 forward $104 $-1 #
edge $-1 $187 19.594632800748684 $188 22.219300333632717 $109 $189 forward 7 unknown #
loop $-1 $-1 $116 $68 #
plane-surface $-1 -61.395916623432115 22.67585379663171 7.978730520750986 -0.81915205242281985 0 0.57357642473473569 0.57357642473473569 0 0.81915205242281985 forward_v I I I I #
loop $-1 $-1 $190 $44 #
coedge $-1 $114 $114 $115 $191 reversed $69 $-1 #
coedge $-1 $115 $115 $114 $191 forward $71 $-1 #
coedge $-1 $116 $116 $72 $117 forward $111 $-1 #
edge $-1 $192 0 $192 6.2831853071796004 $116 $193 forward 7 unknown #
face $-1 $194 $195 $25 $-1 $196 reversed single #
loop $-1 $-1 $197 $73 #
plane-surface $-1 67.456351596795074 -0.93606522144978221 181.20907817583509 0 1 0 0.73135370988377701 0 0.68199835119979291 forward_v I I I I #
coedge $-1 $198 $199 $200 $201 reversed $74 $-1 #
coedge $-1 $123 $76 $202 $203 reversed $48 $-1 #
coedge $-1 $76 $122 $198 $204 reversed $48 $-1 #
coedge $-1 $200 $205 $76 $125 forward $206 $-1 #
edge $-1 $207 -27.667740825034578 $208 -23.875988389156653 $124 $209 forward 7 unknown #
loop $-1 $-1 $131 $77 #
plane-surface $-1 -22.34791119172921 2.2405777846156063 97.465250360673764 0.73135370988377701 0 0.68199835119979291 0.68199835119979291 0 -0.73135370988377701 forward_v I I I I #
loop $-1 $-1 $210 $50 #
coedge $-1 $129 $129 $130 $211 reversed $78 $-1 #
coedge $-1 $130 $130 $129 $211 forward $80 $-1 #
coedge $-1 $131 $131 $81 $132 forward $126 $-1 #
edge $-1 $212 0 $212 6.2831853071796004 $131 $213 forward 7 unknown #
loop $-1 $-1 $138 $82 #
plane-surface $-1 -22.34791119172921 2.2405777846156063 97.465250360673764 0.73135370988377701 0 0.68199835119979291 0.68199835119979291 0 -0.73135370988377701 forward_v I I I I #
loop $-1 $-1 $214 $53 #
coedge $-1 $136 $136 $137 $215 reversed $83 $-1 #
coedge $-1 $137 $137 $136 $215 forward $85 $-1 #
coedge $-1 $138 $138 $86 $139 forward $133 $-1 #
edge $-1 $216 0 $216 6.2831853071796004 $138 $217 forward 7 unknown #
face $-1 $218 $219 $21 $-1 $220 reversed single #
loop $-1 $-1 $221 $87 #
plane-surface $-1 -61.395916623432115 0 0 1 0 0 0 0 -1 forward_v I I I I #
coedge $-1 $222 $151 $223 $224 forward $88 $-1 #
coedge $-1 $225 $90 $222 $226 forward $57 $-1 #
coedge $-1 $90 $225 $227 $228 forward $57 $-1 #
coedge $-1 $154 $153 $90 $147 reversed $155 $-1 #
edge $-1 $229 -28.721379667163351 $230 28.721379667163351 $146 $231 forward 7 unknown #
coedge $-1 $92 $91 $232 $233 forward $36 $-1 #
coedge $-1 $234 $235 $91 $150 reversed $219 $-1 #
edge $-1 $157 -61.395916623432115 $236 61.395916623432115 $149 $237 forward 7 unknown #
coedge $-1 $143 $238 $92 $152 reversed $88 $-1 #
edge $-1 $239 -61.395916623432115 $156 61.395916623432115 $151 $240 forward 7 unknown #
coedge $-1 $146 $93 $238 $241 forward $155 $-1 #
coedge $-1 $93 $146 $234 $242 reversed $155 $-1 #
loop $-1 $-1 $153 $218 #
vertex $-1 $94 $243 #
vertex $-1 $94 $244 #
straight-curve $-1 61.395916623432115 0 11.727144339334652 0 1 0 I I #
face $-1 $245 $246 $22 $-1 $247 forward single #
loop $-1 $-1 $168 $95 #
plane-surface $-1 0 -28.721379667163351 0 0 1 0 0 0 1 forward_v I I I I #
coedge $-1 $248 $249 $250 $251 forward $96 $-1 #
coedge $-1 $250 $98 $100 $170 reversed $61 $-1 #
coedge $-1 $98 $250 $252 $253 reversed $61 $-1 #
coedge $-1 $254 $101 $98 $166 forward $172 $-1 #
edge $-1 $174 0.59655722348765483 $255 7.6192438183938807 $165 $256 forward 7 unknown #
coedge $-1 $100 $99 $248 $257 reversed $39 $-1 #
coedge $-1 $258 $259 $99 $169 forward $160 $-1 #
edge $-1 $260 -61.395916623432115 $173 61.395916623432115 $168 $261 forward 7 unknown #
edge $-1 $262 -61.395916623432115 $174 61.395916623432115 $163 $263 forward 7 unknown #
coedge $-1 $101 $254 $258 $264 forward $172 $-1 #
loop $-1 $-1 $165 $245 #
vertex $-1 $169 $265 #
vertex $-1 $102 $266 #
straight-curve $-1 61.395916623432115 -11.841680117901426 4.7044577444284226 0 1 0 I I #
face $-1 $-1 $267 $23 $-1 $268 reversed single #
loop $-1 $-1 $269 $103 #
plane-surface $-1 0 28.721379667163351 0 0 -1 0 0 0 -1 forward_v I I I I #
coedge $-1 $270 $106 $108 $185 forward $65 $-1 #
coedge $-1 $106 $270 $269 $271 reversed $65 $-1 #
coedge $-1 $272 $109 $106 $182 forward $104 $-1 #
edge $-1 $188 5.2924010277842175 $273 17.383452768847491 $181 $274 forward 7 unknown #
coedge $-1 $275 $276 $107 $184 forward $267 $-1 #
edge $-1 $277 -31.225885089804628 $187 -27.477471271220963 $183 $278 forward 7 unknown #
edge $-1 $188 -4.5759682924518321 $277 0 $108 $279 forward 7 unknown #
coedge $-1 $109 $272 $275 $280 forward $104 $-1 #
vertex $-1 $184 $281 #
vertex $-1 $110 $282 #
straight-curve $-1 -80.990549424180799 16.630327926100072 11.72714433933465 1 0 0 I I #
coedge $-1 $190 $190 $-1 $283 reversed $113 $-1 #
edge $-1 $284 0 $284 6.2831853071796004 $114 $285 forward 7 unknown #
vertex $-1 $117 $286 #
ellipse-curve $-1 -60.083582856990091 22.675853796631717 9.8529374300428216 -0.81915205242281985 0 0.57357642473473569 0.57357642473473569 0 0.81915205242281985 1 I I #
face $-1 $-1 $206 $25 $-1 $287 forward single #
loop $-1 $-1 $288 $118 #
plane-surface $-1 61.395916623432115 0 0 -1 0 0 0 0 1 forward_v I I I I #
coedge $-1 $289 $290 $291 $292 reversed $119 $-1 #
coedge $-1 $293 $121 $123 $204 forward $74 $-1 #
coedge $-1 $121 $293 $289 $294 forward $74 $-1 #
coedge $-1 $291 $124 $121 $201 forward $206 $-1 #
edge $-1 $208 -4.2969318983731917 $295 2.0563541137575854 $200 $296 forward 7 unknown #
coedge $-1 $297 $298 $122 $203 forward $195 $-1 #
edge $-1 $299 -82.943551515768064 $207 -78.877394748582887 $202 $300 forward 7 unknown #
edge $-1 $208 117.2320655007878 $299 122.79183324686424 $123 $301 forward 7 unknown #
coedge $-1 $124 $291 $297 $302 forward $206 $-1 #
loop $-1 $-1 $291 $194 #
vertex $-1 $203 $303 #
vertex $-1 $125 $304 #
straight-curve $-1 33.728175798397537 5.4172207906809948 11.727144339334657 -1 0 0 I I #
coedge $-1 $210 $210 $-1 $305 reversed $128 $-1 #
edge $-1 $306 0 $306 6.2831853071796004 $129 $307 forward 7 unknown #
vertex $-1 $132 $308 #
ellipse-curve $-1 59.500040405493152 0.87915935344472729 9.6940659557420723 0.73135370988377701 0 0.68199835119979291 0.17049958779994823 0 -0.18283842747094425 1 I I #
coedge $-1 $214 $214 $-1 $309 reversed $135 $-1 #
edge $-1 $310 0 $310 6.2831853071796004 $136 $311 forward 7 unknown #
vertex $-1 $139 $312 #
ellipse-curve $-1 59.500040405493152 3.6019962157864889 9.6940659557420723 0.73135370988377701 0 0.68199835119979291 0.17049958779994823 0 -0.18283842747094425 1 I I #
face $-1 $-1 $155 $21 $-1 $313 reversed single #
loop $-1 $-1 $234 $140 #
plane-surface $-1 0 28.721379667163351 0 0 -1 0 0 0 -1 forward_v I I I I #
coedge $-1 $314 $232 $235 $315 forward $141 $-1 #
coedge $-1 $238 $143 $144 $226 reversed $88 $-1 #
coedge $-1 $232 $314 $143 $224 reversed $141 $-1 #
edge $-1 $239 -11.727144339334652 $316 11.727144339334652 $223 $317 forward 7 unknown #
coedge $-1 $145 $144 $314 $318 forward $57 $-1 #
edge $-1 $230 -61.395916623432115 $316 61.395916623432115 $222 $319 forward 7 unknown #
coedge $-1 $235 $234 $145 $228 reversed $219 $-1 #
edge $-1 $320 -61.395916623432115 $229 61.395916623432115 $227 $321 forward 7 unknown #
vertex $-1 $147 $322 #
vertex $-1 $241 $323 #
straight-curve $-1 61.395916623432115 0 -11.727144339334652 0 -1 0 I I #
coedge $-1 $221 $223 $148 $233 reversed $141 $-1 #
edge $-1 $236 -28.721379667163351 $239 28.721379667163351 $232 $324 forward 7 unknown #
coedge $-1 $227 $149 $154 $242 forward $219 $-1 #
coedge $-1 $149 $227 $221 $315 reversed $219 $-1 #
vertex $-1 $150 $325 #
straight-curve $-1 0 28.721379667163351 11.727144339334652 -1 0 0 I I #
coedge $-1 $151 $222 $153 $241 reversed $88 $-1 #
vertex $-1 $233 $326 #
straight-curve $-1 0 -28.721379667163351 11.727144339334652 1 0 0 I I #
edge $-1 $156 -11.727144339334652 $230 11.727144339334652 $153 $327 forward 7 unknown #
edge $-1 $157 -11.727144339334652 $229 11.727144339334652 $154 $328 forward 7 unknown #
point $-1 61.395916623432115 -28.721379667163351 11.727144339334652 #
point $-1 61.395916623432115 28.721379667163351 11.727144339334652 #
face $-1 $-1 $172 $22 $-1 $329 reversed single #
loop $-1 $-1 $252 $159 #
plane-surface $-1 0 0 11.727144339334652 0 0 1 1 0 0 forward_v I I I I #
coedge $-1 $330 $162 $167 $257 forward $96 $-1 #
coedge $-1 $162 $330 $331 $332 reversed $96 $-1 #
coedge $-1 $164 $163 $162 $251 reversed $61 $-1 #
edge $-1 $333 -7.6192438183938807 $262 -0.59655722348765483 $162 $334 forward 7 unknown #
coedge $-1 $331 $335 $164 $253 forward $246 $-1 #
edge $-1 $255 -61.395916623432115 $333 61.395916623432115 $252 $336 forward 7 unknown #
coedge $-1 $171 $165 $335 $337 reversed $172 $-1 #
vertex $-1 $166 $338 #
straight-curve $-1 61.395916623432115 -18.645340804442355 4.1079005209407677 0 0 1 I I #
edge $-1 $262 6.8036606865409297 $260 16.879699549261922 $248 $339 forward 7 unknown #
coedge $-1 $340 $168 $171 $264 reversed $160 $-1 #
coedge $-1 $168 $340 $330 $341 forward $160 $-1 #
vertex $-1 $169 $342 #
straight-curve $-1 0 -28.721379667163351 4.7044577444284226 1 0 0 I I #
vertex $-1 $257 $343 #
straight-curve $-1 0 -18.645340804442355 4.7044577444284226 1 0 0 I I #
edge $-1 $344 -11.727144339334652 $173 -4.7044577444284226 $171 $345 forward 7 unknown #
point $-1 61.395916623432115 -28.721379667163347 4.7044577444284226 #
point $-1 61.395916623432115 -18.645340804442355 4.7044577444284226 #
loop $-1 $-1 $183 $176 #
plane-surface $-1 -61.395916623432115 0 0 1 0 0 0 0 -1 forward_v I I I I #
coedge $-1 $346 $347 $180 $271 forward $177 $-1 #
coedge $-1 $180 $179 $276 $348 reversed $65 $-1 #
edge $-1 $273 9.7637601417373432 $349 14.339728434189174 $269 $350 forward 7 unknown #
coedge $-1 $186 $181 $347 $351 forward $104 $-1 #
vertex $-1 $351 $352 #
straight-curve $-1 -58.771249090548082 11.337926898315855 11.727144339334654 0 1 0 I I #
coedge $-1 $353 $183 $186 $280 reversed $267 $-1 #
coedge $-1 $183 $353 $270 $348 forward $267 $-1 #
vertex $-1 $184 $354 #
straight-curve $-1 -61.395916623432115 16.630327926100072 39.204615610555614 0 0 1 I I #
straight-curve $-1 -61.395916623432115 16.630327926100072 7.978730520750986 -0.57357642473473569 0 -0.81915205242281985 I I #
edge $-1 $355 -28.721379667163351 $187 -16.630327926100072 $275 $356 forward 7 unknown #
point $-1 -61.395916623432115 16.630327926100072 11.727144339334652 #
point $-1 -58.771249090548082 16.630327926100072 11.727144339334652 #
edge $-1 $357 1 $357 0 $190 $-1 forward 7 unknown #
vertex $-1 $191 $358 #
ellipse-curve $-1 -57.33465986482075 22.675853796631717 7.9281208870626507 -0.81915205242281985 0 0.57357642473473569 0.57357642473473569 0 0.81915205242281985 1 I I #
point $-1 -59.510006432255366 22.675853796631717 10.672089482465649 #
plane-surface $-1 0 0 11.727144339334652 0 0 1 1 0 0 forward_v I I I I #
coedge $-1 $298 $297 $290 $359 forward $195 $-1 #
coedge $-1 $290 $197 $199 $294 reversed $119 $-1 #
coedge $-1 $197 $289 $288 $359 reversed $119 $-1 #
coedge $-1 $205 $200 $197 $292 forward $206 $-1 #
edge $-1 $295 23.875988389156653 $360 27.667740825034578 $291 $361 forward 7 unknown #
coedge $-1 $199 $198 $298 $362 reversed $74 $-1 #
edge $-1 $363 -122.79183324686424 $295 -117.2320655007878 $289 $364 forward 7 unknown #
vertex $-1 $201 $365 #
straight-curve $-1 57.604164187554204 1.1202888923078032 11.727144339334643 0 -1 0 I I #
coedge $-1 $288 $202 $205 $302 reversed $195 $-1 #
coedge $-1 $202 $288 $293 $362 forward $195 $-1 #
vertex $-1 $203 $366 #
straight-curve $-1 61.395916623432115 5.4172207906809948 90.604539087917544 0 0 1 I I #
straight-curve $-1 -22.34791119172921 5.4172207906809948 97.465250360673764 0.68199835119979291 0 -0.73135370988377701 I I #
edge $-1 $360 -0.93606522144978221 $207 5.4172207906809948 $297 $367 forward 7 unknown #
point $-1 61.395916623432115 5.4172207906809948 11.727144339334652 #
point $-1 57.60416418755419 5.4172207906809948 11.727144339334657 #
edge $-1 $368 1 $368 0 $210 $-1 forward 7 unknown #
vertex $-1 $211 $369 #
ellipse-curve $-1 58.768686695609382 0.87915935344472729 9.0120676045422847 0.73135370988377701 0 0.68199835119979291 0.17049958779994823 0 -0.18283842747094425 1 I I #
point $-1 59.670539993293112 0.87915935344472729 9.5112275282711334 #
edge $-1 $370 1 $370 0 $214 $-1 forward 7 unknown #
vertex $-1 $215 $371 #
ellipse-curve $-1 58.768686695609382 3.6019962157864889 9.0120676045422847 0.73135370988377701 0 0.68199835119979291 0.17049958779994823 0 -0.18283842747094425 1 I I #
point $-1 59.670539993293112 3.6019962157864889 9.5112275282711334 #
plane-surface $-1 61.395916623432115 0 0 -1 0 0 0 0 1 forward_v I I I I #
coedge $-1 $223 $221 $225 $318 reversed $141 $-1 #
edge $-1 $236 -11.727144339334652 $320 11.727144339334652 $235 $372 forward 7 unknown #
vertex $-1 $318 $373 #
straight-curve $-1 -61.395916623432115 -28.721379667163351 0 0 0 -1 I I #
edge $-1 $316 -28.721379667163351 $320 28.721379667163351 $314 $374 forward 7 unknown #
straight-curve $-1 0 -28.721379667163351 -11.727144339334652 -1 0 0 I I #
vertex $-1 $228 $375 #
straight-curve $-1 0 28.721379667163351 -11.727144339334652 1 0 0 I I #
point $-1 61.395916623432115 28.721379667163351 -11.727144339334652 #
point $-1 61.395916623432115 -28.721379667163351 -11.727144339334652 #
straight-curve $-1 -61.395916623432115 0 11.727144339334652 0 -1 0 I I #
point $-1 -61.395916623432115 28.721379667163351 11.727144339334652 #
point $-1 -61.395916623432115 -28.721379667163351 11.727144339334652 #
straight-curve $-1 61.395916623432115 -28.721379667163351 0 0 0 -1 I I #
straight-curve $-1 61.395916623432115 28.721379667163351 0 0 0 -1 I I #
plane-surface $-1 61.395916623432115 0 0 -1 0 0 0 0 1 forward_v I I I I #
coedge $-1 $249 $248 $259 $341 reversed $96 $-1 #
coedge $-1 $376 $252 $249 $332 forward $246 $-1 #
edge $-1 $333 18.645340804442355 $377 28.721379667163351 $249 $378 forward 7 unknown #
vertex $-1 $332 $379 #
straight-curve $-1 -61.395916623432115 -18.645340804442355 4.1079005209407677 0 0 -1 I I #
coedge $-1 $252 $376 $254 $337 forward $246 $-1 #
straight-curve $-1 0 -18.645340804442355 11.727144339334652 -1 0 0 I I #
edge $-1 $344 -28.721379667163351 $255 -18.645340804442355 $254 $380 forward 7 unknown #
point $-1 61.395916623432115 -18.645340804442355 11.727144339334648 #
straight-curve $-1 -61.395916623432115 -11.841680117901426 4.7044577444284226 0 -1 0 I I #
coedge $-1 $259 $258 $376 $381 reversed $160 $-1 #
edge $-1 $377 -11.727144339334652 $260 -4.7044577444284226 $330 $382 forward 7 unknown #
point $-1 -61.395916623432115 -28.721379667163347 4.7044577444284226 #
point $-1 -61.395916623432115 -18.645340804442355 4.7044577444284226 #
vertex $-1 $337 $383 #
straight-curve $-1 61.395916623432115 -28.721379667163351 0 0 0 -1 I I #
coedge $-1 $347 $269 $353 $384 reversed $177 $-1 #
coedge $-1 $269 $346 $272 $351 reversed $177 $-1 #
edge $-1 $349 -17.383452768847491 $277 -5.2924010277842175 $276 $385 forward 7 unknown #
vertex $-1 $271 $386 #
straight-curve $-1 -53.170986456482865 28.721379667163351 19.72514849880292 -0.57357642473473569 0 -0.81915205242281985 I I #
edge $-1 $273 58.771249090548082 $355 61.395916623432115 $347 $387 forward 7 unknown #
point $-1 -58.771249090548082 28.721379667163347 11.727144339334652 #
coedge $-1 $276 $275 $346 $384 forward $267 $-1 #
point $-1 -61.395916623432115 16.630327926100072 7.978730520750986 #
vertex $-1 $351 $388 #
straight-curve $-1 -61.395916623432115 0 11.727144339334652 0 -1 0 I I #
vertex $-1 $283 $389 #
point $-1 -56.761083440086011 22.675853796631717 8.7472729394854714 #
edge $-1 $360 78.877394748582887 $363 82.943551515768064 $288 $390 forward 7 unknown #
vertex $-1 $302 $391 #
straight-curve $-1 33.728175798397537 -0.93606522144978221 11.727144339334657 1 0 0 I I #
edge $-1 $363 -2.0563541137575854 $299 4.2969318983731917 $298 $392 forward 7 unknown #
vertex $-1 $362 $393 #
straight-curve $-1 -22.34791119172921 -0.93606522144978221 97.465250360673764 -0.68199835119979291 0 0.73135370988377701 I I #
point $-1 57.60416418755419 -0.93606522144978221 11.727144339334657 #
point $-1 61.395916623432115 5.4172207906809948 7.6609875721494802 #
straight-curve $-1 61.395916623432115 0 11.727144339334652 0 1 0 I I #
vertex $-1 $305 $394 #
point $-1 58.939186283409335 0.87915935344472729 8.8292291770713405 #
vertex $-1 $309 $395 #
point $-1 58.939186283409335 3.6019962157864889 8.8292291770713405 #
straight-curve $-1 -61.395916623432115 28.721379667163351 0 0 0 -1 I I #
point $-1 -61.395916623432115 -28.721379667163351 -11.727144339334652 #
straight-curve $-1 -61.395916623432115 0 -11.727144339334652 0 1 0 I I #
point $-1 -61.395916623432115 28.721379667163351 -11.727144339334652 #
coedge $-1 $335 $331 $340 $381 forward $246 $-1 #
vertex $-1 $332 $396 #
straight-curve $-1 -61.395916623432115 0 11.727144339334652 0 -1 0 I I #
point $-1 -61.395916623432115 -18.645340804442355 11.727144339334648 #
straight-curve $-1 61.395916623432115 0 11.727144339334652 0 1 0 I I #
edge $-1 $377 -61.395916623432115 $344 61.395916623432115 $340 $397 forward 7 unknown #
straight-curve $-1 -61.395916623432115 -28.721379667163351 0 0 0 -1 I I #
point $-1 61.395916623432115 -28.721379667163351 11.727144339334652 #
edge $-1 $355 -11.727144339334652 $349 -7.978730520750986 $346 $398 forward 7 unknown #
straight-curve $-1 -61.395916623432115 11.337926898315855 7.9787305207509904 0 -1 0 I I #
point $-1 -61.395916623432115 28.721379667163347 7.978730520750986 #
straight-curve $-1 0 28.721379667163351 11.727144339334652 -1 0 0 I I #
point $-1 -61.395916623432115 28.721379667163351 11.727144339334652 #
point $-1 -56.515507812397928 22.675853796631717 7.3545444623279153 #
straight-curve $-1 61.395916623432115 -0.93606522144978221 90.604539087917544 0 0 -1 I I #
point $-1 61.395916623432115 -0.93606522144978221 11.727144339334652 #
straight-curve $-1 61.395916623432115 1.1202888923078032 7.6609875721494873 0 1 0 I I #
point $-1 61.395916623432115 -0.93606522144978221 7.6609875721494802 #
point $-1 58.585848268138442 0.87915935344472729 8.8415680167423361 #
point $-1 58.585848268138442 3.6019962157864889 8.8415680167423361 #
point $-1 -61.395916623432115 -28.721379667163351 11.727144339334652 #
straight-curve $-1 0 -28.721379667163351 11.727144339334652 1 0 0 I I #
straight-curve $-1 -61.395916623432115 28.721379667163351 0 0 0 -1 I I #
End-of-ACIS-data 