500 0 8 0           
7 Unknown 11 ACIS 5.0 NT 24 Thu Mar 25 17:27:13 1999 
-1 9.9999999999999995e-007 1e-010 
body $-1 $8 $-1 $9 #
body $-1 $10 $-1 $11 #
body $-1 $12 $-1 $13 #
body $-1 $14 $-1 $15 #
body $-1 $16 $-1 $17 #
body $-1 $18 $-1 $19 #
body $-1 $20 $-1 $21 #
body $-1 $22 $-1 $23 #
lump $-1 $-1 $24 $0 #
transform $-1 1 0 0 0 1 0 0 0 1 60.729392376476333 24.354586211785108 8.2541882460322018 1 rotate no_reflect no_shear #
lump $-1 $-1 $25 $1 #
transform $-1 1 0 0 0 1 0 0 0 1 60.729392376476333 24.354586211785108 8.2541882460322018 1 rotate no_reflect no_shear #
lump $-1 $-1 $26 $2 #
transform $-1 1 0 0 0 1 0 0 0 1 60.729392376476333 24.354586211785108 8.2541882460322018 1 rotate no_reflect no_shear #
lump $-1 $-1 $27 $3 #
transform $-1 1 0 0 0 1 0 0 0 1 60.729392376476333 24.354586211785108 8.2541882460322018 1 rotate no_reflect no_shear #
lump $-1 $-1 $28 $4 #
transform $-1 1 0 0 0 1 0 0 0 1 60.729392376476333 24.354586211785108 8.2541882460322018 1 rotate no_reflect no_shear #
lump $-1 $-1 $29 $5 #
transform $-1 1 0 0 0 1 0 0 0 1 60.729392376476333 24.354586211785108 8.2541882460322018 1 rotate no_reflect no_shear #
lump $-1 $-1 $30 $6 #
transform $-1 1 0 0 0 1 0 0 0 1 60.729392376476333 24.354586211785108 8.2541882460322018 1 rotate no_reflect no_shear #
lump $-1 $-1 $31 $7 #
transform $-1 1 0 0 0 1 0 0 0 1 60.729392376476333 24.354586211785108 8.2541882460322018 1 rotate no_reflect no_shear #
shell $-1 $-1 $-1 $32 $-1 $8 #
shell $-1 $-1 $-1 $33 $-1 $10 #
shell $-1 $-1 $-1 $34 $-1 $12 #
shell $-1 $-1 $-1 $35 $-1 $14 #
shell $-1 $-1 $-1 $36 $-1 $16 #
shell $-1 $-1 $-1 $37 $-1 $18 #
shell $-1 $-1 $-1 $38 $-1 $20 #
shell $-1 $-1 $-1 $39 $-1 $22 #
face $-1 $40 $41 $24 $-1 $42 forward single #
face $-1 $43 $44 $25 $-1 $45 reversed single #
face $-1 $46 $47 $26 $-1 $48 reversed single #
face $-1 $49 $50 $27 $-1 $51 forward single #
face $-1 $52 $53 $28 $-1 $54 forward single #
face $-1 $55 $56 $29 $-1 $57 reversed single #
face $-1 $58 $59 $30 $-1 $60 forward single #
face $-1 $61 $62 $31 $-1 $63 forward single #
face $-1 $64 $65 $24 $-1 $66 reversed single #
loop $-1 $-1 $67 $32 #
plane-surface $-1 0 0 8.2541882460322018 0 0 1 1 0 0 forward_v I I I I #
face $-1 $68 $69 $25 $-1 $70 reversed single #
loop $-1 $-1 $71 $33 #
plane-surface $-1 -56.430551587477311 -11.109847284280903 0 0 1 0 0 0 1 forward_v I I I I #
face $-1 $72 $73 $26 $-1 $74 reversed single #
loop $-1 $-1 $75 $34 #
plane-surface $-1 53.147511112891969 -24.35458621178509 2.2062555643530715 0 -0.6560590369687036 0.75470957328743171 1 0 0 forward_v I I I I #
face $-1 $76 $77 $27 $-1 $78 forward single #
loop $-1 $79 $80 $35 #
cone-surface $-1 49.898133428498674 -20.034528793008644 4.2623224820456374 0 0.6560590369687036 -0.75470957328743171 1 0 0 1 I I 0 1 1 forward I I I I #
face $-1 $81 $82 $28 $-1 $83 forward single #
loop $-1 $84 $85 $36 #
cone-surface $-1 56.396888797285278 -20.034528793008644 4.2623224820456374 0 0.6560590369687036 -0.75470957328743171 1 0 0 1 I I 0 1 1 forward I I I I #
face $-1 $86 $87 $29 $-1 $88 reversed single #
loop $-1 $-1 $89 $37 #
plane-surface $-1 -32.739337113697772 54.120266117489464 132.64799074244743 1 0 0 0 -0.57357644374324357 -0.81915203911291934 forward_v I I I I #
face $-1 $90 $91 $30 $-1 $92 forward single #
loop $-1 $93 $94 $38 #
cone-surface $-1 -23.681575343514361 21.422749653315339 5.6461724741584867 0 -0.57357644374324357 -0.81915203911291934 1 0 0 1 I I 0 1 1 forward I I I I #
face $-1 $95 $96 $31 $-1 $97 forward single #
loop $-1 $98 $99 $39 #
cone-surface $-1 -10.09493268823924 21.422749653315339 5.6461724741584867 0 -0.57357644374324357 -0.81915203911291934 1 0 0 1 I I 0 1 1 forward I I I I #
face $-1 $100 $101 $24 $-1 $102 reversed single #
loop $-1 $-1 $103 $40 #
plane-surface $-1 0 0 -8.2541882460322018 0 0 1 1 0 0 forward_v I I I I #
coedge $-1 $104 $105 $106 $107 forward $41 $-1 #
face $-1 $108 $109 $25 $-1 $110 reversed single #
loop $-1 $-1 $111 $43 #
plane-surface $-1 -56.430551587477311 -7.8462097197207044 0 0 -1 0 0 0 -1 forward_v I I I I #
coedge $-1 $112 $113 $114 $115 reversed $44 $-1 #
face $-1 $116 $117 $26 $-1 $118 reversed single #
loop $-1 $-1 $119 $46 #
plane-surface $-1 45.565629849307605 -104.03871956819627 93.872363177263992 1 0 0 0 0.6560590369687036 -0.75470957328743171 forward_v I I I I #
coedge $-1 $120 $121 $122 $123 reversed $47 $-1 #
face $-1 $-1 $124 $27 $-1 $125 forward single #
loop $-1 $126 $127 $49 #
cone-surface $-1 49.898133428498674 -18.865117124478946 2.9170682722549213 0 0.6560590369687036 -0.75470957328743171 0.5 0 0 1 I I -0.70710678118654746 0.70710678118654746 0.5 forward I I I I #
loop $-1 $-1 $128 $35 #
coedge $-1 $80 $80 $129 $130 reversed $50 $-1 #
face $-1 $-1 $131 $28 $-1 $132 forward single #
loop $-1 $133 $134 $52 #
cone-surface $-1 56.396888797285278 -18.865117124478946 2.9170682722549213 0 0.6560590369687036 -0.75470957328743171 0.5 0 0 1 I I -0.70710678118654746 0.70710678118654746 0.5 forward I I I I #
loop $-1 $-1 $135 $36 #
coedge $-1 $85 $85 $136 $137 reversed $53 $-1 #
face $-1 $138 $139 $29 $-1 $140 reversed single #
loop $-1 $-1 $141 $55 #
plane-surface $-1 -16.88825401587679 -15.54563170248521 33.154779543889106 0 0.57357644374324357 0.81915203911291934 1 0 0 forward_v I I I I #
coedge $-1 $142 $143 $144 $145 reversed $56 $-1 #
face $-1 $-1 $146 $30 $-1 $147 forward single #
loop $-1 $148 $149 $58 #
cone-surface $-1 -23.681575343514361 20.373369257254001 4.1475019819937824 0 -0.57357644374324357 -0.81915203911291934 0.5 0 0 1 I I -0.70710678118654746 0.70710678118654746 0.5 forward I I I I #
loop $-1 $-1 $150 $38 #
coedge $-1 $94 $94 $151 $152 reversed $59 $-1 #
face $-1 $-1 $153 $31 $-1 $154 forward single #
loop $-1 $155 $156 $61 #
cone-surface $-1 -10.09493268823924 20.373369257254001 4.1475019819937824 0 -0.57357644374324357 -0.81915203911291934 0.5 0 0 1 I I -0.70710678118654746 0.70710678118654746 0.5 forward I I I I #
loop $-1 $-1 $157 $39 #
coedge $-1 $99 $99 $158 $159 reversed $62 $-1 #
face $-1 $160 $161 $24 $-1 $162 reversed single #
loop $-1 $-1 $163 $64 #
plane-surface $-1 0 -24.354586211785108 0 0 1 0 0 0 1 forward_v I I I I #
coedge $-1 $164 $165 $166 $167 forward $65 $-1 #
coedge $-1 $168 $67 $169 $170 forward $41 $-1 #
coedge $-1 $67 $168 $171 $172 forward $41 $-1 #
coedge $-1 $173 $174 $67 $107 reversed $175 $-1 #
edge $-1 $176 -24.354586211785108 $177 24.354586211785108 $106 $178 forward 7 unknown #
face $-1 $179 $180 $25 $-1 $181 reversed single #
loop $-1 $-1 $182 $68 #
plane-surface $-1 -52.131710798478288 -9.4780285020008037 0 -1 0 0 0 0 1 forward_v I I I I #
coedge $-1 $183 $184 $185 $186 forward $69 $-1 #
coedge $-1 $187 $71 $188 $189 reversed $44 $-1 #
coedge $-1 $71 $187 $190 $191 reversed $44 $-1 #
coedge $-1 $192 $193 $71 $115 forward $194 $-1 #
edge $-1 $195 -8.2541882460322018 $196 8.2541882460322018 $114 $197 forward 7 unknown #
face $-1 $198 $199 $26 $-1 $200 forward single #
loop $-1 $-1 $201 $72 #
plane-surface $-1 0 -24.354586211785108 0 0 1 0 0 0 1 forward_v I I I I #
coedge $-1 $202 $203 $204 $205 reversed $73 $-1 #
coedge $-1 $206 $75 $207 $208 reversed $47 $-1 #
coedge $-1 $75 $206 $202 $209 forward $47 $-1 #
coedge $-1 $204 $210 $75 $123 forward $199 $-1 #
edge $-1 $211 -34.155636820030352 $212 -18.99187429286162 $122 $213 forward 7 unknown #
loop $-1 $-1 $129 $76 #
plane-surface $-1 53.147511112891969 -24.35458621178509 2.2062555643530715 0 -0.6560590369687036 0.75470957328743171 1 0 0 forward_v I I I I #
loop $-1 $-1 $214 $49 #
coedge $-1 $127 $127 $128 $215 reversed $77 $-1 #
coedge $-1 $128 $128 $127 $215 forward $79 $-1 #
coedge $-1 $129 $129 $80 $130 forward $124 $-1 #
edge $-1 $216 1.0471382164534453e-015 $216 6.2831853071796013 $129 $217 forward 7 unknown #
loop $-1 $-1 $136 $81 #
plane-surface $-1 53.147511112891969 -24.35458621178509 2.2062555643530715 0 -0.6560590369687036 0.75470957328743171 1 0 0 forward_v I I I I #
loop $-1 $-1 $218 $52 #
coedge $-1 $134 $134 $135 $219 reversed $82 $-1 #
coedge $-1 $135 $135 $134 $219 forward $84 $-1 #
coedge $-1 $136 $136 $85 $137 forward $131 $-1 #
edge $-1 $220 1.0471382164534453e-015 $220 6.2831853071796013 $136 $221 forward 7 unknown #
face $-1 $222 $223 $29 $-1 $224 forward single #
loop $-1 $-1 $225 $86 #
plane-surface $-1 -1.0371709180558106 54.120266117489464 132.64799074244743 -1 0 0 0 0.57357644374324357 0.81915203911291934 forward_v I I I I #
coedge $-1 $226 $227 $228 $229 reversed $87 $-1 #
coedge $-1 $143 $89 $230 $231 reversed $56 $-1 #
coedge $-1 $89 $142 $226 $232 reversed $56 $-1 #
coedge $-1 $228 $233 $89 $145 forward $223 $-1 #
edge $-1 $234 2.7055468469596242 $235 7.0440356155197605 $144 $236 forward 7 unknown #
loop $-1 $-1 $151 $90 #
plane-surface $-1 -16.88825401587679 -15.54563170248521 33.154779543889106 0 0.57357644374324357 0.81915203911291934 1 0 0 forward_v I I I I #
loop $-1 $-1 $237 $58 #
coedge $-1 $149 $149 $150 $238 reversed $91 $-1 #
coedge $-1 $150 $150 $149 $238 forward $93 $-1 #
coedge $-1 $151 $151 $94 $152 forward $146 $-1 #
edge $-1 $239 5.7962645302390556e-016 $239 6.2831853071796013 $151 $240 forward 7 unknown #
loop $-1 $-1 $158 $95 #
plane-surface $-1 -16.88825401587679 -15.54563170248521 33.154779543889106 0 0.57357644374324357 0.81915203911291934 1 0 0 forward_v I I I I #
loop $-1 $-1 $241 $61 #
coedge $-1 $156 $156 $157 $242 reversed $96 $-1 #
coedge $-1 $157 $157 $156 $242 forward $98 $-1 #
coedge $-1 $158 $158 $99 $159 forward $153 $-1 #
edge $-1 $243 5.7962645302390556e-016 $243 6.2831853071796013 $158 $244 forward 7 unknown #
face $-1 $245 $246 $24 $-1 $247 reversed single #
loop $-1 $-1 $248 $100 #
plane-surface $-1 -60.729392376476333 0 0 1 0 0 0 0 -1 forward_v I I I I #
coedge $-1 $249 $171 $250 $251 forward $101 $-1 #
coedge $-1 $252 $103 $249 $253 forward $65 $-1 #
coedge $-1 $103 $252 $254 $255 forward $65 $-1 #
coedge $-1 $174 $173 $103 $167 reversed $175 $-1 #
edge $-1 $256 -24.354586211785108 $257 24.354586211785108 $166 $258 forward 7 unknown #
coedge $-1 $105 $104 $259 $260 forward $41 $-1 #
coedge $-1 $261 $262 $104 $170 reversed $246 $-1 #
edge $-1 $177 -60.729392376476333 $263 60.729392376476333 $169 $264 forward 7 unknown #
coedge $-1 $163 $265 $105 $172 reversed $101 $-1 #
edge $-1 $266 -60.729392376476333 $176 60.729392376476333 $171 $267 forward 7 unknown #
coedge $-1 $166 $106 $265 $268 forward $175 $-1 #
coedge $-1 $106 $166 $261 $269 reversed $175 $-1 #
loop $-1 $-1 $173 $245 #
vertex $-1 $107 $270 #
vertex $-1 $107 $271 #
straight-curve $-1 60.729392376476333 0 8.2541882460322018 0 1 0 I I #
face $-1 $272 $273 $25 $-1 $274 forward single #
loop $-1 $-1 $275 $108 #
plane-surface $-1 0 0 -8.2541882460322018 0 0 1 1 0 0 forward_v I I I I #
coedge $-1 $276 $277 $187 $278 forward $109 $-1 #
coedge $-1 $279 $111 $275 $280 reversed $69 $-1 #
coedge $-1 $111 $279 $281 $282 reversed $69 $-1 #
coedge $-1 $277 $276 $111 $186 reversed $109 $-1 #
edge $-1 $283 -8.2541882460322018 $284 8.2541882460322018 $185 $285 forward 7 unknown #
coedge $-1 $113 $112 $182 $278 reversed $44 $-1 #
coedge $-1 $286 $287 $112 $189 forward $180 $-1 #
edge $-1 $288 23.916435004739633 $195 32.514116582737678 $188 $289 forward 7 unknown #
coedge $-1 $290 $291 $113 $191 forward $273 $-1 #
edge $-1 $196 -32.514116582737678 $292 -23.916435004739633 $190 $293 forward 7 unknown #
coedge $-1 $294 $114 $291 $295 reversed $194 $-1 #
coedge $-1 $114 $294 $286 $296 reversed $194 $-1 #
loop $-1 $-1 $294 $272 #
vertex $-1 $296 $297 #
vertex $-1 $115 $298 #
straight-curve $-1 -60.729392376476333 -11.109847284280903 0 0 0 1 I I #
face $-1 $-1 $299 $26 $-1 $300 reversed single #
loop $-1 $-1 $204 $116 #
plane-surface $-1 0 0 8.2541882460322018 0 0 1 1 0 0 forward_v I I I I #
coedge $-1 $301 $302 $203 $303 forward $117 $-1 #
coedge $-1 $203 $119 $121 $209 reversed $73 $-1 #
coedge $-1 $119 $202 $201 $303 reversed $73 $-1 #
coedge $-1 $304 $122 $119 $205 forward $199 $-1 #
edge $-1 $212 -34.622124109775285 $305 -27.664773572313027 $204 $306 forward 7 unknown #
coedge $-1 $121 $120 $301 $307 reversed $47 $-1 #
coedge $-1 $308 $309 $120 $208 forward $299 $-1 #
edge $-1 $310 -8.4666027333160105 $211 0.75197721281718355 $207 $311 forward 7 unknown #
edge $-1 $312 -2.3603540999684602e-014 $212 9.2185799461331701 $202 $313 forward 7 unknown #
coedge $-1 $122 $304 $308 $314 forward $199 $-1 #
vertex $-1 $208 $315 #
vertex $-1 $123 $316 #
straight-curve $-1 26.573755556445985 -17.39723567432285 8.2541882460322018 -1 0 0 I I #
coedge $-1 $214 $214 $-1 $317 reversed $126 $-1 #
edge $-1 $318 0 $318 6.2831853071796004 $127 $319 forward 7 unknown #
vertex $-1 $130 $320 #
ellipse-curve $-1 49.898133428498674 -20.875910943053981 5.2302219051926278 0 -0.6560590369687036 0.75470957328743171 1 0 0 1 I I #
coedge $-1 $218 $218 $-1 $321 reversed $133 $-1 #
edge $-1 $322 0 $322 6.2831853071796004 $134 $323 forward 7 unknown #
vertex $-1 $137 $324 #
ellipse-curve $-1 56.396888797285278 -20.875910943053981 5.2302219051926278 0 -0.6560590369687036 0.75470957328743171 1 0 0 1 I I #
face $-1 $-1 $325 $29 $-1 $326 reversed single #
loop $-1 $-1 $144 $138 #
plane-surface $-1 0 0 8.2541882460322018 0 0 1 1 0 0 forward_v I I I I #
coedge $-1 $327 $328 $329 $330 reversed $139 $-1 #
coedge $-1 $331 $141 $143 $232 forward $87 $-1 #
coedge $-1 $141 $331 $327 $332 forward $87 $-1 #
coedge $-1 $329 $144 $141 $229 forward $223 $-1 #
edge $-1 $235 -24.295210105759377 $333 7.4069560898825841 $228 $334 forward 7 unknown #
coedge $-1 $335 $336 $142 $231 forward $325 $-1 #
edge $-1 $337 -61.107649723722481 $234 -58.069807125191517 $230 $338 forward 7 unknown #
edge $-1 $235 43.412855547818552 $337 48.709172423570209 $143 $339 forward 7 unknown #
coedge $-1 $144 $329 $335 $340 forward $223 $-1 #
vertex $-1 $231 $341 #
vertex $-1 $145 $342 #
straight-curve $-1 -32.739337113697772 27.060133058744732 8.2541882460322 0 -1 0 I I #
coedge $-1 $237 $237 $-1 $343 reversed $148 $-1 #
edge $-1 $344 0 $344 6.2831853071796004 $149 $345 forward 7 unknown #
vertex $-1 $152 $346 #
ellipse-curve $-1 -23.681575343514361 22.185341827505045 6.7352669467667177 0 0.57357644374324357 0.81915203911291934 1 0 0 1 I I #
coedge $-1 $241 $241 $-1 $347 reversed $155 $-1 #
edge $-1 $348 0 $348 6.2831853071796004 $156 $349 forward 7 unknown #
vertex $-1 $159 $350 #
ellipse-curve $-1 -10.09493268823924 22.185341827505045 6.7352669467667177 0 0.57357644374324357 0.81915203911291934 1 0 0 1 I I #
face $-1 $-1 $175 $24 $-1 $351 reversed single #
loop $-1 $-1 $261 $160 #
plane-surface $-1 0 24.354586211785108 0 0 -1 0 0 0 -1 forward_v I I I I #
coedge $-1 $352 $259 $262 $353 forward $161 $-1 #
coedge $-1 $265 $163 $164 $253 reversed $101 $-1 #
coedge $-1 $259 $352 $163 $251 reversed $161 $-1 #
edge $-1 $266 -8.2541882460322018 $354 8.2541882460322018 $250 $355 forward 7 unknown #
coedge $-1 $165 $164 $352 $356 forward $65 $-1 #
edge $-1 $257 -60.729392376476333 $354 60.729392376476333 $249 $357 forward 7 unknown #
coedge $-1 $262 $261 $165 $255 reversed $246 $-1 #
edge $-1 $358 -60.729392376476333 $256 60.729392376476333 $254 $359 forward 7 unknown #
vertex $-1 $167 $360 #
vertex $-1 $268 $361 #
straight-curve $-1 60.729392376476333 0 -8.2541882460322018 0 -1 0 I I #
coedge $-1 $248 $250 $168 $260 reversed $161 $-1 #
edge $-1 $263 -24.354586211785108 $266 24.354586211785108 $259 $362 forward 7 unknown #
coedge $-1 $254 $169 $174 $269 forward $246 $-1 #
coedge $-1 $169 $254 $248 $353 reversed $246 $-1 #
vertex $-1 $170 $363 #
straight-curve $-1 0 24.354586211785108 8.2541882460322018 -1 0 0 I I #
coedge $-1 $171 $249 $173 $268 reversed $101 $-1 #
vertex $-1 $260 $364 #
straight-curve $-1 0 -24.354586211785108 8.2541882460322018 1 0 0 I I #
edge $-1 $176 -8.2541882460322018 $257 8.2541882460322018 $173 $365 forward 7 unknown #
edge $-1 $177 -8.2541882460322018 $256 8.2541882460322018 $174 $366 forward 7 unknown #
point $-1 60.729392376476333 -24.354586211785108 8.2541882460322018 #
point $-1 60.729392376476333 24.354586211785108 8.2541882460322018 #
face $-1 $-1 $194 $25 $-1 $367 reversed single #
loop $-1 $-1 $281 $179 #
plane-surface $-1 0 0 8.2541882460322018 0 0 1 1 0 0 forward_v I I I I #
coedge $-1 $287 $286 $183 $280 forward $180 $-1 #
coedge $-1 $185 $182 $287 $368 reversed $109 $-1 #
coedge $-1 $182 $185 $290 $369 reversed $109 $-1 #
edge $-1 $292 -8.2541882460322018 $288 8.2541882460322018 $182 $370 forward 7 unknown #
coedge $-1 $184 $183 $294 $371 reversed $69 $-1 #
edge $-1 $372 -32.514116582737678 $284 -23.916435004739633 $275 $373 forward 7 unknown #
coedge $-1 $291 $290 $184 $282 forward $273 $-1 #
edge $-1 $283 23.916435004739633 $374 32.514116582737678 $281 $375 forward 7 unknown #
vertex $-1 $282 $376 #
vertex $-1 $280 $377 #
straight-curve $-1 -52.131710798478288 -7.8462097197207044 0 0 0 -1 I I #
coedge $-1 $275 $188 $193 $296 forward $180 $-1 #
coedge $-1 $188 $275 $276 $368 forward $180 $-1 #
vertex $-1 $189 $378 #
straight-curve $-1 -28.215275793738655 -11.109847284280903 -8.2541882460322018 -1 0 0 I I #
coedge $-1 $281 $190 $277 $369 forward $273 $-1 #
coedge $-1 $190 $281 $192 $295 forward $273 $-1 #
vertex $-1 $191 $379 #
straight-curve $-1 -28.215275793738655 -11.109847284280903 8.2541882460322018 1 0 0 I I #
coedge $-1 $193 $192 $279 $371 forward $194 $-1 #
edge $-1 $374 7.8462097197207044 $196 11.109847284280903 $192 $380 forward 7 unknown #
edge $-1 $195 -11.109847284280903 $372 -7.8462097197207044 $193 $381 forward 7 unknown #
point $-1 -60.729392376476333 -11.109847284280903 -8.2541882460322018 #
point $-1 -60.729392376476333 -11.109847284280903 8.2541882460322018 #
loop $-1 $-1 $207 $198 #
plane-surface $-1 60.729392376476333 0 0 -1 0 0 0 0 1 forward_v I I I I #
coedge $-1 $382 $201 $206 $307 forward $117 $-1 #
coedge $-1 $201 $382 $304 $383 reversed $117 $-1 #
edge $-1 $305 38.681993342599796 $312 44.729926024278939 $201 $384 forward 7 unknown #
coedge $-1 $210 $204 $302 $383 forward $199 $-1 #
vertex $-1 $383 $385 #
straight-curve $-1 45.565629849307605 -52.019359784098135 8.2541882460322 0 -1 0 I I #
edge $-1 $312 18.99187429286162 $310 34.155636820030352 $301 $386 forward 7 unknown #
coedge $-1 $309 $207 $210 $314 reversed $299 $-1 #
coedge $-1 $207 $308 $382 $387 forward $299 $-1 #
vertex $-1 $307 $388 #
straight-curve $-1 60.729392376476333 -17.964760075729981 7.7608467999689523 0 0.75470957328743171 0.6560590369687036 I I #
vertex $-1 $307 $389 #
straight-curve $-1 45.565629849307605 -24.35458621178509 2.2062555643530715 0 0.75470957328743171 0.6560590369687036 I I #
edge $-1 $390 -24.354586211785108 $211 -17.39723567432285 $308 $391 forward 7 unknown #
point $-1 60.729392376476333 -17.39723567432285 8.2541882460322018 #
point $-1 45.565629849307605 -17.39723567432285 8.2541882460322018 #
edge $-1 $392 1 $392 0 $214 $-1 forward 7 unknown #
vertex $-1 $215 $393 #
ellipse-curve $-1 49.898133428498674 -19.193146642963299 3.2944230588986372 0 -0.6560590369687036 0.75470957328743171 1 0 0 1 I I #
point $-1 50.898133428498674 -20.875910943053988 5.2302219051926375 #
edge $-1 $394 1 $394 0 $218 $-1 forward 7 unknown #
vertex $-1 $219 $395 #
ellipse-curve $-1 56.396888797285278 -19.193146642963299 3.2944230588986372 0 -0.6560590369687036 0.75470957328743171 1 0 0 1 I I #
point $-1 57.396888797285278 -20.875910943053988 5.2302219051926375 #
loop $-1 $-1 $230 $222 #
plane-surface $-1 0 24.354586211785108 0 0 -1 0 0 0 -1 forward_v I I I I #
coedge $-1 $328 $225 $227 $332 reversed $139 $-1 #
coedge $-1 $225 $327 $396 $397 reversed $139 $-1 #
coedge $-1 $233 $228 $225 $330 forward $223 $-1 #
edge $-1 $333 -7.0440356155197605 $398 -2.7055468469596242 $329 $399 forward 7 unknown #
coedge $-1 $227 $226 $336 $400 reversed $87 $-1 #
edge $-1 $401 -48.709172423570209 $333 -43.412855547818552 $327 $402 forward 7 unknown #
vertex $-1 $229 $403 #
straight-curve $-1 -8.4441270079383948 20.016097443224957 8.2541882460322036 1 0 0 I I #
coedge $-1 $396 $230 $233 $340 reversed $325 $-1 #
coedge $-1 $230 $396 $331 $400 forward $325 $-1 #
vertex $-1 $231 $404 #
straight-curve $-1 -32.739337113697772 24.354586211785108 66.323995371223717 0 0 1 I I #
straight-curve $-1 -32.739337113697772 -15.54563170248521 33.154779543889106 0 0.81915203911291934 -0.57357644374324357 I I #
edge $-1 $398 1.0371709180558106 $234 32.739337113697772 $335 $405 forward 7 unknown #
point $-1 -32.739337113697772 24.354586211785108 8.2541882460322018 #
point $-1 -32.739337113697772 20.016097443224972 8.2541882460322 #
edge $-1 $406 1 $406 0 $237 $-1 forward 7 unknown #
vertex $-1 $238 $407 #
ellipse-curve $-1 -23.681575343514361 20.660157479125623 4.5570780015502423 0 0.57357644374324357 0.81915203911291934 1 0 0 1 I I #
point $-1 -22.681575343514361 22.185341827505056 6.7352669467667319 #
edge $-1 $408 1 $408 0 $241 $-1 forward 7 unknown #
vertex $-1 $242 $409 #
ellipse-curve $-1 -10.09493268823924 20.660157479125623 4.5570780015502423 0 0.57357644374324357 0.81915203911291934 1 0 0 1 I I #
point $-1 -9.0949326882392398 22.185341827505056 6.7352669467667319 #
plane-surface $-1 60.729392376476333 0 0 -1 0 0 0 0 1 forward_v I I I I #
coedge $-1 $250 $248 $252 $356 reversed $161 $-1 #
edge $-1 $263 -8.2541882460322018 $358 8.2541882460322018 $262 $410 forward 7 unknown #
vertex $-1 $356 $411 #
straight-curve $-1 -60.729392376476333 -24.354586211785108 0 0 0 -1 I I #
edge $-1 $354 -24.354586211785108 $358 24.354586211785108 $352 $412 forward 7 unknown #
straight-curve $-1 0 -24.354586211785108 -8.2541882460322018 -1 0 0 I I #
vertex $-1 $255 $413 #
straight-curve $-1 0 24.354586211785108 -8.2541882460322018 1 0 0 I I #
point $-1 60.729392376476333 24.354586211785108 -8.2541882460322018 #
point $-1 60.729392376476333 -24.354586211785108 -8.2541882460322018 #
straight-curve $-1 -60.729392376476333 0 8.2541882460322018 0 -1 0 I I #
point $-1 -60.729392376476333 24.354586211785108 8.2541882460322018 #
point $-1 -60.729392376476333 -24.354586211785108 8.2541882460322018 #
straight-curve $-1 60.729392376476333 -24.354586211785108 0 0 0 -1 I I #
straight-curve $-1 60.729392376476333 24.354586211785108 0 0 0 -1 I I #
plane-surface $-1 -60.729392376476333 0 0 1 0 0 0 0 -1 forward_v I I I I #
edge $-1 $284 3.1071954687203025 $288 6.3708330332805012 $287 $414 forward 7 unknown #
edge $-1 $292 -6.3708330332805012 $283 -3.1071954687203025 $290 $415 forward 7 unknown #
straight-curve $-1 -52.131710798478288 -11.109847284280903 0 0 0 -1 I I #
edge $-1 $374 -8.2541882460322018 $372 8.2541882460322018 $294 $416 forward 7 unknown #
vertex $-1 $371 $417 #
straight-curve $-1 -28.215275793738655 -7.8462097197207044 -8.2541882460322018 1 0 0 I I #
vertex $-1 $295 $418 #
straight-curve $-1 -28.215275793738655 -7.8462097197207044 8.2541882460322018 -1 0 0 I I #
point $-1 -52.131710798478288 -7.8462097197207044 8.2541882460322018 #
point $-1 -52.131710798478288 -7.8462097197207044 -8.2541882460322018 #
point $-1 -52.131710798478288 -11.109847284280903 -8.2541882460322018 #
point $-1 -52.131710798478288 -11.109847284280903 8.2541882460322018 #
straight-curve $-1 -60.729392376476333 0 8.2541882460322018 0 -1 0 I I #
straight-curve $-1 -60.729392376476333 0 -8.2541882460322018 0 1 0 I I #
coedge $-1 $302 $301 $309 $387 reversed $117 $-1 #
edge $-1 $305 45.565629849307605 $390 60.729392376476333 $302 $419 forward 7 unknown #
straight-curve $-1 45.565629849307605 -24.354586211785104 46.936181588631996 0 0 -1 I I #
point $-1 45.565629849307605 -24.354586211785108 8.2541882460322018 #
straight-curve $-1 26.573755556445985 -24.354586211785108 2.2062555643530555 1 0 0 I I #
edge $-1 $390 -8.2541882460322018 $310 -2.2062555643530559 $309 $420 forward 7 unknown #
point $-1 60.729392376476333 -24.354586211785108 2.2062555643530559 #
point $-1 45.565629849307605 -24.354586211785108 2.2062555643530559 #
vertex $-1 $314 $421 #
straight-curve $-1 60.729392376476333 0 8.2541882460322018 0 1 0 I I #
vertex $-1 $317 $422 #
point $-1 50.898133428498674 -19.193146642963299 3.2944230588986372 #
vertex $-1 $321 $423 #
point $-1 57.396888797285278 -19.193146642963299 3.2944230588986372 #
coedge $-1 $336 $335 $328 $397 forward $325 $-1 #
edge $-1 $398 58.069807125191517 $401 61.107649723722481 $396 $424 forward 7 unknown #
vertex $-1 $340 $425 #
straight-curve $-1 -1.0371709180558106 27.060133058744732 8.2541882460322 0 1 0 I I #
edge $-1 $401 -7.4069560898825841 $337 24.295210105759377 $336 $426 forward 7 unknown #
vertex $-1 $400 $427 #
straight-curve $-1 -1.0371709180558106 -15.54563170248521 33.154779543889106 0 -0.81915203911291934 0.57357644374324357 I I #
point $-1 -1.0371709180558106 20.016097443224972 8.2541882460322 #
point $-1 -32.739337113697772 24.354586211785104 5.2163456475012353 #
straight-curve $-1 0 24.354586211785108 8.2541882460322018 -1 0 0 I I #
vertex $-1 $343 $428 #
point $-1 -22.681575343514361 20.660157479125623 4.5570780015502423 #
vertex $-1 $347 $429 #
point $-1 -9.0949326882392398 20.660157479125623 4.5570780015502423 #
straight-curve $-1 -60.729392376476333 24.354586211785108 0 0 0 -1 I I #
point $-1 -60.729392376476333 -24.354586211785108 -8.2541882460322018 #
straight-curve $-1 -60.729392376476333 0 -8.2541882460322018 0 1 0 I I #
point $-1 -60.729392376476333 24.354586211785108 -8.2541882460322018 #
straight-curve $-1 -52.131710798478288 -4.7390142510004019 -8.2541882460322018 0 -1 0 I I #
straight-curve $-1 -52.131710798478288 -4.7390142510004019 8.2541882460322018 0 1 0 I I #
straight-curve $-1 -60.729392376476333 -7.8462097197207044 0 0 0 -1 I I #
point $-1 -60.729392376476333 -7.8462097197207044 -8.2541882460322018 #
point $-1 -60.729392376476333 -7.8462097197207044 8.2541882460322018 #
straight-curve $-1 0 -24.354586211785108 8.2541882460322018 1 0 0 I I #
straight-curve $-1 60.729392376476333 -24.354586211785108 0 0 0 -1 I I #
point $-1 60.729392376476333 -24.354586211785108 8.2541882460322018 #
point $-1 49.898133428498674 -18.537087605994593 2.5397134856112054 #
point $-1 56.396888797285278 -18.537087605994593 2.5397134856112054 #
straight-curve $-1 -1.0371709180558106 24.354586211785108 66.323995371223717 0 0 -1 I I #
point $-1 -1.0371709180558106 24.354586211785108 8.2541882460322018 #
straight-curve $-1 -8.4441270079383948 24.354586211785108 5.2163456475012335 -1 0 0 I I #
point $-1 -1.0371709180558106 24.354586211785104 5.2163456475012353 #
point $-1 -23.681575343514361 20.08658103538238 3.7379259624373229 #
point $-1 -10.09493268823924 20.08658103538238 3.7379259624373229 #
End-of-ACIS-data 