500 0 10 0           
7 Unknown 11 ACIS 5.0 NT 24 Thu Mar 25 23:13:47 1999 
-1 9.9999999999999995e-007 1e-010 
body $-1 $10 $-1 $11 #
body $-1 $12 $-1 $13 #
body $-1 $14 $-1 $15 #
body $-1 $16 $-1 $17 #
body $-1 $18 $-1 $19 #
body $-1 $20 $-1 $21 #
body $-1 $22 $-1 $23 #
body $-1 $24 $-1 $25 #
body $-1 $26 $-1 $27 #
body $-1 $28 $-1 $29 #
lump $-1 $-1 $30 $0 #
transform $-1 1 0 0 0 1 0 0 0 1 45.913266396069218 23.584092553244417 10.238031132370065 1 rotate no_reflect no_shear #
lump $-1 $-1 $31 $1 #
transform $-1 1 0 0 0 1 0 0 0 1 45.913266396069218 23.584092553244417 10.238031132370065 1 rotate no_reflect no_shear #
lump $-1 $-1 $32 $2 #
transform $-1 1 0 0 0 1 0 0 0 1 45.913266396069218 23.584092553244417 10.238031132370065 1 rotate no_reflect no_shear #
lump $-1 $-1 $33 $3 #
transform $-1 1 0 0 0 1 0 0 0 1 45.913266396069218 23.584092553244417 10.238031132370065 1 rotate no_reflect no_shear #
lump $-1 $-1 $34 $4 #
transform $-1 1 0 0 0 1 0 0 0 1 45.913266396069218 23.584092553244417 10.238031132370065 1 rotate no_reflect no_shear #
lump $-1 $-1 $35 $5 #
transform $-1 1 0 0 0 1 0 0 0 1 45.913266396069218 23.584092553244417 10.238031132370065 1 rotate no_reflect no_shear #
lump $-1 $-1 $36 $6 #
transform $-1 1 0 0 0 1 0 0 0 1 45.913266396069218 23.584092553244417 10.238031132370065 1 rotate no_reflect no_shear #
lump $-1 $-1 $37 $7 #
transform $-1 1 0 0 0 1 0 0 0 1 45.913266396069218 23.584092553244417 10.238031132370065 1 rotate no_reflect no_shear #
lump $-1 $-1 $38 $8 #
transform $-1 1 0 0 0 1 0 0 0 1 45.913266396069218 23.584092553244417 10.238031132370065 1 rotate no_reflect no_shear #
lump $-1 $-1 $39 $9 #
transform $-1 1 0 0 0 1 0 0 0 1 45.913266396069218 23.584092553244417 10.238031132370065 1 rotate no_reflect no_shear #
shell $-1 $-1 $-1 $40 $-1 $10 #
shell $-1 $-1 $-1 $41 $-1 $12 #
shell $-1 $-1 $-1 $42 $-1 $14 #
shell $-1 $-1 $-1 $43 $-1 $16 #
shell $-1 $-1 $-1 $44 $-1 $18 #
shell $-1 $-1 $-1 $45 $-1 $20 #
shell $-1 $-1 $-1 $46 $-1 $22 #
shell $-1 $-1 $-1 $47 $-1 $24 #
shell $-1 $-1 $-1 $48 $-1 $26 #
shell $-1 $-1 $-1 $49 $-1 $28 #
face $-1 $50 $51 $30 $-1 $52 forward single #
face $-1 $53 $54 $31 $-1 $55 reversed single #
face $-1 $56 $57 $32 $-1 $58 reversed single #
face $-1 $59 $60 $33 $-1 $61 forward single #
face $-1 $62 $63 $34 $-1 $64 reversed single #
face $-1 $65 $66 $35 $-1 $67 forward single #
face $-1 $68 $69 $36 $-1 $70 reversed single #
face $-1 $71 $72 $37 $-1 $73 forward single #
face $-1 $74 $75 $38 $-1 $76 forward single #
face $-1 $77 $78 $39 $-1 $79 forward single #
face $-1 $80 $81 $30 $-1 $82 reversed single #
loop $-1 $-1 $83 $40 #
plane-surface $-1 0 0 10.238031132370065 0 0 1 1 0 0 forward_v I I I I #
face $-1 $84 $85 $31 $-1 $86 reversed single #
loop $-1 $-1 $87 $41 #
plane-surface $-1 -28.437204131329089 -19.965609222313898 0 1 0 0 0 0 -1 forward_v I I I I #
face $-1 $88 $89 $32 $-1 $90 reversed single #
loop $-1 $-1 $91 $42 #
plane-surface $-1 -111.96774691710783 -4.5528726544727132 70.656765346141256 0 1 0 -0.71933980857756763 0 0.69465836192734942 forward_v I I I I #
face $-1 $92 $93 $33 $-1 $94 forward single #
loop $-1 $95 $96 $43 #
cone-surface $-1 -43.926732211594221 -0.46719466177109581 8.2060346328645206 0.71933980857756763 0 -0.69465836192734942 0.34732918096367471 0 0.35966990428878381 1 I I 0 1 0.5 forward I I I I #
face $-1 $97 $98 $34 $-1 $99 reversed single #
loop $-1 $-1 $100 $44 #
plane-surface $-1 -111.96774691710783 15.412736567841181 70.656765346141256 0 1 0 -0.71933980857756763 0 0.69465836192734942 forward_v I I I I #
face $-1 $101 $102 $35 $-1 $103 forward single #
loop $-1 $104 $105 $45 #
cone-surface $-1 -43.926732211594221 19.498414560542798 8.2060346328645206 0.71933980857756763 0 -0.69465836192734942 0.34732918096367471 0 0.35966990428878381 1 I I 0 1 0.5 forward I I I I #
face $-1 $106 $107 $36 $-1 $108 reversed single #
loop $-1 $-1 $109 $46 #
plane-surface $-1 36.85452968783548 20.757172059511795 135.9963134593896 0 -1 0 -0.6560590369687036 0 -0.75470957328743171 forward_v I I I I #
face $-1 $110 $111 $37 $-1 $112 forward single #
loop $-1 $113 $114 $47 #
cone-surface $-1 43.189444263487488 13.347397160610257 7.7170050234116747 -0.6560590369687036 0 -0.75470957328743171 0.37735478664371586 0 -0.3280295184843518 1 I I 0 1 0.5 forward I I I I #
face $-1 $115 $116 $38 $-1 $117 forward single #
loop $-1 $118 $119 $48 #
cone-surface $-1 43.189444263487488 16.126062747698334 7.7170050234116747 -0.6560590369687036 0 -0.75470957328743171 0.37735478664371586 0 -0.3280295184843518 1 I I 0 1 0.5 forward I I I I #
face $-1 $120 $121 $39 $-1 $122 forward single #
loop $-1 $123 $124 $49 #
cone-surface $-1 43.189444263487488 18.904728334786412 7.7170050234116747 -0.6560590369687036 0 -0.75470957328743171 0.37735478664371586 0 -0.3280295184843518 1 I I 0 1 0.5 forward I I I I #
face $-1 $125 $126 $30 $-1 $127 reversed single #
loop $-1 $-1 $128 $50 #
plane-surface $-1 0 0 -10.238031132370065 0 0 1 1 0 0 forward_v I I I I #
coedge $-1 $129 $130 $131 $132 forward $51 $-1 #
face $-1 $133 $134 $31 $-1 $135 reversed single #
loop $-1 $-1 $136 $53 #
plane-surface $-1 -26.937204131329089 -16.347125891383378 0 0 -1 0 0 0 -1 forward_v I I I I #
coedge $-1 $137 $138 $139 $140 forward $54 $-1 #
face $-1 $141 $142 $32 $-1 $143 reversed single #
loop $-1 $-1 $144 $56 #
plane-surface $-1 -45.913266396069233 -0.46719466177109581 6.8686964952863363 -0.71933980857756763 0 0.69465836192734942 0.69465836192734942 0 0.71933980857756763 forward_v I I I I #
coedge $-1 $145 $146 $147 $148 reversed $57 $-1 #
face $-1 $-1 $149 $33 $-1 $150 forward single #
loop $-1 $151 $152 $59 #
cone-surface $-1 -43.387227355161045 -0.46719466177109581 7.685040861419008 0.71933980857756763 0 -0.69465836192734942 0.17366459048183736 0 0.17983495214439191 1 I I -0.70710678118654746 0.70710678118654746 0.25 forward I I I I #
loop $-1 $-1 $153 $43 #
coedge $-1 $96 $96 $154 $155 reversed $60 $-1 #
face $-1 $156 $157 $34 $-1 $158 forward single #
loop $-1 $-1 $159 $62 #
plane-surface $-1 -45.913266396069233 19.498414560542798 6.8686964952863363 -0.71933980857756763 0 0.69465836192734942 0.69465836192734942 0 0.71933980857756763 forward_v I I I I #
coedge $-1 $160 $161 $162 $163 reversed $63 $-1 #
face $-1 $-1 $164 $35 $-1 $165 forward single #
loop $-1 $166 $167 $65 #
cone-surface $-1 -43.387227355161045 19.498414560542798 7.685040861419008 0.71933980857756763 0 -0.69465836192734942 0.17366459048183736 0 0.17983495214439191 1 I I -0.70710678118654746 0.70710678118654746 0.25 forward I I I I #
loop $-1 $-1 $168 $45 #
coedge $-1 $105 $105 $169 $170 reversed $66 $-1 #
face $-1 $171 $172 $36 $-1 $173 reversed single #
loop $-1 $-1 $174 $68 #
plane-surface $-1 -23.389096983949941 16.126062747698334 66.693950079370438 0.6560590369687036 0 0.75470957328743171 0.75470957328743171 0 -0.6560590369687036 forward_v I I I I #
coedge $-1 $175 $176 $177 $178 reversed $69 $-1 #
face $-1 $-1 $179 $37 $-1 $180 forward single #
loop $-1 $181 $182 $71 #
cone-surface $-1 42.480236976339228 13.347397160610257 6.9011553835239603 -0.6560590369687036 0 -0.75470957328743171 0.18867739332185793 0 -0.1640147592421759 1 I I -0.70710678118654746 0.70710678118654746 0.25 forward I I I I #
loop $-1 $-1 $183 $47 #
coedge $-1 $114 $114 $184 $185 reversed $72 $-1 #
face $-1 $-1 $186 $38 $-1 $187 forward single #
loop $-1 $188 $189 $74 #
cone-surface $-1 42.480236976339228 16.126062747698334 6.9011553835239603 -0.6560590369687036 0 -0.75470957328743171 0.18867739332185793 0 -0.1640147592421759 1 I I -0.70710678118654746 0.70710678118654746 0.25 forward I I I I #
loop $-1 $-1 $190 $48 #
coedge $-1 $119 $119 $191 $192 reversed $75 $-1 #
face $-1 $-1 $193 $39 $-1 $194 forward single #
loop $-1 $195 $196 $77 #
cone-surface $-1 42.480236976339228 18.904728334786412 6.9011553835239603 -0.6560590369687036 0 -0.75470957328743171 0.18867739332185793 0 -0.1640147592421759 1 I I -0.70710678118654746 0.70710678118654746 0.25 forward I I I I #
loop $-1 $-1 $197 $49 #
coedge $-1 $124 $124 $198 $199 reversed $78 $-1 #
face $-1 $200 $201 $30 $-1 $202 reversed single #
loop $-1 $-1 $203 $80 #
plane-surface $-1 0 -23.584092553244417 0 0 1 0 0 0 1 forward_v I I I I #
coedge $-1 $204 $205 $206 $207 forward $81 $-1 #
coedge $-1 $208 $83 $209 $210 forward $51 $-1 #
coedge $-1 $83 $208 $211 $212 forward $51 $-1 #
coedge $-1 $213 $214 $83 $132 reversed $215 $-1 #
edge $-1 $216 -23.584092553244417 $217 23.584092553244417 $131 $218 forward 7 unknown #
face $-1 $219 $220 $31 $-1 $221 forward single #
loop $-1 $-1 $222 $84 #
plane-surface $-1 -25.437204131329089 -19.965609222313898 0 -1 0 0 0 0 1 forward_v I I I I #
coedge $-1 $223 $224 $225 $226 forward $85 $-1 #
coedge $-1 $227 $87 $228 $229 reversed $54 $-1 #
coedge $-1 $87 $227 $230 $231 reversed $54 $-1 #
coedge $-1 $224 $223 $87 $140 reversed $85 $-1 #
edge $-1 $232 -10.238031132370065 $233 10.238031132370065 $139 $234 forward 7 unknown #
face $-1 $235 $236 $32 $-1 $237 reversed single #
loop $-1 $-1 $238 $88 #
plane-surface $-1 -111.96774691710783 3.6184833309305215 70.656765346141256 0 -1 0 0.71933980857756763 0 -0.69465836192734942 forward_v I I I I #
coedge $-1 $239 $240 $241 $242 reversed $89 $-1 #
coedge $-1 $146 $91 $243 $244 reversed $57 $-1 #
coedge $-1 $91 $145 $239 $245 reversed $57 $-1 #
coedge $-1 $241 $246 $91 $148 forward $247 $-1 #
edge $-1 $248 10.070607062484697 $249 13.324335622857106 $147 $250 forward 7 unknown #
loop $-1 $-1 $154 $92 #
plane-surface $-1 -45.913266396069233 -0.46719466177109581 6.8686964952863363 -0.71933980857756763 0 0.69465836192734942 0.69465836192734942 0 0.71933980857756763 forward_v I I I I #
loop $-1 $-1 $251 $59 #
coedge $-1 $152 $152 $153 $252 reversed $93 $-1 #
coedge $-1 $153 $153 $152 $252 forward $95 $-1 #
coedge $-1 $154 $154 $96 $155 forward $149 $-1 #
edge $-1 $253 0 $253 6.2831853071796004 $154 $254 forward 7 unknown #
face $-1 $255 $256 $34 $-1 $257 reversed single #
loop $-1 $-1 $162 $97 #
plane-surface $-1 0 0 10.238031132370065 0 0 1 1 0 0 forward_v I I I I #
coedge $-1 $258 $259 $260 $261 reversed $98 $-1 #
coedge $-1 $161 $100 $262 $263 reversed $63 $-1 #
coedge $-1 $100 $160 $258 $264 reversed $63 $-1 #
coedge $-1 $260 $265 $100 $163 forward $157 $-1 #
edge $-1 $266 10.070607062484697 $267 13.324335622857106 $162 $268 forward 7 unknown #
loop $-1 $-1 $169 $101 #
plane-surface $-1 -45.913266396069233 19.498414560542798 6.8686964952863363 -0.71933980857756763 0 0.69465836192734942 0.69465836192734942 0 0.71933980857756763 forward_v I I I I #
loop $-1 $-1 $269 $65 #
coedge $-1 $167 $167 $168 $270 reversed $102 $-1 #
coedge $-1 $168 $168 $167 $270 forward $104 $-1 #
coedge $-1 $169 $169 $105 $170 forward $164 $-1 #
edge $-1 $271 0 $271 6.2831853071796004 $169 $272 forward 7 unknown #
face $-1 $273 $274 $36 $-1 $275 reversed single #
loop $-1 $-1 $276 $106 #
plane-surface $-1 36.85452968783548 11.494953435884874 135.9963134593896 0 1 0 0.6560590369687036 0 0.75470957328743171 forward_v I I I I #
coedge $-1 $277 $278 $279 $280 reversed $107 $-1 #
coedge $-1 $176 $109 $281 $282 reversed $69 $-1 #
coedge $-1 $109 $175 $277 $283 reversed $69 $-1 #
coedge $-1 $279 $284 $109 $178 forward $285 $-1 #
edge $-1 $286 -27.486001552151478 $287 -23.128742342800166 $177 $288 forward 7 unknown #
loop $-1 $-1 $184 $110 #
plane-surface $-1 -23.389096983949941 16.126062747698334 66.693950079370438 0.6560590369687036 0 0.75470957328743171 0.75470957328743171 0 -0.6560590369687036 forward_v I I I I #
loop $-1 $-1 $289 $71 #
coedge $-1 $182 $182 $183 $290 reversed $111 $-1 #
coedge $-1 $183 $183 $182 $290 forward $113 $-1 #
coedge $-1 $184 $184 $114 $185 forward $179 $-1 #
edge $-1 $291 0 $291 6.2831853071796004 $184 $292 forward 7 unknown #
loop $-1 $-1 $191 $115 #
plane-surface $-1 -23.389096983949941 16.126062747698334 66.693950079370438 0.6560590369687036 0 0.75470957328743171 0.75470957328743171 0 -0.6560590369687036 forward_v I I I I #
loop $-1 $-1 $293 $74 #
coedge $-1 $189 $189 $190 $294 reversed $116 $-1 #
coedge $-1 $190 $190 $189 $294 forward $118 $-1 #
coedge $-1 $191 $191 $119 $192 forward $186 $-1 #
edge $-1 $295 0 $295 6.2831853071796004 $191 $296 forward 7 unknown #
loop $-1 $-1 $198 $120 #
plane-surface $-1 -23.389096983949941 16.126062747698334 66.693950079370438 0.6560590369687036 0 0.75470957328743171 0.75470957328743171 0 -0.6560590369687036 forward_v I I I I #
loop $-1 $-1 $297 $77 #
coedge $-1 $196 $196 $197 $298 reversed $121 $-1 #
coedge $-1 $197 $197 $196 $298 forward $123 $-1 #
coedge $-1 $198 $198 $124 $199 forward $193 $-1 #
edge $-1 $299 0 $299 6.2831853071796004 $198 $300 forward 7 unknown #
face $-1 $301 $302 $30 $-1 $303 reversed single #
loop $-1 $-1 $304 $125 #
plane-surface $-1 -45.913266396069218 0 0 1 0 0 0 0 -1 forward_v I I I I #
coedge $-1 $305 $211 $306 $307 forward $126 $-1 #
coedge $-1 $308 $128 $305 $309 forward $81 $-1 #
coedge $-1 $128 $308 $310 $311 forward $81 $-1 #
coedge $-1 $214 $213 $128 $207 reversed $215 $-1 #
edge $-1 $312 -23.584092553244417 $313 23.584092553244417 $206 $314 forward 7 unknown #
coedge $-1 $130 $129 $315 $316 forward $51 $-1 #
coedge $-1 $317 $318 $129 $210 reversed $302 $-1 #
edge $-1 $217 -45.913266396069218 $319 45.913266396069218 $209 $320 forward 7 unknown #
coedge $-1 $203 $321 $130 $212 reversed $126 $-1 #
edge $-1 $322 -45.913266396069218 $216 45.913266396069218 $211 $323 forward 7 unknown #
coedge $-1 $206 $131 $321 $324 forward $215 $-1 #
coedge $-1 $131 $206 $317 $325 reversed $215 $-1 #
loop $-1 $-1 $213 $301 #
vertex $-1 $132 $326 #
vertex $-1 $132 $327 #
straight-curve $-1 45.913266396069218 0 10.238031132370065 0 1 0 I I #
face $-1 $328 $329 $31 $-1 $330 reversed single #
loop $-1 $-1 $331 $133 #
plane-surface $-1 0 0 10.238031132370065 0 0 1 1 0 0 forward_v I I I I #
coedge $-1 $332 $333 $334 $335 reversed $134 $-1 #
coedge $-1 $139 $136 $336 $337 reversed $85 $-1 #
coedge $-1 $136 $139 $338 $339 reversed $85 $-1 #
coedge $-1 $333 $332 $136 $226 reversed $134 $-1 #
edge $-1 $340 -10.238031132370065 $341 10.238031132370065 $225 $342 forward 7 unknown #
coedge $-1 $138 $137 $343 $344 reversed $54 $-1 #
coedge $-1 $336 $345 $137 $229 forward $329 $-1 #
edge $-1 $346 -13.601287942087469 $233 -6.3643212802264291 $228 $347 forward 7 unknown #
coedge $-1 $348 $338 $138 $231 forward $220 $-1 #
edge $-1 $232 6.3643212802264291 $349 13.601287942087469 $230 $350 forward 7 unknown #
vertex $-1 $231 $351 #
vertex $-1 $229 $352 #
straight-curve $-1 -28.437204131329089 -16.347125891383378 0 0 0 -1 I I #
face $-1 $-1 $247 $32 $-1 $353 forward single #
loop $-1 $-1 $354 $141 #
plane-surface $-1 -45.913266396069218 0 0 1 0 0 0 0 -1 forward_v I I I I #
coedge $-1 $355 $356 $357 $358 reversed $142 $-1 #
coedge $-1 $359 $144 $146 $245 forward $89 $-1 #
coedge $-1 $144 $359 $355 $360 forward $89 $-1 #
coedge $-1 $357 $147 $144 $242 forward $247 $-1 #
edge $-1 $249 -4.3192753235871653 $361 3.8520806618160695 $241 $362 forward 7 unknown #
coedge $-1 $363 $364 $145 $244 forward $236 $-1 #
edge $-1 $365 -28.459686177784278 $248 -25.090351540700564 $243 $366 forward 7 unknown #
edge $-1 $249 -4.6839262847781171 $365 -2.0733024663016622e-014 $146 $367 forward 7 unknown #
coedge $-1 $147 $357 $363 $368 forward $247 $-1 #
loop $-1 $-1 $357 $235 #
vertex $-1 $244 $369 #
vertex $-1 $148 $370 #
straight-curve $-1 -55.983873458553916 -4.5528726544727132 10.238031132370065 1 0 0 I I #
coedge $-1 $251 $251 $-1 $371 reversed $151 $-1 #
edge $-1 $372 0 $372 6.2831853071796004 $152 $373 forward 7 unknown #
vertex $-1 $155 $374 #
ellipse-curve $-1 -44.286402115883014 -0.46719466177109581 8.5533638138282058 -0.71933980857756763 0 0.69465836192734942 0.34732918096367471 0 0.35966990428878381 1 I I #
face $-1 $-1 $375 $34 $-1 $376 reversed single #
loop $-1 $-1 $377 $156 #
plane-surface $-1 0 23.584092553244417 0 0 -1 0 0 0 -1 forward_v I I I I #
coedge $-1 $378 $159 $161 $264 forward $98 $-1 #
coedge $-1 $159 $378 $377 $379 reversed $98 $-1 #
coedge $-1 $380 $162 $159 $261 forward $157 $-1 #
edge $-1 $267 5.6635292875697818 $381 13.834885272973018 $260 $382 forward 7 unknown #
coedge $-1 $383 $384 $160 $263 forward $375 $-1 #
edge $-1 $385 -28.459686177784278 $266 -25.090351540700564 $262 $386 forward 7 unknown #
edge $-1 $267 -4.6839262847781171 $385 -2.0733024663016622e-014 $161 $387 forward 7 unknown #
coedge $-1 $162 $380 $383 $388 forward $157 $-1 #
vertex $-1 $263 $389 #
vertex $-1 $163 $390 #
straight-curve $-1 -55.983873458553916 15.412736567841181 10.238031132370065 1 0 0 I I #
coedge $-1 $269 $269 $-1 $391 reversed $166 $-1 #
edge $-1 $392 0 $392 6.2831853071796004 $167 $393 forward 7 unknown #
vertex $-1 $170 $394 #
ellipse-curve $-1 -44.286402115883014 19.498414560542798 8.5533638138282058 -0.71933980857756763 0 0.69465836192734942 0.34732918096367471 0 0.35966990428878381 1 I I #
face $-1 $-1 $285 $36 $-1 $395 forward single #
loop $-1 $-1 $396 $171 #
plane-surface $-1 45.913266396069218 0 0 -1 0 0 0 0 1 forward_v I I I I #
coedge $-1 $397 $398 $399 $400 reversed $172 $-1 #
coedge $-1 $401 $174 $176 $283 forward $107 $-1 #
coedge $-1 $174 $401 $397 $402 forward $107 $-1 #
coedge $-1 $399 $177 $174 $280 forward $285 $-1 #
edge $-1 $287 -12.694140685662628 $403 -3.4319220620357065 $279 $404 forward 7 unknown #
coedge $-1 $405 $406 $175 $282 forward $274 $-1 #
edge $-1 $407 -61.547833322109781 $286 -57.760125597324731 $281 $408 forward 7 unknown #
edge $-1 $287 86.053107671304787 $407 91.826532792138437 $176 $409 forward 7 unknown #
coedge $-1 $177 $399 $405 $410 forward $285 $-1 #
loop $-1 $-1 $399 $273 #
vertex $-1 $282 $411 #
vertex $-1 $178 $412 #
straight-curve $-1 18.42726484391774 20.757172059511795 10.238031132370068 -1 0 0 I I #
coedge $-1 $289 $289 $-1 $413 reversed $181 $-1 #
edge $-1 $414 0 $414 6.2831853071796004 $182 $415 forward 7 unknown #
vertex $-1 $185 $416 #
ellipse-curve $-1 43.734636791393569 13.347397160610257 8.3441772699775303 0.6560590369687036 0 0.75470957328743171 0.37735478664371586 0 -0.3280295184843518 1 I I #
coedge $-1 $293 $293 $-1 $417 reversed $188 $-1 #
edge $-1 $418 0 $418 6.2831853071796004 $189 $419 forward 7 unknown #
vertex $-1 $192 $420 #
ellipse-curve $-1 43.734636791393569 16.126062747698334 8.3441772699775303 0.6560590369687036 0 0.75470957328743171 0.37735478664371586 0 -0.3280295184843518 1 I I #
coedge $-1 $297 $297 $-1 $421 reversed $195 $-1 #
edge $-1 $422 0 $422 6.2831853071796004 $196 $423 forward 7 unknown #
vertex $-1 $199 $424 #
ellipse-curve $-1 43.734636791393569 18.904728334786412 8.3441772699775303 0.6560590369687036 0 0.75470957328743171 0.37735478664371586 0 -0.3280295184843518 1 I I #
face $-1 $-1 $215 $30 $-1 $425 reversed single #
loop $-1 $-1 $317 $200 #
plane-surface $-1 0 23.584092553244417 0 0 -1 0 0 0 -1 forward_v I I I I #
coedge $-1 $426 $315 $318 $427 forward $201 $-1 #
coedge $-1 $321 $203 $204 $309 reversed $126 $-1 #
coedge $-1 $315 $426 $203 $307 reversed $201 $-1 #
edge $-1 $322 -10.238031132370065 $428 10.238031132370065 $306 $429 forward 7 unknown #
coedge $-1 $205 $204 $426 $430 forward $81 $-1 #
edge $-1 $313 -45.913266396069218 $428 45.913266396069218 $305 $431 forward 7 unknown #
coedge $-1 $318 $317 $205 $311 reversed $302 $-1 #
edge $-1 $432 -45.913266396069218 $312 45.913266396069218 $310 $433 forward 7 unknown #
vertex $-1 $207 $434 #
vertex $-1 $324 $435 #
straight-curve $-1 45.913266396069218 0 -10.238031132370065 0 -1 0 I I #
coedge $-1 $304 $306 $208 $316 reversed $201 $-1 #
edge $-1 $319 -23.584092553244417 $322 23.584092553244417 $315 $436 forward 7 unknown #
coedge $-1 $310 $209 $214 $325 forward $302 $-1 #
coedge $-1 $209 $310 $304 $427 reversed $302 $-1 #
vertex $-1 $210 $437 #
straight-curve $-1 0 23.584092553244417 10.238031132370065 -1 0 0 I I #
coedge $-1 $211 $305 $213 $324 reversed $126 $-1 #
vertex $-1 $316 $438 #
straight-curve $-1 0 -23.584092553244417 10.238031132370065 1 0 0 I I #
edge $-1 $216 -10.238031132370065 $313 10.238031132370065 $213 $439 forward 7 unknown #
edge $-1 $217 -10.238031132370065 $312 10.238031132370065 $214 $440 forward 7 unknown #
point $-1 45.913266396069218 -23.584092553244417 10.238031132370065 #
point $-1 45.913266396069218 23.584092553244417 10.238031132370065 #
face $-1 $-1 $441 $31 $-1 $442 reversed single #
loop $-1 $-1 $443 $219 #
plane-surface $-1 0 0 -10.238031132370065 0 0 1 1 0 0 forward_v I I I I #
coedge $-1 $338 $348 $333 $444 forward $220 $-1 #
coedge $-1 $225 $222 $443 $445 reversed $134 $-1 #
coedge $-1 $222 $225 $331 $444 reversed $134 $-1 #
coedge $-1 $446 $447 $222 $335 forward $441 $-1 #
edge $-1 $448 -10.238031132370065 $449 10.238031132370065 $334 $450 forward 7 unknown #
coedge $-1 $443 $228 $223 $337 forward $329 $-1 #
edge $-1 $233 -14.968602065664545 $341 -11.968602065664545 $336 $451 forward 7 unknown #
coedge $-1 $230 $331 $224 $339 forward $220 $-1 #
edge $-1 $340 11.968602065664545 $232 14.968602065664545 $338 $452 forward 7 unknown #
vertex $-1 $339 $453 #
vertex $-1 $337 $454 #
straight-curve $-1 -25.437204131329089 -16.347125891383378 0 0 0 -1 I I #
coedge $-1 $447 $446 $227 $344 forward $441 $-1 #
edge $-1 $349 -10.238031132370065 $346 10.238031132370065 $343 $455 forward 7 unknown #
coedge $-1 $228 $443 $447 $456 forward $329 $-1 #
vertex $-1 $229 $457 #
straight-curve $-1 -28.437204131329089 -9.9828046111569488 -10.238031132370065 0 1 0 I I #
coedge $-1 $331 $230 $446 $458 forward $220 $-1 #
vertex $-1 $458 $459 #
straight-curve $-1 -28.437204131329089 -9.9828046111569488 10.238031132370065 0 -1 0 I I #
point $-1 -28.437204131329089 -16.347125891383378 10.238031132370065 #
point $-1 -28.437204131329089 -16.347125891383378 -10.238031132370065 #
plane-surface $-1 0 0 10.238031132370065 0 0 1 1 0 0 forward_v I I I I #
coedge $-1 $364 $363 $356 $460 forward $236 $-1 #
coedge $-1 $356 $238 $240 $360 reversed $142 $-1 #
coedge $-1 $238 $355 $354 $460 reversed $142 $-1 #
coedge $-1 $246 $241 $238 $358 forward $247 $-1 #
edge $-1 $361 -13.324335622857106 $461 -10.070607062484697 $357 $462 forward 7 unknown #
coedge $-1 $240 $239 $364 $463 reversed $89 $-1 #
edge $-1 $464 2.0733024663016622e-014 $361 4.6839262847781171 $355 $465 forward 7 unknown #
vertex $-1 $242 $466 #
straight-curve $-1 -42.65953783569681 -0.2335973308855479 10.238031132370066 0 1 0 I I #
coedge $-1 $354 $243 $246 $368 reversed $236 $-1 #
coedge $-1 $243 $354 $359 $463 forward $236 $-1 #
vertex $-1 $244 $467 #
straight-curve $-1 -45.913266396069218 -4.5528726544727132 35.328382673070628 0 0 1 I I #
straight-curve $-1 -45.913266396069233 -4.5528726544727132 6.8686964952863363 -0.69465836192734942 0 -0.71933980857756763 I I #
edge $-1 $461 -3.6184833309305215 $248 4.5528726544727132 $363 $468 forward 7 unknown #
point $-1 -45.913266396069218 -4.5528726544727132 10.238031132370065 #
point $-1 -42.65953783569681 -4.5528726544727132 10.238031132370065 #
edge $-1 $469 1 $469 0 $251 $-1 forward 7 unknown #
vertex $-1 $252 $470 #
ellipse-curve $-1 -43.567062307305434 -0.46719466177109581 7.8587054519008452 -0.71933980857756763 0 0.69465836192734942 0.34732918096367471 0 0.35966990428878381 1 I I #
point $-1 -43.939072934919331 -0.46719466177109581 8.9130337181169779 #
loop $-1 $-1 $262 $255 #
plane-surface $-1 -45.913266396069218 0 0 1 0 0 0 0 -1 forward_v I I I I #
coedge $-1 $471 $472 $259 $379 forward $256 $-1 #
coedge $-1 $259 $258 $384 $473 reversed $98 $-1 #
edge $-1 $381 8.7926275168872738 $474 13.476553801665371 $377 $475 forward 7 unknown #
coedge $-1 $265 $260 $472 $476 forward $157 $-1 #
vertex $-1 $476 $477 #
straight-curve $-1 -42.65953783569681 9.7492072802713992 10.238031132370066 0 1 0 I I #
coedge $-1 $478 $262 $265 $388 reversed $375 $-1 #
coedge $-1 $262 $478 $378 $473 forward $375 $-1 #
vertex $-1 $263 $479 #
straight-curve $-1 -45.913266396069218 15.412736567841181 35.328382673070628 0 0 1 I I #
straight-curve $-1 -45.913266396069233 15.412736567841181 6.8686964952863363 -0.69465836192734942 0 -0.71933980857756763 I I #
edge $-1 $480 -23.584092553244417 $266 -15.412736567841181 $383 $481 forward 7 unknown #
point $-1 -45.913266396069218 15.412736567841181 10.238031132370065 #
point $-1 -42.65953783569681 15.412736567841181 10.238031132370065 #
edge $-1 $482 1 $482 0 $269 $-1 forward 7 unknown #
vertex $-1 $270 $483 #
ellipse-curve $-1 -43.567062307305434 19.498414560542798 7.8587054519008452 -0.71933980857756763 0 0.69465836192734942 0.34732918096367471 0 0.35966990428878381 1 I I #
point $-1 -43.939072934919331 19.498414560542798 8.9130337181169779 #
plane-surface $-1 0 0 10.238031132370065 0 0 1 1 0 0 forward_v I I I I #
coedge $-1 $406 $405 $398 $484 forward $274 $-1 #
coedge $-1 $398 $276 $278 $402 reversed $172 $-1 #
coedge $-1 $276 $397 $396 $484 reversed $172 $-1 #
coedge $-1 $284 $279 $276 $400 forward $285 $-1 #
edge $-1 $403 23.128742342800166 $485 27.486001552151478 $399 $486 forward 7 unknown #
coedge $-1 $278 $277 $406 $487 reversed $107 $-1 #
edge $-1 $488 -91.826532792138437 $403 -86.053107671304787 $397 $489 forward 7 unknown #
vertex $-1 $280 $490 #
straight-curve $-1 41.556007186717899 8.0630313738491672 10.238031132370068 0 -1 0 I I #
coedge $-1 $396 $281 $284 $410 reversed $274 $-1 #
coedge $-1 $281 $396 $401 $487 forward $274 $-1 #
vertex $-1 $282 $491 #
straight-curve $-1 45.913266396069218 20.757172059511795 67.998156729694799 0 0 1 I I #
straight-curve $-1 -23.389096983949941 20.757172059511795 66.693950079370438 0.75470957328743171 0 -0.6560590369687036 I I #
edge $-1 $485 11.494953435884874 $286 20.757172059511795 $405 $492 forward 7 unknown #
point $-1 45.913266396069218 20.757172059511795 10.238031132370065 #
point $-1 41.556007186717906 20.757172059511795 10.238031132370068 #
edge $-1 $493 1 $493 0 $289 $-1 forward 7 unknown #
vertex $-1 $290 $494 #
ellipse-curve $-1 42.644251735581406 13.347397160610257 7.0898327768458183 0.6560590369687036 0 0.75470957328743171 0.37735478664371586 0 -0.3280295184843518 1 I I #
point $-1 44.111991578037284 13.347397160610257 8.0161477514931807 #
edge $-1 $495 1 $495 0 $293 $-1 forward 7 unknown #
vertex $-1 $294 $496 #
ellipse-curve $-1 42.644251735581406 16.126062747698334 7.0898327768458183 0.6560590369687036 0 0.75470957328743171 0.37735478664371586 0 -0.3280295184843518 1 I I #
point $-1 44.111991578037284 16.126062747698334 8.0161477514931807 #
edge $-1 $497 1 $497 0 $297 $-1 forward 7 unknown #
vertex $-1 $298 $498 #
ellipse-curve $-1 42.644251735581406 18.904728334786412 7.0898327768458183 0.6560590369687036 0 0.75470957328743171 0.37735478664371586 0 -0.3280295184843518 1 I I #
point $-1 44.111991578037284 18.904728334786412 8.0161477514931807 #
plane-surface $-1 45.913266396069218 0 0 -1 0 0 0 0 1 forward_v I I I I #
coedge $-1 $306 $304 $308 $430 reversed $201 $-1 #
edge $-1 $319 -10.238031132370065 $432 10.238031132370065 $318 $499 forward 7 unknown #
vertex $-1 $430 $500 #
straight-curve $-1 -45.913266396069218 -23.584092553244417 0 0 0 -1 I I #
edge $-1 $428 -23.584092553244417 $432 23.584092553244417 $426 $501 forward 7 unknown #
straight-curve $-1 0 -23.584092553244417 -10.238031132370065 -1 0 0 I I #
vertex $-1 $311 $502 #
straight-curve $-1 0 23.584092553244417 -10.238031132370065 1 0 0 I I #
point $-1 45.913266396069218 23.584092553244417 -10.238031132370065 #
point $-1 45.913266396069218 -23.584092553244417 -10.238031132370065 #
straight-curve $-1 -45.913266396069218 0 10.238031132370065 0 -1 0 I I #
point $-1 -45.913266396069218 23.584092553244417 10.238031132370065 #
point $-1 -45.913266396069218 -23.584092553244417 10.238031132370065 #
straight-curve $-1 45.913266396069218 -23.584092553244417 0 0 0 -1 I I #
straight-curve $-1 45.913266396069218 23.584092553244417 0 0 0 -1 I I #
loop $-1 $-1 $334 $328 #
plane-surface $-1 0 -23.584092553244417 0 0 1 0 0 0 1 forward_v I I I I #
coedge $-1 $345 $336 $332 $445 forward $329 $-1 #
edge $-1 $449 -13.601287942087469 $340 -6.3643212802264291 $331 $503 forward 7 unknown #
edge $-1 $341 6.3643212802264291 $448 13.601287942087469 $443 $504 forward 7 unknown #
coedge $-1 $343 $334 $348 $458 reversed $441 $-1 #
coedge $-1 $334 $343 $345 $456 reversed $441 $-1 #
vertex $-1 $456 $505 #
vertex $-1 $335 $506 #
straight-curve $-1 -25.437204131329089 -23.584092553244417 0 0 0 1 I I #
straight-curve $-1 -13.468602065664545 -16.347125891383378 -10.238031132370065 1 0 0 I I #
straight-curve $-1 -13.468602065664545 -16.347125891383378 10.238031132370065 -1 0 0 I I #
point $-1 -25.437204131329089 -16.347125891383378 10.238031132370065 #
point $-1 -25.437204131329089 -16.347125891383378 -10.238031132370065 #
straight-curve $-1 -28.437204131329089 -23.584092553244417 0 0 0 -1 I I #
edge $-1 $448 25.437204131329089 $346 28.437204131329089 $447 $507 forward 7 unknown #
point $-1 -28.437204131329089 -23.584092553244417 -10.238031132370065 #
edge $-1 $349 -28.437204131329089 $449 -25.437204131329089 $446 $508 forward 7 unknown #
point $-1 -28.437204131329089 -23.584092553244417 10.238031132370065 #
edge $-1 $461 25.090351540700564 $464 28.459686177784278 $354 $509 forward 7 unknown #
vertex $-1 $368 $510 #
straight-curve $-1 -55.983873458553916 3.6184833309305215 10.238031132370065 -1 0 0 I I #
edge $-1 $464 -3.8520806618160695 $365 4.3192753235871653 $364 $511 forward 7 unknown #
vertex $-1 $463 $512 #
straight-curve $-1 -45.913266396069233 3.6184833309305215 6.8686964952863363 0.69465836192734942 0 0.71933980857756763 I I #
point $-1 -42.65953783569681 3.6184833309305215 10.238031132370065 #
point $-1 -45.913266396069218 -4.5528726544727132 6.8686964952863514 #
straight-curve $-1 -45.913266396069218 0 10.238031132370065 0 -1 0 I I #
vertex $-1 $371 $513 #
point $-1 -43.219733126341765 -0.46719466177109581 8.2183753561896289 #
coedge $-1 $472 $377 $478 $514 reversed $256 $-1 #
coedge $-1 $377 $471 $380 $476 reversed $256 $-1 #
edge $-1 $474 -13.834885272973018 $385 -5.6635292875697818 $384 $515 forward 7 unknown #
vertex $-1 $379 $516 #
straight-curve $-1 -36.55166560777856 23.584092553244417 16.562918127261611 -0.69465836192734942 0 -0.71933980857756763 I I #
edge $-1 $381 42.65953783569681 $480 45.913266396069218 $472 $517 forward 7 unknown #
point $-1 -42.65953783569681 23.584092553244417 10.238031132370065 #
coedge $-1 $384 $383 $471 $514 forward $375 $-1 #
point $-1 -45.913266396069218 15.412736567841181 6.8686964952863514 #
vertex $-1 $476 $518 #
straight-curve $-1 -45.913266396069218 0 10.238031132370065 0 -1 0 I I #
vertex $-1 $391 $519 #
point $-1 -43.219733126341765 19.498414560542798 8.2183753561896289 #
edge $-1 $485 57.760125597324731 $488 61.547833322109781 $396 $520 forward 7 unknown #
vertex $-1 $410 $521 #
straight-curve $-1 18.42726484391774 11.494953435884874 10.238031132370068 1 0 0 I I #
edge $-1 $488 3.4319220620357065 $407 12.694140685662628 $406 $522 forward 7 unknown #
vertex $-1 $487 $523 #
straight-curve $-1 -23.389096983949941 11.494953435884874 66.693950079370438 -0.75470957328743171 0 0.6560590369687036 I I #
point $-1 41.556007186717906 11.494953435884874 10.238031132370068 #
point $-1 45.913266396069218 20.757172059511795 6.4503234075850173 #
straight-curve $-1 45.913266396069218 0 10.238031132370065 0 1 0 I I #
vertex $-1 $413 $524 #
point $-1 43.02160652222512 13.347397160610257 6.761803258361466 #
vertex $-1 $417 $525 #
point $-1 43.02160652222512 16.126062747698334 6.761803258361466 #
vertex $-1 $421 $526 #
point $-1 43.02160652222512 18.904728334786412 6.761803258361466 #
straight-curve $-1 -45.913266396069218 23.584092553244417 0 0 0 -1 I I #
point $-1 -45.913266396069218 -23.584092553244417 -10.238031132370065 #
straight-curve $-1 -45.913266396069218 0 -10.238031132370065 0 1 0 I I #
point $-1 -45.913266396069218 23.584092553244417 -10.238031132370065 #
straight-curve $-1 -25.437204131329089 -9.9828046111569488 10.238031132370065 0 1 0 I I #
straight-curve $-1 -25.437204131329089 -9.9828046111569488 -10.238031132370065 0 -1 0 I I #
point $-1 -25.437204131329089 -23.584092553244417 -10.238031132370065 #
point $-1 -25.437204131329089 -23.584092553244417 10.238031132370065 #
straight-curve $-1 0 -23.584092553244417 -10.238031132370065 -1 0 0 I I #
straight-curve $-1 0 -23.584092553244417 10.238031132370065 1 0 0 I I #
straight-curve $-1 -45.913266396069218 3.6184833309305215 35.328382673070628 0 0 -1 I I #
point $-1 -45.913266396069218 3.6184833309305215 10.238031132370065 #
straight-curve $-1 -45.913266396069218 -0.2335973308855479 6.8686964952863487 0 -1 0 I I #
point $-1 -45.913266396069218 3.6184833309305215 6.8686964952863514 #
point $-1 -43.207392403016655 -0.46719466177109581 7.5113762709371708 #
edge $-1 $480 -10.238031132370065 $474 -6.8686964952863514 $471 $527 forward 7 unknown #
straight-curve $-1 -45.913266396069218 9.7492072802713992 6.8686964952863487 0 -1 0 I I #
point $-1 -45.913266396069218 23.584092553244417 6.8686964952863514 #
straight-curve $-1 0 23.584092553244417 10.238031132370065 -1 0 0 I I #
point $-1 -45.913266396069218 23.584092553244417 10.238031132370065 #
point $-1 -43.207392403016655 19.498414560542798 7.5113762709371708 #
straight-curve $-1 45.913266396069218 11.494953435884874 67.998156729694799 0 0 -1 I I #
point $-1 45.913266396069218 11.494953435884874 10.238031132370065 #
straight-curve $-1 45.913266396069218 8.0630313738491672 6.4503234075850173 0 1 0 I I #
point $-1 45.913266396069218 11.494953435884874 6.4503234075850173 #
point $-1 42.316222217097049 13.347397160610257 6.7124779902021023 #
point $-1 42.316222217097049 16.126062747698334 6.7124779902021023 #
point $-1 42.316222217097049 18.904728334786412 6.7124779902021023 #
straight-curve $-1 -45.913266396069218 23.584092553244417 0 0 0 -1 I I #
End-of-ACIS-data 