500 0 4 0           
7 Unknown 11 ACIS 5.0 NT 24 Thu Mar 25 15:44:06 1999 
-1 9.9999999999999995e-007 1e-010 
body $-1 $4 $-1 $5 #
body $-1 $6 $-1 $7 #
body $-1 $8 $-1 $9 #
body $-1 $10 $-1 $11 #
lump $-1 $-1 $12 $0 #
transform $-1 1 0 0 0 1 0 0 0 1 57.559129612109743 35.986971916821382 16.600112403588117 1 rotate no_reflect no_shear #
lump $-1 $-1 $13 $1 #
transform $-1 1 0 0 0 1 0 0 0 1 57.559129612109743 35.986971916821382 16.600112403588117 1 rotate no_reflect no_shear #
lump $-1 $-1 $14 $2 #
transform $-1 1 0 0 0 1 0 0 0 1 57.559129612109743 35.986971916821382 16.600112403588117 1 rotate no_reflect no_shear #
lump $-1 $-1 $15 $3 #
transform $-1 1 0 0 0 1 0 0 0 1 57.559129612109743 35.986971916821382 16.600112403588117 1 rotate no_reflect no_shear #
shell $-1 $-1 $-1 $16 $-1 $4 #
shell $-1 $-1 $-1 $17 $-1 $6 #
shell $-1 $-1 $-1 $18 $-1 $8 #
shell $-1 $-1 $-1 $19 $-1 $10 #
face $-1 $20 $21 $12 $-1 $22 forward single #
face $-1 $23 $24 $13 $-1 $25 forward single #
face $-1 $26 $27 $14 $-1 $28 forward single #
face $-1 $29 $30 $15 $-1 $31 reversed single #
face $-1 $32 $33 $12 $-1 $34 reversed single #
loop $-1 $-1 $35 $16 #
plane-surface $-1 0 0 16.600112403588117 0 0 1 1 0 0 forward_v I I I I #
face $-1 $36 $37 $13 $-1 $38 forward single #
loop $-1 $-1 $39 $17 #
plane-surface $-1 -46.886260932374903 -6.5142872275418302 0 0 1 0 0 0 1 forward_v I I I I #
face $-1 $40 $41 $14 $-1 $42 forward single #
loop $-1 $-1 $43 $18 #
plane-surface $-1 18.173809971798789 27.29944650233606 168.97025189094455 0 1 0 0.51503808176128008 0 0.85716729658548041 forward_v I I I I #
face $-1 $44 $45 $15 $-1 $46 reversed single #
loop $-1 $47 $48 $19 #
cone-surface $-1 51.952923418073574 31.643209209578721 12.221575210225865 -0.51503808176128008 0 -0.85716729658548041 1.7143345931709608 0 -1.0300761635225602 1 I I 0 1 2 forward I I I I #
face $-1 $49 $50 $12 $-1 $51 reversed single #
loop $-1 $-1 $52 $20 #
plane-surface $-1 0 0 -16.600112403588117 0 0 1 1 0 0 forward_v I I I I #
coedge $-1 $53 $54 $55 $56 forward $21 $-1 #
face $-1 $57 $58 $13 $-1 $59 forward single #
loop $-1 $-1 $60 $23 #
plane-surface $-1 -46.886260932374903 -2.7867471096451464 0 0 -1 0 0 0 -1 forward_v I I I I #
coedge $-1 $61 $62 $63 $64 reversed $24 $-1 #
face $-1 $65 $66 $14 $-1 $67 reversed single #
loop $-1 $-1 $68 $26 #
plane-surface $-1 -41.116477434741007 31.643209209578721 70.294644844093781 0.51503808176128008 0 0.85716729658548041 0.85716729658548041 0 -0.51503808176128008 forward_v I I I I #
coedge $-1 $69 $70 $71 $72 reversed $27 $-1 #
face $-1 $73 $74 $15 $-1 $75 forward single #
loop $-1 $76 $77 $29 #
cone-surface $-1 50.488129147087051 31.643209209578721 9.7837482032951861 -0.51503808176128008 0 -0.85716729658548041 0.85716729658548041 0 -0.51503808176128008 1 I I -0.70710678118654746 0.70710678118654746 1 forward I I I I #
loop $-1 $-1 $78 $19 #
coedge $-1 $48 $48 $79 $80 reversed $30 $-1 #
face $-1 $81 $82 $12 $-1 $83 reversed single #
loop $-1 $-1 $84 $32 #
plane-surface $-1 0 -35.986971916821382 0 0 1 0 0 0 1 forward_v I I I I #
coedge $-1 $85 $86 $87 $88 forward $33 $-1 #
coedge $-1 $89 $35 $90 $91 forward $21 $-1 #
coedge $-1 $35 $89 $92 $93 forward $21 $-1 #
coedge $-1 $94 $95 $35 $56 reversed $96 $-1 #
edge $-1 $97 -35.986971916821382 $98 35.986971916821382 $55 $99 forward 7 unknown #
face $-1 $100 $101 $13 $-1 $102 forward single #
loop $-1 $-1 $103 $36 #
plane-surface $-1 -36.213392252640062 -4.6505171685934883 0 -1 0 0 0 0 1 forward_v I I I I #
coedge $-1 $104 $105 $106 $107 reversed $37 $-1 #
coedge $-1 $108 $39 $109 $110 reversed $24 $-1 #
coedge $-1 $39 $108 $111 $112 reversed $24 $-1 #
coedge $-1 $113 $114 $39 $64 forward $115 $-1 #
edge $-1 $116 -16.600112403588117 $117 16.600112403588117 $63 $118 forward 7 unknown #
face $-1 $119 $120 $14 $-1 $121 forward single #
loop $-1 $-1 $122 $40 #
plane-surface $-1 57.559129612109743 0 0 -1 0 0 0 0 1 forward_v I I I I #
coedge $-1 $123 $124 $122 $125 reversed $41 $-1 #
coedge $-1 $70 $43 $124 $126 forward $27 $-1 #
coedge $-1 $43 $69 $127 $128 reversed $27 $-1 #
coedge $-1 $129 $122 $43 $72 forward $66 $-1 #
edge $-1 $130 -73.480768507918285 $131 -67.885013541884163 $71 $132 forward 7 unknown #
face $-1 $133 $134 $15 $-1 $135 forward single #
loop $-1 $-1 $136 $44 #
plane-surface $-1 18.173809971798789 27.29944650233606 168.97025189094455 0 1 0 0.51503808176128008 0 0.85716729658548041 forward_v I I I I #
loop $-1 $-1 $137 $29 #
coedge $-1 $77 $77 $78 $138 forward $45 $-1 #
coedge $-1 $78 $78 $77 $138 reversed $47 $-1 #
coedge $-1 $79 $79 $48 $80 forward $134 $-1 #
edge $-1 $139 0 $139 6.2831853071796004 $79 $140 forward 7 unknown #
face $-1 $141 $142 $12 $-1 $143 reversed single #
loop $-1 $-1 $144 $49 #
plane-surface $-1 -57.559129612109743 0 0 1 0 0 0 0 -1 forward_v I I I I #
coedge $-1 $145 $92 $146 $147 forward $50 $-1 #
coedge $-1 $148 $52 $145 $149 forward $33 $-1 #
coedge $-1 $52 $148 $150 $151 forward $33 $-1 #
coedge $-1 $95 $94 $52 $88 reversed $96 $-1 #
edge $-1 $152 -35.986971916821382 $153 35.986971916821382 $87 $154 forward 7 unknown #
coedge $-1 $54 $53 $155 $156 forward $21 $-1 #
coedge $-1 $157 $158 $53 $91 reversed $142 $-1 #
edge $-1 $98 -57.559129612109743 $159 57.559129612109743 $90 $160 forward 7 unknown #
coedge $-1 $84 $161 $54 $93 reversed $50 $-1 #
edge $-1 $162 -57.559129612109743 $97 57.559129612109743 $92 $163 forward 7 unknown #
coedge $-1 $87 $55 $161 $164 forward $96 $-1 #
coedge $-1 $55 $87 $157 $165 reversed $96 $-1 #
loop $-1 $-1 $94 $141 #
vertex $-1 $56 $166 #
vertex $-1 $56 $167 #
straight-curve $-1 57.559129612109743 0 16.600112403588117 0 1 0 I I #
face $-1 $168 $115 $13 $-1 $169 reversed single #
loop $-1 $-1 $170 $57 #
plane-surface $-1 0 0 16.600112403588117 0 0 1 1 0 0 forward_v I I I I #
coedge $-1 $171 $172 $108 $173 reversed $58 $-1 #
coedge $-1 $174 $60 $170 $175 reversed $37 $-1 #
coedge $-1 $60 $174 $176 $177 reversed $37 $-1 #
coedge $-1 $172 $171 $60 $107 forward $58 $-1 #
edge $-1 $178 -16.600112403588117 $179 16.600112403588117 $106 $180 forward 7 unknown #
coedge $-1 $62 $61 $103 $173 forward $24 $-1 #
coedge $-1 $181 $182 $61 $110 forward $101 $-1 #
edge $-1 $183 12.770261786452611 $116 34.115999145922288 $109 $184 forward 7 unknown #
coedge $-1 $185 $186 $62 $112 forward $187 $-1 #
edge $-1 $117 -34.115999145922288 $188 -12.770261786452611 $111 $189 forward 7 unknown #
coedge $-1 $190 $63 $186 $191 reversed $115 $-1 #
coedge $-1 $63 $190 $181 $192 reversed $115 $-1 #
loop $-1 $-1 $63 $100 #
vertex $-1 $192 $193 #
vertex $-1 $64 $194 #
straight-curve $-1 -57.559129612109743 -6.5142872275418302 0 0 0 -1 I I #
face $-1 $195 $196 $14 $-1 $197 forward single #
loop $-1 $-1 $127 $65 #
plane-surface $-1 0 0 16.600112403588117 0 0 1 1 0 0 forward_v I I I I #
coedge $-1 $71 $198 $68 $125 forward $66 $-1 #
coedge $-1 $199 $68 $200 $201 reversed $41 $-1 #
coedge $-1 $68 $199 $69 $126 reversed $41 $-1 #
edge $-1 $202 -20.165367312032021 $130 -11.4778418975467 $122 $203 forward 7 unknown #
edge $-1 $130 -115.11825922421949 $204 -104.25351899588865 $69 $205 forward 7 unknown #
coedge $-1 $206 $207 $70 $128 forward $120 $-1 #
edge $-1 $131 -48.472224626210348 $204 -39.159324616588499 $127 $208 forward 7 unknown #
coedge $-1 $209 $71 $207 $210 reversed $66 $-1 #
vertex $-1 $125 $211 #
vertex $-1 $128 $212 #
straight-curve $-1 57.559129612109743 27.29944650233606 84.485125945472276 0 0 1 I I #
face $-1 $213 $214 $15 $-1 $215 reversed single #
loop $-1 $216 $79 $73 #
plane-surface $-1 -41.116477434741007 31.643209209578721 70.294644844093781 0.51503808176128008 0 0.85716729658548041 0.85716729658548041 0 -0.51503808176128008 forward_v I I I I #
coedge $-1 $217 $218 $219 $220 reversed $74 $-1 #
coedge $-1 $137 $137 $-1 $221 forward $76 $-1 #
edge $-1 $222 0 $222 6.2831853071796004 $77 $223 forward 7 unknown #
vertex $-1 $80 $224 #
ellipse-curve $-1 52.902679607298815 31.643209209578721 13.80223492057106 -0.51503808176128008 0 -0.85716729658548041 1.7143345931709608 0 -1.0300761635225602 1 I I #
face $-1 $-1 $96 $12 $-1 $225 reversed single #
loop $-1 $-1 $157 $81 #
plane-surface $-1 0 35.986971916821382 0 0 -1 0 0 0 -1 forward_v I I I I #
coedge $-1 $226 $155 $158 $227 forward $82 $-1 #
coedge $-1 $161 $84 $85 $149 reversed $50 $-1 #
coedge $-1 $155 $226 $84 $147 reversed $82 $-1 #
edge $-1 $162 -16.600112403588117 $228 16.600112403588117 $146 $229 forward 7 unknown #
coedge $-1 $86 $85 $226 $230 forward $33 $-1 #
edge $-1 $153 -57.559129612109743 $228 57.559129612109743 $145 $231 forward 7 unknown #
coedge $-1 $158 $157 $86 $151 reversed $142 $-1 #
edge $-1 $232 -57.559129612109743 $152 57.559129612109743 $150 $233 forward 7 unknown #
vertex $-1 $88 $234 #
vertex $-1 $164 $235 #
straight-curve $-1 57.559129612109743 0 -16.600112403588117 0 -1 0 I I #
coedge $-1 $144 $146 $89 $156 reversed $82 $-1 #
edge $-1 $159 -35.986971916821382 $162 35.986971916821382 $155 $236 forward 7 unknown #
coedge $-1 $150 $90 $95 $165 forward $142 $-1 #
coedge $-1 $90 $150 $144 $227 reversed $142 $-1 #
vertex $-1 $91 $237 #
straight-curve $-1 0 35.986971916821382 16.600112403588117 -1 0 0 I I #
coedge $-1 $92 $145 $94 $164 reversed $50 $-1 #
vertex $-1 $156 $238 #
straight-curve $-1 0 -35.986971916821382 16.600112403588117 1 0 0 I I #
edge $-1 $97 -16.600112403588117 $153 16.600112403588117 $94 $239 forward 7 unknown #
edge $-1 $98 -16.600112403588117 $152 16.600112403588117 $95 $240 forward 7 unknown #
point $-1 57.559129612109743 -35.986971916821382 16.600112403588117 #
point $-1 57.559129612109743 35.986971916821382 16.600112403588117 #
face $-1 $241 $187 $13 $-1 $242 reversed single #
plane-surface $-1 -57.559129612109743 0 0 1 0 0 0 0 -1 forward_v I I I I #
coedge $-1 $182 $243 $104 $175 forward $101 $-1 #
coedge $-1 $106 $103 $182 $244 reversed $58 $-1 #
coedge $-1 $103 $106 $185 $245 reversed $58 $-1 #
edge $-1 $183 -16.600112403588117 $188 16.600112403588117 $103 $246 forward 7 unknown #
coedge $-1 $105 $104 $247 $248 reversed $37 $-1 #
edge $-1 $249 -34.115999145922288 $178 -12.770261786452611 $170 $250 forward 7 unknown #
coedge $-1 $251 $185 $105 $177 forward $187 $-1 #
edge $-1 $179 12.770261786452611 $252 34.115999145922288 $176 $253 forward 7 unknown #
vertex $-1 $175 $254 #
vertex $-1 $177 $255 #
straight-curve $-1 -36.213392252640062 -2.7867471096451464 0 0 0 -1 I I #
coedge $-1 $256 $109 $114 $192 forward $101 $-1 #
coedge $-1 $109 $170 $171 $244 forward $101 $-1 #
vertex $-1 $110 $257 #
straight-curve $-1 -23.443130466187451 -6.5142872275418302 16.600112403588117 -1 0 0 I I #
coedge $-1 $176 $111 $172 $245 forward $187 $-1 #
coedge $-1 $111 $258 $113 $191 forward $187 $-1 #
loop $-1 $-1 $176 $168 #
vertex $-1 $112 $259 #
straight-curve $-1 -23.443130466187451 -6.5142872275418302 -16.600112403588117 1 0 0 I I #
coedge $-1 $114 $113 $260 $261 reversed $115 $-1 #
edge $-1 $262 -35.986971916821382 $117 -6.5142872275418302 $113 $263 forward 7 unknown #
edge $-1 $116 6.5142872275418302 $264 35.986971916821382 $114 $265 forward 7 unknown #
point $-1 -57.559129612109743 -6.5142872275418302 16.600112403588117 #
point $-1 -57.559129612109743 -6.5142872275418302 -16.600112403588117 #
face $-1 $266 $267 $14 $-1 $268 forward single #
loop $-1 $-1 $269 $119 #
plane-surface $-1 -46.886260932374903 -6.5142872275418302 0 0 1 0 0 0 1 forward_v I I I I #
coedge $-1 $122 $270 $271 $272 reversed $66 $-1 #
coedge $-1 $124 $123 $206 $273 reversed $41 $-1 #
coedge $-1 $271 $274 $123 $201 forward $275 $-1 #
edge $-1 $276 68.529459572664962 $202 79.394199800995779 $200 $277 forward 7 unknown #
vertex $-1 $272 $278 #
straight-curve $-1 57.559129612109736 15.821604604789361 11.004357437553999 0 -1 0 I I #
vertex $-1 $273 $279 #
straight-curve $-1 -41.116477434741007 27.29944650233606 70.294644844093781 -0.85716729658548041 0 0.51503808176128008 I I #
coedge $-1 $280 $127 $199 $273 forward $120 $-1 #
coedge $-1 $127 $281 $129 $210 forward $120 $-1 #
straight-curve $-1 9.0869049858993947 27.29944650233606 16.600112403588113 -1 0 0 I I #
coedge $-1 $270 $129 $282 $283 forward $66 $-1 #
edge $-1 $284 -35.986971916821382 $131 27.29944650233606 $129 $285 forward 7 unknown #
point $-1 57.55912961210975 27.29944650233606 11.004357437553992 #
point $-1 57.559129612109743 27.29944650233606 16.600112403588117 #
face $-1 $286 $287 $15 $-1 $288 forward single #
loop $-1 $-1 $289 $133 #
plane-surface $-1 57.559129612109743 0 0 -1 0 0 0 0 1 forward_v I I I I #
loop $-1 $-1 $290 $73 #
coedge $-1 $218 $136 $291 $292 forward $74 $-1 #
coedge $-1 $136 $217 $293 $294 reversed $74 $-1 #
coedge $-1 $295 $289 $136 $220 forward $214 $-1 #
edge $-1 $296 -73.480768507918285 $297 -67.885013541884163 $219 $298 forward 7 unknown #
edge $-1 $299 1 $299 0 $137 $-1 forward 7 unknown #
vertex $-1 $138 $300 #
ellipse-curve $-1 51.003167228848334 31.643209209578721 10.640915499880666 0.51503808176128008 0 0.85716729658548041 1.7143345931709608 0 -1.0300761635225602 1 I I #
point $-1 54.617014200469782 31.643209209578721 12.772158757048501 #
plane-surface $-1 57.559129612109743 0 0 -1 0 0 0 0 1 forward_v I I I I #
coedge $-1 $146 $144 $148 $230 reversed $82 $-1 #
edge $-1 $159 -16.600112403588117 $232 16.600112403588117 $158 $301 forward 7 unknown #
vertex $-1 $230 $302 #
straight-curve $-1 -57.559129612109743 -35.986971916821382 0 0 0 -1 I I #
edge $-1 $228 -35.986971916821382 $232 35.986971916821382 $226 $303 forward 7 unknown #
straight-curve $-1 0 -35.986971916821382 -16.600112403588117 -1 0 0 I I #
vertex $-1 $151 $304 #
straight-curve $-1 0 35.986971916821382 -16.600112403588117 1 0 0 I I #
point $-1 57.559129612109743 35.986971916821382 -16.600112403588117 #
point $-1 57.559129612109743 -35.986971916821382 -16.600112403588117 #
straight-curve $-1 -57.559129612109743 0 16.600112403588117 0 -1 0 I I #
point $-1 -57.559129612109743 35.986971916821382 16.600112403588117 #
point $-1 -57.559129612109743 -35.986971916821382 16.600112403588117 #
straight-curve $-1 57.559129612109743 -35.986971916821382 0 0 0 -1 I I #
straight-curve $-1 57.559129612109743 35.986971916821382 0 0 0 -1 I I #
face $-1 $305 $306 $13 $-1 $307 reversed single #
plane-surface $-1 0 0 -16.600112403588117 0 0 1 1 0 0 forward_v I I I I #
coedge $-1 $170 $308 $309 $310 forward $101 $-1 #
edge $-1 $178 0.46148852534840223 $183 4.1890286432450861 $182 $311 forward 7 unknown #
edge $-1 $188 -4.1890286432450861 $179 -0.46148852534840223 $185 $312 forward 7 unknown #
straight-curve $-1 -36.213392252640062 -6.5142872275418302 0 0 0 -1 I I #
coedge $-1 $309 $313 $174 $248 forward $314 $-1 #
edge $-1 $252 -16.600112403588117 $249 16.600112403588117 $247 $315 forward 7 unknown #
vertex $-1 $248 $316 #
straight-curve $-1 -23.443130466187451 -2.7867471096451464 16.600112403588117 1 0 0 I I #
coedge $-1 $317 $176 $313 $318 forward $187 $-1 #
vertex $-1 $318 $319 #
straight-curve $-1 -23.443130466187451 -2.7867471096451464 -16.600112403588117 -1 0 0 I I #
point $-1 -36.213392252640062 -2.7867471096451464 16.600112403588117 #
point $-1 -36.213392252640062 -2.7867471096451464 -16.600112403588117 #
coedge $-1 $320 $181 $321 $322 forward $101 $-1 #
point $-1 -36.213392252640062 -6.5142872275418302 16.600112403588117 #
coedge $-1 $186 $323 $324 $325 forward $187 $-1 #
point $-1 -36.213392252640062 -6.5142872275418302 -16.600112403588117 #
coedge $-1 $324 $321 $190 $261 forward $306 $-1 #
edge $-1 $264 -16.600112403588117 $262 16.600112403588117 $190 $326 forward 7 unknown #
vertex $-1 $191 $327 #
straight-curve $-1 -57.559129612109743 0 -16.600112403588117 0 1 0 I I #
vertex $-1 $192 $328 #
straight-curve $-1 -57.559129612109743 0 16.600112403588117 0 -1 0 I I #
face $-1 $329 $330 $14 $-1 $331 forward single #
loop $-1 $-1 $332 $195 #
plane-surface $-1 -46.886260932374903 -2.7867471096451464 0 0 -1 0 0 0 -1 forward_v I I I I #
coedge $-1 $333 $334 $335 $336 reversed $196 $-1 #
coedge $-1 $198 $209 $337 $338 reversed $66 $-1 #
coedge $-1 $339 $200 $198 $272 forward $275 $-1 #
edge $-1 $202 -11.004357437553997 $340 16.600112403588117 $198 $341 forward 7 unknown #
edge $-1 $204 11.4778418975467 $276 20.165367312032021 $206 $342 forward 7 unknown #
coedge $-1 $200 $343 $280 $344 reversed $275 $-1 #
loop $-1 $-1 $200 $345 #
vertex $-1 $344 $346 #
straight-curve $-1 -10.494981995877302 35.986971916821382 51.895393806030668 0.85716729658548041 0 -0.51503808176128008 I I #
point $-1 57.559129612109743 35.986971916821382 11.004357437553997 #
point $-1 48.246229602487894 27.29944650233606 16.600112403588113 #
coedge $-1 $347 $206 $274 $344 forward $120 $-1 #
coedge $-1 $207 $348 $349 $350 forward $120 $-1 #
coedge $-1 $349 $351 $209 $283 reversed $352 $-1 #
edge $-1 $284 -16.600112403588117 $353 16.600112403588117 $209 $354 forward 7 unknown #
vertex $-1 $210 $355 #
straight-curve $-1 57.559129612109743 0 16.600112403588117 0 1 0 I I #
face $-1 $356 $357 $15 $-1 $358 forward single #
loop $-1 $-1 $293 $213 #
plane-surface $-1 0 0 16.600112403588117 0 0 1 1 0 0 forward_v I I I I #
coedge $-1 $219 $359 $290 $360 forward $214 $-1 #
coedge $-1 $361 $291 $289 $360 reversed $216 $-1 #
coedge $-1 $290 $362 $217 $292 reversed $216 $-1 #
edge $-1 $296 -115.11825922421949 $363 -104.25351899588865 $217 $364 forward 7 unknown #
coedge $-1 $365 $366 $218 $294 forward $287 $-1 #
edge $-1 $297 -48.472224626210348 $363 -39.159324616588499 $293 $367 forward 7 unknown #
coedge $-1 $368 $219 $366 $369 reversed $214 $-1 #
vertex $-1 $360 $370 #
vertex $-1 $294 $371 #
straight-curve $-1 57.559129612109743 27.29944650233606 84.485125945472276 0 0 1 I I #
vertex $-1 $221 $372 #
point $-1 52.717501822019294 31.643209209578721 9.6108393363581062 #
straight-curve $-1 -57.559129612109743 35.986971916821382 0 0 0 -1 I I #
point $-1 -57.559129612109743 -35.986971916821382 -16.600112403588117 #
straight-curve $-1 -57.559129612109743 0 -16.600112403588117 0 1 0 I I #
point $-1 -57.559129612109743 35.986971916821382 -16.600112403588117 #
face $-1 $373 $314 $13 $-1 $169 reversed single #
loop $-1 $-1 $260 $241 #
plane-surface $-1 0 -35.986971916821382 0 0 1 0 0 0 1 forward_v I I I I #
coedge $-1 $243 $320 $374 $375 forward $101 $-1 #
coedge $-1 $376 $247 $243 $310 reversed $314 $-1 #
edge $-1 $377 -35.986971916821382 $249 2.7867471096451464 $309 $265 forward 7 unknown #
straight-curve $-1 -36.213392252640062 -2.3252585842967441 16.600112403588117 0 -1 0 I I #
straight-curve $-1 -36.213392252640062 -2.3252585842967441 -16.600112403588117 0 1 0 I I #
coedge $-1 $247 $376 $251 $318 reversed $314 $-1 #
loop $-1 $-1 $247 $305 #
straight-curve $-1 -57.559129612109743 -2.7867471096451464 0 0 0 1 I I #
point $-1 -57.559129612109743 -2.7867471096451464 16.600112403588117 #
coedge $-1 $323 $251 $378 $379 forward $187 $-1 #
edge $-1 $252 -2.7867471096451464 $380 35.986971916821382 $313 $263 forward 7 unknown #
point $-1 -57.559129612109743 -2.7867471096451464 -16.600112403588117 #
coedge $-1 $308 $256 $381 $382 forward $101 $-1 #
coedge $-1 $260 $383 $256 $322 reversed $306 $-1 #
edge $-1 $264 -57.559129612109743 $384 57.559129612109743 $321 $385 forward 7 unknown #
coedge $-1 $258 $317 $386 $387 forward $187 $-1 #
coedge $-1 $383 $260 $258 $325 reversed $306 $-1 #
edge $-1 $388 -57.559129612109743 $262 57.559129612109743 $324 $389 forward 7 unknown #
straight-curve $-1 -57.559129612109743 -35.986971916821382 0 0 0 -1 I I #
point $-1 -57.559129612109743 -35.986971916821382 -16.600112403588117 #
point $-1 -57.559129612109743 -35.986971916821382 16.600112403588117 #
face $-1 $390 $391 $14 $-1 $392 reversed single #
loop $-1 $-1 $393 $266 #
plane-surface $-1 -36.213392252640062 -4.6505171685934883 0 -1 0 0 0 0 1 forward_v I I I I #
coedge $-1 $394 $395 $396 $397 reversed $267 $-1 #
coedge $-1 $398 $269 $399 $400 reversed $196 $-1 #
coedge $-1 $269 $398 $401 $402 reversed $196 $-1 #
coedge $-1 $403 $404 $269 $336 forward $391 $-1 #
edge $-1 $405 -16.600112403588117 $406 16.600112403588117 $335 $407 forward 7 unknown #
coedge $-1 $408 $409 $270 $338 forward $410 $-1 #
edge $-1 $340 -35.986971916821382 $353 35.986971916821382 $270 $411 forward 7 unknown #
coedge $-1 $343 $271 $409 $412 reversed $275 $-1 #
vertex $-1 $338 $413 #
straight-curve $-1 57.559129612109743 35.986971916821382 0 0 0 -1 I I #
straight-curve $-1 48.246229602487901 15.821604604789361 16.600112403588113 0 1 0 I I #
coedge $-1 $274 $339 $414 $415 reversed $275 $-1 #
edge $-1 $276 -48.246229602487894 $416 57.559129612109743 $274 $417 forward 7 unknown #
face $-1 $-1 $275 $14 $-1 $418 reversed single #
point $-1 48.246229602487894 35.986971916821382 16.600112403588113 #
coedge $-1 $419 $280 $420 $421 forward $120 $-1 #
coedge $-1 $281 $399 $404 $422 forward $120 $-1 #
coedge $-1 $423 $282 $281 $350 reversed $352 $-1 #
edge $-1 $424 -57.559129612109743 $284 57.559129612109743 $349 $425 forward 7 unknown #
coedge $-1 $282 $423 $408 $426 reversed $352 $-1 #
loop $-1 $-1 $423 $427 #
vertex $-1 $283 $428 #
straight-curve $-1 57.559129612109743 -35.986971916821382 0 0 0 -1 I I #
point $-1 57.559129612109743 -35.986971916821382 16.600112403588117 #
face $-1 $429 $430 $15 $-1 $431 forward single #
loop $-1 $-1 $432 $286 #
plane-surface $-1 -46.886260932374903 -6.5142872275418302 0 0 1 0 0 0 1 forward_v I I I I #
coedge $-1 $289 $433 $434 $435 reversed $214 $-1 #
edge $-1 $436 -20.165367312032021 $296 -11.4778418975467 $289 $437 forward 7 unknown #
coedge $-1 $362 $290 $438 $439 reversed $216 $-1 #
coedge $-1 $291 $361 $365 $440 reversed $216 $-1 #
vertex $-1 $440 $441 #
straight-curve $-1 -41.116477434741007 27.29944650233606 70.294644844093781 -0.85716729658548041 0 0.51503808176128008 I I #
coedge $-1 $442 $293 $362 $440 forward $287 $-1 #
coedge $-1 $293 $443 $295 $369 forward $287 $-1 #
straight-curve $-1 9.0869049858993947 27.29944650233606 16.600112403588113 -1 0 0 I I #
coedge $-1 $433 $295 $444 $445 forward $214 $-1 #
edge $-1 $446 -35.986971916821382 $297 27.29944650233606 $295 $447 forward 7 unknown #
point $-1 57.55912961210975 27.29944650233606 11.004357437553992 #
point $-1 57.559129612109743 27.29944650233606 16.600112403588117 #
point $-1 49.973091065325768 31.643209209578721 8.9265809067097059 #
face $-1 $448 $449 $13 $-1 $450 reversed single #
coedge $-1 $451 $452 $308 $375 reversed $449 $-1 #
edge $-1 $453 -57.559129612109743 $377 57.559129612109743 $374 $454 forward 7 unknown #
coedge $-1 $313 $309 $452 $455 forward $314 $-1 #
vertex $-1 $375 $456 #
coedge $-1 $452 $451 $317 $379 reversed $449 $-1 #
edge $-1 $380 -57.559129612109743 $457 57.559129612109743 $378 $458 forward 7 unknown #
vertex $-1 $379 $459 #
coedge $-1 $460 $461 $320 $382 reversed $462 $-1 #
edge $-1 $384 -35.986971916821382 $453 35.986971916821382 $381 $463 forward 7 unknown #
coedge $-1 $321 $324 $460 $464 reversed $306 $-1 #
vertex $-1 $382 $465 #
straight-curve $-1 0 -35.986971916821382 16.600112403588117 1 0 0 I I #
coedge $-1 $461 $460 $323 $387 reversed $462 $-1 #
edge $-1 $457 -35.986971916821382 $388 35.986971916821382 $386 $466 forward 7 unknown #
vertex $-1 $464 $467 #
straight-curve $-1 0 -35.986971916821382 -16.600112403588117 -1 0 0 I I #
face $-1 $427 $410 $14 $-1 $468 reversed single #
loop $-1 $-1 $335 $329 #
plane-surface $-1 -57.559129612109743 0 0 1 0 0 0 0 -1 forward_v I I I I #
coedge $-1 $469 $470 $398 $471 reversed $330 $-1 #
coedge $-1 $472 $332 $419 $473 reversed $267 $-1 #
coedge $-1 $332 $472 $474 $475 reversed $267 $-1 #
coedge $-1 $470 $469 $332 $397 forward $330 $-1 #
edge $-1 $476 -16.600112403588117 $477 16.600112403588117 $396 $478 forward 7 unknown #
coedge $-1 $334 $333 $393 $471 forward $196 $-1 #
coedge $-1 $348 $479 $333 $400 forward $120 $-1 #
edge $-1 $480 12.770261786452611 $405 34.115999145922288 $399 $481 forward 7 unknown #
coedge $-1 $482 $483 $334 $402 forward $410 $-1 #
edge $-1 $406 -34.115999145922288 $484 -12.770261786452611 $401 $485 forward 7 unknown #
coedge $-1 $486 $335 $483 $487 reversed $391 $-1 #
coedge $-1 $335 $486 $348 $422 reversed $391 $-1 #
vertex $-1 $422 $488 #
vertex $-1 $336 $489 #
straight-curve $-1 -57.559129612109743 -6.5142872275418302 0 0 0 -1 I I #
coedge $-1 $483 $337 $351 $426 forward $410 $-1 #
coedge $-1 $337 $490 $339 $412 forward $410 $-1 #
loop $-1 $-1 $474 $390 #
straight-curve $-1 57.559129612109743 0 -16.600112403588117 0 -1 0 I I #
edge $-1 $491 -57.559129612109743 $340 57.559129612109743 $339 $492 forward 7 unknown #
point $-1 57.559129612109743 35.986971916821382 -16.600112403588117 #
coedge $-1 $493 $420 $343 $415 forward $494 $-1 #
edge $-1 $416 -16.600112403588117 $491 16.600112403588117 $343 $495 forward 7 unknown #
vertex $-1 $344 $496 #
straight-curve $-1 0 35.986971916821382 16.600112403588117 -1 0 0 I I #
plane-surface $-1 0 35.986971916821382 0 0 -1 0 0 0 -1 forward_v I I I I #
coedge $-1 $479 $347 $394 $473 forward $120 $-1 #
coedge $-1 $414 $497 $347 $421 reversed $494 $-1 #
edge $-1 $416 -35.986971916821382 $498 2.7867471096451464 $420 $499 forward 7 unknown #
edge $-1 $405 6.5142872275418302 $424 35.986971916821382 $404 $499 forward 7 unknown #
coedge $-1 $351 $349 $486 $500 forward $352 $-1 #
vertex $-1 $422 $501 #
straight-curve $-1 0 -35.986971916821382 16.600112403588117 1 0 0 I I #
edge $-1 $353 -57.559129612109743 $502 57.559129612109743 $351 $503 forward 7 unknown #
face $-1 $504 $352 $14 $-1 $505 reversed single #
point $-1 57.559129612109743 -35.986971916821382 -16.600112403588117 #
face $-1 $506 $507 $15 $-1 $508 forward single #
loop $-1 $-1 $509 $356 #
plane-surface $-1 -46.886260932374903 -2.7867471096451464 0 0 -1 0 0 0 -1 forward_v I I I I #
coedge $-1 $510 $511 $512 $513 reversed $357 $-1 #
coedge $-1 $359 $368 $514 $515 reversed $214 $-1 #
coedge $-1 $516 $438 $359 $435 forward $517 $-1 #
edge $-1 $436 -11.004357437553997 $518 16.600112403588117 $359 $519 forward 7 unknown #
vertex $-1 $435 $520 #
straight-curve $-1 57.559129612109736 15.821604604789361 11.004357437553999 0 -1 0 I I #
coedge $-1 $434 $521 $361 $439 forward $517 $-1 #
edge $-1 $522 68.529459572664962 $436 79.394199800995779 $438 $523 forward 7 unknown #
edge $-1 $363 11.4778418975467 $522 20.165367312032021 $365 $524 forward 7 unknown #
point $-1 48.246229602487894 27.29944650233606 16.600112403588113 #
coedge $-1 $525 $365 $521 $526 forward $287 $-1 #
coedge $-1 $366 $527 $528 $529 forward $287 $-1 #
coedge $-1 $528 $530 $368 $445 reversed $531 $-1 #
edge $-1 $446 -16.600112403588117 $532 16.600112403588117 $368 $533 forward 7 unknown #
vertex $-1 $369 $534 #
straight-curve $-1 57.559129612109743 0 16.600112403588117 0 1 0 I I #
face $-1 $-1 $462 $13 $-1 $535 reversed single #
loop $-1 $-1 $451 $373 #
plane-surface $-1 0 35.986971916821382 0 0 -1 0 0 0 -1 forward_v I I I I #
coedge $-1 $378 $374 $461 $536 forward $449 $-1 #
coedge $-1 $374 $378 $376 $455 reversed $449 $-1 #
vertex $-1 $382 $537 #
straight-curve $-1 0 35.986971916821382 16.600112403588117 -1 0 0 I I #
edge $-1 $377 -16.600112403588117 $380 16.600112403588117 $452 $538 forward 7 unknown #
point $-1 -57.559129612109743 35.986971916821382 16.600112403588117 #
vertex $-1 $387 $539 #
straight-curve $-1 0 35.986971916821382 -16.600112403588117 1 0 0 I I #
point $-1 -57.559129612109743 35.986971916821382 -16.600112403588117 #
coedge $-1 $386 $381 $383 $464 forward $462 $-1 #
coedge $-1 $381 $386 $451 $536 reversed $462 $-1 #
loop $-1 $-1 $460 $448 #
straight-curve $-1 57.559129612109743 0 16.600112403588117 0 1 0 I I #
edge $-1 $384 -16.600112403588117 $388 16.600112403588117 $460 $540 forward 7 unknown #
point $-1 57.559129612109743 -35.986971916821382 16.600112403588117 #
straight-curve $-1 57.559129612109743 0 -16.600112403588117 0 -1 0 I I #
point $-1 57.559129612109743 -35.986971916821382 -16.600112403588117 #
plane-surface $-1 0 0 -16.600112403588117 0 0 1 1 0 0 forward_v I I I I #
coedge $-1 $396 $393 $479 $541 reversed $330 $-1 #
coedge $-1 $393 $396 $482 $542 reversed $330 $-1 #
edge $-1 $480 -16.600112403588117 $484 16.600112403588117 $393 $543 forward 7 unknown #
coedge $-1 $395 $394 $497 $544 reversed $267 $-1 #
edge $-1 $498 -34.115999145922288 $476 -12.770261786452611 $419 $545 forward 7 unknown #
coedge $-1 $490 $482 $395 $475 forward $410 $-1 #
edge $-1 $477 12.770261786452611 $546 34.115999145922288 $474 $547 forward 7 unknown #
vertex $-1 $473 $548 #
vertex $-1 $475 $549 #
straight-curve $-1 -36.213392252640062 -2.7867471096451464 0 0 0 -1 I I #
coedge $-1 $399 $419 $469 $541 forward $120 $-1 #
vertex $-1 $400 $550 #
straight-curve $-1 -23.443130466187451 -6.5142872275418302 16.600112403588117 -1 0 0 I I #
coedge $-1 $474 $401 $470 $542 forward $410 $-1 #
coedge $-1 $401 $408 $403 $487 forward $410 $-1 #
vertex $-1 $402 $551 #
straight-curve $-1 -23.443130466187451 -6.5142872275418302 -16.600112403588117 1 0 0 I I #
coedge $-1 $404 $403 $423 $500 reversed $391 $-1 #
edge $-1 $502 -35.986971916821382 $406 -6.5142872275418302 $403 $552 forward 7 unknown #
point $-1 -57.559129612109743 -6.5142872275418302 16.600112403588117 #
point $-1 -57.559129612109743 -6.5142872275418302 -16.600112403588117 #
coedge $-1 $409 $474 $493 $553 forward $410 $-1 #
vertex $-1 $412 $554 #
straight-curve $-1 0 35.986971916821382 -16.600112403588117 1 0 0 I I #
coedge $-1 $497 $414 $490 $553 reversed $494 $-1 #
loop $-1 $-1 $497 $504 #
straight-curve $-1 -57.559129612109743 35.986971916821382 0 0 0 -1 I I #
point $-1 -57.559129612109743 35.986971916821382 16.600112403588117 #
coedge $-1 $420 $493 $472 $544 forward $494 $-1 #
vertex $-1 $544 $555 #
straight-curve $-1 -57.559129612109743 0 16.600112403588117 0 -1 0 I I #
edge $-1 $424 -16.600112403588117 $502 16.600112403588117 $486 $556 forward 7 unknown #
point $-1 -57.559129612109743 -35.986971916821382 16.600112403588117 #
vertex $-1 $487 $557 #
straight-curve $-1 0 -35.986971916821382 -16.600112403588117 -1 0 0 I I #
face $-1 $345 $494 $14 $-1 $392 reversed single #
plane-surface $-1 0 -35.986971916821382 0 0 1 0 0 0 1 forward_v I I I I #
face $-1 $558 $559 $15 $-1 $560 reversed single #
loop $-1 $-1 $561 $429 #
plane-surface $-1 -36.213392252640062 -4.6505171685934883 0 -1 0 0 0 0 1 forward_v I I I I #
coedge $-1 $562 $563 $564 $565 reversed $430 $-1 #
coedge $-1 $566 $432 $567 $568 reversed $357 $-1 #
coedge $-1 $432 $566 $569 $570 reversed $357 $-1 #
coedge $-1 $571 $572 $432 $513 forward $559 $-1 #
edge $-1 $573 -16.600112403588117 $574 16.600112403588117 $512 $575 forward 7 unknown #
coedge $-1 $576 $577 $433 $515 forward $578 $-1 #
edge $-1 $518 -35.986971916821382 $532 35.986971916821382 $433 $579 forward 7 unknown #
coedge $-1 $580 $434 $577 $581 reversed $517 $-1 #
loop $-1 $-1 $438 $582 #
vertex $-1 $515 $583 #
straight-curve $-1 57.559129612109743 35.986971916821382 0 0 0 -1 I I #
point $-1 57.559129612109743 35.986971916821382 11.004357437553997 #
coedge $-1 $438 $580 $442 $526 reversed $517 $-1 #
vertex $-1 $526 $584 #
straight-curve $-1 -10.494981995877302 35.986971916821382 51.895393806030668 0.85716729658548041 0 -0.51503808176128008 I I #
straight-curve $-1 48.246229602487901 15.821604604789361 16.600112403588113 0 1 0 I I #
coedge $-1 $585 $442 $586 $587 forward $287 $-1 #
edge $-1 $522 -48.246229602487894 $588 57.559129612109743 $521 $589 forward 7 unknown #
coedge $-1 $443 $567 $572 $590 forward $287 $-1 #
coedge $-1 $591 $444 $443 $529 reversed $531 $-1 #
edge $-1 $592 -57.559129612109743 $446 57.559129612109743 $528 $593 forward 7 unknown #
coedge $-1 $444 $591 $576 $594 reversed $531 $-1 #
loop $-1 $-1 $591 $595 #
vertex $-1 $445 $596 #
straight-curve $-1 57.559129612109743 -35.986971916821382 0 0 0 -1 I I #
point $-1 57.559129612109743 -35.986971916821382 16.600112403588117 #
plane-surface $-1 57.559129612109743 0 0 -1 0 0 0 0 1 forward_v I I I I #
edge $-1 $453 -16.600112403588117 $457 16.600112403588117 $461 $597 forward 7 unknown #
point $-1 57.559129612109743 35.986971916821382 16.600112403588117 #
straight-curve $-1 -57.559129612109743 35.986971916821382 0 0 0 -1 I I #
point $-1 57.559129612109743 35.986971916821382 -16.600112403588117 #
straight-curve $-1 57.559129612109743 -35.986971916821382 0 0 0 -1 I I #
edge $-1 $476 0.46148852534840223 $480 4.1890286432450861 $479 $598 forward 7 unknown #
edge $-1 $484 -4.1890286432450861 $477 -0.46148852534840223 $482 $599 forward 7 unknown #
straight-curve $-1 -36.213392252640062 -6.5142872275418302 0 0 0 -1 I I #
edge $-1 $546 -16.600112403588117 $498 16.600112403588117 $497 $600 forward 7 unknown #
straight-curve $-1 -23.443130466187451 -2.7867471096451464 16.600112403588117 1 0 0 I I #
vertex $-1 $553 $601 #
straight-curve $-1 -23.443130466187451 -2.7867471096451464 -16.600112403588117 -1 0 0 I I #
point $-1 -36.213392252640062 -2.7867471096451464 16.600112403588117 #
point $-1 -36.213392252640062 -2.7867471096451464 -16.600112403588117 #
point $-1 -36.213392252640062 -6.5142872275418302 16.600112403588117 #
point $-1 -36.213392252640062 -6.5142872275418302 -16.600112403588117 #
straight-curve $-1 -57.559129612109743 0 -16.600112403588117 0 1 0 I I #
edge $-1 $546 -2.7867471096451464 $491 35.986971916821382 $493 $552 forward 7 unknown #
point $-1 -57.559129612109743 35.986971916821382 -16.600112403588117 #
point $-1 -57.559129612109743 -2.7867471096451464 16.600112403588117 #
straight-curve $-1 -57.559129612109743 -35.986971916821382 0 0 0 -1 I I #
point $-1 -57.559129612109743 -35.986971916821382 -16.600112403588117 #
face $-1 $595 $578 $15 $-1 $602 reversed single #
loop $-1 $-1 $512 $506 #
plane-surface $-1 -57.559129612109743 0 0 1 0 0 0 0 -1 forward_v I I I I #
coedge $-1 $603 $604 $566 $605 reversed $507 $-1 #
coedge $-1 $606 $509 $585 $607 reversed $430 $-1 #
coedge $-1 $509 $606 $608 $609 reversed $430 $-1 #
coedge $-1 $604 $603 $509 $565 forward $507 $-1 #
edge $-1 $610 -16.600112403588117 $611 16.600112403588117 $564 $612 forward 7 unknown #
coedge $-1 $511 $510 $561 $605 forward $357 $-1 #
coedge $-1 $527 $613 $510 $568 forward $287 $-1 #
edge $-1 $614 12.770261786452611 $573 34.115999145922288 $567 $615 forward 7 unknown #
coedge $-1 $616 $617 $511 $570 forward $578 $-1 #
edge $-1 $574 -34.115999145922288 $618 -12.770261786452611 $569 $619 forward 7 unknown #
coedge $-1 $620 $512 $617 $621 reversed $559 $-1 #
coedge $-1 $512 $620 $527 $590 reversed $559 $-1 #
vertex $-1 $590 $622 #
vertex $-1 $513 $623 #
straight-curve $-1 -57.559129612109743 -6.5142872275418302 0 0 0 -1 I I #
coedge $-1 $617 $514 $530 $594 forward $578 $-1 #
coedge $-1 $514 $624 $516 $581 forward $578 $-1 #
loop $-1 $-1 $608 $558 #
straight-curve $-1 57.559129612109743 0 -16.600112403588117 0 -1 0 I I #
coedge $-1 $521 $516 $625 $626 reversed $517 $-1 #
edge $-1 $627 -57.559129612109743 $518 57.559129612109743 $516 $628 forward 7 unknown #
face $-1 $-1 $517 $15 $-1 $629 reversed single #
point $-1 57.559129612109743 35.986971916821382 -16.600112403588117 #
point $-1 48.246229602487894 35.986971916821382 16.600112403588113 #
coedge $-1 $613 $525 $562 $607 forward $287 $-1 #
coedge $-1 $625 $630 $525 $587 reversed $631 $-1 #
edge $-1 $588 -35.986971916821382 $632 2.7867471096451464 $586 $633 forward 7 unknown #
vertex $-1 $526 $634 #
straight-curve $-1 0 35.986971916821382 16.600112403588117 -1 0 0 I I #
edge $-1 $573 6.5142872275418302 $592 35.986971916821382 $572 $633 forward 7 unknown #
coedge $-1 $530 $528 $620 $635 forward $531 $-1 #
vertex $-1 $590 $636 #
straight-curve $-1 0 -35.986971916821382 16.600112403588117 1 0 0 I I #
edge $-1 $532 -57.559129612109743 $637 57.559129612109743 $530 $638 forward 7 unknown #
face $-1 $639 $531 $15 $-1 $640 reversed single #
point $-1 57.559129612109743 -35.986971916821382 -16.600112403588117 #
straight-curve $-1 57.559129612109743 35.986971916821382 0 0 0 -1 I I #
straight-curve $-1 -36.213392252640062 -2.3252585842967441 16.600112403588117 0 -1 0 I I #
straight-curve $-1 -36.213392252640062 -2.3252585842967441 -16.600112403588117 0 1 0 I I #
straight-curve $-1 -57.559129612109743 -2.7867471096451464 0 0 0 1 I I #
point $-1 -57.559129612109743 -2.7867471096451464 -16.600112403588117 #
plane-surface $-1 0 0 -16.600112403588117 0 0 1 1 0 0 forward_v I I I I #
coedge $-1 $564 $561 $613 $641 reversed $507 $-1 #
coedge $-1 $561 $564 $616 $642 reversed $507 $-1 #
edge $-1 $614 -16.600112403588117 $618 16.600112403588117 $561 $643 forward 7 unknown #
coedge $-1 $563 $562 $630 $644 reversed $430 $-1 #
edge $-1 $632 -34.115999145922288 $610 -12.770261786452611 $585 $645 forward 7 unknown #
coedge $-1 $624 $616 $563 $609 forward $578 $-1 #
edge $-1 $611 12.770261786452611 $646 34.115999145922288 $608 $647 forward 7 unknown #
vertex $-1 $607 $648 #
vertex $-1 $609 $649 #
straight-curve $-1 -36.213392252640062 -2.7867471096451464 0 0 0 -1 I I #
coedge $-1 $567 $585 $603 $641 forward $287 $-1 #
vertex $-1 $568 $650 #
straight-curve $-1 -23.443130466187451 -6.5142872275418302 16.600112403588117 -1 0 0 I I #
coedge $-1 $608 $569 $604 $642 forward $578 $-1 #
coedge $-1 $569 $576 $571 $621 forward $578 $-1 #
vertex $-1 $570 $651 #
straight-curve $-1 -23.443130466187451 -6.5142872275418302 -16.600112403588117 1 0 0 I I #
coedge $-1 $572 $571 $591 $635 reversed $559 $-1 #
edge $-1 $637 -35.986971916821382 $574 -6.5142872275418302 $571 $652 forward 7 unknown #
point $-1 -57.559129612109743 -6.5142872275418302 16.600112403588117 #
point $-1 -57.559129612109743 -6.5142872275418302 -16.600112403588117 #
coedge $-1 $577 $608 $653 $654 forward $578 $-1 #
coedge $-1 $653 $586 $580 $626 forward $631 $-1 #
edge $-1 $588 -16.600112403588117 $627 16.600112403588117 $580 $655 forward 7 unknown #
vertex $-1 $581 $656 #
straight-curve $-1 0 35.986971916821382 -16.600112403588117 1 0 0 I I #
plane-surface $-1 0 35.986971916821382 0 0 -1 0 0 0 -1 forward_v I I I I #
coedge $-1 $586 $653 $606 $644 forward $631 $-1 #
loop $-1 $-1 $630 $639 #
vertex $-1 $644 $657 #
straight-curve $-1 -57.559129612109743 0 16.600112403588117 0 -1 0 I I #
point $-1 -57.559129612109743 35.986971916821382 16.600112403588117 #
edge $-1 $592 -16.600112403588117 $637 16.600112403588117 $620 $658 forward 7 unknown #
point $-1 -57.559129612109743 -35.986971916821382 16.600112403588117 #
vertex $-1 $621 $659 #
straight-curve $-1 0 -35.986971916821382 -16.600112403588117 -1 0 0 I I #
face $-1 $582 $631 $15 $-1 $560 reversed single #
plane-surface $-1 0 -35.986971916821382 0 0 1 0 0 0 1 forward_v I I I I #
edge $-1 $610 0.46148852534840223 $614 4.1890286432450861 $613 $660 forward 7 unknown #
edge $-1 $618 -4.1890286432450861 $611 -0.46148852534840223 $616 $661 forward 7 unknown #
straight-curve $-1 -36.213392252640062 -6.5142872275418302 0 0 0 -1 I I #
edge $-1 $646 -16.600112403588117 $632 16.600112403588117 $630 $662 forward 7 unknown #
straight-curve $-1 -23.443130466187451 -2.7867471096451464 16.600112403588117 1 0 0 I I #
vertex $-1 $654 $663 #
straight-curve $-1 -23.443130466187451 -2.7867471096451464 -16.600112403588117 -1 0 0 I I #
point $-1 -36.213392252640062 -2.7867471096451464 16.600112403588117 #
point $-1 -36.213392252640062 -2.7867471096451464 -16.600112403588117 #
point $-1 -36.213392252640062 -6.5142872275418302 16.600112403588117 #
point $-1 -36.213392252640062 -6.5142872275418302 -16.600112403588117 #
straight-curve $-1 -57.559129612109743 0 -16.600112403588117 0 1 0 I I #
coedge $-1 $630 $625 $624 $654 reversed $631 $-1 #
edge $-1 $646 -2.7867471096451464 $627 35.986971916821382 $653 $652 forward 7 unknown #
straight-curve $-1 -57.559129612109743 35.986971916821382 0 0 0 -1 I I #
point $-1 -57.559129612109743 35.986971916821382 -16.600112403588117 #
point $-1 -57.559129612109743 -2.7867471096451464 16.600112403588117 #
straight-curve $-1 -57.559129612109743 -35.986971916821382 0 0 0 -1 I I #
point $-1 -57.559129612109743 -35.986971916821382 -16.600112403588117 #
straight-curve $-1 -36.213392252640062 -2.3252585842967441 16.600112403588117 0 -1 0 I I #
straight-curve $-1 -36.213392252640062 -2.3252585842967441 -16.600112403588117 0 1 0 I I #
straight-curve $-1 -57.559129612109743 -2.7867471096451464 0 0 0 1 I I #
point $-1 -57.559129612109743 -2.7867471096451464 -16.600112403588117 #
End-of-ACIS-data 