500 0 11 0           
7 Unknown 11 ACIS 5.0 NT 24 Fri Mar 26 15:53:23 1999 
-1 9.9999999999999995e-007 1e-010 
body $-1 $11 $-1 $12 #
body $-1 $13 $-1 $14 #
body $-1 $15 $-1 $16 #
body $-1 $17 $-1 $18 #
body $-1 $19 $-1 $20 #
body $-1 $21 $-1 $22 #
body $-1 $23 $-1 $24 #
body $-1 $25 $-1 $26 #
body $-1 $27 $-1 $28 #
body $-1 $29 $-1 $30 #
body $-1 $31 $-1 $32 #
lump $-1 $-1 $33 $0 #
transform $-1 1 0 0 0 1 0 0 0 1 59.738151188695944 35.064783381837358 15.366672869904781 1 rotate no_reflect no_shear #
lump $-1 $-1 $34 $1 #
transform $-1 1 0 0 0 1 0 0 0 1 59.738151188695944 35.064783381837358 15.366672869904781 1 rotate no_reflect no_shear #
lump $-1 $-1 $35 $2 #
transform $-1 1 0 0 0 1 0 0 0 1 59.738151188695944 35.064783381837358 15.366672869904781 1 rotate no_reflect no_shear #
lump $-1 $-1 $36 $3 #
transform $-1 1 0 0 0 1 0 0 0 1 59.738151188695944 35.064783381837358 15.366672869904781 1 rotate no_reflect no_shear #
lump $-1 $-1 $37 $4 #
transform $-1 1 0 0 0 1 0 0 0 1 59.738151188695944 35.064783381837358 15.366672869904781 1 rotate no_reflect no_shear #
lump $-1 $-1 $38 $5 #
transform $-1 1 0 0 0 1 0 0 0 1 59.738151188695944 35.064783381837358 15.366672869904781 1 rotate no_reflect no_shear #
lump $-1 $-1 $39 $6 #
transform $-1 1 0 0 0 1 0 0 0 1 59.738151188695944 35.064783381837358 15.366672869904781 1 rotate no_reflect no_shear #
lump $-1 $-1 $40 $7 #
transform $-1 1 0 0 0 1 0 0 0 1 59.738151188695944 35.064783381837358 15.366672869904781 1 rotate no_reflect no_shear #
lump $-1 $-1 $41 $8 #
transform $-1 1 0 0 0 1 0 0 0 1 59.738151188695944 35.064783381837358 15.366672869904781 1 rotate no_reflect no_shear #
lump $-1 $-1 $42 $9 #
transform $-1 1 0 0 0 1 0 0 0 1 59.738151188695944 35.064783381837358 15.366672869904781 1 rotate no_reflect no_shear #
lump $-1 $-1 $43 $10 #
transform $-1 1 0 0 0 1 0 0 0 1 59.738151188695944 35.064783381837358 15.366672869904781 1 rotate no_reflect no_shear #
shell $-1 $-1 $-1 $44 $-1 $11 #
shell $-1 $-1 $-1 $45 $-1 $13 #
shell $-1 $-1 $-1 $46 $-1 $15 #
shell $-1 $-1 $-1 $47 $-1 $17 #
shell $-1 $-1 $-1 $48 $-1 $19 #
shell $-1 $-1 $-1 $49 $-1 $21 #
shell $-1 $-1 $-1 $50 $-1 $23 #
shell $-1 $-1 $-1 $51 $-1 $25 #
shell $-1 $-1 $-1 $52 $-1 $27 #
shell $-1 $-1 $-1 $53 $-1 $29 #
shell $-1 $-1 $-1 $54 $-1 $31 #
face $-1 $55 $56 $33 $-1 $57 forward single #
face $-1 $58 $59 $34 $-1 $60 forward single #
face $-1 $61 $62 $35 $-1 $63 reversed single #
face $-1 $64 $65 $36 $-1 $66 forward single #
face $-1 $67 $68 $37 $-1 $69 forward single #
face $-1 $70 $71 $38 $-1 $72 reversed single #
face $-1 $73 $74 $39 $-1 $75 forward single #
face $-1 $76 $77 $40 $-1 $78 forward single #
face $-1 $79 $80 $41 $-1 $81 reversed single #
face $-1 $82 $83 $42 $-1 $84 forward single #
face $-1 $85 $86 $43 $-1 $87 forward single #
face $-1 $88 $89 $33 $-1 $90 reversed single #
loop $-1 $-1 $91 $44 #
plane-surface $-1 0 0 15.366672869904781 0 0 1 1 0 0 forward_v I I I I #
face $-1 $92 $93 $34 $-1 $94 reversed single #
loop $-1 $-1 $95 $45 #
plane-surface $-1 0 -35.064783381837358 0 0 1 0 0 0 1 forward_v I I I I #
face $-1 $96 $97 $35 $-1 $98 reversed single #
loop $-1 $-1 $99 $46 #
plane-surface $-1 -163.20766512190175 22.295999266973343 69.884882584853429 0 1 0 -0.86602541151947299 0 0.49999998660252726 forward_v I I I I #
face $-1 $100 $101 $36 $-1 $102 forward single #
loop $-1 $103 $104 $47 #
cone-surface $-1 -57.10476683017901 25.944223299791638 12.10630773610097 0.86602541151947299 0 -0.49999998660252726 0.49999998660252726 0 0.86602541151947299 1 I I 0 1 1 forward I I I I #
face $-1 $105 $106 $37 $-1 $107 forward single #
loop $-1 $108 $109 $48 #
cone-surface $-1 -57.10476683017901 31.416559349019067 12.10630773610097 0.86602541151947299 0 -0.49999998660252726 0.49999998660252726 0 0.86602541151947299 1 I I 0 1 1 forward I I I I #
face $-1 $110 $111 $38 $-1 $112 reversed single #
loop $-1 $-1 $113 $49 #
plane-surface $-1 86.170104024765749 0.59527265463988499 177.16887833511402 0 -1 0 -0.80901700255871778 0 -0.5877852410284794 forward_v I I I I #
face $-1 $114 $115 $39 $-1 $116 forward single #
loop $-1 $117 $118 $50 #
cone-surface $-1 57.200680325382827 -9.7328506979105711 12.323262276474294 -0.80901700255871778 0 -0.5877852410284794 0.5877852410284794 0 -0.80901700255871778 1 I I 0 1 1 forward I I I I #
face $-1 $119 $120 $40 $-1 $121 forward single #
loop $-1 $122 $123 $51 #
cone-surface $-1 57.200680325382827 -3.5359766863802946 12.323262276474294 -0.80901700255871778 0 -0.5877852410284794 0.5877852410284794 0 -0.80901700255871778 1 I I 0 1 1 forward I I I I #
face $-1 $124 $125 $41 $-1 $126 reversed single #
loop $-1 $-1 $127 $52 #
plane-surface $-1 86.170104024765749 30.047705524164797 177.16887833511402 0 -1 0 -0.80901700255871778 0 -0.5877852410284794 forward_v I I I I #
face $-1 $128 $129 $42 $-1 $130 forward single #
loop $-1 $131 $132 $53 #
cone-surface $-1 57.200680325382827 19.719582171614341 12.323262276474294 -0.80901700255871778 0 -0.5877852410284794 0.5877852410284794 0 -0.80901700255871778 1 I I 0 1 1 forward I I I I #
face $-1 $133 $134 $43 $-1 $135 forward single #
loop $-1 $136 $137 $54 #
cone-surface $-1 57.200680325382827 25.916456183144618 12.323262276474294 -0.80901700255871778 0 -0.5877852410284794 0.5877852410284794 0 -0.80901700255871778 1 I I 0 1 1 forward I I I I #
face $-1 $138 $139 $33 $-1 $140 reversed single #
loop $-1 $-1 $141 $55 #
plane-surface $-1 0 0 -15.366672869904781 0 0 1 1 0 0 forward_v I I I I #
coedge $-1 $142 $143 $144 $145 forward $56 $-1 #
face $-1 $146 $147 $34 $-1 $148 reversed single #
loop $-1 $-1 $149 $58 #
plane-surface $-1 0 0 -15.366672869904781 0 0 1 1 0 0 forward_v I I I I #
coedge $-1 $150 $151 $152 $153 forward $59 $-1 #
face $-1 $154 $155 $35 $-1 $156 reversed single #
loop $-1 $-1 $157 $61 #
plane-surface $-1 -59.738151188695937 28.680391324405349 10.146732996837983 -0.86602541151947299 0 0.49999998660252726 0.49999998660252726 0 0.86602541151947299 forward_v I I I I #
coedge $-1 $158 $159 $160 $161 reversed $62 $-1 #
face $-1 $-1 $162 $36 $-1 $163 forward single #
loop $-1 $164 $165 $64 #
cone-surface $-1 -55.545236557501504 25.944223299791638 11.205912545529296 0.86602541151947299 0 -0.49999998660252726 0.24999999330126363 0 0.43301270575973649 1 I I -0.70710678118654746 0.70710678118654746 0.5 forward I I I I #
loop $-1 $-1 $166 $47 #
coedge $-1 $104 $104 $167 $168 reversed $65 $-1 #
face $-1 $-1 $169 $37 $-1 $170 forward single #
loop $-1 $171 $172 $67 #
cone-surface $-1 -55.545236557501504 31.416559349019067 11.205912545529296 0.86602541151947299 0 -0.49999998660252726 0.24999999330126363 0 0.43301270575973649 1 I I -0.70710678118654746 0.70710678118654746 0.5 forward I I I I #
loop $-1 $-1 $173 $48 #
coedge $-1 $109 $109 $174 $175 reversed $68 $-1 #
face $-1 $176 $177 $38 $-1 $178 reversed single #
loop $-1 $-1 $179 $70 #
plane-surface $-1 -10.488256001390837 -6.6344136921454364 106.94247114502724 0.80901700255871778 0 0.5877852410284794 0.5877852410284794 0 -0.80901700255871778 forward_v I I I I #
coedge $-1 $180 $181 $182 $183 reversed $71 $-1 #
face $-1 $-1 $184 $39 $-1 $185 forward single #
loop $-1 $186 $187 $73 #
cone-surface $-1 56.105049538400671 -9.7328506979105711 11.527239938046629 -0.80901700255871778 0 -0.5877852410284794 0.2938926205142397 0 -0.40450850127935889 1 I I -0.70710678118654746 0.70710678118654746 0.5 forward I I I I #
loop $-1 $-1 $188 $50 #
coedge $-1 $118 $118 $189 $190 reversed $74 $-1 #
face $-1 $-1 $191 $40 $-1 $192 forward single #
loop $-1 $193 $194 $76 #
cone-surface $-1 56.105049538400671 -3.5359766863802946 11.527239938046629 -0.80901700255871778 0 -0.5877852410284794 0.2938926205142397 0 -0.40450850127935889 1 I I -0.70710678118654746 0.70710678118654746 0.5 forward I I I I #
loop $-1 $-1 $195 $51 #
coedge $-1 $123 $123 $196 $197 reversed $77 $-1 #
face $-1 $198 $199 $41 $-1 $200 reversed single #
loop $-1 $-1 $201 $79 #
plane-surface $-1 -10.488256001390837 22.818019177379476 106.94247114502724 0.80901700255871778 0 0.5877852410284794 0.5877852410284794 0 -0.80901700255871778 forward_v I I I I #
coedge $-1 $202 $203 $204 $205 reversed $80 $-1 #
face $-1 $-1 $206 $42 $-1 $207 forward single #
loop $-1 $208 $209 $82 #
cone-surface $-1 56.105049538400671 19.719582171614341 11.527239938046629 -0.80901700255871778 0 -0.5877852410284794 0.2938926205142397 0 -0.40450850127935889 1 I I -0.70710678118654746 0.70710678118654746 0.5 forward I I I I #
loop $-1 $-1 $210 $53 #
coedge $-1 $132 $132 $211 $212 reversed $83 $-1 #
face $-1 $-1 $213 $43 $-1 $214 forward single #
loop $-1 $215 $216 $85 #
cone-surface $-1 56.105049538400671 25.916456183144618 11.527239938046629 -0.80901700255871778 0 -0.5877852410284794 0.2938926205142397 0 -0.40450850127935889 1 I I -0.70710678118654746 0.70710678118654746 0.5 forward I I I I #
loop $-1 $-1 $217 $54 #
coedge $-1 $137 $137 $218 $219 reversed $86 $-1 #
face $-1 $220 $221 $33 $-1 $222 reversed single #
loop $-1 $-1 $223 $88 #
plane-surface $-1 0 -35.064783381837358 0 0 1 0 0 0 1 forward_v I I I I #
coedge $-1 $224 $225 $226 $227 forward $89 $-1 #
coedge $-1 $228 $91 $229 $230 forward $56 $-1 #
coedge $-1 $91 $228 $231 $232 forward $56 $-1 #
coedge $-1 $233 $234 $91 $145 reversed $235 $-1 #
edge $-1 $236 -35.064783381837358 $237 35.064783381837358 $144 $238 forward 7 unknown #
face $-1 $239 $240 $34 $-1 $241 forward single #
loop $-1 $-1 $242 $92 #
plane-surface $-1 59.738151188695944 0 0 -1 0 0 0 0 1 forward_v I I I I #
coedge $-1 $243 $244 $245 $246 forward $93 $-1 #
coedge $-1 $245 $95 $242 $247 reversed $59 $-1 #
coedge $-1 $95 $245 $248 $249 reversed $59 $-1 #
coedge $-1 $250 $251 $95 $153 reversed $240 $-1 #
edge $-1 $252 -59.738151188695944 $253 59.738151188695944 $152 $254 forward 7 unknown #
face $-1 $255 $256 $35 $-1 $257 reversed single #
loop $-1 $-1 $258 $96 #
plane-surface $-1 0 35.064783381837358 0 0 -1 0 0 0 -1 forward_v I I I I #
coedge $-1 $259 $260 $261 $262 reversed $97 $-1 #
coedge $-1 $159 $99 $263 $264 reversed $62 $-1 #
coedge $-1 $99 $158 $259 $265 reversed $62 $-1 #
coedge $-1 $261 $266 $99 $161 forward $267 $-1 #
edge $-1 $268 21.865681372254933 $269 24.879414955453278 $160 $270 forward 7 unknown #
loop $-1 $-1 $167 $100 #
plane-surface $-1 -59.738151188695937 28.680391324405349 10.146732996837983 -0.86602541151947299 0 0.49999998660252726 0.49999998660252726 0 0.86602541151947299 forward_v I I I I #
loop $-1 $-1 $271 $64 #
coedge $-1 $165 $165 $166 $272 reversed $101 $-1 #
coedge $-1 $166 $166 $165 $272 forward $103 $-1 #
coedge $-1 $167 $167 $104 $168 forward $162 $-1 #
edge $-1 $273 0 $273 6.2831853071796004 $167 $274 forward 7 unknown #
loop $-1 $-1 $174 $105 #
plane-surface $-1 -59.738151188695937 28.680391324405349 10.146732996837983 -0.86602541151947299 0 0.49999998660252726 0.49999998660252726 0 0.86602541151947299 forward_v I I I I #
loop $-1 $-1 $275 $67 #
coedge $-1 $172 $172 $173 $276 reversed $106 $-1 #
coedge $-1 $173 $173 $172 $276 forward $108 $-1 #
coedge $-1 $174 $174 $109 $175 forward $169 $-1 #
edge $-1 $277 0 $277 6.2831853071796004 $174 $278 forward 7 unknown #
face $-1 $279 $280 $38 $-1 $281 forward single #
loop $-1 $-1 $282 $110 #
plane-surface $-1 86.170104024765749 -13.864100038930758 177.16887833511402 0 1 0 0.80901700255871778 0 0.5877852410284794 forward_v I I I I #
coedge $-1 $283 $284 $285 $286 reversed $111 $-1 #
coedge $-1 $181 $113 $287 $288 reversed $71 $-1 #
coedge $-1 $113 $180 $283 $289 reversed $71 $-1 #
coedge $-1 $285 $290 $113 $183 forward $280 $-1 #
edge $-1 $291 -16.65309917631307 $292 -12.960402021092406 $182 $293 forward 7 unknown #
loop $-1 $-1 $189 $114 #
plane-surface $-1 -10.488256001390837 -6.6344136921454364 106.94247114502724 0.80901700255871778 0 0.5877852410284794 0.5877852410284794 0 -0.80901700255871778 forward_v I I I I #
loop $-1 $-1 $294 $73 #
coedge $-1 $187 $187 $188 $295 reversed $115 $-1 #
coedge $-1 $188 $188 $187 $295 forward $117 $-1 #
coedge $-1 $189 $189 $118 $190 forward $184 $-1 #
edge $-1 $296 0 $296 6.2831853071796004 $189 $297 forward 7 unknown #
loop $-1 $-1 $196 $119 #
plane-surface $-1 -10.488256001390837 -6.6344136921454364 106.94247114502724 0.80901700255871778 0 0.5877852410284794 0.5877852410284794 0 -0.80901700255871778 forward_v I I I I #
loop $-1 $-1 $298 $76 #
coedge $-1 $194 $194 $195 $299 reversed $120 $-1 #
coedge $-1 $195 $195 $194 $299 forward $122 $-1 #
coedge $-1 $196 $196 $123 $197 forward $191 $-1 #
edge $-1 $300 0 $300 6.2831853071796004 $196 $301 forward 7 unknown #
face $-1 $302 $303 $41 $-1 $304 reversed single #
loop $-1 $-1 $305 $124 #
plane-surface $-1 86.170104024765749 15.588332830594155 177.16887833511402 0 1 0 0.80901700255871778 0 0.5877852410284794 forward_v I I I I #
coedge $-1 $306 $307 $308 $309 reversed $125 $-1 #
coedge $-1 $203 $127 $310 $311 reversed $80 $-1 #
coedge $-1 $127 $202 $306 $312 reversed $80 $-1 #
coedge $-1 $308 $313 $127 $205 forward $314 $-1 #
edge $-1 $315 -16.65309917631307 $316 -12.960402021092406 $204 $317 forward 7 unknown #
loop $-1 $-1 $211 $128 #
plane-surface $-1 -10.488256001390837 22.818019177379476 106.94247114502724 0.80901700255871778 0 0.5877852410284794 0.5877852410284794 0 -0.80901700255871778 forward_v I I I I #
loop $-1 $-1 $318 $82 #
coedge $-1 $209 $209 $210 $319 reversed $129 $-1 #
coedge $-1 $210 $210 $209 $319 forward $131 $-1 #
coedge $-1 $211 $211 $132 $212 forward $206 $-1 #
edge $-1 $320 0 $320 6.2831853071796004 $211 $321 forward 7 unknown #
loop $-1 $-1 $218 $133 #
plane-surface $-1 -10.488256001390837 22.818019177379476 106.94247114502724 0.80901700255871778 0 0.5877852410284794 0.5877852410284794 0 -0.80901700255871778 forward_v I I I I #
loop $-1 $-1 $322 $85 #
coedge $-1 $216 $216 $217 $323 reversed $134 $-1 #
coedge $-1 $217 $217 $216 $323 forward $136 $-1 #
coedge $-1 $218 $218 $137 $219 forward $213 $-1 #
edge $-1 $324 0 $324 6.2831853071796004 $218 $325 forward 7 unknown #
face $-1 $326 $327 $33 $-1 $328 reversed single #
loop $-1 $-1 $329 $138 #
plane-surface $-1 -59.738151188695944 0 0 1 0 0 0 0 -1 forward_v I I I I #
coedge $-1 $231 $330 $233 $331 reversed $139 $-1 #
coedge $-1 $332 $141 $330 $333 forward $89 $-1 #
coedge $-1 $141 $332 $334 $335 forward $89 $-1 #
coedge $-1 $234 $233 $141 $227 reversed $235 $-1 #
edge $-1 $336 -35.064783381837358 $337 35.064783381837358 $226 $338 forward 7 unknown #
coedge $-1 $143 $142 $339 $340 forward $56 $-1 #
coedge $-1 $341 $342 $142 $230 reversed $327 $-1 #
edge $-1 $237 -59.738151188695944 $343 59.738151188695944 $229 $344 forward 7 unknown #
coedge $-1 $345 $223 $143 $232 reversed $139 $-1 #
edge $-1 $346 -59.738151188695944 $236 59.738151188695944 $231 $347 forward 7 unknown #
coedge $-1 $226 $144 $223 $331 forward $235 $-1 #
coedge $-1 $144 $226 $341 $348 reversed $235 $-1 #
loop $-1 $-1 $233 $326 #
vertex $-1 $145 $349 #
vertex $-1 $145 $350 #
straight-curve $-1 59.738151188695944 0 15.366672869904781 0 1 0 I I #
face $-1 $351 $352 $34 $-1 $353 reversed single #
loop $-1 $-1 $251 $146 #
plane-surface $-1 0 -40.677133894149804 -12.146457533484353 0 0 1 1 0 0 forward_v I I I I #
coedge $-1 $354 $355 $150 $247 forward $147 $-1 #
coedge $-1 $356 $149 $355 $357 forward $93 $-1 #
coedge $-1 $149 $356 $358 $359 forward $93 $-1 #
coedge $-1 $151 $150 $149 $246 reversed $59 $-1 #
edge $-1 $360 -59.738151188695944 $361 59.738151188695944 $149 $362 forward 7 unknown #
edge $-1 $361 -15.366672869904781 $253 -12.146457533484353 $242 $363 forward 7 unknown #
coedge $-1 $358 $364 $151 $249 forward $365 $-1 #
edge $-1 $252 12.146457533484353 $360 15.366672869904781 $248 $366 forward 7 unknown #
coedge $-1 $367 $152 $364 $368 forward $240 $-1 #
coedge $-1 $152 $367 $354 $369 forward $240 $-1 #
vertex $-1 $249 $370 #
vertex $-1 $369 $371 #
straight-curve $-1 0 -35.064783381837358 -12.146457533484353 1 0 0 I I #
face $-1 $-1 $267 $35 $-1 $372 forward single #
loop $-1 $-1 $373 $154 #
plane-surface $-1 -59.738151188695944 0 0 1 0 0 0 0 -1 forward_v I I I I #
coedge $-1 $374 $375 $260 $376 forward $155 $-1 #
coedge $-1 $377 $157 $159 $265 forward $97 $-1 #
coedge $-1 $157 $377 $258 $376 reversed $97 $-1 #
coedge $-1 $378 $160 $157 $262 forward $267 $-1 #
edge $-1 $269 7.9558036047706686 $379 20.724587719634684 $261 $380 forward 7 unknown #
coedge $-1 $381 $373 $158 $264 forward $256 $-1 #
edge $-1 $382 -24.795708295588746 $268 -19.575768422521932 $263 $383 forward 7 unknown #
edge $-1 $269 -6.0274673279023343 $382 1.4321304723534956e-014 $159 $384 forward 7 unknown #
coedge $-1 $160 $378 $381 $385 forward $267 $-1 #
loop $-1 $-1 $261 $255 #
vertex $-1 $264 $386 #
vertex $-1 $161 $387 #
straight-curve $-1 -81.603832560950877 22.295999266973343 15.366672869904782 1 0 0 I I #
coedge $-1 $271 $271 $-1 $388 reversed $164 $-1 #
edge $-1 $389 0 $389 6.2831853071796004 $165 $390 forward 7 unknown #
vertex $-1 $168 $391 #
ellipse-curve $-1 -58.231284397096772 25.944223299791638 12.756702933371376 -0.86602541151947299 0 0.49999998660252726 0.49999998660252726 0 0.86602541151947299 1 I I #
coedge $-1 $275 $275 $-1 $392 reversed $171 $-1 #
edge $-1 $393 0 $393 6.2831853071796004 $172 $394 forward 7 unknown #
vertex $-1 $175 $395 #
ellipse-curve $-1 -58.231284397096772 31.416559349019067 12.756702933371376 -0.86602541151947299 0 0.49999998660252726 0.49999998660252726 0 0.86602541151947299 1 I I #
face $-1 $-1 $396 $38 $-1 $397 reversed single #
loop $-1 $-1 $182 $176 #
plane-surface $-1 0 0 15.366672869904781 0 0 1 1 0 0 forward_v I I I I #
coedge $-1 $398 $399 $400 $401 reversed $177 $-1 #
coedge $-1 $402 $179 $181 $289 forward $111 $-1 #
coedge $-1 $179 $402 $398 $403 forward $111 $-1 #
coedge $-1 $400 $182 $179 $286 forward $280 $-1 #
edge $-1 $292 -3.9124795007126032 $404 10.54689319285804 $285 $405 forward 7 unknown #
coedge $-1 $406 $407 $180 $288 forward $396 $-1 #
edge $-1 $408 -78.300328048686353 $291 -73.217766297652233 $287 $409 forward 7 unknown #
edge $-1 $292 113.19391061682413 $408 119.47630237739187 $181 $410 forward 7 unknown #
coedge $-1 $182 $400 $406 $411 forward $280 $-1 #
vertex $-1 $288 $412 #
vertex $-1 $183 $413 #
straight-curve $-1 43.085052012382874 0.59527265463988499 15.366672869904775 -1 0 0 I I #
coedge $-1 $294 $294 $-1 $414 reversed $186 $-1 #
edge $-1 $415 0 $415 6.2831853071796004 $187 $416 forward 7 unknown #
vertex $-1 $190 $417 #
ellipse-curve $-1 57.891802611085609 -9.7328506979105711 12.825391994387704 0.80901700255871778 0 0.5877852410284794 0.5877852410284794 0 -0.80901700255871778 1 I I #
coedge $-1 $298 $298 $-1 $418 reversed $193 $-1 #
edge $-1 $419 0 $419 6.2831853071796004 $194 $420 forward 7 unknown #
vertex $-1 $197 $421 #
ellipse-curve $-1 57.891802611085609 -3.5359766863802946 12.825391994387704 0.80901700255871778 0 0.5877852410284794 0.5877852410284794 0 -0.80901700255871778 1 I I #
face $-1 $-1 $314 $41 $-1 $422 forward single #
loop $-1 $-1 $423 $198 #
plane-surface $-1 59.738151188695944 0 0 -1 0 0 0 0 1 forward_v I I I I #
coedge $-1 $424 $425 $426 $427 reversed $199 $-1 #
coedge $-1 $428 $201 $203 $312 forward $125 $-1 #
coedge $-1 $201 $428 $424 $429 forward $125 $-1 #
coedge $-1 $426 $204 $201 $309 forward $314 $-1 #
edge $-1 $316 -18.638695935475059 $430 -4.1793232419044166 $308 $431 forward 7 unknown #
coedge $-1 $432 $433 $202 $311 forward $303 $-1 #
edge $-1 $434 -78.300328048686353 $315 -73.217766297652233 $310 $435 forward 7 unknown #
edge $-1 $316 113.19391061682413 $434 119.47630237739187 $203 $436 forward 7 unknown #
coedge $-1 $204 $426 $432 $437 forward $314 $-1 #
loop $-1 $-1 $426 $302 #
vertex $-1 $311 $438 #
vertex $-1 $205 $439 #
straight-curve $-1 43.085052012382874 30.047705524164797 15.366672869904775 -1 0 0 I I #
coedge $-1 $318 $318 $-1 $440 reversed $208 $-1 #
edge $-1 $441 0 $441 6.2831853071796004 $209 $442 forward 7 unknown #
vertex $-1 $212 $443 #
ellipse-curve $-1 57.891802611085609 19.719582171614341 12.825391994387704 0.80901700255871778 0 0.5877852410284794 0.5877852410284794 0 -0.80901700255871778 1 I I #
coedge $-1 $322 $322 $-1 $444 reversed $215 $-1 #
edge $-1 $445 0 $445 6.2831853071796004 $216 $446 forward 7 unknown #
vertex $-1 $219 $447 #
ellipse-curve $-1 57.891802611085609 25.916456183144618 12.825391994387704 0.80901700255871778 0 0.5877852410284794 0.5877852410284794 0 -0.80901700255871778 1 I I #
face $-1 $-1 $235 $33 $-1 $448 reversed single #
loop $-1 $-1 $341 $220 #
plane-surface $-1 0 35.064783381837358 0 0 -1 0 0 0 -1 forward_v I I I I #
coedge $-1 $449 $339 $342 $450 forward $221 $-1 #
coedge $-1 $223 $345 $224 $333 reversed $139 $-1 #
edge $-1 $236 -15.366672869904781 $337 15.366672869904781 $233 $451 forward 7 unknown #
coedge $-1 $225 $224 $449 $452 forward $89 $-1 #
edge $-1 $337 -59.738151188695944 $453 59.738151188695944 $330 $454 forward 7 unknown #
coedge $-1 $342 $341 $225 $335 reversed $327 $-1 #
edge $-1 $455 -59.738151188695944 $336 59.738151188695944 $334 $456 forward 7 unknown #
vertex $-1 $227 $457 #
vertex $-1 $331 $458 #
straight-curve $-1 59.738151188695944 0 -15.366672869904781 0 -1 0 I I #
coedge $-1 $329 $459 $228 $340 reversed $221 $-1 #
edge $-1 $343 -35.064783381837358 $346 35.064783381837358 $339 $460 forward 7 unknown #
coedge $-1 $334 $229 $234 $348 forward $327 $-1 #
coedge $-1 $229 $334 $329 $450 reversed $327 $-1 #
vertex $-1 $230 $461 #
straight-curve $-1 0 35.064783381837358 15.366672869904781 -1 0 0 I I #
coedge $-1 $330 $231 $459 $462 forward $139 $-1 #
vertex $-1 $340 $463 #
straight-curve $-1 0 -35.064783381837358 15.366672869904781 1 0 0 I I #
edge $-1 $237 -15.366672869904781 $336 15.366672869904781 $234 $464 forward 7 unknown #
point $-1 59.738151188695944 -35.064783381837358 15.366672869904781 #
point $-1 59.738151188695944 35.064783381837358 15.366672869904781 #
face $-1 $-1 $365 $34 $-1 $465 reversed single #
loop $-1 $-1 $466 $239 #
plane-surface $-1 0 -46.28948440646225 -13.756565201694567 0 1 0 0 0 1 forward_v I I I I #
coedge $-1 $467 $242 $251 $369 reversed $147 $-1 #
coedge $-1 $242 $467 $243 $357 reversed $147 $-1 #
coedge $-1 $244 $243 $468 $469 forward $93 $-1 #
edge $-1 $361 35.064783381837358 $470 46.28948440646225 $355 $471 forward 7 unknown #
coedge $-1 $472 $248 $244 $359 reversed $365 $-1 #
edge $-1 $473 -46.28948440646225 $360 -35.064783381837358 $358 $474 forward 7 unknown #
vertex $-1 $249 $475 #
vertex $-1 $357 $476 #
straight-curve $-1 0 -35.064783381837358 -15.366672869904781 1 0 0 I I #
straight-curve $-1 59.738151188695944 -35.064783381837358 0 0 0 1 I I #
coedge $-1 $248 $472 $250 $368 reversed $365 $-1 #
loop $-1 $-1 $248 $351 #
straight-curve $-1 -59.738151188695944 -35.064783381837358 0 0 0 -1 I I #
coedge $-1 $251 $250 $477 $478 forward $240 $-1 #
edge $-1 $252 -5.612350512312446 $479 5.612350512312446 $364 $480 forward 7 unknown #
edge $-1 $481 -5.612350512312446 $253 5.612350512312446 $354 $482 forward 7 unknown #
point $-1 -59.738151188695944 -35.064783381837358 -12.146457533484353 #
point $-1 59.738151188695944 -35.064783381837358 -12.146457533484353 #
plane-surface $-1 0 0 15.366672869904781 0 0 1 1 0 0 forward_v I I I I #
coedge $-1 $263 $483 $377 $484 forward $256 $-1 #
coedge $-1 $375 $258 $483 $485 reversed $155 $-1 #
coedge $-1 $258 $374 $378 $486 reversed $155 $-1 #
edge $-1 $379 4.5134057595191086 $487 10.540873087421458 $258 $488 forward 7 unknown #
coedge $-1 $260 $259 $373 $484 reversed $97 $-1 #
coedge $-1 $266 $261 $375 $486 forward $267 $-1 #
vertex $-1 $486 $489 #
straight-curve $-1 -56.724417605497607 14.340195662202674 15.366672869904779 0 1 0 I I #
coedge $-1 $483 $263 $266 $385 reversed $256 $-1 #
vertex $-1 $264 $490 #
straight-curve $-1 -59.738151188695944 22.295999266973343 34.942441292426714 0 0 1 I I #
straight-curve $-1 -59.738151188695937 22.295999266973343 10.146732996837983 -0.49999998660252726 0 -0.86602541151947299 I I #
edge $-1 $491 -35.064783381837358 $268 -22.295999266973343 $381 $492 forward 7 unknown #
point $-1 -59.738151188695944 22.295999266973343 15.366672869904781 #
point $-1 -56.724417605497599 22.295999266973343 15.366672869904781 #
edge $-1 $493 1 $493 0 $271 $-1 forward 7 unknown #
vertex $-1 $272 $494 #
ellipse-curve $-1 -55.97824926326124 25.944223299791638 11.45591253883056 -0.86602541151947299 0 0.49999998660252726 0.49999998660252726 0 0.86602541151947299 1 I I #
point $-1 -57.731284410494254 25.944223299791638 13.622728344890854 #
edge $-1 $495 1 $495 0 $275 $-1 forward 7 unknown #
vertex $-1 $276 $496 #
ellipse-curve $-1 -55.97824926326124 31.416559349019067 11.45591253883056 -0.86602541151947299 0 0.49999998660252726 0.49999998660252726 0 0.86602541151947299 1 I I #
point $-1 -57.731284410494254 31.416559349019067 13.622728344890854 #
loop $-1 $-1 $287 $279 #
plane-surface $-1 59.738151188695944 0 0 -1 0 0 0 0 1 forward_v I I I I #
coedge $-1 $399 $282 $284 $403 reversed $177 $-1 #
coedge $-1 $282 $398 $497 $498 reversed $177 $-1 #
coedge $-1 $290 $285 $282 $401 forward $280 $-1 #
edge $-1 $404 12.960402021092406 $499 16.65309917631307 $400 $500 forward 7 unknown #
coedge $-1 $284 $283 $407 $501 reversed $111 $-1 #
edge $-1 $502 -119.47630237739187 $404 -113.19391061682413 $398 $503 forward 7 unknown #
vertex $-1 $286 $504 #
straight-curve $-1 56.045454033475266 -3.3172068460727182 15.366672869904789 0 -1 0 I I #
coedge $-1 $497 $287 $290 $411 reversed $396 $-1 #
coedge $-1 $287 $497 $402 $501 forward $396 $-1 #
vertex $-1 $288 $505 #
straight-curve $-1 59.738151188695944 0.59527265463988499 88.584439167557008 0 0 1 I I #
straight-curve $-1 -10.488256001390837 0.59527265463988499 106.94247114502724 0.5877852410284794 0 -0.80901700255871778 I I #
edge $-1 $499 -13.864100038930758 $291 0.59527265463988499 $406 $506 forward 7 unknown #
point $-1 59.738151188695944 0.59527265463988499 15.366672869904781 #
point $-1 56.045454033475281 0.59527265463988499 15.366672869904775 #
edge $-1 $507 1 $507 0 $294 $-1 forward 7 unknown #
vertex $-1 $295 $508 #
ellipse-curve $-1 56.50955803968003 -9.7328506979105711 11.821132558560869 0.80901700255871778 0 0.5877852410284794 0.5877852410284794 0 -0.80901700255871778 1 I I #
point $-1 58.479587852114108 -9.7328506979105711 12.016374991829 #
edge $-1 $509 1 $509 0 $298 $-1 forward 7 unknown #
vertex $-1 $299 $510 #
ellipse-curve $-1 56.50955803968003 -3.5359766863802946 11.821132558560869 0.80901700255871778 0 0.5877852410284794 0.5877852410284794 0 -0.80901700255871778 1 I I #
point $-1 58.479587852114108 -3.5359766863802946 12.016374991829 #
plane-surface $-1 0 0 15.366672869904781 0 0 1 1 0 0 forward_v I I I I #
coedge $-1 $433 $432 $425 $511 forward $303 $-1 #
coedge $-1 $425 $305 $307 $429 reversed $199 $-1 #
coedge $-1 $305 $424 $423 $511 reversed $199 $-1 #
coedge $-1 $313 $308 $305 $427 forward $314 $-1 #
edge $-1 $430 12.960402021092406 $512 16.65309917631307 $426 $513 forward 7 unknown #
coedge $-1 $307 $306 $433 $514 reversed $125 $-1 #
edge $-1 $515 -119.47630237739187 $430 -113.19391061682413 $424 $516 forward 7 unknown #
vertex $-1 $309 $517 #
straight-curve $-1 56.045454033475266 11.409009588689738 15.366672869904789 0 -1 0 I I #
coedge $-1 $423 $310 $313 $437 reversed $303 $-1 #
coedge $-1 $310 $423 $428 $514 forward $303 $-1 #
vertex $-1 $311 $518 #
straight-curve $-1 59.738151188695944 30.047705524164797 88.584439167557008 0 0 1 I I #
straight-curve $-1 -10.488256001390837 30.047705524164797 106.94247114502724 0.5877852410284794 0 -0.80901700255871778 I I #
edge $-1 $512 15.588332830594155 $315 30.047705524164797 $432 $519 forward 7 unknown #
point $-1 59.738151188695944 30.047705524164797 15.366672869904781 #
point $-1 56.045454033475281 30.047705524164797 15.366672869904775 #
edge $-1 $520 1 $520 0 $318 $-1 forward 7 unknown #
vertex $-1 $319 $521 #
ellipse-curve $-1 56.50955803968003 19.719582171614341 11.821132558560869 0.80901700255871778 0 0.5877852410284794 0.5877852410284794 0 -0.80901700255871778 1 I I #
point $-1 58.479587852114108 19.719582171614341 12.016374991829 #
edge $-1 $522 1 $522 0 $322 $-1 forward 7 unknown #
vertex $-1 $323 $523 #
ellipse-curve $-1 56.50955803968003 25.916456183144618 11.821132558560869 0.80901700255871778 0 0.5877852410284794 0.5877852410284794 0 -0.80901700255871778 1 I I #
point $-1 58.479587852114108 25.916456183144618 12.016374991829 #
plane-surface $-1 59.738151188695944 0 0 -1 0 0 0 0 1 forward_v I I I I #
coedge $-1 $459 $329 $332 $452 reversed $221 $-1 #
edge $-1 $343 -15.366672869904781 $455 15.366672869904781 $342 $524 forward 7 unknown #
straight-curve $-1 59.738151188695944 -35.064783381837358 0 0 0 -1 I I #
edge $-1 $453 -35.064783381837358 $455 35.064783381837358 $449 $525 forward 7 unknown #
vertex $-1 $452 $526 #
straight-curve $-1 0 -35.064783381837358 -15.366672869904781 -1 0 0 I I #
vertex $-1 $335 $527 #
straight-curve $-1 0 35.064783381837358 -15.366672869904781 1 0 0 I I #
point $-1 59.738151188695944 35.064783381837358 -15.366672869904781 #
point $-1 59.738151188695944 -35.064783381837358 -15.366672869904781 #
coedge $-1 $339 $449 $345 $462 reversed $221 $-1 #
straight-curve $-1 -59.738151188695944 0 15.366672869904781 0 -1 0 I I #
point $-1 -59.738151188695944 35.064783381837358 15.366672869904781 #
edge $-1 $346 -15.366672869904781 $453 15.366672869904781 $459 $528 forward 7 unknown #
point $-1 -59.738151188695944 -35.064783381837358 15.366672869904781 #
straight-curve $-1 59.738151188695944 35.064783381837358 0 0 0 -1 I I #
plane-surface $-1 -59.738151188695944 0 0 1 0 0 0 0 -1 forward_v I I I I #
coedge $-1 $468 $477 $472 $529 forward $352 $-1 #
coedge $-1 $355 $354 $530 $531 forward $147 $-1 #
coedge $-1 $530 $466 $356 $469 reversed $352 $-1 #
edge $-1 $470 -59.738151188695944 $473 59.738151188695944 $468 $532 forward 7 unknown #
vertex $-1 $531 $533 #
straight-curve $-1 59.738151188695944 0 -15.366672869904781 0 -1 0 I I #
coedge $-1 $364 $358 $466 $529 reversed $365 $-1 #
vertex $-1 $359 $534 #
straight-curve $-1 -59.738151188695944 0 -15.366672869904781 0 1 0 I I #
point $-1 -59.738151188695944 -35.064783381837358 -15.366672869904781 #
point $-1 59.738151188695944 -35.064783381837358 -15.366672869904781 #
coedge $-1 $466 $530 $367 $478 reversed $352 $-1 #
edge $-1 $479 -59.738151188695944 $481 59.738151188695944 $477 $535 forward 7 unknown #
vertex $-1 $368 $536 #
straight-curve $-1 -59.738151188695944 -40.677133894149804 -12.146457533484353 0 -1 0 I I #
vertex $-1 $369 $537 #
straight-curve $-1 59.738151188695944 -40.677133894149804 -12.146457533484353 0 1 0 I I #
coedge $-1 $373 $381 $374 $485 forward $256 $-1 #
edge $-1 $487 -20.724587719634684 $382 -7.9558036047706686 $373 $538 forward 7 unknown #
edge $-1 $491 -15.366672869904781 $487 -10.14673299683797 $374 $539 forward 7 unknown #
edge $-1 $379 56.724417605497599 $491 59.738151188695944 $375 $540 forward 7 unknown #
vertex $-1 $376 $541 #
straight-curve $-1 -54.467714786206272 35.064783381837358 19.275396950146675 -0.49999998660252726 0 -0.86602541151947299 I I #
point $-1 -56.724417605497599 35.064783381837358 15.366672869904781 #
point $-1 -59.738151188695944 22.295999266973343 10.14673299683797 #
vertex $-1 $486 $542 #
straight-curve $-1 -59.738151188695944 0 15.366672869904781 0 -1 0 I I #
vertex $-1 $388 $543 #
point $-1 -55.478249276658715 25.944223299791638 12.321937950350033 #
vertex $-1 $392 $544 #
point $-1 -55.478249276658715 31.416559349019067 12.321937950350033 #
coedge $-1 $407 $406 $399 $498 forward $396 $-1 #
edge $-1 $499 73.217766297652233 $502 78.300328048686353 $497 $545 forward 7 unknown #
vertex $-1 $411 $546 #
straight-curve $-1 43.085052012382874 -13.864100038930758 15.366672869904775 1 0 0 I I #
edge $-1 $502 -10.54689319285804 $408 3.9124795007126032 $407 $547 forward 7 unknown #
vertex $-1 $501 $548 #
straight-curve $-1 -10.488256001390837 -13.864100038930758 106.94247114502724 -0.5877852410284794 0 0.80901700255871778 I I #
point $-1 56.045454033475281 -13.864100038930758 15.366672869904775 #
point $-1 59.738151188695937 0.59527265463988499 10.284111118870655 #
straight-curve $-1 59.738151188695944 0 15.366672869904781 0 1 0 I I #
vertex $-1 $414 $549 #
point $-1 57.097343280708508 -9.7328506979105711 11.012115556002151 #
vertex $-1 $418 $550 #
point $-1 57.097343280708508 -3.5359766863802946 11.012115556002151 #
edge $-1 $512 73.217766297652233 $515 78.300328048686353 $423 $551 forward 7 unknown #
vertex $-1 $437 $552 #
straight-curve $-1 43.085052012382874 15.588332830594155 15.366672869904775 1 0 0 I I #
edge $-1 $515 4.1793232419044166 $434 18.638695935475059 $433 $553 forward 7 unknown #
vertex $-1 $514 $554 #
straight-curve $-1 -10.488256001390837 15.588332830594155 106.94247114502724 -0.5877852410284794 0 0.80901700255871778 I I #
point $-1 56.045454033475281 15.588332830594155 15.366672869904775 #
point $-1 59.738151188695937 30.047705524164797 10.284111118870655 #
straight-curve $-1 59.738151188695944 0 15.366672869904781 0 1 0 I I #
vertex $-1 $440 $555 #
point $-1 57.097343280708508 19.719582171614341 11.012115556002151 #
vertex $-1 $444 $556 #
point $-1 57.097343280708508 25.916456183144618 11.012115556002151 #
straight-curve $-1 -59.738151188695944 35.064783381837358 0 0 0 -1 I I #
straight-curve $-1 -59.738151188695944 0 -15.366672869904781 0 1 0 I I #
point $-1 -59.738151188695944 -35.064783381837358 -15.366672869904781 #
point $-1 -59.738151188695944 35.064783381837358 -15.366672869904781 #
straight-curve $-1 -59.738151188695944 -35.064783381837358 0 0 0 -1 I I #
edge $-1 $479 -1.6101076682102136 $473 1.6101076682102136 $472 $557 forward 7 unknown #
coedge $-1 $477 $468 $467 $531 reversed $352 $-1 #
edge $-1 $481 -1.6101076682102136 $470 1.6101076682102136 $467 $558 forward 7 unknown #
straight-curve $-1 0 -46.28948440646225 -15.366672869904781 -1 0 0 I I #
point $-1 59.738151188695944 -46.28948440646225 -15.366672869904781 #
point $-1 -59.738151188695944 -46.28948440646225 -15.366672869904781 #
straight-curve $-1 0 -46.28948440646225 -12.146457533484353 1 0 0 I I #
point $-1 -59.738151188695944 -46.28948440646225 -12.146457533484353 #
point $-1 59.738151188695944 -46.28948440646225 -12.146457533484353 #
straight-curve $-1 -59.738151188695944 14.340195662202674 10.146732996837963 0 -1 0 I I #
straight-curve $-1 -59.738151188695944 35.064783381837358 0 0 0 -1 I I #
straight-curve $-1 0 35.064783381837358 15.366672869904781 -1 0 0 I I #
point $-1 -59.738151188695944 35.064783381837358 10.14673299683797 #
point $-1 -59.738151188695944 35.064783381837358 15.366672869904781 #
point $-1 -55.112223851741767 25.944223299791638 10.955912552228032 #
point $-1 -55.112223851741767 31.416559349019067 10.955912552228032 #
straight-curve $-1 59.738151188695944 -13.864100038930758 88.584439167557008 0 0 -1 I I #
point $-1 59.738151188695944 -13.864100038930758 15.366672869904781 #
straight-curve $-1 59.738151188695952 -3.3172068460727182 10.284111118870641 0 1 0 I I #
point $-1 59.738151188695937 -13.864100038930758 10.284111118870655 #
point $-1 55.700541037121312 -9.7328506979105711 11.233347317532388 #
point $-1 55.700541037121312 -3.5359766863802946 11.233347317532388 #
straight-curve $-1 59.738151188695944 15.588332830594155 88.584439167557008 0 0 -1 I I #
point $-1 59.738151188695944 15.588332830594155 15.366672869904781 #
straight-curve $-1 59.738151188695952 11.409009588689738 10.284111118870641 0 1 0 I I #
point $-1 59.738151188695937 15.588332830594155 10.284111118870655 #
point $-1 55.700541037121312 19.719582171614341 11.233347317532388 #
point $-1 55.700541037121312 25.916456183144618 11.233347317532388 #
straight-curve $-1 -59.738151188695944 -46.28948440646225 -13.756565201694567 0 0 -1 I I #
straight-curve $-1 59.738151188695944 -46.28948440646225 -13.756565201694567 0 0 -1 I I #
End-of-ACIS-data 