500 0 8 0           
7 Unknown 11 ACIS 5.0 NT 24 Thu Mar 25 15:50:52 1999 
-1 9.9999999999999995e-007 1e-010 
body $-1 $8 $-1 $9 #
body $-1 $10 $-1 $11 #
body $-1 $12 $-1 $13 #
body $-1 $14 $-1 $15 #
body $-1 $16 $-1 $17 #
body $-1 $18 $-1 $19 #
body $-1 $20 $-1 $21 #
body $-1 $22 $-1 $23 #
lump $-1 $-1 $24 $0 #
transform $-1 1 0 0 0 1 0 0 0 1 47.27195043794061 30.875290606329109 7.1211892683899114 1 rotate no_reflect no_shear #
lump $-1 $-1 $25 $1 #
transform $-1 1 0 0 0 1 0 0 0 1 47.27195043794061 30.875290606329109 7.1211892683899114 1 rotate no_reflect no_shear #
lump $-1 $-1 $26 $2 #
transform $-1 1 0 0 0 1 0 0 0 1 47.27195043794061 30.875290606329109 7.1211892683899114 1 rotate no_reflect no_shear #
lump $-1 $-1 $27 $3 #
transform $-1 1 0 0 0 1 0 0 0 1 47.27195043794061 30.875290606329109 7.1211892683899114 1 rotate no_reflect no_shear #
lump $-1 $-1 $28 $4 #
transform $-1 1 0 0 0 1 0 0 0 1 47.27195043794061 30.875290606329109 7.1211892683899114 1 rotate no_reflect no_shear #
lump $-1 $-1 $29 $5 #
transform $-1 1 0 0 0 1 0 0 0 1 47.27195043794061 30.875290606329109 7.1211892683899114 1 rotate no_reflect no_shear #
lump $-1 $-1 $30 $6 #
transform $-1 1 0 0 0 1 0 0 0 1 47.27195043794061 30.875290606329109 7.1211892683899114 1 rotate no_reflect no_shear #
lump $-1 $-1 $31 $7 #
transform $-1 1 0 0 0 1 0 0 0 1 47.27195043794061 30.875290606329109 7.1211892683899114 1 rotate no_reflect no_shear #
shell $-1 $-1 $-1 $32 $-1 $8 #
shell $-1 $-1 $-1 $33 $-1 $10 #
shell $-1 $-1 $-1 $34 $-1 $12 #
shell $-1 $-1 $-1 $35 $-1 $14 #
shell $-1 $-1 $-1 $36 $-1 $16 #
shell $-1 $-1 $-1 $37 $-1 $18 #
shell $-1 $-1 $-1 $38 $-1 $20 #
shell $-1 $-1 $-1 $39 $-1 $22 #
face $-1 $40 $41 $24 $-1 $42 forward single #
face $-1 $43 $44 $25 $-1 $45 reversed single #
face $-1 $46 $47 $26 $-1 $48 reversed single #
face $-1 $49 $50 $27 $-1 $51 forward single #
face $-1 $52 $53 $28 $-1 $54 forward single #
face $-1 $55 $56 $29 $-1 $57 reversed single #
face $-1 $58 $59 $30 $-1 $60 forward single #
face $-1 $61 $62 $31 $-1 $63 forward single #
face $-1 $64 $65 $24 $-1 $66 reversed single #
loop $-1 $-1 $67 $32 #
plane-surface $-1 0 0 7.1211892683899114 0 0 1 1 0 0 forward_v I I I I #
face $-1 $68 $69 $25 $-1 $70 reversed single #
loop $-1 $-1 $71 $33 #
plane-surface $-1 -40.97502446713095 -27.632836031777025 0 1 0 0 0 0 -1 forward_v I I I I #
face $-1 $72 $73 $26 $-1 $74 reversed single #
loop $-1 $-1 $75 $34 #
plane-surface $-1 81.877421929340642 15.614217528547307 130.40470569285887 0 1 0 0.86602541151947299 0 0.49999998660252726 forward_v I I I I #
face $-1 $76 $77 $27 $-1 $78 forward single #
loop $-1 $79 $80 $35 #
cone-surface $-1 43.686897987629976 19.974524122199249 3.0960738053986203 -0.86602541151947299 0 -0.49999998660252726 0.74999997990379086 0 -1.2990381172792094 1 I I 0 1 1.5 forward I I I I #
face $-1 $81 $82 $28 $-1 $83 forward single #
loop $-1 $84 $85 $36 #
cone-surface $-1 43.686897987629976 26.514984012677161 3.0960738053986203 -0.86602541151947299 0 -0.49999998660252726 0.74999997990379086 0 -1.2990381172792094 1 I I 0 1 1.5 forward I I I I #
face $-1 $86 $87 $29 $-1 $88 reversed single #
loop $-1 $-1 $89 $37 #
plane-surface $-1 -95.965659787283073 -10.596563346895332 82.835217354505716 0 1 0 -0.51503808176128008 0 0.85716729658548041 forward_v I I I I #
face $-1 $90 $91 $30 $-1 $92 forward single #
loop $-1 $93 $94 $38 #
cone-surface $-1 -42.58252858031107 -8.397224542496744 4.0296497019427076 0.51503808176128008 0 -0.85716729658548041 0.2142918241463701 0 0.12875952044032002 1 I I 0 1 0.25 forward I I I I #
face $-1 $95 $96 $31 $-1 $97 forward single #
loop $-1 $98 $99 $39 #
cone-surface $-1 -42.58252858031107 -5.0982163358988579 4.0296497019427076 0.51503808176128008 0 -0.85716729658548041 0.2142918241463701 0 0.12875952044032002 1 I I 0 1 0.25 forward I I I I #
face $-1 $100 $101 $24 $-1 $102 reversed single #
loop $-1 $-1 $103 $40 #
plane-surface $-1 0 0 -7.1211892683899114 0 0 1 1 0 0 forward_v I I I I #
coedge $-1 $104 $105 $106 $107 forward $41 $-1 #
face $-1 $108 $109 $25 $-1 $110 reversed single #
loop $-1 $-1 $111 $43 #
plane-surface $-1 -39.47502446713095 -24.39038145722494 0 0 -1 0 0 0 -1 forward_v I I I I #
coedge $-1 $112 $113 $114 $115 forward $44 $-1 #
face $-1 $116 $117 $26 $-1 $118 reversed single #
loop $-1 $-1 $119 $46 #
plane-surface $-1 1.2666493489632558e-006 23.244754067438208 83.132756521567586 0.86602541151947299 0 0.49999998660252726 0.49999998660252726 0 -0.86602541151947299 forward_v I I I I #
coedge $-1 $120 $121 $122 $123 reversed $47 $-1 #
face $-1 $-1 $124 $27 $-1 $125 forward single #
loop $-1 $126 $127 $49 #
cone-surface $-1 41.145652440687748 19.974524122199249 1.6288850572122451 -0.86602541151947299 0 -0.49999998660252726 0.37499998995189543 0 -0.64951905863960469 1 I I -0.70710678118654757 0.70710678118654757 0.75 forward I I I I #
loop $-1 $-1 $128 $35 #
coedge $-1 $80 $80 $129 $130 reversed $50 $-1 #
face $-1 $-1 $131 $28 $-1 $132 forward single #
loop $-1 $133 $134 $52 #
cone-surface $-1 41.145652440687748 26.514984012677161 1.6288850572122451 -0.86602541151947299 0 -0.49999998660252726 0.37499998995189543 0 -0.64951905863960469 1 I I -0.70710678118654757 0.70710678118654757 0.75 forward I I I I #
loop $-1 $-1 $135 $36 #
coedge $-1 $85 $85 $136 $137 reversed $53 $-1 #
face $-1 $138 $139 $29 $-1 $140 reversed single #
loop $-1 $-1 $141 $55 #
plane-surface $-1 -47.271950437940603 -6.7477204391977992 1.7952774320809795 -0.51503808176128008 0 0.85716729658548041 0.85716729658548041 0 0.51503808176128008 forward_v I I I I #
coedge $-1 $142 $143 $144 $145 reversed $56 $-1 #
face $-1 $-1 $146 $30 $-1 $147 forward single #
loop $-1 $148 $149 $58 #
cone-surface $-1 -42.260629779210269 -8.397224542496744 3.4939201415767824 0.51503808176128008 0 -0.85716729658548041 0.10714591207318505 0 0.064379760220160009 1 I I -0.70710678118654746 0.70710678118654746 0.125 forward I I I I #
loop $-1 $-1 $150 $38 #
coedge $-1 $94 $94 $151 $152 reversed $59 $-1 #
face $-1 $-1 $153 $31 $-1 $154 forward single #
loop $-1 $155 $156 $61 #
cone-surface $-1 -42.260629779210269 -5.0982163358988579 3.4939201415767824 0.51503808176128008 0 -0.85716729658548041 0.10714591207318505 0 0.064379760220160009 1 I I -0.70710678118654746 0.70710678118654746 0.125 forward I I I I #
loop $-1 $-1 $157 $39 #
coedge $-1 $99 $99 $158 $159 reversed $62 $-1 #
face $-1 $160 $161 $24 $-1 $162 reversed single #
loop $-1 $-1 $163 $64 #
plane-surface $-1 0 -30.875290606329109 0 0 1 0 0 0 1 forward_v I I I I #
coedge $-1 $164 $165 $166 $167 forward $65 $-1 #
coedge $-1 $168 $67 $169 $170 forward $41 $-1 #
coedge $-1 $67 $168 $171 $172 forward $41 $-1 #
coedge $-1 $173 $174 $67 $107 reversed $175 $-1 #
edge $-1 $176 -30.875290606329109 $177 30.875290606329109 $106 $178 forward 7 unknown #
face $-1 $179 $180 $25 $-1 $181 forward single #
loop $-1 $-1 $182 $68 #
plane-surface $-1 -37.97502446713095 -27.632836031777025 0 -1 0 0 0 0 1 forward_v I I I I #
coedge $-1 $183 $184 $185 $186 forward $69 $-1 #
coedge $-1 $187 $71 $188 $189 reversed $44 $-1 #
coedge $-1 $71 $187 $190 $191 reversed $44 $-1 #
coedge $-1 $184 $183 $71 $115 reversed $69 $-1 #
edge $-1 $192 -7.1211892683899114 $193 7.1211892683899114 $114 $194 forward 7 unknown #
face $-1 $195 $196 $26 $-1 $197 reversed single #
loop $-1 $-1 $122 $72 #
plane-surface $-1 47.27195043794061 0 0 -1 0 0 0 0 1 forward_v I I I I #
coedge $-1 $198 $199 $200 $201 reversed $73 $-1 #
coedge $-1 $121 $75 $202 $203 reversed $47 $-1 #
coedge $-1 $75 $120 $198 $204 reversed $47 $-1 #
coedge $-1 $200 $205 $75 $123 forward $117 $-1 #
edge $-1 $206 58.081163578039522 $207 63.947016987553127 $122 $208 forward 7 unknown #
loop $-1 $-1 $129 $76 #
plane-surface $-1 1.2666493489632558e-006 23.244754067438208 83.132756521567586 0.86602541151947299 0 0.49999998660252726 0.49999998660252726 0 -0.86602541151947299 forward_v I I I I #
loop $-1 $-1 $209 $49 #
coedge $-1 $127 $127 $128 $210 reversed $77 $-1 #
coedge $-1 $128 $128 $127 $210 forward $79 $-1 #
coedge $-1 $129 $129 $80 $130 forward $124 $-1 #
edge $-1 $211 0 $211 6.2831853071796004 $129 $212 forward 7 unknown #
loop $-1 $-1 $136 $81 #
plane-surface $-1 1.2666493489632558e-006 23.244754067438208 83.132756521567586 0.86602541151947299 0 0.49999998660252726 0.49999998660252726 0 -0.86602541151947299 forward_v I I I I #
loop $-1 $-1 $213 $52 #
coedge $-1 $134 $134 $135 $214 reversed $82 $-1 #
coedge $-1 $135 $135 $134 $214 forward $84 $-1 #
coedge $-1 $136 $136 $85 $137 forward $131 $-1 #
edge $-1 $215 0 $215 6.2831853071796004 $136 $216 forward 7 unknown #
face $-1 $217 $218 $29 $-1 $219 reversed single #
loop $-1 $-1 $220 $86 #
plane-surface $-1 -95.965659787283073 -2.8988775315002666 82.835217354505716 0 -1 0 0.51503808176128008 0 -0.85716729658548041 forward_v I I I I #
coedge $-1 $221 $222 $223 $224 reversed $87 $-1 #
coedge $-1 $143 $89 $225 $226 reversed $56 $-1 #
coedge $-1 $89 $142 $221 $227 reversed $56 $-1 #
coedge $-1 $223 $228 $89 $145 forward $229 $-1 #
edge $-1 $230 0.71087945570092614 $231 9.5746850891987378 $144 $232 forward 7 unknown #
loop $-1 $-1 $151 $90 #
plane-surface $-1 -47.271950437940603 -6.7477204391977992 1.7952774320809795 -0.51503808176128008 0 0.85716729658548041 0.85716729658548041 0 0.51503808176128008 forward_v I I I I #
loop $-1 $-1 $233 $58 #
coedge $-1 $149 $149 $150 $234 reversed $91 $-1 #
coedge $-1 $150 $150 $149 $234 forward $93 $-1 #
coedge $-1 $151 $151 $94 $152 forward $146 $-1 #
edge $-1 $235 0 $235 6.2831853071796004 $151 $236 forward 7 unknown #
loop $-1 $-1 $158 $95 #
plane-surface $-1 -47.271950437940603 -6.7477204391977992 1.7952774320809795 -0.51503808176128008 0 0.85716729658548041 0.85716729658548041 0 0.51503808176128008 forward_v I I I I #
loop $-1 $-1 $237 $61 #
coedge $-1 $156 $156 $157 $238 reversed $96 $-1 #
coedge $-1 $157 $157 $156 $238 forward $98 $-1 #
coedge $-1 $158 $158 $99 $159 forward $153 $-1 #
edge $-1 $239 0 $239 6.2831853071796004 $158 $240 forward 7 unknown #
face $-1 $241 $242 $24 $-1 $243 reversed single #
loop $-1 $-1 $244 $100 #
plane-surface $-1 -47.27195043794061 0 0 1 0 0 0 0 -1 forward_v I I I I #
coedge $-1 $245 $171 $246 $247 forward $101 $-1 #
coedge $-1 $248 $103 $245 $249 forward $65 $-1 #
coedge $-1 $103 $248 $250 $251 forward $65 $-1 #
coedge $-1 $174 $173 $103 $167 reversed $175 $-1 #
edge $-1 $252 -30.875290606329109 $253 30.875290606329109 $166 $254 forward 7 unknown #
coedge $-1 $105 $104 $255 $256 forward $41 $-1 #
coedge $-1 $257 $258 $104 $170 reversed $242 $-1 #
edge $-1 $177 -47.27195043794061 $259 47.27195043794061 $169 $260 forward 7 unknown #
coedge $-1 $163 $261 $105 $172 reversed $101 $-1 #
edge $-1 $262 -47.27195043794061 $176 47.27195043794061 $171 $263 forward 7 unknown #
coedge $-1 $166 $106 $261 $264 forward $175 $-1 #
coedge $-1 $106 $166 $257 $265 reversed $175 $-1 #
loop $-1 $-1 $173 $241 #
vertex $-1 $107 $266 #
vertex $-1 $107 $267 #
straight-curve $-1 47.27195043794061 0 7.1211892683899114 0 1 0 I I #
face $-1 $268 $269 $25 $-1 $270 reversed single #
loop $-1 $-1 $271 $108 #
plane-surface $-1 0 0 7.1211892683899114 0 0 1 1 0 0 forward_v I I I I #
coedge $-1 $272 $273 $274 $275 reversed $109 $-1 #
coedge $-1 $114 $111 $276 $277 reversed $69 $-1 #
coedge $-1 $111 $114 $278 $279 reversed $69 $-1 #
coedge $-1 $273 $272 $111 $186 reversed $109 $-1 #
edge $-1 $280 -7.1211892683899114 $281 7.1211892683899114 $185 $282 forward 7 unknown #
coedge $-1 $113 $112 $283 $284 reversed $44 $-1 #
coedge $-1 $276 $285 $112 $189 forward $269 $-1 #
edge $-1 $286 -17.058872590440597 $193 -10.573963441336428 $188 $287 forward 7 unknown #
coedge $-1 $288 $278 $113 $191 forward $180 $-1 #
edge $-1 $192 10.573963441336428 $289 17.058872590440597 $190 $290 forward 7 unknown #
vertex $-1 $191 $291 #
vertex $-1 $189 $292 #
straight-curve $-1 -40.97502446713095 -24.39038145722494 0 0 0 -1 I I #
face $-1 $-1 $293 $26 $-1 $294 forward single #
loop $-1 $-1 $295 $116 #
plane-surface $-1 0 30.875290606329109 0 0 -1 0 0 0 -1 forward_v I I I I #
coedge $-1 $296 $119 $121 $204 forward $73 $-1 #
coedge $-1 $119 $296 $295 $297 reversed $73 $-1 #
coedge $-1 $298 $122 $119 $201 forward $117 $-1 #
edge $-1 $207 3.9918404948282031 $299 19.252913572610005 $200 $300 forward 7 unknown #
coedge $-1 $301 $302 $120 $203 forward $293 $-1 #
edge $-1 $303 2.9465875492542679 $206 6.3332394732702895 $202 $304 forward 7 unknown #
edge $-1 $207 -94.543900875881192 $303 -87.770596846358842 $121 $305 forward 7 unknown #
coedge $-1 $122 $298 $301 $306 reversed $117 $-1 #
vertex $-1 $306 $307 #
vertex $-1 $123 $308 #
straight-curve $-1 47.27195043794061 15.614217528547307 65.202352846429434 0 0 -1 I I #
coedge $-1 $209 $209 $-1 $309 reversed $126 $-1 #
edge $-1 $310 0 $310 6.2831853071796004 $127 $311 forward 7 unknown #
vertex $-1 $130 $312 #
ellipse-curve $-1 45.578624475932607 19.974524122199249 4.1882625636331046 0.86602541151947299 0 0.49999998660252726 0.74999997990379086 0 -1.2990381172792094 1 I I #
coedge $-1 $213 $213 $-1 $313 reversed $133 $-1 #
edge $-1 $314 0 $314 6.2831853071796004 $134 $315 forward 7 unknown #
vertex $-1 $137 $316 #
ellipse-curve $-1 45.578624475932607 26.514984012677161 4.1882625636331046 0.86602541151947299 0 0.49999998660252726 0.74999997990379086 0 -1.2990381172792094 1 I I #
face $-1 $-1 $229 $29 $-1 $317 forward single #
loop $-1 $-1 $318 $138 #
plane-surface $-1 -47.27195043794061 0 0 1 0 0 0 0 -1 forward_v I I I I #
coedge $-1 $319 $320 $321 $322 reversed $139 $-1 #
coedge $-1 $323 $141 $143 $227 forward $87 $-1 #
coedge $-1 $141 $323 $319 $324 forward $87 $-1 #
coedge $-1 $321 $144 $141 $224 forward $229 $-1 #
edge $-1 $231 -7.2227031272964322 $325 0.47498268809863298 $223 $326 forward 7 unknown #
coedge $-1 $327 $328 $142 $226 forward $218 $-1 #
edge $-1 $329 -39.622331245171885 $230 -34.296419408862945 $225 $330 forward 7 unknown #
edge $-1 $231 -10.340811728126713 $329 8.2634070795339233e-015 $143 $331 forward 7 unknown #
coedge $-1 $144 $321 $327 $332 forward $229 $-1 #
loop $-1 $-1 $321 $217 #
vertex $-1 $226 $333 #
vertex $-1 $145 $334 #
straight-curve $-1 -47.982829893641537 -10.596563346895332 7.1211892683899123 1 0 0 I I #
coedge $-1 $233 $233 $-1 $335 reversed $148 $-1 #
edge $-1 $336 0 $336 6.2831853071796004 $149 $337 forward 7 unknown #
vertex $-1 $152 $338 #
ellipse-curve $-1 -42.840047621191708 -8.397224542496744 4.4582333502354414 -0.51503808176128008 0 0.85716729658548041 0.2142918241463701 0 0.12875952044032002 1 I I #
coedge $-1 $237 $237 $-1 $339 reversed $155 $-1 #
edge $-1 $340 0 $340 6.2831853071796004 $156 $341 forward 7 unknown #
vertex $-1 $159 $342 #
ellipse-curve $-1 -42.840047621191708 -5.0982163358988579 4.4582333502354414 -0.51503808176128008 0 0.85716729658548041 0.2142918241463701 0 0.12875952044032002 1 I I #
face $-1 $-1 $175 $24 $-1 $343 reversed single #
loop $-1 $-1 $257 $160 #
plane-surface $-1 0 30.875290606329109 0 0 -1 0 0 0 -1 forward_v I I I I #
coedge $-1 $344 $255 $258 $345 forward $161 $-1 #
coedge $-1 $261 $163 $164 $249 reversed $101 $-1 #
coedge $-1 $255 $344 $163 $247 reversed $161 $-1 #
edge $-1 $262 -7.1211892683899114 $346 7.1211892683899114 $246 $347 forward 7 unknown #
coedge $-1 $165 $164 $344 $348 forward $65 $-1 #
edge $-1 $253 -47.27195043794061 $346 47.27195043794061 $245 $349 forward 7 unknown #
coedge $-1 $258 $257 $165 $251 reversed $242 $-1 #
edge $-1 $350 -47.27195043794061 $252 47.27195043794061 $250 $351 forward 7 unknown #
vertex $-1 $167 $352 #
vertex $-1 $264 $353 #
straight-curve $-1 47.27195043794061 0 -7.1211892683899114 0 -1 0 I I #
coedge $-1 $244 $246 $168 $256 reversed $161 $-1 #
edge $-1 $259 -30.875290606329109 $262 30.875290606329109 $255 $354 forward 7 unknown #
coedge $-1 $250 $169 $174 $265 forward $242 $-1 #
coedge $-1 $169 $250 $244 $345 reversed $242 $-1 #
vertex $-1 $170 $355 #
straight-curve $-1 0 30.875290606329109 7.1211892683899114 -1 0 0 I I #
coedge $-1 $171 $245 $173 $264 reversed $101 $-1 #
vertex $-1 $256 $356 #
straight-curve $-1 0 -30.875290606329109 7.1211892683899114 1 0 0 I I #
edge $-1 $176 -7.1211892683899114 $253 7.1211892683899114 $173 $357 forward 7 unknown #
edge $-1 $177 -7.1211892683899114 $252 7.1211892683899114 $174 $358 forward 7 unknown #
point $-1 47.27195043794061 -30.875290606329109 7.1211892683899114 #
point $-1 47.27195043794061 30.875290606329109 7.1211892683899114 #
face $-1 $-1 $359 $25 $-1 $360 reversed single #
loop $-1 $-1 $361 $179 #
plane-surface $-1 0 0 -7.1211892683899114 0 0 1 1 0 0 forward_v I I I I #
coedge $-1 $278 $288 $273 $362 forward $180 $-1 #
coedge $-1 $185 $182 $361 $363 reversed $109 $-1 #
coedge $-1 $182 $185 $271 $362 reversed $109 $-1 #
coedge $-1 $364 $365 $182 $275 forward $359 $-1 #
edge $-1 $366 -7.1211892683899114 $367 7.1211892683899114 $274 $368 forward 7 unknown #
coedge $-1 $361 $188 $183 $277 forward $269 $-1 #
edge $-1 $193 -21.237512233565475 $281 -18.237512233565475 $276 $369 forward 7 unknown #
coedge $-1 $190 $271 $184 $279 forward $180 $-1 #
edge $-1 $280 18.237512233565475 $192 21.237512233565475 $278 $370 forward 7 unknown #
vertex $-1 $279 $371 #
vertex $-1 $277 $372 #
straight-curve $-1 -37.97502446713095 -24.39038145722494 0 0 0 -1 I I #
coedge $-1 $365 $364 $187 $284 forward $359 $-1 #
edge $-1 $289 -7.1211892683899114 $286 7.1211892683899114 $283 $373 forward 7 unknown #
coedge $-1 $188 $361 $365 $374 forward $269 $-1 #
vertex $-1 $189 $375 #
straight-curve $-1 -40.97502446713095 -13.816418015888512 -7.1211892683899114 0 1 0 I I #
coedge $-1 $271 $190 $364 $376 forward $180 $-1 #
vertex $-1 $376 $377 #
straight-curve $-1 -40.97502446713095 -13.816418015888512 7.1211892683899114 0 -1 0 I I #
point $-1 -40.97502446713095 -24.39038145722494 7.1211892683899114 #
point $-1 -40.97502446713095 -24.39038145722494 -7.1211892683899114 #
loop $-1 $-1 $202 $195 #
plane-surface $-1 0 0 7.1211892683899114 0 0 1 1 0 0 forward_v I I I I #
coedge $-1 $378 $379 $199 $297 forward $196 $-1 #
coedge $-1 $199 $198 $302 $380 reversed $73 $-1 #
edge $-1 $299 -58.546361353874161 $381 -51.773057324351811 $295 $382 forward 7 unknown #
coedge $-1 $205 $200 $379 $383 reversed $117 $-1 #
vertex $-1 $297 $384 #
straight-curve $-1 47.27195043794061 11.622377033719104 1.2553358588763075 0 1 0 I I #
coedge $-1 $385 $202 $205 $306 forward $293 $-1 #
coedge $-1 $202 $385 $296 $380 forward $293 $-1 #
vertex $-1 $203 $386 #
straight-curve $-1 40.938710964670321 15.614217528547307 7.1211892683899123 1 0 0 I I #
straight-curve $-1 1.2666493489632558e-006 15.614217528547307 83.132756521567586 -0.49999998660252726 0 0.86602541151947299 I I #
edge $-1 $206 15.614217528547307 $387 30.875290606329109 $205 $388 forward 7 unknown #
point $-1 47.27195043794061 15.614217528547307 7.1211892683899114 #
point $-1 47.27195043794061 15.614217528547307 1.2553358588763075 #
edge $-1 $389 1 $389 0 $209 $-1 forward 7 unknown #
vertex $-1 $210 $390 #
ellipse-curve $-1 41.795171499327353 19.974524122199249 2.0038850471641405 0.86602541151947299 0 0.49999998660252726 0.74999997990379086 0 -1.2990381172792094 1 I I #
point $-1 46.32862445583639 19.974524122199249 2.8892244463538903 #
edge $-1 $391 1 $391 0 $213 $-1 forward 7 unknown #
vertex $-1 $214 $392 #
ellipse-curve $-1 41.795171499327353 26.514984012677161 2.0038850471641405 0.86602541151947299 0 0.49999998660252726 0.74999997990379086 0 -1.2990381172792094 1 I I #
point $-1 46.32862445583639 26.514984012677161 2.8892244463538903 #
plane-surface $-1 0 0 7.1211892683899114 0 0 1 1 0 0 forward_v I I I I #
coedge $-1 $328 $327 $320 $393 forward $218 $-1 #
coedge $-1 $320 $220 $222 $324 reversed $139 $-1 #
coedge $-1 $220 $319 $318 $393 reversed $139 $-1 #
coedge $-1 $228 $223 $220 $322 forward $229 $-1 #
edge $-1 $325 -9.5746850891987378 $394 -0.71087945570092614 $321 $395 forward 7 unknown #
coedge $-1 $222 $221 $328 $396 reversed $87 $-1 #
edge $-1 $397 -8.2634070795339233e-015 $325 10.340811728126713 $319 $398 forward 7 unknown #
vertex $-1 $224 $399 #
straight-curve $-1 -38.408144804442799 -3.3738602195988996 7.1211892683899114 0 1 0 I I #
coedge $-1 $318 $225 $228 $332 reversed $218 $-1 #
coedge $-1 $225 $318 $323 $396 forward $218 $-1 #
vertex $-1 $226 $400 #
straight-curve $-1 -47.27195043794061 -10.596563346895332 41.417608677252858 0 0 1 I I #
straight-curve $-1 -47.271950437940603 -10.596563346895332 1.7952774320809795 -0.85716729658548041 0 -0.51503808176128008 I I #
edge $-1 $394 2.8988775315002666 $230 10.596563346895332 $327 $401 forward 7 unknown #
point $-1 -47.27195043794061 -10.596563346895332 7.1211892683899114 #
point $-1 -38.408144804442799 -10.596563346895332 7.1211892683899114 #
edge $-1 $402 1 $402 0 $233 $-1 forward 7 unknown #
vertex $-1 $234 $403 #
ellipse-curve $-1 -42.325009539430432 -8.397224542496744 3.6010660536499675 -0.51503808176128008 0 0.85716729658548041 0.2142918241463701 0 0.12875952044032002 1 I I #
point $-1 -42.625755797045336 -8.397224542496744 4.5869928706757683 #
edge $-1 $404 1 $404 0 $237 $-1 forward 7 unknown #
vertex $-1 $238 $405 #
ellipse-curve $-1 -42.325009539430432 -5.0982163358988579 3.6010660536499675 -0.51503808176128008 0 0.85716729658548041 0.2142918241463701 0 0.12875952044032002 1 I I #
point $-1 -42.625755797045336 -5.0982163358988579 4.5869928706757683 #
plane-surface $-1 47.27195043794061 0 0 -1 0 0 0 0 1 forward_v I I I I #
coedge $-1 $246 $244 $248 $348 reversed $161 $-1 #
edge $-1 $259 -7.1211892683899114 $350 7.1211892683899114 $258 $406 forward 7 unknown #
vertex $-1 $348 $407 #
straight-curve $-1 -47.27195043794061 -30.875290606329109 0 0 0 -1 I I #
edge $-1 $346 -30.875290606329109 $350 30.875290606329109 $344 $408 forward 7 unknown #
straight-curve $-1 0 -30.875290606329109 -7.1211892683899114 -1 0 0 I I #
vertex $-1 $251 $409 #
straight-curve $-1 0 30.875290606329109 -7.1211892683899114 1 0 0 I I #
point $-1 47.27195043794061 30.875290606329109 -7.1211892683899114 #
point $-1 47.27195043794061 -30.875290606329109 -7.1211892683899114 #
straight-curve $-1 -47.27195043794061 0 7.1211892683899114 0 -1 0 I I #
point $-1 -47.27195043794061 30.875290606329109 7.1211892683899114 #
point $-1 -47.27195043794061 -30.875290606329109 7.1211892683899114 #
straight-curve $-1 47.27195043794061 -30.875290606329109 0 0 0 -1 I I #
straight-curve $-1 47.27195043794061 30.875290606329109 0 0 0 -1 I I #
loop $-1 $-1 $274 $268 #
plane-surface $-1 0 -30.875290606329109 0 0 1 0 0 0 1 forward_v I I I I #
coedge $-1 $285 $276 $272 $363 forward $269 $-1 #
edge $-1 $367 -17.058872590440597 $280 -10.573963441336428 $271 $410 forward 7 unknown #
edge $-1 $281 10.573963441336428 $366 17.058872590440597 $361 $411 forward 7 unknown #
coedge $-1 $283 $274 $288 $376 reversed $359 $-1 #
coedge $-1 $274 $283 $285 $374 reversed $359 $-1 #
vertex $-1 $374 $412 #
vertex $-1 $275 $413 #
straight-curve $-1 -37.97502446713095 -30.875290606329109 0 0 0 1 I I #
straight-curve $-1 -19.737512233565475 -24.39038145722494 -7.1211892683899114 1 0 0 I I #
straight-curve $-1 -19.737512233565475 -24.39038145722494 7.1211892683899114 -1 0 0 I I #
point $-1 -37.97502446713095 -24.39038145722494 7.1211892683899114 #
point $-1 -37.97502446713095 -24.39038145722494 -7.1211892683899114 #
straight-curve $-1 -40.97502446713095 -30.875290606329109 0 0 0 -1 I I #
edge $-1 $366 37.97502446713095 $286 40.97502446713095 $365 $414 forward 7 unknown #
point $-1 -40.97502446713095 -30.875290606329109 -7.1211892683899114 #
edge $-1 $289 -40.97502446713095 $367 -37.97502446713095 $364 $415 forward 7 unknown #
point $-1 -40.97502446713095 -30.875290606329109 7.1211892683899114 #
coedge $-1 $379 $295 $385 $416 reversed $196 $-1 #
coedge $-1 $295 $378 $298 $383 forward $196 $-1 #
edge $-1 $381 -19.252913572610005 $303 -3.9918404948282031 $302 $417 forward 7 unknown #
vertex $-1 $297 $418 #
straight-curve $-1 17.998770545376811 30.875290606329109 51.957972543332957 -0.49999998660252726 0 0.86602541151947299 I I #
edge $-1 $387 -7.1211892683899114 $299 -1.2553358588763108 $298 $419 forward 7 unknown #
point $-1 47.27195043794061 30.875290606329109 1.2553358588763108 #
coedge $-1 $302 $301 $378 $416 forward $293 $-1 #
point $-1 43.885298513924589 15.614217528547307 7.1211892683899123 #
vertex $-1 $306 $420 #
straight-curve $-1 47.27195043794061 0 7.1211892683899114 0 1 0 I I #
vertex $-1 $309 $421 #
point $-1 42.545171479231144 19.974524122199249 0.70484692988493114 #
vertex $-1 $313 $422 #
point $-1 42.545171479231144 26.514984012677161 0.70484692988493114 #
edge $-1 $394 34.296419408862945 $397 39.622331245171885 $318 $423 forward 7 unknown #
vertex $-1 $332 $424 #
straight-curve $-1 -47.982829893641537 -2.8988775315002666 7.1211892683899123 -1 0 0 I I #
edge $-1 $397 -0.47498268809863298 $329 7.2227031272964322 $328 $425 forward 7 unknown #
vertex $-1 $396 $426 #
straight-curve $-1 -47.271950437940603 -2.8988775315002666 1.7952774320809795 0.85716729658548041 0 0.51503808176128008 I I #
point $-1 -38.408144804442799 -2.8988775315002666 7.1211892683899114 #
point $-1 -47.27195043794061 -10.596563346895332 1.7952774320809752 #
straight-curve $-1 -47.27195043794061 0 7.1211892683899114 0 -1 0 I I #
vertex $-1 $335 $427 #
point $-1 -42.110717715284061 -8.397224542496744 3.7298255740902877 #
vertex $-1 $339 $428 #
point $-1 -42.110717715284061 -5.0982163358988579 3.7298255740902877 #
straight-curve $-1 -47.27195043794061 30.875290606329109 0 0 0 -1 I I #
point $-1 -47.27195043794061 -30.875290606329109 -7.1211892683899114 #
straight-curve $-1 -47.27195043794061 0 -7.1211892683899114 0 1 0 I I #
point $-1 -47.27195043794061 30.875290606329109 -7.1211892683899114 #
straight-curve $-1 -37.97502446713095 -13.816418015888512 7.1211892683899114 0 1 0 I I #
straight-curve $-1 -37.97502446713095 -13.816418015888512 -7.1211892683899114 0 -1 0 I I #
point $-1 -37.97502446713095 -30.875290606329109 -7.1211892683899114 #
point $-1 -37.97502446713095 -30.875290606329109 7.1211892683899114 #
straight-curve $-1 0 -30.875290606329109 -7.1211892683899114 -1 0 0 I I #
straight-curve $-1 0 -30.875290606329109 7.1211892683899114 1 0 0 I I #
edge $-1 $387 -47.27195043794061 $381 -43.885298513924589 $378 $429 forward 7 unknown #
straight-curve $-1 43.885298513924596 11.622377033719104 7.1211892683899123 0 -1 0 I I #
point $-1 43.885298513924589 30.875290606329109 7.1211892683899123 #
straight-curve $-1 47.27195043794061 30.875290606329109 0 0 0 -1 I I #
point $-1 47.27195043794061 30.875290606329109 7.1211892683899114 #
point $-1 40.496133382048143 19.974524122199249 1.2538850672603497 #
point $-1 40.496133382048143 26.514984012677161 1.2538850672603497 #
straight-curve $-1 -47.27195043794061 -2.8988775315002666 41.417608677252858 0 0 -1 I I #
point $-1 -47.27195043794061 -2.8988775315002666 7.1211892683899114 #
straight-curve $-1 -47.27195043794061 -3.3738602195988996 1.7952774320809728 0 -1 0 I I #
point $-1 -47.27195043794061 -2.8988775315002666 1.7952774320809752 #
point $-1 -42.196250018990106 -8.397224542496744 3.3867742295035974 #
point $-1 -42.196250018990106 -5.0982163358988579 3.3867742295035974 #
straight-curve $-1 0 30.875290606329109 7.1211892683899114 -1 0 0 I I #
End-of-ACIS-data 