500 0 2 0           
7 Unknown 11 ACIS 5.0 NT 24 Fri Mar 26 02:32:54 1999 
-1 9.9999999999999995e-007 1e-010 
body $-1 $2 $-1 $3 #
body $-1 $4 $-1 $5 #
lump $-1 $-1 $6 $0 #
transform $-1 1 0 0 0 1 0 0 0 1 74.430982390820034 46.044218245747253 17.753448827741185 1 rotate no_reflect no_shear #
lump $-1 $-1 $7 $1 #
transform $-1 1 0 0 0 1 0 0 0 1 74.430982390820034 46.044218245747253 17.753448827741185 1 rotate no_reflect no_shear #
shell $-1 $-1 $-1 $8 $-1 $2 #
shell $-1 $-1 $-1 $9 $-1 $4 #
face $-1 $10 $11 $6 $-1 $12 forward single #
face $-1 $13 $14 $7 $-1 $15 forward single #
face $-1 $16 $17 $6 $-1 $18 reversed single #
loop $-1 $-1 $19 $8 #
plane-surface $-1 0 0 17.753448827741185 0 0 1 1 0 0 forward_v I I I I #
face $-1 $20 $21 $7 $-1 $22 reversed single #
loop $-1 $-1 $23 $9 #
plane-surface $-1 0 -38.850503659588561 -13.753057761279674 0 0 1 1 0 0 forward_v I I I I #
face $-1 $24 $25 $6 $-1 $26 reversed single #
loop $-1 $-1 $27 $10 #
plane-surface $-1 0 0 -17.753448827741185 0 0 1 1 0 0 forward_v I I I I #
coedge $-1 $28 $29 $30 $31 forward $11 $-1 #
face $-1 $32 $33 $7 $-1 $34 reversed single #
loop $-1 $-1 $35 $13 #
plane-surface $-1 0 -31.65678907342987 -15.753253294510429 0 -1 0 0 0 -1 forward_v I I I I #
coedge $-1 $36 $37 $38 $39 reversed $14 $-1 #
face $-1 $40 $41 $6 $-1 $42 reversed single #
loop $-1 $-1 $43 $16 #
plane-surface $-1 0 -46.044218245747253 0 0 1 0 0 0 1 forward_v I I I I #
coedge $-1 $44 $45 $46 $47 forward $17 $-1 #
coedge $-1 $48 $19 $49 $50 forward $11 $-1 #
coedge $-1 $19 $48 $51 $52 forward $11 $-1 #
coedge $-1 $53 $54 $19 $31 reversed $55 $-1 #
edge $-1 $56 -46.044218245747253 $57 46.044218245747253 $30 $58 forward 7 unknown #
face $-1 $59 $60 $7 $-1 $61 reversed single #
loop $-1 $-1 $62 $20 #
plane-surface $-1 0 0 -17.753448827741185 0 0 1 1 0 0 forward_v I I I I #
coedge $-1 $63 $64 $65 $66 reversed $21 $-1 #
coedge $-1 $67 $23 $64 $68 forward $14 $-1 #
coedge $-1 $23 $67 $69 $70 reversed $14 $-1 #
coedge $-1 $71 $65 $23 $39 forward $60 $-1 #
edge $-1 $72 12.231537243635589 $73 26.618966415952972 $38 $74 forward 7 unknown #
face $-1 $75 $76 $6 $-1 $77 reversed single #
loop $-1 $-1 $78 $24 #
plane-surface $-1 -74.430982390820034 0 0 1 0 0 0 0 -1 forward_v I I I I #
coedge $-1 $79 $51 $80 $81 forward $25 $-1 #
coedge $-1 $82 $27 $79 $83 forward $17 $-1 #
coedge $-1 $27 $82 $84 $85 forward $17 $-1 #
coedge $-1 $54 $53 $27 $47 reversed $55 $-1 #
edge $-1 $86 -46.044218245747253 $87 46.044218245747253 $46 $88 forward 7 unknown #
coedge $-1 $29 $28 $89 $90 forward $11 $-1 #
coedge $-1 $91 $92 $28 $50 reversed $76 $-1 #
edge $-1 $57 -74.430982390820034 $93 74.430982390820034 $49 $94 forward 7 unknown #
coedge $-1 $43 $95 $29 $52 reversed $25 $-1 #
edge $-1 $96 -74.430982390820034 $56 74.430982390820034 $51 $97 forward 7 unknown #
coedge $-1 $46 $30 $95 $98 forward $55 $-1 #
coedge $-1 $30 $46 $91 $99 reversed $55 $-1 #
loop $-1 $-1 $53 $75 #
vertex $-1 $31 $100 #
vertex $-1 $31 $101 #
straight-curve $-1 74.430982390820034 0 17.753448827741185 0 1 0 I I #
face $-1 $102 $103 $7 $-1 $104 reversed single #
loop $-1 $-1 $65 $32 #
plane-surface $-1 74.430982390820034 0 0 -1 0 0 0 0 1 forward_v I I I I #
coedge $-1 $105 $106 $63 $107 forward $33 $-1 #
coedge $-1 $108 $35 $62 $107 reversed $21 $-1 #
coedge $-1 $35 $108 $36 $68 reversed $21 $-1 #
coedge $-1 $38 $109 $35 $66 forward $60 $-1 #
edge $-1 $110 -9.8768221804859699 $72 -5.8764311140244594 $65 $111 forward 7 unknown #
coedge $-1 $37 $36 $112 $113 reversed $14 $-1 #
edge $-1 $72 -74.430982390820034 $114 74.430982390820034 $64 $115 forward 7 unknown #
coedge $-1 $116 $117 $37 $70 forward $103 $-1 #
edge $-1 $73 -74.430982390820034 $118 74.430982390820034 $69 $119 forward 7 unknown #
coedge $-1 $109 $38 $117 $120 forward $60 $-1 #
vertex $-1 $39 $121 #
vertex $-1 $120 $122 #
straight-curve $-1 74.430982390820034 -19.425251829794281 -13.753057761279674 0 -1 0 I I #
face $-1 $-1 $55 $6 $-1 $123 reversed single #
loop $-1 $-1 $91 $40 #
plane-surface $-1 0 46.044218245747253 0 0 -1 0 0 0 -1 forward_v I I I I #
coedge $-1 $124 $89 $92 $125 forward $41 $-1 #
coedge $-1 $95 $43 $44 $83 reversed $25 $-1 #
coedge $-1 $89 $124 $43 $81 reversed $41 $-1 #
edge $-1 $96 -17.753448827741185 $126 17.753448827741185 $80 $127 forward 7 unknown #
coedge $-1 $45 $44 $124 $128 forward $17 $-1 #
edge $-1 $87 -74.430982390820034 $126 74.430982390820034 $79 $129 forward 7 unknown #
coedge $-1 $92 $91 $45 $85 reversed $76 $-1 #
edge $-1 $130 -74.430982390820034 $86 74.430982390820034 $84 $131 forward 7 unknown #
vertex $-1 $47 $132 #
vertex $-1 $98 $133 #
straight-curve $-1 74.430982390820034 0 -17.753448827741185 0 -1 0 I I #
coedge $-1 $78 $80 $48 $90 reversed $41 $-1 #
edge $-1 $93 -46.044218245747253 $96 46.044218245747253 $89 $134 forward 7 unknown #
coedge $-1 $84 $49 $54 $99 forward $76 $-1 #
coedge $-1 $49 $84 $78 $125 reversed $76 $-1 #
vertex $-1 $50 $135 #
straight-curve $-1 0 46.044218245747253 17.753448827741185 -1 0 0 I I #
coedge $-1 $51 $79 $53 $98 reversed $25 $-1 #
vertex $-1 $90 $136 #
straight-curve $-1 0 -46.044218245747253 17.753448827741185 1 0 0 I I #
edge $-1 $56 -17.753448827741185 $87 17.753448827741185 $53 $137 forward 7 unknown #
edge $-1 $57 -17.753448827741185 $86 17.753448827741185 $54 $138 forward 7 unknown #
point $-1 74.430982390820034 -46.044218245747253 17.753448827741185 #
point $-1 74.430982390820034 46.044218245747253 17.753448827741185 #
face $-1 $-1 $139 $7 $-1 $140 reversed single #
loop $-1 $-1 $69 $59 #
plane-surface $-1 0 -46.044218245747253 0 0 1 0 0 0 1 forward_v I I I I #
coedge $-1 $141 $62 $109 $142 forward $33 $-1 #
coedge $-1 $62 $141 $143 $144 forward $33 $-1 #
edge $-1 $145 -74.430982390820034 $110 74.430982390820034 $62 $146 forward 7 unknown #
coedge $-1 $64 $63 $147 $148 reversed $21 $-1 #
coedge $-1 $65 $71 $105 $142 reversed $60 $-1 #
vertex $-1 $142 $149 #
straight-curve $-1 74.430982390820034 -31.65678907342987 -7.8766266472552147 0 0 1 I I #
coedge $-1 $147 $150 $67 $113 forward $139 $-1 #
edge $-1 $118 -26.618966415952972 $114 -12.231537243635589 $112 $151 forward 7 unknown #
vertex $-1 $113 $152 #
straight-curve $-1 0 -31.65678907342987 -13.753057761279674 -1 0 0 I I #
coedge $-1 $153 $69 $150 $154 forward $103 $-1 #
coedge $-1 $69 $153 $71 $120 reversed $103 $-1 #
vertex $-1 $154 $155 #
straight-curve $-1 0 -46.044218245747253 -13.753057761279674 -1 0 0 I I #
edge $-1 $73 13.753057761279674 $156 17.753448827741185 $71 $157 forward 7 unknown #
point $-1 74.430982390820034 -31.65678907342987 -13.753057761279674 #
point $-1 74.430982390820034 -46.044218245747253 -13.753057761279674 #
plane-surface $-1 74.430982390820034 0 0 -1 0 0 0 0 1 forward_v I I I I #
coedge $-1 $80 $78 $82 $128 reversed $41 $-1 #
edge $-1 $93 -17.753448827741185 $130 17.753448827741185 $92 $158 forward 7 unknown #
vertex $-1 $128 $159 #
straight-curve $-1 -74.430982390820034 -46.044218245747253 0 0 0 -1 I I #
edge $-1 $126 -46.044218245747253 $130 46.044218245747253 $124 $160 forward 7 unknown #
straight-curve $-1 0 -46.044218245747253 -17.753448827741185 -1 0 0 I I #
vertex $-1 $85 $161 #
straight-curve $-1 0 46.044218245747253 -17.753448827741185 1 0 0 I I #
point $-1 74.430982390820034 46.044218245747253 -17.753448827741185 #
point $-1 74.430982390820034 -46.044218245747253 -17.753448827741185 #
straight-curve $-1 -74.430982390820034 0 17.753448827741185 0 -1 0 I I #
point $-1 -74.430982390820034 46.044218245747253 17.753448827741185 #
point $-1 -74.430982390820034 -46.044218245747253 17.753448827741185 #
straight-curve $-1 74.430982390820034 -46.044218245747253 0 0 0 -1 I I #
straight-curve $-1 74.430982390820034 46.044218245747253 0 0 0 -1 I I #
loop $-1 $-1 $147 $102 #
plane-surface $-1 -74.430982390820034 0 0 1 0 0 0 0 -1 forward_v I I I I #
coedge $-1 $106 $105 $153 $162 forward $33 $-1 #
edge $-1 $110 31.65678907342987 $156 46.044218245747253 $109 $163 forward 7 unknown #
coedge $-1 $150 $147 $106 $144 reversed $139 $-1 #
edge $-1 $164 -46.044218245747253 $145 -31.65678907342987 $143 $165 forward 7 unknown #
vertex $-1 $148 $166 #
straight-curve $-1 0 -31.65678907342987 -17.753448827741185 1 0 0 I I #
coedge $-1 $143 $112 $108 $148 forward $139 $-1 #
edge $-1 $114 5.8764311140244594 $145 9.8768221804859699 $147 $167 forward 7 unknown #
point $-1 74.430982390820034 -31.65678907342987 -17.753448827741185 #
coedge $-1 $112 $143 $116 $154 reversed $139 $-1 #
straight-curve $-1 -74.430982390820034 -19.425251829794281 -13.753057761279674 0 1 0 I I #
point $-1 -74.430982390820034 -31.65678907342987 -13.753057761279674 #
coedge $-1 $117 $116 $141 $162 reversed $103 $-1 #
edge $-1 $118 13.753057761279674 $164 17.753448827741185 $150 $168 forward 7 unknown #
point $-1 -74.430982390820034 -46.044218245747253 -13.753057761279674 #
vertex $-1 $120 $169 #
straight-curve $-1 74.430982390820034 -46.044218245747253 0 0 0 -1 I I #
straight-curve $-1 -74.430982390820034 46.044218245747253 0 0 0 -1 I I #
point $-1 -74.430982390820034 -46.044218245747253 -17.753448827741185 #
straight-curve $-1 -74.430982390820034 0 -17.753448827741185 0 1 0 I I #
point $-1 -74.430982390820034 46.044218245747253 -17.753448827741185 #
edge $-1 $156 -74.430982390820034 $164 74.430982390820034 $153 $170 forward 7 unknown #
straight-curve $-1 74.430982390820034 0 -17.753448827741185 0 -1 0 I I #
vertex $-1 $144 $171 #
straight-curve $-1 -74.430982390820034 0 -17.753448827741185 0 1 0 I I #
point $-1 -74.430982390820034 -31.65678907342987 -17.753448827741185 #
straight-curve $-1 -74.430982390820034 -31.65678907342987 -7.8766266472552147 0 0 -1 I I #
straight-curve $-1 -74.430982390820034 -46.044218245747253 0 0 0 -1 I I #
point $-1 74.430982390820034 -46.044218245747253 -17.753448827741185 #
straight-curve $-1 0 -46.044218245747253 -17.753448827741185 -1 0 0 I I #
point $-1 -74.430982390820034 -46.044218245747253 -17.753448827741185 #
End-of-ACIS-data 