500 0 10 0           
7 Unknown 11 ACIS 5.0 NT 24 Thu Mar 25 21:41:40 1999 
-1 9.9999999999999995e-007 1e-010 
body $-1 $10 $-1 $11 #
body $-1 $12 $-1 $13 #
body $-1 $14 $-1 $15 #
body $-1 $16 $-1 $17 #
body $-1 $18 $-1 $19 #
body $-1 $20 $-1 $21 #
body $-1 $22 $-1 $23 #
body $-1 $24 $-1 $25 #
body $-1 $26 $-1 $27 #
body $-1 $28 $-1 $29 #
lump $-1 $-1 $30 $0 #
transform $-1 1 0 0 0 1 0 0 0 1 49.045686208685566 27.442802962001522 13.033970447607079 1 rotate no_reflect no_shear #
lump $-1 $-1 $31 $1 #
transform $-1 1 0 0 0 1 0 0 0 1 49.045686208685566 27.442802962001522 13.033970447607079 1 rotate no_reflect no_shear #
lump $-1 $-1 $32 $2 #
transform $-1 1 0 0 0 1 0 0 0 1 49.045686208685566 27.442802962001522 13.033970447607079 1 rotate no_reflect no_shear #
lump $-1 $-1 $33 $3 #
transform $-1 1 0 0 0 1 0 0 0 1 49.045686208685566 27.442802962001522 13.033970447607079 1 rotate no_reflect no_shear #
lump $-1 $-1 $34 $4 #
transform $-1 1 0 0 0 1 0 0 0 1 49.045686208685566 27.442802962001522 13.033970447607079 1 rotate no_reflect no_shear #
lump $-1 $-1 $35 $5 #
transform $-1 1 0 0 0 1 0 0 0 1 49.045686208685566 27.442802962001522 13.033970447607079 1 rotate no_reflect no_shear #
lump $-1 $-1 $36 $6 #
transform $-1 1 0 0 0 1 0 0 0 1 49.045686208685566 27.442802962001522 13.033970447607079 1 rotate no_reflect no_shear #
lump $-1 $-1 $37 $7 #
transform $-1 1 0 0 0 1 0 0 0 1 49.045686208685566 27.442802962001522 13.033970447607079 1 rotate no_reflect no_shear #
lump $-1 $-1 $38 $8 #
transform $-1 1 0 0 0 1 0 0 0 1 49.045686208685566 27.442802962001522 13.033970447607079 1 rotate no_reflect no_shear #
lump $-1 $-1 $39 $9 #
transform $-1 1 0 0 0 1 0 0 0 1 49.045686208685566 27.442802962001522 13.033970447607079 1 rotate no_reflect no_shear #
shell $-1 $-1 $-1 $40 $-1 $10 #
shell $-1 $-1 $-1 $41 $-1 $12 #
shell $-1 $-1 $-1 $42 $-1 $14 #
shell $-1 $-1 $-1 $43 $-1 $16 #
shell $-1 $-1 $-1 $44 $-1 $18 #
shell $-1 $-1 $-1 $45 $-1 $20 #
shell $-1 $-1 $-1 $46 $-1 $22 #
shell $-1 $-1 $-1 $47 $-1 $24 #
shell $-1 $-1 $-1 $48 $-1 $26 #
shell $-1 $-1 $-1 $49 $-1 $28 #
face $-1 $50 $51 $30 $-1 $52 reversed single #
face $-1 $53 $54 $31 $-1 $55 forward single #
face $-1 $56 $57 $32 $-1 $58 reversed single #
face $-1 $59 $60 $33 $-1 $61 forward single #
face $-1 $62 $63 $34 $-1 $64 forward single #
face $-1 $65 $66 $35 $-1 $67 forward single #
face $-1 $68 $69 $36 $-1 $70 reversed single #
face $-1 $71 $72 $37 $-1 $73 forward single #
face $-1 $74 $75 $38 $-1 $76 forward single #
face $-1 $77 $78 $39 $-1 $79 forward single #
face $-1 $80 $81 $30 $-1 $82 forward single #
loop $-1 $-1 $83 $40 #
plane-surface $-1 0 -27.442802962001522 0 0 1 0 0 0 1 forward_v I I I I #
face $-1 $84 $85 $31 $-1 $86 reversed single #
loop $-1 $-1 $87 $41 #
plane-surface $-1 0 -27.442802962001522 0 0 1 0 0 0 1 forward_v I I I I #
face $-1 $88 $89 $32 $-1 $90 reversed single #
loop $-1 $-1 $91 $42 #
plane-surface $-1 -10.491678606865463 40.696078143024081 112.79075402479566 1 0 0 0 -0.5877852598018023 -0.80901698891910034 forward_v I I I I #
face $-1 $92 $93 $33 $-1 $94 forward single #
loop $-1 $95 $96 $43 #
cone-surface $-1 -8.3933428854923733 18.958129576573786 6.6605565358425221 0 -0.5877852598018023 -0.80901698891910034 0.5 0 0 1 I I 0 1 0.5 forward I I I I #
face $-1 $97 $98 $34 $-1 $99 forward single #
loop $-1 $100 $101 $44 #
cone-surface $-1 -5.2458393034327315 18.958129576573786 6.6605565358425221 0 -0.5877852598018023 -0.80901698891910034 0.5 0 0 1 I I 0 1 0.5 forward I I I I #
face $-1 $102 $103 $35 $-1 $104 forward single #
loop $-1 $105 $106 $45 #
cone-surface $-1 -2.0983357213730898 18.958129576573786 6.6605565358425221 0 -0.5877852598018023 -0.80901698891910034 0.5 0 0 1 I I 0 1 0.5 forward I I I I #
face $-1 $107 $108 $36 $-1 $109 reversed single #
loop $-1 $-1 $110 $46 #
plane-surface $-1 38.554007601820089 40.696078143024081 112.79075402479566 1 0 0 0 -0.5877852598018023 -0.80901698891910034 forward_v I I I I #
face $-1 $111 $112 $37 $-1 $113 forward single #
loop $-1 $114 $115 $47 #
cone-surface $-1 40.652343323193179 18.958129576573786 6.6605565358425221 0 -0.5877852598018023 -0.80901698891910034 0.5 0 0 1 I I 0 1 0.5 forward I I I I #
face $-1 $116 $117 $38 $-1 $118 forward single #
loop $-1 $119 $120 $48 #
cone-surface $-1 43.799846905252821 18.958129576573786 6.6605565358425221 0 -0.5877852598018023 -0.80901698891910034 0.5 0 0 1 I I 0 1 0.5 forward I I I I #
face $-1 $121 $122 $39 $-1 $123 forward single #
loop $-1 $124 $125 $49 #
cone-surface $-1 46.947350487312463 18.958129576573786 6.6605565358425221 0 -0.5877852598018023 -0.80901698891910034 0.5 0 0 1 I I 0 1 0.5 forward I I I I #
face $-1 $126 $127 $30 $-1 $128 reversed single #
loop $-1 $-1 $129 $50 #
plane-surface $-1 0 0 13.033970447607079 0 0 1 1 0 0 forward_v I I I I #
coedge $-1 $130 $131 $132 $133 reversed $51 $-1 #
face $-1 $134 $135 $31 $-1 $136 reversed single #
loop $-1 $-1 $137 $53 #
plane-surface $-1 0 0 -13.033970447607079 0 0 1 1 0 0 forward_v I I I I #
coedge $-1 $138 $139 $140 $141 forward $54 $-1 #
face $-1 $142 $143 $32 $-1 $144 reversed single #
loop $-1 $-1 $145 $56 #
plane-surface $-1 -5.2458393034327315 -16.960584677635751 33.433167272751973 0 0.5877852598018023 0.80901698891910034 1 0 0 forward_v I I I I #
coedge $-1 $146 $147 $148 $149 reversed $57 $-1 #
face $-1 $-1 $150 $33 $-1 $151 forward single #
loop $-1 $152 $153 $59 #
cone-surface $-1 -8.3933428854923733 18.489661118907414 6.0157650329854775 0 -0.5877852598018023 -0.80901698891910034 0.25 0 0 1 I I -0.70710678118654746 0.70710678118654746 0.25 forward I I I I #
loop $-1 $-1 $154 $43 #
coedge $-1 $96 $96 $155 $156 reversed $60 $-1 #
face $-1 $-1 $157 $34 $-1 $158 forward single #
loop $-1 $159 $160 $62 #
cone-surface $-1 -5.2458393034327315 18.489661118907414 6.0157650329854775 0 -0.5877852598018023 -0.80901698891910034 0.25 0 0 1 I I -0.70710678118654746 0.70710678118654746 0.25 forward I I I I #
loop $-1 $-1 $161 $44 #
coedge $-1 $101 $101 $162 $163 reversed $63 $-1 #
face $-1 $-1 $164 $35 $-1 $165 forward single #
loop $-1 $166 $167 $65 #
cone-surface $-1 -2.0983357213730898 18.489661118907414 6.0157650329854775 0 -0.5877852598018023 -0.80901698891910034 0.25 0 0 1 I I -0.70710678118654746 0.70710678118654746 0.25 forward I I I I #
loop $-1 $-1 $168 $45 #
coedge $-1 $106 $106 $169 $170 reversed $66 $-1 #
face $-1 $171 $172 $36 $-1 $173 forward single #
loop $-1 $-1 $174 $68 #
plane-surface $-1 43.799846905252821 -16.960584677635751 33.433167272751973 0 0.5877852598018023 0.80901698891910034 1 0 0 forward_v I I I I #
coedge $-1 $175 $176 $177 $178 reversed $69 $-1 #
face $-1 $-1 $179 $37 $-1 $180 forward single #
loop $-1 $181 $182 $71 #
cone-surface $-1 40.652343323193179 18.489661118907414 6.0157650329854775 0 -0.5877852598018023 -0.80901698891910034 0.25 0 0 1 I I -0.70710678118654746 0.70710678118654746 0.25 forward I I I I #
loop $-1 $-1 $183 $47 #
coedge $-1 $115 $115 $184 $185 reversed $72 $-1 #
face $-1 $-1 $186 $38 $-1 $187 forward single #
loop $-1 $188 $189 $74 #
cone-surface $-1 43.799846905252821 18.489661118907414 6.0157650329854775 0 -0.5877852598018023 -0.80901698891910034 0.25 0 0 1 I I -0.70710678118654746 0.70710678118654746 0.25 forward I I I I #
loop $-1 $-1 $190 $48 #
coedge $-1 $120 $120 $191 $192 reversed $75 $-1 #
face $-1 $-1 $193 $39 $-1 $194 forward single #
loop $-1 $195 $196 $77 #
cone-surface $-1 46.947350487312463 18.489661118907414 6.0157650329854775 0 -0.5877852598018023 -0.80901698891910034 0.25 0 0 1 I I -0.70710678118654746 0.70710678118654746 0.25 forward I I I I #
loop $-1 $-1 $197 $49 #
coedge $-1 $125 $125 $198 $199 reversed $78 $-1 #
face $-1 $200 $201 $30 $-1 $202 reversed single #
loop $-1 $-1 $203 $80 #
plane-surface $-1 0 0 -13.033970447607079 0 0 1 1 0 0 forward_v I I I I #
coedge $-1 $204 $205 $206 $207 forward $81 $-1 #
coedge $-1 $208 $83 $209 $210 reversed $51 $-1 #
coedge $-1 $83 $208 $211 $212 forward $51 $-1 #
coedge $-1 $213 $203 $83 $133 forward $127 $-1 #
edge $-1 $214 -49.045686208685566 $215 49.045686208685566 $83 $216 forward 7 unknown #
face $-1 $217 $218 $31 $-1 $219 reversed single #
loop $-1 $-1 $220 $84 #
plane-surface $-1 -25.899857508825466 -43.442617246889284 0 0 1 0 0 0 1 forward_v I I I I #
coedge $-1 $221 $222 $139 $223 forward $85 $-1 #
coedge $-1 $224 $87 $225 $226 reversed $54 $-1 #
coedge $-1 $87 $224 $137 $223 reversed $54 $-1 #
coedge $-1 $227 $228 $87 $141 reversed $218 $-1 #
edge $-1 $229 -13.033970447607079 $230 13.033970447607079 $140 $231 forward 7 unknown #
face $-1 $232 $233 $32 $-1 $234 forward single #
loop $-1 $-1 $235 $88 #
plane-surface $-1 0 40.696078143024081 112.79075402479566 -1 0 0 0 0.5877852598018023 0.80901698891910034 forward_v I I I I #
coedge $-1 $236 $237 $238 $239 reversed $89 $-1 #
coedge $-1 $147 $91 $240 $241 reversed $57 $-1 #
coedge $-1 $91 $146 $236 $242 reversed $57 $-1 #
coedge $-1 $238 $243 $91 $149 forward $233 $-1 #
edge $-1 $244 -7.0947638904894816 $245 9.2315385949341433 $148 $246 forward 7 unknown #
loop $-1 $-1 $155 $92 #
plane-surface $-1 -5.2458393034327315 -16.960584677635751 33.433167272751973 0 0.5877852598018023 0.80901698891910034 1 0 0 forward_v I I I I #
loop $-1 $-1 $247 $59 #
coedge $-1 $153 $153 $154 $248 reversed $93 $-1 #
coedge $-1 $154 $154 $153 $248 forward $95 $-1 #
coedge $-1 $155 $155 $96 $156 forward $150 $-1 #
edge $-1 $249 2.0882327326951692e-015 $249 6.2831853071796022 $155 $250 forward 7 unknown #
loop $-1 $-1 $162 $97 #
plane-surface $-1 -5.2458393034327315 -16.960584677635751 33.433167272751973 0 0.5877852598018023 0.80901698891910034 1 0 0 forward_v I I I I #
loop $-1 $-1 $251 $62 #
coedge $-1 $160 $160 $161 $252 reversed $98 $-1 #
coedge $-1 $161 $161 $160 $252 forward $100 $-1 #
coedge $-1 $162 $162 $101 $163 forward $157 $-1 #
edge $-1 $253 2.0882327326951692e-015 $253 6.2831853071796022 $162 $254 forward 7 unknown #
loop $-1 $-1 $169 $102 #
plane-surface $-1 -5.2458393034327315 -16.960584677635751 33.433167272751973 0 0.5877852598018023 0.80901698891910034 1 0 0 forward_v I I I I #
loop $-1 $-1 $255 $65 #
coedge $-1 $167 $167 $168 $256 reversed $103 $-1 #
coedge $-1 $168 $168 $167 $256 forward $105 $-1 #
coedge $-1 $169 $169 $106 $170 forward $164 $-1 #
edge $-1 $257 2.0882327326951692e-015 $257 6.2831853071796022 $169 $258 forward 7 unknown #
face $-1 $259 $260 $36 $-1 $261 reversed single #
loop $-1 $-1 $177 $107 #
plane-surface $-1 0 0 13.033970447607079 0 0 1 1 0 0 forward_v I I I I #
coedge $-1 $262 $263 $264 $265 reversed $108 $-1 #
coedge $-1 $176 $110 $266 $267 reversed $69 $-1 #
coedge $-1 $110 $175 $262 $268 reversed $69 $-1 #
coedge $-1 $264 $269 $110 $178 forward $172 $-1 #
edge $-1 $270 -7.0947638904894816 $271 9.2315385949341433 $177 $272 forward 7 unknown #
loop $-1 $-1 $184 $111 #
plane-surface $-1 43.799846905252821 -16.960584677635751 33.433167272751973 0 0.5877852598018023 0.80901698891910034 1 0 0 forward_v I I I I #
loop $-1 $-1 $273 $71 #
coedge $-1 $182 $182 $183 $274 reversed $112 $-1 #
coedge $-1 $183 $183 $182 $274 forward $114 $-1 #
coedge $-1 $184 $184 $115 $185 forward $179 $-1 #
edge $-1 $275 2.0882327326951692e-015 $275 6.2831853071796022 $184 $276 forward 7 unknown #
loop $-1 $-1 $191 $116 #
plane-surface $-1 43.799846905252821 -16.960584677635751 33.433167272751973 0 0.5877852598018023 0.80901698891910034 1 0 0 forward_v I I I I #
loop $-1 $-1 $277 $74 #
coedge $-1 $189 $189 $190 $278 reversed $117 $-1 #
coedge $-1 $190 $190 $189 $278 forward $119 $-1 #
coedge $-1 $191 $191 $120 $192 forward $186 $-1 #
edge $-1 $279 2.0882327326951692e-015 $279 6.2831853071796022 $191 $280 forward 7 unknown #
loop $-1 $-1 $198 $121 #
plane-surface $-1 43.799846905252821 -16.960584677635751 33.433167272751973 0 0.5877852598018023 0.80901698891910034 1 0 0 forward_v I I I I #
loop $-1 $-1 $281 $77 #
coedge $-1 $196 $196 $197 $282 reversed $122 $-1 #
coedge $-1 $197 $197 $196 $282 forward $124 $-1 #
coedge $-1 $198 $198 $125 $199 forward $193 $-1 #
edge $-1 $283 2.0882327326951692e-015 $283 6.2831853071796022 $198 $284 forward 7 unknown #
face $-1 $285 $286 $30 $-1 $287 reversed single #
loop $-1 $-1 $288 $126 #
plane-surface $-1 -49.045686208685566 0 0 1 0 0 0 0 -1 forward_v I I I I #
coedge $-1 $132 $289 $290 $291 forward $127 $-1 #
coedge $-1 $292 $129 $293 $294 forward $81 $-1 #
coedge $-1 $129 $292 $208 $295 forward $81 $-1 #
coedge $-1 $209 $296 $129 $207 reversed $297 $-1 #
edge $-1 $298 -27.442802962001522 $299 27.442802962001522 $206 $300 forward 7 unknown #
coedge $-1 $131 $130 $205 $295 reversed $51 $-1 #
coedge $-1 $290 $206 $130 $210 forward $297 $-1 #
edge $-1 $298 -13.033970447607079 $214 13.033970447607079 $209 $301 forward 7 unknown #
coedge $-1 $302 $303 $131 $212 reversed $201 $-1 #
edge $-1 $304 -13.033970447607079 $215 13.033970447607079 $211 $305 forward 7 unknown #
coedge $-1 $289 $132 $303 $306 forward $127 $-1 #
vertex $-1 $210 $307 #
vertex $-1 $306 $308 #
straight-curve $-1 0 -27.442802962001522 -13.033970447607079 -1 0 0 I I #
face $-1 $309 $310 $31 $-1 $311 reversed single #
loop $-1 $-1 $140 $134 #
plane-surface $-1 -28.821969704179523 -35.442710104445403 0 1 0 0 0 0 -1 forward_v I I I I #
coedge $-1 $312 $313 $314 $315 forward $135 $-1 #
coedge $-1 $316 $137 $317 $318 forward $85 $-1 #
coedge $-1 $137 $316 $227 $319 forward $85 $-1 #
edge $-1 $229 -28.821969704179523 $320 -22.977745313471409 $137 $321 forward 7 unknown #
coedge $-1 $139 $138 $322 $323 forward $54 $-1 #
coedge $-1 $324 $325 $138 $226 forward $326 $-1 #
edge $-1 $327 22.977745313471409 $230 28.821969704179523 $225 $328 forward 7 unknown #
coedge $-1 $314 $140 $222 $319 reversed $218 $-1 #
coedge $-1 $140 $314 $324 $329 reversed $218 $-1 #
vertex $-1 $223 $330 #
vertex $-1 $329 $331 #
straight-curve $-1 -28.821969704179523 -27.442802962001522 0 0 0 1 I I #
face $-1 $-1 $332 $32 $-1 $333 reversed single #
loop $-1 $-1 $148 $142 #
plane-surface $-1 0 0 13.033970447607079 0 0 1 1 0 0 forward_v I I I I #
coedge $-1 $334 $335 $336 $337 reversed $143 $-1 #
coedge $-1 $338 $145 $147 $242 forward $89 $-1 #
coedge $-1 $145 $338 $334 $339 forward $89 $-1 #
coedge $-1 $336 $148 $145 $239 forward $233 $-1 #
edge $-1 $245 -7.8687589551490973 $340 2.6229196517163658 $238 $341 forward 7 unknown #
coedge $-1 $342 $343 $146 $241 forward $332 $-1 #
edge $-1 $344 -55.223159877065321 $244 -43.361406564790755 $240 $345 forward 7 unknown #
edge $-1 $245 34.705186094702995 $344 54.885605924003031 $147 $346 forward 7 unknown #
coedge $-1 $148 $336 $342 $347 forward $233 $-1 #
vertex $-1 $241 $348 #
vertex $-1 $149 $349 #
straight-curve $-1 -10.491678606865463 20.348039071512041 13.033970447607082 0 -1 0 I I #
coedge $-1 $247 $247 $-1 $350 reversed $152 $-1 #
edge $-1 $351 0 $351 6.2831853071796004 $153 $352 forward 7 unknown #
vertex $-1 $156 $353 #
ellipse-curve $-1 -8.3933428854923733 19.279651719289706 7.1030937914697931 0 0.5877852598018023 0.80901698891910034 0.5 0 0 1 I I #
coedge $-1 $251 $251 $-1 $354 reversed $159 $-1 #
edge $-1 $355 0 $355 6.2831853071796004 $160 $356 forward 7 unknown #
vertex $-1 $163 $357 #
ellipse-curve $-1 -5.2458393034327315 19.279651719289706 7.1030937914697931 0 0.5877852598018023 0.80901698891910034 0.5 0 0 1 I I #
coedge $-1 $255 $255 $-1 $358 reversed $166 $-1 #
edge $-1 $359 0 $359 6.2831853071796004 $167 $360 forward 7 unknown #
vertex $-1 $170 $361 #
ellipse-curve $-1 -2.0983357213730898 19.279651719289706 7.1030937914697931 0 0.5877852598018023 0.80901698891910034 0.5 0 0 1 I I #
face $-1 $-1 $362 $36 $-1 $363 reversed single #
loop $-1 $-1 $364 $171 #
plane-surface $-1 49.045686208685566 0 0 -1 0 0 0 0 1 forward_v I I I I #
coedge $-1 $365 $174 $176 $268 forward $108 $-1 #
coedge $-1 $174 $365 $364 $366 reversed $108 $-1 #
coedge $-1 $367 $177 $174 $265 forward $172 $-1 #
edge $-1 $271 16.654084149193679 $368 27.145762756059142 $264 $369 forward 7 unknown #
coedge $-1 $370 $371 $175 $267 forward $362 $-1 #
edge $-1 $372 -55.223159877065321 $270 -43.361406564790755 $266 $373 forward 7 unknown #
edge $-1 $271 34.705186094702995 $372 54.885605924003031 $176 $374 forward 7 unknown #
coedge $-1 $177 $367 $370 $375 forward $172 $-1 #
vertex $-1 $267 $376 #
vertex $-1 $178 $377 #
straight-curve $-1 38.554007601820089 20.348039071512041 13.033970447607082 0 -1 0 I I #
coedge $-1 $273 $273 $-1 $378 reversed $181 $-1 #
edge $-1 $379 0 $379 6.2831853071796004 $182 $380 forward 7 unknown #
vertex $-1 $185 $381 #
ellipse-curve $-1 40.652343323193179 19.279651719289706 7.1030937914697931 0 0.5877852598018023 0.80901698891910034 0.5 0 0 1 I I #
coedge $-1 $277 $277 $-1 $382 reversed $188 $-1 #
edge $-1 $383 0 $383 6.2831853071796004 $189 $384 forward 7 unknown #
vertex $-1 $192 $385 #
ellipse-curve $-1 43.799846905252821 19.279651719289706 7.1030937914697931 0 0.5877852598018023 0.80901698891910034 0.5 0 0 1 I I #
coedge $-1 $281 $281 $-1 $386 reversed $195 $-1 #
edge $-1 $387 0 $387 6.2831853071796004 $196 $388 forward 7 unknown #
vertex $-1 $199 $389 #
ellipse-curve $-1 46.947350487312463 19.279651719289706 7.1030937914697931 0 0.5877852598018023 0.80901698891910034 0.5 0 0 1 I I #
face $-1 $-1 $297 $30 $-1 $390 reversed single #
loop $-1 $-1 $391 $200 #
plane-surface $-1 0 27.442802962001522 0 0 -1 0 0 0 -1 forward_v I I I I #
coedge $-1 $303 $302 $392 $393 forward $201 $-1 #
coedge $-1 $203 $213 $394 $395 forward $127 $-1 #
coedge $-1 $296 $209 $203 $291 reversed $297 $-1 #
edge $-1 $396 -27.442802962001522 $214 27.442802962001522 $290 $397 forward 7 unknown #
coedge $-1 $205 $204 $302 $398 forward $81 $-1 #
coedge $-1 $391 $392 $204 $294 reversed $286 $-1 #
edge $-1 $299 -49.045686208685566 $399 49.045686208685566 $293 $400 forward 7 unknown #
edge $-1 $304 -49.045686208685566 $298 49.045686208685566 $208 $401 forward 7 unknown #
coedge $-1 $206 $290 $391 $402 reversed $297 $-1 #
loop $-1 $-1 $209 $285 #
vertex $-1 $207 $403 #
vertex $-1 $207 $404 #
straight-curve $-1 49.045686208685566 0 13.033970447607079 0 1 0 I I #
straight-curve $-1 49.045686208685566 -27.442802962001522 0 0 0 -1 I I #
coedge $-1 $288 $211 $292 $398 reversed $201 $-1 #
coedge $-1 $211 $288 $213 $306 reversed $201 $-1 #
vertex $-1 $398 $405 #
straight-curve $-1 -49.045686208685566 -27.442802962001522 0 0 0 -1 I I #
edge $-1 $215 -27.442802962001522 $406 27.442802962001522 $303 $407 forward 7 unknown #
point $-1 49.045686208685566 -27.442802962001522 -13.033970447607079 #
point $-1 -49.045686208685566 -27.442802962001522 -13.033970447607079 #
face $-1 $-1 $326 $31 $-1 $408 forward single #
loop $-1 $-1 $409 $217 #
plane-surface $-1 -22.977745313471409 -35.442710104445403 0 -1 0 0 0 0 1 forward_v I I I I #
coedge $-1 $410 $220 $316 $411 reversed $135 $-1 #
coedge $-1 $220 $410 $412 $413 reversed $135 $-1 #
coedge $-1 $228 $227 $220 $315 reversed $218 $-1 #
edge $-1 $414 -13.033970447607079 $415 13.033970447607079 $314 $416 forward 7 unknown #
coedge $-1 $222 $221 $312 $411 forward $85 $-1 #
coedge $-1 $322 $409 $221 $318 reversed $310 $-1 #
edge $-1 $320 -7.9999071424438846 $417 7.999907142443881 $317 $418 forward 7 unknown #
edge $-1 $415 -7.999907142443881 $229 7.9999071424438846 $227 $419 forward 7 unknown #
vertex $-1 $318 $420 #
straight-curve $-1 0 -27.442802962001522 -13.033970447607079 1 0 0 I I #
coedge $-1 $421 $317 $224 $323 reversed $310 $-1 #
edge $-1 $327 -13.033970447607079 $320 13.033970447607079 $322 $422 forward 7 unknown #
coedge $-1 $412 $225 $228 $329 forward $326 $-1 #
coedge $-1 $225 $412 $421 $423 forward $326 $-1 #
loop $-1 $-1 $225 $309 #
vertex $-1 $226 $424 #
straight-curve $-1 0 -27.442802962001522 13.033970447607079 -1 0 0 I I #
edge $-1 $230 -7.9999071424438846 $414 7.999907142443881 $228 $425 forward 7 unknown #
point $-1 -28.821969704179523 -27.442802962001519 -13.033970447607079 #
point $-1 -28.821969704179523 -27.442802962001519 13.033970447607079 #
loop $-1 $-1 $240 $232 #
plane-surface $-1 0 27.442802962001522 0 0 -1 0 0 0 -1 forward_v I I I I #
coedge $-1 $335 $235 $237 $339 reversed $143 $-1 #
coedge $-1 $235 $334 $426 $427 reversed $143 $-1 #
coedge $-1 $243 $238 $235 $337 forward $233 $-1 #
edge $-1 $340 -9.2315385949341433 $428 7.0947638904894816 $336 $429 forward 7 unknown #
coedge $-1 $237 $236 $343 $430 reversed $89 $-1 #
edge $-1 $431 -54.885605924003031 $340 -34.705186094702995 $334 $432 forward 7 unknown #
vertex $-1 $239 $433 #
straight-curve $-1 -2.6229196517163658 11.116500476577887 13.03397044760708 1 0 0 I I #
coedge $-1 $426 $240 $243 $347 reversed $332 $-1 #
coedge $-1 $240 $426 $338 $430 forward $332 $-1 #
vertex $-1 $241 $434 #
straight-curve $-1 -10.491678606865463 27.442802962001522 56.39537701239783 0 0 1 I I #
straight-curve $-1 -10.491678606865463 -16.960584677635751 33.433167272751973 0 0.80901698891910034 -0.5877852598018023 I I #
edge $-1 $428 0 $244 10.491678606865463 $342 $435 forward 7 unknown #
point $-1 -10.491678606865463 27.442802962001522 13.033970447607079 #
point $-1 -10.491678606865463 11.116500476577897 13.033970447607075 #
edge $-1 $436 1 $436 0 $247 $-1 forward 7 unknown #
vertex $-1 $248 $437 #
ellipse-curve $-1 -8.3933428854923733 18.636607433857865 6.2180192802152527 0 0.5877852598018023 0.80901698891910034 0.5 0 0 1 I I #
point $-1 -7.8933428854923733 19.279651719289706 7.1030937914697914 #
edge $-1 $438 1 $438 0 $251 $-1 forward 7 unknown #
vertex $-1 $252 $439 #
ellipse-curve $-1 -5.2458393034327315 18.636607433857865 6.2180192802152527 0 0.5877852598018023 0.80901698891910034 0.5 0 0 1 I I #
point $-1 -4.7458393034327315 19.279651719289706 7.1030937914697914 #
edge $-1 $440 1 $440 0 $255 $-1 forward 7 unknown #
vertex $-1 $256 $441 #
ellipse-curve $-1 -2.0983357213730898 18.636607433857865 6.2180192802152527 0 0.5877852598018023 0.80901698891910034 0.5 0 0 1 I I #
point $-1 -1.5983357213730898 19.279651719289706 7.1030937914697914 #
loop $-1 $-1 $266 $259 #
plane-surface $-1 0 27.442802962001522 0 0 -1 0 0 0 -1 forward_v I I I I #
coedge $-1 $442 $443 $263 $366 forward $260 $-1 #
coedge $-1 $263 $262 $371 $444 reversed $108 $-1 #
edge $-1 $368 18.018724065893025 $445 38.199143895193068 $364 $446 forward 7 unknown #
coedge $-1 $269 $264 $443 $447 forward $172 $-1 #
vertex $-1 $447 $448 #
straight-curve $-1 21.89992345262641 11.116500476577887 13.03397044760708 1 0 0 I I #
coedge $-1 $449 $266 $269 $375 reversed $362 $-1 #
coedge $-1 $266 $449 $365 $444 forward $362 $-1 #
vertex $-1 $267 $450 #
straight-curve $-1 38.554007601820089 27.442802962001522 56.39537701239783 0 0 1 I I #
straight-curve $-1 38.554007601820089 -16.960584677635751 33.433167272751973 0 0.80901698891910034 -0.5877852598018023 I I #
edge $-1 $451 -49.045686208685566 $270 -38.554007601820089 $370 $452 forward 7 unknown #
point $-1 38.554007601820089 27.442802962001522 13.033970447607079 #
point $-1 38.554007601820089 11.116500476577897 13.033970447607075 #
edge $-1 $453 1 $453 0 $273 $-1 forward 7 unknown #
vertex $-1 $274 $454 #
ellipse-curve $-1 40.652343323193179 18.636607433857865 6.2180192802152527 0 0.5877852598018023 0.80901698891910034 0.5 0 0 1 I I #
point $-1 41.152343323193179 19.279651719289706 7.1030937914697914 #
edge $-1 $455 1 $455 0 $277 $-1 forward 7 unknown #
vertex $-1 $278 $456 #
ellipse-curve $-1 43.799846905252821 18.636607433857865 6.2180192802152527 0 0.5877852598018023 0.80901698891910034 0.5 0 0 1 I I #
point $-1 44.299846905252821 19.279651719289706 7.1030937914697914 #
edge $-1 $457 1 $457 0 $281 $-1 forward 7 unknown #
vertex $-1 $282 $458 #
ellipse-curve $-1 46.947350487312463 18.636607433857865 6.2180192802152527 0 0.5877852598018023 0.80901698891910034 0.5 0 0 1 I I #
point $-1 47.447350487312463 19.279651719289706 7.1030937914697914 #
plane-surface $-1 49.045686208685566 0 0 -1 0 0 0 0 1 forward_v I I I I #
coedge $-1 $394 $293 $296 $402 forward $286 $-1 #
coedge $-1 $293 $394 $288 $393 reversed $286 $-1 #
edge $-1 $399 -13.033970447607079 $406 13.033970447607079 $392 $459 forward 7 unknown #
coedge $-1 $392 $391 $289 $395 reversed $286 $-1 #
edge $-1 $406 -49.045686208685566 $396 49.045686208685566 $394 $460 forward 7 unknown #
vertex $-1 $291 $461 #
straight-curve $-1 49.045686208685566 0 -13.033970447607079 0 -1 0 I I #
edge $-1 $399 -27.442802962001522 $304 27.442802962001522 $302 $462 forward 7 unknown #
vertex $-1 $294 $463 #
straight-curve $-1 0 27.442802962001522 13.033970447607079 -1 0 0 I I #
straight-curve $-1 0 -27.442802962001522 13.033970447607079 1 0 0 I I #
edge $-1 $299 -13.033970447607079 $396 13.033970447607079 $296 $464 forward 7 unknown #
point $-1 49.045686208685566 -27.442802962001522 13.033970447607079 #
point $-1 49.045686208685566 27.442802962001522 13.033970447607079 #
point $-1 -49.045686208685566 -27.442802962001522 13.033970447607079 #
vertex $-1 $395 $465 #
straight-curve $-1 -49.045686208685566 0 -13.033970447607079 0 1 0 I I #
plane-surface $-1 0 0 13.033970447607079 0 0 1 1 0 0 forward_v I I I I #
coedge $-1 $317 $421 $410 $466 forward $310 $-1 #
coedge $-1 $313 $312 $409 $466 reversed $135 $-1 #
edge $-1 $417 -2.9221121953540568 $415 2.9221121953540568 $312 $467 forward 7 unknown #
coedge $-1 $325 $324 $313 $413 forward $326 $-1 #
edge $-1 $414 -2.9221121953540568 $468 2.9221121953540568 $313 $469 forward 7 unknown #
vertex $-1 $329 $470 #
vertex $-1 $319 $471 #
straight-curve $-1 -28.821969704179523 -43.442617246889284 0 0 0 -1 I I #
vertex $-1 $466 $472 #
straight-curve $-1 -22.977745313471409 -35.442710104445403 -13.033970447607079 0 -1 0 I I #
straight-curve $-1 -28.821969704179523 -35.442710104445403 -13.033970447607079 0 1 0 I I #
point $-1 -22.977745313471409 -27.442802962001519 -13.033970447607079 #
coedge $-1 $409 $322 $325 $423 reversed $310 $-1 #
straight-curve $-1 -22.977745313471409 -27.442802962001522 0 0 0 -1 I I #
edge $-1 $468 -7.999907142443881 $327 7.9999071424438846 $421 $473 forward 7 unknown #
point $-1 -22.977745313471409 -27.442802962001519 13.033970447607079 #
straight-curve $-1 -28.821969704179523 -35.442710104445403 13.033970447607079 0 -1 0 I I #
coedge $-1 $343 $342 $335 $427 forward $332 $-1 #
edge $-1 $428 43.361406564790755 $431 55.223159877065321 $426 $474 forward 7 unknown #
vertex $-1 $347 $475 #
straight-curve $-1 0 20.348039071512041 13.033970447607082 0 1 0 I I #
edge $-1 $431 -2.6229196517163658 $344 7.8687589551490973 $343 $476 forward 7 unknown #
vertex $-1 $430 $477 #
straight-curve $-1 0 -16.960584677635751 33.433167272751973 0 -0.80901698891910034 0.5877852598018023 I I #
point $-1 0 11.116500476577897 13.033970447607075 #
point $-1 -10.491678606865463 27.442802962001522 1.1722171353325095 #
straight-curve $-1 0 27.442802962001522 13.033970447607079 -1 0 0 I I #
vertex $-1 $350 $478 #
point $-1 -7.8933428854923733 18.636607433857865 6.2180192802152527 #
vertex $-1 $354 $479 #
point $-1 -4.7458393034327315 18.636607433857865 6.2180192802152527 #
vertex $-1 $358 $480 #
point $-1 -1.5983357213730898 18.636607433857865 6.2180192802152527 #
coedge $-1 $443 $364 $449 $481 reversed $260 $-1 #
coedge $-1 $364 $442 $367 $447 reversed $260 $-1 #
edge $-1 $445 -27.145762756059142 $372 -16.654084149193679 $371 $482 forward 7 unknown #
vertex $-1 $366 $483 #
straight-curve $-1 49.045686208685566 -3.4609534113750069 23.625110853974995 0 0.80901698891910034 -0.5877852598018023 I I #
edge $-1 $368 11.116500476577897 $451 27.442802962001522 $443 $484 forward 7 unknown #
point $-1 49.045686208685552 11.116500476577897 13.033970447607075 #
coedge $-1 $371 $370 $442 $481 forward $362 $-1 #
point $-1 38.554007601820089 27.442802962001522 1.1722171353325095 #
vertex $-1 $447 $485 #
straight-curve $-1 0 27.442802962001522 13.033970447607079 -1 0 0 I I #
vertex $-1 $378 $486 #
point $-1 41.152343323193179 18.636607433857865 6.2180192802152527 #
vertex $-1 $382 $487 #
point $-1 44.299846905252821 18.636607433857865 6.2180192802152527 #
vertex $-1 $386 $488 #
point $-1 47.447350487312463 18.636607433857865 6.2180192802152527 #
straight-curve $-1 -49.045686208685566 27.442802962001522 0 0 0 -1 I I #
straight-curve $-1 0 27.442802962001522 -13.033970447607079 1 0 0 I I #
point $-1 49.045686208685566 27.442802962001522 -13.033970447607079 #
straight-curve $-1 -49.045686208685566 0 13.033970447607079 0 -1 0 I I #
point $-1 -49.045686208685566 27.442802962001522 13.033970447607079 #
straight-curve $-1 49.045686208685566 27.442802962001522 0 0 0 -1 I I #
point $-1 -49.045686208685566 27.442802962001522 -13.033970447607079 #
edge $-1 $468 -13.033970447607079 $417 13.033970447607079 $409 $489 forward 7 unknown #
straight-curve $-1 -25.899857508825466 -43.442617246889284 -13.033970447607079 -1 0 0 I I #
vertex $-1 $423 $490 #
straight-curve $-1 -25.899857508825466 -43.442617246889284 13.033970447607079 1 0 0 I I #
point $-1 -28.821969704179523 -43.442617246889284 13.033970447607079 #
point $-1 -28.821969704179523 -43.442617246889284 -13.033970447607079 #
point $-1 -22.977745313471409 -43.442617246889284 -13.033970447607079 #
straight-curve $-1 -22.977745313471409 -35.442710104445403 13.033970447607079 0 1 0 I I #
straight-curve $-1 0 27.442802962001522 56.39537701239783 0 0 -1 I I #
point $-1 0 27.442802962001522 13.033970447607079 #
straight-curve $-1 -2.6229196517163658 27.442802962001529 1.1722171353325059 -1 0 0 I I #
point $-1 0 27.442802962001522 1.1722171353325095 #
point $-1 -8.3933428854923733 18.342714803956962 5.8135107857557022 #
point $-1 -5.2458393034327315 18.342714803956962 5.8135107857557022 #
point $-1 -2.0983357213730898 18.342714803956962 5.8135107857557022 #
edge $-1 $451 -13.033970447607079 $445 -1.1722171353325095 $442 $491 forward 7 unknown #
straight-curve $-1 21.89992345262641 27.442802962001529 1.1722171353325059 -1 0 0 I I #
point $-1 49.045686208685552 27.442802962001522 1.1722171353325095 #
straight-curve $-1 49.045686208685566 0 13.033970447607079 0 1 0 I I #
point $-1 49.045686208685566 27.442802962001522 13.033970447607079 #
point $-1 40.652343323193179 18.342714803956962 5.8135107857557022 #
point $-1 43.799846905252821 18.342714803956962 5.8135107857557022 #
point $-1 46.947350487312463 18.342714803956962 5.8135107857557022 #
straight-curve $-1 -22.977745313471409 -43.442617246889284 0 0 0 -1 I I #
point $-1 -22.977745313471409 -43.442617246889284 13.033970447607079 #
straight-curve $-1 49.045686208685566 27.442802962001522 0 0 0 -1 I I #
End-of-ACIS-data 