500 0 10 0           
7 Unknown 11 ACIS 5.0 NT 24 Fri Mar 26 20:36:53 1999 
-1 9.9999999999999995e-007 1e-010 
body $-1 $10 $-1 $11 #
body $-1 $12 $-1 $13 #
body $-1 $14 $-1 $15 #
body $-1 $16 $-1 $17 #
body $-1 $18 $-1 $19 #
body $-1 $20 $-1 $21 #
body $-1 $22 $-1 $23 #
body $-1 $24 $-1 $25 #
body $-1 $26 $-1 $27 #
body $-1 $28 $-1 $29 #
lump $-1 $-1 $30 $0 #
transform $-1 1 0 0 0 1 0 0 0 1 64.813989684743802 42.959963266917221 11.563148656541738 1 rotate no_reflect no_shear #
lump $-1 $-1 $31 $1 #
transform $-1 1 0 0 0 1 0 0 0 1 64.813989684743802 42.959963266917221 11.563148656541738 1 rotate no_reflect no_shear #
lump $-1 $-1 $32 $2 #
transform $-1 1 0 0 0 1 0 0 0 1 64.813989684743802 42.959963266917221 11.563148656541738 1 rotate no_reflect no_shear #
lump $-1 $-1 $33 $3 #
transform $-1 1 0 0 0 1 0 0 0 1 64.813989684743802 42.959963266917221 11.563148656541738 1 rotate no_reflect no_shear #
lump $-1 $-1 $34 $4 #
transform $-1 1 0 0 0 1 0 0 0 1 64.813989684743802 42.959963266917221 11.563148656541738 1 rotate no_reflect no_shear #
lump $-1 $-1 $35 $5 #
transform $-1 1 0 0 0 1 0 0 0 1 64.813989684743802 42.959963266917221 11.563148656541738 1 rotate no_reflect no_shear #
lump $-1 $-1 $36 $6 #
transform $-1 1 0 0 0 1 0 0 0 1 64.813989684743802 42.959963266917221 11.563148656541738 1 rotate no_reflect no_shear #
lump $-1 $-1 $37 $7 #
transform $-1 1 0 0 0 1 0 0 0 1 64.813989684743802 42.959963266917221 11.563148656541738 1 rotate no_reflect no_shear #
lump $-1 $-1 $38 $8 #
transform $-1 1 0 0 0 1 0 0 0 1 64.813989684743802 42.959963266917221 11.563148656541738 1 rotate no_reflect no_shear #
lump $-1 $-1 $39 $9 #
transform $-1 1 0 0 0 1 0 0 0 1 64.813989684743802 42.959963266917221 11.563148656541738 1 rotate no_reflect no_shear #
shell $-1 $-1 $-1 $40 $-1 $10 #
shell $-1 $-1 $-1 $41 $-1 $12 #
shell $-1 $-1 $-1 $42 $-1 $14 #
shell $-1 $-1 $-1 $43 $-1 $16 #
shell $-1 $-1 $-1 $44 $-1 $18 #
shell $-1 $-1 $-1 $45 $-1 $20 #
shell $-1 $-1 $-1 $46 $-1 $22 #
shell $-1 $-1 $-1 $47 $-1 $24 #
shell $-1 $-1 $-1 $48 $-1 $26 #
shell $-1 $-1 $-1 $49 $-1 $28 #
face $-1 $50 $51 $30 $-1 $52 forward single #
face $-1 $53 $54 $31 $-1 $55 forward single #
face $-1 $56 $57 $32 $-1 $58 reversed single #
face $-1 $59 $60 $33 $-1 $61 forward single #
face $-1 $62 $63 $34 $-1 $64 reversed single #
face $-1 $65 $66 $35 $-1 $67 forward single #
face $-1 $68 $69 $36 $-1 $70 reversed single #
face $-1 $71 $72 $37 $-1 $73 forward single #
face $-1 $74 $75 $38 $-1 $76 forward single #
face $-1 $77 $78 $39 $-1 $79 forward single #
face $-1 $80 $81 $30 $-1 $82 reversed single #
loop $-1 $-1 $83 $40 #
plane-surface $-1 0 0 11.563148656541738 0 0 1 1 0 0 forward_v I I I I #
face $-1 $84 $85 $31 $-1 $86 forward single #
loop $-1 $-1 $87 $41 #
plane-surface $-1 0 -42.959963266917221 0 0 1 0 0 0 1 forward_v I I I I #
face $-1 $88 $89 $32 $-1 $90 reversed single #
loop $-1 $-1 $91 $42 #
plane-surface $-1 58.416158518888977 -1.2999773342187027 191.15271243863111 0 -1 0 -0.68199836817093118 0 -0.7313536940579346 forward_v I I I I #
face $-1 $92 $93 $33 $-1 $94 forward single #
loop $-1 $95 $96 $43 #
cone-surface $-1 62.187423741447823 -6.5435961815812291 9.0179862196356542 -0.68199836817093118 0 -0.7313536940579346 0.7313536940579346 0 -0.68199836817093118 1 I I 0 1 1 forward I I I I #
face $-1 $97 $98 $34 $-1 $99 reversed single #
loop $-1 $-1 $100 $44 #
plane-surface $-1 58.416158518888977 25.406244723396405 191.15271243863111 0 -1 0 -0.68199836817093118 0 -0.7313536940579346 forward_v I I I I #
face $-1 $101 $102 $35 $-1 $103 forward single #
loop $-1 $104 $105 $45 #
cone-surface $-1 62.187423741447823 20.162625876033879 9.0179862196356542 -0.68199836817093118 0 -0.7313536940579346 0.7313536940579346 0 -0.68199836817093118 1 I I 0 1 1 forward I I I I #
face $-1 $106 $107 $36 $-1 $108 reversed single #
loop $-1 $-1 $109 $46 #
plane-surface $-1 -139.16554510111706 -29.340933572464564 107.54526987304934 0 1 0 -0.57357644374324357 0 0.81915203911291934 forward_v I I I I #
face $-1 $110 $111 $37 $-1 $112 forward single #
loop $-1 $113 $114 $47 #
cone-surface $-1 -56.383283873937962 -25.573484697636314 4.8263557902313385 0.57357644374324357 0 -0.81915203911291934 0.81915203911291934 0 0.57357644374324357 1 I I 0 1 1 forward I I I I #
face $-1 $115 $116 $38 $-1 $117 forward single #
loop $-1 $118 $119 $48 #
cone-surface $-1 -56.383283873937962 -19.92231138539394 4.8263557902313385 0.57357644374324357 0 -0.81915203911291934 0.81915203911291934 0 0.57357644374324357 1 I I 0 1 1 forward I I I I #
face $-1 $120 $121 $39 $-1 $122 forward single #
loop $-1 $123 $124 $49 #
cone-surface $-1 -56.383283873937962 -14.271138073151569 4.8263557902313385 0.57357644374324357 0 -0.81915203911291934 0.81915203911291934 0 0.57357644374324357 1 I I 0 1 1 forward I I I I #
face $-1 $125 $126 $30 $-1 $127 reversed single #
loop $-1 $-1 $128 $50 #
plane-surface $-1 0 0 -11.563148656541738 0 0 1 1 0 0 forward_v I I I I #
coedge $-1 $129 $130 $131 $132 forward $51 $-1 #
face $-1 $133 $134 $31 $-1 $135 reversed single #
loop $-1 $-1 $136 $53 #
plane-surface $-1 0 0 11.563148656541738 0 0 1 1 0 0 forward_v I I I I #
coedge $-1 $137 $138 $139 $140 forward $54 $-1 #
face $-1 $141 $142 $32 $-1 $143 reversed single #
loop $-1 $-1 $144 $56 #
plane-surface $-1 -29.989911880396704 -6.5435961815812291 96.348810873490621 0.68199836817093118 0 0.7313536940579346 0.7313536940579346 0 -0.68199836817093118 forward_v I I I I #
coedge $-1 $145 $146 $147 $148 reversed $57 $-1 #
face $-1 $-1 $149 $33 $-1 $150 forward single #
loop $-1 $151 $152 $59 #
cone-surface $-1 61.161064797045071 -6.5435961815812291 7.9173510268690031 -0.68199836817093118 0 -0.7313536940579346 0.3656768470289673 0 -0.34099918408546559 1 I I -0.70710678118654746 0.70710678118654746 0.5 forward I I I I #
loop $-1 $-1 $153 $43 #
coedge $-1 $96 $96 $154 $155 reversed $60 $-1 #
face $-1 $156 $157 $34 $-1 $158 reversed single #
loop $-1 $-1 $159 $62 #
plane-surface $-1 -29.989911880396704 20.162625876033879 96.348810873490621 0.68199836817093118 0 0.7313536940579346 0.7313536940579346 0 -0.68199836817093118 forward_v I I I I #
coedge $-1 $160 $161 $162 $163 reversed $63 $-1 #
face $-1 $-1 $164 $35 $-1 $165 forward single #
loop $-1 $166 $167 $65 #
cone-surface $-1 61.161064797045071 20.162625876033879 7.9173510268690031 -0.68199836817093118 0 -0.7313536940579346 0.3656768470289673 0 -0.34099918408546559 1 I I -0.70710678118654746 0.70710678118654746 0.5 forward I I I I #
loop $-1 $-1 $168 $45 #
coedge $-1 $105 $105 $169 $170 reversed $66 $-1 #
face $-1 $171 $172 $36 $-1 $173 reversed single #
loop $-1 $-1 $174 $68 #
plane-surface $-1 -64.813989684743817 -19.922311385393943 1.360246246446124 -0.57357644374324357 0 0.81915203911291934 0.81915203911291934 0 0.57357644374324357 forward_v I I I I #
coedge $-1 $175 $176 $177 $178 reversed $69 $-1 #
face $-1 $-1 $179 $37 $-1 $180 forward single #
loop $-1 $181 $182 $71 #
cone-surface $-1 -54.951417071308683 -25.573484697636314 2.7814381094122922 0.57357644374324357 0 -0.81915203911291934 0.40957601955645967 0 0.28678822187162178 1 I I -0.70710678118654746 0.70710678118654746 0.5 forward I I I I #
loop $-1 $-1 $183 $47 #
coedge $-1 $114 $114 $184 $185 reversed $72 $-1 #
face $-1 $-1 $186 $38 $-1 $187 forward single #
loop $-1 $188 $189 $74 #
cone-surface $-1 -54.951417071308683 -19.92231138539394 2.7814381094122922 0.57357644374324357 0 -0.81915203911291934 0.40957601955645967 0 0.28678822187162178 1 I I -0.70710678118654746 0.70710678118654746 0.5 forward I I I I #
loop $-1 $-1 $190 $48 #
coedge $-1 $119 $119 $191 $192 reversed $75 $-1 #
face $-1 $-1 $193 $39 $-1 $194 forward single #
loop $-1 $195 $196 $77 #
cone-surface $-1 -54.951417071308683 -14.271138073151569 2.7814381094122922 0.57357644374324357 0 -0.81915203911291934 0.40957601955645967 0 0.28678822187162178 1 I I -0.70710678118654746 0.70710678118654746 0.5 forward I I I I #
loop $-1 $-1 $197 $49 #
coedge $-1 $124 $124 $198 $199 reversed $78 $-1 #
face $-1 $200 $201 $30 $-1 $202 reversed single #
loop $-1 $-1 $203 $80 #
plane-surface $-1 0 -42.959963266917221 0 0 1 0 0 0 1 forward_v I I I I #
coedge $-1 $204 $205 $206 $207 forward $81 $-1 #
coedge $-1 $208 $83 $209 $210 forward $51 $-1 #
coedge $-1 $83 $208 $211 $212 forward $51 $-1 #
coedge $-1 $213 $214 $83 $132 reversed $215 $-1 #
edge $-1 $216 -42.959963266917221 $217 42.959963266917221 $131 $218 forward 7 unknown #
face $-1 $219 $220 $31 $-1 $221 reversed single #
loop $-1 $-1 $222 $84 #
plane-surface $-1 -64.813989684743802 0 0 1 0 0 0 0 -1 forward_v I I I I #
coedge $-1 $223 $224 $225 $226 forward $85 $-1 #
coedge $-1 $225 $87 $222 $227 reversed $54 $-1 #
coedge $-1 $87 $225 $228 $229 reversed $54 $-1 #
coedge $-1 $230 $231 $87 $140 reversed $220 $-1 #
edge $-1 $232 -64.813989684743802 $233 64.813989684743802 $139 $234 forward 7 unknown #
face $-1 $235 $236 $32 $-1 $237 reversed single #
loop $-1 $-1 $238 $88 #
plane-surface $-1 58.416158518888977 -11.787215028943756 191.15271243863111 0 1 0 0.68199836817093118 0 0.7313536940579346 forward_v I I I I #
coedge $-1 $239 $240 $241 $242 reversed $89 $-1 #
coedge $-1 $146 $91 $243 $244 reversed $57 $-1 #
coedge $-1 $91 $145 $239 $245 reversed $57 $-1 #
coedge $-1 $241 $246 $91 $148 forward $247 $-1 #
edge $-1 $248 -35.605910425299314 $249 -31.723498059341907 $147 $250 forward 7 unknown #
loop $-1 $-1 $154 $92 #
plane-surface $-1 -29.989911880396704 -6.5435961815812291 96.348810873490621 0.68199836817093118 0 0.7313536940579346 0.7313536940579346 0 -0.68199836817093118 forward_v I I I I #
loop $-1 $-1 $251 $59 #
coedge $-1 $152 $152 $153 $252 reversed $93 $-1 #
coedge $-1 $153 $153 $152 $252 forward $95 $-1 #
coedge $-1 $154 $154 $96 $155 forward $149 $-1 #
edge $-1 $253 0 $253 6.2831853071796004 $154 $254 forward 7 unknown #
face $-1 $255 $256 $34 $-1 $257 reversed single #
loop $-1 $-1 $258 $97 #
plane-surface $-1 58.416158518888977 14.919007028671352 191.15271243863111 0 1 0 0.68199836817093118 0 0.7313536940579346 forward_v I I I I #
coedge $-1 $259 $260 $261 $262 reversed $98 $-1 #
coedge $-1 $161 $100 $263 $264 reversed $63 $-1 #
coedge $-1 $100 $160 $259 $265 reversed $63 $-1 #
coedge $-1 $261 $266 $100 $163 forward $267 $-1 #
edge $-1 $268 -35.605910425299314 $269 -31.723498059341907 $162 $270 forward 7 unknown #
loop $-1 $-1 $169 $101 #
plane-surface $-1 -29.989911880396704 20.162625876033879 96.348810873490621 0.68199836817093118 0 0.7313536940579346 0.7313536940579346 0 -0.68199836817093118 forward_v I I I I #
loop $-1 $-1 $271 $65 #
coedge $-1 $167 $167 $168 $272 reversed $102 $-1 #
coedge $-1 $168 $168 $167 $272 forward $104 $-1 #
coedge $-1 $169 $169 $105 $170 forward $164 $-1 #
edge $-1 $273 0 $273 6.2831853071796004 $169 $274 forward 7 unknown #
face $-1 $275 $276 $36 $-1 $277 forward single #
loop $-1 $-1 $278 $106 #
plane-surface $-1 -139.16554510111706 -10.503689198323322 107.54526987304934 0 -1 0 0.57357644374324357 0 -0.81915203911291934 forward_v I I I I #
coedge $-1 $279 $280 $281 $282 reversed $107 $-1 #
coedge $-1 $176 $109 $283 $284 reversed $69 $-1 #
coedge $-1 $109 $175 $279 $285 reversed $69 $-1 #
coedge $-1 $281 $286 $109 $178 forward $276 $-1 #
edge $-1 $287 4.7687828658147282 $288 19.340037325911069 $177 $289 forward 7 unknown #
loop $-1 $-1 $184 $110 #
plane-surface $-1 -64.813989684743817 -19.922311385393943 1.360246246446124 -0.57357644374324357 0 0.81915203911291934 0.81915203911291934 0 0.57357644374324357 forward_v I I I I #
loop $-1 $-1 $290 $71 #
coedge $-1 $182 $182 $183 $291 reversed $111 $-1 #
coedge $-1 $183 $183 $182 $291 forward $113 $-1 #
coedge $-1 $184 $184 $114 $185 forward $179 $-1 #
edge $-1 $292 0 $292 6.2831853071796004 $184 $293 forward 7 unknown #
loop $-1 $-1 $191 $115 #
plane-surface $-1 -64.813989684743817 -19.922311385393943 1.360246246446124 -0.57357644374324357 0 0.81915203911291934 0.81915203911291934 0 0.57357644374324357 forward_v I I I I #
loop $-1 $-1 $294 $74 #
coedge $-1 $189 $189 $190 $295 reversed $116 $-1 #
coedge $-1 $190 $190 $189 $295 forward $118 $-1 #
coedge $-1 $191 $191 $119 $192 forward $186 $-1 #
edge $-1 $296 0 $296 6.2831853071796004 $191 $297 forward 7 unknown #
loop $-1 $-1 $198 $120 #
plane-surface $-1 -64.813989684743817 -19.922311385393943 1.360246246446124 -0.57357644374324357 0 0.81915203911291934 0.81915203911291934 0 0.57357644374324357 forward_v I I I I #
loop $-1 $-1 $298 $77 #
coedge $-1 $196 $196 $197 $299 reversed $121 $-1 #
coedge $-1 $197 $197 $196 $299 forward $123 $-1 #
coedge $-1 $198 $198 $124 $199 forward $193 $-1 #
edge $-1 $300 0 $300 6.2831853071796004 $198 $301 forward 7 unknown #
face $-1 $302 $303 $30 $-1 $304 reversed single #
loop $-1 $-1 $305 $125 #
plane-surface $-1 -64.813989684743802 0 0 1 0 0 0 0 -1 forward_v I I I I #
coedge $-1 $306 $211 $307 $308 forward $126 $-1 #
coedge $-1 $309 $128 $306 $310 forward $81 $-1 #
coedge $-1 $128 $309 $311 $312 forward $81 $-1 #
coedge $-1 $214 $213 $128 $207 reversed $215 $-1 #
edge $-1 $313 -42.959963266917221 $314 42.959963266917221 $206 $315 forward 7 unknown #
coedge $-1 $130 $129 $316 $317 forward $51 $-1 #
coedge $-1 $318 $319 $129 $210 reversed $303 $-1 #
edge $-1 $217 -64.813989684743802 $320 64.813989684743802 $209 $321 forward 7 unknown #
coedge $-1 $203 $322 $130 $212 reversed $126 $-1 #
edge $-1 $323 -64.813989684743802 $216 64.813989684743802 $211 $324 forward 7 unknown #
coedge $-1 $206 $131 $322 $325 forward $215 $-1 #
coedge $-1 $131 $206 $318 $326 reversed $215 $-1 #
loop $-1 $-1 $213 $302 #
vertex $-1 $132 $327 #
vertex $-1 $132 $328 #
straight-curve $-1 64.813989684743802 0 11.563148656541738 0 1 0 I I #
face $-1 $329 $330 $31 $-1 $331 reversed single #
loop $-1 $-1 $230 $133 #
plane-surface $-1 0 -49.769478114143553 4.6729701989784154 0 0 1 1 0 0 forward_v I I I I #
coedge $-1 $332 $333 $137 $227 forward $134 $-1 #
coedge $-1 $334 $136 $333 $335 forward $85 $-1 #
coedge $-1 $136 $334 $336 $337 forward $85 $-1 #
coedge $-1 $138 $137 $136 $226 reversed $54 $-1 #
edge $-1 $338 -64.813989684743802 $339 64.813989684743802 $136 $340 forward 7 unknown #
edge $-1 $339 -11.563148656541738 $233 -4.6729701989784154 $222 $341 forward 7 unknown #
coedge $-1 $336 $342 $138 $229 forward $343 $-1 #
edge $-1 $232 4.6729701989784154 $338 11.563148656541738 $228 $344 forward 7 unknown #
coedge $-1 $345 $139 $342 $346 forward $220 $-1 #
coedge $-1 $139 $345 $332 $347 forward $220 $-1 #
vertex $-1 $229 $348 #
vertex $-1 $227 $349 #
straight-curve $-1 0 -42.959963266917221 4.6729701989784154 -1 0 0 I I #
face $-1 $-1 $247 $32 $-1 $350 forward single #
loop $-1 $-1 $351 $141 #
plane-surface $-1 64.813989684743802 0 0 -1 0 0 0 0 1 forward_v I I I I #
coedge $-1 $352 $353 $354 $355 reversed $142 $-1 #
coedge $-1 $356 $144 $146 $245 forward $89 $-1 #
coedge $-1 $144 $356 $352 $357 forward $89 $-1 #
coedge $-1 $354 $147 $144 $242 forward $247 $-1 #
edge $-1 $249 -1.9718207565719119 $358 8.515416938153141 $241 $359 forward 7 unknown #
coedge $-1 $360 $361 $145 $244 forward $236 $-1 #
edge $-1 $362 -87.633615745110632 $248 -84.013207562773815 $243 $363 forward 7 unknown #
edge $-1 $249 124.31945027132207 $362 129.62797936948763 $146 $364 forward 7 unknown #
coedge $-1 $147 $354 $360 $365 forward $247 $-1 #
loop $-1 $-1 $354 $235 #
vertex $-1 $244 $366 #
vertex $-1 $148 $367 #
straight-curve $-1 29.208079259444489 -1.2999773342187027 11.563148656541742 -1 0 0 I I #
coedge $-1 $251 $251 $-1 $368 reversed $151 $-1 #
edge $-1 $369 0 $369 6.2831853071796004 $152 $370 forward 7 unknown #
vertex $-1 $155 $371 #
ellipse-curve $-1 62.872783501765099 -6.5435961815812291 9.752944565373328 0.68199836817093118 0 0.7313536940579346 0.7313536940579346 0 -0.68199836817093118 1 I I #
face $-1 $-1 $267 $34 $-1 $372 forward single #
loop $-1 $-1 $373 $156 #
plane-surface $-1 64.813989684743802 0 0 -1 0 0 0 0 1 forward_v I I I I #
coedge $-1 $374 $375 $376 $377 reversed $157 $-1 #
coedge $-1 $378 $159 $161 $265 forward $98 $-1 #
coedge $-1 $159 $378 $374 $379 forward $98 $-1 #
coedge $-1 $376 $162 $159 $262 forward $267 $-1 #
edge $-1 $269 -15.324931785379466 $380 -4.8376940906544128 $261 $381 forward 7 unknown #
coedge $-1 $382 $383 $160 $264 forward $256 $-1 #
edge $-1 $384 -87.633615745110632 $268 -84.013207562773815 $263 $385 forward 7 unknown #
edge $-1 $269 124.31945027132207 $384 129.62797936948763 $161 $386 forward 7 unknown #
coedge $-1 $162 $376 $382 $387 forward $267 $-1 #
loop $-1 $-1 $376 $255 #
vertex $-1 $264 $388 #
vertex $-1 $163 $389 #
straight-curve $-1 29.208079259444489 25.406244723396405 11.563148656541742 -1 0 0 I I #
coedge $-1 $271 $271 $-1 $390 reversed $166 $-1 #
edge $-1 $391 0 $391 6.2831853071796004 $167 $392 forward 7 unknown #
vertex $-1 $170 $393 #
ellipse-curve $-1 62.872783501765099 20.162625876033879 9.752944565373328 0.68199836817093118 0 0.7313536940579346 0.7313536940579346 0 -0.68199836817093118 1 I I #
face $-1 $-1 $394 $36 $-1 $395 reversed single #
loop $-1 $-1 $177 $171 #
plane-surface $-1 0 0 11.563148656541738 0 0 1 1 0 0 forward_v I I I I #
coedge $-1 $396 $397 $398 $399 reversed $172 $-1 #
coedge $-1 $400 $174 $176 $285 forward $107 $-1 #
coedge $-1 $174 $400 $396 $401 forward $107 $-1 #
coedge $-1 $398 $177 $174 $282 forward $276 $-1 #
edge $-1 $288 -19.379777879767595 $402 -0.54253350562635028 $281 $403 forward 7 unknown #
coedge $-1 $404 $405 $175 $284 forward $394 $-1 #
edge $-1 $406 -52.412388690078537 $287 -42.209486279982926 $283 $407 forward 7 unknown #
edge $-1 $288 -17.788217283663162 $406 -1.7372030585532449e-014 $176 $408 forward 7 unknown #
coedge $-1 $177 $398 $404 $409 forward $276 $-1 #
vertex $-1 $284 $410 #
vertex $-1 $178 $411 #
straight-curve $-1 -69.582772550558531 -29.340933572464564 11.563148656541735 1 0 0 I I #
coedge $-1 $290 $290 $-1 $412 reversed $181 $-1 #
edge $-1 $413 0 $413 6.2831853071796004 $182 $414 forward 7 unknown #
vertex $-1 $185 $415 #
ellipse-curve $-1 -57.528362454695632 -25.573484697636314 6.4616974514939391 -0.57357644374324357 0 0.81915203911291934 0.81915203911291934 0 0.57357644374324357 1 I I #
coedge $-1 $294 $294 $-1 $416 reversed $188 $-1 #
edge $-1 $417 0 $417 6.2831853071796004 $189 $418 forward 7 unknown #
vertex $-1 $192 $419 #
ellipse-curve $-1 -57.528362454695632 -19.92231138539394 6.4616974514939391 -0.57357644374324357 0 0.81915203911291934 0.81915203911291934 0 0.57357644374324357 1 I I #
coedge $-1 $298 $298 $-1 $420 reversed $195 $-1 #
edge $-1 $421 0 $421 6.2831853071796004 $196 $422 forward 7 unknown #
vertex $-1 $199 $423 #
ellipse-curve $-1 -57.528362454695632 -14.271138073151569 6.4616974514939391 -0.57357644374324357 0 0.81915203911291934 0.81915203911291934 0 0.57357644374324357 1 I I #
face $-1 $-1 $215 $30 $-1 $424 reversed single #
loop $-1 $-1 $318 $200 #
plane-surface $-1 0 42.959963266917221 0 0 -1 0 0 0 -1 forward_v I I I I #
coedge $-1 $425 $316 $319 $426 forward $201 $-1 #
coedge $-1 $322 $203 $204 $310 reversed $126 $-1 #
coedge $-1 $316 $425 $203 $308 reversed $201 $-1 #
edge $-1 $323 -11.563148656541738 $427 11.563148656541738 $307 $428 forward 7 unknown #
coedge $-1 $205 $204 $425 $429 forward $81 $-1 #
edge $-1 $314 -64.813989684743802 $427 64.813989684743802 $306 $430 forward 7 unknown #
coedge $-1 $319 $318 $205 $312 reversed $303 $-1 #
edge $-1 $431 -64.813989684743802 $313 64.813989684743802 $311 $432 forward 7 unknown #
vertex $-1 $207 $433 #
vertex $-1 $325 $434 #
straight-curve $-1 64.813989684743802 0 -11.563148656541738 0 -1 0 I I #
coedge $-1 $305 $307 $208 $317 reversed $201 $-1 #
edge $-1 $320 -42.959963266917221 $323 42.959963266917221 $316 $435 forward 7 unknown #
coedge $-1 $311 $209 $214 $326 forward $303 $-1 #
coedge $-1 $209 $311 $305 $426 reversed $303 $-1 #
vertex $-1 $210 $436 #
straight-curve $-1 0 42.959963266917221 11.563148656541738 -1 0 0 I I #
coedge $-1 $211 $306 $213 $325 reversed $126 $-1 #
vertex $-1 $317 $437 #
straight-curve $-1 0 -42.959963266917221 11.563148656541738 1 0 0 I I #
edge $-1 $216 -11.563148656541738 $314 11.563148656541738 $213 $438 forward 7 unknown #
edge $-1 $217 -11.563148656541738 $313 11.563148656541738 $214 $439 forward 7 unknown #
point $-1 64.813989684743802 -42.959963266917221 11.563148656541738 #
point $-1 64.813989684743802 42.959963266917221 11.563148656541738 #
face $-1 $-1 $343 $31 $-1 $440 reversed single #
loop $-1 $-1 $441 $219 #
plane-surface $-1 0 -56.578992961369885 8.1180594277600768 0 1 0 0 0 1 forward_v I I I I #
coedge $-1 $442 $222 $231 $347 reversed $134 $-1 #
coedge $-1 $222 $442 $223 $335 reversed $134 $-1 #
coedge $-1 $224 $223 $443 $444 forward $85 $-1 #
edge $-1 $339 42.959963266917221 $445 56.578992961369885 $333 $446 forward 7 unknown #
coedge $-1 $447 $228 $224 $337 reversed $343 $-1 #
edge $-1 $448 -56.578992961369885 $338 -42.959963266917221 $336 $449 forward 7 unknown #
vertex $-1 $229 $450 #
vertex $-1 $335 $451 #
straight-curve $-1 0 -42.959963266917221 11.563148656541738 -1 0 0 I I #
straight-curve $-1 -64.813989684743802 -42.959963266917221 0 0 0 -1 I I #
coedge $-1 $228 $447 $230 $346 reversed $343 $-1 #
loop $-1 $-1 $228 $329 #
straight-curve $-1 64.813989684743802 -42.959963266917221 0 0 0 1 I I #
coedge $-1 $231 $230 $452 $453 forward $220 $-1 #
edge $-1 $232 -6.8095148472263318 $454 6.8095148472263318 $342 $455 forward 7 unknown #
edge $-1 $456 -6.8095148472263318 $233 6.8095148472263318 $332 $457 forward 7 unknown #
point $-1 64.813989684743802 -42.959963266917221 4.6729701989784154 #
point $-1 -64.813989684743802 -42.959963266917221 4.6729701989784154 #
plane-surface $-1 0 0 11.563148656541738 0 0 1 1 0 0 forward_v I I I I #
coedge $-1 $361 $360 $353 $458 forward $236 $-1 #
coedge $-1 $353 $238 $240 $357 reversed $142 $-1 #
coedge $-1 $238 $352 $351 $458 reversed $142 $-1 #
coedge $-1 $246 $241 $238 $355 forward $247 $-1 #
edge $-1 $358 31.723498059341907 $459 35.605910425299314 $354 $460 forward 7 unknown #
coedge $-1 $240 $239 $361 $461 reversed $89 $-1 #
edge $-1 $462 -129.62797936948763 $358 -124.31945027132207 $352 $463 forward 7 unknown #
vertex $-1 $242 $464 #
straight-curve $-1 60.931577318786395 -3.2717980907906146 11.563148656541742 0 -1 0 I I #
coedge $-1 $351 $243 $246 $365 reversed $236 $-1 #
coedge $-1 $243 $351 $356 $461 forward $236 $-1 #
vertex $-1 $244 $465 #
straight-curve $-1 64.813989684743802 -1.2999773342187027 95.576356219315556 0 0 1 I I #
straight-curve $-1 -29.989911880396704 -1.2999773342187027 96.348810873490621 0.7313536940579346 0 -0.68199836817093118 I I #
edge $-1 $459 -11.787215028943756 $248 -1.2999773342187027 $360 $466 forward 7 unknown #
point $-1 64.813989684743802 -1.2999773342187027 11.563148656541738 #
point $-1 60.931577318786395 -1.2999773342187027 11.563148656541742 #
edge $-1 $467 1 $467 0 $251 $-1 forward 7 unknown #
vertex $-1 $252 $468 #
ellipse-curve $-1 61.50206398113054 -6.5435961815812291 8.2830278738979697 0.68199836817093118 0 0.7313536940579346 0.7313536940579346 0 -0.68199836817093118 1 I I #
point $-1 63.604137195823043 -6.5435961815812291 9.0709461972024066 #
plane-surface $-1 0 0 11.563148656541738 0 0 1 1 0 0 forward_v I I I I #
coedge $-1 $383 $382 $375 $469 forward $256 $-1 #
coedge $-1 $375 $258 $260 $379 reversed $157 $-1 #
coedge $-1 $258 $374 $373 $469 reversed $157 $-1 #
coedge $-1 $266 $261 $258 $377 forward $267 $-1 #
edge $-1 $380 31.723498059341907 $470 35.605910425299314 $376 $471 forward 7 unknown #
coedge $-1 $260 $259 $383 $472 reversed $98 $-1 #
edge $-1 $473 -129.62797936948763 $380 -124.31945027132207 $374 $474 forward 7 unknown #
vertex $-1 $262 $475 #
straight-curve $-1 60.931577318786395 10.081312938016939 11.563148656541742 0 -1 0 I I #
coedge $-1 $373 $263 $266 $387 reversed $256 $-1 #
coedge $-1 $263 $373 $378 $472 forward $256 $-1 #
vertex $-1 $264 $476 #
straight-curve $-1 64.813989684743802 25.406244723396405 95.576356219315556 0 0 1 I I #
straight-curve $-1 -29.989911880396704 25.406244723396405 96.348810873490621 0.7313536940579346 0 -0.68199836817093118 I I #
edge $-1 $470 14.919007028671352 $268 25.406244723396405 $382 $477 forward 7 unknown #
point $-1 64.813989684743802 25.406244723396405 11.563148656541738 #
point $-1 60.931577318786395 25.406244723396405 11.563148656541742 #
edge $-1 $478 1 $478 0 $271 $-1 forward 7 unknown #
vertex $-1 $272 $479 #
ellipse-curve $-1 61.50206398113054 20.162625876033879 8.2830278738979697 0.68199836817093118 0 0.7313536940579346 0.7313536940579346 0 -0.68199836817093118 1 I I #
point $-1 63.604137195823043 20.162625876033879 9.0709461972024066 #
loop $-1 $-1 $283 $275 #
plane-surface $-1 -64.813989684743802 0 0 1 0 0 0 0 -1 forward_v I I I I #
coedge $-1 $397 $278 $280 $401 reversed $172 $-1 #
coedge $-1 $278 $396 $480 $481 reversed $172 $-1 #
coedge $-1 $286 $281 $278 $399 forward $276 $-1 #
edge $-1 $402 -19.340037325911069 $482 -4.7687828658147282 $398 $483 forward 7 unknown #
coedge $-1 $280 $279 $405 $484 reversed $107 $-1 #
edge $-1 $485 1.7372030585532449e-014 $402 17.788217283663162 $396 $486 forward 7 unknown #
vertex $-1 $282 $487 #
straight-curve $-1 -50.242735224647461 -9.9611556926969715 11.563148656541738 0 1 0 I I #
coedge $-1 $480 $283 $286 $409 reversed $394 $-1 #
coedge $-1 $283 $480 $400 $484 forward $394 $-1 #
vertex $-1 $284 $488 #
straight-curve $-1 -64.813989684743802 -29.340933572464564 53.772634936524668 0 0 1 I I #
straight-curve $-1 -64.813989684743817 -29.340933572464564 1.360246246446124 -0.81915203911291934 0 -0.57357644374324357 I I #
edge $-1 $482 10.503689198323322 $287 29.340933572464564 $404 $489 forward 7 unknown #
point $-1 -64.813989684743802 -29.340933572464564 11.563148656541738 #
point $-1 -50.242735224647461 -29.340933572464564 11.563148656541738 #
edge $-1 $490 1 $490 0 $290 $-1 forward 7 unknown #
vertex $-1 $291 $491 #
ellipse-curve $-1 -55.238205293180307 -25.573484697636314 3.1910141289687517 -0.57357644374324357 0 0.81915203911291934 0.81915203911291934 0 0.57357644374324357 1 I I #
point $-1 -56.709210415582703 -25.573484697636314 7.035273895237169 #
edge $-1 $492 1 $492 0 $294 $-1 forward 7 unknown #
vertex $-1 $295 $493 #
ellipse-curve $-1 -55.238205293180307 -19.92231138539394 3.1910141289687517 -0.57357644374324357 0 0.81915203911291934 0.81915203911291934 0 0.57357644374324357 1 I I #
point $-1 -56.709210415582703 -19.92231138539394 7.035273895237169 #
edge $-1 $494 1 $494 0 $298 $-1 forward 7 unknown #
vertex $-1 $299 $495 #
ellipse-curve $-1 -55.238205293180307 -14.271138073151569 3.1910141289687517 -0.57357644374324357 0 0.81915203911291934 0.81915203911291934 0 0.57357644374324357 1 I I #
point $-1 -56.709210415582703 -14.271138073151569 7.035273895237169 #
plane-surface $-1 64.813989684743802 0 0 -1 0 0 0 0 1 forward_v I I I I #
coedge $-1 $307 $305 $309 $429 reversed $201 $-1 #
edge $-1 $320 -11.563148656541738 $431 11.563148656541738 $319 $496 forward 7 unknown #
vertex $-1 $429 $497 #
straight-curve $-1 -64.813989684743802 -42.959963266917221 0 0 0 -1 I I #
edge $-1 $427 -42.959963266917221 $431 42.959963266917221 $425 $498 forward 7 unknown #
straight-curve $-1 0 -42.959963266917221 -11.563148656541738 -1 0 0 I I #
vertex $-1 $312 $499 #
straight-curve $-1 0 42.959963266917221 -11.563148656541738 1 0 0 I I #
point $-1 64.813989684743802 42.959963266917221 -11.563148656541738 #
point $-1 64.813989684743802 -42.959963266917221 -11.563148656541738 #
straight-curve $-1 -64.813989684743802 0 11.563148656541738 0 -1 0 I I #
point $-1 -64.813989684743802 42.959963266917221 11.563148656541738 #
point $-1 -64.813989684743802 -42.959963266917221 11.563148656541738 #
straight-curve $-1 64.813989684743802 -42.959963266917221 0 0 0 -1 I I #
straight-curve $-1 64.813989684743802 42.959963266917221 0 0 0 -1 I I #
plane-surface $-1 64.813989684743802 0 0 -1 0 0 0 0 1 forward_v I I I I #
coedge $-1 $452 $443 $442 $500 forward $330 $-1 #
coedge $-1 $333 $332 $441 $500 reversed $134 $-1 #
coedge $-1 $441 $501 $334 $444 reversed $330 $-1 #
edge $-1 $445 -64.813989684743802 $448 64.813989684743802 $443 $502 forward 7 unknown #
vertex $-1 $335 $503 #
straight-curve $-1 -64.813989684743802 0 11.563148656541738 0 -1 0 I I #
coedge $-1 $342 $336 $501 $504 forward $343 $-1 #
vertex $-1 $337 $505 #
straight-curve $-1 64.813989684743802 0 11.563148656541738 0 1 0 I I #
point $-1 64.813989684743802 -42.959963266917221 11.563148656541738 #
point $-1 -64.813989684743802 -42.959963266917221 11.563148656541738 #
coedge $-1 $501 $441 $345 $453 reversed $330 $-1 #
edge $-1 $454 -64.813989684743802 $456 64.813989684743802 $452 $506 forward 7 unknown #
vertex $-1 $504 $507 #
straight-curve $-1 64.813989684743802 -49.769478114143553 4.6729701989784154 0 -1 0 I I #
vertex $-1 $347 $508 #
straight-curve $-1 -64.813989684743802 -49.769478114143553 4.6729701989784154 0 1 0 I I #
edge $-1 $459 84.013207562773815 $462 87.633615745110632 $351 $509 forward 7 unknown #
vertex $-1 $365 $510 #
straight-curve $-1 29.208079259444489 -11.787215028943756 11.563148656541742 1 0 0 I I #
edge $-1 $462 -8.515416938153141 $362 1.9718207565719119 $361 $511 forward 7 unknown #
vertex $-1 $461 $512 #
straight-curve $-1 -29.989911880396704 -11.787215028943756 96.348810873490621 -0.7313536940579346 0 0.68199836817093118 I I #
point $-1 60.931577318786395 -11.787215028943756 11.563148656541742 #
point $-1 64.813989684743817 -1.2999773342187027 7.9427404742049248 #
straight-curve $-1 64.813989684743802 0 11.563148656541738 0 1 0 I I #
vertex $-1 $368 $513 #
point $-1 62.23341767518847 -6.5435961815812291 7.6010295057270394 #
edge $-1 $470 84.013207562773815 $473 87.633615745110632 $373 $514 forward 7 unknown #
vertex $-1 $387 $515 #
straight-curve $-1 29.208079259444489 14.919007028671352 11.563148656541742 1 0 0 I I #
edge $-1 $473 4.8376940906544128 $384 15.324931785379466 $383 $516 forward 7 unknown #
vertex $-1 $472 $517 #
straight-curve $-1 -29.989911880396704 14.919007028671352 96.348810873490621 -0.7313536940579346 0 0.68199836817093118 I I #
point $-1 60.931577318786395 14.919007028671352 11.563148656541742 #
point $-1 64.813989684743817 25.406244723396405 7.9427404742049248 #
straight-curve $-1 64.813989684743802 0 11.563148656541738 0 1 0 I I #
vertex $-1 $390 $518 #
point $-1 62.23341767518847 20.162625876033879 7.6010295057270394 #
coedge $-1 $405 $404 $397 $481 forward $394 $-1 #
edge $-1 $482 42.209486279982926 $485 52.412388690078537 $480 $519 forward 7 unknown #
vertex $-1 $409 $520 #
straight-curve $-1 -69.582772550558531 -10.503689198323322 11.563148656541735 -1 0 0 I I #
edge $-1 $485 0.54253350562635028 $406 19.379777879767595 $405 $521 forward 7 unknown #
vertex $-1 $484 $522 #
straight-curve $-1 -64.813989684743817 -10.503689198323322 1.360246246446124 0.81915203911291934 0 0.57357644374324357 I I #
point $-1 -50.242735224647461 -10.503689198323322 11.563148656541738 #
point $-1 -64.813989684743802 -29.340933572464564 1.360246246446134 #
straight-curve $-1 -64.813989684743802 0 11.563148656541738 0 -1 0 I I #
vertex $-1 $412 $523 #
point $-1 -54.419053254067386 -25.573484697636314 3.7645905727119953 #
vertex $-1 $416 $524 #
point $-1 -54.419053254067386 -19.92231138539394 3.7645905727119953 #
vertex $-1 $420 $525 #
point $-1 -54.419053254067386 -14.271138073151569 3.7645905727119953 #
straight-curve $-1 -64.813989684743802 42.959963266917221 0 0 0 -1 I I #
point $-1 -64.813989684743802 -42.959963266917221 -11.563148656541738 #
straight-curve $-1 -64.813989684743802 0 -11.563148656541738 0 1 0 I I #
point $-1 -64.813989684743802 42.959963266917221 -11.563148656541738 #
edge $-1 $445 -3.4450892287816615 $456 3.4450892287816615 $442 $526 forward 7 unknown #
coedge $-1 $443 $452 $447 $504 reversed $330 $-1 #
straight-curve $-1 0 -56.578992961369885 11.563148656541738 1 0 0 I I #
point $-1 -64.813989684743802 -56.578992961369885 11.563148656541738 #
edge $-1 $448 -3.4450892287816615 $454 3.4450892287816615 $447 $527 forward 7 unknown #
point $-1 64.813989684743802 -56.578992961369885 11.563148656541738 #
straight-curve $-1 0 -56.578992961369885 4.6729701989784154 -1 0 0 I I #
point $-1 64.813989684743802 -56.578992961369885 4.6729701989784154 #
point $-1 -64.813989684743802 -56.578992961369885 4.6729701989784154 #
straight-curve $-1 64.813989684743802 -11.787215028943756 95.576356219315556 0 0 -1 I I #
point $-1 64.813989684743802 -11.787215028943756 11.563148656541738 #
straight-curve $-1 64.813989684743802 -3.2717980907906146 7.9427404742049319 0 1 0 I I #
point $-1 64.813989684743817 -11.787215028943756 7.9427404742049248 #
point $-1 60.820065612959603 -6.5435961815812291 7.5516741798400355 #
straight-curve $-1 64.813989684743802 14.919007028671352 95.576356219315556 0 0 -1 I I #
point $-1 64.813989684743802 14.919007028671352 11.563148656541738 #
straight-curve $-1 64.813989684743802 10.081312938016939 7.9427404742049319 0 1 0 I I #
point $-1 64.813989684743817 14.919007028671352 7.9427404742049248 #
point $-1 60.820065612959603 20.162625876033879 7.5516741798400355 #
straight-curve $-1 -64.813989684743802 -10.503689198323322 53.772634936524668 0 0 -1 I I #
point $-1 -64.813989684743802 -10.503689198323322 11.563148656541738 #
straight-curve $-1 -64.813989684743802 -9.9611556926969715 1.3602462464461245 0 -1 0 I I #
point $-1 -64.813989684743802 -10.503689198323322 1.360246246446134 #
point $-1 -54.664628849437058 -25.573484697636314 2.3718620898558327 #
point $-1 -54.664628849437058 -19.92231138539394 2.3718620898558327 #
point $-1 -54.664628849437058 -14.271138073151569 2.3718620898558327 #
straight-curve $-1 -64.813989684743802 -56.578992961369885 8.1180594277600768 0 0 -1 I I #
straight-curve $-1 64.813989684743802 -56.578992961369885 8.1180594277600768 0 0 -1 I I #
End-of-ACIS-data 