500 0 10 0           
7 Unknown 11 ACIS 5.0 NT 24 Thu Mar 25 23:18:05 1999 
-1 9.9999999999999995e-007 1e-010 
body $-1 $10 $-1 $11 #
body $-1 $12 $-1 $13 #
body $-1 $14 $-1 $15 #
body $-1 $16 $-1 $17 #
body $-1 $18 $-1 $19 #
body $-1 $20 $-1 $21 #
body $-1 $22 $-1 $23 #
body $-1 $24 $-1 $25 #
body $-1 $26 $-1 $27 #
body $-1 $28 $-1 $29 #
lump $-1 $-1 $30 $0 #
transform $-1 1 0 0 0 1 0 0 0 1 44.151738029114661 23.23548038416261 10.197955688612256 1 rotate no_reflect no_shear #
lump $-1 $-1 $31 $1 #
transform $-1 1 0 0 0 1 0 0 0 1 44.151738029114661 23.23548038416261 10.197955688612256 1 rotate no_reflect no_shear #
lump $-1 $-1 $32 $2 #
transform $-1 1 0 0 0 1 0 0 0 1 44.151738029114661 23.23548038416261 10.197955688612256 1 rotate no_reflect no_shear #
lump $-1 $-1 $33 $3 #
transform $-1 1 0 0 0 1 0 0 0 1 44.151738029114661 23.23548038416261 10.197955688612256 1 rotate no_reflect no_shear #
lump $-1 $-1 $34 $4 #
transform $-1 1 0 0 0 1 0 0 0 1 44.151738029114661 23.23548038416261 10.197955688612256 1 rotate no_reflect no_shear #
lump $-1 $-1 $35 $5 #
transform $-1 1 0 0 0 1 0 0 0 1 44.151738029114661 23.23548038416261 10.197955688612256 1 rotate no_reflect no_shear #
lump $-1 $-1 $36 $6 #
transform $-1 1 0 0 0 1 0 0 0 1 44.151738029114661 23.23548038416261 10.197955688612256 1 rotate no_reflect no_shear #
lump $-1 $-1 $37 $7 #
transform $-1 1 0 0 0 1 0 0 0 1 44.151738029114661 23.23548038416261 10.197955688612256 1 rotate no_reflect no_shear #
lump $-1 $-1 $38 $8 #
transform $-1 1 0 0 0 1 0 0 0 1 44.151738029114661 23.23548038416261 10.197955688612256 1 rotate no_reflect no_shear #
lump $-1 $-1 $39 $9 #
transform $-1 1 0 0 0 1 0 0 0 1 44.151738029114661 23.23548038416261 10.197955688612256 1 rotate no_reflect no_shear #
shell $-1 $-1 $-1 $40 $-1 $10 #
shell $-1 $-1 $-1 $41 $-1 $12 #
shell $-1 $-1 $-1 $42 $-1 $14 #
shell $-1 $-1 $-1 $43 $-1 $16 #
shell $-1 $-1 $-1 $44 $-1 $18 #
shell $-1 $-1 $-1 $45 $-1 $20 #
shell $-1 $-1 $-1 $46 $-1 $22 #
shell $-1 $-1 $-1 $47 $-1 $24 #
shell $-1 $-1 $-1 $48 $-1 $26 #
shell $-1 $-1 $-1 $49 $-1 $28 #
face $-1 $50 $51 $30 $-1 $52 forward single #
face $-1 $53 $54 $31 $-1 $55 reversed single #
face $-1 $56 $57 $32 $-1 $58 forward single #
face $-1 $59 $60 $33 $-1 $61 forward single #
face $-1 $62 $63 $34 $-1 $64 reversed single #
face $-1 $65 $66 $35 $-1 $67 forward single #
face $-1 $68 $69 $36 $-1 $70 forward single #
face $-1 $71 $72 $37 $-1 $73 reversed single #
face $-1 $74 $75 $38 $-1 $76 forward single #
face $-1 $77 $78 $39 $-1 $79 forward single #
face $-1 $80 $81 $30 $-1 $82 reversed single #
loop $-1 $-1 $83 $40 #
plane-surface $-1 0 0 10.197955688612256 0 0 1 1 0 0 forward_v I I I I #
face $-1 $84 $85 $31 $-1 $86 reversed single #
loop $-1 $-1 $87 $41 #
plane-surface $-1 18.305313012272368 42.691939966192464 99.545022931224665 1 0 0 0 -0.62932039886446345 -0.77714595512881146 forward_v I I I I #
face $-1 $88 $89 $32 $-1 $90 forward single #
loop $-1 $91 $92 $42 #
cone-surface $-1 25.690005874227303 14.661484889916217 1.8470500599416111 0 -0.62932039886446345 -0.77714595512881146 3 0 0 1 I I 0 1 3 forward I I I I #
face $-1 $93 $94 $33 $-1 $95 forward single #
loop $-1 $96 $97 $43 #
cone-surface $-1 36.767045167159715 14.661484889916217 1.8470500599416111 0 -0.62932039886446345 -0.77714595512881146 3 0 0 1 I I 0 1 3 forward I I I I #
face $-1 $98 $99 $34 $-1 $100 reversed single #
loop $-1 $-1 $101 $44 #
plane-surface $-1 -28.535789015979681 -81.167773847913523 70.400509777371198 -1 0 0 0 -0.6560590369687036 0.75470957328743171 forward_v I I I I #
face $-1 $102 $103 $35 $-1 $104 forward single #
loop $-1 $105 $106 $45 #
cone-surface $-1 -37.450775431804843 -18.459117833403646 5.7447073961515169 0 0.6560590369687036 -0.75470957328743171 1 0 0 1 I I 0 1 1 forward I I I I #
face $-1 $107 $108 $36 $-1 $109 forward single #
loop $-1 $110 $111 $46 #
cone-surface $-1 -32.10178358230975 -18.459117833403646 5.7447073961515169 0 0.6560590369687036 -0.75470957328743171 1 0 0 1 I I 0 1 1 forward I I I I #
face $-1 $112 $113 $37 $-1 $114 reversed single #
loop $-1 $-1 $115 $47 #
plane-surface $-1 41.016769998134905 -81.167773847913523 70.400509777371198 -1 0 0 0 -0.6560590369687036 0.75470957328743171 forward_v I I I I #
face $-1 $116 $117 $38 $-1 $118 forward single #
loop $-1 $119 $120 $48 #
cone-surface $-1 32.101783582309743 -18.459117833403646 5.7447073961515169 0 0.6560590369687036 -0.75470957328743171 1 0 0 1 I I 0 1 1 forward I I I I #
face $-1 $121 $122 $39 $-1 $123 forward single #
loop $-1 $124 $125 $49 #
cone-surface $-1 37.45077543180485 -18.459117833403646 5.7447073961515169 0 0.6560590369687036 -0.75470957328743171 1 0 0 1 I I 0 1 1 forward I I I I #
face $-1 $126 $127 $30 $-1 $128 reversed single #
loop $-1 $-1 $129 $50 #
plane-surface $-1 0 0 -10.197955688612256 0 0 1 1 0 0 forward_v I I I I #
coedge $-1 $130 $131 $132 $133 forward $51 $-1 #
face $-1 $134 $135 $31 $-1 $136 forward single #
loop $-1 $-1 $137 $53 #
plane-surface $-1 31.228525520693516 -12.879238807891014 30.920333688757907 0 0.62932039886446345 0.77714595512881146 1 0 0 forward_v I I I I #
coedge $-1 $138 $139 $140 $141 reversed $54 $-1 #
face $-1 $-1 $142 $32 $-1 $143 forward single #
loop $-1 $144 $145 $56 #
cone-surface $-1 25.690005874227303 10.405865821957921 -3.4082017183264437 0 -0.62932039886446345 -0.77714595512881146 1.5 0 0 1 I I -0.70710678118654757 0.70710678118654757 1.5 forward I I I I #
loop $-1 $-1 $146 $42 #
coedge $-1 $92 $92 $147 $148 reversed $57 $-1 #
face $-1 $-1 $149 $33 $-1 $150 forward single #
loop $-1 $151 $152 $59 #
cone-surface $-1 36.767045167159715 10.405865821957921 -3.4082017183264437 0 -0.62932039886446345 -0.77714595512881146 1.5 0 0 1 I I -0.70710678118654757 0.70710678118654757 1.5 forward I I I I #
loop $-1 $-1 $153 $43 #
coedge $-1 $97 $97 $154 $155 reversed $60 $-1 #
face $-1 $156 $157 $34 $-1 $158 reversed single #
loop $-1 $-1 $159 $62 #
plane-surface $-1 -34.776279507057296 -23.235480384162621 3.7570310416680002 0 -0.6560590369687036 0.75470957328743171 1 0 0 forward_v I I I I #
coedge $-1 $160 $161 $162 $163 reversed $63 $-1 #
face $-1 $-1 $164 $35 $-1 $165 forward single #
loop $-1 $166 $167 $65 #
cone-surface $-1 -37.450775431804843 -17.059443798631737 4.1345666405191892 0 0.6560590369687036 -0.75470957328743171 0.5 0 0 1 I I -0.70710678118654746 0.70710678118654746 0.5 forward I I I I #
loop $-1 $-1 $168 $45 #
coedge $-1 $106 $106 $169 $170 reversed $66 $-1 #
face $-1 $-1 $171 $36 $-1 $172 forward single #
loop $-1 $173 $174 $68 #
cone-surface $-1 -32.10178358230975 -17.059443798631737 4.1345666405191892 0 0.6560590369687036 -0.75470957328743171 0.5 0 0 1 I I -0.70710678118654746 0.70710678118654746 0.5 forward I I I I #
loop $-1 $-1 $175 $46 #
coedge $-1 $111 $111 $176 $177 reversed $69 $-1 #
face $-1 $178 $179 $37 $-1 $180 reversed single #
loop $-1 $-1 $181 $71 #
plane-surface $-1 34.776279507057289 -23.235480384162621 3.7570310416680002 0 -0.6560590369687036 0.75470957328743171 1 0 0 forward_v I I I I #
coedge $-1 $182 $183 $184 $185 reversed $72 $-1 #
face $-1 $-1 $186 $38 $-1 $187 forward single #
loop $-1 $188 $189 $74 #
cone-surface $-1 32.101783582309743 -17.059443798631737 4.1345666405191892 0 0.6560590369687036 -0.75470957328743171 0.5 0 0 1 I I -0.70710678118654746 0.70710678118654746 0.5 forward I I I I #
loop $-1 $-1 $190 $48 #
coedge $-1 $120 $120 $191 $192 reversed $75 $-1 #
face $-1 $-1 $193 $39 $-1 $194 forward single #
loop $-1 $195 $196 $77 #
cone-surface $-1 37.45077543180485 -17.059443798631737 4.1345666405191892 0 0.6560590369687036 -0.75470957328743171 0.5 0 0 1 I I -0.70710678118654746 0.70710678118654746 0.5 forward I I I I #
loop $-1 $-1 $197 $49 #
coedge $-1 $125 $125 $198 $199 reversed $78 $-1 #
face $-1 $200 $201 $30 $-1 $202 reversed single #
loop $-1 $-1 $203 $80 #
plane-surface $-1 0 -23.23548038416261 0 0 1 0 0 0 1 forward_v I I I I #
coedge $-1 $204 $205 $206 $207 forward $81 $-1 #
coedge $-1 $208 $83 $209 $210 forward $51 $-1 #
coedge $-1 $83 $208 $211 $212 forward $51 $-1 #
coedge $-1 $213 $214 $83 $133 reversed $215 $-1 #
edge $-1 $216 -23.23548038416261 $217 23.23548038416261 $132 $218 forward 7 unknown #
face $-1 $219 $220 $31 $-1 $221 reversed single #
loop $-1 $-1 $140 $84 #
plane-surface $-1 0 0 10.197955688612256 0 0 1 1 0 0 forward_v I I I I #
coedge $-1 $222 $223 $224 $225 reversed $85 $-1 #
coedge $-1 $139 $87 $226 $227 reversed $54 $-1 #
coedge $-1 $87 $138 $222 $228 reversed $54 $-1 #
coedge $-1 $224 $229 $87 $141 forward $135 $-1 #
edge $-1 $230 -1.8895104010663779 $231 8.6352036481031931 $140 $232 forward 7 unknown #
loop $-1 $-1 $147 $88 #
plane-surface $-1 31.228525520693516 -12.879238807891014 30.920333688757907 0 0.62932039886446345 0.77714595512881146 1 0 0 forward_v I I I I #
loop $-1 $-1 $233 $56 #
coedge $-1 $145 $145 $146 $234 reversed $89 $-1 #
coedge $-1 $146 $146 $145 $234 forward $91 $-1 #
coedge $-1 $147 $147 $92 $148 forward $142 $-1 #
edge $-1 $235 1.9757190629344706e-016 $235 6.2831853071796004 $147 $236 forward 7 unknown #
loop $-1 $-1 $154 $93 #
plane-surface $-1 31.228525520693516 -12.879238807891014 30.920333688757907 0 0.62932039886446345 0.77714595512881146 1 0 0 forward_v I I I I #
loop $-1 $-1 $237 $59 #
coedge $-1 $152 $152 $153 $238 reversed $94 $-1 #
coedge $-1 $153 $153 $152 $238 forward $96 $-1 #
coedge $-1 $154 $154 $97 $155 forward $149 $-1 #
edge $-1 $239 1.9757190629344706e-016 $239 6.2831853071796004 $154 $240 forward 7 unknown #
face $-1 $241 $242 $34 $-1 $243 reversed single #
loop $-1 $-1 $244 $98 #
plane-surface $-1 -41.016769998134912 -81.167773847913523 70.400509777371198 1 0 0 0 0.6560590369687036 -0.75470957328743171 forward_v I I I I #
coedge $-1 $245 $246 $247 $248 reversed $99 $-1 #
coedge $-1 $161 $101 $249 $250 reversed $63 $-1 #
coedge $-1 $101 $160 $245 $251 reversed $63 $-1 #
coedge $-1 $247 $252 $101 $163 forward $253 $-1 #
edge $-1 $254 17.348406539794151 $255 24.757842608736958 $162 $256 forward 7 unknown #
loop $-1 $-1 $169 $102 #
plane-surface $-1 -34.776279507057296 -23.235480384162621 3.7570310416680002 0 -0.6560590369687036 0.75470957328743171 1 0 0 forward_v I I I I #
loop $-1 $-1 $257 $65 #
coedge $-1 $167 $167 $168 $258 reversed $103 $-1 #
coedge $-1 $168 $168 $167 $258 forward $105 $-1 #
coedge $-1 $169 $169 $106 $170 forward $164 $-1 #
edge $-1 $259 -2.3222036888429843e-016 $259 6.2831853071796004 $169 $260 forward 7 unknown #
loop $-1 $-1 $176 $107 #
plane-surface $-1 -34.776279507057296 -23.235480384162621 3.7570310416680002 0 -0.6560590369687036 0.75470957328743171 1 0 0 forward_v I I I I #
loop $-1 $-1 $261 $68 #
coedge $-1 $174 $174 $175 $262 reversed $108 $-1 #
coedge $-1 $175 $175 $174 $262 forward $110 $-1 #
coedge $-1 $176 $176 $111 $177 forward $171 $-1 #
edge $-1 $263 -2.3222036888429843e-016 $263 6.2831853071796004 $176 $264 forward 7 unknown #
face $-1 $265 $266 $37 $-1 $267 reversed single #
loop $-1 $-1 $268 $112 #
plane-surface $-1 28.535789015979674 -81.167773847913523 70.400509777371198 1 0 0 0 0.6560590369687036 -0.75470957328743171 forward_v I I I I #
coedge $-1 $269 $270 $271 $272 reversed $113 $-1 #
coedge $-1 $183 $115 $273 $274 reversed $72 $-1 #
coedge $-1 $115 $182 $269 $275 reversed $72 $-1 #
coedge $-1 $271 $276 $115 $185 forward $277 $-1 #
edge $-1 $278 17.348406539794151 $279 24.757842608736958 $184 $280 forward 7 unknown #
loop $-1 $-1 $191 $116 #
plane-surface $-1 34.776279507057289 -23.235480384162621 3.7570310416680002 0 -0.6560590369687036 0.75470957328743171 1 0 0 forward_v I I I I #
loop $-1 $-1 $281 $74 #
coedge $-1 $189 $189 $190 $282 reversed $117 $-1 #
coedge $-1 $190 $190 $189 $282 forward $119 $-1 #
coedge $-1 $191 $191 $120 $192 forward $186 $-1 #
edge $-1 $283 -2.3222036888429843e-016 $283 6.2831853071796004 $191 $284 forward 7 unknown #
loop $-1 $-1 $198 $121 #
plane-surface $-1 34.776279507057289 -23.235480384162621 3.7570310416680002 0 -0.6560590369687036 0.75470957328743171 1 0 0 forward_v I I I I #
loop $-1 $-1 $285 $77 #
coedge $-1 $196 $196 $197 $286 reversed $122 $-1 #
coedge $-1 $197 $197 $196 $286 forward $124 $-1 #
coedge $-1 $198 $198 $125 $199 forward $193 $-1 #
edge $-1 $287 -2.3222036888429843e-016 $287 6.2831853071796004 $198 $288 forward 7 unknown #
face $-1 $289 $290 $30 $-1 $291 reversed single #
loop $-1 $-1 $292 $126 #
plane-surface $-1 -44.151738029114661 0 0 1 0 0 0 0 -1 forward_v I I I I #
coedge $-1 $293 $211 $294 $295 forward $127 $-1 #
coedge $-1 $296 $129 $293 $297 forward $81 $-1 #
coedge $-1 $129 $296 $298 $299 forward $81 $-1 #
coedge $-1 $214 $213 $129 $207 reversed $215 $-1 #
edge $-1 $300 -23.23548038416261 $301 23.23548038416261 $206 $302 forward 7 unknown #
coedge $-1 $131 $130 $303 $304 forward $51 $-1 #
coedge $-1 $305 $306 $130 $210 reversed $290 $-1 #
edge $-1 $217 -44.151738029114661 $307 44.151738029114661 $209 $308 forward 7 unknown #
coedge $-1 $203 $309 $131 $212 reversed $127 $-1 #
edge $-1 $310 -44.151738029114661 $216 44.151738029114661 $211 $311 forward 7 unknown #
coedge $-1 $206 $132 $309 $312 forward $215 $-1 #
coedge $-1 $132 $206 $305 $313 reversed $215 $-1 #
loop $-1 $-1 $213 $289 #
vertex $-1 $133 $314 #
vertex $-1 $133 $315 #
straight-curve $-1 44.151738029114661 0 10.197955688612256 0 1 0 I I #
face $-1 $-1 $316 $31 $-1 $317 reversed single #
loop $-1 $-1 $226 $134 #
plane-surface $-1 0 23.23548038416261 0 0 -1 0 0 0 -1 forward_v I I I I #
coedge $-1 $318 $137 $139 $228 forward $85 $-1 #
coedge $-1 $137 $318 $319 $320 reversed $85 $-1 #
coedge $-1 $321 $140 $137 $225 forward $135 $-1 #
edge $-1 $231 2.6910502519256099 $322 28.53747526876791 $224 $323 forward 7 unknown #
coedge $-1 $324 $325 $138 $227 forward $220 $-1 #
edge $-1 $326 -48.097301343191688 $230 -39.574555777000079 $226 $327 forward 7 unknown #
edge $-1 $231 32.928184176989667 $326 46.470960768325213 $139 $328 forward 7 unknown #
coedge $-1 $140 $321 $324 $329 forward $135 $-1 #
vertex $-1 $227 $330 #
vertex $-1 $141 $331 #
straight-curve $-1 18.305313012272368 21.345969983096232 10.197955688612254 0 -1 0 I I #
coedge $-1 $233 $233 $-1 $332 reversed $144 $-1 #
edge $-1 $333 0 $333 6.2831853071796004 $145 $334 forward 7 unknown #
vertex $-1 $148 $335 #
ellipse-curve $-1 25.690005874227303 17.973123359577823 5.9365829055164543 0 0.62932039886446345 0.77714595512881146 3 0 0 1 I I #
coedge $-1 $237 $237 $-1 $336 reversed $151 $-1 #
edge $-1 $337 0 $337 6.2831853071796004 $152 $338 forward 7 unknown #
vertex $-1 $155 $339 #
ellipse-curve $-1 36.767045167159715 17.973123359577823 5.9365829055164543 0 0.62932039886446345 0.77714595512881146 3 0 0 1 I I #
face $-1 $-1 $253 $34 $-1 $340 forward single #
loop $-1 $-1 $341 $156 #
plane-surface $-1 0 -23.23548038416261 0 0 1 0 0 0 1 forward_v I I I I #
coedge $-1 $342 $343 $344 $345 reversed $157 $-1 #
coedge $-1 $346 $159 $161 $251 forward $99 $-1 #
coedge $-1 $159 $346 $342 $347 forward $99 $-1 #
coedge $-1 $344 $162 $159 $248 forward $253 $-1 #
edge $-1 $255 11.147649262451033 $348 23.628630244606263 $247 $349 forward 7 unknown #
coedge $-1 $350 $351 $160 $250 forward $242 $-1 #
edge $-1 $352 -31.443223847017588 $254 -25.002299200073345 $249 $353 forward 7 unknown #
edge $-1 $255 -9.8175991549545749 $352 -1.4162124599810759e-014 $161 $354 forward 7 unknown #
coedge $-1 $162 $344 $350 $355 forward $253 $-1 #
loop $-1 $-1 $344 $241 #
vertex $-1 $250 $356 #
vertex $-1 $163 $357 #
straight-curve $-1 -28.535789015979681 -40.583886923956761 10.197955688612254 0 1 0 I I #
coedge $-1 $257 $257 $-1 $358 reversed $166 $-1 #
edge $-1 $359 0 $359 6.2831853071796004 $167 $360 forward 7 unknown #
vertex $-1 $170 $361 #
ellipse-curve $-1 -37.450775431804843 -19.530762349691209 6.9774933651401332 0 -0.6560590369687036 0.75470957328743171 1 0 0 1 I I #
coedge $-1 $261 $261 $-1 $362 reversed $173 $-1 #
edge $-1 $363 0 $363 6.2831853071796004 $174 $364 forward 7 unknown #
vertex $-1 $177 $365 #
ellipse-curve $-1 -32.10178358230975 -19.530762349691209 6.9774933651401332 0 -0.6560590369687036 0.75470957328743171 1 0 0 1 I I #
face $-1 $-1 $277 $37 $-1 $366 forward single #
loop $-1 $-1 $367 $178 #
plane-surface $-1 0 -23.23548038416261 0 0 1 0 0 0 1 forward_v I I I I #
coedge $-1 $368 $369 $370 $371 reversed $179 $-1 #
coedge $-1 $372 $181 $183 $275 forward $113 $-1 #
coedge $-1 $181 $372 $368 $373 forward $113 $-1 #
coedge $-1 $370 $184 $181 $272 forward $277 $-1 #
edge $-1 $279 -23.62863024460626 $374 -11.147649262451029 $271 $375 forward 7 unknown #
coedge $-1 $376 $377 $182 $274 forward $266 $-1 #
edge $-1 $378 -31.443223847017588 $278 -25.002299200073345 $273 $379 forward 7 unknown #
edge $-1 $279 -9.8175991549545749 $378 -1.4162124599810759e-014 $183 $380 forward 7 unknown #
coedge $-1 $184 $370 $376 $381 forward $277 $-1 #
loop $-1 $-1 $370 $265 #
vertex $-1 $274 $382 #
vertex $-1 $185 $383 #
straight-curve $-1 41.016769998134905 -40.583886923956761 10.197955688612254 0 1 0 I I #
coedge $-1 $281 $281 $-1 $384 reversed $188 $-1 #
edge $-1 $385 0 $385 6.2831853071796004 $189 $386 forward 7 unknown #
vertex $-1 $192 $387 #
ellipse-curve $-1 32.101783582309743 -19.530762349691209 6.9774933651401332 0 -0.6560590369687036 0.75470957328743171 1 0 0 1 I I #
coedge $-1 $285 $285 $-1 $388 reversed $195 $-1 #
edge $-1 $389 0 $389 6.2831853071796004 $196 $390 forward 7 unknown #
vertex $-1 $199 $391 #
ellipse-curve $-1 37.45077543180485 -19.530762349691209 6.9774933651401332 0 -0.6560590369687036 0.75470957328743171 1 0 0 1 I I #
face $-1 $-1 $215 $30 $-1 $392 reversed single #
loop $-1 $-1 $305 $200 #
plane-surface $-1 0 23.23548038416261 0 0 -1 0 0 0 -1 forward_v I I I I #
coedge $-1 $393 $303 $306 $394 forward $201 $-1 #
coedge $-1 $309 $203 $204 $297 reversed $127 $-1 #
coedge $-1 $303 $393 $203 $295 reversed $201 $-1 #
edge $-1 $310 -10.197955688612256 $395 10.197955688612256 $294 $396 forward 7 unknown #
coedge $-1 $205 $204 $393 $397 forward $81 $-1 #
edge $-1 $301 -44.151738029114661 $395 44.151738029114661 $293 $398 forward 7 unknown #
coedge $-1 $306 $305 $205 $299 reversed $290 $-1 #
edge $-1 $399 -44.151738029114661 $300 44.151738029114661 $298 $400 forward 7 unknown #
vertex $-1 $207 $401 #
vertex $-1 $312 $402 #
straight-curve $-1 44.151738029114661 0 -10.197955688612256 0 -1 0 I I #
coedge $-1 $292 $294 $208 $304 reversed $201 $-1 #
edge $-1 $307 -23.23548038416261 $310 23.23548038416261 $303 $403 forward 7 unknown #
coedge $-1 $298 $209 $214 $313 forward $290 $-1 #
coedge $-1 $209 $298 $292 $394 reversed $290 $-1 #
vertex $-1 $210 $404 #
straight-curve $-1 0 23.23548038416261 10.197955688612256 -1 0 0 I I #
coedge $-1 $211 $293 $213 $312 reversed $127 $-1 #
vertex $-1 $304 $405 #
straight-curve $-1 0 -23.23548038416261 10.197955688612256 1 0 0 I I #
edge $-1 $216 -10.197955688612256 $301 10.197955688612256 $213 $406 forward 7 unknown #
edge $-1 $217 -10.197955688612256 $300 10.197955688612256 $214 $407 forward 7 unknown #
point $-1 44.151738029114661 -23.23548038416261 10.197955688612256 #
point $-1 44.151738029114661 23.23548038416261 10.197955688612256 #
loop $-1 $-1 $319 $219 #
plane-surface $-1 44.151738029114661 0 0 -1 0 0 0 0 1 forward_v I I I I #
coedge $-1 $223 $222 $325 $408 reversed $85 $-1 #
coedge $-1 $409 $410 $223 $320 forward $316 $-1 #
edge $-1 $322 18.194261639628696 $411 31.737038230964245 $319 $412 forward 7 unknown #
coedge $-1 $229 $224 $410 $413 forward $135 $-1 #
vertex $-1 $413 $414 #
straight-curve $-1 15.614262760346758 12.710766334993039 10.197955688612256 1 0 0 I I #
coedge $-1 $415 $226 $229 $329 reversed $220 $-1 #
coedge $-1 $226 $415 $318 $408 forward $220 $-1 #
vertex $-1 $227 $416 #
straight-curve $-1 18.305313012272368 23.23548038416261 49.772511465612332 0 0 1 I I #
straight-curve $-1 18.305313012272368 -12.879238807891014 30.920333688757907 0 0.77714595512881146 -0.62932039886446345 I I #
edge $-1 $417 -44.151738029114661 $230 -18.305313012272368 $324 $418 forward 7 unknown #
point $-1 18.305313012272368 23.23548038416261 10.197955688612256 #
point $-1 18.305313012272368 12.710766334993039 10.197955688612254 #
edge $-1 $419 1 $419 0 $233 $-1 forward 7 unknown #
vertex $-1 $234 $420 #
ellipse-curve $-1 25.690005874227303 11.349846420254616 -2.2424827856332268 0 0.62932039886446345 0.77714595512881146 3 0 0 1 I I #
point $-1 28.690005874227303 17.973123359577819 5.936582905516449 #
edge $-1 $421 1 $421 0 $237 $-1 forward 7 unknown #
vertex $-1 $238 $422 #
ellipse-curve $-1 36.767045167159715 11.349846420254616 -2.2424827856332268 0 0.62932039886446345 0.77714595512881146 3 0 0 1 I I #
point $-1 39.767045167159715 17.973123359577819 5.936582905516449 #
plane-surface $-1 0 0 10.197955688612256 0 0 1 1 0 0 forward_v I I I I #
coedge $-1 $351 $350 $343 $423 forward $242 $-1 #
coedge $-1 $343 $244 $246 $347 reversed $157 $-1 #
coedge $-1 $244 $342 $341 $423 reversed $157 $-1 #
coedge $-1 $252 $247 $244 $345 forward $253 $-1 #
edge $-1 $348 -24.757842608736958 $424 -17.348406539794151 $344 $425 forward 7 unknown #
coedge $-1 $246 $245 $351 $426 reversed $99 $-1 #
edge $-1 $427 1.4162124599810759e-014 $348 9.8175991549545749 $342 $428 forward 7 unknown #
vertex $-1 $248 $429 #
straight-curve $-1 -17.388139753528648 -15.826044315219804 10.197955688612256 -1 0 0 I I #
coedge $-1 $341 $249 $252 $355 reversed $242 $-1 #
coedge $-1 $249 $341 $346 $426 forward $242 $-1 #
vertex $-1 $250 $430 #
straight-curve $-1 -28.535789015979681 -23.23548038416261 35.200254888685599 0 0 1 I I #
straight-curve $-1 -28.535789015979681 -23.235480384162621 3.7570310416680002 0 -0.75470957328743171 -0.6560590369687036 I I #
edge $-1 $424 -41.016769998134912 $254 -28.535789015979681 $350 $431 forward 7 unknown #
point $-1 -28.535789015979681 -23.23548038416261 10.197955688612256 #
point $-1 -28.535789015979681 -15.826044315219804 10.197955688612256 #
edge $-1 $432 1 $432 0 $257 $-1 forward 7 unknown #
vertex $-1 $258 $433 #
ellipse-curve $-1 -37.450775431804843 -17.38747331711609 4.5119214271629051 0 -0.6560590369687036 0.75470957328743171 1 0 0 1 I I #
point $-1 -36.450775431804843 -19.530762349691205 6.9774933651401287 #
edge $-1 $434 1 $434 0 $261 $-1 forward 7 unknown #
vertex $-1 $262 $435 #
ellipse-curve $-1 -32.10178358230975 -17.38747331711609 4.5119214271629051 0 -0.6560590369687036 0.75470957328743171 1 0 0 1 I I #
point $-1 -31.10178358230975 -19.530762349691205 6.9774933651401287 #
plane-surface $-1 0 0 10.197955688612256 0 0 1 1 0 0 forward_v I I I I #
coedge $-1 $377 $376 $369 $436 forward $266 $-1 #
coedge $-1 $369 $268 $270 $373 reversed $179 $-1 #
coedge $-1 $268 $368 $367 $436 reversed $179 $-1 #
coedge $-1 $276 $271 $268 $371 forward $277 $-1 #
edge $-1 $374 -24.757842608736958 $437 -17.348406539794151 $370 $438 forward 7 unknown #
coedge $-1 $270 $269 $377 $439 reversed $113 $-1 #
edge $-1 $440 1.4162124599810759e-014 $374 9.8175991549545749 $368 $441 forward 7 unknown #
vertex $-1 $272 $442 #
straight-curve $-1 17.388139753528645 -15.826044315219804 10.197955688612256 -1 0 0 I I #
coedge $-1 $367 $273 $276 $381 reversed $266 $-1 #
coedge $-1 $273 $367 $372 $439 forward $266 $-1 #
vertex $-1 $274 $443 #
straight-curve $-1 41.016769998134905 -23.23548038416261 35.200254888685599 0 0 1 I I #
straight-curve $-1 41.016769998134905 -23.235480384162621 3.7570310416680002 0 -0.75470957328743171 -0.6560590369687036 I I #
edge $-1 $437 28.535789015979674 $278 41.016769998134905 $376 $444 forward 7 unknown #
point $-1 41.016769998134905 -23.23548038416261 10.197955688612256 #
point $-1 41.016769998134905 -15.826044315219804 10.197955688612256 #
edge $-1 $445 1 $445 0 $281 $-1 forward 7 unknown #
vertex $-1 $282 $446 #
ellipse-curve $-1 32.101783582309743 -17.38747331711609 4.5119214271629051 0 -0.6560590369687036 0.75470957328743171 1 0 0 1 I I #
point $-1 33.101783582309743 -19.530762349691205 6.9774933651401287 #
edge $-1 $447 1 $447 0 $285 $-1 forward 7 unknown #
vertex $-1 $286 $448 #
ellipse-curve $-1 37.45077543180485 -17.38747331711609 4.5119214271629051 0 -0.6560590369687036 0.75470957328743171 1 0 0 1 I I #
point $-1 38.45077543180485 -19.530762349691205 6.9774933651401287 #
plane-surface $-1 44.151738029114661 0 0 -1 0 0 0 0 1 forward_v I I I I #
coedge $-1 $294 $292 $296 $397 reversed $201 $-1 #
edge $-1 $307 -10.197955688612256 $399 10.197955688612256 $306 $449 forward 7 unknown #
vertex $-1 $397 $450 #
straight-curve $-1 -44.151738029114661 -23.23548038416261 0 0 0 -1 I I #
edge $-1 $395 -23.23548038416261 $399 23.23548038416261 $393 $451 forward 7 unknown #
straight-curve $-1 0 -23.23548038416261 -10.197955688612256 -1 0 0 I I #
vertex $-1 $299 $452 #
straight-curve $-1 0 23.23548038416261 -10.197955688612256 1 0 0 I I #
point $-1 44.151738029114661 23.23548038416261 -10.197955688612256 #
point $-1 44.151738029114661 -23.23548038416261 -10.197955688612256 #
straight-curve $-1 -44.151738029114661 0 10.197955688612256 0 -1 0 I I #
point $-1 -44.151738029114661 23.23548038416261 10.197955688612256 #
point $-1 -44.151738029114661 -23.23548038416261 10.197955688612256 #
straight-curve $-1 44.151738029114661 -23.23548038416261 0 0 0 -1 I I #
straight-curve $-1 44.151738029114661 23.23548038416261 0 0 0 -1 I I #
edge $-1 $411 -28.53747526876791 $326 -2.6910502519256099 $325 $453 forward 7 unknown #
coedge $-1 $410 $319 $415 $454 reversed $316 $-1 #
coedge $-1 $319 $409 $321 $413 reversed $316 $-1 #
vertex $-1 $320 $455 #
straight-curve $-1 44.151738029114661 -1.4288305047996976 21.647975680707791 0 0.77714595512881146 -0.62932039886446345 I I #
edge $-1 $322 12.710766334993039 $417 23.23548038416261 $410 $456 forward 7 unknown #
point $-1 44.151738029114668 12.710766334993039 10.197955688612254 #
coedge $-1 $325 $324 $409 $454 forward $220 $-1 #
point $-1 18.305313012272368 23.235480384162614 1.6752101224206477 #
vertex $-1 $413 $457 #
straight-curve $-1 0 23.23548038416261 10.197955688612256 -1 0 0 I I #
vertex $-1 $332 $458 #
point $-1 28.690005874227303 11.349846420254616 -2.2424827856332268 #
vertex $-1 $336 $459 #
point $-1 39.767045167159715 11.349846420254616 -2.2424827856332268 #
edge $-1 $424 25.002299200073345 $427 31.443223847017588 $341 $460 forward 7 unknown #
vertex $-1 $355 $461 #
straight-curve $-1 -41.016769998134912 -40.583886923956761 10.197955688612254 0 -1 0 I I #
edge $-1 $427 -23.628630244606263 $352 -11.147649262451033 $351 $462 forward 7 unknown #
vertex $-1 $426 $463 #
straight-curve $-1 -41.016769998134912 -23.235480384162621 3.7570310416680002 0 0.75470957328743171 0.6560590369687036 I I #
point $-1 -41.016769998134912 -15.826044315219804 10.197955688612256 #
point $-1 -28.535789015979681 -23.23548038416261 3.7570310416680095 #
straight-curve $-1 0 -23.23548038416261 10.197955688612256 1 0 0 I I #
vertex $-1 $358 $464 #
point $-1 -36.450775431804843 -17.38747331711609 4.5119214271629051 #
vertex $-1 $362 $465 #
point $-1 -31.10178358230975 -17.38747331711609 4.5119214271629051 #
edge $-1 $437 25.002299200073345 $440 31.443223847017588 $367 $466 forward 7 unknown #
vertex $-1 $381 $467 #
straight-curve $-1 28.535789015979674 -40.583886923956761 10.197955688612254 0 -1 0 I I #
edge $-1 $440 11.147649262451029 $378 23.62863024460626 $377 $468 forward 7 unknown #
vertex $-1 $439 $469 #
straight-curve $-1 28.535789015979674 -23.235480384162621 3.7570310416680002 0 0.75470957328743171 0.6560590369687036 I I #
point $-1 28.535789015979674 -15.826044315219804 10.197955688612256 #
point $-1 41.016769998134905 -23.23548038416261 3.7570310416680095 #
straight-curve $-1 0 -23.23548038416261 10.197955688612256 1 0 0 I I #
vertex $-1 $384 $470 #
point $-1 33.101783582309743 -17.38747331711609 4.5119214271629051 #
vertex $-1 $388 $471 #
point $-1 38.45077543180485 -17.38747331711609 4.5119214271629051 #
straight-curve $-1 -44.151738029114661 23.23548038416261 0 0 0 -1 I I #
point $-1 -44.151738029114661 -23.23548038416261 -10.197955688612256 #
straight-curve $-1 -44.151738029114661 0 -10.197955688612256 0 1 0 I I #
point $-1 -44.151738029114661 23.23548038416261 -10.197955688612256 #
straight-curve $-1 15.614262760346758 23.235480384162607 1.675210122420653 -1 0 0 I I #
edge $-1 $417 -10.197955688612256 $411 -1.6752101224206477 $409 $472 forward 7 unknown #
point $-1 44.151738029114668 23.235480384162614 1.6752101224206477 #
straight-curve $-1 44.151738029114661 0 10.197955688612256 0 1 0 I I #
point $-1 44.151738029114661 23.23548038416261 10.197955688612256 #
point $-1 25.690005874227303 9.4618852236612252 -4.5739206510196606 #
point $-1 36.767045167159715 9.4618852236612252 -4.5739206510196606 #
straight-curve $-1 -41.016769998134912 -23.23548038416261 35.200254888685599 0 0 -1 I I #
point $-1 -41.016769998134912 -23.23548038416261 10.197955688612256 #
straight-curve $-1 -17.388139753528648 -23.23548038416261 3.7570310416680086 1 0 0 I I #
point $-1 -41.016769998134912 -23.23548038416261 3.7570310416680095 #
point $-1 -37.450775431804843 -16.731414280147384 3.7572118538754733 #
point $-1 -32.10178358230975 -16.731414280147384 3.7572118538754733 #
straight-curve $-1 28.535789015979674 -23.23548038416261 35.200254888685599 0 0 -1 I I #
point $-1 28.535789015979674 -23.23548038416261 10.197955688612256 #
straight-curve $-1 17.388139753528645 -23.23548038416261 3.7570310416680086 1 0 0 I I #
point $-1 28.535789015979674 -23.23548038416261 3.7570310416680095 #
point $-1 32.101783582309743 -16.731414280147384 3.7572118538754733 #
point $-1 37.45077543180485 -16.731414280147384 3.7572118538754733 #
straight-curve $-1 44.151738029114661 23.23548038416261 0 0 0 -1 I I #
End-of-ACIS-data 