500 0 6 0           
7 Unknown 11 ACIS 5.0 NT 24 Fri Mar 26 16:35:01 1999 
-1 9.9999999999999995e-007 1e-010 
body $-1 $6 $-1 $7 #
body $-1 $8 $-1 $9 #
body $-1 $10 $-1 $11 #
body $-1 $12 $-1 $13 #
body $-1 $14 $-1 $15 #
body $-1 $16 $-1 $17 #
lump $-1 $-1 $18 $0 #
transform $-1 1 0 0 0 1 0 0 0 1 63.85448774681845 39.535919124688803 10.566962874544499 1 rotate no_reflect no_shear #
lump $-1 $-1 $19 $1 #
transform $-1 1 0 0 0 1 0 0 0 1 63.85448774681845 39.535919124688803 10.566962874544499 1 rotate no_reflect no_shear #
lump $-1 $-1 $20 $2 #
transform $-1 1 0 0 0 1 0 0 0 1 63.85448774681845 39.535919124688803 10.566962874544499 1 rotate no_reflect no_shear #
lump $-1 $-1 $21 $3 #
transform $-1 1 0 0 0 1 0 0 0 1 63.85448774681845 39.535919124688803 10.566962874544499 1 rotate no_reflect no_shear #
lump $-1 $-1 $22 $4 #
transform $-1 1 0 0 0 1 0 0 0 1 63.85448774681845 39.535919124688803 10.566962874544499 1 rotate no_reflect no_shear #
lump $-1 $-1 $23 $5 #
transform $-1 1 0 0 0 1 0 0 0 1 63.85448774681845 39.535919124688803 10.566962874544499 1 rotate no_reflect no_shear #
shell $-1 $-1 $-1 $24 $-1 $6 #
shell $-1 $-1 $-1 $25 $-1 $8 #
shell $-1 $-1 $-1 $26 $-1 $10 #
shell $-1 $-1 $-1 $27 $-1 $12 #
shell $-1 $-1 $-1 $28 $-1 $14 #
shell $-1 $-1 $-1 $29 $-1 $16 #
face $-1 $30 $31 $18 $-1 $32 forward single #
face $-1 $33 $34 $19 $-1 $35 forward single #
face $-1 $36 $37 $20 $-1 $38 reversed single #
face $-1 $39 $40 $21 $-1 $41 forward single #
face $-1 $42 $43 $22 $-1 $44 forward single #
face $-1 $45 $46 $23 $-1 $47 forward single #
face $-1 $48 $49 $18 $-1 $50 reversed single #
loop $-1 $-1 $51 $24 #
plane-surface $-1 0 0 10.566962874544499 0 0 1 1 0 0 forward_v I I I I #
face $-1 $52 $53 $19 $-1 $54 reversed single #
loop $-1 $-1 $55 $25 #
plane-surface $-1 -57.020342319419704 0 -1.3949572002044004 0 0 1 1 0 0 forward_v I I I I #
face $-1 $56 $57 $20 $-1 $58 reversed single #
loop $-1 $-1 $59 $26 #
plane-surface $-1 -50.186196892020966 89.022915368121488 145.74122320624039 1 0 0 0 -0.77714596973225614 -0.62932038083071107 forward_v I I I I #
face $-1 $60 $61 $21 $-1 $62 forward single #
loop $-1 $63 $64 $27 #
cone-surface $-1 -46.433055209815343 35.428089589838294 6.0965726104546345 0 -0.77714596973225614 -0.62932038083071107 1 0 0 1 I I 0 1 1 forward I I I I #
face $-1 $65 $66 $22 $-1 $67 forward single #
loop $-1 $68 $69 $28 #
cone-surface $-1 -40.803342686506909 35.428089589838294 6.0965726104546345 0 -0.77714596973225614 -0.62932038083071107 1 0 0 1 I I 0 1 1 forward I I I I #
face $-1 $70 $71 $23 $-1 $72 forward single #
loop $-1 $73 $74 $29 #
cone-surface $-1 -35.173630163198474 35.428089589838294 6.0965726104546345 0 -0.77714596973225614 -0.62932038083071107 1 0 0 1 I I 0 1 1 forward I I I I #
face $-1 $75 $76 $18 $-1 $77 reversed single #
loop $-1 $-1 $78 $30 #
plane-surface $-1 0 0 -10.566962874544499 0 0 1 1 0 0 forward_v I I I I #
coedge $-1 $79 $80 $81 $82 forward $31 $-1 #
face $-1 $83 $84 $19 $-1 $85 reversed single #
loop $-1 $-1 $86 $33 #
plane-surface $-1 -57.020342319419704 0 -6.2075739720168137 0 0 1 1 0 0 forward_v I I I I #
coedge $-1 $87 $88 $89 $90 forward $34 $-1 #
face $-1 $91 $92 $20 $-1 $93 reversed single #
loop $-1 $-1 $94 $36 #
plane-surface $-1 -40.803342686506909 -10.225600235393898 65.371362113084871 0 0.77714596973225614 0.62932038083071107 1 0 0 forward_v I I I I #
coedge $-1 $95 $96 $97 $98 reversed $37 $-1 #
face $-1 $-1 $99 $21 $-1 $100 forward single #
loop $-1 $101 $102 $39 #
cone-surface $-1 -46.433055209815343 33.622583620666944 4.6345027440915647 0 -0.77714596973225614 -0.62932038083071107 0.5 0 0 1 I I -0.70710678118654746 0.70710678118654746 0.5 forward I I I I #
loop $-1 $-1 $103 $27 #
coedge $-1 $64 $64 $104 $105 reversed $40 $-1 #
face $-1 $-1 $106 $22 $-1 $107 forward single #
loop $-1 $108 $109 $42 #
cone-surface $-1 -40.803342686506909 33.622583620666944 4.6345027440915647 0 -0.77714596973225614 -0.62932038083071107 0.5 0 0 1 I I -0.70710678118654746 0.70710678118654746 0.5 forward I I I I #
loop $-1 $-1 $110 $28 #
coedge $-1 $69 $69 $111 $112 reversed $43 $-1 #
face $-1 $-1 $113 $23 $-1 $114 forward single #
loop $-1 $115 $116 $45 #
cone-surface $-1 -35.173630163198474 33.622583620666944 4.6345027440915647 0 -0.77714596973225614 -0.62932038083071107 0.5 0 0 1 I I -0.70710678118654746 0.70710678118654746 0.5 forward I I I I #
loop $-1 $-1 $117 $29 #
coedge $-1 $74 $74 $118 $119 reversed $46 $-1 #
face $-1 $120 $121 $18 $-1 $122 reversed single #
loop $-1 $-1 $123 $48 #
plane-surface $-1 0 -39.535919124688803 0 0 1 0 0 0 1 forward_v I I I I #
coedge $-1 $124 $125 $126 $127 forward $49 $-1 #
coedge $-1 $128 $51 $129 $130 forward $31 $-1 #
coedge $-1 $51 $128 $131 $132 forward $31 $-1 #
coedge $-1 $133 $134 $51 $82 reversed $135 $-1 #
edge $-1 $136 -39.535919124688803 $137 39.535919124688803 $81 $138 forward 7 unknown #
face $-1 $139 $140 $19 $-1 $141 reversed single #
loop $-1 $-1 $142 $52 #
plane-surface $-1 -50.186196892020959 0 -3.8012655861106071 -1 0 0 0 0 1 forward_v I I I I #
coedge $-1 $143 $144 $145 $146 forward $53 $-1 #
coedge $-1 $147 $55 $148 $149 reversed $34 $-1 #
coedge $-1 $55 $147 $150 $151 reversed $34 $-1 #
coedge $-1 $142 $152 $55 $90 reversed $84 $-1 #
edge $-1 $153 -39.535919124688803 $154 39.535919124688803 $89 $155 forward 7 unknown #
face $-1 $156 $157 $20 $-1 $158 forward single #
loop $-1 $-1 $159 $56 #
plane-surface $-1 -31.420488480992852 89.022915368121488 145.74122320624039 -1 0 0 0 0.77714596973225614 0.62932038083071107 forward_v I I I I #
coedge $-1 $160 $161 $162 $163 reversed $57 $-1 #
coedge $-1 $96 $59 $164 $165 reversed $37 $-1 #
coedge $-1 $59 $95 $160 $166 reversed $37 $-1 #
coedge $-1 $162 $167 $59 $98 forward $157 $-1 #
edge $-1 $168 4.975538559371941 $169 10.357331660462449 $97 $170 forward 7 unknown #
loop $-1 $-1 $104 $60 #
plane-surface $-1 -40.803342686506909 -10.225600235393898 65.371362113084871 0 0.77714596973225614 0.62932038083071107 1 0 0 forward_v I I I I #
loop $-1 $-1 $171 $39 #
coedge $-1 $102 $102 $103 $172 reversed $61 $-1 #
coedge $-1 $103 $103 $102 $172 forward $63 $-1 #
coedge $-1 $104 $104 $64 $105 forward $99 $-1 #
edge $-1 $173 7.2023940852280121e-016 $173 6.2831853071796013 $104 $174 forward 7 unknown #
loop $-1 $-1 $111 $65 #
plane-surface $-1 -40.803342686506909 -10.225600235393898 65.371362113084871 0 0.77714596973225614 0.62932038083071107 1 0 0 forward_v I I I I #
loop $-1 $-1 $175 $42 #
coedge $-1 $109 $109 $110 $176 reversed $66 $-1 #
coedge $-1 $110 $110 $109 $176 forward $68 $-1 #
coedge $-1 $111 $111 $69 $112 forward $106 $-1 #
edge $-1 $177 7.2023940852280121e-016 $177 6.2831853071796013 $111 $178 forward 7 unknown #
loop $-1 $-1 $118 $70 #
plane-surface $-1 -40.803342686506909 -10.225600235393898 65.371362113084871 0 0.77714596973225614 0.62932038083071107 1 0 0 forward_v I I I I #
loop $-1 $-1 $179 $45 #
coedge $-1 $116 $116 $117 $180 reversed $71 $-1 #
coedge $-1 $117 $117 $116 $180 forward $73 $-1 #
coedge $-1 $118 $118 $74 $119 forward $113 $-1 #
edge $-1 $181 7.2023940852280121e-016 $181 6.2831853071796013 $118 $182 forward 7 unknown #
face $-1 $183 $184 $18 $-1 $185 reversed single #
loop $-1 $-1 $186 $75 #
plane-surface $-1 -63.85448774681845 0 0 1 0 0 0 0 -1 forward_v I I I I #
coedge $-1 $187 $131 $188 $189 forward $76 $-1 #
coedge $-1 $190 $78 $187 $191 forward $49 $-1 #
coedge $-1 $78 $190 $192 $193 forward $49 $-1 #
coedge $-1 $134 $133 $78 $127 reversed $135 $-1 #
edge $-1 $194 -39.535919124688803 $195 39.535919124688803 $126 $196 forward 7 unknown #
coedge $-1 $80 $79 $197 $198 forward $31 $-1 #
coedge $-1 $199 $200 $79 $130 reversed $184 $-1 #
edge $-1 $137 -63.85448774681845 $201 63.85448774681845 $129 $202 forward 7 unknown #
coedge $-1 $123 $203 $80 $132 reversed $76 $-1 #
edge $-1 $204 -63.85448774681845 $136 63.85448774681845 $131 $205 forward 7 unknown #
coedge $-1 $126 $81 $203 $206 forward $135 $-1 #
coedge $-1 $81 $126 $199 $207 reversed $135 $-1 #
loop $-1 $-1 $133 $183 #
vertex $-1 $82 $208 #
vertex $-1 $82 $209 #
straight-curve $-1 63.85448774681845 0 10.566962874544499 0 1 0 I I #
face $-1 $210 $211 $19 $-1 $212 reversed single #
loop $-1 $-1 $213 $83 #
plane-surface $-1 0 -39.535919124688803 0 0 1 0 0 0 1 forward_v I I I I #
coedge $-1 $145 $89 $214 $215 reversed $84 $-1 #
coedge $-1 $216 $86 $213 $217 reversed $53 $-1 #
coedge $-1 $86 $216 $218 $219 reversed $53 $-1 #
coedge $-1 $152 $142 $86 $146 reversed $84 $-1 #
edge $-1 $220 -39.535919124688803 $221 39.535919124688803 $145 $222 forward 7 unknown #
coedge $-1 $88 $87 $223 $224 reversed $34 $-1 #
coedge $-1 $225 $226 $87 $149 forward $227 $-1 #
edge $-1 $228 -35.344316587108594 $154 -21.676025732311107 $148 $229 forward 7 unknown #
coedge $-1 $230 $214 $88 $151 forward $140 $-1 #
edge $-1 $153 21.676025732311107 $231 35.344316587108594 $150 $232 forward 7 unknown #
coedge $-1 $89 $145 $225 $233 reversed $84 $-1 #
vertex $-1 $151 $234 #
vertex $-1 $149 $235 #
straight-curve $-1 -50.186196892020959 0 -1.3949572002044004 0 1 0 I I #
face $-1 $-1 $236 $20 $-1 $237 reversed single #
loop $-1 $-1 $97 $91 #
plane-surface $-1 0 0 10.566962874544499 0 0 1 1 0 0 forward_v I I I I #
coedge $-1 $238 $239 $240 $241 reversed $92 $-1 #
coedge $-1 $242 $94 $96 $166 forward $57 $-1 #
coedge $-1 $94 $242 $238 $243 forward $57 $-1 #
coedge $-1 $240 $97 $94 $163 forward $157 $-1 #
edge $-1 $169 -29.784525548767512 $244 -11.018817137739397 $162 $245 forward 7 unknown #
coedge $-1 $246 $247 $95 $165 forward $236 $-1 #
edge $-1 $248 -68.949609904859983 $168 -62.303648728575695 $164 $249 forward 7 unknown #
edge $-1 $169 70.520084222300852 $248 79.071838249377606 $96 $250 forward 7 unknown #
coedge $-1 $97 $240 $246 $251 forward $157 $-1 #
vertex $-1 $165 $252 #
vertex $-1 $98 $253 #
straight-curve $-1 -50.186196892020966 44.511457684060744 10.566962874544501 0 -1 0 I I #
coedge $-1 $171 $171 $-1 $254 reversed $101 $-1 #
edge $-1 $255 0 $255 6.2831853071796004 $102 $256 forward 7 unknown #
vertex $-1 $105 $257 #
ellipse-curve $-1 -46.433055209815343 36.845022574143535 7.2439822864023604 0 0.77714596973225614 0.62932038083071107 1 0 0 1 I I #
coedge $-1 $175 $175 $-1 $258 reversed $108 $-1 #
edge $-1 $259 0 $259 6.2831853071796004 $109 $260 forward 7 unknown #
vertex $-1 $112 $261 #
ellipse-curve $-1 -40.803342686506909 36.845022574143535 7.2439822864023604 0 0.77714596973225614 0.62932038083071107 1 0 0 1 I I #
coedge $-1 $179 $179 $-1 $262 reversed $115 $-1 #
edge $-1 $263 0 $263 6.2831853071796004 $116 $264 forward 7 unknown #
vertex $-1 $119 $265 #
ellipse-curve $-1 -35.173630163198474 36.845022574143535 7.2439822864023604 0 0.77714596973225614 0.62932038083071107 1 0 0 1 I I #
face $-1 $-1 $135 $18 $-1 $266 reversed single #
loop $-1 $-1 $199 $120 #
plane-surface $-1 0 39.535919124688803 0 0 -1 0 0 0 -1 forward_v I I I I #
coedge $-1 $267 $197 $200 $268 forward $121 $-1 #
coedge $-1 $203 $123 $124 $191 reversed $76 $-1 #
coedge $-1 $197 $267 $123 $189 reversed $121 $-1 #
edge $-1 $204 -10.566962874544499 $269 10.566962874544499 $188 $270 forward 7 unknown #
coedge $-1 $125 $124 $267 $271 forward $49 $-1 #
edge $-1 $195 -63.85448774681845 $269 63.85448774681845 $187 $272 forward 7 unknown #
coedge $-1 $200 $199 $125 $193 reversed $184 $-1 #
edge $-1 $273 -63.85448774681845 $194 63.85448774681845 $192 $274 forward 7 unknown #
vertex $-1 $127 $275 #
vertex $-1 $206 $276 #
straight-curve $-1 63.85448774681845 0 -10.566962874544499 0 -1 0 I I #
coedge $-1 $186 $188 $128 $198 reversed $121 $-1 #
edge $-1 $201 -39.535919124688803 $204 39.535919124688803 $197 $277 forward 7 unknown #
coedge $-1 $192 $129 $134 $207 forward $184 $-1 #
coedge $-1 $129 $192 $186 $268 reversed $184 $-1 #
vertex $-1 $130 $278 #
straight-curve $-1 0 39.535919124688803 10.566962874544499 -1 0 0 I I #
coedge $-1 $131 $187 $133 $206 reversed $76 $-1 #
vertex $-1 $198 $279 #
straight-curve $-1 0 -39.535919124688803 10.566962874544499 1 0 0 I I #
edge $-1 $136 -10.566962874544499 $195 10.566962874544499 $133 $280 forward 7 unknown #
edge $-1 $137 -10.566962874544499 $194 10.566962874544499 $134 $281 forward 7 unknown #
point $-1 63.85448774681845 -39.535919124688803 10.566962874544499 #
point $-1 63.85448774681845 39.535919124688803 10.566962874544499 #
face $-1 $-1 $227 $19 $-1 $282 reversed single #
loop $-1 $-1 $283 $139 #
plane-surface $-1 -63.85448774681845 0 0 1 0 0 0 0 -1 forward_v I I I I #
coedge $-1 $214 $230 $143 $217 forward $140 $-1 #
coedge $-1 $150 $213 $142 $215 forward $140 $-1 #
edge $-1 $221 -4.3069411789615106 $153 0.50567559285090313 $214 $284 forward 7 unknown #
coedge $-1 $144 $143 $283 $285 reversed $53 $-1 #
edge $-1 $286 -35.344316587108594 $221 -21.676025732311107 $213 $287 forward 7 unknown #
coedge $-1 $226 $225 $144 $219 forward $227 $-1 #
edge $-1 $220 21.676025732311107 $288 35.344316587108594 $218 $289 forward 7 unknown #
vertex $-1 $219 $290 #
vertex $-1 $217 $291 #
straight-curve $-1 -50.186196892020959 0 -6.2075739720168137 0 -1 0 I I #
coedge $-1 $292 $293 $147 $224 forward $211 $-1 #
edge $-1 $231 -39.535919124688803 $228 39.535919124688803 $223 $294 forward 7 unknown #
coedge $-1 $218 $148 $152 $233 forward $227 $-1 #
coedge $-1 $148 $218 $292 $295 reversed $227 $-1 #
loop $-1 $-1 $218 $210 #
vertex $-1 $295 $296 #
straight-curve $-1 -28.510171159709852 39.535919124688803 -1.3949572002044004 1 0 0 I I #
coedge $-1 $213 $150 $293 $297 forward $140 $-1 #
vertex $-1 $297 $298 #
straight-curve $-1 -28.510171159709852 -39.535919124688803 -1.3949572002044004 -1 0 0 I I #
edge $-1 $154 -0.50567559285090313 $220 4.3069411789615106 $225 $299 forward 7 unknown #
point $-1 -50.186196892020959 -39.535919124688803 -1.3949572002044004 #
point $-1 -50.186196892020959 39.535919124688803 -1.3949572002044004 #
loop $-1 $-1 $164 $156 #
plane-surface $-1 0 39.535919124688803 0 0 -1 0 0 0 -1 forward_v I I I I #
coedge $-1 $239 $159 $161 $243 reversed $92 $-1 #
coedge $-1 $159 $238 $300 $301 reversed $92 $-1 #
coedge $-1 $167 $162 $159 $241 forward $157 $-1 #
edge $-1 $244 -10.357331660462449 $302 -4.975538559371941 $240 $303 forward 7 unknown #
coedge $-1 $161 $160 $247 $304 reversed $57 $-1 #
edge $-1 $305 -79.071838249377606 $244 -70.520084222300852 $238 $306 forward 7 unknown #
vertex $-1 $163 $307 #
straight-curve $-1 -20.401671343253454 34.154126023598295 10.566962874544501 1 0 0 I I #
coedge $-1 $300 $164 $167 $251 reversed $236 $-1 #
coedge $-1 $164 $300 $242 $304 forward $236 $-1 #
vertex $-1 $165 $308 #
straight-curve $-1 -50.186196892020966 39.535919124688803 72.870611603120196 0 0 1 I I #
straight-curve $-1 -50.186196892020966 -10.225600235393898 65.371362113084871 0 0.62932038083071107 -0.77714596973225614 I I #
edge $-1 $302 31.420488480992852 $168 50.186196892020966 $246 $309 forward 7 unknown #
point $-1 -50.186196892020966 39.535919124688803 10.566962874544499 #
point $-1 -50.186196892020966 34.154126023598295 10.566962874544501 #
edge $-1 $310 1 $310 0 $171 $-1 forward 7 unknown #
vertex $-1 $172 $311 #
ellipse-curve $-1 -46.433055209815343 34.011156605533074 4.9491629345069201 0 0.77714596973225614 0.62932038083071107 1 0 0 1 I I #
point $-1 -45.433055209815343 36.84502257414352 7.243982286402348 #
edge $-1 $312 1 $312 0 $175 $-1 forward 7 unknown #
vertex $-1 $176 $313 #
ellipse-curve $-1 -40.803342686506909 34.011156605533074 4.9491629345069201 0 0.77714596973225614 0.62932038083071107 1 0 0 1 I I #
point $-1 -39.803342686506909 36.84502257414352 7.243982286402348 #
edge $-1 $314 1 $314 0 $179 $-1 forward 7 unknown #
vertex $-1 $180 $315 #
ellipse-curve $-1 -35.173630163198474 34.011156605533074 4.9491629345069201 0 0.77714596973225614 0.62932038083071107 1 0 0 1 I I #
point $-1 -34.173630163198474 36.84502257414352 7.243982286402348 #
plane-surface $-1 63.85448774681845 0 0 -1 0 0 0 0 1 forward_v I I I I #
coedge $-1 $188 $186 $190 $271 reversed $121 $-1 #
edge $-1 $201 -10.566962874544499 $273 10.566962874544499 $200 $316 forward 7 unknown #
vertex $-1 $271 $317 #
straight-curve $-1 -63.85448774681845 -39.535919124688803 0 0 0 -1 I I #
edge $-1 $269 -39.535919124688803 $273 39.535919124688803 $267 $318 forward 7 unknown #
straight-curve $-1 0 -39.535919124688803 -10.566962874544499 -1 0 0 I I #
vertex $-1 $193 $319 #
straight-curve $-1 0 39.535919124688803 -10.566962874544499 1 0 0 I I #
point $-1 63.85448774681845 39.535919124688803 -10.566962874544499 #
point $-1 63.85448774681845 -39.535919124688803 -10.566962874544499 #
straight-curve $-1 -63.85448774681845 0 10.566962874544499 0 -1 0 I I #
point $-1 -63.85448774681845 39.535919124688803 10.566962874544499 #
point $-1 -63.85448774681845 -39.535919124688803 10.566962874544499 #
straight-curve $-1 63.85448774681845 -39.535919124688803 0 0 0 -1 I I #
straight-curve $-1 63.85448774681845 39.535919124688803 0 0 0 -1 I I #
plane-surface $-1 0 39.535919124688803 0 0 -1 0 0 0 -1 forward_v I I I I #
coedge $-1 $293 $292 $216 $285 forward $211 $-1 #
straight-curve $-1 -50.186196892020959 -39.535919124688803 -1.9006327930553035 0 0 1 I I #
edge $-1 $288 -39.535919124688803 $286 39.535919124688803 $283 $320 forward 7 unknown #
vertex $-1 $217 $321 #
straight-curve $-1 -28.510171159709852 -39.535919124688803 -6.2075739720168137 1 0 0 I I #
vertex $-1 $219 $322 #
straight-curve $-1 -28.510171159709852 39.535919124688803 -6.2075739720168137 -1 0 0 I I #
point $-1 -50.186196892020959 39.535919124688803 -6.2075739720168137 #
point $-1 -50.186196892020959 -39.535919124688803 -6.2075739720168137 #
coedge $-1 $283 $223 $226 $295 forward $211 $-1 #
coedge $-1 $223 $283 $230 $297 reversed $211 $-1 #
straight-curve $-1 -63.85448774681845 0 -1.3949572002044004 0 1 0 I I #
edge $-1 $228 1.3949572002044004 $288 6.2075739720168137 $226 $323 forward 7 unknown #
point $-1 -63.85448774681845 39.535919124688803 -1.3949572002044004 #
edge $-1 $231 1.3949572002044004 $286 6.2075739720168137 $293 $324 forward 7 unknown #
point $-1 -63.85448774681845 -39.535919124688803 -1.3949572002044004 #
straight-curve $-1 -50.186196892020959 39.535919124688803 -1.9006327930553035 0 0 -1 I I #
coedge $-1 $247 $246 $239 $301 forward $236 $-1 #
edge $-1 $302 62.303648728575695 $305 68.949609904859983 $300 $325 forward 7 unknown #
vertex $-1 $251 $326 #
straight-curve $-1 -31.420488480992852 44.511457684060744 10.566962874544501 0 1 0 I I #
edge $-1 $305 11.018817137739397 $248 29.784525548767512 $247 $327 forward 7 unknown #
vertex $-1 $304 $328 #
straight-curve $-1 -31.420488480992852 -10.225600235393898 65.371362113084871 0 -0.62932038083071107 0.77714596973225614 I I #
point $-1 -31.420488480992852 34.154126023598295 10.566962874544501 #
point $-1 -50.186196892020966 39.535919124688803 3.9210016982602056 #
straight-curve $-1 0 39.535919124688803 10.566962874544499 -1 0 0 I I #
vertex $-1 $254 $329 #
point $-1 -45.433055209815343 34.011156605533074 4.9491629345069201 #
vertex $-1 $258 $330 #
point $-1 -39.803342686506909 34.011156605533074 4.9491629345069201 #
vertex $-1 $262 $331 #
point $-1 -34.173630163198474 34.011156605533074 4.9491629345069201 #
straight-curve $-1 -63.85448774681845 39.535919124688803 0 0 0 -1 I I #
point $-1 -63.85448774681845 -39.535919124688803 -10.566962874544499 #
straight-curve $-1 -63.85448774681845 0 -10.566962874544499 0 1 0 I I #
point $-1 -63.85448774681845 39.535919124688803 -10.566962874544499 #
straight-curve $-1 -63.85448774681845 0 -6.2075739720168137 0 -1 0 I I #
point $-1 -63.85448774681845 -39.535919124688803 -6.2075739720168137 #
point $-1 -63.85448774681845 39.535919124688803 -6.2075739720168137 #
straight-curve $-1 -63.85448774681845 39.535919124688803 0 0 0 -1 I I #
straight-curve $-1 -63.85448774681845 -39.535919124688803 0 0 0 -1 I I #
straight-curve $-1 -31.420488480992852 39.535919124688803 72.870611603120196 0 0 -1 I I #
point $-1 -31.420488480992852 39.535919124688803 10.566962874544499 #
straight-curve $-1 -20.401671343253454 39.535919124688803 3.9210016982602092 -1 0 0 I I #
point $-1 -31.420488480992852 39.535919124688803 3.9210016982602056 #
point $-1 -46.433055209815343 33.234010635800814 4.3198425536762093 #
point $-1 -40.803342686506909 33.234010635800814 4.3198425536762093 #
point $-1 -35.173630163198474 33.234010635800814 4.3198425536762093 #
End-of-ACIS-data 