500 0 14 0           
7 Unknown 11 ACIS 5.0 NT 24 Thu Mar 25 17:29:23 1999 
-1 9.9999999999999995e-007 1e-010 
body $-1 $14 $-1 $15 #
body $-1 $16 $-1 $17 #
body $-1 $18 $-1 $19 #
body $-1 $20 $-1 $21 #
body $-1 $22 $-1 $23 #
body $-1 $24 $-1 $25 #
body $-1 $26 $-1 $27 #
body $-1 $28 $-1 $29 #
body $-1 $30 $-1 $31 #
body $-1 $32 $-1 $33 #
body $-1 $34 $-1 $35 #
body $-1 $36 $-1 $37 #
body $-1 $38 $-1 $39 #
body $-1 $40 $-1 $41 #
lump $-1 $-1 $42 $0 #
transform $-1 1 0 0 0 1 0 0 0 1 48.092287972655413 19.921159234988004 5.154623510661513 1 rotate no_reflect no_shear #
lump $-1 $-1 $43 $1 #
transform $-1 1 0 0 0 1 0 0 0 1 48.092287972655413 19.921159234988004 5.154623510661513 1 rotate no_reflect no_shear #
lump $-1 $-1 $44 $2 #
transform $-1 1 0 0 0 1 0 0 0 1 48.092287972655413 19.921159234988004 5.154623510661513 1 rotate no_reflect no_shear #
lump $-1 $-1 $45 $3 #
transform $-1 1 0 0 0 1 0 0 0 1 48.092287972655413 19.921159234988004 5.154623510661513 1 rotate no_reflect no_shear #
lump $-1 $-1 $46 $4 #
transform $-1 1 0 0 0 1 0 0 0 1 48.092287972655413 19.921159234988004 5.154623510661513 1 rotate no_reflect no_shear #
lump $-1 $-1 $47 $5 #
transform $-1 1 0 0 0 1 0 0 0 1 48.092287972655413 19.921159234988004 5.154623510661513 1 rotate no_reflect no_shear #
lump $-1 $-1 $48 $6 #
transform $-1 1 0 0 0 1 0 0 0 1 48.092287972655413 19.921159234988004 5.154623510661513 1 rotate no_reflect no_shear #
lump $-1 $-1 $49 $7 #
transform $-1 1 0 0 0 1 0 0 0 1 48.092287972655413 19.921159234988004 5.154623510661513 1 rotate no_reflect no_shear #
lump $-1 $-1 $50 $8 #
transform $-1 1 0 0 0 1 0 0 0 1 48.092287972655413 19.921159234988004 5.154623510661513 1 rotate no_reflect no_shear #
lump $-1 $-1 $51 $9 #
transform $-1 1 0 0 0 1 0 0 0 1 48.092287972655413 19.921159234988004 5.154623510661513 1 rotate no_reflect no_shear #
lump $-1 $-1 $52 $10 #
transform $-1 1 0 0 0 1 0 0 0 1 48.092287972655413 19.921159234988004 5.154623510661513 1 rotate no_reflect no_shear #
lump $-1 $-1 $53 $11 #
transform $-1 1 0 0 0 1 0 0 0 1 48.092287972655413 19.921159234988004 5.154623510661513 1 rotate no_reflect no_shear #
lump $-1 $-1 $54 $12 #
transform $-1 1 0 0 0 1 0 0 0 1 48.092287972655413 19.921159234988004 5.154623510661513 1 rotate no_reflect no_shear #
lump $-1 $-1 $55 $13 #
transform $-1 1 0 0 0 1 0 0 0 1 48.092287972655413 19.921159234988004 5.154623510661513 1 rotate no_reflect no_shear #
shell $-1 $-1 $-1 $56 $-1 $14 #
shell $-1 $-1 $-1 $57 $-1 $16 #
shell $-1 $-1 $-1 $58 $-1 $18 #
shell $-1 $-1 $-1 $59 $-1 $20 #
shell $-1 $-1 $-1 $60 $-1 $22 #
shell $-1 $-1 $-1 $61 $-1 $24 #
shell $-1 $-1 $-1 $62 $-1 $26 #
shell $-1 $-1 $-1 $63 $-1 $28 #
shell $-1 $-1 $-1 $64 $-1 $30 #
shell $-1 $-1 $-1 $65 $-1 $32 #
shell $-1 $-1 $-1 $66 $-1 $34 #
shell $-1 $-1 $-1 $67 $-1 $36 #
shell $-1 $-1 $-1 $68 $-1 $38 #
shell $-1 $-1 $-1 $69 $-1 $40 #
face $-1 $70 $71 $42 $-1 $72 forward single #
face $-1 $73 $74 $43 $-1 $75 reversed single #
face $-1 $76 $77 $44 $-1 $78 reversed single #
face $-1 $79 $80 $45 $-1 $81 forward single #
face $-1 $82 $83 $46 $-1 $84 forward single #
face $-1 $85 $86 $47 $-1 $87 forward single #
face $-1 $88 $89 $48 $-1 $90 reversed single #
face $-1 $91 $92 $49 $-1 $93 forward single #
face $-1 $94 $95 $50 $-1 $96 forward single #
face $-1 $97 $98 $51 $-1 $99 forward single #
face $-1 $100 $101 $52 $-1 $102 reversed single #
face $-1 $103 $104 $53 $-1 $105 forward single #
face $-1 $106 $107 $54 $-1 $108 forward single #
face $-1 $109 $110 $55 $-1 $111 forward single #
face $-1 $112 $113 $42 $-1 $114 reversed single #
loop $-1 $-1 $115 $56 #
plane-surface $-1 0 0 5.154623510661513 0 0 1 1 0 0 forward_v I I I I #
face $-1 $116 $117 $43 $-1 $118 reversed single #
loop $-1 $-1 $119 $57 #
plane-surface $-1 0 -18.152802612832563 2.154623510661513 0 0 1 1 0 0 forward_v I I I I #
face $-1 $120 $121 $44 $-1 $122 reversed single #
loop $-1 $-1 $123 $58 #
plane-surface $-1 80.999844481748653 -8.6386138335430918 133.24592676310684 0 -1 0 -0.85716730853699208 0 -0.51503806187062418 forward_v I I I I #
face $-1 $124 $125 $45 $-1 $126 forward single #
loop $-1 $127 $128 $59 #
cone-surface $-1 46.493922344501691 -14.835279559250315 2.9502602746814981 -0.85716730853699208 0 -0.51503806187062418 0.25751903093531209 0 -0.42858365426849604 1 I I 0 1 0.5 forward I I I I #
face $-1 $129 $130 $46 $-1 $131 forward single #
loop $-1 $132 $133 $60 #
cone-surface $-1 46.493922344501691 -12.511529912110106 2.9502602746814981 -0.85716730853699208 0 -0.51503806187062418 0.25751903093531209 0 -0.42858365426849604 1 I I 0 1 0.5 forward I I I I #
face $-1 $134 $135 $47 $-1 $136 forward single #
loop $-1 $137 $138 $61 #
cone-surface $-1 46.493922344501691 -10.187780264969897 2.9502602746814981 -0.85716730853699208 0 -0.51503806187062418 0.25751903093531209 0 -0.42858365426849604 1 I I 0 1 0.5 forward I I I I #
face $-1 $139 $140 $48 $-1 $141 reversed single #
loop $-1 $-1 $142 $62 #
plane-surface $-1 80.999844481748653 9.514188779289471 133.24592676310684 0 -1 0 -0.85716730853699208 0 -0.51503806187062418 forward_v I I I I #
face $-1 $143 $144 $49 $-1 $145 forward single #
loop $-1 $146 $147 $63 #
cone-surface $-1 46.493922344501691 3.3175230535822493 2.9502602746814981 -0.85716730853699208 0 -0.51503806187062418 0.25751903093531209 0 -0.42858365426849604 1 I I 0 1 0.5 forward I I I I #
face $-1 $148 $149 $50 $-1 $150 forward single #
loop $-1 $151 $152 $64 #
cone-surface $-1 46.493922344501691 5.6412727007224568 2.9502602746814981 -0.85716730853699208 0 -0.51503806187062418 0.25751903093531209 0 -0.42858365426849604 1 I I 0 1 0.5 forward I I I I #
face $-1 $153 $154 $51 $-1 $155 forward single #
loop $-1 $156 $157 $65 #
cone-surface $-1 46.493922344501691 7.9650223478626643 2.9502602746814981 -0.85716730853699208 0 -0.51503806187062418 0.25751903093531209 0 -0.42858365426849604 1 I I 0 1 0.5 forward I I I I #
face $-1 $158 $159 $52 $-1 $160 reversed single #
loop $-1 $-1 $161 $66 #
plane-surface $-1 -48.092287972655406 -12.786029731510165 0.67281434861564549 -0.55919291073839883 0 0.82903756765294845 0.82903756765294845 0 0.55919291073839883 forward_v I I I I #
face $-1 $162 $163 $53 $-1 $164 forward single #
loop $-1 $165 $166 $67 #
cone-surface $-1 -44.316923660802473 -14.945079487010339 2.2419902726848719 0.55919291073839883 0 -0.82903756765294845 0.41451878382647422 0 0.27959645536919941 1 I I 0 1 0.5 forward I I I I #
face $-1 $167 $168 $54 $-1 $169 forward single #
loop $-1 $170 $171 $68 #
cone-surface $-1 -44.316923660802473 -12.786029731510167 2.2419902726848719 0.55919291073839883 0 -0.82903756765294845 0.41451878382647422 0 0.27959645536919941 1 I I 0 1 0.5 forward I I I I #
face $-1 $172 $173 $55 $-1 $174 forward single #
loop $-1 $175 $176 $69 #
cone-surface $-1 -44.316923660802473 -10.626979976009995 2.2419902726848719 0.55919291073839883 0 -0.82903756765294845 0.41451878382647422 0 0.27959645536919941 1 I I 0 1 0.5 forward I I I I #
face $-1 $177 $178 $42 $-1 $179 reversed single #
loop $-1 $-1 $180 $70 #
plane-surface $-1 0 0 -5.154623510661513 0 0 1 1 0 0 forward_v I I I I #
coedge $-1 $181 $182 $183 $184 forward $71 $-1 #
face $-1 $185 $186 $43 $-1 $187 reversed single #
loop $-1 $-1 $188 $73 #
plane-surface $-1 0 -16.384445990677122 3.654623510661513 0 -1 0 0 0 -1 forward_v I I I I #
coedge $-1 $189 $190 $191 $192 reversed $74 $-1 #
face $-1 $193 $194 $44 $-1 $195 forward single #
loop $-1 $-1 $196 $76 #
plane-surface $-1 -1.4464296040653437 -12.511529912110106 83.707209186386081 0.85716730853699208 0 0.51503806187062418 0.51503806187062418 0 -0.85716730853699208 forward_v I I I I #
coedge $-1 $197 $198 $199 $200 reversed $77 $-1 #
face $-1 $-1 $201 $45 $-1 $202 forward single #
loop $-1 $203 $204 $79 #
cone-surface $-1 45.851046863098944 -14.835279559250315 2.56398172827853 -0.85716730853699208 0 -0.51503806187062418 0.12875951546765604 0 -0.21429182713424802 1 I I -0.70710678118654746 0.70710678118654746 0.25 forward I I I I #
loop $-1 $-1 $205 $59 #
coedge $-1 $128 $128 $206 $207 reversed $80 $-1 #
face $-1 $-1 $208 $46 $-1 $209 forward single #
loop $-1 $210 $211 $82 #
cone-surface $-1 45.851046863098944 -12.511529912110106 2.56398172827853 -0.85716730853699208 0 -0.51503806187062418 0.12875951546765604 0 -0.21429182713424802 1 I I -0.70710678118654746 0.70710678118654746 0.25 forward I I I I #
loop $-1 $-1 $212 $60 #
coedge $-1 $133 $133 $213 $214 reversed $83 $-1 #
face $-1 $-1 $215 $47 $-1 $216 forward single #
loop $-1 $217 $218 $85 #
cone-surface $-1 45.851046863098944 -10.187780264969897 2.56398172827853 -0.85716730853699208 0 -0.51503806187062418 0.12875951546765604 0 -0.21429182713424802 1 I I -0.70710678118654746 0.70710678118654746 0.25 forward I I I I #
loop $-1 $-1 $219 $61 #
coedge $-1 $138 $138 $220 $221 reversed $86 $-1 #
face $-1 $222 $223 $48 $-1 $224 reversed single #
loop $-1 $-1 $225 $88 #
plane-surface $-1 -1.4464296040653437 5.6412727007224568 83.707209186386081 0.85716730853699208 0 0.51503806187062418 0.51503806187062418 0 -0.85716730853699208 forward_v I I I I #
coedge $-1 $226 $227 $228 $229 reversed $89 $-1 #
face $-1 $-1 $230 $49 $-1 $231 forward single #
loop $-1 $232 $233 $91 #
cone-surface $-1 45.851046863098944 3.3175230535822493 2.56398172827853 -0.85716730853699208 0 -0.51503806187062418 0.12875951546765604 0 -0.21429182713424802 1 I I -0.70710678118654746 0.70710678118654746 0.25 forward I I I I #
loop $-1 $-1 $234 $63 #
coedge $-1 $147 $147 $235 $236 reversed $92 $-1 #
face $-1 $-1 $237 $50 $-1 $238 forward single #
loop $-1 $239 $240 $94 #
cone-surface $-1 45.851046863098944 5.6412727007224568 2.56398172827853 -0.85716730853699208 0 -0.51503806187062418 0.12875951546765604 0 -0.21429182713424802 1 I I -0.70710678118654746 0.70710678118654746 0.25 forward I I I I #
loop $-1 $-1 $241 $64 #
coedge $-1 $152 $152 $242 $243 reversed $95 $-1 #
face $-1 $-1 $244 $51 $-1 $245 forward single #
loop $-1 $246 $247 $97 #
cone-surface $-1 45.851046863098944 7.9650223478626643 2.56398172827853 -0.85716730853699208 0 -0.51503806187062418 0.12875951546765604 0 -0.21429182713424802 1 I I -0.70710678118654746 0.70710678118654746 0.25 forward I I I I #
loop $-1 $-1 $248 $65 #
coedge $-1 $157 $157 $249 $250 reversed $98 $-1 #
face $-1 $251 $252 $52 $-1 $253 forward single #
loop $-1 $-1 $254 $100 #
plane-surface $-1 -101.87802096365235 -9.1876134723432124 80.413441236046424 0 -1 0 0.55919291073839883 0 -0.82903756765294845 forward_v I I I I #
coedge $-1 $255 $256 $257 $258 reversed $101 $-1 #
face $-1 $-1 $259 $53 $-1 $260 forward single #
loop $-1 $261 $262 $103 #
cone-surface $-1 -43.724038724427757 -14.945079487010339 1.3630022238179329 0.55919291073839883 0 -0.82903756765294845 0.20725939191323711 0 0.13979822768459971 1 I I -0.70710678118654746 0.70710678118654746 0.25 forward I I I I #
loop $-1 $-1 $263 $67 #
coedge $-1 $166 $166 $264 $265 reversed $104 $-1 #
face $-1 $-1 $266 $54 $-1 $267 forward single #
loop $-1 $268 $269 $106 #
cone-surface $-1 -43.724038724427757 -12.786029731510167 1.3630022238179329 0.55919291073839883 0 -0.82903756765294845 0.20725939191323711 0 0.13979822768459971 1 I I -0.70710678118654746 0.70710678118654746 0.25 forward I I I I #
loop $-1 $-1 $270 $68 #
coedge $-1 $171 $171 $271 $272 reversed $107 $-1 #
face $-1 $-1 $273 $55 $-1 $274 forward single #
loop $-1 $275 $276 $109 #
cone-surface $-1 -43.724038724427757 -10.626979976009995 1.3630022238179329 0.55919291073839883 0 -0.82903756765294845 0.20725939191323711 0 0.13979822768459971 1 I I -0.70710678118654746 0.70710678118654746 0.25 forward I I I I #
loop $-1 $-1 $277 $69 #
coedge $-1 $176 $176 $278 $279 reversed $110 $-1 #
face $-1 $280 $281 $42 $-1 $282 reversed single #
loop $-1 $-1 $283 $112 #
plane-surface $-1 0 -19.921159234988004 0 0 1 0 0 0 1 forward_v I I I I #
coedge $-1 $284 $285 $286 $287 forward $113 $-1 #
coedge $-1 $288 $115 $289 $290 forward $71 $-1 #
coedge $-1 $115 $288 $291 $292 forward $71 $-1 #
coedge $-1 $293 $294 $115 $184 reversed $295 $-1 #
edge $-1 $296 -19.921159234988004 $297 19.921159234988004 $183 $298 forward 7 unknown #
face $-1 $299 $300 $43 $-1 $301 reversed single #
loop $-1 $-1 $302 $116 #
plane-surface $-1 -48.092287972655413 0 0 1 0 0 0 0 -1 forward_v I I I I #
coedge $-1 $303 $304 $305 $306 reversed $117 $-1 #
coedge $-1 $307 $119 $308 $309 reversed $74 $-1 #
coedge $-1 $119 $307 $303 $310 forward $74 $-1 #
coedge $-1 $305 $311 $119 $192 forward $312 $-1 #
edge $-1 $313 -10.844757928571722 $314 -7.3080446842608406 $191 $315 forward 7 unknown #
face $-1 $316 $317 $44 $-1 $318 forward single #
loop $-1 $-1 $319 $120 #
plane-surface $-1 0 -16.384445990677122 3.654623510661513 0 -1 0 0 0 -1 forward_v I I I I #
coedge $-1 $320 $321 $322 $323 reversed $121 $-1 #
coedge $-1 $198 $123 $324 $325 reversed $77 $-1 #
coedge $-1 $123 $197 $320 $326 reversed $77 $-1 #
coedge $-1 $322 $327 $123 $200 forward $317 $-1 #
edge $-1 $328 -7.5923657317810864 $329 -5.2528017840106429 $199 $330 forward 7 unknown #
loop $-1 $-1 $206 $124 #
plane-surface $-1 -1.4464296040653437 -12.511529912110106 83.707209186386081 0.85716730853699208 0 0.51503806187062418 0.51503806187062418 0 -0.85716730853699208 forward_v I I I I #
loop $-1 $-1 $331 $79 #
coedge $-1 $204 $204 $205 $332 reversed $125 $-1 #
coedge $-1 $205 $205 $204 $332 forward $127 $-1 #
coedge $-1 $206 $206 $128 $207 forward $201 $-1 #
edge $-1 $333 0 $333 6.2831853071796004 $206 $334 forward 7 unknown #
loop $-1 $-1 $213 $129 #
plane-surface $-1 -1.4464296040653437 -12.511529912110106 83.707209186386081 0.85716730853699208 0 0.51503806187062418 0.51503806187062418 0 -0.85716730853699208 forward_v I I I I #
loop $-1 $-1 $335 $82 #
coedge $-1 $211 $211 $212 $336 reversed $130 $-1 #
coedge $-1 $212 $212 $211 $336 forward $132 $-1 #
coedge $-1 $213 $213 $133 $214 forward $208 $-1 #
edge $-1 $337 0 $337 6.2831853071796004 $213 $338 forward 7 unknown #
loop $-1 $-1 $220 $134 #
plane-surface $-1 -1.4464296040653437 -12.511529912110106 83.707209186386081 0.85716730853699208 0 0.51503806187062418 0.51503806187062418 0 -0.85716730853699208 forward_v I I I I #
loop $-1 $-1 $339 $85 #
coedge $-1 $218 $218 $219 $340 reversed $135 $-1 #
coedge $-1 $219 $219 $218 $340 forward $137 $-1 #
coedge $-1 $220 $220 $138 $221 forward $215 $-1 #
edge $-1 $341 0 $341 6.2831853071796004 $220 $342 forward 7 unknown #
face $-1 $343 $344 $48 $-1 $345 reversed single #
loop $-1 $-1 $346 $139 #
plane-surface $-1 80.999844481748653 1.7683566221554425 133.24592676310684 0 1 0 0.85716730853699208 0 0.51503806187062418 forward_v I I I I #
coedge $-1 $347 $348 $349 $350 reversed $140 $-1 #
coedge $-1 $227 $142 $351 $352 reversed $89 $-1 #
coedge $-1 $142 $226 $347 $353 reversed $89 $-1 #
coedge $-1 $349 $354 $142 $229 forward $355 $-1 #
edge $-1 $356 -7.5923657317810864 $357 -5.2528017840106429 $228 $358 forward 7 unknown #
loop $-1 $-1 $235 $143 #
plane-surface $-1 -1.4464296040653437 5.6412727007224568 83.707209186386081 0.85716730853699208 0 0.51503806187062418 0.51503806187062418 0 -0.85716730853699208 forward_v I I I I #
loop $-1 $-1 $359 $91 #
coedge $-1 $233 $233 $234 $360 reversed $144 $-1 #
coedge $-1 $234 $234 $233 $360 forward $146 $-1 #
coedge $-1 $235 $235 $147 $236 forward $230 $-1 #
edge $-1 $361 0 $361 6.2831853071796004 $235 $362 forward 7 unknown #
loop $-1 $-1 $242 $148 #
plane-surface $-1 -1.4464296040653437 5.6412727007224568 83.707209186386081 0.85716730853699208 0 0.51503806187062418 0.51503806187062418 0 -0.85716730853699208 forward_v I I I I #
loop $-1 $-1 $363 $94 #
coedge $-1 $240 $240 $241 $364 reversed $149 $-1 #
coedge $-1 $241 $241 $240 $364 forward $151 $-1 #
coedge $-1 $242 $242 $152 $243 forward $237 $-1 #
edge $-1 $365 0 $365 6.2831853071796004 $242 $366 forward 7 unknown #
loop $-1 $-1 $249 $153 #
plane-surface $-1 -1.4464296040653437 5.6412727007224568 83.707209186386081 0.85716730853699208 0 0.51503806187062418 0.51503806187062418 0 -0.85716730853699208 forward_v I I I I #
loop $-1 $-1 $367 $97 #
coedge $-1 $247 $247 $248 $368 reversed $154 $-1 #
coedge $-1 $248 $248 $247 $368 forward $156 $-1 #
coedge $-1 $249 $249 $157 $250 forward $244 $-1 #
edge $-1 $369 0 $369 6.2831853071796004 $249 $370 forward 7 unknown #
face $-1 $371 $372 $52 $-1 $373 reversed single #
loop $-1 $-1 $257 $158 #
plane-surface $-1 0 0 5.154623510661513 0 0 1 1 0 0 forward_v I I I I #
coedge $-1 $374 $375 $376 $377 reversed $159 $-1 #
coedge $-1 $378 $161 $379 $380 reversed $101 $-1 #
coedge $-1 $161 $378 $374 $381 forward $101 $-1 #
coedge $-1 $376 $382 $161 $258 forward $252 $-1 #
edge $-1 $383 -9.9914311249220358 $384 -2.7945986065881296 $257 $385 forward 7 unknown #
loop $-1 $-1 $264 $162 #
plane-surface $-1 -48.092287972655406 -12.786029731510165 0.67281434861564549 -0.55919291073839883 0 0.82903756765294845 0.82903756765294845 0 0.55919291073839883 forward_v I I I I #
loop $-1 $-1 $386 $103 #
coedge $-1 $262 $262 $263 $387 reversed $163 $-1 #
coedge $-1 $263 $263 $262 $387 forward $165 $-1 #
coedge $-1 $264 $264 $166 $265 forward $259 $-1 #
edge $-1 $388 0 $388 6.2831853071796004 $264 $389 forward 7 unknown #
loop $-1 $-1 $271 $167 #
plane-surface $-1 -48.092287972655406 -12.786029731510165 0.67281434861564549 -0.55919291073839883 0 0.82903756765294845 0.82903756765294845 0 0.55919291073839883 forward_v I I I I #
loop $-1 $-1 $390 $106 #
coedge $-1 $269 $269 $270 $391 reversed $168 $-1 #
coedge $-1 $270 $270 $269 $391 forward $170 $-1 #
coedge $-1 $271 $271 $171 $272 forward $266 $-1 #
edge $-1 $392 0 $392 6.2831853071796004 $271 $393 forward 7 unknown #
loop $-1 $-1 $278 $172 #
plane-surface $-1 -48.092287972655406 -12.786029731510165 0.67281434861564549 -0.55919291073839883 0 0.82903756765294845 0.82903756765294845 0 0.55919291073839883 forward_v I I I I #
loop $-1 $-1 $394 $109 #
coedge $-1 $276 $276 $277 $395 reversed $173 $-1 #
coedge $-1 $277 $277 $276 $395 forward $175 $-1 #
coedge $-1 $278 $278 $176 $279 forward $273 $-1 #
edge $-1 $396 0 $396 6.2831853071796004 $278 $397 forward 7 unknown #
face $-1 $398 $399 $42 $-1 $400 reversed single #
loop $-1 $-1 $401 $177 #
plane-surface $-1 -48.092287972655413 0 0 1 0 0 0 0 -1 forward_v I I I I #
coedge $-1 $402 $291 $403 $404 forward $178 $-1 #
coedge $-1 $405 $180 $402 $406 forward $113 $-1 #
coedge $-1 $180 $405 $407 $408 forward $113 $-1 #
coedge $-1 $294 $293 $180 $287 reversed $295 $-1 #
edge $-1 $409 -19.921159234988004 $410 19.921159234988004 $286 $411 forward 7 unknown #
coedge $-1 $182 $181 $412 $413 forward $71 $-1 #
coedge $-1 $414 $415 $181 $290 reversed $399 $-1 #
edge $-1 $297 -48.092287972655413 $416 48.092287972655413 $289 $417 forward 7 unknown #
coedge $-1 $283 $418 $182 $292 reversed $178 $-1 #
edge $-1 $419 -48.092287972655413 $296 48.092287972655413 $291 $420 forward 7 unknown #
coedge $-1 $286 $183 $418 $421 forward $295 $-1 #
coedge $-1 $183 $286 $414 $422 reversed $295 $-1 #
loop $-1 $-1 $293 $398 #
vertex $-1 $184 $423 #
vertex $-1 $184 $424 #
straight-curve $-1 48.092287972655413 0 5.154623510661513 0 1 0 I I #
face $-1 $425 $426 $43 $-1 $427 forward single #
loop $-1 $-1 $308 $185 #
plane-surface $-1 0 -19.921159234988004 0 0 1 0 0 0 1 forward_v I I I I #
coedge $-1 $428 $429 $430 $431 forward $186 $-1 #
coedge $-1 $430 $188 $190 $310 reversed $117 $-1 #
coedge $-1 $188 $430 $432 $433 reversed $117 $-1 #
coedge $-1 $434 $191 $188 $306 forward $312 $-1 #
edge $-1 $314 0.32731175533075652 $435 3.3273117553307565 $305 $436 forward 7 unknown #
coedge $-1 $190 $189 $428 $437 reversed $74 $-1 #
coedge $-1 $438 $439 $189 $309 forward $300 $-1 #
edge $-1 $440 -48.092287972655413 $313 48.092287972655413 $308 $441 forward 7 unknown #
edge $-1 $442 -48.092287972655413 $314 48.092287972655413 $303 $443 forward 7 unknown #
coedge $-1 $191 $434 $438 $444 forward $312 $-1 #
loop $-1 $-1 $305 $425 #
vertex $-1 $309 $445 #
vertex $-1 $192 $446 #
straight-curve $-1 48.092287972655413 -9.0764013064162814 2.154623510661513 0 1 0 I I #
face $-1 $-1 $447 $44 $-1 $448 reversed single #
loop $-1 $-1 $322 $193 #
plane-surface $-1 0 0 5.154623510661513 0 0 1 1 0 0 forward_v I I I I #
coedge $-1 $449 $450 $321 $451 reversed $194 $-1 #
coedge $-1 $452 $196 $198 $326 forward $121 $-1 #
coedge $-1 $196 $452 $319 $451 forward $121 $-1 #
coedge $-1 $453 $199 $196 $323 forward $317 $-1 #
edge $-1 $329 2.3828488774880388 $454 10.128681034622069 $322 $455 forward 7 unknown #
coedge $-1 $456 $457 $197 $325 forward $447 $-1 #
edge $-1 $458 -65.362028280981335 $328 -61.468339870891903 $324 $459 forward 7 unknown #
edge $-1 $329 91.642069049270745 $458 96.18457594531084 $198 $460 forward 7 unknown #
coedge $-1 $199 $453 $456 $461 forward $317 $-1 #
vertex $-1 $325 $462 #
vertex $-1 $200 $463 #
straight-curve $-1 40.499922240874326 -8.6386138335430918 5.1546235106615086 -1 0 0 I I #
coedge $-1 $331 $331 $-1 $464 reversed $203 $-1 #
edge $-1 $465 0 $465 6.2831853071796004 $204 $466 forward 7 unknown #
vertex $-1 $207 $467 #
ellipse-curve $-1 46.922505998770184 -14.835279559250315 3.2077793056168065 0.85716730853699208 0 0.51503806187062418 0.25751903093531209 0 -0.42858365426849604 1 I I #
coedge $-1 $335 $335 $-1 $468 reversed $210 $-1 #
edge $-1 $469 0 $469 6.2831853071796004 $211 $470 forward 7 unknown #
vertex $-1 $214 $471 #
ellipse-curve $-1 46.922505998770184 -12.511529912110106 3.2077793056168065 0.85716730853699208 0 0.51503806187062418 0.25751903093531209 0 -0.42858365426849604 1 I I #
coedge $-1 $339 $339 $-1 $472 reversed $217 $-1 #
edge $-1 $473 0 $473 6.2831853071796004 $218 $474 forward 7 unknown #
vertex $-1 $221 $475 #
ellipse-curve $-1 46.922505998770184 -10.187780264969897 3.2077793056168065 0.85716730853699208 0 0.51503806187062418 0.25751903093531209 0 -0.42858365426849604 1 I I #
face $-1 $-1 $355 $48 $-1 $476 forward single #
loop $-1 $-1 $477 $222 #
plane-surface $-1 48.092287972655413 0 0 -1 0 0 0 0 1 forward_v I I I I #
coedge $-1 $478 $479 $480 $481 reversed $223 $-1 #
coedge $-1 $482 $225 $227 $353 forward $140 $-1 #
coedge $-1 $225 $482 $478 $483 forward $140 $-1 #
coedge $-1 $480 $228 $225 $350 forward $355 $-1 #
edge $-1 $357 -6.6935524289282426 $484 1.0522797282057859 $349 $485 forward 7 unknown #
coedge $-1 $486 $487 $226 $352 forward $344 $-1 #
edge $-1 $488 -65.362028280981335 $356 -61.468339870891903 $351 $489 forward 7 unknown #
edge $-1 $357 91.642069049270745 $488 96.18457594531084 $227 $490 forward 7 unknown #
coedge $-1 $228 $480 $486 $491 forward $355 $-1 #
loop $-1 $-1 $480 $343 #
vertex $-1 $352 $492 #
vertex $-1 $229 $493 #
straight-curve $-1 40.499922240874326 9.514188779289471 5.1546235106615086 -1 0 0 I I #
coedge $-1 $359 $359 $-1 $494 reversed $232 $-1 #
edge $-1 $495 0 $495 6.2831853071796004 $233 $496 forward 7 unknown #
vertex $-1 $236 $497 #
ellipse-curve $-1 46.922505998770184 3.3175230535822493 3.2077793056168065 0.85716730853699208 0 0.51503806187062418 0.25751903093531209 0 -0.42858365426849604 1 I I #
coedge $-1 $363 $363 $-1 $498 reversed $239 $-1 #
edge $-1 $499 0 $499 6.2831853071796004 $240 $500 forward 7 unknown #
vertex $-1 $243 $501 #
ellipse-curve $-1 46.922505998770184 5.6412727007224568 3.2077793056168065 0.85716730853699208 0 0.51503806187062418 0.25751903093531209 0 -0.42858365426849604 1 I I #
coedge $-1 $367 $367 $-1 $502 reversed $246 $-1 #
edge $-1 $503 0 $503 6.2831853071796004 $247 $504 forward 7 unknown #
vertex $-1 $250 $505 #
ellipse-curve $-1 46.922505998770184 7.9650223478626643 3.2077793056168065 0.85716730853699208 0 0.51503806187062418 0.25751903093531209 0 -0.42858365426849604 1 I I #
face $-1 $-1 $506 $52 $-1 $507 forward single #
loop $-1 $-1 $508 $251 #
plane-surface $-1 -48.092287972655413 0 0 1 0 0 0 0 -1 forward_v I I I I #
coedge $-1 $375 $254 $256 $381 reversed $159 $-1 #
coedge $-1 $254 $374 $508 $509 reversed $159 $-1 #
coedge $-1 $510 $257 $254 $377 forward $252 $-1 #
edge $-1 $384 -9.4912777154963877 $511 -2.8467225091707604 $376 $512 forward 7 unknown #
coedge $-1 $256 $255 $513 $514 reversed $101 $-1 #
coedge $-1 $515 $516 $255 $380 forward $506 $-1 #
edge $-1 $517 -20.768859994153129 $383 -12.754078197066741 $379 $518 forward 7 unknown #
edge $-1 $519 -8.5602302459286524e-015 $384 8.0147817970863802 $374 $520 forward 7 unknown #
coedge $-1 $257 $510 $515 $521 forward $252 $-1 #
vertex $-1 $380 $522 #
vertex $-1 $258 $523 #
straight-curve $-1 -41.447732766329786 -6.3930148657550827 5.1546235106615139 0 1 0 I I #
coedge $-1 $386 $386 $-1 $524 reversed $261 $-1 #
edge $-1 $525 0 $525 6.2831853071796004 $262 $526 forward 7 unknown #
vertex $-1 $265 $527 #
ellipse-curve $-1 -44.770010369492596 -14.945079487010339 2.9137189296385797 -0.55919291073839883 0 0.82903756765294845 0.41451878382647422 0 0.27959645536919941 1 I I #
coedge $-1 $390 $390 $-1 $528 reversed $268 $-1 #
edge $-1 $529 0 $529 6.2831853071796004 $269 $530 forward 7 unknown #
vertex $-1 $272 $531 #
ellipse-curve $-1 -44.770010369492596 -12.786029731510167 2.9137189296385797 -0.55919291073839883 0 0.82903756765294845 0.41451878382647422 0 0.27959645536919941 1 I I #
coedge $-1 $394 $394 $-1 $532 reversed $275 $-1 #
edge $-1 $533 0 $533 6.2831853071796004 $276 $534 forward 7 unknown #
vertex $-1 $279 $535 #
ellipse-curve $-1 -44.770010369492596 -10.626979976009995 2.9137189296385797 -0.55919291073839883 0 0.82903756765294845 0.41451878382647422 0 0.27959645536919941 1 I I #
face $-1 $-1 $295 $42 $-1 $536 reversed single #
loop $-1 $-1 $414 $280 #
plane-surface $-1 0 19.921159234988004 0 0 -1 0 0 0 -1 forward_v I I I I #
coedge $-1 $537 $412 $415 $538 forward $281 $-1 #
coedge $-1 $418 $283 $284 $406 reversed $178 $-1 #
coedge $-1 $412 $537 $283 $404 reversed $281 $-1 #
edge $-1 $419 -5.154623510661513 $539 5.154623510661513 $403 $540 forward 7 unknown #
coedge $-1 $285 $284 $537 $541 forward $113 $-1 #
edge $-1 $410 -48.092287972655413 $539 48.092287972655413 $402 $542 forward 7 unknown #
coedge $-1 $415 $414 $285 $408 reversed $399 $-1 #
edge $-1 $543 -48.092287972655413 $409 48.092287972655413 $407 $544 forward 7 unknown #
vertex $-1 $287 $545 #
vertex $-1 $421 $546 #
straight-curve $-1 48.092287972655413 0 -5.154623510661513 0 -1 0 I I #
coedge $-1 $401 $403 $288 $413 reversed $281 $-1 #
edge $-1 $416 -19.921159234988004 $419 19.921159234988004 $412 $547 forward 7 unknown #
coedge $-1 $407 $289 $294 $422 forward $399 $-1 #
coedge $-1 $289 $407 $401 $538 reversed $399 $-1 #
vertex $-1 $290 $548 #
straight-curve $-1 0 19.921159234988004 5.154623510661513 -1 0 0 I I #
coedge $-1 $291 $402 $293 $421 reversed $178 $-1 #
vertex $-1 $413 $549 #
straight-curve $-1 0 -19.921159234988004 5.154623510661513 1 0 0 I I #
edge $-1 $296 -5.154623510661513 $410 5.154623510661513 $293 $550 forward 7 unknown #
edge $-1 $297 -5.154623510661513 $409 5.154623510661513 $294 $551 forward 7 unknown #
point $-1 48.092287972655413 -19.921159234988004 5.154623510661513 #
point $-1 48.092287972655413 19.921159234988004 5.154623510661513 #
face $-1 $-1 $312 $43 $-1 $552 reversed single #
loop $-1 $-1 $432 $299 #
plane-surface $-1 0 0 5.154623510661513 0 0 1 1 0 0 forward_v I I I I #
coedge $-1 $553 $302 $307 $437 forward $186 $-1 #
coedge $-1 $302 $553 $554 $555 reversed $186 $-1 #
coedge $-1 $304 $303 $302 $431 reversed $117 $-1 #
edge $-1 $556 -3.3273117553307565 $442 -0.32731175533075652 $302 $557 forward 7 unknown #
coedge $-1 $554 $558 $304 $433 forward $426 $-1 #
edge $-1 $435 -48.092287972655413 $556 48.092287972655413 $432 $559 forward 7 unknown #
coedge $-1 $311 $305 $558 $560 reversed $312 $-1 #
vertex $-1 $306 $561 #
straight-curve $-1 48.092287972655413 -16.384445990677122 1.8273117553307565 0 0 1 I I #
edge $-1 $442 7.3080446842608406 $440 10.844757928571722 $428 $562 forward 7 unknown #
coedge $-1 $563 $308 $311 $444 reversed $300 $-1 #
coedge $-1 $308 $563 $553 $564 forward $300 $-1 #
vertex $-1 $309 $565 #
straight-curve $-1 0 -19.921159234988004 2.154623510661513 1 0 0 I I #
vertex $-1 $437 $566 #
straight-curve $-1 0 -16.384445990677122 2.154623510661513 1 0 0 I I #
edge $-1 $567 -5.154623510661513 $313 -2.154623510661513 $311 $568 forward 7 unknown #
point $-1 48.092287972655413 -19.921159234988004 2.154623510661513 #
point $-1 48.092287972655413 -16.384445990677122 2.154623510661513 #
loop $-1 $-1 $324 $316 #
plane-surface $-1 48.092287972655413 0 0 -1 0 0 0 0 1 forward_v I I I I #
coedge $-1 $450 $319 $569 $570 reversed $194 $-1 #
coedge $-1 $319 $449 $453 $571 reversed $194 $-1 #
edge $-1 $572 -96.18457594531084 $454 -91.642069049270745 $319 $573 forward 7 unknown #
coedge $-1 $321 $320 $457 $574 reversed $121 $-1 #
coedge $-1 $327 $322 $450 $571 forward $317 $-1 #
vertex $-1 $571 $575 #
straight-curve $-1 45.752724024884955 -6.255764956055053 5.1546235106615086 0 -1 0 I I #
coedge $-1 $569 $324 $327 $461 reversed $447 $-1 #
coedge $-1 $324 $569 $452 $574 forward $447 $-1 #
vertex $-1 $325 $576 #
straight-curve $-1 48.092287972655413 -8.6386138335430918 66.622963381553419 0 0 1 I I #
straight-curve $-1 -1.4464296040653437 -8.6386138335430918 83.707209186386081 0.51503806187062418 0 -0.85716730853699208 I I #
edge $-1 $577 -16.384445990677122 $328 -8.6386138335430918 $456 $578 forward 7 unknown #
point $-1 48.092287972655413 -8.6386138335430918 5.154623510661513 #
point $-1 45.752724024884969 -8.6386138335430918 5.1546235106615086 #
edge $-1 $579 1 $579 0 $331 $-1 forward 7 unknown #
vertex $-1 $332 $580 #
ellipse-curve $-1 46.06533869023319 -14.835279559250315 2.6927412437461862 0.85716730853699208 0 0.51503806187062418 0.25751903093531209 0 -0.42858365426849604 1 I I #
point $-1 47.180025029705497 -14.835279559250315 2.779195651348314 #
edge $-1 $581 1 $581 0 $335 $-1 forward 7 unknown #
vertex $-1 $336 $582 #
ellipse-curve $-1 46.06533869023319 -12.511529912110106 2.6927412437461862 0.85716730853699208 0 0.51503806187062418 0.25751903093531209 0 -0.42858365426849604 1 I I #
point $-1 47.180025029705497 -12.511529912110106 2.779195651348314 #
edge $-1 $583 1 $583 0 $339 $-1 forward 7 unknown #
vertex $-1 $340 $584 #
ellipse-curve $-1 46.06533869023319 -10.187780264969897 2.6927412437461862 0.85716730853699208 0 0.51503806187062418 0.25751903093531209 0 -0.42858365426849604 1 I I #
point $-1 47.180025029705497 -10.187780264969897 2.779195651348314 #
plane-surface $-1 0 0 5.154623510661513 0 0 1 1 0 0 forward_v I I I I #
coedge $-1 $487 $486 $479 $585 forward $344 $-1 #
coedge $-1 $479 $346 $348 $483 reversed $223 $-1 #
coedge $-1 $346 $478 $477 $585 reversed $223 $-1 #
coedge $-1 $354 $349 $346 $481 forward $355 $-1 #
edge $-1 $484 5.2528017840106429 $586 7.5923657317810864 $480 $587 forward 7 unknown #
coedge $-1 $348 $347 $487 $588 reversed $140 $-1 #
edge $-1 $589 -96.18457594531084 $484 -91.642069049270745 $478 $590 forward 7 unknown #
vertex $-1 $350 $591 #
straight-curve $-1 45.752724024884955 2.8206363503612284 5.1546235106615086 0 -1 0 I I #
coedge $-1 $477 $351 $354 $491 reversed $344 $-1 #
coedge $-1 $351 $477 $482 $588 forward $344 $-1 #
vertex $-1 $352 $592 #
straight-curve $-1 48.092287972655413 9.514188779289471 66.622963381553419 0 0 1 I I #
straight-curve $-1 -1.4464296040653437 9.514188779289471 83.707209186386081 0.51503806187062418 0 -0.85716730853699208 I I #
edge $-1 $586 1.7683566221554425 $356 9.514188779289471 $486 $593 forward 7 unknown #
point $-1 48.092287972655413 9.514188779289471 5.154623510661513 #
point $-1 45.752724024884969 9.514188779289471 5.1546235106615086 #
edge $-1 $594 1 $594 0 $359 $-1 forward 7 unknown #
vertex $-1 $360 $595 #
ellipse-curve $-1 46.06533869023319 3.3175230535822493 2.6927412437461862 0.85716730853699208 0 0.51503806187062418 0.25751903093531209 0 -0.42858365426849604 1 I I #
point $-1 47.180025029705497 3.3175230535822493 2.779195651348314 #
edge $-1 $596 1 $596 0 $363 $-1 forward 7 unknown #
vertex $-1 $364 $597 #
ellipse-curve $-1 46.06533869023319 5.6412727007224568 2.6927412437461862 0.85716730853699208 0 0.51503806187062418 0.25751903093531209 0 -0.42858365426849604 1 I I #
point $-1 47.180025029705497 5.6412727007224568 2.779195651348314 #
edge $-1 $598 1 $598 0 $367 $-1 forward 7 unknown #
vertex $-1 $368 $599 #
ellipse-curve $-1 46.06533869023319 7.9650223478626643 2.6927412437461862 0.85716730853699208 0 0.51503806187062418 0.25751903093531209 0 -0.42858365426849604 1 I I #
point $-1 47.180025029705497 7.9650223478626643 2.779195651348314 #
loop $-1 $-1 $379 $371 #
plane-surface $-1 0 -16.384445990677122 3.654623510661513 0 -1 0 0 0 -1 forward_v I I I I #
coedge $-1 $513 $600 $375 $509 forward $372 $-1 #
edge $-1 $511 35.052097107361696 $519 39.533906269407574 $508 $601 forward 7 unknown #
coedge $-1 $382 $376 $600 $602 forward $252 $-1 #
vertex $-1 $602 $603 #
straight-curve $-1 -50.939010481826173 -9.1876134723432124 5.1546235106615157 -1 0 0 I I #
coedge $-1 $604 $508 $378 $514 forward $372 $-1 #
edge $-1 $519 2.7945986065881296 $517 9.9914311249220358 $513 $605 forward 7 unknown #
coedge $-1 $516 $379 $382 $521 reversed $506 $-1 #
coedge $-1 $379 $515 $604 $606 reversed $506 $-1 #
vertex $-1 $606 $607 #
straight-curve $-1 -30.874122800178071 -16.384445990677122 12.286613621464413 0.82903756765294845 0 0.55919291073839883 I I #
vertex $-1 $514 $608 #
straight-curve $-1 -48.092287972655406 -9.1876134723432124 0.67281434861564549 0.82903756765294845 0 0.55919291073839883 I I #
edge $-1 $609 -48.092287972655413 $383 -41.447732766329786 $382 $610 forward 7 unknown #
point $-1 -41.447732766329786 -16.384445990677118 5.154623510661513 #
point $-1 -41.447732766329786 -9.1876134723432124 5.154623510661513 #
edge $-1 $611 1 $611 0 $386 $-1 forward 7 unknown #
vertex $-1 $387 $612 #
ellipse-curve $-1 -43.863836952112358 -14.945079487010339 1.57026161573117 -0.55919291073839883 0 0.82903756765294845 0.41451878382647422 0 0.27959645536919941 1 I I #
point $-1 -44.355491585666122 -14.945079487010339 3.1933153850077733 #
edge $-1 $613 1 $613 0 $390 $-1 forward 7 unknown #
vertex $-1 $391 $614 #
ellipse-curve $-1 -43.863836952112358 -12.786029731510167 1.57026161573117 -0.55919291073839883 0 0.82903756765294845 0.41451878382647422 0 0.27959645536919941 1 I I #
point $-1 -44.355491585666122 -12.786029731510167 3.1933153850077733 #
edge $-1 $615 1 $615 0 $394 $-1 forward 7 unknown #
vertex $-1 $395 $616 #
ellipse-curve $-1 -43.863836952112358 -10.626979976009995 1.57026161573117 -0.55919291073839883 0 0.82903756765294845 0.41451878382647422 0 0.27959645536919941 1 I I #
point $-1 -44.355491585666122 -10.626979976009995 3.1933153850077733 #
plane-surface $-1 48.092287972655413 0 0 -1 0 0 0 0 1 forward_v I I I I #
coedge $-1 $403 $401 $405 $541 reversed $281 $-1 #
edge $-1 $416 -5.154623510661513 $543 5.154623510661513 $415 $617 forward 7 unknown #
vertex $-1 $541 $618 #
straight-curve $-1 -48.092287972655413 -19.921159234988004 0 0 0 -1 I I #
edge $-1 $539 -19.921159234988004 $543 19.921159234988004 $537 $619 forward 7 unknown #
straight-curve $-1 0 -19.921159234988004 -5.154623510661513 -1 0 0 I I #
vertex $-1 $408 $620 #
straight-curve $-1 0 19.921159234988004 -5.154623510661513 1 0 0 I I #
point $-1 48.092287972655413 19.921159234988004 -5.154623510661513 #
point $-1 48.092287972655413 -19.921159234988004 -5.154623510661513 #
straight-curve $-1 -48.092287972655413 0 5.154623510661513 0 -1 0 I I #
point $-1 -48.092287972655413 19.921159234988004 5.154623510661513 #
point $-1 -48.092287972655413 -19.921159234988004 5.154623510661513 #
straight-curve $-1 48.092287972655413 -19.921159234988004 0 0 0 -1 I I #
straight-curve $-1 48.092287972655413 19.921159234988004 0 0 0 -1 I I #
plane-surface $-1 48.092287972655413 0 0 -1 0 0 0 0 1 forward_v I I I I #
coedge $-1 $429 $428 $439 $564 reversed $186 $-1 #
coedge $-1 $621 $432 $429 $555 forward $426 $-1 #
edge $-1 $556 16.384445990677122 $622 19.921159234988004 $429 $623 forward 7 unknown #
vertex $-1 $555 $624 #
straight-curve $-1 -48.092287972655413 -16.384445990677122 1.8273117553307565 0 0 -1 I I #
coedge $-1 $432 $621 $434 $560 forward $426 $-1 #
straight-curve $-1 0 -16.384445990677122 5.154623510661513 -1 0 0 I I #
edge $-1 $567 -19.921159234988004 $435 -16.384445990677122 $434 $625 forward 7 unknown #
point $-1 48.092287972655413 -16.384445990677122 5.154623510661513 #
straight-curve $-1 -48.092287972655413 -9.0764013064162814 2.154623510661513 0 -1 0 I I #
coedge $-1 $439 $438 $621 $626 reversed $300 $-1 #
edge $-1 $622 -5.154623510661513 $440 -2.154623510661513 $553 $627 forward 7 unknown #
point $-1 -48.092287972655413 -19.921159234988004 2.154623510661513 #
point $-1 -48.092287972655413 -16.384445990677122 2.154623510661513 #
vertex $-1 $560 $628 #
straight-curve $-1 48.092287972655413 -19.921159234988004 0 0 0 -1 I I #
coedge $-1 $457 $456 $449 $570 forward $447 $-1 #
edge $-1 $577 61.468339870891903 $572 65.362028280981335 $569 $629 forward 7 unknown #
edge $-1 $454 45.752724024884969 $577 48.092287972655413 $453 $630 forward 7 unknown #
vertex $-1 $570 $631 #
straight-curve $-1 -1.4464296040653437 -16.384445990677122 83.707209186386081 -0.51503806187062418 0 0.85716730853699208 I I #
edge $-1 $572 -10.128681034622069 $458 -2.3828488774880388 $457 $632 forward 7 unknown #
point $-1 45.752724024884969 -16.384445990677122 5.154623510661513 #
point $-1 48.092287972655413 -8.6386138335430918 1.2609351005720839 #
vertex $-1 $461 $633 #
straight-curve $-1 48.092287972655413 0 5.154623510661513 0 1 0 I I #
vertex $-1 $464 $634 #
point $-1 46.322857721168504 -14.835279559250315 2.2641575894776897 #
vertex $-1 $468 $635 #
point $-1 46.322857721168504 -12.511529912110106 2.2641575894776897 #
vertex $-1 $472 $636 #
point $-1 46.322857721168504 -10.187780264969897 2.2641575894776897 #
edge $-1 $586 61.468339870891903 $589 65.362028280981335 $477 $637 forward 7 unknown #
vertex $-1 $491 $638 #
straight-curve $-1 40.499922240874326 1.7683566221554425 5.1546235106615086 1 0 0 I I #
edge $-1 $589 -1.0522797282057859 $488 6.6935524289282426 $487 $639 forward 7 unknown #
vertex $-1 $588 $640 #
straight-curve $-1 -1.4464296040653437 1.7683566221554425 83.707209186386081 -0.51503806187062418 0 0.85716730853699208 I I #
point $-1 45.752724024884969 1.7683566221554425 5.1546235106615086 #
point $-1 48.092287972655413 9.514188779289471 1.2609351005720839 #
straight-curve $-1 48.092287972655413 0 5.154623510661513 0 1 0 I I #
vertex $-1 $494 $641 #
point $-1 46.322857721168504 3.3175230535822493 2.2641575894776897 #
vertex $-1 $498 $642 #
point $-1 46.322857721168504 5.6412727007224568 2.2641575894776897 #
vertex $-1 $502 $643 #
point $-1 46.322857721168504 7.9650223478626643 2.2641575894776897 #
coedge $-1 $508 $604 $510 $602 reversed $372 $-1 #
straight-curve $-1 -48.092287972655413 -9.1876134723432124 40.206720618023212 0 0 -1 I I #
edge $-1 $511 9.1876134723432124 $609 16.384445990677122 $600 $644 forward 7 unknown #
point $-1 -48.092287972655413 -9.1876134723432124 5.154623510661513 #
coedge $-1 $600 $513 $516 $606 forward $372 $-1 #
straight-curve $-1 -48.092287972655413 -6.3930148657550827 0.67281434861564449 0 -1 0 I I #
edge $-1 $517 -39.533906269407574 $609 -35.052097107361696 $604 $645 forward 7 unknown #
point $-1 -48.092287972655413 -16.384445990677118 0.67281434861564071 #
point $-1 -48.092287972655413 -9.1876134723432124 0.67281434861564071 #
vertex $-1 $606 $646 #
straight-curve $-1 0 -16.384445990677122 5.154623510661513 1 0 0 I I #
vertex $-1 $524 $647 #
point $-1 -43.449318168285885 -14.945079487010339 1.8498580711003694 #
vertex $-1 $528 $648 #
point $-1 -43.449318168285885 -12.786029731510167 1.8498580711003694 #
vertex $-1 $532 $649 #
point $-1 -43.449318168285885 -10.626979976009995 1.8498580711003694 #
straight-curve $-1 -48.092287972655413 19.921159234988004 0 0 0 -1 I I #
point $-1 -48.092287972655413 -19.921159234988004 -5.154623510661513 #
straight-curve $-1 -48.092287972655413 0 -5.154623510661513 0 1 0 I I #
point $-1 -48.092287972655413 19.921159234988004 -5.154623510661513 #
coedge $-1 $558 $554 $563 $626 forward $426 $-1 #
vertex $-1 $555 $650 #
straight-curve $-1 -48.092287972655413 0 5.154623510661513 0 -1 0 I I #
point $-1 -48.092287972655413 -16.384445990677122 5.154623510661513 #
straight-curve $-1 48.092287972655413 0 5.154623510661513 0 1 0 I I #
edge $-1 $622 -48.092287972655413 $567 48.092287972655413 $563 $651 forward 7 unknown #
straight-curve $-1 -48.092287972655413 -19.921159234988004 0 0 0 -1 I I #
point $-1 48.092287972655413 -19.921159234988004 5.154623510661513 #
straight-curve $-1 48.092287972655413 -16.384445990677122 66.622963381553419 0 0 -1 I I #
straight-curve $-1 0 -16.384445990677122 5.154623510661513 1 0 0 I I #
point $-1 48.092287972655413 -16.384445990677122 1.2609351005720839 #
straight-curve $-1 48.092287972655413 -6.255764956055053 1.2609351005720697 0 1 0 I I #
point $-1 48.092287972655413 -16.384445990677122 5.154623510661513 #
point $-1 45.636755035964697 -14.835279559250315 2.4352222128108738 #
point $-1 45.636755035964697 -12.511529912110106 2.4352222128108738 #
point $-1 45.636755035964697 -10.187780264969897 2.4352222128108738 #
straight-curve $-1 48.092287972655413 1.7683566221554425 66.622963381553419 0 0 -1 I I #
point $-1 48.092287972655413 1.7683566221554425 5.154623510661513 #
straight-curve $-1 48.092287972655413 2.8206363503612284 1.2609351005720697 0 1 0 I I #
point $-1 48.092287972655413 1.7683566221554425 1.2609351005720839 #
point $-1 45.636755035964697 3.3175230535822493 2.4352222128108738 #
point $-1 45.636755035964697 5.6412727007224568 2.4352222128108738 #
point $-1 45.636755035964697 7.9650223478626643 2.4352222128108738 #
straight-curve $-1 -48.092287972655413 0 5.154623510661513 0 -1 0 I I #
straight-curve $-1 -48.092287972655413 -16.384445990677118 40.206720618023212 0 0 1 I I #
point $-1 -48.092287972655413 -16.384445990677122 5.154623510661513 #
point $-1 -43.584240496743156 -14.945079487010339 1.1557428319046958 #
point $-1 -43.584240496743156 -12.786029731510167 1.1557428319046958 #
point $-1 -43.584240496743156 -10.626979976009995 1.1557428319046958 #
point $-1 -48.092287972655413 -19.921159234988004 5.154623510661513 #
straight-curve $-1 0 -19.921159234988004 5.154623510661513 1 0 0 I I #
End-of-ACIS-data 