500 0 5 0           
7 Unknown 11 ACIS 5.0 NT 24 Fri Mar 26 20:09:01 1999 
-1 9.9999999999999995e-007 1e-010 
body $-1 $5 $-1 $6 #
body $-1 $7 $-1 $8 #
body $-1 $9 $-1 $10 #
body $-1 $11 $-1 $12 #
body $-1 $13 $-1 $14 #
lump $-1 $-1 $15 $0 #
transform $-1 1 0 0 0 1 0 0 0 1 45.521408734397411 19.073785618450962 6.7553694107084965 1 rotate no_reflect no_shear #
lump $-1 $-1 $16 $1 #
transform $-1 1 0 0 0 1 0 0 0 1 45.521408734397411 19.073785618450962 6.7553694107084965 1 rotate no_reflect no_shear #
lump $-1 $-1 $17 $2 #
transform $-1 1 0 0 0 1 0 0 0 1 45.521408734397411 19.073785618450962 6.7553694107084965 1 rotate no_reflect no_shear #
lump $-1 $-1 $18 $3 #
transform $-1 1 0 0 0 1 0 0 0 1 45.521408734397411 19.073785618450962 6.7553694107084965 1 rotate no_reflect no_shear #
lump $-1 $-1 $19 $4 #
transform $-1 1 0 0 0 1 0 0 0 1 45.521408734397411 19.073785618450962 6.7553694107084965 1 rotate no_reflect no_shear #
shell $-1 $-1 $-1 $20 $-1 $5 #
shell $-1 $-1 $-1 $21 $-1 $7 #
shell $-1 $-1 $-1 $22 $-1 $9 #
shell $-1 $-1 $-1 $23 $-1 $11 #
shell $-1 $-1 $-1 $24 $-1 $13 #
face $-1 $25 $26 $15 $-1 $27 reversed single #
face $-1 $28 $29 $16 $-1 $30 forward single #
face $-1 $31 $32 $17 $-1 $33 reversed single #
face $-1 $34 $35 $18 $-1 $36 forward single #
face $-1 $37 $38 $19 $-1 $39 forward single #
face $-1 $40 $41 $15 $-1 $42 forward single #
loop $-1 $-1 $43 $20 #
plane-surface $-1 0 -19.073785618450962 0 0 1 0 0 0 1 forward_v I I I I #
face $-1 $44 $45 $16 $-1 $46 reversed single #
loop $-1 $-1 $47 $21 #
plane-surface $-1 0 -19.073785618450962 0 0 1 0 0 0 1 forward_v I I I I #
face $-1 $48 $49 $17 $-1 $50 reversed single #
loop $-1 $-1 $51 $22 #
plane-surface $-1 -31.381389740273946 58.064979161883095 93.229827045528481 -1 0 0 0 0.71933980857756763 0.69465836192734942 forward_v I I I I #
face $-1 $52 $53 $18 $-1 $54 forward single #
loop $-1 $55 $56 $23 #
cone-surface $-1 -41.481403307504991 16.324946546452992 3.9588653368623863 0 -0.71933980857756763 -0.69465836192734942 1 0 0 1 I I 0 1 1 forward I I I I #
face $-1 $57 $58 $19 $-1 $59 forward single #
loop $-1 $60 $61 $24 #
cone-surface $-1 -35.421395167166366 16.324946546452992 3.9588653368623863 0 -0.71933980857756763 -0.69465836192734942 1 0 0 1 I I 0 1 1 forward I I I I #
face $-1 $62 $63 $15 $-1 $64 reversed single #
loop $-1 $-1 $65 $25 #
plane-surface $-1 0 0 6.7553694107084965 0 0 1 1 0 0 forward_v I I I I #
coedge $-1 $66 $67 $68 $69 reversed $26 $-1 #
face $-1 $70 $71 $16 $-1 $72 reversed single #
loop $-1 $-1 $73 $28 #
plane-surface $-1 0 0 -6.7553694107084965 0 0 1 1 0 0 forward_v I I I I #
coedge $-1 $74 $75 $76 $77 forward $29 $-1 #
face $-1 $78 $79 $17 $-1 $80 reversed single #
loop $-1 $-1 $81 $31 #
plane-surface $-1 -38.451399237335679 -7.4257437284822103 29.986172597404796 0 0.71933980857756763 0.69465836192734942 1 0 0 forward_v I I I I #
coedge $-1 $82 $83 $84 $85 reversed $32 $-1 #
face $-1 $-1 $86 $18 $-1 $87 forward single #
loop $-1 $88 $89 $34 #
cone-surface $-1 -41.481403307504991 15.249339576295142 2.9201637843305264 0 -0.71933980857756763 -0.69465836192734942 0.5 0 0 1 I I -0.70710678118654746 0.70710678118654746 0.5 forward I I I I #
loop $-1 $-1 $90 $23 #
coedge $-1 $56 $56 $91 $92 reversed $35 $-1 #
face $-1 $-1 $93 $19 $-1 $94 forward single #
loop $-1 $95 $96 $37 #
cone-surface $-1 -35.421395167166366 15.249339576295142 2.9201637843305264 0 -0.71933980857756763 -0.69465836192734942 0.5 0 0 1 I I -0.70710678118654746 0.70710678118654746 0.5 forward I I I I #
loop $-1 $-1 $97 $24 #
coedge $-1 $61 $61 $98 $99 reversed $38 $-1 #
face $-1 $100 $101 $15 $-1 $102 reversed single #
loop $-1 $-1 $103 $40 #
plane-surface $-1 0 0 -6.7553694107084965 0 0 1 1 0 0 forward_v I I I I #
coedge $-1 $104 $105 $106 $107 forward $41 $-1 #
coedge $-1 $108 $43 $109 $110 reversed $26 $-1 #
coedge $-1 $43 $108 $111 $112 forward $26 $-1 #
coedge $-1 $113 $103 $43 $69 forward $63 $-1 #
edge $-1 $114 -45.521408734397411 $115 45.521408734397411 $43 $116 forward 7 unknown #
face $-1 $117 $118 $16 $-1 $119 reversed single #
loop $-1 $-1 $120 $44 #
plane-surface $-1 -34.709074412532217 -25.604646768382658 0 0 1 0 0 0 1 forward_v I I I I #
coedge $-1 $121 $122 $75 $123 forward $45 $-1 #
coedge $-1 $124 $47 $125 $126 reversed $29 $-1 #
coedge $-1 $47 $124 $73 $123 reversed $29 $-1 #
coedge $-1 $127 $128 $47 $77 reversed $118 $-1 #
edge $-1 $129 -6.7553694107084965 $130 6.7553694107084965 $76 $131 forward 7 unknown #
face $-1 $132 $133 $17 $-1 $134 forward single #
loop $-1 $-1 $135 $48 #
plane-surface $-1 -45.521408734397411 0 0 1 0 0 0 0 -1 forward_v I I I I #
coedge $-1 $136 $137 $138 $139 reversed $49 $-1 #
coedge $-1 $83 $51 $140 $141 reversed $32 $-1 #
coedge $-1 $51 $82 $136 $142 reversed $32 $-1 #
coedge $-1 $138 $143 $51 $85 forward $144 $-1 #
edge $-1 $145 39.859544112055744 $146 44.069807516611611 $84 $147 forward 7 unknown #
loop $-1 $-1 $91 $52 #
plane-surface $-1 -38.451399237335679 -7.4257437284822103 29.986172597404796 0 0.71933980857756763 0.69465836192734942 1 0 0 forward_v I I I I #
loop $-1 $-1 $148 $34 #
coedge $-1 $89 $89 $90 $149 reversed $53 $-1 #
coedge $-1 $90 $90 $89 $149 forward $55 $-1 #
coedge $-1 $91 $91 $56 $92 forward $86 $-1 #
edge $-1 $150 -1.3654903019464444e-015 $150 6.2831853071795987 $91 $151 forward 7 unknown #
loop $-1 $-1 $98 $57 #
plane-surface $-1 -38.451399237335679 -7.4257437284822103 29.986172597404796 0 0.71933980857756763 0.69465836192734942 1 0 0 forward_v I I I I #
loop $-1 $-1 $152 $37 #
coedge $-1 $96 $96 $97 $153 reversed $58 $-1 #
coedge $-1 $97 $97 $96 $153 forward $60 $-1 #
coedge $-1 $98 $98 $61 $99 forward $93 $-1 #
edge $-1 $154 -1.3654903019464444e-015 $154 6.2831853071795987 $98 $155 forward 7 unknown #
face $-1 $156 $157 $15 $-1 $158 reversed single #
loop $-1 $-1 $159 $62 #
plane-surface $-1 -45.521408734397411 0 0 1 0 0 0 0 -1 forward_v I I I I #
coedge $-1 $68 $160 $161 $162 forward $63 $-1 #
coedge $-1 $163 $65 $164 $165 forward $41 $-1 #
coedge $-1 $65 $163 $108 $166 forward $41 $-1 #
coedge $-1 $109 $167 $65 $107 reversed $168 $-1 #
edge $-1 $169 -19.073785618450962 $170 19.073785618450962 $106 $171 forward 7 unknown #
coedge $-1 $67 $66 $105 $166 reversed $26 $-1 #
coedge $-1 $161 $106 $66 $110 forward $168 $-1 #
edge $-1 $169 -6.7553694107084965 $114 6.7553694107084965 $109 $172 forward 7 unknown #
coedge $-1 $173 $174 $67 $112 reversed $101 $-1 #
edge $-1 $175 -6.7553694107084965 $115 6.7553694107084965 $111 $176 forward 7 unknown #
coedge $-1 $160 $68 $174 $177 forward $63 $-1 #
vertex $-1 $110 $178 #
vertex $-1 $177 $179 #
straight-curve $-1 0 -19.073785618450962 -6.7553694107084965 -1 0 0 I I #
face $-1 $180 $181 $16 $-1 $182 reversed single #
loop $-1 $-1 $76 $70 #
plane-surface $-1 -36.209074412532217 -22.33921619341681 0 1 0 0 0 0 -1 forward_v I I I I #
coedge $-1 $183 $184 $185 $186 forward $71 $-1 #
coedge $-1 $187 $73 $188 $189 forward $45 $-1 #
coedge $-1 $73 $187 $127 $190 forward $45 $-1 #
edge $-1 $129 -36.209074412532217 $191 -33.209074412532217 $73 $192 forward 7 unknown #
coedge $-1 $75 $74 $193 $194 forward $29 $-1 #
coedge $-1 $195 $196 $74 $126 forward $197 $-1 #
edge $-1 $198 33.209074412532217 $130 36.209074412532217 $125 $199 forward 7 unknown #
coedge $-1 $185 $76 $122 $190 reversed $118 $-1 #
coedge $-1 $76 $185 $195 $200 reversed $118 $-1 #
vertex $-1 $123 $201 #
vertex $-1 $200 $202 #
straight-curve $-1 -36.209074412532217 -19.073785618450962 0 0 0 1 I I #
face $-1 $-1 $144 $17 $-1 $203 reversed single #
loop $-1 $-1 $140 $78 #
plane-surface $-1 0 0 6.7553694107084965 0 0 1 1 0 0 forward_v I I I I #
coedge $-1 $204 $205 $137 $206 forward $79 $-1 #
coedge $-1 $207 $81 $83 $142 forward $49 $-1 #
coedge $-1 $81 $207 $135 $206 reversed $49 $-1 #
coedge $-1 $208 $84 $81 $139 forward $144 $-1 #
edge $-1 $146 12.155690121606106 $209 26.295709115729572 $138 $210 forward 7 unknown #
coedge $-1 $211 $212 $82 $141 forward $133 $-1 #
edge $-1 $213 -14.024507974748403 $145 -9.9587039624905849 $140 $214 forward 7 unknown #
edge $-1 $146 -38.147571236901939 $213 -32.294616410334925 $83 $215 forward 7 unknown #
coedge $-1 $84 $208 $211 $216 reversed $144 $-1 #
loop $-1 $-1 $138 $132 #
vertex $-1 $216 $217 #
vertex $-1 $85 $218 #
straight-curve $-1 -31.381389740273946 19.073785618450962 46.61491352276424 0 0 -1 I I #
coedge $-1 $148 $148 $-1 $219 reversed $88 $-1 #
edge $-1 $220 0 $220 6.2831853071796004 $89 $221 forward 7 unknown #
vertex $-1 $92 $222 #
ellipse-curve $-1 -41.481403307504991 17.040883612322052 4.6502377084305664 0 0.71933980857756763 0.69465836192734942 1 0 0 1 I I #
coedge $-1 $152 $152 $-1 $223 reversed $95 $-1 #
edge $-1 $224 0 $224 6.2831853071796004 $96 $225 forward 7 unknown #
vertex $-1 $99 $226 #
ellipse-curve $-1 -35.421395167166366 17.040883612322052 4.6502377084305664 0 0.71933980857756763 0.69465836192734942 1 0 0 1 I I #
face $-1 $-1 $168 $15 $-1 $227 reversed single #
loop $-1 $-1 $228 $100 #
plane-surface $-1 0 19.073785618450962 0 0 -1 0 0 0 -1 forward_v I I I I #
coedge $-1 $174 $173 $229 $230 forward $101 $-1 #
coedge $-1 $103 $113 $231 $232 forward $63 $-1 #
coedge $-1 $167 $109 $103 $162 reversed $168 $-1 #
edge $-1 $233 -19.073785618450962 $114 19.073785618450962 $161 $234 forward 7 unknown #
coedge $-1 $105 $104 $173 $235 forward $41 $-1 #
coedge $-1 $228 $229 $104 $165 reversed $157 $-1 #
edge $-1 $170 -45.521408734397411 $236 45.521408734397411 $164 $237 forward 7 unknown #
edge $-1 $175 -45.521408734397411 $169 45.521408734397411 $108 $238 forward 7 unknown #
coedge $-1 $106 $161 $228 $239 reversed $168 $-1 #
loop $-1 $-1 $109 $156 #
vertex $-1 $107 $240 #
vertex $-1 $107 $241 #
straight-curve $-1 45.521408734397411 0 6.7553694107084965 0 1 0 I I #
straight-curve $-1 45.521408734397411 -19.073785618450962 0 0 0 -1 I I #
coedge $-1 $159 $111 $163 $235 reversed $101 $-1 #
coedge $-1 $111 $159 $113 $177 reversed $101 $-1 #
vertex $-1 $235 $242 #
straight-curve $-1 -45.521408734397411 -19.073785618450962 0 0 0 -1 I I #
edge $-1 $115 -19.073785618450962 $243 19.073785618450962 $174 $244 forward 7 unknown #
point $-1 45.521408734397411 -19.073785618450962 -6.7553694107084965 #
point $-1 -45.521408734397411 -19.073785618450962 -6.7553694107084965 #
face $-1 $-1 $197 $16 $-1 $245 forward single #
loop $-1 $-1 $246 $117 #
plane-surface $-1 -33.209074412532217 -22.33921619341681 0 -1 0 0 0 0 1 forward_v I I I I #
coedge $-1 $247 $120 $187 $248 reversed $71 $-1 #
coedge $-1 $120 $247 $249 $250 reversed $71 $-1 #
coedge $-1 $128 $127 $120 $186 reversed $118 $-1 #
edge $-1 $251 -6.7553694107084965 $252 6.7553694107084965 $185 $253 forward 7 unknown #
coedge $-1 $122 $121 $183 $248 forward $45 $-1 #
coedge $-1 $193 $246 $121 $189 reversed $181 $-1 #
edge $-1 $191 -3.2654305749658477 $254 3.2654305749658477 $188 $255 forward 7 unknown #
edge $-1 $252 -3.2654305749658477 $129 3.2654305749658477 $127 $256 forward 7 unknown #
vertex $-1 $189 $257 #
straight-curve $-1 0 -19.073785618450962 -6.7553694107084965 1 0 0 I I #
coedge $-1 $258 $188 $124 $194 reversed $181 $-1 #
edge $-1 $198 -6.7553694107084965 $191 6.7553694107084965 $193 $259 forward 7 unknown #
coedge $-1 $249 $125 $128 $200 forward $197 $-1 #
coedge $-1 $125 $249 $258 $260 forward $197 $-1 #
loop $-1 $-1 $125 $180 #
vertex $-1 $126 $261 #
straight-curve $-1 0 -19.073785618450962 6.7553694107084965 -1 0 0 I I #
edge $-1 $130 -3.2654305749658477 $251 3.2654305749658477 $128 $262 forward 7 unknown #
point $-1 -36.209074412532217 -19.073785618450962 -6.7553694107084965 #
point $-1 -36.209074412532217 -19.073785618450962 6.7553694107084965 #
plane-surface $-1 0 19.073785618450962 0 0 -1 0 0 0 -1 forward_v I I I I #
coedge $-1 $205 $135 $263 $264 reversed $79 $-1 #
coedge $-1 $135 $204 $208 $265 forward $79 $-1 #
edge $-1 $209 -24.783269921546534 $266 -18.93031509497952 $135 $267 forward 7 unknown #
coedge $-1 $137 $136 $212 $268 reversed $49 $-1 #
coedge $-1 $143 $138 $205 $265 reversed $144 $-1 #
vertex $-1 $206 $269 #
straight-curve $-1 -19.225699618667839 19.073785618450962 2.5451060061526309 -1 0 0 I I #
coedge $-1 $263 $140 $143 $216 forward $133 $-1 #
coedge $-1 $140 $263 $207 $268 forward $133 $-1 #
vertex $-1 $141 $270 #
straight-curve $-1 -31.381389740273946 29.032489580941547 6.7553694107084965 0 1 0 I I #
straight-curve $-1 -31.381389740273946 -7.4257437284822103 29.986172597404796 0 -0.69465836192734942 0.71933980857756763 I I #
edge $-1 $145 31.381389740273946 $271 45.521408734397411 $143 $272 forward 7 unknown #
point $-1 -31.381389740273946 19.073785618450962 6.7553694107084965 #
point $-1 -31.381389740273946 19.073785618450962 2.5451060061526292 #
edge $-1 $273 1 $273 0 $148 $-1 forward 7 unknown #
vertex $-1 $149 $274 #
ellipse-curve $-1 -41.481403307504991 15.609009480583927 3.2674929652942009 0 0.71933980857756763 0.69465836192734942 1 0 0 1 I I #
point $-1 -40.481403307504991 17.040883612322055 4.6502377084305717 #
edge $-1 $275 1 $275 0 $152 $-1 forward 7 unknown #
vertex $-1 $153 $276 #
ellipse-curve $-1 -35.421395167166366 15.609009480583927 3.2674929652942009 0 0.71933980857756763 0.69465836192734942 1 0 0 1 I I #
point $-1 -34.421395167166366 17.040883612322055 4.6502377084305717 #
plane-surface $-1 45.521408734397411 0 0 -1 0 0 0 0 1 forward_v I I I I #
coedge $-1 $231 $164 $167 $239 forward $157 $-1 #
coedge $-1 $164 $231 $159 $230 reversed $157 $-1 #
edge $-1 $236 -6.7553694107084965 $243 6.7553694107084965 $229 $277 forward 7 unknown #
coedge $-1 $229 $228 $160 $232 reversed $157 $-1 #
edge $-1 $243 -45.521408734397411 $233 45.521408734397411 $231 $278 forward 7 unknown #
vertex $-1 $162 $279 #
straight-curve $-1 45.521408734397411 0 -6.7553694107084965 0 -1 0 I I #
edge $-1 $236 -19.073785618450962 $175 19.073785618450962 $173 $280 forward 7 unknown #
vertex $-1 $165 $281 #
straight-curve $-1 0 19.073785618450962 6.7553694107084965 -1 0 0 I I #
straight-curve $-1 0 -19.073785618450962 6.7553694107084965 1 0 0 I I #
edge $-1 $170 -6.7553694107084965 $233 6.7553694107084965 $167 $282 forward 7 unknown #
point $-1 45.521408734397411 -19.073785618450962 6.7553694107084965 #
point $-1 45.521408734397411 19.073785618450962 6.7553694107084965 #
point $-1 -45.521408734397411 -19.073785618450962 6.7553694107084965 #
vertex $-1 $232 $283 #
straight-curve $-1 -45.521408734397411 0 -6.7553694107084965 0 1 0 I I #
plane-surface $-1 0 0 6.7553694107084965 0 0 1 1 0 0 forward_v I I I I #
coedge $-1 $188 $258 $247 $284 forward $181 $-1 #
coedge $-1 $184 $183 $246 $284 reversed $71 $-1 #
edge $-1 $254 -1.5 $252 1.5 $183 $285 forward 7 unknown #
coedge $-1 $196 $195 $184 $250 forward $197 $-1 #
edge $-1 $251 -1.5 $286 1.5 $184 $287 forward 7 unknown #
vertex $-1 $200 $288 #
vertex $-1 $190 $289 #
straight-curve $-1 -36.209074412532217 -25.604646768382658 0 0 0 -1 I I #
vertex $-1 $284 $290 #
straight-curve $-1 -33.209074412532217 -22.33921619341681 -6.7553694107084965 0 -1 0 I I #
straight-curve $-1 -36.209074412532217 -22.33921619341681 -6.7553694107084965 0 1 0 I I #
point $-1 -33.209074412532217 -19.073785618450962 -6.7553694107084965 #
coedge $-1 $246 $193 $196 $260 reversed $181 $-1 #
straight-curve $-1 -33.209074412532217 -19.073785618450962 0 0 0 -1 I I #
edge $-1 $286 -3.2654305749658477 $198 3.2654305749658477 $258 $291 forward 7 unknown #
point $-1 -33.209074412532217 -19.073785618450962 6.7553694107084965 #
straight-curve $-1 -36.209074412532217 -22.33921619341681 6.7553694107084965 0 -1 0 I I #
coedge $-1 $212 $211 $204 $264 forward $133 $-1 #
edge $-1 $271 -19.073785618450962 $266 -15.007981606193145 $204 $292 forward 7 unknown #
edge $-1 $271 -6.7553694107084965 $209 -2.5451060061526278 $208 $293 forward 7 unknown #
vertex $-1 $206 $294 #
straight-curve $-1 -45.521408734397411 1.8578799315460968 20.372698647444103 0 -0.69465836192734942 0.71933980857756763 I I #
edge $-1 $266 -26.295709115729572 $213 -12.155690121606106 $212 $295 forward 7 unknown #
point $-1 -45.521408734397411 19.073785618450962 2.5451060061526278 #
point $-1 -31.381389740273946 15.007981606193145 6.7553694107084965 #
vertex $-1 $216 $296 #
straight-curve $-1 0 19.073785618450962 6.7553694107084965 -1 0 0 I I #
vertex $-1 $219 $297 #
point $-1 -40.481403307504991 15.609009480583927 3.2674929652942009 #
vertex $-1 $223 $298 #
point $-1 -34.421395167166366 15.609009480583927 3.2674929652942009 #
straight-curve $-1 -45.521408734397411 19.073785618450962 0 0 0 -1 I I #
straight-curve $-1 0 19.073785618450962 -6.7553694107084965 1 0 0 I I #
point $-1 45.521408734397411 19.073785618450962 -6.7553694107084965 #
straight-curve $-1 -45.521408734397411 0 6.7553694107084965 0 -1 0 I I #
point $-1 -45.521408734397411 19.073785618450962 6.7553694107084965 #
straight-curve $-1 45.521408734397411 19.073785618450962 0 0 0 -1 I I #
point $-1 -45.521408734397411 19.073785618450962 -6.7553694107084965 #
edge $-1 $286 -6.7553694107084965 $254 6.7553694107084965 $246 $299 forward 7 unknown #
straight-curve $-1 -34.709074412532217 -25.604646768382658 -6.7553694107084965 -1 0 0 I I #
vertex $-1 $260 $300 #
straight-curve $-1 -34.709074412532217 -25.604646768382658 6.7553694107084965 1 0 0 I I #
point $-1 -36.209074412532217 -25.604646768382658 6.7553694107084965 #
point $-1 -36.209074412532217 -25.604646768382658 -6.7553694107084965 #
point $-1 -33.209074412532217 -25.604646768382658 -6.7553694107084965 #
straight-curve $-1 -33.209074412532217 -22.33921619341681 6.7553694107084965 0 1 0 I I #
straight-curve $-1 -45.521408734397411 0 6.7553694107084965 0 -1 0 I I #
straight-curve $-1 -45.521408734397411 19.073785618450962 0 0 0 -1 I I #
point $-1 -45.521408734397411 15.007981606193145 6.7553694107084965 #
straight-curve $-1 -19.225699618667839 15.007981606193145 6.7553694107084983 1 0 0 I I #
point $-1 -45.521408734397411 19.073785618450962 6.7553694107084965 #
point $-1 -41.481403307504991 14.889669672006358 2.5728346033668519 #
point $-1 -35.421395167166366 14.889669672006358 2.5728346033668519 #
straight-curve $-1 -33.209074412532217 -25.604646768382658 0 0 0 -1 I I #
point $-1 -33.209074412532217 -25.604646768382658 6.7553694107084965 #
End-of-ACIS-data 