500 0 6 0           
7 Unknown 11 ACIS 5.0 NT 24 Fri Mar 26 19:03:15 1999 
-1 9.9999999999999995e-007 1e-010 
body $-1 $6 $-1 $7 #
body $-1 $8 $-1 $9 #
body $-1 $10 $-1 $11 #
body $-1 $12 $-1 $13 #
body $-1 $14 $-1 $15 #
body $-1 $16 $-1 $17 #
lump $-1 $-1 $18 $0 #
transform $-1 1 0 0 0 1 0 0 0 1 70.854213080233166 35.326989041852634 15.931483415370842 1 rotate no_reflect no_shear #
lump $-1 $-1 $19 $1 #
transform $-1 1 0 0 0 1 0 0 0 1 70.854213080233166 35.326989041852634 15.931483415370842 1 rotate no_reflect no_shear #
lump $-1 $-1 $20 $2 #
transform $-1 1 0 0 0 1 0 0 0 1 70.854213080233166 35.326989041852634 15.931483415370842 1 rotate no_reflect no_shear #
lump $-1 $-1 $21 $3 #
transform $-1 1 0 0 0 1 0 0 0 1 70.854213080233166 35.326989041852634 15.931483415370842 1 rotate no_reflect no_shear #
lump $-1 $-1 $22 $4 #
transform $-1 1 0 0 0 1 0 0 0 1 70.854213080233166 35.326989041852634 15.931483415370842 1 rotate no_reflect no_shear #
lump $-1 $-1 $23 $5 #
transform $-1 1 0 0 0 1 0 0 0 1 70.854213080233166 35.326989041852634 15.931483415370842 1 rotate no_reflect no_shear #
shell $-1 $-1 $-1 $24 $-1 $6 #
shell $-1 $-1 $-1 $25 $-1 $8 #
shell $-1 $-1 $-1 $26 $-1 $10 #
shell $-1 $-1 $-1 $27 $-1 $12 #
shell $-1 $-1 $-1 $28 $-1 $14 #
shell $-1 $-1 $-1 $29 $-1 $16 #
face $-1 $30 $31 $18 $-1 $32 forward single #
face $-1 $33 $34 $19 $-1 $35 forward single #
face $-1 $36 $37 $20 $-1 $38 forward single #
face $-1 $39 $40 $21 $-1 $41 reversed single #
face $-1 $42 $43 $22 $-1 $44 forward single #
face $-1 $45 $46 $23 $-1 $47 forward single #
face $-1 $48 $49 $18 $-1 $50 reversed single #
loop $-1 $-1 $51 $24 #
plane-surface $-1 0 0 15.931483415370842 0 0 1 1 0 0 forward_v I I I I #
face $-1 $52 $53 $19 $-1 $54 reversed single #
loop $-1 $-1 $55 $25 #
plane-surface $-1 -63.121757454811274 0 -7.8150667386487846 0 0 1 1 0 0 forward_v I I I I #
face $-1 $56 $57 $20 $-1 $58 reversed single #
loop $-1 $-1 $59 $26 #
plane-surface $-1 63.121757454811274 0 -7.8150667386487846 0 0 1 1 0 0 forward_v I I I I #
face $-1 $60 $61 $21 $-1 $62 reversed single #
loop $-1 $-1 $63 $27 #
plane-surface $-1 24.207008300385212 110.88228103426817 150.09901837706283 -1 0 0 0 0.81915205242281985 0.57357642473473569 forward_v I I I I #
face $-1 $64 $65 $22 $-1 $66 forward single #
loop $-1 $67 $68 $28 #
cone-surface $-1 2.0750980450250296 32.439965767282885 12.638388597646268 0 -0.81915205242281985 -0.57357642473473569 1 0 0 1 I I 0 1 1 forward I I I I #
face $-1 $69 $70 $23 $-1 $71 forward single #
loop $-1 $72 $73 $29 #
cone-surface $-1 15.354244198241133 32.439965767282885 12.638388597646268 0 -0.81915205242281985 -0.57357642473473569 1 0 0 1 I I 0 1 1 forward I I I I #
face $-1 $74 $75 $18 $-1 $76 reversed single #
loop $-1 $-1 $77 $30 #
plane-surface $-1 0 0 -15.931483415370842 0 0 1 1 0 0 forward_v I I I I #
coedge $-1 $78 $79 $80 $81 forward $31 $-1 #
face $-1 $82 $83 $19 $-1 $84 reversed single #
loop $-1 $-1 $85 $33 #
plane-surface $-1 -55.389301829389382 0 -11.873275077009813 -1 0 0 0 0 1 forward_v I I I I #
coedge $-1 $86 $87 $88 $89 forward $34 $-1 #
face $-1 $90 $91 $20 $-1 $92 reversed single #
loop $-1 $-1 $93 $36 #
plane-surface $-1 55.389301829389382 0 -11.873275077009813 1 0 0 0 0 -1 forward_v I I I I #
coedge $-1 $94 $95 $96 $97 reversed $37 $-1 #
face $-1 $98 $99 $21 $-1 $100 reversed single #
loop $-1 $-1 $101 $39 #
plane-surface $-1 8.7146711216330885 -5.1984671006854342 68.818405945156272 0 0.81915205242281985 0.57357642473473569 1 0 0 forward_v I I I I #
coedge $-1 $102 $103 $104 $105 reversed $40 $-1 #
face $-1 $-1 $106 $22 $-1 $107 forward single #
loop $-1 $108 $109 $42 #
cone-surface $-1 2.0750980450250296 30.890184182583404 11.553219882213654 0 -0.81915205242281985 -0.57357642473473569 0.5 0 0 1 I I -0.70710678118654746 0.70710678118654746 0.5 forward I I I I #
loop $-1 $-1 $110 $28 #
coedge $-1 $68 $68 $111 $112 reversed $43 $-1 #
face $-1 $-1 $113 $23 $-1 $114 forward single #
loop $-1 $115 $116 $45 #
cone-surface $-1 15.354244198241133 30.890184182583404 11.553219882213654 0 -0.81915205242281985 -0.57357642473473569 0.5 0 0 1 I I -0.70710678118654746 0.70710678118654746 0.5 forward I I I I #
loop $-1 $-1 $117 $29 #
coedge $-1 $73 $73 $118 $119 reversed $46 $-1 #
face $-1 $120 $121 $18 $-1 $122 reversed single #
loop $-1 $-1 $123 $48 #
plane-surface $-1 0 -35.326989041852634 0 0 1 0 0 0 1 forward_v I I I I #
coedge $-1 $124 $125 $126 $127 forward $49 $-1 #
coedge $-1 $128 $51 $129 $130 forward $31 $-1 #
coedge $-1 $51 $128 $131 $132 forward $31 $-1 #
coedge $-1 $133 $134 $51 $81 reversed $135 $-1 #
edge $-1 $136 -35.326989041852634 $137 35.326989041852634 $80 $138 forward 7 unknown #
face $-1 $139 $140 $19 $-1 $141 reversed single #
loop $-1 $-1 $142 $52 #
plane-surface $-1 0 0 -15.931483415370842 0 0 1 1 0 0 forward_v I I I I #
coedge $-1 $143 $88 $144 $145 reversed $53 $-1 #
coedge $-1 $146 $55 $147 $148 reversed $34 $-1 #
coedge $-1 $55 $146 $149 $150 reversed $34 $-1 #
coedge $-1 $85 $151 $55 $89 reversed $53 $-1 #
edge $-1 $152 -35.326989041852634 $153 35.326989041852634 $88 $154 forward 7 unknown #
face $-1 $155 $156 $20 $-1 $157 reversed single #
loop $-1 $-1 $158 $56 #
plane-surface $-1 0 -35.326989041852634 0 0 1 0 0 0 1 forward_v I I I I #
coedge $-1 $159 $160 $161 $162 reversed $57 $-1 #
coedge $-1 $163 $59 $164 $165 reversed $37 $-1 #
coedge $-1 $59 $163 $158 $166 reversed $37 $-1 #
coedge $-1 $167 $168 $59 $97 forward $169 $-1 #
edge $-1 $170 -35.326989041852634 $171 35.326989041852634 $96 $172 forward 7 unknown #
face $-1 $173 $174 $21 $-1 $175 reversed single #
loop $-1 $-1 $176 $60 #
plane-surface $-1 -6.7776660571190348 110.88228103426817 150.09901837706283 1 0 0 0 -0.81915205242281985 -0.57357642473473569 forward_v I I I I #
coedge $-1 $177 $178 $179 $180 reversed $61 $-1 #
coedge $-1 $103 $63 $181 $182 reversed $40 $-1 #
coedge $-1 $63 $102 $177 $183 reversed $40 $-1 #
coedge $-1 $179 $184 $63 $105 forward $174 $-1 #
edge $-1 $185 59.118025773160575 $186 64.107454402479277 $104 $187 forward 7 unknown #
loop $-1 $-1 $111 $64 #
plane-surface $-1 8.7146711216330885 -5.1984671006854342 68.818405945156272 0 0.81915205242281985 0.57357642473473569 1 0 0 forward_v I I I I #
loop $-1 $-1 $188 $42 #
coedge $-1 $109 $109 $110 $189 reversed $65 $-1 #
coedge $-1 $110 $110 $109 $189 forward $67 $-1 #
coedge $-1 $111 $111 $68 $112 forward $106 $-1 #
edge $-1 $190 -1.4490671625246119e-015 $190 6.2831853071795987 $111 $191 forward 7 unknown #
loop $-1 $-1 $118 $69 #
plane-surface $-1 8.7146711216330885 -5.1984671006854342 68.818405945156272 0 0.81915205242281985 0.57357642473473569 1 0 0 forward_v I I I I #
loop $-1 $-1 $192 $45 #
coedge $-1 $116 $116 $117 $193 reversed $70 $-1 #
coedge $-1 $117 $117 $116 $193 forward $72 $-1 #
coedge $-1 $118 $118 $73 $119 forward $113 $-1 #
edge $-1 $194 -1.4490671625246119e-015 $194 6.2831853071795987 $118 $195 forward 7 unknown #
face $-1 $196 $197 $18 $-1 $198 reversed single #
loop $-1 $-1 $199 $74 #
plane-surface $-1 -70.854213080233166 0 0 1 0 0 0 0 -1 forward_v I I I I #
coedge $-1 $200 $131 $201 $202 forward $75 $-1 #
coedge $-1 $203 $77 $200 $204 forward $49 $-1 #
coedge $-1 $77 $203 $205 $206 forward $49 $-1 #
coedge $-1 $134 $133 $77 $127 reversed $135 $-1 #
edge $-1 $207 -35.326989041852634 $208 35.326989041852634 $126 $209 forward 7 unknown #
coedge $-1 $79 $78 $210 $211 forward $31 $-1 #
coedge $-1 $212 $213 $78 $130 reversed $197 $-1 #
edge $-1 $137 -70.854213080233166 $214 70.854213080233166 $129 $215 forward 7 unknown #
coedge $-1 $123 $216 $79 $132 reversed $75 $-1 #
edge $-1 $217 -70.854213080233166 $136 70.854213080233166 $131 $218 forward 7 unknown #
coedge $-1 $126 $80 $216 $219 forward $135 $-1 #
coedge $-1 $80 $126 $212 $220 reversed $135 $-1 #
loop $-1 $-1 $133 $196 #
vertex $-1 $81 $221 #
vertex $-1 $81 $222 #
straight-curve $-1 70.854213080233166 0 15.931483415370842 0 1 0 I I #
face $-1 $223 $224 $19 $-1 $225 reversed single #
loop $-1 $-1 $144 $82 #
plane-surface $-1 0 -35.326989041852634 0 0 1 0 0 0 1 forward_v I I I I #
coedge $-1 $226 $227 $143 $228 forward $83 $-1 #
coedge $-1 $151 $85 $142 $228 reversed $53 $-1 #
coedge $-1 $149 $229 $85 $145 forward $140 $-1 #
edge $-1 $230 -9.9948458768659343 $152 -1.878429200143878 $144 $231 forward 7 unknown #
coedge $-1 $87 $86 $232 $233 reversed $34 $-1 #
coedge $-1 $234 $235 $86 $148 forward $236 $-1 #
edge $-1 $237 -39.293334352827529 $153 -23.828423101983745 $147 $238 forward 7 unknown #
coedge $-1 $239 $144 $87 $150 forward $140 $-1 #
edge $-1 $152 23.828423101983745 $240 39.293334352827529 $149 $241 forward 7 unknown #
coedge $-1 $88 $143 $234 $242 reversed $53 $-1 #
vertex $-1 $150 $243 #
vertex $-1 $148 $244 #
straight-curve $-1 -55.389301829389382 0 -7.8150667386487846 0 1 0 I I #
face $-1 $245 $246 $20 $-1 $247 reversed single #
loop $-1 $-1 $248 $90 #
plane-surface $-1 0 0 -15.931483415370842 0 0 1 1 0 0 forward_v I I I I #
coedge $-1 $249 $250 $95 $166 forward $91 $-1 #
coedge $-1 $251 $93 $248 $252 reversed $57 $-1 #
coedge $-1 $93 $251 $163 $253 reversed $57 $-1 #
coedge $-1 $164 $254 $93 $162 forward $246 $-1 #
edge $-1 $255 -9.9948458768659343 $256 -1.878429200143878 $161 $257 forward 7 unknown #
coedge $-1 $95 $94 $160 $253 forward $37 $-1 #
coedge $-1 $258 $161 $94 $165 forward $246 $-1 #
edge $-1 $256 23.828423101983745 $170 39.293334352827529 $164 $259 forward 7 unknown #
edge $-1 $171 -39.293334352827529 $260 -23.828423101983745 $158 $261 forward 7 unknown #
coedge $-1 $262 $96 $250 $263 forward $169 $-1 #
coedge $-1 $96 $262 $258 $264 reversed $169 $-1 #
loop $-1 $-1 $96 $245 #
vertex $-1 $264 $265 #
vertex $-1 $263 $266 #
straight-curve $-1 70.854213080233166 0 -7.8150667386487846 0 -1 0 I I #
face $-1 $-1 $267 $21 $-1 $268 forward single #
loop $-1 $-1 $104 $98 #
plane-surface $-1 0 35.326989041852634 0 0 -1 0 0 0 -1 forward_v I I I I #
coedge $-1 $269 $270 $271 $272 reversed $99 $-1 #
coedge $-1 $273 $101 $103 $183 forward $61 $-1 #
coedge $-1 $101 $273 $269 $274 forward $61 $-1 #
coedge $-1 $271 $104 $101 $180 forward $174 $-1 #
edge $-1 $186 -19.849672739568668 $275 11.135001617935579 $179 $276 forward 7 unknown #
coedge $-1 $277 $278 $102 $182 forward $267 $-1 #
edge $-1 $279 -23.607786907444883 $185 -20.114151475281453 $181 $280 forward 7 unknown #
edge $-1 $186 -70.653978083705326 $279 -64.563010461074839 $103 $281 forward 7 unknown #
coedge $-1 $104 $271 $277 $282 reversed $174 $-1 #
vertex $-1 $282 $283 #
vertex $-1 $105 $284 #
straight-curve $-1 24.207008300385212 35.326989041852634 75.049509188531417 0 0 -1 I I #
coedge $-1 $188 $188 $-1 $285 reversed $108 $-1 #
edge $-1 $286 0 $286 6.2831853071796004 $109 $287 forward 7 unknown #
vertex $-1 $112 $288 #
ellipse-curve $-1 2.0750980450250296 33.58017132577092 13.436769100711487 0 0.81915205242281985 0.57357642473473569 1 0 0 1 I I #
coedge $-1 $192 $192 $-1 $289 reversed $115 $-1 #
edge $-1 $290 0 $290 6.2831853071796004 $116 $291 forward 7 unknown #
vertex $-1 $119 $292 #
ellipse-curve $-1 15.354244198241133 33.58017132577092 13.436769100711487 0 0.81915205242281985 0.57357642473473569 1 0 0 1 I I #
face $-1 $-1 $135 $18 $-1 $293 reversed single #
loop $-1 $-1 $212 $120 #
plane-surface $-1 0 35.326989041852634 0 0 -1 0 0 0 -1 forward_v I I I I #
coedge $-1 $294 $210 $213 $295 forward $121 $-1 #
coedge $-1 $216 $123 $124 $204 reversed $75 $-1 #
coedge $-1 $210 $294 $123 $202 reversed $121 $-1 #
edge $-1 $217 -15.931483415370842 $296 15.931483415370842 $201 $297 forward 7 unknown #
coedge $-1 $125 $124 $294 $298 forward $49 $-1 #
edge $-1 $208 -70.854213080233166 $296 70.854213080233166 $200 $299 forward 7 unknown #
coedge $-1 $213 $212 $125 $206 reversed $197 $-1 #
edge $-1 $300 -70.854213080233166 $207 70.854213080233166 $205 $301 forward 7 unknown #
vertex $-1 $127 $302 #
vertex $-1 $219 $303 #
straight-curve $-1 70.854213080233166 0 -15.931483415370842 0 -1 0 I I #
coedge $-1 $199 $201 $128 $211 reversed $121 $-1 #
edge $-1 $214 -35.326989041852634 $217 35.326989041852634 $210 $304 forward 7 unknown #
coedge $-1 $205 $129 $134 $220 forward $197 $-1 #
coedge $-1 $129 $205 $199 $295 reversed $197 $-1 #
vertex $-1 $130 $305 #
straight-curve $-1 0 35.326989041852634 15.931483415370842 -1 0 0 I I #
coedge $-1 $131 $200 $133 $219 reversed $75 $-1 #
vertex $-1 $211 $306 #
straight-curve $-1 0 -35.326989041852634 15.931483415370842 1 0 0 I I #
edge $-1 $136 -15.931483415370842 $208 15.931483415370842 $133 $307 forward 7 unknown #
edge $-1 $137 -15.931483415370842 $207 15.931483415370842 $134 $308 forward 7 unknown #
point $-1 70.854213080233166 -35.326989041852634 15.931483415370842 #
point $-1 70.854213080233166 35.326989041852634 15.931483415370842 #
face $-1 $-1 $236 $19 $-1 $309 reversed single #
loop $-1 $-1 $232 $139 #
plane-surface $-1 -70.854213080233166 0 0 1 0 0 0 0 -1 forward_v I I I I #
coedge $-1 $310 $142 $229 $311 forward $83 $-1 #
coedge $-1 $142 $310 $312 $313 forward $83 $-1 #
edge $-1 $314 -35.326989041852634 $230 35.326989041852634 $142 $315 forward 7 unknown #
coedge $-1 $144 $239 $226 $311 reversed $140 $-1 #
vertex $-1 $311 $316 #
straight-curve $-1 -55.389301829389382 -35.326989041852634 -5.9366375385049066 0 0 1 I I #
coedge $-1 $317 $318 $146 $233 forward $224 $-1 #
edge $-1 $240 -35.326989041852634 $237 35.326989041852634 $232 $319 forward 7 unknown #
coedge $-1 $312 $147 $151 $242 forward $236 $-1 #
coedge $-1 $147 $312 $317 $320 reversed $236 $-1 #
loop $-1 $-1 $234 $223 #
vertex $-1 $320 $321 #
straight-curve $-1 -31.560878727405637 35.326989041852634 -7.8150667386487846 1 0 0 I I #
coedge $-1 $229 $149 $318 $322 forward $140 $-1 #
vertex $-1 $322 $323 #
straight-curve $-1 -31.560878727405637 -35.326989041852634 -7.8150667386487846 -1 0 0 I I #
edge $-1 $153 1.878429200143878 $314 9.9948458768659343 $234 $324 forward 7 unknown #
point $-1 -55.389301829389382 -35.326989041852634 -7.8150667386487846 #
point $-1 -55.389301829389382 35.326989041852634 -7.8150667386487846 #
face $-1 $-1 $169 $20 $-1 $325 reversed single #
loop $-1 $-1 $164 $155 #
plane-surface $-1 0 35.326989041852634 0 0 -1 0 0 0 -1 forward_v I I I I #
coedge $-1 $326 $327 $159 $252 forward $156 $-1 #
coedge $-1 $328 $158 $251 $329 forward $91 $-1 #
coedge $-1 $158 $328 $167 $263 reversed $91 $-1 #
coedge $-1 $160 $159 $249 $329 reversed $57 $-1 #
edge $-1 $330 -35.326989041852634 $255 35.326989041852634 $248 $331 forward 7 unknown #
edge $-1 $256 -35.326989041852634 $260 35.326989041852634 $160 $332 forward 7 unknown #
coedge $-1 $161 $258 $326 $333 reversed $246 $-1 #
vertex $-1 $333 $334 #
vertex $-1 $165 $335 #
straight-curve $-1 55.389301829389382 35.326989041852634 -5.9366375385049066 0 0 1 I I #
coedge $-1 $254 $164 $168 $264 forward $246 $-1 #
straight-curve $-1 31.560878727405637 35.326989041852634 -7.8150667386487846 1 0 0 I I #
vertex $-1 $166 $336 #
straight-curve $-1 31.560878727405637 -35.326989041852634 -7.8150667386487846 -1 0 0 I I #
coedge $-1 $168 $167 $337 $338 reversed $169 $-1 #
edge $-1 $171 7.8150667386487846 $339 15.931483415370842 $167 $340 forward 7 unknown #
edge $-1 $170 7.8150667386487846 $341 15.931483415370842 $168 $342 forward 7 unknown #
point $-1 70.854213080233166 35.326989041852634 -7.8150667386487846 #
point $-1 70.854213080233166 -35.326989041852634 -7.8150667386487846 #
loop $-1 $-1 $181 $173 #
plane-surface $-1 0 0 15.931483415370842 0 0 1 1 0 0 forward_v I I I I #
coedge $-1 $270 $176 $178 $274 reversed $99 $-1 #
coedge $-1 $176 $269 $343 $344 reversed $99 $-1 #
coedge $-1 $184 $179 $176 $272 forward $174 $-1 #
edge $-1 $275 -64.107454402479277 $345 -59.118025773160575 $271 $346 forward 7 unknown #
coedge $-1 $178 $177 $278 $347 reversed $61 $-1 #
edge $-1 $348 64.563010461074839 $275 70.653978083705326 $269 $349 forward 7 unknown #
vertex $-1 $180 $350 #
straight-curve $-1 4.3573355608165443 35.326989041852642 10.942054786052122 -1 0 0 I I #
coedge $-1 $343 $181 $184 $282 forward $267 $-1 #
coedge $-1 $181 $343 $273 $347 forward $267 $-1 #
vertex $-1 $182 $351 #
straight-curve $-1 24.207008300385212 55.441140517134087 15.931483415370835 0 1 0 I I #
straight-curve $-1 24.207008300385212 -5.1984671006854342 68.818405945156272 0 -0.57357642473473569 0.81915205242281985 I I #
edge $-1 $185 -24.207008300385212 $345 6.7776660571190348 $184 $352 forward 7 unknown #
point $-1 24.207008300385212 35.326989041852634 15.931483415370842 #
point $-1 24.207008300385212 35.326989041852627 10.942054786052132 #
edge $-1 $353 1 $353 0 $188 $-1 forward 7 unknown #
vertex $-1 $189 $354 #
ellipse-curve $-1 2.0750980450250296 31.299760208794815 11.840008094581021 0 0.81915205242281985 0.57357642473473569 1 0 0 1 I I #
point $-1 3.0750980450250296 33.580171325770955 13.436769100711514 #
edge $-1 $355 1 $355 0 $192 $-1 forward 7 unknown #
vertex $-1 $193 $356 #
ellipse-curve $-1 15.354244198241133 31.299760208794815 11.840008094581021 0 0.81915205242281985 0.57357642473473569 1 0 0 1 I I #
point $-1 16.354244198241133 33.580171325770955 13.436769100711514 #
plane-surface $-1 70.854213080233166 0 0 -1 0 0 0 0 1 forward_v I I I I #
coedge $-1 $201 $199 $203 $298 reversed $121 $-1 #
edge $-1 $214 -15.931483415370842 $300 15.931483415370842 $213 $357 forward 7 unknown #
vertex $-1 $298 $358 #
straight-curve $-1 -70.854213080233166 -35.326989041852634 0 0 0 -1 I I #
edge $-1 $296 -35.326989041852634 $300 35.326989041852634 $294 $359 forward 7 unknown #
straight-curve $-1 0 -35.326989041852634 -15.931483415370842 -1 0 0 I I #
vertex $-1 $206 $360 #
straight-curve $-1 0 35.326989041852634 -15.931483415370842 1 0 0 I I #
point $-1 70.854213080233166 35.326989041852634 -15.931483415370842 #
point $-1 70.854213080233166 -35.326989041852634 -15.931483415370842 #
straight-curve $-1 -70.854213080233166 0 15.931483415370842 0 -1 0 I I #
point $-1 -70.854213080233166 35.326989041852634 15.931483415370842 #
point $-1 -70.854213080233166 -35.326989041852634 15.931483415370842 #
straight-curve $-1 70.854213080233166 -35.326989041852634 0 0 0 -1 I I #
straight-curve $-1 70.854213080233166 35.326989041852634 0 0 0 -1 I I #
plane-surface $-1 0 35.326989041852634 0 0 -1 0 0 0 -1 forward_v I I I I #
coedge $-1 $227 $226 $361 $362 forward $83 $-1 #
edge $-1 $230 55.389301829389382 $363 70.854213080233166 $229 $364 forward 7 unknown #
coedge $-1 $235 $234 $227 $313 reversed $236 $-1 #
edge $-1 $365 -70.854213080233166 $314 -55.389301829389382 $312 $366 forward 7 unknown #
vertex $-1 $242 $367 #
straight-curve $-1 -55.389301829389382 0 -15.931483415370842 0 -1 0 I I #
point $-1 -55.389301829389382 -35.326989041852634 -15.931483415370842 #
coedge $-1 $361 $232 $235 $320 forward $224 $-1 #
coedge $-1 $232 $361 $239 $322 reversed $224 $-1 #
straight-curve $-1 -70.854213080233166 0 -7.8150667386487846 0 1 0 I I #
edge $-1 $237 7.8150667386487846 $365 15.931483415370842 $235 $368 forward 7 unknown #
point $-1 -70.854213080233166 35.326989041852634 -7.8150667386487846 #
edge $-1 $240 7.8150667386487846 $363 15.931483415370842 $318 $369 forward 7 unknown #
point $-1 -70.854213080233166 -35.326989041852634 -7.8150667386487846 #
straight-curve $-1 -55.389301829389382 35.326989041852634 -5.9366375385049066 0 0 -1 I I #
plane-surface $-1 70.854213080233166 0 0 -1 0 0 0 0 1 forward_v I I I I #
coedge $-1 $337 $248 $254 $333 forward $156 $-1 #
coedge $-1 $248 $337 $328 $370 forward $156 $-1 #
coedge $-1 $250 $249 $327 $370 reversed $91 $-1 #
edge $-1 $260 1.878429200143878 $330 9.9948458768659343 $249 $371 forward 7 unknown #
vertex $-1 $252 $372 #
straight-curve $-1 55.389301829389382 0 -15.931483415370842 0 1 0 I I #
straight-curve $-1 55.389301829389382 0 -7.8150667386487846 0 -1 0 I I #
edge $-1 $255 55.389301829389382 $341 70.854213080233166 $254 $373 forward 7 unknown #
point $-1 55.389301829389382 35.326989041852634 -15.931483415370842 #
point $-1 55.389301829389382 35.326989041852634 -7.8150667386487846 #
point $-1 55.389301829389382 -35.326989041852634 -7.8150667386487846 #
coedge $-1 $327 $326 $262 $338 forward $156 $-1 #
edge $-1 $341 -35.326989041852634 $339 35.326989041852634 $262 $374 forward 7 unknown #
vertex $-1 $263 $375 #
straight-curve $-1 70.854213080233166 -35.326989041852634 0 0 0 -1 I I #
vertex $-1 $338 $376 #
straight-curve $-1 70.854213080233166 35.326989041852634 0 0 0 -1 I I #
coedge $-1 $278 $277 $270 $344 forward $267 $-1 #
edge $-1 $345 20.114151475281453 $348 23.607786907444883 $343 $377 forward 7 unknown #
vertex $-1 $344 $378 #
straight-curve $-1 -6.7776660571190348 35.326989041852634 75.049509188531417 0 0 1 I I #
edge $-1 $348 -11.135001617935579 $279 19.849672739568668 $278 $379 forward 7 unknown #
vertex $-1 $347 $380 #
straight-curve $-1 -6.7776660571190348 -5.1984671006854342 68.818405945156272 0 0.57357642473473569 -0.81915205242281985 I I #
point $-1 -6.7776660571190348 35.326989041852627 10.942054786052132 #
point $-1 24.207008300385212 31.833353609689205 15.931483415370842 #
straight-curve $-1 0 35.326989041852634 15.931483415370842 -1 0 0 I I #
vertex $-1 $285 $381 #
point $-1 3.0750980450250296 31.299760208794815 11.840008094581021 #
vertex $-1 $289 $382 #
point $-1 16.354244198241133 31.299760208794815 11.840008094581021 #
straight-curve $-1 -70.854213080233166 35.326989041852634 0 0 0 -1 I I #
point $-1 -70.854213080233166 -35.326989041852634 -15.931483415370842 #
straight-curve $-1 -70.854213080233166 0 -15.931483415370842 0 1 0 I I #
point $-1 -70.854213080233166 35.326989041852634 -15.931483415370842 #
coedge $-1 $318 $317 $310 $362 reversed $224 $-1 #
edge $-1 $363 -35.326989041852634 $365 35.326989041852634 $361 $383 forward 7 unknown #
vertex $-1 $362 $384 #
straight-curve $-1 0 -35.326989041852634 -15.931483415370842 -1 0 0 I I #
vertex $-1 $313 $385 #
straight-curve $-1 0 35.326989041852634 -15.931483415370842 1 0 0 I I #
point $-1 -55.389301829389382 35.326989041852634 -15.931483415370842 #
straight-curve $-1 -70.854213080233166 35.326989041852634 0 0 0 -1 I I #
straight-curve $-1 -70.854213080233166 -35.326989041852634 0 0 0 -1 I I #
edge $-1 $339 -70.854213080233166 $330 -55.389301829389382 $328 $386 forward 7 unknown #
straight-curve $-1 55.389301829389382 -35.326989041852634 -5.9366375385049066 0 0 -1 I I #
point $-1 55.389301829389382 -35.326989041852634 -15.931483415370842 #
straight-curve $-1 0 35.326989041852634 -15.931483415370842 1 0 0 I I #
straight-curve $-1 70.854213080233166 0 -15.931483415370842 0 -1 0 I I #
point $-1 70.854213080233166 -35.326989041852634 -15.931483415370842 #
point $-1 70.854213080233166 35.326989041852634 -15.931483415370842 #
straight-curve $-1 -6.7776660571190348 55.441140517134087 15.931483415370835 0 -1 0 I I #
point $-1 -6.7776660571190348 35.326989041852634 15.931483415370842 #
straight-curve $-1 4.3573355608165443 31.833353609689198 15.931483415370842 1 0 0 I I #
point $-1 -6.7776660571190348 31.833353609689205 15.931483415370842 #
point $-1 2.0750980450250296 30.480608156371993 11.266431669846286 #
point $-1 15.354244198241133 30.480608156371993 11.266431669846286 #
straight-curve $-1 -70.854213080233166 0 -15.931483415370842 0 1 0 I I #
point $-1 -70.854213080233166 -35.326989041852634 -15.931483415370842 #
point $-1 -70.854213080233166 35.326989041852634 -15.931483415370842 #
straight-curve $-1 0 -35.326989041852634 -15.931483415370842 -1 0 0 I I #
End-of-ACIS-data 