500 0 6 0           
7 Unknown 11 ACIS 5.0 NT 24 Thu Mar 25 15:12:14 1999 
-1 9.9999999999999995e-007 1e-010 
body $-1 $6 $-1 $7 #
body $-1 $8 $-1 $9 #
body $-1 $10 $-1 $11 #
body $-1 $12 $-1 $13 #
body $-1 $14 $-1 $15 #
body $-1 $16 $-1 $17 #
lump $-1 $-1 $18 $0 #
transform $-1 1 0 0 0 1 0 0 0 1 74.430982390820034 35.757627964158196 8.042656272952847 1 rotate no_reflect no_shear #
lump $-1 $-1 $19 $1 #
transform $-1 1 0 0 0 1 0 0 0 1 74.430982390820034 35.757627964158196 8.042656272952847 1 rotate no_reflect no_shear #
lump $-1 $-1 $20 $2 #
transform $-1 1 0 0 0 1 0 0 0 1 74.430982390820034 35.757627964158196 8.042656272952847 1 rotate no_reflect no_shear #
lump $-1 $-1 $21 $3 #
transform $-1 1 0 0 0 1 0 0 0 1 74.430982390820034 35.757627964158196 8.042656272952847 1 rotate no_reflect no_shear #
lump $-1 $-1 $22 $4 #
transform $-1 1 0 0 0 1 0 0 0 1 74.430982390820034 35.757627964158196 8.042656272952847 1 rotate no_reflect no_shear #
lump $-1 $-1 $23 $5 #
transform $-1 1 0 0 0 1 0 0 0 1 74.430982390820034 35.757627964158196 8.042656272952847 1 rotate no_reflect no_shear #
shell $-1 $-1 $-1 $24 $-1 $6 #
shell $-1 $-1 $-1 $25 $-1 $8 #
shell $-1 $-1 $-1 $26 $-1 $10 #
shell $-1 $-1 $-1 $27 $-1 $12 #
shell $-1 $-1 $-1 $28 $-1 $14 #
shell $-1 $-1 $-1 $29 $-1 $16 #
face $-1 $30 $31 $18 $-1 $32 forward single #
face $-1 $33 $34 $19 $-1 $35 forward single #
face $-1 $36 $37 $20 $-1 $38 reversed single #
face $-1 $39 $40 $21 $-1 $41 forward single #
face $-1 $42 $43 $22 $-1 $44 forward single #
face $-1 $45 $46 $23 $-1 $47 forward single #
face $-1 $48 $49 $18 $-1 $50 reversed single #
loop $-1 $-1 $51 $24 #
plane-surface $-1 0 0 8.042656272952847 0 0 1 1 0 0 forward_v I I I I #
face $-1 $52 $53 $19 $-1 $54 reversed single #
loop $-1 $-1 $55 $25 #
plane-surface $-1 -74.430982390820034 0 0 1 0 0 0 0 -1 forward_v I I I I #
face $-1 $56 $57 $20 $-1 $58 reversed single #
loop $-1 $-1 $59 $26 #
plane-surface $-1 -25.863364950977616 -127.40620597081761 118.29206042911201 -1 0 0 0 -0.61566148304635926 0.78801074757464917 forward_v I I I I #
face $-1 $60 $61 $21 $-1 $62 forward single #
loop $-1 $63 $64 $27 #
cone-surface $-1 -57.917735303929916 -29.59462215711083 2.4059327224357472 0 0.61566148304635926 -0.78801074757464917 1.5 0 0 1 I I 0 1 1.5 forward I I I I #
face $-1 $65 $66 $22 $-1 $67 forward single #
loop $-1 $68 $69 $28 #
cone-surface $-1 -45.897346421572806 -29.59462215711083 2.4059327224357472 0 0.61566148304635926 -0.78801074757464917 1.5 0 0 1 I I 0 1 1.5 forward I I I I #
face $-1 $70 $71 $23 $-1 $72 forward single #
loop $-1 $73 $74 $29 #
cone-surface $-1 -33.876957539215688 -29.59462215711083 2.4059327224357472 0 0.61566148304635926 -0.78801074757464917 1.5 0 0 1 I I 0 1 1.5 forward I I I I #
face $-1 $75 $76 $18 $-1 $77 reversed single #
loop $-1 $-1 $78 $30 #
plane-surface $-1 0 0 -8.042656272952847 0 0 1 1 0 0 forward_v I I I I #
coedge $-1 $79 $80 $81 $82 forward $31 $-1 #
face $-1 $83 $84 $19 $-1 $85 forward single #
loop $-1 $-1 $86 $33 #
plane-surface $-1 0 35.757627964158196 0 0 -1 0 0 0 -1 forward_v I I I I #
coedge $-1 $87 $88 $89 $90 forward $34 $-1 #
face $-1 $91 $92 $20 $-1 $93 reversed single #
loop $-1 $-1 $94 $36 #
plane-surface $-1 -45.897346421572806 -35.757627964158189 0.98723227610072684 0 -0.61566148304635926 0.78801074757464917 1 0 0 forward_v I I I I #
coedge $-1 $95 $96 $97 $98 reversed $37 $-1 #
face $-1 $-1 $99 $21 $-1 $100 forward single #
loop $-1 $101 $102 $39 #
cone-surface $-1 -57.917735303929916 -27.485135599764085 -0.29408689033627944 0 0.61566148304635926 -0.78801074757464917 0.75 0 0 1 I I -0.70710678118654757 0.70710678118654757 0.75 forward I I I I #
loop $-1 $-1 $103 $27 #
coedge $-1 $64 $64 $104 $105 reversed $40 $-1 #
face $-1 $-1 $106 $22 $-1 $107 forward single #
loop $-1 $108 $109 $42 #
cone-surface $-1 -45.897346421572806 -27.485135599764085 -0.29408689033627944 0 0.61566148304635926 -0.78801074757464917 0.75 0 0 1 I I -0.70710678118654757 0.70710678118654757 0.75 forward I I I I #
loop $-1 $-1 $110 $28 #
coedge $-1 $69 $69 $111 $112 reversed $43 $-1 #
face $-1 $-1 $113 $23 $-1 $114 forward single #
loop $-1 $115 $116 $45 #
cone-surface $-1 -33.876957539215688 -27.485135599764085 -0.29408689033627944 0 0.61566148304635926 -0.78801074757464917 0.75 0 0 1 I I -0.70710678118654757 0.70710678118654757 0.75 forward I I I I #
loop $-1 $-1 $117 $29 #
coedge $-1 $74 $74 $118 $119 reversed $46 $-1 #
face $-1 $120 $121 $18 $-1 $122 reversed single #
loop $-1 $-1 $123 $48 #
plane-surface $-1 0 -35.757627964158196 0 0 1 0 0 0 1 forward_v I I I I #
coedge $-1 $124 $125 $126 $127 forward $49 $-1 #
coedge $-1 $128 $51 $129 $130 forward $31 $-1 #
coedge $-1 $51 $128 $131 $132 forward $31 $-1 #
coedge $-1 $133 $134 $51 $82 reversed $135 $-1 #
edge $-1 $136 -35.757627964158196 $137 35.757627964158196 $81 $138 forward 7 unknown #
face $-1 $139 $140 $19 $-1 $141 reversed single #
loop $-1 $-1 $89 $52 #
plane-surface $-1 -78.680809640146052 0 -5.042656272952847 0 0 1 1 0 0 forward_v I I I I #
coedge $-1 $142 $143 $88 $144 forward $53 $-1 #
coedge $-1 $145 $55 $146 $147 reversed $34 $-1 #
coedge $-1 $55 $145 $86 $144 reversed $34 $-1 #
coedge $-1 $148 $149 $55 $90 reversed $84 $-1 #
edge $-1 $150 -35.757627964158196 $151 35.757627964158196 $89 $152 forward 7 unknown #
face $-1 $153 $154 $20 $-1 $155 reversed single #
loop $-1 $-1 $156 $56 #
plane-surface $-1 -65.931327892167999 -127.40620597081761 118.29206042911201 1 0 0 0 0.61566148304635926 -0.78801074757464917 forward_v I I I I #
coedge $-1 $157 $158 $159 $160 reversed $57 $-1 #
coedge $-1 $96 $59 $161 $162 reversed $37 $-1 #
coedge $-1 $59 $95 $157 $163 reversed $37 $-1 #
coedge $-1 $159 $164 $59 $98 forward $165 $-1 #
edge $-1 $166 27.945475021250608 $167 36.976005745221386 $97 $168 forward 7 unknown #
loop $-1 $-1 $104 $60 #
plane-surface $-1 -45.897346421572806 -35.757627964158189 0.98723227610072684 0 -0.61566148304635926 0.78801074757464917 1 0 0 forward_v I I I I #
loop $-1 $-1 $169 $39 #
coedge $-1 $102 $102 $103 $170 reversed $61 $-1 #
coedge $-1 $103 $103 $102 $170 forward $63 $-1 #
coedge $-1 $104 $104 $64 $105 forward $99 $-1 #
edge $-1 $171 -1.1372947171903754e-015 $171 6.2831853071795996 $104 $172 forward 7 unknown #
loop $-1 $-1 $111 $65 #
plane-surface $-1 -45.897346421572806 -35.757627964158189 0.98723227610072684 0 -0.61566148304635926 0.78801074757464917 1 0 0 forward_v I I I I #
loop $-1 $-1 $173 $42 #
coedge $-1 $109 $109 $110 $174 reversed $66 $-1 #
coedge $-1 $110 $110 $109 $174 forward $68 $-1 #
coedge $-1 $111 $111 $69 $112 forward $106 $-1 #
edge $-1 $175 -1.1372947171903754e-015 $175 6.2831853071795996 $111 $176 forward 7 unknown #
loop $-1 $-1 $118 $70 #
plane-surface $-1 -45.897346421572806 -35.757627964158189 0.98723227610072684 0 -0.61566148304635926 0.78801074757464917 1 0 0 forward_v I I I I #
loop $-1 $-1 $177 $45 #
coedge $-1 $116 $116 $117 $178 reversed $71 $-1 #
coedge $-1 $117 $117 $116 $178 forward $73 $-1 #
coedge $-1 $118 $118 $74 $119 forward $113 $-1 #
edge $-1 $179 -1.1372947171903754e-015 $179 6.2831853071795996 $118 $180 forward 7 unknown #
face $-1 $181 $182 $18 $-1 $183 reversed single #
loop $-1 $-1 $184 $75 #
plane-surface $-1 -74.430982390820034 0 0 1 0 0 0 0 -1 forward_v I I I I #
coedge $-1 $185 $131 $186 $187 forward $76 $-1 #
coedge $-1 $188 $78 $185 $189 forward $49 $-1 #
coedge $-1 $78 $188 $190 $191 forward $49 $-1 #
coedge $-1 $134 $133 $78 $127 reversed $135 $-1 #
edge $-1 $192 -35.757627964158196 $193 35.757627964158196 $126 $194 forward 7 unknown #
coedge $-1 $80 $79 $195 $196 forward $31 $-1 #
coedge $-1 $197 $198 $79 $130 reversed $182 $-1 #
edge $-1 $137 -74.430982390820034 $199 74.430982390820034 $129 $200 forward 7 unknown #
coedge $-1 $123 $201 $80 $132 reversed $76 $-1 #
edge $-1 $202 -74.430982390820034 $136 74.430982390820034 $131 $203 forward 7 unknown #
coedge $-1 $126 $81 $201 $204 forward $135 $-1 #
coedge $-1 $81 $126 $197 $205 reversed $135 $-1 #
loop $-1 $-1 $133 $181 #
vertex $-1 $82 $206 #
vertex $-1 $82 $207 #
straight-curve $-1 74.430982390820034 0 8.042656272952847 0 1 0 I I #
face $-1 $208 $209 $19 $-1 $210 reversed single #
loop $-1 $-1 $211 $83 #
plane-surface $-1 -82.930636889472069 0 -6.542656272952847 1 0 0 0 0 -1 forward_v I I I I #
coedge $-1 $212 $86 $213 $214 reversed $53 $-1 #
coedge $-1 $86 $212 $148 $215 reversed $53 $-1 #
edge $-1 $150 5.042656272952847 $216 8.042656272952847 $86 $217 forward 7 unknown #
coedge $-1 $88 $87 $218 $219 reversed $34 $-1 #
coedge $-1 $220 $221 $87 $147 forward $222 $-1 #
edge $-1 $223 -8.042656272952847 $151 -5.042656272952847 $146 $224 forward 7 unknown #
coedge $-1 $225 $89 $143 $215 forward $84 $-1 #
coedge $-1 $89 $225 $220 $226 forward $84 $-1 #
vertex $-1 $144 $227 #
vertex $-1 $226 $228 #
straight-curve $-1 -74.430982390820034 0 -5.042656272952847 0 -1 0 I I #
face $-1 $-1 $165 $20 $-1 $229 forward single #
loop $-1 $-1 $230 $91 #
plane-surface $-1 0 -35.757627964158196 0 0 1 0 0 0 1 forward_v I I I I #
coedge $-1 $231 $232 $233 $234 reversed $92 $-1 #
coedge $-1 $235 $94 $96 $163 forward $57 $-1 #
coedge $-1 $94 $235 $231 $236 forward $57 $-1 #
coedge $-1 $233 $97 $94 $160 forward $165 $-1 #
edge $-1 $167 2.9146917401912127 $237 42.982654681381597 $159 $238 forward 7 unknown #
coedge $-1 $239 $240 $95 $162 forward $154 $-1 #
edge $-1 $241 -58.158797938455287 $166 -51.103373941603159 $161 $242 forward 7 unknown #
edge $-1 $167 -11.459908068214894 $241 9.0167608931652224e-015 $96 $243 forward 7 unknown #
coedge $-1 $97 $233 $239 $244 forward $165 $-1 #
loop $-1 $-1 $233 $153 #
vertex $-1 $162 $245 #
vertex $-1 $98 $246 #
straight-curve $-1 -25.863364950977616 -63.703102985408805 8.042656272952847 0 1 0 I I #
coedge $-1 $169 $169 $-1 $247 reversed $101 $-1 #
edge $-1 $248 0 $248 6.2831853071796004 $102 $249 forward 7 unknown #
vertex $-1 $105 $250 #
ellipse-curve $-1 -57.917735303929916 -31.242362602172804 4.5149442745267852 0 -0.61566148304635926 0.78801074757464917 1.5 0 0 1 I I #
coedge $-1 $173 $173 $-1 $251 reversed $108 $-1 #
edge $-1 $252 0 $252 6.2831853071796004 $109 $253 forward 7 unknown #
vertex $-1 $112 $254 #
ellipse-curve $-1 -45.897346421572806 -31.242362602172804 4.5149442745267852 0 -0.61566148304635926 0.78801074757464917 1.5 0 0 1 I I #
coedge $-1 $177 $177 $-1 $255 reversed $115 $-1 #
edge $-1 $256 0 $256 6.2831853071796004 $116 $257 forward 7 unknown #
vertex $-1 $119 $258 #
ellipse-curve $-1 -33.876957539215688 -31.242362602172804 4.5149442745267852 0 -0.61566148304635926 0.78801074757464917 1.5 0 0 1 I I #
face $-1 $-1 $135 $18 $-1 $259 reversed single #
loop $-1 $-1 $197 $120 #
plane-surface $-1 0 35.757627964158196 0 0 -1 0 0 0 -1 forward_v I I I I #
coedge $-1 $260 $195 $198 $261 forward $121 $-1 #
coedge $-1 $201 $123 $124 $189 reversed $76 $-1 #
coedge $-1 $195 $260 $123 $187 reversed $121 $-1 #
edge $-1 $202 -8.042656272952847 $262 8.042656272952847 $186 $263 forward 7 unknown #
coedge $-1 $125 $124 $260 $264 forward $49 $-1 #
edge $-1 $193 -74.430982390820034 $262 74.430982390820034 $185 $265 forward 7 unknown #
coedge $-1 $198 $197 $125 $191 reversed $182 $-1 #
edge $-1 $266 -74.430982390820034 $192 74.430982390820034 $190 $267 forward 7 unknown #
vertex $-1 $127 $268 #
vertex $-1 $204 $269 #
straight-curve $-1 74.430982390820034 0 -8.042656272952847 0 -1 0 I I #
coedge $-1 $184 $186 $128 $196 reversed $121 $-1 #
edge $-1 $199 -35.757627964158196 $202 35.757627964158196 $195 $270 forward 7 unknown #
coedge $-1 $190 $129 $134 $205 forward $182 $-1 #
coedge $-1 $129 $190 $184 $261 reversed $182 $-1 #
vertex $-1 $130 $271 #
straight-curve $-1 0 35.757627964158196 8.042656272952847 -1 0 0 I I #
coedge $-1 $131 $185 $133 $204 reversed $76 $-1 #
vertex $-1 $196 $272 #
straight-curve $-1 0 -35.757627964158196 8.042656272952847 1 0 0 I I #
edge $-1 $136 -8.042656272952847 $193 8.042656272952847 $133 $273 forward 7 unknown #
edge $-1 $137 -8.042656272952847 $192 8.042656272952847 $134 $274 forward 7 unknown #
point $-1 74.430982390820034 -35.757627964158196 8.042656272952847 #
point $-1 74.430982390820034 35.757627964158196 8.042656272952847 #
face $-1 $-1 $222 $19 $-1 $275 reversed single #
loop $-1 $-1 $218 $139 #
plane-surface $-1 0 0 -8.042656272952847 0 0 1 1 0 0 forward_v I I I I #
coedge $-1 $276 $277 $212 $278 forward $140 $-1 #
coedge $-1 $143 $142 $211 $278 reversed $53 $-1 #
coedge $-1 $218 $279 $142 $214 forward $209 $-1 #
edge $-1 $280 -82.930636889472069 $216 -74.430982390820034 $142 $281 forward 7 unknown #
edge $-1 $150 -4.2498272493260174 $282 4.2498272493260174 $143 $283 forward 7 unknown #
vertex $-1 $144 $284 #
straight-curve $-1 -74.430982390820034 35.757627964158196 0 0 0 -1 I I #
coedge $-1 $285 $213 $145 $219 forward $209 $-1 #
edge $-1 $216 -35.757627964158196 $223 35.757627964158196 $218 $286 forward 7 unknown #
coedge $-1 $287 $146 $149 $226 reversed $222 $-1 #
coedge $-1 $146 $287 $285 $288 reversed $222 $-1 #
loop $-1 $-1 $146 $208 #
vertex $-1 $288 $289 #
straight-curve $-1 -74.430982390820034 -35.757627964158196 0 0 0 1 I I #
coedge $-1 $149 $148 $277 $290 forward $84 $-1 #
edge $-1 $291 -4.2498272493260174 $151 4.2498272493260174 $220 $292 forward 7 unknown #
point $-1 -74.430982390820034 35.757627964158196 -5.042656272952847 #
point $-1 -74.430982390820034 -35.757627964158196 -5.042656272952847 #
plane-surface $-1 0 0 8.042656272952847 0 0 1 1 0 0 forward_v I I I I #
coedge $-1 $240 $239 $232 $293 forward $154 $-1 #
coedge $-1 $232 $156 $158 $236 reversed $92 $-1 #
coedge $-1 $156 $231 $230 $293 reversed $92 $-1 #
coedge $-1 $164 $159 $156 $234 forward $165 $-1 #
edge $-1 $237 -36.976005745221386 $294 -27.945475021250608 $233 $295 forward 7 unknown #
coedge $-1 $158 $157 $240 $296 reversed $57 $-1 #
edge $-1 $297 -9.0167608931652224e-015 $237 11.459908068214894 $231 $298 forward 7 unknown #
vertex $-1 $160 $299 #
straight-curve $-1 -22.948673210786403 -26.727097240187419 8.042656272952847 -1 0 0 I I #
coedge $-1 $230 $161 $164 $244 reversed $154 $-1 #
coedge $-1 $161 $230 $235 $296 forward $154 $-1 #
vertex $-1 $162 $300 #
straight-curve $-1 -25.863364950977616 -35.757627964158196 59.146030214556006 0 0 1 I I #
straight-curve $-1 -25.863364950977616 -35.757627964158189 0.98723227610072684 0 -0.78801074757464917 -0.61566148304635926 I I #
edge $-1 $294 -65.931327892167999 $166 -25.863364950977616 $239 $301 forward 7 unknown #
point $-1 -25.863364950977616 -35.757627964158196 8.042656272952847 #
point $-1 -25.863364950977616 -26.727097240187415 8.042656272952847 #
edge $-1 $302 1 $302 0 $169 $-1 forward 7 unknown #
vertex $-1 $170 $303 #
ellipse-curve $-1 -57.917735303929916 -27.946881712048853 0.29692117034470744 0 -0.61566148304635926 0.78801074757464917 1.5 0 0 1 I I #
point $-1 -56.417735303929916 -31.242362602172808 4.5149442745267869 #
edge $-1 $304 1 $304 0 $173 $-1 forward 7 unknown #
vertex $-1 $174 $305 #
ellipse-curve $-1 -45.897346421572806 -27.946881712048853 0.29692117034470744 0 -0.61566148304635926 0.78801074757464917 1.5 0 0 1 I I #
point $-1 -44.397346421572806 -31.242362602172808 4.5149442745267869 #
edge $-1 $306 1 $306 0 $177 $-1 forward 7 unknown #
vertex $-1 $178 $307 #
ellipse-curve $-1 -33.876957539215688 -27.946881712048853 0.29692117034470744 0 -0.61566148304635926 0.78801074757464917 1.5 0 0 1 I I #
point $-1 -32.376957539215688 -31.242362602172808 4.5149442745267869 #
plane-surface $-1 74.430982390820034 0 0 -1 0 0 0 0 1 forward_v I I I I #
coedge $-1 $186 $184 $188 $264 reversed $121 $-1 #
edge $-1 $199 -8.042656272952847 $266 8.042656272952847 $198 $308 forward 7 unknown #
vertex $-1 $264 $309 #
straight-curve $-1 -74.430982390820034 -35.757627964158196 0 0 0 -1 I I #
edge $-1 $262 -35.757627964158196 $266 35.757627964158196 $260 $310 forward 7 unknown #
straight-curve $-1 0 -35.757627964158196 -8.042656272952847 -1 0 0 I I #
vertex $-1 $191 $311 #
straight-curve $-1 0 35.757627964158196 -8.042656272952847 1 0 0 I I #
point $-1 74.430982390820034 35.757627964158196 -8.042656272952847 #
point $-1 74.430982390820034 -35.757627964158196 -8.042656272952847 #
straight-curve $-1 -74.430982390820034 0 8.042656272952847 0 -1 0 I I #
point $-1 -74.430982390820034 35.757627964158196 8.042656272952847 #
point $-1 -74.430982390820034 -35.757627964158196 8.042656272952847 #
straight-curve $-1 74.430982390820034 -35.757627964158196 0 0 0 -1 I I #
straight-curve $-1 74.430982390820034 35.757627964158196 0 0 0 -1 I I #
plane-surface $-1 0 -35.757627964158196 0 0 1 0 0 0 1 forward_v I I I I #
coedge $-1 $312 $211 $279 $313 reversed $140 $-1 #
coedge $-1 $211 $312 $225 $290 reversed $140 $-1 #
edge $-1 $282 -1.5 $280 1.5 $212 $314 forward 7 unknown #
coedge $-1 $213 $285 $276 $313 forward $209 $-1 #
vertex $-1 $214 $315 #
straight-curve $-1 0 35.757627964158196 -8.042656272952847 1 0 0 I I #
vertex $-1 $215 $316 #
straight-curve $-1 -78.680809640146052 35.757627964158196 -5.042656272952847 -1 0 0 I I #
point $-1 -74.430982390820034 35.757627964158196 -8.042656272952847 #
coedge $-1 $279 $218 $221 $288 forward $209 $-1 #
straight-curve $-1 -74.430982390820034 0 -8.042656272952847 0 -1 0 I I #
coedge $-1 $221 $220 $312 $317 forward $222 $-1 #
edge $-1 $223 -4.2498272493260174 $318 4.2498272493260174 $221 $319 forward 7 unknown #
point $-1 -74.430982390820034 -35.757627964158196 -8.042656272952847 #
edge $-1 $282 -35.757627964158196 $291 35.757627964158196 $277 $320 forward 7 unknown #
vertex $-1 $290 $321 #
straight-curve $-1 -78.680809640146052 -35.757627964158196 -5.042656272952847 1 0 0 I I #
edge $-1 $294 51.103373941603159 $297 58.158797938455287 $230 $322 forward 7 unknown #
vertex $-1 $244 $323 #
straight-curve $-1 -65.931327892167999 -63.703102985408805 8.042656272952847 0 -1 0 I I #
edge $-1 $297 -42.982654681381597 $241 -2.9146917401912127 $240 $324 forward 7 unknown #
vertex $-1 $296 $325 #
straight-curve $-1 -65.931327892167999 -35.757627964158189 0.98723227610072684 0 0.78801074757464917 0.61566148304635926 I I #
point $-1 -65.931327892167999 -26.727097240187415 8.042656272952847 #
point $-1 -25.863364950977616 -35.757627964158196 0.98723227610072128 #
straight-curve $-1 0 -35.757627964158196 8.042656272952847 1 0 0 I I #
vertex $-1 $247 $326 #
point $-1 -56.417735303929916 -27.946881712048853 0.29692117034470744 #
vertex $-1 $251 $327 #
point $-1 -44.397346421572806 -27.946881712048853 0.29692117034470744 #
vertex $-1 $255 $328 #
point $-1 -32.376957539215688 -27.946881712048853 0.29692117034470744 #
straight-curve $-1 -74.430982390820034 35.757627964158196 0 0 0 -1 I I #
point $-1 -74.430982390820034 -35.757627964158196 -8.042656272952847 #
straight-curve $-1 -74.430982390820034 0 -8.042656272952847 0 1 0 I I #
point $-1 -74.430982390820034 35.757627964158196 -8.042656272952847 #
coedge $-1 $277 $276 $287 $317 reversed $140 $-1 #
edge $-1 $318 -35.757627964158196 $280 35.757627964158196 $276 $329 forward 7 unknown #
straight-curve $-1 -82.930636889472069 35.757627964158196 -6.542656272952847 0 0 -1 I I #
point $-1 -82.930636889472069 35.757627964158196 -8.042656272952847 #
point $-1 -82.930636889472069 35.757627964158196 -5.042656272952847 #
edge $-1 $291 -1.5 $318 1.5 $312 $330 forward 7 unknown #
vertex $-1 $313 $331 #
straight-curve $-1 -78.680809640146052 -35.757627964158196 -8.042656272952847 -1 0 0 I I #
straight-curve $-1 -82.930636889472069 0 -5.042656272952847 0 -1 0 I I #
point $-1 -82.930636889472069 -35.757627964158196 -5.042656272952847 #
straight-curve $-1 -65.931327892167999 -35.757627964158196 59.146030214556006 0 0 -1 I I #
point $-1 -65.931327892167999 -35.757627964158196 8.042656272952847 #
straight-curve $-1 -22.948673210786403 -35.757627964158196 0.98723227610071917 1 0 0 I I #
point $-1 -65.931327892167999 -35.757627964158196 0.98723227610072128 #
point $-1 -57.917735303929916 -27.023389487479317 -0.88509495101726632 #
point $-1 -45.897346421572806 -27.023389487479317 -0.88509495101726632 #
point $-1 -33.876957539215688 -27.023389487479317 -0.88509495101726632 #
straight-curve $-1 -82.930636889472069 0 -8.042656272952847 0 1 0 I I #
straight-curve $-1 -82.930636889472069 -35.757627964158196 -6.542656272952847 0 0 -1 I I #
point $-1 -82.930636889472069 -35.757627964158196 -8.042656272952847 #
End-of-ACIS-data 