500 0 9 0           
7 Unknown 11 ACIS 5.0 NT 24 Thu Mar 25 19:54:18 1999 
-1 9.9999999999999995e-007 1e-010 
body $-1 $9 $-1 $10 #
body $-1 $11 $-1 $12 #
body $-1 $13 $-1 $14 #
body $-1 $15 $-1 $16 #
body $-1 $17 $-1 $18 #
body $-1 $19 $-1 $20 #
body $-1 $21 $-1 $22 #
body $-1 $23 $-1 $24 #
body $-1 $25 $-1 $26 #
lump $-1 $-1 $27 $0 #
transform $-1 1 0 0 0 1 0 0 0 1 74.38215277565844 43.210294390695999 12.973638027439385 1 rotate no_reflect no_shear #
lump $-1 $-1 $28 $1 #
transform $-1 1 0 0 0 1 0 0 0 1 74.38215277565844 43.210294390695999 12.973638027439385 1 rotate no_reflect no_shear #
lump $-1 $-1 $29 $2 #
transform $-1 1 0 0 0 1 0 0 0 1 74.38215277565844 43.210294390695999 12.973638027439385 1 rotate no_reflect no_shear #
lump $-1 $-1 $30 $3 #
transform $-1 1 0 0 0 1 0 0 0 1 74.38215277565844 43.210294390695999 12.973638027439385 1 rotate no_reflect no_shear #
lump $-1 $-1 $31 $4 #
transform $-1 1 0 0 0 1 0 0 0 1 74.38215277565844 43.210294390695999 12.973638027439385 1 rotate no_reflect no_shear #
lump $-1 $-1 $32 $5 #
transform $-1 1 0 0 0 1 0 0 0 1 74.38215277565844 43.210294390695999 12.973638027439385 1 rotate no_reflect no_shear #
lump $-1 $-1 $33 $6 #
transform $-1 1 0 0 0 1 0 0 0 1 74.38215277565844 43.210294390695999 12.973638027439385 1 rotate no_reflect no_shear #
lump $-1 $-1 $34 $7 #
transform $-1 1 0 0 0 1 0 0 0 1 74.38215277565844 43.210294390695999 12.973638027439385 1 rotate no_reflect no_shear #
lump $-1 $-1 $35 $8 #
transform $-1 1 0 0 0 1 0 0 0 1 74.38215277565844 43.210294390695999 12.973638027439385 1 rotate no_reflect no_shear #
shell $-1 $-1 $-1 $36 $-1 $9 #
shell $-1 $-1 $-1 $37 $-1 $11 #
shell $-1 $-1 $-1 $38 $-1 $13 #
shell $-1 $-1 $-1 $39 $-1 $15 #
shell $-1 $-1 $-1 $40 $-1 $17 #
shell $-1 $-1 $-1 $41 $-1 $19 #
shell $-1 $-1 $-1 $42 $-1 $21 #
shell $-1 $-1 $-1 $43 $-1 $23 #
shell $-1 $-1 $-1 $44 $-1 $25 #
face $-1 $45 $46 $27 $-1 $47 forward single #
face $-1 $48 $49 $28 $-1 $50 forward single #
face $-1 $51 $52 $29 $-1 $53 forward single #
face $-1 $54 $55 $30 $-1 $56 reversed single #
face $-1 $57 $58 $31 $-1 $59 forward single #
face $-1 $60 $61 $32 $-1 $62 reversed single #
face $-1 $63 $64 $33 $-1 $65 forward single #
face $-1 $66 $67 $34 $-1 $68 forward single #
face $-1 $69 $70 $35 $-1 $71 forward single #
face $-1 $72 $73 $27 $-1 $74 reversed single #
loop $-1 $-1 $75 $36 #
plane-surface $-1 0 0 12.973638027439385 0 0 1 1 0 0 forward_v I I I I #
face $-1 $76 $77 $28 $-1 $78 reversed single #
loop $-1 $-1 $79 $37 #
plane-surface $-1 0 -43.210294390695999 0 0 1 0 0 0 1 forward_v I I I I #
face $-1 $80 $81 $29 $-1 $82 reversed single #
loop $-1 $-1 $83 $38 #
plane-surface $-1 0 43.210294390695999 0 0 -1 0 0 0 -1 forward_v I I I I #
face $-1 $84 $85 $30 $-1 $86 reversed single #
loop $-1 $-1 $87 $39 #
plane-surface $-1 45.10229171192492 -21.337930004984713 214.42314073987592 0 -1 0 -0.6018150307709319 0 -0.79863550430605224 forward_v I I I I #
face $-1 $88 $89 $31 $-1 $90 forward single #
loop $-1 $91 $92 $40 #
cone-surface $-1 68.206304162812927 -27.248839807410832 7.3988874283889139 -0.6018150307709319 0 -0.79863550430605224 1.1979532564590785 0 -0.90272254615639791 1 I I 0 1 1.5 forward I I I I #
face $-1 $93 $94 $32 $-1 $95 reversed single #
loop $-1 $-1 $96 $41 #
plane-surface $-1 -151.00143534135765 16.928783472068051 134.52456454553479 0 1 0 -0.51503808176128008 0 0.85716729658548041 forward_v I I I I #
face $-1 $97 $98 $33 $-1 $99 forward single #
loop $-1 $100 $101 $42 #
cone-surface $-1 -69.060308576796672 19.293228351929109 9.3950828337188703 0.51503808176128008 0 -0.85716729658548041 0.4285836482927402 0 0.25751904088064004 1 I I 0 1 0.5 forward I I I I #
face $-1 $102 $103 $34 $-1 $104 forward single #
loop $-1 $105 $106 $43 #
cone-surface $-1 -69.060308576796672 22.839895671720704 9.3950828337188703 0.51503808176128008 0 -0.85716729658548041 0.4285836482927402 0 0.25751904088064004 1 I I 0 1 0.5 forward I I I I #
face $-1 $107 $108 $35 $-1 $109 forward single #
loop $-1 $110 $111 $44 #
cone-surface $-1 -69.060308576796672 26.386562991512299 9.3950828337188703 0.51503808176128008 0 -0.85716729658548041 0.4285836482927402 0 0.25751904088064004 1 I I 0 1 0.5 forward I I I I #
face $-1 $112 $113 $27 $-1 $114 reversed single #
loop $-1 $-1 $115 $45 #
plane-surface $-1 0 0 -12.973638027439385 0 0 1 1 0 0 forward_v I I I I #
coedge $-1 $116 $117 $118 $119 forward $46 $-1 #
face $-1 $120 $121 $28 $-1 $122 reversed single #
loop $-1 $-1 $123 $48 #
plane-surface $-1 0 0 -12.973638027439385 0 0 1 1 0 0 forward_v I I I I #
coedge $-1 $124 $125 $126 $127 forward $49 $-1 #
face $-1 $128 $129 $29 $-1 $130 forward single #
loop $-1 $-1 $131 $51 #
plane-surface $-1 -74.38215277565844 0 0 1 0 0 0 0 -1 forward_v I I I I #
coedge $-1 $132 $133 $134 $135 forward $52 $-1 #
face $-1 $136 $137 $30 $-1 $138 reversed single #
loop $-1 $-1 $139 $54 #
plane-surface $-1 -44.426303411057162 -27.248839807410832 95.614684553160316 0.6018150307709319 0 0.79863550430605224 0.79863550430605224 0 -0.6018150307709319 forward_v I I I I #
coedge $-1 $140 $141 $142 $143 reversed $55 $-1 #
face $-1 $-1 $144 $31 $-1 $145 forward single #
loop $-1 $146 $147 $57 #
cone-surface $-1 66.149137036007161 -27.248839807410832 4.6689344997394855 -0.6018150307709319 0 -0.79863550430605224 0.59897662822953923 0 -0.45136127307819895 1 I I -0.70710678118654757 0.70710678118654757 0.75 forward I I I I #
loop $-1 $-1 $148 $40 #
coedge $-1 $92 $92 $149 $150 reversed $58 $-1 #
face $-1 $151 $152 $32 $-1 $153 reversed single #
loop $-1 $-1 $154 $60 #
plane-surface $-1 -74.382152775658454 22.839895671720704 7.008666927696126 -0.51503808176128008 0 0.85716729658548041 0.85716729658548041 0 0.51503808176128008 forward_v I I I I #
coedge $-1 $155 $156 $157 $158 reversed $61 $-1 #
face $-1 $-1 $159 $33 $-1 $160 forward single #
loop $-1 $161 $162 $63 #
cone-surface $-1 -68.573394274685384 19.293228351929109 8.5847213657236026 0.51503808176128008 0 -0.85716729658548041 0.2142918241463701 0 0.12875952044032002 1 I I -0.70710678118654746 0.70710678118654746 0.25 forward I I I I #
loop $-1 $-1 $163 $42 #
coedge $-1 $101 $101 $164 $165 reversed $64 $-1 #
face $-1 $-1 $166 $34 $-1 $167 forward single #
loop $-1 $168 $169 $66 #
cone-surface $-1 -68.573394274685384 22.839895671720704 8.5847213657236026 0.51503808176128008 0 -0.85716729658548041 0.2142918241463701 0 0.12875952044032002 1 I I -0.70710678118654746 0.70710678118654746 0.25 forward I I I I #
loop $-1 $-1 $170 $43 #
coedge $-1 $106 $106 $171 $172 reversed $67 $-1 #
face $-1 $-1 $173 $35 $-1 $174 forward single #
loop $-1 $175 $176 $69 #
cone-surface $-1 -68.573394274685384 26.386562991512299 8.5847213657236026 0.51503808176128008 0 -0.85716729658548041 0.2142918241463701 0 0.12875952044032002 1 I I -0.70710678118654746 0.70710678118654746 0.25 forward I I I I #
loop $-1 $-1 $177 $44 #
coedge $-1 $111 $111 $178 $179 reversed $70 $-1 #
face $-1 $180 $181 $27 $-1 $182 reversed single #
loop $-1 $-1 $183 $72 #
plane-surface $-1 0 -43.210294390695999 0 0 1 0 0 0 1 forward_v I I I I #
coedge $-1 $184 $185 $186 $187 forward $73 $-1 #
coedge $-1 $188 $75 $189 $190 forward $46 $-1 #
coedge $-1 $75 $188 $191 $192 forward $46 $-1 #
coedge $-1 $193 $194 $75 $119 reversed $195 $-1 #
edge $-1 $196 -43.210294390695999 $197 43.210294390695999 $118 $198 forward 7 unknown #
face $-1 $199 $200 $28 $-1 $201 forward single #
loop $-1 $-1 $202 $76 #
plane-surface $-1 74.38215277565844 0 0 -1 0 0 0 0 1 forward_v I I I I #
coedge $-1 $203 $204 $205 $206 forward $77 $-1 #
coedge $-1 $205 $79 $202 $207 reversed $49 $-1 #
coedge $-1 $79 $205 $208 $209 reversed $49 $-1 #
coedge $-1 $210 $211 $79 $127 reversed $200 $-1 #
edge $-1 $212 -74.38215277565844 $213 74.38215277565844 $126 $214 forward 7 unknown #
face $-1 $215 $216 $29 $-1 $217 reversed single #
loop $-1 $-1 $218 $80 #
plane-surface $-1 0 48.23556678112552 -5.8555780973359361 0 0 1 1 0 0 forward_v I I I I #
coedge $-1 $219 $220 $132 $221 forward $81 $-1 #
coedge $-1 $222 $83 $131 $221 reversed $52 $-1 #
coedge $-1 $83 $222 $223 $224 reversed $52 $-1 #
coedge $-1 $218 $225 $83 $135 reversed $129 $-1 #
edge $-1 $226 -74.38215277565844 $227 74.38215277565844 $134 $228 forward 7 unknown #
face $-1 $229 $230 $30 $-1 $231 forward single #
loop $-1 $-1 $232 $84 #
plane-surface $-1 45.10229171192492 -33.15974960983695 214.42314073987592 0 1 0 0.6018150307709319 0 0.79863550430605224 forward_v I I I I #
coedge $-1 $233 $234 $235 $236 reversed $85 $-1 #
coedge $-1 $141 $87 $237 $238 reversed $55 $-1 #
coedge $-1 $87 $140 $233 $239 reversed $55 $-1 #
coedge $-1 $235 $240 $87 $143 forward $230 $-1 #
edge $-1 $241 -51.83100691969598 $242 -42.690921401460059 $142 $243 forward 7 unknown #
loop $-1 $-1 $149 $88 #
plane-surface $-1 -44.426303411057162 -27.248839807410832 95.614684553160316 0.6018150307709319 0 0.79863550430605224 0.79863550430605224 0 -0.6018150307709319 forward_v I I I I #
loop $-1 $-1 $244 $57 #
coedge $-1 $147 $147 $148 $245 reversed $89 $-1 #
coedge $-1 $148 $148 $147 $245 forward $91 $-1 #
coedge $-1 $149 $149 $92 $150 forward $144 $-1 #
edge $-1 $246 0 $246 6.2831853071796004 $149 $247 forward 7 unknown #
face $-1 $248 $249 $32 $-1 $250 reversed single #
loop $-1 $-1 $251 $93 #
plane-surface $-1 -151.00143534135765 28.751007871373357 134.52456454553479 0 -1 0 0.51503808176128008 0 -0.85716729658548041 forward_v I I I I #
coedge $-1 $252 $253 $254 $255 reversed $94 $-1 #
coedge $-1 $156 $96 $256 $257 reversed $61 $-1 #
coedge $-1 $96 $155 $252 $258 reversed $61 $-1 #
coedge $-1 $254 $259 $96 $158 forward $260 $-1 #
edge $-1 $261 1.1185648950203841 $262 11.045943729401998 $157 $263 forward 7 unknown #
loop $-1 $-1 $164 $97 #
plane-surface $-1 -74.382152775658454 22.839895671720704 7.008666927696126 -0.51503808176128008 0 0.85716729658548041 0.85716729658548041 0 0.51503808176128008 forward_v I I I I #
loop $-1 $-1 $264 $63 #
coedge $-1 $162 $162 $163 $265 reversed $98 $-1 #
coedge $-1 $163 $163 $162 $265 forward $100 $-1 #
coedge $-1 $164 $164 $101 $165 forward $159 $-1 #
edge $-1 $266 0 $266 6.2831853071796004 $164 $267 forward 7 unknown #
loop $-1 $-1 $171 $102 #
plane-surface $-1 -74.382152775658454 22.839895671720704 7.008666927696126 -0.51503808176128008 0 0.85716729658548041 0.85716729658548041 0 0.51503808176128008 forward_v I I I I #
loop $-1 $-1 $268 $66 #
coedge $-1 $169 $169 $170 $269 reversed $103 $-1 #
coedge $-1 $170 $170 $169 $269 forward $105 $-1 #
coedge $-1 $171 $171 $106 $172 forward $166 $-1 #
edge $-1 $270 0 $270 6.2831853071796004 $171 $271 forward 7 unknown #
loop $-1 $-1 $178 $107 #
plane-surface $-1 -74.382152775658454 22.839895671720704 7.008666927696126 -0.51503808176128008 0 0.85716729658548041 0.85716729658548041 0 0.51503808176128008 forward_v I I I I #
loop $-1 $-1 $272 $69 #
coedge $-1 $176 $176 $177 $273 reversed $108 $-1 #
coedge $-1 $177 $177 $176 $273 forward $110 $-1 #
coedge $-1 $178 $178 $111 $179 forward $173 $-1 #
edge $-1 $274 0 $274 6.2831853071796004 $178 $275 forward 7 unknown #
face $-1 $276 $277 $27 $-1 $278 reversed single #
loop $-1 $-1 $279 $112 #
plane-surface $-1 -74.38215277565844 0 0 1 0 0 0 0 -1 forward_v I I I I #
coedge $-1 $280 $191 $281 $282 forward $113 $-1 #
coedge $-1 $283 $115 $280 $284 forward $73 $-1 #
coedge $-1 $115 $283 $285 $286 forward $73 $-1 #
coedge $-1 $194 $193 $115 $187 reversed $195 $-1 #
edge $-1 $287 -43.210294390695999 $288 43.210294390695999 $186 $289 forward 7 unknown #
coedge $-1 $117 $116 $290 $291 forward $46 $-1 #
coedge $-1 $292 $293 $116 $190 reversed $277 $-1 #
edge $-1 $197 -74.38215277565844 $294 74.38215277565844 $189 $295 forward 7 unknown #
coedge $-1 $183 $296 $117 $192 reversed $113 $-1 #
edge $-1 $297 -74.38215277565844 $196 74.38215277565844 $191 $298 forward 7 unknown #
coedge $-1 $186 $118 $296 $299 forward $195 $-1 #
coedge $-1 $118 $186 $292 $300 reversed $195 $-1 #
loop $-1 $-1 $193 $276 #
vertex $-1 $119 $301 #
vertex $-1 $119 $302 #
straight-curve $-1 74.38215277565844 0 12.973638027439385 0 1 0 I I #
face $-1 $303 $304 $28 $-1 $305 reversed single #
loop $-1 $-1 $211 $120 #
plane-surface $-1 0 -48.235566781125527 -5.8555780973359361 0 0 1 1 0 0 forward_v I I I I #
coedge $-1 $306 $307 $124 $207 forward $121 $-1 #
coedge $-1 $308 $123 $307 $309 forward $77 $-1 #
coedge $-1 $123 $308 $310 $311 forward $77 $-1 #
coedge $-1 $125 $124 $123 $206 reversed $49 $-1 #
edge $-1 $312 -74.38215277565844 $313 74.38215277565844 $123 $314 forward 7 unknown #
edge $-1 $313 -12.973638027439385 $213 -5.8555780973359361 $202 $315 forward 7 unknown #
coedge $-1 $310 $316 $125 $209 forward $317 $-1 #
edge $-1 $212 5.8555780973359361 $312 12.973638027439385 $208 $318 forward 7 unknown #
coedge $-1 $319 $126 $316 $320 forward $200 $-1 #
coedge $-1 $126 $319 $306 $321 forward $200 $-1 #
vertex $-1 $209 $322 #
vertex $-1 $321 $323 #
straight-curve $-1 0 -43.210294390695999 -5.8555780973359361 1 0 0 I I #
face $-1 $324 $325 $29 $-1 $326 reversed single #
loop $-1 $-1 $327 $128 #
plane-surface $-1 0 53.260839171555048 -9.4146080623876607 0 -1 0 0 0 -1 forward_v I I I I #
coedge $-1 $328 $134 $329 $330 forward $129 $-1 #
coedge $-1 $331 $131 $225 $332 reversed $81 $-1 #
coedge $-1 $131 $331 $333 $334 reversed $81 $-1 #
edge $-1 $335 -12.973638027439385 $227 -5.8555780973359361 $131 $336 forward 7 unknown #
coedge $-1 $133 $132 $337 $338 reversed $52 $-1 #
coedge $-1 $339 $329 $133 $224 forward $340 $-1 #
edge $-1 $226 5.8555780973359361 $341 12.973638027439385 $223 $342 forward 7 unknown #
coedge $-1 $134 $328 $219 $332 forward $129 $-1 #
vertex $-1 $224 $343 #
vertex $-1 $332 $344 #
straight-curve $-1 0 43.210294390695999 -5.8555780973359361 -1 0 0 I I #
face $-1 $-1 $345 $30 $-1 $346 reversed single #
loop $-1 $-1 $142 $136 #
plane-surface $-1 0 0 12.973638027439385 0 0 1 1 0 0 forward_v I I I I #
coedge $-1 $347 $348 $349 $350 reversed $137 $-1 #
coedge $-1 $351 $139 $141 $239 forward $85 $-1 #
coedge $-1 $139 $351 $347 $352 forward $85 $-1 #
coedge $-1 $349 $142 $139 $236 forward $230 $-1 #
edge $-1 $242 7.7135101012792973 $353 19.535329706131535 $235 $354 forward 7 unknown #
coedge $-1 $355 $356 $140 $238 forward $345 $-1 #
edge $-1 $357 -101.12548093975973 $241 -94.237932342498567 $237 $358 forward 7 unknown #
edge $-1 $242 137.31967847306311 $357 148.76430555131691 $141 $359 forward 7 unknown #
coedge $-1 $142 $349 $355 $360 forward $230 $-1 #
vertex $-1 $238 $361 #
vertex $-1 $143 $362 #
straight-curve $-1 22.55114585596246 -21.337930004984713 12.973638027439392 -1 0 0 I I #
coedge $-1 $244 $244 $-1 $363 reversed $146 $-1 #
edge $-1 $364 0 $364 6.2831853071796004 $147 $365 forward 7 unknown #
vertex $-1 $150 $366 #
ellipse-curve $-1 69.812110016540487 -27.248839807410832 9.5298637288087953 0.6018150307709319 0 0.79863550430605224 1.1979532564590785 0 -0.90272254615639791 1 I I #
face $-1 $-1 $260 $32 $-1 $367 forward single #
loop $-1 $-1 $368 $151 #
plane-surface $-1 -74.38215277565844 0 0 1 0 0 0 0 -1 forward_v I I I I #
coedge $-1 $369 $370 $371 $372 reversed $152 $-1 #
coedge $-1 $373 $154 $156 $258 forward $94 $-1 #
coedge $-1 $154 $373 $369 $374 forward $94 $-1 #
coedge $-1 $371 $157 $154 $255 forward $260 $-1 #
edge $-1 $262 5.5088356362076993 $375 17.331060035513005 $254 $376 forward 7 unknown #
coedge $-1 $377 $378 $155 $257 forward $249 $-1 #
edge $-1 $379 -60.25361534507126 $261 -54.288644245328008 $256 $380 forward 7 unknown #
edge $-1 $262 -11.581611750620059 $379 -1.6755537013839907e-014 $156 $381 forward 7 unknown #
coedge $-1 $157 $371 $377 $382 forward $260 $-1 #
loop $-1 $-1 $371 $248 #
vertex $-1 $257 $383 #
vertex $-1 $158 $384 #
straight-curve $-1 -75.500717670678824 16.928783472068051 12.973638027439385 1 0 0 I I #
coedge $-1 $264 $264 $-1 $385 reversed $161 $-1 #
edge $-1 $386 0 $386 6.2831853071796004 $162 $387 forward 7 unknown #
vertex $-1 $165 $388 #
ellipse-curve $-1 -69.418463358467633 19.293228351929109 9.9911524775677591 -0.51503808176128008 0 0.85716729658548041 0.4285836482927402 0 0.25751904088064004 1 I I #
coedge $-1 $268 $268 $-1 $389 reversed $168 $-1 #
edge $-1 $390 0 $390 6.2831853071796004 $169 $391 forward 7 unknown #
vertex $-1 $172 $392 #
ellipse-curve $-1 -69.418463358467633 22.839895671720704 9.9911524775677591 -0.51503808176128008 0 0.85716729658548041 0.4285836482927402 0 0.25751904088064004 1 I I #
coedge $-1 $272 $272 $-1 $393 reversed $175 $-1 #
edge $-1 $394 0 $394 6.2831853071796004 $176 $395 forward 7 unknown #
vertex $-1 $179 $396 #
ellipse-curve $-1 -69.418463358467633 26.386562991512299 9.9911524775677591 -0.51503808176128008 0 0.85716729658548041 0.4285836482927402 0 0.25751904088064004 1 I I #
face $-1 $-1 $195 $27 $-1 $397 reversed single #
loop $-1 $-1 $292 $180 #
plane-surface $-1 0 43.210294390695999 0 0 -1 0 0 0 -1 forward_v I I I I #
coedge $-1 $398 $290 $293 $399 forward $181 $-1 #
coedge $-1 $296 $183 $184 $284 reversed $113 $-1 #
coedge $-1 $290 $398 $183 $282 reversed $181 $-1 #
edge $-1 $297 -12.973638027439385 $400 12.973638027439385 $281 $401 forward 7 unknown #
coedge $-1 $185 $184 $398 $402 forward $73 $-1 #
edge $-1 $288 -74.38215277565844 $400 74.38215277565844 $280 $403 forward 7 unknown #
coedge $-1 $293 $292 $185 $286 reversed $277 $-1 #
edge $-1 $404 -74.38215277565844 $287 74.38215277565844 $285 $405 forward 7 unknown #
vertex $-1 $187 $406 #
vertex $-1 $299 $407 #
straight-curve $-1 74.38215277565844 0 -12.973638027439385 0 -1 0 I I #
coedge $-1 $279 $281 $188 $291 reversed $181 $-1 #
edge $-1 $294 -43.210294390695999 $297 43.210294390695999 $290 $408 forward 7 unknown #
coedge $-1 $285 $189 $194 $300 forward $277 $-1 #
coedge $-1 $189 $285 $279 $399 reversed $277 $-1 #
vertex $-1 $190 $409 #
straight-curve $-1 0 43.210294390695999 12.973638027439385 -1 0 0 I I #
coedge $-1 $191 $280 $193 $299 reversed $113 $-1 #
vertex $-1 $291 $410 #
straight-curve $-1 0 -43.210294390695999 12.973638027439385 1 0 0 I I #
edge $-1 $196 -12.973638027439385 $288 12.973638027439385 $193 $411 forward 7 unknown #
edge $-1 $197 -12.973638027439385 $287 12.973638027439385 $194 $412 forward 7 unknown #
point $-1 74.38215277565844 -43.210294390695999 12.973638027439385 #
point $-1 74.38215277565844 43.210294390695999 12.973638027439385 #
face $-1 $-1 $317 $28 $-1 $413 reversed single #
loop $-1 $-1 $414 $199 #
plane-surface $-1 0 -53.260839171555055 -9.4146080623876607 0 1 0 0 0 1 forward_v I I I I #
coedge $-1 $415 $202 $211 $321 reversed $121 $-1 #
coedge $-1 $202 $415 $203 $309 reversed $121 $-1 #
coedge $-1 $204 $203 $416 $417 forward $77 $-1 #
edge $-1 $313 43.210294390695999 $418 53.260839171555055 $307 $419 forward 7 unknown #
coedge $-1 $420 $208 $204 $311 reversed $317 $-1 #
edge $-1 $421 -53.260839171555055 $312 -43.210294390695999 $310 $422 forward 7 unknown #
vertex $-1 $209 $423 #
vertex $-1 $309 $424 #
straight-curve $-1 0 -43.210294390695999 -12.973638027439385 1 0 0 I I #
straight-curve $-1 74.38215277565844 -43.210294390695999 0 0 0 1 I I #
coedge $-1 $208 $420 $210 $320 reversed $317 $-1 #
loop $-1 $-1 $208 $303 #
straight-curve $-1 -74.38215277565844 -43.210294390695999 0 0 0 -1 I I #
coedge $-1 $211 $210 $425 $426 forward $200 $-1 #
edge $-1 $212 -5.025272390429528 $427 5.025272390429528 $316 $428 forward 7 unknown #
edge $-1 $429 -5.025272390429528 $213 5.025272390429528 $306 $430 forward 7 unknown #
point $-1 -74.38215277565844 -43.210294390695999 -5.8555780973359361 #
point $-1 74.38215277565844 -43.210294390695999 -5.8555780973359361 #
face $-1 $-1 $340 $29 $-1 $431 reversed single #
loop $-1 $-1 $337 $215 #
plane-surface $-1 0 0 -12.973638027439385 0 0 1 1 0 0 forward_v I I I I #
coedge $-1 $432 $433 $434 $435 forward $216 $-1 #
coedge $-1 $225 $218 $433 $436 forward $129 $-1 #
coedge $-1 $223 $434 $218 $330 reversed $340 $-1 #
edge $-1 $226 -5.025272390429528 $437 5.025272390429528 $329 $438 forward 7 unknown #
coedge $-1 $220 $219 $439 $440 forward $81 $-1 #
edge $-1 $441 -5.025272390429528 $227 5.025272390429528 $219 $442 forward 7 unknown #
coedge $-1 $443 $337 $220 $334 forward $325 $-1 #
edge $-1 $335 -5.0252723904295209 $444 5.025272390429528 $220 $445 forward 7 unknown #
vertex $-1 $334 $446 #
straight-curve $-1 -74.38215277565844 43.210294390695999 0 0 0 1 I I #
coedge $-1 $333 $447 $222 $338 forward $325 $-1 #
edge $-1 $341 -74.38215277565844 $335 74.38215277565844 $337 $448 forward 7 unknown #
coedge $-1 $434 $223 $447 $449 reversed $340 $-1 #
loop $-1 $-1 $223 $324 #
vertex $-1 $224 $450 #
straight-curve $-1 74.38215277565844 43.210294390695999 0 0 0 -1 I I #
point $-1 74.38215277565844 43.210294390695992 -5.8555780973359361 #
point $-1 -74.38215277565844 43.210294390695992 -5.8555780973359361 #
loop $-1 $-1 $237 $229 #
plane-surface $-1 74.38215277565844 0 0 -1 0 0 0 0 1 forward_v I I I I #
coedge $-1 $348 $232 $234 $352 reversed $137 $-1 #
coedge $-1 $232 $347 $451 $452 reversed $137 $-1 #
coedge $-1 $240 $235 $232 $350 forward $230 $-1 #
edge $-1 $353 42.690921401460059 $453 51.83100691969598 $349 $454 forward 7 unknown #
coedge $-1 $234 $233 $356 $455 reversed $85 $-1 #
edge $-1 $456 -148.76430555131691 $353 -137.31967847306311 $347 $457 forward 7 unknown #
vertex $-1 $236 $458 #
straight-curve $-1 65.242067257422519 -13.624419903705416 12.973638027439378 0 -1 0 I I #
coedge $-1 $451 $237 $240 $360 reversed $345 $-1 #
coedge $-1 $237 $451 $351 $455 forward $345 $-1 #
vertex $-1 $238 $459 #
straight-curve $-1 74.38215277565844 -21.337930004984713 107.21157036993796 0 0 1 I I #
straight-curve $-1 -44.426303411057162 -21.337930004984713 95.614684553160316 0.79863550430605224 0 -0.6018150307709319 I I #
edge $-1 $453 -33.15974960983695 $241 -21.337930004984713 $355 $460 forward 7 unknown #
point $-1 74.38215277565844 -21.337930004984713 12.973638027439385 #
point $-1 65.242067257422519 -21.337930004984713 12.973638027439378 #
edge $-1 $461 1 $461 0 $244 $-1 forward 7 unknown #
vertex $-1 $245 $462 #
ellipse-curve $-1 66.600498309085367 -27.248839807410832 5.2679111279690245 0.6018150307709319 0 0.79863550430605224 1.1979532564590785 0 -0.90272254615639791 1 I I #
point $-1 71.01006327299956 -27.248839807410832 8.6271411826524051 #
plane-surface $-1 0 0 12.973638027439385 0 0 1 1 0 0 forward_v I I I I #
coedge $-1 $378 $377 $370 $463 forward $249 $-1 #
coedge $-1 $370 $251 $253 $374 reversed $152 $-1 #
coedge $-1 $251 $369 $368 $463 reversed $152 $-1 #
coedge $-1 $259 $254 $251 $372 forward $260 $-1 #
edge $-1 $375 -11.045943729401998 $464 -1.1185648950203841 $371 $465 forward 7 unknown #
coedge $-1 $253 $252 $378 $466 reversed $94 $-1 #
edge $-1 $467 1.6755537013839907e-014 $375 11.581611750620059 $369 $468 forward 7 unknown #
vertex $-1 $255 $469 #
straight-curve $-1 -64.454773941276827 11.419947835860352 12.973638027439383 0 1 0 I I #
coedge $-1 $368 $256 $259 $382 reversed $249 $-1 #
coedge $-1 $256 $368 $373 $466 forward $249 $-1 #
vertex $-1 $257 $470 #
straight-curve $-1 -74.38215277565844 16.928783472068051 67.262282272767393 0 0 1 I I #
straight-curve $-1 -74.382152775658454 16.928783472068051 7.008666927696126 -0.85716729658548041 0 -0.51503808176128008 I I #
edge $-1 $464 -28.751007871373357 $261 -16.928783472068051 $377 $471 forward 7 unknown #
point $-1 -74.38215277565844 16.928783472068051 12.973638027439385 #
point $-1 -64.454773941276827 16.928783472068051 12.973638027439385 #
edge $-1 $472 1 $472 0 $264 $-1 forward 7 unknown #
vertex $-1 $265 $473 #
ellipse-curve $-1 -68.70215379512571 19.293228351929109 8.7990131898699726 -0.51503808176128008 0 0.85716729658548041 0.4285836482927402 0 0.25751904088064004 1 I I #
point $-1 -68.98987971017489 19.293228351929109 10.248671518448404 #
edge $-1 $474 1 $474 0 $268 $-1 forward 7 unknown #
vertex $-1 $269 $475 #
ellipse-curve $-1 -68.70215379512571 22.839895671720704 8.7990131898699726 -0.51503808176128008 0 0.85716729658548041 0.4285836482927402 0 0.25751904088064004 1 I I #
point $-1 -68.98987971017489 22.839895671720704 10.248671518448404 #
edge $-1 $476 1 $476 0 $272 $-1 forward 7 unknown #
vertex $-1 $273 $477 #
ellipse-curve $-1 -68.70215379512571 26.386562991512299 8.7990131898699726 -0.51503808176128008 0 0.85716729658548041 0.4285836482927402 0 0.25751904088064004 1 I I #
point $-1 -68.98987971017489 26.386562991512299 10.248671518448404 #
plane-surface $-1 74.38215277565844 0 0 -1 0 0 0 0 1 forward_v I I I I #
coedge $-1 $281 $279 $283 $402 reversed $181 $-1 #
edge $-1 $294 -12.973638027439385 $404 12.973638027439385 $293 $478 forward 7 unknown #
vertex $-1 $402 $479 #
straight-curve $-1 -74.38215277565844 -43.210294390695999 0 0 0 -1 I I #
edge $-1 $400 -43.210294390695999 $404 43.210294390695999 $398 $480 forward 7 unknown #
straight-curve $-1 0 -43.210294390695999 -12.973638027439385 -1 0 0 I I #
vertex $-1 $286 $481 #
straight-curve $-1 0 43.210294390695999 -12.973638027439385 1 0 0 I I #
point $-1 74.38215277565844 43.210294390695999 -12.973638027439385 #
point $-1 74.38215277565844 -43.210294390695999 -12.973638027439385 #
straight-curve $-1 -74.38215277565844 0 12.973638027439385 0 -1 0 I I #
point $-1 -74.38215277565844 43.210294390695999 12.973638027439385 #
point $-1 -74.38215277565844 -43.210294390695999 12.973638027439385 #
straight-curve $-1 74.38215277565844 -43.210294390695999 0 0 0 -1 I I #
straight-curve $-1 74.38215277565844 43.210294390695999 0 0 0 -1 I I #
plane-surface $-1 -74.38215277565844 0 0 1 0 0 0 0 -1 forward_v I I I I #
coedge $-1 $416 $425 $420 $482 forward $304 $-1 #
coedge $-1 $307 $306 $483 $484 forward $121 $-1 #
coedge $-1 $483 $414 $308 $417 reversed $304 $-1 #
edge $-1 $418 -74.38215277565844 $421 74.38215277565844 $416 $485 forward 7 unknown #
vertex $-1 $484 $486 #
straight-curve $-1 74.38215277565844 0 -12.973638027439385 0 -1 0 I I #
coedge $-1 $316 $310 $414 $482 reversed $317 $-1 #
vertex $-1 $311 $487 #
straight-curve $-1 -74.38215277565844 0 -12.973638027439385 0 1 0 I I #
point $-1 -74.38215277565844 -43.210294390695999 -12.973638027439385 #
point $-1 74.38215277565844 -43.210294390695999 -12.973638027439385 #
coedge $-1 $414 $483 $319 $426 reversed $304 $-1 #
edge $-1 $427 -74.38215277565844 $429 74.38215277565844 $425 $488 forward 7 unknown #
vertex $-1 $320 $489 #
straight-curve $-1 -74.38215277565844 -48.235566781125527 -5.8555780973359361 0 -1 0 I I #
vertex $-1 $321 $490 #
straight-curve $-1 74.38215277565844 -48.235566781125527 -5.8555780973359361 0 1 0 I I #
plane-surface $-1 74.38215277565844 0 0 -1 0 0 0 0 1 forward_v I I I I #
coedge $-1 $439 $327 $443 $491 reversed $216 $-1 #
coedge $-1 $327 $439 $328 $436 reversed $216 $-1 #
coedge $-1 $329 $339 $327 $435 reversed $340 $-1 #
edge $-1 $437 -3.5590299650517245 $492 3.5590299650517245 $434 $493 forward 7 unknown #
edge $-1 $437 -74.38215277565844 $441 74.38215277565844 $433 $494 forward 7 unknown #
vertex $-1 $330 $495 #
straight-curve $-1 74.38215277565844 48.23556678112552 -5.8555780973359361 0 1 0 I I #
coedge $-1 $433 $432 $331 $440 reversed $216 $-1 #
edge $-1 $441 -3.5590299650517245 $444 3.5590299650517245 $439 $496 forward 7 unknown #
vertex $-1 $436 $497 #
straight-curve $-1 -74.38215277565844 48.23556678112552 -5.8555780973359361 0 -1 0 I I #
coedge $-1 $447 $333 $432 $491 forward $325 $-1 #
vertex $-1 $491 $498 #
straight-curve $-1 -74.38215277565844 48.23556678112552 -12.973638027439385 0 1 0 I I #
point $-1 -74.38215277565844 43.210294390695999 -12.973638027439385 #
coedge $-1 $337 $443 $339 $449 forward $325 $-1 #
straight-curve $-1 0 43.210294390695999 -12.973638027439385 -1 0 0 I I #
edge $-1 $492 -53.260839171555048 $341 -43.210294390695999 $339 $499 forward 7 unknown #
point $-1 74.38215277565844 43.210294390695999 -12.973638027439385 #
coedge $-1 $356 $355 $348 $452 forward $345 $-1 #
edge $-1 $453 94.237932342498567 $456 101.12548093975973 $451 $500 forward 7 unknown #
vertex $-1 $360 $501 #
straight-curve $-1 22.55114585596246 -33.15974960983695 12.973638027439392 1 0 0 I I #
edge $-1 $456 -19.535329706131535 $357 -7.7135101012792973 $356 $502 forward 7 unknown #
vertex $-1 $455 $503 #
straight-curve $-1 -44.426303411057162 -33.15974960983695 95.614684553160316 -0.79863550430605224 0 0.6018150307709319 I I #
point $-1 65.242067257422519 -33.15974960983695 12.973638027439378 #
point $-1 74.38215277565844 -21.337930004984713 6.0860894301782338 #
straight-curve $-1 74.38215277565844 0 12.973638027439385 0 1 0 I I #
vertex $-1 $363 $504 #
point $-1 67.79845156554444 -27.248839807410832 4.3651885818126264 #
edge $-1 $464 54.288644245328008 $467 60.25361534507126 $368 $505 forward 7 unknown #
vertex $-1 $382 $506 #
straight-curve $-1 -75.500717670678824 28.751007871373357 12.973638027439385 -1 0 0 I I #
edge $-1 $467 -17.331060035513005 $379 -5.5088356362076993 $378 $507 forward 7 unknown #
vertex $-1 $466 $508 #
straight-curve $-1 -74.382152775658454 28.751007871373357 7.008666927696126 0.85716729658548041 0 0.51503808176128008 I I #
point $-1 -64.454773941276827 28.751007871373357 12.973638027439385 #
point $-1 -74.38215277565844 16.928783472068051 7.0086669276961349 #
straight-curve $-1 -74.38215277565844 0 12.973638027439385 0 -1 0 I I #
vertex $-1 $385 $509 #
point $-1 -68.273570146832967 19.293228351929109 9.0565322307506122 #
vertex $-1 $389 $510 #
point $-1 -68.273570146832967 22.839895671720704 9.0565322307506122 #
vertex $-1 $393 $511 #
point $-1 -68.273570146832967 26.386562991512299 9.0565322307506122 #
straight-curve $-1 -74.38215277565844 43.210294390695999 0 0 0 -1 I I #
point $-1 -74.38215277565844 -43.210294390695999 -12.973638027439385 #
straight-curve $-1 -74.38215277565844 0 -12.973638027439385 0 1 0 I I #
point $-1 -74.38215277565844 43.210294390695999 -12.973638027439385 #
edge $-1 $427 -3.5590299650517245 $421 3.5590299650517245 $420 $512 forward 7 unknown #
coedge $-1 $425 $416 $415 $484 reversed $304 $-1 #
edge $-1 $429 -3.5590299650517245 $418 3.5590299650517245 $415 $513 forward 7 unknown #
straight-curve $-1 0 -53.260839171555055 -12.973638027439385 -1 0 0 I I #
point $-1 74.38215277565844 -53.260839171555055 -12.973638027439385 #
point $-1 -74.38215277565844 -53.260839171555055 -12.973638027439385 #
straight-curve $-1 0 -53.260839171555055 -5.8555780973359361 1 0 0 I I #
point $-1 -74.38215277565844 -53.260839171555055 -5.8555780973359361 #
point $-1 74.38215277565844 -53.260839171555055 -5.8555780973359361 #
edge $-1 $444 -74.38215277565844 $492 74.38215277565844 $432 $514 forward 7 unknown #
vertex $-1 $449 $515 #
straight-curve $-1 74.38215277565844 53.260839171555048 -9.4146080623876607 0 0 -1 I I #
straight-curve $-1 0 53.260839171555048 -5.8555780973359361 -1 0 0 I I #
point $-1 74.38215277565844 53.260839171555048 -5.8555780973359361 #
straight-curve $-1 -74.38215277565844 53.260839171555048 -9.4146080623876607 0 0 -1 I I #
point $-1 -74.38215277565844 53.260839171555048 -5.8555780973359361 #
point $-1 -74.38215277565844 53.260839171555048 -12.973638027439385 #
straight-curve $-1 74.38215277565844 0 -12.973638027439385 0 -1 0 I I #
straight-curve $-1 74.38215277565844 -33.15974960983695 107.21157036993796 0 0 -1 I I #
point $-1 74.38215277565844 -33.15974960983695 12.973638027439385 #
straight-curve $-1 74.382152775658426 -13.624419903705416 6.0860894301782267 0 1 0 I I #
point $-1 74.38215277565844 -33.15974960983695 6.0860894301782338 #
point $-1 65.697775762928956 -27.248839807410832 4.0699578715099465 #
straight-curve $-1 -74.38215277565844 28.751007871373357 67.262282272767393 0 0 -1 I I #
point $-1 -74.38215277565844 28.751007871373357 12.973638027439385 #
straight-curve $-1 -74.38215277565844 11.419947835860352 7.0086669276961393 0 -1 0 I I #
point $-1 -74.38215277565844 28.751007871373357 7.0086669276961349 #
point $-1 -68.444634754245058 19.293228351929109 8.3704295415772325 #
point $-1 -68.444634754245058 22.839895671720704 8.3704295415772325 #
point $-1 -68.444634754245058 26.386562991512299 8.3704295415772325 #
straight-curve $-1 -74.38215277565844 -53.260839171555055 -9.4146080623876607 0 0 -1 I I #
straight-curve $-1 74.38215277565844 -53.260839171555055 -9.4146080623876607 0 0 -1 I I #
straight-curve $-1 0 53.260839171555048 -12.973638027439385 1 0 0 I I #
point $-1 74.38215277565844 53.260839171555048 -12.973638027439385 #
End-of-ACIS-data 