500 0 6 0           
7 Unknown 11 ACIS 5.0 NT 24 Thu Mar 25 15:34:16 1999 
-1 9.9999999999999995e-007 1e-010 
body $-1 $6 $-1 $7 #
body $-1 $8 $-1 $9 #
body $-1 $10 $-1 $11 #
body $-1 $12 $-1 $13 #
body $-1 $14 $-1 $15 #
body $-1 $16 $-1 $17 #
lump $-1 $-1 $18 $0 #
transform $-1 1 0 0 0 1 0 0 0 1 60.551164281136508 32.033888754341298 11.585363282672249 1 rotate no_reflect no_shear #
lump $-1 $-1 $19 $1 #
transform $-1 1 0 0 0 1 0 0 0 1 60.551164281136508 32.033888754341298 11.585363282672249 1 rotate no_reflect no_shear #
lump $-1 $-1 $20 $2 #
transform $-1 1 0 0 0 1 0 0 0 1 60.551164281136508 32.033888754341298 11.585363282672249 1 rotate no_reflect no_shear #
lump $-1 $-1 $21 $3 #
transform $-1 1 0 0 0 1 0 0 0 1 60.551164281136508 32.033888754341298 11.585363282672249 1 rotate no_reflect no_shear #
lump $-1 $-1 $22 $4 #
transform $-1 1 0 0 0 1 0 0 0 1 60.551164281136508 32.033888754341298 11.585363282672249 1 rotate no_reflect no_shear #
lump $-1 $-1 $23 $5 #
transform $-1 1 0 0 0 1 0 0 0 1 60.551164281136508 32.033888754341298 11.585363282672249 1 rotate no_reflect no_shear #
shell $-1 $-1 $-1 $24 $-1 $6 #
shell $-1 $-1 $-1 $25 $-1 $8 #
shell $-1 $-1 $-1 $26 $-1 $10 #
shell $-1 $-1 $-1 $27 $-1 $12 #
shell $-1 $-1 $-1 $28 $-1 $14 #
shell $-1 $-1 $-1 $29 $-1 $16 #
face $-1 $30 $31 $18 $-1 $32 reversed single #
face $-1 $33 $34 $19 $-1 $35 forward single #
face $-1 $36 $37 $20 $-1 $38 forward single #
face $-1 $39 $40 $21 $-1 $41 reversed single #
face $-1 $42 $43 $22 $-1 $44 forward single #
face $-1 $45 $46 $23 $-1 $47 forward single #
face $-1 $48 $49 $18 $-1 $50 reversed single #
loop $-1 $-1 $51 $24 #
plane-surface $-1 60.551164281136508 0 0 -1 0 0 0 0 1 forward_v I I I I #
face $-1 $52 $53 $19 $-1 $54 reversed single #
loop $-1 $-1 $55 $25 #
plane-surface $-1 -60.551164281136508 0 0 1 0 0 0 0 -1 forward_v I I I I #
face $-1 $56 $57 $20 $-1 $58 reversed single #
loop $-1 $-1 $59 $26 #
plane-surface $-1 60.551164281136508 0 0 -1 0 0 0 0 1 forward_v I I I I #
face $-1 $60 $61 $21 $-1 $62 reversed single #
loop $-1 $-1 $63 $27 #
plane-surface $-1 8.8106819789031618 -108.24605446856626 94.784936775035405 -1 0 0 0 -0.62932039886446345 0.77714595512881146 forward_v I I I I #
face $-1 $64 $65 $22 $-1 $66 forward single #
loop $-1 $67 $68 $28 #
cone-surface $-1 -5.2132670085706536 -23.74480788528599 4.2141278917653127 0 0.62932039886446345 -0.77714595512881146 2.5 0 0 1 I I 0 1 2.5 forward I I I I #
face $-1 $69 $70 $23 $-1 $71 forward single #
loop $-1 $72 $73 $29 #
cone-surface $-1 3.2011023839136357 -23.74480788528599 4.2141278917653127 0 0.62932039886446345 -0.77714595512881146 2.5 0 0 1 I I 0 1 2.5 forward I I I I #
face $-1 $74 $75 $18 $-1 $76 forward single #
loop $-1 $-1 $77 $30 #
plane-surface $-1 -60.551164281136508 0 0 1 0 0 0 0 -1 forward_v I I I I #
coedge $-1 $78 $79 $80 $81 reversed $31 $-1 #
face $-1 $82 $83 $19 $-1 $84 reversed single #
loop $-1 $-1 $85 $33 #
plane-surface $-1 0 0 -11.585363282672249 0 0 1 1 0 0 forward_v I I I I #
coedge $-1 $86 $87 $88 $89 forward $34 $-1 #
face $-1 $90 $91 $20 $-1 $92 reversed single #
loop $-1 $-1 $93 $36 #
plane-surface $-1 0 0 -11.585363282672249 0 0 1 1 0 0 forward_v I I I I #
coedge $-1 $94 $95 $96 $97 forward $37 $-1 #
face $-1 $98 $99 $21 $-1 $100 reversed single #
loop $-1 $-1 $101 $39 #
plane-surface $-1 -1.006082312328509 -32.033888754341305 0.67075197618459015 0 -0.62932039886446345 0.77714595512881146 1 0 0 forward_v I I I I #
coedge $-1 $102 $103 $104 $105 reversed $40 $-1 #
face $-1 $-1 $106 $22 $-1 $107 forward single #
loop $-1 $108 $109 $42 #
cone-surface $-1 -5.2132670085706536 -21.408287612622797 1.3287657101911847 0 0.62932039886446345 -0.77714595512881146 1.25 0 0 1 I I -0.70710678118654746 0.70710678118654746 1.25 forward I I I I #
loop $-1 $-1 $110 $28 #
coedge $-1 $68 $68 $111 $112 reversed $43 $-1 #
face $-1 $-1 $113 $23 $-1 $114 forward single #
loop $-1 $115 $116 $45 #
cone-surface $-1 3.2011023839136357 -21.408287612622797 1.3287657101911847 0 0.62932039886446345 -0.77714595512881146 1.25 0 0 1 I I -0.70710678118654746 0.70710678118654746 1.25 forward I I I I #
loop $-1 $-1 $117 $29 #
coedge $-1 $73 $73 $118 $119 reversed $46 $-1 #
face $-1 $120 $121 $18 $-1 $122 reversed single #
loop $-1 $-1 $123 $48 #
plane-surface $-1 0 0 11.585363282672249 0 0 1 1 0 0 forward_v I I I I #
coedge $-1 $124 $125 $126 $127 reversed $49 $-1 #
coedge $-1 $128 $51 $129 $130 reversed $31 $-1 #
coedge $-1 $51 $128 $131 $132 forward $31 $-1 #
coedge $-1 $133 $134 $51 $81 forward $121 $-1 #
edge $-1 $135 -32.033888754341298 $136 32.033888754341298 $51 $137 forward 7 unknown #
face $-1 $138 $139 $19 $-1 $140 reversed single #
loop $-1 $-1 $141 $52 #
plane-surface $-1 -65.950413109191174 -22.062100075731248 0 0 1 0 0 0 1 forward_v I I I I #
coedge $-1 $142 $143 $87 $144 forward $53 $-1 #
coedge $-1 $145 $55 $146 $147 reversed $34 $-1 #
coedge $-1 $55 $145 $85 $144 reversed $34 $-1 #
coedge $-1 $148 $149 $55 $89 reversed $150 $-1 #
edge $-1 $151 -11.585363282672249 $152 11.585363282672249 $88 $153 forward 7 unknown #
face $-1 $154 $155 $20 $-1 $156 reversed single #
loop $-1 $-1 $96 $56 #
plane-surface $-1 65.950413109191174 -22.062100075731248 0 0 1 0 0 0 1 forward_v I I I I #
coedge $-1 $157 $158 $95 $159 forward $57 $-1 #
coedge $-1 $160 $59 $161 $162 reversed $37 $-1 #
coedge $-1 $59 $160 $93 $159 reversed $37 $-1 #
coedge $-1 $163 $164 $59 $97 reversed $91 $-1 #
edge $-1 $165 -11.585363282672249 $166 11.585363282672249 $96 $167 forward 7 unknown #
face $-1 $168 $169 $21 $-1 $170 forward single #
loop $-1 $-1 $171 $60 #
plane-surface $-1 -10.82284660356018 -108.24605446856626 94.784936775035405 1 0 0 0 0.62932039886446345 -0.77714595512881146 forward_v I I I I #
coedge $-1 $172 $173 $174 $175 reversed $61 $-1 #
coedge $-1 $103 $63 $176 $177 reversed $40 $-1 #
coedge $-1 $63 $102 $172 $178 reversed $40 $-1 #
coedge $-1 $174 $179 $63 $105 forward $169 $-1 #
edge $-1 $180 22.08913847994183 $181 35.567560669887229 $104 $182 forward 7 unknown #
loop $-1 $-1 $111 $64 #
plane-surface $-1 -1.006082312328509 -32.033888754341305 0.67075197618459015 0 -0.62932039886446345 0.77714595512881146 1 0 0 forward_v I I I I #
loop $-1 $-1 $183 $42 #
coedge $-1 $109 $109 $110 $184 reversed $65 $-1 #
coedge $-1 $110 $110 $109 $184 forward $67 $-1 #
coedge $-1 $111 $111 $68 $112 forward $106 $-1 #
edge $-1 $185 1.3506768612739696e-017 $185 6.2831853071796004 $111 $186 forward 7 unknown #
loop $-1 $-1 $118 $69 #
plane-surface $-1 -1.006082312328509 -32.033888754341305 0.67075197618459015 0 -0.62932039886446345 0.77714595512881146 1 0 0 forward_v I I I I #
loop $-1 $-1 $187 $45 #
coedge $-1 $116 $116 $117 $188 reversed $70 $-1 #
coedge $-1 $117 $117 $116 $188 forward $72 $-1 #
coedge $-1 $118 $118 $73 $119 forward $113 $-1 #
edge $-1 $189 1.3506768612739696e-017 $189 6.2831853071796004 $118 $190 forward 7 unknown #
face $-1 $191 $192 $18 $-1 $193 reversed single #
loop $-1 $-1 $80 $74 #
plane-surface $-1 0 0 -11.585363282672249 0 0 1 1 0 0 forward_v I I I I #
coedge $-1 $194 $195 $128 $196 forward $75 $-1 #
coedge $-1 $197 $77 $198 $199 reversed $49 $-1 #
coedge $-1 $77 $197 $200 $201 forward $49 $-1 #
coedge $-1 $134 $133 $77 $127 forward $121 $-1 #
edge $-1 $202 -32.033888754341298 $203 32.033888754341298 $77 $204 forward 7 unknown #
coedge $-1 $79 $78 $123 $196 reversed $31 $-1 #
coedge $-1 $205 $206 $78 $130 forward $207 $-1 #
edge $-1 $208 -11.585363282672249 $135 11.585363282672249 $78 $209 forward 7 unknown #
coedge $-1 $210 $211 $79 $132 reversed $192 $-1 #
edge $-1 $212 -11.585363282672249 $136 11.585363282672249 $79 $213 forward 7 unknown #
coedge $-1 $126 $80 $211 $214 forward $121 $-1 #
coedge $-1 $80 $126 $205 $215 forward $121 $-1 #
vertex $-1 $81 $216 #
vertex $-1 $132 $217 #
straight-curve $-1 60.551164281136508 0 -11.585363282672249 0 -1 0 I I #
face $-1 $218 $150 $19 $-1 $219 reversed single #
loop $-1 $-1 $220 $82 #
plane-surface $-1 -71.349661937245841 -20.562100075731248 0 1 0 0 0 0 -1 forward_v I I I I #
coedge $-1 $221 $222 $223 $224 forward $83 $-1 #
coedge $-1 $225 $85 $221 $226 forward $53 $-1 #
coedge $-1 $85 $225 $148 $227 forward $53 $-1 #
edge $-1 $151 19.062100075731248 $228 22.062100075731248 $85 $229 forward 7 unknown #
coedge $-1 $87 $86 $230 $231 forward $34 $-1 #
coedge $-1 $232 $233 $86 $147 forward $234 $-1 #
edge $-1 $235 -22.062100075731248 $152 -19.062100075731248 $146 $236 forward 7 unknown #
coedge $-1 $237 $88 $143 $227 reversed $150 $-1 #
coedge $-1 $88 $237 $232 $238 reversed $150 $-1 #
loop $-1 $-1 $88 $138 #
vertex $-1 $144 $239 #
vertex $-1 $238 $240 #
straight-curve $-1 -60.551164281136508 -19.062100075731248 0 0 0 1 I I #
face $-1 $241 $242 $20 $-1 $243 reversed single #
loop $-1 $-1 $244 $90 #
plane-surface $-1 65.950413109191174 -19.062100075731248 0 0 -1 0 0 0 -1 forward_v I I I I #
coedge $-1 $245 $93 $246 $247 forward $57 $-1 #
coedge $-1 $93 $245 $163 $248 forward $57 $-1 #
edge $-1 $165 -22.062100075731248 $249 -19.062100075731248 $93 $250 forward 7 unknown #
coedge $-1 $95 $94 $251 $252 forward $37 $-1 #
coedge $-1 $253 $254 $94 $162 forward $255 $-1 #
edge $-1 $256 19.062100075731248 $166 22.062100075731248 $161 $257 forward 7 unknown #
coedge $-1 $258 $96 $158 $248 reversed $91 $-1 #
coedge $-1 $96 $258 $253 $259 reversed $91 $-1 #
vertex $-1 $159 $260 #
vertex $-1 $259 $261 #
straight-curve $-1 60.551164281136508 -22.062100075731248 0 0 0 1 I I #
face $-1 $-1 $262 $21 $-1 $263 reversed single #
loop $-1 $-1 $104 $98 #
plane-surface $-1 0 0 11.585363282672249 0 0 1 1 0 0 forward_v I I I I #
coedge $-1 $264 $265 $266 $267 reversed $99 $-1 #
coedge $-1 $268 $101 $103 $178 forward $61 $-1 #
coedge $-1 $101 $268 $264 $269 forward $61 $-1 #
coedge $-1 $266 $104 $101 $175 forward $169 $-1 #
edge $-1 $181 -9.3137231350674163 $270 10.319805447395925 $174 $271 forward 7 unknown #
coedge $-1 $272 $273 $102 $177 forward $262 $-1 #
edge $-1 $274 -46.721716411333105 $180 -35.807105104845455 $176 $275 forward 7 unknown #
edge $-1 $181 -17.343488827283885 $274 -9.1551213131864128e-015 $103 $276 forward 7 unknown #
coedge $-1 $104 $266 $272 $277 forward $169 $-1 #
vertex $-1 $105 $278 #
vertex $-1 $105 $279 #
straight-curve $-1 8.8106819789031618 -54.123027234283128 11.585363282672247 0 1 0 I I #
coedge $-1 $183 $183 $-1 $280 reversed $108 $-1 #
edge $-1 $281 0 $281 6.2831853071796004 $109 $282 forward 7 unknown #
vertex $-1 $112 $283 #
ellipse-curve $-1 -5.2132670085706536 -25.294677659368602 6.1280576294284224 0 -0.62932039886446345 0.77714595512881146 2.5 0 0 1 I I #
coedge $-1 $187 $187 $-1 $284 reversed $115 $-1 #
edge $-1 $285 0 $285 6.2831853071796004 $116 $286 forward 7 unknown #
vertex $-1 $119 $287 #
ellipse-curve $-1 3.2011023839136357 -25.294677659368602 6.1280576294284224 0 -0.62932039886446345 0.77714595512881146 2.5 0 0 1 I I #
face $-1 $-1 $207 $18 $-1 $288 reversed single #
loop $-1 $-1 $198 $120 #
plane-surface $-1 0 -32.033888754341298 0 0 1 0 0 0 1 forward_v I I I I #
coedge $-1 $289 $123 $206 $290 forward $75 $-1 #
coedge $-1 $123 $289 $210 $291 forward $75 $-1 #
edge $-1 $212 -32.033888754341298 $208 32.033888754341298 $128 $292 forward 7 unknown #
coedge $-1 $125 $124 $289 $293 reversed $49 $-1 #
coedge $-1 $211 $210 $124 $199 forward $192 $-1 #
edge $-1 $294 -11.585363282672249 $202 11.585363282672249 $124 $295 forward 7 unknown #
coedge $-1 $206 $205 $125 $201 reversed $207 $-1 #
edge $-1 $296 -11.585363282672249 $203 11.585363282672249 $200 $297 forward 7 unknown #
vertex $-1 $127 $298 #
vertex $-1 $215 $299 #
straight-curve $-1 -60.551164281136508 0 -11.585363282672249 0 1 0 I I #
coedge $-1 $200 $129 $134 $215 reversed $207 $-1 #
coedge $-1 $129 $200 $194 $290 reversed $207 $-1 #
loop $-1 $-1 $129 $191 #
vertex $-1 $196 $300 #
straight-curve $-1 60.551164281136508 32.033888754341298 0 0 0 -1 I I #
coedge $-1 $198 $131 $195 $291 reversed $192 $-1 #
coedge $-1 $131 $198 $133 $214 reversed $192 $-1 #
vertex $-1 $196 $301 #
straight-curve $-1 60.551164281136508 -32.033888754341298 0 0 0 -1 I I #
edge $-1 $136 -60.551164281136508 $202 60.551164281136508 $211 $302 forward 7 unknown #
edge $-1 $203 -60.551164281136508 $135 60.551164281136508 $205 $303 forward 7 unknown #
point $-1 60.551164281136508 32.033888754341298 -11.585363282672249 #
point $-1 60.551164281136508 -32.033888754341298 -11.585363282672249 #
face $-1 $-1 $234 $19 $-1 $304 forward single #
plane-surface $-1 -65.950413109191174 -19.062100075731248 0 0 -1 0 0 0 -1 forward_v I I I I #
coedge $-1 $305 $306 $237 $307 forward $139 $-1 #
coedge $-1 $230 $141 $142 $226 reversed $83 $-1 #
coedge $-1 $141 $230 $233 $308 reversed $83 $-1 #
coedge $-1 $306 $305 $141 $224 reversed $139 $-1 #
edge $-1 $309 -11.585363282672249 $310 11.585363282672249 $223 $311 forward 7 unknown #
coedge $-1 $143 $142 $305 $312 forward $53 $-1 #
edge $-1 $228 -5.3992488280546667 $310 5.3992488280546667 $221 $313 forward 7 unknown #
edge $-1 $314 -5.3992488280546667 $151 5.3992488280546667 $148 $315 forward 7 unknown #
vertex $-1 $226 $316 #
straight-curve $-1 -60.551164281136508 0 -11.585363282672249 0 -1 0 I I #
coedge $-1 $222 $221 $145 $231 reversed $83 $-1 #
edge $-1 $235 -11.585363282672249 $228 11.585363282672249 $230 $317 forward 7 unknown #
coedge $-1 $318 $146 $149 $238 forward $234 $-1 #
coedge $-1 $146 $318 $222 $308 forward $234 $-1 #
loop $-1 $-1 $146 $218 #
vertex $-1 $147 $319 #
straight-curve $-1 -60.551164281136508 0 11.585363282672249 0 1 0 I I #
coedge $-1 $149 $148 $220 $307 reversed $150 $-1 #
edge $-1 $152 -5.3992488280546667 $320 5.3992488280546667 $149 $321 forward 7 unknown #
point $-1 -60.551164281136508 -19.062100075731248 -11.585363282672249 #
point $-1 -60.551164281136508 -19.062100075731248 11.585363282672249 #
face $-1 $-1 $255 $20 $-1 $322 forward single #
loop $-1 $-1 $323 $154 #
plane-surface $-1 71.349661937245841 -20.562100075731248 0 -1 0 0 0 0 1 forward_v I I I I #
coedge $-1 $246 $324 $325 $326 forward $155 $-1 #
coedge $-1 $158 $157 $327 $328 forward $57 $-1 #
coedge $-1 $251 $244 $157 $247 reversed $155 $-1 #
edge $-1 $249 -5.3992488280546667 $329 5.3992488280546667 $246 $330 forward 7 unknown #
edge $-1 $331 -5.3992488280546667 $165 5.3992488280546667 $163 $332 forward 7 unknown #
vertex $-1 $247 $333 #
straight-curve $-1 60.551164281136508 0 -11.585363282672249 0 1 0 I I #
coedge $-1 $324 $246 $160 $252 reversed $155 $-1 #
edge $-1 $256 -11.585363282672249 $249 11.585363282672249 $251 $334 forward 7 unknown #
coedge $-1 $335 $161 $164 $259 forward $255 $-1 #
coedge $-1 $161 $335 $324 $336 forward $255 $-1 #
loop $-1 $-1 $161 $241 #
vertex $-1 $162 $337 #
straight-curve $-1 60.551164281136508 0 11.585363282672249 0 -1 0 I I #
coedge $-1 $164 $163 $323 $338 reversed $91 $-1 #
edge $-1 $166 -5.3992488280546667 $339 5.3992488280546667 $164 $340 forward 7 unknown #
point $-1 60.551164281136508 -22.062100075731248 -11.585363282672249 #
point $-1 60.551164281136508 -22.062100075731248 11.585363282672249 #
loop $-1 $-1 $176 $168 #
plane-surface $-1 0 -32.033888754341298 0 0 1 0 0 0 1 forward_v I I I I #
coedge $-1 $265 $171 $173 $269 reversed $99 $-1 #
coedge $-1 $171 $264 $341 $342 reversed $99 $-1 #
coedge $-1 $179 $174 $171 $267 forward $169 $-1 #
edge $-1 $270 -35.567560669887229 $343 -22.08913847994183 $266 $344 forward 7 unknown #
coedge $-1 $173 $172 $273 $345 reversed $61 $-1 #
edge $-1 $346 9.1551213131864128e-015 $270 17.343488827283885 $264 $347 forward 7 unknown #
vertex $-1 $175 $348 #
straight-curve $-1 -0.50304115616425449 -18.555466564395903 11.585363282672249 -1 0 0 I I #
coedge $-1 $341 $176 $179 $277 reversed $262 $-1 #
coedge $-1 $176 $341 $268 $345 forward $262 $-1 #
vertex $-1 $177 $349 #
straight-curve $-1 8.8106819789031618 -32.033888754341298 47.392468387517702 0 0 1 I I #
straight-curve $-1 8.8106819789031618 -32.033888754341305 0.67075197618459015 0 -0.77714595512881146 -0.62932039886446345 I I #
edge $-1 $343 -10.82284660356018 $180 8.8106819789031618 $272 $350 forward 7 unknown #
point $-1 8.8106819789031618 -32.033888754341298 11.585363282672249 #
point $-1 8.8106819789031618 -18.5554665643959 11.585363282672249 #
edge $-1 $351 1 $351 0 $183 $-1 forward 7 unknown #
vertex $-1 $184 $352 #
ellipse-curve $-1 -5.2132670085706536 -22.194938111203378 2.300198154102199 0 -0.62932039886446345 0.77714595512881146 2.5 0 0 1 I I #
point $-1 -2.7132670085706536 -25.294677659368606 6.1280576294284268 #
edge $-1 $353 1 $353 0 $187 $-1 forward 7 unknown #
vertex $-1 $188 $354 #
ellipse-curve $-1 3.2011023839136357 -22.194938111203378 2.300198154102199 0 -0.62932039886446345 0.77714595512881146 2.5 0 0 1 I I #
point $-1 5.7011023839136357 -25.294677659368606 6.1280576294284268 #
plane-surface $-1 0 32.033888754341298 0 0 -1 0 0 0 -1 forward_v I I I I #
coedge $-1 $195 $194 $197 $293 forward $75 $-1 #
edge $-1 $208 -60.551164281136508 $296 60.551164281136508 $206 $355 forward 7 unknown #
edge $-1 $294 -60.551164281136508 $212 60.551164281136508 $210 $356 forward 7 unknown #
straight-curve $-1 60.551164281136508 0 11.585363282672249 0 1 0 I I #
edge $-1 $296 -32.033888754341298 $294 32.033888754341298 $197 $357 forward 7 unknown #
vertex $-1 $293 $358 #
straight-curve $-1 -60.551164281136508 -32.033888754341298 0 0 0 -1 I I #
vertex $-1 $290 $359 #
straight-curve $-1 -60.551164281136508 32.033888754341298 0 0 0 -1 I I #
point $-1 -60.551164281136508 -32.033888754341298 -11.585363282672249 #
point $-1 -60.551164281136508 32.033888754341298 -11.585363282672249 #
point $-1 60.551164281136508 32.033888754341298 11.585363282672249 #
point $-1 60.551164281136508 -32.033888754341298 11.585363282672249 #
straight-curve $-1 0 -32.033888754341298 -11.585363282672249 -1 0 0 I I #
straight-curve $-1 0 32.033888754341298 -11.585363282672249 1 0 0 I I #
plane-surface $-1 0 0 11.585363282672249 0 0 1 1 0 0 forward_v I I I I #
coedge $-1 $223 $220 $225 $312 reversed $139 $-1 #
coedge $-1 $220 $223 $318 $360 reversed $139 $-1 #
edge $-1 $320 -11.585363282672249 $314 11.585363282672249 $237 $361 forward 7 unknown #
edge $-1 $309 -5.3992488280546667 $235 5.3992488280546667 $222 $362 forward 7 unknown #
vertex $-1 $360 $363 #
vertex $-1 $312 $364 #
straight-curve $-1 -71.349661937245841 -22.062100075731248 0 0 0 -1 I I #
edge $-1 $310 -1.5 $314 1.5 $305 $365 forward 7 unknown #
straight-curve $-1 -65.950413109191174 -22.062100075731248 -11.585363282672249 -1 0 0 I I #
vertex $-1 $227 $366 #
straight-curve $-1 -65.950413109191174 -19.062100075731248 -11.585363282672249 1 0 0 I I #
point $-1 -60.551164281136508 -22.062100075731248 -11.585363282672249 #
straight-curve $-1 -60.551164281136508 -22.062100075731248 0 0 0 -1 I I #
coedge $-1 $233 $232 $306 $360 forward $234 $-1 #
point $-1 -60.551164281136508 -22.062100075731248 11.585363282672249 #
vertex $-1 $238 $367 #
straight-curve $-1 -65.950413109191174 -19.062100075731248 11.585363282672249 -1 0 0 I I #
plane-surface $-1 0 0 11.585363282672249 0 0 1 1 0 0 forward_v I I I I #
coedge $-1 $327 $368 $258 $338 forward $242 $-1 #
coedge $-1 $244 $251 $254 $336 reversed $155 $-1 #
coedge $-1 $368 $327 $244 $326 reversed $242 $-1 #
edge $-1 $369 -11.585363282672249 $329 11.585363282672249 $325 $370 forward 7 unknown #
coedge $-1 $325 $323 $245 $328 reversed $242 $-1 #
edge $-1 $329 -1.5 $331 1.5 $327 $371 forward 7 unknown #
vertex $-1 $328 $372 #
straight-curve $-1 65.950413109191174 -19.062100075731248 -11.585363282672249 1 0 0 I I #
vertex $-1 $338 $373 #
straight-curve $-1 65.950413109191174 -22.062100075731248 -11.585363282672249 -1 0 0 I I #
point $-1 60.551164281136508 -19.062100075731248 -11.585363282672249 #
straight-curve $-1 60.551164281136508 -19.062100075731248 0 0 0 -1 I I #
coedge $-1 $254 $253 $368 $374 forward $255 $-1 #
edge $-1 $369 -5.3992488280546667 $256 5.3992488280546667 $324 $375 forward 7 unknown #
point $-1 60.551164281136508 -19.062100075731248 11.585363282672249 #
edge $-1 $339 -11.585363282672249 $331 11.585363282672249 $323 $376 forward 7 unknown #
vertex $-1 $374 $377 #
straight-curve $-1 65.950413109191174 -22.062100075731248 11.585363282672249 1 0 0 I I #
coedge $-1 $273 $272 $265 $342 forward $262 $-1 #
edge $-1 $343 35.807105104845455 $346 46.721716411333105 $341 $378 forward 7 unknown #
vertex $-1 $277 $379 #
straight-curve $-1 -10.82284660356018 -54.123027234283128 11.585363282672247 0 -1 0 I I #
edge $-1 $346 -10.319805447395925 $274 9.3137231350674163 $273 $380 forward 7 unknown #
vertex $-1 $345 $381 #
straight-curve $-1 -10.82284660356018 -32.033888754341305 0.67075197618459015 0 0.77714595512881146 0.62932039886446345 I I #
point $-1 -10.82284660356018 -18.5554665643959 11.585363282672249 #
point $-1 8.8106819789031618 -32.033888754341298 0.67075197618459592 #
straight-curve $-1 0 -32.033888754341298 11.585363282672249 1 0 0 I I #
vertex $-1 $280 $382 #
point $-1 -2.7132670085706536 -22.194938111203378 2.300198154102199 #
vertex $-1 $284 $383 #
point $-1 5.7011023839136357 -22.194938111203378 2.300198154102199 #
straight-curve $-1 0 32.033888754341298 11.585363282672249 -1 0 0 I I #
straight-curve $-1 0 -32.033888754341298 11.585363282672249 1 0 0 I I #
straight-curve $-1 -60.551164281136508 0 11.585363282672249 0 -1 0 I I #
point $-1 -60.551164281136508 -32.033888754341298 11.585363282672249 #
point $-1 -60.551164281136508 32.033888754341298 11.585363282672249 #
edge $-1 $320 -1.5 $309 1.5 $306 $384 forward 7 unknown #
straight-curve $-1 -71.349661937245841 -19.062100075731248 0 0 0 -1 I I #
straight-curve $-1 -65.950413109191174 -22.062100075731248 11.585363282672249 1 0 0 I I #
point $-1 -71.349661937245841 -22.062100075731248 11.585363282672249 #
point $-1 -71.349661937245841 -22.062100075731248 -11.585363282672249 #
straight-curve $-1 -71.349661937245841 -20.562100075731248 -11.585363282672249 0 1 0 I I #
point $-1 -71.349661937245841 -19.062100075731248 -11.585363282672249 #
point $-1 -71.349661937245841 -19.062100075731248 11.585363282672249 #
coedge $-1 $323 $325 $335 $374 reversed $242 $-1 #
vertex $-1 $374 $385 #
straight-curve $-1 71.349661937245841 -19.062100075731248 0 0 0 -1 I I #
straight-curve $-1 71.349661937245841 -20.562100075731248 -11.585363282672249 0 -1 0 I I #
point $-1 71.349661937245841 -19.062100075731248 -11.585363282672249 #
point $-1 71.349661937245841 -22.062100075731248 -11.585363282672249 #
edge $-1 $339 -1.5 $369 1.5 $368 $386 forward 7 unknown #
straight-curve $-1 65.950413109191174 -19.062100075731248 11.585363282672249 -1 0 0 I I #
straight-curve $-1 71.349661937245841 -22.062100075731248 0 0 0 -1 I I #
point $-1 71.349661937245841 -22.062100075731248 11.585363282672249 #
straight-curve $-1 -10.82284660356018 -32.033888754341298 47.392468387517702 0 0 -1 I I #
point $-1 -10.82284660356018 -32.033888754341298 11.585363282672249 #
straight-curve $-1 -0.50304115616425449 -32.033888754341298 0.67075197618459903 1 0 0 I I #
point $-1 -10.82284660356018 -32.033888754341298 0.67075197618459592 #
point $-1 -5.2132670085706536 -20.621637114042215 0.35733326628017037 #
point $-1 3.2011023839136357 -20.621637114042215 0.35733326628017037 #
straight-curve $-1 -71.349661937245841 -20.562100075731248 11.585363282672249 0 -1 0 I I #
point $-1 71.349661937245841 -19.062100075731248 11.585363282672249 #
straight-curve $-1 71.349661937245841 -20.562100075731248 11.585363282672249 0 1 0 I I #
End-of-ACIS-data 