500 0 9 0           
7 Unknown 11 ACIS 5.0 NT 24 Thu Mar 25 18:54:13 1999 
-1 9.9999999999999995e-007 1e-010 
body $-1 $9 $-1 $10 #
body $-1 $11 $-1 $12 #
body $-1 $13 $-1 $14 #
body $-1 $15 $-1 $16 #
body $-1 $17 $-1 $18 #
body $-1 $19 $-1 $20 #
body $-1 $21 $-1 $22 #
body $-1 $23 $-1 $24 #
body $-1 $25 $-1 $26 #
lump $-1 $-1 $27 $0 #
transform $-1 1 0 0 0 1 0 0 0 1 62.670369579149749 34.594074609390944 13.409836056356701 1 rotate no_reflect no_shear #
lump $-1 $-1 $28 $1 #
transform $-1 1 0 0 0 1 0 0 0 1 62.670369579149749 34.594074609390944 13.409836056356701 1 rotate no_reflect no_shear #
lump $-1 $-1 $29 $2 #
transform $-1 1 0 0 0 1 0 0 0 1 62.670369579149749 34.594074609390944 13.409836056356701 1 rotate no_reflect no_shear #
lump $-1 $-1 $30 $3 #
transform $-1 1 0 0 0 1 0 0 0 1 62.670369579149749 34.594074609390944 13.409836056356701 1 rotate no_reflect no_shear #
lump $-1 $-1 $31 $4 #
transform $-1 1 0 0 0 1 0 0 0 1 62.670369579149749 34.594074609390944 13.409836056356701 1 rotate no_reflect no_shear #
lump $-1 $-1 $32 $5 #
transform $-1 1 0 0 0 1 0 0 0 1 62.670369579149749 34.594074609390944 13.409836056356701 1 rotate no_reflect no_shear #
lump $-1 $-1 $33 $6 #
transform $-1 1 0 0 0 1 0 0 0 1 62.670369579149749 34.594074609390944 13.409836056356701 1 rotate no_reflect no_shear #
lump $-1 $-1 $34 $7 #
transform $-1 1 0 0 0 1 0 0 0 1 62.670369579149749 34.594074609390944 13.409836056356701 1 rotate no_reflect no_shear #
lump $-1 $-1 $35 $8 #
transform $-1 1 0 0 0 1 0 0 0 1 62.670369579149749 34.594074609390944 13.409836056356701 1 rotate no_reflect no_shear #
shell $-1 $-1 $-1 $36 $-1 $9 #
shell $-1 $-1 $-1 $37 $-1 $11 #
shell $-1 $-1 $-1 $38 $-1 $13 #
shell $-1 $-1 $-1 $39 $-1 $15 #
shell $-1 $-1 $-1 $40 $-1 $17 #
shell $-1 $-1 $-1 $41 $-1 $19 #
shell $-1 $-1 $-1 $42 $-1 $21 #
shell $-1 $-1 $-1 $43 $-1 $23 #
shell $-1 $-1 $-1 $44 $-1 $25 #
face $-1 $45 $46 $27 $-1 $47 forward single #
face $-1 $48 $49 $28 $-1 $50 forward single #
face $-1 $51 $52 $29 $-1 $53 reversed single #
face $-1 $54 $55 $30 $-1 $56 forward single #
face $-1 $57 $58 $31 $-1 $59 forward single #
face $-1 $60 $61 $32 $-1 $62 reversed single #
face $-1 $63 $64 $33 $-1 $65 forward single #
face $-1 $66 $67 $34 $-1 $68 reversed single #
face $-1 $69 $70 $35 $-1 $71 forward single #
face $-1 $72 $73 $27 $-1 $74 reversed single #
loop $-1 $-1 $75 $36 #
plane-surface $-1 0 0 13.409836056356701 0 0 1 1 0 0 forward_v I I I I #
face $-1 $76 $77 $28 $-1 $78 reversed single #
loop $-1 $-1 $79 $37 #
plane-surface $-1 0 -28.263786483991289 7.5735108939913847 0 0 1 1 0 0 forward_v I I I I #
face $-1 $80 $81 $29 $-1 $82 reversed single #
loop $-1 $-1 $83 $38 #
plane-surface $-1 -161.44022093551942 26.681468727217791 83.719874596156899 0 1 0 -0.78801076186113728 0 0.61566146476048833 forward_v I I I I #
face $-1 $84 $85 $30 $-1 $86 forward single #
loop $-1 $87 $88 $39 #
cone-surface $-1 -58.66178135096434 28.942213264981547 8.94218215480719 0.78801076186113728 0 -0.61566146476048833 0.61566146476048833 0 0.78801076186113728 1 I I 0 1 1 forward I I I I #
face $-1 $89 $90 $31 $-1 $91 forward single #
loop $-1 $92 $93 $40 #
cone-surface $-1 -58.66178135096434 32.333330071627188 8.94218215480719 0.78801076186113728 0 -0.61566146476048833 0.61566146476048833 0 0.78801076186113728 1 I I 0 1 1 forward I I I I #
face $-1 $94 $95 $32 $-1 $96 reversed single #
loop $-1 $-1 $97 $41 #
plane-surface $-1 105.55310224398447 6.3302881253996635 173.51339487925543 0 -1 0 -0.85716730853699208 0 -0.51503806187062418 forward_v I I I I #
face $-1 $98 $99 $33 $-1 $100 forward single #
loop $-1 $101 $102 $42 #
cone-surface $-1 57.164348271979939 -0.047349956315500208 6.3029320377965785 -0.85716730853699208 0 -0.51503806187062418 0.77255709280593621 0 -1.2857509628054882 1 I I 0 1 1.5 forward I I I I #
face $-1 $103 $104 $34 $-1 $105 reversed single #
loop $-1 $-1 $106 $43 #
plane-surface $-1 -1.8848817903722761 28.216436527675796 108.9581435097334 0.85716730853699208 0 0.51503806187062418 0.51503806187062418 0 -0.85716730853699208 forward_v I I I I #
face $-1 $107 $108 $35 $-1 $109 forward single #
loop $-1 $110 $111 $44 #
cone-surface $-1 57.164348271979939 28.216436527675796 6.3029320377965785 -0.85716730853699208 0 -0.51503806187062418 0.77255709280593621 0 -1.2857509628054882 1 I I 0 1 1.5 forward I I I I #
face $-1 $112 $113 $27 $-1 $114 reversed single #
loop $-1 $-1 $115 $45 #
plane-surface $-1 0 0 -13.409836056356701 0 0 1 1 0 0 forward_v I I I I #
coedge $-1 $116 $117 $118 $119 forward $46 $-1 #
face $-1 $120 $121 $28 $-1 $122 reversed single #
loop $-1 $-1 $123 $48 #
plane-surface $-1 0 -28.263786483991289 1.2950704241592152 0 0 1 1 0 0 forward_v I I I I #
coedge $-1 $124 $125 $126 $127 reversed $49 $-1 #
face $-1 $128 $129 $29 $-1 $130 forward single #
loop $-1 $-1 $131 $51 #
plane-surface $-1 -62.670369579149764 30.637771668304367 6.5524115317959399 -0.78801076186113728 0 0.61566146476048833 0.61566146476048833 0 0.78801076186113728 forward_v I I I I #
coedge $-1 $132 $133 $134 $135 reversed $52 $-1 #
face $-1 $-1 $136 $30 $-1 $137 forward single #
loop $-1 $138 $139 $54 #
cone-surface $-1 -56.937991275764794 28.942213264981547 7.5954097831578284 0.78801076186113728 0 -0.61566146476048833 0.30783073238024417 0 0.39400538093056864 1 I I -0.70710678118654746 0.70710678118654746 0.5 forward I I I I #
loop $-1 $-1 $140 $39 #
coedge $-1 $88 $88 $141 $142 reversed $55 $-1 #
face $-1 $-1 $143 $31 $-1 $144 forward single #
loop $-1 $145 $146 $57 #
cone-surface $-1 -56.937991275764794 32.333330071627188 7.5954097831578284 0.78801076186113728 0 -0.61566146476048833 0.30783073238024417 0 0.39400538093056864 1 I I -0.70710678118654746 0.70710678118654746 0.5 forward I I I I #
loop $-1 $-1 $147 $40 #
coedge $-1 $93 $93 $148 $149 reversed $58 $-1 #
face $-1 $150 $151 $32 $-1 $152 reversed single #
loop $-1 $-1 $153 $60 #
plane-surface $-1 -1.8848817903722761 -0.047349956315500208 108.9581435097334 0.85716730853699208 0 0.51503806187062418 0.51503806187062418 0 -0.85716730853699208 forward_v I I I I #
coedge $-1 $154 $155 $156 $157 reversed $61 $-1 #
face $-1 $-1 $158 $33 $-1 $159 forward single #
loop $-1 $160 $161 $63 #
cone-surface $-1 54.587470575565888 -0.047349956315500208 4.7545877633235225 -0.85716730853699208 0 -0.51503806187062418 0.3862785464029681 0 -0.64287548140274409 1 I I -0.70710678118654757 0.70710678118654757 0.75 forward I I I I #
loop $-1 $-1 $162 $42 #
coedge $-1 $102 $102 $163 $164 reversed $64 $-1 #
face $-1 $165 $166 $34 $-1 $167 reversed single #
loop $-1 $-1 $168 $66 #
plane-surface $-1 105.55310224398447 21.838798445960634 173.51339487925543 0 1 0 0.85716730853699208 0 0.51503806187062418 forward_v I I I I #
coedge $-1 $169 $170 $171 $172 reversed $67 $-1 #
face $-1 $-1 $173 $35 $-1 $174 forward single #
loop $-1 $175 $176 $69 #
cone-surface $-1 54.587470575565888 28.216436527675796 4.7545877633235225 -0.85716730853699208 0 -0.51503806187062418 0.3862785464029681 0 -0.64287548140274409 1 I I -0.70710678118654757 0.70710678118654757 0.75 forward I I I I #
loop $-1 $-1 $177 $44 #
coedge $-1 $111 $111 $178 $179 reversed $70 $-1 #
face $-1 $180 $181 $27 $-1 $182 reversed single #
loop $-1 $-1 $183 $72 #
plane-surface $-1 0 -34.594074609390944 0 0 1 0 0 0 1 forward_v I I I I #
coedge $-1 $184 $185 $186 $187 forward $73 $-1 #
coedge $-1 $188 $75 $189 $190 forward $46 $-1 #
coedge $-1 $75 $188 $191 $192 forward $46 $-1 #
coedge $-1 $193 $194 $75 $119 reversed $195 $-1 #
edge $-1 $196 -34.594074609390944 $197 34.594074609390944 $118 $198 forward 7 unknown #
face $-1 $199 $200 $28 $-1 $201 reversed single #
loop $-1 $-1 $202 $76 #
plane-surface $-1 0 -21.933498358591635 4.4342906590753 0 -1 0 0 0 -1 forward_v I I I I #
coedge $-1 $203 $204 $205 $206 reversed $77 $-1 #
coedge $-1 $207 $79 $208 $209 forward $49 $-1 #
coedge $-1 $79 $207 $210 $211 reversed $49 $-1 #
coedge $-1 $212 $213 $79 $127 forward $214 $-1 #
edge $-1 $215 7.8016051165959901 $216 20.462181367395299 $126 $217 forward 7 unknown #
face $-1 $218 $219 $29 $-1 $220 reversed single #
loop $-1 $-1 $134 $80 #
plane-surface $-1 0 0 13.409836056356701 0 0 1 1 0 0 forward_v I I I I #
coedge $-1 $221 $222 $223 $224 reversed $81 $-1 #
coedge $-1 $133 $83 $225 $226 reversed $52 $-1 #
coedge $-1 $83 $132 $221 $227 reversed $52 $-1 #
coedge $-1 $223 $228 $83 $135 forward $129 $-1 #
edge $-1 $229 18.049740888609961 $230 23.407347956442791 $134 $231 forward 7 unknown #
loop $-1 $-1 $141 $84 #
plane-surface $-1 -62.670369579149764 30.637771668304367 6.5524115317959399 -0.78801076186113728 0 0.61566146476048833 0.61566146476048833 0 0.78801076186113728 forward_v I I I I #
loop $-1 $-1 $232 $54 #
coedge $-1 $139 $139 $140 $233 reversed $85 $-1 #
coedge $-1 $140 $140 $139 $233 forward $87 $-1 #
coedge $-1 $141 $141 $88 $142 forward $136 $-1 #
edge $-1 $234 0 $234 6.2831853071796004 $141 $235 forward 7 unknown #
loop $-1 $-1 $148 $89 #
plane-surface $-1 -62.670369579149764 30.637771668304367 6.5524115317959399 -0.78801076186113728 0 0.61566146476048833 0.61566146476048833 0 0.78801076186113728 forward_v I I I I #
loop $-1 $-1 $236 $57 #
coedge $-1 $146 $146 $147 $237 reversed $90 $-1 #
coedge $-1 $147 $147 $146 $237 forward $92 $-1 #
coedge $-1 $148 $148 $93 $149 forward $143 $-1 #
edge $-1 $238 0 $238 6.2831853071796004 $148 $239 forward 7 unknown #
face $-1 $240 $241 $32 $-1 $242 reversed single #
loop $-1 $-1 $243 $94 #
plane-surface $-1 105.55310224398447 -6.4249880380306639 173.51339487925543 0 1 0 0.85716730853699208 0 0.51503806187062418 forward_v I I I I #
coedge $-1 $244 $245 $246 $247 reversed $95 $-1 #
coedge $-1 $155 $97 $248 $249 reversed $61 $-1 #
coedge $-1 $97 $154 $244 $250 reversed $61 $-1 #
coedge $-1 $246 $251 $97 $157 forward $252 $-1 #
edge $-1 $253 -9.893818457157515 $254 -2.7497802728405105 $156 $255 forward 7 unknown #
loop $-1 $-1 $163 $98 #
plane-surface $-1 -1.8848817903722761 -0.047349956315500208 108.9581435097334 0.85716730853699208 0 0.51503806187062418 0.51503806187062418 0 -0.85716730853699208 forward_v I I I I #
loop $-1 $-1 $256 $63 #
coedge $-1 $161 $161 $162 $257 reversed $99 $-1 #
coedge $-1 $162 $162 $161 $257 forward $101 $-1 #
coedge $-1 $163 $163 $102 $164 forward $158 $-1 #
edge $-1 $258 0 $258 6.2831853071796004 $163 $259 forward 7 unknown #
face $-1 $260 $261 $34 $-1 $262 forward single #
loop $-1 $-1 $263 $103 #
plane-surface $-1 62.670369579149749 0 0 -1 0 0 0 0 1 forward_v I I I I #
coedge $-1 $264 $265 $266 $267 reversed $104 $-1 #
coedge $-1 $268 $106 $269 $270 reversed $67 $-1 #
coedge $-1 $106 $268 $264 $271 forward $67 $-1 #
coedge $-1 $266 $272 $106 $172 forward $261 $-1 #
edge $-1 $273 -20.48585634555306 $274 -7.7305801821227362 $171 $275 forward 7 unknown #
loop $-1 $-1 $178 $107 #
plane-surface $-1 -1.8848817903722761 28.216436527675796 108.9581435097334 0.85716730853699208 0 0.51503806187062418 0.51503806187062418 0 -0.85716730853699208 forward_v I I I I #
loop $-1 $-1 $276 $69 #
coedge $-1 $176 $176 $177 $277 reversed $108 $-1 #
coedge $-1 $177 $177 $176 $277 forward $110 $-1 #
coedge $-1 $178 $178 $111 $179 forward $173 $-1 #
edge $-1 $278 0 $278 6.2831853071796004 $178 $279 forward 7 unknown #
face $-1 $280 $281 $27 $-1 $282 reversed single #
loop $-1 $-1 $283 $112 #
plane-surface $-1 -62.670369579149749 0 0 1 0 0 0 0 -1 forward_v I I I I #
coedge $-1 $284 $191 $285 $286 forward $113 $-1 #
coedge $-1 $287 $115 $284 $288 forward $73 $-1 #
coedge $-1 $115 $287 $289 $290 forward $73 $-1 #
coedge $-1 $194 $193 $115 $187 reversed $195 $-1 #
edge $-1 $291 -34.594074609390944 $292 34.594074609390944 $186 $293 forward 7 unknown #
coedge $-1 $117 $116 $294 $295 forward $46 $-1 #
coedge $-1 $296 $297 $116 $190 reversed $281 $-1 #
edge $-1 $197 -62.670369579149749 $298 62.670369579149749 $189 $299 forward 7 unknown #
coedge $-1 $183 $300 $117 $192 reversed $113 $-1 #
edge $-1 $301 -62.670369579149749 $196 62.670369579149749 $191 $302 forward 7 unknown #
coedge $-1 $186 $118 $300 $303 forward $195 $-1 #
coedge $-1 $118 $186 $296 $304 reversed $195 $-1 #
loop $-1 $-1 $193 $280 #
vertex $-1 $119 $305 #
vertex $-1 $119 $306 #
straight-curve $-1 62.670369579149749 0 13.409836056356701 0 1 0 I I #
face $-1 $307 $308 $28 $-1 $309 reversed single #
loop $-1 $-1 $310 $120 #
plane-surface $-1 -62.670369579149749 0 0 1 0 0 0 0 -1 forward_v I I I I #
coedge $-1 $311 $208 $213 $312 reversed $121 $-1 #
coedge $-1 $313 $123 $314 $315 reversed $77 $-1 #
coedge $-1 $123 $313 $311 $316 forward $77 $-1 #
coedge $-1 $213 $212 $123 $206 forward $214 $-1 #
edge $-1 $317 -20.462181367395299 $318 -7.8016051165959901 $205 $319 forward 7 unknown #
coedge $-1 $125 $124 $310 $320 reversed $49 $-1 #
coedge $-1 $202 $321 $124 $209 reversed $121 $-1 #
edge $-1 $215 -62.670369579149749 $322 62.670369579149749 $208 $323 forward 7 unknown #
coedge $-1 $324 $325 $125 $211 forward $308 $-1 #
edge $-1 $216 -62.670369579149749 $326 62.670369579149749 $210 $327 forward 7 unknown #
coedge $-1 $205 $126 $325 $328 forward $214 $-1 #
coedge $-1 $126 $205 $202 $312 forward $214 $-1 #
loop $-1 $-1 $126 $307 #
vertex $-1 $127 $329 #
vertex $-1 $328 $330 #
straight-curve $-1 62.670369579149749 -14.131893241995645 7.5735108939913847 0 -1 0 I I #
face $-1 $-1 $331 $29 $-1 $332 reversed single #
loop $-1 $-1 $333 $128 #
plane-surface $-1 0 34.594074609390944 0 0 -1 0 0 0 -1 forward_v I I I I #
coedge $-1 $334 $131 $133 $227 forward $81 $-1 #
coedge $-1 $131 $334 $333 $335 reversed $81 $-1 #
coedge $-1 $336 $134 $131 $224 forward $129 $-1 #
edge $-1 $230 11.362582893065607 $337 19.27518877523876 $223 $338 forward 7 unknown #
coedge $-1 $339 $340 $132 $226 forward $331 $-1 #
edge $-1 $341 -35.307525766282495 $229 -28.450101241721747 $225 $342 forward 7 unknown #
edge $-1 $230 -8.7021965389974874 $341 -2.274695869299009e-014 $133 $343 forward 7 unknown #
coedge $-1 $134 $336 $339 $344 forward $129 $-1 #
vertex $-1 $226 $345 #
vertex $-1 $135 $346 #
straight-curve $-1 -80.72011046775971 26.681468727217791 13.409836056356703 1 0 0 I I #
coedge $-1 $232 $232 $-1 $347 reversed $138 $-1 #
edge $-1 $348 0 $348 6.2831853071796004 $139 $349 forward 7 unknown #
vertex $-1 $142 $350 #
ellipse-curve $-1 -59.991566045233341 28.942213264981547 9.9811237940763249 -0.78801076186113728 0 0.61566146476048833 0.61566146476048833 0 0.78801076186113728 1 I I #
coedge $-1 $236 $236 $-1 $351 reversed $145 $-1 #
edge $-1 $352 0 $352 6.2831853071796004 $146 $353 forward 7 unknown #
vertex $-1 $149 $354 #
ellipse-curve $-1 -59.991566045233341 32.333330071627188 9.9811237940763249 -0.78801076186113728 0 0.61566146476048833 0.61566146476048833 0 0.78801076186113728 1 I I #
face $-1 $-1 $252 $32 $-1 $355 forward single #
loop $-1 $-1 $356 $150 #
plane-surface $-1 62.670369579149749 0 0 -1 0 0 0 0 1 forward_v I I I I #
coedge $-1 $357 $358 $359 $360 reversed $151 $-1 #
coedge $-1 $361 $153 $155 $250 forward $95 $-1 #
coedge $-1 $153 $361 $357 $362 forward $95 $-1 #
coedge $-1 $359 $156 $153 $247 forward $252 $-1 #
edge $-1 $254 -6.3539631035574136 $363 6.4013130598729138 $246 $364 forward 7 unknown #
coedge $-1 $365 $366 $154 $249 forward $241 $-1 #
edge $-1 $367 -85.236537964251056 $253 -73.346861383271019 $248 $368 forward 7 unknown #
edge $-1 $254 111.46984550362518 $367 125.34073915829951 $155 $369 forward 7 unknown #
coedge $-1 $156 $359 $365 $370 forward $252 $-1 #
loop $-1 $-1 $359 $240 #
vertex $-1 $249 $371 #
vertex $-1 $157 $372 #
straight-curve $-1 52.776551121992235 6.3302881253996635 13.409836056356696 -1 0 0 I I #
coedge $-1 $256 $256 $-1 $373 reversed $160 $-1 #
edge $-1 $374 0 $374 6.2831853071796004 $161 $375 forward 7 unknown #
vertex $-1 $164 $376 #
ellipse-curve $-1 59.098350486991244 -0.047349956315500208 7.4649977658666664 0.85716730853699208 0 0.51503806187062418 0.77255709280593621 0 -1.2857509628054882 1 I I #
face $-1 $-1 $377 $34 $-1 $378 reversed single #
loop $-1 $-1 $266 $165 #
plane-surface $-1 0 0 13.409836056356701 0 0 1 1 0 0 forward_v I I I I #
coedge $-1 $379 $380 $265 $381 forward $166 $-1 #
coedge $-1 $265 $168 $170 $271 reversed $104 $-1 #
coedge $-1 $168 $264 $263 $381 reversed $104 $-1 #
coedge $-1 $382 $171 $168 $267 forward $261 $-1 #
edge $-1 $274 2.7497802728405105 $383 9.893818457157515 $266 $384 forward 7 unknown #
coedge $-1 $170 $169 $379 $385 reversed $67 $-1 #
coedge $-1 $386 $387 $169 $270 forward $377 $-1 #
edge $-1 $388 -78.157666918502457 $273 -64.28677326382811 $269 $389 forward 7 unknown #
edge $-1 $390 -125.34073915829951 $274 -111.46984550362518 $264 $391 forward 7 unknown #
coedge $-1 $171 $382 $386 $392 forward $261 $-1 #
vertex $-1 $270 $393 #
vertex $-1 $172 $394 #
straight-curve $-1 55.526331394832738 14.108218263837898 13.409836056356696 0 -1 0 I I #
coedge $-1 $276 $276 $-1 $395 reversed $175 $-1 #
edge $-1 $396 0 $396 6.2831853071796004 $176 $397 forward 7 unknown #
vertex $-1 $179 $398 #
ellipse-curve $-1 59.098350486991244 28.216436527675796 7.4649977658666664 0.85716730853699208 0 0.51503806187062418 0.77255709280593621 0 -1.2857509628054882 1 I I #
face $-1 $-1 $195 $27 $-1 $399 reversed single #
loop $-1 $-1 $296 $180 #
plane-surface $-1 0 34.594074609390944 0 0 -1 0 0 0 -1 forward_v I I I I #
coedge $-1 $400 $294 $297 $401 forward $181 $-1 #
coedge $-1 $300 $183 $184 $288 reversed $113 $-1 #
coedge $-1 $294 $400 $183 $286 reversed $181 $-1 #
edge $-1 $301 -13.409836056356701 $402 13.409836056356701 $285 $403 forward 7 unknown #
coedge $-1 $185 $184 $400 $404 forward $73 $-1 #
edge $-1 $292 -62.670369579149749 $402 62.670369579149749 $284 $405 forward 7 unknown #
coedge $-1 $297 $296 $185 $290 reversed $281 $-1 #
edge $-1 $406 -62.670369579149749 $291 62.670369579149749 $289 $407 forward 7 unknown #
vertex $-1 $187 $408 #
vertex $-1 $303 $409 #
straight-curve $-1 62.670369579149749 0 -13.409836056356701 0 -1 0 I I #
coedge $-1 $283 $285 $188 $295 reversed $181 $-1 #
edge $-1 $298 -34.594074609390944 $301 34.594074609390944 $294 $410 forward 7 unknown #
coedge $-1 $289 $189 $194 $304 forward $281 $-1 #
coedge $-1 $189 $289 $283 $401 reversed $281 $-1 #
vertex $-1 $190 $411 #
straight-curve $-1 0 34.594074609390944 13.409836056356701 -1 0 0 I I #
coedge $-1 $191 $284 $193 $303 reversed $113 $-1 #
vertex $-1 $295 $412 #
straight-curve $-1 0 -34.594074609390944 13.409836056356701 1 0 0 I I #
edge $-1 $196 -13.409836056356701 $292 13.409836056356701 $193 $413 forward 7 unknown #
edge $-1 $197 -13.409836056356701 $291 13.409836056356701 $194 $414 forward 7 unknown #
point $-1 62.670369579149749 -34.594074609390944 13.409836056356701 #
point $-1 62.670369579149749 34.594074609390944 13.409836056356701 #
face $-1 $-1 $214 $28 $-1 $415 reversed single #
loop $-1 $-1 $210 $199 #
plane-surface $-1 0 -34.594074609390944 0 0 1 0 0 0 1 forward_v I I I I #
coedge $-1 $416 $417 $207 $320 forward $200 $-1 #
coedge $-1 $321 $202 $204 $316 reversed $121 $-1 #
edge $-1 $318 -0.92207490537843473 $215 5.3563655644537347 $213 $418 forward 7 unknown #
coedge $-1 $204 $203 $419 $420 reversed $77 $-1 #
coedge $-1 $325 $324 $203 $315 forward $308 $-1 #
edge $-1 $421 -62.670369579149749 $317 62.670369579149749 $314 $422 forward 7 unknown #
edge $-1 $423 -62.670369579149749 $318 62.670369579149749 $311 $424 forward 7 unknown #
vertex $-1 $315 $425 #
vertex $-1 $206 $426 #
straight-curve $-1 62.670369579149749 -14.131893241995645 1.2950704241592152 0 1 0 I I #
edge $-1 $326 -20.462181367395299 $322 -7.8016051165959901 $310 $427 forward 7 unknown #
coedge $-1 $208 $311 $416 $428 reversed $121 $-1 #
vertex $-1 $320 $429 #
straight-curve $-1 0 -21.933498358591635 7.5735108939913847 -1 0 0 I I #
coedge $-1 $314 $210 $417 $430 forward $308 $-1 #
coedge $-1 $210 $314 $212 $328 reversed $308 $-1 #
vertex $-1 $430 $431 #
straight-curve $-1 0 -34.594074609390944 7.5735108939913847 -1 0 0 I I #
edge $-1 $216 -7.5735108939913847 $317 -1.2950704241592152 $212 $432 forward 7 unknown #
point $-1 62.670369579149749 -21.933498358591635 7.5735108939913847 #
point $-1 62.670369579149749 -34.594074609390944 7.5735108939913847 #
loop $-1 $-1 $225 $218 #
plane-surface $-1 -62.670369579149749 0 0 1 0 0 0 0 -1 forward_v I I I I #
coedge $-1 $433 $434 $222 $335 forward $219 $-1 #
coedge $-1 $222 $221 $340 $435 reversed $81 $-1 #
edge $-1 $337 8.0079838254936515 $436 16.710180364491116 $333 $437 forward 7 unknown #
coedge $-1 $228 $223 $434 $438 forward $129 $-1 #
vertex $-1 $438 $439 #
straight-curve $-1 -57.312762511316919 15.318885834152184 13.409836056356703 0 1 0 I I #
coedge $-1 $440 $225 $228 $344 reversed $331 $-1 #
coedge $-1 $225 $440 $334 $435 forward $331 $-1 #
vertex $-1 $226 $441 #
straight-curve $-1 -62.670369579149749 26.681468727217791 41.859937298078449 0 0 1 I I #
straight-curve $-1 -62.670369579149764 26.681468727217791 6.5524115317959399 -0.61566146476048833 0 -0.78801076186113728 I I #
edge $-1 $442 -34.594074609390944 $229 -26.681468727217791 $339 $443 forward 7 unknown #
point $-1 -62.670369579149749 26.681468727217791 13.409836056356701 #
point $-1 -57.312762511316919 26.681468727217791 13.409836056356701 #
edge $-1 $444 1 $444 0 $232 $-1 forward 7 unknown #
vertex $-1 $233 $445 #
ellipse-curve $-1 -57.33199665669536 28.942213264981547 7.9032405155380729 -0.78801076186113728 0 0.61566146476048833 0.61566146476048833 0 0.78801076186113728 1 I I #
point $-1 -59.375904580472827 28.942213264981547 10.769134555937445 #
edge $-1 $446 1 $446 0 $236 $-1 forward 7 unknown #
vertex $-1 $237 $447 #
ellipse-curve $-1 -57.33199665669536 32.333330071627188 7.9032405155380729 -0.78801076186113728 0 0.61566146476048833 0.61566146476048833 0 0.78801076186113728 1 I I #
point $-1 -59.375904580472827 32.333330071627188 10.769134555937445 #
plane-surface $-1 0 0 13.409836056356701 0 0 1 1 0 0 forward_v I I I I #
coedge $-1 $366 $365 $358 $448 forward $241 $-1 #
coedge $-1 $358 $243 $245 $362 reversed $151 $-1 #
coedge $-1 $243 $357 $356 $448 reversed $151 $-1 #
coedge $-1 $251 $246 $243 $360 forward $252 $-1 #
edge $-1 $363 2.7497802728405105 $449 9.893818457157515 $359 $450 forward 7 unknown #
coedge $-1 $245 $244 $366 $451 reversed $95 $-1 #
edge $-1 $452 -125.34073915829951 $363 -111.46984550362518 $357 $453 forward 7 unknown #
vertex $-1 $247 $454 #
straight-curve $-1 55.526331394832738 -0.023674978157750104 13.409836056356696 0 -1 0 I I #
coedge $-1 $356 $248 $251 $370 reversed $241 $-1 #
coedge $-1 $248 $356 $361 $451 forward $241 $-1 #
vertex $-1 $249 $455 #
straight-curve $-1 62.670369579149749 6.3302881253996635 86.756697439627715 0 0 1 I I #
straight-curve $-1 -1.8848817903722761 6.3302881253996635 108.9581435097334 0.51503806187062418 0 -0.85716730853699208 I I #
edge $-1 $449 -6.4249880380306639 $253 6.3302881253996635 $365 $456 forward 7 unknown #
point $-1 62.670369579149749 6.3302881253996635 13.409836056356701 #
point $-1 55.526331394832745 6.3302881253996635 13.409836056356696 #
edge $-1 $457 1 $457 0 $256 $-1 forward 7 unknown #
vertex $-1 $257 $458 #
ellipse-curve $-1 55.230346056968635 -0.047349956315500208 5.1408663097264906 0.85716730853699208 0 0.51503806187062418 0.77255709280593621 0 -1.2857509628054882 1 I I #
point $-1 59.870907579797183 -0.047349956315500208 6.1792468030611785 #
loop $-1 $-1 $269 $260 #
plane-surface $-1 0 34.594074609390944 0 0 -1 0 0 0 -1 forward_v I I I I #
coedge $-1 $459 $263 $268 $385 forward $166 $-1 #
coedge $-1 $263 $459 $382 $460 reversed $166 $-1 #
edge $-1 $383 73.346861383271019 $390 85.236537964251056 $263 $461 forward 7 unknown #
coedge $-1 $272 $266 $380 $460 forward $261 $-1 #
vertex $-1 $460 $462 #
straight-curve $-1 52.776551121992235 21.838798445960634 13.409836056356696 1 0 0 I I #
edge $-1 $390 7.7305801821227362 $388 20.48585634555306 $379 $463 forward 7 unknown #
coedge $-1 $387 $269 $272 $392 reversed $377 $-1 #
coedge $-1 $269 $386 $459 $464 forward $377 $-1 #
vertex $-1 $270 $465 #
straight-curve $-1 22.416196289114442 34.594074609390944 68.514356469440102 -0.51503806187062429 0 0.85716730853699219 I I #
vertex $-1 $385 $466 #
straight-curve $-1 -1.8848817903722761 21.838798445960634 108.9581435097334 -0.51503806187062418 0 0.85716730853699208 I I #
edge $-1 $467 -62.670369579149749 $273 -55.526331394832745 $386 $468 forward 7 unknown #
point $-1 55.526331394832745 34.594074609390958 13.409836056356696 #
point $-1 55.526331394832745 21.838798445960634 13.409836056356696 #
edge $-1 $469 1 $469 0 $276 $-1 forward 7 unknown #
vertex $-1 $277 $470 #
ellipse-curve $-1 55.230346056968635 28.216436527675796 5.1408663097264906 0.85716730853699208 0 0.51503806187062418 0.77255709280593621 0 -1.2857509628054882 1 I I #
point $-1 59.870907579797183 28.216436527675796 6.1792468030611785 #
plane-surface $-1 62.670369579149749 0 0 -1 0 0 0 0 1 forward_v I I I I #
coedge $-1 $285 $283 $287 $404 reversed $181 $-1 #
edge $-1 $298 -13.409836056356701 $406 13.409836056356701 $297 $471 forward 7 unknown #
vertex $-1 $404 $472 #
straight-curve $-1 -62.670369579149749 -34.594074609390944 0 0 0 -1 I I #
edge $-1 $402 -34.594074609390944 $406 34.594074609390944 $400 $473 forward 7 unknown #
straight-curve $-1 0 -34.594074609390944 -13.409836056356701 -1 0 0 I I #
vertex $-1 $290 $474 #
straight-curve $-1 0 34.594074609390944 -13.409836056356701 1 0 0 I I #
point $-1 62.670369579149749 34.594074609390944 -13.409836056356701 #
point $-1 62.670369579149749 -34.594074609390944 -13.409836056356701 #
straight-curve $-1 -62.670369579149749 0 13.409836056356701 0 -1 0 I I #
point $-1 -62.670369579149749 34.594074609390944 13.409836056356701 #
point $-1 -62.670369579149749 -34.594074609390944 13.409836056356701 #
straight-curve $-1 62.670369579149749 -34.594074609390944 0 0 0 -1 I I #
straight-curve $-1 62.670369579149749 34.594074609390944 0 0 0 -1 I I #
plane-surface $-1 62.670369579149749 0 0 -1 0 0 0 0 1 forward_v I I I I #
coedge $-1 $419 $310 $321 $428 forward $200 $-1 #
coedge $-1 $310 $419 $324 $430 reversed $200 $-1 #
straight-curve $-1 62.670369579149749 -21.933498358591635 2.21714532953765 0 0 1 I I #
coedge $-1 $417 $416 $313 $420 forward $200 $-1 #
edge $-1 $423 7.8016051165959901 $421 20.462181367395299 $419 $475 forward 7 unknown #
vertex $-1 $315 $476 #
straight-curve $-1 0 -34.594074609390944 1.2950704241592152 1 0 0 I I #
vertex $-1 $420 $477 #
straight-curve $-1 0 -21.933498358591635 1.2950704241592152 1 0 0 I I #
point $-1 62.670369579149749 -34.594074609390944 1.2950704241592152 #
point $-1 62.670369579149749 -21.933498358591635 1.2950704241592152 #
straight-curve $-1 -62.670369579149749 -14.131893241995645 7.5735108939913847 0 1 0 I I #
edge $-1 $322 -5.3563655644537347 $423 0.92207490537843473 $416 $478 forward 7 unknown #
point $-1 -62.670369579149749 -21.933498358591635 7.5735108939913847 #
edge $-1 $326 -7.5735108939913847 $421 -1.2950704241592152 $417 $479 forward 7 unknown #
point $-1 -62.670369579149749 -34.594074609390944 7.5735108939913847 #
straight-curve $-1 62.670369579149749 -34.594074609390944 0 0 0 -1 I I #
coedge $-1 $434 $333 $440 $480 reversed $219 $-1 #
coedge $-1 $333 $433 $336 $438 reversed $219 $-1 #
edge $-1 $436 -19.27518877523876 $341 -11.362582893065607 $340 $481 forward 7 unknown #
vertex $-1 $335 $482 #
straight-curve $-1 -52.382555459535197 34.594074609390944 19.720213491655617 -0.61566146476048833 0 -0.78801076186113728 I I #
edge $-1 $337 57.312762511316919 $442 62.670369579149749 $434 $483 forward 7 unknown #
point $-1 -57.312762511316919 34.594074609390944 13.409836056356701 #
coedge $-1 $340 $339 $433 $480 forward $331 $-1 #
point $-1 -62.670369579149749 26.681468727217791 6.5524115317959577 #
vertex $-1 $438 $484 #
straight-curve $-1 -62.670369579149749 0 13.409836056356701 0 -1 0 I I #
vertex $-1 $347 $485 #
point $-1 -56.716335191934874 28.942213264981547 8.6912512773992106 #
vertex $-1 $351 $486 #
point $-1 -56.716335191934874 32.333330071627188 8.6912512773992106 #
edge $-1 $449 73.346861383271019 $452 85.236537964251056 $356 $487 forward 7 unknown #
vertex $-1 $370 $488 #
straight-curve $-1 52.776551121992235 -6.4249880380306639 13.409836056356696 1 0 0 I I #
edge $-1 $452 -6.4013130598729138 $367 6.3539631035574136 $366 $489 forward 7 unknown #
vertex $-1 $451 $490 #
straight-curve $-1 -1.8848817903722761 -6.4249880380306639 108.9581435097334 -0.51503806187062418 0 0.85716730853699208 I I #
point $-1 55.526331394832745 -6.4249880380306639 13.409836056356696 #
point $-1 62.670369579149749 6.3302881253996635 1.5201594753766585 #
straight-curve $-1 62.670369579149749 0 13.409836056356701 0 1 0 I I #
vertex $-1 $373 $491 #
point $-1 56.002903149774568 -0.047349956315500208 3.8551153469210027 #
coedge $-1 $380 $379 $387 $464 reversed $166 $-1 #
edge $-1 $383 21.838798445960634 $467 34.594074609390944 $380 $492 forward 7 unknown #
straight-curve $-1 62.670369579149749 21.838798445960634 86.756697439627715 0 0 -1 I I #
point $-1 62.670369579149749 21.838798445960634 13.409836056356701 #
straight-curve $-1 62.670369579149749 14.108218263837898 1.5201594753766514 0 1 0 I I #
edge $-1 $467 -13.409836056356701 $388 -1.5201594753766585 $459 $493 forward 7 unknown #
point $-1 62.670369579149749 34.594074609390958 1.5201594753766585 #
point $-1 62.670369579149749 21.838798445960634 1.5201594753766585 #
vertex $-1 $460 $494 #
straight-curve $-1 0 34.594074609390944 13.409836056356701 -1 0 0 I I #
vertex $-1 $395 $495 #
point $-1 56.002903149774568 28.216436527675796 3.8551153469210027 #
straight-curve $-1 -62.670369579149749 34.594074609390944 0 0 0 -1 I I #
point $-1 -62.670369579149749 -34.594074609390944 -13.409836056356701 #
straight-curve $-1 -62.670369579149749 0 -13.409836056356701 0 1 0 I I #
point $-1 -62.670369579149749 34.594074609390944 -13.409836056356701 #
straight-curve $-1 -62.670369579149749 -14.131893241995645 1.2950704241592152 0 -1 0 I I #
point $-1 -62.670369579149749 -34.594074609390944 1.2950704241592152 #
point $-1 -62.670369579149749 -21.933498358591635 1.2950704241592152 #
straight-curve $-1 -62.670369579149749 -21.933498358591635 2.21714532953765 0 0 -1 I I #
straight-curve $-1 -62.670369579149749 -34.594074609390944 0 0 0 -1 I I #
edge $-1 $442 -13.409836056356701 $436 -6.5524115317959577 $433 $496 forward 7 unknown #
straight-curve $-1 -62.670369579149749 15.318885834152184 6.5524115317959613 0 -1 0 I I #
point $-1 -62.670369579149749 34.594074609390944 6.5524115317959577 #
straight-curve $-1 0 34.594074609390944 13.409836056356701 -1 0 0 I I #
point $-1 -62.670369579149749 34.594074609390944 13.409836056356701 #
point $-1 -56.543985894834229 28.942213264981547 7.2875790507775839 #
point $-1 -56.543985894834229 32.333330071627188 7.2875790507775839 #
straight-curve $-1 62.670369579149749 -6.4249880380306639 86.756697439627715 0 0 -1 I I #
point $-1 62.670369579149749 -6.4249880380306639 13.409836056356701 #
straight-curve $-1 62.670369579149749 -0.023674978157750104 1.5201594753766514 0 1 0 I I #
point $-1 62.670369579149749 -6.4249880380306639 1.5201594753766585 #
point $-1 53.944595094163141 -0.047349956315500208 4.3683092169205544 #
straight-curve $-1 62.670369579149749 0 13.409836056356701 0 1 0 I I #
straight-curve $-1 62.670369579149749 34.594074609390944 0 0 0 -1 I I #
point $-1 62.670369579149749 34.594074609390944 13.409836056356701 #
point $-1 53.944595094163141 28.216436527675796 4.3683092169205544 #
straight-curve $-1 -62.670369579149749 34.594074609390944 0 0 0 -1 I I #
End-of-ACIS-data 