500 0 5 0           
7 Unknown 11 ACIS 5.0 NT 24 Fri Mar 26 02:00:34 1999 
-1 9.9999999999999995e-007 1e-010 
body $-1 $5 $-1 $6 #
body $-1 $7 $-1 $8 #
body $-1 $9 $-1 $10 #
body $-1 $11 $-1 $12 #
body $-1 $13 $-1 $14 #
lump $-1 $-1 $15 $0 #
transform $-1 1 0 0 0 1 0 0 0 1 45.882747886593222 29.969204485244994 13.635178606112275 1 rotate no_reflect no_shear #
lump $-1 $-1 $16 $1 #
transform $-1 1 0 0 0 1 0 0 0 1 45.882747886593222 29.969204485244994 13.635178606112275 1 rotate no_reflect no_shear #
lump $-1 $-1 $17 $2 #
transform $-1 1 0 0 0 1 0 0 0 1 45.882747886593222 29.969204485244994 13.635178606112275 1 rotate no_reflect no_shear #
lump $-1 $-1 $18 $3 #
transform $-1 1 0 0 0 1 0 0 0 1 45.882747886593222 29.969204485244994 13.635178606112275 1 rotate no_reflect no_shear #
lump $-1 $-1 $19 $4 #
transform $-1 1 0 0 0 1 0 0 0 1 45.882747886593222 29.969204485244994 13.635178606112275 1 rotate no_reflect no_shear #
shell $-1 $-1 $-1 $20 $-1 $5 #
shell $-1 $-1 $-1 $21 $-1 $7 #
shell $-1 $-1 $-1 $22 $-1 $9 #
shell $-1 $-1 $-1 $23 $-1 $11 #
shell $-1 $-1 $-1 $24 $-1 $13 #
face $-1 $25 $26 $15 $-1 $27 forward single #
face $-1 $28 $29 $16 $-1 $30 forward single #
face $-1 $31 $32 $17 $-1 $33 forward single #
face $-1 $34 $35 $18 $-1 $36 reversed single #
face $-1 $37 $38 $19 $-1 $39 reversed single #
face $-1 $40 $41 $15 $-1 $42 reversed single #
loop $-1 $-1 $43 $20 #
plane-surface $-1 0 0 13.635178606112275 0 0 1 1 0 0 forward_v I I I I #
face $-1 $44 $45 $16 $-1 $46 reversed single #
loop $-1 $-1 $47 $21 #
plane-surface $-1 0 -35.649914426058167 -6.9001816871222497 0 0 1 1 0 0 forward_v I I I I #
face $-1 $48 $49 $17 $-1 $50 forward single #
loop $-1 $-1 $51 $22 #
plane-surface $-1 -104.86847229133389 -0.84156563267666584 75.470739235532321 0 1 0 -0.64278761758704617 0 0.76604443648966558 forward_v I I I I #
face $-1 $52 $53 $18 $-1 $54 reversed single #
loop $-1 $55 $56 $23 #
cone-surface $-1 -39.852722933453975 1.7403868866815024 8.2268310945300485 0.64278761758704617 0 -0.76604443648966558 0.76604443648966558 0 0.64278761758704617 1 I I 0 1 1 forward I I I I #
face $-1 $57 $58 $19 $-1 $59 reversed single #
loop $-1 $60 $61 $24 #
cone-surface $-1 -39.852722933453975 5.6133156657187584 8.2268310945300485 0.64278761758704617 0 -0.76604443648966558 0.76604443648966558 0 0.64278761758704617 1 I I 0 1 1 forward I I I I #
face $-1 $62 $63 $15 $-1 $64 reversed single #
loop $-1 $-1 $65 $25 #
plane-surface $-1 0 0 -13.635178606112275 0 0 1 1 0 0 forward_v I I I I #
coedge $-1 $66 $67 $68 $69 forward $26 $-1 #
face $-1 $70 $71 $16 $-1 $72 reversed single #
loop $-1 $-1 $73 $28 #
plane-surface $-1 0 -35.649914426058167 -10.584638561851072 0 0 1 1 0 0 forward_v I I I I #
coedge $-1 $74 $75 $76 $77 forward $29 $-1 #
face $-1 $78 $79 $17 $-1 $80 forward single #
loop $-1 $-1 $81 $31 #
plane-surface $-1 -45.882747886593215 3.6768512762001322 5.1742917367669179 -0.64278761758704617 0 0.76604443648966558 0.76604443648966558 0 0.64278761758704617 forward_v I I I I #
coedge $-1 $82 $83 $84 $85 reversed $32 $-1 #
face $-1 $86 $87 $18 $-1 $88 forward single #
loop $-1 $89 $90 $34 #
cone-surface $-1 -38.542950227461873 1.7403868866815024 6.6659047993756619 0.64278761758704617 0 -0.76604443648966558 0.38302221824483279 0 0.32139380879352308 1 I I -0.70710678118654746 0.70710678118654746 0.5 forward I I I I #
loop $-1 $-1 $91 $23 #
coedge $-1 $56 $56 $92 $93 reversed $35 $-1 #
face $-1 $94 $95 $19 $-1 $96 reversed single #
loop $-1 $97 $98 $37 #
cone-surface $-1 -38.542950227461873 5.6133156657187584 6.6659047993756619 0.64278761758704617 0 -0.76604443648966558 0.38302221824483279 0 0.32139380879352308 1 I I -0.70710678118654746 0.70710678118654746 0.5 forward I I I I #
loop $-1 $-1 $99 $24 #
coedge $-1 $61 $61 $100 $101 reversed $38 $-1 #
face $-1 $102 $103 $15 $-1 $104 reversed single #
loop $-1 $-1 $105 $40 #
plane-surface $-1 0 -29.969204485244994 0 0 1 0 0 0 1 forward_v I I I I #
coedge $-1 $106 $107 $108 $109 forward $41 $-1 #
coedge $-1 $110 $43 $111 $112 forward $26 $-1 #
coedge $-1 $43 $110 $113 $114 forward $26 $-1 #
coedge $-1 $115 $116 $43 $69 reversed $117 $-1 #
edge $-1 $118 -29.969204485244994 $119 29.969204485244994 $68 $120 forward 7 unknown #
face $-1 $121 $122 $16 $-1 $123 reversed single #
loop $-1 $-1 $124 $44 #
plane-surface $-1 0 -41.330624366871341 -8.7424101244866605 0 1 0 0 0 1 forward_v I I I I #
coedge $-1 $125 $126 $127 $128 forward $45 $-1 #
coedge $-1 $129 $47 $130 $131 reversed $29 $-1 #
coedge $-1 $47 $129 $132 $133 forward $29 $-1 #
coedge $-1 $134 $135 $47 $77 reversed $136 $-1 #
edge $-1 $137 -5.6807099408131734 $138 5.6807099408131769 $76 $139 forward 7 unknown #
face $-1 $140 $141 $17 $-1 $142 forward single #
loop $-1 $-1 $143 $48 #
plane-surface $-1 -104.86847229133389 8.1952681850769302 75.470739235532321 0 -1 0 0.64278761758704617 0 -0.76604443648966558 forward_v I I I I #
coedge $-1 $144 $145 $146 $147 reversed $49 $-1 #
coedge $-1 $83 $51 $145 $148 forward $32 $-1 #
coedge $-1 $51 $82 $149 $150 reversed $32 $-1 #
coedge $-1 $151 $146 $51 $85 forward $141 $-1 #
edge $-1 $152 -16.634780370955085 $153 -6.5514882590737216 $84 $154 forward 7 unknown #
face $-1 $155 $156 $18 $-1 $157 forward single #
loop $-1 $-1 $158 $52 #
plane-surface $-1 -104.86847229133389 -0.84156563267666584 75.470739235532321 0 1 0 -0.64278761758704617 0 0.76604443648966558 forward_v I I I I #
loop $-1 $-1 $159 $34 #
coedge $-1 $90 $90 $91 $160 forward $53 $-1 #
coedge $-1 $91 $91 $90 $160 reversed $55 $-1 #
coedge $-1 $92 $92 $56 $93 forward $156 $-1 #
edge $-1 $161 0 $161 6.2831853071796004 $92 $162 forward 7 unknown #
face $-1 $163 $164 $19 $-1 $165 reversed single #
loop $-1 $166 $167 $57 #
cone-surface $-1 -39.852722933453975 1.7403868866815024 8.2268310945300485 0.64278761758704617 0 -0.76604443648966558 0.76604443648966558 0 0.64278761758704617 1 I I 0 1 1 forward I I I I #
loop $-1 $-1 $168 $37 #
coedge $-1 $98 $98 $99 $169 forward $58 $-1 #
coedge $-1 $99 $99 $98 $169 reversed $60 $-1 #
coedge $-1 $100 $100 $61 $101 forward $170 $-1 #
edge $-1 $171 0 $171 6.2831853071796004 $100 $172 forward 7 unknown #
face $-1 $173 $174 $15 $-1 $175 reversed single #
loop $-1 $-1 $176 $62 #
plane-surface $-1 -45.882747886593222 0 0 1 0 0 0 0 -1 forward_v I I I I #
coedge $-1 $177 $113 $178 $179 forward $63 $-1 #
coedge $-1 $180 $65 $177 $181 forward $41 $-1 #
coedge $-1 $65 $180 $182 $183 forward $41 $-1 #
coedge $-1 $116 $115 $65 $109 reversed $117 $-1 #
edge $-1 $184 -29.969204485244994 $185 29.969204485244994 $108 $186 forward 7 unknown #
coedge $-1 $67 $66 $187 $188 forward $26 $-1 #
coedge $-1 $189 $190 $66 $112 reversed $174 $-1 #
edge $-1 $119 -45.882747886593222 $191 45.882747886593222 $111 $192 forward 7 unknown #
coedge $-1 $105 $193 $67 $114 reversed $63 $-1 #
edge $-1 $194 -45.882747886593222 $118 45.882747886593222 $113 $195 forward 7 unknown #
coedge $-1 $108 $68 $193 $196 forward $117 $-1 #
coedge $-1 $68 $108 $189 $197 reversed $117 $-1 #
loop $-1 $-1 $115 $173 #
vertex $-1 $69 $198 #
vertex $-1 $69 $199 #
straight-curve $-1 45.882747886593222 0 13.635178606112275 0 1 0 I I #
face $-1 $200 $201 $16 $-1 $123 reversed single #
loop $-1 $-1 $202 $70 #
plane-surface $-1 0 -29.969204485244994 0 0 1 0 0 0 1 forward_v I I I I #
coedge $-1 $203 $132 $204 $205 forward $71 $-1 #
coedge $-1 $206 $73 $203 $207 forward $45 $-1 #
coedge $-1 $73 $206 $202 $208 reversed $45 $-1 #
coedge $-1 $209 $134 $73 $128 reversed $136 $-1 #
edge $-1 $210 -5.6807099408131769 $211 5.6807099408131734 $127 $212 forward 7 unknown #
coedge $-1 $75 $74 $213 $214 forward $29 $-1 #
coedge $-1 $215 $216 $74 $131 forward $201 $-1 #
edge $-1 $217 -45.882747886593222 $138 45.882747886593222 $130 $218 forward 7 unknown #
coedge $-1 $124 $219 $75 $133 reversed $71 $-1 #
edge $-1 $220 -45.882747886593222 $137 45.882747886593222 $132 $221 forward 7 unknown #
coedge $-1 $127 $76 $219 $222 forward $136 $-1 #
coedge $-1 $76 $223 $215 $224 forward $136 $-1 #
loop $-1 $-1 $135 $225 #
vertex $-1 $77 $226 #
vertex $-1 $77 $227 #
straight-curve $-1 45.882747886593222 -35.649914426058167 -6.9001816871222497 0 1 0 I I #
face $-1 $228 $229 $17 $-1 $230 forward single #
loop $-1 $-1 $231 $78 #
plane-surface $-1 0 0 13.635178606112275 0 0 1 1 0 0 forward_v I I I I #
coedge $-1 $232 $233 $231 $234 reversed $79 $-1 #
coedge $-1 $235 $81 $233 $236 reversed $49 $-1 #
coedge $-1 $81 $235 $82 $148 reversed $49 $-1 #
coedge $-1 $84 $231 $81 $147 forward $141 $-1 #
edge $-1 $237 -6.3568425469768641 $152 2.6799912707767319 $146 $238 forward 7 unknown #
edge $-1 $152 -13.162803137226867 $239 9.439443728910611e-015 $82 $240 forward 7 unknown #
coedge $-1 $241 $242 $83 $150 forward $243 $-1 #
edge $-1 $153 24.100191011653884 $239 32.56107788099925 $149 $244 forward 7 unknown #
coedge $-1 $245 $84 $242 $246 forward $141 $-1 #
vertex $-1 $147 $247 #
vertex $-1 $246 $248 #
straight-curve $-1 -52.434236145666944 -0.84156563267666584 13.635178606112277 -1 0 0 I I #
face $-1 $249 $250 $18 $-1 $251 forward single #
loop $-1 $252 $92 $86 #
plane-surface $-1 -45.882747886593215 3.6768512762001322 5.1742917367669179 -0.64278761758704617 0 0.76604443648966558 0.76604443648966558 0 0.64278761758704617 forward_v I I I I #
coedge $-1 $253 $254 $255 $256 reversed $87 $-1 #
coedge $-1 $159 $159 $-1 $257 forward $89 $-1 #
edge $-1 $258 0 $258 6.2831853071796004 $90 $259 forward 7 unknown #
vertex $-1 $93 $260 #
ellipse-curve $-1 -40.841101830652541 1.7403868866815024 9.4047351714395901 0.64278761758704617 0 -0.76604443648966558 0.76604443648966558 0 0.64278761758704617 1 I I #
face $-1 $261 $262 $19 $-1 $263 forward single #
loop $-1 $264 $265 $94 #
cone-surface $-1 -38.542950227461873 1.7403868866815024 6.6659047993756619 0.64278761758704617 0 -0.76604443648966558 0.38302221824483279 0 0.32139380879352308 1 I I -0.70710678118654746 0.70710678118654746 0.5 forward I I I I #
loop $-1 $-1 $266 $57 #
coedge $-1 $167 $167 $267 $268 reversed $95 $-1 #
coedge $-1 $168 $168 $-1 $269 forward $97 $-1 #
edge $-1 $270 0 $270 6.2831853071796004 $98 $271 forward 7 unknown #
loop $-1 $272 $100 $261 #
vertex $-1 $101 $273 #
ellipse-curve $-1 -40.841101830652541 5.6133156657187584 9.4047351714395901 0.64278761758704617 0 -0.76604443648966558 0.76604443648966558 0 0.64278761758704617 1 I I #
face $-1 $-1 $117 $15 $-1 $274 reversed single #
loop $-1 $-1 $189 $102 #
plane-surface $-1 0 29.969204485244994 0 0 -1 0 0 0 -1 forward_v I I I I #
coedge $-1 $275 $187 $190 $276 forward $103 $-1 #
coedge $-1 $193 $105 $106 $181 reversed $63 $-1 #
coedge $-1 $187 $275 $105 $179 reversed $103 $-1 #
edge $-1 $194 -13.635178606112275 $277 13.635178606112275 $178 $278 forward 7 unknown #
coedge $-1 $107 $106 $275 $279 forward $41 $-1 #
edge $-1 $185 -45.882747886593222 $277 45.882747886593222 $177 $280 forward 7 unknown #
coedge $-1 $190 $189 $107 $183 reversed $174 $-1 #
edge $-1 $281 -45.882747886593222 $184 45.882747886593222 $182 $282 forward 7 unknown #
vertex $-1 $109 $283 #
vertex $-1 $196 $284 #
straight-curve $-1 45.882747886593222 0 -13.635178606112275 0 -1 0 I I #
coedge $-1 $176 $178 $110 $188 reversed $103 $-1 #
edge $-1 $191 -29.969204485244994 $194 29.969204485244994 $187 $285 forward 7 unknown #
coedge $-1 $182 $111 $116 $197 forward $174 $-1 #
coedge $-1 $111 $182 $176 $276 reversed $174 $-1 #
vertex $-1 $112 $286 #
straight-curve $-1 0 29.969204485244994 13.635178606112275 -1 0 0 I I #
coedge $-1 $113 $177 $115 $196 reversed $63 $-1 #
vertex $-1 $188 $287 #
straight-curve $-1 0 -29.969204485244994 13.635178606112275 1 0 0 I I #
edge $-1 $118 -13.635178606112275 $185 13.635178606112275 $115 $288 forward 7 unknown #
edge $-1 $119 -13.635178606112275 $184 13.635178606112275 $116 $289 forward 7 unknown #
point $-1 45.882747886593222 -29.969204485244994 13.635178606112275 #
point $-1 45.882747886593222 29.969204485244994 13.635178606112275 #
face $-1 $290 $291 $16 $-1 $292 forward single #
loop $-1 $-1 $130 $121 #
coedge $-1 $293 $294 $126 $208 forward $122 $-1 #
coedge $-1 $219 $124 $125 $207 reversed $71 $-1 #
coedge $-1 $213 $295 $124 $205 reversed $296 $-1 #
edge $-1 $220 -1.8422284373644109 $297 1.8422284373644118 $204 $298 forward 7 unknown #
coedge $-1 $126 $125 $295 $299 forward $45 $-1 #
edge $-1 $211 -45.882747886593222 $297 45.882747886593222 $203 $300 forward 7 unknown #
edge $-1 $210 -45.882747886593222 $301 45.882747886593222 $202 $302 forward 7 unknown #
coedge $-1 $303 $127 $294 $304 forward $136 $-1 #
vertex $-1 $304 $305 #
vertex $-1 $222 $306 #
straight-curve $-1 45.882747886593222 -35.649914426058167 -10.584638561851072 0 -1 0 I I #
coedge $-1 $307 $204 $129 $214 reversed $296 $-1 #
edge $-1 $217 -5.6807099408131769 $220 5.6807099408131734 $213 $308 forward 7 unknown #
coedge $-1 $309 $130 $135 $224 reversed $201 $-1 #
coedge $-1 $130 $309 $307 $310 forward $201 $-1 #
vertex $-1 $310 $311 #
straight-curve $-1 0 -29.969204485244994 -6.9001816871222497 1 0 0 I I #
coedge $-1 $132 $203 $134 $222 reversed $71 $-1 #
vertex $-1 $214 $312 #
straight-curve $-1 0 -41.330624366871341 -6.9001816871222497 1 0 0 I I #
edge $-1 $137 -1.8422284373644109 $211 1.8422284373644118 $134 $313 forward 7 unknown #
coedge $-1 $135 $314 $315 $316 reversed $136 $-1 #
edge $-1 $317 -13.635178606112275 $138 6.9001816871222497 $135 $318 forward 7 unknown #
face $-1 $-1 $136 $16 $-1 $319 reversed single #
point $-1 45.882747886593222 -41.330624366871341 -6.9001816871222497 #
point $-1 45.882747886593222 -29.96920448524499 -6.9001816871222497 #
face $-1 $320 $321 $17 $-1 $322 reversed single #
loop $-1 $-1 $323 $140 #
plane-surface $-1 0 -35.649914426058167 -6.9001816871222497 0 0 1 1 0 0 forward_v I I I I #
coedge $-1 $146 $324 $143 $234 forward $141 $-1 #
coedge $-1 $233 $143 $325 $326 reversed $79 $-1 #
coedge $-1 $143 $232 $144 $236 forward $79 $-1 #
edge $-1 $327 6.5514882590737216 $237 16.634780370955085 $231 $328 forward 7 unknown #
coedge $-1 $145 $144 $241 $329 reversed $49 $-1 #
edge $-1 $330 -9.439443728910611e-015 $237 13.162803137226867 $233 $331 forward 7 unknown #
vertex $-1 $147 $332 #
straight-curve $-1 -35.799455774711852 1.8384256381000661 13.635178606112277 0 -1 0 I I #
vertex $-1 $329 $333 #
straight-curve $-1 -45.882747886593215 -0.84156563267666584 5.1742917367669179 -0.76604443648966558 0 -0.64278761758704617 I I #
coedge $-1 $325 $149 $235 $329 forward $243 $-1 #
coedge $-1 $149 $334 $151 $246 reversed $243 $-1 #
loop $-1 $-1 $325 $335 #
straight-curve $-1 -45.882747886593222 -0.84156563267666584 37.73536961776616 0 0 -1 I I #
coedge $-1 $336 $151 $337 $338 forward $141 $-1 #
edge $-1 $153 0.84156563267666584 $339 29.969204485244994 $242 $340 forward 7 unknown #
point $-1 -35.799455774711859 -0.84156563267666584 13.635178606112275 #
point $-1 -45.882747886593222 -0.84156563267666584 13.635178606112275 #
face $-1 $341 $342 $18 $-1 $343 forward single #
loop $-1 $-1 $344 $155 #
plane-surface $-1 -104.86847229133389 8.1952681850769302 75.470739235532321 0 -1 0 0.64278761758704617 0 -0.76604443648966558 forward_v I I I I #
loop $-1 $-1 $345 $86 #
coedge $-1 $254 $158 $346 $347 forward $87 $-1 #
coedge $-1 $158 $253 $348 $349 reversed $87 $-1 #
coedge $-1 $350 $351 $158 $256 forward $342 $-1 #
edge $-1 $352 -16.634780370955085 $353 -6.5514882590737216 $255 $354 forward 7 unknown #
edge $-1 $355 1 $355 0 $159 $-1 forward 7 unknown #
vertex $-1 $160 $356 #
ellipse-curve $-1 -38.864344036255396 1.7403868866815024 7.0489270176204943 -0.64278761758704617 0 0.76604443648966558 0.76604443648966558 0 0.64278761758704617 1 I I #
point $-1 -40.075057394162883 1.7403868866815024 10.047522789026647 #
face $-1 $357 $170 $19 $-1 $358 forward single #
loop $-1 $-1 $359 $163 #
plane-surface $-1 -104.86847229133389 -0.84156563267666584 75.470739235532321 0 1 0 -0.64278761758704617 0 0.76604443648966558 forward_v I I I I #
loop $-1 $-1 $360 $94 #
coedge $-1 $265 $265 $266 $361 forward $164 $-1 #
coedge $-1 $266 $266 $265 $361 reversed $166 $-1 #
coedge $-1 $267 $267 $167 $268 forward $272 $-1 #
edge $-1 $362 0 $362 6.2831853071796004 $267 $363 forward 7 unknown #
edge $-1 $364 1 $364 0 $168 $-1 forward 7 unknown #
vertex $-1 $169 $365 #
ellipse-curve $-1 -38.864344036255396 5.6133156657187584 7.0489270176204943 -0.64278761758704617 0 0.76604443648966558 0.76604443648966558 0 0.64278761758704617 1 I I #
loop $-1 $366 $267 $261 #
point $-1 -40.075057394162883 5.6133156657187584 10.047522789026647 #
plane-surface $-1 45.882747886593222 0 0 -1 0 0 0 0 1 forward_v I I I I #
coedge $-1 $178 $176 $180 $279 reversed $103 $-1 #
edge $-1 $191 -13.635178606112275 $281 13.635178606112275 $190 $367 forward 7 unknown #
vertex $-1 $279 $368 #
straight-curve $-1 -45.882747886593222 -29.969204485244994 0 0 0 -1 I I #
edge $-1 $277 -29.969204485244994 $281 29.969204485244994 $275 $369 forward 7 unknown #
straight-curve $-1 0 -29.969204485244994 -13.635178606112275 -1 0 0 I I #
vertex $-1 $183 $370 #
straight-curve $-1 0 29.969204485244994 -13.635178606112275 1 0 0 I I #
point $-1 45.882747886593222 29.969204485244994 -13.635178606112275 #
point $-1 45.882747886593222 -29.969204485244994 -13.635178606112275 #
straight-curve $-1 -45.882747886593222 0 13.635178606112275 0 -1 0 I I #
point $-1 -45.882747886593222 29.969204485244994 13.635178606112275 #
point $-1 -45.882747886593222 -29.969204485244994 13.635178606112275 #
straight-curve $-1 45.882747886593222 -29.969204485244994 0 0 0 -1 I I #
straight-curve $-1 45.882747886593222 29.969204485244994 0 0 0 -1 I I #
face $-1 $371 $372 $16 $-1 $373 reversed single #
loop $-1 $-1 $315 $200 #
plane-surface $-1 0 0 13.635178606112275 0 0 1 1 0 0 forward_v I I I I #
coedge $-1 $374 $202 $375 $376 forward $122 $-1 #
coedge $-1 $202 $374 $209 $304 reversed $122 $-1 #
coedge $-1 $204 $375 $206 $299 reversed $296 $-1 #
loop $-1 $-1 $377 $371 #
vertex $-1 $299 $378 #
straight-curve $-1 -45.882747886593222 -41.330624366871341 -8.7424101244866605 0 0 -1 I I #
edge $-1 $297 -5.6807099408131734 $301 5.6807099408131769 $295 $379 forward 7 unknown #
straight-curve $-1 0 -41.330624366871341 -10.584638561851072 -1 0 0 I I #
vertex $-1 $376 $380 #
straight-curve $-1 0 -29.969204485244994 -10.584638561851072 -1 0 0 I I #
coedge $-1 $314 $209 $381 $382 reversed $136 $-1 #
edge $-1 $210 10.584638561851072 $383 13.635178606112275 $209 $318 forward 7 unknown #
point $-1 45.882747886593222 -29.96920448524499 -10.584638561851072 #
point $-1 45.882747886593222 -41.330624366871341 -10.584638561851072 #
coedge $-1 $384 $213 $216 $310 reversed $296 $-1 #
straight-curve $-1 -45.882747886593222 -35.649914426058167 -6.9001816871222497 0 -1 0 I I #
coedge $-1 $216 $215 $385 $386 reversed $201 $-1 #
edge $-1 $387 -13.635178606112275 $217 6.9001816871222497 $307 $388 forward 7 unknown #
point $-1 -45.882747886593222 -29.96920448524499 -6.9001816871222497 #
point $-1 -45.882747886593222 -41.330624366871341 -6.9001816871222497 #
straight-curve $-1 45.882747886593222 -41.330624366871341 -8.7424101244866605 0 0 -1 I I #
coedge $-1 $223 $303 $389 $390 reversed $136 $-1 #
coedge $-1 $391 $385 $223 $316 forward $291 $-1 #
edge $-1 $317 -29.969204485244994 $392 29.969204485244994 $223 $393 forward 7 unknown #
vertex $-1 $316 $394 #
straight-curve $-1 45.882747886593222 -29.969204485244994 0 0 0 -1 I I #
plane-surface $-1 45.882747886593222 0 0 -1 0 0 0 0 1 forward_v I I I I #
face $-1 $395 $396 $17 $-1 $397 reversed single #
loop $-1 $-1 $398 $228 #
plane-surface $-1 0 -35.649914426058167 -10.584638561851072 0 0 1 1 0 0 forward_v I I I I #
coedge $-1 $399 $400 $401 $402 forward $229 $-1 #
coedge $-1 $231 $403 $404 $405 forward $141 $-1 #
coedge $-1 $404 $241 $232 $326 forward $243 $-1 #
edge $-1 $330 -32.56107788099925 $327 -24.100191011653884 $325 $406 forward 7 unknown #
vertex $-1 $326 $407 #
straight-curve $-1 -52.434236145666944 8.1952681850769302 13.635178606112277 1 0 0 I I #
edge $-1 $239 -2.6799912707767319 $330 6.3568425469768641 $241 $408 forward 7 unknown #
vertex $-1 $329 $409 #
straight-curve $-1 -45.882747886593215 8.1952681850769302 5.1742917367669179 0.76604443648966558 0 0.64278761758704617 I I #
point $-1 -35.799455774711859 8.1952681850769302 13.635178606112275 #
point $-1 -45.882747886593222 -0.84156563267666584 5.1742917367669117 #
coedge $-1 $242 $410 $411 $412 reversed $243 $-1 #
face $-1 $413 $243 $17 $-1 $414 reversed single #
coedge $-1 $403 $245 $415 $416 forward $141 $-1 #
coedge $-1 $411 $417 $245 $338 reversed $418 $-1 #
edge $-1 $339 -45.882747886593222 $419 45.882747886593222 $337 $420 forward 7 unknown #
vertex $-1 $246 $421 #
straight-curve $-1 -45.882747886593222 0 13.635178606112275 0 -1 0 I I #
face $-1 $422 $423 $18 $-1 $424 forward single #
loop $-1 $-1 $425 $249 #
plane-surface $-1 0 0 13.635178606112275 0 0 1 1 0 0 forward_v I I I I #
coedge $-1 $426 $427 $425 $428 reversed $250 $-1 #
coedge $-1 $429 $346 $351 $430 reversed $252 $-1 #
coedge $-1 $345 $431 $253 $347 reversed $252 $-1 #
edge $-1 $352 -13.162803137226867 $432 9.439443728910611e-015 $253 $433 forward 7 unknown #
coedge $-1 $434 $435 $254 $349 forward $436 $-1 #
edge $-1 $353 24.100191011653884 $432 32.56107788099925 $348 $437 forward 7 unknown #
coedge $-1 $438 $255 $435 $439 forward $342 $-1 #
coedge $-1 $255 $425 $345 $430 forward $342 $-1 #
vertex $-1 $430 $440 #
vertex $-1 $439 $441 #
straight-curve $-1 -52.434236145666944 -0.84156563267666584 13.635178606112277 -1 0 0 I I #
vertex $-1 $257 $442 #
point $-1 -38.098299599765731 1.7403868866815024 7.691714635207541 #
face $-1 $443 $444 $19 $-1 $445 forward single #
plane-surface $-1 -45.882747886593215 3.6768512762001322 5.1742917367669179 -0.64278761758704617 0 0.76604443648966558 0.76604443648966558 0 0.64278761758704617 forward_v I I I I #
coedge $-1 $446 $447 $448 $449 reversed $262 $-1 #
coedge $-1 $360 $360 $-1 $450 forward $264 $-1 #
edge $-1 $451 0 $451 6.2831853071796004 $265 $452 forward 7 unknown #
vertex $-1 $268 $453 #
ellipse-curve $-1 -40.841101830652541 1.7403868866815024 9.4047351714395901 0.64278761758704617 0 -0.76604443648966558 0.76604443648966558 0 0.64278761758704617 1 I I #
vertex $-1 $269 $454 #
point $-1 -38.098299599765731 5.6133156657187584 7.691714635207541 #
loop $-1 $-1 $455 $261 #
straight-curve $-1 -45.882747886593222 29.969204485244994 0 0 0 -1 I I #
point $-1 -45.882747886593222 -29.969204485244994 -13.635178606112275 #
straight-curve $-1 -45.882747886593222 0 -13.635178606112275 0 1 0 I I #
point $-1 -45.882747886593222 29.969204485244994 -13.635178606112275 #
face $-1 $456 $296 $16 $-1 $457 reversed single #
loop $-1 $-1 $381 $290 #
plane-surface $-1 0 0 -13.635178606112275 0 0 1 1 0 0 forward_v I I I I #
coedge $-1 $294 $293 $458 $459 reversed $122 $-1 #
coedge $-1 $295 $460 $293 $376 reversed $296 $-1 #
edge $-1 $301 10.584638561851072 $461 13.635178606112275 $375 $388 forward 7 unknown #
coedge $-1 $460 $384 $462 $463 forward $296 $-1 #
point $-1 -45.882747886593222 -41.330624366871341 -10.584638561851072 #
straight-curve $-1 -45.882747886593222 -35.649914426058167 -10.584638561851072 0 1 0 I I #
point $-1 -45.882747886593222 -29.96920448524499 -10.584638561851072 #
coedge $-1 $458 $464 $303 $382 forward $372 $-1 #
edge $-1 $465 -29.969204485244994 $383 29.969204485244994 $303 $466 forward 7 unknown #
vertex $-1 $304 $467 #
coedge $-1 $377 $307 $468 $469 reversed $296 $-1 #
coedge $-1 $315 $468 $309 $386 forward $291 $-1 #
edge $-1 $387 -45.882747886593222 $317 45.882747886593222 $309 $470 forward 7 unknown #
vertex $-1 $469 $471 #
straight-curve $-1 -45.882747886593222 -29.969204485244994 0 0 0 -1 I I #
coedge $-1 $472 $473 $314 $390 forward $474 $-1 #
edge $-1 $392 -13.635178606112275 $465 13.635178606112275 $314 $475 forward 7 unknown #
coedge $-1 $468 $315 $473 $476 forward $291 $-1 #
vertex $-1 $316 $477 #
straight-curve $-1 45.882747886593222 0 13.635178606112275 0 1 0 I I #
point $-1 45.882747886593222 -29.969204485244994 13.635178606112275 #
face $-1 $478 $479 $17 $-1 $480 reversed single #
loop $-1 $-1 $481 $320 #
plane-surface $-1 0 -41.330624366871341 -8.7424101244866605 0 1 0 0 0 1 forward_v I I I I #
coedge $-1 $482 $483 $484 $485 forward $321 $-1 #
coedge $-1 $486 $323 $487 $488 reversed $229 $-1 #
coedge $-1 $323 $486 $489 $490 forward $229 $-1 #
coedge $-1 $491 $492 $323 $402 reversed $493 $-1 #
edge $-1 $494 -5.6807099408131734 $495 5.6807099408131769 $401 $496 forward 7 unknown #
coedge $-1 $324 $336 $497 $498 forward $141 $-1 #
coedge $-1 $499 $325 $324 $405 reversed $243 $-1 #
edge $-1 $500 -29.969204485244994 $327 -8.1952681850769302 $404 $340 forward 7 unknown #
straight-curve $-1 -45.882747886593222 8.1952681850769302 37.73536961776616 0 0 1 I I #
point $-1 -45.882747886593222 8.1952681850769302 13.635178606112275 #
straight-curve $-1 -45.882747886593222 1.8384256381000661 5.1742917367669143 0 1 0 I I #
point $-1 -45.882747886593222 8.1952681850769302 5.1742917367669117 #
coedge $-1 $334 $501 $486 $502 reversed $243 $-1 #
coedge $-1 $487 $337 $334 $412 forward $418 $-1 #
edge $-1 $339 -13.635178606112275 $503 6.9001816871222497 $334 $504 forward 7 unknown #
face $-1 $505 $506 $17 $-1 $507 reversed single #
plane-surface $-1 -45.882747886593222 0 0 1 0 0 0 0 -1 forward_v I I I I #
coedge $-1 $492 $508 $336 $416 reversed $493 $-1 #
edge $-1 $419 -29.969204485244994 $509 29.969204485244994 $415 $510 forward 7 unknown #
coedge $-1 $337 $487 $492 $511 reversed $418 $-1 #
loop $-1 $-1 $487 $478 #
vertex $-1 $416 $512 #
straight-curve $-1 0 -29.969204485244994 13.635178606112275 1 0 0 I I #
point $-1 -45.882747886593222 -29.969204485244994 13.635178606112275 #
face $-1 $513 $514 $18 $-1 $515 reversed single #
loop $-1 $-1 $516 $341 #
plane-surface $-1 0 -35.649914426058167 -6.9001816871222497 0 0 1 1 0 0 forward_v I I I I #
coedge $-1 $351 $517 $344 $428 forward $342 $-1 #
coedge $-1 $427 $344 $518 $519 reversed $250 $-1 #
coedge $-1 $344 $426 $429 $520 forward $250 $-1 #
edge $-1 $521 6.5514882590737216 $522 16.634780370955085 $425 $523 forward 7 unknown #
coedge $-1 $431 $345 $427 $520 reversed $252 $-1 #
edge $-1 $522 -6.3568425469768641 $352 2.6799912707767319 $351 $524 forward 7 unknown #
coedge $-1 $346 $429 $434 $525 reversed $252 $-1 #
vertex $-1 $525 $526 #
straight-curve $-1 -45.882747886593215 -0.84156563267666584 5.1742917367669179 -0.76604443648966558 0 -0.64278761758704617 I I #
coedge $-1 $518 $348 $431 $525 forward $436 $-1 #
coedge $-1 $348 $527 $350 $439 reversed $436 $-1 #
loop $-1 $-1 $518 $528 #
straight-curve $-1 -45.882747886593222 -0.84156563267666584 37.73536961776616 0 0 -1 I I #
coedge $-1 $529 $350 $530 $531 forward $342 $-1 #
edge $-1 $353 0.84156563267666584 $532 29.969204485244994 $435 $533 forward 7 unknown #
point $-1 -35.799455774711859 -0.84156563267666584 13.635178606112275 #
point $-1 -45.882747886593222 -0.84156563267666584 13.635178606112275 #
point $-1 -38.221556418668349 1.7403868866815024 6.2828825811308295 #
face $-1 $534 $535 $19 $-1 $536 forward single #
loop $-1 $-1 $537 $357 #
plane-surface $-1 -104.86847229133389 8.1952681850769302 75.470739235532321 0 -1 0 0.64278761758704617 0 -0.76604443648966558 forward_v I I I I #
coedge $-1 $447 $359 $538 $539 forward $262 $-1 #
coedge $-1 $359 $446 $540 $541 reversed $262 $-1 #
coedge $-1 $542 $543 $359 $449 forward $535 $-1 #
edge $-1 $544 -16.634780370955085 $545 -6.5514882590737216 $448 $546 forward 7 unknown #
edge $-1 $547 1 $547 0 $360 $-1 forward 7 unknown #
vertex $-1 $361 $548 #
ellipse-curve $-1 -38.864344036255396 1.7403868866815024 7.0489270176204943 -0.64278761758704617 0 0.76604443648966558 0.76604443648966558 0 0.64278761758704617 1 I I #
point $-1 -40.075057394162883 1.7403868866815024 10.047522789026647 #
point $-1 -38.221556418668349 5.6133156657187584 6.2828825811308295 #
coedge $-1 $549 $538 $543 $550 reversed $366 $-1 #
face $-1 $225 $474 $16 $-1 $551 reversed single #
plane-surface $-1 -45.882747886593222 0 0 1 0 0 0 0 -1 forward_v I I I I #
coedge $-1 $552 $381 $374 $459 forward $372 $-1 #
edge $-1 $383 -45.882747886593222 $461 45.882747886593222 $374 $553 forward 7 unknown #
coedge $-1 $375 $377 $552 $554 reversed $296 $-1 #
vertex $-1 $554 $555 #
coedge $-1 $473 $472 $377 $463 reversed $474 $-1 #
edge $-1 $556 -13.635178606112275 $557 13.635178606112275 $462 $558 forward 7 unknown #
coedge $-1 $381 $552 $472 $559 forward $372 $-1 #
vertex $-1 $382 $560 #
straight-curve $-1 45.882747886593222 0 -13.635178606112275 0 -1 0 I I #
point $-1 45.882747886593222 -29.969204485244994 -13.635178606112275 #
coedge $-1 $385 $391 $384 $469 forward $291 $-1 #
edge $-1 $556 -29.969204485244994 $387 29.969204485244994 $384 $561 forward 7 unknown #
straight-curve $-1 0 -29.969204485244994 13.635178606112275 1 0 0 I I #
point $-1 -45.882747886593222 -29.969204485244994 13.635178606112275 #
coedge $-1 $462 $389 $464 $559 reversed $474 $-1 #
coedge $-1 $389 $462 $391 $476 reversed $474 $-1 #
loop $-1 $-1 $389 $456 #
straight-curve $-1 45.882747886593222 29.969204485244994 0 0 0 -1 I I #
edge $-1 $392 -45.882747886593222 $556 45.882747886593222 $473 $562 forward 7 unknown #
point $-1 45.882747886593222 29.969204485244994 13.635178606112275 #
face $-1 $563 $418 $17 $-1 $480 reversed single #
loop $-1 $-1 $564 $395 #
plane-surface $-1 0 -29.969204485244994 0 0 1 0 0 0 1 forward_v I I I I #
coedge $-1 $565 $489 $501 $566 forward $396 $-1 #
coedge $-1 $567 $398 $565 $568 forward $321 $-1 #
coedge $-1 $398 $567 $564 $569 reversed $321 $-1 #
coedge $-1 $570 $491 $398 $485 reversed $493 $-1 #
edge $-1 $571 -5.6807099408131769 $572 5.6807099408131734 $484 $573 forward 7 unknown #
coedge $-1 $400 $399 $410 $502 forward $229 $-1 #
coedge $-1 $417 $411 $399 $488 forward $418 $-1 #
edge $-1 $503 -45.882747886593222 $495 45.882747886593222 $487 $574 forward 7 unknown #
coedge $-1 $481 $575 $400 $490 reversed $396 $-1 #
edge $-1 $576 -45.882747886593222 $494 45.882747886593222 $489 $577 forward 7 unknown #
coedge $-1 $484 $401 $575 $578 forward $493 $-1 #
coedge $-1 $401 $415 $417 $511 forward $493 $-1 #
loop $-1 $-1 $492 $505 #
vertex $-1 $402 $579 #
vertex $-1 $402 $580 #
straight-curve $-1 45.882747886593222 -35.649914426058167 -6.9001816871222497 0 1 0 I I #
coedge $-1 $581 $582 $403 $498 reversed $506 $-1 #
edge $-1 $509 -45.882747886593222 $500 45.882747886593222 $497 $583 forward 7 unknown #
coedge $-1 $584 $404 $582 $585 forward $243 $-1 #
vertex $-1 $498 $586 #
coedge $-1 $410 $587 $481 $566 reversed $243 $-1 #
edge $-1 $503 -5.6807099408131769 $576 5.6807099408131734 $410 $588 forward 7 unknown #
vertex $-1 $412 $589 #
straight-curve $-1 -45.882747886593222 -29.969204485244994 0 0 0 -1 I I #
face $-1 $-1 $493 $17 $-1 $590 reversed single #
loop $-1 $-1 $581 $413 #
plane-surface $-1 0 29.969204485244994 0 0 -1 0 0 0 -1 forward_v I I I I #
coedge $-1 $415 $591 $581 $592 reversed $493 $-1 #
vertex $-1 $416 $593 #
straight-curve $-1 45.882747886593222 0 13.635178606112275 0 1 0 I I #
edge $-1 $419 -13.635178606112275 $495 6.9001816871222497 $492 $594 forward 7 unknown #
point $-1 45.882747886593222 -29.969204485244994 13.635178606112275 #
face $-1 $595 $596 $18 $-1 $597 reversed single #
loop $-1 $-1 $598 $422 #
plane-surface $-1 0 -35.649914426058167 -10.584638561851072 0 0 1 1 0 0 forward_v I I I I #
coedge $-1 $599 $600 $601 $602 forward $423 $-1 #
coedge $-1 $425 $603 $604 $605 forward $342 $-1 #
coedge $-1 $604 $434 $426 $519 forward $436 $-1 #
edge $-1 $606 -32.56107788099925 $521 -24.100191011653884 $518 $607 forward 7 unknown #
edge $-1 $606 -9.439443728910611e-015 $522 13.162803137226867 $427 $608 forward 7 unknown #
vertex $-1 $519 $609 #
vertex $-1 $430 $610 #
straight-curve $-1 -52.434236145666944 8.1952681850769302 13.635178606112277 1 0 0 I I #
straight-curve $-1 -35.799455774711852 1.8384256381000661 13.635178606112277 0 -1 0 I I #
edge $-1 $432 -2.6799912707767319 $606 6.3568425469768641 $434 $611 forward 7 unknown #
point $-1 -45.882747886593222 -0.84156563267666584 5.1742917367669117 #
coedge $-1 $435 $612 $613 $614 reversed $436 $-1 #
face $-1 $615 $436 $18 $-1 $616 reversed single #
coedge $-1 $603 $438 $617 $618 forward $342 $-1 #
coedge $-1 $613 $619 $438 $531 reversed $620 $-1 #
edge $-1 $532 -45.882747886593222 $621 45.882747886593222 $530 $622 forward 7 unknown #
vertex $-1 $439 $623 #
straight-curve $-1 -45.882747886593222 0 13.635178606112275 0 -1 0 I I #
face $-1 $624 $625 $19 $-1 $626 forward single #
loop $-1 $-1 $627 $443 #
plane-surface $-1 0 0 13.635178606112275 0 0 1 1 0 0 forward_v I I I I #
coedge $-1 $628 $629 $627 $630 reversed $444 $-1 #
coedge $-1 $455 $631 $446 $539 reversed $366 $-1 #
edge $-1 $544 -13.162803137226867 $632 9.439443728910611e-015 $446 $633 forward 7 unknown #
coedge $-1 $634 $635 $447 $541 forward $636 $-1 #
edge $-1 $545 24.100191011653884 $632 32.56107788099925 $540 $637 forward 7 unknown #
coedge $-1 $638 $448 $635 $639 forward $535 $-1 #
coedge $-1 $448 $627 $455 $550 forward $535 $-1 #
vertex $-1 $550 $640 #
vertex $-1 $639 $641 #
straight-curve $-1 -52.434236145666944 -0.84156563267666584 13.635178606112277 -1 0 0 I I #
vertex $-1 $450 $642 #
point $-1 -38.098299599765731 1.7403868866815024 7.691714635207541 #
coedge $-1 $631 $455 $629 $643 reversed $366 $-1 #
edge $-1 $644 -6.3568425469768641 $544 2.6799912707767319 $543 $645 forward 7 unknown #
plane-surface $-1 0 29.969204485244994 0 0 -1 0 0 0 -1 forward_v I I I I #
coedge $-1 $464 $458 $460 $554 forward $372 $-1 #
straight-curve $-1 0 -29.969204485244994 -13.635178606112275 -1 0 0 I I #
edge $-1 $461 -29.969204485244994 $557 29.969204485244994 $460 $646 forward 7 unknown #
point $-1 -45.882747886593222 -29.969204485244994 -13.635178606112275 #
vertex $-1 $476 $647 #
vertex $-1 $559 $648 #
straight-curve $-1 -45.882747886593222 29.969204485244994 0 0 0 -1 I I #
edge $-1 $557 -45.882747886593222 $465 45.882747886593222 $472 $649 forward 7 unknown #
point $-1 45.882747886593222 29.969204485244994 -13.635178606112275 #
straight-curve $-1 -45.882747886593222 0 13.635178606112275 0 -1 0 I I #
straight-curve $-1 0 29.969204485244994 13.635178606112275 -1 0 0 I I #
face $-1 $335 $650 $17 $-1 $651 reversed single #
coedge $-1 $652 $653 $483 $569 forward $479 $-1 #
coedge $-1 $575 $481 $482 $568 reversed $396 $-1 #
edge $-1 $576 -1.8422284373644109 $654 1.8422284373644118 $501 $655 forward 7 unknown #
coedge $-1 $483 $482 $587 $656 forward $321 $-1 #
edge $-1 $572 -45.882747886593222 $654 45.882747886593222 $565 $657 forward 7 unknown #
edge $-1 $571 -45.882747886593222 $658 45.882747886593222 $564 $659 forward 7 unknown #
coedge $-1 $591 $484 $653 $660 forward $493 $-1 #
vertex $-1 $660 $661 #
vertex $-1 $578 $662 #
straight-curve $-1 45.882747886593222 -35.649914426058167 -10.584638561851072 0 -1 0 I I #
straight-curve $-1 0 -29.969204485244994 -6.9001816871222497 1 0 0 I I #
coedge $-1 $489 $565 $491 $578 reversed $396 $-1 #
vertex $-1 $502 $663 #
straight-curve $-1 0 -41.330624366871341 -6.9001816871222497 1 0 0 I I #
edge $-1 $494 -1.8422284373644109 $572 1.8422284373644118 $491 $664 forward 7 unknown #
point $-1 45.882747886593222 -41.330624366871341 -6.9001816871222497 #
point $-1 45.882747886593222 -29.96920448524499 -6.9001816871222497 #
coedge $-1 $665 $497 $508 $592 forward $506 $-1 #
coedge $-1 $497 $665 $499 $585 reversed $506 $-1 #
straight-curve $-1 0 29.969204485244994 13.635178606112275 -1 0 0 I I #
coedge $-1 $666 $499 $667 $668 reversed $243 $-1 #
edge $-1 $500 -13.635178606112275 $669 13.635178606112275 $582 $670 forward 7 unknown #
point $-1 -45.882747886593222 29.969204485244994 13.635178606112275 #
coedge $-1 $501 $666 $567 $656 reversed $243 $-1 #
straight-curve $-1 -45.882747886593222 -35.649914426058167 -6.9001816871222497 0 -1 0 I I #
point $-1 -45.882747886593222 -29.96920448524499 -6.9001816871222497 #
plane-surface $-1 45.882747886593222 0 0 -1 0 0 0 0 1 forward_v I I I I #
coedge $-1 $508 $570 $671 $672 reversed $493 $-1 #
edge $-1 $509 -13.635178606112275 $673 13.635178606112275 $508 $674 forward 7 unknown #
point $-1 45.882747886593222 29.969204485244994 13.635178606112275 #
straight-curve $-1 45.882747886593222 -29.969204485244994 0 0 0 -1 I I #
face $-1 $675 $676 $18 $-1 $677 reversed single #
loop $-1 $-1 $678 $513 #
plane-surface $-1 0 -41.330624366871341 -8.7424101244866605 0 1 0 0 0 1 forward_v I I I I #
coedge $-1 $679 $680 $681 $682 forward $514 $-1 #
coedge $-1 $683 $516 $684 $685 reversed $423 $-1 #
coedge $-1 $516 $683 $686 $687 forward $423 $-1 #
coedge $-1 $688 $689 $516 $602 reversed $690 $-1 #
edge $-1 $691 -5.6807099408131734 $692 5.6807099408131769 $601 $693 forward 7 unknown #
coedge $-1 $517 $529 $694 $695 forward $342 $-1 #
coedge $-1 $696 $518 $517 $605 reversed $436 $-1 #
edge $-1 $697 -29.969204485244994 $521 -8.1952681850769302 $604 $533 forward 7 unknown #
vertex $-1 $525 $698 #
straight-curve $-1 -45.882747886593222 8.1952681850769302 37.73536961776616 0 0 1 I I #
straight-curve $-1 -45.882747886593215 8.1952681850769302 5.1742917367669179 0.76604443648966558 0 0.64278761758704617 I I #
point $-1 -45.882747886593222 8.1952681850769302 13.635178606112275 #
point $-1 -35.799455774711859 8.1952681850769302 13.635178606112275 #
straight-curve $-1 -45.882747886593222 1.8384256381000661 5.1742917367669143 0 1 0 I I #
coedge $-1 $527 $699 $683 $700 reversed $436 $-1 #
coedge $-1 $684 $530 $527 $614 forward $620 $-1 #
edge $-1 $532 -13.635178606112275 $701 6.9001816871222497 $527 $702 forward 7 unknown #
face $-1 $703 $704 $18 $-1 $705 reversed single #
plane-surface $-1 -45.882747886593222 0 0 1 0 0 0 0 -1 forward_v I I I I #
coedge $-1 $689 $706 $529 $618 reversed $690 $-1 #
edge $-1 $621 -29.969204485244994 $707 29.969204485244994 $617 $708 forward 7 unknown #
coedge $-1 $530 $684 $689 $709 reversed $620 $-1 #
loop $-1 $-1 $684 $675 #
vertex $-1 $618 $710 #
straight-curve $-1 0 -29.969204485244994 13.635178606112275 1 0 0 I I #
point $-1 -45.882747886593222 -29.969204485244994 13.635178606112275 #
face $-1 $711 $712 $19 $-1 $713 reversed single #
loop $-1 $-1 $714 $534 #
plane-surface $-1 0 -35.649914426058167 -6.9001816871222497 0 0 1 1 0 0 forward_v I I I I #
coedge $-1 $543 $715 $537 $630 forward $535 $-1 #
coedge $-1 $629 $537 $716 $717 reversed $444 $-1 #
coedge $-1 $537 $628 $549 $643 forward $444 $-1 #
edge $-1 $718 6.5514882590737216 $644 16.634780370955085 $627 $719 forward 7 unknown #
coedge $-1 $538 $549 $634 $720 reversed $366 $-1 #
vertex $-1 $720 $721 #
straight-curve $-1 -45.882747886593215 -0.84156563267666584 5.1742917367669179 -0.76604443648966558 0 -0.64278761758704617 I I #
coedge $-1 $716 $540 $631 $720 forward $636 $-1 #
coedge $-1 $540 $722 $542 $639 reversed $636 $-1 #
loop $-1 $-1 $716 $723 #
straight-curve $-1 -45.882747886593222 -0.84156563267666584 37.73536961776616 0 0 -1 I I #
coedge $-1 $724 $542 $725 $726 forward $535 $-1 #
edge $-1 $545 0.84156563267666584 $727 29.969204485244994 $635 $728 forward 7 unknown #
point $-1 -35.799455774711859 -0.84156563267666584 13.635178606112275 #
point $-1 -45.882747886593222 -0.84156563267666584 13.635178606112275 #
point $-1 -38.221556418668349 1.7403868866815024 6.2828825811308295 #
edge $-1 $729 -9.439443728910611e-015 $644 13.162803137226867 $629 $730 forward 7 unknown #
vertex $-1 $550 $731 #
straight-curve $-1 -35.799455774711852 1.8384256381000661 13.635178606112277 0 -1 0 I I #
straight-curve $-1 -45.882747886593222 0 -13.635178606112275 0 1 0 I I #
point $-1 -45.882747886593222 29.969204485244994 13.635178606112275 #
point $-1 -45.882747886593222 29.969204485244994 -13.635178606112275 #
straight-curve $-1 0 29.969204485244994 -13.635178606112275 1 0 0 I I #
loop $-1 $-1 $671 $563 #
plane-surface $-1 0 0 -13.635178606112275 0 0 1 1 0 0 forward_v I I I I #
coedge $-1 $732 $564 $666 $733 forward $479 $-1 #
coedge $-1 $564 $732 $570 $660 reversed $479 $-1 #
vertex $-1 $656 $734 #
straight-curve $-1 -45.882747886593222 -41.330624366871341 -8.7424101244866605 0 0 -1 I I #
edge $-1 $654 -5.6807099408131734 $658 5.6807099408131769 $587 $735 forward 7 unknown #
straight-curve $-1 0 -41.330624366871341 -10.584638561851072 -1 0 0 I I #
vertex $-1 $733 $736 #
straight-curve $-1 0 -29.969204485244994 -10.584638561851072 -1 0 0 I I #
edge $-1 $571 10.584638561851072 $737 13.635178606112275 $570 $594 forward 7 unknown #
point $-1 45.882747886593222 -29.96920448524499 -10.584638561851072 #
point $-1 45.882747886593222 -41.330624366871341 -10.584638561851072 #
point $-1 -45.882747886593222 -41.330624366871341 -6.9001816871222497 #
straight-curve $-1 45.882747886593222 -41.330624366871341 -8.7424101244866605 0 0 -1 I I #
coedge $-1 $582 $581 $738 $739 reversed $506 $-1 #
coedge $-1 $587 $584 $652 $733 reversed $243 $-1 #
coedge $-1 $738 $740 $584 $668 forward $650 $-1 #
edge $-1 $741 -29.969204485244994 $669 29.969204485244994 $584 $742 forward 7 unknown #
vertex $-1 $739 $743 #
straight-curve $-1 -45.882747886593222 29.969204485244994 0 0 0 -1 I I #
coedge $-1 $740 $738 $591 $672 forward $650 $-1 #
edge $-1 $673 -29.969204485244994 $737 29.969204485244994 $591 $744 forward 7 unknown #
vertex $-1 $672 $745 #
straight-curve $-1 45.882747886593222 29.969204485244994 0 0 0 -1 I I #
face $-1 $746 $620 $18 $-1 $677 reversed single #
loop $-1 $-1 $747 $595 #
plane-surface $-1 0 -29.969204485244994 0 0 1 0 0 0 1 forward_v I I I I #
coedge $-1 $748 $686 $699 $749 forward $596 $-1 #
coedge $-1 $750 $598 $748 $751 forward $514 $-1 #
coedge $-1 $598 $750 $747 $752 reversed $514 $-1 #
coedge $-1 $753 $688 $598 $682 reversed $690 $-1 #
edge $-1 $754 -5.6807099408131769 $755 5.6807099408131734 $681 $756 forward 7 unknown #
coedge $-1 $600 $599 $612 $700 forward $423 $-1 #
coedge $-1 $619 $613 $599 $685 forward $620 $-1 #
edge $-1 $701 -45.882747886593222 $692 45.882747886593222 $684 $757 forward 7 unknown #
coedge $-1 $678 $758 $600 $687 reversed $596 $-1 #
edge $-1 $759 -45.882747886593222 $691 45.882747886593222 $686 $760 forward 7 unknown #
coedge $-1 $681 $601 $758 $761 forward $690 $-1 #
coedge $-1 $601 $617 $619 $709 forward $690 $-1 #
loop $-1 $-1 $689 $703 #
vertex $-1 $602 $762 #
vertex $-1 $602 $763 #
straight-curve $-1 45.882747886593222 -35.649914426058167 -6.9001816871222497 0 1 0 I I #
coedge $-1 $764 $765 $603 $695 reversed $704 $-1 #
edge $-1 $707 -45.882747886593222 $697 45.882747886593222 $694 $766 forward 7 unknown #
coedge $-1 $767 $604 $765 $768 forward $436 $-1 #
vertex $-1 $695 $769 #
point $-1 -45.882747886593222 8.1952681850769302 5.1742917367669117 #
coedge $-1 $612 $770 $678 $749 reversed $436 $-1 #
edge $-1 $701 -5.6807099408131769 $759 5.6807099408131734 $612 $771 forward 7 unknown #
vertex $-1 $614 $772 #
straight-curve $-1 -45.882747886593222 -29.969204485244994 0 0 0 -1 I I #
face $-1 $-1 $690 $18 $-1 $773 reversed single #
loop $-1 $-1 $764 $615 #
plane-surface $-1 0 29.969204485244994 0 0 -1 0 0 0 -1 forward_v I I I I #
coedge $-1 $617 $774 $764 $775 reversed $690 $-1 #
vertex $-1 $618 $776 #
straight-curve $-1 45.882747886593222 0 13.635178606112275 0 1 0 I I #
edge $-1 $621 -13.635178606112275 $692 6.9001816871222497 $689 $777 forward 7 unknown #
point $-1 45.882747886593222 -29.969204485244994 13.635178606112275 #
face $-1 $778 $779 $19 $-1 $780 reversed single #
loop $-1 $-1 $781 $624 #
plane-surface $-1 0 -35.649914426058167 -10.584638561851072 0 0 1 1 0 0 forward_v I I I I #
coedge $-1 $782 $783 $784 $785 forward $625 $-1 #
coedge $-1 $627 $786 $787 $788 forward $535 $-1 #
coedge $-1 $787 $634 $628 $717 forward $636 $-1 #
edge $-1 $729 -32.56107788099925 $718 -24.100191011653884 $716 $789 forward 7 unknown #
vertex $-1 $717 $790 #
straight-curve $-1 -52.434236145666944 8.1952681850769302 13.635178606112277 1 0 0 I I #
edge $-1 $632 -2.6799912707767319 $729 6.3568425469768641 $634 $791 forward 7 unknown #
point $-1 -45.882747886593222 -0.84156563267666584 5.1742917367669117 #
coedge $-1 $635 $792 $793 $794 reversed $636 $-1 #
face $-1 $795 $636 $19 $-1 $796 reversed single #
coedge $-1 $786 $638 $797 $798 forward $535 $-1 #
coedge $-1 $793 $799 $638 $726 reversed $800 $-1 #
edge $-1 $727 -45.882747886593222 $801 45.882747886593222 $725 $802 forward 7 unknown #
vertex $-1 $639 $803 #
straight-curve $-1 -45.882747886593222 0 13.635178606112275 0 -1 0 I I #
vertex $-1 $720 $804 #
straight-curve $-1 -45.882747886593215 8.1952681850769302 5.1742917367669179 0.76604443648966558 0 0.64278761758704617 I I #
point $-1 -35.799455774711859 8.1952681850769302 13.635178606112275 #
coedge $-1 $653 $652 $740 $805 reversed $479 $-1 #
edge $-1 $658 10.584638561851072 $741 13.635178606112275 $666 $504 forward 7 unknown #
point $-1 -45.882747886593222 -41.330624366871341 -10.584638561851072 #
straight-curve $-1 -45.882747886593222 -35.649914426058167 -10.584638561851072 0 1 0 I I #
point $-1 -45.882747886593222 -29.96920448524499 -10.584638561851072 #
vertex $-1 $660 $806 #
coedge $-1 $671 $667 $665 $739 forward $650 $-1 #
edge $-1 $669 -45.882747886593222 $673 45.882747886593222 $665 $807 forward 7 unknown #
coedge $-1 $667 $671 $732 $805 forward $650 $-1 #
vertex $-1 $668 $808 #
straight-curve $-1 -45.882747886593222 0 -13.635178606112275 0 1 0 I I #
point $-1 -45.882747886593222 29.969204485244994 -13.635178606112275 #
straight-curve $-1 45.882747886593222 0 -13.635178606112275 0 -1 0 I I #
point $-1 45.882747886593222 29.969204485244994 -13.635178606112275 #
face $-1 $528 $809 $18 $-1 $810 reversed single #
coedge $-1 $811 $812 $680 $752 forward $676 $-1 #
coedge $-1 $758 $678 $679 $751 reversed $596 $-1 #
edge $-1 $759 -1.8422284373644109 $813 1.8422284373644118 $699 $814 forward 7 unknown #
coedge $-1 $680 $679 $770 $815 forward $514 $-1 #
edge $-1 $755 -45.882747886593222 $813 45.882747886593222 $748 $816 forward 7 unknown #
edge $-1 $754 -45.882747886593222 $817 45.882747886593222 $747 $818 forward 7 unknown #
coedge $-1 $774 $681 $812 $819 forward $690 $-1 #
vertex $-1 $819 $820 #
vertex $-1 $761 $821 #
straight-curve $-1 45.882747886593222 -35.649914426058167 -10.584638561851072 0 -1 0 I I #
straight-curve $-1 0 -29.969204485244994 -6.9001816871222497 1 0 0 I I #
coedge $-1 $686 $748 $688 $761 reversed $596 $-1 #
vertex $-1 $700 $822 #
straight-curve $-1 0 -41.330624366871341 -6.9001816871222497 1 0 0 I I #
edge $-1 $691 -1.8422284373644109 $755 1.8422284373644118 $688 $823 forward 7 unknown #
point $-1 45.882747886593222 -41.330624366871341 -6.9001816871222497 #
point $-1 45.882747886593222 -29.96920448524499 -6.9001816871222497 #
coedge $-1 $824 $694 $706 $775 forward $704 $-1 #
coedge $-1 $694 $824 $696 $768 reversed $704 $-1 #
straight-curve $-1 0 29.969204485244994 13.635178606112275 -1 0 0 I I #
coedge $-1 $825 $696 $826 $827 reversed $436 $-1 #
edge $-1 $697 -13.635178606112275 $828 13.635178606112275 $765 $829 forward 7 unknown #
point $-1 -45.882747886593222 29.969204485244994 13.635178606112275 #
coedge $-1 $699 $825 $750 $815 reversed $436 $-1 #
straight-curve $-1 -45.882747886593222 -35.649914426058167 -6.9001816871222497 0 -1 0 I I #
point $-1 -45.882747886593222 -29.96920448524499 -6.9001816871222497 #
plane-surface $-1 45.882747886593222 0 0 -1 0 0 0 0 1 forward_v I I I I #
coedge $-1 $706 $753 $830 $831 reversed $690 $-1 #
edge $-1 $707 -13.635178606112275 $832 13.635178606112275 $706 $833 forward 7 unknown #
point $-1 45.882747886593222 29.969204485244994 13.635178606112275 #
straight-curve $-1 45.882747886593222 -29.969204485244994 0 0 0 -1 I I #
face $-1 $834 $835 $19 $-1 $836 reversed single #
loop $-1 $-1 $837 $711 #
plane-surface $-1 0 -41.330624366871341 -8.7424101244866605 0 1 0 0 0 1 forward_v I I I I #
coedge $-1 $838 $839 $840 $841 forward $712 $-1 #
coedge $-1 $842 $714 $843 $844 reversed $625 $-1 #
coedge $-1 $714 $842 $845 $846 forward $625 $-1 #
coedge $-1 $847 $848 $714 $785 reversed $849 $-1 #
edge $-1 $850 -5.6807099408131734 $851 5.6807099408131769 $784 $852 forward 7 unknown #
coedge $-1 $715 $724 $853 $854 forward $535 $-1 #
coedge $-1 $855 $716 $715 $788 reversed $636 $-1 #
edge $-1 $856 -29.969204485244994 $718 -8.1952681850769302 $787 $728 forward 7 unknown #
straight-curve $-1 -45.882747886593222 8.1952681850769302 37.73536961776616 0 0 1 I I #
point $-1 -45.882747886593222 8.1952681850769302 13.635178606112275 #
straight-curve $-1 -45.882747886593222 1.8384256381000661 5.1742917367669143 0 1 0 I I #
coedge $-1 $722 $857 $842 $858 reversed $636 $-1 #
coedge $-1 $843 $725 $722 $794 forward $800 $-1 #
edge $-1 $727 -13.635178606112275 $859 6.9001816871222497 $722 $860 forward 7 unknown #
face $-1 $861 $862 $19 $-1 $863 reversed single #
plane-surface $-1 -45.882747886593222 0 0 1 0 0 0 0 -1 forward_v I I I I #
coedge $-1 $848 $864 $724 $798 reversed $849 $-1 #
edge $-1 $801 -29.969204485244994 $865 29.969204485244994 $797 $866 forward 7 unknown #
coedge $-1 $725 $843 $848 $867 reversed $800 $-1 #
loop $-1 $-1 $843 $834 #
vertex $-1 $798 $868 #
straight-curve $-1 0 -29.969204485244994 13.635178606112275 1 0 0 I I #
point $-1 -45.882747886593222 -29.969204485244994 13.635178606112275 #
point $-1 -45.882747886593222 8.1952681850769302 5.1742917367669117 #
edge $-1 $737 -45.882747886593222 $741 45.882747886593222 $732 $869 forward 7 unknown #
point $-1 45.882747886593222 -29.969204485244994 -13.635178606112275 #
straight-curve $-1 0 29.969204485244994 -13.635178606112275 1 0 0 I I #
point $-1 -45.882747886593222 -29.969204485244994 -13.635178606112275 #
loop $-1 $-1 $830 $746 #
plane-surface $-1 0 0 -13.635178606112275 0 0 1 1 0 0 forward_v I I I I #
coedge $-1 $870 $747 $825 $871 forward $676 $-1 #
coedge $-1 $747 $870 $753 $819 reversed $676 $-1 #
vertex $-1 $815 $872 #
straight-curve $-1 -45.882747886593222 -41.330624366871341 -8.7424101244866605 0 0 -1 I I #
edge $-1 $813 -5.6807099408131734 $817 5.6807099408131769 $770 $873 forward 7 unknown #
straight-curve $-1 0 -41.330624366871341 -10.584638561851072 -1 0 0 I I #
vertex $-1 $871 $874 #
straight-curve $-1 0 -29.969204485244994 -10.584638561851072 -1 0 0 I I #
edge $-1 $754 10.584638561851072 $875 13.635178606112275 $753 $777 forward 7 unknown #
point $-1 45.882747886593222 -29.96920448524499 -10.584638561851072 #
point $-1 45.882747886593222 -41.330624366871341 -10.584638561851072 #
point $-1 -45.882747886593222 -41.330624366871341 -6.9001816871222497 #
straight-curve $-1 45.882747886593222 -41.330624366871341 -8.7424101244866605 0 0 -1 I I #
coedge $-1 $765 $764 $876 $877 reversed $704 $-1 #
coedge $-1 $770 $767 $811 $871 reversed $436 $-1 #
coedge $-1 $876 $878 $767 $827 forward $809 $-1 #
edge $-1 $879 -29.969204485244994 $828 29.969204485244994 $767 $880 forward 7 unknown #
vertex $-1 $877 $881 #
straight-curve $-1 -45.882747886593222 29.969204485244994 0 0 0 -1 I I #
coedge $-1 $878 $876 $774 $831 forward $809 $-1 #
edge $-1 $832 -29.969204485244994 $875 29.969204485244994 $774 $882 forward 7 unknown #
vertex $-1 $831 $883 #
straight-curve $-1 45.882747886593222 29.969204485244994 0 0 0 -1 I I #
face $-1 $884 $800 $19 $-1 $836 reversed single #
loop $-1 $-1 $885 $778 #
plane-surface $-1 0 -29.969204485244994 0 0 1 0 0 0 1 forward_v I I I I #
coedge $-1 $886 $845 $857 $887 forward $779 $-1 #
coedge $-1 $888 $781 $886 $889 forward $712 $-1 #
coedge $-1 $781 $888 $885 $890 reversed $712 $-1 #
coedge $-1 $891 $847 $781 $841 reversed $849 $-1 #
edge $-1 $892 -5.6807099408131769 $893 5.6807099408131734 $840 $894 forward 7 unknown #
coedge $-1 $783 $782 $792 $858 forward $625 $-1 #
coedge $-1 $799 $793 $782 $844 forward $800 $-1 #
edge $-1 $859 -45.882747886593222 $851 45.882747886593222 $843 $895 forward 7 unknown #
coedge $-1 $837 $896 $783 $846 reversed $779 $-1 #
edge $-1 $897 -45.882747886593222 $850 45.882747886593222 $845 $898 forward 7 unknown #
coedge $-1 $840 $784 $896 $899 forward $849 $-1 #
coedge $-1 $784 $797 $799 $867 forward $849 $-1 #
loop $-1 $-1 $848 $861 #
vertex $-1 $785 $900 #
vertex $-1 $785 $901 #
straight-curve $-1 45.882747886593222 -35.649914426058167 -6.9001816871222497 0 1 0 I I #
coedge $-1 $902 $903 $786 $854 reversed $862 $-1 #
edge $-1 $865 -45.882747886593222 $856 45.882747886593222 $853 $904 forward 7 unknown #
coedge $-1 $905 $787 $903 $906 forward $636 $-1 #
vertex $-1 $854 $907 #
coedge $-1 $792 $908 $837 $887 reversed $636 $-1 #
edge $-1 $859 -5.6807099408131769 $897 5.6807099408131734 $792 $909 forward 7 unknown #
vertex $-1 $794 $910 #
straight-curve $-1 -45.882747886593222 -29.969204485244994 0 0 0 -1 I I #
face $-1 $-1 $849 $19 $-1 $911 reversed single #
loop $-1 $-1 $902 $795 #
plane-surface $-1 0 29.969204485244994 0 0 -1 0 0 0 -1 forward_v I I I I #
coedge $-1 $797 $912 $902 $913 reversed $849 $-1 #
vertex $-1 $798 $914 #
straight-curve $-1 45.882747886593222 0 13.635178606112275 0 1 0 I I #
edge $-1 $801 -13.635178606112275 $851 6.9001816871222497 $848 $915 forward 7 unknown #
point $-1 45.882747886593222 -29.969204485244994 13.635178606112275 #
straight-curve $-1 0 -29.969204485244994 -13.635178606112275 -1 0 0 I I #
coedge $-1 $812 $811 $878 $916 reversed $676 $-1 #
edge $-1 $817 10.584638561851072 $879 13.635178606112275 $825 $702 forward 7 unknown #
point $-1 -45.882747886593222 -41.330624366871341 -10.584638561851072 #
straight-curve $-1 -45.882747886593222 -35.649914426058167 -10.584638561851072 0 1 0 I I #
point $-1 -45.882747886593222 -29.96920448524499 -10.584638561851072 #
vertex $-1 $819 $917 #
coedge $-1 $830 $826 $824 $877 forward $809 $-1 #
edge $-1 $828 -45.882747886593222 $832 45.882747886593222 $824 $918 forward 7 unknown #
coedge $-1 $826 $830 $870 $916 forward $809 $-1 #
vertex $-1 $827 $919 #
straight-curve $-1 -45.882747886593222 0 -13.635178606112275 0 1 0 I I #
point $-1 -45.882747886593222 29.969204485244994 -13.635178606112275 #
straight-curve $-1 45.882747886593222 0 -13.635178606112275 0 -1 0 I I #
point $-1 45.882747886593222 29.969204485244994 -13.635178606112275 #
face $-1 $723 $920 $19 $-1 $921 reversed single #
coedge $-1 $922 $923 $839 $890 forward $835 $-1 #
coedge $-1 $896 $837 $838 $889 reversed $779 $-1 #
edge $-1 $897 -1.8422284373644109 $924 1.8422284373644118 $857 $925 forward 7 unknown #
coedge $-1 $839 $838 $908 $926 forward $712 $-1 #
edge $-1 $893 -45.882747886593222 $924 45.882747886593222 $886 $927 forward 7 unknown #
edge $-1 $892 -45.882747886593222 $928 45.882747886593222 $885 $929 forward 7 unknown #
coedge $-1 $912 $840 $923 $930 forward $849 $-1 #
vertex $-1 $930 $931 #
vertex $-1 $899 $932 #
straight-curve $-1 45.882747886593222 -35.649914426058167 -10.584638561851072 0 -1 0 I I #
straight-curve $-1 0 -29.969204485244994 -6.9001816871222497 1 0 0 I I #
coedge $-1 $845 $886 $847 $899 reversed $779 $-1 #
vertex $-1 $858 $933 #
straight-curve $-1 0 -41.330624366871341 -6.9001816871222497 1 0 0 I I #
edge $-1 $850 -1.8422284373644109 $893 1.8422284373644118 $847 $934 forward 7 unknown #
point $-1 45.882747886593222 -41.330624366871341 -6.9001816871222497 #
point $-1 45.882747886593222 -29.96920448524499 -6.9001816871222497 #
coedge $-1 $935 $853 $864 $913 forward $862 $-1 #
coedge $-1 $853 $935 $855 $906 reversed $862 $-1 #
straight-curve $-1 0 29.969204485244994 13.635178606112275 -1 0 0 I I #
coedge $-1 $936 $855 $937 $938 reversed $636 $-1 #
edge $-1 $856 -13.635178606112275 $939 13.635178606112275 $903 $940 forward 7 unknown #
point $-1 -45.882747886593222 29.969204485244994 13.635178606112275 #
coedge $-1 $857 $936 $888 $926 reversed $636 $-1 #
straight-curve $-1 -45.882747886593222 -35.649914426058167 -6.9001816871222497 0 -1 0 I I #
point $-1 -45.882747886593222 -29.96920448524499 -6.9001816871222497 #
plane-surface $-1 45.882747886593222 0 0 -1 0 0 0 0 1 forward_v I I I I #
coedge $-1 $864 $891 $941 $942 reversed $849 $-1 #
edge $-1 $865 -13.635178606112275 $943 13.635178606112275 $864 $944 forward 7 unknown #
point $-1 45.882747886593222 29.969204485244994 13.635178606112275 #
straight-curve $-1 45.882747886593222 -29.969204485244994 0 0 0 -1 I I #
edge $-1 $875 -45.882747886593222 $879 45.882747886593222 $870 $945 forward 7 unknown #
point $-1 45.882747886593222 -29.969204485244994 -13.635178606112275 #
straight-curve $-1 0 29.969204485244994 -13.635178606112275 1 0 0 I I #
point $-1 -45.882747886593222 -29.969204485244994 -13.635178606112275 #
loop $-1 $-1 $941 $884 #
plane-surface $-1 0 0 -13.635178606112275 0 0 1 1 0 0 forward_v I I I I #
coedge $-1 $946 $885 $936 $947 forward $835 $-1 #
coedge $-1 $885 $946 $891 $930 reversed $835 $-1 #
vertex $-1 $926 $948 #
straight-curve $-1 -45.882747886593222 -41.330624366871341 -8.7424101244866605 0 0 -1 I I #
edge $-1 $924 -5.6807099408131734 $928 5.6807099408131769 $908 $949 forward 7 unknown #
straight-curve $-1 0 -41.330624366871341 -10.584638561851072 -1 0 0 I I #
vertex $-1 $947 $950 #
straight-curve $-1 0 -29.969204485244994 -10.584638561851072 -1 0 0 I I #
edge $-1 $892 10.584638561851072 $951 13.635178606112275 $891 $915 forward 7 unknown #
point $-1 45.882747886593222 -29.96920448524499 -10.584638561851072 #
point $-1 45.882747886593222 -41.330624366871341 -10.584638561851072 #
point $-1 -45.882747886593222 -41.330624366871341 -6.9001816871222497 #
straight-curve $-1 45.882747886593222 -41.330624366871341 -8.7424101244866605 0 0 -1 I I #
coedge $-1 $903 $902 $952 $953 reversed $862 $-1 #
coedge $-1 $908 $905 $922 $947 reversed $636 $-1 #
coedge $-1 $952 $954 $905 $938 forward $920 $-1 #
edge $-1 $955 -29.969204485244994 $939 29.969204485244994 $905 $956 forward 7 unknown #
vertex $-1 $953 $957 #
straight-curve $-1 -45.882747886593222 29.969204485244994 0 0 0 -1 I I #
coedge $-1 $954 $952 $912 $942 forward $920 $-1 #
edge $-1 $943 -29.969204485244994 $951 29.969204485244994 $912 $958 forward 7 unknown #
vertex $-1 $942 $959 #
straight-curve $-1 45.882747886593222 29.969204485244994 0 0 0 -1 I I #
straight-curve $-1 0 -29.969204485244994 -13.635178606112275 -1 0 0 I I #
coedge $-1 $923 $922 $954 $960 reversed $835 $-1 #
edge $-1 $928 10.584638561851072 $955 13.635178606112275 $936 $860 forward 7 unknown #
point $-1 -45.882747886593222 -41.330624366871341 -10.584638561851072 #
straight-curve $-1 -45.882747886593222 -35.649914426058167 -10.584638561851072 0 1 0 I I #
point $-1 -45.882747886593222 -29.96920448524499 -10.584638561851072 #
vertex $-1 $930 $961 #
coedge $-1 $941 $937 $935 $953 forward $920 $-1 #
edge $-1 $939 -45.882747886593222 $943 45.882747886593222 $935 $962 forward 7 unknown #
coedge $-1 $937 $941 $946 $960 forward $920 $-1 #
vertex $-1 $938 $963 #
straight-curve $-1 -45.882747886593222 0 -13.635178606112275 0 1 0 I I #
point $-1 -45.882747886593222 29.969204485244994 -13.635178606112275 #
straight-curve $-1 45.882747886593222 0 -13.635178606112275 0 -1 0 I I #
point $-1 45.882747886593222 29.969204485244994 -13.635178606112275 #
edge $-1 $951 -45.882747886593222 $955 45.882747886593222 $946 $964 forward 7 unknown #
point $-1 45.882747886593222 -29.969204485244994 -13.635178606112275 #
straight-curve $-1 0 29.969204485244994 -13.635178606112275 1 0 0 I I #
point $-1 -45.882747886593222 -29.969204485244994 -13.635178606112275 #
straight-curve $-1 0 -29.969204485244994 -13.635178606112275 -1 0 0 I I #
End-of-ACIS-data 