500 0 18 0           
7 Unknown 11 ACIS 5.0 NT 24 Thu Mar 25 15:57:09 1999 
-1 9.9999999999999995e-007 1e-010 
body $-1 $18 $-1 $19 #
body $-1 $20 $-1 $21 #
body $-1 $22 $-1 $23 #
body $-1 $24 $-1 $25 #
body $-1 $26 $-1 $27 #
body $-1 $28 $-1 $29 #
body $-1 $30 $-1 $31 #
body $-1 $32 $-1 $33 #
body $-1 $34 $-1 $35 #
body $-1 $36 $-1 $37 #
body $-1 $38 $-1 $39 #
body $-1 $40 $-1 $41 #
body $-1 $42 $-1 $43 #
body $-1 $44 $-1 $45 #
body $-1 $46 $-1 $47 #
body $-1 $48 $-1 $49 #
body $-1 $50 $-1 $51 #
body $-1 $52 $-1 $53 #
lump $-1 $-1 $54 $0 #
transform $-1 1 0 0 0 1 0 0 0 1 48.630634479812002 29.689665015970188 14.769536900733069 1 rotate no_reflect no_shear #
lump $-1 $-1 $55 $1 #
transform $-1 1 0 0 0 1 0 0 0 1 48.630634479812002 29.689665015970188 14.769536900733069 1 rotate no_reflect no_shear #
lump $-1 $-1 $56 $2 #
transform $-1 1 0 0 0 1 0 0 0 1 48.630634479812002 29.689665015970188 14.769536900733069 1 rotate no_reflect no_shear #
lump $-1 $-1 $57 $3 #
transform $-1 1 0 0 0 1 0 0 0 1 48.630634479812002 29.689665015970188 14.769536900733069 1 rotate no_reflect no_shear #
lump $-1 $-1 $58 $4 #
transform $-1 1 0 0 0 1 0 0 0 1 48.630634479812002 29.689665015970188 14.769536900733069 1 rotate no_reflect no_shear #
lump $-1 $-1 $59 $5 #
transform $-1 1 0 0 0 1 0 0 0 1 48.630634479812002 29.689665015970188 14.769536900733069 1 rotate no_reflect no_shear #
lump $-1 $-1 $60 $6 #
transform $-1 1 0 0 0 1 0 0 0 1 48.630634479812002 29.689665015970188 14.769536900733069 1 rotate no_reflect no_shear #
lump $-1 $-1 $61 $7 #
transform $-1 1 0 0 0 1 0 0 0 1 48.630634479812002 29.689665015970188 14.769536900733069 1 rotate no_reflect no_shear #
lump $-1 $-1 $62 $8 #
transform $-1 1 0 0 0 1 0 0 0 1 48.630634479812002 29.689665015970188 14.769536900733069 1 rotate no_reflect no_shear #
lump $-1 $-1 $63 $9 #
transform $-1 1 0 0 0 1 0 0 0 1 48.630634479812002 29.689665015970188 14.769536900733069 1 rotate no_reflect no_shear #
lump $-1 $-1 $64 $10 #
transform $-1 1 0 0 0 1 0 0 0 1 48.630634479812002 29.689665015970188 14.769536900733069 1 rotate no_reflect no_shear #
lump $-1 $-1 $65 $11 #
transform $-1 1 0 0 0 1 0 0 0 1 48.630634479812002 29.689665015970188 14.769536900733069 1 rotate no_reflect no_shear #
lump $-1 $-1 $66 $12 #
transform $-1 1 0 0 0 1 0 0 0 1 48.630634479812002 29.689665015970188 14.769536900733069 1 rotate no_reflect no_shear #
lump $-1 $-1 $67 $13 #
transform $-1 1 0 0 0 1 0 0 0 1 48.630634479812002 29.689665015970188 14.769536900733069 1 rotate no_reflect no_shear #
lump $-1 $-1 $68 $14 #
transform $-1 1 0 0 0 1 0 0 0 1 48.630634479812002 29.689665015970188 14.769536900733069 1 rotate no_reflect no_shear #
lump $-1 $-1 $69 $15 #
transform $-1 1 0 0 0 1 0 0 0 1 48.630634479812002 29.689665015970188 14.769536900733069 1 rotate no_reflect no_shear #
lump $-1 $-1 $70 $16 #
transform $-1 1 0 0 0 1 0 0 0 1 48.630634479812002 29.689665015970188 14.769536900733069 1 rotate no_reflect no_shear #
lump $-1 $-1 $71 $17 #
transform $-1 1 0 0 0 1 0 0 0 1 48.630634479812002 29.689665015970188 14.769536900733069 1 rotate no_reflect no_shear #
shell $-1 $-1 $-1 $72 $-1 $18 #
shell $-1 $-1 $-1 $73 $-1 $20 #
shell $-1 $-1 $-1 $74 $-1 $22 #
shell $-1 $-1 $-1 $75 $-1 $24 #
shell $-1 $-1 $-1 $76 $-1 $26 #
shell $-1 $-1 $-1 $77 $-1 $28 #
shell $-1 $-1 $-1 $78 $-1 $30 #
shell $-1 $-1 $-1 $79 $-1 $32 #
shell $-1 $-1 $-1 $80 $-1 $34 #
shell $-1 $-1 $-1 $81 $-1 $36 #
shell $-1 $-1 $-1 $82 $-1 $38 #
shell $-1 $-1 $-1 $83 $-1 $40 #
shell $-1 $-1 $-1 $84 $-1 $42 #
shell $-1 $-1 $-1 $85 $-1 $44 #
shell $-1 $-1 $-1 $86 $-1 $46 #
shell $-1 $-1 $-1 $87 $-1 $48 #
shell $-1 $-1 $-1 $88 $-1 $50 #
shell $-1 $-1 $-1 $89 $-1 $52 #
face $-1 $90 $91 $54 $-1 $92 forward single #
face $-1 $93 $94 $55 $-1 $95 reversed single #
face $-1 $96 $97 $56 $-1 $98 reversed single #
face $-1 $99 $100 $57 $-1 $101 forward single #
face $-1 $102 $103 $58 $-1 $104 reversed single #
face $-1 $105 $106 $59 $-1 $107 forward single #
face $-1 $108 $109 $60 $-1 $110 reversed single #
face $-1 $111 $112 $61 $-1 $113 forward single #
face $-1 $114 $115 $62 $-1 $116 reversed single #
face $-1 $117 $118 $63 $-1 $119 forward single #
face $-1 $120 $121 $64 $-1 $122 reversed single #
face $-1 $123 $124 $65 $-1 $125 forward single #
face $-1 $126 $127 $66 $-1 $128 reversed single #
face $-1 $129 $130 $67 $-1 $131 forward single #
face $-1 $132 $133 $68 $-1 $134 reversed single #
face $-1 $135 $136 $69 $-1 $137 forward single #
face $-1 $138 $139 $70 $-1 $140 reversed single #
face $-1 $141 $142 $71 $-1 $143 forward single #
face $-1 $144 $145 $54 $-1 $146 reversed single #
loop $-1 $-1 $147 $72 #
plane-surface $-1 0 0 14.769536900733069 0 0 1 1 0 0 forward_v I I I I #
face $-1 $148 $149 $55 $-1 $150 reversed single #
loop $-1 $-1 $151 $73 #
plane-surface $-1 -41.303574816011249 0 10.063676762452683 0 0 1 1 0 0 forward_v I I I I #
face $-1 $152 $153 $56 $-1 $154 reversed single #
loop $-1 $-1 $155 $74 #
plane-surface $-1 -23.22828303632668 -97.253020413957543 74.355701549029391 -1 0 0 0 -0.69465837861970381 0.71933979245794832 forward_v I I I I #
face $-1 $156 $157 $57 $-1 $158 forward single #
loop $-1 $159 $160 $75 #
cone-surface $-1 -28.602399094268584 -22.075537754072116 7.260151908127364 0 0.69465837861970381 -0.71933979245794832 2 0 0 1 I I 0 1 2 forward I I I I #
face $-1 $161 $162 $58 $-1 $163 reversed single #
loop $-1 $-1 $164 $76 #
plane-surface $-1 -2.5764956283210552 -97.253020413957543 74.355701549029391 -1 0 0 0 -0.69465837861970381 0.71933979245794832 forward_v I I I I #
face $-1 $165 $166 $59 $-1 $167 forward single #
loop $-1 $168 $169 $77 #
cone-surface $-1 -7.9506116862629597 -22.075537754072116 7.260151908127364 0 0.69465837861970381 -0.71933979245794832 2 0 0 1 I I 0 1 2 forward I I I I #
face $-1 $170 $171 $60 $-1 $172 reversed single #
loop $-1 $-1 $173 $78 #
plane-surface $-1 18.075291779684569 -97.253020413957543 74.355701549029391 -1 0 0 0 -0.69465837861970381 0.71933979245794832 forward_v I I I I #
face $-1 $174 $175 $61 $-1 $176 forward single #
loop $-1 $177 $178 $79 #
cone-surface $-1 12.701175721742665 -22.075537754072116 7.260151908127364 0 0.69465837861970381 -0.71933979245794832 2 0 0 1 I I 0 1 2 forward I I I I #
face $-1 $179 $180 $62 $-1 $181 reversed single #
loop $-1 $-1 $182 $80 #
plane-surface $-1 38.727079187690194 -97.253020413957543 74.355701549029391 -1 0 0 0 -0.69465837861970381 0.71933979245794832 forward_v I I I I #
face $-1 $183 $184 $63 $-1 $185 forward single #
loop $-1 $186 $187 $81 #
cone-surface $-1 33.352963129748289 -22.075537754072116 7.260151908127364 0 0.69465837861970381 -0.71933979245794832 2 0 0 1 I I 0 1 2 forward I I I I #
face $-1 $188 $189 $64 $-1 $190 reversed single #
loop $-1 $-1 $191 $82 #
plane-surface $-1 -28.602399094268584 -13.024249925497827 45.640149644928755 0 0.69465837861970381 0.71933979245794832 1 0 0 forward_v I I I I #
face $-1 $192 $193 $65 $-1 $194 forward single #
loop $-1 $195 $196 $83 #
cone-surface $-1 -28.602399094268584 22.075537754072105 7.260151908127364 0 -0.69465837861970381 -0.71933979245794832 2 0 0 1 I I 0 1 2 forward I I I I #
face $-1 $197 $198 $66 $-1 $199 reversed single #
loop $-1 $-1 $200 $84 #
plane-surface $-1 -13.324727744204864 54.53910547248951 115.60405067254138 1 0 0 0 -0.69465837861970381 -0.71933979245794832 forward_v I I I I #
face $-1 $201 $202 $67 $-1 $203 forward single #
loop $-1 $204 $205 $85 #
cone-surface $-1 -7.9506116862629597 22.075537754072105 7.260151908127364 0 -0.69465837861970381 -0.71933979245794832 2 0 0 1 I I 0 1 2 forward I I I I #
face $-1 $206 $207 $68 $-1 $208 reversed single #
loop $-1 $-1 $209 $86 #
plane-surface $-1 7.3270596638007603 54.53910547248951 115.60405067254138 1 0 0 0 -0.69465837861970381 -0.71933979245794832 forward_v I I I I #
face $-1 $210 $211 $69 $-1 $212 forward single #
loop $-1 $213 $214 $87 #
cone-surface $-1 12.701175721742665 22.075537754072105 7.260151908127364 0 -0.69465837861970381 -0.71933979245794832 2 0 0 1 I I 0 1 2 forward I I I I #
face $-1 $215 $216 $70 $-1 $217 reversed single #
loop $-1 $-1 $218 $88 #
plane-surface $-1 27.978847071806385 54.53910547248951 115.60405067254138 1 0 0 0 -0.69465837861970381 -0.71933979245794832 forward_v I I I I #
face $-1 $219 $220 $71 $-1 $221 forward single #
loop $-1 $222 $223 $89 #
cone-surface $-1 33.352963129748289 22.075537754072105 7.260151908127364 0 -0.69465837861970381 -0.71933979245794832 2 0 0 1 I I 0 1 2 forward I I I I #
face $-1 $224 $225 $54 $-1 $226 reversed single #
loop $-1 $-1 $227 $90 #
plane-surface $-1 0 0 -14.769536900733069 0 0 1 1 0 0 forward_v I I I I #
coedge $-1 $228 $229 $230 $231 forward $91 $-1 #
face $-1 $232 $233 $55 $-1 $234 reversed single #
loop $-1 $-1 $235 $93 #
plane-surface $-1 -33.976515152210496 0 12.416606831592876 -1 0 0 0 0 1 forward_v I I I I #
coedge $-1 $236 $237 $238 $239 forward $94 $-1 #
face $-1 $240 $241 $56 $-1 $242 forward single #
loop $-1 $-1 $243 $96 #
plane-surface $-1 -28.602399094268584 -29.689665015970206 4.3918005214167692 0 -0.69465837861970381 0.71933979245794832 1 0 0 forward_v I I I I #
coedge $-1 $244 $245 $246 $247 reversed $97 $-1 #
face $-1 $-1 $248 $57 $-1 $249 forward single #
loop $-1 $250 $251 $99 #
cone-surface $-1 -28.602399094268584 -19.139982296219081 4.2202953127218628 0 0.69465837861970381 -0.71933979245794832 1 0 0 1 I I -0.70710678118654746 0.70710678118654746 1 forward I I I I #
loop $-1 $-1 $252 $75 #
coedge $-1 $160 $160 $253 $254 reversed $100 $-1 #
face $-1 $255 $256 $58 $-1 $257 reversed single #
loop $-1 $-1 $258 $102 #
plane-surface $-1 -7.9506116862629597 -29.689665015970206 4.3918005214167692 0 -0.69465837861970381 0.71933979245794832 1 0 0 forward_v I I I I #
coedge $-1 $259 $260 $261 $262 reversed $103 $-1 #
face $-1 $-1 $263 $59 $-1 $264 forward single #
loop $-1 $265 $266 $105 #
cone-surface $-1 -7.9506116862629597 -19.139982296219081 4.2202953127218628 0 0.69465837861970381 -0.71933979245794832 1 0 0 1 I I -0.70710678118654746 0.70710678118654746 1 forward I I I I #
loop $-1 $-1 $267 $77 #
coedge $-1 $169 $169 $268 $269 reversed $106 $-1 #
face $-1 $270 $271 $60 $-1 $272 reversed single #
loop $-1 $-1 $273 $108 #
plane-surface $-1 12.701175721742665 -29.689665015970206 4.3918005214167692 0 -0.69465837861970381 0.71933979245794832 1 0 0 forward_v I I I I #
coedge $-1 $274 $275 $276 $277 reversed $109 $-1 #
face $-1 $-1 $278 $61 $-1 $279 forward single #
loop $-1 $280 $281 $111 #
cone-surface $-1 12.701175721742665 -19.139982296219081 4.2202953127218628 0 0.69465837861970381 -0.71933979245794832 1 0 0 1 I I -0.70710678118654746 0.70710678118654746 1 forward I I I I #
loop $-1 $-1 $282 $79 #
coedge $-1 $178 $178 $283 $284 reversed $112 $-1 #
face $-1 $285 $286 $62 $-1 $287 reversed single #
loop $-1 $-1 $288 $114 #
plane-surface $-1 33.352963129748289 -29.689665015970206 4.3918005214167692 0 -0.69465837861970381 0.71933979245794832 1 0 0 forward_v I I I I #
coedge $-1 $289 $290 $291 $292 reversed $115 $-1 #
face $-1 $-1 $293 $63 $-1 $294 forward single #
loop $-1 $295 $296 $117 #
cone-surface $-1 33.352963129748289 -19.139982296219081 4.2202953127218628 0 0.69465837861970381 -0.71933979245794832 1 0 0 1 I I -0.70710678118654746 0.70710678118654746 1 forward I I I I #
loop $-1 $-1 $297 $81 #
coedge $-1 $187 $187 $298 $299 reversed $118 $-1 #
face $-1 $300 $301 $64 $-1 $302 forward single #
loop $-1 $-1 $303 $120 #
plane-surface $-1 -23.22828303632668 54.53910547248951 115.60405067254138 -1 0 0 0 0.69465837861970381 0.71933979245794832 forward_v I I I I #
coedge $-1 $304 $305 $306 $307 reversed $121 $-1 #
face $-1 $-1 $308 $65 $-1 $309 forward single #
loop $-1 $310 $311 $123 #
cone-surface $-1 -28.602399094268584 19.13998229621907 4.2202953127218628 0 -0.69465837861970381 -0.71933979245794832 1 0 0 1 I I -0.70710678118654746 0.70710678118654746 1 forward I I I I #
loop $-1 $-1 $312 $83 #
coedge $-1 $196 $196 $313 $314 reversed $124 $-1 #
face $-1 $315 $316 $66 $-1 $317 reversed single #
loop $-1 $-1 $318 $126 #
plane-surface $-1 -7.9506116862629597 -13.024249925497827 45.640149644928755 0 0.69465837861970381 0.71933979245794832 1 0 0 forward_v I I I I #
coedge $-1 $319 $320 $321 $322 reversed $127 $-1 #
face $-1 $-1 $323 $67 $-1 $324 forward single #
loop $-1 $325 $326 $129 #
cone-surface $-1 -7.9506116862629597 19.13998229621907 4.2202953127218628 0 -0.69465837861970381 -0.71933979245794832 1 0 0 1 I I -0.70710678118654746 0.70710678118654746 1 forward I I I I #
loop $-1 $-1 $327 $85 #
coedge $-1 $205 $205 $328 $329 reversed $130 $-1 #
face $-1 $330 $331 $68 $-1 $332 reversed single #
loop $-1 $-1 $333 $132 #
plane-surface $-1 12.701175721742665 -13.024249925497827 45.640149644928755 0 0.69465837861970381 0.71933979245794832 1 0 0 forward_v I I I I #
coedge $-1 $334 $335 $336 $337 reversed $133 $-1 #
face $-1 $-1 $338 $69 $-1 $339 forward single #
loop $-1 $340 $341 $135 #
cone-surface $-1 12.701175721742665 19.13998229621907 4.2202953127218628 0 -0.69465837861970381 -0.71933979245794832 1 0 0 1 I I -0.70710678118654746 0.70710678118654746 1 forward I I I I #
loop $-1 $-1 $342 $87 #
coedge $-1 $214 $214 $343 $344 reversed $136 $-1 #
face $-1 $345 $346 $70 $-1 $347 reversed single #
loop $-1 $-1 $348 $138 #
plane-surface $-1 33.352963129748289 -13.024249925497827 45.640149644928755 0 0.69465837861970381 0.71933979245794832 1 0 0 forward_v I I I I #
coedge $-1 $349 $350 $351 $352 reversed $139 $-1 #
face $-1 $-1 $353 $71 $-1 $354 forward single #
loop $-1 $355 $356 $141 #
cone-surface $-1 33.352963129748289 19.13998229621907 4.2202953127218628 0 -0.69465837861970381 -0.71933979245794832 1 0 0 1 I I -0.70710678118654746 0.70710678118654746 1 forward I I I I #
loop $-1 $-1 $357 $89 #
coedge $-1 $223 $223 $358 $359 reversed $142 $-1 #
face $-1 $360 $361 $54 $-1 $362 reversed single #
loop $-1 $-1 $363 $144 #
plane-surface $-1 0 -29.689665015970188 0 0 1 0 0 0 1 forward_v I I I I #
coedge $-1 $364 $365 $366 $367 forward $145 $-1 #
coedge $-1 $368 $147 $369 $370 forward $91 $-1 #
coedge $-1 $147 $368 $371 $372 forward $91 $-1 #
coedge $-1 $373 $374 $147 $231 reversed $375 $-1 #
edge $-1 $376 -29.689665015970188 $377 29.689665015970188 $230 $378 forward 7 unknown #
face $-1 $379 $380 $55 $-1 $381 reversed single #
loop $-1 $-1 $382 $148 #
plane-surface $-1 0 29.689665015970188 0 0 -1 0 0 0 -1 forward_v I I I I #
coedge $-1 $383 $384 $385 $386 reversed $149 $-1 #
coedge $-1 $387 $151 $388 $389 reversed $94 $-1 #
coedge $-1 $151 $387 $390 $391 reversed $94 $-1 #
coedge $-1 $384 $383 $151 $239 reversed $149 $-1 #
edge $-1 $392 -29.689665015970188 $393 29.689665015970188 $238 $394 forward 7 unknown #
face $-1 $395 $396 $56 $-1 $397 forward single #
loop $-1 $-1 $398 $152 #
plane-surface $-1 -33.976515152210496 0 12.416606831592876 -1 0 0 0 0 1 forward_v I I I I #
coedge $-1 $399 $400 $401 $402 reversed $153 $-1 #
coedge $-1 $245 $155 $403 $404 reversed $97 $-1 #
coedge $-1 $155 $244 $399 $405 reversed $97 $-1 #
coedge $-1 $401 $406 $155 $247 forward $396 $-1 #
edge $-1 $407 18.936845191008583 $408 29.683305556338048 $246 $409 forward 7 unknown #
loop $-1 $-1 $253 $156 #
plane-surface $-1 -28.602399094268584 -29.689665015970206 4.3918005214167692 0 -0.69465837861970381 0.71933979245794832 1 0 0 forward_v I I I I #
loop $-1 $-1 $410 $99 #
coedge $-1 $251 $251 $252 $411 reversed $157 $-1 #
coedge $-1 $252 $252 $251 $411 forward $159 $-1 #
coedge $-1 $253 $253 $160 $254 forward $248 $-1 #
edge $-1 $412 7.4850957578680049e-016 $412 6.2831853071796013 $253 $413 forward 7 unknown #
face $-1 $414 $415 $58 $-1 $416 reversed single #
loop $-1 $-1 $417 $161 #
plane-surface $-1 -13.324727744204864 -97.253020413957543 74.355701549029391 1 0 0 0 0.69465837861970381 -0.71933979245794832 forward_v I I I I #
coedge $-1 $418 $419 $420 $421 reversed $162 $-1 #
coedge $-1 $260 $164 $422 $423 reversed $103 $-1 #
coedge $-1 $164 $259 $418 $424 reversed $103 $-1 #
coedge $-1 $420 $425 $164 $262 forward $426 $-1 #
edge $-1 $427 18.936845191008583 $428 29.683305556338048 $261 $429 forward 7 unknown #
loop $-1 $-1 $268 $165 #
plane-surface $-1 -7.9506116862629597 -29.689665015970206 4.3918005214167692 0 -0.69465837861970381 0.71933979245794832 1 0 0 forward_v I I I I #
loop $-1 $-1 $430 $105 #
coedge $-1 $266 $266 $267 $431 reversed $166 $-1 #
coedge $-1 $267 $267 $266 $431 forward $168 $-1 #
coedge $-1 $268 $268 $169 $269 forward $263 $-1 #
edge $-1 $432 7.4850957578680049e-016 $432 6.2831853071796013 $268 $433 forward 7 unknown #
face $-1 $434 $435 $60 $-1 $436 reversed single #
loop $-1 $-1 $437 $170 #
plane-surface $-1 7.3270596638007603 -97.253020413957543 74.355701549029391 1 0 0 0 0.69465837861970381 -0.71933979245794832 forward_v I I I I #
coedge $-1 $438 $439 $440 $441 reversed $171 $-1 #
coedge $-1 $275 $173 $442 $443 reversed $109 $-1 #
coedge $-1 $173 $274 $438 $444 reversed $109 $-1 #
coedge $-1 $440 $445 $173 $277 forward $446 $-1 #
edge $-1 $447 18.936845191008583 $448 29.683305556338048 $276 $449 forward 7 unknown #
loop $-1 $-1 $283 $174 #
plane-surface $-1 12.701175721742665 -29.689665015970206 4.3918005214167692 0 -0.69465837861970381 0.71933979245794832 1 0 0 forward_v I I I I #
loop $-1 $-1 $450 $111 #
coedge $-1 $281 $281 $282 $451 reversed $175 $-1 #
coedge $-1 $282 $282 $281 $451 forward $177 $-1 #
coedge $-1 $283 $283 $178 $284 forward $278 $-1 #
edge $-1 $452 7.4850957578680049e-016 $452 6.2831853071796013 $283 $453 forward 7 unknown #
face $-1 $454 $455 $62 $-1 $456 reversed single #
loop $-1 $-1 $457 $179 #
plane-surface $-1 27.978847071806385 -97.253020413957543 74.355701549029391 1 0 0 0 0.69465837861970381 -0.71933979245794832 forward_v I I I I #
coedge $-1 $458 $459 $460 $461 reversed $180 $-1 #
coedge $-1 $290 $182 $462 $463 reversed $115 $-1 #
coedge $-1 $182 $289 $458 $464 reversed $115 $-1 #
coedge $-1 $460 $465 $182 $292 forward $466 $-1 #
edge $-1 $467 18.936845191008583 $468 29.683305556338048 $291 $469 forward 7 unknown #
loop $-1 $-1 $298 $183 #
plane-surface $-1 33.352963129748289 -29.689665015970206 4.3918005214167692 0 -0.69465837861970381 0.71933979245794832 1 0 0 forward_v I I I I #
loop $-1 $-1 $470 $117 #
coedge $-1 $296 $296 $297 $471 reversed $184 $-1 #
coedge $-1 $297 $297 $296 $471 forward $186 $-1 #
coedge $-1 $298 $298 $187 $299 forward $293 $-1 #
edge $-1 $472 7.4850957578680049e-016 $472 6.2831853071796013 $298 $473 forward 7 unknown #
face $-1 $474 $475 $64 $-1 $476 reversed single #
loop $-1 $-1 $306 $188 #
plane-surface $-1 0 0 14.769536900733069 0 0 1 1 0 0 forward_v I I I I #
coedge $-1 $477 $478 $479 $480 reversed $189 $-1 #
coedge $-1 $481 $191 $482 $483 reversed $121 $-1 #
coedge $-1 $191 $481 $477 $484 forward $121 $-1 #
coedge $-1 $479 $485 $191 $307 forward $301 $-1 #
edge $-1 $486 -19.675315605076197 $487 -8.9270834891923876 $306 $488 forward 7 unknown #
loop $-1 $-1 $313 $192 #
plane-surface $-1 -28.602399094268584 -13.024249925497827 45.640149644928755 0 0.69465837861970381 0.71933979245794832 1 0 0 forward_v I I I I #
loop $-1 $-1 $489 $123 #
coedge $-1 $311 $311 $312 $490 reversed $193 $-1 #
coedge $-1 $312 $312 $311 $490 forward $195 $-1 #
coedge $-1 $313 $313 $196 $314 forward $308 $-1 #
edge $-1 $491 5.7313758267626616e-016 $491 6.2831853071796013 $313 $492 forward 7 unknown #
face $-1 $493 $494 $66 $-1 $495 forward single #
loop $-1 $-1 $496 $197 #
plane-surface $-1 -2.5764956283210552 54.53910547248951 115.60405067254138 -1 0 0 0 0.69465837861970381 0.71933979245794832 forward_v I I I I #
coedge $-1 $497 $498 $499 $500 reversed $198 $-1 #
coedge $-1 $320 $200 $501 $502 reversed $127 $-1 #
coedge $-1 $200 $319 $497 $503 reversed $127 $-1 #
coedge $-1 $499 $504 $200 $322 forward $494 $-1 #
edge $-1 $505 -2.4201122797254335 $506 8.3263480856040566 $321 $507 forward 7 unknown #
loop $-1 $-1 $328 $201 #
plane-surface $-1 -7.9506116862629597 -13.024249925497827 45.640149644928755 0 0.69465837861970381 0.71933979245794832 1 0 0 forward_v I I I I #
loop $-1 $-1 $508 $129 #
coedge $-1 $326 $326 $327 $509 reversed $202 $-1 #
coedge $-1 $327 $327 $326 $509 forward $204 $-1 #
coedge $-1 $328 $328 $205 $329 forward $323 $-1 #
edge $-1 $510 5.7313758267626616e-016 $510 6.2831853071796013 $328 $511 forward 7 unknown #
face $-1 $512 $513 $68 $-1 $514 forward single #
loop $-1 $-1 $515 $206 #
plane-surface $-1 18.075291779684569 54.53910547248951 115.60405067254138 -1 0 0 0 0.69465837861970381 0.71933979245794832 forward_v I I I I #
coedge $-1 $516 $517 $518 $519 reversed $207 $-1 #
coedge $-1 $335 $209 $520 $521 reversed $133 $-1 #
coedge $-1 $209 $334 $516 $522 reversed $133 $-1 #
coedge $-1 $518 $523 $209 $337 forward $513 $-1 #
edge $-1 $524 -2.4201122797254335 $525 8.3263480856040566 $336 $526 forward 7 unknown #
loop $-1 $-1 $343 $210 #
plane-surface $-1 12.701175721742665 -13.024249925497827 45.640149644928755 0 0.69465837861970381 0.71933979245794832 1 0 0 forward_v I I I I #
loop $-1 $-1 $527 $135 #
coedge $-1 $341 $341 $342 $528 reversed $211 $-1 #
coedge $-1 $342 $342 $341 $528 forward $213 $-1 #
coedge $-1 $343 $343 $214 $344 forward $338 $-1 #
edge $-1 $529 5.7313758267626616e-016 $529 6.2831853071796013 $343 $530 forward 7 unknown #
face $-1 $531 $532 $70 $-1 $533 forward single #
loop $-1 $-1 $534 $215 #
plane-surface $-1 38.727079187690194 54.53910547248951 115.60405067254138 -1 0 0 0 0.69465837861970381 0.71933979245794832 forward_v I I I I #
coedge $-1 $535 $536 $537 $538 reversed $216 $-1 #
coedge $-1 $350 $218 $539 $540 reversed $139 $-1 #
coedge $-1 $218 $349 $535 $541 reversed $139 $-1 #
coedge $-1 $537 $542 $218 $352 forward $532 $-1 #
edge $-1 $543 -2.4201122797254335 $544 8.3263480856040566 $351 $545 forward 7 unknown #
loop $-1 $-1 $358 $219 #
plane-surface $-1 33.352963129748289 -13.024249925497827 45.640149644928755 0 0.69465837861970381 0.71933979245794832 1 0 0 forward_v I I I I #
loop $-1 $-1 $546 $141 #
coedge $-1 $356 $356 $357 $547 reversed $220 $-1 #
coedge $-1 $357 $357 $356 $547 forward $222 $-1 #
coedge $-1 $358 $358 $223 $359 forward $353 $-1 #
edge $-1 $548 5.7313758267626616e-016 $548 6.2831853071796013 $358 $549 forward 7 unknown #
face $-1 $550 $551 $54 $-1 $552 reversed single #
loop $-1 $-1 $553 $224 #
plane-surface $-1 -48.630634479812002 0 0 1 0 0 0 0 -1 forward_v I I I I #
coedge $-1 $554 $371 $555 $556 forward $225 $-1 #
coedge $-1 $557 $227 $554 $558 forward $145 $-1 #
coedge $-1 $227 $557 $559 $560 forward $145 $-1 #
coedge $-1 $374 $373 $227 $367 reversed $375 $-1 #
edge $-1 $561 -29.689665015970188 $562 29.689665015970188 $366 $563 forward 7 unknown #
coedge $-1 $229 $228 $564 $565 forward $91 $-1 #
coedge $-1 $566 $567 $228 $370 reversed $551 $-1 #
edge $-1 $377 -48.630634479812002 $568 48.630634479812002 $369 $569 forward 7 unknown #
coedge $-1 $363 $570 $229 $372 reversed $225 $-1 #
edge $-1 $571 -48.630634479812002 $376 48.630634479812002 $371 $572 forward 7 unknown #
coedge $-1 $366 $230 $570 $573 forward $375 $-1 #
coedge $-1 $230 $366 $566 $574 reversed $375 $-1 #
loop $-1 $-1 $373 $550 #
vertex $-1 $231 $575 #
vertex $-1 $231 $576 #
straight-curve $-1 48.630634479812002 0 14.769536900733069 0 1 0 I I #
face $-1 $577 $578 $55 $-1 $579 forward single #
loop $-1 $-1 $580 $232 #
plane-surface $-1 -48.630634479812002 0 0 1 0 0 0 0 -1 forward_v I I I I #
coedge $-1 $390 $581 $384 $582 forward $233 $-1 #
coedge $-1 $238 $235 $583 $584 reversed $149 $-1 #
coedge $-1 $235 $238 $382 $582 reversed $149 $-1 #
coedge $-1 $585 $586 $235 $386 forward $578 $-1 #
edge $-1 $587 -29.689665015970188 $588 29.689665015970188 $385 $589 forward 7 unknown #
coedge $-1 $237 $236 $580 $590 reversed $94 $-1 #
coedge $-1 $583 $591 $236 $389 forward $592 $-1 #
edge $-1 $593 -27.978847071806378 $393 -13.324727744204871 $388 $594 forward 7 unknown #
coedge $-1 $595 $382 $237 $391 forward $233 $-1 #
edge $-1 $392 13.324727744204871 $596 27.978847071806378 $390 $597 forward 7 unknown #
vertex $-1 $391 $598 #
vertex $-1 $389 $599 #
straight-curve $-1 -33.976515152210496 0 10.063676762452683 0 -1 0 I I #
face $-1 $-1 $600 $56 $-1 $601 reversed single #
loop $-1 $-1 $401 $240 #
plane-surface $-1 0 0 14.769536900733069 0 0 1 1 0 0 forward_v I I I I #
coedge $-1 $602 $603 $400 $604 reversed $241 $-1 #
coedge $-1 $605 $243 $245 $405 forward $153 $-1 #
coedge $-1 $243 $605 $398 $604 forward $153 $-1 #
coedge $-1 $606 $246 $243 $402 forward $396 $-1 #
edge $-1 $408 8.9270834891923876 $607 19.675315605076204 $401 $608 forward 7 unknown #
coedge $-1 $609 $610 $244 $404 forward $600 $-1 #
edge $-1 $611 -32.786050253097912 $407 -22.408313873781626 $403 $612 forward 7 unknown #
edge $-1 $408 -14.939338095852253 $611 -2.4500672639978428e-014 $245 $613 forward 7 unknown #
coedge $-1 $246 $606 $609 $614 forward $396 $-1 #
vertex $-1 $404 $615 #
vertex $-1 $247 $616 #
straight-curve $-1 -23.22828303632668 -48.626510206978772 14.769536900733069 0 1 0 I I #
coedge $-1 $410 $410 $-1 $617 reversed $250 $-1 #
edge $-1 $618 0 $618 6.2831853071796004 $251 $619 forward 7 unknown #
vertex $-1 $254 $620 #
ellipse-curve $-1 -28.602399094268584 -24.316434833305458 9.580668711074928 0 -0.69465837861970381 0.71933979245794832 2 0 0 1 I I #
face $-1 $-1 $426 $58 $-1 $621 forward single #
loop $-1 $-1 $622 $255 #
plane-surface $-1 0 -29.689665015970188 0 0 1 0 0 0 1 forward_v I I I I #
coedge $-1 $623 $624 $625 $626 reversed $256 $-1 #
coedge $-1 $627 $258 $260 $424 forward $162 $-1 #
coedge $-1 $258 $627 $623 $628 forward $162 $-1 #
coedge $-1 $625 $261 $258 $421 forward $426 $-1 #
edge $-1 $428 -1.3988102148104247 $629 9.3494219010733843 $420 $630 forward 7 unknown #
coedge $-1 $631 $632 $259 $423 forward $415 $-1 #
edge $-1 $633 -32.786050253097912 $427 -22.408313873781626 $422 $634 forward 7 unknown #
edge $-1 $428 -14.939338095852253 $633 -2.4500672639978428e-014 $260 $635 forward 7 unknown #
coedge $-1 $261 $625 $631 $636 forward $426 $-1 #
loop $-1 $-1 $625 $414 #
vertex $-1 $423 $637 #
vertex $-1 $262 $638 #
straight-curve $-1 -2.5764956283210552 -48.626510206978772 14.769536900733069 0 1 0 I I #
coedge $-1 $430 $430 $-1 $639 reversed $265 $-1 #
edge $-1 $640 0 $640 6.2831853071796004 $266 $641 forward 7 unknown #
vertex $-1 $269 $642 #
ellipse-curve $-1 -7.9506116862629597 -24.316434833305458 9.580668711074928 0 -0.69465837861970381 0.71933979245794832 2 0 0 1 I I #
face $-1 $-1 $446 $60 $-1 $643 forward single #
loop $-1 $-1 $644 $270 #
plane-surface $-1 0 -29.689665015970188 0 0 1 0 0 0 1 forward_v I I I I #
coedge $-1 $645 $646 $647 $648 reversed $271 $-1 #
coedge $-1 $649 $273 $275 $444 forward $171 $-1 #
coedge $-1 $273 $649 $645 $650 forward $171 $-1 #
coedge $-1 $647 $276 $273 $441 forward $446 $-1 #
edge $-1 $448 -11.724703918813237 $651 -0.97647180292942792 $440 $652 forward 7 unknown #
coedge $-1 $653 $654 $274 $443 forward $435 $-1 #
edge $-1 $655 -32.786050253097912 $447 -22.408313873781626 $442 $656 forward 7 unknown #
edge $-1 $448 -14.939338095852253 $655 -2.4500672639978428e-014 $275 $657 forward 7 unknown #
coedge $-1 $276 $647 $653 $658 forward $446 $-1 #
loop $-1 $-1 $647 $434 #
vertex $-1 $443 $659 #
vertex $-1 $277 $660 #
straight-curve $-1 18.075291779684569 -48.626510206978772 14.769536900733069 0 1 0 I I #
coedge $-1 $450 $450 $-1 $661 reversed $280 $-1 #
edge $-1 $662 0 $662 6.2831853071796004 $281 $663 forward 7 unknown #
vertex $-1 $284 $664 #
ellipse-curve $-1 12.701175721742665 -24.316434833305458 9.580668711074928 0 -0.69465837861970381 0.71933979245794832 2 0 0 1 I I #
face $-1 $-1 $466 $62 $-1 $665 forward single #
loop $-1 $-1 $666 $285 #
plane-surface $-1 0 -29.689665015970188 0 0 1 0 0 0 1 forward_v I I I I #
coedge $-1 $667 $668 $669 $670 reversed $286 $-1 #
coedge $-1 $671 $288 $290 $464 forward $180 $-1 #
coedge $-1 $288 $671 $667 $672 forward $180 $-1 #
coedge $-1 $669 $291 $288 $461 forward $466 $-1 #
edge $-1 $468 -22.050597622816049 $673 -11.30236550693224 $460 $674 forward 7 unknown #
coedge $-1 $675 $676 $289 $463 forward $455 $-1 #
edge $-1 $677 -32.786050253097912 $467 -22.408313873781626 $462 $678 forward 7 unknown #
edge $-1 $468 -14.939338095852253 $677 -2.4500672639978428e-014 $290 $679 forward 7 unknown #
coedge $-1 $291 $669 $675 $680 forward $466 $-1 #
loop $-1 $-1 $669 $454 #
vertex $-1 $463 $681 #
vertex $-1 $292 $682 #
straight-curve $-1 38.727079187690194 -48.626510206978772 14.769536900733069 0 1 0 I I #
coedge $-1 $470 $470 $-1 $683 reversed $295 $-1 #
edge $-1 $684 0 $684 6.2831853071796004 $296 $685 forward 7 unknown #
vertex $-1 $299 $686 #
ellipse-curve $-1 33.352963129748289 -24.316434833305458 9.580668711074928 0 -0.69465837861970381 0.71933979245794832 2 0 0 1 I I #
face $-1 $-1 $687 $64 $-1 $688 forward single #
loop $-1 $-1 $689 $300 #
plane-surface $-1 0 29.689665015970188 0 0 -1 0 0 0 -1 forward_v I I I I #
coedge $-1 $478 $303 $305 $484 reversed $189 $-1 #
coedge $-1 $303 $477 $689 $690 reversed $189 $-1 #
coedge $-1 $691 $306 $303 $480 forward $301 $-1 #
edge $-1 $487 -8.3263480856040566 $692 2.4201122797254335 $479 $693 forward 7 unknown #
coedge $-1 $305 $304 $694 $695 reversed $121 $-1 #
coedge $-1 $696 $697 $304 $483 forward $687 $-1 #
edge $-1 $698 -43.155393221419246 $486 -28.216055125566978 $482 $699 forward 7 unknown #
edge $-1 $700 -59.379330031940391 $487 -44.43999193608812 $477 $701 forward 7 unknown #
coedge $-1 $306 $691 $696 $702 forward $301 $-1 #
vertex $-1 $483 $703 #
vertex $-1 $307 $704 #
straight-curve $-1 -14.301199547134292 18.943204650640698 14.769536900733069 1 0 0 I I #
coedge $-1 $489 $489 $-1 $705 reversed $310 $-1 #
edge $-1 $706 0 $706 6.2831853071796004 $311 $707 forward 7 unknown #
vertex $-1 $314 $708 #
ellipse-curve $-1 -28.602399094268584 24.31643483330544 9.5806687110749245 0 0.69465837861970381 0.71933979245794832 2 0 0 1 I I #
face $-1 $-1 $709 $66 $-1 $710 reversed single #
loop $-1 $-1 $321 $315 #
plane-surface $-1 0 0 14.769536900733069 0 0 1 1 0 0 forward_v I I I I #
coedge $-1 $711 $712 $713 $714 reversed $316 $-1 #
coedge $-1 $715 $318 $320 $503 forward $198 $-1 #
coedge $-1 $318 $715 $711 $716 forward $198 $-1 #
coedge $-1 $713 $321 $318 $500 forward $494 $-1 #
edge $-1 $506 -9.3494219010733843 $717 1.3988102148104247 $499 $718 forward 7 unknown #
coedge $-1 $719 $720 $319 $502 forward $709 $-1 #
edge $-1 $721 -53.410224814853933 $505 -43.032488435537616 $501 $722 forward 7 unknown #
edge $-1 $506 44.43999193608812 $721 59.379330031940391 $320 $723 forward 7 unknown #
coedge $-1 $321 $713 $719 $724 forward $494 $-1 #
vertex $-1 $322 $725 #
vertex $-1 $322 $726 #
straight-curve $-1 -13.324727744204864 27.269552736244755 14.769536900733073 0 -1 0 I I #
coedge $-1 $508 $508 $-1 $727 reversed $325 $-1 #
edge $-1 $728 0 $728 6.2831853071796004 $326 $729 forward 7 unknown #
vertex $-1 $329 $730 #
ellipse-curve $-1 -7.9506116862629597 24.31643483330544 9.5806687110749245 0 0.69465837861970381 0.71933979245794832 2 0 0 1 I I #
face $-1 $-1 $731 $68 $-1 $732 reversed single #
loop $-1 $-1 $336 $330 #
plane-surface $-1 0 0 14.769536900733069 0 0 1 1 0 0 forward_v I I I I #
coedge $-1 $733 $734 $735 $736 reversed $331 $-1 #
coedge $-1 $737 $333 $335 $522 forward $207 $-1 #
coedge $-1 $333 $737 $733 $738 forward $207 $-1 #
coedge $-1 $735 $336 $333 $519 forward $513 $-1 #
edge $-1 $525 0.97647180292942792 $739 11.724703918813237 $518 $740 forward 7 unknown #
coedge $-1 $741 $742 $334 $521 forward $731 $-1 #
edge $-1 $743 -53.410224814853933 $524 -43.032488435537616 $520 $744 forward 7 unknown #
edge $-1 $525 44.43999193608812 $743 59.379330031940391 $335 $745 forward 7 unknown #
coedge $-1 $336 $735 $741 $746 forward $513 $-1 #
vertex $-1 $337 $747 #
vertex $-1 $337 $748 #
straight-curve $-1 7.3270596638007603 27.269552736244755 14.769536900733073 0 -1 0 I I #
coedge $-1 $527 $527 $-1 $749 reversed $340 $-1 #
edge $-1 $750 0 $750 6.2831853071796004 $341 $751 forward 7 unknown #
vertex $-1 $344 $752 #
ellipse-curve $-1 12.701175721742665 24.31643483330544 9.5806687110749245 0 0.69465837861970381 0.71933979245794832 2 0 0 1 I I #
face $-1 $-1 $753 $70 $-1 $754 reversed single #
loop $-1 $-1 $351 $345 #
plane-surface $-1 0 0 14.769536900733069 0 0 1 1 0 0 forward_v I I I I #
coedge $-1 $755 $756 $757 $758 reversed $346 $-1 #
coedge $-1 $759 $348 $350 $541 forward $216 $-1 #
coedge $-1 $348 $759 $755 $760 forward $216 $-1 #
coedge $-1 $757 $351 $348 $538 forward $532 $-1 #
edge $-1 $544 11.30236550693224 $761 22.050597622816049 $537 $762 forward 7 unknown #
coedge $-1 $763 $764 $349 $540 forward $753 $-1 #
edge $-1 $765 -53.410224814853933 $543 -43.032488435537616 $539 $766 forward 7 unknown #
edge $-1 $544 44.43999193608812 $765 59.379330031940391 $350 $767 forward 7 unknown #
coedge $-1 $351 $757 $763 $768 forward $532 $-1 #
vertex $-1 $352 $769 #
vertex $-1 $352 $770 #
straight-curve $-1 27.978847071806385 27.269552736244755 14.769536900733073 0 -1 0 I I #
coedge $-1 $546 $546 $-1 $771 reversed $355 $-1 #
edge $-1 $772 0 $772 6.2831853071796004 $356 $773 forward 7 unknown #
vertex $-1 $359 $774 #
ellipse-curve $-1 33.352963129748289 24.31643483330544 9.5806687110749245 0 0.69465837861970381 0.71933979245794832 2 0 0 1 I I #
face $-1 $-1 $375 $54 $-1 $775 reversed single #
loop $-1 $-1 $566 $360 #
plane-surface $-1 0 29.689665015970188 0 0 -1 0 0 0 -1 forward_v I I I I #
coedge $-1 $776 $564 $567 $777 forward $361 $-1 #
coedge $-1 $570 $363 $364 $558 reversed $225 $-1 #
coedge $-1 $564 $776 $363 $556 reversed $361 $-1 #
edge $-1 $571 -14.769536900733069 $778 14.769536900733069 $555 $779 forward 7 unknown #
coedge $-1 $365 $364 $776 $780 forward $145 $-1 #
edge $-1 $562 -48.630634479812002 $778 48.630634479812002 $554 $781 forward 7 unknown #
coedge $-1 $567 $566 $365 $560 reversed $551 $-1 #
edge $-1 $782 -48.630634479812002 $561 48.630634479812002 $559 $783 forward 7 unknown #
vertex $-1 $367 $784 #
vertex $-1 $573 $785 #
straight-curve $-1 48.630634479812002 0 -14.769536900733069 0 -1 0 I I #
coedge $-1 $553 $555 $368 $565 reversed $361 $-1 #
edge $-1 $568 -29.689665015970188 $571 29.689665015970188 $564 $786 forward 7 unknown #
coedge $-1 $559 $369 $374 $574 forward $551 $-1 #
coedge $-1 $369 $559 $553 $777 reversed $551 $-1 #
vertex $-1 $370 $787 #
straight-curve $-1 0 29.689665015970188 14.769536900733069 -1 0 0 I I #
coedge $-1 $371 $554 $373 $573 reversed $225 $-1 #
vertex $-1 $565 $788 #
straight-curve $-1 0 -29.689665015970188 14.769536900733069 1 0 0 I I #
edge $-1 $376 -14.769536900733069 $562 14.769536900733069 $373 $789 forward 7 unknown #
edge $-1 $377 -14.769536900733069 $561 14.769536900733069 $374 $790 forward 7 unknown #
point $-1 48.630634479812002 -29.689665015970188 14.769536900733069 #
point $-1 48.630634479812002 29.689665015970188 14.769536900733069 #
face $-1 $-1 $592 $55 $-1 $791 reversed single #
loop $-1 $-1 $385 $379 #
plane-surface $-1 0 0 14.769536900733069 0 0 1 1 0 0 forward_v I I I I #
coedge $-1 $792 $793 $387 $590 forward $380 $-1 #
coedge $-1 $382 $595 $585 $794 reversed $233 $-1 #
edge $-1 $588 -8.5612334849366309 $392 -3.8553733466562452 $382 $795 forward 7 unknown #
coedge $-1 $796 $388 $383 $584 forward $592 $-1 #
edge $-1 $393 3.8553733466562452 $587 8.5612334849366309 $583 $797 forward 7 unknown #
coedge $-1 $798 $385 $581 $794 forward $578 $-1 #
coedge $-1 $385 $798 $796 $799 forward $578 $-1 #
vertex $-1 $584 $800 #
vertex $-1 $794 $801 #
straight-curve $-1 -33.976515152210496 0 14.769536900733069 0 1 0 I I #
edge $-1 $596 -29.689665015970188 $593 29.689665015970188 $580 $802 forward 7 unknown #
coedge $-1 $388 $796 $792 $803 forward $592 $-1 #
loop $-1 $-1 $583 $577 #
vertex $-1 $590 $804 #
straight-curve $-1 -20.651787408005625 -29.689665015970188 10.063676762452683 1 0 0 I I #
coedge $-1 $581 $390 $793 $805 reversed $233 $-1 #
vertex $-1 $590 $806 #
straight-curve $-1 -20.651787408005625 29.689665015970188 10.063676762452683 -1 0 0 I I #
point $-1 -33.976515152210496 29.689665015970188 10.063676762452683 #
point $-1 -33.976515152210496 -29.689665015970188 10.063676762452683 #
loop $-1 $-1 $403 $395 #
plane-surface $-1 0 -29.689665015970188 0 0 1 0 0 0 1 forward_v I I I I #
coedge $-1 $603 $398 $807 $808 reversed $241 $-1 #
coedge $-1 $398 $602 $606 $809 reversed $241 $-1 #
edge $-1 $810 2.4500672639978428e-014 $607 14.93933809585225 $398 $811 forward 7 unknown #
coedge $-1 $400 $399 $610 $812 reversed $153 $-1 #
coedge $-1 $406 $401 $603 $809 forward $396 $-1 #
vertex $-1 $809 $813 #
straight-curve $-1 -14.301199547134292 -18.943204650640723 14.769536900733069 -1 0 0 I I #
coedge $-1 $807 $403 $406 $614 reversed $600 $-1 #
coedge $-1 $403 $807 $605 $812 forward $600 $-1 #
vertex $-1 $404 $814 #
straight-curve $-1 -23.22828303632668 -29.689665015970192 37.177850774514695 0 0 1 I I #
straight-curve $-1 -23.22828303632668 -29.689665015970206 4.3918005214167692 0 -0.71933979245794832 -0.69465837861970381 I I #
edge $-1 $815 -33.976515152210496 $407 -23.22828303632668 $609 $816 forward 7 unknown #
point $-1 -23.22828303632668 -29.689665015970188 14.769536900733069 #
point $-1 -23.22828303632668 -18.943204650640723 14.769536900733069 #
edge $-1 $817 1 $817 0 $410 $-1 forward 7 unknown #
vertex $-1 $411 $818 #
ellipse-curve $-1 -28.602399094268584 -19.834640674838784 4.9396351051798106 0 -0.69465837861970381 0.71933979245794832 2 0 0 1 I I #
point $-1 -26.602399094268584 -24.316434833305447 9.5806687110749191 #
plane-surface $-1 0 0 14.769536900733069 0 0 1 1 0 0 forward_v I I I I #
coedge $-1 $632 $631 $624 $819 forward $415 $-1 #
coedge $-1 $624 $417 $419 $628 reversed $256 $-1 #
coedge $-1 $417 $623 $622 $819 reversed $256 $-1 #
coedge $-1 $425 $420 $417 $626 forward $426 $-1 #
edge $-1 $629 -29.683305556338048 $820 -18.936845191008583 $625 $821 forward 7 unknown #
coedge $-1 $419 $418 $632 $822 reversed $162 $-1 #
edge $-1 $823 2.4500672639978428e-014 $629 14.939338095852253 $623 $824 forward 7 unknown #
vertex $-1 $421 $825 #
straight-curve $-1 -3.9753058431314798 -18.943204650640723 14.769536900733069 -1 0 0 I I #
coedge $-1 $622 $422 $425 $636 reversed $415 $-1 #
coedge $-1 $422 $622 $627 $822 forward $415 $-1 #
vertex $-1 $423 $826 #
straight-curve $-1 -2.5764956283210552 -29.689665015970192 37.177850774514695 0 0 1 I I #
straight-curve $-1 -2.5764956283210552 -29.689665015970206 4.3918005214167692 0 -0.71933979245794832 -0.69465837861970381 I I #
edge $-1 $820 -13.324727744204864 $427 -2.5764956283210552 $631 $827 forward 7 unknown #
point $-1 -2.5764956283210552 -29.689665015970188 14.769536900733069 #
point $-1 -2.5764956283210552 -18.943204650640723 14.769536900733069 #
edge $-1 $828 1 $828 0 $430 $-1 forward 7 unknown #
vertex $-1 $431 $829 #
ellipse-curve $-1 -7.9506116862629597 -19.834640674838784 4.9396351051798106 0 -0.69465837861970381 0.71933979245794832 2 0 0 1 I I #
point $-1 -5.9506116862629597 -24.316434833305447 9.5806687110749191 #
plane-surface $-1 0 0 14.769536900733069 0 0 1 1 0 0 forward_v I I I I #
coedge $-1 $654 $653 $646 $830 forward $435 $-1 #
coedge $-1 $646 $437 $439 $650 reversed $271 $-1 #
coedge $-1 $437 $645 $644 $830 reversed $271 $-1 #
coedge $-1 $445 $440 $437 $648 forward $446 $-1 #
edge $-1 $651 -29.683305556338048 $831 -18.936845191008583 $647 $832 forward 7 unknown #
coedge $-1 $439 $438 $654 $833 reversed $171 $-1 #
edge $-1 $834 2.4500672639978428e-014 $651 14.939338095852253 $645 $835 forward 7 unknown #
vertex $-1 $441 $836 #
straight-curve $-1 6.3505878608713324 -18.943204650640723 14.769536900733069 -1 0 0 I I #
coedge $-1 $644 $442 $445 $658 reversed $435 $-1 #
coedge $-1 $442 $644 $649 $833 forward $435 $-1 #
vertex $-1 $443 $837 #
straight-curve $-1 18.075291779684569 -29.689665015970192 37.177850774514695 0 0 1 I I #
straight-curve $-1 18.075291779684569 -29.689665015970206 4.3918005214167692 0 -0.71933979245794832 -0.69465837861970381 I I #
edge $-1 $831 7.3270596638007603 $447 18.075291779684569 $653 $838 forward 7 unknown #
point $-1 18.075291779684569 -29.689665015970188 14.769536900733069 #
point $-1 18.075291779684569 -18.943204650640723 14.769536900733069 #
edge $-1 $839 1 $839 0 $450 $-1 forward 7 unknown #
vertex $-1 $451 $840 #
ellipse-curve $-1 12.701175721742665 -19.834640674838784 4.9396351051798106 0 -0.69465837861970381 0.71933979245794832 2 0 0 1 I I #
point $-1 14.701175721742665 -24.316434833305447 9.5806687110749191 #
plane-surface $-1 0 0 14.769536900733069 0 0 1 1 0 0 forward_v I I I I #
coedge $-1 $676 $675 $668 $841 forward $455 $-1 #
coedge $-1 $668 $457 $459 $672 reversed $286 $-1 #
coedge $-1 $457 $667 $666 $841 reversed $286 $-1 #
coedge $-1 $465 $460 $457 $670 forward $466 $-1 #
edge $-1 $673 -29.683305556338048 $842 -18.936845191008583 $669 $843 forward 7 unknown #
coedge $-1 $459 $458 $676 $844 reversed $180 $-1 #
edge $-1 $845 2.4500672639978428e-014 $673 14.939338095852253 $667 $846 forward 7 unknown #
vertex $-1 $461 $847 #
straight-curve $-1 16.676481564874145 -18.943204650640723 14.769536900733069 -1 0 0 I I #
coedge $-1 $666 $462 $465 $680 reversed $455 $-1 #
coedge $-1 $462 $666 $671 $844 forward $455 $-1 #
vertex $-1 $463 $848 #
straight-curve $-1 38.727079187690194 -29.689665015970192 37.177850774514695 0 0 1 I I #
straight-curve $-1 38.727079187690194 -29.689665015970206 4.3918005214167692 0 -0.71933979245794832 -0.69465837861970381 I I #
edge $-1 $842 27.978847071806385 $467 38.727079187690194 $675 $849 forward 7 unknown #
point $-1 38.727079187690194 -29.689665015970188 14.769536900733069 #
point $-1 38.727079187690194 -18.943204650640723 14.769536900733069 #
edge $-1 $850 1 $850 0 $470 $-1 forward 7 unknown #
vertex $-1 $471 $851 #
ellipse-curve $-1 33.352963129748289 -19.834640674838784 4.9396351051798106 0 -0.69465837861970381 0.71933979245794832 2 0 0 1 I I #
point $-1 35.352963129748289 -24.316434833305447 9.5806687110749191 #
loop $-1 $-1 $482 $474 #
plane-surface $-1 -33.976515152210496 0 12.416606831592876 -1 0 0 0 0 1 forward_v I I I I #
coedge $-1 $694 $852 $478 $690 forward $475 $-1 #
edge $-1 $692 43.032488435537616 $700 53.410224814853933 $689 $853 forward 7 unknown #
coedge $-1 $485 $479 $852 $854 forward $301 $-1 #
vertex $-1 $854 $855 #
straight-curve $-1 -23.22828303632668 27.269552736244755 14.769536900733073 0 1 0 I I #
coedge $-1 $856 $689 $481 $695 forward $475 $-1 #
edge $-1 $700 8.9270834891923876 $698 19.675315605076197 $694 $857 forward 7 unknown #
coedge $-1 $697 $482 $485 $702 reversed $687 $-1 #
coedge $-1 $482 $696 $856 $858 reversed $687 $-1 #
vertex $-1 $858 $859 #
straight-curve $-1 -33.976515152210496 -1.3537265873666842 34.37005600530361 0 -0.71933979245794832 0.69465837861970381 I I #
vertex $-1 $695 $860 #
straight-curve $-1 -23.22828303632668 -13.024249925497827 45.640149644928755 0 -0.71933979245794832 0.69465837861970381 I I #
edge $-1 $861 -29.689665015970188 $486 -18.943204650640698 $485 $862 forward 7 unknown #
point $-1 -33.976515152210489 18.943204650640698 14.769536900733069 #
point $-1 -23.22828303632668 18.943204650640698 14.769536900733069 #
edge $-1 $863 1 $863 0 $489 $-1 forward 7 unknown #
vertex $-1 $490 $864 #
ellipse-curve $-1 -28.602399094268584 19.834640674838774 4.9396351051798106 0 0.69465837861970381 0.71933979245794832 2 0 0 1 I I #
point $-1 -26.602399094268584 24.316434833305436 9.5806687110749191 #
loop $-1 $-1 $501 $493 #
plane-surface $-1 0 29.689665015970188 0 0 -1 0 0 0 -1 forward_v I I I I #
coedge $-1 $712 $496 $498 $716 reversed $316 $-1 #
coedge $-1 $496 $711 $865 $866 reversed $316 $-1 #
coedge $-1 $504 $499 $496 $714 forward $494 $-1 #
edge $-1 $717 -8.3263480856040566 $867 2.4201122797254335 $713 $868 forward 7 unknown #
coedge $-1 $498 $497 $720 $869 reversed $198 $-1 #
edge $-1 $870 -59.379330031940391 $717 -44.43999193608812 $711 $871 forward 7 unknown #
vertex $-1 $500 $872 #
straight-curve $-1 -3.9753058431314798 18.943204650640698 14.769536900733069 1 0 0 I I #
coedge $-1 $865 $501 $504 $724 reversed $709 $-1 #
coedge $-1 $501 $865 $715 $869 forward $709 $-1 #
vertex $-1 $502 $873 #
straight-curve $-1 -13.324727744204864 29.689665015970188 57.802025336270688 0 0 1 I I #
straight-curve $-1 -13.324727744204864 -13.024249925497827 45.640149644928755 0 0.71933979245794832 -0.69465837861970381 I I #
edge $-1 $867 2.5764956283210552 $505 13.324727744204864 $719 $874 forward 7 unknown #
point $-1 -13.324727744204864 29.689665015970188 14.769536900733069 #
point $-1 -13.324727744204864 18.943204650640698 14.769536900733069 #
edge $-1 $875 1 $875 0 $508 $-1 forward 7 unknown #
vertex $-1 $509 $876 #
ellipse-curve $-1 -7.9506116862629597 19.834640674838774 4.9396351051798106 0 0.69465837861970381 0.71933979245794832 2 0 0 1 I I #
point $-1 -5.9506116862629597 24.316434833305436 9.5806687110749191 #
loop $-1 $-1 $520 $512 #
plane-surface $-1 0 29.689665015970188 0 0 -1 0 0 0 -1 forward_v I I I I #
coedge $-1 $734 $515 $517 $738 reversed $331 $-1 #
coedge $-1 $515 $733 $877 $878 reversed $331 $-1 #
coedge $-1 $523 $518 $515 $736 forward $513 $-1 #
edge $-1 $739 -8.3263480856040566 $879 2.4201122797254335 $735 $880 forward 7 unknown #
coedge $-1 $517 $516 $742 $881 reversed $207 $-1 #
edge $-1 $882 -59.379330031940391 $739 -44.43999193608812 $733 $883 forward 7 unknown #
vertex $-1 $519 $884 #
straight-curve $-1 6.3505878608713324 18.943204650640698 14.769536900733069 1 0 0 I I #
coedge $-1 $877 $520 $523 $746 reversed $731 $-1 #
coedge $-1 $520 $877 $737 $881 forward $731 $-1 #
vertex $-1 $521 $885 #
straight-curve $-1 7.3270596638007603 29.689665015970188 57.802025336270688 0 0 1 I I #
straight-curve $-1 7.3270596638007603 -13.024249925497827 45.640149644928755 0 0.71933979245794832 -0.69465837861970381 I I #
edge $-1 $879 -18.075291779684569 $524 -7.3270596638007603 $741 $886 forward 7 unknown #
point $-1 7.3270596638007603 29.689665015970188 14.769536900733069 #
point $-1 7.3270596638007603 18.943204650640698 14.769536900733069 #
edge $-1 $887 1 $887 0 $527 $-1 forward 7 unknown #
vertex $-1 $528 $888 #
ellipse-curve $-1 12.701175721742665 19.834640674838774 4.9396351051798106 0 0.69465837861970381 0.71933979245794832 2 0 0 1 I I #
point $-1 14.701175721742665 24.316434833305436 9.5806687110749191 #
loop $-1 $-1 $539 $531 #
plane-surface $-1 0 29.689665015970188 0 0 -1 0 0 0 -1 forward_v I I I I #
coedge $-1 $756 $534 $536 $760 reversed $346 $-1 #
coedge $-1 $534 $755 $889 $890 reversed $346 $-1 #
coedge $-1 $542 $537 $534 $758 forward $532 $-1 #
edge $-1 $761 -8.3263480856040566 $891 2.4201122797254335 $757 $892 forward 7 unknown #
coedge $-1 $536 $535 $764 $893 reversed $216 $-1 #
edge $-1 $894 -59.379330031940391 $761 -44.43999193608812 $755 $895 forward 7 unknown #
vertex $-1 $538 $896 #
straight-curve $-1 16.676481564874145 18.943204650640698 14.769536900733069 1 0 0 I I #
coedge $-1 $889 $539 $542 $768 reversed $753 $-1 #
coedge $-1 $539 $889 $759 $893 forward $753 $-1 #
vertex $-1 $540 $897 #
straight-curve $-1 27.978847071806385 29.689665015970188 57.802025336270688 0 0 1 I I #
straight-curve $-1 27.978847071806385 -13.024249925497827 45.640149644928755 0 0.71933979245794832 -0.69465837861970381 I I #
edge $-1 $891 -38.727079187690194 $543 -27.978847071806385 $763 $898 forward 7 unknown #
point $-1 27.978847071806385 29.689665015970188 14.769536900733069 #
point $-1 27.978847071806385 18.943204650640698 14.769536900733069 #
edge $-1 $899 1 $899 0 $546 $-1 forward 7 unknown #
vertex $-1 $547 $900 #
ellipse-curve $-1 33.352963129748289 19.834640674838774 4.9396351051798106 0 0.69465837861970381 0.71933979245794832 2 0 0 1 I I #
point $-1 35.352963129748289 24.316434833305436 9.5806687110749191 #
plane-surface $-1 48.630634479812002 0 0 -1 0 0 0 0 1 forward_v I I I I #
coedge $-1 $555 $553 $557 $780 reversed $361 $-1 #
edge $-1 $568 -14.769536900733069 $782 14.769536900733069 $567 $901 forward 7 unknown #
vertex $-1 $780 $902 #
straight-curve $-1 -48.630634479812002 -29.689665015970188 0 0 0 -1 I I #
edge $-1 $778 -29.689665015970188 $782 29.689665015970188 $776 $903 forward 7 unknown #
straight-curve $-1 0 -29.689665015970188 -14.769536900733069 -1 0 0 I I #
vertex $-1 $560 $904 #
straight-curve $-1 0 29.689665015970188 -14.769536900733069 1 0 0 I I #
point $-1 48.630634479812002 29.689665015970188 -14.769536900733069 #
point $-1 48.630634479812002 -29.689665015970188 -14.769536900733069 #
straight-curve $-1 -48.630634479812002 0 14.769536900733069 0 -1 0 I I #
point $-1 -48.630634479812002 29.689665015970188 14.769536900733069 #
point $-1 -48.630634479812002 -29.689665015970188 14.769536900733069 #
straight-curve $-1 48.630634479812002 -29.689665015970188 0 0 0 -1 I I #
straight-curve $-1 48.630634479812002 29.689665015970188 0 0 0 -1 I I #
plane-surface $-1 0 -29.689665015970188 0 0 1 0 0 0 1 forward_v I I I I #
coedge $-1 $905 $580 $591 $803 reversed $380 $-1 #
coedge $-1 $580 $905 $595 $805 forward $380 $-1 #
edge $-1 $588 33.976515152210496 $906 48.630634479812002 $581 $907 forward 7 unknown #
straight-curve $-1 -33.976515152210496 29.689665015970188 6.2083034157964381 0 0 -1 I I #
coedge $-1 $591 $583 $586 $799 reversed $592 $-1 #
straight-curve $-1 -33.976515152210496 -29.689665015970188 6.2083034157964381 0 0 1 I I #
coedge $-1 $586 $585 $905 $908 forward $578 $-1 #
edge $-1 $909 -48.630634479812002 $587 -33.976515152210496 $796 $910 forward 7 unknown #
point $-1 -33.976515152210496 -29.689665015970188 14.769536900733069 #
point $-1 -33.976515152210496 29.689665015970188 14.769536900733069 #
straight-curve $-1 -48.630634479812002 0 10.063676762452683 0 -1 0 I I #
edge $-1 $909 -14.769536900733069 $593 -10.063676762452683 $792 $911 forward 7 unknown #
point $-1 -48.630634479812002 -29.689665015970188 10.063676762452683 #
edge $-1 $906 -14.769536900733069 $596 -10.063676762452683 $595 $912 forward 7 unknown #
point $-1 -48.630634479812002 29.689665015970188 10.063676762452683 #
coedge $-1 $610 $609 $602 $808 forward $600 $-1 #
edge $-1 $815 22.408313873781626 $810 32.786050253097912 $807 $913 forward 7 unknown #
edge $-1 $607 18.943204650640727 $815 29.689665015970188 $606 $914 forward 7 unknown #
vertex $-1 $808 $915 #
straight-curve $-1 -33.976515152210489 -29.689665015970206 4.3918005214167692 0 0.71933979245794832 0.69465837861970381 I I #
edge $-1 $810 -19.675315605076197 $611 -8.9270834891923876 $610 $916 forward 7 unknown #
point $-1 -33.976515152210496 -18.943204650640727 14.769536900733069 #
point $-1 -23.22828303632668 -29.689665015970188 4.3918005214167861 #
vertex $-1 $614 $917 #
straight-curve $-1 0 -29.689665015970188 14.769536900733069 1 0 0 I I #
vertex $-1 $617 $918 #
point $-1 -26.602399094268584 -19.834640674838784 4.9396351051798106 #
edge $-1 $820 22.408313873781626 $823 32.786050253097912 $622 $919 forward 7 unknown #
vertex $-1 $636 $920 #
straight-curve $-1 -13.324727744204864 -48.626510206978772 14.769536900733069 0 -1 0 I I #
edge $-1 $823 -9.3494219010733843 $633 1.3988102148104247 $632 $921 forward 7 unknown #
vertex $-1 $822 $922 #
straight-curve $-1 -13.324727744204864 -29.689665015970206 4.3918005214167692 0 0.71933979245794832 0.69465837861970381 I I #
point $-1 -13.324727744204864 -18.943204650640723 14.769536900733069 #
point $-1 -2.5764956283210552 -29.689665015970188 4.3918005214167861 #
straight-curve $-1 0 -29.689665015970188 14.769536900733069 1 0 0 I I #
vertex $-1 $639 $923 #
point $-1 -5.9506116862629597 -19.834640674838784 4.9396351051798106 #
edge $-1 $831 22.408313873781626 $834 32.786050253097912 $644 $924 forward 7 unknown #
vertex $-1 $658 $925 #
straight-curve $-1 7.3270596638007603 -48.626510206978772 14.769536900733069 0 -1 0 I I #
edge $-1 $834 0.97647180292942792 $655 11.724703918813237 $654 $926 forward 7 unknown #
vertex $-1 $833 $927 #
straight-curve $-1 7.3270596638007603 -29.689665015970206 4.3918005214167692 0 0.71933979245794832 0.69465837861970381 I I #
point $-1 7.3270596638007603 -18.943204650640723 14.769536900733069 #
point $-1 18.075291779684569 -29.689665015970188 4.3918005214167861 #
straight-curve $-1 0 -29.689665015970188 14.769536900733069 1 0 0 I I #
vertex $-1 $661 $928 #
point $-1 14.701175721742665 -19.834640674838784 4.9396351051798106 #
edge $-1 $842 22.408313873781626 $845 32.786050253097912 $666 $929 forward 7 unknown #
vertex $-1 $680 $930 #
straight-curve $-1 27.978847071806385 -48.626510206978772 14.769536900733069 0 -1 0 I I #
edge $-1 $845 11.30236550693224 $677 22.050597622816049 $676 $931 forward 7 unknown #
vertex $-1 $844 $932 #
straight-curve $-1 27.978847071806385 -29.689665015970206 4.3918005214167692 0 0.71933979245794832 0.69465837861970381 I I #
point $-1 27.978847071806385 -18.943204650640723 14.769536900733069 #
point $-1 38.727079187690194 -29.689665015970188 4.3918005214167861 #
straight-curve $-1 0 -29.689665015970188 14.769536900733069 1 0 0 I I #
vertex $-1 $683 $933 #
point $-1 35.352963129748289 -19.834640674838784 4.9396351051798106 #
coedge $-1 $689 $856 $691 $854 reversed $475 $-1 #
straight-curve $-1 -23.22828303632668 29.689665015970188 57.802025336270688 0 0 -1 I I #
edge $-1 $692 23.22828303632668 $861 33.976515152210496 $852 $934 forward 7 unknown #
point $-1 -23.22828303632668 29.689665015970188 14.769536900733069 #
coedge $-1 $852 $694 $697 $858 forward $475 $-1 #
straight-curve $-1 -14.301199547134292 29.689665015970185 4.3918005214167586 -1 0 0 I I #
edge $-1 $698 -53.410224814853933 $861 -43.032488435537616 $856 $935 forward 7 unknown #
point $-1 -33.976515152210489 29.689665015970192 4.391800521416755 #
point $-1 -23.22828303632668 29.689665015970192 4.391800521416755 #
vertex $-1 $702 $936 #
straight-curve $-1 -33.976515152210496 0 14.769536900733069 0 -1 0 I I #
vertex $-1 $705 $937 #
point $-1 -26.602399094268584 19.834640674838774 4.9396351051798106 #
coedge $-1 $720 $719 $712 $866 forward $709 $-1 #
edge $-1 $867 43.032488435537616 $870 53.410224814853933 $865 $938 forward 7 unknown #
vertex $-1 $724 $939 #
straight-curve $-1 -2.5764956283210552 27.269552736244755 14.769536900733073 0 1 0 I I #
edge $-1 $870 -1.3988102148104247 $721 9.3494219010733843 $720 $940 forward 7 unknown #
vertex $-1 $869 $941 #
straight-curve $-1 -2.5764956283210552 -13.024249925497827 45.640149644928755 0 -0.71933979245794832 0.69465837861970381 I I #
point $-1 -2.5764956283210552 18.943204650640698 14.769536900733069 #
point $-1 -13.324727744204864 29.689665015970192 4.391800521416755 #
straight-curve $-1 0 29.689665015970188 14.769536900733069 -1 0 0 I I #
vertex $-1 $727 $942 #
point $-1 -5.9506116862629597 19.834640674838774 4.9396351051798106 #
coedge $-1 $742 $741 $734 $878 forward $731 $-1 #
edge $-1 $879 43.032488435537616 $882 53.410224814853933 $877 $943 forward 7 unknown #
vertex $-1 $746 $944 #
straight-curve $-1 18.075291779684569 27.269552736244755 14.769536900733073 0 1 0 I I #
edge $-1 $882 -11.724703918813237 $743 -0.97647180292942792 $742 $945 forward 7 unknown #
vertex $-1 $881 $946 #
straight-curve $-1 18.075291779684569 -13.024249925497827 45.640149644928755 0 -0.71933979245794832 0.69465837861970381 I I #
point $-1 18.075291779684569 18.943204650640698 14.769536900733069 #
point $-1 7.3270596638007603 29.689665015970192 4.391800521416755 #
straight-curve $-1 0 29.689665015970188 14.769536900733069 -1 0 0 I I #
vertex $-1 $749 $947 #
point $-1 14.701175721742665 19.834640674838774 4.9396351051798106 #
coedge $-1 $764 $763 $756 $890 forward $753 $-1 #
edge $-1 $891 43.032488435537616 $894 53.410224814853933 $889 $948 forward 7 unknown #
vertex $-1 $768 $949 #
straight-curve $-1 38.727079187690194 27.269552736244755 14.769536900733073 0 1 0 I I #
edge $-1 $894 -22.050597622816049 $765 -11.30236550693224 $764 $950 forward 7 unknown #
vertex $-1 $893 $951 #
straight-curve $-1 38.727079187690194 -13.024249925497827 45.640149644928755 0 -0.71933979245794832 0.69465837861970381 I I #
point $-1 38.727079187690194 18.943204650640698 14.769536900733069 #
point $-1 27.978847071806385 29.689665015970192 4.391800521416755 #
straight-curve $-1 0 29.689665015970188 14.769536900733069 -1 0 0 I I #
vertex $-1 $771 $952 #
point $-1 35.352963129748289 19.834640674838774 4.9396351051798106 #
straight-curve $-1 -48.630634479812002 29.689665015970188 0 0 0 -1 I I #
point $-1 -48.630634479812002 -29.689665015970188 -14.769536900733069 #
straight-curve $-1 -48.630634479812002 0 -14.769536900733069 0 1 0 I I #
point $-1 -48.630634479812002 29.689665015970188 -14.769536900733069 #
coedge $-1 $793 $792 $798 $908 reversed $380 $-1 #
vertex $-1 $794 $953 #
straight-curve $-1 0 29.689665015970188 14.769536900733069 -1 0 0 I I #
edge $-1 $906 -29.689665015970188 $909 29.689665015970188 $905 $954 forward 7 unknown #
vertex $-1 $908 $955 #
straight-curve $-1 0 -29.689665015970188 14.769536900733069 1 0 0 I I #
straight-curve $-1 -48.630634479812002 -29.689665015970188 0 0 0 -1 I I #
straight-curve $-1 -48.630634479812002 29.689665015970188 0 0 0 -1 I I #
straight-curve $-1 -33.976515152210489 -29.689665015970192 37.177850774514695 0 0 -1 I I #
straight-curve $-1 -33.976515152210496 0 14.769536900733069 0 -1 0 I I #
point $-1 -33.976515152210489 -29.689665015970188 4.3918005214167861 #
straight-curve $-1 -14.301199547134292 -29.689665015970188 4.3918005214167879 1 0 0 I I #
point $-1 -33.976515152210496 -29.689665015970188 14.769536900733069 #
point $-1 -28.602399094268584 -18.445323917599378 3.5009555202639144 #
straight-curve $-1 -13.324727744204864 -29.689665015970192 37.177850774514695 0 0 -1 I I #
point $-1 -13.324727744204864 -29.689665015970188 14.769536900733069 #
straight-curve $-1 -3.9753058431314798 -29.689665015970188 4.3918005214167879 1 0 0 I I #
point $-1 -13.324727744204864 -29.689665015970188 4.3918005214167861 #
point $-1 -7.9506116862629597 -18.445323917599378 3.5009555202639144 #
straight-curve $-1 7.3270596638007603 -29.689665015970192 37.177850774514695 0 0 -1 I I #
point $-1 7.3270596638007603 -29.689665015970188 14.769536900733069 #
straight-curve $-1 6.3505878608713324 -29.689665015970188 4.3918005214167879 1 0 0 I I #
point $-1 7.3270596638007603 -29.689665015970188 4.3918005214167861 #
point $-1 12.701175721742665 -18.445323917599378 3.5009555202639144 #
straight-curve $-1 27.978847071806385 -29.689665015970192 37.177850774514695 0 0 -1 I I #
point $-1 27.978847071806385 -29.689665015970188 14.769536900733069 #
straight-curve $-1 16.676481564874145 -29.689665015970188 4.3918005214167879 1 0 0 I I #
point $-1 27.978847071806385 -29.689665015970188 4.3918005214167861 #
point $-1 33.352963129748289 -18.445323917599378 3.5009555202639144 #
straight-curve $-1 0 29.689665015970188 14.769536900733069 -1 0 0 I I #
straight-curve $-1 -33.976515152210489 29.689665015970188 57.802025336270688 0 0 1 I I #
point $-1 -33.976515152210496 29.689665015970188 14.769536900733069 #
point $-1 -28.602399094268584 18.445323917599367 3.5009555202639144 #
straight-curve $-1 -2.5764956283210552 29.689665015970188 57.802025336270688 0 0 -1 I I #
point $-1 -2.5764956283210552 29.689665015970188 14.769536900733069 #
straight-curve $-1 -3.9753058431314798 29.689665015970185 4.3918005214167586 -1 0 0 I I #
point $-1 -2.5764956283210552 29.689665015970192 4.391800521416755 #
point $-1 -7.9506116862629597 18.445323917599367 3.5009555202639144 #
straight-curve $-1 18.075291779684569 29.689665015970188 57.802025336270688 0 0 -1 I I #
point $-1 18.075291779684569 29.689665015970188 14.769536900733069 #
straight-curve $-1 6.3505878608713324 29.689665015970185 4.3918005214167586 -1 0 0 I I #
point $-1 18.075291779684569 29.689665015970192 4.391800521416755 #
point $-1 12.701175721742665 18.445323917599367 3.5009555202639144 #
straight-curve $-1 38.727079187690194 29.689665015970188 57.802025336270688 0 0 -1 I I #
point $-1 38.727079187690194 29.689665015970188 14.769536900733069 #
straight-curve $-1 16.676481564874145 29.689665015970185 4.3918005214167586 -1 0 0 I I #
point $-1 38.727079187690194 29.689665015970192 4.391800521416755 #
point $-1 33.352963129748289 18.445323917599367 3.5009555202639144 #
point $-1 -48.630634479812002 29.689665015970188 14.769536900733069 #
straight-curve $-1 -48.630634479812002 0 14.769536900733069 0 -1 0 I I #
point $-1 -48.630634479812002 -29.689665015970188 14.769536900733069 #
End-of-ACIS-data 