500 0 20 0           
7 Unknown 11 ACIS 5.0 NT 24 Thu Mar 25 17:22:12 1999 
-1 9.9999999999999995e-007 1e-010 
body $-1 $20 $-1 $21 #
body $-1 $22 $-1 $23 #
body $-1 $24 $-1 $25 #
body $-1 $26 $-1 $27 #
body $-1 $28 $-1 $29 #
body $-1 $30 $-1 $31 #
body $-1 $32 $-1 $33 #
body $-1 $34 $-1 $35 #
body $-1 $36 $-1 $37 #
body $-1 $38 $-1 $39 #
body $-1 $40 $-1 $41 #
body $-1 $42 $-1 $43 #
body $-1 $44 $-1 $45 #
body $-1 $46 $-1 $47 #
body $-1 $48 $-1 $49 #
body $-1 $50 $-1 $51 #
body $-1 $52 $-1 $53 #
body $-1 $54 $-1 $55 #
body $-1 $56 $-1 $57 #
body $-1 $58 $-1 $59 #
lump $-1 $-1 $60 $0 #
transform $-1 1 0 0 0 1 0 0 0 1 71.532944730979338 30.437140272918889 12.754022861087627 1 rotate no_reflect no_shear #
lump $-1 $-1 $61 $1 #
transform $-1 1 0 0 0 1 0 0 0 1 71.532944730979338 30.437140272918889 12.754022861087627 1 rotate no_reflect no_shear #
lump $-1 $-1 $62 $2 #
transform $-1 1 0 0 0 1 0 0 0 1 71.532944730979338 30.437140272918889 12.754022861087627 1 rotate no_reflect no_shear #
lump $-1 $-1 $63 $3 #
transform $-1 1 0 0 0 1 0 0 0 1 71.532944730979338 30.437140272918889 12.754022861087627 1 rotate no_reflect no_shear #
lump $-1 $-1 $64 $4 #
transform $-1 1 0 0 0 1 0 0 0 1 71.532944730979338 30.437140272918889 12.754022861087627 1 rotate no_reflect no_shear #
lump $-1 $-1 $65 $5 #
transform $-1 1 0 0 0 1 0 0 0 1 71.532944730979338 30.437140272918889 12.754022861087627 1 rotate no_reflect no_shear #
lump $-1 $-1 $66 $6 #
transform $-1 1 0 0 0 1 0 0 0 1 71.532944730979338 30.437140272918889 12.754022861087627 1 rotate no_reflect no_shear #
lump $-1 $-1 $67 $7 #
transform $-1 1 0 0 0 1 0 0 0 1 71.532944730979338 30.437140272918889 12.754022861087627 1 rotate no_reflect no_shear #
lump $-1 $-1 $68 $8 #
transform $-1 1 0 0 0 1 0 0 0 1 71.532944730979338 30.437140272918889 12.754022861087627 1 rotate no_reflect no_shear #
lump $-1 $-1 $69 $9 #
transform $-1 1 0 0 0 1 0 0 0 1 71.532944730979338 30.437140272918889 12.754022861087627 1 rotate no_reflect no_shear #
lump $-1 $-1 $70 $10 #
transform $-1 1 0 0 0 1 0 0 0 1 71.532944730979338 30.437140272918889 12.754022861087627 1 rotate no_reflect no_shear #
lump $-1 $-1 $71 $11 #
transform $-1 1 0 0 0 1 0 0 0 1 71.532944730979338 30.437140272918889 12.754022861087627 1 rotate no_reflect no_shear #
lump $-1 $-1 $72 $12 #
transform $-1 1 0 0 0 1 0 0 0 1 71.532944730979338 30.437140272918889 12.754022861087627 1 rotate no_reflect no_shear #
lump $-1 $-1 $73 $13 #
transform $-1 1 0 0 0 1 0 0 0 1 71.532944730979338 30.437140272918889 12.754022861087627 1 rotate no_reflect no_shear #
lump $-1 $-1 $74 $14 #
transform $-1 1 0 0 0 1 0 0 0 1 71.532944730979338 30.437140272918889 12.754022861087627 1 rotate no_reflect no_shear #
lump $-1 $-1 $75 $15 #
transform $-1 1 0 0 0 1 0 0 0 1 71.532944730979338 30.437140272918889 12.754022861087627 1 rotate no_reflect no_shear #
lump $-1 $-1 $76 $16 #
transform $-1 1 0 0 0 1 0 0 0 1 71.532944730979338 30.437140272918889 12.754022861087627 1 rotate no_reflect no_shear #
lump $-1 $-1 $77 $17 #
transform $-1 1 0 0 0 1 0 0 0 1 71.532944730979338 30.437140272918889 12.754022861087627 1 rotate no_reflect no_shear #
lump $-1 $-1 $78 $18 #
transform $-1 1 0 0 0 1 0 0 0 1 71.532944730979338 30.437140272918889 12.754022861087627 1 rotate no_reflect no_shear #
lump $-1 $-1 $79 $19 #
transform $-1 1 0 0 0 1 0 0 0 1 71.532944730979338 30.437140272918889 12.754022861087627 1 rotate no_reflect no_shear #
shell $-1 $-1 $-1 $80 $-1 $20 #
shell $-1 $-1 $-1 $81 $-1 $22 #
shell $-1 $-1 $-1 $82 $-1 $24 #
shell $-1 $-1 $-1 $83 $-1 $26 #
shell $-1 $-1 $-1 $84 $-1 $28 #
shell $-1 $-1 $-1 $85 $-1 $30 #
shell $-1 $-1 $-1 $86 $-1 $32 #
shell $-1 $-1 $-1 $87 $-1 $34 #
shell $-1 $-1 $-1 $88 $-1 $36 #
shell $-1 $-1 $-1 $89 $-1 $38 #
shell $-1 $-1 $-1 $90 $-1 $40 #
shell $-1 $-1 $-1 $91 $-1 $42 #
shell $-1 $-1 $-1 $92 $-1 $44 #
shell $-1 $-1 $-1 $93 $-1 $46 #
shell $-1 $-1 $-1 $94 $-1 $48 #
shell $-1 $-1 $-1 $95 $-1 $50 #
shell $-1 $-1 $-1 $96 $-1 $52 #
shell $-1 $-1 $-1 $97 $-1 $54 #
shell $-1 $-1 $-1 $98 $-1 $56 #
shell $-1 $-1 $-1 $99 $-1 $58 #
face $-1 $100 $101 $60 $-1 $102 forward single #
face $-1 $103 $104 $61 $-1 $105 reversed single #
face $-1 $106 $107 $62 $-1 $108 reversed single #
face $-1 $109 $110 $63 $-1 $111 forward single #
face $-1 $112 $113 $64 $-1 $114 forward single #
face $-1 $115 $116 $65 $-1 $117 forward single #
face $-1 $118 $119 $66 $-1 $120 reversed single #
face $-1 $121 $122 $67 $-1 $123 forward single #
face $-1 $124 $125 $68 $-1 $126 forward single #
face $-1 $127 $128 $69 $-1 $129 forward single #
face $-1 $130 $131 $70 $-1 $132 reversed single #
face $-1 $133 $134 $71 $-1 $135 forward single #
face $-1 $136 $137 $72 $-1 $138 forward single #
face $-1 $139 $140 $73 $-1 $141 forward single #
face $-1 $142 $143 $74 $-1 $144 reversed single #
face $-1 $145 $146 $75 $-1 $147 forward single #
face $-1 $148 $149 $76 $-1 $150 forward single #
face $-1 $151 $152 $77 $-1 $153 forward single #
face $-1 $154 $155 $78 $-1 $156 reversed single #
face $-1 $157 $158 $79 $-1 $159 forward single #
face $-1 $160 $161 $60 $-1 $162 reversed single #
loop $-1 $-1 $163 $80 #
plane-surface $-1 0 0 12.754022861087627 0 0 1 1 0 0 forward_v I I I I #
face $-1 $164 $165 $61 $-1 $166 reversed single #
loop $-1 $-1 $167 $81 #
plane-surface $-1 -64.724488411934573 -22.917459163336215 0 1 0 0 0 0 -1 forward_v I I I I #
face $-1 $168 $169 $62 $-1 $170 reversed single #
loop $-1 $-1 $171 $82 #
plane-surface $-1 -194.16434814453729 -12.588055260783095 83.323199810834211 0 1 0 -0.85716730853699208 0 0.51503806187062418 forward_v I I I I #
face $-1 $172 $173 $63 $-1 $174 forward single #
loop $-1 $175 $176 $83 #
cone-surface $-1 -70.019200776440343 -11.384280112965918 10.849219005629507 0.85716730853699208 0 -0.51503806187062418 0.25751903093531209 0 0.42858365426849604 1 I I 0 1 0.5 forward I I I I #
face $-1 $177 $178 $64 $-1 $179 forward single #
loop $-1 $180 $181 $84 #
cone-surface $-1 -70.019200776440343 -9.5786173912401509 10.849219005629507 0.85716730853699208 0 -0.51503806187062418 0.25751903093531209 0 0.42858365426849604 1 I I 0 1 0.5 forward I I I I #
face $-1 $182 $183 $65 $-1 $184 forward single #
loop $-1 $185 $186 $85 #
cone-surface $-1 -70.019200776440343 -7.7729546695143839 10.849219005629507 0.85716730853699208 0 -0.51503806187062418 0.25751903093531209 0 0.42858365426849604 1 I I 0 1 0.5 forward I I I I #
face $-1 $187 $188 $66 $-1 $189 reversed single #
loop $-1 $-1 $190 $86 #
plane-surface $-1 -194.16434814453729 -1.1891895935678765 83.323199810834211 0 1 0 -0.85716730853699208 0 0.51503806187062418 forward_v I I I I #
face $-1 $191 $192 $67 $-1 $193 forward single #
loop $-1 $194 $195 $87 #
cone-surface $-1 -70.019200776440343 0.014585554249300969 10.849219005629507 0.85716730853699208 0 -0.51503806187062418 0.25751903093531209 0 0.42858365426849604 1 I I 0 1 0.5 forward I I I I #
face $-1 $196 $197 $68 $-1 $198 forward single #
loop $-1 $199 $200 $88 #
cone-surface $-1 -70.019200776440343 1.820248275975068 10.849219005629507 0.85716730853699208 0 -0.51503806187062418 0.25751903093531209 0 0.42858365426849604 1 I I 0 1 0.5 forward I I I I #
face $-1 $201 $202 $69 $-1 $203 forward single #
loop $-1 $204 $205 $89 #
cone-surface $-1 -70.019200776440343 3.625910997700835 10.849219005629507 0.85716730853699208 0 -0.51503806187062418 0.25751903093531209 0 0.42858365426849604 1 I I 0 1 0.5 forward I I I I #
face $-1 $206 $207 $70 $-1 $208 reversed single #
loop $-1 $-1 $209 $90 #
plane-surface $-1 -194.16434814453729 10.209676073647342 83.323199810834211 0 1 0 -0.85716730853699208 0 0.51503806187062418 forward_v I I I I #
face $-1 $210 $211 $71 $-1 $212 forward single #
loop $-1 $213 $214 $91 #
cone-surface $-1 -70.019200776440343 11.41345122146452 10.849219005629507 0.85716730853699208 0 -0.51503806187062418 0.25751903093531209 0 0.42858365426849604 1 I I 0 1 0.5 forward I I I I #
face $-1 $215 $216 $72 $-1 $217 forward single #
loop $-1 $218 $219 $92 #
cone-surface $-1 -70.019200776440343 13.219113943190287 10.849219005629507 0.85716730853699208 0 -0.51503806187062418 0.25751903093531209 0 0.42858365426849604 1 I I 0 1 0.5 forward I I I I #
face $-1 $220 $221 $73 $-1 $222 forward single #
loop $-1 $223 $224 $93 #
cone-surface $-1 -70.019200776440343 15.024776664916054 10.849219005629507 0.85716730853699208 0 -0.51503806187062418 0.25751903093531209 0 0.42858365426849604 1 I I 0 1 0.5 forward I I I I #
face $-1 $225 $226 $74 $-1 $227 reversed single #
loop $-1 $-1 $228 $94 #
plane-surface $-1 -194.16434814453729 21.608541740862563 83.323199810834211 0 1 0 -0.85716730853699208 0 0.51503806187062418 forward_v I I I I #
face $-1 $229 $230 $75 $-1 $231 forward single #
loop $-1 $232 $233 $95 #
cone-surface $-1 -70.019200776440343 22.812316888679739 10.849219005629507 0.85716730853699208 0 -0.51503806187062418 0.25751903093531209 0 0.42858365426849604 1 I I 0 1 0.5 forward I I I I #
face $-1 $234 $235 $76 $-1 $236 forward single #
loop $-1 $237 $238 $96 #
cone-surface $-1 -70.019200776440343 24.617979610405506 10.849219005629507 0.85716730853699208 0 -0.51503806187062418 0.25751903093531209 0 0.42858365426849604 1 I I 0 1 0.5 forward I I I I #
face $-1 $239 $240 $77 $-1 $241 forward single #
loop $-1 $242 $243 $97 #
cone-surface $-1 -70.019200776440343 26.423642332131273 10.849219005629507 0.85716730853699208 0 -0.51503806187062418 0.25751903093531209 0 0.42858365426849604 1 I I 0 1 0.5 forward I I I I #
face $-1 $244 $245 $78 $-1 $246 reversed single #
loop $-1 $-1 $247 $98 #
plane-surface $-1 75.06401784920071 14.427688719635618 211.91229451020203 0 -1 0 -0.71933980857756763 0 -0.69465836192734942 forward_v I I I I #
face $-1 $248 $249 $79 $-1 $250 forward single #
loop $-1 $251 $252 $99 #
cone-surface $-1 68.976496723636359 8.5324070236216372 10.17951425729677 -0.71933980857756763 0 -0.69465836192734942 0.69465836192734942 0 -0.71933980857756763 1 I I 0 1 1 forward I I I I #
face $-1 $253 $254 $60 $-1 $255 reversed single #
loop $-1 $-1 $256 $100 #
plane-surface $-1 0 0 -12.754022861087627 0 0 1 1 0 0 forward_v I I I I #
coedge $-1 $257 $258 $259 $260 forward $101 $-1 #
face $-1 $261 $262 $61 $-1 $263 reversed single #
loop $-1 $-1 $264 $103 #
plane-surface $-1 -62.423688688610035 -15.397778053753541 0 0 -1 0 0 0 -1 forward_v I I I I #
coedge $-1 $265 $266 $267 $268 forward $104 $-1 #
face $-1 $269 $270 $62 $-1 $271 reversed single #
loop $-1 $-1 $272 $106 #
plane-surface $-1 -71.532944730979352 -9.5786173912401509 9.6388213825500628 -0.85716730853699208 0 0.51503806187062418 0.51503806187062418 0 0.85716730853699208 forward_v I I I I #
coedge $-1 $273 $274 $275 $276 reversed $107 $-1 #
face $-1 $-1 $277 $63 $-1 $278 forward single #
loop $-1 $279 $280 $109 #
cone-surface $-1 -69.227065906912813 -11.384280112965918 10.373256373972524 0.85716730853699208 0 -0.51503806187062418 0.12875951546765604 0 0.21429182713424802 1 I I -0.70710678118654746 0.70710678118654746 0.25 forward I I I I #
loop $-1 $-1 $281 $83 #
coedge $-1 $176 $176 $282 $283 reversed $110 $-1 #
face $-1 $-1 $284 $64 $-1 $285 forward single #
loop $-1 $286 $287 $112 #
cone-surface $-1 -69.227065906912813 -9.5786173912401509 10.373256373972524 0.85716730853699208 0 -0.51503806187062418 0.12875951546765604 0 0.21429182713424802 1 I I -0.70710678118654746 0.70710678118654746 0.25 forward I I I I #
loop $-1 $-1 $288 $84 #
coedge $-1 $181 $181 $289 $290 reversed $113 $-1 #
face $-1 $-1 $291 $65 $-1 $292 forward single #
loop $-1 $293 $294 $115 #
cone-surface $-1 -69.227065906912813 -7.7729546695143839 10.373256373972524 0.85716730853699208 0 -0.51503806187062418 0.12875951546765604 0 0.21429182713424802 1 I I -0.70710678118654746 0.70710678118654746 0.25 forward I I I I #
loop $-1 $-1 $295 $85 #
coedge $-1 $186 $186 $296 $297 reversed $116 $-1 #
face $-1 $298 $299 $66 $-1 $300 reversed single #
loop $-1 $-1 $301 $118 #
plane-surface $-1 -71.532944730979352 1.820248275975068 9.6388213825500628 -0.85716730853699208 0 0.51503806187062418 0.51503806187062418 0 0.85716730853699208 forward_v I I I I #
coedge $-1 $302 $303 $304 $305 reversed $119 $-1 #
face $-1 $-1 $306 $67 $-1 $307 forward single #
loop $-1 $308 $309 $121 #
cone-surface $-1 -69.227065906912813 0.014585554249300969 10.373256373972524 0.85716730853699208 0 -0.51503806187062418 0.12875951546765604 0 0.21429182713424802 1 I I -0.70710678118654746 0.70710678118654746 0.25 forward I I I I #
loop $-1 $-1 $310 $87 #
coedge $-1 $195 $195 $311 $312 reversed $122 $-1 #
face $-1 $-1 $313 $68 $-1 $314 forward single #
loop $-1 $315 $316 $124 #
cone-surface $-1 -69.227065906912813 1.820248275975068 10.373256373972524 0.85716730853699208 0 -0.51503806187062418 0.12875951546765604 0 0.21429182713424802 1 I I -0.70710678118654746 0.70710678118654746 0.25 forward I I I I #
loop $-1 $-1 $317 $88 #
coedge $-1 $200 $200 $318 $319 reversed $125 $-1 #
face $-1 $-1 $320 $69 $-1 $321 forward single #
loop $-1 $322 $323 $127 #
cone-surface $-1 -69.227065906912813 3.625910997700835 10.373256373972524 0.85716730853699208 0 -0.51503806187062418 0.12875951546765604 0 0.21429182713424802 1 I I -0.70710678118654746 0.70710678118654746 0.25 forward I I I I #
loop $-1 $-1 $324 $89 #
coedge $-1 $205 $205 $325 $326 reversed $128 $-1 #
face $-1 $327 $328 $70 $-1 $329 reversed single #
loop $-1 $-1 $330 $130 #
plane-surface $-1 -71.532944730979352 13.219113943190287 9.6388213825500628 -0.85716730853699208 0 0.51503806187062418 0.51503806187062418 0 0.85716730853699208 forward_v I I I I #
coedge $-1 $331 $332 $333 $334 reversed $131 $-1 #
face $-1 $-1 $335 $71 $-1 $336 forward single #
loop $-1 $337 $338 $133 #
cone-surface $-1 -69.227065906912813 11.41345122146452 10.373256373972524 0.85716730853699208 0 -0.51503806187062418 0.12875951546765604 0 0.21429182713424802 1 I I -0.70710678118654746 0.70710678118654746 0.25 forward I I I I #
loop $-1 $-1 $339 $91 #
coedge $-1 $214 $214 $340 $341 reversed $134 $-1 #
face $-1 $-1 $342 $72 $-1 $343 forward single #
loop $-1 $344 $345 $136 #
cone-surface $-1 -69.227065906912813 13.219113943190287 10.373256373972524 0.85716730853699208 0 -0.51503806187062418 0.12875951546765604 0 0.21429182713424802 1 I I -0.70710678118654746 0.70710678118654746 0.25 forward I I I I #
loop $-1 $-1 $346 $92 #
coedge $-1 $219 $219 $347 $348 reversed $137 $-1 #
face $-1 $-1 $349 $73 $-1 $350 forward single #
loop $-1 $351 $352 $139 #
cone-surface $-1 -69.227065906912813 15.024776664916054 10.373256373972524 0.85716730853699208 0 -0.51503806187062418 0.12875951546765604 0 0.21429182713424802 1 I I -0.70710678118654746 0.70710678118654746 0.25 forward I I I I #
loop $-1 $-1 $353 $93 #
coedge $-1 $224 $224 $354 $355 reversed $140 $-1 #
face $-1 $356 $357 $74 $-1 $358 reversed single #
loop $-1 $-1 $359 $142 #
plane-surface $-1 -71.532944730979352 24.617979610405506 9.6388213825500628 -0.85716730853699208 0 0.51503806187062418 0.51503806187062418 0 0.85716730853699208 forward_v I I I I #
coedge $-1 $360 $361 $362 $363 reversed $143 $-1 #
face $-1 $-1 $364 $75 $-1 $365 forward single #
loop $-1 $366 $367 $145 #
cone-surface $-1 -69.227065906912813 22.812316888679739 10.373256373972524 0.85716730853699208 0 -0.51503806187062418 0.12875951546765604 0 0.21429182713424802 1 I I -0.70710678118654746 0.70710678118654746 0.25 forward I I I I #
loop $-1 $-1 $368 $95 #
coedge $-1 $233 $233 $369 $370 reversed $146 $-1 #
face $-1 $-1 $371 $76 $-1 $372 forward single #
loop $-1 $373 $374 $148 #
cone-surface $-1 -69.227065906912813 24.617979610405506 10.373256373972524 0.85716730853699208 0 -0.51503806187062418 0.12875951546765604 0 0.21429182713424802 1 I I -0.70710678118654746 0.70710678118654746 0.25 forward I I I I #
loop $-1 $-1 $375 $96 #
coedge $-1 $238 $238 $376 $377 reversed $149 $-1 #
face $-1 $-1 $378 $77 $-1 $379 forward single #
loop $-1 $380 $381 $151 #
cone-surface $-1 -69.227065906912813 26.423642332131273 10.373256373972524 0.85716730853699208 0 -0.51503806187062418 0.12875951546765604 0 0.21429182713424802 1 I I -0.70710678118654746 0.70710678118654746 0.25 forward I I I I #
loop $-1 $-1 $382 $97 #
coedge $-1 $243 $243 $383 $384 reversed $152 $-1 #
face $-1 $385 $386 $78 $-1 $387 reversed single #
loop $-1 $-1 $388 $154 #
plane-surface $-1 -27.848971690344101 8.5324070236216372 112.53037808887858 0.71933980857756763 0 0.69465836192734942 0.69465836192734942 0 -0.71933980857756763 forward_v I I I I #
coedge $-1 $389 $390 $391 $392 reversed $155 $-1 #
face $-1 $-1 $393 $79 $-1 $394 forward single #
loop $-1 $395 $396 $157 #
cone-surface $-1 67.574885048825152 8.5324070236216372 8.8259936284191625 -0.71933980857756763 0 -0.69465836192734942 0.34732918096367471 0 -0.35966990428878381 1 I I -0.70710678118654746 0.70710678118654746 0.5 forward I I I I #
loop $-1 $-1 $397 $99 #
coedge $-1 $252 $252 $398 $399 reversed $158 $-1 #
face $-1 $400 $401 $60 $-1 $402 reversed single #
loop $-1 $-1 $403 $160 #
plane-surface $-1 0 -30.437140272918889 0 0 1 0 0 0 1 forward_v I I I I #
coedge $-1 $404 $405 $406 $407 forward $161 $-1 #
coedge $-1 $408 $163 $409 $410 forward $101 $-1 #
coedge $-1 $163 $408 $411 $412 forward $101 $-1 #
coedge $-1 $413 $414 $163 $260 reversed $415 $-1 #
edge $-1 $416 -30.437140272918889 $417 30.437140272918889 $259 $418 forward 7 unknown #
face $-1 $419 $420 $61 $-1 $421 forward single #
loop $-1 $-1 $422 $164 #
plane-surface $-1 -60.122888965285497 -22.917459163336215 0 -1 0 0 0 0 1 forward_v I I I I #
coedge $-1 $423 $424 $425 $426 forward $165 $-1 #
coedge $-1 $427 $167 $428 $429 reversed $104 $-1 #
coedge $-1 $167 $427 $430 $431 reversed $104 $-1 #
coedge $-1 $424 $423 $167 $268 reversed $165 $-1 #
edge $-1 $432 -12.754022861087627 $433 12.754022861087627 $267 $434 forward 7 unknown #
face $-1 $435 $436 $62 $-1 $437 reversed single #
loop $-1 $-1 $438 $168 #
plane-surface $-1 -194.16434814453729 -6.5691795216972064 83.323199810834211 0 -1 0 0.85716730853699208 0 -0.51503806187062418 forward_v I I I I #
coedge $-1 $439 $440 $441 $442 reversed $169 $-1 #
coedge $-1 $274 $171 $443 $444 reversed $107 $-1 #
coedge $-1 $171 $273 $439 $445 reversed $107 $-1 #
coedge $-1 $441 $446 $171 $276 forward $447 $-1 #
edge $-1 $448 25.549229341289305 $449 27.421031165580686 $275 $450 forward 7 unknown #
loop $-1 $-1 $282 $172 #
plane-surface $-1 -71.532944730979352 -9.5786173912401509 9.6388213825500628 -0.85716730853699208 0 0.51503806187062418 0.51503806187062418 0 0.85716730853699208 forward_v I I I I #
loop $-1 $-1 $451 $109 #
coedge $-1 $280 $280 $281 $452 reversed $173 $-1 #
coedge $-1 $281 $281 $280 $452 forward $175 $-1 #
coedge $-1 $282 $282 $176 $283 forward $277 $-1 #
edge $-1 $453 0 $453 6.2831853071796004 $282 $454 forward 7 unknown #
loop $-1 $-1 $289 $177 #
plane-surface $-1 -71.532944730979352 -9.5786173912401509 9.6388213825500628 -0.85716730853699208 0 0.51503806187062418 0.51503806187062418 0 0.85716730853699208 forward_v I I I I #
loop $-1 $-1 $455 $112 #
coedge $-1 $287 $287 $288 $456 reversed $178 $-1 #
coedge $-1 $288 $288 $287 $456 forward $180 $-1 #
coedge $-1 $289 $289 $181 $290 forward $284 $-1 #
edge $-1 $457 0 $457 6.2831853071796004 $289 $458 forward 7 unknown #
loop $-1 $-1 $296 $182 #
plane-surface $-1 -71.532944730979352 -9.5786173912401509 9.6388213825500628 -0.85716730853699208 0 0.51503806187062418 0.51503806187062418 0 0.85716730853699208 forward_v I I I I #
loop $-1 $-1 $459 $115 #
coedge $-1 $294 $294 $295 $460 reversed $183 $-1 #
coedge $-1 $295 $295 $294 $460 forward $185 $-1 #
coedge $-1 $296 $296 $186 $297 forward $291 $-1 #
edge $-1 $461 0 $461 6.2831853071796004 $296 $462 forward 7 unknown #
face $-1 $463 $464 $66 $-1 $465 forward single #
loop $-1 $-1 $466 $187 #
plane-surface $-1 -194.16434814453729 4.8296861455180125 83.323199810834211 0 -1 0 0.85716730853699208 0 -0.51503806187062418 forward_v I I I I #
coedge $-1 $467 $468 $469 $470 reversed $188 $-1 #
coedge $-1 $303 $190 $471 $472 reversed $119 $-1 #
coedge $-1 $190 $302 $467 $473 reversed $119 $-1 #
coedge $-1 $469 $474 $190 $305 forward $464 $-1 #
edge $-1 $475 25.549229341289305 $476 27.421031165580686 $304 $477 forward 7 unknown #
loop $-1 $-1 $311 $191 #
plane-surface $-1 -71.532944730979352 1.820248275975068 9.6388213825500628 -0.85716730853699208 0 0.51503806187062418 0.51503806187062418 0 0.85716730853699208 forward_v I I I I #
loop $-1 $-1 $478 $121 #
coedge $-1 $309 $309 $310 $479 reversed $192 $-1 #
coedge $-1 $310 $310 $309 $479 forward $194 $-1 #
coedge $-1 $311 $311 $195 $312 forward $306 $-1 #
edge $-1 $480 0 $480 6.2831853071796004 $311 $481 forward 7 unknown #
loop $-1 $-1 $318 $196 #
plane-surface $-1 -71.532944730979352 1.820248275975068 9.6388213825500628 -0.85716730853699208 0 0.51503806187062418 0.51503806187062418 0 0.85716730853699208 forward_v I I I I #
loop $-1 $-1 $482 $124 #
coedge $-1 $316 $316 $317 $483 reversed $197 $-1 #
coedge $-1 $317 $317 $316 $483 forward $199 $-1 #
coedge $-1 $318 $318 $200 $319 forward $313 $-1 #
edge $-1 $484 0 $484 6.2831853071796004 $318 $485 forward 7 unknown #
loop $-1 $-1 $325 $201 #
plane-surface $-1 -71.532944730979352 1.820248275975068 9.6388213825500628 -0.85716730853699208 0 0.51503806187062418 0.51503806187062418 0 0.85716730853699208 forward_v I I I I #
loop $-1 $-1 $486 $127 #
coedge $-1 $323 $323 $324 $487 reversed $202 $-1 #
coedge $-1 $324 $324 $323 $487 forward $204 $-1 #
coedge $-1 $325 $325 $205 $326 forward $320 $-1 #
edge $-1 $488 0 $488 6.2831853071796004 $325 $489 forward 7 unknown #
face $-1 $490 $491 $70 $-1 $492 forward single #
loop $-1 $-1 $493 $206 #
plane-surface $-1 -194.16434814453729 16.22855181273323 83.323199810834211 0 -1 0 0.85716730853699208 0 -0.51503806187062418 forward_v I I I I #
coedge $-1 $494 $495 $496 $497 reversed $207 $-1 #
coedge $-1 $332 $209 $498 $499 reversed $131 $-1 #
coedge $-1 $209 $331 $494 $500 reversed $131 $-1 #
coedge $-1 $496 $501 $209 $334 forward $491 $-1 #
edge $-1 $502 25.549229341289305 $503 27.421031165580686 $333 $504 forward 7 unknown #
loop $-1 $-1 $340 $210 #
plane-surface $-1 -71.532944730979352 13.219113943190287 9.6388213825500628 -0.85716730853699208 0 0.51503806187062418 0.51503806187062418 0 0.85716730853699208 forward_v I I I I #
loop $-1 $-1 $505 $133 #
coedge $-1 $338 $338 $339 $506 reversed $211 $-1 #
coedge $-1 $339 $339 $338 $506 forward $213 $-1 #
coedge $-1 $340 $340 $214 $341 forward $335 $-1 #
edge $-1 $507 0 $507 6.2831853071796004 $340 $508 forward 7 unknown #
loop $-1 $-1 $347 $215 #
plane-surface $-1 -71.532944730979352 13.219113943190287 9.6388213825500628 -0.85716730853699208 0 0.51503806187062418 0.51503806187062418 0 0.85716730853699208 forward_v I I I I #
loop $-1 $-1 $509 $136 #
coedge $-1 $345 $345 $346 $510 reversed $216 $-1 #
coedge $-1 $346 $346 $345 $510 forward $218 $-1 #
coedge $-1 $347 $347 $219 $348 forward $342 $-1 #
edge $-1 $511 0 $511 6.2831853071796004 $347 $512 forward 7 unknown #
loop $-1 $-1 $354 $220 #
plane-surface $-1 -71.532944730979352 13.219113943190287 9.6388213825500628 -0.85716730853699208 0 0.51503806187062418 0.51503806187062418 0 0.85716730853699208 forward_v I I I I #
loop $-1 $-1 $513 $139 #
coedge $-1 $352 $352 $353 $514 reversed $221 $-1 #
coedge $-1 $353 $353 $352 $514 forward $223 $-1 #
coedge $-1 $354 $354 $224 $355 forward $349 $-1 #
edge $-1 $515 0 $515 6.2831853071796004 $354 $516 forward 7 unknown #
face $-1 $517 $518 $74 $-1 $519 forward single #
loop $-1 $-1 $520 $225 #
plane-surface $-1 -194.16434814453729 27.627417479948448 83.323199810834211 0 -1 0 0.85716730853699208 0 -0.51503806187062418 forward_v I I I I #
coedge $-1 $521 $522 $523 $524 reversed $226 $-1 #
coedge $-1 $361 $228 $525 $526 reversed $143 $-1 #
coedge $-1 $228 $360 $521 $527 reversed $143 $-1 #
coedge $-1 $523 $528 $228 $363 forward $518 $-1 #
edge $-1 $529 25.549229341289305 $530 27.421031165580686 $362 $531 forward 7 unknown #
loop $-1 $-1 $369 $229 #
plane-surface $-1 -71.532944730979352 24.617979610405506 9.6388213825500628 -0.85716730853699208 0 0.51503806187062418 0.51503806187062418 0 0.85716730853699208 forward_v I I I I #
loop $-1 $-1 $532 $145 #
coedge $-1 $367 $367 $368 $533 reversed $230 $-1 #
coedge $-1 $368 $368 $367 $533 forward $232 $-1 #
coedge $-1 $369 $369 $233 $370 forward $364 $-1 #
edge $-1 $534 0 $534 6.2831853071796004 $369 $535 forward 7 unknown #
loop $-1 $-1 $376 $234 #
plane-surface $-1 -71.532944730979352 24.617979610405506 9.6388213825500628 -0.85716730853699208 0 0.51503806187062418 0.51503806187062418 0 0.85716730853699208 forward_v I I I I #
loop $-1 $-1 $536 $148 #
coedge $-1 $374 $374 $375 $537 reversed $235 $-1 #
coedge $-1 $375 $375 $374 $537 forward $237 $-1 #
coedge $-1 $376 $376 $238 $377 forward $371 $-1 #
edge $-1 $538 0 $538 6.2831853071796004 $376 $539 forward 7 unknown #
loop $-1 $-1 $383 $239 #
plane-surface $-1 -71.532944730979352 24.617979610405506 9.6388213825500628 -0.85716730853699208 0 0.51503806187062418 0.51503806187062418 0 0.85716730853699208 forward_v I I I I #
loop $-1 $-1 $540 $151 #
coedge $-1 $381 $381 $382 $541 reversed $240 $-1 #
coedge $-1 $382 $382 $381 $541 forward $242 $-1 #
coedge $-1 $383 $383 $243 $384 forward $378 $-1 #
edge $-1 $542 0 $542 6.2831853071796004 $383 $543 forward 7 unknown #
face $-1 $544 $545 $78 $-1 $546 forward single #
loop $-1 $-1 $547 $244 #
plane-surface $-1 75.06401784920071 2.6371253276076558 211.91229451020203 0 1 0 0.71933980857756763 0 0.69465836192734942 forward_v I I I I #
coedge $-1 $548 $549 $550 $551 reversed $245 $-1 #
coedge $-1 $390 $247 $552 $553 reversed $155 $-1 #
coedge $-1 $247 $389 $548 $554 reversed $155 $-1 #
coedge $-1 $550 $555 $247 $392 forward $545 $-1 #
edge $-1 $556 -34.000935806378983 $557 -30.971923332737923 $391 $558 forward 7 unknown #
loop $-1 $-1 $398 $248 #
plane-surface $-1 -27.848971690344101 8.5324070236216372 112.53037808887858 0.71933980857756763 0 0.69465836192734942 0.69465836192734942 0 -0.71933980857756763 forward_v I I I I #
loop $-1 $-1 $559 $157 #
coedge $-1 $396 $396 $397 $560 reversed $249 $-1 #
coedge $-1 $397 $397 $396 $560 forward $251 $-1 #
coedge $-1 $398 $398 $252 $399 forward $393 $-1 #
edge $-1 $561 0 $561 6.2831853071796004 $398 $562 forward 7 unknown #
face $-1 $563 $564 $60 $-1 $565 reversed single #
loop $-1 $-1 $566 $253 #
plane-surface $-1 -71.532944730979338 0 0 1 0 0 0 0 -1 forward_v I I I I #
coedge $-1 $567 $411 $568 $569 forward $254 $-1 #
coedge $-1 $570 $256 $567 $571 forward $161 $-1 #
coedge $-1 $256 $570 $572 $573 forward $161 $-1 #
coedge $-1 $414 $413 $256 $407 reversed $415 $-1 #
edge $-1 $574 -30.437140272918889 $575 30.437140272918889 $406 $576 forward 7 unknown #
coedge $-1 $258 $257 $577 $578 forward $101 $-1 #
coedge $-1 $579 $580 $257 $410 reversed $564 $-1 #
edge $-1 $417 -71.532944730979338 $581 71.532944730979338 $409 $582 forward 7 unknown #
coedge $-1 $403 $583 $258 $412 reversed $254 $-1 #
edge $-1 $584 -71.532944730979338 $416 71.532944730979338 $411 $585 forward 7 unknown #
coedge $-1 $406 $259 $583 $586 forward $415 $-1 #
coedge $-1 $259 $406 $579 $587 reversed $415 $-1 #
loop $-1 $-1 $413 $563 #
vertex $-1 $260 $588 #
vertex $-1 $260 $589 #
straight-curve $-1 71.532944730979338 0 12.754022861087627 0 1 0 I I #
face $-1 $590 $591 $61 $-1 $592 reversed single #
loop $-1 $-1 $593 $261 #
plane-surface $-1 0 0 12.754022861087627 0 0 1 1 0 0 forward_v I I I I #
coedge $-1 $594 $595 $596 $597 reversed $262 $-1 #
coedge $-1 $267 $264 $598 $599 reversed $165 $-1 #
coedge $-1 $264 $267 $600 $601 reversed $165 $-1 #
coedge $-1 $595 $594 $264 $426 reversed $262 $-1 #
edge $-1 $602 -12.754022861087627 $603 12.754022861087627 $425 $604 forward 7 unknown #
coedge $-1 $266 $265 $605 $606 reversed $104 $-1 #
coedge $-1 $598 $607 $265 $429 forward $591 $-1 #
edge $-1 $608 -18.97841069125078 $433 -3.9390484720854335 $428 $609 forward 7 unknown #
coedge $-1 $610 $600 $266 $431 forward $420 $-1 #
edge $-1 $432 3.9390484720854335 $611 18.97841069125078 $430 $612 forward 7 unknown #
vertex $-1 $431 $613 #
vertex $-1 $429 $614 #
straight-curve $-1 -64.724488411934573 -15.397778053753541 0 0 0 -1 I I #
face $-1 $-1 $447 $62 $-1 $615 forward single #
loop $-1 $-1 $616 $269 #
plane-surface $-1 -71.532944730979338 0 0 1 0 0 0 0 -1 forward_v I I I I #
coedge $-1 $617 $618 $619 $620 reversed $270 $-1 #
coedge $-1 $621 $272 $274 $445 forward $169 $-1 #
coedge $-1 $272 $621 $617 $622 forward $169 $-1 #
coedge $-1 $619 $275 $272 $442 forward $447 $-1 #
edge $-1 $449 -7.7987465651630199 $623 -1.779870826077131 $441 $624 forward 7 unknown #
coedge $-1 $625 $626 $273 $444 forward $436 $-1 #
edge $-1 $627 -32.022778522867021 $448 -28.907577044329479 $443 $628 forward 7 unknown #
edge $-1 $449 -3.6342980506974421 $627 -2.7113386213432547e-014 $274 $629 forward 7 unknown #
coedge $-1 $275 $619 $625 $630 forward $447 $-1 #
loop $-1 $-1 $619 $435 #
vertex $-1 $444 $631 #
vertex $-1 $276 $632 #
straight-curve $-1 -97.082174072268643 -12.588055260783095 12.754022861087627 1 0 0 I I #
coedge $-1 $451 $451 $-1 $633 reversed $279 $-1 #
edge $-1 $634 0 $634 6.2831853071796004 $280 $635 forward 7 unknown #
vertex $-1 $283 $636 #
ellipse-curve $-1 -70.597043818833654 -11.384280112965918 11.196422121818848 -0.85716730853699208 0 0.51503806187062418 0.25751903093531209 0 0.42858365426849604 1 I I #
coedge $-1 $455 $455 $-1 $637 reversed $286 $-1 #
edge $-1 $638 0 $638 6.2831853071796004 $287 $639 forward 7 unknown #
vertex $-1 $290 $640 #
ellipse-curve $-1 -70.597043818833654 -9.5786173912401509 11.196422121818848 -0.85716730853699208 0 0.51503806187062418 0.25751903093531209 0 0.42858365426849604 1 I I #
coedge $-1 $459 $459 $-1 $641 reversed $293 $-1 #
edge $-1 $642 0 $642 6.2831853071796004 $294 $643 forward 7 unknown #
vertex $-1 $297 $644 #
ellipse-curve $-1 -70.597043818833654 -7.7729546695143839 11.196422121818848 -0.85716730853699208 0 0.51503806187062418 0.25751903093531209 0 0.42858365426849604 1 I I #
face $-1 $-1 $645 $66 $-1 $646 reversed single #
loop $-1 $-1 $304 $298 #
plane-surface $-1 0 0 12.754022861087627 0 0 1 1 0 0 forward_v I I I I #
coedge $-1 $647 $648 $649 $650 reversed $299 $-1 #
coedge $-1 $651 $301 $303 $473 forward $188 $-1 #
coedge $-1 $301 $651 $647 $652 forward $188 $-1 #
coedge $-1 $649 $304 $301 $470 forward $464 $-1 #
edge $-1 $476 -2.0993137315554105 $653 3.9195620075304785 $469 $654 forward 7 unknown #
coedge $-1 $655 $656 $302 $472 forward $645 $-1 #
edge $-1 $657 -32.022778522867021 $475 -28.907577044329479 $471 $658 forward 7 unknown #
edge $-1 $476 -3.6342980506974421 $657 -2.7113386213432547e-014 $303 $659 forward 7 unknown #
coedge $-1 $304 $649 $655 $660 forward $464 $-1 #
vertex $-1 $472 $661 #
vertex $-1 $305 $662 #
straight-curve $-1 -97.082174072268643 -1.1891895935678765 12.754022861087627 1 0 0 I I #
coedge $-1 $478 $478 $-1 $663 reversed $308 $-1 #
edge $-1 $664 0 $664 6.2831853071796004 $309 $665 forward 7 unknown #
vertex $-1 $312 $666 #
ellipse-curve $-1 -70.597043818833654 0.014585554249300969 11.196422121818848 -0.85716730853699208 0 0.51503806187062418 0.25751903093531209 0 0.42858365426849604 1 I I #
coedge $-1 $482 $482 $-1 $667 reversed $315 $-1 #
edge $-1 $668 0 $668 6.2831853071796004 $316 $669 forward 7 unknown #
vertex $-1 $319 $670 #
ellipse-curve $-1 -70.597043818833654 1.820248275975068 11.196422121818848 -0.85716730853699208 0 0.51503806187062418 0.25751903093531209 0 0.42858365426849604 1 I I #
coedge $-1 $486 $486 $-1 $671 reversed $322 $-1 #
edge $-1 $672 0 $672 6.2831853071796004 $323 $673 forward 7 unknown #
vertex $-1 $326 $674 #
ellipse-curve $-1 -70.597043818833654 3.625910997700835 11.196422121818848 -0.85716730853699208 0 0.51503806187062418 0.25751903093531209 0 0.42858365426849604 1 I I #
face $-1 $-1 $675 $70 $-1 $676 reversed single #
loop $-1 $-1 $333 $327 #
plane-surface $-1 0 0 12.754022861087627 0 0 1 1 0 0 forward_v I I I I #
coedge $-1 $677 $678 $679 $680 reversed $328 $-1 #
coedge $-1 $681 $330 $332 $500 forward $207 $-1 #
coedge $-1 $330 $681 $677 $682 forward $207 $-1 #
coedge $-1 $679 $333 $330 $497 forward $491 $-1 #
edge $-1 $503 3.600119102052199 $683 9.6189948411380861 $496 $684 forward 7 unknown #
coedge $-1 $685 $686 $331 $499 forward $675 $-1 #
edge $-1 $687 -32.022778522867021 $502 -28.907577044329479 $498 $688 forward 7 unknown #
edge $-1 $503 -3.6342980506974421 $687 -2.7113386213432547e-014 $332 $689 forward 7 unknown #
coedge $-1 $333 $679 $685 $690 forward $491 $-1 #
vertex $-1 $334 $691 #
vertex $-1 $334 $692 #
straight-curve $-1 -97.082174072268643 10.209676073647342 12.754022861087627 1 0 0 I I #
coedge $-1 $505 $505 $-1 $693 reversed $337 $-1 #
edge $-1 $694 0 $694 6.2831853071796004 $338 $695 forward 7 unknown #
vertex $-1 $341 $696 #
ellipse-curve $-1 -70.597043818833654 11.41345122146452 11.196422121818848 -0.85716730853699208 0 0.51503806187062418 0.25751903093531209 0 0.42858365426849604 1 I I #
coedge $-1 $509 $509 $-1 $697 reversed $344 $-1 #
edge $-1 $698 0 $698 6.2831853071796004 $345 $699 forward 7 unknown #
vertex $-1 $348 $700 #
ellipse-curve $-1 -70.597043818833654 13.219113943190287 11.196422121818848 -0.85716730853699208 0 0.51503806187062418 0.25751903093531209 0 0.42858365426849604 1 I I #
coedge $-1 $513 $513 $-1 $701 reversed $351 $-1 #
edge $-1 $702 0 $702 6.2831853071796004 $352 $703 forward 7 unknown #
vertex $-1 $355 $704 #
ellipse-curve $-1 -70.597043818833654 15.024776664916054 11.196422121818848 -0.85716730853699208 0 0.51503806187062418 0.25751903093531209 0 0.42858365426849604 1 I I #
face $-1 $-1 $705 $74 $-1 $706 reversed single #
loop $-1 $-1 $362 $356 #
plane-surface $-1 0 0 12.754022861087627 0 0 1 1 0 0 forward_v I I I I #
coedge $-1 $707 $708 $709 $710 reversed $357 $-1 #
coedge $-1 $711 $359 $361 $527 forward $226 $-1 #
coedge $-1 $359 $711 $707 $712 forward $226 $-1 #
coedge $-1 $709 $362 $359 $524 forward $518 $-1 #
edge $-1 $530 9.2995519356598102 $713 15.318427674745696 $523 $714 forward 7 unknown #
coedge $-1 $715 $716 $360 $526 forward $705 $-1 #
edge $-1 $717 -32.022778522867021 $529 -28.907577044329479 $525 $718 forward 7 unknown #
edge $-1 $530 -3.6342980506974421 $717 -2.7113386213432547e-014 $361 $719 forward 7 unknown #
coedge $-1 $362 $709 $715 $720 forward $518 $-1 #
vertex $-1 $363 $721 #
vertex $-1 $363 $722 #
straight-curve $-1 -97.082174072268643 21.608541740862563 12.754022861087627 1 0 0 I I #
coedge $-1 $532 $532 $-1 $723 reversed $366 $-1 #
edge $-1 $724 0 $724 6.2831853071796004 $367 $725 forward 7 unknown #
vertex $-1 $370 $726 #
ellipse-curve $-1 -70.597043818833654 22.812316888679739 11.196422121818848 -0.85716730853699208 0 0.51503806187062418 0.25751903093531209 0 0.42858365426849604 1 I I #
coedge $-1 $536 $536 $-1 $727 reversed $373 $-1 #
edge $-1 $728 0 $728 6.2831853071796004 $374 $729 forward 7 unknown #
vertex $-1 $377 $730 #
ellipse-curve $-1 -70.597043818833654 24.617979610405506 11.196422121818848 -0.85716730853699208 0 0.51503806187062418 0.25751903093531209 0 0.42858365426849604 1 I I #
coedge $-1 $540 $540 $-1 $731 reversed $380 $-1 #
edge $-1 $732 0 $732 6.2831853071796004 $381 $733 forward 7 unknown #
vertex $-1 $384 $734 #
ellipse-curve $-1 -70.597043818833654 26.423642332131273 11.196422121818848 -0.85716730853699208 0 0.51503806187062418 0.25751903093531209 0 0.42858365426849604 1 I I #
face $-1 $-1 $735 $78 $-1 $736 reversed single #
loop $-1 $-1 $391 $385 #
plane-surface $-1 0 0 12.754022861087627 0 0 1 1 0 0 forward_v I I I I #
coedge $-1 $737 $738 $739 $740 reversed $386 $-1 #
coedge $-1 $741 $388 $390 $554 forward $245 $-1 #
coedge $-1 $388 $741 $737 $742 forward $245 $-1 #
coedge $-1 $739 $391 $388 $551 forward $545 $-1 #
edge $-1 $557 -10.1614852078248 $743 1.6290781842031627 $550 $744 forward 7 unknown #
coedge $-1 $745 $746 $389 $553 forward $735 $-1 #
edge $-1 $747 -96.338758705767219 $556 -93.202124394013396 $552 $748 forward 7 unknown #
edge $-1 $557 138.70545469336685 $747 143.06588946195865 $390 $749 forward 7 unknown #
coedge $-1 $391 $739 $745 $750 forward $545 $-1 #
vertex $-1 $553 $751 #
vertex $-1 $392 $752 #
straight-curve $-1 37.532008924600355 14.427688719635618 12.754022861087634 -1 0 0 I I #
coedge $-1 $559 $559 $-1 $753 reversed $395 $-1 #
edge $-1 $754 0 $754 6.2831853071796004 $396 $755 forward 7 unknown #
vertex $-1 $399 $756 #
ellipse-curve $-1 70.018438494158801 8.5324070236216372 11.185705705210715 0.71933980857756763 0 0.69465836192734942 0.69465836192734942 0 -0.71933980857756763 1 I I #
face $-1 $-1 $415 $60 $-1 $757 reversed single #
loop $-1 $-1 $579 $400 #
plane-surface $-1 0 30.437140272918889 0 0 -1 0 0 0 -1 forward_v I I I I #
coedge $-1 $758 $577 $580 $759 forward $401 $-1 #
coedge $-1 $583 $403 $404 $571 reversed $254 $-1 #
coedge $-1 $577 $758 $403 $569 reversed $401 $-1 #
edge $-1 $584 -12.754022861087627 $760 12.754022861087627 $568 $761 forward 7 unknown #
coedge $-1 $405 $404 $758 $762 forward $161 $-1 #
edge $-1 $575 -71.532944730979338 $760 71.532944730979338 $567 $763 forward 7 unknown #
coedge $-1 $580 $579 $405 $573 reversed $564 $-1 #
edge $-1 $764 -71.532944730979338 $574 71.532944730979338 $572 $765 forward 7 unknown #
vertex $-1 $407 $766 #
vertex $-1 $586 $767 #
straight-curve $-1 71.532944730979338 0 -12.754022861087627 0 -1 0 I I #
coedge $-1 $566 $568 $408 $578 reversed $401 $-1 #
edge $-1 $581 -30.437140272918889 $584 30.437140272918889 $577 $768 forward 7 unknown #
coedge $-1 $572 $409 $414 $587 forward $564 $-1 #
coedge $-1 $409 $572 $566 $759 reversed $564 $-1 #
vertex $-1 $410 $769 #
straight-curve $-1 0 30.437140272918889 12.754022861087627 -1 0 0 I I #
coedge $-1 $411 $567 $413 $586 reversed $254 $-1 #
vertex $-1 $578 $770 #
straight-curve $-1 0 -30.437140272918889 12.754022861087627 1 0 0 I I #
edge $-1 $416 -12.754022861087627 $575 12.754022861087627 $413 $771 forward 7 unknown #
edge $-1 $417 -12.754022861087627 $574 12.754022861087627 $414 $772 forward 7 unknown #
point $-1 71.532944730979338 -30.437140272918889 12.754022861087627 #
point $-1 71.532944730979338 30.437140272918889 12.754022861087627 #
face $-1 $-1 $773 $61 $-1 $774 reversed single #
loop $-1 $-1 $775 $419 #
plane-surface $-1 0 0 -12.754022861087627 0 0 1 1 0 0 forward_v I I I I #
coedge $-1 $600 $610 $595 $776 forward $420 $-1 #
coedge $-1 $425 $422 $775 $777 reversed $262 $-1 #
coedge $-1 $422 $425 $593 $776 reversed $262 $-1 #
coedge $-1 $778 $779 $422 $597 forward $773 $-1 #
edge $-1 $780 -12.754022861087627 $781 12.754022861087627 $596 $782 forward 7 unknown #
coedge $-1 $775 $428 $423 $599 forward $591 $-1 #
edge $-1 $433 -33.512644067629552 $603 -28.91104462098048 $598 $783 forward 7 unknown #
coedge $-1 $430 $593 $424 $601 forward $420 $-1 #
edge $-1 $602 28.91104462098048 $432 33.512644067629552 $600 $784 forward 7 unknown #
vertex $-1 $601 $785 #
vertex $-1 $599 $786 #
straight-curve $-1 -60.122888965285497 -15.397778053753541 0 0 0 -1 I I #
coedge $-1 $779 $778 $427 $606 forward $773 $-1 #
edge $-1 $611 -12.754022861087627 $608 12.754022861087627 $605 $787 forward 7 unknown #
coedge $-1 $428 $775 $779 $788 forward $591 $-1 #
vertex $-1 $429 $789 #
straight-curve $-1 -64.724488411934573 -11.458729581668107 -12.754022861087627 0 1 0 I I #
coedge $-1 $593 $430 $778 $790 forward $420 $-1 #
vertex $-1 $790 $791 #
straight-curve $-1 -64.724488411934573 -11.458729581668107 12.754022861087627 0 -1 0 I I #
point $-1 -64.724488411934573 -15.397778053753541 12.754022861087627 #
point $-1 -64.724488411934573 -15.397778053753541 -12.754022861087627 #
plane-surface $-1 0 0 12.754022861087627 0 0 1 1 0 0 forward_v I I I I #
coedge $-1 $626 $625 $618 $792 forward $436 $-1 #
coedge $-1 $618 $438 $440 $622 reversed $270 $-1 #
coedge $-1 $438 $617 $616 $792 reversed $270 $-1 #
coedge $-1 $446 $441 $438 $620 forward $447 $-1 #
edge $-1 $623 -27.421031165580686 $793 -25.549229341289305 $619 $794 forward 7 unknown #
coedge $-1 $440 $439 $626 $795 reversed $169 $-1 #
edge $-1 $796 2.7113386213432547e-014 $623 3.6342980506974421 $617 $797 forward 7 unknown #
vertex $-1 $442 $798 #
straight-curve $-1 -69.661142906687957 -4.7893086956200754 12.754022861087627 0 1 0 I I #
coedge $-1 $616 $443 $446 $630 reversed $436 $-1 #
coedge $-1 $443 $616 $621 $795 forward $436 $-1 #
vertex $-1 $444 $799 #
straight-curve $-1 -71.532944730979338 -12.588055260783095 41.661599905417106 0 0 1 I I #
straight-curve $-1 -71.532944730979352 -12.588055260783095 9.6388213825500628 -0.51503806187062418 0 -0.85716730853699208 I I #
edge $-1 $793 6.5691795216972064 $448 12.588055260783095 $625 $800 forward 7 unknown #
point $-1 -71.532944730979338 -12.588055260783095 12.754022861087627 #
point $-1 -69.661142906687957 -12.588055260783095 12.754022861087627 #
edge $-1 $801 1 $801 0 $451 $-1 forward 7 unknown #
vertex $-1 $452 $802 #
ellipse-curve $-1 -69.44135773404706 -11.384280112965918 10.50201588944018 -0.85716730853699208 0 0.51503806187062418 0.25751903093531209 0 0.42858365426849604 1 I I #
point $-1 -70.339524787898313 -11.384280112965918 11.625005776087331 #
edge $-1 $803 1 $803 0 $455 $-1 forward 7 unknown #
vertex $-1 $456 $804 #
ellipse-curve $-1 -69.44135773404706 -9.5786173912401509 10.50201588944018 -0.85716730853699208 0 0.51503806187062418 0.25751903093531209 0 0.42858365426849604 1 I I #
point $-1 -70.339524787898313 -9.5786173912401509 11.625005776087331 #
edge $-1 $805 1 $805 0 $459 $-1 forward 7 unknown #
vertex $-1 $460 $806 #
ellipse-curve $-1 -69.44135773404706 -7.7729546695143839 10.50201588944018 -0.85716730853699208 0 0.51503806187062418 0.25751903093531209 0 0.42858365426849604 1 I I #
point $-1 -70.339524787898313 -7.7729546695143839 11.625005776087331 #
loop $-1 $-1 $471 $463 #
plane-surface $-1 -71.532944730979338 0 0 1 0 0 0 0 -1 forward_v I I I I #
coedge $-1 $648 $466 $468 $652 reversed $299 $-1 #
coedge $-1 $466 $647 $807 $808 reversed $299 $-1 #
coedge $-1 $474 $469 $466 $650 forward $464 $-1 #
edge $-1 $653 -27.421031165580686 $809 -25.549229341289305 $649 $810 forward 7 unknown #
coedge $-1 $468 $467 $656 $811 reversed $188 $-1 #
edge $-1 $812 2.7113386213432547e-014 $653 3.6342980506974421 $647 $813 forward 7 unknown #
vertex $-1 $470 $814 #
straight-curve $-1 -69.661142906687957 0.910124137987534 12.754022861087627 0 1 0 I I #
coedge $-1 $807 $471 $474 $660 reversed $645 $-1 #
coedge $-1 $471 $807 $651 $811 forward $645 $-1 #
vertex $-1 $472 $815 #
straight-curve $-1 -71.532944730979338 -1.1891895935678765 41.661599905417106 0 0 1 I I #
straight-curve $-1 -71.532944730979352 -1.1891895935678765 9.6388213825500628 -0.51503806187062418 0 -0.85716730853699208 I I #
edge $-1 $809 -4.8296861455180125 $475 1.1891895935678765 $655 $816 forward 7 unknown #
point $-1 -71.532944730979338 -1.1891895935678765 12.754022861087627 #
point $-1 -69.661142906687957 -1.1891895935678765 12.754022861087627 #
edge $-1 $817 1 $817 0 $478 $-1 forward 7 unknown #
vertex $-1 $479 $818 #
ellipse-curve $-1 -69.44135773404706 0.014585554249300969 10.50201588944018 -0.85716730853699208 0 0.51503806187062418 0.25751903093531209 0 0.42858365426849604 1 I I #
point $-1 -70.339524787898313 0.014585554249300969 11.625005776087331 #
edge $-1 $819 1 $819 0 $482 $-1 forward 7 unknown #
vertex $-1 $483 $820 #
ellipse-curve $-1 -69.44135773404706 1.820248275975068 10.50201588944018 -0.85716730853699208 0 0.51503806187062418 0.25751903093531209 0 0.42858365426849604 1 I I #
point $-1 -70.339524787898313 1.820248275975068 11.625005776087331 #
edge $-1 $821 1 $821 0 $486 $-1 forward 7 unknown #
vertex $-1 $487 $822 #
ellipse-curve $-1 -69.44135773404706 3.625910997700835 10.50201588944018 -0.85716730853699208 0 0.51503806187062418 0.25751903093531209 0 0.42858365426849604 1 I I #
point $-1 -70.339524787898313 3.625910997700835 11.625005776087331 #
loop $-1 $-1 $498 $490 #
plane-surface $-1 -71.532944730979338 0 0 1 0 0 0 0 -1 forward_v I I I I #
coedge $-1 $678 $493 $495 $682 reversed $328 $-1 #
coedge $-1 $493 $677 $823 $824 reversed $328 $-1 #
coedge $-1 $501 $496 $493 $680 forward $491 $-1 #
edge $-1 $683 -27.421031165580686 $825 -25.549229341289305 $679 $826 forward 7 unknown #
coedge $-1 $495 $494 $686 $827 reversed $207 $-1 #
edge $-1 $828 2.7113386213432547e-014 $683 3.6342980506974421 $677 $829 forward 7 unknown #
vertex $-1 $497 $830 #
straight-curve $-1 -69.661142906687957 6.6095569715951434 12.754022861087627 0 1 0 I I #
coedge $-1 $823 $498 $501 $690 reversed $675 $-1 #
coedge $-1 $498 $823 $681 $827 forward $675 $-1 #
vertex $-1 $499 $831 #
straight-curve $-1 -71.532944730979338 10.209676073647342 41.661599905417106 0 0 1 I I #
straight-curve $-1 -71.532944730979352 10.209676073647342 9.6388213825500628 -0.51503806187062418 0 -0.85716730853699208 I I #
edge $-1 $825 -16.22855181273323 $502 -10.209676073647342 $685 $832 forward 7 unknown #
point $-1 -71.532944730979338 10.209676073647342 12.754022861087627 #
point $-1 -69.661142906687957 10.209676073647342 12.754022861087627 #
edge $-1 $833 1 $833 0 $505 $-1 forward 7 unknown #
vertex $-1 $506 $834 #
ellipse-curve $-1 -69.44135773404706 11.41345122146452 10.50201588944018 -0.85716730853699208 0 0.51503806187062418 0.25751903093531209 0 0.42858365426849604 1 I I #
point $-1 -70.339524787898313 11.41345122146452 11.625005776087331 #
edge $-1 $835 1 $835 0 $509 $-1 forward 7 unknown #
vertex $-1 $510 $836 #
ellipse-curve $-1 -69.44135773404706 13.219113943190287 10.50201588944018 -0.85716730853699208 0 0.51503806187062418 0.25751903093531209 0 0.42858365426849604 1 I I #
point $-1 -70.339524787898313 13.219113943190287 11.625005776087331 #
edge $-1 $837 1 $837 0 $513 $-1 forward 7 unknown #
vertex $-1 $514 $838 #
ellipse-curve $-1 -69.44135773404706 15.024776664916054 10.50201588944018 -0.85716730853699208 0 0.51503806187062418 0.25751903093531209 0 0.42858365426849604 1 I I #
point $-1 -70.339524787898313 15.024776664916054 11.625005776087331 #
loop $-1 $-1 $525 $517 #
plane-surface $-1 -71.532944730979338 0 0 1 0 0 0 0 -1 forward_v I I I I #
coedge $-1 $708 $520 $522 $712 reversed $357 $-1 #
coedge $-1 $520 $707 $839 $840 reversed $357 $-1 #
coedge $-1 $528 $523 $520 $710 forward $518 $-1 #
edge $-1 $713 -27.421031165580686 $841 -25.549229341289305 $709 $842 forward 7 unknown #
coedge $-1 $522 $521 $716 $843 reversed $226 $-1 #
edge $-1 $844 2.7113386213432547e-014 $713 3.6342980506974421 $707 $845 forward 7 unknown #
vertex $-1 $524 $846 #
straight-curve $-1 -69.661142906687957 12.308989805202753 12.754022861087627 0 1 0 I I #
coedge $-1 $839 $525 $528 $720 reversed $705 $-1 #
coedge $-1 $525 $839 $711 $843 forward $705 $-1 #
vertex $-1 $526 $847 #
straight-curve $-1 -71.532944730979338 21.608541740862563 41.661599905417106 0 0 1 I I #
straight-curve $-1 -71.532944730979352 21.608541740862563 9.6388213825500628 -0.51503806187062418 0 -0.85716730853699208 I I #
edge $-1 $841 -27.627417479948448 $529 -21.608541740862563 $715 $848 forward 7 unknown #
point $-1 -71.532944730979338 21.608541740862563 12.754022861087627 #
point $-1 -69.661142906687957 21.608541740862563 12.754022861087627 #
edge $-1 $849 1 $849 0 $532 $-1 forward 7 unknown #
vertex $-1 $533 $850 #
ellipse-curve $-1 -69.44135773404706 22.812316888679739 10.50201588944018 -0.85716730853699208 0 0.51503806187062418 0.25751903093531209 0 0.42858365426849604 1 I I #
point $-1 -70.339524787898313 22.812316888679739 11.625005776087331 #
edge $-1 $851 1 $851 0 $536 $-1 forward 7 unknown #
vertex $-1 $537 $852 #
ellipse-curve $-1 -69.44135773404706 24.617979610405506 10.50201588944018 -0.85716730853699208 0 0.51503806187062418 0.25751903093531209 0 0.42858365426849604 1 I I #
point $-1 -70.339524787898313 24.617979610405506 11.625005776087331 #
edge $-1 $853 1 $853 0 $540 $-1 forward 7 unknown #
vertex $-1 $541 $854 #
ellipse-curve $-1 -69.44135773404706 26.423642332131273 10.50201588944018 -0.85716730853699208 0 0.51503806187062418 0.25751903093531209 0 0.42858365426849604 1 I I #
point $-1 -70.339524787898313 26.423642332131273 11.625005776087331 #
loop $-1 $-1 $552 $544 #
plane-surface $-1 71.532944730979338 0 0 -1 0 0 0 0 1 forward_v I I I I #
coedge $-1 $738 $547 $549 $742 reversed $386 $-1 #
coedge $-1 $547 $737 $855 $856 reversed $386 $-1 #
coedge $-1 $555 $550 $547 $740 forward $545 $-1 #
edge $-1 $743 30.971923332737923 $857 34.000935806378983 $739 $858 forward 7 unknown #
coedge $-1 $549 $548 $746 $859 reversed $245 $-1 #
edge $-1 $860 -143.06588946195865 $743 -138.70545469336685 $737 $861 forward 7 unknown #
vertex $-1 $551 $862 #
straight-curve $-1 68.503932257338263 4.2662035118108186 12.754022861087634 0 -1 0 I I #
coedge $-1 $855 $552 $555 $750 reversed $735 $-1 #
coedge $-1 $552 $855 $741 $859 forward $735 $-1 #
vertex $-1 $553 $863 #
straight-curve $-1 71.532944730979338 14.427688719635618 105.95614725510102 0 0 1 I I #
straight-curve $-1 -27.848971690344101 14.427688719635618 112.53037808887858 0.69465836192734942 0 -0.71933980857756763 I I #
edge $-1 $857 2.6371253276076558 $556 14.427688719635618 $745 $864 forward 7 unknown #
point $-1 71.532944730979338 14.427688719635618 12.754022861087627 #
point $-1 68.503932257338278 14.427688719635618 12.754022861087606 #
edge $-1 $865 1 $865 0 $559 $-1 forward 7 unknown #
vertex $-1 $560 $866 #
ellipse-curve $-1 67.934554953113931 8.5324070236216372 9.173322809382837 0.71933980857756763 0 0.69465836192734942 0.69465836192734942 0 -0.71933980857756763 1 I I #
point $-1 70.713096856086153 8.5324070236216372 10.466365896633135 #
plane-surface $-1 71.532944730979338 0 0 -1 0 0 0 0 1 forward_v I I I I #
coedge $-1 $568 $566 $570 $762 reversed $401 $-1 #
edge $-1 $581 -12.754022861087627 $764 12.754022861087627 $580 $867 forward 7 unknown #
vertex $-1 $762 $868 #
straight-curve $-1 -71.532944730979338 -30.437140272918889 0 0 0 -1 I I #
edge $-1 $760 -30.437140272918889 $764 30.437140272918889 $758 $869 forward 7 unknown #
straight-curve $-1 0 -30.437140272918889 -12.754022861087627 -1 0 0 I I #
vertex $-1 $573 $870 #
straight-curve $-1 0 30.437140272918889 -12.754022861087627 1 0 0 I I #
point $-1 71.532944730979338 30.437140272918889 -12.754022861087627 #
point $-1 71.532944730979338 -30.437140272918889 -12.754022861087627 #
straight-curve $-1 -71.532944730979338 0 12.754022861087627 0 -1 0 I I #
point $-1 -71.532944730979338 30.437140272918889 12.754022861087627 #
point $-1 -71.532944730979338 -30.437140272918889 12.754022861087627 #
straight-curve $-1 71.532944730979338 -30.437140272918889 0 0 0 -1 I I #
straight-curve $-1 71.532944730979338 30.437140272918889 0 0 0 -1 I I #
loop $-1 $-1 $596 $590 #
plane-surface $-1 0 -30.437140272918889 0 0 1 0 0 0 1 forward_v I I I I #
coedge $-1 $607 $598 $594 $777 forward $591 $-1 #
edge $-1 $781 -18.97841069125078 $602 -3.9390484720854335 $593 $871 forward 7 unknown #
edge $-1 $603 3.9390484720854335 $780 18.97841069125078 $775 $872 forward 7 unknown #
coedge $-1 $605 $596 $610 $790 reversed $773 $-1 #
coedge $-1 $596 $605 $607 $788 reversed $773 $-1 #
vertex $-1 $788 $873 #
vertex $-1 $597 $874 #
straight-curve $-1 -60.122888965285497 -30.437140272918889 0 0 0 1 I I #
straight-curve $-1 -31.211844344305018 -15.397778053753541 -12.754022861087627 1 0 0 I I #
straight-curve $-1 -31.211844344305018 -15.397778053753541 12.754022861087627 -1 0 0 I I #
point $-1 -60.122888965285497 -15.397778053753541 12.754022861087627 #
point $-1 -60.122888965285497 -15.397778053753541 -12.754022861087627 #
straight-curve $-1 -64.724488411934573 -30.437140272918889 0 0 0 -1 I I #
edge $-1 $780 60.122888965285497 $608 64.724488411934573 $779 $875 forward 7 unknown #
point $-1 -64.724488411934573 -30.437140272918889 -12.754022861087627 #
edge $-1 $611 -64.724488411934573 $781 -60.122888965285497 $778 $876 forward 7 unknown #
point $-1 -64.724488411934573 -30.437140272918889 12.754022861087627 #
edge $-1 $793 28.907577044329479 $796 32.022778522867021 $616 $877 forward 7 unknown #
vertex $-1 $630 $878 #
straight-curve $-1 -97.082174072268643 -6.5691795216972064 12.754022861087627 -1 0 0 I I #
edge $-1 $796 1.779870826077131 $627 7.7987465651630199 $626 $879 forward 7 unknown #
vertex $-1 $795 $880 #
straight-curve $-1 -71.532944730979352 -6.5691795216972064 9.6388213825500628 0.51503806187062418 0 0.85716730853699208 I I #
point $-1 -69.661142906687957 -6.5691795216972064 12.754022861087627 #
point $-1 -71.532944730979338 -12.588055260783095 9.6388213825500859 #
straight-curve $-1 -71.532944730979338 0 12.754022861087627 0 -1 0 I I #
vertex $-1 $633 $881 #
point $-1 -69.183838703111746 -11.384280112965918 10.930599543708675 #
vertex $-1 $637 $882 #
point $-1 -69.183838703111746 -9.5786173912401509 10.930599543708675 #
vertex $-1 $641 $883 #
point $-1 -69.183838703111746 -7.7729546695143839 10.930599543708675 #
coedge $-1 $656 $655 $648 $808 forward $645 $-1 #
edge $-1 $809 28.907577044329479 $812 32.022778522867021 $807 $884 forward 7 unknown #
vertex $-1 $660 $885 #
straight-curve $-1 -97.082174072268643 4.8296861455180125 12.754022861087627 -1 0 0 I I #
edge $-1 $812 -3.9195620075304785 $657 2.0993137315554105 $656 $886 forward 7 unknown #
vertex $-1 $811 $887 #
straight-curve $-1 -71.532944730979352 4.8296861455180125 9.6388213825500628 0.51503806187062418 0 0.85716730853699208 I I #
point $-1 -69.661142906687957 4.8296861455180125 12.754022861087627 #
point $-1 -71.532944730979338 -1.1891895935678765 9.6388213825500859 #
straight-curve $-1 -71.532944730979338 0 12.754022861087627 0 -1 0 I I #
vertex $-1 $663 $888 #
point $-1 -69.183838703111746 0.014585554249300969 10.930599543708675 #
vertex $-1 $667 $889 #
point $-1 -69.183838703111746 1.820248275975068 10.930599543708675 #
vertex $-1 $671 $890 #
point $-1 -69.183838703111746 3.625910997700835 10.930599543708675 #
coedge $-1 $686 $685 $678 $824 forward $675 $-1 #
edge $-1 $825 28.907577044329479 $828 32.022778522867021 $823 $891 forward 7 unknown #
vertex $-1 $690 $892 #
straight-curve $-1 -97.082174072268643 16.22855181273323 12.754022861087627 -1 0 0 I I #
edge $-1 $828 -9.6189948411380861 $687 -3.600119102052199 $686 $893 forward 7 unknown #
vertex $-1 $827 $894 #
straight-curve $-1 -71.532944730979352 16.22855181273323 9.6388213825500628 0.51503806187062418 0 0.85716730853699208 I I #
point $-1 -69.661142906687957 16.22855181273323 12.754022861087627 #
point $-1 -71.532944730979338 10.209676073647342 9.6388213825500859 #
straight-curve $-1 -71.532944730979338 0 12.754022861087627 0 -1 0 I I #
vertex $-1 $693 $895 #
point $-1 -69.183838703111746 11.41345122146452 10.930599543708675 #
vertex $-1 $697 $896 #
point $-1 -69.183838703111746 13.219113943190287 10.930599543708675 #
vertex $-1 $701 $897 #
point $-1 -69.183838703111746 15.024776664916054 10.930599543708675 #
coedge $-1 $716 $715 $708 $840 forward $705 $-1 #
edge $-1 $841 28.907577044329479 $844 32.022778522867021 $839 $898 forward 7 unknown #
vertex $-1 $720 $899 #
straight-curve $-1 -97.082174072268643 27.627417479948448 12.754022861087627 -1 0 0 I I #
edge $-1 $844 -15.318427674745696 $717 -9.2995519356598102 $716 $900 forward 7 unknown #
vertex $-1 $843 $901 #
straight-curve $-1 -71.532944730979352 27.627417479948448 9.6388213825500628 0.51503806187062418 0 0.85716730853699208 I I #
point $-1 -69.661142906687957 27.627417479948448 12.754022861087627 #
point $-1 -71.532944730979338 21.608541740862563 9.6388213825500859 #
straight-curve $-1 -71.532944730979338 0 12.754022861087627 0 -1 0 I I #
vertex $-1 $723 $902 #
point $-1 -69.183838703111746 22.812316888679739 10.930599543708675 #
vertex $-1 $727 $903 #
point $-1 -69.183838703111746 24.617979610405506 10.930599543708675 #
vertex $-1 $731 $904 #
point $-1 -69.183838703111746 26.423642332131273 10.930599543708675 #
coedge $-1 $746 $745 $738 $856 forward $735 $-1 #
edge $-1 $857 93.202124394013396 $860 96.338758705767219 $855 $905 forward 7 unknown #
vertex $-1 $750 $906 #
straight-curve $-1 37.532008924600355 2.6371253276076558 12.754022861087634 1 0 0 I I #
edge $-1 $860 -1.6290781842031627 $747 10.1614852078248 $746 $907 forward 7 unknown #
vertex $-1 $859 $908 #
straight-curve $-1 -27.848971690344101 2.6371253276076558 112.53037808887858 -0.69465836192734942 0 0.71933980857756763 I I #
point $-1 68.503932257338278 2.6371253276076558 12.754022861087606 #
point $-1 71.532944730979338 14.427688719635618 9.6173885493337963 #
straight-curve $-1 71.532944730979338 0 12.754022861087627 0 1 0 I I #
vertex $-1 $753 $909 #
point $-1 68.629213315041284 8.5324070236216372 8.4539830008052697 #
straight-curve $-1 -71.532944730979338 30.437140272918889 0 0 0 -1 I I #
point $-1 -71.532944730979338 -30.437140272918889 -12.754022861087627 #
straight-curve $-1 -71.532944730979338 0 -12.754022861087627 0 1 0 I I #
point $-1 -71.532944730979338 30.437140272918889 -12.754022861087627 #
straight-curve $-1 -60.122888965285497 -11.458729581668107 12.754022861087627 0 1 0 I I #
straight-curve $-1 -60.122888965285497 -11.458729581668107 -12.754022861087627 0 -1 0 I I #
point $-1 -60.122888965285497 -30.437140272918889 -12.754022861087627 #
point $-1 -60.122888965285497 -30.437140272918889 12.754022861087627 #
straight-curve $-1 0 -30.437140272918889 -12.754022861087627 -1 0 0 I I #
straight-curve $-1 0 -30.437140272918889 12.754022861087627 1 0 0 I I #
straight-curve $-1 -71.532944730979338 -6.5691795216972064 41.661599905417106 0 0 -1 I I #
point $-1 -71.532944730979338 -6.5691795216972064 12.754022861087627 #
straight-curve $-1 -71.532944730979338 -4.7893086956200754 9.6388213825500859 0 -1 0 I I #
point $-1 -71.532944730979338 -6.5691795216972064 9.6388213825500859 #
point $-1 -69.012774079778566 -11.384280112965918 10.244496858504867 #
point $-1 -69.012774079778566 -9.5786173912401509 10.244496858504867 #
point $-1 -69.012774079778566 -7.7729546695143839 10.244496858504867 #
straight-curve $-1 -71.532944730979338 4.8296861455180125 41.661599905417106 0 0 -1 I I #
point $-1 -71.532944730979338 4.8296861455180125 12.754022861087627 #
straight-curve $-1 -71.532944730979338 0.910124137987534 9.6388213825500859 0 -1 0 I I #
point $-1 -71.532944730979338 4.8296861455180125 9.6388213825500859 #
point $-1 -69.012774079778566 0.014585554249300969 10.244496858504867 #
point $-1 -69.012774079778566 1.820248275975068 10.244496858504867 #
point $-1 -69.012774079778566 3.625910997700835 10.244496858504867 #
straight-curve $-1 -71.532944730979338 16.22855181273323 41.661599905417106 0 0 -1 I I #
point $-1 -71.532944730979338 16.22855181273323 12.754022861087627 #
straight-curve $-1 -71.532944730979338 6.6095569715951434 9.6388213825500859 0 -1 0 I I #
point $-1 -71.532944730979338 16.22855181273323 9.6388213825500859 #
point $-1 -69.012774079778566 11.41345122146452 10.244496858504867 #
point $-1 -69.012774079778566 13.219113943190287 10.244496858504867 #
point $-1 -69.012774079778566 15.024776664916054 10.244496858504867 #
straight-curve $-1 -71.532944730979338 27.627417479948448 41.661599905417106 0 0 -1 I I #
point $-1 -71.532944730979338 27.627417479948448 12.754022861087627 #
straight-curve $-1 -71.532944730979338 12.308989805202753 9.6388213825500859 0 -1 0 I I #
point $-1 -71.532944730979338 27.627417479948448 9.6388213825500859 #
point $-1 -69.012774079778566 22.812316888679739 10.244496858504867 #
point $-1 -69.012774079778566 24.617979610405506 10.244496858504867 #
point $-1 -69.012774079778566 26.423642332131273 10.244496858504867 #
straight-curve $-1 71.532944730979338 2.6371253276076558 105.95614725510102 0 0 -1 I I #
point $-1 71.532944730979338 2.6371253276076558 12.754022861087627 #
straight-curve $-1 71.532944730979338 4.2662035118108186 9.6173885493337892 0 1 0 I I #
point $-1 71.532944730979338 2.6371253276076558 9.6173885493337963 #
point $-1 67.215215144536373 8.5324070236216372 8.478664447455488 #
End-of-ACIS-data 