500 0 9 0           
7 Unknown 11 ACIS 5.0 NT 24 Thu Mar 25 22:11:25 1999 
-1 9.9999999999999995e-007 1e-010 
body $-1 $9 $-1 $10 #
body $-1 $11 $-1 $12 #
body $-1 $13 $-1 $14 #
body $-1 $15 $-1 $16 #
body $-1 $17 $-1 $18 #
body $-1 $19 $-1 $20 #
body $-1 $21 $-1 $22 #
body $-1 $23 $-1 $24 #
body $-1 $25 $-1 $26 #
lump $-1 $-1 $27 $0 #
transform $-1 1 0 0 0 1 0 0 0 1 64.936063722647788 32.480318722955431 7.8211679674020491 1 rotate no_reflect no_shear #
lump $-1 $-1 $28 $1 #
transform $-1 1 0 0 0 1 0 0 0 1 64.936063722647788 32.480318722955431 7.8211679674020491 1 rotate no_reflect no_shear #
lump $-1 $-1 $29 $2 #
transform $-1 1 0 0 0 1 0 0 0 1 64.936063722647788 32.480318722955431 7.8211679674020491 1 rotate no_reflect no_shear #
lump $-1 $-1 $30 $3 #
transform $-1 1 0 0 0 1 0 0 0 1 64.936063722647788 32.480318722955431 7.8211679674020491 1 rotate no_reflect no_shear #
lump $-1 $-1 $31 $4 #
transform $-1 1 0 0 0 1 0 0 0 1 64.936063722647788 32.480318722955431 7.8211679674020491 1 rotate no_reflect no_shear #
lump $-1 $-1 $32 $5 #
transform $-1 1 0 0 0 1 0 0 0 1 64.936063722647788 32.480318722955431 7.8211679674020491 1 rotate no_reflect no_shear #
lump $-1 $-1 $33 $6 #
transform $-1 1 0 0 0 1 0 0 0 1 64.936063722647788 32.480318722955431 7.8211679674020491 1 rotate no_reflect no_shear #
lump $-1 $-1 $34 $7 #
transform $-1 1 0 0 0 1 0 0 0 1 64.936063722647788 32.480318722955431 7.8211679674020491 1 rotate no_reflect no_shear #
lump $-1 $-1 $35 $8 #
transform $-1 1 0 0 0 1 0 0 0 1 64.936063722647788 32.480318722955431 7.8211679674020491 1 rotate no_reflect no_shear #
shell $-1 $-1 $-1 $36 $-1 $9 #
shell $-1 $-1 $-1 $37 $-1 $11 #
shell $-1 $-1 $-1 $38 $-1 $13 #
shell $-1 $-1 $-1 $39 $-1 $15 #
shell $-1 $-1 $-1 $40 $-1 $17 #
shell $-1 $-1 $-1 $41 $-1 $19 #
shell $-1 $-1 $-1 $42 $-1 $21 #
shell $-1 $-1 $-1 $43 $-1 $23 #
shell $-1 $-1 $-1 $44 $-1 $25 #
face $-1 $45 $46 $27 $-1 $47 forward single #
face $-1 $48 $49 $28 $-1 $50 reversed single #
face $-1 $51 $52 $29 $-1 $53 reversed single #
face $-1 $54 $55 $30 $-1 $56 reversed single #
face $-1 $57 $58 $31 $-1 $59 forward single #
face $-1 $60 $61 $32 $-1 $62 forward single #
face $-1 $63 $64 $33 $-1 $65 reversed single #
face $-1 $66 $67 $34 $-1 $68 forward single #
face $-1 $69 $70 $35 $-1 $71 forward single #
face $-1 $72 $73 $27 $-1 $74 reversed single #
loop $-1 $-1 $75 $36 #
plane-surface $-1 0 0 7.8211679674020491 0 0 1 1 0 0 forward_v I I I I #
face $-1 $76 $77 $28 $-1 $78 reversed single #
loop $-1 $-1 $79 $37 #
plane-surface $-1 -62.967273789314788 -24.951374624663494 0 0 -1 0 0 0 -1 forward_v I I I I #
face $-1 $80 $81 $29 $-1 $82 reversed single #
loop $-1 $-1 $83 $38 #
plane-surface $-1 -62.967273789314788 24.951374624663497 0 0 1 0 0 0 1 forward_v I I I I #
face $-1 $84 $85 $30 $-1 $86 reversed single #
loop $-1 $-1 $87 $39 #
plane-surface $-1 -151.8374801543859 -18.637477042267179 100.11301149627521 0 1 0 -0.66913061440640931 0 0.74314481823134659 forward_v I I I I #
face $-1 $88 $89 $31 $-1 $90 forward single #
loop $-1 $91 $92 $40 #
cone-surface $-1 -62.098534063989931 -15.837195451659237 5.1626011151292204 0.66913061440640931 0 -0.74314481823134659 0.74314481823134659 0 0.66913061440640931 1 I I 0 1 1 forward I I I I #
face $-1 $93 $94 $32 $-1 $95 forward single #
loop $-1 $96 $97 $41 #
cone-surface $-1 -62.098534063989931 -11.636773065747324 5.1626011151292204 0.66913061440640931 0 -0.74314481823134659 0.74314481823134659 0 0.66913061440640931 1 I I 0 1 1 forward I I I I #
face $-1 $98 $99 $33 $-1 $100 reversed single #
loop $-1 $-1 $101 $42 #
plane-surface $-1 -151.8374801543859 6.313897582396315 100.11301149627521 0 1 0 -0.66913061440640931 0 0.74314481823134659 forward_v I I I I #
face $-1 $102 $103 $34 $-1 $104 forward single #
loop $-1 $105 $106 $43 #
cone-surface $-1 -62.098534063989931 9.1141791730042598 5.1626011151292204 0.66913061440640931 0 -0.74314481823134659 0.74314481823134659 0 0.66913061440640931 1 I I 0 1 1 forward I I I I #
face $-1 $107 $108 $35 $-1 $109 forward single #
loop $-1 $110 $111 $44 #
cone-surface $-1 -62.098534063989931 13.314601558916166 5.1626011151292204 0.66913061440640931 0 -0.74314481823134659 0.74314481823134659 0 0.66913061440640931 1 I I 0 1 1 forward I I I I #
face $-1 $112 $113 $27 $-1 $114 reversed single #
loop $-1 $-1 $115 $45 #
plane-surface $-1 0 0 -7.8211679674020491 0 0 1 1 0 0 forward_v I I I I #
coedge $-1 $116 $117 $118 $119 forward $46 $-1 #
face $-1 $120 $121 $28 $-1 $122 forward single #
loop $-1 $-1 $123 $48 #
plane-surface $-1 -60.998483855981789 -28.715846673809462 0 -1 0 0 0 0 1 forward_v I I I I #
coedge $-1 $124 $125 $126 $127 forward $49 $-1 #
face $-1 $128 $129 $29 $-1 $130 reversed single #
loop $-1 $-1 $131 $51 #
plane-surface $-1 -60.998483855981789 28.715846673809466 0 -1 0 0 0 0 1 forward_v I I I I #
coedge $-1 $132 $133 $134 $135 reversed $52 $-1 #
face $-1 $136 $137 $30 $-1 $138 reversed single #
loop $-1 $-1 $139 $54 #
plane-surface $-1 -64.936063722647773 -13.736984258703281 3.5992129526227501 -0.66913061440640931 0 0.74314481823134659 0.74314481823134659 0 0.66913061440640931 forward_v I I I I #
coedge $-1 $140 $141 $142 $143 reversed $55 $-1 #
face $-1 $-1 $144 $31 $-1 $145 forward single #
loop $-1 $146 $147 $57 #
cone-surface $-1 -61.270917085302138 -15.837195451659237 4.2434393611303793 0.66913061440640931 0 -0.74314481823134659 0.3715724091156733 0 0.33456530720320465 1 I I -0.70710678118654746 0.70710678118654746 0.5 forward I I I I #
loop $-1 $-1 $148 $40 #
coedge $-1 $92 $92 $149 $150 reversed $58 $-1 #
face $-1 $-1 $151 $32 $-1 $152 forward single #
loop $-1 $153 $154 $60 #
cone-surface $-1 -61.270917085302138 -11.636773065747324 4.2434393611303793 0.66913061440640931 0 -0.74314481823134659 0.3715724091156733 0 0.33456530720320465 1 I I -0.70710678118654746 0.70710678118654746 0.5 forward I I I I #
loop $-1 $-1 $155 $41 #
coedge $-1 $97 $97 $156 $157 reversed $61 $-1 #
face $-1 $158 $159 $33 $-1 $160 reversed single #
loop $-1 $-1 $161 $63 #
plane-surface $-1 -64.936063722647773 11.214390365960213 3.5992129526227501 -0.66913061440640931 0 0.74314481823134659 0.74314481823134659 0 0.66913061440640931 forward_v I I I I #
coedge $-1 $162 $163 $164 $165 reversed $64 $-1 #
face $-1 $-1 $166 $34 $-1 $167 forward single #
loop $-1 $168 $169 $66 #
cone-surface $-1 -61.270917085302138 9.1141791730042598 4.2434393611303793 0.66913061440640931 0 -0.74314481823134659 0.3715724091156733 0 0.33456530720320465 1 I I -0.70710678118654746 0.70710678118654746 0.5 forward I I I I #
loop $-1 $-1 $170 $43 #
coedge $-1 $106 $106 $171 $172 reversed $67 $-1 #
face $-1 $-1 $173 $35 $-1 $174 forward single #
loop $-1 $175 $176 $69 #
cone-surface $-1 -61.270917085302138 13.314601558916166 4.2434393611303793 0.66913061440640931 0 -0.74314481823134659 0.3715724091156733 0 0.33456530720320465 1 I I -0.70710678118654746 0.70710678118654746 0.5 forward I I I I #
loop $-1 $-1 $177 $44 #
coedge $-1 $111 $111 $178 $179 reversed $70 $-1 #
face $-1 $180 $181 $27 $-1 $182 reversed single #
loop $-1 $-1 $183 $72 #
plane-surface $-1 0 -32.480318722955431 0 0 1 0 0 0 1 forward_v I I I I #
coedge $-1 $184 $185 $186 $187 forward $73 $-1 #
coedge $-1 $188 $75 $189 $190 forward $46 $-1 #
coedge $-1 $75 $188 $191 $192 forward $46 $-1 #
coedge $-1 $193 $194 $75 $119 reversed $195 $-1 #
edge $-1 $196 -32.480318722955431 $197 32.480318722955431 $118 $198 forward 7 unknown #
face $-1 $199 $200 $28 $-1 $201 reversed single #
loop $-1 $-1 $202 $76 #
plane-surface $-1 0 0 7.8211679674020491 0 0 1 1 0 0 forward_v I I I I #
coedge $-1 $203 $204 $205 $206 reversed $77 $-1 #
coedge $-1 $207 $79 $208 $209 reversed $49 $-1 #
coedge $-1 $79 $207 $210 $211 reversed $49 $-1 #
coedge $-1 $204 $203 $79 $127 reversed $77 $-1 #
edge $-1 $212 -7.8211679674020491 $213 7.8211679674020491 $126 $214 forward 7 unknown #
face $-1 $215 $216 $29 $-1 $217 reversed single #
loop $-1 $-1 $218 $80 #
plane-surface $-1 0 0 -7.8211679674020491 0 0 1 1 0 0 forward_v I I I I #
coedge $-1 $219 $220 $221 $222 forward $81 $-1 #
coedge $-1 $221 $83 $223 $224 reversed $52 $-1 #
coedge $-1 $83 $221 $225 $226 reversed $52 $-1 #
coedge $-1 $227 $228 $83 $135 forward $216 $-1 #
edge $-1 $229 -7.8211679674020491 $230 7.8211679674020491 $134 $231 forward 7 unknown #
face $-1 $232 $233 $30 $-1 $234 forward single #
loop $-1 $-1 $235 $84 #
plane-surface $-1 -151.8374801543859 -8.8364914751393826 100.11301149627521 0 -1 0 0.66913061440640931 0 -0.74314481823134659 forward_v I I I I #
coedge $-1 $236 $237 $238 $239 reversed $85 $-1 #
coedge $-1 $141 $87 $240 $241 reversed $55 $-1 #
coedge $-1 $87 $140 $236 $242 reversed $55 $-1 #
coedge $-1 $238 $243 $87 $143 forward $233 $-1 #
edge $-1 $244 10.982676354545163 $245 15.67163232889169 $142 $246 forward 7 unknown #
loop $-1 $-1 $149 $88 #
plane-surface $-1 -64.936063722647773 -13.736984258703281 3.5992129526227501 -0.66913061440640931 0 0.74314481823134659 0.74314481823134659 0 0.66913061440640931 forward_v I I I I #
loop $-1 $-1 $247 $57 #
coedge $-1 $147 $147 $148 $248 reversed $89 $-1 #
coedge $-1 $148 $148 $147 $248 forward $91 $-1 #
coedge $-1 $149 $149 $92 $150 forward $144 $-1 #
edge $-1 $249 0 $249 6.2831853071796004 $149 $250 forward 7 unknown #
loop $-1 $-1 $156 $93 #
plane-surface $-1 -64.936063722647773 -13.736984258703281 3.5992129526227501 -0.66913061440640931 0 0.74314481823134659 0.74314481823134659 0 0.66913061440640931 forward_v I I I I #
loop $-1 $-1 $251 $60 #
coedge $-1 $154 $154 $155 $252 reversed $94 $-1 #
coedge $-1 $155 $155 $154 $252 forward $96 $-1 #
coedge $-1 $156 $156 $97 $157 forward $151 $-1 #
edge $-1 $253 0 $253 6.2831853071796004 $156 $254 forward 7 unknown #
face $-1 $255 $256 $33 $-1 $257 forward single #
loop $-1 $-1 $258 $98 #
plane-surface $-1 -151.8374801543859 16.114883149524111 100.11301149627521 0 -1 0 0.66913061440640931 0 -0.74314481823134659 forward_v I I I I #
coedge $-1 $259 $260 $261 $262 reversed $99 $-1 #
coedge $-1 $163 $101 $263 $264 reversed $64 $-1 #
coedge $-1 $101 $162 $259 $265 reversed $64 $-1 #
coedge $-1 $261 $266 $101 $165 forward $256 $-1 #
edge $-1 $267 10.982676354545163 $268 15.67163232889169 $164 $269 forward 7 unknown #
loop $-1 $-1 $171 $102 #
plane-surface $-1 -64.936063722647773 11.214390365960213 3.5992129526227501 -0.66913061440640931 0 0.74314481823134659 0.74314481823134659 0 0.66913061440640931 forward_v I I I I #
loop $-1 $-1 $270 $66 #
coedge $-1 $169 $169 $170 $271 reversed $103 $-1 #
coedge $-1 $170 $170 $169 $271 forward $105 $-1 #
coedge $-1 $171 $171 $106 $172 forward $166 $-1 #
edge $-1 $272 0 $272 6.2831853071796004 $171 $273 forward 7 unknown #
loop $-1 $-1 $178 $107 #
plane-surface $-1 -64.936063722647773 11.214390365960213 3.5992129526227501 -0.66913061440640931 0 0.74314481823134659 0.74314481823134659 0 0.66913061440640931 forward_v I I I I #
loop $-1 $-1 $274 $69 #
coedge $-1 $176 $176 $177 $275 reversed $108 $-1 #
coedge $-1 $177 $177 $176 $275 forward $110 $-1 #
coedge $-1 $178 $178 $111 $179 forward $173 $-1 #
edge $-1 $276 0 $276 6.2831853071796004 $178 $277 forward 7 unknown #
face $-1 $278 $279 $27 $-1 $280 reversed single #
loop $-1 $-1 $281 $112 #
plane-surface $-1 -64.936063722647788 0 0 1 0 0 0 0 -1 forward_v I I I I #
coedge $-1 $282 $191 $283 $284 forward $113 $-1 #
coedge $-1 $285 $115 $282 $286 forward $73 $-1 #
coedge $-1 $115 $285 $287 $288 forward $73 $-1 #
coedge $-1 $194 $193 $115 $187 reversed $195 $-1 #
edge $-1 $289 -32.480318722955431 $290 32.480318722955431 $186 $291 forward 7 unknown #
coedge $-1 $117 $116 $292 $293 forward $46 $-1 #
coedge $-1 $294 $295 $116 $190 reversed $279 $-1 #
edge $-1 $197 -64.936063722647788 $296 64.936063722647788 $189 $297 forward 7 unknown #
coedge $-1 $183 $298 $117 $192 reversed $113 $-1 #
edge $-1 $299 -64.936063722647788 $196 64.936063722647788 $191 $300 forward 7 unknown #
coedge $-1 $186 $118 $298 $301 forward $195 $-1 #
coedge $-1 $118 $186 $294 $302 reversed $195 $-1 #
loop $-1 $-1 $193 $278 #
vertex $-1 $119 $303 #
vertex $-1 $119 $304 #
straight-curve $-1 64.936063722647788 0 7.8211679674020491 0 1 0 I I #
face $-1 $305 $306 $28 $-1 $307 reversed single #
loop $-1 $-1 $308 $120 #
plane-surface $-1 -64.936063722647788 0 0 1 0 0 0 0 -1 forward_v I I I I #
coedge $-1 $210 $309 $204 $310 forward $121 $-1 #
coedge $-1 $126 $123 $311 $312 reversed $77 $-1 #
coedge $-1 $123 $126 $202 $310 reversed $77 $-1 #
coedge $-1 $313 $314 $123 $206 forward $315 $-1 #
edge $-1 $316 -7.8211679674020491 $317 7.8211679674020491 $205 $318 forward 7 unknown #
coedge $-1 $125 $124 $308 $319 reversed $49 $-1 #
coedge $-1 $311 $320 $124 $209 forward $306 $-1 #
edge $-1 $321 -33.452426827990394 $213 -29.514846961324395 $208 $322 forward 7 unknown #
coedge $-1 $323 $202 $125 $211 forward $121 $-1 #
edge $-1 $212 29.514846961324395 $324 33.452426827990394 $210 $325 forward 7 unknown #
vertex $-1 $211 $326 #
vertex $-1 $209 $327 #
straight-curve $-1 -60.998483855981789 -24.951374624663494 0 0 0 -1 I I #
face $-1 $328 $329 $29 $-1 $330 forward single #
loop $-1 $-1 $134 $128 #
plane-surface $-1 -64.936063722647788 0 0 1 0 0 0 0 -1 forward_v I I I I #
coedge $-1 $223 $331 $219 $332 forward $129 $-1 #
coedge $-1 $333 $131 $218 $332 reversed $81 $-1 #
coedge $-1 $131 $333 $334 $335 reversed $81 $-1 #
coedge $-1 $133 $132 $131 $222 reversed $52 $-1 #
edge $-1 $336 -7.8211679674020491 $337 7.8211679674020491 $131 $338 forward 7 unknown #
coedge $-1 $339 $218 $132 $224 forward $129 $-1 #
edge $-1 $337 29.514846961324395 $229 33.452426827990394 $223 $340 forward 7 unknown #
coedge $-1 $334 $341 $133 $226 forward $329 $-1 #
edge $-1 $230 -33.452426827990394 $336 -29.514846961324395 $225 $342 forward 7 unknown #
coedge $-1 $343 $134 $341 $344 reversed $216 $-1 #
coedge $-1 $134 $343 $339 $345 reversed $216 $-1 #
vertex $-1 $345 $346 #
vertex $-1 $135 $347 #
straight-curve $-1 -64.936063722647788 24.951374624663497 0 0 0 1 I I #
face $-1 $-1 $348 $30 $-1 $349 reversed single #
loop $-1 $-1 $142 $136 #
plane-surface $-1 0 0 7.8211679674020491 0 0 1 1 0 0 forward_v I I I I #
coedge $-1 $350 $351 $352 $353 reversed $137 $-1 #
coedge $-1 $354 $139 $141 $242 forward $85 $-1 #
coedge $-1 $139 $354 $350 $355 forward $85 $-1 #
coedge $-1 $352 $142 $139 $239 forward $233 $-1 #
edge $-1 $245 -11.768984912915538 $356 -1.9679993457877423 $238 $357 forward 7 unknown #
coedge $-1 $358 $359 $140 $241 forward $348 $-1 #
edge $-1 $360 -46.457292795514867 $244 -42.235337780735556 $240 $361 forward 7 unknown #
edge $-1 $245 -6.3096126882860188 $360 1.9178179933549516e-014 $141 $362 forward 7 unknown #
coedge $-1 $142 $352 $358 $363 forward $233 $-1 #
vertex $-1 $143 $364 #
vertex $-1 $143 $365 #
straight-curve $-1 -75.91874007719295 -18.637477042267179 7.8211679674020473 1 0 0 I I #
coedge $-1 $247 $247 $-1 $366 reversed $146 $-1 #
edge $-1 $367 0 $367 6.2831853071796004 $147 $368 forward 7 unknown #
vertex $-1 $150 $369 #
ellipse-curve $-1 -62.591585735474524 -15.837195451659237 5.7101904600123934 -0.66913061440640931 0 0.74314481823134659 0.74314481823134659 0 0.66913061440640931 1 I I #
coedge $-1 $251 $251 $-1 $370 reversed $153 $-1 #
edge $-1 $371 0 $371 6.2831853071796004 $154 $372 forward 7 unknown #
vertex $-1 $157 $373 #
ellipse-curve $-1 -62.591585735474524 -11.636773065747324 5.7101904600123934 -0.66913061440640931 0 0.74314481823134659 0.74314481823134659 0 0.66913061440640931 1 I I #
face $-1 $-1 $374 $33 $-1 $375 reversed single #
loop $-1 $-1 $164 $158 #
plane-surface $-1 0 0 7.8211679674020491 0 0 1 1 0 0 forward_v I I I I #
coedge $-1 $376 $377 $378 $379 reversed $159 $-1 #
coedge $-1 $380 $161 $163 $265 forward $99 $-1 #
coedge $-1 $161 $380 $376 $381 forward $99 $-1 #
coedge $-1 $378 $164 $161 $262 forward $256 $-1 #
edge $-1 $268 0.70670239941620849 $382 10.507687966544005 $261 $383 forward 7 unknown #
coedge $-1 $384 $385 $162 $264 forward $374 $-1 #
edge $-1 $386 -46.457292795514867 $267 -42.235337780735556 $263 $387 forward 7 unknown #
edge $-1 $268 -6.3096126882860188 $386 1.9178179933549516e-014 $163 $388 forward 7 unknown #
coedge $-1 $164 $378 $384 $389 forward $256 $-1 #
vertex $-1 $165 $390 #
vertex $-1 $165 $391 #
straight-curve $-1 -75.91874007719295 6.313897582396315 7.8211679674020473 1 0 0 I I #
coedge $-1 $270 $270 $-1 $392 reversed $168 $-1 #
edge $-1 $393 0 $393 6.2831853071796004 $169 $394 forward 7 unknown #
vertex $-1 $172 $395 #
ellipse-curve $-1 -62.591585735474524 9.1141791730042598 5.7101904600123934 -0.66913061440640931 0 0.74314481823134659 0.74314481823134659 0 0.66913061440640931 1 I I #
coedge $-1 $274 $274 $-1 $396 reversed $175 $-1 #
edge $-1 $397 0 $397 6.2831853071796004 $176 $398 forward 7 unknown #
vertex $-1 $179 $399 #
ellipse-curve $-1 -62.591585735474524 13.314601558916166 5.7101904600123934 -0.66913061440640931 0 0.74314481823134659 0.74314481823134659 0 0.66913061440640931 1 I I #
face $-1 $-1 $195 $27 $-1 $400 reversed single #
loop $-1 $-1 $294 $180 #
plane-surface $-1 0 32.480318722955431 0 0 -1 0 0 0 -1 forward_v I I I I #
coedge $-1 $401 $292 $295 $402 forward $181 $-1 #
coedge $-1 $298 $183 $184 $286 reversed $113 $-1 #
coedge $-1 $292 $401 $183 $284 reversed $181 $-1 #
edge $-1 $299 -7.8211679674020491 $403 7.8211679674020491 $283 $404 forward 7 unknown #
coedge $-1 $185 $184 $401 $405 forward $73 $-1 #
edge $-1 $290 -64.936063722647788 $403 64.936063722647788 $282 $406 forward 7 unknown #
coedge $-1 $295 $294 $185 $288 reversed $279 $-1 #
edge $-1 $407 -64.936063722647788 $289 64.936063722647788 $287 $408 forward 7 unknown #
vertex $-1 $187 $409 #
vertex $-1 $301 $410 #
straight-curve $-1 64.936063722647788 0 -7.8211679674020491 0 -1 0 I I #
coedge $-1 $281 $283 $188 $293 reversed $181 $-1 #
edge $-1 $296 -32.480318722955431 $299 32.480318722955431 $292 $411 forward 7 unknown #
coedge $-1 $287 $189 $194 $302 forward $279 $-1 #
coedge $-1 $189 $287 $281 $402 reversed $279 $-1 #
vertex $-1 $190 $412 #
straight-curve $-1 0 32.480318722955431 7.8211679674020491 -1 0 0 I I #
coedge $-1 $191 $282 $193 $301 reversed $113 $-1 #
vertex $-1 $293 $413 #
straight-curve $-1 0 -32.480318722955431 7.8211679674020491 1 0 0 I I #
edge $-1 $196 -7.8211679674020491 $290 7.8211679674020491 $193 $414 forward 7 unknown #
edge $-1 $197 -7.8211679674020491 $289 7.8211679674020491 $194 $415 forward 7 unknown #
point $-1 64.936063722647788 -32.480318722955431 7.8211679674020491 #
point $-1 64.936063722647788 32.480318722955431 7.8211679674020491 #
face $-1 $-1 $315 $28 $-1 $416 reversed single #
loop $-1 $-1 $311 $199 #
plane-surface $-1 0 0 -7.8211679674020491 0 0 1 1 0 0 forward_v I I I I #
coedge $-1 $417 $418 $207 $319 forward $200 $-1 #
coedge $-1 $202 $323 $313 $419 forward $121 $-1 #
edge $-1 $317 -18.122395386050698 $212 -10.593451287758763 $202 $420 forward 7 unknown #
coedge $-1 $421 $208 $203 $312 forward $306 $-1 #
edge $-1 $213 10.593451287758763 $316 18.122395386050698 $311 $422 forward 7 unknown #
coedge $-1 $423 $205 $309 $419 reversed $315 $-1 #
coedge $-1 $205 $423 $421 $424 reversed $315 $-1 #
loop $-1 $-1 $205 $305 #
vertex $-1 $424 $425 #
vertex $-1 $206 $426 #
straight-curve $-1 -60.998483855981789 -32.480318722955431 0 0 0 1 I I #
edge $-1 $324 -7.8211679674020491 $321 7.8211679674020491 $308 $427 forward 7 unknown #
coedge $-1 $208 $421 $417 $428 forward $306 $-1 #
vertex $-1 $209 $429 #
straight-curve $-1 -31.483636894657394 -24.951374624663494 -7.8211679674020491 1 0 0 I I #
coedge $-1 $309 $210 $418 $430 forward $121 $-1 #
vertex $-1 $430 $431 #
straight-curve $-1 -31.483636894657394 -24.951374624663494 7.8211679674020491 -1 0 0 I I #
point $-1 -60.998483855981789 -24.951374624663494 7.8211679674020491 #
point $-1 -60.998483855981789 -24.951374624663494 -7.8211679674020491 #
face $-1 $-1 $432 $29 $-1 $433 reversed single #
loop $-1 $-1 $334 $215 #
plane-surface $-1 0 0 7.8211679674020491 0 0 1 1 0 0 forward_v I I I I #
coedge $-1 $218 $339 $434 $435 forward $129 $-1 #
edge $-1 $436 -18.122395386050698 $337 -10.593451287758764 $218 $437 forward 7 unknown #
coedge $-1 $220 $219 $438 $439 reversed $81 $-1 #
coedge $-1 $440 $225 $220 $335 forward $329 $-1 #
edge $-1 $336 10.593451287758764 $441 18.122395386050698 $334 $442 forward 7 unknown #
vertex $-1 $226 $443 #
vertex $-1 $224 $444 #
straight-curve $-1 -60.998483855981789 24.951374624663497 0 0 0 -1 I I #
coedge $-1 $331 $223 $228 $345 forward $129 $-1 #
straight-curve $-1 -31.483636894657394 24.951374624663497 -7.8211679674020491 -1 0 0 I I #
coedge $-1 $225 $440 $227 $344 forward $329 $-1 #
straight-curve $-1 -31.483636894657394 24.951374624663497 7.8211679674020491 1 0 0 I I #
coedge $-1 $228 $227 $445 $446 forward $216 $-1 #
edge $-1 $447 -32.480318722955431 $230 -24.951374624663497 $227 $448 forward 7 unknown #
edge $-1 $229 24.951374624663497 $449 32.480318722955431 $228 $450 forward 7 unknown #
point $-1 -64.936063722647788 24.951374624663497 -7.8211679674020491 #
point $-1 -64.936063722647788 24.951374624663497 7.8211679674020491 #
loop $-1 $-1 $240 $232 #
plane-surface $-1 -64.936063722647788 0 0 1 0 0 0 0 -1 forward_v I I I I #
coedge $-1 $351 $235 $237 $355 reversed $137 $-1 #
coedge $-1 $235 $350 $451 $452 reversed $137 $-1 #
coedge $-1 $243 $238 $235 $353 forward $233 $-1 #
edge $-1 $356 -15.67163232889169 $453 -10.982676354545163 $352 $454 forward 7 unknown #
coedge $-1 $237 $236 $359 $455 reversed $85 $-1 #
edge $-1 $456 -1.9178179933549516e-014 $356 6.3096126882860188 $350 $457 forward 7 unknown #
vertex $-1 $239 $458 #
straight-curve $-1 -60.247107748301261 -6.8684921293516403 7.8211679674020456 0 1 0 I I #
coedge $-1 $451 $240 $243 $363 reversed $348 $-1 #
coedge $-1 $240 $451 $354 $455 forward $348 $-1 #
vertex $-1 $241 $459 #
straight-curve $-1 -64.936063722647788 -18.637477042267179 50.056505748137603 0 0 1 I I #
straight-curve $-1 -64.936063722647773 -18.637477042267179 3.5992129526227501 -0.74314481823134659 0 -0.66913061440640931 I I #
edge $-1 $453 8.8364914751393826 $244 18.637477042267179 $358 $460 forward 7 unknown #
point $-1 -64.936063722647788 -18.637477042267179 7.8211679674020491 #
point $-1 -60.247107748301261 -18.637477042267179 7.8211679674020491 #
edge $-1 $461 1 $461 0 $247 $-1 forward 7 unknown #
vertex $-1 $248 $462 #
ellipse-curve $-1 -61.605482392505344 -15.837195451659237 4.6150117702460527 -0.66913061440640931 0 0.74314481823134659 0.74314481823134659 0 0.66913061440640931 1 I I #
point $-1 -61.848440917243174 -15.837195451659237 6.3793210744187974 #
edge $-1 $463 1 $463 0 $251 $-1 forward 7 unknown #
vertex $-1 $252 $464 #
ellipse-curve $-1 -61.605482392505344 -11.636773065747324 4.6150117702460527 -0.66913061440640931 0 0.74314481823134659 0.74314481823134659 0 0.66913061440640931 1 I I #
point $-1 -61.848440917243174 -11.636773065747324 6.3793210744187974 #
loop $-1 $-1 $263 $255 #
plane-surface $-1 -64.936063722647788 0 0 1 0 0 0 0 -1 forward_v I I I I #
coedge $-1 $377 $258 $260 $381 reversed $159 $-1 #
coedge $-1 $258 $376 $465 $466 reversed $159 $-1 #
coedge $-1 $266 $261 $258 $379 forward $256 $-1 #
edge $-1 $382 -15.67163232889169 $467 -10.982676354545163 $378 $468 forward 7 unknown #
coedge $-1 $260 $259 $385 $469 reversed $99 $-1 #
edge $-1 $470 -1.9178179933549516e-014 $382 6.3096126882860188 $376 $471 forward 7 unknown #
vertex $-1 $262 $472 #
straight-curve $-1 -60.247107748301261 5.6071951829801066 7.8211679674020456 0 1 0 I I #
coedge $-1 $465 $263 $266 $389 reversed $374 $-1 #
coedge $-1 $263 $465 $380 $469 forward $374 $-1 #
vertex $-1 $264 $473 #
straight-curve $-1 -64.936063722647788 6.313897582396315 50.056505748137603 0 0 1 I I #
straight-curve $-1 -64.936063722647773 6.313897582396315 3.5992129526227501 -0.74314481823134659 0 -0.66913061440640931 I I #
edge $-1 $467 -16.114883149524111 $267 -6.313897582396315 $384 $474 forward 7 unknown #
point $-1 -64.936063722647788 6.313897582396315 7.8211679674020491 #
point $-1 -60.247107748301261 6.313897582396315 7.8211679674020491 #
edge $-1 $475 1 $475 0 $270 $-1 forward 7 unknown #
vertex $-1 $271 $476 #
ellipse-curve $-1 -61.605482392505344 9.1141791730042598 4.6150117702460527 -0.66913061440640931 0 0.74314481823134659 0.74314481823134659 0 0.66913061440640931 1 I I #
point $-1 -61.848440917243174 9.1141791730042598 6.3793210744187974 #
edge $-1 $477 1 $477 0 $274 $-1 forward 7 unknown #
vertex $-1 $275 $478 #
ellipse-curve $-1 -61.605482392505344 13.314601558916166 4.6150117702460527 -0.66913061440640931 0 0.74314481823134659 0.74314481823134659 0 0.66913061440640931 1 I I #
point $-1 -61.848440917243174 13.314601558916166 6.3793210744187974 #
plane-surface $-1 64.936063722647788 0 0 -1 0 0 0 0 1 forward_v I I I I #
coedge $-1 $283 $281 $285 $405 reversed $181 $-1 #
edge $-1 $296 -7.8211679674020491 $407 7.8211679674020491 $295 $479 forward 7 unknown #
vertex $-1 $405 $480 #
straight-curve $-1 -64.936063722647788 -32.480318722955431 0 0 0 -1 I I #
edge $-1 $403 -32.480318722955431 $407 32.480318722955431 $401 $481 forward 7 unknown #
straight-curve $-1 0 -32.480318722955431 -7.8211679674020491 -1 0 0 I I #
vertex $-1 $288 $482 #
straight-curve $-1 0 32.480318722955431 -7.8211679674020491 1 0 0 I I #
point $-1 64.936063722647788 32.480318722955431 -7.8211679674020491 #
point $-1 64.936063722647788 -32.480318722955431 -7.8211679674020491 #
straight-curve $-1 -64.936063722647788 0 7.8211679674020491 0 -1 0 I I #
point $-1 -64.936063722647788 32.480318722955431 7.8211679674020491 #
point $-1 -64.936063722647788 -32.480318722955431 7.8211679674020491 #
straight-curve $-1 64.936063722647788 -32.480318722955431 0 0 0 -1 I I #
straight-curve $-1 64.936063722647788 32.480318722955431 0 0 0 -1 I I #
plane-surface $-1 0 -32.480318722955431 0 0 1 0 0 0 1 forward_v I I I I #
coedge $-1 $483 $308 $320 $428 reversed $200 $-1 #
coedge $-1 $308 $483 $323 $430 reversed $200 $-1 #
edge $-1 $484 -64.936063722647788 $317 -60.998483855981789 $313 $485 forward 7 unknown #
straight-curve $-1 -60.998483855981789 -14.357923336904731 7.8211679674020491 0 1 0 I I #
coedge $-1 $320 $311 $314 $424 forward $306 $-1 #
straight-curve $-1 -60.998483855981789 -14.357923336904731 -7.8211679674020491 0 -1 0 I I #
coedge $-1 $314 $313 $483 $486 forward $315 $-1 #
edge $-1 $316 60.998483855981789 $487 64.936063722647788 $314 $488 forward 7 unknown #
point $-1 -60.998483855981789 -32.480318722955431 -7.8211679674020491 #
point $-1 -60.998483855981789 -32.480318722955431 7.8211679674020491 #
straight-curve $-1 -64.936063722647788 -24.951374624663494 0 0 0 -1 I I #
edge $-1 $487 -32.480318722955431 $321 -24.951374624663494 $417 $489 forward 7 unknown #
point $-1 -64.936063722647788 -24.951374624663494 -7.8211679674020491 #
edge $-1 $324 24.951374624663494 $484 32.480318722955431 $418 $490 forward 7 unknown #
point $-1 -64.936063722647788 -24.951374624663494 7.8211679674020491 #
loop $-1 $-1 $438 $328 #
plane-surface $-1 0 32.480318722955431 0 0 -1 0 0 0 -1 forward_v I I I I #
coedge $-1 $445 $438 $331 $435 reversed $432 $-1 #
edge $-1 $449 -64.936063722647788 $436 -60.998483855981789 $434 $491 forward 7 unknown #
vertex $-1 $332 $492 #
straight-curve $-1 -60.998483855981789 14.357923336904733 -7.8211679674020491 0 -1 0 I I #
coedge $-1 $434 $493 $333 $439 forward $432 $-1 #
edge $-1 $441 -7.8211679674020491 $436 7.8211679674020491 $438 $494 forward 7 unknown #
coedge $-1 $341 $334 $493 $495 forward $329 $-1 #
vertex $-1 $495 $496 #
straight-curve $-1 -60.998483855981789 14.357923336904733 7.8211679674020491 0 1 0 I I #
point $-1 -60.998483855981789 24.951374624663497 7.8211679674020491 #
point $-1 -60.998483855981789 24.951374624663497 -7.8211679674020491 #
coedge $-1 $493 $434 $343 $446 reversed $432 $-1 #
edge $-1 $447 -7.8211679674020491 $449 7.8211679674020491 $445 $497 forward 7 unknown #
vertex $-1 $495 $498 #
straight-curve $-1 -64.936063722647788 0 7.8211679674020491 0 -1 0 I I #
vertex $-1 $435 $499 #
straight-curve $-1 -64.936063722647788 0 -7.8211679674020491 0 1 0 I I #
coedge $-1 $359 $358 $351 $452 forward $348 $-1 #
edge $-1 $453 42.235337780735556 $456 46.457292795514867 $451 $500 forward 7 unknown #
vertex $-1 $363 $501 #
straight-curve $-1 -75.91874007719295 -8.8364914751393826 7.8211679674020473 -1 0 0 I I #
edge $-1 $456 1.9679993457877423 $360 11.768984912915538 $359 $502 forward 7 unknown #
vertex $-1 $455 $503 #
straight-curve $-1 -64.936063722647773 -8.8364914751393826 3.5992129526227501 0.74314481823134659 0 0.66913061440640931 I I #
point $-1 -60.247107748301261 -8.8364914751393826 7.8211679674020491 #
point $-1 -64.936063722647788 -18.637477042267179 3.5992129526227372 #
straight-curve $-1 -64.936063722647788 0 7.8211679674020491 0 -1 0 I I #
vertex $-1 $366 $504 #
point $-1 -60.862337574273994 -15.837195451659237 5.284142384652462 #
vertex $-1 $370 $505 #
point $-1 -60.862337574273994 -11.636773065747324 5.284142384652462 #
coedge $-1 $385 $384 $377 $466 forward $374 $-1 #
edge $-1 $467 42.235337780735556 $470 46.457292795514867 $465 $506 forward 7 unknown #
vertex $-1 $389 $507 #
straight-curve $-1 -75.91874007719295 16.114883149524111 7.8211679674020473 -1 0 0 I I #
edge $-1 $470 -10.507687966544005 $386 -0.70670239941620849 $385 $508 forward 7 unknown #
vertex $-1 $469 $509 #
straight-curve $-1 -64.936063722647773 16.114883149524111 3.5992129526227501 0.74314481823134659 0 0.66913061440640931 I I #
point $-1 -60.247107748301261 16.114883149524111 7.8211679674020491 #
point $-1 -64.936063722647788 6.313897582396315 3.5992129526227372 #
straight-curve $-1 -64.936063722647788 0 7.8211679674020491 0 -1 0 I I #
vertex $-1 $392 $510 #
point $-1 -60.862337574273994 9.1141791730042598 5.284142384652462 #
vertex $-1 $396 $511 #
point $-1 -60.862337574273994 13.314601558916166 5.284142384652462 #
straight-curve $-1 -64.936063722647788 32.480318722955431 0 0 0 -1 I I #
point $-1 -64.936063722647788 -32.480318722955431 -7.8211679674020491 #
straight-curve $-1 -64.936063722647788 0 -7.8211679674020491 0 1 0 I I #
point $-1 -64.936063722647788 32.480318722955431 -7.8211679674020491 #
coedge $-1 $418 $417 $423 $486 reversed $200 $-1 #
vertex $-1 $430 $512 #
straight-curve $-1 0 -32.480318722955431 7.8211679674020491 1 0 0 I I #
edge $-1 $484 -7.8211679674020491 $487 7.8211679674020491 $483 $513 forward 7 unknown #
vertex $-1 $428 $514 #
straight-curve $-1 0 -32.480318722955431 -7.8211679674020491 -1 0 0 I I #
straight-curve $-1 -64.936063722647788 0 -7.8211679674020491 0 1 0 I I #
straight-curve $-1 -64.936063722647788 0 7.8211679674020491 0 -1 0 I I #
straight-curve $-1 0 32.480318722955431 -7.8211679674020491 1 0 0 I I #
point $-1 -60.998483855981789 32.480318722955431 -7.8211679674020491 #
coedge $-1 $438 $445 $440 $495 reversed $432 $-1 #
straight-curve $-1 -60.998483855981789 32.480318722955431 0 0 0 -1 I I #
edge $-1 $441 60.998483855981789 $447 64.936063722647788 $493 $515 forward 7 unknown #
point $-1 -60.998483855981789 32.480318722955431 7.8211679674020491 #
straight-curve $-1 -64.936063722647788 32.480318722955431 0 0 0 -1 I I #
point $-1 -64.936063722647788 32.480318722955431 7.8211679674020491 #
point $-1 -64.936063722647788 32.480318722955431 -7.8211679674020491 #
straight-curve $-1 -64.936063722647788 -8.8364914751393826 50.056505748137603 0 0 -1 I I #
point $-1 -64.936063722647788 -8.8364914751393826 7.8211679674020491 #
straight-curve $-1 -64.936063722647788 -6.8684921293516403 3.5992129526227443 0 -1 0 I I #
point $-1 -64.936063722647788 -8.8364914751393826 3.5992129526227372 #
point $-1 -60.936351778098931 -15.837195451659237 3.871866952014706 #
point $-1 -60.936351778098931 -11.636773065747324 3.871866952014706 #
straight-curve $-1 -64.936063722647788 16.114883149524111 50.056505748137603 0 0 -1 I I #
point $-1 -64.936063722647788 16.114883149524111 7.8211679674020491 #
straight-curve $-1 -64.936063722647788 5.6071951829801066 3.5992129526227443 0 -1 0 I I #
point $-1 -64.936063722647788 16.114883149524111 3.5992129526227372 #
point $-1 -60.936351778098931 9.1141791730042598 3.871866952014706 #
point $-1 -60.936351778098931 13.314601558916166 3.871866952014706 #
point $-1 -64.936063722647788 -32.480318722955431 7.8211679674020491 #
straight-curve $-1 -64.936063722647788 -32.480318722955431 0 0 0 -1 I I #
point $-1 -64.936063722647788 -32.480318722955431 -7.8211679674020491 #
straight-curve $-1 0 32.480318722955431 7.8211679674020491 -1 0 0 I I #
End-of-ACIS-data 