500 0 13 0           
7 Unknown 11 ACIS 5.0 NT 24 Thu Mar 25 17:29:02 1999 
-1 9.9999999999999995e-007 1e-010 
body $-1 $13 $-1 $14 #
body $-1 $15 $-1 $16 #
body $-1 $17 $-1 $18 #
body $-1 $19 $-1 $20 #
body $-1 $21 $-1 $22 #
body $-1 $23 $-1 $24 #
body $-1 $25 $-1 $26 #
body $-1 $27 $-1 $28 #
body $-1 $29 $-1 $30 #
body $-1 $31 $-1 $32 #
body $-1 $33 $-1 $34 #
body $-1 $35 $-1 $36 #
body $-1 $37 $-1 $38 #
lump $-1 $-1 $39 $0 #
transform $-1 1 0 0 0 1 0 0 0 1 45.020905178991057 24.535823124617774 12.230396845107332 1 rotate no_reflect no_shear #
lump $-1 $-1 $40 $1 #
transform $-1 1 0 0 0 1 0 0 0 1 45.020905178991057 24.535823124617774 12.230396845107332 1 rotate no_reflect no_shear #
lump $-1 $-1 $41 $2 #
transform $-1 1 0 0 0 1 0 0 0 1 45.020905178991057 24.535823124617774 12.230396845107332 1 rotate no_reflect no_shear #
lump $-1 $-1 $42 $3 #
transform $-1 1 0 0 0 1 0 0 0 1 45.020905178991057 24.535823124617774 12.230396845107332 1 rotate no_reflect no_shear #
lump $-1 $-1 $43 $4 #
transform $-1 1 0 0 0 1 0 0 0 1 45.020905178991057 24.535823124617774 12.230396845107332 1 rotate no_reflect no_shear #
lump $-1 $-1 $44 $5 #
transform $-1 1 0 0 0 1 0 0 0 1 45.020905178991057 24.535823124617774 12.230396845107332 1 rotate no_reflect no_shear #
lump $-1 $-1 $45 $6 #
transform $-1 1 0 0 0 1 0 0 0 1 45.020905178991057 24.535823124617774 12.230396845107332 1 rotate no_reflect no_shear #
lump $-1 $-1 $46 $7 #
transform $-1 1 0 0 0 1 0 0 0 1 45.020905178991057 24.535823124617774 12.230396845107332 1 rotate no_reflect no_shear #
lump $-1 $-1 $47 $8 #
transform $-1 1 0 0 0 1 0 0 0 1 45.020905178991057 24.535823124617774 12.230396845107332 1 rotate no_reflect no_shear #
lump $-1 $-1 $48 $9 #
transform $-1 1 0 0 0 1 0 0 0 1 45.020905178991057 24.535823124617774 12.230396845107332 1 rotate no_reflect no_shear #
lump $-1 $-1 $49 $10 #
transform $-1 1 0 0 0 1 0 0 0 1 45.020905178991057 24.535823124617774 12.230396845107332 1 rotate no_reflect no_shear #
lump $-1 $-1 $50 $11 #
transform $-1 1 0 0 0 1 0 0 0 1 45.020905178991057 24.535823124617774 12.230396845107332 1 rotate no_reflect no_shear #
lump $-1 $-1 $51 $12 #
transform $-1 1 0 0 0 1 0 0 0 1 45.020905178991057 24.535823124617774 12.230396845107332 1 rotate no_reflect no_shear #
shell $-1 $-1 $-1 $52 $-1 $13 #
shell $-1 $-1 $-1 $53 $-1 $15 #
shell $-1 $-1 $-1 $54 $-1 $17 #
shell $-1 $-1 $-1 $55 $-1 $19 #
shell $-1 $-1 $-1 $56 $-1 $21 #
shell $-1 $-1 $-1 $57 $-1 $23 #
shell $-1 $-1 $-1 $58 $-1 $25 #
shell $-1 $-1 $-1 $59 $-1 $27 #
shell $-1 $-1 $-1 $60 $-1 $29 #
shell $-1 $-1 $-1 $61 $-1 $31 #
shell $-1 $-1 $-1 $62 $-1 $33 #
shell $-1 $-1 $-1 $63 $-1 $35 #
shell $-1 $-1 $-1 $64 $-1 $37 #
face $-1 $65 $66 $39 $-1 $67 forward single #
face $-1 $68 $69 $40 $-1 $70 reversed single #
face $-1 $71 $72 $41 $-1 $73 forward single #
face $-1 $74 $75 $42 $-1 $76 forward single #
face $-1 $77 $78 $43 $-1 $79 reversed single #
face $-1 $80 $81 $44 $-1 $82 forward single #
face $-1 $83 $84 $45 $-1 $85 forward single #
face $-1 $86 $87 $46 $-1 $88 reversed single #
face $-1 $89 $90 $47 $-1 $91 forward single #
face $-1 $92 $93 $48 $-1 $94 forward single #
face $-1 $95 $96 $49 $-1 $97 reversed single #
face $-1 $98 $99 $50 $-1 $100 forward single #
face $-1 $101 $102 $51 $-1 $103 forward single #
face $-1 $104 $105 $39 $-1 $106 reversed single #
loop $-1 $-1 $107 $52 #
plane-surface $-1 0 0 12.230396845107332 0 0 1 1 0 0 forward_v I I I I #
face $-1 $108 $109 $40 $-1 $110 reversed single #
loop $-1 $-1 $111 $53 #
plane-surface $-1 -34.495120046373671 61.969206632550964 96.269125379336202 -1 0 0 0 0.7660444514056185 0.64278759981090561 forward_v I I I I #
face $-1 $112 $113 $41 $-1 $114 forward single #
loop $-1 $115 $116 $54 #
cone-surface $-1 -42.013537998243237 18.257628109129051 5.2712159083493662 0 -0.7660444514056185 -0.64278759981090561 1.5 0 0 1 I I 0 1 1.5 forward I I I I #
face $-1 $117 $118 $42 $-1 $119 forward single #
loop $-1 $120 $121 $55 #
cone-surface $-1 -37.502487227121499 18.257628109129051 5.2712159083493662 0 -0.7660444514056185 -0.64278759981090561 1.5 0 0 1 I I 0 1 1.5 forward I I I I #
face $-1 $122 $123 $43 $-1 $124 reversed single #
loop $-1 $-1 $125 $56 #
plane-surface $-1 -7.9897783045854354 61.969206632550964 96.269125379336202 -1 0 0 0 0.7660444514056185 0.64278759981090561 forward_v I I I I #
face $-1 $126 $127 $44 $-1 $128 forward single #
loop $-1 $129 $130 $57 #
cone-surface $-1 -15.50819625645499 18.257628109129051 5.2712159083493662 0 -0.7660444514056185 -0.64278759981090561 1.5 0 0 1 I I 0 1 1.5 forward I I I I #
face $-1 $131 $132 $45 $-1 $133 forward single #
loop $-1 $134 $135 $58 #
cone-surface $-1 -10.997145485333256 18.257628109129051 5.2712159083493662 0 -0.7660444514056185 -0.64278759981090561 1.5 0 0 1 I I 0 1 1.5 forward I I I I #
face $-1 $136 $137 $46 $-1 $138 reversed single #
loop $-1 $-1 $139 $59 #
plane-surface $-1 18.515563437202811 61.969206632550964 96.269125379336202 -1 0 0 0 0.7660444514056185 0.64278759981090561 forward_v I I I I #
face $-1 $140 $141 $47 $-1 $142 forward single #
loop $-1 $143 $144 $60 #
cone-surface $-1 10.997145485333249 18.257628109129051 5.2712159083493662 0 -0.7660444514056185 -0.64278759981090561 1.5 0 0 1 I I 0 1 1.5 forward I I I I #
face $-1 $145 $146 $48 $-1 $147 forward single #
loop $-1 $148 $149 $61 #
cone-surface $-1 15.508196256454987 18.257628109129051 5.2712159083493662 0 -0.7660444514056185 -0.64278759981090561 1.5 0 0 1 I I 0 1 1.5 forward I I I I #
face $-1 $150 $151 $49 $-1 $152 reversed single #
loop $-1 $-1 $153 $62 #
plane-surface $-1 39.758012612682364 -7.0068225866981777 38.391366216700142 0 0.7660444514056185 0.64278759981090561 1 0 0 forward_v I I I I #
face $-1 $154 $155 $50 $-1 $156 forward single #
loop $-1 $157 $158 $63 #
cone-surface $-1 37.502487227121492 18.257628109129051 5.2712159083493662 0 -0.7660444514056185 -0.64278759981090561 1.5 0 0 1 I I 0 1 1.5 forward I I I I #
face $-1 $159 $160 $51 $-1 $161 forward single #
loop $-1 $162 $163 $64 #
cone-surface $-1 42.013537998243237 18.257628109129051 5.2712159083493662 0 -0.7660444514056185 -0.64278759981090561 1.5 0 0 1 I I 0 1 1.5 forward I I I I #
face $-1 $164 $165 $39 $-1 $166 reversed single #
loop $-1 $-1 $167 $65 #
plane-surface $-1 0 0 -12.230396845107332 0 0 1 1 0 0 forward_v I I I I #
coedge $-1 $168 $169 $170 $171 forward $66 $-1 #
face $-1 $172 $173 $40 $-1 $174 reversed single #
loop $-1 $-1 $175 $68 #
plane-surface $-1 -39.758012612682364 -7.0068225866981777 38.391366216700142 0 0.7660444514056185 0.64278759981090561 1 0 0 forward_v I I I I #
coedge $-1 $176 $177 $178 $179 reversed $69 $-1 #
face $-1 $-1 $180 $41 $-1 $181 forward single #
loop $-1 $182 $183 $71 #
cone-surface $-1 -42.013537998243237 16.200393022632657 3.5449907512199275 0 -0.7660444514056185 -0.64278759981090561 0.75 0 0 1 I I -0.70710678118654757 0.70710678118654757 0.75 forward I I I I #
loop $-1 $-1 $184 $54 #
coedge $-1 $116 $116 $185 $186 reversed $72 $-1 #
face $-1 $-1 $187 $42 $-1 $188 forward single #
loop $-1 $189 $190 $74 #
cone-surface $-1 -37.502487227121499 16.200393022632657 3.5449907512199275 0 -0.7660444514056185 -0.64278759981090561 0.75 0 0 1 I I -0.70710678118654757 0.70710678118654757 0.75 forward I I I I #
loop $-1 $-1 $191 $55 #
coedge $-1 $121 $121 $192 $193 reversed $75 $-1 #
face $-1 $194 $195 $43 $-1 $196 reversed single #
loop $-1 $-1 $197 $77 #
plane-surface $-1 -13.252670870894125 -7.0068225866981777 38.391366216700142 0 0.7660444514056185 0.64278759981090561 1 0 0 forward_v I I I I #
coedge $-1 $198 $199 $200 $201 reversed $78 $-1 #
face $-1 $-1 $202 $44 $-1 $203 forward single #
loop $-1 $204 $205 $80 #
cone-surface $-1 -15.50819625645499 16.200393022632657 3.5449907512199275 0 -0.7660444514056185 -0.64278759981090561 0.75 0 0 1 I I -0.70710678118654757 0.70710678118654757 0.75 forward I I I I #
loop $-1 $-1 $206 $57 #
coedge $-1 $130 $130 $207 $208 reversed $81 $-1 #
face $-1 $-1 $209 $45 $-1 $210 forward single #
loop $-1 $211 $212 $83 #
cone-surface $-1 -10.997145485333256 16.200393022632657 3.5449907512199275 0 -0.7660444514056185 -0.64278759981090561 0.75 0 0 1 I I -0.70710678118654757 0.70710678118654757 0.75 forward I I I I #
loop $-1 $-1 $213 $58 #
coedge $-1 $135 $135 $214 $215 reversed $84 $-1 #
face $-1 $216 $217 $46 $-1 $218 reversed single #
loop $-1 $-1 $219 $86 #
plane-surface $-1 13.252670870894121 -7.0068225866981777 38.391366216700142 0 0.7660444514056185 0.64278759981090561 1 0 0 forward_v I I I I #
coedge $-1 $220 $221 $222 $223 reversed $87 $-1 #
face $-1 $-1 $224 $47 $-1 $225 forward single #
loop $-1 $226 $227 $89 #
cone-surface $-1 10.997145485333249 16.200393022632657 3.5449907512199275 0 -0.7660444514056185 -0.64278759981090561 0.75 0 0 1 I I -0.70710678118654757 0.70710678118654757 0.75 forward I I I I #
loop $-1 $-1 $228 $60 #
coedge $-1 $144 $144 $229 $230 reversed $90 $-1 #
face $-1 $-1 $231 $48 $-1 $232 forward single #
loop $-1 $233 $234 $92 #
cone-surface $-1 15.508196256454987 16.200393022632657 3.5449907512199275 0 -0.7660444514056185 -0.64278759981090561 0.75 0 0 1 I I -0.70710678118654757 0.70710678118654757 0.75 forward I I I I #
loop $-1 $-1 $235 $61 #
coedge $-1 $149 $149 $236 $237 reversed $93 $-1 #
face $-1 $238 $239 $49 $-1 $240 forward single #
loop $-1 $-1 $241 $95 #
plane-surface $-1 34.495120046373671 61.969206632550964 96.269125379336202 1 0 0 0 -0.7660444514056185 -0.64278759981090561 forward_v I I I I #
coedge $-1 $242 $243 $244 $245 reversed $96 $-1 #
face $-1 $-1 $246 $50 $-1 $247 forward single #
loop $-1 $248 $249 $98 #
cone-surface $-1 37.502487227121492 16.200393022632657 3.5449907512199275 0 -0.7660444514056185 -0.64278759981090561 0.75 0 0 1 I I -0.70710678118654757 0.70710678118654757 0.75 forward I I I I #
loop $-1 $-1 $250 $63 #
coedge $-1 $158 $158 $251 $252 reversed $99 $-1 #
face $-1 $-1 $253 $51 $-1 $254 forward single #
loop $-1 $255 $256 $101 #
cone-surface $-1 42.013537998243237 16.200393022632657 3.5449907512199275 0 -0.7660444514056185 -0.64278759981090561 0.75 0 0 1 I I -0.70710678118654757 0.70710678118654757 0.75 forward I I I I #
loop $-1 $-1 $257 $64 #
coedge $-1 $163 $163 $258 $259 reversed $102 $-1 #
face $-1 $260 $261 $39 $-1 $262 reversed single #
loop $-1 $-1 $263 $104 #
plane-surface $-1 0 -24.535823124617774 0 0 1 0 0 0 1 forward_v I I I I #
coedge $-1 $264 $265 $266 $267 forward $105 $-1 #
coedge $-1 $268 $107 $269 $270 forward $66 $-1 #
coedge $-1 $107 $268 $271 $272 forward $66 $-1 #
coedge $-1 $273 $274 $107 $171 reversed $275 $-1 #
edge $-1 $276 -24.535823124617774 $277 24.535823124617774 $170 $278 forward 7 unknown #
face $-1 $279 $280 $40 $-1 $281 forward single #
loop $-1 $-1 $178 $108 #
plane-surface $-1 0 24.535823124617774 0 0 -1 0 0 0 -1 forward_v I I I I #
coedge $-1 $282 $283 $284 $285 reversed $109 $-1 #
coedge $-1 $177 $111 $286 $287 reversed $69 $-1 #
coedge $-1 $111 $176 $282 $288 reversed $69 $-1 #
coedge $-1 $284 $289 $111 $179 forward $173 $-1 #
edge $-1 $290 35.904165844560765 $291 47.33425880353419 $178 $292 forward 7 unknown #
loop $-1 $-1 $185 $112 #
plane-surface $-1 -39.758012612682364 -7.0068225866981777 38.391366216700142 0 0.7660444514056185 0.64278759981090561 1 0 0 forward_v I I I I #
loop $-1 $-1 $293 $71 #
coedge $-1 $183 $183 $184 $294 reversed $113 $-1 #
coedge $-1 $184 $184 $183 $294 forward $115 $-1 #
coedge $-1 $185 $185 $116 $186 forward $180 $-1 #
edge $-1 $295 -2.9193086844427995e-016 $295 6.2831853071796004 $185 $296 forward 7 unknown #
loop $-1 $-1 $192 $117 #
plane-surface $-1 -39.758012612682364 -7.0068225866981777 38.391366216700142 0 0.7660444514056185 0.64278759981090561 1 0 0 forward_v I I I I #
loop $-1 $-1 $297 $74 #
coedge $-1 $190 $190 $191 $298 reversed $118 $-1 #
coedge $-1 $191 $191 $190 $298 forward $120 $-1 #
coedge $-1 $192 $192 $121 $193 forward $187 $-1 #
edge $-1 $299 -2.9193086844427995e-016 $299 6.2831853071796004 $192 $300 forward 7 unknown #
face $-1 $301 $302 $43 $-1 $303 forward single #
loop $-1 $-1 $304 $122 #
plane-surface $-1 -18.515563437202815 61.969206632550964 96.269125379336202 1 0 0 0 -0.7660444514056185 -0.64278759981090561 forward_v I I I I #
coedge $-1 $305 $306 $307 $308 reversed $123 $-1 #
coedge $-1 $199 $125 $309 $310 reversed $78 $-1 #
coedge $-1 $125 $198 $305 $311 reversed $78 $-1 #
coedge $-1 $307 $312 $125 $201 forward $313 $-1 #
edge $-1 $314 35.904165844560765 $315 47.33425880353419 $200 $316 forward 7 unknown #
loop $-1 $-1 $207 $126 #
plane-surface $-1 -13.252670870894125 -7.0068225866981777 38.391366216700142 0 0.7660444514056185 0.64278759981090561 1 0 0 forward_v I I I I #
loop $-1 $-1 $317 $80 #
coedge $-1 $205 $205 $206 $318 reversed $127 $-1 #
coedge $-1 $206 $206 $205 $318 forward $129 $-1 #
coedge $-1 $207 $207 $130 $208 forward $202 $-1 #
edge $-1 $319 -2.9193086844427995e-016 $319 6.2831853071796004 $207 $320 forward 7 unknown #
loop $-1 $-1 $214 $131 #
plane-surface $-1 -13.252670870894125 -7.0068225866981777 38.391366216700142 0 0.7660444514056185 0.64278759981090561 1 0 0 forward_v I I I I #
loop $-1 $-1 $321 $83 #
coedge $-1 $212 $212 $213 $322 reversed $132 $-1 #
coedge $-1 $213 $213 $212 $322 forward $134 $-1 #
coedge $-1 $214 $214 $135 $215 forward $209 $-1 #
edge $-1 $323 -2.9193086844427995e-016 $323 6.2831853071796004 $214 $324 forward 7 unknown #
face $-1 $325 $326 $46 $-1 $327 forward single #
loop $-1 $-1 $328 $136 #
plane-surface $-1 7.9897783045854318 61.969206632550964 96.269125379336202 1 0 0 0 -0.7660444514056185 -0.64278759981090561 forward_v I I I I #
coedge $-1 $329 $330 $331 $332 reversed $137 $-1 #
coedge $-1 $221 $139 $333 $334 reversed $87 $-1 #
coedge $-1 $139 $220 $329 $335 reversed $87 $-1 #
coedge $-1 $331 $336 $139 $223 forward $337 $-1 #
edge $-1 $338 35.904165844560765 $339 47.33425880353419 $222 $340 forward 7 unknown #
loop $-1 $-1 $229 $140 #
plane-surface $-1 13.252670870894121 -7.0068225866981777 38.391366216700142 0 0.7660444514056185 0.64278759981090561 1 0 0 forward_v I I I I #
loop $-1 $-1 $341 $89 #
coedge $-1 $227 $227 $228 $342 reversed $141 $-1 #
coedge $-1 $228 $228 $227 $342 forward $143 $-1 #
coedge $-1 $229 $229 $144 $230 forward $224 $-1 #
edge $-1 $343 -2.9193086844427995e-016 $343 6.2831853071796004 $229 $344 forward 7 unknown #
loop $-1 $-1 $236 $145 #
plane-surface $-1 13.252670870894121 -7.0068225866981777 38.391366216700142 0 0.7660444514056185 0.64278759981090561 1 0 0 forward_v I I I I #
loop $-1 $-1 $345 $92 #
coedge $-1 $234 $234 $235 $346 reversed $146 $-1 #
coedge $-1 $235 $235 $234 $346 forward $148 $-1 #
coedge $-1 $236 $236 $149 $237 forward $231 $-1 #
edge $-1 $347 -2.9193086844427995e-016 $347 6.2831853071796004 $236 $348 forward 7 unknown #
face $-1 $349 $350 $49 $-1 $351 reversed single #
loop $-1 $-1 $352 $150 #
plane-surface $-1 0 0 12.230396845107332 0 0 1 1 0 0 forward_v I I I I #
coedge $-1 $353 $354 $355 $356 reversed $151 $-1 #
coedge $-1 $357 $153 $358 $359 reversed $96 $-1 #
coedge $-1 $153 $357 $353 $360 forward $96 $-1 #
coedge $-1 $355 $361 $153 $245 forward $362 $-1 #
edge $-1 $363 -25.141898872649875 $364 -14.616113740032489 $244 $365 forward 7 unknown #
loop $-1 $-1 $251 $154 #
plane-surface $-1 39.758012612682364 -7.0068225866981777 38.391366216700142 0 0.7660444514056185 0.64278759981090561 1 0 0 forward_v I I I I #
loop $-1 $-1 $366 $98 #
coedge $-1 $249 $249 $250 $367 reversed $155 $-1 #
coedge $-1 $250 $250 $249 $367 forward $157 $-1 #
coedge $-1 $251 $251 $158 $252 forward $246 $-1 #
edge $-1 $368 -2.9193086844427995e-016 $368 6.2831853071796004 $251 $369 forward 7 unknown #
loop $-1 $-1 $258 $159 #
plane-surface $-1 39.758012612682364 -7.0068225866981777 38.391366216700142 0 0.7660444514056185 0.64278759981090561 1 0 0 forward_v I I I I #
loop $-1 $-1 $370 $101 #
coedge $-1 $256 $256 $257 $371 reversed $160 $-1 #
coedge $-1 $257 $257 $256 $371 forward $162 $-1 #
coedge $-1 $258 $258 $163 $259 forward $253 $-1 #
edge $-1 $372 -2.9193086844427995e-016 $372 6.2831853071796004 $258 $373 forward 7 unknown #
face $-1 $374 $375 $39 $-1 $376 reversed single #
loop $-1 $-1 $377 $164 #
plane-surface $-1 -45.020905178991057 0 0 1 0 0 0 0 -1 forward_v I I I I #
coedge $-1 $378 $271 $379 $380 forward $165 $-1 #
coedge $-1 $381 $167 $378 $382 forward $105 $-1 #
coedge $-1 $167 $381 $383 $384 forward $105 $-1 #
coedge $-1 $274 $273 $167 $267 reversed $275 $-1 #
edge $-1 $385 -24.535823124617774 $386 24.535823124617774 $266 $387 forward 7 unknown #
coedge $-1 $169 $168 $388 $389 forward $66 $-1 #
coedge $-1 $390 $391 $168 $270 reversed $375 $-1 #
edge $-1 $277 -45.020905178991057 $392 45.020905178991057 $269 $393 forward 7 unknown #
coedge $-1 $263 $394 $169 $272 reversed $165 $-1 #
edge $-1 $395 -45.020905178991057 $276 45.020905178991057 $271 $396 forward 7 unknown #
coedge $-1 $266 $170 $394 $397 forward $275 $-1 #
coedge $-1 $170 $266 $390 $398 reversed $275 $-1 #
loop $-1 $-1 $273 $374 #
vertex $-1 $171 $399 #
vertex $-1 $171 $400 #
straight-curve $-1 45.020905178991057 0 12.230396845107332 0 1 0 I I #
face $-1 $-1 $401 $40 $-1 $402 reversed single #
loop $-1 $-1 $286 $172 #
plane-surface $-1 0 0 12.230396845107332 0 0 1 1 0 0 forward_v I I I I #
coedge $-1 $403 $175 $177 $288 forward $109 $-1 #
coedge $-1 $175 $403 $404 $405 reversed $109 $-1 #
coedge $-1 $406 $178 $175 $285 forward $173 $-1 #
edge $-1 $291 14.616113740032489 $407 25.141898872649875 $284 $408 forward 7 unknown #
coedge $-1 $409 $410 $176 $287 forward $280 $-1 #
edge $-1 $411 -16.039766726750795 $290 -6.4487801916577077 $286 $412 forward 7 unknown #
edge $-1 $291 -49.071646249235577 $411 -34.150719744252349 $177 $413 forward 7 unknown #
coedge $-1 $178 $406 $409 $414 reversed $173 $-1 #
vertex $-1 $414 $415 #
vertex $-1 $179 $416 #
straight-curve $-1 -34.495120046373671 24.535823124617774 48.134562689668101 0 0 -1 I I #
coedge $-1 $293 $293 $-1 $417 reversed $182 $-1 #
edge $-1 $418 0 $418 6.2831853071796004 $183 $419 forward 7 unknown #
vertex $-1 $186 $420 #
ellipse-curve $-1 -42.013537998243237 19.740329857071227 6.5153503656206215 0 0.7660444514056185 0.64278759981090561 1.5 0 0 1 I I #
coedge $-1 $297 $297 $-1 $421 reversed $189 $-1 #
edge $-1 $422 0 $422 6.2831853071796004 $190 $423 forward 7 unknown #
vertex $-1 $193 $424 #
ellipse-curve $-1 -37.502487227121499 19.740329857071227 6.5153503656206215 0 0.7660444514056185 0.64278759981090561 1.5 0 0 1 I I #
face $-1 $-1 $313 $43 $-1 $425 reversed single #
loop $-1 $-1 $426 $194 #
plane-surface $-1 0 0 12.230396845107332 0 0 1 1 0 0 forward_v I I I I #
coedge $-1 $427 $428 $429 $430 reversed $195 $-1 #
coedge $-1 $431 $197 $199 $311 forward $123 $-1 #
coedge $-1 $197 $431 $427 $432 forward $123 $-1 #
coedge $-1 $429 $200 $197 $308 forward $313 $-1 #
edge $-1 $315 1.3634428691383729 $433 11.889228001755752 $307 $434 forward 7 unknown #
coedge $-1 $435 $436 $198 $310 forward $302 $-1 #
edge $-1 $437 -16.039766726750795 $314 -6.4487801916577077 $309 $438 forward 7 unknown #
edge $-1 $315 -49.071646249235577 $437 -34.150719744252349 $199 $439 forward 7 unknown #
coedge $-1 $200 $429 $435 $440 reversed $313 $-1 #
loop $-1 $-1 $429 $301 #
vertex $-1 $440 $441 #
vertex $-1 $201 $442 #
straight-curve $-1 -7.9897783045854354 24.535823124617774 48.134562689668101 0 0 -1 I I #
coedge $-1 $317 $317 $-1 $443 reversed $204 $-1 #
edge $-1 $444 0 $444 6.2831853071796004 $205 $445 forward 7 unknown #
vertex $-1 $208 $446 #
ellipse-curve $-1 -15.50819625645499 19.740329857071227 6.5153503656206215 0 0.7660444514056185 0.64278759981090561 1.5 0 0 1 I I #
coedge $-1 $321 $321 $-1 $447 reversed $211 $-1 #
edge $-1 $448 0 $448 6.2831853071796004 $212 $449 forward 7 unknown #
vertex $-1 $215 $450 #
ellipse-curve $-1 -10.997145485333256 19.740329857071227 6.5153503656206215 0 0.7660444514056185 0.64278759981090561 1.5 0 0 1 I I #
face $-1 $-1 $337 $46 $-1 $451 reversed single #
loop $-1 $-1 $452 $216 #
plane-surface $-1 0 0 12.230396845107332 0 0 1 1 0 0 forward_v I I I I #
coedge $-1 $453 $454 $455 $456 reversed $217 $-1 #
coedge $-1 $457 $219 $221 $335 forward $137 $-1 #
coedge $-1 $219 $457 $453 $458 forward $137 $-1 #
coedge $-1 $455 $222 $219 $332 forward $337 $-1 #
edge $-1 $339 -11.88922800175575 $459 -1.3634428691383711 $331 $460 forward 7 unknown #
coedge $-1 $461 $462 $220 $334 forward $326 $-1 #
edge $-1 $463 -16.039766726750795 $338 -6.4487801916577077 $333 $464 forward 7 unknown #
edge $-1 $339 -49.071646249235577 $463 -34.150719744252349 $221 $465 forward 7 unknown #
coedge $-1 $222 $455 $461 $466 reversed $337 $-1 #
loop $-1 $-1 $455 $325 #
vertex $-1 $466 $467 #
vertex $-1 $223 $468 #
straight-curve $-1 18.515563437202811 24.535823124617774 48.134562689668101 0 0 -1 I I #
coedge $-1 $341 $341 $-1 $469 reversed $226 $-1 #
edge $-1 $470 0 $470 6.2831853071796004 $227 $471 forward 7 unknown #
vertex $-1 $230 $472 #
ellipse-curve $-1 10.997145485333249 19.740329857071227 6.5153503656206215 0 0.7660444514056185 0.64278759981090561 1.5 0 0 1 I I #
coedge $-1 $345 $345 $-1 $473 reversed $233 $-1 #
edge $-1 $474 0 $474 6.2831853071796004 $234 $475 forward 7 unknown #
vertex $-1 $237 $476 #
ellipse-curve $-1 15.508196256454987 19.740329857071227 6.5153503656206215 0 0.7660444514056185 0.64278759981090561 1.5 0 0 1 I I #
face $-1 $-1 $362 $49 $-1 $477 reversed single #
loop $-1 $-1 $358 $238 #
plane-surface $-1 45.020905178991057 0 0 -1 0 0 0 0 1 forward_v I I I I #
coedge $-1 $478 $479 $354 $480 forward $239 $-1 #
coedge $-1 $354 $241 $243 $360 reversed $151 $-1 #
coedge $-1 $241 $353 $352 $480 reversed $151 $-1 #
coedge $-1 $481 $244 $241 $356 forward $362 $-1 #
edge $-1 $364 -47.33425880353419 $482 -35.904165844560765 $355 $483 forward 7 unknown #
coedge $-1 $243 $242 $478 $484 reversed $96 $-1 #
coedge $-1 $485 $486 $242 $359 forward $350 $-1 #
edge $-1 $487 17.194023871757928 $363 32.114950376741149 $358 $488 forward 7 unknown #
edge $-1 $489 34.150719744252349 $364 49.071646249235577 $353 $490 forward 7 unknown #
coedge $-1 $244 $481 $485 $491 forward $362 $-1 #
loop $-1 $-1 $355 $349 #
vertex $-1 $359 $492 #
vertex $-1 $245 $493 #
straight-curve $-1 19.879006306341182 24.535823124617778 0.80030388613391423 -1 0 0 I I #
coedge $-1 $366 $366 $-1 $494 reversed $248 $-1 #
edge $-1 $495 0 $495 6.2831853071796004 $249 $496 forward 7 unknown #
vertex $-1 $252 $497 #
ellipse-curve $-1 37.502487227121492 19.740329857071227 6.5153503656206215 0 0.7660444514056185 0.64278759981090561 1.5 0 0 1 I I #
coedge $-1 $370 $370 $-1 $498 reversed $255 $-1 #
edge $-1 $499 0 $499 6.2831853071796004 $256 $500 forward 7 unknown #
vertex $-1 $259 $501 #
ellipse-curve $-1 42.013537998243237 19.740329857071227 6.5153503656206215 0 0.7660444514056185 0.64278759981090561 1.5 0 0 1 I I #
face $-1 $-1 $275 $39 $-1 $502 reversed single #
loop $-1 $-1 $390 $260 #
plane-surface $-1 0 24.535823124617774 0 0 -1 0 0 0 -1 forward_v I I I I #
coedge $-1 $503 $388 $391 $504 forward $261 $-1 #
coedge $-1 $394 $263 $264 $382 reversed $165 $-1 #
coedge $-1 $388 $503 $263 $380 reversed $261 $-1 #
edge $-1 $395 -12.230396845107332 $505 12.230396845107332 $379 $506 forward 7 unknown #
coedge $-1 $265 $264 $503 $507 forward $105 $-1 #
edge $-1 $386 -45.020905178991057 $505 45.020905178991057 $378 $508 forward 7 unknown #
coedge $-1 $391 $390 $265 $384 reversed $375 $-1 #
edge $-1 $509 -45.020905178991057 $385 45.020905178991057 $383 $510 forward 7 unknown #
vertex $-1 $267 $511 #
vertex $-1 $397 $512 #
straight-curve $-1 45.020905178991057 0 -12.230396845107332 0 -1 0 I I #
coedge $-1 $377 $379 $268 $389 reversed $261 $-1 #
edge $-1 $392 -24.535823124617774 $395 24.535823124617774 $388 $513 forward 7 unknown #
coedge $-1 $383 $269 $274 $398 forward $375 $-1 #
coedge $-1 $269 $383 $377 $504 reversed $375 $-1 #
vertex $-1 $270 $514 #
straight-curve $-1 0 24.535823124617774 12.230396845107332 -1 0 0 I I #
coedge $-1 $271 $378 $273 $397 reversed $165 $-1 #
vertex $-1 $389 $515 #
straight-curve $-1 0 -24.535823124617774 12.230396845107332 1 0 0 I I #
edge $-1 $276 -12.230396845107332 $386 12.230396845107332 $273 $516 forward 7 unknown #
edge $-1 $277 -12.230396845107332 $385 12.230396845107332 $274 $517 forward 7 unknown #
point $-1 45.020905178991057 -24.535823124617774 12.230396845107332 #
point $-1 45.020905178991057 24.535823124617774 12.230396845107332 #
loop $-1 $-1 $404 $279 #
plane-surface $-1 -45.020905178991057 0 0 1 0 0 0 0 -1 forward_v I I I I #
coedge $-1 $283 $282 $410 $518 reversed $109 $-1 #
coedge $-1 $519 $520 $283 $405 forward $401 $-1 #
edge $-1 $407 -32.114950376741149 $521 -17.194023871757928 $404 $522 forward 7 unknown #
coedge $-1 $289 $284 $520 $523 reversed $173 $-1 #
vertex $-1 $285 $524 #
straight-curve $-1 -19.879006306341182 24.535823124617778 0.80030388613391423 -1 0 0 I I #
coedge $-1 $525 $286 $289 $414 forward $280 $-1 #
coedge $-1 $286 $525 $403 $518 forward $280 $-1 #
vertex $-1 $287 $526 #
straight-curve $-1 -34.495120046373671 30.984603316275482 12.230396845107329 0 1 0 I I #
straight-curve $-1 -34.495120046373671 -7.0068225866981777 38.391366216700142 0 -0.64278759981090561 0.7660444514056185 I I #
edge $-1 $290 34.495120046373671 $527 45.020905178991057 $289 $528 forward 7 unknown #
point $-1 -34.495120046373671 24.535823124617774 12.230396845107332 #
point $-1 -34.495120046373671 24.535823124617774 0.80030388613391068 #
edge $-1 $529 1 $529 0 $293 $-1 forward 7 unknown #
vertex $-1 $294 $530 #
ellipse-curve $-1 -42.013537998243237 16.774926361186871 4.0270814510781063 0 0.7660444514056185 0.64278759981090561 1.5 0 0 1 I I #
point $-1 -40.513537998243237 19.740329857071231 6.5153503656206251 #
edge $-1 $531 1 $531 0 $297 $-1 forward 7 unknown #
vertex $-1 $298 $532 #
ellipse-curve $-1 -37.502487227121499 16.774926361186871 4.0270814510781063 0 0.7660444514056185 0.64278759981090561 1.5 0 0 1 I I #
point $-1 -36.002487227121499 19.740329857071231 6.5153503656206251 #
plane-surface $-1 0 24.535823124617774 0 0 -1 0 0 0 -1 forward_v I I I I #
coedge $-1 $436 $435 $428 $533 forward $302 $-1 #
coedge $-1 $428 $304 $306 $432 reversed $195 $-1 #
coedge $-1 $304 $427 $426 $533 reversed $195 $-1 #
coedge $-1 $312 $307 $304 $430 forward $313 $-1 #
edge $-1 $433 -47.33425880353419 $534 -35.904165844560765 $429 $535 forward 7 unknown #
coedge $-1 $306 $305 $436 $536 reversed $123 $-1 #
edge $-1 $537 34.150719744252349 $433 49.071646249235577 $427 $538 forward 7 unknown #
vertex $-1 $308 $539 #
straight-curve $-1 -6.6263354354470625 24.535823124617778 0.80030388613391423 -1 0 0 I I #
coedge $-1 $426 $309 $312 $440 forward $302 $-1 #
coedge $-1 $309 $426 $431 $536 forward $302 $-1 #
vertex $-1 $310 $540 #
straight-curve $-1 -7.9897783045854354 30.984603316275482 12.230396845107329 0 1 0 I I #
straight-curve $-1 -7.9897783045854354 -7.0068225866981777 38.391366216700142 0 -0.64278759981090561 0.7660444514056185 I I #
edge $-1 $314 7.9897783045854354 $534 18.515563437202815 $312 $541 forward 7 unknown #
point $-1 -7.9897783045854354 24.535823124617774 12.230396845107332 #
point $-1 -7.9897783045854354 24.535823124617774 0.80030388613391068 #
edge $-1 $542 1 $542 0 $317 $-1 forward 7 unknown #
vertex $-1 $318 $543 #
ellipse-curve $-1 -15.50819625645499 16.774926361186871 4.0270814510781063 0 0.7660444514056185 0.64278759981090561 1.5 0 0 1 I I #
point $-1 -14.00819625645499 19.740329857071231 6.5153503656206251 #
edge $-1 $544 1 $544 0 $321 $-1 forward 7 unknown #
vertex $-1 $322 $545 #
ellipse-curve $-1 -10.997145485333256 16.774926361186871 4.0270814510781063 0 0.7660444514056185 0.64278759981090561 1.5 0 0 1 I I #
point $-1 -9.497145485333256 19.740329857071231 6.5153503656206251 #
plane-surface $-1 0 24.535823124617774 0 0 -1 0 0 0 -1 forward_v I I I I #
coedge $-1 $462 $461 $454 $546 forward $326 $-1 #
coedge $-1 $454 $328 $330 $458 reversed $217 $-1 #
coedge $-1 $328 $453 $452 $546 reversed $217 $-1 #
coedge $-1 $336 $331 $328 $456 forward $337 $-1 #
edge $-1 $459 -47.33425880353419 $547 -35.904165844560765 $455 $548 forward 7 unknown #
coedge $-1 $330 $329 $462 $549 reversed $137 $-1 #
edge $-1 $550 34.150719744252349 $459 49.071646249235577 $453 $551 forward 7 unknown #
vertex $-1 $332 $552 #
straight-curve $-1 6.6263354354470607 24.535823124617778 0.80030388613391423 -1 0 0 I I #
coedge $-1 $452 $333 $336 $466 forward $326 $-1 #
coedge $-1 $333 $452 $457 $549 forward $326 $-1 #
vertex $-1 $334 $553 #
straight-curve $-1 18.515563437202811 30.984603316275482 12.230396845107329 0 1 0 I I #
straight-curve $-1 18.515563437202811 -7.0068225866981777 38.391366216700142 0 -0.64278759981090561 0.7660444514056185 I I #
edge $-1 $338 -18.515563437202811 $547 -7.9897783045854318 $336 $554 forward 7 unknown #
point $-1 18.515563437202811 24.535823124617774 12.230396845107332 #
point $-1 18.515563437202811 24.535823124617774 0.80030388613391068 #
edge $-1 $555 1 $555 0 $341 $-1 forward 7 unknown #
vertex $-1 $342 $556 #
ellipse-curve $-1 10.997145485333249 16.774926361186871 4.0270814510781063 0 0.7660444514056185 0.64278759981090561 1.5 0 0 1 I I #
point $-1 12.497145485333249 19.740329857071231 6.5153503656206251 #
edge $-1 $557 1 $557 0 $345 $-1 forward 7 unknown #
vertex $-1 $346 $558 #
ellipse-curve $-1 15.508196256454987 16.774926361186871 4.0270814510781063 0 0.7660444514056185 0.64278759981090561 1.5 0 0 1 I I #
point $-1 17.008196256454987 19.740329857071231 6.5153503656206251 #
plane-surface $-1 0 24.535823124617774 0 0 -1 0 0 0 -1 forward_v I I I I #
coedge $-1 $559 $352 $357 $484 forward $239 $-1 #
coedge $-1 $352 $559 $481 $560 forward $239 $-1 #
edge $-1 $482 6.4487801916577077 $489 16.039766726750795 $352 $561 forward 7 unknown #
coedge $-1 $361 $355 $479 $560 reversed $362 $-1 #
vertex $-1 $356 $562 #
straight-curve $-1 34.495120046373671 24.535823124617774 48.134562689668101 0 0 1 I I #
edge $-1 $489 14.616113740032489 $487 25.141898872649875 $478 $563 forward 7 unknown #
coedge $-1 $486 $358 $361 $491 reversed $350 $-1 #
coedge $-1 $358 $485 $559 $564 reversed $350 $-1 #
vertex $-1 $564 $565 #
straight-curve $-1 45.020905178991057 3.8927312539059944 25.401783429403245 0 0.64278759981090572 -0.76604445140561861 I I #
vertex $-1 $484 $566 #
straight-curve $-1 34.495120046373671 -7.0068225866981777 38.391366216700142 0 0.64278759981090561 -0.7660444514056185 I I #
edge $-1 $567 -12.230396845107332 $363 -0.80030388613391068 $485 $568 forward 7 unknown #
point $-1 45.020905178991057 24.535823124617774 0.80030388613391068 #
point $-1 34.495120046373671 24.535823124617774 0.80030388613391068 #
edge $-1 $569 1 $569 0 $366 $-1 forward 7 unknown #
vertex $-1 $367 $570 #
ellipse-curve $-1 37.502487227121492 16.774926361186871 4.0270814510781063 0 0.7660444514056185 0.64278759981090561 1.5 0 0 1 I I #
point $-1 39.002487227121492 19.740329857071231 6.5153503656206251 #
edge $-1 $571 1 $571 0 $370 $-1 forward 7 unknown #
vertex $-1 $371 $572 #
ellipse-curve $-1 42.013537998243237 16.774926361186871 4.0270814510781063 0 0.7660444514056185 0.64278759981090561 1.5 0 0 1 I I #
point $-1 43.513537998243237 19.740329857071231 6.5153503656206251 #
plane-surface $-1 45.020905178991057 0 0 -1 0 0 0 0 1 forward_v I I I I #
coedge $-1 $379 $377 $381 $507 reversed $261 $-1 #
edge $-1 $392 -12.230396845107332 $509 12.230396845107332 $391 $573 forward 7 unknown #
vertex $-1 $507 $574 #
straight-curve $-1 -45.020905178991057 -24.535823124617774 0 0 0 -1 I I #
edge $-1 $505 -24.535823124617774 $509 24.535823124617774 $503 $575 forward 7 unknown #
straight-curve $-1 0 -24.535823124617774 -12.230396845107332 -1 0 0 I I #
vertex $-1 $384 $576 #
straight-curve $-1 0 24.535823124617774 -12.230396845107332 1 0 0 I I #
point $-1 45.020905178991057 24.535823124617774 -12.230396845107332 #
point $-1 45.020905178991057 -24.535823124617774 -12.230396845107332 #
straight-curve $-1 -45.020905178991057 0 12.230396845107332 0 -1 0 I I #
point $-1 -45.020905178991057 24.535823124617774 12.230396845107332 #
point $-1 -45.020905178991057 -24.535823124617774 12.230396845107332 #
straight-curve $-1 45.020905178991057 -24.535823124617774 0 0 0 -1 I I #
straight-curve $-1 45.020905178991057 24.535823124617774 0 0 0 -1 I I #
edge $-1 $521 -25.141898872649875 $411 -14.616113740032489 $410 $577 forward 7 unknown #
coedge $-1 $520 $404 $525 $578 reversed $401 $-1 #
coedge $-1 $404 $519 $406 $523 forward $401 $-1 #
vertex $-1 $405 $579 #
straight-curve $-1 -45.020905178991057 3.8927312539059944 25.401783429403245 0 -0.64278759981090572 0.76604445140561861 I I #
edge $-1 $527 -12.230396845107332 $407 -0.80030388613391445 $406 $580 forward 7 unknown #
point $-1 -45.020905178991057 24.535823124617774 0.80030388613391445 #
coedge $-1 $410 $409 $519 $578 forward $280 $-1 #
point $-1 -34.495120046373671 14.944836589524687 12.230396845107336 #
vertex $-1 $414 $581 #
straight-curve $-1 0 24.535823124617774 12.230396845107332 -1 0 0 I I #
vertex $-1 $417 $582 #
point $-1 -40.513537998243237 16.774926361186871 4.0270814510781063 #
vertex $-1 $421 $583 #
point $-1 -36.002487227121499 16.774926361186871 4.0270814510781063 #
edge $-1 $534 6.4487801916577077 $537 16.039766726750795 $426 $584 forward 7 unknown #
vertex $-1 $533 $585 #
straight-curve $-1 -18.515563437202815 24.535823124617774 48.134562689668101 0 0 1 I I #
edge $-1 $537 -11.889228001755752 $437 -1.3634428691383729 $436 $586 forward 7 unknown #
vertex $-1 $536 $587 #
straight-curve $-1 -18.515563437202815 -7.0068225866981777 38.391366216700142 0 0.64278759981090561 -0.7660444514056185 I I #
point $-1 -18.515563437202815 24.535823124617774 0.80030388613391068 #
point $-1 -7.9897783045854354 14.944836589524687 12.230396845107336 #
straight-curve $-1 0 24.535823124617774 12.230396845107332 -1 0 0 I I #
vertex $-1 $443 $588 #
point $-1 -14.00819625645499 16.774926361186871 4.0270814510781063 #
vertex $-1 $447 $589 #
point $-1 -9.497145485333256 16.774926361186871 4.0270814510781063 #
edge $-1 $547 6.4487801916577077 $550 16.039766726750795 $452 $590 forward 7 unknown #
vertex $-1 $456 $591 #
straight-curve $-1 7.9897783045854318 24.535823124617774 48.134562689668101 0 0 1 I I #
edge $-1 $550 1.3634428691383711 $463 11.88922800175575 $462 $592 forward 7 unknown #
vertex $-1 $549 $593 #
straight-curve $-1 7.9897783045854318 -7.0068225866981777 38.391366216700142 0 0.64278759981090561 -0.7660444514056185 I I #
point $-1 7.9897783045854318 24.535823124617774 0.80030388613391068 #
point $-1 18.515563437202811 14.944836589524687 12.230396845107336 #
straight-curve $-1 0 24.535823124617774 12.230396845107332 -1 0 0 I I #
vertex $-1 $469 $594 #
point $-1 12.497145485333249 16.774926361186871 4.0270814510781063 #
vertex $-1 $473 $595 #
point $-1 17.008196256454987 16.774926361186871 4.0270814510781063 #
coedge $-1 $479 $478 $486 $564 forward $239 $-1 #
edge $-1 $567 -45.020905178991057 $482 -34.495120046373671 $481 $596 forward 7 unknown #
straight-curve $-1 34.495120046373671 30.984603316275482 12.230396845107329 0 -1 0 I I #
point $-1 34.495120046373671 24.535823124617774 12.230396845107332 #
straight-curve $-1 19.879006306341182 14.944836589524689 12.230396845107329 1 0 0 I I #
edge $-1 $487 14.944836589524687 $567 24.535823124617774 $486 $597 forward 7 unknown #
point $-1 45.020905178991057 14.944836589524687 12.230396845107336 #
point $-1 34.495120046373671 14.944836589524687 12.230396845107336 #
vertex $-1 $564 $598 #
straight-curve $-1 45.020905178991057 24.535823124617774 0 0 0 -1 I I #
vertex $-1 $494 $599 #
point $-1 39.002487227121492 16.774926361186871 4.0270814510781063 #
vertex $-1 $498 $600 #
point $-1 43.513537998243237 16.774926361186871 4.0270814510781063 #
straight-curve $-1 -45.020905178991057 24.535823124617774 0 0 0 -1 I I #
point $-1 -45.020905178991057 -24.535823124617774 -12.230396845107332 #
straight-curve $-1 -45.020905178991057 0 -12.230396845107332 0 1 0 I I #
point $-1 -45.020905178991057 24.535823124617774 -12.230396845107332 #
straight-curve $-1 -19.879006306341182 14.944836589524689 12.230396845107329 1 0 0 I I #
edge $-1 $527 -24.535823124617774 $521 -14.944836589524687 $519 $601 forward 7 unknown #
point $-1 -45.020905178991057 14.944836589524687 12.230396845107336 #
straight-curve $-1 -45.020905178991057 24.535823124617774 0 0 0 -1 I I #
point $-1 -45.020905178991057 24.535823124617774 12.230396845107332 #
point $-1 -42.013537998243237 15.625859684078442 3.0629000513617481 #
point $-1 -37.502487227121499 15.625859684078442 3.0629000513617481 #
straight-curve $-1 -18.515563437202815 30.984603316275482 12.230396845107329 0 -1 0 I I #
point $-1 -18.515563437202815 24.535823124617774 12.230396845107332 #
straight-curve $-1 -6.6263354354470625 14.944836589524689 12.230396845107329 1 0 0 I I #
point $-1 -18.515563437202815 14.944836589524687 12.230396845107336 #
point $-1 -15.50819625645499 15.625859684078442 3.0629000513617481 #
point $-1 -10.997145485333256 15.625859684078442 3.0629000513617481 #
straight-curve $-1 7.9897783045854318 30.984603316275482 12.230396845107329 0 -1 0 I I #
point $-1 7.9897783045854318 24.535823124617774 12.230396845107332 #
straight-curve $-1 6.6263354354470607 14.944836589524689 12.230396845107329 1 0 0 I I #
point $-1 7.9897783045854318 14.944836589524687 12.230396845107336 #
point $-1 10.997145485333249 15.625859684078442 3.0629000513617481 #
point $-1 15.508196256454987 15.625859684078442 3.0629000513617481 #
straight-curve $-1 0 24.535823124617774 12.230396845107332 -1 0 0 I I #
straight-curve $-1 45.020905178991057 0 12.230396845107332 0 1 0 I I #
point $-1 45.020905178991057 24.535823124617774 12.230396845107332 #
point $-1 37.502487227121492 15.625859684078442 3.0629000513617481 #
point $-1 42.013537998243237 15.625859684078442 3.0629000513617481 #
straight-curve $-1 -45.020905178991057 0 12.230396845107332 0 -1 0 I I #
End-of-ACIS-data 