500 0 8 0           
7 Unknown 11 ACIS 5.0 NT 24 Fri Mar 26 15:46:17 1999 
-1 9.9999999999999995e-007 1e-010 
body $-1 $8 $-1 $9 #
body $-1 $10 $-1 $11 #
body $-1 $12 $-1 $13 #
body $-1 $14 $-1 $15 #
body $-1 $16 $-1 $17 #
body $-1 $18 $-1 $19 #
body $-1 $20 $-1 $21 #
body $-1 $22 $-1 $23 #
lump $-1 $-1 $24 $0 #
transform $-1 1 0 0 0 1 0 0 0 1 71.297341837824632 48.934864314582988 10.687504592452214 1 rotate no_reflect no_shear #
lump $-1 $-1 $25 $1 #
transform $-1 1 0 0 0 1 0 0 0 1 71.297341837824632 48.934864314582988 10.687504592452214 1 rotate no_reflect no_shear #
lump $-1 $-1 $26 $2 #
transform $-1 1 0 0 0 1 0 0 0 1 71.297341837824632 48.934864314582988 10.687504592452214 1 rotate no_reflect no_shear #
lump $-1 $-1 $27 $3 #
transform $-1 1 0 0 0 1 0 0 0 1 71.297341837824632 48.934864314582988 10.687504592452214 1 rotate no_reflect no_shear #
lump $-1 $-1 $28 $4 #
transform $-1 1 0 0 0 1 0 0 0 1 71.297341837824632 48.934864314582988 10.687504592452214 1 rotate no_reflect no_shear #
lump $-1 $-1 $29 $5 #
transform $-1 1 0 0 0 1 0 0 0 1 71.297341837824632 48.934864314582988 10.687504592452214 1 rotate no_reflect no_shear #
lump $-1 $-1 $30 $6 #
transform $-1 1 0 0 0 1 0 0 0 1 71.297341837824632 48.934864314582988 10.687504592452214 1 rotate no_reflect no_shear #
lump $-1 $-1 $31 $7 #
transform $-1 1 0 0 0 1 0 0 0 1 71.297341837824632 48.934864314582988 10.687504592452214 1 rotate no_reflect no_shear #
shell $-1 $-1 $-1 $32 $-1 $8 #
shell $-1 $-1 $-1 $33 $-1 $10 #
shell $-1 $-1 $-1 $34 $-1 $12 #
shell $-1 $-1 $-1 $35 $-1 $14 #
shell $-1 $-1 $-1 $36 $-1 $16 #
shell $-1 $-1 $-1 $37 $-1 $18 #
shell $-1 $-1 $-1 $38 $-1 $20 #
shell $-1 $-1 $-1 $39 $-1 $22 #
face $-1 $40 $41 $24 $-1 $42 forward single #
face $-1 $43 $44 $25 $-1 $45 forward single #
face $-1 $46 $47 $26 $-1 $48 reversed single #
face $-1 $49 $50 $27 $-1 $51 forward single #
face $-1 $52 $53 $28 $-1 $54 reversed single #
face $-1 $55 $56 $29 $-1 $57 forward single #
face $-1 $58 $59 $30 $-1 $60 reversed single #
face $-1 $61 $62 $31 $-1 $63 forward single #
face $-1 $64 $65 $24 $-1 $66 reversed single #
loop $-1 $-1 $67 $32 #
plane-surface $-1 0 0 10.687504592452214 0 0 1 1 0 0 forward_v I I I I #
face $-1 $68 $69 $25 $-1 $70 reversed single #
loop $-1 $-1 $71 $33 #
plane-surface $-1 -71.297341837824632 0 0 1 0 0 0 0 -1 forward_v I I I I #
face $-1 $72 $73 $26 $-1 $74 reversed single #
loop $-1 $-1 $75 $34 #
plane-surface $-1 60.05708059078799 -48.934864314582981 6.6751573431943854 0 -0.83867057594974714 0.54463902268945019 1 0 0 forward_v I I I I #
face $-1 $76 $77 $27 $-1 $78 forward single #
loop $-1 $79 $80 $35 #
cone-surface $-1 60.05708059078799 -47.022860348281732 8.2857251076812055 0 0.83867057594974714 -0.54463902268945019 0.5 0 0 1 I I 0 1 0.5 forward I I I I #
face $-1 $81 $82 $28 $-1 $83 reversed single #
loop $-1 $-1 $84 $36 #
plane-surface $-1 -19.799121451557085 50.553628099945279 177.33301045210118 1 0 0 0 -0.57357644374324357 -0.81915203911291934 forward_v I I I I #
face $-1 $85 $86 $29 $-1 $87 forward single #
loop $-1 $88 $89 $37 #
cone-surface $-1 -6.5604534928190077 43.395403829938694 6.0495321240162117 0 -0.57357644374324357 -0.81915203911291934 1.5 0 0 1 I I 0 1 1.5 forward I I I I #
face $-1 $90 $91 $30 $-1 $92 reversed single #
loop $-1 $-1 $93 $38 #
plane-surface $-1 58.05867387908657 -31.235323459426375 60.526284552531365 0 0.57357644374324357 0.81915203911291934 1 0 0 forward_v I I I I #
face $-1 $94 $95 $31 $-1 $96 forward single #
loop $-1 $97 $98 $39 #
cone-surface $-1 58.05867387908657 43.395403829938694 6.0495321240162117 0 -0.57357644374324357 -0.81915203911291934 1.5 0 0 1 I I 0 1 1.5 forward I I I I #
face $-1 $99 $100 $24 $-1 $101 reversed single #
loop $-1 $-1 $102 $40 #
plane-surface $-1 0 0 -10.687504592452214 0 0 1 1 0 0 forward_v I I I I #
coedge $-1 $103 $104 $105 $106 forward $41 $-1 #
face $-1 $107 $108 $25 $-1 $109 forward single #
loop $-1 $-1 $110 $43 #
plane-surface $-1 0 48.934864314582988 0 0 -1 0 0 0 -1 forward_v I I I I #
coedge $-1 $111 $112 $113 $114 forward $44 $-1 #
face $-1 $115 $116 $26 $-1 $117 reversed single #
loop $-1 $-1 $118 $46 #
plane-surface $-1 48.816819343751334 -168.52482980021176 84.337786501011294 1 0 0 0 0.83867057594974714 -0.54463902268945019 forward_v I I I I #
coedge $-1 $119 $120 $121 $122 reversed $47 $-1 #
face $-1 $-1 $123 $27 $-1 $124 forward single #
loop $-1 $125 $126 $49 #
cone-surface $-1 60.05708059078799 -46.204013081181529 7.7539594918667518 0 0.83867057594974714 -0.54463902268945019 0.25 0 0 1 I I -0.70710678118654746 0.70710678118654746 0.25 forward I I I I #
loop $-1 $-1 $127 $35 #
coedge $-1 $80 $80 $128 $129 reversed $50 $-1 #
face $-1 $130 $131 $28 $-1 $132 reversed single #
loop $-1 $-1 $133 $52 #
plane-surface $-1 -6.5604534928190077 -31.235323459426375 60.526284552531365 0 0.57357644374324357 0.81915203911291934 1 0 0 forward_v I I I I #
coedge $-1 $134 $135 $136 $137 reversed $53 $-1 #
face $-1 $-1 $138 $29 $-1 $139 forward single #
loop $-1 $140 $141 $55 #
cone-surface $-1 -6.5604534928190077 41.922278453808552 3.9456910948226067 0 -0.57357644374324357 -0.81915203911291934 0.75 0 0 1 I I -0.70710678118654757 0.70710678118654757 0.75 forward I I I I #
loop $-1 $-1 $142 $37 #
coedge $-1 $89 $89 $143 $144 reversed $56 $-1 #
face $-1 $145 $146 $30 $-1 $147 forward single #
loop $-1 $-1 $148 $58 #
plane-surface $-1 44.820005920348493 50.553628099945279 177.33301045210118 1 0 0 0 -0.57357644374324357 -0.81915203911291934 forward_v I I I I #
coedge $-1 $149 $150 $151 $152 reversed $59 $-1 #
face $-1 $-1 $153 $31 $-1 $154 forward single #
loop $-1 $155 $156 $61 #
cone-surface $-1 58.05867387908657 41.922278453808552 3.9456910948226067 0 -0.57357644374324357 -0.81915203911291934 0.75 0 0 1 I I -0.70710678118654757 0.70710678118654757 0.75 forward I I I I #
loop $-1 $-1 $157 $39 #
coedge $-1 $98 $98 $158 $159 reversed $62 $-1 #
face $-1 $160 $161 $24 $-1 $162 reversed single #
loop $-1 $-1 $163 $64 #
plane-surface $-1 0 -48.934864314582988 0 0 1 0 0 0 1 forward_v I I I I #
coedge $-1 $164 $165 $166 $167 forward $65 $-1 #
coedge $-1 $168 $67 $169 $170 forward $41 $-1 #
coedge $-1 $67 $168 $171 $172 forward $41 $-1 #
coedge $-1 $173 $174 $67 $106 reversed $175 $-1 #
edge $-1 $176 -48.934864314582988 $177 48.934864314582988 $105 $178 forward 7 unknown #
face $-1 $179 $180 $25 $-1 $181 reversed single #
loop $-1 $-1 $113 $68 #
plane-surface $-1 -77.975556303743701 0 4.6301565505677864 0 0 1 1 0 0 forward_v I I I I #
coedge $-1 $182 $183 $112 $184 forward $69 $-1 #
coedge $-1 $185 $71 $186 $187 reversed $44 $-1 #
coedge $-1 $71 $185 $110 $184 reversed $44 $-1 #
coedge $-1 $188 $189 $71 $114 reversed $108 $-1 #
edge $-1 $190 -48.934864314582988 $191 48.934864314582988 $113 $192 forward 7 unknown #
face $-1 $193 $194 $26 $-1 $195 forward single #
loop $-1 $-1 $196 $72 #
plane-surface $-1 0 -48.934864314582988 0 0 1 0 0 0 1 forward_v I I I I #
coedge $-1 $197 $198 $199 $200 reversed $73 $-1 #
coedge $-1 $201 $75 $202 $203 reversed $47 $-1 #
coedge $-1 $75 $201 $197 $204 forward $47 $-1 #
coedge $-1 $199 $205 $75 $122 forward $194 $-1 #
edge $-1 $206 -41.268801542430651 $207 -18.788279048357339 $121 $208 forward 7 unknown #
loop $-1 $-1 $128 $76 #
plane-surface $-1 60.05708059078799 -48.934864314582981 6.6751573431943854 0 -0.83867057594974714 0.54463902268945019 1 0 0 forward_v I I I I #
loop $-1 $-1 $209 $49 #
coedge $-1 $126 $126 $127 $210 reversed $77 $-1 #
coedge $-1 $127 $127 $126 $210 forward $79 $-1 #
coedge $-1 $128 $128 $80 $129 forward $123 $-1 #
edge $-1 $211 5.959112854368323e-015 $211 6.2831853071796067 $128 $212 forward 7 unknown #
face $-1 $213 $214 $28 $-1 $215 forward single #
loop $-1 $-1 $216 $81 #
plane-surface $-1 6.6782144659190692 50.553628099945279 177.33301045210118 -1 0 0 0 0.57357644374324357 0.81915203911291934 forward_v I I I I #
coedge $-1 $217 $218 $219 $220 reversed $82 $-1 #
coedge $-1 $135 $84 $221 $222 reversed $53 $-1 #
coedge $-1 $84 $134 $217 $223 reversed $53 $-1 #
coedge $-1 $219 $224 $84 $137 forward $214 $-1 #
edge $-1 $225 -23.658050264610349 $226 -14.665015381967162 $136 $227 forward 7 unknown #
loop $-1 $-1 $143 $85 #
plane-surface $-1 -6.5604534928190077 -31.235323459426375 60.526284552531365 0 0.57357644374324357 0.81915203911291934 1 0 0 forward_v I I I I #
loop $-1 $-1 $228 $55 #
coedge $-1 $141 $141 $142 $229 reversed $86 $-1 #
coedge $-1 $142 $142 $141 $229 forward $88 $-1 #
coedge $-1 $143 $143 $89 $144 forward $138 $-1 #
edge $-1 $230 1.1632797024658986e-015 $230 6.2831853071796013 $143 $231 forward 7 unknown #
face $-1 $232 $233 $30 $-1 $234 reversed single #
loop $-1 $-1 $235 $90 #
plane-surface $-1 0 0 10.687504592452214 0 0 1 1 0 0 forward_v I I I I #
coedge $-1 $236 $237 $238 $239 reversed $91 $-1 #
coedge $-1 $240 $93 $241 $242 reversed $59 $-1 #
coedge $-1 $93 $240 $236 $243 forward $59 $-1 #
coedge $-1 $238 $244 $93 $152 forward $245 $-1 #
edge $-1 $246 -42.268004898281347 $247 -15.790668980805208 $151 $248 forward 7 unknown #
loop $-1 $-1 $158 $94 #
plane-surface $-1 58.05867387908657 -31.235323459426375 60.526284552531365 0 0.57357644374324357 0.81915203911291934 1 0 0 forward_v I I I I #
loop $-1 $-1 $249 $61 #
coedge $-1 $156 $156 $157 $250 reversed $95 $-1 #
coedge $-1 $157 $157 $156 $250 forward $97 $-1 #
coedge $-1 $158 $158 $98 $159 forward $153 $-1 #
edge $-1 $251 1.1632797024658986e-015 $251 6.2831853071796013 $158 $252 forward 7 unknown #
face $-1 $253 $254 $24 $-1 $255 reversed single #
loop $-1 $-1 $256 $99 #
plane-surface $-1 -71.297341837824632 0 0 1 0 0 0 0 -1 forward_v I I I I #
coedge $-1 $257 $171 $258 $259 forward $100 $-1 #
coedge $-1 $260 $102 $257 $261 forward $65 $-1 #
coedge $-1 $102 $260 $262 $263 forward $65 $-1 #
coedge $-1 $174 $173 $102 $167 reversed $175 $-1 #
edge $-1 $264 -48.934864314582988 $265 48.934864314582988 $166 $266 forward 7 unknown #
coedge $-1 $104 $103 $267 $268 forward $41 $-1 #
coedge $-1 $269 $270 $103 $170 reversed $254 $-1 #
edge $-1 $177 -71.297341837824632 $271 71.297341837824632 $169 $272 forward 7 unknown #
coedge $-1 $163 $273 $104 $172 reversed $100 $-1 #
edge $-1 $274 -71.297341837824632 $176 71.297341837824632 $171 $275 forward 7 unknown #
coedge $-1 $166 $105 $273 $276 forward $175 $-1 #
coedge $-1 $105 $166 $269 $277 reversed $175 $-1 #
loop $-1 $-1 $173 $253 #
vertex $-1 $106 $278 #
vertex $-1 $106 $279 #
straight-curve $-1 71.297341837824632 0 10.687504592452214 0 1 0 I I #
face $-1 $280 $281 $25 $-1 $282 reversed single #
loop $-1 $-1 $283 $107 #
plane-surface $-1 -77.975556303743701 0 -0.67220519013654112 0 0 1 1 0 0 forward_v I I I I #
coedge $-1 $284 $110 $285 $286 reversed $69 $-1 #
coedge $-1 $110 $284 $188 $287 reversed $69 $-1 #
edge $-1 $190 -4.6301565505677864 $288 0.67220519013654112 $110 $289 forward 7 unknown #
coedge $-1 $112 $111 $283 $290 forward $44 $-1 #
coedge $-1 $291 $292 $111 $187 forward $293 $-1 #
edge $-1 $294 -0.67220519013654112 $191 4.6301565505677864 $186 $295 forward 7 unknown #
coedge $-1 $296 $113 $183 $287 forward $108 $-1 #
coedge $-1 $113 $296 $291 $297 forward $108 $-1 #
vertex $-1 $184 $298 #
vertex $-1 $297 $299 #
straight-curve $-1 -71.297341837824632 0 4.6301565505677864 0 -1 0 I I #
face $-1 $-1 $300 $26 $-1 $301 reversed single #
loop $-1 $-1 $199 $115 #
plane-surface $-1 0 0 10.687504592452214 0 0 1 1 0 0 forward_v I I I I #
coedge $-1 $302 $303 $198 $304 forward $116 $-1 #
coedge $-1 $198 $118 $120 $204 reversed $73 $-1 #
coedge $-1 $118 $197 $196 $304 reversed $73 $-1 #
coedge $-1 $305 $121 $118 $200 forward $194 $-1 #
edge $-1 $207 -37.933199271899888 $306 -35.327550585522893 $199 $307 forward 7 unknown #
coedge $-1 $120 $119 $302 $308 reversed $47 $-1 #
coedge $-1 $309 $310 $119 $203 forward $300 $-1 #
edge $-1 $311 -10.526789311081664 $206 -5.7426137786157936 $202 $312 forward 7 unknown #
edge $-1 $313 -1.2808562293387176e-014 $207 4.7841755324658592 $197 $314 forward 7 unknown #
coedge $-1 $121 $305 $309 $315 forward $194 $-1 #
vertex $-1 $203 $316 #
vertex $-1 $122 $317 #
straight-curve $-1 30.028540295393995 -46.329215628206001 10.687504592452214 -1 0 0 I I #
coedge $-1 $209 $209 $-1 $318 reversed $125 $-1 #
edge $-1 $319 0 $319 6.2831853071796004 $126 $320 forward 7 unknown #
vertex $-1 $129 $321 #
ellipse-curve $-1 60.05708059078799 -47.632039971394491 8.6813309678232944 0 -0.83867057594974714 0.54463902268945019 0.5 0 0 1 I I #
face $-1 $-1 $322 $28 $-1 $323 reversed single #
loop $-1 $-1 $136 $130 #
plane-surface $-1 0 0 10.687504592452214 0 0 1 1 0 0 forward_v I I I I #
coedge $-1 $324 $325 $326 $327 reversed $131 $-1 #
coedge $-1 $328 $133 $135 $223 forward $82 $-1 #
coedge $-1 $133 $328 $324 $329 forward $82 $-1 #
coedge $-1 $326 $136 $133 $220 forward $214 $-1 #
edge $-1 $226 -16.518894705147581 $330 9.958441212328573 $219 $331 forward 7 unknown #
coedge $-1 $332 $333 $134 $222 forward $322 $-1 #
edge $-1 $334 -84.275991570752552 $225 -77.979000633598375 $221 $335 forward 7 unknown #
edge $-1 $226 86.891260099218854 $334 97.869728629165962 $135 $336 forward 7 unknown #
coedge $-1 $136 $326 $332 $337 forward $214 $-1 #
vertex $-1 $137 $338 #
vertex $-1 $137 $339 #
straight-curve $-1 -19.799121451557085 25.276814049972639 10.687504592452214 0 -1 0 I I #
coedge $-1 $228 $228 $-1 $340 reversed $140 $-1 #
edge $-1 $341 0 $341 6.2831853071796004 $141 $342 forward 7 unknown #
vertex $-1 $144 $343 #
ellipse-curve $-1 -6.5604534928190077 44.438346873261402 7.5390091238751191 0 0.57357644374324357 0.81915203911291934 1.5 0 0 1 I I #
face $-1 $-1 $245 $30 $-1 $344 reversed single #
loop $-1 $-1 $241 $145 #
plane-surface $-1 71.297341837824632 0 0 -1 0 0 0 0 1 forward_v I I I I #
coedge $-1 $345 $346 $237 $347 forward $146 $-1 #
coedge $-1 $237 $148 $150 $243 reversed $91 $-1 #
coedge $-1 $148 $236 $235 $347 reversed $91 $-1 #
coedge $-1 $348 $151 $148 $239 forward $245 $-1 #
edge $-1 $247 -84.275991570752552 $349 -77.979000633598375 $238 $350 forward 7 unknown #
coedge $-1 $150 $149 $345 $351 reversed $59 $-1 #
coedge $-1 $352 $353 $149 $242 forward $233 $-1 #
edge $-1 $354 56.739795123832224 $246 67.718263653779331 $241 $355 forward 7 unknown #
edge $-1 $356 86.891260099218854 $247 97.869728629165962 $236 $357 forward 7 unknown #
coedge $-1 $151 $348 $352 $358 forward $245 $-1 #
loop $-1 $-1 $238 $232 #
vertex $-1 $152 $359 #
vertex $-1 $152 $360 #
straight-curve $-1 29.029336939543285 48.934864314582995 4.3905136552980295 -1 0 0 I I #
coedge $-1 $249 $249 $-1 $361 reversed $155 $-1 #
edge $-1 $362 0 $362 6.2831853071796004 $156 $363 forward 7 unknown #
vertex $-1 $159 $364 #
ellipse-curve $-1 58.05867387908657 44.438346873261402 7.5390091238751191 0 0.57357644374324357 0.81915203911291934 1.5 0 0 1 I I #
face $-1 $-1 $175 $24 $-1 $365 reversed single #
loop $-1 $-1 $269 $160 #
plane-surface $-1 0 48.934864314582988 0 0 -1 0 0 0 -1 forward_v I I I I #
coedge $-1 $366 $267 $270 $367 forward $161 $-1 #
coedge $-1 $273 $163 $164 $261 reversed $100 $-1 #
coedge $-1 $267 $366 $163 $259 reversed $161 $-1 #
edge $-1 $274 -10.687504592452214 $368 10.687504592452214 $258 $369 forward 7 unknown #
coedge $-1 $165 $164 $366 $370 forward $65 $-1 #
edge $-1 $265 -71.297341837824632 $368 71.297341837824632 $257 $371 forward 7 unknown #
coedge $-1 $270 $269 $165 $263 reversed $254 $-1 #
edge $-1 $372 -71.297341837824632 $264 71.297341837824632 $262 $373 forward 7 unknown #
vertex $-1 $167 $374 #
vertex $-1 $276 $375 #
straight-curve $-1 71.297341837824632 0 -10.687504592452214 0 -1 0 I I #
coedge $-1 $256 $258 $168 $268 reversed $161 $-1 #
edge $-1 $271 -48.934864314582988 $274 48.934864314582988 $267 $376 forward 7 unknown #
coedge $-1 $262 $169 $174 $277 forward $254 $-1 #
coedge $-1 $169 $262 $256 $367 reversed $254 $-1 #
vertex $-1 $170 $377 #
straight-curve $-1 0 48.934864314582988 10.687504592452214 -1 0 0 I I #
coedge $-1 $171 $257 $173 $276 reversed $100 $-1 #
vertex $-1 $268 $378 #
straight-curve $-1 0 -48.934864314582988 10.687504592452214 1 0 0 I I #
edge $-1 $176 -10.687504592452214 $265 10.687504592452214 $173 $379 forward 7 unknown #
edge $-1 $177 -10.687504592452214 $264 10.687504592452214 $174 $380 forward 7 unknown #
point $-1 71.297341837824632 -48.934864314582988 10.687504592452214 #
point $-1 71.297341837824632 48.934864314582988 10.687504592452214 #
face $-1 $-1 $293 $25 $-1 $381 reversed single #
loop $-1 $-1 $382 $179 #
plane-surface $-1 -84.653770769662771 0 1.9789756802156226 1 0 0 0 0 -1 forward_v I I I I #
coedge $-1 $383 $285 $185 $290 reversed $180 $-1 #
coedge $-1 $183 $182 $382 $384 reversed $69 $-1 #
coedge $-1 $283 $385 $182 $286 forward $180 $-1 #
edge $-1 $386 -6.6782144659190692 $288 6.6782144659190692 $182 $387 forward 7 unknown #
edge $-1 $190 -6.6782144659190692 $388 6.6782144659190692 $183 $389 forward 7 unknown #
vertex $-1 $184 $390 #
straight-curve $-1 -71.297341837824632 48.934864314582988 0 0 0 -1 I I #
edge $-1 $294 -48.934864314582988 $288 48.934864314582988 $283 $391 forward 7 unknown #
coedge $-1 $392 $186 $189 $297 reversed $293 $-1 #
coedge $-1 $186 $392 $383 $393 reversed $293 $-1 #
loop $-1 $-1 $186 $280 #
vertex $-1 $187 $394 #
straight-curve $-1 -71.297341837824632 -48.934864314582988 0 0 0 1 I I #
coedge $-1 $189 $188 $395 $396 forward $108 $-1 #
edge $-1 $397 -6.6782144659190692 $191 6.6782144659190692 $291 $398 forward 7 unknown #
point $-1 -71.297341837824632 48.934864314582988 4.6301565505677864 #
point $-1 -71.297341837824632 -48.934864314582988 4.6301565505677864 #
loop $-1 $-1 $202 $193 #
plane-surface $-1 71.297341837824632 0 0 -1 0 0 0 0 1 forward_v I I I I #
coedge $-1 $399 $196 $201 $308 forward $116 $-1 #
coedge $-1 $196 $399 $305 $400 reversed $116 $-1 #
edge $-1 $306 31.481388658053433 $313 35.493735907311276 $196 $401 forward 7 unknown #
coedge $-1 $205 $199 $303 $400 forward $194 $-1 #
vertex $-1 $400 $402 #
straight-curve $-1 48.816819343751334 -84.262414900105881 10.687504592452214 0 -1 0 I I #
edge $-1 $313 18.788279048357339 $311 41.268801542430651 $302 $403 forward 7 unknown #
coedge $-1 $310 $202 $205 $315 reversed $300 $-1 #
coedge $-1 $202 $309 $399 $404 forward $300 $-1 #
vertex $-1 $308 $405 #
straight-curve $-1 71.297341837824632 -43.201564072137721 15.503665797620878 0 0.54463902268945019 0.83867057594974714 I I #
vertex $-1 $308 $406 #
straight-curve $-1 48.816819343751334 -48.934864314582981 6.6751573431943854 0 0.54463902268945019 0.83867057594974714 I I #
edge $-1 $407 -48.934864314582988 $206 -46.329215628205993 $309 $408 forward 7 unknown #
point $-1 71.297341837824646 -46.329215628205993 10.687504592452214 #
point $-1 48.816819343751334 -46.329215628205993 10.687504592452214 #
edge $-1 $409 1 $409 0 $209 $-1 forward 7 unknown #
vertex $-1 $210 $410 #
ellipse-curve $-1 60.05708059078799 -46.413680725168966 7.890119247539114 0 -0.83867057594974714 0.54463902268945019 0.5 0 0 1 I I #
point $-1 60.55708059078799 -47.632039971394491 8.6813309678232979 #
loop $-1 $-1 $221 $213 #
plane-surface $-1 0 48.934864314582988 0 0 -1 0 0 0 -1 forward_v I I I I #
coedge $-1 $325 $216 $218 $329 reversed $131 $-1 #
coedge $-1 $216 $324 $411 $412 reversed $131 $-1 #
coedge $-1 $224 $219 $216 $327 forward $214 $-1 #
edge $-1 $330 14.665015381967162 $413 23.658050264610349 $326 $414 forward 7 unknown #
coedge $-1 $218 $217 $333 $415 reversed $82 $-1 #
edge $-1 $416 -97.869728629165962 $330 -86.891260099218854 $324 $417 forward 7 unknown #
vertex $-1 $220 $418 #
straight-curve $-1 -3.2802267464095038 39.941829431939809 10.687504592452214 1 0 0 I I #
coedge $-1 $411 $221 $224 $337 reversed $322 $-1 #
coedge $-1 $221 $411 $328 $415 forward $322 $-1 #
vertex $-1 $222 $419 #
straight-curve $-1 -19.799121451557085 48.934864314582988 88.666505226050589 0 0 1 I I #
straight-curve $-1 -19.799121451557085 -31.235323459426375 60.526284552531365 0 0.81915203911291934 -0.57357644374324357 I I #
edge $-1 $413 -6.6782144659190692 $225 19.799121451557085 $332 $420 forward 7 unknown #
point $-1 -19.799121451557085 48.934864314582988 10.687504592452214 #
point $-1 -19.799121451557085 39.941829431939802 10.687504592452214 #
edge $-1 $421 1 $421 0 $228 $-1 forward 7 unknown #
vertex $-1 $229 $422 #
ellipse-curve $-1 -6.5604534928190077 42.352460786615985 4.5600551241572962 0 0.57357644374324357 0.81915203911291934 1.5 0 0 1 I I #
point $-1 -5.0604534928190077 44.438346873261409 7.5390091238751262 #
plane-surface $-1 0 48.934864314582988 0 0 -1 0 0 0 -1 forward_v I I I I #
coedge $-1 $423 $235 $240 $351 forward $146 $-1 #
coedge $-1 $235 $423 $348 $424 forward $146 $-1 #
edge $-1 $349 -23.658050264610349 $356 -14.665015381967162 $235 $425 forward 7 unknown #
coedge $-1 $244 $238 $346 $424 reversed $245 $-1 #
vertex $-1 $239 $426 #
straight-curve $-1 44.820005920348493 48.934864314582988 88.666505226050589 0 0 1 I I #
edge $-1 $356 15.790668980805208 $354 42.268004898281362 $345 $427 forward 7 unknown #
coedge $-1 $353 $241 $244 $358 reversed $233 $-1 #
coedge $-1 $241 $352 $423 $428 reversed $233 $-1 #
vertex $-1 $428 $429 #
straight-curve $-1 71.297341837824632 -6.5366894425966411 43.232114498300135 0 0.81915203911291934 -0.57357644374324357 I I #
vertex $-1 $351 $430 #
straight-curve $-1 44.820005920348493 -31.235323459426375 60.526284552531365 0 0.81915203911291934 -0.57357644374324357 I I #
edge $-1 $431 -10.687504592452214 $246 -4.3905136552980393 $352 $432 forward 7 unknown #
point $-1 71.297341837824632 48.934864314582988 4.3905136552980393 #
point $-1 44.820005920348493 48.934864314582988 4.3905136552980366 #
edge $-1 $433 1 $433 0 $249 $-1 forward 7 unknown #
vertex $-1 $250 $434 #
ellipse-curve $-1 58.05867387908657 42.352460786615985 4.5600551241572962 0 0.57357644374324357 0.81915203911291934 1.5 0 0 1 I I #
point $-1 59.55867387908657 44.438346873261409 7.5390091238751262 #
plane-surface $-1 71.297341837824632 0 0 -1 0 0 0 0 1 forward_v I I I I #
coedge $-1 $258 $256 $260 $370 reversed $161 $-1 #
edge $-1 $271 -10.687504592452214 $372 10.687504592452214 $270 $435 forward 7 unknown #
vertex $-1 $370 $436 #
straight-curve $-1 -71.297341837824632 -48.934864314582988 0 0 0 -1 I I #
edge $-1 $368 -48.934864314582988 $372 48.934864314582988 $366 $437 forward 7 unknown #
straight-curve $-1 0 -48.934864314582988 -10.687504592452214 -1 0 0 I I #
vertex $-1 $263 $438 #
straight-curve $-1 0 48.934864314582988 -10.687504592452214 1 0 0 I I #
point $-1 71.297341837824632 48.934864314582988 -10.687504592452214 #
point $-1 71.297341837824632 -48.934864314582988 -10.687504592452214 #
straight-curve $-1 -71.297341837824632 0 10.687504592452214 0 -1 0 I I #
point $-1 -71.297341837824632 48.934864314582988 10.687504592452214 #
point $-1 -71.297341837824632 -48.934864314582988 10.687504592452214 #
straight-curve $-1 71.297341837824632 -48.934864314582988 0 0 0 -1 I I #
straight-curve $-1 71.297341837824632 48.934864314582988 0 0 0 -1 I I #
plane-surface $-1 0 -48.934864314582988 0 0 1 0 0 0 1 forward_v I I I I #
coedge $-1 $439 $395 $284 $384 forward $281 $-1 #
coedge $-1 $385 $283 $292 $393 forward $180 $-1 #
edge $-1 $388 -2.6511808703521638 $386 2.6511808703521638 $284 $440 forward 7 unknown #
coedge $-1 $285 $383 $439 $441 forward $180 $-1 #
vertex $-1 $286 $442 #
straight-curve $-1 -77.975556303743701 48.934864314582988 -0.67220519013654112 1 0 0 I I #
vertex $-1 $287 $443 #
straight-curve $-1 -77.975556303743701 48.934864314582988 4.6301565505677864 -1 0 0 I I #
point $-1 -71.297341837824632 48.934864314582988 -0.67220519013654112 #
straight-curve $-1 -71.297341837824632 0 -0.67220519013654112 0 1 0 I I #
coedge $-1 $292 $291 $444 $445 forward $293 $-1 #
edge $-1 $294 -6.6782144659190692 $446 6.6782144659190692 $292 $447 forward 7 unknown #
point $-1 -71.297341837824632 -48.934864314582988 -0.67220519013654112 #
coedge $-1 $382 $444 $296 $396 reversed $281 $-1 #
edge $-1 $388 -48.934864314582988 $397 48.934864314582988 $395 $448 forward 7 unknown #
vertex $-1 $396 $449 #
straight-curve $-1 -77.975556303743701 -48.934864314582988 4.6301565505677864 1 0 0 I I #
coedge $-1 $303 $302 $310 $404 reversed $116 $-1 #
edge $-1 $306 48.816819343751334 $407 71.297341837824632 $303 $450 forward 7 unknown #
straight-curve $-1 48.816819343751334 -48.934864314582988 42.168893250505647 0 0 -1 I I #
point $-1 48.816819343751334 -48.934864314582988 10.687504592452214 #
straight-curve $-1 30.028540295393995 -48.934864314582988 6.6751573431943694 1 0 0 I I #
edge $-1 $407 -10.687504592452214 $311 -6.6751573431943747 $310 $451 forward 7 unknown #
point $-1 71.297341837824646 -48.934864314582988 6.6751573431943747 #
point $-1 48.816819343751334 -48.934864314582988 6.6751573431943747 #
vertex $-1 $315 $452 #
straight-curve $-1 71.297341837824632 0 10.687504592452214 0 1 0 I I #
vertex $-1 $318 $453 #
point $-1 60.55708059078799 -46.413680725168966 7.890119247539114 #
coedge $-1 $333 $332 $325 $412 forward $322 $-1 #
edge $-1 $413 77.979000633598375 $416 84.275991570752552 $411 $454 forward 7 unknown #
vertex $-1 $337 $455 #
straight-curve $-1 6.6782144659190692 25.276814049972639 10.687504592452214 0 1 0 I I #
edge $-1 $416 -9.958441212328573 $334 16.518894705147581 $333 $456 forward 7 unknown #
vertex $-1 $415 $457 #
straight-curve $-1 6.6782144659190692 -31.235323459426375 60.526284552531365 0 -0.81915203911291934 0.57357644374324357 I I #
point $-1 6.6782144659190692 39.941829431939802 10.687504592452214 #
point $-1 -19.799121451557085 48.934864314582988 4.3905136552980366 #
straight-curve $-1 0 48.934864314582988 10.687504592452214 -1 0 0 I I #
vertex $-1 $340 $458 #
point $-1 -5.0604534928190077 42.352460786615985 4.5600551241572962 #
coedge $-1 $346 $345 $353 $428 forward $146 $-1 #
edge $-1 $431 -71.297341837824632 $349 -44.820005920348493 $348 $459 forward 7 unknown #
straight-curve $-1 44.820005920348493 25.276814049972639 10.687504592452214 0 -1 0 I I #
point $-1 44.820005920348493 48.934864314582988 10.687504592452214 #
straight-curve $-1 29.029336939543285 39.941829431939809 10.687504592452214 1 0 0 I I #
edge $-1 $354 39.941829431939802 $431 48.934864314582988 $353 $460 forward 7 unknown #
point $-1 71.297341837824646 39.941829431939802 10.687504592452214 #
point $-1 44.820005920348493 39.941829431939802 10.687504592452214 #
vertex $-1 $428 $461 #
straight-curve $-1 71.297341837824632 48.934864314582988 0 0 0 -1 I I #
vertex $-1 $361 $462 #
point $-1 59.55867387908657 42.352460786615985 4.5600551241572962 #
straight-curve $-1 -71.297341837824632 48.934864314582988 0 0 0 -1 I I #
point $-1 -71.297341837824632 -48.934864314582988 -10.687504592452214 #
straight-curve $-1 -71.297341837824632 0 -10.687504592452214 0 1 0 I I #
point $-1 -71.297341837824632 48.934864314582988 -10.687504592452214 #
coedge $-1 $444 $382 $385 $441 reversed $281 $-1 #
straight-curve $-1 -84.653770769662771 48.934864314582988 1.9789756802156226 0 0 -1 I I #
edge $-1 $446 -48.934864314582988 $386 48.934864314582988 $439 $463 forward 7 unknown #
point $-1 -84.653770769662771 48.934864314582988 -0.67220519013654112 #
point $-1 -84.653770769662771 48.934864314582988 4.6301565505677864 #
coedge $-1 $395 $439 $392 $445 reversed $281 $-1 #
edge $-1 $397 -2.6511808703521638 $446 2.6511808703521638 $444 $464 forward 7 unknown #
vertex $-1 $441 $465 #
straight-curve $-1 -77.975556303743701 -48.934864314582988 -0.67220519013654112 -1 0 0 I I #
straight-curve $-1 -84.653770769662771 0 4.6301565505677864 0 -1 0 I I #
point $-1 -84.653770769662771 -48.934864314582988 4.6301565505677864 #
straight-curve $-1 0 -48.934864314582988 10.687504592452214 1 0 0 I I #
straight-curve $-1 71.297341837824632 -48.934864314582988 0 0 0 -1 I I #
point $-1 71.297341837824632 -48.934864314582988 10.687504592452214 #
point $-1 60.05708059078799 -45.994345437194092 7.6177997361943897 #
straight-curve $-1 6.6782144659190692 48.934864314582988 88.666505226050589 0 0 -1 I I #
point $-1 6.6782144659190692 48.934864314582988 10.687504592452214 #
straight-curve $-1 -3.2802267464095038 48.934864314582995 4.3905136552980295 -1 0 0 I I #
point $-1 6.6782144659190692 48.934864314582988 4.3905136552980366 #
point $-1 -6.5604534928190077 41.492096121001119 3.3313270654879172 #
straight-curve $-1 0 48.934864314582988 10.687504592452214 -1 0 0 I I #
straight-curve $-1 71.297341837824632 0 10.687504592452214 0 1 0 I I #
point $-1 71.297341837824632 48.934864314582988 10.687504592452214 #
point $-1 58.05867387908657 41.492096121001119 3.3313270654879172 #
straight-curve $-1 -84.653770769662771 0 -0.67220519013654112 0 1 0 I I #
straight-curve $-1 -84.653770769662771 -48.934864314582988 1.9789756802156226 0 0 -1 I I #
point $-1 -84.653770769662771 -48.934864314582988 -0.67220519013654112 #
End-of-ACIS-data 