500 0 18 0           
7 Unknown 11 ACIS 5.0 NT 24 Fri Mar 26 01:33:13 1999 
-1 9.9999999999999995e-007 1e-010 
body $-1 $18 $-1 $19 #
body $-1 $20 $-1 $21 #
body $-1 $22 $-1 $23 #
body $-1 $24 $-1 $25 #
body $-1 $26 $-1 $27 #
body $-1 $28 $-1 $29 #
body $-1 $30 $-1 $31 #
body $-1 $32 $-1 $33 #
body $-1 $34 $-1 $35 #
body $-1 $36 $-1 $37 #
body $-1 $38 $-1 $39 #
body $-1 $40 $-1 $41 #
body $-1 $42 $-1 $43 #
body $-1 $44 $-1 $45 #
body $-1 $46 $-1 $47 #
body $-1 $48 $-1 $49 #
body $-1 $50 $-1 $51 #
body $-1 $52 $-1 $53 #
lump $-1 $-1 $54 $0 #
transform $-1 1 0 0 0 1 0 0 0 1 76.363414410840178 36.571333373275237 13.917464392978614 1 rotate no_reflect no_shear #
lump $-1 $-1 $55 $1 #
transform $-1 1 0 0 0 1 0 0 0 1 76.363414410840178 36.571333373275237 13.917464392978614 1 rotate no_reflect no_shear #
lump $-1 $-1 $56 $2 #
transform $-1 1 0 0 0 1 0 0 0 1 76.363414410840178 36.571333373275237 13.917464392978614 1 rotate no_reflect no_shear #
lump $-1 $-1 $57 $3 #
transform $-1 1 0 0 0 1 0 0 0 1 76.363414410840178 36.571333373275237 13.917464392978614 1 rotate no_reflect no_shear #
lump $-1 $-1 $58 $4 #
transform $-1 1 0 0 0 1 0 0 0 1 76.363414410840178 36.571333373275237 13.917464392978614 1 rotate no_reflect no_shear #
lump $-1 $-1 $59 $5 #
transform $-1 1 0 0 0 1 0 0 0 1 76.363414410840178 36.571333373275237 13.917464392978614 1 rotate no_reflect no_shear #
lump $-1 $-1 $60 $6 #
transform $-1 1 0 0 0 1 0 0 0 1 76.363414410840178 36.571333373275237 13.917464392978614 1 rotate no_reflect no_shear #
lump $-1 $-1 $61 $7 #
transform $-1 1 0 0 0 1 0 0 0 1 76.363414410840178 36.571333373275237 13.917464392978614 1 rotate no_reflect no_shear #
lump $-1 $-1 $62 $8 #
transform $-1 1 0 0 0 1 0 0 0 1 76.363414410840178 36.571333373275237 13.917464392978614 1 rotate no_reflect no_shear #
lump $-1 $-1 $63 $9 #
transform $-1 1 0 0 0 1 0 0 0 1 76.363414410840178 36.571333373275237 13.917464392978614 1 rotate no_reflect no_shear #
lump $-1 $-1 $64 $10 #
transform $-1 1 0 0 0 1 0 0 0 1 76.363414410840178 36.571333373275237 13.917464392978614 1 rotate no_reflect no_shear #
lump $-1 $-1 $65 $11 #
transform $-1 1 0 0 0 1 0 0 0 1 76.363414410840178 36.571333373275237 13.917464392978614 1 rotate no_reflect no_shear #
lump $-1 $-1 $66 $12 #
transform $-1 1 0 0 0 1 0 0 0 1 76.363414410840178 36.571333373275237 13.917464392978614 1 rotate no_reflect no_shear #
lump $-1 $-1 $67 $13 #
transform $-1 1 0 0 0 1 0 0 0 1 76.363414410840178 36.571333373275237 13.917464392978614 1 rotate no_reflect no_shear #
lump $-1 $-1 $68 $14 #
transform $-1 1 0 0 0 1 0 0 0 1 76.363414410840178 36.571333373275237 13.917464392978614 1 rotate no_reflect no_shear #
lump $-1 $-1 $69 $15 #
transform $-1 1 0 0 0 1 0 0 0 1 76.363414410840178 36.571333373275237 13.917464392978614 1 rotate no_reflect no_shear #
lump $-1 $-1 $70 $16 #
transform $-1 1 0 0 0 1 0 0 0 1 76.363414410840178 36.571333373275237 13.917464392978614 1 rotate no_reflect no_shear #
lump $-1 $-1 $71 $17 #
transform $-1 1 0 0 0 1 0 0 0 1 76.363414410840178 36.571333373275237 13.917464392978614 1 rotate no_reflect no_shear #
shell $-1 $-1 $-1 $72 $-1 $18 #
shell $-1 $-1 $-1 $73 $-1 $20 #
shell $-1 $-1 $-1 $74 $-1 $22 #
shell $-1 $-1 $-1 $75 $-1 $24 #
shell $-1 $-1 $-1 $76 $-1 $26 #
shell $-1 $-1 $-1 $77 $-1 $28 #
shell $-1 $-1 $-1 $78 $-1 $30 #
shell $-1 $-1 $-1 $79 $-1 $32 #
shell $-1 $-1 $-1 $80 $-1 $34 #
shell $-1 $-1 $-1 $81 $-1 $36 #
shell $-1 $-1 $-1 $82 $-1 $38 #
shell $-1 $-1 $-1 $83 $-1 $40 #
shell $-1 $-1 $-1 $84 $-1 $42 #
shell $-1 $-1 $-1 $85 $-1 $44 #
shell $-1 $-1 $-1 $86 $-1 $46 #
shell $-1 $-1 $-1 $87 $-1 $48 #
shell $-1 $-1 $-1 $88 $-1 $50 #
shell $-1 $-1 $-1 $89 $-1 $52 #
face $-1 $90 $91 $54 $-1 $92 forward single #
face $-1 $93 $94 $55 $-1 $95 reversed single #
face $-1 $96 $97 $56 $-1 $98 reversed single #
face $-1 $99 $100 $57 $-1 $101 forward single #
face $-1 $102 $103 $58 $-1 $104 forward single #
face $-1 $105 $106 $59 $-1 $107 forward single #
face $-1 $108 $109 $60 $-1 $110 reversed single #
face $-1 $111 $112 $61 $-1 $113 forward single #
face $-1 $114 $115 $62 $-1 $116 forward single #
face $-1 $117 $118 $63 $-1 $119 forward single #
face $-1 $120 $121 $64 $-1 $122 reversed single #
face $-1 $123 $124 $65 $-1 $125 forward single #
face $-1 $126 $127 $66 $-1 $128 forward single #
face $-1 $129 $130 $67 $-1 $131 forward single #
face $-1 $132 $133 $68 $-1 $134 reversed single #
face $-1 $135 $136 $69 $-1 $137 forward single #
face $-1 $138 $139 $70 $-1 $140 forward single #
face $-1 $141 $142 $71 $-1 $143 forward single #
face $-1 $144 $145 $54 $-1 $146 reversed single #
loop $-1 $-1 $147 $72 #
plane-surface $-1 0 0 13.917464392978614 0 0 1 1 0 0 forward_v I I I I #
face $-1 $148 $149 $55 $-1 $150 reversed single #
loop $-1 $-1 $151 $73 #
plane-surface $-1 -74.741713589927926 -22.846446218242619 0 0 -1 0 0 0 -1 forward_v I I I I #
face $-1 $152 $153 $56 $-1 $154 reversed single #
loop $-1 $-1 $155 $74 #
plane-surface $-1 -204.45091190169728 -13.84506313523999 90.168207981574113 0 -1 0 0.83867057594974714 0 -0.54463902268945019 forward_v I I I I #
face $-1 $156 $157 $57 $-1 $158 forward single #
loop $-1 $159 $160 $75 #
cone-surface $-1 -73.592509501084919 -21.046169601642095 10.114241414057322 0.83867057594974714 0 -0.54463902268945019 0.2723195113447251 0 0.41933528797487357 1 I I 0 1 0.5 forward I I I I #
face $-1 $161 $162 $58 $-1 $163 forward single #
loop $-1 $164 $165 $76 #
cone-surface $-1 -73.592509501084919 -18.345754676741308 10.114241414057322 0.83867057594974714 0 -0.54463902268945019 0.2723195113447251 0 0.41933528797487357 1 I I 0 1 0.5 forward I I I I #
face $-1 $166 $167 $59 $-1 $168 forward single #
loop $-1 $169 $170 $77 #
cone-surface $-1 -73.592509501084919 -15.645339751840517 10.114241414057322 0.83867057594974714 0 -0.54463902268945019 0.2723195113447251 0 0.41933528797487357 1 I I 0 1 0.5 forward I I I I #
face $-1 $171 $172 $60 $-1 $173 reversed single #
loop $-1 $-1 $174 $78 #
plane-surface $-1 -204.45091190169728 15.863826660518942 90.168207981574113 0 -1 0 0.83867057594974714 0 -0.54463902268945019 forward_v I I I I #
face $-1 $175 $176 $61 $-1 $177 forward single #
loop $-1 $178 $179 $79 #
cone-surface $-1 -73.592509501084919 8.6627201941168366 10.114241414057322 0.83867057594974714 0 -0.54463902268945019 0.2723195113447251 0 0.41933528797487357 1 I I 0 1 0.5 forward I I I I #
face $-1 $180 $181 $62 $-1 $182 forward single #
loop $-1 $183 $184 $80 #
cone-surface $-1 -73.592509501084919 11.363135119017628 10.114241414057322 0.83867057594974714 0 -0.54463902268945019 0.2723195113447251 0 0.41933528797487357 1 I I 0 1 0.5 forward I I I I #
face $-1 $185 $186 $63 $-1 $187 forward single #
loop $-1 $188 $189 $81 #
cone-surface $-1 -73.592509501084919 14.063550043918411 10.114241414057322 0.83867057594974714 0 -0.54463902268945019 0.2723195113447251 0 0.41933528797487357 1 I I 0 1 0.5 forward I I I I #
face $-1 $190 $191 $64 $-1 $192 reversed single #
loop $-1 $-1 $193 $82 #
plane-surface $-1 50.041057789685539 -2.4852138322832644 214.65328589873906 0 -1 0 -0.61566148304635926 0 -0.78801074757464917 forward_v I I I I #
face $-1 $194 $195 $65 $-1 $196 forward single #
loop $-1 $197 $198 $83 #
cone-surface $-1 66.659395929357146 -10.750572313999815 5.8505814778462462 -0.61566148304635926 0 -0.78801074757464917 0.78801074757464917 0 -0.61566148304635926 1 I I 0 1 1 forward I I I I #
face $-1 $199 $200 $66 $-1 $201 forward single #
loop $-1 $202 $203 $84 #
cone-surface $-1 66.659395929357146 -7.6510628833561078 5.8505814778462462 -0.61566148304635926 0 -0.78801074757464917 0.78801074757464917 0 -0.61566148304635926 1 I I 0 1 1 forward I I I I #
face $-1 $204 $205 $67 $-1 $206 forward single #
loop $-1 $207 $208 $85 #
cone-surface $-1 66.659395929357146 -4.5515534527123975 5.8505814778462462 -0.61566148304635926 0 -0.78801074757464917 0.78801074757464917 0 -0.61566148304635926 1 I I 0 1 1 forward I I I I #
face $-1 $209 $210 $68 $-1 $211 reversed single #
loop $-1 $-1 $212 $86 #
plane-surface $-1 50.041057789685539 27.22367596347566 214.65328589873906 0 -1 0 -0.61566148304635926 0 -0.78801074757464917 forward_v I I I I #
face $-1 $213 $214 $69 $-1 $215 forward single #
loop $-1 $216 $217 $87 #
cone-surface $-1 66.659395929357146 18.95831748175911 5.8505814778462462 -0.61566148304635926 0 -0.78801074757464917 0.78801074757464917 0 -0.61566148304635926 1 I I 0 1 1 forward I I I I #
face $-1 $218 $219 $70 $-1 $220 forward single #
loop $-1 $221 $222 $88 #
cone-surface $-1 66.659395929357146 22.057826912402817 5.8505814778462462 -0.61566148304635926 0 -0.78801074757464917 0.78801074757464917 0 -0.61566148304635926 1 I I 0 1 1 forward I I I I #
face $-1 $223 $224 $71 $-1 $225 forward single #
loop $-1 $226 $227 $89 #
cone-surface $-1 66.659395929357146 25.157336343046531 5.8505814778462462 -0.61566148304635926 0 -0.78801074757464917 0.78801074757464917 0 -0.61566148304635926 1 I I 0 1 1 forward I I I I #
face $-1 $228 $229 $54 $-1 $230 reversed single #
loop $-1 $-1 $231 $90 #
plane-surface $-1 0 0 -13.917464392978614 0 0 1 1 0 0 forward_v I I I I #
coedge $-1 $232 $233 $234 $235 forward $91 $-1 #
face $-1 $236 $237 $55 $-1 $238 forward single #
loop $-1 $-1 $239 $93 #
plane-surface $-1 -73.120012769015673 -29.708889795758928 0 -1 0 0 0 0 1 forward_v I I I I #
coedge $-1 $240 $241 $242 $243 forward $94 $-1 #
face $-1 $244 $245 $56 $-1 $246 forward single #
loop $-1 $-1 $247 $96 #
plane-surface $-1 -76.363414410840164 -18.345754676741304 6.9872171936751641 -0.83867057594974714 0 0.54463902268945019 0.54463902268945019 0 0.83867057594974714 forward_v I I I I #
coedge $-1 $248 $249 $250 $251 reversed $97 $-1 #
face $-1 $-1 $252 $57 $-1 $253 forward single #
loop $-1 $254 $255 $99 #
cone-surface $-1 -72.86221445192173 -21.046169601642095 9.6399822791153849 0.83867057594974714 0 -0.54463902268945019 0.13615975567236255 0 0.20966764398743679 1 I I -0.70710678118654746 0.70710678118654746 0.25 forward I I I I #
loop $-1 $-1 $256 $75 #
coedge $-1 $160 $160 $257 $258 reversed $100 $-1 #
face $-1 $-1 $259 $58 $-1 $260 forward single #
loop $-1 $261 $262 $102 #
cone-surface $-1 -72.86221445192173 -18.345754676741308 9.6399822791153849 0.83867057594974714 0 -0.54463902268945019 0.13615975567236255 0 0.20966764398743679 1 I I -0.70710678118654746 0.70710678118654746 0.25 forward I I I I #
loop $-1 $-1 $263 $76 #
coedge $-1 $165 $165 $264 $265 reversed $103 $-1 #
face $-1 $-1 $266 $59 $-1 $267 forward single #
loop $-1 $268 $269 $105 #
cone-surface $-1 -72.86221445192173 -15.645339751840517 9.6399822791153849 0.83867057594974714 0 -0.54463902268945019 0.13615975567236255 0 0.20966764398743679 1 I I -0.70710678118654746 0.70710678118654746 0.25 forward I I I I #
loop $-1 $-1 $270 $77 #
coedge $-1 $170 $170 $271 $272 reversed $106 $-1 #
face $-1 $273 $274 $60 $-1 $275 reversed single #
loop $-1 $-1 $276 $108 #
plane-surface $-1 -76.363414410840164 11.363135119017628 6.9872171936751641 -0.83867057594974714 0 0.54463902268945019 0.54463902268945019 0 0.83867057594974714 forward_v I I I I #
coedge $-1 $277 $278 $279 $280 reversed $109 $-1 #
face $-1 $-1 $281 $61 $-1 $282 forward single #
loop $-1 $283 $284 $111 #
cone-surface $-1 -72.86221445192173 8.6627201941168366 9.6399822791153849 0.83867057594974714 0 -0.54463902268945019 0.13615975567236255 0 0.20966764398743679 1 I I -0.70710678118654746 0.70710678118654746 0.25 forward I I I I #
loop $-1 $-1 $285 $79 #
coedge $-1 $179 $179 $286 $287 reversed $112 $-1 #
face $-1 $-1 $288 $62 $-1 $289 forward single #
loop $-1 $290 $291 $114 #
cone-surface $-1 -72.86221445192173 11.363135119017628 9.6399822791153849 0.83867057594974714 0 -0.54463902268945019 0.13615975567236255 0 0.20966764398743679 1 I I -0.70710678118654746 0.70710678118654746 0.25 forward I I I I #
loop $-1 $-1 $292 $80 #
coedge $-1 $184 $184 $293 $294 reversed $115 $-1 #
face $-1 $-1 $295 $63 $-1 $296 forward single #
loop $-1 $297 $298 $117 #
cone-surface $-1 -72.86221445192173 14.063550043918411 9.6399822791153849 0.83867057594974714 0 -0.54463902268945019 0.13615975567236255 0 0.20966764398743679 1 I I -0.70710678118654746 0.70710678118654746 0.25 forward I I I I #
loop $-1 $-1 $299 $81 #
coedge $-1 $189 $189 $300 $301 reversed $118 $-1 #
face $-1 $302 $303 $64 $-1 $304 reversed single #
loop $-1 $-1 $305 $120 #
plane-surface $-1 -43.98696814363764 -7.6510628833561078 94.302903344261239 0.61566148304635926 0 0.78801074757464917 0.78801074757464917 0 -0.61566148304635926 forward_v I I I I #
coedge $-1 $306 $307 $308 $309 reversed $121 $-1 #
face $-1 $-1 $310 $65 $-1 $311 forward single #
loop $-1 $312 $313 $123 #
cone-surface $-1 65.378404054593105 -10.750572313999815 4.2109866799468154 -0.61566148304635926 0 -0.78801074757464917 0.39400537378732459 0 -0.30783074152317963 1 I I -0.70710678118654746 0.70710678118654746 0.5 forward I I I I #
loop $-1 $-1 $314 $83 #
coedge $-1 $198 $198 $315 $316 reversed $124 $-1 #
face $-1 $-1 $317 $66 $-1 $318 forward single #
loop $-1 $319 $320 $126 #
cone-surface $-1 65.378404054593105 -7.6510628833561078 4.2109866799468154 -0.61566148304635926 0 -0.78801074757464917 0.39400537378732459 0 -0.30783074152317963 1 I I -0.70710678118654746 0.70710678118654746 0.5 forward I I I I #
loop $-1 $-1 $321 $84 #
coedge $-1 $203 $203 $322 $323 reversed $127 $-1 #
face $-1 $-1 $324 $67 $-1 $325 forward single #
loop $-1 $326 $327 $129 #
cone-surface $-1 65.378404054593105 -4.5515534527123975 4.2109866799468154 -0.61566148304635926 0 -0.78801074757464917 0.39400537378732459 0 -0.30783074152317963 1 I I -0.70710678118654746 0.70710678118654746 0.5 forward I I I I #
loop $-1 $-1 $328 $85 #
coedge $-1 $208 $208 $329 $330 reversed $130 $-1 #
face $-1 $331 $332 $68 $-1 $333 reversed single #
loop $-1 $-1 $334 $132 #
plane-surface $-1 -43.98696814363764 22.057826912402817 94.302903344261239 0.61566148304635926 0 0.78801074757464917 0.78801074757464917 0 -0.61566148304635926 forward_v I I I I #
coedge $-1 $335 $336 $337 $338 reversed $133 $-1 #
face $-1 $-1 $339 $69 $-1 $340 forward single #
loop $-1 $341 $342 $135 #
cone-surface $-1 65.378404054593105 18.95831748175911 4.2109866799468154 -0.61566148304635926 0 -0.78801074757464917 0.39400537378732459 0 -0.30783074152317963 1 I I -0.70710678118654746 0.70710678118654746 0.5 forward I I I I #
loop $-1 $-1 $343 $87 #
coedge $-1 $217 $217 $344 $345 reversed $136 $-1 #
face $-1 $-1 $346 $70 $-1 $347 forward single #
loop $-1 $348 $349 $138 #
cone-surface $-1 65.378404054593105 22.057826912402817 4.2109866799468154 -0.61566148304635926 0 -0.78801074757464917 0.39400537378732459 0 -0.30783074152317963 1 I I -0.70710678118654746 0.70710678118654746 0.5 forward I I I I #
loop $-1 $-1 $350 $88 #
coedge $-1 $222 $222 $351 $352 reversed $139 $-1 #
face $-1 $-1 $353 $71 $-1 $354 forward single #
loop $-1 $355 $356 $141 #
cone-surface $-1 65.378404054593105 25.157336343046531 4.2109866799468154 -0.61566148304635926 0 -0.78801074757464917 0.39400537378732459 0 -0.30783074152317963 1 I I -0.70710678118654746 0.70710678118654746 0.5 forward I I I I #
loop $-1 $-1 $357 $89 #
coedge $-1 $227 $227 $358 $359 reversed $142 $-1 #
face $-1 $360 $361 $54 $-1 $362 reversed single #
loop $-1 $-1 $363 $144 #
plane-surface $-1 0 -36.571333373275237 0 0 1 0 0 0 1 forward_v I I I I #
coedge $-1 $364 $365 $366 $367 forward $145 $-1 #
coedge $-1 $368 $147 $369 $370 forward $91 $-1 #
coedge $-1 $147 $368 $371 $372 forward $91 $-1 #
coedge $-1 $373 $374 $147 $235 reversed $375 $-1 #
edge $-1 $376 -36.571333373275237 $377 36.571333373275237 $234 $378 forward 7 unknown #
face $-1 $379 $380 $55 $-1 $381 reversed single #
loop $-1 $-1 $382 $148 #
plane-surface $-1 0 0 13.917464392978614 0 0 1 1 0 0 forward_v I I I I #
coedge $-1 $383 $384 $385 $386 reversed $149 $-1 #
coedge $-1 $387 $151 $388 $389 reversed $94 $-1 #
coedge $-1 $151 $387 $390 $391 reversed $94 $-1 #
coedge $-1 $384 $383 $151 $243 reversed $149 $-1 #
edge $-1 $392 -13.917464392978614 $393 13.917464392978614 $242 $394 forward 7 unknown #
face $-1 $395 $396 $56 $-1 $397 forward single #
loop $-1 $-1 $398 $152 #
plane-surface $-1 0 0 13.917464392978614 0 0 1 1 0 0 forward_v I I I I #
coedge $-1 $399 $400 $401 $402 reversed $153 $-1 #
coedge $-1 $249 $155 $403 $404 reversed $97 $-1 #
coedge $-1 $155 $248 $399 $405 reversed $97 $-1 #
coedge $-1 $401 $406 $155 $251 forward $407 $-1 #
edge $-1 $408 31.166639597808441 $409 38.096886797111914 $250 $410 forward 7 unknown #
loop $-1 $-1 $257 $156 #
plane-surface $-1 -76.363414410840164 -18.345754676741304 6.9872171936751641 -0.83867057594974714 0 0.54463902268945019 0.54463902268945019 0 0.83867057594974714 forward_v I I I I #
loop $-1 $-1 $411 $99 #
coedge $-1 $255 $255 $256 $412 reversed $157 $-1 #
coedge $-1 $256 $256 $255 $412 forward $159 $-1 #
coedge $-1 $257 $257 $160 $258 forward $252 $-1 #
edge $-1 $413 0 $413 6.2831853071796004 $257 $414 forward 7 unknown #
loop $-1 $-1 $264 $161 #
plane-surface $-1 -76.363414410840164 -18.345754676741304 6.9872171936751641 -0.83867057594974714 0 0.54463902268945019 0.54463902268945019 0 0.83867057594974714 forward_v I I I I #
loop $-1 $-1 $415 $102 #
coedge $-1 $262 $262 $263 $416 reversed $162 $-1 #
coedge $-1 $263 $263 $262 $416 forward $164 $-1 #
coedge $-1 $264 $264 $165 $265 forward $259 $-1 #
edge $-1 $417 0 $417 6.2831853071796004 $264 $418 forward 7 unknown #
loop $-1 $-1 $271 $166 #
plane-surface $-1 -76.363414410840164 -18.345754676741304 6.9872171936751641 -0.83867057594974714 0 0.54463902268945019 0.54463902268945019 0 0.83867057594974714 forward_v I I I I #
loop $-1 $-1 $419 $105 #
coedge $-1 $269 $269 $270 $420 reversed $167 $-1 #
coedge $-1 $270 $270 $269 $420 forward $169 $-1 #
coedge $-1 $271 $271 $170 $272 forward $266 $-1 #
edge $-1 $421 0 $421 6.2831853071796004 $271 $422 forward 7 unknown #
face $-1 $423 $424 $60 $-1 $425 reversed single #
loop $-1 $-1 $426 $171 #
plane-surface $-1 -204.45091190169728 6.862443577516312 90.168207981574113 0 1 0 -0.83867057594974714 0 0.54463902268945019 forward_v I I I I #
coedge $-1 $427 $428 $429 $430 reversed $172 $-1 #
coedge $-1 $278 $174 $431 $432 reversed $109 $-1 #
coedge $-1 $174 $277 $427 $433 reversed $109 $-1 #
coedge $-1 $429 $434 $174 $280 forward $424 $-1 #
edge $-1 $435 31.166639597808441 $436 38.096886797111914 $279 $437 forward 7 unknown #
loop $-1 $-1 $286 $175 #
plane-surface $-1 -76.363414410840164 11.363135119017628 6.9872171936751641 -0.83867057594974714 0 0.54463902268945019 0.54463902268945019 0 0.83867057594974714 forward_v I I I I #
loop $-1 $-1 $438 $111 #
coedge $-1 $284 $284 $285 $439 reversed $176 $-1 #
coedge $-1 $285 $285 $284 $439 forward $178 $-1 #
coedge $-1 $286 $286 $179 $287 forward $281 $-1 #
edge $-1 $440 0 $440 6.2831853071796004 $286 $441 forward 7 unknown #
loop $-1 $-1 $293 $180 #
plane-surface $-1 -76.363414410840164 11.363135119017628 6.9872171936751641 -0.83867057594974714 0 0.54463902268945019 0.54463902268945019 0 0.83867057594974714 forward_v I I I I #
loop $-1 $-1 $442 $114 #
coedge $-1 $291 $291 $292 $443 reversed $181 $-1 #
coedge $-1 $292 $292 $291 $443 forward $183 $-1 #
coedge $-1 $293 $293 $184 $294 forward $288 $-1 #
edge $-1 $444 0 $444 6.2831853071796004 $293 $445 forward 7 unknown #
loop $-1 $-1 $300 $185 #
plane-surface $-1 -76.363414410840164 11.363135119017628 6.9872171936751641 -0.83867057594974714 0 0.54463902268945019 0.54463902268945019 0 0.83867057594974714 forward_v I I I I #
loop $-1 $-1 $446 $117 #
coedge $-1 $298 $298 $299 $447 reversed $186 $-1 #
coedge $-1 $299 $299 $298 $447 forward $188 $-1 #
coedge $-1 $300 $300 $189 $301 forward $295 $-1 #
edge $-1 $448 0 $448 6.2831853071796004 $300 $449 forward 7 unknown #
face $-1 $450 $451 $64 $-1 $452 forward single #
loop $-1 $-1 $453 $190 #
plane-surface $-1 50.041057789685539 -12.816911934428951 214.65328589873906 0 1 0 0.61566148304635926 0 0.78801074757464917 forward_v I I I I #
coedge $-1 $454 $455 $456 $457 reversed $191 $-1 #
coedge $-1 $307 $193 $458 $459 reversed $121 $-1 #
coedge $-1 $193 $306 $454 $460 reversed $121 $-1 #
coedge $-1 $456 $461 $193 $309 forward $451 $-1 #
edge $-1 $462 -51.342885515997409 $463 -33.881170819513059 $308 $464 forward 7 unknown #
loop $-1 $-1 $315 $194 #
plane-surface $-1 -43.98696814363764 -7.6510628833561078 94.302903344261239 0.61566148304635926 0 0.78801074757464917 0.78801074757464917 0 -0.61566148304635926 forward_v I I I I #
loop $-1 $-1 $465 $123 #
coedge $-1 $313 $313 $314 $466 reversed $195 $-1 #
coedge $-1 $314 $314 $313 $466 forward $197 $-1 #
coedge $-1 $315 $315 $198 $316 forward $310 $-1 #
edge $-1 $467 0 $467 6.2831853071796004 $315 $468 forward 7 unknown #
loop $-1 $-1 $322 $199 #
plane-surface $-1 -43.98696814363764 -7.6510628833561078 94.302903344261239 0.61566148304635926 0 0.78801074757464917 0.78801074757464917 0 -0.61566148304635926 forward_v I I I I #
loop $-1 $-1 $469 $126 #
coedge $-1 $320 $320 $321 $470 reversed $200 $-1 #
coedge $-1 $321 $321 $320 $470 forward $202 $-1 #
coedge $-1 $322 $322 $203 $323 forward $317 $-1 #
edge $-1 $471 0 $471 6.2831853071796004 $322 $472 forward 7 unknown #
loop $-1 $-1 $329 $204 #
plane-surface $-1 -43.98696814363764 -7.6510628833561078 94.302903344261239 0.61566148304635926 0 0.78801074757464917 0.78801074757464917 0 -0.61566148304635926 forward_v I I I I #
loop $-1 $-1 $473 $129 #
coedge $-1 $327 $327 $328 $474 reversed $205 $-1 #
coedge $-1 $328 $328 $327 $474 forward $207 $-1 #
coedge $-1 $329 $329 $208 $330 forward $324 $-1 #
edge $-1 $475 0 $475 6.2831853071796004 $329 $476 forward 7 unknown #
face $-1 $477 $478 $68 $-1 $479 reversed single #
loop $-1 $-1 $480 $209 #
plane-surface $-1 50.041057789685539 16.891977861329973 214.65328589873906 0 1 0 0.61566148304635926 0 0.78801074757464917 forward_v I I I I #
coedge $-1 $481 $482 $483 $484 reversed $210 $-1 #
coedge $-1 $336 $212 $485 $486 reversed $133 $-1 #
coedge $-1 $212 $335 $481 $487 reversed $133 $-1 #
coedge $-1 $483 $488 $212 $338 forward $489 $-1 #
edge $-1 $490 -51.342885515997409 $491 -33.881170819513059 $337 $492 forward 7 unknown #
loop $-1 $-1 $344 $213 #
plane-surface $-1 -43.98696814363764 22.057826912402817 94.302903344261239 0.61566148304635926 0 0.78801074757464917 0.78801074757464917 0 -0.61566148304635926 forward_v I I I I #
loop $-1 $-1 $493 $135 #
coedge $-1 $342 $342 $343 $494 reversed $214 $-1 #
coedge $-1 $343 $343 $342 $494 forward $216 $-1 #
coedge $-1 $344 $344 $217 $345 forward $339 $-1 #
edge $-1 $495 0 $495 6.2831853071796004 $344 $496 forward 7 unknown #
loop $-1 $-1 $351 $218 #
plane-surface $-1 -43.98696814363764 22.057826912402817 94.302903344261239 0.61566148304635926 0 0.78801074757464917 0.78801074757464917 0 -0.61566148304635926 forward_v I I I I #
loop $-1 $-1 $497 $138 #
coedge $-1 $349 $349 $350 $498 reversed $219 $-1 #
coedge $-1 $350 $350 $349 $498 forward $221 $-1 #
coedge $-1 $351 $351 $222 $352 forward $346 $-1 #
edge $-1 $499 0 $499 6.2831853071796004 $351 $500 forward 7 unknown #
loop $-1 $-1 $358 $223 #
plane-surface $-1 -43.98696814363764 22.057826912402817 94.302903344261239 0.61566148304635926 0 0.78801074757464917 0.78801074757464917 0 -0.61566148304635926 forward_v I I I I #
loop $-1 $-1 $501 $141 #
coedge $-1 $356 $356 $357 $502 reversed $224 $-1 #
coedge $-1 $357 $357 $356 $502 forward $226 $-1 #
coedge $-1 $358 $358 $227 $359 forward $353 $-1 #
edge $-1 $503 0 $503 6.2831853071796004 $358 $504 forward 7 unknown #
face $-1 $505 $506 $54 $-1 $507 reversed single #
loop $-1 $-1 $508 $228 #
plane-surface $-1 -76.363414410840178 0 0 1 0 0 0 0 -1 forward_v I I I I #
coedge $-1 $509 $371 $510 $511 forward $229 $-1 #
coedge $-1 $512 $231 $509 $513 forward $145 $-1 #
coedge $-1 $231 $512 $514 $515 forward $145 $-1 #
coedge $-1 $374 $373 $231 $367 reversed $375 $-1 #
edge $-1 $516 -36.571333373275237 $517 36.571333373275237 $366 $518 forward 7 unknown #
coedge $-1 $233 $232 $519 $520 forward $91 $-1 #
coedge $-1 $521 $522 $232 $370 reversed $506 $-1 #
edge $-1 $377 -76.363414410840178 $523 76.363414410840178 $369 $524 forward 7 unknown #
coedge $-1 $363 $525 $233 $372 reversed $229 $-1 #
edge $-1 $526 -76.363414410840178 $376 76.363414410840178 $371 $527 forward 7 unknown #
coedge $-1 $366 $234 $525 $528 forward $375 $-1 #
coedge $-1 $234 $366 $521 $529 reversed $375 $-1 #
loop $-1 $-1 $373 $505 #
vertex $-1 $235 $530 #
vertex $-1 $235 $531 #
straight-curve $-1 76.363414410840178 0 13.917464392978614 0 1 0 I I #
face $-1 $532 $533 $55 $-1 $534 reversed single #
loop $-1 $-1 $535 $236 #
plane-surface $-1 -76.363414410840178 0 0 1 0 0 0 0 -1 forward_v I I I I #
coedge $-1 $390 $536 $384 $537 forward $237 $-1 #
coedge $-1 $242 $239 $538 $539 reversed $149 $-1 #
coedge $-1 $239 $242 $382 $537 reversed $149 $-1 #
coedge $-1 $540 $541 $239 $386 forward $542 $-1 #
edge $-1 $543 -13.917464392978614 $544 13.917464392978614 $385 $545 forward 7 unknown #
coedge $-1 $241 $240 $535 $546 reversed $94 $-1 #
coedge $-1 $538 $547 $240 $389 forward $533 $-1 #
edge $-1 $548 -38.992557615876215 $393 -35.74915597405171 $388 $549 forward 7 unknown #
coedge $-1 $550 $382 $241 $391 forward $237 $-1 #
edge $-1 $392 35.74915597405171 $551 38.992557615876215 $390 $552 forward 7 unknown #
vertex $-1 $391 $553 #
vertex $-1 $389 $554 #
straight-curve $-1 -73.120012769015673 -22.846446218242619 0 0 0 -1 I I #
face $-1 $-1 $407 $56 $-1 $555 reversed single #
loop $-1 $-1 $556 $244 #
plane-surface $-1 -74.741713589927926 -22.846446218242619 0 0 -1 0 0 0 -1 forward_v I I I I #
coedge $-1 $557 $558 $559 $560 forward $245 $-1 #
coedge $-1 $561 $247 $249 $405 forward $153 $-1 #
coedge $-1 $247 $561 $556 $562 reversed $153 $-1 #
coedge $-1 $563 $250 $247 $402 forward $407 $-1 #
edge $-1 $409 4.6721857968693374 $564 13.673568879871967 $401 $565 forward 7 unknown #
coedge $-1 $558 $557 $248 $404 forward $245 $-1 #
edge $-1 $566 -30.36259654916752 $408 -25.862041540008462 $403 $567 forward 7 unknown #
edge $-1 $409 -2.636201369357039e-014 $566 8.2633722918624386 $249 $568 forward 7 unknown #
coedge $-1 $250 $563 $558 $569 reversed $407 $-1 #
loop $-1 $-1 $401 $395 #
vertex $-1 $569 $570 #
vertex $-1 $251 $571 #
straight-curve $-1 -76.363414410840178 -13.84506313523999 45.084103990787057 0 0 -1 I I #
coedge $-1 $411 $411 $-1 $572 reversed $254 $-1 #
edge $-1 $573 0 $573 6.2831853071796004 $255 $574 forward 7 unknown #
vertex $-1 $258 $575 #
ellipse-curve $-1 -74.11313690626065 -21.046169601642095 10.452340793326883 -0.83867057594974714 0 0.54463902268945019 0.2723195113447251 0 0.41933528797487357 1 I I #
coedge $-1 $415 $415 $-1 $576 reversed $261 $-1 #
edge $-1 $577 0 $577 6.2831853071796004 $262 $578 forward 7 unknown #
vertex $-1 $265 $579 #
ellipse-curve $-1 -74.11313690626065 -18.345754676741308 10.452340793326883 -0.83867057594974714 0 0.54463902268945019 0.2723195113447251 0 0.41933528797487357 1 I I #
coedge $-1 $419 $419 $-1 $580 reversed $268 $-1 #
edge $-1 $581 0 $581 6.2831853071796004 $269 $582 forward 7 unknown #
vertex $-1 $272 $583 #
ellipse-curve $-1 -74.11313690626065 -15.645339751840517 10.452340793326883 -0.83867057594974714 0 0.54463902268945019 0.2723195113447251 0 0.41933528797487357 1 I I #
face $-1 $-1 $584 $60 $-1 $585 forward single #
loop $-1 $-1 $279 $273 #
plane-surface $-1 -76.363414410840178 0 0 1 0 0 0 0 -1 forward_v I I I I #
coedge $-1 $586 $587 $588 $589 reversed $274 $-1 #
coedge $-1 $590 $276 $278 $433 forward $172 $-1 #
coedge $-1 $276 $590 $586 $591 forward $172 $-1 #
coedge $-1 $588 $279 $276 $430 forward $424 $-1 #
edge $-1 $436 -10.182259101010128 $592 -1.1808760180074982 $429 $593 forward 7 unknown #
coedge $-1 $594 $595 $277 $432 forward $584 $-1 #
edge $-1 $596 -30.36259654916752 $435 -25.862041540008462 $431 $597 forward 7 unknown #
edge $-1 $436 -2.636201369357039e-014 $596 8.2633722918624386 $278 $598 forward 7 unknown #
coedge $-1 $279 $588 $594 $599 reversed $424 $-1 #
vertex $-1 $599 $600 #
vertex $-1 $280 $601 #
straight-curve $-1 -76.363414410840178 15.863826660518942 45.084103990787057 0 0 -1 I I #
coedge $-1 $438 $438 $-1 $602 reversed $283 $-1 #
edge $-1 $603 0 $603 6.2831853071796004 $284 $604 forward 7 unknown #
vertex $-1 $287 $605 #
ellipse-curve $-1 -74.11313690626065 8.6627201941168366 10.452340793326883 -0.83867057594974714 0 0.54463902268945019 0.2723195113447251 0 0.41933528797487357 1 I I #
coedge $-1 $442 $442 $-1 $606 reversed $290 $-1 #
edge $-1 $607 0 $607 6.2831853071796004 $291 $608 forward 7 unknown #
vertex $-1 $294 $609 #
ellipse-curve $-1 -74.11313690626065 11.363135119017628 10.452340793326883 -0.83867057594974714 0 0.54463902268945019 0.2723195113447251 0 0.41933528797487357 1 I I #
coedge $-1 $446 $446 $-1 $610 reversed $297 $-1 #
edge $-1 $611 0 $611 6.2831853071796004 $298 $612 forward 7 unknown #
vertex $-1 $301 $613 #
ellipse-curve $-1 -74.11313690626065 14.063550043918411 10.452340793326883 -0.83867057594974714 0 0.54463902268945019 0.2723195113447251 0 0.41933528797487357 1 I I #
face $-1 $-1 $614 $64 $-1 $615 reversed single #
loop $-1 $-1 $308 $302 #
plane-surface $-1 0 0 13.917464392978614 0 0 1 1 0 0 forward_v I I I I #
coedge $-1 $616 $617 $618 $619 reversed $303 $-1 #
coedge $-1 $620 $305 $307 $460 forward $191 $-1 #
coedge $-1 $305 $620 $616 $621 forward $191 $-1 #
coedge $-1 $618 $308 $305 $457 forward $451 $-1 #
edge $-1 $463 -1.3403176093947895 $622 8.9913804927508973 $456 $623 forward 7 unknown #
coedge $-1 $624 $625 $306 $459 forward $614 $-1 #
edge $-1 $626 -107.05176553843147 $462 -93.409178556390913 $458 $627 forward 7 unknown #
edge $-1 $463 130.56759463581645 $626 152.72682882168036 $307 $628 forward 7 unknown #
coedge $-1 $308 $618 $624 $629 forward $451 $-1 #
vertex $-1 $309 $630 #
vertex $-1 $309 $631 #
straight-curve $-1 25.020528894842769 -2.4852138322832644 13.917464392978616 -1 0 0 I I #
coedge $-1 $465 $465 $-1 $632 reversed $312 $-1 #
edge $-1 $633 0 $633 6.2831853071796004 $313 $634 forward 7 unknown #
vertex $-1 $316 $635 #
ellipse-curve $-1 67.632557062597996 -10.750572313999815 7.096170901958339 0.61566148304635926 0 0.78801074757464917 0.78801074757464917 0 -0.61566148304635926 1 I I #
coedge $-1 $469 $469 $-1 $636 reversed $319 $-1 #
edge $-1 $637 0 $637 6.2831853071796004 $320 $638 forward 7 unknown #
vertex $-1 $323 $639 #
ellipse-curve $-1 67.632557062597996 -7.6510628833561078 7.096170901958339 0.61566148304635926 0 0.78801074757464917 0.78801074757464917 0 -0.61566148304635926 1 I I #
coedge $-1 $473 $473 $-1 $640 reversed $326 $-1 #
edge $-1 $641 0 $641 6.2831853071796004 $327 $642 forward 7 unknown #
vertex $-1 $330 $643 #
ellipse-curve $-1 67.632557062597996 -4.5515534527123975 7.096170901958339 0.61566148304635926 0 0.78801074757464917 0.78801074757464917 0 -0.61566148304635926 1 I I #
face $-1 $-1 $489 $68 $-1 $644 forward single #
loop $-1 $-1 $645 $331 #
plane-surface $-1 76.363414410840178 0 0 -1 0 0 0 0 1 forward_v I I I I #
coedge $-1 $646 $647 $648 $649 reversed $332 $-1 #
coedge $-1 $650 $334 $336 $487 forward $210 $-1 #
coedge $-1 $334 $650 $646 $651 forward $210 $-1 #
coedge $-1 $648 $337 $334 $484 forward $489 $-1 #
edge $-1 $491 -16.194762507274252 $652 -5.863064405128565 $483 $653 forward 7 unknown #
coedge $-1 $654 $655 $335 $486 forward $478 $-1 #
edge $-1 $656 -107.05176553843147 $490 -93.409178556390913 $485 $657 forward 7 unknown #
edge $-1 $491 130.56759463581645 $656 152.72682882168036 $336 $658 forward 7 unknown #
coedge $-1 $337 $648 $654 $659 forward $489 $-1 #
loop $-1 $-1 $648 $477 #
vertex $-1 $486 $660 #
vertex $-1 $338 $661 #
straight-curve $-1 25.020528894842769 27.22367596347566 13.917464392978616 -1 0 0 I I #
coedge $-1 $493 $493 $-1 $662 reversed $341 $-1 #
edge $-1 $663 0 $663 6.2831853071796004 $342 $664 forward 7 unknown #
vertex $-1 $345 $665 #
ellipse-curve $-1 67.632557062597996 18.95831748175911 7.096170901958339 0.61566148304635926 0 0.78801074757464917 0.78801074757464917 0 -0.61566148304635926 1 I I #
coedge $-1 $497 $497 $-1 $666 reversed $348 $-1 #
edge $-1 $667 0 $667 6.2831853071796004 $349 $668 forward 7 unknown #
vertex $-1 $352 $669 #
ellipse-curve $-1 67.632557062597996 22.057826912402817 7.096170901958339 0.61566148304635926 0 0.78801074757464917 0.78801074757464917 0 -0.61566148304635926 1 I I #
coedge $-1 $501 $501 $-1 $670 reversed $355 $-1 #
edge $-1 $671 0 $671 6.2831853071796004 $356 $672 forward 7 unknown #
vertex $-1 $359 $673 #
ellipse-curve $-1 67.632557062597996 25.157336343046531 7.096170901958339 0.61566148304635926 0 0.78801074757464917 0.78801074757464917 0 -0.61566148304635926 1 I I #
face $-1 $-1 $375 $54 $-1 $674 reversed single #
loop $-1 $-1 $521 $360 #
plane-surface $-1 0 36.571333373275237 0 0 -1 0 0 0 -1 forward_v I I I I #
coedge $-1 $675 $519 $522 $676 forward $361 $-1 #
coedge $-1 $525 $363 $364 $513 reversed $229 $-1 #
coedge $-1 $519 $675 $363 $511 reversed $361 $-1 #
edge $-1 $526 -13.917464392978614 $677 13.917464392978614 $510 $678 forward 7 unknown #
coedge $-1 $365 $364 $675 $679 forward $145 $-1 #
edge $-1 $517 -76.363414410840178 $677 76.363414410840178 $509 $680 forward 7 unknown #
coedge $-1 $522 $521 $365 $515 reversed $506 $-1 #
edge $-1 $681 -76.363414410840178 $516 76.363414410840178 $514 $682 forward 7 unknown #
vertex $-1 $367 $683 #
vertex $-1 $528 $684 #
straight-curve $-1 76.363414410840178 0 -13.917464392978614 0 -1 0 I I #
coedge $-1 $508 $510 $368 $520 reversed $361 $-1 #
edge $-1 $523 -36.571333373275237 $526 36.571333373275237 $519 $685 forward 7 unknown #
coedge $-1 $514 $369 $374 $529 forward $506 $-1 #
coedge $-1 $369 $514 $508 $676 reversed $506 $-1 #
vertex $-1 $370 $686 #
straight-curve $-1 0 36.571333373275237 13.917464392978614 -1 0 0 I I #
coedge $-1 $371 $509 $373 $528 reversed $229 $-1 #
vertex $-1 $520 $687 #
straight-curve $-1 0 -36.571333373275237 13.917464392978614 1 0 0 I I #
edge $-1 $376 -13.917464392978614 $517 13.917464392978614 $373 $688 forward 7 unknown #
edge $-1 $377 -13.917464392978614 $516 13.917464392978614 $374 $689 forward 7 unknown #
point $-1 76.363414410840178 -36.571333373275237 13.917464392978614 #
point $-1 76.363414410840178 36.571333373275237 13.917464392978614 #
face $-1 $-1 $542 $55 $-1 $690 reversed single #
loop $-1 $-1 $538 $379 #
plane-surface $-1 0 0 -13.917464392978614 0 0 1 1 0 0 forward_v I I I I #
coedge $-1 $691 $692 $387 $546 forward $380 $-1 #
coedge $-1 $382 $550 $540 $693 forward $237 $-1 #
edge $-1 $544 -21.716888475395773 $392 -7.9920013203631548 $382 $694 forward 7 unknown #
coedge $-1 $695 $388 $383 $539 forward $533 $-1 #
edge $-1 $393 7.9920013203631548 $543 21.716888475395773 $538 $696 forward 7 unknown #
coedge $-1 $697 $385 $536 $693 reversed $542 $-1 #
coedge $-1 $385 $697 $695 $698 reversed $542 $-1 #
loop $-1 $-1 $385 $532 #
vertex $-1 $698 $699 #
vertex $-1 $386 $700 #
straight-curve $-1 -73.120012769015673 -36.571333373275237 0 0 0 1 I I #
edge $-1 $551 -13.917464392978614 $548 13.917464392978614 $535 $701 forward 7 unknown #
coedge $-1 $388 $695 $691 $702 forward $533 $-1 #
vertex $-1 $389 $703 #
straight-curve $-1 -37.370856794963963 -22.846446218242619 -13.917464392978614 1 0 0 I I #
coedge $-1 $536 $390 $692 $704 forward $237 $-1 #
vertex $-1 $704 $705 #
straight-curve $-1 -37.370856794963963 -22.846446218242619 13.917464392978614 -1 0 0 I I #
point $-1 -73.120012769015673 -22.846446218242619 13.917464392978614 #
point $-1 -73.120012769015673 -22.846446218242619 -13.917464392978614 #
plane-surface $-1 -76.363414410840178 0 0 1 0 0 0 0 -1 forward_v I I I I #
coedge $-1 $559 $706 $400 $562 forward $396 $-1 #
coedge $-1 $403 $398 $561 $707 forward $245 $-1 #
coedge $-1 $398 $403 $406 $569 forward $245 $-1 #
coedge $-1 $706 $556 $398 $560 reversed $396 $-1 #
edge $-1 $708 -38.992557615876215 $709 -34.492002606717158 $398 $710 forward 7 unknown #
coedge $-1 $400 $399 $557 $707 reversed $153 $-1 #
edge $-1 $564 2.4883659589545823 $709 10.751738250817048 $556 $711 forward 7 unknown #
coedge $-1 $406 $401 $706 $712 forward $407 $-1 #
vertex $-1 $712 $713 #
straight-curve $-1 -76.363414410840178 -9.1728773383706521 6.9872171936751286 0 -1 0 I I #
vertex $-1 $404 $714 #
straight-curve $-1 -102.22545595084864 -13.84506313523999 13.917464392978616 -1 0 0 I I #
straight-curve $-1 -76.363414410840164 -13.84506313523999 6.9872171936751641 0.54463902268945019 0 0.83867057594974714 I I #
edge $-1 $408 13.84506313523999 $708 22.846446218242619 $406 $715 forward 7 unknown #
point $-1 -76.363414410840178 -13.84506313523999 13.917464392978614 #
point $-1 -76.363414410840178 -13.84506313523999 6.9872171936751419 #
edge $-1 $716 1 $716 0 $411 $-1 forward 7 unknown #
vertex $-1 $412 $717 #
ellipse-curve $-1 -73.07188209590916 -21.046169601642095 9.7761420347877479 -0.83867057594974714 0 0.54463902268945019 0.2723195113447251 0 0.41933528797487357 1 I I #
point $-1 -73.840817394915945 -21.046169601642095 10.871676081301768 #
edge $-1 $718 1 $718 0 $415 $-1 forward 7 unknown #
vertex $-1 $416 $719 #
ellipse-curve $-1 -73.07188209590916 -18.345754676741308 9.7761420347877479 -0.83867057594974714 0 0.54463902268945019 0.2723195113447251 0 0.41933528797487357 1 I I #
point $-1 -73.840817394915945 -18.345754676741308 10.871676081301768 #
edge $-1 $720 1 $720 0 $419 $-1 forward 7 unknown #
vertex $-1 $420 $721 #
ellipse-curve $-1 -73.07188209590916 -15.645339751840517 9.7761420347877479 -0.83867057594974714 0 0.54463902268945019 0.2723195113447251 0 0.41933528797487357 1 I I #
point $-1 -73.840817394915945 -15.645339751840517 10.871676081301768 #
loop $-1 $-1 $431 $423 #
plane-surface $-1 0 0 13.917464392978614 0 0 1 1 0 0 forward_v I I I I #
coedge $-1 $587 $426 $428 $591 reversed $274 $-1 #
coedge $-1 $426 $586 $722 $723 reversed $274 $-1 #
coedge $-1 $434 $429 $426 $589 forward $424 $-1 #
edge $-1 $592 -38.096886797111914 $724 -31.166639597808441 $588 $725 forward 7 unknown #
coedge $-1 $428 $427 $595 $726 reversed $172 $-1 #
edge $-1 $727 -8.2633722918624386 $592 2.636201369357039e-014 $586 $728 forward 7 unknown #
vertex $-1 $430 $729 #
straight-curve $-1 -76.363414410840178 5.6815675595088138 6.9872171936751286 0 -1 0 I I #
coedge $-1 $722 $431 $434 $599 forward $584 $-1 #
coedge $-1 $431 $722 $590 $726 forward $584 $-1 #
vertex $-1 $432 $730 #
straight-curve $-1 -102.22545595084864 15.863826660518942 13.917464392978616 -1 0 0 I I #
straight-curve $-1 -76.363414410840164 15.863826660518942 6.9872171936751641 0.54463902268945019 0 0.83867057594974714 I I #
edge $-1 $435 -15.863826660518942 $724 -6.862443577516312 $434 $731 forward 7 unknown #
point $-1 -76.363414410840178 15.863826660518942 13.917464392978614 #
point $-1 -76.363414410840178 15.863826660518942 6.9872171936751419 #
edge $-1 $732 1 $732 0 $438 $-1 forward 7 unknown #
vertex $-1 $439 $733 #
ellipse-curve $-1 -73.07188209590916 8.6627201941168366 9.7761420347877479 -0.83867057594974714 0 0.54463902268945019 0.2723195113447251 0 0.41933528797487357 1 I I #
point $-1 -73.840817394915945 8.6627201941168366 10.871676081301768 #
edge $-1 $734 1 $734 0 $442 $-1 forward 7 unknown #
vertex $-1 $443 $735 #
ellipse-curve $-1 -73.07188209590916 11.363135119017628 9.7761420347877479 -0.83867057594974714 0 0.54463902268945019 0.2723195113447251 0 0.41933528797487357 1 I I #
point $-1 -73.840817394915945 11.363135119017628 10.871676081301768 #
edge $-1 $736 1 $736 0 $446 $-1 forward 7 unknown #
vertex $-1 $447 $737 #
ellipse-curve $-1 -73.07188209590916 14.063550043918411 9.7761420347877479 -0.83867057594974714 0 0.54463902268945019 0.2723195113447251 0 0.41933528797487357 1 I I #
point $-1 -73.840817394915945 14.063550043918411 10.871676081301768 #
loop $-1 $-1 $458 $450 #
plane-surface $-1 76.363414410840178 0 0 -1 0 0 0 0 1 forward_v I I I I #
coedge $-1 $617 $453 $455 $621 reversed $303 $-1 #
coedge $-1 $453 $616 $738 $739 reversed $303 $-1 #
coedge $-1 $461 $456 $453 $619 forward $451 $-1 #
edge $-1 $622 33.881170819513059 $740 51.342885515997409 $618 $741 forward 7 unknown #
coedge $-1 $455 $454 $625 $742 reversed $191 $-1 #
edge $-1 $743 -152.72682882168036 $622 -130.56759463581645 $616 $744 forward 7 unknown #
vertex $-1 $457 $745 #
straight-curve $-1 58.901699714355857 -3.8255314416780539 13.917464392978616 0 -1 0 I I #
coedge $-1 $738 $458 $461 $629 reversed $614 $-1 #
coedge $-1 $458 $738 $620 $742 forward $614 $-1 #
vertex $-1 $459 $746 #
straight-curve $-1 76.363414410840178 -2.4852138322832644 107.32664294936953 0 0 1 I I #
straight-curve $-1 -43.98696814363764 -2.4852138322832644 94.302903344261239 0.78801074757464917 0 -0.61566148304635926 I I #
edge $-1 $740 -12.816911934428951 $462 -2.4852138322832644 $624 $747 forward 7 unknown #
point $-1 76.363414410840178 -2.4852138322832644 13.917464392978614 #
point $-1 58.901699714355829 -2.4852138322832644 13.917464392978616 #
edge $-1 $748 1 $748 0 $465 $-1 forward 7 unknown #
vertex $-1 $466 $749 #
ellipse-curve $-1 65.686234796116281 -10.750572313999815 4.60499205373414 0.61566148304635926 0 0.78801074757464917 0.78801074757464917 0 -0.61566148304635926 1 I I #
point $-1 68.420567810172642 -10.750572313999815 6.4805094189119927 #
edge $-1 $750 1 $750 0 $469 $-1 forward 7 unknown #
vertex $-1 $470 $751 #
ellipse-curve $-1 65.686234796116281 -7.6510628833561078 4.60499205373414 0.61566148304635926 0 0.78801074757464917 0.78801074757464917 0 -0.61566148304635926 1 I I #
point $-1 68.420567810172642 -7.6510628833561078 6.4805094189119927 #
edge $-1 $752 1 $752 0 $473 $-1 forward 7 unknown #
vertex $-1 $474 $753 #
ellipse-curve $-1 65.686234796116281 -4.5515534527123975 4.60499205373414 0.61566148304635926 0 0.78801074757464917 0.78801074757464917 0 -0.61566148304635926 1 I I #
point $-1 68.420567810172642 -4.5515534527123975 6.4805094189119927 #
plane-surface $-1 0 0 13.917464392978614 0 0 1 1 0 0 forward_v I I I I #
coedge $-1 $655 $654 $647 $754 forward $478 $-1 #
coedge $-1 $647 $480 $482 $651 reversed $332 $-1 #
coedge $-1 $480 $646 $645 $754 reversed $332 $-1 #
coedge $-1 $488 $483 $480 $649 forward $489 $-1 #
edge $-1 $652 33.881170819513059 $755 51.342885515997409 $648 $756 forward 7 unknown #
coedge $-1 $482 $481 $655 $757 reversed $210 $-1 #
edge $-1 $758 -152.72682882168036 $652 -130.56759463581645 $646 $759 forward 7 unknown #
vertex $-1 $484 $760 #
straight-curve $-1 58.901699714355857 11.028913456201408 13.917464392978616 0 -1 0 I I #
coedge $-1 $645 $485 $488 $659 reversed $478 $-1 #
coedge $-1 $485 $645 $650 $757 forward $478 $-1 #
vertex $-1 $486 $761 #
straight-curve $-1 76.363414410840178 27.22367596347566 107.32664294936953 0 0 1 I I #
straight-curve $-1 -43.98696814363764 27.22367596347566 94.302903344261239 0.78801074757464917 0 -0.61566148304635926 I I #
edge $-1 $755 16.891977861329973 $490 27.22367596347566 $654 $762 forward 7 unknown #
point $-1 76.363414410840178 27.22367596347566 13.917464392978614 #
point $-1 58.901699714355829 27.22367596347566 13.917464392978616 #
edge $-1 $763 1 $763 0 $493 $-1 forward 7 unknown #
vertex $-1 $494 $764 #
ellipse-curve $-1 65.686234796116281 18.95831748175911 4.60499205373414 0.61566148304635926 0 0.78801074757464917 0.78801074757464917 0 -0.61566148304635926 1 I I #
point $-1 68.420567810172642 18.95831748175911 6.4805094189119927 #
edge $-1 $765 1 $765 0 $497 $-1 forward 7 unknown #
vertex $-1 $498 $766 #
ellipse-curve $-1 65.686234796116281 22.057826912402817 4.60499205373414 0.61566148304635926 0 0.78801074757464917 0.78801074757464917 0 -0.61566148304635926 1 I I #
point $-1 68.420567810172642 22.057826912402817 6.4805094189119927 #
edge $-1 $767 1 $767 0 $501 $-1 forward 7 unknown #
vertex $-1 $502 $768 #
ellipse-curve $-1 65.686234796116281 25.157336343046531 4.60499205373414 0.61566148304635926 0 0.78801074757464917 0.78801074757464917 0 -0.61566148304635926 1 I I #
point $-1 68.420567810172642 25.157336343046531 6.4805094189119927 #
plane-surface $-1 76.363414410840178 0 0 -1 0 0 0 0 1 forward_v I I I I #
coedge $-1 $510 $508 $512 $679 reversed $361 $-1 #
edge $-1 $523 -13.917464392978614 $681 13.917464392978614 $522 $769 forward 7 unknown #
vertex $-1 $679 $770 #
straight-curve $-1 -76.363414410840178 -36.571333373275237 0 0 0 -1 I I #
edge $-1 $677 -36.571333373275237 $681 36.571333373275237 $675 $771 forward 7 unknown #
straight-curve $-1 0 -36.571333373275237 -13.917464392978614 -1 0 0 I I #
vertex $-1 $515 $772 #
straight-curve $-1 0 36.571333373275237 -13.917464392978614 1 0 0 I I #
point $-1 76.363414410840178 36.571333373275237 -13.917464392978614 #
point $-1 76.363414410840178 -36.571333373275237 -13.917464392978614 #
straight-curve $-1 -76.363414410840178 0 13.917464392978614 0 -1 0 I I #
point $-1 -76.363414410840178 36.571333373275237 13.917464392978614 #
point $-1 -76.363414410840178 -36.571333373275237 13.917464392978614 #
straight-curve $-1 76.363414410840178 -36.571333373275237 0 0 0 -1 I I #
straight-curve $-1 76.363414410840178 36.571333373275237 0 0 0 -1 I I #
plane-surface $-1 0 -36.571333373275237 0 0 1 0 0 0 1 forward_v I I I I #
coedge $-1 $773 $535 $547 $702 reversed $380 $-1 #
coedge $-1 $535 $773 $550 $704 reversed $380 $-1 #
edge $-1 $774 -76.363414410840178 $544 -73.120012769015673 $540 $775 forward 7 unknown #
straight-curve $-1 -73.120012769015673 -14.854444897879464 13.917464392978614 0 1 0 I I #
coedge $-1 $547 $538 $541 $698 forward $533 $-1 #
straight-curve $-1 -73.120012769015673 -14.854444897879464 -13.917464392978614 0 -1 0 I I #
coedge $-1 $541 $540 $773 $776 forward $542 $-1 #
edge $-1 $543 73.120012769015673 $777 76.363414410840178 $541 $778 forward 7 unknown #
point $-1 -73.120012769015673 -36.571333373275237 -13.917464392978614 #
point $-1 -73.120012769015673 -36.571333373275237 13.917464392978614 #
straight-curve $-1 -76.363414410840178 -22.846446218242619 0 0 0 -1 I I #
edge $-1 $777 -36.571333373275237 $548 -22.846446218242619 $691 $779 forward 7 unknown #
point $-1 -76.363414410840178 -22.846446218242619 -13.917464392978614 #
edge $-1 $551 22.846446218242619 $774 36.571333373275237 $692 $780 forward 7 unknown #
point $-1 -76.363414410840178 -22.846446218242619 13.917464392978614 #
coedge $-1 $556 $559 $563 $712 reversed $396 $-1 #
edge $-1 $709 -13.673568879871967 $566 -4.6721857968693374 $557 $781 forward 7 unknown #
vertex $-1 $712 $782 #
vertex $-1 $560 $783 #
straight-curve $-1 -37.370856794963963 -22.846446218242619 13.917464392978614 1 0 0 I I #
straight-curve $-1 -77.718675614818906 -22.846446218242619 4.9002978817049625 0.54463902268945019 0 0.83867057594974714 I I #
edge $-1 $564 6.9872171936751419 $708 13.917464392978614 $563 $784 forward 7 unknown #
point $-1 -76.363414410840178 -22.846446218242619 6.9872171936751419 #
point $-1 -71.862859401681121 -13.84506313523999 13.917464392978616 #
straight-curve $-1 -76.363414410840178 0 13.917464392978614 0 -1 0 I I #
vertex $-1 $572 $785 #
point $-1 -72.799562584564441 -21.046169601642095 10.195477322762621 #
vertex $-1 $576 $786 #
point $-1 -72.799562584564441 -18.345754676741308 10.195477322762621 #
vertex $-1 $580 $787 #
point $-1 -72.799562584564441 -15.645339751840517 10.195477322762621 #
coedge $-1 $595 $594 $587 $723 forward $584 $-1 #
edge $-1 $724 25.862041540008462 $727 30.36259654916752 $722 $788 forward 7 unknown #
vertex $-1 $723 $789 #
straight-curve $-1 -76.363414410840178 6.862443577516312 45.084103990787057 0 0 1 I I #
edge $-1 $727 1.1808760180074982 $596 10.182259101010128 $595 $790 forward 7 unknown #
vertex $-1 $726 $791 #
straight-curve $-1 -76.363414410840164 6.862443577516312 6.9872171936751641 -0.54463902268945019 0 -0.83867057594974714 I I #
point $-1 -76.363414410840178 6.862443577516312 6.9872171936751419 #
point $-1 -71.862859401681121 15.863826660518942 13.917464392978616 #
straight-curve $-1 -76.363414410840178 0 13.917464392978614 0 -1 0 I I #
vertex $-1 $602 $792 #
point $-1 -72.799562584564441 8.6627201941168366 10.195477322762621 #
vertex $-1 $606 $793 #
point $-1 -72.799562584564441 11.363135119017628 10.195477322762621 #
vertex $-1 $610 $794 #
point $-1 -72.799562584564441 14.063550043918411 10.195477322762621 #
coedge $-1 $625 $624 $617 $739 forward $614 $-1 #
edge $-1 $740 93.409178556390913 $743 107.05176553843147 $738 $795 forward 7 unknown #
vertex $-1 $629 $796 #
straight-curve $-1 25.020528894842769 -12.816911934428951 13.917464392978616 1 0 0 I I #
edge $-1 $743 -8.9913804927508973 $626 1.3403176093947895 $625 $797 forward 7 unknown #
vertex $-1 $742 $798 #
straight-curve $-1 -43.98696814363764 -12.816911934428951 94.302903344261239 -0.78801074757464917 0 0.61566148304635926 I I #
point $-1 58.901699714355829 -12.816911934428951 13.917464392978616 #
point $-1 76.363414410840178 -2.4852138322832644 0.27487741093806051 #
straight-curve $-1 76.363414410840178 0 13.917464392978614 0 1 0 I I #
vertex $-1 $632 $799 #
point $-1 66.474245543690927 -10.750572313999815 3.9893305706877809 #
vertex $-1 $636 $800 #
point $-1 66.474245543690927 -7.6510628833561078 3.9893305706877809 #
vertex $-1 $640 $801 #
point $-1 66.474245543690927 -4.5515534527123975 3.9893305706877809 #
edge $-1 $755 93.409178556390913 $758 107.05176553843147 $645 $802 forward 7 unknown #
vertex $-1 $659 $803 #
straight-curve $-1 25.020528894842769 16.891977861329973 13.917464392978616 1 0 0 I I #
edge $-1 $758 5.863064405128565 $656 16.194762507274252 $655 $804 forward 7 unknown #
vertex $-1 $757 $805 #
straight-curve $-1 -43.98696814363764 16.891977861329973 94.302903344261239 -0.78801074757464917 0 0.61566148304635926 I I #
point $-1 58.901699714355829 16.891977861329973 13.917464392978616 #
point $-1 76.363414410840178 27.22367596347566 0.27487741093806051 #
straight-curve $-1 76.363414410840178 0 13.917464392978614 0 1 0 I I #
vertex $-1 $662 $806 #
point $-1 66.474245543690927 18.95831748175911 3.9893305706877809 #
vertex $-1 $666 $807 #
point $-1 66.474245543690927 22.057826912402817 3.9893305706877809 #
vertex $-1 $670 $808 #
point $-1 66.474245543690927 25.157336343046531 3.9893305706877809 #
straight-curve $-1 -76.363414410840178 36.571333373275237 0 0 0 -1 I I #
point $-1 -76.363414410840178 -36.571333373275237 -13.917464392978614 #
straight-curve $-1 -76.363414410840178 0 -13.917464392978614 0 1 0 I I #
point $-1 -76.363414410840178 36.571333373275237 -13.917464392978614 #
coedge $-1 $692 $691 $697 $776 reversed $380 $-1 #
vertex $-1 $704 $809 #
straight-curve $-1 0 -36.571333373275237 13.917464392978614 1 0 0 I I #
edge $-1 $774 -13.917464392978614 $777 13.917464392978614 $773 $810 forward 7 unknown #
vertex $-1 $702 $811 #
straight-curve $-1 0 -36.571333373275237 -13.917464392978614 -1 0 0 I I #
straight-curve $-1 -76.363414410840178 0 -13.917464392978614 0 1 0 I I #
straight-curve $-1 -76.363414410840178 0 13.917464392978614 0 -1 0 I I #
straight-curve $-1 -71.862859401681135 -9.1728773383706521 13.917464392978614 0 1 0 I I #
point $-1 -76.363414410840178 -22.846446218242619 13.917464392978614 #
point $-1 -71.862859401681121 -22.846446218242619 13.917464392978616 #
straight-curve $-1 -76.363414410840178 -22.846446218242619 0 0 0 1 I I #
point $-1 -72.6525468079343 -21.046169601642095 9.5038225234430218 #
point $-1 -72.6525468079343 -18.345754676741308 9.5038225234430218 #
point $-1 -72.6525468079343 -15.645339751840517 9.5038225234430218 #
straight-curve $-1 -102.22545595084864 6.862443577516312 13.917464392978616 1 0 0 I I #
point $-1 -76.363414410840178 6.862443577516312 13.917464392978614 #
straight-curve $-1 -71.862859401681135 5.6815675595088138 13.917464392978614 0 1 0 I I #
point $-1 -71.862859401681121 6.862443577516312 13.917464392978616 #
point $-1 -72.6525468079343 8.6627201941168366 9.5038225234430218 #
point $-1 -72.6525468079343 11.363135119017628 9.5038225234430218 #
point $-1 -72.6525468079343 14.063550043918411 9.5038225234430218 #
straight-curve $-1 76.363414410840178 -12.816911934428951 107.32664294936953 0 0 -1 I I #
point $-1 76.363414410840178 -12.816911934428951 13.917464392978614 #
straight-curve $-1 76.363414410840178 -3.8255314416780539 0.27487741093806761 0 1 0 I I #
point $-1 76.363414410840178 -12.816911934428951 0.27487741093806051 #
point $-1 65.070573313069929 -10.750572313999815 3.8169813061594908 #
point $-1 65.070573313069929 -7.6510628833561078 3.8169813061594908 #
point $-1 65.070573313069929 -4.5515534527123975 3.8169813061594908 #
straight-curve $-1 76.363414410840178 16.891977861329973 107.32664294936953 0 0 -1 I I #
point $-1 76.363414410840178 16.891977861329973 13.917464392978614 #
straight-curve $-1 76.363414410840178 11.028913456201408 0.27487741093806761 0 1 0 I I #
point $-1 76.363414410840178 16.891977861329973 0.27487741093806051 #
point $-1 65.070573313069929 18.95831748175911 3.8169813061594908 #
point $-1 65.070573313069929 22.057826912402817 3.8169813061594908 #
point $-1 65.070573313069929 25.157336343046531 3.8169813061594908 #
point $-1 -76.363414410840178 -36.571333373275237 13.917464392978614 #
straight-curve $-1 -76.363414410840178 -36.571333373275237 0 0 0 -1 I I #
point $-1 -76.363414410840178 -36.571333373275237 -13.917464392978614 #
End-of-ACIS-data 