500 0 8 0           
7 Unknown 11 ACIS 5.0 NT 24 Fri Mar 26 19:34:59 1999 
-1 9.9999999999999995e-007 1e-010 
body $-1 $8 $-1 $9 #
body $-1 $10 $-1 $11 #
body $-1 $12 $-1 $13 #
body $-1 $14 $-1 $15 #
body $-1 $16 $-1 $17 #
body $-1 $18 $-1 $19 #
body $-1 $20 $-1 $21 #
body $-1 $22 $-1 $23 #
lump $-1 $-1 $24 $0 #
transform $-1 1 0 0 0 1 0 0 0 1 59.447614978484452 41.242678678545353 19.020694956951861 1 rotate no_reflect no_shear #
lump $-1 $-1 $25 $1 #
transform $-1 1 0 0 0 1 0 0 0 1 59.447614978484452 41.242678678545353 19.020694956951861 1 rotate no_reflect no_shear #
lump $-1 $-1 $26 $2 #
transform $-1 1 0 0 0 1 0 0 0 1 59.447614978484452 41.242678678545353 19.020694956951861 1 rotate no_reflect no_shear #
lump $-1 $-1 $27 $3 #
transform $-1 1 0 0 0 1 0 0 0 1 59.447614978484452 41.242678678545353 19.020694956951861 1 rotate no_reflect no_shear #
lump $-1 $-1 $28 $4 #
transform $-1 1 0 0 0 1 0 0 0 1 59.447614978484452 41.242678678545353 19.020694956951861 1 rotate no_reflect no_shear #
lump $-1 $-1 $29 $5 #
transform $-1 1 0 0 0 1 0 0 0 1 59.447614978484452 41.242678678545353 19.020694956951861 1 rotate no_reflect no_shear #
lump $-1 $-1 $30 $6 #
transform $-1 1 0 0 0 1 0 0 0 1 59.447614978484452 41.242678678545353 19.020694956951861 1 rotate no_reflect no_shear #
lump $-1 $-1 $31 $7 #
transform $-1 1 0 0 0 1 0 0 0 1 59.447614978484452 41.242678678545353 19.020694956951861 1 rotate no_reflect no_shear #
shell $-1 $-1 $-1 $32 $-1 $8 #
shell $-1 $-1 $-1 $33 $-1 $10 #
shell $-1 $-1 $-1 $34 $-1 $12 #
shell $-1 $-1 $-1 $35 $-1 $14 #
shell $-1 $-1 $-1 $36 $-1 $16 #
shell $-1 $-1 $-1 $37 $-1 $18 #
shell $-1 $-1 $-1 $38 $-1 $20 #
shell $-1 $-1 $-1 $39 $-1 $22 #
face $-1 $40 $41 $24 $-1 $42 forward single #
face $-1 $43 $44 $25 $-1 $45 forward single #
face $-1 $46 $47 $26 $-1 $48 reversed single #
face $-1 $49 $50 $27 $-1 $51 forward single #
face $-1 $52 $53 $28 $-1 $54 forward single #
face $-1 $55 $56 $29 $-1 $57 reversed single #
face $-1 $58 $59 $30 $-1 $60 forward single #
face $-1 $61 $62 $31 $-1 $63 forward single #
face $-1 $64 $65 $24 $-1 $66 reversed single #
loop $-1 $-1 $67 $32 #
plane-surface $-1 0 0 19.020694956951861 0 0 1 1 0 0 forward_v I I I I #
face $-1 $68 $69 $25 $-1 $70 reversed single #
loop $-1 $-1 $71 $33 #
plane-surface $-1 -48.027222164330773 0 9.7889804934603397 0 0 1 1 0 0 forward_v I I I I #
face $-1 $72 $73 $26 $-1 $74 reversed single #
loop $-1 $-1 $75 $34 #
plane-surface $-1 33.85820914706305 39.344588360787334 156.91116546149661 1 0 0 0 -0.55919291073839883 -0.82903756765294845 forward_v I I I I #
face $-1 $76 $77 $27 $-1 $78 forward single #
loop $-1 $79 $80 $35 #
cone-surface $-1 41.169467956040592 34.523239436035148 13.133890297859965 0 -0.55919291073839883 -0.82903756765294845 1.5 0 0 1 I I 0 1 1.5 forward I I I I #
face $-1 $81 $82 $28 $-1 $83 forward single #
loop $-1 $84 $85 $36 #
cone-surface $-1 52.136356169506911 34.523239436035148 13.133890297859965 0 -0.55919291073839883 -0.82903756765294845 1.5 0 0 1 I I 0 1 1.5 forward I I I I #
face $-1 $86 $87 $29 $-1 $88 reversed single #
loop $-1 $-1 $89 $37 #
plane-surface $-1 46.893689200362196 -109.43818185529872 108.97205658217749 -1 0 0 0 -0.57357644374324357 0.81915203911291934 forward_v I I I I #
face $-1 $90 $91 $30 $-1 $92 forward single #
loop $-1 $93 $94 $38 #
cone-surface $-1 35.741450320241441 -35.011166697955588 13.989502465606877 0 0.57357644374324357 -0.81915203911291934 2 0 0 1 I I 0 1 2 forward I I I I #
face $-1 $95 $96 $31 $-1 $97 forward single #
loop $-1 $98 $99 $39 #
cone-surface $-1 42.432793648313904 -35.011166697955588 13.989502465606877 0 0.57357644374324357 -0.81915203911291934 2 0 0 1 I I 0 1 2 forward I I I I #
face $-1 $100 $101 $24 $-1 $102 reversed single #
loop $-1 $-1 $103 $40 #
plane-surface $-1 0 0 -19.020694956951861 0 0 1 1 0 0 forward_v I I I I #
coedge $-1 $104 $105 $106 $107 forward $41 $-1 #
face $-1 $108 $109 $25 $-1 $110 reversed single #
loop $-1 $-1 $111 $43 #
plane-surface $-1 -48.027222164330773 0 1.9307464192319976 0 0 1 1 0 0 forward_v I I I I #
coedge $-1 $112 $113 $114 $115 forward $44 $-1 #
face $-1 $116 $117 $26 $-1 $118 forward single #
loop $-1 $-1 $119 $46 #
plane-surface $-1 46.652912062773751 -27.140781351761383 58.342553212433131 0 0.55919291073839883 0.82903756765294845 1 0 0 forward_v I I I I #
coedge $-1 $120 $121 $122 $123 reversed $47 $-1 #
face $-1 $-1 $124 $27 $-1 $125 forward single #
loop $-1 $126 $127 $49 #
cone-surface $-1 41.169467956040592 32.42760994733009 10.026991872191978 0 -0.55919291073839883 -0.82903756765294845 0.75 0 0 1 I I -0.70710678118654757 0.70710678118654757 0.75 forward I I I I #
loop $-1 $-1 $128 $35 #
coedge $-1 $80 $80 $129 $130 reversed $50 $-1 #
face $-1 $-1 $131 $28 $-1 $132 forward single #
loop $-1 $133 $134 $52 #
cone-surface $-1 52.136356169506911 32.42760994733009 10.026991872191978 0 -0.55919291073839883 -0.82903756765294845 0.75 0 0 1 I I -0.70710678118654757 0.70710678118654757 0.75 forward I I I I #
loop $-1 $-1 $135 $36 #
coedge $-1 $85 $85 $136 $137 reversed $53 $-1 #
face $-1 $138 $139 $29 $-1 $140 reversed single #
loop $-1 $-1 $141 $55 #
plane-surface $-1 39.087121984277658 -41.242678678545346 11.578786522126961 0 -0.57357644374324357 0.81915203911291934 1 0 0 forward_v I I I I #
coedge $-1 $142 $143 $144 $145 reversed $56 $-1 #
face $-1 $-1 $146 $30 $-1 $147 forward single #
loop $-1 $148 $149 $58 #
cone-surface $-1 35.741450320241441 -33.520151520332917 11.860112152561427 0 0.57357644374324357 -0.81915203911291934 1 0 0 1 I I -0.70710678118654746 0.70710678118654746 1 forward I I I I #
loop $-1 $-1 $150 $38 #
coedge $-1 $94 $94 $151 $152 reversed $59 $-1 #
face $-1 $-1 $153 $31 $-1 $154 forward single #
loop $-1 $155 $156 $61 #
cone-surface $-1 42.432793648313904 -33.520151520332917 11.860112152561427 0 0.57357644374324357 -0.81915203911291934 1 0 0 1 I I -0.70710678118654746 0.70710678118654746 1 forward I I I I #
loop $-1 $-1 $157 $39 #
coedge $-1 $99 $99 $158 $159 reversed $62 $-1 #
face $-1 $160 $161 $24 $-1 $162 reversed single #
loop $-1 $-1 $163 $64 #
plane-surface $-1 0 -41.242678678545353 0 0 1 0 0 0 1 forward_v I I I I #
coedge $-1 $164 $165 $166 $167 forward $65 $-1 #
coedge $-1 $168 $67 $169 $170 forward $41 $-1 #
coedge $-1 $67 $168 $171 $172 forward $41 $-1 #
coedge $-1 $173 $174 $67 $107 reversed $175 $-1 #
edge $-1 $176 -41.242678678545353 $177 41.242678678545353 $106 $178 forward 7 unknown #
face $-1 $179 $180 $25 $-1 $181 reversed single #
loop $-1 $-1 $182 $68 #
plane-surface $-1 -36.606829350177094 0 5.8598634563461687 -1 0 0 0 0 1 forward_v I I I I #
coedge $-1 $183 $184 $185 $186 forward $69 $-1 #
coedge $-1 $187 $71 $188 $189 reversed $44 $-1 #
coedge $-1 $71 $187 $190 $191 reversed $44 $-1 #
coedge $-1 $182 $192 $71 $115 reversed $109 $-1 #
edge $-1 $193 -41.242678678545353 $194 41.242678678545353 $114 $195 forward 7 unknown #
face $-1 $196 $197 $26 $-1 $198 reversed single #
loop $-1 $-1 $122 $72 #
plane-surface $-1 0 0 19.020694956951861 0 0 1 1 0 0 forward_v I I I I #
coedge $-1 $199 $200 $201 $202 reversed $73 $-1 #
coedge $-1 $121 $75 $203 $204 reversed $47 $-1 #
coedge $-1 $75 $120 $199 $205 reversed $47 $-1 #
coedge $-1 $201 $206 $75 $123 forward $117 $-1 #
edge $-1 $207 -21.570384498151686 $208 -11.4839756244337 $122 $209 forward 7 unknown #
loop $-1 $-1 $129 $76 #
plane-surface $-1 46.652912062773751 -27.140781351761383 58.342553212433131 0 0.55919291073839883 0.82903756765294845 1 0 0 forward_v I I I I #
loop $-1 $-1 $210 $49 #
coedge $-1 $127 $127 $128 $211 reversed $77 $-1 #
coedge $-1 $128 $128 $127 $211 forward $79 $-1 #
coedge $-1 $129 $129 $80 $130 forward $124 $-1 #
edge $-1 $212 4.7744224628824695e-016 $212 6.2831853071796013 $129 $213 forward 7 unknown #
loop $-1 $-1 $136 $81 #
plane-surface $-1 46.652912062773751 -27.140781351761383 58.342553212433131 0 0.55919291073839883 0.82903756765294845 1 0 0 forward_v I I I I #
loop $-1 $-1 $214 $52 #
coedge $-1 $134 $134 $135 $215 reversed $82 $-1 #
coedge $-1 $135 $135 $134 $215 forward $84 $-1 #
coedge $-1 $136 $136 $85 $137 forward $131 $-1 #
edge $-1 $216 4.7744224628824695e-016 $216 6.2831853071796013 $136 $217 forward 7 unknown #
face $-1 $218 $219 $29 $-1 $220 reversed single #
loop $-1 $-1 $221 $86 #
plane-surface $-1 31.28055476819312 -109.43818185529872 108.97205658217749 1 0 0 0 0.57357644374324357 -0.81915203911291934 forward_v I I I I #
coedge $-1 $222 $223 $224 $225 reversed $87 $-1 #
coedge $-1 $143 $89 $226 $227 reversed $56 $-1 #
coedge $-1 $89 $142 $222 $228 reversed $56 $-1 #
coedge $-1 $224 $229 $89 $145 forward $230 $-1 #
edge $-1 $231 13.476412249104008 $232 24.104558742524681 $144 $233 forward 7 unknown #
loop $-1 $-1 $151 $90 #
plane-surface $-1 39.087121984277658 -41.242678678545346 11.578786522126961 0 -0.57357644374324357 0.81915203911291934 1 0 0 forward_v I I I I #
loop $-1 $-1 $234 $58 #
coedge $-1 $149 $149 $150 $235 reversed $91 $-1 #
coedge $-1 $150 $150 $149 $235 forward $93 $-1 #
coedge $-1 $151 $151 $94 $152 forward $146 $-1 #
edge $-1 $236 2.9102126543737911e-015 $236 6.2831853071796031 $151 $237 forward 7 unknown #
loop $-1 $-1 $158 $95 #
plane-surface $-1 39.087121984277658 -41.242678678545346 11.578786522126961 0 -0.57357644374324357 0.81915203911291934 1 0 0 forward_v I I I I #
loop $-1 $-1 $238 $61 #
coedge $-1 $156 $156 $157 $239 reversed $96 $-1 #
coedge $-1 $157 $157 $156 $239 forward $98 $-1 #
coedge $-1 $158 $158 $99 $159 forward $153 $-1 #
edge $-1 $240 2.9102126543737911e-015 $240 6.2831853071796031 $158 $241 forward 7 unknown #
face $-1 $242 $243 $24 $-1 $244 reversed single #
loop $-1 $-1 $245 $100 #
plane-surface $-1 -59.447614978484452 0 0 1 0 0 0 0 -1 forward_v I I I I #
coedge $-1 $246 $171 $247 $248 forward $101 $-1 #
coedge $-1 $249 $103 $246 $250 forward $65 $-1 #
coedge $-1 $103 $249 $251 $252 forward $65 $-1 #
coedge $-1 $174 $173 $103 $167 reversed $175 $-1 #
edge $-1 $253 -41.242678678545353 $254 41.242678678545353 $166 $255 forward 7 unknown #
coedge $-1 $105 $104 $256 $257 forward $41 $-1 #
coedge $-1 $258 $259 $104 $170 reversed $243 $-1 #
edge $-1 $177 -59.447614978484452 $260 59.447614978484452 $169 $261 forward 7 unknown #
coedge $-1 $163 $262 $105 $172 reversed $101 $-1 #
edge $-1 $263 -59.447614978484452 $176 59.447614978484452 $171 $264 forward 7 unknown #
coedge $-1 $166 $106 $262 $265 forward $175 $-1 #
coedge $-1 $106 $166 $258 $266 reversed $175 $-1 #
loop $-1 $-1 $173 $242 #
vertex $-1 $107 $267 #
vertex $-1 $107 $268 #
straight-curve $-1 59.447614978484452 0 19.020694956951861 0 1 0 I I #
face $-1 $269 $270 $25 $-1 $271 reversed single #
loop $-1 $-1 $272 $108 #
plane-surface $-1 0 -41.242678678545353 0 0 1 0 0 0 1 forward_v I I I I #
coedge $-1 $185 $114 $273 $274 reversed $109 $-1 #
coedge $-1 $275 $111 $272 $276 reversed $69 $-1 #
coedge $-1 $111 $275 $277 $278 reversed $69 $-1 #
coedge $-1 $192 $182 $111 $186 reversed $109 $-1 #
edge $-1 $279 -41.242678678545353 $280 41.242678678545353 $185 $281 forward 7 unknown #
coedge $-1 $113 $112 $282 $283 reversed $44 $-1 #
coedge $-1 $284 $285 $112 $189 forward $286 $-1 #
edge $-1 $287 -35.434003896319069 $194 -12.593218268011707 $188 $288 forward 7 unknown #
coedge $-1 $289 $273 $113 $191 forward $180 $-1 #
edge $-1 $193 12.593218268011707 $290 35.434003896319069 $190 $291 forward 7 unknown #
coedge $-1 $114 $185 $284 $292 reversed $109 $-1 #
vertex $-1 $191 $293 #
vertex $-1 $189 $294 #
straight-curve $-1 -36.606829350177094 0 9.7889804934603397 0 1 0 I I #
face $-1 $-1 $295 $26 $-1 $296 reversed single #
loop $-1 $-1 $297 $116 #
plane-surface $-1 59.447614978484452 0 0 -1 0 0 0 0 1 forward_v I I I I #
coedge $-1 $298 $119 $121 $205 forward $73 $-1 #
coedge $-1 $119 $298 $297 $299 reversed $73 $-1 #
coedge $-1 $300 $122 $119 $202 forward $117 $-1 #
edge $-1 $208 10.531753115676175 $301 36.121158947097577 $201 $302 forward 7 unknown #
coedge $-1 $303 $304 $120 $204 forward $295 $-1 #
edge $-1 $305 -66.238256592123747 $207 -59.434887773796447 $203 $306 forward 7 unknown #
edge $-1 $208 70.318949865723155 $305 82.485357357090734 $121 $307 forward 7 unknown #
coedge $-1 $122 $300 $303 $308 forward $117 $-1 #
vertex $-1 $204 $309 #
vertex $-1 $123 $310 #
straight-curve $-1 33.85820914706305 19.672294180393667 19.020694956951857 0 -1 0 I I #
coedge $-1 $210 $210 $-1 $311 reversed $126 $-1 #
edge $-1 $312 0 $312 6.2831853071796004 $127 $313 forward 7 unknown #
vertex $-1 $130 $314 #
ellipse-curve $-1 41.169467956040592 36.199474241686374 15.6190105477882 0 0.55919291073839883 0.82903756765294845 1.5 0 0 1 I I #
coedge $-1 $214 $214 $-1 $315 reversed $133 $-1 #
edge $-1 $316 0 $316 6.2831853071796004 $134 $317 forward 7 unknown #
vertex $-1 $137 $318 #
ellipse-curve $-1 52.136356169506911 36.199474241686374 15.6190105477882 0 0.55919291073839883 0.82903756765294845 1.5 0 0 1 I I #
face $-1 $-1 $230 $29 $-1 $319 forward single #
loop $-1 $-1 $320 $138 #
plane-surface $-1 0 -41.242678678545353 0 0 1 0 0 0 1 forward_v I I I I #
coedge $-1 $321 $322 $323 $324 reversed $139 $-1 #
coedge $-1 $325 $141 $143 $228 forward $87 $-1 #
coedge $-1 $141 $325 $321 $326 forward $87 $-1 #
coedge $-1 $323 $144 $141 $225 forward $230 $-1 #
edge $-1 $232 -27.350128208223367 $327 -11.736993776054291 $224 $328 forward 7 unknown #
coedge $-1 $329 $330 $142 $227 forward $219 $-1 #
edge $-1 $331 -42.907241768961789 $231 -35.465333334136886 $226 $332 forward 7 unknown #
edge $-1 $232 -12.974571246786077 $331 8.8770546250341341e-015 $143 $333 forward 7 unknown #
coedge $-1 $144 $323 $329 $334 forward $230 $-1 #
loop $-1 $-1 $323 $218 #
vertex $-1 $227 $335 #
vertex $-1 $145 $336 #
straight-curve $-1 46.893689200362196 -54.719090927649361 19.020694956951864 0 1 0 I I #
coedge $-1 $234 $234 $-1 $337 reversed $148 $-1 #
edge $-1 $338 0 $338 6.2831853071796004 $149 $339 forward 7 unknown #
vertex $-1 $152 $340 #
ellipse-curve $-1 35.741450320241441 -35.928605431835017 15.299740739539409 0 -0.57357644374324357 0.81915203911291934 2 0 0 1 I I #
coedge $-1 $238 $238 $-1 $341 reversed $155 $-1 #
edge $-1 $342 0 $342 6.2831853071796004 $156 $343 forward 7 unknown #
vertex $-1 $159 $344 #
ellipse-curve $-1 42.432793648313904 -35.928605431835017 15.299740739539409 0 -0.57357644374324357 0.81915203911291934 2 0 0 1 I I #
face $-1 $-1 $175 $24 $-1 $345 reversed single #
loop $-1 $-1 $258 $160 #
plane-surface $-1 0 41.242678678545353 0 0 -1 0 0 0 -1 forward_v I I I I #
coedge $-1 $346 $256 $259 $347 forward $161 $-1 #
coedge $-1 $262 $163 $164 $250 reversed $101 $-1 #
coedge $-1 $256 $346 $163 $248 reversed $161 $-1 #
edge $-1 $263 -19.020694956951861 $348 19.020694956951861 $247 $349 forward 7 unknown #
coedge $-1 $165 $164 $346 $350 forward $65 $-1 #
edge $-1 $254 -59.447614978484452 $348 59.447614978484452 $246 $351 forward 7 unknown #
coedge $-1 $259 $258 $165 $252 reversed $243 $-1 #
edge $-1 $352 -59.447614978484452 $253 59.447614978484452 $251 $353 forward 7 unknown #
vertex $-1 $167 $354 #
vertex $-1 $265 $355 #
straight-curve $-1 59.447614978484452 0 -19.020694956951861 0 -1 0 I I #
coedge $-1 $245 $247 $168 $257 reversed $161 $-1 #
edge $-1 $260 -41.242678678545353 $263 41.242678678545353 $256 $356 forward 7 unknown #
coedge $-1 $251 $169 $174 $266 forward $243 $-1 #
coedge $-1 $169 $251 $245 $347 reversed $243 $-1 #
vertex $-1 $170 $357 #
straight-curve $-1 0 41.242678678545353 19.020694956951861 -1 0 0 I I #
coedge $-1 $171 $246 $173 $265 reversed $101 $-1 #
vertex $-1 $257 $358 #
straight-curve $-1 0 -41.242678678545353 19.020694956951861 1 0 0 I I #
edge $-1 $176 -19.020694956951861 $254 19.020694956951861 $173 $359 forward 7 unknown #
edge $-1 $177 -19.020694956951861 $253 19.020694956951861 $174 $360 forward 7 unknown #
point $-1 59.447614978484452 -41.242678678545353 19.020694956951861 #
point $-1 59.447614978484452 41.242678678545353 19.020694956951861 #
face $-1 $-1 $286 $25 $-1 $361 reversed single #
loop $-1 $-1 $362 $179 #
plane-surface $-1 -59.447614978484452 0 0 1 0 0 0 0 -1 forward_v I I I I #
coedge $-1 $273 $289 $183 $276 forward $180 $-1 #
coedge $-1 $190 $272 $182 $274 forward $180 $-1 #
edge $-1 $280 -0.9991853089410867 $193 6.8590487652872554 $273 $363 forward 7 unknown #
coedge $-1 $184 $183 $362 $364 reversed $69 $-1 #
edge $-1 $365 -35.434003896319069 $280 -12.593218268011707 $272 $366 forward 7 unknown #
coedge $-1 $285 $284 $184 $278 forward $286 $-1 #
edge $-1 $279 12.593218268011707 $367 35.434003896319069 $277 $368 forward 7 unknown #
vertex $-1 $278 $369 #
vertex $-1 $276 $370 #
straight-curve $-1 -36.606829350177094 0 1.9307464192319976 0 -1 0 I I #
coedge $-1 $371 $372 $187 $283 forward $270 $-1 #
edge $-1 $290 -41.242678678545353 $287 41.242678678545353 $282 $373 forward 7 unknown #
coedge $-1 $277 $188 $192 $292 forward $286 $-1 #
coedge $-1 $188 $277 $371 $374 reversed $286 $-1 #
loop $-1 $-1 $277 $269 #
vertex $-1 $374 $375 #
straight-curve $-1 -24.013611082165387 41.242678678545353 9.7889804934603397 1 0 0 I I #
coedge $-1 $272 $190 $372 $376 forward $180 $-1 #
vertex $-1 $376 $377 #
straight-curve $-1 -24.013611082165387 -41.242678678545353 9.7889804934603397 -1 0 0 I I #
edge $-1 $194 -6.8590487652872554 $279 0.9991853089410867 $284 $378 forward 7 unknown #
point $-1 -36.606829350177094 -41.242678678545353 9.7889804934603397 #
point $-1 -36.606829350177094 41.242678678545353 9.7889804934603397 #
loop $-1 $-1 $203 $196 #
plane-surface $-1 0 41.242678678545353 0 0 -1 0 0 0 -1 forward_v I I I I #
coedge $-1 $379 $380 $200 $299 forward $197 $-1 #
coedge $-1 $200 $199 $304 $381 reversed $73 $-1 #
edge $-1 $301 42.756215112305568 $382 54.922622603673148 $297 $383 forward 7 unknown #
coedge $-1 $206 $201 $380 $384 forward $117 $-1 #
vertex $-1 $384 $385 #
straight-curve $-1 23.326456031386876 31.156269804827375 19.020694956951861 1 0 0 I I #
coedge $-1 $386 $203 $206 $308 reversed $295 $-1 #
coedge $-1 $203 $386 $298 $381 forward $295 $-1 #
vertex $-1 $204 $387 #
straight-curve $-1 33.85820914706305 41.242678678545353 78.455582730748304 0 0 1 I I #
straight-curve $-1 33.85820914706305 -27.140781351761383 58.342553212433131 0 0.82903756765294845 -0.55919291073839883 I I #
edge $-1 $388 -59.447614978484452 $207 -33.85820914706305 $303 $389 forward 7 unknown #
point $-1 33.85820914706305 41.242678678545353 19.020694956951861 #
point $-1 33.85820914706305 31.156269804827367 19.020694956951857 #
edge $-1 $390 1 $390 0 $210 $-1 forward 7 unknown #
vertex $-1 $211 $391 #
ellipse-curve $-1 41.169467956040592 32.847004630383893 10.64877004793169 0 0.55919291073839883 0.82903756765294845 1.5 0 0 1 I I #
point $-1 42.669467956040592 36.199474241686403 15.619010547788241 #
edge $-1 $392 1 $392 0 $214 $-1 forward 7 unknown #
vertex $-1 $215 $393 #
ellipse-curve $-1 52.136356169506911 32.847004630383893 10.64877004793169 0 0.55919291073839883 0.82903756765294845 1.5 0 0 1 I I #
point $-1 53.636356169506911 36.199474241686403 15.619010547788241 #
plane-surface $-1 0 0 19.020694956951861 0 0 1 1 0 0 forward_v I I I I #
coedge $-1 $330 $329 $322 $394 forward $219 $-1 #
coedge $-1 $322 $221 $223 $326 reversed $139 $-1 #
coedge $-1 $221 $321 $320 $394 reversed $139 $-1 #
coedge $-1 $229 $224 $221 $324 forward $230 $-1 #
edge $-1 $327 -24.104558742524681 $395 -13.476412249104008 $323 $396 forward 7 unknown #
coedge $-1 $223 $222 $330 $397 reversed $87 $-1 #
edge $-1 $398 -8.8770546250341341e-015 $327 12.974571246786077 $321 $399 forward 7 unknown #
vertex $-1 $225 $400 #
straight-curve $-1 19.543560992138829 -30.614532185124681 19.020694956951861 -1 0 0 I I #
coedge $-1 $320 $226 $229 $334 reversed $219 $-1 #
coedge $-1 $226 $320 $325 $397 forward $219 $-1 #
vertex $-1 $227 $401 #
straight-curve $-1 46.893689200362196 -41.242678678545353 54.486028291088743 0 0 1 I I #
straight-curve $-1 46.893689200362196 -41.242678678545346 11.578786522126961 0 -0.81915203911291934 -0.57357644374324357 I I #
edge $-1 $395 31.28055476819312 $231 46.893689200362196 $329 $402 forward 7 unknown #
point $-1 46.893689200362196 -41.242678678545353 19.020694956951861 #
point $-1 46.893689200362196 -30.614532185124681 19.020694956951861 #
edge $-1 $403 1 $403 0 $234 $-1 forward 7 unknown #
vertex $-1 $235 $404 #
ellipse-curve $-1 35.741450320241441 -34.093727964076159 12.679264191674347 0 -0.57357644374324357 0.81915203911291934 2 0 0 1 I I #
point $-1 37.741450320241441 -35.92860543183501 15.299740739539409 #
edge $-1 $405 1 $405 0 $238 $-1 forward 7 unknown #
vertex $-1 $239 $406 #
ellipse-curve $-1 42.432793648313904 -34.093727964076159 12.679264191674347 0 -0.57357644374324357 0.81915203911291934 2 0 0 1 I I #
point $-1 44.432793648313904 -35.92860543183501 15.299740739539409 #
plane-surface $-1 59.447614978484452 0 0 -1 0 0 0 0 1 forward_v I I I I #
coedge $-1 $247 $245 $249 $350 reversed $161 $-1 #
edge $-1 $260 -19.020694956951861 $352 19.020694956951861 $259 $407 forward 7 unknown #
vertex $-1 $350 $408 #
straight-curve $-1 -59.447614978484452 -41.242678678545353 0 0 0 -1 I I #
edge $-1 $348 -41.242678678545353 $352 41.242678678545353 $346 $409 forward 7 unknown #
straight-curve $-1 0 -41.242678678545353 -19.020694956951861 -1 0 0 I I #
vertex $-1 $252 $410 #
straight-curve $-1 0 41.242678678545353 -19.020694956951861 1 0 0 I I #
point $-1 59.447614978484452 41.242678678545353 -19.020694956951861 #
point $-1 59.447614978484452 -41.242678678545353 -19.020694956951861 #
straight-curve $-1 -59.447614978484452 0 19.020694956951861 0 -1 0 I I #
point $-1 -59.447614978484452 41.242678678545353 19.020694956951861 #
point $-1 -59.447614978484452 -41.242678678545353 19.020694956951861 #
straight-curve $-1 59.447614978484452 -41.242678678545353 0 0 0 -1 I I #
straight-curve $-1 59.447614978484452 41.242678678545353 0 0 0 -1 I I #
plane-surface $-1 0 41.242678678545353 0 0 -1 0 0 0 -1 forward_v I I I I #
coedge $-1 $372 $371 $275 $364 forward $270 $-1 #
straight-curve $-1 -36.606829350177094 -41.242678678545353 2.9299317281730843 0 0 1 I I #
edge $-1 $367 -41.242678678545353 $365 41.242678678545353 $362 $411 forward 7 unknown #
vertex $-1 $276 $412 #
straight-curve $-1 -24.013611082165387 -41.242678678545353 1.9307464192319976 1 0 0 I I #
vertex $-1 $278 $413 #
straight-curve $-1 -24.013611082165387 41.242678678545353 1.9307464192319976 -1 0 0 I I #
point $-1 -36.606829350177094 41.242678678545353 1.9307464192319976 #
point $-1 -36.606829350177094 -41.242678678545353 1.9307464192319976 #
coedge $-1 $362 $282 $285 $374 forward $270 $-1 #
coedge $-1 $282 $362 $289 $376 reversed $270 $-1 #
straight-curve $-1 -59.447614978484452 0 9.7889804934603397 0 1 0 I I #
edge $-1 $287 -9.7889804934603397 $367 -1.9307464192319976 $285 $414 forward 7 unknown #
point $-1 -59.447614978484452 41.242678678545353 9.7889804934603397 #
edge $-1 $290 -9.7889804934603397 $365 -1.9307464192319976 $372 $415 forward 7 unknown #
point $-1 -59.447614978484452 -41.242678678545353 9.7889804934603397 #
straight-curve $-1 -36.606829350177094 41.242678678545353 2.9299317281730843 0 0 -1 I I #
coedge $-1 $380 $297 $386 $416 reversed $197 $-1 #
coedge $-1 $297 $379 $300 $384 reversed $197 $-1 #
edge $-1 $382 -36.121158947097577 $305 -10.531753115676175 $304 $417 forward 7 unknown #
vertex $-1 $299 $418 #
straight-curve $-1 59.447614978484452 -4.2902387739246812 42.929667337759128 0 0.82903756765294845 -0.55919291073839883 I I #
edge $-1 $301 31.156269804827367 $388 41.242678678545353 $380 $419 forward 7 unknown #
point $-1 59.447614978484452 31.156269804827367 19.020694956951857 #
coedge $-1 $304 $303 $379 $416 forward $295 $-1 #
point $-1 33.85820914706305 41.242678678545353 12.217326138624564 #
vertex $-1 $384 $420 #
straight-curve $-1 0 41.242678678545353 19.020694956951861 -1 0 0 I I #
vertex $-1 $311 $421 #
point $-1 42.669467956040592 32.847004630383893 10.64877004793169 #
vertex $-1 $315 $422 #
point $-1 53.636356169506911 32.847004630383893 10.64877004793169 #
edge $-1 $395 35.465333334136886 $398 42.907241768961789 $320 $423 forward 7 unknown #
vertex $-1 $334 $424 #
straight-curve $-1 31.28055476819312 -54.719090927649361 19.020694956951864 0 -1 0 I I #
edge $-1 $398 11.736993776054291 $331 27.350128208223367 $330 $425 forward 7 unknown #
vertex $-1 $397 $426 #
straight-curve $-1 31.28055476819312 -41.242678678545346 11.578786522126961 0 0.81915203911291934 0.57357644374324357 I I #
point $-1 31.28055476819312 -30.614532185124681 19.020694956951861 #
point $-1 46.893689200362196 -41.242678678545353 11.578786522126956 #
straight-curve $-1 0 -41.242678678545353 19.020694956951861 1 0 0 I I #
vertex $-1 $337 $427 #
point $-1 37.741450320241441 -34.093727964076159 12.679264191674347 #
vertex $-1 $341 $428 #
point $-1 44.432793648313904 -34.093727964076159 12.679264191674347 #
straight-curve $-1 -59.447614978484452 41.242678678545353 0 0 0 -1 I I #
point $-1 -59.447614978484452 -41.242678678545353 -19.020694956951861 #
straight-curve $-1 -59.447614978484452 0 -19.020694956951861 0 1 0 I I #
point $-1 -59.447614978484452 41.242678678545353 -19.020694956951861 #
straight-curve $-1 -59.447614978484452 0 1.9307464192319976 0 -1 0 I I #
point $-1 -59.447614978484452 -41.242678678545353 1.9307464192319976 #
point $-1 -59.447614978484452 41.242678678545353 1.9307464192319976 #
straight-curve $-1 -59.447614978484452 41.242678678545353 0 0 0 -1 I I #
straight-curve $-1 -59.447614978484452 -41.242678678545353 0 0 0 -1 I I #
edge $-1 $388 -19.020694956951861 $382 -12.217326138624564 $379 $429 forward 7 unknown #
straight-curve $-1 23.326456031386876 41.242678678545353 12.217326138624564 -1 0 0 I I #
point $-1 59.447614978484452 41.242678678545353 12.217326138624564 #
straight-curve $-1 59.447614978484452 0 19.020694956951861 0 1 0 I I #
point $-1 59.447614978484452 41.242678678545353 19.020694956951861 #
point $-1 41.169467956040592 32.008215264276288 9.4052136964522663 #
point $-1 52.136356169506911 32.008215264276288 9.4052136964522663 #
straight-curve $-1 31.28055476819312 -41.242678678545353 54.486028291088743 0 0 -1 I I #
point $-1 31.28055476819312 -41.242678678545353 19.020694956951861 #
straight-curve $-1 19.543560992138829 -41.242678678545353 11.578786522126954 1 0 0 I I #
point $-1 31.28055476819312 -41.242678678545353 11.578786522126956 #
point $-1 35.741450320241441 -32.946575076589674 11.040960113448508 #
point $-1 42.432793648313904 -32.946575076589674 11.040960113448508 #
straight-curve $-1 59.447614978484452 41.242678678545353 0 0 0 -1 I I #
End-of-ACIS-data 