500 0 9 0           
7 Unknown 11 ACIS 5.0 NT 24 Thu Mar 25 22:06:15 1999 
-1 9.9999999999999995e-007 1e-010 
body $-1 $9 $-1 $10 #
body $-1 $11 $-1 $12 #
body $-1 $13 $-1 $14 #
body $-1 $15 $-1 $16 #
body $-1 $17 $-1 $18 #
body $-1 $19 $-1 $20 #
body $-1 $21 $-1 $22 #
body $-1 $23 $-1 $24 #
body $-1 $25 $-1 $26 #
lump $-1 $-1 $27 $0 #
transform $-1 1 0 0 0 1 0 0 0 1 79.715567491683714 44.674485063532963 18.03558330681599 1 rotate no_reflect no_shear #
lump $-1 $-1 $28 $1 #
transform $-1 1 0 0 0 1 0 0 0 1 79.715567491683714 44.674485063532963 18.03558330681599 1 rotate no_reflect no_shear #
lump $-1 $-1 $29 $2 #
transform $-1 1 0 0 0 1 0 0 0 1 79.715567491683714 44.674485063532963 18.03558330681599 1 rotate no_reflect no_shear #
lump $-1 $-1 $30 $3 #
transform $-1 1 0 0 0 1 0 0 0 1 79.715567491683714 44.674485063532963 18.03558330681599 1 rotate no_reflect no_shear #
lump $-1 $-1 $31 $4 #
transform $-1 1 0 0 0 1 0 0 0 1 79.715567491683714 44.674485063532963 18.03558330681599 1 rotate no_reflect no_shear #
lump $-1 $-1 $32 $5 #
transform $-1 1 0 0 0 1 0 0 0 1 79.715567491683714 44.674485063532963 18.03558330681599 1 rotate no_reflect no_shear #
lump $-1 $-1 $33 $6 #
transform $-1 1 0 0 0 1 0 0 0 1 79.715567491683714 44.674485063532963 18.03558330681599 1 rotate no_reflect no_shear #
lump $-1 $-1 $34 $7 #
transform $-1 1 0 0 0 1 0 0 0 1 79.715567491683714 44.674485063532963 18.03558330681599 1 rotate no_reflect no_shear #
lump $-1 $-1 $35 $8 #
transform $-1 1 0 0 0 1 0 0 0 1 79.715567491683714 44.674485063532963 18.03558330681599 1 rotate no_reflect no_shear #
shell $-1 $-1 $-1 $36 $-1 $9 #
shell $-1 $-1 $-1 $37 $-1 $11 #
shell $-1 $-1 $-1 $38 $-1 $13 #
shell $-1 $-1 $-1 $39 $-1 $15 #
shell $-1 $-1 $-1 $40 $-1 $17 #
shell $-1 $-1 $-1 $41 $-1 $19 #
shell $-1 $-1 $-1 $42 $-1 $21 #
shell $-1 $-1 $-1 $43 $-1 $23 #
shell $-1 $-1 $-1 $44 $-1 $25 #
face $-1 $45 $46 $27 $-1 $47 forward single #
face $-1 $48 $49 $28 $-1 $50 reversed single #
face $-1 $51 $52 $29 $-1 $53 forward single #
face $-1 $54 $55 $30 $-1 $56 forward single #
face $-1 $57 $58 $31 $-1 $59 reversed single #
face $-1 $60 $61 $32 $-1 $62 forward single #
face $-1 $63 $64 $33 $-1 $65 forward single #
face $-1 $66 $67 $34 $-1 $68 reversed single #
face $-1 $69 $70 $35 $-1 $71 forward single #
face $-1 $72 $73 $27 $-1 $74 reversed single #
loop $-1 $-1 $75 $36 #
plane-surface $-1 0 0 18.03558330681599 0 0 1 1 0 0 forward_v I I I I #
face $-1 $76 $77 $28 $-1 $78 reversed single #
loop $-1 $-1 $79 $37 #
plane-surface $-1 25.169518461293109 -10.45045979341729 220.94360341568037 0 -1 0 -0.51503808176128008 0 -0.85716729658548041 forward_v I I I I #
face $-1 $80 $81 $29 $-1 $82 forward single #
loop $-1 $83 $84 $38 #
cone-surface $-1 65.467954080266935 -22.824374199151194 8.3620467285049926 -0.51503808176128008 0 -0.85716729658548041 1.2857509448782207 0 -0.77255712264192011 1 I I 0 1 1.5 forward I I I I #
face $-1 $85 $86 $30 $-1 $87 forward single #
loop $-1 $88 $89 $39 #
cone-surface $-1 65.467954080266935 -15.400025555710847 8.3620467285049926 -0.51503808176128008 0 -0.85716729658548041 1.2857509448782207 0 -0.77255712264192011 1 I I 0 1 1.5 forward I I I I #
face $-1 $90 $91 $31 $-1 $92 reversed single #
loop $-1 $-1 $93 $40 #
plane-surface $-1 25.169518461293109 27.773939961444754 220.94360341568037 0 -1 0 -0.51503808176128008 0 -0.85716729658548041 forward_v I I I I #
face $-1 $94 $95 $32 $-1 $96 forward single #
loop $-1 $97 $98 $41 #
cone-surface $-1 65.467954080266935 15.400025555710847 8.3620467285049926 -0.51503808176128008 0 -0.85716729658548041 1.2857509448782207 0 -0.77255712264192011 1 I I 0 1 1.5 forward I I I I #
face $-1 $99 $100 $33 $-1 $101 forward single #
loop $-1 $102 $103 $42 #
cone-surface $-1 65.467954080266935 22.824374199151201 8.3620467285049926 -0.51503808176128008 0 -0.85716729658548041 1.2857509448782207 0 -0.77255712264192011 1 I I 0 1 1.5 forward I I I I #
face $-1 $104 $105 $34 $-1 $106 reversed single #
loop $-1 $-1 $107 $43 #
plane-surface $-1 -201.84690382699256 23.421008155015556 103.05026517188702 0 1 0 -0.7660444514056185 0 0.64278759981090561 forward_v I I I I #
face $-1 $108 $109 $35 $-1 $110 forward single #
loop $-1 $111 $112 $44 #
cone-surface $-1 -68.446039069237344 34.047746609274249 5.9951763881904165 0.7660444514056185 0 -0.64278759981090561 2.5711503992436224 0 3.064177805622474 1 I I 0 1 4 forward I I I I #
face $-1 $113 $114 $27 $-1 $115 reversed single #
loop $-1 $-1 $116 $45 #
plane-surface $-1 0 0 -18.03558330681599 0 0 1 1 0 0 forward_v I I I I #
coedge $-1 $117 $118 $119 $120 forward $46 $-1 #
face $-1 $121 $122 $28 $-1 $123 reversed single #
loop $-1 $-1 $124 $48 #
plane-surface $-1 -56.943587473564165 -19.112199877431024 84.284448450432507 0.51503808176128008 0 0.85716729658548041 0.85716729658548041 0 -0.51503808176128008 forward_v I I I I #
coedge $-1 $125 $126 $127 $128 reversed $49 $-1 #
face $-1 $-1 $129 $29 $-1 $130 forward single #
loop $-1 $131 $132 $51 #
cone-surface $-1 64.03532709448578 -22.824374199151194 5.9777550733752811 -0.51503808176128008 0 -0.85716729658548041 0.64287547243911036 0 -0.38627856132096006 1 I I -0.70710678118654713 0.70710678118654802 0.75 forward I I I I #
loop $-1 $-1 $133 $38 #
coedge $-1 $84 $84 $134 $135 reversed $52 $-1 #
face $-1 $-1 $136 $30 $-1 $137 forward single #
loop $-1 $138 $139 $54 #
cone-surface $-1 64.03532709448578 -15.400025555710847 5.9777550733752811 -0.51503808176128008 0 -0.85716729658548041 0.64287547243911036 0 -0.38627856132096006 1 I I -0.70710678118654713 0.70710678118654802 0.75 forward I I I I #
loop $-1 $-1 $140 $39 #
coedge $-1 $89 $89 $141 $142 reversed $55 $-1 #
face $-1 $143 $144 $31 $-1 $145 reversed single #
loop $-1 $-1 $146 $57 #
plane-surface $-1 -56.943587473564165 19.112199877431017 84.284448450432507 0.51503808176128008 0 0.85716729658548041 0.85716729658548041 0 -0.51503808176128008 forward_v I I I I #
coedge $-1 $147 $148 $149 $150 reversed $58 $-1 #
face $-1 $-1 $151 $32 $-1 $152 forward single #
loop $-1 $153 $154 $60 #
cone-surface $-1 64.03532709448578 15.400025555710847 5.9777550733752811 -0.51503808176128008 0 -0.85716729658548041 0.64287547243911036 0 -0.38627856132096006 1 I I -0.70710678118654713 0.70710678118654802 0.75 forward I I I I #
loop $-1 $-1 $155 $41 #
coedge $-1 $98 $98 $156 $157 reversed $61 $-1 #
face $-1 $-1 $158 $33 $-1 $159 forward single #
loop $-1 $160 $161 $63 #
cone-surface $-1 64.03532709448578 22.824374199151201 5.9777550733752811 -0.51503808176128008 0 -0.85716729658548041 0.64287547243911036 0 -0.38627856132096006 1 I I -0.70710678118654713 0.70710678118654802 0.75 forward I I I I #
loop $-1 $-1 $162 $42 #
coedge $-1 $103 $103 $163 $164 reversed $64 $-1 #
face $-1 $165 $166 $34 $-1 $167 forward single #
loop $-1 $-1 $168 $66 #
plane-surface $-1 -79.715567491683743 34.047746609274263 0.56990858079976192 -0.7660444514056185 0 0.64278759981090561 0.64278759981090561 0 0.7660444514056185 forward_v I I I I #
coedge $-1 $169 $170 $171 $172 reversed $67 $-1 #
face $-1 $-1 $173 $35 $-1 $174 forward single #
loop $-1 $175 $176 $69 #
cone-surface $-1 -62.972142162562513 34.047746609274249 1.4020316329511502 0.7660444514056185 0 -0.64278759981090561 1.2855751996218112 0 1.532088902811237 1 I I -0.70710678118654746 0.70710678118654746 2 forward I I I I #
loop $-1 $-1 $177 $44 #
coedge $-1 $112 $112 $178 $179 reversed $70 $-1 #
face $-1 $180 $181 $27 $-1 $182 reversed single #
loop $-1 $-1 $183 $72 #
plane-surface $-1 0 -44.674485063532963 0 0 1 0 0 0 1 forward_v I I I I #
coedge $-1 $184 $185 $186 $187 forward $73 $-1 #
coedge $-1 $188 $75 $189 $190 forward $46 $-1 #
coedge $-1 $75 $188 $191 $192 forward $46 $-1 #
coedge $-1 $193 $194 $75 $120 reversed $195 $-1 #
edge $-1 $196 -44.674485063532963 $197 44.674485063532963 $119 $198 forward 7 unknown #
face $-1 $199 $200 $28 $-1 $201 forward single #
loop $-1 $-1 $202 $76 #
plane-surface $-1 25.169518461293109 -27.773939961444761 220.94360341568037 0 1 0 0.51503808176128008 0 0.85716729658548041 forward_v I I I I #
coedge $-1 $203 $204 $205 $206 reversed $77 $-1 #
coedge $-1 $126 $79 $207 $208 reversed $49 $-1 #
coedge $-1 $79 $125 $203 $209 reversed $49 $-1 #
coedge $-1 $205 $210 $79 $128 forward $200 $-1 #
edge $-1 $211 -67.13080826103716 $212 -40.72827828712397 $127 $213 forward 7 unknown #
loop $-1 $-1 $134 $80 #
plane-surface $-1 -56.943587473564165 -19.112199877431024 84.284448450432507 0.51503808176128008 0 0.85716729658548041 0.85716729658548041 0 -0.51503808176128008 forward_v I I I I #
loop $-1 $-1 $214 $51 #
coedge $-1 $132 $132 $133 $215 reversed $81 $-1 #
coedge $-1 $133 $133 $132 $215 forward $83 $-1 #
coedge $-1 $134 $134 $84 $135 forward $129 $-1 #
edge $-1 $216 0 $216 6.2831853071796004 $134 $217 forward 7 unknown #
loop $-1 $-1 $141 $85 #
plane-surface $-1 -56.943587473564165 -19.112199877431024 84.284448450432507 0.51503808176128008 0 0.85716729658548041 0.85716729658548041 0 -0.51503808176128008 forward_v I I I I #
loop $-1 $-1 $218 $54 #
coedge $-1 $139 $139 $140 $219 reversed $86 $-1 #
coedge $-1 $140 $140 $139 $219 forward $88 $-1 #
coedge $-1 $141 $141 $89 $142 forward $136 $-1 #
edge $-1 $220 0 $220 6.2831853071796004 $141 $221 forward 7 unknown #
face $-1 $222 $223 $31 $-1 $224 reversed single #
loop $-1 $-1 $225 $90 #
plane-surface $-1 25.169518461293109 10.450459793417282 220.94360341568037 0 1 0 0.51503808176128008 0 0.85716729658548041 forward_v I I I I #
coedge $-1 $226 $227 $228 $229 reversed $91 $-1 #
coedge $-1 $148 $93 $230 $231 reversed $58 $-1 #
coedge $-1 $93 $147 $226 $232 reversed $58 $-1 #
coedge $-1 $228 $233 $93 $150 forward $234 $-1 #
edge $-1 $235 -67.13080826103716 $236 -40.72827828712397 $149 $237 forward 7 unknown #
loop $-1 $-1 $156 $94 #
plane-surface $-1 -56.943587473564165 19.112199877431017 84.284448450432507 0.51503808176128008 0 0.85716729658548041 0.85716729658548041 0 -0.51503808176128008 forward_v I I I I #
loop $-1 $-1 $238 $60 #
coedge $-1 $154 $154 $155 $239 reversed $95 $-1 #
coedge $-1 $155 $155 $154 $239 forward $97 $-1 #
coedge $-1 $156 $156 $98 $157 forward $151 $-1 #
edge $-1 $240 0 $240 6.2831853071796004 $156 $241 forward 7 unknown #
loop $-1 $-1 $163 $99 #
plane-surface $-1 -56.943587473564165 19.112199877431017 84.284448450432507 0.51503808176128008 0 0.85716729658548041 0.85716729658548041 0 -0.51503808176128008 forward_v I I I I #
loop $-1 $-1 $242 $63 #
coedge $-1 $161 $161 $162 $243 reversed $100 $-1 #
coedge $-1 $162 $162 $161 $243 forward $102 $-1 #
coedge $-1 $163 $163 $103 $164 forward $158 $-1 #
edge $-1 $244 0 $244 6.2831853071796004 $163 $245 forward 7 unknown #
face $-1 $246 $247 $34 $-1 $248 reversed single #
loop $-1 $-1 $171 $104 #
plane-surface $-1 0 0 18.03558330681599 0 0 1 1 0 0 forward_v I I I I #
coedge $-1 $249 $250 $251 $252 reversed $105 $-1 #
coedge $-1 $170 $107 $253 $254 reversed $67 $-1 #
coedge $-1 $107 $169 $249 $255 reversed $67 $-1 #
coedge $-1 $251 $256 $107 $172 forward $166 $-1 #
edge $-1 $257 21.207884421812565 $258 35.863325258978065 $171 $259 forward 7 unknown #
loop $-1 $-1 $178 $108 #
plane-surface $-1 -79.715567491683743 34.047746609274263 0.56990858079976192 -0.7660444514056185 0 0.64278759981090561 0.64278759981090561 0 0.7660444514056185 forward_v I I I I #
loop $-1 $-1 $260 $69 #
coedge $-1 $176 $176 $177 $261 reversed $109 $-1 #
coedge $-1 $177 $177 $176 $261 forward $111 $-1 #
coedge $-1 $178 $178 $112 $179 forward $173 $-1 #
edge $-1 $262 0 $262 6.2831853071796004 $178 $263 forward 7 unknown #
face $-1 $264 $265 $27 $-1 $266 reversed single #
loop $-1 $-1 $267 $113 #
plane-surface $-1 -79.715567491683714 0 0 1 0 0 0 0 -1 forward_v I I I I #
coedge $-1 $268 $191 $269 $270 forward $114 $-1 #
coedge $-1 $271 $116 $268 $272 forward $73 $-1 #
coedge $-1 $116 $271 $273 $274 forward $73 $-1 #
coedge $-1 $194 $193 $116 $187 reversed $195 $-1 #
edge $-1 $275 -44.674485063532963 $276 44.674485063532963 $186 $277 forward 7 unknown #
coedge $-1 $118 $117 $278 $279 forward $46 $-1 #
coedge $-1 $280 $281 $117 $190 reversed $265 $-1 #
edge $-1 $197 -79.715567491683714 $282 79.715567491683714 $189 $283 forward 7 unknown #
coedge $-1 $183 $284 $118 $192 reversed $114 $-1 #
edge $-1 $285 -79.715567491683714 $196 79.715567491683714 $191 $286 forward 7 unknown #
coedge $-1 $186 $119 $284 $287 forward $195 $-1 #
coedge $-1 $119 $186 $280 $288 reversed $195 $-1 #
loop $-1 $-1 $193 $264 #
vertex $-1 $120 $289 #
vertex $-1 $120 $290 #
straight-curve $-1 79.715567491683714 0 18.03558330681599 0 1 0 I I #
face $-1 $-1 $291 $28 $-1 $292 reversed single #
loop $-1 $-1 $127 $121 #
plane-surface $-1 0 0 18.03558330681599 0 0 1 1 0 0 forward_v I I I I #
coedge $-1 $293 $294 $295 $296 reversed $122 $-1 #
coedge $-1 $297 $124 $126 $209 forward $77 $-1 #
coedge $-1 $124 $297 $293 $298 forward $77 $-1 #
coedge $-1 $295 $127 $124 $206 forward $200 $-1 #
edge $-1 $212 0.89435985470177748 $299 18.217840022729249 $205 $300 forward 7 unknown #
coedge $-1 $301 $302 $125 $208 forward $291 $-1 #
edge $-1 $303 -108.30045919226495 $211 -92.436218401024192 $207 $304 forward 7 unknown #
edge $-1 $212 128.62906159689146 $303 159.43113498336743 $126 $305 forward 7 unknown #
coedge $-1 $127 $295 $301 $306 forward $200 $-1 #
vertex $-1 $208 $307 #
vertex $-1 $128 $308 #
straight-curve $-1 12.584759230646554 -10.45045979341729 18.035583306815994 -1 0 0 I I #
coedge $-1 $214 $214 $-1 $309 reversed $131 $-1 #
edge $-1 $310 0 $310 6.2831853071796004 $132 $311 forward 7 unknown #
vertex $-1 $135 $312 #
ellipse-curve $-1 66.514302504727127 -22.824374199151194 10.103462911195601 0.51503808176128008 0 0.85716729658548041 1.2857509448782207 0 -0.77255712264192011 1 I I #
coedge $-1 $218 $218 $-1 $313 reversed $138 $-1 #
edge $-1 $314 0 $314 6.2831853071796004 $139 $315 forward 7 unknown #
vertex $-1 $142 $316 #
ellipse-curve $-1 66.514302504727127 -15.400025555710847 10.103462911195601 0.51503808176128008 0 0.85716729658548041 1.2857509448782207 0 -0.77255712264192011 1 I I #
face $-1 $-1 $234 $31 $-1 $317 forward single #
loop $-1 $-1 $318 $143 #
plane-surface $-1 79.715567491683714 0 0 -1 0 0 0 0 1 forward_v I I I I #
coedge $-1 $319 $320 $321 $322 reversed $144 $-1 #
coedge $-1 $323 $146 $148 $232 forward $91 $-1 #
coedge $-1 $146 $323 $319 $324 forward $91 $-1 #
coedge $-1 $321 $149 $146 $229 forward $234 $-1 #
edge $-1 $236 -18.217840022729245 $325 -0.89435985470177393 $228 $326 forward 7 unknown #
coedge $-1 $327 $328 $147 $231 forward $223 $-1 #
edge $-1 $329 -108.30045919226495 $235 -92.436218401024192 $230 $330 forward 7 unknown #
edge $-1 $236 128.62906159689146 $329 159.43113498336743 $148 $331 forward 7 unknown #
coedge $-1 $149 $321 $327 $332 forward $234 $-1 #
loop $-1 $-1 $321 $222 #
vertex $-1 $231 $333 #
vertex $-1 $150 $334 #
straight-curve $-1 12.584759230646554 27.773939961444754 18.035583306815994 -1 0 0 I I #
coedge $-1 $238 $238 $-1 $335 reversed $153 $-1 #
edge $-1 $336 0 $336 6.2831853071796004 $154 $337 forward 7 unknown #
vertex $-1 $157 $338 #
ellipse-curve $-1 66.514302504727127 15.400025555710847 10.103462911195601 0.51503808176128008 0 0.85716729658548041 1.2857509448782207 0 -0.77255712264192011 1 I I #
coedge $-1 $242 $242 $-1 $339 reversed $160 $-1 #
edge $-1 $340 0 $340 6.2831853071796004 $161 $341 forward 7 unknown #
vertex $-1 $164 $342 #
ellipse-curve $-1 66.514302504727127 22.824374199151201 10.103462911195601 0.51503808176128008 0 0.85716729658548041 1.2857509448782207 0 -0.77255712264192011 1 I I #
face $-1 $-1 $343 $34 $-1 $344 reversed single #
loop $-1 $-1 $345 $165 #
plane-surface $-1 0 44.674485063532963 0 0 -1 0 0 0 -1 forward_v I I I I #
coedge $-1 $346 $168 $170 $255 forward $105 $-1 #
coedge $-1 $168 $346 $345 $347 reversed $105 $-1 #
coedge $-1 $348 $171 $168 $252 forward $166 $-1 #
edge $-1 $258 6.3971348503784249 $349 27.650611758895838 $251 $350 forward 7 unknown #
coedge $-1 $351 $352 $169 $254 forward $343 $-1 #
edge $-1 $353 -50.955224005143712 $257 -33.489549279127516 $253 $354 forward 7 unknown #
edge $-1 $258 -22.799818853812443 $353 -4.4208768116316754e-014 $170 $355 forward 7 unknown #
coedge $-1 $171 $348 $351 $356 forward $166 $-1 #
vertex $-1 $254 $357 #
vertex $-1 $172 $358 #
straight-curve $-1 -100.92345191349628 23.421008155015556 18.035583306815994 1 0 0 I I #
coedge $-1 $260 $260 $-1 $359 reversed $175 $-1 #
edge $-1 $360 0 $360 6.2831853071796004 $176 $361 forward 7 unknown #
vertex $-1 $179 $362 #
ellipse-curve $-1 -72.387847073100957 34.047746609274249 9.3027459438078903 -0.7660444514056185 0 0.64278759981090561 2.5711503992436224 0 3.064177805622474 1 I I #
face $-1 $-1 $195 $27 $-1 $363 reversed single #
loop $-1 $-1 $280 $180 #
plane-surface $-1 0 44.674485063532963 0 0 -1 0 0 0 -1 forward_v I I I I #
coedge $-1 $364 $278 $281 $365 forward $181 $-1 #
coedge $-1 $284 $183 $184 $272 reversed $114 $-1 #
coedge $-1 $278 $364 $183 $270 reversed $181 $-1 #
edge $-1 $285 -18.03558330681599 $366 18.03558330681599 $269 $367 forward 7 unknown #
coedge $-1 $185 $184 $364 $368 forward $73 $-1 #
edge $-1 $276 -79.715567491683714 $366 79.715567491683714 $268 $369 forward 7 unknown #
coedge $-1 $281 $280 $185 $274 reversed $265 $-1 #
edge $-1 $370 -79.715567491683714 $275 79.715567491683714 $273 $371 forward 7 unknown #
vertex $-1 $187 $372 #
vertex $-1 $287 $373 #
straight-curve $-1 79.715567491683714 0 -18.03558330681599 0 -1 0 I I #
coedge $-1 $267 $269 $188 $279 reversed $181 $-1 #
edge $-1 $282 -44.674485063532963 $285 44.674485063532963 $278 $374 forward 7 unknown #
coedge $-1 $273 $189 $194 $288 forward $265 $-1 #
coedge $-1 $189 $273 $267 $365 reversed $265 $-1 #
vertex $-1 $190 $375 #
straight-curve $-1 0 44.674485063532963 18.03558330681599 -1 0 0 I I #
coedge $-1 $191 $268 $193 $287 reversed $114 $-1 #
vertex $-1 $279 $376 #
straight-curve $-1 0 -44.674485063532963 18.03558330681599 1 0 0 I I #
edge $-1 $196 -18.03558330681599 $276 18.03558330681599 $193 $377 forward 7 unknown #
edge $-1 $197 -18.03558330681599 $275 18.03558330681599 $194 $378 forward 7 unknown #
point $-1 79.715567491683714 -44.674485063532963 18.03558330681599 #
point $-1 79.715567491683714 44.674485063532963 18.03558330681599 #
loop $-1 $-1 $207 $199 #
plane-surface $-1 79.715567491683714 0 0 -1 0 0 0 0 1 forward_v I I I I #
coedge $-1 $294 $202 $204 $298 reversed $122 $-1 #
coedge $-1 $202 $293 $379 $380 reversed $122 $-1 #
coedge $-1 $210 $205 $202 $296 forward $200 $-1 #
edge $-1 $299 40.72827828712397 $381 67.13080826103716 $295 $382 forward 7 unknown #
coedge $-1 $204 $203 $302 $383 reversed $77 $-1 #
edge $-1 $384 -159.43113498336743 $299 -128.62906159689146 $293 $385 forward 7 unknown #
vertex $-1 $206 $386 #
straight-curve $-1 53.313037517770532 -9.5560999387155121 18.03558330681598 0 -1 0 I I #
coedge $-1 $379 $207 $210 $306 reversed $291 $-1 #
coedge $-1 $207 $379 $297 $383 forward $291 $-1 #
vertex $-1 $208 $387 #
straight-curve $-1 79.715567491683714 -10.45045979341729 110.47180170784019 0 0 1 I I #
straight-curve $-1 -56.943587473564165 -10.45045979341729 84.284448450432507 0.85716729658548041 0 -0.51503808176128008 I I #
edge $-1 $381 -27.773939961444761 $211 -10.45045979341729 $301 $388 forward 7 unknown #
point $-1 79.715567491683714 -10.45045979341729 18.03558330681599 #
point $-1 53.313037517770525 -10.45045979341729 18.035583306815994 #
edge $-1 $389 1 $389 0 $214 $-1 forward 7 unknown #
vertex $-1 $215 $390 #
ellipse-curve $-1 64.421605655806744 -22.824374199151194 6.6206305458143921 0.51503808176128008 0 0.85716729658548041 1.2857509448782207 0 -0.77255712264192011 1 I I #
point $-1 67.800053449605343 -22.824374199151194 9.3309057885536753 #
edge $-1 $391 1 $391 0 $218 $-1 forward 7 unknown #
vertex $-1 $219 $392 #
ellipse-curve $-1 64.421605655806744 -15.400025555710847 6.6206305458143921 0.51503808176128008 0 0.85716729658548041 1.2857509448782207 0 -0.77255712264192011 1 I I #
point $-1 67.800053449605343 -15.400025555710847 9.3309057885536753 #
plane-surface $-1 0 0 18.03558330681599 0 0 1 1 0 0 forward_v I I I I #
coedge $-1 $328 $327 $320 $393 forward $223 $-1 #
coedge $-1 $320 $225 $227 $324 reversed $144 $-1 #
coedge $-1 $225 $319 $318 $393 reversed $144 $-1 #
coedge $-1 $233 $228 $225 $322 forward $234 $-1 #
edge $-1 $325 40.72827828712397 $394 67.13080826103716 $321 $395 forward 7 unknown #
coedge $-1 $227 $226 $328 $396 reversed $91 $-1 #
edge $-1 $397 -159.43113498336743 $325 -128.62906159689146 $319 $398 forward 7 unknown #
vertex $-1 $229 $399 #
straight-curve $-1 53.313037517770532 9.5560999387155086 18.03558330681598 0 -1 0 I I #
coedge $-1 $318 $230 $233 $332 reversed $223 $-1 #
coedge $-1 $230 $318 $323 $396 forward $223 $-1 #
vertex $-1 $231 $400 #
straight-curve $-1 79.715567491683714 27.773939961444754 110.47180170784019 0 0 1 I I #
straight-curve $-1 -56.943587473564165 27.773939961444754 84.284448450432507 0.85716729658548041 0 -0.51503808176128008 I I #
edge $-1 $394 10.450459793417282 $235 27.773939961444754 $327 $401 forward 7 unknown #
point $-1 79.715567491683714 27.773939961444754 18.03558330681599 #
point $-1 53.313037517770525 27.773939961444754 18.035583306815994 #
edge $-1 $402 1 $402 0 $238 $-1 forward 7 unknown #
vertex $-1 $239 $403 #
ellipse-curve $-1 64.421605655806744 15.400025555710847 6.6206305458143921 0.51503808176128008 0 0.85716729658548041 1.2857509448782207 0 -0.77255712264192011 1 I I #
point $-1 67.800053449605343 15.400025555710847 9.3309057885536753 #
edge $-1 $404 1 $404 0 $242 $-1 forward 7 unknown #
vertex $-1 $243 $405 #
ellipse-curve $-1 64.421605655806744 22.824374199151201 6.6206305458143921 0.51503808176128008 0 0.85716729658548041 1.2857509448782207 0 -0.77255712264192011 1 I I #
point $-1 67.800053449605343 22.824374199151201 9.3309057885536753 #
loop $-1 $-1 $253 $246 #
plane-surface $-1 -79.715567491683714 0 0 1 0 0 0 0 -1 forward_v I I I I #
coedge $-1 $406 $407 $250 $347 forward $247 $-1 #
coedge $-1 $250 $249 $352 $408 reversed $105 $-1 #
edge $-1 $349 2.601982640894331 $409 25.401801494706724 $345 $410 forward 7 unknown #
coedge $-1 $256 $251 $407 $411 forward $166 $-1 #
vertex $-1 $411 $412 #
straight-curve $-1 -65.060126654518214 17.023873304637132 18.03558330681599 0 1 0 I I #
coedge $-1 $413 $253 $256 $356 reversed $343 $-1 #
coedge $-1 $253 $413 $346 $408 forward $343 $-1 #
vertex $-1 $254 $414 #
straight-curve $-1 -79.715567491683714 23.421008155015556 51.52513258594351 0 0 1 I I #
straight-curve $-1 -79.715567491683743 23.421008155015556 0.56990858079976192 -0.64278759981090561 0 -0.7660444514056185 I I #
edge $-1 $415 -44.674485063532963 $257 -23.421008155015556 $351 $416 forward 7 unknown #
point $-1 -79.715567491683714 23.421008155015556 18.03558330681599 #
point $-1 -65.060126654518214 23.421008155015556 18.03558330681599 #
edge $-1 $417 1 $417 0 $260 $-1 forward 7 unknown #
vertex $-1 $261 $418 #
ellipse-curve $-1 -64.504231065373745 34.047746609274249 2.6876068325729614 -0.7660444514056185 0 0.64278759981090561 2.5711503992436224 0 3.064177805622474 1 I I #
point $-1 -69.816696673857322 34.047746609274249 12.366923749430347 #
plane-surface $-1 79.715567491683714 0 0 -1 0 0 0 0 1 forward_v I I I I #
coedge $-1 $269 $267 $271 $368 reversed $181 $-1 #
edge $-1 $282 -18.03558330681599 $370 18.03558330681599 $281 $419 forward 7 unknown #
vertex $-1 $368 $420 #
straight-curve $-1 -79.715567491683714 -44.674485063532963 0 0 0 -1 I I #
edge $-1 $366 -44.674485063532963 $370 44.674485063532963 $364 $421 forward 7 unknown #
straight-curve $-1 0 -44.674485063532963 -18.03558330681599 -1 0 0 I I #
vertex $-1 $274 $422 #
straight-curve $-1 0 44.674485063532963 -18.03558330681599 1 0 0 I I #
point $-1 79.715567491683714 44.674485063532963 -18.03558330681599 #
point $-1 79.715567491683714 -44.674485063532963 -18.03558330681599 #
straight-curve $-1 -79.715567491683714 0 18.03558330681599 0 -1 0 I I #
point $-1 -79.715567491683714 44.674485063532963 18.03558330681599 #
point $-1 -79.715567491683714 -44.674485063532963 18.03558330681599 #
straight-curve $-1 79.715567491683714 -44.674485063532963 0 0 0 -1 I I #
straight-curve $-1 79.715567491683714 44.674485063532963 0 0 0 -1 I I #
coedge $-1 $302 $301 $294 $380 forward $291 $-1 #
edge $-1 $381 92.436218401024192 $384 108.30045919226495 $379 $423 forward 7 unknown #
vertex $-1 $306 $424 #
straight-curve $-1 12.584759230646554 -27.773939961444761 18.035583306815994 1 0 0 I I #
edge $-1 $384 -18.217840022729249 $303 -0.89435985470177748 $302 $425 forward 7 unknown #
vertex $-1 $383 $426 #
straight-curve $-1 -56.943587473564165 -27.773939961444761 84.284448450432507 -0.85716729658548041 0 0.51503808176128008 I I #
point $-1 53.313037517770525 -27.773939961444761 18.035583306815994 #
point $-1 79.7155674916837 -10.45045979341729 2.1713425155752333 #
straight-curve $-1 79.715567491683714 0 18.03558330681599 0 1 0 I I #
vertex $-1 $309 $427 #
point $-1 65.70735660068496 -22.824374199151194 5.8480734231724725 #
vertex $-1 $313 $428 #
point $-1 65.70735660068496 -15.400025555710847 5.8480734231724725 #
edge $-1 $394 92.436218401024192 $397 108.30045919226495 $318 $429 forward 7 unknown #
vertex $-1 $332 $430 #
straight-curve $-1 12.584759230646554 10.450459793417282 18.035583306815994 1 0 0 I I #
edge $-1 $397 0.89435985470177393 $329 18.217840022729245 $328 $431 forward 7 unknown #
vertex $-1 $396 $432 #
straight-curve $-1 -56.943587473564165 10.450459793417282 84.284448450432507 -0.85716729658548041 0 0.51503808176128008 I I #
point $-1 53.313037517770525 10.450459793417282 18.035583306815994 #
point $-1 79.7155674916837 27.773939961444754 2.1713425155752333 #
straight-curve $-1 79.715567491683714 0 18.03558330681599 0 1 0 I I #
vertex $-1 $335 $433 #
point $-1 65.70735660068496 15.400025555710847 5.8480734231724725 #
vertex $-1 $339 $434 #
point $-1 65.70735660068496 22.824374199151201 5.8480734231724725 #
coedge $-1 $407 $345 $413 $435 reversed $247 $-1 #
coedge $-1 $345 $406 $348 $411 reversed $247 $-1 #
edge $-1 $409 -27.650611758895838 $353 -6.3971348503784249 $352 $436 forward 7 unknown #
vertex $-1 $347 $437 #
straight-curve $-1 -63.387604478028102 44.674485063532963 20.028817671526827 -0.64278759981090572 0 -0.76604445140561861 I I #
edge $-1 $349 65.060126654518214 $415 79.715567491683714 $407 $438 forward 7 unknown #
point $-1 -65.060126654518214 44.67448506353297 18.03558330681599 #
coedge $-1 $352 $351 $406 $435 forward $343 $-1 #
point $-1 -79.715567491683714 23.421008155015556 0.56990858079979578 #
vertex $-1 $411 $439 #
straight-curve $-1 -79.715567491683714 0 18.03558330681599 0 -1 0 I I #
vertex $-1 $359 $440 #
point $-1 -61.933080666130124 34.047746609274249 5.751784638195435 #
straight-curve $-1 -79.715567491683714 44.674485063532963 0 0 0 -1 I I #
point $-1 -79.715567491683714 -44.674485063532963 -18.03558330681599 #
straight-curve $-1 -79.715567491683714 0 -18.03558330681599 0 1 0 I I #
point $-1 -79.715567491683714 44.674485063532963 -18.03558330681599 #
straight-curve $-1 79.715567491683714 -27.773939961444761 110.47180170784019 0 0 -1 I I #
point $-1 79.715567491683714 -27.773939961444761 18.03558330681599 #
straight-curve $-1 79.7155674916837 -9.5560999387155121 2.1713425155752333 0 1 0 I I #
point $-1 79.7155674916837 -27.773939961444761 2.1713425155752333 #
point $-1 63.649048533164816 -22.824374199151194 5.3348796009361701 #
point $-1 63.649048533164816 -15.400025555710847 5.3348796009361701 #
straight-curve $-1 79.715567491683714 10.450459793417282 110.47180170784019 0 0 -1 I I #
point $-1 79.715567491683714 10.450459793417282 18.03558330681599 #
straight-curve $-1 79.7155674916837 9.5560999387155086 2.1713425155752333 0 1 0 I I #
point $-1 79.7155674916837 10.450459793417282 2.1713425155752333 #
point $-1 63.649048533164816 15.400025555710847 5.3348796009361701 #
point $-1 63.649048533164816 22.824374199151201 5.3348796009361701 #
edge $-1 $415 -18.03558330681599 $409 -0.56990858079979578 $406 $441 forward 7 unknown #
straight-curve $-1 -79.715567491683714 17.023873304637132 0.56990858079979478 0 -1 0 I I #
point $-1 -79.715567491683714 44.67448506353297 0.56990858079979578 #
straight-curve $-1 0 44.674485063532963 18.03558330681599 -1 0 0 I I #
point $-1 -79.715567491683714 44.674485063532963 18.03558330681599 #
point $-1 -61.440053259751274 34.047746609274249 0.11645643332933897 #
straight-curve $-1 -79.715567491683714 44.674485063532963 0 0 0 -1 I I #
End-of-ACIS-data 