500 0 7 0           
7 Unknown 11 ACIS 5.0 NT 24 Fri Mar 26 00:38:16 1999 
-1 9.9999999999999995e-007 1e-010 
body $-1 $7 $-1 $8 #
body $-1 $9 $-1 $10 #
body $-1 $11 $-1 $12 #
body $-1 $13 $-1 $14 #
body $-1 $15 $-1 $16 #
body $-1 $17 $-1 $18 #
body $-1 $19 $-1 $20 #
lump $-1 $-1 $21 $0 #
transform $-1 1 0 0 0 1 0 0 0 1 61.159092989898369 37.004172306910277 14.503304643962704 1 rotate no_reflect no_shear #
lump $-1 $-1 $22 $1 #
transform $-1 1 0 0 0 1 0 0 0 1 61.159092989898369 37.004172306910277 14.503304643962704 1 rotate no_reflect no_shear #
lump $-1 $-1 $23 $2 #
transform $-1 1 0 0 0 1 0 0 0 1 61.159092989898369 37.004172306910277 14.503304643962704 1 rotate no_reflect no_shear #
lump $-1 $-1 $24 $3 #
transform $-1 1 0 0 0 1 0 0 0 1 61.159092989898369 37.004172306910277 14.503304643962704 1 rotate no_reflect no_shear #
lump $-1 $-1 $25 $4 #
transform $-1 1 0 0 0 1 0 0 0 1 61.159092989898369 37.004172306910277 14.503304643962704 1 rotate no_reflect no_shear #
lump $-1 $-1 $26 $5 #
transform $-1 1 0 0 0 1 0 0 0 1 61.159092989898369 37.004172306910277 14.503304643962704 1 rotate no_reflect no_shear #
lump $-1 $-1 $27 $6 #
transform $-1 1 0 0 0 1 0 0 0 1 61.159092989898369 37.004172306910277 14.503304643962704 1 rotate no_reflect no_shear #
shell $-1 $-1 $-1 $28 $-1 $7 #
shell $-1 $-1 $-1 $29 $-1 $9 #
shell $-1 $-1 $-1 $30 $-1 $11 #
shell $-1 $-1 $-1 $31 $-1 $13 #
shell $-1 $-1 $-1 $32 $-1 $15 #
shell $-1 $-1 $-1 $33 $-1 $17 #
shell $-1 $-1 $-1 $34 $-1 $19 #
face $-1 $35 $36 $21 $-1 $37 forward single #
face $-1 $38 $39 $22 $-1 $40 reversed single #
face $-1 $41 $42 $23 $-1 $43 reversed single #
face $-1 $44 $45 $24 $-1 $46 reversed single #
face $-1 $47 $48 $25 $-1 $49 forward single #
face $-1 $50 $51 $26 $-1 $52 reversed single #
face $-1 $53 $54 $27 $-1 $55 forward single #
face $-1 $56 $57 $21 $-1 $58 reversed single #
loop $-1 $-1 $59 $28 #
plane-surface $-1 0 0 14.503304643962704 0 0 1 1 0 0 forward_v I I I I #
face $-1 $60 $61 $22 $-1 $62 reversed single #
loop $-1 $-1 $63 $29 #
plane-surface $-1 -53.397963791473238 -17.876921154007697 0 0 1 0 0 0 1 forward_v I I I I #
face $-1 $64 $65 $23 $-1 $66 reversed single #
loop $-1 $-1 $67 $30 #
plane-surface $-1 53.397963791473245 -17.876921154007697 0 0 1 0 0 0 1 forward_v I I I I #
face $-1 $68 $69 $24 $-1 $70 reversed single #
loop $-1 $-1 $71 $31 #
plane-surface $-1 -18.714698902979578 71.164390345548966 142.03640473974687 1 0 0 0 -0.70710678939079041 -0.70710677298230451 forward_v I I I I #
face $-1 $72 $73 $25 $-1 $74 forward single #
loop $-1 $75 $76 $32 #
cone-surface $-1 -7.2284005365643722 30.728788547040271 8.2279207677113035 0 -0.70710678939079041 -0.70710677298230451 1 0 0 1 I I 0 1 1 forward I I I I #
face $-1 $77 $78 $26 $-1 $79 reversed single #
loop $-1 $-1 $80 $33 #
plane-surface $-1 -11.357600328166626 -133.39221923032221 77.937465003262233 -1 0 0 0 -0.78801076186113728 0.61566146476048833 forward_v I I I I #
face $-1 $81 $82 $27 $-1 $83 forward single #
loop $-1 $84 $85 $34 #
cone-surface $-1 -18.585927848368669 -29.38646295942517 6.2389907230205202 0 0.78801076186113728 -0.61566146476048833 2 0 0 1 I I 0 1 2 forward I I I I #
face $-1 $86 $87 $21 $-1 $88 reversed single #
loop $-1 $-1 $89 $35 #
plane-surface $-1 0 0 -14.503304643962704 0 0 1 1 0 0 forward_v I I I I #
coedge $-1 $90 $91 $92 $93 forward $36 $-1 #
face $-1 $94 $95 $22 $-1 $96 reversed single #
loop $-1 $-1 $97 $38 #
plane-surface $-1 -53.397963791473238 -10.891415781164648 0 0 -1 0 0 0 -1 forward_v I I I I #
coedge $-1 $98 $99 $100 $101 reversed $39 $-1 #
face $-1 $102 $103 $23 $-1 $104 reversed single #
loop $-1 $-1 $105 $41 #
plane-surface $-1 45.636834593048114 -14.384168467586171 0 1 0 0 0 0 -1 forward_v I I I I #
coedge $-1 $106 $107 $108 $109 forward $42 $-1 #
face $-1 $110 $111 $24 $-1 $112 reversed single #
loop $-1 $-1 $113 $44 #
plane-surface $-1 -7.2284005365643722 -15.327629426730695 55.544386974523448 0 0.70710678939079041 0.70710677298230451 1 0 0 forward_v I I I I #
coedge $-1 $114 $115 $116 $117 reversed $45 $-1 #
face $-1 $-1 $118 $25 $-1 $119 forward single #
loop $-1 $120 $121 $47 #
cone-surface $-1 -7.2284005365643722 29.745211570196247 7.2443438136912839 0 -0.70710678939079041 -0.70710677298230451 0.5 0 0 1 I I -0.70710678118654746 0.70710678118654746 0.5 forward I I I I #
loop $-1 $-1 $122 $32 #
coedge $-1 $76 $76 $123 $124 reversed $48 $-1 #
face $-1 $125 $126 $26 $-1 $127 reversed single #
loop $-1 $-1 $128 $50 #
plane-surface $-1 -18.585927848368669 -37.004172306910306 2.6308714560947521 0 -0.78801076186113728 0.61566146476048833 1 0 0 forward_v I I I I #
coedge $-1 $129 $130 $131 $132 reversed $51 $-1 #
face $-1 $-1 $133 $27 $-1 $134 forward single #
loop $-1 $135 $136 $53 #
cone-surface $-1 -18.585927848368669 -25.618623422579201 3.295231931251827 0 0.78801076186113728 -0.61566146476048833 1 0 0 1 I I -0.70710678118654746 0.70710678118654746 1 forward I I I I #
loop $-1 $-1 $137 $34 #
coedge $-1 $85 $85 $138 $139 reversed $54 $-1 #
face $-1 $140 $141 $21 $-1 $142 reversed single #
loop $-1 $-1 $143 $56 #
plane-surface $-1 0 -37.004172306910277 0 0 1 0 0 0 1 forward_v I I I I #
coedge $-1 $144 $145 $146 $147 forward $57 $-1 #
coedge $-1 $148 $59 $149 $150 forward $36 $-1 #
coedge $-1 $59 $148 $151 $152 forward $36 $-1 #
coedge $-1 $153 $154 $59 $93 reversed $155 $-1 #
edge $-1 $156 -37.004172306910277 $157 37.004172306910277 $92 $158 forward 7 unknown #
face $-1 $159 $160 $22 $-1 $161 reversed single #
loop $-1 $-1 $162 $60 #
plane-surface $-1 -45.636834593048107 -14.384168467586171 0 -1 0 0 0 0 1 forward_v I I I I #
coedge $-1 $163 $164 $165 $166 forward $61 $-1 #
coedge $-1 $167 $63 $168 $169 reversed $39 $-1 #
coedge $-1 $63 $167 $170 $171 reversed $39 $-1 #
coedge $-1 $172 $173 $63 $101 forward $174 $-1 #
edge $-1 $175 -14.503304643962704 $176 14.503304643962704 $100 $177 forward 7 unknown #
face $-1 $178 $179 $23 $-1 $180 reversed single #
loop $-1 $-1 $181 $64 #
plane-surface $-1 53.397963791473245 -10.891415781164648 0 0 -1 0 0 0 -1 forward_v I I I I #
coedge $-1 $182 $183 $184 $185 forward $65 $-1 #
coedge $-1 $186 $67 $187 $188 reversed $42 $-1 #
coedge $-1 $67 $186 $189 $190 reversed $42 $-1 #
coedge $-1 $183 $182 $67 $109 reversed $65 $-1 #
edge $-1 $191 -14.503304643962704 $192 14.503304643962704 $108 $193 forward 7 unknown #
face $-1 $194 $195 $24 $-1 $196 reversed single #
loop $-1 $-1 $197 $68 #
plane-surface $-1 4.2578978298508332 71.164390345548966 142.03640473974687 -1 0 0 0 0.70710678939079041 0.70710677298230451 forward_v I I I I #
coedge $-1 $198 $199 $200 $201 reversed $69 $-1 #
coedge $-1 $115 $71 $202 $203 reversed $45 $-1 #
coedge $-1 $71 $114 $198 $204 reversed $45 $-1 #
coedge $-1 $200 $205 $71 $117 forward $206 $-1 #
edge $-1 $207 -1.4219771341357941 $208 9.8687432213069783 $116 $209 forward 7 unknown #
loop $-1 $-1 $123 $72 #
plane-surface $-1 -7.2284005365643722 -15.327629426730695 55.544386974523448 0 0.70710678939079041 0.70710677298230451 1 0 0 forward_v I I I I #
loop $-1 $-1 $210 $47 #
coedge $-1 $121 $121 $122 $211 reversed $73 $-1 #
coedge $-1 $122 $122 $121 $211 forward $75 $-1 #
coedge $-1 $123 $123 $76 $124 forward $118 $-1 #
edge $-1 $212 -1.2560741564046394e-015 $212 6.2831853071795996 $123 $213 forward 7 unknown #
face $-1 $214 $215 $26 $-1 $216 forward single #
loop $-1 $-1 $217 $77 #
plane-surface $-1 -25.814255368570713 -133.39221923032221 77.937465003262233 1 0 0 0 0.78801076186113728 -0.61566146476048833 forward_v I I I I #
coedge $-1 $218 $219 $220 $221 reversed $78 $-1 #
coedge $-1 $130 $80 $222 $223 reversed $51 $-1 #
coedge $-1 $80 $129 $218 $224 reversed $51 $-1 #
coedge $-1 $220 $225 $80 $132 forward $215 $-1 #
edge $-1 $226 29.691937308250829 $227 38.967698453251344 $131 $228 forward 7 unknown #
loop $-1 $-1 $138 $81 #
plane-surface $-1 -18.585927848368669 -37.004172306910306 2.6308714560947521 0 -0.78801076186113728 0.61566146476048833 1 0 0 forward_v I I I I #
loop $-1 $-1 $229 $53 #
coedge $-1 $136 $136 $137 $230 reversed $82 $-1 #
coedge $-1 $137 $137 $136 $230 forward $84 $-1 #
coedge $-1 $138 $138 $85 $139 forward $133 $-1 #
edge $-1 $231 9.6265349668268541e-016 $231 6.2831853071796013 $138 $232 forward 7 unknown #
face $-1 $233 $234 $21 $-1 $235 reversed single #
loop $-1 $-1 $236 $86 #
plane-surface $-1 -61.159092989898369 0 0 1 0 0 0 0 -1 forward_v I I I I #
coedge $-1 $237 $151 $238 $239 forward $87 $-1 #
coedge $-1 $240 $89 $237 $241 forward $57 $-1 #
coedge $-1 $89 $240 $242 $243 forward $57 $-1 #
coedge $-1 $154 $153 $89 $147 reversed $155 $-1 #
edge $-1 $244 -37.004172306910277 $245 37.004172306910277 $146 $246 forward 7 unknown #
coedge $-1 $91 $90 $247 $248 forward $36 $-1 #
coedge $-1 $249 $250 $90 $150 reversed $234 $-1 #
edge $-1 $157 -61.159092989898369 $251 61.159092989898369 $149 $252 forward 7 unknown #
coedge $-1 $143 $253 $91 $152 reversed $87 $-1 #
edge $-1 $254 -61.159092989898369 $156 61.159092989898369 $151 $255 forward 7 unknown #
coedge $-1 $146 $92 $253 $256 forward $155 $-1 #
coedge $-1 $92 $146 $249 $257 reversed $155 $-1 #
loop $-1 $-1 $153 $233 #
vertex $-1 $93 $258 #
vertex $-1 $93 $259 #
straight-curve $-1 61.159092989898369 0 14.503304643962704 0 1 0 I I #
face $-1 $260 $261 $22 $-1 $262 forward single #
loop $-1 $-1 $263 $94 #
plane-surface $-1 0 0 -14.503304643962704 0 0 1 1 0 0 forward_v I I I I #
coedge $-1 $264 $265 $167 $266 forward $95 $-1 #
coedge $-1 $267 $97 $263 $268 reversed $61 $-1 #
coedge $-1 $97 $267 $269 $270 reversed $61 $-1 #
coedge $-1 $265 $264 $97 $166 reversed $95 $-1 #
edge $-1 $271 -14.503304643962704 $272 14.503304643962704 $165 $273 forward 7 unknown #
coedge $-1 $99 $98 $162 $266 reversed $39 $-1 #
coedge $-1 $274 $275 $98 $169 forward $160 $-1 #
edge $-1 $276 18.937852697311488 $175 34.460111094161746 $168 $277 forward 7 unknown #
coedge $-1 $278 $279 $99 $171 forward $261 $-1 #
edge $-1 $176 -34.460111094161746 $280 -18.937852697311488 $170 $281 forward 7 unknown #
coedge $-1 $282 $100 $279 $283 reversed $174 $-1 #
coedge $-1 $100 $282 $274 $284 reversed $174 $-1 #
loop $-1 $-1 $282 $260 #
vertex $-1 $284 $285 #
vertex $-1 $101 $286 #
straight-curve $-1 -61.159092989898369 -17.876921154007697 0 0 0 1 I I #
face $-1 $287 $288 $23 $-1 $289 forward single #
loop $-1 $-1 $187 $102 #
plane-surface $-1 0 0 -14.503304643962704 0 0 1 1 0 0 forward_v I I I I #
coedge $-1 $290 $291 $292 $293 reversed $103 $-1 #
coedge $-1 $108 $105 $294 $295 reversed $65 $-1 #
coedge $-1 $105 $108 $296 $297 reversed $65 $-1 #
coedge $-1 $291 $290 $105 $185 reversed $103 $-1 #
edge $-1 $298 -14.503304643962704 $299 14.503304643962704 $184 $300 forward 7 unknown #
coedge $-1 $107 $106 $301 $302 reversed $42 $-1 #
coedge $-1 $294 $303 $106 $188 forward $179 $-1 #
edge $-1 $304 -34.460111094161753 $192 -18.937852697311492 $187 $305 forward 7 unknown #
coedge $-1 $306 $296 $107 $190 forward $288 $-1 #
edge $-1 $191 18.937852697311492 $307 34.460111094161753 $189 $308 forward 7 unknown #
vertex $-1 $190 $309 #
vertex $-1 $188 $310 #
straight-curve $-1 45.636834593048114 -17.876921154007697 0 0 0 -1 I I #
face $-1 $-1 $206 $24 $-1 $311 forward single #
loop $-1 $-1 $312 $110 #
plane-surface $-1 0 37.004172306910277 0 0 -1 0 0 0 -1 forward_v I I I I #
coedge $-1 $313 $314 $315 $316 reversed $111 $-1 #
coedge $-1 $317 $113 $115 $204 forward $69 $-1 #
coedge $-1 $113 $317 $313 $318 forward $69 $-1 #
coedge $-1 $315 $116 $113 $201 forward $206 $-1 #
edge $-1 $208 -15.100498634697392 $319 7.8720980981330193 $200 $320 forward 7 unknown #
coedge $-1 $321 $322 $114 $203 forward $195 $-1 #
edge $-1 $323 -67.805618343355832 $207 -56.514897725910728 $202 $324 forward 7 unknown #
edge $-1 $208 58.040854572927799 $323 74.008344613820569 $115 $325 forward 7 unknown #
coedge $-1 $116 $315 $321 $326 forward $206 $-1 #
loop $-1 $-1 $315 $194 #
vertex $-1 $203 $327 #
vertex $-1 $117 $328 #
straight-curve $-1 -18.714698902979578 35.582195172774483 14.503304643962707 0 -1 0 I I #
coedge $-1 $210 $210 $-1 $329 reversed $120 $-1 #
edge $-1 $330 0 $330 6.2831853071796004 $121 $331 forward 7 unknown #
vertex $-1 $124 $332 #
ellipse-curve $-1 -7.2284005365643722 31.358812129188887 8.8579443352401572 0 0.70710678939079041 0.70710677298230451 1 0 0 1 I I #
face $-1 $-1 $333 $26 $-1 $334 reversed single #
loop $-1 $-1 $131 $125 #
plane-surface $-1 0 0 14.503304643962704 0 0 1 1 0 0 forward_v I I I I #
coedge $-1 $335 $336 $337 $338 reversed $126 $-1 #
coedge $-1 $339 $128 $130 $224 forward $78 $-1 #
coedge $-1 $128 $339 $335 $340 forward $78 $-1 #
coedge $-1 $337 $131 $128 $221 forward $215 $-1 #
edge $-1 $227 2.0646364039822913 $341 16.521291444386378 $220 $342 forward 7 unknown #
coedge $-1 $343 $344 $129 $223 forward $333 $-1 #
edge $-1 $345 -36.337861045536329 $226 -24.465427857668413 $222 $346 forward 7 unknown #
edge $-1 $227 -15.066333814816737 $345 -4.6193811539156697e-014 $130 $347 forward 7 unknown #
coedge $-1 $131 $337 $343 $348 forward $215 $-1 #
vertex $-1 $132 $349 #
vertex $-1 $132 $350 #
straight-curve $-1 -11.357600328166626 -66.696109615161106 14.503304643962704 0 1 0 I I #
coedge $-1 $229 $229 $-1 $351 reversed $135 $-1 #
edge $-1 $352 0 $352 6.2831853071796004 $136 $353 forward 7 unknown #
vertex $-1 $139 $354 #
ellipse-curve $-1 -18.585927848368669 -32.366291734410019 8.5670880500287403 0 -0.78801076186113728 0.61566146476048833 2 0 0 1 I I #
face $-1 $-1 $155 $21 $-1 $355 reversed single #
loop $-1 $-1 $249 $140 #
plane-surface $-1 0 37.004172306910277 0 0 -1 0 0 0 -1 forward_v I I I I #
coedge $-1 $356 $247 $250 $357 forward $141 $-1 #
coedge $-1 $253 $143 $144 $241 reversed $87 $-1 #
coedge $-1 $247 $356 $143 $239 reversed $141 $-1 #
edge $-1 $254 -14.503304643962704 $358 14.503304643962704 $238 $359 forward 7 unknown #
coedge $-1 $145 $144 $356 $360 forward $57 $-1 #
edge $-1 $245 -61.159092989898369 $358 61.159092989898369 $237 $361 forward 7 unknown #
coedge $-1 $250 $249 $145 $243 reversed $234 $-1 #
edge $-1 $362 -61.159092989898369 $244 61.159092989898369 $242 $363 forward 7 unknown #
vertex $-1 $147 $364 #
vertex $-1 $256 $365 #
straight-curve $-1 61.159092989898369 0 -14.503304643962704 0 -1 0 I I #
coedge $-1 $236 $238 $148 $248 reversed $141 $-1 #
edge $-1 $251 -37.004172306910277 $254 37.004172306910277 $247 $366 forward 7 unknown #
coedge $-1 $242 $149 $154 $257 forward $234 $-1 #
coedge $-1 $149 $242 $236 $357 reversed $234 $-1 #
vertex $-1 $150 $367 #
straight-curve $-1 0 37.004172306910277 14.503304643962704 -1 0 0 I I #
coedge $-1 $151 $237 $153 $256 reversed $87 $-1 #
vertex $-1 $248 $368 #
straight-curve $-1 0 -37.004172306910277 14.503304643962704 1 0 0 I I #
edge $-1 $156 -14.503304643962704 $245 14.503304643962704 $153 $369 forward 7 unknown #
edge $-1 $157 -14.503304643962704 $244 14.503304643962704 $154 $370 forward 7 unknown #
point $-1 61.159092989898369 -37.004172306910277 14.503304643962704 #
point $-1 61.159092989898369 37.004172306910277 14.503304643962704 #
face $-1 $-1 $174 $22 $-1 $371 reversed single #
loop $-1 $-1 $269 $159 #
plane-surface $-1 0 0 14.503304643962704 0 0 1 1 0 0 forward_v I I I I #
coedge $-1 $275 $274 $163 $268 forward $160 $-1 #
coedge $-1 $165 $162 $275 $372 reversed $95 $-1 #
coedge $-1 $162 $165 $278 $373 reversed $95 $-1 #
edge $-1 $280 -14.503304643962704 $276 14.503304643962704 $162 $374 forward 7 unknown #
coedge $-1 $164 $163 $282 $375 reversed $61 $-1 #
edge $-1 $376 -34.460111094161746 $272 -18.937852697311488 $263 $377 forward 7 unknown #
coedge $-1 $279 $278 $164 $270 forward $261 $-1 #
edge $-1 $271 18.937852697311488 $378 34.460111094161746 $269 $379 forward 7 unknown #
vertex $-1 $270 $380 #
vertex $-1 $268 $381 #
straight-curve $-1 -45.636834593048107 -10.891415781164648 0 0 0 -1 I I #
coedge $-1 $263 $168 $173 $284 forward $160 $-1 #
coedge $-1 $168 $263 $264 $372 forward $160 $-1 #
vertex $-1 $169 $382 #
straight-curve $-1 -26.698981895736619 -17.876921154007697 -14.503304643962704 -1 0 0 I I #
coedge $-1 $269 $170 $265 $373 forward $261 $-1 #
coedge $-1 $170 $269 $172 $283 forward $261 $-1 #
vertex $-1 $171 $383 #
straight-curve $-1 -26.698981895736619 -17.876921154007697 14.503304643962704 1 0 0 I I #
coedge $-1 $173 $172 $267 $375 forward $174 $-1 #
edge $-1 $378 10.891415781164648 $176 17.876921154007697 $172 $384 forward 7 unknown #
edge $-1 $175 -17.876921154007697 $376 -10.891415781164648 $173 $385 forward 7 unknown #
point $-1 -61.159092989898369 -17.876921154007697 -14.503304643962704 #
point $-1 -61.159092989898369 -17.876921154007697 14.503304643962704 #
face $-1 $-1 $386 $23 $-1 $387 reversed single #
loop $-1 $-1 $189 $178 #
plane-surface $-1 0 0 14.503304643962704 0 0 1 1 0 0 forward_v I I I I #
coedge $-1 $184 $181 $388 $389 reversed $103 $-1 #
coedge $-1 $181 $184 $390 $391 reversed $103 $-1 #
coedge $-1 $392 $393 $181 $293 forward $386 $-1 #
edge $-1 $394 -14.503304643962704 $395 14.503304643962704 $292 $396 forward 7 unknown #
coedge $-1 $388 $187 $182 $295 forward $179 $-1 #
edge $-1 $192 -10.684836920214611 $299 -3.6993315473715622 $294 $397 forward 7 unknown #
coedge $-1 $189 $390 $183 $297 forward $288 $-1 #
edge $-1 $298 3.6993315473715622 $191 10.684836920214611 $296 $398 forward 7 unknown #
vertex $-1 $297 $399 #
vertex $-1 $295 $400 #
straight-curve $-1 45.636834593048114 -10.891415781164648 0 0 0 -1 I I #
coedge $-1 $393 $392 $186 $302 forward $386 $-1 #
edge $-1 $307 -14.503304643962704 $304 14.503304643962704 $301 $401 forward 7 unknown #
coedge $-1 $187 $388 $393 $402 forward $179 $-1 #
vertex $-1 $302 $403 #
straight-curve $-1 26.698981895736623 -17.876921154007697 -14.503304643962704 -1 0 0 I I #
coedge $-1 $390 $189 $392 $404 forward $288 $-1 #
vertex $-1 $404 $405 #
straight-curve $-1 26.698981895736623 -17.876921154007697 14.503304643962704 1 0 0 I I #
point $-1 45.636834593048114 -17.876921154007697 14.503304643962704 #
point $-1 45.636834593048114 -17.876921154007697 -14.503304643962704 #
plane-surface $-1 0 0 14.503304643962704 0 0 1 1 0 0 forward_v I I I I #
coedge $-1 $322 $321 $314 $406 forward $195 $-1 #
coedge $-1 $314 $197 $199 $318 reversed $111 $-1 #
coedge $-1 $197 $313 $312 $406 reversed $111 $-1 #
coedge $-1 $205 $200 $197 $316 forward $206 $-1 #
edge $-1 $319 -9.8687432213069783 $407 1.4219771341357941 $315 $408 forward 7 unknown #
coedge $-1 $199 $198 $322 $409 reversed $69 $-1 #
edge $-1 $410 -74.008344613820569 $319 -58.040854572927799 $313 $411 forward 7 unknown #
vertex $-1 $201 $412 #
straight-curve $-1 -3.6142002682821861 25.713451951467505 14.5033046439627 1 0 0 I I #
coedge $-1 $312 $202 $205 $326 reversed $195 $-1 #
coedge $-1 $202 $312 $317 $409 forward $195 $-1 #
vertex $-1 $203 $413 #
straight-curve $-1 -18.714698902979578 37.004172306910277 71.018202369873435 0 0 1 I I #
straight-curve $-1 -18.714698902979578 -15.327629426730695 55.544386974523448 0 0.70710677298230451 -0.70710678939079041 I I #
edge $-1 $407 -4.2578978298508332 $207 18.714698902979578 $321 $414 forward 7 unknown #
point $-1 -18.714698902979578 37.004172306910277 14.503304643962704 #
point $-1 -18.714698902979578 25.713451951467505 14.503304643962707 #
edge $-1 $415 1 $415 0 $210 $-1 forward 7 unknown #
vertex $-1 $211 $416 #
ellipse-curve $-1 -7.2284005365643722 30.098764964891643 7.5978972001824365 0 0.70710678939079041 0.70710677298230451 1 0 0 1 I I #
point $-1 -6.2284005365643722 31.358812129188898 8.8579443352401697 #
loop $-1 $-1 $222 $214 #
plane-surface $-1 0 -37.004172306910277 0 0 1 0 0 0 1 forward_v I I I I #
coedge $-1 $336 $217 $219 $340 reversed $126 $-1 #
coedge $-1 $217 $335 $417 $418 reversed $126 $-1 #
coedge $-1 $225 $220 $217 $338 forward $215 $-1 #
edge $-1 $341 -38.967698453251344 $419 -29.691937308250829 $337 $420 forward 7 unknown #
coedge $-1 $219 $218 $344 $421 reversed $78 $-1 #
edge $-1 $422 4.6193811539156697e-014 $341 15.066333814816737 $335 $423 forward 7 unknown #
vertex $-1 $221 $424 #
straight-curve $-1 -9.2929639241843347 -27.728411161909758 14.503304643962704 -1 0 0 I I #
coedge $-1 $417 $222 $225 $348 reversed $333 $-1 #
coedge $-1 $222 $417 $339 $421 forward $333 $-1 #
vertex $-1 $223 $425 #
straight-curve $-1 -11.357600328166626 -37.004172306910277 38.968732501631116 0 0 1 I I #
straight-curve $-1 -11.357600328166626 -37.004172306910306 2.6308714560947521 0 -0.61566146476048833 -0.78801076186113728 I I #
edge $-1 $419 -25.814255368570713 $226 -11.357600328166626 $343 $426 forward 7 unknown #
point $-1 -11.357600328166626 -37.004172306910277 14.503304643962704 #
point $-1 -11.357600328166626 -27.728411161909758 14.503304643962704 #
edge $-1 $427 1 $427 0 $229 $-1 forward 7 unknown #
vertex $-1 $230 $428 #
ellipse-curve $-1 -18.585927848368669 -26.406634184440339 3.9108933960123151 0 -0.78801076186113728 0.61566146476048833 2 0 0 1 I I #
point $-1 -16.585927848368669 -32.366291734409998 8.5670880500287261 #
plane-surface $-1 61.159092989898369 0 0 -1 0 0 0 0 1 forward_v I I I I #
coedge $-1 $238 $236 $240 $360 reversed $141 $-1 #
edge $-1 $251 -14.503304643962704 $362 14.503304643962704 $250 $429 forward 7 unknown #
vertex $-1 $360 $430 #
straight-curve $-1 -61.159092989898369 -37.004172306910277 0 0 0 -1 I I #
edge $-1 $358 -37.004172306910277 $362 37.004172306910277 $356 $431 forward 7 unknown #
straight-curve $-1 0 -37.004172306910277 -14.503304643962704 -1 0 0 I I #
vertex $-1 $243 $432 #
straight-curve $-1 0 37.004172306910277 -14.503304643962704 1 0 0 I I #
point $-1 61.159092989898369 37.004172306910277 -14.503304643962704 #
point $-1 61.159092989898369 -37.004172306910277 -14.503304643962704 #
straight-curve $-1 -61.159092989898369 0 14.503304643962704 0 -1 0 I I #
point $-1 -61.159092989898369 37.004172306910277 14.503304643962704 #
point $-1 -61.159092989898369 -37.004172306910277 14.503304643962704 #
straight-curve $-1 61.159092989898369 -37.004172306910277 0 0 0 -1 I I #
straight-curve $-1 61.159092989898369 37.004172306910277 0 0 0 -1 I I #
plane-surface $-1 -61.159092989898369 0 0 1 0 0 0 0 -1 forward_v I I I I #
edge $-1 $272 3.6993315473715622 $276 10.684836920214611 $275 $433 forward 7 unknown #
edge $-1 $280 -10.684836920214611 $271 -3.6993315473715622 $278 $434 forward 7 unknown #
straight-curve $-1 -45.636834593048107 -17.876921154007697 0 0 0 -1 I I #
edge $-1 $378 -14.503304643962704 $376 14.503304643962704 $282 $435 forward 7 unknown #
vertex $-1 $375 $436 #
straight-curve $-1 -26.698981895736619 -10.891415781164648 -14.503304643962704 1 0 0 I I #
vertex $-1 $283 $437 #
straight-curve $-1 -26.698981895736619 -10.891415781164648 14.503304643962704 -1 0 0 I I #
point $-1 -45.636834593048107 -10.891415781164648 14.503304643962704 #
point $-1 -45.636834593048107 -10.891415781164648 -14.503304643962704 #
point $-1 -45.636834593048107 -17.876921154007697 -14.503304643962704 #
point $-1 -45.636834593048107 -17.876921154007697 14.503304643962704 #
straight-curve $-1 -61.159092989898369 0 14.503304643962704 0 -1 0 I I #
straight-curve $-1 -61.159092989898369 0 -14.503304643962704 0 1 0 I I #
loop $-1 $-1 $301 $287 #
plane-surface $-1 61.159092989898369 0 0 -1 0 0 0 0 1 forward_v I I I I #
coedge $-1 $303 $294 $290 $389 forward $179 $-1 #
edge $-1 $299 18.937852697311492 $394 34.460111094161753 $388 $438 forward 7 unknown #
coedge $-1 $296 $306 $291 $391 forward $288 $-1 #
edge $-1 $395 -34.460111094161753 $298 -18.937852697311492 $390 $439 forward 7 unknown #
coedge $-1 $301 $292 $306 $404 reversed $386 $-1 #
coedge $-1 $292 $301 $303 $402 reversed $386 $-1 #
vertex $-1 $402 $440 #
vertex $-1 $293 $441 #
straight-curve $-1 61.159092989898369 -10.891415781164648 0 0 0 1 I I #
straight-curve $-1 45.636834593048114 -7.1920842337930857 -14.503304643962704 0 1 0 I I #
straight-curve $-1 45.636834593048114 -7.1920842337930857 14.503304643962704 0 -1 0 I I #
point $-1 45.636834593048114 -10.891415781164648 14.503304643962704 #
point $-1 45.636834593048114 -10.891415781164648 -14.503304643962704 #
straight-curve $-1 61.159092989898369 -17.876921154007697 0 0 0 -1 I I #
edge $-1 $394 10.891415781164648 $304 17.876921154007697 $393 $442 forward 7 unknown #
point $-1 61.159092989898376 -17.876921154007697 -14.503304643962704 #
edge $-1 $307 -17.876921154007697 $395 -10.891415781164648 $392 $443 forward 7 unknown #
point $-1 61.159092989898376 -17.876921154007697 14.503304643962704 #
edge $-1 $407 56.514897725910728 $410 67.805618343355832 $312 $444 forward 7 unknown #
vertex $-1 $326 $445 #
straight-curve $-1 4.2578978298508332 35.582195172774483 14.503304643962707 0 1 0 I I #
edge $-1 $410 -7.8720980981330193 $323 15.100498634697392 $322 $446 forward 7 unknown #
vertex $-1 $409 $447 #
straight-curve $-1 4.2578978298508332 -15.327629426730695 55.544386974523448 0 -0.70710677298230451 0.70710678939079041 I I #
point $-1 4.2578978298508332 25.713451951467505 14.503304643962707 #
point $-1 -18.714698902979578 37.00417230691027 3.2125840265176038 #
straight-curve $-1 0 37.004172306910277 14.503304643962704 -1 0 0 I I #
vertex $-1 $329 $448 #
point $-1 -6.2284005365643722 30.098764964891643 7.5978972001824365 #
coedge $-1 $344 $343 $336 $418 forward $333 $-1 #
edge $-1 $419 24.465427857668413 $422 36.337861045536329 $417 $449 forward 7 unknown #
vertex $-1 $348 $450 #
straight-curve $-1 -25.814255368570713 -66.696109615161106 14.503304643962704 0 -1 0 I I #
edge $-1 $422 -16.521291444386378 $345 -2.0646364039822913 $344 $451 forward 7 unknown #
vertex $-1 $421 $452 #
straight-curve $-1 -25.814255368570713 -37.004172306910306 2.6308714560947521 0 0.61566146476048833 0.78801076186113728 I I #
point $-1 -25.814255368570713 -27.728411161909758 14.503304643962704 #
point $-1 -11.357600328166626 -37.004172306910277 2.6308714560947886 #
straight-curve $-1 0 -37.004172306910277 14.503304643962704 1 0 0 I I #
vertex $-1 $351 $453 #
point $-1 -16.585927848368669 -26.406634184440339 3.9108933960123151 #
straight-curve $-1 -61.159092989898369 37.004172306910277 0 0 0 -1 I I #
point $-1 -61.159092989898369 -37.004172306910277 -14.503304643962704 #
straight-curve $-1 -61.159092989898369 0 -14.503304643962704 0 1 0 I I #
point $-1 -61.159092989898369 37.004172306910277 -14.503304643962704 #
straight-curve $-1 -45.636834593048107 -7.1920842337930857 -14.503304643962704 0 -1 0 I I #
straight-curve $-1 -45.636834593048107 -7.1920842337930857 14.503304643962704 0 1 0 I I #
straight-curve $-1 -61.159092989898369 -10.891415781164648 0 0 0 -1 I I #
point $-1 -61.159092989898369 -10.891415781164648 -14.503304643962704 #
point $-1 -61.159092989898369 -10.891415781164648 14.503304643962704 #
straight-curve $-1 26.698981895736623 -10.891415781164648 -14.503304643962704 1 0 0 I I #
straight-curve $-1 26.698981895736623 -10.891415781164648 14.503304643962704 -1 0 0 I I #
point $-1 61.159092989898376 -10.891415781164648 -14.503304643962704 #
point $-1 61.159092989898376 -10.891415781164648 14.503304643962704 #
straight-curve $-1 61.159092989898369 0 -14.503304643962704 0 -1 0 I I #
straight-curve $-1 61.159092989898369 0 14.503304643962704 0 1 0 I I #
straight-curve $-1 4.2578978298508332 37.004172306910277 71.018202369873435 0 0 -1 I I #
point $-1 4.2578978298508332 37.004172306910277 14.503304643962704 #
straight-curve $-1 -3.6142002682821861 37.004172306910284 3.2125840265175931 -1 0 0 I I #
point $-1 4.2578978298508332 37.00417230691027 3.2125840265176038 #
point $-1 -7.2284005365643722 29.391658175500851 6.8907904272001312 #
straight-curve $-1 -25.814255368570713 -37.004172306910277 38.968732501631116 0 0 -1 I I #
point $-1 -25.814255368570713 -37.004172306910277 14.503304643962704 #
straight-curve $-1 -9.2929639241843347 -37.004172306910277 2.6308714560947886 1 0 0 I I #
point $-1 -25.814255368570713 -37.004172306910277 2.6308714560947886 #
point $-1 -18.585927848368669 -24.830612660718064 2.6795704664913389 #
End-of-ACIS-data 