500 0 11 0           
7 Unknown 11 ACIS 5.0 NT 24 Thu Mar 25 21:24:13 1999 
-1 9.9999999999999995e-007 1e-010 
body $-1 $11 $-1 $12 #
body $-1 $13 $-1 $14 #
body $-1 $15 $-1 $16 #
body $-1 $17 $-1 $18 #
body $-1 $19 $-1 $20 #
body $-1 $21 $-1 $22 #
body $-1 $23 $-1 $24 #
body $-1 $25 $-1 $26 #
body $-1 $27 $-1 $28 #
body $-1 $29 $-1 $30 #
body $-1 $31 $-1 $32 #
lump $-1 $-1 $33 $0 #
transform $-1 1 0 0 0 1 0 0 0 1 68.547013763847772 28.273577374306718 12.361266357885773 1 rotate no_reflect no_shear #
lump $-1 $-1 $34 $1 #
transform $-1 1 0 0 0 1 0 0 0 1 68.547013763847772 28.273577374306718 12.361266357885773 1 rotate no_reflect no_shear #
lump $-1 $-1 $35 $2 #
transform $-1 1 0 0 0 1 0 0 0 1 68.547013763847772 28.273577374306718 12.361266357885773 1 rotate no_reflect no_shear #
lump $-1 $-1 $36 $3 #
transform $-1 1 0 0 0 1 0 0 0 1 68.547013763847772 28.273577374306718 12.361266357885773 1 rotate no_reflect no_shear #
lump $-1 $-1 $37 $4 #
transform $-1 1 0 0 0 1 0 0 0 1 68.547013763847772 28.273577374306718 12.361266357885773 1 rotate no_reflect no_shear #
lump $-1 $-1 $38 $5 #
transform $-1 1 0 0 0 1 0 0 0 1 68.547013763847772 28.273577374306718 12.361266357885773 1 rotate no_reflect no_shear #
lump $-1 $-1 $39 $6 #
transform $-1 1 0 0 0 1 0 0 0 1 68.547013763847772 28.273577374306718 12.361266357885773 1 rotate no_reflect no_shear #
lump $-1 $-1 $40 $7 #
transform $-1 1 0 0 0 1 0 0 0 1 68.547013763847772 28.273577374306718 12.361266357885773 1 rotate no_reflect no_shear #
lump $-1 $-1 $41 $8 #
transform $-1 1 0 0 0 1 0 0 0 1 68.547013763847772 28.273577374306718 12.361266357885773 1 rotate no_reflect no_shear #
lump $-1 $-1 $42 $9 #
transform $-1 1 0 0 0 1 0 0 0 1 68.547013763847772 28.273577374306718 12.361266357885773 1 rotate no_reflect no_shear #
lump $-1 $-1 $43 $10 #
transform $-1 1 0 0 0 1 0 0 0 1 68.547013763847772 28.273577374306718 12.361266357885773 1 rotate no_reflect no_shear #
shell $-1 $-1 $-1 $44 $-1 $11 #
shell $-1 $-1 $-1 $45 $-1 $13 #
shell $-1 $-1 $-1 $46 $-1 $15 #
shell $-1 $-1 $-1 $47 $-1 $17 #
shell $-1 $-1 $-1 $48 $-1 $19 #
shell $-1 $-1 $-1 $49 $-1 $21 #
shell $-1 $-1 $-1 $50 $-1 $23 #
shell $-1 $-1 $-1 $51 $-1 $25 #
shell $-1 $-1 $-1 $52 $-1 $27 #
shell $-1 $-1 $-1 $53 $-1 $29 #
shell $-1 $-1 $-1 $54 $-1 $31 #
face $-1 $55 $56 $33 $-1 $57 forward single #
face $-1 $58 $59 $34 $-1 $60 reversed single #
face $-1 $61 $62 $35 $-1 $63 reversed single #
face $-1 $64 $65 $36 $-1 $66 forward single #
face $-1 $67 $68 $37 $-1 $69 forward single #
face $-1 $70 $71 $38 $-1 $72 reversed single #
face $-1 $73 $74 $39 $-1 $75 forward single #
face $-1 $76 $77 $40 $-1 $78 forward single #
face $-1 $79 $80 $41 $-1 $81 reversed single #
face $-1 $82 $83 $42 $-1 $84 forward single #
face $-1 $85 $86 $43 $-1 $87 forward single #
face $-1 $88 $89 $33 $-1 $90 reversed single #
loop $-1 $-1 $91 $44 #
plane-surface $-1 0 0 12.361266357885773 0 0 1 1 0 0 forward_v I I I I #
face $-1 $92 $93 $34 $-1 $94 reversed single #
loop $-1 $-1 $95 $45 #
plane-surface $-1 0 -23.484383595810193 6.797394993222726 0 0 1 1 0 0 forward_v I I I I #
face $-1 $96 $97 $35 $-1 $98 reversed single #
loop $-1 $-1 $99 $46 #
plane-surface $-1 78.693923553309318 -0.00094632672360539516 199.64062596666116 0 -1 0 -0.74314483375859142 0 -0.66913059716165679 forward_v I I I I #
face $-1 $100 $101 $36 $-1 $102 forward single #
loop $-1 $103 $104 $47 #
cone-surface $-1 64.963614048421519 -8.2238802810879719 8.5352220672531782 -0.74314483375859142 0 -0.66913059716165679 0.66913059716165679 0 -0.74314483375859142 1 I I 0 1 1 forward I I I I #
face $-1 $105 $106 $37 $-1 $107 forward single #
loop $-1 $108 $109 $48 #
cone-surface $-1 64.963614048421519 -3.2901199084693538 8.5352220672531782 -0.74314483375859142 0 -0.66913059716165679 0.66913059716165679 0 -0.74314483375859142 1 I I 0 1 1 forward I I I I #
face $-1 $110 $111 $38 $-1 $112 reversed single #
loop $-1 $-1 $113 $49 #
plane-surface $-1 -68.547013763847758 -15.569014760259567 0.40511110859955579 -0.62932039886446345 0 0.77714595512881146 0.77714595512881146 0 0.62932039886446345 forward_v I I I I #
face $-1 $114 $115 $39 $-1 $116 forward single #
loop $-1 $117 $118 $50 #
cone-surface $-1 -60.598689972182186 -16.90880407042561 5.6842210475493706 0.62932039886446345 0 -0.77714595512881146 0.38857297756440573 0 0.31466019943223172 1 I I 0 1 0.5 forward I I I I #
face $-1 $119 $120 $40 $-1 $121 forward single #
loop $-1 $122 $123 $51 #
cone-surface $-1 -60.598689972182186 -14.229225450093525 5.6842210475493706 0.62932039886446345 0 -0.77714595512881146 0.38857297756440573 0 0.31466019943223172 1 I I 0 1 0.5 forward I I I I #
face $-1 $124 $125 $41 $-1 $126 reversed single #
loop $-1 $-1 $127 $52 #
plane-surface $-1 -154.82308184951285 22.021227260198522 106.94718007406608 0 1 0 -0.62932039886446345 0 0.77714595512881146 forward_v I I I I #
face $-1 $128 $129 $42 $-1 $130 forward single #
loop $-1 $131 $132 $53 #
cone-surface $-1 -60.598689972182186 23.80761300708658 5.6842210475493706 0.62932039886446345 0 -0.77714595512881146 0.38857297756440573 0 0.31466019943223172 1 I I 0 1 0.5 forward I I I I #
face $-1 $133 $134 $43 $-1 $135 forward single #
loop $-1 $136 $137 $54 #
cone-surface $-1 -60.598689972182186 26.487191627418667 5.6842210475493706 0.62932039886446345 0 -0.77714595512881146 0.38857297756440573 0 0.31466019943223172 1 I I 0 1 0.5 forward I I I I #
face $-1 $138 $139 $33 $-1 $140 reversed single #
loop $-1 $-1 $141 $55 #
plane-surface $-1 0 0 -12.361266357885773 0 0 1 1 0 0 forward_v I I I I #
coedge $-1 $142 $143 $144 $145 forward $56 $-1 #
face $-1 $146 $147 $34 $-1 $148 reversed single #
loop $-1 $-1 $149 $58 #
plane-surface $-1 0 -18.695189817313668 9.5793306755542513 0 -1 0 0 0 -1 forward_v I I I I #
coedge $-1 $150 $151 $152 $153 reversed $59 $-1 #
face $-1 $154 $155 $35 $-1 $156 reversed single #
loop $-1 $-1 $157 $61 #
plane-surface $-1 -23.186794743055742 -5.757000094778661 107.90681745975763 0.74314483375859142 0 0.66913059716165679 0.66913059716165679 0 -0.74314483375859142 forward_v I I I I #
coedge $-1 $158 $159 $160 $161 reversed $62 $-1 #
face $-1 $-1 $162 $36 $-1 $163 forward single #
loop $-1 $164 $165 $64 #
cone-surface $-1 63.860746926743829 -8.2238802810879719 7.5421960752863502 -0.74314483375859142 0 -0.66913059716165679 0.3345652985808284 0 -0.37157241687929571 1 I I -0.70710678118654746 0.70710678118654746 0.5 forward I I I I #
loop $-1 $-1 $166 $47 #
coedge $-1 $104 $104 $167 $168 reversed $65 $-1 #
face $-1 $-1 $169 $37 $-1 $170 forward single #
loop $-1 $171 $172 $67 #
cone-surface $-1 63.860746926743829 -3.2901199084693538 7.5421960752863502 -0.74314483375859142 0 -0.66913059716165679 0.3345652985808284 0 -0.37157241687929571 1 I I -0.70710678118654746 0.70710678118654746 0.5 forward I I I I #
loop $-1 $-1 $173 $48 #
coedge $-1 $109 $109 $174 $175 reversed $68 $-1 #
face $-1 $176 $177 $38 $-1 $178 forward single #
loop $-1 $-1 $179 $70 #
plane-surface $-1 -154.82308184951285 -12.442839703205468 106.94718007406608 0 -1 0 0.62932039886446345 0 -0.77714595512881146 forward_v I I I I #
coedge $-1 $180 $181 $182 $183 reversed $71 $-1 #
face $-1 $-1 $184 $39 $-1 $185 forward single #
loop $-1 $186 $187 $73 #
cone-surface $-1 -59.875346989234927 -16.90880407042561 4.7909668730738648 0.62932039886446345 0 -0.77714595512881146 0.19428648878220287 0 0.15733009971611586 1 I I -0.70710678118654746 0.70710678118654746 0.25 forward I I I I #
loop $-1 $-1 $188 $50 #
coedge $-1 $118 $118 $189 $190 reversed $74 $-1 #
face $-1 $-1 $191 $40 $-1 $192 forward single #
loop $-1 $193 $194 $76 #
cone-surface $-1 -59.875346989234927 -14.229225450093525 4.7909668730738648 0.62932039886446345 0 -0.77714595512881146 0.19428648878220287 0 0.15733009971611586 1 I I -0.70710678118654746 0.70710678118654746 0.25 forward I I I I #
loop $-1 $-1 $195 $51 #
coedge $-1 $123 $123 $196 $197 reversed $77 $-1 #
face $-1 $198 $199 $41 $-1 $200 forward single #
loop $-1 $-1 $201 $79 #
plane-surface $-1 -68.547013763847758 25.14740231725262 0.40511110859955579 -0.62932039886446345 0 0.77714595512881146 0.77714595512881146 0 0.62932039886446345 forward_v I I I I #
coedge $-1 $202 $203 $204 $205 reversed $80 $-1 #
face $-1 $-1 $206 $42 $-1 $207 forward single #
loop $-1 $208 $209 $82 #
cone-surface $-1 -59.875346989234927 23.80761300708658 4.7909668730738648 0.62932039886446345 0 -0.77714595512881146 0.19428648878220287 0 0.15733009971611586 1 I I -0.70710678118654746 0.70710678118654746 0.25 forward I I I I #
loop $-1 $-1 $210 $53 #
coedge $-1 $132 $132 $211 $212 reversed $83 $-1 #
face $-1 $-1 $213 $43 $-1 $214 forward single #
loop $-1 $215 $216 $85 #
cone-surface $-1 -59.875346989234927 26.487191627418667 4.7909668730738648 0.62932039886446345 0 -0.77714595512881146 0.19428648878220287 0 0.15733009971611586 1 I I -0.70710678118654746 0.70710678118654746 0.25 forward I I I I #
loop $-1 $-1 $217 $54 #
coedge $-1 $137 $137 $218 $219 reversed $86 $-1 #
face $-1 $220 $221 $33 $-1 $222 reversed single #
loop $-1 $-1 $223 $88 #
plane-surface $-1 0 -28.273577374306718 0 0 1 0 0 0 1 forward_v I I I I #
coedge $-1 $224 $225 $226 $227 forward $89 $-1 #
coedge $-1 $228 $91 $229 $230 forward $56 $-1 #
coedge $-1 $91 $228 $231 $232 forward $56 $-1 #
coedge $-1 $233 $234 $91 $145 reversed $235 $-1 #
edge $-1 $236 -28.273577374306718 $237 28.273577374306718 $144 $238 forward 7 unknown #
face $-1 $239 $240 $34 $-1 $241 reversed single #
loop $-1 $-1 $242 $92 #
plane-surface $-1 -68.547013763847772 0 0 1 0 0 0 0 -1 forward_v I I I I #
coedge $-1 $243 $244 $245 $246 reversed $93 $-1 #
coedge $-1 $247 $95 $248 $249 reversed $59 $-1 #
coedge $-1 $95 $247 $243 $250 forward $59 $-1 #
coedge $-1 $245 $251 $95 $153 forward $252 $-1 #
edge $-1 $253 -16.531385576401622 $254 -6.9529980194085717 $152 $255 forward 7 unknown #
face $-1 $256 $257 $35 $-1 $258 reversed single #
loop $-1 $-1 $259 $96 #
plane-surface $-1 78.693923553309318 -11.513053862833717 199.64062596666116 0 1 0 0.74314483375859142 0 0.66913059716165679 forward_v I I I I #
coedge $-1 $260 $261 $262 $263 reversed $97 $-1 #
coedge $-1 $159 $99 $264 $265 reversed $62 $-1 #
coedge $-1 $99 $158 $260 $266 reversed $62 $-1 #
coedge $-1 $262 $267 $99 $161 forward $268 $-1 #
edge $-1 $269 -29.200051987193113 $270 -23.495841965937423 $160 $271 forward 7 unknown #
loop $-1 $-1 $167 $100 #
plane-surface $-1 -23.186794743055742 -5.757000094778661 107.90681745975763 0.74314483375859142 0 0.66913059716165679 0.66913059716165679 0 -0.74314483375859142 forward_v I I I I #
loop $-1 $-1 $272 $64 #
coedge $-1 $165 $165 $166 $273 reversed $101 $-1 #
coedge $-1 $166 $166 $165 $273 forward $103 $-1 #
coedge $-1 $167 $167 $104 $168 forward $162 $-1 #
edge $-1 $274 0 $274 6.2831853071796004 $167 $275 forward 7 unknown #
loop $-1 $-1 $174 $105 #
plane-surface $-1 -23.186794743055742 -5.757000094778661 107.90681745975763 0.74314483375859142 0 0.66913059716165679 0.66913059716165679 0 -0.74314483375859142 forward_v I I I I #
loop $-1 $-1 $276 $67 #
coedge $-1 $172 $172 $173 $277 reversed $106 $-1 #
coedge $-1 $173 $173 $172 $277 forward $108 $-1 #
coedge $-1 $174 $174 $109 $175 forward $169 $-1 #
edge $-1 $278 0 $278 6.2831853071796004 $174 $279 forward 7 unknown #
face $-1 $280 $281 $38 $-1 $282 reversed single #
loop $-1 $-1 $182 $110 #
plane-surface $-1 0 0 12.361266357885773 0 0 1 1 0 0 forward_v I I I I #
coedge $-1 $283 $284 $285 $286 reversed $111 $-1 #
coedge $-1 $287 $113 $288 $289 reversed $71 $-1 #
coedge $-1 $113 $287 $283 $290 forward $71 $-1 #
coedge $-1 $285 $291 $113 $183 forward $177 $-1 #
edge $-1 $292 -10.910682437183882 $293 -4.658332323075685 $182 $294 forward 7 unknown #
loop $-1 $-1 $189 $114 #
plane-surface $-1 -68.547013763847758 -15.569014760259567 0.40511110859955579 -0.62932039886446345 0 0.77714595512881146 0.77714595512881146 0 0.62932039886446345 forward_v I I I I #
loop $-1 $-1 $295 $73 #
coedge $-1 $187 $187 $188 $296 reversed $115 $-1 #
coedge $-1 $188 $188 $187 $296 forward $117 $-1 #
coedge $-1 $189 $189 $118 $190 forward $184 $-1 #
edge $-1 $297 0 $297 6.2831853071796004 $189 $298 forward 7 unknown #
loop $-1 $-1 $196 $119 #
plane-surface $-1 -68.547013763847758 -15.569014760259567 0.40511110859955579 -0.62932039886446345 0 0.77714595512881146 0.77714595512881146 0 0.62932039886446345 forward_v I I I I #
loop $-1 $-1 $299 $76 #
coedge $-1 $194 $194 $195 $300 reversed $120 $-1 #
coedge $-1 $195 $195 $194 $300 forward $122 $-1 #
coedge $-1 $196 $196 $123 $197 forward $191 $-1 #
edge $-1 $301 0 $301 6.2831853071796004 $196 $302 forward 7 unknown #
face $-1 $303 $304 $41 $-1 $305 reversed single #
loop $-1 $-1 $204 $124 #
plane-surface $-1 0 0 12.361266357885773 0 0 1 1 0 0 forward_v I I I I #
coedge $-1 $306 $307 $308 $309 reversed $125 $-1 #
coedge $-1 $203 $127 $310 $311 reversed $80 $-1 #
coedge $-1 $127 $202 $306 $312 reversed $80 $-1 #
coedge $-1 $308 $313 $127 $205 forward $199 $-1 #
edge $-1 $314 8.8645271609086507 $315 23.629148977777561 $204 $316 forward 7 unknown #
loop $-1 $-1 $211 $128 #
plane-surface $-1 -68.547013763847758 25.14740231725262 0.40511110859955579 -0.62932039886446345 0 0.77714595512881146 0.77714595512881146 0 0.62932039886446345 forward_v I I I I #
loop $-1 $-1 $317 $82 #
coedge $-1 $209 $209 $210 $318 reversed $129 $-1 #
coedge $-1 $210 $210 $209 $318 forward $131 $-1 #
coedge $-1 $211 $211 $132 $212 forward $206 $-1 #
edge $-1 $319 0 $319 6.2831853071796004 $211 $320 forward 7 unknown #
loop $-1 $-1 $218 $133 #
plane-surface $-1 -68.547013763847758 25.14740231725262 0.40511110859955579 -0.62932039886446345 0 0.77714595512881146 0.77714595512881146 0 0.62932039886446345 forward_v I I I I #
loop $-1 $-1 $321 $85 #
coedge $-1 $216 $216 $217 $322 reversed $134 $-1 #
coedge $-1 $217 $217 $216 $322 forward $136 $-1 #
coedge $-1 $218 $218 $137 $219 forward $213 $-1 #
edge $-1 $323 0 $323 6.2831853071796004 $218 $324 forward 7 unknown #
face $-1 $325 $326 $33 $-1 $327 reversed single #
loop $-1 $-1 $328 $138 #
plane-surface $-1 -68.547013763847772 0 0 1 0 0 0 0 -1 forward_v I I I I #
coedge $-1 $329 $231 $330 $331 forward $139 $-1 #
coedge $-1 $332 $141 $329 $333 forward $89 $-1 #
coedge $-1 $141 $332 $334 $335 forward $89 $-1 #
coedge $-1 $234 $233 $141 $227 reversed $235 $-1 #
edge $-1 $336 -28.273577374306718 $337 28.273577374306718 $226 $338 forward 7 unknown #
coedge $-1 $143 $142 $339 $340 forward $56 $-1 #
coedge $-1 $341 $342 $142 $230 reversed $326 $-1 #
edge $-1 $237 -68.547013763847772 $343 68.547013763847772 $229 $344 forward 7 unknown #
coedge $-1 $223 $345 $143 $232 reversed $139 $-1 #
edge $-1 $346 -68.547013763847772 $236 68.547013763847772 $231 $347 forward 7 unknown #
coedge $-1 $226 $144 $345 $348 forward $235 $-1 #
coedge $-1 $144 $226 $341 $349 reversed $235 $-1 #
loop $-1 $-1 $233 $325 #
vertex $-1 $145 $350 #
vertex $-1 $145 $351 #
straight-curve $-1 68.547013763847772 0 12.361266357885773 0 1 0 I I #
face $-1 $352 $353 $34 $-1 $354 forward single #
loop $-1 $-1 $248 $146 #
plane-surface $-1 0 -28.273577374306718 0 0 1 0 0 0 1 forward_v I I I I #
coedge $-1 $355 $356 $357 $358 forward $147 $-1 #
coedge $-1 $357 $149 $151 $250 reversed $93 $-1 #
coedge $-1 $149 $357 $359 $360 reversed $93 $-1 #
coedge $-1 $361 $152 $149 $246 forward $252 $-1 #
edge $-1 $254 2.0077296554456003 $362 7.571601020108651 $245 $363 forward 7 unknown #
coedge $-1 $151 $150 $355 $364 reversed $59 $-1 #
coedge $-1 $365 $366 $150 $249 forward $240 $-1 #
edge $-1 $367 -68.547013763847772 $253 68.547013763847772 $248 $368 forward 7 unknown #
edge $-1 $369 -68.547013763847772 $254 68.547013763847772 $243 $370 forward 7 unknown #
coedge $-1 $152 $361 $365 $371 forward $252 $-1 #
loop $-1 $-1 $245 $352 #
vertex $-1 $249 $372 #
vertex $-1 $153 $373 #
straight-curve $-1 68.547013763847772 -11.742191797905097 6.797394993222726 0 1 0 I I #
face $-1 $-1 $268 $35 $-1 $374 forward single #
loop $-1 $-1 $375 $154 #
plane-surface $-1 68.547013763847772 0 0 -1 0 0 0 0 1 forward_v I I I I #
coedge $-1 $376 $377 $378 $379 reversed $155 $-1 #
coedge $-1 $380 $157 $159 $266 forward $97 $-1 #
coedge $-1 $157 $380 $376 $381 forward $97 $-1 #
coedge $-1 $378 $160 $157 $263 forward $268 $-1 #
edge $-1 $270 -2.8775537206657251 $382 8.6345538154443862 $262 $383 forward 7 unknown #
coedge $-1 $384 $385 $158 $265 forward $257 $-1 #
edge $-1 $386 -93.794213819937994 $269 -87.459046625444813 $264 $387 forward 7 unknown #
edge $-1 $270 128.56921929825268 $386 137.09402752769552 $159 $388 forward 7 unknown #
coedge $-1 $160 $378 $384 $389 forward $268 $-1 #
loop $-1 $-1 $378 $256 #
vertex $-1 $265 $390 #
vertex $-1 $161 $391 #
straight-curve $-1 39.346961776654659 -0.00094632672360539516 12.361266357885768 -1 0 0 I I #
coedge $-1 $272 $272 $-1 $392 reversed $164 $-1 #
edge $-1 $393 0 $393 6.2831853071796004 $165 $394 forward 7 unknown #
vertex $-1 $168 $395 #
ellipse-curve $-1 65.69490875321992 -8.2238802810879719 9.193682760639188 0.74314483375859142 0 0.66913059716165679 0.66913059716165679 0 -0.74314483375859142 1 I I #
coedge $-1 $276 $276 $-1 $396 reversed $171 $-1 #
edge $-1 $397 0 $397 6.2831853071796004 $172 $398 forward 7 unknown #
vertex $-1 $175 $399 #
ellipse-curve $-1 65.69490875321992 -3.2901199084693538 9.193682760639188 0.74314483375859142 0 0.66913059716165679 0.66913059716165679 0 -0.74314483375859142 1 I I #
face $-1 $-1 $400 $38 $-1 $401 forward single #
loop $-1 $-1 $402 $176 #
plane-surface $-1 -68.547013763847772 0 0 1 0 0 0 0 -1 forward_v I I I I #
coedge $-1 $284 $179 $181 $290 reversed $111 $-1 #
coedge $-1 $179 $283 $402 $403 reversed $111 $-1 #
coedge $-1 $404 $182 $179 $286 forward $177 $-1 #
edge $-1 $293 -23.629148977777561 $405 -8.8645271609086507 $285 $406 forward 7 unknown #
coedge $-1 $181 $180 $407 $408 reversed $71 $-1 #
coedge $-1 $409 $410 $180 $289 forward $400 $-1 #
edge $-1 $411 -29.52227899993969 $292 -10.523760485587154 $288 $412 forward 7 unknown #
edge $-1 $413 -1.8275308326538544e-014 $293 18.998518514352519 $283 $414 forward 7 unknown #
coedge $-1 $182 $404 $409 $415 forward $177 $-1 #
vertex $-1 $289 $416 #
vertex $-1 $183 $417 #
straight-curve $-1 -53.782391946978869 -7.7845073801297833 12.361266357885771 0 1 0 I I #
coedge $-1 $295 $295 $-1 $418 reversed $186 $-1 #
edge $-1 $419 0 $419 6.2831853071796004 $187 $420 forward 7 unknown #
vertex $-1 $190 $421 #
ellipse-curve $-1 -61.164702855413317 -16.90880407042561 6.3831887332426591 -0.62932039886446345 0 0.77714595512881146 0.38857297756440573 0 0.31466019943223172 1 I I #
coedge $-1 $299 $299 $-1 $422 reversed $193 $-1 #
edge $-1 $423 0 $423 6.2831853071796004 $194 $424 forward 7 unknown #
vertex $-1 $197 $425 #
ellipse-curve $-1 -61.164702855413317 -14.229225450093525 6.3831887332426591 -0.62932039886446345 0 0.77714595512881146 0.38857297756440573 0 0.31466019943223172 1 I I #
face $-1 $-1 $426 $41 $-1 $427 reversed single #
loop $-1 $-1 $428 $198 #
plane-surface $-1 0 28.273577374306718 0 0 -1 0 0 0 -1 forward_v I I I I #
coedge $-1 $429 $201 $203 $312 forward $125 $-1 #
coedge $-1 $201 $429 $428 $430 reversed $125 $-1 #
coedge $-1 $431 $204 $201 $309 forward $199 $-1 #
edge $-1 $315 9.4475261015722118 $432 15.699876215680408 $308 $433 forward 7 unknown #
coedge $-1 $434 $435 $202 $311 forward $426 $-1 #
edge $-1 $436 -53.0684789284335 $314 -41.112323679147266 $310 $437 forward 7 unknown #
edge $-1 $315 -18.998518514352519 $436 1.8275308326538544e-014 $203 $438 forward 7 unknown #
coedge $-1 $204 $431 $434 $439 forward $199 $-1 #
vertex $-1 $311 $440 #
vertex $-1 $205 $441 #
straight-curve $-1 -77.411540924756423 22.021227260198522 12.361266357885775 1 0 0 I I #
coedge $-1 $317 $317 $-1 $442 reversed $208 $-1 #
edge $-1 $443 0 $443 6.2831853071796004 $209 $444 forward 7 unknown #
vertex $-1 $212 $445 #
ellipse-curve $-1 -61.164702855413317 23.80761300708658 6.3831887332426591 -0.62932039886446345 0 0.77714595512881146 0.38857297756440573 0 0.31466019943223172 1 I I #
coedge $-1 $321 $321 $-1 $446 reversed $215 $-1 #
edge $-1 $447 0 $447 6.2831853071796004 $216 $448 forward 7 unknown #
vertex $-1 $219 $449 #
ellipse-curve $-1 -61.164702855413317 26.487191627418667 6.3831887332426591 -0.62932039886446345 0 0.77714595512881146 0.38857297756440573 0 0.31466019943223172 1 I I #
face $-1 $-1 $235 $33 $-1 $450 reversed single #
loop $-1 $-1 $341 $220 #
plane-surface $-1 0 28.273577374306718 0 0 -1 0 0 0 -1 forward_v I I I I #
coedge $-1 $451 $339 $342 $452 forward $221 $-1 #
coedge $-1 $345 $223 $224 $333 reversed $139 $-1 #
coedge $-1 $339 $451 $223 $331 reversed $221 $-1 #
edge $-1 $346 -12.361266357885773 $453 12.361266357885773 $330 $454 forward 7 unknown #
coedge $-1 $225 $224 $451 $455 forward $89 $-1 #
edge $-1 $337 -68.547013763847772 $453 68.547013763847772 $329 $456 forward 7 unknown #
coedge $-1 $342 $341 $225 $335 reversed $326 $-1 #
edge $-1 $457 -68.547013763847772 $336 68.547013763847772 $334 $458 forward 7 unknown #
vertex $-1 $227 $459 #
vertex $-1 $348 $460 #
straight-curve $-1 68.547013763847772 0 -12.361266357885773 0 -1 0 I I #
coedge $-1 $328 $330 $228 $340 reversed $221 $-1 #
edge $-1 $343 -28.273577374306718 $346 28.273577374306718 $339 $461 forward 7 unknown #
coedge $-1 $334 $229 $234 $349 forward $326 $-1 #
coedge $-1 $229 $334 $328 $452 reversed $326 $-1 #
vertex $-1 $230 $462 #
straight-curve $-1 0 28.273577374306718 12.361266357885773 -1 0 0 I I #
coedge $-1 $231 $329 $233 $348 reversed $139 $-1 #
vertex $-1 $340 $463 #
straight-curve $-1 0 -28.273577374306718 12.361266357885773 1 0 0 I I #
edge $-1 $236 -12.361266357885773 $337 12.361266357885773 $233 $464 forward 7 unknown #
edge $-1 $237 -12.361266357885773 $336 12.361266357885773 $234 $465 forward 7 unknown #
point $-1 68.547013763847772 -28.273577374306718 12.361266357885773 #
point $-1 68.547013763847772 28.273577374306718 12.361266357885773 #
face $-1 $-1 $252 $34 $-1 $466 reversed single #
loop $-1 $-1 $359 $239 #
plane-surface $-1 0 0 12.361266357885773 0 0 1 1 0 0 forward_v I I I I #
coedge $-1 $467 $242 $247 $364 forward $147 $-1 #
coedge $-1 $242 $467 $468 $469 reversed $147 $-1 #
coedge $-1 $244 $243 $242 $358 reversed $93 $-1 #
edge $-1 $470 -7.571601020108651 $369 -2.0077296554456003 $242 $471 forward 7 unknown #
coedge $-1 $468 $472 $244 $360 forward $353 $-1 #
edge $-1 $362 -68.547013763847772 $470 68.547013763847772 $359 $473 forward 7 unknown #
coedge $-1 $251 $245 $472 $474 reversed $252 $-1 #
vertex $-1 $246 $475 #
straight-curve $-1 68.547013763847772 -18.695189817313668 4.7896653377771257 0 0 1 I I #
edge $-1 $369 6.9529980194085717 $367 16.531385576401622 $355 $476 forward 7 unknown #
coedge $-1 $477 $248 $251 $371 reversed $240 $-1 #
coedge $-1 $248 $477 $467 $478 forward $240 $-1 #
vertex $-1 $249 $479 #
straight-curve $-1 0 -28.273577374306718 6.797394993222726 1 0 0 I I #
vertex $-1 $364 $480 #
straight-curve $-1 0 -18.695189817313668 6.797394993222726 1 0 0 I I #
edge $-1 $481 -12.361266357885773 $253 -6.797394993222726 $251 $482 forward 7 unknown #
point $-1 68.547013763847772 -28.273577374306718 6.797394993222726 #
point $-1 68.547013763847772 -18.695189817313668 6.797394993222726 #
plane-surface $-1 0 0 12.361266357885773 0 0 1 1 0 0 forward_v I I I I #
coedge $-1 $385 $384 $377 $483 forward $257 $-1 #
coedge $-1 $377 $259 $261 $381 reversed $155 $-1 #
coedge $-1 $259 $376 $375 $483 reversed $155 $-1 #
coedge $-1 $267 $262 $259 $379 forward $268 $-1 #
edge $-1 $382 23.495841965937423 $484 29.200051987193113 $378 $485 forward 7 unknown #
coedge $-1 $261 $260 $385 $486 reversed $97 $-1 #
edge $-1 $487 -137.09402752769552 $382 -128.56921929825268 $376 $488 forward 7 unknown #
vertex $-1 $263 $489 #
straight-curve $-1 62.842803742592061 -2.8785000473893305 12.361266357885768 0 -1 0 I I #
coedge $-1 $375 $264 $267 $389 reversed $257 $-1 #
coedge $-1 $264 $375 $380 $486 forward $257 $-1 #
vertex $-1 $265 $490 #
straight-curve $-1 68.547013763847772 -0.00094632672360539516 99.820312983330581 0 0 1 I I #
straight-curve $-1 -23.186794743055742 -0.00094632672360539516 107.90681745975763 0.66913059716165679 0 -0.74314483375859142 I I #
edge $-1 $484 -11.513053862833717 $269 -0.00094632672360539516 $384 $491 forward 7 unknown #
point $-1 68.547013763847772 -0.00094632672360539516 12.361266357885773 #
point $-1 62.842803742592082 -0.00094632672360539516 12.361266357885768 #
edge $-1 $492 1 $492 0 $272 $-1 forward 7 unknown #
vertex $-1 $273 $493 #
ellipse-curve $-1 64.232319343623118 -8.2238802810879719 7.8767613738671782 0.74314483375859142 0 0.66913059716165679 0.66913059716165679 0 -0.74314483375859142 1 I I #
point $-1 66.36403935038156 -8.2238802810879719 8.4505379268805871 #
edge $-1 $494 1 $494 0 $276 $-1 forward 7 unknown #
vertex $-1 $277 $495 #
ellipse-curve $-1 64.232319343623118 -3.2901199084693538 7.8767613738671782 0.74314483375859142 0 0.66913059716165679 0.66913059716165679 0 -0.74314483375859142 1 I I #
point $-1 66.36403935038156 -3.2901199084693538 8.4505379268805871 #
loop $-1 $-1 $288 $280 #
plane-surface $-1 0 -18.695189817313668 9.5793306755542513 0 -1 0 0 0 -1 forward_v I I I I #
coedge $-1 $407 $496 $284 $403 forward $281 $-1 #
edge $-1 $405 41.112323679147266 $413 53.0684789284335 $402 $497 forward 7 unknown #
coedge $-1 $291 $285 $496 $498 forward $177 $-1 #
vertex $-1 $498 $499 #
straight-curve $-1 -77.411540924756423 -12.442839703205468 12.361266357885775 -1 0 0 I I #
coedge $-1 $500 $402 $287 $408 forward $281 $-1 #
edge $-1 $413 4.658332323075685 $411 10.910682437183882 $407 $501 forward 7 unknown #
coedge $-1 $410 $288 $291 $415 reversed $400 $-1 #
coedge $-1 $288 $409 $500 $502 reversed $400 $-1 #
vertex $-1 $502 $503 #
straight-curve $-1 -45.60389405286039 -18.695189817313668 18.984083504229563 0.77714595512881146 0 0.62932039886446345 I I #
vertex $-1 $408 $504 #
straight-curve $-1 -68.547013763847758 -12.442839703205468 0.40511110859955579 0.77714595512881146 0 0.62932039886446345 I I #
edge $-1 $505 -68.547013763847772 $292 -53.782391946978862 $291 $506 forward 7 unknown #
point $-1 -53.782391946978862 -18.695189817313665 12.361266357885775 #
point $-1 -53.782391946978862 -12.442839703205468 12.361266357885775 #
edge $-1 $507 1 $507 0 $295 $-1 forward 7 unknown #
vertex $-1 $296 $508 #
ellipse-curve $-1 -60.03267708895104 -16.90880407042561 4.9852533618560679 -0.62932039886446345 0 0.77714595512881146 0.38857297756440573 0 0.31466019943223172 1 I I #
point $-1 -60.776129877848923 -16.90880407042561 6.697848932674904 #
edge $-1 $509 1 $509 0 $299 $-1 forward 7 unknown #
vertex $-1 $300 $510 #
ellipse-curve $-1 -60.03267708895104 -14.229225450093525 4.9852533618560679 -0.62932039886446345 0 0.77714595512881146 0.38857297756440573 0 0.31466019943223172 1 I I #
point $-1 -60.776129877848923 -14.229225450093525 6.697848932674904 #
loop $-1 $-1 $310 $303 #
plane-surface $-1 -68.547013763847772 0 0 1 0 0 0 0 -1 forward_v I I I I #
coedge $-1 $511 $512 $307 $430 forward $304 $-1 #
coedge $-1 $307 $306 $435 $513 reversed $125 $-1 #
edge $-1 $432 7.5095263847899609 $514 26.508044899142497 $428 $515 forward 7 unknown #
coedge $-1 $313 $308 $512 $516 forward $199 $-1 #
vertex $-1 $516 $517 #
straight-curve $-1 -53.782391946978869 12.57370115862631 12.361266357885771 0 1 0 I I #
coedge $-1 $518 $310 $313 $439 reversed $426 $-1 #
coedge $-1 $310 $518 $429 $513 forward $426 $-1 #
vertex $-1 $311 $519 #
straight-curve $-1 -68.547013763847772 22.021227260198522 53.473590037033041 0 0 1 I I #
straight-curve $-1 -68.547013763847758 22.021227260198522 0.40511110859955579 -0.77714595512881146 0 -0.62932039886446345 I I #
edge $-1 $520 -28.273577374306718 $314 -22.021227260198522 $434 $521 forward 7 unknown #
point $-1 -68.547013763847772 22.021227260198522 12.361266357885773 #
point $-1 -53.782391946978862 22.021227260198522 12.361266357885775 #
edge $-1 $522 1 $522 0 $317 $-1 forward 7 unknown #
vertex $-1 $318 $523 #
ellipse-curve $-1 -60.03267708895104 23.80761300708658 4.9852533618560679 -0.62932039886446345 0 0.77714595512881146 0.38857297756440573 0 0.31466019943223172 1 I I #
point $-1 -60.776129877848923 23.80761300708658 6.697848932674904 #
edge $-1 $524 1 $524 0 $321 $-1 forward 7 unknown #
vertex $-1 $322 $525 #
ellipse-curve $-1 -60.03267708895104 26.487191627418667 4.9852533618560679 -0.62932039886446345 0 0.77714595512881146 0.38857297756440573 0 0.31466019943223172 1 I I #
point $-1 -60.776129877848923 26.487191627418667 6.697848932674904 #
plane-surface $-1 68.547013763847772 0 0 -1 0 0 0 0 1 forward_v I I I I #
coedge $-1 $330 $328 $332 $455 reversed $221 $-1 #
edge $-1 $343 -12.361266357885773 $457 12.361266357885773 $342 $526 forward 7 unknown #
vertex $-1 $455 $527 #
straight-curve $-1 -68.547013763847772 -28.273577374306718 0 0 0 -1 I I #
edge $-1 $453 -28.273577374306718 $457 28.273577374306718 $451 $528 forward 7 unknown #
straight-curve $-1 0 -28.273577374306718 -12.361266357885773 -1 0 0 I I #
vertex $-1 $335 $529 #
straight-curve $-1 0 28.273577374306718 -12.361266357885773 1 0 0 I I #
point $-1 68.547013763847772 28.273577374306718 -12.361266357885773 #
point $-1 68.547013763847772 -28.273577374306718 -12.361266357885773 #
straight-curve $-1 -68.547013763847772 0 12.361266357885773 0 -1 0 I I #
point $-1 -68.547013763847772 28.273577374306718 12.361266357885773 #
point $-1 -68.547013763847772 -28.273577374306718 12.361266357885773 #
straight-curve $-1 68.547013763847772 -28.273577374306718 0 0 0 -1 I I #
straight-curve $-1 68.547013763847772 28.273577374306718 0 0 0 -1 I I #
plane-surface $-1 68.547013763847772 0 0 -1 0 0 0 0 1 forward_v I I I I #
coedge $-1 $356 $355 $366 $478 reversed $147 $-1 #
coedge $-1 $530 $359 $356 $469 forward $353 $-1 #
edge $-1 $470 18.695189817313668 $531 28.273577374306718 $356 $532 forward 7 unknown #
vertex $-1 $469 $533 #
straight-curve $-1 -68.547013763847772 -18.695189817313668 4.7896653377771257 0 0 -1 I I #
coedge $-1 $359 $530 $361 $474 forward $353 $-1 #
straight-curve $-1 0 -18.695189817313668 12.361266357885773 -1 0 0 I I #
edge $-1 $481 -28.273577374306718 $362 -18.695189817313668 $361 $534 forward 7 unknown #
point $-1 68.547013763847772 -18.695189817313668 12.361266357885777 #
straight-curve $-1 -68.547013763847772 -11.742191797905097 6.797394993222726 0 -1 0 I I #
coedge $-1 $366 $365 $530 $535 reversed $240 $-1 #
edge $-1 $531 -12.361266357885773 $367 -6.797394993222726 $467 $536 forward 7 unknown #
point $-1 -68.547013763847772 -28.273577374306718 6.797394993222726 #
point $-1 -68.547013763847772 -18.695189817313668 6.797394993222726 #
vertex $-1 $474 $537 #
straight-curve $-1 68.547013763847772 -28.273577374306718 0 0 0 -1 I I #
edge $-1 $484 87.459046625444813 $487 93.794213819937994 $375 $538 forward 7 unknown #
vertex $-1 $389 $539 #
straight-curve $-1 39.346961776654659 -11.513053862833717 12.361266357885768 1 0 0 I I #
edge $-1 $487 -8.6345538154443862 $386 2.8775537206657251 $385 $540 forward 7 unknown #
vertex $-1 $486 $541 #
straight-curve $-1 -23.186794743055742 -11.513053862833717 107.90681745975763 -0.66913059716165679 0 0.74314483375859142 I I #
point $-1 62.842803742592082 -11.513053862833717 12.361266357885768 #
point $-1 68.547013763847772 -0.00094632672360539516 6.0260991633925869 #
straight-curve $-1 68.547013763847772 0 12.361266357885773 0 1 0 I I #
vertex $-1 $392 $542 #
point $-1 64.901449940784786 -8.2238802810879719 7.1336165401085871 #
vertex $-1 $396 $543 #
point $-1 64.901449940784786 -3.2901199084693538 7.1336165401085871 #
coedge $-1 $402 $500 $404 $498 reversed $281 $-1 #
straight-curve $-1 -68.547013763847772 -12.442839703205468 53.473590037033041 0 0 -1 I I #
edge $-1 $405 12.442839703205468 $505 18.695189817313668 $496 $544 forward 7 unknown #
point $-1 -68.547013763847772 -12.442839703205468 12.361266357885773 #
coedge $-1 $496 $407 $410 $502 forward $281 $-1 #
straight-curve $-1 -68.547013763847772 -7.7845073801297833 0.40511110859953287 0 -1 0 I I #
edge $-1 $411 -53.0684789284335 $505 -41.112323679147266 $500 $545 forward 7 unknown #
point $-1 -68.547013763847772 -18.695189817313665 0.4051111085995443 #
point $-1 -68.547013763847772 -12.442839703205468 0.4051111085995443 #
vertex $-1 $502 $546 #
straight-curve $-1 0 -18.695189817313668 12.361266357885773 1 0 0 I I #
vertex $-1 $418 $547 #
point $-1 -59.644104111386639 -16.90880407042561 5.2999135612882995 #
vertex $-1 $422 $548 #
point $-1 -59.644104111386639 -14.229225450093525 5.2999135612882995 #
coedge $-1 $512 $428 $518 $549 reversed $304 $-1 #
coedge $-1 $428 $511 $431 $516 reversed $304 $-1 #
edge $-1 $514 -15.699876215680408 $436 -9.4475261015722118 $435 $550 forward 7 unknown #
vertex $-1 $430 $551 #
straight-curve $-1 -47.946393892106258 28.273577374306718 17.087164497645006 -0.77714595512881146 0 -0.62932039886446345 I I #
edge $-1 $432 53.782391946978862 $520 68.547013763847772 $512 $552 forward 7 unknown #
point $-1 -53.782391946978862 28.273577374306718 12.361266357885775 #
coedge $-1 $435 $434 $511 $549 forward $426 $-1 #
point $-1 -68.547013763847772 22.021227260198522 0.4051111085995443 #
vertex $-1 $516 $553 #
straight-curve $-1 -68.547013763847772 0 12.361266357885773 0 -1 0 I I #
vertex $-1 $442 $554 #
point $-1 -59.644104111386639 23.80761300708658 5.2999135612882995 #
vertex $-1 $446 $555 #
point $-1 -59.644104111386639 26.487191627418667 5.2999135612882995 #
straight-curve $-1 -68.547013763847772 28.273577374306718 0 0 0 -1 I I #
point $-1 -68.547013763847772 -28.273577374306718 -12.361266357885773 #
straight-curve $-1 -68.547013763847772 0 -12.361266357885773 0 1 0 I I #
point $-1 -68.547013763847772 28.273577374306718 -12.361266357885773 #
coedge $-1 $472 $468 $477 $535 forward $353 $-1 #
vertex $-1 $469 $556 #
straight-curve $-1 -68.547013763847772 0 12.361266357885773 0 -1 0 I I #
point $-1 -68.547013763847772 -18.695189817313668 12.361266357885777 #
straight-curve $-1 68.547013763847772 0 12.361266357885773 0 1 0 I I #
edge $-1 $531 -68.547013763847772 $481 68.547013763847772 $477 $557 forward 7 unknown #
straight-curve $-1 -68.547013763847772 -28.273577374306718 0 0 0 -1 I I #
point $-1 68.547013763847772 -28.273577374306718 12.361266357885773 #
straight-curve $-1 68.547013763847772 -11.513053862833717 99.820312983330581 0 0 -1 I I #
point $-1 68.547013763847772 -11.513053862833717 12.361266357885773 #
straight-curve $-1 68.547013763847787 -2.8785000473893305 6.0260991633925869 0 1 0 I I #
point $-1 68.547013763847772 -11.513053862833717 6.0260991633925869 #
point $-1 63.489174509864533 -8.2238802810879719 7.2076307767055221 #
point $-1 63.489174509864533 -3.2901199084693538 7.2076307767055221 #
straight-curve $-1 -68.547013763847772 0 12.361266357885773 0 -1 0 I I #
straight-curve $-1 -68.547013763847772 -18.695189817313665 53.473590037033041 0 0 1 I I #
point $-1 -68.547013763847772 -18.695189817313668 12.361266357885777 #
point $-1 -59.718016889518815 -16.90880407042561 4.5966803842916617 #
point $-1 -59.718016889518815 -14.229225450093525 4.5966803842916617 #
edge $-1 $520 -12.361266357885773 $514 -0.4051111085995443 $511 $558 forward 7 unknown #
straight-curve $-1 -68.547013763847772 12.57370115862631 0.40511110859953287 0 -1 0 I I #
point $-1 -68.547013763847772 28.273577374306718 0.4051111085995443 #
straight-curve $-1 0 28.273577374306718 12.361266357885773 -1 0 0 I I #
point $-1 -68.547013763847772 28.273577374306718 12.361266357885773 #
point $-1 -59.718016889518815 23.80761300708658 4.5966803842916617 #
point $-1 -59.718016889518815 26.487191627418667 4.5966803842916617 #
point $-1 -68.547013763847772 -28.273577374306718 12.361266357885773 #
straight-curve $-1 0 -28.273577374306718 12.361266357885773 1 0 0 I I #
straight-curve $-1 -68.547013763847772 28.273577374306718 0 0 0 -1 I I #
End-of-ACIS-data 