500 0 8 0           
7 Unknown 11 ACIS 5.0 NT 24 Fri Mar 26 03:01:55 1999 
-1 9.9999999999999995e-007 1e-010 
body $-1 $8 $-1 $9 #
body $-1 $10 $-1 $11 #
body $-1 $12 $-1 $13 #
body $-1 $14 $-1 $15 #
body $-1 $16 $-1 $17 #
body $-1 $18 $-1 $19 #
body $-1 $20 $-1 $21 #
body $-1 $22 $-1 $23 #
lump $-1 $-1 $24 $0 #
transform $-1 1 0 0 0 1 0 0 0 1 40.555436872463147 23.529876580891877 4.812828114275141 1 rotate no_reflect no_shear #
lump $-1 $-1 $25 $1 #
transform $-1 1 0 0 0 1 0 0 0 1 40.555436872463147 23.529876580891877 4.812828114275141 1 rotate no_reflect no_shear #
lump $-1 $-1 $26 $2 #
transform $-1 1 0 0 0 1 0 0 0 1 40.555436872463147 23.529876580891877 4.812828114275141 1 rotate no_reflect no_shear #
lump $-1 $-1 $27 $3 #
transform $-1 1 0 0 0 1 0 0 0 1 40.555436872463147 23.529876580891877 4.812828114275141 1 rotate no_reflect no_shear #
lump $-1 $-1 $28 $4 #
transform $-1 1 0 0 0 1 0 0 0 1 40.555436872463147 23.529876580891877 4.812828114275141 1 rotate no_reflect no_shear #
lump $-1 $-1 $29 $5 #
transform $-1 1 0 0 0 1 0 0 0 1 40.555436872463147 23.529876580891877 4.812828114275141 1 rotate no_reflect no_shear #
lump $-1 $-1 $30 $6 #
transform $-1 1 0 0 0 1 0 0 0 1 40.555436872463147 23.529876580891877 4.812828114275141 1 rotate no_reflect no_shear #
lump $-1 $-1 $31 $7 #
transform $-1 1 0 0 0 1 0 0 0 1 40.555436872463147 23.529876580891877 4.812828114275141 1 rotate no_reflect no_shear #
shell $-1 $-1 $-1 $32 $-1 $8 #
shell $-1 $-1 $-1 $33 $-1 $10 #
shell $-1 $-1 $-1 $34 $-1 $12 #
shell $-1 $-1 $-1 $35 $-1 $14 #
shell $-1 $-1 $-1 $36 $-1 $16 #
shell $-1 $-1 $-1 $37 $-1 $18 #
shell $-1 $-1 $-1 $38 $-1 $20 #
shell $-1 $-1 $-1 $39 $-1 $22 #
face $-1 $40 $41 $24 $-1 $42 forward single #
face $-1 $43 $44 $25 $-1 $45 forward single #
face $-1 $46 $47 $26 $-1 $48 reversed single #
face $-1 $49 $50 $27 $-1 $51 forward single #
face $-1 $52 $53 $28 $-1 $54 forward single #
face $-1 $55 $56 $29 $-1 $57 forward single #
face $-1 $58 $59 $30 $-1 $60 reversed single #
face $-1 $61 $62 $31 $-1 $63 forward single #
face $-1 $64 $65 $24 $-1 $66 reversed single #
loop $-1 $-1 $67 $32 #
plane-surface $-1 0 0 4.812828114275141 0 0 1 1 0 0 forward_v I I I I #
face $-1 $68 $69 $25 $-1 $70 reversed single #
loop $-1 $-1 $71 $33 #
plane-surface $-1 0 -23.529876580891877 0 0 1 0 0 0 1 forward_v I I I I #
face $-1 $72 $73 $26 $-1 $74 reversed single #
loop $-1 $-1 $75 $34 #
plane-surface $-1 26.576037437278117 2.2480524112573219 114.54707551868523 0 -1 0 -0.61566148304635926 0 -0.78801074757464917 forward_v I I I I #
face $-1 $76 $77 $27 $-1 $78 forward single #
loop $-1 $79 $80 $35 #
cone-surface $-1 36.77614164765906 -7.799594004002822 1.289974771147008 -0.61566148304635926 0 -0.78801074757464917 0.78801074757464917 0 -0.61566148304635926 1 I I 0 1 1 forward I I I I #
face $-1 $81 $82 $28 $-1 $83 forward single #
loop $-1 $84 $85 $36 #
cone-surface $-1 36.77614164765906 -4.0317265982802688 1.289974771147008 -0.61566148304635926 0 -0.78801074757464917 0.78801074757464917 0 -0.61566148304635926 1 I I 0 1 1 forward I I I I #
face $-1 $86 $87 $29 $-1 $88 forward single #
loop $-1 $89 $90 $37 #
cone-surface $-1 36.77614164765906 -0.26385919255771384 1.289974771147008 -0.61566148304635926 0 -0.78801074757464917 0.78801074757464917 0 -0.61566148304635926 1 I I 0 1 1 forward I I I I #
face $-1 $91 $92 $30 $-1 $93 reversed single #
loop $-1 $-1 $94 $38 #
plane-surface $-1 -96.899784916541165 -12.128411470473889 59.232859197799492 0 1 0 -0.69465837861970381 0 0.71933979245794832 forward_v I I I I #
face $-1 $95 $96 $31 $-1 $97 forward single #
loop $-1 $98 $99 $39 #
cone-surface $-1 -38.044853695810318 -7.0853099674406472 2.3550221705528478 0.69465837861970381 0 -0.71933979245794832 0.71933979245794832 0 0.69465837861970381 1 I I 0 1 1 forward I I I I #
face $-1 $100 $101 $24 $-1 $102 reversed single #
loop $-1 $-1 $103 $40 #
plane-surface $-1 0 0 -4.812828114275141 0 0 1 1 0 0 forward_v I I I I #
coedge $-1 $104 $105 $106 $107 forward $41 $-1 #
face $-1 $108 $109 $25 $-1 $110 reversed single #
loop $-1 $-1 $111 $43 #
plane-surface $-1 0 0 -4.812828114275141 0 0 1 1 0 0 forward_v I I I I #
coedge $-1 $112 $113 $114 $115 forward $44 $-1 #
face $-1 $116 $117 $26 $-1 $118 reversed single #
loop $-1 $-1 $119 $46 #
plane-surface $-1 -23.360803383709211 -4.0317265982802688 50.630835262512882 0.61566148304635926 0 0.78801074757464917 0.78801074757464917 0 -0.61566148304635926 forward_v I I I I #
coedge $-1 $120 $121 $122 $123 reversed $47 $-1 #
face $-1 $-1 $124 $27 $-1 $125 forward single #
loop $-1 $126 $127 $49 #
cone-surface $-1 35.324948975013754 -7.799594004002822 -0.56746710939364586 -0.61566148304635926 0 -0.78801074757464917 0.39400537378732459 0 -0.30783074152317963 1 I I -0.70710678118654746 0.70710678118654746 0.5 forward I I I I #
loop $-1 $-1 $128 $35 #
coedge $-1 $80 $80 $129 $130 reversed $50 $-1 #
face $-1 $-1 $131 $28 $-1 $132 forward single #
loop $-1 $133 $134 $52 #
cone-surface $-1 35.324948975013754 -4.0317265982802688 -0.56746710939364586 -0.61566148304635926 0 -0.78801074757464917 0.39400537378732459 0 -0.30783074152317963 1 I I -0.70710678118654746 0.70710678118654746 0.5 forward I I I I #
loop $-1 $-1 $135 $36 #
coedge $-1 $85 $85 $136 $137 reversed $53 $-1 #
face $-1 $-1 $138 $29 $-1 $139 forward single #
loop $-1 $140 $141 $55 #
cone-surface $-1 35.324948975013754 -0.26385919255771384 -0.56746710939364586 -0.61566148304635926 0 -0.78801074757464917 0.39400537378732459 0 -0.30783074152317963 1 I I -0.70710678118654746 0.70710678118654746 0.5 forward I I I I #
loop $-1 $-1 $142 $37 #
coedge $-1 $90 $90 $143 $144 reversed $56 $-1 #
face $-1 $145 $146 $30 $-1 $147 reversed single #
loop $-1 $-1 $148 $58 #
plane-surface $-1 -40.555436872463162 -7.0853099674406472 0.88658011204135789 -0.69465837861970381 0 0.71933979245794832 0.71933979245794832 0 0.69465837861970381 forward_v I I I I #
coedge $-1 $149 $150 $151 $152 reversed $59 $-1 #
face $-1 $-1 $153 $31 $-1 $154 forward single #
loop $-1 $155 $156 $61 #
cone-surface $-1 -37.219815696581122 -7.0853099674406472 1.5006703317184726 0.69465837861970381 0 -0.71933979245794832 0.35966989622897416 0 0.3473291893098519 1 I I -0.70710678118654746 0.70710678118654746 0.5 forward I I I I #
loop $-1 $-1 $157 $39 #
coedge $-1 $99 $99 $158 $159 reversed $62 $-1 #
face $-1 $160 $161 $24 $-1 $162 reversed single #
loop $-1 $-1 $163 $64 #
plane-surface $-1 0 -23.529876580891877 0 0 1 0 0 0 1 forward_v I I I I #
coedge $-1 $164 $165 $166 $167 forward $65 $-1 #
coedge $-1 $168 $67 $169 $170 forward $41 $-1 #
coedge $-1 $67 $168 $171 $172 forward $41 $-1 #
coedge $-1 $173 $174 $67 $107 reversed $175 $-1 #
edge $-1 $176 -23.529876580891877 $177 23.529876580891877 $106 $178 forward 7 unknown #
face $-1 $179 $180 $25 $-1 $181 reversed single #
loop $-1 $-1 $182 $68 #
plane-surface $-1 -32.429780643912864 -27.693784413620651 0 0 1 0 0 0 1 forward_v I I I I #
coedge $-1 $183 $184 $113 $185 forward $69 $-1 #
coedge $-1 $186 $71 $187 $188 reversed $44 $-1 #
coedge $-1 $71 $186 $111 $185 reversed $44 $-1 #
coedge $-1 $189 $190 $71 $115 reversed $180 $-1 #
edge $-1 $191 -4.812828114275141 $192 4.812828114275141 $114 $193 forward 7 unknown #
face $-1 $194 $195 $26 $-1 $196 forward single #
loop $-1 $-1 $197 $72 #
plane-surface $-1 26.576037437278117 -10.31150560781786 114.54707551868523 0 1 0 0.61566148304635926 0 0.78801074757464917 forward_v I I I I #
coedge $-1 $198 $199 $200 $201 reversed $73 $-1 #
coedge $-1 $121 $75 $202 $203 reversed $47 $-1 #
coedge $-1 $75 $120 $198 $204 reversed $47 $-1 #
coedge $-1 $200 $205 $75 $123 forward $195 $-1 #
edge $-1 $206 -27.267418153824089 $207 -21.995551566460136 $122 $208 forward 7 unknown #
loop $-1 $-1 $129 $76 #
plane-surface $-1 -23.360803383709211 -4.0317265982802688 50.630835262512882 0.61566148304635926 0 0.78801074757464917 0.78801074757464917 0 -0.61566148304635926 forward_v I I I I #
loop $-1 $-1 $209 $49 #
coedge $-1 $127 $127 $128 $210 reversed $77 $-1 #
coedge $-1 $128 $128 $127 $210 forward $79 $-1 #
coedge $-1 $129 $129 $80 $130 forward $124 $-1 #
edge $-1 $211 0 $211 6.2831853071796004 $129 $212 forward 7 unknown #
loop $-1 $-1 $136 $81 #
plane-surface $-1 -23.360803383709211 -4.0317265982802688 50.630835262512882 0.61566148304635926 0 0.78801074757464917 0.78801074757464917 0 -0.61566148304635926 forward_v I I I I #
loop $-1 $-1 $213 $52 #
coedge $-1 $134 $134 $135 $214 reversed $82 $-1 #
coedge $-1 $135 $135 $134 $214 forward $84 $-1 #
coedge $-1 $136 $136 $85 $137 forward $131 $-1 #
edge $-1 $215 0 $215 6.2831853071796004 $136 $216 forward 7 unknown #
loop $-1 $-1 $143 $86 #
plane-surface $-1 -23.360803383709211 -4.0317265982802688 50.630835262512882 0.61566148304635926 0 0.78801074757464917 0.78801074757464917 0 -0.61566148304635926 forward_v I I I I #
loop $-1 $-1 $217 $55 #
coedge $-1 $141 $141 $142 $218 reversed $87 $-1 #
coedge $-1 $142 $142 $141 $218 forward $89 $-1 #
coedge $-1 $143 $143 $90 $144 forward $138 $-1 #
edge $-1 $219 0 $219 6.2831853071796004 $143 $220 forward 7 unknown #
face $-1 $221 $222 $30 $-1 $223 reversed single #
loop $-1 $-1 $224 $91 #
plane-surface $-1 -96.899784916541165 -2.0422084644074046 59.232859197799492 0 -1 0 0.69465837861970381 0 -0.71933979245794832 forward_v I I I I #
coedge $-1 $225 $226 $227 $228 reversed $92 $-1 #
coedge $-1 $150 $94 $229 $230 reversed $59 $-1 #
coedge $-1 $94 $149 $225 $231 reversed $59 $-1 #
coedge $-1 $227 $232 $94 $152 forward $233 $-1 #
edge $-1 $234 7.8944555858074352 $235 11.960204319274396 $151 $236 forward 7 unknown #
loop $-1 $-1 $158 $95 #
plane-surface $-1 -40.555436872463162 -7.0853099674406472 0.88658011204135789 -0.69465837861970381 0 0.71933979245794832 0.71933979245794832 0 0.69465837861970381 forward_v I I I I #
loop $-1 $-1 $237 $61 #
coedge $-1 $156 $156 $157 $238 reversed $96 $-1 #
coedge $-1 $157 $157 $156 $238 forward $98 $-1 #
coedge $-1 $158 $158 $99 $159 forward $153 $-1 #
edge $-1 $239 0 $239 6.2831853071796004 $158 $240 forward 7 unknown #
face $-1 $241 $242 $24 $-1 $243 reversed single #
loop $-1 $-1 $244 $100 #
plane-surface $-1 -40.555436872463147 0 0 1 0 0 0 0 -1 forward_v I I I I #
coedge $-1 $245 $171 $246 $247 forward $101 $-1 #
coedge $-1 $248 $103 $245 $249 forward $65 $-1 #
coedge $-1 $103 $248 $250 $251 forward $65 $-1 #
coedge $-1 $174 $173 $103 $167 reversed $175 $-1 #
edge $-1 $252 -23.529876580891877 $253 23.529876580891877 $166 $254 forward 7 unknown #
coedge $-1 $105 $104 $255 $256 forward $41 $-1 #
coedge $-1 $257 $258 $104 $170 reversed $242 $-1 #
edge $-1 $177 -40.555436872463147 $259 40.555436872463147 $169 $260 forward 7 unknown #
coedge $-1 $163 $261 $105 $172 reversed $101 $-1 #
edge $-1 $262 -40.555436872463147 $176 40.555436872463147 $171 $263 forward 7 unknown #
coedge $-1 $166 $106 $261 $264 forward $175 $-1 #
coedge $-1 $106 $166 $257 $265 reversed $175 $-1 #
loop $-1 $-1 $173 $241 #
vertex $-1 $107 $266 #
vertex $-1 $107 $267 #
straight-curve $-1 40.555436872463147 0 4.812828114275141 0 1 0 I I #
face $-1 $268 $269 $25 $-1 $270 reversed single #
loop $-1 $-1 $114 $108 #
plane-surface $-1 -33.929780643912864 -25.611830497256264 0 1 0 0 0 0 -1 forward_v I I I I #
coedge $-1 $271 $272 $273 $274 forward $109 $-1 #
coedge $-1 $275 $111 $276 $277 forward $69 $-1 #
coedge $-1 $111 $275 $189 $278 forward $69 $-1 #
edge $-1 $191 -33.929780643912864 $279 -30.929780643912864 $111 $280 forward 7 unknown #
coedge $-1 $113 $112 $281 $282 forward $44 $-1 #
coedge $-1 $283 $284 $112 $188 forward $285 $-1 #
edge $-1 $286 30.929780643912864 $192 33.929780643912864 $187 $287 forward 7 unknown #
coedge $-1 $273 $114 $184 $278 reversed $180 $-1 #
coedge $-1 $114 $273 $283 $288 reversed $180 $-1 #
vertex $-1 $185 $289 #
vertex $-1 $288 $290 #
straight-curve $-1 -33.929780643912864 -23.529876580891877 0 0 0 1 I I #
face $-1 $-1 $291 $26 $-1 $292 reversed single #
loop $-1 $-1 $122 $116 #
plane-surface $-1 0 0 4.812828114275141 0 0 1 1 0 0 forward_v I I I I #
coedge $-1 $293 $294 $295 $296 reversed $117 $-1 #
coedge $-1 $297 $119 $121 $204 forward $73 $-1 #
coedge $-1 $119 $297 $293 $298 forward $73 $-1 #
coedge $-1 $295 $122 $119 $201 forward $195 $-1 #
edge $-1 $207 -4.2639157103974563 $299 8.295642308677726 $200 $300 forward 7 unknown #
coedge $-1 $301 $302 $120 $203 forward $291 $-1 #
edge $-1 $303 -56.579543317817063 $206 -52.460709645067475 $202 $304 forward 7 unknown #
edge $-1 $207 74.42077896691751 $303 81.110873744926295 $121 $305 forward 7 unknown #
coedge $-1 $122 $295 $301 $306 forward $195 $-1 #
vertex $-1 $123 $307 #
vertex $-1 $123 $308 #
straight-curve $-1 13.288018718639059 2.2480524112573219 4.8128281142751419 -1 0 0 I I #
coedge $-1 $209 $209 $-1 $309 reversed $126 $-1 #
edge $-1 $310 0 $310 6.2831853071796004 $127 $311 forward 7 unknown #
vertex $-1 $130 $312 #
ellipse-curve $-1 37.919503578781182 -7.799594004002822 2.7534112779003346 0.61566148304635926 0 0.78801074757464917 0.78801074757464917 0 -0.61566148304635926 1 I I #
coedge $-1 $213 $213 $-1 $313 reversed $133 $-1 #
edge $-1 $314 0 $314 6.2831853071796004 $134 $315 forward 7 unknown #
vertex $-1 $137 $316 #
ellipse-curve $-1 37.919503578781182 -4.0317265982802688 2.7534112779003346 0.61566148304635926 0 0.78801074757464917 0.78801074757464917 0 -0.61566148304635926 1 I I #
coedge $-1 $217 $217 $-1 $317 reversed $140 $-1 #
edge $-1 $318 0 $318 6.2831853071796004 $141 $319 forward 7 unknown #
vertex $-1 $144 $320 #
ellipse-curve $-1 37.919503578781182 -0.26385919255771384 2.7534112779003346 0.61566148304635926 0 0.78801074757464917 0.78801074757464917 0 -0.61566148304635926 1 I I #
face $-1 $-1 $233 $30 $-1 $321 forward single #
loop $-1 $-1 $322 $145 #
plane-surface $-1 -40.555436872463147 0 0 1 0 0 0 0 -1 forward_v I I I I #
coedge $-1 $323 $324 $325 $326 reversed $146 $-1 #
coedge $-1 $327 $148 $150 $231 forward $92 $-1 #
coedge $-1 $148 $327 $323 $328 forward $92 $-1 #
coedge $-1 $325 $151 $148 $228 forward $233 $-1 #
edge $-1 $235 -8.5857564867535654 $329 1.5004465193129191 $227 $330 forward 7 unknown #
coedge $-1 $331 $332 $149 $230 forward $222 $-1 #
edge $-1 $333 -28.729849486858374 $234 -24.803601484624604 $229 $334 forward 7 unknown #
edge $-1 $235 -5.6520559214088699 $333 -1.9785632286268914e-014 $150 $335 forward 7 unknown #
coedge $-1 $151 $325 $331 $336 forward $233 $-1 #
loop $-1 $-1 $325 $221 #
vertex $-1 $230 $337 #
vertex $-1 $152 $338 #
straight-curve $-1 -48.449892458270583 -12.128411470473889 4.8128281142751419 1 0 0 I I #
coedge $-1 $237 $237 $-1 $339 reversed $155 $-1 #
edge $-1 $340 0 $340 6.2831853071796004 $156 $341 forward 7 unknown #
vertex $-1 $159 $342 #
ellipse-curve $-1 -38.522562505729667 -7.0853099674406472 2.8497041131582561 -0.69465837861970381 0 0.71933979245794832 0.71933979245794832 0 0.69465837861970381 1 I I #
face $-1 $-1 $175 $24 $-1 $343 reversed single #
loop $-1 $-1 $257 $160 #
plane-surface $-1 0 23.529876580891877 0 0 -1 0 0 0 -1 forward_v I I I I #
coedge $-1 $344 $255 $258 $345 forward $161 $-1 #
coedge $-1 $261 $163 $164 $249 reversed $101 $-1 #
coedge $-1 $255 $344 $163 $247 reversed $161 $-1 #
edge $-1 $262 -4.812828114275141 $346 4.812828114275141 $246 $347 forward 7 unknown #
coedge $-1 $165 $164 $344 $348 forward $65 $-1 #
edge $-1 $253 -40.555436872463147 $346 40.555436872463147 $245 $349 forward 7 unknown #
coedge $-1 $258 $257 $165 $251 reversed $242 $-1 #
edge $-1 $350 -40.555436872463147 $252 40.555436872463147 $250 $351 forward 7 unknown #
vertex $-1 $167 $352 #
vertex $-1 $264 $353 #
straight-curve $-1 40.555436872463147 0 -4.812828114275141 0 -1 0 I I #
coedge $-1 $244 $246 $168 $256 reversed $161 $-1 #
edge $-1 $259 -23.529876580891877 $262 23.529876580891877 $255 $354 forward 7 unknown #
coedge $-1 $250 $169 $174 $265 forward $242 $-1 #
coedge $-1 $169 $250 $244 $345 reversed $242 $-1 #
vertex $-1 $170 $355 #
straight-curve $-1 0 23.529876580891877 4.812828114275141 -1 0 0 I I #
coedge $-1 $171 $245 $173 $264 reversed $101 $-1 #
vertex $-1 $256 $356 #
straight-curve $-1 0 -23.529876580891877 4.812828114275141 1 0 0 I I #
edge $-1 $176 -4.812828114275141 $253 4.812828114275141 $173 $357 forward 7 unknown #
edge $-1 $177 -4.812828114275141 $252 4.812828114275141 $174 $358 forward 7 unknown #
point $-1 40.555436872463147 -23.529876580891877 4.812828114275141 #
point $-1 40.555436872463147 23.529876580891877 4.812828114275141 #
face $-1 $-1 $285 $25 $-1 $359 forward single #
loop $-1 $-1 $360 $179 #
plane-surface $-1 -30.929780643912864 -25.611830497256264 0 -1 0 0 0 0 1 forward_v I I I I #
coedge $-1 $361 $182 $275 $362 reversed $109 $-1 #
coedge $-1 $182 $361 $363 $364 reversed $109 $-1 #
coedge $-1 $190 $189 $182 $274 reversed $180 $-1 #
edge $-1 $365 -4.812828114275141 $366 4.812828114275141 $273 $367 forward 7 unknown #
coedge $-1 $184 $183 $271 $362 forward $69 $-1 #
coedge $-1 $281 $360 $183 $277 reversed $269 $-1 #
edge $-1 $279 -2.0819539163643874 $368 2.0819539163643874 $276 $369 forward 7 unknown #
edge $-1 $366 -2.0819539163643874 $191 2.0819539163643874 $189 $370 forward 7 unknown #
vertex $-1 $277 $371 #
straight-curve $-1 0 -23.529876580891877 -4.812828114275141 1 0 0 I I #
coedge $-1 $372 $276 $186 $282 reversed $269 $-1 #
edge $-1 $286 -4.812828114275141 $279 4.812828114275141 $281 $373 forward 7 unknown #
coedge $-1 $363 $187 $190 $288 forward $285 $-1 #
coedge $-1 $187 $363 $372 $374 forward $285 $-1 #
loop $-1 $-1 $187 $268 #
vertex $-1 $188 $375 #
straight-curve $-1 0 -23.529876580891877 4.812828114275141 -1 0 0 I I #
edge $-1 $192 -2.0819539163643874 $365 2.0819539163643874 $190 $376 forward 7 unknown #
point $-1 -33.929780643912864 -23.529876580891877 -4.812828114275141 #
point $-1 -33.929780643912864 -23.529876580891877 4.812828114275141 #
loop $-1 $-1 $202 $194 #
plane-surface $-1 40.555436872463147 0 0 -1 0 0 0 0 1 forward_v I I I I #
coedge $-1 $294 $197 $199 $298 reversed $117 $-1 #
coedge $-1 $197 $293 $377 $378 reversed $117 $-1 #
coedge $-1 $205 $200 $197 $296 forward $195 $-1 #
edge $-1 $299 21.995551566460136 $379 27.267418153824089 $295 $380 forward 7 unknown #
coedge $-1 $199 $198 $302 $381 reversed $73 $-1 #
edge $-1 $382 -81.110873744926295 $299 -74.42077896691751 $293 $383 forward 7 unknown #
vertex $-1 $201 $384 #
straight-curve $-1 35.283570285099188 -2.0158632991401344 4.8128281142751455 0 -1 0 I I #
coedge $-1 $377 $202 $205 $306 reversed $291 $-1 #
coedge $-1 $202 $377 $297 $381 forward $291 $-1 #
vertex $-1 $203 $385 #
straight-curve $-1 40.555436872463147 2.2480524112573219 57.273537759342616 0 0 1 I I #
straight-curve $-1 -23.360803383709211 2.2480524112573219 50.630835262512882 0.78801074757464917 0 -0.61566148304635926 I I #
edge $-1 $379 -10.31150560781786 $206 2.2480524112573219 $301 $386 forward 7 unknown #
point $-1 40.555436872463147 2.2480524112573219 4.812828114275141 #
point $-1 35.283570285099195 2.2480524112573219 4.8128281142751419 #
edge $-1 $387 1 $387 0 $209 $-1 forward 7 unknown #
vertex $-1 $210 $388 #
ellipse-curve $-1 35.63277971653693 -7.799594004002822 -0.17346173560632128 0.61566148304635926 0 0.78801074757464917 0.78801074757464917 0 -0.61566148304635926 1 I I #
point $-1 38.707514326355827 -7.799594004002822 2.1377497948539781 #
edge $-1 $389 1 $389 0 $213 $-1 forward 7 unknown #
vertex $-1 $214 $390 #
ellipse-curve $-1 35.63277971653693 -4.0317265982802688 -0.17346173560632128 0.61566148304635926 0 0.78801074757464917 0.78801074757464917 0 -0.61566148304635926 1 I I #
point $-1 38.707514326355827 -4.0317265982802688 2.1377497948539781 #
edge $-1 $391 1 $391 0 $217 $-1 forward 7 unknown #
vertex $-1 $218 $392 #
ellipse-curve $-1 35.63277971653693 -0.26385919255771384 -0.17346173560632128 0.61566148304635926 0 0.78801074757464917 0.78801074757464917 0 -0.61566148304635926 1 I I #
point $-1 38.707514326355827 -0.26385919255771384 2.1377497948539781 #
plane-surface $-1 0 0 4.812828114275141 0 0 1 1 0 0 forward_v I I I I #
coedge $-1 $332 $331 $324 $393 forward $222 $-1 #
coedge $-1 $324 $224 $226 $328 reversed $146 $-1 #
coedge $-1 $224 $323 $322 $393 reversed $146 $-1 #
coedge $-1 $232 $227 $224 $326 forward $233 $-1 #
edge $-1 $329 -11.960204319274396 $394 -7.8944555858074352 $325 $395 forward 7 unknown #
coedge $-1 $226 $225 $332 $396 reversed $92 $-1 #
edge $-1 $397 1.9785632286268914e-014 $329 5.6520559214088699 $323 $398 forward 7 unknown #
vertex $-1 $228 $399 #
straight-curve $-1 -36.489688138996186 -3.5426549837203236 4.8128281142751419 0 1 0 I I #
coedge $-1 $322 $229 $232 $336 reversed $222 $-1 #
coedge $-1 $229 $322 $327 $396 forward $222 $-1 #
vertex $-1 $230 $400 #
straight-curve $-1 -40.555436872463147 -12.128411470473889 29.616429598899746 0 0 1 I I #
straight-curve $-1 -40.555436872463162 -12.128411470473889 0.88658011204135789 -0.71933979245794832 0 -0.69465837861970381 I I #
edge $-1 $394 2.0422084644074046 $234 12.128411470473889 $331 $401 forward 7 unknown #
point $-1 -40.555436872463147 -12.128411470473889 4.812828114275141 #
point $-1 -36.489688138996186 -12.128411470473889 4.8128281142751401 #
edge $-1 $402 1 $402 0 $237 $-1 forward 7 unknown #
vertex $-1 $238 $403 #
ellipse-curve $-1 -37.567144885890976 -7.0853099674406472 1.8603402279474468 -0.69465837861970381 0 0.71933979245794832 0.71933979245794832 0 0.69465837861970381 1 I I #
point $-1 -37.803222713271708 -7.0853099674406472 3.544362491777953 #
plane-surface $-1 40.555436872463147 0 0 -1 0 0 0 0 1 forward_v I I I I #
coedge $-1 $246 $244 $248 $348 reversed $161 $-1 #
edge $-1 $259 -4.812828114275141 $350 4.812828114275141 $258 $404 forward 7 unknown #
vertex $-1 $348 $405 #
straight-curve $-1 -40.555436872463147 -23.529876580891877 0 0 0 -1 I I #
edge $-1 $346 -23.529876580891877 $350 23.529876580891877 $344 $406 forward 7 unknown #
straight-curve $-1 0 -23.529876580891877 -4.812828114275141 -1 0 0 I I #
vertex $-1 $251 $407 #
straight-curve $-1 0 23.529876580891877 -4.812828114275141 1 0 0 I I #
point $-1 40.555436872463147 23.529876580891877 -4.812828114275141 #
point $-1 40.555436872463147 -23.529876580891877 -4.812828114275141 #
straight-curve $-1 -40.555436872463147 0 4.812828114275141 0 -1 0 I I #
point $-1 -40.555436872463147 23.529876580891877 4.812828114275141 #
point $-1 -40.555436872463147 -23.529876580891877 4.812828114275141 #
straight-curve $-1 40.555436872463147 -23.529876580891877 0 0 0 -1 I I #
straight-curve $-1 40.555436872463147 23.529876580891877 0 0 0 -1 I I #
plane-surface $-1 0 0 4.812828114275141 0 0 1 1 0 0 forward_v I I I I #
coedge $-1 $276 $372 $361 $408 forward $269 $-1 #
coedge $-1 $272 $271 $360 $408 reversed $109 $-1 #
edge $-1 $368 -1.5 $366 1.5 $271 $409 forward 7 unknown #
coedge $-1 $284 $283 $272 $364 forward $285 $-1 #
edge $-1 $365 -1.5 $410 1.5 $272 $411 forward 7 unknown #
vertex $-1 $288 $412 #
vertex $-1 $278 $413 #
straight-curve $-1 -33.929780643912864 -27.693784413620651 0 0 0 -1 I I #
vertex $-1 $408 $414 #
straight-curve $-1 -30.929780643912864 -25.611830497256264 -4.812828114275141 0 -1 0 I I #
straight-curve $-1 -33.929780643912864 -25.611830497256264 -4.812828114275141 0 1 0 I I #
point $-1 -30.929780643912864 -23.529876580891877 -4.812828114275141 #
coedge $-1 $360 $281 $284 $374 reversed $269 $-1 #
straight-curve $-1 -30.929780643912864 -23.529876580891877 0 0 0 -1 I I #
edge $-1 $410 -2.0819539163643874 $286 2.0819539163643874 $372 $415 forward 7 unknown #
point $-1 -30.929780643912864 -23.529876580891877 4.812828114275141 #
straight-curve $-1 -33.929780643912864 -25.611830497256264 4.812828114275141 0 -1 0 I I #
coedge $-1 $302 $301 $294 $378 forward $291 $-1 #
edge $-1 $379 52.460709645067475 $382 56.579543317817063 $377 $416 forward 7 unknown #
vertex $-1 $306 $417 #
straight-curve $-1 13.288018718639059 -10.31150560781786 4.8128281142751419 1 0 0 I I #
edge $-1 $382 -8.295642308677726 $303 4.2639157103974563 $302 $418 forward 7 unknown #
vertex $-1 $381 $419 #
straight-curve $-1 -23.360803383709211 -10.31150560781786 50.630835262512882 -0.78801074757464917 0 0.61566148304635926 I I #
point $-1 35.283570285099195 -10.31150560781786 4.8128281142751419 #
point $-1 40.55543687246314 2.2480524112573219 0.6939944415255539 #
straight-curve $-1 40.555436872463147 0 4.812828114275141 0 1 0 I I #
vertex $-1 $309 $420 #
point $-1 36.420790464111583 -7.799594004002822 -0.78912321865268054 #
vertex $-1 $313 $421 #
point $-1 36.420790464111583 -4.0317265982802688 -0.78912321865268054 #
vertex $-1 $317 $422 #
point $-1 36.420790464111583 -0.26385919255771384 -0.78912321865268054 #
edge $-1 $394 24.803601484624604 $397 28.729849486858374 $322 $423 forward 7 unknown #
vertex $-1 $336 $424 #
straight-curve $-1 -48.449892458270583 -2.0422084644074046 4.8128281142751419 -1 0 0 I I #
edge $-1 $397 -1.5004465193129191 $333 8.5857564867535654 $332 $425 forward 7 unknown #
vertex $-1 $396 $426 #
straight-curve $-1 -40.555436872463162 -2.0422084644074046 0.88658011204135789 0.71933979245794832 0 0.69465837861970381 I I #
point $-1 -36.489688138996186 -2.0422084644074046 4.8128281142751401 #
point $-1 -40.555436872463147 -12.128411470473889 0.88658011204137166 #
straight-curve $-1 -40.555436872463147 0 4.812828114275141 0 -1 0 I I #
vertex $-1 $339 $427 #
point $-1 -36.847805093433024 -7.0853099674406472 2.5549986065671506 #
straight-curve $-1 -40.555436872463147 23.529876580891877 0 0 0 -1 I I #
point $-1 -40.555436872463147 -23.529876580891877 -4.812828114275141 #
straight-curve $-1 -40.555436872463147 0 -4.812828114275141 0 1 0 I I #
point $-1 -40.555436872463147 23.529876580891877 -4.812828114275141 #
edge $-1 $410 -4.812828114275141 $368 4.812828114275141 $360 $428 forward 7 unknown #
straight-curve $-1 -32.429780643912864 -27.693784413620651 -4.812828114275141 -1 0 0 I I #
vertex $-1 $374 $429 #
straight-curve $-1 -32.429780643912864 -27.693784413620651 4.812828114275141 1 0 0 I I #
point $-1 -33.929780643912864 -27.693784413620651 4.812828114275141 #
point $-1 -33.929780643912864 -27.693784413620651 -4.812828114275141 #
point $-1 -30.929780643912864 -27.693784413620651 -4.812828114275141 #
straight-curve $-1 -30.929780643912864 -25.611830497256264 4.812828114275141 0 1 0 I I #
straight-curve $-1 40.555436872463147 -10.31150560781786 57.273537759342616 0 0 -1 I I #
point $-1 40.555436872463147 -10.31150560781786 4.812828114275141 #
straight-curve $-1 40.555436872463147 -2.0158632991401344 0.69399444152555034 0 1 0 I I #
point $-1 40.55543687246314 -10.31150560781786 0.6939944415255539 #
point $-1 35.017118233490578 -7.799594004002822 -0.96147248318097045 #
point $-1 35.017118233490578 -4.0317265982802688 -0.96147248318097045 #
point $-1 35.017118233490578 -0.26385919255771384 -0.96147248318097045 #
straight-curve $-1 -40.555436872463147 -2.0422084644074046 29.616429598899746 0 0 -1 I I #
point $-1 -40.555436872463147 -2.0422084644074046 4.812828114275141 #
straight-curve $-1 -40.555436872463147 -3.5426549837203236 0.88658011204137122 0 -1 0 I I #
point $-1 -40.555436872463147 -2.0422084644074046 0.88658011204137166 #
point $-1 -36.872486507271269 -7.0853099674406472 1.1410004354894985 #
straight-curve $-1 -30.929780643912864 -27.693784413620651 0 0 0 -1 I I #
point $-1 -30.929780643912864 -27.693784413620651 4.812828114275141 #
End-of-ACIS-data 