500 0 4 0           
7 Unknown 11 ACIS 5.0 NT 24 Fri Mar 26 16:43:21 1999 
-1 9.9999999999999995e-007 1e-010 
body $-1 $4 $-1 $5 #
body $-1 $6 $-1 $7 #
body $-1 $8 $-1 $9 #
body $-1 $10 $-1 $11 #
lump $-1 $-1 $12 $0 #
transform $-1 1 0 0 0 1 0 0 0 1 44.394665364543599 23.1617213295841 8.8830541635410754 1 rotate no_reflect no_shear #
lump $-1 $-1 $13 $1 #
transform $-1 1 0 0 0 1 0 0 0 1 44.394665364543599 23.1617213295841 8.8830541635410754 1 rotate no_reflect no_shear #
lump $-1 $-1 $14 $2 #
transform $-1 1 0 0 0 1 0 0 0 1 44.394665364543599 23.1617213295841 8.8830541635410754 1 rotate no_reflect no_shear #
lump $-1 $-1 $15 $3 #
transform $-1 1 0 0 0 1 0 0 0 1 44.394665364543599 23.1617213295841 8.8830541635410754 1 rotate no_reflect no_shear #
shell $-1 $-1 $-1 $16 $-1 $4 #
shell $-1 $-1 $-1 $17 $-1 $6 #
shell $-1 $-1 $-1 $18 $-1 $8 #
shell $-1 $-1 $-1 $19 $-1 $10 #
face $-1 $20 $21 $12 $-1 $22 forward single #
face $-1 $23 $24 $13 $-1 $25 forward single #
face $-1 $26 $27 $14 $-1 $28 forward single #
face $-1 $29 $30 $15 $-1 $31 reversed single #
face $-1 $32 $33 $12 $-1 $34 reversed single #
loop $-1 $-1 $35 $16 #
plane-surface $-1 0 0 8.8830541635410754 0 0 1 1 0 0 forward_v I I I I #
face $-1 $36 $37 $13 $-1 $38 forward single #
loop $-1 $-1 $39 $17 #
plane-surface $-1 -29.628557037461448 -19.968457599201898 0 1 0 0 0 0 -1 forward_v I I I I #
face $-1 $40 $41 $14 $-1 $42 forward single #
loop $-1 $-1 $43 $18 #
plane-surface $-1 55.338558725412568 11.517421041809431 128.10861349514988 0 1 0 0.7660444514056185 0 0.64278759981090561 forward_v I I I I #
face $-1 $44 $45 $15 $-1 $46 reversed single #
loop $-1 $47 $48 $19 #
cone-surface $-1 39.897376715361915 17.339571185696766 4.2418125205080681 -0.7660444514056185 0 -0.64278759981090561 0.96418139971635841 0 -1.1490666771084277 1 I I 0 1 1.5 forward I I I I #
face $-1 $49 $50 $12 $-1 $51 reversed single #
loop $-1 $-1 $52 $20 #
plane-surface $-1 0 0 -8.8830541635410754 0 0 1 1 0 0 forward_v I I I I #
coedge $-1 $53 $54 $55 $56 forward $21 $-1 #
face $-1 $57 $58 $13 $-1 $59 forward single #
loop $-1 $-1 $60 $23 #
plane-surface $-1 -28.128557037461448 -16.775193868819695 0 0 -1 0 0 0 -1 forward_v I I I I #
coedge $-1 $61 $62 $63 $64 reversed $24 $-1 #
face $-1 $65 $66 $14 $-1 $67 reversed single #
loop $-1 $-1 $68 $26 #
plane-surface $-1 -12.678015423623066 17.339571185696766 71.035932706983232 0.7660444514056185 0 0.64278759981090561 0.64278759981090561 0 -0.7660444514056185 forward_v I I I I #
coedge $-1 $69 $70 $71 $72 reversed $27 $-1 #
face $-1 $73 $74 $15 $-1 $75 forward single #
loop $-1 $76 $77 $29 #
cone-surface $-1 37.285667073211968 17.339571185696766 2.0503279804135985 -0.7660444514056185 0 -0.64278759981090561 0.48209069985817921 0 -0.57453333855421385 1 I I -0.70710678118654757 0.70710678118654757 0.75 forward I I I I #
loop $-1 $-1 $78 $19 #
coedge $-1 $48 $48 $79 $80 reversed $30 $-1 #
face $-1 $81 $82 $12 $-1 $83 reversed single #
loop $-1 $-1 $84 $32 #
plane-surface $-1 0 -23.1617213295841 0 0 1 0 0 0 1 forward_v I I I I #
coedge $-1 $85 $86 $87 $88 forward $33 $-1 #
coedge $-1 $89 $35 $90 $91 forward $21 $-1 #
coedge $-1 $35 $89 $92 $93 forward $21 $-1 #
coedge $-1 $94 $95 $35 $56 reversed $96 $-1 #
edge $-1 $97 -23.1617213295841 $98 23.1617213295841 $55 $99 forward 7 unknown #
face $-1 $100 $101 $13 $-1 $102 forward single #
loop $-1 $-1 $103 $36 #
plane-surface $-1 -26.628557037461448 -19.968457599201898 0 -1 0 0 0 0 1 forward_v I I I I #
coedge $-1 $104 $105 $106 $107 reversed $37 $-1 #
coedge $-1 $108 $39 $109 $110 reversed $24 $-1 #
coedge $-1 $39 $108 $111 $112 reversed $24 $-1 #
coedge $-1 $105 $104 $39 $64 forward $37 $-1 #
edge $-1 $113 -8.8830541635410754 $114 8.8830541635410754 $63 $115 forward 7 unknown #
face $-1 $116 $117 $14 $-1 $118 forward single #
loop $-1 $-1 $119 $40 #
plane-surface $-1 44.394665364543599 0 0 -1 0 0 0 0 1 forward_v I I I I #
coedge $-1 $120 $121 $119 $122 reversed $41 $-1 #
coedge $-1 $70 $43 $121 $123 forward $27 $-1 #
coedge $-1 $43 $69 $124 $125 reversed $27 $-1 #
coedge $-1 $126 $119 $43 $72 forward $66 $-1 #
edge $-1 $127 -61.034948189627357 $128 -55.171252584033866 $71 $129 forward 7 unknown #
face $-1 $130 $131 $15 $-1 $132 forward single #
loop $-1 $-1 $133 $44 #
plane-surface $-1 55.338558725412568 11.517421041809431 128.10861349514988 0 1 0 0.7660444514056185 0 0.64278759981090561 forward_v I I I I #
loop $-1 $-1 $134 $29 #
coedge $-1 $77 $77 $78 $135 forward $45 $-1 #
coedge $-1 $78 $78 $77 $135 reversed $47 $-1 #
coedge $-1 $79 $79 $48 $80 forward $131 $-1 #
edge $-1 $136 0 $136 6.2831853071796004 $79 $137 forward 7 unknown #
face $-1 $138 $139 $12 $-1 $140 reversed single #
loop $-1 $-1 $141 $49 #
plane-surface $-1 -44.394665364543599 0 0 1 0 0 0 0 -1 forward_v I I I I #
coedge $-1 $142 $92 $143 $144 forward $50 $-1 #
coedge $-1 $145 $52 $142 $146 forward $33 $-1 #
coedge $-1 $52 $145 $147 $148 forward $33 $-1 #
coedge $-1 $95 $94 $52 $88 reversed $96 $-1 #
edge $-1 $149 -23.1617213295841 $150 23.1617213295841 $87 $151 forward 7 unknown #
coedge $-1 $54 $53 $152 $153 forward $21 $-1 #
coedge $-1 $154 $155 $53 $91 reversed $139 $-1 #
edge $-1 $98 -44.394665364543599 $156 44.394665364543599 $90 $157 forward 7 unknown #
coedge $-1 $84 $158 $54 $93 reversed $50 $-1 #
edge $-1 $159 -44.394665364543599 $97 44.394665364543599 $92 $160 forward 7 unknown #
coedge $-1 $87 $55 $158 $161 forward $96 $-1 #
coedge $-1 $55 $87 $154 $162 reversed $96 $-1 #
loop $-1 $-1 $94 $138 #
vertex $-1 $56 $163 #
vertex $-1 $56 $164 #
straight-curve $-1 44.394665364543599 0 8.8830541635410754 0 1 0 I I #
face $-1 $165 $166 $13 $-1 $167 reversed single #
loop $-1 $-1 $109 $57 #
plane-surface $-1 0 0 8.8830541635410754 0 0 1 1 0 0 forward_v I I I I #
coedge $-1 $168 $169 $170 $171 reversed $58 $-1 #
coedge $-1 $63 $60 $172 $173 reversed $37 $-1 #
coedge $-1 $60 $63 $174 $175 reversed $37 $-1 #
coedge $-1 $169 $168 $60 $107 forward $58 $-1 #
edge $-1 $176 -8.8830541635410754 $177 8.8830541635410754 $106 $178 forward 7 unknown #
coedge $-1 $62 $61 $179 $180 reversed $24 $-1 #
coedge $-1 $172 $181 $61 $110 forward $101 $-1 #
edge $-1 $182 -13.177492529983152 $113 -6.7909650692187462 $109 $183 forward 7 unknown #
coedge $-1 $184 $174 $62 $112 forward $185 $-1 #
edge $-1 $114 6.7909650692187462 $186 13.177492529983152 $111 $187 forward 7 unknown #
vertex $-1 $110 $188 #
vertex $-1 $112 $189 #
straight-curve $-1 -29.628557037461448 -16.775193868819695 0 0 0 -1 I I #
face $-1 $190 $191 $14 $-1 $192 forward single #
loop $-1 $-1 $124 $65 #
plane-surface $-1 0 0 8.8830541635410754 0 0 1 1 0 0 forward_v I I I I #
coedge $-1 $71 $193 $68 $122 forward $66 $-1 #
coedge $-1 $194 $68 $195 $196 reversed $41 $-1 #
coedge $-1 $68 $194 $69 $123 reversed $41 $-1 #
edge $-1 $197 -14.491935736735718 $127 -2.8476354489610483 $119 $198 forward 7 unknown #
edge $-1 $127 -88.78933072908724 $199 -81.134819825922065 $69 $200 forward 7 unknown #
coedge $-1 $201 $202 $70 $125 forward $117 $-1 #
edge $-1 $128 -16.725386001837315 $199 -11.805161310665362 $124 $203 forward 7 unknown #
coedge $-1 $204 $71 $202 $205 reversed $66 $-1 #
vertex $-1 $122 $206 #
vertex $-1 $125 $207 #
straight-curve $-1 44.394665364543599 11.517421041809431 64.054306747574941 0 0 1 I I #
face $-1 $208 $209 $15 $-1 $210 reversed single #
loop $-1 $211 $79 $73 #
plane-surface $-1 -12.678015423623066 17.339571185696766 71.035932706983232 0.7660444514056185 0 0.64278759981090561 0.64278759981090561 0 -0.7660444514056185 forward_v I I I I #
coedge $-1 $212 $213 $214 $215 reversed $74 $-1 #
coedge $-1 $134 $134 $-1 $216 forward $76 $-1 #
edge $-1 $217 0 $217 6.2831853071796004 $77 $218 forward 7 unknown #
vertex $-1 $80 $219 #
ellipse-curve $-1 41.934553018957615 17.339571185696766 5.9512063607443331 -0.7660444514056185 0 -0.64278759981090561 0.96418139971635841 0 -1.1490666771084277 1 I I #
face $-1 $-1 $96 $12 $-1 $220 reversed single #
loop $-1 $-1 $154 $81 #
plane-surface $-1 0 23.1617213295841 0 0 -1 0 0 0 -1 forward_v I I I I #
coedge $-1 $221 $152 $155 $222 forward $82 $-1 #
coedge $-1 $158 $84 $85 $146 reversed $50 $-1 #
coedge $-1 $152 $221 $84 $144 reversed $82 $-1 #
edge $-1 $159 -8.8830541635410754 $223 8.8830541635410754 $143 $224 forward 7 unknown #
coedge $-1 $86 $85 $221 $225 forward $33 $-1 #
edge $-1 $150 -44.394665364543599 $223 44.394665364543599 $142 $226 forward 7 unknown #
coedge $-1 $155 $154 $86 $148 reversed $139 $-1 #
edge $-1 $227 -44.394665364543599 $149 44.394665364543599 $147 $228 forward 7 unknown #
vertex $-1 $88 $229 #
vertex $-1 $161 $230 #
straight-curve $-1 44.394665364543599 0 -8.8830541635410754 0 -1 0 I I #
coedge $-1 $141 $143 $89 $153 reversed $82 $-1 #
edge $-1 $156 -23.1617213295841 $159 23.1617213295841 $152 $231 forward 7 unknown #
coedge $-1 $147 $90 $95 $162 forward $139 $-1 #
coedge $-1 $90 $147 $141 $222 reversed $139 $-1 #
vertex $-1 $91 $232 #
straight-curve $-1 0 23.1617213295841 8.8830541635410754 -1 0 0 I I #
coedge $-1 $92 $142 $94 $161 reversed $50 $-1 #
vertex $-1 $153 $233 #
straight-curve $-1 0 -23.1617213295841 8.8830541635410754 1 0 0 I I #
edge $-1 $97 -8.8830541635410754 $150 8.8830541635410754 $94 $234 forward 7 unknown #
edge $-1 $98 -8.8830541635410754 $149 8.8830541635410754 $95 $235 forward 7 unknown #
point $-1 44.394665364543599 -23.1617213295841 8.8830541635410754 #
point $-1 44.394665364543599 23.1617213295841 8.8830541635410754 #
face $-1 $236 $185 $13 $-1 $237 reversed single #
loop $-1 $-1 $170 $100 #
plane-surface $-1 0 -23.1617213295841 0 0 1 0 0 0 1 forward_v I I I I #
coedge $-1 $106 $103 $238 $239 reversed $58 $-1 #
coedge $-1 $103 $106 $240 $241 reversed $58 $-1 #
coedge $-1 $242 $243 $103 $171 forward $166 $-1 #
edge $-1 $244 -8.8830541635410754 $245 8.8830541635410754 $170 $246 forward 7 unknown #
coedge $-1 $238 $109 $104 $173 forward $101 $-1 #
edge $-1 $113 -15.564278518730724 $176 -12.564278518730724 $172 $247 forward 7 unknown #
coedge $-1 $111 $240 $105 $175 forward $185 $-1 #
edge $-1 $177 12.564278518730724 $114 15.564278518730724 $174 $248 forward 7 unknown #
vertex $-1 $173 $249 #
vertex $-1 $175 $250 #
straight-curve $-1 -26.628557037461448 -16.775193868819695 0 0 0 -1 I I #
coedge $-1 $251 $252 $108 $180 forward $253 $-1 #
edge $-1 $186 -8.8830541635410754 $182 8.8830541635410754 $179 $254 forward 7 unknown #
coedge $-1 $109 $255 $251 $256 forward $101 $-1 #
vertex $-1 $180 $257 #
straight-curve $-1 -29.628557037461448 -9.9842287996009489 8.8830541635410754 0 1 0 I I #
coedge $-1 $258 $111 $252 $259 forward $185 $-1 #
loop $-1 $-1 $111 $165 #
vertex $-1 $259 $260 #
straight-curve $-1 -29.628557037461448 -9.9842287996009489 -8.8830541635410754 0 -1 0 I I #
point $-1 -29.628557037461448 -16.775193868819695 8.8830541635410754 #
point $-1 -29.628557037461448 -16.775193868819695 -8.8830541635410754 #
face $-1 $261 $262 $14 $-1 $263 forward single #
loop $-1 $-1 $264 $116 #
plane-surface $-1 -29.628557037461448 -19.968457599201898 0 1 0 0 0 0 -1 forward_v I I I I #
coedge $-1 $119 $265 $266 $267 reversed $66 $-1 #
coedge $-1 $121 $120 $201 $268 reversed $41 $-1 #
coedge $-1 $266 $269 $120 $196 forward $270 $-1 #
edge $-1 $271 49.851843223360191 $197 57.506354126525366 $195 $272 forward 7 unknown #
vertex $-1 $267 $273 #
straight-curve $-1 44.394665364543599 8.6697855928483829 3.0193585579475979 0 -1 0 I I #
vertex $-1 $268 $274 #
straight-curve $-1 -12.678015423623066 11.517421041809431 71.035932706983232 -0.64278759981090561 0 0.7660444514056185 I I #
coedge $-1 $275 $124 $194 $268 forward $117 $-1 #
coedge $-1 $124 $276 $126 $205 forward $117 $-1 #
straight-curve $-1 27.669279362706284 11.517421041809431 8.8830541635410754 -1 0 0 I I #
coedge $-1 $265 $126 $277 $278 forward $66 $-1 #
edge $-1 $279 -23.1617213295841 $128 11.517421041809431 $126 $280 forward 7 unknown #
point $-1 44.394665364543599 11.517421041809431 3.0193585579475837 #
point $-1 44.394665364543599 11.517421041809431 8.8830541635410754 #
face $-1 $281 $282 $15 $-1 $283 forward single #
loop $-1 $-1 $284 $130 #
plane-surface $-1 44.394665364543599 0 0 -1 0 0 0 0 1 forward_v I I I I #
loop $-1 $-1 $285 $73 #
coedge $-1 $213 $133 $286 $287 forward $74 $-1 #
coedge $-1 $133 $212 $288 $289 reversed $74 $-1 #
coedge $-1 $290 $284 $133 $215 forward $209 $-1 #
edge $-1 $291 -61.034948189627357 $292 -55.171252584033866 $214 $293 forward 7 unknown #
edge $-1 $294 1 $294 0 $134 $-1 forward 7 unknown #
vertex $-1 $135 $295 #
ellipse-curve $-1 37.860200411766179 17.339571185696766 2.5324186802717779 0.7660444514056185 0 0.64278759981090561 0.96418139971635841 0 -1.1490666771084277 1 I I #
point $-1 42.898734418674003 17.339571185696766 4.8021396836359314 #
plane-surface $-1 44.394665364543599 0 0 -1 0 0 0 0 1 forward_v I I I I #
coedge $-1 $143 $141 $145 $225 reversed $82 $-1 #
edge $-1 $156 -8.8830541635410754 $227 8.8830541635410754 $155 $296 forward 7 unknown #
vertex $-1 $225 $297 #
straight-curve $-1 -44.394665364543599 -23.1617213295841 0 0 0 -1 I I #
edge $-1 $223 -23.1617213295841 $227 23.1617213295841 $221 $298 forward 7 unknown #
straight-curve $-1 0 -23.1617213295841 -8.8830541635410754 -1 0 0 I I #
vertex $-1 $148 $299 #
straight-curve $-1 0 23.1617213295841 -8.8830541635410754 1 0 0 I I #
point $-1 44.394665364543599 23.1617213295841 -8.8830541635410754 #
point $-1 44.394665364543599 -23.1617213295841 -8.8830541635410754 #
straight-curve $-1 -44.394665364543599 0 8.8830541635410754 0 -1 0 I I #
point $-1 -44.394665364543599 23.1617213295841 8.8830541635410754 #
point $-1 -44.394665364543599 -23.1617213295841 8.8830541635410754 #
straight-curve $-1 44.394665364543599 -23.1617213295841 0 0 0 -1 I I #
straight-curve $-1 44.394665364543599 23.1617213295841 0 0 0 -1 I I #
face $-1 $300 $253 $13 $-1 $167 reversed single #
plane-surface $-1 0 0 -8.8830541635410754 0 0 1 1 0 0 forward_v I I I I #
coedge $-1 $301 $172 $168 $239 forward $101 $-1 #
edge $-1 $176 6.7909650692187462 $244 13.177492529983152 $238 $302 forward 7 unknown #
coedge $-1 $174 $303 $169 $241 forward $185 $-1 #
edge $-1 $245 -13.177492529983152 $177 -6.7909650692187462 $240 $304 forward 7 unknown #
coedge $-1 $305 $170 $303 $306 reversed $166 $-1 #
coedge $-1 $170 $305 $301 $307 reversed $166 $-1 #
vertex $-1 $307 $308 #
vertex $-1 $171 $309 #
straight-curve $-1 -26.628557037461448 -23.1617213295841 0 0 0 -1 I I #
straight-curve $-1 -14.064278518730724 -16.775193868819695 8.8830541635410754 1 0 0 I I #
straight-curve $-1 -14.064278518730724 -16.775193868819695 -8.8830541635410754 -1 0 0 I I #
point $-1 -26.628557037461448 -16.775193868819695 8.8830541635410754 #
point $-1 -26.628557037461448 -16.775193868819695 -8.8830541635410754 #
coedge $-1 $310 $179 $181 $256 reversed $253 $-1 #
coedge $-1 $179 $310 $184 $259 reversed $253 $-1 #
loop $-1 $-1 $179 $236 #
straight-curve $-1 -29.628557037461448 -23.1617213295841 0 0 0 1 I I #
coedge $-1 $181 $311 $312 $313 forward $101 $-1 #
edge $-1 $314 -44.394665364543599 $182 -29.628557037461448 $251 $315 forward 7 unknown #
point $-1 -29.628557037461448 -23.1617213295841 8.8830541635410754 #
coedge $-1 $316 $184 $317 $318 forward $185 $-1 #
edge $-1 $186 29.628557037461448 $319 44.394665364543599 $252 $320 forward 7 unknown #
point $-1 -29.628557037461448 -23.1617213295841 -8.8830541635410754 #
face $-1 $321 $322 $14 $-1 $323 forward single #
loop $-1 $-1 $324 $190 #
plane-surface $-1 -28.128557037461448 -16.775193868819695 0 0 -1 0 0 0 -1 forward_v I I I I #
coedge $-1 $325 $326 $327 $328 reversed $191 $-1 #
coedge $-1 $193 $204 $329 $330 reversed $66 $-1 #
coedge $-1 $331 $195 $193 $267 forward $270 $-1 #
edge $-1 $197 -3.0193585579475894 $332 8.8830541635410754 $193 $333 forward 7 unknown #
edge $-1 $199 2.8476354489610483 $271 14.491935736735718 $201 $334 forward 7 unknown #
coedge $-1 $195 $335 $275 $336 reversed $270 $-1 #
loop $-1 $-1 $195 $337 #
vertex $-1 $336 $338 #
straight-curve $-1 7.4302940216783888 23.1617213295841 47.071782057138932 0.64278759981090572 0 -0.76604445140561861 I I #
point $-1 44.394665364543599 23.1617213295841 3.0193585579475894 #
point $-1 39.474440673371646 11.517421041809431 8.8830541635410754 #
coedge $-1 $339 $201 $269 $336 forward $117 $-1 #
coedge $-1 $202 $340 $341 $342 forward $117 $-1 #
coedge $-1 $341 $343 $204 $278 reversed $344 $-1 #
edge $-1 $279 -8.8830541635410754 $345 8.8830541635410754 $204 $346 forward 7 unknown #
vertex $-1 $205 $347 #
straight-curve $-1 44.394665364543599 0 8.8830541635410754 0 1 0 I I #
face $-1 $348 $349 $15 $-1 $350 forward single #
loop $-1 $-1 $288 $208 #
plane-surface $-1 0 0 8.8830541635410754 0 0 1 1 0 0 forward_v I I I I #
coedge $-1 $214 $351 $285 $352 forward $209 $-1 #
coedge $-1 $353 $286 $284 $352 reversed $211 $-1 #
coedge $-1 $285 $354 $212 $287 reversed $211 $-1 #
edge $-1 $291 -88.78933072908724 $355 -81.134819825922065 $212 $356 forward 7 unknown #
coedge $-1 $357 $358 $213 $289 forward $282 $-1 #
edge $-1 $292 -16.725386001837315 $355 -11.805161310665362 $288 $359 forward 7 unknown #
coedge $-1 $360 $214 $358 $361 reversed $209 $-1 #
vertex $-1 $352 $362 #
vertex $-1 $289 $363 #
straight-curve $-1 44.394665364543599 11.517421041809431 64.054306747574941 0 0 1 I I #
vertex $-1 $216 $364 #
point $-1 38.824381811482539 17.339571185696766 1.3833520031633499 #
straight-curve $-1 -44.394665364543599 23.1617213295841 0 0 0 -1 I I #
point $-1 -44.394665364543599 -23.1617213295841 -8.8830541635410754 #
straight-curve $-1 -44.394665364543599 0 -8.8830541635410754 0 1 0 I I #
point $-1 -44.394665364543599 23.1617213295841 -8.8830541635410754 #
face $-1 $365 $366 $13 $-1 $367 reversed single #
coedge $-1 $368 $238 $243 $307 forward $101 $-1 #
straight-curve $-1 -26.628557037461448 -9.9842287996009489 8.8830541635410754 0 -1 0 I I #
coedge $-1 $240 $369 $242 $306 forward $185 $-1 #
straight-curve $-1 -26.628557037461448 -9.9842287996009489 -8.8830541635410754 0 1 0 I I #
coedge $-1 $243 $242 $370 $371 reversed $166 $-1 #
edge $-1 $372 -44.394665364543599 $245 26.628557037461448 $242 $320 forward 7 unknown #
edge $-1 $244 -26.628557037461448 $373 44.394665364543599 $243 $315 forward 7 unknown #
point $-1 -26.628557037461448 -23.1617213295841 8.8830541635410754 #
point $-1 -26.628557037461448 -23.1617213295841 -8.8830541635410754 #
coedge $-1 $252 $251 $374 $375 forward $253 $-1 #
coedge $-1 $255 $368 $376 $377 forward $101 $-1 #
coedge $-1 $378 $374 $255 $313 reversed $366 $-1 #
edge $-1 $379 -23.1617213295841 $314 23.1617213295841 $312 $380 forward 7 unknown #
vertex $-1 $313 $381 #
straight-curve $-1 0 -23.1617213295841 8.8830541635410754 1 0 0 I I #
coedge $-1 $369 $258 $382 $383 forward $185 $-1 #
coedge $-1 $374 $378 $258 $318 reversed $366 $-1 #
edge $-1 $319 -23.1617213295841 $384 23.1617213295841 $317 $385 forward 7 unknown #
vertex $-1 $318 $386 #
straight-curve $-1 0 -23.1617213295841 -8.8830541635410754 -1 0 0 I I #
face $-1 $387 $344 $14 $-1 $388 reversed single #
loop $-1 $-1 $389 $261 #
plane-surface $-1 -26.628557037461448 -19.968457599201898 0 -1 0 0 0 0 1 forward_v I I I I #
coedge $-1 $390 $391 $392 $393 reversed $262 $-1 #
coedge $-1 $394 $264 $395 $396 reversed $191 $-1 #
coedge $-1 $264 $394 $397 $398 reversed $191 $-1 #
coedge $-1 $391 $390 $264 $328 forward $262 $-1 #
edge $-1 $399 -8.8830541635410754 $400 8.8830541635410754 $327 $401 forward 7 unknown #
coedge $-1 $402 $403 $265 $330 forward $404 $-1 #
edge $-1 $332 -23.1617213295841 $345 23.1617213295841 $265 $405 forward 7 unknown #
coedge $-1 $335 $266 $403 $406 reversed $270 $-1 #
vertex $-1 $330 $407 #
straight-curve $-1 44.394665364543599 23.1617213295841 0 0 0 -1 I I #
straight-curve $-1 39.474440673371646 8.6697855928483829 8.8830541635410754 0 1 0 I I #
coedge $-1 $269 $331 $408 $409 reversed $270 $-1 #
edge $-1 $271 -39.474440673371646 $410 44.394665364543599 $269 $411 forward 7 unknown #
face $-1 $-1 $270 $14 $-1 $412 reversed single #
point $-1 39.474440673371646 23.1617213295841 8.8830541635410754 #
coedge $-1 $413 $275 $414 $415 forward $117 $-1 #
coedge $-1 $276 $416 $417 $418 forward $117 $-1 #
coedge $-1 $419 $277 $276 $342 reversed $344 $-1 #
edge $-1 $420 -26.628557037461448 $279 44.394665364543599 $341 $421 forward 7 unknown #
coedge $-1 $277 $419 $402 $422 reversed $344 $-1 #
loop $-1 $-1 $419 $321 #
vertex $-1 $278 $423 #
straight-curve $-1 44.394665364543599 -23.1617213295841 0 0 0 -1 I I #
point $-1 44.394665364543599 -23.1617213295841 8.8830541635410754 #
face $-1 $424 $425 $15 $-1 $426 forward single #
loop $-1 $-1 $427 $281 #
plane-surface $-1 -29.628557037461448 -19.968457599201898 0 1 0 0 0 0 -1 forward_v I I I I #
coedge $-1 $284 $428 $429 $430 reversed $209 $-1 #
edge $-1 $431 -14.491935736735718 $291 -2.8476354489610483 $284 $432 forward 7 unknown #
coedge $-1 $354 $285 $433 $434 reversed $211 $-1 #
coedge $-1 $286 $353 $357 $435 reversed $211 $-1 #
vertex $-1 $435 $436 #
straight-curve $-1 -12.678015423623066 11.517421041809431 71.035932706983232 -0.64278759981090561 0 0.7660444514056185 I I #
coedge $-1 $437 $288 $354 $435 forward $282 $-1 #
coedge $-1 $288 $438 $290 $361 forward $282 $-1 #
straight-curve $-1 27.669279362706284 11.517421041809431 8.8830541635410754 -1 0 0 I I #
coedge $-1 $428 $290 $439 $440 forward $209 $-1 #
edge $-1 $441 -23.1617213295841 $292 11.517421041809431 $290 $442 forward 7 unknown #
point $-1 44.394665364543599 11.517421041809431 3.0193585579475837 #
point $-1 44.394665364543599 11.517421041809431 8.8830541635410754 #
point $-1 36.711133734657757 17.339571185696766 1.5682372805554192 #
face $-1 $443 $444 $13 $-1 $445 reversed single #
loop $-1 $-1 $378 $300 #
plane-surface $-1 -44.394665364543599 0 0 1 0 0 0 0 -1 forward_v I I I I #
coedge $-1 $311 $301 $446 $447 forward $101 $-1 #
coedge $-1 $303 $316 $448 $449 forward $185 $-1 #
coedge $-1 $448 $446 $305 $371 forward $450 $-1 #
edge $-1 $373 -8.8830541635410754 $372 8.8830541635410754 $370 $451 forward 7 unknown #
vertex $-1 $371 $452 #
vertex $-1 $447 $453 #
coedge $-1 $312 $317 $310 $375 reversed $366 $-1 #
edge $-1 $314 -8.8830541635410754 $319 8.8830541635410754 $374 $454 forward 7 unknown #
coedge $-1 $455 $456 $311 $377 reversed $444 $-1 #
edge $-1 $457 -44.394665364543599 $379 44.394665364543599 $376 $458 forward 7 unknown #
coedge $-1 $317 $312 $456 $459 forward $366 $-1 #
vertex $-1 $377 $460 #
straight-curve $-1 -44.394665364543599 0 8.8830541635410754 0 -1 0 I I #
point $-1 -44.394665364543599 -23.1617213295841 8.8830541635410754 #
coedge $-1 $456 $455 $316 $383 reversed $444 $-1 #
edge $-1 $384 -44.394665364543599 $461 44.394665364543599 $382 $462 forward 7 unknown #
vertex $-1 $383 $463 #
straight-curve $-1 -44.394665364543599 0 -8.8830541635410754 0 1 0 I I #
point $-1 -44.394665364543599 -23.1617213295841 -8.8830541635410754 #
face $-1 $464 $404 $14 $-1 $465 reversed single #
plane-surface $-1 0 -23.1617213295841 0 0 1 0 0 0 1 forward_v I I I I #
coedge $-1 $417 $466 $419 $467 reversed $322 $-1 #
coedge $-1 $327 $324 $416 $468 reversed $262 $-1 #
coedge $-1 $324 $327 $469 $470 reversed $262 $-1 #
coedge $-1 $466 $417 $324 $393 forward $322 $-1 #
edge $-1 $471 -8.8830541635410754 $472 8.8830541635410754 $392 $473 forward 7 unknown #
coedge $-1 $326 $325 $474 $475 reversed $191 $-1 #
coedge $-1 $416 $413 $325 $396 forward $117 $-1 #
edge $-1 $476 -13.177492529983152 $399 -6.7909650692187462 $395 $477 forward 7 unknown #
coedge $-1 $478 $469 $326 $398 forward $404 $-1 #
edge $-1 $400 6.7909650692187462 $479 13.177492529983152 $397 $480 forward 7 unknown #
vertex $-1 $396 $481 #
vertex $-1 $398 $482 #
straight-curve $-1 -29.628557037461448 -16.775193868819695 0 0 0 -1 I I #
coedge $-1 $483 $329 $343 $422 forward $404 $-1 #
coedge $-1 $329 $484 $331 $406 forward $404 $-1 #
loop $-1 $-1 $397 $387 #
straight-curve $-1 44.394665364543599 0 -8.8830541635410754 0 -1 0 I I #
edge $-1 $485 -44.394665364543599 $332 44.394665364543599 $331 $486 forward 7 unknown #
point $-1 44.394665364543599 23.1617213295841 -8.8830541635410754 #
coedge $-1 $487 $414 $335 $409 forward $488 $-1 #
edge $-1 $410 -8.8830541635410754 $485 8.8830541635410754 $335 $489 forward 7 unknown #
vertex $-1 $336 $490 #
straight-curve $-1 0 23.1617213295841 8.8830541635410754 -1 0 0 I I #
plane-surface $-1 0 23.1617213295841 0 0 -1 0 0 0 -1 forward_v I I I I #
coedge $-1 $395 $339 $491 $492 forward $117 $-1 #
coedge $-1 $408 $493 $339 $415 reversed $488 $-1 #
edge $-1 $410 -23.1617213295841 $494 23.1617213295841 $414 $495 forward 7 unknown #
coedge $-1 $340 $395 $390 $468 forward $117 $-1 #
coedge $-1 $392 $389 $340 $418 reversed $322 $-1 #
edge $-1 $471 6.7909650692187462 $420 13.177492529983152 $340 $496 forward 7 unknown #
coedge $-1 $343 $341 $389 $467 forward $344 $-1 #
vertex $-1 $342 $497 #
straight-curve $-1 0 -23.1617213295841 8.8830541635410754 1 0 0 I I #
edge $-1 $345 -44.394665364543599 $498 26.628557037461448 $343 $499 forward 7 unknown #
point $-1 44.394665364543599 -23.1617213295841 -8.8830541635410754 #
face $-1 $500 $501 $15 $-1 $502 forward single #
loop $-1 $-1 $503 $348 #
plane-surface $-1 -28.128557037461448 -16.775193868819695 0 0 -1 0 0 0 -1 forward_v I I I I #
coedge $-1 $504 $505 $506 $507 reversed $349 $-1 #
coedge $-1 $351 $360 $508 $509 reversed $209 $-1 #
coedge $-1 $510 $433 $351 $430 forward $511 $-1 #
edge $-1 $431 -3.0193585579475894 $512 8.8830541635410754 $351 $513 forward 7 unknown #
vertex $-1 $430 $514 #
straight-curve $-1 44.394665364543599 8.6697855928483829 3.0193585579475979 0 -1 0 I I #
coedge $-1 $429 $515 $353 $434 forward $511 $-1 #
edge $-1 $516 49.851843223360191 $431 57.506354126525366 $433 $517 forward 7 unknown #
edge $-1 $355 2.8476354489610483 $516 14.491935736735718 $357 $518 forward 7 unknown #
point $-1 39.474440673371646 11.517421041809431 8.8830541635410754 #
coedge $-1 $519 $357 $515 $520 forward $282 $-1 #
coedge $-1 $358 $521 $522 $523 forward $282 $-1 #
coedge $-1 $522 $524 $360 $440 reversed $525 $-1 #
edge $-1 $441 -8.8830541635410754 $526 8.8830541635410754 $360 $527 forward 7 unknown #
vertex $-1 $361 $528 #
straight-curve $-1 44.394665364543599 0 8.8830541635410754 0 1 0 I I #
face $-1 $-1 $450 $13 $-1 $529 reversed single #
loop $-1 $-1 $455 $365 #
plane-surface $-1 0 23.1617213295841 0 0 -1 0 0 0 -1 forward_v I I I I #
coedge $-1 $370 $530 $368 $447 reversed $450 $-1 #
edge $-1 $373 -23.1617213295841 $457 23.1617213295841 $446 $531 forward 7 unknown #
coedge $-1 $530 $370 $369 $449 reversed $450 $-1 #
edge $-1 $461 -23.1617213295841 $372 23.1617213295841 $448 $532 forward 7 unknown #
loop $-1 $-1 $370 $443 #
straight-curve $-1 44.394665364543599 -23.1617213295841 0 0 0 -1 I I #
point $-1 44.394665364543599 -23.1617213295841 -8.8830541635410754 #
point $-1 44.394665364543599 -23.1617213295841 8.8830541635410754 #
straight-curve $-1 -44.394665364543599 -23.1617213295841 0 0 0 -1 I I #
coedge $-1 $382 $376 $530 $533 forward $444 $-1 #
coedge $-1 $376 $382 $378 $459 reversed $444 $-1 #
vertex $-1 $447 $534 #
straight-curve $-1 0 23.1617213295841 8.8830541635410754 -1 0 0 I I #
edge $-1 $379 -8.8830541635410754 $384 8.8830541635410754 $456 $535 forward 7 unknown #
point $-1 -44.394665364543599 23.1617213295841 8.8830541635410754 #
vertex $-1 $449 $536 #
straight-curve $-1 0 23.1617213295841 -8.8830541635410754 1 0 0 I I #
point $-1 -44.394665364543599 23.1617213295841 -8.8830541635410754 #
face $-1 $537 $538 $14 $-1 $388 reversed single #
plane-surface $-1 0 0 -8.8830541635410754 0 0 1 1 0 0 forward_v I I I I #
coedge $-1 $389 $392 $483 $539 reversed $322 $-1 #
edge $-1 $420 -8.8830541635410754 $498 8.8830541635410754 $419 $540 forward 7 unknown #
edge $-1 $399 -15.564278518730724 $471 -12.564278518730724 $416 $541 forward 7 unknown #
coedge $-1 $397 $483 $391 $470 forward $404 $-1 #
edge $-1 $472 12.564278518730724 $400 15.564278518730724 $469 $542 forward 7 unknown #
vertex $-1 $468 $543 #
vertex $-1 $470 $544 #
straight-curve $-1 -26.628557037461448 -16.775193868819695 0 0 0 -1 I I #
coedge $-1 $491 $545 $394 $475 forward $538 $-1 #
edge $-1 $479 -8.8830541635410754 $476 8.8830541635410754 $474 $546 forward 7 unknown #
vertex $-1 $475 $547 #
straight-curve $-1 -29.628557037461448 -9.9842287996009489 8.8830541635410754 0 1 0 I I #
coedge $-1 $484 $397 $545 $548 forward $404 $-1 #
vertex $-1 $548 $549 #
straight-curve $-1 -29.628557037461448 -9.9842287996009489 -8.8830541635410754 0 -1 0 I I #
point $-1 -29.628557037461448 -16.775193868819695 8.8830541635410754 #
point $-1 -29.628557037461448 -16.775193868819695 -8.8830541635410754 #
coedge $-1 $469 $402 $466 $539 forward $404 $-1 #
coedge $-1 $403 $478 $487 $550 forward $404 $-1 #
vertex $-1 $406 $551 #
straight-curve $-1 0 23.1617213295841 -8.8830541635410754 1 0 0 I I #
coedge $-1 $493 $408 $484 $550 reversed $488 $-1 #
loop $-1 $-1 $408 $537 #
straight-curve $-1 -44.394665364543599 23.1617213295841 0 0 0 -1 I I #
point $-1 -44.394665364543599 23.1617213295841 8.8830541635410754 #
coedge $-1 $552 $474 $413 $492 reversed $538 $-1 #
edge $-1 $494 -44.394665364543599 $476 -29.628557037461448 $491 $421 forward 7 unknown #
coedge $-1 $414 $487 $552 $553 reversed $488 $-1 #
vertex $-1 $415 $554 #
straight-curve $-1 -44.394665364543599 0 8.8830541635410754 0 -1 0 I I #
straight-curve $-1 -26.628557037461448 -9.9842287996009489 8.8830541635410754 0 -1 0 I I #
point $-1 -26.628557037461448 -23.1617213295841 8.8830541635410754 #
vertex $-1 $467 $555 #
straight-curve $-1 0 -23.1617213295841 -8.8830541635410754 -1 0 0 I I #
face $-1 $556 $525 $15 $-1 $557 reversed single #
loop $-1 $-1 $558 $424 #
plane-surface $-1 -26.628557037461448 -19.968457599201898 0 -1 0 0 0 0 1 forward_v I I I I #
coedge $-1 $559 $560 $561 $562 reversed $425 $-1 #
coedge $-1 $563 $427 $564 $565 reversed $349 $-1 #
coedge $-1 $427 $563 $566 $567 reversed $349 $-1 #
coedge $-1 $560 $559 $427 $507 forward $425 $-1 #
edge $-1 $568 -8.8830541635410754 $569 8.8830541635410754 $506 $570 forward 7 unknown #
coedge $-1 $571 $572 $428 $509 forward $573 $-1 #
edge $-1 $512 -23.1617213295841 $526 23.1617213295841 $428 $574 forward 7 unknown #
coedge $-1 $575 $429 $572 $576 reversed $511 $-1 #
loop $-1 $-1 $433 $577 #
vertex $-1 $509 $578 #
straight-curve $-1 44.394665364543599 23.1617213295841 0 0 0 -1 I I #
point $-1 44.394665364543599 23.1617213295841 3.0193585579475894 #
coedge $-1 $433 $575 $437 $520 reversed $511 $-1 #
vertex $-1 $520 $579 #
straight-curve $-1 7.4302940216783888 23.1617213295841 47.071782057138932 0.64278759981090572 0 -0.76604445140561861 I I #
straight-curve $-1 39.474440673371646 8.6697855928483829 8.8830541635410754 0 1 0 I I #
coedge $-1 $580 $437 $581 $582 forward $282 $-1 #
edge $-1 $516 -39.474440673371646 $583 44.394665364543599 $515 $584 forward 7 unknown #
coedge $-1 $438 $585 $586 $587 forward $282 $-1 #
coedge $-1 $588 $439 $438 $523 reversed $525 $-1 #
edge $-1 $589 -26.628557037461448 $441 44.394665364543599 $522 $590 forward 7 unknown #
coedge $-1 $439 $588 $571 $591 reversed $525 $-1 #
loop $-1 $-1 $588 $500 #
vertex $-1 $440 $592 #
straight-curve $-1 44.394665364543599 -23.1617213295841 0 0 0 -1 I I #
point $-1 44.394665364543599 -23.1617213295841 8.8830541635410754 #
plane-surface $-1 44.394665364543599 0 0 -1 0 0 0 0 1 forward_v I I I I #
coedge $-1 $446 $448 $455 $533 reversed $450 $-1 #
straight-curve $-1 44.394665364543599 0 8.8830541635410754 0 1 0 I I #
straight-curve $-1 44.394665364543599 0 -8.8830541635410754 0 -1 0 I I #
edge $-1 $457 -8.8830541635410754 $461 8.8830541635410754 $530 $593 forward 7 unknown #
point $-1 44.394665364543599 23.1617213295841 8.8830541635410754 #
straight-curve $-1 -44.394665364543599 23.1617213295841 0 0 0 -1 I I #
point $-1 44.394665364543599 23.1617213295841 -8.8830541635410754 #
face $-1 $337 $488 $14 $-1 $594 reversed single #
loop $-1 $-1 $474 $464 #
edge $-1 $498 -13.177492529983152 $472 -6.7909650692187462 $483 $595 forward 7 unknown #
straight-curve $-1 -26.628557037461448 -23.1617213295841 0 0 0 -1 I I #
straight-curve $-1 -14.064278518730724 -16.775193868819695 8.8830541635410754 1 0 0 I I #
straight-curve $-1 -14.064278518730724 -16.775193868819695 -8.8830541635410754 -1 0 0 I I #
point $-1 -26.628557037461448 -16.775193868819695 8.8830541635410754 #
point $-1 -26.628557037461448 -16.775193868819695 -8.8830541635410754 #
coedge $-1 $474 $552 $478 $548 reversed $538 $-1 #
straight-curve $-1 -29.628557037461448 -23.1617213295841 0 0 0 1 I I #
point $-1 -29.628557037461448 -23.1617213295841 8.8830541635410754 #
edge $-1 $479 29.628557037461448 $596 44.394665364543599 $545 $499 forward 7 unknown #
point $-1 -29.628557037461448 -23.1617213295841 -8.8830541635410754 #
edge $-1 $596 -23.1617213295841 $485 23.1617213295841 $487 $597 forward 7 unknown #
point $-1 -44.394665364543599 23.1617213295841 -8.8830541635410754 #
coedge $-1 $545 $491 $493 $553 forward $538 $-1 #
edge $-1 $494 -8.8830541635410754 $596 8.8830541635410754 $493 $598 forward 7 unknown #
point $-1 -44.394665364543599 -23.1617213295841 8.8830541635410754 #
point $-1 -26.628557037461448 -23.1617213295841 -8.8830541635410754 #
face $-1 $599 $573 $15 $-1 $600 reversed single #
plane-surface $-1 0 -23.1617213295841 0 0 1 0 0 0 1 forward_v I I I I #
coedge $-1 $586 $601 $588 $602 reversed $501 $-1 #
coedge $-1 $506 $503 $585 $603 reversed $425 $-1 #
coedge $-1 $503 $506 $604 $605 reversed $425 $-1 #
coedge $-1 $601 $586 $503 $562 forward $501 $-1 #
edge $-1 $606 -8.8830541635410754 $607 8.8830541635410754 $561 $608 forward 7 unknown #
coedge $-1 $505 $504 $609 $610 reversed $349 $-1 #
coedge $-1 $585 $580 $504 $565 forward $282 $-1 #
edge $-1 $611 -13.177492529983152 $568 -6.7909650692187462 $564 $612 forward 7 unknown #
coedge $-1 $613 $604 $505 $567 forward $573 $-1 #
edge $-1 $569 6.7909650692187462 $614 13.177492529983152 $566 $615 forward 7 unknown #
vertex $-1 $565 $616 #
vertex $-1 $567 $617 #
straight-curve $-1 -29.628557037461448 -16.775193868819695 0 0 0 -1 I I #
coedge $-1 $618 $508 $524 $591 forward $573 $-1 #
coedge $-1 $508 $619 $510 $576 forward $573 $-1 #
loop $-1 $-1 $566 $556 #
straight-curve $-1 44.394665364543599 0 -8.8830541635410754 0 -1 0 I I #
coedge $-1 $515 $510 $620 $621 reversed $511 $-1 #
edge $-1 $622 -44.394665364543599 $512 44.394665364543599 $510 $623 forward 7 unknown #
face $-1 $-1 $511 $15 $-1 $624 reversed single #
point $-1 44.394665364543599 23.1617213295841 -8.8830541635410754 #
point $-1 39.474440673371646 23.1617213295841 8.8830541635410754 #
coedge $-1 $564 $519 $625 $626 forward $282 $-1 #
coedge $-1 $620 $627 $519 $582 reversed $628 $-1 #
edge $-1 $583 -23.1617213295841 $629 23.1617213295841 $581 $630 forward 7 unknown #
vertex $-1 $520 $631 #
straight-curve $-1 0 23.1617213295841 8.8830541635410754 -1 0 0 I I #
coedge $-1 $521 $564 $559 $603 forward $282 $-1 #
coedge $-1 $561 $558 $521 $587 reversed $501 $-1 #
edge $-1 $606 6.7909650692187462 $589 13.177492529983152 $521 $632 forward 7 unknown #
coedge $-1 $524 $522 $558 $602 forward $525 $-1 #
vertex $-1 $523 $633 #
straight-curve $-1 0 -23.1617213295841 8.8830541635410754 1 0 0 I I #
edge $-1 $526 -44.394665364543599 $634 26.628557037461448 $524 $635 forward 7 unknown #
point $-1 44.394665364543599 -23.1617213295841 -8.8830541635410754 #
straight-curve $-1 44.394665364543599 23.1617213295841 0 0 0 -1 I I #
plane-surface $-1 -44.394665364543599 0 0 1 0 0 0 0 -1 forward_v I I I I #
straight-curve $-1 -26.628557037461448 -9.9842287996009489 -8.8830541635410754 0 1 0 I I #
vertex $-1 $550 $636 #
straight-curve $-1 -44.394665364543599 0 -8.8830541635410754 0 1 0 I I #
straight-curve $-1 -44.394665364543599 -23.1617213295841 0 0 0 -1 I I #
face $-1 $637 $638 $15 $-1 $557 reversed single #
plane-surface $-1 0 0 -8.8830541635410754 0 0 1 1 0 0 forward_v I I I I #
coedge $-1 $558 $561 $618 $639 reversed $501 $-1 #
edge $-1 $589 -8.8830541635410754 $634 8.8830541635410754 $588 $640 forward 7 unknown #
edge $-1 $568 -15.564278518730724 $606 -12.564278518730724 $585 $641 forward 7 unknown #
coedge $-1 $566 $618 $560 $605 forward $573 $-1 #
edge $-1 $607 12.564278518730724 $569 15.564278518730724 $604 $642 forward 7 unknown #
vertex $-1 $603 $643 #
vertex $-1 $605 $644 #
straight-curve $-1 -26.628557037461448 -16.775193868819695 0 0 0 -1 I I #
coedge $-1 $625 $645 $563 $610 forward $638 $-1 #
edge $-1 $614 -8.8830541635410754 $611 8.8830541635410754 $609 $646 forward 7 unknown #
vertex $-1 $610 $647 #
straight-curve $-1 -29.628557037461448 -9.9842287996009489 8.8830541635410754 0 1 0 I I #
coedge $-1 $619 $566 $645 $648 forward $573 $-1 #
vertex $-1 $648 $649 #
straight-curve $-1 -29.628557037461448 -9.9842287996009489 -8.8830541635410754 0 -1 0 I I #
point $-1 -29.628557037461448 -16.775193868819695 8.8830541635410754 #
point $-1 -29.628557037461448 -16.775193868819695 -8.8830541635410754 #
coedge $-1 $604 $571 $601 $639 forward $573 $-1 #
coedge $-1 $572 $613 $650 $651 forward $573 $-1 #
coedge $-1 $650 $581 $575 $621 forward $628 $-1 #
edge $-1 $583 -8.8830541635410754 $622 8.8830541635410754 $575 $652 forward 7 unknown #
vertex $-1 $576 $653 #
straight-curve $-1 0 23.1617213295841 -8.8830541635410754 1 0 0 I I #
plane-surface $-1 0 23.1617213295841 0 0 -1 0 0 0 -1 forward_v I I I I #
coedge $-1 $654 $609 $580 $626 reversed $638 $-1 #
edge $-1 $629 -44.394665364543599 $611 -29.628557037461448 $625 $590 forward 7 unknown #
coedge $-1 $581 $650 $654 $655 reversed $628 $-1 #
loop $-1 $-1 $620 $637 #
vertex $-1 $582 $656 #
straight-curve $-1 -44.394665364543599 0 8.8830541635410754 0 -1 0 I I #
point $-1 -44.394665364543599 23.1617213295841 8.8830541635410754 #
straight-curve $-1 -26.628557037461448 -9.9842287996009489 8.8830541635410754 0 -1 0 I I #
point $-1 -26.628557037461448 -23.1617213295841 8.8830541635410754 #
vertex $-1 $602 $657 #
straight-curve $-1 0 -23.1617213295841 -8.8830541635410754 -1 0 0 I I #
point $-1 -44.394665364543599 -23.1617213295841 -8.8830541635410754 #
face $-1 $577 $628 $15 $-1 $658 reversed single #
loop $-1 $-1 $609 $599 #
edge $-1 $634 -13.177492529983152 $607 -6.7909650692187462 $618 $659 forward 7 unknown #
straight-curve $-1 -26.628557037461448 -23.1617213295841 0 0 0 -1 I I #
straight-curve $-1 -14.064278518730724 -16.775193868819695 8.8830541635410754 1 0 0 I I #
straight-curve $-1 -14.064278518730724 -16.775193868819695 -8.8830541635410754 -1 0 0 I I #
point $-1 -26.628557037461448 -16.775193868819695 8.8830541635410754 #
point $-1 -26.628557037461448 -16.775193868819695 -8.8830541635410754 #
coedge $-1 $609 $654 $613 $648 reversed $638 $-1 #
straight-curve $-1 -29.628557037461448 -23.1617213295841 0 0 0 1 I I #
point $-1 -29.628557037461448 -23.1617213295841 8.8830541635410754 #
edge $-1 $614 29.628557037461448 $660 44.394665364543599 $645 $635 forward 7 unknown #
point $-1 -29.628557037461448 -23.1617213295841 -8.8830541635410754 #
coedge $-1 $627 $620 $619 $651 reversed $628 $-1 #
edge $-1 $660 -23.1617213295841 $622 23.1617213295841 $650 $661 forward 7 unknown #
straight-curve $-1 -44.394665364543599 23.1617213295841 0 0 0 -1 I I #
point $-1 -44.394665364543599 23.1617213295841 -8.8830541635410754 #
coedge $-1 $645 $625 $627 $655 forward $638 $-1 #
edge $-1 $629 -8.8830541635410754 $660 8.8830541635410754 $627 $662 forward 7 unknown #
point $-1 -44.394665364543599 -23.1617213295841 8.8830541635410754 #
point $-1 -26.628557037461448 -23.1617213295841 -8.8830541635410754 #
plane-surface $-1 -44.394665364543599 0 0 1 0 0 0 0 -1 forward_v I I I I #
straight-curve $-1 -26.628557037461448 -9.9842287996009489 -8.8830541635410754 0 1 0 I I #
vertex $-1 $651 $663 #
straight-curve $-1 -44.394665364543599 0 -8.8830541635410754 0 1 0 I I #
straight-curve $-1 -44.394665364543599 -23.1617213295841 0 0 0 -1 I I #
point $-1 -44.394665364543599 -23.1617213295841 -8.8830541635410754 #
End-of-ACIS-data 