500 0 8 0           
7 Unknown 11 ACIS 5.0 NT 24 Thu Mar 25 18:28:14 1999 
-1 9.9999999999999995e-007 1e-010 
body $-1 $8 $-1 $9 #
body $-1 $10 $-1 $11 #
body $-1 $12 $-1 $13 #
body $-1 $14 $-1 $15 #
body $-1 $16 $-1 $17 #
body $-1 $18 $-1 $19 #
body $-1 $20 $-1 $21 #
body $-1 $22 $-1 $23 #
lump $-1 $-1 $24 $0 #
transform $-1 1 0 0 0 1 0 0 0 1 61.463057344279306 24.859271604907356 7.756772507183868 1 rotate no_reflect no_shear #
lump $-1 $-1 $25 $1 #
transform $-1 1 0 0 0 1 0 0 0 1 61.463057344279306 24.859271604907356 7.756772507183868 1 rotate no_reflect no_shear #
lump $-1 $-1 $26 $2 #
transform $-1 1 0 0 0 1 0 0 0 1 61.463057344279306 24.859271604907356 7.756772507183868 1 rotate no_reflect no_shear #
lump $-1 $-1 $27 $3 #
transform $-1 1 0 0 0 1 0 0 0 1 61.463057344279306 24.859271604907356 7.756772507183868 1 rotate no_reflect no_shear #
lump $-1 $-1 $28 $4 #
transform $-1 1 0 0 0 1 0 0 0 1 61.463057344279306 24.859271604907356 7.756772507183868 1 rotate no_reflect no_shear #
lump $-1 $-1 $29 $5 #
transform $-1 1 0 0 0 1 0 0 0 1 61.463057344279306 24.859271604907356 7.756772507183868 1 rotate no_reflect no_shear #
lump $-1 $-1 $30 $6 #
transform $-1 1 0 0 0 1 0 0 0 1 61.463057344279306 24.859271604907356 7.756772507183868 1 rotate no_reflect no_shear #
lump $-1 $-1 $31 $7 #
transform $-1 1 0 0 0 1 0 0 0 1 61.463057344279306 24.859271604907356 7.756772507183868 1 rotate no_reflect no_shear #
shell $-1 $-1 $-1 $32 $-1 $8 #
shell $-1 $-1 $-1 $33 $-1 $10 #
shell $-1 $-1 $-1 $34 $-1 $12 #
shell $-1 $-1 $-1 $35 $-1 $14 #
shell $-1 $-1 $-1 $36 $-1 $16 #
shell $-1 $-1 $-1 $37 $-1 $18 #
shell $-1 $-1 $-1 $38 $-1 $20 #
shell $-1 $-1 $-1 $39 $-1 $22 #
face $-1 $40 $41 $24 $-1 $42 forward single #
face $-1 $43 $44 $25 $-1 $45 forward single #
face $-1 $46 $47 $26 $-1 $48 reversed single #
face $-1 $49 $50 $27 $-1 $51 forward single #
face $-1 $52 $53 $28 $-1 $54 forward single #
face $-1 $55 $56 $29 $-1 $57 reversed single #
face $-1 $58 $59 $30 $-1 $60 forward single #
face $-1 $61 $62 $31 $-1 $63 forward single #
face $-1 $64 $65 $24 $-1 $66 reversed single #
loop $-1 $-1 $67 $32 #
plane-surface $-1 0 0 7.756772507183868 0 0 1 1 0 0 forward_v I I I I #
face $-1 $68 $69 $25 $-1 $70 reversed single #
loop $-1 $-1 $71 $33 #
plane-surface $-1 -61.463057344279306 0 0 1 0 0 0 0 -1 forward_v I I I I #
face $-1 $72 $73 $26 $-1 $74 reversed single #
loop $-1 $-1 $75 $34 #
plane-surface $-1 -14.245906877169176 54.639749259101386 133.77306590848372 1 0 0 0 -0.57357644374324357 -0.81915203911291934 forward_v I I I I #
face $-1 $76 $77 $27 $-1 $78 forward single #
loop $-1 $79 $80 $35 #
cone-surface $-1 -9.1085978137836463 21.519938897459983 4.6491426642152458 0 -0.57357644374324357 -0.81915203911291934 1 0 0 1 I I 0 1 1 forward I I I I #
face $-1 $81 $82 $28 $-1 $83 forward single #
loop $-1 $84 $85 $36 #
cone-surface $-1 -1.4026342187053444 21.519938897459983 4.6491426642152458 0 -0.57357644374324357 -0.81915203911291934 1 0 0 1 I I 0 1 1 forward I I I I #
face $-1 $86 $87 $29 $-1 $88 reversed single #
loop $-1 $-1 $89 $37 #
plane-surface $-1 51.489120153787553 -24.859271604907363 2.8710193143887324 0 -0.54463904215088732 0.83867056331134215 1 0 0 forward_v I I I I #
face $-1 $90 $91 $30 $-1 $92 forward single #
loop $-1 $93 $94 $38 #
cone-surface $-1 47.214575643576794 -20.334159423490334 4.1383442795009593 0 0.54463904215088732 -0.83867056331134215 1 0 0 1 I I 0 1 1 forward I I I I #
face $-1 $95 $96 $31 $-1 $97 forward single #
loop $-1 $98 $99 $39 #
cone-surface $-1 55.763664663998298 -20.334159423490334 4.1383442795009593 0 0.54463904215088732 -0.83867056331134215 1 0 0 1 I I 0 1 1 forward I I I I #
face $-1 $100 $101 $24 $-1 $102 reversed single #
loop $-1 $-1 $103 $40 #
plane-surface $-1 0 0 -7.756772507183868 0 0 1 1 0 0 forward_v I I I I #
coedge $-1 $104 $105 $106 $107 forward $41 $-1 #
face $-1 $108 $109 $25 $-1 $110 forward single #
loop $-1 $-1 $111 $43 #
plane-surface $-1 0 24.859271604907356 0 0 -1 0 0 0 -1 forward_v I I I I #
coedge $-1 $112 $113 $114 $115 forward $44 $-1 #
face $-1 $116 $117 $26 $-1 $118 reversed single #
loop $-1 $-1 $119 $46 #
plane-surface $-1 -5.2556160162444954 -15.867774447136149 33.077888401122351 0 0.57357644374324357 0.81915203911291934 1 0 0 forward_v I I I I #
coedge $-1 $120 $121 $122 $123 reversed $47 $-1 #
face $-1 $-1 $124 $27 $-1 $125 forward single #
loop $-1 $126 $127 $49 #
cone-surface $-1 -9.1085978137836463 20.176190745235182 2.7300714559110588 0 -0.57357644374324357 -0.81915203911291934 0.5 0 0 1 I I -0.70710678118654746 0.70710678118654746 0.5 forward I I I I #
loop $-1 $-1 $128 $35 #
coedge $-1 $80 $80 $129 $130 reversed $50 $-1 #
face $-1 $-1 $131 $28 $-1 $132 forward single #
loop $-1 $133 $134 $52 #
cone-surface $-1 -1.4026342187053444 20.176190745235182 2.7300714559110588 0 -0.57357644374324357 -0.81915203911291934 0.5 0 0 1 I I -0.70710678118654746 0.70710678118654746 0.5 forward I I I I #
loop $-1 $-1 $135 $36 #
coedge $-1 $85 $85 $136 $137 reversed $53 $-1 #
face $-1 $138 $139 $29 $-1 $140 reversed single #
loop $-1 $-1 $141 $55 #
plane-surface $-1 41.5151829632958 -91.809632964214046 105.96553316591684 1 0 0 0 0.54463904215088732 -0.83867056331134215 forward_v I I I I #
coedge $-1 $142 $143 $144 $145 reversed $56 $-1 #
face $-1 $-1 $146 $30 $-1 $147 forward single #
loop $-1 $148 $149 $58 #
cone-surface $-1 47.214575643576794 -19.298427732642004 2.5434573665599505 0 0.54463904215088732 -0.83867056331134215 0.5 0 0 1 I I -0.70710678118654746 0.70710678118654746 0.5 forward I I I I #
loop $-1 $-1 $150 $38 #
coedge $-1 $94 $94 $151 $152 reversed $59 $-1 #
face $-1 $-1 $153 $31 $-1 $154 forward single #
loop $-1 $155 $156 $61 #
cone-surface $-1 55.763664663998298 -19.298427732642004 2.5434573665599505 0 0.54463904215088732 -0.83867056331134215 0.5 0 0 1 I I -0.70710678118654746 0.70710678118654746 0.5 forward I I I I #
loop $-1 $-1 $157 $39 #
coedge $-1 $99 $99 $158 $159 reversed $62 $-1 #
face $-1 $160 $161 $24 $-1 $162 reversed single #
loop $-1 $-1 $163 $64 #
plane-surface $-1 0 -24.859271604907356 0 0 1 0 0 0 1 forward_v I I I I #
coedge $-1 $164 $165 $166 $167 forward $65 $-1 #
coedge $-1 $168 $67 $169 $170 forward $41 $-1 #
coedge $-1 $67 $168 $171 $172 forward $41 $-1 #
coedge $-1 $173 $174 $67 $107 reversed $175 $-1 #
edge $-1 $176 -24.859271604907356 $177 24.859271604907356 $106 $178 forward 7 unknown #
face $-1 $179 $180 $25 $-1 $181 reversed single #
loop $-1 $-1 $114 $68 #
plane-surface $-1 -64.195904628565586 0 -4.756772507183868 0 0 1 1 0 0 forward_v I I I I #
coedge $-1 $182 $183 $113 $184 forward $69 $-1 #
coedge $-1 $185 $71 $186 $187 reversed $44 $-1 #
coedge $-1 $71 $185 $111 $184 reversed $44 $-1 #
coedge $-1 $188 $189 $71 $115 reversed $109 $-1 #
edge $-1 $190 -24.859271604907356 $191 24.859271604907356 $114 $192 forward 7 unknown #
face $-1 $193 $194 $26 $-1 $195 forward single #
loop $-1 $-1 $196 $72 #
plane-surface $-1 3.7346748446801854 54.639749259101386 133.77306590848372 -1 0 0 0 0.57357644374324357 0.81915203911291934 forward_v I I I I #
coedge $-1 $197 $198 $199 $200 reversed $73 $-1 #
coedge $-1 $121 $75 $201 $202 reversed $47 $-1 #
coedge $-1 $75 $120 $197 $203 reversed $47 $-1 #
coedge $-1 $199 $204 $75 $123 forward $194 $-1 #
edge $-1 $205 2.460603024643337 $206 7.0253485788317356 $122 $207 forward 7 unknown #
loop $-1 $-1 $129 $76 #
plane-surface $-1 -5.2556160162444954 -15.867774447136149 33.077888401122351 0 0.57357644374324357 0.81915203911291934 1 0 0 forward_v I I I I #
loop $-1 $-1 $208 $49 #
coedge $-1 $127 $127 $128 $209 reversed $77 $-1 #
coedge $-1 $128 $128 $127 $209 forward $79 $-1 #
coedge $-1 $129 $129 $80 $130 forward $124 $-1 #
edge $-1 $210 -9.4868820511937139e-016 $210 6.2831853071795996 $129 $211 forward 7 unknown #
loop $-1 $-1 $136 $81 #
plane-surface $-1 -5.2556160162444954 -15.867774447136149 33.077888401122351 0 0.57357644374324357 0.81915203911291934 1 0 0 forward_v I I I I #
loop $-1 $-1 $212 $52 #
coedge $-1 $134 $134 $135 $213 reversed $82 $-1 #
coedge $-1 $135 $135 $134 $213 forward $84 $-1 #
coedge $-1 $136 $136 $85 $137 forward $131 $-1 #
edge $-1 $214 -9.4868820511937139e-016 $214 6.2831853071795996 $136 $215 forward 7 unknown #
face $-1 $216 $217 $29 $-1 $218 forward single #
loop $-1 $-1 $219 $86 #
plane-surface $-1 0 -24.859271604907356 0 0 1 0 0 0 1 forward_v I I I I #
coedge $-1 $220 $221 $222 $223 reversed $87 $-1 #
coedge $-1 $224 $89 $225 $226 reversed $56 $-1 #
coedge $-1 $89 $224 $220 $227 forward $56 $-1 #
coedge $-1 $222 $228 $89 $145 forward $217 $-1 #
edge $-1 $229 -35.71849726738553 $230 -15.770622886402023 $144 $231 forward 7 unknown #
loop $-1 $-1 $151 $90 #
plane-surface $-1 51.489120153787553 -24.859271604907363 2.8710193143887324 0 -0.54463904215088732 0.83867056331134215 1 0 0 forward_v I I I I #
loop $-1 $-1 $232 $58 #
coedge $-1 $149 $149 $150 $233 reversed $91 $-1 #
coedge $-1 $150 $150 $149 $233 forward $93 $-1 #
coedge $-1 $151 $151 $94 $152 forward $146 $-1 #
edge $-1 $234 2.0892196144505337e-015 $234 6.2831853071796022 $151 $235 forward 7 unknown #
loop $-1 $-1 $158 $95 #
plane-surface $-1 51.489120153787553 -24.859271604907363 2.8710193143887324 0 -0.54463904215088732 0.83867056331134215 1 0 0 forward_v I I I I #
loop $-1 $-1 $236 $61 #
coedge $-1 $156 $156 $157 $237 reversed $96 $-1 #
coedge $-1 $157 $157 $156 $237 forward $98 $-1 #
coedge $-1 $158 $158 $99 $159 forward $153 $-1 #
edge $-1 $238 2.0892196144505337e-015 $238 6.2831853071796022 $158 $239 forward 7 unknown #
face $-1 $240 $241 $24 $-1 $242 reversed single #
loop $-1 $-1 $243 $100 #
plane-surface $-1 -61.463057344279306 0 0 1 0 0 0 0 -1 forward_v I I I I #
coedge $-1 $244 $171 $243 $245 forward $101 $-1 #
coedge $-1 $246 $103 $244 $247 forward $65 $-1 #
coedge $-1 $103 $246 $248 $249 forward $65 $-1 #
coedge $-1 $174 $173 $103 $167 reversed $175 $-1 #
edge $-1 $250 -24.859271604907356 $251 24.859271604907356 $166 $252 forward 7 unknown #
coedge $-1 $105 $104 $253 $254 forward $41 $-1 #
coedge $-1 $255 $256 $104 $170 reversed $241 $-1 #
edge $-1 $177 -61.463057344279306 $257 61.463057344279306 $169 $258 forward 7 unknown #
coedge $-1 $163 $259 $105 $172 reversed $101 $-1 #
edge $-1 $260 -61.463057344279306 $176 61.463057344279306 $171 $261 forward 7 unknown #
coedge $-1 $166 $106 $259 $262 forward $175 $-1 #
coedge $-1 $106 $166 $255 $263 reversed $175 $-1 #
loop $-1 $-1 $173 $240 #
vertex $-1 $107 $264 #
vertex $-1 $107 $265 #
straight-curve $-1 61.463057344279306 0 7.756772507183868 0 1 0 I I #
face $-1 $266 $267 $25 $-1 $268 reversed single #
loop $-1 $-1 $269 $108 #
plane-surface $-1 -66.928751912851865 0 -6.256772507183868 1 0 0 0 0 -1 forward_v I I I I #
coedge $-1 $270 $111 $271 $272 reversed $69 $-1 #
coedge $-1 $111 $270 $188 $273 reversed $69 $-1 #
edge $-1 $190 4.756772507183868 $274 7.756772507183868 $111 $275 forward 7 unknown #
coedge $-1 $113 $112 $276 $277 reversed $44 $-1 #
coedge $-1 $278 $279 $112 $187 forward $280 $-1 #
edge $-1 $281 -7.756772507183868 $191 -4.756772507183868 $186 $282 forward 7 unknown #
coedge $-1 $283 $114 $183 $273 forward $109 $-1 #
coedge $-1 $114 $283 $278 $284 forward $109 $-1 #
vertex $-1 $184 $285 #
vertex $-1 $284 $286 #
straight-curve $-1 -61.463057344279306 0 -4.756772507183868 0 -1 0 I I #
face $-1 $-1 $287 $26 $-1 $288 reversed single #
loop $-1 $-1 $122 $116 #
plane-surface $-1 0 0 7.756772507183868 0 0 1 1 0 0 forward_v I I I I #
coedge $-1 $289 $290 $291 $292 reversed $117 $-1 #
coedge $-1 $293 $119 $121 $203 forward $73 $-1 #
coedge $-1 $119 $293 $289 $294 forward $73 $-1 #
coedge $-1 $291 $122 $119 $200 forward $194 $-1 #
edge $-1 $206 -11.618098869046928 $295 6.3624828528024331 $199 $296 forward 7 unknown #
coedge $-1 $297 $298 $120 $202 forward $287 $-1 #
edge $-1 $299 -62.326029755499817 $205 -59.12976044705799 $201 $300 forward 7 unknown #
edge $-1 $206 44.146017797887907 $299 49.718543209814705 $121 $301 forward 7 unknown #
coedge $-1 $122 $291 $297 $302 forward $194 $-1 #
vertex $-1 $202 $303 #
vertex $-1 $123 $304 #
straight-curve $-1 -14.245906877169176 27.319874629550693 7.756772507183868 0 -1 0 I I #
coedge $-1 $208 $208 $-1 $305 reversed $126 $-1 #
edge $-1 $306 0 $306 6.2831853071796004 $127 $307 forward 7 unknown #
vertex $-1 $130 $308 #
ellipse-curve $-1 -9.1085978137836463 22.576898827813153 6.1586378529629551 0 0.57357644374324357 0.81915203911291934 1 0 0 1 I I #
coedge $-1 $212 $212 $-1 $309 reversed $133 $-1 #
edge $-1 $310 0 $310 6.2831853071796004 $134 $311 forward 7 unknown #
vertex $-1 $137 $312 #
ellipse-curve $-1 -1.4026342187053444 22.576898827813153 6.1586378529629551 0 0.57357644374324357 0.81915203911291934 1 0 0 1 I I #
face $-1 $-1 $313 $29 $-1 $314 reversed single #
loop $-1 $-1 $222 $138 #
plane-surface $-1 0 0 7.756772507183868 0 0 1 1 0 0 forward_v I I I I #
coedge $-1 $315 $316 $221 $317 forward $139 $-1 #
coedge $-1 $221 $141 $143 $227 reversed $87 $-1 #
coedge $-1 $141 $220 $219 $317 reversed $87 $-1 #
coedge $-1 $318 $144 $141 $223 forward $217 $-1 #
edge $-1 $230 -28.568944900487928 $319 -21.045544877199667 $222 $320 forward 7 unknown #
coedge $-1 $143 $142 $315 $321 reversed $56 $-1 #
coedge $-1 $322 $323 $142 $226 forward $313 $-1 #
edge $-1 $324 -9.6425350555059595 $229 -0.67190898084864814 $225 $325 forward 7 unknown #
edge $-1 $326 8.3777959833898778e-015 $230 8.9706260746573179 $220 $327 forward 7 unknown #
coedge $-1 $144 $318 $322 $328 forward $217 $-1 #
vertex $-1 $226 $329 #
vertex $-1 $145 $330 #
straight-curve $-1 25.744560076893777 -17.335871581619099 7.756772507183868 -1 0 0 I I #
coedge $-1 $232 $232 $-1 $331 reversed $148 $-1 #
edge $-1 $332 0 $332 6.2831853071796004 $149 $333 forward 7 unknown #
vertex $-1 $152 $334 #
ellipse-curve $-1 47.214575643576794 -21.097571593263226 5.3138959107863037 0 -0.54463904215088732 0.83867056331134215 1 0 0 1 I I #
coedge $-1 $236 $236 $-1 $335 reversed $155 $-1 #
edge $-1 $336 0 $336 6.2831853071796004 $156 $337 forward 7 unknown #
vertex $-1 $159 $338 #
ellipse-curve $-1 55.763664663998298 -21.097571593263226 5.3138959107863037 0 -0.54463904215088732 0.83867056331134215 1 0 0 1 I I #
face $-1 $-1 $175 $24 $-1 $339 reversed single #
loop $-1 $-1 $255 $160 #
plane-surface $-1 0 24.859271604907356 0 0 -1 0 0 0 -1 forward_v I I I I #
coedge $-1 $253 $340 $163 $245 reversed $161 $-1 #
coedge $-1 $259 $163 $164 $247 reversed $101 $-1 #
edge $-1 $260 -7.756772507183868 $341 7.756772507183868 $243 $342 forward 7 unknown #
coedge $-1 $165 $164 $340 $343 forward $65 $-1 #
edge $-1 $251 -61.463057344279306 $341 61.463057344279306 $244 $344 forward 7 unknown #
coedge $-1 $256 $255 $165 $249 reversed $241 $-1 #
edge $-1 $345 -61.463057344279306 $250 61.463057344279306 $248 $346 forward 7 unknown #
vertex $-1 $167 $347 #
vertex $-1 $262 $348 #
straight-curve $-1 61.463057344279306 0 -7.756772507183868 0 -1 0 I I #
coedge $-1 $349 $243 $168 $254 reversed $161 $-1 #
edge $-1 $257 -24.859271604907356 $260 24.859271604907356 $253 $350 forward 7 unknown #
coedge $-1 $248 $169 $174 $263 forward $241 $-1 #
coedge $-1 $169 $248 $349 $351 reversed $241 $-1 #
vertex $-1 $170 $352 #
straight-curve $-1 0 24.859271604907356 7.756772507183868 -1 0 0 I I #
coedge $-1 $171 $244 $173 $262 reversed $101 $-1 #
vertex $-1 $254 $353 #
straight-curve $-1 0 -24.859271604907356 7.756772507183868 1 0 0 I I #
edge $-1 $176 -7.756772507183868 $251 7.756772507183868 $173 $354 forward 7 unknown #
edge $-1 $177 -7.756772507183868 $250 7.756772507183868 $174 $355 forward 7 unknown #
point $-1 61.463057344279306 -24.859271604907356 7.756772507183868 #
point $-1 61.463057344279306 24.859271604907356 7.756772507183868 #
face $-1 $-1 $280 $25 $-1 $356 reversed single #
loop $-1 $-1 $276 $179 #
plane-surface $-1 0 0 -7.756772507183868 0 0 1 1 0 0 forward_v I I I I #
coedge $-1 $357 $358 $270 $359 forward $180 $-1 #
coedge $-1 $183 $182 $269 $359 reversed $69 $-1 #
coedge $-1 $276 $360 $182 $272 forward $267 $-1 #
edge $-1 $361 -66.928751912851865 $274 -61.463057344279306 $182 $362 forward 7 unknown #
edge $-1 $190 -2.7328472842862723 $363 2.7328472842862794 $183 $364 forward 7 unknown #
vertex $-1 $184 $365 #
straight-curve $-1 -61.463057344279306 24.859271604907356 0 0 0 -1 I I #
coedge $-1 $366 $271 $185 $277 forward $267 $-1 #
edge $-1 $274 -24.859271604907356 $281 24.859271604907356 $276 $367 forward 7 unknown #
coedge $-1 $368 $186 $189 $284 reversed $280 $-1 #
coedge $-1 $186 $368 $366 $369 reversed $280 $-1 #
loop $-1 $-1 $186 $266 #
vertex $-1 $369 $370 #
straight-curve $-1 -61.463057344279306 -24.859271604907356 0 0 0 1 I I #
coedge $-1 $189 $188 $358 $371 forward $109 $-1 #
edge $-1 $372 -2.7328472842862794 $191 2.7328472842862723 $278 $373 forward 7 unknown #
point $-1 -61.463057344279314 24.859271604907356 -4.756772507183868 #
point $-1 -61.463057344279314 -24.859271604907356 -4.756772507183868 #
loop $-1 $-1 $201 $193 #
plane-surface $-1 0 24.859271604907356 0 0 -1 0 0 0 -1 forward_v I I I I #
coedge $-1 $290 $196 $198 $294 reversed $117 $-1 #
coedge $-1 $196 $289 $374 $375 reversed $117 $-1 #
coedge $-1 $204 $199 $196 $292 forward $194 $-1 #
edge $-1 $295 -7.0253485788317356 $376 -2.460603024643337 $291 $377 forward 7 unknown #
coedge $-1 $198 $197 $298 $378 reversed $73 $-1 #
edge $-1 $379 -49.718543209814705 $295 -44.146017797887907 $289 $380 forward 7 unknown #
vertex $-1 $200 $381 #
straight-curve $-1 -2.6278080081222477 20.29452605071895 7.7567725071838716 1 0 0 I I #
coedge $-1 $374 $201 $204 $302 reversed $287 $-1 #
coedge $-1 $201 $374 $293 $378 forward $287 $-1 #
vertex $-1 $202 $382 #
straight-curve $-1 -14.245906877169176 24.859271604907356 66.886532954241858 0 0 1 I I #
straight-curve $-1 -14.245906877169176 -15.867774447136149 33.077888401122351 0 0.81915203911291934 -0.57357644374324357 I I #
edge $-1 $376 -3.7346748446801854 $205 14.245906877169176 $297 $383 forward 7 unknown #
point $-1 -14.245906877169176 24.859271604907356 7.756772507183868 #
point $-1 -14.245906877169176 20.294526050718957 7.756772507183868 #
edge $-1 $384 1 $384 0 $208 $-1 forward 7 unknown #
vertex $-1 $209 $385 #
ellipse-curve $-1 -9.1085978137836463 20.462978967106803 3.1396474754675183 0 0.57357644374324357 0.81915203911291934 1 0 0 1 I I #
point $-1 -8.1085978137836463 22.576898827813164 6.1586378529629719 #
edge $-1 $386 1 $386 0 $212 $-1 forward 7 unknown #
vertex $-1 $213 $387 #
ellipse-curve $-1 -1.4026342187053444 20.462978967106803 3.1396474754675183 0 0.57357644374324357 0.81915203911291934 1 0 0 1 I I #
point $-1 -0.40263421870534444 22.576898827813164 6.1586378529629719 #
loop $-1 $-1 $225 $216 #
plane-surface $-1 61.463057344279306 0 0 -1 0 0 0 0 1 forward_v I I I I #
coedge $-1 $388 $219 $224 $321 forward $139 $-1 #
coedge $-1 $219 $388 $318 $389 reversed $139 $-1 #
edge $-1 $319 45.225994075774551 $326 50.11174726856968 $219 $390 forward 7 unknown #
coedge $-1 $228 $222 $316 $389 forward $217 $-1 #
vertex $-1 $389 $391 #
straight-curve $-1 41.5151829632958 -45.904816482107023 7.756772507183868 0 -1 0 I I #
edge $-1 $326 15.770622886402023 $324 35.71849726738553 $315 $392 forward 7 unknown #
coedge $-1 $323 $225 $228 $328 reversed $313 $-1 #
coedge $-1 $225 $322 $388 $393 forward $313 $-1 #
vertex $-1 $321 $394 #
straight-curve $-1 61.463057344279306 -16.77236129815681 8.1227203709258546 0 0.83867056331134215 0.54463904215088732 I I #
vertex $-1 $321 $395 #
straight-curve $-1 41.5151829632958 -24.859271604907363 2.8710193143887324 0 0.83867056331134215 0.54463904215088732 I I #
edge $-1 $396 -24.859271604907356 $229 -17.335871581619095 $322 $397 forward 7 unknown #
point $-1 61.463057344279306 -17.335871581619095 7.756772507183868 #
point $-1 41.5151829632958 -17.335871581619095 7.756772507183868 #
edge $-1 $398 1 $398 0 $232 $-1 forward 7 unknown #
vertex $-1 $233 $399 #
ellipse-curve $-1 47.214575643576794 -19.57074725371745 2.9627926482156215 0 -0.54463904215088732 0.83867056331134215 1 0 0 1 I I #
point $-1 48.214575643576794 -21.097571593263218 5.3138959107862966 #
edge $-1 $400 1 $400 0 $236 $-1 forward 7 unknown #
vertex $-1 $237 $401 #
ellipse-curve $-1 55.763664663998298 -19.57074725371745 2.9627926482156215 0 -0.54463904215088732 0.83867056331134215 1 0 0 1 I I #
point $-1 56.763664663998298 -21.097571593263218 5.3138959107862966 #
plane-surface $-1 61.463057344279306 0 0 -1 0 0 0 0 1 forward_v I I I I #
coedge $-1 $243 $349 $246 $343 reversed $161 $-1 #
vertex $-1 $343 $402 #
straight-curve $-1 -61.463057344279306 -24.859271604907356 0 0 0 -1 I I #
edge $-1 $341 -24.859271604907356 $345 24.859271604907356 $340 $403 forward 7 unknown #
straight-curve $-1 0 -24.859271604907356 -7.756772507183868 -1 0 0 I I #
vertex $-1 $249 $404 #
straight-curve $-1 0 24.859271604907356 -7.756772507183868 1 0 0 I I #
point $-1 61.463057344279306 24.859271604907356 -7.756772507183868 #
point $-1 61.463057344279306 -24.859271604907356 -7.756772507183868 #
coedge $-1 $340 $253 $256 $351 forward $161 $-1 #
straight-curve $-1 -61.463057344279306 0 7.756772507183868 0 -1 0 I I #
edge $-1 $257 -7.756772507183868 $345 7.756772507183868 $256 $405 forward 7 unknown #
point $-1 -61.463057344279306 24.859271604907356 7.756772507183868 #
point $-1 -61.463057344279306 -24.859271604907356 7.756772507183868 #
straight-curve $-1 61.463057344279306 -24.859271604907356 0 0 0 -1 I I #
straight-curve $-1 61.463057344279306 24.859271604907356 0 0 0 -1 I I #
plane-surface $-1 0 -24.859271604907356 0 0 1 0 0 0 1 forward_v I I I I #
coedge $-1 $406 $269 $360 $407 reversed $180 $-1 #
coedge $-1 $269 $406 $283 $371 reversed $180 $-1 #
edge $-1 $363 -1.5 $361 1.5 $270 $408 forward 7 unknown #
coedge $-1 $271 $366 $357 $407 forward $267 $-1 #
vertex $-1 $272 $409 #
straight-curve $-1 0 24.859271604907356 -7.756772507183868 1 0 0 I I #
vertex $-1 $273 $410 #
straight-curve $-1 -64.195904628565586 24.859271604907356 -4.756772507183868 -1 0 0 I I #
point $-1 -61.463057344279306 24.859271604907356 -7.756772507183868 #
coedge $-1 $360 $276 $279 $369 forward $267 $-1 #
straight-curve $-1 -61.463057344279306 0 -7.756772507183868 0 -1 0 I I #
coedge $-1 $279 $278 $406 $411 forward $280 $-1 #
edge $-1 $281 -2.7328472842862794 $412 2.7328472842862794 $279 $413 forward 7 unknown #
point $-1 -61.463057344279306 -24.859271604907356 -7.756772507183868 #
edge $-1 $363 -24.859271604907356 $372 24.859271604907356 $358 $414 forward 7 unknown #
vertex $-1 $371 $415 #
straight-curve $-1 -64.195904628565586 -24.859271604907356 -4.756772507183868 1 0 0 I I #
coedge $-1 $298 $297 $290 $375 forward $287 $-1 #
edge $-1 $376 59.12976044705799 $379 62.326029755499817 $374 $416 forward 7 unknown #
vertex $-1 $302 $417 #
straight-curve $-1 3.7346748446801854 27.319874629550693 7.756772507183868 0 1 0 I I #
edge $-1 $379 -6.3624828528024331 $299 11.618098869046928 $298 $418 forward 7 unknown #
vertex $-1 $378 $419 #
straight-curve $-1 3.7346748446801854 -15.867774447136149 33.077888401122351 0 -0.81915203911291934 0.57357644374324357 I I #
point $-1 3.7346748446801854 20.294526050718957 7.756772507183868 #
point $-1 -14.245906877169176 24.859271604907356 4.5605031987420439 #
straight-curve $-1 0 24.859271604907356 7.756772507183868 -1 0 0 I I #
vertex $-1 $305 $420 #
point $-1 -8.1085978137836463 20.462978967106803 3.1396474754675183 #
vertex $-1 $309 $421 #
point $-1 -0.40263421870534444 20.462978967106803 3.1396474754675183 #
coedge $-1 $316 $315 $323 $393 reversed $139 $-1 #
edge $-1 $319 41.5151829632958 $396 61.463057344279306 $316 $422 forward 7 unknown #
straight-curve $-1 41.5151829632958 -24.859271604907356 52.982766582958419 0 0 -1 I I #
point $-1 41.5151829632958 -24.859271604907356 7.756772507183868 #
straight-curve $-1 25.744560076893777 -24.859271604907356 2.8710193143887373 1 0 0 I I #
edge $-1 $396 -7.756772507183868 $324 -2.8710193143887368 $323 $423 forward 7 unknown #
point $-1 61.463057344279306 -24.859271604907356 2.8710193143887368 #
point $-1 41.5151829632958 -24.859271604907356 2.8710193143887368 #
vertex $-1 $328 $424 #
straight-curve $-1 61.463057344279306 0 7.756772507183868 0 1 0 I I #
vertex $-1 $331 $425 #
point $-1 48.214575643576794 -19.57074725371745 2.9627926482156215 #
vertex $-1 $335 $426 #
point $-1 56.763664663998298 -19.57074725371745 2.9627926482156215 #
point $-1 -61.463057344279306 -24.859271604907356 -7.756772507183868 #
straight-curve $-1 -61.463057344279306 0 -7.756772507183868 0 1 0 I I #
point $-1 -61.463057344279306 24.859271604907356 -7.756772507183868 #
straight-curve $-1 -61.463057344279306 24.859271604907356 0 0 0 -1 I I #
coedge $-1 $358 $357 $368 $411 reversed $180 $-1 #
edge $-1 $412 -24.859271604907356 $361 24.859271604907356 $357 $427 forward 7 unknown #
straight-curve $-1 -66.928751912851865 24.859271604907356 -6.256772507183868 0 0 -1 I I #
point $-1 -66.928751912851865 24.859271604907356 -7.756772507183868 #
point $-1 -66.928751912851865 24.859271604907356 -4.756772507183868 #
edge $-1 $372 -1.5 $412 1.5 $406 $428 forward 7 unknown #
vertex $-1 $407 $429 #
straight-curve $-1 -64.195904628565586 -24.859271604907356 -7.756772507183868 -1 0 0 I I #
straight-curve $-1 -66.928751912851865 0 -4.756772507183868 0 -1 0 I I #
point $-1 -66.928751912851865 -24.859271604907356 -4.756772507183868 #
straight-curve $-1 3.7346748446801854 24.859271604907356 66.886532954241858 0 0 -1 I I #
point $-1 3.7346748446801854 24.859271604907356 7.756772507183868 #
straight-curve $-1 -2.6278080081222477 24.859271604907359 4.5605031987420421 -1 0 0 I I #
point $-1 3.7346748446801854 24.859271604907356 4.5605031987420439 #
point $-1 -9.1085978137836463 19.889402523363561 2.3204954363545993 #
point $-1 -1.4026342187053444 19.889402523363561 2.3204954363545993 #
straight-curve $-1 0 -24.859271604907356 7.756772507183868 1 0 0 I I #
straight-curve $-1 61.463057344279306 -24.859271604907356 0 0 0 -1 I I #
point $-1 61.463057344279306 -24.859271604907356 7.756772507183868 #
point $-1 47.214575643576794 -19.026108211566559 2.1241220849042795 #
point $-1 55.763664663998298 -19.026108211566559 2.1241220849042795 #
straight-curve $-1 -66.928751912851865 0 -7.756772507183868 0 1 0 I I #
straight-curve $-1 -66.928751912851865 -24.859271604907356 -6.256772507183868 0 0 -1 I I #
point $-1 -66.928751912851865 -24.859271604907356 -7.756772507183868 #
End-of-ACIS-data 