500 0 5 0           
7 Unknown 11 ACIS 5.0 NT 24 Thu Mar 25 18:18:55 1999 
-1 9.9999999999999995e-007 1e-010 
body $-1 $5 $-1 $6 #
body $-1 $7 $-1 $8 #
body $-1 $9 $-1 $10 #
body $-1 $11 $-1 $12 #
body $-1 $13 $-1 $14 #
lump $-1 $-1 $15 $0 #
transform $-1 1 0 0 0 1 0 0 0 1 74.394360179448839 46.319213242865985 17.391297604469617 1 rotate no_reflect no_shear #
lump $-1 $-1 $16 $1 #
transform $-1 1 0 0 0 1 0 0 0 1 74.394360179448839 46.319213242865985 17.391297604469617 1 rotate no_reflect no_shear #
lump $-1 $-1 $17 $2 #
transform $-1 1 0 0 0 1 0 0 0 1 74.394360179448839 46.319213242865985 17.391297604469617 1 rotate no_reflect no_shear #
lump $-1 $-1 $18 $3 #
transform $-1 1 0 0 0 1 0 0 0 1 74.394360179448839 46.319213242865985 17.391297604469617 1 rotate no_reflect no_shear #
lump $-1 $-1 $19 $4 #
transform $-1 1 0 0 0 1 0 0 0 1 74.394360179448839 46.319213242865985 17.391297604469617 1 rotate no_reflect no_shear #
shell $-1 $-1 $-1 $20 $-1 $5 #
shell $-1 $-1 $-1 $21 $-1 $7 #
shell $-1 $-1 $-1 $22 $-1 $9 #
shell $-1 $-1 $-1 $23 $-1 $11 #
shell $-1 $-1 $-1 $24 $-1 $13 #
face $-1 $25 $26 $15 $-1 $27 forward single #
face $-1 $28 $29 $16 $-1 $30 reversed single #
face $-1 $31 $32 $17 $-1 $33 forward single #
face $-1 $34 $35 $18 $-1 $36 reversed single #
face $-1 $37 $38 $19 $-1 $39 reversed single #
face $-1 $40 $41 $15 $-1 $42 reversed single #
loop $-1 $-1 $43 $20 #
plane-surface $-1 0 0 17.391297604469617 0 0 1 1 0 0 forward_v I I I I #
face $-1 $44 $45 $16 $-1 $46 reversed single #
loop $-1 $-1 $47 $21 #
plane-surface $-1 -97.329855060711353 -41.457643106214462 0 1 0 0 0 0 -1 forward_v I I I I #
face $-1 $48 $49 $17 $-1 $50 forward single #
loop $-1 $-1 $51 $22 #
plane-surface $-1 -12.811727879714137 115.06458144548422 162.26317370078158 1 0 0 0 -0.81915205242281985 -0.57357642473473569 forward_v I I I I #
face $-1 $52 $53 $18 $-1 $54 reversed single #
loop $-1 $55 $56 $23 #
cone-surface $-1 -4.5186681353106906 38.238083099301491 7.564735855359622 0 -0.81915205242281985 -0.57357642473473569 2 0 0 1 I I 0 1 2 forward I I I I #
face $-1 $57 $58 $19 $-1 $59 reversed single #
loop $-1 $60 $61 $24 #
cone-surface $-1 7.9209214812944708 38.238083099301491 7.564735855359622 0 -0.81915205242281985 -0.57357642473473569 2 0 0 1 I I 0 1 2 forward I I I I #
face $-1 $62 $63 $15 $-1 $64 reversed single #
loop $-1 $-1 $65 $25 #
plane-surface $-1 0 0 -17.391297604469617 0 0 1 1 0 0 forward_v I I I I #
coedge $-1 $66 $67 $68 $69 forward $26 $-1 #
face $-1 $70 $71 $16 $-1 $72 forward single #
loop $-1 $-1 $73 $28 #
plane-surface $-1 -85.862107620080096 -36.59607296956294 0 0 -1 0 0 0 -1 forward_v I I I I #
coedge $-1 $74 $75 $76 $77 forward $29 $-1 #
face $-1 $78 $79 $17 $-1 $80 forward single #
loop $-1 $-1 $81 $31 #
plane-surface $-1 1.7011266729918901 -6.8160042138718069 76.921471436468664 0 0.81915205242281985 0.57357642473473569 1 0 0 forward_v I I I I #
coedge $-1 $82 $83 $84 $85 reversed $32 $-1 #
face $-1 $86 $87 $18 $-1 $88 forward single #
loop $-1 $89 $90 $34 #
cone-surface $-1 -4.5186681353106906 35.063672026678134 5.3419893600192871 0 -0.81915205242281985 -0.57357642473473569 1 0 0 1 I I -0.70710678118654746 0.70710678118654746 1 forward I I I I #
loop $-1 $-1 $91 $23 #
coedge $-1 $56 $56 $92 $93 reversed $35 $-1 #
face $-1 $94 $95 $19 $-1 $96 reversed single #
loop $-1 $97 $98 $37 #
cone-surface $-1 7.9209214812944708 35.063672026678134 5.3419893600192871 0 -0.81915205242281985 -0.57357642473473569 1 0 0 1 I I -0.70710678118654746 0.70710678118654746 1 forward I I I I #
loop $-1 $-1 $99 $24 #
coedge $-1 $61 $61 $100 $101 reversed $38 $-1 #
face $-1 $102 $103 $15 $-1 $104 reversed single #
loop $-1 $-1 $105 $40 #
plane-surface $-1 0 -46.319213242865985 0 0 1 0 0 0 1 forward_v I I I I #
coedge $-1 $106 $107 $108 $109 forward $41 $-1 #
coedge $-1 $110 $43 $111 $112 forward $26 $-1 #
coedge $-1 $43 $110 $113 $114 forward $26 $-1 #
coedge $-1 $115 $116 $43 $69 reversed $117 $-1 #
edge $-1 $118 -46.319213242865985 $119 46.319213242865985 $68 $120 forward 7 unknown #
face $-1 $121 $122 $16 $-1 $123 reversed single #
loop $-1 $-1 $124 $44 #
plane-surface $-1 0 0 17.391297604469617 0 0 1 1 0 0 forward_v I I I I #
coedge $-1 $125 $126 $127 $128 reversed $45 $-1 #
coedge $-1 $129 $47 $130 $131 reversed $29 $-1 #
coedge $-1 $47 $129 $132 $133 reversed $29 $-1 #
coedge $-1 $126 $125 $47 $77 reversed $45 $-1 #
edge $-1 $134 -17.391297604469617 $135 17.391297604469617 $76 $136 forward 7 unknown #
face $-1 $137 $138 $17 $-1 $139 forward single #
loop $-1 $-1 $140 $48 #
plane-surface $-1 16.213981225697918 115.06458144548422 162.26317370078158 -1 0 0 0 0.81915205242281985 0.57357642473473569 forward_v I I I I #
coedge $-1 $141 $142 $143 $144 reversed $49 $-1 #
coedge $-1 $83 $51 $142 $145 forward $32 $-1 #
coedge $-1 $51 $82 $146 $147 reversed $32 $-1 #
coedge $-1 $148 $143 $51 $85 forward $138 $-1 #
edge $-1 $149 -22.66481972660403 $150 -11.213077479876127 $84 $151 forward 7 unknown #
face $-1 $152 $153 $18 $-1 $154 forward single #
loop $-1 $-1 $155 $52 #
plane-surface $-1 -12.811727879714137 115.06458144548422 162.26317370078158 1 0 0 0 -0.81915205242281985 -0.57357642473473569 forward_v I I I I #
loop $-1 $-1 $156 $34 #
coedge $-1 $90 $90 $91 $157 forward $53 $-1 #
coedge $-1 $91 $91 $90 $157 reversed $55 $-1 #
coedge $-1 $92 $92 $56 $93 forward $153 $-1 #
edge $-1 $158 8.7245989166747535e-016 $158 6.2831853071796013 $92 $159 forward 7 unknown #
face $-1 $160 $161 $19 $-1 $162 reversed single #
loop $-1 $163 $164 $57 #
cone-surface $-1 -4.5186681353106906 38.238083099301491 7.564735855359622 0 -0.81915205242281985 -0.57357642473473569 2 0 0 1 I I 0 1 2 forward I I I I #
loop $-1 $-1 $165 $37 #
coedge $-1 $98 $98 $99 $166 forward $58 $-1 #
coedge $-1 $99 $99 $98 $166 reversed $60 $-1 #
coedge $-1 $100 $100 $61 $101 forward $167 $-1 #
edge $-1 $168 8.7245989166747535e-016 $168 6.2831853071796013 $100 $169 forward 7 unknown #
face $-1 $170 $171 $15 $-1 $172 reversed single #
loop $-1 $-1 $173 $62 #
plane-surface $-1 -74.394360179448839 0 0 1 0 0 0 0 -1 forward_v I I I I #
coedge $-1 $174 $113 $175 $176 forward $63 $-1 #
coedge $-1 $177 $65 $174 $178 forward $41 $-1 #
coedge $-1 $65 $177 $179 $180 forward $41 $-1 #
coedge $-1 $116 $115 $65 $109 reversed $117 $-1 #
edge $-1 $181 -46.319213242865985 $182 46.319213242865985 $108 $183 forward 7 unknown #
coedge $-1 $67 $66 $184 $185 forward $26 $-1 #
coedge $-1 $186 $187 $66 $112 reversed $171 $-1 #
edge $-1 $119 -74.394360179448839 $188 74.394360179448839 $111 $189 forward 7 unknown #
coedge $-1 $105 $190 $67 $114 reversed $63 $-1 #
edge $-1 $191 -74.394360179448839 $118 74.394360179448839 $113 $192 forward 7 unknown #
coedge $-1 $108 $68 $190 $193 forward $117 $-1 #
coedge $-1 $68 $108 $186 $194 reversed $117 $-1 #
loop $-1 $-1 $115 $170 #
vertex $-1 $69 $195 #
vertex $-1 $69 $196 #
straight-curve $-1 74.394360179448839 0 17.391297604469617 0 1 0 I I #
face $-1 $197 $198 $16 $-1 $199 reversed single #
loop $-1 $-1 $200 $70 #
plane-surface $-1 0 0 -17.391297604469617 0 0 1 1 0 0 forward_v I I I I #
coedge $-1 $201 $202 $203 $204 forward $71 $-1 #
coedge $-1 $76 $73 $205 $206 reversed $45 $-1 #
coedge $-1 $73 $76 $207 $208 reversed $45 $-1 #
coedge $-1 $209 $210 $73 $128 forward $211 $-1 #
edge $-1 $212 -17.391297604469617 $213 17.391297604469617 $127 $214 forward 7 unknown #
coedge $-1 $75 $74 $215 $216 reversed $29 $-1 #
coedge $-1 $205 $217 $74 $131 forward $122 $-1 #
edge $-1 $218 -4.8615701366515225 $135 4.8615701366515225 $74 $219 forward 7 unknown #
coedge $-1 $202 $207 $75 $133 forward $71 $-1 #
edge $-1 $134 -4.8615701366515225 $220 4.8615701366515225 $75 $221 forward 7 unknown #
vertex $-1 $208 $222 #
vertex $-1 $206 $223 #
straight-curve $-1 -97.329855060711353 -36.59607296956294 0 0 0 -1 I I #
face $-1 $224 $225 $17 $-1 $226 reversed single #
loop $-1 $-1 $227 $78 #
plane-surface $-1 0 0 17.391297604469617 0 0 1 1 0 0 forward_v I I I I #
coedge $-1 $228 $229 $227 $230 reversed $79 $-1 #
coedge $-1 $231 $81 $229 $232 reversed $49 $-1 #
coedge $-1 $81 $231 $82 $145 reversed $49 $-1 #
coedge $-1 $84 $227 $81 $144 forward $138 $-1 #
edge $-1 $233 -15.363417889201973 $149 13.662291216210082 $143 $234 forward 7 unknown #
edge $-1 $149 72.672922757045711 $235 92.638426485731983 $82 $236 forward 7 unknown #
coedge $-1 $237 $238 $83 $147 forward $239 $-1 #
edge $-1 $150 63.740289245921176 $235 80.095072602929989 $146 $240 forward 7 unknown #
coedge $-1 $241 $84 $238 $242 forward $138 $-1 #
vertex $-1 $144 $243 #
vertex $-1 $242 $244 #
straight-curve $-1 -12.811727879714137 57.532290722742111 17.391297604469614 0 1 0 I I #
face $-1 $245 $246 $18 $-1 $247 forward single #
loop $-1 $248 $92 $86 #
plane-surface $-1 1.7011266729918901 -6.8160042138718069 76.921471436468664 0 0.81915205242281985 0.57357642473473569 1 0 0 forward_v I I I I #
coedge $-1 $249 $250 $251 $252 reversed $87 $-1 #
coedge $-1 $156 $156 $-1 $253 forward $89 $-1 #
edge $-1 $254 0 $254 6.2831853071796004 $90 $255 forward 7 unknown #
vertex $-1 $93 $256 #
ellipse-curve $-1 -4.5186681353106906 40.593342119502026 9.2139059259652143 0 -0.81915205242281985 -0.57357642473473569 2 0 0 1 I I #
face $-1 $257 $258 $19 $-1 $259 forward single #
loop $-1 $260 $261 $94 #
cone-surface $-1 -4.5186681353106906 35.063672026678134 5.3419893600192871 0 -0.81915205242281985 -0.57357642473473569 1 0 0 1 I I -0.70710678118654746 0.70710678118654746 1 forward I I I I #
loop $-1 $-1 $262 $57 #
coedge $-1 $164 $164 $263 $264 reversed $95 $-1 #
coedge $-1 $165 $165 $-1 $265 forward $97 $-1 #
edge $-1 $266 0 $266 6.2831853071796004 $98 $267 forward 7 unknown #
loop $-1 $268 $100 $257 #
vertex $-1 $101 $269 #
ellipse-curve $-1 7.9209214812944708 40.593342119502026 9.2139059259652143 0 -0.81915205242281985 -0.57357642473473569 2 0 0 1 I I #
face $-1 $-1 $117 $15 $-1 $270 reversed single #
loop $-1 $-1 $186 $102 #
plane-surface $-1 0 46.319213242865985 0 0 -1 0 0 0 -1 forward_v I I I I #
coedge $-1 $271 $184 $187 $272 forward $103 $-1 #
coedge $-1 $190 $105 $106 $178 reversed $63 $-1 #
coedge $-1 $184 $271 $105 $176 reversed $103 $-1 #
edge $-1 $191 -17.391297604469617 $273 17.391297604469617 $175 $274 forward 7 unknown #
coedge $-1 $107 $106 $271 $275 forward $41 $-1 #
edge $-1 $182 -74.394360179448839 $273 74.394360179448839 $174 $276 forward 7 unknown #
coedge $-1 $187 $186 $107 $180 reversed $171 $-1 #
edge $-1 $277 -74.394360179448839 $181 74.394360179448839 $179 $278 forward 7 unknown #
vertex $-1 $109 $279 #
vertex $-1 $193 $280 #
straight-curve $-1 74.394360179448839 0 -17.391297604469617 0 -1 0 I I #
coedge $-1 $173 $175 $110 $185 reversed $103 $-1 #
edge $-1 $188 -46.319213242865985 $191 46.319213242865985 $184 $281 forward 7 unknown #
coedge $-1 $179 $111 $116 $194 forward $171 $-1 #
coedge $-1 $111 $179 $173 $272 reversed $171 $-1 #
vertex $-1 $112 $282 #
straight-curve $-1 0 46.319213242865985 17.391297604469617 -1 0 0 I I #
coedge $-1 $113 $174 $115 $193 reversed $63 $-1 #
vertex $-1 $185 $283 #
straight-curve $-1 0 -46.319213242865985 17.391297604469617 1 0 0 I I #
edge $-1 $118 -17.391297604469617 $182 17.391297604469617 $115 $284 forward 7 unknown #
edge $-1 $119 -17.391297604469617 $181 17.391297604469617 $116 $285 forward 7 unknown #
point $-1 74.394360179448839 -46.319213242865985 17.391297604469617 #
point $-1 74.394360179448839 46.319213242865985 17.391297604469617 #
face $-1 $286 $211 $16 $-1 $287 reversed single #
loop $-1 $-1 $288 $121 #
plane-surface $-1 0 -46.319213242865985 0 0 1 0 0 0 1 forward_v I I I I #
coedge $-1 $217 $289 $290 $291 forward $122 $-1 #
coedge $-1 $292 $124 $293 $294 forward $71 $-1 #
coedge $-1 $124 $132 $295 $296 forward $71 $-1 #
coedge $-1 $297 $298 $124 $204 reversed $299 $-1 #
edge $-1 $300 -46.319213242865985 $301 46.319213242865985 $203 $302 forward 7 unknown #
coedge $-1 $303 $130 $125 $206 forward $122 $-1 #
edge $-1 $135 -11.467747440631257 $212 11.467747440631257 $125 $304 forward 7 unknown #
coedge $-1 $132 $292 $126 $208 forward $71 $-1 #
edge $-1 $213 -11.467747440631257 $134 11.467747440631257 $126 $305 forward 7 unknown #
coedge $-1 $306 $127 $292 $307 reversed $211 $-1 #
coedge $-1 $127 $306 $303 $308 reversed $211 $-1 #
loop $-1 $-1 $127 $197 #
vertex $-1 $308 $309 #
vertex $-1 $208 $310 #
straight-curve $-1 -74.394360179448839 -36.59607296956294 0 0 0 1 I I #
coedge $-1 $288 $295 $129 $216 forward $198 $-1 #
edge $-1 $220 -17.391297604469617 $218 17.391297604469617 $129 $311 forward 7 unknown #
coedge $-1 $130 $200 $288 $312 forward $122 $-1 #
vertex $-1 $131 $313 #
straight-curve $-1 -97.329855060711353 -41.457643106214462 -17.391297604469617 0 1 0 I I #
vertex $-1 $133 $314 #
straight-curve $-1 -97.329855060711353 -41.457643106214462 17.391297604469617 0 -1 0 I I #
point $-1 -97.329855060711353 -36.59607296956294 17.391297604469617 #
point $-1 -97.329855060711353 -36.59607296956294 -17.391297604469617 #
face $-1 $315 $316 $17 $-1 $317 reversed single #
loop $-1 $-1 $318 $137 #
plane-surface $-1 -97.329855060711353 -41.457643106214462 0 1 0 0 0 0 -1 forward_v I I I I #
coedge $-1 $143 $319 $140 $230 forward $138 $-1 #
coedge $-1 $229 $140 $320 $321 reversed $79 $-1 #
coedge $-1 $140 $228 $141 $232 forward $79 $-1 #
edge $-1 $322 11.213077479876127 $233 22.66481972660403 $227 $323 forward 7 unknown #
coedge $-1 $142 $141 $237 $324 reversed $49 $-1 #
edge $-1 $325 -92.638426485731983 $233 -72.672922757045711 $229 $326 forward 7 unknown #
vertex $-1 $144 $327 #
straight-curve $-1 0.85056333649594507 34.867470996138088 17.391297604469621 -1 0 0 I I #
vertex $-1 $324 $328 #
straight-curve $-1 -12.811727879714137 -6.8160042138718069 76.921471436468664 0 0.57357642473473569 -0.81915205242281985 I I #
coedge $-1 $320 $146 $231 $324 forward $239 $-1 #
coedge $-1 $146 $329 $148 $242 reversed $239 $-1 #
loop $-1 $-1 $320 $330 #
straight-curve $-1 -12.811727879714137 46.319213242865985 81.131586850390789 0 0 -1 I I #
coedge $-1 $331 $148 $332 $333 forward $138 $-1 #
edge $-1 $150 12.811727879714137 $334 74.394360179448839 $238 $335 forward 7 unknown #
point $-1 -12.811727879714137 34.867470996138081 17.391297604469621 #
point $-1 -12.811727879714137 46.319213242865985 17.391297604469617 #
face $-1 $336 $337 $18 $-1 $338 forward single #
loop $-1 $-1 $339 $152 #
plane-surface $-1 16.213981225697918 115.06458144548422 162.26317370078158 -1 0 0 0 0.81915205242281985 0.57357642473473569 forward_v I I I I #
loop $-1 $-1 $340 $86 #
coedge $-1 $250 $155 $341 $342 forward $87 $-1 #
coedge $-1 $155 $249 $343 $344 reversed $87 $-1 #
coedge $-1 $345 $346 $155 $252 forward $337 $-1 #
edge $-1 $347 -22.66481972660403 $348 -11.213077479876127 $251 $349 forward 7 unknown #
edge $-1 $350 1 $350 0 $156 $-1 forward 7 unknown #
vertex $-1 $157 $351 #
ellipse-curve $-1 -4.5186681353106906 35.882824079100956 5.9155657847540226 0 0.81915205242281985 0.57357642473473569 2 0 0 1 I I #
point $-1 -2.5186681353106906 40.593342119502033 9.2139059259652214 #
face $-1 $352 $167 $19 $-1 $353 forward single #
loop $-1 $-1 $354 $160 #
plane-surface $-1 -12.811727879714137 115.06458144548422 162.26317370078158 1 0 0 0 -0.81915205242281985 -0.57357642473473569 forward_v I I I I #
loop $-1 $-1 $355 $94 #
coedge $-1 $261 $261 $262 $356 forward $161 $-1 #
coedge $-1 $262 $262 $261 $356 reversed $163 $-1 #
coedge $-1 $263 $263 $164 $264 forward $268 $-1 #
edge $-1 $357 8.7245989166747535e-016 $357 6.2831853071796013 $263 $358 forward 7 unknown #
edge $-1 $359 1 $359 0 $165 $-1 forward 7 unknown #
vertex $-1 $166 $360 #
ellipse-curve $-1 7.9209214812944708 35.882824079100956 5.9155657847540226 0 0.81915205242281985 0.57357642473473569 2 0 0 1 I I #
loop $-1 $361 $263 $257 #
point $-1 9.9209214812944708 40.593342119502033 9.2139059259652214 #
plane-surface $-1 74.394360179448839 0 0 -1 0 0 0 0 1 forward_v I I I I #
coedge $-1 $175 $173 $177 $275 reversed $103 $-1 #
edge $-1 $188 -17.391297604469617 $277 17.391297604469617 $187 $362 forward 7 unknown #
vertex $-1 $275 $363 #
straight-curve $-1 -74.394360179448839 -46.319213242865985 0 0 0 -1 I I #
edge $-1 $273 -46.319213242865985 $277 46.319213242865985 $271 $364 forward 7 unknown #
straight-curve $-1 0 -46.319213242865985 -17.391297604469617 -1 0 0 I I #
vertex $-1 $180 $365 #
straight-curve $-1 0 46.319213242865985 -17.391297604469617 1 0 0 I I #
point $-1 74.394360179448839 46.319213242865985 -17.391297604469617 #
point $-1 74.394360179448839 -46.319213242865985 -17.391297604469617 #
straight-curve $-1 -74.394360179448839 0 17.391297604469617 0 -1 0 I I #
point $-1 -74.394360179448839 46.319213242865985 17.391297604469617 #
point $-1 -74.394360179448839 -46.319213242865985 17.391297604469617 #
straight-curve $-1 74.394360179448839 -46.319213242865985 0 0 0 -1 I I #
straight-curve $-1 74.394360179448839 46.319213242865985 0 0 0 -1 I I #
face $-1 $366 $367 $16 $-1 $368 reversed single #
plane-surface $-1 -74.394360179448839 0 0 1 0 0 0 0 -1 forward_v I I I I #
coedge $-1 $369 $215 $217 $312 reversed $198 $-1 #
coedge $-1 $200 $303 $370 $371 forward $122 $-1 #
coedge $-1 $298 $297 $200 $291 reversed $299 $-1 #
edge $-1 $372 -46.319213242865985 $373 46.319213242865985 $290 $374 forward 7 unknown #
coedge $-1 $207 $201 $209 $307 forward $71 $-1 #
coedge $-1 $375 $376 $201 $294 reversed $367 $-1 #
edge $-1 $301 -74.394360179448839 $377 74.394360179448839 $293 $378 forward 7 unknown #
coedge $-1 $215 $369 $202 $296 reversed $198 $-1 #
edge $-1 $220 -97.329855060711353 $300 74.394360179448839 $295 $379 forward 7 unknown #
coedge $-1 $290 $203 $369 $380 forward $299 $-1 #
coedge $-1 $203 $290 $375 $381 reversed $299 $-1 #
loop $-1 $-1 $297 $366 #
vertex $-1 $204 $382 #
vertex $-1 $204 $383 #
straight-curve $-1 74.394360179448839 0 17.391297604469617 0 1 0 I I #
coedge $-1 $289 $205 $210 $308 forward $122 $-1 #
straight-curve $-1 -85.862107620080096 -36.59607296956294 -17.391297604469617 1 0 0 I I #
straight-curve $-1 -85.862107620080096 -36.59607296956294 17.391297604469617 -1 0 0 I I #
coedge $-1 $210 $209 $376 $384 forward $211 $-1 #
edge $-1 $377 -46.319213242865985 $213 36.59607296956294 $209 $385 forward 7 unknown #
edge $-1 $212 -36.59607296956294 $386 46.319213242865985 $210 $387 forward 7 unknown #
point $-1 -74.394360179448839 -36.59607296956294 -17.391297604469617 #
point $-1 -74.394360179448839 -36.59607296956294 17.391297604469617 #
straight-curve $-1 -97.329855060711353 -46.319213242865985 0 0 0 -1 I I #
edge $-1 $373 -160.25646779952893 $218 11.467747440631257 $288 $388 forward 7 unknown #
point $-1 -97.329855060711353 -46.319213242865985 -17.391297604469617 #
point $-1 -97.329855060711353 -46.319213242865985 17.391297604469617 #
face $-1 $389 $390 $17 $-1 $391 reversed single #
loop $-1 $-1 $392 $224 #
plane-surface $-1 -85.862107620080096 -36.59607296956294 0 0 -1 0 0 0 -1 forward_v I I I I #
coedge $-1 $393 $394 $395 $396 forward $225 $-1 #
coedge $-1 $227 $397 $398 $399 forward $138 $-1 #
coedge $-1 $398 $237 $228 $321 forward $239 $-1 #
edge $-1 $325 -80.095072602929989 $322 -63.740289245921176 $320 $400 forward 7 unknown #
vertex $-1 $321 $401 #
straight-curve $-1 16.213981225697918 57.532290722742111 17.391297604469614 0 -1 0 I I #
edge $-1 $235 -13.662291216210082 $325 15.363417889201973 $237 $402 forward 7 unknown #
vertex $-1 $324 $403 #
straight-curve $-1 16.213981225697918 -6.8160042138718069 76.921471436468664 0 -0.57357642473473569 0.81915205242281985 I I #
point $-1 16.213981225697918 34.867470996138081 17.391297604469621 #
point $-1 -12.811727879714137 46.319213242865985 1.0365142474608007 #
coedge $-1 $238 $404 $405 $406 reversed $239 $-1 #
face $-1 $407 $239 $17 $-1 $408 reversed single #
coedge $-1 $409 $241 $410 $411 forward $138 $-1 #
coedge $-1 $405 $412 $241 $333 reversed $413 $-1 #
edge $-1 $334 -46.319213242865985 $414 36.59607296956294 $332 $415 forward 7 unknown #
vertex $-1 $242 $416 #
straight-curve $-1 0 46.319213242865985 17.391297604469617 -1 0 0 I I #
face $-1 $417 $418 $18 $-1 $419 reversed single #
loop $-1 $-1 $420 $245 #
plane-surface $-1 0 0 17.391297604469617 0 0 1 1 0 0 forward_v I I I I #
coedge $-1 $421 $422 $420 $423 reversed $246 $-1 #
coedge $-1 $424 $341 $346 $425 reversed $248 $-1 #
coedge $-1 $340 $426 $249 $342 reversed $248 $-1 #
edge $-1 $347 72.672922757045711 $427 92.638426485731983 $249 $428 forward 7 unknown #
coedge $-1 $429 $430 $250 $344 forward $431 $-1 #
edge $-1 $348 63.740289245921176 $427 80.095072602929989 $343 $432 forward 7 unknown #
coedge $-1 $433 $251 $430 $434 forward $337 $-1 #
coedge $-1 $251 $420 $340 $425 forward $337 $-1 #
vertex $-1 $425 $435 #
vertex $-1 $434 $436 #
straight-curve $-1 -12.811727879714137 57.532290722742111 17.391297604469614 0 1 0 I I #
vertex $-1 $253 $437 #
point $-1 -2.5186681353106906 35.882824079100956 5.9155657847540226 #
face $-1 $438 $439 $19 $-1 $440 forward single #
plane-surface $-1 1.7011266729918901 -6.8160042138718069 76.921471436468664 0 0.81915205242281985 0.57357642473473569 1 0 0 forward_v I I I I #
coedge $-1 $441 $442 $443 $444 reversed $258 $-1 #
coedge $-1 $355 $355 $-1 $445 forward $260 $-1 #
edge $-1 $446 0 $446 6.2831853071796004 $261 $447 forward 7 unknown #
vertex $-1 $264 $448 #
ellipse-curve $-1 -4.5186681353106906 40.593342119502026 9.2139059259652143 0 -0.81915205242281985 -0.57357642473473569 2 0 0 1 I I #
vertex $-1 $265 $449 #
point $-1 9.9209214812944708 35.882824079100956 5.9155657847540226 #
loop $-1 $-1 $450 $257 #
straight-curve $-1 -74.394360179448839 46.319213242865985 0 0 0 -1 I I #
point $-1 -74.394360179448839 -46.319213242865985 -17.391297604469617 #
straight-curve $-1 -74.394360179448839 0 -17.391297604469617 0 1 0 I I #
point $-1 -74.394360179448839 46.319213242865985 -17.391297604469617 #
face $-1 $-1 $299 $16 $-1 $451 reversed single #
loop $-1 $-1 $375 $286 #
plane-surface $-1 0 46.319213242865985 0 0 -1 0 0 0 -1 forward_v I I I I #
coedge $-1 $295 $288 $297 $380 reversed $198 $-1 #
coedge $-1 $376 $375 $289 $371 reversed $367 $-1 #
edge $-1 $386 -74.394360179448839 $372 74.394360179448839 $370 $452 forward 7 unknown #
vertex $-1 $291 $453 #
vertex $-1 $380 $454 #
straight-curve $-1 74.394360179448839 0 -17.391297604469617 0 -1 0 I I #
coedge $-1 $370 $293 $298 $381 forward $367 $-1 #
coedge $-1 $293 $370 $306 $384 reversed $367 $-1 #
vertex $-1 $294 $455 #
straight-curve $-1 0 46.319213242865985 17.391297604469617 -1 0 0 I I #
straight-curve $-1 0 -46.319213242865985 17.391297604469617 1 0 0 I I #
edge $-1 $300 -17.391297604469617 $373 17.391297604469617 $297 $456 forward 7 unknown #
edge $-1 $301 -17.391297604469617 $372 17.391297604469617 $298 $457 forward 7 unknown #
point $-1 74.394360179448839 -46.319213242865985 17.391297604469617 #
point $-1 74.394360179448839 46.319213242865985 17.391297604469617 #
edge $-1 $377 -17.391297604469617 $386 17.391297604469617 $376 $458 forward 7 unknown #
straight-curve $-1 -74.394360179448839 0 17.391297604469617 0 -1 0 I I #
vertex $-1 $371 $459 #
straight-curve $-1 -74.394360179448839 0 -17.391297604469617 0 1 0 I I #
straight-curve $-1 -85.862107620080096 -46.319213242865985 -17.391297604469617 -1 0 0 I I #
face $-1 $460 $461 $17 $-1 $462 reversed single #
loop $-1 $-1 $463 $315 #
plane-surface $-1 0 0 -17.391297604469617 0 0 1 1 0 0 forward_v I I I I #
coedge $-1 $464 $410 $412 $465 reversed $316 $-1 #
coedge $-1 $466 $318 $467 $468 reversed $225 $-1 #
coedge $-1 $318 $466 $409 $469 reversed $225 $-1 #
coedge $-1 $410 $464 $318 $396 reversed $316 $-1 #
edge $-1 $470 -17.391297604469617 $471 17.391297604469617 $395 $472 forward 7 unknown #
coedge $-1 $319 $473 $474 $475 forward $138 $-1 #
coedge $-1 $476 $320 $319 $399 reversed $239 $-1 #
edge $-1 $477 -74.394360179448839 $322 -16.213981225697918 $398 $335 forward 7 unknown #
straight-curve $-1 16.213981225697918 46.319213242865985 81.131586850390789 0 0 1 I I #
point $-1 16.213981225697918 46.319213242865985 17.391297604469617 #
straight-curve $-1 0.85056333649594507 46.319213242865992 1.0365142474607936 1 0 0 I I #
point $-1 16.213981225697918 46.319213242865985 1.0365142474608007 #
coedge $-1 $329 $476 $478 $479 reversed $239 $-1 #
coedge $-1 $480 $332 $329 $406 forward $413 $-1 #
edge $-1 $334 -17.391297604469617 $481 17.391297604469617 $329 $482 forward 7 unknown #
face $-1 $-1 $483 $17 $-1 $484 reversed single #
plane-surface $-1 0 46.319213242865985 0 0 -1 0 0 0 -1 forward_v I I I I #
coedge $-1 $473 $331 $394 $469 forward $138 $-1 #
coedge $-1 $392 $395 $331 $411 reversed $316 $-1 #
edge $-1 $414 -11.467747440631257 $470 11.467747440631257 $410 $485 forward 7 unknown #
coedge $-1 $332 $480 $392 $465 forward $413 $-1 #
loop $-1 $-1 $412 $460 #
vertex $-1 $411 $486 #
straight-curve $-1 -74.394360179448839 0 17.391297604469617 0 -1 0 I I #
point $-1 -74.394360179448839 46.319213242865985 17.391297604469617 #
face $-1 $487 $488 $18 $-1 $489 reversed single #
loop $-1 $-1 $490 $336 #
plane-surface $-1 -97.329855060711353 -41.457643106214462 0 1 0 0 0 0 -1 forward_v I I I I #
coedge $-1 $346 $491 $339 $423 forward $337 $-1 #
coedge $-1 $422 $339 $492 $493 reversed $246 $-1 #
coedge $-1 $339 $421 $424 $494 forward $246 $-1 #
edge $-1 $495 11.213077479876127 $496 22.66481972660403 $420 $497 forward 7 unknown #
coedge $-1 $426 $340 $422 $494 reversed $248 $-1 #
edge $-1 $496 -15.363417889201973 $347 13.662291216210082 $346 $498 forward 7 unknown #
coedge $-1 $341 $424 $429 $499 reversed $248 $-1 #
vertex $-1 $499 $500 #
straight-curve $-1 -12.811727879714137 -6.8160042138718069 76.921471436468664 0 0.57357642473473569 -0.81915205242281985 I I #
coedge $-1 $492 $343 $426 $499 forward $431 $-1 #
coedge $-1 $343 $501 $345 $434 reversed $431 $-1 #
loop $-1 $-1 $492 $502 #
straight-curve $-1 -12.811727879714137 46.319213242865985 81.131586850390789 0 0 -1 I I #
coedge $-1 $503 $345 $504 $505 forward $337 $-1 #
edge $-1 $348 12.811727879714137 $506 74.394360179448839 $430 $507 forward 7 unknown #
point $-1 -12.811727879714137 34.867470996138081 17.391297604469621 #
point $-1 -12.811727879714137 46.319213242865985 17.391297604469617 #
point $-1 -4.5186681353106906 34.244519974255311 4.7684129352845517 #
face $-1 $508 $509 $19 $-1 $510 forward single #
loop $-1 $-1 $511 $352 #
plane-surface $-1 16.213981225697918 115.06458144548422 162.26317370078158 -1 0 0 0 0.81915205242281985 0.57357642473473569 forward_v I I I I #
coedge $-1 $442 $354 $512 $513 forward $258 $-1 #
coedge $-1 $354 $441 $514 $515 reversed $258 $-1 #
coedge $-1 $516 $517 $354 $444 forward $509 $-1 #
edge $-1 $518 -22.66481972660403 $519 -11.213077479876127 $443 $520 forward 7 unknown #
edge $-1 $521 1 $521 0 $355 $-1 forward 7 unknown #
vertex $-1 $356 $522 #
ellipse-curve $-1 -4.5186681353106906 35.882824079100956 5.9155657847540226 0 0.81915205242281985 0.57357642473473569 2 0 0 1 I I #
point $-1 -2.5186681353106906 40.593342119502033 9.2139059259652214 #
point $-1 7.9209214812944708 34.244519974255311 4.7684129352845517 #
coedge $-1 $523 $512 $517 $524 reversed $361 $-1 #
plane-surface $-1 74.394360179448839 0 0 -1 0 0 0 0 1 forward_v I I I I #
straight-curve $-1 0 46.319213242865985 -17.391297604469617 1 0 0 I I #
point $-1 74.394360179448839 46.319213242865985 -17.391297604469617 #
point $-1 74.394360179448839 -46.319213242865985 -17.391297604469617 #
point $-1 -74.394360179448839 46.319213242865985 17.391297604469617 #
straight-curve $-1 74.394360179448839 -46.319213242865985 0 0 0 -1 I I #
straight-curve $-1 74.394360179448839 46.319213242865985 0 0 0 -1 I I #
straight-curve $-1 -74.394360179448839 46.319213242865985 0 0 0 -1 I I #
point $-1 -74.394360179448839 46.319213242865985 -17.391297604469617 #
face $-1 $330 $413 $17 $-1 $525 reversed single #
loop $-1 $-1 $526 $389 #
plane-surface $-1 0 -46.319213242865985 0 0 1 0 0 0 1 forward_v I I I I #
coedge $-1 $527 $478 $528 $529 forward $390 $-1 #
coedge $-1 $395 $392 $530 $531 reversed $316 $-1 #
edge $-1 $532 -17.391297604469617 $414 17.391297604469617 $412 $533 forward 7 unknown #
coedge $-1 $394 $393 $534 $535 reversed $225 $-1 #
coedge $-1 $530 $527 $393 $468 forward $390 $-1 #
edge $-1 $536 -4.8615701366515225 $471 4.8615701366515225 $393 $537 forward 7 unknown #
edge $-1 $470 -4.8615701366515225 $538 4.8615701366515225 $394 $539 forward 7 unknown #
vertex $-1 $411 $540 #
vertex $-1 $531 $541 #
straight-curve $-1 -97.329855060711353 -36.59607296956294 0 0 0 -1 I I #
coedge $-1 $397 $409 $542 $543 forward $138 $-1 #
coedge $-1 $544 $545 $397 $475 reversed $483 $-1 #
edge $-1 $546 -46.319213242865985 $477 46.319213242865985 $474 $547 forward 7 unknown #
coedge $-1 $404 $398 $545 $548 forward $239 $-1 #
vertex $-1 $475 $549 #
coedge $-1 $463 $550 $404 $479 forward $390 $-1 #
edge $-1 $481 -74.394360179448839 $551 74.394360179448839 $404 $552 forward 7 unknown #
coedge $-1 $412 $405 $550 $553 reversed $413 $-1 #
vertex $-1 $479 $554 #
straight-curve $-1 -74.394360179448839 46.319213242865985 0 0 0 -1 I I #
loop $-1 $-1 $544 $407 #
plane-surface $-1 74.394360179448839 0 0 -1 0 0 0 0 1 forward_v I I I I #
straight-curve $-1 -85.862107620080096 -36.59607296956294 17.391297604469617 -1 0 0 I I #
point $-1 -74.394360179448839 -36.59607296956294 17.391297604469617 #
face $-1 $555 $556 $18 $-1 $557 reversed single #
loop $-1 $-1 $558 $417 #
plane-surface $-1 -85.862107620080096 -36.59607296956294 0 0 -1 0 0 0 -1 forward_v I I I I #
coedge $-1 $559 $560 $561 $562 forward $418 $-1 #
coedge $-1 $420 $563 $564 $565 forward $337 $-1 #
coedge $-1 $564 $429 $421 $493 forward $431 $-1 #
edge $-1 $566 -80.095072602929989 $495 -63.740289245921176 $492 $567 forward 7 unknown #
edge $-1 $566 -92.638426485731983 $496 -72.672922757045711 $422 $568 forward 7 unknown #
vertex $-1 $493 $569 #
vertex $-1 $425 $570 #
straight-curve $-1 16.213981225697918 57.532290722742111 17.391297604469614 0 -1 0 I I #
straight-curve $-1 0.85056333649594507 34.867470996138088 17.391297604469621 -1 0 0 I I #
edge $-1 $427 -13.662291216210082 $566 15.363417889201973 $429 $571 forward 7 unknown #
point $-1 -12.811727879714137 46.319213242865985 1.0365142474608007 #
coedge $-1 $430 $572 $573 $574 reversed $431 $-1 #
face $-1 $575 $431 $18 $-1 $576 reversed single #
coedge $-1 $577 $433 $578 $579 forward $337 $-1 #
coedge $-1 $573 $580 $433 $505 reversed $581 $-1 #
edge $-1 $506 -46.319213242865985 $582 36.59607296956294 $504 $583 forward 7 unknown #
vertex $-1 $434 $584 #
straight-curve $-1 0 46.319213242865985 17.391297604469617 -1 0 0 I I #
face $-1 $585 $586 $19 $-1 $587 reversed single #
loop $-1 $-1 $588 $438 #
plane-surface $-1 0 0 17.391297604469617 0 0 1 1 0 0 forward_v I I I I #
coedge $-1 $589 $590 $588 $591 reversed $439 $-1 #
coedge $-1 $450 $592 $441 $513 reversed $361 $-1 #
edge $-1 $518 72.672922757045711 $593 92.638426485731983 $441 $594 forward 7 unknown #
coedge $-1 $595 $596 $442 $515 forward $597 $-1 #
edge $-1 $519 63.740289245921176 $593 80.095072602929989 $514 $598 forward 7 unknown #
coedge $-1 $599 $443 $596 $600 forward $509 $-1 #
coedge $-1 $443 $588 $450 $524 forward $509 $-1 #
vertex $-1 $524 $601 #
vertex $-1 $600 $602 #
straight-curve $-1 -12.811727879714137 57.532290722742111 17.391297604469614 0 1 0 I I #
vertex $-1 $445 $603 #
point $-1 -2.5186681353106906 35.882824079100956 5.9155657847540226 #
coedge $-1 $592 $450 $590 $604 reversed $361 $-1 #
edge $-1 $605 -15.363417889201973 $518 13.662291216210082 $517 $606 forward 7 unknown #
plane-surface $-1 -74.394360179448839 0 0 1 0 0 0 0 -1 forward_v I I I I #
coedge $-1 $607 $534 $527 $608 reversed $461 $-1 #
coedge $-1 $467 $463 $526 $608 forward $390 $-1 #
coedge $-1 $545 $544 $463 $529 reversed $483 $-1 #
edge $-1 $551 -46.319213242865985 $609 46.319213242865985 $528 $610 forward 7 unknown #
coedge $-1 $550 $467 $464 $531 forward $390 $-1 #
edge $-1 $471 -11.467747440631257 $532 11.467747440631257 $464 $611 forward 7 unknown #
vertex $-1 $553 $612 #
straight-curve $-1 -74.394360179448839 -36.59607296956294 0 0 0 1 I I #
coedge $-1 $526 $542 $466 $535 forward $461 $-1 #
edge $-1 $538 -17.391297604469617 $536 17.391297604469617 $466 $613 forward 7 unknown #
vertex $-1 $468 $614 #
straight-curve $-1 -97.329855060711353 -41.457643106214462 -17.391297604469617 0 1 0 I I #
vertex $-1 $469 $615 #
straight-curve $-1 -97.329855060711353 -41.457643106214462 17.391297604469617 0 -1 0 I I #
point $-1 -97.329855060711353 -36.59607296956294 17.391297604469617 #
point $-1 -97.329855060711353 -36.59607296956294 -17.391297604469617 #
coedge $-1 $534 $607 $473 $543 reversed $461 $-1 #
edge $-1 $538 -97.329855060711353 $546 74.394360179448839 $542 $616 forward 7 unknown #
coedge $-1 $528 $474 $607 $617 forward $483 $-1 #
coedge $-1 $474 $528 $476 $548 reversed $483 $-1 #
vertex $-1 $475 $618 #
straight-curve $-1 74.394360179448839 0 17.391297604469617 0 1 0 I I #
edge $-1 $477 -17.391297604469617 $551 17.391297604469617 $545 $619 forward 7 unknown #
point $-1 74.394360179448839 46.319213242865985 17.391297604469617 #
coedge $-1 $478 $530 $480 $553 forward $390 $-1 #
vertex $-1 $529 $620 #
straight-curve $-1 0 46.319213242865985 -17.391297604469617 1 0 0 I I #
edge $-1 $532 -36.59607296956294 $481 46.319213242865985 $480 $621 forward 7 unknown #
point $-1 -74.394360179448839 46.319213242865985 -17.391297604469617 #
face $-1 $622 $623 $18 $-1 $624 reversed single #
loop $-1 $-1 $625 $487 #
plane-surface $-1 0 0 -17.391297604469617 0 0 1 1 0 0 forward_v I I I I #
coedge $-1 $626 $578 $580 $627 reversed $488 $-1 #
coedge $-1 $628 $490 $629 $630 reversed $418 $-1 #
coedge $-1 $490 $628 $577 $631 reversed $418 $-1 #
coedge $-1 $578 $626 $490 $562 reversed $488 $-1 #
edge $-1 $632 -17.391297604469617 $633 17.391297604469617 $561 $634 forward 7 unknown #
coedge $-1 $491 $635 $636 $637 forward $337 $-1 #
coedge $-1 $638 $492 $491 $565 reversed $431 $-1 #
edge $-1 $639 -74.394360179448839 $495 -16.213981225697918 $564 $507 forward 7 unknown #
vertex $-1 $499 $640 #
straight-curve $-1 16.213981225697918 46.319213242865985 81.131586850390789 0 0 1 I I #
straight-curve $-1 16.213981225697918 -6.8160042138718069 76.921471436468664 0 -0.57357642473473569 0.81915205242281985 I I #
point $-1 16.213981225697918 46.319213242865985 17.391297604469617 #
point $-1 16.213981225697918 34.867470996138081 17.391297604469621 #
straight-curve $-1 0.85056333649594507 46.319213242865992 1.0365142474607936 1 0 0 I I #
coedge $-1 $501 $638 $641 $642 reversed $431 $-1 #
coedge $-1 $643 $504 $501 $574 forward $581 $-1 #
edge $-1 $506 -17.391297604469617 $644 17.391297604469617 $501 $645 forward 7 unknown #
face $-1 $-1 $646 $18 $-1 $647 reversed single #
plane-surface $-1 0 46.319213242865985 0 0 -1 0 0 0 -1 forward_v I I I I #
coedge $-1 $635 $503 $560 $631 forward $337 $-1 #
coedge $-1 $558 $561 $503 $579 reversed $488 $-1 #
edge $-1 $582 -11.467747440631257 $632 11.467747440631257 $578 $648 forward 7 unknown #
coedge $-1 $504 $643 $558 $627 forward $581 $-1 #
loop $-1 $-1 $580 $622 #
vertex $-1 $579 $649 #
straight-curve $-1 -74.394360179448839 0 17.391297604469617 0 -1 0 I I #
point $-1 -74.394360179448839 46.319213242865985 17.391297604469617 #
face $-1 $650 $651 $19 $-1 $652 reversed single #
loop $-1 $-1 $653 $508 #
plane-surface $-1 -97.329855060711353 -41.457643106214462 0 1 0 0 0 0 -1 forward_v I I I I #
coedge $-1 $517 $654 $511 $591 forward $509 $-1 #
coedge $-1 $590 $511 $655 $656 reversed $439 $-1 #
coedge $-1 $511 $589 $523 $604 forward $439 $-1 #
edge $-1 $657 11.213077479876127 $605 22.66481972660403 $588 $658 forward 7 unknown #
coedge $-1 $512 $523 $595 $659 reversed $361 $-1 #
vertex $-1 $659 $660 #
straight-curve $-1 -12.811727879714137 -6.8160042138718069 76.921471436468664 0 0.57357642473473569 -0.81915205242281985 I I #
coedge $-1 $655 $514 $592 $659 forward $597 $-1 #
coedge $-1 $514 $661 $516 $600 reversed $597 $-1 #
loop $-1 $-1 $655 $662 #
straight-curve $-1 -12.811727879714137 46.319213242865985 81.131586850390789 0 0 -1 I I #
coedge $-1 $663 $516 $664 $665 forward $509 $-1 #
edge $-1 $519 12.811727879714137 $666 74.394360179448839 $596 $667 forward 7 unknown #
point $-1 -12.811727879714137 34.867470996138081 17.391297604469621 #
point $-1 -12.811727879714137 46.319213242865985 17.391297604469617 #
point $-1 -4.5186681353106906 34.244519974255311 4.7684129352845517 #
edge $-1 $668 -92.638426485731983 $605 -72.672922757045711 $590 $669 forward 7 unknown #
vertex $-1 $524 $670 #
straight-curve $-1 0.85056333649594507 34.867470996138088 17.391297604469621 -1 0 0 I I #
coedge $-1 $542 $526 $544 $617 reversed $461 $-1 #
edge $-1 $609 -160.25646779952893 $536 11.467747440631257 $526 $671 forward 7 unknown #
vertex $-1 $617 $672 #
straight-curve $-1 74.394360179448839 0 -17.391297604469617 0 -1 0 I I #
straight-curve $-1 -85.862107620080096 -36.59607296956294 -17.391297604469617 1 0 0 I I #
point $-1 -74.394360179448839 -36.59607296956294 -17.391297604469617 #
straight-curve $-1 -97.329855060711353 -46.319213242865985 0 0 0 -1 I I #
point $-1 -97.329855060711353 -46.319213242865985 -17.391297604469617 #
point $-1 -97.329855060711353 -46.319213242865985 17.391297604469617 #
straight-curve $-1 0 -46.319213242865985 17.391297604469617 1 0 0 I I #
edge $-1 $546 -17.391297604469617 $609 17.391297604469617 $544 $673 forward 7 unknown #
point $-1 74.394360179448839 -46.319213242865985 17.391297604469617 #
straight-curve $-1 74.394360179448839 46.319213242865985 0 0 0 -1 I I #
point $-1 74.394360179448839 46.319213242865985 -17.391297604469617 #
straight-curve $-1 -74.394360179448839 0 -17.391297604469617 0 1 0 I I #
face $-1 $502 $581 $18 $-1 $674 reversed single #
loop $-1 $-1 $675 $555 #
plane-surface $-1 0 -46.319213242865985 0 0 1 0 0 0 1 forward_v I I I I #
coedge $-1 $676 $641 $677 $678 forward $556 $-1 #
coedge $-1 $561 $558 $679 $680 reversed $488 $-1 #
edge $-1 $681 -17.391297604469617 $582 17.391297604469617 $580 $682 forward 7 unknown #
coedge $-1 $560 $559 $683 $684 reversed $418 $-1 #
coedge $-1 $679 $676 $559 $630 forward $556 $-1 #
edge $-1 $685 -4.8615701366515225 $633 4.8615701366515225 $559 $686 forward 7 unknown #
edge $-1 $632 -4.8615701366515225 $687 4.8615701366515225 $560 $688 forward 7 unknown #
vertex $-1 $579 $689 #
vertex $-1 $680 $690 #
straight-curve $-1 -97.329855060711353 -36.59607296956294 0 0 0 -1 I I #
coedge $-1 $563 $577 $691 $692 forward $337 $-1 #
coedge $-1 $693 $694 $563 $637 reversed $646 $-1 #
edge $-1 $695 -46.319213242865985 $639 46.319213242865985 $636 $696 forward 7 unknown #
coedge $-1 $572 $564 $694 $697 forward $431 $-1 #
vertex $-1 $637 $698 #
point $-1 16.213981225697918 46.319213242865985 1.0365142474608007 #
coedge $-1 $625 $699 $572 $642 forward $556 $-1 #
edge $-1 $644 -74.394360179448839 $700 74.394360179448839 $572 $701 forward 7 unknown #
coedge $-1 $580 $573 $699 $702 reversed $581 $-1 #
vertex $-1 $642 $703 #
straight-curve $-1 -74.394360179448839 46.319213242865985 0 0 0 -1 I I #
loop $-1 $-1 $693 $575 #
plane-surface $-1 74.394360179448839 0 0 -1 0 0 0 0 1 forward_v I I I I #
straight-curve $-1 -85.862107620080096 -36.59607296956294 17.391297604469617 -1 0 0 I I #
point $-1 -74.394360179448839 -36.59607296956294 17.391297604469617 #
face $-1 $704 $705 $19 $-1 $706 reversed single #
loop $-1 $-1 $707 $585 #
plane-surface $-1 -85.862107620080096 -36.59607296956294 0 0 -1 0 0 0 -1 forward_v I I I I #
coedge $-1 $708 $709 $710 $711 forward $586 $-1 #
coedge $-1 $588 $712 $713 $714 forward $509 $-1 #
coedge $-1 $713 $595 $589 $656 forward $597 $-1 #
edge $-1 $668 -80.095072602929989 $657 -63.740289245921176 $655 $715 forward 7 unknown #
vertex $-1 $656 $716 #
straight-curve $-1 16.213981225697918 57.532290722742111 17.391297604469614 0 -1 0 I I #
edge $-1 $593 -13.662291216210082 $668 15.363417889201973 $595 $717 forward 7 unknown #
point $-1 -12.811727879714137 46.319213242865985 1.0365142474608007 #
coedge $-1 $596 $718 $719 $720 reversed $597 $-1 #
face $-1 $721 $597 $19 $-1 $722 reversed single #
coedge $-1 $723 $599 $724 $725 forward $509 $-1 #
coedge $-1 $719 $726 $599 $665 reversed $727 $-1 #
edge $-1 $666 -46.319213242865985 $728 36.59607296956294 $664 $729 forward 7 unknown #
vertex $-1 $600 $730 #
straight-curve $-1 0 46.319213242865985 17.391297604469617 -1 0 0 I I #
vertex $-1 $659 $731 #
straight-curve $-1 16.213981225697918 -6.8160042138718069 76.921471436468664 0 -0.57357642473473569 0.81915205242281985 I I #
point $-1 16.213981225697918 34.867470996138081 17.391297604469621 #
straight-curve $-1 -85.862107620080096 -46.319213242865985 -17.391297604469617 -1 0 0 I I #
point $-1 74.394360179448839 -46.319213242865985 -17.391297604469617 #
straight-curve $-1 74.394360179448839 -46.319213242865985 0 0 0 -1 I I #
plane-surface $-1 -74.394360179448839 0 0 1 0 0 0 0 -1 forward_v I I I I #
coedge $-1 $732 $683 $676 $733 reversed $623 $-1 #
coedge $-1 $629 $625 $675 $733 forward $556 $-1 #
coedge $-1 $694 $693 $625 $678 reversed $646 $-1 #
edge $-1 $700 -46.319213242865985 $734 46.319213242865985 $677 $735 forward 7 unknown #
coedge $-1 $699 $629 $626 $680 forward $556 $-1 #
edge $-1 $633 -11.467747440631257 $681 11.467747440631257 $626 $736 forward 7 unknown #
vertex $-1 $702 $737 #
straight-curve $-1 -74.394360179448839 -36.59607296956294 0 0 0 1 I I #
coedge $-1 $675 $691 $628 $684 forward $623 $-1 #
edge $-1 $687 -17.391297604469617 $685 17.391297604469617 $628 $738 forward 7 unknown #
vertex $-1 $630 $739 #
straight-curve $-1 -97.329855060711353 -41.457643106214462 -17.391297604469617 0 1 0 I I #
vertex $-1 $631 $740 #
straight-curve $-1 -97.329855060711353 -41.457643106214462 17.391297604469617 0 -1 0 I I #
point $-1 -97.329855060711353 -36.59607296956294 17.391297604469617 #
point $-1 -97.329855060711353 -36.59607296956294 -17.391297604469617 #
coedge $-1 $683 $732 $635 $692 reversed $623 $-1 #
edge $-1 $687 -97.329855060711353 $695 74.394360179448839 $691 $741 forward 7 unknown #
coedge $-1 $677 $636 $732 $742 forward $646 $-1 #
coedge $-1 $636 $677 $638 $697 reversed $646 $-1 #
vertex $-1 $637 $743 #
straight-curve $-1 74.394360179448839 0 17.391297604469617 0 1 0 I I #
edge $-1 $639 -17.391297604469617 $700 17.391297604469617 $694 $744 forward 7 unknown #
point $-1 74.394360179448839 46.319213242865985 17.391297604469617 #
coedge $-1 $641 $679 $643 $702 forward $556 $-1 #
vertex $-1 $678 $745 #
straight-curve $-1 0 46.319213242865985 -17.391297604469617 1 0 0 I I #
edge $-1 $681 -36.59607296956294 $644 46.319213242865985 $643 $746 forward 7 unknown #
point $-1 -74.394360179448839 46.319213242865985 -17.391297604469617 #
face $-1 $747 $748 $19 $-1 $749 reversed single #
loop $-1 $-1 $750 $650 #
plane-surface $-1 0 0 -17.391297604469617 0 0 1 1 0 0 forward_v I I I I #
coedge $-1 $751 $724 $726 $752 reversed $651 $-1 #
coedge $-1 $753 $653 $754 $755 reversed $586 $-1 #
coedge $-1 $653 $753 $723 $756 reversed $586 $-1 #
coedge $-1 $724 $751 $653 $711 reversed $651 $-1 #
edge $-1 $757 -17.391297604469617 $758 17.391297604469617 $710 $759 forward 7 unknown #
coedge $-1 $654 $760 $761 $762 forward $509 $-1 #
coedge $-1 $763 $655 $654 $714 reversed $597 $-1 #
edge $-1 $764 -74.394360179448839 $657 -16.213981225697918 $713 $667 forward 7 unknown #
straight-curve $-1 16.213981225697918 46.319213242865985 81.131586850390789 0 0 1 I I #
point $-1 16.213981225697918 46.319213242865985 17.391297604469617 #
straight-curve $-1 0.85056333649594507 46.319213242865992 1.0365142474607936 1 0 0 I I #
coedge $-1 $661 $763 $765 $766 reversed $597 $-1 #
coedge $-1 $767 $664 $661 $720 forward $727 $-1 #
edge $-1 $666 -17.391297604469617 $768 17.391297604469617 $661 $769 forward 7 unknown #
face $-1 $-1 $770 $19 $-1 $771 reversed single #
plane-surface $-1 0 46.319213242865985 0 0 -1 0 0 0 -1 forward_v I I I I #
coedge $-1 $760 $663 $709 $756 forward $509 $-1 #
coedge $-1 $707 $710 $663 $725 reversed $651 $-1 #
edge $-1 $728 -11.467747440631257 $757 11.467747440631257 $724 $772 forward 7 unknown #
coedge $-1 $664 $767 $707 $752 forward $727 $-1 #
loop $-1 $-1 $726 $747 #
vertex $-1 $725 $773 #
straight-curve $-1 -74.394360179448839 0 17.391297604469617 0 -1 0 I I #
point $-1 -74.394360179448839 46.319213242865985 17.391297604469617 #
point $-1 16.213981225697918 46.319213242865985 1.0365142474608007 #
coedge $-1 $691 $675 $693 $742 reversed $623 $-1 #
edge $-1 $734 -160.25646779952893 $685 11.467747440631257 $675 $774 forward 7 unknown #
vertex $-1 $742 $775 #
straight-curve $-1 74.394360179448839 0 -17.391297604469617 0 -1 0 I I #
straight-curve $-1 -85.862107620080096 -36.59607296956294 -17.391297604469617 1 0 0 I I #
point $-1 -74.394360179448839 -36.59607296956294 -17.391297604469617 #
straight-curve $-1 -97.329855060711353 -46.319213242865985 0 0 0 -1 I I #
point $-1 -97.329855060711353 -46.319213242865985 -17.391297604469617 #
point $-1 -97.329855060711353 -46.319213242865985 17.391297604469617 #
straight-curve $-1 0 -46.319213242865985 17.391297604469617 1 0 0 I I #
edge $-1 $695 -17.391297604469617 $734 17.391297604469617 $693 $776 forward 7 unknown #
point $-1 74.394360179448839 -46.319213242865985 17.391297604469617 #
straight-curve $-1 74.394360179448839 46.319213242865985 0 0 0 -1 I I #
point $-1 74.394360179448839 46.319213242865985 -17.391297604469617 #
straight-curve $-1 -74.394360179448839 0 -17.391297604469617 0 1 0 I I #
face $-1 $662 $727 $19 $-1 $777 reversed single #
loop $-1 $-1 $778 $704 #
plane-surface $-1 0 -46.319213242865985 0 0 1 0 0 0 1 forward_v I I I I #
coedge $-1 $779 $765 $780 $781 forward $705 $-1 #
coedge $-1 $710 $707 $782 $783 reversed $651 $-1 #
edge $-1 $784 -17.391297604469617 $728 17.391297604469617 $726 $785 forward 7 unknown #
coedge $-1 $709 $708 $786 $787 reversed $586 $-1 #
coedge $-1 $782 $779 $708 $755 forward $705 $-1 #
edge $-1 $788 -4.8615701366515225 $758 4.8615701366515225 $708 $789 forward 7 unknown #
edge $-1 $757 -4.8615701366515225 $790 4.8615701366515225 $709 $791 forward 7 unknown #
vertex $-1 $725 $792 #
vertex $-1 $783 $793 #
straight-curve $-1 -97.329855060711353 -36.59607296956294 0 0 0 -1 I I #
coedge $-1 $712 $723 $794 $795 forward $509 $-1 #
coedge $-1 $796 $797 $712 $762 reversed $770 $-1 #
edge $-1 $798 -46.319213242865985 $764 46.319213242865985 $761 $799 forward 7 unknown #
coedge $-1 $718 $713 $797 $800 forward $597 $-1 #
vertex $-1 $762 $801 #
coedge $-1 $750 $802 $718 $766 forward $705 $-1 #
edge $-1 $768 -74.394360179448839 $803 74.394360179448839 $718 $804 forward 7 unknown #
coedge $-1 $726 $719 $802 $805 reversed $727 $-1 #
vertex $-1 $766 $806 #
straight-curve $-1 -74.394360179448839 46.319213242865985 0 0 0 -1 I I #
loop $-1 $-1 $796 $721 #
plane-surface $-1 74.394360179448839 0 0 -1 0 0 0 0 1 forward_v I I I I #
straight-curve $-1 -85.862107620080096 -36.59607296956294 17.391297604469617 -1 0 0 I I #
point $-1 -74.394360179448839 -36.59607296956294 17.391297604469617 #
straight-curve $-1 -85.862107620080096 -46.319213242865985 -17.391297604469617 -1 0 0 I I #
point $-1 74.394360179448839 -46.319213242865985 -17.391297604469617 #
straight-curve $-1 74.394360179448839 -46.319213242865985 0 0 0 -1 I I #
plane-surface $-1 -74.394360179448839 0 0 1 0 0 0 0 -1 forward_v I I I I #
coedge $-1 $807 $786 $779 $808 reversed $748 $-1 #
coedge $-1 $754 $750 $778 $808 forward $705 $-1 #
coedge $-1 $797 $796 $750 $781 reversed $770 $-1 #
edge $-1 $803 -46.319213242865985 $809 46.319213242865985 $780 $810 forward 7 unknown #
coedge $-1 $802 $754 $751 $783 forward $705 $-1 #
edge $-1 $758 -11.467747440631257 $784 11.467747440631257 $751 $811 forward 7 unknown #
vertex $-1 $805 $812 #
straight-curve $-1 -74.394360179448839 -36.59607296956294 0 0 0 1 I I #
coedge $-1 $778 $794 $753 $787 forward $748 $-1 #
edge $-1 $790 -17.391297604469617 $788 17.391297604469617 $753 $813 forward 7 unknown #
vertex $-1 $755 $814 #
straight-curve $-1 -97.329855060711353 -41.457643106214462 -17.391297604469617 0 1 0 I I #
vertex $-1 $756 $815 #
straight-curve $-1 -97.329855060711353 -41.457643106214462 17.391297604469617 0 -1 0 I I #
point $-1 -97.329855060711353 -36.59607296956294 17.391297604469617 #
point $-1 -97.329855060711353 -36.59607296956294 -17.391297604469617 #
coedge $-1 $786 $807 $760 $795 reversed $748 $-1 #
edge $-1 $790 -97.329855060711353 $798 74.394360179448839 $794 $816 forward 7 unknown #
coedge $-1 $780 $761 $807 $817 forward $770 $-1 #
coedge $-1 $761 $780 $763 $800 reversed $770 $-1 #
vertex $-1 $762 $818 #
straight-curve $-1 74.394360179448839 0 17.391297604469617 0 1 0 I I #
edge $-1 $764 -17.391297604469617 $803 17.391297604469617 $797 $819 forward 7 unknown #
point $-1 74.394360179448839 46.319213242865985 17.391297604469617 #
coedge $-1 $765 $782 $767 $805 forward $705 $-1 #
vertex $-1 $781 $820 #
straight-curve $-1 0 46.319213242865985 -17.391297604469617 1 0 0 I I #
edge $-1 $784 -36.59607296956294 $768 46.319213242865985 $767 $821 forward 7 unknown #
point $-1 -74.394360179448839 46.319213242865985 -17.391297604469617 #
coedge $-1 $794 $778 $796 $817 reversed $748 $-1 #
edge $-1 $809 -160.25646779952893 $788 11.467747440631257 $778 $822 forward 7 unknown #
vertex $-1 $817 $823 #
straight-curve $-1 74.394360179448839 0 -17.391297604469617 0 -1 0 I I #
straight-curve $-1 -85.862107620080096 -36.59607296956294 -17.391297604469617 1 0 0 I I #
point $-1 -74.394360179448839 -36.59607296956294 -17.391297604469617 #
straight-curve $-1 -97.329855060711353 -46.319213242865985 0 0 0 -1 I I #
point $-1 -97.329855060711353 -46.319213242865985 -17.391297604469617 #
point $-1 -97.329855060711353 -46.319213242865985 17.391297604469617 #
straight-curve $-1 0 -46.319213242865985 17.391297604469617 1 0 0 I I #
edge $-1 $798 -17.391297604469617 $809 17.391297604469617 $796 $824 forward 7 unknown #
point $-1 74.394360179448839 -46.319213242865985 17.391297604469617 #
straight-curve $-1 74.394360179448839 46.319213242865985 0 0 0 -1 I I #
point $-1 74.394360179448839 46.319213242865985 -17.391297604469617 #
straight-curve $-1 -74.394360179448839 0 -17.391297604469617 0 1 0 I I #
straight-curve $-1 -85.862107620080096 -46.319213242865985 -17.391297604469617 -1 0 0 I I #
point $-1 74.394360179448839 -46.319213242865985 -17.391297604469617 #
straight-curve $-1 74.394360179448839 -46.319213242865985 0 0 0 -1 I I #
End-of-ACIS-data 