500 0 6 0           
7 Unknown 11 ACIS 5.0 NT 24 Thu Mar 25 19:58:22 1999 
-1 9.9999999999999995e-007 1e-010 
body $-1 $6 $-1 $7 #
body $-1 $8 $-1 $9 #
body $-1 $10 $-1 $11 #
body $-1 $12 $-1 $13 #
body $-1 $14 $-1 $15 #
body $-1 $16 $-1 $17 #
lump $-1 $-1 $18 $0 #
transform $-1 1 0 0 0 1 0 0 0 1 50.419019135105444 34.551499706258298 8.6479450221544898 1 rotate no_reflect no_shear #
lump $-1 $-1 $19 $1 #
transform $-1 1 0 0 0 1 0 0 0 1 50.419019135105444 34.551499706258298 8.6479450221544898 1 rotate no_reflect no_shear #
lump $-1 $-1 $20 $2 #
transform $-1 1 0 0 0 1 0 0 0 1 50.419019135105444 34.551499706258298 8.6479450221544898 1 rotate no_reflect no_shear #
lump $-1 $-1 $21 $3 #
transform $-1 1 0 0 0 1 0 0 0 1 50.419019135105444 34.551499706258298 8.6479450221544898 1 rotate no_reflect no_shear #
lump $-1 $-1 $22 $4 #
transform $-1 1 0 0 0 1 0 0 0 1 50.419019135105444 34.551499706258298 8.6479450221544898 1 rotate no_reflect no_shear #
lump $-1 $-1 $23 $5 #
transform $-1 1 0 0 0 1 0 0 0 1 50.419019135105444 34.551499706258298 8.6479450221544898 1 rotate no_reflect no_shear #
shell $-1 $-1 $-1 $24 $-1 $6 #
shell $-1 $-1 $-1 $25 $-1 $8 #
shell $-1 $-1 $-1 $26 $-1 $10 #
shell $-1 $-1 $-1 $27 $-1 $12 #
shell $-1 $-1 $-1 $28 $-1 $14 #
shell $-1 $-1 $-1 $29 $-1 $16 #
face $-1 $30 $31 $18 $-1 $32 forward single #
face $-1 $33 $34 $19 $-1 $35 reversed single #
face $-1 $36 $37 $20 $-1 $38 reversed single #
face $-1 $39 $40 $21 $-1 $41 forward single #
face $-1 $42 $43 $22 $-1 $44 forward single #
face $-1 $45 $46 $23 $-1 $47 forward single #
face $-1 $48 $49 $18 $-1 $50 reversed single #
loop $-1 $-1 $51 $24 #
plane-surface $-1 0 0 8.6479450221544898 0 0 1 1 0 0 forward_v I I I I #
face $-1 $52 $53 $19 $-1 $54 reversed single #
loop $-1 $-1 $55 $25 #
plane-surface $-1 -45.791258754593983 -31.551499706258298 0 0 -1 0 0 0 -1 forward_v I I I I #
face $-1 $56 $57 $20 $-1 $58 reversed single #
loop $-1 $-1 $59 $26 #
plane-surface $-1 6.2861290272694248 27.254098313143366 127.57837106497357 1 0 0 0 -0.51503808176128008 -0.85716729658548041 forward_v I I I I #
face $-1 $60 $61 $21 $-1 $62 forward single #
loop $-1 $63 $64 $27 #
cone-surface $-1 8.1986096764236649 31.537114248774781 6.3702533035218112 0 -0.51503808176128008 -0.85716729658548041 0.5 0 0 1 I I 0 1 0.5 forward I I I I #
face $-1 $65 $66 $22 $-1 $67 forward single #
loop $-1 $68 $69 $28 #
cone-surface $-1 11.067330650155021 31.537114248774781 6.3702533035218112 0 -0.51503808176128008 -0.85716729658548041 0.5 0 0 1 I I 0 1 0.5 forward I I I I #
face $-1 $70 $71 $23 $-1 $72 forward single #
loop $-1 $73 $74 $29 #
cone-surface $-1 13.936051623886385 31.537114248774781 6.3702533035218112 0 -0.51503808176128008 -0.85716729658548041 0.5 0 0 1 I I 0 1 0.5 forward I I I I #
face $-1 $75 $76 $18 $-1 $77 reversed single #
loop $-1 $-1 $78 $30 #
plane-surface $-1 0 0 -8.6479450221544898 0 0 1 1 0 0 forward_v I I I I #
coedge $-1 $79 $80 $81 $82 forward $31 $-1 #
face $-1 $83 $84 $19 $-1 $85 forward single #
loop $-1 $-1 $86 $33 #
plane-surface $-1 -41.163498374082522 -33.051499706258298 0 -1 0 0 0 0 1 forward_v I I I I #
coedge $-1 $87 $88 $89 $90 forward $34 $-1 #
face $-1 $91 $92 $20 $-1 $93 reversed single #
loop $-1 $-1 $94 $36 #
plane-surface $-1 11.067330650155021 -24.681331486116598 41.14330240791368 0 0.51503808176128008 0.85716729658548041 1 0 0 forward_v I I I I #
coedge $-1 $95 $96 $97 $98 reversed $37 $-1 #
face $-1 $-1 $99 $21 $-1 $100 forward single #
loop $-1 $101 $102 $39 #
cone-surface $-1 8.1986096764236649 30.969707072225816 5.4259291985498859 0 -0.51503808176128008 -0.85716729658548041 0.25 0 0 1 I I -0.70710678118654746 0.70710678118654746 0.25 forward I I I I #
loop $-1 $-1 $103 $27 #
coedge $-1 $64 $64 $104 $105 reversed $40 $-1 #
face $-1 $-1 $106 $22 $-1 $107 forward single #
loop $-1 $108 $109 $42 #
cone-surface $-1 11.067330650155021 30.969707072225816 5.4259291985498859 0 -0.51503808176128008 -0.85716729658548041 0.25 0 0 1 I I -0.70710678118654746 0.70710678118654746 0.25 forward I I I I #
loop $-1 $-1 $110 $28 #
coedge $-1 $69 $69 $111 $112 reversed $43 $-1 #
face $-1 $-1 $113 $23 $-1 $114 forward single #
loop $-1 $115 $116 $45 #
cone-surface $-1 13.936051623886385 30.969707072225816 5.4259291985498859 0 -0.51503808176128008 -0.85716729658548041 0.25 0 0 1 I I -0.70710678118654746 0.70710678118654746 0.25 forward I I I I #
loop $-1 $-1 $117 $29 #
coedge $-1 $74 $74 $118 $119 reversed $46 $-1 #
face $-1 $120 $121 $18 $-1 $122 reversed single #
loop $-1 $-1 $123 $48 #
plane-surface $-1 0 -34.551499706258298 0 0 1 0 0 0 1 forward_v I I I I #
coedge $-1 $124 $125 $126 $127 forward $49 $-1 #
coedge $-1 $128 $51 $129 $130 forward $31 $-1 #
coedge $-1 $51 $128 $131 $132 forward $31 $-1 #
coedge $-1 $133 $134 $51 $82 reversed $135 $-1 #
edge $-1 $136 -34.551499706258298 $137 34.551499706258298 $81 $138 forward 7 unknown #
face $-1 $139 $140 $19 $-1 $141 reversed single #
loop $-1 $-1 $142 $52 #
plane-surface $-1 0 0 8.6479450221544898 0 0 1 1 0 0 forward_v I I I I #
coedge $-1 $143 $144 $145 $146 reversed $53 $-1 #
coedge $-1 $147 $55 $148 $149 reversed $34 $-1 #
coedge $-1 $55 $147 $150 $151 reversed $34 $-1 #
coedge $-1 $144 $143 $55 $90 reversed $53 $-1 #
edge $-1 $152 -8.6479450221544898 $153 8.6479450221544898 $89 $154 forward 7 unknown #
face $-1 $155 $156 $20 $-1 $157 reversed single #
loop $-1 $-1 $158 $56 #
plane-surface $-1 15.848532273040618 27.254098313143366 127.57837106497357 -1 0 0 0 0.51503808176128008 0.85716729658548041 forward_v I I I I #
coedge $-1 $159 $160 $161 $162 reversed $57 $-1 #
coedge $-1 $96 $59 $163 $164 reversed $37 $-1 #
coedge $-1 $59 $95 $159 $165 reversed $37 $-1 #
coedge $-1 $161 $166 $59 $98 forward $167 $-1 #
edge $-1 $168 -20.924450549686615 $169 -15.772974946936895 $97 $170 forward 7 unknown #
loop $-1 $-1 $104 $60 #
plane-surface $-1 11.067330650155021 -24.681331486116598 41.14330240791368 0 0.51503808176128008 0.85716729658548041 1 0 0 forward_v I I I I #
loop $-1 $-1 $171 $39 #
coedge $-1 $102 $102 $103 $172 reversed $61 $-1 #
coedge $-1 $103 $103 $102 $172 forward $63 $-1 #
coedge $-1 $104 $104 $64 $105 forward $99 $-1 #
edge $-1 $173 3.9732656507712235e-015 $173 6.283185307179604 $104 $174 forward 7 unknown #
loop $-1 $-1 $111 $65 #
plane-surface $-1 11.067330650155021 -24.681331486116598 41.14330240791368 0 0.51503808176128008 0.85716729658548041 1 0 0 forward_v I I I I #
loop $-1 $-1 $175 $42 #
coedge $-1 $109 $109 $110 $176 reversed $66 $-1 #
coedge $-1 $110 $110 $109 $176 forward $68 $-1 #
coedge $-1 $111 $111 $69 $112 forward $106 $-1 #
edge $-1 $177 3.9732656507712235e-015 $177 6.283185307179604 $111 $178 forward 7 unknown #
loop $-1 $-1 $118 $70 #
plane-surface $-1 11.067330650155021 -24.681331486116598 41.14330240791368 0 0.51503808176128008 0.85716729658548041 1 0 0 forward_v I I I I #
loop $-1 $-1 $179 $45 #
coedge $-1 $116 $116 $117 $180 reversed $71 $-1 #
coedge $-1 $117 $117 $116 $180 forward $73 $-1 #
coedge $-1 $118 $118 $74 $119 forward $113 $-1 #
edge $-1 $181 3.9732656507712235e-015 $181 6.283185307179604 $118 $182 forward 7 unknown #
face $-1 $183 $184 $18 $-1 $185 reversed single #
loop $-1 $-1 $186 $75 #
plane-surface $-1 -50.419019135105444 0 0 1 0 0 0 0 -1 forward_v I I I I #
coedge $-1 $187 $131 $188 $189 forward $76 $-1 #
coedge $-1 $190 $78 $187 $191 forward $49 $-1 #
coedge $-1 $78 $190 $192 $193 forward $49 $-1 #
coedge $-1 $134 $133 $78 $127 reversed $135 $-1 #
edge $-1 $194 -34.551499706258298 $195 34.551499706258298 $126 $196 forward 7 unknown #
coedge $-1 $80 $79 $197 $198 forward $31 $-1 #
coedge $-1 $199 $200 $79 $130 reversed $184 $-1 #
edge $-1 $137 -50.419019135105444 $201 50.419019135105444 $129 $202 forward 7 unknown #
coedge $-1 $123 $203 $80 $132 reversed $76 $-1 #
edge $-1 $204 -50.419019135105444 $136 50.419019135105444 $131 $205 forward 7 unknown #
coedge $-1 $126 $81 $203 $206 forward $135 $-1 #
coedge $-1 $81 $126 $199 $207 reversed $135 $-1 #
loop $-1 $-1 $133 $183 #
vertex $-1 $82 $208 #
vertex $-1 $82 $209 #
straight-curve $-1 50.419019135105444 0 8.6479450221544898 0 1 0 I I #
face $-1 $210 $211 $19 $-1 $212 reversed single #
loop $-1 $-1 $213 $83 #
plane-surface $-1 -50.419019135105444 0 0 1 0 0 0 0 -1 forward_v I I I I #
coedge $-1 $150 $214 $144 $215 forward $84 $-1 #
coedge $-1 $89 $86 $216 $217 reversed $53 $-1 #
coedge $-1 $86 $89 $142 $215 reversed $53 $-1 #
coedge $-1 $218 $219 $86 $146 forward $220 $-1 #
edge $-1 $221 -8.6479450221544898 $222 8.6479450221544898 $145 $223 forward 7 unknown #
coedge $-1 $88 $87 $213 $224 reversed $34 $-1 #
coedge $-1 $216 $225 $87 $149 forward $211 $-1 #
edge $-1 $226 -27.523389757808452 $153 -18.267868996785531 $148 $227 forward 7 unknown #
coedge $-1 $228 $142 $88 $151 forward $84 $-1 #
edge $-1 $152 18.267868996785531 $229 27.523389757808452 $150 $230 forward 7 unknown #
vertex $-1 $151 $231 #
vertex $-1 $149 $232 #
straight-curve $-1 -41.163498374082522 -31.551499706258298 0 0 0 -1 I I #
face $-1 $-1 $167 $20 $-1 $233 forward single #
loop $-1 $-1 $234 $91 #
plane-surface $-1 0 34.551499706258298 0 0 -1 0 0 0 -1 forward_v I I I I #
coedge $-1 $235 $236 $237 $238 reversed $92 $-1 #
coedge $-1 $239 $94 $96 $165 forward $57 $-1 #
coedge $-1 $94 $239 $235 $240 forward $57 $-1 #
coedge $-1 $237 $97 $94 $162 forward $167 $-1 #
edge $-1 $169 0.75246370219191405 $241 10.314866947963107 $161 $242 forward 7 unknown #
coedge $-1 $243 $244 $95 $164 forward $156 $-1 #
edge $-1 $245 -58.236559385946514 $168 -55.141240510332295 $163 $246 forward 7 unknown #
edge $-1 $169 63.093115900545726 $245 69.102999412516596 $96 $247 forward 7 unknown #
coedge $-1 $97 $237 $243 $248 forward $167 $-1 #
loop $-1 $-1 $237 $155 #
vertex $-1 $164 $249 #
vertex $-1 $98 $250 #
straight-curve $-1 6.2861290272694248 13.627049156571683 8.647945022154488 0 -1 0 I I #
coedge $-1 $171 $171 $-1 $251 reversed $101 $-1 #
edge $-1 $252 0 $252 6.2831853071796004 $102 $253 forward 7 unknown #
vertex $-1 $105 $254 #
ellipse-curve $-1 8.1986096764236649 31.975761904883434 7.1002855843473771 0 0.51503808176128008 0.85716729658548041 0.5 0 0 1 I I #
coedge $-1 $175 $175 $-1 $255 reversed $108 $-1 #
edge $-1 $256 0 $256 6.2831853071796004 $109 $257 forward 7 unknown #
vertex $-1 $112 $258 #
ellipse-curve $-1 11.067330650155021 31.975761904883434 7.1002855843473771 0 0.51503808176128008 0.85716729658548041 0.5 0 0 1 I I #
coedge $-1 $179 $179 $-1 $259 reversed $115 $-1 #
edge $-1 $260 0 $260 6.2831853071796004 $116 $261 forward 7 unknown #
vertex $-1 $119 $262 #
ellipse-curve $-1 13.936051623886385 31.975761904883434 7.1002855843473771 0 0.51503808176128008 0.85716729658548041 0.5 0 0 1 I I #
face $-1 $-1 $135 $18 $-1 $263 reversed single #
loop $-1 $-1 $199 $120 #
plane-surface $-1 0 34.551499706258298 0 0 -1 0 0 0 -1 forward_v I I I I #
coedge $-1 $264 $197 $200 $265 forward $121 $-1 #
coedge $-1 $203 $123 $124 $191 reversed $76 $-1 #
coedge $-1 $197 $264 $123 $189 reversed $121 $-1 #
edge $-1 $204 -8.6479450221544898 $266 8.6479450221544898 $188 $267 forward 7 unknown #
coedge $-1 $125 $124 $264 $268 forward $49 $-1 #
edge $-1 $195 -50.419019135105444 $266 50.419019135105444 $187 $269 forward 7 unknown #
coedge $-1 $200 $199 $125 $193 reversed $184 $-1 #
edge $-1 $270 -50.419019135105444 $194 50.419019135105444 $192 $271 forward 7 unknown #
vertex $-1 $127 $272 #
vertex $-1 $206 $273 #
straight-curve $-1 50.419019135105444 0 -8.6479450221544898 0 -1 0 I I #
coedge $-1 $186 $188 $128 $198 reversed $121 $-1 #
edge $-1 $201 -34.551499706258298 $204 34.551499706258298 $197 $274 forward 7 unknown #
coedge $-1 $192 $129 $134 $207 forward $184 $-1 #
coedge $-1 $129 $192 $186 $265 reversed $184 $-1 #
vertex $-1 $130 $275 #
straight-curve $-1 0 34.551499706258298 8.6479450221544898 -1 0 0 I I #
coedge $-1 $131 $187 $133 $206 reversed $76 $-1 #
vertex $-1 $198 $276 #
straight-curve $-1 0 -34.551499706258298 8.6479450221544898 1 0 0 I I #
edge $-1 $136 -8.6479450221544898 $195 8.6479450221544898 $133 $277 forward 7 unknown #
edge $-1 $137 -8.6479450221544898 $194 8.6479450221544898 $134 $278 forward 7 unknown #
point $-1 50.419019135105444 -34.551499706258298 8.6479450221544898 #
point $-1 50.419019135105444 34.551499706258298 8.6479450221544898 #
face $-1 $-1 $220 $19 $-1 $279 reversed single #
loop $-1 $-1 $216 $139 #
plane-surface $-1 0 0 -8.6479450221544898 0 0 1 1 0 0 forward_v I I I I #
coedge $-1 $280 $281 $147 $224 forward $140 $-1 #
coedge $-1 $142 $228 $218 $282 forward $84 $-1 #
edge $-1 $222 -18.025749853129149 $152 -15.025749853129149 $142 $283 forward 7 unknown #
coedge $-1 $284 $148 $143 $217 forward $211 $-1 #
edge $-1 $153 15.025749853129149 $221 18.025749853129149 $216 $285 forward 7 unknown #
coedge $-1 $286 $145 $214 $282 reversed $220 $-1 #
coedge $-1 $145 $286 $284 $287 reversed $220 $-1 #
loop $-1 $-1 $145 $210 #
vertex $-1 $287 $288 #
vertex $-1 $146 $289 #
straight-curve $-1 -41.163498374082522 -34.551499706258298 0 0 0 1 I I #
edge $-1 $229 -8.6479450221544898 $226 8.6479450221544898 $213 $290 forward 7 unknown #
coedge $-1 $148 $284 $280 $291 forward $211 $-1 #
vertex $-1 $149 $292 #
straight-curve $-1 -22.895629377296991 -31.551499706258298 -8.6479450221544898 1 0 0 I I #
coedge $-1 $214 $150 $281 $293 forward $84 $-1 #
vertex $-1 $293 $294 #
straight-curve $-1 -22.895629377296991 -31.551499706258298 8.6479450221544898 -1 0 0 I I #
point $-1 -41.163498374082522 -31.551499706258298 8.6479450221544898 #
point $-1 -41.163498374082522 -31.551499706258298 -8.6479450221544898 #
plane-surface $-1 0 0 8.6479450221544898 0 0 1 1 0 0 forward_v I I I I #
coedge $-1 $244 $243 $236 $295 forward $156 $-1 #
coedge $-1 $236 $158 $160 $240 reversed $92 $-1 #
coedge $-1 $158 $235 $234 $295 reversed $92 $-1 #
coedge $-1 $166 $161 $158 $238 forward $167 $-1 #
edge $-1 $241 15.772974946936895 $296 20.924450549686615 $237 $297 forward 7 unknown #
coedge $-1 $160 $159 $244 $298 reversed $57 $-1 #
edge $-1 $299 -69.102999412516596 $241 -63.093115900545726 $235 $300 forward 7 unknown #
vertex $-1 $162 $301 #
straight-curve $-1 5.5336653250775107 29.400024103508571 8.6479450221544916 1 0 0 I I #
coedge $-1 $234 $163 $166 $248 reversed $156 $-1 #
coedge $-1 $163 $234 $239 $298 forward $156 $-1 #
vertex $-1 $164 $302 #
straight-curve $-1 6.2861290272694248 34.551499706258298 63.789185532486783 0 0 1 I I #
straight-curve $-1 6.2861290272694248 -24.681331486116598 41.14330240791368 0 0.85716729658548041 -0.51503808176128008 I I #
edge $-1 $296 -15.848532273040618 $168 -6.2861290272694248 $243 $303 forward 7 unknown #
point $-1 6.2861290272694248 34.551499706258298 8.6479450221544898 #
point $-1 6.2861290272694248 29.400024103508578 8.647945022154488 #
edge $-1 $304 1 $304 0 $171 $-1 forward 7 unknown #
vertex $-1 $172 $305 #
ellipse-curve $-1 8.1986096764236649 31.098466592666135 5.6402210226962559 0 0.51503808176128008 0.85716729658548041 0.5 0 0 1 I I #
point $-1 8.6986096764236649 31.975761904883431 7.1002855843473673 #
edge $-1 $306 1 $306 0 $175 $-1 forward 7 unknown #
vertex $-1 $176 $307 #
ellipse-curve $-1 11.067330650155021 31.098466592666135 5.6402210226962559 0 0.51503808176128008 0.85716729658548041 0.5 0 0 1 I I #
point $-1 11.567330650155021 31.975761904883431 7.1002855843473673 #
edge $-1 $308 1 $308 0 $179 $-1 forward 7 unknown #
vertex $-1 $180 $309 #
ellipse-curve $-1 13.936051623886385 31.098466592666135 5.6402210226962559 0 0.51503808176128008 0.85716729658548041 0.5 0 0 1 I I #
point $-1 14.436051623886385 31.975761904883431 7.1002855843473673 #
plane-surface $-1 50.419019135105444 0 0 -1 0 0 0 0 1 forward_v I I I I #
coedge $-1 $188 $186 $190 $268 reversed $121 $-1 #
edge $-1 $201 -8.6479450221544898 $270 8.6479450221544898 $200 $310 forward 7 unknown #
vertex $-1 $268 $311 #
straight-curve $-1 -50.419019135105444 -34.551499706258298 0 0 0 -1 I I #
edge $-1 $266 -34.551499706258298 $270 34.551499706258298 $264 $312 forward 7 unknown #
straight-curve $-1 0 -34.551499706258298 -8.6479450221544898 -1 0 0 I I #
vertex $-1 $193 $313 #
straight-curve $-1 0 34.551499706258298 -8.6479450221544898 1 0 0 I I #
point $-1 50.419019135105444 34.551499706258298 -8.6479450221544898 #
point $-1 50.419019135105444 -34.551499706258298 -8.6479450221544898 #
straight-curve $-1 -50.419019135105444 0 8.6479450221544898 0 -1 0 I I #
point $-1 -50.419019135105444 34.551499706258298 8.6479450221544898 #
point $-1 -50.419019135105444 -34.551499706258298 8.6479450221544898 #
straight-curve $-1 50.419019135105444 -34.551499706258298 0 0 0 -1 I I #
straight-curve $-1 50.419019135105444 34.551499706258298 0 0 0 -1 I I #
plane-surface $-1 0 -34.551499706258298 0 0 1 0 0 0 1 forward_v I I I I #
coedge $-1 $314 $213 $225 $291 reversed $140 $-1 #
coedge $-1 $213 $314 $228 $293 reversed $140 $-1 #
edge $-1 $315 -50.419019135105444 $222 -41.163498374082522 $218 $316 forward 7 unknown #
straight-curve $-1 -41.163498374082522 -16.525749853129149 8.6479450221544898 0 1 0 I I #
coedge $-1 $225 $216 $219 $287 forward $211 $-1 #
straight-curve $-1 -41.163498374082522 -16.525749853129149 -8.6479450221544898 0 -1 0 I I #
coedge $-1 $219 $218 $314 $317 forward $220 $-1 #
edge $-1 $221 41.163498374082522 $318 50.419019135105444 $219 $319 forward 7 unknown #
point $-1 -41.163498374082522 -34.551499706258298 -8.6479450221544898 #
point $-1 -41.163498374082522 -34.551499706258298 8.6479450221544898 #
straight-curve $-1 -50.419019135105444 -31.551499706258298 0 0 0 -1 I I #
edge $-1 $318 -34.551499706258298 $226 -31.551499706258298 $280 $320 forward 7 unknown #
point $-1 -50.419019135105444 -31.551499706258298 -8.6479450221544898 #
edge $-1 $229 31.551499706258298 $315 34.551499706258298 $281 $321 forward 7 unknown #
point $-1 -50.419019135105444 -31.551499706258298 8.6479450221544898 #
edge $-1 $296 55.141240510332295 $299 58.236559385946514 $234 $322 forward 7 unknown #
vertex $-1 $248 $323 #
straight-curve $-1 15.848532273040618 13.627049156571683 8.647945022154488 0 1 0 I I #
edge $-1 $299 -10.314866947963107 $245 -0.75246370219191405 $244 $324 forward 7 unknown #
vertex $-1 $298 $325 #
straight-curve $-1 15.848532273040618 -24.681331486116598 41.14330240791368 0 -0.85716729658548041 0.51503808176128008 I I #
point $-1 15.848532273040618 29.400024103508578 8.647945022154488 #
point $-1 6.2861290272694248 34.551499706258291 5.5526261465402698 #
straight-curve $-1 0 34.551499706258298 8.6479450221544898 -1 0 0 I I #
vertex $-1 $251 $326 #
point $-1 8.6986096764236649 31.098466592666135 5.6402210226962559 #
vertex $-1 $255 $327 #
point $-1 11.567330650155021 31.098466592666135 5.6402210226962559 #
vertex $-1 $259 $328 #
point $-1 14.436051623886385 31.098466592666135 5.6402210226962559 #
straight-curve $-1 -50.419019135105444 34.551499706258298 0 0 0 -1 I I #
point $-1 -50.419019135105444 -34.551499706258298 -8.6479450221544898 #
straight-curve $-1 -50.419019135105444 0 -8.6479450221544898 0 1 0 I I #
point $-1 -50.419019135105444 34.551499706258298 -8.6479450221544898 #
coedge $-1 $281 $280 $286 $317 reversed $140 $-1 #
vertex $-1 $293 $329 #
straight-curve $-1 0 -34.551499706258298 8.6479450221544898 1 0 0 I I #
edge $-1 $315 -8.6479450221544898 $318 8.6479450221544898 $314 $330 forward 7 unknown #
vertex $-1 $291 $331 #
straight-curve $-1 0 -34.551499706258298 -8.6479450221544898 -1 0 0 I I #
straight-curve $-1 -50.419019135105444 0 -8.6479450221544898 0 1 0 I I #
straight-curve $-1 -50.419019135105444 0 8.6479450221544898 0 -1 0 I I #
straight-curve $-1 15.848532273040618 34.551499706258298 63.789185532486783 0 0 -1 I I #
point $-1 15.848532273040618 34.551499706258298 8.6479450221544898 #
straight-curve $-1 5.5336653250775107 34.551499706258298 5.5526261465402698 -1 0 0 I I #
point $-1 15.848532273040618 34.551499706258291 5.5526261465402698 #
point $-1 8.1986096764236649 30.840947551785497 5.2116373744035158 #
point $-1 11.067330650155021 30.840947551785497 5.2116373744035158 #
point $-1 13.936051623886385 30.840947551785497 5.2116373744035158 #
point $-1 -50.419019135105444 -34.551499706258298 8.6479450221544898 #
straight-curve $-1 -50.419019135105444 -34.551499706258298 0 0 0 -1 I I #
point $-1 -50.419019135105444 -34.551499706258298 -8.6479450221544898 #
End-of-ACIS-data 