500 0 8 0           
7 Unknown 11 ACIS 5.0 NT 24 Fri Mar 26 02:01:44 1999 
-1 9.9999999999999995e-007 1e-010 
body $-1 $8 $-1 $9 #
body $-1 $10 $-1 $11 #
body $-1 $12 $-1 $13 #
body $-1 $14 $-1 $15 #
body $-1 $16 $-1 $17 #
body $-1 $18 $-1 $19 #
body $-1 $20 $-1 $21 #
body $-1 $22 $-1 $23 #
lump $-1 $-1 $24 $0 #
transform $-1 1 0 0 0 1 0 0 0 1 49.864803003021336 22.639962790498021 10.49127045525074 1 rotate no_reflect no_shear #
lump $-1 $-1 $25 $1 #
transform $-1 1 0 0 0 1 0 0 0 1 49.864803003021336 22.639962790498021 10.49127045525074 1 rotate no_reflect no_shear #
lump $-1 $-1 $26 $2 #
transform $-1 1 0 0 0 1 0 0 0 1 49.864803003021336 22.639962790498021 10.49127045525074 1 rotate no_reflect no_shear #
lump $-1 $-1 $27 $3 #
transform $-1 1 0 0 0 1 0 0 0 1 49.864803003021336 22.639962790498021 10.49127045525074 1 rotate no_reflect no_shear #
lump $-1 $-1 $28 $4 #
transform $-1 1 0 0 0 1 0 0 0 1 49.864803003021336 22.639962790498021 10.49127045525074 1 rotate no_reflect no_shear #
lump $-1 $-1 $29 $5 #
transform $-1 1 0 0 0 1 0 0 0 1 49.864803003021336 22.639962790498021 10.49127045525074 1 rotate no_reflect no_shear #
lump $-1 $-1 $30 $6 #
transform $-1 1 0 0 0 1 0 0 0 1 49.864803003021336 22.639962790498021 10.49127045525074 1 rotate no_reflect no_shear #
lump $-1 $-1 $31 $7 #
transform $-1 1 0 0 0 1 0 0 0 1 49.864803003021336 22.639962790498021 10.49127045525074 1 rotate no_reflect no_shear #
shell $-1 $-1 $-1 $32 $-1 $8 #
shell $-1 $-1 $-1 $33 $-1 $10 #
shell $-1 $-1 $-1 $34 $-1 $12 #
shell $-1 $-1 $-1 $35 $-1 $14 #
shell $-1 $-1 $-1 $36 $-1 $16 #
shell $-1 $-1 $-1 $37 $-1 $18 #
shell $-1 $-1 $-1 $38 $-1 $20 #
shell $-1 $-1 $-1 $39 $-1 $22 #
face $-1 $40 $41 $24 $-1 $42 forward single #
face $-1 $43 $44 $25 $-1 $45 forward single #
face $-1 $46 $47 $26 $-1 $48 reversed single #
face $-1 $49 $50 $27 $-1 $51 forward single #
face $-1 $52 $53 $28 $-1 $54 reversed single #
face $-1 $55 $56 $29 $-1 $57 forward single #
face $-1 $58 $59 $30 $-1 $60 reversed single #
face $-1 $61 $62 $31 $-1 $63 forward single #
face $-1 $64 $65 $24 $-1 $66 reversed single #
loop $-1 $-1 $67 $32 #
plane-surface $-1 0 0 10.49127045525074 0 0 1 1 0 0 forward_v I I I I #
face $-1 $68 $69 $25 $-1 $70 reversed single #
loop $-1 $-1 $71 $33 #
plane-surface $-1 0 -17.833864632737566 -7.189659606517119 0 0 1 1 0 0 forward_v I I I I #
face $-1 $72 $73 $26 $-1 $74 reversed single #
loop $-1 $-1 $75 $34 #
plane-surface $-1 30.235974723441046 18.838256858404652 141.93545749730936 0 -1 0 -0.6018150307709319 0 -0.79863550430605224 forward_v I I I I #
face $-1 $76 $77 $27 $-1 $78 forward single #
loop $-1 $79 $80 $35 #
cone-surface $-1 43.624673396758936 15.749750230179931 5.3390802707060541 -0.6018150307709319 0 -0.79863550430605224 1.1979532564590785 0 -0.90272254615639791 1 I I 0 1 1.5 forward I I I I #
face $-1 $81 $82 $28 $-1 $83 reversed single #
loop $-1 $-1 $84 $36 #
plane-surface $-1 -135.34976096467557 -13.02776647497711 52.154433409411666 0 1 0 -0.85716730853699208 0 0.51503806187062418 forward_v I I I I #
face $-1 $85 $86 $29 $-1 $87 forward single #
loop $-1 $88 $89 $37 #
cone-surface $-1 -46.402461383428715 -8.8447740267143828 5.3114571745212293 0.85716730853699208 0 -0.51503806187062418 0.51503806187062418 0 0.85716730853699208 1 I I 0 1 1 forward I I I I #
face $-1 $90 $91 $30 $-1 $92 reversed single #
loop $-1 $-1 $93 $38 #
plane-surface $-1 -135.34976096467557 14.273977893972564 52.154433409411666 0 1 0 -0.85716730853699208 0 0.51503806187062418 forward_v I I I I #
face $-1 $94 $95 $31 $-1 $96 forward single #
loop $-1 $97 $98 $39 #
cone-surface $-1 -46.402461383428715 18.456970342235291 5.3114571745212293 0.85716730853699208 0 -0.51503806187062418 0.51503806187062418 0 0.85716730853699208 1 I I 0 1 1 forward I I I I #
face $-1 $99 $100 $24 $-1 $101 reversed single #
loop $-1 $-1 $102 $40 #
plane-surface $-1 0 0 -10.49127045525074 0 0 1 1 0 0 forward_v I I I I #
coedge $-1 $103 $104 $105 $106 forward $41 $-1 #
face $-1 $107 $108 $25 $-1 $109 reversed single #
loop $-1 $-1 $110 $43 #
plane-surface $-1 0 -13.02776647497711 -8.8404650308839301 0 -1 0 0 0 -1 forward_v I I I I #
coedge $-1 $111 $112 $113 $114 reversed $44 $-1 #
face $-1 $115 $116 $26 $-1 $117 reversed single #
loop $-1 $-1 $118 $46 #
plane-surface $-1 -29.782801183858439 15.749750230179931 62.287853310429568 0.6018150307709319 0 0.79863550430605224 0.79863550430605224 0 -0.6018150307709319 forward_v I I I I #
coedge $-1 $119 $120 $121 $122 reversed $47 $-1 #
face $-1 $-1 $123 $27 $-1 $124 forward single #
loop $-1 $125 $126 $49 #
cone-surface $-1 42.388791765221839 15.749750230179931 3.6990099839921573 -0.6018150307709319 0 -0.79863550430605224 0.59897662822953923 0 -0.45136127307819895 1 I I -0.70710678118654757 0.70710678118654757 0.75 forward I I I I #
loop $-1 $-1 $127 $35 #
coedge $-1 $80 $80 $128 $129 reversed $50 $-1 #
face $-1 $130 $131 $28 $-1 $132 reversed single #
loop $-1 $-1 $133 $52 #
plane-surface $-1 -49.864803003021336 -8.8447740267143828 0.78989042093849093 -0.85716730853699208 0 0.51503806187062418 0.51503806187062418 0 0.85716730853699208 forward_v I I I I #
coedge $-1 $134 $135 $136 $137 reversed $53 $-1 #
face $-1 $-1 $138 $29 $-1 $139 forward single #
loop $-1 $140 $141 $55 #
cone-surface $-1 -45.426124615556411 -8.8447740267143828 4.724814880012536 0.85716730853699208 0 -0.51503806187062418 0.25751903093531209 0 0.42858365426849604 1 I I -0.70710678118654746 0.70710678118654746 0.5 forward I I I I #
loop $-1 $-1 $142 $37 #
coedge $-1 $89 $89 $143 $144 reversed $56 $-1 #
face $-1 $145 $146 $30 $-1 $147 forward single #
loop $-1 $-1 $148 $58 #
plane-surface $-1 -49.864803003021336 18.456970342235291 0.78989042093849093 -0.85716730853699208 0 0.51503806187062418 0.51503806187062418 0 0.85716730853699208 forward_v I I I I #
coedge $-1 $149 $150 $151 $152 reversed $59 $-1 #
face $-1 $-1 $153 $31 $-1 $154 forward single #
loop $-1 $155 $156 $61 #
cone-surface $-1 -45.426124615556411 18.456970342235291 4.724814880012536 0.85716730853699208 0 -0.51503806187062418 0.25751903093531209 0 0.42858365426849604 1 I I -0.70710678118654746 0.70710678118654746 0.5 forward I I I I #
loop $-1 $-1 $157 $39 #
coedge $-1 $98 $98 $158 $159 reversed $62 $-1 #
face $-1 $160 $161 $24 $-1 $162 reversed single #
loop $-1 $-1 $163 $64 #
plane-surface $-1 0 -22.639962790498021 0 0 1 0 0 0 1 forward_v I I I I #
coedge $-1 $164 $165 $166 $167 forward $65 $-1 #
coedge $-1 $168 $67 $169 $170 forward $41 $-1 #
coedge $-1 $67 $168 $171 $172 forward $41 $-1 #
coedge $-1 $173 $174 $67 $106 reversed $175 $-1 #
edge $-1 $176 -22.639962790498021 $177 22.639962790498021 $105 $178 forward 7 unknown #
face $-1 $179 $180 $25 $-1 $181 reversed single #
loop $-1 $-1 $182 $68 #
plane-surface $-1 0 0 -10.49127045525074 0 0 1 1 0 0 forward_v I I I I #
coedge $-1 $183 $184 $185 $186 reversed $69 $-1 #
coedge $-1 $187 $71 $184 $188 forward $44 $-1 #
coedge $-1 $71 $187 $189 $190 reversed $44 $-1 #
coedge $-1 $191 $185 $71 $114 forward $180 $-1 #
edge $-1 $192 4.110834158608327 $193 13.723030474129239 $113 $194 forward 7 unknown #
face $-1 $195 $196 $26 $-1 $197 reversed single #
loop $-1 $-1 $198 $72 #
plane-surface $-1 30.235974723441046 12.66124360195521 141.93545749730936 0 1 0 0.6018150307709319 0 0.79863550430605224 forward_v I I I I #
coedge $-1 $199 $200 $201 $202 reversed $73 $-1 #
coedge $-1 $120 $75 $203 $204 reversed $47 $-1 #
coedge $-1 $75 $119 $199 $205 reversed $47 $-1 #
coedge $-1 $201 $206 $75 $122 forward $207 $-1 #
edge $-1 $208 -34.746815641300813 $209 -23.835597145693797 $121 $210 forward 7 unknown #
loop $-1 $-1 $128 $76 #
plane-surface $-1 -29.782801183858439 15.749750230179931 62.287853310429568 0.6018150307709319 0 0.79863550430605224 0.79863550430605224 0 -0.6018150307709319 forward_v I I I I #
loop $-1 $-1 $211 $49 #
coedge $-1 $126 $126 $127 $212 reversed $77 $-1 #
coedge $-1 $127 $127 $126 $212 forward $79 $-1 #
coedge $-1 $128 $128 $80 $129 forward $123 $-1 #
edge $-1 $213 0 $213 6.2831853071796004 $128 $214 forward 7 unknown #
face $-1 $215 $216 $28 $-1 $217 forward single #
loop $-1 $-1 $218 $81 #
plane-surface $-1 -135.34976096467557 -4.6617815784516559 52.154433409411666 0 -1 0 0.85716730853699208 0 -0.51503806187062418 forward_v I I I I #
coedge $-1 $219 $220 $221 $222 reversed $82 $-1 #
coedge $-1 $135 $84 $223 $224 reversed $53 $-1 #
coedge $-1 $84 $134 $219 $225 reversed $53 $-1 #
coedge $-1 $221 $226 $84 $137 forward $216 $-1 #
edge $-1 $227 17.810077479316448 $228 23.639254491294054 $136 $229 forward 7 unknown #
loop $-1 $-1 $143 $85 #
plane-surface $-1 -49.864803003021336 -8.8447740267143828 0.78989042093849093 -0.85716730853699208 0 0.51503806187062418 0.51503806187062418 0 0.85716730853699208 forward_v I I I I #
loop $-1 $-1 $230 $55 #
coedge $-1 $141 $141 $142 $231 reversed $86 $-1 #
coedge $-1 $142 $142 $141 $231 forward $88 $-1 #
coedge $-1 $143 $143 $89 $144 forward $138 $-1 #
edge $-1 $232 0 $232 6.2831853071796004 $143 $233 forward 7 unknown #
face $-1 $234 $235 $30 $-1 $236 reversed single #
loop $-1 $-1 $151 $90 #
plane-surface $-1 0 0 10.49127045525074 0 0 1 1 0 0 forward_v I I I I #
coedge $-1 $237 $238 $239 $240 reversed $91 $-1 #
coedge $-1 $150 $93 $241 $242 reversed $59 $-1 #
coedge $-1 $93 $149 $237 $243 reversed $59 $-1 #
coedge $-1 $239 $244 $93 $152 forward $146 $-1 #
edge $-1 $245 17.810077479316448 $246 23.639254491294054 $151 $247 forward 7 unknown #
loop $-1 $-1 $158 $94 #
plane-surface $-1 -49.864803003021336 18.456970342235291 0.78989042093849093 -0.85716730853699208 0 0.51503806187062418 0.51503806187062418 0 0.85716730853699208 forward_v I I I I #
loop $-1 $-1 $248 $61 #
coedge $-1 $156 $156 $157 $249 reversed $95 $-1 #
coedge $-1 $157 $157 $156 $249 forward $97 $-1 #
coedge $-1 $158 $158 $98 $159 forward $153 $-1 #
edge $-1 $250 0 $250 6.2831853071796004 $158 $251 forward 7 unknown #
face $-1 $252 $253 $24 $-1 $254 reversed single #
loop $-1 $-1 $255 $99 #
plane-surface $-1 -49.864803003021336 0 0 1 0 0 0 0 -1 forward_v I I I I #
coedge $-1 $256 $171 $257 $258 forward $100 $-1 #
coedge $-1 $259 $102 $256 $260 forward $65 $-1 #
coedge $-1 $102 $259 $261 $262 forward $65 $-1 #
coedge $-1 $174 $173 $102 $167 reversed $175 $-1 #
edge $-1 $263 -22.639962790498021 $264 22.639962790498021 $166 $265 forward 7 unknown #
coedge $-1 $104 $103 $266 $267 forward $41 $-1 #
coedge $-1 $268 $269 $103 $170 reversed $253 $-1 #
edge $-1 $177 -49.864803003021336 $270 49.864803003021336 $169 $271 forward 7 unknown #
coedge $-1 $163 $272 $104 $172 reversed $100 $-1 #
edge $-1 $273 -49.864803003021336 $176 49.864803003021336 $171 $274 forward 7 unknown #
coedge $-1 $166 $105 $272 $275 forward $175 $-1 #
coedge $-1 $105 $166 $268 $276 reversed $175 $-1 #
loop $-1 $-1 $173 $252 #
vertex $-1 $106 $277 #
vertex $-1 $106 $278 #
straight-curve $-1 49.864803003021336 0 10.49127045525074 0 1 0 I I #
face $-1 $279 $280 $25 $-1 $281 reversed single #
loop $-1 $-1 $185 $107 #
plane-surface $-1 49.864803003021336 0 0 -1 0 0 0 0 1 forward_v I I I I #
coedge $-1 $282 $283 $183 $284 forward $108 $-1 #
coedge $-1 $285 $110 $182 $284 reversed $69 $-1 #
coedge $-1 $110 $285 $111 $188 reversed $69 $-1 #
coedge $-1 $113 $286 $110 $186 forward $180 $-1 #
edge $-1 $287 -6.0710379398087753 $192 -2.7694270910751539 $185 $288 forward 7 unknown #
coedge $-1 $112 $111 $289 $290 reversed $44 $-1 #
edge $-1 $192 -49.864803003021336 $291 49.864803003021336 $184 $292 forward 7 unknown #
coedge $-1 $293 $294 $112 $190 forward $280 $-1 #
edge $-1 $193 -49.864803003021336 $295 49.864803003021336 $189 $296 forward 7 unknown #
coedge $-1 $286 $113 $294 $297 forward $180 $-1 #
vertex $-1 $114 $298 #
vertex $-1 $297 $299 #
straight-curve $-1 49.864803003021336 -8.9169323163687828 -7.189659606517119 0 -1 0 I I #
face $-1 $-1 $207 $26 $-1 $300 forward single #
loop $-1 $-1 $301 $115 #
plane-surface $-1 49.864803003021336 0 0 -1 0 0 0 0 1 forward_v I I I I #
coedge $-1 $302 $303 $304 $305 reversed $116 $-1 #
coedge $-1 $306 $118 $120 $205 forward $73 $-1 #
coedge $-1 $118 $306 $302 $307 forward $73 $-1 #
coedge $-1 $304 $121 $118 $202 forward $207 $-1 #
edge $-1 $209 -10.963381743314686 $308 -4.7863684868652445 $201 $309 forward 7 unknown #
coedge $-1 $310 $311 $119 $204 forward $196 $-1 #
edge $-1 $312 -68.698651345524581 $208 -60.476458293403937 $203 $313 forward 7 unknown #
edge $-1 $209 86.0672801555435 $312 99.729606006042673 $120 $314 forward 7 unknown #
coedge $-1 $121 $304 $310 $315 forward $207 $-1 #
loop $-1 $-1 $304 $195 #
vertex $-1 $204 $316 #
vertex $-1 $122 $317 #
straight-curve $-1 15.117987361720523 18.838256858404652 10.491270455250742 -1 0 0 I I #
coedge $-1 $211 $211 $-1 $318 reversed $125 $-1 #
edge $-1 $319 0 $319 6.2831853071796004 $126 $320 forward 7 unknown #
vertex $-1 $129 $321 #
ellipse-curve $-1 44.409193755217835 15.749750230179931 6.3801739291904109 0.6018150307709319 0 0.79863550430605224 1.1979532564590785 0 -0.90272254615639791 1 I I #
face $-1 $-1 $322 $28 $-1 $323 reversed single #
loop $-1 $-1 $136 $130 #
plane-surface $-1 0 0 10.49127045525074 0 0 1 1 0 0 forward_v I I I I #
coedge $-1 $324 $325 $326 $327 reversed $131 $-1 #
coedge $-1 $328 $133 $135 $225 forward $82 $-1 #
coedge $-1 $133 $328 $324 $329 forward $82 $-1 #
coedge $-1 $326 $136 $133 $222 forward $216 $-1 #
edge $-1 $228 -8.6053794616199184 $330 -0.23939456509446444 $221 $331 forward 7 unknown #
coedge $-1 $332 $333 $134 $224 forward $322 $-1 #
edge $-1 $334 -25.287326283767342 $227 -15.585946249455093 $223 $335 forward 7 unknown #
edge $-1 $228 -11.317953843655689 $334 0 $135 $336 forward 7 unknown #
coedge $-1 $136 $326 $332 $337 forward $216 $-1 #
vertex $-1 $224 $338 #
vertex $-1 $137 $339 #
straight-curve $-1 -67.674880482337784 -13.02776647497711 10.491270455250742 1 0 0 I I #
coedge $-1 $230 $230 $-1 $340 reversed $140 $-1 #
edge $-1 $341 0 $341 6.2831853071796004 $141 $342 forward 7 unknown #
vertex $-1 $144 $343 #
ellipse-curve $-1 -46.950214497032533 -8.8447740267143828 5.6405804380946156 -0.85716730853699208 0 0.51503806187062418 0.51503806187062418 0 0.85716730853699208 1 I I #
face $-1 $-1 $344 $30 $-1 $345 reversed single #
loop $-1 $-1 $346 $145 #
plane-surface $-1 0 22.639962790498021 0 0 -1 0 0 0 -1 forward_v I I I I #
coedge $-1 $347 $148 $150 $243 forward $91 $-1 #
coedge $-1 $148 $347 $346 $348 reversed $91 $-1 #
coedge $-1 $349 $151 $148 $240 forward $146 $-1 #
edge $-1 $246 5.0454927228549185 $350 13.411477619380372 $239 $351 forward 7 unknown #
coedge $-1 $352 $353 $149 $242 forward $344 $-1 #
edge $-1 $354 -25.287326283767342 $245 -15.585946249455093 $241 $355 forward 7 unknown #
edge $-1 $246 -11.317953843655689 $354 0 $150 $356 forward 7 unknown #
coedge $-1 $151 $349 $352 $357 forward $146 $-1 #
vertex $-1 $242 $358 #
vertex $-1 $152 $359 #
straight-curve $-1 -67.674880482337784 14.273977893972564 10.491270455250742 1 0 0 I I #
coedge $-1 $248 $248 $-1 $360 reversed $155 $-1 #
edge $-1 $361 0 $361 6.2831853071796004 $156 $362 forward 7 unknown #
vertex $-1 $159 $363 #
ellipse-curve $-1 -46.950214497032533 18.456970342235291 5.6405804380946156 -0.85716730853699208 0 0.51503806187062418 0.51503806187062418 0 0.85716730853699208 1 I I #
face $-1 $-1 $175 $24 $-1 $364 reversed single #
loop $-1 $-1 $268 $160 #
plane-surface $-1 0 22.639962790498021 0 0 -1 0 0 0 -1 forward_v I I I I #
coedge $-1 $365 $266 $269 $366 forward $161 $-1 #
coedge $-1 $272 $163 $164 $260 reversed $100 $-1 #
coedge $-1 $266 $365 $163 $258 reversed $161 $-1 #
edge $-1 $273 -10.49127045525074 $367 10.49127045525074 $257 $368 forward 7 unknown #
coedge $-1 $165 $164 $365 $369 forward $65 $-1 #
edge $-1 $264 -49.864803003021336 $367 49.864803003021336 $256 $370 forward 7 unknown #
coedge $-1 $269 $268 $165 $262 reversed $253 $-1 #
edge $-1 $371 -49.864803003021336 $263 49.864803003021336 $261 $372 forward 7 unknown #
vertex $-1 $167 $373 #
vertex $-1 $275 $374 #
straight-curve $-1 49.864803003021336 0 -10.49127045525074 0 -1 0 I I #
coedge $-1 $255 $257 $168 $267 reversed $161 $-1 #
edge $-1 $270 -22.639962790498021 $273 22.639962790498021 $266 $375 forward 7 unknown #
coedge $-1 $261 $169 $174 $276 forward $253 $-1 #
coedge $-1 $169 $261 $255 $366 reversed $253 $-1 #
vertex $-1 $170 $376 #
straight-curve $-1 0 22.639962790498021 10.49127045525074 -1 0 0 I I #
coedge $-1 $171 $256 $173 $275 reversed $100 $-1 #
vertex $-1 $267 $377 #
straight-curve $-1 0 -22.639962790498021 10.49127045525074 1 0 0 I I #
edge $-1 $176 -10.49127045525074 $264 10.49127045525074 $173 $378 forward 7 unknown #
edge $-1 $177 -10.49127045525074 $263 10.49127045525074 $174 $379 forward 7 unknown #
point $-1 49.864803003021336 -22.639962790498021 10.49127045525074 #
point $-1 49.864803003021336 22.639962790498021 10.49127045525074 #
face $-1 $-1 $380 $25 $-1 $381 reversed single #
loop $-1 $-1 $189 $179 #
plane-surface $-1 0 -22.639962790498021 0 0 1 0 0 0 1 forward_v I I I I #
coedge $-1 $382 $182 $286 $383 forward $108 $-1 #
coedge $-1 $182 $382 $384 $385 forward $108 $-1 #
edge $-1 $386 -49.864803003021336 $287 49.864803003021336 $182 $387 forward 7 unknown #
coedge $-1 $184 $183 $388 $389 reversed $69 $-1 #
coedge $-1 $185 $191 $282 $383 reversed $180 $-1 #
vertex $-1 $383 $390 #
straight-curve $-1 49.864803003021336 -13.02776647497711 -4.420232515441965 0 0 1 I I #
coedge $-1 $388 $391 $187 $290 forward $380 $-1 #
edge $-1 $295 -13.723030474129239 $291 -4.110834158608327 $289 $392 forward 7 unknown #
vertex $-1 $290 $393 #
straight-curve $-1 0 -13.02776647497711 -7.189659606517119 -1 0 0 I I #
coedge $-1 $394 $189 $391 $395 forward $280 $-1 #
coedge $-1 $189 $394 $191 $297 reversed $280 $-1 #
vertex $-1 $395 $396 #
straight-curve $-1 0 -22.639962790498021 -7.189659606517119 -1 0 0 I I #
edge $-1 $193 7.189659606517119 $397 10.49127045525074 $191 $398 forward 7 unknown #
point $-1 49.864803003021336 -13.02776647497711 -7.189659606517119 #
point $-1 49.864803003021336 -22.639962790498021 -7.189659606517119 #
plane-surface $-1 0 0 10.49127045525074 0 0 1 1 0 0 forward_v I I I I #
coedge $-1 $311 $310 $303 $399 forward $196 $-1 #
coedge $-1 $303 $198 $200 $307 reversed $116 $-1 #
coedge $-1 $198 $302 $301 $399 reversed $116 $-1 #
coedge $-1 $206 $201 $198 $305 forward $207 $-1 #
edge $-1 $308 23.835597145693797 $400 34.746815641300813 $304 $401 forward 7 unknown #
coedge $-1 $200 $199 $311 $402 reversed $73 $-1 #
edge $-1 $403 -99.729606006042673 $308 -86.0672801555435 $302 $404 forward 7 unknown #
vertex $-1 $202 $405 #
straight-curve $-1 38.953584507414334 7.8748751150899654 10.491270455250742 0 -1 0 I I #
coedge $-1 $301 $203 $206 $315 reversed $196 $-1 #
coedge $-1 $203 $301 $306 $402 forward $196 $-1 #
vertex $-1 $204 $406 #
straight-curve $-1 49.864803003021336 18.838256858404652 70.967728748654679 0 0 1 I I #
straight-curve $-1 -29.782801183858439 18.838256858404652 62.287853310429568 0.79863550430605224 0 -0.6018150307709319 I I #
edge $-1 $400 12.66124360195521 $208 18.838256858404652 $310 $407 forward 7 unknown #
point $-1 49.864803003021336 18.838256858404652 10.49127045525074 #
point $-1 38.95358450741432 18.838256858404652 10.491270455250742 #
edge $-1 $408 1 $408 0 $211 $-1 forward 7 unknown #
vertex $-1 $212 $409 #
ellipse-curve $-1 42.840153038300038 15.749750230179931 4.2979866122216963 0.6018150307709319 0 0.79863550430605224 1.1979532564590785 0 -0.90272254615639791 1 I I #
point $-1 45.607147011676908 15.749750230179931 5.4774513830340137 #
loop $-1 $-1 $223 $215 #
plane-surface $-1 -49.864803003021336 0 0 1 0 0 0 0 -1 forward_v I I I I #
coedge $-1 $325 $218 $220 $329 reversed $131 $-1 #
coedge $-1 $218 $324 $410 $411 reversed $131 $-1 #
coedge $-1 $226 $221 $218 $327 forward $216 $-1 #
edge $-1 $330 -23.639254491294054 $412 -17.810077479316448 $326 $413 forward 7 unknown #
coedge $-1 $220 $219 $333 $414 reversed $82 $-1 #
edge $-1 $415 0 $330 11.317953843655689 $324 $416 forward 7 unknown #
vertex $-1 $222 $417 #
straight-curve $-1 -44.035625991043723 -4.4223870133571914 10.49127045525074 0 1 0 I I #
coedge $-1 $410 $223 $226 $337 reversed $322 $-1 #
coedge $-1 $223 $410 $328 $414 forward $322 $-1 #
vertex $-1 $224 $418 #
straight-curve $-1 -49.864803003021336 -13.02776647497711 26.077216704705833 0 0 1 I I #
straight-curve $-1 -49.864803003021336 -13.02776647497711 0.78989042093849093 -0.51503806187062418 0 -0.85716730853699208 I I #
edge $-1 $412 4.6617815784516559 $227 13.02776647497711 $332 $419 forward 7 unknown #
point $-1 -49.864803003021336 -13.02776647497711 10.49127045525074 #
point $-1 -44.03562599104373 -13.02776647497711 10.49127045525074 #
edge $-1 $420 1 $420 0 $230 $-1 forward 7 unknown #
vertex $-1 $231 $421 #
ellipse-curve $-1 -45.854708269824904 -8.8447740267143828 4.9823339109478484 -0.85716730853699208 0 0.51503806187062418 0.51503806187062418 0 0.85716730853699208 1 I I #
point $-1 -46.435176435161907 -8.8447740267143828 6.4977477466316031 #
loop $-1 $-1 $241 $234 #
plane-surface $-1 -49.864803003021336 0 0 1 0 0 0 0 -1 forward_v I I I I #
coedge $-1 $422 $423 $238 $348 forward $235 $-1 #
coedge $-1 $238 $237 $353 $424 reversed $91 $-1 #
edge $-1 $350 1.1846477803851108 $425 12.502601624040798 $346 $426 forward 7 unknown #
coedge $-1 $244 $239 $423 $427 forward $146 $-1 #
vertex $-1 $427 $428 #
straight-curve $-1 -44.035625991043723 9.2284851711176454 10.49127045525074 0 1 0 I I #
coedge $-1 $429 $241 $244 $357 reversed $344 $-1 #
coedge $-1 $241 $429 $347 $424 forward $344 $-1 #
vertex $-1 $242 $430 #
straight-curve $-1 -49.864803003021336 14.273977893972564 26.077216704705833 0 0 1 I I #
straight-curve $-1 -49.864803003021336 14.273977893972564 0.78989042093849093 -0.51503806187062418 0 -0.85716730853699208 I I #
edge $-1 $431 -22.639962790498021 $245 -14.273977893972564 $352 $432 forward 7 unknown #
point $-1 -49.864803003021336 14.273977893972564 10.49127045525074 #
point $-1 -44.03562599104373 14.273977893972564 10.49127045525074 #
edge $-1 $433 1 $433 0 $248 $-1 forward 7 unknown #
vertex $-1 $249 $434 #
ellipse-curve $-1 -45.854708269824904 18.456970342235291 4.9823339109478484 -0.85716730853699208 0 0.51503806187062418 0.51503806187062418 0 0.85716730853699208 1 I I #
point $-1 -46.435176435161907 18.456970342235291 6.4977477466316031 #
plane-surface $-1 49.864803003021336 0 0 -1 0 0 0 0 1 forward_v I I I I #
coedge $-1 $257 $255 $259 $369 reversed $161 $-1 #
edge $-1 $270 -10.49127045525074 $371 10.49127045525074 $269 $435 forward 7 unknown #
vertex $-1 $369 $436 #
straight-curve $-1 -49.864803003021336 -22.639962790498021 0 0 0 -1 I I #
edge $-1 $367 -22.639962790498021 $371 22.639962790498021 $365 $437 forward 7 unknown #
straight-curve $-1 0 -22.639962790498021 -10.49127045525074 -1 0 0 I I #
vertex $-1 $262 $438 #
straight-curve $-1 0 22.639962790498021 -10.49127045525074 1 0 0 I I #
point $-1 49.864803003021336 22.639962790498021 -10.49127045525074 #
point $-1 49.864803003021336 -22.639962790498021 -10.49127045525074 #
straight-curve $-1 -49.864803003021336 0 10.49127045525074 0 -1 0 I I #
point $-1 -49.864803003021336 22.639962790498021 10.49127045525074 #
point $-1 -49.864803003021336 -22.639962790498021 10.49127045525074 #
straight-curve $-1 49.864803003021336 -22.639962790498021 0 0 0 -1 I I #
straight-curve $-1 49.864803003021336 22.639962790498021 0 0 0 -1 I I #
loop $-1 $-1 $388 $279 #
plane-surface $-1 -49.864803003021336 0 0 1 0 0 0 0 -1 forward_v I I I I #
coedge $-1 $283 $282 $394 $439 forward $108 $-1 #
edge $-1 $287 13.02776647497711 $397 22.639962790498021 $286 $440 forward 7 unknown #
coedge $-1 $391 $388 $283 $385 reversed $380 $-1 #
edge $-1 $441 -22.639962790498021 $386 -13.02776647497711 $384 $442 forward 7 unknown #
vertex $-1 $389 $443 #
straight-curve $-1 0 -13.02776647497711 -10.49127045525074 1 0 0 I I #
coedge $-1 $384 $289 $285 $389 forward $380 $-1 #
edge $-1 $291 2.7694270910751539 $386 6.0710379398087753 $388 $444 forward 7 unknown #
point $-1 49.864803003021336 -13.02776647497711 -10.49127045525074 #
coedge $-1 $289 $384 $293 $395 reversed $380 $-1 #
straight-curve $-1 -49.864803003021336 -8.9169323163687828 -7.189659606517119 0 1 0 I I #
point $-1 -49.864803003021336 -13.02776647497711 -7.189659606517119 #
coedge $-1 $294 $293 $382 $439 reversed $280 $-1 #
edge $-1 $295 7.189659606517119 $441 10.49127045525074 $391 $445 forward 7 unknown #
point $-1 -49.864803003021336 -22.639962790498021 -7.189659606517119 #
vertex $-1 $297 $446 #
straight-curve $-1 49.864803003021336 -22.639962790498021 0 0 0 -1 I I #
edge $-1 $400 60.476458293403937 $403 68.698651345524581 $301 $447 forward 7 unknown #
vertex $-1 $315 $448 #
straight-curve $-1 15.117987361720523 12.66124360195521 10.491270455250742 1 0 0 I I #
edge $-1 $403 4.7863684868652445 $312 10.963381743314686 $311 $449 forward 7 unknown #
vertex $-1 $402 $450 #
straight-curve $-1 -29.782801183858439 12.66124360195521 62.287853310429568 -0.79863550430605224 0 0.6018150307709319 I I #
point $-1 38.95358450741432 12.66124360195521 10.491270455250742 #
point $-1 49.864803003021336 18.838256858404652 2.2690774031300904 #
straight-curve $-1 49.864803003021336 0 10.49127045525074 0 1 0 I I #
vertex $-1 $318 $451 #
point $-1 44.038106294759118 15.749750230179931 3.3952640660652986 #
coedge $-1 $333 $332 $325 $411 forward $322 $-1 #
edge $-1 $412 15.585946249455093 $415 25.287326283767342 $410 $452 forward 7 unknown #
vertex $-1 $337 $453 #
straight-curve $-1 -67.674880482337784 -4.6617815784516559 10.491270455250742 -1 0 0 I I #
edge $-1 $415 0.23939456509446444 $334 8.6053794616199184 $333 $454 forward 7 unknown #
vertex $-1 $414 $455 #
straight-curve $-1 -49.864803003021336 -4.6617815784516559 0.78989042093849093 0.51503806187062418 0 0.85716730853699208 I I #
point $-1 -44.03562599104373 -4.6617815784516559 10.49127045525074 #
point $-1 -49.864803003021336 -13.02776647497711 0.78989042093849093 #
straight-curve $-1 -49.864803003021336 0 10.49127045525074 0 -1 0 I I #
vertex $-1 $340 $456 #
point $-1 -45.339670207954285 -8.8447740267143828 5.8395012194848404 #
coedge $-1 $423 $346 $429 $457 reversed $235 $-1 #
coedge $-1 $346 $422 $349 $427 reversed $235 $-1 #
edge $-1 $425 -13.411477619380372 $354 -5.0454927228549185 $353 $458 forward 7 unknown #
vertex $-1 $348 $459 #
straight-curve $-1 -43.425487294234841 22.639962790498021 11.506711804727765 -0.51503806187062429 0 -0.85716730853699219 I I #
edge $-1 $350 44.03562599104373 $431 49.864803003021336 $423 $460 forward 7 unknown #
point $-1 -44.03562599104373 22.639962790498018 10.49127045525074 #
coedge $-1 $353 $352 $422 $457 forward $344 $-1 #
point $-1 -49.864803003021336 14.273977893972564 0.78989042093849093 #
vertex $-1 $427 $461 #
straight-curve $-1 -49.864803003021336 0 10.49127045525074 0 -1 0 I I #
vertex $-1 $360 $462 #
point $-1 -45.339670207954285 18.456970342235291 5.8395012194848404 #
straight-curve $-1 -49.864803003021336 22.639962790498021 0 0 0 -1 I I #
point $-1 -49.864803003021336 -22.639962790498021 -10.49127045525074 #
straight-curve $-1 -49.864803003021336 0 -10.49127045525074 0 1 0 I I #
point $-1 -49.864803003021336 22.639962790498021 -10.49127045525074 #
edge $-1 $397 -49.864803003021336 $441 49.864803003021336 $394 $463 forward 7 unknown #
straight-curve $-1 49.864803003021336 0 -10.49127045525074 0 -1 0 I I #
vertex $-1 $385 $464 #
straight-curve $-1 -49.864803003021336 0 -10.49127045525074 0 1 0 I I #
point $-1 -49.864803003021336 -13.02776647497711 -10.49127045525074 #
straight-curve $-1 -49.864803003021336 -13.02776647497711 -4.420232515441965 0 0 -1 I I #
straight-curve $-1 -49.864803003021336 -22.639962790498021 0 0 0 -1 I I #
point $-1 49.864803003021336 -22.639962790498021 -10.49127045525074 #
straight-curve $-1 49.864803003021336 12.66124360195521 70.967728748654679 0 0 -1 I I #
point $-1 49.864803003021336 12.66124360195521 10.49127045525074 #
straight-curve $-1 49.864803003021336 7.8748751150899654 2.2690774031300904 0 1 0 I I #
point $-1 49.864803003021336 12.66124360195521 2.2690774031300904 #
point $-1 41.93743049214364 15.749750230179931 3.1000333557626183 #
straight-curve $-1 -49.864803003021336 -4.6617815784516559 26.077216704705833 0 0 -1 I I #
point $-1 -49.864803003021336 -4.6617815784516559 10.49127045525074 #
straight-curve $-1 -49.864803003021336 -4.4223870133571914 0.78989042093849082 0 -1 0 I I #
point $-1 -49.864803003021336 -4.6617815784516559 0.78989042093849093 #
point $-1 -44.997540961287918 -8.8447740267143828 4.4672958490772237 #
edge $-1 $431 -10.49127045525074 $425 -0.78989042093849093 $422 $465 forward 7 unknown #
straight-curve $-1 -49.864803003021336 9.2284851711176454 0.78989042093849082 0 -1 0 I I #
point $-1 -49.864803003021336 22.639962790498018 0.78989042093849093 #
straight-curve $-1 0 22.639962790498021 10.49127045525074 -1 0 0 I I #
point $-1 -49.864803003021336 22.639962790498021 10.49127045525074 #
point $-1 -44.997540961287918 18.456970342235291 4.4672958490772237 #
straight-curve $-1 0 -22.639962790498021 -10.49127045525074 -1 0 0 I I #
point $-1 -49.864803003021336 -22.639962790498021 -10.49127045525074 #
straight-curve $-1 -49.864803003021336 22.639962790498021 0 0 0 -1 I I #
End-of-ACIS-data 