500 0 6 0           
7 Unknown 11 ACIS 5.0 NT 24 Fri Mar 26 01:20:39 1999 
-1 9.9999999999999995e-007 1e-010 
body $-1 $6 $-1 $7 #
body $-1 $8 $-1 $9 #
body $-1 $10 $-1 $11 #
body $-1 $12 $-1 $13 #
body $-1 $14 $-1 $15 #
body $-1 $16 $-1 $17 #
lump $-1 $-1 $18 $0 #
transform $-1 1 0 0 0 1 0 0 0 1 65.481734672078616 27.233463161632699 10.851579692063885 1 rotate no_reflect no_shear #
lump $-1 $-1 $19 $1 #
transform $-1 1 0 0 0 1 0 0 0 1 65.481734672078616 27.233463161632699 10.851579692063885 1 rotate no_reflect no_shear #
lump $-1 $-1 $20 $2 #
transform $-1 1 0 0 0 1 0 0 0 1 65.481734672078616 27.233463161632699 10.851579692063885 1 rotate no_reflect no_shear #
lump $-1 $-1 $21 $3 #
transform $-1 1 0 0 0 1 0 0 0 1 65.481734672078616 27.233463161632699 10.851579692063885 1 rotate no_reflect no_shear #
lump $-1 $-1 $22 $4 #
transform $-1 1 0 0 0 1 0 0 0 1 65.481734672078616 27.233463161632699 10.851579692063885 1 rotate no_reflect no_shear #
lump $-1 $-1 $23 $5 #
transform $-1 1 0 0 0 1 0 0 0 1 65.481734672078616 27.233463161632699 10.851579692063885 1 rotate no_reflect no_shear #
shell $-1 $-1 $-1 $24 $-1 $6 #
shell $-1 $-1 $-1 $25 $-1 $8 #
shell $-1 $-1 $-1 $26 $-1 $10 #
shell $-1 $-1 $-1 $27 $-1 $12 #
shell $-1 $-1 $-1 $28 $-1 $14 #
shell $-1 $-1 $-1 $29 $-1 $16 #
face $-1 $30 $31 $18 $-1 $32 forward single #
face $-1 $33 $34 $19 $-1 $35 forward single #
face $-1 $36 $37 $20 $-1 $38 reversed single #
face $-1 $39 $40 $21 $-1 $41 reversed single #
face $-1 $42 $43 $22 $-1 $44 forward single #
face $-1 $45 $46 $23 $-1 $47 forward single #
face $-1 $48 $49 $18 $-1 $50 reversed single #
loop $-1 $-1 $51 $24 #
plane-surface $-1 0 0 10.851579692063885 0 0 1 1 0 0 forward_v I I I I #
face $-1 $52 $53 $19 $-1 $54 reversed single #
loop $-1 $-1 $55 $25 #
plane-surface $-1 0 -20.489007844179415 -1.8462713061753901 0 0 1 1 0 0 forward_v I I I I #
face $-1 $56 $57 $20 $-1 $58 reversed single #
loop $-1 $-1 $59 $26 #
plane-surface $-1 -46.973562316879708 18.365880894393062 0 0 1 0 0 0 1 forward_v I I I I #
face $-1 $60 $61 $21 $-1 $62 reversed single #
loop $-1 $-1 $63 $27 #
plane-surface $-1 -171.43340808557923 -6.3020092065639943 83.18044026887975 0 1 0 -0.80901700255871778 0 0.5877852410284794 forward_v I I I I #
face $-1 $64 $65 $22 $-1 $66 forward single #
loop $-1 $67 $68 $28 #
cone-surface $-1 -63.064486039324947 -4.4338885851383765 7.9977396945365573 0.80901700255871778 0 -0.5877852410284794 0.2938926205142397 0 0.40450850127935889 1 I I 0 1 0.5 forward I I I I #
face $-1 $69 $70 $23 $-1 $71 forward single #
loop $-1 $72 $73 $29 #
cone-surface $-1 -63.064486039324947 -1.6317076529999461 7.9977396945365573 0.80901700255871778 0 -0.5877852410284794 0.2938926205142397 0 0.40450850127935889 1 I I 0 1 0.5 forward I I I I #
face $-1 $74 $75 $18 $-1 $76 reversed single #
loop $-1 $-1 $77 $30 #
plane-surface $-1 0 0 -10.851579692063885 0 0 1 1 0 0 forward_v I I I I #
coedge $-1 $78 $79 $80 $81 forward $31 $-1 #
face $-1 $82 $83 $19 $-1 $84 reversed single #
loop $-1 $-1 $85 $33 #
plane-surface $-1 0 -20.489007844179415 -4.8462713061753906 0 0 1 1 0 0 forward_v I I I I #
coedge $-1 $86 $87 $88 $89 reversed $34 $-1 #
face $-1 $90 $91 $20 $-1 $92 reversed single #
loop $-1 $-1 $93 $36 #
plane-surface $-1 -49.23882585189012 22.799672028012878 0 1 0 0 0 0 -1 forward_v I I I I #
coedge $-1 $94 $95 $96 $97 forward $37 $-1 #
face $-1 $98 $99 $21 $-1 $100 reversed single #
loop $-1 $-1 $101 $39 #
plane-surface $-1 -65.481734672078616 -3.0327981190691595 6.2020458744984239 -0.80901700255871778 0 0.5877852410284794 0.5877852410284794 0 0.80901700255871778 forward_v I I I I #
coedge $-1 $102 $103 $104 $105 reversed $40 $-1 #
face $-1 $-1 $106 $22 $-1 $107 forward single #
loop $-1 $108 $109 $42 #
cone-surface $-1 -62.134025133408102 -4.4338885851383765 7.3217202955348473 0.80901700255871778 0 -0.5877852410284794 0.14694631025711985 0 0.20225425063967944 1 I I -0.70710678118654746 0.70710678118654746 0.25 forward I I I I #
loop $-1 $-1 $110 $28 #
coedge $-1 $68 $68 $111 $112 reversed $43 $-1 #
face $-1 $-1 $113 $23 $-1 $114 forward single #
loop $-1 $115 $116 $45 #
cone-surface $-1 -62.134025133408102 -1.6317076529999461 7.3217202955348473 0.80901700255871778 0 -0.5877852410284794 0.14694631025711985 0 0.20225425063967944 1 I I -0.70710678118654746 0.70710678118654746 0.25 forward I I I I #
loop $-1 $-1 $117 $29 #
coedge $-1 $73 $73 $118 $119 reversed $46 $-1 #
face $-1 $120 $121 $18 $-1 $122 reversed single #
loop $-1 $-1 $123 $48 #
plane-surface $-1 0 -27.233463161632699 0 0 1 0 0 0 1 forward_v I I I I #
coedge $-1 $124 $125 $126 $127 forward $49 $-1 #
coedge $-1 $128 $51 $129 $130 forward $31 $-1 #
coedge $-1 $51 $128 $131 $132 forward $31 $-1 #
coedge $-1 $133 $134 $51 $81 reversed $135 $-1 #
edge $-1 $136 -27.233463161632699 $137 27.233463161632699 $80 $138 forward 7 unknown #
face $-1 $139 $140 $19 $-1 $141 reversed single #
loop $-1 $-1 $142 $52 #
plane-surface $-1 0 -13.744552526726132 -3.3462713061753906 0 -1 0 0 0 -1 forward_v I I I I #
coedge $-1 $143 $144 $145 $146 reversed $53 $-1 #
coedge $-1 $147 $55 $148 $149 forward $34 $-1 #
coedge $-1 $55 $147 $150 $151 reversed $34 $-1 #
coedge $-1 $152 $153 $55 $89 forward $154 $-1 #
edge $-1 $155 3.5000486046364241 $156 16.988959239542993 $88 $157 forward 7 unknown #
face $-1 $158 $159 $20 $-1 $160 reversed single #
loop $-1 $-1 $161 $56 #
plane-surface $-1 -44.708298781869296 22.799672028012878 0 -1 0 0 0 0 1 forward_v I I I I #
coedge $-1 $162 $163 $164 $165 reversed $57 $-1 #
coedge $-1 $166 $59 $167 $168 reversed $37 $-1 #
coedge $-1 $59 $166 $169 $170 reversed $37 $-1 #
coedge $-1 $163 $162 $59 $97 reversed $57 $-1 #
edge $-1 $171 -10.851579692063885 $172 10.851579692063885 $96 $173 forward 7 unknown #
face $-1 $174 $175 $21 $-1 $176 reversed single #
loop $-1 $-1 $177 $60 #
plane-surface $-1 -171.43340808557923 0.23641296842567527 83.18044026887975 0 -1 0 0.80901700255871778 0 -0.5877852410284794 forward_v I I I I #
coedge $-1 $178 $179 $180 $181 reversed $61 $-1 #
coedge $-1 $103 $63 $182 $183 reversed $40 $-1 #
coedge $-1 $63 $102 $178 $184 reversed $40 $-1 #
coedge $-1 $180 $185 $63 $105 forward $186 $-1 #
edge $-1 $187 20.234969370710999 $188 23.613053325664005 $104 $189 forward 7 unknown #
loop $-1 $-1 $111 $64 #
plane-surface $-1 -65.481734672078616 -3.0327981190691595 6.2020458744984239 -0.80901700255871778 0 0.5877852410284794 0.5877852410284794 0 0.80901700255871778 forward_v I I I I #
loop $-1 $-1 $190 $42 #
coedge $-1 $109 $109 $110 $191 reversed $65 $-1 #
coedge $-1 $110 $110 $109 $191 forward $67 $-1 #
coedge $-1 $111 $111 $68 $112 forward $106 $-1 #
edge $-1 $192 0 $192 6.2831853071796004 $111 $193 forward 7 unknown #
loop $-1 $-1 $118 $69 #
plane-surface $-1 -65.481734672078616 -3.0327981190691595 6.2020458744984239 -0.80901700255871778 0 0.5877852410284794 0.5877852410284794 0 0.80901700255871778 forward_v I I I I #
loop $-1 $-1 $194 $45 #
coedge $-1 $116 $116 $117 $195 reversed $70 $-1 #
coedge $-1 $117 $117 $116 $195 forward $72 $-1 #
coedge $-1 $118 $118 $73 $119 forward $113 $-1 #
edge $-1 $196 0 $196 6.2831853071796004 $118 $197 forward 7 unknown #
face $-1 $198 $199 $18 $-1 $200 reversed single #
loop $-1 $-1 $201 $74 #
plane-surface $-1 -65.481734672078616 0 0 1 0 0 0 0 -1 forward_v I I I I #
coedge $-1 $202 $131 $203 $204 forward $75 $-1 #
coedge $-1 $205 $77 $202 $206 forward $49 $-1 #
coedge $-1 $77 $205 $207 $208 forward $49 $-1 #
coedge $-1 $134 $133 $77 $127 reversed $135 $-1 #
edge $-1 $209 -27.233463161632699 $210 27.233463161632699 $126 $211 forward 7 unknown #
coedge $-1 $79 $78 $212 $213 forward $31 $-1 #
coedge $-1 $214 $215 $78 $130 reversed $199 $-1 #
edge $-1 $137 -65.481734672078616 $216 65.481734672078616 $129 $217 forward 7 unknown #
coedge $-1 $123 $218 $79 $132 reversed $75 $-1 #
edge $-1 $219 -65.481734672078616 $136 65.481734672078616 $131 $220 forward 7 unknown #
coedge $-1 $126 $80 $218 $221 forward $135 $-1 #
coedge $-1 $80 $126 $214 $222 reversed $135 $-1 #
loop $-1 $-1 $133 $198 #
vertex $-1 $81 $223 #
vertex $-1 $81 $224 #
straight-curve $-1 65.481734672078616 0 10.851579692063885 0 1 0 I I #
face $-1 $225 $226 $19 $-1 $227 reversed single #
loop $-1 $-1 $228 $82 #
plane-surface $-1 -65.481734672078616 0 0 1 0 0 0 0 -1 forward_v I I I I #
coedge $-1 $229 $148 $153 $230 reversed $83 $-1 #
coedge $-1 $231 $85 $232 $233 reversed $53 $-1 #
coedge $-1 $85 $231 $229 $234 forward $53 $-1 #
coedge $-1 $153 $152 $85 $146 forward $154 $-1 #
edge $-1 $235 -16.988959239542993 $236 -3.5000486046364241 $145 $237 forward 7 unknown #
coedge $-1 $87 $86 $228 $238 reversed $34 $-1 #
coedge $-1 $142 $239 $86 $149 reversed $83 $-1 #
edge $-1 $155 -65.481734672078616 $240 65.481734672078616 $148 $241 forward 7 unknown #
coedge $-1 $242 $243 $87 $151 forward $226 $-1 #
edge $-1 $156 -65.481734672078616 $244 65.481734672078616 $150 $245 forward 7 unknown #
coedge $-1 $145 $88 $243 $246 forward $154 $-1 #
coedge $-1 $88 $145 $142 $230 forward $154 $-1 #
loop $-1 $-1 $88 $225 #
vertex $-1 $89 $247 #
vertex $-1 $246 $248 #
straight-curve $-1 65.481734672078616 -10.244503922089708 -1.8462713061753901 0 -1 0 I I #
face $-1 $249 $250 $20 $-1 $251 reversed single #
loop $-1 $-1 $252 $90 #
plane-surface $-1 0 27.233463161632699 0 0 -1 0 0 0 -1 forward_v I I I I #
coedge $-1 $253 $254 $166 $255 forward $91 $-1 #
coedge $-1 $96 $93 $256 $257 reversed $57 $-1 #
coedge $-1 $93 $96 $258 $259 reversed $57 $-1 #
coedge $-1 $260 $261 $93 $165 forward $159 $-1 #
edge $-1 $262 -10.851579692063885 $263 10.851579692063885 $164 $264 forward 7 unknown #
coedge $-1 $95 $94 $161 $255 reversed $37 $-1 #
coedge $-1 $256 $265 $94 $168 forward $250 $-1 #
edge $-1 $266 21.221517623429442 $172 25.752044693450266 $167 $267 forward 7 unknown #
coedge $-1 $268 $258 $95 $170 forward $269 $-1 #
edge $-1 $171 -25.752044693450266 $270 -21.221517623429442 $169 $271 forward 7 unknown #
vertex $-1 $170 $272 #
vertex $-1 $168 $273 #
straight-curve $-1 -49.23882585189012 18.365880894393062 0 0 0 -1 I I #
face $-1 $-1 $186 $21 $-1 $274 forward single #
loop $-1 $-1 $275 $98 #
plane-surface $-1 -65.481734672078616 0 0 1 0 0 0 0 -1 forward_v I I I I #
coedge $-1 $276 $277 $278 $279 reversed $99 $-1 #
coedge $-1 $280 $101 $103 $184 forward $61 $-1 #
coedge $-1 $101 $280 $276 $281 forward $61 $-1 #
coedge $-1 $278 $104 $101 $181 forward $186 $-1 #
edge $-1 $188 -4.7856101470294146 $282 1.752812027960255 $180 $283 forward 7 unknown #
coedge $-1 $284 $285 $102 $183 forward $175 $-1 #
edge $-1 $286 -35.388174259941451 $187 -30.738640442375988 $182 $287 forward 7 unknown #
edge $-1 $188 -5.7471398040586923 $286 0 $103 $288 forward 7 unknown #
coedge $-1 $104 $278 $284 $289 forward $186 $-1 #
loop $-1 $-1 $278 $174 #
vertex $-1 $183 $290 #
vertex $-1 $105 $291 #
straight-curve $-1 -85.716704042789615 -6.3020092065639943 10.851579692063886 1 0 0 I I #
coedge $-1 $190 $190 $-1 $292 reversed $108 $-1 #
edge $-1 $293 0 $293 6.2831853071796004 $109 $294 forward 7 unknown #
vertex $-1 $112 $295 #
ellipse-curve $-1 -63.792692694602117 -4.4338885851383765 8.5268127832811498 -0.80901700255871778 0 0.5877852410284794 0.2938926205142397 0 0.40450850127935889 1 I I #
coedge $-1 $194 $194 $-1 $296 reversed $115 $-1 #
edge $-1 $297 0 $297 6.2831853071796004 $116 $298 forward 7 unknown #
vertex $-1 $119 $299 #
ellipse-curve $-1 -63.792692694602117 -1.6317076529999461 8.5268127832811498 -0.80901700255871778 0 0.5877852410284794 0.2938926205142397 0 0.40450850127935889 1 I I #
face $-1 $-1 $135 $18 $-1 $300 reversed single #
loop $-1 $-1 $214 $120 #
plane-surface $-1 0 27.233463161632699 0 0 -1 0 0 0 -1 forward_v I I I I #
coedge $-1 $301 $212 $215 $302 forward $121 $-1 #
coedge $-1 $218 $123 $124 $206 reversed $75 $-1 #
coedge $-1 $212 $301 $123 $204 reversed $121 $-1 #
edge $-1 $219 -10.851579692063885 $303 10.851579692063885 $203 $304 forward 7 unknown #
coedge $-1 $125 $124 $301 $305 forward $49 $-1 #
edge $-1 $210 -65.481734672078616 $303 65.481734672078616 $202 $306 forward 7 unknown #
coedge $-1 $215 $214 $125 $208 reversed $199 $-1 #
edge $-1 $307 -65.481734672078616 $209 65.481734672078616 $207 $308 forward 7 unknown #
vertex $-1 $127 $309 #
vertex $-1 $221 $310 #
straight-curve $-1 65.481734672078616 0 -10.851579692063885 0 -1 0 I I #
coedge $-1 $201 $203 $128 $213 reversed $121 $-1 #
edge $-1 $216 -27.233463161632699 $219 27.233463161632699 $212 $311 forward 7 unknown #
coedge $-1 $207 $129 $134 $222 forward $199 $-1 #
coedge $-1 $129 $207 $201 $302 reversed $199 $-1 #
vertex $-1 $130 $312 #
straight-curve $-1 0 27.233463161632699 10.851579692063885 -1 0 0 I I #
coedge $-1 $131 $202 $133 $221 reversed $75 $-1 #
vertex $-1 $213 $313 #
straight-curve $-1 0 -27.233463161632699 10.851579692063885 1 0 0 I I #
edge $-1 $136 -10.851579692063885 $210 10.851579692063885 $133 $314 forward 7 unknown #
edge $-1 $137 -10.851579692063885 $209 10.851579692063885 $134 $315 forward 7 unknown #
point $-1 65.481734672078616 -27.233463161632699 10.851579692063885 #
point $-1 65.481734672078616 27.233463161632699 10.851579692063885 #
face $-1 $-1 $154 $19 $-1 $316 reversed single #
loop $-1 $-1 $150 $139 #
plane-surface $-1 0 -27.233463161632699 0 0 1 0 0 0 1 forward_v I I I I #
coedge $-1 $317 $318 $147 $238 forward $140 $-1 #
coedge $-1 $239 $142 $144 $234 reversed $83 $-1 #
edge $-1 $236 -3.1731356530876953 $155 -0.17313565308769485 $153 $319 forward 7 unknown #
coedge $-1 $144 $143 $320 $321 reversed $53 $-1 #
coedge $-1 $243 $242 $143 $233 forward $226 $-1 #
edge $-1 $322 -65.481734672078616 $235 65.481734672078616 $232 $323 forward 7 unknown #
edge $-1 $324 -65.481734672078616 $236 65.481734672078616 $229 $325 forward 7 unknown #
vertex $-1 $233 $326 #
vertex $-1 $146 $327 #
straight-curve $-1 65.481734672078616 -10.244503922089708 -4.8462713061753906 0 1 0 I I #
edge $-1 $244 -16.988959239542993 $240 -3.5000486046364241 $228 $328 forward 7 unknown #
coedge $-1 $148 $229 $317 $329 reversed $83 $-1 #
vertex $-1 $238 $330 #
straight-curve $-1 0 -13.744552526726132 -1.8462713061753901 -1 0 0 I I #
coedge $-1 $232 $150 $318 $331 forward $226 $-1 #
coedge $-1 $150 $232 $152 $246 reversed $226 $-1 #
vertex $-1 $331 $332 #
straight-curve $-1 0 -27.233463161632699 -1.8462713061753901 -1 0 0 I I #
edge $-1 $156 1.8462713061753901 $235 4.8462713061753906 $152 $333 forward 7 unknown #
point $-1 65.481734672078616 -13.744552526726132 -1.8462713061753901 #
point $-1 65.481734672078616 -27.233463161632699 -1.8462713061753901 #
face $-1 $-1 $269 $20 $-1 $334 forward single #
loop $-1 $-1 $265 $158 #
plane-surface $-1 0 0 -10.851579692063885 0 0 1 1 0 0 forward_v I I I I #
coedge $-1 $261 $260 $335 $336 forward $159 $-1 #
coedge $-1 $335 $161 $265 $337 reversed $91 $-1 #
coedge $-1 $161 $335 $268 $338 reversed $91 $-1 #
edge $-1 $270 -10.851579692063885 $266 10.851579692063885 $161 $339 forward 7 unknown #
coedge $-1 $340 $167 $162 $257 forward $250 $-1 #
edge $-1 $172 6.9660448803866224 $262 15.833627147626256 $256 $341 forward 7 unknown #
coedge $-1 $169 $342 $163 $259 forward $269 $-1 #
edge $-1 $263 -15.833627147626256 $171 -6.9660448803866224 $258 $343 forward 7 unknown #
coedge $-1 $252 $164 $342 $344 reversed $159 $-1 #
coedge $-1 $164 $252 $340 $345 reversed $159 $-1 #
vertex $-1 $345 $346 #
vertex $-1 $165 $347 #
straight-curve $-1 -49.23882585189012 27.233463161632699 0 0 0 1 I I #
coedge $-1 $167 $340 $253 $337 forward $250 $-1 #
vertex $-1 $168 $348 #
straight-curve $-1 -23.486781158439854 18.365880894393062 -10.851579692063885 -1 0 0 I I #
coedge $-1 $342 $169 $254 $338 forward $269 $-1 #
loop $-1 $-1 $268 $249 #
vertex $-1 $170 $349 #
straight-curve $-1 -23.486781158439854 18.365880894393062 10.851579692063885 1 0 0 I I #
point $-1 -49.23882585189012 18.365880894393062 10.851579692063885 #
point $-1 -49.23882585189012 18.365880894393062 -10.851579692063885 #
plane-surface $-1 0 0 10.851579692063885 0 0 1 1 0 0 forward_v I I I I #
coedge $-1 $285 $284 $277 $350 forward $175 $-1 #
coedge $-1 $277 $177 $179 $281 reversed $99 $-1 #
coedge $-1 $177 $276 $275 $350 reversed $99 $-1 #
coedge $-1 $185 $180 $177 $279 forward $186 $-1 #
edge $-1 $282 -23.613053325664005 $351 -20.234969370710999 $278 $352 forward 7 unknown #
coedge $-1 $179 $178 $285 $353 reversed $61 $-1 #
edge $-1 $354 0 $282 5.7471398040586923 $276 $355 forward 7 unknown #
vertex $-1 $181 $356 #
straight-curve $-1 -62.103650717125618 -1.5163990595345798 10.851579692063883 0 1 0 I I #
coedge $-1 $275 $182 $185 $289 reversed $175 $-1 #
coedge $-1 $182 $275 $280 $353 forward $175 $-1 #
vertex $-1 $183 $357 #
straight-curve $-1 -65.481734672078616 -6.3020092065639943 41.590220134439875 0 0 1 I I #
straight-curve $-1 -65.481734672078616 -6.3020092065639943 6.2020458744984239 -0.5877852410284794 0 -0.80901700255871778 I I #
edge $-1 $351 -0.23641296842567527 $187 6.3020092065639943 $284 $358 forward 7 unknown #
point $-1 -65.481734672078616 -6.3020092065639943 10.851579692063885 #
point $-1 -62.10365071712561 -6.3020092065639943 10.851579692063885 #
edge $-1 $359 1 $359 0 $190 $-1 forward 7 unknown #
vertex $-1 $191 $360 #
ellipse-curve $-1 -62.336279384047778 -4.4338885851383765 7.4686666057919675 -0.80901700255871778 0 0.5877852410284794 0.2938926205142397 0 0.40450850127935889 1 I I #
point $-1 -63.498800074087868 -4.4338885851383765 8.9313212845605072 #
edge $-1 $361 1 $361 0 $194 $-1 forward 7 unknown #
vertex $-1 $195 $362 #
ellipse-curve $-1 -62.336279384047778 -1.6317076529999461 7.4686666057919675 -0.80901700255871778 0 0.5877852410284794 0.2938926205142397 0 0.40450850127935889 1 I I #
point $-1 -63.498800074087868 -1.6317076529999461 8.9313212845605072 #
plane-surface $-1 65.481734672078616 0 0 -1 0 0 0 0 1 forward_v I I I I #
coedge $-1 $203 $201 $205 $305 reversed $121 $-1 #
edge $-1 $216 -10.851579692063885 $307 10.851579692063885 $215 $363 forward 7 unknown #
vertex $-1 $305 $364 #
straight-curve $-1 -65.481734672078616 -27.233463161632699 0 0 0 -1 I I #
edge $-1 $303 -27.233463161632699 $307 27.233463161632699 $301 $365 forward 7 unknown #
straight-curve $-1 0 -27.233463161632699 -10.851579692063885 -1 0 0 I I #
vertex $-1 $208 $366 #
straight-curve $-1 0 27.233463161632699 -10.851579692063885 1 0 0 I I #
point $-1 65.481734672078616 27.233463161632699 -10.851579692063885 #
point $-1 65.481734672078616 -27.233463161632699 -10.851579692063885 #
straight-curve $-1 -65.481734672078616 0 10.851579692063885 0 -1 0 I I #
point $-1 -65.481734672078616 27.233463161632699 10.851579692063885 #
point $-1 -65.481734672078616 -27.233463161632699 10.851579692063885 #
straight-curve $-1 65.481734672078616 -27.233463161632699 0 0 0 -1 I I #
straight-curve $-1 65.481734672078616 27.233463161632699 0 0 0 -1 I I #
plane-surface $-1 65.481734672078616 0 0 -1 0 0 0 0 1 forward_v I I I I #
coedge $-1 $320 $228 $239 $329 forward $140 $-1 #
coedge $-1 $228 $320 $242 $331 reversed $140 $-1 #
straight-curve $-1 65.481734672078616 -13.744552526726132 -1.6731356530876953 0 0 1 I I #
coedge $-1 $318 $317 $231 $321 forward $140 $-1 #
edge $-1 $324 3.5000486046364241 $322 16.988959239542993 $320 $367 forward 7 unknown #
vertex $-1 $233 $368 #
straight-curve $-1 0 -27.233463161632699 -4.8462713061753906 1 0 0 I I #
vertex $-1 $321 $369 #
straight-curve $-1 0 -13.744552526726132 -4.8462713061753906 1 0 0 I I #
point $-1 65.481734672078616 -27.233463161632699 -4.8462713061753906 #
point $-1 65.481734672078616 -13.744552526726132 -4.8462713061753906 #
straight-curve $-1 -65.481734672078616 -10.244503922089708 -1.8462713061753901 0 1 0 I I #
edge $-1 $240 0.17313565308769485 $324 3.1731356530876953 $317 $370 forward 7 unknown #
point $-1 -65.481734672078616 -13.744552526726132 -1.8462713061753901 #
edge $-1 $244 1.8462713061753901 $322 4.8462713061753906 $318 $371 forward 7 unknown #
point $-1 -65.481734672078616 -27.233463161632699 -1.8462713061753901 #
straight-curve $-1 65.481734672078616 -27.233463161632699 0 0 0 -1 I I #
plane-surface $-1 0 0 10.851579692063885 0 0 1 1 0 0 forward_v I I I I #
coedge $-1 $254 $253 $252 $336 reversed $91 $-1 #
edge $-1 $372 -10.851579692063885 $373 10.851579692063885 $252 $374 forward 7 unknown #
edge $-1 $373 -15.833627147626256 $266 -6.9660448803866224 $265 $375 forward 7 unknown #
edge $-1 $270 6.9660448803866224 $372 15.833627147626256 $268 $376 forward 7 unknown #
straight-curve $-1 -44.708298781869296 18.365880894393062 0 0 0 -1 I I #
coedge $-1 $265 $256 $261 $345 forward $250 $-1 #
straight-curve $-1 -49.23882585189012 11.399836014006439 -10.851579692063885 0 1 0 I I #
coedge $-1 $258 $268 $260 $344 forward $269 $-1 #
straight-curve $-1 -49.23882585189012 11.399836014006439 10.851579692063885 0 -1 0 I I #
edge $-1 $372 44.708298781869296 $263 49.23882585189012 $260 $377 forward 7 unknown #
edge $-1 $262 -49.23882585189012 $373 -44.708298781869296 $261 $378 forward 7 unknown #
point $-1 -49.23882585189012 27.233463161632695 -10.851579692063885 #
point $-1 -49.23882585189012 27.233463161632695 10.851579692063885 #
point $-1 -44.708298781869296 18.365880894393062 -10.851579692063885 #
point $-1 -44.708298781869296 18.365880894393062 10.851579692063885 #
edge $-1 $351 30.738640442375988 $354 35.388174259941451 $275 $379 forward 7 unknown #
vertex $-1 $289 $380 #
straight-curve $-1 -85.716704042789615 0.23641296842567527 10.851579692063886 -1 0 0 I I #
edge $-1 $354 -1.752812027960255 $286 4.7856101470294146 $285 $381 forward 7 unknown #
vertex $-1 $353 $382 #
straight-curve $-1 -65.481734672078616 0.23641296842567527 6.2020458744984239 0.5877852410284794 0 0.80901700255871778 I I #
point $-1 -62.10365071712561 0.23641296842567527 10.851579692063885 #
point $-1 -65.481734672078616 -6.3020092065639943 6.2020458744984239 #
straight-curve $-1 -65.481734672078616 0 10.851579692063885 0 -1 0 I I #
vertex $-1 $292 $383 #
point $-1 -62.042386763533543 -4.4338885851383765 7.8731751070713258 #
vertex $-1 $296 $384 #
point $-1 -62.042386763533543 -1.6317076529999461 7.8731751070713258 #
straight-curve $-1 -65.481734672078616 27.233463161632699 0 0 0 -1 I I #
point $-1 -65.481734672078616 -27.233463161632699 -10.851579692063885 #
straight-curve $-1 -65.481734672078616 0 -10.851579692063885 0 1 0 I I #
point $-1 -65.481734672078616 27.233463161632699 -10.851579692063885 #
straight-curve $-1 -65.481734672078616 -10.244503922089708 -4.8462713061753906 0 -1 0 I I #
point $-1 -65.481734672078616 -27.233463161632699 -4.8462713061753906 #
point $-1 -65.481734672078616 -13.744552526726132 -4.8462713061753906 #
straight-curve $-1 -65.481734672078616 -13.744552526726132 -1.6731356530876953 0 0 -1 I I #
straight-curve $-1 -65.481734672078616 -27.233463161632699 0 0 0 -1 I I #
vertex $-1 $344 $385 #
vertex $-1 $336 $386 #
straight-curve $-1 -44.708298781869296 27.233463161632699 0 0 0 -1 I I #
straight-curve $-1 -44.708298781869296 11.399836014006439 -10.851579692063885 0 -1 0 I I #
straight-curve $-1 -44.708298781869296 11.399836014006439 10.851579692063885 0 1 0 I I #
straight-curve $-1 0 27.233463161632699 10.851579692063885 -1 0 0 I I #
straight-curve $-1 0 27.233463161632699 -10.851579692063885 1 0 0 I I #
straight-curve $-1 -65.481734672078616 0.23641296842567527 41.590220134439875 0 0 -1 I I #
point $-1 -65.481734672078616 0.23641296842567527 10.851579692063885 #
straight-curve $-1 -65.481734672078616 -1.5163990595345798 6.2020458744984275 0 -1 0 I I #
point $-1 -65.481734672078616 0.23641296842567527 6.2020458744984239 #
point $-1 -61.931770882768426 -4.4338885851383765 7.174773985277727 #
point $-1 -61.931770882768426 -1.6317076529999461 7.174773985277727 #
point $-1 -44.708298781869296 27.233463161632695 10.851579692063885 #
point $-1 -44.708298781869296 27.233463161632695 -10.851579692063885 #
End-of-ACIS-data 