500 0 14 0           
7 Unknown 11 ACIS 5.0 NT 24 Fri Mar 26 01:14:29 1999 
-1 9.9999999999999995e-007 1e-010 
body $-1 $14 $-1 $15 #
body $-1 $16 $-1 $17 #
body $-1 $18 $-1 $19 #
body $-1 $20 $-1 $21 #
body $-1 $22 $-1 $23 #
body $-1 $24 $-1 $25 #
body $-1 $26 $-1 $27 #
body $-1 $28 $-1 $29 #
body $-1 $30 $-1 $31 #
body $-1 $32 $-1 $33 #
body $-1 $34 $-1 $35 #
body $-1 $36 $-1 $37 #
body $-1 $38 $-1 $39 #
body $-1 $40 $-1 $41 #
lump $-1 $-1 $42 $0 #
transform $-1 1 0 0 0 1 0 0 0 1 40.247810296945097 21.309954699018224 7.5319409574025604 1 rotate no_reflect no_shear #
lump $-1 $-1 $43 $1 #
transform $-1 1 0 0 0 1 0 0 0 1 40.247810296945097 21.309954699018224 7.5319409574025604 1 rotate no_reflect no_shear #
lump $-1 $-1 $44 $2 #
transform $-1 1 0 0 0 1 0 0 0 1 40.247810296945097 21.309954699018224 7.5319409574025604 1 rotate no_reflect no_shear #
lump $-1 $-1 $45 $3 #
transform $-1 1 0 0 0 1 0 0 0 1 40.247810296945097 21.309954699018224 7.5319409574025604 1 rotate no_reflect no_shear #
lump $-1 $-1 $46 $4 #
transform $-1 1 0 0 0 1 0 0 0 1 40.247810296945097 21.309954699018224 7.5319409574025604 1 rotate no_reflect no_shear #
lump $-1 $-1 $47 $5 #
transform $-1 1 0 0 0 1 0 0 0 1 40.247810296945097 21.309954699018224 7.5319409574025604 1 rotate no_reflect no_shear #
lump $-1 $-1 $48 $6 #
transform $-1 1 0 0 0 1 0 0 0 1 40.247810296945097 21.309954699018224 7.5319409574025604 1 rotate no_reflect no_shear #
lump $-1 $-1 $49 $7 #
transform $-1 1 0 0 0 1 0 0 0 1 40.247810296945097 21.309954699018224 7.5319409574025604 1 rotate no_reflect no_shear #
lump $-1 $-1 $50 $8 #
transform $-1 1 0 0 0 1 0 0 0 1 40.247810296945097 21.309954699018224 7.5319409574025604 1 rotate no_reflect no_shear #
lump $-1 $-1 $51 $9 #
transform $-1 1 0 0 0 1 0 0 0 1 40.247810296945097 21.309954699018224 7.5319409574025604 1 rotate no_reflect no_shear #
lump $-1 $-1 $52 $10 #
transform $-1 1 0 0 0 1 0 0 0 1 40.247810296945097 21.309954699018224 7.5319409574025604 1 rotate no_reflect no_shear #
lump $-1 $-1 $53 $11 #
transform $-1 1 0 0 0 1 0 0 0 1 40.247810296945097 21.309954699018224 7.5319409574025604 1 rotate no_reflect no_shear #
lump $-1 $-1 $54 $12 #
transform $-1 1 0 0 0 1 0 0 0 1 40.247810296945097 21.309954699018224 7.5319409574025604 1 rotate no_reflect no_shear #
lump $-1 $-1 $55 $13 #
transform $-1 1 0 0 0 1 0 0 0 1 40.247810296945097 21.309954699018224 7.5319409574025604 1 rotate no_reflect no_shear #
shell $-1 $-1 $-1 $56 $-1 $14 #
shell $-1 $-1 $-1 $57 $-1 $16 #
shell $-1 $-1 $-1 $58 $-1 $18 #
shell $-1 $-1 $-1 $59 $-1 $20 #
shell $-1 $-1 $-1 $60 $-1 $22 #
shell $-1 $-1 $-1 $61 $-1 $24 #
shell $-1 $-1 $-1 $62 $-1 $26 #
shell $-1 $-1 $-1 $63 $-1 $28 #
shell $-1 $-1 $-1 $64 $-1 $30 #
shell $-1 $-1 $-1 $65 $-1 $32 #
shell $-1 $-1 $-1 $66 $-1 $34 #
shell $-1 $-1 $-1 $67 $-1 $36 #
shell $-1 $-1 $-1 $68 $-1 $38 #
shell $-1 $-1 $-1 $69 $-1 $40 #
face $-1 $70 $71 $42 $-1 $72 forward single #
face $-1 $73 $74 $43 $-1 $75 reversed single #
face $-1 $76 $77 $44 $-1 $78 reversed single #
face $-1 $79 $80 $45 $-1 $81 forward single #
face $-1 $82 $83 $46 $-1 $84 forward single #
face $-1 $85 $86 $47 $-1 $87 reversed single #
face $-1 $88 $89 $48 $-1 $90 forward single #
face $-1 $91 $92 $49 $-1 $93 forward single #
face $-1 $94 $95 $50 $-1 $96 reversed single #
face $-1 $97 $98 $51 $-1 $99 forward single #
face $-1 $100 $101 $52 $-1 $102 forward single #
face $-1 $103 $104 $53 $-1 $105 reversed single #
face $-1 $106 $107 $54 $-1 $108 forward single #
face $-1 $109 $110 $55 $-1 $111 forward single #
face $-1 $112 $113 $42 $-1 $114 reversed single #
loop $-1 $-1 $115 $56 #
plane-surface $-1 0 0 7.5319409574025604 0 0 1 1 0 0 forward_v I I I I #
face $-1 $116 $117 $43 $-1 $118 reversed single #
loop $-1 $-1 $119 $57 #
plane-surface $-1 -29.326878590901877 -17.529417763257385 0 1 0 0 0 0 -1 forward_v I I I I #
face $-1 $120 $121 $44 $-1 $122 reversed single #
loop $-1 $-1 $123 $58 #
plane-surface $-1 -106.18596311747885 -9.9538193055002573 47.597314759906645 0 1 0 -0.81915205242281985 0 0.57357642473473569 forward_v I I I I #
face $-1 $124 $125 $45 $-1 $126 forward single #
loop $-1 $127 $128 $59 #
cone-surface $-1 -37.387941326189093 -8.1037866008849768 3.9735469658355083 0.81915205242281985 0 -0.57357642473473569 0.28678821236736785 0 0.40957602621140993 1 I I 0 1 0.5 forward I I I I #
face $-1 $129 $130 $46 $-1 $131 forward single #
loop $-1 $132 $133 $60 #
cone-surface $-1 -37.387941326189093 -5.3287375439620561 3.9735469658355083 0.81915205242281985 0 -0.57357642473473569 0.28678821236736785 0 0.40957602621140993 1 I I 0 1 0.5 forward I I I I #
face $-1 $134 $135 $47 $-1 $136 reversed single #
loop $-1 $-1 $137 $61 #
plane-surface $-1 -106.18596311747885 7.5755984577571294 47.597314759906645 0 1 0 -0.81915205242281985 0 0.57357642473473569 forward_v I I I I #
face $-1 $138 $139 $48 $-1 $140 forward single #
loop $-1 $141 $142 $62 #
cone-surface $-1 -37.387941326189093 9.4256311623724081 3.9735469658355083 0.81915205242281985 0 -0.57357642473473569 0.28678821236736785 0 0.40957602621140993 1 I I 0 1 0.5 forward I I I I #
face $-1 $143 $144 $49 $-1 $145 forward single #
loop $-1 $146 $147 $63 #
cone-surface $-1 -37.387941326189093 12.200680219295332 3.9735469658355083 0.81915205242281985 0 -0.57357642473473569 0.28678821236736785 0 0.40957602621140993 1 I I 0 1 0.5 forward I I I I #
face $-1 $148 $149 $50 $-1 $150 reversed single #
loop $-1 $-1 $151 $64 #
plane-surface $-1 60.015572850431532 -3.4787048393467757 113.53546758044041 0 -1 0 -0.81915205242281985 0 -0.57357642473473569 forward_v I I I I #
face $-1 $152 $153 $51 $-1 $154 forward single #
loop $-1 $155 $156 $65 #
cone-surface $-1 37.387941326189093 -8.1037866008849768 3.97354696583551 -0.81915205242281985 0 -0.57357642473473569 0.28678821236736785 0 -0.40957602621140993 1 I I 0 1 0.5 forward I I I I #
face $-1 $157 $158 $52 $-1 $159 forward single #
loop $-1 $160 $161 $66 #
cone-surface $-1 37.387941326189093 -5.3287375439620561 3.97354696583551 -0.81915205242281985 0 -0.57357642473473569 0.28678821236736785 0 -0.40957602621140993 1 I I 0 1 0.5 forward I I I I #
face $-1 $162 $163 $53 $-1 $164 reversed single #
loop $-1 $-1 $165 $67 #
plane-surface $-1 60.015572850431532 14.050712923910611 113.53546758044041 0 -1 0 -0.81915205242281985 0 -0.57357642473473569 forward_v I I I I #
face $-1 $166 $167 $54 $-1 $168 forward single #
loop $-1 $169 $170 $68 #
cone-surface $-1 37.387941326189093 9.4256311623724081 3.97354696583551 -0.81915205242281985 0 -0.57357642473473569 0.28678821236736785 0 -0.40957602621140993 1 I I 0 1 0.5 forward I I I I #
face $-1 $171 $172 $55 $-1 $173 forward single #
loop $-1 $174 $175 $69 #
cone-surface $-1 37.387941326189093 12.200680219295332 3.97354696583551 -0.81915205242281985 0 -0.57357642473473569 0.28678821236736785 0 -0.40957602621140993 1 I I 0 1 0.5 forward I I I I #
face $-1 $176 $177 $42 $-1 $178 reversed single #
loop $-1 $-1 $179 $70 #
plane-surface $-1 0 0 -7.5319409574025604 0 0 1 1 0 0 forward_v I I I I #
coedge $-1 $180 $181 $182 $183 forward $71 $-1 #
face $-1 $184 $185 $43 $-1 $186 reversed single #
loop $-1 $-1 $187 $73 #
plane-surface $-1 -27.582144820676568 -13.748880827496544 0 0 -1 0 0 0 -1 forward_v I I I I #
coedge $-1 $188 $189 $190 $191 forward $74 $-1 #
face $-1 $192 $193 $44 $-1 $194 reversed single #
loop $-1 $-1 $195 $76 #
plane-surface $-1 -40.24781029694509 -6.7162620724235165 1.4269244928593423 -0.81915205242281985 0 0.57357642473473569 0.57357642473473569 0 0.81915205242281985 forward_v I I I I #
coedge $-1 $196 $197 $198 $199 reversed $77 $-1 #
face $-1 $-1 $200 $45 $-1 $201 forward single #
loop $-1 $202 $203 $79 #
cone-surface $-1 -36.460673552500502 -8.1037866008849768 3.3242671003563791 0.81915205242281985 0 -0.57357642473473569 0.14339410618368392 0 0.20478801310570496 1 I I -0.70710678118654746 0.70710678118654746 0.25 forward I I I I #
loop $-1 $-1 $204 $59 #
coedge $-1 $128 $128 $205 $206 reversed $80 $-1 #
face $-1 $-1 $207 $46 $-1 $208 forward single #
loop $-1 $209 $210 $82 #
cone-surface $-1 -36.460673552500502 -5.3287375439620561 3.3242671003563791 0.81915205242281985 0 -0.57357642473473569 0.14339410618368392 0 0.20478801310570496 1 I I -0.70710678118654746 0.70710678118654746 0.25 forward I I I I #
loop $-1 $-1 $211 $60 #
coedge $-1 $133 $133 $212 $213 reversed $83 $-1 #
face $-1 $214 $215 $47 $-1 $216 reversed single #
loop $-1 $-1 $217 $85 #
plane-surface $-1 -40.24781029694509 10.81315569083387 1.4269244928593423 -0.81915205242281985 0 0.57357642473473569 0.57357642473473569 0 0.81915205242281985 forward_v I I I I #
coedge $-1 $218 $219 $220 $221 reversed $86 $-1 #
face $-1 $-1 $222 $48 $-1 $223 forward single #
loop $-1 $224 $225 $88 #
cone-surface $-1 -36.460673552500502 9.4256311623724081 3.3242671003563791 0.81915205242281985 0 -0.57357642473473569 0.14339410618368392 0 0.20478801310570496 1 I I -0.70710678118654746 0.70710678118654746 0.25 forward I I I I #
loop $-1 $-1 $226 $62 #
coedge $-1 $142 $142 $227 $228 reversed $89 $-1 #
face $-1 $-1 $229 $49 $-1 $230 forward single #
loop $-1 $231 $232 $91 #
cone-surface $-1 -36.460673552500502 12.200680219295332 3.3242671003563791 0.81915205242281985 0 -0.57357642473473569 0.14339410618368392 0 0.20478801310570496 1 I I -0.70710678118654746 0.70710678118654746 0.25 forward I I I I #
loop $-1 $-1 $233 $63 #
coedge $-1 $147 $147 $234 $235 reversed $92 $-1 #
face $-1 $236 $237 $50 $-1 $238 reversed single #
loop $-1 $-1 $239 $94 #
plane-surface $-1 -5.9225799701022268 -6.7162620724235165 67.365077313393101 0.81915205242281985 0 0.57357642473473569 0.57357642473473569 0 -0.81915205242281985 forward_v I I I I #
coedge $-1 $240 $241 $242 $243 reversed $95 $-1 #
face $-1 $-1 $244 $51 $-1 $245 forward single #
loop $-1 $246 $247 $97 #
cone-surface $-1 36.460673552500502 -8.1037866008849768 3.3242671003563808 -0.81915205242281985 0 -0.57357642473473569 0.14339410618368392 0 -0.20478801310570496 1 I I -0.70710678118654746 0.70710678118654746 0.25 forward I I I I #
loop $-1 $-1 $248 $65 #
coedge $-1 $156 $156 $249 $250 reversed $98 $-1 #
face $-1 $-1 $251 $52 $-1 $252 forward single #
loop $-1 $253 $254 $100 #
cone-surface $-1 36.460673552500502 -5.3287375439620561 3.3242671003563808 -0.81915205242281985 0 -0.57357642473473569 0.14339410618368392 0 -0.20478801310570496 1 I I -0.70710678118654746 0.70710678118654746 0.25 forward I I I I #
loop $-1 $-1 $255 $66 #
coedge $-1 $161 $161 $256 $257 reversed $101 $-1 #
face $-1 $258 $259 $53 $-1 $260 reversed single #
loop $-1 $-1 $261 $103 #
plane-surface $-1 -5.9225799701022268 10.81315569083387 67.365077313393101 0.81915205242281985 0 0.57357642473473569 0.57357642473473569 0 -0.81915205242281985 forward_v I I I I #
coedge $-1 $262 $263 $264 $265 reversed $104 $-1 #
face $-1 $-1 $266 $54 $-1 $267 forward single #
loop $-1 $268 $269 $106 #
cone-surface $-1 36.460673552500502 9.4256311623724081 3.3242671003563808 -0.81915205242281985 0 -0.57357642473473569 0.14339410618368392 0 -0.20478801310570496 1 I I -0.70710678118654746 0.70710678118654746 0.25 forward I I I I #
loop $-1 $-1 $270 $68 #
coedge $-1 $170 $170 $271 $272 reversed $107 $-1 #
face $-1 $-1 $273 $55 $-1 $274 forward single #
loop $-1 $275 $276 $109 #
cone-surface $-1 36.460673552500502 12.200680219295332 3.3242671003563808 -0.81915205242281985 0 -0.57357642473473569 0.14339410618368392 0 -0.20478801310570496 1 I I -0.70710678118654746 0.70710678118654746 0.25 forward I I I I #
loop $-1 $-1 $277 $69 #
coedge $-1 $175 $175 $278 $279 reversed $110 $-1 #
face $-1 $280 $281 $42 $-1 $282 reversed single #
loop $-1 $-1 $283 $112 #
plane-surface $-1 0 -21.309954699018224 0 0 1 0 0 0 1 forward_v I I I I #
coedge $-1 $284 $285 $286 $287 forward $113 $-1 #
coedge $-1 $288 $115 $289 $290 forward $71 $-1 #
coedge $-1 $115 $288 $291 $292 forward $71 $-1 #
coedge $-1 $293 $294 $115 $183 reversed $295 $-1 #
edge $-1 $296 -21.309954699018224 $297 21.309954699018224 $182 $298 forward 7 unknown #
face $-1 $299 $300 $43 $-1 $301 forward single #
loop $-1 $-1 $302 $116 #
plane-surface $-1 -25.837411050451259 -17.529417763257385 0 -1 0 0 0 0 1 forward_v I I I I #
coedge $-1 $303 $304 $305 $306 forward $117 $-1 #
coedge $-1 $307 $119 $308 $309 reversed $74 $-1 #
coedge $-1 $119 $307 $310 $311 reversed $74 $-1 #
coedge $-1 $304 $303 $119 $191 reversed $117 $-1 #
edge $-1 $312 -7.5319409574025604 $313 7.5319409574025604 $190 $314 forward 7 unknown #
face $-1 $315 $316 $44 $-1 $317 reversed single #
loop $-1 $-1 $318 $120 #
plane-surface $-1 -106.18596311747885 -3.4787048393467757 47.597314759906645 0 -1 0 0.81915205242281985 0 -0.57357642473473569 forward_v I I I I #
coedge $-1 $319 $320 $321 $322 reversed $121 $-1 #
coedge $-1 $197 $123 $323 $324 reversed $77 $-1 #
coedge $-1 $123 $196 $319 $325 reversed $77 $-1 #
coedge $-1 $321 $326 $123 $199 forward $327 $-1 #
edge $-1 $328 12.845171261794327 $329 17.119949682140565 $198 $330 forward 7 unknown #
loop $-1 $-1 $205 $124 #
plane-surface $-1 -40.24781029694509 -6.7162620724235165 1.4269244928593423 -0.81915205242281985 0 0.57357642473473569 0.57357642473473569 0 0.81915205242281985 forward_v I I I I #
loop $-1 $-1 $331 $79 #
coedge $-1 $203 $203 $204 $332 reversed $125 $-1 #
coedge $-1 $204 $204 $203 $332 forward $127 $-1 #
coedge $-1 $205 $205 $128 $206 forward $200 $-1 #
edge $-1 $333 0 $333 6.2831853071796004 $205 $334 forward 7 unknown #
loop $-1 $-1 $212 $129 #
plane-surface $-1 -40.24781029694509 -6.7162620724235165 1.4269244928593423 -0.81915205242281985 0 0.57357642473473569 0.57357642473473569 0 0.81915205242281985 forward_v I I I I #
loop $-1 $-1 $335 $82 #
coedge $-1 $210 $210 $211 $336 reversed $130 $-1 #
coedge $-1 $211 $211 $210 $336 forward $132 $-1 #
coedge $-1 $212 $212 $133 $213 forward $207 $-1 #
edge $-1 $337 0 $337 6.2831853071796004 $212 $338 forward 7 unknown #
face $-1 $339 $340 $47 $-1 $341 forward single #
loop $-1 $-1 $342 $134 #
plane-surface $-1 -106.18596311747885 14.050712923910611 47.597314759906645 0 -1 0 0.81915205242281985 0 -0.57357642473473569 forward_v I I I I #
coedge $-1 $343 $344 $345 $346 reversed $135 $-1 #
coedge $-1 $219 $137 $347 $348 reversed $86 $-1 #
coedge $-1 $137 $218 $343 $349 reversed $86 $-1 #
coedge $-1 $345 $350 $137 $221 forward $340 $-1 #
edge $-1 $351 12.845171261794327 $352 17.119949682140565 $220 $353 forward 7 unknown #
loop $-1 $-1 $227 $138 #
plane-surface $-1 -40.24781029694509 10.81315569083387 1.4269244928593423 -0.81915205242281985 0 0.57357642473473569 0.57357642473473569 0 0.81915205242281985 forward_v I I I I #
loop $-1 $-1 $354 $88 #
coedge $-1 $225 $225 $226 $355 reversed $139 $-1 #
coedge $-1 $226 $226 $225 $355 forward $141 $-1 #
coedge $-1 $227 $227 $142 $228 forward $222 $-1 #
edge $-1 $356 0 $356 6.2831853071796004 $227 $357 forward 7 unknown #
loop $-1 $-1 $234 $143 #
plane-surface $-1 -40.24781029694509 10.81315569083387 1.4269244928593423 -0.81915205242281985 0 0.57357642473473569 0.57357642473473569 0 0.81915205242281985 forward_v I I I I #
loop $-1 $-1 $358 $91 #
coedge $-1 $232 $232 $233 $359 reversed $144 $-1 #
coedge $-1 $233 $233 $232 $359 forward $146 $-1 #
coedge $-1 $234 $234 $147 $235 forward $229 $-1 #
edge $-1 $360 0 $360 6.2831853071796004 $234 $361 forward 7 unknown #
face $-1 $362 $363 $50 $-1 $364 forward single #
loop $-1 $-1 $365 $148 #
plane-surface $-1 60.015572850431532 -9.9538193055002573 113.53546758044041 0 1 0 0.81915205242281985 0 0.57357642473473569 forward_v I I I I #
coedge $-1 $366 $367 $368 $369 reversed $149 $-1 #
coedge $-1 $241 $151 $370 $371 reversed $95 $-1 #
coedge $-1 $151 $240 $366 $372 reversed $95 $-1 #
coedge $-1 $368 $373 $151 $243 forward $363 $-1 #
edge $-1 $374 -10.240023871729331 $375 -5.9652454513830726 $242 $376 forward 7 unknown #
loop $-1 $-1 $249 $152 #
plane-surface $-1 -5.9225799701022268 -6.7162620724235165 67.365077313393101 0.81915205242281985 0 0.57357642473473569 0.57357642473473569 0 -0.81915205242281985 forward_v I I I I #
loop $-1 $-1 $377 $97 #
coedge $-1 $247 $247 $248 $378 reversed $153 $-1 #
coedge $-1 $248 $248 $247 $378 forward $155 $-1 #
coedge $-1 $249 $249 $156 $250 forward $244 $-1 #
edge $-1 $379 0 $379 6.2831853071796004 $249 $380 forward 7 unknown #
loop $-1 $-1 $256 $157 #
plane-surface $-1 -5.9225799701022268 -6.7162620724235165 67.365077313393101 0.81915205242281985 0 0.57357642473473569 0.57357642473473569 0 -0.81915205242281985 forward_v I I I I #
loop $-1 $-1 $381 $100 #
coedge $-1 $254 $254 $255 $382 reversed $158 $-1 #
coedge $-1 $255 $255 $254 $382 forward $160 $-1 #
coedge $-1 $256 $256 $161 $257 forward $251 $-1 #
edge $-1 $383 0 $383 6.2831853071796004 $256 $384 forward 7 unknown #
face $-1 $385 $386 $53 $-1 $387 reversed single #
loop $-1 $-1 $388 $162 #
plane-surface $-1 60.015572850431532 7.5755984577571294 113.53546758044041 0 1 0 0.81915205242281985 0 0.57357642473473569 forward_v I I I I #
coedge $-1 $389 $390 $391 $392 reversed $163 $-1 #
coedge $-1 $263 $165 $393 $394 reversed $104 $-1 #
coedge $-1 $165 $262 $389 $395 reversed $104 $-1 #
coedge $-1 $391 $396 $165 $265 forward $397 $-1 #
edge $-1 $398 -10.240023871729331 $399 -5.9652454513830726 $264 $400 forward 7 unknown #
loop $-1 $-1 $271 $166 #
plane-surface $-1 -5.9225799701022268 10.81315569083387 67.365077313393101 0.81915205242281985 0 0.57357642473473569 0.57357642473473569 0 -0.81915205242281985 forward_v I I I I #
loop $-1 $-1 $401 $106 #
coedge $-1 $269 $269 $270 $402 reversed $167 $-1 #
coedge $-1 $270 $270 $269 $402 forward $169 $-1 #
coedge $-1 $271 $271 $170 $272 forward $266 $-1 #
edge $-1 $403 0 $403 6.2831853071796004 $271 $404 forward 7 unknown #
loop $-1 $-1 $278 $171 #
plane-surface $-1 -5.9225799701022268 10.81315569083387 67.365077313393101 0.81915205242281985 0 0.57357642473473569 0.57357642473473569 0 -0.81915205242281985 forward_v I I I I #
loop $-1 $-1 $405 $109 #
coedge $-1 $276 $276 $277 $406 reversed $172 $-1 #
coedge $-1 $277 $277 $276 $406 forward $174 $-1 #
coedge $-1 $278 $278 $175 $279 forward $273 $-1 #
edge $-1 $407 0 $407 6.2831853071796004 $278 $408 forward 7 unknown #
face $-1 $409 $410 $42 $-1 $411 reversed single #
loop $-1 $-1 $412 $176 #
plane-surface $-1 -40.247810296945097 0 0 1 0 0 0 0 -1 forward_v I I I I #
coedge $-1 $413 $291 $414 $415 forward $177 $-1 #
coedge $-1 $416 $179 $413 $417 forward $113 $-1 #
coedge $-1 $179 $416 $418 $419 forward $113 $-1 #
coedge $-1 $294 $293 $179 $287 reversed $295 $-1 #
edge $-1 $420 -21.309954699018224 $421 21.309954699018224 $286 $422 forward 7 unknown #
coedge $-1 $181 $180 $423 $424 forward $71 $-1 #
coedge $-1 $425 $426 $180 $290 reversed $410 $-1 #
edge $-1 $297 -40.247810296945097 $427 40.247810296945097 $289 $428 forward 7 unknown #
coedge $-1 $283 $429 $181 $292 reversed $177 $-1 #
edge $-1 $430 -40.247810296945097 $296 40.247810296945097 $291 $431 forward 7 unknown #
coedge $-1 $286 $182 $429 $432 forward $295 $-1 #
coedge $-1 $182 $286 $425 $433 reversed $295 $-1 #
loop $-1 $-1 $293 $409 #
vertex $-1 $183 $434 #
vertex $-1 $183 $435 #
straight-curve $-1 40.247810296945097 0 7.5319409574025604 0 1 0 I I #
face $-1 $436 $437 $43 $-1 $438 reversed single #
loop $-1 $-1 $439 $184 #
plane-surface $-1 0 0 7.5319409574025604 0 0 1 1 0 0 forward_v I I I I #
coedge $-1 $440 $441 $442 $443 reversed $185 $-1 #
coedge $-1 $190 $187 $444 $445 reversed $117 $-1 #
coedge $-1 $187 $190 $446 $447 reversed $117 $-1 #
coedge $-1 $441 $440 $187 $306 reversed $185 $-1 #
edge $-1 $448 -7.5319409574025604 $449 7.5319409574025604 $305 $450 forward 7 unknown #
coedge $-1 $189 $188 $451 $452 reversed $74 $-1 #
coedge $-1 $444 $453 $188 $309 forward $437 $-1 #
edge $-1 $454 -12.545245817389532 $313 -4.9841719458678515 $308 $455 forward 7 unknown #
coedge $-1 $456 $446 $189 $311 forward $300 $-1 #
edge $-1 $312 4.9841719458678515 $457 12.545245817389532 $310 $458 forward 7 unknown #
vertex $-1 $311 $459 #
vertex $-1 $309 $460 #
straight-curve $-1 -29.326878590901877 -13.748880827496544 0 0 0 -1 I I #
face $-1 $-1 $327 $44 $-1 $461 forward single #
loop $-1 $-1 $462 $192 #
plane-surface $-1 -40.247810296945097 0 0 1 0 0 0 0 -1 forward_v I I I I #
coedge $-1 $463 $464 $465 $466 reversed $193 $-1 #
coedge $-1 $467 $195 $197 $325 forward $121 $-1 #
coedge $-1 $195 $467 $463 $468 forward $121 $-1 #
coedge $-1 $465 $198 $195 $322 forward $327 $-1 #
edge $-1 $329 -6.5956882692884991 $469 -0.12057380313501742 $321 $470 forward 7 unknown #
coedge $-1 $471 $472 $196 $324 forward $316 $-1 #
edge $-1 $473 -22.371732887093991 $328 -16.266716422550761 $323 $474 forward 7 unknown #
edge $-1 $329 -7.4528488898810759 $473 1.2442367137257826e-014 $197 $475 forward 7 unknown #
coedge $-1 $198 $465 $471 $476 forward $327 $-1 #
loop $-1 $-1 $465 $315 #
vertex $-1 $324 $477 #
vertex $-1 $199 $478 #
straight-curve $-1 -53.092981558739424 -9.9538193055002573 7.5319409574025613 1 0 0 I I #
coedge $-1 $331 $331 $-1 $479 reversed $202 $-1 #
edge $-1 $480 0 $480 6.2831853071796004 $203 $481 forward 7 unknown #
vertex $-1 $206 $482 #
ellipse-curve $-1 -38.110421086771979 -8.1037866008849768 4.47943272513095 -0.81915205242281985 0 0.57357642473473569 0.28678821236736785 0 0.40957602621140993 1 I I #
coedge $-1 $335 $335 $-1 $483 reversed $209 $-1 #
edge $-1 $484 0 $484 6.2831853071796004 $210 $485 forward 7 unknown #
vertex $-1 $213 $486 #
ellipse-curve $-1 -38.110421086771979 -5.3287375439620561 4.47943272513095 -0.81915205242281985 0 0.57357642473473569 0.28678821236736785 0 0.40957602621140993 1 I I #
face $-1 $-1 $487 $47 $-1 $488 reversed single #
loop $-1 $-1 $220 $214 #
plane-surface $-1 0 0 7.5319409574025604 0 0 1 1 0 0 forward_v I I I I #
coedge $-1 $489 $490 $491 $492 reversed $215 $-1 #
coedge $-1 $493 $217 $219 $349 forward $135 $-1 #
coedge $-1 $217 $493 $489 $494 forward $135 $-1 #
coedge $-1 $491 $220 $217 $346 forward $340 $-1 #
edge $-1 $352 2.1690206123401943 $495 8.6441350784936759 $345 $496 forward 7 unknown #
coedge $-1 $497 $498 $218 $348 forward $487 $-1 #
edge $-1 $499 -22.371732887093991 $351 -16.266716422550761 $347 $500 forward 7 unknown #
edge $-1 $352 -7.4528488898810759 $499 1.2442367137257826e-014 $219 $501 forward 7 unknown #
coedge $-1 $220 $491 $497 $502 forward $340 $-1 #
vertex $-1 $348 $503 #
vertex $-1 $221 $504 #
straight-curve $-1 -53.092981558739424 7.5755984577571294 7.5319409574025613 1 0 0 I I #
coedge $-1 $354 $354 $-1 $505 reversed $224 $-1 #
edge $-1 $506 0 $506 6.2831853071796004 $225 $507 forward 7 unknown #
vertex $-1 $228 $508 #
ellipse-curve $-1 -38.110421086771979 9.4256311623724081 4.47943272513095 -0.81915205242281985 0 0.57357642473473569 0.28678821236736785 0 0.40957602621140993 1 I I #
coedge $-1 $358 $358 $-1 $509 reversed $231 $-1 #
edge $-1 $510 0 $510 6.2831853071796004 $232 $511 forward 7 unknown #
vertex $-1 $235 $512 #
ellipse-curve $-1 -38.110421086771979 12.200680219295332 4.47943272513095 -0.81915205242281985 0 0.57357642473473569 0.28678821236736785 0 0.40957602621140993 1 I I #
face $-1 $-1 $513 $50 $-1 $514 reversed single #
loop $-1 $-1 $242 $236 #
plane-surface $-1 0 0 7.5319409574025604 0 0 1 1 0 0 forward_v I I I I #
coedge $-1 $515 $516 $517 $518 reversed $237 $-1 #
coedge $-1 $519 $239 $241 $372 forward $149 $-1 #
coedge $-1 $239 $519 $515 $520 forward $149 $-1 #
coedge $-1 $517 $242 $239 $369 forward $363 $-1 #
edge $-1 $375 0.12057380313501742 $521 6.5956882692884991 $368 $522 forward 7 unknown #
coedge $-1 $523 $524 $240 $371 forward $513 $-1 #
edge $-1 $525 -55.340809297360892 $374 -49.235792832817644 $370 $526 forward 7 unknown #
edge $-1 $375 73.042771704009112 $525 80.495620593890237 $241 $527 forward 7 unknown #
coedge $-1 $242 $517 $523 $528 forward $363 $-1 #
vertex $-1 $371 $529 #
vertex $-1 $243 $530 #
straight-curve $-1 30.007786425215766 -3.4787048393467757 7.5319409574025613 -1 0 0 I I #
coedge $-1 $377 $377 $-1 $531 reversed $246 $-1 #
edge $-1 $532 0 $532 6.2831853071796004 $247 $533 forward 7 unknown #
vertex $-1 $250 $534 #
ellipse-curve $-1 38.110421086771964 -8.1037866008849768 4.4794327251309447 0.81915205242281985 0 0.57357642473473569 0.28678821236736785 0 -0.40957602621140993 1 I I #
coedge $-1 $381 $381 $-1 $535 reversed $253 $-1 #
edge $-1 $536 0 $536 6.2831853071796004 $254 $537 forward 7 unknown #
vertex $-1 $257 $538 #
ellipse-curve $-1 38.110421086771964 -5.3287375439620561 4.4794327251309447 0.81915205242281985 0 0.57357642473473569 0.28678821236736785 0 -0.40957602621140993 1 I I #
face $-1 $-1 $397 $53 $-1 $539 forward single #
loop $-1 $-1 $540 $258 #
plane-surface $-1 40.247810296945097 0 0 -1 0 0 0 0 1 forward_v I I I I #
coedge $-1 $541 $542 $543 $544 reversed $259 $-1 #
coedge $-1 $545 $261 $263 $395 forward $163 $-1 #
coedge $-1 $261 $545 $541 $546 forward $163 $-1 #
coedge $-1 $543 $264 $261 $392 forward $397 $-1 #
edge $-1 $399 -8.6441350784936759 $547 -2.1690206123401943 $391 $548 forward 7 unknown #
coedge $-1 $549 $550 $262 $394 forward $386 $-1 #
edge $-1 $551 -55.340809297360892 $398 -49.235792832817644 $393 $552 forward 7 unknown #
edge $-1 $399 73.042771704009112 $551 80.495620593890237 $263 $553 forward 7 unknown #
coedge $-1 $264 $543 $549 $554 forward $397 $-1 #
loop $-1 $-1 $543 $385 #
vertex $-1 $394 $555 #
vertex $-1 $265 $556 #
straight-curve $-1 30.007786425215766 14.050712923910611 7.5319409574025613 -1 0 0 I I #
coedge $-1 $401 $401 $-1 $557 reversed $268 $-1 #
edge $-1 $558 0 $558 6.2831853071796004 $269 $559 forward 7 unknown #
vertex $-1 $272 $560 #
ellipse-curve $-1 38.110421086771964 9.4256311623724081 4.4794327251309447 0.81915205242281985 0 0.57357642473473569 0.28678821236736785 0 -0.40957602621140993 1 I I #
coedge $-1 $405 $405 $-1 $561 reversed $275 $-1 #
edge $-1 $562 0 $562 6.2831853071796004 $276 $563 forward 7 unknown #
vertex $-1 $279 $564 #
ellipse-curve $-1 38.110421086771964 12.200680219295332 4.4794327251309447 0.81915205242281985 0 0.57357642473473569 0.28678821236736785 0 -0.40957602621140993 1 I I #
face $-1 $-1 $295 $42 $-1 $565 reversed single #
loop $-1 $-1 $425 $280 #
plane-surface $-1 0 21.309954699018224 0 0 -1 0 0 0 -1 forward_v I I I I #
coedge $-1 $566 $423 $426 $567 forward $281 $-1 #
coedge $-1 $429 $283 $284 $417 reversed $177 $-1 #
coedge $-1 $423 $566 $283 $415 reversed $281 $-1 #
edge $-1 $430 -7.5319409574025604 $568 7.5319409574025604 $414 $569 forward 7 unknown #
coedge $-1 $285 $284 $566 $570 forward $113 $-1 #
edge $-1 $421 -40.247810296945097 $568 40.247810296945097 $413 $571 forward 7 unknown #
coedge $-1 $426 $425 $285 $419 reversed $410 $-1 #
edge $-1 $572 -40.247810296945097 $420 40.247810296945097 $418 $573 forward 7 unknown #
vertex $-1 $287 $574 #
vertex $-1 $432 $575 #
straight-curve $-1 40.247810296945097 0 -7.5319409574025604 0 -1 0 I I #
coedge $-1 $412 $414 $288 $424 reversed $281 $-1 #
edge $-1 $427 -21.309954699018224 $430 21.309954699018224 $423 $576 forward 7 unknown #
coedge $-1 $418 $289 $294 $433 forward $410 $-1 #
coedge $-1 $289 $418 $412 $567 reversed $410 $-1 #
vertex $-1 $290 $577 #
straight-curve $-1 0 21.309954699018224 7.5319409574025604 -1 0 0 I I #
coedge $-1 $291 $413 $293 $432 reversed $177 $-1 #
vertex $-1 $424 $578 #
straight-curve $-1 0 -21.309954699018224 7.5319409574025604 1 0 0 I I #
edge $-1 $296 -7.5319409574025604 $421 7.5319409574025604 $293 $579 forward 7 unknown #
edge $-1 $297 -7.5319409574025604 $420 7.5319409574025604 $294 $580 forward 7 unknown #
point $-1 40.247810296945097 -21.309954699018224 7.5319409574025604 #
point $-1 40.247810296945097 21.309954699018224 7.5319409574025604 #
face $-1 $-1 $581 $43 $-1 $582 reversed single #
loop $-1 $-1 $583 $299 #
plane-surface $-1 0 0 -7.5319409574025604 0 0 1 1 0 0 forward_v I I I I #
coedge $-1 $446 $456 $441 $584 forward $300 $-1 #
coedge $-1 $305 $302 $583 $585 reversed $185 $-1 #
coedge $-1 $302 $305 $439 $584 reversed $185 $-1 #
coedge $-1 $586 $587 $302 $443 forward $581 $-1 #
edge $-1 $588 -7.5319409574025604 $589 7.5319409574025604 $442 $590 forward 7 unknown #
coedge $-1 $583 $308 $303 $445 forward $437 $-1 #
edge $-1 $313 -15.535806180563593 $449 -12.046338640112975 $444 $591 forward 7 unknown #
coedge $-1 $310 $439 $304 $447 forward $300 $-1 #
edge $-1 $448 12.046338640112975 $312 15.535806180563593 $446 $592 forward 7 unknown #
vertex $-1 $447 $593 #
vertex $-1 $445 $594 #
straight-curve $-1 -25.837411050451259 -13.748880827496544 0 0 0 -1 I I #
coedge $-1 $587 $586 $307 $452 forward $581 $-1 #
edge $-1 $457 -7.5319409574025604 $454 7.5319409574025604 $451 $595 forward 7 unknown #
coedge $-1 $308 $583 $587 $596 forward $437 $-1 #
vertex $-1 $309 $597 #
straight-curve $-1 -29.326878590901877 -8.7647088816286924 -7.5319409574025604 0 1 0 I I #
coedge $-1 $439 $310 $586 $598 forward $300 $-1 #
vertex $-1 $598 $599 #
straight-curve $-1 -29.326878590901877 -8.7647088816286924 7.5319409574025604 0 -1 0 I I #
point $-1 -29.326878590901877 -13.748880827496544 7.5319409574025604 #
point $-1 -29.326878590901877 -13.748880827496544 -7.5319409574025604 #
plane-surface $-1 0 0 7.5319409574025604 0 0 1 1 0 0 forward_v I I I I #
coedge $-1 $472 $471 $464 $600 forward $316 $-1 #
coedge $-1 $464 $318 $320 $468 reversed $193 $-1 #
coedge $-1 $318 $463 $462 $600 reversed $193 $-1 #
coedge $-1 $326 $321 $318 $466 forward $327 $-1 #
edge $-1 $469 -17.119949682140565 $601 -12.845171261794327 $465 $602 forward 7 unknown #
coedge $-1 $320 $319 $472 $603 reversed $121 $-1 #
edge $-1 $604 -1.2442367137257826e-014 $469 7.4528488898810759 $463 $605 forward 7 unknown #
vertex $-1 $322 $606 #
straight-curve $-1 -35.97303187659886 -3.3581310362117582 7.5319409574025604 0 1 0 I I #
coedge $-1 $462 $323 $326 $476 reversed $316 $-1 #
coedge $-1 $323 $462 $467 $603 forward $316 $-1 #
vertex $-1 $324 $607 #
straight-curve $-1 -40.247810296945097 -9.9538193055002573 23.798657379953323 0 0 1 I I #
straight-curve $-1 -40.24781029694509 -9.9538193055002573 1.4269244928593423 -0.57357642473473569 0 -0.81915205242281985 I I #
edge $-1 $601 3.4787048393467757 $328 9.9538193055002573 $471 $608 forward 7 unknown #
point $-1 -40.247810296945097 -9.9538193055002573 7.5319409574025604 #
point $-1 -35.97303187659886 -9.9538193055002573 7.5319409574025604 #
edge $-1 $609 1 $609 0 $331 $-1 forward 7 unknown #
vertex $-1 $332 $610 #
ellipse-curve $-1 -36.665461565606208 -8.1037866008849768 3.4676612065400629 -0.81915205242281985 0 0.57357642473473569 0.28678821236736785 0 0.40957602621140993 1 I I #
point $-1 -37.823632874404616 -8.1037866008849768 4.889008751342363 #
edge $-1 $611 1 $611 0 $335 $-1 forward 7 unknown #
vertex $-1 $336 $612 #
ellipse-curve $-1 -36.665461565606208 -5.3287375439620561 3.4676612065400629 -0.81915205242281985 0 0.57357642473473569 0.28678821236736785 0 0.40957602621140993 1 I I #
point $-1 -37.823632874404616 -5.3287375439620561 4.889008751342363 #
loop $-1 $-1 $347 $339 #
plane-surface $-1 -40.247810296945097 0 0 1 0 0 0 0 -1 forward_v I I I I #
coedge $-1 $490 $342 $344 $494 reversed $215 $-1 #
coedge $-1 $342 $489 $613 $614 reversed $215 $-1 #
coedge $-1 $350 $345 $342 $492 forward $340 $-1 #
edge $-1 $495 -17.119949682140565 $615 -12.845171261794327 $491 $616 forward 7 unknown #
coedge $-1 $344 $343 $498 $617 reversed $135 $-1 #
edge $-1 $618 -1.2442367137257826e-014 $495 7.4528488898810759 $489 $619 forward 7 unknown #
vertex $-1 $346 $620 #
straight-curve $-1 -35.97303187659886 5.4065778454169351 7.5319409574025604 0 1 0 I I #
coedge $-1 $613 $347 $350 $502 reversed $487 $-1 #
coedge $-1 $347 $613 $493 $617 forward $487 $-1 #
vertex $-1 $348 $621 #
straight-curve $-1 -40.247810296945097 7.5755984577571294 23.798657379953323 0 0 1 I I #
straight-curve $-1 -40.24781029694509 7.5755984577571294 1.4269244928593423 -0.57357642473473569 0 -0.81915205242281985 I I #
edge $-1 $615 -14.050712923910611 $351 -7.5755984577571294 $497 $622 forward 7 unknown #
point $-1 -40.247810296945097 7.5755984577571294 7.5319409574025604 #
point $-1 -35.97303187659886 7.5755984577571294 7.5319409574025604 #
edge $-1 $623 1 $623 0 $354 $-1 forward 7 unknown #
vertex $-1 $355 $624 #
ellipse-curve $-1 -36.665461565606208 9.4256311623724081 3.4676612065400629 -0.81915205242281985 0 0.57357642473473569 0.28678821236736785 0 0.40957602621140993 1 I I #
point $-1 -37.823632874404616 9.4256311623724081 4.889008751342363 #
edge $-1 $625 1 $625 0 $358 $-1 forward 7 unknown #
vertex $-1 $359 $626 #
ellipse-curve $-1 -36.665461565606208 12.200680219295332 3.4676612065400629 -0.81915205242281985 0 0.57357642473473569 0.28678821236736785 0 0.40957602621140993 1 I I #
point $-1 -37.823632874404616 12.200680219295332 4.889008751342363 #
loop $-1 $-1 $370 $362 #
plane-surface $-1 40.247810296945097 0 0 -1 0 0 0 0 1 forward_v I I I I #
coedge $-1 $516 $365 $367 $520 reversed $237 $-1 #
coedge $-1 $365 $515 $627 $628 reversed $237 $-1 #
coedge $-1 $373 $368 $365 $518 forward $363 $-1 #
edge $-1 $521 5.9652454513830726 $629 10.240023871729331 $517 $630 forward 7 unknown #
coedge $-1 $367 $366 $524 $631 reversed $149 $-1 #
edge $-1 $632 -80.495620593890237 $521 -73.042771704009112 $515 $633 forward 7 unknown #
vertex $-1 $369 $634 #
straight-curve $-1 35.973031876598839 -3.3581310362117582 7.5319409574025613 0 -1 0 I I #
coedge $-1 $627 $370 $373 $528 reversed $513 $-1 #
coedge $-1 $370 $627 $519 $631 forward $513 $-1 #
vertex $-1 $371 $635 #
straight-curve $-1 40.247810296945097 -3.4787048393467757 56.767733790220205 0 0 1 I I #
straight-curve $-1 -5.9225799701022268 -3.4787048393467757 67.365077313393101 0.57357642473473569 0 -0.81915205242281985 I I #
edge $-1 $629 -9.9538193055002573 $374 -3.4787048393467757 $523 $636 forward 7 unknown #
point $-1 40.247810296945097 -3.4787048393467757 7.5319409574025604 #
point $-1 35.973031876598839 -3.4787048393467757 7.5319409574025684 #
edge $-1 $637 1 $637 0 $377 $-1 forward 7 unknown #
vertex $-1 $378 $638 #
ellipse-curve $-1 36.665461565606208 -8.1037866008849768 3.4676612065400647 0.81915205242281985 0 0.57357642473473569 0.28678821236736785 0 -0.40957602621140993 1 I I #
point $-1 38.397209299139348 -8.1037866008849768 4.0698566989195459 #
edge $-1 $639 1 $639 0 $381 $-1 forward 7 unknown #
vertex $-1 $382 $640 #
ellipse-curve $-1 36.665461565606208 -5.3287375439620561 3.4676612065400647 0.81915205242281985 0 0.57357642473473569 0.28678821236736785 0 -0.40957602621140993 1 I I #
point $-1 38.397209299139348 -5.3287375439620561 4.0698566989195459 #
plane-surface $-1 0 0 7.5319409574025604 0 0 1 1 0 0 forward_v I I I I #
coedge $-1 $550 $549 $542 $641 forward $386 $-1 #
coedge $-1 $542 $388 $390 $546 reversed $259 $-1 #
coedge $-1 $388 $541 $540 $641 reversed $259 $-1 #
coedge $-1 $396 $391 $388 $544 forward $397 $-1 #
edge $-1 $547 5.9652454513830726 $642 10.240023871729331 $543 $643 forward 7 unknown #
coedge $-1 $390 $389 $550 $644 reversed $163 $-1 #
edge $-1 $645 -80.495620593890237 $547 -73.042771704009112 $541 $646 forward 7 unknown #
vertex $-1 $392 $647 #
straight-curve $-1 35.973031876598839 5.4065778454169351 7.5319409574025613 0 -1 0 I I #
coedge $-1 $540 $393 $396 $554 reversed $386 $-1 #
coedge $-1 $393 $540 $545 $644 forward $386 $-1 #
vertex $-1 $394 $648 #
straight-curve $-1 40.247810296945097 14.050712923910611 56.767733790220205 0 0 1 I I #
straight-curve $-1 -5.9225799701022268 14.050712923910611 67.365077313393101 0.57357642473473569 0 -0.81915205242281985 I I #
edge $-1 $642 7.5755984577571294 $398 14.050712923910611 $549 $649 forward 7 unknown #
point $-1 40.247810296945097 14.050712923910611 7.5319409574025604 #
point $-1 35.973031876598839 14.050712923910611 7.5319409574025684 #
edge $-1 $650 1 $650 0 $401 $-1 forward 7 unknown #
vertex $-1 $402 $651 #
ellipse-curve $-1 36.665461565606208 9.4256311623724081 3.4676612065400647 0.81915205242281985 0 0.57357642473473569 0.28678821236736785 0 -0.40957602621140993 1 I I #
point $-1 38.397209299139348 9.4256311623724081 4.0698566989195459 #
edge $-1 $652 1 $652 0 $405 $-1 forward 7 unknown #
vertex $-1 $406 $653 #
ellipse-curve $-1 36.665461565606208 12.200680219295332 3.4676612065400647 0.81915205242281985 0 0.57357642473473569 0.28678821236736785 0 -0.40957602621140993 1 I I #
point $-1 38.397209299139348 12.200680219295332 4.0698566989195459 #
plane-surface $-1 40.247810296945097 0 0 -1 0 0 0 0 1 forward_v I I I I #
coedge $-1 $414 $412 $416 $570 reversed $281 $-1 #
edge $-1 $427 -7.5319409574025604 $572 7.5319409574025604 $426 $654 forward 7 unknown #
vertex $-1 $570 $655 #
straight-curve $-1 -40.247810296945097 -21.309954699018224 0 0 0 -1 I I #
edge $-1 $568 -21.309954699018224 $572 21.309954699018224 $566 $656 forward 7 unknown #
straight-curve $-1 0 -21.309954699018224 -7.5319409574025604 -1 0 0 I I #
vertex $-1 $419 $657 #
straight-curve $-1 0 21.309954699018224 -7.5319409574025604 1 0 0 I I #
point $-1 40.247810296945097 21.309954699018224 -7.5319409574025604 #
point $-1 40.247810296945097 -21.309954699018224 -7.5319409574025604 #
straight-curve $-1 -40.247810296945097 0 7.5319409574025604 0 -1 0 I I #
point $-1 -40.247810296945097 21.309954699018224 7.5319409574025604 #
point $-1 -40.247810296945097 -21.309954699018224 7.5319409574025604 #
straight-curve $-1 40.247810296945097 -21.309954699018224 0 0 0 -1 I I #
straight-curve $-1 40.247810296945097 21.309954699018224 0 0 0 -1 I I #
loop $-1 $-1 $442 $436 #
plane-surface $-1 0 -21.309954699018224 0 0 1 0 0 0 1 forward_v I I I I #
coedge $-1 $453 $444 $440 $585 forward $437 $-1 #
edge $-1 $589 -12.545245817389532 $448 -4.9841719458678515 $439 $658 forward 7 unknown #
edge $-1 $449 4.9841719458678515 $588 12.545245817389532 $583 $659 forward 7 unknown #
coedge $-1 $451 $442 $456 $598 reversed $581 $-1 #
coedge $-1 $442 $451 $453 $596 reversed $581 $-1 #
vertex $-1 $596 $660 #
vertex $-1 $443 $661 #
straight-curve $-1 -25.837411050451259 -21.309954699018224 0 0 0 1 I I #
straight-curve $-1 -13.791072410338284 -13.748880827496544 -7.5319409574025604 1 0 0 I I #
straight-curve $-1 -13.791072410338284 -13.748880827496544 7.5319409574025604 -1 0 0 I I #
point $-1 -25.837411050451259 -13.748880827496544 7.5319409574025604 #
point $-1 -25.837411050451259 -13.748880827496544 -7.5319409574025604 #
straight-curve $-1 -29.326878590901877 -21.309954699018224 0 0 0 -1 I I #
edge $-1 $588 25.837411050451259 $454 29.326878590901877 $587 $662 forward 7 unknown #
point $-1 -29.326878590901877 -21.309954699018224 -7.5319409574025604 #
edge $-1 $457 -29.326878590901877 $589 -25.837411050451259 $586 $663 forward 7 unknown #
point $-1 -29.326878590901877 -21.309954699018224 7.5319409574025604 #
edge $-1 $601 16.266716422550761 $604 22.371732887093991 $462 $664 forward 7 unknown #
vertex $-1 $476 $665 #
straight-curve $-1 -53.092981558739424 -3.4787048393467757 7.5319409574025613 -1 0 0 I I #
edge $-1 $604 0.12057380313501742 $473 6.5956882692884991 $472 $666 forward 7 unknown #
vertex $-1 $603 $667 #
straight-curve $-1 -40.24781029694509 -3.4787048393467757 1.4269244928593423 0.57357642473473569 0 0.81915205242281985 I I #
point $-1 -35.97303187659886 -3.4787048393467757 7.5319409574025604 #
point $-1 -40.247810296945097 -9.9538193055002573 1.4269244928593321 #
straight-curve $-1 -40.247810296945097 0 7.5319409574025604 0 -1 0 I I #
vertex $-1 $479 $668 #
point $-1 -36.378673353238838 -8.1037866008849768 3.8772372327514728 #
vertex $-1 $483 $669 #
point $-1 -36.378673353238838 -5.3287375439620561 3.8772372327514728 #
coedge $-1 $498 $497 $490 $614 forward $487 $-1 #
edge $-1 $615 16.266716422550761 $618 22.371732887093991 $613 $670 forward 7 unknown #
vertex $-1 $502 $671 #
straight-curve $-1 -53.092981558739424 14.050712923910611 7.5319409574025613 -1 0 0 I I #
edge $-1 $618 -8.6441350784936759 $499 -2.1690206123401943 $498 $672 forward 7 unknown #
vertex $-1 $617 $673 #
straight-curve $-1 -40.24781029694509 14.050712923910611 1.4269244928593423 0.57357642473473569 0 0.81915205242281985 I I #
point $-1 -35.97303187659886 14.050712923910611 7.5319409574025604 #
point $-1 -40.247810296945097 7.5755984577571294 1.4269244928593321 #
straight-curve $-1 -40.247810296945097 0 7.5319409574025604 0 -1 0 I I #
vertex $-1 $505 $674 #
point $-1 -36.378673353238838 9.4256311623724081 3.8772372327514728 #
vertex $-1 $509 $675 #
point $-1 -36.378673353238838 12.200680219295332 3.8772372327514728 #
coedge $-1 $524 $523 $516 $628 forward $513 $-1 #
edge $-1 $629 49.235792832817644 $632 55.340809297360892 $627 $676 forward 7 unknown #
vertex $-1 $528 $677 #
straight-curve $-1 30.007786425215766 -9.9538193055002573 7.5319409574025613 1 0 0 I I #
edge $-1 $632 -6.5956882692884991 $525 -0.12057380313501742 $524 $678 forward 7 unknown #
vertex $-1 $631 $679 #
straight-curve $-1 -5.9225799701022268 -9.9538193055002573 67.365077313393101 -0.57357642473473569 0 0.81915205242281985 I I #
point $-1 35.973031876598839 -9.9538193055002573 7.5319409574025684 #
point $-1 40.247810296945097 -3.4787048393467757 1.4269244928593139 #
straight-curve $-1 40.247810296945097 0 7.5319409574025604 0 1 0 I I #
vertex $-1 $531 $680 #
point $-1 36.952249777973577 -8.1037866008849768 3.0580851803286548 #
vertex $-1 $535 $681 #
point $-1 36.952249777973577 -5.3287375439620561 3.0580851803286548 #
edge $-1 $642 49.235792832817644 $645 55.340809297360892 $540 $682 forward 7 unknown #
vertex $-1 $554 $683 #
straight-curve $-1 30.007786425215766 7.5755984577571294 7.5319409574025613 1 0 0 I I #
edge $-1 $645 2.1690206123401943 $551 8.6441350784936759 $550 $684 forward 7 unknown #
vertex $-1 $644 $685 #
straight-curve $-1 -5.9225799701022268 7.5755984577571294 67.365077313393101 -0.57357642473473569 0 0.81915205242281985 I I #
point $-1 35.973031876598839 7.5755984577571294 7.5319409574025684 #
point $-1 40.247810296945097 14.050712923910611 1.4269244928593139 #
straight-curve $-1 40.247810296945097 0 7.5319409574025604 0 1 0 I I #
vertex $-1 $557 $686 #
point $-1 36.952249777973577 9.4256311623724081 3.0580851803286548 #
vertex $-1 $561 $687 #
point $-1 36.952249777973577 12.200680219295332 3.0580851803286548 #
straight-curve $-1 -40.247810296945097 21.309954699018224 0 0 0 -1 I I #
point $-1 -40.247810296945097 -21.309954699018224 -7.5319409574025604 #
straight-curve $-1 -40.247810296945097 0 -7.5319409574025604 0 1 0 I I #
point $-1 -40.247810296945097 21.309954699018224 -7.5319409574025604 #
straight-curve $-1 -25.837411050451259 -8.7647088816286924 7.5319409574025604 0 1 0 I I #
straight-curve $-1 -25.837411050451259 -8.7647088816286924 -7.5319409574025604 0 -1 0 I I #
point $-1 -25.837411050451259 -21.309954699018224 -7.5319409574025604 #
point $-1 -25.837411050451259 -21.309954699018224 7.5319409574025604 #
straight-curve $-1 0 -21.309954699018224 -7.5319409574025604 -1 0 0 I I #
straight-curve $-1 0 -21.309954699018224 7.5319409574025604 1 0 0 I I #
straight-curve $-1 -40.247810296945097 -3.4787048393467757 23.798657379953323 0 0 -1 I I #
point $-1 -40.247810296945097 -3.4787048393467757 7.5319409574025604 #
straight-curve $-1 -40.247810296945097 -3.3581310362117582 1.4269244928593314 0 -1 0 I I #
point $-1 -40.247810296945097 -3.4787048393467757 1.4269244928593321 #
point $-1 -36.255885539394797 -8.1037866008849768 3.1808729941726952 #
point $-1 -36.255885539394797 -5.3287375439620561 3.1808729941726952 #
straight-curve $-1 -40.247810296945097 14.050712923910611 23.798657379953323 0 0 -1 I I #
point $-1 -40.247810296945097 14.050712923910611 7.5319409574025604 #
straight-curve $-1 -40.247810296945097 5.4065778454169351 1.4269244928593314 0 -1 0 I I #
point $-1 -40.247810296945097 14.050712923910611 1.4269244928593321 #
point $-1 -36.255885539394797 9.4256311623724081 3.1808729941726952 #
point $-1 -36.255885539394797 12.200680219295332 3.1808729941726952 #
straight-curve $-1 40.247810296945097 -9.9538193055002573 56.767733790220205 0 0 -1 I I #
point $-1 40.247810296945097 -9.9538193055002573 7.5319409574025604 #
straight-curve $-1 40.247810296945104 -3.3581310362117582 1.4269244928593068 0 1 0 I I #
point $-1 40.247810296945097 -9.9538193055002573 1.4269244928593139 #
point $-1 36.255885539394797 -8.1037866008849768 3.180872994172697 #
point $-1 36.255885539394797 -5.3287375439620561 3.180872994172697 #
straight-curve $-1 40.247810296945097 7.5755984577571294 56.767733790220205 0 0 -1 I I #
point $-1 40.247810296945097 7.5755984577571294 7.5319409574025604 #
straight-curve $-1 40.247810296945104 5.4065778454169351 1.4269244928593068 0 1 0 I I #
point $-1 40.247810296945097 7.5755984577571294 1.4269244928593139 #
point $-1 36.255885539394797 9.4256311623724081 3.180872994172697 #
point $-1 36.255885539394797 12.200680219295332 3.180872994172697 #
End-of-ACIS-data 