500 0 18 0           
7 Unknown 11 ACIS 5.0 NT 24 Fri Mar 26 20:33:50 1999 
-1 9.9999999999999995e-007 1e-010 
body $-1 $18 $-1 $19 #
body $-1 $20 $-1 $21 #
body $-1 $22 $-1 $23 #
body $-1 $24 $-1 $25 #
body $-1 $26 $-1 $27 #
body $-1 $28 $-1 $29 #
body $-1 $30 $-1 $31 #
body $-1 $32 $-1 $33 #
body $-1 $34 $-1 $35 #
body $-1 $36 $-1 $37 #
body $-1 $38 $-1 $39 #
body $-1 $40 $-1 $41 #
body $-1 $42 $-1 $43 #
body $-1 $44 $-1 $45 #
body $-1 $46 $-1 $47 #
body $-1 $48 $-1 $49 #
body $-1 $50 $-1 $51 #
body $-1 $52 $-1 $53 #
lump $-1 $-1 $54 $0 #
transform $-1 1 0 0 0 1 0 0 0 1 76.075319681386759 46.660241394229018 11.221128030839706 1 rotate no_reflect no_shear #
lump $-1 $-1 $55 $1 #
transform $-1 1 0 0 0 1 0 0 0 1 76.075319681386759 46.660241394229018 11.221128030839706 1 rotate no_reflect no_shear #
lump $-1 $-1 $56 $2 #
transform $-1 1 0 0 0 1 0 0 0 1 76.075319681386759 46.660241394229018 11.221128030839706 1 rotate no_reflect no_shear #
lump $-1 $-1 $57 $3 #
transform $-1 1 0 0 0 1 0 0 0 1 76.075319681386759 46.660241394229018 11.221128030839706 1 rotate no_reflect no_shear #
lump $-1 $-1 $58 $4 #
transform $-1 1 0 0 0 1 0 0 0 1 76.075319681386759 46.660241394229018 11.221128030839706 1 rotate no_reflect no_shear #
lump $-1 $-1 $59 $5 #
transform $-1 1 0 0 0 1 0 0 0 1 76.075319681386759 46.660241394229018 11.221128030839706 1 rotate no_reflect no_shear #
lump $-1 $-1 $60 $6 #
transform $-1 1 0 0 0 1 0 0 0 1 76.075319681386759 46.660241394229018 11.221128030839706 1 rotate no_reflect no_shear #
lump $-1 $-1 $61 $7 #
transform $-1 1 0 0 0 1 0 0 0 1 76.075319681386759 46.660241394229018 11.221128030839706 1 rotate no_reflect no_shear #
lump $-1 $-1 $62 $8 #
transform $-1 1 0 0 0 1 0 0 0 1 76.075319681386759 46.660241394229018 11.221128030839706 1 rotate no_reflect no_shear #
lump $-1 $-1 $63 $9 #
transform $-1 1 0 0 0 1 0 0 0 1 76.075319681386759 46.660241394229018 11.221128030839706 1 rotate no_reflect no_shear #
lump $-1 $-1 $64 $10 #
transform $-1 1 0 0 0 1 0 0 0 1 76.075319681386759 46.660241394229018 11.221128030839706 1 rotate no_reflect no_shear #
lump $-1 $-1 $65 $11 #
transform $-1 1 0 0 0 1 0 0 0 1 76.075319681386759 46.660241394229018 11.221128030839706 1 rotate no_reflect no_shear #
lump $-1 $-1 $66 $12 #
transform $-1 1 0 0 0 1 0 0 0 1 76.075319681386759 46.660241394229018 11.221128030839706 1 rotate no_reflect no_shear #
lump $-1 $-1 $67 $13 #
transform $-1 1 0 0 0 1 0 0 0 1 76.075319681386759 46.660241394229018 11.221128030839706 1 rotate no_reflect no_shear #
lump $-1 $-1 $68 $14 #
transform $-1 1 0 0 0 1 0 0 0 1 76.075319681386759 46.660241394229018 11.221128030839706 1 rotate no_reflect no_shear #
lump $-1 $-1 $69 $15 #
transform $-1 1 0 0 0 1 0 0 0 1 76.075319681386759 46.660241394229018 11.221128030839706 1 rotate no_reflect no_shear #
lump $-1 $-1 $70 $16 #
transform $-1 1 0 0 0 1 0 0 0 1 76.075319681386759 46.660241394229018 11.221128030839706 1 rotate no_reflect no_shear #
lump $-1 $-1 $71 $17 #
transform $-1 1 0 0 0 1 0 0 0 1 76.075319681386759 46.660241394229018 11.221128030839706 1 rotate no_reflect no_shear #
shell $-1 $-1 $-1 $72 $-1 $18 #
shell $-1 $-1 $-1 $73 $-1 $20 #
shell $-1 $-1 $-1 $74 $-1 $22 #
shell $-1 $-1 $-1 $75 $-1 $24 #
shell $-1 $-1 $-1 $76 $-1 $26 #
shell $-1 $-1 $-1 $77 $-1 $28 #
shell $-1 $-1 $-1 $78 $-1 $30 #
shell $-1 $-1 $-1 $79 $-1 $32 #
shell $-1 $-1 $-1 $80 $-1 $34 #
shell $-1 $-1 $-1 $81 $-1 $36 #
shell $-1 $-1 $-1 $82 $-1 $38 #
shell $-1 $-1 $-1 $83 $-1 $40 #
shell $-1 $-1 $-1 $84 $-1 $42 #
shell $-1 $-1 $-1 $85 $-1 $44 #
shell $-1 $-1 $-1 $86 $-1 $46 #
shell $-1 $-1 $-1 $87 $-1 $48 #
shell $-1 $-1 $-1 $88 $-1 $50 #
shell $-1 $-1 $-1 $89 $-1 $52 #
face $-1 $90 $91 $54 $-1 $92 forward single #
face $-1 $93 $94 $55 $-1 $95 forward single #
face $-1 $96 $97 $56 $-1 $98 reversed single #
face $-1 $99 $100 $57 $-1 $101 forward single #
face $-1 $102 $103 $58 $-1 $104 forward single #
face $-1 $105 $106 $59 $-1 $107 forward single #
face $-1 $108 $109 $60 $-1 $110 reversed single #
face $-1 $111 $112 $61 $-1 $113 forward single #
face $-1 $114 $115 $62 $-1 $116 forward single #
face $-1 $117 $118 $63 $-1 $119 forward single #
face $-1 $120 $121 $64 $-1 $122 reversed single #
face $-1 $123 $124 $65 $-1 $125 forward single #
face $-1 $126 $127 $66 $-1 $128 forward single #
face $-1 $129 $130 $67 $-1 $131 forward single #
face $-1 $132 $133 $68 $-1 $134 reversed single #
face $-1 $135 $136 $69 $-1 $137 forward single #
face $-1 $138 $139 $70 $-1 $140 forward single #
face $-1 $141 $142 $71 $-1 $143 forward single #
face $-1 $144 $145 $54 $-1 $146 reversed single #
loop $-1 $-1 $147 $72 #
plane-surface $-1 0 0 11.221128030839706 0 0 1 1 0 0 forward_v I I I I #
face $-1 $148 $149 $55 $-1 $150 reversed single #
loop $-1 $-1 $151 $73 #
plane-surface $-1 0 -42.609878882598487 -0.23593935869072702 0 0 1 1 0 0 forward_v I I I I #
face $-1 $152 $153 $56 $-1 $154 reversed single #
loop $-1 $-1 $155 $74 #
plane-surface $-1 57.32171587953161 -38.559516370967955 219.44739643575892 0 1 0 0.64278761758704617 0 0.76604443648966558 forward_v I I I I #
face $-1 $156 $157 $57 $-1 $158 forward single #
loop $-1 $159 $160 $75 #
cone-surface $-1 72.102137085209321 -35.959490612264233 7.7738911237838719 -0.64278761758704617 0 -0.76604443648966558 0.38302221824483279 0 -0.32139380879352308 1 I I 0 1 0.5 forward I I I I #
face $-1 $161 $162 $58 $-1 $163 forward single #
loop $-1 $164 $165 $76 #
cone-surface $-1 72.102137085209321 -32.059451974208635 7.7738911237838719 -0.64278761758704617 0 -0.76604443648966558 0.38302221824483279 0 -0.32139380879352308 1 I I 0 1 0.5 forward I I I I #
face $-1 $166 $167 $59 $-1 $168 forward single #
loop $-1 $169 $170 $77 #
cone-surface $-1 72.102137085209321 -28.159413336153044 7.7738911237838719 -0.64278761758704617 0 -0.76604443648966558 0.38302221824483279 0 -0.32139380879352308 1 I I 0 1 0.5 forward I I I I #
face $-1 $171 $172 $60 $-1 $173 reversed single #
loop $-1 $-1 $174 $78 #
plane-surface $-1 57.32171587953161 33.66011260071037 219.44739643575892 0 1 0 0.64278761758704617 0 0.76604443648966558 forward_v I I I I #
face $-1 $175 $176 $61 $-1 $177 forward single #
loop $-1 $178 $179 $79 #
cone-surface $-1 72.102137085209321 36.2601383594141 7.7738911237838719 -0.64278761758704617 0 -0.76604443648966558 0.38302221824483279 0 -0.32139380879352308 1 I I 0 1 0.5 forward I I I I #
face $-1 $180 $181 $62 $-1 $182 forward single #
loop $-1 $183 $184 $80 #
cone-surface $-1 72.102137085209321 40.160176997469691 7.7738911237838719 -0.64278761758704617 0 -0.76604443648966558 0.38302221824483279 0 -0.32139380879352308 1 I I 0 1 0.5 forward I I I I #
face $-1 $185 $186 $63 $-1 $187 forward single #
loop $-1 $188 $189 $81 #
cone-surface $-1 72.102137085209321 44.060215635525282 7.7738911237838719 -0.64278761758704617 0 -0.76604443648966558 0.38302221824483279 0 -0.32139380879352308 1 I I 0 1 0.5 forward I I I I #
face $-1 $190 $191 $64 $-1 $192 reversed single #
loop $-1 $-1 $193 $82 #
plane-surface $-1 -173.8758666717298 -38.559516370967955 121.64684944541588 0 1 0 -0.64278761758704617 0 0.76604443648966558 forward_v I I I I #
face $-1 $194 $195 $65 $-1 $196 forward single #
loop $-1 $197 $198 $83 #
cone-surface $-1 -72.10213708520935 -35.959490612264233 7.7738911237838684 0.64278761758704617 0 -0.76604443648966558 0.38302221824483279 0 0.32139380879352308 1 I I 0 1 0.5 forward I I I I #
face $-1 $199 $200 $66 $-1 $201 forward single #
loop $-1 $202 $203 $84 #
cone-surface $-1 -72.10213708520935 -32.059451974208635 7.7738911237838684 0.64278761758704617 0 -0.76604443648966558 0.38302221824483279 0 0.32139380879352308 1 I I 0 1 0.5 forward I I I I #
face $-1 $204 $205 $67 $-1 $206 forward single #
loop $-1 $207 $208 $85 #
cone-surface $-1 -72.10213708520935 -28.159413336153044 7.7738911237838684 0.64278761758704617 0 -0.76604443648966558 0.38302221824483279 0 0.32139380879352308 1 I I 0 1 0.5 forward I I I I #
face $-1 $209 $210 $68 $-1 $211 reversed single #
loop $-1 $-1 $212 $86 #
plane-surface $-1 -173.8758666717298 33.66011260071037 121.64684944541588 0 1 0 -0.64278761758704617 0 0.76604443648966558 forward_v I I I I #
face $-1 $213 $214 $69 $-1 $215 forward single #
loop $-1 $216 $217 $87 #
cone-surface $-1 -72.10213708520935 36.2601383594141 7.7738911237838684 0.64278761758704617 0 -0.76604443648966558 0.38302221824483279 0 0.32139380879352308 1 I I 0 1 0.5 forward I I I I #
face $-1 $218 $219 $70 $-1 $220 forward single #
loop $-1 $221 $222 $88 #
cone-surface $-1 -72.10213708520935 40.160176997469691 7.7738911237838684 0.64278761758704617 0 -0.76604443648966558 0.38302221824483279 0 0.32139380879352308 1 I I 0 1 0.5 forward I I I I #
face $-1 $223 $224 $71 $-1 $225 forward single #
loop $-1 $226 $227 $89 #
cone-surface $-1 -72.10213708520935 44.060215635525282 7.7738911237838684 0.64278761758704617 0 -0.76604443648966558 0.38302221824483279 0 0.32139380879352308 1 I I 0 1 0.5 forward I I I I #
face $-1 $228 $229 $54 $-1 $230 reversed single #
loop $-1 $-1 $231 $90 #
plane-surface $-1 0 0 -11.221128030839706 0 0 1 1 0 0 forward_v I I I I #
coedge $-1 $232 $233 $234 $235 forward $91 $-1 #
face $-1 $236 $237 $55 $-1 $238 reversed single #
loop $-1 $-1 $239 $93 #
plane-surface $-1 0 -42.609878882598487 -6.8919069063150662 0 0 1 1 0 0 forward_v I I I I #
coedge $-1 $240 $241 $242 $243 reversed $94 $-1 #
face $-1 $244 $245 $56 $-1 $246 reversed single #
loop $-1 $-1 $247 $96 #
plane-surface $-1 -40.478831110811427 -32.059451974208635 102.89324564356075 0.64278761758704617 0 0.76604443648966558 0.76604443648966558 0 -0.64278761758704617 forward_v I I I I #
coedge $-1 $248 $249 $250 $251 reversed $97 $-1 #
face $-1 $-1 $252 $57 $-1 $253 forward single #
loop $-1 $254 $255 $99 #
cone-surface $-1 71.620046372019033 -35.959490612264233 7.1993577964166224 -0.64278761758704617 0 -0.76604443648966558 0.1915111091224164 0 -0.16069690439676154 1 I I -0.70710678118654746 0.70710678118654746 0.25 forward I I I I #
loop $-1 $-1 $256 $75 #
coedge $-1 $160 $160 $257 $258 reversed $100 $-1 #
face $-1 $-1 $259 $58 $-1 $260 forward single #
loop $-1 $261 $262 $102 #
cone-surface $-1 71.620046372019033 -32.059451974208635 7.1993577964166224 -0.64278761758704617 0 -0.76604443648966558 0.1915111091224164 0 -0.16069690439676154 1 I I -0.70710678118654746 0.70710678118654746 0.25 forward I I I I #
loop $-1 $-1 $263 $76 #
coedge $-1 $165 $165 $264 $265 reversed $103 $-1 #
face $-1 $-1 $266 $59 $-1 $267 forward single #
loop $-1 $268 $269 $105 #
cone-surface $-1 71.620046372019033 -28.159413336153044 7.1993577964166224 -0.64278761758704617 0 -0.76604443648966558 0.1915111091224164 0 -0.16069690439676154 1 I I -0.70710678118654746 0.70710678118654746 0.25 forward I I I I #
loop $-1 $-1 $270 $77 #
coedge $-1 $170 $170 $271 $272 reversed $106 $-1 #
face $-1 $273 $274 $60 $-1 $275 reversed single #
loop $-1 $-1 $276 $108 #
plane-surface $-1 -40.478831110811427 40.160176997469691 102.89324564356075 0.64278761758704617 0 0.76604443648966558 0.76604443648966558 0 -0.64278761758704617 forward_v I I I I #
coedge $-1 $277 $278 $279 $280 reversed $109 $-1 #
face $-1 $-1 $281 $61 $-1 $282 forward single #
loop $-1 $283 $284 $111 #
cone-surface $-1 71.620046372019033 36.2601383594141 7.1993577964166224 -0.64278761758704617 0 -0.76604443648966558 0.1915111091224164 0 -0.16069690439676154 1 I I -0.70710678118654746 0.70710678118654746 0.25 forward I I I I #
loop $-1 $-1 $285 $79 #
coedge $-1 $179 $179 $286 $287 reversed $112 $-1 #
face $-1 $-1 $288 $62 $-1 $289 forward single #
loop $-1 $290 $291 $114 #
cone-surface $-1 71.620046372019033 40.160176997469691 7.1993577964166224 -0.64278761758704617 0 -0.76604443648966558 0.1915111091224164 0 -0.16069690439676154 1 I I -0.70710678118654746 0.70710678118654746 0.25 forward I I I I #
loop $-1 $-1 $292 $80 #
coedge $-1 $184 $184 $293 $294 reversed $115 $-1 #
face $-1 $-1 $295 $63 $-1 $296 forward single #
loop $-1 $297 $298 $117 #
cone-surface $-1 71.620046372019033 44.060215635525282 7.1993577964166224 -0.64278761758704617 0 -0.76604443648966558 0.1915111091224164 0 -0.16069690439676154 1 I I -0.70710678118654746 0.70710678118654746 0.25 forward I I I I #
loop $-1 $-1 $299 $81 #
coedge $-1 $189 $189 $300 $301 reversed $118 $-1 #
face $-1 $302 $303 $64 $-1 $304 reversed single #
loop $-1 $-1 $305 $120 #
plane-surface $-1 -76.075319681386759 -32.059451974208635 5.0926986532177096 -0.64278761758704617 0 0.76604443648966558 0.76604443648966558 0 0.64278761758704617 forward_v I I I I #
coedge $-1 $306 $307 $308 $309 reversed $121 $-1 #
face $-1 $-1 $310 $65 $-1 $311 forward single #
loop $-1 $312 $313 $123 #
cone-surface $-1 -71.620046372019061 -35.959490612264233 7.1993577964166189 0.64278761758704617 0 -0.76604443648966558 0.1915111091224164 0 0.16069690439676154 1 I I -0.70710678118654746 0.70710678118654746 0.25 forward I I I I #
loop $-1 $-1 $314 $83 #
coedge $-1 $198 $198 $315 $316 reversed $124 $-1 #
face $-1 $-1 $317 $66 $-1 $318 forward single #
loop $-1 $319 $320 $126 #
cone-surface $-1 -71.620046372019061 -32.059451974208635 7.1993577964166189 0.64278761758704617 0 -0.76604443648966558 0.1915111091224164 0 0.16069690439676154 1 I I -0.70710678118654746 0.70710678118654746 0.25 forward I I I I #
loop $-1 $-1 $321 $84 #
coedge $-1 $203 $203 $322 $323 reversed $127 $-1 #
face $-1 $-1 $324 $67 $-1 $325 forward single #
loop $-1 $326 $327 $129 #
cone-surface $-1 -71.620046372019061 -28.159413336153044 7.1993577964166189 0.64278761758704617 0 -0.76604443648966558 0.1915111091224164 0 0.16069690439676154 1 I I -0.70710678118654746 0.70710678118654746 0.25 forward I I I I #
loop $-1 $-1 $328 $85 #
coedge $-1 $208 $208 $329 $330 reversed $130 $-1 #
face $-1 $331 $332 $68 $-1 $333 forward single #
loop $-1 $-1 $334 $132 #
plane-surface $-1 -76.075319681386759 40.160176997469691 5.0926986532177096 -0.64278761758704617 0 0.76604443648966558 0.76604443648966558 0 0.64278761758704617 forward_v I I I I #
coedge $-1 $335 $336 $337 $338 reversed $133 $-1 #
face $-1 $-1 $339 $69 $-1 $340 forward single #
loop $-1 $341 $342 $135 #
cone-surface $-1 -71.620046372019061 36.2601383594141 7.1993577964166189 0.64278761758704617 0 -0.76604443648966558 0.1915111091224164 0 0.16069690439676154 1 I I -0.70710678118654746 0.70710678118654746 0.25 forward I I I I #
loop $-1 $-1 $343 $87 #
coedge $-1 $217 $217 $344 $345 reversed $136 $-1 #
face $-1 $-1 $346 $70 $-1 $347 forward single #
loop $-1 $348 $349 $138 #
cone-surface $-1 -71.620046372019061 40.160176997469691 7.1993577964166189 0.64278761758704617 0 -0.76604443648966558 0.1915111091224164 0 0.16069690439676154 1 I I -0.70710678118654746 0.70710678118654746 0.25 forward I I I I #
loop $-1 $-1 $350 $88 #
coedge $-1 $222 $222 $351 $352 reversed $139 $-1 #
face $-1 $-1 $353 $71 $-1 $354 forward single #
loop $-1 $355 $356 $141 #
cone-surface $-1 -71.620046372019061 44.060215635525282 7.1993577964166189 0.64278761758704617 0 -0.76604443648966558 0.1915111091224164 0 0.16069690439676154 1 I I -0.70710678118654746 0.70710678118654746 0.25 forward I I I I #
loop $-1 $-1 $357 $89 #
coedge $-1 $227 $227 $358 $359 reversed $142 $-1 #
face $-1 $360 $361 $54 $-1 $362 reversed single #
loop $-1 $-1 $363 $144 #
plane-surface $-1 0 -46.660241394229018 0 0 1 0 0 0 1 forward_v I I I I #
coedge $-1 $364 $365 $366 $367 forward $145 $-1 #
coedge $-1 $368 $147 $369 $370 forward $91 $-1 #
coedge $-1 $147 $368 $371 $372 forward $91 $-1 #
coedge $-1 $373 $374 $147 $235 reversed $375 $-1 #
edge $-1 $376 -46.660241394229018 $377 46.660241394229018 $234 $378 forward 7 unknown #
face $-1 $379 $380 $55 $-1 $381 reversed single #
loop $-1 $-1 $382 $148 #
plane-surface $-1 0 -38.559516370967955 -3.5639231325028966 0 -1 0 0 0 -1 forward_v I I I I #
coedge $-1 $383 $384 $385 $386 reversed $149 $-1 #
coedge $-1 $387 $151 $388 $389 forward $94 $-1 #
coedge $-1 $151 $387 $390 $391 reversed $94 $-1 #
coedge $-1 $392 $393 $151 $243 forward $394 $-1 #
edge $-1 $395 17.254576929668712 $396 25.355301952929775 $242 $397 forward 7 unknown #
face $-1 $398 $399 $56 $-1 $400 forward single #
loop $-1 $-1 $401 $152 #
plane-surface $-1 57.32171587953161 -25.559387577449314 219.44739643575892 0 -1 0 -0.64278761758704617 0 -0.76604443648966558 forward_v I I I I #
coedge $-1 $402 $403 $404 $405 reversed $153 $-1 #
coedge $-1 $249 $155 $406 $407 reversed $97 $-1 #
coedge $-1 $155 $248 $402 $408 reversed $97 $-1 #
coedge $-1 $404 $409 $155 $251 forward $410 $-1 #
edge $-1 $411 98.502570187039751 $412 104.63099956466176 $250 $413 forward 7 unknown #
loop $-1 $-1 $257 $156 #
plane-surface $-1 -40.478831110811427 -32.059451974208635 102.89324564356075 0.64278761758704617 0 0.76604443648966558 0.76604443648966558 0 -0.64278761758704617 forward_v I I I I #
loop $-1 $-1 $414 $99 #
coedge $-1 $255 $255 $256 $415 reversed $157 $-1 #
coedge $-1 $256 $256 $255 $415 forward $159 $-1 #
coedge $-1 $257 $257 $160 $258 forward $252 $-1 #
edge $-1 $416 0 $416 6.2831853071796004 $257 $417 forward 7 unknown #
loop $-1 $-1 $264 $161 #
plane-surface $-1 -40.478831110811427 -32.059451974208635 102.89324564356075 0.64278761758704617 0 0.76604443648966558 0.76604443648966558 0 -0.64278761758704617 forward_v I I I I #
loop $-1 $-1 $418 $102 #
coedge $-1 $262 $262 $263 $419 reversed $162 $-1 #
coedge $-1 $263 $263 $262 $419 forward $164 $-1 #
coedge $-1 $264 $264 $165 $265 forward $259 $-1 #
edge $-1 $420 0 $420 6.2831853071796004 $264 $421 forward 7 unknown #
loop $-1 $-1 $271 $166 #
plane-surface $-1 -40.478831110811427 -32.059451974208635 102.89324564356075 0.64278761758704617 0 0.76604443648966558 0.76604443648966558 0 -0.64278761758704617 forward_v I I I I #
loop $-1 $-1 $422 $105 #
coedge $-1 $269 $269 $270 $423 reversed $167 $-1 #
coedge $-1 $270 $270 $269 $423 forward $169 $-1 #
coedge $-1 $271 $271 $170 $272 forward $266 $-1 #
edge $-1 $424 0 $424 6.2831853071796004 $271 $425 forward 7 unknown #
face $-1 $426 $427 $60 $-1 $428 forward single #
loop $-1 $-1 $279 $171 #
plane-surface $-1 76.075319681386759 0 0 -1 0 0 0 0 1 forward_v I I I I #
coedge $-1 $429 $430 $431 $432 reversed $172 $-1 #
coedge $-1 $278 $174 $433 $434 reversed $109 $-1 #
coedge $-1 $174 $277 $429 $435 reversed $109 $-1 #
coedge $-1 $431 $436 $174 $280 forward $274 $-1 #
edge $-1 $437 98.502570187039751 $438 104.63099956466176 $279 $439 forward 7 unknown #
loop $-1 $-1 $286 $175 #
plane-surface $-1 -40.478831110811427 40.160176997469691 102.89324564356075 0.64278761758704617 0 0.76604443648966558 0.76604443648966558 0 -0.64278761758704617 forward_v I I I I #
loop $-1 $-1 $440 $111 #
coedge $-1 $284 $284 $285 $441 reversed $176 $-1 #
coedge $-1 $285 $285 $284 $441 forward $178 $-1 #
coedge $-1 $286 $286 $179 $287 forward $281 $-1 #
edge $-1 $442 0 $442 6.2831853071796004 $286 $443 forward 7 unknown #
loop $-1 $-1 $293 $180 #
plane-surface $-1 -40.478831110811427 40.160176997469691 102.89324564356075 0.64278761758704617 0 0.76604443648966558 0.76604443648966558 0 -0.64278761758704617 forward_v I I I I #
loop $-1 $-1 $444 $114 #
coedge $-1 $291 $291 $292 $445 reversed $181 $-1 #
coedge $-1 $292 $292 $291 $445 forward $183 $-1 #
coedge $-1 $293 $293 $184 $294 forward $288 $-1 #
edge $-1 $446 0 $446 6.2831853071796004 $293 $447 forward 7 unknown #
loop $-1 $-1 $300 $185 #
plane-surface $-1 -40.478831110811427 40.160176997469691 102.89324564356075 0.64278761758704617 0 0.76604443648966558 0.76604443648966558 0 -0.64278761758704617 forward_v I I I I #
loop $-1 $-1 $448 $117 #
coedge $-1 $298 $298 $299 $449 reversed $186 $-1 #
coedge $-1 $299 $299 $298 $449 forward $188 $-1 #
coedge $-1 $300 $300 $189 $301 forward $295 $-1 #
edge $-1 $450 0 $450 6.2831853071796004 $300 $451 forward 7 unknown #
face $-1 $452 $453 $64 $-1 $454 reversed single #
loop $-1 $-1 $455 $190 #
plane-surface $-1 -173.8758666717298 -25.559387577449314 121.64684944541588 0 -1 0 0.64278761758704617 0 -0.76604443648966558 forward_v I I I I #
coedge $-1 $456 $457 $458 $459 reversed $191 $-1 #
coedge $-1 $307 $193 $460 $461 reversed $121 $-1 #
coedge $-1 $193 $306 $456 $462 reversed $121 $-1 #
coedge $-1 $458 $463 $193 $309 forward $464 $-1 #
edge $-1 $465 10.862613654478139 $466 18.166191229245911 $308 $467 forward 7 unknown #
loop $-1 $-1 $315 $194 #
plane-surface $-1 -76.075319681386759 -32.059451974208635 5.0926986532177096 -0.64278761758704617 0 0.76604443648966558 0.76604443648966558 0 0.64278761758704617 forward_v I I I I #
loop $-1 $-1 $468 $123 #
coedge $-1 $313 $313 $314 $469 reversed $195 $-1 #
coedge $-1 $314 $314 $313 $469 forward $197 $-1 #
coedge $-1 $315 $315 $198 $316 forward $310 $-1 #
edge $-1 $470 0 $470 6.2831853071796004 $315 $471 forward 7 unknown #
loop $-1 $-1 $322 $199 #
plane-surface $-1 -76.075319681386759 -32.059451974208635 5.0926986532177096 -0.64278761758704617 0 0.76604443648966558 0.76604443648966558 0 0.64278761758704617 forward_v I I I I #
loop $-1 $-1 $472 $126 #
coedge $-1 $320 $320 $321 $473 reversed $200 $-1 #
coedge $-1 $321 $321 $320 $473 forward $202 $-1 #
coedge $-1 $322 $322 $203 $323 forward $317 $-1 #
edge $-1 $474 0 $474 6.2831853071796004 $322 $475 forward 7 unknown #
loop $-1 $-1 $329 $204 #
plane-surface $-1 -76.075319681386759 -32.059451974208635 5.0926986532177096 -0.64278761758704617 0 0.76604443648966558 0.76604443648966558 0 0.64278761758704617 forward_v I I I I #
loop $-1 $-1 $476 $129 #
coedge $-1 $327 $327 $328 $477 reversed $205 $-1 #
coedge $-1 $328 $328 $327 $477 forward $207 $-1 #
coedge $-1 $329 $329 $208 $330 forward $324 $-1 #
edge $-1 $478 0 $478 6.2831853071796004 $329 $479 forward 7 unknown #
face $-1 $480 $481 $68 $-1 $482 reversed single #
loop $-1 $-1 $337 $209 #
plane-surface $-1 0 0 11.221128030839706 0 0 1 1 0 0 forward_v I I I I #
coedge $-1 $483 $484 $485 $486 reversed $210 $-1 #
coedge $-1 $336 $212 $487 $488 reversed $133 $-1 #
coedge $-1 $212 $335 $483 $489 reversed $133 $-1 #
coedge $-1 $485 $490 $212 $338 forward $332 $-1 #
edge $-1 $491 10.862613654478139 $492 18.166191229245911 $337 $493 forward 7 unknown #
loop $-1 $-1 $344 $213 #
plane-surface $-1 -76.075319681386759 40.160176997469691 5.0926986532177096 -0.64278761758704617 0 0.76604443648966558 0.76604443648966558 0 0.64278761758704617 forward_v I I I I #
loop $-1 $-1 $494 $135 #
coedge $-1 $342 $342 $343 $495 reversed $214 $-1 #
coedge $-1 $343 $343 $342 $495 forward $216 $-1 #
coedge $-1 $344 $344 $217 $345 forward $339 $-1 #
edge $-1 $496 0 $496 6.2831853071796004 $344 $497 forward 7 unknown #
loop $-1 $-1 $351 $218 #
plane-surface $-1 -76.075319681386759 40.160176997469691 5.0926986532177096 -0.64278761758704617 0 0.76604443648966558 0.76604443648966558 0 0.64278761758704617 forward_v I I I I #
loop $-1 $-1 $498 $138 #
coedge $-1 $349 $349 $350 $499 reversed $219 $-1 #
coedge $-1 $350 $350 $349 $499 forward $221 $-1 #
coedge $-1 $351 $351 $222 $352 forward $346 $-1 #
edge $-1 $500 0 $500 6.2831853071796004 $351 $501 forward 7 unknown #
loop $-1 $-1 $358 $223 #
plane-surface $-1 -76.075319681386759 40.160176997469691 5.0926986532177096 -0.64278761758704617 0 0.76604443648966558 0.76604443648966558 0 0.64278761758704617 forward_v I I I I #
loop $-1 $-1 $502 $141 #
coedge $-1 $356 $356 $357 $503 reversed $224 $-1 #
coedge $-1 $357 $357 $356 $503 forward $226 $-1 #
coedge $-1 $358 $358 $227 $359 forward $353 $-1 #
edge $-1 $504 0 $504 6.2831853071796004 $358 $505 forward 7 unknown #
face $-1 $506 $507 $54 $-1 $508 reversed single #
loop $-1 $-1 $509 $228 #
plane-surface $-1 -76.075319681386759 0 0 1 0 0 0 0 -1 forward_v I I I I #
coedge $-1 $510 $371 $511 $512 forward $229 $-1 #
coedge $-1 $513 $231 $510 $514 forward $145 $-1 #
coedge $-1 $231 $513 $515 $516 forward $145 $-1 #
coedge $-1 $374 $373 $231 $367 reversed $375 $-1 #
edge $-1 $517 -46.660241394229018 $518 46.660241394229018 $366 $519 forward 7 unknown #
coedge $-1 $233 $232 $520 $521 forward $91 $-1 #
coedge $-1 $522 $523 $232 $370 reversed $507 $-1 #
edge $-1 $377 -76.075319681386759 $524 76.075319681386759 $369 $525 forward 7 unknown #
coedge $-1 $363 $526 $233 $372 reversed $229 $-1 #
edge $-1 $527 -76.075319681386759 $376 76.075319681386759 $371 $528 forward 7 unknown #
coedge $-1 $366 $234 $526 $529 forward $375 $-1 #
coedge $-1 $234 $366 $522 $530 reversed $375 $-1 #
loop $-1 $-1 $373 $506 #
vertex $-1 $235 $531 #
vertex $-1 $235 $532 #
straight-curve $-1 76.075319681386759 0 11.221128030839706 0 1 0 I I #
face $-1 $533 $534 $55 $-1 $535 reversed single #
loop $-1 $-1 $536 $236 #
plane-surface $-1 -76.075319681386759 0 0 1 0 0 0 0 -1 forward_v I I I I #
coedge $-1 $537 $388 $393 $538 reversed $237 $-1 #
coedge $-1 $539 $239 $540 $541 reversed $149 $-1 #
coedge $-1 $239 $539 $537 $542 forward $149 $-1 #
coedge $-1 $393 $392 $239 $386 forward $394 $-1 #
edge $-1 $543 -25.355301952929775 $544 -17.254576929668712 $385 $545 forward 7 unknown #
coedge $-1 $241 $240 $536 $546 reversed $94 $-1 #
coedge $-1 $382 $547 $240 $389 reversed $237 $-1 #
edge $-1 $395 -76.075319681386759 $548 76.075319681386759 $388 $549 forward 7 unknown #
coedge $-1 $550 $551 $241 $391 forward $534 $-1 #
edge $-1 $396 -76.075319681386759 $552 76.075319681386759 $390 $553 forward 7 unknown #
coedge $-1 $385 $242 $551 $554 forward $394 $-1 #
coedge $-1 $242 $385 $382 $538 forward $394 $-1 #
loop $-1 $-1 $242 $533 #
vertex $-1 $243 $555 #
vertex $-1 $554 $556 #
straight-curve $-1 76.075319681386759 -21.304939441299243 -0.23593935869072702 0 -1 0 I I #
face $-1 $-1 $410 $56 $-1 $557 reversed single #
loop $-1 $-1 $558 $244 #
plane-surface $-1 0 0 11.221128030839706 0 0 1 1 0 0 forward_v I I I I #
coedge $-1 $559 $560 $561 $562 reversed $245 $-1 #
coedge $-1 $563 $247 $249 $408 forward $153 $-1 #
coedge $-1 $247 $563 $559 $564 forward $153 $-1 #
coedge $-1 $561 $250 $247 $405 forward $410 $-1 #
edge $-1 $412 -22.529790383863638 $565 -9.5296615903449968 $404 $566 forward 7 unknown #
coedge $-1 $567 $568 $248 $407 forward $399 $-1 #
edge $-1 $569 40.110884166853154 $411 47.414461741620954 $406 $570 forward 7 unknown #
edge $-1 $412 -152.15063936277352 $569 -142.61649587595986 $249 $571 forward 7 unknown #
coedge $-1 $250 $561 $567 $572 reversed $410 $-1 #
loop $-1 $-1 $561 $398 #
vertex $-1 $572 $573 #
vertex $-1 $251 $574 #
straight-curve $-1 76.075319681386759 -38.559516370967955 109.72369821787946 0 0 -1 I I #
coedge $-1 $414 $414 $-1 $575 reversed $254 $-1 #
edge $-1 $576 0 $576 6.2831853071796004 $255 $577 forward 7 unknown #
vertex $-1 $258 $578 #
ellipse-curve $-1 72.423530894002837 -35.959490612264233 8.1569133420287052 0.64278761758704617 0 0.76604443648966558 0.38302221824483279 0 -0.32139380879352308 1 I I #
coedge $-1 $418 $418 $-1 $579 reversed $261 $-1 #
edge $-1 $580 0 $580 6.2831853071796004 $262 $581 forward 7 unknown #
vertex $-1 $265 $582 #
ellipse-curve $-1 72.423530894002837 -32.059451974208635 8.1569133420287052 0.64278761758704617 0 0.76604443648966558 0.38302221824483279 0 -0.32139380879352308 1 I I #
coedge $-1 $422 $422 $-1 $583 reversed $268 $-1 #
edge $-1 $584 0 $584 6.2831853071796004 $269 $585 forward 7 unknown #
vertex $-1 $272 $586 #
ellipse-curve $-1 72.423530894002837 -28.159413336153044 8.1569133420287052 0.64278761758704617 0 0.76604443648966558 0.38302221824483279 0 -0.32139380879352308 1 I I #
face $-1 $-1 $587 $60 $-1 $588 reversed single #
loop $-1 $-1 $433 $273 #
plane-surface $-1 0 0 11.221128030839706 0 0 1 1 0 0 forward_v I I I I #
coedge $-1 $589 $276 $278 $435 forward $172 $-1 #
coedge $-1 $276 $589 $590 $591 reversed $172 $-1 #
coedge $-1 $592 $279 $276 $432 forward $274 $-1 #
edge $-1 $438 13.580024101975525 $593 26.580152895494166 $431 $594 forward 7 unknown #
coedge $-1 $595 $596 $277 $434 forward $427 $-1 #
edge $-1 $597 40.110884166853154 $437 47.414461741620954 $433 $598 forward 7 unknown #
edge $-1 $438 -152.15063936277352 $597 -142.61649587595986 $278 $599 forward 7 unknown #
coedge $-1 $279 $592 $595 $600 reversed $274 $-1 #
vertex $-1 $600 $601 #
vertex $-1 $280 $602 #
straight-curve $-1 76.075319681386759 33.66011260071037 109.72369821787946 0 0 -1 I I #
coedge $-1 $440 $440 $-1 $603 reversed $283 $-1 #
edge $-1 $604 0 $604 6.2831853071796004 $284 $605 forward 7 unknown #
vertex $-1 $287 $606 #
ellipse-curve $-1 72.423530894002837 36.2601383594141 8.1569133420287052 0.64278761758704617 0 0.76604443648966558 0.38302221824483279 0 -0.32139380879352308 1 I I #
coedge $-1 $444 $444 $-1 $607 reversed $290 $-1 #
edge $-1 $608 0 $608 6.2831853071796004 $291 $609 forward 7 unknown #
vertex $-1 $294 $610 #
ellipse-curve $-1 72.423530894002837 40.160176997469691 8.1569133420287052 0.64278761758704617 0 0.76604443648966558 0.38302221824483279 0 -0.32139380879352308 1 I I #
coedge $-1 $448 $448 $-1 $611 reversed $297 $-1 #
edge $-1 $612 0 $612 6.2831853071796004 $298 $613 forward 7 unknown #
vertex $-1 $301 $614 #
ellipse-curve $-1 72.423530894002837 44.060215635525282 8.1569133420287052 0.64278761758704617 0 0.76604443648966558 0.38302221824483279 0 -0.32139380879352308 1 I I #
face $-1 $-1 $464 $64 $-1 $615 forward single #
loop $-1 $-1 $616 $302 #
plane-surface $-1 -76.075319681386759 0 0 1 0 0 0 0 -1 forward_v I I I I #
coedge $-1 $617 $618 $619 $620 reversed $303 $-1 #
coedge $-1 $621 $305 $307 $462 forward $191 $-1 #
coedge $-1 $305 $621 $617 $622 forward $191 $-1 #
coedge $-1 $619 $308 $305 $459 forward $464 $-1 #
edge $-1 $466 -22.529790383863638 $623 -9.5296615903449968 $458 $624 forward 7 unknown #
coedge $-1 $625 $626 $306 $461 forward $453 $-1 #
edge $-1 $627 -55.730726069490231 $465 -49.602296691868233 $460 $628 forward 7 unknown #
edge $-1 $466 -9.5341434868136439 $627 0 $307 $629 forward 7 unknown #
coedge $-1 $308 $619 $625 $630 forward $464 $-1 #
loop $-1 $-1 $619 $452 #
vertex $-1 $461 $631 #
vertex $-1 $309 $632 #
straight-curve $-1 -86.937933335864898 -38.559516370967955 11.221128030839708 1 0 0 I I #
coedge $-1 $468 $468 $-1 $633 reversed $312 $-1 #
edge $-1 $634 0 $634 6.2831853071796004 $313 $635 forward 7 unknown #
vertex $-1 $316 $636 #
ellipse-curve $-1 -72.42353089400288 -35.959490612264233 8.1569133420287052 -0.64278761758704617 0 0.76604443648966558 0.38302221824483279 0 0.32139380879352308 1 I I #
coedge $-1 $472 $472 $-1 $637 reversed $319 $-1 #
edge $-1 $638 0 $638 6.2831853071796004 $320 $639 forward 7 unknown #
vertex $-1 $323 $640 #
ellipse-curve $-1 -72.42353089400288 -32.059451974208635 8.1569133420287052 -0.64278761758704617 0 0.76604443648966558 0.38302221824483279 0 0.32139380879352308 1 I I #
coedge $-1 $476 $476 $-1 $641 reversed $326 $-1 #
edge $-1 $642 0 $642 6.2831853071796004 $327 $643 forward 7 unknown #
vertex $-1 $330 $644 #
ellipse-curve $-1 -72.42353089400288 -28.159413336153044 8.1569133420287052 -0.64278761758704617 0 0.76604443648966558 0.38302221824483279 0 0.32139380879352308 1 I I #
face $-1 $-1 $645 $68 $-1 $646 reversed single #
loop $-1 $-1 $647 $331 #
plane-surface $-1 0 46.660241394229018 0 0 -1 0 0 0 -1 forward_v I I I I #
coedge $-1 $648 $334 $336 $489 forward $210 $-1 #
coedge $-1 $334 $648 $647 $649 reversed $210 $-1 #
coedge $-1 $650 $337 $334 $486 forward $332 $-1 #
edge $-1 $492 13.580024101975525 $651 26.580152895494166 $485 $652 forward 7 unknown #
coedge $-1 $653 $654 $335 $488 forward $645 $-1 #
edge $-1 $655 -55.730726069490231 $491 -49.602296691868233 $487 $656 forward 7 unknown #
edge $-1 $492 -9.5341434868136439 $655 0 $336 $657 forward 7 unknown #
coedge $-1 $337 $650 $653 $658 forward $332 $-1 #
vertex $-1 $488 $659 #
vertex $-1 $338 $660 #
straight-curve $-1 -86.937933335864898 33.66011260071037 11.221128030839708 1 0 0 I I #
coedge $-1 $494 $494 $-1 $661 reversed $341 $-1 #
edge $-1 $662 0 $662 6.2831853071796004 $342 $663 forward 7 unknown #
vertex $-1 $345 $664 #
ellipse-curve $-1 -72.42353089400288 36.2601383594141 8.1569133420287052 -0.64278761758704617 0 0.76604443648966558 0.38302221824483279 0 0.32139380879352308 1 I I #
coedge $-1 $498 $498 $-1 $665 reversed $348 $-1 #
edge $-1 $666 0 $666 6.2831853071796004 $349 $667 forward 7 unknown #
vertex $-1 $352 $668 #
ellipse-curve $-1 -72.42353089400288 40.160176997469691 8.1569133420287052 -0.64278761758704617 0 0.76604443648966558 0.38302221824483279 0 0.32139380879352308 1 I I #
coedge $-1 $502 $502 $-1 $669 reversed $355 $-1 #
edge $-1 $670 0 $670 6.2831853071796004 $356 $671 forward 7 unknown #
vertex $-1 $359 $672 #
ellipse-curve $-1 -72.42353089400288 44.060215635525282 8.1569133420287052 -0.64278761758704617 0 0.76604443648966558 0.38302221824483279 0 0.32139380879352308 1 I I #
face $-1 $-1 $375 $54 $-1 $673 reversed single #
loop $-1 $-1 $522 $360 #
plane-surface $-1 0 46.660241394229018 0 0 -1 0 0 0 -1 forward_v I I I I #
coedge $-1 $674 $520 $523 $675 forward $361 $-1 #
coedge $-1 $526 $363 $364 $514 reversed $229 $-1 #
coedge $-1 $520 $674 $363 $512 reversed $361 $-1 #
edge $-1 $527 -11.221128030839706 $676 11.221128030839706 $511 $677 forward 7 unknown #
coedge $-1 $365 $364 $674 $678 forward $145 $-1 #
edge $-1 $518 -76.075319681386759 $676 76.075319681386759 $510 $679 forward 7 unknown #
coedge $-1 $523 $522 $365 $516 reversed $507 $-1 #
edge $-1 $680 -76.075319681386759 $517 76.075319681386759 $515 $681 forward 7 unknown #
vertex $-1 $367 $682 #
vertex $-1 $529 $683 #
straight-curve $-1 76.075319681386759 0 -11.221128030839706 0 -1 0 I I #
coedge $-1 $509 $511 $368 $521 reversed $361 $-1 #
edge $-1 $524 -46.660241394229018 $527 46.660241394229018 $520 $684 forward 7 unknown #
coedge $-1 $515 $369 $374 $530 forward $507 $-1 #
coedge $-1 $369 $515 $509 $675 reversed $507 $-1 #
vertex $-1 $370 $685 #
straight-curve $-1 0 46.660241394229018 11.221128030839706 -1 0 0 I I #
coedge $-1 $371 $510 $373 $529 reversed $229 $-1 #
vertex $-1 $521 $686 #
straight-curve $-1 0 -46.660241394229018 11.221128030839706 1 0 0 I I #
edge $-1 $376 -11.221128030839706 $518 11.221128030839706 $373 $687 forward 7 unknown #
edge $-1 $377 -11.221128030839706 $517 11.221128030839706 $374 $688 forward 7 unknown #
point $-1 76.075319681386759 -46.660241394229018 11.221128030839706 #
point $-1 76.075319681386759 46.660241394229018 11.221128030839706 #
face $-1 $-1 $394 $55 $-1 $689 reversed single #
loop $-1 $-1 $390 $379 #
plane-surface $-1 0 -46.660241394229018 0 0 1 0 0 0 1 forward_v I I I I #
coedge $-1 $690 $691 $387 $546 forward $380 $-1 #
coedge $-1 $547 $382 $384 $542 reversed $237 $-1 #
edge $-1 $544 -5.1099453400636179 $395 1.5460222075607213 $393 $692 forward 7 unknown #
coedge $-1 $384 $383 $693 $694 reversed $149 $-1 #
coedge $-1 $551 $550 $383 $541 forward $534 $-1 #
edge $-1 $695 -76.075319681386759 $543 76.075319681386759 $540 $696 forward 7 unknown #
edge $-1 $697 -76.075319681386759 $544 76.075319681386759 $537 $698 forward 7 unknown #
vertex $-1 $541 $699 #
vertex $-1 $386 $700 #
straight-curve $-1 76.075319681386759 -21.304939441299243 -6.8919069063150662 0 1 0 I I #
edge $-1 $552 -25.355301952929775 $548 -17.254576929668712 $536 $701 forward 7 unknown #
coedge $-1 $388 $537 $690 $702 reversed $237 $-1 #
vertex $-1 $546 $703 #
straight-curve $-1 0 -38.559516370967955 -0.23593935869072702 -1 0 0 I I #
coedge $-1 $540 $390 $691 $704 forward $534 $-1 #
coedge $-1 $390 $540 $392 $554 reversed $534 $-1 #
vertex $-1 $704 $705 #
straight-curve $-1 0 -46.660241394229018 -0.23593935869072702 -1 0 0 I I #
edge $-1 $396 0.23593935869072702 $543 6.8919069063150662 $392 $706 forward 7 unknown #
point $-1 76.075319681386759 -38.559516370967955 -0.23593935869072702 #
point $-1 76.075319681386759 -46.660241394229018 -0.23593935869072702 #
plane-surface $-1 76.075319681386759 0 0 -1 0 0 0 0 1 forward_v I I I I #
coedge $-1 $568 $567 $560 $707 forward $399 $-1 #
coedge $-1 $560 $401 $403 $564 reversed $245 $-1 #
coedge $-1 $401 $559 $558 $707 reversed $245 $-1 #
coedge $-1 $409 $404 $401 $562 forward $410 $-1 #
edge $-1 $565 -104.63099956466176 $708 -98.502570187039751 $561 $709 forward 7 unknown #
coedge $-1 $403 $402 $568 $710 reversed $153 $-1 #
edge $-1 $711 142.61649587595986 $565 152.15063936277352 $559 $712 forward 7 unknown #
vertex $-1 $405 $713 #
straight-curve $-1 76.075319681386759 -16.029725987104317 5.0926986532176954 0 1 0 I I #
coedge $-1 $558 $406 $409 $572 forward $399 $-1 #
coedge $-1 $406 $558 $563 $710 forward $399 $-1 #
vertex $-1 $407 $714 #
straight-curve $-1 28.660857939765805 -38.559516370967955 11.221128030839708 1 0 0 I I #
straight-curve $-1 -40.478831110811427 -38.559516370967955 102.89324564356075 -0.76604443648966558 0 0.64278761758704617 I I #
edge $-1 $411 -38.559516370967955 $708 -25.559387577449314 $409 $715 forward 7 unknown #
point $-1 76.075319681386759 -38.559516370967955 11.221128030839706 #
point $-1 76.075319681386759 -38.559516370967955 5.0926986532176954 #
edge $-1 $716 1 $716 0 $414 $-1 forward 7 unknown #
vertex $-1 $415 $717 #
ellipse-curve $-1 71.780743276415791 -35.959490612264233 7.3908689055390386 0.64278761758704617 0 0.76604443648966558 0.38302221824483279 0 -0.32139380879352308 1 I I #
point $-1 72.80655311224767 -35.959490612264233 7.835519533235181 #
edge $-1 $718 1 $718 0 $418 $-1 forward 7 unknown #
vertex $-1 $419 $719 #
ellipse-curve $-1 71.780743276415791 -32.059451974208635 7.3908689055390386 0.64278761758704617 0 0.76604443648966558 0.38302221824483279 0 -0.32139380879352308 1 I I #
point $-1 72.80655311224767 -32.059451974208635 7.835519533235181 #
edge $-1 $720 1 $720 0 $422 $-1 forward 7 unknown #
vertex $-1 $423 $721 #
ellipse-curve $-1 71.780743276415791 -28.159413336153044 7.3908689055390386 0.64278761758704617 0 0.76604443648966558 0.38302221824483279 0 -0.32139380879352308 1 I I #
point $-1 72.80655311224767 -28.159413336153044 7.835519533235181 #
loop $-1 $-1 $590 $426 #
plane-surface $-1 0 46.660241394229018 0 0 -1 0 0 0 -1 forward_v I I I I #
coedge $-1 $430 $429 $596 $722 reversed $172 $-1 #
coedge $-1 $723 $724 $430 $591 forward $587 $-1 #
edge $-1 $593 -103.57709556224103 $725 -94.042952075427337 $590 $726 forward 7 unknown #
coedge $-1 $436 $431 $724 $727 reversed $274 $-1 #
vertex $-1 $591 $728 #
straight-curve $-1 76.075319681386759 20.080088498734845 5.0926986532176954 0 1 0 I I #
coedge $-1 $729 $433 $436 $600 forward $427 $-1 #
coedge $-1 $433 $729 $589 $722 forward $427 $-1 #
vertex $-1 $434 $730 #
straight-curve $-1 28.660857939765805 33.66011260071037 11.221128030839708 1 0 0 I I #
straight-curve $-1 -40.478831110811427 33.66011260071037 102.89324564356075 -0.76604443648966558 0 0.64278761758704617 I I #
edge $-1 $437 33.66011260071037 $731 46.660241394229018 $436 $732 forward 7 unknown #
point $-1 76.075319681386759 33.66011260071037 11.221128030839706 #
point $-1 76.075319681386759 33.66011260071037 5.0926986532176954 #
edge $-1 $733 1 $733 0 $440 $-1 forward 7 unknown #
vertex $-1 $441 $734 #
ellipse-curve $-1 71.780743276415791 36.2601383594141 7.3908689055390386 0.64278761758704617 0 0.76604443648966558 0.38302221824483279 0 -0.32139380879352308 1 I I #
point $-1 72.80655311224767 36.2601383594141 7.835519533235181 #
edge $-1 $735 1 $735 0 $444 $-1 forward 7 unknown #
vertex $-1 $445 $736 #
ellipse-curve $-1 71.780743276415791 40.160176997469691 7.3908689055390386 0.64278761758704617 0 0.76604443648966558 0.38302221824483279 0 -0.32139380879352308 1 I I #
point $-1 72.80655311224767 40.160176997469691 7.835519533235181 #
edge $-1 $737 1 $737 0 $448 $-1 forward 7 unknown #
vertex $-1 $449 $738 #
ellipse-curve $-1 71.780743276415791 44.060215635525282 7.3908689055390386 0.64278761758704617 0 0.76604443648966558 0.38302221824483279 0 -0.32139380879352308 1 I I #
point $-1 72.80655311224767 44.060215635525282 7.835519533235181 #
plane-surface $-1 0 0 11.221128030839706 0 0 1 1 0 0 forward_v I I I I #
coedge $-1 $626 $625 $618 $739 forward $453 $-1 #
coedge $-1 $618 $455 $457 $622 reversed $303 $-1 #
coedge $-1 $455 $617 $616 $739 reversed $303 $-1 #
coedge $-1 $463 $458 $455 $620 forward $464 $-1 #
edge $-1 $623 -18.166191229245911 $740 -10.862613654478139 $619 $741 forward 7 unknown #
coedge $-1 $457 $456 $626 $742 reversed $191 $-1 #
edge $-1 $743 0 $623 9.5341434868136439 $617 $744 forward 7 unknown #
vertex $-1 $459 $745 #
straight-curve $-1 -68.771742106618987 -16.029725987104317 11.221128030839706 0 1 0 I I #
coedge $-1 $616 $460 $463 $630 reversed $453 $-1 #
coedge $-1 $460 $616 $621 $742 forward $453 $-1 #
vertex $-1 $461 $746 #
straight-curve $-1 -76.075319681386759 -38.559516370967955 60.823424722707941 0 0 1 I I #
straight-curve $-1 -76.075319681386759 -38.559516370967955 5.0926986532177096 -0.76604443648966558 0 -0.64278761758704617 I I #
edge $-1 $740 25.559387577449314 $465 38.559516370967955 $625 $747 forward 7 unknown #
point $-1 -76.075319681386759 -38.559516370967955 11.221128030839706 #
point $-1 -68.771742106618987 -38.559516370967955 11.221128030839706 #
edge $-1 $748 1 $748 0 $468 $-1 forward 7 unknown #
vertex $-1 $469 $749 #
ellipse-curve $-1 -71.780743276415819 -35.959490612264233 7.3908689055390351 -0.64278761758704617 0 0.76604443648966558 0.38302221824483279 0 0.32139380879352308 1 I I #
point $-1 -72.040508675758034 -35.959490612264233 8.478307150822225 #
edge $-1 $750 1 $750 0 $472 $-1 forward 7 unknown #
vertex $-1 $473 $751 #
ellipse-curve $-1 -71.780743276415819 -32.059451974208635 7.3908689055390351 -0.64278761758704617 0 0.76604443648966558 0.38302221824483279 0 0.32139380879352308 1 I I #
point $-1 -72.040508675758034 -32.059451974208635 8.478307150822225 #
edge $-1 $752 1 $752 0 $476 $-1 forward 7 unknown #
vertex $-1 $477 $753 #
ellipse-curve $-1 -71.780743276415819 -28.159413336153044 7.3908689055390351 -0.64278761758704617 0 0.76604443648966558 0.38302221824483279 0 0.32139380879352308 1 I I #
point $-1 -72.040508675758034 -28.159413336153044 8.478307150822225 #
loop $-1 $-1 $487 $480 #
plane-surface $-1 -76.075319681386759 0 0 1 0 0 0 0 -1 forward_v I I I I #
coedge $-1 $754 $755 $484 $649 forward $481 $-1 #
coedge $-1 $484 $483 $654 $756 reversed $210 $-1 #
edge $-1 $651 17.96763239404061 $757 27.501775880854254 $647 $758 forward 7 unknown #
coedge $-1 $490 $485 $755 $759 forward $332 $-1 #
vertex $-1 $759 $760 #
straight-curve $-1 -68.771742106618987 20.080088498734845 11.221128030839706 0 1 0 I I #
coedge $-1 $761 $487 $490 $658 reversed $645 $-1 #
coedge $-1 $487 $761 $648 $756 forward $645 $-1 #
vertex $-1 $488 $762 #
straight-curve $-1 -76.075319681386759 33.66011260071037 60.823424722707941 0 0 1 I I #
straight-curve $-1 -76.075319681386759 33.66011260071037 5.0926986532177096 -0.76604443648966558 0 -0.64278761758704617 I I #
edge $-1 $763 -46.660241394229018 $491 -33.66011260071037 $653 $764 forward 7 unknown #
point $-1 -76.075319681386759 33.66011260071037 11.221128030839706 #
point $-1 -68.771742106618987 33.66011260071037 11.221128030839706 #
edge $-1 $765 1 $765 0 $494 $-1 forward 7 unknown #
vertex $-1 $495 $766 #
ellipse-curve $-1 -71.780743276415819 36.2601383594141 7.3908689055390351 -0.64278761758704617 0 0.76604443648966558 0.38302221824483279 0 0.32139380879352308 1 I I #
point $-1 -72.040508675758034 36.2601383594141 8.478307150822225 #
edge $-1 $767 1 $767 0 $498 $-1 forward 7 unknown #
vertex $-1 $499 $768 #
ellipse-curve $-1 -71.780743276415819 40.160176997469691 7.3908689055390351 -0.64278761758704617 0 0.76604443648966558 0.38302221824483279 0 0.32139380879352308 1 I I #
point $-1 -72.040508675758034 40.160176997469691 8.478307150822225 #
edge $-1 $769 1 $769 0 $502 $-1 forward 7 unknown #
vertex $-1 $503 $770 #
ellipse-curve $-1 -71.780743276415819 44.060215635525282 7.3908689055390351 -0.64278761758704617 0 0.76604443648966558 0.38302221824483279 0 0.32139380879352308 1 I I #
point $-1 -72.040508675758034 44.060215635525282 8.478307150822225 #
plane-surface $-1 76.075319681386759 0 0 -1 0 0 0 0 1 forward_v I I I I #
coedge $-1 $511 $509 $513 $678 reversed $361 $-1 #
edge $-1 $524 -11.221128030839706 $680 11.221128030839706 $523 $771 forward 7 unknown #
vertex $-1 $678 $772 #
straight-curve $-1 -76.075319681386759 -46.660241394229018 0 0 0 -1 I I #
edge $-1 $676 -46.660241394229018 $680 46.660241394229018 $674 $773 forward 7 unknown #
straight-curve $-1 0 -46.660241394229018 -11.221128030839706 -1 0 0 I I #
vertex $-1 $516 $774 #
straight-curve $-1 0 46.660241394229018 -11.221128030839706 1 0 0 I I #
point $-1 76.075319681386759 46.660241394229018 -11.221128030839706 #
point $-1 76.075319681386759 -46.660241394229018 -11.221128030839706 #
straight-curve $-1 -76.075319681386759 0 11.221128030839706 0 -1 0 I I #
point $-1 -76.075319681386759 46.660241394229018 11.221128030839706 #
point $-1 -76.075319681386759 -46.660241394229018 11.221128030839706 #
straight-curve $-1 76.075319681386759 -46.660241394229018 0 0 0 -1 I I #
straight-curve $-1 76.075319681386759 46.660241394229018 0 0 0 -1 I I #
plane-surface $-1 76.075319681386759 0 0 -1 0 0 0 0 1 forward_v I I I I #
coedge $-1 $693 $536 $547 $702 forward $380 $-1 #
coedge $-1 $536 $693 $550 $704 reversed $380 $-1 #
straight-curve $-1 76.075319681386759 -38.559516370967955 -1.7819615662514483 0 0 1 I I #
coedge $-1 $691 $690 $539 $694 forward $380 $-1 #
edge $-1 $697 17.254576929668712 $695 25.355301952929775 $693 $775 forward 7 unknown #
vertex $-1 $541 $776 #
straight-curve $-1 0 -46.660241394229018 -6.8919069063150662 1 0 0 I I #
vertex $-1 $694 $777 #
straight-curve $-1 0 -38.559516370967955 -6.8919069063150662 1 0 0 I I #
point $-1 76.075319681386759 -46.660241394229018 -6.8919069063150662 #
point $-1 76.075319681386759 -38.559516370967955 -6.8919069063150662 #
straight-curve $-1 -76.075319681386759 -21.304939441299243 -0.23593935869072702 0 1 0 I I #
edge $-1 $548 -1.5460222075607213 $697 5.1099453400636179 $690 $778 forward 7 unknown #
point $-1 -76.075319681386759 -38.559516370967955 -0.23593935869072702 #
edge $-1 $552 0.23593935869072702 $695 6.8919069063150662 $691 $779 forward 7 unknown #
point $-1 -76.075319681386759 -46.660241394229018 -0.23593935869072702 #
straight-curve $-1 76.075319681386759 -46.660241394229018 0 0 0 -1 I I #
edge $-1 $708 -47.414461741620954 $711 -40.110884166853154 $558 $780 forward 7 unknown #
vertex $-1 $707 $781 #
straight-curve $-1 76.075319681386759 -25.559387577449314 109.72369821787946 0 0 1 I I #
edge $-1 $711 9.5296615903449968 $569 22.529790383863638 $568 $782 forward 7 unknown #
vertex $-1 $710 $783 #
straight-curve $-1 -40.478831110811427 -25.559387577449314 102.89324564356075 0.76604443648966558 0 -0.64278761758704617 I I #
point $-1 76.075319681386759 -25.559387577449314 5.0926986532176954 #
point $-1 68.771742106618959 -38.559516370967955 11.221128030839722 #
straight-curve $-1 76.075319681386759 0 11.221128030839706 0 1 0 I I #
vertex $-1 $575 $784 #
point $-1 72.163765494660623 -35.959490612264233 7.0694750967455153 #
vertex $-1 $579 $785 #
point $-1 72.163765494660623 -32.059451974208635 7.0694750967455153 #
vertex $-1 $583 $786 #
point $-1 72.163765494660623 -28.159413336153044 7.0694750967455153 #
edge $-1 $725 -26.580152895494166 $597 -13.580024101975525 $596 $787 forward 7 unknown #
coedge $-1 $724 $590 $729 $788 reversed $587 $-1 #
coedge $-1 $590 $723 $592 $727 forward $587 $-1 #
vertex $-1 $591 $789 #
straight-curve $-1 -3.269338121826415 46.660241394229018 71.670773146256423 -0.76604443648966558 0 0.64278761758704617 I I #
edge $-1 $731 -11.221128030839706 $593 -5.0926986532176954 $592 $790 forward 7 unknown #
point $-1 76.075319681386759 46.660241394229011 5.0926986532176954 #
coedge $-1 $596 $595 $723 $788 forward $427 $-1 #
point $-1 68.771742106618959 33.66011260071037 11.221128030839722 #
vertex $-1 $600 $791 #
straight-curve $-1 76.075319681386759 0 11.221128030839706 0 1 0 I I #
vertex $-1 $603 $792 #
point $-1 72.163765494660623 36.2601383594141 7.0694750967455153 #
vertex $-1 $607 $793 #
point $-1 72.163765494660623 40.160176997469691 7.0694750967455153 #
vertex $-1 $611 $794 #
point $-1 72.163765494660623 44.060215635525282 7.0694750967455153 #
edge $-1 $740 49.602296691868233 $743 55.730726069490231 $616 $795 forward 7 unknown #
vertex $-1 $630 $796 #
straight-curve $-1 -86.937933335864898 -25.559387577449314 11.221128030839708 -1 0 0 I I #
edge $-1 $743 9.5296615903449968 $627 22.529790383863638 $626 $797 forward 7 unknown #
vertex $-1 $742 $798 #
straight-curve $-1 -76.075319681386759 -25.559387577449314 5.0926986532177096 0.76604443648966558 0 0.64278761758704617 I I #
point $-1 -68.771742106618987 -25.559387577449314 11.221128030839706 #
point $-1 -76.075319681386759 -38.559516370967955 5.0926986532177096 #
straight-curve $-1 -76.075319681386759 0 11.221128030839706 0 -1 0 I I #
vertex $-1 $633 $799 #
point $-1 -71.397721058170987 -35.959490612264233 7.7122627143325584 #
vertex $-1 $637 $800 #
point $-1 -71.397721058170987 -32.059451974208635 7.7122627143325584 #
vertex $-1 $641 $801 #
point $-1 -71.397721058170987 -28.159413336153044 7.7122627143325584 #
coedge $-1 $755 $647 $761 $802 reversed $481 $-1 #
coedge $-1 $647 $754 $650 $759 reversed $481 $-1 #
edge $-1 $757 -26.580152895494166 $655 -13.580024101975525 $654 $803 forward 7 unknown #
vertex $-1 $649 $804 #
straight-curve $-1 -55.007737274272685 46.660241394229018 22.770499651084904 -0.76604443648966558 0 -0.64278761758704617 I I #
edge $-1 $651 68.771742106618987 $763 76.075319681386759 $755 $805 forward 7 unknown #
point $-1 -68.771742106618987 46.660241394229011 11.221128030839706 #
coedge $-1 $654 $653 $754 $802 forward $645 $-1 #
point $-1 -76.075319681386759 33.66011260071037 5.0926986532177096 #
vertex $-1 $759 $806 #
straight-curve $-1 -76.075319681386759 0 11.221128030839706 0 -1 0 I I #
vertex $-1 $661 $807 #
point $-1 -71.397721058170987 36.2601383594141 7.7122627143325584 #
vertex $-1 $665 $808 #
point $-1 -71.397721058170987 40.160176997469691 7.7122627143325584 #
vertex $-1 $669 $809 #
point $-1 -71.397721058170987 44.060215635525282 7.7122627143325584 #
straight-curve $-1 -76.075319681386759 46.660241394229018 0 0 0 -1 I I #
point $-1 -76.075319681386759 -46.660241394229018 -11.221128030839706 #
straight-curve $-1 -76.075319681386759 0 -11.221128030839706 0 1 0 I I #
point $-1 -76.075319681386759 46.660241394229018 -11.221128030839706 #
straight-curve $-1 -76.075319681386759 -21.304939441299243 -6.8919069063150662 0 -1 0 I I #
point $-1 -76.075319681386759 -46.660241394229018 -6.8919069063150662 #
point $-1 -76.075319681386759 -38.559516370967955 -6.8919069063150662 #
straight-curve $-1 -76.075319681386759 -38.559516370967955 -1.7819615662514483 0 0 -1 I I #
straight-curve $-1 -76.075319681386759 -46.660241394229018 0 0 0 -1 I I #
straight-curve $-1 28.660857939765805 -25.559387577449314 11.221128030839708 -1 0 0 I I #
point $-1 76.075319681386759 -25.559387577449314 11.221128030839706 #
straight-curve $-1 68.771742106618973 -16.029725987104317 11.221128030839715 0 -1 0 I I #
point $-1 68.771742106618959 -25.559387577449314 11.221128030839722 #
point $-1 71.459349467622275 -35.959490612264233 7.0078466872942062 #
point $-1 71.459349467622275 -32.059451974208635 7.0078466872942062 #
point $-1 71.459349467622275 -28.159413336153044 7.0078466872942062 #
straight-curve $-1 68.771742106618973 20.080088498734845 11.221128030839715 0 -1 0 I I #
edge $-1 $731 -76.075319681386759 $725 -68.771742106618959 $723 $810 forward 7 unknown #
point $-1 68.771742106618959 46.660241394229011 11.221128030839722 #
straight-curve $-1 76.075319681386759 46.660241394229018 0 0 0 -1 I I #
point $-1 76.075319681386759 46.660241394229018 11.221128030839706 #
point $-1 71.459349467622275 36.2601383594141 7.0078466872942062 #
point $-1 71.459349467622275 40.160176997469691 7.0078466872942062 #
point $-1 71.459349467622275 44.060215635525282 7.0078466872942062 #
straight-curve $-1 -76.075319681386759 -25.559387577449314 60.823424722707941 0 0 -1 I I #
point $-1 -76.075319681386759 -25.559387577449314 11.221128030839706 #
straight-curve $-1 -76.075319681386759 -16.029725987104317 5.0926986532177034 0 -1 0 I I #
point $-1 -76.075319681386759 -25.559387577449314 5.0926986532177096 #
point $-1 -71.459349467622303 -35.959490612264233 7.0078466872942027 #
point $-1 -71.459349467622303 -32.059451974208635 7.0078466872942027 #
point $-1 -71.459349467622303 -28.159413336153044 7.0078466872942027 #
edge $-1 $763 -11.221128030839706 $757 -5.0926986532177096 $754 $811 forward 7 unknown #
straight-curve $-1 -76.075319681386759 20.080088498734845 5.0926986532177034 0 -1 0 I I #
point $-1 -76.075319681386759 46.660241394229011 5.0926986532177096 #
straight-curve $-1 0 46.660241394229018 11.221128030839706 -1 0 0 I I #
point $-1 -76.075319681386759 46.660241394229018 11.221128030839706 #
point $-1 -71.459349467622303 36.2601383594141 7.0078466872942027 #
point $-1 -71.459349467622303 40.160176997469691 7.0078466872942027 #
point $-1 -71.459349467622303 44.060215635525282 7.0078466872942027 #
straight-curve $-1 0 46.660241394229018 11.221128030839706 -1 0 0 I I #
straight-curve $-1 -76.075319681386759 46.660241394229018 0 0 0 -1 I I #
End-of-ACIS-data 