500 0 6 0           
7 Unknown 11 ACIS 5.0 NT 24 Fri Mar 26 14:59:32 1999 
-1 9.9999999999999995e-007 1e-010 
body $-1 $6 $-1 $7 #
body $-1 $8 $-1 $9 #
body $-1 $10 $-1 $11 #
body $-1 $12 $-1 $13 #
body $-1 $14 $-1 $15 #
body $-1 $16 $-1 $17 #
lump $-1 $-1 $18 $0 #
transform $-1 1 0 0 0 1 0 0 0 1 48.750267036957915 33.274917520321623 9.8693484574343007 1 rotate no_reflect no_shear #
lump $-1 $-1 $19 $1 #
transform $-1 1 0 0 0 1 0 0 0 1 48.750267036957915 33.274917520321623 9.8693484574343007 1 rotate no_reflect no_shear #
lump $-1 $-1 $20 $2 #
transform $-1 1 0 0 0 1 0 0 0 1 48.750267036957915 33.274917520321623 9.8693484574343007 1 rotate no_reflect no_shear #
lump $-1 $-1 $21 $3 #
transform $-1 1 0 0 0 1 0 0 0 1 48.750267036957915 33.274917520321623 9.8693484574343007 1 rotate no_reflect no_shear #
lump $-1 $-1 $22 $4 #
transform $-1 1 0 0 0 1 0 0 0 1 48.750267036957915 33.274917520321623 9.8693484574343007 1 rotate no_reflect no_shear #
lump $-1 $-1 $23 $5 #
transform $-1 1 0 0 0 1 0 0 0 1 48.750267036957915 33.274917520321623 9.8693484574343007 1 rotate no_reflect no_shear #
shell $-1 $-1 $-1 $24 $-1 $6 #
shell $-1 $-1 $-1 $25 $-1 $8 #
shell $-1 $-1 $-1 $26 $-1 $10 #
shell $-1 $-1 $-1 $27 $-1 $12 #
shell $-1 $-1 $-1 $28 $-1 $14 #
shell $-1 $-1 $-1 $29 $-1 $16 #
face $-1 $30 $31 $18 $-1 $32 forward single #
face $-1 $33 $34 $19 $-1 $35 forward single #
face $-1 $36 $37 $20 $-1 $38 reversed single #
face $-1 $39 $40 $21 $-1 $41 forward single #
face $-1 $42 $43 $22 $-1 $44 forward single #
face $-1 $45 $46 $23 $-1 $47 forward single #
face $-1 $48 $49 $18 $-1 $50 reversed single #
loop $-1 $-1 $51 $24 #
plane-surface $-1 0 0 9.8693484574343007 0 0 1 1 0 0 forward_v I I I I #
face $-1 $52 $53 $19 $-1 $54 reversed single #
loop $-1 $-1 $55 $25 #
plane-surface $-1 0 -33.274917520321623 0 0 1 0 0 0 1 forward_v I I I I #
face $-1 $56 $57 $20 $-1 $58 reversed single #
loop $-1 $-1 $59 $26 #
plane-surface $-1 -19.850629075408413 78.800109470820502 112.41009188657482 -1 0 0 0 0.83867057594974714 0.54463902268945019 forward_v I I I I #
face $-1 $60 $61 $21 $-1 $62 forward single #
loop $-1 $63 $64 $27 #
cone-surface $-1 -42.970339444648012 30.719981521942621 6.3668490913594349 0 -0.83867057594974714 -0.54463902268945019 1 0 0 1 I I 0 1 1 forward I I I I #
face $-1 $65 $66 $22 $-1 $67 forward single #
loop $-1 $68 $69 $28 #
cone-surface $-1 -34.300448056183164 30.719981521942621 6.3668490913594349 0 -0.83867057594974714 -0.54463902268945019 1 0 0 1 I I 0 1 1 forward I I I I #
face $-1 $70 $71 $23 $-1 $72 forward single #
loop $-1 $73 $74 $29 #
cone-surface $-1 -25.630556667718309 30.719981521942621 6.3668490913594349 0 -0.83867057594974714 -0.54463902268945019 1 0 0 1 I I 0 1 1 forward I I I I #
face $-1 $75 $76 $18 $-1 $77 reversed single #
loop $-1 $-1 $78 $30 #
plane-surface $-1 0 0 -9.8693484574343007 0 0 1 1 0 0 forward_v I I I I #
coedge $-1 $79 $80 $81 $82 forward $31 $-1 #
face $-1 $83 $84 $19 $-1 $85 reversed single #
loop $-1 $-1 $86 $33 #
plane-surface $-1 0 0 -9.8693484574343007 0 0 1 1 0 0 forward_v I I I I #
coedge $-1 $87 $88 $89 $90 forward $34 $-1 #
face $-1 $91 $92 $20 $-1 $93 forward single #
loop $-1 $-1 $94 $36 #
plane-surface $-1 -34.300448056183164 -2.9707195963584354 59.307496296857863 0 0.83867057594974714 0.54463902268945019 1 0 0 forward_v I I I I #
coedge $-1 $95 $96 $97 $98 reversed $37 $-1 #
face $-1 $-1 $99 $21 $-1 $100 forward single #
loop $-1 $101 $102 $39 #
cone-surface $-1 -42.970339444648012 29.815775010151349 5.7796505356765362 0 -0.83867057594974714 -0.54463902268945019 0.5 0 0 1 I I -0.70710678118654746 0.70710678118654746 0.5 forward I I I I #
loop $-1 $-1 $103 $27 #
coedge $-1 $64 $64 $104 $105 reversed $40 $-1 #
face $-1 $-1 $106 $22 $-1 $107 forward single #
loop $-1 $108 $109 $42 #
cone-surface $-1 -34.300448056183164 29.815775010151349 5.7796505356765362 0 -0.83867057594974714 -0.54463902268945019 0.5 0 0 1 I I -0.70710678118654746 0.70710678118654746 0.5 forward I I I I #
loop $-1 $-1 $110 $28 #
coedge $-1 $69 $69 $111 $112 reversed $43 $-1 #
face $-1 $-1 $113 $23 $-1 $114 forward single #
loop $-1 $115 $116 $45 #
cone-surface $-1 -25.630556667718309 29.815775010151349 5.7796505356765362 0 -0.83867057594974714 -0.54463902268945019 0.5 0 0 1 I I -0.70710678118654746 0.70710678118654746 0.5 forward I I I I #
loop $-1 $-1 $117 $29 #
coedge $-1 $74 $74 $118 $119 reversed $46 $-1 #
face $-1 $120 $121 $18 $-1 $122 reversed single #
loop $-1 $-1 $123 $48 #
plane-surface $-1 0 -33.274917520321623 0 0 1 0 0 0 1 forward_v I I I I #
coedge $-1 $124 $125 $126 $127 forward $49 $-1 #
coedge $-1 $128 $51 $129 $130 forward $31 $-1 #
coedge $-1 $51 $128 $131 $132 forward $31 $-1 #
coedge $-1 $133 $134 $51 $82 reversed $135 $-1 #
edge $-1 $136 -33.274917520321623 $137 33.274917520321623 $81 $138 forward 7 unknown #
face $-1 $139 $140 $19 $-1 $141 forward single #
loop $-1 $-1 $142 $52 #
plane-surface $-1 48.750267036957915 0 0 -1 0 0 0 0 1 forward_v I I I I #
coedge $-1 $143 $144 $145 $146 forward $53 $-1 #
coedge $-1 $145 $55 $142 $147 reversed $34 $-1 #
coedge $-1 $55 $145 $148 $149 reversed $34 $-1 #
coedge $-1 $150 $151 $55 $90 reversed $140 $-1 #
edge $-1 $152 -48.750267036957915 $153 48.750267036957915 $89 $154 forward 7 unknown #
face $-1 $155 $156 $20 $-1 $157 reversed single #
loop $-1 $-1 $158 $56 #
plane-surface $-1 0 0 9.8693484574343007 0 0 1 1 0 0 forward_v I I I I #
coedge $-1 $159 $160 $161 $162 reversed $57 $-1 #
coedge $-1 $96 $59 $163 $164 reversed $37 $-1 #
coedge $-1 $59 $95 $159 $165 reversed $37 $-1 #
coedge $-1 $161 $166 $59 $98 forward $156 $-1 #
edge $-1 $167 46.33569748585311 $168 52.710938129326472 $97 $169 forward 7 unknown #
loop $-1 $-1 $104 $60 #
plane-surface $-1 -34.300448056183164 -2.9707195963584354 59.307496296857863 0 0.83867057594974714 0.54463902268945019 1 0 0 forward_v I I I I #
loop $-1 $-1 $170 $39 #
coedge $-1 $102 $102 $103 $171 reversed $61 $-1 #
coedge $-1 $103 $103 $102 $171 forward $63 $-1 #
coedge $-1 $104 $104 $64 $105 forward $99 $-1 #
edge $-1 $172 5.9944162894154966e-016 $172 6.2831853071796013 $104 $173 forward 7 unknown #
loop $-1 $-1 $111 $65 #
plane-surface $-1 -34.300448056183164 -2.9707195963584354 59.307496296857863 0 0.83867057594974714 0.54463902268945019 1 0 0 forward_v I I I I #
loop $-1 $-1 $174 $42 #
coedge $-1 $109 $109 $110 $175 reversed $66 $-1 #
coedge $-1 $110 $110 $109 $175 forward $68 $-1 #
coedge $-1 $111 $111 $69 $112 forward $106 $-1 #
edge $-1 $176 5.9944162894154966e-016 $176 6.2831853071796013 $111 $177 forward 7 unknown #
loop $-1 $-1 $118 $70 #
plane-surface $-1 -34.300448056183164 -2.9707195963584354 59.307496296857863 0 0.83867057594974714 0.54463902268945019 1 0 0 forward_v I I I I #
loop $-1 $-1 $178 $45 #
coedge $-1 $116 $116 $117 $179 reversed $71 $-1 #
coedge $-1 $117 $117 $116 $179 forward $73 $-1 #
coedge $-1 $118 $118 $74 $119 forward $113 $-1 #
edge $-1 $180 5.9944162894154966e-016 $180 6.2831853071796013 $118 $181 forward 7 unknown #
face $-1 $182 $183 $18 $-1 $184 reversed single #
loop $-1 $-1 $185 $75 #
plane-surface $-1 -48.750267036957915 0 0 1 0 0 0 0 -1 forward_v I I I I #
coedge $-1 $186 $131 $187 $188 forward $76 $-1 #
coedge $-1 $189 $78 $186 $190 forward $49 $-1 #
coedge $-1 $78 $189 $191 $192 forward $49 $-1 #
coedge $-1 $134 $133 $78 $127 reversed $135 $-1 #
edge $-1 $193 -33.274917520321623 $194 33.274917520321623 $126 $195 forward 7 unknown #
coedge $-1 $80 $79 $196 $197 forward $31 $-1 #
coedge $-1 $198 $199 $79 $130 reversed $183 $-1 #
edge $-1 $137 -48.750267036957915 $200 48.750267036957915 $129 $201 forward 7 unknown #
coedge $-1 $123 $202 $80 $132 reversed $76 $-1 #
edge $-1 $203 -48.750267036957915 $136 48.750267036957915 $131 $204 forward 7 unknown #
coedge $-1 $126 $81 $202 $205 forward $135 $-1 #
coedge $-1 $81 $126 $198 $206 reversed $135 $-1 #
loop $-1 $-1 $133 $182 #
vertex $-1 $82 $207 #
vertex $-1 $82 $208 #
straight-curve $-1 48.750267036957915 0 9.8693484574343007 0 1 0 I I #
face $-1 $209 $210 $19 $-1 $211 reversed single #
loop $-1 $-1 $151 $83 #
plane-surface $-1 0 -39.398362255502178 -5.0271118348936863 0 0 1 1 0 0 forward_v I I I I #
coedge $-1 $212 $213 $87 $147 forward $84 $-1 #
coedge $-1 $214 $86 $213 $215 forward $53 $-1 #
coedge $-1 $86 $214 $216 $217 forward $53 $-1 #
coedge $-1 $88 $87 $86 $146 reversed $34 $-1 #
edge $-1 $218 -48.750267036957915 $219 48.750267036957915 $86 $220 forward 7 unknown #
edge $-1 $219 -9.8693484574343007 $153 -5.0271118348936863 $142 $221 forward 7 unknown #
coedge $-1 $216 $222 $88 $149 forward $223 $-1 #
edge $-1 $152 5.0271118348936863 $218 9.8693484574343007 $148 $224 forward 7 unknown #
coedge $-1 $225 $89 $222 $226 forward $140 $-1 #
coedge $-1 $89 $225 $212 $227 forward $140 $-1 #
vertex $-1 $149 $228 #
vertex $-1 $227 $229 #
straight-curve $-1 0 -33.274917520321623 -5.0271118348936863 1 0 0 I I #
face $-1 $-1 $230 $20 $-1 $231 reversed single #
loop $-1 $-1 $97 $91 #
plane-surface $-1 0 33.274917520321623 0 0 -1 0 0 0 -1 forward_v I I I I #
coedge $-1 $163 $232 $233 $234 forward $92 $-1 #
coedge $-1 $233 $94 $96 $165 forward $57 $-1 #
coedge $-1 $94 $233 $235 $236 reversed $57 $-1 #
coedge $-1 $237 $97 $94 $162 forward $156 $-1 #
edge $-1 $168 2.7004050473168313 $238 31.600043008866333 $161 $239 forward 7 unknown #
coedge $-1 $240 $158 $95 $164 forward $92 $-1 #
edge $-1 $241 -10.26526676421382 $167 -6.1251372150886283 $163 $242 forward 7 unknown #
edge $-1 $168 -66.549835040643231 $241 -58.948232186919938 $96 $243 forward 7 unknown #
coedge $-1 $97 $237 $240 $244 reversed $156 $-1 #
vertex $-1 $244 $245 #
vertex $-1 $98 $246 #
straight-curve $-1 -19.850629075408413 33.274917520321623 56.205045943287409 0 0 -1 I I #
coedge $-1 $170 $170 $-1 $247 reversed $101 $-1 #
edge $-1 $248 0 $248 6.2831853071796004 $102 $249 forward 7 unknown #
vertex $-1 $105 $250 #
ellipse-curve $-1 -42.970339444648012 31.20485274575903 6.6817281356976137 0 0.83867057594974714 0.54463902268945019 1 0 0 1 I I #
coedge $-1 $174 $174 $-1 $251 reversed $108 $-1 #
edge $-1 $252 0 $252 6.2831853071796004 $109 $253 forward 7 unknown #
vertex $-1 $112 $254 #
ellipse-curve $-1 -34.300448056183164 31.20485274575903 6.6817281356976137 0 0.83867057594974714 0.54463902268945019 1 0 0 1 I I #
coedge $-1 $178 $178 $-1 $255 reversed $115 $-1 #
edge $-1 $256 0 $256 6.2831853071796004 $116 $257 forward 7 unknown #
vertex $-1 $119 $258 #
ellipse-curve $-1 -25.630556667718309 31.20485274575903 6.6817281356976137 0 0.83867057594974714 0.54463902268945019 1 0 0 1 I I #
face $-1 $-1 $135 $18 $-1 $259 reversed single #
loop $-1 $-1 $198 $120 #
plane-surface $-1 0 33.274917520321623 0 0 -1 0 0 0 -1 forward_v I I I I #
coedge $-1 $260 $196 $199 $261 forward $121 $-1 #
coedge $-1 $202 $123 $124 $190 reversed $76 $-1 #
coedge $-1 $196 $260 $123 $188 reversed $121 $-1 #
edge $-1 $203 -9.8693484574343007 $262 9.8693484574343007 $187 $263 forward 7 unknown #
coedge $-1 $125 $124 $260 $264 forward $49 $-1 #
edge $-1 $194 -48.750267036957915 $262 48.750267036957915 $186 $265 forward 7 unknown #
coedge $-1 $199 $198 $125 $192 reversed $183 $-1 #
edge $-1 $266 -48.750267036957915 $193 48.750267036957915 $191 $267 forward 7 unknown #
vertex $-1 $127 $268 #
vertex $-1 $205 $269 #
straight-curve $-1 48.750267036957915 0 -9.8693484574343007 0 -1 0 I I #
coedge $-1 $185 $187 $128 $197 reversed $121 $-1 #
edge $-1 $200 -33.274917520321623 $203 33.274917520321623 $196 $270 forward 7 unknown #
coedge $-1 $191 $129 $134 $206 forward $183 $-1 #
coedge $-1 $129 $191 $185 $261 reversed $183 $-1 #
vertex $-1 $130 $271 #
straight-curve $-1 0 33.274917520321623 9.8693484574343007 -1 0 0 I I #
coedge $-1 $131 $186 $133 $205 reversed $76 $-1 #
vertex $-1 $197 $272 #
straight-curve $-1 0 -33.274917520321623 9.8693484574343007 1 0 0 I I #
edge $-1 $136 -9.8693484574343007 $194 9.8693484574343007 $133 $273 forward 7 unknown #
edge $-1 $137 -9.8693484574343007 $193 9.8693484574343007 $134 $274 forward 7 unknown #
point $-1 48.750267036957915 -33.274917520321623 9.8693484574343007 #
point $-1 48.750267036957915 33.274917520321623 9.8693484574343007 #
face $-1 $-1 $223 $19 $-1 $275 reversed single #
loop $-1 $-1 $276 $139 #
plane-surface $-1 0 -45.521806990682734 -7.4482301461639935 0 1 0 0 0 1 forward_v I I I I #
coedge $-1 $277 $142 $151 $227 reversed $84 $-1 #
coedge $-1 $142 $277 $143 $215 reversed $84 $-1 #
coedge $-1 $144 $143 $278 $279 forward $53 $-1 #
edge $-1 $219 33.274917520321623 $280 45.521806990682734 $213 $281 forward 7 unknown #
coedge $-1 $282 $148 $144 $217 reversed $223 $-1 #
edge $-1 $283 -45.521806990682734 $218 -33.274917520321623 $216 $284 forward 7 unknown #
vertex $-1 $149 $285 #
vertex $-1 $215 $286 #
straight-curve $-1 0 -33.274917520321623 -9.8693484574343007 1 0 0 I I #
straight-curve $-1 48.750267036957915 -33.274917520321623 0 0 0 1 I I #
coedge $-1 $148 $282 $150 $226 reversed $223 $-1 #
loop $-1 $-1 $148 $209 #
straight-curve $-1 -48.750267036957915 -33.274917520321623 0 0 0 -1 I I #
coedge $-1 $151 $150 $287 $288 forward $140 $-1 #
edge $-1 $152 -6.1234447351805557 $289 6.1234447351805557 $222 $290 forward 7 unknown #
edge $-1 $291 -6.1234447351805557 $153 6.1234447351805557 $212 $292 forward 7 unknown #
point $-1 -48.750267036957915 -33.274917520321623 -5.0271118348936863 #
point $-1 48.750267036957915 -33.274917520321623 -5.0271118348936863 #
loop $-1 $-1 $235 $155 #
plane-surface $-1 -48.750267036957915 0 0 1 0 0 0 0 -1 forward_v I I I I #
coedge $-1 $158 $240 $293 $294 forward $92 $-1 #
coedge $-1 $160 $159 $158 $234 reversed $57 $-1 #
edge $-1 $295 -31.600043008866333 $241 -2.7004050473168313 $158 $296 forward 7 unknown #
coedge $-1 $293 $297 $160 $236 forward $230 $-1 #
edge $-1 $238 -40.871124093109067 $295 -33.269521239385767 $235 $298 forward 7 unknown #
coedge $-1 $166 $161 $297 $299 reversed $156 $-1 #
vertex $-1 $162 $300 #
straight-curve $-1 -17.150224028091582 33.274917520321623 3.4941078139609338 -1 0 0 I I #
coedge $-1 $232 $163 $166 $244 forward $92 $-1 #
vertex $-1 $164 $301 #
straight-curve $-1 -19.850629075408413 39.400054735410251 9.8693484574342989 0 1 0 I I #
straight-curve $-1 -19.850629075408413 -2.9707195963584354 59.307496296857863 0 -0.54463902268945019 0.83867057594974714 I I #
edge $-1 $167 19.850629075408413 $302 48.750267036957915 $166 $303 forward 7 unknown #
point $-1 -19.850629075408413 33.274917520321623 9.8693484574343007 #
point $-1 -19.850629075408413 33.274917520321623 3.4941078139609374 #
edge $-1 $304 1 $304 0 $170 $-1 forward 7 unknown #
vertex $-1 $171 $305 #
ellipse-curve $-1 -42.970339444648012 30.235110298126223 6.0519700470212614 0 0.83867057594974714 0.54463902268945019 1 0 0 1 I I #
point $-1 -41.970339444648012 31.204852745759023 6.6817281356976084 #
edge $-1 $306 1 $306 0 $174 $-1 forward 7 unknown #
vertex $-1 $175 $307 #
ellipse-curve $-1 -34.300448056183164 30.235110298126223 6.0519700470212614 0 0.83867057594974714 0.54463902268945019 1 0 0 1 I I #
point $-1 -33.300448056183164 31.204852745759023 6.6817281356976084 #
edge $-1 $308 1 $308 0 $178 $-1 forward 7 unknown #
vertex $-1 $179 $309 #
ellipse-curve $-1 -25.630556667718309 30.235110298126223 6.0519700470212614 0 0.83867057594974714 0.54463902268945019 1 0 0 1 I I #
point $-1 -24.630556667718309 31.204852745759023 6.6817281356976084 #
plane-surface $-1 48.750267036957915 0 0 -1 0 0 0 0 1 forward_v I I I I #
coedge $-1 $187 $185 $189 $264 reversed $121 $-1 #
edge $-1 $200 -9.8693484574343007 $266 9.8693484574343007 $199 $310 forward 7 unknown #
vertex $-1 $264 $311 #
straight-curve $-1 -48.750267036957915 -33.274917520321623 0 0 0 -1 I I #
edge $-1 $262 -33.274917520321623 $266 33.274917520321623 $260 $312 forward 7 unknown #
straight-curve $-1 0 -33.274917520321623 -9.8693484574343007 -1 0 0 I I #
vertex $-1 $192 $313 #
straight-curve $-1 0 33.274917520321623 -9.8693484574343007 1 0 0 I I #
point $-1 48.750267036957915 33.274917520321623 -9.8693484574343007 #
point $-1 48.750267036957915 -33.274917520321623 -9.8693484574343007 #
straight-curve $-1 -48.750267036957915 0 9.8693484574343007 0 -1 0 I I #
point $-1 -48.750267036957915 33.274917520321623 9.8693484574343007 #
point $-1 -48.750267036957915 -33.274917520321623 9.8693484574343007 #
straight-curve $-1 48.750267036957915 -33.274917520321623 0 0 0 -1 I I #
straight-curve $-1 48.750267036957915 33.274917520321623 0 0 0 -1 I I #
plane-surface $-1 -48.750267036957915 0 0 1 0 0 0 0 -1 forward_v I I I I #
coedge $-1 $278 $287 $282 $314 forward $210 $-1 #
coedge $-1 $213 $212 $315 $316 forward $84 $-1 #
coedge $-1 $315 $276 $214 $279 reversed $210 $-1 #
edge $-1 $280 -48.750267036957915 $283 48.750267036957915 $278 $317 forward 7 unknown #
vertex $-1 $316 $318 #
straight-curve $-1 48.750267036957915 0 -9.8693484574343007 0 -1 0 I I #
coedge $-1 $222 $216 $276 $314 reversed $223 $-1 #
vertex $-1 $217 $319 #
straight-curve $-1 -48.750267036957915 0 -9.8693484574343007 0 1 0 I I #
point $-1 -48.750267036957915 -33.274917520321623 -9.8693484574343007 #
point $-1 48.750267036957915 -33.274917520321623 -9.8693484574343007 #
coedge $-1 $276 $315 $225 $288 reversed $210 $-1 #
edge $-1 $289 -48.750267036957915 $291 48.750267036957915 $287 $320 forward 7 unknown #
vertex $-1 $226 $321 #
straight-curve $-1 -48.750267036957915 -39.398362255502178 -5.0271118348936863 0 -1 0 I I #
vertex $-1 $227 $322 #
straight-curve $-1 48.750267036957915 -39.398362255502178 -5.0271118348936863 0 1 0 I I #
coedge $-1 $297 $235 $232 $294 reversed $230 $-1 #
edge $-1 $302 -33.274917520321623 $295 -29.134787971196431 $293 $323 forward 7 unknown #
vertex $-1 $236 $324 #
straight-curve $-1 -17.150224028091582 29.134787971196431 9.8693484574343024 1 0 0 I I #
coedge $-1 $235 $293 $237 $299 forward $230 $-1 #
straight-curve $-1 -48.750267036957915 11.014908438031458 37.771516996842308 0 -0.54463902268945019 0.83867057594974714 I I #
edge $-1 $302 -9.8693484574343007 $238 -3.4941078139609365 $237 $325 forward 7 unknown #
point $-1 -48.750267036957915 33.274917520321623 3.4941078139609365 #
point $-1 -19.850629075408413 29.134787971196431 9.8693484574342989 #
vertex $-1 $244 $326 #
straight-curve $-1 0 33.274917520321623 9.8693484574343007 -1 0 0 I I #
vertex $-1 $247 $327 #
point $-1 -41.970339444648012 30.235110298126223 6.0519700470212614 #
vertex $-1 $251 $328 #
point $-1 -33.300448056183164 30.235110298126223 6.0519700470212614 #
vertex $-1 $255 $329 #
point $-1 -24.630556667718309 30.235110298126223 6.0519700470212614 #
straight-curve $-1 -48.750267036957915 33.274917520321623 0 0 0 -1 I I #
point $-1 -48.750267036957915 -33.274917520321623 -9.8693484574343007 #
straight-curve $-1 -48.750267036957915 0 -9.8693484574343007 0 1 0 I I #
point $-1 -48.750267036957915 33.274917520321623 -9.8693484574343007 #
edge $-1 $289 -2.4211183112703072 $283 2.4211183112703072 $282 $330 forward 7 unknown #
coedge $-1 $287 $278 $277 $316 reversed $210 $-1 #
edge $-1 $291 -2.4211183112703072 $280 2.4211183112703072 $277 $331 forward 7 unknown #
straight-curve $-1 0 -45.521806990682734 -9.8693484574343007 -1 0 0 I I #
point $-1 48.750267036957915 -45.521806990682734 -9.8693484574343007 #
point $-1 -48.750267036957915 -45.521806990682734 -9.8693484574343007 #
straight-curve $-1 0 -45.521806990682734 -5.0271118348936863 1 0 0 I I #
point $-1 -48.750267036957915 -45.521806990682734 -5.0271118348936863 #
point $-1 48.750267036957915 -45.521806990682734 -5.0271118348936863 #
straight-curve $-1 -48.750267036957915 0 9.8693484574343007 0 -1 0 I I #
point $-1 -48.750267036957915 29.134787971196431 9.8693484574342989 #
straight-curve $-1 -48.750267036957915 33.274917520321623 0 0 0 -1 I I #
point $-1 -48.750267036957915 33.274917520321623 9.8693484574343007 #
point $-1 -42.970339444648012 29.396439722176474 5.507331024331811 #
point $-1 -34.300448056183164 29.396439722176474 5.507331024331811 #
point $-1 -25.630556667718309 29.396439722176474 5.507331024331811 #
straight-curve $-1 -48.750267036957915 -45.521806990682734 -7.4482301461639935 0 0 -1 I I #
straight-curve $-1 48.750267036957915 -45.521806990682734 -7.4482301461639935 0 0 -1 I I #
End-of-ACIS-data 