500 0 7 0           
7 Unknown 11 ACIS 5.0 NT 24 Thu Mar 25 18:33:49 1999 
-1 9.9999999999999995e-007 1e-010 
body $-1 $7 $-1 $8 #
body $-1 $9 $-1 $10 #
body $-1 $11 $-1 $12 #
body $-1 $13 $-1 $14 #
body $-1 $15 $-1 $16 #
body $-1 $17 $-1 $18 #
body $-1 $19 $-1 $20 #
lump $-1 $-1 $21 $0 #
transform $-1 1 0 0 0 1 0 0 0 1 47.789544358653522 19.746312449301005 8.0797352264169202 1 rotate no_reflect no_shear #
lump $-1 $-1 $22 $1 #
transform $-1 1 0 0 0 1 0 0 0 1 47.789544358653522 19.746312449301005 8.0797352264169202 1 rotate no_reflect no_shear #
lump $-1 $-1 $23 $2 #
transform $-1 1 0 0 0 1 0 0 0 1 47.789544358653522 19.746312449301005 8.0797352264169202 1 rotate no_reflect no_shear #
lump $-1 $-1 $24 $3 #
transform $-1 1 0 0 0 1 0 0 0 1 47.789544358653522 19.746312449301005 8.0797352264169202 1 rotate no_reflect no_shear #
lump $-1 $-1 $25 $4 #
transform $-1 1 0 0 0 1 0 0 0 1 47.789544358653522 19.746312449301005 8.0797352264169202 1 rotate no_reflect no_shear #
lump $-1 $-1 $26 $5 #
transform $-1 1 0 0 0 1 0 0 0 1 47.789544358653522 19.746312449301005 8.0797352264169202 1 rotate no_reflect no_shear #
lump $-1 $-1 $27 $6 #
transform $-1 1 0 0 0 1 0 0 0 1 47.789544358653522 19.746312449301005 8.0797352264169202 1 rotate no_reflect no_shear #
shell $-1 $-1 $-1 $28 $-1 $7 #
shell $-1 $-1 $-1 $29 $-1 $9 #
shell $-1 $-1 $-1 $30 $-1 $11 #
shell $-1 $-1 $-1 $31 $-1 $13 #
shell $-1 $-1 $-1 $32 $-1 $15 #
shell $-1 $-1 $-1 $33 $-1 $17 #
shell $-1 $-1 $-1 $34 $-1 $19 #
face $-1 $35 $36 $21 $-1 $37 forward single #
face $-1 $38 $39 $22 $-1 $40 reversed single #
face $-1 $41 $42 $23 $-1 $43 reversed single #
face $-1 $44 $45 $24 $-1 $46 reversed single #
face $-1 $47 $48 $25 $-1 $49 forward single #
face $-1 $50 $51 $26 $-1 $52 reversed single #
face $-1 $53 $54 $27 $-1 $55 forward single #
face $-1 $56 $57 $21 $-1 $58 reversed single #
loop $-1 $-1 $59 $28 #
plane-surface $-1 0 0 8.0797352264169202 0 0 1 1 0 0 forward_v I I I I #
face $-1 $60 $61 $22 $-1 $62 reversed single #
loop $-1 $-1 $63 $29 #
plane-surface $-1 0 -16.707723441085299 3.2745033696318284 0 0 1 1 0 0 forward_v I I I I #
face $-1 $64 $65 $23 $-1 $66 reversed single #
loop $-1 $-1 $67 $30 #
plane-surface $-1 0 16.707723441085303 3.2745033696318284 0 0 1 1 0 0 forward_v I I I I #
face $-1 $68 $69 $24 $-1 $70 reversed single #
loop $-1 $-1 $71 $31 #
plane-surface $-1 26.644417294268045 1.7763568394002505e-015 137.87294212586957 0 -1 0 -0.5877852598018023 0 -0.80901698891910034 forward_v I I I I #
face $-1 $72 $73 $25 $-1 $74 forward single #
loop $-1 $75 $76 $32 #
cone-surface $-1 44.658183975764729 -3.3019183869020097 5.4297901772362538 -0.5877852598018023 0 -0.80901698891910034 0.80901698891910034 0 -0.5877852598018023 1 I I 0 1 1 forward I I I I #
face $-1 $77 $78 $26 $-1 $79 reversed single #
loop $-1 $-1 $80 $33 #
plane-surface $-1 -29.535562199053778 -3.3019183869020061 60.547835568162284 0.5877852598018023 0 0.80901698891910034 0.80901698891910034 0 -0.5877852598018023 forward_v I I I I #
face $-1 $81 $82 $27 $-1 $83 forward single #
loop $-1 $84 $85 $34 #
cone-surface $-1 44.658183975764729 3.3019183869020061 5.4297901772362538 -0.5877852598018023 0 -0.80901698891910034 0.80901698891910034 0 -0.5877852598018023 1 I I 0 1 1 forward I I I I #
face $-1 $86 $87 $21 $-1 $88 reversed single #
loop $-1 $-1 $89 $35 #
plane-surface $-1 0 0 -8.0797352264169202 0 0 1 1 0 0 forward_v I I I I #
coedge $-1 $90 $91 $92 $93 forward $36 $-1 #
face $-1 $94 $95 $22 $-1 $96 reversed single #
loop $-1 $-1 $97 $38 #
plane-surface $-1 0 -13.669134432869594 5.6771192980243743 0 -1 0 0 0 -1 forward_v I I I I #
coedge $-1 $98 $99 $100 $101 reversed $39 $-1 #
face $-1 $102 $103 $23 $-1 $104 forward single #
loop $-1 $-1 $105 $41 #
plane-surface $-1 0 13.669134432869598 5.6771192980243743 0 1 0 0 0 1 forward_v I I I I #
coedge $-1 $106 $107 $108 $109 reversed $42 $-1 #
face $-1 $110 $111 $24 $-1 $112 reversed single #
loop $-1 $-1 $113 $44 #
plane-surface $-1 -29.535562199053778 -3.3019183869020061 60.547835568162284 0.5877852598018023 0 0.80901698891910034 0.80901698891910034 0 -0.5877852598018023 forward_v I I I I #
coedge $-1 $114 $115 $116 $117 reversed $45 $-1 #
face $-1 $-1 $118 $25 $-1 $119 forward single #
loop $-1 $120 $121 $47 #
cone-surface $-1 43.787412590714858 -3.3019183869020097 4.2312762093842853 -0.5877852598018023 0 -0.80901698891910034 0.40450849445955017 0 -0.29389262990090115 1 I I -0.70710678118654691 0.70710678118654813 0.5 forward I I I I #
loop $-1 $-1 $122 $32 #
coedge $-1 $76 $76 $123 $124 reversed $48 $-1 #
face $-1 $125 $126 $26 $-1 $127 reversed single #
loop $-1 $-1 $128 $50 #
plane-surface $-1 26.644417294268045 6.603836773804014 137.87294212586957 0 -1 0 -0.5877852598018023 0 -0.80901698891910034 forward_v I I I I #
coedge $-1 $129 $130 $131 $132 reversed $51 $-1 #
face $-1 $-1 $133 $27 $-1 $134 forward single #
loop $-1 $135 $136 $53 #
cone-surface $-1 43.787412590714858 3.3019183869020061 4.2312762093842853 -0.5877852598018023 0 -0.80901698891910034 0.40450849445955017 0 -0.29389262990090115 1 I I -0.70710678118654691 0.70710678118654813 0.5 forward I I I I #
loop $-1 $-1 $137 $34 #
coedge $-1 $85 $85 $138 $139 reversed $54 $-1 #
face $-1 $140 $141 $21 $-1 $142 reversed single #
loop $-1 $-1 $143 $56 #
plane-surface $-1 0 -19.746312449301005 0 0 1 0 0 0 1 forward_v I I I I #
coedge $-1 $144 $145 $146 $147 forward $57 $-1 #
coedge $-1 $148 $59 $149 $150 forward $36 $-1 #
coedge $-1 $59 $148 $151 $152 forward $36 $-1 #
coedge $-1 $153 $154 $59 $93 reversed $155 $-1 #
edge $-1 $156 -19.746312449301005 $157 19.746312449301005 $92 $158 forward 7 unknown #
face $-1 $159 $160 $22 $-1 $161 reversed single #
loop $-1 $-1 $162 $60 #
plane-surface $-1 -47.789544358653522 0 0 1 0 0 0 0 -1 forward_v I I I I #
coedge $-1 $163 $164 $165 $166 reversed $61 $-1 #
coedge $-1 $167 $63 $168 $169 reversed $39 $-1 #
coedge $-1 $63 $167 $163 $170 forward $39 $-1 #
coedge $-1 $165 $171 $63 $101 forward $172 $-1 #
edge $-1 $173 -11.392450728758355 $174 -5.3152727123269443 $100 $175 forward 7 unknown #
face $-1 $176 $177 $23 $-1 $178 reversed single #
loop $-1 $-1 $179 $64 #
plane-surface $-1 0 0 8.0797352264169202 0 0 1 1 0 0 forward_v I I I I #
coedge $-1 $180 $181 $182 $183 reversed $65 $-1 #
coedge $-1 $184 $67 $180 $185 forward $42 $-1 #
coedge $-1 $67 $184 $186 $187 reversed $42 $-1 #
coedge $-1 $188 $189 $67 $109 forward $177 $-1 #
edge $-1 $190 5.3152727123269461 $191 11.392450728758357 $108 $192 forward 7 unknown #
face $-1 $193 $194 $24 $-1 $195 forward single #
loop $-1 $-1 $196 $68 #
plane-surface $-1 26.644417294268045 -6.603836773804014 137.87294212586957 0 1 0 0.5877852598018023 0 0.80901698891910034 forward_v I I I I #
coedge $-1 $197 $198 $199 $200 reversed $69 $-1 #
coedge $-1 $115 $71 $201 $202 reversed $45 $-1 #
coedge $-1 $71 $114 $197 $203 reversed $45 $-1 #
coedge $-1 $199 $204 $71 $117 forward $194 $-1 #
edge $-1 $205 -34.467335711519496 $206 -29.358372456039834 $116 $207 forward 7 unknown #
loop $-1 $-1 $123 $72 #
plane-surface $-1 -29.535562199053778 -3.3019183869020061 60.547835568162284 0.5877852598018023 0 0.80901698891910034 0.80901698891910034 0 -0.5877852598018023 forward_v I I I I #
loop $-1 $-1 $208 $47 #
coedge $-1 $121 $121 $122 $209 reversed $73 $-1 #
coedge $-1 $122 $122 $121 $209 forward $75 $-1 #
coedge $-1 $123 $123 $76 $124 forward $118 $-1 #
edge $-1 $210 0 $210 6.2831853071796004 $123 $211 forward 7 unknown #
face $-1 $212 $213 $26 $-1 $214 forward single #
loop $-1 $-1 $215 $77 #
plane-surface $-1 47.789544358653522 0 0 -1 0 0 0 0 1 forward_v I I I I #
coedge $-1 $216 $217 $218 $219 reversed $78 $-1 #
coedge $-1 $220 $80 $221 $222 reversed $51 $-1 #
coedge $-1 $80 $220 $215 $223 reversed $51 $-1 #
coedge $-1 $224 $225 $80 $132 forward $213 $-1 #
edge $-1 $226 89.264062796398292 $227 95.57908871730703 $131 $228 forward 7 unknown #
loop $-1 $-1 $138 $81 #
plane-surface $-1 -29.535562199053778 -3.3019183869020061 60.547835568162284 0.5877852598018023 0 0.80901698891910034 0.80901698891910034 0 -0.5877852598018023 forward_v I I I I #
loop $-1 $-1 $229 $53 #
coedge $-1 $136 $136 $137 $230 reversed $82 $-1 #
coedge $-1 $137 $137 $136 $230 forward $84 $-1 #
coedge $-1 $138 $138 $85 $139 forward $133 $-1 #
edge $-1 $231 0 $231 6.2831853071796004 $138 $232 forward 7 unknown #
face $-1 $233 $234 $21 $-1 $235 reversed single #
loop $-1 $-1 $236 $86 #
plane-surface $-1 -47.789544358653522 0 0 1 0 0 0 0 -1 forward_v I I I I #
coedge $-1 $237 $151 $238 $239 forward $87 $-1 #
coedge $-1 $240 $89 $237 $241 forward $57 $-1 #
coedge $-1 $89 $240 $242 $243 forward $57 $-1 #
coedge $-1 $154 $153 $89 $147 reversed $155 $-1 #
edge $-1 $244 -19.746312449301005 $245 19.746312449301005 $146 $246 forward 7 unknown #
coedge $-1 $91 $90 $247 $248 forward $36 $-1 #
coedge $-1 $249 $250 $90 $150 reversed $234 $-1 #
edge $-1 $157 -47.789544358653522 $251 47.789544358653522 $149 $252 forward 7 unknown #
coedge $-1 $143 $253 $91 $152 reversed $87 $-1 #
edge $-1 $254 -47.789544358653522 $156 47.789544358653522 $151 $255 forward 7 unknown #
coedge $-1 $146 $92 $253 $256 forward $155 $-1 #
coedge $-1 $92 $146 $249 $257 reversed $155 $-1 #
loop $-1 $-1 $153 $233 #
vertex $-1 $93 $258 #
vertex $-1 $93 $259 #
straight-curve $-1 47.789544358653522 0 8.0797352264169202 0 1 0 I I #
face $-1 $260 $261 $22 $-1 $262 forward single #
loop $-1 $-1 $168 $94 #
plane-surface $-1 0 -19.746312449301005 0 0 1 0 0 0 1 forward_v I I I I #
coedge $-1 $263 $264 $265 $266 forward $95 $-1 #
coedge $-1 $265 $97 $99 $170 reversed $61 $-1 #
coedge $-1 $97 $265 $267 $268 reversed $61 $-1 #
coedge $-1 $269 $100 $97 $166 forward $172 $-1 #
edge $-1 $174 0.43594372061964126 $270 5.2411755774047331 $165 $271 forward 7 unknown #
coedge $-1 $99 $98 $263 $272 reversed $39 $-1 #
coedge $-1 $273 $274 $98 $169 forward $160 $-1 #
edge $-1 $275 -47.789544358653522 $173 47.789544358653522 $168 $276 forward 7 unknown #
edge $-1 $277 -47.789544358653522 $174 47.789544358653522 $163 $278 forward 7 unknown #
coedge $-1 $100 $269 $273 $279 forward $172 $-1 #
loop $-1 $-1 $165 $260 #
vertex $-1 $169 $280 #
vertex $-1 $101 $281 #
straight-curve $-1 47.789544358653522 -8.3538617205426497 3.2745033696318284 0 1 0 I I #
face $-1 $282 $283 $23 $-1 $284 reversed single #
loop $-1 $-1 $189 $102 #
plane-surface $-1 47.789544358653522 0 0 -1 0 0 0 0 1 forward_v I I I I #
coedge $-1 $285 $286 $181 $287 forward $103 $-1 #
coedge $-1 $288 $105 $106 $185 reversed $65 $-1 #
coedge $-1 $105 $288 $179 $287 reversed $65 $-1 #
coedge $-1 $289 $290 $105 $183 forward $283 $-1 #
edge $-1 $291 0.43594372061964126 $292 5.2411755774047331 $182 $293 forward 7 unknown #
coedge $-1 $107 $106 $290 $294 reversed $42 $-1 #
edge $-1 $190 -47.789544358653522 $291 47.789544358653522 $180 $295 forward 7 unknown #
coedge $-1 $296 $297 $107 $187 forward $298 $-1 #
edge $-1 $191 -47.789544358653522 $299 47.789544358653522 $186 $300 forward 7 unknown #
coedge $-1 $301 $108 $297 $302 reversed $177 $-1 #
coedge $-1 $108 $301 $288 $303 forward $177 $-1 #
vertex $-1 $109 $304 #
vertex $-1 $187 $305 #
straight-curve $-1 47.789544358653522 8.3538617205426515 3.2745033696318284 0 1 0 I I #
face $-1 $-1 $306 $24 $-1 $307 reversed single #
loop $-1 $-1 $116 $110 #
plane-surface $-1 0 0 8.0797352264169202 0 0 1 1 0 0 forward_v I I I I #
coedge $-1 $308 $309 $310 $311 reversed $111 $-1 #
coedge $-1 $312 $113 $115 $203 forward $69 $-1 #
coedge $-1 $113 $312 $308 $313 forward $69 $-1 #
coedge $-1 $310 $116 $113 $200 forward $194 $-1 #
edge $-1 $206 -1.6509591934510048 $314 4.952877580353011 $199 $315 forward 7 unknown #
coedge $-1 $316 $317 $114 $202 forward $306 $-1 #
edge $-1 $318 -64.568614988094339 $205 -60.856735836517863 $201 $319 forward 7 unknown #
edge $-1 $206 89.264062796398292 $318 95.57908871730703 $115 $320 forward 7 unknown #
coedge $-1 $116 $310 $316 $321 forward $194 $-1 #
vertex $-1 $202 $322 #
vertex $-1 $117 $323 #
straight-curve $-1 13.322208647134023 1.7763568394002505e-015 8.0797352264169149 -1 0 0 I I #
coedge $-1 $208 $208 $-1 $324 reversed $120 $-1 #
edge $-1 $325 0 $325 6.2831853071796004 $121 $326 forward 7 unknown #
vertex $-1 $124 $327 #
ellipse-curve $-1 45.235062730913697 -3.3019183869020097 6.2237956506286771 0.5877852598018023 0 0.80901698891910034 0.80901698891910034 0 -0.5877852598018023 1 I I #
face $-1 $-1 $328 $26 $-1 $329 forward single #
loop $-1 $-1 $225 $125 #
plane-surface $-1 26.644417294268045 1.7763568394002505e-015 137.87294212586957 0 -1 0 -0.5877852598018023 0 -0.80901698891910034 forward_v I I I I #
coedge $-1 $218 $330 $130 $223 forward $126 $-1 #
coedge $-1 $217 $128 $220 $331 reversed $78 $-1 #
coedge $-1 $128 $216 $332 $333 reversed $78 $-1 #
coedge $-1 $334 $215 $128 $219 forward $126 $-1 #
edge $-1 $335 -64.568614988094339 $336 -60.856735836517863 $218 $337 forward 7 unknown #
coedge $-1 $130 $129 $216 $331 forward $51 $-1 #
coedge $-1 $338 $332 $129 $222 forward $328 $-1 #
edge $-1 $339 -8.2547959672550171 $226 -1.6509591934510048 $221 $340 forward 7 unknown #
edge $-1 $227 1.6509591934510048 $335 8.2547959672550171 $215 $341 forward 7 unknown #
coedge $-1 $225 $131 $330 $342 reversed $213 $-1 #
coedge $-1 $131 $224 $338 $343 reversed $213 $-1 #
vertex $-1 $222 $344 #
vertex $-1 $223 $345 #
straight-curve $-1 -29.535562199053778 1.7763568394002505e-015 60.547835568162284 0.80901698891910034 0 -0.5877852598018023 I I #
coedge $-1 $229 $229 $-1 $346 reversed $135 $-1 #
edge $-1 $347 0 $347 6.2831853071796004 $136 $348 forward 7 unknown #
vertex $-1 $139 $349 #
ellipse-curve $-1 45.235062730913697 3.3019183869020061 6.2237956506286771 0.5877852598018023 0 0.80901698891910034 0.80901698891910034 0 -0.5877852598018023 1 I I #
face $-1 $-1 $155 $21 $-1 $350 reversed single #
loop $-1 $-1 $249 $140 #
plane-surface $-1 0 19.746312449301005 0 0 -1 0 0 0 -1 forward_v I I I I #
coedge $-1 $351 $247 $250 $352 forward $141 $-1 #
coedge $-1 $253 $143 $144 $241 reversed $87 $-1 #
coedge $-1 $247 $351 $143 $239 reversed $141 $-1 #
edge $-1 $254 -8.0797352264169202 $353 8.0797352264169202 $238 $354 forward 7 unknown #
coedge $-1 $145 $144 $351 $355 forward $57 $-1 #
edge $-1 $245 -47.789544358653522 $353 47.789544358653522 $237 $356 forward 7 unknown #
coedge $-1 $250 $249 $145 $243 reversed $234 $-1 #
edge $-1 $357 -47.789544358653522 $244 47.789544358653522 $242 $358 forward 7 unknown #
vertex $-1 $147 $359 #
vertex $-1 $256 $360 #
straight-curve $-1 47.789544358653522 0 -8.0797352264169202 0 -1 0 I I #
coedge $-1 $236 $238 $148 $248 reversed $141 $-1 #
edge $-1 $251 -19.746312449301005 $254 19.746312449301005 $247 $361 forward 7 unknown #
coedge $-1 $242 $149 $154 $257 forward $234 $-1 #
coedge $-1 $149 $242 $236 $352 reversed $234 $-1 #
vertex $-1 $150 $362 #
straight-curve $-1 0 19.746312449301005 8.0797352264169202 -1 0 0 I I #
coedge $-1 $151 $237 $153 $256 reversed $87 $-1 #
vertex $-1 $248 $363 #
straight-curve $-1 0 -19.746312449301005 8.0797352264169202 1 0 0 I I #
edge $-1 $156 -8.0797352264169202 $245 8.0797352264169202 $153 $364 forward 7 unknown #
edge $-1 $157 -8.0797352264169202 $244 8.0797352264169202 $154 $365 forward 7 unknown #
point $-1 47.789544358653522 -19.746312449301005 8.0797352264169202 #
point $-1 47.789544358653522 19.746312449301005 8.0797352264169202 #
face $-1 $-1 $172 $22 $-1 $366 reversed single #
loop $-1 $-1 $267 $159 #
plane-surface $-1 0 0 8.0797352264169202 0 0 1 1 0 0 forward_v I I I I #
coedge $-1 $367 $162 $167 $272 forward $95 $-1 #
coedge $-1 $162 $367 $368 $369 reversed $95 $-1 #
coedge $-1 $164 $163 $162 $266 reversed $61 $-1 #
edge $-1 $370 -5.2411755774047331 $277 -0.43594372061964126 $162 $371 forward 7 unknown #
coedge $-1 $368 $372 $164 $268 forward $261 $-1 #
edge $-1 $270 -47.789544358653522 $370 47.789544358653522 $267 $373 forward 7 unknown #
coedge $-1 $171 $165 $372 $374 reversed $172 $-1 #
vertex $-1 $166 $375 #
straight-curve $-1 47.789544358653522 -13.669134432869594 2.8385596490121872 0 0 1 I I #
edge $-1 $277 5.3152727123269443 $275 11.392450728758355 $263 $376 forward 7 unknown #
coedge $-1 $377 $168 $171 $279 reversed $160 $-1 #
coedge $-1 $168 $377 $367 $378 forward $160 $-1 #
vertex $-1 $169 $379 #
straight-curve $-1 0 -19.746312449301005 3.2745033696318284 1 0 0 I I #
vertex $-1 $272 $380 #
straight-curve $-1 0 -13.669134432869594 3.2745033696318284 1 0 0 I I #
edge $-1 $381 -8.0797352264169202 $173 -3.2745033696318284 $171 $382 forward 7 unknown #
point $-1 47.789544358653522 -19.746312449301005 3.2745033696318284 #
point $-1 47.789544358653522 -13.669134432869594 3.2745033696318284 #
face $-1 $-1 $298 $23 $-1 $383 reversed single #
loop $-1 $-1 $182 $176 #
plane-surface $-1 -47.789544358653522 0 0 1 0 0 0 0 -1 forward_v I I I I #
coedge $-1 $384 $179 $301 $385 forward $103 $-1 #
coedge $-1 $179 $384 $289 $386 forward $103 $-1 #
edge $-1 $292 -47.789544358653522 $387 47.789544358653522 $179 $388 forward 7 unknown #
coedge $-1 $181 $180 $189 $303 reversed $65 $-1 #
coedge $-1 $389 $182 $286 $386 reversed $283 $-1 #
coedge $-1 $182 $389 $184 $294 forward $283 $-1 #
vertex $-1 $294 $390 #
vertex $-1 $183 $391 #
straight-curve $-1 -47.789544358653522 13.669134432869598 2.8385596490121872 0 0 1 I I #
edge $-1 $299 -11.392450728758357 $291 -5.3152727123269461 $290 $392 forward 7 unknown #
straight-curve $-1 0 13.669134432869598 3.2745033696318284 -1 0 0 I I #
coedge $-1 $393 $186 $389 $394 reversed $298 $-1 #
coedge $-1 $186 $393 $188 $302 forward $298 $-1 #
loop $-1 $-1 $186 $282 #
vertex $-1 $187 $395 #
straight-curve $-1 0 19.746312449301005 3.2745033696318284 -1 0 0 I I #
coedge $-1 $189 $188 $285 $385 reversed $177 $-1 #
edge $-1 $396 -8.0797352264169202 $191 -3.2745033696318284 $188 $397 forward 7 unknown #
edge $-1 $387 -5.2411755774047331 $190 -0.43594372061964126 $189 $398 forward 7 unknown #
point $-1 47.789544358653522 13.669134432869598 3.2745033696318284 #
point $-1 47.789544358653522 19.746312449301008 3.2745033696318284 #
loop $-1 $-1 $201 $193 #
plane-surface $-1 47.789544358653522 0 0 -1 0 0 0 0 1 forward_v I I I I #
coedge $-1 $309 $196 $198 $313 reversed $111 $-1 #
coedge $-1 $196 $308 $399 $400 reversed $111 $-1 #
coedge $-1 $204 $199 $196 $311 forward $194 $-1 #
edge $-1 $314 29.358372456039834 $401 34.467335711519496 $310 $402 forward 7 unknown #
coedge $-1 $198 $197 $317 $403 reversed $69 $-1 #
edge $-1 $404 -95.57908871730703 $314 -89.264062796398292 $308 $405 forward 7 unknown #
vertex $-1 $200 $406 #
straight-curve $-1 42.68058110317385 -1.6509591934510031 8.079735226416922 0 -1 0 I I #
coedge $-1 $399 $201 $204 $321 reversed $306 $-1 #
coedge $-1 $201 $399 $312 $403 forward $306 $-1 #
vertex $-1 $202 $407 #
straight-curve $-1 47.789544358653522 1.7763568394002505e-015 68.936471062934785 0 0 1 I I #
straight-curve $-1 -29.535562199053778 1.7763568394002505e-015 60.547835568162284 0.80901698891910034 0 -0.5877852598018023 I I #
edge $-1 $401 -6.603836773804014 $205 1.7763568394002505e-015 $316 $408 forward 7 unknown #
point $-1 47.789544358653522 1.7763568394002505e-015 8.0797352264169202 #
point $-1 42.680581103173857 1.7763568394002505e-015 8.079735226416922 #
edge $-1 $409 1 $409 0 $208 $-1 forward 7 unknown #
vertex $-1 $209 $410 #
ellipse-curve $-1 44.081305220615761 -3.3019183869020097 4.6357847038438358 0.5877852598018023 0 0.80901698891910034 0.80901698891910034 0 -0.5877852598018023 1 I I #
point $-1 46.044079719832794 -3.3019183869020097 5.6360103908268684 #
loop $-1 $-1 $221 $212 #
plane-surface $-1 0 0 8.0797352264169202 0 0 1 1 0 0 forward_v I I I I #
coedge $-1 $215 $334 $224 $342 forward $126 $-1 #
edge $-1 $339 89.264062796398292 $335 95.57908871730703 $216 $411 forward 7 unknown #
coedge $-1 $221 $412 $217 $333 forward $328 $-1 #
edge $-1 $336 -34.467335711519496 $339 -29.358372456039834 $332 $413 forward 7 unknown #
coedge $-1 $330 $218 $412 $414 reversed $126 $-1 #
vertex $-1 $219 $415 #
vertex $-1 $219 $416 #
straight-curve $-1 47.789544358653522 6.603836773804014 68.936471062934785 0 0 1 I I #
coedge $-1 $412 $221 $225 $343 forward $328 $-1 #
vertex $-1 $333 $417 #
straight-curve $-1 42.68058110317385 -1.6509591934510031 8.079735226416922 0 -1 0 I I #
straight-curve $-1 47.789544358653529 -1.6509591934510031 4.36785607484045 0 1 0 I I #
edge $-1 $418 60.856735836517863 $227 64.568614988094339 $330 $419 forward 7 unknown #
edge $-1 $226 29.358372456039834 $418 34.467335711519496 $338 $420 forward 7 unknown #
point $-1 42.680581103173857 1.7763568394002505e-015 8.079735226416922 #
point $-1 47.789544358653522 1.7763568394002505e-015 4.3678560748404536 #
edge $-1 $421 1 $421 0 $229 $-1 forward 7 unknown #
vertex $-1 $230 $422 #
ellipse-curve $-1 44.081305220615761 3.3019183869020061 4.6357847038438358 0.5877852598018023 0 0.80901698891910034 0.80901698891910034 0 -0.5877852598018023 1 I I #
point $-1 46.044079719832794 3.3019183869020061 5.6360103908268684 #
plane-surface $-1 47.789544358653522 0 0 -1 0 0 0 0 1 forward_v I I I I #
coedge $-1 $238 $236 $240 $355 reversed $141 $-1 #
edge $-1 $251 -8.0797352264169202 $357 8.0797352264169202 $250 $423 forward 7 unknown #
vertex $-1 $355 $424 #
straight-curve $-1 -47.789544358653522 -19.746312449301005 0 0 0 -1 I I #
edge $-1 $353 -19.746312449301005 $357 19.746312449301005 $351 $425 forward 7 unknown #
straight-curve $-1 0 -19.746312449301005 -8.0797352264169202 -1 0 0 I I #
vertex $-1 $243 $426 #
straight-curve $-1 0 19.746312449301005 -8.0797352264169202 1 0 0 I I #
point $-1 47.789544358653522 19.746312449301005 -8.0797352264169202 #
point $-1 47.789544358653522 -19.746312449301005 -8.0797352264169202 #
straight-curve $-1 -47.789544358653522 0 8.0797352264169202 0 -1 0 I I #
point $-1 -47.789544358653522 19.746312449301005 8.0797352264169202 #
point $-1 -47.789544358653522 -19.746312449301005 8.0797352264169202 #
straight-curve $-1 47.789544358653522 -19.746312449301005 0 0 0 -1 I I #
straight-curve $-1 47.789544358653522 19.746312449301005 0 0 0 -1 I I #
plane-surface $-1 47.789544358653522 0 0 -1 0 0 0 0 1 forward_v I I I I #
coedge $-1 $264 $263 $274 $378 reversed $95 $-1 #
coedge $-1 $427 $267 $264 $369 forward $261 $-1 #
edge $-1 $370 13.669134432869594 $428 19.746312449301005 $264 $429 forward 7 unknown #
vertex $-1 $369 $430 #
straight-curve $-1 -47.789544358653522 -13.669134432869594 2.8385596490121872 0 0 -1 I I #
coedge $-1 $267 $427 $269 $374 forward $261 $-1 #
straight-curve $-1 0 -13.669134432869594 8.0797352264169202 -1 0 0 I I #
edge $-1 $381 -19.746312449301005 $270 -13.669134432869594 $269 $431 forward 7 unknown #
point $-1 47.789544358653522 -13.669134432869594 8.0797352264169202 #
straight-curve $-1 -47.789544358653522 -8.3538617205426497 3.2745033696318284 0 -1 0 I I #
coedge $-1 $274 $273 $427 $432 reversed $160 $-1 #
edge $-1 $428 -8.0797352264169202 $275 -3.2745033696318284 $367 $433 forward 7 unknown #
point $-1 -47.789544358653522 -19.746312449301005 3.2745033696318284 #
point $-1 -47.789544358653522 -13.669134432869594 3.2745033696318284 #
vertex $-1 $374 $434 #
straight-curve $-1 47.789544358653522 -19.746312449301005 0 0 0 -1 I I #
plane-surface $-1 0 19.746312449301005 0 0 -1 0 0 0 -1 forward_v I I I I #
coedge $-1 $286 $285 $393 $435 forward $103 $-1 #
edge $-1 $387 13.669134432869598 $396 19.746312449301005 $301 $436 forward 7 unknown #
edge $-1 $437 -19.746312449301005 $292 -13.669134432869598 $289 $438 forward 7 unknown #
vertex $-1 $385 $439 #
straight-curve $-1 0 13.669134432869598 8.0797352264169202 1 0 0 I I #
coedge $-1 $290 $289 $296 $394 forward $283 $-1 #
point $-1 -47.789544358653522 13.669134432869598 3.2745033696318284 #
point $-1 -47.789544358653522 13.669134432869598 8.0797352264169202 #
straight-curve $-1 -47.789544358653522 8.3538617205426515 3.2745033696318284 0 -1 0 I I #
coedge $-1 $297 $296 $384 $435 reversed $298 $-1 #
edge $-1 $437 -8.0797352264169202 $299 -3.2745033696318284 $296 $440 forward 7 unknown #
point $-1 -47.789544358653522 19.746312449301008 3.2745033696318284 #
vertex $-1 $385 $441 #
straight-curve $-1 47.789544358653522 19.746312449301005 0 0 0 -1 I I #
straight-curve $-1 47.789544358653522 13.669134432869598 2.8385596490121872 0 0 -1 I I #
coedge $-1 $317 $316 $309 $400 forward $306 $-1 #
edge $-1 $401 60.856735836517863 $404 64.568614988094339 $399 $442 forward 7 unknown #
vertex $-1 $321 $443 #
straight-curve $-1 13.322208647134023 -6.603836773804014 8.0797352264169149 1 0 0 I I #
edge $-1 $404 -4.952877580353011 $318 1.6509591934510048 $317 $444 forward 7 unknown #
vertex $-1 $403 $445 #
straight-curve $-1 -29.535562199053778 -6.603836773804014 60.547835568162284 -0.80901698891910034 0 0.5877852598018023 I I #
point $-1 42.680581103173857 -6.603836773804014 8.079735226416922 #
point $-1 47.789544358653522 1.7763568394002505e-015 4.3678560748404536 #
straight-curve $-1 47.789544358653522 0 8.0797352264169202 0 1 0 I I #
vertex $-1 $324 $446 #
point $-1 44.890322209534858 -3.3019183869020097 4.0479994440420342 #
straight-curve $-1 -29.535562199053778 6.603836773804014 60.547835568162284 0.80901698891910034 0 -0.5877852598018023 I I #
coedge $-1 $332 $338 $334 $414 forward $328 $-1 #
straight-curve $-1 13.322208647134023 6.603836773804014 8.0797352264169149 -1 0 0 I I #
edge $-1 $418 1.7763568394002505e-015 $336 6.603836773804014 $334 $447 forward 7 unknown #
point $-1 47.789544358653522 6.603836773804014 4.3678560748404536 #
point $-1 47.789544358653522 6.603836773804014 8.0797352264169202 #
point $-1 42.680581103173857 6.603836773804014 8.079735226416922 #
vertex $-1 $414 $448 #
straight-curve $-1 47.789544358653522 1.7763568394002505e-015 68.936471062934785 0 0 -1 I I #
straight-curve $-1 13.322208647134023 1.7763568394002505e-015 8.0797352264169149 1 0 0 I I #
vertex $-1 $346 $449 #
point $-1 44.890322209534858 3.3019183869020061 4.0479994440420342 #
straight-curve $-1 -47.789544358653522 19.746312449301005 0 0 0 -1 I I #
point $-1 -47.789544358653522 -19.746312449301005 -8.0797352264169202 #
straight-curve $-1 -47.789544358653522 0 -8.0797352264169202 0 1 0 I I #
point $-1 -47.789544358653522 19.746312449301005 -8.0797352264169202 #
coedge $-1 $372 $368 $377 $432 forward $261 $-1 #
vertex $-1 $369 $450 #
straight-curve $-1 -47.789544358653522 0 8.0797352264169202 0 -1 0 I I #
point $-1 -47.789544358653522 -13.669134432869594 8.0797352264169202 #
straight-curve $-1 47.789544358653522 0 8.0797352264169202 0 1 0 I I #
edge $-1 $428 -47.789544358653522 $381 47.789544358653522 $377 $451 forward 7 unknown #
straight-curve $-1 -47.789544358653522 -19.746312449301005 0 0 0 -1 I I #
point $-1 47.789544358653522 -19.746312449301005 8.0797352264169202 #
edge $-1 $396 -47.789544358653522 $437 47.789544358653522 $393 $452 forward 7 unknown #
straight-curve $-1 47.789544358653522 0 8.0797352264169202 0 1 0 I I #
vertex $-1 $435 $453 #
straight-curve $-1 -47.789544358653522 0 8.0797352264169202 0 -1 0 I I #
point $-1 47.789544358653522 13.669134432869598 8.0797352264169202 #
straight-curve $-1 -47.789544358653522 19.746312449301005 0 0 0 -1 I I #
point $-1 47.789544358653522 19.746312449301005 8.0797352264169202 #
straight-curve $-1 47.789544358653522 -6.603836773804014 68.936471062934785 0 0 -1 I I #
point $-1 47.789544358653522 -6.603836773804014 8.0797352264169202 #
straight-curve $-1 47.789544358653529 -1.6509591934510031 4.36785607484045 0 1 0 I I #
point $-1 47.789544358653522 -6.603836773804014 4.3678560748404536 #
point $-1 43.493519960813956 -3.3019183869020097 3.8267677149247343 #
straight-curve $-1 47.789544358653522 0 8.0797352264169202 0 1 0 I I #
point $-1 47.789544358653522 1.7763568394002505e-015 8.0797352264169202 #
point $-1 43.493519960813956 3.3019183869020061 3.8267677149247343 #
point $-1 -47.789544358653522 -19.746312449301005 8.0797352264169202 #
straight-curve $-1 0 -19.746312449301005 8.0797352264169202 1 0 0 I I #
straight-curve $-1 0 19.746312449301005 8.0797352264169202 -1 0 0 I I #
point $-1 -47.789544358653522 19.746312449301005 8.0797352264169202 #
End-of-ACIS-data 