500 0 7 0           
7 Unknown 11 ACIS 5.0 NT 24 Thu Mar 25 18:09:01 1999 
-1 9.9999999999999995e-007 1e-010 
body $-1 $7 $-1 $8 #
body $-1 $9 $-1 $10 #
body $-1 $11 $-1 $12 #
body $-1 $13 $-1 $14 #
body $-1 $15 $-1 $16 #
body $-1 $17 $-1 $18 #
body $-1 $19 $-1 $20 #
lump $-1 $-1 $21 $0 #
transform $-1 1 0 0 0 1 0 0 0 1 77.344889675588234 42.294320466268573 18.889621657875526 1 rotate no_reflect no_shear #
lump $-1 $-1 $22 $1 #
transform $-1 1 0 0 0 1 0 0 0 1 77.344889675588234 42.294320466268573 18.889621657875526 1 rotate no_reflect no_shear #
lump $-1 $-1 $23 $2 #
transform $-1 1 0 0 0 1 0 0 0 1 77.344889675588234 42.294320466268573 18.889621657875526 1 rotate no_reflect no_shear #
lump $-1 $-1 $24 $3 #
transform $-1 1 0 0 0 1 0 0 0 1 77.344889675588234 42.294320466268573 18.889621657875526 1 rotate no_reflect no_shear #
lump $-1 $-1 $25 $4 #
transform $-1 1 0 0 0 1 0 0 0 1 77.344889675588234 42.294320466268573 18.889621657875526 1 rotate no_reflect no_shear #
lump $-1 $-1 $26 $5 #
transform $-1 1 0 0 0 1 0 0 0 1 77.344889675588234 42.294320466268573 18.889621657875526 1 rotate no_reflect no_shear #
lump $-1 $-1 $27 $6 #
transform $-1 1 0 0 0 1 0 0 0 1 77.344889675588234 42.294320466268573 18.889621657875526 1 rotate no_reflect no_shear #
shell $-1 $-1 $-1 $28 $-1 $7 #
shell $-1 $-1 $-1 $29 $-1 $9 #
shell $-1 $-1 $-1 $30 $-1 $11 #
shell $-1 $-1 $-1 $31 $-1 $13 #
shell $-1 $-1 $-1 $32 $-1 $15 #
shell $-1 $-1 $-1 $33 $-1 $17 #
shell $-1 $-1 $-1 $34 $-1 $19 #
face $-1 $35 $36 $21 $-1 $37 forward single #
face $-1 $38 $39 $22 $-1 $40 reversed single #
face $-1 $41 $42 $23 $-1 $43 reversed single #
face $-1 $44 $45 $24 $-1 $46 reversed single #
face $-1 $47 $48 $25 $-1 $49 forward single #
face $-1 $50 $51 $26 $-1 $52 forward single #
face $-1 $53 $54 $27 $-1 $55 forward single #
face $-1 $56 $57 $21 $-1 $58 reversed single #
loop $-1 $-1 $59 $28 #
plane-surface $-1 0 0 18.889621657875526 0 0 1 1 0 0 forward_v I I I I #
face $-1 $60 $61 $22 $-1 $62 reversed single #
loop $-1 $-1 $63 $29 #
plane-surface $-1 0 -34.913982082171685 12.116752337836575 0 0 1 1 0 0 forward_v I I I I #
face $-1 $64 $65 $23 $-1 $66 reversed single #
loop $-1 $-1 $67 $30 #
plane-surface $-1 0 34.913982082171685 12.116752337836575 0 0 1 1 0 0 forward_v I I I I #
face $-1 $68 $69 $24 $-1 $70 reversed single #
loop $-1 $-1 $71 $31 #
plane-surface $-1 50.684219974369512 -3.5169384812651039 224.89404352501904 0 -1 0 -0.61566148304635926 0 -0.78801074757464917 forward_v I I I I #
face $-1 $72 $73 $25 $-1 $74 forward single #
loop $-1 $75 $76 $32 #
cone-surface $-1 69.619702127572481 -12.657931975566008 12.553481653812479 -0.61566148304635926 0 -0.78801074757464917 0.78801074757464917 0 -0.61566148304635926 1 I I 0 1 1 forward I I I I #
face $-1 $77 $78 $26 $-1 $79 forward single #
loop $-1 $80 $81 $33 #
cone-surface $-1 69.619702127572481 -9.230059415203165 12.553481653812479 -0.61566148304635926 0 -0.78801074757464917 0.78801074757464917 0 -0.61566148304635926 1 I I 0 1 1 forward I I I I #
face $-1 $82 $83 $27 $-1 $84 forward single #
loop $-1 $85 $86 $34 #
cone-surface $-1 69.619702127572481 -5.8021868548403219 12.553481653812479 -0.61566148304635926 0 -0.78801074757464917 0.78801074757464917 0 -0.61566148304635926 1 I I 0 1 1 forward I I I I #
face $-1 $87 $88 $21 $-1 $89 reversed single #
loop $-1 $-1 $90 $35 #
plane-surface $-1 0 0 -18.889621657875526 0 0 1 1 0 0 forward_v I I I I #
coedge $-1 $91 $92 $93 $94 forward $36 $-1 #
face $-1 $95 $96 $22 $-1 $97 reversed single #
loop $-1 $-1 $98 $38 #
plane-surface $-1 0 -27.533643698074798 15.503186997856051 0 -1 0 0 0 -1 forward_v I I I I #
coedge $-1 $99 $100 $101 $102 reversed $39 $-1 #
face $-1 $103 $104 $23 $-1 $105 forward single #
loop $-1 $-1 $106 $41 #
plane-surface $-1 0 27.533643698074798 15.503186997856051 0 1 0 0 0 1 forward_v I I I I #
coedge $-1 $107 $108 $109 $110 reversed $42 $-1 #
face $-1 $111 $112 $24 $-1 $113 reversed single #
loop $-1 $-1 $114 $44 #
plane-surface $-1 -44.55231899308987 -9.2300594152031721 102.99683485634094 0.61566148304635926 0 0.78801074757464917 0.78801074757464917 0 -0.61566148304635926 forward_v I I I I #
coedge $-1 $115 $116 $117 $118 reversed $45 $-1 #
face $-1 $-1 $119 $25 $-1 $120 forward single #
loop $-1 $121 $122 $47 #
cone-surface $-1 68.709127389180935 -12.657931975566008 11.387999160459099 -0.61566148304635926 0 -0.78801074757464917 0.39400537378732459 0 -0.30783074152317963 1 I I -0.70710678118654746 0.70710678118654746 0.5 forward I I I I #
loop $-1 $-1 $123 $32 #
coedge $-1 $76 $76 $124 $125 reversed $48 $-1 #
face $-1 $-1 $126 $26 $-1 $127 forward single #
loop $-1 $128 $129 $50 #
cone-surface $-1 68.709127389180935 -9.230059415203165 11.387999160459099 -0.61566148304635926 0 -0.78801074757464917 0.39400537378732459 0 -0.30783074152317963 1 I I -0.70710678118654746 0.70710678118654746 0.5 forward I I I I #
loop $-1 $-1 $130 $33 #
coedge $-1 $81 $81 $131 $132 reversed $51 $-1 #
face $-1 $-1 $133 $27 $-1 $134 forward single #
loop $-1 $135 $136 $53 #
cone-surface $-1 68.709127389180935 -5.8021868548403219 11.387999160459099 -0.61566148304635926 0 -0.78801074757464917 0.39400537378732459 0 -0.30783074152317963 1 I I -0.70710678118654746 0.70710678118654746 0.5 forward I I I I #
loop $-1 $-1 $137 $34 #
coedge $-1 $86 $86 $138 $139 reversed $54 $-1 #
face $-1 $140 $141 $21 $-1 $142 reversed single #
loop $-1 $-1 $143 $56 #
plane-surface $-1 0 -42.294320466268573 0 0 1 0 0 0 1 forward_v I I I I #
coedge $-1 $144 $145 $146 $147 forward $57 $-1 #
coedge $-1 $148 $59 $149 $150 forward $36 $-1 #
coedge $-1 $59 $148 $151 $152 forward $36 $-1 #
coedge $-1 $153 $154 $59 $94 reversed $155 $-1 #
edge $-1 $156 -42.294320466268573 $157 42.294320466268573 $93 $158 forward 7 unknown #
face $-1 $159 $160 $22 $-1 $161 reversed single #
loop $-1 $-1 $162 $60 #
plane-surface $-1 -77.344889675588234 0 0 1 0 0 0 0 -1 forward_v I I I I #
coedge $-1 $163 $164 $165 $166 reversed $61 $-1 #
coedge $-1 $167 $63 $168 $169 reversed $39 $-1 #
coedge $-1 $63 $167 $163 $170 forward $39 $-1 #
coedge $-1 $165 $171 $63 $102 forward $172 $-1 #
edge $-1 $173 -24.83732942518273 $174 -10.076652656988955 $101 $175 forward 7 unknown #
face $-1 $176 $177 $23 $-1 $178 reversed single #
loop $-1 $-1 $179 $64 #
plane-surface $-1 0 0 18.889621657875526 0 0 1 1 0 0 forward_v I I I I #
coedge $-1 $180 $181 $182 $183 reversed $65 $-1 #
coedge $-1 $184 $67 $180 $185 forward $42 $-1 #
coedge $-1 $67 $184 $186 $187 reversed $42 $-1 #
coedge $-1 $188 $189 $67 $110 forward $177 $-1 #
edge $-1 $190 10.076652656988955 $191 24.83732942518273 $109 $192 forward 7 unknown #
face $-1 $193 $194 $24 $-1 $195 forward single #
loop $-1 $-1 $196 $68 #
plane-surface $-1 50.684219974369512 -14.94318034914124 224.89404352501904 0 1 0 0.61566148304635926 0 0.78801074757464917 forward_v I I I I #
coedge $-1 $197 $198 $199 $200 reversed $69 $-1 #
coedge $-1 $116 $71 $201 $202 reversed $45 $-1 #
coedge $-1 $71 $115 $197 $203 reversed $45 $-1 #
coedge $-1 $199 $204 $71 $118 forward $194 $-1 #
edge $-1 $205 -52.002779688403479 $206 -37.757892586108724 $117 $207 forward 7 unknown #
loop $-1 $-1 $124 $72 #
plane-surface $-1 -44.55231899308987 -9.2300594152031721 102.99683485634094 0.61566148304635926 0 0.78801074757464917 0.78801074757464917 0 -0.61566148304635926 forward_v I I I I #
loop $-1 $-1 $208 $47 #
coedge $-1 $122 $122 $123 $209 reversed $73 $-1 #
coedge $-1 $123 $123 $122 $209 forward $75 $-1 #
coedge $-1 $124 $124 $76 $125 forward $119 $-1 #
edge $-1 $210 0 $210 6.2831853071796004 $124 $211 forward 7 unknown #
loop $-1 $-1 $131 $77 #
plane-surface $-1 -44.55231899308987 -9.2300594152031721 102.99683485634094 0.61566148304635926 0 0.78801074757464917 0.78801074757464917 0 -0.61566148304635926 forward_v I I I I #
loop $-1 $-1 $212 $50 #
coedge $-1 $129 $129 $130 $213 reversed $78 $-1 #
coedge $-1 $130 $130 $129 $213 forward $80 $-1 #
coedge $-1 $131 $131 $81 $132 forward $126 $-1 #
edge $-1 $214 0 $214 6.2831853071796004 $131 $215 forward 7 unknown #
loop $-1 $-1 $138 $82 #
plane-surface $-1 -44.55231899308987 -9.2300594152031721 102.99683485634094 0.61566148304635926 0 0.78801074757464917 0.78801074757464917 0 -0.61566148304635926 forward_v I I I I #
loop $-1 $-1 $216 $53 #
coedge $-1 $136 $136 $137 $217 reversed $83 $-1 #
coedge $-1 $137 $137 $136 $217 forward $85 $-1 #
coedge $-1 $138 $138 $86 $139 forward $133 $-1 #
edge $-1 $218 0 $218 6.2831853071796004 $138 $219 forward 7 unknown #
face $-1 $220 $221 $21 $-1 $222 reversed single #
loop $-1 $-1 $223 $87 #
plane-surface $-1 -77.344889675588234 0 0 1 0 0 0 0 -1 forward_v I I I I #
coedge $-1 $224 $151 $225 $226 forward $88 $-1 #
coedge $-1 $227 $90 $224 $228 forward $57 $-1 #
coedge $-1 $90 $227 $229 $230 forward $57 $-1 #
coedge $-1 $154 $153 $90 $147 reversed $155 $-1 #
edge $-1 $231 -42.294320466268573 $232 42.294320466268573 $146 $233 forward 7 unknown #
coedge $-1 $92 $91 $234 $235 forward $36 $-1 #
coedge $-1 $236 $237 $91 $150 reversed $221 $-1 #
edge $-1 $157 -77.344889675588234 $238 77.344889675588234 $149 $239 forward 7 unknown #
coedge $-1 $143 $240 $92 $152 reversed $88 $-1 #
edge $-1 $241 -77.344889675588234 $156 77.344889675588234 $151 $242 forward 7 unknown #
coedge $-1 $146 $93 $240 $243 forward $155 $-1 #
coedge $-1 $93 $146 $236 $244 reversed $155 $-1 #
loop $-1 $-1 $153 $220 #
vertex $-1 $94 $245 #
vertex $-1 $94 $246 #
straight-curve $-1 77.344889675588234 0 18.889621657875526 0 1 0 I I #
face $-1 $247 $248 $22 $-1 $249 forward single #
loop $-1 $-1 $168 $95 #
plane-surface $-1 0 -42.294320466268573 0 0 1 0 0 0 1 forward_v I I I I #
coedge $-1 $250 $251 $252 $253 forward $96 $-1 #
coedge $-1 $252 $98 $100 $170 reversed $61 $-1 #
coedge $-1 $98 $252 $254 $255 reversed $61 $-1 #
coedge $-1 $256 $101 $98 $166 forward $172 $-1 #
edge $-1 $174 4.3651588389085489 $257 11.138028158947504 $165 $258 forward 7 unknown #
coedge $-1 $100 $99 $250 $259 reversed $39 $-1 #
coedge $-1 $260 $261 $99 $169 forward $160 $-1 #
edge $-1 $262 -77.344889675588234 $173 77.344889675588234 $168 $263 forward 7 unknown #
edge $-1 $264 -77.344889675588234 $174 77.344889675588234 $163 $265 forward 7 unknown #
coedge $-1 $101 $256 $260 $266 forward $172 $-1 #
loop $-1 $-1 $165 $247 #
vertex $-1 $169 $267 #
vertex $-1 $102 $268 #
straight-curve $-1 77.344889675588234 -17.456991041085843 12.116752337836575 0 1 0 I I #
face $-1 $269 $270 $23 $-1 $271 reversed single #
loop $-1 $-1 $189 $103 #
plane-surface $-1 77.344889675588234 0 0 -1 0 0 0 0 1 forward_v I I I I #
coedge $-1 $272 $273 $181 $274 forward $104 $-1 #
coedge $-1 $275 $106 $107 $185 reversed $65 $-1 #
coedge $-1 $106 $275 $179 $274 reversed $65 $-1 #
coedge $-1 $276 $277 $106 $183 forward $270 $-1 #
edge $-1 $278 4.3651588389085489 $279 11.138028158947504 $182 $280 forward 7 unknown #
coedge $-1 $108 $107 $277 $281 reversed $42 $-1 #
edge $-1 $190 -77.344889675588234 $278 77.344889675588234 $180 $282 forward 7 unknown #
coedge $-1 $283 $284 $108 $187 forward $285 $-1 #
edge $-1 $191 -77.344889675588234 $286 77.344889675588234 $186 $287 forward 7 unknown #
coedge $-1 $288 $109 $284 $289 reversed $177 $-1 #
coedge $-1 $109 $288 $275 $290 forward $177 $-1 #
vertex $-1 $110 $291 #
vertex $-1 $187 $292 #
straight-curve $-1 77.344889675588234 17.456991041085843 12.116752337836575 0 1 0 I I #
face $-1 $-1 $293 $24 $-1 $294 reversed single #
loop $-1 $-1 $117 $111 #
plane-surface $-1 0 0 18.889621657875526 0 0 1 1 0 0 forward_v I I I I #
coedge $-1 $295 $296 $297 $298 reversed $112 $-1 #
coedge $-1 $299 $114 $116 $203 forward $69 $-1 #
coedge $-1 $114 $299 $295 $300 forward $69 $-1 #
coedge $-1 $297 $117 $114 $200 forward $194 $-1 #
edge $-1 $206 -1.0980912263364822 $301 10.328150641539654 $199 $302 forward 7 unknown #
coedge $-1 $303 $304 $115 $202 forward $293 $-1 #
edge $-1 $305 -104.68672587362796 $205 -93.557400104633999 $201 $306 forward 7 unknown #
edge $-1 $206 136.61275800833582 $305 154.68977935117647 $116 $307 forward 7 unknown #
coedge $-1 $117 $297 $303 $308 forward $194 $-1 #
vertex $-1 $202 $309 #
vertex $-1 $118 $310 #
straight-curve $-1 25.342109987184756 -3.5169384812651039 18.889621657875523 -1 0 0 I I #
coedge $-1 $208 $208 $-1 $311 reversed $121 $-1 #
edge $-1 $312 0 $312 6.2831853071796004 $122 $313 forward 7 unknown #
vertex $-1 $125 $314 #
ellipse-curve $-1 70.22244612444085 -12.657931975566008 13.324958773378535 0.61566148304635926 0 0.78801074757464917 0.78801074757464917 0 -0.61566148304635926 1 I I #
coedge $-1 $212 $212 $-1 $315 reversed $128 $-1 #
edge $-1 $316 0 $316 6.2831853071796004 $129 $317 forward 7 unknown #
vertex $-1 $132 $318 #
ellipse-curve $-1 70.22244612444085 -9.230059415203165 13.324958773378535 0.61566148304635926 0 0.78801074757464917 0.78801074757464917 0 -0.61566148304635926 1 I I #
coedge $-1 $216 $216 $-1 $319 reversed $135 $-1 #
edge $-1 $320 0 $320 6.2831853071796004 $136 $321 forward 7 unknown #
vertex $-1 $139 $322 #
ellipse-curve $-1 70.22244612444085 -5.8021868548403219 13.324958773378535 0.61566148304635926 0 0.78801074757464917 0.78801074757464917 0 -0.61566148304635926 1 I I #
face $-1 $-1 $155 $21 $-1 $323 reversed single #
loop $-1 $-1 $236 $140 #
plane-surface $-1 0 42.294320466268573 0 0 -1 0 0 0 -1 forward_v I I I I #
coedge $-1 $324 $234 $237 $325 forward $141 $-1 #
coedge $-1 $240 $143 $144 $228 reversed $88 $-1 #
coedge $-1 $234 $324 $143 $226 reversed $141 $-1 #
edge $-1 $241 -18.889621657875526 $326 18.889621657875526 $225 $327 forward 7 unknown #
coedge $-1 $145 $144 $324 $328 forward $57 $-1 #
edge $-1 $232 -77.344889675588234 $326 77.344889675588234 $224 $329 forward 7 unknown #
coedge $-1 $237 $236 $145 $230 reversed $221 $-1 #
edge $-1 $330 -77.344889675588234 $231 77.344889675588234 $229 $331 forward 7 unknown #
vertex $-1 $147 $332 #
vertex $-1 $243 $333 #
straight-curve $-1 77.344889675588234 0 -18.889621657875526 0 -1 0 I I #
coedge $-1 $223 $225 $148 $235 reversed $141 $-1 #
edge $-1 $238 -42.294320466268573 $241 42.294320466268573 $234 $334 forward 7 unknown #
coedge $-1 $229 $149 $154 $244 forward $221 $-1 #
coedge $-1 $149 $229 $223 $325 reversed $221 $-1 #
vertex $-1 $150 $335 #
straight-curve $-1 0 42.294320466268573 18.889621657875526 -1 0 0 I I #
coedge $-1 $151 $224 $153 $243 reversed $88 $-1 #
vertex $-1 $235 $336 #
straight-curve $-1 0 -42.294320466268573 18.889621657875526 1 0 0 I I #
edge $-1 $156 -18.889621657875526 $232 18.889621657875526 $153 $337 forward 7 unknown #
edge $-1 $157 -18.889621657875526 $231 18.889621657875526 $154 $338 forward 7 unknown #
point $-1 77.344889675588234 -42.294320466268573 18.889621657875526 #
point $-1 77.344889675588234 42.294320466268573 18.889621657875526 #
face $-1 $-1 $172 $22 $-1 $339 reversed single #
loop $-1 $-1 $254 $159 #
plane-surface $-1 0 0 18.889621657875526 0 0 1 1 0 0 forward_v I I I I #
coedge $-1 $340 $162 $167 $259 forward $96 $-1 #
coedge $-1 $162 $340 $341 $342 reversed $96 $-1 #
coedge $-1 $164 $163 $162 $253 reversed $61 $-1 #
edge $-1 $343 -11.138028158947504 $264 -4.3651588389085489 $162 $344 forward 7 unknown #
coedge $-1 $341 $345 $164 $255 forward $248 $-1 #
edge $-1 $257 -77.344889675588234 $343 77.344889675588234 $254 $346 forward 7 unknown #
coedge $-1 $171 $165 $345 $347 reversed $172 $-1 #
vertex $-1 $166 $348 #
straight-curve $-1 77.344889675588234 -27.533643698074798 7.7515934989280257 0 0 1 I I #
edge $-1 $264 10.076652656988955 $262 24.83732942518273 $250 $349 forward 7 unknown #
coedge $-1 $350 $168 $171 $266 reversed $160 $-1 #
coedge $-1 $168 $350 $340 $351 forward $160 $-1 #
vertex $-1 $169 $352 #
straight-curve $-1 0 -42.294320466268573 12.116752337836575 1 0 0 I I #
vertex $-1 $259 $353 #
straight-curve $-1 0 -27.533643698074798 12.116752337836575 1 0 0 I I #
edge $-1 $354 -18.889621657875526 $173 -12.116752337836575 $171 $355 forward 7 unknown #
point $-1 77.344889675588234 -42.294320466268573 12.116752337836575 #
point $-1 77.344889675588234 -27.533643698074798 12.116752337836575 #
face $-1 $-1 $285 $23 $-1 $356 reversed single #
loop $-1 $-1 $182 $176 #
plane-surface $-1 -77.344889675588234 0 0 1 0 0 0 0 -1 forward_v I I I I #
coedge $-1 $357 $179 $288 $358 forward $104 $-1 #
coedge $-1 $179 $357 $276 $359 forward $104 $-1 #
edge $-1 $279 -77.344889675588234 $360 77.344889675588234 $179 $361 forward 7 unknown #
coedge $-1 $181 $180 $189 $290 reversed $65 $-1 #
coedge $-1 $362 $182 $273 $359 reversed $270 $-1 #
coedge $-1 $182 $362 $184 $281 forward $270 $-1 #
vertex $-1 $281 $363 #
vertex $-1 $183 $364 #
straight-curve $-1 -77.344889675588234 27.533643698074798 7.7515934989280257 0 0 1 I I #
edge $-1 $286 -24.83732942518273 $278 -10.076652656988955 $277 $365 forward 7 unknown #
straight-curve $-1 0 27.533643698074798 12.116752337836575 -1 0 0 I I #
coedge $-1 $366 $186 $362 $367 reversed $285 $-1 #
coedge $-1 $186 $366 $188 $289 forward $285 $-1 #
loop $-1 $-1 $186 $269 #
vertex $-1 $187 $368 #
straight-curve $-1 0 42.294320466268573 12.116752337836575 -1 0 0 I I #
coedge $-1 $189 $188 $272 $358 reversed $177 $-1 #
edge $-1 $369 -18.889621657875526 $191 -12.116752337836575 $188 $370 forward 7 unknown #
edge $-1 $360 -11.138028158947504 $190 -4.3651588389085489 $189 $371 forward 7 unknown #
point $-1 77.344889675588234 27.533643698074798 12.116752337836575 #
point $-1 77.344889675588234 42.294320466268573 12.116752337836575 #
loop $-1 $-1 $201 $193 #
plane-surface $-1 77.344889675588234 0 0 -1 0 0 0 0 1 forward_v I I I I #
coedge $-1 $296 $196 $198 $300 reversed $112 $-1 #
coedge $-1 $196 $295 $372 $373 reversed $112 $-1 #
coedge $-1 $204 $199 $196 $298 forward $194 $-1 #
edge $-1 $301 37.757892586108724 $374 52.002779688403479 $297 $375 forward 7 unknown #
coedge $-1 $198 $197 $304 $376 reversed $69 $-1 #
edge $-1 $377 -154.68977935117647 $301 -136.61275800833582 $295 $378 forward 7 unknown #
vertex $-1 $200 $379 #
straight-curve $-1 63.100002573293466 -4.615029707601586 18.889621657875523 0 -1 0 I I #
coedge $-1 $372 $201 $204 $308 reversed $293 $-1 #
coedge $-1 $201 $372 $299 $376 forward $293 $-1 #
vertex $-1 $202 $380 #
straight-curve $-1 77.344889675588234 -3.5169384812651039 112.44702176250952 0 0 1 I I #
straight-curve $-1 -44.55231899308987 -3.5169384812651039 102.99683485634094 0.78801074757464917 0 -0.61566148304635926 I I #
edge $-1 $374 -14.94318034914124 $205 -3.5169384812651039 $303 $381 forward 7 unknown #
point $-1 77.344889675588234 -3.5169384812651039 18.889621657875526 #
point $-1 63.10000257329348 -3.5169384812651039 18.889621657875523 #
edge $-1 $382 1 $382 0 $208 $-1 forward 7 unknown #
vertex $-1 $209 $383 #
ellipse-curve $-1 69.016958130704111 -12.657931975566008 11.782004534246424 0.61566148304635926 0 0.78801074757464917 0.78801074757464917 0 -0.61566148304635926 1 I I #
point $-1 71.010456872015496 -12.657931975566008 12.709297290332177 #
edge $-1 $384 1 $384 0 $212 $-1 forward 7 unknown #
vertex $-1 $213 $385 #
ellipse-curve $-1 69.016958130704111 -9.230059415203165 11.782004534246424 0.61566148304635926 0 0.78801074757464917 0.78801074757464917 0 -0.61566148304635926 1 I I #
point $-1 71.010456872015496 -9.230059415203165 12.709297290332177 #
edge $-1 $386 1 $386 0 $216 $-1 forward 7 unknown #
vertex $-1 $217 $387 #
ellipse-curve $-1 69.016958130704111 -5.8021868548403219 11.782004534246424 0.61566148304635926 0 0.78801074757464917 0.78801074757464917 0 -0.61566148304635926 1 I I #
point $-1 71.010456872015496 -5.8021868548403219 12.709297290332177 #
plane-surface $-1 77.344889675588234 0 0 -1 0 0 0 0 1 forward_v I I I I #
coedge $-1 $225 $223 $227 $328 reversed $141 $-1 #
edge $-1 $238 -18.889621657875526 $330 18.889621657875526 $237 $388 forward 7 unknown #
vertex $-1 $328 $389 #
straight-curve $-1 -77.344889675588234 -42.294320466268573 0 0 0 -1 I I #
edge $-1 $326 -42.294320466268573 $330 42.294320466268573 $324 $390 forward 7 unknown #
straight-curve $-1 0 -42.294320466268573 -18.889621657875526 -1 0 0 I I #
vertex $-1 $230 $391 #
straight-curve $-1 0 42.294320466268573 -18.889621657875526 1 0 0 I I #
point $-1 77.344889675588234 42.294320466268573 -18.889621657875526 #
point $-1 77.344889675588234 -42.294320466268573 -18.889621657875526 #
straight-curve $-1 -77.344889675588234 0 18.889621657875526 0 -1 0 I I #
point $-1 -77.344889675588234 42.294320466268573 18.889621657875526 #
point $-1 -77.344889675588234 -42.294320466268573 18.889621657875526 #
straight-curve $-1 77.344889675588234 -42.294320466268573 0 0 0 -1 I I #
straight-curve $-1 77.344889675588234 42.294320466268573 0 0 0 -1 I I #
plane-surface $-1 77.344889675588234 0 0 -1 0 0 0 0 1 forward_v I I I I #
coedge $-1 $251 $250 $261 $351 reversed $96 $-1 #
coedge $-1 $392 $254 $251 $342 forward $248 $-1 #
edge $-1 $343 27.533643698074798 $393 42.294320466268573 $251 $394 forward 7 unknown #
vertex $-1 $342 $395 #
straight-curve $-1 -77.344889675588234 -27.533643698074798 7.7515934989280257 0 0 -1 I I #
coedge $-1 $254 $392 $256 $347 forward $248 $-1 #
straight-curve $-1 0 -27.533643698074798 18.889621657875526 -1 0 0 I I #
edge $-1 $354 -42.294320466268573 $257 -27.533643698074798 $256 $396 forward 7 unknown #
point $-1 77.344889675588234 -27.533643698074798 18.88962165787553 #
straight-curve $-1 -77.344889675588234 -17.456991041085843 12.116752337836575 0 -1 0 I I #
coedge $-1 $261 $260 $392 $397 reversed $160 $-1 #
edge $-1 $393 -18.889621657875526 $262 -12.116752337836575 $340 $398 forward 7 unknown #
point $-1 -77.344889675588234 -42.294320466268573 12.116752337836575 #
point $-1 -77.344889675588234 -27.533643698074798 12.116752337836575 #
vertex $-1 $347 $399 #
straight-curve $-1 77.344889675588234 -42.294320466268573 0 0 0 -1 I I #
plane-surface $-1 0 42.294320466268573 0 0 -1 0 0 0 -1 forward_v I I I I #
coedge $-1 $273 $272 $366 $400 forward $104 $-1 #
edge $-1 $360 27.533643698074798 $369 42.294320466268573 $288 $401 forward 7 unknown #
edge $-1 $402 -42.294320466268573 $279 -27.533643698074798 $276 $403 forward 7 unknown #
vertex $-1 $358 $404 #
straight-curve $-1 0 27.533643698074798 18.889621657875526 1 0 0 I I #
coedge $-1 $277 $276 $283 $367 forward $270 $-1 #
point $-1 -77.344889675588234 27.533643698074798 12.116752337836575 #
point $-1 -77.344889675588234 27.533643698074798 18.88962165787553 #
straight-curve $-1 -77.344889675588234 17.456991041085843 12.116752337836575 0 -1 0 I I #
coedge $-1 $284 $283 $357 $400 reversed $285 $-1 #
edge $-1 $402 -18.889621657875526 $286 -12.116752337836575 $283 $405 forward 7 unknown #
point $-1 -77.344889675588234 42.294320466268573 12.116752337836575 #
vertex $-1 $358 $406 #
straight-curve $-1 77.344889675588234 42.294320466268573 0 0 0 -1 I I #
straight-curve $-1 77.344889675588234 27.533643698074798 7.7515934989280257 0 0 -1 I I #
coedge $-1 $304 $303 $296 $373 forward $293 $-1 #
edge $-1 $374 93.557400104633999 $377 104.68672587362796 $372 $407 forward 7 unknown #
vertex $-1 $308 $408 #
straight-curve $-1 25.342109987184756 -14.94318034914124 18.889621657875523 1 0 0 I I #
edge $-1 $377 -10.328150641539654 $305 1.0980912263364822 $304 $409 forward 7 unknown #
vertex $-1 $376 $410 #
straight-curve $-1 -44.55231899308987 -14.94318034914124 102.99683485634094 -0.78801074757464917 0 0.61566148304635926 I I #
point $-1 63.10000257329348 -14.94318034914124 18.889621657875523 #
point $-1 77.344889675588234 -3.5169384812651039 7.7602958888815579 #
straight-curve $-1 77.344889675588234 0 18.889621657875526 0 1 0 I I #
vertex $-1 $311 $411 #
point $-1 69.804968878278757 -12.657931975566008 11.166343051200064 #
vertex $-1 $315 $412 #
point $-1 69.804968878278757 -9.230059415203165 11.166343051200064 #
vertex $-1 $319 $413 #
point $-1 69.804968878278757 -5.8021868548403219 11.166343051200064 #
straight-curve $-1 -77.344889675588234 42.294320466268573 0 0 0 -1 I I #
point $-1 -77.344889675588234 -42.294320466268573 -18.889621657875526 #
straight-curve $-1 -77.344889675588234 0 -18.889621657875526 0 1 0 I I #
point $-1 -77.344889675588234 42.294320466268573 -18.889621657875526 #
coedge $-1 $345 $341 $350 $397 forward $248 $-1 #
vertex $-1 $342 $414 #
straight-curve $-1 -77.344889675588234 0 18.889621657875526 0 -1 0 I I #
point $-1 -77.344889675588234 -27.533643698074798 18.88962165787553 #
straight-curve $-1 77.344889675588234 0 18.889621657875526 0 1 0 I I #
edge $-1 $393 -77.344889675588234 $354 77.344889675588234 $350 $415 forward 7 unknown #
straight-curve $-1 -77.344889675588234 -42.294320466268573 0 0 0 -1 I I #
point $-1 77.344889675588234 -42.294320466268573 18.889621657875526 #
edge $-1 $369 -77.344889675588234 $402 77.344889675588234 $366 $416 forward 7 unknown #
straight-curve $-1 77.344889675588234 0 18.889621657875526 0 1 0 I I #
vertex $-1 $400 $417 #
straight-curve $-1 -77.344889675588234 0 18.889621657875526 0 -1 0 I I #
point $-1 77.344889675588234 27.533643698074798 18.88962165787553 #
straight-curve $-1 -77.344889675588234 42.294320466268573 0 0 0 -1 I I #
point $-1 77.344889675588234 42.294320466268573 18.889621657875526 #
straight-curve $-1 77.344889675588234 -14.94318034914124 112.44702176250952 0 0 -1 I I #
point $-1 77.344889675588234 -14.94318034914124 18.889621657875526 #
straight-curve $-1 77.344889675588234 -4.615029707601586 7.7602958888815508 0 1 0 I I #
point $-1 77.344889675588234 -14.94318034914124 7.7602958888815579 #
point $-1 68.401296647657759 -12.657931975566008 10.993993786671775 #
point $-1 68.401296647657759 -9.230059415203165 10.993993786671775 #
point $-1 68.401296647657759 -5.8021868548403219 10.993993786671775 #
point $-1 -77.344889675588234 -42.294320466268573 18.889621657875526 #
straight-curve $-1 0 -42.294320466268573 18.889621657875526 1 0 0 I I #
straight-curve $-1 0 42.294320466268573 18.889621657875526 -1 0 0 I I #
point $-1 -77.344889675588234 42.294320466268573 18.889621657875526 #
End-of-ACIS-data 