500 0 18 0           
7 Unknown 11 ACIS 5.0 NT 24 Thu Mar 25 15:53:16 1999 
-1 9.9999999999999995e-007 1e-010 
body $-1 $18 $-1 $19 #
body $-1 $20 $-1 $21 #
body $-1 $22 $-1 $23 #
body $-1 $24 $-1 $25 #
body $-1 $26 $-1 $27 #
body $-1 $28 $-1 $29 #
body $-1 $30 $-1 $31 #
body $-1 $32 $-1 $33 #
body $-1 $34 $-1 $35 #
body $-1 $36 $-1 $37 #
body $-1 $38 $-1 $39 #
body $-1 $40 $-1 $41 #
body $-1 $42 $-1 $43 #
body $-1 $44 $-1 $45 #
body $-1 $46 $-1 $47 #
body $-1 $48 $-1 $49 #
body $-1 $50 $-1 $51 #
body $-1 $52 $-1 $53 #
lump $-1 $-1 $54 $0 #
transform $-1 1 0 0 0 1 0 0 0 1 75.779900509659115 39.925348382169595 18.449709773037984 1 rotate no_reflect no_shear #
lump $-1 $-1 $55 $1 #
transform $-1 1 0 0 0 1 0 0 0 1 75.779900509659115 39.925348382169595 18.449709773037984 1 rotate no_reflect no_shear #
lump $-1 $-1 $56 $2 #
transform $-1 1 0 0 0 1 0 0 0 1 75.779900509659115 39.925348382169595 18.449709773037984 1 rotate no_reflect no_shear #
lump $-1 $-1 $57 $3 #
transform $-1 1 0 0 0 1 0 0 0 1 75.779900509659115 39.925348382169595 18.449709773037984 1 rotate no_reflect no_shear #
lump $-1 $-1 $58 $4 #
transform $-1 1 0 0 0 1 0 0 0 1 75.779900509659115 39.925348382169595 18.449709773037984 1 rotate no_reflect no_shear #
lump $-1 $-1 $59 $5 #
transform $-1 1 0 0 0 1 0 0 0 1 75.779900509659115 39.925348382169595 18.449709773037984 1 rotate no_reflect no_shear #
lump $-1 $-1 $60 $6 #
transform $-1 1 0 0 0 1 0 0 0 1 75.779900509659115 39.925348382169595 18.449709773037984 1 rotate no_reflect no_shear #
lump $-1 $-1 $61 $7 #
transform $-1 1 0 0 0 1 0 0 0 1 75.779900509659115 39.925348382169595 18.449709773037984 1 rotate no_reflect no_shear #
lump $-1 $-1 $62 $8 #
transform $-1 1 0 0 0 1 0 0 0 1 75.779900509659115 39.925348382169595 18.449709773037984 1 rotate no_reflect no_shear #
lump $-1 $-1 $63 $9 #
transform $-1 1 0 0 0 1 0 0 0 1 75.779900509659115 39.925348382169595 18.449709773037984 1 rotate no_reflect no_shear #
lump $-1 $-1 $64 $10 #
transform $-1 1 0 0 0 1 0 0 0 1 75.779900509659115 39.925348382169595 18.449709773037984 1 rotate no_reflect no_shear #
lump $-1 $-1 $65 $11 #
transform $-1 1 0 0 0 1 0 0 0 1 75.779900509659115 39.925348382169595 18.449709773037984 1 rotate no_reflect no_shear #
lump $-1 $-1 $66 $12 #
transform $-1 1 0 0 0 1 0 0 0 1 75.779900509659115 39.925348382169595 18.449709773037984 1 rotate no_reflect no_shear #
lump $-1 $-1 $67 $13 #
transform $-1 1 0 0 0 1 0 0 0 1 75.779900509659115 39.925348382169595 18.449709773037984 1 rotate no_reflect no_shear #
lump $-1 $-1 $68 $14 #
transform $-1 1 0 0 0 1 0 0 0 1 75.779900509659115 39.925348382169595 18.449709773037984 1 rotate no_reflect no_shear #
lump $-1 $-1 $69 $15 #
transform $-1 1 0 0 0 1 0 0 0 1 75.779900509659115 39.925348382169595 18.449709773037984 1 rotate no_reflect no_shear #
lump $-1 $-1 $70 $16 #
transform $-1 1 0 0 0 1 0 0 0 1 75.779900509659115 39.925348382169595 18.449709773037984 1 rotate no_reflect no_shear #
lump $-1 $-1 $71 $17 #
transform $-1 1 0 0 0 1 0 0 0 1 75.779900509659115 39.925348382169595 18.449709773037984 1 rotate no_reflect no_shear #
shell $-1 $-1 $-1 $72 $-1 $18 #
shell $-1 $-1 $-1 $73 $-1 $20 #
shell $-1 $-1 $-1 $74 $-1 $22 #
shell $-1 $-1 $-1 $75 $-1 $24 #
shell $-1 $-1 $-1 $76 $-1 $26 #
shell $-1 $-1 $-1 $77 $-1 $28 #
shell $-1 $-1 $-1 $78 $-1 $30 #
shell $-1 $-1 $-1 $79 $-1 $32 #
shell $-1 $-1 $-1 $80 $-1 $34 #
shell $-1 $-1 $-1 $81 $-1 $36 #
shell $-1 $-1 $-1 $82 $-1 $38 #
shell $-1 $-1 $-1 $83 $-1 $40 #
shell $-1 $-1 $-1 $84 $-1 $42 #
shell $-1 $-1 $-1 $85 $-1 $44 #
shell $-1 $-1 $-1 $86 $-1 $46 #
shell $-1 $-1 $-1 $87 $-1 $48 #
shell $-1 $-1 $-1 $88 $-1 $50 #
shell $-1 $-1 $-1 $89 $-1 $52 #
face $-1 $90 $91 $54 $-1 $92 forward single #
face $-1 $93 $94 $55 $-1 $95 reversed single #
face $-1 $96 $97 $56 $-1 $98 reversed single #
face $-1 $99 $100 $57 $-1 $101 forward single #
face $-1 $102 $103 $58 $-1 $104 forward single #
face $-1 $105 $106 $59 $-1 $107 forward single #
face $-1 $108 $109 $60 $-1 $110 reversed single #
face $-1 $111 $112 $61 $-1 $113 forward single #
face $-1 $114 $115 $62 $-1 $116 forward single #
face $-1 $117 $118 $63 $-1 $119 forward single #
face $-1 $120 $121 $64 $-1 $122 reversed single #
face $-1 $123 $124 $65 $-1 $125 forward single #
face $-1 $126 $127 $66 $-1 $128 forward single #
face $-1 $129 $130 $67 $-1 $131 forward single #
face $-1 $132 $133 $68 $-1 $134 reversed single #
face $-1 $135 $136 $69 $-1 $137 forward single #
face $-1 $138 $139 $70 $-1 $140 forward single #
face $-1 $141 $142 $71 $-1 $143 forward single #
face $-1 $144 $145 $54 $-1 $146 reversed single #
loop $-1 $-1 $147 $72 #
plane-surface $-1 0 0 18.449709773037984 0 0 1 1 0 0 forward_v I I I I #
face $-1 $148 $149 $55 $-1 $150 reversed single #
loop $-1 $-1 $151 $73 #
plane-surface $-1 -66.585698481199884 -19.015369662054535 0 0 1 0 0 0 1 forward_v I I I I #
face $-1 $152 $153 $56 $-1 $154 reversed single #
loop $-1 $-1 $155 $74 #
plane-surface $-1 -35.88826014217328 -171.17998742973407 87.651850210313114 -1 0 0 0 -0.86602541151947299 0.49999998660252726 forward_v I I I I #
face $-1 $156 $157 $57 $-1 $158 forward single #
loop $-1 $159 $160 $75 #
cone-surface $-1 -53.090849190627175 -35.434324266385545 13.66422979119938 0 0.86602541151947299 -0.49999998660252726 1.5 0 0 1 I I 0 1 1.5 forward I I I I #
face $-1 $161 $162 $58 $-1 $163 forward single #
loop $-1 $164 $165 $76 #
cone-surface $-1 -46.63987829745696 -35.434324266385545 13.66422979119938 0 0.86602541151947299 -0.49999998660252726 1.5 0 0 1 I I 0 1 1.5 forward I I I I #
face $-1 $166 $167 $59 $-1 $168 forward single #
loop $-1 $169 $170 $77 #
cone-surface $-1 -40.188907404286752 -35.434324266385545 13.66422979119938 0 0.86602541151947299 -0.49999998660252726 1.5 0 0 1 I I 0 1 1.5 forward I I I I #
face $-1 $171 $172 $60 $-1 $173 reversed single #
loop $-1 $-1 $174 $78 #
plane-surface $-1 30.697438339026597 -171.17998742973407 87.651850210313114 -1 0 0 0 -0.86602541151947299 0.49999998660252726 forward_v I I I I #
face $-1 $175 $176 $61 $-1 $177 forward single #
loop $-1 $178 $179 $79 #
cone-surface $-1 13.494849290572716 -35.434324266385545 13.66422979119938 0 0.86602541151947299 -0.49999998660252726 1.5 0 0 1 I I 0 1 1.5 forward I I I I #
face $-1 $180 $181 $62 $-1 $182 forward single #
loop $-1 $183 $184 $80 #
cone-surface $-1 19.945820183742924 -35.434324266385545 13.66422979119938 0 0.86602541151947299 -0.49999998660252726 1.5 0 0 1 I I 0 1 1.5 forward I I I I #
face $-1 $185 $186 $63 $-1 $187 forward single #
loop $-1 $188 $189 $81 #
cone-surface $-1 26.396791076913132 -35.434324266385545 13.66422979119938 0 0.86602541151947299 -0.49999998660252726 1.5 0 0 1 I I 0 1 1.5 forward I I I I #
face $-1 $190 $191 $64 $-1 $192 reversed single #
loop $-1 $-1 $193 $82 #
plane-surface $-1 -57.391496452740654 131.25464011736199 156.80458273576662 1 0 0 0 -0.86602541151947299 -0.49999998660252726 forward_v I I I I #
face $-1 $194 $195 $65 $-1 $196 forward single #
loop $-1 $197 $198 $83 #
cone-surface $-1 -53.090849190627175 35.434324266385545 13.664229791199395 0 -0.86602541151947299 -0.49999998660252726 1.5 0 0 1 I I 0 1 1.5 forward I I I I #
face $-1 $199 $200 $66 $-1 $201 forward single #
loop $-1 $202 $203 $84 #
cone-surface $-1 -46.63987829745696 35.434324266385545 13.664229791199395 0 -0.86602541151947299 -0.49999998660252726 1.5 0 0 1 I I 0 1 1.5 forward I I I I #
face $-1 $204 $205 $67 $-1 $206 forward single #
loop $-1 $207 $208 $85 #
cone-surface $-1 -40.188907404286752 35.434324266385545 13.664229791199395 0 -0.86602541151947299 -0.49999998660252726 1.5 0 0 1 I I 0 1 1.5 forward I I I I #
face $-1 $209 $210 $68 $-1 $211 reversed single #
loop $-1 $-1 $212 $86 #
plane-surface $-1 9.194202028459225 131.25464011736199 156.80458273576662 1 0 0 0 -0.86602541151947299 -0.49999998660252726 forward_v I I I I #
face $-1 $213 $214 $69 $-1 $215 forward single #
loop $-1 $216 $217 $87 #
cone-surface $-1 13.494849290572716 35.434324266385545 13.664229791199395 0 -0.86602541151947299 -0.49999998660252726 1.5 0 0 1 I I 0 1 1.5 forward I I I I #
face $-1 $218 $219 $70 $-1 $220 forward single #
loop $-1 $221 $222 $88 #
cone-surface $-1 19.945820183742924 35.434324266385545 13.664229791199395 0 -0.86602541151947299 -0.49999998660252726 1.5 0 0 1 I I 0 1 1.5 forward I I I I #
face $-1 $223 $224 $71 $-1 $225 forward single #
loop $-1 $226 $227 $89 #
cone-surface $-1 26.396791076913132 35.434324266385545 13.664229791199395 0 -0.86602541151947299 -0.49999998660252726 1.5 0 0 1 I I 0 1 1.5 forward I I I I #
face $-1 $228 $229 $54 $-1 $230 reversed single #
loop $-1 $-1 $231 $90 #
plane-surface $-1 0 0 -18.449709773037984 0 0 1 1 0 0 forward_v I I I I #
coedge $-1 $232 $233 $234 $235 forward $91 $-1 #
face $-1 $236 $237 $55 $-1 $238 reversed single #
loop $-1 $-1 $239 $93 #
plane-surface $-1 -66.585698481199884 -12.059017711556319 0 0 -1 0 0 0 -1 forward_v I I I I #
coedge $-1 $240 $241 $242 $243 reversed $94 $-1 #
face $-1 $244 $245 $56 $-1 $246 reversed single #
loop $-1 $-1 $247 $96 #
plane-surface $-1 -46.639878297456967 -39.925348382169545 11.871951731172302 0 -0.86602541151947299 0.49999998660252726 1 0 0 forward_v I I I I #
coedge $-1 $248 $249 $250 $251 reversed $97 $-1 #
face $-1 $-1 $252 $57 $-1 $253 forward single #
loop $-1 $254 $255 $99 #
cone-surface $-1 -53.090849190627175 -32.192616212190664 11.792628840341717 0 0.86602541151947299 -0.49999998660252726 0.75 0 0 1 I I -0.70710678118654757 0.70710678118654757 0.75 forward I I I I #
loop $-1 $-1 $256 $75 #
coedge $-1 $160 $160 $257 $258 reversed $100 $-1 #
face $-1 $-1 $259 $58 $-1 $260 forward single #
loop $-1 $261 $262 $102 #
cone-surface $-1 -46.63987829745696 -32.192616212190664 11.792628840341717 0 0.86602541151947299 -0.49999998660252726 0.75 0 0 1 I I -0.70710678118654757 0.70710678118654757 0.75 forward I I I I #
loop $-1 $-1 $263 $76 #
coedge $-1 $165 $165 $264 $265 reversed $103 $-1 #
face $-1 $-1 $266 $59 $-1 $267 forward single #
loop $-1 $268 $269 $105 #
cone-surface $-1 -40.188907404286752 -32.192616212190664 11.792628840341717 0 0.86602541151947299 -0.49999998660252726 0.75 0 0 1 I I -0.70710678118654757 0.70710678118654757 0.75 forward I I I I #
loop $-1 $-1 $270 $77 #
coedge $-1 $170 $170 $271 $272 reversed $106 $-1 #
face $-1 $273 $274 $60 $-1 $275 reversed single #
loop $-1 $-1 $276 $108 #
plane-surface $-1 19.94582018374291 -39.925348382169545 11.871951731172302 0 -0.86602541151947299 0.49999998660252726 1 0 0 forward_v I I I I #
coedge $-1 $277 $278 $279 $280 reversed $109 $-1 #
face $-1 $-1 $281 $61 $-1 $282 forward single #
loop $-1 $283 $284 $111 #
cone-surface $-1 13.494849290572716 -32.192616212190664 11.792628840341717 0 0.86602541151947299 -0.49999998660252726 0.75 0 0 1 I I -0.70710678118654757 0.70710678118654757 0.75 forward I I I I #
loop $-1 $-1 $285 $79 #
coedge $-1 $179 $179 $286 $287 reversed $112 $-1 #
face $-1 $-1 $288 $62 $-1 $289 forward single #
loop $-1 $290 $291 $114 #
cone-surface $-1 19.945820183742924 -32.192616212190664 11.792628840341717 0 0.86602541151947299 -0.49999998660252726 0.75 0 0 1 I I -0.70710678118654757 0.70710678118654757 0.75 forward I I I I #
loop $-1 $-1 $292 $80 #
coedge $-1 $184 $184 $293 $294 reversed $115 $-1 #
face $-1 $-1 $295 $63 $-1 $296 forward single #
loop $-1 $297 $298 $117 #
cone-surface $-1 26.396791076913132 -32.192616212190664 11.792628840341717 0 0.86602541151947299 -0.49999998660252726 0.75 0 0 1 I I -0.70710678118654757 0.70710678118654757 0.75 forward I I I I #
loop $-1 $-1 $299 $81 #
coedge $-1 $189 $189 $300 $301 reversed $118 $-1 #
face $-1 $302 $303 $64 $-1 $304 reversed single #
loop $-1 $-1 $305 $120 #
plane-surface $-1 -46.639878297456967 1.0697974630602403e-006 81.024684256625804 0 0.86602541151947299 0.49999998660252726 1 0 0 forward_v I I I I #
coedge $-1 $306 $307 $308 $309 reversed $121 $-1 #
face $-1 $-1 $310 $65 $-1 $311 forward single #
loop $-1 $312 $313 $123 #
cone-surface $-1 -53.090849190627175 32.192616212190664 11.792628840341731 0 -0.86602541151947299 -0.49999998660252726 0.75 0 0 1 I I -0.70710678118654757 0.70710678118654757 0.75 forward I I I I #
loop $-1 $-1 $314 $83 #
coedge $-1 $198 $198 $315 $316 reversed $124 $-1 #
face $-1 $-1 $317 $66 $-1 $318 forward single #
loop $-1 $319 $320 $126 #
cone-surface $-1 -46.63987829745696 32.192616212190664 11.792628840341731 0 -0.86602541151947299 -0.49999998660252726 0.75 0 0 1 I I -0.70710678118654757 0.70710678118654757 0.75 forward I I I I #
loop $-1 $-1 $321 $84 #
coedge $-1 $203 $203 $322 $323 reversed $127 $-1 #
face $-1 $-1 $324 $67 $-1 $325 forward single #
loop $-1 $326 $327 $129 #
cone-surface $-1 -40.188907404286752 32.192616212190664 11.792628840341731 0 -0.86602541151947299 -0.49999998660252726 0.75 0 0 1 I I -0.70710678118654757 0.70710678118654757 0.75 forward I I I I #
loop $-1 $-1 $328 $85 #
coedge $-1 $208 $208 $329 $330 reversed $130 $-1 #
face $-1 $331 $332 $68 $-1 $333 reversed single #
loop $-1 $-1 $334 $132 #
plane-surface $-1 19.94582018374291 1.0697974630602403e-006 81.024684256625804 0 0.86602541151947299 0.49999998660252726 1 0 0 forward_v I I I I #
coedge $-1 $335 $336 $337 $338 reversed $133 $-1 #
face $-1 $-1 $339 $69 $-1 $340 forward single #
loop $-1 $341 $342 $135 #
cone-surface $-1 13.494849290572716 32.192616212190664 11.792628840341731 0 -0.86602541151947299 -0.49999998660252726 0.75 0 0 1 I I -0.70710678118654757 0.70710678118654757 0.75 forward I I I I #
loop $-1 $-1 $343 $87 #
coedge $-1 $217 $217 $344 $345 reversed $136 $-1 #
face $-1 $-1 $346 $70 $-1 $347 forward single #
loop $-1 $348 $349 $138 #
cone-surface $-1 19.945820183742924 32.192616212190664 11.792628840341731 0 -0.86602541151947299 -0.49999998660252726 0.75 0 0 1 I I -0.70710678118654757 0.70710678118654757 0.75 forward I I I I #
loop $-1 $-1 $350 $88 #
coedge $-1 $222 $222 $351 $352 reversed $139 $-1 #
face $-1 $-1 $353 $71 $-1 $354 forward single #
loop $-1 $355 $356 $141 #
cone-surface $-1 26.396791076913132 32.192616212190664 11.792628840341731 0 -0.86602541151947299 -0.49999998660252726 0.75 0 0 1 I I -0.70710678118654757 0.70710678118654757 0.75 forward I I I I #
loop $-1 $-1 $357 $89 #
coedge $-1 $227 $227 $358 $359 reversed $142 $-1 #
face $-1 $360 $361 $54 $-1 $362 reversed single #
loop $-1 $-1 $363 $144 #
plane-surface $-1 0 -39.925348382169595 0 0 1 0 0 0 1 forward_v I I I I #
coedge $-1 $364 $365 $366 $367 forward $145 $-1 #
coedge $-1 $368 $147 $369 $370 forward $91 $-1 #
coedge $-1 $147 $368 $371 $372 forward $91 $-1 #
coedge $-1 $373 $374 $147 $235 reversed $375 $-1 #
edge $-1 $376 -39.925348382169595 $377 39.925348382169595 $234 $378 forward 7 unknown #
face $-1 $379 $380 $55 $-1 $381 reversed single #
loop $-1 $-1 $382 $148 #
plane-surface $-1 -57.391496452740654 -15.537193686805427 0 -1 0 0 0 0 1 forward_v I I I I #
coedge $-1 $383 $384 $385 $386 forward $149 $-1 #
coedge $-1 $387 $151 $388 $389 reversed $94 $-1 #
coedge $-1 $151 $387 $390 $391 reversed $94 $-1 #
coedge $-1 $392 $393 $151 $243 forward $394 $-1 #
edge $-1 $395 -18.449709773037984 $396 18.449709773037984 $242 $397 forward 7 unknown #
face $-1 $398 $399 $56 $-1 $400 reversed single #
loop $-1 $-1 $401 $152 #
plane-surface $-1 -57.391496452740654 -171.17998742973407 87.651850210313114 1 0 0 0 0.86602541151947299 -0.49999998660252726 forward_v I I I I #
coedge $-1 $402 $403 $404 $405 reversed $153 $-1 #
coedge $-1 $249 $155 $406 $407 reversed $97 $-1 #
coedge $-1 $155 $248 $402 $408 reversed $97 $-1 #
coedge $-1 $404 $409 $155 $251 forward $410 $-1 #
edge $-1 $411 45.66464533269744 $412 49.462315573155038 $250 $413 forward 7 unknown #
loop $-1 $-1 $257 $156 #
plane-surface $-1 -46.639878297456967 -39.925348382169545 11.871951731172302 0 -0.86602541151947299 0.49999998660252726 1 0 0 forward_v I I I I #
loop $-1 $-1 $414 $99 #
coedge $-1 $255 $255 $256 $415 reversed $157 $-1 #
coedge $-1 $256 $256 $255 $415 forward $159 $-1 #
coedge $-1 $257 $257 $160 $258 forward $252 $-1 #
edge $-1 $416 -8.7831292308198e-016 $416 6.2831853071795996 $257 $417 forward 7 unknown #
loop $-1 $-1 $264 $161 #
plane-surface $-1 -46.639878297456967 -39.925348382169545 11.871951731172302 0 -0.86602541151947299 0.49999998660252726 1 0 0 forward_v I I I I #
loop $-1 $-1 $418 $102 #
coedge $-1 $262 $262 $263 $419 reversed $162 $-1 #
coedge $-1 $263 $263 $262 $419 forward $164 $-1 #
coedge $-1 $264 $264 $165 $265 forward $259 $-1 #
edge $-1 $420 -8.7831292308198e-016 $420 6.2831853071795996 $264 $421 forward 7 unknown #
loop $-1 $-1 $271 $166 #
plane-surface $-1 -46.639878297456967 -39.925348382169545 11.871951731172302 0 -0.86602541151947299 0.49999998660252726 1 0 0 forward_v I I I I #
loop $-1 $-1 $422 $105 #
coedge $-1 $269 $269 $270 $423 reversed $167 $-1 #
coedge $-1 $270 $270 $269 $423 forward $169 $-1 #
coedge $-1 $271 $271 $170 $272 forward $266 $-1 #
edge $-1 $424 -8.7831292308198e-016 $424 6.2831853071795996 $271 $425 forward 7 unknown #
face $-1 $426 $427 $60 $-1 $428 reversed single #
loop $-1 $-1 $429 $171 #
plane-surface $-1 9.194202028459225 -171.17998742973407 87.651850210313114 1 0 0 0 0.86602541151947299 -0.49999998660252726 forward_v I I I I #
coedge $-1 $430 $431 $432 $433 reversed $172 $-1 #
coedge $-1 $278 $174 $434 $435 reversed $109 $-1 #
coedge $-1 $174 $277 $430 $436 reversed $109 $-1 #
coedge $-1 $432 $437 $174 $280 forward $438 $-1 #
edge $-1 $439 45.66464533269744 $440 49.462315573155038 $279 $441 forward 7 unknown #
loop $-1 $-1 $286 $175 #
plane-surface $-1 19.94582018374291 -39.925348382169545 11.871951731172302 0 -0.86602541151947299 0.49999998660252726 1 0 0 forward_v I I I I #
loop $-1 $-1 $442 $111 #
coedge $-1 $284 $284 $285 $443 reversed $176 $-1 #
coedge $-1 $285 $285 $284 $443 forward $178 $-1 #
coedge $-1 $286 $286 $179 $287 forward $281 $-1 #
edge $-1 $444 -8.7831292308198e-016 $444 6.2831853071795996 $286 $445 forward 7 unknown #
loop $-1 $-1 $293 $180 #
plane-surface $-1 19.94582018374291 -39.925348382169545 11.871951731172302 0 -0.86602541151947299 0.49999998660252726 1 0 0 forward_v I I I I #
loop $-1 $-1 $446 $114 #
coedge $-1 $291 $291 $292 $447 reversed $181 $-1 #
coedge $-1 $292 $292 $291 $447 forward $183 $-1 #
coedge $-1 $293 $293 $184 $294 forward $288 $-1 #
edge $-1 $448 -8.7831292308198e-016 $448 6.2831853071795996 $293 $449 forward 7 unknown #
loop $-1 $-1 $300 $185 #
plane-surface $-1 19.94582018374291 -39.925348382169545 11.871951731172302 0 -0.86602541151947299 0.49999998660252726 1 0 0 forward_v I I I I #
loop $-1 $-1 $450 $117 #
coedge $-1 $298 $298 $299 $451 reversed $186 $-1 #
coedge $-1 $299 $299 $298 $451 forward $188 $-1 #
coedge $-1 $300 $300 $189 $301 forward $295 $-1 #
edge $-1 $452 -8.7831292308198e-016 $452 6.2831853071795996 $300 $453 forward 7 unknown #
face $-1 $454 $455 $64 $-1 $456 reversed single #
loop $-1 $-1 $457 $190 #
plane-surface $-1 -35.88826014217328 131.25464011736199 156.80458273576662 -1 0 0 0 0.86602541151947299 0.49999998660252726 forward_v I I I I #
coedge $-1 $458 $459 $460 $461 reversed $191 $-1 #
coedge $-1 $307 $193 $462 $463 reversed $121 $-1 #
coedge $-1 $193 $306 $458 $464 reversed $121 $-1 #
coedge $-1 $460 $465 $193 $309 forward $466 $-1 #
edge $-1 $467 25.701971676511398 $468 29.499641916969018 $308 $469 forward 7 unknown #
loop $-1 $-1 $315 $194 #
plane-surface $-1 -46.639878297456967 1.0697974630602403e-006 81.024684256625804 0 0.86602541151947299 0.49999998660252726 1 0 0 forward_v I I I I #
loop $-1 $-1 $470 $123 #
coedge $-1 $313 $313 $314 $471 reversed $195 $-1 #
coedge $-1 $314 $314 $313 $471 forward $197 $-1 #
coedge $-1 $315 $315 $198 $316 forward $310 $-1 #
edge $-1 $472 -5.3821628349850895e-016 $472 6.2831853071795996 $315 $473 forward 7 unknown #
loop $-1 $-1 $322 $199 #
plane-surface $-1 -46.639878297456967 1.0697974630602403e-006 81.024684256625804 0 0.86602541151947299 0.49999998660252726 1 0 0 forward_v I I I I #
loop $-1 $-1 $474 $126 #
coedge $-1 $320 $320 $321 $475 reversed $200 $-1 #
coedge $-1 $321 $321 $320 $475 forward $202 $-1 #
coedge $-1 $322 $322 $203 $323 forward $317 $-1 #
edge $-1 $476 -5.3821628349850895e-016 $476 6.2831853071795996 $322 $477 forward 7 unknown #
loop $-1 $-1 $329 $204 #
plane-surface $-1 -46.639878297456967 1.0697974630602403e-006 81.024684256625804 0 0.86602541151947299 0.49999998660252726 1 0 0 forward_v I I I I #
loop $-1 $-1 $478 $129 #
coedge $-1 $327 $327 $328 $479 reversed $205 $-1 #
coedge $-1 $328 $328 $327 $479 forward $207 $-1 #
coedge $-1 $329 $329 $208 $330 forward $324 $-1 #
edge $-1 $480 -5.3821628349850895e-016 $480 6.2831853071795996 $329 $481 forward 7 unknown #
face $-1 $482 $483 $68 $-1 $484 forward single #
loop $-1 $-1 $485 $209 #
plane-surface $-1 30.697438339026597 131.25464011736199 156.80458273576662 -1 0 0 0 0.86602541151947299 0.49999998660252726 forward_v I I I I #
coedge $-1 $486 $487 $488 $489 reversed $210 $-1 #
coedge $-1 $336 $212 $490 $491 reversed $133 $-1 #
coedge $-1 $212 $335 $486 $492 reversed $133 $-1 #
coedge $-1 $488 $493 $212 $338 forward $483 $-1 #
edge $-1 $494 25.701971676511398 $495 29.499641916969018 $337 $496 forward 7 unknown #
loop $-1 $-1 $344 $213 #
plane-surface $-1 19.94582018374291 1.0697974630602403e-006 81.024684256625804 0 0.86602541151947299 0.49999998660252726 1 0 0 forward_v I I I I #
loop $-1 $-1 $497 $135 #
coedge $-1 $342 $342 $343 $498 reversed $214 $-1 #
coedge $-1 $343 $343 $342 $498 forward $216 $-1 #
coedge $-1 $344 $344 $217 $345 forward $339 $-1 #
edge $-1 $499 -5.3821628349850895e-016 $499 6.2831853071795996 $344 $500 forward 7 unknown #
loop $-1 $-1 $351 $218 #
plane-surface $-1 19.94582018374291 1.0697974630602403e-006 81.024684256625804 0 0.86602541151947299 0.49999998660252726 1 0 0 forward_v I I I I #
loop $-1 $-1 $501 $138 #
coedge $-1 $349 $349 $350 $502 reversed $219 $-1 #
coedge $-1 $350 $350 $349 $502 forward $221 $-1 #
coedge $-1 $351 $351 $222 $352 forward $346 $-1 #
edge $-1 $503 -5.3821628349850895e-016 $503 6.2831853071795996 $351 $504 forward 7 unknown #
loop $-1 $-1 $358 $223 #
plane-surface $-1 19.94582018374291 1.0697974630602403e-006 81.024684256625804 0 0.86602541151947299 0.49999998660252726 1 0 0 forward_v I I I I #
loop $-1 $-1 $505 $141 #
coedge $-1 $356 $356 $357 $506 reversed $224 $-1 #
coedge $-1 $357 $357 $356 $506 forward $226 $-1 #
coedge $-1 $358 $358 $227 $359 forward $353 $-1 #
edge $-1 $507 -5.3821628349850895e-016 $507 6.2831853071795996 $358 $508 forward 7 unknown #
face $-1 $509 $510 $54 $-1 $511 reversed single #
loop $-1 $-1 $512 $228 #
plane-surface $-1 -75.779900509659115 0 0 1 0 0 0 0 -1 forward_v I I I I #
coedge $-1 $513 $371 $514 $515 forward $229 $-1 #
coedge $-1 $516 $231 $513 $517 forward $145 $-1 #
coedge $-1 $231 $516 $518 $519 forward $145 $-1 #
coedge $-1 $374 $373 $231 $367 reversed $375 $-1 #
edge $-1 $520 -39.925348382169595 $521 39.925348382169595 $366 $522 forward 7 unknown #
coedge $-1 $233 $232 $523 $524 forward $91 $-1 #
coedge $-1 $525 $526 $232 $370 reversed $510 $-1 #
edge $-1 $377 -75.779900509659115 $527 75.779900509659115 $369 $528 forward 7 unknown #
coedge $-1 $363 $529 $233 $372 reversed $229 $-1 #
edge $-1 $530 -75.779900509659115 $376 75.779900509659115 $371 $531 forward 7 unknown #
coedge $-1 $366 $234 $529 $532 forward $375 $-1 #
coedge $-1 $234 $366 $525 $533 reversed $375 $-1 #
loop $-1 $-1 $373 $509 #
vertex $-1 $235 $534 #
vertex $-1 $235 $535 #
straight-curve $-1 75.779900509659115 0 18.449709773037984 0 1 0 I I #
face $-1 $536 $537 $55 $-1 $538 forward single #
loop $-1 $-1 $539 $236 #
plane-surface $-1 0 0 -18.449709773037984 0 0 1 1 0 0 forward_v I I I I #
coedge $-1 $540 $541 $387 $542 forward $237 $-1 #
coedge $-1 $543 $239 $539 $544 reversed $149 $-1 #
coedge $-1 $239 $543 $545 $546 reversed $149 $-1 #
coedge $-1 $541 $540 $239 $386 reversed $237 $-1 #
edge $-1 $547 -18.449709773037984 $548 18.449709773037984 $385 $549 forward 7 unknown #
coedge $-1 $241 $240 $382 $542 reversed $94 $-1 #
coedge $-1 $550 $551 $240 $389 forward $380 $-1 #
edge $-1 $552 24.098647212140712 $395 42.487051269059172 $388 $553 forward 7 unknown #
coedge $-1 $554 $555 $241 $391 forward $537 $-1 #
edge $-1 $396 -42.487051269059172 $556 -24.098647212140712 $390 $557 forward 7 unknown #
coedge $-1 $558 $242 $555 $559 reversed $394 $-1 #
coedge $-1 $242 $558 $550 $560 reversed $394 $-1 #
loop $-1 $-1 $558 $536 #
vertex $-1 $560 $561 #
vertex $-1 $243 $562 #
straight-curve $-1 -75.779900509659115 -19.015369662054535 0 0 0 1 I I #
face $-1 $-1 $410 $56 $-1 $563 forward single #
loop $-1 $-1 $564 $244 #
plane-surface $-1 0 -39.925348382169595 0 0 1 0 0 0 1 forward_v I I I I #
coedge $-1 $565 $566 $567 $568 reversed $245 $-1 #
coedge $-1 $569 $247 $249 $408 forward $153 $-1 #
coedge $-1 $247 $569 $565 $570 forward $153 $-1 #
coedge $-1 $567 $250 $247 $405 forward $410 $-1 #
edge $-1 $412 12.568320993444797 $571 34.071557304012174 $404 $572 forward 7 unknown #
coedge $-1 $573 $574 $248 $407 forward $399 $-1 #
edge $-1 $575 -31.95397337398434 $411 -25.376215332118573 $406 $576 forward 7 unknown #
edge $-1 $412 -7.5953406844318412 $575 9.8710762901897672e-014 $249 $577 forward 7 unknown #
coedge $-1 $250 $567 $573 $578 forward $410 $-1 #
loop $-1 $-1 $567 $398 #
vertex $-1 $407 $579 #
vertex $-1 $251 $580 #
straight-curve $-1 -35.88826014217328 -85.589993714867035 18.449709773037988 0 1 0 I I #
coedge $-1 $414 $414 $-1 $581 reversed $254 $-1 #
edge $-1 $582 0 $582 6.2831853071796004 $255 $583 forward 7 unknown #
vertex $-1 $258 $584 #
ellipse-curve $-1 -53.090849190627175 -38.026513261940778 15.160830752105126 0 -0.86602541151947299 0.49999998660252726 1.5 0 0 1 I I #
coedge $-1 $418 $418 $-1 $585 reversed $261 $-1 #
edge $-1 $586 0 $586 6.2831853071796004 $262 $587 forward 7 unknown #
vertex $-1 $265 $588 #
ellipse-curve $-1 -46.63987829745696 -38.026513261940778 15.160830752105126 0 -0.86602541151947299 0.49999998660252726 1.5 0 0 1 I I #
coedge $-1 $422 $422 $-1 $589 reversed $268 $-1 #
edge $-1 $590 0 $590 6.2831853071796004 $269 $591 forward 7 unknown #
vertex $-1 $272 $592 #
ellipse-curve $-1 -40.188907404286752 -38.026513261940778 15.160830752105126 0 -0.86602541151947299 0.49999998660252726 1.5 0 0 1 I I #
face $-1 $-1 $438 $60 $-1 $593 forward single #
loop $-1 $-1 $594 $273 #
plane-surface $-1 0 -39.925348382169595 0 0 1 0 0 0 1 forward_v I I I I #
coedge $-1 $595 $596 $597 $598 reversed $274 $-1 #
coedge $-1 $599 $276 $278 $436 forward $172 $-1 #
coedge $-1 $276 $599 $595 $600 forward $172 $-1 #
coedge $-1 $597 $279 $276 $433 forward $438 $-1 #
edge $-1 $440 -20.724528247155142 $601 0.77870806341223009 $432 $602 forward 7 unknown #
coedge $-1 $603 $604 $277 $435 forward $427 $-1 #
edge $-1 $605 -31.95397337398434 $439 -25.376215332118573 $434 $606 forward 7 unknown #
edge $-1 $440 -7.5953406844318412 $605 9.8710762901897672e-014 $278 $607 forward 7 unknown #
coedge $-1 $279 $597 $603 $608 forward $438 $-1 #
loop $-1 $-1 $597 $426 #
vertex $-1 $435 $609 #
vertex $-1 $280 $610 #
straight-curve $-1 30.697438339026597 -85.589993714867035 18.449709773037988 0 1 0 I I #
coedge $-1 $442 $442 $-1 $611 reversed $283 $-1 #
edge $-1 $612 0 $612 6.2831853071796004 $284 $613 forward 7 unknown #
vertex $-1 $287 $614 #
ellipse-curve $-1 13.494849290572716 -38.026513261940778 15.160830752105126 0 -0.86602541151947299 0.49999998660252726 1.5 0 0 1 I I #
coedge $-1 $446 $446 $-1 $615 reversed $290 $-1 #
edge $-1 $616 0 $616 6.2831853071796004 $291 $617 forward 7 unknown #
vertex $-1 $294 $618 #
ellipse-curve $-1 19.945820183742924 -38.026513261940778 15.160830752105126 0 -0.86602541151947299 0.49999998660252726 1.5 0 0 1 I I #
coedge $-1 $450 $450 $-1 $619 reversed $297 $-1 #
edge $-1 $620 0 $620 6.2831853071796004 $298 $621 forward 7 unknown #
vertex $-1 $301 $622 #
ellipse-curve $-1 26.396791076913132 -38.026513261940778 15.160830752105126 0 -0.86602541151947299 0.49999998660252726 1.5 0 0 1 I I #
face $-1 $-1 $466 $64 $-1 $623 forward single #
loop $-1 $-1 $624 $302 #
plane-surface $-1 0 39.925348382169595 0 0 -1 0 0 0 -1 forward_v I I I I #
coedge $-1 $625 $626 $627 $628 reversed $303 $-1 #
coedge $-1 $629 $305 $307 $464 forward $191 $-1 #
coedge $-1 $305 $629 $625 $630 forward $191 $-1 #
coedge $-1 $627 $308 $305 $461 forward $466 $-1 #
edge $-1 $468 -34.071557304012174 $631 -12.568320993444797 $460 $632 forward 7 unknown #
coedge $-1 $633 $634 $306 $463 forward $455 $-1 #
edge $-1 $635 -66.530339636711119 $467 -59.952581594845327 $462 $636 forward 7 unknown #
edge $-1 $468 72.255356079907358 $635 79.850696764339318 $307 $637 forward 7 unknown #
coedge $-1 $308 $627 $633 $638 forward $466 $-1 #
loop $-1 $-1 $627 $454 #
vertex $-1 $463 $639 #
vertex $-1 $309 $640 #
straight-curve $-1 -57.391496452740654 65.627320058680993 18.449709773037981 0 -1 0 I I #
coedge $-1 $470 $470 $-1 $641 reversed $312 $-1 #
edge $-1 $642 0 $642 6.2831853071796004 $313 $643 forward 7 unknown #
vertex $-1 $316 $644 #
ellipse-curve $-1 -53.090849190627175 38.026513261940764 15.160830752105129 0 0.86602541151947299 0.49999998660252726 1.5 0 0 1 I I #
coedge $-1 $474 $474 $-1 $645 reversed $319 $-1 #
edge $-1 $646 0 $646 6.2831853071796004 $320 $647 forward 7 unknown #
vertex $-1 $323 $648 #
ellipse-curve $-1 -46.63987829745696 38.026513261940764 15.160830752105129 0 0.86602541151947299 0.49999998660252726 1.5 0 0 1 I I #
coedge $-1 $478 $478 $-1 $649 reversed $326 $-1 #
edge $-1 $650 0 $650 6.2831853071796004 $327 $651 forward 7 unknown #
vertex $-1 $330 $652 #
ellipse-curve $-1 -40.188907404286752 38.026513261940764 15.160830752105129 0 0.86602541151947299 0.49999998660252726 1.5 0 0 1 I I #
face $-1 $-1 $653 $68 $-1 $654 reversed single #
loop $-1 $-1 $337 $331 #
plane-surface $-1 0 0 18.449709773037984 0 0 1 1 0 0 forward_v I I I I #
coedge $-1 $655 $656 $657 $658 reversed $332 $-1 #
coedge $-1 $659 $334 $336 $492 forward $210 $-1 #
coedge $-1 $334 $659 $655 $660 forward $210 $-1 #
coedge $-1 $657 $337 $334 $489 forward $483 $-1 #
edge $-1 $495 -0.77870806341223009 $661 20.724528247155142 $488 $662 forward 7 unknown #
coedge $-1 $663 $664 $335 $491 forward $653 $-1 #
edge $-1 $665 -66.530339636711119 $494 -59.952581594845327 $490 $666 forward 7 unknown #
edge $-1 $495 72.255356079907358 $665 79.850696764339318 $336 $667 forward 7 unknown #
coedge $-1 $337 $657 $663 $668 forward $483 $-1 #
vertex $-1 $491 $669 #
vertex $-1 $338 $670 #
straight-curve $-1 9.194202028459225 65.627320058680993 18.449709773037981 0 -1 0 I I #
coedge $-1 $497 $497 $-1 $671 reversed $341 $-1 #
edge $-1 $672 0 $672 6.2831853071796004 $342 $673 forward 7 unknown #
vertex $-1 $345 $674 #
ellipse-curve $-1 13.494849290572716 38.026513261940764 15.160830752105129 0 0.86602541151947299 0.49999998660252726 1.5 0 0 1 I I #
coedge $-1 $501 $501 $-1 $675 reversed $348 $-1 #
edge $-1 $676 0 $676 6.2831853071796004 $349 $677 forward 7 unknown #
vertex $-1 $352 $678 #
ellipse-curve $-1 19.945820183742924 38.026513261940764 15.160830752105129 0 0.86602541151947299 0.49999998660252726 1.5 0 0 1 I I #
coedge $-1 $505 $505 $-1 $679 reversed $355 $-1 #
edge $-1 $680 0 $680 6.2831853071796004 $356 $681 forward 7 unknown #
vertex $-1 $359 $682 #
ellipse-curve $-1 26.396791076913132 38.026513261940764 15.160830752105129 0 0.86602541151947299 0.49999998660252726 1.5 0 0 1 I I #
face $-1 $-1 $375 $54 $-1 $683 reversed single #
loop $-1 $-1 $525 $360 #
plane-surface $-1 0 39.925348382169595 0 0 -1 0 0 0 -1 forward_v I I I I #
coedge $-1 $684 $523 $526 $685 forward $361 $-1 #
coedge $-1 $529 $363 $364 $517 reversed $229 $-1 #
coedge $-1 $523 $684 $363 $515 reversed $361 $-1 #
edge $-1 $530 -18.449709773037984 $686 18.449709773037984 $514 $687 forward 7 unknown #
coedge $-1 $365 $364 $684 $688 forward $145 $-1 #
edge $-1 $521 -75.779900509659115 $686 75.779900509659115 $513 $689 forward 7 unknown #
coedge $-1 $526 $525 $365 $519 reversed $510 $-1 #
edge $-1 $690 -75.779900509659115 $520 75.779900509659115 $518 $691 forward 7 unknown #
vertex $-1 $367 $692 #
vertex $-1 $532 $693 #
straight-curve $-1 75.779900509659115 0 -18.449709773037984 0 -1 0 I I #
coedge $-1 $512 $514 $368 $524 reversed $361 $-1 #
edge $-1 $527 -39.925348382169595 $530 39.925348382169595 $523 $694 forward 7 unknown #
coedge $-1 $518 $369 $374 $533 forward $510 $-1 #
coedge $-1 $369 $518 $512 $685 reversed $510 $-1 #
vertex $-1 $370 $695 #
straight-curve $-1 0 39.925348382169595 18.449709773037984 -1 0 0 I I #
coedge $-1 $371 $513 $373 $532 reversed $229 $-1 #
vertex $-1 $524 $696 #
straight-curve $-1 0 -39.925348382169595 18.449709773037984 1 0 0 I I #
edge $-1 $376 -18.449709773037984 $521 18.449709773037984 $373 $697 forward 7 unknown #
edge $-1 $377 -18.449709773037984 $520 18.449709773037984 $374 $698 forward 7 unknown #
point $-1 75.779900509659115 -39.925348382169595 18.449709773037984 #
point $-1 75.779900509659115 39.925348382169595 18.449709773037984 #
face $-1 $-1 $394 $55 $-1 $699 reversed single #
loop $-1 $-1 $545 $379 #
plane-surface $-1 0 0 18.449709773037984 0 0 1 1 0 0 forward_v I I I I #
coedge $-1 $551 $550 $383 $544 forward $380 $-1 #
coedge $-1 $385 $382 $551 $700 reversed $237 $-1 #
coedge $-1 $382 $385 $554 $701 reversed $237 $-1 #
edge $-1 $556 -18.449709773037984 $552 18.449709773037984 $382 $702 forward 7 unknown #
coedge $-1 $384 $383 $558 $703 reversed $149 $-1 #
edge $-1 $704 -42.487051269059172 $548 -24.098647212140712 $539 $705 forward 7 unknown #
coedge $-1 $555 $554 $384 $546 forward $537 $-1 #
edge $-1 $547 24.098647212140712 $706 42.487051269059172 $545 $707 forward 7 unknown #
vertex $-1 $546 $708 #
vertex $-1 $544 $709 #
straight-curve $-1 -57.391496452740654 -12.059017711556319 0 0 0 -1 I I #
coedge $-1 $539 $388 $393 $560 forward $380 $-1 #
coedge $-1 $388 $539 $540 $700 forward $380 $-1 #
vertex $-1 $389 $710 #
straight-curve $-1 -33.292849240599942 -19.015369662054535 -18.449709773037984 -1 0 0 I I #
coedge $-1 $545 $390 $541 $701 forward $537 $-1 #
coedge $-1 $390 $545 $392 $559 forward $537 $-1 #
vertex $-1 $391 $711 #
straight-curve $-1 -33.292849240599942 -19.015369662054535 18.449709773037984 1 0 0 I I #
coedge $-1 $393 $392 $543 $703 forward $394 $-1 #
edge $-1 $706 12.059017711556319 $396 19.015369662054535 $392 $712 forward 7 unknown #
edge $-1 $395 -19.015369662054535 $704 -12.059017711556319 $393 $713 forward 7 unknown #
point $-1 -75.779900509659115 -19.015369662054535 -18.449709773037984 #
point $-1 -75.779900509659115 -19.015369662054535 18.449709773037984 #
plane-surface $-1 0 0 18.449709773037984 0 0 1 1 0 0 forward_v I I I I #
coedge $-1 $574 $573 $566 $714 forward $399 $-1 #
coedge $-1 $566 $401 $403 $570 reversed $245 $-1 #
coedge $-1 $401 $565 $564 $714 reversed $245 $-1 #
coedge $-1 $409 $404 $401 $568 forward $410 $-1 #
edge $-1 $571 -49.462315573155038 $715 -45.66464533269744 $567 $716 forward 7 unknown #
coedge $-1 $403 $402 $574 $717 reversed $153 $-1 #
edge $-1 $718 -9.8710762901897672e-014 $571 7.5953406844318412 $565 $719 forward 7 unknown #
vertex $-1 $405 $720 #
straight-curve $-1 -23.319939148728484 -36.127678141711996 18.449709773037984 -1 0 0 I I #
coedge $-1 $564 $406 $409 $578 reversed $399 $-1 #
coedge $-1 $406 $564 $569 $717 forward $399 $-1 #
vertex $-1 $407 $721 #
straight-curve $-1 -35.88826014217328 -39.925348382169602 43.825925105156557 0 0 1 I I #
straight-curve $-1 -35.88826014217328 -39.925348382169545 11.871951731172302 0 -0.49999998660252726 -0.86602541151947299 I I #
edge $-1 $715 -57.391496452740654 $411 -35.88826014217328 $573 $722 forward 7 unknown #
point $-1 -35.88826014217328 -39.925348382169595 18.449709773037984 #
point $-1 -35.88826014217328 -36.127678141711996 18.449709773037984 #
edge $-1 $723 1 $723 0 $414 $-1 forward 7 unknown #
vertex $-1 $415 $724 #
ellipse-curve $-1 -53.090849190627175 -32.842135270830269 12.167628830293612 0 -0.86602541151947299 0.49999998660252726 1.5 0 0 1 I I #
point $-1 -51.590849190627175 -38.026513261940821 15.160830752105149 #
edge $-1 $725 1 $725 0 $418 $-1 forward 7 unknown #
vertex $-1 $419 $726 #
ellipse-curve $-1 -46.63987829745696 -32.842135270830269 12.167628830293612 0 -0.86602541151947299 0.49999998660252726 1.5 0 0 1 I I #
point $-1 -45.13987829745696 -38.026513261940821 15.160830752105149 #
edge $-1 $727 1 $727 0 $422 $-1 forward 7 unknown #
vertex $-1 $423 $728 #
ellipse-curve $-1 -40.188907404286752 -32.842135270830269 12.167628830293612 0 -0.86602541151947299 0.49999998660252726 1.5 0 0 1 I I #
point $-1 -38.688907404286752 -38.026513261940821 15.160830752105149 #
plane-surface $-1 0 0 18.449709773037984 0 0 1 1 0 0 forward_v I I I I #
coedge $-1 $604 $603 $596 $729 forward $427 $-1 #
coedge $-1 $596 $429 $431 $600 reversed $274 $-1 #
coedge $-1 $429 $595 $594 $729 reversed $274 $-1 #
coedge $-1 $437 $432 $429 $598 forward $438 $-1 #
edge $-1 $601 -49.462315573155038 $730 -45.66464533269744 $597 $731 forward 7 unknown #
coedge $-1 $431 $430 $604 $732 reversed $172 $-1 #
edge $-1 $733 -9.8710762901897672e-014 $601 7.5953406844318412 $595 $734 forward 7 unknown #
vertex $-1 $433 $735 #
straight-curve $-1 9.9729100918714551 -36.127678141711996 18.449709773037984 -1 0 0 I I #
coedge $-1 $594 $434 $437 $608 reversed $427 $-1 #
coedge $-1 $434 $594 $599 $732 forward $427 $-1 #
vertex $-1 $435 $736 #
straight-curve $-1 30.697438339026597 -39.925348382169602 43.825925105156557 0 0 1 I I #
straight-curve $-1 30.697438339026597 -39.925348382169545 11.871951731172302 0 -0.49999998660252726 -0.86602541151947299 I I #
edge $-1 $730 9.194202028459225 $439 30.697438339026597 $603 $737 forward 7 unknown #
point $-1 30.697438339026597 -39.925348382169595 18.449709773037984 #
point $-1 30.697438339026597 -36.127678141711996 18.449709773037984 #
edge $-1 $738 1 $738 0 $442 $-1 forward 7 unknown #
vertex $-1 $443 $739 #
ellipse-curve $-1 13.494849290572716 -32.842135270830269 12.167628830293612 0 -0.86602541151947299 0.49999998660252726 1.5 0 0 1 I I #
point $-1 14.994849290572716 -38.026513261940821 15.160830752105149 #
edge $-1 $740 1 $740 0 $446 $-1 forward 7 unknown #
vertex $-1 $447 $741 #
ellipse-curve $-1 19.945820183742924 -32.842135270830269 12.167628830293612 0 -0.86602541151947299 0.49999998660252726 1.5 0 0 1 I I #
point $-1 21.445820183742924 -38.026513261940821 15.160830752105149 #
edge $-1 $742 1 $742 0 $450 $-1 forward 7 unknown #
vertex $-1 $451 $743 #
ellipse-curve $-1 26.396791076913132 -32.842135270830269 12.167628830293612 0 -0.86602541151947299 0.49999998660252726 1.5 0 0 1 I I #
point $-1 27.896791076913132 -38.026513261940821 15.160830752105149 #
plane-surface $-1 0 0 18.449709773037984 0 0 1 1 0 0 forward_v I I I I #
coedge $-1 $634 $633 $626 $744 forward $455 $-1 #
coedge $-1 $626 $457 $459 $630 reversed $303 $-1 #
coedge $-1 $457 $625 $624 $744 reversed $303 $-1 #
coedge $-1 $465 $460 $457 $628 forward $466 $-1 #
edge $-1 $631 -29.499641916969018 $745 -25.701971676511398 $627 $746 forward 7 unknown #
coedge $-1 $459 $458 $634 $747 reversed $191 $-1 #
edge $-1 $748 -79.850696764339318 $631 -72.255356079907358 $625 $749 forward 7 unknown #
vertex $-1 $461 $750 #
straight-curve $-1 -23.319939148728484 36.127678141711982 18.449709773037981 1 0 0 I I #
coedge $-1 $624 $462 $465 $638 reversed $455 $-1 #
coedge $-1 $462 $624 $629 $747 forward $455 $-1 #
vertex $-1 $463 $751 #
straight-curve $-1 -57.391496452740654 39.925348382169595 78.402291367883308 0 0 1 I I #
straight-curve $-1 -57.391496452740654 1.0697974630602403e-006 81.024684256625804 0 0.49999998660252726 -0.86602541151947299 I I #
edge $-1 $745 35.88826014217328 $467 57.391496452740654 $633 $752 forward 7 unknown #
point $-1 -57.391496452740654 39.925348382169595 18.449709773037984 #
point $-1 -57.391496452740654 36.127678141711975 18.449709773037981 #
edge $-1 $753 1 $753 0 $470 $-1 forward 7 unknown #
vertex $-1 $471 $754 #
ellipse-curve $-1 -53.090849190627175 32.842135270830269 12.167628830293626 0 0.86602541151947299 0.49999998660252726 1.5 0 0 1 I I #
point $-1 -51.590849190627175 38.026513261940821 15.160830752105163 #
edge $-1 $755 1 $755 0 $474 $-1 forward 7 unknown #
vertex $-1 $475 $756 #
ellipse-curve $-1 -46.63987829745696 32.842135270830269 12.167628830293626 0 0.86602541151947299 0.49999998660252726 1.5 0 0 1 I I #
point $-1 -45.13987829745696 38.026513261940821 15.160830752105163 #
edge $-1 $757 1 $757 0 $478 $-1 forward 7 unknown #
vertex $-1 $479 $758 #
ellipse-curve $-1 -40.188907404286752 32.842135270830269 12.167628830293626 0 0.86602541151947299 0.49999998660252726 1.5 0 0 1 I I #
point $-1 -38.688907404286752 38.026513261940821 15.160830752105163 #
loop $-1 $-1 $490 $482 #
plane-surface $-1 0 39.925348382169595 0 0 -1 0 0 0 -1 forward_v I I I I #
coedge $-1 $656 $485 $487 $660 reversed $332 $-1 #
coedge $-1 $485 $655 $759 $760 reversed $332 $-1 #
coedge $-1 $493 $488 $485 $658 forward $483 $-1 #
edge $-1 $661 -29.499641916969018 $761 -25.701971676511398 $657 $762 forward 7 unknown #
coedge $-1 $487 $486 $664 $763 reversed $210 $-1 #
edge $-1 $764 -79.850696764339318 $661 -72.255356079907358 $655 $765 forward 7 unknown #
vertex $-1 $489 $766 #
straight-curve $-1 9.9729100918714551 36.127678141711982 18.449709773037981 1 0 0 I I #
coedge $-1 $759 $490 $493 $668 reversed $653 $-1 #
coedge $-1 $490 $759 $659 $763 forward $653 $-1 #
vertex $-1 $491 $767 #
straight-curve $-1 9.194202028459225 39.925348382169595 78.402291367883308 0 0 1 I I #
straight-curve $-1 9.194202028459225 1.0697974630602403e-006 81.024684256625804 0 0.49999998660252726 -0.86602541151947299 I I #
edge $-1 $761 -30.697438339026597 $494 -9.194202028459225 $663 $768 forward 7 unknown #
point $-1 9.194202028459225 39.925348382169595 18.449709773037984 #
point $-1 9.194202028459225 36.127678141711975 18.449709773037981 #
edge $-1 $769 1 $769 0 $497 $-1 forward 7 unknown #
vertex $-1 $498 $770 #
ellipse-curve $-1 13.494849290572716 32.842135270830269 12.167628830293626 0 0.86602541151947299 0.49999998660252726 1.5 0 0 1 I I #
point $-1 14.994849290572716 38.026513261940821 15.160830752105163 #
edge $-1 $771 1 $771 0 $501 $-1 forward 7 unknown #
vertex $-1 $502 $772 #
ellipse-curve $-1 19.945820183742924 32.842135270830269 12.167628830293626 0 0.86602541151947299 0.49999998660252726 1.5 0 0 1 I I #
point $-1 21.445820183742924 38.026513261940821 15.160830752105163 #
edge $-1 $773 1 $773 0 $505 $-1 forward 7 unknown #
vertex $-1 $506 $774 #
ellipse-curve $-1 26.396791076913132 32.842135270830269 12.167628830293626 0 0.86602541151947299 0.49999998660252726 1.5 0 0 1 I I #
point $-1 27.896791076913132 38.026513261940821 15.160830752105163 #
plane-surface $-1 75.779900509659115 0 0 -1 0 0 0 0 1 forward_v I I I I #
coedge $-1 $514 $512 $516 $688 reversed $361 $-1 #
edge $-1 $527 -18.449709773037984 $690 18.449709773037984 $526 $775 forward 7 unknown #
vertex $-1 $688 $776 #
straight-curve $-1 -75.779900509659115 -39.925348382169595 0 0 0 -1 I I #
edge $-1 $686 -39.925348382169595 $690 39.925348382169595 $684 $777 forward 7 unknown #
straight-curve $-1 0 -39.925348382169595 -18.449709773037984 -1 0 0 I I #
vertex $-1 $519 $778 #
straight-curve $-1 0 39.925348382169595 -18.449709773037984 1 0 0 I I #
point $-1 75.779900509659115 39.925348382169595 -18.449709773037984 #
point $-1 75.779900509659115 -39.925348382169595 -18.449709773037984 #
straight-curve $-1 -75.779900509659115 0 18.449709773037984 0 -1 0 I I #
point $-1 -75.779900509659115 39.925348382169595 18.449709773037984 #
point $-1 -75.779900509659115 -39.925348382169595 18.449709773037984 #
straight-curve $-1 75.779900509659115 -39.925348382169595 0 0 0 -1 I I #
straight-curve $-1 75.779900509659115 39.925348382169595 0 0 0 -1 I I #
plane-surface $-1 -75.779900509659115 0 0 1 0 0 0 0 -1 forward_v I I I I #
edge $-1 $548 4.2904208681536051 $552 11.246772818651822 $551 $779 forward 7 unknown #
edge $-1 $556 -11.246772818651822 $547 -4.2904208681536051 $554 $780 forward 7 unknown #
straight-curve $-1 -57.391496452740654 -19.015369662054535 0 0 0 -1 I I #
edge $-1 $706 -18.449709773037984 $704 18.449709773037984 $558 $781 forward 7 unknown #
vertex $-1 $703 $782 #
straight-curve $-1 -33.292849240599942 -12.059017711556319 -18.449709773037984 1 0 0 I I #
vertex $-1 $559 $783 #
straight-curve $-1 -33.292849240599942 -12.059017711556319 18.449709773037984 -1 0 0 I I #
point $-1 -57.391496452740654 -12.059017711556319 18.449709773037984 #
point $-1 -57.391496452740654 -12.059017711556319 -18.449709773037984 #
point $-1 -57.391496452740654 -19.015369662054535 -18.449709773037984 #
point $-1 -57.391496452740654 -19.015369662054535 18.449709773037984 #
straight-curve $-1 -75.779900509659115 0 18.449709773037984 0 -1 0 I I #
straight-curve $-1 -75.779900509659115 0 -18.449709773037984 0 1 0 I I #
edge $-1 $715 25.376215332118573 $718 31.95397337398434 $564 $784 forward 7 unknown #
vertex $-1 $578 $785 #
straight-curve $-1 -57.391496452740654 -85.589993714867035 18.449709773037988 0 -1 0 I I #
edge $-1 $718 -34.071557304012174 $575 -12.568320993444797 $574 $786 forward 7 unknown #
vertex $-1 $717 $787 #
straight-curve $-1 -57.391496452740654 -39.925348382169545 11.871951731172302 0 0.49999998660252726 0.86602541151947299 I I #
point $-1 -57.391496452740654 -36.127678141711996 18.449709773037984 #
point $-1 -35.88826014217328 -39.925348382169595 11.871951731172217 #
straight-curve $-1 0 -39.925348382169595 18.449709773037984 1 0 0 I I #
vertex $-1 $581 $788 #
point $-1 -51.590849190627175 -32.842135270830269 12.167628830293612 #
vertex $-1 $585 $789 #
point $-1 -45.13987829745696 -32.842135270830269 12.167628830293612 #
vertex $-1 $589 $790 #
point $-1 -38.688907404286752 -32.842135270830269 12.167628830293612 #
edge $-1 $730 25.376215332118573 $733 31.95397337398434 $594 $791 forward 7 unknown #
vertex $-1 $608 $792 #
straight-curve $-1 9.194202028459225 -85.589993714867035 18.449709773037988 0 -1 0 I I #
edge $-1 $733 -0.77870806341223009 $605 20.724528247155142 $604 $793 forward 7 unknown #
vertex $-1 $732 $794 #
straight-curve $-1 9.194202028459225 -39.925348382169545 11.871951731172302 0 0.49999998660252726 0.86602541151947299 I I #
point $-1 9.194202028459225 -36.127678141711996 18.449709773037984 #
point $-1 30.697438339026597 -39.925348382169595 11.871951731172217 #
straight-curve $-1 0 -39.925348382169595 18.449709773037984 1 0 0 I I #
vertex $-1 $611 $795 #
point $-1 14.994849290572716 -32.842135270830269 12.167628830293612 #
vertex $-1 $615 $796 #
point $-1 21.445820183742924 -32.842135270830269 12.167628830293612 #
vertex $-1 $619 $797 #
point $-1 27.896791076913132 -32.842135270830269 12.167628830293612 #
edge $-1 $745 59.952581594845327 $748 66.530339636711119 $624 $798 forward 7 unknown #
vertex $-1 $638 $799 #
straight-curve $-1 -35.88826014217328 65.627320058680993 18.449709773037981 0 1 0 I I #
edge $-1 $748 12.568320993444797 $635 34.071557304012174 $634 $800 forward 7 unknown #
vertex $-1 $747 $801 #
straight-curve $-1 -35.88826014217328 1.0697974630602403e-006 81.024684256625804 0 -0.49999998660252726 0.86602541151947299 I I #
point $-1 -35.88826014217328 36.127678141711975 18.449709773037981 #
point $-1 -57.391496452740654 39.925348382169595 11.871951731172189 #
straight-curve $-1 0 39.925348382169595 18.449709773037984 -1 0 0 I I #
vertex $-1 $641 $802 #
point $-1 -51.590849190627175 32.842135270830269 12.167628830293626 #
vertex $-1 $645 $803 #
point $-1 -45.13987829745696 32.842135270830269 12.167628830293626 #
vertex $-1 $649 $804 #
point $-1 -38.688907404286752 32.842135270830269 12.167628830293626 #
coedge $-1 $664 $663 $656 $760 forward $653 $-1 #
edge $-1 $761 59.952581594845327 $764 66.530339636711119 $759 $805 forward 7 unknown #
vertex $-1 $668 $806 #
straight-curve $-1 30.697438339026597 65.627320058680993 18.449709773037981 0 1 0 I I #
edge $-1 $764 -20.724528247155142 $665 0.77870806341223009 $664 $807 forward 7 unknown #
vertex $-1 $763 $808 #
straight-curve $-1 30.697438339026597 1.0697974630602403e-006 81.024684256625804 0 -0.49999998660252726 0.86602541151947299 I I #
point $-1 30.697438339026597 36.127678141711975 18.449709773037981 #
point $-1 9.194202028459225 39.925348382169595 11.871951731172189 #
straight-curve $-1 0 39.925348382169595 18.449709773037984 -1 0 0 I I #
vertex $-1 $671 $809 #
point $-1 14.994849290572716 32.842135270830269 12.167628830293626 #
vertex $-1 $675 $810 #
point $-1 21.445820183742924 32.842135270830269 12.167628830293626 #
vertex $-1 $679 $811 #
point $-1 27.896791076913132 32.842135270830269 12.167628830293626 #
straight-curve $-1 -75.779900509659115 39.925348382169595 0 0 0 -1 I I #
point $-1 -75.779900509659115 -39.925348382169595 -18.449709773037984 #
straight-curve $-1 -75.779900509659115 0 -18.449709773037984 0 1 0 I I #
point $-1 -75.779900509659115 39.925348382169595 -18.449709773037984 #
straight-curve $-1 -57.391496452740654 -7.7685968434027135 -18.449709773037984 0 -1 0 I I #
straight-curve $-1 -57.391496452740654 -7.7685968434027135 18.449709773037984 0 1 0 I I #
straight-curve $-1 -75.779900509659115 -12.059017711556319 0 0 0 -1 I I #
point $-1 -75.779900509659115 -12.059017711556319 -18.449709773037984 #
point $-1 -75.779900509659115 -12.059017711556319 18.449709773037984 #
straight-curve $-1 -57.391496452740654 -39.925348382169602 43.825925105156557 0 0 -1 I I #
point $-1 -57.391496452740654 -39.925348382169595 18.449709773037984 #
straight-curve $-1 -23.319939148728484 -39.925348382169595 11.871951731172224 1 0 0 I I #
point $-1 -57.391496452740654 -39.925348382169595 11.871951731172217 #
point $-1 -53.090849190627175 -31.543097153551059 11.417628850389821 #
point $-1 -46.63987829745696 -31.543097153551059 11.417628850389821 #
point $-1 -40.188907404286752 -31.543097153551059 11.417628850389821 #
straight-curve $-1 9.194202028459225 -39.925348382169602 43.825925105156557 0 0 -1 I I #
point $-1 9.194202028459225 -39.925348382169595 18.449709773037984 #
straight-curve $-1 9.9729100918714551 -39.925348382169595 11.871951731172224 1 0 0 I I #
point $-1 9.194202028459225 -39.925348382169595 11.871951731172217 #
point $-1 13.494849290572716 -31.543097153551059 11.417628850389821 #
point $-1 19.945820183742924 -31.543097153551059 11.417628850389821 #
point $-1 26.396791076913132 -31.543097153551059 11.417628850389821 #
straight-curve $-1 -35.88826014217328 39.925348382169595 78.402291367883308 0 0 -1 I I #
point $-1 -35.88826014217328 39.925348382169595 18.449709773037984 #
straight-curve $-1 -23.319939148728484 39.925348382169595 11.871951731172182 -1 0 0 I I #
point $-1 -35.88826014217328 39.925348382169595 11.871951731172189 #
point $-1 -53.090849190627175 31.543097153551059 11.417628850389836 #
point $-1 -46.63987829745696 31.543097153551059 11.417628850389836 #
point $-1 -40.188907404286752 31.543097153551059 11.417628850389836 #
straight-curve $-1 30.697438339026597 39.925348382169595 78.402291367883308 0 0 -1 I I #
point $-1 30.697438339026597 39.925348382169595 18.449709773037984 #
straight-curve $-1 9.9729100918714551 39.925348382169595 11.871951731172182 -1 0 0 I I #
point $-1 30.697438339026597 39.925348382169595 11.871951731172189 #
point $-1 13.494849290572716 31.543097153551059 11.417628850389836 #
point $-1 19.945820183742924 31.543097153551059 11.417628850389836 #
point $-1 26.396791076913132 31.543097153551059 11.417628850389836 #
End-of-ACIS-data 