500 0 10 0           
7 Unknown 11 ACIS 5.0 NT 24 Fri Mar 26 18:28:50 1999 
-1 9.9999999999999995e-007 1e-010 
body $-1 $10 $-1 $11 #
body $-1 $12 $-1 $13 #
body $-1 $14 $-1 $15 #
body $-1 $16 $-1 $17 #
body $-1 $18 $-1 $19 #
body $-1 $20 $-1 $21 #
body $-1 $22 $-1 $23 #
body $-1 $24 $-1 $25 #
body $-1 $26 $-1 $27 #
body $-1 $28 $-1 $29 #
lump $-1 $-1 $30 $0 #
transform $-1 1 0 0 0 1 0 0 0 1 64.740745262001411 45.22546192505142 12.512051148691326 1 rotate no_reflect no_shear #
lump $-1 $-1 $31 $1 #
transform $-1 1 0 0 0 1 0 0 0 1 64.740745262001411 45.22546192505142 12.512051148691326 1 rotate no_reflect no_shear #
lump $-1 $-1 $32 $2 #
transform $-1 1 0 0 0 1 0 0 0 1 64.740745262001411 45.22546192505142 12.512051148691326 1 rotate no_reflect no_shear #
lump $-1 $-1 $33 $3 #
transform $-1 1 0 0 0 1 0 0 0 1 64.740745262001411 45.22546192505142 12.512051148691326 1 rotate no_reflect no_shear #
lump $-1 $-1 $34 $4 #
transform $-1 1 0 0 0 1 0 0 0 1 64.740745262001411 45.22546192505142 12.512051148691326 1 rotate no_reflect no_shear #
lump $-1 $-1 $35 $5 #
transform $-1 1 0 0 0 1 0 0 0 1 64.740745262001411 45.22546192505142 12.512051148691326 1 rotate no_reflect no_shear #
lump $-1 $-1 $36 $6 #
transform $-1 1 0 0 0 1 0 0 0 1 64.740745262001411 45.22546192505142 12.512051148691326 1 rotate no_reflect no_shear #
lump $-1 $-1 $37 $7 #
transform $-1 1 0 0 0 1 0 0 0 1 64.740745262001411 45.22546192505142 12.512051148691326 1 rotate no_reflect no_shear #
lump $-1 $-1 $38 $8 #
transform $-1 1 0 0 0 1 0 0 0 1 64.740745262001411 45.22546192505142 12.512051148691326 1 rotate no_reflect no_shear #
lump $-1 $-1 $39 $9 #
transform $-1 1 0 0 0 1 0 0 0 1 64.740745262001411 45.22546192505142 12.512051148691326 1 rotate no_reflect no_shear #
shell $-1 $-1 $-1 $40 $-1 $10 #
shell $-1 $-1 $-1 $41 $-1 $12 #
shell $-1 $-1 $-1 $42 $-1 $14 #
shell $-1 $-1 $-1 $43 $-1 $16 #
shell $-1 $-1 $-1 $44 $-1 $18 #
shell $-1 $-1 $-1 $45 $-1 $20 #
shell $-1 $-1 $-1 $46 $-1 $22 #
shell $-1 $-1 $-1 $47 $-1 $24 #
shell $-1 $-1 $-1 $48 $-1 $26 #
shell $-1 $-1 $-1 $49 $-1 $28 #
face $-1 $50 $51 $30 $-1 $52 forward single #
face $-1 $53 $54 $31 $-1 $55 reversed single #
face $-1 $56 $57 $32 $-1 $58 forward single #
face $-1 $59 $60 $33 $-1 $61 forward single #
face $-1 $62 $63 $34 $-1 $64 reversed single #
face $-1 $65 $66 $35 $-1 $67 forward single #
face $-1 $68 $69 $36 $-1 $70 forward single #
face $-1 $71 $72 $37 $-1 $73 reversed single #
face $-1 $74 $75 $38 $-1 $76 forward single #
face $-1 $77 $78 $39 $-1 $79 forward single #
face $-1 $80 $81 $30 $-1 $82 reversed single #
loop $-1 $-1 $83 $40 #
plane-surface $-1 0 0 12.512051148691326 0 0 1 1 0 0 forward_v I I I I #
face $-1 $84 $85 $31 $-1 $86 reversed single #
loop $-1 $-1 $87 $41 #
plane-surface $-1 -37.016962561678938 42.643379597263646 161.39905972190732 1 0 0 0 -0.55919291073839883 -0.82903756765294845 forward_v I I I I #
face $-1 $88 $89 $32 $-1 $90 forward single #
loop $-1 $91 $92 $42 #
cone-surface $-1 -31.554521277519086 37.80893235106582 6.9300136208170589 0 -0.55919291073839883 -0.82903756765294845 2 0 0 1 I I 0 1 2 forward I I I I #
face $-1 $93 $94 $33 $-1 $95 forward single #
loop $-1 $96 $97 $43 #
cone-surface $-1 -23.360859351279309 37.80893235106582 6.9300136208170589 0 -0.55919291073839883 -0.82903756765294845 2 0 0 1 I I 0 1 2 forward I I I I #
face $-1 $98 $99 $34 $-1 $100 reversed single #
loop $-1 $-1 $101 $44 #
plane-surface $-1 27.72378270032247 42.643379597263646 161.39905972190732 1 0 0 0 -0.55919291073839883 -0.82903756765294845 forward_v I I I I #
face $-1 $102 $103 $35 $-1 $104 forward single #
loop $-1 $105 $106 $45 #
cone-surface $-1 33.186223984482325 37.80893235106582 6.9300136208170589 0 -0.55919291073839883 -0.82903756765294845 2 0 0 1 I I 0 1 2 forward I I I I #
face $-1 $107 $108 $36 $-1 $109 forward single #
loop $-1 $110 $111 $46 #
cone-surface $-1 41.379885910722095 37.80893235106582 6.9300136208170589 0 -0.55919291073839883 -0.82903756765294845 2 0 0 1 I I 0 1 2 forward I I I I #
face $-1 $112 $113 $37 $-1 $114 reversed single #
loop $-1 $-1 $115 $47 #
plane-surface $-1 -11.398881985034802 -158.47252623442859 70.108138856796415 -1 0 0 0 -0.87461971476443456 0.48480960649040278 forward_v I I I I #
face $-1 $116 $117 $38 $-1 $118 forward single #
loop $-1 $119 $120 $48 #
cone-surface $-1 -32.498919095807899 -42.327649479908409 9.1123350468564013 0 0.87461971476443456 -0.48480960649040278 1 0 0 1 I I 0 1 1 forward I I I I #
face $-1 $121 $122 $39 $-1 $123 forward single #
loop $-1 $124 $125 $49 #
cone-surface $-1 -19.838896829344037 -42.327649479908409 9.1123350468564013 0 0.87461971476443456 -0.48480960649040278 1 0 0 1 I I 0 1 1 forward I I I I #
face $-1 $126 $127 $30 $-1 $128 reversed single #
loop $-1 $-1 $129 $50 #
plane-surface $-1 0 0 -12.512051148691326 0 0 1 1 0 0 forward_v I I I I #
coedge $-1 $130 $131 $132 $133 forward $51 $-1 #
face $-1 $134 $135 $31 $-1 $136 reversed single #
loop $-1 $-1 $137 $53 #
plane-surface $-1 -27.457690314399201 -29.761751975599893 54.054039761809733 0 0.55919291073839883 0.82903756765294845 1 0 0 forward_v I I I I #
coedge $-1 $138 $139 $140 $141 reversed $54 $-1 #
face $-1 $-1 $142 $32 $-1 $143 forward single #
loop $-1 $144 $145 $56 #
cone-surface $-1 -31.554521277519086 36.53255196287202 5.0377019120887869 0 -0.55919291073839883 -0.82903756765294845 1 0 0 1 I I -0.70710678118654746 0.70710678118654746 1 forward I I I I #
loop $-1 $-1 $146 $42 #
coedge $-1 $92 $92 $147 $148 reversed $57 $-1 #
face $-1 $-1 $149 $33 $-1 $150 forward single #
loop $-1 $151 $152 $59 #
cone-surface $-1 -23.360859351279309 36.53255196287202 5.0377019120887869 0 -0.55919291073839883 -0.82903756765294845 1 0 0 1 I I -0.70710678118654746 0.70710678118654746 1 forward I I I I #
loop $-1 $-1 $153 $43 #
coedge $-1 $97 $97 $154 $155 reversed $60 $-1 #
face $-1 $156 $157 $34 $-1 $158 reversed single #
loop $-1 $-1 $159 $62 #
plane-surface $-1 37.28305494760221 -29.761751975599893 54.054039761809733 0 0.55919291073839883 0.82903756765294845 1 0 0 forward_v I I I I #
coedge $-1 $160 $161 $162 $163 reversed $63 $-1 #
face $-1 $-1 $164 $35 $-1 $165 forward single #
loop $-1 $166 $167 $65 #
cone-surface $-1 33.186223984482325 36.53255196287202 5.0377019120887869 0 -0.55919291073839883 -0.82903756765294845 1 0 0 1 I I -0.70710678118654746 0.70710678118654746 1 forward I I I I #
loop $-1 $-1 $168 $45 #
coedge $-1 $106 $106 $169 $170 reversed $66 $-1 #
face $-1 $-1 $171 $36 $-1 $172 forward single #
loop $-1 $173 $174 $68 #
cone-surface $-1 41.379885910722095 36.53255196287202 5.0377019120887869 0 -0.55919291073839883 -0.82903756765294845 1 0 0 1 I I -0.70710678118654746 0.70710678118654746 1 forward I I I I #
loop $-1 $-1 $175 $46 #
coedge $-1 $111 $111 $176 $177 reversed $69 $-1 #
face $-1 $178 $179 $37 $-1 $180 reversed single #
loop $-1 $-1 $181 $71 #
plane-surface $-1 -26.168907962575972 -45.225461925051405 7.3342683880637907 0 -0.87461971476443456 0.48480960649040278 1 0 0 forward_v I I I I #
coedge $-1 $182 $183 $184 $185 reversed $72 $-1 #
face $-1 $-1 $186 $38 $-1 $187 forward single #
loop $-1 $188 $189 $74 #
cone-surface $-1 -32.498919095807899 -40.42757304949042 8.0591055220900412 0 0.87461971476443456 -0.48480960649040278 0.5 0 0 1 I I -0.70710678118654746 0.70710678118654746 0.5 forward I I I I #
loop $-1 $-1 $190 $48 #
coedge $-1 $120 $120 $191 $192 reversed $75 $-1 #
face $-1 $-1 $193 $39 $-1 $194 forward single #
loop $-1 $195 $196 $77 #
cone-surface $-1 -19.838896829344037 -40.42757304949042 8.0591055220900412 0 0.87461971476443456 -0.48480960649040278 0.5 0 0 1 I I -0.70710678118654746 0.70710678118654746 0.5 forward I I I I #
loop $-1 $-1 $197 $49 #
coedge $-1 $125 $125 $198 $199 reversed $78 $-1 #
face $-1 $200 $201 $30 $-1 $202 reversed single #
loop $-1 $-1 $203 $80 #
plane-surface $-1 0 -45.22546192505142 0 0 1 0 0 0 1 forward_v I I I I #
coedge $-1 $204 $205 $206 $207 forward $81 $-1 #
coedge $-1 $208 $83 $209 $210 forward $51 $-1 #
coedge $-1 $83 $208 $211 $212 forward $51 $-1 #
coedge $-1 $213 $214 $83 $133 reversed $215 $-1 #
edge $-1 $216 -45.22546192505142 $217 45.22546192505142 $132 $218 forward 7 unknown #
face $-1 $219 $220 $31 $-1 $221 reversed single #
loop $-1 $-1 $222 $84 #
plane-surface $-1 -17.898418067119461 42.643379597263646 161.39905972190732 -1 0 0 0 0.55919291073839883 0.82903756765294845 forward_v I I I I #
coedge $-1 $223 $224 $225 $226 reversed $85 $-1 #
coedge $-1 $139 $87 $227 $228 reversed $54 $-1 #
coedge $-1 $87 $138 $223 $229 reversed $54 $-1 #
coedge $-1 $225 $230 $87 $141 forward $231 $-1 #
edge $-1 $232 -23.903772126419597 $233 -10.505087933359299 $140 $234 forward 7 unknown #
loop $-1 $-1 $147 $88 #
plane-surface $-1 -27.457690314399201 -29.761751975599893 54.054039761809733 0 0.55919291073839883 0.82903756765294845 1 0 0 forward_v I I I I #
loop $-1 $-1 $235 $56 #
coedge $-1 $145 $145 $146 $236 reversed $89 $-1 #
coedge $-1 $146 $146 $145 $236 forward $91 $-1 #
coedge $-1 $147 $147 $92 $148 forward $142 $-1 #
edge $-1 $237 8.4893065693893713e-016 $237 6.2831853071796013 $147 $238 forward 7 unknown #
loop $-1 $-1 $154 $93 #
plane-surface $-1 -27.457690314399201 -29.761751975599893 54.054039761809733 0 0.55919291073839883 0.82903756765294845 1 0 0 forward_v I I I I #
loop $-1 $-1 $239 $59 #
coedge $-1 $152 $152 $153 $240 reversed $94 $-1 #
coedge $-1 $153 $153 $152 $240 forward $96 $-1 #
coedge $-1 $154 $154 $97 $155 forward $149 $-1 #
edge $-1 $241 8.4893065693893713e-016 $241 6.2831853071796013 $154 $242 forward 7 unknown #
face $-1 $243 $244 $34 $-1 $245 forward single #
loop $-1 $-1 $246 $98 #
plane-surface $-1 46.842327194881946 42.643379597263646 161.39905972190732 -1 0 0 0 0.55919291073839883 0.82903756765294845 forward_v I I I I #
coedge $-1 $247 $248 $249 $250 reversed $99 $-1 #
coedge $-1 $161 $101 $251 $252 reversed $63 $-1 #
coedge $-1 $101 $160 $247 $253 reversed $63 $-1 #
coedge $-1 $249 $254 $101 $163 forward $244 $-1 #
edge $-1 $255 -23.903772126419597 $256 -10.505087933359299 $162 $257 forward 7 unknown #
loop $-1 $-1 $169 $102 #
plane-surface $-1 37.28305494760221 -29.761751975599893 54.054039761809733 0 0.55919291073839883 0.82903756765294845 1 0 0 forward_v I I I I #
loop $-1 $-1 $258 $65 #
coedge $-1 $167 $167 $168 $259 reversed $103 $-1 #
coedge $-1 $168 $168 $167 $259 forward $105 $-1 #
coedge $-1 $169 $169 $106 $170 forward $164 $-1 #
edge $-1 $260 8.4893065693893713e-016 $260 6.2831853071796013 $169 $261 forward 7 unknown #
loop $-1 $-1 $176 $107 #
plane-surface $-1 37.28305494760221 -29.761751975599893 54.054039761809733 0 0.55919291073839883 0.82903756765294845 1 0 0 forward_v I I I I #
loop $-1 $-1 $262 $68 #
coedge $-1 $174 $174 $175 $263 reversed $108 $-1 #
coedge $-1 $175 $175 $174 $263 forward $110 $-1 #
coedge $-1 $176 $176 $111 $177 forward $171 $-1 #
edge $-1 $264 8.4893065693893713e-016 $264 6.2831853071796013 $176 $265 forward 7 unknown #
face $-1 $266 $267 $37 $-1 $268 reversed single #
loop $-1 $-1 $269 $112 #
plane-surface $-1 -40.938933940117138 -158.47252623442859 70.108138856796415 1 0 0 0 0.87461971476443456 -0.48480960649040278 forward_v I I I I #
coedge $-1 $270 $271 $272 $273 reversed $113 $-1 #
coedge $-1 $183 $115 $274 $275 reversed $72 $-1 #
coedge $-1 $115 $182 $270 $276 reversed $72 $-1 #
coedge $-1 $272 $277 $115 $185 forward $278 $-1 #
edge $-1 $279 34.010801192162873 $280 36.880892936377364 $184 $281 forward 7 unknown #
loop $-1 $-1 $191 $116 #
plane-surface $-1 -26.168907962575972 -45.225461925051405 7.3342683880637907 0 -0.87461971476443456 0.48480960649040278 1 0 0 forward_v I I I I #
loop $-1 $-1 $282 $74 #
coedge $-1 $189 $189 $190 $283 reversed $117 $-1 #
coedge $-1 $190 $190 $189 $283 forward $119 $-1 #
coedge $-1 $191 $191 $120 $192 forward $186 $-1 #
edge $-1 $284 -6.7501203358497052e-016 $284 6.2831853071795996 $191 $285 forward 7 unknown #
loop $-1 $-1 $198 $121 #
plane-surface $-1 -26.168907962575972 -45.225461925051405 7.3342683880637907 0 -0.87461971476443456 0.48480960649040278 1 0 0 forward_v I I I I #
loop $-1 $-1 $286 $77 #
coedge $-1 $196 $196 $197 $287 reversed $122 $-1 #
coedge $-1 $197 $197 $196 $287 forward $124 $-1 #
coedge $-1 $198 $198 $125 $199 forward $193 $-1 #
edge $-1 $288 -6.7501203358497052e-016 $288 6.2831853071795996 $198 $289 forward 7 unknown #
face $-1 $290 $291 $30 $-1 $292 reversed single #
loop $-1 $-1 $293 $126 #
plane-surface $-1 -64.740745262001411 0 0 1 0 0 0 0 -1 forward_v I I I I #
coedge $-1 $294 $211 $295 $296 forward $127 $-1 #
coedge $-1 $297 $129 $294 $298 forward $81 $-1 #
coedge $-1 $129 $297 $299 $300 forward $81 $-1 #
coedge $-1 $214 $213 $129 $207 reversed $215 $-1 #
edge $-1 $301 -45.22546192505142 $302 45.22546192505142 $206 $303 forward 7 unknown #
coedge $-1 $131 $130 $304 $305 forward $51 $-1 #
coedge $-1 $306 $307 $130 $210 reversed $291 $-1 #
edge $-1 $217 -64.740745262001411 $308 64.740745262001411 $209 $309 forward 7 unknown #
coedge $-1 $203 $310 $131 $212 reversed $127 $-1 #
edge $-1 $311 -64.740745262001411 $216 64.740745262001411 $211 $312 forward 7 unknown #
coedge $-1 $206 $132 $310 $313 forward $215 $-1 #
coedge $-1 $132 $206 $306 $314 reversed $215 $-1 #
loop $-1 $-1 $213 $290 #
vertex $-1 $133 $315 #
vertex $-1 $133 $316 #
straight-curve $-1 64.740745262001411 0 12.512051148691326 0 1 0 I I #
face $-1 $-1 $231 $31 $-1 $317 forward single #
loop $-1 $-1 $318 $134 #
plane-surface $-1 0 45.22546192505142 0 0 -1 0 0 0 -1 forward_v I I I I #
coedge $-1 $319 $320 $321 $322 reversed $135 $-1 #
coedge $-1 $323 $137 $139 $229 forward $85 $-1 #
coedge $-1 $137 $323 $319 $324 forward $85 $-1 #
coedge $-1 $321 $140 $137 $226 forward $231 $-1 #
edge $-1 $233 -23.288117404479337 $325 -4.1695729099198608 $225 $326 forward 7 unknown #
coedge $-1 $327 $328 $138 $228 forward $220 $-1 #
edge $-1 $329 -77.22500548586018 $232 -68.187478712262333 $227 $330 forward 7 unknown #
edge $-1 $233 74.289190394533719 $329 90.450923850102825 $139 $331 forward 7 unknown #
coedge $-1 $140 $321 $327 $332 forward $231 $-1 #
loop $-1 $-1 $321 $219 #
vertex $-1 $228 $333 #
vertex $-1 $141 $334 #
straight-curve $-1 -37.016962561678938 21.321689798631823 12.512051148691327 0 -1 0 I I #
coedge $-1 $235 $235 $-1 $335 reversed $144 $-1 #
edge $-1 $336 0 $336 6.2831853071796004 $145 $337 forward 7 unknown #
vertex $-1 $148 $338 #
ellipse-curve $-1 -31.554521277519086 38.526119828521246 7.9932877618924181 0 0.55919291073839883 0.82903756765294845 2 0 0 1 I I #
coedge $-1 $239 $239 $-1 $339 reversed $151 $-1 #
edge $-1 $340 0 $340 6.2831853071796004 $152 $341 forward 7 unknown #
vertex $-1 $155 $342 #
ellipse-curve $-1 -23.360859351279309 38.526119828521246 7.9932877618924181 0 0.55919291073839883 0.82903756765294845 2 0 0 1 I I #
face $-1 $-1 $343 $34 $-1 $344 reversed single #
loop $-1 $-1 $162 $156 #
plane-surface $-1 0 0 12.512051148691326 0 0 1 1 0 0 forward_v I I I I #
coedge $-1 $345 $346 $347 $348 reversed $157 $-1 #
coedge $-1 $349 $159 $161 $253 forward $99 $-1 #
coedge $-1 $159 $349 $345 $350 forward $99 $-1 #
coedge $-1 $347 $162 $159 $250 forward $244 $-1 #
edge $-1 $256 9.0822552265213652 $351 28.200799721080841 $249 $352 forward 7 unknown #
coedge $-1 $353 $354 $160 $252 forward $343 $-1 #
edge $-1 $355 -77.22500548586018 $255 -68.187478712262333 $251 $356 forward 7 unknown #
edge $-1 $256 74.289190394533719 $355 90.450923850102825 $161 $357 forward 7 unknown #
coedge $-1 $162 $347 $353 $358 forward $244 $-1 #
vertex $-1 $163 $359 #
vertex $-1 $163 $360 #
straight-curve $-1 27.72378270032247 21.321689798631823 12.512051148691327 0 -1 0 I I #
coedge $-1 $258 $258 $-1 $361 reversed $166 $-1 #
edge $-1 $362 0 $362 6.2831853071796004 $167 $363 forward 7 unknown #
vertex $-1 $170 $364 #
ellipse-curve $-1 33.186223984482325 38.526119828521246 7.9932877618924181 0 0.55919291073839883 0.82903756765294845 2 0 0 1 I I #
coedge $-1 $262 $262 $-1 $365 reversed $173 $-1 #
edge $-1 $366 0 $366 6.2831853071796004 $174 $367 forward 7 unknown #
vertex $-1 $177 $368 #
ellipse-curve $-1 41.379885910722095 38.526119828521246 7.9932877618924181 0 0.55919291073839883 0.82903756765294845 2 0 0 1 I I #
face $-1 $-1 $278 $37 $-1 $369 forward single #
loop $-1 $-1 $370 $178 #
plane-surface $-1 0 -45.22546192505142 0 0 1 0 0 0 1 forward_v I I I I #
coedge $-1 $371 $372 $373 $374 reversed $179 $-1 #
coedge $-1 $375 $181 $183 $276 forward $113 $-1 #
coedge $-1 $181 $375 $371 $376 forward $113 $-1 #
coedge $-1 $373 $184 $181 $273 forward $278 $-1 #
edge $-1 $280 -1.6855719962531843 $377 27.854479958829153 $272 $378 forward 7 unknown #
coedge $-1 $379 $380 $182 $275 forward $267 $-1 #
edge $-1 $381 -27.719801040334442 $279 -22.54201827970688 $274 $382 forward 7 unknown #
edge $-1 $280 -5.9200389303162355 $381 2.9417291209212814e-014 $183 $383 forward 7 unknown #
coedge $-1 $184 $373 $379 $384 forward $278 $-1 #
loop $-1 $-1 $373 $266 #
vertex $-1 $275 $385 #
vertex $-1 $185 $386 #
straight-curve $-1 -11.398881985034802 -79.236263117214293 12.512051148691327 0 1 0 I I #
coedge $-1 $282 $282 $-1 $387 reversed $188 $-1 #
edge $-1 $388 0 $388 6.2831853071796004 $189 $389 forward 7 unknown #
vertex $-1 $192 $390 #
ellipse-curve $-1 -32.498919095807899 -43.790416052944167 9.9231597683775519 0 -0.87461971476443456 0.48480960649040278 1 0 0 1 I I #
coedge $-1 $286 $286 $-1 $391 reversed $195 $-1 #
edge $-1 $392 0 $392 6.2831853071796004 $196 $393 forward 7 unknown #
vertex $-1 $199 $394 #
ellipse-curve $-1 -19.838896829344037 -43.790416052944167 9.9231597683775519 0 -0.87461971476443456 0.48480960649040278 1 0 0 1 I I #
face $-1 $-1 $215 $30 $-1 $395 reversed single #
loop $-1 $-1 $306 $200 #
plane-surface $-1 0 45.22546192505142 0 0 -1 0 0 0 -1 forward_v I I I I #
coedge $-1 $396 $304 $307 $397 forward $201 $-1 #
coedge $-1 $310 $203 $204 $298 reversed $127 $-1 #
coedge $-1 $304 $396 $203 $296 reversed $201 $-1 #
edge $-1 $311 -12.512051148691326 $398 12.512051148691326 $295 $399 forward 7 unknown #
coedge $-1 $205 $204 $396 $400 forward $81 $-1 #
edge $-1 $302 -64.740745262001411 $398 64.740745262001411 $294 $401 forward 7 unknown #
coedge $-1 $307 $306 $205 $300 reversed $291 $-1 #
edge $-1 $402 -64.740745262001411 $301 64.740745262001411 $299 $403 forward 7 unknown #
vertex $-1 $207 $404 #
vertex $-1 $313 $405 #
straight-curve $-1 64.740745262001411 0 -12.512051148691326 0 -1 0 I I #
coedge $-1 $293 $295 $208 $305 reversed $201 $-1 #
edge $-1 $308 -45.22546192505142 $311 45.22546192505142 $304 $406 forward 7 unknown #
coedge $-1 $299 $209 $214 $314 forward $291 $-1 #
coedge $-1 $209 $299 $293 $397 reversed $291 $-1 #
vertex $-1 $210 $407 #
straight-curve $-1 0 45.22546192505142 12.512051148691326 -1 0 0 I I #
coedge $-1 $211 $294 $213 $313 reversed $127 $-1 #
vertex $-1 $305 $408 #
straight-curve $-1 0 -45.22546192505142 12.512051148691326 1 0 0 I I #
edge $-1 $216 -12.512051148691326 $302 12.512051148691326 $213 $409 forward 7 unknown #
edge $-1 $217 -12.512051148691326 $301 12.512051148691326 $214 $410 forward 7 unknown #
point $-1 64.740745262001411 -45.22546192505142 12.512051148691326 #
point $-1 64.740745262001411 45.22546192505142 12.512051148691326 #
plane-surface $-1 0 0 12.512051148691326 0 0 1 1 0 0 forward_v I I I I #
coedge $-1 $328 $327 $320 $411 forward $220 $-1 #
coedge $-1 $320 $222 $224 $324 reversed $135 $-1 #
coedge $-1 $222 $319 $318 $411 reversed $135 $-1 #
coedge $-1 $230 $225 $222 $322 forward $231 $-1 #
edge $-1 $325 10.505087933359299 $412 23.903772126419597 $321 $413 forward 7 unknown #
coedge $-1 $224 $223 $328 $414 reversed $85 $-1 #
edge $-1 $415 -90.450923850102825 $325 -74.289190394533719 $319 $416 forward 7 unknown #
vertex $-1 $226 $417 #
straight-curve $-1 -13.728845157199601 31.826777731991115 12.512051148691327 1 0 0 I I #
coedge $-1 $318 $227 $230 $332 reversed $220 $-1 #
coedge $-1 $227 $318 $323 $414 forward $220 $-1 #
vertex $-1 $228 $418 #
straight-curve $-1 -37.016962561678938 45.22546192505142 80.69952986095366 0 0 1 I I #
straight-curve $-1 -37.016962561678938 -29.761751975599893 54.054039761809733 0 0.82903756765294845 -0.55919291073839883 I I #
edge $-1 $412 17.898418067119461 $232 37.016962561678938 $327 $419 forward 7 unknown #
point $-1 -37.016962561678938 45.22546192505142 12.512051148691326 #
point $-1 -37.016962561678938 31.826777731991122 12.51205114869132 #
edge $-1 $420 1 $420 0 $235 $-1 forward 7 unknown #
vertex $-1 $236 $421 #
ellipse-curve $-1 -31.554521277519086 37.091744873610416 5.8667394797417352 0 0.55919291073839883 0.82903756765294845 2 0 0 1 I I #
point $-1 -29.554521277519086 38.526119828521225 7.9932877618923834 #
edge $-1 $422 1 $422 0 $239 $-1 forward 7 unknown #
vertex $-1 $240 $423 #
ellipse-curve $-1 -23.360859351279309 37.091744873610416 5.8667394797417352 0 0.55919291073839883 0.82903756765294845 2 0 0 1 I I #
point $-1 -21.360859351279309 38.526119828521225 7.9932877618923834 #
loop $-1 $-1 $251 $243 #
plane-surface $-1 0 45.22546192505142 0 0 -1 0 0 0 -1 forward_v I I I I #
coedge $-1 $346 $246 $248 $350 reversed $157 $-1 #
coedge $-1 $246 $345 $424 $425 reversed $157 $-1 #
coedge $-1 $254 $249 $246 $348 forward $244 $-1 #
edge $-1 $351 10.505087933359299 $426 23.903772126419597 $347 $427 forward 7 unknown #
coedge $-1 $248 $247 $354 $428 reversed $99 $-1 #
edge $-1 $429 -90.450923850102825 $351 -74.289190394533719 $345 $430 forward 7 unknown #
vertex $-1 $250 $431 #
straight-curve $-1 18.641527473801105 31.826777731991115 12.512051148691327 1 0 0 I I #
coedge $-1 $424 $251 $254 $358 reversed $343 $-1 #
coedge $-1 $251 $424 $349 $428 forward $343 $-1 #
vertex $-1 $252 $432 #
straight-curve $-1 27.72378270032247 45.22546192505142 80.69952986095366 0 0 1 I I #
straight-curve $-1 27.72378270032247 -29.761751975599893 54.054039761809733 0 0.82903756765294845 -0.55919291073839883 I I #
edge $-1 $426 -46.842327194881946 $255 -27.72378270032247 $353 $433 forward 7 unknown #
point $-1 27.72378270032247 45.22546192505142 12.512051148691326 #
point $-1 27.72378270032247 31.826777731991122 12.51205114869132 #
edge $-1 $434 1 $434 0 $258 $-1 forward 7 unknown #
vertex $-1 $259 $435 #
ellipse-curve $-1 33.186223984482325 37.091744873610416 5.8667394797417352 0 0.55919291073839883 0.82903756765294845 2 0 0 1 I I #
point $-1 35.186223984482325 38.526119828521225 7.9932877618923834 #
edge $-1 $436 1 $436 0 $262 $-1 forward 7 unknown #
vertex $-1 $263 $437 #
ellipse-curve $-1 41.379885910722095 37.091744873610416 5.8667394797417352 0 0.55919291073839883 0.82903756765294845 2 0 0 1 I I #
point $-1 43.379885910722095 38.526119828521225 7.9932877618923834 #
plane-surface $-1 0 0 12.512051148691326 0 0 1 1 0 0 forward_v I I I I #
coedge $-1 $380 $379 $372 $438 forward $267 $-1 #
coedge $-1 $372 $269 $271 $376 reversed $179 $-1 #
coedge $-1 $269 $371 $370 $438 reversed $179 $-1 #
coedge $-1 $277 $272 $269 $374 forward $278 $-1 #
edge $-1 $377 -36.880892936377364 $439 -34.010801192162873 $373 $440 forward 7 unknown #
coedge $-1 $271 $270 $380 $441 reversed $113 $-1 #
edge $-1 $442 -2.9417291209212814e-014 $377 5.9200389303162355 $371 $443 forward 7 unknown #
vertex $-1 $273 $444 #
straight-curve $-1 -13.084453981287986 -42.355370180836928 12.512051148691327 -1 0 0 I I #
coedge $-1 $370 $274 $277 $384 reversed $267 $-1 #
coedge $-1 $274 $370 $375 $441 forward $267 $-1 #
vertex $-1 $275 $445 #
straight-curve $-1 -11.398881985034802 -45.22546192505142 35.054069428398208 0 0 1 I I #
straight-curve $-1 -11.398881985034802 -45.225461925051405 7.3342683880637907 0 -0.48480960649040278 -0.87461971476443456 I I #
edge $-1 $439 -40.938933940117138 $279 -11.398881985034802 $379 $446 forward 7 unknown #
point $-1 -11.398881985034802 -45.22546192505142 12.512051148691326 #
point $-1 -11.398881985034802 -42.355370180836928 12.512051148691326 #
edge $-1 $447 1 $447 0 $282 $-1 forward 7 unknown #
vertex $-1 $283 $448 #
ellipse-curve $-1 -32.498919095807899 -40.864882906872637 8.3015103253352418 0 -0.87461971476443456 0.48480960649040278 1 0 0 1 I I #
point $-1 -31.498919095807899 -43.790416052944181 9.923159768377559 #
edge $-1 $449 1 $449 0 $286 $-1 forward 7 unknown #
vertex $-1 $287 $450 #
ellipse-curve $-1 -19.838896829344037 -40.864882906872637 8.3015103253352418 0 -0.87461971476443456 0.48480960649040278 1 0 0 1 I I #
point $-1 -18.838896829344037 -43.790416052944181 9.923159768377559 #
plane-surface $-1 64.740745262001411 0 0 -1 0 0 0 0 1 forward_v I I I I #
coedge $-1 $295 $293 $297 $400 reversed $201 $-1 #
edge $-1 $308 -12.512051148691326 $402 12.512051148691326 $307 $451 forward 7 unknown #
vertex $-1 $400 $452 #
straight-curve $-1 -64.740745262001411 -45.22546192505142 0 0 0 -1 I I #
edge $-1 $398 -45.22546192505142 $402 45.22546192505142 $396 $453 forward 7 unknown #
straight-curve $-1 0 -45.22546192505142 -12.512051148691326 -1 0 0 I I #
vertex $-1 $300 $454 #
straight-curve $-1 0 45.22546192505142 -12.512051148691326 1 0 0 I I #
point $-1 64.740745262001411 45.22546192505142 -12.512051148691326 #
point $-1 64.740745262001411 -45.22546192505142 -12.512051148691326 #
straight-curve $-1 -64.740745262001411 0 12.512051148691326 0 -1 0 I I #
point $-1 -64.740745262001411 45.22546192505142 12.512051148691326 #
point $-1 -64.740745262001411 -45.22546192505142 12.512051148691326 #
straight-curve $-1 64.740745262001411 -45.22546192505142 0 0 0 -1 I I #
straight-curve $-1 64.740745262001411 45.22546192505142 0 0 0 -1 I I #
edge $-1 $412 68.187478712262333 $415 77.22500548586018 $318 $455 forward 7 unknown #
vertex $-1 $332 $456 #
straight-curve $-1 -17.898418067119461 21.321689798631823 12.512051148691327 0 1 0 I I #
edge $-1 $415 4.1695729099198608 $329 23.288117404479337 $328 $457 forward 7 unknown #
vertex $-1 $414 $458 #
straight-curve $-1 -17.898418067119461 -29.761751975599893 54.054039761809733 0 -0.82903756765294845 0.55919291073839883 I I #
point $-1 -17.898418067119461 31.826777731991122 12.51205114869132 #
point $-1 -37.016962561678938 45.22546192505142 3.4745243750934733 #
straight-curve $-1 0 45.22546192505142 12.512051148691326 -1 0 0 I I #
vertex $-1 $335 $459 #
point $-1 -29.554521277519086 37.091744873610416 5.8667394797417352 #
vertex $-1 $339 $460 #
point $-1 -21.360859351279309 37.091744873610416 5.8667394797417352 #
coedge $-1 $354 $353 $346 $425 forward $343 $-1 #
edge $-1 $426 68.187478712262333 $429 77.22500548586018 $424 $461 forward 7 unknown #
vertex $-1 $358 $462 #
straight-curve $-1 46.842327194881946 21.321689798631823 12.512051148691327 0 1 0 I I #
edge $-1 $429 -28.200799721080841 $355 -9.0822552265213652 $354 $463 forward 7 unknown #
vertex $-1 $428 $464 #
straight-curve $-1 46.842327194881946 -29.761751975599893 54.054039761809733 0 -0.82903756765294845 0.55919291073839883 I I #
point $-1 46.842327194881946 31.826777731991122 12.51205114869132 #
point $-1 27.72378270032247 45.22546192505142 3.4745243750934733 #
straight-curve $-1 0 45.22546192505142 12.512051148691326 -1 0 0 I I #
vertex $-1 $361 $465 #
point $-1 35.186223984482325 37.091744873610416 5.8667394797417352 #
vertex $-1 $365 $466 #
point $-1 43.379885910722095 37.091744873610416 5.8667394797417352 #
edge $-1 $439 22.54201827970688 $442 27.719801040334442 $370 $467 forward 7 unknown #
vertex $-1 $384 $468 #
straight-curve $-1 -40.938933940117138 -79.236263117214293 12.512051148691327 0 -1 0 I I #
edge $-1 $442 -27.854479958829153 $381 1.6855719962531843 $380 $469 forward 7 unknown #
vertex $-1 $441 $470 #
straight-curve $-1 -40.938933940117138 -45.225461925051405 7.3342683880637907 0 0.48480960649040278 0.87461971476443456 I I #
point $-1 -40.938933940117138 -42.355370180836928 12.512051148691326 #
point $-1 -11.398881985034802 -45.22546192505142 7.3342683880637649 #
straight-curve $-1 0 -45.22546192505142 12.512051148691326 1 0 0 I I #
vertex $-1 $387 $471 #
point $-1 -31.498919095807899 -40.864882906872637 8.3015103253352418 #
vertex $-1 $391 $472 #
point $-1 -18.838896829344037 -40.864882906872637 8.3015103253352418 #
straight-curve $-1 -64.740745262001411 45.22546192505142 0 0 0 -1 I I #
point $-1 -64.740745262001411 -45.22546192505142 -12.512051148691326 #
straight-curve $-1 -64.740745262001411 0 -12.512051148691326 0 1 0 I I #
point $-1 -64.740745262001411 45.22546192505142 -12.512051148691326 #
straight-curve $-1 -17.898418067119461 45.22546192505142 80.69952986095366 0 0 -1 I I #
point $-1 -17.898418067119461 45.22546192505142 12.512051148691326 #
straight-curve $-1 -13.728845157199601 45.22546192505142 3.4745243750934733 -1 0 0 I I #
point $-1 -17.898418067119461 45.22546192505142 3.4745243750934733 #
point $-1 -31.554521277519086 35.973359052133624 4.2086643444358387 #
point $-1 -23.360859351279309 35.973359052133624 4.2086643444358387 #
straight-curve $-1 46.842327194881946 45.22546192505142 80.69952986095366 0 0 -1 I I #
point $-1 46.842327194881946 45.22546192505142 12.512051148691326 #
straight-curve $-1 18.641527473801105 45.22546192505142 3.4745243750934733 -1 0 0 I I #
point $-1 46.842327194881946 45.22546192505142 3.4745243750934733 #
point $-1 33.186223984482325 35.973359052133624 4.2086643444358387 #
point $-1 41.379885910722095 35.973359052133624 4.2086643444358387 #
straight-curve $-1 -40.938933940117138 -45.22546192505142 35.054069428398208 0 0 -1 I I #
point $-1 -40.938933940117138 -45.22546192505142 12.512051148691326 #
straight-curve $-1 -13.084453981287986 -45.22546192505142 7.3342683880637694 1 0 0 I I #
point $-1 -40.938933940117138 -45.22546192505142 7.3342683880637649 #
point $-1 -32.498919095807899 -39.990263192108202 7.8167007188448396 #
point $-1 -19.838896829344037 -39.990263192108202 7.8167007188448396 #
End-of-ACIS-data 