500 0 7 0           
7 Unknown 11 ACIS 5.0 NT 24 Fri Mar 26 19:52:32 1999 
-1 9.9999999999999995e-007 1e-010 
body $-1 $7 $-1 $8 #
body $-1 $9 $-1 $10 #
body $-1 $11 $-1 $12 #
body $-1 $13 $-1 $14 #
body $-1 $15 $-1 $16 #
body $-1 $17 $-1 $18 #
body $-1 $19 $-1 $20 #
lump $-1 $-1 $21 $0 #
transform $-1 1 0 0 0 1 0 0 0 1 45.592211676381723 23.669213319099384 7.5512209013296676 1 rotate no_reflect no_shear #
lump $-1 $-1 $22 $1 #
transform $-1 1 0 0 0 1 0 0 0 1 45.592211676381723 23.669213319099384 7.5512209013296676 1 rotate no_reflect no_shear #
lump $-1 $-1 $23 $2 #
transform $-1 1 0 0 0 1 0 0 0 1 45.592211676381723 23.669213319099384 7.5512209013296676 1 rotate no_reflect no_shear #
lump $-1 $-1 $24 $3 #
transform $-1 1 0 0 0 1 0 0 0 1 45.592211676381723 23.669213319099384 7.5512209013296676 1 rotate no_reflect no_shear #
lump $-1 $-1 $25 $4 #
transform $-1 1 0 0 0 1 0 0 0 1 45.592211676381723 23.669213319099384 7.5512209013296676 1 rotate no_reflect no_shear #
lump $-1 $-1 $26 $5 #
transform $-1 1 0 0 0 1 0 0 0 1 45.592211676381723 23.669213319099384 7.5512209013296676 1 rotate no_reflect no_shear #
lump $-1 $-1 $27 $6 #
transform $-1 1 0 0 0 1 0 0 0 1 45.592211676381723 23.669213319099384 7.5512209013296676 1 rotate no_reflect no_shear #
shell $-1 $-1 $-1 $28 $-1 $7 #
shell $-1 $-1 $-1 $29 $-1 $9 #
shell $-1 $-1 $-1 $30 $-1 $11 #
shell $-1 $-1 $-1 $31 $-1 $13 #
shell $-1 $-1 $-1 $32 $-1 $15 #
shell $-1 $-1 $-1 $33 $-1 $17 #
shell $-1 $-1 $-1 $34 $-1 $19 #
face $-1 $35 $36 $21 $-1 $37 forward single #
face $-1 $38 $39 $22 $-1 $40 reversed single #
face $-1 $41 $42 $23 $-1 $43 reversed single #
face $-1 $44 $45 $24 $-1 $46 forward single #
face $-1 $47 $48 $25 $-1 $49 reversed single #
face $-1 $50 $51 $26 $-1 $52 forward single #
face $-1 $53 $54 $27 $-1 $55 forward single #
face $-1 $56 $57 $21 $-1 $58 reversed single #
loop $-1 $-1 $59 $28 #
plane-surface $-1 0 0 7.5512209013296676 0 0 1 1 0 0 forward_v I I I I #
face $-1 $60 $61 $22 $-1 $62 reversed single #
loop $-1 $-1 $63 $29 #
plane-surface $-1 -43.622146607281806 -18.464256560576914 0 0 -1 0 0 0 -1 forward_v I I I I #
face $-1 $64 $65 $23 $-1 $66 reversed single #
loop $-1 $-1 $67 $30 #
plane-surface $-1 -93.912594847023996 -7.6800307505612508 78.111874568872892 0 -1 0 0.52991927123019833 0 -0.84804809178421925 forward_v I I I I #
face $-1 $68 $69 $24 $-1 $70 forward single #
loop $-1 $71 $72 $31 #
cone-surface $-1 -38.173656789375279 -13.072143655569084 0.96180984680996495 0.52991927123019833 0 -0.84804809178421925 2.1201202294605483 0 1.3247981780754958 1 I I 0 1 2.5 forward I I I I #
face $-1 $73 $74 $25 $-1 $75 reversed single #
loop $-1 $-1 $76 $32 #
plane-surface $-1 16.583818622268552 20.890473852006004 126.83130732139692 0 -1 0 -0.52991927123019833 0 -0.84804809178421925 forward_v I I I I #
face $-1 $77 $78 $26 $-1 $79 forward single #
loop $-1 $80 $81 $33 #
cone-surface $-1 40.014639474707216 14.223835513450254 3.5965256841112749 -0.52991927123019833 0 -0.84804809178421925 0.84804809178421925 0 -0.52991927123019833 1 I I 0 1 1 forward I I I I #
face $-1 $82 $83 $27 $-1 $84 forward single #
loop $-1 $85 $86 $34 #
cone-surface $-1 40.014639474707216 18.223818516583705 3.5965256841112749 -0.52991927123019833 0 -0.84804809178421925 0.84804809178421925 0 -0.52991927123019833 1 I I 0 1 1 forward I I I I #
face $-1 $87 $88 $21 $-1 $89 reversed single #
loop $-1 $-1 $90 $35 #
plane-surface $-1 0 0 -7.5512209013296676 0 0 1 1 0 0 forward_v I I I I #
coedge $-1 $91 $92 $93 $94 forward $36 $-1 #
face $-1 $95 $96 $22 $-1 $97 forward single #
loop $-1 $-1 $98 $38 #
plane-surface $-1 -41.652081538181889 -21.066734939838149 0 -1 0 0 0 0 1 forward_v I I I I #
coedge $-1 $99 $100 $101 $102 forward $39 $-1 #
face $-1 $103 $104 $23 $-1 $105 forward single #
loop $-1 $-1 $106 $41 #
plane-surface $-1 -45.592211676381716 -13.072143655569084 0.78309834411744816 -0.52991927123019833 0 0.84804809178421925 0.84804809178421925 0 0.52991927123019833 forward_v I I I I #
coedge $-1 $107 $108 $109 $110 reversed $42 $-1 #
face $-1 $-1 $111 $24 $-1 $112 forward single #
loop $-1 $113 $114 $44 #
cone-surface $-1 -35.508332826447003 -13.072143655569084 -3.3036000438339057 0.52991927123019833 0 -0.84804809178421925 1.0600601147302742 0 0.66239908903774791 1 I I -0.70710678118654746 0.70710678118654746 1.25 forward I I I I #
loop $-1 $-1 $115 $31 #
coedge $-1 $72 $72 $116 $117 reversed $45 $-1 #
face $-1 $118 $119 $25 $-1 $120 reversed single #
loop $-1 $-1 $121 $47 #
plane-surface $-1 -31.736564548373728 16.22382701501698 49.502531096641476 0.52991927123019833 0 0.84804809178421925 0.84804809178421925 0 -0.52991927123019833 forward_v I I I I #
coedge $-1 $122 $123 $124 $125 reversed $48 $-1 #
face $-1 $-1 $126 $26 $-1 $127 forward single #
loop $-1 $128 $129 $50 #
cone-surface $-1 39.268431244053431 14.223835513450254 2.4023429086659895 -0.52991927123019833 0 -0.84804809178421925 0.42402404589210962 0 -0.26495963561509916 1 I I -0.70710678118654746 0.70710678118654746 0.5 forward I I I I #
loop $-1 $-1 $130 $33 #
coedge $-1 $81 $81 $131 $132 reversed $51 $-1 #
face $-1 $-1 $133 $27 $-1 $134 forward single #
loop $-1 $135 $136 $53 #
cone-surface $-1 39.268431244053431 18.223818516583705 2.4023429086659895 -0.52991927123019833 0 -0.84804809178421925 0.42402404589210962 0 -0.26495963561509916 1 I I -0.70710678118654746 0.70710678118654746 0.5 forward I I I I #
loop $-1 $-1 $137 $34 #
coedge $-1 $86 $86 $138 $139 reversed $54 $-1 #
face $-1 $140 $141 $21 $-1 $142 reversed single #
loop $-1 $-1 $143 $56 #
plane-surface $-1 0 -23.669213319099384 0 0 1 0 0 0 1 forward_v I I I I #
coedge $-1 $144 $145 $146 $147 forward $57 $-1 #
coedge $-1 $148 $59 $149 $150 forward $36 $-1 #
coedge $-1 $59 $148 $151 $152 forward $36 $-1 #
coedge $-1 $153 $154 $59 $94 reversed $155 $-1 #
edge $-1 $156 -23.669213319099384 $157 23.669213319099384 $93 $158 forward 7 unknown #
face $-1 $159 $160 $22 $-1 $161 reversed single #
loop $-1 $-1 $162 $60 #
plane-surface $-1 0 0 7.5512209013296676 0 0 1 1 0 0 forward_v I I I I #
coedge $-1 $163 $164 $165 $166 reversed $61 $-1 #
coedge $-1 $167 $63 $168 $169 reversed $39 $-1 #
coedge $-1 $63 $167 $170 $171 reversed $39 $-1 #
coedge $-1 $164 $163 $63 $102 reversed $61 $-1 #
edge $-1 $172 -7.5512209013296676 $173 7.5512209013296676 $101 $174 forward 7 unknown #
face $-1 $175 $176 $23 $-1 $177 forward single #
loop $-1 $-1 $178 $64 #
plane-surface $-1 0 0 7.5512209013296676 0 0 1 1 0 0 forward_v I I I I #
coedge $-1 $179 $180 $181 $182 reversed $65 $-1 #
coedge $-1 $108 $67 $183 $184 reversed $42 $-1 #
coedge $-1 $67 $107 $179 $185 reversed $42 $-1 #
coedge $-1 $181 $186 $67 $110 forward $187 $-1 #
edge $-1 $188 31.504716383106778 $189 38.272838940319005 $109 $190 forward 7 unknown #
loop $-1 $-1 $116 $68 #
plane-surface $-1 -45.592211676381716 -13.072143655569084 0.78309834411744816 -0.52991927123019833 0 0.84804809178421925 0.84804809178421925 0 0.52991927123019833 forward_v I I I I #
loop $-1 $-1 $191 $44 #
coedge $-1 $114 $114 $115 $192 reversed $69 $-1 #
coedge $-1 $115 $115 $114 $192 forward $71 $-1 #
coedge $-1 $116 $116 $72 $117 forward $111 $-1 #
edge $-1 $193 0 $193 6.2831853071796004 $116 $194 forward 7 unknown #
face $-1 $195 $196 $25 $-1 $197 reversed single #
loop $-1 $-1 $198 $73 #
plane-surface $-1 16.583818622268552 11.557180178027956 126.83130732139692 0 1 0 0.52991927123019833 0 0.84804809178421925 forward_v I I I I #
coedge $-1 $199 $200 $201 $202 reversed $74 $-1 #
coedge $-1 $123 $76 $203 $204 reversed $48 $-1 #
coedge $-1 $76 $122 $199 $205 reversed $48 $-1 #
coedge $-1 $201 $206 $76 $125 forward $207 $-1 #
edge $-1 $208 -37.300302365247447 $209 -27.107655151975742 $124 $210 forward 7 unknown #
loop $-1 $-1 $131 $77 #
plane-surface $-1 -31.736564548373728 16.22382701501698 49.502531096641476 0.52991927123019833 0 0.84804809178421925 0.84804809178421925 0 -0.52991927123019833 forward_v I I I I #
loop $-1 $-1 $211 $50 #
coedge $-1 $129 $129 $130 $212 reversed $78 $-1 #
coedge $-1 $130 $130 $129 $212 forward $80 $-1 #
coedge $-1 $131 $131 $81 $132 forward $126 $-1 #
edge $-1 $213 0 $213 6.2831853071796004 $131 $214 forward 7 unknown #
loop $-1 $-1 $138 $82 #
plane-surface $-1 -31.736564548373728 16.22382701501698 49.502531096641476 0.52991927123019833 0 0.84804809178421925 0.84804809178421925 0 -0.52991927123019833 forward_v I I I I #
loop $-1 $-1 $215 $53 #
coedge $-1 $136 $136 $137 $216 reversed $83 $-1 #
coedge $-1 $137 $137 $136 $216 forward $85 $-1 #
coedge $-1 $138 $138 $86 $139 forward $133 $-1 #
edge $-1 $217 0 $217 6.2831853071796004 $138 $218 forward 7 unknown #
face $-1 $219 $220 $21 $-1 $221 reversed single #
loop $-1 $-1 $222 $87 #
plane-surface $-1 -45.592211676381723 0 0 1 0 0 0 0 -1 forward_v I I I I #
coedge $-1 $223 $151 $224 $225 forward $88 $-1 #
coedge $-1 $226 $90 $223 $227 forward $57 $-1 #
coedge $-1 $90 $226 $228 $229 forward $57 $-1 #
coedge $-1 $154 $153 $90 $147 reversed $155 $-1 #
edge $-1 $230 -23.669213319099384 $231 23.669213319099384 $146 $232 forward 7 unknown #
coedge $-1 $92 $91 $233 $234 forward $36 $-1 #
coedge $-1 $235 $236 $91 $150 reversed $220 $-1 #
edge $-1 $157 -45.592211676381723 $237 45.592211676381723 $149 $238 forward 7 unknown #
coedge $-1 $143 $239 $92 $152 reversed $88 $-1 #
edge $-1 $240 -45.592211676381723 $156 45.592211676381723 $151 $241 forward 7 unknown #
coedge $-1 $146 $93 $239 $242 forward $155 $-1 #
coedge $-1 $93 $146 $235 $243 reversed $155 $-1 #
loop $-1 $-1 $153 $219 #
vertex $-1 $94 $244 #
vertex $-1 $94 $245 #
straight-curve $-1 45.592211676381723 0 7.5512209013296676 0 1 0 I I #
face $-1 $246 $247 $22 $-1 $248 reversed single #
loop $-1 $-1 $249 $95 #
plane-surface $-1 -45.592211676381723 0 0 1 0 0 0 0 -1 forward_v I I I I #
coedge $-1 $170 $250 $164 $251 forward $96 $-1 #
coedge $-1 $101 $98 $252 $253 reversed $61 $-1 #
coedge $-1 $98 $101 $162 $251 reversed $61 $-1 #
coedge $-1 $254 $255 $98 $166 forward $256 $-1 #
edge $-1 $257 -7.5512209013296676 $258 7.5512209013296676 $165 $259 forward 7 unknown #
coedge $-1 $100 $99 $249 $260 reversed $39 $-1 #
coedge $-1 $252 $261 $99 $169 forward $247 $-1 #
edge $-1 $262 -23.78113837274082 $173 -19.841008234540986 $168 $263 forward 7 unknown #
coedge $-1 $264 $162 $100 $171 forward $96 $-1 #
edge $-1 $172 19.841008234540986 $265 23.78113837274082 $170 $266 forward 7 unknown #
vertex $-1 $171 $267 #
vertex $-1 $169 $268 #
straight-curve $-1 -41.652081538181889 -18.464256560576914 0 0 0 -1 I I #
face $-1 $-1 $187 $23 $-1 $269 reversed single #
loop $-1 $-1 $270 $103 #
plane-surface $-1 -43.622146607281806 -18.464256560576914 0 0 -1 0 0 0 -1 forward_v I I I I #
coedge $-1 $271 $272 $273 $274 forward $104 $-1 #
coedge $-1 $275 $106 $108 $185 forward $65 $-1 #
coedge $-1 $106 $275 $270 $276 reversed $65 $-1 #
coedge $-1 $277 $109 $106 $182 forward $187 $-1 #
edge $-1 $189 1.1439589227767089 $278 11.928184732792371 $181 $279 forward 7 unknown #
coedge $-1 $272 $271 $107 $184 forward $104 $-1 #
edge $-1 $280 -12.195345773362121 $188 -1.3640857471302752 $183 $281 forward 7 unknown #
edge $-1 $189 -8.3790584163743152e-015 $280 12.771987969979168 $108 $282 forward 7 unknown #
coedge $-1 $109 $277 $272 $283 reversed $187 $-1 #
loop $-1 $-1 $181 $175 #
vertex $-1 $283 $284 #
vertex $-1 $110 $285 #
straight-curve $-1 -45.592211676381723 -7.6800307505612508 39.055937284436446 0 0 -1 I I #
coedge $-1 $191 $191 $-1 $286 reversed $113 $-1 #
edge $-1 $287 0 $287 6.2831853071796004 $114 $288 forward 7 unknown #
vertex $-1 $117 $289 #
ellipse-curve $-1 -40.176581663265807 -13.072143655569084 4.1671596227235543 -0.52991927123019833 0 0.84804809178421925 2.1201202294605483 0 1.3247981780754958 1 I I #
face $-1 $-1 $207 $25 $-1 $290 forward single #
loop $-1 $-1 $291 $118 #
plane-surface $-1 45.592211676381723 0 0 -1 0 0 0 0 1 forward_v I I I I #
coedge $-1 $292 $293 $294 $295 reversed $119 $-1 #
coedge $-1 $296 $121 $123 $205 forward $74 $-1 #
coedge $-1 $121 $296 $292 $297 forward $74 $-1 #
coedge $-1 $294 $124 $121 $202 forward $207 $-1 #
edge $-1 $209 -12.778560344497514 $298 -3.4452666705194659 $201 $299 forward 7 unknown #
coedge $-1 $300 $301 $122 $204 forward $196 $-1 #
edge $-1 $302 -62.233505734699264 $208 -55.864432759368796 $203 $303 forward 7 unknown #
edge $-1 $209 79.165473823819582 $302 91.18442335276346 $123 $304 forward 7 unknown #
coedge $-1 $124 $294 $300 $305 forward $207 $-1 #
loop $-1 $-1 $294 $195 #
vertex $-1 $204 $306 #
vertex $-1 $125 $307 #
straight-curve $-1 8.2919093111342761 20.890473852006004 7.5512209013296712 -1 0 0 I I #
coedge $-1 $211 $211 $-1 $308 reversed $128 $-1 #
edge $-1 $309 0 $309 6.2831853071796004 $129 $310 forward 7 unknown #
vertex $-1 $132 $311 #
ellipse-curve $-1 40.495888069745881 14.223835513450254 4.3666844136644167 0.52991927123019833 0 0.84804809178421925 0.84804809178421925 0 -0.52991927123019833 1 I I #
coedge $-1 $215 $215 $-1 $312 reversed $135 $-1 #
edge $-1 $313 0 $313 6.2831853071796004 $136 $314 forward 7 unknown #
vertex $-1 $139 $315 #
ellipse-curve $-1 40.495888069745881 18.223818516583705 4.3666844136644167 0.52991927123019833 0 0.84804809178421925 0.84804809178421925 0 -0.52991927123019833 1 I I #
face $-1 $-1 $155 $21 $-1 $316 reversed single #
loop $-1 $-1 $235 $140 #
plane-surface $-1 0 23.669213319099384 0 0 -1 0 0 0 -1 forward_v I I I I #
coedge $-1 $317 $233 $236 $318 forward $141 $-1 #
coedge $-1 $239 $143 $144 $227 reversed $88 $-1 #
coedge $-1 $233 $317 $143 $225 reversed $141 $-1 #
edge $-1 $240 -7.5512209013296676 $319 7.5512209013296676 $224 $320 forward 7 unknown #
coedge $-1 $145 $144 $317 $321 forward $57 $-1 #
edge $-1 $231 -45.592211676381723 $319 45.592211676381723 $223 $322 forward 7 unknown #
coedge $-1 $236 $235 $145 $229 reversed $220 $-1 #
edge $-1 $323 -45.592211676381723 $230 45.592211676381723 $228 $324 forward 7 unknown #
vertex $-1 $147 $325 #
vertex $-1 $242 $326 #
straight-curve $-1 45.592211676381723 0 -7.5512209013296676 0 -1 0 I I #
coedge $-1 $222 $224 $148 $234 reversed $141 $-1 #
edge $-1 $237 -23.669213319099384 $240 23.669213319099384 $233 $327 forward 7 unknown #
coedge $-1 $228 $149 $154 $243 forward $220 $-1 #
coedge $-1 $149 $228 $222 $318 reversed $220 $-1 #
vertex $-1 $150 $328 #
straight-curve $-1 0 23.669213319099384 7.5512209013296676 -1 0 0 I I #
coedge $-1 $151 $223 $153 $242 reversed $88 $-1 #
vertex $-1 $234 $329 #
straight-curve $-1 0 -23.669213319099384 7.5512209013296676 1 0 0 I I #
edge $-1 $156 -7.5512209013296676 $231 7.5512209013296676 $153 $330 forward 7 unknown #
edge $-1 $157 -7.5512209013296676 $230 7.5512209013296676 $154 $331 forward 7 unknown #
point $-1 45.592211676381723 -23.669213319099384 7.5512209013296676 #
point $-1 45.592211676381723 23.669213319099384 7.5512209013296676 #
face $-1 $-1 $256 $22 $-1 $332 reversed single #
loop $-1 $-1 $252 $159 #
plane-surface $-1 0 0 -7.5512209013296676 0 0 1 1 0 0 forward_v I I I I #
coedge $-1 $333 $334 $167 $260 forward $160 $-1 #
coedge $-1 $162 $264 $254 $335 forward $96 $-1 #
edge $-1 $258 -13.13584584918031 $172 -7.9308890906578391 $162 $336 forward 7 unknown #
coedge $-1 $337 $168 $163 $253 forward $247 $-1 #
edge $-1 $173 7.9308890906578391 $257 13.13584584918031 $252 $338 forward 7 unknown #
coedge $-1 $339 $165 $250 $335 reversed $256 $-1 #
coedge $-1 $165 $339 $337 $340 reversed $256 $-1 #
loop $-1 $-1 $165 $246 #
vertex $-1 $340 $341 #
vertex $-1 $166 $342 #
straight-curve $-1 -41.652081538181889 -23.669213319099384 0 0 0 1 I I #
edge $-1 $265 -7.5512209013296676 $262 7.5512209013296676 $249 $343 forward 7 unknown #
coedge $-1 $168 $337 $333 $344 forward $247 $-1 #
vertex $-1 $169 $345 #
straight-curve $-1 -21.811073303640903 -18.464256560576914 -7.5512209013296676 1 0 0 I I #
coedge $-1 $250 $170 $334 $346 forward $96 $-1 #
vertex $-1 $346 $347 #
straight-curve $-1 -21.811073303640903 -18.464256560576914 7.5512209013296676 -1 0 0 I I #
point $-1 -41.652081538181889 -18.464256560576914 7.5512209013296676 #
point $-1 -41.652081538181889 -18.464256560576914 -7.5512209013296676 #
plane-surface $-1 -45.592211676381723 0 0 1 0 0 0 0 -1 forward_v I I I I #
coedge $-1 $273 $348 $180 $276 forward $176 $-1 #
coedge $-1 $183 $178 $275 $349 forward $104 $-1 #
coedge $-1 $178 $183 $186 $283 forward $104 $-1 #
coedge $-1 $348 $270 $178 $274 reversed $176 $-1 #
edge $-1 $350 -23.78113837274082 $351 -12.949878346508974 $178 $352 forward 7 unknown #
coedge $-1 $180 $179 $271 $349 reversed $65 $-1 #
edge $-1 $278 -0.62786550936232033 $351 12.144122460616858 $270 $353 forward 7 unknown #
coedge $-1 $186 $181 $348 $354 forward $187 $-1 #
vertex $-1 $354 $355 #
straight-curve $-1 -45.592211676381723 -6.536071827784542 0.78309834411744395 0 -1 0 I I #
vertex $-1 $184 $356 #
straight-curve $-1 -46.956297423511998 -7.6800307505612508 7.5512209013296712 -1 0 0 I I #
straight-curve $-1 -45.592211676381716 -7.6800307505612508 0.78309834411744816 0.84804809178421925 0 0.52991927123019833 I I #
edge $-1 $188 7.6800307505612508 $350 18.464256560576914 $186 $357 forward 7 unknown #
point $-1 -45.592211676381723 -7.6800307505612508 7.5512209013296676 #
point $-1 -45.592211676381723 -7.6800307505612508 0.78309834411744372 #
edge $-1 $358 1 $358 0 $191 $-1 forward 7 unknown #
vertex $-1 $192 $359 #
ellipse-curve $-1 -36.170731915484751 -13.072143655569084 -2.2435399291036315 -0.52991927123019833 0 0.84804809178421925 2.1201202294605483 0 1.3247981780754958 1 I I #
point $-1 -38.056461433805268 -13.072143655569084 5.4919578007990575 #
plane-surface $-1 0 0 7.5512209013296676 0 0 1 1 0 0 forward_v I I I I #
coedge $-1 $301 $300 $293 $360 forward $196 $-1 #
coedge $-1 $293 $198 $200 $297 reversed $119 $-1 #
coedge $-1 $198 $292 $291 $360 reversed $119 $-1 #
coedge $-1 $206 $201 $198 $295 forward $207 $-1 #
edge $-1 $298 27.107655151975742 $361 37.300302365247447 $294 $362 forward 7 unknown #
coedge $-1 $200 $199 $301 $363 reversed $74 $-1 #
edge $-1 $364 -91.18442335276346 $298 -79.165473823819582 $292 $365 forward 7 unknown #
vertex $-1 $202 $366 #
straight-curve $-1 35.399564463110025 8.1119135075084898 7.5512209013296641 0 -1 0 I I #
coedge $-1 $291 $203 $206 $305 reversed $196 $-1 #
coedge $-1 $203 $291 $296 $363 forward $196 $-1 #
vertex $-1 $204 $367 #
straight-curve $-1 45.592211676381723 20.890473852006004 63.41565366069846 0 0 1 I I #
straight-curve $-1 -31.736564548373728 20.890473852006004 49.502531096641476 0.84804809178421925 0 -0.52991927123019833 I I #
edge $-1 $361 11.557180178027956 $208 20.890473852006004 $300 $368 forward 7 unknown #
point $-1 45.592211676381723 20.890473852006004 7.5512209013296676 #
point $-1 35.399564463110018 20.890473852006004 7.5512209013296712 #
edge $-1 $369 1 $369 0 $211 $-1 forward 7 unknown #
vertex $-1 $212 $370 #
ellipse-curve $-1 39.533390879668531 14.223835513450254 2.8263669545580994 0.52991927123019833 0 0.84804809178421925 0.84804809178421925 0 -0.52991927123019833 1 I I #
point $-1 41.343936161530124 14.223835513450254 3.8367651424342517 #
edge $-1 $371 1 $371 0 $215 $-1 forward 7 unknown #
vertex $-1 $216 $372 #
ellipse-curve $-1 39.533390879668531 18.223818516583705 2.8263669545580994 0.52991927123019833 0 0.84804809178421925 0.84804809178421925 0 -0.52991927123019833 1 I I #
point $-1 41.343936161530124 18.223818516583705 3.8367651424342517 #
plane-surface $-1 45.592211676381723 0 0 -1 0 0 0 0 1 forward_v I I I I #
coedge $-1 $224 $222 $226 $321 reversed $141 $-1 #
edge $-1 $237 -7.5512209013296676 $323 7.5512209013296676 $236 $373 forward 7 unknown #
vertex $-1 $321 $374 #
straight-curve $-1 -45.592211676381723 -23.669213319099384 0 0 0 -1 I I #
edge $-1 $319 -23.669213319099384 $323 23.669213319099384 $317 $375 forward 7 unknown #
straight-curve $-1 0 -23.669213319099384 -7.5512209013296676 -1 0 0 I I #
vertex $-1 $229 $376 #
straight-curve $-1 0 23.669213319099384 -7.5512209013296676 1 0 0 I I #
point $-1 45.592211676381723 23.669213319099384 -7.5512209013296676 #
point $-1 45.592211676381723 -23.669213319099384 -7.5512209013296676 #
straight-curve $-1 -45.592211676381723 0 7.5512209013296676 0 -1 0 I I #
point $-1 -45.592211676381723 23.669213319099384 7.5512209013296676 #
point $-1 -45.592211676381723 -23.669213319099384 7.5512209013296676 #
straight-curve $-1 45.592211676381723 -23.669213319099384 0 0 0 -1 I I #
straight-curve $-1 45.592211676381723 23.669213319099384 0 0 0 -1 I I #
plane-surface $-1 0 -23.669213319099384 0 0 1 0 0 0 1 forward_v I I I I #
coedge $-1 $377 $249 $261 $344 reversed $160 $-1 #
coedge $-1 $249 $377 $264 $346 reversed $160 $-1 #
edge $-1 $378 -45.592211676381723 $258 -41.652081538181889 $254 $379 forward 7 unknown #
straight-curve $-1 -41.652081538181889 -10.533367469919074 7.5512209013296676 0 1 0 I I #
coedge $-1 $261 $252 $255 $340 forward $247 $-1 #
straight-curve $-1 -41.652081538181889 -10.533367469919074 -7.5512209013296676 0 -1 0 I I #
coedge $-1 $255 $254 $377 $380 forward $256 $-1 #
edge $-1 $257 41.652081538181889 $381 45.592211676381723 $255 $382 forward 7 unknown #
point $-1 -41.652081538181889 -23.669213319099384 -7.5512209013296676 #
point $-1 -41.652081538181889 -23.669213319099384 7.5512209013296676 #
straight-curve $-1 -45.592211676381723 -18.464256560576914 0 0 0 -1 I I #
edge $-1 $381 -23.669213319099384 $262 -18.464256560576914 $333 $383 forward 7 unknown #
point $-1 -45.592211676381723 -18.464256560576914 -7.5512209013296676 #
edge $-1 $265 18.464256560576914 $378 23.669213319099384 $334 $384 forward 7 unknown #
point $-1 -45.592211676381723 -18.464256560576914 7.5512209013296676 #
coedge $-1 $270 $273 $277 $354 reversed $176 $-1 #
edge $-1 $351 -11.928184732792374 $280 -1.1439589227767089 $271 $385 forward 7 unknown #
vertex $-1 $354 $386 #
vertex $-1 $274 $387 #
straight-curve $-1 -21.811073303640903 -18.464256560576914 7.5512209013296676 1 0 0 I I #
straight-curve $-1 -45.059751529269882 -18.464256560576914 1.1158163772693037 0.84804809178421925 0 0.52991927123019833 I I #
edge $-1 $278 0.78309834411744361 $350 7.5512209013296676 $277 $388 forward 7 unknown #
point $-1 -45.592211676381723 -18.464256560576914 0.78309834411744361 #
point $-1 -34.760951650149877 -7.6800307505612508 7.5512209013296676 #
straight-curve $-1 -45.592211676381723 0 7.5512209013296676 0 -1 0 I I #
vertex $-1 $286 $389 #
point $-1 -34.050611686024205 -13.072143655569084 -0.91874175102813549 #
edge $-1 $361 55.864432759368796 $364 62.233505734699264 $291 $390 forward 7 unknown #
vertex $-1 $305 $391 #
straight-curve $-1 8.2919093111342761 11.557180178027956 7.5512209013296712 1 0 0 I I #
edge $-1 $364 3.4452666705194659 $302 12.778560344497514 $301 $392 forward 7 unknown #
vertex $-1 $363 $393 #
straight-curve $-1 -31.736564548373728 11.557180178027956 49.502531096641476 -0.84804809178421925 0 0.52991927123019833 I I #
point $-1 35.399564463110018 11.557180178027956 7.5512209013296712 #
point $-1 45.592211676381716 20.890473852006004 1.182147925999196 #
straight-curve $-1 45.592211676381723 0 7.5512209013296676 0 1 0 I I #
vertex $-1 $308 $394 #
point $-1 40.381438971452752 14.223835513450254 2.2964476833279006 #
vertex $-1 $312 $395 #
point $-1 40.381438971452752 18.223818516583705 2.2964476833279006 #
straight-curve $-1 -45.592211676381723 23.669213319099384 0 0 0 -1 I I #
point $-1 -45.592211676381723 -23.669213319099384 -7.5512209013296676 #
straight-curve $-1 -45.592211676381723 0 -7.5512209013296676 0 1 0 I I #
point $-1 -45.592211676381723 23.669213319099384 -7.5512209013296676 #
coedge $-1 $334 $333 $339 $380 reversed $160 $-1 #
vertex $-1 $346 $396 #
straight-curve $-1 0 -23.669213319099384 7.5512209013296676 1 0 0 I I #
edge $-1 $378 -7.5512209013296676 $381 7.5512209013296676 $377 $397 forward 7 unknown #
vertex $-1 $344 $398 #
straight-curve $-1 0 -23.669213319099384 -7.5512209013296676 -1 0 0 I I #
straight-curve $-1 -45.592211676381723 0 -7.5512209013296676 0 1 0 I I #
straight-curve $-1 -45.592211676381723 0 7.5512209013296676 0 -1 0 I I #
straight-curve $-1 -34.760951650149885 -6.536071827784542 7.5512209013296667 0 1 0 I I #
point $-1 -45.592211676381723 -18.464256560576914 7.5512209013296676 #
point $-1 -34.760951650149877 -18.464256560576917 7.5512209013296676 #
straight-curve $-1 -45.592211676381723 -18.464256560576914 0 0 0 1 I I #
point $-1 -34.845933737409254 -13.072143655569084 -4.3636601585641799 #
straight-curve $-1 45.592211676381723 11.557180178027956 63.41565366069846 0 0 -1 I I #
point $-1 45.592211676381723 11.557180178027956 7.5512209013296676 #
straight-curve $-1 45.592211676381723 8.1119135075084898 1.1821479259991889 0 1 0 I I #
point $-1 45.592211676381716 11.557180178027956 1.182147925999196 #
point $-1 39.003471608438332 14.223835513450254 1.9783188627738799 #
point $-1 39.003471608438332 18.223818516583705 1.9783188627738799 #
point $-1 -45.592211676381723 -23.669213319099384 7.5512209013296676 #
straight-curve $-1 -45.592211676381723 -23.669213319099384 0 0 0 -1 I I #
point $-1 -45.592211676381723 -23.669213319099384 -7.5512209013296676 #
End-of-ACIS-data 