500 0 12 0           
7 Unknown 11 ACIS 5.0 NT 24 Thu Mar 25 15:24:40 1999 
-1 9.9999999999999995e-007 1e-010 
body $-1 $12 $-1 $13 #
body $-1 $14 $-1 $15 #
body $-1 $16 $-1 $17 #
body $-1 $18 $-1 $19 #
body $-1 $20 $-1 $21 #
body $-1 $22 $-1 $23 #
body $-1 $24 $-1 $25 #
body $-1 $26 $-1 $27 #
body $-1 $28 $-1 $29 #
body $-1 $30 $-1 $31 #
body $-1 $32 $-1 $33 #
body $-1 $34 $-1 $35 #
lump $-1 $-1 $36 $0 #
transform $-1 1 0 0 0 1 0 0 0 1 47.591784417249059 24.316878965741971 7.9945069840495604 1 rotate no_reflect no_shear #
lump $-1 $-1 $37 $1 #
transform $-1 1 0 0 0 1 0 0 0 1 47.591784417249059 24.316878965741971 7.9945069840495604 1 rotate no_reflect no_shear #
lump $-1 $-1 $38 $2 #
transform $-1 1 0 0 0 1 0 0 0 1 47.591784417249059 24.316878965741971 7.9945069840495604 1 rotate no_reflect no_shear #
lump $-1 $-1 $39 $3 #
transform $-1 1 0 0 0 1 0 0 0 1 47.591784417249059 24.316878965741971 7.9945069840495604 1 rotate no_reflect no_shear #
lump $-1 $-1 $40 $4 #
transform $-1 1 0 0 0 1 0 0 0 1 47.591784417249059 24.316878965741971 7.9945069840495604 1 rotate no_reflect no_shear #
lump $-1 $-1 $41 $5 #
transform $-1 1 0 0 0 1 0 0 0 1 47.591784417249059 24.316878965741971 7.9945069840495604 1 rotate no_reflect no_shear #
lump $-1 $-1 $42 $6 #
transform $-1 1 0 0 0 1 0 0 0 1 47.591784417249059 24.316878965741971 7.9945069840495604 1 rotate no_reflect no_shear #
lump $-1 $-1 $43 $7 #
transform $-1 1 0 0 0 1 0 0 0 1 47.591784417249059 24.316878965741971 7.9945069840495604 1 rotate no_reflect no_shear #
lump $-1 $-1 $44 $8 #
transform $-1 1 0 0 0 1 0 0 0 1 47.591784417249059 24.316878965741971 7.9945069840495604 1 rotate no_reflect no_shear #
lump $-1 $-1 $45 $9 #
transform $-1 1 0 0 0 1 0 0 0 1 47.591784417249059 24.316878965741971 7.9945069840495604 1 rotate no_reflect no_shear #
lump $-1 $-1 $46 $10 #
transform $-1 1 0 0 0 1 0 0 0 1 47.591784417249059 24.316878965741971 7.9945069840495604 1 rotate no_reflect no_shear #
lump $-1 $-1 $47 $11 #
transform $-1 1 0 0 0 1 0 0 0 1 47.591784417249059 24.316878965741971 7.9945069840495604 1 rotate no_reflect no_shear #
shell $-1 $-1 $-1 $48 $-1 $12 #
shell $-1 $-1 $-1 $49 $-1 $14 #
shell $-1 $-1 $-1 $50 $-1 $16 #
shell $-1 $-1 $-1 $51 $-1 $18 #
shell $-1 $-1 $-1 $52 $-1 $20 #
shell $-1 $-1 $-1 $53 $-1 $22 #
shell $-1 $-1 $-1 $54 $-1 $24 #
shell $-1 $-1 $-1 $55 $-1 $26 #
shell $-1 $-1 $-1 $56 $-1 $28 #
shell $-1 $-1 $-1 $57 $-1 $30 #
shell $-1 $-1 $-1 $58 $-1 $32 #
shell $-1 $-1 $-1 $59 $-1 $34 #
face $-1 $60 $61 $36 $-1 $62 forward single #
face $-1 $63 $64 $37 $-1 $65 forward single #
face $-1 $66 $67 $38 $-1 $68 forward single #
face $-1 $69 $70 $39 $-1 $71 reversed single #
face $-1 $72 $73 $40 $-1 $74 forward single #
face $-1 $75 $76 $41 $-1 $77 reversed single #
face $-1 $78 $79 $42 $-1 $80 forward single #
face $-1 $81 $82 $43 $-1 $83 reversed single #
face $-1 $84 $85 $44 $-1 $86 forward single #
face $-1 $87 $88 $45 $-1 $89 reversed single #
face $-1 $90 $91 $46 $-1 $92 forward single #
face $-1 $93 $94 $47 $-1 $95 forward single #
face $-1 $96 $97 $36 $-1 $98 reversed single #
loop $-1 $-1 $99 $48 #
plane-surface $-1 0 0 7.9945069840495604 0 0 1 1 0 0 forward_v I I I I #
face $-1 $100 $101 $37 $-1 $102 reversed single #
loop $-1 $-1 $103 $49 #
plane-surface $-1 0 -21.636261023181095 6.9531501404509273 0 0 1 1 0 0 forward_v I I I I #
face $-1 $104 $105 $38 $-1 $106 reversed single #
loop $-1 $-1 $107 $50 #
plane-surface $-1 0 21.636261023181099 6.9531501404509273 0 0 1 1 0 0 forward_v I I I I #
face $-1 $108 $109 $39 $-1 $110 reversed single #
loop $-1 $-1 $111 $51 #
plane-surface $-1 -126.50254003944264 -8.5932062242382479 54.189757777740205 0 -1 0 0.82903758062907751 0 -0.55919289150049634 forward_v I I I I #
face $-1 $112 $113 $40 $-1 $114 forward single #
loop $-1 $115 $116 $52 #
cone-surface $-1 -44.283658525948177 -12.392857695719565 3.8471409972186965 0.82903758062907751 0 -0.55919289150049634 0.83878933725074445 0 1.2435563709436162 1 I I 0 1 1.5 forward I I I I #
face $-1 $117 $118 $41 $-1 $119 reversed single #
loop $-1 $-1 $120 $53 #
plane-surface $-1 -126.50254003944264 3.799651471481317 54.189757777740205 0 -1 0 0.82903758062907751 0 -0.55919289150049634 forward_v I I I I #
face $-1 $121 $122 $42 $-1 $123 forward single #
loop $-1 $124 $125 $54 #
cone-surface $-1 -44.283658525948177 0 3.8471409972186965 0.82903758062907751 0 -0.55919289150049634 0.83878933725074445 0 1.2435563709436162 1 I I 0 1 1.5 forward I I I I #
face $-1 $126 $127 $43 $-1 $128 reversed single #
loop $-1 $-1 $129 $55 #
plane-surface $-1 -126.50254003944264 16.192509167200882 54.189757777740205 0 -1 0 0.82903758062907751 0 -0.55919289150049634 forward_v I I I I #
face $-1 $130 $131 $44 $-1 $132 forward single #
loop $-1 $133 $134 $56 #
cone-surface $-1 -44.283658525948177 12.392857695719563 3.8471409972186965 0.82903758062907751 0 -0.55919289150049634 0.83878933725074445 0 1.2435563709436162 1 I I 0 1 1.5 forward I I I I #
face $-1 $135 $136 $45 $-1 $137 reversed single #
loop $-1 $-1 $138 $57 #
plane-surface $-1 -4.2489014888660108 -13.952860971602952 84.115218752784159 0.83867057594974714 0 0.54463902268945019 0.54463902268945019 0 -0.83867057594974714 forward_v I I I I #
face $-1 $139 $140 $46 $-1 $141 forward single #
loop $-1 $142 $143 $58 #
cone-surface $-1 45.505737985225117 -16.096910446896068 5.5680049544701458 -0.83867057594974714 0 -0.54463902268945019 0.54463902268945019 0 -0.83867057594974714 1 I I 0 1 1 forward I I I I #
face $-1 $144 $145 $47 $-1 $146 forward single #
loop $-1 $147 $148 $59 #
cone-surface $-1 45.505737985225117 -11.808811496309836 5.5680049544701458 -0.83867057594974714 0 -0.54463902268945019 0.54463902268945019 0 -0.83867057594974714 1 I I 0 1 1 forward I I I I #
face $-1 $149 $150 $36 $-1 $151 reversed single #
loop $-1 $-1 $152 $60 #
plane-surface $-1 0 0 -7.9945069840495604 0 0 1 1 0 0 forward_v I I I I #
coedge $-1 $153 $154 $155 $156 forward $61 $-1 #
face $-1 $157 $158 $37 $-1 $159 reversed single #
loop $-1 $-1 $160 $63 #
plane-surface $-1 0 -21.636261023181095 3.9531501404509273 0 0 1 1 0 0 forward_v I I I I #
coedge $-1 $161 $162 $163 $164 reversed $64 $-1 #
face $-1 $165 $166 $38 $-1 $167 reversed single #
loop $-1 $-1 $168 $66 #
plane-surface $-1 0 21.636261023181099 3.9531501404509273 0 0 1 1 0 0 forward_v I I I I #
coedge $-1 $169 $170 $171 $172 reversed $67 $-1 #
face $-1 $173 $174 $39 $-1 $175 reversed single #
loop $-1 $-1 $176 $69 #
plane-surface $-1 -47.591784417249059 -12.392857695719565 0.96378269784067783 -0.82903758062907751 0 0.55919289150049634 0.55919289150049634 0 0.82903758062907751 forward_v I I I I #
coedge $-1 $177 $178 $179 $180 reversed $70 $-1 #
face $-1 $-1 $181 $40 $-1 $182 forward single #
loop $-1 $183 $184 $72 #
cone-surface $-1 -42.724896080634856 -12.392857695719565 2.7957424848669037 0.82903758062907751 0 -0.55919289150049634 0.41939466862537222 0 0.62177818547180808 1 I I -0.70710678118654757 0.70710678118654757 0.75 forward I I I I #
loop $-1 $-1 $185 $52 #
coedge $-1 $116 $116 $186 $187 reversed $73 $-1 #
face $-1 $188 $189 $41 $-1 $190 reversed single #
loop $-1 $-1 $191 $75 #
plane-surface $-1 -47.591784417249059 0 0.96378269784067783 -0.82903758062907751 0 0.55919289150049634 0.55919289150049634 0 0.82903758062907751 forward_v I I I I #
coedge $-1 $192 $193 $194 $195 reversed $76 $-1 #
face $-1 $-1 $196 $42 $-1 $197 forward single #
loop $-1 $198 $199 $78 #
cone-surface $-1 -42.724896080634856 0 2.7957424848669037 0.82903758062907751 0 -0.55919289150049634 0.41939466862537222 0 0.62177818547180808 1 I I -0.70710678118654757 0.70710678118654757 0.75 forward I I I I #
loop $-1 $-1 $200 $54 #
coedge $-1 $125 $125 $201 $202 reversed $79 $-1 #
face $-1 $203 $204 $43 $-1 $205 reversed single #
loop $-1 $-1 $206 $81 #
plane-surface $-1 -47.591784417249059 12.392857695719563 0.96378269784067783 -0.82903758062907751 0 0.55919289150049634 0.55919289150049634 0 0.82903758062907751 forward_v I I I I #
coedge $-1 $207 $208 $209 $210 reversed $82 $-1 #
face $-1 $-1 $211 $44 $-1 $212 forward single #
loop $-1 $213 $214 $84 #
cone-surface $-1 -42.724896080634856 12.392857695719563 2.7957424848669037 0.82903758062907751 0 -0.55919289150049634 0.41939466862537222 0 0.62177818547180808 1 I I -0.70710678118654757 0.70710678118654757 0.75 forward I I I I #
loop $-1 $-1 $215 $56 #
coedge $-1 $134 $134 $216 $217 reversed $85 $-1 #
face $-1 $218 $219 $45 $-1 $220 forward single #
loop $-1 $-1 $221 $87 #
plane-surface $-1 75.578757006514934 -8.9500788625856842 135.95590465889921 0 -1 0 -0.83867057594974714 0 -0.54463902268945019 forward_v I I I I #
coedge $-1 $222 $223 $224 $225 reversed $88 $-1 #
face $-1 $-1 $226 $46 $-1 $227 forward single #
loop $-1 $228 $229 $90 #
cone-surface $-1 44.204015902430228 -16.096910446896068 4.7226567768691625 -0.83867057594974714 0 -0.54463902268945019 0.2723195113447251 0 -0.41933528797487357 1 I I -0.70710678118654746 0.70710678118654746 0.5 forward I I I I #
loop $-1 $-1 $230 $58 #
coedge $-1 $143 $143 $231 $232 reversed $91 $-1 #
face $-1 $-1 $233 $47 $-1 $234 forward single #
loop $-1 $235 $236 $93 #
cone-surface $-1 44.204015902430228 -11.808811496309836 4.7226567768691625 -0.83867057594974714 0 -0.54463902268945019 0.2723195113447251 0 -0.41933528797487357 1 I I -0.70710678118654746 0.70710678118654746 0.5 forward I I I I #
loop $-1 $-1 $237 $59 #
coedge $-1 $148 $148 $238 $239 reversed $94 $-1 #
face $-1 $240 $241 $36 $-1 $242 reversed single #
loop $-1 $-1 $243 $96 #
plane-surface $-1 0 -24.316878965741971 0 0 1 0 0 0 1 forward_v I I I I #
coedge $-1 $244 $245 $246 $247 forward $97 $-1 #
coedge $-1 $248 $99 $249 $250 forward $61 $-1 #
coedge $-1 $99 $248 $251 $252 forward $61 $-1 #
coedge $-1 $253 $254 $99 $156 reversed $255 $-1 #
edge $-1 $256 -24.316878965741971 $257 24.316878965741971 $155 $258 forward 7 unknown #
face $-1 $259 $260 $37 $-1 $261 reversed single #
loop $-1 $-1 $262 $100 #
plane-surface $-1 0 -18.95564308062022 5.4531501404509273 0 -1 0 0 0 -1 forward_v I I I I #
coedge $-1 $263 $264 $265 $266 reversed $101 $-1 #
coedge $-1 $267 $103 $268 $269 forward $64 $-1 #
coedge $-1 $103 $267 $270 $271 reversed $64 $-1 #
coedge $-1 $272 $273 $103 $164 forward $274 $-1 #
edge $-1 $275 8.1375125690296723 $276 13.498748454151423 $163 $277 forward 7 unknown #
face $-1 $278 $279 $38 $-1 $280 reversed single #
loop $-1 $-1 $281 $104 #
plane-surface $-1 0 18.955643080620224 5.4531501404509273 0 1 0 0 0 1 forward_v I I I I #
coedge $-1 $282 $283 $284 $285 reversed $105 $-1 #
coedge $-1 $286 $107 $287 $288 reversed $67 $-1 #
coedge $-1 $107 $286 $289 $290 forward $67 $-1 #
coedge $-1 $291 $292 $107 $172 forward $279 $-1 #
edge $-1 $293 -13.498748454151425 $294 -8.1375125690296741 $171 $295 forward 7 unknown #
face $-1 $296 $297 $39 $-1 $298 reversed single #
loop $-1 $-1 $299 $108 #
plane-surface $-1 -126.50254003944264 -16.192509167200882 54.189757777740205 0 1 0 -0.82903758062907751 0 0.55919289150049634 forward_v I I I I #
coedge $-1 $300 $301 $302 $303 reversed $109 $-1 #
coedge $-1 $178 $111 $304 $305 reversed $70 $-1 #
coedge $-1 $111 $177 $300 $306 reversed $70 $-1 #
coedge $-1 $302 $307 $111 $180 forward $297 $-1 #
edge $-1 $308 19.100371904820541 $309 26.131096191029425 $179 $310 forward 7 unknown #
loop $-1 $-1 $186 $112 #
plane-surface $-1 -47.591784417249059 -12.392857695719565 0.96378269784067783 -0.82903758062907751 0 0.55919289150049634 0.55919289150049634 0 0.82903758062907751 forward_v I I I I #
loop $-1 $-1 $311 $72 #
coedge $-1 $184 $184 $185 $312 reversed $113 $-1 #
coedge $-1 $185 $185 $184 $312 forward $115 $-1 #
coedge $-1 $186 $186 $116 $187 forward $181 $-1 #
edge $-1 $313 0 $313 6.2831853071796004 $186 $314 forward 7 unknown #
face $-1 $315 $316 $41 $-1 $317 forward single #
loop $-1 $-1 $318 $117 #
plane-surface $-1 -126.50254003944264 -3.799651471481317 54.189757777740205 0 1 0 -0.82903758062907751 0 0.55919289150049634 forward_v I I I I #
coedge $-1 $319 $320 $321 $322 reversed $118 $-1 #
coedge $-1 $193 $120 $323 $324 reversed $76 $-1 #
coedge $-1 $120 $192 $319 $325 reversed $76 $-1 #
coedge $-1 $321 $326 $120 $195 forward $327 $-1 #
edge $-1 $328 19.100371904820541 $329 26.131096191029425 $194 $330 forward 7 unknown #
loop $-1 $-1 $201 $121 #
plane-surface $-1 -47.591784417249059 0 0.96378269784067783 -0.82903758062907751 0 0.55919289150049634 0.55919289150049634 0 0.82903758062907751 forward_v I I I I #
loop $-1 $-1 $331 $78 #
coedge $-1 $199 $199 $200 $332 reversed $122 $-1 #
coedge $-1 $200 $200 $199 $332 forward $124 $-1 #
coedge $-1 $201 $201 $125 $202 forward $196 $-1 #
edge $-1 $333 0 $333 6.2831853071796004 $201 $334 forward 7 unknown #
face $-1 $335 $336 $43 $-1 $337 forward single #
loop $-1 $-1 $338 $126 #
plane-surface $-1 -126.50254003944264 8.5932062242382461 54.189757777740205 0 1 0 -0.82903758062907751 0 0.55919289150049634 forward_v I I I I #
coedge $-1 $339 $340 $341 $342 reversed $127 $-1 #
coedge $-1 $208 $129 $343 $344 reversed $82 $-1 #
coedge $-1 $129 $207 $339 $345 reversed $82 $-1 #
coedge $-1 $341 $346 $129 $210 forward $347 $-1 #
edge $-1 $348 19.100371904820541 $349 26.131096191029425 $209 $350 forward 7 unknown #
loop $-1 $-1 $216 $130 #
plane-surface $-1 -47.591784417249059 12.392857695719563 0.96378269784067783 -0.82903758062907751 0 0.55919289150049634 0.55919289150049634 0 0.82903758062907751 forward_v I I I I #
loop $-1 $-1 $351 $84 #
coedge $-1 $214 $214 $215 $352 reversed $131 $-1 #
coedge $-1 $215 $215 $214 $352 forward $133 $-1 #
coedge $-1 $216 $216 $134 $217 forward $211 $-1 #
edge $-1 $353 0 $353 6.2831853071796004 $216 $354 forward 7 unknown #
face $-1 $355 $356 $45 $-1 $357 reversed single #
loop $-1 $-1 $358 $135 #
plane-surface $-1 0 -18.95564308062022 5.4531501404509273 0 -1 0 0 0 -1 forward_v I I I I #
coedge $-1 $359 $360 $361 $362 reversed $136 $-1 #
coedge $-1 $363 $138 $358 $364 reversed $88 $-1 #
coedge $-1 $138 $363 $359 $365 forward $88 $-1 #
coedge $-1 $361 $366 $138 $225 forward $356 $-1 #
edge $-1 $367 -11.979212594818744 $368 -1.9736483767842081 $224 $369 forward 7 unknown #
loop $-1 $-1 $231 $139 #
plane-surface $-1 -4.2489014888660108 -13.952860971602952 84.115218752784159 0.83867057594974714 0 0.54463902268945019 0.54463902268945019 0 -0.83867057594974714 forward_v I I I I #
loop $-1 $-1 $370 $90 #
coedge $-1 $229 $229 $230 $371 reversed $140 $-1 #
coedge $-1 $230 $230 $229 $371 forward $142 $-1 #
coedge $-1 $231 $231 $143 $232 forward $226 $-1 #
edge $-1 $372 0 $372 6.2831853071796004 $231 $373 forward 7 unknown #
loop $-1 $-1 $238 $144 #
plane-surface $-1 -4.2489014888660108 -13.952860971602952 84.115218752784159 0.83867057594974714 0 0.54463902268945019 0.54463902268945019 0 -0.83867057594974714 forward_v I I I I #
loop $-1 $-1 $374 $93 #
coedge $-1 $236 $236 $237 $375 reversed $145 $-1 #
coedge $-1 $237 $237 $236 $375 forward $147 $-1 #
coedge $-1 $238 $238 $148 $239 forward $233 $-1 #
edge $-1 $376 0 $376 6.2831853071796004 $238 $377 forward 7 unknown #
face $-1 $378 $379 $36 $-1 $380 reversed single #
loop $-1 $-1 $381 $149 #
plane-surface $-1 -47.591784417249059 0 0 1 0 0 0 0 -1 forward_v I I I I #
coedge $-1 $382 $251 $383 $384 forward $150 $-1 #
coedge $-1 $385 $152 $382 $386 forward $97 $-1 #
coedge $-1 $152 $385 $387 $388 forward $97 $-1 #
coedge $-1 $254 $253 $152 $247 reversed $255 $-1 #
edge $-1 $389 -24.316878965741971 $390 24.316878965741971 $246 $391 forward 7 unknown #
coedge $-1 $154 $153 $392 $393 forward $61 $-1 #
coedge $-1 $394 $395 $153 $250 reversed $379 $-1 #
edge $-1 $257 -47.591784417249059 $396 47.591784417249059 $249 $397 forward 7 unknown #
coedge $-1 $243 $398 $154 $252 reversed $150 $-1 #
edge $-1 $399 -47.591784417249059 $256 47.591784417249059 $251 $400 forward 7 unknown #
coedge $-1 $246 $155 $398 $401 forward $255 $-1 #
coedge $-1 $155 $246 $394 $402 reversed $255 $-1 #
loop $-1 $-1 $253 $378 #
vertex $-1 $156 $403 #
vertex $-1 $156 $404 #
straight-curve $-1 47.591784417249059 0 7.9945069840495604 0 1 0 I I #
face $-1 $405 $406 $37 $-1 $407 reversed single #
loop $-1 $-1 $408 $157 #
plane-surface $-1 -47.591784417249059 0 0 1 0 0 0 0 -1 forward_v I I I I #
coedge $-1 $409 $268 $273 $410 reversed $158 $-1 #
coedge $-1 $411 $160 $412 $413 reversed $101 $-1 #
coedge $-1 $160 $411 $409 $414 forward $101 $-1 #
coedge $-1 $273 $272 $160 $266 forward $274 $-1 #
edge $-1 $415 -13.498748454151423 $416 -8.1375125690296723 $265 $417 forward 7 unknown #
coedge $-1 $162 $161 $408 $418 reversed $64 $-1 #
coedge $-1 $262 $419 $161 $269 reversed $158 $-1 #
edge $-1 $275 -47.591784417249059 $420 47.591784417249059 $268 $421 forward 7 unknown #
coedge $-1 $422 $423 $162 $271 forward $406 $-1 #
edge $-1 $276 -47.591784417249059 $424 47.591784417249059 $270 $425 forward 7 unknown #
coedge $-1 $265 $163 $423 $426 forward $274 $-1 #
coedge $-1 $163 $265 $262 $410 forward $274 $-1 #
loop $-1 $-1 $163 $405 #
vertex $-1 $164 $427 #
vertex $-1 $426 $428 #
straight-curve $-1 47.591784417249059 -10.818130511590548 6.9531501404509273 0 -1 0 I I #
face $-1 $429 $430 $38 $-1 $431 reversed single #
loop $-1 $-1 $171 $165 #
plane-surface $-1 47.591784417249059 0 0 -1 0 0 0 0 1 forward_v I I I I #
coedge $-1 $432 $289 $433 $434 reversed $166 $-1 #
coedge $-1 $435 $168 $432 $436 forward $105 $-1 #
coedge $-1 $168 $435 $437 $438 reversed $105 $-1 #
coedge $-1 $292 $291 $168 $285 forward $279 $-1 #
edge $-1 $439 8.1375125690296741 $440 13.498748454151425 $284 $441 forward 7 unknown #
coedge $-1 $170 $169 $442 $443 reversed $67 $-1 #
coedge $-1 $444 $445 $169 $288 forward $446 $-1 #
edge $-1 $447 -47.591784417249059 $293 47.591784417249059 $287 $448 forward 7 unknown #
coedge $-1 $281 $449 $170 $290 reversed $166 $-1 #
edge $-1 $450 -47.591784417249059 $294 47.591784417249059 $289 $451 forward 7 unknown #
coedge $-1 $284 $171 $449 $452 forward $279 $-1 #
coedge $-1 $171 $284 $444 $453 reversed $279 $-1 #
vertex $-1 $453 $454 #
vertex $-1 $172 $455 #
straight-curve $-1 47.591784417249059 10.81813051159055 6.9531501404509273 0 -1 0 I I #
face $-1 $-1 $456 $39 $-1 $457 forward single #
loop $-1 $-1 $179 $173 #
plane-surface $-1 -47.591784417249059 0 0 1 0 0 0 0 -1 forward_v I I I I #
coedge $-1 $458 $459 $460 $461 reversed $174 $-1 #
coedge $-1 $462 $176 $178 $306 forward $109 $-1 #
coedge $-1 $176 $462 $458 $463 forward $109 $-1 #
coedge $-1 $460 $179 $176 $303 forward $297 $-1 #
edge $-1 $309 2.3967773763784654 $464 9.9960803193411003 $302 $465 forward 7 unknown #
coedge $-1 $466 $467 $177 $305 forward $456 $-1 #
edge $-1 $468 -20.401768865390984 $308 -15.659485602472259 $304 $469 forward 7 unknown #
edge $-1 $309 0 $468 8.4805857424146396 $178 $470 forward 7 unknown #
coedge $-1 $179 $460 $466 $471 reversed $297 $-1 #
vertex $-1 $471 $472 #
vertex $-1 $180 $473 #
straight-curve $-1 -47.591784417249059 -8.5932062242382479 27.094878888870102 0 0 -1 I I #
coedge $-1 $311 $311 $-1 $474 reversed $183 $-1 #
edge $-1 $475 0 $475 6.2831853071796004 $184 $476 forward 7 unknown #
vertex $-1 $187 $477 #
ellipse-curve $-1 -45.220642785789693 -12.392857695719565 4.4791448409451196 -0.82903758062907751 0 0.55919289150049634 0.83878933725074445 0 1.2435563709436162 1 I I #
face $-1 $-1 $327 $41 $-1 $478 reversed single #
loop $-1 $-1 $479 $188 #
plane-surface $-1 0 0 7.9945069840495604 0 0 1 1 0 0 forward_v I I I I #
coedge $-1 $480 $481 $482 $483 reversed $189 $-1 #
coedge $-1 $484 $191 $193 $325 forward $118 $-1 #
coedge $-1 $191 $484 $480 $485 forward $118 $-1 #
coedge $-1 $482 $194 $191 $322 forward $327 $-1 #
edge $-1 $329 -3.799651471481317 $486 3.799651471481317 $321 $487 forward 7 unknown #
coedge $-1 $488 $489 $192 $324 forward $316 $-1 #
edge $-1 $490 -20.401768865390984 $328 -15.659485602472259 $323 $491 forward 7 unknown #
edge $-1 $329 0 $490 8.4805857424146396 $193 $492 forward 7 unknown #
coedge $-1 $194 $482 $488 $493 reversed $327 $-1 #
loop $-1 $-1 $482 $315 #
vertex $-1 $493 $494 #
vertex $-1 $195 $495 #
straight-curve $-1 -47.591784417249059 3.799651471481317 27.094878888870102 0 0 -1 I I #
coedge $-1 $331 $331 $-1 $496 reversed $198 $-1 #
edge $-1 $497 0 $497 6.2831853071796004 $199 $498 forward 7 unknown #
vertex $-1 $202 $499 #
ellipse-curve $-1 -45.220642785789693 0 4.4791448409451196 -0.82903758062907751 0 0.55919289150049634 0.83878933725074445 0 1.2435563709436162 1 I I #
face $-1 $-1 $347 $43 $-1 $500 reversed single #
loop $-1 $-1 $501 $203 #
plane-surface $-1 0 0 7.9945069840495604 0 0 1 1 0 0 forward_v I I I I #
coedge $-1 $502 $503 $504 $505 reversed $204 $-1 #
coedge $-1 $506 $206 $208 $345 forward $127 $-1 #
coedge $-1 $206 $506 $502 $507 forward $127 $-1 #
coedge $-1 $504 $209 $206 $342 forward $347 $-1 #
edge $-1 $349 -9.9960803193411003 $508 -2.3967773763784646 $341 $509 forward 7 unknown #
coedge $-1 $510 $511 $207 $344 forward $336 $-1 #
edge $-1 $512 -20.401768865390984 $348 -15.659485602472259 $343 $513 forward 7 unknown #
edge $-1 $349 0 $512 8.4805857424146396 $208 $514 forward 7 unknown #
coedge $-1 $209 $504 $510 $515 reversed $347 $-1 #
loop $-1 $-1 $504 $335 #
vertex $-1 $515 $516 #
vertex $-1 $210 $517 #
straight-curve $-1 -47.591784417249059 16.192509167200882 27.094878888870102 0 0 -1 I I #
coedge $-1 $351 $351 $-1 $518 reversed $213 $-1 #
edge $-1 $519 0 $519 6.2831853071796004 $214 $520 forward 7 unknown #
vertex $-1 $217 $521 #
ellipse-curve $-1 -45.220642785789693 12.392857695719563 4.4791448409451196 -0.82903758062907751 0 0.55919289150049634 0.83878933725074445 0 1.2435563709436162 1 I I #
face $-1 $-1 $522 $45 $-1 $523 forward single #
loop $-1 $-1 $366 $218 #
plane-surface $-1 47.591784417249059 0 0 -1 0 0 0 0 1 forward_v I I I I #
coedge $-1 $524 $525 $222 $364 forward $219 $-1 #
coedge $-1 $360 $221 $223 $365 reversed $136 $-1 #
coedge $-1 $221 $359 $526 $527 reversed $136 $-1 #
coedge $-1 $528 $224 $221 $362 forward $356 $-1 #
edge $-1 $368 -63.690392072046393 $529 -59.98344534540005 $361 $530 forward 7 unknown #
coedge $-1 $223 $222 $531 $532 reversed $88 $-1 #
edge $-1 $533 56.620701699879767 $367 61.040728863046255 $358 $534 forward 7 unknown #
edge $-1 $535 90.763541671331652 $368 95.183568834498132 $359 $536 forward 7 unknown #
coedge $-1 $224 $528 $524 $537 forward $356 $-1 #
vertex $-1 $225 $538 #
vertex $-1 $225 $539 #
straight-curve $-1 47.591784417249059 -6.9764304858014761 4.2875602574032143 0 1 0 I I #
coedge $-1 $370 $370 $-1 $540 reversed $228 $-1 #
edge $-1 $541 0 $541 6.2831853071796004 $229 $542 forward 7 unknown #
vertex $-1 $232 $543 #
ellipse-curve $-1 46.388124780045146 -16.096910446896068 6.14103362072641 0.83867057594974714 0 0.54463902268945019 0.54463902268945019 0 -0.83867057594974714 1 I I #
coedge $-1 $374 $374 $-1 $544 reversed $235 $-1 #
edge $-1 $545 0 $545 6.2831853071796004 $236 $546 forward 7 unknown #
vertex $-1 $239 $547 #
ellipse-curve $-1 46.388124780045146 -11.808811496309836 6.14103362072641 0.83867057594974714 0 0.54463902268945019 0.54463902268945019 0 -0.83867057594974714 1 I I #
face $-1 $-1 $255 $36 $-1 $548 reversed single #
loop $-1 $-1 $394 $240 #
plane-surface $-1 0 24.316878965741971 0 0 -1 0 0 0 -1 forward_v I I I I #
coedge $-1 $549 $392 $395 $550 forward $241 $-1 #
coedge $-1 $398 $243 $244 $386 reversed $150 $-1 #
coedge $-1 $392 $549 $243 $384 reversed $241 $-1 #
edge $-1 $399 -7.9945069840495604 $551 7.9945069840495604 $383 $552 forward 7 unknown #
coedge $-1 $245 $244 $549 $553 forward $97 $-1 #
edge $-1 $390 -47.591784417249059 $551 47.591784417249059 $382 $554 forward 7 unknown #
coedge $-1 $395 $394 $245 $388 reversed $379 $-1 #
edge $-1 $555 -47.591784417249059 $389 47.591784417249059 $387 $556 forward 7 unknown #
vertex $-1 $247 $557 #
vertex $-1 $401 $558 #
straight-curve $-1 47.591784417249059 0 -7.9945069840495604 0 -1 0 I I #
coedge $-1 $381 $383 $248 $393 reversed $241 $-1 #
edge $-1 $396 -24.316878965741971 $399 24.316878965741971 $392 $559 forward 7 unknown #
coedge $-1 $387 $249 $254 $402 forward $379 $-1 #
coedge $-1 $249 $387 $381 $550 reversed $379 $-1 #
vertex $-1 $250 $560 #
straight-curve $-1 0 24.316878965741971 7.9945069840495604 -1 0 0 I I #
coedge $-1 $251 $382 $253 $401 reversed $150 $-1 #
vertex $-1 $393 $561 #
straight-curve $-1 0 -24.316878965741971 7.9945069840495604 1 0 0 I I #
edge $-1 $256 -7.9945069840495604 $390 7.9945069840495604 $253 $562 forward 7 unknown #
edge $-1 $257 -7.9945069840495604 $389 7.9945069840495604 $254 $563 forward 7 unknown #
point $-1 47.591784417249059 -24.316878965741971 7.9945069840495604 #
point $-1 47.591784417249059 24.316878965741971 7.9945069840495604 #
face $-1 $-1 $274 $37 $-1 $564 reversed single #
loop $-1 $-1 $270 $259 #
plane-surface $-1 0 -24.316878965741971 0 0 1 0 0 0 1 forward_v I I I I #
coedge $-1 $565 $566 $267 $418 forward $260 $-1 #
coedge $-1 $419 $262 $264 $414 reversed $158 $-1 #
edge $-1 $416 1.2265750702254636 $275 4.2265750702254632 $273 $567 forward 7 unknown #
coedge $-1 $264 $263 $568 $569 reversed $101 $-1 #
coedge $-1 $423 $422 $263 $413 forward $406 $-1 #
edge $-1 $570 -47.591784417249059 $415 47.591784417249059 $412 $571 forward 7 unknown #
edge $-1 $572 -47.591784417249059 $416 47.591784417249059 $409 $573 forward 7 unknown #
vertex $-1 $413 $574 #
vertex $-1 $266 $575 #
straight-curve $-1 47.591784417249059 -10.818130511590548 3.9531501404509273 0 1 0 I I #
edge $-1 $424 -13.498748454151423 $420 -8.1375125690296723 $408 $576 forward 7 unknown #
coedge $-1 $268 $409 $565 $577 reversed $158 $-1 #
vertex $-1 $418 $578 #
straight-curve $-1 0 -18.95564308062022 6.9531501404509273 -1 0 0 I I #
coedge $-1 $412 $270 $566 $579 forward $406 $-1 #
coedge $-1 $270 $412 $272 $426 reversed $406 $-1 #
vertex $-1 $579 $580 #
straight-curve $-1 0 -24.316878965741971 6.9531501404509273 -1 0 0 I I #
edge $-1 $276 -6.9531501404509273 $415 -3.9531501404509273 $272 $581 forward 7 unknown #
point $-1 47.591784417249059 -18.95564308062022 6.9531501404509273 #
point $-1 47.591784417249059 -24.316878965741971 6.9531501404509273 #
face $-1 $-1 $446 $38 $-1 $582 reversed single #
loop $-1 $-1 $442 $278 #
plane-surface $-1 -47.591784417249059 0 0 1 0 0 0 0 -1 forward_v I I I I #
coedge $-1 $449 $281 $282 $436 reversed $166 $-1 #
coedge $-1 $442 $583 $281 $434 forward $430 $-1 #
edge $-1 $584 1.2265750702254636 $450 4.2265750702254632 $433 $585 forward 7 unknown #
coedge $-1 $283 $282 $583 $586 reversed $105 $-1 #
edge $-1 $439 -47.591784417249059 $584 47.591784417249059 $432 $587 forward 7 unknown #
coedge $-1 $445 $444 $283 $438 forward $446 $-1 #
edge $-1 $440 -47.591784417249059 $588 47.591784417249059 $437 $589 forward 7 unknown #
vertex $-1 $285 $590 #
vertex $-1 $438 $591 #
straight-curve $-1 47.591784417249059 10.81813051159055 3.9531501404509273 0 1 0 I I #
coedge $-1 $592 $433 $286 $443 forward $430 $-1 #
edge $-1 $450 8.1375125690296741 $447 13.498748454151425 $442 $593 forward 7 unknown #
coedge $-1 $437 $287 $292 $453 forward $446 $-1 #
coedge $-1 $287 $437 $592 $594 reversed $446 $-1 #
loop $-1 $-1 $287 $429 #
vertex $-1 $594 $595 #
straight-curve $-1 0 24.316878965741971 6.9531501404509273 1 0 0 I I #
coedge $-1 $289 $432 $291 $452 reversed $166 $-1 #
vertex $-1 $443 $596 #
straight-curve $-1 0 18.955643080620224 6.9531501404509273 1 0 0 I I #
edge $-1 $294 -4.2265750702254632 $439 -1.2265750702254636 $291 $597 forward 7 unknown #
edge $-1 $293 -6.9531501404509273 $440 -3.9531501404509273 $292 $598 forward 7 unknown #
point $-1 47.591784417249059 24.316878965741974 6.9531501404509273 #
point $-1 47.591784417249059 18.955643080620224 6.9531501404509273 #
loop $-1 $-1 $304 $296 #
plane-surface $-1 0 0 7.9945069840495604 0 0 1 1 0 0 forward_v I I I I #
coedge $-1 $459 $299 $301 $463 reversed $174 $-1 #
coedge $-1 $299 $458 $599 $600 reversed $174 $-1 #
coedge $-1 $307 $302 $299 $461 forward $297 $-1 #
edge $-1 $464 -26.131096191029425 $601 -19.100371904820541 $460 $602 forward 7 unknown #
coedge $-1 $301 $300 $467 $603 reversed $109 $-1 #
edge $-1 $604 -8.4805857424146396 $464 0 $458 $605 forward 7 unknown #
vertex $-1 $303 $606 #
straight-curve $-1 -47.591784417249059 -6.1964288478597824 0.96378269784068304 0 -1 0 I I #
coedge $-1 $599 $304 $307 $471 forward $456 $-1 #
coedge $-1 $304 $599 $462 $603 forward $456 $-1 #
vertex $-1 $305 $607 #
straight-curve $-1 -63.251270019721318 -8.5932062242382479 7.9945069840495613 -1 0 0 I I #
straight-curve $-1 -47.591784417249059 -8.5932062242382479 0.96378269784067783 0.55919289150049634 0 0.82903758062907751 I I #
edge $-1 $308 8.5932062242382479 $601 16.192509167200882 $307 $608 forward 7 unknown #
point $-1 -47.591784417249059 -8.5932062242382479 7.9945069840495604 #
point $-1 -47.591784417249059 -8.5932062242382479 0.96378269784067783 #
edge $-1 $609 1 $609 0 $311 $-1 forward 7 unknown #
vertex $-1 $312 $610 #
ellipse-curve $-1 -43.346674266106668 -12.392857695719565 3.2151371534922761 -0.82903758062907751 0 0.55919289150049634 0.83878933725074445 0 1.2435563709436162 1 I I #
point $-1 -44.381853448538948 -12.392857695719565 5.722701211888733 #
plane-surface $-1 -47.591784417249059 0 0 1 0 0 0 0 -1 forward_v I I I I #
coedge $-1 $489 $488 $481 $611 forward $316 $-1 #
coedge $-1 $481 $318 $320 $485 reversed $189 $-1 #
coedge $-1 $318 $480 $479 $611 reversed $189 $-1 #
coedge $-1 $326 $321 $318 $483 forward $327 $-1 #
edge $-1 $486 -26.131096191029425 $612 -19.100371904820541 $482 $613 forward 7 unknown #
coedge $-1 $320 $319 $489 $614 reversed $118 $-1 #
edge $-1 $615 -8.4805857424146396 $486 0 $480 $616 forward 7 unknown #
vertex $-1 $322 $617 #
straight-curve $-1 -47.591784417249059 0 0.96378269784068304 0 -1 0 I I #
coedge $-1 $479 $323 $326 $493 forward $316 $-1 #
coedge $-1 $323 $479 $484 $614 forward $316 $-1 #
vertex $-1 $324 $618 #
straight-curve $-1 -63.251270019721318 3.799651471481317 7.9945069840495613 -1 0 0 I I #
straight-curve $-1 -47.591784417249059 3.799651471481317 0.96378269784067783 0.55919289150049634 0 0.82903758062907751 I I #
edge $-1 $328 -3.799651471481317 $612 3.799651471481317 $326 $619 forward 7 unknown #
point $-1 -47.591784417249059 3.799651471481317 7.9945069840495604 #
point $-1 -47.591784417249059 3.799651471481317 0.96378269784067783 #
edge $-1 $620 1 $620 0 $331 $-1 forward 7 unknown #
vertex $-1 $332 $621 #
ellipse-curve $-1 -43.346674266106668 0 3.2151371534922761 -0.82903758062907751 0 0.55919289150049634 0.83878933725074445 0 1.2435563709436162 1 I I #
point $-1 -44.381853448538948 0 5.722701211888733 #
plane-surface $-1 -47.591784417249059 0 0 1 0 0 0 0 -1 forward_v I I I I #
coedge $-1 $511 $510 $503 $622 forward $336 $-1 #
coedge $-1 $503 $338 $340 $507 reversed $204 $-1 #
coedge $-1 $338 $502 $501 $622 reversed $204 $-1 #
coedge $-1 $346 $341 $338 $505 forward $347 $-1 #
edge $-1 $508 -26.131096191029425 $623 -19.100371904820541 $504 $624 forward 7 unknown #
coedge $-1 $340 $339 $511 $625 reversed $127 $-1 #
edge $-1 $626 -8.4805857424146396 $508 0 $502 $627 forward 7 unknown #
vertex $-1 $342 $628 #
straight-curve $-1 -47.591784417249059 6.1964288478597815 0.96378269784068304 0 -1 0 I I #
coedge $-1 $501 $343 $346 $515 forward $336 $-1 #
coedge $-1 $343 $501 $506 $625 forward $336 $-1 #
vertex $-1 $344 $629 #
straight-curve $-1 -63.251270019721318 16.192509167200882 7.9945069840495613 -1 0 0 I I #
straight-curve $-1 -47.591784417249059 16.192509167200882 0.96378269784067783 0.55919289150049634 0 0.82903758062907751 I I #
edge $-1 $348 -16.192509167200882 $623 -8.5932062242382461 $346 $630 forward 7 unknown #
point $-1 -47.591784417249059 16.192509167200882 7.9945069840495604 #
point $-1 -47.591784417249059 16.192509167200882 0.96378269784067783 #
edge $-1 $631 1 $631 0 $351 $-1 forward 7 unknown #
vertex $-1 $352 $632 #
ellipse-curve $-1 -43.346674266106668 12.392857695719563 3.2151371534922761 -0.82903758062907751 0 0.55919289150049634 0.83878933725074445 0 1.2435563709436162 1 I I #
point $-1 -44.381853448538948 12.392857695719563 5.722701211888733 #
loop $-1 $-1 $633 $355 #
plane-surface $-1 0 0 7.9945069840495604 0 0 1 1 0 0 forward_v I I I I #
coedge $-1 $525 $358 $366 $537 reversed $219 $-1 #
coedge $-1 $358 $524 $633 $634 reversed $219 $-1 #
coedge $-1 $531 $635 $360 $527 forward $522 $-1 #
edge $-1 $529 -9.802405913991592 $535 -7.3950866395837807 $526 $636 forward 7 unknown #
coedge $-1 $366 $361 $635 $637 reversed $356 $-1 #
vertex $-1 $527 $638 #
straight-curve $-1 47.591784417249059 -8.9500788625856842 67.977952329449607 0 0 1 I I #
coedge $-1 $633 $526 $363 $532 forward $522 $-1 #
edge $-1 $535 1.9736483767842081 $533 11.979212594818744 $531 $639 forward 7 unknown #
vertex $-1 $634 $640 #
straight-curve $-1 14.346621505027841 -18.95564308062022 55.480623489366558 0.54463902268945019 0 -0.83867057594974714 I I #
vertex $-1 $532 $641 #
straight-curve $-1 -4.2489014888660108 -8.9500788625856842 84.115218752784159 0.54463902268945019 0 -0.83867057594974714 I I #
edge $-1 $642 59.98344534540005 $367 63.690392072046407 $366 $643 forward 7 unknown #
point $-1 47.591784417249059 -18.95564308062022 4.2875602574032001 #
point $-1 47.591784417249059 -8.9500788625856842 4.2875602574032143 #
edge $-1 $644 1 $644 0 $370 $-1 forward 7 unknown #
vertex $-1 $371 $645 #
ellipse-curve $-1 44.623351190405103 -16.096910446896068 4.9949762882138877 0.83867057594974714 0 0.54463902268945019 0.54463902268945019 0 -0.83867057594974714 1 I I #
point $-1 46.932763802734591 -16.096910446896068 5.3023630447766559 #
edge $-1 $646 1 $646 0 $374 $-1 forward 7 unknown #
vertex $-1 $375 $647 #
ellipse-curve $-1 44.623351190405103 -11.808811496309836 4.9949762882138877 0.83867057594974714 0 0.54463902268945019 0.54463902268945019 0 -0.83867057594974714 1 I I #
point $-1 46.932763802734591 -11.808811496309836 5.3023630447766559 #
plane-surface $-1 47.591784417249059 0 0 -1 0 0 0 0 1 forward_v I I I I #
coedge $-1 $383 $381 $385 $553 reversed $241 $-1 #
edge $-1 $396 -7.9945069840495604 $555 7.9945069840495604 $395 $648 forward 7 unknown #
vertex $-1 $553 $649 #
straight-curve $-1 -47.591784417249059 -24.316878965741971 0 0 0 -1 I I #
edge $-1 $551 -24.316878965741971 $555 24.316878965741971 $549 $650 forward 7 unknown #
straight-curve $-1 0 -24.316878965741971 -7.9945069840495604 -1 0 0 I I #
vertex $-1 $388 $651 #
straight-curve $-1 0 24.316878965741971 -7.9945069840495604 1 0 0 I I #
point $-1 47.591784417249059 24.316878965741971 -7.9945069840495604 #
point $-1 47.591784417249059 -24.316878965741971 -7.9945069840495604 #
straight-curve $-1 -47.591784417249059 0 7.9945069840495604 0 -1 0 I I #
point $-1 -47.591784417249059 24.316878965741971 7.9945069840495604 #
point $-1 -47.591784417249059 -24.316878965741971 7.9945069840495604 #
straight-curve $-1 47.591784417249059 -24.316878965741971 0 0 0 -1 I I #
straight-curve $-1 47.591784417249059 24.316878965741971 0 0 0 -1 I I #
plane-surface $-1 47.591784417249059 0 0 -1 0 0 0 0 1 forward_v I I I I #
coedge $-1 $568 $408 $419 $577 forward $260 $-1 #
coedge $-1 $408 $568 $422 $579 reversed $260 $-1 #
straight-curve $-1 47.591784417249059 -18.95564308062022 2.7265750702254636 0 0 1 I I #
coedge $-1 $566 $565 $411 $569 forward $260 $-1 #
edge $-1 $572 8.1375125690296723 $570 13.498748454151423 $568 $652 forward 7 unknown #
vertex $-1 $413 $653 #
straight-curve $-1 0 -24.316878965741971 3.9531501404509273 1 0 0 I I #
vertex $-1 $569 $654 #
straight-curve $-1 0 -18.95564308062022 3.9531501404509273 1 0 0 I I #
point $-1 47.591784417249059 -24.316878965741971 3.9531501404509273 #
point $-1 47.591784417249059 -18.95564308062022 3.9531501404509273 #
straight-curve $-1 -47.591784417249059 -10.818130511590548 6.9531501404509273 0 1 0 I I #
edge $-1 $420 -4.2265750702254632 $572 -1.2265750702254636 $565 $655 forward 7 unknown #
point $-1 -47.591784417249059 -18.95564308062022 6.9531501404509273 #
edge $-1 $424 -6.9531501404509273 $570 -3.9531501404509273 $566 $656 forward 7 unknown #
point $-1 -47.591784417249059 -24.316878965741971 6.9531501404509273 #
straight-curve $-1 47.591784417249059 -24.316878965741971 0 0 0 -1 I I #
plane-surface $-1 0 24.316878965741971 0 0 -1 0 0 0 -1 forward_v I I I I #
coedge $-1 $433 $592 $435 $586 forward $430 $-1 #
vertex $-1 $586 $657 #
straight-curve $-1 -47.591784417249059 18.955643080620224 2.7265750702254636 0 0 1 I I #
edge $-1 $588 -13.498748454151425 $584 -8.1375125690296741 $583 $658 forward 7 unknown #
straight-curve $-1 0 18.955643080620224 3.9531501404509273 -1 0 0 I I #
vertex $-1 $438 $659 #
straight-curve $-1 0 24.316878965741971 3.9531501404509273 -1 0 0 I I #
point $-1 47.591784417249059 18.955643080620224 3.9531501404509273 #
point $-1 47.591784417249059 24.316878965741974 3.9531501404509273 #
coedge $-1 $583 $442 $445 $594 forward $430 $-1 #
straight-curve $-1 -47.591784417249059 10.81813051159055 6.9531501404509273 0 1 0 I I #
edge $-1 $447 -6.9531501404509273 $588 -3.9531501404509273 $445 $660 forward 7 unknown #
point $-1 -47.591784417249059 24.316878965741974 6.9531501404509273 #
point $-1 -47.591784417249059 18.955643080620224 6.9531501404509273 #
straight-curve $-1 47.591784417249059 18.955643080620224 2.7265750702254636 0 0 -1 I I #
straight-curve $-1 47.591784417249059 24.316878965741971 0 0 0 -1 I I #
coedge $-1 $467 $466 $459 $600 forward $456 $-1 #
edge $-1 $601 15.659485602472259 $604 20.401768865390984 $599 $661 forward 7 unknown #
vertex $-1 $600 $662 #
straight-curve $-1 -47.591784417249059 -16.192509167200882 27.094878888870102 0 0 1 I I #
edge $-1 $604 -9.9960803193411003 $468 -2.3967773763784654 $467 $663 forward 7 unknown #
vertex $-1 $603 $664 #
straight-curve $-1 -47.591784417249059 -16.192509167200882 0.96378269784067783 -0.55919289150049634 0 -0.82903758062907751 I I #
point $-1 -47.591784417249059 -16.192509167200882 0.96378269784067783 #
point $-1 -42.849501154330333 -8.5932062242382479 7.9945069840495595 #
straight-curve $-1 -47.591784417249059 0 7.9945069840495604 0 -1 0 I I #
vertex $-1 $474 $665 #
point $-1 -42.507884928855923 -12.392857695719565 4.4586935244358923 #
edge $-1 $612 15.659485602472259 $615 20.401768865390984 $479 $666 forward 7 unknown #
vertex $-1 $611 $667 #
straight-curve $-1 -47.591784417249059 -3.799651471481317 27.094878888870102 0 0 1 I I #
edge $-1 $615 -3.799651471481317 $490 3.799651471481317 $489 $668 forward 7 unknown #
vertex $-1 $614 $669 #
straight-curve $-1 -47.591784417249059 -3.799651471481317 0.96378269784067783 -0.55919289150049634 0 -0.82903758062907751 I I #
point $-1 -47.591784417249059 -3.799651471481317 0.96378269784067783 #
point $-1 -42.849501154330333 3.799651471481317 7.9945069840495595 #
straight-curve $-1 -47.591784417249059 0 7.9945069840495604 0 -1 0 I I #
vertex $-1 $496 $670 #
point $-1 -42.507884928855923 0 4.4586935244358923 #
edge $-1 $623 15.659485602472259 $626 20.401768865390984 $501 $671 forward 7 unknown #
vertex $-1 $505 $672 #
straight-curve $-1 -47.591784417249059 8.5932062242382461 27.094878888870102 0 0 1 I I #
edge $-1 $626 2.3967773763784646 $512 9.9960803193411003 $511 $673 forward 7 unknown #
vertex $-1 $625 $674 #
straight-curve $-1 -47.591784417249059 8.5932062242382461 0.96378269784067783 -0.55919289150049634 0 -0.82903758062907751 I I #
point $-1 -47.591784417249059 8.5932062242382461 0.96378269784067783 #
point $-1 -42.849501154330333 16.192509167200882 7.9945069840495595 #
straight-curve $-1 -47.591784417249059 0 7.9945069840495604 0 -1 0 I I #
vertex $-1 $518 $675 #
point $-1 -42.507884928855923 12.392857695719563 4.4586935244358923 #
coedge $-1 $635 $531 $525 $634 forward $522 $-1 #
edge $-1 $533 7.3950866395837807 $642 9.802405913991592 $633 $676 forward 7 unknown #
coedge $-1 $526 $633 $528 $637 forward $522 $-1 #
straight-curve $-1 37.789378503257467 -8.9500788625856842 7.9945069840495577 -1 0 0 I I #
edge $-1 $642 -18.95564308062022 $529 -8.9500788625856842 $528 $677 forward 7 unknown #
point $-1 47.591784417249059 -8.9500788625856842 7.9945069840495604 #
straight-curve $-1 45.184465142841248 -6.9764304858014761 7.9945069840495577 0 -1 0 I I #
point $-1 45.184465142841248 -18.95564308062022 7.9945069840495648 #
point $-1 45.184465142841248 -8.9500788625856842 7.9945069840495648 #
vertex $-1 $637 $678 #
straight-curve $-1 47.591784417249059 -18.95564308062022 67.977952329449607 0 0 -1 I I #
vertex $-1 $540 $679 #
point $-1 45.167990213094555 -16.096910446896068 4.1563057122641407 #
vertex $-1 $544 $680 #
point $-1 45.167990213094555 -11.808811496309836 4.1563057122641407 #
straight-curve $-1 -47.591784417249059 24.316878965741971 0 0 0 -1 I I #
point $-1 -47.591784417249059 -24.316878965741971 -7.9945069840495604 #
straight-curve $-1 -47.591784417249059 0 -7.9945069840495604 0 1 0 I I #
point $-1 -47.591784417249059 24.316878965741971 -7.9945069840495604 #
straight-curve $-1 -47.591784417249059 -10.818130511590548 3.9531501404509273 0 -1 0 I I #
point $-1 -47.591784417249059 -24.316878965741971 3.9531501404509273 #
point $-1 -47.591784417249059 -18.95564308062022 3.9531501404509273 #
straight-curve $-1 -47.591784417249059 -18.95564308062022 2.7265750702254636 0 0 -1 I I #
straight-curve $-1 -47.591784417249059 -24.316878965741971 0 0 0 -1 I I #
point $-1 -47.591784417249059 18.955643080620224 3.9531501404509273 #
straight-curve $-1 -47.591784417249059 10.81813051159055 3.9531501404509273 0 -1 0 I I #
point $-1 -47.591784417249059 24.316878965741974 3.9531501404509273 #
straight-curve $-1 -47.591784417249059 24.316878965741971 0 0 0 -1 I I #
straight-curve $-1 -63.251270019721318 -16.192509167200882 7.9945069840495613 1 0 0 I I #
point $-1 -47.591784417249059 -16.192509167200882 7.9945069840495604 #
straight-curve $-1 -42.849501154330333 -6.1964288478597824 7.9945069840495613 0 1 0 I I #
point $-1 -42.849501154330333 -16.192509167200882 7.9945069840495595 #
point $-1 -42.103117895163045 -12.392857695719565 2.3763478162415312 #
straight-curve $-1 -63.251270019721318 -3.799651471481317 7.9945069840495613 1 0 0 I I #
point $-1 -47.591784417249059 -3.799651471481317 7.9945069840495604 #
straight-curve $-1 -42.849501154330333 0 7.9945069840495613 0 1 0 I I #
point $-1 -42.849501154330333 -3.799651471481317 7.9945069840495595 #
point $-1 -42.103117895163045 0 2.3763478162415312 #
straight-curve $-1 -63.251270019721318 8.5932062242382461 7.9945069840495613 1 0 0 I I #
point $-1 -47.591784417249059 8.5932062242382461 7.9945069840495604 #
straight-curve $-1 -42.849501154330333 6.1964288478597815 7.9945069840495613 0 1 0 I I #
point $-1 -42.849501154330333 8.5932062242382461 7.9945069840495595 #
point $-1 -42.103117895163045 12.392857695719563 2.3763478162415312 #
straight-curve $-1 37.789378503257467 -18.95564308062022 7.9945069840495577 1 0 0 I I #
straight-curve $-1 47.591784417249059 0 7.9945069840495604 0 1 0 I I #
point $-1 47.591784417249059 -18.95564308062022 7.9945069840495604 #
point $-1 43.784680614455354 -16.096910446896068 4.4503372655244373 #
point $-1 43.784680614455354 -11.808811496309836 4.4503372655244373 #
End-of-ACIS-data 