500 0 4 0           
7 Unknown 11 ACIS 5.0 NT 24 Thu Mar 25 23:29:49 1999 
-1 9.9999999999999995e-007 1e-010 
body $-1 $4 $-1 $5 #
body $-1 $6 $-1 $7 #
body $-1 $8 $-1 $9 #
body $-1 $10 $-1 $11 #
lump $-1 $-1 $12 $0 #
transform $-1 1 0 0 0 1 0 0 0 1 44.843897824030272 26.468807210475706 5.6594473158151146 1 rotate no_reflect no_shear #
lump $-1 $-1 $13 $1 #
transform $-1 1 0 0 0 1 0 0 0 1 44.843897824030272 26.468807210475706 5.6594473158151146 1 rotate no_reflect no_shear #
lump $-1 $-1 $14 $2 #
transform $-1 1 0 0 0 1 0 0 0 1 44.843897824030272 26.468807210475706 5.6594473158151146 1 rotate no_reflect no_shear #
lump $-1 $-1 $15 $3 #
transform $-1 1 0 0 0 1 0 0 0 1 44.843897824030272 26.468807210475706 5.6594473158151146 1 rotate no_reflect no_shear #
shell $-1 $-1 $-1 $16 $-1 $4 #
shell $-1 $-1 $-1 $17 $-1 $6 #
shell $-1 $-1 $-1 $18 $-1 $8 #
shell $-1 $-1 $-1 $19 $-1 $10 #
face $-1 $20 $21 $12 $-1 $22 forward single #
face $-1 $23 $24 $13 $-1 $25 forward single #
face $-1 $26 $27 $14 $-1 $28 reversed single #
face $-1 $29 $30 $15 $-1 $31 reversed single #
face $-1 $32 $33 $12 $-1 $34 reversed single #
loop $-1 $-1 $35 $16 #
plane-surface $-1 0 0 5.6594473158151146 0 0 1 1 0 0 forward_v I I I I #
face $-1 $36 $37 $13 $-1 $38 forward single #
loop $-1 $-1 $39 $17 #
plane-surface $-1 -104.85674763077351 19.969420423637462 67.066653081532351 0 1 0 -0.66913061440640931 0 0.74314481823134659 forward_v I I I I #
face $-1 $40 $41 $14 $-1 $42 reversed single #
loop $-1 $43 $44 $18 #
cone-surface $-1 -41.597409393123463 21.826388077019818 2.6659674923340031 0.66913061440640931 0 -0.74314481823134659 0.3715724091156733 0 0.33456530720320465 1 I I 0 1 0.5 forward I I I I #
face $-1 $45 $46 $15 $-1 $47 reversed single #
loop $-1 $48 $49 $19 #
cone-surface $-1 -41.597409393123463 24.611839557093351 2.6659674923340031 0.66913061440640931 0 -0.74314481823134659 0.3715724091156733 0 0.33456530720320465 1 I I 0 1 0.5 forward I I I I #
face $-1 $50 $51 $12 $-1 $52 reversed single #
loop $-1 $-1 $53 $20 #
plane-surface $-1 0 0 -5.6594473158151146 0 0 1 1 0 0 forward_v I I I I #
coedge $-1 $54 $55 $56 $57 forward $21 $-1 #
face $-1 $58 $59 $13 $-1 $60 forward single #
loop $-1 $-1 $61 $23 #
plane-surface $-1 -44.843897824030279 23.219113817056584 0.41563248708423828 -0.66913061440640931 0 0.74314481823134659 0.74314481823134659 0 0.66913061440640931 forward_v I I I I #
coedge $-1 $62 $63 $64 $65 reversed $24 $-1 #
face $-1 $66 $67 $14 $-1 $68 forward single #
loop $-1 $69 $70 $26 #
cone-surface $-1 -41.095561432318654 21.826388077019818 2.1086088786604931 0.66913061440640931 0 -0.74314481823134659 0.18578620455783665 0 0.16728265360160233 1 I I -0.70710678118654746 0.70710678118654746 0.25 forward I I I I #
loop $-1 $-1 $71 $18 #
coedge $-1 $44 $44 $72 $73 reversed $27 $-1 #
face $-1 $74 $75 $15 $-1 $76 reversed single #
loop $-1 $77 $78 $29 #
cone-surface $-1 -41.095561432318654 24.611839557093351 2.1086088786604931 0.66913061440640931 0 -0.74314481823134659 0.18578620455783665 0 0.16728265360160233 1 I I -0.70710678118654746 0.70710678118654746 0.25 forward I I I I #
loop $-1 $-1 $79 $19 #
coedge $-1 $49 $49 $80 $81 reversed $30 $-1 #
face $-1 $82 $83 $12 $-1 $84 reversed single #
loop $-1 $-1 $85 $32 #
plane-surface $-1 0 -26.468807210475706 0 0 1 0 0 0 1 forward_v I I I I #
coedge $-1 $86 $87 $88 $89 forward $33 $-1 #
coedge $-1 $90 $35 $91 $92 forward $21 $-1 #
coedge $-1 $35 $90 $93 $94 forward $21 $-1 #
coedge $-1 $95 $96 $35 $57 reversed $97 $-1 #
edge $-1 $98 -26.468807210475706 $99 26.468807210475706 $56 $100 forward 7 unknown #
face $-1 $101 $102 $13 $-1 $103 reversed single #
loop $-1 $-1 $104 $36 #
plane-surface $-1 0 0 5.6594473158151146 0 0 1 1 0 0 forward_v I I I I #
coedge $-1 $105 $106 $104 $107 reversed $37 $-1 #
coedge $-1 $63 $39 $106 $108 forward $24 $-1 #
coedge $-1 $39 $62 $109 $110 reversed $24 $-1 #
coedge $-1 $111 $104 $39 $65 forward $59 $-1 #
edge $-1 $112 -13.408322238763688 $113 -7.5844759913564843 $64 $114 forward 7 unknown #
face $-1 $115 $116 $14 $-1 $117 forward single #
loop $-1 $-1 $118 $40 #
plane-surface $-1 -104.85674763077351 19.969420423637462 67.066653081532351 0 1 0 -0.66913061440640931 0 0.74314481823134659 forward_v I I I I #
loop $-1 $-1 $119 $26 #
coedge $-1 $70 $70 $71 $120 forward $41 $-1 #
coedge $-1 $71 $71 $70 $120 reversed $43 $-1 #
coedge $-1 $72 $72 $44 $73 forward $116 $-1 #
edge $-1 $121 0 $121 6.2831853071796004 $72 $122 forward 7 unknown #
face $-1 $123 $124 $15 $-1 $125 reversed single #
loop $-1 $126 $127 $45 #
cone-surface $-1 -41.597409393123463 21.826388077019818 2.6659674923340031 0.66913061440640931 0 -0.74314481823134659 0.3715724091156733 0 0.33456530720320465 1 I I 0 1 0.5 forward I I I I #
loop $-1 $-1 $128 $29 #
coedge $-1 $78 $78 $79 $129 forward $46 $-1 #
coedge $-1 $79 $79 $78 $129 reversed $48 $-1 #
coedge $-1 $80 $80 $49 $81 forward $130 $-1 #
edge $-1 $131 0 $131 6.2831853071796004 $80 $132 forward 7 unknown #
face $-1 $133 $134 $12 $-1 $135 reversed single #
loop $-1 $-1 $136 $50 #
plane-surface $-1 -44.843897824030272 0 0 1 0 0 0 0 -1 forward_v I I I I #
coedge $-1 $137 $93 $138 $139 forward $51 $-1 #
coedge $-1 $140 $53 $137 $141 forward $33 $-1 #
coedge $-1 $53 $140 $142 $143 forward $33 $-1 #
coedge $-1 $96 $95 $53 $89 reversed $97 $-1 #
edge $-1 $144 -26.468807210475706 $145 26.468807210475706 $88 $146 forward 7 unknown #
coedge $-1 $55 $54 $147 $148 forward $21 $-1 #
coedge $-1 $149 $150 $54 $92 reversed $134 $-1 #
edge $-1 $99 -44.843897824030272 $151 44.843897824030272 $91 $152 forward 7 unknown #
coedge $-1 $85 $153 $55 $94 reversed $51 $-1 #
edge $-1 $154 -44.843897824030272 $98 44.843897824030272 $93 $155 forward 7 unknown #
coedge $-1 $88 $56 $153 $156 forward $97 $-1 #
coedge $-1 $56 $88 $149 $157 reversed $97 $-1 #
loop $-1 $-1 $95 $133 #
vertex $-1 $57 $158 #
vertex $-1 $57 $159 #
straight-curve $-1 44.843897824030272 0 5.6594473158151146 0 1 0 I I #
face $-1 $160 $161 $13 $-1 $162 reversed single #
loop $-1 $-1 $109 $58 #
plane-surface $-1 -44.843897824030272 0 0 1 0 0 0 0 -1 forward_v I I I I #
coedge $-1 $64 $163 $61 $107 forward $59 $-1 #
coedge $-1 $164 $61 $165 $166 reversed $37 $-1 #
coedge $-1 $61 $164 $62 $108 reversed $37 $-1 #
edge $-1 $167 -14.859250301947414 $112 -8.3598635151091703 $104 $168 forward 7 unknown #
edge $-1 $112 -7.8367581991188722 $169 -9.5519457560449789e-015 $62 $170 forward 7 unknown #
coedge $-1 $171 $172 $63 $110 forward $102 $-1 #
edge $-1 $113 27.873879224951061 $169 33.11769405368193 $109 $173 forward 7 unknown #
coedge $-1 $174 $64 $172 $175 forward $59 $-1 #
vertex $-1 $107 $176 #
vertex $-1 $175 $177 #
straight-curve $-1 -52.428373815386756 19.969420423637462 5.6594473158151146 -1 0 0 I I #
face $-1 $178 $179 $14 $-1 $180 forward single #
loop $-1 $181 $72 $66 #
plane-surface $-1 -44.843897824030279 23.219113817056584 0.41563248708423828 -0.66913061440640931 0 0.74314481823134659 0.74314481823134659 0 0.66913061440640931 forward_v I I I I #
coedge $-1 $182 $183 $184 $185 reversed $67 $-1 #
coedge $-1 $119 $119 $-1 $186 forward $69 $-1 #
edge $-1 $187 0 $187 6.2831853071796004 $70 $188 forward 7 unknown #
vertex $-1 $73 $189 #
ellipse-curve $-1 -41.93197470032667 21.826388077019818 3.0375399014496796 0.66913061440640931 0 -0.74314481823134659 0.3715724091156733 0 0.33456530720320465 1 I I #
face $-1 $190 $191 $15 $-1 $192 forward single #
loop $-1 $193 $194 $74 #
cone-surface $-1 -41.095561432318654 21.826388077019818 2.1086088786604931 0.66913061440640931 0 -0.74314481823134659 0.18578620455783665 0 0.16728265360160233 1 I I -0.70710678118654746 0.70710678118654746 0.25 forward I I I I #
loop $-1 $-1 $195 $45 #
coedge $-1 $127 $127 $196 $197 reversed $75 $-1 #
coedge $-1 $128 $128 $-1 $198 forward $77 $-1 #
edge $-1 $199 0 $199 6.2831853071796004 $78 $200 forward 7 unknown #
loop $-1 $201 $80 $190 #
vertex $-1 $81 $202 #
ellipse-curve $-1 -41.93197470032667 24.611839557093351 3.0375399014496796 0.66913061440640931 0 -0.74314481823134659 0.3715724091156733 0 0.33456530720320465 1 I I #
face $-1 $-1 $97 $12 $-1 $203 reversed single #
loop $-1 $-1 $149 $82 #
plane-surface $-1 0 26.468807210475706 0 0 -1 0 0 0 -1 forward_v I I I I #
coedge $-1 $204 $147 $150 $205 forward $83 $-1 #
coedge $-1 $153 $85 $86 $141 reversed $51 $-1 #
coedge $-1 $147 $204 $85 $139 reversed $83 $-1 #
edge $-1 $154 -5.6594473158151146 $206 5.6594473158151146 $138 $207 forward 7 unknown #
coedge $-1 $87 $86 $204 $208 forward $33 $-1 #
edge $-1 $145 -44.843897824030272 $206 44.843897824030272 $137 $209 forward 7 unknown #
coedge $-1 $150 $149 $87 $143 reversed $134 $-1 #
edge $-1 $210 -44.843897824030272 $144 44.843897824030272 $142 $211 forward 7 unknown #
vertex $-1 $89 $212 #
vertex $-1 $156 $213 #
straight-curve $-1 44.843897824030272 0 -5.6594473158151146 0 -1 0 I I #
coedge $-1 $136 $138 $90 $148 reversed $83 $-1 #
edge $-1 $151 -26.468807210475706 $154 26.468807210475706 $147 $214 forward 7 unknown #
coedge $-1 $142 $91 $96 $157 forward $134 $-1 #
coedge $-1 $91 $142 $136 $205 reversed $134 $-1 #
vertex $-1 $92 $215 #
straight-curve $-1 0 26.468807210475706 5.6594473158151146 -1 0 0 I I #
coedge $-1 $93 $137 $95 $156 reversed $51 $-1 #
vertex $-1 $148 $216 #
straight-curve $-1 0 -26.468807210475706 5.6594473158151146 1 0 0 I I #
edge $-1 $98 -5.6594473158151146 $145 5.6594473158151146 $95 $217 forward 7 unknown #
edge $-1 $99 -5.6594473158151146 $144 5.6594473158151146 $96 $218 forward 7 unknown #
point $-1 44.843897824030272 -26.468807210475706 5.6594473158151146 #
point $-1 44.843897824030272 26.468807210475706 5.6594473158151146 #
face $-1 $219 $220 $13 $-1 $221 reversed single #
loop $-1 $-1 $222 $101 #
plane-surface $-1 0 0 -5.6594473158151146 0 0 1 1 0 0 forward_v I I I I #
coedge $-1 $104 $223 $224 $225 forward $59 $-1 #
coedge $-1 $106 $105 $171 $226 reversed $37 $-1 #
coedge $-1 $224 $227 $105 $166 forward $228 $-1 #
edge $-1 $229 -16.523698937887051 $167 -8.6869407387681878 $165 $230 forward 7 unknown #
vertex $-1 $166 $231 #
straight-curve $-1 -39.020051576623068 11.609556908528292 5.6594473158151137 0 -1 0 I I #
vertex $-1 $226 $232 #
straight-curve $-1 -44.843897824030279 19.969420423637462 0.41563248708423828 -0.74314481823134659 0 -0.66913061440640931 I I #
coedge $-1 $233 $109 $164 $226 forward $102 $-1 #
coedge $-1 $109 $234 $111 $175 reversed $102 $-1 #
straight-curve $-1 -44.843897824030272 19.969420423637462 33.533326540766176 0 0 -1 I I #
coedge $-1 $223 $111 $235 $236 forward $59 $-1 #
edge $-1 $113 -19.969420423637462 $237 26.468807210475706 $172 $238 forward 7 unknown #
point $-1 -39.020051576623068 19.969420423637462 5.6594473158151146 #
point $-1 -44.843897824030272 19.969420423637462 5.6594473158151146 #
face $-1 $239 $240 $14 $-1 $241 reversed single #
loop $-1 $-1 $242 $115 #
plane-surface $-1 0 0 5.6594473158151146 0 0 1 1 0 0 forward_v I I I I #
loop $-1 $-1 $243 $66 #
coedge $-1 $183 $118 $244 $245 forward $67 $-1 #
coedge $-1 $118 $182 $246 $247 reversed $67 $-1 #
coedge $-1 $248 $242 $118 $185 forward $179 $-1 #
edge $-1 $249 -13.408322238763688 $250 -7.5844759913564843 $184 $251 forward 7 unknown #
edge $-1 $252 1 $252 0 $119 $-1 forward 7 unknown #
vertex $-1 $120 $253 #
ellipse-curve $-1 -41.262844085920257 21.826388077019818 2.2943950832183297 -0.66913061440640931 0 0.74314481823134659 0.3715724091156733 0 0.33456530720320465 1 I I #
point $-1 -41.560402291210991 21.826388077019818 3.3721052086528811 #
face $-1 $254 $130 $15 $-1 $255 forward single #
loop $-1 $-1 $256 $123 #
plane-surface $-1 -104.85674763077351 19.969420423637462 67.066653081532351 0 1 0 -0.66913061440640931 0 0.74314481823134659 forward_v I I I I #
loop $-1 $-1 $257 $74 #
coedge $-1 $194 $194 $195 $258 forward $124 $-1 #
coedge $-1 $195 $195 $194 $258 reversed $126 $-1 #
coedge $-1 $196 $196 $127 $197 forward $201 $-1 #
edge $-1 $259 0 $259 6.2831853071796004 $196 $260 forward 7 unknown #
edge $-1 $261 1 $261 0 $128 $-1 forward 7 unknown #
vertex $-1 $129 $262 #
ellipse-curve $-1 -41.262844085920257 24.611839557093351 2.2943950832183297 -0.66913061440640931 0 0.74314481823134659 0.3715724091156733 0 0.33456530720320465 1 I I #
loop $-1 $263 $196 $190 #
point $-1 -41.560402291210991 24.611839557093351 3.3721052086528811 #
plane-surface $-1 44.843897824030272 0 0 -1 0 0 0 0 1 forward_v I I I I #
coedge $-1 $138 $136 $140 $208 reversed $83 $-1 #
edge $-1 $151 -5.6594473158151146 $210 5.6594473158151146 $150 $264 forward 7 unknown #
vertex $-1 $208 $265 #
straight-curve $-1 -44.843897824030272 -26.468807210475706 0 0 0 -1 I I #
edge $-1 $206 -26.468807210475706 $210 26.468807210475706 $204 $266 forward 7 unknown #
straight-curve $-1 0 -26.468807210475706 -5.6594473158151146 -1 0 0 I I #
vertex $-1 $143 $267 #
straight-curve $-1 0 26.468807210475706 -5.6594473158151146 1 0 0 I I #
point $-1 44.843897824030272 26.468807210475706 -5.6594473158151146 #
point $-1 44.843897824030272 -26.468807210475706 -5.6594473158151146 #
straight-curve $-1 -44.843897824030272 0 5.6594473158151146 0 -1 0 I I #
point $-1 -44.843897824030272 26.468807210475706 5.6594473158151146 #
point $-1 -44.843897824030272 -26.468807210475706 5.6594473158151146 #
straight-curve $-1 44.843897824030272 -26.468807210475706 0 0 0 -1 I I #
straight-curve $-1 44.843897824030272 26.468807210475706 0 0 0 -1 I I #
face $-1 $268 $228 $13 $-1 $269 reversed single #
loop $-1 $-1 $270 $160 #
plane-surface $-1 0 -26.468807210475706 0 0 1 0 0 0 1 forward_v I I I I #
coedge $-1 $271 $272 $273 $274 forward $161 $-1 #
coedge $-1 $163 $174 $275 $276 forward $59 $-1 #
coedge $-1 $277 $165 $163 $225 reversed $228 $-1 #
edge $-1 $278 -44.843897824030272 $167 39.020051576623068 $224 $279 forward 7 unknown #
edge $-1 $169 8.3598635151091703 $229 14.859250301947414 $171 $280 forward 7 unknown #
coedge $-1 $165 $281 $233 $282 reversed $228 $-1 #
loop $-1 $-1 $165 $219 #
vertex $-1 $282 $283 #
straight-curve $-1 -32.564396580324704 26.468807210475706 11.47214530965914 0.74314481823134659 0 0.66913061440640931 I I #
point $-1 -39.020051576623068 26.468807210475706 5.6594473158151146 #
point $-1 -44.843897824030272 19.969420423637462 0.41563248708424466 #
coedge $-1 $284 $171 $227 $282 forward $102 $-1 #
coedge $-1 $172 $284 $270 $285 reversed $102 $-1 #
coedge $-1 $270 $286 $174 $236 reversed $220 $-1 #
edge $-1 $237 -44.843897824030272 $287 44.843897824030272 $235 $288 forward 7 unknown #
vertex $-1 $175 $289 #
straight-curve $-1 -44.843897824030272 0 5.6594473158151146 0 -1 0 I I #
face $-1 $290 $291 $14 $-1 $292 reversed single #
loop $-1 $-1 $246 $178 #
plane-surface $-1 -44.843897824030272 0 0 1 0 0 0 0 -1 forward_v I I I I #
coedge $-1 $184 $293 $243 $294 forward $179 $-1 #
coedge $-1 $295 $244 $242 $294 reversed $181 $-1 #
coedge $-1 $243 $296 $182 $245 reversed $181 $-1 #
edge $-1 $249 -7.8367581991188722 $297 -9.5519457560449789e-015 $182 $298 forward 7 unknown #
coedge $-1 $299 $300 $183 $247 forward $240 $-1 #
edge $-1 $250 27.873879224951061 $297 33.11769405368193 $246 $301 forward 7 unknown #
coedge $-1 $302 $184 $300 $303 forward $179 $-1 #
vertex $-1 $294 $304 #
vertex $-1 $303 $305 #
straight-curve $-1 -52.428373815386756 19.969420423637462 5.6594473158151146 -1 0 0 I I #
vertex $-1 $186 $306 #
point $-1 -40.891271676804585 21.826388077019818 2.6289603904215344 #
face $-1 $307 $308 $15 $-1 $309 forward single #
plane-surface $-1 -44.843897824030279 23.219113817056584 0.41563248708423828 -0.66913061440640931 0 0.74314481823134659 0.74314481823134659 0 0.66913061440640931 forward_v I I I I #
coedge $-1 $310 $311 $312 $313 reversed $191 $-1 #
coedge $-1 $257 $257 $-1 $314 forward $193 $-1 #
edge $-1 $315 0 $315 6.2831853071796004 $194 $316 forward 7 unknown #
vertex $-1 $197 $317 #
ellipse-curve $-1 -41.93197470032667 21.826388077019818 3.0375399014496796 0.66913061440640931 0 -0.74314481823134659 0.3715724091156733 0 0.33456530720320465 1 I I #
vertex $-1 $198 $318 #
point $-1 -40.891271676804585 24.611839557093351 2.6289603904215344 #
loop $-1 $-1 $319 $190 #
straight-curve $-1 -44.843897824030272 26.468807210475706 0 0 0 -1 I I #
point $-1 -44.843897824030272 -26.468807210475706 -5.6594473158151146 #
straight-curve $-1 -44.843897824030272 0 -5.6594473158151146 0 1 0 I I #
point $-1 -44.843897824030272 26.468807210475706 -5.6594473158151146 #
face $-1 $-1 $320 $13 $-1 $321 reversed single #
plane-surface $-1 0 26.468807210475706 0 0 -1 0 0 0 -1 forward_v I I I I #
coedge $-1 $322 $235 $234 $285 forward $220 $-1 #
coedge $-1 $323 $222 $322 $324 forward $161 $-1 #
coedge $-1 $222 $323 $281 $325 forward $161 $-1 #
coedge $-1 $326 $327 $222 $274 reversed $320 $-1 #
edge $-1 $328 -26.468807210475706 $329 26.468807210475706 $273 $330 forward 7 unknown #
coedge $-1 $327 $326 $223 $276 reversed $320 $-1 #
edge $-1 $287 -26.468807210475706 $278 26.468807210475706 $275 $331 forward 7 unknown #
coedge $-1 $281 $224 $326 $332 forward $228 $-1 #
vertex $-1 $276 $333 #
straight-curve $-1 0 26.468807210475706 5.6594473158151146 -1 0 0 I I #
straight-curve $-1 -44.843897824030272 11.609556908528292 0.41563248708424716 0 1 0 I I #
coedge $-1 $227 $277 $272 $325 reversed $228 $-1 #
edge $-1 $229 -0.41563248708424466 $334 5.6594473158151146 $227 $335 forward 7 unknown #
point $-1 -44.843897824030272 26.468807210475706 0.41563248708424466 #
coedge $-1 $234 $233 $323 $336 reversed $102 $-1 #
edge $-1 $237 -5.6594473158151146 $337 5.6594473158151146 $234 $338 forward 7 unknown #
coedge $-1 $235 $322 $327 $339 reversed $220 $-1 #
vertex $-1 $276 $340 #
straight-curve $-1 0 -26.468807210475706 5.6594473158151146 1 0 0 I I #
point $-1 -44.843897824030272 -26.468807210475706 5.6594473158151146 #
face $-1 $341 $342 $14 $-1 $343 reversed single #
loop $-1 $-1 $344 $239 #
plane-surface $-1 0 0 -5.6594473158151146 0 0 1 1 0 0 forward_v I I I I #
coedge $-1 $242 $345 $346 $347 forward $179 $-1 #
edge $-1 $348 -14.859250301947414 $249 -8.3598635151091703 $242 $349 forward 7 unknown #
coedge $-1 $296 $243 $350 $351 reversed $181 $-1 #
coedge $-1 $244 $295 $299 $352 reversed $181 $-1 #
vertex $-1 $352 $353 #
straight-curve $-1 -44.843897824030279 19.969420423637462 0.41563248708423828 -0.74314481823134659 0 -0.66913061440640931 I I #
coedge $-1 $354 $246 $296 $352 forward $240 $-1 #
coedge $-1 $246 $355 $248 $303 reversed $240 $-1 #
straight-curve $-1 -44.843897824030272 19.969420423637462 33.533326540766176 0 0 -1 I I #
coedge $-1 $345 $248 $356 $357 forward $179 $-1 #
edge $-1 $250 -19.969420423637462 $358 26.468807210475706 $300 $359 forward 7 unknown #
point $-1 -39.020051576623068 19.969420423637462 5.6594473158151146 #
point $-1 -44.843897824030272 19.969420423637462 5.6594473158151146 #
point $-1 -40.928278778717051 21.826388077019818 1.9228226741026564 #
face $-1 $360 $361 $15 $-1 $362 reversed single #
loop $-1 $-1 $363 $254 #
plane-surface $-1 0 0 5.6594473158151146 0 0 1 1 0 0 forward_v I I I I #
coedge $-1 $311 $256 $364 $365 forward $191 $-1 #
coedge $-1 $256 $310 $366 $367 reversed $191 $-1 #
coedge $-1 $368 $363 $256 $313 forward $308 $-1 #
edge $-1 $369 -13.408322238763688 $370 -7.5844759913564843 $312 $371 forward 7 unknown #
edge $-1 $372 1 $372 0 $257 $-1 forward 7 unknown #
vertex $-1 $258 $373 #
ellipse-curve $-1 -41.262844085920257 21.826388077019818 2.2943950832183297 -0.66913061440640931 0 0.74314481823134659 0.3715724091156733 0 0.33456530720320465 1 I I #
point $-1 -41.560402291210991 21.826388077019818 3.3721052086528811 #
point $-1 -40.928278778717051 24.611839557093351 1.9228226741026564 #
coedge $-1 $374 $364 $363 $375 reversed $263 $-1 #
loop $-1 $-1 $327 $268 #
plane-surface $-1 44.843897824030272 0 0 -1 0 0 0 0 1 forward_v I I I I #
coedge $-1 $286 $270 $271 $324 reversed $220 $-1 #
coedge $-1 $272 $271 $284 $336 forward $161 $-1 #
edge $-1 $329 -44.843897824030272 $337 44.843897824030272 $322 $376 forward 7 unknown #
edge $-1 $334 -44.843897824030272 $328 44.843897824030272 $281 $377 forward 7 unknown #
coedge $-1 $275 $273 $277 $332 reversed $320 $-1 #
coedge $-1 $273 $275 $286 $339 forward $320 $-1 #
vertex $-1 $274 $378 #
vertex $-1 $339 $379 #
straight-curve $-1 44.843897824030272 0 -5.6594473158151146 0 -1 0 I I #
straight-curve $-1 44.843897824030272 0 5.6594473158151146 0 1 0 I I #
edge $-1 $278 -5.6594473158151146 $328 5.6594473158151146 $326 $380 forward 7 unknown #
point $-1 44.843897824030272 26.468807210475706 5.6594473158151146 #
vertex $-1 $325 $381 #
straight-curve $-1 -44.843897824030272 26.468807210475706 0 0 0 -1 I I #
edge $-1 $337 -26.468807210475706 $334 26.468807210475706 $284 $382 forward 7 unknown #
vertex $-1 $336 $383 #
straight-curve $-1 -44.843897824030272 -26.468807210475706 0 0 0 -1 I I #
edge $-1 $287 -5.6594473158151146 $329 5.6594473158151146 $327 $384 forward 7 unknown #
point $-1 44.843897824030272 -26.468807210475706 5.6594473158151146 #
face $-1 $385 $386 $14 $-1 $387 reversed single #
loop $-1 $-1 $388 $290 #
plane-surface $-1 0 -26.468807210475706 0 0 1 0 0 0 1 forward_v I I I I #
coedge $-1 $389 $390 $391 $392 forward $291 $-1 #
coedge $-1 $293 $302 $393 $394 forward $179 $-1 #
coedge $-1 $395 $350 $293 $347 reversed $386 $-1 #
edge $-1 $396 -44.843897824030272 $348 39.020051576623068 $346 $397 forward 7 unknown #
vertex $-1 $351 $398 #
straight-curve $-1 -39.020051576623068 11.609556908528292 5.6594473158151137 0 -1 0 I I #
coedge $-1 $346 $399 $295 $351 forward $386 $-1 #
edge $-1 $400 -16.523698937887051 $348 -8.6869407387681878 $350 $401 forward 7 unknown #
edge $-1 $297 8.3598635151091703 $400 14.859250301947414 $299 $402 forward 7 unknown #
point $-1 -44.843897824030272 19.969420423637462 0.41563248708424466 #
coedge $-1 $403 $299 $399 $404 forward $240 $-1 #
coedge $-1 $300 $403 $388 $405 reversed $240 $-1 #
coedge $-1 $388 $406 $302 $357 reversed $342 $-1 #
edge $-1 $358 -44.843897824030272 $407 44.843897824030272 $356 $408 forward 7 unknown #
vertex $-1 $303 $409 #
straight-curve $-1 -44.843897824030272 0 5.6594473158151146 0 -1 0 I I #
face $-1 $410 $411 $15 $-1 $412 reversed single #
loop $-1 $-1 $366 $307 #
plane-surface $-1 -44.843897824030272 0 0 1 0 0 0 0 -1 forward_v I I I I #
coedge $-1 $312 $413 $319 $375 forward $308 $-1 #
coedge $-1 $319 $414 $310 $365 reversed $263 $-1 #
edge $-1 $369 -7.8367581991188722 $415 -9.5519457560449789e-015 $310 $416 forward 7 unknown #
coedge $-1 $417 $418 $311 $367 forward $361 $-1 #
edge $-1 $370 27.873879224951061 $415 33.11769405368193 $366 $419 forward 7 unknown #
coedge $-1 $420 $312 $418 $421 forward $308 $-1 #
vertex $-1 $375 $422 #
vertex $-1 $421 $423 #
straight-curve $-1 -52.428373815386756 19.969420423637462 5.6594473158151146 -1 0 0 I I #
vertex $-1 $314 $424 #
point $-1 -40.891271676804585 21.826388077019818 2.6289603904215344 #
coedge $-1 $414 $319 $425 $426 reversed $263 $-1 #
edge $-1 $427 -14.859250301947414 $369 -8.3598635151091703 $363 $428 forward 7 unknown #
straight-curve $-1 0 -26.468807210475706 -5.6594473158151146 -1 0 0 I I #
straight-curve $-1 0 26.468807210475706 -5.6594473158151146 1 0 0 I I #
point $-1 44.843897824030272 26.468807210475706 -5.6594473158151146 #
point $-1 44.843897824030272 -26.468807210475706 -5.6594473158151146 #
straight-curve $-1 44.843897824030272 26.468807210475706 0 0 0 -1 I I #
point $-1 -44.843897824030272 26.468807210475706 -5.6594473158151146 #
straight-curve $-1 -44.843897824030272 0 -5.6594473158151146 0 1 0 I I #
point $-1 -44.843897824030272 -26.468807210475706 -5.6594473158151146 #
straight-curve $-1 44.843897824030272 -26.468807210475706 0 0 0 -1 I I #
face $-1 $-1 $429 $14 $-1 $430 reversed single #
loop $-1 $-1 $350 $341 #
plane-surface $-1 0 26.468807210475706 0 0 -1 0 0 0 -1 forward_v I I I I #
coedge $-1 $431 $356 $355 $405 forward $342 $-1 #
coedge $-1 $432 $344 $431 $433 forward $291 $-1 #
coedge $-1 $344 $432 $434 $435 forward $291 $-1 #
coedge $-1 $436 $437 $344 $392 reversed $429 $-1 #
edge $-1 $438 -26.468807210475706 $439 26.468807210475706 $391 $440 forward 7 unknown #
coedge $-1 $437 $436 $345 $394 reversed $429 $-1 #
edge $-1 $407 -26.468807210475706 $396 26.468807210475706 $393 $441 forward 7 unknown #
coedge $-1 $434 $346 $436 $442 forward $386 $-1 #
vertex $-1 $394 $443 #
straight-curve $-1 0 26.468807210475706 5.6594473158151146 -1 0 0 I I #
point $-1 -39.020051576623068 26.468807210475706 5.6594473158151146 #
coedge $-1 $350 $434 $354 $404 reversed $386 $-1 #
vertex $-1 $404 $444 #
straight-curve $-1 -32.564396580324704 26.468807210475706 11.47214530965914 0.74314481823134659 0 0.66913061440640931 I I #
straight-curve $-1 -44.843897824030272 11.609556908528292 0.41563248708424716 0 1 0 I I #
coedge $-1 $355 $354 $432 $445 reversed $240 $-1 #
edge $-1 $400 -0.41563248708424466 $446 5.6594473158151146 $399 $447 forward 7 unknown #
edge $-1 $358 -5.6594473158151146 $448 5.6594473158151146 $355 $449 forward 7 unknown #
coedge $-1 $356 $431 $437 $450 reversed $342 $-1 #
vertex $-1 $394 $451 #
straight-curve $-1 0 -26.468807210475706 5.6594473158151146 1 0 0 I I #
point $-1 -44.843897824030272 -26.468807210475706 5.6594473158151146 #
face $-1 $452 $453 $15 $-1 $454 reversed single #
loop $-1 $-1 $455 $360 #
plane-surface $-1 0 0 -5.6594473158151146 0 0 1 1 0 0 forward_v I I I I #
coedge $-1 $363 $456 $457 $458 forward $308 $-1 #
coedge $-1 $364 $374 $417 $459 reversed $263 $-1 #
vertex $-1 $459 $460 #
straight-curve $-1 -44.843897824030279 19.969420423637462 0.41563248708423828 -0.74314481823134659 0 -0.66913061440640931 I I #
coedge $-1 $461 $366 $414 $459 forward $361 $-1 #
coedge $-1 $366 $462 $368 $421 reversed $361 $-1 #
straight-curve $-1 -44.843897824030272 19.969420423637462 33.533326540766176 0 0 -1 I I #
coedge $-1 $456 $368 $463 $464 forward $308 $-1 #
edge $-1 $370 -19.969420423637462 $465 26.468807210475706 $418 $466 forward 7 unknown #
point $-1 -39.020051576623068 19.969420423637462 5.6594473158151146 #
point $-1 -44.843897824030272 19.969420423637462 5.6594473158151146 #
point $-1 -40.928278778717051 21.826388077019818 1.9228226741026564 #
coedge $-1 $457 $467 $374 $426 forward $468 $-1 #
edge $-1 $469 -16.523698937887051 $427 -8.6869407387681878 $425 $470 forward 7 unknown #
vertex $-1 $426 $471 #
straight-curve $-1 -39.020051576623068 11.609556908528292 5.6594473158151137 0 -1 0 I I #
loop $-1 $-1 $437 $385 #
plane-surface $-1 44.843897824030272 0 0 -1 0 0 0 0 1 forward_v I I I I #
coedge $-1 $406 $388 $389 $433 reversed $342 $-1 #
coedge $-1 $390 $389 $403 $445 forward $291 $-1 #
edge $-1 $439 -44.843897824030272 $448 44.843897824030272 $431 $472 forward 7 unknown #
coedge $-1 $399 $395 $390 $435 reversed $386 $-1 #
edge $-1 $446 -44.843897824030272 $438 44.843897824030272 $434 $473 forward 7 unknown #
coedge $-1 $393 $391 $395 $442 reversed $429 $-1 #
coedge $-1 $391 $393 $406 $450 forward $429 $-1 #
vertex $-1 $392 $474 #
vertex $-1 $450 $475 #
straight-curve $-1 44.843897824030272 0 -5.6594473158151146 0 -1 0 I I #
straight-curve $-1 44.843897824030272 0 5.6594473158151146 0 1 0 I I #
edge $-1 $396 -5.6594473158151146 $438 5.6594473158151146 $436 $476 forward 7 unknown #
point $-1 44.843897824030272 26.468807210475706 5.6594473158151146 #
point $-1 -44.843897824030272 26.468807210475706 0.41563248708424466 #
edge $-1 $448 -26.468807210475706 $446 26.468807210475706 $403 $477 forward 7 unknown #
vertex $-1 $435 $478 #
straight-curve $-1 -44.843897824030272 26.468807210475706 0 0 0 -1 I I #
vertex $-1 $445 $479 #
straight-curve $-1 -44.843897824030272 -26.468807210475706 0 0 0 -1 I I #
edge $-1 $407 -5.6594473158151146 $439 5.6594473158151146 $437 $480 forward 7 unknown #
point $-1 44.843897824030272 -26.468807210475706 5.6594473158151146 #
face $-1 $481 $468 $15 $-1 $482 reversed single #
loop $-1 $-1 $483 $410 #
plane-surface $-1 0 -26.468807210475706 0 0 1 0 0 0 1 forward_v I I I I #
coedge $-1 $484 $485 $486 $487 forward $411 $-1 #
coedge $-1 $413 $420 $488 $489 forward $308 $-1 #
coedge $-1 $490 $425 $413 $458 reversed $468 $-1 #
edge $-1 $491 -44.843897824030272 $427 39.020051576623068 $457 $492 forward 7 unknown #
edge $-1 $415 8.3598635151091703 $469 14.859250301947414 $417 $493 forward 7 unknown #
point $-1 -44.843897824030272 19.969420423637462 0.41563248708424466 #
coedge $-1 $494 $417 $467 $495 forward $361 $-1 #
coedge $-1 $418 $494 $483 $496 reversed $361 $-1 #
coedge $-1 $483 $497 $420 $464 reversed $453 $-1 #
edge $-1 $465 -44.843897824030272 $498 44.843897824030272 $463 $499 forward 7 unknown #
vertex $-1 $421 $500 #
straight-curve $-1 -44.843897824030272 0 5.6594473158151146 0 -1 0 I I #
coedge $-1 $425 $501 $461 $495 reversed $468 $-1 #
loop $-1 $-1 $425 $452 #
vertex $-1 $495 $502 #
straight-curve $-1 -32.564396580324704 26.468807210475706 11.47214530965914 0.74314481823134659 0 0.66913061440640931 I I #
point $-1 -39.020051576623068 26.468807210475706 5.6594473158151146 #
straight-curve $-1 0 -26.468807210475706 -5.6594473158151146 -1 0 0 I I #
straight-curve $-1 0 26.468807210475706 -5.6594473158151146 1 0 0 I I #
point $-1 44.843897824030272 26.468807210475706 -5.6594473158151146 #
point $-1 44.843897824030272 -26.468807210475706 -5.6594473158151146 #
straight-curve $-1 44.843897824030272 26.468807210475706 0 0 0 -1 I I #
straight-curve $-1 -44.843897824030272 0 -5.6594473158151146 0 1 0 I I #
point $-1 -44.843897824030272 26.468807210475706 -5.6594473158151146 #
point $-1 -44.843897824030272 -26.468807210475706 -5.6594473158151146 #
straight-curve $-1 44.843897824030272 -26.468807210475706 0 0 0 -1 I I #
face $-1 $-1 $503 $15 $-1 $504 reversed single #
plane-surface $-1 0 26.468807210475706 0 0 -1 0 0 0 -1 forward_v I I I I #
coedge $-1 $505 $463 $462 $496 forward $453 $-1 #
coedge $-1 $506 $455 $505 $507 forward $411 $-1 #
coedge $-1 $455 $506 $501 $508 forward $411 $-1 #
coedge $-1 $509 $510 $455 $487 reversed $503 $-1 #
edge $-1 $511 -26.468807210475706 $512 26.468807210475706 $486 $513 forward 7 unknown #
coedge $-1 $510 $509 $456 $489 reversed $503 $-1 #
edge $-1 $498 -26.468807210475706 $491 26.468807210475706 $488 $514 forward 7 unknown #
coedge $-1 $501 $457 $509 $515 forward $468 $-1 #
vertex $-1 $489 $516 #
straight-curve $-1 0 26.468807210475706 5.6594473158151146 -1 0 0 I I #
straight-curve $-1 -44.843897824030272 11.609556908528292 0.41563248708424716 0 1 0 I I #
coedge $-1 $462 $461 $506 $517 reversed $361 $-1 #
edge $-1 $469 -0.41563248708424466 $518 5.6594473158151146 $467 $519 forward 7 unknown #
edge $-1 $465 -5.6594473158151146 $520 5.6594473158151146 $462 $521 forward 7 unknown #
coedge $-1 $463 $505 $510 $522 reversed $453 $-1 #
vertex $-1 $489 $523 #
straight-curve $-1 0 -26.468807210475706 5.6594473158151146 1 0 0 I I #
point $-1 -44.843897824030272 -26.468807210475706 5.6594473158151146 #
coedge $-1 $467 $490 $485 $508 reversed $468 $-1 #
point $-1 -44.843897824030272 26.468807210475706 0.41563248708424466 #
loop $-1 $-1 $510 $481 #
plane-surface $-1 44.843897824030272 0 0 -1 0 0 0 0 1 forward_v I I I I #
coedge $-1 $497 $483 $484 $507 reversed $453 $-1 #
coedge $-1 $485 $484 $494 $517 forward $411 $-1 #
edge $-1 $512 -44.843897824030272 $520 44.843897824030272 $505 $524 forward 7 unknown #
edge $-1 $518 -44.843897824030272 $511 44.843897824030272 $501 $525 forward 7 unknown #
coedge $-1 $488 $486 $490 $515 reversed $503 $-1 #
coedge $-1 $486 $488 $497 $522 forward $503 $-1 #
vertex $-1 $487 $526 #
vertex $-1 $522 $527 #
straight-curve $-1 44.843897824030272 0 -5.6594473158151146 0 -1 0 I I #
straight-curve $-1 44.843897824030272 0 5.6594473158151146 0 1 0 I I #
edge $-1 $491 -5.6594473158151146 $511 5.6594473158151146 $509 $528 forward 7 unknown #
point $-1 44.843897824030272 26.468807210475706 5.6594473158151146 #
edge $-1 $520 -26.468807210475706 $518 26.468807210475706 $494 $529 forward 7 unknown #
vertex $-1 $508 $530 #
straight-curve $-1 -44.843897824030272 26.468807210475706 0 0 0 -1 I I #
vertex $-1 $517 $531 #
straight-curve $-1 -44.843897824030272 -26.468807210475706 0 0 0 -1 I I #
edge $-1 $498 -5.6594473158151146 $512 5.6594473158151146 $510 $532 forward 7 unknown #
point $-1 44.843897824030272 -26.468807210475706 5.6594473158151146 #
straight-curve $-1 0 -26.468807210475706 -5.6594473158151146 -1 0 0 I I #
straight-curve $-1 0 26.468807210475706 -5.6594473158151146 1 0 0 I I #
point $-1 44.843897824030272 26.468807210475706 -5.6594473158151146 #
point $-1 44.843897824030272 -26.468807210475706 -5.6594473158151146 #
straight-curve $-1 44.843897824030272 26.468807210475706 0 0 0 -1 I I #
straight-curve $-1 -44.843897824030272 0 -5.6594473158151146 0 1 0 I I #
point $-1 -44.843897824030272 26.468807210475706 -5.6594473158151146 #
point $-1 -44.843897824030272 -26.468807210475706 -5.6594473158151146 #
straight-curve $-1 44.843897824030272 -26.468807210475706 0 0 0 -1 I I #
End-of-ACIS-data 