500 0 5 0           
7 Unknown 11 ACIS 5.0 NT 24 Fri Mar 26 19:30:34 1999 
-1 9.9999999999999995e-007 1e-010 
body $-1 $5 $-1 $6 #
body $-1 $7 $-1 $8 #
body $-1 $9 $-1 $10 #
body $-1 $11 $-1 $12 #
body $-1 $13 $-1 $14 #
lump $-1 $-1 $15 $0 #
transform $-1 1 0 0 0 1 0 0 0 1 41.73955504013184 21.556753503010441 4.7755508187613387 1 rotate no_reflect no_shear #
lump $-1 $-1 $16 $1 #
transform $-1 1 0 0 0 1 0 0 0 1 41.73955504013184 21.556753503010441 4.7755508187613387 1 rotate no_reflect no_shear #
lump $-1 $-1 $17 $2 #
transform $-1 1 0 0 0 1 0 0 0 1 41.73955504013184 21.556753503010441 4.7755508187613387 1 rotate no_reflect no_shear #
lump $-1 $-1 $18 $3 #
transform $-1 1 0 0 0 1 0 0 0 1 41.73955504013184 21.556753503010441 4.7755508187613387 1 rotate no_reflect no_shear #
lump $-1 $-1 $19 $4 #
transform $-1 1 0 0 0 1 0 0 0 1 41.73955504013184 21.556753503010441 4.7755508187613387 1 rotate no_reflect no_shear #
shell $-1 $-1 $-1 $20 $-1 $5 #
shell $-1 $-1 $-1 $21 $-1 $7 #
shell $-1 $-1 $-1 $22 $-1 $9 #
shell $-1 $-1 $-1 $23 $-1 $11 #
shell $-1 $-1 $-1 $24 $-1 $13 #
face $-1 $25 $26 $15 $-1 $27 forward single #
face $-1 $28 $29 $16 $-1 $30 reversed single #
face $-1 $31 $32 $17 $-1 $33 forward single #
face $-1 $34 $35 $18 $-1 $36 reversed single #
face $-1 $37 $38 $19 $-1 $39 reversed single #
face $-1 $40 $41 $15 $-1 $42 reversed single #
loop $-1 $-1 $43 $20 #
plane-surface $-1 0 0 4.7755508187613387 0 0 1 1 0 0 forward_v I I I I #
face $-1 $44 $45 $16 $-1 $46 forward single #
loop $-1 $-1 $47 $21 #
plane-surface $-1 0 -19.408153512119497 1.0114713934358763 0 0 1 1 0 0 forward_v I I I I #
face $-1 $48 $49 $17 $-1 $50 forward single #
loop $-1 $-1 $51 $22 #
plane-surface $-1 -6.8420737157396196 34.121887412407702 93.249260915164768 1 0 0 0 -0.57357644374324357 -0.81915203911291934 forward_v I I I I #
face $-1 $52 $53 $18 $-1 $54 reversed single #
loop $-1 $55 $56 $23 #
cone-surface $-1 -1.1749904435459655 16.196968273424233 -0.46854976766735268 0 -0.57357644374324357 -0.81915203911291934 2 0 0 1 I I 0 1 2 forward I I I I #
face $-1 $57 $58 $19 $-1 $59 reversed single #
loop $-1 $60 $61 $24 #
cone-surface $-1 7.3256344647445104 16.196968273424233 -0.46854976766735268 0 -0.57357644374324357 -0.81915203911291934 2 0 0 1 I I 0 1 2 forward I I I I #
face $-1 $62 $63 $15 $-1 $64 reversed single #
loop $-1 $-1 $65 $25 #
plane-surface $-1 0 0 -4.7755508187613387 0 0 1 1 0 0 forward_v I I I I #
coedge $-1 $66 $67 $68 $69 forward $26 $-1 #
face $-1 $70 $71 $16 $-1 $72 forward single #
loop $-1 $-1 $73 $28 #
plane-surface $-1 0 -19.408153512119497 -1.9885286065641241 0 0 1 1 0 0 forward_v I I I I #
coedge $-1 $74 $75 $76 $77 reversed $29 $-1 #
face $-1 $78 $79 $17 $-1 $80 forward single #
loop $-1 $-1 $81 $31 #
plane-surface $-1 3.0753220105992725 -13.759763674280698 24.867177669584919 0 0.57357644374324357 0.81915203911291934 1 0 0 forward_v I I I I #
coedge $-1 $82 $83 $84 $85 reversed $32 $-1 #
face $-1 $86 $87 $18 $-1 $88 forward single #
loop $-1 $89 $90 $34 #
cone-surface $-1 -1.1749904435459655 13.574957044692376 -4.2131698057143225 0 -0.57357644374324357 -0.81915203911291934 1 0 0 1 I I -0.70710678118654746 0.70710678118654746 1 forward I I I I #
loop $-1 $-1 $91 $23 #
coedge $-1 $56 $56 $92 $93 reversed $35 $-1 #
face $-1 $94 $95 $19 $-1 $96 reversed single #
loop $-1 $97 $98 $37 #
cone-surface $-1 7.3256344647445104 13.574957044692376 -4.2131698057143225 0 -0.57357644374324357 -0.81915203911291934 1 0 0 1 I I -0.70710678118654746 0.70710678118654746 1 forward I I I I #
loop $-1 $-1 $99 $24 #
coedge $-1 $61 $61 $100 $101 reversed $38 $-1 #
face $-1 $102 $103 $15 $-1 $104 reversed single #
loop $-1 $-1 $105 $40 #
plane-surface $-1 0 -21.556753503010441 0 0 1 0 0 0 1 forward_v I I I I #
coedge $-1 $106 $107 $108 $109 forward $41 $-1 #
coedge $-1 $110 $43 $111 $112 forward $26 $-1 #
coedge $-1 $43 $110 $113 $114 forward $26 $-1 #
coedge $-1 $115 $116 $43 $69 reversed $117 $-1 #
edge $-1 $118 -21.556753503010441 $119 21.556753503010441 $68 $120 forward 7 unknown #
face $-1 $121 $122 $16 $-1 $123 reversed single #
loop $-1 $-1 $124 $44 #
plane-surface $-1 0 -17.259553521228554 -0.48852860656412389 0 -1 0 0 0 -1 forward_v I I I I #
coedge $-1 $125 $126 $127 $128 reversed $45 $-1 #
coedge $-1 $129 $47 $130 $131 reversed $29 $-1 #
coedge $-1 $47 $129 $132 $133 reversed $29 $-1 #
coedge $-1 $134 $135 $47 $77 forward $122 $-1 #
edge $-1 $136 -11.852676746950692 $137 -7.5554767651688053 $76 $138 forward 7 unknown #
face $-1 $139 $140 $17 $-1 $141 forward single #
loop $-1 $-1 $142 $48 #
plane-surface $-1 12.992717736938165 34.121887412407702 93.249260915164768 -1 0 0 0 0.57357644374324357 0.81915203911291934 forward_v I I I I #
coedge $-1 $143 $144 $145 $146 reversed $49 $-1 #
coedge $-1 $83 $51 $144 $147 forward $32 $-1 #
coedge $-1 $51 $82 $148 $149 reversed $32 $-1 #
coedge $-1 $150 $145 $51 $85 forward $140 $-1 #
edge $-1 $151 -2.1268910923886217 $152 4.49580979680659 $84 $153 forward 7 unknown #
face $-1 $154 $155 $18 $-1 $156 forward single #
loop $-1 $-1 $157 $52 #
plane-surface $-1 -6.8420737157396196 34.121887412407702 93.249260915164768 1 0 0 0 -0.57357644374324357 -0.81915203911291934 forward_v I I I I #
loop $-1 $-1 $158 $34 #
coedge $-1 $90 $90 $159 $160 reversed $53 $-1 #
coedge $-1 $91 $91 $158 $161 reversed $55 $-1 #
coedge $-1 $92 $92 $56 $93 forward $155 $-1 #
edge $-1 $162 1.9057107067486959e-017 $162 6.2831853071796004 $92 $163 forward 7 unknown #
face $-1 $164 $165 $19 $-1 $166 reversed single #
loop $-1 $167 $168 $57 #
cone-surface $-1 -1.1749904435459655 16.196968273424233 -0.46854976766735268 0 -0.57357644374324357 -0.81915203911291934 2 0 0 1 I I 0 1 2 forward I I I I #
loop $-1 $-1 $169 $37 #
coedge $-1 $98 $98 $170 $171 reversed $58 $-1 #
coedge $-1 $99 $99 $169 $172 reversed $60 $-1 #
coedge $-1 $100 $100 $61 $101 forward $173 $-1 #
edge $-1 $174 1.9057107067486959e-017 $174 6.2831853071796004 $100 $175 forward 7 unknown #
face $-1 $176 $177 $15 $-1 $178 reversed single #
loop $-1 $-1 $179 $62 #
plane-surface $-1 -41.73955504013184 0 0 1 0 0 0 0 -1 forward_v I I I I #
coedge $-1 $180 $113 $181 $182 forward $63 $-1 #
coedge $-1 $183 $65 $180 $184 forward $41 $-1 #
coedge $-1 $65 $183 $185 $186 forward $41 $-1 #
coedge $-1 $116 $115 $65 $109 reversed $117 $-1 #
edge $-1 $187 -21.556753503010441 $188 21.556753503010441 $108 $189 forward 7 unknown #
coedge $-1 $67 $66 $190 $191 forward $26 $-1 #
coedge $-1 $192 $193 $66 $112 reversed $177 $-1 #
edge $-1 $119 -41.73955504013184 $194 41.73955504013184 $111 $195 forward 7 unknown #
coedge $-1 $105 $196 $67 $114 reversed $63 $-1 #
edge $-1 $197 -41.73955504013184 $118 41.73955504013184 $113 $198 forward 7 unknown #
coedge $-1 $108 $68 $196 $199 forward $117 $-1 #
coedge $-1 $68 $108 $192 $200 reversed $117 $-1 #
loop $-1 $-1 $115 $176 #
vertex $-1 $69 $201 #
vertex $-1 $69 $202 #
straight-curve $-1 41.73955504013184 0 4.7755508187613387 0 1 0 I I #
face $-1 $203 $204 $16 $-1 $205 reversed single #
loop $-1 $-1 $76 $70 #
plane-surface $-1 41.73955504013184 0 0 -1 0 0 0 0 1 forward_v I I I I #
coedge $-1 $132 $206 $134 $207 reversed $71 $-1 #
coedge $-1 $208 $73 $206 $209 reversed $45 $-1 #
coedge $-1 $73 $208 $210 $211 reversed $45 $-1 #
coedge $-1 $212 $134 $73 $128 forward $122 $-1 #
edge $-1 $213 7.5554767651688053 $214 11.852676746950692 $127 $215 forward 7 unknown #
coedge $-1 $75 $74 $216 $217 reversed $29 $-1 #
coedge $-1 $218 $219 $74 $131 forward $220 $-1 #
edge $-1 $221 -41.73955504013184 $136 41.73955504013184 $130 $222 forward 7 unknown #
coedge $-1 $223 $124 $75 $133 forward $71 $-1 #
edge $-1 $137 -41.73955504013184 $224 41.73955504013184 $132 $225 forward 7 unknown #
coedge $-1 $127 $76 $124 $207 forward $122 $-1 #
coedge $-1 $76 $226 $218 $227 forward $122 $-1 #
vertex $-1 $131 $228 #
vertex $-1 $77 $229 #
straight-curve $-1 41.73955504013184 -9.7040767560597487 1.0114713934358763 0 1 0 I I #
face $-1 $230 $231 $17 $-1 $232 reversed single #
loop $-1 $-1 $233 $78 #
plane-surface $-1 0 0 4.7755508187613387 0 0 1 1 0 0 forward_v I I I I #
coedge $-1 $234 $235 $233 $236 reversed $79 $-1 #
coedge $-1 $237 $81 $235 $238 reversed $49 $-1 #
coedge $-1 $81 $237 $82 $147 reversed $49 $-1 #
coedge $-1 $84 $233 $81 $146 forward $140 $-1 #
edge $-1 $239 -11.455056731638528 $151 8.3797347210392559 $145 $240 forward 7 unknown #
edge $-1 $151 35.02868200043693 $241 43.113507006020882 $82 $242 forward 7 unknown #
coedge $-1 $243 $244 $83 $149 forward $245 $-1 #
edge $-1 $152 41.849079638821046 $241 46.486344813810341 $148 $246 forward 7 unknown #
coedge $-1 $247 $84 $244 $248 forward $140 $-1 #
vertex $-1 $146 $249 #
vertex $-1 $248 $250 #
straight-curve $-1 -6.8420737157396196 17.060943706203851 4.7755508187613387 0 1 0 I I #
face $-1 $251 $252 $18 $-1 $253 forward single #
loop $-1 $254 $92 $86 #
plane-surface $-1 3.0753220105992725 -13.759763674280698 24.867177669584919 0 0.57357644374324357 0.81915203911291934 1 0 0 forward_v I I I I #
coedge $-1 $255 $256 $257 $258 reversed $87 $-1 #
coedge $-1 $158 $158 $91 $161 forward $89 $-1 #
coedge $-1 $159 $159 $90 $160 forward $259 $-1 #
edge $-1 $260 -3.141592653589814 $260 3.1415926535897865 $159 $261 forward 7 unknown #
edge $-1 $262 0 $262 6.2831853071796004 $158 $263 forward 7 unknown #
vertex $-1 $93 $264 #
ellipse-curve $-1 -1.1749904435459655 18.245403058412837 2.456918231266688 0 -0.57357644374324357 -0.81915203911291934 2 0 0 1 I I #
face $-1 $265 $266 $19 $-1 $267 forward single #
loop $-1 $268 $269 $94 #
cone-surface $-1 -1.1749904435459655 13.574957044692376 -4.2131698057143225 0 -0.57357644374324357 -0.81915203911291934 1 0 0 1 I I -0.70710678118654746 0.70710678118654746 1 forward I I I I #
loop $-1 $-1 $270 $57 #
coedge $-1 $168 $168 $271 $272 reversed $95 $-1 #
coedge $-1 $169 $169 $99 $172 forward $97 $-1 #
coedge $-1 $170 $170 $98 $171 forward $273 $-1 #
edge $-1 $274 -3.141592653589814 $274 3.1415926535897865 $170 $275 forward 7 unknown #
edge $-1 $276 0 $276 6.2831853071796004 $169 $277 forward 7 unknown #
loop $-1 $278 $100 $265 #
vertex $-1 $101 $279 #
ellipse-curve $-1 7.3256344647445104 18.245403058412837 2.456918231266688 0 -0.57357644374324357 -0.81915203911291934 2 0 0 1 I I #
face $-1 $-1 $117 $15 $-1 $280 reversed single #
loop $-1 $-1 $192 $102 #
plane-surface $-1 0 21.556753503010441 0 0 -1 0 0 0 -1 forward_v I I I I #
coedge $-1 $281 $190 $193 $282 forward $103 $-1 #
coedge $-1 $196 $105 $106 $184 reversed $63 $-1 #
coedge $-1 $190 $281 $105 $182 reversed $103 $-1 #
edge $-1 $197 -4.7755508187613387 $283 4.7755508187613387 $181 $284 forward 7 unknown #
coedge $-1 $107 $106 $281 $285 forward $41 $-1 #
edge $-1 $188 -41.73955504013184 $283 41.73955504013184 $180 $286 forward 7 unknown #
coedge $-1 $193 $192 $107 $186 reversed $177 $-1 #
edge $-1 $287 -41.73955504013184 $187 41.73955504013184 $185 $288 forward 7 unknown #
vertex $-1 $109 $289 #
vertex $-1 $199 $290 #
straight-curve $-1 41.73955504013184 0 -4.7755508187613387 0 -1 0 I I #
coedge $-1 $179 $181 $110 $191 reversed $103 $-1 #
edge $-1 $194 -21.556753503010441 $197 21.556753503010441 $190 $291 forward 7 unknown #
coedge $-1 $185 $111 $116 $200 forward $177 $-1 #
coedge $-1 $111 $185 $179 $282 reversed $177 $-1 #
vertex $-1 $112 $292 #
straight-curve $-1 0 21.556753503010441 4.7755508187613387 -1 0 0 I I #
coedge $-1 $113 $180 $115 $199 reversed $63 $-1 #
vertex $-1 $191 $293 #
straight-curve $-1 0 -21.556753503010441 4.7755508187613387 1 0 0 I I #
edge $-1 $118 -4.7755508187613387 $188 4.7755508187613387 $115 $294 forward 7 unknown #
edge $-1 $119 -4.7755508187613387 $187 4.7755508187613387 $116 $295 forward 7 unknown #
point $-1 41.73955504013184 -21.556753503010441 4.7755508187613387 #
point $-1 41.73955504013184 21.556753503010441 4.7755508187613387 #
face $-1 $296 $297 $16 $-1 $298 forward single #
loop $-1 $-1 $210 $121 #
plane-surface $-1 0 -21.556753503010441 0 0 1 0 0 0 1 forward_v I I I I #
coedge $-1 $124 $223 $125 $209 forward $71 $-1 #
edge $-1 $137 -1.2557356967179383 $213 1.7442643032820622 $134 $299 forward 7 unknown #
coedge $-1 $126 $125 $300 $301 reversed $45 $-1 #
edge $-1 $302 -41.73955504013184 $213 41.73955504013184 $206 $303 forward 7 unknown #
coedge $-1 $304 $305 $126 $211 forward $204 $-1 #
edge $-1 $214 -41.73955504013184 $306 41.73955504013184 $210 $307 forward 7 unknown #
coedge $-1 $308 $127 $305 $309 forward $122 $-1 #
vertex $-1 $128 $310 #
vertex $-1 $309 $311 #
straight-curve $-1 41.73955504013184 -9.7040767560597487 -1.9885286065641241 0 -1 0 I I #
coedge $-1 $312 $313 $129 $217 forward $314 $-1 #
edge $-1 $224 7.5554767651688053 $221 11.852676746950692 $216 $315 forward 7 unknown #
coedge $-1 $316 $130 $135 $227 reversed $220 $-1 #
coedge $-1 $130 $316 $312 $317 forward $220 $-1 #
loop $-1 $-1 $130 $318 #
vertex $-1 $217 $319 #
straight-curve $-1 0 -21.556753503010441 1.0114713934358763 1 0 0 I I #
coedge $-1 $206 $132 $313 $320 reversed $71 $-1 #
vertex $-1 $217 $321 #
straight-curve $-1 0 -17.259553521228554 1.0114713934358763 -1 0 0 I I #
coedge $-1 $135 $322 $323 $324 reversed $122 $-1 #
edge $-1 $325 -4.7755508187613387 $136 -1.0114713934358763 $135 $326 forward 7 unknown #
point $-1 41.73955504013184 -21.556753503010441 1.0114713934358763 #
point $-1 41.73955504013184 -17.259553521228554 1.0114713934358763 #
face $-1 $327 $328 $17 $-1 $329 forward single #
loop $-1 $-1 $330 $139 #
plane-surface $-1 0 -19.408153512119497 1.0114713934358763 0 0 1 1 0 0 forward_v I I I I #
coedge $-1 $145 $331 $142 $236 forward $140 $-1 #
coedge $-1 $235 $142 $332 $333 reversed $79 $-1 #
coedge $-1 $142 $234 $143 $238 forward $79 $-1 #
edge $-1 $334 -4.49580979680659 $239 2.1268910923886217 $233 $335 forward 7 unknown #
coedge $-1 $144 $143 $243 $336 reversed $49 $-1 #
edge $-1 $337 -43.113507006020882 $239 -35.02868200043693 $235 $338 forward 7 unknown #
vertex $-1 $146 $339 #
straight-curve $-1 1.5376610052996362 14.934052613815222 4.7755508187613405 -1 0 0 I I #
vertex $-1 $336 $340 #
straight-curve $-1 -6.8420737157396196 -13.759763674280698 24.867177669584919 0 0.81915203911291934 -0.57357644374324357 I I #
coedge $-1 $332 $148 $237 $336 forward $245 $-1 #
coedge $-1 $148 $341 $150 $248 reversed $245 $-1 #
loop $-1 $-1 $332 $342 #
straight-curve $-1 -6.8420737157396196 21.556753503010441 46.624630457582384 0 0 -1 I I #
coedge $-1 $343 $150 $344 $345 forward $140 $-1 #
edge $-1 $152 6.8420737157396196 $346 41.73955504013184 $244 $347 forward 7 unknown #
point $-1 -6.8420737157396196 14.934052613815229 4.7755508187613387 #
point $-1 -6.8420737157396196 21.556753503010441 4.7755508187613387 #
face $-1 $348 $349 $18 $-1 $350 forward single #
loop $-1 $-1 $351 $154 #
plane-surface $-1 12.992717736938165 34.121887412407702 93.249260915164768 -1 0 0 0 0.57357644374324357 0.81915203911291934 forward_v I I I I #
loop $-1 $-1 $352 $86 #
coedge $-1 $256 $157 $353 $354 forward $87 $-1 #
coedge $-1 $157 $255 $355 $356 reversed $87 $-1 #
coedge $-1 $357 $358 $157 $258 forward $349 $-1 #
edge $-1 $359 -2.1268910923886217 $360 4.49580979680659 $257 $361 forward 7 unknown #
loop $-1 $362 $159 $363 #
vertex $-1 $160 $364 #
ellipse-curve $-1 -1.1749904435459662 13.706853236652409 -4.7755508187613387 0 0 1 -1.0167350864105029e-015 0.75074829307369562 0 0.58482486811498036 I I #
vertex $-1 $161 $365 #
ellipse-curve $-1 -1.1749904435459655 14.14853348843562 -3.3940177666014031 0 0.57357644374324357 0.81915203911291934 2 0 0 1 I I #
point $-1 0.82500955645403451 18.245403058412844 2.4569182312666982 #
face $-1 $366 $173 $19 $-1 $367 forward single #
loop $-1 $-1 $368 $164 #
plane-surface $-1 -6.8420737157396196 34.121887412407702 93.249260915164768 1 0 0 0 -0.57357644374324357 -0.81915203911291934 forward_v I I I I #
loop $-1 $-1 $369 $94 #
coedge $-1 $269 $269 $370 $371 reversed $165 $-1 #
coedge $-1 $270 $270 $369 $372 reversed $167 $-1 #
coedge $-1 $271 $271 $168 $272 forward $278 $-1 #
edge $-1 $373 1.9057107067486959e-017 $373 6.2831853071796004 $271 $374 forward 7 unknown #
loop $-1 $375 $170 $376 #
vertex $-1 $171 $377 #
ellipse-curve $-1 7.3256344647445077 13.706853236652409 -4.7755508187613387 0 0 1 -3.9473244531231331e-015 0.75074829307369517 0 0.58482486811498169 I I #
vertex $-1 $172 $378 #
ellipse-curve $-1 7.3256344647445104 14.14853348843562 -3.3940177666014031 0 0.57357644374324357 0.81915203911291934 2 0 0 1 I I #
loop $-1 $379 $271 $265 #
point $-1 9.3256344647445104 18.245403058412844 2.4569182312666982 #
plane-surface $-1 41.73955504013184 0 0 -1 0 0 0 0 1 forward_v I I I I #
coedge $-1 $181 $179 $183 $285 reversed $103 $-1 #
edge $-1 $194 -4.7755508187613387 $287 4.7755508187613387 $193 $380 forward 7 unknown #
vertex $-1 $285 $381 #
straight-curve $-1 -41.73955504013184 -21.556753503010441 0 0 0 -1 I I #
edge $-1 $283 -21.556753503010441 $287 21.556753503010441 $281 $382 forward 7 unknown #
straight-curve $-1 0 -21.556753503010441 -4.7755508187613387 -1 0 0 I I #
vertex $-1 $186 $383 #
straight-curve $-1 0 21.556753503010441 -4.7755508187613387 1 0 0 I I #
point $-1 41.73955504013184 21.556753503010441 -4.7755508187613387 #
point $-1 41.73955504013184 -21.556753503010441 -4.7755508187613387 #
straight-curve $-1 -41.73955504013184 0 4.7755508187613387 0 -1 0 I I #
point $-1 -41.73955504013184 21.556753503010441 4.7755508187613387 #
point $-1 -41.73955504013184 -21.556753503010441 4.7755508187613387 #
straight-curve $-1 41.73955504013184 -21.556753503010441 0 0 0 -1 I I #
straight-curve $-1 41.73955504013184 21.556753503010441 0 0 0 -1 I I #
face $-1 $318 $384 $16 $-1 $385 reversed single #
loop $-1 $-1 $323 $203 #
plane-surface $-1 0 0 4.7755508187613387 0 0 1 1 0 0 forward_v I I I I #
straight-curve $-1 41.73955504013184 -17.259553521228554 -0.24426430328206195 0 0 -1 I I #
coedge $-1 $313 $386 $208 $301 forward $314 $-1 #
edge $-1 $306 -11.852676746950692 $302 -7.5554767651688053 $300 $387 forward 7 unknown #
vertex $-1 $301 $388 #
straight-curve $-1 0 -17.259553521228554 -1.9885286065641241 1 0 0 I I #
coedge $-1 $389 $210 $386 $390 forward $204 $-1 #
coedge $-1 $210 $389 $212 $309 reversed $204 $-1 #
vertex $-1 $390 $391 #
straight-curve $-1 0 -21.556753503010441 -1.9885286065641241 -1 0 0 I I #
coedge $-1 $322 $212 $392 $393 reversed $122 $-1 #
edge $-1 $214 1.9885286065641241 $394 4.7755508187613387 $212 $326 forward 7 unknown #
point $-1 41.73955504013184 -17.259553521228554 -1.9885286065641241 #
point $-1 41.73955504013184 -21.556753503010441 -1.9885286065641241 #
coedge $-1 $395 $216 $219 $317 reversed $314 $-1 #
coedge $-1 $216 $300 $223 $320 forward $314 $-1 #
loop $-1 $-1 $216 $396 #
straight-curve $-1 -41.73955504013184 -9.7040767560597487 1.0114713934358763 0 -1 0 I I #
coedge $-1 $219 $218 $397 $398 reversed $220 $-1 #
edge $-1 $399 -4.7755508187613387 $221 -1.0114713934358763 $312 $400 forward 7 unknown #
face $-1 $396 $220 $16 $-1 $205 reversed single #
point $-1 -41.73955504013184 -21.556753503010441 1.0114713934358763 #
edge $-1 $302 -1.7442643032820622 $224 1.2557356967179383 $313 $401 forward 7 unknown #
point $-1 -41.73955504013184 -17.259553521228554 1.0114713934358763 #
coedge $-1 $226 $308 $402 $403 reversed $122 $-1 #
coedge $-1 $404 $397 $226 $324 forward $297 $-1 #
edge $-1 $325 -21.556753503010441 $405 21.556753503010441 $226 $406 forward 7 unknown #
vertex $-1 $324 $407 #
straight-curve $-1 41.73955504013184 -21.556753503010441 0 0 0 -1 I I #
face $-1 $408 $409 $17 $-1 $410 forward single #
loop $-1 $-1 $411 $230 #
plane-surface $-1 0 -19.408153512119497 -1.9885286065641241 0 0 1 1 0 0 forward_v I I I I #
coedge $-1 $412 $413 $414 $415 reversed $231 $-1 #
coedge $-1 $233 $416 $417 $418 forward $140 $-1 #
coedge $-1 $417 $243 $234 $333 forward $245 $-1 #
edge $-1 $337 -46.486344813810341 $334 -41.849079638821046 $332 $419 forward 7 unknown #
vertex $-1 $333 $420 #
straight-curve $-1 12.992717736938165 17.060943706203851 4.7755508187613387 0 -1 0 I I #
edge $-1 $241 -8.3797347210392559 $337 11.455056731638528 $243 $421 forward 7 unknown #
vertex $-1 $336 $422 #
straight-curve $-1 12.992717736938165 -13.759763674280698 24.867177669584919 0 -0.81915203911291934 0.57357644374324357 I I #
point $-1 12.992717736938165 14.934052613815229 4.7755508187613387 #
point $-1 -6.8420737157396196 21.556753503010441 0.13828564377204344 #
coedge $-1 $244 $423 $424 $425 reversed $245 $-1 #
face $-1 $-1 $245 $17 $-1 $426 reversed single #
coedge $-1 $416 $247 $427 $428 forward $140 $-1 #
coedge $-1 $424 $429 $247 $345 reversed $430 $-1 #
edge $-1 $346 -21.556753503010441 $431 21.556753503010441 $344 $432 forward 7 unknown #
vertex $-1 $248 $433 #
straight-curve $-1 0 21.556753503010441 4.7755508187613387 -1 0 0 I I #
face $-1 $434 $435 $18 $-1 $436 reversed single #
loop $-1 $-1 $437 $251 #
plane-surface $-1 0 0 4.7755508187613387 0 0 1 1 0 0 forward_v I I I I #
coedge $-1 $438 $439 $437 $440 reversed $252 $-1 #
coedge $-1 $441 $353 $358 $442 reversed $254 $-1 #
coedge $-1 $352 $443 $255 $354 reversed $254 $-1 #
edge $-1 $359 35.02868200043693 $444 43.113507006020882 $255 $445 forward 7 unknown #
coedge $-1 $446 $447 $256 $356 forward $448 $-1 #
edge $-1 $360 41.849079638821046 $444 46.486344813810341 $355 $449 forward 7 unknown #
coedge $-1 $450 $257 $447 $451 forward $349 $-1 #
coedge $-1 $257 $437 $352 $442 forward $349 $-1 #
vertex $-1 $442 $452 #
vertex $-1 $451 $453 #
straight-curve $-1 -6.8420737157396196 17.060943706203851 4.7755508187613387 0 1 0 I I #
loop $-1 $-1 $454 $363 #
face $-1 $455 $259 $18 $-1 $456 reversed single #
point $-1 -1.1749904435459682 12.956104943578714 -4.7755508187613387 #
point $-1 0.82500955645403451 14.14853348843562 -3.3940177666014031 #
face $-1 $457 $458 $19 $-1 $459 forward single #
plane-surface $-1 3.0753220105992725 -13.759763674280698 24.867177669584919 0 0.57357644374324357 0.81915203911291934 1 0 0 forward_v I I I I #
coedge $-1 $460 $461 $462 $463 reversed $266 $-1 #
coedge $-1 $369 $369 $270 $372 forward $268 $-1 #
coedge $-1 $370 $370 $269 $371 forward $375 $-1 #
edge $-1 $464 -3.141592653589814 $464 3.1415926535897865 $370 $465 forward 7 unknown #
edge $-1 $466 0 $466 6.2831853071796004 $369 $467 forward 7 unknown #
vertex $-1 $272 $468 #
ellipse-curve $-1 -1.1749904435459655 18.245403058412837 2.456918231266688 0 -0.57357644374324357 -0.81915203911291934 2 0 0 1 I I #
loop $-1 $469 $370 $376 #
face $-1 $470 $273 $19 $-1 $471 reversed single #
point $-1 7.3256344647445086 12.956104943578714 -4.7755508187613387 #
point $-1 9.3256344647445104 14.14853348843562 -3.3940177666014031 #
loop $-1 $-1 $472 $265 #
straight-curve $-1 -41.73955504013184 21.556753503010441 0 0 0 -1 I I #
point $-1 -41.73955504013184 -21.556753503010441 -4.7755508187613387 #
straight-curve $-1 -41.73955504013184 0 -4.7755508187613387 0 1 0 I I #
point $-1 -41.73955504013184 21.556753503010441 -4.7755508187613387 #
loop $-1 $-1 $392 $296 #
plane-surface $-1 0 0 -4.7755508187613387 0 0 1 1 0 0 forward_v I I I I #
coedge $-1 $300 $473 $304 $390 reversed $314 $-1 #
straight-curve $-1 -41.73955504013184 -9.7040767560597487 -1.9885286065641241 0 1 0 I I #
point $-1 -41.73955504013184 -17.259553521228554 -1.9885286065641241 #
coedge $-1 $305 $304 $474 $475 reversed $204 $-1 #
edge $-1 $306 1.9885286065641241 $476 4.7755508187613387 $386 $400 forward 7 unknown #
point $-1 -41.73955504013184 -21.556753503010441 -1.9885286065641241 #
coedge $-1 $474 $477 $308 $393 forward $384 $-1 #
edge $-1 $478 -21.556753503010441 $394 21.556753503010441 $308 $479 forward 7 unknown #
vertex $-1 $309 $480 #
coedge $-1 $481 $312 $482 $483 reversed $314 $-1 #
face $-1 $484 $314 $16 $-1 $485 reversed single #
coedge $-1 $323 $482 $316 $398 forward $297 $-1 #
edge $-1 $399 -41.73955504013184 $325 41.73955504013184 $316 $486 forward 7 unknown #
vertex $-1 $483 $487 #
straight-curve $-1 -41.73955504013184 -21.556753503010441 0 0 0 -1 I I #
straight-curve $-1 -41.73955504013184 -17.259553521228554 -0.24426430328206195 0 0 1 I I #
coedge $-1 $488 $489 $322 $403 forward $490 $-1 #
edge $-1 $405 -4.7755508187613387 $478 4.7755508187613387 $322 $491 forward 7 unknown #
coedge $-1 $482 $323 $489 $492 forward $297 $-1 #
vertex $-1 $324 $493 #
straight-curve $-1 41.73955504013184 0 4.7755508187613387 0 1 0 I I #
point $-1 41.73955504013184 -21.556753503010441 4.7755508187613387 #
face $-1 $494 $495 $17 $-1 $496 reversed single #
loop $-1 $-1 $497 $327 #
plane-surface $-1 0 -17.259553521228554 -0.48852860656412389 0 -1 0 0 0 -1 forward_v I I I I #
coedge $-1 $498 $499 $500 $501 reversed $328 $-1 #
coedge $-1 $502 $330 $503 $504 reversed $231 $-1 #
coedge $-1 $330 $502 $505 $506 reversed $231 $-1 #
coedge $-1 $507 $508 $330 $415 forward $495 $-1 #
edge $-1 $509 -11.852676746950692 $510 -7.5554767651688053 $414 $511 forward 7 unknown #
coedge $-1 $331 $343 $512 $513 forward $140 $-1 #
coedge $-1 $514 $332 $331 $418 reversed $245 $-1 #
edge $-1 $515 -41.73955504013184 $334 -12.992717736938165 $417 $347 forward 7 unknown #
straight-curve $-1 12.992717736938165 21.556753503010441 46.624630457582384 0 0 1 I I #
point $-1 12.992717736938165 21.556753503010441 4.7755508187613387 #
straight-curve $-1 1.5376610052996362 21.556753503010441 0.13828564377204344 1 0 0 I I #
point $-1 12.992717736938165 21.556753503010441 0.13828564377204344 #
coedge $-1 $341 $514 $516 $517 reversed $245 $-1 #
coedge $-1 $518 $344 $341 $425 forward $430 $-1 #
edge $-1 $346 -4.7755508187613387 $519 4.7755508187613387 $341 $520 forward 7 unknown #
plane-surface $-1 0 21.556753503010441 0 0 -1 0 0 0 -1 forward_v I I I I #
coedge $-1 $521 $522 $343 $428 reversed $523 $-1 #
edge $-1 $431 -41.73955504013184 $524 41.73955504013184 $427 $525 forward 7 unknown #
coedge $-1 $344 $526 $521 $527 reversed $430 $-1 #
loop $-1 $-1 $526 $528 #
vertex $-1 $345 $529 #
straight-curve $-1 -41.73955504013184 0 4.7755508187613387 0 -1 0 I I #
point $-1 -41.73955504013184 21.556753503010441 4.7755508187613387 #
face $-1 $530 $531 $18 $-1 $532 forward single #
loop $-1 $-1 $533 $348 #
plane-surface $-1 0 -19.408153512119497 1.0114713934358763 0 0 1 1 0 0 forward_v I I I I #
coedge $-1 $358 $534 $351 $440 forward $349 $-1 #
coedge $-1 $439 $351 $535 $536 reversed $252 $-1 #
coedge $-1 $351 $438 $441 $537 forward $252 $-1 #
edge $-1 $538 -4.49580979680659 $539 2.1268910923886217 $437 $540 forward 7 unknown #
coedge $-1 $443 $352 $439 $537 reversed $254 $-1 #
edge $-1 $539 -11.455056731638528 $359 8.3797347210392559 $358 $541 forward 7 unknown #
coedge $-1 $353 $441 $446 $542 reversed $254 $-1 #
vertex $-1 $542 $543 #
straight-curve $-1 -6.8420737157396196 -13.759763674280698 24.867177669584919 0 0.81915203911291934 -0.57357644374324357 I I #
coedge $-1 $535 $355 $443 $542 forward $448 $-1 #
coedge $-1 $355 $544 $357 $451 reversed $448 $-1 #
loop $-1 $-1 $535 $545 #
straight-curve $-1 -6.8420737157396196 21.556753503010441 46.624630457582384 0 0 -1 I I #
coedge $-1 $546 $357 $547 $548 forward $349 $-1 #
edge $-1 $360 6.8420737157396196 $549 41.73955504013184 $447 $550 forward 7 unknown #
point $-1 -6.8420737157396196 14.934052613815229 4.7755508187613387 #
point $-1 -6.8420737157396196 21.556753503010441 4.7755508187613387 #
coedge $-1 $551 $552 $553 $554 forward $362 $-1 #
face $-1 $555 $556 $18 $-1 $557 reversed single #
plane-surface $-1 0 0 -4.7755508187613387 0 0 1 1 0 0 forward_v I I I I #
face $-1 $558 $559 $19 $-1 $560 forward single #
loop $-1 $-1 $561 $366 #
plane-surface $-1 12.992717736938165 34.121887412407702 93.249260915164768 -1 0 0 0 0.57357644374324357 0.81915203911291934 forward_v I I I I #
coedge $-1 $461 $368 $562 $563 forward $266 $-1 #
coedge $-1 $368 $460 $564 $565 reversed $266 $-1 #
coedge $-1 $566 $567 $368 $463 forward $559 $-1 #
edge $-1 $568 -2.1268910923886217 $569 4.49580979680659 $462 $570 forward 7 unknown #
vertex $-1 $371 $571 #
ellipse-curve $-1 -1.1749904435459662 13.706853236652409 -4.7755508187613387 0 0 1 -1.0167350864105029e-015 0.75074829307369562 0 0.58482486811498036 I I #
vertex $-1 $372 $572 #
ellipse-curve $-1 -1.1749904435459655 14.14853348843562 -3.3940177666014031 0 0.57357644374324357 0.81915203911291934 2 0 0 1 I I #
point $-1 0.82500955645403451 18.245403058412844 2.4569182312666982 #
loop $-1 $-1 $573 $376 #
face $-1 $574 $575 $19 $-1 $576 reversed single #
plane-surface $-1 0 0 -4.7755508187613387 0 0 1 1 0 0 forward_v I I I I #
coedge $-1 $577 $562 $567 $578 reversed $379 $-1 #
coedge $-1 $386 $481 $579 $580 reversed $314 $-1 #
coedge $-1 $579 $392 $389 $475 forward $384 $-1 #
edge $-1 $394 -41.73955504013184 $476 41.73955504013184 $389 $581 forward 7 unknown #
vertex $-1 $580 $582 #
coedge $-1 $392 $579 $488 $583 forward $384 $-1 #
vertex $-1 $393 $584 #
straight-curve $-1 41.73955504013184 0 -4.7755508187613387 0 -1 0 I I #
point $-1 41.73955504013184 -21.556753503010441 -4.7755508187613387 #
coedge $-1 $473 $395 $585 $586 forward $314 $-1 #
coedge $-1 $397 $404 $395 $483 forward $297 $-1 #
edge $-1 $587 -21.556753503010441 $399 21.556753503010441 $395 $588 forward 7 unknown #
face $-1 $-1 $490 $16 $-1 $589 reversed single #
plane-surface $-1 -41.73955504013184 0 0 1 0 0 0 0 -1 forward_v I I I I #
straight-curve $-1 0 -21.556753503010441 4.7755508187613387 1 0 0 I I #
point $-1 -41.73955504013184 -21.556753503010441 4.7755508187613387 #
coedge $-1 $585 $402 $477 $583 reversed $490 $-1 #
coedge $-1 $402 $585 $404 $492 reversed $490 $-1 #
loop $-1 $-1 $402 $484 #
straight-curve $-1 41.73955504013184 21.556753503010441 0 0 0 -1 I I #
edge $-1 $405 -41.73955504013184 $587 41.73955504013184 $489 $590 forward 7 unknown #
point $-1 41.73955504013184 21.556753503010441 4.7755508187613387 #
face $-1 $591 $592 $17 $-1 $593 reversed single #
loop $-1 $-1 $414 $408 #
plane-surface $-1 41.73955504013184 0 0 -1 0 0 0 0 1 forward_v I I I I #
coedge $-1 $505 $594 $507 $595 reversed $409 $-1 #
coedge $-1 $596 $411 $594 $597 reversed $328 $-1 #
coedge $-1 $411 $596 $598 $599 reversed $328 $-1 #
coedge $-1 $600 $507 $411 $501 forward $495 $-1 #
edge $-1 $601 7.5554767651688053 $602 11.852676746950692 $500 $603 forward 7 unknown #
coedge $-1 $413 $412 $526 $604 reversed $231 $-1 #
coedge $-1 $522 $521 $412 $504 forward $523 $-1 #
edge $-1 $605 -41.73955504013184 $509 41.73955504013184 $503 $606 forward 7 unknown #
coedge $-1 $607 $497 $413 $506 forward $409 $-1 #
edge $-1 $510 -41.73955504013184 $608 41.73955504013184 $505 $609 forward 7 unknown #
coedge $-1 $500 $414 $497 $595 forward $495 $-1 #
coedge $-1 $414 $512 $522 $610 forward $495 $-1 #
vertex $-1 $504 $611 #
vertex $-1 $415 $612 #
straight-curve $-1 41.73955504013184 -9.7040767560597487 1.0114713934358763 0 1 0 I I #
coedge $-1 $508 $613 $416 $513 reversed $495 $-1 #
edge $-1 $524 -21.556753503010441 $515 21.556753503010441 $512 $614 forward 7 unknown #
coedge $-1 $423 $417 $613 $615 forward $245 $-1 #
vertex $-1 $513 $616 #
coedge $-1 $617 $618 $423 $517 forward $619 $-1 #
edge $-1 $519 -41.73955504013184 $620 41.73955504013184 $423 $621 forward 7 unknown #
coedge $-1 $622 $424 $618 $623 reversed $430 $-1 #
vertex $-1 $517 $624 #
straight-curve $-1 -41.73955504013184 21.556753503010441 0 0 0 -1 I I #
coedge $-1 $503 $427 $429 $527 forward $523 $-1 #
coedge $-1 $427 $503 $508 $610 reversed $523 $-1 #
loop $-1 $-1 $503 $625 #
vertex $-1 $513 $626 #
straight-curve $-1 0 -21.556753503010441 4.7755508187613387 1 0 0 I I #
coedge $-1 $429 $627 $502 $604 forward $430 $-1 #
edge $-1 $431 -4.7755508187613387 $605 -1.0114713934358763 $429 $628 forward 7 unknown #
face $-1 $342 $430 $17 $-1 $629 reversed single #
point $-1 -41.73955504013184 -21.556753503010441 4.7755508187613387 #
face $-1 $630 $631 $18 $-1 $632 forward single #
loop $-1 $-1 $633 $434 #
plane-surface $-1 0 -19.408153512119497 -1.9885286065641241 0 0 1 1 0 0 forward_v I I I I #
coedge $-1 $634 $635 $636 $637 reversed $435 $-1 #
coedge $-1 $437 $638 $639 $640 forward $349 $-1 #
coedge $-1 $639 $446 $438 $536 forward $448 $-1 #
edge $-1 $641 -46.486344813810341 $538 -41.849079638821046 $535 $642 forward 7 unknown #
edge $-1 $641 -43.113507006020882 $539 -35.02868200043693 $439 $643 forward 7 unknown #
vertex $-1 $536 $644 #
vertex $-1 $442 $645 #
straight-curve $-1 12.992717736938165 17.060943706203851 4.7755508187613387 0 -1 0 I I #
straight-curve $-1 1.5376610052996362 14.934052613815222 4.7755508187613405 -1 0 0 I I #
edge $-1 $444 -8.3797347210392559 $641 11.455056731638528 $446 $646 forward 7 unknown #
point $-1 -6.8420737157396196 21.556753503010441 0.13828564377204344 #
coedge $-1 $447 $647 $648 $649 reversed $448 $-1 #
face $-1 $-1 $448 $18 $-1 $650 reversed single #
coedge $-1 $638 $450 $651 $652 forward $349 $-1 #
coedge $-1 $648 $653 $450 $548 reversed $654 $-1 #
edge $-1 $549 -21.556753503010441 $655 21.556753503010441 $547 $656 forward 7 unknown #
vertex $-1 $451 $657 #
straight-curve $-1 0 21.556753503010441 4.7755508187613387 -1 0 0 I I #
coedge $-1 $658 $454 $659 $660 forward $362 $-1 #
coedge $-1 $454 $658 $647 $661 forward $362 $-1 #
coedge $-1 $662 $663 $454 $554 reversed $664 $-1 #
edge $-1 $665 -21.556753503010441 $666 21.556753503010441 $553 $667 forward 7 unknown #
face $-1 $545 $654 $18 $-1 $668 reversed single #
loop $-1 $-1 $669 $455 #
plane-surface $-1 0 -21.556753503010441 0 0 1 0 0 0 1 forward_v I I I I #
face $-1 $670 $671 $19 $-1 $672 reversed single #
loop $-1 $-1 $673 $457 #
plane-surface $-1 0 0 4.7755508187613387 0 0 1 1 0 0 forward_v I I I I #
coedge $-1 $674 $675 $673 $676 reversed $458 $-1 #
coedge $-1 $472 $677 $460 $563 reversed $379 $-1 #
edge $-1 $568 35.02868200043693 $678 43.113507006020882 $460 $679 forward 7 unknown #
coedge $-1 $680 $681 $461 $565 forward $682 $-1 #
edge $-1 $569 41.849079638821046 $678 46.486344813810341 $564 $683 forward 7 unknown #
coedge $-1 $684 $462 $681 $685 forward $559 $-1 #
coedge $-1 $462 $673 $472 $578 forward $559 $-1 #
vertex $-1 $578 $686 #
vertex $-1 $685 $687 #
straight-curve $-1 -6.8420737157396196 17.060943706203851 4.7755508187613387 0 1 0 I I #
point $-1 -1.1749904435459682 12.956104943578714 -4.7755508187613387 #
point $-1 0.82500955645403451 14.14853348843562 -3.3940177666014031 #
coedge $-1 $688 $689 $690 $691 forward $469 $-1 #
face $-1 $692 $693 $19 $-1 $694 reversed single #
loop $-1 $-1 $695 $470 #
plane-surface $-1 0 -21.556753503010441 0 0 1 0 0 0 1 forward_v I I I I #
coedge $-1 $677 $472 $675 $696 reversed $379 $-1 #
edge $-1 $697 -11.455056731638528 $568 8.3797347210392559 $567 $698 forward 7 unknown #
coedge $-1 $477 $474 $473 $580 forward $384 $-1 #
edge $-1 $476 -21.556753503010441 $699 21.556753503010441 $473 $700 forward 7 unknown #
straight-curve $-1 0 -21.556753503010441 -4.7755508187613387 -1 0 0 I I #
point $-1 -41.73955504013184 -21.556753503010441 -4.7755508187613387 #
edge $-1 $699 -41.73955504013184 $478 41.73955504013184 $488 $701 forward 7 unknown #
point $-1 41.73955504013184 21.556753503010441 -4.7755508187613387 #
coedge $-1 $489 $488 $481 $586 reversed $490 $-1 #
edge $-1 $587 -4.7755508187613387 $699 4.7755508187613387 $585 $702 forward 7 unknown #
vertex $-1 $492 $703 #
straight-curve $-1 -41.73955504013184 0 4.7755508187613387 0 -1 0 I I #
plane-surface $-1 0 21.556753503010441 0 0 -1 0 0 0 -1 forward_v I I I I #
straight-curve $-1 0 21.556753503010441 4.7755508187613387 -1 0 0 I I #
face $-1 $625 $619 $17 $-1 $704 reversed single #
loop $-1 $-1 $598 $494 #
plane-surface $-1 0 -21.556753503010441 0 0 1 0 0 0 1 forward_v I I I I #
coedge $-1 $497 $607 $498 $597 forward $409 $-1 #
edge $-1 $510 -1.2557356967179383 $601 1.7442643032820622 $507 $705 forward 7 unknown #
coedge $-1 $499 $498 $706 $707 reversed $328 $-1 #
edge $-1 $708 -41.73955504013184 $601 41.73955504013184 $594 $709 forward 7 unknown #
coedge $-1 $710 $711 $499 $599 forward $592 $-1 #
edge $-1 $602 -41.73955504013184 $712 41.73955504013184 $598 $713 forward 7 unknown #
coedge $-1 $714 $500 $711 $715 forward $495 $-1 #
vertex $-1 $501 $716 #
vertex $-1 $715 $717 #
straight-curve $-1 41.73955504013184 -9.7040767560597487 -1.9885286065641241 0 -1 0 I I #
edge $-1 $608 7.5554767651688053 $605 11.852676746950692 $526 $718 forward 7 unknown #
vertex $-1 $604 $719 #
straight-curve $-1 0 -21.556753503010441 1.0114713934358763 1 0 0 I I #
coedge $-1 $594 $505 $627 $720 reversed $409 $-1 #
vertex $-1 $604 $721 #
straight-curve $-1 0 -17.259553521228554 1.0114713934358763 -1 0 0 I I #
edge $-1 $524 -4.7755508187613387 $509 -1.0114713934358763 $508 $722 forward 7 unknown #
point $-1 41.73955504013184 -21.556753503010441 1.0114713934358763 #
point $-1 41.73955504013184 -17.259553521228554 1.0114713934358763 #
coedge $-1 $512 $714 $514 $615 reversed $495 $-1 #
straight-curve $-1 41.73955504013184 0 4.7755508187613387 0 1 0 I I #
edge $-1 $515 -4.7755508187613387 $620 4.7755508187613387 $613 $723 forward 7 unknown #
point $-1 41.73955504013184 21.556753503010441 4.7755508187613387 #
coedge $-1 $724 $516 $714 $725 forward $619 $-1 #
coedge $-1 $516 $724 $518 $623 forward $619 $-1 #
loop $-1 $-1 $617 $591 #
vertex $-1 $725 $726 #
straight-curve $-1 0 21.556753503010441 -4.7755508187613387 1 0 0 I I #
coedge $-1 $706 $518 $710 $727 reversed $430 $-1 #
edge $-1 $728 -21.556753503010441 $519 21.556753503010441 $518 $729 forward 7 unknown #
point $-1 -41.73955504013184 21.556753503010441 -4.7755508187613387 #
face $-1 $528 $523 $17 $-1 $593 reversed single #
point $-1 41.73955504013184 -21.556753503010441 4.7755508187613387 #
coedge $-1 $526 $706 $607 $720 forward $430 $-1 #
straight-curve $-1 -41.73955504013184 -21.556753503010441 0 0 0 -1 I I #
plane-surface $-1 -41.73955504013184 0 0 1 0 0 0 0 -1 forward_v I I I I #
face $-1 $730 $664 $18 $-1 $731 reversed single #
loop $-1 $-1 $732 $530 #
plane-surface $-1 0 -17.259553521228554 -0.48852860656412389 0 -1 0 0 0 -1 forward_v I I I I #
coedge $-1 $733 $734 $735 $736 reversed $531 $-1 #
coedge $-1 $737 $533 $669 $738 reversed $435 $-1 #
coedge $-1 $533 $737 $739 $740 reversed $435 $-1 #
coedge $-1 $741 $742 $533 $637 forward $664 $-1 #
edge $-1 $743 -11.852676746950692 $744 -7.5554767651688053 $636 $745 forward 7 unknown #
coedge $-1 $534 $546 $746 $747 forward $349 $-1 #
coedge $-1 $748 $535 $534 $640 reversed $448 $-1 #
edge $-1 $749 -41.73955504013184 $538 -12.992717736938165 $639 $550 forward 7 unknown #
vertex $-1 $542 $750 #
straight-curve $-1 12.992717736938165 21.556753503010441 46.624630457582384 0 0 1 I I #
straight-curve $-1 12.992717736938165 -13.759763674280698 24.867177669584919 0 -0.81915203911291934 0.57357644374324357 I I #
point $-1 12.992717736938165 21.556753503010441 4.7755508187613387 #
point $-1 12.992717736938165 14.934052613815229 4.7755508187613387 #
straight-curve $-1 1.5376610052996362 21.556753503010441 0.13828564377204344 1 0 0 I I #
coedge $-1 $544 $748 $552 $661 reversed $448 $-1 #
coedge $-1 $751 $547 $544 $649 forward $654 $-1 #
edge $-1 $549 -4.7755508187613387 $752 4.7755508187613387 $544 $753 forward 7 unknown #
plane-surface $-1 0 21.556753503010441 0 0 -1 0 0 0 -1 forward_v I I I I #
coedge $-1 $754 $755 $546 $652 reversed $556 $-1 #
edge $-1 $655 -41.73955504013184 $756 41.73955504013184 $651 $757 forward 7 unknown #
coedge $-1 $547 $758 $754 $759 reversed $654 $-1 #
loop $-1 $-1 $758 $555 #
vertex $-1 $548 $760 #
straight-curve $-1 -41.73955504013184 0 4.7755508187613387 0 -1 0 I I #
point $-1 -41.73955504013184 21.556753503010441 4.7755508187613387 #
coedge $-1 $552 $551 $751 $761 forward $362 $-1 #
coedge $-1 $762 $763 $551 $660 reversed $764 $-1 #
edge $-1 $666 -41.73955504013184 $765 41.73955504013184 $659 $766 forward 7 unknown #
edge $-1 $752 -41.73955504013184 $665 41.73955504013184 $647 $767 forward 7 unknown #
coedge $-1 $746 $553 $748 $768 reversed $664 $-1 #
coedge $-1 $553 $735 $762 $769 forward $664 $-1 #
loop $-1 $-1 $636 $630 #
vertex $-1 $554 $770 #
vertex $-1 $769 $771 #
straight-curve $-1 41.73955504013184 0 -4.7755508187613387 0 -1 0 I I #
plane-surface $-1 -41.73955504013184 0 0 1 0 0 0 0 -1 forward_v I I I I #
coedge $-1 $755 $754 $634 $738 forward $556 $-1 #
face $-1 $772 $773 $19 $-1 $774 forward single #
loop $-1 $-1 $775 $558 #
plane-surface $-1 0 -19.408153512119497 1.0114713934358763 0 0 1 1 0 0 forward_v I I I I #
coedge $-1 $567 $776 $561 $676 forward $559 $-1 #
coedge $-1 $675 $561 $777 $778 reversed $458 $-1 #
coedge $-1 $561 $674 $577 $696 forward $458 $-1 #
edge $-1 $779 -4.49580979680659 $697 2.1268910923886217 $673 $780 forward 7 unknown #
coedge $-1 $562 $577 $680 $781 reversed $379 $-1 #
vertex $-1 $781 $782 #
straight-curve $-1 -6.8420737157396196 -13.759763674280698 24.867177669584919 0 0.81915203911291934 -0.57357644374324357 I I #
coedge $-1 $777 $564 $677 $781 forward $682 $-1 #
coedge $-1 $564 $783 $566 $685 reversed $682 $-1 #
loop $-1 $-1 $777 $692 #
straight-curve $-1 -6.8420737157396196 21.556753503010441 46.624630457582384 0 0 -1 I I #
coedge $-1 $784 $566 $785 $786 forward $559 $-1 #
edge $-1 $569 6.8420737157396196 $787 41.73955504013184 $681 $788 forward 7 unknown #
point $-1 -6.8420737157396196 14.934052613815229 4.7755508187613387 #
point $-1 -6.8420737157396196 21.556753503010441 4.7755508187613387 #
coedge $-1 $789 $573 $790 $791 forward $469 $-1 #
coedge $-1 $573 $789 $792 $793 forward $469 $-1 #
coedge $-1 $794 $795 $573 $691 reversed $796 $-1 #
edge $-1 $797 -21.556753503010441 $798 21.556753503010441 $690 $799 forward 7 unknown #
face $-1 $-1 $682 $19 $-1 $800 reversed single #
loop $-1 $-1 $801 $574 #
plane-surface $-1 -41.73955504013184 0 0 1 0 0 0 0 -1 forward_v I I I I #
coedge $-1 $802 $803 $804 $805 forward $575 $-1 #
edge $-1 $806 -43.113507006020882 $697 -35.02868200043693 $675 $807 forward 7 unknown #
vertex $-1 $578 $808 #
straight-curve $-1 1.5376610052996362 14.934052613815222 4.7755508187613405 -1 0 0 I I #
vertex $-1 $583 $809 #
straight-curve $-1 -41.73955504013184 0 -4.7755508187613387 0 1 0 I I #
straight-curve $-1 0 21.556753503010441 -4.7755508187613387 1 0 0 I I #
straight-curve $-1 -41.73955504013184 21.556753503010441 0 0 0 -1 I I #
point $-1 -41.73955504013184 21.556753503010441 4.7755508187613387 #
plane-surface $-1 0 0 -4.7755508187613387 0 0 1 1 0 0 forward_v I I I I #
straight-curve $-1 41.73955504013184 -17.259553521228554 -0.24426430328206195 0 0 -1 I I #
coedge $-1 $627 $622 $596 $707 forward $430 $-1 #
edge $-1 $712 -11.852676746950692 $708 -7.5554767651688053 $706 $810 forward 7 unknown #
vertex $-1 $707 $811 #
straight-curve $-1 0 -17.259553521228554 -1.9885286065641241 1 0 0 I I #
coedge $-1 $812 $598 $622 $727 forward $592 $-1 #
coedge $-1 $598 $812 $600 $715 reversed $592 $-1 #
vertex $-1 $727 $813 #
straight-curve $-1 0 -21.556753503010441 -1.9885286065641241 -1 0 0 I I #
coedge $-1 $613 $600 $617 $725 reversed $495 $-1 #
edge $-1 $602 1.9885286065641241 $814 4.7755508187613387 $600 $722 forward 7 unknown #
point $-1 41.73955504013184 -17.259553521228554 -1.9885286065641241 #
point $-1 41.73955504013184 -21.556753503010441 -1.9885286065641241 #
straight-curve $-1 -41.73955504013184 -9.7040767560597487 1.0114713934358763 0 -1 0 I I #
point $-1 -41.73955504013184 -21.556753503010441 1.0114713934358763 #
edge $-1 $708 -1.7442643032820622 $608 1.2557356967179383 $627 $815 forward 7 unknown #
point $-1 -41.73955504013184 -17.259553521228554 1.0114713934358763 #
straight-curve $-1 41.73955504013184 -21.556753503010441 0 0 0 -1 I I #
straight-curve $-1 41.73955504013184 21.556753503010441 0 0 0 -1 I I #
coedge $-1 $618 $617 $812 $816 forward $619 $-1 #
edge $-1 $620 -21.556753503010441 $814 21.556753503010441 $714 $817 forward 7 unknown #
point $-1 41.73955504013184 21.556753503010441 -4.7755508187613387 #
edge $-1 $712 1.9885286065641241 $728 4.7755508187613387 $622 $628 forward 7 unknown #
vertex $-1 $623 $818 #
straight-curve $-1 -41.73955504013184 0 -4.7755508187613387 0 1 0 I I #
face $-1 $363 $764 $18 $-1 $557 reversed single #
plane-surface $-1 41.73955504013184 0 0 -1 0 0 0 0 1 forward_v I I I I #
coedge $-1 $739 $819 $741 $820 reversed $631 $-1 #
coedge $-1 $821 $633 $819 $822 reversed $531 $-1 #
coedge $-1 $633 $821 $823 $824 reversed $531 $-1 #
coedge $-1 $663 $741 $633 $736 forward $664 $-1 #
edge $-1 $825 7.5554767651688053 $826 11.852676746950692 $735 $827 forward 7 unknown #
coedge $-1 $635 $634 $758 $828 reversed $435 $-1 #
edge $-1 $829 -41.73955504013184 $743 41.73955504013184 $669 $830 forward 7 unknown #
coedge $-1 $831 $732 $635 $740 forward $631 $-1 #
edge $-1 $744 -41.73955504013184 $832 41.73955504013184 $739 $833 forward 7 unknown #
coedge $-1 $735 $636 $732 $820 forward $664 $-1 #
coedge $-1 $636 $746 $755 $834 forward $664 $-1 #
vertex $-1 $738 $835 #
vertex $-1 $637 $836 #
straight-curve $-1 41.73955504013184 -9.7040767560597487 1.0114713934358763 0 1 0 I I #
coedge $-1 $742 $662 $638 $747 reversed $664 $-1 #
edge $-1 $756 -21.556753503010441 $749 21.556753503010441 $746 $837 forward 7 unknown #
coedge $-1 $647 $639 $662 $768 forward $448 $-1 #
vertex $-1 $747 $838 #
point $-1 12.992717736938165 21.556753503010441 0.13828564377204344 #
coedge $-1 $839 $648 $658 $761 reversed $654 $-1 #
vertex $-1 $661 $840 #
straight-curve $-1 -41.73955504013184 21.556753503010441 0 0 0 -1 I I #
coedge $-1 $669 $651 $653 $759 forward $556 $-1 #
coedge $-1 $651 $669 $742 $834 reversed $556 $-1 #
vertex $-1 $747 $841 #
straight-curve $-1 0 -21.556753503010441 4.7755508187613387 1 0 0 I I #
coedge $-1 $653 $842 $737 $828 forward $654 $-1 #
edge $-1 $655 -4.7755508187613387 $829 -1.0114713934358763 $653 $843 forward 7 unknown #
point $-1 -41.73955504013184 -21.556753503010441 4.7755508187613387 #
edge $-1 $765 -21.556753503010441 $752 21.556753503010441 $751 $844 forward 7 unknown #
coedge $-1 $823 $659 $663 $769 reversed $764 $-1 #
coedge $-1 $659 $823 $839 $845 forward $764 $-1 #
loop $-1 $-1 $823 $730 #
vertex $-1 $761 $846 #
straight-curve $-1 0 -21.556753503010441 -4.7755508187613387 -1 0 0 I I #
straight-curve $-1 0 21.556753503010441 -4.7755508187613387 1 0 0 I I #
edge $-1 $749 -4.7755508187613387 $665 4.7755508187613387 $662 $847 forward 7 unknown #
edge $-1 $826 1.9885286065641241 $666 4.7755508187613387 $663 $848 forward 7 unknown #
point $-1 41.73955504013184 21.556753503010441 -4.7755508187613387 #
point $-1 41.73955504013184 -21.556753503010441 -4.7755508187613387 #
face $-1 $849 $850 $19 $-1 $851 forward single #
loop $-1 $-1 $852 $670 #
plane-surface $-1 0 -19.408153512119497 -1.9885286065641241 0 0 1 1 0 0 forward_v I I I I #
coedge $-1 $804 $853 $854 $855 reversed $671 $-1 #
coedge $-1 $673 $856 $857 $858 forward $559 $-1 #
coedge $-1 $857 $680 $674 $778 forward $682 $-1 #
edge $-1 $806 -46.486344813810341 $779 -41.849079638821046 $777 $859 forward 7 unknown #
vertex $-1 $778 $860 #
straight-curve $-1 12.992717736938165 17.060943706203851 4.7755508187613387 0 -1 0 I I #
edge $-1 $678 -8.3797347210392559 $806 11.455056731638528 $680 $861 forward 7 unknown #
point $-1 -6.8420737157396196 21.556753503010441 0.13828564377204344 #
coedge $-1 $681 $792 $862 $863 reversed $682 $-1 #
coedge $-1 $856 $684 $864 $865 forward $559 $-1 #
coedge $-1 $862 $866 $684 $786 reversed $693 $-1 #
edge $-1 $787 -21.556753503010441 $867 21.556753503010441 $785 $868 forward 7 unknown #
vertex $-1 $685 $869 #
straight-curve $-1 0 21.556753503010441 4.7755508187613387 -1 0 0 I I #
coedge $-1 $689 $688 $870 $871 forward $469 $-1 #
coedge $-1 $872 $873 $688 $791 reversed $874 $-1 #
edge $-1 $798 -41.73955504013184 $875 41.73955504013184 $790 $876 forward 7 unknown #
coedge $-1 $783 $877 $689 $793 reversed $682 $-1 #
edge $-1 $878 -41.73955504013184 $797 41.73955504013184 $792 $879 forward 7 unknown #
coedge $-1 $880 $690 $877 $881 reversed $796 $-1 #
coedge $-1 $690 $882 $872 $883 forward $796 $-1 #
loop $-1 $-1 $854 $849 #
vertex $-1 $691 $884 #
vertex $-1 $883 $885 #
straight-curve $-1 41.73955504013184 0 -4.7755508187613387 0 -1 0 I I #
plane-surface $-1 0 21.556753503010441 0 0 -1 0 0 0 -1 forward_v I I I I #
coedge $-1 $866 $886 $887 $888 forward $693 $-1 #
coedge $-1 $864 $695 $889 $890 reversed $575 $-1 #
coedge $-1 $695 $864 $866 $891 forward $575 $-1 #
coedge $-1 $887 $775 $695 $805 reversed $671 $-1 #
edge $-1 $892 -41.73955504013184 $893 41.73955504013184 $695 $894 forward 7 unknown #
vertex $-1 $781 $895 #
straight-curve $-1 12.992717736938165 -13.759763674280698 24.867177669584919 0 -0.81915203911291934 0.57357644374324357 I I #
point $-1 12.992717736938165 14.934052613815229 4.7755508187613387 #
point $-1 -41.73955504013184 21.556753503010441 -4.7755508187613387 #
straight-curve $-1 -41.73955504013184 -9.7040767560597487 -1.9885286065641241 0 1 0 I I #
point $-1 -41.73955504013184 -17.259553521228554 -1.9885286065641241 #
coedge $-1 $711 $710 $724 $816 reversed $592 $-1 #
point $-1 -41.73955504013184 -21.556753503010441 -1.9885286065641241 #
vertex $-1 $715 $896 #
straight-curve $-1 -41.73955504013184 -17.259553521228554 -0.24426430328206195 0 0 1 I I #
edge $-1 $814 -41.73955504013184 $728 41.73955504013184 $812 $897 forward 7 unknown #
straight-curve $-1 41.73955504013184 0 -4.7755508187613387 0 -1 0 I I #
point $-1 -41.73955504013184 -21.556753503010441 -4.7755508187613387 #
coedge $-1 $732 $831 $733 $822 forward $631 $-1 #
edge $-1 $744 -1.2557356967179383 $825 1.7442643032820622 $741 $898 forward 7 unknown #
coedge $-1 $734 $733 $899 $900 reversed $531 $-1 #
edge $-1 $901 -41.73955504013184 $825 41.73955504013184 $819 $902 forward 7 unknown #
coedge $-1 $763 $762 $734 $824 forward $764 $-1 #
edge $-1 $826 -41.73955504013184 $903 41.73955504013184 $823 $904 forward 7 unknown #
vertex $-1 $736 $905 #
vertex $-1 $769 $906 #
straight-curve $-1 41.73955504013184 -9.7040767560597487 -1.9885286065641241 0 -1 0 I I #
edge $-1 $832 7.5554767651688053 $829 11.852676746950692 $758 $907 forward 7 unknown #
vertex $-1 $828 $908 #
straight-curve $-1 0 -21.556753503010441 1.0114713934358763 1 0 0 I I #
coedge $-1 $819 $739 $842 $909 reversed $631 $-1 #
vertex $-1 $828 $910 #
straight-curve $-1 0 -17.259553521228554 1.0114713934358763 -1 0 0 I I #
edge $-1 $756 -4.7755508187613387 $743 -1.0114713934358763 $742 $848 forward 7 unknown #
point $-1 41.73955504013184 -21.556753503010441 1.0114713934358763 #
point $-1 41.73955504013184 -17.259553521228554 1.0114713934358763 #
straight-curve $-1 41.73955504013184 0 4.7755508187613387 0 1 0 I I #
point $-1 41.73955504013184 21.556753503010441 4.7755508187613387 #
coedge $-1 $899 $751 $763 $845 reversed $654 $-1 #
point $-1 -41.73955504013184 21.556753503010441 -4.7755508187613387 #
point $-1 41.73955504013184 -21.556753503010441 4.7755508187613387 #
coedge $-1 $758 $899 $831 $909 forward $654 $-1 #
straight-curve $-1 -41.73955504013184 -21.556753503010441 0 0 0 -1 I I #
straight-curve $-1 -41.73955504013184 0 -4.7755508187613387 0 1 0 I I #
edge $-1 $903 1.9885286065641241 $765 4.7755508187613387 $839 $843 forward 7 unknown #
point $-1 -41.73955504013184 -21.556753503010441 -4.7755508187613387 #
straight-curve $-1 41.73955504013184 21.556753503010441 0 0 0 -1 I I #
straight-curve $-1 41.73955504013184 -21.556753503010441 0 0 0 -1 I I #
face $-1 $911 $796 $19 $-1 $912 reversed single #
loop $-1 $-1 $913 $772 #
plane-surface $-1 0 -17.259553521228554 -0.48852860656412389 0 -1 0 0 0 -1 forward_v I I I I #
coedge $-1 $914 $915 $882 $916 reversed $773 $-1 #
coedge $-1 $775 $887 $917 $918 reversed $671 $-1 #
coedge $-1 $919 $889 $775 $855 forward $796 $-1 #
edge $-1 $893 -11.852676746950692 $920 -7.5554767651688053 $854 $921 forward 7 unknown #
coedge $-1 $776 $784 $880 $922 forward $559 $-1 #
coedge $-1 $877 $777 $776 $858 reversed $682 $-1 #
edge $-1 $923 -41.73955504013184 $779 -12.992717736938165 $857 $788 forward 7 unknown #
straight-curve $-1 12.992717736938165 21.556753503010441 46.624630457582384 0 0 1 I I #
point $-1 12.992717736938165 21.556753503010441 4.7755508187613387 #
straight-curve $-1 1.5376610052996362 21.556753503010441 0.13828564377204344 1 0 0 I I #
coedge $-1 $870 $785 $783 $863 forward $693 $-1 #
edge $-1 $787 -4.7755508187613387 $878 4.7755508187613387 $783 $924 forward 7 unknown #
coedge $-1 $803 $802 $784 $865 reversed $575 $-1 #
edge $-1 $867 -41.73955504013184 $925 41.73955504013184 $864 $926 forward 7 unknown #
coedge $-1 $785 $801 $803 $891 reversed $693 $-1 #
vertex $-1 $786 $927 #
straight-curve $-1 -41.73955504013184 0 4.7755508187613387 0 -1 0 I I #
point $-1 -41.73955504013184 21.556753503010441 4.7755508187613387 #
coedge $-1 $928 $862 $789 $871 reversed $693 $-1 #
edge $-1 $875 -21.556753503010441 $878 21.556753503010441 $870 $929 forward 7 unknown #
coedge $-1 $930 $790 $795 $883 reversed $874 $-1 #
coedge $-1 $790 $930 $928 $931 forward $874 $-1 #
loop $-1 $-1 $930 $911 #
vertex $-1 $871 $932 #
straight-curve $-1 0 -21.556753503010441 -4.7755508187613387 -1 0 0 I I #
coedge $-1 $792 $857 $794 $881 forward $682 $-1 #
vertex $-1 $793 $933 #
straight-curve $-1 0 21.556753503010441 -4.7755508187613387 1 0 0 I I #
coedge $-1 $889 $794 $856 $922 reversed $796 $-1 #
edge $-1 $923 -4.7755508187613387 $797 4.7755508187613387 $794 $934 forward 7 unknown #
coedge $-1 $795 $919 $852 $916 forward $796 $-1 #
edge $-1 $935 1.9885286065641241 $798 4.7755508187613387 $795 $936 forward 7 unknown #
point $-1 41.73955504013184 21.556753503010441 -4.7755508187613387 #
point $-1 41.73955504013184 -21.556753503010441 -4.7755508187613387 #
coedge $-1 $801 $937 $938 $939 forward $693 $-1 #
coedge $-1 $853 $804 $801 $888 reversed $671 $-1 #
edge $-1 $940 7.5554767651688053 $892 11.852676746950692 $801 $941 forward 7 unknown #
coedge $-1 $854 $880 $802 $890 forward $796 $-1 #
edge $-1 $925 -4.7755508187613387 $893 -1.0114713934358763 $889 $936 forward 7 unknown #
edge $-1 $867 -4.7755508187613387 $892 -1.0114713934358763 $866 $942 forward 7 unknown #
vertex $-1 $888 $943 #
vertex $-1 $805 $944 #
straight-curve $-1 0 -21.556753503010441 1.0114713934358763 1 0 0 I I #
point $-1 12.992717736938165 21.556753503010441 0.13828564377204344 #
point $-1 41.73955504013184 -21.556753503010441 -4.7755508187613387 #
straight-curve $-1 0 -21.556753503010441 -4.7755508187613387 -1 0 0 I I #
straight-curve $-1 41.73955504013184 -17.259553521228554 -0.24426430328206195 0 0 -1 I I #
coedge $-1 $842 $839 $821 $900 forward $654 $-1 #
edge $-1 $903 -11.852676746950692 $901 -7.5554767651688053 $899 $945 forward 7 unknown #
vertex $-1 $900 $946 #
straight-curve $-1 0 -17.259553521228554 -1.9885286065641241 1 0 0 I I #
vertex $-1 $845 $947 #
straight-curve $-1 0 -21.556753503010441 -1.9885286065641241 -1 0 0 I I #
point $-1 41.73955504013184 -17.259553521228554 -1.9885286065641241 #
point $-1 41.73955504013184 -21.556753503010441 -1.9885286065641241 #
straight-curve $-1 -41.73955504013184 -9.7040767560597487 1.0114713934358763 0 -1 0 I I #
point $-1 -41.73955504013184 -21.556753503010441 1.0114713934358763 #
edge $-1 $901 -1.7442643032820622 $832 1.2557356967179383 $842 $948 forward 7 unknown #
point $-1 -41.73955504013184 -17.259553521228554 1.0114713934358763 #
face $-1 $376 $874 $19 $-1 $576 reversed single #
plane-surface $-1 41.73955504013184 0 0 -1 0 0 0 0 1 forward_v I I I I #
coedge $-1 $917 $949 $919 $950 reversed $850 $-1 #
coedge $-1 $951 $852 $949 $952 reversed $773 $-1 #
coedge $-1 $852 $951 $930 $953 reversed $773 $-1 #
edge $-1 $954 7.5554767651688053 $935 11.852676746950692 $882 $955 forward 7 unknown #
coedge $-1 $938 $913 $853 $918 forward $850 $-1 #
edge $-1 $920 -41.73955504013184 $940 41.73955504013184 $917 $956 forward 7 unknown #
coedge $-1 $882 $854 $913 $950 forward $796 $-1 #
vertex $-1 $855 $957 #
straight-curve $-1 41.73955504013184 -9.7040767560597487 1.0114713934358763 0 1 0 I I #
edge $-1 $925 -21.556753503010441 $923 21.556753503010441 $880 $958 forward 7 unknown #
vertex $-1 $922 $959 #
straight-curve $-1 -41.73955504013184 21.556753503010441 0 0 0 -1 I I #
vertex $-1 $922 $960 #
straight-curve $-1 0 -21.556753503010441 4.7755508187613387 1 0 0 I I #
point $-1 -41.73955504013184 -21.556753503010441 4.7755508187613387 #
coedge $-1 $937 $870 $873 $931 reversed $693 $-1 #
straight-curve $-1 -41.73955504013184 0 -4.7755508187613387 0 1 0 I I #
coedge $-1 $873 $872 $915 $953 forward $874 $-1 #
edge $-1 $961 1.9885286065641241 $875 4.7755508187613387 $928 $942 forward 7 unknown #
point $-1 -41.73955504013184 -21.556753503010441 -4.7755508187613387 #
point $-1 -41.73955504013184 21.556753503010441 -4.7755508187613387 #
straight-curve $-1 41.73955504013184 21.556753503010441 0 0 0 -1 I I #
vertex $-1 $883 $962 #
straight-curve $-1 41.73955504013184 -21.556753503010441 0 0 0 -1 I I #
coedge $-1 $886 $928 $951 $963 forward $693 $-1 #
coedge $-1 $949 $917 $886 $939 reversed $850 $-1 #
edge $-1 $964 -1.7442643032820622 $940 1.2557356967179383 $886 $965 forward 7 unknown #
vertex $-1 $888 $966 #
straight-curve $-1 -41.73955504013184 -9.7040767560597487 1.0114713934358763 0 -1 0 I I #
straight-curve $-1 -41.73955504013184 -21.556753503010441 0 0 0 -1 I I #
point $-1 -41.73955504013184 -21.556753503010441 1.0114713934358763 #
point $-1 41.73955504013184 -21.556753503010441 1.0114713934358763 #
straight-curve $-1 -41.73955504013184 -9.7040767560597487 -1.9885286065641241 0 1 0 I I #
point $-1 -41.73955504013184 -17.259553521228554 -1.9885286065641241 #
point $-1 -41.73955504013184 -21.556753503010441 -1.9885286065641241 #
straight-curve $-1 -41.73955504013184 -17.259553521228554 -0.24426430328206195 0 0 1 I I #
coedge $-1 $913 $938 $914 $952 forward $850 $-1 #
edge $-1 $920 -1.2557356967179383 $954 1.7442643032820622 $919 $967 forward 7 unknown #
coedge $-1 $915 $914 $937 $963 reversed $773 $-1 #
edge $-1 $964 -41.73955504013184 $954 41.73955504013184 $949 $968 forward 7 unknown #
edge $-1 $935 -41.73955504013184 $961 41.73955504013184 $930 $969 forward 7 unknown #
vertex $-1 $916 $970 #
straight-curve $-1 41.73955504013184 -9.7040767560597487 -1.9885286065641241 0 -1 0 I I #
straight-curve $-1 0 -17.259553521228554 1.0114713934358763 -1 0 0 I I #
point $-1 41.73955504013184 -17.259553521228554 1.0114713934358763 #
straight-curve $-1 41.73955504013184 0 4.7755508187613387 0 1 0 I I #
point $-1 41.73955504013184 21.556753503010441 4.7755508187613387 #
point $-1 41.73955504013184 -21.556753503010441 4.7755508187613387 #
vertex $-1 $931 $971 #
point $-1 41.73955504013184 -21.556753503010441 -1.9885286065641241 #
edge $-1 $961 -11.852676746950692 $964 -7.5554767651688053 $937 $972 forward 7 unknown #
vertex $-1 $963 $973 #
straight-curve $-1 -41.73955504013184 -17.259553521228554 -0.24426430328206195 0 0 1 I I #
point $-1 -41.73955504013184 -17.259553521228554 1.0114713934358763 #
straight-curve $-1 41.73955504013184 -17.259553521228554 -0.24426430328206195 0 0 -1 I I #
straight-curve $-1 0 -17.259553521228554 -1.9885286065641241 1 0 0 I I #
straight-curve $-1 0 -21.556753503010441 -1.9885286065641241 -1 0 0 I I #
point $-1 41.73955504013184 -17.259553521228554 -1.9885286065641241 #
point $-1 -41.73955504013184 -21.556753503010441 -1.9885286065641241 #
straight-curve $-1 -41.73955504013184 -9.7040767560597487 -1.9885286065641241 0 1 0 I I #
point $-1 -41.73955504013184 -17.259553521228554 -1.9885286065641241 #
End-of-ACIS-data 