500 0 7 0           
7 Unknown 11 ACIS 5.0 NT 24 Fri Mar 26 03:21:37 1999 
-1 9.9999999999999995e-007 1e-010 
body $-1 $7 $-1 $8 #
body $-1 $9 $-1 $10 #
body $-1 $11 $-1 $12 #
body $-1 $13 $-1 $14 #
body $-1 $15 $-1 $16 #
body $-1 $17 $-1 $18 #
body $-1 $19 $-1 $20 #
lump $-1 $-1 $21 $0 #
transform $-1 1 0 0 0 1 0 0 0 1 63.101290932950832 34.040457138194284 16.090237503997759 1 rotate no_reflect no_shear #
lump $-1 $-1 $22 $1 #
transform $-1 1 0 0 0 1 0 0 0 1 63.101290932950832 34.040457138194284 16.090237503997759 1 rotate no_reflect no_shear #
lump $-1 $-1 $23 $2 #
transform $-1 1 0 0 0 1 0 0 0 1 63.101290932950832 34.040457138194284 16.090237503997759 1 rotate no_reflect no_shear #
lump $-1 $-1 $24 $3 #
transform $-1 1 0 0 0 1 0 0 0 1 63.101290932950832 34.040457138194284 16.090237503997759 1 rotate no_reflect no_shear #
lump $-1 $-1 $25 $4 #
transform $-1 1 0 0 0 1 0 0 0 1 63.101290932950832 34.040457138194284 16.090237503997759 1 rotate no_reflect no_shear #
lump $-1 $-1 $26 $5 #
transform $-1 1 0 0 0 1 0 0 0 1 63.101290932950832 34.040457138194284 16.090237503997759 1 rotate no_reflect no_shear #
lump $-1 $-1 $27 $6 #
transform $-1 1 0 0 0 1 0 0 0 1 63.101290932950832 34.040457138194284 16.090237503997759 1 rotate no_reflect no_shear #
shell $-1 $-1 $-1 $28 $-1 $7 #
shell $-1 $-1 $-1 $29 $-1 $9 #
shell $-1 $-1 $-1 $30 $-1 $11 #
shell $-1 $-1 $-1 $31 $-1 $13 #
shell $-1 $-1 $-1 $32 $-1 $15 #
shell $-1 $-1 $-1 $33 $-1 $17 #
shell $-1 $-1 $-1 $34 $-1 $19 #
face $-1 $35 $36 $21 $-1 $37 reversed single #
face $-1 $38 $39 $22 $-1 $40 forward single #
face $-1 $41 $42 $23 $-1 $43 reversed single #
face $-1 $44 $45 $24 $-1 $46 forward single #
face $-1 $47 $48 $25 $-1 $49 forward single #
face $-1 $50 $51 $26 $-1 $52 reversed single #
face $-1 $53 $54 $27 $-1 $55 forward single #
face $-1 $56 $57 $21 $-1 $58 forward single #
loop $-1 $-1 $59 $28 #
plane-surface $-1 -63.101290932950832 0 0 1 0 0 0 0 -1 forward_v I I I I #
face $-1 $60 $61 $22 $-1 $62 reversed single #
loop $-1 $-1 $63 $29 #
plane-surface $-1 -63.101290932950832 0 0 1 0 0 0 0 -1 forward_v I I I I #
face $-1 $64 $65 $23 $-1 $66 reversed single #
loop $-1 $-1 $67 $30 #
plane-surface $-1 53.332058258090242 -34.040457138194284 8.8815625534494558 0 -0.74314483375859142 0.66913059716165679 1 0 0 forward_v I I I I #
face $-1 $68 $69 $24 $-1 $70 forward single #
loop $-1 $71 $72 $31 #
cone-surface $-1 49.145244254578557 -28.888014535247635 10.768755146022105 0 0.74314483375859142 -0.66913059716165679 1.5 0 0 1 I I 0 1 1.5 forward I I I I #
face $-1 $73 $74 $25 $-1 $75 forward single #
loop $-1 $76 $77 $32 #
cone-surface $-1 57.518872261601913 -28.888014535247635 10.768755146022105 0 0.74314483375859142 -0.66913059716165679 1.5 0 0 1 I I 0 1 1.5 forward I I I I #
face $-1 $78 $79 $26 $-1 $80 reversed single #
loop $-1 $-1 $81 $33 #
plane-surface $-1 -52.330058636007529 104.9889302814436 131.63218702291354 1 0 0 0 -0.84804810408105047 -0.52991925155115449 forward_v I I I I #
face $-1 $82 $83 $27 $-1 $84 forward single #
loop $-1 $85 $86 $34 #
cone-surface $-1 -42.129283851030138 27.911031930639538 9.4955505183528608 0 -0.84804810408105047 -0.52991925155115449 2 0 0 1 I I 0 1 2 forward I I I I #
face $-1 $87 $88 $21 $-1 $89 reversed single #
loop $-1 $-1 $90 $35 #
plane-surface $-1 0 0 16.090237503997759 0 0 1 1 0 0 forward_v I I I I #
coedge $-1 $91 $92 $93 $94 reversed $36 $-1 #
face $-1 $95 $96 $22 $-1 $97 reversed single #
loop $-1 $-1 $98 $38 #
plane-surface $-1 0 0 -16.090237503997759 0 0 1 1 0 0 forward_v I I I I #
coedge $-1 $99 $100 $101 $102 forward $39 $-1 #
face $-1 $103 $104 $23 $-1 $105 reversed single #
loop $-1 $-1 $106 $41 #
plane-surface $-1 43.562825583229653 -127.82725385883481 93.327571520723126 1 0 0 0 0.74314483375859142 -0.66913059716165679 forward_v I I I I #
coedge $-1 $107 $108 $109 $110 reversed $42 $-1 #
face $-1 $-1 $111 $24 $-1 $112 forward single #
loop $-1 $113 $114 $44 #
cone-surface $-1 49.145244254578557 -26.42357326596116 8.5497623154493603 0 0.74314483375859142 -0.66913059716165679 0.75 0 0 1 I I -0.70710678118654757 0.70710678118654757 0.75 forward I I I I #
loop $-1 $-1 $115 $31 #
coedge $-1 $72 $72 $116 $117 reversed $45 $-1 #
face $-1 $-1 $118 $25 $-1 $119 forward single #
loop $-1 $120 $121 $47 #
cone-surface $-1 57.518872261601913 -26.42357326596116 8.5497623154493603 0 0.74314483375859142 -0.66913059716165679 0.75 0 0 1 I I -0.70710678118654757 0.70710678118654757 0.75 forward I I I I #
loop $-1 $-1 $122 $32 #
coedge $-1 $77 $77 $123 $124 reversed $48 $-1 #
face $-1 $125 $126 $26 $-1 $127 reversed single #
loop $-1 $-1 $128 $50 #
plane-surface $-1 -42.129283851030138 -2.0369300000678692 64.755009296711634 0 0.84804810408105047 0.52991925155115449 1 0 0 forward_v I I I I #
coedge $-1 $129 $130 $131 $132 reversed $51 $-1 #
face $-1 $-1 $133 $27 $-1 $134 forward single #
loop $-1 $135 $136 $53 #
cone-surface $-1 -42.129283851030138 23.767690488626556 6.906503522897804 0 -0.84804810408105047 -0.52991925155115449 1 0 0 1 I I -0.70710678118654746 0.70710678118654746 1 forward I I I I #
loop $-1 $-1 $137 $34 #
coedge $-1 $86 $86 $138 $139 reversed $54 $-1 #
face $-1 $140 $141 $21 $-1 $142 reversed single #
loop $-1 $-1 $143 $56 #
plane-surface $-1 0 0 -16.090237503997759 0 0 1 1 0 0 forward_v I I I I #
coedge $-1 $144 $145 $146 $147 forward $57 $-1 #
coedge $-1 $148 $59 $149 $150 reversed $36 $-1 #
coedge $-1 $59 $148 $151 $152 forward $36 $-1 #
coedge $-1 $153 $154 $59 $94 forward $88 $-1 #
edge $-1 $155 -34.040457138194284 $156 34.040457138194284 $59 $157 forward 7 unknown #
face $-1 $158 $159 $22 $-1 $160 reversed single #
loop $-1 $-1 $161 $60 #
plane-surface $-1 -68.486907081422487 -21.410827557433425 0 0 1 0 0 0 1 forward_v I I I I #
coedge $-1 $162 $163 $100 $164 forward $61 $-1 #
coedge $-1 $165 $63 $166 $167 reversed $39 $-1 #
coedge $-1 $63 $165 $98 $164 reversed $39 $-1 #
coedge $-1 $168 $169 $63 $102 reversed $170 $-1 #
edge $-1 $171 -16.090237503997759 $172 16.090237503997759 $101 $173 forward 7 unknown #
face $-1 $174 $175 $23 $-1 $176 forward single #
loop $-1 $-1 $177 $64 #
plane-surface $-1 0 -34.040457138194284 0 0 1 0 0 0 1 forward_v I I I I #
coedge $-1 $178 $179 $180 $181 reversed $65 $-1 #
coedge $-1 $182 $67 $183 $184 reversed $42 $-1 #
coedge $-1 $67 $182 $178 $185 forward $42 $-1 #
coedge $-1 $180 $186 $67 $110 forward $175 $-1 #
edge $-1 $187 -36.435261803905711 $188 -16.896796454184532 $109 $189 forward 7 unknown #
loop $-1 $-1 $116 $68 #
plane-surface $-1 53.332058258090242 -34.040457138194284 8.8815625534494558 0 -0.74314483375859142 0.66913059716165679 1 0 0 forward_v I I I I #
loop $-1 $-1 $190 $44 #
coedge $-1 $114 $114 $115 $191 reversed $69 $-1 #
coedge $-1 $115 $115 $114 $191 forward $71 $-1 #
coedge $-1 $116 $116 $72 $117 forward $111 $-1 #
edge $-1 $192 8.8006027207469067e-016 $192 6.2831853071796013 $116 $193 forward 7 unknown #
loop $-1 $-1 $123 $73 #
plane-surface $-1 53.332058258090242 -34.040457138194284 8.8815625534494558 0 -0.74314483375859142 0.66913059716165679 1 0 0 forward_v I I I I #
loop $-1 $-1 $194 $47 #
coedge $-1 $121 $121 $122 $195 reversed $74 $-1 #
coedge $-1 $122 $122 $121 $195 forward $76 $-1 #
coedge $-1 $123 $123 $77 $124 forward $118 $-1 #
edge $-1 $196 8.8006027207469067e-016 $196 6.2831853071796013 $123 $197 forward 7 unknown #
face $-1 $198 $199 $26 $-1 $200 forward single #
loop $-1 $-1 $201 $78 #
plane-surface $-1 -31.928509066052747 104.9889302814436 131.63218702291354 -1 0 0 0 0.84804810408105047 0.52991925155115449 forward_v I I I I #
coedge $-1 $202 $203 $204 $205 reversed $79 $-1 #
coedge $-1 $130 $81 $206 $207 reversed $51 $-1 #
coedge $-1 $81 $129 $202 $208 reversed $51 $-1 #
coedge $-1 $204 $209 $81 $132 forward $199 $-1 #
edge $-1 $210 18.454008002527516 $211 24.122271741773144 $131 $212 forward 7 unknown #
loop $-1 $-1 $138 $82 #
plane-surface $-1 -42.129283851030138 -2.0369300000678692 64.755009296711634 0 0.84804810408105047 0.52991925155115449 1 0 0 forward_v I I I I #
loop $-1 $-1 $213 $53 #
coedge $-1 $136 $136 $137 $214 reversed $83 $-1 #
coedge $-1 $137 $137 $136 $214 forward $85 $-1 #
coedge $-1 $138 $138 $86 $139 forward $133 $-1 #
edge $-1 $215 0 $215 6.2831853071796004 $138 $216 forward 7 unknown #
face $-1 $217 $218 $21 $-1 $219 reversed single #
loop $-1 $-1 $149 $87 #
plane-surface $-1 0 -34.040457138194284 0 0 1 0 0 0 1 forward_v I I I I #
coedge $-1 $154 $153 $220 $221 forward $88 $-1 #
coedge $-1 $222 $90 $223 $224 forward $57 $-1 #
coedge $-1 $90 $222 $225 $226 forward $57 $-1 #
coedge $-1 $227 $228 $90 $147 reversed $229 $-1 #
edge $-1 $230 -34.040457138194284 $231 34.040457138194284 $146 $232 forward 7 unknown #
coedge $-1 $92 $91 $222 $233 reversed $36 $-1 #
coedge $-1 $234 $225 $91 $150 forward $141 $-1 #
edge $-1 $235 -16.090237503997759 $155 16.090237503997759 $91 $236 forward 7 unknown #
coedge $-1 $223 $237 $92 $152 reversed $218 $-1 #
edge $-1 $238 -16.090237503997759 $156 16.090237503997759 $151 $239 forward 7 unknown #
coedge $-1 $143 $93 $237 $240 forward $88 $-1 #
coedge $-1 $93 $143 $234 $241 forward $88 $-1 #
vertex $-1 $94 $242 #
vertex $-1 $240 $243 #
straight-curve $-1 -63.101290932950832 0 -16.090237503997759 0 1 0 I I #
face $-1 $244 $170 $22 $-1 $245 reversed single #
loop $-1 $-1 $246 $95 #
plane-surface $-1 -73.872523229894142 -18.866746271857632 0 1 0 0 0 0 -1 forward_v I I I I #
coedge $-1 $247 $248 $249 $250 forward $96 $-1 #
coedge $-1 $251 $98 $247 $252 forward $61 $-1 #
coedge $-1 $98 $251 $168 $253 forward $61 $-1 #
edge $-1 $171 16.32266498628184 $254 21.410827557433425 $98 $255 forward 7 unknown #
coedge $-1 $100 $99 $256 $257 forward $39 $-1 #
coedge $-1 $258 $259 $99 $167 forward $260 $-1 #
edge $-1 $261 -21.410827557433425 $172 -16.32266498628184 $166 $262 forward 7 unknown #
coedge $-1 $263 $101 $163 $253 reversed $170 $-1 #
coedge $-1 $101 $263 $258 $264 reversed $170 $-1 #
loop $-1 $-1 $101 $158 #
vertex $-1 $164 $265 #
vertex $-1 $264 $266 #
straight-curve $-1 -63.101290932950832 -16.32266498628184 0 0 0 1 I I #
face $-1 $-1 $267 $23 $-1 $268 reversed single #
loop $-1 $-1 $180 $103 #
plane-surface $-1 0 0 16.090237503997759 0 0 1 1 0 0 forward_v I I I I #
coedge $-1 $269 $270 $179 $271 forward $104 $-1 #
coedge $-1 $179 $106 $108 $185 reversed $65 $-1 #
coedge $-1 $106 $178 $177 $271 reversed $65 $-1 #
coedge $-1 $272 $109 $106 $181 forward $175 $-1 #
edge $-1 $188 -36.363889709181372 $273 -29.87316979122312 $180 $274 forward 7 unknown #
coedge $-1 $108 $107 $269 $275 reversed $42 $-1 #
coedge $-1 $276 $277 $107 $184 forward $267 $-1 #
edge $-1 $278 -8.0886120426179993 $187 1.6116167998394069 $183 $279 forward 7 unknown #
edge $-1 $280 0 $188 9.7002288424574061 $178 $281 forward 7 unknown #
coedge $-1 $109 $272 $276 $282 forward $175 $-1 #
vertex $-1 $184 $283 #
vertex $-1 $110 $284 #
straight-curve $-1 26.666029129045121 -27.549737220236032 16.090237503997759 -1 0 0 I I #
coedge $-1 $190 $190 $-1 $285 reversed $113 $-1 #
edge $-1 $286 0 $286 6.2831853071796004 $114 $287 forward 7 unknown #
vertex $-1 $117 $288 #
ellipse-curve $-1 49.145244254578557 -30.795097179215162 12.485900028723606 0 -0.74314483375859142 0.66913059716165679 1.5 0 0 1 I I #
coedge $-1 $194 $194 $-1 $289 reversed $120 $-1 #
edge $-1 $290 0 $290 6.2831853071796004 $121 $291 forward 7 unknown #
vertex $-1 $124 $292 #
ellipse-curve $-1 57.518872261601913 -30.795097179215162 12.485900028723606 0 -0.74314483375859142 0.66913059716165679 1.5 0 0 1 I I #
face $-1 $-1 $293 $26 $-1 $294 reversed single #
loop $-1 $-1 $131 $125 #
plane-surface $-1 0 0 16.090237503997759 0 0 1 1 0 0 forward_v I I I I #
coedge $-1 $295 $296 $297 $298 reversed $126 $-1 #
coedge $-1 $299 $128 $130 $208 forward $79 $-1 #
coedge $-1 $128 $299 $295 $300 forward $79 $-1 #
coedge $-1 $297 $131 $128 $205 forward $199 $-1 #
edge $-1 $211 -31.26541671049246 $301 -10.863867140537678 $204 $302 forward 7 unknown #
coedge $-1 $303 $304 $129 $207 forward $293 $-1 #
edge $-1 $305 -58.796974490941011 $210 -49.725856007459015 $206 $306 forward 7 unknown #
edge $-1 $211 57.38444736628152 $305 68.080914276388597 $130 $307 forward 7 unknown #
coedge $-1 $131 $297 $303 $308 forward $199 $-1 #
vertex $-1 $207 $309 #
vertex $-1 $132 $310 #
straight-curve $-1 -52.330058636007529 52.4944651407218 16.090237503997756 0 -1 0 I I #
coedge $-1 $213 $213 $-1 $311 reversed $135 $-1 #
edge $-1 $312 0 $312 6.2831853071796004 $136 $313 forward 7 unknown #
vertex $-1 $139 $314 #
ellipse-curve $-1 -42.129283851030138 31.206325268571472 11.554678262256765 0 0.84804810408105047 0.52991925155115449 2 0 0 1 I I #
face $-1 $-1 $229 $21 $-1 $315 reversed single #
loop $-1 $-1 $316 $140 #
plane-surface $-1 0 34.040457138194284 0 0 -1 0 0 0 -1 forward_v I I I I #
coedge $-1 $228 $227 $143 $221 reversed $229 $-1 #
edge $-1 $317 -34.040457138194284 $318 34.040457138194284 $220 $319 forward 7 unknown #
coedge $-1 $145 $144 $148 $233 forward $57 $-1 #
coedge $-1 $316 $151 $144 $224 reversed $218 $-1 #
edge $-1 $231 -63.101290932950832 $238 63.101290932950832 $223 $320 forward 7 unknown #
coedge $-1 $149 $321 $145 $226 reversed $141 $-1 #
edge $-1 $235 -63.101290932950832 $230 63.101290932950832 $225 $322 forward 7 unknown #
coedge $-1 $220 $146 $321 $323 forward $229 $-1 #
coedge $-1 $146 $220 $316 $324 reversed $229 $-1 #
loop $-1 $-1 $227 $217 #
vertex $-1 $147 $325 #
vertex $-1 $147 $326 #
straight-curve $-1 63.101290932950832 0 16.090237503997759 0 1 0 I I #
edge $-1 $238 -34.040457138194284 $235 34.040457138194284 $148 $327 forward 7 unknown #
coedge $-1 $321 $149 $154 $241 reversed $141 $-1 #
vertex $-1 $233 $328 #
straight-curve $-1 -63.101290932950832 -34.040457138194284 0 0 0 -1 I I #
coedge $-1 $151 $316 $153 $240 reversed $218 $-1 #
vertex $-1 $224 $329 #
straight-curve $-1 -63.101290932950832 34.040457138194284 0 0 0 -1 I I #
edge $-1 $156 -63.101290932950832 $317 63.101290932950832 $237 $330 forward 7 unknown #
edge $-1 $318 -63.101290932950832 $155 63.101290932950832 $234 $331 forward 7 unknown #
point $-1 -63.101290932950832 -34.040457138194284 -16.090237503997759 #
point $-1 -63.101290932950832 34.040457138194284 -16.090237503997759 #
face $-1 $-1 $260 $22 $-1 $332 forward single #
plane-surface $-1 -68.486907081422487 -16.32266498628184 0 0 -1 0 0 0 -1 forward_v I I I I #
coedge $-1 $333 $334 $263 $335 forward $159 $-1 #
coedge $-1 $256 $161 $162 $252 reversed $96 $-1 #
coedge $-1 $161 $256 $259 $336 reversed $96 $-1 #
coedge $-1 $334 $333 $161 $250 reversed $159 $-1 #
edge $-1 $337 -16.090237503997759 $338 16.090237503997759 $249 $339 forward 7 unknown #
coedge $-1 $163 $162 $333 $340 forward $61 $-1 #
edge $-1 $254 -5.3856161484716552 $338 5.3856161484716552 $247 $341 forward 7 unknown #
edge $-1 $342 -5.3856161484716552 $171 5.3856161484716552 $168 $343 forward 7 unknown #
vertex $-1 $252 $344 #
straight-curve $-1 -63.101290932950832 0 -16.090237503997759 0 -1 0 I I #
coedge $-1 $248 $247 $165 $257 reversed $96 $-1 #
edge $-1 $261 -16.090237503997759 $254 16.090237503997759 $256 $345 forward 7 unknown #
coedge $-1 $346 $166 $169 $264 forward $260 $-1 #
coedge $-1 $166 $346 $248 $336 forward $260 $-1 #
loop $-1 $-1 $166 $244 #
vertex $-1 $167 $347 #
straight-curve $-1 -63.101290932950832 0 16.090237503997759 0 1 0 I I #
coedge $-1 $169 $168 $246 $335 reversed $170 $-1 #
edge $-1 $172 -5.3856161484716552 $348 5.3856161484716552 $169 $349 forward 7 unknown #
point $-1 -63.101290932950832 -16.32266498628184 -16.090237503997759 #
point $-1 -63.101290932950832 -16.32266498628184 16.090237503997759 #
loop $-1 $-1 $183 $174 #
plane-surface $-1 63.101290932950832 0 0 -1 0 0 0 0 1 forward_v I I I I #
coedge $-1 $350 $177 $182 $275 forward $104 $-1 #
coedge $-1 $177 $350 $272 $351 reversed $104 $-1 #
edge $-1 $273 30.573548256363804 $280 37.782223206912107 $177 $352 forward 7 unknown #
coedge $-1 $186 $180 $270 $351 forward $175 $-1 #
vertex $-1 $351 $353 #
straight-curve $-1 43.562825583229653 -63.913626929417404 16.090237503997763 0 -1 0 I I #
edge $-1 $280 16.896796454184532 $278 36.435261803905711 $269 $354 forward 7 unknown #
coedge $-1 $277 $183 $186 $282 reversed $267 $-1 #
coedge $-1 $183 $276 $350 $355 forward $267 $-1 #
vertex $-1 $275 $356 #
straight-curve $-1 63.101290932950832 -28.62811933190833 14.892572805198547 0 0.66913059716165679 0.74314483375859142 I I #
vertex $-1 $275 $357 #
straight-curve $-1 43.562825583229653 -34.040457138194284 8.8815625534494558 0 0.66913059716165679 0.74314483375859142 I I #
edge $-1 $358 -34.040457138194284 $187 -27.549737220236032 $276 $359 forward 7 unknown #
point $-1 63.101290932950832 -27.549737220236032 16.090237503997759 #
point $-1 43.562825583229653 -27.549737220236032 16.090237503997759 #
edge $-1 $360 1 $360 0 $190 $-1 forward 7 unknown #
vertex $-1 $191 $361 #
ellipse-curve $-1 49.145244254578557 -26.980931891280104 9.0516102633206028 0 -0.74314483375859142 0.66913059716165679 1.5 0 0 1 I I #
point $-1 50.645244254578557 -30.795097179215162 12.485900028723607 #
edge $-1 $362 1 $362 0 $194 $-1 forward 7 unknown #
vertex $-1 $195 $363 #
ellipse-curve $-1 57.518872261601913 -26.980931891280104 9.0516102633206028 0 -0.74314483375859142 0.66913059716165679 1.5 0 0 1 I I #
point $-1 59.018872261601913 -30.795097179215162 12.485900028723607 #
loop $-1 $-1 $206 $198 #
plane-surface $-1 0 34.040457138194284 0 0 -1 0 0 0 -1 forward_v I I I I #
coedge $-1 $296 $201 $203 $300 reversed $126 $-1 #
coedge $-1 $201 $295 $364 $365 reversed $126 $-1 #
coedge $-1 $209 $204 $201 $298 forward $199 $-1 #
edge $-1 $301 -24.122271741773144 $366 -18.454008002527516 $297 $367 forward 7 unknown #
coedge $-1 $203 $202 $304 $368 reversed $79 $-1 #
edge $-1 $369 -68.080914276388597 $301 -57.38444736628152 $295 $370 forward 7 unknown #
vertex $-1 $205 $371 #
straight-curve $-1 -21.064641925515069 28.372193398948653 16.090237503997759 1 0 0 I I #
coedge $-1 $364 $206 $209 $308 reversed $293 $-1 #
coedge $-1 $206 $364 $299 $368 forward $293 $-1 #
vertex $-1 $207 $372 #
straight-curve $-1 -52.330058636007529 34.040457138194284 65.816093511456771 0 0 1 I I #
straight-curve $-1 -52.330058636007529 -2.0369300000678692 64.755009296711634 0 0.52991925155115449 -0.84804810408105047 I I #
edge $-1 $366 31.928509066052747 $210 52.330058636007529 $303 $373 forward 7 unknown #
point $-1 -52.330058636007529 34.040457138194284 16.090237503997759 #
point $-1 -52.330058636007529 28.372193398948657 16.090237503997756 #
edge $-1 $374 1 $374 0 $213 $-1 forward 7 unknown #
vertex $-1 $214 $375 #
ellipse-curve $-1 -42.129283851030138 24.615738592707608 7.4364227744489586 0 0.84804810408105047 0.52991925155115449 2 0 0 1 I I #
point $-1 -40.129283851030138 31.206325268571472 11.554678262256765 #
plane-surface $-1 63.101290932950832 0 0 -1 0 0 0 0 1 forward_v I I I I #
coedge $-1 $237 $223 $228 $324 forward $218 $-1 #
vertex $-1 $221 $376 #
vertex $-1 $323 $377 #
straight-curve $-1 63.101290932950832 0 -16.090237503997759 0 -1 0 I I #
straight-curve $-1 0 34.040457138194284 16.090237503997759 -1 0 0 I I #
coedge $-1 $225 $234 $227 $323 reversed $141 $-1 #
straight-curve $-1 0 -34.040457138194284 16.090237503997759 1 0 0 I I #
edge $-1 $230 -16.090237503997759 $318 16.090237503997759 $227 $378 forward 7 unknown #
edge $-1 $231 -16.090237503997759 $317 16.090237503997759 $228 $379 forward 7 unknown #
point $-1 63.101290932950832 -34.040457138194284 16.090237503997759 #
point $-1 63.101290932950832 34.040457138194284 16.090237503997759 #
straight-curve $-1 -63.101290932950832 0 16.090237503997759 0 -1 0 I I #
point $-1 -63.101290932950832 -34.040457138194284 16.090237503997759 #
point $-1 -63.101290932950832 34.040457138194284 16.090237503997759 #
straight-curve $-1 0 34.040457138194284 -16.090237503997759 1 0 0 I I #
straight-curve $-1 0 -34.040457138194284 -16.090237503997759 -1 0 0 I I #
plane-surface $-1 0 0 16.090237503997759 0 0 1 1 0 0 forward_v I I I I #
coedge $-1 $249 $246 $251 $340 reversed $159 $-1 #
coedge $-1 $246 $249 $346 $380 reversed $159 $-1 #
edge $-1 $348 -16.090237503997759 $342 16.090237503997759 $263 $381 forward 7 unknown #
edge $-1 $337 -5.3856161484716552 $261 5.3856161484716552 $248 $382 forward 7 unknown #
vertex $-1 $380 $383 #
vertex $-1 $340 $384 #
straight-curve $-1 -73.872523229894142 -21.410827557433425 0 0 0 -1 I I #
edge $-1 $338 -2.5440812855757926 $342 2.5440812855757926 $333 $385 forward 7 unknown #
straight-curve $-1 -68.486907081422487 -21.410827557433425 -16.090237503997759 -1 0 0 I I #
vertex $-1 $253 $386 #
straight-curve $-1 -68.486907081422487 -16.32266498628184 -16.090237503997759 1 0 0 I I #
point $-1 -63.101290932950832 -21.410827557433425 -16.090237503997759 #
straight-curve $-1 -63.101290932950832 -21.410827557433425 0 0 0 -1 I I #
coedge $-1 $259 $258 $334 $380 forward $260 $-1 #
point $-1 -63.101290932950832 -21.410827557433425 16.090237503997759 #
vertex $-1 $264 $387 #
straight-curve $-1 -68.486907081422487 -16.32266498628184 16.090237503997759 -1 0 0 I I #
coedge $-1 $270 $269 $277 $355 reversed $104 $-1 #
edge $-1 $273 43.562825583229653 $358 63.101290932950832 $270 $388 forward 7 unknown #
straight-curve $-1 43.562825583229653 -34.040457138194284 46.663785760361563 0 0 -1 I I #
point $-1 43.562825583229653 -34.040457138194284 16.090237503997759 #
straight-curve $-1 26.666029129045121 -34.040457138194284 8.8815625534494576 1 0 0 I I #
edge $-1 $358 -16.090237503997759 $278 -8.8815625534494558 $277 $389 forward 7 unknown #
point $-1 63.101290932950832 -34.040457138194284 8.8815625534494558 #
point $-1 43.562825583229653 -34.040457138194284 8.8815625534494558 #
vertex $-1 $282 $390 #
straight-curve $-1 63.101290932950832 0 16.090237503997759 0 1 0 I I #
vertex $-1 $285 $391 #
point $-1 50.645244254578557 -26.980931891280104 9.0516102633206028 #
vertex $-1 $289 $392 #
point $-1 59.018872261601913 -26.980931891280104 9.0516102633206028 #
coedge $-1 $304 $303 $296 $365 forward $293 $-1 #
edge $-1 $366 49.725856007459015 $369 58.796974490941011 $364 $393 forward 7 unknown #
vertex $-1 $308 $394 #
straight-curve $-1 -31.928509066052747 52.4944651407218 16.090237503997756 0 1 0 I I #
edge $-1 $369 10.863867140537678 $305 31.26541671049246 $304 $395 forward 7 unknown #
vertex $-1 $368 $396 #
straight-curve $-1 -31.928509066052747 -2.0369300000678692 64.755009296711634 0 -0.52991925155115449 0.84804810408105047 I I #
point $-1 -31.928509066052747 28.372193398948657 16.090237503997756 #
point $-1 -52.330058636007529 34.040457138194284 7.0191190205157596 #
straight-curve $-1 0 34.040457138194284 16.090237503997759 -1 0 0 I I #
vertex $-1 $311 $397 #
point $-1 -40.129283851030138 24.615738592707608 7.4364227744489586 #
point $-1 63.101290932950832 34.040457138194284 -16.090237503997759 #
point $-1 63.101290932950832 -34.040457138194284 -16.090237503997759 #
straight-curve $-1 63.101290932950832 -34.040457138194284 0 0 0 -1 I I #
straight-curve $-1 63.101290932950832 34.040457138194284 0 0 0 -1 I I #
edge $-1 $348 -2.5440812855757926 $337 2.5440812855757926 $334 $398 forward 7 unknown #
straight-curve $-1 -73.872523229894142 -16.32266498628184 0 0 0 -1 I I #
straight-curve $-1 -68.486907081422487 -21.410827557433425 16.090237503997759 1 0 0 I I #
point $-1 -73.872523229894142 -21.410827557433425 16.090237503997759 #
point $-1 -73.872523229894142 -21.410827557433425 -16.090237503997759 #
straight-curve $-1 -73.872523229894142 -18.866746271857632 -16.090237503997759 0 1 0 I I #
point $-1 -73.872523229894142 -16.32266498628184 -16.090237503997759 #
point $-1 -73.872523229894142 -16.32266498628184 16.090237503997759 #
straight-curve $-1 0 -34.040457138194284 16.090237503997759 1 0 0 I I #
straight-curve $-1 63.101290932950832 -34.040457138194284 0 0 0 -1 I I #
point $-1 63.101290932950832 -34.040457138194284 16.090237503997759 #
point $-1 49.145244254578557 -25.866214640642216 8.0479143675781177 #
point $-1 57.518872261601913 -25.866214640642216 8.0479143675781177 #
straight-curve $-1 -31.928509066052747 34.040457138194284 65.816093511456771 0 0 -1 I I #
point $-1 -31.928509066052747 34.040457138194284 16.090237503997759 #
straight-curve $-1 -21.064641925515069 34.040457138194284 7.0191190205157667 -1 0 0 I I #
point $-1 -31.928509066052747 34.040457138194284 7.0191190205157596 #
point $-1 -42.129283851030138 22.919642384545504 6.3765842713466494 #
straight-curve $-1 -73.872523229894142 -18.866746271857632 16.090237503997759 0 -1 0 I I #
End-of-ACIS-data 