500 0 12 0           
7 Unknown 11 ACIS 5.0 NT 24 Thu Mar 25 15:44:16 1999 
-1 9.9999999999999995e-007 1e-010 
body $-1 $12 $-1 $13 #
body $-1 $14 $-1 $15 #
body $-1 $16 $-1 $17 #
body $-1 $18 $-1 $19 #
body $-1 $20 $-1 $21 #
body $-1 $22 $-1 $23 #
body $-1 $24 $-1 $25 #
body $-1 $26 $-1 $27 #
body $-1 $28 $-1 $29 #
body $-1 $30 $-1 $31 #
body $-1 $32 $-1 $33 #
body $-1 $34 $-1 $35 #
lump $-1 $-1 $36 $0 #
transform $-1 1 0 0 0 1 0 0 0 1 47.352519302957241 24.908231534951959 8.1779759056160213 1 rotate no_reflect no_shear #
lump $-1 $-1 $37 $1 #
transform $-1 1 0 0 0 1 0 0 0 1 47.352519302957241 24.908231534951959 8.1779759056160213 1 rotate no_reflect no_shear #
lump $-1 $-1 $38 $2 #
transform $-1 1 0 0 0 1 0 0 0 1 47.352519302957241 24.908231534951959 8.1779759056160213 1 rotate no_reflect no_shear #
lump $-1 $-1 $39 $3 #
transform $-1 1 0 0 0 1 0 0 0 1 47.352519302957241 24.908231534951959 8.1779759056160213 1 rotate no_reflect no_shear #
lump $-1 $-1 $40 $4 #
transform $-1 1 0 0 0 1 0 0 0 1 47.352519302957241 24.908231534951959 8.1779759056160213 1 rotate no_reflect no_shear #
lump $-1 $-1 $41 $5 #
transform $-1 1 0 0 0 1 0 0 0 1 47.352519302957241 24.908231534951959 8.1779759056160213 1 rotate no_reflect no_shear #
lump $-1 $-1 $42 $6 #
transform $-1 1 0 0 0 1 0 0 0 1 47.352519302957241 24.908231534951959 8.1779759056160213 1 rotate no_reflect no_shear #
lump $-1 $-1 $43 $7 #
transform $-1 1 0 0 0 1 0 0 0 1 47.352519302957241 24.908231534951959 8.1779759056160213 1 rotate no_reflect no_shear #
lump $-1 $-1 $44 $8 #
transform $-1 1 0 0 0 1 0 0 0 1 47.352519302957241 24.908231534951959 8.1779759056160213 1 rotate no_reflect no_shear #
lump $-1 $-1 $45 $9 #
transform $-1 1 0 0 0 1 0 0 0 1 47.352519302957241 24.908231534951959 8.1779759056160213 1 rotate no_reflect no_shear #
lump $-1 $-1 $46 $10 #
transform $-1 1 0 0 0 1 0 0 0 1 47.352519302957241 24.908231534951959 8.1779759056160213 1 rotate no_reflect no_shear #
lump $-1 $-1 $47 $11 #
transform $-1 1 0 0 0 1 0 0 0 1 47.352519302957241 24.908231534951959 8.1779759056160213 1 rotate no_reflect no_shear #
shell $-1 $-1 $-1 $48 $-1 $12 #
shell $-1 $-1 $-1 $49 $-1 $14 #
shell $-1 $-1 $-1 $50 $-1 $16 #
shell $-1 $-1 $-1 $51 $-1 $18 #
shell $-1 $-1 $-1 $52 $-1 $20 #
shell $-1 $-1 $-1 $53 $-1 $22 #
shell $-1 $-1 $-1 $54 $-1 $24 #
shell $-1 $-1 $-1 $55 $-1 $26 #
shell $-1 $-1 $-1 $56 $-1 $28 #
shell $-1 $-1 $-1 $57 $-1 $30 #
shell $-1 $-1 $-1 $58 $-1 $32 #
shell $-1 $-1 $-1 $59 $-1 $34 #
face $-1 $60 $61 $36 $-1 $62 forward single #
face $-1 $63 $64 $37 $-1 $65 reversed single #
face $-1 $66 $67 $38 $-1 $68 reversed single #
face $-1 $69 $70 $39 $-1 $71 reversed single #
face $-1 $72 $73 $40 $-1 $74 forward single #
face $-1 $75 $76 $41 $-1 $77 forward single #
face $-1 $78 $79 $42 $-1 $80 reversed single #
face $-1 $81 $82 $43 $-1 $83 forward single #
face $-1 $84 $85 $44 $-1 $86 forward single #
face $-1 $87 $88 $45 $-1 $89 reversed single #
face $-1 $90 $91 $46 $-1 $92 forward single #
face $-1 $93 $94 $47 $-1 $95 forward single #
face $-1 $96 $97 $36 $-1 $98 reversed single #
loop $-1 $-1 $99 $48 #
plane-surface $-1 0 0 8.1779759056160213 0 0 1 1 0 0 forward_v I I I I #
face $-1 $100 $101 $37 $-1 $102 reversed single #
loop $-1 $-1 $103 $49 #
plane-surface $-1 -33.996567491725202 -22.118078465735895 0 1 0 0 0 0 -1 forward_v I I I I #
face $-1 $104 $105 $38 $-1 $106 reversed single #
loop $-1 $-1 $107 $50 #
plane-surface $-1 -32.496567491725202 19.327925396519834 0 0 1 0 0 0 1 forward_v I I I I #
face $-1 $108 $109 $39 $-1 $110 reversed single #
loop $-1 $-1 $111 $51 #
plane-surface $-1 -110.72255997271552 -15.579530860204009 75.447865875922048 0 1 0 -0.66913061440640931 0 0.74314481823134659 forward_v I I I I #
face $-1 $112 $113 $40 $-1 $114 forward single #
loop $-1 $115 $116 $52 #
cone-surface $-1 -44.983326665459671 -13.62687966765648 5.9097127628154098 0.66913061440640931 0 -0.74314481823134659 0.3715724091156733 0 0.33456530720320465 1 I I 0 1 0.5 forward I I I I #
face $-1 $117 $118 $41 $-1 $119 forward single #
loop $-1 $120 $121 $53 #
cone-surface $-1 -44.983326665459671 -10.697902878835185 5.9097127628154098 0.66913061440640931 0 -0.74314481823134659 0.3715724091156733 0 0.33456530720320465 1 I I 0 1 0.5 forward I I I I #
face $-1 $122 $123 $42 $-1 $124 reversed single #
loop $-1 $-1 $125 $54 #
plane-surface $-1 -110.72255997271552 8.7452516862876593 75.447865875922048 0 1 0 -0.66913061440640931 0 0.74314481823134659 forward_v I I I I #
face $-1 $126 $127 $43 $-1 $128 forward single #
loop $-1 $129 $130 $55 #
cone-surface $-1 -44.983326665459671 10.697902878835187 5.9097127628154098 0.66913061440640931 0 -0.74314481823134659 0.3715724091156733 0 0.33456530720320465 1 I I 0 1 0.5 forward I I I I #
face $-1 $131 $132 $44 $-1 $133 forward single #
loop $-1 $134 $135 $56 #
cone-surface $-1 -44.983326665459671 13.626879667656482 5.9097127628154098 0.66913061440640931 0 -0.74314481823134659 0.3715724091156733 0 0.33456530720320465 1 I I 0 1 0.5 forward I I I I #
face $-1 $136 $137 $45 $-1 $138 reversed single #
loop $-1 $-1 $139 $57 #
plane-surface $-1 38.009816452397921 19.327925396519834 134.80203201760955 0 -1 0 -0.6560590369687036 0 -0.75470957328743171 forward_v I I I I #
face $-1 $140 $141 $46 $-1 $142 forward single #
loop $-1 $143 $144 $58 #
cone-surface $-1 42.937223195203934 13.013052132980498 4.2277004308516126 -0.6560590369687036 0 -0.75470957328743171 0.75470957328743171 0 -0.6560590369687036 1 I I 0 1 1 forward I I I I #
face $-1 $145 $146 $47 $-1 $147 forward single #
loop $-1 $148 $149 $59 #
cone-surface $-1 42.937223195203934 16.801976091104095 4.2277004308516126 -0.6560590369687036 0 -0.75470957328743171 0.75470957328743171 0 -0.6560590369687036 1 I I 0 1 1 forward I I I I #
face $-1 $150 $151 $36 $-1 $152 reversed single #
loop $-1 $-1 $153 $60 #
plane-surface $-1 0 0 -8.1779759056160213 0 0 1 1 0 0 forward_v I I I I #
coedge $-1 $154 $155 $156 $157 forward $61 $-1 #
face $-1 $158 $159 $37 $-1 $160 reversed single #
loop $-1 $-1 $161 $63 #
plane-surface $-1 -32.496567491725202 -19.327925396519831 0 0 -1 0 0 0 -1 forward_v I I I I #
coedge $-1 $162 $163 $164 $165 forward $64 $-1 #
face $-1 $166 $167 $38 $-1 $168 reversed single #
loop $-1 $-1 $169 $66 #
plane-surface $-1 -33.996567491725202 22.118078465735898 0 1 0 0 0 0 -1 forward_v I I I I #
coedge $-1 $170 $171 $172 $173 forward $67 $-1 #
face $-1 $174 $175 $39 $-1 $176 reversed single #
loop $-1 $-1 $177 $69 #
plane-surface $-1 -47.352519302957248 -12.162391273245831 5.0683071755370719 -0.66913061440640931 0 0.74314481823134659 0.74314481823134659 0 0.66913061440640931 forward_v I I I I #
coedge $-1 $178 $179 $180 $181 reversed $70 $-1 #
face $-1 $-1 $182 $40 $-1 $183 forward single #
loop $-1 $184 $185 $72 #
cone-surface $-1 -44.173669841054249 -13.62687966765648 5.0104977804964435 0.66913061440640931 0 -0.74314481823134659 0.18578620455783665 0 0.16728265360160233 1 I I -0.70710678118654746 0.70710678118654746 0.25 forward I I I I #
loop $-1 $-1 $186 $52 #
coedge $-1 $116 $116 $187 $188 reversed $73 $-1 #
face $-1 $-1 $189 $41 $-1 $190 forward single #
loop $-1 $191 $192 $75 #
cone-surface $-1 -44.173669841054249 -10.697902878835185 5.0104977804964435 0.66913061440640931 0 -0.74314481823134659 0.18578620455783665 0 0.16728265360160233 1 I I -0.70710678118654746 0.70710678118654746 0.25 forward I I I I #
loop $-1 $-1 $193 $53 #
coedge $-1 $121 $121 $194 $195 reversed $76 $-1 #
face $-1 $196 $197 $42 $-1 $198 reversed single #
loop $-1 $-1 $199 $78 #
plane-surface $-1 -47.352519302957248 12.162391273245838 5.0683071755370719 -0.66913061440640931 0 0.74314481823134659 0.74314481823134659 0 0.66913061440640931 forward_v I I I I #
coedge $-1 $200 $201 $202 $203 reversed $79 $-1 #
face $-1 $-1 $204 $43 $-1 $205 forward single #
loop $-1 $206 $207 $81 #
cone-surface $-1 -44.173669841054249 10.697902878835187 5.0104977804964435 0.66913061440640931 0 -0.74314481823134659 0.18578620455783665 0 0.16728265360160233 1 I I -0.70710678118654746 0.70710678118654746 0.25 forward I I I I #
loop $-1 $-1 $208 $55 #
coedge $-1 $130 $130 $209 $210 reversed $82 $-1 #
face $-1 $-1 $211 $44 $-1 $212 forward single #
loop $-1 $213 $214 $84 #
cone-surface $-1 -44.173669841054249 13.626879667656482 5.0104977804964435 0.66913061440640931 0 -0.74314481823134659 0.18578620455783665 0 0.16728265360160233 1 I I -0.70710678118654746 0.70710678118654746 0.25 forward I I I I #
loop $-1 $-1 $215 $56 #
coedge $-1 $135 $135 $216 $217 reversed $85 $-1 #
face $-1 $218 $219 $45 $-1 $220 reversed single #
loop $-1 $-1 $221 $87 #
plane-surface $-1 -24.122279971482229 14.9075141120423 63.327232743170086 0.6560590369687036 0 0.75470957328743171 0.75470957328743171 0 -0.6560590369687036 forward_v I I I I #
coedge $-1 $222 $223 $224 $225 reversed $88 $-1 #
face $-1 $-1 $226 $46 $-1 $227 forward single #
loop $-1 $228 $229 $90 #
cone-surface $-1 42.210316509615772 13.013052132980498 3.3914899626065225 -0.6560590369687036 0 -0.75470957328743171 0.37735478664371586 0 -0.3280295184843518 1 I I -0.70710678118654779 0.70710678118654713 0.5 forward I I I I #
loop $-1 $-1 $230 $58 #
coedge $-1 $144 $144 $231 $232 reversed $91 $-1 #
face $-1 $-1 $233 $47 $-1 $234 forward single #
loop $-1 $235 $236 $93 #
cone-surface $-1 42.210316509615772 16.801976091104095 3.3914899626065225 -0.6560590369687036 0 -0.75470957328743171 0.37735478664371586 0 -0.3280295184843518 1 I I -0.70710678118654779 0.70710678118654713 0.5 forward I I I I #
loop $-1 $-1 $237 $59 #
coedge $-1 $149 $149 $238 $239 reversed $94 $-1 #
face $-1 $240 $241 $36 $-1 $242 reversed single #
loop $-1 $-1 $243 $96 #
plane-surface $-1 0 -24.908231534951959 0 0 1 0 0 0 1 forward_v I I I I #
coedge $-1 $244 $245 $246 $247 forward $97 $-1 #
coedge $-1 $248 $99 $249 $250 forward $61 $-1 #
coedge $-1 $99 $248 $251 $252 forward $61 $-1 #
coedge $-1 $253 $254 $99 $157 reversed $255 $-1 #
edge $-1 $256 -24.908231534951959 $257 24.908231534951959 $156 $258 forward 7 unknown #
face $-1 $259 $260 $37 $-1 $261 forward single #
loop $-1 $-1 $262 $100 #
plane-surface $-1 -30.996567491725202 -22.118078465735895 0 -1 0 0 0 0 1 forward_v I I I I #
coedge $-1 $263 $264 $265 $266 forward $101 $-1 #
coedge $-1 $267 $103 $268 $269 reversed $64 $-1 #
coedge $-1 $103 $267 $270 $271 reversed $64 $-1 #
coedge $-1 $264 $263 $103 $165 reversed $101 $-1 #
edge $-1 $272 -8.1779759056160213 $273 8.1779759056160213 $164 $274 forward 7 unknown #
face $-1 $275 $276 $38 $-1 $277 reversed single #
loop $-1 $-1 $278 $104 #
plane-surface $-1 -30.996567491725202 22.118078465735898 0 -1 0 0 0 0 1 forward_v I I I I #
coedge $-1 $279 $280 $281 $282 reversed $105 $-1 #
coedge $-1 $283 $107 $284 $285 reversed $67 $-1 #
coedge $-1 $107 $283 $286 $287 reversed $67 $-1 #
coedge $-1 $280 $279 $107 $173 reversed $105 $-1 #
edge $-1 $288 -8.1779759056160213 $289 8.1779759056160213 $172 $290 forward 7 unknown #
face $-1 $291 $292 $39 $-1 $293 reversed single #
loop $-1 $-1 $294 $108 #
plane-surface $-1 -110.72255997271552 -8.7452516862876521 75.447865875922048 0 -1 0 0.66913061440640931 0 -0.74314481823134659 forward_v I I I I #
coedge $-1 $295 $296 $297 $298 reversed $109 $-1 #
coedge $-1 $179 $111 $299 $300 reversed $70 $-1 #
coedge $-1 $111 $178 $295 $301 reversed $70 $-1 #
coedge $-1 $297 $302 $111 $181 forward $303 $-1 #
edge $-1 $304 8.0087606834005172 $305 11.462397616787975 $180 $306 forward 7 unknown #
loop $-1 $-1 $187 $112 #
plane-surface $-1 -47.352519302957248 -12.162391273245831 5.0683071755370719 -0.66913061440640931 0 0.74314481823134659 0.74314481823134659 0 0.66913061440640931 forward_v I I I I #
loop $-1 $-1 $307 $72 #
coedge $-1 $185 $185 $186 $308 reversed $113 $-1 #
coedge $-1 $186 $186 $185 $308 forward $115 $-1 #
coedge $-1 $187 $187 $116 $188 forward $182 $-1 #
edge $-1 $309 0 $309 6.2831853071796004 $187 $310 forward 7 unknown #
loop $-1 $-1 $194 $117 #
plane-surface $-1 -47.352519302957248 -12.162391273245831 5.0683071755370719 -0.66913061440640931 0 0.74314481823134659 0.74314481823134659 0 0.66913061440640931 forward_v I I I I #
loop $-1 $-1 $311 $75 #
coedge $-1 $192 $192 $193 $312 reversed $118 $-1 #
coedge $-1 $193 $193 $192 $312 forward $120 $-1 #
coedge $-1 $194 $194 $121 $195 forward $189 $-1 #
edge $-1 $313 0 $313 6.2831853071796004 $194 $314 forward 7 unknown #
face $-1 $315 $316 $42 $-1 $317 forward single #
loop $-1 $-1 $318 $122 #
plane-surface $-1 -110.72255997271552 15.579530860204017 75.447865875922048 0 -1 0 0.66913061440640931 0 -0.74314481823134659 forward_v I I I I #
coedge $-1 $319 $320 $321 $322 reversed $123 $-1 #
coedge $-1 $201 $125 $323 $324 reversed $79 $-1 #
coedge $-1 $125 $200 $319 $325 reversed $79 $-1 #
coedge $-1 $321 $326 $125 $203 forward $316 $-1 #
edge $-1 $327 8.0087606834005172 $328 11.462397616787975 $202 $329 forward 7 unknown #
loop $-1 $-1 $209 $126 #
plane-surface $-1 -47.352519302957248 12.162391273245838 5.0683071755370719 -0.66913061440640931 0 0.74314481823134659 0.74314481823134659 0 0.66913061440640931 forward_v I I I I #
loop $-1 $-1 $330 $81 #
coedge $-1 $207 $207 $208 $331 reversed $127 $-1 #
coedge $-1 $208 $208 $207 $331 forward $129 $-1 #
coedge $-1 $209 $209 $130 $210 forward $204 $-1 #
edge $-1 $332 0 $332 6.2831853071796004 $209 $333 forward 7 unknown #
loop $-1 $-1 $216 $131 #
plane-surface $-1 -47.352519302957248 12.162391273245838 5.0683071755370719 -0.66913061440640931 0 0.74314481823134659 0.74314481823134659 0 0.66913061440640931 forward_v I I I I #
loop $-1 $-1 $334 $84 #
coedge $-1 $214 $214 $215 $335 reversed $132 $-1 #
coedge $-1 $215 $215 $214 $335 forward $134 $-1 #
coedge $-1 $216 $216 $135 $217 forward $211 $-1 #
edge $-1 $336 0 $336 6.2831853071796004 $216 $337 forward 7 unknown #
face $-1 $338 $339 $45 $-1 $340 forward single #
loop $-1 $-1 $341 $136 #
plane-surface $-1 38.009816452397921 10.487102827564765 134.80203201760955 0 1 0 0.6560590369687036 0 0.75470957328743171 forward_v I I I I #
coedge $-1 $342 $343 $344 $345 reversed $137 $-1 #
coedge $-1 $223 $139 $346 $347 reversed $88 $-1 #
coedge $-1 $139 $222 $342 $348 reversed $88 $-1 #
coedge $-1 $344 $349 $139 $225 forward $339 $-1 #
edge $-1 $350 -28.34761107675828 $351 -20.314773195459264 $224 $352 forward 7 unknown #
loop $-1 $-1 $231 $140 #
plane-surface $-1 -24.122279971482229 14.9075141120423 63.327232743170086 0.6560590369687036 0 0.75470957328743171 0.75470957328743171 0 -0.6560590369687036 forward_v I I I I #
loop $-1 $-1 $353 $90 #
coedge $-1 $229 $229 $230 $354 reversed $141 $-1 #
coedge $-1 $230 $230 $229 $354 forward $143 $-1 #
coedge $-1 $231 $231 $144 $232 forward $226 $-1 #
edge $-1 $355 0 $355 6.2831853071796004 $231 $356 forward 7 unknown #
loop $-1 $-1 $238 $145 #
plane-surface $-1 -24.122279971482229 14.9075141120423 63.327232743170086 0.6560590369687036 0 0.75470957328743171 0.75470957328743171 0 -0.6560590369687036 forward_v I I I I #
loop $-1 $-1 $357 $93 #
coedge $-1 $236 $236 $237 $358 reversed $146 $-1 #
coedge $-1 $237 $237 $236 $358 forward $148 $-1 #
coedge $-1 $238 $238 $149 $239 forward $233 $-1 #
edge $-1 $359 0 $359 6.2831853071796004 $238 $360 forward 7 unknown #
face $-1 $361 $362 $36 $-1 $363 reversed single #
loop $-1 $-1 $364 $150 #
plane-surface $-1 -47.352519302957241 0 0 1 0 0 0 0 -1 forward_v I I I I #
coedge $-1 $365 $251 $366 $367 forward $151 $-1 #
coedge $-1 $368 $153 $365 $369 forward $97 $-1 #
coedge $-1 $153 $368 $370 $371 forward $97 $-1 #
coedge $-1 $254 $253 $153 $247 reversed $255 $-1 #
edge $-1 $372 -24.908231534951959 $373 24.908231534951959 $246 $374 forward 7 unknown #
coedge $-1 $155 $154 $375 $376 forward $61 $-1 #
coedge $-1 $377 $378 $154 $250 reversed $362 $-1 #
edge $-1 $257 -47.352519302957241 $379 47.352519302957241 $249 $380 forward 7 unknown #
coedge $-1 $243 $381 $155 $252 reversed $151 $-1 #
edge $-1 $382 -47.352519302957241 $256 47.352519302957241 $251 $383 forward 7 unknown #
coedge $-1 $246 $156 $381 $384 forward $255 $-1 #
coedge $-1 $156 $246 $377 $385 reversed $255 $-1 #
loop $-1 $-1 $253 $361 #
vertex $-1 $157 $386 #
vertex $-1 $157 $387 #
straight-curve $-1 47.352519302957241 0 8.1779759056160213 0 1 0 I I #
face $-1 $388 $389 $37 $-1 $390 reversed single #
loop $-1 $-1 $391 $158 #
plane-surface $-1 0 0 8.1779759056160213 0 0 1 1 0 0 forward_v I I I I #
coedge $-1 $392 $393 $394 $395 reversed $159 $-1 #
coedge $-1 $164 $161 $396 $397 reversed $101 $-1 #
coedge $-1 $161 $164 $398 $399 reversed $101 $-1 #
coedge $-1 $393 $392 $161 $266 reversed $159 $-1 #
edge $-1 $400 -8.1779759056160213 $401 8.1779759056160213 $265 $402 forward 7 unknown #
coedge $-1 $163 $162 $403 $404 reversed $64 $-1 #
coedge $-1 $396 $405 $162 $269 forward $389 $-1 #
edge $-1 $406 -13.849192302084012 $273 -8.2688861636518833 $268 $407 forward 7 unknown #
coedge $-1 $408 $398 $163 $271 forward $260 $-1 #
edge $-1 $272 8.2688861636518833 $409 13.849192302084012 $270 $410 forward 7 unknown #
vertex $-1 $271 $411 #
vertex $-1 $269 $412 #
straight-curve $-1 -33.996567491725202 -19.327925396519831 0 0 0 -1 I I #
face $-1 $413 $414 $38 $-1 $415 forward single #
loop $-1 $-1 $416 $166 #
plane-surface $-1 0 0 -8.1779759056160213 0 0 1 1 0 0 forward_v I I I I #
coedge $-1 $417 $418 $283 $419 forward $167 $-1 #
coedge $-1 $172 $169 $420 $421 reversed $105 $-1 #
coedge $-1 $169 $172 $422 $423 reversed $105 $-1 #
coedge $-1 $424 $425 $169 $282 forward $426 $-1 #
edge $-1 $427 -8.1779759056160213 $428 8.1779759056160213 $281 $429 forward 7 unknown #
coedge $-1 $171 $170 $278 $419 reversed $67 $-1 #
coedge $-1 $420 $416 $170 $285 forward $276 $-1 #
edge $-1 $430 14.748283745862601 $289 17.748283745862601 $284 $431 forward 7 unknown #
coedge $-1 $432 $422 $171 $287 forward $414 $-1 #
edge $-1 $288 -17.748283745862601 $433 -14.748283745862601 $286 $434 forward 7 unknown #
vertex $-1 $287 $435 #
vertex $-1 $285 $436 #
straight-curve $-1 -33.996567491725202 19.327925396519834 0 0 0 -1 I I #
face $-1 $-1 $303 $39 $-1 $437 forward single #
loop $-1 $-1 $438 $174 #
plane-surface $-1 -47.352519302957241 0 0 1 0 0 0 0 -1 forward_v I I I I #
coedge $-1 $439 $440 $441 $442 reversed $175 $-1 #
coedge $-1 $443 $177 $179 $301 forward $109 $-1 #
coedge $-1 $177 $443 $439 $444 forward $109 $-1 #
coedge $-1 $441 $180 $177 $298 forward $303 $-1 #
edge $-1 $305 -9.4983352235810941 $445 -2.6640560496647367 $297 $446 forward 7 unknown #
coedge $-1 $447 $448 $178 $300 forward $292 $-1 #
edge $-1 $449 -32.655625762423945 $304 -29.545957032345001 $299 $450 forward 7 unknown #
edge $-1 $305 -4.6473269390574181 $449 -9.4405131238556439e-015 $179 $451 forward 7 unknown #
coedge $-1 $180 $441 $447 $452 forward $303 $-1 #
loop $-1 $-1 $441 $291 #
vertex $-1 $300 $453 #
vertex $-1 $181 $454 #
straight-curve $-1 -55.361279986357758 -15.579530860204009 8.1779759056160231 1 0 0 I I #
coedge $-1 $307 $307 $-1 $455 reversed $184 $-1 #
edge $-1 $456 0 $456 6.2831853071796004 $185 $457 forward 7 unknown #
vertex $-1 $188 $458 #
ellipse-curve $-1 -45.625700836263505 -13.62687966765648 6.6231415405765537 -0.66913061440640931 0 0.74314481823134659 0.3715724091156733 0 0.33456530720320465 1 I I #
coedge $-1 $311 $311 $-1 $459 reversed $191 $-1 #
edge $-1 $460 0 $460 6.2831853071796004 $192 $461 forward 7 unknown #
vertex $-1 $195 $462 #
ellipse-curve $-1 -45.625700836263505 -10.697902878835185 6.6231415405765537 -0.66913061440640931 0 0.74314481823134659 0.3715724091156733 0 0.33456530720320465 1 I I #
face $-1 $-1 $463 $42 $-1 $464 reversed single #
loop $-1 $-1 $202 $196 #
plane-surface $-1 0 0 8.1779759056160213 0 0 1 1 0 0 forward_v I I I I #
coedge $-1 $465 $466 $467 $468 reversed $197 $-1 #
coedge $-1 $469 $199 $201 $325 forward $123 $-1 #
coedge $-1 $199 $469 $465 $470 forward $123 $-1 #
coedge $-1 $467 $202 $199 $322 forward $316 $-1 #
edge $-1 $328 2.6640560496647403 $471 9.4983352235810976 $321 $472 forward 7 unknown #
coedge $-1 $473 $474 $200 $324 forward $463 $-1 #
edge $-1 $475 -32.655625762423945 $327 -29.545957032345001 $323 $476 forward 7 unknown #
edge $-1 $328 -4.6473269390574181 $475 -9.4405131238556439e-015 $201 $477 forward 7 unknown #
coedge $-1 $202 $467 $473 $478 forward $316 $-1 #
vertex $-1 $324 $479 #
vertex $-1 $203 $480 #
straight-curve $-1 -55.361279986357758 8.7452516862876593 8.1779759056160231 1 0 0 I I #
coedge $-1 $330 $330 $-1 $481 reversed $206 $-1 #
edge $-1 $482 0 $482 6.2831853071796004 $207 $483 forward 7 unknown #
vertex $-1 $210 $484 #
ellipse-curve $-1 -45.625700836263505 10.697902878835187 6.6231415405765537 -0.66913061440640931 0 0.74314481823134659 0.3715724091156733 0 0.33456530720320465 1 I I #
coedge $-1 $334 $334 $-1 $485 reversed $213 $-1 #
edge $-1 $486 0 $486 6.2831853071796004 $214 $487 forward 7 unknown #
vertex $-1 $217 $488 #
ellipse-curve $-1 -45.625700836263505 13.626879667656482 6.6231415405765537 -0.66913061440640931 0 0.74314481823134659 0.3715724091156733 0 0.33456530720320465 1 I I #
face $-1 $-1 $489 $45 $-1 $490 reversed single #
loop $-1 $-1 $224 $218 #
plane-surface $-1 0 0 8.1779759056160213 0 0 1 1 0 0 forward_v I I I I #
coedge $-1 $491 $492 $493 $494 reversed $219 $-1 #
coedge $-1 $495 $221 $223 $348 forward $137 $-1 #
coedge $-1 $221 $495 $491 $496 forward $137 $-1 #
coedge $-1 $493 $224 $221 $345 forward $339 $-1 #
edge $-1 $351 -11.874168340498684 $497 -3.0333457715436154 $344 $498 forward 7 unknown #
coedge $-1 $499 $500 $222 $347 forward $489 $-1 #
edge $-1 $501 -66.205879689514845 $350 -59.223040103188751 $346 $502 forward 7 unknown #
edge $-1 $351 84.061423941920168 $501 94.705038605914496 $223 $503 forward 7 unknown #
coedge $-1 $224 $493 $499 $504 forward $339 $-1 #
vertex $-1 $225 $505 #
vertex $-1 $225 $506 #
straight-curve $-1 19.00490822619896 19.327925396519834 8.1779759056160231 -1 0 0 I I #
coedge $-1 $353 $353 $-1 $507 reversed $228 $-1 #
edge $-1 $508 0 $508 6.2831853071796004 $229 $509 forward 7 unknown #
vertex $-1 $232 $510 #
ellipse-curve $-1 43.336100362307732 13.013052132980498 4.6865561124529735 0.6560590369687036 0 0.75470957328743171 0.75470957328743171 0 -0.6560590369687036 1 I I #
coedge $-1 $357 $357 $-1 $511 reversed $235 $-1 #
edge $-1 $512 0 $512 6.2831853071796004 $236 $513 forward 7 unknown #
vertex $-1 $239 $514 #
ellipse-curve $-1 43.336100362307732 16.801976091104095 4.6865561124529735 0.6560590369687036 0 0.75470957328743171 0.75470957328743171 0 -0.6560590369687036 1 I I #
face $-1 $-1 $255 $36 $-1 $515 reversed single #
loop $-1 $-1 $377 $240 #
plane-surface $-1 0 24.908231534951959 0 0 -1 0 0 0 -1 forward_v I I I I #
coedge $-1 $516 $375 $378 $517 forward $241 $-1 #
coedge $-1 $381 $243 $244 $369 reversed $151 $-1 #
coedge $-1 $375 $516 $243 $367 reversed $241 $-1 #
edge $-1 $382 -8.1779759056160213 $518 8.1779759056160213 $366 $519 forward 7 unknown #
coedge $-1 $245 $244 $516 $520 forward $97 $-1 #
edge $-1 $373 -47.352519302957241 $518 47.352519302957241 $365 $521 forward 7 unknown #
coedge $-1 $378 $377 $245 $371 reversed $362 $-1 #
edge $-1 $522 -47.352519302957241 $372 47.352519302957241 $370 $523 forward 7 unknown #
vertex $-1 $247 $524 #
vertex $-1 $384 $525 #
straight-curve $-1 47.352519302957241 0 -8.1779759056160213 0 -1 0 I I #
coedge $-1 $364 $366 $248 $376 reversed $241 $-1 #
edge $-1 $379 -24.908231534951959 $382 24.908231534951959 $375 $526 forward 7 unknown #
coedge $-1 $370 $249 $254 $385 forward $362 $-1 #
coedge $-1 $249 $370 $364 $517 reversed $362 $-1 #
vertex $-1 $250 $527 #
straight-curve $-1 0 24.908231534951959 8.1779759056160213 -1 0 0 I I #
coedge $-1 $251 $365 $253 $384 reversed $151 $-1 #
vertex $-1 $376 $528 #
straight-curve $-1 0 -24.908231534951959 8.1779759056160213 1 0 0 I I #
edge $-1 $256 -8.1779759056160213 $373 8.1779759056160213 $253 $529 forward 7 unknown #
edge $-1 $257 -8.1779759056160213 $372 8.1779759056160213 $254 $530 forward 7 unknown #
point $-1 47.352519302957241 -24.908231534951959 8.1779759056160213 #
point $-1 47.352519302957241 24.908231534951959 8.1779759056160213 #
face $-1 $-1 $531 $37 $-1 $532 reversed single #
loop $-1 $-1 $533 $259 #
plane-surface $-1 0 0 -8.1779759056160213 0 0 1 1 0 0 forward_v I I I I #
coedge $-1 $398 $408 $393 $534 forward $260 $-1 #
coedge $-1 $265 $262 $533 $535 reversed $159 $-1 #
coedge $-1 $262 $265 $391 $534 reversed $159 $-1 #
coedge $-1 $536 $537 $262 $395 forward $531 $-1 #
edge $-1 $538 -8.1779759056160213 $539 8.1779759056160213 $394 $540 forward 7 unknown #
coedge $-1 $533 $268 $263 $397 forward $389 $-1 #
edge $-1 $273 -17.748283745862601 $401 -14.748283745862601 $396 $541 forward 7 unknown #
coedge $-1 $270 $391 $264 $399 forward $260 $-1 #
edge $-1 $400 14.748283745862601 $272 17.748283745862601 $398 $542 forward 7 unknown #
vertex $-1 $399 $543 #
vertex $-1 $397 $544 #
straight-curve $-1 -30.996567491725202 -19.327925396519831 0 0 0 -1 I I #
coedge $-1 $537 $536 $267 $404 forward $531 $-1 #
edge $-1 $409 -8.1779759056160213 $406 8.1779759056160213 $403 $545 forward 7 unknown #
coedge $-1 $268 $533 $537 $546 forward $389 $-1 #
vertex $-1 $269 $547 #
straight-curve $-1 -33.996567491725202 -11.059039232867947 -8.1779759056160213 0 1 0 I I #
coedge $-1 $391 $270 $536 $548 forward $260 $-1 #
vertex $-1 $548 $549 #
straight-curve $-1 -33.996567491725202 -11.059039232867947 8.1779759056160213 0 -1 0 I I #
point $-1 -33.996567491725202 -19.327925396519831 8.1779759056160213 #
point $-1 -33.996567491725202 -19.327925396519831 -8.1779759056160213 #
face $-1 $-1 $426 $38 $-1 $550 reversed single #
loop $-1 $-1 $432 $275 #
plane-surface $-1 0 0 8.1779759056160213 0 0 1 1 0 0 forward_v I I I I #
coedge $-1 $284 $551 $417 $552 forward $276 $-1 #
coedge $-1 $553 $278 $416 $552 reversed $167 $-1 #
coedge $-1 $278 $553 $432 $554 reversed $167 $-1 #
edge $-1 $433 -8.1779759056160213 $430 8.1779759056160213 $278 $555 forward 7 unknown #
coedge $-1 $551 $284 $279 $421 forward $276 $-1 #
edge $-1 $289 8.2688861636518851 $427 13.849192302084013 $420 $556 forward 7 unknown #
coedge $-1 $286 $557 $280 $423 forward $414 $-1 #
edge $-1 $428 -13.849192302084013 $288 -8.2688861636518851 $422 $558 forward 7 unknown #
coedge $-1 $559 $281 $557 $560 reversed $426 $-1 #
coedge $-1 $281 $559 $551 $561 reversed $426 $-1 #
loop $-1 $-1 $559 $413 #
vertex $-1 $561 $562 #
vertex $-1 $282 $563 #
straight-curve $-1 -33.996567491725202 24.908231534951959 0 0 0 1 I I #
vertex $-1 $285 $564 #
straight-curve $-1 -16.248283745862601 19.327925396519834 -8.1779759056160213 -1 0 0 I I #
coedge $-1 $557 $286 $418 $554 forward $414 $-1 #
vertex $-1 $287 $565 #
straight-curve $-1 -16.248283745862601 19.327925396519834 8.1779759056160213 1 0 0 I I #
point $-1 -33.996567491725202 19.327925396519834 8.1779759056160213 #
point $-1 -33.996567491725202 19.327925396519834 -8.1779759056160213 #
plane-surface $-1 0 0 8.1779759056160213 0 0 1 1 0 0 forward_v I I I I #
coedge $-1 $448 $447 $440 $566 forward $292 $-1 #
coedge $-1 $440 $294 $296 $444 reversed $175 $-1 #
coedge $-1 $294 $439 $438 $566 reversed $175 $-1 #
coedge $-1 $302 $297 $294 $442 forward $303 $-1 #
edge $-1 $445 -11.462397616787975 $567 -8.0087606834005172 $441 $568 forward 7 unknown #
coedge $-1 $296 $295 $448 $569 reversed $109 $-1 #
edge $-1 $570 9.4405131238556439e-015 $445 4.6473269390574181 $439 $571 forward 7 unknown #
vertex $-1 $298 $572 #
straight-curve $-1 -43.89888236956979 -6.0811956366229154 8.1779759056160213 0 1 0 I I #
coedge $-1 $438 $299 $302 $452 reversed $292 $-1 #
coedge $-1 $299 $438 $443 $569 forward $292 $-1 #
vertex $-1 $300 $573 #
straight-curve $-1 -47.352519302957241 -15.579530860204009 37.723932937961024 0 0 1 I I #
straight-curve $-1 -47.352519302957248 -15.579530860204009 5.0683071755370719 -0.74314481823134659 0 -0.66913061440640931 I I #
edge $-1 $567 8.7452516862876521 $304 15.579530860204009 $447 $574 forward 7 unknown #
point $-1 -47.352519302957241 -15.579530860204009 8.1779759056160213 #
point $-1 -43.898882369569783 -15.579530860204009 8.1779759056160213 #
edge $-1 $575 1 $575 0 $307 $-1 forward 7 unknown #
vertex $-1 $308 $576 #
ellipse-curve $-1 -44.340952494655852 -13.62687966765648 5.1962839850542801 -0.66913061440640931 0 0.74314481823134659 0.3715724091156733 0 0.33456530720320465 1 I I #
point $-1 -45.254128427147819 -13.62687966765648 6.9577068477797432 #
edge $-1 $577 1 $577 0 $311 $-1 forward 7 unknown #
vertex $-1 $312 $578 #
ellipse-curve $-1 -44.340952494655852 -10.697902878835185 5.1962839850542801 -0.66913061440640931 0 0.74314481823134659 0.3715724091156733 0 0.33456530720320465 1 I I #
point $-1 -45.254128427147819 -10.697902878835185 6.9577068477797432 #
loop $-1 $-1 $323 $315 #
plane-surface $-1 -47.352519302957241 0 0 1 0 0 0 0 -1 forward_v I I I I #
coedge $-1 $466 $318 $320 $470 reversed $197 $-1 #
coedge $-1 $318 $465 $579 $580 reversed $197 $-1 #
coedge $-1 $326 $321 $318 $468 forward $316 $-1 #
edge $-1 $471 -11.462397616787975 $581 -8.0087606834005172 $467 $582 forward 7 unknown #
coedge $-1 $320 $319 $474 $583 reversed $123 $-1 #
edge $-1 $584 9.4405131238556439e-015 $471 4.6473269390574181 $465 $585 forward 7 unknown #
vertex $-1 $322 $586 #
straight-curve $-1 -43.89888236956979 6.081195636622919 8.1779759056160213 0 1 0 I I #
coedge $-1 $579 $323 $326 $478 reversed $463 $-1 #
coedge $-1 $323 $579 $469 $583 forward $463 $-1 #
vertex $-1 $324 $587 #
straight-curve $-1 -47.352519302957241 8.7452516862876593 37.723932937961024 0 0 1 I I #
straight-curve $-1 -47.352519302957248 8.7452516862876593 5.0683071755370719 -0.74314481823134659 0 -0.66913061440640931 I I #
edge $-1 $581 -15.579530860204017 $327 -8.7452516862876593 $473 $588 forward 7 unknown #
point $-1 -47.352519302957241 8.7452516862876593 8.1779759056160213 #
point $-1 -43.898882369569783 8.7452516862876593 8.1779759056160213 #
edge $-1 $589 1 $589 0 $330 $-1 forward 7 unknown #
vertex $-1 $331 $590 #
ellipse-curve $-1 -44.340952494655852 10.697902878835187 5.1962839850542801 -0.66913061440640931 0 0.74314481823134659 0.3715724091156733 0 0.33456530720320465 1 I I #
point $-1 -45.254128427147819 10.697902878835187 6.9577068477797432 #
edge $-1 $591 1 $591 0 $334 $-1 forward 7 unknown #
vertex $-1 $335 $592 #
ellipse-curve $-1 -44.340952494655852 13.626879667656482 5.1962839850542801 -0.66913061440640931 0 0.74314481823134659 0.3715724091156733 0 0.33456530720320465 1 I I #
point $-1 -45.254128427147819 13.626879667656482 6.9577068477797432 #
loop $-1 $-1 $346 $338 #
plane-surface $-1 47.352519302957241 0 0 -1 0 0 0 0 1 forward_v I I I I #
coedge $-1 $492 $341 $343 $496 reversed $219 $-1 #
coedge $-1 $341 $491 $593 $594 reversed $219 $-1 #
coedge $-1 $349 $344 $341 $494 forward $339 $-1 #
edge $-1 $497 20.314773195459264 $595 28.34761107675828 $493 $596 forward 7 unknown #
coedge $-1 $343 $342 $500 $597 reversed $137 $-1 #
edge $-1 $598 -94.705038605914496 $497 -84.061423941920168 $491 $599 forward 7 unknown #
vertex $-1 $345 $600 #
straight-curve $-1 39.319681421658224 7.4537570560211499 8.1779759056160302 0 -1 0 I I #
coedge $-1 $593 $346 $349 $504 reversed $489 $-1 #
coedge $-1 $346 $593 $495 $597 forward $489 $-1 #
vertex $-1 $347 $601 #
straight-curve $-1 47.352519302957241 19.327925396519834 67.401016008804774 0 0 1 I I #
straight-curve $-1 -24.122279971482229 19.327925396519834 63.327232743170086 0.75470957328743171 0 -0.6560590369687036 I I #
edge $-1 $595 10.487102827564765 $350 19.327925396519834 $499 $602 forward 7 unknown #
point $-1 47.352519302957241 19.327925396519834 8.1779759056160213 #
point $-1 39.319681421658224 19.327925396519834 8.1779759056160231 #
edge $-1 $603 1 $603 0 $353 $-1 forward 7 unknown #
vertex $-1 $354 $604 #
ellipse-curve $-1 42.538346028100122 13.013052132980498 3.7688447492502379 0.6560590369687036 0 0.75470957328743171 0.75470957328743171 0 -0.6560590369687036 1 I I #
point $-1 44.090809935595175 13.013052132980498 4.0304970754842833 #
edge $-1 $605 1 $605 0 $357 $-1 forward 7 unknown #
vertex $-1 $358 $606 #
ellipse-curve $-1 42.538346028100122 16.801976091104095 3.7688447492502379 0.6560590369687036 0 0.75470957328743171 0.75470957328743171 0 -0.6560590369687036 1 I I #
point $-1 44.090809935595175 16.801976091104095 4.0304970754842833 #
plane-surface $-1 47.352519302957241 0 0 -1 0 0 0 0 1 forward_v I I I I #
coedge $-1 $366 $364 $368 $520 reversed $241 $-1 #
edge $-1 $379 -8.1779759056160213 $522 8.1779759056160213 $378 $607 forward 7 unknown #
vertex $-1 $520 $608 #
straight-curve $-1 -47.352519302957241 -24.908231534951959 0 0 0 -1 I I #
edge $-1 $518 -24.908231534951959 $522 24.908231534951959 $516 $609 forward 7 unknown #
straight-curve $-1 0 -24.908231534951959 -8.1779759056160213 -1 0 0 I I #
vertex $-1 $371 $610 #
straight-curve $-1 0 24.908231534951959 -8.1779759056160213 1 0 0 I I #
point $-1 47.352519302957241 24.908231534951959 -8.1779759056160213 #
point $-1 47.352519302957241 -24.908231534951959 -8.1779759056160213 #
straight-curve $-1 -47.352519302957241 0 8.1779759056160213 0 -1 0 I I #
point $-1 -47.352519302957241 24.908231534951959 8.1779759056160213 #
point $-1 -47.352519302957241 -24.908231534951959 8.1779759056160213 #
straight-curve $-1 47.352519302957241 -24.908231534951959 0 0 0 -1 I I #
straight-curve $-1 47.352519302957241 24.908231534951959 0 0 0 -1 I I #
loop $-1 $-1 $394 $388 #
plane-surface $-1 0 -24.908231534951959 0 0 1 0 0 0 1 forward_v I I I I #
coedge $-1 $405 $396 $392 $535 forward $389 $-1 #
edge $-1 $539 -13.849192302084012 $400 -8.2688861636518833 $391 $611 forward 7 unknown #
edge $-1 $401 8.2688861636518833 $538 13.849192302084012 $533 $612 forward 7 unknown #
coedge $-1 $403 $394 $408 $548 reversed $531 $-1 #
coedge $-1 $394 $403 $405 $546 reversed $531 $-1 #
vertex $-1 $546 $613 #
vertex $-1 $395 $614 #
straight-curve $-1 -30.996567491725202 -24.908231534951959 0 0 0 1 I I #
straight-curve $-1 -16.248283745862601 -19.327925396519831 -8.1779759056160213 1 0 0 I I #
straight-curve $-1 -16.248283745862601 -19.327925396519831 8.1779759056160213 -1 0 0 I I #
point $-1 -30.996567491725202 -19.327925396519831 8.1779759056160213 #
point $-1 -30.996567491725202 -19.327925396519831 -8.1779759056160213 #
straight-curve $-1 -33.996567491725202 -24.908231534951959 0 0 0 -1 I I #
edge $-1 $538 30.996567491725202 $406 33.996567491725202 $537 $615 forward 7 unknown #
point $-1 -33.996567491725202 -24.908231534951959 -8.1779759056160213 #
edge $-1 $409 -33.996567491725202 $539 -30.996567491725202 $536 $616 forward 7 unknown #
point $-1 -33.996567491725202 -24.908231534951959 8.1779759056160213 #
plane-surface $-1 0 24.908231534951959 0 0 -1 0 0 0 -1 forward_v I I I I #
coedge $-1 $416 $420 $425 $561 forward $276 $-1 #
edge $-1 $617 -13.849192302084013 $430 -8.2688861636518851 $416 $618 forward 7 unknown #
coedge $-1 $418 $417 $559 $619 reversed $167 $-1 #
edge $-1 $433 8.2688861636518851 $620 13.849192302084013 $432 $621 forward 7 unknown #
straight-curve $-1 -30.996567491725202 19.327925396519834 0 0 0 -1 I I #
straight-curve $-1 -33.996567491725202 11.059039232867949 -8.1779759056160213 0 1 0 I I #
coedge $-1 $422 $432 $424 $560 forward $414 $-1 #
straight-curve $-1 -33.996567491725202 11.059039232867949 8.1779759056160213 0 -1 0 I I #
coedge $-1 $425 $424 $553 $619 forward $426 $-1 #
edge $-1 $620 30.996567491725202 $428 33.996567491725202 $424 $622 forward 7 unknown #
edge $-1 $427 -33.996567491725202 $617 -30.996567491725202 $425 $623 forward 7 unknown #
point $-1 -33.996567491725202 24.908231534951963 -8.1779759056160213 #
point $-1 -33.996567491725202 24.908231534951963 8.1779759056160213 #
point $-1 -30.996567491725202 19.327925396519834 -8.1779759056160213 #
point $-1 -30.996567491725202 19.327925396519834 8.1779759056160213 #
edge $-1 $567 29.545957032345001 $570 32.655625762423945 $438 $624 forward 7 unknown #
vertex $-1 $452 $625 #
straight-curve $-1 -55.361279986357758 -8.7452516862876521 8.1779759056160231 -1 0 0 I I #
edge $-1 $570 2.6640560496647367 $449 9.4983352235810941 $448 $626 forward 7 unknown #
vertex $-1 $569 $627 #
straight-curve $-1 -47.352519302957248 -8.7452516862876521 5.0683071755370719 0.74314481823134659 0 0.66913061440640931 I I #
point $-1 -43.898882369569783 -8.7452516862876521 8.1779759056160213 #
point $-1 -47.352519302957241 -15.579530860204009 5.0683071755370781 #
straight-curve $-1 -47.352519302957241 0 8.1779759056160213 0 -1 0 I I #
vertex $-1 $455 $628 #
point $-1 -43.96938008554018 -13.62687966765648 5.5308492922574848 #
vertex $-1 $459 $629 #
point $-1 -43.96938008554018 -10.697902878835185 5.5308492922574848 #
coedge $-1 $474 $473 $466 $580 forward $463 $-1 #
edge $-1 $581 29.545957032345001 $584 32.655625762423945 $579 $630 forward 7 unknown #
vertex $-1 $478 $631 #
straight-curve $-1 -55.361279986357758 15.579530860204017 8.1779759056160231 -1 0 0 I I #
edge $-1 $584 -9.4983352235810976 $475 -2.6640560496647403 $474 $632 forward 7 unknown #
vertex $-1 $583 $633 #
straight-curve $-1 -47.352519302957248 15.579530860204017 5.0683071755370719 0.74314481823134659 0 0.66913061440640931 I I #
point $-1 -43.898882369569783 15.579530860204017 8.1779759056160213 #
point $-1 -47.352519302957241 8.7452516862876593 5.0683071755370781 #
straight-curve $-1 -47.352519302957241 0 8.1779759056160213 0 -1 0 I I #
vertex $-1 $481 $634 #
point $-1 -43.96938008554018 10.697902878835187 5.5308492922574848 #
vertex $-1 $485 $635 #
point $-1 -43.96938008554018 13.626879667656482 5.5308492922574848 #
coedge $-1 $500 $499 $492 $594 forward $489 $-1 #
edge $-1 $595 59.223040103188751 $598 66.205879689514845 $593 $636 forward 7 unknown #
vertex $-1 $504 $637 #
straight-curve $-1 19.00490822619896 10.487102827564765 8.1779759056160231 1 0 0 I I #
edge $-1 $598 3.0333457715436154 $501 11.874168340498684 $500 $638 forward 7 unknown #
vertex $-1 $597 $639 #
straight-curve $-1 -24.122279971482229 10.487102827564765 63.327232743170086 -0.75470957328743171 0 0.6560590369687036 I I #
point $-1 39.319681421658224 10.487102827564765 8.1779759056160231 #
point $-1 47.352519302957248 19.327925396519834 1.1951363192899294 #
straight-curve $-1 47.352519302957241 0 8.1779759056160213 0 1 0 I I #
vertex $-1 $507 $640 #
point $-1 43.293055601387557 13.013052132980498 3.1127857122815343 #
vertex $-1 $511 $641 #
point $-1 43.293055601387557 16.801976091104095 3.1127857122815343 #
straight-curve $-1 -47.352519302957241 24.908231534951959 0 0 0 -1 I I #
point $-1 -47.352519302957241 -24.908231534951959 -8.1779759056160213 #
straight-curve $-1 -47.352519302957241 0 -8.1779759056160213 0 1 0 I I #
point $-1 -47.352519302957241 24.908231534951959 -8.1779759056160213 #
straight-curve $-1 -30.996567491725202 -11.059039232867947 8.1779759056160213 0 1 0 I I #
straight-curve $-1 -30.996567491725202 -11.059039232867947 -8.1779759056160213 0 -1 0 I I #
point $-1 -30.996567491725202 -24.908231534951959 -8.1779759056160213 #
point $-1 -30.996567491725202 -24.908231534951959 8.1779759056160213 #
straight-curve $-1 0 -24.908231534951959 -8.1779759056160213 -1 0 0 I I #
straight-curve $-1 0 -24.908231534951959 8.1779759056160213 1 0 0 I I #
vertex $-1 $619 $642 #
straight-curve $-1 -30.996567491725202 11.059039232867949 -8.1779759056160213 0 -1 0 I I #
edge $-1 $620 -8.1779759056160213 $617 8.1779759056160213 $559 $643 forward 7 unknown #
vertex $-1 $560 $644 #
straight-curve $-1 -30.996567491725202 11.059039232867949 8.1779759056160213 0 1 0 I I #
straight-curve $-1 0 24.908231534951959 8.1779759056160213 -1 0 0 I I #
straight-curve $-1 0 24.908231534951959 -8.1779759056160213 1 0 0 I I #
straight-curve $-1 -47.352519302957241 -8.7452516862876521 37.723932937961024 0 0 -1 I I #
point $-1 -47.352519302957241 -8.7452516862876521 8.1779759056160213 #
straight-curve $-1 -47.352519302957241 -6.0811956366229154 5.0683071755370817 0 -1 0 I I #
point $-1 -47.352519302957241 -8.7452516862876521 5.0683071755370781 #
point $-1 -44.006387187452646 -13.62687966765648 4.8247115759386068 #
point $-1 -44.006387187452646 -10.697902878835185 4.8247115759386068 #
straight-curve $-1 -47.352519302957241 15.579530860204017 37.723932937961024 0 0 -1 I I #
point $-1 -47.352519302957241 15.579530860204017 8.1779759056160213 #
straight-curve $-1 -47.352519302957241 6.081195636622919 5.0683071755370817 0 -1 0 I I #
point $-1 -47.352519302957241 15.579530860204017 5.0683071755370781 #
point $-1 -44.006387187452646 10.697902878835187 4.8247115759386068 #
point $-1 -44.006387187452646 13.626879667656482 4.8247115759386068 #
straight-curve $-1 47.352519302957241 10.487102827564765 67.401016008804774 0 0 -1 I I #
point $-1 47.352519302957241 10.487102827564765 8.1779759056160213 #
straight-curve $-1 47.352519302957248 7.4537570560211499 1.1951363192899223 0 1 0 I I #
point $-1 47.352519302957248 10.487102827564765 1.1951363192899294 #
point $-1 41.882286991131423 13.013052132980498 3.014135175962807 #
point $-1 41.882286991131423 16.801976091104095 3.014135175962807 #
point $-1 -30.996567491725202 24.908231534951963 -8.1779759056160213 #
straight-curve $-1 -30.996567491725202 24.908231534951959 0 0 0 -1 I I #
point $-1 -30.996567491725202 24.908231534951963 8.1779759056160213 #
End-of-ACIS-data 