500 0 9 0           
7 Unknown 11 ACIS 5.0 NT 24 Thu Mar 25 18:33:56 1999 
-1 9.9999999999999995e-007 1e-010 
body $-1 $9 $-1 $10 #
body $-1 $11 $-1 $12 #
body $-1 $13 $-1 $14 #
body $-1 $15 $-1 $16 #
body $-1 $17 $-1 $18 #
body $-1 $19 $-1 $20 #
body $-1 $21 $-1 $22 #
body $-1 $23 $-1 $24 #
body $-1 $25 $-1 $26 #
lump $-1 $-1 $27 $0 #
transform $-1 1 0 0 0 1 0 0 0 1 53.288979766228216 31.105106164824694 15.31959940789689 1 rotate no_reflect no_shear #
lump $-1 $-1 $28 $1 #
transform $-1 1 0 0 0 1 0 0 0 1 53.288979766228216 31.105106164824694 15.31959940789689 1 rotate no_reflect no_shear #
lump $-1 $-1 $29 $2 #
transform $-1 1 0 0 0 1 0 0 0 1 53.288979766228216 31.105106164824694 15.31959940789689 1 rotate no_reflect no_shear #
lump $-1 $-1 $30 $3 #
transform $-1 1 0 0 0 1 0 0 0 1 53.288979766228216 31.105106164824694 15.31959940789689 1 rotate no_reflect no_shear #
lump $-1 $-1 $31 $4 #
transform $-1 1 0 0 0 1 0 0 0 1 53.288979766228216 31.105106164824694 15.31959940789689 1 rotate no_reflect no_shear #
lump $-1 $-1 $32 $5 #
transform $-1 1 0 0 0 1 0 0 0 1 53.288979766228216 31.105106164824694 15.31959940789689 1 rotate no_reflect no_shear #
lump $-1 $-1 $33 $6 #
transform $-1 1 0 0 0 1 0 0 0 1 53.288979766228216 31.105106164824694 15.31959940789689 1 rotate no_reflect no_shear #
lump $-1 $-1 $34 $7 #
transform $-1 1 0 0 0 1 0 0 0 1 53.288979766228216 31.105106164824694 15.31959940789689 1 rotate no_reflect no_shear #
lump $-1 $-1 $35 $8 #
transform $-1 1 0 0 0 1 0 0 0 1 53.288979766228216 31.105106164824694 15.31959940789689 1 rotate no_reflect no_shear #
shell $-1 $-1 $-1 $36 $-1 $9 #
shell $-1 $-1 $-1 $37 $-1 $11 #
shell $-1 $-1 $-1 $38 $-1 $13 #
shell $-1 $-1 $-1 $39 $-1 $15 #
shell $-1 $-1 $-1 $40 $-1 $17 #
shell $-1 $-1 $-1 $41 $-1 $19 #
shell $-1 $-1 $-1 $42 $-1 $21 #
shell $-1 $-1 $-1 $43 $-1 $23 #
shell $-1 $-1 $-1 $44 $-1 $25 #
face $-1 $45 $46 $27 $-1 $47 forward single #
face $-1 $48 $49 $28 $-1 $50 reversed single #
face $-1 $51 $52 $29 $-1 $53 reversed single #
face $-1 $54 $55 $30 $-1 $56 reversed single #
face $-1 $57 $58 $31 $-1 $59 forward single #
face $-1 $60 $61 $32 $-1 $62 forward single #
face $-1 $63 $64 $33 $-1 $65 reversed single #
face $-1 $66 $67 $34 $-1 $68 forward single #
face $-1 $69 $70 $35 $-1 $71 forward single #
face $-1 $72 $73 $27 $-1 $74 reversed single #
loop $-1 $-1 $75 $36 #
plane-surface $-1 0 0 15.31959940789689 0 0 1 1 0 0 forward_v I I I I #
face $-1 $76 $77 $28 $-1 $78 reversed single #
loop $-1 $-1 $79 $37 #
plane-surface $-1 -47.052457667843171 0 6.3427171668841353 0 0 1 1 0 0 forward_v I I I I #
face $-1 $80 $81 $29 $-1 $82 reversed single #
loop $-1 $-1 $83 $38 #
plane-surface $-1 47.052457667843179 0 6.3427171668841353 0 0 1 1 0 0 forward_v I I I I #
face $-1 $84 $85 $30 $-1 $86 reversed single #
loop $-1 $-1 $87 $39 #
plane-surface $-1 23.362754025895832 -115.08968525360113 75.095420806496534 1 0 0 0 0.78801076186113728 -0.61566146476048833 forward_v I I I I #
face $-1 $88 $89 $31 $-1 $90 forward single #
loop $-1 $91 $92 $40 #
cone-surface $-1 28.349377324056483 -27.988846775818324 11.747276195128345 0 0.78801076186113728 -0.61566146476048833 1 0 0 1 I I 0 1 1 forward I I I I #
face $-1 $93 $94 $32 $-1 $95 forward single #
loop $-1 $96 $97 $41 #
cone-surface $-1 35.829312271297461 -27.988846775818324 11.747276195128345 0 0.78801076186113728 -0.61566146476048833 1 0 0 1 I I 0 1 1 forward I I I I #
face $-1 $98 $99 $33 $-1 $100 reversed single #
loop $-1 $-1 $101 $42 #
plane-surface $-1 32.089344797676979 -7.1953242811082276 58.5017949429905 0 0.78801076186113728 0.61566146476048833 1 0 0 forward_v I I I I #
face $-1 $102 $103 $34 $-1 $104 forward single #
loop $-1 $105 $106 $43 #
cone-surface $-1 28.349377324056483 27.988846775818327 11.747276195128345 0 -0.78801076186113728 -0.61566146476048833 1 0 0 1 I I 0 1 1 forward I I I I #
face $-1 $107 $108 $35 $-1 $109 forward single #
loop $-1 $110 $111 $44 #
cone-surface $-1 35.829312271297461 27.988846775818327 11.747276195128345 0 -0.78801076186113728 -0.61566146476048833 1 0 0 1 I I 0 1 1 forward I I I I #
face $-1 $112 $113 $27 $-1 $114 reversed single #
loop $-1 $-1 $115 $45 #
plane-surface $-1 0 0 -15.31959940789689 0 0 1 1 0 0 forward_v I I I I #
coedge $-1 $116 $117 $118 $119 forward $46 $-1 #
face $-1 $120 $121 $28 $-1 $122 reversed single #
loop $-1 $-1 $123 $48 #
plane-surface $-1 -40.815935569458127 0 10.831158287390513 -1 0 0 0 0 1 forward_v I I I I #
coedge $-1 $124 $125 $126 $127 forward $49 $-1 #
face $-1 $128 $129 $29 $-1 $130 forward single #
loop $-1 $-1 $131 $51 #
plane-surface $-1 40.815935569458134 0 10.831158287390513 1 0 0 0 0 -1 forward_v I I I I #
coedge $-1 $132 $133 $134 $135 reversed $52 $-1 #
face $-1 $136 $137 $30 $-1 $138 forward single #
loop $-1 $-1 $139 $54 #
plane-surface $-1 32.089344797676979 -31.10510616482469 9.4794781295603627 0 -0.78801076186113728 0.61566146476048833 1 0 0 forward_v I I I I #
coedge $-1 $140 $141 $142 $143 reversed $55 $-1 #
face $-1 $-1 $144 $31 $-1 $145 forward single #
loop $-1 $146 $147 $57 #
cone-surface $-1 28.349377324056483 -26.759983348743482 10.78718288914782 0 0.78801076186113728 -0.61566146476048833 0.5 0 0 1 I I -0.70710678118654746 0.70710678118654746 0.5 forward I I I I #
loop $-1 $-1 $148 $40 #
coedge $-1 $92 $92 $149 $150 reversed $58 $-1 #
face $-1 $-1 $151 $32 $-1 $152 forward single #
loop $-1 $153 $154 $60 #
cone-surface $-1 35.829312271297461 -26.759983348743482 10.78718288914782 0 0.78801076186113728 -0.61566146476048833 0.5 0 0 1 I I -0.70710678118654746 0.70710678118654746 0.5 forward I I I I #
loop $-1 $-1 $155 $41 #
coedge $-1 $97 $97 $156 $157 reversed $61 $-1 #
face $-1 $158 $159 $33 $-1 $160 forward single #
loop $-1 $-1 $161 $63 #
plane-surface $-1 23.362754025895832 76.789254807668215 124.11773761992667 1 0 0 0 -0.78801076186113728 -0.61566146476048833 forward_v I I I I #
coedge $-1 $162 $163 $164 $165 reversed $64 $-1 #
face $-1 $-1 $166 $34 $-1 $167 forward single #
loop $-1 $168 $169 $66 #
cone-surface $-1 28.349377324056483 26.759983348743486 10.78718288914782 0 -0.78801076186113728 -0.61566146476048833 0.5 0 0 1 I I -0.70710678118654746 0.70710678118654746 0.5 forward I I I I #
loop $-1 $-1 $170 $43 #
coedge $-1 $106 $106 $171 $172 reversed $67 $-1 #
face $-1 $-1 $173 $35 $-1 $174 forward single #
loop $-1 $175 $176 $69 #
cone-surface $-1 35.829312271297461 26.759983348743486 10.78718288914782 0 -0.78801076186113728 -0.61566146476048833 0.5 0 0 1 I I -0.70710678118654746 0.70710678118654746 0.5 forward I I I I #
loop $-1 $-1 $177 $44 #
coedge $-1 $111 $111 $178 $179 reversed $70 $-1 #
face $-1 $180 $181 $27 $-1 $182 reversed single #
loop $-1 $-1 $183 $72 #
plane-surface $-1 0 -31.105106164824694 0 0 1 0 0 0 1 forward_v I I I I #
coedge $-1 $184 $185 $186 $187 forward $73 $-1 #
coedge $-1 $188 $75 $189 $190 forward $46 $-1 #
coedge $-1 $75 $188 $191 $192 forward $46 $-1 #
coedge $-1 $193 $194 $75 $119 reversed $195 $-1 #
edge $-1 $196 -31.105106164824694 $197 31.105106164824694 $118 $198 forward 7 unknown #
face $-1 $199 $200 $28 $-1 $201 reversed single #
loop $-1 $-1 $202 $76 #
plane-surface $-1 0 31.105106164824694 0 0 -1 0 0 0 -1 forward_v I I I I #
coedge $-1 $126 $203 $204 $205 reversed $77 $-1 #
coedge $-1 $206 $79 $207 $208 reversed $49 $-1 #
coedge $-1 $79 $206 $209 $210 reversed $49 $-1 #
coedge $-1 $211 $123 $79 $127 reversed $77 $-1 #
edge $-1 $212 -31.105106164824694 $213 31.105106164824694 $126 $214 forward 7 unknown #
face $-1 $215 $216 $29 $-1 $217 reversed single #
loop $-1 $-1 $218 $80 #
plane-surface $-1 0 0 15.31959940789689 0 0 1 1 0 0 forward_v I I I I #
coedge $-1 $219 $220 $221 $222 reversed $81 $-1 #
coedge $-1 $223 $83 $224 $225 reversed $52 $-1 #
coedge $-1 $83 $223 $226 $227 reversed $52 $-1 #
coedge $-1 $228 $229 $83 $135 forward $230 $-1 #
edge $-1 $231 -31.105106164824694 $232 31.105106164824694 $134 $233 forward 7 unknown #
face $-1 $234 $235 $30 $-1 $236 reversed single #
loop $-1 $-1 $237 $84 #
plane-surface $-1 0 0 15.31959940789689 0 0 1 1 0 0 forward_v I I I I #
coedge $-1 $238 $239 $240 $241 reversed $85 $-1 #
coedge $-1 $141 $87 $242 $243 reversed $55 $-1 #
coedge $-1 $87 $140 $238 $244 reversed $55 $-1 #
coedge $-1 $240 $245 $87 $143 forward $235 $-1 #
edge $-1 $246 22.228110995351379 $247 28.068232273687912 $142 $248 forward 7 unknown #
loop $-1 $-1 $149 $88 #
plane-surface $-1 32.089344797676979 -31.10510616482469 9.4794781295603627 0 -0.78801076186113728 0.61566146476048833 1 0 0 forward_v I I I I #
loop $-1 $-1 $249 $57 #
coedge $-1 $147 $147 $148 $250 reversed $89 $-1 #
coedge $-1 $148 $148 $147 $250 forward $91 $-1 #
coedge $-1 $149 $149 $92 $150 forward $144 $-1 #
edge $-1 $251 0 $251 6.2831853071796004 $149 $252 forward 7 unknown #
loop $-1 $-1 $156 $93 #
plane-surface $-1 32.089344797676979 -31.10510616482469 9.4794781295603627 0 -0.78801076186113728 0.61566146476048833 1 0 0 forward_v I I I I #
loop $-1 $-1 $253 $60 #
coedge $-1 $154 $154 $155 $254 reversed $94 $-1 #
coedge $-1 $155 $155 $154 $254 forward $96 $-1 #
coedge $-1 $156 $156 $97 $157 forward $151 $-1 #
edge $-1 $255 0 $255 6.2831853071796004 $156 $256 forward 7 unknown #
face $-1 $257 $258 $33 $-1 $259 forward single #
loop $-1 $-1 $260 $98 #
plane-surface $-1 40.815935569458134 0 10.831158287390513 1 0 0 0 0 -1 forward_v I I I I #
coedge $-1 $261 $262 $263 $264 reversed $99 $-1 #
coedge $-1 $265 $101 $260 $266 reversed $64 $-1 #
coedge $-1 $101 $265 $261 $267 forward $64 $-1 #
coedge $-1 $263 $268 $101 $165 forward $269 $-1 #
edge $-1 $270 -24.771263170619644 $271 -7.3180816270573423 $164 $272 forward 7 unknown #
loop $-1 $-1 $171 $102 #
plane-surface $-1 32.089344797676979 -7.1953242811082276 58.5017949429905 0 0.78801076186113728 0.61566146476048833 1 0 0 forward_v I I I I #
loop $-1 $-1 $273 $66 #
coedge $-1 $169 $169 $170 $274 reversed $103 $-1 #
coedge $-1 $170 $170 $169 $274 forward $105 $-1 #
coedge $-1 $171 $171 $106 $172 forward $166 $-1 #
edge $-1 $275 4.3713480967034778e-016 $275 6.2831853071796004 $171 $276 forward 7 unknown #
loop $-1 $-1 $178 $107 #
plane-surface $-1 32.089344797676979 -7.1953242811082276 58.5017949429905 0 0.78801076186113728 0.61566146476048833 1 0 0 forward_v I I I I #
loop $-1 $-1 $277 $69 #
coedge $-1 $176 $176 $177 $278 reversed $108 $-1 #
coedge $-1 $177 $177 $176 $278 forward $110 $-1 #
coedge $-1 $178 $178 $111 $179 forward $173 $-1 #
edge $-1 $279 4.3713480967034778e-016 $279 6.2831853071796004 $178 $280 forward 7 unknown #
face $-1 $281 $282 $27 $-1 $283 reversed single #
loop $-1 $-1 $284 $112 #
plane-surface $-1 -53.288979766228216 0 0 1 0 0 0 0 -1 forward_v I I I I #
coedge $-1 $285 $191 $286 $287 forward $113 $-1 #
coedge $-1 $288 $115 $285 $289 forward $73 $-1 #
coedge $-1 $115 $288 $290 $291 forward $73 $-1 #
coedge $-1 $194 $193 $115 $187 reversed $195 $-1 #
edge $-1 $292 -31.105106164824694 $293 31.105106164824694 $186 $294 forward 7 unknown #
coedge $-1 $117 $116 $295 $296 forward $46 $-1 #
coedge $-1 $297 $298 $116 $190 reversed $282 $-1 #
edge $-1 $197 -53.288979766228216 $299 53.288979766228216 $189 $300 forward 7 unknown #
coedge $-1 $183 $301 $117 $192 reversed $113 $-1 #
edge $-1 $302 -53.288979766228216 $196 53.288979766228216 $191 $303 forward 7 unknown #
coedge $-1 $186 $118 $301 $304 forward $195 $-1 #
coedge $-1 $118 $186 $297 $305 reversed $195 $-1 #
loop $-1 $-1 $193 $281 #
vertex $-1 $119 $306 #
vertex $-1 $119 $307 #
straight-curve $-1 53.288979766228216 0 15.31959940789689 0 1 0 I I #
face $-1 $308 $309 $28 $-1 $310 forward single #
loop $-1 $-1 $311 $120 #
plane-surface $-1 -53.288979766228216 0 0 1 0 0 0 0 -1 forward_v I I I I #
coedge $-1 $209 $312 $211 $313 forward $121 $-1 #
coedge $-1 $123 $211 $314 $315 reversed $77 $-1 #
coedge $-1 $316 $207 $123 $205 forward $317 $-1 #
edge $-1 $213 0.92713802318887861 $318 9.9040202642016339 $204 $319 forward 7 unknown #
coedge $-1 $125 $124 $311 $320 reversed $49 $-1 #
coedge $-1 $204 $321 $124 $208 forward $317 $-1 #
edge $-1 $322 -29.762750932306631 $213 -17.289706735536541 $207 $323 forward 7 unknown #
coedge $-1 $324 $202 $125 $210 forward $121 $-1 #
edge $-1 $212 17.289706735536541 $325 29.762750932306631 $209 $326 forward 7 unknown #
coedge $-1 $203 $126 $202 $313 reversed $77 $-1 #
vertex $-1 $210 $327 #
vertex $-1 $208 $328 #
straight-curve $-1 -40.815935569458127 0 6.3427171668841353 0 -1 0 I I #
face $-1 $329 $330 $29 $-1 $331 reversed single #
loop $-1 $-1 $332 $128 #
plane-surface $-1 0 -31.105106164824694 0 0 1 0 0 0 1 forward_v I I I I #
coedge $-1 $333 $334 $220 $335 forward $129 $-1 #
coedge $-1 $336 $131 $223 $337 reversed $81 $-1 #
coedge $-1 $131 $336 $218 $335 reversed $81 $-1 #
coedge $-1 $338 $226 $131 $222 forward $330 $-1 #
edge $-1 $339 0.92713802318887861 $340 9.9040202642016339 $221 $341 forward 7 unknown #
coedge $-1 $133 $132 $219 $337 forward $52 $-1 #
coedge $-1 $342 $332 $132 $225 forward $216 $-1 #
edge $-1 $343 17.289706735536544 $231 29.762750932306634 $224 $344 forward 7 unknown #
coedge $-1 $221 $345 $133 $227 forward $330 $-1 #
edge $-1 $232 -29.762750932306634 $339 -17.289706735536544 $226 $346 forward 7 unknown #
coedge $-1 $347 $134 $345 $348 reversed $230 $-1 #
coedge $-1 $134 $347 $342 $349 forward $230 $-1 #
loop $-1 $-1 $134 $329 #
vertex $-1 $225 $350 #
vertex $-1 $135 $351 #
straight-curve $-1 53.288979766228216 0 6.3427171668841353 0 1 0 I I #
face $-1 $-1 $352 $30 $-1 $353 forward single #
loop $-1 $-1 $142 $136 #
plane-surface $-1 0 -31.105106164824694 0 0 1 0 0 0 1 forward_v I I I I #
coedge $-1 $242 $354 $355 $356 forward $137 $-1 #
coedge $-1 $355 $139 $141 $244 forward $85 $-1 #
coedge $-1 $139 $355 $357 $358 reversed $85 $-1 #
coedge $-1 $359 $142 $139 $241 forward $235 $-1 #
edge $-1 $247 7.3180816270573423 $360 24.771263170619644 $240 $361 forward 7 unknown #
coedge $-1 $362 $237 $140 $243 forward $137 $-1 #
edge $-1 $363 -31.002539147700066 $246 -26.439736461975873 $242 $364 forward 7 unknown #
edge $-1 $247 -6.3866338264240394e-015 $363 7.4112202028094512 $141 $365 forward 7 unknown #
coedge $-1 $142 $359 $362 $366 reversed $235 $-1 #
vertex $-1 $366 $367 #
vertex $-1 $143 $368 #
straight-curve $-1 23.362754025895832 -31.10510616482469 37.547710403248267 0 0 -1 I I #
coedge $-1 $249 $249 $-1 $369 reversed $146 $-1 #
edge $-1 $370 0 $370 6.2831853071796004 $147 $371 forward 7 unknown #
vertex $-1 $150 $372 #
ellipse-curve $-1 28.349377324056483 -28.823704821962597 12.399538768728624 0 -0.78801076186113728 0.61566146476048833 1 0 0 1 I I #
coedge $-1 $253 $253 $-1 $373 reversed $153 $-1 #
edge $-1 $374 0 $374 6.2831853071796004 $154 $375 forward 7 unknown #
vertex $-1 $157 $376 #
ellipse-curve $-1 35.829312271297461 -28.823704821962597 12.399538768728624 0 -0.78801076186113728 0.61566146476048833 1 0 0 1 I I #
face $-1 $-1 $269 $33 $-1 $377 reversed single #
loop $-1 $-1 $378 $158 #
plane-surface $-1 0 0 15.31959940789689 0 0 1 1 0 0 forward_v I I I I #
coedge $-1 $379 $380 $162 $266 forward $159 $-1 #
coedge $-1 $262 $161 $163 $267 reversed $99 $-1 #
coedge $-1 $161 $261 $381 $382 reversed $99 $-1 #
coedge $-1 $383 $164 $161 $264 forward $269 $-1 #
edge $-1 $271 -52.579390680402945 $384 -46.739269402066448 $263 $385 forward 7 unknown #
coedge $-1 $163 $162 $378 $386 reversed $64 $-1 #
edge $-1 $387 33.80156282898065 $270 41.21278303179006 $260 $388 forward 7 unknown #
edge $-1 $389 54.798992126839948 $271 62.210212329649366 $261 $390 forward 7 unknown #
coedge $-1 $164 $383 $379 $391 forward $269 $-1 #
loop $-1 $-1 $263 $257 #
vertex $-1 $266 $392 #
vertex $-1 $165 $393 #
straight-curve $-1 16.04467239883849 31.105106164824694 9.4794781295603876 -1 0 0 I I #
coedge $-1 $273 $273 $-1 $394 reversed $168 $-1 #
edge $-1 $395 0 $395 6.2831853071796004 $169 $396 forward 7 unknown #
vertex $-1 $172 $397 #
ellipse-curve $-1 28.349377324056483 28.823704821962611 12.399538768728632 0 0.78801076186113728 0.61566146476048833 1 0 0 1 I I #
coedge $-1 $277 $277 $-1 $398 reversed $175 $-1 #
edge $-1 $399 0 $399 6.2831853071796004 $176 $400 forward 7 unknown #
vertex $-1 $179 $401 #
ellipse-curve $-1 35.829312271297461 28.823704821962611 12.399538768728632 0 0.78801076186113728 0.61566146476048833 1 0 0 1 I I #
face $-1 $-1 $195 $27 $-1 $402 reversed single #
loop $-1 $-1 $297 $180 #
plane-surface $-1 0 31.105106164824694 0 0 -1 0 0 0 -1 forward_v I I I I #
coedge $-1 $403 $295 $298 $404 forward $181 $-1 #
coedge $-1 $301 $183 $184 $289 reversed $113 $-1 #
coedge $-1 $295 $403 $183 $287 reversed $181 $-1 #
edge $-1 $302 -15.31959940789689 $405 15.31959940789689 $286 $406 forward 7 unknown #
coedge $-1 $185 $184 $403 $407 forward $73 $-1 #
edge $-1 $293 -53.288979766228216 $405 53.288979766228216 $285 $408 forward 7 unknown #
coedge $-1 $298 $297 $185 $291 reversed $282 $-1 #
edge $-1 $409 -53.288979766228216 $292 53.288979766228216 $290 $410 forward 7 unknown #
vertex $-1 $187 $411 #
vertex $-1 $304 $412 #
straight-curve $-1 53.288979766228216 0 -15.31959940789689 0 -1 0 I I #
coedge $-1 $284 $286 $188 $296 reversed $181 $-1 #
edge $-1 $299 -31.105106164824694 $302 31.105106164824694 $295 $413 forward 7 unknown #
coedge $-1 $290 $189 $194 $305 forward $282 $-1 #
coedge $-1 $189 $290 $284 $404 reversed $282 $-1 #
vertex $-1 $190 $414 #
straight-curve $-1 0 31.105106164824694 15.31959940789689 -1 0 0 I I #
coedge $-1 $191 $285 $193 $304 reversed $113 $-1 #
vertex $-1 $296 $415 #
straight-curve $-1 0 -31.105106164824694 15.31959940789689 1 0 0 I I #
edge $-1 $196 -15.31959940789689 $293 15.31959940789689 $193 $416 forward 7 unknown #
edge $-1 $197 -15.31959940789689 $292 15.31959940789689 $194 $417 forward 7 unknown #
point $-1 53.288979766228216 -31.105106164824694 15.31959940789689 #
point $-1 53.288979766228216 31.105106164824694 15.31959940789689 #
face $-1 $-1 $317 $28 $-1 $418 reversed single #
loop $-1 $-1 $314 $199 #
plane-surface $-1 0 0 15.31959940789689 0 0 1 1 0 0 forward_v I I I I #
coedge $-1 $419 $420 $206 $320 forward $200 $-1 #
coedge $-1 $202 $324 $421 $422 reversed $121 $-1 #
edge $-1 $423 -9.9040202642016339 $212 -0.92713802318887861 $202 $424 forward 7 unknown #
coedge $-1 $421 $425 $203 $315 forward $309 $-1 #
edge $-1 $318 -31.105106164824694 $423 31.105106164824694 $314 $426 forward 7 unknown #
coedge $-1 $321 $204 $425 $427 reversed $317 $-1 #
loop $-1 $-1 $204 $308 #
vertex $-1 $205 $428 #
straight-curve $-1 -40.815935569458127 -31.105106164824694 5.4155791436952567 0 0 1 I I #
edge $-1 $325 -31.105106164824694 $322 31.105106164824694 $311 $429 forward 7 unknown #
coedge $-1 $207 $316 $419 $430 forward $317 $-1 #
vertex $-1 $320 $431 #
straight-curve $-1 -23.526228833921586 -31.105106164824694 6.3427171668841353 1 0 0 I I #
coedge $-1 $312 $209 $420 $432 reversed $121 $-1 #
vertex $-1 $320 $433 #
straight-curve $-1 -23.526228833921586 31.105106164824694 6.3427171668841353 -1 0 0 I I #
point $-1 -40.815935569458127 31.105106164824694 6.3427171668841353 #
point $-1 -40.815935569458127 -31.105106164824694 6.3427171668841353 #
face $-1 $-1 $230 $29 $-1 $434 reversed single #
loop $-1 $-1 $221 $215 #
plane-surface $-1 0 31.105106164824694 0 0 -1 0 0 0 -1 forward_v I I I I #
coedge $-1 $224 $435 $336 $436 forward $216 $-1 #
coedge $-1 $437 $218 $435 $438 forward $129 $-1 #
coedge $-1 $218 $437 $338 $439 forward $129 $-1 #
edge $-1 $340 -31.105106164824694 $440 31.105106164824694 $218 $441 forward 7 unknown #
coedge $-1 $220 $219 $332 $436 reversed $81 $-1 #
edge $-1 $343 -31.105106164824694 $339 31.105106164824694 $219 $442 forward 7 unknown #
coedge $-1 $345 $221 $334 $439 reversed $330 $-1 #
vertex $-1 $227 $443 #
vertex $-1 $222 $444 #
straight-curve $-1 40.815935569458134 31.105106164824694 5.4155791436952567 0 0 1 I I #
coedge $-1 $435 $224 $229 $349 reversed $216 $-1 #
vertex $-1 $225 $445 #
straight-curve $-1 23.526228833921589 -31.105106164824694 6.3427171668841353 1 0 0 I I #
coedge $-1 $226 $338 $228 $348 forward $330 $-1 #
straight-curve $-1 23.526228833921589 31.105106164824694 6.3427171668841353 -1 0 0 I I #
coedge $-1 $229 $228 $437 $446 reversed $230 $-1 #
edge $-1 $447 -15.31959940789689 $232 -6.3427171668841353 $228 $448 forward 7 unknown #
edge $-1 $449 -15.31959940789689 $231 -6.3427171668841353 $229 $450 forward 7 unknown #
point $-1 53.288979766228223 -31.105106164824694 6.3427171668841353 #
point $-1 53.288979766228223 31.105106164824694 6.3427171668841353 #
loop $-1 $-1 $357 $234 #
plane-surface $-1 40.815935569458134 0 10.831158287390513 1 0 0 0 0 -1 forward_v I I I I #
coedge $-1 $237 $362 $451 $452 forward $137 $-1 #
coedge $-1 $239 $238 $237 $356 reversed $85 $-1 #
edge $-1 $453 -24.771263170619644 $363 -7.3180816270573423 $237 $454 forward 7 unknown #
coedge $-1 $451 $455 $239 $358 forward $352 $-1 #
edge $-1 $360 -10.107676866965397 $453 -2.6964566641559413 $357 $456 forward 7 unknown #
coedge $-1 $245 $240 $455 $457 forward $235 $-1 #
vertex $-1 $457 $458 #
straight-curve $-1 16.04467239883849 -31.105106164824694 9.4794781295603592 1 0 0 I I #
coedge $-1 $354 $242 $245 $366 forward $137 $-1 #
vertex $-1 $243 $459 #
straight-curve $-1 23.362754025895832 -57.544842626800566 15.319599407896888 0 -1 0 I I #
straight-curve $-1 23.362754025895832 -31.10510616482469 9.4794781295603627 0 0.61566146476048833 0.78801076186113728 I I #
edge $-1 $246 23.362754025895832 $460 40.815935569458134 $245 $461 forward 7 unknown #
point $-1 23.362754025895832 -31.105106164824694 15.31959940789689 #
point $-1 23.362754025895832 -31.105106164824694 9.4794781295603574 #
edge $-1 $462 1 $462 0 $249 $-1 forward 7 unknown #
vertex $-1 $250 $463 #
ellipse-curve $-1 28.349377324056483 -27.153988729674051 11.095013621528064 0 -0.78801076186113728 0.61566146476048833 1 0 0 1 I I #
point $-1 29.349377324056483 -28.823704821962597 12.399538768728624 #
edge $-1 $464 1 $464 0 $253 $-1 forward 7 unknown #
vertex $-1 $254 $465 #
ellipse-curve $-1 35.829312271297461 -27.153988729674051 11.095013621528064 0 -0.78801076186113728 0.61566146476048833 1 0 0 1 I I #
point $-1 36.829312271297461 -28.823704821962597 12.399538768728624 #
plane-surface $-1 0 31.105106164824694 0 0 -1 0 0 0 -1 forward_v I I I I #
coedge $-1 $466 $381 $265 $386 forward $258 $-1 #
coedge $-1 $380 $260 $268 $391 reversed $159 $-1 #
coedge $-1 $260 $379 $466 $467 reversed $159 $-1 #
coedge $-1 $378 $468 $262 $382 forward $258 $-1 #
edge $-1 $384 7.2895212390094137 $389 11.852323924733582 $381 $469 forward 7 unknown #
coedge $-1 $268 $263 $468 $470 reversed $269 $-1 #
vertex $-1 $264 $471 #
straight-curve $-1 23.362754025895832 31.105106164824694 62.058868809963336 0 0 1 I I #
edge $-1 $389 7.3180816270573423 $387 24.771263170619637 $378 $472 forward 7 unknown #
vertex $-1 $467 $473 #
straight-curve $-1 40.815935569458134 5.7319837966166212 41.955594684859022 0 0.61566146476048833 -0.78801076186113728 I I #
vertex $-1 $386 $474 #
straight-curve $-1 23.362754025895832 -7.1953242811082276 58.5017949429905 0 0.61566146476048833 -0.78801076186113728 I I #
edge $-1 $475 -9.9040202642016339 $270 -4.0638989858651362 $268 $476 forward 7 unknown #
point $-1 40.815935569458134 31.105106164824694 9.4794781295603929 #
point $-1 23.362754025895832 31.10510616482469 9.4794781295603912 #
edge $-1 $477 1 $477 0 $273 $-1 forward 7 unknown #
vertex $-1 $274 $478 #
ellipse-curve $-1 28.349377324056483 27.153988729674055 11.095013621528064 0 0.78801076186113728 0.61566146476048833 1 0 0 1 I I #
point $-1 29.349377324056483 28.8237048219626 12.399538768728624 #
edge $-1 $479 1 $479 0 $277 $-1 forward 7 unknown #
vertex $-1 $278 $480 #
ellipse-curve $-1 35.829312271297461 27.153988729674055 11.095013621528064 0 0.78801076186113728 0.61566146476048833 1 0 0 1 I I #
point $-1 36.829312271297461 28.8237048219626 12.399538768728624 #
plane-surface $-1 53.288979766228216 0 0 -1 0 0 0 0 1 forward_v I I I I #
coedge $-1 $286 $284 $288 $407 reversed $181 $-1 #
edge $-1 $299 -15.31959940789689 $409 15.31959940789689 $298 $481 forward 7 unknown #
vertex $-1 $407 $482 #
straight-curve $-1 -53.288979766228216 -31.105106164824694 0 0 0 -1 I I #
edge $-1 $405 -31.105106164824694 $409 31.105106164824694 $403 $483 forward 7 unknown #
straight-curve $-1 0 -31.105106164824694 -15.31959940789689 -1 0 0 I I #
vertex $-1 $291 $484 #
straight-curve $-1 0 31.105106164824694 -15.31959940789689 1 0 0 I I #
point $-1 53.288979766228216 31.105106164824694 -15.31959940789689 #
point $-1 53.288979766228216 -31.105106164824694 -15.31959940789689 #
straight-curve $-1 -53.288979766228216 0 15.31959940789689 0 -1 0 I I #
point $-1 -53.288979766228216 31.105106164824694 15.31959940789689 #
point $-1 -53.288979766228216 -31.105106164824694 15.31959940789689 #
straight-curve $-1 53.288979766228216 -31.105106164824694 0 0 0 -1 I I #
straight-curve $-1 53.288979766228216 31.105106164824694 0 0 0 -1 I I #
plane-surface $-1 0 -31.105106164824694 0 0 1 0 0 0 1 forward_v I I I I #
coedge $-1 $485 $311 $321 $430 reversed $200 $-1 #
coedge $-1 $311 $485 $324 $432 forward $200 $-1 #
coedge $-1 $486 $314 $312 $422 forward $309 $-1 #
edge $-1 $423 40.815935569458127 $487 53.288979766228216 $312 $488 forward 7 unknown #
vertex $-1 $422 $489 #
straight-curve $-1 -40.815935569458127 31.105106164824694 5.4155791436952567 0 0 -1 I I #
coedge $-1 $314 $486 $316 $427 forward $309 $-1 #
straight-curve $-1 -40.815935569458127 0 15.31959940789689 0 1 0 I I #
edge $-1 $490 -53.288979766228216 $318 -40.815935569458127 $316 $491 forward 7 unknown #
point $-1 -40.815935569458127 -31.105106164824694 15.319599407896892 #
straight-curve $-1 -53.288979766228216 0 6.3427171668841353 0 -1 0 I I #
edge $-1 $490 -15.31959940789689 $322 -6.3427171668841353 $419 $492 forward 7 unknown #
point $-1 -53.288979766228216 -31.105106164824694 6.3427171668841353 #
edge $-1 $487 -15.31959940789689 $325 -6.3427171668841353 $324 $493 forward 7 unknown #
point $-1 -53.288979766228216 31.105106164824694 6.3427171668841353 #
plane-surface $-1 53.288979766228216 0 0 -1 0 0 0 0 1 forward_v I I I I #
coedge $-1 $332 $342 $333 $438 reversed $216 $-1 #
edge $-1 $440 -9.9040202642016339 $343 -0.92713802318887861 $332 $494 forward 7 unknown #
coedge $-1 $334 $333 $347 $446 forward $129 $-1 #
edge $-1 $440 40.815935569458134 $449 53.288979766228216 $435 $495 forward 7 unknown #
edge $-1 $447 -53.288979766228216 $340 -40.815935569458134 $338 $496 forward 7 unknown #
vertex $-1 $438 $497 #
straight-curve $-1 40.815935569458134 0 15.31959940789689 0 -1 0 I I #
straight-curve $-1 40.815935569458134 0 6.3427171668841353 0 1 0 I I #
point $-1 40.815935569458134 31.105106164824694 6.3427171668841353 #
point $-1 40.815935569458134 31.105106164824694 15.319599407896892 #
point $-1 40.815935569458134 -31.105106164824694 6.3427171668841353 #
edge $-1 $449 -31.105106164824694 $447 31.105106164824694 $347 $498 forward 7 unknown #
vertex $-1 $446 $499 #
straight-curve $-1 53.288979766228216 31.105106164824694 0 0 0 -1 I I #
vertex $-1 $446 $500 #
straight-curve $-1 53.288979766228216 -31.105106164824694 0 0 0 -1 I I #
coedge $-1 $455 $357 $354 $452 reversed $352 $-1 #
edge $-1 $460 -31.105106164824694 $453 -26.5423034791005 $354 $501 forward 7 unknown #
vertex $-1 $358 $502 #
straight-curve $-1 16.04467239883849 -26.542303479100504 15.31959940789689 -1 0 0 I I #
coedge $-1 $357 $451 $359 $457 reversed $352 $-1 #
straight-curve $-1 40.815935569458134 -24.882199019583073 17.444436278143954 0 0.61566146476048833 0.78801076186113728 I I #
edge $-1 $360 4.0638989858651025 $460 9.9040202642016339 $359 $503 forward 7 unknown #
point $-1 40.815935569458134 -31.105106164824694 9.4794781295603592 #
point $-1 23.362754025895832 -26.5423034791005 15.31959940789689 #
vertex $-1 $452 $504 #
straight-curve $-1 0 -31.105106164824694 15.31959940789689 1 0 0 I I #
vertex $-1 $369 $505 #
point $-1 29.349377324056483 -27.153988729674051 11.095013621528064 #
vertex $-1 $373 $506 #
point $-1 36.829312271297461 -27.153988729674051 11.095013621528064 #
coedge $-1 $468 $378 $380 $467 forward $258 $-1 #
edge $-1 $387 26.542303479100525 $475 31.105106164824694 $466 $507 forward 7 unknown #
coedge $-1 $381 $466 $383 $470 forward $258 $-1 #
straight-curve $-1 23.362754025895832 38.394627403834107 15.319599407896888 0 -1 0 I I #
edge $-1 $475 -40.815935569458134 $384 -23.362754025895832 $383 $508 forward 7 unknown #
point $-1 23.362754025895832 31.105106164824694 15.31959940789689 #
straight-curve $-1 16.04467239883849 26.542303479100525 15.319599407896888 1 0 0 I I #
point $-1 40.815935569458127 26.542303479100525 15.319599407896888 #
point $-1 23.362754025895832 26.542303479100525 15.319599407896888 #
vertex $-1 $470 $509 #
straight-curve $-1 40.815935569458134 31.105106164824694 5.4155791436952567 0 0 -1 I I #
vertex $-1 $394 $510 #
point $-1 29.349377324056483 27.153988729674055 11.095013621528064 #
vertex $-1 $398 $511 #
point $-1 36.829312271297461 27.153988729674055 11.095013621528064 #
straight-curve $-1 -53.288979766228216 31.105106164824694 0 0 0 -1 I I #
point $-1 -53.288979766228216 -31.105106164824694 -15.31959940789689 #
straight-curve $-1 -53.288979766228216 0 -15.31959940789689 0 1 0 I I #
point $-1 -53.288979766228216 31.105106164824694 -15.31959940789689 #
coedge $-1 $420 $419 $486 $512 reversed $200 $-1 #
coedge $-1 $425 $421 $485 $512 forward $309 $-1 #
vertex $-1 $422 $513 #
straight-curve $-1 0 31.105106164824694 15.31959940789689 -1 0 0 I I #
point $-1 -40.815935569458127 31.105106164824694 15.319599407896892 #
vertex $-1 $512 $514 #
straight-curve $-1 0 -31.105106164824694 15.31959940789689 1 0 0 I I #
straight-curve $-1 -53.288979766228216 -31.105106164824694 0 0 0 -1 I I #
straight-curve $-1 -53.288979766228216 31.105106164824694 0 0 0 -1 I I #
straight-curve $-1 40.815935569458134 -31.105106164824694 5.4155791436952567 0 0 -1 I I #
straight-curve $-1 0 -31.105106164824694 15.31959940789689 1 0 0 I I #
straight-curve $-1 0 31.105106164824694 15.31959940789689 -1 0 0 I I #
point $-1 40.815935569458134 -31.105106164824694 15.319599407896892 #
straight-curve $-1 53.288979766228216 0 15.31959940789689 0 1 0 I I #
point $-1 53.288979766228216 31.105106164824694 15.31959940789689 #
point $-1 53.288979766228216 -31.105106164824694 15.31959940789689 #
straight-curve $-1 40.815935569458134 0 15.31959940789689 0 1 0 I I #
point $-1 40.815935569458134 -26.5423034791005 15.31959940789689 #
straight-curve $-1 40.815935569458134 -31.105106164824694 5.4155791436952567 0 0 1 I I #
point $-1 40.815935569458134 -31.105106164824694 15.319599407896892 #
point $-1 28.349377324056483 -26.365977967812913 10.479352156767575 #
point $-1 35.829312271297461 -26.365977967812913 10.479352156767575 #
straight-curve $-1 40.815935569458134 0 15.31959940789689 0 1 0 I I #
straight-curve $-1 0 31.105106164824694 15.31959940789689 -1 0 0 I I #
point $-1 40.815935569458134 31.105106164824694 15.319599407896892 #
point $-1 28.349377324056483 26.365977967812917 10.479352156767575 #
point $-1 35.829312271297461 26.365977967812917 10.479352156767575 #
edge $-1 $487 -31.105106164824694 $490 31.105106164824694 $485 $515 forward 7 unknown #
point $-1 -53.288979766228216 31.105106164824694 15.31959940789689 #
point $-1 -53.288979766228216 -31.105106164824694 15.31959940789689 #
straight-curve $-1 -53.288979766228216 0 15.31959940789689 0 -1 0 I I #
End-of-ACIS-data 