500 0 18 0           
7 Unknown 11 ACIS 5.0 NT 24 Fri Mar 26 17:49:49 1999 
-1 9.9999999999999995e-007 1e-010 
body $-1 $18 $-1 $19 #
body $-1 $20 $-1 $21 #
body $-1 $22 $-1 $23 #
body $-1 $24 $-1 $25 #
body $-1 $26 $-1 $27 #
body $-1 $28 $-1 $29 #
body $-1 $30 $-1 $31 #
body $-1 $32 $-1 $33 #
body $-1 $34 $-1 $35 #
body $-1 $36 $-1 $37 #
body $-1 $38 $-1 $39 #
body $-1 $40 $-1 $41 #
body $-1 $42 $-1 $43 #
body $-1 $44 $-1 $45 #
body $-1 $46 $-1 $47 #
body $-1 $48 $-1 $49 #
body $-1 $50 $-1 $51 #
body $-1 $52 $-1 $53 #
lump $-1 $-1 $54 $0 #
transform $-1 1 0 0 0 1 0 0 0 1 42.116763817255162 22.471485645334951 9.4328530673337241 1 rotate no_reflect no_shear #
lump $-1 $-1 $55 $1 #
transform $-1 1 0 0 0 1 0 0 0 1 42.116763817255162 22.471485645334951 9.4328530673337241 1 rotate no_reflect no_shear #
lump $-1 $-1 $56 $2 #
transform $-1 1 0 0 0 1 0 0 0 1 42.116763817255162 22.471485645334951 9.4328530673337241 1 rotate no_reflect no_shear #
lump $-1 $-1 $57 $3 #
transform $-1 1 0 0 0 1 0 0 0 1 42.116763817255162 22.471485645334951 9.4328530673337241 1 rotate no_reflect no_shear #
lump $-1 $-1 $58 $4 #
transform $-1 1 0 0 0 1 0 0 0 1 42.116763817255162 22.471485645334951 9.4328530673337241 1 rotate no_reflect no_shear #
lump $-1 $-1 $59 $5 #
transform $-1 1 0 0 0 1 0 0 0 1 42.116763817255162 22.471485645334951 9.4328530673337241 1 rotate no_reflect no_shear #
lump $-1 $-1 $60 $6 #
transform $-1 1 0 0 0 1 0 0 0 1 42.116763817255162 22.471485645334951 9.4328530673337241 1 rotate no_reflect no_shear #
lump $-1 $-1 $61 $7 #
transform $-1 1 0 0 0 1 0 0 0 1 42.116763817255162 22.471485645334951 9.4328530673337241 1 rotate no_reflect no_shear #
lump $-1 $-1 $62 $8 #
transform $-1 1 0 0 0 1 0 0 0 1 42.116763817255162 22.471485645334951 9.4328530673337241 1 rotate no_reflect no_shear #
lump $-1 $-1 $63 $9 #
transform $-1 1 0 0 0 1 0 0 0 1 42.116763817255162 22.471485645334951 9.4328530673337241 1 rotate no_reflect no_shear #
lump $-1 $-1 $64 $10 #
transform $-1 1 0 0 0 1 0 0 0 1 42.116763817255162 22.471485645334951 9.4328530673337241 1 rotate no_reflect no_shear #
lump $-1 $-1 $65 $11 #
transform $-1 1 0 0 0 1 0 0 0 1 42.116763817255162 22.471485645334951 9.4328530673337241 1 rotate no_reflect no_shear #
lump $-1 $-1 $66 $12 #
transform $-1 1 0 0 0 1 0 0 0 1 42.116763817255162 22.471485645334951 9.4328530673337241 1 rotate no_reflect no_shear #
lump $-1 $-1 $67 $13 #
transform $-1 1 0 0 0 1 0 0 0 1 42.116763817255162 22.471485645334951 9.4328530673337241 1 rotate no_reflect no_shear #
lump $-1 $-1 $68 $14 #
transform $-1 1 0 0 0 1 0 0 0 1 42.116763817255162 22.471485645334951 9.4328530673337241 1 rotate no_reflect no_shear #
lump $-1 $-1 $69 $15 #
transform $-1 1 0 0 0 1 0 0 0 1 42.116763817255162 22.471485645334951 9.4328530673337241 1 rotate no_reflect no_shear #
lump $-1 $-1 $70 $16 #
transform $-1 1 0 0 0 1 0 0 0 1 42.116763817255162 22.471485645334951 9.4328530673337241 1 rotate no_reflect no_shear #
lump $-1 $-1 $71 $17 #
transform $-1 1 0 0 0 1 0 0 0 1 42.116763817255162 22.471485645334951 9.4328530673337241 1 rotate no_reflect no_shear #
shell $-1 $-1 $-1 $72 $-1 $18 #
shell $-1 $-1 $-1 $73 $-1 $20 #
shell $-1 $-1 $-1 $74 $-1 $22 #
shell $-1 $-1 $-1 $75 $-1 $24 #
shell $-1 $-1 $-1 $76 $-1 $26 #
shell $-1 $-1 $-1 $77 $-1 $28 #
shell $-1 $-1 $-1 $78 $-1 $30 #
shell $-1 $-1 $-1 $79 $-1 $32 #
shell $-1 $-1 $-1 $80 $-1 $34 #
shell $-1 $-1 $-1 $81 $-1 $36 #
shell $-1 $-1 $-1 $82 $-1 $38 #
shell $-1 $-1 $-1 $83 $-1 $40 #
shell $-1 $-1 $-1 $84 $-1 $42 #
shell $-1 $-1 $-1 $85 $-1 $44 #
shell $-1 $-1 $-1 $86 $-1 $46 #
shell $-1 $-1 $-1 $87 $-1 $48 #
shell $-1 $-1 $-1 $88 $-1 $50 #
shell $-1 $-1 $-1 $89 $-1 $52 #
face $-1 $90 $91 $54 $-1 $92 forward single #
face $-1 $93 $94 $55 $-1 $95 forward single #
face $-1 $96 $97 $56 $-1 $98 reversed single #
face $-1 $99 $100 $57 $-1 $101 forward single #
face $-1 $102 $103 $58 $-1 $104 forward single #
face $-1 $105 $106 $59 $-1 $107 forward single #
face $-1 $108 $109 $60 $-1 $110 reversed single #
face $-1 $111 $112 $61 $-1 $113 forward single #
face $-1 $114 $115 $62 $-1 $116 forward single #
face $-1 $117 $118 $63 $-1 $119 forward single #
face $-1 $120 $121 $64 $-1 $122 reversed single #
face $-1 $123 $124 $65 $-1 $125 forward single #
face $-1 $126 $127 $66 $-1 $128 forward single #
face $-1 $129 $130 $67 $-1 $131 forward single #
face $-1 $132 $133 $68 $-1 $134 reversed single #
face $-1 $135 $136 $69 $-1 $137 forward single #
face $-1 $138 $139 $70 $-1 $140 forward single #
face $-1 $141 $142 $71 $-1 $143 forward single #
face $-1 $144 $145 $54 $-1 $146 reversed single #
loop $-1 $-1 $147 $72 #
plane-surface $-1 0 0 9.4328530673337241 0 0 1 1 0 0 forward_v I I I I #
face $-1 $148 $149 $55 $-1 $150 reversed single #
loop $-1 $-1 $151 $73 #
plane-surface $-1 -38.34500727684329 0 -6.4328530673337241 0 0 1 1 0 0 forward_v I I I I #
face $-1 $152 $153 $56 $-1 $154 reversed single #
loop $-1 $-1 $155 $74 #
plane-surface $-1 -15.66566103052398 -86.998112112073414 56.874897054952513 1 0 0 0 0.7660444514056185 -0.64278759981090561 forward_v I I I I #
face $-1 $156 $157 $57 $-1 $158 forward single #
loop $-1 $159 $160 $75 #
cone-surface $-1 -12.308615149757347 -18.498602916999594 5.107575123527476 0 0.7660444514056185 -0.64278759981090561 1 0 0 1 I I 0 1 1 forward I I I I #
face $-1 $161 $162 $58 $-1 $163 forward single #
loop $-1 $164 $165 $76 #
cone-surface $-1 -7.2730463286073928 -18.498602916999594 5.107575123527476 0 0.7660444514056185 -0.64278759981090561 1 0 0 1 I I 0 1 1 forward I I I I #
face $-1 $166 $167 $59 $-1 $168 forward single #
loop $-1 $169 $170 $77 #
cone-surface $-1 -2.2374775074574416 -18.498602916999594 5.107575123527476 0 0.7660444514056185 -0.64278759981090561 1 0 0 1 I I 0 1 1 forward I I I I #
face $-1 $171 $172 $60 $-1 $173 reversed single #
loop $-1 $-1 $174 $78 #
plane-surface $-1 6.4239447075145488 -86.998112112073414 56.874897054952513 1 0 0 0 0.7660444514056185 -0.64278759981090561 forward_v I I I I #
face $-1 $175 $176 $61 $-1 $177 forward single #
loop $-1 $178 $179 $79 #
cone-surface $-1 9.7809905882811847 -18.498602916999594 5.107575123527476 0 0.7660444514056185 -0.64278759981090561 1 0 0 1 I I 0 1 1 forward I I I I #
face $-1 $180 $181 $62 $-1 $182 forward single #
loop $-1 $183 $184 $80 #
cone-surface $-1 14.816559409431136 -18.498602916999594 5.107575123527476 0 0.7660444514056185 -0.64278759981090561 1 0 0 1 I I 0 1 1 forward I I I I #
face $-1 $185 $186 $63 $-1 $187 forward single #
loop $-1 $188 $189 $81 #
cone-surface $-1 19.852128230581087 -18.498602916999594 5.107575123527476 0 0.7660444514056185 -0.64278759981090561 1 0 0 1 I I 0 1 1 forward I I I I #
face $-1 $190 $191 $64 $-1 $192 reversed single #
loop $-1 $-1 $193 $82 #
plane-surface $-1 -15.66566103052398 58.109327467773269 91.303210841852206 1 0 0 0 -0.7660444514056185 -0.64278759981090561 forward_v I I I I #
face $-1 $194 $195 $65 $-1 $196 forward single #
loop $-1 $197 $198 $83 #
cone-surface $-1 -12.308615149757347 18.498602916999591 5.1075751235274778 0 -0.7660444514056185 -0.64278759981090561 1 0 0 1 I I 0 1 1 forward I I I I #
face $-1 $199 $200 $66 $-1 $201 forward single #
loop $-1 $202 $203 $84 #
cone-surface $-1 -7.2730463286073928 18.498602916999591 5.1075751235274778 0 -0.7660444514056185 -0.64278759981090561 1 0 0 1 I I 0 1 1 forward I I I I #
face $-1 $204 $205 $67 $-1 $206 forward single #
loop $-1 $207 $208 $85 #
cone-surface $-1 -2.2374775074574416 18.498602916999591 5.1075751235274778 0 -0.7660444514056185 -0.64278759981090561 1 0 0 1 I I 0 1 1 forward I I I I #
face $-1 $209 $210 $68 $-1 $211 reversed single #
loop $-1 $-1 $212 $86 #
plane-surface $-1 6.4239447075145488 58.109327467773269 91.303210841852206 1 0 0 0 -0.7660444514056185 -0.64278759981090561 forward_v I I I I #
face $-1 $213 $214 $69 $-1 $215 forward single #
loop $-1 $216 $217 $87 #
cone-surface $-1 9.7809905882811847 18.498602916999591 5.1075751235274778 0 -0.7660444514056185 -0.64278759981090561 1 0 0 1 I I 0 1 1 forward I I I I #
face $-1 $218 $219 $70 $-1 $220 forward single #
loop $-1 $221 $222 $88 #
cone-surface $-1 14.816559409431136 18.498602916999591 5.1075751235274778 0 -0.7660444514056185 -0.64278759981090561 1 0 0 1 I I 0 1 1 forward I I I I #
face $-1 $223 $224 $71 $-1 $225 forward single #
loop $-1 $226 $227 $89 #
cone-surface $-1 19.852128230581087 18.498602916999591 5.1075751235274778 0 -0.7660444514056185 -0.64278759981090561 1 0 0 1 I I 0 1 1 forward I I I I #
face $-1 $228 $229 $54 $-1 $230 reversed single #
loop $-1 $-1 $231 $90 #
plane-surface $-1 0 0 -9.4328530673337241 0 0 1 1 0 0 forward_v I I I I #
coedge $-1 $232 $233 $234 $235 forward $91 $-1 #
face $-1 $236 $237 $55 $-1 $238 reversed single #
loop $-1 $-1 $239 $93 #
plane-surface $-1 -34.573250736431419 0 -7.9328530673337241 -1 0 0 0 0 1 forward_v I I I I #
coedge $-1 $240 $241 $242 $243 forward $94 $-1 #
face $-1 $244 $245 $56 $-1 $246 reversed single #
loop $-1 $-1 $247 $96 #
plane-surface $-1 -7.2730463286073928 -22.471485645334951 2.7306300031600301 0 -0.7660444514056185 0.64278759981090561 1 0 0 forward_v I I I I #
coedge $-1 $248 $249 $250 $251 reversed $97 $-1 #
face $-1 $-1 $252 $57 $-1 $253 forward single #
loop $-1 $254 $255 $99 #
cone-surface $-1 -12.308615149757347 -16.954614339950087 3.8120149119026205 0 0.7660444514056185 -0.64278759981090561 0.5 0 0 1 I I -0.70710678118654746 0.70710678118654746 0.5 forward I I I I #
loop $-1 $-1 $256 $75 #
coedge $-1 $160 $160 $257 $258 reversed $100 $-1 #
face $-1 $-1 $259 $58 $-1 $260 forward single #
loop $-1 $261 $262 $102 #
cone-surface $-1 -7.2730463286073928 -16.954614339950087 3.8120149119026205 0 0.7660444514056185 -0.64278759981090561 0.5 0 0 1 I I -0.70710678118654746 0.70710678118654746 0.5 forward I I I I #
loop $-1 $-1 $263 $76 #
coedge $-1 $165 $165 $264 $265 reversed $103 $-1 #
face $-1 $-1 $266 $59 $-1 $267 forward single #
loop $-1 $268 $269 $105 #
cone-surface $-1 -2.2374775074574416 -16.954614339950087 3.8120149119026205 0 0.7660444514056185 -0.64278759981090561 0.5 0 0 1 I I -0.70710678118654746 0.70710678118654746 0.5 forward I I I I #
loop $-1 $-1 $270 $77 #
coedge $-1 $170 $170 $271 $272 reversed $106 $-1 #
face $-1 $273 $274 $60 $-1 $275 reversed single #
loop $-1 $-1 $276 $108 #
plane-surface $-1 14.816559409431136 -22.471485645334951 2.7306300031600301 0 -0.7660444514056185 0.64278759981090561 1 0 0 forward_v I I I I #
coedge $-1 $277 $278 $279 $280 reversed $109 $-1 #
face $-1 $-1 $281 $61 $-1 $282 forward single #
loop $-1 $283 $284 $111 #
cone-surface $-1 9.7809905882811847 -16.954614339950087 3.8120149119026205 0 0.7660444514056185 -0.64278759981090561 0.5 0 0 1 I I -0.70710678118654746 0.70710678118654746 0.5 forward I I I I #
loop $-1 $-1 $285 $79 #
coedge $-1 $179 $179 $286 $287 reversed $112 $-1 #
face $-1 $-1 $288 $62 $-1 $289 forward single #
loop $-1 $290 $291 $114 #
cone-surface $-1 14.816559409431136 -16.954614339950087 3.8120149119026205 0 0.7660444514056185 -0.64278759981090561 0.5 0 0 1 I I -0.70710678118654746 0.70710678118654746 0.5 forward I I I I #
loop $-1 $-1 $292 $80 #
coedge $-1 $184 $184 $293 $294 reversed $115 $-1 #
face $-1 $-1 $295 $63 $-1 $296 forward single #
loop $-1 $297 $298 $117 #
cone-surface $-1 19.852128230581087 -16.954614339950087 3.8120149119026205 0 0.7660444514056185 -0.64278759981090561 0.5 0 0 1 I I -0.70710678118654746 0.70710678118654746 0.5 forward I I I I #
loop $-1 $-1 $299 $81 #
coedge $-1 $189 $189 $300 $301 reversed $118 $-1 #
face $-1 $302 $303 $64 $-1 $304 reversed single #
loop $-1 $-1 $305 $120 #
plane-surface $-1 -7.2730463286073928 -6.4172989989651938 37.158943790059723 0 0.7660444514056185 0.64278759981090561 1 0 0 forward_v I I I I #
coedge $-1 $306 $307 $308 $309 reversed $121 $-1 #
face $-1 $-1 $310 $65 $-1 $311 forward single #
loop $-1 $312 $313 $123 #
cone-surface $-1 -12.308615149757347 16.954614339950083 3.8120149119026223 0 -0.7660444514056185 -0.64278759981090561 0.5 0 0 1 I I -0.70710678118654746 0.70710678118654746 0.5 forward I I I I #
loop $-1 $-1 $314 $83 #
coedge $-1 $198 $198 $315 $316 reversed $124 $-1 #
face $-1 $-1 $317 $66 $-1 $318 forward single #
loop $-1 $319 $320 $126 #
cone-surface $-1 -7.2730463286073928 16.954614339950083 3.8120149119026223 0 -0.7660444514056185 -0.64278759981090561 0.5 0 0 1 I I -0.70710678118654746 0.70710678118654746 0.5 forward I I I I #
loop $-1 $-1 $321 $84 #
coedge $-1 $203 $203 $322 $323 reversed $127 $-1 #
face $-1 $-1 $324 $67 $-1 $325 forward single #
loop $-1 $326 $327 $129 #
cone-surface $-1 -2.2374775074574416 16.954614339950083 3.8120149119026223 0 -0.7660444514056185 -0.64278759981090561 0.5 0 0 1 I I -0.70710678118654746 0.70710678118654746 0.5 forward I I I I #
loop $-1 $-1 $328 $85 #
coedge $-1 $208 $208 $329 $330 reversed $130 $-1 #
face $-1 $331 $332 $68 $-1 $333 reversed single #
loop $-1 $-1 $334 $132 #
plane-surface $-1 14.816559409431136 -6.4172989989651938 37.158943790059723 0 0.7660444514056185 0.64278759981090561 1 0 0 forward_v I I I I #
coedge $-1 $335 $336 $337 $338 reversed $133 $-1 #
face $-1 $-1 $339 $69 $-1 $340 forward single #
loop $-1 $341 $342 $135 #
cone-surface $-1 9.7809905882811847 16.954614339950083 3.8120149119026223 0 -0.7660444514056185 -0.64278759981090561 0.5 0 0 1 I I -0.70710678118654746 0.70710678118654746 0.5 forward I I I I #
loop $-1 $-1 $343 $87 #
coedge $-1 $217 $217 $344 $345 reversed $136 $-1 #
face $-1 $-1 $346 $70 $-1 $347 forward single #
loop $-1 $348 $349 $138 #
cone-surface $-1 14.816559409431136 16.954614339950083 3.8120149119026223 0 -0.7660444514056185 -0.64278759981090561 0.5 0 0 1 I I -0.70710678118654746 0.70710678118654746 0.5 forward I I I I #
loop $-1 $-1 $350 $88 #
coedge $-1 $222 $222 $351 $352 reversed $139 $-1 #
face $-1 $-1 $353 $71 $-1 $354 forward single #
loop $-1 $355 $356 $141 #
cone-surface $-1 19.852128230581087 16.954614339950083 3.8120149119026223 0 -0.7660444514056185 -0.64278759981090561 0.5 0 0 1 I I -0.70710678118654746 0.70710678118654746 0.5 forward I I I I #
loop $-1 $-1 $357 $89 #
coedge $-1 $227 $227 $358 $359 reversed $142 $-1 #
face $-1 $360 $361 $54 $-1 $362 reversed single #
loop $-1 $-1 $363 $144 #
plane-surface $-1 0 -22.471485645334951 0 0 1 0 0 0 1 forward_v I I I I #
coedge $-1 $364 $365 $366 $367 forward $145 $-1 #
coedge $-1 $368 $147 $369 $370 forward $91 $-1 #
coedge $-1 $147 $368 $371 $372 forward $91 $-1 #
coedge $-1 $373 $374 $147 $235 reversed $375 $-1 #
edge $-1 $376 -22.471485645334951 $377 22.471485645334951 $234 $378 forward 7 unknown #
face $-1 $379 $380 $55 $-1 $381 reversed single #
loop $-1 $-1 $382 $148 #
plane-surface $-1 0 0 -9.4328530673337241 0 0 1 1 0 0 forward_v I I I I #
coedge $-1 $383 $242 $384 $385 reversed $149 $-1 #
coedge $-1 $386 $151 $387 $388 reversed $94 $-1 #
coedge $-1 $151 $386 $389 $390 reversed $94 $-1 #
coedge $-1 $239 $391 $151 $243 reversed $149 $-1 #
edge $-1 $392 -22.471485645334951 $393 22.471485645334951 $242 $394 forward 7 unknown #
face $-1 $395 $396 $56 $-1 $397 forward single #
loop $-1 $-1 $398 $152 #
plane-surface $-1 1.1195683733091943 -86.998112112073414 56.874897054952513 -1 0 0 0 -0.7660444514056185 0.64278759981090561 forward_v I I I I #
coedge $-1 $399 $400 $401 $402 reversed $153 $-1 #
coedge $-1 $249 $155 $403 $404 reversed $97 $-1 #
coedge $-1 $155 $248 $399 $405 reversed $97 $-1 #
coedge $-1 $401 $406 $155 $251 forward $407 $-1 #
edge $-1 $408 19.004595460142532 $409 25.706818524316226 $250 $410 forward 7 unknown #
loop $-1 $-1 $257 $156 #
plane-surface $-1 -7.2730463286073928 -22.471485645334951 2.7306300031600301 0 -0.7660444514056185 0.64278759981090561 1 0 0 forward_v I I I I #
loop $-1 $-1 $411 $99 #
coedge $-1 $255 $255 $256 $412 reversed $157 $-1 #
coedge $-1 $256 $256 $255 $412 forward $159 $-1 #
coedge $-1 $257 $257 $160 $258 forward $252 $-1 #
edge $-1 $413 -1.6032561481420549e-015 $413 6.2831853071795987 $257 $414 forward 7 unknown #
loop $-1 $-1 $264 $161 #
plane-surface $-1 -7.2730463286073928 -22.471485645334951 2.7306300031600301 0 -0.7660444514056185 0.64278759981090561 1 0 0 forward_v I I I I #
loop $-1 $-1 $415 $102 #
coedge $-1 $262 $262 $263 $416 reversed $162 $-1 #
coedge $-1 $263 $263 $262 $416 forward $164 $-1 #
coedge $-1 $264 $264 $165 $265 forward $259 $-1 #
edge $-1 $417 -1.6032561481420549e-015 $417 6.2831853071795987 $264 $418 forward 7 unknown #
loop $-1 $-1 $271 $166 #
plane-surface $-1 -7.2730463286073928 -22.471485645334951 2.7306300031600301 0 -0.7660444514056185 0.64278759981090561 1 0 0 forward_v I I I I #
loop $-1 $-1 $419 $105 #
coedge $-1 $269 $269 $270 $420 reversed $167 $-1 #
coedge $-1 $270 $270 $269 $420 forward $169 $-1 #
coedge $-1 $271 $271 $170 $272 forward $266 $-1 #
edge $-1 $421 -1.6032561481420549e-015 $421 6.2831853071795987 $271 $422 forward 7 unknown #
face $-1 $423 $424 $60 $-1 $425 reversed single #
loop $-1 $-1 $426 $171 #
plane-surface $-1 23.209174111347721 -86.998112112073414 56.874897054952513 -1 0 0 0 -0.7660444514056185 0.64278759981090561 forward_v I I I I #
coedge $-1 $427 $428 $429 $430 reversed $172 $-1 #
coedge $-1 $278 $174 $431 $432 reversed $109 $-1 #
coedge $-1 $174 $277 $427 $433 reversed $109 $-1 #
coedge $-1 $429 $434 $174 $280 forward $424 $-1 #
edge $-1 $435 19.004595460142532 $436 25.706818524316226 $279 $437 forward 7 unknown #
loop $-1 $-1 $286 $175 #
plane-surface $-1 14.816559409431136 -22.471485645334951 2.7306300031600301 0 -0.7660444514056185 0.64278759981090561 1 0 0 forward_v I I I I #
loop $-1 $-1 $438 $111 #
coedge $-1 $284 $284 $285 $439 reversed $176 $-1 #
coedge $-1 $285 $285 $284 $439 forward $178 $-1 #
coedge $-1 $286 $286 $179 $287 forward $281 $-1 #
edge $-1 $440 -1.6032561481420549e-015 $440 6.2831853071795987 $286 $441 forward 7 unknown #
loop $-1 $-1 $293 $180 #
plane-surface $-1 14.816559409431136 -22.471485645334951 2.7306300031600301 0 -0.7660444514056185 0.64278759981090561 1 0 0 forward_v I I I I #
loop $-1 $-1 $442 $114 #
coedge $-1 $291 $291 $292 $443 reversed $181 $-1 #
coedge $-1 $292 $292 $291 $443 forward $183 $-1 #
coedge $-1 $293 $293 $184 $294 forward $288 $-1 #
edge $-1 $444 -1.6032561481420549e-015 $444 6.2831853071795987 $293 $445 forward 7 unknown #
loop $-1 $-1 $300 $185 #
plane-surface $-1 14.816559409431136 -22.471485645334951 2.7306300031600301 0 -0.7660444514056185 0.64278759981090561 1 0 0 forward_v I I I I #
loop $-1 $-1 $446 $117 #
coedge $-1 $298 $298 $299 $447 reversed $186 $-1 #
coedge $-1 $299 $299 $298 $447 forward $188 $-1 #
coedge $-1 $300 $300 $189 $301 forward $295 $-1 #
edge $-1 $448 -1.6032561481420549e-015 $448 6.2831853071795987 $300 $449 forward 7 unknown #
face $-1 $450 $451 $64 $-1 $452 reversed single #
loop $-1 $-1 $453 $190 #
plane-surface $-1 1.1195683733091943 58.109327467773269 91.303210841852206 -1 0 0 0 0.7660444514056185 0.64278759981090561 forward_v I I I I #
coedge $-1 $454 $455 $456 $457 reversed $191 $-1 #
coedge $-1 $307 $193 $458 $459 reversed $121 $-1 #
coedge $-1 $193 $306 $454 $460 reversed $121 $-1 #
coedge $-1 $456 $461 $193 $309 forward $462 $-1 #
edge $-1 $463 6.5831780885516835 $464 12.207010842528994 $308 $465 forward 7 unknown #
loop $-1 $-1 $315 $194 #
plane-surface $-1 -7.2730463286073928 -6.4172989989651938 37.158943790059723 0 0.7660444514056185 0.64278759981090561 1 0 0 forward_v I I I I #
loop $-1 $-1 $466 $123 #
coedge $-1 $313 $313 $314 $467 reversed $195 $-1 #
coedge $-1 $314 $314 $313 $467 forward $197 $-1 #
coedge $-1 $315 $315 $198 $316 forward $310 $-1 #
edge $-1 $468 1.7986646032054033e-015 $468 6.2831853071796022 $315 $469 forward 7 unknown #
loop $-1 $-1 $322 $199 #
plane-surface $-1 -7.2730463286073928 -6.4172989989651938 37.158943790059723 0 0.7660444514056185 0.64278759981090561 1 0 0 forward_v I I I I #
loop $-1 $-1 $470 $126 #
coedge $-1 $320 $320 $321 $471 reversed $200 $-1 #
coedge $-1 $321 $321 $320 $471 forward $202 $-1 #
coedge $-1 $322 $322 $203 $323 forward $317 $-1 #
edge $-1 $472 1.7986646032054033e-015 $472 6.2831853071796022 $322 $473 forward 7 unknown #
loop $-1 $-1 $329 $204 #
plane-surface $-1 -7.2730463286073928 -6.4172989989651938 37.158943790059723 0 0.7660444514056185 0.64278759981090561 1 0 0 forward_v I I I I #
loop $-1 $-1 $474 $129 #
coedge $-1 $327 $327 $328 $475 reversed $205 $-1 #
coedge $-1 $328 $328 $327 $475 forward $207 $-1 #
coedge $-1 $329 $329 $208 $330 forward $324 $-1 #
edge $-1 $476 1.7986646032054033e-015 $476 6.2831853071796022 $329 $477 forward 7 unknown #
face $-1 $478 $479 $68 $-1 $480 forward single #
loop $-1 $-1 $481 $209 #
plane-surface $-1 23.209174111347721 58.109327467773269 91.303210841852206 -1 0 0 0 0.7660444514056185 0.64278759981090561 forward_v I I I I #
coedge $-1 $482 $483 $484 $485 reversed $210 $-1 #
coedge $-1 $336 $212 $486 $487 reversed $133 $-1 #
coedge $-1 $212 $335 $482 $488 reversed $133 $-1 #
coedge $-1 $484 $489 $212 $338 forward $479 $-1 #
edge $-1 $490 6.5831780885516835 $491 12.207010842528994 $337 $492 forward 7 unknown #
loop $-1 $-1 $344 $213 #
plane-surface $-1 14.816559409431136 -6.4172989989651938 37.158943790059723 0 0.7660444514056185 0.64278759981090561 1 0 0 forward_v I I I I #
loop $-1 $-1 $493 $135 #
coedge $-1 $342 $342 $343 $494 reversed $214 $-1 #
coedge $-1 $343 $343 $342 $494 forward $216 $-1 #
coedge $-1 $344 $344 $217 $345 forward $339 $-1 #
edge $-1 $495 1.7986646032054033e-015 $495 6.2831853071796022 $344 $496 forward 7 unknown #
loop $-1 $-1 $351 $218 #
plane-surface $-1 14.816559409431136 -6.4172989989651938 37.158943790059723 0 0.7660444514056185 0.64278759981090561 1 0 0 forward_v I I I I #
loop $-1 $-1 $497 $138 #
coedge $-1 $349 $349 $350 $498 reversed $219 $-1 #
coedge $-1 $350 $350 $349 $498 forward $221 $-1 #
coedge $-1 $351 $351 $222 $352 forward $346 $-1 #
edge $-1 $499 1.7986646032054033e-015 $499 6.2831853071796022 $351 $500 forward 7 unknown #
loop $-1 $-1 $358 $223 #
plane-surface $-1 14.816559409431136 -6.4172989989651938 37.158943790059723 0 0.7660444514056185 0.64278759981090561 1 0 0 forward_v I I I I #
loop $-1 $-1 $501 $141 #
coedge $-1 $356 $356 $357 $502 reversed $224 $-1 #
coedge $-1 $357 $357 $356 $502 forward $226 $-1 #
coedge $-1 $358 $358 $227 $359 forward $353 $-1 #
edge $-1 $503 1.7986646032054033e-015 $503 6.2831853071796022 $358 $504 forward 7 unknown #
face $-1 $505 $506 $54 $-1 $507 reversed single #
loop $-1 $-1 $508 $228 #
plane-surface $-1 -42.116763817255162 0 0 1 0 0 0 0 -1 forward_v I I I I #
coedge $-1 $509 $371 $510 $511 forward $229 $-1 #
coedge $-1 $512 $231 $509 $513 forward $145 $-1 #
coedge $-1 $231 $512 $514 $515 forward $145 $-1 #
coedge $-1 $374 $373 $231 $367 reversed $375 $-1 #
edge $-1 $516 -22.471485645334951 $517 22.471485645334951 $366 $518 forward 7 unknown #
coedge $-1 $233 $232 $519 $520 forward $91 $-1 #
coedge $-1 $521 $522 $232 $370 reversed $506 $-1 #
edge $-1 $377 -42.116763817255162 $523 42.116763817255162 $369 $524 forward 7 unknown #
coedge $-1 $363 $525 $233 $372 reversed $229 $-1 #
edge $-1 $526 -42.116763817255162 $376 42.116763817255162 $371 $527 forward 7 unknown #
coedge $-1 $366 $234 $525 $528 forward $375 $-1 #
coedge $-1 $234 $366 $521 $529 reversed $375 $-1 #
loop $-1 $-1 $373 $505 #
vertex $-1 $235 $530 #
vertex $-1 $235 $531 #
straight-curve $-1 42.116763817255162 0 9.4328530673337241 0 1 0 I I #
face $-1 $532 $533 $55 $-1 $534 reversed single #
loop $-1 $-1 $384 $236 #
plane-surface $-1 0 -22.471485645334951 0 0 1 0 0 0 1 forward_v I I I I #
coedge $-1 $535 $536 $383 $537 forward $237 $-1 #
coedge $-1 $391 $239 $382 $537 reversed $149 $-1 #
coedge $-1 $389 $538 $239 $385 forward $380 $-1 #
edge $-1 $539 -5.466426533666862 $392 -2.466426533666862 $384 $540 forward 7 unknown #
coedge $-1 $241 $240 $541 $542 reversed $94 $-1 #
coedge $-1 $543 $544 $240 $388 forward $545 $-1 #
edge $-1 $546 -22.944260178833517 $393 -15.400747098009774 $387 $547 forward 7 unknown #
coedge $-1 $548 $384 $241 $390 forward $380 $-1 #
edge $-1 $392 15.400747098009774 $549 22.944260178833517 $389 $550 forward 7 unknown #
coedge $-1 $242 $383 $543 $551 reversed $149 $-1 #
vertex $-1 $390 $552 #
vertex $-1 $388 $553 #
straight-curve $-1 -34.573250736431419 0 -6.4328530673337241 0 1 0 I I #
face $-1 $-1 $407 $56 $-1 $554 reversed single #
loop $-1 $-1 $555 $244 #
plane-surface $-1 0 0 9.4328530673337241 0 0 1 1 0 0 forward_v I I I I #
coedge $-1 $556 $557 $558 $559 reversed $245 $-1 #
coedge $-1 $560 $247 $249 $405 forward $153 $-1 #
coedge $-1 $247 $560 $556 $561 forward $153 $-1 #
coedge $-1 $558 $250 $247 $402 forward $407 $-1 #
edge $-1 $409 -12.029137866220283 $562 4.7560915376128907 $401 $563 forward 7 unknown #
coedge $-1 $564 $565 $248 $404 forward $396 $-1 #
edge $-1 $566 -26.651403164679074 $408 -21.027570410701756 $403 $567 forward 7 unknown #
edge $-1 $409 0 $566 8.7491307480600593 $249 $568 forward 7 unknown #
coedge $-1 $250 $558 $564 $569 reversed $407 $-1 #
loop $-1 $-1 $558 $395 #
vertex $-1 $569 $570 #
vertex $-1 $251 $571 #
straight-curve $-1 -15.66566103052398 -22.471485645334951 28.437448527476256 0 0 -1 I I #
coedge $-1 $411 $411 $-1 $572 reversed $254 $-1 #
edge $-1 $573 0 $573 6.2831853071796004 $255 $574 forward 7 unknown #
vertex $-1 $258 $575 #
ellipse-curve $-1 -12.308615149757347 -19.659569268346292 6.0817415352468771 0 -0.7660444514056185 0.64278759981090561 1 0 0 1 I I #
coedge $-1 $415 $415 $-1 $576 reversed $261 $-1 #
edge $-1 $577 0 $577 6.2831853071796004 $262 $578 forward 7 unknown #
vertex $-1 $265 $579 #
ellipse-curve $-1 -7.2730463286073928 -19.659569268346292 6.0817415352468771 0 -0.7660444514056185 0.64278759981090561 1 0 0 1 I I #
coedge $-1 $419 $419 $-1 $580 reversed $268 $-1 #
edge $-1 $581 0 $581 6.2831853071796004 $269 $582 forward 7 unknown #
vertex $-1 $272 $583 #
ellipse-curve $-1 -2.2374775074574416 -19.659569268346292 6.0817415352468771 0 -0.7660444514056185 0.64278759981090561 1 0 0 1 I I #
face $-1 $-1 $584 $60 $-1 $585 forward single #
loop $-1 $-1 $279 $273 #
plane-surface $-1 0 -22.471485645334951 0 0 1 0 0 0 1 forward_v I I I I #
coedge $-1 $586 $587 $588 $589 reversed $274 $-1 #
coedge $-1 $590 $276 $278 $433 forward $172 $-1 #
coedge $-1 $276 $590 $586 $591 forward $172 $-1 #
coedge $-1 $588 $279 $276 $430 forward $424 $-1 #
edge $-1 $436 -0.98433499720101914 $592 15.800894406632153 $429 $593 forward 7 unknown #
coedge $-1 $594 $595 $277 $432 forward $584 $-1 #
edge $-1 $596 -26.651403164679074 $435 -21.027570410701756 $431 $597 forward 7 unknown #
edge $-1 $436 0 $596 8.7491307480600593 $278 $598 forward 7 unknown #
coedge $-1 $279 $588 $594 $599 reversed $424 $-1 #
vertex $-1 $599 $600 #
vertex $-1 $280 $601 #
straight-curve $-1 6.4239447075145488 -22.471485645334951 28.437448527476256 0 0 -1 I I #
coedge $-1 $438 $438 $-1 $602 reversed $283 $-1 #
edge $-1 $603 0 $603 6.2831853071796004 $284 $604 forward 7 unknown #
vertex $-1 $287 $605 #
ellipse-curve $-1 9.7809905882811847 -19.659569268346292 6.0817415352468771 0 -0.7660444514056185 0.64278759981090561 1 0 0 1 I I #
coedge $-1 $442 $442 $-1 $606 reversed $290 $-1 #
edge $-1 $607 0 $607 6.2831853071796004 $291 $608 forward 7 unknown #
vertex $-1 $294 $609 #
ellipse-curve $-1 14.816559409431136 -19.659569268346292 6.0817415352468771 0 -0.7660444514056185 0.64278759981090561 1 0 0 1 I I #
coedge $-1 $446 $446 $-1 $610 reversed $297 $-1 #
edge $-1 $611 0 $611 6.2831853071796004 $298 $612 forward 7 unknown #
vertex $-1 $301 $613 #
ellipse-curve $-1 19.852128230581087 -19.659569268346292 6.0817415352468771 0 -0.7660444514056185 0.64278759981090561 1 0 0 1 I I #
face $-1 $-1 $462 $64 $-1 $614 forward single #
loop $-1 $-1 $615 $302 #
plane-surface $-1 0 22.471485645334951 0 0 -1 0 0 0 -1 forward_v I I I I #
coedge $-1 $616 $617 $618 $619 reversed $303 $-1 #
coedge $-1 $620 $305 $307 $460 forward $191 $-1 #
coedge $-1 $305 $620 $616 $621 forward $191 $-1 #
coedge $-1 $618 $308 $305 $457 forward $462 $-1 #
edge $-1 $464 -12.029137866220283 $622 4.7560915376128907 $456 $623 forward 7 unknown #
coedge $-1 $624 $625 $306 $459 forward $451 $-1 #
edge $-1 $626 -42.920975417766066 $463 -36.218752353592379 $458 $627 forward 7 unknown #
edge $-1 $464 36.193840542609863 $626 44.942971290669909 $307 $628 forward 7 unknown #
coedge $-1 $308 $618 $624 $629 forward $462 $-1 #
loop $-1 $-1 $618 $450 #
vertex $-1 $459 $630 #
vertex $-1 $309 $631 #
straight-curve $-1 -15.66566103052398 29.054663733886635 9.4328530673337241 0 -1 0 I I #
coedge $-1 $466 $466 $-1 $632 reversed $312 $-1 #
edge $-1 $633 0 $633 6.2831853071796004 $313 $634 forward 7 unknown #
vertex $-1 $316 $635 #
ellipse-curve $-1 -12.308615149757347 19.659569268346296 6.0817415352468851 0 0.7660444514056185 0.64278759981090561 1 0 0 1 I I #
coedge $-1 $470 $470 $-1 $636 reversed $319 $-1 #
edge $-1 $637 0 $637 6.2831853071796004 $320 $638 forward 7 unknown #
vertex $-1 $323 $639 #
ellipse-curve $-1 -7.2730463286073928 19.659569268346296 6.0817415352468851 0 0.7660444514056185 0.64278759981090561 1 0 0 1 I I #
coedge $-1 $474 $474 $-1 $640 reversed $326 $-1 #
edge $-1 $641 0 $641 6.2831853071796004 $327 $642 forward 7 unknown #
vertex $-1 $330 $643 #
ellipse-curve $-1 -2.2374775074574416 19.659569268346296 6.0817415352468851 0 0.7660444514056185 0.64278759981090561 1 0 0 1 I I #
face $-1 $-1 $644 $68 $-1 $645 reversed single #
loop $-1 $-1 $337 $331 #
plane-surface $-1 0 0 9.4328530673337241 0 0 1 1 0 0 forward_v I I I I #
coedge $-1 $646 $647 $648 $649 reversed $332 $-1 #
coedge $-1 $650 $334 $336 $488 forward $210 $-1 #
coedge $-1 $334 $650 $646 $651 forward $210 $-1 #
coedge $-1 $648 $337 $334 $485 forward $479 $-1 #
edge $-1 $491 -0.98433499720101914 $652 15.800894406632153 $484 $653 forward 7 unknown #
coedge $-1 $654 $655 $335 $487 forward $644 $-1 #
edge $-1 $656 -42.920975417766066 $490 -36.218752353592379 $486 $657 forward 7 unknown #
edge $-1 $491 36.193840542609863 $656 44.942971290669909 $336 $658 forward 7 unknown #
coedge $-1 $337 $648 $654 $659 forward $479 $-1 #
vertex $-1 $487 $660 #
vertex $-1 $338 $661 #
straight-curve $-1 6.4239447075145488 29.054663733886635 9.4328530673337241 0 -1 0 I I #
coedge $-1 $493 $493 $-1 $662 reversed $341 $-1 #
edge $-1 $663 0 $663 6.2831853071796004 $342 $664 forward 7 unknown #
vertex $-1 $345 $665 #
ellipse-curve $-1 9.7809905882811847 19.659569268346296 6.0817415352468851 0 0.7660444514056185 0.64278759981090561 1 0 0 1 I I #
coedge $-1 $497 $497 $-1 $666 reversed $348 $-1 #
edge $-1 $667 0 $667 6.2831853071796004 $349 $668 forward 7 unknown #
vertex $-1 $352 $669 #
ellipse-curve $-1 14.816559409431136 19.659569268346296 6.0817415352468851 0 0.7660444514056185 0.64278759981090561 1 0 0 1 I I #
coedge $-1 $501 $501 $-1 $670 reversed $355 $-1 #
edge $-1 $671 0 $671 6.2831853071796004 $356 $672 forward 7 unknown #
vertex $-1 $359 $673 #
ellipse-curve $-1 19.852128230581087 19.659569268346296 6.0817415352468851 0 0.7660444514056185 0.64278759981090561 1 0 0 1 I I #
face $-1 $-1 $375 $54 $-1 $674 reversed single #
loop $-1 $-1 $521 $360 #
plane-surface $-1 0 22.471485645334951 0 0 -1 0 0 0 -1 forward_v I I I I #
coedge $-1 $675 $519 $522 $676 forward $361 $-1 #
coedge $-1 $525 $363 $364 $513 reversed $229 $-1 #
coedge $-1 $519 $675 $363 $511 reversed $361 $-1 #
edge $-1 $526 -9.4328530673337241 $677 9.4328530673337241 $510 $678 forward 7 unknown #
coedge $-1 $365 $364 $675 $679 forward $145 $-1 #
edge $-1 $517 -42.116763817255162 $677 42.116763817255162 $509 $680 forward 7 unknown #
coedge $-1 $522 $521 $365 $515 reversed $506 $-1 #
edge $-1 $681 -42.116763817255162 $516 42.116763817255162 $514 $682 forward 7 unknown #
vertex $-1 $367 $683 #
vertex $-1 $528 $684 #
straight-curve $-1 42.116763817255162 0 -9.4328530673337241 0 -1 0 I I #
coedge $-1 $508 $510 $368 $520 reversed $361 $-1 #
edge $-1 $523 -22.471485645334951 $526 22.471485645334951 $519 $685 forward 7 unknown #
coedge $-1 $514 $369 $374 $529 forward $506 $-1 #
coedge $-1 $369 $514 $508 $676 reversed $506 $-1 #
vertex $-1 $370 $686 #
straight-curve $-1 0 22.471485645334951 9.4328530673337241 -1 0 0 I I #
coedge $-1 $371 $509 $373 $528 reversed $229 $-1 #
vertex $-1 $520 $687 #
straight-curve $-1 0 -22.471485645334951 9.4328530673337241 1 0 0 I I #
edge $-1 $376 -9.4328530673337241 $517 9.4328530673337241 $373 $688 forward 7 unknown #
edge $-1 $377 -9.4328530673337241 $516 9.4328530673337241 $374 $689 forward 7 unknown #
point $-1 42.116763817255162 -22.471485645334951 9.4328530673337241 #
point $-1 42.116763817255162 22.471485645334951 9.4328530673337241 #
face $-1 $-1 $545 $55 $-1 $690 reversed single #
loop $-1 $-1 $541 $379 #
plane-surface $-1 -42.116763817255162 0 0 1 0 0 0 0 -1 forward_v I I I I #
coedge $-1 $691 $382 $538 $692 forward $237 $-1 #
coedge $-1 $382 $691 $693 $694 forward $237 $-1 #
edge $-1 $695 -22.471485645334951 $539 22.471485645334951 $382 $696 forward 7 unknown #
coedge $-1 $384 $548 $535 $692 reversed $380 $-1 #
vertex $-1 $692 $697 #
straight-curve $-1 -34.573250736431419 -22.471485645334951 -3.966426533666862 0 0 1 I I #
coedge $-1 $698 $699 $386 $542 forward $533 $-1 #
edge $-1 $549 -22.471485645334951 $546 22.471485645334951 $541 $700 forward 7 unknown #
coedge $-1 $693 $387 $391 $551 forward $545 $-1 #
coedge $-1 $387 $693 $698 $701 reversed $545 $-1 #
loop $-1 $-1 $543 $532 #
vertex $-1 $701 $702 #
straight-curve $-1 -19.172503638421645 22.471485645334951 -6.4328530673337241 1 0 0 I I #
coedge $-1 $538 $389 $699 $703 forward $380 $-1 #
vertex $-1 $703 $704 #
straight-curve $-1 -19.172503638421645 -22.471485645334951 -6.4328530673337241 -1 0 0 I I #
edge $-1 $393 2.466426533666862 $695 5.466426533666862 $543 $705 forward 7 unknown #
point $-1 -34.573250736431419 -22.471485645334951 -6.4328530673337241 #
point $-1 -34.573250736431419 22.471485645334951 -6.4328530673337241 #
plane-surface $-1 0 -22.471485645334951 0 0 1 0 0 0 1 forward_v I I I I #
coedge $-1 $565 $564 $557 $706 forward $396 $-1 #
coedge $-1 $557 $398 $400 $561 reversed $245 $-1 #
coedge $-1 $398 $556 $555 $706 reversed $245 $-1 #
coedge $-1 $406 $401 $398 $559 forward $407 $-1 #
edge $-1 $562 -25.706818524316226 $707 -19.004595460142532 $558 $708 forward 7 unknown #
coedge $-1 $400 $399 $565 $709 reversed $153 $-1 #
edge $-1 $710 -8.7491307480600593 $562 0 $556 $711 forward 7 unknown #
vertex $-1 $402 $712 #
straight-curve $-1 -3.6365231643036964 -22.471485645334951 2.7306300031600288 1 0 0 I I #
coedge $-1 $555 $403 $406 $569 forward $396 $-1 #
coedge $-1 $403 $555 $560 $709 forward $396 $-1 #
vertex $-1 $404 $713 #
straight-curve $-1 -15.66566103052398 -43.499056056036707 9.4328530673337241 0 -1 0 I I #
straight-curve $-1 -15.66566103052398 -22.471485645334951 2.7306300031600301 0 0.64278759981090561 0.7660444514056185 I I #
edge $-1 $408 -15.66566103052398 $707 1.1195683733091943 $406 $714 forward 7 unknown #
point $-1 -15.66566103052398 -22.471485645334951 9.4328530673337241 #
point $-1 -15.66566103052398 -22.471485645334951 2.7306300031600301 #
edge $-1 $715 1 $715 0 $411 $-1 forward 7 unknown #
vertex $-1 $412 $716 #
ellipse-curve $-1 -12.308615149757347 -17.337636565652897 4.1334087118080731 0 -0.7660444514056185 0.64278759981090561 1 0 0 1 I I #
point $-1 -11.308615149757347 -19.659569268346296 6.081741535246878 #
edge $-1 $717 1 $717 0 $415 $-1 forward 7 unknown #
vertex $-1 $416 $718 #
ellipse-curve $-1 -7.2730463286073928 -17.337636565652897 4.1334087118080731 0 -0.7660444514056185 0.64278759981090561 1 0 0 1 I I #
point $-1 -6.2730463286073928 -19.659569268346296 6.081741535246878 #
edge $-1 $719 1 $719 0 $419 $-1 forward 7 unknown #
vertex $-1 $420 $720 #
ellipse-curve $-1 -2.2374775074574416 -17.337636565652897 4.1334087118080731 0 -0.7660444514056185 0.64278759981090561 1 0 0 1 I I #
point $-1 -1.2374775074574416 -19.659569268346296 6.081741535246878 #
loop $-1 $-1 $431 $423 #
plane-surface $-1 0 0 9.4328530673337241 0 0 1 1 0 0 forward_v I I I I #
coedge $-1 $587 $426 $428 $591 reversed $274 $-1 #
coedge $-1 $426 $586 $721 $722 reversed $274 $-1 #
coedge $-1 $434 $429 $426 $589 forward $424 $-1 #
edge $-1 $592 -25.706818524316226 $723 -19.004595460142532 $588 $724 forward 7 unknown #
coedge $-1 $428 $427 $595 $725 reversed $172 $-1 #
edge $-1 $726 -8.7491307480600593 $592 0 $586 $727 forward 7 unknown #
vertex $-1 $430 $728 #
straight-curve $-1 7.408279704715568 -22.471485645334951 2.7306300031600288 1 0 0 I I #
coedge $-1 $721 $431 $434 $599 forward $584 $-1 #
coedge $-1 $431 $721 $590 $725 forward $584 $-1 #
vertex $-1 $432 $729 #
straight-curve $-1 6.4239447075145488 -43.499056056036707 9.4328530673337241 0 -1 0 I I #
straight-curve $-1 6.4239447075145488 -22.471485645334951 2.7306300031600301 0 0.64278759981090561 0.7660444514056185 I I #
edge $-1 $435 6.4239447075145488 $723 23.209174111347721 $434 $730 forward 7 unknown #
point $-1 6.4239447075145488 -22.471485645334951 9.4328530673337241 #
point $-1 6.4239447075145488 -22.471485645334951 2.7306300031600301 #
edge $-1 $731 1 $731 0 $438 $-1 forward 7 unknown #
vertex $-1 $439 $732 #
ellipse-curve $-1 9.7809905882811847 -17.337636565652897 4.1334087118080731 0 -0.7660444514056185 0.64278759981090561 1 0 0 1 I I #
point $-1 10.780990588281185 -19.659569268346296 6.081741535246878 #
edge $-1 $733 1 $733 0 $442 $-1 forward 7 unknown #
vertex $-1 $443 $734 #
ellipse-curve $-1 14.816559409431136 -17.337636565652897 4.1334087118080731 0 -0.7660444514056185 0.64278759981090561 1 0 0 1 I I #
point $-1 15.816559409431136 -19.659569268346296 6.081741535246878 #
edge $-1 $735 1 $735 0 $446 $-1 forward 7 unknown #
vertex $-1 $447 $736 #
ellipse-curve $-1 19.852128230581087 -17.337636565652897 4.1334087118080731 0 -0.7660444514056185 0.64278759981090561 1 0 0 1 I I #
point $-1 20.852128230581087 -19.659569268346296 6.081741535246878 #
plane-surface $-1 0 0 9.4328530673337241 0 0 1 1 0 0 forward_v I I I I #
coedge $-1 $625 $624 $617 $737 forward $451 $-1 #
coedge $-1 $617 $453 $455 $621 reversed $303 $-1 #
coedge $-1 $453 $616 $615 $737 reversed $303 $-1 #
coedge $-1 $461 $456 $453 $619 forward $462 $-1 #
edge $-1 $622 -12.207010842528994 $738 -6.5831780885516835 $618 $739 forward 7 unknown #
coedge $-1 $455 $454 $625 $740 reversed $191 $-1 #
edge $-1 $741 -44.942971290669909 $622 -36.193840542609863 $616 $742 forward 7 unknown #
vertex $-1 $457 $743 #
straight-curve $-1 -3.6365231643036964 16.84765289135764 9.4328530673337241 1 0 0 I I #
coedge $-1 $615 $458 $461 $629 reversed $451 $-1 #
coedge $-1 $458 $615 $620 $740 forward $451 $-1 #
vertex $-1 $459 $744 #
straight-curve $-1 -15.66566103052398 22.471485645334951 45.651605420926103 0 0 1 I I #
straight-curve $-1 -15.66566103052398 -6.4172989989651938 37.158943790059723 0 0.64278759981090561 -0.7660444514056185 I I #
edge $-1 $738 -1.1195683733091943 $463 15.66566103052398 $624 $745 forward 7 unknown #
point $-1 -15.66566103052398 22.471485645334951 9.4328530673337241 #
point $-1 -15.66566103052398 16.84765289135764 9.4328530673337241 #
edge $-1 $746 1 $746 0 $466 $-1 forward 7 unknown #
vertex $-1 $467 $747 #
ellipse-curve $-1 -12.308615149757347 17.337636565652893 4.1334087118080749 0 0.7660444514056185 0.64278759981090561 1 0 0 1 I I #
point $-1 -11.308615149757347 19.659569268346292 6.0817415352468798 #
edge $-1 $748 1 $748 0 $470 $-1 forward 7 unknown #
vertex $-1 $471 $749 #
ellipse-curve $-1 -7.2730463286073928 17.337636565652893 4.1334087118080749 0 0.7660444514056185 0.64278759981090561 1 0 0 1 I I #
point $-1 -6.2730463286073928 19.659569268346292 6.0817415352468798 #
edge $-1 $750 1 $750 0 $474 $-1 forward 7 unknown #
vertex $-1 $475 $751 #
ellipse-curve $-1 -2.2374775074574416 17.337636565652893 4.1334087118080749 0 0.7660444514056185 0.64278759981090561 1 0 0 1 I I #
point $-1 -1.2374775074574416 19.659569268346292 6.0817415352468798 #
loop $-1 $-1 $486 $478 #
plane-surface $-1 0 22.471485645334951 0 0 -1 0 0 0 -1 forward_v I I I I #
coedge $-1 $647 $481 $483 $651 reversed $332 $-1 #
coedge $-1 $481 $646 $752 $753 reversed $332 $-1 #
coedge $-1 $489 $484 $481 $649 forward $479 $-1 #
edge $-1 $652 -12.207010842528994 $754 -6.5831780885516835 $648 $755 forward 7 unknown #
coedge $-1 $483 $482 $655 $756 reversed $210 $-1 #
edge $-1 $757 -44.942971290669909 $652 -36.193840542609863 $646 $758 forward 7 unknown #
vertex $-1 $485 $759 #
straight-curve $-1 7.408279704715568 16.84765289135764 9.4328530673337241 1 0 0 I I #
coedge $-1 $752 $486 $489 $659 reversed $644 $-1 #
coedge $-1 $486 $752 $650 $756 forward $644 $-1 #
vertex $-1 $487 $760 #
straight-curve $-1 6.4239447075145488 22.471485645334951 45.651605420926103 0 0 1 I I #
straight-curve $-1 6.4239447075145488 -6.4172989989651938 37.158943790059723 0 0.64278759981090561 -0.7660444514056185 I I #
edge $-1 $754 -23.209174111347721 $490 -6.4239447075145488 $654 $761 forward 7 unknown #
point $-1 6.4239447075145488 22.471485645334951 9.4328530673337241 #
point $-1 6.4239447075145488 16.84765289135764 9.4328530673337241 #
edge $-1 $762 1 $762 0 $493 $-1 forward 7 unknown #
vertex $-1 $494 $763 #
ellipse-curve $-1 9.7809905882811847 17.337636565652893 4.1334087118080749 0 0.7660444514056185 0.64278759981090561 1 0 0 1 I I #
point $-1 10.780990588281185 19.659569268346292 6.0817415352468798 #
edge $-1 $764 1 $764 0 $497 $-1 forward 7 unknown #
vertex $-1 $498 $765 #
ellipse-curve $-1 14.816559409431136 17.337636565652893 4.1334087118080749 0 0.7660444514056185 0.64278759981090561 1 0 0 1 I I #
point $-1 15.816559409431136 19.659569268346292 6.0817415352468798 #
edge $-1 $766 1 $766 0 $501 $-1 forward 7 unknown #
vertex $-1 $502 $767 #
ellipse-curve $-1 19.852128230581087 17.337636565652893 4.1334087118080749 0 0.7660444514056185 0.64278759981090561 1 0 0 1 I I #
point $-1 20.852128230581087 19.659569268346292 6.0817415352468798 #
plane-surface $-1 42.116763817255162 0 0 -1 0 0 0 0 1 forward_v I I I I #
coedge $-1 $510 $508 $512 $679 reversed $361 $-1 #
edge $-1 $523 -9.4328530673337241 $681 9.4328530673337241 $522 $768 forward 7 unknown #
vertex $-1 $679 $769 #
straight-curve $-1 -42.116763817255162 -22.471485645334951 0 0 0 -1 I I #
edge $-1 $677 -22.471485645334951 $681 22.471485645334951 $675 $770 forward 7 unknown #
straight-curve $-1 0 -22.471485645334951 -9.4328530673337241 -1 0 0 I I #
vertex $-1 $515 $771 #
straight-curve $-1 0 22.471485645334951 -9.4328530673337241 1 0 0 I I #
point $-1 42.116763817255162 22.471485645334951 -9.4328530673337241 #
point $-1 42.116763817255162 -22.471485645334951 -9.4328530673337241 #
straight-curve $-1 -42.116763817255162 0 9.4328530673337241 0 -1 0 I I #
point $-1 -42.116763817255162 22.471485645334951 9.4328530673337241 #
point $-1 -42.116763817255162 -22.471485645334951 9.4328530673337241 #
straight-curve $-1 42.116763817255162 -22.471485645334951 0 0 0 -1 I I #
straight-curve $-1 42.116763817255162 22.471485645334951 0 0 0 -1 I I #
plane-surface $-1 0 22.471485645334951 0 0 -1 0 0 0 -1 forward_v I I I I #
coedge $-1 $536 $535 $772 $773 forward $237 $-1 #
edge $-1 $539 34.573250736431419 $774 42.116763817255162 $538 $775 forward 7 unknown #
coedge $-1 $544 $543 $536 $694 reversed $545 $-1 #
edge $-1 $776 -42.116763817255162 $695 -34.573250736431419 $693 $777 forward 7 unknown #
vertex $-1 $551 $778 #
straight-curve $-1 -34.573250736431419 0 -9.4328530673337241 0 -1 0 I I #
point $-1 -34.573250736431419 -22.471485645334951 -9.4328530673337241 #
coedge $-1 $772 $541 $544 $701 forward $533 $-1 #
coedge $-1 $541 $772 $548 $703 reversed $533 $-1 #
straight-curve $-1 -42.116763817255162 0 -6.4328530673337241 0 1 0 I I #
edge $-1 $546 6.4328530673337241 $776 9.4328530673337241 $544 $779 forward 7 unknown #
point $-1 -42.116763817255162 22.471485645334951 -6.4328530673337241 #
edge $-1 $549 6.4328530673337241 $774 9.4328530673337241 $699 $780 forward 7 unknown #
point $-1 -42.116763817255162 -22.471485645334951 -6.4328530673337241 #
straight-curve $-1 -34.573250736431419 22.471485645334951 -3.966426533666862 0 0 -1 I I #
edge $-1 $707 21.027570410701756 $710 26.651403164679074 $555 $781 forward 7 unknown #
vertex $-1 $559 $782 #
straight-curve $-1 1.1195683733091943 -22.471485645334951 28.437448527476256 0 0 1 I I #
edge $-1 $710 -4.7560915376128907 $566 12.029137866220283 $565 $783 forward 7 unknown #
vertex $-1 $709 $784 #
straight-curve $-1 1.1195683733091943 -22.471485645334951 2.7306300031600301 0 -0.64278759981090561 -0.7660444514056185 I I #
point $-1 1.1195683733091943 -22.471485645334951 2.7306300031600301 #
point $-1 -15.66566103052398 -16.847652891357633 9.4328530673337241 #
straight-curve $-1 0 -22.471485645334951 9.4328530673337241 1 0 0 I I #
vertex $-1 $572 $785 #
point $-1 -11.308615149757347 -17.337636565652897 4.1334087118080731 #
vertex $-1 $576 $786 #
point $-1 -6.2730463286073928 -17.337636565652897 4.1334087118080731 #
vertex $-1 $580 $787 #
point $-1 -1.2374775074574416 -17.337636565652897 4.1334087118080731 #
coedge $-1 $595 $594 $587 $722 forward $584 $-1 #
edge $-1 $723 21.027570410701756 $726 26.651403164679074 $721 $788 forward 7 unknown #
vertex $-1 $722 $789 #
straight-curve $-1 23.209174111347721 -22.471485645334951 28.437448527476256 0 0 1 I I #
edge $-1 $726 -15.800894406632153 $596 0.98433499720101914 $595 $790 forward 7 unknown #
vertex $-1 $725 $791 #
straight-curve $-1 23.209174111347721 -22.471485645334951 2.7306300031600301 0 -0.64278759981090561 -0.7660444514056185 I I #
point $-1 23.209174111347721 -22.471485645334951 2.7306300031600301 #
point $-1 6.4239447075145488 -16.847652891357633 9.4328530673337241 #
straight-curve $-1 0 -22.471485645334951 9.4328530673337241 1 0 0 I I #
vertex $-1 $602 $792 #
point $-1 10.780990588281185 -17.337636565652897 4.1334087118080731 #
vertex $-1 $606 $793 #
point $-1 15.816559409431136 -17.337636565652897 4.1334087118080731 #
vertex $-1 $610 $794 #
point $-1 20.852128230581087 -17.337636565652897 4.1334087118080731 #
edge $-1 $738 36.218752353592379 $741 42.920975417766066 $615 $795 forward 7 unknown #
vertex $-1 $629 $796 #
straight-curve $-1 1.1195683733091943 29.054663733886635 9.4328530673337241 0 1 0 I I #
edge $-1 $741 -4.7560915376128907 $626 12.029137866220283 $625 $797 forward 7 unknown #
vertex $-1 $740 $798 #
straight-curve $-1 1.1195683733091943 -6.4172989989651938 37.158943790059723 0 -0.64278759981090561 0.7660444514056185 I I #
point $-1 1.1195683733091943 16.84765289135764 9.4328530673337241 #
point $-1 -15.66566103052398 22.471485645334951 2.7306300031600372 #
straight-curve $-1 0 22.471485645334951 9.4328530673337241 -1 0 0 I I #
vertex $-1 $632 $799 #
point $-1 -11.308615149757347 17.337636565652893 4.1334087118080749 #
vertex $-1 $636 $800 #
point $-1 -6.2730463286073928 17.337636565652893 4.1334087118080749 #
vertex $-1 $640 $801 #
point $-1 -1.2374775074574416 17.337636565652893 4.1334087118080749 #
coedge $-1 $655 $654 $647 $753 forward $644 $-1 #
edge $-1 $754 36.218752353592379 $757 42.920975417766066 $752 $802 forward 7 unknown #
vertex $-1 $659 $803 #
straight-curve $-1 23.209174111347721 29.054663733886635 9.4328530673337241 0 1 0 I I #
edge $-1 $757 -15.800894406632153 $656 0.98433499720101914 $655 $804 forward 7 unknown #
vertex $-1 $756 $805 #
straight-curve $-1 23.209174111347721 -6.4172989989651938 37.158943790059723 0 -0.64278759981090561 0.7660444514056185 I I #
point $-1 23.209174111347721 16.84765289135764 9.4328530673337241 #
point $-1 6.4239447075145488 22.471485645334951 2.7306300031600372 #
straight-curve $-1 0 22.471485645334951 9.4328530673337241 -1 0 0 I I #
vertex $-1 $662 $806 #
point $-1 10.780990588281185 17.337636565652893 4.1334087118080749 #
vertex $-1 $666 $807 #
point $-1 15.816559409431136 17.337636565652893 4.1334087118080749 #
vertex $-1 $670 $808 #
point $-1 20.852128230581087 17.337636565652893 4.1334087118080749 #
straight-curve $-1 -42.116763817255162 22.471485645334951 0 0 0 -1 I I #
point $-1 -42.116763817255162 -22.471485645334951 -9.4328530673337241 #
straight-curve $-1 -42.116763817255162 0 -9.4328530673337241 0 1 0 I I #
point $-1 -42.116763817255162 22.471485645334951 -9.4328530673337241 #
coedge $-1 $699 $698 $691 $773 reversed $533 $-1 #
edge $-1 $774 -22.471485645334951 $776 22.471485645334951 $772 $809 forward 7 unknown #
vertex $-1 $773 $810 #
straight-curve $-1 0 -22.471485645334951 -9.4328530673337241 -1 0 0 I I #
vertex $-1 $694 $811 #
straight-curve $-1 0 22.471485645334951 -9.4328530673337241 1 0 0 I I #
point $-1 -34.573250736431419 22.471485645334951 -9.4328530673337241 #
straight-curve $-1 -42.116763817255162 22.471485645334951 0 0 0 -1 I I #
straight-curve $-1 -42.116763817255162 -22.471485645334951 0 0 0 -1 I I #
straight-curve $-1 1.1195683733091943 -43.499056056036707 9.4328530673337241 0 1 0 I I #
point $-1 1.1195683733091943 -22.471485645334951 9.4328530673337241 #
straight-curve $-1 -3.6365231643036964 -16.847652891357637 9.4328530673337241 -1 0 0 I I #
point $-1 1.1195683733091943 -16.847652891357633 9.4328530673337241 #
point $-1 -12.308615149757347 -16.571592114247277 3.490621111997168 #
point $-1 -7.2730463286073928 -16.571592114247277 3.490621111997168 #
point $-1 -2.2374775074574416 -16.571592114247277 3.490621111997168 #
straight-curve $-1 23.209174111347721 -43.499056056036707 9.4328530673337241 0 1 0 I I #
point $-1 23.209174111347721 -22.471485645334951 9.4328530673337241 #
straight-curve $-1 7.408279704715568 -16.847652891357637 9.4328530673337241 -1 0 0 I I #
point $-1 23.209174111347721 -16.847652891357633 9.4328530673337241 #
point $-1 9.7809905882811847 -16.571592114247277 3.490621111997168 #
point $-1 14.816559409431136 -16.571592114247277 3.490621111997168 #
point $-1 19.852128230581087 -16.571592114247277 3.490621111997168 #
straight-curve $-1 1.1195683733091943 22.471485645334951 45.651605420926103 0 0 -1 I I #
point $-1 1.1195683733091943 22.471485645334951 9.4328530673337241 #
straight-curve $-1 -3.6365231643036964 22.471485645334951 2.7306300031600408 -1 0 0 I I #
point $-1 1.1195683733091943 22.471485645334951 2.7306300031600372 #
point $-1 -12.308615149757347 16.571592114247274 3.4906211119971697 #
point $-1 -7.2730463286073928 16.571592114247274 3.4906211119971697 #
point $-1 -2.2374775074574416 16.571592114247274 3.4906211119971697 #
straight-curve $-1 23.209174111347721 22.471485645334951 45.651605420926103 0 0 -1 I I #
point $-1 23.209174111347721 22.471485645334951 9.4328530673337241 #
straight-curve $-1 7.408279704715568 22.471485645334951 2.7306300031600408 -1 0 0 I I #
point $-1 23.209174111347721 22.471485645334951 2.7306300031600372 #
point $-1 9.7809905882811847 16.571592114247274 3.4906211119971697 #
point $-1 14.816559409431136 16.571592114247274 3.4906211119971697 #
point $-1 19.852128230581087 16.571592114247274 3.4906211119971697 #
straight-curve $-1 -42.116763817255162 0 -9.4328530673337241 0 1 0 I I #
point $-1 -42.116763817255162 -22.471485645334951 -9.4328530673337241 #
point $-1 -42.116763817255162 22.471485645334951 -9.4328530673337241 #
End-of-ACIS-data 