500 0 10 0           
7 Unknown 11 ACIS 5.0 NT 24 Fri Mar 26 17:31:01 1999 
-1 9.9999999999999995e-007 1e-010 
body $-1 $10 $-1 $11 #
body $-1 $12 $-1 $13 #
body $-1 $14 $-1 $15 #
body $-1 $16 $-1 $17 #
body $-1 $18 $-1 $19 #
body $-1 $20 $-1 $21 #
body $-1 $22 $-1 $23 #
body $-1 $24 $-1 $25 #
body $-1 $26 $-1 $27 #
body $-1 $28 $-1 $29 #
lump $-1 $-1 $30 $0 #
transform $-1 1 0 0 0 1 0 0 0 1 78.295846430860308 36.98855688895631 18.227421702983687 1 rotate no_reflect no_shear #
lump $-1 $-1 $31 $1 #
transform $-1 1 0 0 0 1 0 0 0 1 78.295846430860308 36.98855688895631 18.227421702983687 1 rotate no_reflect no_shear #
lump $-1 $-1 $32 $2 #
transform $-1 1 0 0 0 1 0 0 0 1 78.295846430860308 36.98855688895631 18.227421702983687 1 rotate no_reflect no_shear #
lump $-1 $-1 $33 $3 #
transform $-1 1 0 0 0 1 0 0 0 1 78.295846430860308 36.98855688895631 18.227421702983687 1 rotate no_reflect no_shear #
lump $-1 $-1 $34 $4 #
transform $-1 1 0 0 0 1 0 0 0 1 78.295846430860308 36.98855688895631 18.227421702983687 1 rotate no_reflect no_shear #
lump $-1 $-1 $35 $5 #
transform $-1 1 0 0 0 1 0 0 0 1 78.295846430860308 36.98855688895631 18.227421702983687 1 rotate no_reflect no_shear #
lump $-1 $-1 $36 $6 #
transform $-1 1 0 0 0 1 0 0 0 1 78.295846430860308 36.98855688895631 18.227421702983687 1 rotate no_reflect no_shear #
lump $-1 $-1 $37 $7 #
transform $-1 1 0 0 0 1 0 0 0 1 78.295846430860308 36.98855688895631 18.227421702983687 1 rotate no_reflect no_shear #
lump $-1 $-1 $38 $8 #
transform $-1 1 0 0 0 1 0 0 0 1 78.295846430860308 36.98855688895631 18.227421702983687 1 rotate no_reflect no_shear #
lump $-1 $-1 $39 $9 #
transform $-1 1 0 0 0 1 0 0 0 1 78.295846430860308 36.98855688895631 18.227421702983687 1 rotate no_reflect no_shear #
shell $-1 $-1 $-1 $40 $-1 $10 #
shell $-1 $-1 $-1 $41 $-1 $12 #
shell $-1 $-1 $-1 $42 $-1 $14 #
shell $-1 $-1 $-1 $43 $-1 $16 #
shell $-1 $-1 $-1 $44 $-1 $18 #
shell $-1 $-1 $-1 $45 $-1 $20 #
shell $-1 $-1 $-1 $46 $-1 $22 #
shell $-1 $-1 $-1 $47 $-1 $24 #
shell $-1 $-1 $-1 $48 $-1 $26 #
shell $-1 $-1 $-1 $49 $-1 $28 #
face $-1 $50 $51 $30 $-1 $52 forward single #
face $-1 $53 $54 $31 $-1 $55 reversed single #
face $-1 $56 $57 $32 $-1 $58 reversed single #
face $-1 $59 $60 $33 $-1 $61 reversed single #
face $-1 $62 $63 $34 $-1 $64 forward single #
face $-1 $65 $66 $35 $-1 $67 forward single #
face $-1 $68 $69 $36 $-1 $70 forward single #
face $-1 $71 $72 $37 $-1 $73 reversed single #
face $-1 $74 $75 $38 $-1 $76 forward single #
face $-1 $77 $78 $39 $-1 $79 forward single #
face $-1 $80 $81 $30 $-1 $82 reversed single #
loop $-1 $-1 $83 $40 #
plane-surface $-1 0 0 18.227421702983687 0 0 1 1 0 0 forward_v I I I I #
face $-1 $84 $85 $31 $-1 $86 reversed single #
loop $-1 $-1 $87 $41 #
plane-surface $-1 0 -26.800036164188398 12.875067012539997 0 0 1 1 0 0 forward_v I I I I #
face $-1 $88 $89 $32 $-1 $90 reversed single #
loop $-1 $-1 $91 $42 #
plane-surface $-1 0 26.800036164188398 12.875067012539997 0 0 1 1 0 0 forward_v I I I I #
face $-1 $92 $93 $33 $-1 $94 reversed single #
loop $-1 $-1 $95 $43 #
plane-surface $-1 -183.07614208636315 -7.8935660165549741 131.15392093731754 0 1 0 -0.66913061440640931 0 0.74314481823134659 forward_v I I I I #
face $-1 $96 $97 $34 $-1 $98 forward single #
loop $-1 $99 $100 $44 #
cone-surface $-1 -76.048914203083811 -5.9626774821599504 16.133946346903851 0.66913061440640931 0 -0.74314481823134659 0.18578620455783665 0 0.16728265360160233 1 I I 0 1 0.25 forward I I I I #
face $-1 $101 $102 $35 $-1 $103 forward single #
loop $-1 $104 $105 $45 #
cone-surface $-1 -76.048914203083811 -3.0663446805674184 16.133946346903851 0.66913061440640931 0 -0.74314481823134659 0.18578620455783665 0 0.16728265360160233 1 I I 0 1 0.25 forward I I I I #
face $-1 $106 $107 $36 $-1 $108 forward single #
loop $-1 $109 $110 $46 #
cone-surface $-1 -76.048914203083811 -0.1700118789748899 16.133946346903851 0.66913061440640931 0 -0.74314481823134659 0.18578620455783665 0 0.16728265360160233 1 I I 0 1 0.25 forward I I I I #
face $-1 $111 $112 $37 $-1 $113 reversed single #
loop $-1 $-1 $114 $47 #
plane-surface $-1 36.040414794920764 -3.8308941475581477 223.43599183379575 0 -1 0 -0.55919291073839883 0 -0.82903756765294845 forward_v I I I I #
face $-1 $115 $116 $38 $-1 $117 forward single #
loop $-1 $118 $119 $48 #
cone-surface $-1 68.989542823671826 -8.5827054413922284 11.724077520949868 -0.55919291073839883 0 -0.82903756765294845 0.41451878382647422 0 -0.27959645536919941 1 I I 0 1 0.5 forward I I I I #
face $-1 $120 $121 $39 $-1 $122 forward single #
loop $-1 $123 $124 $49 #
cone-surface $-1 68.989542823671826 -5.73161866509178 11.724077520949868 -0.55919291073839883 0 -0.82903756765294845 0.41451878382647422 0 -0.27959645536919941 1 I I 0 1 0.5 forward I I I I #
face $-1 $125 $126 $30 $-1 $127 reversed single #
loop $-1 $-1 $128 $50 #
plane-surface $-1 0 0 -18.227421702983687 0 0 1 1 0 0 forward_v I I I I #
coedge $-1 $129 $130 $131 $132 forward $51 $-1 #
face $-1 $133 $134 $31 $-1 $135 reversed single #
loop $-1 $-1 $136 $53 #
plane-surface $-1 0 -16.611515439420486 15.551244357761842 0 -1 0 0 0 -1 forward_v I I I I #
coedge $-1 $137 $138 $139 $140 reversed $54 $-1 #
face $-1 $141 $142 $32 $-1 $143 forward single #
loop $-1 $-1 $144 $56 #
plane-surface $-1 0 16.611515439420486 15.551244357761842 0 1 0 0 0 1 forward_v I I I I #
coedge $-1 $145 $146 $147 $148 reversed $57 $-1 #
face $-1 $149 $150 $33 $-1 $151 reversed single #
loop $-1 $-1 $152 $59 #
plane-surface $-1 -78.295846430860294 -3.0663446805674255 14.78361580905532 -0.66913061440640931 0 0.74314481823134659 0.74314481823134659 0 0.66913061440640931 forward_v I I I I #
coedge $-1 $153 $154 $155 $156 reversed $60 $-1 #
face $-1 $-1 $157 $34 $-1 $158 forward single #
loop $-1 $159 $160 $62 #
cone-surface $-1 -75.630707569079803 -5.9626774821599504 15.669480835509258 0.66913061440640931 0 -0.74314481823134659 0.092893102278918324 0 0.083641326800801163 1 I I -0.70710678118654746 0.70710678118654746 0.125 forward I I I I #
loop $-1 $-1 $161 $44 #
coedge $-1 $100 $100 $162 $163 reversed $63 $-1 #
face $-1 $-1 $164 $35 $-1 $165 forward single #
loop $-1 $166 $167 $65 #
cone-surface $-1 -75.630707569079803 -3.0663446805674184 15.669480835509258 0.66913061440640931 0 -0.74314481823134659 0.092893102278918324 0 0.083641326800801163 1 I I -0.70710678118654746 0.70710678118654746 0.125 forward I I I I #
loop $-1 $-1 $168 $45 #
coedge $-1 $105 $105 $169 $170 reversed $66 $-1 #
face $-1 $-1 $171 $36 $-1 $172 forward single #
loop $-1 $173 $174 $68 #
cone-surface $-1 -75.630707569079803 -0.1700118789748899 15.669480835509258 0.66913061440640931 0 -0.74314481823134659 0.092893102278918324 0 0.083641326800801163 1 I I -0.70710678118654746 0.70710678118654746 0.125 forward I I I I #
loop $-1 $-1 $175 $46 #
coedge $-1 $110 $110 $176 $177 reversed $69 $-1 #
face $-1 $178 $179 $37 $-1 $180 reversed single #
loop $-1 $-1 $181 $71 #
plane-surface $-1 -51.524549733878132 -7.1571620532420042 93.615595669057313 0.55919291073839883 0 0.82903756765294845 0.82903756765294845 0 -0.55919291073839883 forward_v I I I I #
coedge $-1 $182 $183 $184 $185 reversed $72 $-1 #
face $-1 $-1 $186 $38 $-1 $187 forward single #
loop $-1 $188 $189 $74 #
cone-surface $-1 68.569858023137556 -8.5827054413922284 11.101869228365462 -0.55919291073839883 0 -0.82903756765294845 0.20725939191323711 0 -0.13979822768459971 1 I I -0.70710678118654746 0.70710678118654746 0.25 forward I I I I #
loop $-1 $-1 $190 $48 #
coedge $-1 $119 $119 $191 $192 reversed $75 $-1 #
face $-1 $-1 $193 $39 $-1 $194 forward single #
loop $-1 $195 $196 $77 #
cone-surface $-1 68.569858023137556 -5.73161866509178 11.101869228365462 -0.55919291073839883 0 -0.82903756765294845 0.20725939191323711 0 -0.13979822768459971 1 I I -0.70710678118654746 0.70710678118654746 0.25 forward I I I I #
loop $-1 $-1 $197 $49 #
coedge $-1 $124 $124 $198 $199 reversed $78 $-1 #
face $-1 $200 $201 $30 $-1 $202 reversed single #
loop $-1 $-1 $203 $80 #
plane-surface $-1 0 -36.98855688895631 0 0 1 0 0 0 1 forward_v I I I I #
coedge $-1 $204 $205 $206 $207 forward $81 $-1 #
coedge $-1 $208 $83 $209 $210 forward $51 $-1 #
coedge $-1 $83 $208 $211 $212 forward $51 $-1 #
coedge $-1 $213 $214 $83 $132 reversed $215 $-1 #
edge $-1 $216 -36.98855688895631 $217 36.98855688895631 $131 $218 forward 7 unknown #
face $-1 $219 $220 $31 $-1 $221 reversed single #
loop $-1 $-1 $222 $84 #
plane-surface $-1 -78.295846430860308 0 0 1 0 0 0 0 -1 forward_v I I I I #
coedge $-1 $223 $224 $225 $226 reversed $85 $-1 #
coedge $-1 $227 $87 $228 $229 reversed $54 $-1 #
coedge $-1 $87 $227 $223 $230 forward $54 $-1 #
coedge $-1 $225 $231 $87 $140 forward $232 $-1 #
edge $-1 $233 -23.588538806862111 $234 -3.2114973573262873 $139 $235 forward 7 unknown #
face $-1 $236 $237 $32 $-1 $238 reversed single #
loop $-1 $-1 $239 $88 #
plane-surface $-1 0 0 18.227421702983687 0 0 1 1 0 0 forward_v I I I I #
coedge $-1 $240 $241 $242 $243 reversed $89 $-1 #
coedge $-1 $244 $91 $240 $245 forward $57 $-1 #
coedge $-1 $91 $244 $246 $247 reversed $57 $-1 #
coedge $-1 $248 $249 $91 $148 forward $237 $-1 #
edge $-1 $250 3.2114973573262873 $251 23.588538806862111 $147 $252 forward 7 unknown #
face $-1 $253 $254 $33 $-1 $255 reversed single #
loop $-1 $-1 $256 $92 #
plane-surface $-1 -183.07614208636315 1.7608766554201232 131.15392093731754 0 -1 0 0.66913061440640931 0 -0.74314481823134659 forward_v I I I I #
coedge $-1 $257 $258 $259 $260 reversed $93 $-1 #
coedge $-1 $154 $95 $261 $262 reversed $60 $-1 #
coedge $-1 $95 $153 $257 $263 reversed $60 $-1 #
coedge $-1 $259 $264 $95 $156 forward $265 $-1 #
edge $-1 $266 13.242224612321266 $267 17.066958453467919 $155 $268 forward 7 unknown #
loop $-1 $-1 $162 $96 #
plane-surface $-1 -78.295846430860294 -3.0663446805674255 14.78361580905532 -0.66913061440640931 0 0.74314481823134659 0.74314481823134659 0 0.66913061440640931 forward_v I I I I #
loop $-1 $-1 $269 $62 #
coedge $-1 $160 $160 $161 $270 reversed $97 $-1 #
coedge $-1 $161 $161 $160 $270 forward $99 $-1 #
coedge $-1 $162 $162 $100 $163 forward $157 $-1 #
edge $-1 $271 0 $271 6.2831853071796004 $162 $272 forward 7 unknown #
loop $-1 $-1 $169 $101 #
plane-surface $-1 -78.295846430860294 -3.0663446805674255 14.78361580905532 -0.66913061440640931 0 0.74314481823134659 0.74314481823134659 0 0.66913061440640931 forward_v I I I I #
loop $-1 $-1 $273 $65 #
coedge $-1 $167 $167 $168 $274 reversed $102 $-1 #
coedge $-1 $168 $168 $167 $274 forward $104 $-1 #
coedge $-1 $169 $169 $105 $170 forward $164 $-1 #
edge $-1 $275 0 $275 6.2831853071796004 $169 $276 forward 7 unknown #
loop $-1 $-1 $176 $106 #
plane-surface $-1 -78.295846430860294 -3.0663446805674255 14.78361580905532 -0.66913061440640931 0 0.74314481823134659 0.74314481823134659 0 0.66913061440640931 forward_v I I I I #
loop $-1 $-1 $277 $68 #
coedge $-1 $174 $174 $175 $278 reversed $107 $-1 #
coedge $-1 $175 $175 $174 $278 forward $109 $-1 #
coedge $-1 $176 $176 $110 $177 forward $171 $-1 #
edge $-1 $279 0 $279 6.2831853071796004 $176 $280 forward 7 unknown #
face $-1 $281 $282 $37 $-1 $283 forward single #
loop $-1 $-1 $284 $111 #
plane-surface $-1 36.040414794920764 -10.483429958925861 223.43599183379575 0 1 0 0.55919291073839883 0 0.82903756765294845 forward_v I I I I #
coedge $-1 $285 $286 $287 $288 reversed $112 $-1 #
coedge $-1 $183 $114 $289 $290 reversed $72 $-1 #
coedge $-1 $114 $182 $285 $291 reversed $72 $-1 #
coedge $-1 $287 $292 $114 $185 forward $282 $-1 #
edge $-1 $293 -60.275639033399926 $294 -42.222804964722343 $184 $295 forward 7 unknown #
loop $-1 $-1 $191 $115 #
plane-surface $-1 -51.524549733878132 -7.1571620532420042 93.615595669057313 0.55919291073839883 0 0.82903756765294845 0.82903756765294845 0 -0.55919291073839883 forward_v I I I I #
loop $-1 $-1 $296 $74 #
coedge $-1 $189 $189 $190 $297 reversed $116 $-1 #
coedge $-1 $190 $190 $189 $297 forward $118 $-1 #
coedge $-1 $191 $191 $119 $192 forward $186 $-1 #
edge $-1 $298 0 $298 6.2831853071796004 $191 $299 forward 7 unknown #
loop $-1 $-1 $198 $120 #
plane-surface $-1 -51.524549733878132 -7.1571620532420042 93.615595669057313 0.55919291073839883 0 0.82903756765294845 0.82903756765294845 0 -0.55919291073839883 forward_v I I I I #
loop $-1 $-1 $300 $77 #
coedge $-1 $196 $196 $197 $301 reversed $121 $-1 #
coedge $-1 $197 $197 $196 $301 forward $123 $-1 #
coedge $-1 $198 $198 $124 $199 forward $193 $-1 #
edge $-1 $302 0 $302 6.2831853071796004 $198 $303 forward 7 unknown #
face $-1 $304 $305 $30 $-1 $306 reversed single #
loop $-1 $-1 $307 $125 #
plane-surface $-1 -78.295846430860308 0 0 1 0 0 0 0 -1 forward_v I I I I #
coedge $-1 $308 $211 $309 $310 forward $126 $-1 #
coedge $-1 $311 $128 $308 $312 forward $81 $-1 #
coedge $-1 $128 $311 $313 $314 forward $81 $-1 #
coedge $-1 $214 $213 $128 $207 reversed $215 $-1 #
edge $-1 $315 -36.98855688895631 $316 36.98855688895631 $206 $317 forward 7 unknown #
coedge $-1 $130 $129 $318 $319 forward $51 $-1 #
coedge $-1 $320 $321 $129 $210 reversed $305 $-1 #
edge $-1 $217 -78.295846430860308 $322 78.295846430860308 $209 $323 forward 7 unknown #
coedge $-1 $203 $324 $130 $212 reversed $126 $-1 #
edge $-1 $325 -78.295846430860308 $216 78.295846430860308 $211 $326 forward 7 unknown #
coedge $-1 $206 $131 $324 $327 forward $215 $-1 #
coedge $-1 $131 $206 $320 $328 reversed $215 $-1 #
loop $-1 $-1 $213 $304 #
vertex $-1 $132 $329 #
vertex $-1 $132 $330 #
straight-curve $-1 78.295846430860308 0 18.227421702983687 0 1 0 I I #
face $-1 $331 $332 $31 $-1 $333 forward single #
loop $-1 $-1 $228 $133 #
plane-surface $-1 0 -36.98855688895631 0 0 1 0 0 0 1 forward_v I I I I #
coedge $-1 $334 $335 $336 $337 forward $134 $-1 #
coedge $-1 $336 $136 $138 $230 reversed $85 $-1 #
coedge $-1 $136 $336 $338 $339 reversed $85 $-1 #
coedge $-1 $340 $139 $136 $226 forward $232 $-1 #
edge $-1 $234 5.0994448336590761 $341 10.451799524102766 $225 $342 forward 7 unknown #
coedge $-1 $138 $137 $334 $343 reversed $54 $-1 #
coedge $-1 $344 $345 $137 $229 forward $220 $-1 #
edge $-1 $346 -78.295846430860308 $233 78.295846430860308 $228 $347 forward 7 unknown #
edge $-1 $348 -78.295846430860308 $234 78.295846430860308 $223 $349 forward 7 unknown #
coedge $-1 $139 $340 $344 $350 forward $232 $-1 #
loop $-1 $-1 $225 $331 #
vertex $-1 $229 $351 #
vertex $-1 $140 $352 #
straight-curve $-1 78.295846430860308 -13.400018082094199 12.875067012539997 0 1 0 I I #
face $-1 $353 $354 $32 $-1 $355 reversed single #
loop $-1 $-1 $249 $141 #
plane-surface $-1 78.295846430860308 0 0 -1 0 0 0 0 1 forward_v I I I I #
coedge $-1 $356 $357 $241 $358 forward $142 $-1 #
coedge $-1 $359 $144 $145 $245 reversed $89 $-1 #
coedge $-1 $144 $359 $239 $358 reversed $89 $-1 #
coedge $-1 $360 $361 $144 $243 forward $354 $-1 #
edge $-1 $362 5.0994448336590761 $363 10.451799524102766 $242 $364 forward 7 unknown #
coedge $-1 $146 $145 $361 $365 reversed $57 $-1 #
edge $-1 $250 -78.295846430860308 $362 78.295846430860308 $240 $366 forward 7 unknown #
coedge $-1 $367 $368 $146 $247 forward $369 $-1 #
edge $-1 $251 -78.295846430860308 $370 78.295846430860308 $246 $371 forward 7 unknown #
coedge $-1 $372 $147 $368 $373 reversed $237 $-1 #
coedge $-1 $147 $372 $359 $374 forward $237 $-1 #
vertex $-1 $148 $375 #
vertex $-1 $247 $376 #
straight-curve $-1 78.295846430860308 13.400018082094199 12.875067012539997 0 1 0 I I #
face $-1 $-1 $265 $33 $-1 $377 forward single #
loop $-1 $-1 $378 $149 #
plane-surface $-1 -78.295846430860308 0 0 1 0 0 0 0 -1 forward_v I I I I #
coedge $-1 $379 $380 $381 $382 reversed $150 $-1 #
coedge $-1 $383 $152 $154 $263 forward $93 $-1 #
coedge $-1 $152 $383 $379 $384 forward $93 $-1 #
coedge $-1 $381 $155 $152 $260 forward $265 $-1 #
edge $-1 $267 -6.3603936762712614 $385 3.2940489957038359 $259 $386 forward 7 unknown #
coedge $-1 $387 $388 $153 $262 forward $254 $-1 #
edge $-1 $389 -50.793344659603463 $266 -47.349538765675078 $261 $390 forward 7 unknown #
edge $-1 $267 -5.146687088862901 $389 1.8881026247711288e-014 $154 $391 forward 7 unknown #
coedge $-1 $155 $381 $387 $392 forward $265 $-1 #
loop $-1 $-1 $381 $253 #
vertex $-1 $262 $393 #
vertex $-1 $156 $394 #
straight-curve $-1 -91.538071043181574 -7.8935660165549741 18.22742170298369 1 0 0 I I #
coedge $-1 $269 $269 $-1 $395 reversed $159 $-1 #
edge $-1 $396 0 $396 6.2831853071796004 $160 $397 forward 7 unknown #
vertex $-1 $163 $398 #
ellipse-curve $-1 -76.383479510286989 -5.9626774821599504 16.505518756019491 -0.66913061440640931 0 0.74314481823134659 0.18578620455783665 0 0.16728265360160233 1 I I #
coedge $-1 $273 $273 $-1 $399 reversed $166 $-1 #
edge $-1 $400 0 $400 6.2831853071796004 $167 $401 forward 7 unknown #
vertex $-1 $170 $402 #
ellipse-curve $-1 -76.383479510286989 -3.0663446805674184 16.505518756019491 -0.66913061440640931 0 0.74314481823134659 0.18578620455783665 0 0.16728265360160233 1 I I #
coedge $-1 $277 $277 $-1 $403 reversed $173 $-1 #
edge $-1 $404 0 $404 6.2831853071796004 $174 $405 forward 7 unknown #
vertex $-1 $177 $406 #
ellipse-curve $-1 -76.383479510286989 -0.1700118789748899 16.505518756019491 -0.66913061440640931 0 0.74314481823134659 0.18578620455783665 0 0.16728265360160233 1 I I #
face $-1 $-1 $407 $37 $-1 $408 reversed single #
loop $-1 $-1 $184 $178 #
plane-surface $-1 0 0 18.227421702983687 0 0 1 1 0 0 forward_v I I I I #
coedge $-1 $409 $410 $411 $412 reversed $179 $-1 #
coedge $-1 $413 $181 $183 $291 forward $112 $-1 #
coedge $-1 $181 $413 $409 $414 forward $112 $-1 #
coedge $-1 $411 $184 $181 $288 forward $282 $-1 #
edge $-1 $294 0.25231312093714564 $415 6.9048489323048585 $287 $416 forward 7 unknown #
coedge $-1 $417 $418 $182 $290 forward $407 $-1 #
edge $-1 $419 -105.66736477663946 $293 -93.490574213914186 $289 $420 forward 7 unknown #
edge $-1 $294 134.81604025795966 $419 156.59169286172062 $183 $421 forward 7 unknown #
coedge $-1 $184 $411 $417 $422 forward $282 $-1 #
vertex $-1 $290 $423 #
vertex $-1 $185 $424 #
straight-curve $-1 18.020207397460382 -3.8308941475581477 18.22742170298369 -1 0 0 I I #
coedge $-1 $296 $296 $-1 $425 reversed $188 $-1 #
edge $-1 $426 0 $426 6.2831853071796004 $189 $427 forward 7 unknown #
vertex $-1 $192 $428 #
ellipse-curve $-1 69.269429396521517 -8.5827054413922284 12.139026421621059 0.55919291073839883 0 0.82903756765294845 0.41451878382647422 0 -0.27959645536919941 1 I I #
coedge $-1 $300 $300 $-1 $429 reversed $195 $-1 #
edge $-1 $430 0 $430 6.2831853071796004 $196 $431 forward 7 unknown #
vertex $-1 $199 $432 #
ellipse-curve $-1 69.269429396521517 -5.73161866509178 12.139026421621059 0.55919291073839883 0 0.82903756765294845 0.41451878382647422 0 -0.27959645536919941 1 I I #
face $-1 $-1 $215 $30 $-1 $433 reversed single #
loop $-1 $-1 $320 $200 #
plane-surface $-1 0 36.98855688895631 0 0 -1 0 0 0 -1 forward_v I I I I #
coedge $-1 $434 $318 $321 $435 forward $201 $-1 #
coedge $-1 $324 $203 $204 $312 reversed $126 $-1 #
coedge $-1 $318 $434 $203 $310 reversed $201 $-1 #
edge $-1 $325 -18.227421702983687 $436 18.227421702983687 $309 $437 forward 7 unknown #
coedge $-1 $205 $204 $434 $438 forward $81 $-1 #
edge $-1 $316 -78.295846430860308 $436 78.295846430860308 $308 $439 forward 7 unknown #
coedge $-1 $321 $320 $205 $314 reversed $305 $-1 #
edge $-1 $440 -78.295846430860308 $315 78.295846430860308 $313 $441 forward 7 unknown #
vertex $-1 $207 $442 #
vertex $-1 $327 $443 #
straight-curve $-1 78.295846430860308 0 -18.227421702983687 0 -1 0 I I #
coedge $-1 $307 $309 $208 $319 reversed $201 $-1 #
edge $-1 $322 -36.98855688895631 $325 36.98855688895631 $318 $444 forward 7 unknown #
coedge $-1 $313 $209 $214 $328 forward $305 $-1 #
coedge $-1 $209 $313 $307 $435 reversed $305 $-1 #
vertex $-1 $210 $445 #
straight-curve $-1 0 36.98855688895631 18.227421702983687 -1 0 0 I I #
coedge $-1 $211 $308 $213 $327 reversed $126 $-1 #
vertex $-1 $319 $446 #
straight-curve $-1 0 -36.98855688895631 18.227421702983687 1 0 0 I I #
edge $-1 $216 -18.227421702983687 $316 18.227421702983687 $213 $447 forward 7 unknown #
edge $-1 $217 -18.227421702983687 $315 18.227421702983687 $214 $448 forward 7 unknown #
point $-1 78.295846430860308 -36.98855688895631 18.227421702983687 #
point $-1 78.295846430860308 36.98855688895631 18.227421702983687 #
face $-1 $-1 $232 $31 $-1 $449 reversed single #
loop $-1 $-1 $338 $219 #
plane-surface $-1 0 0 18.227421702983687 0 0 1 1 0 0 forward_v I I I I #
coedge $-1 $450 $222 $227 $343 forward $134 $-1 #
coedge $-1 $222 $450 $451 $452 reversed $134 $-1 #
coedge $-1 $224 $223 $222 $337 reversed $85 $-1 #
edge $-1 $453 -10.451799524102766 $348 -5.0994448336590761 $222 $454 forward 7 unknown #
coedge $-1 $451 $455 $224 $339 forward $332 $-1 #
edge $-1 $341 -78.295846430860308 $453 78.295846430860308 $338 $456 forward 7 unknown #
coedge $-1 $231 $225 $455 $457 reversed $232 $-1 #
vertex $-1 $226 $458 #
straight-curve $-1 78.295846430860308 -16.611515439420486 7.775622178880921 0 0 1 I I #
edge $-1 $348 3.2114973573262873 $346 23.588538806862111 $334 $459 forward 7 unknown #
coedge $-1 $460 $228 $231 $350 reversed $220 $-1 #
coedge $-1 $228 $460 $450 $461 forward $220 $-1 #
vertex $-1 $229 $462 #
straight-curve $-1 0 -36.98855688895631 12.875067012539997 1 0 0 I I #
vertex $-1 $343 $463 #
straight-curve $-1 0 -16.611515439420486 12.875067012539997 1 0 0 I I #
edge $-1 $464 -18.227421702983687 $233 -12.875067012539997 $231 $465 forward 7 unknown #
point $-1 78.295846430860308 -36.98855688895631 12.875067012539997 #
point $-1 78.295846430860308 -16.611515439420486 12.875067012539997 #
face $-1 $-1 $369 $32 $-1 $466 reversed single #
loop $-1 $-1 $242 $236 #
plane-surface $-1 -78.295846430860308 0 0 1 0 0 0 0 -1 forward_v I I I I #
coedge $-1 $467 $239 $372 $468 forward $142 $-1 #
coedge $-1 $239 $467 $360 $469 forward $142 $-1 #
edge $-1 $363 -78.295846430860308 $470 78.295846430860308 $239 $471 forward 7 unknown #
coedge $-1 $241 $240 $249 $374 reversed $89 $-1 #
coedge $-1 $472 $242 $357 $469 reversed $354 $-1 #
coedge $-1 $242 $472 $244 $365 forward $354 $-1 #
vertex $-1 $365 $473 #
vertex $-1 $243 $474 #
straight-curve $-1 -78.295846430860308 16.611515439420486 7.775622178880921 0 0 1 I I #
edge $-1 $370 -23.588538806862111 $362 -3.2114973573262873 $361 $475 forward 7 unknown #
straight-curve $-1 0 16.611515439420486 12.875067012539997 -1 0 0 I I #
coedge $-1 $476 $246 $472 $477 reversed $369 $-1 #
coedge $-1 $246 $476 $248 $373 forward $369 $-1 #
loop $-1 $-1 $246 $353 #
vertex $-1 $247 $478 #
straight-curve $-1 0 36.98855688895631 12.875067012539997 -1 0 0 I I #
coedge $-1 $249 $248 $356 $468 reversed $237 $-1 #
edge $-1 $479 -18.227421702983687 $251 -12.875067012539997 $248 $480 forward 7 unknown #
edge $-1 $470 -10.451799524102766 $250 -5.0994448336590761 $249 $481 forward 7 unknown #
point $-1 78.295846430860308 16.611515439420486 12.875067012539997 #
point $-1 78.295846430860308 36.98855688895631 12.875067012539997 #
plane-surface $-1 0 0 18.227421702983687 0 0 1 1 0 0 forward_v I I I I #
coedge $-1 $388 $387 $380 $482 forward $254 $-1 #
coedge $-1 $380 $256 $258 $384 reversed $150 $-1 #
coedge $-1 $256 $379 $378 $482 reversed $150 $-1 #
coedge $-1 $264 $259 $256 $382 forward $265 $-1 #
edge $-1 $385 -17.066958453467919 $483 -13.242224612321266 $381 $484 forward 7 unknown #
coedge $-1 $258 $257 $388 $485 reversed $93 $-1 #
edge $-1 $486 -1.8881026247711288e-014 $385 5.146687088862901 $379 $487 forward 7 unknown #
vertex $-1 $260 $488 #
straight-curve $-1 -74.47111258971367 -1.5331723402837127 18.227421702983683 0 1 0 I I #
coedge $-1 $378 $261 $264 $392 reversed $254 $-1 #
coedge $-1 $261 $378 $383 $485 forward $254 $-1 #
vertex $-1 $262 $489 #
straight-curve $-1 -78.295846430860308 -7.8935660165549741 65.576960468658768 0 0 1 I I #
straight-curve $-1 -78.295846430860294 -7.8935660165549741 14.78361580905532 -0.74314481823134659 0 -0.66913061440640931 I I #
edge $-1 $483 -1.7608766554201232 $266 7.8935660165549741 $387 $490 forward 7 unknown #
point $-1 -78.295846430860308 -7.8935660165549741 18.227421702983687 #
point $-1 -74.471112589713655 -7.8935660165549741 18.227421702983687 #
edge $-1 $491 1 $491 0 $269 $-1 forward 7 unknown #
vertex $-1 $270 $492 #
ellipse-curve $-1 -75.714348895880605 -5.9626774821599504 15.762373937788176 -0.66913061440640931 0 0.74314481823134659 0.18578620455783665 0 0.16728265360160233 1 I I #
point $-1 -76.197693305729175 -5.9626774821599504 16.672801409621126 #
edge $-1 $493 1 $493 0 $273 $-1 forward 7 unknown #
vertex $-1 $274 $494 #
ellipse-curve $-1 -75.714348895880605 -3.0663446805674184 15.762373937788176 -0.66913061440640931 0 0.74314481823134659 0.18578620455783665 0 0.16728265360160233 1 I I #
point $-1 -76.197693305729175 -3.0663446805674184 16.672801409621126 #
edge $-1 $495 1 $495 0 $277 $-1 forward 7 unknown #
vertex $-1 $278 $496 #
ellipse-curve $-1 -75.714348895880605 -0.1700118789748899 15.762373937788176 -0.66913061440640931 0 0.74314481823134659 0.18578620455783665 0 0.16728265360160233 1 I I #
point $-1 -76.197693305729175 -0.1700118789748899 16.672801409621126 #
loop $-1 $-1 $289 $281 #
plane-surface $-1 78.295846430860308 0 0 -1 0 0 0 0 1 forward_v I I I I #
coedge $-1 $410 $284 $286 $414 reversed $179 $-1 #
coedge $-1 $284 $409 $497 $498 reversed $179 $-1 #
coedge $-1 $292 $287 $284 $412 forward $282 $-1 #
edge $-1 $415 42.222804964722343 $499 60.275639033399926 $411 $500 forward 7 unknown #
coedge $-1 $286 $285 $418 $501 reversed $112 $-1 #
edge $-1 $502 -156.59169286172062 $415 -134.81604025795966 $409 $503 forward 7 unknown #
vertex $-1 $288 $504 #
straight-curve $-1 60.243012362182725 -3.5785810266210021 18.227421702983683 0 -1 0 I I #
coedge $-1 $497 $289 $292 $422 reversed $407 $-1 #
coedge $-1 $289 $497 $413 $501 forward $407 $-1 #
vertex $-1 $290 $505 #
straight-curve $-1 78.295846430860308 -3.8308941475581477 111.71799591689788 0 0 1 I I #
straight-curve $-1 -51.524549733878132 -3.8308941475581477 93.615595669057313 0.82903756765294845 0 -0.55919291073839883 I I #
edge $-1 $499 -10.483429958925861 $293 -3.8308941475581477 $417 $506 forward 7 unknown #
point $-1 78.295846430860308 -3.8308941475581477 18.227421702983687 #
point $-1 60.243012362182725 -3.8308941475581477 18.22742170298369 #
edge $-1 $507 1 $507 0 $296 $-1 forward 7 unknown #
vertex $-1 $297 $508 #
ellipse-curve $-1 68.70965625082215 -8.5827054413922284 11.309128620278699 0.55919291073839883 0 0.82903756765294845 0.41451878382647422 0 -0.27959645536919941 1 I I #
point $-1 69.683948180347969 -8.5827054413922284 11.859429966251838 #
edge $-1 $509 1 $509 0 $300 $-1 forward 7 unknown #
vertex $-1 $301 $510 #
ellipse-curve $-1 68.70965625082215 -5.73161866509178 11.309128620278699 0.55919291073839883 0 0.82903756765294845 0.41451878382647422 0 -0.27959645536919941 1 I I #
point $-1 69.683948180347969 -5.73161866509178 11.859429966251838 #
plane-surface $-1 78.295846430860308 0 0 -1 0 0 0 0 1 forward_v I I I I #
coedge $-1 $309 $307 $311 $438 reversed $201 $-1 #
edge $-1 $322 -18.227421702983687 $440 18.227421702983687 $321 $511 forward 7 unknown #
vertex $-1 $438 $512 #
straight-curve $-1 -78.295846430860308 -36.98855688895631 0 0 0 -1 I I #
edge $-1 $436 -36.98855688895631 $440 36.98855688895631 $434 $513 forward 7 unknown #
straight-curve $-1 0 -36.98855688895631 -18.227421702983687 -1 0 0 I I #
vertex $-1 $314 $514 #
straight-curve $-1 0 36.98855688895631 -18.227421702983687 1 0 0 I I #
point $-1 78.295846430860308 36.98855688895631 -18.227421702983687 #
point $-1 78.295846430860308 -36.98855688895631 -18.227421702983687 #
straight-curve $-1 -78.295846430860308 0 18.227421702983687 0 -1 0 I I #
point $-1 -78.295846430860308 36.98855688895631 18.227421702983687 #
point $-1 -78.295846430860308 -36.98855688895631 18.227421702983687 #
straight-curve $-1 78.295846430860308 -36.98855688895631 0 0 0 -1 I I #
straight-curve $-1 78.295846430860308 36.98855688895631 0 0 0 -1 I I #
plane-surface $-1 78.295846430860308 0 0 -1 0 0 0 0 1 forward_v I I I I #
coedge $-1 $335 $334 $345 $461 reversed $134 $-1 #
coedge $-1 $515 $338 $335 $452 forward $332 $-1 #
edge $-1 $453 16.611515439420486 $516 36.98855688895631 $335 $517 forward 7 unknown #
vertex $-1 $452 $518 #
straight-curve $-1 -78.295846430860308 -16.611515439420486 7.775622178880921 0 0 -1 I I #
coedge $-1 $338 $515 $340 $457 forward $332 $-1 #
straight-curve $-1 0 -16.611515439420486 18.227421702983687 -1 0 0 I I #
edge $-1 $464 -36.98855688895631 $341 -16.611515439420486 $340 $519 forward 7 unknown #
point $-1 78.295846430860308 -16.611515439420486 18.227421702983687 #
straight-curve $-1 -78.295846430860308 -13.400018082094199 12.875067012539997 0 -1 0 I I #
coedge $-1 $345 $344 $515 $520 reversed $220 $-1 #
edge $-1 $516 -18.227421702983687 $346 -12.875067012539997 $450 $521 forward 7 unknown #
point $-1 -78.295846430860308 -36.98855688895631 12.875067012539997 #
point $-1 -78.295846430860308 -16.611515439420486 12.875067012539997 #
vertex $-1 $457 $522 #
straight-curve $-1 78.295846430860308 -36.98855688895631 0 0 0 -1 I I #
plane-surface $-1 0 36.98855688895631 0 0 -1 0 0 0 -1 forward_v I I I I #
coedge $-1 $357 $356 $476 $523 forward $142 $-1 #
edge $-1 $470 16.611515439420486 $479 36.98855688895631 $372 $524 forward 7 unknown #
edge $-1 $525 -36.98855688895631 $363 -16.611515439420486 $360 $526 forward 7 unknown #
vertex $-1 $468 $527 #
straight-curve $-1 0 16.611515439420486 18.227421702983687 1 0 0 I I #
coedge $-1 $361 $360 $367 $477 forward $354 $-1 #
point $-1 -78.295846430860308 16.611515439420486 12.875067012539997 #
point $-1 -78.295846430860308 16.611515439420486 18.227421702983687 #
straight-curve $-1 -78.295846430860308 13.400018082094199 12.875067012539997 0 -1 0 I I #
coedge $-1 $368 $367 $467 $523 reversed $369 $-1 #
edge $-1 $525 -18.227421702983687 $370 -12.875067012539997 $367 $528 forward 7 unknown #
point $-1 -78.295846430860308 36.98855688895631 12.875067012539997 #
vertex $-1 $468 $529 #
straight-curve $-1 78.295846430860308 36.98855688895631 0 0 0 -1 I I #
straight-curve $-1 78.295846430860308 16.611515439420486 7.775622178880921 0 0 -1 I I #
edge $-1 $483 47.349538765675078 $486 50.793344659603463 $378 $530 forward 7 unknown #
vertex $-1 $392 $531 #
straight-curve $-1 -91.538071043181574 1.7608766554201232 18.22742170298369 -1 0 0 I I #
edge $-1 $486 -3.2940489957038359 $389 6.3603936762712614 $388 $532 forward 7 unknown #
vertex $-1 $485 $533 #
straight-curve $-1 -78.295846430860294 1.7608766554201232 14.78361580905532 0.74314481823134659 0 0.66913061440640931 I I #
point $-1 -74.471112589713655 1.7608766554201232 18.227421702983687 #
point $-1 -78.295846430860308 -7.8935660165549741 14.783615809055307 #
straight-curve $-1 -78.295846430860308 0 18.227421702983687 0 -1 0 I I #
vertex $-1 $395 $534 #
point $-1 -75.528562691322762 -5.9626774821599504 15.929656591389779 #
vertex $-1 $399 $535 #
point $-1 -75.528562691322762 -3.0663446805674184 15.929656591389779 #
vertex $-1 $403 $536 #
point $-1 -75.528562691322762 -0.1700118789748899 15.929656591389779 #
coedge $-1 $418 $417 $410 $498 forward $407 $-1 #
edge $-1 $499 93.490574213914186 $502 105.66736477663946 $497 $537 forward 7 unknown #
vertex $-1 $422 $538 #
straight-curve $-1 18.020207397460382 -10.483429958925861 18.22742170298369 1 0 0 I I #
edge $-1 $502 -6.9048489323048585 $419 -0.25231312093714564 $418 $539 forward 7 unknown #
vertex $-1 $501 $540 #
straight-curve $-1 -51.524549733878132 -10.483429958925861 93.615595669057313 -0.82903756765294845 0 0.55919291073839883 I I #
point $-1 60.243012362182725 -10.483429958925861 18.22742170298369 #
point $-1 78.295846430860308 -3.8308941475581477 6.0506311402584174 #
straight-curve $-1 78.295846430860308 0 18.227421702983687 0 1 0 I I #
vertex $-1 $425 $541 #
point $-1 69.12417503464863 -8.5827054413922284 11.029532164909501 #
vertex $-1 $429 $542 #
point $-1 69.12417503464863 -5.73161866509178 11.029532164909501 #
straight-curve $-1 -78.295846430860308 36.98855688895631 0 0 0 -1 I I #
point $-1 -78.295846430860308 -36.98855688895631 -18.227421702983687 #
straight-curve $-1 -78.295846430860308 0 -18.227421702983687 0 1 0 I I #
point $-1 -78.295846430860308 36.98855688895631 -18.227421702983687 #
coedge $-1 $455 $451 $460 $520 forward $332 $-1 #
vertex $-1 $452 $543 #
straight-curve $-1 -78.295846430860308 0 18.227421702983687 0 -1 0 I I #
point $-1 -78.295846430860308 -16.611515439420486 18.227421702983687 #
straight-curve $-1 78.295846430860308 0 18.227421702983687 0 1 0 I I #
edge $-1 $516 -78.295846430860308 $464 78.295846430860308 $460 $544 forward 7 unknown #
straight-curve $-1 -78.295846430860308 -36.98855688895631 0 0 0 -1 I I #
point $-1 78.295846430860308 -36.98855688895631 18.227421702983687 #
edge $-1 $479 -78.295846430860308 $525 78.295846430860308 $476 $545 forward 7 unknown #
straight-curve $-1 78.295846430860308 0 18.227421702983687 0 1 0 I I #
vertex $-1 $523 $546 #
straight-curve $-1 -78.295846430860308 0 18.227421702983687 0 -1 0 I I #
point $-1 78.295846430860308 16.611515439420486 18.227421702983687 #
straight-curve $-1 -78.295846430860308 36.98855688895631 0 0 0 -1 I I #
point $-1 78.295846430860308 36.98855688895631 18.227421702983687 #
straight-curve $-1 -78.295846430860308 1.7608766554201232 65.576960468658768 0 0 -1 I I #
point $-1 -78.295846430860308 1.7608766554201232 18.227421702983687 #
straight-curve $-1 -78.295846430860308 -1.5331723402837127 14.78361580905532 0 -1 0 I I #
point $-1 -78.295846430860308 1.7608766554201232 14.783615809055307 #
point $-1 -75.547066242279001 -5.9626774821599504 15.57658773323034 #
point $-1 -75.547066242279001 -3.0663446805674184 15.57658773323034 #
point $-1 -75.547066242279001 -0.1700118789748899 15.57658773323034 #
straight-curve $-1 78.295846430860308 -10.483429958925861 111.71799591689788 0 0 -1 I I #
point $-1 78.295846430860308 -10.483429958925861 18.227421702983687 #
straight-curve $-1 78.295846430860308 -3.5785810266210021 6.0506311402583961 0 1 0 I I #
point $-1 78.295846430860308 -10.483429958925861 6.0506311402584174 #
point $-1 68.430059795452962 -8.5827054413922284 10.894609836452226 #
point $-1 68.430059795452962 -5.73161866509178 10.894609836452226 #
point $-1 -78.295846430860308 -36.98855688895631 18.227421702983687 #
straight-curve $-1 0 -36.98855688895631 18.227421702983687 1 0 0 I I #
straight-curve $-1 0 36.98855688895631 18.227421702983687 -1 0 0 I I #
point $-1 -78.295846430860308 36.98855688895631 18.227421702983687 #
End-of-ACIS-data 