500 0 11 0           
7 Unknown 11 ACIS 5.0 NT 24 Thu Mar 25 16:09:02 1999 
-1 9.9999999999999995e-007 1e-010 
body $-1 $11 $-1 $12 #
body $-1 $13 $-1 $14 #
body $-1 $15 $-1 $16 #
body $-1 $17 $-1 $18 #
body $-1 $19 $-1 $20 #
body $-1 $21 $-1 $22 #
body $-1 $23 $-1 $24 #
body $-1 $25 $-1 $26 #
body $-1 $27 $-1 $28 #
body $-1 $29 $-1 $30 #
body $-1 $31 $-1 $32 #
lump $-1 $-1 $33 $0 #
transform $-1 1 0 0 0 1 0 0 0 1 58.221991637928404 29.604959675140968 9.3985605189576837 1 rotate no_reflect no_shear #
lump $-1 $-1 $34 $1 #
transform $-1 1 0 0 0 1 0 0 0 1 58.221991637928404 29.604959675140968 9.3985605189576837 1 rotate no_reflect no_shear #
lump $-1 $-1 $35 $2 #
transform $-1 1 0 0 0 1 0 0 0 1 58.221991637928404 29.604959675140968 9.3985605189576837 1 rotate no_reflect no_shear #
lump $-1 $-1 $36 $3 #
transform $-1 1 0 0 0 1 0 0 0 1 58.221991637928404 29.604959675140968 9.3985605189576837 1 rotate no_reflect no_shear #
lump $-1 $-1 $37 $4 #
transform $-1 1 0 0 0 1 0 0 0 1 58.221991637928404 29.604959675140968 9.3985605189576837 1 rotate no_reflect no_shear #
lump $-1 $-1 $38 $5 #
transform $-1 1 0 0 0 1 0 0 0 1 58.221991637928404 29.604959675140968 9.3985605189576837 1 rotate no_reflect no_shear #
lump $-1 $-1 $39 $6 #
transform $-1 1 0 0 0 1 0 0 0 1 58.221991637928404 29.604959675140968 9.3985605189576837 1 rotate no_reflect no_shear #
lump $-1 $-1 $40 $7 #
transform $-1 1 0 0 0 1 0 0 0 1 58.221991637928404 29.604959675140968 9.3985605189576837 1 rotate no_reflect no_shear #
lump $-1 $-1 $41 $8 #
transform $-1 1 0 0 0 1 0 0 0 1 58.221991637928404 29.604959675140968 9.3985605189576837 1 rotate no_reflect no_shear #
lump $-1 $-1 $42 $9 #
transform $-1 1 0 0 0 1 0 0 0 1 58.221991637928404 29.604959675140968 9.3985605189576837 1 rotate no_reflect no_shear #
lump $-1 $-1 $43 $10 #
transform $-1 1 0 0 0 1 0 0 0 1 58.221991637928404 29.604959675140968 9.3985605189576837 1 rotate no_reflect no_shear #
shell $-1 $-1 $-1 $44 $-1 $11 #
shell $-1 $-1 $-1 $45 $-1 $13 #
shell $-1 $-1 $-1 $46 $-1 $15 #
shell $-1 $-1 $-1 $47 $-1 $17 #
shell $-1 $-1 $-1 $48 $-1 $19 #
shell $-1 $-1 $-1 $49 $-1 $21 #
shell $-1 $-1 $-1 $50 $-1 $23 #
shell $-1 $-1 $-1 $51 $-1 $25 #
shell $-1 $-1 $-1 $52 $-1 $27 #
shell $-1 $-1 $-1 $53 $-1 $29 #
shell $-1 $-1 $-1 $54 $-1 $31 #
face $-1 $55 $56 $33 $-1 $57 reversed single #
face $-1 $58 $59 $34 $-1 $60 forward single #
face $-1 $61 $62 $35 $-1 $63 reversed single #
face $-1 $64 $65 $36 $-1 $66 forward single #
face $-1 $67 $68 $37 $-1 $69 forward single #
face $-1 $70 $71 $38 $-1 $72 reversed single #
face $-1 $73 $74 $39 $-1 $75 forward single #
face $-1 $76 $77 $40 $-1 $78 forward single #
face $-1 $79 $80 $41 $-1 $81 reversed single #
face $-1 $82 $83 $42 $-1 $84 forward single #
face $-1 $85 $86 $43 $-1 $87 forward single #
face $-1 $88 $89 $33 $-1 $90 forward single #
loop $-1 $-1 $91 $44 #
plane-surface $-1 0 -29.604959675140968 0 0 1 0 0 0 1 forward_v I I I I #
face $-1 $92 $93 $34 $-1 $94 reversed single #
loop $-1 $-1 $95 $45 #
plane-surface $-1 0 -29.604959675140968 0 0 1 0 0 0 1 forward_v I I I I #
face $-1 $96 $97 $35 $-1 $98 reversed single #
loop $-1 $-1 $99 $46 #
plane-surface $-1 63.969126199100153 -14.00396669486331 170.91397862936353 0 -1 0 -0.73135370988377701 0 -0.68199835119979291 forward_v I I I I #
face $-1 $100 $101 $36 $-1 $102 forward single #
loop $-1 $103 $104 $47 #
cone-surface $-1 55.702557875726455 -19.536583997555034 6.8495542701571761 -0.73135370988377701 0 -0.68199835119979291 0.68199835119979291 0 -0.73135370988377701 1 I I 0 1 1 forward I I I I #
face $-1 $105 $106 $37 $-1 $107 forward single #
loop $-1 $108 $109 $48 #
cone-surface $-1 55.702557875726455 -16.217013615940001 6.8495542701571761 -0.73135370988377701 0 -0.68199835119979291 0.68199835119979291 0 -0.73135370988377701 1 I I 0 1 1 forward I I I I #
face $-1 $110 $111 $38 $-1 $112 reversed single #
loop $-1 $-1 $113 $49 #
plane-surface $-1 -158.03396737782109 -3.6225988357300523 61.634869711750653 0 1 0 -0.85716730853699208 0 0.51503806187062418 forward_v I I I I #
face $-1 $114 $115 $39 $-1 $116 forward single #
loop $-1 $117 $118 $50 #
cone-surface $-1 -55.16516510782975 -1.4653807745915728 5.0900639527002989 0.85716730853699208 0 -0.51503806187062418 0.25751903093531209 0 0.42858365426849604 1 I I 0 1 0.5 forward I I I I #
face $-1 $119 $120 $40 $-1 $121 forward single #
loop $-1 $122 $123 $51 #
cone-surface $-1 -55.16516510782975 1.7704463171161464 5.0900639527002989 0.85716730853699208 0 -0.51503806187062418 0.25751903093531209 0 0.42858365426849604 1 I I 0 1 0.5 forward I I I I #
face $-1 $124 $125 $41 $-1 $126 reversed single #
loop $-1 $-1 $127 $52 #
plane-surface $-1 -158.03396737782109 22.054696461156297 61.634869711750653 0 1 0 -0.85716730853699208 0 0.51503806187062418 forward_v I I I I #
face $-1 $128 $129 $42 $-1 $130 forward single #
loop $-1 $131 $132 $53 #
cone-surface $-1 -55.16516510782975 24.211914522294776 5.0900639527002989 0.85716730853699208 0 -0.51503806187062418 0.25751903093531209 0 0.42858365426849604 1 I I 0 1 0.5 forward I I I I #
face $-1 $133 $134 $43 $-1 $135 forward single #
loop $-1 $136 $137 $54 #
cone-surface $-1 -55.16516510782975 27.447741614002496 5.0900639527002989 0.85716730853699208 0 -0.51503806187062418 0.25751903093531209 0 0.42858365426849604 1 I I 0 1 0.5 forward I I I I #
face $-1 $138 $139 $33 $-1 $140 reversed single #
loop $-1 $-1 $141 $55 #
plane-surface $-1 0 0 9.3985605189576837 0 0 1 1 0 0 forward_v I I I I #
coedge $-1 $142 $143 $144 $145 reversed $56 $-1 #
face $-1 $146 $147 $34 $-1 $148 reversed single #
loop $-1 $-1 $149 $58 #
plane-surface $-1 0 0 -9.3985605189576837 0 0 1 1 0 0 forward_v I I I I #
coedge $-1 $150 $151 $152 $153 forward $59 $-1 #
face $-1 $154 $155 $35 $-1 $156 reversed single #
loop $-1 $-1 $157 $61 #
plane-surface $-1 -21.192612963342206 -17.876798806747516 91.49937402809293 0.73135370988377701 0 0.68199835119979291 0.68199835119979291 0 -0.73135370988377701 forward_v I I I I #
coedge $-1 $158 $159 $160 $161 reversed $62 $-1 #
face $-1 $-1 $162 $36 $-1 $163 forward single #
loop $-1 $164 $165 $64 #
cone-surface $-1 54.244626898535735 -19.536583997555034 5.4900116724103434 -0.73135370988377701 0 -0.68199835119979291 0.34099917559989645 0 -0.36567685494188851 1 I I -0.70710678118654746 0.70710678118654746 0.5 forward I I I I #
loop $-1 $-1 $166 $47 #
coedge $-1 $104 $104 $167 $168 reversed $65 $-1 #
face $-1 $-1 $169 $37 $-1 $170 forward single #
loop $-1 $171 $172 $67 #
cone-surface $-1 54.244626898535735 -16.217013615940001 5.4900116724103434 -0.73135370988377701 0 -0.68199835119979291 0.34099917559989645 0 -0.36567685494188851 1 I I -0.70710678118654746 0.70710678118654746 0.5 forward I I I I #
loop $-1 $-1 $173 $48 #
coedge $-1 $109 $109 $174 $175 reversed $68 $-1 #
face $-1 $176 $177 $38 $-1 $178 reversed single #
loop $-1 $-1 $179 $70 #
plane-surface $-1 -58.221991637928383 0.15253277126228681 1.661786248857986 -0.85716730853699208 0 0.51503806187062418 0.51503806187062418 0 0.85716730853699208 forward_v I I I I #
coedge $-1 $180 $181 $182 $183 reversed $71 $-1 #
face $-1 $-1 $184 $39 $-1 $185 forward single #
loop $-1 $186 $187 $73 #
cone-surface $-1 -54.21840815910867 -1.4653807745915728 4.5211950060251027 0.85716730853699208 0 -0.51503806187062418 0.12875951546765604 0 0.21429182713424802 1 I I -0.70710678118654746 0.70710678118654746 0.25 forward I I I I #
loop $-1 $-1 $188 $50 #
coedge $-1 $118 $118 $189 $190 reversed $74 $-1 #
face $-1 $-1 $191 $40 $-1 $192 forward single #
loop $-1 $193 $194 $76 #
cone-surface $-1 -54.21840815910867 1.7704463171161464 4.5211950060251027 0.85716730853699208 0 -0.51503806187062418 0.12875951546765604 0 0.21429182713424802 1 I I -0.70710678118654746 0.70710678118654746 0.25 forward I I I I #
loop $-1 $-1 $195 $51 #
coedge $-1 $123 $123 $196 $197 reversed $77 $-1 #
face $-1 $198 $199 $41 $-1 $200 forward single #
loop $-1 $-1 $201 $79 #
plane-surface $-1 -58.221991637928383 25.829828068148636 1.661786248857986 -0.85716730853699208 0 0.51503806187062418 0.51503806187062418 0 0.85716730853699208 forward_v I I I I #
coedge $-1 $202 $203 $204 $205 reversed $80 $-1 #
face $-1 $-1 $206 $42 $-1 $207 forward single #
loop $-1 $208 $209 $82 #
cone-surface $-1 -54.21840815910867 24.211914522294776 4.5211950060251027 0.85716730853699208 0 -0.51503806187062418 0.12875951546765604 0 0.21429182713424802 1 I I -0.70710678118654746 0.70710678118654746 0.25 forward I I I I #
loop $-1 $-1 $210 $53 #
coedge $-1 $132 $132 $211 $212 reversed $83 $-1 #
face $-1 $-1 $213 $43 $-1 $214 forward single #
loop $-1 $215 $216 $85 #
cone-surface $-1 -54.21840815910867 27.447741614002496 4.5211950060251027 0.85716730853699208 0 -0.51503806187062418 0.12875951546765604 0 0.21429182713424802 1 I I -0.70710678118654746 0.70710678118654746 0.25 forward I I I I #
loop $-1 $-1 $217 $54 #
coedge $-1 $137 $137 $218 $219 reversed $86 $-1 #
face $-1 $220 $221 $33 $-1 $222 reversed single #
loop $-1 $-1 $223 $88 #
plane-surface $-1 0 0 -9.3985605189576837 0 0 1 1 0 0 forward_v I I I I #
coedge $-1 $224 $225 $226 $227 forward $89 $-1 #
coedge $-1 $228 $91 $229 $230 reversed $56 $-1 #
coedge $-1 $91 $228 $231 $232 forward $56 $-1 #
coedge $-1 $233 $223 $91 $145 forward $139 $-1 #
edge $-1 $234 -58.221991637928404 $235 58.221991637928404 $91 $236 forward 7 unknown #
face $-1 $237 $238 $34 $-1 $239 reversed single #
loop $-1 $-1 $240 $92 #
plane-surface $-1 -53.335165154679672 -37.460288431650213 0 0 1 0 0 0 1 forward_v I I I I #
coedge $-1 $241 $242 $151 $243 forward $93 $-1 #
coedge $-1 $244 $95 $245 $246 reversed $59 $-1 #
coedge $-1 $95 $244 $149 $243 reversed $59 $-1 #
coedge $-1 $247 $248 $95 $153 reversed $238 $-1 #
edge $-1 $249 -9.3985605189576837 $250 9.3985605189576837 $152 $251 forward 7 unknown #
face $-1 $252 $253 $35 $-1 $254 forward single #
loop $-1 $-1 $255 $96 #
plane-surface $-1 63.969126199100153 -21.749630918631723 170.91397862936353 0 1 0 0.73135370988377701 0 0.68199835119979291 forward_v I I I I #
coedge $-1 $256 $257 $258 $259 reversed $97 $-1 #
coedge $-1 $159 $99 $260 $261 reversed $62 $-1 #
coedge $-1 $99 $158 $256 $262 reversed $62 $-1 #
coedge $-1 $258 $263 $99 $161 forward $253 $-1 #
edge $-1 $264 -26.237428538378328 $265 -23.383069258472108 $160 $266 forward 7 unknown #
loop $-1 $-1 $167 $100 #
plane-surface $-1 -21.192612963342206 -17.876798806747516 91.49937402809293 0.73135370988377701 0 0.68199835119979291 0.68199835119979291 0 -0.73135370988377701 forward_v I I I I #
loop $-1 $-1 $267 $64 #
coedge $-1 $165 $165 $166 $268 reversed $101 $-1 #
coedge $-1 $166 $166 $165 $268 forward $103 $-1 #
coedge $-1 $167 $167 $104 $168 forward $162 $-1 #
edge $-1 $269 0 $269 6.2831853071796004 $167 $270 forward 7 unknown #
loop $-1 $-1 $174 $105 #
plane-surface $-1 -21.192612963342206 -17.876798806747516 91.49937402809293 0.73135370988377701 0 0.68199835119979291 0.68199835119979291 0 -0.73135370988377701 forward_v I I I I #
loop $-1 $-1 $271 $67 #
coedge $-1 $172 $172 $173 $272 reversed $106 $-1 #
coedge $-1 $173 $173 $172 $272 forward $108 $-1 #
coedge $-1 $174 $174 $109 $175 forward $169 $-1 #
edge $-1 $273 0 $273 6.2831853071796004 $174 $274 forward 7 unknown #
face $-1 $275 $276 $38 $-1 $277 reversed single #
loop $-1 $-1 $278 $110 #
plane-surface $-1 -158.03396737782109 3.9276643782546259 61.634869711750653 0 -1 0 0.85716730853699208 0 -0.51503806187062418 forward_v I I I I #
coedge $-1 $279 $280 $281 $282 reversed $111 $-1 #
coedge $-1 $181 $113 $283 $284 reversed $71 $-1 #
coedge $-1 $113 $180 $279 $285 reversed $71 $-1 #
coedge $-1 $281 $286 $113 $183 forward $287 $-1 #
edge $-1 $288 20.794992050982138 $289 25.443714868005806 $182 $290 forward 7 unknown #
loop $-1 $-1 $189 $114 #
plane-surface $-1 -58.221991637928383 0.15253277126228681 1.661786248857986 -0.85716730853699208 0 0.51503806187062418 0.51503806187062418 0 0.85716730853699208 forward_v I I I I #
loop $-1 $-1 $291 $73 #
coedge $-1 $187 $187 $188 $292 reversed $115 $-1 #
coedge $-1 $188 $188 $187 $292 forward $117 $-1 #
coedge $-1 $189 $189 $118 $190 forward $184 $-1 #
edge $-1 $293 0 $293 6.2831853071796004 $189 $294 forward 7 unknown #
loop $-1 $-1 $196 $119 #
plane-surface $-1 -58.221991637928383 0.15253277126228681 1.661786248857986 -0.85716730853699208 0 0.51503806187062418 0.51503806187062418 0 0.85716730853699208 forward_v I I I I #
loop $-1 $-1 $295 $76 #
coedge $-1 $194 $194 $195 $296 reversed $120 $-1 #
coedge $-1 $195 $195 $194 $296 forward $122 $-1 #
coedge $-1 $196 $196 $123 $197 forward $191 $-1 #
edge $-1 $297 0 $297 6.2831853071796004 $196 $298 forward 7 unknown #
face $-1 $299 $300 $41 $-1 $301 reversed single #
loop $-1 $-1 $204 $124 #
plane-surface $-1 0 0 9.3985605189576837 0 0 1 1 0 0 forward_v I I I I #
coedge $-1 $302 $303 $304 $305 reversed $125 $-1 #
coedge $-1 $203 $127 $306 $307 reversed $80 $-1 #
coedge $-1 $127 $202 $302 $308 reversed $80 $-1 #
coedge $-1 $304 $309 $127 $205 forward $199 $-1 #
edge $-1 $310 20.794992050982138 $311 25.443714868005806 $204 $312 forward 7 unknown #
loop $-1 $-1 $211 $128 #
plane-surface $-1 -58.221991637928383 25.829828068148636 1.661786248857986 -0.85716730853699208 0 0.51503806187062418 0.51503806187062418 0 0.85716730853699208 forward_v I I I I #
loop $-1 $-1 $313 $82 #
coedge $-1 $209 $209 $210 $314 reversed $129 $-1 #
coedge $-1 $210 $210 $209 $314 forward $131 $-1 #
coedge $-1 $211 $211 $132 $212 forward $206 $-1 #
edge $-1 $315 0 $315 6.2831853071796004 $211 $316 forward 7 unknown #
loop $-1 $-1 $218 $133 #
plane-surface $-1 -58.221991637928383 25.829828068148636 1.661786248857986 -0.85716730853699208 0 0.51503806187062418 0.51503806187062418 0 0.85716730853699208 forward_v I I I I #
loop $-1 $-1 $317 $85 #
coedge $-1 $216 $216 $217 $318 reversed $134 $-1 #
coedge $-1 $217 $217 $216 $318 forward $136 $-1 #
coedge $-1 $218 $218 $137 $219 forward $213 $-1 #
edge $-1 $319 0 $319 6.2831853071796004 $218 $320 forward 7 unknown #
face $-1 $321 $322 $33 $-1 $323 reversed single #
loop $-1 $-1 $324 $138 #
plane-surface $-1 -58.221991637928404 0 0 1 0 0 0 0 -1 forward_v I I I I #
coedge $-1 $144 $325 $326 $327 forward $139 $-1 #
coedge $-1 $328 $141 $329 $330 forward $89 $-1 #
coedge $-1 $141 $328 $228 $331 forward $89 $-1 #
coedge $-1 $229 $332 $141 $227 reversed $333 $-1 #
edge $-1 $334 -29.604959675140968 $335 29.604959675140968 $226 $336 forward 7 unknown #
coedge $-1 $143 $142 $225 $331 reversed $56 $-1 #
coedge $-1 $326 $226 $142 $230 forward $333 $-1 #
edge $-1 $334 -9.3985605189576837 $234 9.3985605189576837 $229 $337 forward 7 unknown #
coedge $-1 $338 $339 $143 $232 reversed $221 $-1 #
edge $-1 $340 -9.3985605189576837 $235 9.3985605189576837 $231 $341 forward 7 unknown #
coedge $-1 $325 $144 $339 $342 forward $139 $-1 #
vertex $-1 $230 $343 #
vertex $-1 $342 $344 #
straight-curve $-1 0 -29.604959675140968 -9.3985605189576837 -1 0 0 I I #
face $-1 $345 $346 $34 $-1 $347 reversed single #
loop $-1 $-1 $152 $146 #
plane-surface $-1 -55.720300504128588 -33.532624053395594 0 1 0 0 0 0 -1 forward_v I I I I #
coedge $-1 $348 $349 $350 $351 forward $147 $-1 #
coedge $-1 $352 $149 $353 $354 forward $93 $-1 #
coedge $-1 $149 $352 $247 $355 forward $93 $-1 #
edge $-1 $249 -55.720300504128588 $356 -50.950029805230756 $149 $357 forward 7 unknown #
coedge $-1 $151 $150 $358 $359 forward $59 $-1 #
coedge $-1 $360 $361 $150 $246 forward $362 $-1 #
edge $-1 $363 50.950029805230756 $250 55.720300504128588 $245 $364 forward 7 unknown #
coedge $-1 $350 $152 $242 $355 reversed $238 $-1 #
coedge $-1 $152 $350 $360 $365 reversed $238 $-1 #
vertex $-1 $243 $366 #
vertex $-1 $365 $367 #
straight-curve $-1 -55.720300504128588 -29.604959675140968 0 0 0 1 I I #
face $-1 $-1 $368 $35 $-1 $369 reversed single #
loop $-1 $-1 $160 $154 #
plane-surface $-1 0 0 9.3985605189576837 0 0 1 1 0 0 forward_v I I I I #
coedge $-1 $370 $371 $372 $373 reversed $155 $-1 #
coedge $-1 $374 $157 $159 $262 forward $97 $-1 #
coedge $-1 $157 $374 $370 $375 forward $97 $-1 #
coedge $-1 $372 $160 $157 $259 forward $253 $-1 #
edge $-1 $265 5.0655672914895522 $376 12.811231515257965 $258 $377 forward 7 unknown #
coedge $-1 $378 $379 $158 $261 forward $368 $-1 #
edge $-1 $380 -79.119354449031206 $264 -76.058428795724083 $260 $381 forward 7 unknown #
edge $-1 $265 112.25869562100436 $380 116.44398327585681 $159 $382 forward 7 unknown #
coedge $-1 $160 $372 $378 $383 forward $253 $-1 #
vertex $-1 $161 $384 #
vertex $-1 $161 $385 #
straight-curve $-1 31.984563099550076 -14.00396669486331 9.3985605189576802 -1 0 0 I I #
coedge $-1 $267 $267 $-1 $386 reversed $164 $-1 #
edge $-1 $387 0 $387 6.2831853071796004 $165 $388 forward 7 unknown #
vertex $-1 $168 $389 #
ellipse-curve $-1 56.794811997975295 -19.536583997555034 7.8680976923041177 0.73135370988377701 0 0.68199835119979291 0.68199835119979291 0 -0.73135370988377701 1 I I #
coedge $-1 $271 $271 $-1 $390 reversed $171 $-1 #
edge $-1 $391 0 $391 6.2831853071796004 $172 $392 forward 7 unknown #
vertex $-1 $175 $393 #
ellipse-curve $-1 56.794811997975295 -16.217013615940001 7.8680976923041177 0.73135370988377701 0 0.68199835119979291 0.68199835119979291 0 -0.73135370988377701 1 I I #
face $-1 $-1 $287 $38 $-1 $394 forward single #
loop $-1 $-1 $395 $176 #
plane-surface $-1 -58.221991637928404 0 0 1 0 0 0 0 -1 forward_v I I I I #
coedge $-1 $396 $397 $398 $399 reversed $177 $-1 #
coedge $-1 $400 $179 $181 $285 forward $111 $-1 #
coedge $-1 $179 $400 $396 $401 forward $111 $-1 #
coedge $-1 $398 $182 $179 $282 forward $287 $-1 #
edge $-1 $289 -3.6988652213611957 $402 3.8513979926234825 $281 $403 forward 7 unknown #
coedge $-1 $404 $405 $180 $284 forward $276 $-1 #
edge $-1 $406 -29.155648607017376 $288 -21.418874336917643 $283 $407 forward 7 unknown #
edge $-1 $289 -9.0259791677132188 $406 4.1431396825663817e-014 $181 $408 forward 7 unknown #
coedge $-1 $182 $398 $404 $409 forward $287 $-1 #
loop $-1 $-1 $398 $275 #
vertex $-1 $284 $410 #
vertex $-1 $183 $411 #
straight-curve $-1 -79.016983688910543 -3.6225988357300523 9.3985605189576837 1 0 0 I I #
coedge $-1 $291 $291 $-1 $412 reversed $186 $-1 #
edge $-1 $413 0 $413 6.2831853071796004 $187 $414 forward 7 unknown #
vertex $-1 $190 $415 #
ellipse-curve $-1 -55.897630229416563 -1.4653807745915728 5.5301733839078278 -0.85716730853699208 0 0.51503806187062418 0.25751903093531209 0 0.42858365426849604 1 I I #
coedge $-1 $295 $295 $-1 $416 reversed $193 $-1 #
edge $-1 $417 0 $417 6.2831853071796004 $194 $418 forward 7 unknown #
vertex $-1 $197 $419 #
ellipse-curve $-1 -55.897630229416563 1.7704463171161464 5.5301733839078278 -0.85716730853699208 0 0.51503806187062418 0.25751903093531209 0 0.42858365426849604 1 I I #
face $-1 $-1 $420 $41 $-1 $421 reversed single #
loop $-1 $-1 $422 $198 #
plane-surface $-1 0 29.604959675140968 0 0 -1 0 0 0 -1 forward_v I I I I #
coedge $-1 $423 $201 $203 $308 forward $125 $-1 #
coedge $-1 $201 $423 $422 $424 reversed $125 $-1 #
coedge $-1 $425 $204 $201 $305 forward $199 $-1 #
edge $-1 $311 9.139782427081979 $426 16.690045641066657 $304 $427 forward 7 unknown #
coedge $-1 $428 $429 $202 $307 forward $420 $-1 #
edge $-1 $430 -29.155648607017376 $310 -21.418874336917643 $306 $431 forward 7 unknown #
edge $-1 $311 -9.0259791677132188 $430 4.1431396825663817e-014 $203 $432 forward 7 unknown #
coedge $-1 $204 $425 $428 $433 forward $199 $-1 #
vertex $-1 $307 $434 #
vertex $-1 $205 $435 #
straight-curve $-1 -79.016983688910543 22.054696461156297 9.3985605189576837 1 0 0 I I #
coedge $-1 $313 $313 $-1 $436 reversed $208 $-1 #
edge $-1 $437 0 $437 6.2831853071796004 $209 $438 forward 7 unknown #
vertex $-1 $212 $439 #
ellipse-curve $-1 -55.897630229416563 24.211914522294776 5.5301733839078278 -0.85716730853699208 0 0.51503806187062418 0.25751903093531209 0 0.42858365426849604 1 I I #
coedge $-1 $317 $317 $-1 $440 reversed $215 $-1 #
edge $-1 $441 0 $441 6.2831853071796004 $216 $442 forward 7 unknown #
vertex $-1 $219 $443 #
ellipse-curve $-1 -55.897630229416563 27.447741614002496 5.5301733839078278 -0.85716730853699208 0 0.51503806187062418 0.25751903093531209 0 0.42858365426849604 1 I I #
face $-1 $-1 $333 $33 $-1 $444 reversed single #
loop $-1 $-1 $445 $220 #
plane-surface $-1 0 29.604959675140968 0 0 -1 0 0 0 -1 forward_v I I I I #
coedge $-1 $339 $338 $446 $447 forward $221 $-1 #
coedge $-1 $223 $233 $448 $449 forward $139 $-1 #
coedge $-1 $332 $229 $223 $327 reversed $333 $-1 #
edge $-1 $450 -29.604959675140968 $234 29.604959675140968 $326 $451 forward 7 unknown #
coedge $-1 $225 $224 $338 $452 forward $89 $-1 #
coedge $-1 $445 $446 $224 $330 reversed $322 $-1 #
edge $-1 $335 -58.221991637928404 $453 58.221991637928404 $329 $454 forward 7 unknown #
edge $-1 $340 -58.221991637928404 $334 58.221991637928404 $228 $455 forward 7 unknown #
coedge $-1 $226 $326 $445 $456 reversed $333 $-1 #
loop $-1 $-1 $229 $321 #
vertex $-1 $227 $457 #
vertex $-1 $227 $458 #
straight-curve $-1 58.221991637928404 0 9.3985605189576837 0 1 0 I I #
straight-curve $-1 58.221991637928404 -29.604959675140968 0 0 0 -1 I I #
coedge $-1 $324 $231 $328 $452 reversed $221 $-1 #
coedge $-1 $231 $324 $233 $342 reversed $221 $-1 #
vertex $-1 $452 $459 #
straight-curve $-1 -58.221991637928404 -29.604959675140968 0 0 0 -1 I I #
edge $-1 $235 -29.604959675140968 $460 29.604959675140968 $339 $461 forward 7 unknown #
point $-1 58.221991637928404 -29.604959675140968 -9.3985605189576837 #
point $-1 -58.221991637928404 -29.604959675140968 -9.3985605189576837 #
face $-1 $-1 $362 $34 $-1 $462 forward single #
loop $-1 $-1 $463 $237 #
plane-surface $-1 -50.950029805230756 -33.532624053395594 0 -1 0 0 0 0 1 forward_v I I I I #
coedge $-1 $464 $240 $352 $465 reversed $147 $-1 #
coedge $-1 $240 $464 $466 $467 reversed $147 $-1 #
coedge $-1 $248 $247 $240 $351 reversed $238 $-1 #
edge $-1 $468 -9.3985605189576837 $469 9.3985605189576837 $350 $470 forward 7 unknown #
coedge $-1 $242 $241 $348 $465 forward $93 $-1 #
coedge $-1 $358 $463 $241 $354 reversed $346 $-1 #
edge $-1 $356 -3.9276643782546223 $471 3.9276643782546188 $353 $472 forward 7 unknown #
edge $-1 $469 -3.9276643782546188 $249 3.9276643782546223 $247 $473 forward 7 unknown #
vertex $-1 $354 $474 #
straight-curve $-1 0 -29.604959675140968 -9.3985605189576837 1 0 0 I I #
coedge $-1 $475 $353 $244 $359 reversed $346 $-1 #
edge $-1 $363 -9.3985605189576837 $356 9.3985605189576837 $358 $476 forward 7 unknown #
coedge $-1 $466 $245 $248 $365 forward $362 $-1 #
coedge $-1 $245 $466 $475 $477 forward $362 $-1 #
loop $-1 $-1 $245 $345 #
vertex $-1 $246 $478 #
straight-curve $-1 0 -29.604959675140968 9.3985605189576837 -1 0 0 I I #
edge $-1 $250 -3.9276643782546223 $468 3.9276643782546188 $248 $479 forward 7 unknown #
point $-1 -55.720300504128588 -29.604959675140972 -9.3985605189576837 #
point $-1 -55.720300504128588 -29.604959675140972 9.3985605189576837 #
loop $-1 $-1 $260 $252 #
plane-surface $-1 58.221991637928404 0 0 -1 0 0 0 0 1 forward_v I I I I #
coedge $-1 $371 $255 $257 $375 reversed $155 $-1 #
coedge $-1 $255 $370 $480 $481 reversed $155 $-1 #
coedge $-1 $263 $258 $255 $373 forward $253 $-1 #
edge $-1 $376 23.383069258472108 $482 26.237428538378328 $372 $483 forward 7 unknown #
coedge $-1 $257 $256 $379 $484 reversed $97 $-1 #
edge $-1 $485 -116.44398327585681 $376 -112.25869562100436 $370 $486 forward 7 unknown #
vertex $-1 $259 $487 #
straight-curve $-1 55.367632358022178 -8.9383994033737579 9.3985605189576731 0 -1 0 I I #
coedge $-1 $480 $260 $263 $383 reversed $368 $-1 #
coedge $-1 $260 $480 $374 $484 forward $368 $-1 #
vertex $-1 $261 $488 #
straight-curve $-1 58.221991637928404 -14.00396669486331 85.456989314681763 0 0 1 I I #
straight-curve $-1 -21.192612963342206 -14.00396669486331 91.49937402809293 0.68199835119979291 0 -0.73135370988377701 I I #
edge $-1 $482 -21.749630918631723 $264 -14.00396669486331 $378 $489 forward 7 unknown #
point $-1 58.221991637928404 -14.00396669486331 9.3985605189576837 #
point $-1 55.367632358022185 -14.00396669486331 9.3985605189576802 #
edge $-1 $490 1 $490 0 $267 $-1 forward 7 unknown #
vertex $-1 $268 $491 #
ellipse-curve $-1 54.610303753477623 -19.536583997555034 5.8310108480102398 0.73135370988377701 0 0.68199835119979291 0.68199835119979291 0 -0.73135370988377701 1 I I #
point $-1 57.476810349175082 -19.536583997555034 7.1367439824203363 #
edge $-1 $492 1 $492 0 $271 $-1 forward 7 unknown #
vertex $-1 $272 $493 #
ellipse-curve $-1 54.610303753477623 -16.217013615940001 5.8310108480102398 0.73135370988377701 0 0.68199835119979291 0.68199835119979291 0 -0.73135370988377701 1 I I #
point $-1 57.476810349175082 -16.217013615940001 7.1367439824203363 #
plane-surface $-1 0 0 9.3985605189576837 0 0 1 1 0 0 forward_v I I I I #
coedge $-1 $405 $404 $397 $494 forward $276 $-1 #
coedge $-1 $397 $278 $280 $401 reversed $177 $-1 #
coedge $-1 $278 $396 $395 $494 reversed $177 $-1 #
coedge $-1 $286 $281 $278 $399 forward $287 $-1 #
edge $-1 $402 -25.443714868005806 $495 -20.794992050982138 $398 $496 forward 7 unknown #
coedge $-1 $280 $279 $405 $497 reversed $111 $-1 #
edge $-1 $498 -4.1431396825663817e-014 $402 9.0259791677132188 $396 $499 forward 7 unknown #
vertex $-1 $282 $500 #
straight-curve $-1 -53.573268820904737 0.076266385631143407 9.3985605189576837 0 1 0 I I #
coedge $-1 $395 $283 $286 $409 reversed $276 $-1 #
coedge $-1 $283 $395 $400 $497 forward $276 $-1 #
vertex $-1 $284 $501 #
straight-curve $-1 -58.221991637928404 -3.6225988357300523 30.817434855875327 0 0 1 I I #
straight-curve $-1 -58.221991637928383 -3.6225988357300523 1.661786248857986 -0.51503806187062418 0 -0.85716730853699208 I I #
edge $-1 $495 -3.9276643782546259 $288 3.6225988357300523 $404 $502 forward 7 unknown #
point $-1 -58.221991637928404 -3.6225988357300523 9.3985605189576837 #
point $-1 -53.573268820904737 -3.6225988357300523 9.3985605189576837 #
edge $-1 $503 1 $503 0 $291 $-1 forward 7 unknown #
vertex $-1 $292 $504 #
ellipse-curve $-1 -54.432699986242916 -1.4653807745915728 4.6499545214927585 -0.85716730853699208 0 0.51503806187062418 0.25751903093531209 0 0.42858365426849604 1 I I #
point $-1 -55.640111198481272 -1.4653807745915728 5.9587570381763353 #
edge $-1 $505 1 $505 0 $295 $-1 forward 7 unknown #
vertex $-1 $296 $506 #
ellipse-curve $-1 -54.432699986242916 1.7704463171161464 4.6499545214927585 -0.85716730853699208 0 0.51503806187062418 0.25751903093531209 0 0.42858365426849604 1 I I #
point $-1 -55.640111198481272 1.7704463171161464 5.9587570381763353 #
loop $-1 $-1 $306 $299 #
plane-surface $-1 -58.221991637928404 0 0 1 0 0 0 0 -1 forward_v I I I I #
coedge $-1 $507 $508 $303 $424 forward $300 $-1 #
coedge $-1 $303 $302 $429 $509 reversed $125 $-1 #
edge $-1 $426 5.2550772748612546 $510 14.281056442574515 $422 $511 forward 7 unknown #
coedge $-1 $309 $304 $508 $512 forward $199 $-1 #
vertex $-1 $512 $513 #
straight-curve $-1 -53.573268820904737 12.914914034074318 9.3985605189576837 0 1 0 I I #
coedge $-1 $514 $306 $309 $433 reversed $420 $-1 #
coedge $-1 $306 $514 $423 $509 forward $420 $-1 #
vertex $-1 $307 $515 #
straight-curve $-1 -58.221991637928404 22.054696461156297 30.817434855875327 0 0 1 I I #
straight-curve $-1 -58.221991637928383 22.054696461156297 1.661786248857986 -0.51503806187062418 0 -0.85716730853699208 I I #
edge $-1 $516 -29.604959675140968 $310 -22.054696461156297 $428 $517 forward 7 unknown #
point $-1 -58.221991637928404 22.054696461156297 9.3985605189576837 #
point $-1 -53.573268820904737 22.054696461156297 9.3985605189576837 #
edge $-1 $518 1 $518 0 $313 $-1 forward 7 unknown #
vertex $-1 $314 $519 #
ellipse-curve $-1 -54.432699986242916 24.211914522294776 4.6499545214927585 -0.85716730853699208 0 0.51503806187062418 0.25751903093531209 0 0.42858365426849604 1 I I #
point $-1 -55.640111198481272 24.211914522294776 5.9587570381763353 #
edge $-1 $520 1 $520 0 $317 $-1 forward 7 unknown #
vertex $-1 $318 $521 #
ellipse-curve $-1 -54.432699986242916 27.447741614002496 4.6499545214927585 -0.85716730853699208 0 0.51503806187062418 0.25751903093531209 0 0.42858365426849604 1 I I #
point $-1 -55.640111198481272 27.447741614002496 5.9587570381763353 #
plane-surface $-1 58.221991637928404 0 0 -1 0 0 0 0 1 forward_v I I I I #
coedge $-1 $448 $329 $332 $456 forward $322 $-1 #
coedge $-1 $329 $448 $324 $447 reversed $322 $-1 #
edge $-1 $453 -9.3985605189576837 $460 9.3985605189576837 $446 $522 forward 7 unknown #
coedge $-1 $446 $445 $325 $449 reversed $322 $-1 #
edge $-1 $460 -58.221991637928404 $450 58.221991637928404 $448 $523 forward 7 unknown #
vertex $-1 $327 $524 #
straight-curve $-1 58.221991637928404 0 -9.3985605189576837 0 -1 0 I I #
edge $-1 $453 -29.604959675140968 $340 29.604959675140968 $338 $525 forward 7 unknown #
vertex $-1 $330 $526 #
straight-curve $-1 0 29.604959675140968 9.3985605189576837 -1 0 0 I I #
straight-curve $-1 0 -29.604959675140968 9.3985605189576837 1 0 0 I I #
edge $-1 $335 -9.3985605189576837 $450 9.3985605189576837 $332 $527 forward 7 unknown #
point $-1 58.221991637928404 -29.604959675140968 9.3985605189576837 #
point $-1 58.221991637928404 29.604959675140968 9.3985605189576837 #
point $-1 -58.221991637928404 -29.604959675140968 9.3985605189576837 #
vertex $-1 $449 $528 #
straight-curve $-1 -58.221991637928404 0 -9.3985605189576837 0 1 0 I I #
plane-surface $-1 0 0 9.3985605189576837 0 0 1 1 0 0 forward_v I I I I #
coedge $-1 $353 $475 $464 $529 forward $346 $-1 #
coedge $-1 $349 $348 $463 $529 reversed $147 $-1 #
edge $-1 $471 -2.385135349448916 $469 2.385135349448916 $348 $530 forward 7 unknown #
coedge $-1 $361 $360 $349 $467 forward $362 $-1 #
edge $-1 $468 -2.385135349448916 $531 2.385135349448916 $349 $532 forward 7 unknown #
vertex $-1 $365 $533 #
vertex $-1 $355 $534 #
straight-curve $-1 -55.720300504128588 -37.460288431650213 0 0 0 -1 I I #
vertex $-1 $529 $535 #
straight-curve $-1 -50.950029805230756 -33.532624053395594 -9.3985605189576837 0 -1 0 I I #
straight-curve $-1 -55.720300504128588 -33.532624053395594 -9.3985605189576837 0 1 0 I I #
point $-1 -50.950029805230756 -29.604959675140972 -9.3985605189576837 #
coedge $-1 $463 $358 $361 $477 reversed $346 $-1 #
straight-curve $-1 -50.950029805230756 -29.604959675140968 0 0 0 -1 I I #
edge $-1 $531 -3.9276643782546188 $363 3.9276643782546223 $475 $536 forward 7 unknown #
point $-1 -50.950029805230756 -29.604959675140972 9.3985605189576837 #
straight-curve $-1 -55.720300504128588 -33.532624053395594 9.3985605189576837 0 -1 0 I I #
coedge $-1 $379 $378 $371 $481 forward $368 $-1 #
edge $-1 $482 76.058428795724083 $485 79.119354449031206 $480 $537 forward 7 unknown #
vertex $-1 $383 $538 #
straight-curve $-1 31.984563099550076 -21.749630918631723 9.3985605189576802 1 0 0 I I #
edge $-1 $485 -12.811231515257965 $380 -5.0655672914895522 $379 $539 forward 7 unknown #
vertex $-1 $484 $540 #
straight-curve $-1 -21.192612963342206 -21.749630918631723 91.49937402809293 -0.68199835119979291 0 0.73135370988377701 I I #
point $-1 55.367632358022185 -21.749630918631723 9.3985605189576802 #
point $-1 58.221991637928404 -14.00396669486331 6.337634865650557 #
straight-curve $-1 58.221991637928404 0 9.3985605189576837 0 1 0 I I #
vertex $-1 $386 $541 #
point $-1 55.292302104677418 -19.536583997555034 5.0996571381264628 #
vertex $-1 $390 $542 #
point $-1 55.292302104677418 -16.217013615940001 5.0996571381264628 #
edge $-1 $495 21.418874336917643 $498 29.155648607017376 $395 $543 forward 7 unknown #
vertex $-1 $409 $544 #
straight-curve $-1 -79.016983688910543 3.9276643782546259 9.3985605189576837 -1 0 0 I I #
edge $-1 $498 -3.8513979926234825 $406 3.6988652213611957 $405 $545 forward 7 unknown #
vertex $-1 $497 $546 #
straight-curve $-1 -58.221991637928383 3.9276643782546259 1.661786248857986 0.51503806187062418 0 0.85716730853699208 I I #
point $-1 -53.573268820904737 3.9276643782546259 9.3985605189576837 #
point $-1 -58.221991637928404 -3.6225988357300523 1.6617862488579505 #
straight-curve $-1 -58.221991637928404 0 9.3985605189576837 0 -1 0 I I #
vertex $-1 $412 $547 #
point $-1 -54.175180955307603 -1.4653807745915728 5.0785381757612544 #
vertex $-1 $416 $548 #
point $-1 -54.175180955307603 1.7704463171161464 5.0785381757612544 #
coedge $-1 $508 $422 $514 $549 reversed $300 $-1 #
coedge $-1 $422 $507 $425 $512 reversed $300 $-1 #
edge $-1 $510 -16.690045641066657 $430 -9.139782427081979 $429 $550 forward 7 unknown #
vertex $-1 $424 $551 #
straight-curve $-1 -50.866704006279832 29.604959675140968 13.903040962804415 -0.51503806187062429 0 -0.85716730853699219 I I #
edge $-1 $426 53.573268820904737 $516 58.221991637928404 $508 $552 forward 7 unknown #
point $-1 -53.573268820904737 29.604959675140975 9.3985605189576837 #
coedge $-1 $429 $428 $507 $549 forward $420 $-1 #
point $-1 -58.221991637928404 22.054696461156297 1.6617862488579505 #
vertex $-1 $512 $553 #
straight-curve $-1 -58.221991637928404 0 9.3985605189576837 0 -1 0 I I #
vertex $-1 $436 $554 #
point $-1 -54.175180955307603 24.211914522294776 5.0785381757612544 #
vertex $-1 $440 $555 #
point $-1 -54.175180955307603 27.447741614002496 5.0785381757612544 #
straight-curve $-1 -58.221991637928404 29.604959675140968 0 0 0 -1 I I #
straight-curve $-1 0 29.604959675140968 -9.3985605189576837 1 0 0 I I #
point $-1 58.221991637928404 29.604959675140968 -9.3985605189576837 #
straight-curve $-1 -58.221991637928404 0 9.3985605189576837 0 -1 0 I I #
point $-1 -58.221991637928404 29.604959675140968 9.3985605189576837 #
straight-curve $-1 58.221991637928404 29.604959675140968 0 0 0 -1 I I #
point $-1 -58.221991637928404 29.604959675140968 -9.3985605189576837 #
edge $-1 $531 -9.3985605189576837 $471 9.3985605189576837 $463 $556 forward 7 unknown #
straight-curve $-1 -53.335165154679672 -37.460288431650213 -9.3985605189576837 -1 0 0 I I #
vertex $-1 $477 $557 #
straight-curve $-1 -53.335165154679672 -37.460288431650213 9.3985605189576837 1 0 0 I I #
point $-1 -55.720300504128588 -37.460288431650213 9.3985605189576837 #
point $-1 -55.720300504128588 -37.460288431650213 -9.3985605189576837 #
point $-1 -50.950029805230756 -37.460288431650213 -9.3985605189576837 #
straight-curve $-1 -50.950029805230756 -33.532624053395594 9.3985605189576837 0 1 0 I I #
straight-curve $-1 58.221991637928404 -21.749630918631723 85.456989314681763 0 0 -1 I I #
point $-1 58.221991637928404 -21.749630918631723 9.3985605189576837 #
straight-curve $-1 58.221991637928404 -8.9383994033737579 6.3376348656505641 0 1 0 I I #
point $-1 58.221991637928404 -21.749630918631723 6.337634865650557 #
point $-1 53.878950043593846 -19.536583997555034 5.1490124968104469 #
point $-1 53.878950043593846 -16.217013615940001 5.1490124968104469 #
straight-curve $-1 -58.221991637928404 3.9276643782546259 30.817434855875327 0 0 -1 I I #
point $-1 -58.221991637928404 3.9276643782546259 9.3985605189576837 #
straight-curve $-1 -58.221991637928404 0.076266385631143407 1.6617862488579518 0 -1 0 I I #
point $-1 -58.221991637928404 3.9276643782546259 1.6617862488579505 #
point $-1 -54.004116331974423 -1.4653807745915728 4.392435490557447 #
point $-1 -54.004116331974423 1.7704463171161464 4.392435490557447 #
edge $-1 $516 -9.3985605189576837 $510 -1.6617862488579505 $507 $558 forward 7 unknown #
straight-curve $-1 -58.221991637928404 12.914914034074318 1.6617862488579518 0 -1 0 I I #
point $-1 -58.221991637928404 29.604959675140975 1.6617862488579505 #
straight-curve $-1 0 29.604959675140968 9.3985605189576837 -1 0 0 I I #
point $-1 -58.221991637928404 29.604959675140968 9.3985605189576837 #
point $-1 -54.004116331974423 24.211914522294776 4.392435490557447 #
point $-1 -54.004116331974423 27.447741614002496 4.392435490557447 #
straight-curve $-1 -50.950029805230756 -37.460288431650213 0 0 0 -1 I I #
point $-1 -50.950029805230756 -37.460288431650213 9.3985605189576837 #
straight-curve $-1 -58.221991637928404 29.604959675140968 0 0 0 -1 I I #
End-of-ACIS-data 