500 0 5 0           
7 Unknown 11 ACIS 5.0 NT 24 Fri Mar 26 03:18:06 1999 
-1 9.9999999999999995e-007 1e-010 
body $-1 $5 $-1 $6 #
body $-1 $7 $-1 $8 #
body $-1 $9 $-1 $10 #
body $-1 $11 $-1 $12 #
body $-1 $13 $-1 $14 #
lump $-1 $-1 $15 $0 #
transform $-1 1 0 0 0 1 0 0 0 1 50.135807367168184 30.864268289713529 7.3153223309549915 1 rotate no_reflect no_shear #
lump $-1 $-1 $16 $1 #
transform $-1 1 0 0 0 1 0 0 0 1 50.135807367168184 30.864268289713529 7.3153223309549915 1 rotate no_reflect no_shear #
lump $-1 $-1 $17 $2 #
transform $-1 1 0 0 0 1 0 0 0 1 50.135807367168184 30.864268289713529 7.3153223309549915 1 rotate no_reflect no_shear #
lump $-1 $-1 $18 $3 #
transform $-1 1 0 0 0 1 0 0 0 1 50.135807367168184 30.864268289713529 7.3153223309549915 1 rotate no_reflect no_shear #
lump $-1 $-1 $19 $4 #
transform $-1 1 0 0 0 1 0 0 0 1 50.135807367168184 30.864268289713529 7.3153223309549915 1 rotate no_reflect no_shear #
shell $-1 $-1 $-1 $20 $-1 $5 #
shell $-1 $-1 $-1 $21 $-1 $7 #
shell $-1 $-1 $-1 $22 $-1 $9 #
shell $-1 $-1 $-1 $23 $-1 $11 #
shell $-1 $-1 $-1 $24 $-1 $13 #
face $-1 $25 $26 $15 $-1 $27 forward single #
face $-1 $28 $29 $16 $-1 $30 forward single #
face $-1 $31 $32 $17 $-1 $33 reversed single #
face $-1 $34 $35 $18 $-1 $36 forward single #
face $-1 $37 $38 $19 $-1 $39 forward single #
face $-1 $40 $41 $15 $-1 $42 reversed single #
loop $-1 $-1 $43 $20 #
plane-surface $-1 0 0 7.3153223309549915 0 0 1 1 0 0 forward_v I I I I #
face $-1 $44 $45 $16 $-1 $46 reversed single #
loop $-1 $-1 $47 $21 #
plane-surface $-1 0 -30.864268289713529 0 0 1 0 0 0 1 forward_v I I I I #
face $-1 $48 $49 $17 $-1 $50 reversed single #
loop $-1 $-1 $51 $22 #
plane-surface $-1 -32.789760136419957 85.021272572224802 108.46165248395496 1 0 0 0 -0.85716730853699208 -0.51503806187062418 forward_v I I I I #
face $-1 $52 $53 $18 $-1 $54 forward single #
loop $-1 $55 $56 $23 #
cone-surface $-1 -29.507104001370614 29.411502267396475 5.3532775399570252 0 -0.85716730853699208 -0.51503806187062418 0.5 0 0 1 I I 0 1 0.5 forward I I I I #
face $-1 $57 $58 $19 $-1 $59 forward single #
loop $-1 $60 $61 $24 #
cone-surface $-1 -24.583119798796606 29.411502267396475 5.3532775399570252 0 -0.85716730853699208 -0.51503806187062418 0.5 0 0 1 I I 0 1 0.5 forward I I I I #
face $-1 $62 $63 $15 $-1 $64 reversed single #
loop $-1 $-1 $65 $25 #
plane-surface $-1 0 0 -7.3153223309549915 0 0 1 1 0 0 forward_v I I I I #
coedge $-1 $66 $67 $68 $69 forward $26 $-1 #
face $-1 $70 $71 $16 $-1 $72 forward single #
loop $-1 $-1 $73 $28 #
plane-surface $-1 -50.135807367168184 0 0 1 0 0 0 0 -1 forward_v I I I I #
coedge $-1 $74 $75 $76 $77 forward $29 $-1 #
face $-1 $78 $79 $17 $-1 $80 reversed single #
loop $-1 $-1 $81 $31 #
plane-surface $-1 -27.045111900083612 -0.92827755226450392 56.817954370544442 0 0.85716730853699208 0.51503806187062418 1 0 0 forward_v I I I I #
coedge $-1 $82 $83 $84 $85 reversed $32 $-1 #
face $-1 $-1 $86 $18 $-1 $87 forward single #
loop $-1 $88 $89 $34 #
cone-surface $-1 -29.507104001370614 28.768626785993732 4.9669989935540571 0 -0.85716730853699208 -0.51503806187062418 0.25 0 0 1 I I -0.70710678118654746 0.70710678118654746 0.25 forward I I I I #
loop $-1 $-1 $90 $23 #
coedge $-1 $56 $56 $91 $92 reversed $35 $-1 #
face $-1 $-1 $93 $19 $-1 $94 forward single #
loop $-1 $95 $96 $37 #
cone-surface $-1 -24.583119798796606 28.768626785993732 4.9669989935540571 0 -0.85716730853699208 -0.51503806187062418 0.25 0 0 1 I I -0.70710678118654746 0.70710678118654746 0.25 forward I I I I #
loop $-1 $-1 $97 $24 #
coedge $-1 $61 $61 $98 $99 reversed $38 $-1 #
face $-1 $100 $101 $15 $-1 $102 reversed single #
loop $-1 $-1 $103 $40 #
plane-surface $-1 0 -30.864268289713529 0 0 1 0 0 0 1 forward_v I I I I #
coedge $-1 $104 $105 $106 $107 forward $41 $-1 #
coedge $-1 $108 $43 $109 $110 forward $26 $-1 #
coedge $-1 $43 $108 $111 $112 forward $26 $-1 #
coedge $-1 $113 $114 $43 $69 reversed $115 $-1 #
edge $-1 $116 -30.864268289713529 $117 30.864268289713529 $68 $118 forward 7 unknown #
face $-1 $119 $120 $16 $-1 $121 reversed single #
loop $-1 $-1 $122 $44 #
plane-surface $-1 0 -33.35376622276047 6.2436404358462214 0 0 1 1 0 0 forward_v I I I I #
coedge $-1 $123 $124 $75 $125 forward $45 $-1 #
coedge $-1 $126 $47 $127 $128 reversed $29 $-1 #
coedge $-1 $47 $126 $73 $125 reversed $29 $-1 #
coedge $-1 $129 $122 $47 $77 reversed $71 $-1 #
edge $-1 $130 -50.135807367168184 $131 50.135807367168184 $76 $132 forward 7 unknown #
face $-1 $133 $134 $17 $-1 $135 forward single #
loop $-1 $-1 $136 $48 #
plane-surface $-1 -21.300463663747266 85.021272572224802 108.46165248395496 -1 0 0 0 0.85716730853699208 0.51503806187062418 forward_v I I I I #
coedge $-1 $137 $138 $139 $140 reversed $49 $-1 #
coedge $-1 $83 $51 $141 $142 reversed $32 $-1 #
coedge $-1 $51 $82 $137 $143 reversed $32 $-1 #
coedge $-1 $139 $144 $51 $85 forward $134 $-1 #
edge $-1 $145 11.646367996398872 $146 13.694732732495968 $84 $147 forward 7 unknown #
loop $-1 $-1 $91 $52 #
plane-surface $-1 -27.045111900083612 -0.92827755226450392 56.817954370544442 0 0.85716730853699208 0.51503806187062418 1 0 0 forward_v I I I I #
loop $-1 $-1 $148 $34 #
coedge $-1 $89 $89 $90 $149 reversed $53 $-1 #
coedge $-1 $90 $90 $89 $149 forward $55 $-1 #
coedge $-1 $91 $91 $56 $92 forward $86 $-1 #
edge $-1 $150 1.8166789961372826e-015 $150 6.2831853071796022 $91 $151 forward 7 unknown #
loop $-1 $-1 $98 $57 #
plane-surface $-1 -27.045111900083612 -0.92827755226450392 56.817954370544442 0 0.85716730853699208 0.51503806187062418 1 0 0 forward_v I I I I #
loop $-1 $-1 $152 $37 #
coedge $-1 $96 $96 $97 $153 reversed $58 $-1 #
coedge $-1 $97 $97 $96 $153 forward $60 $-1 #
coedge $-1 $98 $98 $61 $99 forward $93 $-1 #
edge $-1 $154 1.8166789961372826e-015 $154 6.2831853071796022 $98 $155 forward 7 unknown #
face $-1 $156 $157 $15 $-1 $158 reversed single #
loop $-1 $-1 $159 $62 #
plane-surface $-1 -50.135807367168184 0 0 1 0 0 0 0 -1 forward_v I I I I #
coedge $-1 $160 $111 $161 $162 forward $63 $-1 #
coedge $-1 $163 $65 $160 $164 forward $41 $-1 #
coedge $-1 $65 $163 $165 $166 forward $41 $-1 #
coedge $-1 $114 $113 $65 $107 reversed $115 $-1 #
edge $-1 $167 -30.864268289713529 $168 30.864268289713529 $106 $169 forward 7 unknown #
coedge $-1 $67 $66 $170 $171 forward $26 $-1 #
coedge $-1 $172 $173 $66 $110 reversed $157 $-1 #
edge $-1 $117 -50.135807367168184 $174 50.135807367168184 $109 $175 forward 7 unknown #
coedge $-1 $103 $176 $67 $112 reversed $63 $-1 #
edge $-1 $177 -50.135807367168184 $116 50.135807367168184 $111 $178 forward 7 unknown #
coedge $-1 $106 $68 $176 $179 forward $115 $-1 #
coedge $-1 $68 $106 $172 $180 reversed $115 $-1 #
loop $-1 $-1 $113 $156 #
vertex $-1 $69 $181 #
vertex $-1 $69 $182 #
straight-curve $-1 50.135807367168184 0 7.3153223309549915 0 1 0 I I #
face $-1 $183 $184 $16 $-1 $185 reversed single #
loop $-1 $-1 $186 $70 #
plane-surface $-1 0 -33.35376622276047 2.4881275971103376 0 0 1 1 0 0 forward_v I I I I #
coedge $-1 $76 $187 $188 $189 forward $71 $-1 #
coedge $-1 $190 $73 $191 $192 reversed $45 $-1 #
coedge $-1 $73 $190 $129 $193 reversed $45 $-1 #
edge $-1 $130 -6.2436404358462214 $194 -2.4881275971103376 $73 $195 forward 7 unknown #
coedge $-1 $75 $74 $196 $197 forward $29 $-1 #
coedge $-1 $188 $198 $74 $128 forward $199 $-1 #
edge $-1 $200 2.4881275971103376 $131 6.2436404358462214 $127 $201 forward 7 unknown #
coedge $-1 $187 $76 $124 $193 forward $71 $-1 #
vertex $-1 $125 $202 #
vertex $-1 $189 $203 #
straight-curve $-1 0 -30.864268289713529 6.2436404358462214 1 0 0 I I #
face $-1 $-1 $204 $17 $-1 $205 reversed single #
loop $-1 $-1 $84 $78 #
plane-surface $-1 0 0 7.3153223309549915 0 0 1 1 0 0 forward_v I I I I #
coedge $-1 $206 $207 $208 $209 reversed $79 $-1 #
coedge $-1 $210 $81 $83 $143 forward $49 $-1 #
coedge $-1 $81 $210 $206 $211 forward $49 $-1 #
coedge $-1 $208 $84 $81 $140 forward $134 $-1 #
edge $-1 $146 -19.267204186378152 $212 -7.77790771370546 $139 $213 forward 7 unknown #
coedge $-1 $214 $215 $82 $142 forward $204 $-1 #
edge $-1 $216 -50.324555431147779 $145 -46.915503911022491 $141 $217 forward 7 unknown #
edge $-1 $146 57.751423259573734 $216 61.72853657942705 $83 $218 forward 7 unknown #
coedge $-1 $84 $208 $214 $219 forward $134 $-1 #
vertex $-1 $142 $220 #
vertex $-1 $85 $221 #
straight-curve $-1 -32.789760136419957 42.510636286112401 7.3153223309549915 0 -1 0 I I #
coedge $-1 $148 $148 $-1 $222 reversed $88 $-1 #
edge $-1 $223 0 $223 6.2831853071796004 $89 $224 forward 7 unknown #
vertex $-1 $92 $225 #
ellipse-curve $-1 -29.507104001370614 29.840085921664979 5.6107965708923428 0 0.85716730853699208 0.51503806187062418 0.5 0 0 1 I I #
coedge $-1 $152 $152 $-1 $226 reversed $95 $-1 #
edge $-1 $227 0 $227 6.2831853071796004 $96 $228 forward 7 unknown #
vertex $-1 $99 $229 #
ellipse-curve $-1 -24.583119798796606 29.840085921664979 5.6107965708923428 0 0.85716730853699208 0.51503806187062418 0.5 0 0 1 I I #
face $-1 $-1 $115 $15 $-1 $230 reversed single #
loop $-1 $-1 $172 $100 #
plane-surface $-1 0 30.864268289713529 0 0 -1 0 0 0 -1 forward_v I I I I #
coedge $-1 $231 $170 $173 $232 forward $101 $-1 #
coedge $-1 $176 $103 $104 $164 reversed $63 $-1 #
coedge $-1 $170 $231 $103 $162 reversed $101 $-1 #
edge $-1 $177 -7.3153223309549915 $233 7.3153223309549915 $161 $234 forward 7 unknown #
coedge $-1 $105 $104 $231 $235 forward $41 $-1 #
edge $-1 $168 -50.135807367168184 $233 50.135807367168184 $160 $236 forward 7 unknown #
coedge $-1 $173 $172 $105 $166 reversed $157 $-1 #
edge $-1 $237 -50.135807367168184 $167 50.135807367168184 $165 $238 forward 7 unknown #
vertex $-1 $107 $239 #
vertex $-1 $179 $240 #
straight-curve $-1 50.135807367168184 0 -7.3153223309549915 0 -1 0 I I #
coedge $-1 $159 $161 $108 $171 reversed $101 $-1 #
edge $-1 $174 -30.864268289713529 $177 30.864268289713529 $170 $241 forward 7 unknown #
coedge $-1 $165 $109 $114 $180 forward $157 $-1 #
coedge $-1 $109 $165 $159 $232 reversed $157 $-1 #
vertex $-1 $110 $242 #
straight-curve $-1 0 30.864268289713529 7.3153223309549915 -1 0 0 I I #
coedge $-1 $111 $160 $113 $179 reversed $63 $-1 #
vertex $-1 $171 $243 #
straight-curve $-1 0 -30.864268289713529 7.3153223309549915 1 0 0 I I #
edge $-1 $116 -7.3153223309549915 $168 7.3153223309549915 $113 $244 forward 7 unknown #
edge $-1 $117 -7.3153223309549915 $167 7.3153223309549915 $114 $245 forward 7 unknown #
point $-1 50.135807367168184 -30.864268289713529 7.3153223309549915 #
point $-1 50.135807367168184 30.864268289713529 7.3153223309549915 #
face $-1 $-1 $199 $16 $-1 $246 reversed single #
loop $-1 $-1 $247 $119 #
plane-surface $-1 0 -35.843264155807411 4.3658840164782795 0 1 0 0 0 1 forward_v I I I I #
coedge $-1 $248 $196 $198 $249 forward $120 $-1 #
coedge $-1 $122 $129 $250 $251 forward $71 $-1 #
coedge $-1 $252 $127 $122 $189 reversed $199 $-1 #
edge $-1 $253 -2.4894979330469411 $131 2.4894979330469376 $188 $254 forward 7 unknown #
coedge $-1 $124 $123 $247 $255 reversed $45 $-1 #
coedge $-1 $196 $248 $123 $192 forward $120 $-1 #
edge $-1 $256 -2.4894979330469411 $194 2.4894979330469376 $123 $257 forward 7 unknown #
edge $-1 $130 -2.4894979330469376 $258 2.4894979330469411 $124 $259 forward 7 unknown #
vertex $-1 $125 $260 #
straight-curve $-1 -50.135807367168184 -30.864268289713529 0 0 0 -1 I I #
coedge $-1 $186 $191 $126 $197 reversed $120 $-1 #
edge $-1 $200 -50.135807367168184 $194 50.135807367168184 $196 $261 forward 7 unknown #
coedge $-1 $127 $252 $186 $249 reversed $199 $-1 #
loop $-1 $-1 $127 $183 #
vertex $-1 $128 $262 #
straight-curve $-1 50.135807367168184 -30.864268289713529 0 0 0 1 I I #
point $-1 -50.135807367168184 -30.864268289713532 6.2436404358462214 #
point $-1 50.135807367168184 -30.864268289713532 6.2436404358462214 #
loop $-1 $-1 $141 $133 #
plane-surface $-1 0 30.864268289713529 0 0 -1 0 0 0 -1 forward_v I I I I #
coedge $-1 $207 $136 $138 $211 reversed $79 $-1 #
coedge $-1 $136 $206 $263 $264 reversed $79 $-1 #
coedge $-1 $144 $139 $136 $209 forward $134 $-1 #
edge $-1 $212 -13.694732732495968 $265 -11.646367996398872 $208 $266 forward 7 unknown #
coedge $-1 $138 $137 $215 $267 reversed $49 $-1 #
edge $-1 $268 -61.72853657942705 $212 -57.751423259573734 $206 $269 forward 7 unknown #
vertex $-1 $140 $270 #
straight-curve $-1 -13.522555950041806 28.815903553616426 7.315322330954988 1 0 0 I I #
coedge $-1 $263 $141 $144 $219 reversed $204 $-1 #
coedge $-1 $141 $263 $210 $267 forward $204 $-1 #
vertex $-1 $142 $271 #
straight-curve $-1 -32.789760136419957 30.864268289713529 54.230826241977482 0 0 1 I I #
straight-curve $-1 -32.789760136419957 -0.92827755226450392 56.817954370544442 0 0.51503806187062418 -0.85716730853699208 I I #
edge $-1 $265 21.300463663747266 $145 32.789760136419957 $214 $272 forward 7 unknown #
point $-1 -32.789760136419957 30.864268289713529 7.3153223309549915 #
point $-1 -32.789760136419957 28.815903553616433 7.3153223309549915 #
edge $-1 $273 1 $273 0 $148 $-1 forward 7 unknown #
vertex $-1 $149 $274 #
ellipse-curve $-1 -29.507104001370614 28.982918613127978 5.0957585090217128 0 0.85716730853699208 0.51503806187062418 0.5 0 0 1 I I #
point $-1 -29.007104001370614 29.840085921664972 5.6107965708923375 #
edge $-1 $275 1 $275 0 $152 $-1 forward 7 unknown #
vertex $-1 $153 $276 #
ellipse-curve $-1 -24.583119798796606 28.982918613127978 5.0957585090217128 0 0.85716730853699208 0.51503806187062418 0.5 0 0 1 I I #
point $-1 -24.083119798796606 29.840085921664972 5.6107965708923375 #
plane-surface $-1 50.135807367168184 0 0 -1 0 0 0 0 1 forward_v I I I I #
coedge $-1 $161 $159 $163 $235 reversed $101 $-1 #
edge $-1 $174 -7.3153223309549915 $237 7.3153223309549915 $173 $277 forward 7 unknown #
vertex $-1 $235 $278 #
straight-curve $-1 -50.135807367168184 -30.864268289713529 0 0 0 -1 I I #
edge $-1 $233 -30.864268289713529 $237 30.864268289713529 $231 $279 forward 7 unknown #
straight-curve $-1 0 -30.864268289713529 -7.3153223309549915 -1 0 0 I I #
vertex $-1 $166 $280 #
straight-curve $-1 0 30.864268289713529 -7.3153223309549915 1 0 0 I I #
point $-1 50.135807367168184 30.864268289713529 -7.3153223309549915 #
point $-1 50.135807367168184 -30.864268289713529 -7.3153223309549915 #
straight-curve $-1 -50.135807367168184 0 7.3153223309549915 0 -1 0 I I #
point $-1 -50.135807367168184 30.864268289713529 7.3153223309549915 #
point $-1 -50.135807367168184 -30.864268289713529 7.3153223309549915 #
straight-curve $-1 50.135807367168184 -30.864268289713529 0 0 0 -1 I I #
straight-curve $-1 50.135807367168184 30.864268289713529 0 0 0 -1 I I #
plane-surface $-1 50.135807367168184 0 0 -1 0 0 0 0 1 forward_v I I I I #
coedge $-1 $281 $250 $190 $255 forward $184 $-1 #
coedge $-1 $191 $186 $281 $282 forward $120 $-1 #
edge $-1 $200 -2.4894979330469376 $283 2.4894979330469411 $198 $284 forward 7 unknown #
coedge $-1 $247 $285 $187 $251 reversed $184 $-1 #
edge $-1 $258 -50.135807367168184 $253 50.135807367168184 $250 $286 forward 7 unknown #
coedge $-1 $198 $188 $285 $287 forward $199 $-1 #
vertex $-1 $189 $288 #
straight-curve $-1 50.135807367168184 -33.35376622276047 6.2436404358462214 0 1 0 I I #
edge $-1 $258 -1.8777564193679419 $256 1.8777564193679419 $190 $289 forward 7 unknown #
vertex $-1 $192 $290 #
straight-curve $-1 -50.135807367168184 -33.35376622276047 2.4881275971103376 0 1 0 I I #
vertex $-1 $193 $291 #
straight-curve $-1 -50.135807367168184 -33.35376622276047 6.2436404358462214 0 -1 0 I I #
point $-1 -50.135807367168184 -30.864268289713532 2.4881275971103376 #
straight-curve $-1 0 -30.864268289713529 2.4881275971103376 -1 0 0 I I #
point $-1 50.135807367168184 -30.864268289713532 2.4881275971103376 #
coedge $-1 $215 $214 $207 $264 forward $204 $-1 #
edge $-1 $265 46.915503911022491 $268 50.324555431147779 $263 $292 forward 7 unknown #
vertex $-1 $219 $293 #
straight-curve $-1 -21.300463663747266 42.510636286112401 7.3153223309549915 0 1 0 I I #
edge $-1 $268 7.77790771370546 $216 19.267204186378152 $215 $294 forward 7 unknown #
vertex $-1 $267 $295 #
straight-curve $-1 -21.300463663747266 -0.92827755226450392 56.817954370544442 0 -0.51503806187062418 0.85716730853699208 I I #
point $-1 -21.300463663747266 28.815903553616433 7.3153223309549915 #
point $-1 -32.789760136419957 30.864268289713529 3.9062708108297031 #
straight-curve $-1 0 30.864268289713529 7.3153223309549915 -1 0 0 I I #
vertex $-1 $222 $296 #
point $-1 -29.007104001370614 28.982918613127978 5.0957585090217128 #
vertex $-1 $226 $297 #
point $-1 -24.083119798796606 28.982918613127978 5.0957585090217128 #
straight-curve $-1 -50.135807367168184 30.864268289713529 0 0 0 -1 I I #
point $-1 -50.135807367168184 -30.864268289713529 -7.3153223309549915 #
straight-curve $-1 -50.135807367168184 0 -7.3153223309549915 0 1 0 I I #
point $-1 -50.135807367168184 30.864268289713529 -7.3153223309549915 #
coedge $-1 $285 $247 $248 $282 reversed $184 $-1 #
edge $-1 $283 -50.135807367168184 $256 50.135807367168184 $281 $298 forward 7 unknown #
vertex $-1 $287 $299 #
straight-curve $-1 50.135807367168184 -33.35376622276047 2.4881275971103376 0 -1 0 I I #
coedge $-1 $250 $281 $252 $287 reversed $184 $-1 #
straight-curve $-1 0 -35.843264155807411 6.2436404358462214 1 0 0 I I #
edge $-1 $253 -1.8777564193679419 $283 1.8777564193679419 $252 $300 forward 7 unknown #
point $-1 50.135807367168184 -35.843264155807411 6.2436404358462214 #
straight-curve $-1 -50.135807367168184 -35.843264155807411 4.3658840164782795 0 0 -1 I I #
point $-1 -50.135807367168184 -35.843264155807411 2.4881275971103376 #
point $-1 -50.135807367168184 -35.843264155807411 6.2436404358462214 #
straight-curve $-1 -21.300463663747266 30.864268289713529 54.230826241977482 0 0 -1 I I #
point $-1 -21.300463663747266 30.864268289713529 7.3153223309549915 #
straight-curve $-1 -13.522555950041806 30.864268289713529 3.9062708108296995 -1 0 0 I I #
point $-1 -21.300463663747266 30.864268289713529 3.9062708108297031 #
point $-1 -29.507104001370614 28.554334958859485 4.8382394780864013 #
point $-1 -24.583119798796606 28.554334958859485 4.8382394780864013 #
straight-curve $-1 0 -35.843264155807411 2.4881275971103376 -1 0 0 I I #
point $-1 50.135807367168184 -35.843264155807411 2.4881275971103376 #
straight-curve $-1 50.135807367168184 -35.843264155807411 4.3658840164782795 0 0 -1 I I #
End-of-ACIS-data 