500 0 12 0           
7 Unknown 11 ACIS 5.0 NT 24 Thu Mar 25 20:42:42 1999 
-1 9.9999999999999995e-007 1e-010 
body $-1 $12 $-1 $13 #
body $-1 $14 $-1 $15 #
body $-1 $16 $-1 $17 #
body $-1 $18 $-1 $19 #
body $-1 $20 $-1 $21 #
body $-1 $22 $-1 $23 #
body $-1 $24 $-1 $25 #
body $-1 $26 $-1 $27 #
body $-1 $28 $-1 $29 #
body $-1 $30 $-1 $31 #
body $-1 $32 $-1 $33 #
body $-1 $34 $-1 $35 #
lump $-1 $-1 $36 $0 #
transform $-1 1 0 0 0 1 0 0 0 1 53.923764763328961 33.82417391542117 13.288223163421284 1 rotate no_reflect no_shear #
lump $-1 $-1 $37 $1 #
transform $-1 1 0 0 0 1 0 0 0 1 53.923764763328961 33.82417391542117 13.288223163421284 1 rotate no_reflect no_shear #
lump $-1 $-1 $38 $2 #
transform $-1 1 0 0 0 1 0 0 0 1 53.923764763328961 33.82417391542117 13.288223163421284 1 rotate no_reflect no_shear #
lump $-1 $-1 $39 $3 #
transform $-1 1 0 0 0 1 0 0 0 1 53.923764763328961 33.82417391542117 13.288223163421284 1 rotate no_reflect no_shear #
lump $-1 $-1 $40 $4 #
transform $-1 1 0 0 0 1 0 0 0 1 53.923764763328961 33.82417391542117 13.288223163421284 1 rotate no_reflect no_shear #
lump $-1 $-1 $41 $5 #
transform $-1 1 0 0 0 1 0 0 0 1 53.923764763328961 33.82417391542117 13.288223163421284 1 rotate no_reflect no_shear #
lump $-1 $-1 $42 $6 #
transform $-1 1 0 0 0 1 0 0 0 1 53.923764763328961 33.82417391542117 13.288223163421284 1 rotate no_reflect no_shear #
lump $-1 $-1 $43 $7 #
transform $-1 1 0 0 0 1 0 0 0 1 53.923764763328961 33.82417391542117 13.288223163421284 1 rotate no_reflect no_shear #
lump $-1 $-1 $44 $8 #
transform $-1 1 0 0 0 1 0 0 0 1 53.923764763328961 33.82417391542117 13.288223163421284 1 rotate no_reflect no_shear #
lump $-1 $-1 $45 $9 #
transform $-1 1 0 0 0 1 0 0 0 1 53.923764763328961 33.82417391542117 13.288223163421284 1 rotate no_reflect no_shear #
lump $-1 $-1 $46 $10 #
transform $-1 1 0 0 0 1 0 0 0 1 53.923764763328961 33.82417391542117 13.288223163421284 1 rotate no_reflect no_shear #
lump $-1 $-1 $47 $11 #
transform $-1 1 0 0 0 1 0 0 0 1 53.923764763328961 33.82417391542117 13.288223163421284 1 rotate no_reflect no_shear #
shell $-1 $-1 $-1 $48 $-1 $12 #
shell $-1 $-1 $-1 $49 $-1 $14 #
shell $-1 $-1 $-1 $50 $-1 $16 #
shell $-1 $-1 $-1 $51 $-1 $18 #
shell $-1 $-1 $-1 $52 $-1 $20 #
shell $-1 $-1 $-1 $53 $-1 $22 #
shell $-1 $-1 $-1 $54 $-1 $24 #
shell $-1 $-1 $-1 $55 $-1 $26 #
shell $-1 $-1 $-1 $56 $-1 $28 #
shell $-1 $-1 $-1 $57 $-1 $30 #
shell $-1 $-1 $-1 $58 $-1 $32 #
shell $-1 $-1 $-1 $59 $-1 $34 #
face $-1 $60 $61 $36 $-1 $62 forward single #
face $-1 $63 $64 $37 $-1 $65 reversed single #
face $-1 $66 $67 $38 $-1 $68 reversed single #
face $-1 $69 $70 $39 $-1 $71 forward single #
face $-1 $72 $73 $40 $-1 $74 forward single #
face $-1 $75 $76 $41 $-1 $77 forward single #
face $-1 $78 $79 $42 $-1 $80 reversed single #
face $-1 $81 $82 $43 $-1 $83 forward single #
face $-1 $84 $85 $44 $-1 $86 forward single #
face $-1 $87 $88 $45 $-1 $89 forward single #
face $-1 $90 $91 $46 $-1 $92 reversed single #
face $-1 $93 $94 $47 $-1 $95 forward single #
face $-1 $96 $97 $36 $-1 $98 reversed single #
loop $-1 $-1 $99 $48 #
plane-surface $-1 0 0 13.288223163421284 0 0 1 1 0 0 forward_v I I I I #
face $-1 $100 $101 $37 $-1 $102 reversed single #
loop $-1 $-1 $103 $49 #
plane-surface $-1 -49.966658676054692 -17.767059274069197 0 0 -1 0 0 0 -1 forward_v I I I I #
face $-1 $104 $105 $38 $-1 $106 reversed single #
loop $-1 $-1 $107 $50 #
plane-surface $-1 -137.73703768055168 -2.5729988661054541 68.359203156745636 0 1 0 -0.77714596973225614 0 0.62932038083071107 forward_v I I I I #
face $-1 $108 $109 $39 $-1 $110 forward single #
loop $-1 $111 $112 $51 #
cone-surface $-1 -48.135908209485237 -0.45268762874916746 6.3981674782110343 0.77714596973225614 0 -0.62932038083071107 0.62932038083071107 0 0.77714596973225614 1 I I 0 1 1 forward I I I I #
face $-1 $113 $114 $40 $-1 $115 forward single #
loop $-1 $116 $117 $52 #
cone-surface $-1 -48.135908209485237 2.7277792272852679 6.3981674782110343 0.77714596973225614 0 -0.62932038083071107 0.62932038083071107 0 0.77714596973225614 1 I I 0 1 1 forward I I I I #
face $-1 $118 $119 $41 $-1 $120 forward single #
loop $-1 $121 $122 $53 #
cone-surface $-1 -48.135908209485237 5.9082460833196961 6.3981674782110343 0.77714596973225614 0 -0.62932038083071107 0.62932038083071107 0 0.77714596973225614 1 I I 0 1 1 forward I I I I #
face $-1 $123 $124 $42 $-1 $125 reversed single #
loop $-1 $-1 $126 $54 #
plane-surface $-1 -137.73703768055168 23.22261772863973 68.359203156745636 0 1 0 -0.77714596973225614 0 0.62932038083071107 forward_v I I I I #
face $-1 $127 $128 $43 $-1 $129 forward single #
loop $-1 $130 $131 $55 #
cone-surface $-1 -48.135908209485237 25.342928965996016 6.3981674782110343 0.77714596973225614 0 -0.62932038083071107 0.62932038083071107 0 0.77714596973225614 1 I I 0 1 1 forward I I I I #
face $-1 $132 $133 $44 $-1 $134 forward single #
loop $-1 $135 $136 $56 #
cone-surface $-1 -48.135908209485237 28.523395822030452 6.3981674782110343 0.77714596973225614 0 -0.62932038083071107 0.62932038083071107 0 0.77714596973225614 1 I I 0 1 1 forward I I I I #
face $-1 $137 $138 $45 $-1 $139 forward single #
loop $-1 $140 $141 $57 #
cone-surface $-1 -48.135908209485237 31.70386267806488 6.3981674782110343 0.77714596973225614 0 -0.62932038083071107 0.62932038083071107 0 0.77714596973225614 1 I I 0 1 1 forward I I I I #
face $-1 $142 $143 $46 $-1 $144 reversed single #
loop $-1 $-1 $145 $58 #
plane-surface $-1 48.600914797432551 10.269832667012633 154.72989461084975 0 -1 0 -0.68199836817093118 0 -0.7313536940579346 forward_v I I I I #
face $-1 $146 $147 $47 $-1 $148 forward single #
loop $-1 $149 $150 $59 #
cone-surface $-1 46.607502324769392 5.4702112225257196 6.2662171729957521 -0.68199836817093118 0 -0.7313536940579346 1.4627073881158692 0 -1.3639967363418624 1 I I 0 1 2 forward I I I I #
face $-1 $151 $152 $36 $-1 $153 reversed single #
loop $-1 $-1 $154 $60 #
plane-surface $-1 0 0 -13.288223163421284 0 0 1 1 0 0 forward_v I I I I #
coedge $-1 $155 $156 $157 $158 forward $61 $-1 #
face $-1 $159 $160 $37 $-1 $161 forward single #
loop $-1 $-1 $162 $63 #
plane-surface $-1 -46.009552588780423 -25.795616594745184 0 -1 0 0 0 0 1 forward_v I I I I #
coedge $-1 $163 $164 $165 $166 forward $64 $-1 #
face $-1 $167 $168 $38 $-1 $169 reversed single #
loop $-1 $-1 $170 $66 #
plane-surface $-1 -53.923764763328975 2.7277792272852679 0.4885548033779088 -0.77714596973225614 0 0.62932038083071107 0.62932038083071107 0 0.77714596973225614 forward_v I I I I #
coedge $-1 $171 $172 $173 $174 reversed $67 $-1 #
face $-1 $-1 $175 $39 $-1 $176 forward single #
loop $-1 $177 $178 $69 #
cone-surface $-1 -47.141962065512963 -0.45268762874916746 5.5932857826071203 0.77714596973225614 0 -0.62932038083071107 0.31466019041535553 0 0.38857298486612807 1 I I -0.70710678118654746 0.70710678118654746 0.5 forward I I I I #
loop $-1 $-1 $179 $51 #
coedge $-1 $112 $112 $180 $181 reversed $70 $-1 #
face $-1 $-1 $182 $40 $-1 $183 forward single #
loop $-1 $184 $185 $72 #
cone-surface $-1 -47.141962065512963 2.7277792272852679 5.5932857826071203 0.77714596973225614 0 -0.62932038083071107 0.31466019041535553 0 0.38857298486612807 1 I I -0.70710678118654746 0.70710678118654746 0.5 forward I I I I #
loop $-1 $-1 $186 $52 #
coedge $-1 $117 $117 $187 $188 reversed $73 $-1 #
face $-1 $-1 $189 $41 $-1 $190 forward single #
loop $-1 $191 $192 $75 #
cone-surface $-1 -47.141962065512963 5.9082460833196961 5.5932857826071203 0.77714596973225614 0 -0.62932038083071107 0.31466019041535553 0 0.38857298486612807 1 I I -0.70710678118654746 0.70710678118654746 0.5 forward I I I I #
loop $-1 $-1 $193 $53 #
coedge $-1 $122 $122 $194 $195 reversed $76 $-1 #
face $-1 $196 $197 $42 $-1 $198 forward single #
loop $-1 $-1 $199 $78 #
plane-surface $-1 -53.923764763328975 28.523395822030452 0.4885548033779088 -0.77714596973225614 0 0.62932038083071107 0.62932038083071107 0 0.77714596973225614 forward_v I I I I #
coedge $-1 $200 $201 $202 $203 reversed $79 $-1 #
face $-1 $-1 $204 $43 $-1 $205 forward single #
loop $-1 $206 $207 $81 #
cone-surface $-1 -47.141962065512963 25.342928965996016 5.5932857826071203 0.77714596973225614 0 -0.62932038083071107 0.31466019041535553 0 0.38857298486612807 1 I I -0.70710678118654746 0.70710678118654746 0.5 forward I I I I #
loop $-1 $-1 $208 $55 #
coedge $-1 $131 $131 $209 $210 reversed $82 $-1 #
face $-1 $-1 $211 $44 $-1 $212 forward single #
loop $-1 $213 $214 $84 #
cone-surface $-1 -47.141962065512963 28.523395822030452 5.5932857826071203 0.77714596973225614 0 -0.62932038083071107 0.31466019041535553 0 0.38857298486612807 1 I I -0.70710678118654746 0.70710678118654746 0.5 forward I I I I #
loop $-1 $-1 $215 $56 #
coedge $-1 $136 $136 $216 $217 reversed $85 $-1 #
face $-1 $-1 $218 $45 $-1 $219 forward single #
loop $-1 $220 $221 $87 #
cone-surface $-1 -47.141962065512963 31.70386267806488 5.5932857826071203 0.77714596973225614 0 -0.62932038083071107 0.31466019041535553 0 0.38857298486612807 1 I I -0.70710678118654746 0.70710678118654746 0.5 forward I I I I #
loop $-1 $-1 $222 $57 #
coedge $-1 $141 $141 $223 $224 reversed $88 $-1 #
face $-1 $225 $226 $46 $-1 $227 reversed single #
loop $-1 $-1 $228 $90 #
plane-surface $-1 -24.950924351014464 5.4702112225257196 75.855205496506315 0.68199836817093118 0 0.7313536940579346 0.7313536940579346 0 -0.68199836817093118 forward_v I I I I #
coedge $-1 $229 $230 $231 $232 reversed $91 $-1 #
face $-1 $-1 $233 $47 $-1 $234 forward single #
loop $-1 $235 $236 $93 #
cone-surface $-1 44.499149753566329 5.4702112225257196 4.0052858961932802 -0.68199836817093118 0 -0.7313536940579346 0.7313536940579346 0 -0.68199836817093118 1 I I -0.70710678118654746 0.70710678118654746 1 forward I I I I #
loop $-1 $-1 $237 $59 #
coedge $-1 $150 $150 $238 $239 reversed $94 $-1 #
face $-1 $240 $241 $36 $-1 $242 reversed single #
loop $-1 $-1 $243 $96 #
plane-surface $-1 0 -33.82417391542117 0 0 1 0 0 0 1 forward_v I I I I #
coedge $-1 $244 $245 $246 $247 forward $97 $-1 #
coedge $-1 $248 $99 $249 $250 forward $61 $-1 #
coedge $-1 $99 $248 $251 $252 forward $61 $-1 #
coedge $-1 $253 $254 $99 $158 reversed $255 $-1 #
edge $-1 $256 -33.82417391542117 $257 33.82417391542117 $157 $258 forward 7 unknown #
face $-1 $259 $260 $37 $-1 $261 reversed single #
loop $-1 $-1 $262 $100 #
plane-surface $-1 0 0 13.288223163421284 0 0 1 1 0 0 forward_v I I I I #
coedge $-1 $263 $264 $265 $266 reversed $101 $-1 #
coedge $-1 $267 $103 $268 $269 reversed $64 $-1 #
coedge $-1 $103 $267 $270 $271 reversed $64 $-1 #
coedge $-1 $264 $263 $103 $166 reversed $101 $-1 #
edge $-1 $272 -13.288223163421284 $273 13.288223163421284 $165 $274 forward 7 unknown #
face $-1 $275 $276 $38 $-1 $277 reversed single #
loop $-1 $-1 $278 $104 #
plane-surface $-1 -137.73703768055168 8.0285573206759899 68.359203156745636 0 -1 0 0.77714596973225614 0 -0.62932038083071107 forward_v I I I I #
coedge $-1 $279 $280 $281 $282 reversed $105 $-1 #
coedge $-1 $172 $107 $283 $284 reversed $67 $-1 #
coedge $-1 $107 $171 $279 $285 reversed $67 $-1 #
coedge $-1 $281 $286 $107 $174 forward $287 $-1 #
edge $-1 $288 14.944754076946879 $289 25.309720866422019 $173 $290 forward 7 unknown #
loop $-1 $-1 $180 $108 #
plane-surface $-1 -53.923764763328975 2.7277792272852679 0.4885548033779088 -0.77714596973225614 0 0.62932038083071107 0.62932038083071107 0 0.77714596973225614 forward_v I I I I #
loop $-1 $-1 $291 $69 #
coedge $-1 $178 $178 $179 $292 reversed $109 $-1 #
coedge $-1 $179 $179 $178 $292 forward $111 $-1 #
coedge $-1 $180 $180 $112 $181 forward $175 $-1 #
edge $-1 $293 0 $293 6.2831853071796004 $180 $294 forward 7 unknown #
loop $-1 $-1 $187 $113 #
plane-surface $-1 -53.923764763328975 2.7277792272852679 0.4885548033779088 -0.77714596973225614 0 0.62932038083071107 0.62932038083071107 0 0.77714596973225614 forward_v I I I I #
loop $-1 $-1 $295 $72 #
coedge $-1 $185 $185 $186 $296 reversed $114 $-1 #
coedge $-1 $186 $186 $185 $296 forward $116 $-1 #
coedge $-1 $187 $187 $117 $188 forward $182 $-1 #
edge $-1 $297 0 $297 6.2831853071796004 $187 $298 forward 7 unknown #
loop $-1 $-1 $194 $118 #
plane-surface $-1 -53.923764763328975 2.7277792272852679 0.4885548033779088 -0.77714596973225614 0 0.62932038083071107 0.62932038083071107 0 0.77714596973225614 forward_v I I I I #
loop $-1 $-1 $299 $75 #
coedge $-1 $192 $192 $193 $300 reversed $119 $-1 #
coedge $-1 $193 $193 $192 $300 forward $121 $-1 #
coedge $-1 $194 $194 $122 $195 forward $189 $-1 #
edge $-1 $301 0 $301 6.2831853071796004 $194 $302 forward 7 unknown #
face $-1 $303 $304 $42 $-1 $305 reversed single #
loop $-1 $-1 $202 $123 #
plane-surface $-1 0 0 13.288223163421284 0 0 1 1 0 0 forward_v I I I I #
coedge $-1 $306 $307 $308 $309 reversed $124 $-1 #
coedge $-1 $201 $126 $310 $311 reversed $79 $-1 #
coedge $-1 $126 $200 $306 $312 reversed $79 $-1 #
coedge $-1 $308 $313 $126 $203 forward $197 $-1 #
edge $-1 $314 14.944754076946879 $315 25.309720866422019 $202 $316 forward 7 unknown #
loop $-1 $-1 $209 $127 #
plane-surface $-1 -53.923764763328975 28.523395822030452 0.4885548033779088 -0.77714596973225614 0 0.62932038083071107 0.62932038083071107 0 0.77714596973225614 forward_v I I I I #
loop $-1 $-1 $317 $81 #
coedge $-1 $207 $207 $208 $318 reversed $128 $-1 #
coedge $-1 $208 $208 $207 $318 forward $130 $-1 #
coedge $-1 $209 $209 $131 $210 forward $204 $-1 #
edge $-1 $319 0 $319 6.2831853071796004 $209 $320 forward 7 unknown #
loop $-1 $-1 $216 $132 #
plane-surface $-1 -53.923764763328975 28.523395822030452 0.4885548033779088 -0.77714596973225614 0 0.62932038083071107 0.62932038083071107 0 0.77714596973225614 forward_v I I I I #
loop $-1 $-1 $321 $84 #
coedge $-1 $214 $214 $215 $322 reversed $133 $-1 #
coedge $-1 $215 $215 $214 $322 forward $135 $-1 #
coedge $-1 $216 $216 $136 $217 forward $211 $-1 #
edge $-1 $323 0 $323 6.2831853071796004 $216 $324 forward 7 unknown #
loop $-1 $-1 $223 $137 #
plane-surface $-1 -53.923764763328975 28.523395822030452 0.4885548033779088 -0.77714596973225614 0 0.62932038083071107 0.62932038083071107 0 0.77714596973225614 forward_v I I I I #
loop $-1 $-1 $325 $87 #
coedge $-1 $221 $221 $222 $326 reversed $138 $-1 #
coedge $-1 $222 $222 $221 $326 forward $140 $-1 #
coedge $-1 $223 $223 $141 $224 forward $218 $-1 #
edge $-1 $327 0 $327 6.2831853071796004 $223 $328 forward 7 unknown #
face $-1 $329 $330 $46 $-1 $331 forward single #
loop $-1 $-1 $332 $142 #
plane-surface $-1 48.600914797432551 0.67058977803880637 154.72989461084975 0 1 0 0.68199836817093118 0 0.7313536940579346 forward_v I I I I #
coedge $-1 $333 $334 $335 $336 reversed $143 $-1 #
coedge $-1 $230 $145 $337 $338 reversed $91 $-1 #
coedge $-1 $145 $229 $333 $339 reversed $91 $-1 #
coedge $-1 $335 $340 $145 $232 forward $330 $-1 #
edge $-1 $341 -29.623307364612685 $342 -17.843490893557842 $231 $343 forward 7 unknown #
loop $-1 $-1 $238 $146 #
plane-surface $-1 -24.950924351014464 5.4702112225257196 75.855205496506315 0.68199836817093118 0 0.7313536940579346 0.7313536940579346 0 -0.68199836817093118 forward_v I I I I #
loop $-1 $-1 $344 $93 #
coedge $-1 $236 $236 $237 $345 reversed $147 $-1 #
coedge $-1 $237 $237 $236 $345 forward $149 $-1 #
coedge $-1 $238 $238 $150 $239 forward $233 $-1 #
edge $-1 $346 0 $346 6.2831853071796004 $238 $347 forward 7 unknown #
face $-1 $348 $349 $36 $-1 $350 reversed single #
loop $-1 $-1 $351 $151 #
plane-surface $-1 -53.923764763328961 0 0 1 0 0 0 0 -1 forward_v I I I I #
coedge $-1 $352 $251 $353 $354 forward $152 $-1 #
coedge $-1 $355 $154 $352 $356 forward $97 $-1 #
coedge $-1 $154 $355 $357 $358 forward $97 $-1 #
coedge $-1 $254 $253 $154 $247 reversed $255 $-1 #
edge $-1 $359 -33.82417391542117 $360 33.82417391542117 $246 $361 forward 7 unknown #
coedge $-1 $156 $155 $362 $363 forward $61 $-1 #
coedge $-1 $364 $365 $155 $250 reversed $349 $-1 #
edge $-1 $257 -53.923764763328961 $366 53.923764763328961 $249 $367 forward 7 unknown #
coedge $-1 $243 $368 $156 $252 reversed $152 $-1 #
edge $-1 $369 -53.923764763328961 $256 53.923764763328961 $251 $370 forward 7 unknown #
coedge $-1 $246 $157 $368 $371 forward $255 $-1 #
coedge $-1 $157 $246 $364 $372 reversed $255 $-1 #
loop $-1 $-1 $253 $348 #
vertex $-1 $158 $373 #
vertex $-1 $158 $374 #
straight-curve $-1 53.923764763328961 0 13.288223163421284 0 1 0 I I #
face $-1 $375 $376 $37 $-1 $377 reversed single #
loop $-1 $-1 $378 $159 #
plane-surface $-1 -53.923764763328961 0 0 1 0 0 0 0 -1 forward_v I I I I #
coedge $-1 $270 $379 $264 $380 forward $160 $-1 #
coedge $-1 $165 $162 $381 $382 reversed $101 $-1 #
coedge $-1 $162 $165 $262 $380 reversed $101 $-1 #
coedge $-1 $383 $384 $162 $266 forward $385 $-1 #
edge $-1 $386 -13.288223163421284 $387 13.288223163421284 $265 $388 forward 7 unknown #
coedge $-1 $164 $163 $378 $389 reversed $64 $-1 #
coedge $-1 $381 $390 $163 $269 forward $376 $-1 #
edge $-1 $391 -28.940435425301615 $273 -21.026223250753077 $268 $392 forward 7 unknown #
coedge $-1 $393 $262 $164 $271 forward $160 $-1 #
edge $-1 $272 21.026223250753077 $394 28.940435425301615 $270 $395 forward 7 unknown #
vertex $-1 $271 $396 #
vertex $-1 $269 $397 #
straight-curve $-1 -46.009552588780423 -17.767059274069197 0 0 0 -1 I I #
face $-1 $-1 $287 $38 $-1 $398 forward single #
loop $-1 $-1 $399 $167 #
plane-surface $-1 -53.923764763328961 0 0 1 0 0 0 0 -1 forward_v I I I I #
coedge $-1 $400 $401 $402 $403 reversed $168 $-1 #
coedge $-1 $404 $170 $172 $285 forward $105 $-1 #
coedge $-1 $170 $404 $400 $405 forward $105 $-1 #
coedge $-1 $402 $173 $170 $282 forward $287 $-1 #
edge $-1 $289 -3.9368884797480881 $406 6.664667707033356 $281 $407 forward 7 unknown #
coedge $-1 $408 $409 $171 $284 forward $276 $-1 #
edge $-1 $410 -33.691046774994895 $288 -20.891378414951532 $283 $411 forward 7 unknown #
edge $-1 $289 -16.470095527167363 $410 -2.2575505016944882e-014 $172 $412 forward 7 unknown #
coedge $-1 $173 $402 $408 $413 forward $287 $-1 #
loop $-1 $-1 $402 $275 #
vertex $-1 $284 $414 #
vertex $-1 $174 $415 #
straight-curve $-1 -68.86851884027584 -2.5729988661054541 13.288223163421286 1 0 0 I I #
coedge $-1 $291 $291 $-1 $416 reversed $177 $-1 #
edge $-1 $417 0 $417 6.2831853071796004 $178 $418 forward 7 unknown #
vertex $-1 $181 $419 #
ellipse-curve $-1 -48.741281368591395 -0.45268762874916746 6.8883889833996026 -0.77714596973225614 0 0.62932038083071107 0.62932038083071107 0 0.77714596973225614 1 I I #
coedge $-1 $295 $295 $-1 $420 reversed $184 $-1 #
edge $-1 $421 0 $421 6.2831853071796004 $185 $422 forward 7 unknown #
vertex $-1 $188 $423 #
ellipse-curve $-1 -48.741281368591395 2.7277792272852679 6.8883889833996026 -0.77714596973225614 0 0.62932038083071107 0.62932038083071107 0 0.77714596973225614 1 I I #
coedge $-1 $299 $299 $-1 $424 reversed $191 $-1 #
edge $-1 $425 0 $425 6.2831853071796004 $192 $426 forward 7 unknown #
vertex $-1 $195 $427 #
ellipse-curve $-1 -48.741281368591395 5.9082460833196961 6.8883889833996026 -0.77714596973225614 0 0.62932038083071107 0.62932038083071107 0 0.77714596973225614 1 I I #
face $-1 $-1 $428 $42 $-1 $429 reversed single #
loop $-1 $-1 $430 $196 #
plane-surface $-1 0 33.82417391542117 0 0 -1 0 0 0 -1 forward_v I I I I #
coedge $-1 $431 $199 $201 $312 forward $124 $-1 #
coedge $-1 $199 $431 $430 $432 reversed $124 $-1 #
coedge $-1 $433 $202 $199 $309 forward $197 $-1 #
edge $-1 $315 8.9609198176245037 $434 19.562476004405944 $308 $435 forward 7 unknown #
coedge $-1 $436 $437 $200 $311 forward $428 $-1 #
edge $-1 $438 -33.691046774994895 $314 -20.891378414951532 $310 $439 forward 7 unknown #
edge $-1 $315 -16.470095527167363 $438 -2.2575505016944882e-014 $201 $440 forward 7 unknown #
coedge $-1 $202 $433 $436 $441 forward $197 $-1 #
vertex $-1 $311 $442 #
vertex $-1 $203 $443 #
straight-curve $-1 -68.86851884027584 23.22261772863973 13.288223163421286 1 0 0 I I #
coedge $-1 $317 $317 $-1 $444 reversed $206 $-1 #
edge $-1 $445 0 $445 6.2831853071796004 $207 $446 forward 7 unknown #
vertex $-1 $210 $447 #
ellipse-curve $-1 -48.741281368591395 25.342928965996016 6.8883889833996026 -0.77714596973225614 0 0.62932038083071107 0.62932038083071107 0 0.77714596973225614 1 I I #
coedge $-1 $321 $321 $-1 $448 reversed $213 $-1 #
edge $-1 $449 0 $449 6.2831853071796004 $214 $450 forward 7 unknown #
vertex $-1 $217 $451 #
ellipse-curve $-1 -48.741281368591395 28.523395822030452 6.8883889833996026 -0.77714596973225614 0 0.62932038083071107 0.62932038083071107 0 0.77714596973225614 1 I I #
coedge $-1 $325 $325 $-1 $452 reversed $220 $-1 #
edge $-1 $453 0 $453 6.2831853071796004 $221 $454 forward 7 unknown #
vertex $-1 $224 $455 #
ellipse-curve $-1 -48.741281368591395 31.70386267806488 6.8883889833996026 -0.77714596973225614 0 0.62932038083071107 0.62932038083071107 0 0.77714596973225614 1 I I #
face $-1 $-1 $456 $46 $-1 $457 reversed single #
loop $-1 $-1 $231 $225 #
plane-surface $-1 0 0 13.288223163421284 0 0 1 1 0 0 forward_v I I I I #
coedge $-1 $458 $459 $460 $461 reversed $226 $-1 #
coedge $-1 $462 $228 $230 $339 forward $143 $-1 #
coedge $-1 $228 $462 $458 $463 forward $143 $-1 #
coedge $-1 $460 $231 $228 $336 forward $330 $-1 #
edge $-1 $342 -7.534727055749773 $464 2.0645158332240534 $335 $465 forward 7 unknown #
coedge $-1 $466 $467 $229 $338 forward $456 $-1 #
edge $-1 $468 -75.061580957365564 $341 -64.076724142003599 $337 $469 forward 7 unknown #
edge $-1 $342 91.740662812559236 $468 107.84752952665789 $230 $470 forward 7 unknown #
coedge $-1 $231 $460 $466 $471 forward $330 $-1 #
vertex $-1 $338 $472 #
vertex $-1 $232 $473 #
straight-curve $-1 24.300457398716276 10.269832667012633 13.288223163421279 -1 0 0 I I #
coedge $-1 $344 $344 $-1 $474 reversed $235 $-1 #
edge $-1 $475 0 $475 6.2831853071796004 $236 $476 forward 7 unknown #
vertex $-1 $239 $477 #
ellipse-curve $-1 48.033856527801539 5.4702112225257196 7.7957947557403031 0.68199836817093118 0 0.7313536940579346 1.4627073881158692 0 -1.3639967363418624 1 I I #
face $-1 $-1 $255 $36 $-1 $478 reversed single #
loop $-1 $-1 $364 $240 #
plane-surface $-1 0 33.82417391542117 0 0 -1 0 0 0 -1 forward_v I I I I #
coedge $-1 $479 $362 $365 $480 forward $241 $-1 #
coedge $-1 $368 $243 $244 $356 reversed $152 $-1 #
coedge $-1 $362 $479 $243 $354 reversed $241 $-1 #
edge $-1 $369 -13.288223163421284 $481 13.288223163421284 $353 $482 forward 7 unknown #
coedge $-1 $245 $244 $479 $483 forward $97 $-1 #
edge $-1 $360 -53.923764763328961 $481 53.923764763328961 $352 $484 forward 7 unknown #
coedge $-1 $365 $364 $245 $358 reversed $349 $-1 #
edge $-1 $485 -53.923764763328961 $359 53.923764763328961 $357 $486 forward 7 unknown #
vertex $-1 $247 $487 #
vertex $-1 $371 $488 #
straight-curve $-1 53.923764763328961 0 -13.288223163421284 0 -1 0 I I #
coedge $-1 $351 $353 $248 $363 reversed $241 $-1 #
edge $-1 $366 -33.82417391542117 $369 33.82417391542117 $362 $489 forward 7 unknown #
coedge $-1 $357 $249 $254 $372 forward $349 $-1 #
coedge $-1 $249 $357 $351 $480 reversed $349 $-1 #
vertex $-1 $250 $490 #
straight-curve $-1 0 33.82417391542117 13.288223163421284 -1 0 0 I I #
coedge $-1 $251 $352 $253 $371 reversed $152 $-1 #
vertex $-1 $363 $491 #
straight-curve $-1 0 -33.82417391542117 13.288223163421284 1 0 0 I I #
edge $-1 $256 -13.288223163421284 $360 13.288223163421284 $253 $492 forward 7 unknown #
edge $-1 $257 -13.288223163421284 $359 13.288223163421284 $254 $493 forward 7 unknown #
point $-1 53.923764763328961 -33.82417391542117 13.288223163421284 #
point $-1 53.923764763328961 33.82417391542117 13.288223163421284 #
face $-1 $-1 $385 $37 $-1 $494 reversed single #
loop $-1 $-1 $381 $259 #
plane-surface $-1 0 0 -13.288223163421284 0 0 1 1 0 0 forward_v I I I I #
coedge $-1 $495 $496 $267 $389 forward $260 $-1 #
coedge $-1 $262 $393 $383 $497 forward $160 $-1 #
edge $-1 $387 -20.926365618048578 $272 -4.8692509766966054 $262 $498 forward 7 unknown #
coedge $-1 $499 $268 $263 $382 forward $376 $-1 #
edge $-1 $273 4.8692509766966054 $386 20.926365618048578 $381 $500 forward 7 unknown #
coedge $-1 $501 $265 $379 $497 reversed $385 $-1 #
coedge $-1 $265 $501 $499 $502 reversed $385 $-1 #
loop $-1 $-1 $265 $375 #
vertex $-1 $502 $503 #
vertex $-1 $266 $504 #
straight-curve $-1 -46.009552588780423 -33.82417391542117 0 0 0 1 I I #
edge $-1 $394 -13.288223163421284 $391 13.288223163421284 $378 $505 forward 7 unknown #
coedge $-1 $268 $499 $495 $506 forward $376 $-1 #
vertex $-1 $269 $507 #
straight-curve $-1 -24.983329338027346 -17.767059274069197 -13.288223163421284 1 0 0 I I #
coedge $-1 $379 $270 $496 $508 forward $160 $-1 #
vertex $-1 $508 $509 #
straight-curve $-1 -24.983329338027346 -17.767059274069197 13.288223163421284 -1 0 0 I I #
point $-1 -46.009552588780423 -17.767059274069197 13.288223163421284 #
point $-1 -46.009552588780423 -17.767059274069197 -13.288223163421284 #
plane-surface $-1 0 0 13.288223163421284 0 0 1 1 0 0 forward_v I I I I #
coedge $-1 $409 $408 $401 $510 forward $276 $-1 #
coedge $-1 $401 $278 $280 $405 reversed $168 $-1 #
coedge $-1 $278 $400 $399 $510 reversed $168 $-1 #
coedge $-1 $286 $281 $278 $403 forward $287 $-1 #
edge $-1 $406 -25.309720866422019 $511 -14.944754076946879 $402 $512 forward 7 unknown #
coedge $-1 $280 $279 $409 $513 reversed $105 $-1 #
edge $-1 $514 2.2575505016944882e-014 $406 16.470095527167363 $400 $515 forward 7 unknown #
vertex $-1 $282 $516 #
straight-curve $-1 -43.558797973853821 1.3638896136426339 13.288223163421284 0 1 0 I I #
coedge $-1 $399 $283 $286 $413 reversed $276 $-1 #
coedge $-1 $283 $399 $404 $513 forward $276 $-1 #
vertex $-1 $284 $517 #
straight-curve $-1 -53.923764763328961 -2.5729988661054541 34.179601578372818 0 0 1 I I #
straight-curve $-1 -53.923764763328975 -2.5729988661054541 0.4885548033779088 -0.62932038083071107 0 -0.77714596973225614 I I #
edge $-1 $511 -8.0285573206759899 $288 2.5729988661054541 $408 $518 forward 7 unknown #
point $-1 -53.923764763328961 -2.5729988661054541 13.288223163421284 #
point $-1 -43.558797973853821 -2.5729988661054541 13.288223163421284 #
edge $-1 $519 1 $519 0 $291 $-1 forward 7 unknown #
vertex $-1 $292 $520 #
ellipse-curve $-1 -47.530535050379093 -0.45268762874916746 5.9079459730224757 -0.77714596973225614 0 0.62932038083071107 0.62932038083071107 0 0.77714596973225614 1 I I #
point $-1 -48.111960987760668 -0.45268762874916746 7.6655349531318491 #
edge $-1 $521 1 $521 0 $295 $-1 forward 7 unknown #
vertex $-1 $296 $522 #
ellipse-curve $-1 -47.530535050379093 2.7277792272852679 5.9079459730224757 -0.77714596973225614 0 0.62932038083071107 0.62932038083071107 0 0.77714596973225614 1 I I #
point $-1 -48.111960987760668 2.7277792272852679 7.6655349531318491 #
edge $-1 $523 1 $523 0 $299 $-1 forward 7 unknown #
vertex $-1 $300 $524 #
ellipse-curve $-1 -47.530535050379093 5.9082460833196961 5.9079459730224757 -0.77714596973225614 0 0.62932038083071107 0.62932038083071107 0 0.77714596973225614 1 I I #
point $-1 -48.111960987760668 5.9082460833196961 7.6655349531318491 #
loop $-1 $-1 $310 $303 #
plane-surface $-1 -53.923764763328961 0 0 1 0 0 0 0 -1 forward_v I I I I #
coedge $-1 $525 $526 $307 $432 forward $304 $-1 #
coedge $-1 $307 $306 $437 $527 reversed $124 $-1 #
edge $-1 $434 0.30772736295533554 $528 16.777822890122675 $430 $529 forward 7 unknown #
coedge $-1 $313 $308 $526 $530 forward $197 $-1 #
vertex $-1 $530 $531 #
straight-curve $-1 -43.558797973853821 14.261697911015226 13.288223163421284 0 1 0 I I #
coedge $-1 $532 $310 $313 $441 reversed $428 $-1 #
coedge $-1 $310 $532 $431 $527 forward $428 $-1 #
vertex $-1 $311 $533 #
straight-curve $-1 -53.923764763328961 23.22261772863973 34.179601578372818 0 0 1 I I #
straight-curve $-1 -53.923764763328975 23.22261772863973 0.4885548033779088 -0.62932038083071107 0 -0.77714596973225614 I I #
edge $-1 $534 -33.82417391542117 $314 -23.22261772863973 $436 $535 forward 7 unknown #
point $-1 -53.923764763328961 23.22261772863973 13.288223163421284 #
point $-1 -43.558797973853821 23.22261772863973 13.288223163421284 #
edge $-1 $536 1 $536 0 $317 $-1 forward 7 unknown #
vertex $-1 $318 $537 #
ellipse-curve $-1 -47.530535050379093 25.342928965996016 5.9079459730224757 -0.77714596973225614 0 0.62932038083071107 0.62932038083071107 0 0.77714596973225614 1 I I #
point $-1 -48.111960987760668 25.342928965996016 7.6655349531318491 #
edge $-1 $538 1 $538 0 $321 $-1 forward 7 unknown #
vertex $-1 $322 $539 #
ellipse-curve $-1 -47.530535050379093 28.523395822030452 5.9079459730224757 -0.77714596973225614 0 0.62932038083071107 0.62932038083071107 0 0.77714596973225614 1 I I #
point $-1 -48.111960987760668 28.523395822030452 7.6655349531318491 #
edge $-1 $540 1 $540 0 $325 $-1 forward 7 unknown #
vertex $-1 $326 $541 #
ellipse-curve $-1 -47.530535050379093 31.70386267806488 5.9079459730224757 -0.77714596973225614 0 0.62932038083071107 0.62932038083071107 0 0.77714596973225614 1 I I #
point $-1 -48.111960987760668 31.70386267806488 7.6655349531318491 #
loop $-1 $-1 $337 $329 #
plane-surface $-1 53.923764763328961 0 0 -1 0 0 0 0 1 forward_v I I I I #
coedge $-1 $459 $332 $334 $463 reversed $226 $-1 #
coedge $-1 $332 $458 $542 $543 reversed $226 $-1 #
coedge $-1 $340 $335 $332 $461 forward $330 $-1 #
edge $-1 $464 17.843490893557842 $544 29.623307364612685 $460 $545 forward 7 unknown #
coedge $-1 $334 $333 $467 $546 reversed $143 $-1 #
edge $-1 $547 -107.84752952665789 $464 -91.740662812559236 $458 $548 forward 7 unknown #
vertex $-1 $336 $549 #
straight-curve $-1 42.143948292274118 2.7351056112628598 13.288223163421286 0 -1 0 I I #
coedge $-1 $542 $337 $340 $471 reversed $456 $-1 #
coedge $-1 $337 $542 $462 $546 forward $456 $-1 #
vertex $-1 $338 $550 #
straight-curve $-1 53.923764763328961 10.269832667012633 77.364947305424877 0 0 1 I I #
straight-curve $-1 -24.950924351014464 10.269832667012633 75.855205496506315 0.7313536940579346 0 -0.68199836817093118 I I #
edge $-1 $544 0.67058977803880637 $341 10.269832667012633 $466 $551 forward 7 unknown #
point $-1 53.923764763328961 10.269832667012633 13.288223163421284 #
point $-1 42.143948292274118 10.269832667012633 13.288223163421286 #
edge $-1 $552 1 $552 0 $344 $-1 forward 7 unknown #
vertex $-1 $345 $553 #
ellipse-curve $-1 45.181148121737259 5.4702112225257196 4.7366395902512153 0.68199836817093118 0 0.7313536940579346 1.4627073881158692 0 -1.3639967363418624 1 I I #
point $-1 49.496563915917392 5.4702112225257196 6.4317980193984265 #
plane-surface $-1 53.923764763328961 0 0 -1 0 0 0 0 1 forward_v I I I I #
coedge $-1 $353 $351 $355 $483 reversed $241 $-1 #
edge $-1 $366 -13.288223163421284 $485 13.288223163421284 $365 $554 forward 7 unknown #
vertex $-1 $483 $555 #
straight-curve $-1 -53.923764763328961 -33.82417391542117 0 0 0 -1 I I #
edge $-1 $481 -33.82417391542117 $485 33.82417391542117 $479 $556 forward 7 unknown #
straight-curve $-1 0 -33.82417391542117 -13.288223163421284 -1 0 0 I I #
vertex $-1 $358 $557 #
straight-curve $-1 0 33.82417391542117 -13.288223163421284 1 0 0 I I #
point $-1 53.923764763328961 33.82417391542117 -13.288223163421284 #
point $-1 53.923764763328961 -33.82417391542117 -13.288223163421284 #
straight-curve $-1 -53.923764763328961 0 13.288223163421284 0 -1 0 I I #
point $-1 -53.923764763328961 33.82417391542117 13.288223163421284 #
point $-1 -53.923764763328961 -33.82417391542117 13.288223163421284 #
straight-curve $-1 53.923764763328961 -33.82417391542117 0 0 0 -1 I I #
straight-curve $-1 53.923764763328961 33.82417391542117 0 0 0 -1 I I #
plane-surface $-1 0 -33.82417391542117 0 0 1 0 0 0 1 forward_v I I I I #
coedge $-1 $558 $378 $390 $506 reversed $260 $-1 #
coedge $-1 $378 $558 $393 $508 reversed $260 $-1 #
edge $-1 $559 -53.923764763328961 $387 -46.009552588780423 $383 $560 forward 7 unknown #
straight-curve $-1 -46.009552588780423 -12.897808297372592 13.288223163421284 0 1 0 I I #
coedge $-1 $390 $381 $384 $502 forward $376 $-1 #
straight-curve $-1 -46.009552588780423 -12.897808297372592 -13.288223163421284 0 -1 0 I I #
coedge $-1 $384 $383 $558 $561 forward $385 $-1 #
edge $-1 $386 46.009552588780423 $562 53.923764763328961 $384 $563 forward 7 unknown #
point $-1 -46.009552588780423 -33.82417391542117 -13.288223163421284 #
point $-1 -46.009552588780423 -33.82417391542117 13.288223163421284 #
straight-curve $-1 -53.923764763328961 -17.767059274069197 0 0 0 -1 I I #
edge $-1 $562 -33.82417391542117 $391 -17.767059274069197 $495 $564 forward 7 unknown #
point $-1 -53.923764763328961 -17.767059274069197 -13.288223163421284 #
edge $-1 $394 17.767059274069197 $559 33.82417391542117 $496 $565 forward 7 unknown #
point $-1 -53.923764763328961 -17.767059274069197 13.288223163421284 #
edge $-1 $511 20.891378414951532 $514 33.691046774994895 $399 $566 forward 7 unknown #
vertex $-1 $413 $567 #
straight-curve $-1 -68.86851884027584 8.0285573206759899 13.288223163421286 -1 0 0 I I #
edge $-1 $514 -6.664667707033356 $410 3.9368884797480881 $409 $568 forward 7 unknown #
vertex $-1 $513 $569 #
straight-curve $-1 -53.923764763328975 8.0285573206759899 0.4885548033779088 0.62932038083071107 0 0.77714596973225614 I I #
point $-1 -43.558797973853821 8.0285573206759899 13.288223163421284 #
point $-1 -53.923764763328961 -2.5729988661054541 0.48855480337792634 #
straight-curve $-1 -53.923764763328961 0 13.288223163421284 0 -1 0 I I #
vertex $-1 $416 $570 #
point $-1 -46.901214669548381 -0.45268762874916746 6.685091942754732 #
vertex $-1 $420 $571 #
point $-1 -46.901214669548381 2.7277792272852679 6.685091942754732 #
vertex $-1 $424 $572 #
point $-1 -46.901214669548381 5.9082460833196961 6.685091942754732 #
coedge $-1 $526 $430 $532 $573 reversed $304 $-1 #
coedge $-1 $430 $525 $433 $530 reversed $304 $-1 #
edge $-1 $528 -19.562476004405944 $438 -8.9609198176245037 $437 $574 forward 7 unknown #
vertex $-1 $432 $575 #
straight-curve $-1 -43.365138872606735 33.82417391542117 13.527372243318355 -0.62932038083071107 0 -0.77714596973225614 I I #
edge $-1 $434 43.558797973853821 $534 53.923764763328961 $526 $576 forward 7 unknown #
point $-1 -43.558797973853821 33.82417391542117 13.288223163421284 #
coedge $-1 $437 $436 $525 $573 forward $428 $-1 #
point $-1 -53.923764763328961 23.22261772863973 0.48855480337792634 #
vertex $-1 $530 $577 #
straight-curve $-1 -53.923764763328961 0 13.288223163421284 0 -1 0 I I #
vertex $-1 $444 $578 #
point $-1 -46.901214669548381 25.342928965996016 6.685091942754732 #
vertex $-1 $448 $579 #
point $-1 -46.901214669548381 28.523395822030452 6.685091942754732 #
vertex $-1 $452 $580 #
point $-1 -46.901214669548381 31.70386267806488 6.685091942754732 #
coedge $-1 $467 $466 $459 $543 forward $456 $-1 #
edge $-1 $544 64.076724142003599 $547 75.061580957365564 $542 $581 forward 7 unknown #
vertex $-1 $471 $582 #
straight-curve $-1 24.300457398716276 0.67058977803880637 13.288223163421279 1 0 0 I I #
edge $-1 $547 -2.0645158332240534 $468 7.534727055749773 $467 $583 forward 7 unknown #
vertex $-1 $546 $584 #
straight-curve $-1 -24.950924351014464 0.67058977803880637 75.855205496506315 -0.7313536940579346 0 0.68199836817093118 I I #
point $-1 42.143948292274118 0.67058977803880637 13.288223163421286 #
point $-1 53.923764763328961 10.269832667012633 2.3033663480593134 #
straight-curve $-1 53.923764763328961 0 13.288223163421284 0 1 0 I I #
vertex $-1 $474 $585 #
point $-1 46.643855509853125 5.4702112225257196 3.3726428539093525 #
straight-curve $-1 -53.923764763328961 33.82417391542117 0 0 0 -1 I I #
point $-1 -53.923764763328961 -33.82417391542117 -13.288223163421284 #
straight-curve $-1 -53.923764763328961 0 -13.288223163421284 0 1 0 I I #
point $-1 -53.923764763328961 33.82417391542117 -13.288223163421284 #
coedge $-1 $496 $495 $501 $561 reversed $260 $-1 #
vertex $-1 $508 $586 #
straight-curve $-1 0 -33.82417391542117 13.288223163421284 1 0 0 I I #
edge $-1 $559 -13.288223163421284 $562 13.288223163421284 $558 $587 forward 7 unknown #
vertex $-1 $506 $588 #
straight-curve $-1 0 -33.82417391542117 -13.288223163421284 -1 0 0 I I #
straight-curve $-1 -53.923764763328961 0 -13.288223163421284 0 1 0 I I #
straight-curve $-1 -53.923764763328961 0 13.288223163421284 0 -1 0 I I #
straight-curve $-1 -53.923764763328961 8.0285573206759899 34.179601578372818 0 0 -1 I I #
point $-1 -53.923764763328961 8.0285573206759899 13.288223163421284 #
straight-curve $-1 -53.923764763328961 1.3638896136426339 0.48855480337792845 0 -1 0 I I #
point $-1 -53.923764763328961 8.0285573206759899 0.48855480337792634 #
point $-1 -46.753389080646834 -0.45268762874916746 5.2786255921917649 #
point $-1 -46.753389080646834 2.7277792272852679 5.2786255921917649 #
point $-1 -46.753389080646834 5.9082460833196961 5.2786255921917649 #
edge $-1 $534 -13.288223163421284 $528 -0.48855480337792634 $525 $589 forward 7 unknown #
straight-curve $-1 -53.923764763328961 14.261697911015226 0.48855480337792845 0 -1 0 I I #
point $-1 -53.923764763328961 33.82417391542117 0.48855480337792634 #
straight-curve $-1 0 33.82417391542117 13.288223163421284 -1 0 0 I I #
point $-1 -53.923764763328961 33.82417391542117 13.288223163421284 #
point $-1 -46.753389080646834 25.342928965996016 5.2786255921917649 #
point $-1 -46.753389080646834 28.523395822030452 5.2786255921917649 #
point $-1 -46.753389080646834 31.70386267806488 5.2786255921917649 #
straight-curve $-1 53.923764763328961 0.67058977803880637 77.364947305424877 0 0 -1 I I #
point $-1 53.923764763328961 0.67058977803880637 13.288223163421284 #
straight-curve $-1 53.923764763328961 2.7351056112628598 2.3033663480593134 0 1 0 I I #
point $-1 53.923764763328961 0.67058977803880637 2.3033663480593134 #
point $-1 43.817151385395398 5.4702112225257196 3.2739322021353456 #
point $-1 -53.923764763328961 -33.82417391542117 13.288223163421284 #
straight-curve $-1 -53.923764763328961 -33.82417391542117 0 0 0 -1 I I #
point $-1 -53.923764763328961 -33.82417391542117 -13.288223163421284 #
straight-curve $-1 -53.923764763328961 33.82417391542117 0 0 0 -1 I I #
End-of-ACIS-data 