500 0 13 0           
7 Unknown 11 ACIS 5.0 NT 24 Fri Mar 26 18:35:51 1999 
-1 9.9999999999999995e-007 1e-010 
body $-1 $13 $-1 $14 #
body $-1 $15 $-1 $16 #
body $-1 $17 $-1 $18 #
body $-1 $19 $-1 $20 #
body $-1 $21 $-1 $22 #
body $-1 $23 $-1 $24 #
body $-1 $25 $-1 $26 #
body $-1 $27 $-1 $28 #
body $-1 $29 $-1 $30 #
body $-1 $31 $-1 $32 #
body $-1 $33 $-1 $34 #
body $-1 $35 $-1 $36 #
body $-1 $37 $-1 $38 #
lump $-1 $-1 $39 $0 #
transform $-1 1 0 0 0 1 0 0 0 1 53.810235908078248 22.806002079831718 8.6200938858889682 1 rotate no_reflect no_shear #
lump $-1 $-1 $40 $1 #
transform $-1 1 0 0 0 1 0 0 0 1 53.810235908078248 22.806002079831718 8.6200938858889682 1 rotate no_reflect no_shear #
lump $-1 $-1 $41 $2 #
transform $-1 1 0 0 0 1 0 0 0 1 53.810235908078248 22.806002079831718 8.6200938858889682 1 rotate no_reflect no_shear #
lump $-1 $-1 $42 $3 #
transform $-1 1 0 0 0 1 0 0 0 1 53.810235908078248 22.806002079831718 8.6200938858889682 1 rotate no_reflect no_shear #
lump $-1 $-1 $43 $4 #
transform $-1 1 0 0 0 1 0 0 0 1 53.810235908078248 22.806002079831718 8.6200938858889682 1 rotate no_reflect no_shear #
lump $-1 $-1 $44 $5 #
transform $-1 1 0 0 0 1 0 0 0 1 53.810235908078248 22.806002079831718 8.6200938858889682 1 rotate no_reflect no_shear #
lump $-1 $-1 $45 $6 #
transform $-1 1 0 0 0 1 0 0 0 1 53.810235908078248 22.806002079831718 8.6200938858889682 1 rotate no_reflect no_shear #
lump $-1 $-1 $46 $7 #
transform $-1 1 0 0 0 1 0 0 0 1 53.810235908078248 22.806002079831718 8.6200938858889682 1 rotate no_reflect no_shear #
lump $-1 $-1 $47 $8 #
transform $-1 1 0 0 0 1 0 0 0 1 53.810235908078248 22.806002079831718 8.6200938858889682 1 rotate no_reflect no_shear #
lump $-1 $-1 $48 $9 #
transform $-1 1 0 0 0 1 0 0 0 1 53.810235908078248 22.806002079831718 8.6200938858889682 1 rotate no_reflect no_shear #
lump $-1 $-1 $49 $10 #
transform $-1 1 0 0 0 1 0 0 0 1 53.810235908078248 22.806002079831718 8.6200938858889682 1 rotate no_reflect no_shear #
lump $-1 $-1 $50 $11 #
transform $-1 1 0 0 0 1 0 0 0 1 53.810235908078248 22.806002079831718 8.6200938858889682 1 rotate no_reflect no_shear #
lump $-1 $-1 $51 $12 #
transform $-1 1 0 0 0 1 0 0 0 1 53.810235908078248 22.806002079831718 8.6200938858889682 1 rotate no_reflect no_shear #
shell $-1 $-1 $-1 $52 $-1 $13 #
shell $-1 $-1 $-1 $53 $-1 $15 #
shell $-1 $-1 $-1 $54 $-1 $17 #
shell $-1 $-1 $-1 $55 $-1 $19 #
shell $-1 $-1 $-1 $56 $-1 $21 #
shell $-1 $-1 $-1 $57 $-1 $23 #
shell $-1 $-1 $-1 $58 $-1 $25 #
shell $-1 $-1 $-1 $59 $-1 $27 #
shell $-1 $-1 $-1 $60 $-1 $29 #
shell $-1 $-1 $-1 $61 $-1 $31 #
shell $-1 $-1 $-1 $62 $-1 $33 #
shell $-1 $-1 $-1 $63 $-1 $35 #
shell $-1 $-1 $-1 $64 $-1 $37 #
face $-1 $65 $66 $39 $-1 $67 forward single #
face $-1 $68 $69 $40 $-1 $70 reversed single #
face $-1 $71 $72 $41 $-1 $73 forward single #
face $-1 $74 $75 $42 $-1 $76 forward single #
face $-1 $77 $78 $43 $-1 $79 forward single #
face $-1 $80 $81 $44 $-1 $82 reversed single #
face $-1 $83 $84 $45 $-1 $85 forward single #
face $-1 $86 $87 $46 $-1 $88 reversed single #
face $-1 $89 $90 $47 $-1 $91 forward single #
face $-1 $92 $93 $48 $-1 $94 reversed single #
face $-1 $95 $96 $49 $-1 $97 forward single #
face $-1 $98 $99 $50 $-1 $100 reversed single #
face $-1 $101 $102 $51 $-1 $103 forward single #
face $-1 $104 $105 $39 $-1 $106 reversed single #
loop $-1 $-1 $107 $52 #
plane-surface $-1 0 0 8.6200938858889682 0 0 1 1 0 0 forward_v I I I I #
face $-1 $108 $109 $40 $-1 $110 reversed single #
loop $-1 $-1 $111 $53 #
plane-surface $-1 41.38078319433361 -79.836164074099472 95.701218845545412 -1 0 0 0 -0.52991927123019833 0.84804809178421925 forward_v I I I I #
face $-1 $112 $113 $41 $-1 $114 forward single #
loop $-1 $115 $116 $54 #
cone-surface $-1 29.606544569976698 -19.024183944355368 5.8354049689293426 0 0.52991927123019833 -0.84804809178421925 1 0 0 1 I I 0 1 1 forward I I I I #
face $-1 $117 $118 $42 $-1 $119 forward single #
loop $-1 $120 $121 $55 #
cone-surface $-1 34.021884054110537 -19.024183944355368 5.8354049689293426 0 0.52991927123019833 -0.84804809178421925 1 0 0 1 I I 0 1 1 forward I I I I #
face $-1 $122 $123 $43 $-1 $124 forward single #
loop $-1 $125 $126 $56 #
cone-surface $-1 38.437223538244375 -19.024183944355368 5.8354049689293426 0 0.52991927123019833 -0.84804809178421925 1 0 0 1 I I 0 1 1 forward I I I I #
face $-1 $127 $128 $44 $-1 $129 reversed single #
loop $-1 $-1 $130 $57 #
plane-surface $-1 -48.808097249063223 45.172541985444568 118.34907417261311 1 0 0 0 -0.55919291073839883 -0.82903756765294845 forward_v I I I I #
face $-1 $131 $132 $45 $-1 $133 forward single #
loop $-1 $134 $135 $58 #
cone-surface $-1 -39.939762446896424 18.250536160747426 4.8603130325374089 0 -0.55919291073839883 -0.82903756765294845 1 0 0 1 I I 0 1 1 forward I I I I #
face $-1 $136 $137 $46 $-1 $138 reversed single #
loop $-1 $-1 $139 $59 #
plane-surface $-1 -21.902979295024103 45.172541985444568 118.34907417261311 1 0 0 0 -0.55919291073839883 -0.82903756765294845 forward_v I I I I #
face $-1 $140 $141 $47 $-1 $142 forward single #
loop $-1 $143 $144 $60 #
cone-surface $-1 -13.034644492857304 18.250536160747426 4.8603130325374089 0 -0.55919291073839883 -0.82903756765294845 1 0 0 1 I I 0 1 1 forward I I I I #
face $-1 $145 $146 $48 $-1 $147 reversed single #
loop $-1 $-1 $148 $61 #
plane-surface $-1 5.0021386590150243 45.172541985444568 118.34907417261311 1 0 0 0 -0.55919291073839883 -0.82903756765294845 forward_v I I I I #
face $-1 $149 $150 $49 $-1 $151 forward single #
loop $-1 $152 $153 $62 #
cone-surface $-1 13.870473461181824 18.250536160747426 4.8603130325374089 0 -0.55919291073839883 -0.82903756765294845 1 0 0 1 I I 0 1 1 forward I I I I #
face $-1 $154 $155 $50 $-1 $156 reversed single #
loop $-1 $-1 $157 $63 #
plane-surface $-1 31.907256613054152 45.172541985444568 118.34907417261311 1 0 0 0 -0.55919291073839883 -0.82903756765294845 forward_v I I I I #
face $-1 $158 $159 $51 $-1 $160 forward single #
loop $-1 $161 $162 $64 #
cone-surface $-1 40.775591415220951 18.250536160747426 4.8603130325374089 0 -0.55919291073839883 -0.82903756765294845 1 0 0 1 I I 0 1 1 forward I I I I #
face $-1 $163 $164 $39 $-1 $165 reversed single #
loop $-1 $-1 $166 $65 #
plane-surface $-1 0 0 -8.6200938858889682 0 0 1 1 0 0 forward_v I I I I #
coedge $-1 $167 $168 $169 $170 forward $66 $-1 #
face $-1 $171 $172 $40 $-1 $173 reversed single #
loop $-1 $-1 $174 $68 #
plane-surface $-1 34.021884054110537 -22.806002079831721 4.4338830849365536 0 -0.52991927123019833 0.84804809178421925 1 0 0 forward_v I I I I #
coedge $-1 $175 $176 $177 $178 reversed $69 $-1 #
face $-1 $-1 $179 $41 $-1 $180 forward single #
loop $-1 $181 $182 $71 #
cone-surface $-1 29.606544569976698 -18.32707495707006 4.7197974065538197 0 0.52991927123019833 -0.84804809178421925 0.5 0 0 1 I I -0.70710678118654746 0.70710678118654746 0.5 forward I I I I #
loop $-1 $-1 $183 $54 #
coedge $-1 $116 $116 $184 $185 reversed $72 $-1 #
face $-1 $-1 $186 $42 $-1 $187 forward single #
loop $-1 $188 $189 $74 #
cone-surface $-1 34.021884054110537 -18.32707495707006 4.7197974065538197 0 0.52991927123019833 -0.84804809178421925 0.5 0 0 1 I I -0.70710678118654746 0.70710678118654746 0.5 forward I I I I #
loop $-1 $-1 $190 $55 #
coedge $-1 $121 $121 $191 $192 reversed $75 $-1 #
face $-1 $-1 $193 $43 $-1 $194 forward single #
loop $-1 $195 $196 $77 #
cone-surface $-1 38.437223538244375 -18.32707495707006 4.7197974065538197 0 0.52991927123019833 -0.84804809178421925 0.5 0 0 1 I I -0.70710678118654746 0.70710678118654746 0.5 forward I I I I #
loop $-1 $-1 $197 $56 #
coedge $-1 $126 $126 $198 $199 reversed $78 $-1 #
face $-1 $200 $201 $44 $-1 $202 reversed single #
loop $-1 $-1 $203 $80 #
plane-surface $-1 -39.939762446896424 -15.008062904471799 29.127659988484041 0 0.55919291073839883 0.82903756765294845 1 0 0 forward_v I I I I #
coedge $-1 $204 $205 $206 $207 reversed $81 $-1 #
face $-1 $-1 $208 $45 $-1 $209 forward single #
loop $-1 $210 $211 $83 #
cone-surface $-1 -39.939762446896424 17.12064803445671 3.1851850293889239 0 -0.55919291073839883 -0.82903756765294845 0.5 0 0 1 I I -0.70710678118654746 0.70710678118654746 0.5 forward I I I I #
loop $-1 $-1 $212 $58 #
coedge $-1 $135 $135 $213 $214 reversed $84 $-1 #
face $-1 $215 $216 $46 $-1 $217 reversed single #
loop $-1 $-1 $218 $86 #
plane-surface $-1 -13.034644492857304 -15.008062904471799 29.127659988484041 0 0.55919291073839883 0.82903756765294845 1 0 0 forward_v I I I I #
coedge $-1 $219 $220 $221 $222 reversed $87 $-1 #
face $-1 $-1 $223 $47 $-1 $224 forward single #
loop $-1 $225 $226 $89 #
cone-surface $-1 -13.034644492857304 17.12064803445671 3.1851850293889239 0 -0.55919291073839883 -0.82903756765294845 0.5 0 0 1 I I -0.70710678118654746 0.70710678118654746 0.5 forward I I I I #
loop $-1 $-1 $227 $60 #
coedge $-1 $144 $144 $228 $229 reversed $90 $-1 #
face $-1 $230 $231 $48 $-1 $232 reversed single #
loop $-1 $-1 $233 $92 #
plane-surface $-1 13.870473461181824 -15.008062904471799 29.127659988484041 0 0.55919291073839883 0.82903756765294845 1 0 0 forward_v I I I I #
coedge $-1 $234 $235 $236 $237 reversed $93 $-1 #
face $-1 $-1 $238 $49 $-1 $239 forward single #
loop $-1 $240 $241 $95 #
cone-surface $-1 13.870473461181824 17.12064803445671 3.1851850293889239 0 -0.55919291073839883 -0.82903756765294845 0.5 0 0 1 I I -0.70710678118654746 0.70710678118654746 0.5 forward I I I I #
loop $-1 $-1 $242 $62 #
coedge $-1 $153 $153 $243 $244 reversed $96 $-1 #
face $-1 $245 $246 $50 $-1 $247 reversed single #
loop $-1 $-1 $248 $98 #
plane-surface $-1 40.775591415220951 -15.008062904471799 29.127659988484041 0 0.55919291073839883 0.82903756765294845 1 0 0 forward_v I I I I #
coedge $-1 $249 $250 $251 $252 reversed $99 $-1 #
face $-1 $-1 $253 $51 $-1 $254 forward single #
loop $-1 $255 $256 $101 #
cone-surface $-1 40.775591415220951 17.12064803445671 3.1851850293889239 0 -0.55919291073839883 -0.82903756765294845 0.5 0 0 1 I I -0.70710678118654746 0.70710678118654746 0.5 forward I I I I #
loop $-1 $-1 $257 $64 #
coedge $-1 $162 $162 $258 $259 reversed $102 $-1 #
face $-1 $260 $261 $39 $-1 $262 reversed single #
loop $-1 $-1 $263 $104 #
plane-surface $-1 0 -22.806002079831718 0 0 1 0 0 0 1 forward_v I I I I #
coedge $-1 $264 $265 $266 $267 forward $105 $-1 #
coedge $-1 $268 $107 $269 $270 forward $66 $-1 #
coedge $-1 $107 $268 $271 $272 forward $66 $-1 #
coedge $-1 $273 $274 $107 $170 reversed $275 $-1 #
edge $-1 $276 -22.806002079831718 $277 22.806002079831718 $169 $278 forward 7 unknown #
face $-1 $279 $280 $40 $-1 $281 reversed single #
loop $-1 $-1 $282 $108 #
plane-surface $-1 26.662984913887463 -79.836164074099472 95.701218845545412 1 0 0 0 0.52991927123019833 -0.84804809178421925 forward_v I I I I #
coedge $-1 $283 $284 $285 $286 reversed $109 $-1 #
coedge $-1 $176 $111 $287 $288 reversed $69 $-1 #
coedge $-1 $111 $175 $283 $289 reversed $69 $-1 #
coedge $-1 $285 $290 $111 $178 forward $291 $-1 #
edge $-1 $292 17.112079957218018 $293 23.811417524830283 $177 $294 forward 7 unknown #
loop $-1 $-1 $184 $112 #
plane-surface $-1 34.021884054110537 -22.806002079831721 4.4338830849365536 0 -0.52991927123019833 0.84804809178421925 1 0 0 forward_v I I I I #
loop $-1 $-1 $295 $71 #
coedge $-1 $182 $182 $183 $296 reversed $113 $-1 #
coedge $-1 $183 $183 $182 $296 forward $115 $-1 #
coedge $-1 $184 $184 $116 $185 forward $179 $-1 #
edge $-1 $297 2.2604412248058798e-015 $297 6.2831853071796031 $184 $298 forward 7 unknown #
loop $-1 $-1 $191 $117 #
plane-surface $-1 34.021884054110537 -22.806002079831721 4.4338830849365536 0 -0.52991927123019833 0.84804809178421925 1 0 0 forward_v I I I I #
loop $-1 $-1 $299 $74 #
coedge $-1 $189 $189 $190 $300 reversed $118 $-1 #
coedge $-1 $190 $190 $189 $300 forward $120 $-1 #
coedge $-1 $191 $191 $121 $192 forward $186 $-1 #
edge $-1 $301 2.2604412248058798e-015 $301 6.2831853071796031 $191 $302 forward 7 unknown #
loop $-1 $-1 $198 $122 #
plane-surface $-1 34.021884054110537 -22.806002079831721 4.4338830849365536 0 -0.52991927123019833 0.84804809178421925 1 0 0 forward_v I I I I #
loop $-1 $-1 $303 $77 #
coedge $-1 $196 $196 $197 $304 reversed $123 $-1 #
coedge $-1 $197 $197 $196 $304 forward $125 $-1 #
coedge $-1 $198 $198 $126 $199 forward $193 $-1 #
edge $-1 $305 2.2604412248058798e-015 $305 6.2831853071796031 $198 $306 forward 7 unknown #
face $-1 $307 $308 $44 $-1 $309 reversed single #
loop $-1 $-1 $310 $127 #
plane-surface $-1 -31.071427644729624 45.172541985444568 118.34907417261311 -1 0 0 0 0.55919291073839883 0.82903756765294845 forward_v I I I I #
coedge $-1 $311 $312 $313 $314 reversed $128 $-1 #
coedge $-1 $205 $130 $315 $316 reversed $81 $-1 #
coedge $-1 $130 $204 $311 $317 reversed $81 $-1 #
coedge $-1 $313 $318 $130 $207 forward $319 $-1 #
edge $-1 $320 -0.21973108710943379 $321 7.1906174092160704 $206 $322 forward 7 unknown #
loop $-1 $-1 $213 $131 #
plane-surface $-1 -39.939762446896424 -15.008062904471799 29.127659988484041 0 0.55919291073839883 0.82903756765294845 1 0 0 forward_v I I I I #
loop $-1 $-1 $323 $83 #
coedge $-1 $211 $211 $212 $324 reversed $132 $-1 #
coedge $-1 $212 $212 $211 $324 forward $134 $-1 #
coedge $-1 $213 $213 $135 $214 forward $208 $-1 #
edge $-1 $325 1.385813910509611e-016 $325 6.2831853071796004 $213 $326 forward 7 unknown #
face $-1 $327 $328 $46 $-1 $329 forward single #
loop $-1 $-1 $330 $136 #
plane-surface $-1 -4.1663096906905039 45.172541985444568 118.34907417261311 -1 0 0 0 0.55919291073839883 0.82903756765294845 forward_v I I I I #
coedge $-1 $331 $332 $333 $334 reversed $137 $-1 #
coedge $-1 $220 $139 $335 $336 reversed $87 $-1 #
coedge $-1 $139 $219 $331 $337 reversed $87 $-1 #
coedge $-1 $333 $338 $139 $222 forward $328 $-1 #
edge $-1 $339 -0.21973108710943379 $340 7.1906174092160704 $221 $341 forward 7 unknown #
loop $-1 $-1 $228 $140 #
plane-surface $-1 -13.034644492857304 -15.008062904471799 29.127659988484041 0 0.55919291073839883 0.82903756765294845 1 0 0 forward_v I I I I #
loop $-1 $-1 $342 $89 #
coedge $-1 $226 $226 $227 $343 reversed $141 $-1 #
coedge $-1 $227 $227 $226 $343 forward $143 $-1 #
coedge $-1 $228 $228 $144 $229 forward $223 $-1 #
edge $-1 $344 1.385813910509611e-016 $344 6.2831853071796004 $228 $345 forward 7 unknown #
face $-1 $346 $347 $48 $-1 $348 forward single #
loop $-1 $-1 $349 $145 #
plane-surface $-1 22.738808263348623 45.172541985444568 118.34907417261311 -1 0 0 0 0.55919291073839883 0.82903756765294845 forward_v I I I I #
coedge $-1 $350 $351 $352 $353 reversed $146 $-1 #
coedge $-1 $235 $148 $354 $355 reversed $93 $-1 #
coedge $-1 $148 $234 $350 $356 reversed $93 $-1 #
coedge $-1 $352 $357 $148 $237 forward $347 $-1 #
edge $-1 $358 -0.21973108710943379 $359 7.1906174092160704 $236 $360 forward 7 unknown #
loop $-1 $-1 $243 $149 #
plane-surface $-1 13.870473461181824 -15.008062904471799 29.127659988484041 0 0.55919291073839883 0.82903756765294845 1 0 0 forward_v I I I I #
loop $-1 $-1 $361 $95 #
coedge $-1 $241 $241 $242 $362 reversed $150 $-1 #
coedge $-1 $242 $242 $241 $362 forward $152 $-1 #
coedge $-1 $243 $243 $153 $244 forward $238 $-1 #
edge $-1 $363 1.385813910509611e-016 $363 6.2831853071796004 $243 $364 forward 7 unknown #
face $-1 $365 $366 $50 $-1 $367 forward single #
loop $-1 $-1 $368 $154 #
plane-surface $-1 49.643926217387751 45.172541985444568 118.34907417261311 -1 0 0 0 0.55919291073839883 0.82903756765294845 forward_v I I I I #
coedge $-1 $369 $370 $371 $372 reversed $155 $-1 #
coedge $-1 $250 $157 $373 $374 reversed $99 $-1 #
coedge $-1 $157 $249 $369 $375 reversed $99 $-1 #
coedge $-1 $371 $376 $157 $252 forward $366 $-1 #
edge $-1 $377 -0.21973108710943379 $378 7.1906174092160704 $251 $379 forward 7 unknown #
loop $-1 $-1 $258 $158 #
plane-surface $-1 40.775591415220951 -15.008062904471799 29.127659988484041 0 0.55919291073839883 0.82903756765294845 1 0 0 forward_v I I I I #
loop $-1 $-1 $380 $101 #
coedge $-1 $256 $256 $257 $381 reversed $159 $-1 #
coedge $-1 $257 $257 $256 $381 forward $161 $-1 #
coedge $-1 $258 $258 $162 $259 forward $253 $-1 #
edge $-1 $382 1.385813910509611e-016 $382 6.2831853071796004 $258 $383 forward 7 unknown #
face $-1 $384 $385 $39 $-1 $386 reversed single #
loop $-1 $-1 $387 $163 #
plane-surface $-1 -53.810235908078248 0 0 1 0 0 0 0 -1 forward_v I I I I #
coedge $-1 $388 $271 $389 $390 forward $164 $-1 #
coedge $-1 $391 $166 $388 $392 forward $105 $-1 #
coedge $-1 $166 $391 $393 $394 forward $105 $-1 #
coedge $-1 $274 $273 $166 $267 reversed $275 $-1 #
edge $-1 $395 -22.806002079831718 $396 22.806002079831718 $266 $397 forward 7 unknown #
coedge $-1 $168 $167 $398 $399 forward $66 $-1 #
coedge $-1 $400 $401 $167 $270 reversed $385 $-1 #
edge $-1 $277 -53.810235908078248 $402 53.810235908078248 $269 $403 forward 7 unknown #
coedge $-1 $263 $404 $168 $272 reversed $164 $-1 #
edge $-1 $405 -53.810235908078248 $276 53.810235908078248 $271 $406 forward 7 unknown #
coedge $-1 $266 $169 $404 $407 forward $275 $-1 #
coedge $-1 $169 $266 $400 $408 reversed $275 $-1 #
loop $-1 $-1 $273 $384 #
vertex $-1 $170 $409 #
vertex $-1 $170 $410 #
straight-curve $-1 53.810235908078248 0 8.6200938858889682 0 1 0 I I #
face $-1 $-1 $291 $40 $-1 $411 forward single #
loop $-1 $-1 $412 $171 #
plane-surface $-1 0 -22.806002079831718 0 0 1 0 0 0 1 forward_v I I I I #
coedge $-1 $413 $414 $415 $416 reversed $172 $-1 #
coedge $-1 $417 $174 $176 $289 forward $109 $-1 #
coedge $-1 $174 $417 $413 $418 forward $109 $-1 #
coedge $-1 $415 $177 $174 $286 forward $291 $-1 #
edge $-1 $293 -24.369841167278341 $419 -9.652042886832195 $285 $420 forward 7 unknown #
coedge $-1 $421 $422 $175 $288 forward $280 $-1 #
edge $-1 $423 -43.416726337836153 $292 -39.230515536883736 $287 $424 forward 7 unknown #
edge $-1 $293 -7.8997142172886061 $423 -3.9541977777422176e-015 $176 $425 forward 7 unknown #
coedge $-1 $177 $415 $421 $426 forward $291 $-1 #
loop $-1 $-1 $415 $279 #
vertex $-1 $288 $427 #
vertex $-1 $178 $428 #
straight-curve $-1 41.38078319433361 -39.918082037049736 8.62009388588897 0 1 0 I I #
coedge $-1 $295 $295 $-1 $429 reversed $181 $-1 #
edge $-1 $430 0 $430 6.2831853071796004 $182 $431 forward 7 unknown #
vertex $-1 $185 $432 #
ellipse-curve $-1 29.606544569976698 -19.456333296025583 6.5269884854127636 0 -0.52991927123019833 0.84804809178421925 1 0 0 1 I I #
coedge $-1 $299 $299 $-1 $433 reversed $188 $-1 #
edge $-1 $434 0 $434 6.2831853071796004 $189 $435 forward 7 unknown #
vertex $-1 $192 $436 #
ellipse-curve $-1 34.021884054110537 -19.456333296025583 6.5269884854127636 0 -0.52991927123019833 0.84804809178421925 1 0 0 1 I I #
coedge $-1 $303 $303 $-1 $437 reversed $195 $-1 #
edge $-1 $438 0 $438 6.2831853071796004 $196 $439 forward 7 unknown #
vertex $-1 $199 $440 #
ellipse-curve $-1 38.437223538244375 -19.456333296025583 6.5269884854127636 0 -0.52991927123019833 0.84804809178421925 1 0 0 1 I I #
face $-1 $-1 $319 $44 $-1 $441 forward single #
loop $-1 $-1 $442 $200 #
plane-surface $-1 0 22.806002079831718 0 0 -1 0 0 0 -1 forward_v I I I I #
coedge $-1 $443 $444 $445 $446 reversed $201 $-1 #
coedge $-1 $447 $203 $205 $317 forward $128 $-1 #
coedge $-1 $203 $447 $443 $448 forward $128 $-1 #
coedge $-1 $445 $206 $203 $314 forward $319 $-1 #
edge $-1 $321 -28.838216025615012 $449 -11.101546421281412 $313 $450 forward 7 unknown #
coedge $-1 $451 $452 $204 $316 forward $308 $-1 #
edge $-1 $453 -55.552786468476647 $320 -50.554443200417587 $315 $454 forward 7 unknown #
edge $-1 $321 36.673508745873391 $453 45.6120041596634 $205 $455 forward 7 unknown #
coedge $-1 $206 $445 $451 $456 forward $319 $-1 #
loop $-1 $-1 $445 $307 #
vertex $-1 $316 $457 #
vertex $-1 $207 $458 #
straight-curve $-1 -48.808097249063223 22.586270992722284 8.62009388588897 0 -1 0 I I #
coedge $-1 $323 $323 $-1 $459 reversed $210 $-1 #
edge $-1 $460 0 $460 6.2831853071796004 $211 $461 forward 7 unknown #
vertex $-1 $214 $462 #
ellipse-curve $-1 -39.939762446896424 19.100827831668958 6.1209222518594402 0 0.55919291073839883 0.82903756765294845 1 0 0 1 I I #
face $-1 $-1 $463 $46 $-1 $464 reversed single #
loop $-1 $-1 $221 $215 #
plane-surface $-1 0 0 8.6200938858889682 0 0 1 1 0 0 forward_v I I I I #
coedge $-1 $465 $466 $467 $468 reversed $216 $-1 #
coedge $-1 $469 $218 $220 $337 forward $137 $-1 #
coedge $-1 $218 $469 $465 $470 forward $137 $-1 #
coedge $-1 $467 $221 $218 $334 forward $328 $-1 #
edge $-1 $340 -15.385657048595451 $471 2.3510125557381478 $333 $472 forward 7 unknown #
coedge $-1 $473 $474 $219 $336 forward $463 $-1 #
edge $-1 $475 -55.552786468476647 $339 -50.554443200417587 $335 $476 forward 7 unknown #
edge $-1 $340 36.673508745873391 $475 45.6120041596634 $220 $477 forward 7 unknown #
coedge $-1 $221 $467 $473 $478 forward $328 $-1 #
vertex $-1 $222 $479 #
vertex $-1 $222 $480 #
straight-curve $-1 -21.902979295024103 22.586270992722284 8.62009388588897 0 -1 0 I I #
coedge $-1 $342 $342 $-1 $481 reversed $225 $-1 #
edge $-1 $482 0 $482 6.2831853071796004 $226 $483 forward 7 unknown #
vertex $-1 $229 $484 #
ellipse-curve $-1 -13.034644492857304 19.100827831668958 6.1209222518594402 0 0.55919291073839883 0.82903756765294845 1 0 0 1 I I #
face $-1 $-1 $485 $48 $-1 $486 reversed single #
loop $-1 $-1 $236 $230 #
plane-surface $-1 0 0 8.6200938858889682 0 0 1 1 0 0 forward_v I I I I #
coedge $-1 $487 $488 $489 $490 reversed $231 $-1 #
coedge $-1 $491 $233 $235 $356 forward $146 $-1 #
coedge $-1 $233 $491 $487 $492 forward $146 $-1 #
coedge $-1 $489 $236 $233 $353 forward $347 $-1 #
edge $-1 $359 -1.9330980715758876 $493 15.803571532757712 $352 $494 forward 7 unknown #
coedge $-1 $495 $496 $234 $355 forward $485 $-1 #
edge $-1 $497 -55.552786468476647 $358 -50.554443200417587 $354 $498 forward 7 unknown #
edge $-1 $359 36.673508745873391 $497 45.6120041596634 $235 $499 forward 7 unknown #
coedge $-1 $236 $489 $495 $500 forward $347 $-1 #
vertex $-1 $237 $501 #
vertex $-1 $237 $502 #
straight-curve $-1 5.0021386590150243 22.586270992722284 8.62009388588897 0 -1 0 I I #
coedge $-1 $361 $361 $-1 $503 reversed $240 $-1 #
edge $-1 $504 0 $504 6.2831853071796004 $241 $505 forward 7 unknown #
vertex $-1 $244 $506 #
ellipse-curve $-1 13.870473461181824 19.100827831668958 6.1209222518594402 0 0.55919291073839883 0.82903756765294845 1 0 0 1 I I #
face $-1 $-1 $507 $50 $-1 $508 reversed single #
loop $-1 $-1 $251 $245 #
plane-surface $-1 0 0 8.6200938858889682 0 0 1 1 0 0 forward_v I I I I #
coedge $-1 $509 $510 $511 $512 reversed $246 $-1 #
coedge $-1 $513 $248 $250 $375 forward $155 $-1 #
coedge $-1 $248 $513 $509 $514 forward $155 $-1 #
coedge $-1 $511 $251 $248 $372 forward $366 $-1 #
edge $-1 $378 11.519460905443676 $515 29.256130509777275 $371 $516 forward 7 unknown #
coedge $-1 $517 $518 $249 $374 forward $507 $-1 #
edge $-1 $519 -55.552786468476647 $377 -50.554443200417587 $373 $520 forward 7 unknown #
edge $-1 $378 36.673508745873391 $519 45.6120041596634 $250 $521 forward 7 unknown #
coedge $-1 $251 $511 $517 $522 forward $366 $-1 #
vertex $-1 $252 $523 #
vertex $-1 $252 $524 #
straight-curve $-1 31.907256613054152 22.586270992722284 8.62009388588897 0 -1 0 I I #
coedge $-1 $380 $380 $-1 $525 reversed $255 $-1 #
edge $-1 $526 0 $526 6.2831853071796004 $256 $527 forward 7 unknown #
vertex $-1 $259 $528 #
ellipse-curve $-1 40.775591415220951 19.100827831668958 6.1209222518594402 0 0.55919291073839883 0.82903756765294845 1 0 0 1 I I #
face $-1 $-1 $275 $39 $-1 $529 reversed single #
loop $-1 $-1 $400 $260 #
plane-surface $-1 0 22.806002079831718 0 0 -1 0 0 0 -1 forward_v I I I I #
coedge $-1 $530 $398 $401 $531 forward $261 $-1 #
coedge $-1 $404 $263 $264 $392 reversed $164 $-1 #
coedge $-1 $398 $530 $263 $390 reversed $261 $-1 #
edge $-1 $405 -8.6200938858889682 $532 8.6200938858889682 $389 $533 forward 7 unknown #
coedge $-1 $265 $264 $530 $534 forward $105 $-1 #
edge $-1 $396 -53.810235908078248 $532 53.810235908078248 $388 $535 forward 7 unknown #
coedge $-1 $401 $400 $265 $394 reversed $385 $-1 #
edge $-1 $536 -53.810235908078248 $395 53.810235908078248 $393 $537 forward 7 unknown #
vertex $-1 $267 $538 #
vertex $-1 $407 $539 #
straight-curve $-1 53.810235908078248 0 -8.6200938858889682 0 -1 0 I I #
coedge $-1 $387 $389 $268 $399 reversed $261 $-1 #
edge $-1 $402 -22.806002079831718 $405 22.806002079831718 $398 $540 forward 7 unknown #
coedge $-1 $393 $269 $274 $408 forward $385 $-1 #
coedge $-1 $269 $393 $387 $531 reversed $385 $-1 #
vertex $-1 $270 $541 #
straight-curve $-1 0 22.806002079831718 8.6200938858889682 -1 0 0 I I #
coedge $-1 $271 $388 $273 $407 reversed $164 $-1 #
vertex $-1 $399 $542 #
straight-curve $-1 0 -22.806002079831718 8.6200938858889682 1 0 0 I I #
edge $-1 $276 -8.6200938858889682 $396 8.6200938858889682 $273 $543 forward 7 unknown #
edge $-1 $277 -8.6200938858889682 $395 8.6200938858889682 $274 $544 forward 7 unknown #
point $-1 53.810235908078248 -22.806002079831718 8.6200938858889682 #
point $-1 53.810235908078248 22.806002079831718 8.6200938858889682 #
plane-surface $-1 0 0 8.6200938858889682 0 0 1 1 0 0 forward_v I I I I #
coedge $-1 $422 $421 $414 $545 forward $280 $-1 #
coedge $-1 $414 $282 $284 $418 reversed $172 $-1 #
coedge $-1 $282 $413 $412 $545 reversed $172 $-1 #
coedge $-1 $290 $285 $282 $416 forward $291 $-1 #
edge $-1 $419 -23.811417524830283 $546 -17.112079957218018 $415 $547 forward 7 unknown #
coedge $-1 $284 $283 $422 $548 reversed $109 $-1 #
edge $-1 $549 3.9541977777422176e-015 $419 7.8997142172886061 $413 $550 forward 7 unknown #
vertex $-1 $286 $551 #
straight-curve $-1 17.010942027055268 -16.106664512219453 8.6200938858889682 -1 0 0 I I #
coedge $-1 $412 $287 $290 $426 reversed $280 $-1 #
coedge $-1 $287 $412 $417 $548 forward $280 $-1 #
vertex $-1 $288 $552 #
straight-curve $-1 41.38078319433361 -22.806002079831718 47.850609422772706 0 0 1 I I #
straight-curve $-1 41.38078319433361 -22.806002079831721 4.4338830849365536 0 -0.84804809178421925 -0.52991927123019833 I I #
edge $-1 $546 26.662984913887463 $292 41.38078319433361 $421 $553 forward 7 unknown #
point $-1 41.38078319433361 -22.806002079831718 8.6200938858889682 #
point $-1 41.38078319433361 -16.106664512219453 8.6200938858889682 #
edge $-1 $554 1 $554 0 $295 $-1 forward 7 unknown #
vertex $-1 $296 $555 #
ellipse-curve $-1 29.606544569976698 -18.59203459268516 5.1438214524459296 0 -0.52991927123019833 0.84804809178421925 1 0 0 1 I I #
point $-1 30.606544569976698 -19.456333296025576 6.5269884854127564 #
edge $-1 $556 1 $556 0 $299 $-1 forward 7 unknown #
vertex $-1 $300 $557 #
ellipse-curve $-1 34.021884054110537 -18.59203459268516 5.1438214524459296 0 -0.52991927123019833 0.84804809178421925 1 0 0 1 I I #
point $-1 35.021884054110537 -19.456333296025576 6.5269884854127564 #
edge $-1 $558 1 $558 0 $303 $-1 forward 7 unknown #
vertex $-1 $304 $559 #
ellipse-curve $-1 38.437223538244375 -18.59203459268516 5.1438214524459296 0 -0.52991927123019833 0.84804809178421925 1 0 0 1 I I #
point $-1 39.437223538244375 -19.456333296025576 6.5269884854127564 #
plane-surface $-1 0 0 8.6200938858889682 0 0 1 1 0 0 forward_v I I I I #
coedge $-1 $452 $451 $444 $560 forward $308 $-1 #
coedge $-1 $444 $310 $312 $448 reversed $201 $-1 #
coedge $-1 $310 $443 $442 $560 reversed $201 $-1 #
coedge $-1 $318 $313 $310 $446 forward $319 $-1 #
edge $-1 $449 -7.1906174092160704 $561 0.21973108710943379 $445 $562 forward 7 unknown #
coedge $-1 $312 $311 $452 $563 reversed $128 $-1 #
edge $-1 $564 -45.6120041596634 $449 -36.673508745873391 $443 $565 forward 7 unknown #
vertex $-1 $314 $566 #
straight-curve $-1 -19.969881223448212 15.395653583506217 8.6200938858889682 1 0 0 I I #
coedge $-1 $442 $315 $318 $456 reversed $308 $-1 #
coedge $-1 $315 $442 $447 $563 forward $308 $-1 #
vertex $-1 $316 $567 #
straight-curve $-1 -48.808097249063223 22.806002079831718 59.174537086306557 0 0 1 I I #
straight-curve $-1 -48.808097249063223 -15.008062904471799 29.127659988484041 0 0.82903756765294845 -0.55919291073839883 I I #
edge $-1 $561 31.071427644729624 $320 48.808097249063223 $451 $568 forward 7 unknown #
point $-1 -48.808097249063223 22.806002079831718 8.6200938858889682 #
point $-1 -48.808097249063223 15.395653583506213 8.62009388588897 #
edge $-1 $569 1 $569 0 $323 $-1 forward 7 unknown #
vertex $-1 $324 $570 #
ellipse-curve $-1 -39.939762446896424 17.400244489825909 3.599703813215398 0 0.55919291073839883 0.82903756765294845 1 0 0 1 I I #
point $-1 -38.939762446896424 19.100827831668944 6.1209222518594189 #
loop $-1 $-1 $335 $327 #
plane-surface $-1 0 22.806002079831718 0 0 -1 0 0 0 -1 forward_v I I I I #
coedge $-1 $466 $330 $332 $470 reversed $216 $-1 #
coedge $-1 $330 $465 $571 $572 reversed $216 $-1 #
coedge $-1 $338 $333 $330 $468 forward $328 $-1 #
edge $-1 $471 -7.1906174092160704 $573 0.21973108710943379 $467 $574 forward 7 unknown #
coedge $-1 $332 $331 $474 $575 reversed $137 $-1 #
edge $-1 $576 -45.6120041596634 $471 -36.673508745873391 $465 $577 forward 7 unknown #
vertex $-1 $334 $578 #
straight-curve $-1 -6.5173222464286518 15.395653583506217 8.6200938858889682 1 0 0 I I #
coedge $-1 $571 $335 $338 $478 reversed $463 $-1 #
coedge $-1 $335 $571 $469 $575 forward $463 $-1 #
vertex $-1 $336 $579 #
straight-curve $-1 -21.902979295024103 22.806002079831718 59.174537086306557 0 0 1 I I #
straight-curve $-1 -21.902979295024103 -15.008062904471799 29.127659988484041 0 0.82903756765294845 -0.55919291073839883 I I #
edge $-1 $573 4.1663096906905039 $339 21.902979295024103 $473 $580 forward 7 unknown #
point $-1 -21.902979295024103 22.806002079831718 8.6200938858889682 #
point $-1 -21.902979295024103 15.395653583506213 8.62009388588897 #
edge $-1 $581 1 $581 0 $342 $-1 forward 7 unknown #
vertex $-1 $343 $582 #
ellipse-curve $-1 -13.034644492857304 17.400244489825909 3.599703813215398 0 0.55919291073839883 0.82903756765294845 1 0 0 1 I I #
point $-1 -12.034644492857304 19.100827831668944 6.1209222518594189 #
loop $-1 $-1 $354 $346 #
plane-surface $-1 0 22.806002079831718 0 0 -1 0 0 0 -1 forward_v I I I I #
coedge $-1 $488 $349 $351 $492 reversed $231 $-1 #
coedge $-1 $349 $487 $583 $584 reversed $231 $-1 #
coedge $-1 $357 $352 $349 $490 forward $347 $-1 #
edge $-1 $493 -7.1906174092160704 $585 0.21973108710943379 $489 $586 forward 7 unknown #
coedge $-1 $351 $350 $496 $587 reversed $146 $-1 #
edge $-1 $588 -45.6120041596634 $493 -36.673508745873391 $487 $589 forward 7 unknown #
vertex $-1 $353 $590 #
straight-curve $-1 6.9352367305909119 15.395653583506217 8.6200938858889682 1 0 0 I I #
coedge $-1 $583 $354 $357 $500 reversed $485 $-1 #
coedge $-1 $354 $583 $491 $587 forward $485 $-1 #
vertex $-1 $355 $591 #
straight-curve $-1 5.0021386590150243 22.806002079831718 59.174537086306557 0 0 1 I I #
straight-curve $-1 5.0021386590150243 -15.008062904471799 29.127659988484041 0 0.82903756765294845 -0.55919291073839883 I I #
edge $-1 $585 -22.738808263348623 $358 -5.0021386590150243 $495 $592 forward 7 unknown #
point $-1 5.0021386590150243 22.806002079831718 8.6200938858889682 #
point $-1 5.0021386590150243 15.395653583506213 8.62009388588897 #
edge $-1 $593 1 $593 0 $361 $-1 forward 7 unknown #
vertex $-1 $362 $594 #
ellipse-curve $-1 13.870473461181824 17.400244489825909 3.599703813215398 0 0.55919291073839883 0.82903756765294845 1 0 0 1 I I #
point $-1 14.870473461181824 19.100827831668944 6.1209222518594189 #
loop $-1 $-1 $373 $365 #
plane-surface $-1 0 22.806002079831718 0 0 -1 0 0 0 -1 forward_v I I I I #
coedge $-1 $510 $368 $370 $514 reversed $246 $-1 #
coedge $-1 $368 $509 $595 $596 reversed $246 $-1 #
coedge $-1 $376 $371 $368 $512 forward $366 $-1 #
edge $-1 $515 -7.1906174092160704 $597 0.21973108710943379 $511 $598 forward 7 unknown #
coedge $-1 $370 $369 $518 $599 reversed $155 $-1 #
edge $-1 $600 -45.6120041596634 $515 -36.673508745873391 $509 $601 forward 7 unknown #
vertex $-1 $372 $602 #
straight-curve $-1 20.387795707610476 15.395653583506217 8.6200938858889682 1 0 0 I I #
coedge $-1 $595 $373 $376 $522 reversed $507 $-1 #
coedge $-1 $373 $595 $513 $599 forward $507 $-1 #
vertex $-1 $374 $603 #
straight-curve $-1 31.907256613054152 22.806002079831718 59.174537086306557 0 0 1 I I #
straight-curve $-1 31.907256613054152 -15.008062904471799 29.127659988484041 0 0.82903756765294845 -0.55919291073839883 I I #
edge $-1 $597 -49.643926217387751 $377 -31.907256613054152 $517 $604 forward 7 unknown #
point $-1 31.907256613054152 22.806002079831718 8.6200938858889682 #
point $-1 31.907256613054152 15.395653583506213 8.62009388588897 #
edge $-1 $605 1 $605 0 $380 $-1 forward 7 unknown #
vertex $-1 $381 $606 #
ellipse-curve $-1 40.775591415220951 17.400244489825909 3.599703813215398 0 0.55919291073839883 0.82903756765294845 1 0 0 1 I I #
point $-1 41.775591415220951 19.100827831668944 6.1209222518594189 #
plane-surface $-1 53.810235908078248 0 0 -1 0 0 0 0 1 forward_v I I I I #
coedge $-1 $389 $387 $391 $534 reversed $261 $-1 #
edge $-1 $402 -8.6200938858889682 $536 8.6200938858889682 $401 $607 forward 7 unknown #
vertex $-1 $534 $608 #
straight-curve $-1 -53.810235908078248 -22.806002079831718 0 0 0 -1 I I #
edge $-1 $532 -22.806002079831718 $536 22.806002079831718 $530 $609 forward 7 unknown #
straight-curve $-1 0 -22.806002079831718 -8.6200938858889682 -1 0 0 I I #
vertex $-1 $394 $610 #
straight-curve $-1 0 22.806002079831718 -8.6200938858889682 1 0 0 I I #
point $-1 53.810235908078248 22.806002079831718 -8.6200938858889682 #
point $-1 53.810235908078248 -22.806002079831718 -8.6200938858889682 #
straight-curve $-1 -53.810235908078248 0 8.6200938858889682 0 -1 0 I I #
point $-1 -53.810235908078248 22.806002079831718 8.6200938858889682 #
point $-1 -53.810235908078248 -22.806002079831718 8.6200938858889682 #
straight-curve $-1 53.810235908078248 -22.806002079831718 0 0 0 -1 I I #
straight-curve $-1 53.810235908078248 22.806002079831718 0 0 0 -1 I I #
edge $-1 $546 39.230515536883736 $549 43.416726337836153 $412 $611 forward 7 unknown #
vertex $-1 $426 $612 #
straight-curve $-1 26.662984913887463 -39.918082037049736 8.62009388588897 0 -1 0 I I #
edge $-1 $549 9.652042886832195 $423 24.369841167278341 $422 $613 forward 7 unknown #
vertex $-1 $548 $614 #
straight-curve $-1 26.662984913887463 -22.806002079831721 4.4338830849365536 0 0.84804809178421925 0.52991927123019833 I I #
point $-1 26.662984913887463 -16.106664512219453 8.6200938858889682 #
point $-1 41.38078319433361 -22.806002079831718 4.4338830849365554 #
straight-curve $-1 0 -22.806002079831718 8.6200938858889682 1 0 0 I I #
vertex $-1 $429 $615 #
point $-1 30.606544569976698 -18.59203459268516 5.1438214524459296 #
vertex $-1 $433 $616 #
point $-1 35.021884054110537 -18.59203459268516 5.1438214524459296 #
vertex $-1 $437 $617 #
point $-1 39.437223538244375 -18.59203459268516 5.1438214524459296 #
edge $-1 $561 50.554443200417587 $564 55.552786468476647 $442 $618 forward 7 unknown #
vertex $-1 $456 $619 #
straight-curve $-1 -31.071427644729624 22.586270992722284 8.62009388588897 0 1 0 I I #
edge $-1 $564 11.101546421281412 $453 28.838216025615012 $452 $620 forward 7 unknown #
vertex $-1 $563 $621 #
straight-curve $-1 -31.071427644729624 -15.008062904471799 29.127659988484041 0 -0.82903756765294845 0.55919291073839883 I I #
point $-1 -31.071427644729624 15.395653583506213 8.62009388588897 #
point $-1 -48.808097249063223 22.806002079831714 3.6217506178299104 #
straight-curve $-1 0 22.806002079831718 8.6200938858889682 -1 0 0 I I #
vertex $-1 $459 $622 #
point $-1 -38.939762446896424 17.400244489825909 3.599703813215398 #
coedge $-1 $474 $473 $466 $572 forward $463 $-1 #
edge $-1 $573 50.554443200417587 $576 55.552786468476647 $571 $623 forward 7 unknown #
vertex $-1 $478 $624 #
straight-curve $-1 -4.1663096906905039 22.586270992722284 8.62009388588897 0 1 0 I I #
edge $-1 $576 -2.3510125557381478 $475 15.385657048595451 $474 $625 forward 7 unknown #
vertex $-1 $575 $626 #
straight-curve $-1 -4.1663096906905039 -15.008062904471799 29.127659988484041 0 -0.82903756765294845 0.55919291073839883 I I #
point $-1 -4.1663096906905039 15.395653583506213 8.62009388588897 #
point $-1 -21.902979295024103 22.806002079831714 3.6217506178299104 #
straight-curve $-1 0 22.806002079831718 8.6200938858889682 -1 0 0 I I #
vertex $-1 $481 $627 #
point $-1 -12.034644492857304 17.400244489825909 3.599703813215398 #
coedge $-1 $496 $495 $488 $584 forward $485 $-1 #
edge $-1 $585 50.554443200417587 $588 55.552786468476647 $583 $628 forward 7 unknown #
vertex $-1 $500 $629 #
straight-curve $-1 22.738808263348623 22.586270992722284 8.62009388588897 0 1 0 I I #
edge $-1 $588 -15.803571532757712 $497 1.9330980715758876 $496 $630 forward 7 unknown #
vertex $-1 $587 $631 #
straight-curve $-1 22.738808263348623 -15.008062904471799 29.127659988484041 0 -0.82903756765294845 0.55919291073839883 I I #
point $-1 22.738808263348623 15.395653583506213 8.62009388588897 #
point $-1 5.0021386590150243 22.806002079831714 3.6217506178299104 #
straight-curve $-1 0 22.806002079831718 8.6200938858889682 -1 0 0 I I #
vertex $-1 $503 $632 #
point $-1 14.870473461181824 17.400244489825909 3.599703813215398 #
coedge $-1 $518 $517 $510 $596 forward $507 $-1 #
edge $-1 $597 50.554443200417587 $600 55.552786468476647 $595 $633 forward 7 unknown #
vertex $-1 $522 $634 #
straight-curve $-1 49.643926217387751 22.586270992722284 8.62009388588897 0 1 0 I I #
edge $-1 $600 -29.256130509777275 $519 -11.519460905443676 $518 $635 forward 7 unknown #
vertex $-1 $599 $636 #
straight-curve $-1 49.643926217387751 -15.008062904471799 29.127659988484041 0 -0.82903756765294845 0.55919291073839883 I I #
point $-1 49.643926217387751 15.395653583506213 8.62009388588897 #
point $-1 31.907256613054152 22.806002079831714 3.6217506178299104 #
straight-curve $-1 0 22.806002079831718 8.6200938858889682 -1 0 0 I I #
vertex $-1 $525 $637 #
point $-1 41.775591415220951 17.400244489825909 3.599703813215398 #
straight-curve $-1 -53.810235908078248 22.806002079831718 0 0 0 -1 I I #
point $-1 -53.810235908078248 -22.806002079831718 -8.6200938858889682 #
straight-curve $-1 -53.810235908078248 0 -8.6200938858889682 0 1 0 I I #
point $-1 -53.810235908078248 22.806002079831718 -8.6200938858889682 #
straight-curve $-1 26.662984913887463 -22.806002079831718 47.850609422772706 0 0 -1 I I #
point $-1 26.662984913887463 -22.806002079831718 8.6200938858889682 #
straight-curve $-1 17.010942027055268 -22.806002079831718 4.4338830849365571 1 0 0 I I #
point $-1 26.662984913887463 -22.806002079831718 4.4338830849365554 #
point $-1 29.606544569976698 -18.062115321454961 4.2957733606617099 #
point $-1 34.021884054110537 -18.062115321454961 4.2957733606617099 #
point $-1 38.437223538244375 -18.062115321454961 4.2957733606617099 #
straight-curve $-1 -31.071427644729624 22.806002079831718 59.174537086306557 0 0 -1 I I #
point $-1 -31.071427644729624 22.806002079831718 8.6200938858889682 #
straight-curve $-1 -19.969881223448212 22.806002079831714 3.6217506178299086 -1 0 0 I I #
point $-1 -31.071427644729624 22.806002079831714 3.6217506178299104 #
point $-1 -39.939762446896424 16.841051579087512 2.7706662455624498 #
straight-curve $-1 -4.1663096906905039 22.806002079831718 59.174537086306557 0 0 -1 I I #
point $-1 -4.1663096906905039 22.806002079831718 8.6200938858889682 #
straight-curve $-1 -6.5173222464286518 22.806002079831714 3.6217506178299086 -1 0 0 I I #
point $-1 -4.1663096906905039 22.806002079831714 3.6217506178299104 #
point $-1 -13.034644492857304 16.841051579087512 2.7706662455624498 #
straight-curve $-1 22.738808263348623 22.806002079831718 59.174537086306557 0 0 -1 I I #
point $-1 22.738808263348623 22.806002079831718 8.6200938858889682 #
straight-curve $-1 6.9352367305909119 22.806002079831714 3.6217506178299086 -1 0 0 I I #
point $-1 22.738808263348623 22.806002079831714 3.6217506178299104 #
point $-1 13.870473461181824 16.841051579087512 2.7706662455624498 #
straight-curve $-1 49.643926217387751 22.806002079831718 59.174537086306557 0 0 -1 I I #
point $-1 49.643926217387751 22.806002079831718 8.6200938858889682 #
straight-curve $-1 20.387795707610476 22.806002079831714 3.6217506178299086 -1 0 0 I I #
point $-1 49.643926217387751 22.806002079831714 3.6217506178299104 #
point $-1 40.775591415220951 16.841051579087512 2.7706662455624498 #
End-of-ACIS-data 