500 0 13 0           
7 Unknown 11 ACIS 5.0 NT 24 Thu Mar 25 19:16:19 1999 
-1 9.9999999999999995e-007 1e-010 
body $-1 $13 $-1 $14 #
body $-1 $15 $-1 $16 #
body $-1 $17 $-1 $18 #
body $-1 $19 $-1 $20 #
body $-1 $21 $-1 $22 #
body $-1 $23 $-1 $24 #
body $-1 $25 $-1 $26 #
body $-1 $27 $-1 $28 #
body $-1 $29 $-1 $30 #
body $-1 $31 $-1 $32 #
body $-1 $33 $-1 $34 #
body $-1 $35 $-1 $36 #
body $-1 $37 $-1 $38 #
lump $-1 $-1 $39 $0 #
transform $-1 1 0 0 0 1 0 0 0 1 77.7013458662679 38.97564198514214 9.3866506290338059 1 rotate no_reflect no_shear #
lump $-1 $-1 $40 $1 #
transform $-1 1 0 0 0 1 0 0 0 1 77.7013458662679 38.97564198514214 9.3866506290338059 1 rotate no_reflect no_shear #
lump $-1 $-1 $41 $2 #
transform $-1 1 0 0 0 1 0 0 0 1 77.7013458662679 38.97564198514214 9.3866506290338059 1 rotate no_reflect no_shear #
lump $-1 $-1 $42 $3 #
transform $-1 1 0 0 0 1 0 0 0 1 77.7013458662679 38.97564198514214 9.3866506290338059 1 rotate no_reflect no_shear #
lump $-1 $-1 $43 $4 #
transform $-1 1 0 0 0 1 0 0 0 1 77.7013458662679 38.97564198514214 9.3866506290338059 1 rotate no_reflect no_shear #
lump $-1 $-1 $44 $5 #
transform $-1 1 0 0 0 1 0 0 0 1 77.7013458662679 38.97564198514214 9.3866506290338059 1 rotate no_reflect no_shear #
lump $-1 $-1 $45 $6 #
transform $-1 1 0 0 0 1 0 0 0 1 77.7013458662679 38.97564198514214 9.3866506290338059 1 rotate no_reflect no_shear #
lump $-1 $-1 $46 $7 #
transform $-1 1 0 0 0 1 0 0 0 1 77.7013458662679 38.97564198514214 9.3866506290338059 1 rotate no_reflect no_shear #
lump $-1 $-1 $47 $8 #
transform $-1 1 0 0 0 1 0 0 0 1 77.7013458662679 38.97564198514214 9.3866506290338059 1 rotate no_reflect no_shear #
lump $-1 $-1 $48 $9 #
transform $-1 1 0 0 0 1 0 0 0 1 77.7013458662679 38.97564198514214 9.3866506290338059 1 rotate no_reflect no_shear #
lump $-1 $-1 $49 $10 #
transform $-1 1 0 0 0 1 0 0 0 1 77.7013458662679 38.97564198514214 9.3866506290338059 1 rotate no_reflect no_shear #
lump $-1 $-1 $50 $11 #
transform $-1 1 0 0 0 1 0 0 0 1 77.7013458662679 38.97564198514214 9.3866506290338059 1 rotate no_reflect no_shear #
lump $-1 $-1 $51 $12 #
transform $-1 1 0 0 0 1 0 0 0 1 77.7013458662679 38.97564198514214 9.3866506290338059 1 rotate no_reflect no_shear #
shell $-1 $-1 $-1 $52 $-1 $13 #
shell $-1 $-1 $-1 $53 $-1 $15 #
shell $-1 $-1 $-1 $54 $-1 $17 #
shell $-1 $-1 $-1 $55 $-1 $19 #
shell $-1 $-1 $-1 $56 $-1 $21 #
shell $-1 $-1 $-1 $57 $-1 $23 #
shell $-1 $-1 $-1 $58 $-1 $25 #
shell $-1 $-1 $-1 $59 $-1 $27 #
shell $-1 $-1 $-1 $60 $-1 $29 #
shell $-1 $-1 $-1 $61 $-1 $31 #
shell $-1 $-1 $-1 $62 $-1 $33 #
shell $-1 $-1 $-1 $63 $-1 $35 #
shell $-1 $-1 $-1 $64 $-1 $37 #
face $-1 $65 $66 $39 $-1 $67 forward single #
face $-1 $68 $69 $40 $-1 $70 reversed single #
face $-1 $71 $72 $41 $-1 $73 forward single #
face $-1 $74 $75 $42 $-1 $76 forward single #
face $-1 $77 $78 $43 $-1 $79 reversed single #
face $-1 $80 $81 $44 $-1 $82 forward single #
face $-1 $83 $84 $45 $-1 $85 forward single #
face $-1 $86 $87 $46 $-1 $88 reversed single #
face $-1 $89 $90 $47 $-1 $91 forward single #
face $-1 $92 $93 $48 $-1 $94 forward single #
face $-1 $95 $96 $49 $-1 $97 reversed single #
face $-1 $98 $99 $50 $-1 $100 forward single #
face $-1 $101 $102 $51 $-1 $103 forward single #
face $-1 $104 $105 $39 $-1 $106 reversed single #
loop $-1 $-1 $107 $52 #
plane-surface $-1 0 0 9.3866506290338059 0 0 1 1 0 0 forward_v I I I I #
face $-1 $108 $109 $40 $-1 $110 reversed single #
loop $-1 $-1 $111 $53 #
plane-surface $-1 77.701348416190797 0 221.33441658312444 0 -1 0 -0.70710678939079041 0 -0.70710677298230451 forward_v I I I I #
face $-1 $112 $113 $41 $-1 $114 forward single #
loop $-1 $115 $116 $54 #
cone-surface $-1 73.028943595200289 -10.042766969223763 4.7142482848138503 -0.70710678939079041 0 -0.70710677298230451 0.70710677298230451 0 -0.70710678939079041 1 I I 0 1 1 forward I I I I #
face $-1 $117 $118 $42 $-1 $119 forward single #
loop $-1 $120 $121 $55 #
cone-surface $-1 73.028943595200289 -4.0171067876895066 4.7142482848138503 -0.70710678939079041 0 -0.70710677298230451 0.70710677298230451 0 -0.70710678939079041 1 I I 0 1 1 forward I I I I #
face $-1 $122 $123 $43 $-1 $124 reversed single #
loop $-1 $-1 $125 $56 #
plane-surface $-1 77.701348416190797 14.059873756913266 221.33441658312444 0 -1 0 -0.70710678939079041 0 -0.70710677298230451 forward_v I I I I #
face $-1 $126 $127 $44 $-1 $128 forward single #
loop $-1 $129 $130 $57 #
cone-surface $-1 73.028943595200289 4.0171067876895066 4.7142482848138503 -0.70710678939079041 0 -0.70710677298230451 0.70710677298230451 0 -0.70710678939079041 1 I I 0 1 1 forward I I I I #
face $-1 $131 $132 $45 $-1 $133 forward single #
loop $-1 $134 $135 $58 #
cone-surface $-1 73.028943595200289 10.042766969223763 4.7142482848138503 -0.70710678939079041 0 -0.70710677298230451 0.70710677298230451 0 -0.70710678939079041 1 I I 0 1 1 forward I I I I #
face $-1 $136 $137 $46 $-1 $138 reversed single #
loop $-1 $-1 $139 $59 #
plane-surface $-1 -164.6014293927667 -36.502706118424143 132.49198064813433 0 1 0 -0.55919291073839883 0 0.82903756765294845 forward_v I I I I #
face $-1 $140 $141 $47 $-1 $142 forward single #
loop $-1 $143 $144 $60 #
cone-surface $-1 -72.04028282266448 -32.193395441117254 4.4256166582033822 0.55919291073839883 0 -0.82903756765294845 1.2435563514794228 0 0.83878936610759824 1 I I 0 1 1.5 forward I I I I #
face $-1 $145 $146 $48 $-1 $147 forward single #
loop $-1 $148 $149 $61 #
cone-surface $-1 -72.04028282266448 -25.729429425156916 4.4256166582033822 0.55919291073839883 0 -0.82903756765294845 1.2435563514794228 0 0.83878936610759824 1 I I 0 1 1.5 forward I I I I #
face $-1 $150 $151 $49 $-1 $152 reversed single #
loop $-1 $-1 $153 $62 #
plane-surface $-1 -164.6014293927667 2.472935866717993 132.49198064813433 0 1 0 -0.55919291073839883 0 0.82903756765294845 forward_v I I I I #
face $-1 $154 $155 $50 $-1 $156 forward single #
loop $-1 $157 $158 $63 #
cone-surface $-1 -72.04028282266448 6.7822465440248862 4.4256166582033822 0.55919291073839883 0 -0.82903756765294845 1.2435563514794228 0 0.83878936610759824 1 I I 0 1 1.5 forward I I I I #
face $-1 $159 $160 $51 $-1 $161 forward single #
loop $-1 $162 $163 $64 #
cone-surface $-1 -72.04028282266448 13.246212559985224 4.4256166582033822 0.55919291073839883 0 -0.82903756765294845 1.2435563514794228 0 0.83878936610759824 1 I I 0 1 1.5 forward I I I I #
face $-1 $164 $165 $39 $-1 $166 reversed single #
loop $-1 $-1 $167 $65 #
plane-surface $-1 0 0 -9.3866506290338059 0 0 1 1 0 0 forward_v I I I I #
coedge $-1 $168 $169 $170 $171 forward $66 $-1 #
face $-1 $172 $173 $40 $-1 $174 reversed single #
loop $-1 $-1 $175 $68 #
plane-surface $-1 -32.184949997489326 -7.0299368784566347 111.4481207193672 0.70710678939079041 0 0.70710677298230451 0.70710677298230451 0 -0.70710678939079041 forward_v I I I I #
coedge $-1 $176 $177 $178 $179 reversed $69 $-1 #
face $-1 $-1 $180 $41 $-1 $181 forward single #
loop $-1 $182 $183 $71 #
cone-surface $-1 71.9154020003227 -10.042766969223763 3.6007067157761021 -0.70710678939079041 0 -0.70710677298230451 0.35355338649115226 0 -0.35355339469539521 1 I I -0.70710678118654724 0.70710678118654791 0.5 forward I I I I #
loop $-1 $-1 $184 $54 #
coedge $-1 $116 $116 $185 $186 reversed $72 $-1 #
face $-1 $-1 $187 $42 $-1 $188 forward single #
loop $-1 $189 $190 $74 #
cone-surface $-1 71.9154020003227 -4.0171067876895066 3.6007067157761021 -0.70710678939079041 0 -0.70710677298230451 0.35355338649115226 0 -0.35355339469539521 1 I I -0.70710678118654724 0.70710678118654791 0.5 forward I I I I #
loop $-1 $-1 $191 $55 #
coedge $-1 $121 $121 $192 $193 reversed $75 $-1 #
face $-1 $194 $195 $43 $-1 $196 reversed single #
loop $-1 $-1 $197 $77 #
plane-surface $-1 -32.184949997489326 -7.0299368784566347 111.4481207193672 0.70710678939079041 0 0.70710677298230451 0.70710677298230451 0 -0.70710678939079041 forward_v I I I I #
coedge $-1 $198 $199 $200 $201 reversed $78 $-1 #
face $-1 $-1 $202 $44 $-1 $203 forward single #
loop $-1 $204 $205 $80 #
cone-surface $-1 71.9154020003227 4.0171067876895066 3.6007067157761021 -0.70710678939079041 0 -0.70710677298230451 0.35355338649115226 0 -0.35355339469539521 1 I I -0.70710678118654724 0.70710678118654791 0.5 forward I I I I #
loop $-1 $-1 $206 $57 #
coedge $-1 $130 $130 $207 $208 reversed $81 $-1 #
face $-1 $-1 $209 $45 $-1 $210 forward single #
loop $-1 $211 $212 $83 #
cone-surface $-1 71.9154020003227 10.042766969223763 3.6007067157761021 -0.70710678939079041 0 -0.70710677298230451 0.35355338649115226 0 -0.35355339469539521 1 I I -0.70710678118654724 0.70710678118654791 0.5 forward I I I I #
loop $-1 $-1 $213 $58 #
coedge $-1 $135 $135 $214 $215 reversed $84 $-1 #
face $-1 $216 $217 $46 $-1 $218 reversed single #
loop $-1 $-1 $219 $86 #
plane-surface $-1 -77.7013458662679 -28.961412433137085 3.6573110874718964 -0.55919291073839883 0 0.82903756765294845 0.82903756765294845 0 0.55919291073839883 forward_v I I I I #
coedge $-1 $220 $221 $222 $223 reversed $87 $-1 #
face $-1 $-1 $224 $47 $-1 $225 forward single #
loop $-1 $226 $227 $89 #
cone-surface $-1 -70.206872605535196 -32.193395441117254 1.7074742824142195 0.55919291073839883 0 -0.82903756765294845 0.62177817573971139 0 0.41939468305379912 1 I I -0.70710678118654757 0.70710678118654757 0.75 forward I I I I #
loop $-1 $-1 $228 $60 #
coedge $-1 $144 $144 $229 $230 reversed $90 $-1 #
face $-1 $-1 $231 $48 $-1 $232 forward single #
loop $-1 $233 $234 $92 #
cone-surface $-1 -70.206872605535196 -25.729429425156916 1.7074742824142195 0.55919291073839883 0 -0.82903756765294845 0.62177817573971139 0 0.41939468305379912 1 I I -0.70710678118654757 0.70710678118654757 0.75 forward I I I I #
loop $-1 $-1 $235 $61 #
coedge $-1 $149 $149 $236 $237 reversed $93 $-1 #
face $-1 $238 $239 $49 $-1 $240 reversed single #
loop $-1 $-1 $241 $95 #
plane-surface $-1 -77.7013458662679 10.014229552005055 3.6573110874718964 -0.55919291073839883 0 0.82903756765294845 0.82903756765294845 0 0.55919291073839883 forward_v I I I I #
coedge $-1 $242 $243 $244 $245 reversed $96 $-1 #
face $-1 $-1 $246 $50 $-1 $247 forward single #
loop $-1 $248 $249 $98 #
cone-surface $-1 -70.206872605535196 6.7822465440248862 1.7074742824142195 0.55919291073839883 0 -0.82903756765294845 0.62177817573971139 0 0.41939468305379912 1 I I -0.70710678118654757 0.70710678118654757 0.75 forward I I I I #
loop $-1 $-1 $250 $63 #
coedge $-1 $158 $158 $251 $252 reversed $99 $-1 #
face $-1 $-1 $253 $51 $-1 $254 forward single #
loop $-1 $255 $256 $101 #
cone-surface $-1 -70.206872605535196 13.246212559985224 1.7074742824142195 0.55919291073839883 0 -0.82903756765294845 0.62177817573971139 0 0.41939468305379912 1 I I -0.70710678118654757 0.70710678118654757 0.75 forward I I I I #
loop $-1 $-1 $257 $64 #
coedge $-1 $163 $163 $258 $259 reversed $102 $-1 #
face $-1 $260 $261 $39 $-1 $262 reversed single #
loop $-1 $-1 $263 $104 #
plane-surface $-1 0 -38.97564198514214 0 0 1 0 0 0 1 forward_v I I I I #
coedge $-1 $264 $265 $266 $267 forward $105 $-1 #
coedge $-1 $268 $107 $269 $270 forward $66 $-1 #
coedge $-1 $107 $268 $271 $272 forward $66 $-1 #
coedge $-1 $273 $274 $107 $171 reversed $275 $-1 #
edge $-1 $276 -38.97564198514214 $277 38.97564198514214 $170 $278 forward 7 unknown #
face $-1 $279 $280 $40 $-1 $281 forward single #
loop $-1 $-1 $282 $108 #
plane-surface $-1 77.701348416190797 -14.059873756913269 221.33441658312444 0 1 0 0.70710678939079041 0 0.70710677298230451 forward_v I I I I #
coedge $-1 $283 $284 $285 $286 reversed $109 $-1 #
coedge $-1 $177 $111 $287 $288 reversed $69 $-1 #
coedge $-1 $111 $176 $283 $289 reversed $69 $-1 #
coedge $-1 $285 $290 $111 $179 forward $280 $-1 #
edge $-1 $291 -38.850671658172502 $292 -31.025843516401736 $178 $293 forward 7 unknown #
loop $-1 $-1 $185 $112 #
plane-surface $-1 -32.184949997489326 -7.0299368784566347 111.4481207193672 0.70710678939079041 0 0.70710677298230451 0.70710677298230451 0 -0.70710678939079041 forward_v I I I I #
loop $-1 $-1 $294 $71 #
coedge $-1 $183 $183 $184 $295 reversed $113 $-1 #
coedge $-1 $184 $184 $183 $295 forward $115 $-1 #
coedge $-1 $185 $185 $116 $186 forward $180 $-1 #
edge $-1 $296 0 $296 6.2831853071796004 $185 $297 forward 7 unknown #
loop $-1 $-1 $192 $117 #
plane-surface $-1 -32.184949997489326 -7.0299368784566347 111.4481207193672 0.70710678939079041 0 0.70710677298230451 0.70710677298230451 0 -0.70710678939079041 forward_v I I I I #
loop $-1 $-1 $298 $74 #
coedge $-1 $190 $190 $191 $299 reversed $118 $-1 #
coedge $-1 $191 $191 $190 $299 forward $120 $-1 #
coedge $-1 $192 $192 $121 $193 forward $187 $-1 #
edge $-1 $300 0 $300 6.2831853071796004 $192 $301 forward 7 unknown #
face $-1 $302 $303 $43 $-1 $304 forward single #
loop $-1 $-1 $305 $122 #
plane-surface $-1 77.7013458662679 0 0 -1 0 0 0 0 1 forward_v I I I I #
coedge $-1 $306 $307 $308 $309 reversed $123 $-1 #
coedge $-1 $199 $125 $310 $311 reversed $78 $-1 #
coedge $-1 $125 $198 $312 $313 reversed $78 $-1 #
coedge $-1 $314 $305 $125 $201 forward $195 $-1 #
edge $-1 $315 -109.10538598587512 $316 -101.28055766252841 $200 $317 forward 7 unknown #
loop $-1 $-1 $207 $126 #
plane-surface $-1 -32.184949997489326 -7.0299368784566347 111.4481207193672 0.70710678939079041 0 0.70710677298230451 0.70710677298230451 0 -0.70710678939079041 forward_v I I I I #
loop $-1 $-1 $318 $80 #
coedge $-1 $205 $205 $206 $319 reversed $127 $-1 #
coedge $-1 $206 $206 $205 $319 forward $129 $-1 #
coedge $-1 $207 $207 $130 $208 forward $202 $-1 #
edge $-1 $320 0 $320 6.2831853071796004 $207 $321 forward 7 unknown #
loop $-1 $-1 $214 $131 #
plane-surface $-1 -32.184949997489326 -7.0299368784566347 111.4481207193672 0.70710678939079041 0 0.70710677298230451 0.70710677298230451 0 -0.70710678939079041 forward_v I I I I #
loop $-1 $-1 $322 $83 #
coedge $-1 $212 $212 $213 $323 reversed $132 $-1 #
coedge $-1 $213 $213 $212 $323 forward $134 $-1 #
coedge $-1 $214 $214 $135 $215 forward $209 $-1 #
edge $-1 $324 0 $324 6.2831853071796004 $214 $325 forward 7 unknown #
face $-1 $326 $327 $46 $-1 $328 reversed single #
loop $-1 $-1 $329 $136 #
plane-surface $-1 -164.6014293927667 -21.420118747850022 132.49198064813433 0 -1 0 0.55919291073839883 0 -0.82903756765294845 forward_v I I I I #
coedge $-1 $330 $331 $332 $333 reversed $137 $-1 #
coedge $-1 $221 $139 $334 $335 reversed $87 $-1 #
coedge $-1 $139 $220 $330 $336 reversed $87 $-1 #
coedge $-1 $332 $337 $139 $223 forward $338 $-1 #
edge $-1 $339 4.5993688301154521 $340 13.093463849171243 $222 $341 forward 7 unknown #
loop $-1 $-1 $229 $140 #
plane-surface $-1 -77.7013458662679 -28.961412433137085 3.6573110874718964 -0.55919291073839883 0 0.82903756765294845 0.82903756765294845 0 0.55919291073839883 forward_v I I I I #
loop $-1 $-1 $342 $89 #
coedge $-1 $227 $227 $228 $343 reversed $141 $-1 #
coedge $-1 $228 $228 $227 $343 forward $143 $-1 #
coedge $-1 $229 $229 $144 $230 forward $224 $-1 #
edge $-1 $344 0 $344 6.2831853071796004 $229 $345 forward 7 unknown #
loop $-1 $-1 $236 $145 #
plane-surface $-1 -77.7013458662679 -28.961412433137085 3.6573110874718964 -0.55919291073839883 0 0.82903756765294845 0.82903756765294845 0 0.55919291073839883 forward_v I I I I #
loop $-1 $-1 $346 $92 #
coedge $-1 $234 $234 $235 $347 reversed $146 $-1 #
coedge $-1 $235 $235 $234 $347 forward $148 $-1 #
coedge $-1 $236 $236 $149 $237 forward $231 $-1 #
edge $-1 $348 0 $348 6.2831853071796004 $236 $349 forward 7 unknown #
face $-1 $350 $351 $49 $-1 $352 forward single #
loop $-1 $-1 $353 $150 #
plane-surface $-1 -164.6014293927667 17.555523237292117 132.49198064813433 0 -1 0 0.55919291073839883 0 -0.82903756765294845 forward_v I I I I #
coedge $-1 $354 $355 $356 $357 reversed $151 $-1 #
coedge $-1 $243 $153 $358 $359 reversed $96 $-1 #
coedge $-1 $153 $242 $354 $360 reversed $96 $-1 #
coedge $-1 $356 $361 $153 $245 forward $351 $-1 #
edge $-1 $362 4.5993688301154521 $363 13.093463849171243 $244 $364 forward 7 unknown #
loop $-1 $-1 $251 $154 #
plane-surface $-1 -77.7013458662679 10.014229552005055 3.6573110874718964 -0.55919291073839883 0 0.82903756765294845 0.82903756765294845 0 0.55919291073839883 forward_v I I I I #
loop $-1 $-1 $365 $98 #
coedge $-1 $249 $249 $250 $366 reversed $155 $-1 #
coedge $-1 $250 $250 $249 $366 forward $157 $-1 #
coedge $-1 $251 $251 $158 $252 forward $246 $-1 #
edge $-1 $367 0 $367 6.2831853071796004 $251 $368 forward 7 unknown #
loop $-1 $-1 $258 $159 #
plane-surface $-1 -77.7013458662679 10.014229552005055 3.6573110874718964 -0.55919291073839883 0 0.82903756765294845 0.82903756765294845 0 0.55919291073839883 forward_v I I I I #
loop $-1 $-1 $369 $101 #
coedge $-1 $256 $256 $257 $370 reversed $160 $-1 #
coedge $-1 $257 $257 $256 $370 forward $162 $-1 #
coedge $-1 $258 $258 $163 $259 forward $253 $-1 #
edge $-1 $371 0 $371 6.2831853071796004 $258 $372 forward 7 unknown #
face $-1 $373 $374 $39 $-1 $375 reversed single #
loop $-1 $-1 $376 $164 #
plane-surface $-1 -77.7013458662679 0 0 1 0 0 0 0 -1 forward_v I I I I #
coedge $-1 $377 $271 $378 $379 forward $165 $-1 #
coedge $-1 $380 $167 $377 $381 forward $105 $-1 #
coedge $-1 $167 $380 $382 $383 forward $105 $-1 #
coedge $-1 $274 $273 $167 $267 reversed $275 $-1 #
edge $-1 $384 -38.97564198514214 $385 38.97564198514214 $266 $386 forward 7 unknown #
coedge $-1 $169 $168 $387 $388 forward $66 $-1 #
coedge $-1 $389 $390 $168 $270 reversed $374 $-1 #
edge $-1 $277 -77.7013458662679 $391 77.7013458662679 $269 $392 forward 7 unknown #
coedge $-1 $263 $393 $169 $272 reversed $165 $-1 #
edge $-1 $394 -77.7013458662679 $276 77.7013458662679 $271 $395 forward 7 unknown #
coedge $-1 $266 $170 $393 $396 forward $275 $-1 #
coedge $-1 $170 $266 $389 $397 reversed $275 $-1 #
loop $-1 $-1 $273 $373 #
vertex $-1 $171 $398 #
vertex $-1 $171 $399 #
straight-curve $-1 77.7013458662679 0 9.3866506290338059 0 1 0 I I #
face $-1 $-1 $400 $40 $-1 $401 reversed single #
loop $-1 $-1 $178 $172 #
plane-surface $-1 0 0 9.3866506290338059 0 0 1 1 0 0 forward_v I I I I #
coedge $-1 $402 $403 $404 $405 reversed $173 $-1 #
coedge $-1 $406 $175 $177 $289 forward $109 $-1 #
coedge $-1 $175 $406 $402 $407 forward $109 $-1 #
coedge $-1 $404 $178 $175 $286 forward $280 $-1 #
edge $-1 $292 -3.5149684392283174 $408 10.544905317684952 $285 $409 forward 7 unknown #
coedge $-1 $410 $411 $176 $288 forward $400 $-1 #
edge $-1 $412 -109.10538598587512 $291 -101.28055766252841 $287 $413 forward 7 unknown #
edge $-1 $292 144.33671352281138 $412 155.4026917325358 $177 $414 forward 7 unknown #
coedge $-1 $178 $404 $410 $415 forward $280 $-1 #
vertex $-1 $288 $416 #
vertex $-1 $179 $417 #
straight-curve $-1 38.850674208095398 0 9.3866506290338094 -1 0 0 I I #
coedge $-1 $294 $294 $-1 $418 reversed $182 $-1 #
edge $-1 $419 0 $419 6.2831853071796004 $183 $420 forward 7 unknown #
vertex $-1 $186 $421 #
ellipse-curve $-1 73.78893179538251 -10.042766969223763 5.4742364673604644 0.70710678939079041 0 0.70710677298230451 0.70710677298230451 0 -0.70710678939079041 1 I I #
coedge $-1 $298 $298 $-1 $422 reversed $189 $-1 #
edge $-1 $423 0 $423 6.2831853071796004 $190 $424 forward 7 unknown #
vertex $-1 $193 $425 #
ellipse-curve $-1 73.78893179538251 -4.0171067876895066 5.4742364673604644 0.70710678939079041 0 0.70710677298230451 0.70710677298230451 0 -0.70710678939079041 1 I I #
face $-1 $-1 $426 $43 $-1 $427 forward single #
loop $-1 $-1 $428 $194 #
plane-surface $-1 77.701348416190797 0 221.33441658312444 0 -1 0 -0.70710678939079041 0 -0.70710677298230451 forward_v I I I I #
coedge $-1 $200 $429 $307 $430 forward $195 $-1 #
coedge $-1 $310 $197 $431 $432 reversed $123 $-1 #
coedge $-1 $197 $310 $305 $430 reversed $123 $-1 #
coedge $-1 $433 $428 $197 $309 forward $303 $-1 #
edge $-1 $434 144.33671352281138 $435 155.4026917325358 $308 $436 forward 7 unknown #
coedge $-1 $307 $306 $198 $311 forward $123 $-1 #
edge $-1 $437 144.33671352281138 $315 155.4026917325358 $198 $438 forward 7 unknown #
coedge $-1 $431 $439 $199 $313 forward $426 $-1 #
edge $-1 $316 -38.850671658172502 $437 -31.025843516401736 $312 $440 forward 7 unknown #
coedge $-1 $429 $200 $439 $441 reversed $195 $-1 #
vertex $-1 $201 $442 #
vertex $-1 $201 $443 #
straight-curve $-1 77.7013458662679 14.059873756913266 110.66720829156222 0 0 1 I I #
coedge $-1 $318 $318 $-1 $444 reversed $204 $-1 #
edge $-1 $445 0 $445 6.2831853071796004 $205 $446 forward 7 unknown #
vertex $-1 $208 $447 #
ellipse-curve $-1 73.78893179538251 4.0171067876895066 5.4742364673604644 0.70710678939079041 0 0.70710677298230451 0.70710677298230451 0 -0.70710678939079041 1 I I #
coedge $-1 $322 $322 $-1 $448 reversed $211 $-1 #
edge $-1 $449 0 $449 6.2831853071796004 $212 $450 forward 7 unknown #
vertex $-1 $215 $451 #
ellipse-curve $-1 73.78893179538251 10.042766969223763 5.4742364673604644 0.70710678939079041 0 0.70710677298230451 0.70710677298230451 0 -0.70710678939079041 1 I I #
face $-1 $-1 $338 $46 $-1 $452 forward single #
loop $-1 $-1 $453 $216 #
plane-surface $-1 -77.7013458662679 0 0 1 0 0 0 0 -1 forward_v I I I I #
coedge $-1 $454 $455 $456 $457 reversed $217 $-1 #
coedge $-1 $458 $219 $221 $336 forward $137 $-1 #
coedge $-1 $219 $458 $454 $459 forward $137 $-1 #
coedge $-1 $456 $222 $219 $333 forward $338 $-1 #
edge $-1 $340 -22.021999901855601 $460 -6.9394125312814801 $332 $461 forward 7 unknown #
coedge $-1 $462 $463 $220 $335 forward $327 $-1 #
edge $-1 $464 -62.588679236595269 $339 -56.859339695033356 $334 $465 forward 7 unknown #
edge $-1 $340 -10.245729928865646 $464 0 $221 $466 forward 7 unknown #
coedge $-1 $222 $456 $462 $467 forward $338 $-1 #
loop $-1 $-1 $456 $326 #
vertex $-1 $335 $468 #
vertex $-1 $223 $469 #
straight-curve $-1 -82.300714696383352 -36.502706118424143 9.3866506290338094 1 0 0 I I #
coedge $-1 $342 $342 $-1 $470 reversed $226 $-1 #
edge $-1 $471 0 $471 6.2831853071796004 $227 $472 forward 7 unknown #
vertex $-1 $230 $473 #
ellipse-curve $-1 -73.454298356739983 -32.193395441117254 6.5219808582528618 -0.55919291073839883 0 0.82903756765294845 1.2435563514794228 0 0.83878936610759824 1 I I #
coedge $-1 $346 $346 $-1 $474 reversed $233 $-1 #
edge $-1 $475 0 $475 6.2831853071796004 $234 $476 forward 7 unknown #
vertex $-1 $237 $477 #
ellipse-curve $-1 -73.454298356739983 -25.729429425156916 6.5219808582528618 -0.55919291073839883 0 0.82903756765294845 1.2435563514794228 0 0.83878936610759824 1 I I #
face $-1 $-1 $478 $49 $-1 $479 reversed single #
loop $-1 $-1 $244 $238 #
plane-surface $-1 0 0 9.3866506290338059 0 0 1 1 0 0 forward_v I I I I #
coedge $-1 $480 $481 $482 $483 reversed $239 $-1 #
coedge $-1 $484 $241 $243 $360 forward $151 $-1 #
coedge $-1 $241 $484 $480 $485 forward $151 $-1 #
coedge $-1 $482 $244 $241 $357 forward $351 $-1 #
edge $-1 $363 -2.5341789092845346 $486 12.54840846128959 $356 $487 forward 7 unknown #
coedge $-1 $488 $489 $242 $359 forward $478 $-1 #
edge $-1 $490 -62.588679236595269 $362 -56.859339695033356 $358 $491 forward 7 unknown #
edge $-1 $363 -10.245729928865646 $490 0 $243 $492 forward 7 unknown #
coedge $-1 $244 $482 $488 $493 forward $351 $-1 #
vertex $-1 $245 $494 #
vertex $-1 $245 $495 #
straight-curve $-1 -82.300714696383352 2.472935866717993 9.3866506290338094 1 0 0 I I #
coedge $-1 $365 $365 $-1 $496 reversed $248 $-1 #
edge $-1 $497 0 $497 6.2831853071796004 $249 $498 forward 7 unknown #
vertex $-1 $252 $499 #
ellipse-curve $-1 -73.454298356739983 6.7822465440248862 6.5219808582528618 -0.55919291073839883 0 0.82903756765294845 1.2435563514794228 0 0.83878936610759824 1 I I #
coedge $-1 $369 $369 $-1 $500 reversed $255 $-1 #
edge $-1 $501 0 $501 6.2831853071796004 $256 $502 forward 7 unknown #
vertex $-1 $259 $503 #
ellipse-curve $-1 -73.454298356739983 13.246212559985224 6.5219808582528618 -0.55919291073839883 0 0.82903756765294845 1.2435563514794228 0 0.83878936610759824 1 I I #
face $-1 $-1 $275 $39 $-1 $504 reversed single #
loop $-1 $-1 $389 $260 #
plane-surface $-1 0 38.97564198514214 0 0 -1 0 0 0 -1 forward_v I I I I #
coedge $-1 $505 $387 $390 $506 forward $261 $-1 #
coedge $-1 $393 $263 $264 $381 reversed $165 $-1 #
coedge $-1 $387 $505 $263 $379 reversed $261 $-1 #
edge $-1 $394 -9.3866506290338059 $507 9.3866506290338059 $378 $508 forward 7 unknown #
coedge $-1 $265 $264 $505 $509 forward $105 $-1 #
edge $-1 $385 -77.7013458662679 $507 77.7013458662679 $377 $510 forward 7 unknown #
coedge $-1 $390 $389 $265 $383 reversed $374 $-1 #
edge $-1 $511 -77.7013458662679 $384 77.7013458662679 $382 $512 forward 7 unknown #
vertex $-1 $267 $513 #
vertex $-1 $396 $514 #
straight-curve $-1 77.7013458662679 0 -9.3866506290338059 0 -1 0 I I #
coedge $-1 $376 $378 $268 $388 reversed $261 $-1 #
edge $-1 $391 -38.97564198514214 $394 38.97564198514214 $387 $515 forward 7 unknown #
coedge $-1 $382 $269 $274 $397 forward $374 $-1 #
coedge $-1 $269 $382 $376 $506 reversed $374 $-1 #
vertex $-1 $270 $516 #
straight-curve $-1 0 38.97564198514214 9.3866506290338059 -1 0 0 I I #
coedge $-1 $271 $377 $273 $396 reversed $165 $-1 #
vertex $-1 $388 $517 #
straight-curve $-1 0 -38.97564198514214 9.3866506290338059 1 0 0 I I #
edge $-1 $276 -9.3866506290338059 $385 9.3866506290338059 $273 $518 forward 7 unknown #
edge $-1 $277 -9.3866506290338059 $384 9.3866506290338059 $274 $519 forward 7 unknown #
point $-1 77.7013458662679 -38.97564198514214 9.3866506290338059 #
point $-1 77.7013458662679 38.97564198514214 9.3866506290338059 #
loop $-1 $-1 $287 $279 #
plane-surface $-1 77.7013458662679 0 0 -1 0 0 0 0 1 forward_v I I I I #
coedge $-1 $403 $282 $284 $407 reversed $173 $-1 #
coedge $-1 $282 $402 $520 $521 reversed $173 $-1 #
coedge $-1 $290 $285 $282 $405 forward $280 $-1 #
edge $-1 $408 31.025843516401736 $522 38.850671658172502 $404 $523 forward 7 unknown #
coedge $-1 $284 $283 $411 $524 reversed $109 $-1 #
edge $-1 $525 -155.4026917325358 $408 -144.33671352281138 $402 $526 forward 7 unknown #
vertex $-1 $286 $527 #
straight-curve $-1 69.876517724497134 -3.5149684392283174 9.3866506290337952 0 -1 0 I I #
coedge $-1 $520 $287 $290 $415 reversed $400 $-1 #
coedge $-1 $287 $520 $406 $524 forward $400 $-1 #
vertex $-1 $288 $528 #
straight-curve $-1 77.7013458662679 0 110.66720829156222 0 0 1 I I #
straight-curve $-1 -32.184949997489326 0 111.4481207193672 0.70710677298230451 0 -0.70710678939079041 I I #
edge $-1 $522 -14.059873756913269 $291 0 $410 $529 forward 7 unknown #
point $-1 77.7013458662679 0 9.3866506290338059 #
point $-1 69.876517724497134 0 9.3866506290338094 #
edge $-1 $530 1 $530 0 $294 $-1 forward 7 unknown #
vertex $-1 $295 $531 #
ellipse-curve $-1 72.268955395018097 -10.042766969223763 3.9542601022672548 0.70710678939079041 0 0.70710677298230451 0.70710677298230451 0 -0.70710678939079041 1 I I #
point $-1 74.496038568364796 -10.042766969223763 4.7671296779696553 #
edge $-1 $532 1 $532 0 $298 $-1 forward 7 unknown #
vertex $-1 $299 $533 #
ellipse-curve $-1 72.268955395018097 -4.0171067876895066 3.9542601022672548 0.70710678939079041 0 0.70710677298230451 0.70710677298230451 0 -0.70710678939079041 1 I I #
point $-1 74.496038568364796 -4.0171067876895066 4.7671296779696553 #
loop $-1 $-1 $431 $302 #
plane-surface $-1 0 0 9.3866506290338059 0 0 1 1 0 0 forward_v I I I I #
coedge $-1 $308 $433 $534 $535 reversed $303 $-1 #
coedge $-1 $305 $314 $433 $536 forward $195 $-1 #
edge $-1 $435 3.5149684392283174 $315 17.574842196141581 $305 $537 forward 7 unknown #
coedge $-1 $534 $312 $306 $432 forward $426 $-1 #
edge $-1 $437 -17.574842196141581 $434 -3.5149684392283174 $431 $538 forward 7 unknown #
coedge $-1 $428 $308 $429 $536 reversed $303 $-1 #
vertex $-1 $432 $539 #
vertex $-1 $430 $540 #
straight-curve $-1 -32.184949997489326 0 111.4481207193672 0.70710677298230451 0 -0.70710678939079041 I I #
vertex $-1 $313 $541 #
straight-curve $-1 -32.184949997489326 14.059873756913266 111.4481207193672 0.70710677298230451 0 -0.70710678939079041 I I #
coedge $-1 $312 $534 $314 $441 forward $426 $-1 #
straight-curve $-1 38.850674208095398 14.059873756913266 9.3866506290338094 -1 0 0 I I #
edge $-1 $542 0 $316 14.059873756913266 $314 $543 forward 7 unknown #
point $-1 77.701345866267886 14.059873756913266 1.5618223056871017 #
point $-1 77.7013458662679 14.059873756913266 9.3866506290338059 #
edge $-1 $544 1 $544 0 $318 $-1 forward 7 unknown #
vertex $-1 $319 $545 #
ellipse-curve $-1 72.268955395018097 4.0171067876895066 3.9542601022672548 0.70710678939079041 0 0.70710677298230451 0.70710677298230451 0 -0.70710678939079041 1 I I #
point $-1 74.496038568364796 4.0171067876895066 4.7671296779696553 #
edge $-1 $546 1 $546 0 $322 $-1 forward 7 unknown #
vertex $-1 $323 $547 #
ellipse-curve $-1 72.268955395018097 10.042766969223763 3.9542601022672548 0.70710678939079041 0 0.70710677298230451 0.70710677298230451 0 -0.70710678939079041 1 I I #
point $-1 74.496038568364796 10.042766969223763 4.7671296779696553 #
plane-surface $-1 0 0 9.3866506290338059 0 0 1 1 0 0 forward_v I I I I #
coedge $-1 $463 $462 $455 $548 forward $327 $-1 #
coedge $-1 $455 $329 $331 $459 reversed $217 $-1 #
coedge $-1 $329 $454 $453 $548 reversed $217 $-1 #
coedge $-1 $337 $332 $329 $457 forward $338 $-1 #
edge $-1 $460 -13.093463849171243 $549 -4.5993688301154521 $456 $550 forward 7 unknown #
coedge $-1 $331 $330 $463 $551 reversed $137 $-1 #
edge $-1 $552 0 $460 10.245729928865646 $454 $553 forward 7 unknown #
vertex $-1 $333 $554 #
straight-curve $-1 -69.207250847212109 -14.480706216568542 9.3866506290338041 0 1 0 I I #
coedge $-1 $453 $334 $337 $467 reversed $327 $-1 #
coedge $-1 $334 $453 $458 $551 forward $327 $-1 #
vertex $-1 $335 $555 #
straight-curve $-1 -77.7013458662679 -36.502706118424143 66.245990324067165 0 0 1 I I #
straight-curve $-1 -77.7013458662679 -36.502706118424143 3.6573110874718964 -0.82903756765294845 0 -0.55919291073839883 I I #
edge $-1 $549 21.420118747850022 $339 36.502706118424143 $462 $556 forward 7 unknown #
point $-1 -77.7013458662679 -36.502706118424143 9.3866506290338059 #
point $-1 -69.207250847212109 -36.502706118424143 9.3866506290338059 #
edge $-1 $557 1 $557 0 $342 $-1 forward 7 unknown #
vertex $-1 $343 $558 #
ellipse-curve $-1 -70.626267288588991 -32.193395441117254 2.3292524581539311 -0.55919291073839883 0 0.82903756765294845 1.2435563514794228 0 0.83878936610759824 1 I I #
point $-1 -72.210742005260542 -32.193395441117254 7.3607702243604312 #
edge $-1 $559 1 $559 0 $346 $-1 forward 7 unknown #
vertex $-1 $347 $560 #
ellipse-curve $-1 -70.626267288588991 -25.729429425156916 2.3292524581539311 -0.55919291073839883 0 0.82903756765294845 1.2435563514794228 0 0.83878936610759824 1 I I #
point $-1 -72.210742005260542 -25.729429425156916 7.3607702243604312 #
loop $-1 $-1 $358 $350 #
plane-surface $-1 -77.7013458662679 0 0 1 0 0 0 0 -1 forward_v I I I I #
coedge $-1 $481 $353 $355 $485 reversed $239 $-1 #
coedge $-1 $353 $480 $561 $562 reversed $239 $-1 #
coedge $-1 $361 $356 $353 $483 forward $351 $-1 #
edge $-1 $486 -13.093463849171243 $563 -4.5993688301154521 $482 $564 forward 7 unknown #
coedge $-1 $355 $354 $489 $565 reversed $151 $-1 #
edge $-1 $566 0 $486 10.245729928865646 $480 $567 forward 7 unknown #
vertex $-1 $357 $568 #
straight-curve $-1 -69.207250847212109 5.0071147760025276 9.3866506290338041 0 1 0 I I #
coedge $-1 $561 $358 $361 $493 reversed $478 $-1 #
coedge $-1 $358 $561 $484 $565 forward $478 $-1 #
vertex $-1 $359 $569 #
straight-curve $-1 -77.7013458662679 2.472935866717993 66.245990324067165 0 0 1 I I #
straight-curve $-1 -77.7013458662679 2.472935866717993 3.6573110874718964 -0.82903756765294845 0 -0.55919291073839883 I I #
edge $-1 $563 -17.555523237292117 $362 -2.472935866717993 $488 $570 forward 7 unknown #
point $-1 -77.7013458662679 2.472935866717993 9.3866506290338059 #
point $-1 -69.207250847212109 2.472935866717993 9.3866506290338059 #
edge $-1 $571 1 $571 0 $365 $-1 forward 7 unknown #
vertex $-1 $366 $572 #
ellipse-curve $-1 -70.626267288588991 6.7822465440248862 2.3292524581539311 -0.55919291073839883 0 0.82903756765294845 1.2435563514794228 0 0.83878936610759824 1 I I #
point $-1 -72.210742005260542 6.7822465440248862 7.3607702243604312 #
edge $-1 $573 1 $573 0 $369 $-1 forward 7 unknown #
vertex $-1 $370 $574 #
ellipse-curve $-1 -70.626267288588991 13.246212559985224 2.3292524581539311 -0.55919291073839883 0 0.82903756765294845 1.2435563514794228 0 0.83878936610759824 1 I I #
point $-1 -72.210742005260542 13.246212559985224 7.3607702243604312 #
plane-surface $-1 77.7013458662679 0 0 -1 0 0 0 0 1 forward_v I I I I #
coedge $-1 $378 $376 $380 $509 reversed $261 $-1 #
edge $-1 $391 -9.3866506290338059 $511 9.3866506290338059 $390 $575 forward 7 unknown #
vertex $-1 $509 $576 #
straight-curve $-1 -77.7013458662679 -38.97564198514214 0 0 0 -1 I I #
edge $-1 $507 -38.97564198514214 $511 38.97564198514214 $505 $577 forward 7 unknown #
straight-curve $-1 0 -38.97564198514214 -9.3866506290338059 -1 0 0 I I #
vertex $-1 $383 $578 #
straight-curve $-1 0 38.97564198514214 -9.3866506290338059 1 0 0 I I #
point $-1 77.7013458662679 38.97564198514214 -9.3866506290338059 #
point $-1 77.7013458662679 -38.97564198514214 -9.3866506290338059 #
straight-curve $-1 -77.7013458662679 0 9.3866506290338059 0 -1 0 I I #
point $-1 -77.7013458662679 38.97564198514214 9.3866506290338059 #
point $-1 -77.7013458662679 -38.97564198514214 9.3866506290338059 #
straight-curve $-1 77.7013458662679 -38.97564198514214 0 0 0 -1 I I #
straight-curve $-1 77.7013458662679 38.97564198514214 0 0 0 -1 I I #
coedge $-1 $411 $410 $403 $521 forward $400 $-1 #
edge $-1 $522 101.28055766252841 $525 109.10538598587512 $520 $579 forward 7 unknown #
vertex $-1 $415 $580 #
straight-curve $-1 38.850674208095398 -14.059873756913269 9.3866506290338094 1 0 0 I I #
edge $-1 $525 -10.544905317684952 $412 3.5149684392283174 $411 $581 forward 7 unknown #
vertex $-1 $524 $582 #
straight-curve $-1 -32.184949997489326 -14.059873756913269 111.4481207193672 -0.70710677298230451 0 0.70710678939079041 I I #
point $-1 69.876517724497134 -14.059873756913269 9.3866506290338094 #
point $-1 77.701345866267886 0 1.5618223056871017 #
straight-curve $-1 77.7013458662679 0 9.3866506290338059 0 1 0 I I #
vertex $-1 $418 $583 #
point $-1 72.976062168000396 -10.042766969223763 3.2471533128764642 #
vertex $-1 $422 $584 #
point $-1 72.976062168000396 -4.0171067876895066 3.2471533128764642 #
coedge $-1 $439 $431 $428 $535 forward $426 $-1 #
edge $-1 $434 31.025843516401736 $542 38.850671658172502 $534 $585 forward 7 unknown #
edge $-1 $542 101.28055766252841 $435 109.10538598587512 $429 $586 forward 7 unknown #
straight-curve $-1 77.7013458662679 -3.5149684392283174 1.5618223056870875 0 1 0 I I #
straight-curve $-1 69.876517724497134 -3.5149684392283174 9.3866506290337952 0 -1 0 I I #
point $-1 69.876517724497134 0 9.3866506290338094 #
point $-1 77.701345866267886 0 1.5618223056871017 #
point $-1 69.876517724497134 14.059873756913266 9.3866506290338094 #
vertex $-1 $441 $587 #
straight-curve $-1 77.7013458662679 0 9.3866506290338059 0 1 0 I I #
vertex $-1 $444 $588 #
point $-1 72.976062168000396 4.0171067876895066 3.2471533128764642 #
vertex $-1 $448 $589 #
point $-1 72.976062168000396 10.042766969223763 3.2471533128764642 #
edge $-1 $549 56.859339695033356 $552 62.588679236595269 $453 $590 forward 7 unknown #
vertex $-1 $467 $591 #
straight-curve $-1 -82.300714696383352 -21.420118747850022 9.3866506290338094 -1 0 0 I I #
edge $-1 $552 6.9394125312814801 $464 22.021999901855601 $463 $592 forward 7 unknown #
vertex $-1 $551 $593 #
straight-curve $-1 -77.7013458662679 -21.420118747850022 3.6573110874718964 0.82903756765294845 0 0.55919291073839883 I I #
point $-1 -69.207250847212109 -21.420118747850022 9.3866506290338059 #
point $-1 -77.7013458662679 -36.502706118424143 3.6573110874718964 #
straight-curve $-1 -77.7013458662679 0 9.3866506290338059 0 -1 0 I I #
vertex $-1 $470 $594 #
point $-1 -69.382710937109579 -32.193395441117254 3.1680418242615289 #
vertex $-1 $474 $595 #
point $-1 -69.382710937109579 -25.729429425156916 3.1680418242615289 #
coedge $-1 $489 $488 $481 $562 forward $478 $-1 #
edge $-1 $563 56.859339695033356 $566 62.588679236595269 $561 $596 forward 7 unknown #
vertex $-1 $493 $597 #
straight-curve $-1 -82.300714696383352 17.555523237292117 9.3866506290338094 -1 0 0 I I #
edge $-1 $566 -12.54840846128959 $490 2.5341789092845346 $489 $598 forward 7 unknown #
vertex $-1 $565 $599 #
straight-curve $-1 -77.7013458662679 17.555523237292117 3.6573110874718964 0.82903756765294845 0 0.55919291073839883 I I #
point $-1 -69.207250847212109 17.555523237292117 9.3866506290338059 #
point $-1 -77.7013458662679 2.472935866717993 3.6573110874718964 #
straight-curve $-1 -77.7013458662679 0 9.3866506290338059 0 -1 0 I I #
vertex $-1 $496 $600 #
point $-1 -69.382710937109579 6.7822465440248862 3.1680418242615289 #
vertex $-1 $500 $601 #
point $-1 -69.382710937109579 13.246212559985224 3.1680418242615289 #
straight-curve $-1 -77.7013458662679 38.97564198514214 0 0 0 -1 I I #
point $-1 -77.7013458662679 -38.97564198514214 -9.3866506290338059 #
straight-curve $-1 -77.7013458662679 0 -9.3866506290338059 0 1 0 I I #
point $-1 -77.7013458662679 38.97564198514214 -9.3866506290338059 #
straight-curve $-1 77.7013458662679 -14.059873756913269 110.66720829156222 0 0 -1 I I #
point $-1 77.7013458662679 -14.059873756913269 9.3866506290338059 #
straight-curve $-1 77.7013458662679 -3.5149684392283174 1.5618223056870875 0 1 0 I I #
point $-1 77.701345866267886 -14.059873756913269 1.5618223056871017 #
point $-1 71.561848605627304 -10.042766969223763 3.2471533292849495 #
point $-1 71.561848605627304 -4.0171067876895066 3.2471533292849495 #
straight-curve $-1 38.850674208095398 0 9.3866506290338094 1 0 0 I I #
straight-curve $-1 77.7013458662679 0 110.66720829156222 0 0 -1 I I #
point $-1 77.7013458662679 0 9.3866506290338059 #
point $-1 71.561848605627304 4.0171067876895066 3.2471533292849495 #
point $-1 71.561848605627304 10.042766969223763 3.2471533292849495 #
straight-curve $-1 -77.7013458662679 -21.420118747850022 66.245990324067165 0 0 -1 I I #
point $-1 -77.7013458662679 -21.420118747850022 9.3866506290338059 #
straight-curve $-1 -77.7013458662679 -14.480706216568542 3.6573110874718919 0 -1 0 I I #
point $-1 -77.7013458662679 -21.420118747850022 3.6573110874718964 #
point $-1 -69.787477922481401 -32.193395441117254 1.0856961066745081 #
point $-1 -69.787477922481401 -25.729429425156916 1.0856961066745081 #
straight-curve $-1 -77.7013458662679 17.555523237292117 66.245990324067165 0 0 -1 I I #
point $-1 -77.7013458662679 17.555523237292117 9.3866506290338059 #
straight-curve $-1 -77.7013458662679 5.0071147760025276 3.6573110874718919 0 -1 0 I I #
point $-1 -77.7013458662679 17.555523237292117 3.6573110874718964 #
point $-1 -69.787477922481401 6.7822465440248862 1.0856961066745081 #
point $-1 -69.787477922481401 13.246212559985224 1.0856961066745081 #
End-of-ACIS-data 