500 0 7 0           
7 Unknown 11 ACIS 5.0 NT 24 Thu Mar 25 20:18:20 1999 
-1 9.9999999999999995e-007 1e-010 
body $-1 $7 $-1 $8 #
body $-1 $9 $-1 $10 #
body $-1 $11 $-1 $12 #
body $-1 $13 $-1 $14 #
body $-1 $15 $-1 $16 #
body $-1 $17 $-1 $18 #
body $-1 $19 $-1 $20 #
lump $-1 $-1 $21 $0 #
transform $-1 1 0 0 0 1 0 0 0 1 68.061159092989897 29.731345955056291 6.6727894310763718 1 rotate no_reflect no_shear #
lump $-1 $-1 $22 $1 #
transform $-1 1 0 0 0 1 0 0 0 1 68.061159092989897 29.731345955056291 6.6727894310763718 1 rotate no_reflect no_shear #
lump $-1 $-1 $23 $2 #
transform $-1 1 0 0 0 1 0 0 0 1 68.061159092989897 29.731345955056291 6.6727894310763718 1 rotate no_reflect no_shear #
lump $-1 $-1 $24 $3 #
transform $-1 1 0 0 0 1 0 0 0 1 68.061159092989897 29.731345955056291 6.6727894310763718 1 rotate no_reflect no_shear #
lump $-1 $-1 $25 $4 #
transform $-1 1 0 0 0 1 0 0 0 1 68.061159092989897 29.731345955056291 6.6727894310763718 1 rotate no_reflect no_shear #
lump $-1 $-1 $26 $5 #
transform $-1 1 0 0 0 1 0 0 0 1 68.061159092989897 29.731345955056291 6.6727894310763718 1 rotate no_reflect no_shear #
lump $-1 $-1 $27 $6 #
transform $-1 1 0 0 0 1 0 0 0 1 68.061159092989897 29.731345955056291 6.6727894310763718 1 rotate no_reflect no_shear #
shell $-1 $-1 $-1 $28 $-1 $7 #
shell $-1 $-1 $-1 $29 $-1 $9 #
shell $-1 $-1 $-1 $30 $-1 $11 #
shell $-1 $-1 $-1 $31 $-1 $13 #
shell $-1 $-1 $-1 $32 $-1 $15 #
shell $-1 $-1 $-1 $33 $-1 $17 #
shell $-1 $-1 $-1 $34 $-1 $19 #
face $-1 $35 $36 $21 $-1 $37 forward single #
face $-1 $38 $39 $22 $-1 $40 reversed single #
face $-1 $41 $42 $23 $-1 $43 reversed single #
face $-1 $44 $45 $24 $-1 $46 reversed single #
face $-1 $47 $48 $25 $-1 $49 forward single #
face $-1 $50 $51 $26 $-1 $52 reversed single #
face $-1 $53 $54 $27 $-1 $55 forward single #
face $-1 $56 $57 $21 $-1 $58 reversed single #
loop $-1 $-1 $59 $28 #
plane-surface $-1 0 0 6.6727894310763718 0 0 1 1 0 0 forward_v I I I I #
face $-1 $60 $61 $22 $-1 $62 reversed single #
loop $-1 $-1 $63 $29 #
plane-surface $-1 0 -27.155209771799022 3.6727894310763718 0 0 1 1 0 0 forward_v I I I I #
face $-1 $64 $65 $23 $-1 $66 reversed single #
loop $-1 $-1 $67 $30 #
plane-surface $-1 0 27.155209771799022 3.6727894310763718 0 0 1 1 0 0 forward_v I I I I #
face $-1 $68 $69 $24 $-1 $70 reversed single #
loop $-1 $-1 $71 $31 #
plane-surface $-1 21.489737251970666 19.932231504389325 187.56970342780269 0 -1 0 -0.51503808176128008 0 -0.85716729658548041 forward_v I I I I #
face $-1 $72 $73 $25 $-1 $74 forward single #
loop $-1 $75 $76 $32 #
cone-surface $-1 62.662808359860982 16.18274423183162 2.9013268760392696 -0.51503808176128008 0 -0.85716729658548041 0.4285836482927402 0 -0.25751904088064004 1 I I 0 1 0.5 forward I I I I #
face $-1 $77 $78 $26 $-1 $79 reversed single #
loop $-1 $-1 $80 $33 #
plane-surface $-1 -138.16933673639554 12.433256959273901 117.46152578439707 0 1 0 -0.51503808176128008 0 0.85716729658548041 forward_v I I I I #
face $-1 $81 $82 $27 $-1 $83 forward single #
loop $-1 $84 $85 $34 #
cone-surface $-1 -62.662808359860982 16.18274423183162 2.9013268760392643 0.51503808176128008 0 -0.85716729658548041 0.4285836482927402 0 0.25751904088064004 1 I I 0 1 0.5 forward I I I I #
face $-1 $86 $87 $21 $-1 $88 reversed single #
loop $-1 $-1 $89 $35 #
plane-surface $-1 0 0 -6.6727894310763718 0 0 1 1 0 0 forward_v I I I I #
coedge $-1 $90 $91 $92 $93 forward $36 $-1 #
face $-1 $94 $95 $22 $-1 $96 reversed single #
loop $-1 $-1 $97 $38 #
plane-surface $-1 0 -24.579073588541753 5.1727894310763718 0 -1 0 0 0 -1 forward_v I I I I #
coedge $-1 $98 $99 $100 $101 reversed $39 $-1 #
face $-1 $102 $103 $23 $-1 $104 forward single #
loop $-1 $-1 $105 $41 #
plane-surface $-1 0 24.579073588541753 5.1727894310763718 0 1 0 0 0 1 forward_v I I I I #
coedge $-1 $106 $107 $108 $109 reversed $42 $-1 #
face $-1 $110 $111 $24 $-1 $112 reversed single #
loop $-1 $-1 $113 $44 #
plane-surface $-1 -48.618440391434973 16.182744231831613 70.890103943377824 0.51503808176128008 0 0.85716729658548041 0.85716729658548041 0 -0.51503808176128008 forward_v I I I I #
coedge $-1 $114 $115 $116 $117 reversed $45 $-1 #
face $-1 $-1 $118 $25 $-1 $119 forward single #
loop $-1 $120 $121 $47 #
cone-surface $-1 62.037719338756716 16.18274423183162 1.8610040624078819 -0.51503808176128008 0 -0.85716729658548041 0.2142918241463701 0 -0.12875952044032002 1 I I -0.70710678118654746 0.70710678118654746 0.25 forward I I I I #
loop $-1 $-1 $122 $32 #
coedge $-1 $76 $76 $123 $124 reversed $48 $-1 #
face $-1 $125 $126 $26 $-1 $127 reversed single #
loop $-1 $-1 $128 $50 #
plane-surface $-1 -68.061159092989897 16.182744231831613 0.78192629997219854 -0.51503808176128008 0 0.85716729658548041 0.85716729658548041 0 0.51503808176128008 forward_v I I I I #
coedge $-1 $129 $130 $131 $132 reversed $51 $-1 #
face $-1 $-1 $133 $27 $-1 $134 forward single #
loop $-1 $135 $136 $53 #
cone-surface $-1 -62.037719338756716 16.18274423183162 1.8610040624078765 0.51503808176128008 0 -0.85716729658548041 0.2142918241463701 0 0.12875952044032002 1 I I -0.70710678118654746 0.70710678118654746 0.25 forward I I I I #
loop $-1 $-1 $137 $34 #
coedge $-1 $85 $85 $138 $139 reversed $54 $-1 #
face $-1 $140 $141 $21 $-1 $142 reversed single #
loop $-1 $-1 $143 $56 #
plane-surface $-1 0 -29.731345955056291 0 0 1 0 0 0 1 forward_v I I I I #
coedge $-1 $144 $145 $146 $147 forward $57 $-1 #
coedge $-1 $148 $59 $149 $150 forward $36 $-1 #
coedge $-1 $59 $148 $151 $152 forward $36 $-1 #
coedge $-1 $153 $154 $59 $93 reversed $155 $-1 #
edge $-1 $156 -29.731345955056291 $157 29.731345955056291 $92 $158 forward 7 unknown #
face $-1 $159 $160 $22 $-1 $161 reversed single #
loop $-1 $-1 $162 $60 #
plane-surface $-1 -68.061159092989897 0 0 1 0 0 0 0 -1 forward_v I I I I #
coedge $-1 $163 $164 $165 $166 reversed $61 $-1 #
coedge $-1 $167 $63 $168 $169 reversed $39 $-1 #
coedge $-1 $63 $167 $163 $170 forward $39 $-1 #
coedge $-1 $165 $171 $63 $101 forward $172 $-1 #
edge $-1 $173 -16.15374106915678 $174 -11.001468702642242 $100 $175 forward 7 unknown #
face $-1 $176 $177 $23 $-1 $178 reversed single #
loop $-1 $-1 $179 $64 #
plane-surface $-1 0 0 6.6727894310763718 0 0 1 1 0 0 forward_v I I I I #
coedge $-1 $180 $181 $182 $183 reversed $65 $-1 #
coedge $-1 $184 $67 $180 $185 forward $42 $-1 #
coedge $-1 $67 $184 $186 $187 reversed $42 $-1 #
coedge $-1 $188 $189 $67 $109 forward $177 $-1 #
edge $-1 $190 11.001468702642242 $191 16.15374106915678 $108 $192 forward 7 unknown #
face $-1 $193 $194 $24 $-1 $195 forward single #
loop $-1 $-1 $196 $68 #
plane-surface $-1 21.489737251970666 12.433256959273901 187.56970342780269 0 1 0 0.51503808176128008 0 0.85716729658548041 forward_v I I I I #
coedge $-1 $197 $198 $199 $200 reversed $69 $-1 #
coedge $-1 $115 $71 $201 $202 reversed $45 $-1 #
coedge $-1 $71 $114 $197 $203 reversed $45 $-1 #
coedge $-1 $199 $204 $71 $117 forward $194 $-1 #
edge $-1 $205 -57.316290467004563 $206 -47.512248002074614 $116 $207 forward 7 unknown #
loop $-1 $-1 $123 $72 #
plane-surface $-1 -48.618440391434973 16.182744231831613 70.890103943377824 0.51503808176128008 0 0.85716729658548041 0.85716729658548041 0 -0.51503808176128008 forward_v I I I I #
loop $-1 $-1 $208 $47 #
coedge $-1 $121 $121 $122 $209 reversed $73 $-1 #
coedge $-1 $122 $122 $121 $209 forward $75 $-1 #
coedge $-1 $123 $123 $76 $124 forward $118 $-1 #
edge $-1 $210 0 $210 6.2831853071796004 $123 $211 forward 7 unknown #
face $-1 $212 $213 $26 $-1 $214 reversed single #
loop $-1 $-1 $215 $77 #
plane-surface $-1 -138.16933673639554 19.932231504389325 117.46152578439707 0 -1 0 0.51503808176128008 0 -0.85716729658548041 forward_v I I I I #
coedge $-1 $216 $217 $218 $219 reversed $78 $-1 #
coedge $-1 $130 $80 $220 $221 reversed $51 $-1 #
coedge $-1 $80 $129 $216 $222 reversed $51 $-1 #
coedge $-1 $218 $223 $80 $132 forward $224 $-1 #
edge $-1 $225 1.0235092752078714 $226 10.8275517401378 $131 $227 forward 7 unknown #
loop $-1 $-1 $138 $81 #
plane-surface $-1 -68.061159092989897 16.182744231831613 0.78192629997219854 -0.51503808176128008 0 0.85716729658548041 0.85716729658548041 0 0.51503808176128008 forward_v I I I I #
loop $-1 $-1 $228 $53 #
coedge $-1 $136 $136 $137 $229 reversed $82 $-1 #
coedge $-1 $137 $137 $136 $229 forward $84 $-1 #
coedge $-1 $138 $138 $85 $139 forward $133 $-1 #
edge $-1 $230 0 $230 6.2831853071796004 $138 $231 forward 7 unknown #
face $-1 $232 $233 $21 $-1 $234 reversed single #
loop $-1 $-1 $235 $86 #
plane-surface $-1 -68.061159092989897 0 0 1 0 0 0 0 -1 forward_v I I I I #
coedge $-1 $236 $151 $237 $238 forward $87 $-1 #
coedge $-1 $239 $89 $236 $240 forward $57 $-1 #
coedge $-1 $89 $239 $241 $242 forward $57 $-1 #
coedge $-1 $154 $153 $89 $147 reversed $155 $-1 #
edge $-1 $243 -29.731345955056291 $244 29.731345955056291 $146 $245 forward 7 unknown #
coedge $-1 $91 $90 $246 $247 forward $36 $-1 #
coedge $-1 $248 $249 $90 $150 reversed $233 $-1 #
edge $-1 $157 -68.061159092989897 $250 68.061159092989897 $149 $251 forward 7 unknown #
coedge $-1 $143 $252 $91 $152 reversed $87 $-1 #
edge $-1 $253 -68.061159092989897 $156 68.061159092989897 $151 $254 forward 7 unknown #
coedge $-1 $146 $92 $252 $255 forward $155 $-1 #
coedge $-1 $92 $146 $248 $256 reversed $155 $-1 #
loop $-1 $-1 $153 $232 #
vertex $-1 $93 $257 #
vertex $-1 $93 $258 #
straight-curve $-1 68.061159092989897 0 6.6727894310763718 0 1 0 I I #
face $-1 $259 $260 $22 $-1 $261 forward single #
loop $-1 $-1 $168 $94 #
plane-surface $-1 0 -29.731345955056291 0 0 1 0 0 0 1 forward_v I I I I #
coedge $-1 $262 $263 $264 $265 forward $95 $-1 #
coedge $-1 $264 $97 $99 $170 reversed $61 $-1 #
coedge $-1 $97 $264 $266 $267 reversed $61 $-1 #
coedge $-1 $268 $100 $97 $166 forward $172 $-1 #
edge $-1 $174 1.0863947155381859 $269 4.0863947155381855 $165 $270 forward 7 unknown #
coedge $-1 $99 $98 $262 $271 reversed $39 $-1 #
coedge $-1 $272 $273 $98 $169 forward $160 $-1 #
edge $-1 $274 -68.061159092989897 $173 68.061159092989897 $168 $275 forward 7 unknown #
edge $-1 $276 -68.061159092989897 $174 68.061159092989897 $163 $277 forward 7 unknown #
coedge $-1 $100 $268 $272 $278 forward $172 $-1 #
loop $-1 $-1 $165 $259 #
vertex $-1 $169 $279 #
vertex $-1 $101 $280 #
straight-curve $-1 68.061159092989897 -13.577604885899511 3.6727894310763718 0 1 0 I I #
face $-1 $281 $282 $23 $-1 $283 reversed single #
loop $-1 $-1 $189 $102 #
plane-surface $-1 68.061159092989897 0 0 -1 0 0 0 0 1 forward_v I I I I #
coedge $-1 $284 $285 $181 $286 forward $103 $-1 #
coedge $-1 $287 $105 $106 $185 reversed $65 $-1 #
coedge $-1 $105 $287 $179 $286 reversed $65 $-1 #
coedge $-1 $288 $289 $105 $183 forward $282 $-1 #
edge $-1 $290 1.0863947155381859 $291 4.0863947155381855 $182 $292 forward 7 unknown #
coedge $-1 $107 $106 $289 $293 reversed $42 $-1 #
edge $-1 $190 -68.061159092989897 $290 68.061159092989897 $180 $294 forward 7 unknown #
coedge $-1 $295 $296 $107 $187 forward $297 $-1 #
edge $-1 $191 -68.061159092989897 $298 68.061159092989897 $186 $299 forward 7 unknown #
coedge $-1 $300 $108 $296 $301 reversed $177 $-1 #
coedge $-1 $108 $300 $287 $302 forward $177 $-1 #
vertex $-1 $109 $303 #
vertex $-1 $187 $304 #
straight-curve $-1 68.061159092989897 13.577604885899511 3.6727894310763718 0 1 0 I I #
face $-1 $-1 $305 $24 $-1 $306 reversed single #
loop $-1 $-1 $116 $110 #
plane-surface $-1 0 0 6.6727894310763718 0 0 1 1 0 0 forward_v I I I I #
coedge $-1 $307 $308 $309 $310 reversed $111 $-1 #
coedge $-1 $311 $113 $115 $203 forward $69 $-1 #
coedge $-1 $113 $311 $307 $312 forward $69 $-1 #
coedge $-1 $309 $116 $113 $200 forward $194 $-1 #
edge $-1 $206 -11.840859388473518 $313 -4.3418848433580948 $199 $314 forward 7 unknown #
coedge $-1 $315 $316 $114 $202 forward $305 $-1 #
edge $-1 $317 -93.002925413929162 $205 -87.112062282824979 $201 $318 forward 7 unknown #
edge $-1 $206 124.68459476374439 $317 136.12231818597979 $115 $319 forward 7 unknown #
coedge $-1 $116 $309 $315 $320 forward $194 $-1 #
vertex $-1 $202 $321 #
vertex $-1 $117 $322 #
straight-curve $-1 10.744868625985333 19.932231504389325 6.6727894310763674 -1 0 0 I I #
coedge $-1 $208 $208 $-1 $323 reversed $120 $-1 #
edge $-1 $324 0 $324 6.2831853071796004 $121 $325 forward 7 unknown #
vertex $-1 $124 $326 #
ellipse-curve $-1 63.159137860524922 16.18274423183162 3.7273578655242821 0.51503808176128008 0 0.85716729658548041 0.4285836482927402 0 -0.25751904088064004 1 I I #
face $-1 $-1 $224 $26 $-1 $327 forward single #
loop $-1 $-1 $328 $125 #
plane-surface $-1 -68.061159092989897 0 0 1 0 0 0 0 -1 forward_v I I I I #
coedge $-1 $329 $330 $331 $332 reversed $126 $-1 #
coedge $-1 $333 $128 $130 $222 forward $78 $-1 #
coedge $-1 $128 $333 $329 $334 forward $78 $-1 #
coedge $-1 $331 $131 $128 $219 forward $224 $-1 #
edge $-1 $226 4.3418848433580948 $335 11.840859388473518 $218 $336 forward 7 unknown #
coedge $-1 $337 $338 $129 $221 forward $213 $-1 #
edge $-1 $339 -57.948836592226336 $225 -52.05797346112216 $220 $340 forward 7 unknown #
edge $-1 $226 -11.437723422235377 $339 0 $130 $341 forward 7 unknown #
coedge $-1 $131 $331 $337 $342 forward $224 $-1 #
loop $-1 $-1 $331 $212 #
vertex $-1 $221 $343 #
vertex $-1 $132 $344 #
straight-curve $-1 -69.084668368197768 12.433256959273901 6.6727894310763745 1 0 0 I I #
coedge $-1 $228 $228 $-1 $345 reversed $135 $-1 #
edge $-1 $346 0 $346 6.2831853071796004 $136 $347 forward 7 unknown #
vertex $-1 $139 $348 #
ellipse-curve $-1 -63.159137860524929 16.18274423183162 3.7273578655242865 -0.51503808176128008 0 0.85716729658548041 0.4285836482927402 0 0.25751904088064004 1 I I #
face $-1 $-1 $155 $21 $-1 $349 reversed single #
loop $-1 $-1 $248 $140 #
plane-surface $-1 0 29.731345955056291 0 0 -1 0 0 0 -1 forward_v I I I I #
coedge $-1 $350 $246 $249 $351 forward $141 $-1 #
coedge $-1 $252 $143 $144 $240 reversed $87 $-1 #
coedge $-1 $246 $350 $143 $238 reversed $141 $-1 #
edge $-1 $253 -6.6727894310763718 $352 6.6727894310763718 $237 $353 forward 7 unknown #
coedge $-1 $145 $144 $350 $354 forward $57 $-1 #
edge $-1 $244 -68.061159092989897 $352 68.061159092989897 $236 $355 forward 7 unknown #
coedge $-1 $249 $248 $145 $242 reversed $233 $-1 #
edge $-1 $356 -68.061159092989897 $243 68.061159092989897 $241 $357 forward 7 unknown #
vertex $-1 $147 $358 #
vertex $-1 $255 $359 #
straight-curve $-1 68.061159092989897 0 -6.6727894310763718 0 -1 0 I I #
coedge $-1 $235 $237 $148 $247 reversed $141 $-1 #
edge $-1 $250 -29.731345955056291 $253 29.731345955056291 $246 $360 forward 7 unknown #
coedge $-1 $241 $149 $154 $256 forward $233 $-1 #
coedge $-1 $149 $241 $235 $351 reversed $233 $-1 #
vertex $-1 $150 $361 #
straight-curve $-1 0 29.731345955056291 6.6727894310763718 -1 0 0 I I #
coedge $-1 $151 $236 $153 $255 reversed $87 $-1 #
vertex $-1 $247 $362 #
straight-curve $-1 0 -29.731345955056291 6.6727894310763718 1 0 0 I I #
edge $-1 $156 -6.6727894310763718 $244 6.6727894310763718 $153 $363 forward 7 unknown #
edge $-1 $157 -6.6727894310763718 $243 6.6727894310763718 $154 $364 forward 7 unknown #
point $-1 68.061159092989897 -29.731345955056291 6.6727894310763718 #
point $-1 68.061159092989897 29.731345955056291 6.6727894310763718 #
face $-1 $-1 $172 $22 $-1 $365 reversed single #
loop $-1 $-1 $266 $159 #
plane-surface $-1 0 0 6.6727894310763718 0 0 1 1 0 0 forward_v I I I I #
coedge $-1 $366 $162 $167 $271 forward $95 $-1 #
coedge $-1 $162 $366 $367 $368 reversed $95 $-1 #
coedge $-1 $164 $163 $162 $265 reversed $61 $-1 #
edge $-1 $369 -4.0863947155381855 $276 -1.0863947155381859 $162 $370 forward 7 unknown #
coedge $-1 $367 $371 $164 $267 forward $260 $-1 #
edge $-1 $269 -68.061159092989897 $369 68.061159092989897 $266 $372 forward 7 unknown #
coedge $-1 $171 $165 $371 $373 reversed $172 $-1 #
vertex $-1 $166 $374 #
straight-curve $-1 68.061159092989897 -24.579073588541753 2.5863947155381859 0 0 1 I I #
edge $-1 $276 11.001468702642242 $274 16.15374106915678 $262 $375 forward 7 unknown #
coedge $-1 $376 $168 $171 $278 reversed $160 $-1 #
coedge $-1 $168 $376 $366 $377 forward $160 $-1 #
vertex $-1 $169 $378 #
straight-curve $-1 0 -29.731345955056291 3.6727894310763718 1 0 0 I I #
vertex $-1 $271 $379 #
straight-curve $-1 0 -24.579073588541753 3.6727894310763718 1 0 0 I I #
edge $-1 $380 -6.6727894310763718 $173 -3.6727894310763718 $171 $381 forward 7 unknown #
point $-1 68.061159092989897 -29.731345955056291 3.6727894310763718 #
point $-1 68.061159092989897 -24.579073588541753 3.6727894310763718 #
face $-1 $-1 $297 $23 $-1 $382 reversed single #
loop $-1 $-1 $182 $176 #
plane-surface $-1 -68.061159092989897 0 0 1 0 0 0 0 -1 forward_v I I I I #
coedge $-1 $383 $179 $300 $384 forward $103 $-1 #
coedge $-1 $179 $383 $288 $385 forward $103 $-1 #
edge $-1 $291 -68.061159092989897 $386 68.061159092989897 $179 $387 forward 7 unknown #
coedge $-1 $181 $180 $189 $302 reversed $65 $-1 #
coedge $-1 $388 $182 $285 $385 reversed $282 $-1 #
coedge $-1 $182 $388 $184 $293 forward $282 $-1 #
vertex $-1 $293 $389 #
vertex $-1 $183 $390 #
straight-curve $-1 -68.061159092989897 24.579073588541753 2.5863947155381859 0 0 1 I I #
edge $-1 $298 -16.15374106915678 $290 -11.001468702642242 $289 $391 forward 7 unknown #
straight-curve $-1 0 24.579073588541753 3.6727894310763718 -1 0 0 I I #
coedge $-1 $392 $186 $388 $393 reversed $297 $-1 #
coedge $-1 $186 $392 $188 $301 forward $297 $-1 #
loop $-1 $-1 $186 $281 #
vertex $-1 $187 $394 #
straight-curve $-1 0 29.731345955056291 3.6727894310763718 -1 0 0 I I #
coedge $-1 $189 $188 $284 $384 reversed $177 $-1 #
edge $-1 $395 -6.6727894310763718 $191 -3.6727894310763718 $188 $396 forward 7 unknown #
edge $-1 $386 -4.0863947155381855 $190 -1.0863947155381859 $189 $397 forward 7 unknown #
point $-1 68.061159092989897 24.579073588541753 3.6727894310763718 #
point $-1 68.061159092989897 29.731345955056291 3.6727894310763718 #
loop $-1 $-1 $201 $193 #
plane-surface $-1 68.061159092989897 0 0 -1 0 0 0 0 1 forward_v I I I I #
coedge $-1 $308 $196 $198 $312 reversed $111 $-1 #
coedge $-1 $196 $307 $398 $399 reversed $111 $-1 #
coedge $-1 $204 $199 $196 $310 forward $194 $-1 #
edge $-1 $313 47.512248002074614 $400 57.316290467004563 $309 $401 forward 7 unknown #
coedge $-1 $198 $197 $316 $402 reversed $69 $-1 #
edge $-1 $403 -136.12231818597979 $313 -124.68459476374439 $307 $404 forward 7 unknown #
vertex $-1 $200 $405 #
straight-curve $-1 58.257116628059933 8.0913721159158065 6.6727894310763745 0 -1 0 I I #
coedge $-1 $398 $201 $204 $320 reversed $305 $-1 #
coedge $-1 $201 $398 $311 $402 forward $305 $-1 #
vertex $-1 $202 $406 #
straight-curve $-1 68.061159092989897 19.932231504389325 93.784851713901347 0 0 1 I I #
straight-curve $-1 -48.618440391434973 19.932231504389325 70.890103943377824 0.85716729658548041 0 -0.51503808176128008 I I #
edge $-1 $400 12.433256959273901 $205 19.932231504389325 $315 $407 forward 7 unknown #
point $-1 68.061159092989897 19.932231504389325 6.6727894310763718 #
point $-1 58.257116628059947 19.932231504389325 6.6727894310763674 #
edge $-1 $408 1 $408 0 $208 $-1 forward 7 unknown #
vertex $-1 $209 $409 #
ellipse-curve $-1 62.166478859197035 16.18274423183162 2.0752958865542519 0.51503808176128008 0 0.85716729658548041 0.4285836482927402 0 -0.25751904088064004 1 I I #
point $-1 63.587721508817665 16.18274423183162 3.4698388246436469 #
plane-surface $-1 0 0 6.6727894310763718 0 0 1 1 0 0 forward_v I I I I #
coedge $-1 $338 $337 $330 $410 forward $213 $-1 #
coedge $-1 $330 $215 $217 $334 reversed $126 $-1 #
coedge $-1 $215 $329 $328 $410 reversed $126 $-1 #
coedge $-1 $223 $218 $215 $332 forward $224 $-1 #
edge $-1 $335 -10.8275517401378 $411 -1.0235092752078714 $331 $412 forward 7 unknown #
coedge $-1 $217 $216 $338 $413 reversed $78 $-1 #
edge $-1 $414 0 $335 11.437723422235377 $329 $415 forward 7 unknown #
vertex $-1 $219 $416 #
straight-curve $-1 -58.257116628059968 8.0913721159158065 6.6727894310763709 0 1 0 I I #
coedge $-1 $328 $220 $223 $342 reversed $213 $-1 #
coedge $-1 $220 $328 $333 $413 forward $213 $-1 #
vertex $-1 $221 $417 #
straight-curve $-1 -68.061159092989897 12.433256959273901 58.730762892198534 0 0 1 I I #
straight-curve $-1 -68.061159092989897 12.433256959273901 0.78192629997219854 -0.85716729658548041 0 -0.51503808176128008 I I #
edge $-1 $411 -19.932231504389325 $225 -12.433256959273901 $337 $418 forward 7 unknown #
point $-1 -68.061159092989897 12.433256959273901 6.6727894310763718 #
point $-1 -58.257116628059968 12.433256959273901 6.6727894310763718 #
edge $-1 $419 1 $419 0 $228 $-1 forward 7 unknown #
vertex $-1 $229 $420 #
ellipse-curve $-1 -62.166478859197035 16.18274423183162 2.0752958865542466 -0.51503808176128008 0 0.85716729658548041 0.4285836482927402 0 0.25751904088064004 1 I I #
point $-1 -62.730554212232185 16.18274423183162 3.9848769064049216 #
plane-surface $-1 68.061159092989897 0 0 -1 0 0 0 0 1 forward_v I I I I #
coedge $-1 $237 $235 $239 $354 reversed $141 $-1 #
edge $-1 $250 -6.6727894310763718 $356 6.6727894310763718 $249 $421 forward 7 unknown #
vertex $-1 $354 $422 #
straight-curve $-1 -68.061159092989897 -29.731345955056291 0 0 0 -1 I I #
edge $-1 $352 -29.731345955056291 $356 29.731345955056291 $350 $423 forward 7 unknown #
straight-curve $-1 0 -29.731345955056291 -6.6727894310763718 -1 0 0 I I #
vertex $-1 $242 $424 #
straight-curve $-1 0 29.731345955056291 -6.6727894310763718 1 0 0 I I #
point $-1 68.061159092989897 29.731345955056291 -6.6727894310763718 #
point $-1 68.061159092989897 -29.731345955056291 -6.6727894310763718 #
straight-curve $-1 -68.061159092989897 0 6.6727894310763718 0 -1 0 I I #
point $-1 -68.061159092989897 29.731345955056291 6.6727894310763718 #
point $-1 -68.061159092989897 -29.731345955056291 6.6727894310763718 #
straight-curve $-1 68.061159092989897 -29.731345955056291 0 0 0 -1 I I #
straight-curve $-1 68.061159092989897 29.731345955056291 0 0 0 -1 I I #
plane-surface $-1 68.061159092989897 0 0 -1 0 0 0 0 1 forward_v I I I I #
coedge $-1 $263 $262 $273 $377 reversed $95 $-1 #
coedge $-1 $425 $266 $263 $368 forward $260 $-1 #
edge $-1 $369 24.579073588541753 $426 29.731345955056291 $263 $427 forward 7 unknown #
vertex $-1 $368 $428 #
straight-curve $-1 -68.061159092989897 -24.579073588541753 2.5863947155381859 0 0 -1 I I #
coedge $-1 $266 $425 $268 $373 forward $260 $-1 #
straight-curve $-1 0 -24.579073588541753 6.6727894310763718 -1 0 0 I I #
edge $-1 $380 -29.731345955056291 $269 -24.579073588541753 $268 $429 forward 7 unknown #
point $-1 68.061159092989897 -24.579073588541753 6.6727894310763718 #
straight-curve $-1 -68.061159092989897 -13.577604885899511 3.6727894310763718 0 -1 0 I I #
coedge $-1 $273 $272 $425 $430 reversed $160 $-1 #
edge $-1 $426 -6.6727894310763718 $274 -3.6727894310763718 $366 $431 forward 7 unknown #
point $-1 -68.061159092989897 -29.731345955056291 3.6727894310763718 #
point $-1 -68.061159092989897 -24.579073588541753 3.6727894310763718 #
vertex $-1 $373 $432 #
straight-curve $-1 68.061159092989897 -29.731345955056291 0 0 0 -1 I I #
plane-surface $-1 0 29.731345955056291 0 0 -1 0 0 0 -1 forward_v I I I I #
coedge $-1 $285 $284 $392 $433 forward $103 $-1 #
edge $-1 $386 24.579073588541753 $395 29.731345955056291 $300 $434 forward 7 unknown #
edge $-1 $435 -29.731345955056291 $291 -24.579073588541753 $288 $436 forward 7 unknown #
vertex $-1 $384 $437 #
straight-curve $-1 0 24.579073588541753 6.6727894310763718 1 0 0 I I #
coedge $-1 $289 $288 $295 $393 forward $282 $-1 #
point $-1 -68.061159092989897 24.579073588541753 3.6727894310763718 #
point $-1 -68.061159092989897 24.579073588541753 6.6727894310763718 #
straight-curve $-1 -68.061159092989897 13.577604885899511 3.6727894310763718 0 -1 0 I I #
coedge $-1 $296 $295 $383 $433 reversed $297 $-1 #
edge $-1 $435 -6.6727894310763718 $298 -3.6727894310763718 $295 $438 forward 7 unknown #
point $-1 -68.061159092989897 29.731345955056291 3.6727894310763718 #
vertex $-1 $384 $439 #
straight-curve $-1 68.061159092989897 29.731345955056291 0 0 0 -1 I I #
straight-curve $-1 68.061159092989897 24.579073588541753 2.5863947155381859 0 0 -1 I I #
coedge $-1 $316 $315 $308 $399 forward $305 $-1 #
edge $-1 $400 87.112062282824979 $403 93.002925413929162 $398 $440 forward 7 unknown #
vertex $-1 $320 $441 #
straight-curve $-1 10.744868625985333 12.433256959273901 6.6727894310763674 1 0 0 I I #
edge $-1 $403 4.3418848433580948 $317 11.840859388473518 $316 $442 forward 7 unknown #
vertex $-1 $402 $443 #
straight-curve $-1 -48.618440391434973 12.433256959273901 70.890103943377824 -0.85716729658548041 0 0.51503808176128008 I I #
point $-1 58.257116628059947 12.433256959273901 6.6727894310763674 #
point $-1 68.061159092989897 19.932231504389325 0.78192629997218432 #
straight-curve $-1 68.061159092989897 0 6.6727894310763718 0 1 0 I I #
vertex $-1 $323 $444 #
point $-1 62.595062507489779 16.18274423183162 1.8177768456736119 #
edge $-1 $411 52.05797346112216 $414 57.948836592226336 $328 $445 forward 7 unknown #
vertex $-1 $342 $446 #
straight-curve $-1 -69.084668368197768 19.932231504389325 6.6727894310763745 -1 0 0 I I #
edge $-1 $414 -11.840859388473518 $339 -4.3418848433580948 $338 $447 forward 7 unknown #
vertex $-1 $413 $448 #
straight-curve $-1 -68.061159092989897 19.932231504389325 0.78192629997219854 0.85716729658548041 0 0.51503808176128008 I I #
point $-1 -58.257116628059968 19.932231504389325 6.6727894310763718 #
point $-1 -68.061159092989897 12.433256959273901 0.78192629997219854 #
straight-curve $-1 -68.061159092989897 0 6.6727894310763718 0 -1 0 I I #
vertex $-1 $345 $449 #
point $-1 -61.737895210904298 16.18274423183162 2.3328149274348866 #
straight-curve $-1 -68.061159092989897 29.731345955056291 0 0 0 -1 I I #
point $-1 -68.061159092989897 -29.731345955056291 -6.6727894310763718 #
straight-curve $-1 -68.061159092989897 0 -6.6727894310763718 0 1 0 I I #
point $-1 -68.061159092989897 29.731345955056291 -6.6727894310763718 #
coedge $-1 $371 $367 $376 $430 forward $260 $-1 #
vertex $-1 $368 $450 #
straight-curve $-1 -68.061159092989897 0 6.6727894310763718 0 -1 0 I I #
point $-1 -68.061159092989897 -24.579073588541753 6.6727894310763718 #
straight-curve $-1 68.061159092989897 0 6.6727894310763718 0 1 0 I I #
edge $-1 $426 -68.061159092989897 $380 68.061159092989897 $376 $451 forward 7 unknown #
straight-curve $-1 -68.061159092989897 -29.731345955056291 0 0 0 -1 I I #
point $-1 68.061159092989897 -29.731345955056291 6.6727894310763718 #
edge $-1 $395 -68.061159092989897 $435 68.061159092989897 $392 $452 forward 7 unknown #
straight-curve $-1 68.061159092989897 0 6.6727894310763718 0 1 0 I I #
vertex $-1 $433 $453 #
straight-curve $-1 -68.061159092989897 0 6.6727894310763718 0 -1 0 I I #
point $-1 68.061159092989897 24.579073588541753 6.6727894310763718 #
straight-curve $-1 -68.061159092989897 29.731345955056291 0 0 0 -1 I I #
point $-1 68.061159092989897 29.731345955056291 6.6727894310763718 #
straight-curve $-1 68.061159092989897 12.433256959273901 93.784851713901347 0 0 -1 I I #
point $-1 68.061159092989897 12.433256959273901 6.6727894310763718 #
straight-curve $-1 68.061159092989897 8.0913721159158065 0.78192629997218432 0 1 0 I I #
point $-1 68.061159092989897 12.433256959273901 0.78192629997218432 #
point $-1 61.908959818316397 16.18274423183162 1.6467122382615118 #
straight-curve $-1 -68.061159092989897 19.932231504389325 58.730762892198534 0 0 -1 I I #
point $-1 -68.061159092989897 19.932231504389325 6.6727894310763718 #
straight-curve $-1 -68.061159092989897 8.0913721159158065 0.78192629997219787 0 -1 0 I I #
point $-1 -68.061159092989897 19.932231504389325 0.78192629997219854 #
point $-1 -61.908959818316397 16.18274423183162 1.6467122382615065 #
point $-1 -68.061159092989897 -29.731345955056291 6.6727894310763718 #
straight-curve $-1 0 -29.731345955056291 6.6727894310763718 1 0 0 I I #
straight-curve $-1 0 29.731345955056291 6.6727894310763718 -1 0 0 I I #
point $-1 -68.061159092989897 29.731345955056291 6.6727894310763718 #
End-of-ACIS-data 