500 0 15 0           
7 Unknown 11 ACIS 5.0 NT 24 Fri Mar 26 18:49:57 1999 
-1 9.9999999999999995e-007 1e-010 
body $-1 $15 $-1 $16 #
body $-1 $17 $-1 $18 #
body $-1 $19 $-1 $20 #
body $-1 $21 $-1 $22 #
body $-1 $23 $-1 $24 #
body $-1 $25 $-1 $26 #
body $-1 $27 $-1 $28 #
body $-1 $29 $-1 $30 #
body $-1 $31 $-1 $32 #
body $-1 $33 $-1 $34 #
body $-1 $35 $-1 $36 #
body $-1 $37 $-1 $38 #
body $-1 $39 $-1 $40 #
body $-1 $41 $-1 $42 #
body $-1 $43 $-1 $44 #
lump $-1 $-1 $45 $0 #
transform $-1 1 0 0 0 1 0 0 0 1 62.062440870387888 30.191776061471728 7.9337836169714144 1 rotate no_reflect no_shear #
lump $-1 $-1 $46 $1 #
transform $-1 1 0 0 0 1 0 0 0 1 62.062440870387888 30.191776061471728 7.9337836169714144 1 rotate no_reflect no_shear #
lump $-1 $-1 $47 $2 #
transform $-1 1 0 0 0 1 0 0 0 1 62.062440870387888 30.191776061471728 7.9337836169714144 1 rotate no_reflect no_shear #
lump $-1 $-1 $48 $3 #
transform $-1 1 0 0 0 1 0 0 0 1 62.062440870387888 30.191776061471728 7.9337836169714144 1 rotate no_reflect no_shear #
lump $-1 $-1 $49 $4 #
transform $-1 1 0 0 0 1 0 0 0 1 62.062440870387888 30.191776061471728 7.9337836169714144 1 rotate no_reflect no_shear #
lump $-1 $-1 $50 $5 #
transform $-1 1 0 0 0 1 0 0 0 1 62.062440870387888 30.191776061471728 7.9337836169714144 1 rotate no_reflect no_shear #
lump $-1 $-1 $51 $6 #
transform $-1 1 0 0 0 1 0 0 0 1 62.062440870387888 30.191776061471728 7.9337836169714144 1 rotate no_reflect no_shear #
lump $-1 $-1 $52 $7 #
transform $-1 1 0 0 0 1 0 0 0 1 62.062440870387888 30.191776061471728 7.9337836169714144 1 rotate no_reflect no_shear #
lump $-1 $-1 $53 $8 #
transform $-1 1 0 0 0 1 0 0 0 1 62.062440870387888 30.191776061471728 7.9337836169714144 1 rotate no_reflect no_shear #
lump $-1 $-1 $54 $9 #
transform $-1 1 0 0 0 1 0 0 0 1 62.062440870387888 30.191776061471728 7.9337836169714144 1 rotate no_reflect no_shear #
lump $-1 $-1 $55 $10 #
transform $-1 1 0 0 0 1 0 0 0 1 62.062440870387888 30.191776061471728 7.9337836169714144 1 rotate no_reflect no_shear #
lump $-1 $-1 $56 $11 #
transform $-1 1 0 0 0 1 0 0 0 1 62.062440870387888 30.191776061471728 7.9337836169714144 1 rotate no_reflect no_shear #
lump $-1 $-1 $57 $12 #
transform $-1 1 0 0 0 1 0 0 0 1 62.062440870387888 30.191776061471728 7.9337836169714144 1 rotate no_reflect no_shear #
lump $-1 $-1 $58 $13 #
transform $-1 1 0 0 0 1 0 0 0 1 62.062440870387888 30.191776061471728 7.9337836169714144 1 rotate no_reflect no_shear #
lump $-1 $-1 $59 $14 #
transform $-1 1 0 0 0 1 0 0 0 1 62.062440870387888 30.191776061471728 7.9337836169714144 1 rotate no_reflect no_shear #
shell $-1 $-1 $-1 $60 $-1 $15 #
shell $-1 $-1 $-1 $61 $-1 $17 #
shell $-1 $-1 $-1 $62 $-1 $19 #
shell $-1 $-1 $-1 $63 $-1 $21 #
shell $-1 $-1 $-1 $64 $-1 $23 #
shell $-1 $-1 $-1 $65 $-1 $25 #
shell $-1 $-1 $-1 $66 $-1 $27 #
shell $-1 $-1 $-1 $67 $-1 $29 #
shell $-1 $-1 $-1 $68 $-1 $31 #
shell $-1 $-1 $-1 $69 $-1 $33 #
shell $-1 $-1 $-1 $70 $-1 $35 #
shell $-1 $-1 $-1 $71 $-1 $37 #
shell $-1 $-1 $-1 $72 $-1 $39 #
shell $-1 $-1 $-1 $73 $-1 $41 #
shell $-1 $-1 $-1 $74 $-1 $43 #
face $-1 $75 $76 $45 $-1 $77 forward single #
face $-1 $78 $79 $46 $-1 $80 forward single #
face $-1 $81 $82 $47 $-1 $83 forward single #
face $-1 $84 $85 $48 $-1 $86 reversed single #
face $-1 $87 $88 $49 $-1 $89 forward single #
face $-1 $90 $91 $50 $-1 $92 forward single #
face $-1 $93 $94 $51 $-1 $95 forward single #
face $-1 $96 $97 $52 $-1 $98 reversed single #
face $-1 $99 $100 $53 $-1 $101 forward single #
face $-1 $102 $103 $54 $-1 $104 forward single #
face $-1 $105 $106 $55 $-1 $107 forward single #
face $-1 $108 $109 $56 $-1 $110 reversed single #
face $-1 $111 $112 $57 $-1 $113 forward single #
face $-1 $114 $115 $58 $-1 $116 forward single #
face $-1 $117 $118 $59 $-1 $119 forward single #
face $-1 $120 $121 $45 $-1 $122 reversed single #
loop $-1 $-1 $123 $60 #
plane-surface $-1 0 0 7.9337836169714144 0 0 1 1 0 0 forward_v I I I I #
face $-1 $124 $125 $46 $-1 $126 reversed single #
loop $-1 $-1 $127 $61 #
plane-surface $-1 -56.951190301704926 0 5.5610964247511152 0 0 1 1 0 0 forward_v I I I I #
face $-1 $128 $129 $47 $-1 $130 reversed single #
loop $-1 $-1 $131 $62 #
plane-surface $-1 62.062440870387888 0 0 -1 0 0 0 0 1 forward_v I I I I #
face $-1 $132 $133 $48 $-1 $134 reversed single #
loop $-1 $-1 $135 $63 #
plane-surface $-1 -43.847309979592772 -30.191776061471728 0.42114910662157001 0 -0.70710678939079041 0.70710677298230451 1 0 0 forward_v I I I I #
face $-1 $136 $137 $49 $-1 $138 forward single #
loop $-1 $139 $140 $64 #
cone-surface $-1 -48.642887831650285 -25.054391956988898 2.7963994573706543 0 0.70710678939079041 -0.70710677298230451 1 0 0 1 I I 0 1 1 forward I I I I #
face $-1 $141 $142 $50 $-1 $143 forward single #
loop $-1 $144 $145 $65 #
cone-surface $-1 -43.847309979592772 -25.054391956988898 2.7963994573706543 0 0.70710678939079041 -0.70710677298230451 1 0 0 1 I I 0 1 1 forward I I I I #
face $-1 $146 $147 $51 $-1 $148 forward single #
loop $-1 $149 $150 $66 #
cone-surface $-1 -39.05173212753526 -25.054391956988898 2.7963994573706543 0 0.70710678939079041 -0.70710677298230451 1 0 0 1 I I 0 1 1 forward I I I I #
face $-1 $151 $152 $52 $-1 $153 reversed single #
loop $-1 $-1 $154 $67 #
plane-surface $-1 37.129916029070955 -117.96132267270323 88.1906936811517 1 0 0 0 0.70710678939079041 -0.70710677298230451 forward_v I I I I #
face $-1 $155 $156 $53 $-1 $157 forward single #
loop $-1 $158 $159 $68 #
cone-surface $-1 40.326967930442621 -25.054391956988898 2.7963994573706543 0 0.70710678939079041 -0.70710677298230451 1 0 0 1 I I 0 1 1 forward I I I I #
face $-1 $160 $161 $54 $-1 $162 forward single #
loop $-1 $163 $164 $69 #
cone-surface $-1 45.12254578250014 -25.054391956988898 2.7963994573706543 0 0.70710678939079041 -0.70710677298230451 1 0 0 1 I I 0 1 1 forward I I I I #
face $-1 $165 $166 $55 $-1 $167 forward single #
loop $-1 $168 $169 $70 #
cone-surface $-1 49.918123634557645 -25.054391956988898 2.7963994573706543 0 0.70710678939079041 -0.70710677298230451 1 0 0 1 I I 0 1 1 forward I I I I #
face $-1 $170 $171 $56 $-1 $172 reversed single #
loop $-1 $-1 $173 $71 #
plane-surface $-1 2.0878413125816166 47.153125086171244 139.50167223891819 1 0 0 0 -0.54463904215088732 -0.83867056331134215 forward_v I I I I #
face $-1 $174 $175 $57 $-1 $176 forward single #
loop $-1 $177 $178 $72 #
cone-surface $-1 5.1264691897459329 25.502993763834027 4.4290769690242655 0 -0.54463904215088732 -0.83867056331134215 1.5 0 0 1 I I 0 1 1.5 forward I I I I #
face $-1 $179 $180 $58 $-1 $181 forward single #
loop $-1 $182 $183 $73 #
cone-surface $-1 9.6844110054924215 25.502993763834027 4.4290769690242655 0 -0.54463904215088732 -0.83867056331134215 1.5 0 0 1 I I 0 1 1.5 forward I I I I #
face $-1 $184 $185 $59 $-1 $186 forward single #
loop $-1 $187 $188 $74 #
cone-surface $-1 14.24235282123891 25.502993763834027 4.4290769690242655 0 -0.54463904215088732 -0.83867056331134215 1.5 0 0 1 I I 0 1 1.5 forward I I I I #
face $-1 $189 $190 $45 $-1 $191 reversed single #
loop $-1 $-1 $192 $75 #
plane-surface $-1 0 0 -7.9337836169714144 0 0 1 1 0 0 forward_v I I I I #
coedge $-1 $193 $194 $195 $196 forward $76 $-1 #
face $-1 $197 $198 $46 $-1 $199 reversed single #
loop $-1 $-1 $200 $78 #
plane-surface $-1 -56.951190301704926 0 2.5610964247511152 0 0 1 1 0 0 forward_v I I I I #
coedge $-1 $201 $202 $203 $204 forward $79 $-1 #
face $-1 $205 $206 $47 $-1 $207 reversed single #
loop $-1 $-1 $208 $81 #
plane-surface $-1 0 -30.191776061471728 0 0 1 0 0 0 1 forward_v I I I I #
coedge $-1 $209 $210 $211 $212 forward $82 $-1 #
face $-1 $213 $214 $48 $-1 $215 reversed single #
loop $-1 $-1 $216 $84 #
plane-surface $-1 -35.854680226163588 -117.96132267270323 88.1906936811517 -1 0 0 0 -0.70710678939079041 0.70710677298230451 forward_v I I I I #
coedge $-1 $217 $218 $219 $220 reversed $85 $-1 #
face $-1 $-1 $221 $49 $-1 $222 forward single #
loop $-1 $223 $224 $87 #
cone-surface $-1 -48.642887831650285 -23.319771625819861 1.0617791664536611 0 0.70710678939079041 -0.70710677298230451 0.5 0 0 1 I I -0.70710678118654746 0.70710678118654746 0.5 forward I I I I #
loop $-1 $-1 $225 $64 #
coedge $-1 $140 $140 $226 $227 reversed $88 $-1 #
face $-1 $-1 $228 $50 $-1 $229 forward single #
loop $-1 $230 $231 $90 #
cone-surface $-1 -43.847309979592772 -23.319771625819861 1.0617791664536611 0 0.70710678939079041 -0.70710677298230451 0.5 0 0 1 I I -0.70710678118654746 0.70710678118654746 0.5 forward I I I I #
loop $-1 $-1 $232 $65 #
coedge $-1 $145 $145 $233 $234 reversed $91 $-1 #
face $-1 $-1 $235 $51 $-1 $236 forward single #
loop $-1 $237 $238 $93 #
cone-surface $-1 -39.05173212753526 -23.319771625819861 1.0617791664536611 0 0.70710678939079041 -0.70710677298230451 0.5 0 0 1 I I -0.70710678118654746 0.70710678118654746 0.5 forward I I I I #
loop $-1 $-1 $239 $66 #
coedge $-1 $150 $150 $240 $241 reversed $94 $-1 #
face $-1 $242 $243 $52 $-1 $244 reversed single #
loop $-1 $-1 $245 $96 #
plane-surface $-1 45.12254578250014 -30.191776061471728 0.42114910662157001 0 -0.70710678939079041 0.70710677298230451 1 0 0 forward_v I I I I #
coedge $-1 $246 $247 $248 $249 reversed $97 $-1 #
face $-1 $-1 $250 $53 $-1 $251 forward single #
loop $-1 $252 $253 $99 #
cone-surface $-1 40.326967930442621 -23.319771625819861 1.0617791664536611 0 0.70710678939079041 -0.70710677298230451 0.5 0 0 1 I I -0.70710678118654746 0.70710678118654746 0.5 forward I I I I #
loop $-1 $-1 $254 $68 #
coedge $-1 $159 $159 $255 $256 reversed $100 $-1 #
face $-1 $-1 $257 $54 $-1 $258 forward single #
loop $-1 $259 $260 $102 #
cone-surface $-1 45.12254578250014 -23.319771625819861 1.0617791664536611 0 0.70710678939079041 -0.70710677298230451 0.5 0 0 1 I I -0.70710678118654746 0.70710678118654746 0.5 forward I I I I #
loop $-1 $-1 $261 $69 #
coedge $-1 $164 $164 $262 $263 reversed $103 $-1 #
face $-1 $-1 $264 $55 $-1 $265 forward single #
loop $-1 $266 $267 $105 #
cone-surface $-1 49.918123634557645 -23.319771625819861 1.0617791664536611 0 0.70710678939079041 -0.70710677298230451 0.5 0 0 1 I I -0.70710678118654746 0.70710678118654746 0.5 forward I I I I #
loop $-1 $-1 $268 $70 #
coedge $-1 $169 $169 $269 $270 reversed $106 $-1 #
face $-1 $271 $272 $56 $-1 $273 reversed single #
loop $-1 $-1 $274 $108 #
plane-surface $-1 9.6844110054924215 -20.450131612217049 35.401787748428035 0 0.54463904215088732 0.83867056331134215 1 0 0 forward_v I I I I #
coedge $-1 $275 $276 $277 $278 reversed $109 $-1 #
face $-1 $-1 $279 $57 $-1 $280 forward single #
loop $-1 $281 $282 $111 #
cone-surface $-1 5.1264691897459329 24.578177821399436 3.0049853278193517 0 -0.54463904215088732 -0.83867056331134215 0.75 0 0 1 I I -0.70710678118654724 0.70710678118654768 0.75 forward I I I I #
loop $-1 $-1 $283 $72 #
coedge $-1 $178 $178 $284 $285 reversed $112 $-1 #
face $-1 $-1 $286 $58 $-1 $287 forward single #
loop $-1 $288 $289 $114 #
cone-surface $-1 9.6844110054924215 24.578177821399436 3.0049853278193517 0 -0.54463904215088732 -0.83867056331134215 0.75 0 0 1 I I -0.70710678118654724 0.70710678118654768 0.75 forward I I I I #
loop $-1 $-1 $290 $73 #
coedge $-1 $183 $183 $291 $292 reversed $115 $-1 #
face $-1 $-1 $293 $59 $-1 $294 forward single #
loop $-1 $295 $296 $117 #
cone-surface $-1 14.24235282123891 24.578177821399436 3.0049853278193517 0 -0.54463904215088732 -0.83867056331134215 0.75 0 0 1 I I -0.70710678118654724 0.70710678118654768 0.75 forward I I I I #
loop $-1 $-1 $297 $74 #
coedge $-1 $188 $188 $298 $299 reversed $118 $-1 #
face $-1 $300 $301 $45 $-1 $302 reversed single #
loop $-1 $-1 $303 $120 #
plane-surface $-1 0 -30.191776061471728 0 0 1 0 0 0 1 forward_v I I I I #
coedge $-1 $304 $305 $306 $307 forward $121 $-1 #
coedge $-1 $308 $123 $309 $310 forward $76 $-1 #
coedge $-1 $123 $308 $311 $312 forward $76 $-1 #
coedge $-1 $313 $314 $123 $196 reversed $315 $-1 #
edge $-1 $316 -30.191776061471728 $317 30.191776061471728 $195 $318 forward 7 unknown #
face $-1 $319 $320 $46 $-1 $321 reversed single #
loop $-1 $-1 $322 $124 #
plane-surface $-1 -51.839939733021964 0 4.0610964247511152 -1 0 0 0 0 1 forward_v I I I I #
coedge $-1 $323 $324 $325 $326 forward $125 $-1 #
coedge $-1 $327 $127 $328 $329 reversed $79 $-1 #
coedge $-1 $127 $327 $330 $331 reversed $79 $-1 #
coedge $-1 $322 $332 $127 $204 reversed $198 $-1 #
edge $-1 $333 -30.191776061471728 $334 30.191776061471728 $203 $335 forward 7 unknown #
face $-1 $336 $337 $47 $-1 $338 forward single #
loop $-1 $-1 $339 $128 #
plane-surface $-1 0 0 -7.9337836169714144 0 0 1 1 0 0 forward_v I I I I #
coedge $-1 $340 $341 $210 $342 forward $129 $-1 #
coedge $-1 $343 $131 $344 $345 reversed $82 $-1 #
coedge $-1 $131 $343 $208 $342 reversed $82 $-1 #
coedge $-1 $346 $347 $131 $212 reversed $337 $-1 #
edge $-1 $348 -30.191776061471728 $349 30.191776061471728 $211 $350 forward 7 unknown #
face $-1 $351 $352 $48 $-1 $353 forward single #
loop $-1 $-1 $354 $132 #
plane-surface $-1 0 -30.191776061471728 0 0 1 0 0 0 1 forward_v I I I I #
coedge $-1 $355 $356 $357 $358 reversed $133 $-1 #
coedge $-1 $359 $135 $360 $361 forward $85 $-1 #
coedge $-1 $135 $359 $355 $362 forward $85 $-1 #
coedge $-1 $357 $354 $135 $220 forward $214 $-1 #
edge $-1 $363 -29.916284743225571 $364 -13.931025236367201 $219 $365 forward 7 unknown #
loop $-1 $-1 $226 $136 #
plane-surface $-1 -43.847309979592772 -30.191776061471728 0.42114910662157001 0 -0.70710678939079041 0.70710677298230451 1 0 0 forward_v I I I I #
loop $-1 $-1 $366 $87 #
coedge $-1 $224 $224 $225 $367 reversed $137 $-1 #
coedge $-1 $225 $225 $224 $367 forward $139 $-1 #
coedge $-1 $226 $226 $140 $227 forward $221 $-1 #
edge $-1 $368 6.2803704905499373e-016 $368 6.2831853071796013 $226 $369 forward 7 unknown #
loop $-1 $-1 $233 $141 #
plane-surface $-1 -43.847309979592772 -30.191776061471728 0.42114910662157001 0 -0.70710678939079041 0.70710677298230451 1 0 0 forward_v I I I I #
loop $-1 $-1 $370 $90 #
coedge $-1 $231 $231 $232 $371 reversed $142 $-1 #
coedge $-1 $232 $232 $231 $371 forward $144 $-1 #
coedge $-1 $233 $233 $145 $234 forward $228 $-1 #
edge $-1 $372 6.2803704905499373e-016 $372 6.2831853071796013 $233 $373 forward 7 unknown #
loop $-1 $-1 $240 $146 #
plane-surface $-1 -43.847309979592772 -30.191776061471728 0.42114910662157001 0 -0.70710678939079041 0.70710677298230451 1 0 0 forward_v I I I I #
loop $-1 $-1 $374 $93 #
coedge $-1 $238 $238 $239 $375 reversed $147 $-1 #
coedge $-1 $239 $239 $238 $375 forward $149 $-1 #
coedge $-1 $240 $240 $150 $241 forward $235 $-1 #
edge $-1 $376 6.2803704905499373e-016 $376 6.2831853071796013 $240 $377 forward 7 unknown #
face $-1 $378 $379 $52 $-1 $380 forward single #
loop $-1 $-1 $381 $151 #
plane-surface $-1 53.115175535929325 -117.96132267270323 88.1906936811517 -1 0 0 0 -0.70710678939079041 0.70710677298230451 forward_v I I I I #
coedge $-1 $382 $383 $384 $385 reversed $152 $-1 #
coedge $-1 $247 $154 $386 $387 reversed $97 $-1 #
coedge $-1 $154 $246 $382 $388 reversed $97 $-1 #
coedge $-1 $384 $389 $154 $249 forward $390 $-1 #
edge $-1 $391 36.161563223604432 $392 43.67419773395428 $248 $393 forward 7 unknown #
loop $-1 $-1 $255 $155 #
plane-surface $-1 45.12254578250014 -30.191776061471728 0.42114910662157001 0 -0.70710678939079041 0.70710677298230451 1 0 0 forward_v I I I I #
loop $-1 $-1 $394 $99 #
coedge $-1 $253 $253 $254 $395 reversed $156 $-1 #
coedge $-1 $254 $254 $253 $395 forward $158 $-1 #
coedge $-1 $255 $255 $159 $256 forward $250 $-1 #
edge $-1 $396 6.2803704905499373e-016 $396 6.2831853071796013 $255 $397 forward 7 unknown #
loop $-1 $-1 $262 $160 #
plane-surface $-1 45.12254578250014 -30.191776061471728 0.42114910662157001 0 -0.70710678939079041 0.70710677298230451 1 0 0 forward_v I I I I #
loop $-1 $-1 $398 $102 #
coedge $-1 $260 $260 $261 $399 reversed $161 $-1 #
coedge $-1 $261 $261 $260 $399 forward $163 $-1 #
coedge $-1 $262 $262 $164 $263 forward $257 $-1 #
edge $-1 $400 6.2803704905499373e-016 $400 6.2831853071796013 $262 $401 forward 7 unknown #
loop $-1 $-1 $269 $165 #
plane-surface $-1 45.12254578250014 -30.191776061471728 0.42114910662157001 0 -0.70710678939079041 0.70710677298230451 1 0 0 forward_v I I I I #
loop $-1 $-1 $402 $105 #
coedge $-1 $267 $267 $268 $403 reversed $166 $-1 #
coedge $-1 $268 $268 $267 $403 forward $168 $-1 #
coedge $-1 $269 $269 $169 $270 forward $264 $-1 #
edge $-1 $404 6.2803704905499373e-016 $404 6.2831853071796013 $269 $405 forward 7 unknown #
face $-1 $406 $407 $56 $-1 $408 forward single #
loop $-1 $-1 $409 $170 #
plane-surface $-1 17.280980698403226 47.153125086171244 139.50167223891819 -1 0 0 0 0.54463904215088732 0.83867056331134215 forward_v I I I I #
coedge $-1 $410 $411 $412 $413 reversed $171 $-1 #
coedge $-1 $276 $173 $414 $415 reversed $109 $-1 #
coedge $-1 $173 $275 $410 $416 reversed $109 $-1 #
coedge $-1 $412 $417 $173 $278 forward $407 $-1 #
edge $-1 $418 -6.6152135183861063 $419 1.729677755246442 $277 $420 forward 7 unknown #
loop $-1 $-1 $284 $174 #
plane-surface $-1 9.6844110054924215 -20.450131612217049 35.401787748428035 0 0.54463904215088732 0.83867056331134215 1 0 0 forward_v I I I I #
loop $-1 $-1 $421 $111 #
coedge $-1 $282 $282 $283 $422 reversed $175 $-1 #
coedge $-1 $283 $283 $282 $422 forward $177 $-1 #
coedge $-1 $284 $284 $178 $285 forward $279 $-1 #
edge $-1 $423 3.2249109584304331e-016 $423 6.2831853071796004 $284 $424 forward 7 unknown #
loop $-1 $-1 $291 $179 #
plane-surface $-1 9.6844110054924215 -20.450131612217049 35.401787748428035 0 0.54463904215088732 0.83867056331134215 1 0 0 forward_v I I I I #
loop $-1 $-1 $425 $114 #
coedge $-1 $289 $289 $290 $426 reversed $180 $-1 #
coedge $-1 $290 $290 $289 $426 forward $182 $-1 #
coedge $-1 $291 $291 $183 $292 forward $286 $-1 #
edge $-1 $427 3.2249109584304331e-016 $427 6.2831853071796004 $291 $428 forward 7 unknown #
loop $-1 $-1 $298 $184 #
plane-surface $-1 9.6844110054924215 -20.450131612217049 35.401787748428035 0 0.54463904215088732 0.83867056331134215 1 0 0 forward_v I I I I #
loop $-1 $-1 $429 $117 #
coedge $-1 $296 $296 $297 $430 reversed $185 $-1 #
coedge $-1 $297 $297 $296 $430 forward $187 $-1 #
coedge $-1 $298 $298 $188 $299 forward $293 $-1 #
edge $-1 $431 3.2249109584304331e-016 $431 6.2831853071796004 $298 $432 forward 7 unknown #
face $-1 $433 $434 $45 $-1 $435 reversed single #
loop $-1 $-1 $436 $189 #
plane-surface $-1 -62.062440870387888 0 0 1 0 0 0 0 -1 forward_v I I I I #
coedge $-1 $437 $311 $438 $439 forward $190 $-1 #
coedge $-1 $440 $192 $437 $441 forward $121 $-1 #
coedge $-1 $192 $440 $442 $443 forward $121 $-1 #
coedge $-1 $314 $313 $192 $307 reversed $315 $-1 #
edge $-1 $444 -30.191776061471728 $445 30.191776061471728 $306 $446 forward 7 unknown #
coedge $-1 $194 $193 $447 $448 forward $76 $-1 #
coedge $-1 $449 $450 $193 $310 reversed $434 $-1 #
edge $-1 $317 -62.062440870387888 $451 62.062440870387888 $309 $452 forward 7 unknown #
coedge $-1 $303 $453 $194 $312 reversed $190 $-1 #
edge $-1 $454 -62.062440870387888 $316 62.062440870387888 $311 $455 forward 7 unknown #
coedge $-1 $306 $195 $453 $456 forward $315 $-1 #
coedge $-1 $195 $306 $449 $457 reversed $315 $-1 #
loop $-1 $-1 $313 $433 #
vertex $-1 $196 $458 #
vertex $-1 $196 $459 #
straight-curve $-1 62.062440870387888 0 7.9337836169714144 0 1 0 I I #
face $-1 $460 $461 $46 $-1 $462 reversed single #
loop $-1 $-1 $463 $197 #
plane-surface $-1 0 -30.191776061471728 0 0 1 0 0 0 1 forward_v I I I I #
coedge $-1 $325 $203 $464 $465 reversed $198 $-1 #
coedge $-1 $466 $200 $463 $467 reversed $125 $-1 #
coedge $-1 $200 $466 $468 $469 reversed $125 $-1 #
coedge $-1 $332 $322 $200 $326 reversed $198 $-1 #
edge $-1 $470 -30.191776061471728 $471 30.191776061471728 $325 $472 forward 7 unknown #
coedge $-1 $202 $201 $473 $474 reversed $79 $-1 #
coedge $-1 $475 $476 $201 $329 forward $477 $-1 #
edge $-1 $478 -33.586845719535425 $334 -23.364344582169501 $328 $479 forward 7 unknown #
coedge $-1 $480 $464 $202 $331 forward $320 $-1 #
edge $-1 $333 23.364344582169501 $481 33.586845719535425 $330 $482 forward 7 unknown #
coedge $-1 $203 $325 $475 $483 reversed $198 $-1 #
vertex $-1 $331 $484 #
vertex $-1 $329 $485 #
straight-curve $-1 -51.839939733021964 0 5.5610964247511152 0 1 0 I I #
face $-1 $486 $487 $47 $-1 $488 reversed single #
loop $-1 $-1 $489 $205 #
plane-surface $-1 66.536073537617199 0 -4.9337836169714144 0 0 1 1 0 0 forward_v I I I I #
coedge $-1 $490 $491 $343 $492 forward $206 $-1 #
coedge $-1 $493 $208 $491 $494 reversed $129 $-1 #
coedge $-1 $208 $493 $346 $495 reversed $129 $-1 #
edge $-1 $348 4.9337836169714144 $496 7.9337836169714144 $208 $497 forward 7 unknown #
coedge $-1 $210 $209 $339 $492 reversed $82 $-1 #
coedge $-1 $498 $499 $209 $345 forward $500 $-1 #
edge $-1 $501 -7.9337836169714144 $349 -4.9337836169714144 $344 $502 forward 7 unknown #
coedge $-1 $489 $211 $341 $495 forward $337 $-1 #
coedge $-1 $211 $489 $498 $503 forward $337 $-1 #
vertex $-1 $342 $504 #
vertex $-1 $503 $505 #
straight-curve $-1 62.062440870387888 0 -4.9337836169714144 0 1 0 I I #
face $-1 $-1 $506 $48 $-1 $507 forward single #
loop $-1 $-1 $360 $213 #
plane-surface $-1 -51.839939733021964 0 4.0610964247511152 -1 0 0 0 0 1 forward_v I I I I #
coedge $-1 $219 $508 $509 $510 forward $214 $-1 #
coedge $-1 $356 $216 $218 $362 reversed $133 $-1 #
coedge $-1 $216 $355 $511 $512 reversed $133 $-1 #
coedge $-1 $508 $219 $216 $358 forward $214 $-1 #
edge $-1 $364 -43.67419773395428 $513 -36.161563223604432 $357 $514 forward 7 unknown #
coedge $-1 $218 $217 $515 $516 reversed $85 $-1 #
coedge $-1 $509 $517 $217 $361 reversed $352 $-1 #
edge $-1 $363 0 $518 10.624469490417955 $360 $519 forward 7 unknown #
edge $-1 $520 -10.624469490417955 $364 0 $355 $521 forward 7 unknown #
vertex $-1 $220 $522 #
vertex $-1 $220 $523 #
straight-curve $-1 -21.923654989796386 -30.191776061471728 0.42114910662157001 1 0 0 I I #
coedge $-1 $366 $366 $-1 $524 reversed $223 $-1 #
edge $-1 $525 0 $525 6.2831853071796004 $224 $526 forward 7 unknown #
vertex $-1 $227 $527 #
ellipse-curve $-1 -48.642887831650285 -26.435458893462535 4.1774663617964913 0 -0.70710678939079041 0.70710677298230451 1 0 0 1 I I #
coedge $-1 $370 $370 $-1 $528 reversed $230 $-1 #
edge $-1 $529 0 $529 6.2831853071796004 $231 $530 forward 7 unknown #
vertex $-1 $234 $531 #
ellipse-curve $-1 -43.847309979592772 -26.435458893462535 4.1774663617964913 0 -0.70710678939079041 0.70710677298230451 1 0 0 1 I I #
coedge $-1 $374 $374 $-1 $532 reversed $237 $-1 #
edge $-1 $533 0 $533 6.2831853071796004 $238 $534 forward 7 unknown #
vertex $-1 $241 $535 #
ellipse-curve $-1 -39.05173212753526 -26.435458893462535 4.1774663617964913 0 -0.70710678939079041 0.70710677298230451 1 0 0 1 I I #
face $-1 $-1 $390 $52 $-1 $536 reversed single #
loop $-1 $-1 $537 $242 #
plane-surface $-1 0 0 7.9337836169714144 0 0 1 1 0 0 forward_v I I I I #
coedge $-1 $538 $539 $540 $541 reversed $243 $-1 #
coedge $-1 $542 $245 $247 $388 forward $152 $-1 #
coedge $-1 $245 $542 $538 $543 forward $152 $-1 #
coedge $-1 $540 $248 $245 $385 forward $390 $-1 #
edge $-1 $392 14.568643137820885 $544 30.553902644679255 $384 $545 forward 7 unknown #
coedge $-1 $546 $547 $246 $387 forward $379 $-1 #
edge $-1 $548 -36.301519610898275 $391 -28.788885274879888 $386 $549 forward 7 unknown #
edge $-1 $392 0 $548 10.624469490417955 $247 $550 forward 7 unknown #
coedge $-1 $248 $540 $546 $551 reversed $390 $-1 #
loop $-1 $-1 $540 $378 #
vertex $-1 $551 $552 #
vertex $-1 $249 $553 #
straight-curve $-1 37.129916029070955 -30.191776061471728 44.09534684057585 0 0 -1 I I #
coedge $-1 $394 $394 $-1 $554 reversed $252 $-1 #
edge $-1 $555 0 $555 6.2831853071796004 $253 $556 forward 7 unknown #
vertex $-1 $256 $557 #
ellipse-curve $-1 40.326967930442621 -26.435458893462535 4.1774663617964913 0 -0.70710678939079041 0.70710677298230451 1 0 0 1 I I #
coedge $-1 $398 $398 $-1 $558 reversed $259 $-1 #
edge $-1 $559 0 $559 6.2831853071796004 $260 $560 forward 7 unknown #
vertex $-1 $263 $561 #
ellipse-curve $-1 45.12254578250014 -26.435458893462535 4.1774663617964913 0 -0.70710678939079041 0.70710677298230451 1 0 0 1 I I #
coedge $-1 $402 $402 $-1 $562 reversed $266 $-1 #
edge $-1 $563 0 $563 6.2831853071796004 $267 $564 forward 7 unknown #
vertex $-1 $270 $565 #
ellipse-curve $-1 49.918123634557645 -26.435458893462535 4.1774663617964913 0 -0.70710678939079041 0.70710677298230451 1 0 0 1 I I #
face $-1 $-1 $566 $56 $-1 $567 reversed single #
loop $-1 $-1 $277 $271 #
plane-surface $-1 0 0 7.9337836169714144 0 0 1 1 0 0 forward_v I I I I #
coedge $-1 $568 $569 $570 $571 reversed $272 $-1 #
coedge $-1 $572 $274 $276 $416 forward $171 $-1 #
coedge $-1 $274 $572 $568 $573 forward $171 $-1 #
coedge $-1 $570 $277 $274 $413 forward $407 $-1 #
edge $-1 $419 -2.7543641901645941 $574 12.438775195657016 $412 $575 forward 7 unknown #
coedge $-1 $576 $577 $275 $415 forward $566 $-1 #
edge $-1 $578 -67.23628836093917 $418 -61.817052502487684 $414 $579 forward 7 unknown #
edge $-1 $419 50.433410030577384 $578 60.383552122943456 $276 $580 forward 7 unknown #
coedge $-1 $277 $570 $576 $581 forward $407 $-1 #
vertex $-1 $278 $582 #
vertex $-1 $278 $583 #
straight-curve $-1 2.0878413125816166 23.576562543085622 7.9337836169714109 0 -1 0 I I #
coedge $-1 $421 $421 $-1 $584 reversed $281 $-1 #
edge $-1 $585 0 $585 6.2831853071796004 $282 $586 forward 7 unknown #
vertex $-1 $285 $587 #
ellipse-curve $-1 5.1264691897459329 26.019330424655454 5.2241656877456739 0 0.54463904215088732 0.83867056331134215 1.5 0 0 1 I I #
coedge $-1 $425 $425 $-1 $588 reversed $288 $-1 #
edge $-1 $589 0 $589 6.2831853071796004 $289 $590 forward 7 unknown #
vertex $-1 $292 $591 #
ellipse-curve $-1 9.6844110054924215 26.019330424655454 5.2241656877456739 0 0.54463904215088732 0.83867056331134215 1.5 0 0 1 I I #
coedge $-1 $429 $429 $-1 $592 reversed $295 $-1 #
edge $-1 $593 0 $593 6.2831853071796004 $296 $594 forward 7 unknown #
vertex $-1 $299 $595 #
ellipse-curve $-1 14.24235282123891 26.019330424655454 5.2241656877456739 0 0.54463904215088732 0.83867056331134215 1.5 0 0 1 I I #
face $-1 $-1 $315 $45 $-1 $596 reversed single #
loop $-1 $-1 $449 $300 #
plane-surface $-1 0 30.191776061471728 0 0 -1 0 0 0 -1 forward_v I I I I #
coedge $-1 $597 $447 $450 $598 forward $301 $-1 #
coedge $-1 $453 $303 $304 $441 reversed $190 $-1 #
coedge $-1 $447 $597 $303 $439 reversed $301 $-1 #
edge $-1 $454 -7.9337836169714144 $599 7.9337836169714144 $438 $600 forward 7 unknown #
coedge $-1 $305 $304 $597 $601 forward $121 $-1 #
edge $-1 $445 -62.062440870387888 $599 62.062440870387888 $437 $602 forward 7 unknown #
coedge $-1 $450 $449 $305 $443 reversed $434 $-1 #
edge $-1 $603 -62.062440870387888 $444 62.062440870387888 $442 $604 forward 7 unknown #
vertex $-1 $307 $605 #
vertex $-1 $456 $606 #
straight-curve $-1 62.062440870387888 0 -7.9337836169714144 0 -1 0 I I #
coedge $-1 $436 $438 $308 $448 reversed $301 $-1 #
edge $-1 $451 -30.191776061471728 $454 30.191776061471728 $447 $607 forward 7 unknown #
coedge $-1 $442 $309 $314 $457 forward $434 $-1 #
coedge $-1 $309 $442 $436 $598 reversed $434 $-1 #
vertex $-1 $310 $608 #
straight-curve $-1 0 30.191776061471728 7.9337836169714144 -1 0 0 I I #
coedge $-1 $311 $437 $313 $456 reversed $190 $-1 #
vertex $-1 $448 $609 #
straight-curve $-1 0 -30.191776061471728 7.9337836169714144 1 0 0 I I #
edge $-1 $316 -7.9337836169714144 $445 7.9337836169714144 $313 $610 forward 7 unknown #
edge $-1 $317 -7.9337836169714144 $444 7.9337836169714144 $314 $611 forward 7 unknown #
point $-1 62.062440870387888 -30.191776061471728 7.9337836169714144 #
point $-1 62.062440870387888 30.191776061471728 7.9337836169714144 #
face $-1 $-1 $477 $46 $-1 $612 reversed single #
loop $-1 $-1 $613 $319 #
plane-surface $-1 -62.062440870387888 0 0 1 0 0 0 0 -1 forward_v I I I I #
coedge $-1 $464 $480 $323 $467 forward $320 $-1 #
coedge $-1 $330 $463 $322 $465 forward $320 $-1 #
edge $-1 $471 0.5305482123755576 $333 3.5305482123755576 $464 $614 forward 7 unknown #
coedge $-1 $324 $323 $613 $615 reversed $125 $-1 #
edge $-1 $616 -33.586845719535425 $471 -23.364344582169501 $463 $617 forward 7 unknown #
coedge $-1 $476 $475 $324 $469 forward $477 $-1 #
edge $-1 $470 23.364344582169501 $618 33.586845719535425 $468 $619 forward 7 unknown #
vertex $-1 $469 $620 #
vertex $-1 $467 $621 #
straight-curve $-1 -51.839939733021964 0 2.5610964247511152 0 -1 0 I I #
coedge $-1 $622 $623 $327 $474 forward $461 $-1 #
edge $-1 $481 -30.191776061471728 $478 30.191776061471728 $473 $624 forward 7 unknown #
coedge $-1 $468 $328 $332 $483 forward $477 $-1 #
coedge $-1 $328 $468 $622 $625 reversed $477 $-1 #
loop $-1 $-1 $468 $460 #
vertex $-1 $625 $626 #
straight-curve $-1 -28.475595150852463 30.191776061471728 5.5610964247511152 1 0 0 I I #
coedge $-1 $463 $330 $623 $627 forward $320 $-1 #
vertex $-1 $627 $628 #
straight-curve $-1 -28.475595150852463 -30.191776061471728 5.5610964247511152 -1 0 0 I I #
edge $-1 $334 -3.5305482123755576 $470 -0.5305482123755576 $475 $629 forward 7 unknown #
point $-1 -51.839939733021964 -30.191776061471728 5.5610964247511152 #
point $-1 -51.839939733021964 30.191776061471728 5.5610964247511152 #
face $-1 $-1 $500 $47 $-1 $630 reversed single #
loop $-1 $-1 $631 $336 #
plane-surface $-1 71.009706204846495 0 -6.4337836169714144 -1 0 0 0 0 1 forward_v I I I I #
coedge $-1 $347 $346 $632 $633 forward $337 $-1 #
coedge $-1 $634 $339 $499 $635 forward $206 $-1 #
coedge $-1 $339 $634 $340 $494 forward $206 $-1 #
edge $-1 $496 -30.191776061471728 $501 30.191776061471728 $339 $636 forward 7 unknown #
coedge $-1 $341 $340 $631 $637 reversed $129 $-1 #
edge $-1 $638 -4.4736326672292961 $496 4.4736326672293103 $340 $639 forward 7 unknown #
edge $-1 $348 -4.4736326672292961 $640 4.4736326672292961 $341 $641 forward 7 unknown #
vertex $-1 $492 $642 #
straight-curve $-1 62.062440870387888 -30.191776061471728 0 0 0 -1 I I #
coedge $-1 $643 $344 $347 $503 reversed $500 $-1 #
coedge $-1 $344 $643 $490 $635 reversed $500 $-1 #
loop $-1 $-1 $344 $486 #
vertex $-1 $635 $644 #
straight-curve $-1 62.062440870387888 30.191776061471728 0 0 0 1 I I #
edge $-1 $645 -4.4736326672292961 $349 4.4736326672292961 $498 $646 forward 7 unknown #
point $-1 62.062440870387903 -30.191776061471728 -4.9337836169714144 #
point $-1 62.062440870387903 30.191776061471728 -4.9337836169714144 #
loop $-1 $-1 $647 $351 #
plane-surface $-1 0 0 7.9337836169714144 0 0 1 1 0 0 forward_v I I I I #
coedge $-1 $354 $357 $648 $649 reversed $214 $-1 #
coedge $-1 $517 $360 $354 $510 reversed $352 $-1 #
edge $-1 $650 36.161563223604432 $363 43.67419773395428 $354 $651 forward 7 unknown #
coedge $-1 $515 $648 $356 $512 forward $506 $-1 #
edge $-1 $513 28.788885274879888 $520 36.301519610898275 $511 $652 forward 7 unknown #
vertex $-1 $358 $653 #
straight-curve $-1 -35.854680226163588 -30.191776061471728 44.09534684057585 0 0 1 I I #
coedge $-1 $647 $511 $359 $516 forward $506 $-1 #
edge $-1 $520 13.931025236367201 $518 29.916284743225571 $515 $654 forward 7 unknown #
coedge $-1 $360 $509 $647 $655 reversed $352 $-1 #
vertex $-1 $655 $656 #
straight-curve $-1 -51.839939733021957 -30.191776061471728 0.42114910662157001 0 0.70710677298230451 0.70710678939079041 I I #
vertex $-1 $516 $657 #
straight-curve $-1 -35.854680226163588 -30.191776061471728 0.42114910662157001 0 -0.70710677298230451 -0.70710678939079041 I I #
point $-1 -51.839939733021957 -30.191776061471728 0.42114910662157001 #
point $-1 -35.854680226163588 -30.191776061471728 0.42114910662157001 #
edge $-1 $658 1 $658 0 $366 $-1 forward 7 unknown #
vertex $-1 $367 $659 #
ellipse-curve $-1 -48.642887831650285 -23.673325020515257 1.4153325529448133 0 -0.70710678939079041 0.70710677298230451 1 0 0 1 I I #
point $-1 -47.642887831650285 -26.435458893462538 4.1774663617964958 #
edge $-1 $660 1 $660 0 $370 $-1 forward 7 unknown #
vertex $-1 $371 $661 #
ellipse-curve $-1 -43.847309979592772 -23.673325020515257 1.4153325529448133 0 -0.70710678939079041 0.70710677298230451 1 0 0 1 I I #
point $-1 -42.847309979592772 -26.435458893462538 4.1774663617964958 #
edge $-1 $662 1 $662 0 $374 $-1 forward 7 unknown #
vertex $-1 $375 $663 #
ellipse-curve $-1 -39.05173212753526 -23.673325020515257 1.4153325529448133 0 -0.70710678939079041 0.70710677298230451 1 0 0 1 I I #
point $-1 -38.05173212753526 -26.435458893462538 4.1774663617964958 #
plane-surface $-1 0 -30.191776061471728 0 0 1 0 0 0 1 forward_v I I I I #
coedge $-1 $547 $546 $539 $664 forward $379 $-1 #
coedge $-1 $539 $381 $383 $543 reversed $243 $-1 #
coedge $-1 $381 $538 $537 $664 reversed $243 $-1 #
coedge $-1 $389 $384 $381 $541 forward $390 $-1 #
edge $-1 $544 -43.67419773395428 $665 -36.161563223604432 $540 $666 forward 7 unknown #
coedge $-1 $383 $382 $547 $667 reversed $152 $-1 #
edge $-1 $668 -10.624469490417955 $544 0 $538 $669 forward 7 unknown #
vertex $-1 $385 $670 #
straight-curve $-1 22.56127289125007 -30.191776061471728 0.42114910662157001 1 0 0 I I #
coedge $-1 $537 $386 $389 $551 forward $379 $-1 #
coedge $-1 $386 $537 $542 $667 forward $379 $-1 #
vertex $-1 $387 $671 #
straight-curve $-1 37.129916029070955 -58.980661336351616 7.9337836169714109 0 -1 0 I I #
straight-curve $-1 37.129916029070955 -30.191776061471728 0.42114910662157001 0 0.70710677298230451 0.70710678939079041 I I #
edge $-1 $391 37.129916029070955 $665 53.115175535929325 $389 $672 forward 7 unknown #
point $-1 37.129916029070955 -30.191776061471728 7.9337836169714144 #
point $-1 37.129916029070955 -30.191776061471728 0.42114910662157001 #
edge $-1 $673 1 $673 0 $394 $-1 forward 7 unknown #
vertex $-1 $395 $674 #
ellipse-curve $-1 40.326967930442621 -23.673325020515257 1.4153325529448133 0 -0.70710678939079041 0.70710677298230451 1 0 0 1 I I #
point $-1 41.326967930442621 -26.435458893462538 4.1774663617964958 #
edge $-1 $675 1 $675 0 $398 $-1 forward 7 unknown #
vertex $-1 $399 $676 #
ellipse-curve $-1 45.12254578250014 -23.673325020515257 1.4153325529448133 0 -0.70710678939079041 0.70710677298230451 1 0 0 1 I I #
point $-1 46.12254578250014 -26.435458893462538 4.1774663617964958 #
edge $-1 $677 1 $677 0 $402 $-1 forward 7 unknown #
vertex $-1 $403 $678 #
ellipse-curve $-1 49.918123634557645 -23.673325020515257 1.4153325529448133 0 -0.70710678939079041 0.70710677298230451 1 0 0 1 I I #
point $-1 50.918123634557645 -26.435458893462538 4.1774663617964958 #
loop $-1 $-1 $414 $406 #
plane-surface $-1 0 30.191776061471728 0 0 -1 0 0 0 -1 forward_v I I I I #
coedge $-1 $569 $409 $411 $573 reversed $272 $-1 #
coedge $-1 $409 $568 $679 $680 reversed $272 $-1 #
coedge $-1 $417 $412 $409 $571 forward $407 $-1 #
edge $-1 $574 -1.729677755246442 $681 6.6152135183861063 $570 $682 forward 7 unknown #
coedge $-1 $411 $410 $577 $683 reversed $171 $-1 #
edge $-1 $684 -60.383552122943456 $574 -50.433410030577384 $568 $685 forward 7 unknown #
vertex $-1 $413 $686 #
straight-curve $-1 4.8422055027462108 21.84688478783918 7.9337836169714144 1 0 0 I I #
coedge $-1 $679 $414 $417 $581 reversed $566 $-1 #
coedge $-1 $414 $679 $572 $683 forward $566 $-1 #
vertex $-1 $415 $687 #
straight-curve $-1 2.0878413125816166 30.191776061471728 69.750836119459095 0 0 1 I I #
straight-curve $-1 2.0878413125816166 -20.450131612217049 35.401787748428035 0 0.83867056331134215 -0.54463904215088732 I I #
edge $-1 $681 -17.280980698403226 $418 -2.0878413125816166 $576 $688 forward 7 unknown #
point $-1 2.0878413125816166 30.191776061471728 7.9337836169714144 #
point $-1 2.0878413125816166 21.84688478783918 7.9337836169714144 #
edge $-1 $689 1 $689 0 $421 $-1 forward 7 unknown #
vertex $-1 $422 $690 #
ellipse-curve $-1 5.1264691897459329 24.9866571030126 3.6339882503028589 0 0.54463904215088732 0.83867056331134215 1.5 0 0 1 I I #
point $-1 6.6264691897459329 26.019330424655454 5.224165687745673 #
edge $-1 $691 1 $691 0 $425 $-1 forward 7 unknown #
vertex $-1 $426 $692 #
ellipse-curve $-1 9.6844110054924215 24.9866571030126 3.6339882503028589 0 0.54463904215088732 0.83867056331134215 1.5 0 0 1 I I #
point $-1 11.184411005492422 26.019330424655454 5.224165687745673 #
edge $-1 $693 1 $693 0 $429 $-1 forward 7 unknown #
vertex $-1 $430 $694 #
ellipse-curve $-1 14.24235282123891 24.9866571030126 3.6339882503028589 0 0.54463904215088732 0.83867056331134215 1.5 0 0 1 I I #
point $-1 15.74235282123891 26.019330424655454 5.224165687745673 #
plane-surface $-1 62.062440870387888 0 0 -1 0 0 0 0 1 forward_v I I I I #
coedge $-1 $438 $436 $440 $601 reversed $301 $-1 #
edge $-1 $451 -7.9337836169714144 $603 7.9337836169714144 $450 $695 forward 7 unknown #
vertex $-1 $601 $696 #
straight-curve $-1 -62.062440870387888 -30.191776061471728 0 0 0 -1 I I #
edge $-1 $599 -30.191776061471728 $603 30.191776061471728 $597 $697 forward 7 unknown #
straight-curve $-1 0 -30.191776061471728 -7.9337836169714144 -1 0 0 I I #
vertex $-1 $443 $698 #
straight-curve $-1 0 30.191776061471728 -7.9337836169714144 1 0 0 I I #
point $-1 62.062440870387888 30.191776061471728 -7.9337836169714144 #
point $-1 62.062440870387888 -30.191776061471728 -7.9337836169714144 #
straight-curve $-1 -62.062440870387888 0 7.9337836169714144 0 -1 0 I I #
point $-1 -62.062440870387888 30.191776061471728 7.9337836169714144 #
point $-1 -62.062440870387888 -30.191776061471728 7.9337836169714144 #
straight-curve $-1 62.062440870387888 -30.191776061471728 0 0 0 -1 I I #
straight-curve $-1 62.062440870387888 30.191776061471728 0 0 0 -1 I I #
plane-surface $-1 0 30.191776061471728 0 0 -1 0 0 0 -1 forward_v I I I I #
coedge $-1 $623 $622 $466 $615 forward $461 $-1 #
straight-curve $-1 -51.839939733021964 -30.191776061471728 2.0305482123755576 0 0 1 I I #
edge $-1 $618 -30.191776061471728 $616 30.191776061471728 $613 $699 forward 7 unknown #
vertex $-1 $467 $700 #
straight-curve $-1 -28.475595150852463 -30.191776061471728 2.5610964247511152 1 0 0 I I #
vertex $-1 $469 $701 #
straight-curve $-1 -28.475595150852463 30.191776061471728 2.5610964247511152 -1 0 0 I I #
point $-1 -51.839939733021964 30.191776061471728 2.5610964247511152 #
point $-1 -51.839939733021964 -30.191776061471728 2.5610964247511152 #
coedge $-1 $613 $473 $476 $625 forward $461 $-1 #
coedge $-1 $473 $613 $480 $627 reversed $461 $-1 #
straight-curve $-1 -62.062440870387888 0 5.5610964247511152 0 1 0 I I #
edge $-1 $478 -5.5610964247511152 $618 -2.5610964247511152 $476 $702 forward 7 unknown #
point $-1 -62.062440870387888 30.191776061471728 5.5610964247511152 #
edge $-1 $481 -5.5610964247511152 $616 -2.5610964247511152 $623 $703 forward 7 unknown #
point $-1 -62.062440870387888 -30.191776061471728 5.5610964247511152 #
straight-curve $-1 -51.839939733021964 30.191776061471728 2.0305482123755576 0 0 -1 I I #
plane-surface $-1 0 30.191776061471728 0 0 -1 0 0 0 -1 forward_v I I I I #
coedge $-1 $704 $632 $493 $637 forward $487 $-1 #
coedge $-1 $631 $705 $489 $633 reversed $487 $-1 #
edge $-1 $640 -30.191776061471728 $645 30.191776061471728 $632 $706 forward 7 unknown #
coedge $-1 $491 $490 $704 $707 forward $206 $-1 #
edge $-1 $501 -4.4736326672293103 $708 4.4736326672292961 $499 $709 forward 7 unknown #
straight-curve $-1 62.062440870387888 0 -7.9337836169714144 0 1 0 I I #
edge $-1 $640 -1.5 $638 1.5 $631 $710 forward 7 unknown #
vertex $-1 $637 $711 #
straight-curve $-1 66.536073537617199 -30.191776061471728 -7.9337836169714144 -1 0 0 I I #
vertex $-1 $633 $712 #
straight-curve $-1 66.536073537617199 -30.191776061471728 -4.9337836169714144 1 0 0 I I #
point $-1 62.062440870387888 -30.191776061471728 -7.9337836169714144 #
coedge $-1 $499 $498 $705 $713 forward $500 $-1 #
point $-1 62.062440870387888 30.191776061471728 -7.9337836169714144 #
vertex $-1 $633 $714 #
straight-curve $-1 66.536073537617199 30.191776061471728 -4.9337836169714144 -1 0 0 I I #
coedge $-1 $648 $515 $517 $655 forward $506 $-1 #
coedge $-1 $511 $647 $508 $649 forward $506 $-1 #
edge $-1 $650 -51.839939733021957 $513 -35.854680226163588 $508 $715 forward 7 unknown #
vertex $-1 $649 $716 #
straight-curve $-1 -51.839939733021957 -30.191776061471728 44.09534684057585 0 0 -1 I I #
straight-curve $-1 -35.854680226163588 -58.980661336351616 7.9337836169714109 0 1 0 I I #
point $-1 -35.854680226163588 -30.191776061471728 7.9337836169714144 #
straight-curve $-1 -21.923654989796386 -22.679141725453341 7.9337836169714144 -1 0 0 I I #
edge $-1 $518 -36.301519610898275 $650 -28.788885274879888 $647 $717 forward 7 unknown #
point $-1 -51.839939733021957 -22.679141725453341 7.9337836169714144 #
point $-1 -35.854680226163588 -22.679141725453341 7.9337836169714144 #
vertex $-1 $524 $718 #
point $-1 -47.642887831650285 -23.673325020515257 1.4153325529448133 #
vertex $-1 $528 $719 #
point $-1 -42.847309979592772 -23.673325020515257 1.4153325529448133 #
vertex $-1 $532 $720 #
point $-1 -38.05173212753526 -23.673325020515257 1.4153325529448133 #
edge $-1 $665 28.788885274879888 $668 36.301519610898275 $537 $721 forward 7 unknown #
vertex $-1 $664 $722 #
straight-curve $-1 53.115175535929325 -30.191776061471728 44.09534684057585 0 0 1 I I #
edge $-1 $668 -30.553902644679255 $548 -14.568643137820885 $547 $723 forward 7 unknown #
vertex $-1 $667 $724 #
straight-curve $-1 53.115175535929325 -30.191776061471728 0.42114910662157001 0 -0.70710677298230451 -0.70710678939079041 I I #
point $-1 53.115175535929325 -30.191776061471728 0.42114910662157001 #
point $-1 37.129916029070955 -22.679141725453341 7.9337836169714144 #
straight-curve $-1 0 -30.191776061471728 7.9337836169714144 1 0 0 I I #
vertex $-1 $554 $725 #
point $-1 41.326967930442621 -23.673325020515257 1.4153325529448133 #
vertex $-1 $558 $726 #
point $-1 46.12254578250014 -23.673325020515257 1.4153325529448133 #
vertex $-1 $562 $727 #
point $-1 50.918123634557645 -23.673325020515257 1.4153325529448133 #
coedge $-1 $577 $576 $569 $680 forward $566 $-1 #
edge $-1 $681 61.817052502487684 $684 67.23628836093917 $679 $728 forward 7 unknown #
vertex $-1 $581 $729 #
straight-curve $-1 17.280980698403226 23.576562543085622 7.9337836169714109 0 1 0 I I #
edge $-1 $684 -12.438775195657016 $578 2.7543641901645941 $577 $730 forward 7 unknown #
vertex $-1 $683 $731 #
straight-curve $-1 17.280980698403226 -20.450131612217049 35.401787748428035 0 -0.83867056331134215 0.54463904215088732 I I #
point $-1 17.280980698403226 21.84688478783918 7.9337836169714144 #
point $-1 2.0878413125816166 30.191776061471728 2.5145477585199316 #
straight-curve $-1 0 30.191776061471728 7.9337836169714144 -1 0 0 I I #
vertex $-1 $584 $732 #
point $-1 6.6264691897459329 24.9866571030126 3.6339882503028589 #
vertex $-1 $588 $733 #
point $-1 11.184411005492422 24.9866571030126 3.6339882503028589 #
vertex $-1 $592 $734 #
point $-1 15.74235282123891 24.9866571030126 3.6339882503028589 #
straight-curve $-1 -62.062440870387888 30.191776061471728 0 0 0 -1 I I #
point $-1 -62.062440870387888 -30.191776061471728 -7.9337836169714144 #
straight-curve $-1 -62.062440870387888 0 -7.9337836169714144 0 1 0 I I #
point $-1 -62.062440870387888 30.191776061471728 -7.9337836169714144 #
straight-curve $-1 -62.062440870387888 0 2.5610964247511152 0 -1 0 I I #
point $-1 -62.062440870387888 -30.191776061471728 2.5610964247511152 #
point $-1 -62.062440870387888 30.191776061471728 2.5610964247511152 #
straight-curve $-1 -62.062440870387888 30.191776061471728 0 0 0 -1 I I #
straight-curve $-1 -62.062440870387888 -30.191776061471728 0 0 0 -1 I I #
coedge $-1 $705 $631 $634 $707 reversed $487 $-1 #
coedge $-1 $632 $704 $643 $713 reversed $487 $-1 #
straight-curve $-1 71.009706204846495 0 -4.9337836169714144 0 1 0 I I #
edge $-1 $708 -30.191776061471728 $638 30.191776061471728 $704 $735 forward 7 unknown #
vertex $-1 $707 $736 #
straight-curve $-1 66.536073537617199 30.191776061471728 -7.9337836169714144 1 0 0 I I #
straight-curve $-1 71.009706204846495 -30.191776061471728 -6.4337836169714144 0 0 -1 I I #
point $-1 71.009706204846495 -30.191776061471728 -7.9337836169714144 #
point $-1 71.009706204846495 -30.191776061471728 -4.9337836169714144 #
edge $-1 $645 -1.5 $708 1.5 $705 $737 forward 7 unknown #
point $-1 71.009706204846495 30.191776061471728 -4.9337836169714144 #
straight-curve $-1 0 -30.191776061471728 7.9337836169714144 1 0 0 I I #
point $-1 -51.839939733021957 -30.191776061471728 7.9337836169714144 #
straight-curve $-1 -51.839939733021957 -58.980661336351616 7.9337836169714109 0 -1 0 I I #
point $-1 -48.642887831650285 -22.966218231124465 0.70822577996250891 #
point $-1 -43.847309979592772 -22.966218231124465 0.70822577996250891 #
point $-1 -39.05173212753526 -22.966218231124465 0.70822577996250891 #
straight-curve $-1 53.115175535929325 -58.980661336351616 7.9337836169714109 0 1 0 I I #
point $-1 53.115175535929325 -30.191776061471728 7.9337836169714144 #
straight-curve $-1 22.56127289125007 -22.679141725453341 7.9337836169714144 -1 0 0 I I #
point $-1 53.115175535929325 -22.679141725453341 7.9337836169714144 #
point $-1 40.326967930442621 -22.966218231124465 0.70822577996250891 #
point $-1 45.12254578250014 -22.966218231124465 0.70822577996250891 #
point $-1 49.918123634557645 -22.966218231124465 0.70822577996250891 #
straight-curve $-1 17.280980698403226 30.191776061471728 69.750836119459095 0 0 -1 I I #
point $-1 17.280980698403226 30.191776061471728 7.9337836169714144 #
straight-curve $-1 4.8422055027462108 30.191776061471728 2.5145477585199316 -1 0 0 I I #
point $-1 17.280980698403226 30.191776061471728 2.5145477585199316 #
point $-1 5.1264691897459329 24.169698539786271 2.3759824053358445 #
point $-1 9.6844110054924215 24.169698539786271 2.3759824053358445 #
point $-1 14.24235282123891 24.169698539786271 2.3759824053358445 #
straight-curve $-1 71.009706204846495 0 -7.9337836169714144 0 -1 0 I I #
point $-1 71.009706204846495 30.191776061471728 -7.9337836169714144 #
straight-curve $-1 71.009706204846495 30.191776061471728 -6.4337836169714144 0 0 -1 I I #
End-of-ACIS-data 