500 0 14 0           
7 Unknown 11 ACIS 5.0 NT 24 Fri Mar 26 19:35:59 1999 
-1 9.9999999999999995e-007 1e-010 
body $-1 $14 $-1 $15 #
body $-1 $16 $-1 $17 #
body $-1 $18 $-1 $19 #
body $-1 $20 $-1 $21 #
body $-1 $22 $-1 $23 #
body $-1 $24 $-1 $25 #
body $-1 $26 $-1 $27 #
body $-1 $28 $-1 $29 #
body $-1 $30 $-1 $31 #
body $-1 $32 $-1 $33 #
body $-1 $34 $-1 $35 #
body $-1 $36 $-1 $37 #
body $-1 $38 $-1 $39 #
body $-1 $40 $-1 $41 #
lump $-1 $-1 $42 $0 #
transform $-1 1 0 0 0 1 0 0 0 1 77.674489577929023 32.583840342216966 14.923213916430685 1 rotate no_reflect no_shear #
lump $-1 $-1 $43 $1 #
transform $-1 1 0 0 0 1 0 0 0 1 77.674489577929023 32.583840342216966 14.923213916430685 1 rotate no_reflect no_shear #
lump $-1 $-1 $44 $2 #
transform $-1 1 0 0 0 1 0 0 0 1 77.674489577929023 32.583840342216966 14.923213916430685 1 rotate no_reflect no_shear #
lump $-1 $-1 $45 $3 #
transform $-1 1 0 0 0 1 0 0 0 1 77.674489577929023 32.583840342216966 14.923213916430685 1 rotate no_reflect no_shear #
lump $-1 $-1 $46 $4 #
transform $-1 1 0 0 0 1 0 0 0 1 77.674489577929023 32.583840342216966 14.923213916430685 1 rotate no_reflect no_shear #
lump $-1 $-1 $47 $5 #
transform $-1 1 0 0 0 1 0 0 0 1 77.674489577929023 32.583840342216966 14.923213916430685 1 rotate no_reflect no_shear #
lump $-1 $-1 $48 $6 #
transform $-1 1 0 0 0 1 0 0 0 1 77.674489577929023 32.583840342216966 14.923213916430685 1 rotate no_reflect no_shear #
lump $-1 $-1 $49 $7 #
transform $-1 1 0 0 0 1 0 0 0 1 77.674489577929023 32.583840342216966 14.923213916430685 1 rotate no_reflect no_shear #
lump $-1 $-1 $50 $8 #
transform $-1 1 0 0 0 1 0 0 0 1 77.674489577929023 32.583840342216966 14.923213916430685 1 rotate no_reflect no_shear #
lump $-1 $-1 $51 $9 #
transform $-1 1 0 0 0 1 0 0 0 1 77.674489577929023 32.583840342216966 14.923213916430685 1 rotate no_reflect no_shear #
lump $-1 $-1 $52 $10 #
transform $-1 1 0 0 0 1 0 0 0 1 77.674489577929023 32.583840342216966 14.923213916430685 1 rotate no_reflect no_shear #
lump $-1 $-1 $53 $11 #
transform $-1 1 0 0 0 1 0 0 0 1 77.674489577929023 32.583840342216966 14.923213916430685 1 rotate no_reflect no_shear #
lump $-1 $-1 $54 $12 #
transform $-1 1 0 0 0 1 0 0 0 1 77.674489577929023 32.583840342216966 14.923213916430685 1 rotate no_reflect no_shear #
lump $-1 $-1 $55 $13 #
transform $-1 1 0 0 0 1 0 0 0 1 77.674489577929023 32.583840342216966 14.923213916430685 1 rotate no_reflect no_shear #
shell $-1 $-1 $-1 $56 $-1 $14 #
shell $-1 $-1 $-1 $57 $-1 $16 #
shell $-1 $-1 $-1 $58 $-1 $18 #
shell $-1 $-1 $-1 $59 $-1 $20 #
shell $-1 $-1 $-1 $60 $-1 $22 #
shell $-1 $-1 $-1 $61 $-1 $24 #
shell $-1 $-1 $-1 $62 $-1 $26 #
shell $-1 $-1 $-1 $63 $-1 $28 #
shell $-1 $-1 $-1 $64 $-1 $30 #
shell $-1 $-1 $-1 $65 $-1 $32 #
shell $-1 $-1 $-1 $66 $-1 $34 #
shell $-1 $-1 $-1 $67 $-1 $36 #
shell $-1 $-1 $-1 $68 $-1 $38 #
shell $-1 $-1 $-1 $69 $-1 $40 #
face $-1 $70 $71 $42 $-1 $72 forward single #
face $-1 $73 $74 $43 $-1 $75 reversed single #
face $-1 $76 $77 $44 $-1 $78 reversed single #
face $-1 $79 $80 $45 $-1 $81 forward single #
face $-1 $82 $83 $46 $-1 $84 forward single #
face $-1 $85 $86 $47 $-1 $87 reversed single #
face $-1 $88 $89 $48 $-1 $90 forward single #
face $-1 $91 $92 $49 $-1 $93 forward single #
face $-1 $94 $95 $50 $-1 $96 reversed single #
face $-1 $97 $98 $51 $-1 $99 forward single #
face $-1 $100 $101 $52 $-1 $102 forward single #
face $-1 $103 $104 $53 $-1 $105 reversed single #
face $-1 $106 $107 $54 $-1 $108 forward single #
face $-1 $109 $110 $55 $-1 $111 forward single #
face $-1 $112 $113 $42 $-1 $114 reversed single #
loop $-1 $-1 $115 $56 #
plane-surface $-1 0 0 14.923213916430685 0 0 1 1 0 0 forward_v I I I I #
face $-1 $116 $117 $43 $-1 $118 reversed single #
loop $-1 $-1 $119 $57 #
plane-surface $-1 0 -27.269920100319048 10.474805468683099 0 0 1 1 0 0 forward_v I I I I #
face $-1 $120 $121 $44 $-1 $122 reversed single #
loop $-1 $-1 $123 $58 #
plane-surface $-1 -65.909176101773824 132.18007073289854 143.1947572862253 1 0 0 0 -0.85716730853699208 -0.51503806187062418 forward_v I I I I #
face $-1 $124 $125 $45 $-1 $126 forward single #
loop $-1 $127 $128 $59 #
cone-surface $-1 -58.174338583828302 29.332184179644948 10.541764567933376 0 -0.85716730853699208 -0.51503806187062418 1.5 0 0 1 I I 0 1 1.5 forward I I I I #
face $-1 $129 $130 $46 $-1 $131 forward single #
loop $-1 $132 $133 $60 #
cone-surface $-1 -46.572082306910026 29.332184179644948 10.541764567933376 0 -0.85716730853699208 -0.51503806187062418 1.5 0 0 1 I I 0 1 1.5 forward I I I I #
face $-1 $134 $135 $47 $-1 $136 reversed single #
loop $-1 $-1 $137 $61 #
plane-surface $-1 -27.071931312809312 132.18007073289854 143.1947572862253 1 0 0 0 -0.85716730853699208 -0.51503806187062418 forward_v I I I I #
face $-1 $138 $139 $48 $-1 $140 forward single #
loop $-1 $141 $142 $62 #
cone-surface $-1 -19.33709379486379 29.332184179644948 10.541764567933376 0 -0.85716730853699208 -0.51503806187062418 1.5 0 0 1 I I 0 1 1.5 forward I I I I #
face $-1 $143 $144 $49 $-1 $145 forward single #
loop $-1 $146 $147 $63 #
cone-surface $-1 -7.7348375179455218 29.332184179644948 10.541764567933376 0 -0.85716730853699208 -0.51503806187062418 1.5 0 0 1 I I 0 1 1.5 forward I I I I #
face $-1 $148 $149 $50 $-1 $150 reversed single #
loop $-1 $-1 $151 $64 #
plane-surface $-1 11.765313476155201 132.18007073289854 143.1947572862253 1 0 0 0 -0.85716730853699208 -0.51503806187062418 forward_v I I I I #
face $-1 $152 $153 $51 $-1 $154 forward single #
loop $-1 $155 $156 $65 #
cone-surface $-1 19.500150994100721 29.332184179644948 10.541764567933376 0 -0.85716730853699208 -0.51503806187062418 1.5 0 0 1 I I 0 1 1.5 forward I I I I #
face $-1 $157 $158 $52 $-1 $159 forward single #
loop $-1 $160 $161 $66 #
cone-surface $-1 31.10240727101899 29.332184179644948 10.541764567933376 0 -0.85716730853699208 -0.51503806187062418 1.5 0 0 1 I I 0 1 1.5 forward I I I I #
face $-1 $162 $163 $53 $-1 $164 reversed single #
loop $-1 $-1 $165 $67 #
plane-surface $-1 64.138523921524381 -0.9799956140975894 63.184120148212173 0 0.85716730853699208 0.51503806187062418 1 0 0 forward_v I I I I #
face $-1 $166 $167 $54 $-1 $168 forward single #
loop $-1 $169 $170 $68 #
cone-surface $-1 58.337395783065233 29.332184179644948 10.541764567933376 0 -0.85716730853699208 -0.51503806187062418 1.5 0 0 1 I I 0 1 1.5 forward I I I I #
face $-1 $171 $172 $55 $-1 $173 forward single #
loop $-1 $174 $175 $69 #
cone-surface $-1 69.939652059983501 29.332184179644948 10.541764567933376 0 -0.85716730853699208 -0.51503806187062418 1.5 0 0 1 I I 0 1 1.5 forward I I I I #
face $-1 $176 $177 $42 $-1 $178 reversed single #
loop $-1 $-1 $179 $70 #
plane-surface $-1 0 0 -14.923213916430685 0 0 1 1 0 0 forward_v I I I I #
coedge $-1 $180 $181 $182 $183 forward $71 $-1 #
face $-1 $184 $185 $43 $-1 $186 reversed single #
loop $-1 $-1 $187 $73 #
plane-surface $-1 0 -21.95599985842113 12.69900969255689 0 -1 0 0 0 -1 forward_v I I I I #
coedge $-1 $188 $189 $190 $191 reversed $74 $-1 #
face $-1 $192 $193 $44 $-1 $194 reversed single #
loop $-1 $-1 $195 $76 #
plane-surface $-1 -52.373210445369168 -0.9799956140975894 63.184120148212173 0 0.85716730853699208 0.51503806187062418 1 0 0 forward_v I I I I #
coedge $-1 $196 $197 $198 $199 reversed $77 $-1 #
face $-1 $-1 $200 $45 $-1 $201 forward single #
loop $-1 $202 $203 $79 #
cone-surface $-1 -58.174338583828302 27.720532016803418 9.5733862850795344 0 -0.85716730853699208 -0.51503806187062418 0.75 0 0 1 I I -0.70710678118654757 0.70710678118654757 0.75 forward I I I I #
loop $-1 $-1 $204 $59 #
coedge $-1 $128 $128 $205 $206 reversed $80 $-1 #
face $-1 $-1 $207 $46 $-1 $208 forward single #
loop $-1 $209 $210 $82 #
cone-surface $-1 -46.572082306910026 27.720532016803418 9.5733862850795344 0 -0.85716730853699208 -0.51503806187062418 0.75 0 0 1 I I -0.70710678118654757 0.70710678118654757 0.75 forward I I I I #
loop $-1 $-1 $211 $60 #
coedge $-1 $133 $133 $212 $213 reversed $83 $-1 #
face $-1 $214 $215 $47 $-1 $216 reversed single #
loop $-1 $-1 $217 $85 #
plane-surface $-1 -13.535965656404656 -0.9799956140975894 63.184120148212173 0 0.85716730853699208 0.51503806187062418 1 0 0 forward_v I I I I #
coedge $-1 $218 $219 $220 $221 reversed $86 $-1 #
face $-1 $-1 $222 $48 $-1 $223 forward single #
loop $-1 $224 $225 $88 #
cone-surface $-1 -19.33709379486379 27.720532016803418 9.5733862850795344 0 -0.85716730853699208 -0.51503806187062418 0.75 0 0 1 I I -0.70710678118654757 0.70710678118654757 0.75 forward I I I I #
loop $-1 $-1 $226 $62 #
coedge $-1 $142 $142 $227 $228 reversed $89 $-1 #
face $-1 $-1 $229 $49 $-1 $230 forward single #
loop $-1 $231 $232 $91 #
cone-surface $-1 -7.7348375179455218 27.720532016803418 9.5733862850795344 0 -0.85716730853699208 -0.51503806187062418 0.75 0 0 1 I I -0.70710678118654757 0.70710678118654757 0.75 forward I I I I #
loop $-1 $-1 $233 $63 #
coedge $-1 $147 $147 $234 $235 reversed $92 $-1 #
face $-1 $236 $237 $50 $-1 $238 reversed single #
loop $-1 $-1 $239 $94 #
plane-surface $-1 25.301279132559856 -0.9799956140975894 63.184120148212173 0 0.85716730853699208 0.51503806187062418 1 0 0 forward_v I I I I #
coedge $-1 $240 $241 $242 $243 reversed $95 $-1 #
face $-1 $-1 $244 $51 $-1 $245 forward single #
loop $-1 $246 $247 $97 #
cone-surface $-1 19.500150994100721 27.720532016803418 9.5733862850795344 0 -0.85716730853699208 -0.51503806187062418 0.75 0 0 1 I I -0.70710678118654757 0.70710678118654757 0.75 forward I I I I #
loop $-1 $-1 $248 $65 #
coedge $-1 $156 $156 $249 $250 reversed $98 $-1 #
face $-1 $-1 $251 $52 $-1 $252 forward single #
loop $-1 $253 $254 $100 #
cone-surface $-1 31.10240727101899 27.720532016803418 9.5733862850795344 0 -0.85716730853699208 -0.51503806187062418 0.75 0 0 1 I I -0.70710678118654757 0.70710678118654757 0.75 forward I I I I #
loop $-1 $-1 $255 $66 #
coedge $-1 $161 $161 $256 $257 reversed $101 $-1 #
face $-1 $258 $259 $53 $-1 $260 forward single #
loop $-1 $-1 $261 $103 #
plane-surface $-1 50.602558265119725 132.18007073289854 143.1947572862253 1 0 0 0 -0.85716730853699208 -0.51503806187062418 forward_v I I I I #
coedge $-1 $262 $263 $264 $265 reversed $104 $-1 #
face $-1 $-1 $266 $54 $-1 $267 forward single #
loop $-1 $268 $269 $106 #
cone-surface $-1 58.337395783065233 27.720532016803418 9.5733862850795344 0 -0.85716730853699208 -0.51503806187062418 0.75 0 0 1 I I -0.70710678118654757 0.70710678118654757 0.75 forward I I I I #
loop $-1 $-1 $270 $68 #
coedge $-1 $170 $170 $271 $272 reversed $107 $-1 #
face $-1 $-1 $273 $55 $-1 $274 forward single #
loop $-1 $275 $276 $109 #
cone-surface $-1 69.939652059983501 27.720532016803418 9.5733862850795344 0 -0.85716730853699208 -0.51503806187062418 0.75 0 0 1 I I -0.70710678118654757 0.70710678118654757 0.75 forward I I I I #
loop $-1 $-1 $277 $69 #
coedge $-1 $175 $175 $278 $279 reversed $110 $-1 #
face $-1 $280 $281 $42 $-1 $282 reversed single #
loop $-1 $-1 $283 $112 #
plane-surface $-1 0 -32.583840342216966 0 0 1 0 0 0 1 forward_v I I I I #
coedge $-1 $284 $285 $286 $287 forward $113 $-1 #
coedge $-1 $288 $115 $289 $290 forward $71 $-1 #
coedge $-1 $115 $288 $291 $292 forward $71 $-1 #
coedge $-1 $293 $294 $115 $183 reversed $295 $-1 #
edge $-1 $296 -32.583840342216966 $297 32.583840342216966 $182 $298 forward 7 unknown #
face $-1 $299 $300 $43 $-1 $301 reversed single #
loop $-1 $-1 $302 $116 #
plane-surface $-1 -77.674489577929023 0 0 1 0 0 0 0 -1 forward_v I I I I #
coedge $-1 $303 $304 $305 $306 reversed $117 $-1 #
coedge $-1 $307 $119 $308 $309 reversed $74 $-1 #
coedge $-1 $119 $307 $303 $310 forward $74 $-1 #
coedge $-1 $305 $311 $119 $191 forward $312 $-1 #
edge $-1 $313 -18.948880292057442 $314 -8.3210398082616059 $190 $315 forward 7 unknown #
face $-1 $316 $317 $44 $-1 $318 forward single #
loop $-1 $-1 $319 $120 #
plane-surface $-1 -38.837244788964512 132.18007073289854 143.1947572862253 -1 0 0 0 0.85716730853699208 0.51503806187062418 forward_v I I I I #
coedge $-1 $320 $321 $322 $323 reversed $121 $-1 #
coedge $-1 $197 $123 $324 $325 reversed $77 $-1 #
coedge $-1 $123 $196 $320 $326 reversed $77 $-1 #
coedge $-1 $322 $327 $123 $199 forward $317 $-1 #
edge $-1 $328 33.506195024232305 $329 38.071953986498769 $198 $330 forward 7 unknown #
loop $-1 $-1 $205 $124 #
plane-surface $-1 -52.373210445369168 -0.9799956140975894 63.184120148212173 0 0.85716730853699208 0.51503806187062418 1 0 0 forward_v I I I I #
loop $-1 $-1 $331 $79 #
coedge $-1 $203 $203 $204 $332 reversed $125 $-1 #
coedge $-1 $204 $204 $203 $332 forward $127 $-1 #
coedge $-1 $205 $205 $128 $206 forward $200 $-1 #
edge $-1 $333 0 $333 6.2831853071796004 $205 $334 forward 7 unknown #
loop $-1 $-1 $212 $129 #
plane-surface $-1 -52.373210445369168 -0.9799956140975894 63.184120148212173 0 0.85716730853699208 0.51503806187062418 1 0 0 forward_v I I I I #
loop $-1 $-1 $335 $82 #
coedge $-1 $210 $210 $211 $336 reversed $130 $-1 #
coedge $-1 $211 $211 $210 $336 forward $132 $-1 #
coedge $-1 $212 $212 $133 $213 forward $207 $-1 #
edge $-1 $337 0 $337 6.2831853071796004 $212 $338 forward 7 unknown #
face $-1 $339 $340 $47 $-1 $341 forward single #
loop $-1 $-1 $342 $134 #
plane-surface $-1 -1.7763568394002505e-015 132.18007073289854 143.1947572862253 -1 0 0 0 0.85716730853699208 0.51503806187062418 forward_v I I I I #
coedge $-1 $343 $344 $345 $346 reversed $135 $-1 #
coedge $-1 $219 $137 $347 $348 reversed $86 $-1 #
coedge $-1 $137 $218 $343 $349 reversed $86 $-1 #
coedge $-1 $345 $350 $137 $221 forward $340 $-1 #
edge $-1 $351 33.506195024232305 $352 38.071953986498769 $220 $353 forward 7 unknown #
loop $-1 $-1 $227 $138 #
plane-surface $-1 -13.535965656404656 -0.9799956140975894 63.184120148212173 0 0.85716730853699208 0.51503806187062418 1 0 0 forward_v I I I I #
loop $-1 $-1 $354 $88 #
coedge $-1 $225 $225 $226 $355 reversed $139 $-1 #
coedge $-1 $226 $226 $225 $355 forward $141 $-1 #
coedge $-1 $227 $227 $142 $228 forward $222 $-1 #
edge $-1 $356 0 $356 6.2831853071796004 $227 $357 forward 7 unknown #
loop $-1 $-1 $234 $143 #
plane-surface $-1 -13.535965656404656 -0.9799956140975894 63.184120148212173 0 0.85716730853699208 0.51503806187062418 1 0 0 forward_v I I I I #
loop $-1 $-1 $358 $91 #
coedge $-1 $232 $232 $233 $359 reversed $144 $-1 #
coedge $-1 $233 $233 $232 $359 forward $146 $-1 #
coedge $-1 $234 $234 $147 $235 forward $229 $-1 #
edge $-1 $360 0 $360 6.2831853071796004 $234 $361 forward 7 unknown #
face $-1 $362 $363 $50 $-1 $364 forward single #
loop $-1 $-1 $365 $148 #
plane-surface $-1 38.837244788964512 132.18007073289854 143.1947572862253 -1 0 0 0 0.85716730853699208 0.51503806187062418 forward_v I I I I #
coedge $-1 $366 $367 $368 $369 reversed $149 $-1 #
coedge $-1 $241 $151 $370 $371 reversed $95 $-1 #
coedge $-1 $151 $240 $366 $372 reversed $95 $-1 #
coedge $-1 $368 $373 $151 $243 forward $363 $-1 #
edge $-1 $374 33.506195024232305 $375 38.071953986498769 $242 $376 forward 7 unknown #
loop $-1 $-1 $249 $152 #
plane-surface $-1 25.301279132559856 -0.9799956140975894 63.184120148212173 0 0.85716730853699208 0.51503806187062418 1 0 0 forward_v I I I I #
loop $-1 $-1 $377 $97 #
coedge $-1 $247 $247 $248 $378 reversed $153 $-1 #
coedge $-1 $248 $248 $247 $378 forward $155 $-1 #
coedge $-1 $249 $249 $156 $250 forward $244 $-1 #
edge $-1 $379 0 $379 6.2831853071796004 $249 $380 forward 7 unknown #
loop $-1 $-1 $256 $157 #
plane-surface $-1 25.301279132559856 -0.9799956140975894 63.184120148212173 0 0.85716730853699208 0.51503806187062418 1 0 0 forward_v I I I I #
loop $-1 $-1 $381 $100 #
coedge $-1 $254 $254 $255 $382 reversed $158 $-1 #
coedge $-1 $255 $255 $254 $382 forward $160 $-1 #
coedge $-1 $256 $256 $161 $257 forward $251 $-1 #
edge $-1 $383 0 $383 6.2831853071796004 $256 $384 forward 7 unknown #
face $-1 $385 $386 $53 $-1 $387 reversed single #
loop $-1 $-1 $388 $162 #
plane-surface $-1 0 0 14.923213916430685 0 0 1 1 0 0 forward_v I I I I #
coedge $-1 $389 $390 $391 $392 reversed $163 $-1 #
coedge $-1 $393 $165 $394 $395 reversed $104 $-1 #
coedge $-1 $165 $393 $389 $396 forward $104 $-1 #
coedge $-1 $391 $397 $165 $265 forward $398 $-1 #
edge $-1 $399 -45.605227617166832 $400 -18.533296304357535 $264 $401 forward 7 unknown #
loop $-1 $-1 $271 $166 #
plane-surface $-1 64.138523921524381 -0.9799956140975894 63.184120148212173 0 0.85716730853699208 0.51503806187062418 1 0 0 forward_v I I I I #
loop $-1 $-1 $402 $106 #
coedge $-1 $269 $269 $270 $403 reversed $167 $-1 #
coedge $-1 $270 $270 $269 $403 forward $169 $-1 #
coedge $-1 $271 $271 $170 $272 forward $266 $-1 #
edge $-1 $404 0 $404 6.2831853071796004 $271 $405 forward 7 unknown #
loop $-1 $-1 $278 $171 #
plane-surface $-1 64.138523921524381 -0.9799956140975894 63.184120148212173 0 0.85716730853699208 0.51503806187062418 1 0 0 forward_v I I I I #
loop $-1 $-1 $406 $109 #
coedge $-1 $276 $276 $277 $407 reversed $172 $-1 #
coedge $-1 $277 $277 $276 $407 forward $174 $-1 #
coedge $-1 $278 $278 $175 $279 forward $273 $-1 #
edge $-1 $408 0 $408 6.2831853071796004 $278 $409 forward 7 unknown #
face $-1 $410 $411 $42 $-1 $412 reversed single #
loop $-1 $-1 $413 $176 #
plane-surface $-1 -77.674489577929023 0 0 1 0 0 0 0 -1 forward_v I I I I #
coedge $-1 $414 $291 $415 $416 forward $177 $-1 #
coedge $-1 $417 $179 $414 $418 forward $113 $-1 #
coedge $-1 $179 $417 $419 $420 forward $113 $-1 #
coedge $-1 $294 $293 $179 $287 reversed $295 $-1 #
edge $-1 $421 -32.583840342216966 $422 32.583840342216966 $286 $423 forward 7 unknown #
coedge $-1 $181 $180 $424 $425 forward $71 $-1 #
coedge $-1 $426 $427 $180 $290 reversed $411 $-1 #
edge $-1 $297 -77.674489577929023 $428 77.674489577929023 $289 $429 forward 7 unknown #
coedge $-1 $283 $430 $181 $292 reversed $177 $-1 #
edge $-1 $431 -77.674489577929023 $296 77.674489577929023 $291 $432 forward 7 unknown #
coedge $-1 $286 $182 $430 $433 forward $295 $-1 #
coedge $-1 $182 $286 $426 $434 reversed $295 $-1 #
loop $-1 $-1 $293 $410 #
vertex $-1 $183 $435 #
vertex $-1 $183 $436 #
straight-curve $-1 77.674489577929023 0 14.923213916430685 0 1 0 I I #
face $-1 $437 $438 $43 $-1 $439 forward single #
loop $-1 $-1 $308 $184 #
plane-surface $-1 0 -32.583840342216966 0 0 1 0 0 0 1 forward_v I I I I #
coedge $-1 $440 $441 $442 $443 forward $185 $-1 #
coedge $-1 $442 $187 $189 $310 reversed $117 $-1 #
coedge $-1 $187 $442 $444 $445 reversed $117 $-1 #
coedge $-1 $446 $190 $187 $306 forward $312 $-1 #
edge $-1 $314 4.1253006224046542 $447 8.5737090701522369 $305 $448 forward 7 unknown #
coedge $-1 $189 $188 $440 $449 reversed $74 $-1 #
coedge $-1 $450 $451 $188 $309 forward $300 $-1 #
edge $-1 $452 -77.674489577929023 $313 77.674489577929023 $308 $453 forward 7 unknown #
edge $-1 $454 -77.674489577929023 $314 77.674489577929023 $303 $455 forward 7 unknown #
coedge $-1 $190 $446 $450 $456 forward $312 $-1 #
loop $-1 $-1 $305 $437 #
vertex $-1 $309 $457 #
vertex $-1 $191 $458 #
straight-curve $-1 77.674489577929023 -13.634960050159524 10.474805468683099 0 1 0 I I #
face $-1 $-1 $459 $44 $-1 $460 reversed single #
loop $-1 $-1 $198 $192 #
plane-surface $-1 0 0 14.923213916430685 0 0 1 1 0 0 forward_v I I I I #
coedge $-1 $461 $462 $463 $464 reversed $193 $-1 #
coedge $-1 $465 $195 $197 $326 forward $121 $-1 #
coedge $-1 $195 $465 $461 $466 forward $121 $-1 #
coedge $-1 $463 $198 $195 $323 forward $317 $-1 #
edge $-1 $329 -39.72257087908924 $467 -12.650639566279928 $322 $468 forward 7 unknown #
coedge $-1 $469 $470 $196 $325 forward $459 $-1 #
edge $-1 $471 -64.27286395077482 $328 -56.674164726681965 $324 $472 forward 7 unknown #
edge $-1 $329 56.302784475241971 $471 65.167680684433932 $197 $473 forward 7 unknown #
coedge $-1 $198 $463 $469 $474 forward $317 $-1 #
vertex $-1 $325 $475 #
vertex $-1 $199 $476 #
straight-curve $-1 -65.909176101773824 66.090035366449271 14.923213916430683 0 -1 0 I I #
coedge $-1 $331 $331 $-1 $477 reversed $202 $-1 #
edge $-1 $478 0 $478 6.2831853071796004 $203 $479 forward 7 unknown #
vertex $-1 $206 $480 #
ellipse-curve $-1 -58.174338583828302 30.300960861083734 11.123864304384249 0 0.85716730853699208 0.51503806187062418 1.5 0 0 1 I I #
coedge $-1 $335 $335 $-1 $481 reversed $209 $-1 #
edge $-1 $482 0 $482 6.2831853071796004 $210 $483 forward 7 unknown #
vertex $-1 $213 $484 #
ellipse-curve $-1 -46.572082306910026 30.300960861083734 11.123864304384249 0 0.85716730853699208 0.51503806187062418 1.5 0 0 1 I I #
face $-1 $-1 $485 $47 $-1 $486 reversed single #
loop $-1 $-1 $220 $214 #
plane-surface $-1 0 0 14.923213916430685 0 0 1 1 0 0 forward_v I I I I #
coedge $-1 $487 $488 $489 $490 reversed $215 $-1 #
coedge $-1 $491 $217 $219 $349 forward $135 $-1 #
coedge $-1 $217 $491 $487 $492 forward $135 $-1 #
coedge $-1 $489 $220 $217 $346 forward $340 $-1 #
edge $-1 $352 -20.303948484606984 $493 6.7679828282023262 $345 $494 forward 7 unknown #
coedge $-1 $495 $496 $218 $348 forward $485 $-1 #
edge $-1 $497 -64.27286395077482 $351 -56.674164726681965 $347 $498 forward 7 unknown #
edge $-1 $352 56.302784475241971 $497 65.167680684433932 $219 $499 forward 7 unknown #
coedge $-1 $220 $489 $495 $500 forward $340 $-1 #
vertex $-1 $221 $501 #
vertex $-1 $221 $502 #
straight-curve $-1 -27.071931312809312 66.090035366449271 14.923213916430683 0 -1 0 I I #
coedge $-1 $354 $354 $-1 $503 reversed $224 $-1 #
edge $-1 $504 0 $504 6.2831853071796004 $225 $505 forward 7 unknown #
vertex $-1 $228 $506 #
ellipse-curve $-1 -19.33709379486379 30.300960861083734 11.123864304384249 0 0.85716730853699208 0.51503806187062418 1.5 0 0 1 I I #
coedge $-1 $358 $358 $-1 $507 reversed $231 $-1 #
edge $-1 $508 0 $508 6.2831853071796004 $232 $509 forward 7 unknown #
vertex $-1 $235 $510 #
ellipse-curve $-1 -7.7348375179455218 30.300960861083734 11.123864304384249 0 0.85716730853699208 0.51503806187062418 1.5 0 0 1 I I #
face $-1 $-1 $511 $50 $-1 $512 reversed single #
loop $-1 $-1 $242 $236 #
plane-surface $-1 0 0 14.923213916430685 0 0 1 1 0 0 forward_v I I I I #
coedge $-1 $513 $514 $515 $516 reversed $237 $-1 #
coedge $-1 $517 $239 $241 $372 forward $149 $-1 #
coedge $-1 $239 $517 $513 $518 forward $149 $-1 #
coedge $-1 $515 $242 $239 $369 forward $363 $-1 #
edge $-1 $375 -0.88532609012472641 $519 26.186605222684584 $368 $520 forward 7 unknown #
coedge $-1 $521 $522 $240 $371 forward $511 $-1 #
edge $-1 $523 -64.27286395077482 $374 -56.674164726681965 $370 $524 forward 7 unknown #
edge $-1 $375 56.302784475241971 $523 65.167680684433932 $241 $525 forward 7 unknown #
coedge $-1 $242 $515 $521 $526 forward $363 $-1 #
vertex $-1 $243 $527 #
vertex $-1 $243 $528 #
straight-curve $-1 11.765313476155201 66.090035366449271 14.923213916430683 0 -1 0 I I #
coedge $-1 $377 $377 $-1 $529 reversed $246 $-1 #
edge $-1 $530 0 $530 6.2831853071796004 $247 $531 forward 7 unknown #
vertex $-1 $250 $532 #
ellipse-curve $-1 19.500150994100721 30.300960861083734 11.123864304384249 0 0.85716730853699208 0.51503806187062418 1.5 0 0 1 I I #
coedge $-1 $381 $381 $-1 $533 reversed $253 $-1 #
edge $-1 $534 0 $534 6.2831853071796004 $254 $535 forward 7 unknown #
vertex $-1 $257 $536 #
ellipse-curve $-1 31.10240727101899 30.300960861083734 11.123864304384249 0 0.85716730853699208 0.51503806187062418 1.5 0 0 1 I I #
face $-1 $-1 $398 $53 $-1 $537 reversed single #
loop $-1 $-1 $394 $258 #
plane-surface $-1 77.674489577929023 0 0 -1 0 0 0 0 1 forward_v I I I I #
coedge $-1 $538 $539 $390 $540 forward $259 $-1 #
coedge $-1 $390 $261 $263 $396 reversed $163 $-1 #
coedge $-1 $261 $389 $388 $540 reversed $163 $-1 #
coedge $-1 $541 $264 $261 $392 forward $398 $-1 #
edge $-1 $400 -64.27286395077482 $542 -56.674164726681965 $391 $543 forward 7 unknown #
coedge $-1 $263 $262 $538 $544 reversed $104 $-1 #
coedge $-1 $545 $546 $262 $395 forward $386 $-1 #
edge $-1 $547 28.970735849518206 $399 37.835632058710161 $394 $548 forward 7 unknown #
edge $-1 $549 56.302784475241971 $400 65.167680684433932 $389 $550 forward 7 unknown #
coedge $-1 $264 $541 $545 $551 forward $398 $-1 #
loop $-1 $-1 $391 $385 #
vertex $-1 $395 $552 #
vertex $-1 $265 $553 #
straight-curve $-1 32.069261960762191 32.583840342216966 7.3245146923378286 -1 0 0 I I #
coedge $-1 $402 $402 $-1 $554 reversed $268 $-1 #
edge $-1 $555 0 $555 6.2831853071796004 $269 $556 forward 7 unknown #
vertex $-1 $272 $557 #
ellipse-curve $-1 58.337395783065233 30.300960861083734 11.123864304384249 0 0.85716730853699208 0.51503806187062418 1.5 0 0 1 I I #
coedge $-1 $406 $406 $-1 $558 reversed $275 $-1 #
edge $-1 $559 0 $559 6.2831853071796004 $276 $560 forward 7 unknown #
vertex $-1 $279 $561 #
ellipse-curve $-1 69.939652059983501 30.300960861083734 11.123864304384249 0 0.85716730853699208 0.51503806187062418 1.5 0 0 1 I I #
face $-1 $-1 $295 $42 $-1 $562 reversed single #
loop $-1 $-1 $426 $280 #
plane-surface $-1 0 32.583840342216966 0 0 -1 0 0 0 -1 forward_v I I I I #
coedge $-1 $563 $424 $427 $564 forward $281 $-1 #
coedge $-1 $430 $283 $284 $418 reversed $177 $-1 #
coedge $-1 $424 $563 $283 $416 reversed $281 $-1 #
edge $-1 $431 -14.923213916430685 $565 14.923213916430685 $415 $566 forward 7 unknown #
coedge $-1 $285 $284 $563 $567 forward $113 $-1 #
edge $-1 $422 -77.674489577929023 $565 77.674489577929023 $414 $568 forward 7 unknown #
coedge $-1 $427 $426 $285 $420 reversed $411 $-1 #
edge $-1 $569 -77.674489577929023 $421 77.674489577929023 $419 $570 forward 7 unknown #
vertex $-1 $287 $571 #
vertex $-1 $433 $572 #
straight-curve $-1 77.674489577929023 0 -14.923213916430685 0 -1 0 I I #
coedge $-1 $413 $415 $288 $425 reversed $281 $-1 #
edge $-1 $428 -32.583840342216966 $431 32.583840342216966 $424 $573 forward 7 unknown #
coedge $-1 $419 $289 $294 $434 forward $411 $-1 #
coedge $-1 $289 $419 $413 $564 reversed $411 $-1 #
vertex $-1 $290 $574 #
straight-curve $-1 0 32.583840342216966 14.923213916430685 -1 0 0 I I #
coedge $-1 $291 $414 $293 $433 reversed $177 $-1 #
vertex $-1 $425 $575 #
straight-curve $-1 0 -32.583840342216966 14.923213916430685 1 0 0 I I #
edge $-1 $296 -14.923213916430685 $422 14.923213916430685 $293 $576 forward 7 unknown #
edge $-1 $297 -14.923213916430685 $421 14.923213916430685 $294 $577 forward 7 unknown #
point $-1 77.674489577929023 -32.583840342216966 14.923213916430685 #
point $-1 77.674489577929023 32.583840342216966 14.923213916430685 #
face $-1 $-1 $312 $43 $-1 $578 reversed single #
loop $-1 $-1 $444 $299 #
plane-surface $-1 0 0 14.923213916430685 0 0 1 1 0 0 forward_v I I I I #
coedge $-1 $579 $302 $307 $449 forward $185 $-1 #
coedge $-1 $302 $579 $580 $581 reversed $185 $-1 #
coedge $-1 $304 $303 $302 $443 reversed $117 $-1 #
edge $-1 $582 -8.5737090701522369 $454 -4.1253006224046542 $302 $583 forward 7 unknown #
coedge $-1 $580 $584 $304 $445 forward $438 $-1 #
edge $-1 $447 -77.674489577929023 $582 77.674489577929023 $444 $585 forward 7 unknown #
coedge $-1 $311 $305 $584 $586 reversed $312 $-1 #
vertex $-1 $306 $587 #
straight-curve $-1 77.674489577929023 -21.95599985842113 6.3495048462784451 0 0 1 I I #
edge $-1 $454 8.3210398082616059 $452 18.948880292057442 $440 $588 forward 7 unknown #
coedge $-1 $589 $308 $311 $456 reversed $300 $-1 #
coedge $-1 $308 $589 $579 $590 forward $300 $-1 #
vertex $-1 $309 $591 #
straight-curve $-1 0 -32.583840342216966 10.474805468683099 1 0 0 I I #
vertex $-1 $449 $592 #
straight-curve $-1 0 -21.95599985842113 10.474805468683099 1 0 0 I I #
edge $-1 $593 -14.923213916430685 $313 -10.474805468683099 $311 $594 forward 7 unknown #
point $-1 77.674489577929023 -32.583840342216966 10.474805468683099 #
point $-1 77.674489577929023 -21.95599985842113 10.474805468683099 #
loop $-1 $-1 $324 $316 #
plane-surface $-1 0 32.583840342216966 0 0 -1 0 0 0 -1 forward_v I I I I #
coedge $-1 $462 $319 $321 $466 reversed $193 $-1 #
coedge $-1 $319 $461 $595 $596 reversed $193 $-1 #
coedge $-1 $327 $322 $319 $464 forward $317 $-1 #
edge $-1 $467 -38.071953986498769 $597 -33.506195024232305 $463 $598 forward 7 unknown #
coedge $-1 $321 $320 $470 $599 reversed $121 $-1 #
edge $-1 $600 -65.167680684433932 $467 -56.302784475241971 $461 $601 forward 7 unknown #
vertex $-1 $323 $602 #
straight-curve $-1 -26.186605222684584 28.018081379950495 14.923213916430687 1 0 0 I I #
coedge $-1 $595 $324 $327 $474 reversed $459 $-1 #
coedge $-1 $324 $595 $465 $599 forward $459 $-1 #
vertex $-1 $325 $603 #
straight-curve $-1 -65.909176101773824 32.583840342216966 71.597378643112648 0 0 1 I I #
straight-curve $-1 -65.909176101773824 -0.9799956140975894 63.184120148212173 0 0.51503806187062418 -0.85716730853699208 I I #
edge $-1 $597 38.837244788964512 $328 65.909176101773824 $469 $604 forward 7 unknown #
point $-1 -65.909176101773824 32.583840342216966 14.923213916430685 #
point $-1 -65.909176101773824 28.018081379950498 14.923213916430683 #
edge $-1 $605 1 $605 0 $331 $-1 forward 7 unknown #
vertex $-1 $332 $606 #
ellipse-curve $-1 -58.174338583828302 28.363407498206161 9.9596648314825025 0 0.85716730853699208 0.51503806187062418 1.5 0 0 1 I I #
point $-1 -56.674338583828302 30.300960861083734 11.123864304384249 #
edge $-1 $607 1 $607 0 $335 $-1 forward 7 unknown #
vertex $-1 $336 $608 #
ellipse-curve $-1 -46.572082306910026 28.363407498206161 9.9596648314825025 0 0.85716730853699208 0.51503806187062418 1.5 0 0 1 I I #
point $-1 -45.072082306910026 30.300960861083734 11.123864304384249 #
loop $-1 $-1 $347 $339 #
plane-surface $-1 0 32.583840342216966 0 0 -1 0 0 0 -1 forward_v I I I I #
coedge $-1 $488 $342 $344 $492 reversed $215 $-1 #
coedge $-1 $342 $487 $609 $610 reversed $215 $-1 #
coedge $-1 $350 $345 $342 $490 forward $340 $-1 #
edge $-1 $493 -38.071953986498769 $611 -33.506195024232305 $489 $612 forward 7 unknown #
coedge $-1 $344 $343 $496 $613 reversed $135 $-1 #
edge $-1 $614 -65.167680684433932 $493 -56.302784475241971 $487 $615 forward 7 unknown #
vertex $-1 $346 $616 #
straight-curve $-1 -6.767982828202328 28.018081379950495 14.923213916430687 1 0 0 I I #
coedge $-1 $609 $347 $350 $500 reversed $485 $-1 #
coedge $-1 $347 $609 $491 $613 forward $485 $-1 #
vertex $-1 $348 $617 #
straight-curve $-1 -27.071931312809312 32.583840342216966 71.597378643112648 0 0 1 I I #
straight-curve $-1 -27.071931312809312 -0.9799956140975894 63.184120148212173 0 0.51503806187062418 -0.85716730853699208 I I #
edge $-1 $611 1.7763568394002505e-015 $351 27.071931312809312 $495 $618 forward 7 unknown #
point $-1 -27.071931312809312 32.583840342216966 14.923213916430685 #
point $-1 -27.071931312809312 28.018081379950498 14.923213916430683 #
edge $-1 $619 1 $619 0 $354 $-1 forward 7 unknown #
vertex $-1 $355 $620 #
ellipse-curve $-1 -19.33709379486379 28.363407498206161 9.9596648314825025 0 0.85716730853699208 0.51503806187062418 1.5 0 0 1 I I #
point $-1 -17.83709379486379 30.300960861083734 11.123864304384249 #
edge $-1 $621 1 $621 0 $358 $-1 forward 7 unknown #
vertex $-1 $359 $622 #
ellipse-curve $-1 -7.7348375179455218 28.363407498206161 9.9596648314825025 0 0.85716730853699208 0.51503806187062418 1.5 0 0 1 I I #
point $-1 -6.2348375179455218 30.300960861083734 11.123864304384249 #
loop $-1 $-1 $370 $362 #
plane-surface $-1 0 32.583840342216966 0 0 -1 0 0 0 -1 forward_v I I I I #
coedge $-1 $514 $365 $367 $518 reversed $237 $-1 #
coedge $-1 $365 $513 $623 $624 reversed $237 $-1 #
coedge $-1 $373 $368 $365 $516 forward $363 $-1 #
edge $-1 $519 -38.071953986498769 $625 -33.506195024232305 $515 $626 forward 7 unknown #
coedge $-1 $367 $366 $522 $627 reversed $149 $-1 #
edge $-1 $628 -65.167680684433932 $519 -56.302784475241971 $513 $629 forward 7 unknown #
vertex $-1 $369 $630 #
straight-curve $-1 12.650639566279928 28.018081379950495 14.923213916430687 1 0 0 I I #
coedge $-1 $623 $370 $373 $526 reversed $511 $-1 #
coedge $-1 $370 $623 $517 $627 forward $511 $-1 #
vertex $-1 $371 $631 #
straight-curve $-1 11.765313476155201 32.583840342216966 71.597378643112648 0 0 1 I I #
straight-curve $-1 11.765313476155201 -0.9799956140975894 63.184120148212173 0 0.51503806187062418 -0.85716730853699208 I I #
edge $-1 $625 -38.837244788964512 $374 -11.765313476155201 $521 $632 forward 7 unknown #
point $-1 11.765313476155201 32.583840342216966 14.923213916430685 #
point $-1 11.765313476155201 28.018081379950498 14.923213916430683 #
edge $-1 $633 1 $633 0 $377 $-1 forward 7 unknown #
vertex $-1 $378 $634 #
ellipse-curve $-1 19.500150994100721 28.363407498206161 9.9596648314825025 0 0.85716730853699208 0.51503806187062418 1.5 0 0 1 I I #
point $-1 21.000150994100721 30.300960861083734 11.123864304384249 #
edge $-1 $635 1 $635 0 $381 $-1 forward 7 unknown #
vertex $-1 $382 $636 #
ellipse-curve $-1 31.10240727101899 28.363407498206161 9.9596648314825025 0 0.85716730853699208 0.51503806187062418 1.5 0 0 1 I I #
point $-1 32.60240727101899 30.300960861083734 11.123864304384249 #
plane-surface $-1 0 32.583840342216966 0 0 -1 0 0 0 -1 forward_v I I I I #
coedge $-1 $637 $388 $393 $544 forward $259 $-1 #
coedge $-1 $388 $637 $541 $638 forward $259 $-1 #
edge $-1 $542 33.506195024232305 $549 38.071953986498769 $388 $639 forward 7 unknown #
coedge $-1 $397 $391 $539 $638 reversed $398 $-1 #
vertex $-1 $540 $640 #
straight-curve $-1 50.602558265119725 32.583840342216966 71.597378643112648 0 0 1 I I #
edge $-1 $549 18.533296304357535 $547 45.605227617166847 $538 $641 forward 7 unknown #
coedge $-1 $546 $394 $397 $551 reversed $386 $-1 #
coedge $-1 $394 $545 $637 $642 reversed $386 $-1 #
vertex $-1 $642 $643 #
straight-curve $-1 77.674489577929023 13.097049737048829 39.755981590898351 0 0.51503806187062429 -0.85716730853699219 I I #
vertex $-1 $544 $644 #
straight-curve $-1 50.602558265119725 -0.9799956140975894 63.184120148212173 0 0.51503806187062418 -0.85716730853699208 I I #
edge $-1 $645 -14.923213916430685 $399 -7.3245146923378357 $545 $646 forward 7 unknown #
point $-1 77.674489577929023 32.583840342216966 7.3245146923378357 #
point $-1 50.602558265119725 32.583840342216966 7.3245146923378286 #
edge $-1 $647 1 $647 0 $402 $-1 forward 7 unknown #
vertex $-1 $403 $648 #
ellipse-curve $-1 58.337395783065233 28.363407498206161 9.9596648314825025 0 0.85716730853699208 0.51503806187062418 1.5 0 0 1 I I #
point $-1 59.837395783065233 30.300960861083734 11.123864304384249 #
edge $-1 $649 1 $649 0 $406 $-1 forward 7 unknown #
vertex $-1 $407 $650 #
ellipse-curve $-1 69.939652059983501 28.363407498206161 9.9596648314825025 0 0.85716730853699208 0.51503806187062418 1.5 0 0 1 I I #
point $-1 71.439652059983501 30.300960861083734 11.123864304384249 #
plane-surface $-1 77.674489577929023 0 0 -1 0 0 0 0 1 forward_v I I I I #
coedge $-1 $415 $413 $417 $567 reversed $281 $-1 #
edge $-1 $428 -14.923213916430685 $569 14.923213916430685 $427 $651 forward 7 unknown #
vertex $-1 $567 $652 #
straight-curve $-1 -77.674489577929023 -32.583840342216966 0 0 0 -1 I I #
edge $-1 $565 -32.583840342216966 $569 32.583840342216966 $563 $653 forward 7 unknown #
straight-curve $-1 0 -32.583840342216966 -14.923213916430685 -1 0 0 I I #
vertex $-1 $420 $654 #
straight-curve $-1 0 32.583840342216966 -14.923213916430685 1 0 0 I I #
point $-1 77.674489577929023 32.583840342216966 -14.923213916430685 #
point $-1 77.674489577929023 -32.583840342216966 -14.923213916430685 #
straight-curve $-1 -77.674489577929023 0 14.923213916430685 0 -1 0 I I #
point $-1 -77.674489577929023 32.583840342216966 14.923213916430685 #
point $-1 -77.674489577929023 -32.583840342216966 14.923213916430685 #
straight-curve $-1 77.674489577929023 -32.583840342216966 0 0 0 -1 I I #
straight-curve $-1 77.674489577929023 32.583840342216966 0 0 0 -1 I I #
plane-surface $-1 77.674489577929023 0 0 -1 0 0 0 0 1 forward_v I I I I #
coedge $-1 $441 $440 $451 $590 reversed $185 $-1 #
coedge $-1 $655 $444 $441 $581 forward $438 $-1 #
edge $-1 $582 21.95599985842113 $656 32.583840342216966 $441 $657 forward 7 unknown #
vertex $-1 $581 $658 #
straight-curve $-1 -77.674489577929023 -21.95599985842113 6.3495048462784451 0 0 -1 I I #
coedge $-1 $444 $655 $446 $586 forward $438 $-1 #
straight-curve $-1 0 -21.95599985842113 14.923213916430685 -1 0 0 I I #
edge $-1 $593 -32.583840342216966 $447 -21.95599985842113 $446 $659 forward 7 unknown #
point $-1 77.674489577929023 -21.95599985842113 14.923213916430681 #
straight-curve $-1 -77.674489577929023 -13.634960050159524 10.474805468683099 0 -1 0 I I #
coedge $-1 $451 $450 $655 $660 reversed $300 $-1 #
edge $-1 $656 -14.923213916430685 $452 -10.474805468683099 $579 $661 forward 7 unknown #
point $-1 -77.674489577929023 -32.583840342216966 10.474805468683099 #
point $-1 -77.674489577929023 -21.95599985842113 10.474805468683099 #
vertex $-1 $586 $662 #
straight-curve $-1 77.674489577929023 -32.583840342216966 0 0 0 -1 I I #
coedge $-1 $470 $469 $462 $596 forward $459 $-1 #
edge $-1 $597 56.674164726681965 $600 64.27286395077482 $595 $663 forward 7 unknown #
vertex $-1 $474 $664 #
straight-curve $-1 -38.837244788964512 66.090035366449271 14.923213916430683 0 1 0 I I #
edge $-1 $600 12.650639566279928 $471 39.72257087908924 $470 $665 forward 7 unknown #
vertex $-1 $599 $666 #
straight-curve $-1 -38.837244788964512 -0.9799956140975894 63.184120148212173 0 -0.51503806187062418 0.85716730853699208 I I #
point $-1 -38.837244788964512 28.018081379950498 14.923213916430683 #
point $-1 -65.909176101773824 32.583840342216966 7.3245146923378286 #
straight-curve $-1 0 32.583840342216966 14.923213916430685 -1 0 0 I I #
vertex $-1 $477 $667 #
point $-1 -56.674338583828302 28.363407498206161 9.9596648314825025 #
vertex $-1 $481 $668 #
point $-1 -45.072082306910026 28.363407498206161 9.9596648314825025 #
coedge $-1 $496 $495 $488 $610 forward $485 $-1 #
edge $-1 $611 56.674164726681965 $614 64.27286395077482 $609 $669 forward 7 unknown #
vertex $-1 $500 $670 #
straight-curve $-1 -1.7763568394002505e-015 66.090035366449271 14.923213916430683 0 1 0 I I #
edge $-1 $614 -6.7679828282023262 $497 20.303948484606984 $496 $671 forward 7 unknown #
vertex $-1 $613 $672 #
straight-curve $-1 -1.7763568394002505e-015 -0.9799956140975894 63.184120148212173 0 -0.51503806187062418 0.85716730853699208 I I #
point $-1 -1.7763568394002505e-015 28.018081379950498 14.923213916430683 #
point $-1 -27.071931312809312 32.583840342216966 7.3245146923378286 #
straight-curve $-1 0 32.583840342216966 14.923213916430685 -1 0 0 I I #
vertex $-1 $503 $673 #
point $-1 -17.83709379486379 28.363407498206161 9.9596648314825025 #
vertex $-1 $507 $674 #
point $-1 -6.2348375179455218 28.363407498206161 9.9596648314825025 #
coedge $-1 $522 $521 $514 $624 forward $511 $-1 #
edge $-1 $625 56.674164726681965 $628 64.27286395077482 $623 $675 forward 7 unknown #
vertex $-1 $526 $676 #
straight-curve $-1 38.837244788964512 66.090035366449271 14.923213916430683 0 1 0 I I #
edge $-1 $628 -26.186605222684584 $523 0.88532609012472641 $522 $677 forward 7 unknown #
vertex $-1 $627 $678 #
straight-curve $-1 38.837244788964512 -0.9799956140975894 63.184120148212173 0 -0.51503806187062418 0.85716730853699208 I I #
point $-1 38.837244788964512 28.018081379950498 14.923213916430683 #
point $-1 11.765313476155201 32.583840342216966 7.3245146923378286 #
straight-curve $-1 0 32.583840342216966 14.923213916430685 -1 0 0 I I #
vertex $-1 $529 $679 #
point $-1 21.000150994100721 28.363407498206161 9.9596648314825025 #
vertex $-1 $533 $680 #
point $-1 32.60240727101899 28.363407498206161 9.9596648314825025 #
coedge $-1 $539 $538 $546 $642 forward $259 $-1 #
edge $-1 $645 -77.674489577929023 $542 -50.602558265119725 $541 $681 forward 7 unknown #
straight-curve $-1 50.602558265119725 66.090035366449271 14.923213916430683 0 -1 0 I I #
point $-1 50.602558265119725 32.583840342216966 14.923213916430685 #
straight-curve $-1 32.069261960762191 28.018081379950495 14.923213916430687 1 0 0 I I #
edge $-1 $547 28.018081379950498 $645 32.583840342216966 $546 $682 forward 7 unknown #
point $-1 77.674489577929037 28.018081379950498 14.923213916430683 #
point $-1 50.602558265119725 28.018081379950498 14.923213916430683 #
vertex $-1 $642 $683 #
straight-curve $-1 77.674489577929023 32.583840342216966 0 0 0 -1 I I #
vertex $-1 $554 $684 #
point $-1 59.837395783065233 28.363407498206161 9.9596648314825025 #
vertex $-1 $558 $685 #
point $-1 71.439652059983501 28.363407498206161 9.9596648314825025 #
straight-curve $-1 -77.674489577929023 32.583840342216966 0 0 0 -1 I I #
point $-1 -77.674489577929023 -32.583840342216966 -14.923213916430685 #
straight-curve $-1 -77.674489577929023 0 -14.923213916430685 0 1 0 I I #
point $-1 -77.674489577929023 32.583840342216966 -14.923213916430685 #
coedge $-1 $584 $580 $589 $660 forward $438 $-1 #
vertex $-1 $581 $686 #
straight-curve $-1 -77.674489577929023 0 14.923213916430685 0 -1 0 I I #
point $-1 -77.674489577929023 -21.95599985842113 14.923213916430681 #
straight-curve $-1 77.674489577929023 0 14.923213916430685 0 1 0 I I #
edge $-1 $656 -77.674489577929023 $593 77.674489577929023 $589 $687 forward 7 unknown #
straight-curve $-1 -77.674489577929023 -32.583840342216966 0 0 0 -1 I I #
point $-1 77.674489577929023 -32.583840342216966 14.923213916430685 #
straight-curve $-1 -38.837244788964512 32.583840342216966 71.597378643112648 0 0 -1 I I #
point $-1 -38.837244788964512 32.583840342216966 14.923213916430685 #
straight-curve $-1 -26.186605222684584 32.583840342216966 7.3245146923378286 -1 0 0 I I #
point $-1 -38.837244788964512 32.583840342216966 7.3245146923378286 #
point $-1 -58.174338583828302 27.077656535400674 9.1871077386765663 #
point $-1 -46.572082306910026 27.077656535400674 9.1871077386765663 #
straight-curve $-1 -1.7763568394002505e-015 32.583840342216966 71.597378643112648 0 0 -1 I I #
point $-1 -1.7763568394002505e-015 32.583840342216966 14.923213916430685 #
straight-curve $-1 -6.767982828202328 32.583840342216966 7.3245146923378286 -1 0 0 I I #
point $-1 -1.7763568394002505e-015 32.583840342216966 7.3245146923378286 #
point $-1 -19.33709379486379 27.077656535400674 9.1871077386765663 #
point $-1 -7.7348375179455218 27.077656535400674 9.1871077386765663 #
straight-curve $-1 38.837244788964512 32.583840342216966 71.597378643112648 0 0 -1 I I #
point $-1 38.837244788964512 32.583840342216966 14.923213916430685 #
straight-curve $-1 12.650639566279928 32.583840342216966 7.3245146923378286 -1 0 0 I I #
point $-1 38.837244788964512 32.583840342216966 7.3245146923378286 #
point $-1 19.500150994100721 27.077656535400674 9.1871077386765663 #
point $-1 31.10240727101899 27.077656535400674 9.1871077386765663 #
straight-curve $-1 0 32.583840342216966 14.923213916430685 -1 0 0 I I #
straight-curve $-1 77.674489577929023 0 14.923213916430685 0 1 0 I I #
point $-1 77.674489577929023 32.583840342216966 14.923213916430685 #
point $-1 58.337395783065233 27.077656535400674 9.1871077386765663 #
point $-1 69.939652059983501 27.077656535400674 9.1871077386765663 #
point $-1 -77.674489577929023 -32.583840342216966 14.923213916430685 #
straight-curve $-1 0 -32.583840342216966 14.923213916430685 1 0 0 I I #
End-of-ACIS-data 