500 0 6 0           
7 Unknown 11 ACIS 5.0 NT 24 Thu Mar 25 16:39:09 1999 
-1 9.9999999999999995e-007 1e-010 
body $-1 $6 $-1 $7 #
body $-1 $8 $-1 $9 #
body $-1 $10 $-1 $11 #
body $-1 $12 $-1 $13 #
body $-1 $14 $-1 $15 #
body $-1 $16 $-1 $17 #
lump $-1 $-1 $18 $0 #
transform $-1 1 0 0 0 1 0 0 0 1 61.329996642963962 25.580337874072214 7.9812964961505388 1 rotate no_reflect no_shear #
lump $-1 $-1 $19 $1 #
transform $-1 1 0 0 0 1 0 0 0 1 61.329996642963962 25.580337874072214 7.9812964961505388 1 rotate no_reflect no_shear #
lump $-1 $-1 $20 $2 #
transform $-1 1 0 0 0 1 0 0 0 1 61.329996642963962 25.580337874072214 7.9812964961505388 1 rotate no_reflect no_shear #
lump $-1 $-1 $21 $3 #
transform $-1 1 0 0 0 1 0 0 0 1 61.329996642963962 25.580337874072214 7.9812964961505388 1 rotate no_reflect no_shear #
lump $-1 $-1 $22 $4 #
transform $-1 1 0 0 0 1 0 0 0 1 61.329996642963962 25.580337874072214 7.9812964961505388 1 rotate no_reflect no_shear #
lump $-1 $-1 $23 $5 #
transform $-1 1 0 0 0 1 0 0 0 1 61.329996642963962 25.580337874072214 7.9812964961505388 1 rotate no_reflect no_shear #
shell $-1 $-1 $-1 $24 $-1 $6 #
shell $-1 $-1 $-1 $25 $-1 $8 #
shell $-1 $-1 $-1 $26 $-1 $10 #
shell $-1 $-1 $-1 $27 $-1 $12 #
shell $-1 $-1 $-1 $28 $-1 $14 #
shell $-1 $-1 $-1 $29 $-1 $16 #
face $-1 $30 $31 $18 $-1 $32 forward single #
face $-1 $33 $34 $19 $-1 $35 reversed single #
face $-1 $36 $37 $20 $-1 $38 reversed single #
face $-1 $39 $40 $21 $-1 $41 forward single #
face $-1 $42 $43 $22 $-1 $44 reversed single #
face $-1 $45 $46 $23 $-1 $47 forward single #
face $-1 $48 $49 $18 $-1 $50 reversed single #
loop $-1 $-1 $51 $24 #
plane-surface $-1 0 0 7.9812964961505388 0 0 1 1 0 0 forward_v I I I I #
face $-1 $52 $53 $19 $-1 $54 reversed single #
loop $-1 $-1 $55 $25 #
plane-surface $-1 -58.968344479576203 -19.667387532556589 0 0 -1 0 0 0 -1 forward_v I I I I #
face $-1 $56 $57 $20 $-1 $58 reversed single #
loop $-1 $-1 $59 $26 #
plane-surface $-1 -167.5566678053855 14.849481083654428 63.302173088700179 0 1 0 -0.86602541151947299 0 0.49999998660252726 forward_v I I I I #
face $-1 $60 $61 $21 $-1 $62 forward single #
loop $-1 $63 $64 $27 #
cone-surface $-1 -58.404135555793566 20.214909478863326 4.2890103296237134 0.86602541151947299 0 -0.49999998660252726 0.49999998660252726 0 0.86602541151947299 1 I I 0 1 1 forward I I I I #
face $-1 $65 $66 $22 $-1 $67 reversed single #
loop $-1 $-1 $68 $28 #
plane-surface $-1 106.22667280575546 14.849481083654428 169.52884425112171 0 1 0 0.86602541151947299 0 0.49999998660252726 forward_v I I I I #
face $-1 $69 $70 $23 $-1 $71 forward single #
loop $-1 $72 $73 $29 #
cone-surface $-1 58.404135555793573 20.214909478863326 4.2890103296237259 -0.86602541151947299 0 -0.49999998660252726 0.49999998660252726 0 -0.86602541151947299 1 I I 0 1 1 forward I I I I #
face $-1 $74 $75 $18 $-1 $76 reversed single #
loop $-1 $-1 $77 $30 #
plane-surface $-1 0 0 -7.9812964961505388 0 0 1 1 0 0 forward_v I I I I #
coedge $-1 $78 $79 $80 $81 forward $31 $-1 #
face $-1 $82 $83 $19 $-1 $84 forward single #
loop $-1 $-1 $85 $33 #
plane-surface $-1 -56.606692316188443 -22.623862703314401 0 -1 0 0 0 0 1 forward_v I I I I #
coedge $-1 $86 $87 $88 $89 forward $34 $-1 #
face $-1 $90 $91 $20 $-1 $92 reversed single #
loop $-1 $-1 $93 $36 #
plane-surface $-1 -61.329996642963977 20.214909478863319 1.9721780890701339 -0.86602541151947299 0 0.49999998660252726 0.49999998660252726 0 0.86602541151947299 forward_v I I I I #
coedge $-1 $94 $95 $96 $97 reversed $37 $-1 #
face $-1 $-1 $98 $21 $-1 $99 forward single #
loop $-1 $100 $101 $39 #
cone-surface $-1 -56.77994476584923 20.214909478863326 3.3512833733358294 0.86602541151947299 0 -0.49999998660252726 0.24999999330126363 0 0.43301270575973649 1 I I -0.70710678118654746 0.70710678118654746 0.5 forward I I I I #
loop $-1 $-1 $102 $27 #
coedge $-1 $64 $64 $103 $104 reversed $40 $-1 #
face $-1 $105 $106 $22 $-1 $107 reversed single #
loop $-1 $-1 $108 $42 #
plane-surface $-1 1.6433339311561213e-006 20.214909478863319 108.19884925149167 0.86602541151947299 0 0.49999998660252726 0.49999998660252726 0 -0.86602541151947299 forward_v I I I I #
coedge $-1 $109 $110 $111 $112 reversed $43 $-1 #
face $-1 $-1 $113 $23 $-1 $114 forward single #
loop $-1 $115 $116 $45 #
cone-surface $-1 56.779944765849237 20.214909478863326 3.3512833733358418 -0.86602541151947299 0 -0.49999998660252726 0.24999999330126363 0 -0.43301270575973649 1 I I -0.70710678118654746 0.70710678118654746 0.5 forward I I I I #
loop $-1 $-1 $117 $29 #
coedge $-1 $73 $73 $118 $119 reversed $46 $-1 #
face $-1 $120 $121 $18 $-1 $122 reversed single #
loop $-1 $-1 $123 $48 #
plane-surface $-1 0 -25.580337874072214 0 0 1 0 0 0 1 forward_v I I I I #
coedge $-1 $124 $125 $126 $127 forward $49 $-1 #
coedge $-1 $128 $51 $129 $130 forward $31 $-1 #
coedge $-1 $51 $128 $131 $132 forward $31 $-1 #
coedge $-1 $133 $134 $51 $81 reversed $135 $-1 #
edge $-1 $136 -25.580337874072214 $137 25.580337874072214 $80 $138 forward 7 unknown #
face $-1 $139 $140 $19 $-1 $141 reversed single #
loop $-1 $-1 $142 $52 #
plane-surface $-1 0 0 7.9812964961505388 0 0 1 1 0 0 forward_v I I I I #
coedge $-1 $143 $144 $145 $146 reversed $53 $-1 #
coedge $-1 $147 $55 $148 $149 reversed $34 $-1 #
coedge $-1 $55 $147 $150 $151 reversed $34 $-1 #
coedge $-1 $144 $143 $55 $89 reversed $53 $-1 #
edge $-1 $152 -7.9812964961505388 $153 7.9812964961505388 $88 $154 forward 7 unknown #
face $-1 $155 $156 $20 $-1 $157 reversed single #
loop $-1 $-1 $158 $56 #
plane-surface $-1 0 25.580337874072214 0 0 -1 0 0 0 -1 forward_v I I I I #
coedge $-1 $159 $160 $161 $162 reversed $57 $-1 #
coedge $-1 $95 $59 $163 $164 reversed $37 $-1 #
coedge $-1 $59 $94 $159 $165 reversed $37 $-1 #
coedge $-1 $161 $166 $59 $97 forward $167 $-1 #
edge $-1 $168 22.448337259728788 $169 25.917703265700347 $96 $170 forward 7 unknown #
loop $-1 $-1 $103 $60 #
plane-surface $-1 -61.329996642963977 20.214909478863319 1.9721780890701339 -0.86602541151947299 0 0.49999998660252726 0.49999998660252726 0 0.86602541151947299 forward_v I I I I #
loop $-1 $-1 $171 $39 #
coedge $-1 $101 $101 $102 $172 reversed $61 $-1 #
coedge $-1 $102 $102 $101 $172 forward $63 $-1 #
coedge $-1 $103 $103 $64 $104 forward $98 $-1 #
edge $-1 $173 0 $173 6.2831853071796004 $103 $174 forward 7 unknown #
face $-1 $175 $176 $22 $-1 $177 reversed single #
loop $-1 $-1 $111 $65 #
plane-surface $-1 61.329996642963962 0 0 -1 0 0 0 0 1 forward_v I I I I #
coedge $-1 $178 $179 $180 $181 reversed $66 $-1 #
coedge $-1 $110 $68 $182 $183 reversed $43 $-1 #
coedge $-1 $68 $109 $178 $184 reversed $43 $-1 #
coedge $-1 $180 $185 $68 $112 forward $106 $-1 #
edge $-1 $186 76.783125629410321 $187 82.792244036490686 $111 $188 forward 7 unknown #
loop $-1 $-1 $118 $69 #
plane-surface $-1 1.6433339311561213e-006 20.214909478863319 108.19884925149167 0.86602541151947299 0 0.49999998660252726 0.49999998660252726 0 -0.86602541151947299 forward_v I I I I #
loop $-1 $-1 $189 $45 #
coedge $-1 $116 $116 $117 $190 reversed $70 $-1 #
coedge $-1 $117 $117 $116 $190 forward $72 $-1 #
coedge $-1 $118 $118 $73 $119 forward $113 $-1 #
edge $-1 $191 0 $191 6.2831853071796004 $118 $192 forward 7 unknown #
face $-1 $193 $194 $18 $-1 $195 reversed single #
loop $-1 $-1 $196 $74 #
plane-surface $-1 -61.329996642963962 0 0 1 0 0 0 0 -1 forward_v I I I I #
coedge $-1 $197 $131 $198 $199 forward $75 $-1 #
coedge $-1 $200 $77 $197 $201 forward $49 $-1 #
coedge $-1 $77 $200 $202 $203 forward $49 $-1 #
coedge $-1 $134 $133 $77 $127 reversed $135 $-1 #
edge $-1 $204 -25.580337874072214 $205 25.580337874072214 $126 $206 forward 7 unknown #
coedge $-1 $79 $78 $207 $208 forward $31 $-1 #
coedge $-1 $209 $210 $78 $130 reversed $194 $-1 #
edge $-1 $137 -61.329996642963962 $211 61.329996642963962 $129 $212 forward 7 unknown #
coedge $-1 $123 $213 $79 $132 reversed $75 $-1 #
edge $-1 $214 -61.329996642963962 $136 61.329996642963962 $131 $215 forward 7 unknown #
coedge $-1 $126 $80 $213 $216 forward $135 $-1 #
coedge $-1 $80 $126 $209 $217 reversed $135 $-1 #
loop $-1 $-1 $133 $193 #
vertex $-1 $81 $218 #
vertex $-1 $81 $219 #
straight-curve $-1 61.329996642963962 0 7.9812964961505388 0 1 0 I I #
face $-1 $220 $221 $19 $-1 $222 reversed single #
loop $-1 $-1 $223 $82 #
plane-surface $-1 -61.329996642963962 0 0 1 0 0 0 0 -1 forward_v I I I I #
coedge $-1 $150 $224 $144 $225 forward $83 $-1 #
coedge $-1 $88 $85 $226 $227 reversed $53 $-1 #
coedge $-1 $85 $88 $142 $225 reversed $53 $-1 #
coedge $-1 $228 $229 $85 $146 forward $230 $-1 #
edge $-1 $231 -7.9812964961505388 $232 7.9812964961505388 $145 $233 forward 7 unknown #
coedge $-1 $87 $86 $223 $234 reversed $34 $-1 #
coedge $-1 $226 $235 $86 $149 forward $221 $-1 #
edge $-1 $236 -31.845824403175861 $153 -27.122520076400342 $148 $237 forward 7 unknown #
coedge $-1 $238 $142 $87 $151 forward $83 $-1 #
edge $-1 $152 27.122520076400342 $239 31.845824403175861 $150 $240 forward 7 unknown #
vertex $-1 $151 $241 #
vertex $-1 $149 $242 #
straight-curve $-1 -56.606692316188443 -19.667387532556589 0 0 0 -1 I I #
face $-1 $-1 $167 $20 $-1 $243 forward single #
loop $-1 $-1 $244 $90 #
plane-surface $-1 -61.329996642963962 0 0 1 0 0 0 0 -1 forward_v I I I I #
coedge $-1 $245 $246 $160 $247 forward $91 $-1 #
coedge $-1 $248 $93 $95 $165 forward $57 $-1 #
coedge $-1 $93 $248 $158 $247 reversed $57 $-1 #
coedge $-1 $249 $96 $93 $162 forward $167 $-1 #
edge $-1 $169 4.7420263442227686 $250 15.472883134640551 $161 $251 forward 7 unknown #
coedge $-1 $252 $244 $94 $164 forward $156 $-1 #
edge $-1 $253 -29.678908455279931 $168 -23.669790048199552 $163 $254 forward 7 unknown #
edge $-1 $169 -6.9387321978660976 $253 -2.8450313176714033e-014 $95 $255 forward 7 unknown #
coedge $-1 $96 $249 $252 $256 forward $167 $-1 #
loop $-1 $-1 $161 $155 #
vertex $-1 $164 $257 #
vertex $-1 $97 $258 #
straight-curve $-1 -83.778333902692751 14.849481083654428 7.9812964961505379 1 0 0 I I #
coedge $-1 $171 $171 $-1 $259 reversed $100 $-1 #
edge $-1 $260 0 $260 6.2831853071796004 $101 $261 forward 7 unknown #
vertex $-1 $104 $262 #
ellipse-curve $-1 -59.595313639978187 20.214909478863326 4.9767372926103439 -0.86602541151947299 0 0.49999998660252726 0.49999998660252726 0 0.86602541151947299 1 I I #
face $-1 $-1 $263 $22 $-1 $264 forward single #
loop $-1 $-1 $265 $105 #
plane-surface $-1 0 25.580337874072214 0 0 -1 0 0 0 -1 forward_v I I I I #
coedge $-1 $266 $108 $110 $184 forward $66 $-1 #
coedge $-1 $108 $266 $265 $267 reversed $66 $-1 #
coedge $-1 $268 $111 $108 $181 forward $106 $-1 #
edge $-1 $187 4.7420263442227686 $269 15.472883134640554 $180 $270 forward 7 unknown #
coedge $-1 $271 $272 $109 $183 forward $263 $-1 #
edge $-1 $273 4.7472942341146833 $186 8.2166602400862345 $182 $274 forward 7 unknown #
edge $-1 $187 -122.6599932859279 $273 -115.72126108806182 $110 $275 forward 7 unknown #
coedge $-1 $111 $268 $271 $276 reversed $106 $-1 #
vertex $-1 $276 $277 #
vertex $-1 $112 $278 #
straight-curve $-1 61.329996642963962 14.849481083654428 84.764422125560856 0 0 -1 I I #
coedge $-1 $189 $189 $-1 $279 reversed $115 $-1 #
edge $-1 $280 0 $280 6.2831853071796004 $116 $281 forward 7 unknown #
vertex $-1 $119 $282 #
ellipse-curve $-1 59.595313639978187 20.214909478863326 4.9767372926103519 0.86602541151947299 0 0.49999998660252726 0.49999998660252726 0 -0.86602541151947299 1 I I #
face $-1 $-1 $135 $18 $-1 $283 reversed single #
loop $-1 $-1 $209 $120 #
plane-surface $-1 0 25.580337874072214 0 0 -1 0 0 0 -1 forward_v I I I I #
coedge $-1 $284 $207 $210 $285 forward $121 $-1 #
coedge $-1 $213 $123 $124 $201 reversed $75 $-1 #
coedge $-1 $207 $284 $123 $199 reversed $121 $-1 #
edge $-1 $214 -7.9812964961505388 $286 7.9812964961505388 $198 $287 forward 7 unknown #
coedge $-1 $125 $124 $284 $288 forward $49 $-1 #
edge $-1 $205 -61.329996642963962 $286 61.329996642963962 $197 $289 forward 7 unknown #
coedge $-1 $210 $209 $125 $203 reversed $194 $-1 #
edge $-1 $290 -61.329996642963962 $204 61.329996642963962 $202 $291 forward 7 unknown #
vertex $-1 $127 $292 #
vertex $-1 $216 $293 #
straight-curve $-1 61.329996642963962 0 -7.9812964961505388 0 -1 0 I I #
coedge $-1 $196 $198 $128 $208 reversed $121 $-1 #
edge $-1 $211 -25.580337874072214 $214 25.580337874072214 $207 $294 forward 7 unknown #
coedge $-1 $202 $129 $134 $217 forward $194 $-1 #
coedge $-1 $129 $202 $196 $285 reversed $194 $-1 #
vertex $-1 $130 $295 #
straight-curve $-1 0 25.580337874072214 7.9812964961505388 -1 0 0 I I #
coedge $-1 $131 $197 $133 $216 reversed $75 $-1 #
vertex $-1 $208 $296 #
straight-curve $-1 0 -25.580337874072214 7.9812964961505388 1 0 0 I I #
edge $-1 $136 -7.9812964961505388 $205 7.9812964961505388 $133 $297 forward 7 unknown #
edge $-1 $137 -7.9812964961505388 $204 7.9812964961505388 $134 $298 forward 7 unknown #
point $-1 61.329996642963962 -25.580337874072214 7.9812964961505388 #
point $-1 61.329996642963962 25.580337874072214 7.9812964961505388 #
face $-1 $-1 $230 $19 $-1 $299 reversed single #
loop $-1 $-1 $226 $139 #
plane-surface $-1 0 0 -7.9812964961505388 0 0 1 1 0 0 forward_v I I I I #
coedge $-1 $300 $301 $147 $234 forward $140 $-1 #
coedge $-1 $142 $238 $228 $302 forward $83 $-1 #
edge $-1 $232 -14.268406522415013 $152 -8.3554561808993881 $142 $303 forward 7 unknown #
coedge $-1 $304 $148 $143 $227 forward $221 $-1 #
edge $-1 $153 8.3554561808993881 $231 14.268406522415013 $226 $305 forward 7 unknown #
coedge $-1 $306 $145 $224 $302 reversed $230 $-1 #
coedge $-1 $145 $306 $304 $307 reversed $230 $-1 #
loop $-1 $-1 $145 $220 #
vertex $-1 $307 $308 #
vertex $-1 $146 $309 #
straight-curve $-1 -56.606692316188443 -25.580337874072214 0 0 0 1 I I #
edge $-1 $239 -7.9812964961505388 $236 7.9812964961505388 $223 $310 forward 7 unknown #
coedge $-1 $148 $304 $300 $311 forward $221 $-1 #
vertex $-1 $149 $312 #
straight-curve $-1 -29.484172239788101 -19.667387532556589 -7.9812964961505388 1 0 0 I I #
coedge $-1 $224 $150 $301 $313 forward $83 $-1 #
vertex $-1 $313 $314 #
straight-curve $-1 -29.484172239788101 -19.667387532556589 7.9812964961505388 -1 0 0 I I #
point $-1 -56.606692316188443 -19.667387532556589 7.9812964961505388 #
point $-1 -56.606692316188443 -19.667387532556589 -7.9812964961505388 #
plane-surface $-1 0 0 7.9812964961505388 0 0 1 1 0 0 forward_v I I I I #
coedge $-1 $163 $315 $248 $316 forward $156 $-1 #
coedge $-1 $246 $158 $315 $317 reversed $91 $-1 #
coedge $-1 $158 $245 $249 $318 reversed $91 $-1 #
edge $-1 $250 7.5397883814530928 $319 14.478520579319161 $158 $320 forward 7 unknown #
coedge $-1 $160 $159 $244 $316 reversed $57 $-1 #
coedge $-1 $166 $161 $246 $318 forward $167 $-1 #
vertex $-1 $318 $321 #
straight-curve $-1 -57.860630636992404 10.10745473943166 7.9812964961505362 0 1 0 I I #
coedge $-1 $315 $163 $166 $256 reversed $156 $-1 #
vertex $-1 $164 $322 #
straight-curve $-1 -61.329996642963962 14.849481083654428 31.65108654435009 0 0 1 I I #
straight-curve $-1 -61.329996642963977 14.849481083654428 1.9721780890701339 -0.49999998660252726 0 -0.86602541151947299 I I #
edge $-1 $323 -25.580337874072214 $168 -14.849481083654428 $252 $324 forward 7 unknown #
point $-1 -61.329996642963962 14.849481083654428 7.9812964961505388 #
point $-1 -57.860630636992404 14.849481083654428 7.9812964961505388 #
edge $-1 $325 1 $325 0 $171 $-1 forward 7 unknown #
vertex $-1 $172 $326 #
ellipse-curve $-1 -57.212957471608966 20.214909478863326 3.6012833666370931 -0.86602541151947299 0 0.49999998660252726 0.49999998660252726 0 0.86602541151947299 1 I I #
point $-1 -59.095313653375648 20.214909478863326 5.8427627041298074 #
loop $-1 $-1 $182 $175 #
plane-surface $-1 0 0 7.9812964961505388 0 0 1 1 0 0 forward_v I I I I #
coedge $-1 $327 $328 $179 $267 forward $176 $-1 #
coedge $-1 $179 $178 $272 $329 reversed $66 $-1 #
edge $-1 $269 -75.808517222283115 $330 -68.86978502441707 $265 $331 forward 7 unknown #
coedge $-1 $185 $180 $328 $332 reversed $106 $-1 #
vertex $-1 $267 $333 #
straight-curve $-1 61.329996642963962 10.10745473943166 1.9721780890701694 0 1 0 I I #
coedge $-1 $334 $182 $185 $276 forward $263 $-1 #
coedge $-1 $182 $334 $266 $329 forward $263 $-1 #
vertex $-1 $183 $335 #
straight-curve $-1 53.113336402877728 14.849481083654428 7.9812964961505344 1 0 0 I I #
straight-curve $-1 1.6433339311561213e-006 14.849481083654428 108.19884925149167 -0.49999998660252726 0 0.86602541151947299 I I #
edge $-1 $186 14.849481083654428 $336 25.580337874072214 $185 $337 forward 7 unknown #
point $-1 61.329996642963962 14.849481083654428 7.9812964961505388 #
point $-1 61.329996642963962 14.849481083654428 1.9721780890701694 #
edge $-1 $338 1 $338 0 $189 $-1 forward 7 unknown #
vertex $-1 $190 $339 #
ellipse-curve $-1 57.212957471608973 20.214909478863326 3.6012833666371056 0.86602541151947299 0 0.49999998660252726 0.49999998660252726 0 -0.86602541151947299 1 I I #
point $-1 60.095313626580705 20.214909478863326 4.1107118810908743 #
plane-surface $-1 61.329996642963962 0 0 -1 0 0 0 0 1 forward_v I I I I #
coedge $-1 $198 $196 $200 $288 reversed $121 $-1 #
edge $-1 $211 -7.9812964961505388 $290 7.9812964961505388 $210 $340 forward 7 unknown #
vertex $-1 $288 $341 #
straight-curve $-1 -61.329996642963962 -25.580337874072214 0 0 0 -1 I I #
edge $-1 $286 -25.580337874072214 $290 25.580337874072214 $284 $342 forward 7 unknown #
straight-curve $-1 0 -25.580337874072214 -7.9812964961505388 -1 0 0 I I #
vertex $-1 $203 $343 #
straight-curve $-1 0 25.580337874072214 -7.9812964961505388 1 0 0 I I #
point $-1 61.329996642963962 25.580337874072214 -7.9812964961505388 #
point $-1 61.329996642963962 -25.580337874072214 -7.9812964961505388 #
straight-curve $-1 -61.329996642963962 0 7.9812964961505388 0 -1 0 I I #
point $-1 -61.329996642963962 25.580337874072214 7.9812964961505388 #
point $-1 -61.329996642963962 -25.580337874072214 7.9812964961505388 #
straight-curve $-1 61.329996642963962 -25.580337874072214 0 0 0 -1 I I #
straight-curve $-1 61.329996642963962 25.580337874072214 0 0 0 -1 I I #
plane-surface $-1 0 -25.580337874072214 0 0 1 0 0 0 1 forward_v I I I I #
coedge $-1 $344 $223 $235 $311 reversed $140 $-1 #
coedge $-1 $223 $344 $238 $313 reversed $140 $-1 #
edge $-1 $345 -61.329996642963962 $232 -56.606692316188443 $228 $346 forward 7 unknown #
straight-curve $-1 -56.606692316188443 -11.311931351657201 7.9812964961505388 0 1 0 I I #
coedge $-1 $235 $226 $229 $307 forward $221 $-1 #
straight-curve $-1 -56.606692316188443 -11.311931351657201 -7.9812964961505388 0 -1 0 I I #
coedge $-1 $229 $228 $344 $347 forward $230 $-1 #
edge $-1 $231 56.606692316188443 $348 61.329996642963962 $229 $349 forward 7 unknown #
point $-1 -56.606692316188443 -25.580337874072214 -7.9812964961505388 #
point $-1 -56.606692316188443 -25.580337874072214 7.9812964961505388 #
straight-curve $-1 -61.329996642963962 -19.667387532556589 0 0 0 -1 I I #
edge $-1 $348 -25.580337874072214 $236 -19.667387532556589 $300 $350 forward 7 unknown #
point $-1 -61.329996642963962 -19.667387532556589 -7.9812964961505388 #
edge $-1 $239 19.667387532556589 $345 25.580337874072214 $301 $351 forward 7 unknown #
point $-1 -61.329996642963962 -19.667387532556589 7.9812964961505388 #
coedge $-1 $244 $252 $245 $317 forward $156 $-1 #
edge $-1 $319 -15.472883134640551 $253 -4.7420263442227686 $244 $352 forward 7 unknown #
edge $-1 $323 -7.9812964961505388 $319 -1.9721780890701586 $245 $353 forward 7 unknown #
edge $-1 $250 57.860630636992404 $323 61.329996642963962 $246 $354 forward 7 unknown #
vertex $-1 $316 $355 #
straight-curve $-1 -54.090736547279967 25.580337874072214 14.510944831968194 -0.49999998660252726 0 -0.86602541151947299 I I #
point $-1 -57.860630636992404 25.58033787407221 7.9812964961505388 #
point $-1 -61.329996642963962 14.849481083654428 1.9721780890701586 #
vertex $-1 $318 $356 #
straight-curve $-1 -61.329996642963962 0 7.9812964961505388 0 -1 0 I I #
vertex $-1 $259 $357 #
point $-1 -56.712957485006442 20.214909478863326 4.4673087781565659 #
coedge $-1 $328 $265 $334 $358 reversed $176 $-1 #
coedge $-1 $265 $327 $268 $332 forward $176 $-1 #
edge $-1 $330 -15.472883134640551 $273 -4.7420263442227686 $272 $359 forward 7 unknown #
vertex $-1 $267 $360 #
straight-curve $-1 23.425739047464948 25.580337874072214 67.624280413178965 -0.49999998660252726 0 0.86602541151947299 I I #
edge $-1 $336 -7.9812964961505388 $269 -1.9721780890701748 $268 $361 forward 7 unknown #
point $-1 61.329996642963962 25.580337874072214 1.9721780890701748 #
coedge $-1 $272 $271 $327 $358 forward $263 $-1 #
point $-1 57.860630636992411 14.849481083654428 7.9812964961505344 #
vertex $-1 $276 $362 #
straight-curve $-1 61.329996642963962 0 7.9812964961505388 0 1 0 I I #
vertex $-1 $279 $363 #
point $-1 57.712957458211498 20.214909478863326 2.7352579551176324 #
straight-curve $-1 -61.329996642963962 25.580337874072214 0 0 0 -1 I I #
point $-1 -61.329996642963962 -25.580337874072214 -7.9812964961505388 #
straight-curve $-1 -61.329996642963962 0 -7.9812964961505388 0 1 0 I I #
point $-1 -61.329996642963962 25.580337874072214 -7.9812964961505388 #
coedge $-1 $301 $300 $306 $347 reversed $140 $-1 #
vertex $-1 $313 $364 #
straight-curve $-1 0 -25.580337874072214 7.9812964961505388 1 0 0 I I #
edge $-1 $345 -7.9812964961505388 $348 7.9812964961505388 $344 $365 forward 7 unknown #
vertex $-1 $311 $366 #
straight-curve $-1 0 -25.580337874072214 -7.9812964961505388 -1 0 0 I I #
straight-curve $-1 -61.329996642963962 0 -7.9812964961505388 0 1 0 I I #
straight-curve $-1 -61.329996642963962 0 7.9812964961505388 0 -1 0 I I #
straight-curve $-1 -61.329996642963962 10.10745473943166 1.9721780890701646 0 -1 0 I I #
straight-curve $-1 -61.329996642963962 25.580337874072214 0 0 0 -1 I I #
straight-curve $-1 0 25.580337874072214 7.9812964961505388 -1 0 0 I I #
point $-1 -61.329996642963962 25.58033787407221 1.9721780890701586 #
point $-1 -61.329996642963962 25.580337874072214 7.9812964961505388 #
point $-1 -56.346932060089493 20.214909478863326 3.1012833800345656 #
edge $-1 $336 -61.329996642963962 $330 -57.860630636992411 $327 $367 forward 7 unknown #
straight-curve $-1 57.860630636992411 10.10745473943166 7.9812964961505415 0 -1 0 I I #
point $-1 57.860630636992411 25.58033787407221 7.9812964961505344 #
straight-curve $-1 61.329996642963962 25.580337874072214 0 0 0 -1 I I #
point $-1 61.329996642963962 25.580337874072214 7.9812964961505388 #
point $-1 56.3469320600895 20.214909478863326 3.101283380034578 #
point $-1 -61.329996642963962 -25.580337874072214 7.9812964961505388 #
straight-curve $-1 -61.329996642963962 -25.580337874072214 0 0 0 -1 I I #
point $-1 -61.329996642963962 -25.580337874072214 -7.9812964961505388 #
straight-curve $-1 0 25.580337874072214 7.9812964961505388 -1 0 0 I I #
End-of-ACIS-data 