500 0 9 0           
7 Unknown 11 ACIS 5.0 NT 24 Fri Mar 26 00:46:30 1999 
-1 9.9999999999999995e-007 1e-010 
body $-1 $9 $-1 $10 #
body $-1 $11 $-1 $12 #
body $-1 $13 $-1 $14 #
body $-1 $15 $-1 $16 #
body $-1 $17 $-1 $18 #
body $-1 $19 $-1 $20 #
body $-1 $21 $-1 $22 #
body $-1 $23 $-1 $24 #
body $-1 $25 $-1 $26 #
lump $-1 $-1 $27 $0 #
transform $-1 1 0 0 0 1 0 0 0 1 56.216315195165869 39.113118497860391 18.841429109092307 1 rotate no_reflect no_shear #
lump $-1 $-1 $28 $1 #
transform $-1 1 0 0 0 1 0 0 0 1 56.216315195165869 39.113118497860391 18.841429109092307 1 rotate no_reflect no_shear #
lump $-1 $-1 $29 $2 #
transform $-1 1 0 0 0 1 0 0 0 1 56.216315195165869 39.113118497860391 18.841429109092307 1 rotate no_reflect no_shear #
lump $-1 $-1 $30 $3 #
transform $-1 1 0 0 0 1 0 0 0 1 56.216315195165869 39.113118497860391 18.841429109092307 1 rotate no_reflect no_shear #
lump $-1 $-1 $31 $4 #
transform $-1 1 0 0 0 1 0 0 0 1 56.216315195165869 39.113118497860391 18.841429109092307 1 rotate no_reflect no_shear #
lump $-1 $-1 $32 $5 #
transform $-1 1 0 0 0 1 0 0 0 1 56.216315195165869 39.113118497860391 18.841429109092307 1 rotate no_reflect no_shear #
lump $-1 $-1 $33 $6 #
transform $-1 1 0 0 0 1 0 0 0 1 56.216315195165869 39.113118497860391 18.841429109092307 1 rotate no_reflect no_shear #
lump $-1 $-1 $34 $7 #
transform $-1 1 0 0 0 1 0 0 0 1 56.216315195165869 39.113118497860391 18.841429109092307 1 rotate no_reflect no_shear #
lump $-1 $-1 $35 $8 #
transform $-1 1 0 0 0 1 0 0 0 1 56.216315195165869 39.113118497860391 18.841429109092307 1 rotate no_reflect no_shear #
shell $-1 $-1 $-1 $36 $-1 $9 #
shell $-1 $-1 $-1 $37 $-1 $11 #
shell $-1 $-1 $-1 $38 $-1 $13 #
shell $-1 $-1 $-1 $39 $-1 $15 #
shell $-1 $-1 $-1 $40 $-1 $17 #
shell $-1 $-1 $-1 $41 $-1 $19 #
shell $-1 $-1 $-1 $42 $-1 $21 #
shell $-1 $-1 $-1 $43 $-1 $23 #
shell $-1 $-1 $-1 $44 $-1 $25 #
face $-1 $45 $46 $27 $-1 $47 forward single #
face $-1 $48 $49 $28 $-1 $50 forward single #
face $-1 $51 $52 $29 $-1 $53 forward single #
face $-1 $54 $55 $30 $-1 $56 reversed single #
face $-1 $57 $58 $31 $-1 $59 forward single #
face $-1 $60 $61 $32 $-1 $62 forward single #
face $-1 $63 $64 $33 $-1 $65 reversed single #
face $-1 $66 $67 $34 $-1 $68 forward single #
face $-1 $69 $70 $35 $-1 $71 forward single #
face $-1 $72 $73 $27 $-1 $74 reversed single #
loop $-1 $-1 $75 $36 #
plane-surface $-1 0 0 18.841429109092307 0 0 1 1 0 0 forward_v I I I I #
face $-1 $76 $77 $28 $-1 $78 reversed single #
loop $-1 $-1 $79 $37 #
plane-surface $-1 0 -30.569061995788708 -5.8009844824150933 0 0 1 1 0 0 forward_v I I I I #
face $-1 $80 $81 $29 $-1 $82 reversed single #
loop $-1 $-1 $83 $38 #
plane-surface $-1 0 30.569061995788708 -5.8009844824150933 0 0 1 1 0 0 forward_v I I I I #
face $-1 $84 $85 $30 $-1 $86 reversed single #
loop $-1 $-1 $87 $39 #
plane-surface $-1 -126.97246299779022 -13.904937267492103 102.65331549391642 0 -1 0 0.62932039886446345 0 -0.77714595512881146 forward_v I I I I #
face $-1 $88 $89 $31 $-1 $90 forward single #
loop $-1 $91 $92 $40 #
cone-surface $-1 -53.700649957291915 -19.704986000509908 16.670517357770464 0.62932039886446345 0 -0.77714595512881146 0.38857297756440573 0 0.31466019943223172 1 I I 0 1 0.5 forward I I I I #
face $-1 $93 $94 $32 $-1 $95 forward single #
loop $-1 $96 $97 $41 #
cone-surface $-1 -53.700649957291915 -16.224956760699229 16.670517357770464 0.62932039886446345 0 -0.77714595512881146 0.38857297756440573 0 0.31466019943223172 1 I I 0 1 0.5 forward I I I I #
face $-1 $98 $99 $33 $-1 $100 reversed single #
loop $-1 $-1 $101 $42 #
plane-surface $-1 -126.97246299779022 22.025005493717025 102.65331549391642 0 -1 0 0.62932039886446345 0 -0.77714595512881146 forward_v I I I I #
face $-1 $102 $103 $34 $-1 $104 forward single #
loop $-1 $105 $106 $43 #
cone-surface $-1 -53.700649957291915 16.224956760699222 16.670517357770464 0.62932039886446345 0 -0.77714595512881146 0.38857297756440573 0 0.31466019943223172 1 I I 0 1 0.5 forward I I I I #
face $-1 $107 $108 $35 $-1 $109 forward single #
loop $-1 $110 $111 $44 #
cone-surface $-1 -53.700649957291915 19.704986000509898 16.670517357770464 0.62932039886446345 0 -0.77714595512881146 0.38857297756440573 0 0.31466019943223172 1 I I 0 1 0.5 forward I I I I #
face $-1 $112 $113 $27 $-1 $114 reversed single #
loop $-1 $-1 $115 $45 #
plane-surface $-1 0 0 -18.841429109092307 0 0 1 1 0 0 forward_v I I I I #
coedge $-1 $116 $117 $118 $119 forward $46 $-1 #
face $-1 $120 $121 $28 $-1 $122 reversed single #
loop $-1 $-1 $123 $48 #
plane-surface $-1 0 -30.569061995788708 -15.373904801455303 0 0 1 1 0 0 forward_v I I I I #
coedge $-1 $124 $125 $126 $127 reversed $49 $-1 #
face $-1 $128 $129 $29 $-1 $130 reversed single #
loop $-1 $-1 $131 $51 #
plane-surface $-1 0 30.569061995788708 -15.373904801455303 0 0 1 1 0 0 forward_v I I I I #
coedge $-1 $132 $133 $134 $135 reversed $52 $-1 #
face $-1 $136 $137 $30 $-1 $138 reversed single #
loop $-1 $-1 $139 $54 #
plane-surface $-1 -56.216315195165862 -17.964971380604567 15.276751561577441 -0.62932039886446345 0 0.77714595512881146 0.77714595512881146 0 0.62932039886446345 forward_v I I I I #
coedge $-1 $140 $141 $142 $143 reversed $55 $-1 #
face $-1 $-1 $144 $31 $-1 $145 forward single #
loop $-1 $146 $147 $57 #
cone-surface $-1 -53.22865965814357 -19.704986000509908 16.087657891423856 0.62932039886446345 0 -0.77714595512881146 0.19428648878220287 0 0.15733009971611586 1 I I -0.70710678118654746 0.70710678118654746 0.25 forward I I I I #
loop $-1 $-1 $148 $40 #
coedge $-1 $92 $92 $149 $150 reversed $58 $-1 #
face $-1 $-1 $151 $32 $-1 $152 forward single #
loop $-1 $153 $154 $60 #
cone-surface $-1 -53.22865965814357 -16.224956760699229 16.087657891423856 0.62932039886446345 0 -0.77714595512881146 0.19428648878220287 0 0.15733009971611586 1 I I -0.70710678118654746 0.70710678118654746 0.25 forward I I I I #
loop $-1 $-1 $155 $41 #
coedge $-1 $97 $97 $156 $157 reversed $61 $-1 #
face $-1 $158 $159 $33 $-1 $160 reversed single #
loop $-1 $-1 $161 $63 #
plane-surface $-1 -56.216315195165862 17.96497138060456 15.276751561577441 -0.62932039886446345 0 0.77714595512881146 0.77714595512881146 0 0.62932039886446345 forward_v I I I I #
coedge $-1 $162 $163 $164 $165 reversed $64 $-1 #
face $-1 $-1 $166 $34 $-1 $167 forward single #
loop $-1 $168 $169 $66 #
cone-surface $-1 -53.22865965814357 16.224956760699222 16.087657891423856 0.62932039886446345 0 -0.77714595512881146 0.19428648878220287 0 0.15733009971611586 1 I I -0.70710678118654746 0.70710678118654746 0.25 forward I I I I #
loop $-1 $-1 $170 $43 #
coedge $-1 $106 $106 $171 $172 reversed $67 $-1 #
face $-1 $-1 $173 $35 $-1 $174 forward single #
loop $-1 $175 $176 $69 #
cone-surface $-1 -53.22865965814357 19.704986000509898 16.087657891423856 0.62932039886446345 0 -0.77714595512881146 0.19428648878220287 0 0.15733009971611586 1 I I -0.70710678118654746 0.70710678118654746 0.25 forward I I I I #
loop $-1 $-1 $177 $44 #
coedge $-1 $111 $111 $178 $179 reversed $70 $-1 #
face $-1 $180 $181 $27 $-1 $182 reversed single #
loop $-1 $-1 $183 $72 #
plane-surface $-1 0 -39.113118497860391 0 0 1 0 0 0 1 forward_v I I I I #
coedge $-1 $184 $185 $186 $187 forward $73 $-1 #
coedge $-1 $188 $75 $189 $190 forward $46 $-1 #
coedge $-1 $75 $188 $191 $192 forward $46 $-1 #
coedge $-1 $193 $194 $75 $119 reversed $195 $-1 #
edge $-1 $196 -39.113118497860391 $197 39.113118497860391 $118 $198 forward 7 unknown #
face $-1 $199 $200 $28 $-1 $201 reversed single #
loop $-1 $-1 $202 $76 #
plane-surface $-1 0 -22.025005493717025 -10.587444641935198 0 -1 0 0 0 -1 forward_v I I I I #
coedge $-1 $203 $204 $205 $206 reversed $77 $-1 #
coedge $-1 $207 $79 $208 $209 forward $49 $-1 #
coedge $-1 $79 $207 $210 $211 reversed $49 $-1 #
coedge $-1 $212 $213 $79 $127 forward $214 $-1 #
edge $-1 $215 6.7404744958226708 $216 23.828587499966037 $126 $217 forward 7 unknown #
face $-1 $218 $219 $29 $-1 $220 reversed single #
loop $-1 $-1 $221 $80 #
plane-surface $-1 0 22.025005493717025 -10.587444641935198 0 1 0 0 0 1 forward_v I I I I #
coedge $-1 $222 $223 $224 $225 reversed $81 $-1 #
coedge $-1 $226 $83 $227 $228 reversed $52 $-1 #
coedge $-1 $83 $226 $229 $230 forward $52 $-1 #
coedge $-1 $231 $232 $83 $135 forward $219 $-1 #
edge $-1 $233 -23.828587499966037 $234 -6.7404744958226708 $134 $235 forward 7 unknown #
face $-1 $236 $237 $30 $-1 $238 reversed single #
loop $-1 $-1 $239 $84 #
plane-surface $-1 -126.97246299779022 -22.025005493717032 102.65331549391642 0 1 0 -0.62932039886446345 0 0.77714595512881146 forward_v I I I I #
coedge $-1 $240 $241 $242 $243 reversed $85 $-1 #
coedge $-1 $141 $87 $244 $245 reversed $55 $-1 #
coedge $-1 $87 $140 $240 $246 reversed $55 $-1 #
coedge $-1 $242 $247 $87 $143 forward $237 $-1 #
edge $-1 $248 32.485228637865902 $249 36.049906185380777 $142 $250 forward 7 unknown #
loop $-1 $-1 $149 $88 #
plane-surface $-1 -56.216315195165862 -17.964971380604567 15.276751561577441 -0.62932039886446345 0 0.77714595512881146 0.77714595512881146 0 0.62932039886446345 forward_v I I I I #
loop $-1 $-1 $251 $57 #
coedge $-1 $147 $147 $148 $252 reversed $89 $-1 #
coedge $-1 $148 $148 $147 $252 forward $91 $-1 #
coedge $-1 $149 $149 $92 $150 forward $144 $-1 #
edge $-1 $253 0 $253 6.2831853071796004 $149 $254 forward 7 unknown #
loop $-1 $-1 $156 $93 #
plane-surface $-1 -56.216315195165862 -17.964971380604567 15.276751561577441 -0.62932039886446345 0 0.77714595512881146 0.77714595512881146 0 0.62932039886446345 forward_v I I I I #
loop $-1 $-1 $255 $60 #
coedge $-1 $154 $154 $155 $256 reversed $94 $-1 #
coedge $-1 $155 $155 $154 $256 forward $96 $-1 #
coedge $-1 $156 $156 $97 $157 forward $151 $-1 #
edge $-1 $257 0 $257 6.2831853071796004 $156 $258 forward 7 unknown #
face $-1 $259 $260 $33 $-1 $261 forward single #
loop $-1 $-1 $262 $98 #
plane-surface $-1 -126.97246299779022 13.904937267492096 102.65331549391642 0 1 0 -0.62932039886446345 0 0.77714595512881146 forward_v I I I I #
coedge $-1 $263 $264 $265 $266 reversed $99 $-1 #
coedge $-1 $163 $101 $267 $268 reversed $64 $-1 #
coedge $-1 $101 $162 $263 $269 reversed $64 $-1 #
coedge $-1 $265 $270 $101 $165 forward $271 $-1 #
edge $-1 $272 32.485228637865902 $273 36.049906185380777 $164 $274 forward 7 unknown #
loop $-1 $-1 $171 $102 #
plane-surface $-1 -56.216315195165862 17.96497138060456 15.276751561577441 -0.62932039886446345 0 0.77714595512881146 0.77714595512881146 0 0.62932039886446345 forward_v I I I I #
loop $-1 $-1 $275 $66 #
coedge $-1 $169 $169 $170 $276 reversed $103 $-1 #
coedge $-1 $170 $170 $169 $276 forward $105 $-1 #
coedge $-1 $171 $171 $106 $172 forward $166 $-1 #
edge $-1 $277 0 $277 6.2831853071796004 $171 $278 forward 7 unknown #
loop $-1 $-1 $178 $107 #
plane-surface $-1 -56.216315195165862 17.96497138060456 15.276751561577441 -0.62932039886446345 0 0.77714595512881146 0.77714595512881146 0 0.62932039886446345 forward_v I I I I #
loop $-1 $-1 $279 $69 #
coedge $-1 $176 $176 $177 $280 reversed $108 $-1 #
coedge $-1 $177 $177 $176 $280 forward $110 $-1 #
coedge $-1 $178 $178 $111 $179 forward $173 $-1 #
edge $-1 $281 0 $281 6.2831853071796004 $178 $282 forward 7 unknown #
face $-1 $283 $284 $27 $-1 $285 reversed single #
loop $-1 $-1 $286 $112 #
plane-surface $-1 -56.216315195165869 0 0 1 0 0 0 0 -1 forward_v I I I I #
coedge $-1 $287 $191 $288 $289 forward $113 $-1 #
coedge $-1 $290 $115 $287 $291 forward $73 $-1 #
coedge $-1 $115 $290 $292 $293 forward $73 $-1 #
coedge $-1 $194 $193 $115 $187 reversed $195 $-1 #
edge $-1 $294 -39.113118497860391 $295 39.113118497860391 $186 $296 forward 7 unknown #
coedge $-1 $117 $116 $297 $298 forward $46 $-1 #
coedge $-1 $299 $300 $116 $190 reversed $284 $-1 #
edge $-1 $197 -56.216315195165869 $301 56.216315195165869 $189 $302 forward 7 unknown #
coedge $-1 $183 $303 $117 $192 reversed $113 $-1 #
edge $-1 $304 -56.216315195165869 $196 56.216315195165869 $191 $305 forward 7 unknown #
coedge $-1 $186 $118 $303 $306 forward $195 $-1 #
coedge $-1 $118 $186 $299 $307 reversed $195 $-1 #
loop $-1 $-1 $193 $283 #
vertex $-1 $119 $308 #
vertex $-1 $119 $309 #
straight-curve $-1 56.216315195165869 0 18.841429109092307 0 1 0 I I #
face $-1 $310 $311 $28 $-1 $312 reversed single #
loop $-1 $-1 $313 $120 #
plane-surface $-1 -56.216315195165869 0 0 1 0 0 0 0 -1 forward_v I I I I #
coedge $-1 $314 $208 $213 $315 reversed $121 $-1 #
coedge $-1 $316 $123 $317 $318 reversed $77 $-1 #
coedge $-1 $123 $316 $314 $319 forward $77 $-1 #
coedge $-1 $213 $212 $123 $206 forward $214 $-1 #
edge $-1 $320 -23.828587499966037 $321 -6.7404744958226708 $205 $322 forward 7 unknown #
coedge $-1 $125 $124 $313 $323 reversed $49 $-1 #
coedge $-1 $202 $324 $124 $209 reversed $121 $-1 #
edge $-1 $215 -56.216315195165869 $325 56.216315195165869 $208 $326 forward 7 unknown #
coedge $-1 $327 $328 $125 $211 forward $311 $-1 #
edge $-1 $216 -56.216315195165869 $329 56.216315195165869 $210 $330 forward 7 unknown #
coedge $-1 $205 $126 $328 $331 forward $214 $-1 #
coedge $-1 $126 $205 $202 $315 forward $214 $-1 #
loop $-1 $-1 $126 $310 #
vertex $-1 $127 $332 #
vertex $-1 $331 $333 #
straight-curve $-1 56.216315195165869 -15.284530997894354 -5.8009844824150933 0 -1 0 I I #
face $-1 $334 $335 $29 $-1 $336 reversed single #
loop $-1 $-1 $134 $128 #
plane-surface $-1 56.216315195165869 0 0 -1 0 0 0 0 1 forward_v I I I I #
coedge $-1 $337 $229 $338 $339 reversed $129 $-1 #
coedge $-1 $340 $131 $337 $341 forward $81 $-1 #
coedge $-1 $131 $340 $342 $343 reversed $81 $-1 #
coedge $-1 $232 $231 $131 $225 forward $219 $-1 #
edge $-1 $344 6.7404744958226708 $345 23.828587499966037 $224 $346 forward 7 unknown #
coedge $-1 $133 $132 $347 $348 reversed $52 $-1 #
coedge $-1 $349 $350 $132 $228 forward $351 $-1 #
edge $-1 $352 -56.216315195165869 $233 56.216315195165869 $227 $353 forward 7 unknown #
coedge $-1 $221 $354 $133 $230 reversed $129 $-1 #
edge $-1 $355 -56.216315195165869 $234 56.216315195165869 $229 $356 forward 7 unknown #
coedge $-1 $224 $134 $354 $357 forward $219 $-1 #
coedge $-1 $134 $224 $349 $358 reversed $219 $-1 #
vertex $-1 $358 $359 #
vertex $-1 $135 $360 #
straight-curve $-1 56.216315195165869 15.284530997894354 -5.8009844824150933 0 -1 0 I I #
face $-1 $-1 $361 $30 $-1 $362 forward single #
loop $-1 $-1 $142 $136 #
plane-surface $-1 -56.216315195165869 0 0 1 0 0 0 0 -1 forward_v I I I I #
coedge $-1 $363 $364 $365 $366 reversed $137 $-1 #
coedge $-1 $367 $139 $141 $246 forward $85 $-1 #
coedge $-1 $139 $367 $363 $368 forward $85 $-1 #
coedge $-1 $365 $142 $139 $243 forward $237 $-1 #
edge $-1 $249 4.9224515771898201 $369 13.042519803414748 $242 $370 forward 7 unknown #
coedge $-1 $371 $372 $140 $245 forward $361 $-1 #
edge $-1 $373 -11.671926380612675 $248 -7.2699163037292394 $244 $374 forward 7 unknown #
edge $-1 $249 -8.8756469145121664e-015 $373 5.6643286217114763 $141 $375 forward 7 unknown #
coedge $-1 $142 $365 $371 $376 reversed $237 $-1 #
vertex $-1 $376 $377 #
vertex $-1 $143 $378 #
straight-curve $-1 -56.216315195165869 -13.904937267492103 51.326657746958212 0 0 -1 I I #
coedge $-1 $251 $251 $-1 $379 reversed $146 $-1 #
edge $-1 $380 0 $380 6.2831853071796004 $147 $381 forward 7 unknown #
vertex $-1 $150 $382 #
ellipse-curve $-1 -54.015310156724148 -19.704986000509908 17.059090335334872 -0.62932039886446345 0 0.77714595512881146 0.38857297756440573 0 0.31466019943223172 1 I I #
coedge $-1 $255 $255 $-1 $383 reversed $153 $-1 #
edge $-1 $384 0 $384 6.2831853071796004 $154 $385 forward 7 unknown #
vertex $-1 $157 $386 #
ellipse-curve $-1 -54.015310156724148 -16.224956760699229 17.059090335334872 -0.62932039886446345 0 0.77714595512881146 0.38857297756440573 0 0.31466019943223172 1 I I #
face $-1 $-1 $271 $33 $-1 $387 reversed single #
loop $-1 $-1 $388 $158 #
plane-surface $-1 0 0 18.841429109092307 0 0 1 1 0 0 forward_v I I I I #
coedge $-1 $389 $390 $391 $392 reversed $159 $-1 #
coedge $-1 $393 $161 $163 $269 forward $99 $-1 #
coedge $-1 $161 $393 $389 $394 forward $99 $-1 #
coedge $-1 $391 $164 $161 $266 forward $271 $-1 #
edge $-1 $273 -13.042519803414745 $395 -4.9224515771898165 $265 $396 forward 7 unknown #
coedge $-1 $397 $398 $162 $268 forward $260 $-1 #
edge $-1 $399 -11.671926380612675 $272 -7.2699163037292394 $267 $400 forward 7 unknown #
edge $-1 $273 -8.8756469145121664e-015 $399 5.6643286217114763 $163 $401 forward 7 unknown #
coedge $-1 $164 $391 $397 $402 reversed $271 $-1 #
loop $-1 $-1 $391 $259 #
vertex $-1 $402 $403 #
vertex $-1 $165 $404 #
straight-curve $-1 -56.216315195165869 22.025005493717025 51.326657746958212 0 0 -1 I I #
coedge $-1 $275 $275 $-1 $405 reversed $168 $-1 #
edge $-1 $406 0 $406 6.2831853071796004 $169 $407 forward 7 unknown #
vertex $-1 $172 $408 #
ellipse-curve $-1 -54.015310156724148 16.224956760699222 17.059090335334872 -0.62932039886446345 0 0.77714595512881146 0.38857297756440573 0 0.31466019943223172 1 I I #
coedge $-1 $279 $279 $-1 $409 reversed $175 $-1 #
edge $-1 $410 0 $410 6.2831853071796004 $176 $411 forward 7 unknown #
vertex $-1 $179 $412 #
ellipse-curve $-1 -54.015310156724148 19.704986000509898 17.059090335334872 -0.62932039886446345 0 0.77714595512881146 0.38857297756440573 0 0.31466019943223172 1 I I #
face $-1 $-1 $195 $27 $-1 $413 reversed single #
loop $-1 $-1 $299 $180 #
plane-surface $-1 0 39.113118497860391 0 0 -1 0 0 0 -1 forward_v I I I I #
coedge $-1 $414 $297 $300 $415 forward $181 $-1 #
coedge $-1 $303 $183 $184 $291 reversed $113 $-1 #
coedge $-1 $297 $414 $183 $289 reversed $181 $-1 #
edge $-1 $304 -18.841429109092307 $416 18.841429109092307 $288 $417 forward 7 unknown #
coedge $-1 $185 $184 $414 $418 forward $73 $-1 #
edge $-1 $295 -56.216315195165869 $416 56.216315195165869 $287 $419 forward 7 unknown #
coedge $-1 $300 $299 $185 $293 reversed $284 $-1 #
edge $-1 $420 -56.216315195165869 $294 56.216315195165869 $292 $421 forward 7 unknown #
vertex $-1 $187 $422 #
vertex $-1 $306 $423 #
straight-curve $-1 56.216315195165869 0 -18.841429109092307 0 -1 0 I I #
coedge $-1 $286 $288 $188 $298 reversed $181 $-1 #
edge $-1 $301 -39.113118497860391 $304 39.113118497860391 $297 $424 forward 7 unknown #
coedge $-1 $292 $189 $194 $307 forward $284 $-1 #
coedge $-1 $189 $292 $286 $415 reversed $284 $-1 #
vertex $-1 $190 $425 #
straight-curve $-1 0 39.113118497860391 18.841429109092307 -1 0 0 I I #
coedge $-1 $191 $287 $193 $306 reversed $113 $-1 #
vertex $-1 $298 $426 #
straight-curve $-1 0 -39.113118497860391 18.841429109092307 1 0 0 I I #
edge $-1 $196 -18.841429109092307 $295 18.841429109092307 $193 $427 forward 7 unknown #
edge $-1 $197 -18.841429109092307 $294 18.841429109092307 $194 $428 forward 7 unknown #
point $-1 56.216315195165869 -39.113118497860391 18.841429109092307 #
point $-1 56.216315195165869 39.113118497860391 18.841429109092307 #
face $-1 $-1 $214 $28 $-1 $429 reversed single #
loop $-1 $-1 $210 $199 #
plane-surface $-1 0 -39.113118497860391 0 0 1 0 0 0 1 forward_v I I I I #
coedge $-1 $430 $431 $207 $323 forward $200 $-1 #
coedge $-1 $324 $202 $204 $319 reversed $121 $-1 #
edge $-1 $321 -10.080182480487704 $215 -0.50726216144749436 $213 $432 forward 7 unknown #
coedge $-1 $204 $203 $433 $434 reversed $77 $-1 #
coedge $-1 $328 $327 $203 $318 forward $311 $-1 #
edge $-1 $435 -56.216315195165869 $320 56.216315195165869 $317 $436 forward 7 unknown #
edge $-1 $437 -56.216315195165869 $321 56.216315195165869 $314 $438 forward 7 unknown #
vertex $-1 $318 $439 #
vertex $-1 $206 $440 #
straight-curve $-1 56.216315195165869 -15.284530997894354 -15.373904801455303 0 1 0 I I #
edge $-1 $329 -23.828587499966037 $325 -6.7404744958226708 $313 $441 forward 7 unknown #
coedge $-1 $208 $314 $430 $442 reversed $121 $-1 #
vertex $-1 $323 $443 #
straight-curve $-1 0 -22.025005493717025 -5.8009844824150933 -1 0 0 I I #
coedge $-1 $317 $210 $431 $444 forward $311 $-1 #
coedge $-1 $210 $317 $212 $331 reversed $311 $-1 #
vertex $-1 $444 $445 #
straight-curve $-1 0 -39.113118497860391 -5.8009844824150933 -1 0 0 I I #
edge $-1 $216 5.8009844824150933 $320 15.373904801455303 $212 $446 forward 7 unknown #
point $-1 56.216315195165869 -22.025005493717025 -5.8009844824150933 #
point $-1 56.216315195165869 -39.113118497860391 -5.8009844824150933 #
face $-1 $-1 $351 $29 $-1 $447 reversed single #
loop $-1 $-1 $347 $218 #
plane-surface $-1 -56.216315195165869 0 0 1 0 0 0 0 -1 forward_v I I I I #
coedge $-1 $354 $221 $222 $341 reversed $129 $-1 #
coedge $-1 $347 $448 $221 $339 forward $335 $-1 #
edge $-1 $449 -10.080182480487704 $355 -0.50726216144749436 $338 $450 forward 7 unknown #
coedge $-1 $223 $222 $448 $451 reversed $81 $-1 #
edge $-1 $344 -56.216315195165869 $449 56.216315195165869 $337 $452 forward 7 unknown #
coedge $-1 $350 $349 $223 $343 forward $351 $-1 #
edge $-1 $345 -56.216315195165869 $453 56.216315195165869 $342 $454 forward 7 unknown #
vertex $-1 $225 $455 #
vertex $-1 $343 $456 #
straight-curve $-1 56.216315195165869 15.284530997894354 -15.373904801455303 0 1 0 I I #
coedge $-1 $457 $338 $226 $348 forward $335 $-1 #
edge $-1 $355 6.7404744958226708 $352 23.828587499966037 $347 $458 forward 7 unknown #
coedge $-1 $342 $227 $232 $358 forward $351 $-1 #
coedge $-1 $227 $342 $457 $459 reversed $351 $-1 #
loop $-1 $-1 $227 $334 #
vertex $-1 $459 $460 #
straight-curve $-1 0 39.113118497860391 -5.8009844824150933 1 0 0 I I #
coedge $-1 $229 $337 $231 $357 reversed $129 $-1 #
vertex $-1 $348 $461 #
straight-curve $-1 0 22.025005493717025 -5.8009844824150933 1 0 0 I I #
edge $-1 $234 0.50726216144749436 $344 10.080182480487704 $231 $462 forward 7 unknown #
edge $-1 $233 5.8009844824150933 $345 15.373904801455303 $232 $463 forward 7 unknown #
point $-1 56.216315195165869 39.113118497860391 -5.8009844824150933 #
point $-1 56.216315195165869 22.025005493717025 -5.8009844824150933 #
loop $-1 $-1 $244 $236 #
plane-surface $-1 0 0 18.841429109092307 0 0 1 1 0 0 forward_v I I I I #
coedge $-1 $364 $239 $241 $368 reversed $137 $-1 #
coedge $-1 $239 $363 $464 $465 reversed $137 $-1 #
coedge $-1 $247 $242 $239 $366 forward $237 $-1 #
edge $-1 $369 -36.049906185380777 $466 -32.485228637865902 $365 $467 forward 7 unknown #
coedge $-1 $241 $240 $372 $468 reversed $85 $-1 #
edge $-1 $469 -5.6643286217114763 $369 8.8756469145121664e-015 $363 $470 forward 7 unknown #
vertex $-1 $243 $471 #
straight-curve $-1 -56.216315195165869 -8.9824856903022834 15.276751561577431 0 -1 0 I I #
coedge $-1 $464 $244 $247 $376 forward $361 $-1 #
coedge $-1 $244 $464 $367 $468 forward $361 $-1 #
vertex $-1 $245 $472 #
straight-curve $-1 -63.486231498895108 -13.904937267492103 18.84142910909231 -1 0 0 I I #
straight-curve $-1 -56.216315195165862 -13.904937267492103 15.276751561577441 0.77714595512881146 0 0.62932039886446345 I I #
edge $-1 $248 13.904937267492103 $466 22.025005493717032 $247 $473 forward 7 unknown #
point $-1 -56.216315195165869 -13.904937267492103 18.841429109092307 #
point $-1 -56.216315195165869 -13.904937267492103 15.276751561577436 #
edge $-1 $474 1 $474 0 $251 $-1 forward 7 unknown #
vertex $-1 $252 $475 #
ellipse-curve $-1 -53.385989757859683 -19.704986000509908 16.28194438020606 -0.62932039886446345 0 0.77714595512881146 0.38857297756440573 0 0.31466019943223172 1 I I #
point $-1 -53.626737179159747 -19.704986000509908 17.373750534767101 #
edge $-1 $476 1 $476 0 $255 $-1 forward 7 unknown #
vertex $-1 $256 $477 #
ellipse-curve $-1 -53.385989757859683 -16.224956760699229 16.28194438020606 -0.62932039886446345 0 0.77714595512881146 0.38857297756440573 0 0.31466019943223172 1 I I #
point $-1 -53.626737179159747 -16.224956760699229 17.373750534767101 #
plane-surface $-1 -56.216315195165869 0 0 1 0 0 0 0 -1 forward_v I I I I #
coedge $-1 $398 $397 $390 $478 forward $260 $-1 #
coedge $-1 $390 $262 $264 $394 reversed $159 $-1 #
coedge $-1 $262 $389 $388 $478 reversed $159 $-1 #
coedge $-1 $270 $265 $262 $392 forward $271 $-1 #
edge $-1 $395 -36.049906185380777 $479 -32.485228637865902 $391 $480 forward 7 unknown #
coedge $-1 $264 $263 $398 $481 reversed $99 $-1 #
edge $-1 $482 -5.6643286217114763 $395 8.8756469145121664e-015 $389 $483 forward 7 unknown #
vertex $-1 $266 $484 #
straight-curve $-1 -56.216315195165869 8.9824856903022798 15.276751561577431 0 -1 0 I I #
coedge $-1 $388 $267 $270 $402 forward $260 $-1 #
coedge $-1 $267 $388 $393 $481 forward $260 $-1 #
vertex $-1 $268 $485 #
straight-curve $-1 -63.486231498895108 22.025005493717025 18.84142910909231 -1 0 0 I I #
straight-curve $-1 -56.216315195165862 22.025005493717025 15.276751561577441 0.77714595512881146 0 0.62932039886446345 I I #
edge $-1 $272 -22.025005493717025 $479 -13.904937267492096 $270 $486 forward 7 unknown #
point $-1 -56.216315195165869 22.025005493717025 18.841429109092307 #
point $-1 -56.216315195165869 22.025005493717025 15.276751561577436 #
edge $-1 $487 1 $487 0 $275 $-1 forward 7 unknown #
vertex $-1 $276 $488 #
ellipse-curve $-1 -53.385989757859683 16.224956760699222 16.28194438020606 -0.62932039886446345 0 0.77714595512881146 0.38857297756440573 0 0.31466019943223172 1 I I #
point $-1 -53.626737179159747 16.224956760699222 17.373750534767101 #
edge $-1 $489 1 $489 0 $279 $-1 forward 7 unknown #
vertex $-1 $280 $490 #
ellipse-curve $-1 -53.385989757859683 19.704986000509898 16.28194438020606 -0.62932039886446345 0 0.77714595512881146 0.38857297756440573 0 0.31466019943223172 1 I I #
point $-1 -53.626737179159747 19.704986000509898 17.373750534767101 #
plane-surface $-1 56.216315195165869 0 0 -1 0 0 0 0 1 forward_v I I I I #
coedge $-1 $288 $286 $290 $418 reversed $181 $-1 #
edge $-1 $301 -18.841429109092307 $420 18.841429109092307 $300 $491 forward 7 unknown #
vertex $-1 $418 $492 #
straight-curve $-1 -56.216315195165869 -39.113118497860391 0 0 0 -1 I I #
edge $-1 $416 -39.113118497860391 $420 39.113118497860391 $414 $493 forward 7 unknown #
straight-curve $-1 0 -39.113118497860391 -18.841429109092307 -1 0 0 I I #
vertex $-1 $293 $494 #
straight-curve $-1 0 39.113118497860391 -18.841429109092307 1 0 0 I I #
point $-1 56.216315195165869 39.113118497860391 -18.841429109092307 #
point $-1 56.216315195165869 -39.113118497860391 -18.841429109092307 #
straight-curve $-1 -56.216315195165869 0 18.841429109092307 0 -1 0 I I #
point $-1 -56.216315195165869 39.113118497860391 18.841429109092307 #
point $-1 -56.216315195165869 -39.113118497860391 18.841429109092307 #
straight-curve $-1 56.216315195165869 -39.113118497860391 0 0 0 -1 I I #
straight-curve $-1 56.216315195165869 39.113118497860391 0 0 0 -1 I I #
plane-surface $-1 56.216315195165869 0 0 -1 0 0 0 0 1 forward_v I I I I #
coedge $-1 $433 $313 $324 $442 forward $200 $-1 #
coedge $-1 $313 $433 $327 $444 reversed $200 $-1 #
straight-curve $-1 56.216315195165869 -22.025005493717025 -5.293722320967599 0 0 1 I I #
coedge $-1 $431 $430 $316 $434 forward $200 $-1 #
edge $-1 $437 6.7404744958226708 $435 23.828587499966037 $433 $495 forward 7 unknown #
vertex $-1 $318 $496 #
straight-curve $-1 0 -39.113118497860391 -15.373904801455303 1 0 0 I I #
vertex $-1 $434 $497 #
straight-curve $-1 0 -22.025005493717025 -15.373904801455303 1 0 0 I I #
point $-1 56.216315195165869 -39.113118497860391 -15.373904801455303 #
point $-1 56.216315195165869 -22.025005493717025 -15.373904801455303 #
straight-curve $-1 -56.216315195165869 -15.284530997894354 -5.8009844824150933 0 1 0 I I #
edge $-1 $325 0.50726216144749436 $437 10.080182480487704 $430 $498 forward 7 unknown #
point $-1 -56.216315195165869 -22.025005493717025 -5.8009844824150933 #
edge $-1 $329 5.8009844824150933 $435 15.373904801455303 $431 $499 forward 7 unknown #
point $-1 -56.216315195165869 -39.113118497860391 -5.8009844824150933 #
straight-curve $-1 56.216315195165869 -39.113118497860391 0 0 0 -1 I I #
plane-surface $-1 0 39.113118497860391 0 0 -1 0 0 0 -1 forward_v I I I I #
coedge $-1 $338 $457 $340 $451 forward $335 $-1 #
vertex $-1 $451 $500 #
straight-curve $-1 -56.216315195165869 22.025005493717025 -5.293722320967599 0 0 1 I I #
edge $-1 $453 -23.828587499966037 $449 -6.7404744958226708 $448 $501 forward 7 unknown #
straight-curve $-1 0 22.025005493717025 -15.373904801455303 -1 0 0 I I #
vertex $-1 $343 $502 #
straight-curve $-1 0 39.113118497860391 -15.373904801455303 -1 0 0 I I #
point $-1 56.216315195165869 22.025005493717025 -15.373904801455303 #
point $-1 56.216315195165869 39.113118497860391 -15.373904801455303 #
coedge $-1 $448 $347 $350 $459 forward $335 $-1 #
straight-curve $-1 -56.216315195165869 15.284530997894354 -5.8009844824150933 0 1 0 I I #
edge $-1 $352 5.8009844824150933 $453 15.373904801455303 $350 $503 forward 7 unknown #
point $-1 -56.216315195165869 39.113118497860391 -5.8009844824150933 #
point $-1 -56.216315195165869 22.025005493717025 -5.8009844824150933 #
straight-curve $-1 56.216315195165869 22.025005493717025 -5.293722320967599 0 0 -1 I I #
straight-curve $-1 56.216315195165869 39.113118497860391 0 0 0 -1 I I #
coedge $-1 $372 $371 $364 $465 forward $361 $-1 #
edge $-1 $466 7.2699163037292394 $469 11.671926380612675 $464 $504 forward 7 unknown #
vertex $-1 $465 $505 #
straight-curve $-1 -56.216315195165869 -22.025005493717032 51.326657746958212 0 0 1 I I #
edge $-1 $469 -13.042519803414748 $373 -4.9224515771898201 $372 $506 forward 7 unknown #
vertex $-1 $468 $507 #
straight-curve $-1 -56.216315195165862 -22.025005493717032 15.276751561577441 -0.77714595512881146 0 -0.62932039886446345 I I #
point $-1 -56.216315195165869 -22.025005493717032 15.276751561577436 #
point $-1 -51.814305118282434 -13.904937267492103 18.841429109092307 #
straight-curve $-1 -56.216315195165869 0 18.841429109092307 0 -1 0 I I #
vertex $-1 $379 $508 #
point $-1 -52.997416780295282 -19.704986000509908 16.596604579638289 #
vertex $-1 $383 $509 #
point $-1 -52.997416780295282 -16.224956760699229 16.596604579638289 #
edge $-1 $479 7.2699163037292394 $482 11.671926380612675 $388 $510 forward 7 unknown #
vertex $-1 $478 $511 #
straight-curve $-1 -56.216315195165869 13.904937267492096 51.326657746958212 0 0 1 I I #
edge $-1 $482 4.9224515771898165 $399 13.042519803414745 $398 $512 forward 7 unknown #
vertex $-1 $481 $513 #
straight-curve $-1 -56.216315195165862 13.904937267492096 15.276751561577441 -0.77714595512881146 0 -0.62932039886446345 I I #
point $-1 -56.216315195165869 13.904937267492096 15.276751561577436 #
point $-1 -51.814305118282434 22.025005493717025 18.841429109092307 #
straight-curve $-1 -56.216315195165869 0 18.841429109092307 0 -1 0 I I #
vertex $-1 $405 $514 #
point $-1 -52.997416780295282 16.224956760699222 16.596604579638289 #
vertex $-1 $409 $515 #
point $-1 -52.997416780295282 19.704986000509898 16.596604579638289 #
straight-curve $-1 -56.216315195165869 39.113118497860391 0 0 0 -1 I I #
point $-1 -56.216315195165869 -39.113118497860391 -18.841429109092307 #
straight-curve $-1 -56.216315195165869 0 -18.841429109092307 0 1 0 I I #
point $-1 -56.216315195165869 39.113118497860391 -18.841429109092307 #
straight-curve $-1 -56.216315195165869 -15.284530997894354 -15.373904801455303 0 -1 0 I I #
point $-1 -56.216315195165869 -39.113118497860391 -15.373904801455303 #
point $-1 -56.216315195165869 -22.025005493717025 -15.373904801455303 #
straight-curve $-1 -56.216315195165869 -22.025005493717025 -5.293722320967599 0 0 -1 I I #
straight-curve $-1 -56.216315195165869 -39.113118497860391 0 0 0 -1 I I #
point $-1 -56.216315195165869 22.025005493717025 -15.373904801455303 #
straight-curve $-1 -56.216315195165869 15.284530997894354 -15.373904801455303 0 -1 0 I I #
point $-1 -56.216315195165869 39.113118497860391 -15.373904801455303 #
straight-curve $-1 -56.216315195165869 39.113118497860391 0 0 0 -1 I I #
straight-curve $-1 -63.486231498895108 -22.025005493717032 18.84142910909231 1 0 0 I I #
point $-1 -56.216315195165869 -22.025005493717032 18.841429109092307 #
straight-curve $-1 -51.814305118282427 -8.9824856903022834 18.841429109092303 0 1 0 I I #
point $-1 -51.814305118282434 -22.025005493717032 18.841429109092307 #
point $-1 -53.071329558427458 -19.704986000509908 15.893371402641653 #
point $-1 -53.071329558427458 -16.224956760699229 15.893371402641653 #
straight-curve $-1 -63.486231498895108 13.904937267492096 18.84142910909231 1 0 0 I I #
point $-1 -56.216315195165869 13.904937267492096 18.841429109092307 #
straight-curve $-1 -51.814305118282427 8.9824856903022798 18.841429109092303 0 1 0 I I #
point $-1 -51.814305118282434 13.904937267492096 18.841429109092307 #
point $-1 -53.071329558427458 16.224956760699222 15.893371402641653 #
point $-1 -53.071329558427458 19.704986000509898 15.893371402641653 #
End-of-ACIS-data 