500 0 4 0           
7 Unknown 11 ACIS 5.0 NT 24 Fri Mar 26 00:44:30 1999 
-1 9.9999999999999995e-007 1e-010 
body $-1 $4 $-1 $5 #
body $-1 $6 $-1 $7 #
body $-1 $8 $-1 $9 #
body $-1 $10 $-1 $11 #
lump $-1 $-1 $12 $0 #
transform $-1 1 0 0 0 1 0 0 0 1 49.304483169042022 20.194419329306804 9.3620827572161289 1 rotate no_reflect no_shear #
lump $-1 $-1 $13 $1 #
transform $-1 1 0 0 0 1 0 0 0 1 49.304483169042022 20.194419329306804 9.3620827572161289 1 rotate no_reflect no_shear #
lump $-1 $-1 $14 $2 #
transform $-1 1 0 0 0 1 0 0 0 1 49.304483169042022 20.194419329306804 9.3620827572161289 1 rotate no_reflect no_shear #
lump $-1 $-1 $15 $3 #
transform $-1 1 0 0 0 1 0 0 0 1 49.304483169042022 20.194419329306804 9.3620827572161289 1 rotate no_reflect no_shear #
shell $-1 $-1 $-1 $16 $-1 $4 #
shell $-1 $-1 $-1 $17 $-1 $6 #
shell $-1 $-1 $-1 $18 $-1 $8 #
shell $-1 $-1 $-1 $19 $-1 $10 #
face $-1 $20 $21 $12 $-1 $22 forward single #
face $-1 $23 $24 $13 $-1 $25 reversed single #
face $-1 $26 $27 $14 $-1 $28 forward single #
face $-1 $29 $30 $15 $-1 $31 reversed single #
face $-1 $32 $33 $12 $-1 $34 reversed single #
loop $-1 $-1 $35 $16 #
plane-surface $-1 0 0 9.3620827572161289 0 0 1 1 0 0 forward_v I I I I #
face $-1 $36 $37 $13 $-1 $38 reversed single #
loop $-1 $-1 $39 $17 #
plane-surface $-1 -53.994013194115034 0 3.9161489029666177 0 0 1 1 0 0 forward_v I I I I #
face $-1 $40 $41 $14 $-1 $42 forward single #
loop $-1 $-1 $43 $18 #
plane-surface $-1 45.096906250391257 -99.970749701557054 64.288611256740452 -1 0 0 0 -0.80901700255871778 0.5877852410284794 forward_v I I I I #
face $-1 $44 $45 $15 $-1 $46 reversed single #
loop $-1 $47 $48 $19 #
cone-surface $-1 37.767647200778192 -18.625326009309013 7.5057529425486802 0 0.80901700255871778 -0.5877852410284794 0.5 0 0 1 I I 0 1 0.5 forward I I I I #
face $-1 $49 $50 $12 $-1 $51 reversed single #
loop $-1 $-1 $52 $20 #
plane-surface $-1 0 0 -9.3620827572161289 0 0 1 1 0 0 forward_v I I I I #
coedge $-1 $53 $54 $55 $56 forward $21 $-1 #
face $-1 $57 $58 $13 $-1 $59 forward single #
loop $-1 $-1 $60 $23 #
plane-surface $-1 -58.683543219188046 0 6.6391158300913737 1 0 0 0 0 -1 forward_v I I I I #
coedge $-1 $61 $62 $63 $64 reversed $24 $-1 #
face $-1 $65 $66 $14 $-1 $67 forward single #
loop $-1 $-1 $68 $26 #
plane-surface $-1 37.767647200778207 -20.194419329306797 6.3277162101405082 0 -0.80901700255871778 0.5877852410284794 1 0 0 forward_v I I I I #
coedge $-1 $69 $70 $71 $72 reversed $27 $-1 #
face $-1 $73 $74 $15 $-1 $75 forward single #
loop $-1 $76 $77 $29 #
cone-surface $-1 37.767647200778192 -17.956276577400811 7.0196600911619278 0 0.80901700255871778 -0.5877852410284794 0.25 0 0 1 I I -0.70710678118654746 0.70710678118654746 0.25 forward I I I I #
loop $-1 $-1 $78 $19 #
coedge $-1 $48 $48 $79 $80 reversed $30 $-1 #
face $-1 $81 $82 $12 $-1 $83 reversed single #
loop $-1 $-1 $84 $32 #
plane-surface $-1 0 -20.194419329306804 0 0 1 0 0 0 1 forward_v I I I I #
coedge $-1 $85 $86 $87 $88 forward $33 $-1 #
coedge $-1 $89 $35 $90 $91 forward $21 $-1 #
coedge $-1 $35 $89 $92 $93 forward $21 $-1 #
coedge $-1 $94 $95 $35 $56 reversed $96 $-1 #
edge $-1 $97 -20.194419329306804 $98 20.194419329306804 $55 $99 forward 7 unknown #
face $-1 $100 $101 $13 $-1 $102 reversed single #
loop $-1 $-1 $103 $36 #
plane-surface $-1 0 0 9.3620827572161289 0 0 1 1 0 0 forward_v I I I I #
coedge $-1 $104 $105 $106 $107 forward $37 $-1 #
coedge $-1 $108 $39 $109 $110 forward $24 $-1 #
coedge $-1 $39 $108 $111 $112 forward $24 $-1 #
coedge $-1 $113 $114 $39 $64 forward $115 $-1 #
edge $-1 $116 -20.194419329306804 $117 20.194419329306804 $63 $118 forward 7 unknown #
face $-1 $119 $120 $14 $-1 $121 forward single #
loop $-1 $-1 $122 $40 #
plane-surface $-1 30.438388151165157 -99.970749701557054 64.288611256740452 1 0 0 0 0.80901700255871778 -0.5877852410284794 forward_v I I I I #
coedge $-1 $123 $124 $125 $126 reversed $41 $-1 #
coedge $-1 $70 $43 $124 $127 forward $27 $-1 #
coedge $-1 $43 $69 $128 $129 reversed $27 $-1 #
coedge $-1 $130 $125 $43 $72 forward $120 $-1 #
edge $-1 $131 -31.995551798930251 $132 -29.790955521471723 $71 $133 forward 7 unknown #
face $-1 $134 $135 $15 $-1 $136 forward single #
loop $-1 $-1 $137 $44 #
plane-surface $-1 45.096906250391257 -99.970749701557054 64.288611256740452 -1 0 0 0 -0.80901700255871778 0.5877852410284794 forward_v I I I I #
loop $-1 $-1 $138 $29 #
coedge $-1 $77 $77 $78 $139 forward $45 $-1 #
coedge $-1 $78 $78 $77 $139 reversed $47 $-1 #
coedge $-1 $79 $79 $48 $80 forward $135 $-1 #
edge $-1 $140 2.8742057713725365e-015 $140 6.2831853071796031 $79 $141 forward 7 unknown #
face $-1 $142 $143 $12 $-1 $144 reversed single #
loop $-1 $-1 $145 $49 #
plane-surface $-1 -49.304483169042022 0 0 1 0 0 0 0 -1 forward_v I I I I #
coedge $-1 $146 $92 $147 $148 forward $50 $-1 #
coedge $-1 $149 $52 $146 $150 forward $33 $-1 #
coedge $-1 $52 $149 $151 $152 forward $33 $-1 #
coedge $-1 $95 $94 $52 $88 reversed $96 $-1 #
edge $-1 $153 -20.194419329306804 $154 20.194419329306804 $87 $155 forward 7 unknown #
coedge $-1 $54 $53 $156 $157 forward $21 $-1 #
coedge $-1 $158 $159 $53 $91 reversed $143 $-1 #
edge $-1 $98 -49.304483169042022 $160 49.304483169042022 $90 $161 forward 7 unknown #
coedge $-1 $84 $162 $54 $93 reversed $50 $-1 #
edge $-1 $163 -49.304483169042022 $97 49.304483169042022 $92 $164 forward 7 unknown #
coedge $-1 $87 $55 $162 $165 forward $96 $-1 #
coedge $-1 $55 $87 $158 $166 reversed $96 $-1 #
loop $-1 $-1 $94 $142 #
vertex $-1 $56 $167 #
vertex $-1 $56 $168 #
straight-curve $-1 49.304483169042022 0 9.3620827572161289 0 1 0 I I #
face $-1 $169 $170 $13 $-1 $171 reversed single #
loop $-1 $-1 $172 $57 #
plane-surface $-1 0 0 -9.3620827572161289 0 0 1 1 0 0 forward_v I I I I #
coedge $-1 $173 $174 $175 $176 forward $58 $-1 #
coedge $-1 $177 $60 $108 $178 reversed $37 $-1 #
coedge $-1 $60 $177 $179 $180 reversed $37 $-1 #
coedge $-1 $181 $111 $60 $107 reversed $182 $-1 #
edge $-1 $183 -2.7229669271247552 $184 2.7229669271247561 $106 $185 forward 7 unknown #
coedge $-1 $62 $61 $104 $178 forward $24 $-1 #
coedge $-1 $186 $187 $61 $110 reversed $170 $-1 #
edge $-1 $116 -4.6895300250730116 $188 4.6895300250730116 $109 $189 forward 7 unknown #
coedge $-1 $106 $190 $62 $112 reversed $182 $-1 #
edge $-1 $184 -4.6895300250730116 $117 4.6895300250730116 $111 $191 forward 7 unknown #
coedge $-1 $192 $63 $190 $193 forward $115 $-1 #
coedge $-1 $63 $192 $186 $194 reversed $115 $-1 #
loop $-1 $-1 $63 $169 #
vertex $-1 $194 $195 #
vertex $-1 $193 $196 #
straight-curve $-1 -49.304483169042022 0 3.9161489029666177 0 1 0 I I #
face $-1 $197 $198 $14 $-1 $199 reversed single #
loop $-1 $-1 $200 $65 #
plane-surface $-1 0 0 9.3620827572161289 0 0 1 1 0 0 forward_v I I I I #
coedge $-1 $201 $202 $200 $203 reversed $66 $-1 #
coedge $-1 $204 $68 $202 $205 reversed $41 $-1 #
coedge $-1 $68 $204 $69 $127 reversed $41 $-1 #
coedge $-1 $71 $200 $68 $126 forward $120 $-1 #
edge $-1 $206 11.554564550776053 $131 26.213082650002153 $125 $207 forward 7 unknown #
edge $-1 $131 -3.7506832828960102 $208 1.2080531203272332e-014 $69 $209 forward 7 unknown #
coedge $-1 $210 $211 $70 $129 forward $212 $-1 #
edge $-1 $132 22.782222871154097 $208 25.816589418229729 $128 $213 forward 7 unknown #
coedge $-1 $214 $71 $211 $215 forward $120 $-1 #
vertex $-1 $126 $216 #
vertex $-1 $215 $217 #
straight-curve $-1 45.096906250391257 -49.985374850778527 9.3620827572161289 0 -1 0 I I #
face $-1 $218 $219 $15 $-1 $220 forward single #
loop $-1 $221 $79 $73 #
plane-surface $-1 37.767647200778207 -20.194419329306797 6.3277162101405082 0 -0.80901700255871778 0.5877852410284794 1 0 0 forward_v I I I I #
coedge $-1 $222 $223 $224 $225 reversed $74 $-1 #
coedge $-1 $138 $138 $-1 $226 forward $76 $-1 #
edge $-1 $227 0 $227 6.2831853071796004 $77 $228 forward 7 unknown #
vertex $-1 $80 $229 #
ellipse-curve $-1 37.767647200778192 -19.09212119057754 7.844899483678315 0 0.80901700255871778 -0.5877852410284794 0.5 0 0 1 I I #
face $-1 $-1 $96 $12 $-1 $230 reversed single #
loop $-1 $-1 $158 $81 #
plane-surface $-1 0 20.194419329306804 0 0 -1 0 0 0 -1 forward_v I I I I #
coedge $-1 $231 $156 $159 $232 forward $82 $-1 #
coedge $-1 $162 $84 $85 $150 reversed $50 $-1 #
coedge $-1 $156 $231 $84 $148 reversed $82 $-1 #
edge $-1 $163 -9.3620827572161289 $233 9.3620827572161289 $147 $234 forward 7 unknown #
coedge $-1 $86 $85 $231 $235 forward $33 $-1 #
edge $-1 $154 -49.304483169042022 $233 49.304483169042022 $146 $236 forward 7 unknown #
coedge $-1 $159 $158 $86 $152 reversed $143 $-1 #
edge $-1 $237 -49.304483169042022 $153 49.304483169042022 $151 $238 forward 7 unknown #
vertex $-1 $88 $239 #
vertex $-1 $165 $240 #
straight-curve $-1 49.304483169042022 0 -9.3620827572161289 0 -1 0 I I #
coedge $-1 $145 $147 $89 $157 reversed $82 $-1 #
edge $-1 $160 -20.194419329306804 $163 20.194419329306804 $156 $241 forward 7 unknown #
coedge $-1 $151 $90 $95 $166 forward $143 $-1 #
coedge $-1 $90 $151 $145 $232 reversed $143 $-1 #
vertex $-1 $91 $242 #
straight-curve $-1 0 20.194419329306804 9.3620827572161289 -1 0 0 I I #
coedge $-1 $92 $146 $94 $165 reversed $50 $-1 #
vertex $-1 $157 $243 #
straight-curve $-1 0 -20.194419329306804 9.3620827572161289 1 0 0 I I #
edge $-1 $97 -9.3620827572161289 $154 9.3620827572161289 $94 $244 forward 7 unknown #
edge $-1 $98 -9.3620827572161289 $153 9.3620827572161289 $95 $245 forward 7 unknown #
point $-1 49.304483169042022 -20.194419329306804 9.3620827572161289 #
point $-1 49.304483169042022 20.194419329306804 9.3620827572161289 #
face $-1 $246 $115 $13 $-1 $247 reversed single #
loop $-1 $-1 $186 $100 #
plane-surface $-1 0 -20.194419329306804 0 0 1 0 0 0 1 forward_v I I I I #
coedge $-1 $248 $249 $250 $251 forward $101 $-1 #
coedge $-1 $179 $103 $181 $252 forward $58 $-1 #
coedge $-1 $103 $179 $253 $254 forward $58 $-1 #
coedge $-1 $255 $256 $103 $176 reversed $257 $-1 #
edge $-1 $258 -20.194419329306804 $259 20.194419329306804 $175 $260 forward 7 unknown #
coedge $-1 $105 $104 $187 $261 reversed $37 $-1 #
edge $-1 $188 -20.194419329306804 $184 20.194419329306804 $104 $262 forward 7 unknown #
coedge $-1 $174 $173 $105 $180 forward $58 $-1 #
edge $-1 $183 -20.194419329306804 $263 20.194419329306804 $105 $264 forward 7 unknown #
coedge $-1 $265 $106 $173 $252 reversed $182 $-1 #
loop $-1 $-1 $265 $246 #
vertex $-1 $252 $266 #
vertex $-1 $112 $267 #
straight-curve $-1 -58.683543219188046 20.194419329306804 6.6391158300913737 0 0 -1 I I #
coedge $-1 $268 $109 $114 $194 forward $170 $-1 #
coedge $-1 $109 $253 $177 $261 forward $170 $-1 #
vertex $-1 $178 $269 #
straight-curve $-1 -53.994013194115034 -20.194419329306804 3.9161489029666177 -1 0 0 I I #
coedge $-1 $111 $270 $113 $193 reversed $182 $-1 #
straight-curve $-1 -53.994013194115034 20.194419329306804 3.9161489029666177 1 0 0 I I #
coedge $-1 $114 $113 $271 $272 reversed $115 $-1 #
edge $-1 $117 -3.9161489029666177 $273 9.3620827572161289 $190 $274 forward 7 unknown #
edge $-1 $116 -3.9161489029666177 $275 9.3620827572161289 $114 $276 forward 7 unknown #
point $-1 -49.304483169042022 -20.194419329306804 3.9161489029666177 #
point $-1 -49.304483169042022 20.194419329306804 3.9161489029666177 #
face $-1 $277 $278 $14 $-1 $279 reversed single #
loop $-1 $-1 $280 $119 #
plane-surface $-1 -53.994013194115034 0 3.9161489029666177 0 0 1 1 0 0 forward_v I I I I #
coedge $-1 $125 $281 $122 $203 forward $120 $-1 #
coedge $-1 $202 $122 $282 $283 reversed $66 $-1 #
coedge $-1 $122 $201 $123 $205 forward $66 $-1 #
edge $-1 $284 29.790955521471723 $206 31.995551798930251 $200 $285 forward 7 unknown #
coedge $-1 $124 $123 $210 $286 reversed $41 $-1 #
edge $-1 $287 -1.2080531203272332e-014 $206 3.7506832828960102 $202 $288 forward 7 unknown #
vertex $-1 $126 $289 #
straight-curve $-1 18.883823600389103 -17.989823051848276 9.3620827572161289 1 0 0 I I #
vertex $-1 $286 $290 #
straight-curve $-1 45.096906250391257 -20.194419329306797 6.3277162101405082 0 -0.5877852410284794 -0.80901700255871778 I I #
coedge $-1 $282 $128 $204 $286 forward $212 $-1 #
coedge $-1 $128 $291 $130 $215 reversed $212 $-1 #
loop $-1 $-1 $282 $292 #
straight-curve $-1 45.096906250391257 -20.194419329306804 32.144305628370226 0 0 -1 I I #
coedge $-1 $293 $130 $294 $295 forward $120 $-1 #
edge $-1 $132 45.096906250391257 $296 49.304483169042022 $211 $297 forward 7 unknown #
point $-1 45.096906250391257 -17.989823051848276 9.3620827572161289 #
point $-1 45.096906250391257 -20.194419329306804 9.3620827572161289 #
face $-1 $298 $299 $15 $-1 $300 forward single #
loop $-1 $-1 $301 $134 #
plane-surface $-1 30.438388151165157 -99.970749701557054 64.288611256740452 1 0 0 0 0.80901700255871778 -0.5877852410284794 forward_v I I I I #
loop $-1 $-1 $302 $73 #
coedge $-1 $223 $137 $303 $304 forward $74 $-1 #
coedge $-1 $137 $222 $305 $306 reversed $74 $-1 #
coedge $-1 $307 $308 $137 $225 forward $299 $-1 #
edge $-1 $309 -31.995551798930251 $310 -29.790955521471723 $224 $311 forward 7 unknown #
edge $-1 $312 1 $312 0 $138 $-1 forward 7 unknown #
vertex $-1 $139 $313 #
ellipse-curve $-1 37.767647200778192 -18.15853082804049 7.166606401419048 0 -0.80901700255871778 0.5877852410284794 0.5 0 0 1 I I #
point $-1 38.267647200778192 -19.09212119057754 7.8448994836783132 #
plane-surface $-1 49.304483169042022 0 0 -1 0 0 0 0 1 forward_v I I I I #
coedge $-1 $147 $145 $149 $235 reversed $82 $-1 #
edge $-1 $160 -9.3620827572161289 $237 9.3620827572161289 $159 $314 forward 7 unknown #
vertex $-1 $235 $315 #
straight-curve $-1 -49.304483169042022 -20.194419329306804 0 0 0 -1 I I #
edge $-1 $233 -20.194419329306804 $237 20.194419329306804 $231 $316 forward 7 unknown #
straight-curve $-1 0 -20.194419329306804 -9.3620827572161289 -1 0 0 I I #
vertex $-1 $152 $317 #
straight-curve $-1 0 20.194419329306804 -9.3620827572161289 1 0 0 I I #
point $-1 49.304483169042022 20.194419329306804 -9.3620827572161289 #
point $-1 49.304483169042022 -20.194419329306804 -9.3620827572161289 #
straight-curve $-1 -49.304483169042022 0 9.3620827572161289 0 -1 0 I I #
point $-1 -49.304483169042022 20.194419329306804 9.3620827572161289 #
point $-1 -49.304483169042022 -20.194419329306804 9.3620827572161289 #
straight-curve $-1 49.304483169042022 -20.194419329306804 0 0 0 -1 I I #
straight-curve $-1 49.304483169042022 20.194419329306804 0 0 0 -1 I I #
face $-1 $318 $182 $13 $-1 $319 reversed single #
plane-surface $-1 -49.304483169042022 0 0 1 0 0 0 0 -1 forward_v I I I I #
coedge $-1 $271 $172 $268 $320 forward $101 $-1 #
coedge $-1 $172 $271 $270 $321 forward $101 $-1 #
coedge $-1 $256 $255 $172 $251 reversed $257 $-1 #
edge $-1 $322 -20.194419329306804 $323 20.194419329306804 $250 $324 forward 7 unknown #
edge $-1 $259 -49.304483169042022 $183 58.683543219188046 $181 $325 forward 7 unknown #
coedge $-1 $187 $326 $174 $254 reversed $170 $-1 #
edge $-1 $263 -58.683543219188046 $258 49.304483169042022 $253 $327 forward 7 unknown #
coedge $-1 $250 $175 $326 $328 forward $257 $-1 #
coedge $-1 $175 $250 $265 $329 reversed $257 $-1 #
loop $-1 $-1 $255 $318 #
vertex $-1 $176 $330 #
vertex $-1 $176 $331 #
straight-curve $-1 49.304483169042022 0 9.3620827572161289 0 1 0 I I #
edge $-1 $263 -2.7229669271247552 $188 2.7229669271247561 $177 $332 forward 7 unknown #
straight-curve $-1 -58.683543219188046 0 3.9161489029666177 0 1 0 I I #
vertex $-1 $180 $333 #
straight-curve $-1 -58.683543219188046 0 9.3620827572161289 0 -1 0 I I #
coedge $-1 $270 $181 $256 $329 forward $182 $-1 #
point $-1 -58.683543219188046 20.194419329306804 9.3620827572161289 #
point $-1 -58.683543219188046 20.194419329306804 3.9161489029666177 #
coedge $-1 $326 $186 $248 $320 reversed $170 $-1 #
point $-1 -58.683543219188046 -20.194419329306804 3.9161489029666177 #
coedge $-1 $190 $265 $249 $321 reversed $182 $-1 #
coedge $-1 $249 $248 $192 $272 forward $101 $-1 #
edge $-1 $275 -20.194419329306804 $273 20.194419329306804 $192 $334 forward 7 unknown #
vertex $-1 $321 $335 #
straight-curve $-1 -49.304483169042022 20.194419329306804 0 0 0 -1 I I #
vertex $-1 $272 $336 #
straight-curve $-1 -49.304483169042022 -20.194419329306804 0 0 0 -1 I I #
face $-1 $292 $337 $14 $-1 $338 reversed single #
loop $-1 $-1 $339 $197 #
plane-surface $-1 -58.683543219188046 0 6.6391158300913737 1 0 0 0 0 -1 forward_v I I I I #
coedge $-1 $340 $341 $342 $343 reversed $198 $-1 #
coedge $-1 $200 $344 $345 $346 forward $120 $-1 #
coedge $-1 $345 $210 $201 $283 forward $212 $-1 #
edge $-1 $287 -25.816589418229729 $284 -22.782222871154097 $282 $347 forward 7 unknown #
vertex $-1 $283 $348 #
straight-curve $-1 30.438388151165157 -49.985374850778527 9.3620827572161289 0 1 0 I I #
edge $-1 $208 -26.213082650002153 $287 -11.554564550776053 $210 $349 forward 7 unknown #
vertex $-1 $286 $350 #
straight-curve $-1 30.438388151165157 -20.194419329306797 6.3277162101405082 0 0.5877852410284794 0.80901700255871778 I I #
point $-1 30.438388151165157 -17.989823051848276 9.3620827572161289 #
point $-1 45.096906250391257 -20.194419329306804 6.3277162101404985 #
coedge $-1 $211 $351 $352 $353 reversed $212 $-1 #
face $-1 $354 $212 $14 $-1 $355 reversed single #
coedge $-1 $344 $214 $356 $357 forward $120 $-1 #
coedge $-1 $352 $358 $214 $295 reversed $359 $-1 #
edge $-1 $296 -20.194419329306804 $360 20.194419329306804 $294 $361 forward 7 unknown #
vertex $-1 $295 $362 #
straight-curve $-1 0 -20.194419329306804 9.3620827572161289 1 0 0 I I #
face $-1 $363 $364 $15 $-1 $365 reversed single #
loop $-1 $-1 $366 $218 #
plane-surface $-1 0 0 9.3620827572161289 0 0 1 1 0 0 forward_v I I I I #
coedge $-1 $367 $368 $366 $369 reversed $219 $-1 #
coedge $-1 $370 $303 $308 $371 reversed $221 $-1 #
coedge $-1 $302 $372 $222 $304 reversed $221 $-1 #
edge $-1 $309 -3.7506832828960102 $373 1.2080531203272332e-014 $222 $374 forward 7 unknown #
coedge $-1 $375 $376 $223 $306 forward $377 $-1 #
edge $-1 $310 22.782222871154097 $373 25.816589418229729 $305 $378 forward 7 unknown #
coedge $-1 $379 $224 $376 $380 forward $299 $-1 #
coedge $-1 $224 $366 $302 $371 forward $299 $-1 #
vertex $-1 $371 $381 #
vertex $-1 $380 $382 #
straight-curve $-1 45.096906250391257 -49.985374850778527 9.3620827572161289 0 -1 0 I I #
vertex $-1 $226 $383 #
point $-1 38.267647200778192 -18.15853082804049 7.166606401419048 #
straight-curve $-1 -49.304483169042022 20.194419329306804 0 0 0 -1 I I #
point $-1 -49.304483169042022 -20.194419329306804 -9.3620827572161289 #
straight-curve $-1 -49.304483169042022 0 -9.3620827572161289 0 1 0 I I #
point $-1 -49.304483169042022 20.194419329306804 -9.3620827572161289 #
face $-1 $-1 $257 $13 $-1 $384 reversed single #
plane-surface $-1 0 20.194419329306804 0 0 -1 0 0 0 -1 forward_v I I I I #
edge $-1 $323 -49.304483169042022 $275 49.304483169042022 $268 $385 forward 7 unknown #
edge $-1 $273 -49.304483169042022 $322 49.304483169042022 $270 $386 forward 7 unknown #
vertex $-1 $251 $387 #
vertex $-1 $328 $388 #
straight-curve $-1 49.304483169042022 0 -9.3620827572161289 0 -1 0 I I #
straight-curve $-1 0 20.194419329306804 9.3620827572161289 -1 0 0 I I #
coedge $-1 $253 $268 $255 $328 reversed $170 $-1 #
straight-curve $-1 0 -20.194419329306804 9.3620827572161289 1 0 0 I I #
edge $-1 $258 -9.3620827572161289 $323 9.3620827572161289 $255 $389 forward 7 unknown #
edge $-1 $259 -9.3620827572161289 $322 9.3620827572161289 $256 $390 forward 7 unknown #
point $-1 49.304483169042022 -20.194419329306804 9.3620827572161289 #
point $-1 49.304483169042022 20.194419329306804 9.3620827572161289 #
straight-curve $-1 -58.683543219188046 -20.194419329306804 6.6391158300913737 0 0 -1 I I #
point $-1 -58.683543219188046 -20.194419329306804 9.3620827572161289 #
straight-curve $-1 -49.304483169042022 0 -9.3620827572161289 0 1 0 I I #
point $-1 -49.304483169042022 20.194419329306804 -9.3620827572161289 #
point $-1 -49.304483169042022 -20.194419329306804 -9.3620827572161289 #
loop $-1 $-1 $391 $277 #
plane-surface $-1 0 0 -9.3620827572161289 0 0 1 1 0 0 forward_v I I I I #
coedge $-1 $392 $393 $394 $395 forward $278 $-1 #
coedge $-1 $396 $280 $397 $398 forward $198 $-1 #
coedge $-1 $280 $396 $399 $400 forward $198 $-1 #
coedge $-1 $401 $402 $280 $343 forward $403 $-1 #
edge $-1 $404 -20.194419329306804 $405 20.194419329306804 $342 $406 forward 7 unknown #
coedge $-1 $281 $293 $393 $407 forward $120 $-1 #
coedge $-1 $408 $282 $281 $346 reversed $212 $-1 #
edge $-1 $409 -58.683543219188046 $284 30.438388151165157 $345 $297 forward 7 unknown #
straight-curve $-1 30.438388151165157 -20.194419329306804 32.144305628370226 0 0 1 I I #
point $-1 30.438388151165157 -20.194419329306804 9.3620827572161289 #
straight-curve $-1 18.883823600389103 -20.194419329306804 6.3277162101404993 -1 0 0 I I #
point $-1 30.438388151165157 -20.194419329306804 6.3277162101404985 #
coedge $-1 $291 $410 $411 $412 reversed $212 $-1 #
coedge $-1 $413 $294 $291 $353 forward $359 $-1 #
edge $-1 $296 -9.3620827572161289 $414 9.3620827572161289 $352 $415 forward 7 unknown #
face $-1 $416 $403 $14 $-1 $417 reversed single #
plane-surface $-1 0 -20.194419329306804 0 0 1 0 0 0 1 forward_v I I I I #
coedge $-1 $418 $394 $293 $357 reversed $419 $-1 #
edge $-1 $360 -49.304483169042022 $420 58.683543219188046 $356 $421 forward 7 unknown #
coedge $-1 $294 $413 $418 $422 reversed $359 $-1 #
loop $-1 $-1 $352 $423 #
vertex $-1 $295 $424 #
straight-curve $-1 49.304483169042022 0 9.3620827572161289 0 1 0 I I #
point $-1 49.304483169042022 -20.194419329306804 9.3620827572161289 #
face $-1 $425 $426 $15 $-1 $427 reversed single #
loop $-1 $-1 $428 $298 #
plane-surface $-1 -53.994013194115034 0 3.9161489029666177 0 0 1 1 0 0 forward_v I I I I #
coedge $-1 $308 $429 $301 $369 forward $299 $-1 #
coedge $-1 $368 $301 $430 $431 reversed $219 $-1 #
coedge $-1 $301 $367 $370 $432 forward $219 $-1 #
edge $-1 $433 29.790955521471723 $434 31.995551798930251 $366 $435 forward 7 unknown #
coedge $-1 $372 $302 $368 $432 reversed $221 $-1 #
edge $-1 $434 11.554564550776053 $309 26.213082650002153 $308 $436 forward 7 unknown #
coedge $-1 $303 $370 $375 $437 reversed $221 $-1 #
vertex $-1 $437 $438 #
straight-curve $-1 45.096906250391257 -20.194419329306797 6.3277162101405082 0 -0.5877852410284794 -0.80901700255871778 I I #
coedge $-1 $430 $305 $372 $437 forward $377 $-1 #
coedge $-1 $305 $439 $307 $380 reversed $377 $-1 #
loop $-1 $-1 $430 $440 #
straight-curve $-1 45.096906250391257 -20.194419329306804 32.144305628370226 0 0 -1 I I #
coedge $-1 $441 $307 $442 $443 forward $299 $-1 #
edge $-1 $310 45.096906250391257 $444 49.304483169042022 $376 $445 forward 7 unknown #
point $-1 45.096906250391257 -17.989823051848276 9.3620827572161289 #
point $-1 45.096906250391257 -20.194419329306804 9.3620827572161289 #
point $-1 37.767647200778192 -17.754022326761131 6.8727137809048076 #
plane-surface $-1 49.304483169042022 0 0 -1 0 0 0 0 1 forward_v I I I I #
straight-curve $-1 0 -20.194419329306804 -9.3620827572161289 -1 0 0 I I #
straight-curve $-1 0 20.194419329306804 -9.3620827572161289 1 0 0 I I #
point $-1 49.304483169042022 20.194419329306804 -9.3620827572161289 #
point $-1 49.304483169042022 -20.194419329306804 -9.3620827572161289 #
straight-curve $-1 49.304483169042022 -20.194419329306804 0 0 0 -1 I I #
straight-curve $-1 49.304483169042022 20.194419329306804 0 0 0 -1 I I #
coedge $-1 $411 $446 $413 $447 forward $337 $-1 #
coedge $-1 $448 $339 $396 $449 reversed $278 $-1 #
coedge $-1 $339 $448 $344 $407 reversed $278 $-1 #
coedge $-1 $356 $399 $339 $395 reversed $419 $-1 #
edge $-1 $420 -2.7229669271247552 $450 2.7229669271247561 $394 $451 forward 7 unknown #
coedge $-1 $341 $340 $392 $449 forward $198 $-1 #
coedge $-1 $410 $408 $340 $398 reversed $212 $-1 #
edge $-1 $404 -4.6895300250730116 $452 4.6895300250730116 $397 $453 forward 7 unknown #
coedge $-1 $394 $454 $341 $400 reversed $419 $-1 #
edge $-1 $450 -4.6895300250730116 $405 4.6895300250730116 $399 $455 forward 7 unknown #
coedge $-1 $456 $342 $454 $457 forward $403 $-1 #
coedge $-1 $342 $456 $410 $458 reversed $403 $-1 #
loop $-1 $-1 $342 $354 #
vertex $-1 $458 $459 #
vertex $-1 $457 $460 #
straight-curve $-1 -49.304483169042022 0 3.9161489029666177 0 1 0 I I #
edge $-1 $420 -20.194419329306804 $409 20.194419329306804 $393 $461 forward 7 unknown #
coedge $-1 $397 $345 $448 $462 forward $212 $-1 #
vertex $-1 $407 $463 #
coedge $-1 $351 $397 $402 $458 forward $212 $-1 #
coedge $-1 $464 $391 $351 $412 forward $337 $-1 #
edge $-1 $414 -49.304483169042022 $465 49.304483169042022 $351 $466 forward 7 unknown #
coedge $-1 $358 $352 $391 $447 reversed $359 $-1 #
vertex $-1 $353 $467 #
straight-curve $-1 49.304483169042022 -20.194419329306804 0 0 0 -1 I I #
face $-1 $423 $419 $14 $-1 $468 reversed single #
plane-surface $-1 -49.304483169042022 0 0 1 0 0 0 0 -1 forward_v I I I I #
coedge $-1 $469 $356 $358 $422 forward $419 $-1 #
loop $-1 $-1 $418 $416 #
vertex $-1 $357 $470 #
straight-curve $-1 0 20.194419329306804 9.3620827572161289 -1 0 0 I I #
edge $-1 $360 -9.3620827572161289 $471 9.3620827572161289 $358 $472 forward 7 unknown #
face $-1 $-1 $359 $14 $-1 $473 reversed single #
point $-1 49.304483169042022 20.194419329306804 9.3620827572161289 #
face $-1 $440 $474 $15 $-1 $475 reversed single #
loop $-1 $-1 $476 $363 #
plane-surface $-1 -58.683543219188046 0 6.6391158300913737 1 0 0 0 0 -1 forward_v I I I I #
coedge $-1 $477 $478 $479 $480 reversed $364 $-1 #
coedge $-1 $366 $481 $482 $483 forward $299 $-1 #
coedge $-1 $482 $375 $367 $431 forward $377 $-1 #
edge $-1 $484 -25.816589418229729 $433 -22.782222871154097 $430 $485 forward 7 unknown #
edge $-1 $484 -1.2080531203272332e-014 $434 3.7506832828960102 $368 $486 forward 7 unknown #
vertex $-1 $431 $487 #
vertex $-1 $371 $488 #
straight-curve $-1 30.438388151165157 -49.985374850778527 9.3620827572161289 0 1 0 I I #
straight-curve $-1 18.883823600389103 -17.989823051848276 9.3620827572161289 1 0 0 I I #
edge $-1 $373 -26.213082650002153 $484 -11.554564550776053 $375 $489 forward 7 unknown #
point $-1 45.096906250391257 -20.194419329306804 6.3277162101404985 #
coedge $-1 $376 $490 $491 $492 reversed $377 $-1 #
face $-1 $493 $377 $15 $-1 $494 reversed single #
coedge $-1 $481 $379 $495 $496 forward $299 $-1 #
coedge $-1 $491 $497 $379 $443 reversed $498 $-1 #
edge $-1 $444 -20.194419329306804 $499 20.194419329306804 $442 $500 forward 7 unknown #
vertex $-1 $443 $501 #
straight-curve $-1 0 -20.194419329306804 9.3620827572161289 1 0 0 I I #
coedge $-1 $391 $464 $469 $502 forward $337 $-1 #
edge $-1 $471 -20.194419329306804 $414 20.194419329306804 $413 $503 forward 7 unknown #
coedge $-1 $393 $392 $408 $462 reversed $278 $-1 #
edge $-1 $452 -20.194419329306804 $450 20.194419329306804 $392 $504 forward 7 unknown #
vertex $-1 $400 $505 #
straight-curve $-1 -58.683543219188046 20.194419329306804 6.6391158300913737 0 0 -1 I I #
vertex $-1 $449 $506 #
straight-curve $-1 -53.994013194115034 -20.194419329306804 3.9161489029666177 -1 0 0 I I #
coedge $-1 $399 $469 $401 $457 reversed $419 $-1 #
straight-curve $-1 -53.994013194115034 20.194419329306804 3.9161489029666177 1 0 0 I I #
coedge $-1 $402 $401 $464 $507 reversed $403 $-1 #
edge $-1 $405 -3.9161489029666177 $508 9.3620827572161289 $454 $509 forward 7 unknown #
edge $-1 $404 -3.9161489029666177 $465 9.3620827572161289 $402 $510 forward 7 unknown #
point $-1 -49.304483169042022 -20.194419329306804 3.9161489029666177 #
point $-1 -49.304483169042022 20.194419329306804 3.9161489029666177 #
straight-curve $-1 -58.683543219188046 0 9.3620827572161289 0 -1 0 I I #
edge $-1 $409 -2.7229669271247552 $452 2.7229669271247561 $448 $511 forward 7 unknown #
point $-1 -58.683543219188046 -20.194419329306804 9.3620827572161289 #
coedge $-1 $446 $411 $456 $507 forward $337 $-1 #
vertex $-1 $507 $512 #
straight-curve $-1 0 -20.194419329306804 -9.3620827572161289 -1 0 0 I I #
point $-1 49.304483169042022 -20.194419329306804 -9.3620827572161289 #
plane-surface $-1 0 20.194419329306804 0 0 -1 0 0 0 -1 forward_v I I I I #
coedge $-1 $454 $418 $446 $502 reversed $419 $-1 #
point $-1 -58.683543219188046 20.194419329306804 9.3620827572161289 #
vertex $-1 $447 $513 #
straight-curve $-1 49.304483169042022 20.194419329306804 0 0 0 -1 I I #
plane-surface $-1 49.304483169042022 0 0 -1 0 0 0 0 1 forward_v I I I I #
loop $-1 $-1 $514 $425 #
plane-surface $-1 0 0 -9.3620827572161289 0 0 1 1 0 0 forward_v I I I I #
coedge $-1 $515 $516 $517 $518 forward $426 $-1 #
coedge $-1 $519 $428 $520 $521 forward $364 $-1 #
coedge $-1 $428 $519 $522 $523 forward $364 $-1 #
coedge $-1 $524 $525 $428 $480 forward $526 $-1 #
edge $-1 $527 -20.194419329306804 $528 20.194419329306804 $479 $529 forward 7 unknown #
coedge $-1 $429 $441 $516 $530 forward $299 $-1 #
coedge $-1 $531 $430 $429 $483 reversed $377 $-1 #
edge $-1 $532 -58.683543219188046 $433 30.438388151165157 $482 $445 forward 7 unknown #
vertex $-1 $437 $533 #
straight-curve $-1 30.438388151165157 -20.194419329306804 32.144305628370226 0 0 1 I I #
straight-curve $-1 30.438388151165157 -20.194419329306797 6.3277162101405082 0 0.5877852410284794 0.80901700255871778 I I #
point $-1 30.438388151165157 -20.194419329306804 9.3620827572161289 #
point $-1 30.438388151165157 -17.989823051848276 9.3620827572161289 #
straight-curve $-1 18.883823600389103 -20.194419329306804 6.3277162101404993 -1 0 0 I I #
coedge $-1 $439 $534 $535 $536 reversed $377 $-1 #
coedge $-1 $537 $442 $439 $492 forward $498 $-1 #
edge $-1 $444 -9.3620827572161289 $538 9.3620827572161289 $491 $539 forward 7 unknown #
face $-1 $540 $526 $15 $-1 $541 reversed single #
plane-surface $-1 0 -20.194419329306804 0 0 1 0 0 0 1 forward_v I I I I #
coedge $-1 $542 $517 $441 $496 reversed $543 $-1 #
edge $-1 $499 -49.304483169042022 $544 58.683543219188046 $495 $545 forward 7 unknown #
coedge $-1 $442 $537 $542 $546 reversed $498 $-1 #
loop $-1 $-1 $491 $547 #
vertex $-1 $443 $548 #
straight-curve $-1 49.304483169042022 0 9.3620827572161289 0 1 0 I I #
point $-1 49.304483169042022 -20.194419329306804 9.3620827572161289 #
edge $-1 $508 -49.304483169042022 $471 49.304483169042022 $469 $549 forward 7 unknown #
straight-curve $-1 49.304483169042022 0 -9.3620827572161289 0 -1 0 I I #
straight-curve $-1 -58.683543219188046 0 3.9161489029666177 0 1 0 I I #
point $-1 -58.683543219188046 20.194419329306804 3.9161489029666177 #
point $-1 -58.683543219188046 -20.194419329306804 3.9161489029666177 #
edge $-1 $465 -20.194419329306804 $508 20.194419329306804 $456 $550 forward 7 unknown #
vertex $-1 $502 $551 #
straight-curve $-1 -49.304483169042022 20.194419329306804 0 0 0 -1 I I #
straight-curve $-1 -49.304483169042022 -20.194419329306804 0 0 0 -1 I I #
straight-curve $-1 -58.683543219188046 -20.194419329306804 6.6391158300913737 0 0 -1 I I #
point $-1 -49.304483169042022 -20.194419329306804 -9.3620827572161289 #
point $-1 49.304483169042022 20.194419329306804 -9.3620827572161289 #
coedge $-1 $535 $552 $537 $553 forward $474 $-1 #
coedge $-1 $554 $476 $519 $555 reversed $426 $-1 #
coedge $-1 $476 $554 $481 $530 reversed $426 $-1 #
coedge $-1 $495 $522 $476 $518 reversed $543 $-1 #
edge $-1 $544 -2.7229669271247552 $556 2.7229669271247561 $517 $557 forward 7 unknown #
coedge $-1 $478 $477 $515 $555 forward $364 $-1 #
coedge $-1 $534 $531 $477 $521 reversed $377 $-1 #
edge $-1 $527 -4.6895300250730116 $558 4.6895300250730116 $520 $559 forward 7 unknown #
coedge $-1 $517 $560 $478 $523 reversed $543 $-1 #
edge $-1 $556 -4.6895300250730116 $528 4.6895300250730116 $522 $561 forward 7 unknown #
coedge $-1 $562 $479 $560 $563 forward $526 $-1 #
coedge $-1 $479 $562 $534 $564 reversed $526 $-1 #
loop $-1 $-1 $479 $493 #
vertex $-1 $564 $565 #
vertex $-1 $563 $566 #
straight-curve $-1 -49.304483169042022 0 3.9161489029666177 0 1 0 I I #
edge $-1 $544 -20.194419329306804 $532 20.194419329306804 $516 $567 forward 7 unknown #
coedge $-1 $520 $482 $554 $568 forward $377 $-1 #
vertex $-1 $530 $569 #
point $-1 30.438388151165157 -20.194419329306804 6.3277162101404985 #
coedge $-1 $490 $520 $525 $564 forward $377 $-1 #
coedge $-1 $570 $514 $490 $536 forward $474 $-1 #
edge $-1 $538 -49.304483169042022 $571 49.304483169042022 $490 $572 forward 7 unknown #
coedge $-1 $497 $491 $514 $553 reversed $498 $-1 #
vertex $-1 $492 $573 #
straight-curve $-1 49.304483169042022 -20.194419329306804 0 0 0 -1 I I #
face $-1 $547 $543 $15 $-1 $574 reversed single #
plane-surface $-1 -49.304483169042022 0 0 1 0 0 0 0 -1 forward_v I I I I #
coedge $-1 $575 $495 $497 $546 forward $543 $-1 #
loop $-1 $-1 $542 $540 #
vertex $-1 $496 $576 #
straight-curve $-1 0 20.194419329306804 9.3620827572161289 -1 0 0 I I #
edge $-1 $499 -9.3620827572161289 $577 9.3620827572161289 $497 $578 forward 7 unknown #
face $-1 $-1 $498 $15 $-1 $579 reversed single #
point $-1 49.304483169042022 20.194419329306804 9.3620827572161289 #
straight-curve $-1 0 20.194419329306804 -9.3620827572161289 1 0 0 I I #
straight-curve $-1 -49.304483169042022 0 -9.3620827572161289 0 1 0 I I #
point $-1 -49.304483169042022 20.194419329306804 -9.3620827572161289 #
coedge $-1 $514 $570 $575 $580 forward $474 $-1 #
edge $-1 $577 -20.194419329306804 $538 20.194419329306804 $537 $581 forward 7 unknown #
coedge $-1 $516 $515 $531 $568 reversed $426 $-1 #
edge $-1 $558 -20.194419329306804 $556 20.194419329306804 $515 $582 forward 7 unknown #
vertex $-1 $523 $583 #
straight-curve $-1 -58.683543219188046 20.194419329306804 6.6391158300913737 0 0 -1 I I #
vertex $-1 $555 $584 #
straight-curve $-1 -53.994013194115034 -20.194419329306804 3.9161489029666177 -1 0 0 I I #
coedge $-1 $522 $575 $524 $563 reversed $543 $-1 #
straight-curve $-1 -53.994013194115034 20.194419329306804 3.9161489029666177 1 0 0 I I #
coedge $-1 $525 $524 $570 $585 reversed $526 $-1 #
edge $-1 $528 -3.9161489029666177 $586 9.3620827572161289 $560 $587 forward 7 unknown #
edge $-1 $527 -3.9161489029666177 $571 9.3620827572161289 $525 $588 forward 7 unknown #
point $-1 -49.304483169042022 -20.194419329306804 3.9161489029666177 #
point $-1 -49.304483169042022 20.194419329306804 3.9161489029666177 #
straight-curve $-1 -58.683543219188046 0 9.3620827572161289 0 -1 0 I I #
edge $-1 $532 -2.7229669271247552 $558 2.7229669271247561 $554 $589 forward 7 unknown #
point $-1 -58.683543219188046 -20.194419329306804 9.3620827572161289 #
coedge $-1 $552 $535 $562 $585 forward $474 $-1 #
vertex $-1 $585 $590 #
straight-curve $-1 0 -20.194419329306804 -9.3620827572161289 -1 0 0 I I #
point $-1 49.304483169042022 -20.194419329306804 -9.3620827572161289 #
plane-surface $-1 0 20.194419329306804 0 0 -1 0 0 0 -1 forward_v I I I I #
coedge $-1 $560 $542 $552 $580 reversed $543 $-1 #
point $-1 -58.683543219188046 20.194419329306804 9.3620827572161289 #
vertex $-1 $553 $591 #
straight-curve $-1 49.304483169042022 20.194419329306804 0 0 0 -1 I I #
plane-surface $-1 49.304483169042022 0 0 -1 0 0 0 0 1 forward_v I I I I #
edge $-1 $586 -49.304483169042022 $577 49.304483169042022 $575 $592 forward 7 unknown #
straight-curve $-1 49.304483169042022 0 -9.3620827572161289 0 -1 0 I I #
straight-curve $-1 -58.683543219188046 0 3.9161489029666177 0 1 0 I I #
point $-1 -58.683543219188046 20.194419329306804 3.9161489029666177 #
point $-1 -58.683543219188046 -20.194419329306804 3.9161489029666177 #
edge $-1 $571 -20.194419329306804 $586 20.194419329306804 $562 $593 forward 7 unknown #
vertex $-1 $580 $594 #
straight-curve $-1 -49.304483169042022 20.194419329306804 0 0 0 -1 I I #
straight-curve $-1 -49.304483169042022 -20.194419329306804 0 0 0 -1 I I #
straight-curve $-1 -58.683543219188046 -20.194419329306804 6.6391158300913737 0 0 -1 I I #
point $-1 -49.304483169042022 -20.194419329306804 -9.3620827572161289 #
point $-1 49.304483169042022 20.194419329306804 -9.3620827572161289 #
straight-curve $-1 0 20.194419329306804 -9.3620827572161289 1 0 0 I I #
straight-curve $-1 -49.304483169042022 0 -9.3620827572161289 0 1 0 I I #
point $-1 -49.304483169042022 20.194419329306804 -9.3620827572161289 #
End-of-ACIS-data 