500 0 5 0           
7 Unknown 11 ACIS 5.0 NT 24 Fri Mar 26 19:28:56 1999 
-1 9.9999999999999995e-007 1e-010 
body $-1 $5 $-1 $6 #
body $-1 $7 $-1 $8 #
body $-1 $9 $-1 $10 #
body $-1 $11 $-1 $12 #
body $-1 $13 $-1 $14 #
lump $-1 $-1 $15 $0 #
transform $-1 1 0 0 0 1 0 0 0 1 49.439985351115453 21.089585596688167 5.2905143786802906 1 rotate no_reflect no_shear #
lump $-1 $-1 $16 $1 #
transform $-1 1 0 0 0 1 0 0 0 1 49.439985351115453 21.089585596688167 5.2905143786802906 1 rotate no_reflect no_shear #
lump $-1 $-1 $17 $2 #
transform $-1 1 0 0 0 1 0 0 0 1 49.439985351115453 21.089585596688167 5.2905143786802906 1 rotate no_reflect no_shear #
lump $-1 $-1 $18 $3 #
transform $-1 1 0 0 0 1 0 0 0 1 49.439985351115453 21.089585596688167 5.2905143786802906 1 rotate no_reflect no_shear #
lump $-1 $-1 $19 $4 #
transform $-1 1 0 0 0 1 0 0 0 1 49.439985351115453 21.089585596688167 5.2905143786802906 1 rotate no_reflect no_shear #
shell $-1 $-1 $-1 $20 $-1 $5 #
shell $-1 $-1 $-1 $21 $-1 $7 #
shell $-1 $-1 $-1 $22 $-1 $9 #
shell $-1 $-1 $-1 $23 $-1 $11 #
shell $-1 $-1 $-1 $24 $-1 $13 #
face $-1 $25 $26 $15 $-1 $27 forward single #
face $-1 $28 $29 $16 $-1 $30 reversed single #
face $-1 $31 $32 $17 $-1 $33 reversed single #
face $-1 $34 $35 $18 $-1 $36 forward single #
face $-1 $37 $38 $19 $-1 $39 forward single #
face $-1 $40 $41 $15 $-1 $42 reversed single #
loop $-1 $-1 $43 $20 #
plane-surface $-1 0 0 5.2905143786802906 0 0 1 1 0 0 forward_v I I I I #
face $-1 $44 $45 $16 $-1 $46 reversed single #
loop $-1 $-1 $47 $21 #
plane-surface $-1 -47.380501625046158 0 2.2905143786802906 0 0 1 1 0 0 forward_v I I I I #
face $-1 $48 $49 $17 $-1 $50 reversed single #
loop $-1 $-1 $51 $22 #
plane-surface $-1 46.831544500661224 -100.0586422451086 61.759308751108939 -1 0 0 0 -0.79863551827123203 0.60181501223851219 forward_v I I I I #
face $-1 $52 $53 $18 $-1 $54 forward single #
loop $-1 $55 $56 $23 #
cone-surface $-1 38.06744585417529 -19.179597759409656 3.1946480552106054 0 0.79863551827123203 -0.60181501223851219 0.5 0 0 1 I I 0 1 0.5 forward I I I I #
face $-1 $57 $58 $19 $-1 $59 forward single #
loop $-1 $60 $61 $24 #
cone-surface $-1 43.32590504206685 -19.179597759409656 3.1946480552106054 0 0.79863551827123203 -0.60181501223851219 0.5 0 0 1 I I 0 1 0.5 forward I I I I #
face $-1 $62 $63 $15 $-1 $64 reversed single #
loop $-1 $-1 $65 $25 #
plane-surface $-1 0 0 -5.2905143786802906 0 0 1 1 0 0 forward_v I I I I #
coedge $-1 $66 $67 $68 $69 forward $26 $-1 #
face $-1 $70 $71 $16 $-1 $72 reversed single #
loop $-1 $-1 $73 $28 #
plane-surface $-1 -45.321017898976862 0 3.7905143786802906 -1 0 0 0 0 1 forward_v I I I I #
coedge $-1 $74 $75 $76 $77 forward $29 $-1 #
face $-1 $78 $79 $17 $-1 $80 reversed single #
loop $-1 $-1 $81 $31 #
plane-surface $-1 40.69667544812107 -21.089585596688181 2.2518579728021209 0 -0.79863551827123203 0.60181501223851219 1 0 0 forward_v I I I I #
coedge $-1 $82 $83 $84 $85 reversed $32 $-1 #
face $-1 $-1 $86 $18 $-1 $87 forward single #
loop $-1 $88 $89 $34 #
cone-surface $-1 38.06744585417529 -18.214846930771969 2.4676561816203799 0 0.79863551827123203 -0.60181501223851219 0.25 0 0 1 I I -0.70710678118654746 0.70710678118654746 0.25 forward I I I I #
loop $-1 $-1 $90 $23 #
coedge $-1 $56 $56 $91 $92 reversed $35 $-1 #
face $-1 $-1 $93 $19 $-1 $94 forward single #
loop $-1 $95 $96 $37 #
cone-surface $-1 43.32590504206685 -18.214846930771969 2.4676561816203799 0 0.79863551827123203 -0.60181501223851219 0.25 0 0 1 I I -0.70710678118654746 0.70710678118654746 0.25 forward I I I I #
loop $-1 $-1 $97 $24 #
coedge $-1 $61 $61 $98 $99 reversed $38 $-1 #
face $-1 $100 $101 $15 $-1 $102 reversed single #
loop $-1 $-1 $103 $40 #
plane-surface $-1 0 -21.089585596688167 0 0 1 0 0 0 1 forward_v I I I I #
coedge $-1 $104 $105 $106 $107 forward $41 $-1 #
coedge $-1 $108 $43 $109 $110 forward $26 $-1 #
coedge $-1 $43 $108 $111 $112 forward $26 $-1 #
coedge $-1 $113 $114 $43 $69 reversed $115 $-1 #
edge $-1 $116 -21.089585596688167 $117 21.089585596688167 $68 $118 forward 7 unknown #
face $-1 $119 $120 $16 $-1 $121 reversed single #
loop $-1 $-1 $122 $44 #
plane-surface $-1 0 21.089585596688167 0 0 -1 0 0 0 -1 forward_v I I I I #
coedge $-1 $76 $123 $124 $125 reversed $45 $-1 #
coedge $-1 $126 $47 $127 $128 reversed $29 $-1 #
coedge $-1 $47 $126 $129 $130 reversed $29 $-1 #
coedge $-1 $131 $73 $47 $77 reversed $45 $-1 #
edge $-1 $132 -21.089585596688167 $133 21.089585596688167 $76 $134 forward 7 unknown #
face $-1 $135 $136 $17 $-1 $137 reversed single #
loop $-1 $-1 $138 $48 #
plane-surface $-1 34.561806395580916 -100.0586422451086 61.759308751108939 1 0 0 0 0.79863551827123203 -0.60181501223851219 forward_v I I I I #
coedge $-1 $139 $140 $141 $142 reversed $49 $-1 #
coedge $-1 $83 $51 $143 $144 reversed $32 $-1 #
coedge $-1 $51 $82 $139 $145 reversed $32 $-1 #
coedge $-1 $141 $146 $51 $85 forward $147 $-1 #
edge $-1 $148 28.939735525866134 $149 31.22952730228338 $84 $150 forward 7 unknown #
loop $-1 $-1 $91 $52 #
plane-surface $-1 40.69667544812107 -21.089585596688181 2.2518579728021209 0 -0.79863551827123203 0.60181501223851219 1 0 0 forward_v I I I I #
loop $-1 $-1 $151 $34 #
coedge $-1 $89 $89 $90 $152 reversed $53 $-1 #
coedge $-1 $90 $90 $89 $152 forward $55 $-1 #
coedge $-1 $91 $91 $56 $92 forward $86 $-1 #
edge $-1 $153 2.2086639254728247e-015 $153 6.2831853071796022 $91 $154 forward 7 unknown #
loop $-1 $-1 $98 $57 #
plane-surface $-1 40.69667544812107 -21.089585596688181 2.2518579728021209 0 -0.79863551827123203 0.60181501223851219 1 0 0 forward_v I I I I #
loop $-1 $-1 $155 $37 #
coedge $-1 $96 $96 $97 $156 reversed $58 $-1 #
coedge $-1 $97 $97 $96 $156 forward $60 $-1 #
coedge $-1 $98 $98 $61 $99 forward $93 $-1 #
edge $-1 $157 2.2086639254728247e-015 $157 6.2831853071796022 $98 $158 forward 7 unknown #
face $-1 $159 $160 $15 $-1 $161 reversed single #
loop $-1 $-1 $162 $62 #
plane-surface $-1 -49.439985351115453 0 0 1 0 0 0 0 -1 forward_v I I I I #
coedge $-1 $163 $111 $164 $165 forward $63 $-1 #
coedge $-1 $166 $65 $163 $167 forward $41 $-1 #
coedge $-1 $65 $166 $168 $169 forward $41 $-1 #
coedge $-1 $114 $113 $65 $107 reversed $115 $-1 #
edge $-1 $170 -21.089585596688167 $171 21.089585596688167 $106 $172 forward 7 unknown #
coedge $-1 $67 $66 $173 $174 forward $26 $-1 #
coedge $-1 $175 $176 $66 $110 reversed $160 $-1 #
edge $-1 $117 -49.439985351115453 $177 49.439985351115453 $109 $178 forward 7 unknown #
coedge $-1 $103 $179 $67 $112 reversed $63 $-1 #
edge $-1 $180 -49.439985351115453 $116 49.439985351115453 $111 $181 forward 7 unknown #
coedge $-1 $106 $68 $179 $182 forward $115 $-1 #
coedge $-1 $68 $106 $175 $183 reversed $115 $-1 #
loop $-1 $-1 $113 $159 #
vertex $-1 $69 $184 #
vertex $-1 $69 $185 #
straight-curve $-1 49.439985351115453 0 5.2905143786802906 0 1 0 I I #
face $-1 $186 $187 $16 $-1 $188 forward single #
loop $-1 $-1 $189 $70 #
plane-surface $-1 -49.439985351115453 0 0 1 0 0 0 0 -1 forward_v I I I I #
coedge $-1 $129 $190 $131 $191 forward $71 $-1 #
coedge $-1 $73 $131 $192 $193 reversed $45 $-1 #
coedge $-1 $194 $127 $73 $125 forward $195 $-1 #
edge $-1 $133 0.39525718934014531 $196 3.3952571893401453 $124 $197 forward 7 unknown #
coedge $-1 $75 $74 $189 $198 reversed $29 $-1 #
coedge $-1 $124 $199 $74 $128 forward $195 $-1 #
edge $-1 $200 -25.749734538592374 $133 -21.630767086453783 $127 $201 forward 7 unknown #
coedge $-1 $202 $122 $75 $130 forward $71 $-1 #
edge $-1 $132 21.630767086453783 $203 25.749734538592374 $129 $204 forward 7 unknown #
coedge $-1 $123 $76 $122 $191 reversed $45 $-1 #
vertex $-1 $130 $205 #
vertex $-1 $128 $206 #
straight-curve $-1 -45.321017898976862 0 2.2905143786802906 0 -1 0 I I #
face $-1 $-1 $147 $17 $-1 $207 forward single #
loop $-1 $-1 $208 $78 #
plane-surface $-1 0 -21.089585596688167 0 0 1 0 0 0 1 forward_v I I I I #
coedge $-1 $209 $210 $211 $212 reversed $79 $-1 #
coedge $-1 $213 $81 $83 $145 forward $49 $-1 #
coedge $-1 $81 $213 $209 $214 forward $49 $-1 #
coedge $-1 $211 $84 $81 $142 forward $147 $-1 #
edge $-1 $149 -26.483206776600689 $215 -14.213468671520381 $141 $216 forward 7 unknown #
coedge $-1 $217 $218 $82 $144 forward $136 $-1 #
edge $-1 $219 -28.627796402752331 $148 -25.589139996874181 $143 $220 forward 7 unknown #
edge $-1 $149 -3.8048099995049096 $219 -2.3448253187574213e-014 $83 $221 forward 7 unknown #
coedge $-1 $84 $211 $217 $222 forward $147 $-1 #
loop $-1 $-1 $211 $135 #
vertex $-1 $144 $223 #
vertex $-1 $85 $224 #
straight-curve $-1 46.831544500661224 -50.0293211225543 5.2905143786802924 0 1 0 I I #
coedge $-1 $151 $151 $-1 $225 reversed $88 $-1 #
edge $-1 $226 0 $226 6.2831853071796004 $89 $227 forward 7 unknown #
vertex $-1 $92 $228 #
ellipse-curve $-1 38.06744585417529 -19.944689708479547 3.771186175741212 0 -0.79863551827123203 0.60181501223851219 0.5 0 0 1 I I #
coedge $-1 $155 $155 $-1 $229 reversed $95 $-1 #
edge $-1 $230 0 $230 6.2831853071796004 $96 $231 forward 7 unknown #
vertex $-1 $99 $232 #
ellipse-curve $-1 43.32590504206685 -19.944689708479547 3.771186175741212 0 -0.79863551827123203 0.60181501223851219 0.5 0 0 1 I I #
face $-1 $-1 $115 $15 $-1 $233 reversed single #
loop $-1 $-1 $175 $100 #
plane-surface $-1 0 21.089585596688167 0 0 -1 0 0 0 -1 forward_v I I I I #
coedge $-1 $234 $173 $176 $235 forward $101 $-1 #
coedge $-1 $179 $103 $104 $167 reversed $63 $-1 #
coedge $-1 $173 $234 $103 $165 reversed $101 $-1 #
edge $-1 $180 -5.2905143786802906 $236 5.2905143786802906 $164 $237 forward 7 unknown #
coedge $-1 $105 $104 $234 $238 forward $41 $-1 #
edge $-1 $171 -49.439985351115453 $236 49.439985351115453 $163 $239 forward 7 unknown #
coedge $-1 $176 $175 $105 $169 reversed $160 $-1 #
edge $-1 $240 -49.439985351115453 $170 49.439985351115453 $168 $241 forward 7 unknown #
vertex $-1 $107 $242 #
vertex $-1 $182 $243 #
straight-curve $-1 49.439985351115453 0 -5.2905143786802906 0 -1 0 I I #
coedge $-1 $162 $164 $108 $174 reversed $101 $-1 #
edge $-1 $177 -21.089585596688167 $180 21.089585596688167 $173 $244 forward 7 unknown #
coedge $-1 $168 $109 $114 $183 forward $160 $-1 #
coedge $-1 $109 $168 $162 $235 reversed $160 $-1 #
vertex $-1 $110 $245 #
straight-curve $-1 0 21.089585596688167 5.2905143786802906 -1 0 0 I I #
coedge $-1 $111 $163 $113 $182 reversed $63 $-1 #
vertex $-1 $174 $246 #
straight-curve $-1 0 -21.089585596688167 5.2905143786802906 1 0 0 I I #
edge $-1 $116 -5.2905143786802906 $171 5.2905143786802906 $113 $247 forward 7 unknown #
edge $-1 $117 -5.2905143786802906 $170 5.2905143786802906 $114 $248 forward 7 unknown #
point $-1 49.439985351115453 -21.089585596688167 5.2905143786802906 #
point $-1 49.439985351115453 21.089585596688167 5.2905143786802906 #
face $-1 $-1 $195 $16 $-1 $249 reversed single #
loop $-1 $-1 $192 $119 #
plane-surface $-1 0 0 5.2905143786802906 0 0 1 1 0 0 forward_v I I I I #
coedge $-1 $250 $251 $126 $198 forward $120 $-1 #
coedge $-1 $122 $202 $252 $253 reversed $71 $-1 #
edge $-1 $254 -3.3952571893401453 $132 -0.39525718934014531 $122 $255 forward 7 unknown #
coedge $-1 $252 $256 $123 $193 forward $187 $-1 #
edge $-1 $196 -21.089585596688167 $254 21.089585596688167 $192 $257 forward 7 unknown #
coedge $-1 $199 $124 $256 $258 reversed $195 $-1 #
loop $-1 $-1 $124 $186 #
vertex $-1 $125 $259 #
straight-curve $-1 -45.321017898976862 -21.089585596688167 1.8952571893401453 0 0 1 I I #
edge $-1 $203 -21.089585596688167 $200 21.089585596688167 $189 $260 forward 7 unknown #
coedge $-1 $127 $194 $250 $261 forward $195 $-1 #
vertex $-1 $198 $262 #
straight-curve $-1 -23.690250812523079 -21.089585596688167 2.2905143786802906 1 0 0 I I #
coedge $-1 $190 $129 $251 $263 reversed $71 $-1 #
vertex $-1 $198 $264 #
straight-curve $-1 -23.690250812523079 21.089585596688167 2.2905143786802906 -1 0 0 I I #
point $-1 -45.321017898976862 21.089585596688167 2.2905143786802906 #
point $-1 -45.321017898976862 -21.089585596688167 2.2905143786802906 #
plane-surface $-1 0 0 5.2905143786802906 0 0 1 1 0 0 forward_v I I I I #
coedge $-1 $218 $217 $210 $265 forward $136 $-1 #
coedge $-1 $210 $138 $140 $214 reversed $79 $-1 #
coedge $-1 $138 $209 $208 $265 reversed $79 $-1 #
coedge $-1 $146 $141 $138 $212 forward $147 $-1 #
edge $-1 $215 -31.22952730228338 $266 -28.939735525866134 $211 $267 forward 7 unknown #
coedge $-1 $140 $139 $218 $268 reversed $49 $-1 #
edge $-1 $269 2.3448253187574213e-014 $215 3.8048099995049096 $209 $270 forward 7 unknown #
vertex $-1 $142 $271 #
straight-curve $-1 20.348337724060535 -18.799793820270921 5.2905143786802906 -1 0 0 I I #
coedge $-1 $208 $143 $146 $222 reversed $136 $-1 #
coedge $-1 $143 $208 $213 $268 forward $136 $-1 #
vertex $-1 $144 $272 #
straight-curve $-1 46.831544500661224 -21.089585596688167 30.87965437555447 0 0 1 I I #
straight-curve $-1 46.831544500661224 -21.089585596688181 2.2518579728021209 0 -0.60181501223851219 -0.79863551827123203 I I #
edge $-1 $266 34.561806395580916 $148 46.831544500661224 $217 $273 forward 7 unknown #
point $-1 46.831544500661224 -21.089585596688167 5.2905143786802906 #
point $-1 46.831544500661224 -18.799793820270921 5.2905143786802906 #
edge $-1 $274 1 $274 0 $151 $-1 forward 7 unknown #
vertex $-1 $152 $275 #
ellipse-curve $-1 38.06744585417529 -18.414505810339776 2.6181099346800081 0 -0.79863551827123203 0.60181501223851219 0.5 0 0 1 I I #
point $-1 38.56744585417529 -19.944689708479533 3.7711861757412026 #
edge $-1 $276 1 $276 0 $155 $-1 forward 7 unknown #
vertex $-1 $156 $277 #
ellipse-curve $-1 43.32590504206685 -18.414505810339776 2.6181099346800081 0 -0.79863551827123203 0.60181501223851219 0.5 0 0 1 I I #
point $-1 43.82590504206685 -19.944689708479533 3.7711861757412026 #
plane-surface $-1 49.439985351115453 0 0 -1 0 0 0 0 1 forward_v I I I I #
coedge $-1 $164 $162 $166 $238 reversed $101 $-1 #
edge $-1 $177 -5.2905143786802906 $240 5.2905143786802906 $176 $278 forward 7 unknown #
vertex $-1 $238 $279 #
straight-curve $-1 -49.439985351115453 -21.089585596688167 0 0 0 -1 I I #
edge $-1 $236 -21.089585596688167 $240 21.089585596688167 $234 $280 forward 7 unknown #
straight-curve $-1 0 -21.089585596688167 -5.2905143786802906 -1 0 0 I I #
vertex $-1 $169 $281 #
straight-curve $-1 0 21.089585596688167 -5.2905143786802906 1 0 0 I I #
point $-1 49.439985351115453 21.089585596688167 -5.2905143786802906 #
point $-1 49.439985351115453 -21.089585596688167 -5.2905143786802906 #
straight-curve $-1 -49.439985351115453 0 5.2905143786802906 0 -1 0 I I #
point $-1 -49.439985351115453 21.089585596688167 5.2905143786802906 #
point $-1 -49.439985351115453 -21.089585596688167 5.2905143786802906 #
straight-curve $-1 49.439985351115453 -21.089585596688167 0 0 0 -1 I I #
straight-curve $-1 49.439985351115453 21.089585596688167 0 0 0 -1 I I #
plane-surface $-1 0 -21.089585596688167 0 0 1 0 0 0 1 forward_v I I I I #
coedge $-1 $282 $189 $199 $261 reversed $120 $-1 #
coedge $-1 $189 $282 $202 $263 forward $120 $-1 #
coedge $-1 $283 $192 $190 $253 forward $187 $-1 #
edge $-1 $254 45.321017898976862 $284 49.439985351115453 $190 $285 forward 7 unknown #
vertex $-1 $253 $286 #
straight-curve $-1 -45.321017898976862 21.089585596688167 1.8952571893401453 0 0 -1 I I #
coedge $-1 $192 $283 $194 $258 forward $187 $-1 #
straight-curve $-1 -45.321017898976862 0 5.2905143786802906 0 1 0 I I #
edge $-1 $287 -49.439985351115453 $196 -45.321017898976862 $194 $288 forward 7 unknown #
point $-1 -45.321017898976862 -21.089585596688167 5.2905143786802906 #
straight-curve $-1 -49.439985351115453 0 2.2905143786802906 0 -1 0 I I #
edge $-1 $287 -5.2905143786802906 $200 -2.2905143786802906 $250 $289 forward 7 unknown #
point $-1 -49.439985351115453 -21.089585596688167 2.2905143786802906 #
edge $-1 $284 -5.2905143786802906 $203 -2.2905143786802906 $202 $290 forward 7 unknown #
point $-1 -49.439985351115453 21.089585596688167 2.2905143786802906 #
edge $-1 $266 25.589139996874181 $269 28.627796402752331 $208 $291 forward 7 unknown #
vertex $-1 $222 $292 #
straight-curve $-1 34.561806395580916 -50.0293211225543 5.2905143786802924 0 -1 0 I I #
edge $-1 $269 14.213468671520381 $219 26.483206776600689 $218 $293 forward 7 unknown #
vertex $-1 $268 $294 #
straight-curve $-1 34.561806395580916 -21.089585596688181 2.2518579728021209 0 0.60181501223851219 0.79863551827123203 I I #
point $-1 34.561806395580916 -18.799793820270921 5.2905143786802906 #
point $-1 46.831544500661224 -21.089585596688167 2.2518579728021395 #
straight-curve $-1 0 -21.089585596688167 5.2905143786802906 1 0 0 I I #
vertex $-1 $225 $295 #
point $-1 38.56744585417529 -18.414505810339776 2.6181099346800081 #
vertex $-1 $229 $296 #
point $-1 43.82590504206685 -18.414505810339776 2.6181099346800081 #
straight-curve $-1 -49.439985351115453 21.089585596688167 0 0 0 -1 I I #
point $-1 -49.439985351115453 -21.089585596688167 -5.2905143786802906 #
straight-curve $-1 -49.439985351115453 0 -5.2905143786802906 0 1 0 I I #
point $-1 -49.439985351115453 21.089585596688167 -5.2905143786802906 #
coedge $-1 $251 $250 $283 $297 reversed $120 $-1 #
coedge $-1 $256 $252 $282 $297 forward $187 $-1 #
vertex $-1 $253 $298 #
straight-curve $-1 0 21.089585596688167 5.2905143786802906 -1 0 0 I I #
point $-1 -45.321017898976862 21.089585596688167 5.2905143786802906 #
vertex $-1 $297 $299 #
straight-curve $-1 0 -21.089585596688167 5.2905143786802906 1 0 0 I I #
straight-curve $-1 -49.439985351115453 -21.089585596688167 0 0 0 -1 I I #
straight-curve $-1 -49.439985351115453 21.089585596688167 0 0 0 -1 I I #
straight-curve $-1 34.561806395580916 -21.089585596688167 30.87965437555447 0 0 -1 I I #
point $-1 34.561806395580916 -21.089585596688167 5.2905143786802906 #
straight-curve $-1 20.348337724060535 -21.089585596688167 2.25185797280214 1 0 0 I I #
point $-1 34.561806395580916 -21.089585596688167 2.2518579728021395 #
point $-1 38.06744585417529 -18.015188051204163 2.3172024285607518 #
point $-1 43.32590504206685 -18.015188051204163 2.3172024285607518 #
edge $-1 $284 -21.089585596688167 $287 21.089585596688167 $282 $300 forward 7 unknown #
point $-1 -49.439985351115453 21.089585596688167 5.2905143786802906 #
point $-1 -49.439985351115453 -21.089585596688167 5.2905143786802906 #
straight-curve $-1 -49.439985351115453 0 5.2905143786802906 0 -1 0 I I #
End-of-ACIS-data 