500 0 6 0           
7 Unknown 11 ACIS 5.0 NT 24 Fri Mar 26 17:37:30 1999 
-1 9.9999999999999995e-007 1e-010 
body $-1 $6 $-1 $7 #
body $-1 $8 $-1 $9 #
body $-1 $10 $-1 $11 #
body $-1 $12 $-1 $13 #
body $-1 $14 $-1 $15 #
body $-1 $16 $-1 $17 #
lump $-1 $-1 $18 $0 #
transform $-1 1 0 0 0 1 0 0 0 1 52.087771233252965 35.785683414677699 9.8313157169996845 1 rotate no_reflect no_shear #
lump $-1 $-1 $19 $1 #
transform $-1 1 0 0 0 1 0 0 0 1 52.087771233252965 35.785683414677699 9.8313157169996845 1 rotate no_reflect no_shear #
lump $-1 $-1 $20 $2 #
transform $-1 1 0 0 0 1 0 0 0 1 52.087771233252965 35.785683414677699 9.8313157169996845 1 rotate no_reflect no_shear #
lump $-1 $-1 $21 $3 #
transform $-1 1 0 0 0 1 0 0 0 1 52.087771233252965 35.785683414677699 9.8313157169996845 1 rotate no_reflect no_shear #
lump $-1 $-1 $22 $4 #
transform $-1 1 0 0 0 1 0 0 0 1 52.087771233252965 35.785683414677699 9.8313157169996845 1 rotate no_reflect no_shear #
lump $-1 $-1 $23 $5 #
transform $-1 1 0 0 0 1 0 0 0 1 52.087771233252965 35.785683414677699 9.8313157169996845 1 rotate no_reflect no_shear #
shell $-1 $-1 $-1 $24 $-1 $6 #
shell $-1 $-1 $-1 $25 $-1 $8 #
shell $-1 $-1 $-1 $26 $-1 $10 #
shell $-1 $-1 $-1 $27 $-1 $12 #
shell $-1 $-1 $-1 $28 $-1 $14 #
shell $-1 $-1 $-1 $29 $-1 $16 #
face $-1 $30 $31 $18 $-1 $32 forward single #
face $-1 $33 $34 $19 $-1 $35 reversed single #
face $-1 $36 $37 $20 $-1 $38 reversed single #
face $-1 $39 $40 $21 $-1 $41 reversed single #
face $-1 $42 $43 $22 $-1 $44 forward single #
face $-1 $45 $46 $23 $-1 $47 forward single #
face $-1 $48 $49 $18 $-1 $50 reversed single #
loop $-1 $-1 $51 $24 #
plane-surface $-1 0 0 9.8313157169996845 0 0 1 1 0 0 forward_v I I I I #
face $-1 $52 $53 $19 $-1 $54 reversed single #
loop $-1 $-1 $55 $25 #
plane-surface $-1 -45.646826761456737 -32.755488708043991 0 0 -1 0 0 0 -1 forward_v I I I I #
face $-1 $56 $57 $20 $-1 $58 reversed single #
loop $-1 $-1 $59 $26 #
plane-surface $-1 39.205882289660508 -34.270586061360845 0 1 0 0 0 0 -1 forward_v I I I I #
face $-1 $60 $61 $21 $-1 $62 reversed single #
loop $-1 $-1 $63 $27 #
plane-surface $-1 25.903487518543365 69.583592593887715 125.60272331845678 1 0 0 0 -0.7660444514056185 -0.64278759981090561 forward_v I I I I #
face $-1 $64 $65 $22 $-1 $66 forward single #
loop $-1 $67 $68 $28 #
cone-surface $-1 28.947054609343311 31.984835317620398 5.7515990429501187 0 -0.7660444514056185 -0.64278759981090561 1 0 0 1 I I 0 1 1 forward I I I I #
face $-1 $69 $70 $23 $-1 $71 forward single #
loop $-1 $72 $73 $29 #
cone-surface $-1 33.512405245543249 31.984835317620398 5.7515990429501187 0 -0.7660444514056185 -0.64278759981090561 1 0 0 1 I I 0 1 1 forward I I I I #
face $-1 $74 $75 $18 $-1 $76 reversed single #
loop $-1 $-1 $77 $30 #
plane-surface $-1 0 0 -9.8313157169996845 0 0 1 1 0 0 forward_v I I I I #
coedge $-1 $78 $79 $80 $81 forward $31 $-1 #
face $-1 $82 $83 $19 $-1 $84 forward single #
loop $-1 $-1 $85 $33 #
plane-surface $-1 -39.205882289660508 -34.270586061360845 0 -1 0 0 0 0 1 forward_v I I I I #
coedge $-1 $86 $87 $88 $89 forward $34 $-1 #
face $-1 $90 $91 $20 $-1 $92 forward single #
loop $-1 $-1 $93 $36 #
plane-surface $-1 45.646826761456737 -32.755488708043991 0 0 -1 0 0 0 -1 forward_v I I I I #
coedge $-1 $94 $95 $96 $97 forward $37 $-1 #
face $-1 $98 $99 $21 $-1 $100 reversed single #
loop $-1 $-1 $101 $39 #
plane-surface $-1 31.229729927443287 -10.21950368474954 58.63997641741237 0 0.7660444514056185 0.64278759981090561 1 0 0 forward_v I I I I #
coedge $-1 $102 $103 $104 $105 reversed $40 $-1 #
face $-1 $-1 $106 $22 $-1 $107 forward single #
loop $-1 $108 $109 $42 #
cone-surface $-1 28.947054609343311 30.325894484717089 4.3595824383606878 0 -0.7660444514056185 -0.64278759981090561 0.5 0 0 1 I I -0.70710678118654746 0.70710678118654746 0.5 forward I I I I #
loop $-1 $-1 $110 $28 #
coedge $-1 $68 $68 $111 $112 reversed $43 $-1 #
face $-1 $-1 $113 $23 $-1 $114 forward single #
loop $-1 $115 $116 $45 #
cone-surface $-1 33.512405245543249 30.325894484717089 4.3595824383606878 0 -0.7660444514056185 -0.64278759981090561 0.5 0 0 1 I I -0.70710678118654746 0.70710678118654746 0.5 forward I I I I #
loop $-1 $-1 $117 $29 #
coedge $-1 $73 $73 $118 $119 reversed $46 $-1 #
face $-1 $120 $121 $18 $-1 $122 reversed single #
loop $-1 $-1 $123 $48 #
plane-surface $-1 0 -35.785683414677699 0 0 1 0 0 0 1 forward_v I I I I #
coedge $-1 $124 $125 $126 $127 forward $49 $-1 #
coedge $-1 $128 $51 $129 $130 forward $31 $-1 #
coedge $-1 $51 $128 $131 $132 forward $31 $-1 #
coedge $-1 $133 $134 $51 $81 reversed $135 $-1 #
edge $-1 $136 -35.785683414677699 $137 35.785683414677699 $80 $138 forward 7 unknown #
face $-1 $139 $140 $19 $-1 $141 reversed single #
loop $-1 $-1 $142 $52 #
plane-surface $-1 0 0 9.8313157169996845 0 0 1 1 0 0 forward_v I I I I #
coedge $-1 $143 $144 $145 $146 reversed $53 $-1 #
coedge $-1 $147 $55 $148 $149 reversed $34 $-1 #
coedge $-1 $55 $147 $150 $151 reversed $34 $-1 #
coedge $-1 $144 $143 $55 $89 reversed $53 $-1 #
edge $-1 $152 -9.8313157169996845 $153 9.8313157169996845 $88 $154 forward 7 unknown #
face $-1 $155 $156 $20 $-1 $157 reversed single #
loop $-1 $-1 $158 $56 #
plane-surface $-1 0 0 9.8313157169996845 0 0 1 1 0 0 forward_v I I I I #
coedge $-1 $159 $160 $161 $162 reversed $57 $-1 #
coedge $-1 $163 $59 $164 $165 reversed $37 $-1 #
coedge $-1 $59 $163 $166 $167 reversed $37 $-1 #
coedge $-1 $160 $159 $59 $97 reversed $57 $-1 #
edge $-1 $168 -9.8313157169996845 $169 9.8313157169996845 $96 $170 forward 7 unknown #
face $-1 $171 $172 $21 $-1 $173 reversed single #
loop $-1 $-1 $174 $60 #
plane-surface $-1 36.55597233634321 69.583592593887715 125.60272331845678 -1 0 0 0 0.7660444514056185 0.64278759981090561 forward_v I I I I #
coedge $-1 $175 $176 $177 $178 reversed $61 $-1 #
coedge $-1 $103 $63 $179 $180 reversed $40 $-1 #
coedge $-1 $63 $102 $175 $181 reversed $40 $-1 #
coedge $-1 $177 $182 $63 $105 forward $183 $-1 #
edge $-1 $184 -0.99388711773384131 $185 4.0559718619797422 $104 $186 forward 7 unknown #
loop $-1 $-1 $111 $64 #
plane-surface $-1 31.229729927443287 -10.21950368474954 58.63997641741237 0 0.7660444514056185 0.64278759981090561 1 0 0 forward_v I I I I #
loop $-1 $-1 $187 $42 #
coedge $-1 $109 $109 $110 $188 reversed $65 $-1 #
coedge $-1 $110 $110 $109 $188 forward $67 $-1 #
coedge $-1 $111 $111 $68 $112 forward $106 $-1 #
edge $-1 $189 -2.8956724014279526e-016 $189 6.2831853071796004 $111 $190 forward 7 unknown #
loop $-1 $-1 $118 $69 #
plane-surface $-1 31.229729927443287 -10.21950368474954 58.63997641741237 0 0.7660444514056185 0.64278759981090561 1 0 0 forward_v I I I I #
loop $-1 $-1 $191 $45 #
coedge $-1 $116 $116 $117 $192 reversed $70 $-1 #
coedge $-1 $117 $117 $116 $192 forward $72 $-1 #
coedge $-1 $118 $118 $73 $119 forward $113 $-1 #
edge $-1 $193 -2.8956724014279526e-016 $193 6.2831853071796004 $118 $194 forward 7 unknown #
face $-1 $195 $196 $18 $-1 $197 reversed single #
loop $-1 $-1 $198 $74 #
plane-surface $-1 -52.087771233252965 0 0 1 0 0 0 0 -1 forward_v I I I I #
coedge $-1 $199 $131 $200 $201 forward $75 $-1 #
coedge $-1 $202 $77 $199 $203 forward $49 $-1 #
coedge $-1 $77 $202 $204 $205 forward $49 $-1 #
coedge $-1 $134 $133 $77 $127 reversed $135 $-1 #
edge $-1 $206 -35.785683414677699 $207 35.785683414677699 $126 $208 forward 7 unknown #
coedge $-1 $79 $78 $209 $210 forward $31 $-1 #
coedge $-1 $211 $212 $78 $130 reversed $196 $-1 #
edge $-1 $137 -52.087771233252965 $213 52.087771233252965 $129 $214 forward 7 unknown #
coedge $-1 $123 $215 $79 $132 reversed $75 $-1 #
edge $-1 $216 -52.087771233252965 $136 52.087771233252965 $131 $217 forward 7 unknown #
coedge $-1 $126 $80 $215 $218 forward $135 $-1 #
coedge $-1 $80 $126 $211 $219 reversed $135 $-1 #
loop $-1 $-1 $133 $195 #
vertex $-1 $81 $220 #
vertex $-1 $81 $221 #
straight-curve $-1 52.087771233252965 0 9.8313157169996845 0 1 0 I I #
face $-1 $222 $223 $19 $-1 $224 reversed single #
loop $-1 $-1 $225 $82 #
plane-surface $-1 -52.087771233252965 0 0 1 0 0 0 0 -1 forward_v I I I I #
coedge $-1 $150 $226 $144 $227 forward $83 $-1 #
coedge $-1 $88 $85 $228 $229 reversed $53 $-1 #
coedge $-1 $85 $88 $142 $227 reversed $53 $-1 #
coedge $-1 $230 $231 $85 $146 forward $232 $-1 #
edge $-1 $233 -9.8313157169996845 $234 9.8313157169996845 $145 $235 forward 7 unknown #
coedge $-1 $87 $86 $225 $236 reversed $34 $-1 #
coedge $-1 $228 $237 $86 $149 forward $223 $-1 #
edge $-1 $238 -29.264357852524597 $153 -16.38246890893214 $148 $239 forward 7 unknown #
coedge $-1 $240 $142 $87 $151 forward $83 $-1 #
edge $-1 $152 16.38246890893214 $241 29.264357852524597 $150 $242 forward 7 unknown #
vertex $-1 $151 $243 #
vertex $-1 $149 $244 #
straight-curve $-1 -39.205882289660508 -32.755488708043991 0 0 0 -1 I I #
face $-1 $245 $246 $20 $-1 $247 reversed single #
loop $-1 $-1 $248 $90 #
plane-surface $-1 0 -35.785683414677699 0 0 1 0 0 0 1 forward_v I I I I #
coedge $-1 $166 $249 $160 $250 forward $91 $-1 #
coedge $-1 $96 $93 $251 $252 reversed $57 $-1 #
coedge $-1 $93 $96 $158 $250 reversed $57 $-1 #
coedge $-1 $253 $254 $93 $162 forward $255 $-1 #
edge $-1 $256 -9.8313157169996845 $257 9.8313157169996845 $161 $258 forward 7 unknown #
coedge $-1 $95 $94 $248 $259 reversed $37 $-1 #
coedge $-1 $251 $260 $94 $165 forward $246 $-1 #
edge $-1 $261 -18.650390383997276 $169 -15.620195677363569 $164 $262 forward 7 unknown #
coedge $-1 $263 $158 $95 $167 forward $91 $-1 #
edge $-1 $168 15.620195677363569 $264 18.650390383997276 $166 $265 forward 7 unknown #
vertex $-1 $167 $266 #
vertex $-1 $165 $267 #
straight-curve $-1 39.205882289660508 -32.755488708043991 0 0 0 -1 I I #
face $-1 $-1 $183 $21 $-1 $268 forward single #
loop $-1 $-1 $269 $98 #
plane-surface $-1 0 35.785683414677699 0 0 -1 0 0 0 -1 forward_v I I I I #
coedge $-1 $270 $271 $272 $273 reversed $99 $-1 #
coedge $-1 $274 $101 $103 $181 forward $61 $-1 #
coedge $-1 $101 $274 $270 $275 forward $61 $-1 #
coedge $-1 $272 $104 $101 $178 forward $183 $-1 #
edge $-1 $185 10.288622554821721 $276 20.941107372621566 $177 $277 forward 7 unknown #
coedge $-1 $278 $279 $102 $180 forward $172 $-1 #
edge $-1 $280 -58.98823368095988 $184 -52.970045942228708 $179 $281 forward 7 unknown #
edge $-1 $185 63.715180771629456 $280 71.571366829355455 $103 $282 forward 7 unknown #
coedge $-1 $104 $272 $278 $283 forward $183 $-1 #
loop $-1 $-1 $272 $171 #
vertex $-1 $180 $284 #
vertex $-1 $105 $285 #
straight-curve $-1 25.903487518543365 34.791796296943858 9.8313157169996828 0 -1 0 I I #
coedge $-1 $187 $187 $-1 $286 reversed $108 $-1 #
edge $-1 $287 0 $287 6.2831853071796004 $109 $288 forward 7 unknown #
vertex $-1 $112 $289 #
ellipse-curve $-1 28.947054609343311 33.260753924820911 6.8222218476341068 0 0.7660444514056185 0.64278759981090561 1 0 0 1 I I #
coedge $-1 $191 $191 $-1 $290 reversed $115 $-1 #
edge $-1 $291 0 $291 6.2831853071796004 $116 $292 forward 7 unknown #
vertex $-1 $119 $293 #
ellipse-curve $-1 33.512405245543249 33.260753924820911 6.8222218476341068 0 0.7660444514056185 0.64278759981090561 1 0 0 1 I I #
face $-1 $-1 $135 $18 $-1 $294 reversed single #
loop $-1 $-1 $211 $120 #
plane-surface $-1 0 35.785683414677699 0 0 -1 0 0 0 -1 forward_v I I I I #
coedge $-1 $295 $209 $212 $296 forward $121 $-1 #
coedge $-1 $215 $123 $124 $203 reversed $75 $-1 #
coedge $-1 $209 $295 $123 $201 reversed $121 $-1 #
edge $-1 $216 -9.8313157169996845 $297 9.8313157169996845 $200 $298 forward 7 unknown #
coedge $-1 $125 $124 $295 $299 forward $49 $-1 #
edge $-1 $207 -52.087771233252965 $297 52.087771233252965 $199 $300 forward 7 unknown #
coedge $-1 $212 $211 $125 $205 reversed $196 $-1 #
edge $-1 $301 -52.087771233252965 $206 52.087771233252965 $204 $302 forward 7 unknown #
vertex $-1 $127 $303 #
vertex $-1 $218 $304 #
straight-curve $-1 52.087771233252965 0 -9.8313157169996845 0 -1 0 I I #
coedge $-1 $198 $200 $128 $210 reversed $121 $-1 #
edge $-1 $213 -35.785683414677699 $216 35.785683414677699 $209 $305 forward 7 unknown #
coedge $-1 $204 $129 $134 $219 forward $196 $-1 #
coedge $-1 $129 $204 $198 $296 reversed $196 $-1 #
vertex $-1 $130 $306 #
straight-curve $-1 0 35.785683414677699 9.8313157169996845 -1 0 0 I I #
coedge $-1 $131 $199 $133 $218 reversed $75 $-1 #
vertex $-1 $210 $307 #
straight-curve $-1 0 -35.785683414677699 9.8313157169996845 1 0 0 I I #
edge $-1 $136 -9.8313157169996845 $207 9.8313157169996845 $133 $308 forward 7 unknown #
edge $-1 $137 -9.8313157169996845 $206 9.8313157169996845 $134 $309 forward 7 unknown #
point $-1 52.087771233252965 -35.785683414677699 9.8313157169996845 #
point $-1 52.087771233252965 35.785683414677699 9.8313157169996845 #
face $-1 $-1 $232 $19 $-1 $310 reversed single #
loop $-1 $-1 $228 $139 #
plane-surface $-1 0 0 -9.8313157169996845 0 0 1 1 0 0 forward_v I I I I #
coedge $-1 $311 $312 $147 $236 forward $140 $-1 #
coedge $-1 $142 $240 $230 $313 forward $83 $-1 #
edge $-1 $234 -18.650390383997276 $152 -15.620195677363569 $142 $314 forward 7 unknown #
coedge $-1 $315 $148 $143 $229 forward $223 $-1 #
edge $-1 $153 15.620195677363569 $233 18.650390383997276 $228 $316 forward 7 unknown #
coedge $-1 $317 $145 $226 $313 reversed $232 $-1 #
coedge $-1 $145 $317 $315 $318 reversed $232 $-1 #
loop $-1 $-1 $145 $222 #
vertex $-1 $318 $319 #
vertex $-1 $146 $320 #
straight-curve $-1 -39.205882289660508 -35.785683414677699 0 0 0 1 I I #
edge $-1 $241 -9.8313157169996845 $238 9.8313157169996845 $225 $321 forward 7 unknown #
coedge $-1 $148 $315 $311 $322 forward $223 $-1 #
vertex $-1 $149 $323 #
straight-curve $-1 -22.823413380728368 -32.755488708043991 -9.8313157169996845 1 0 0 I I #
coedge $-1 $226 $150 $312 $324 forward $83 $-1 #
vertex $-1 $324 $325 #
straight-curve $-1 -22.823413380728368 -32.755488708043991 9.8313157169996845 -1 0 0 I I #
point $-1 -39.205882289660508 -32.755488708043991 9.8313157169996845 #
point $-1 -39.205882289660508 -32.755488708043991 -9.8313157169996845 #
face $-1 $-1 $255 $20 $-1 $326 reversed single #
loop $-1 $-1 $251 $155 #
plane-surface $-1 0 0 -9.8313157169996845 0 0 1 1 0 0 forward_v I I I I #
coedge $-1 $327 $328 $163 $259 forward $156 $-1 #
coedge $-1 $158 $263 $253 $329 forward $91 $-1 #
edge $-1 $257 -29.264357852524597 $168 -16.38246890893214 $158 $330 forward 7 unknown #
coedge $-1 $331 $164 $159 $252 forward $246 $-1 #
edge $-1 $169 16.38246890893214 $256 29.264357852524597 $251 $332 forward 7 unknown #
coedge $-1 $333 $161 $249 $329 reversed $255 $-1 #
coedge $-1 $161 $333 $331 $334 reversed $255 $-1 #
loop $-1 $-1 $161 $245 #
vertex $-1 $334 $335 #
vertex $-1 $162 $336 #
straight-curve $-1 52.087771233252965 -32.755488708043991 0 0 0 1 I I #
edge $-1 $264 -9.8313157169996845 $261 9.8313157169996845 $248 $337 forward 7 unknown #
coedge $-1 $164 $331 $327 $338 forward $246 $-1 #
vertex $-1 $165 $339 #
straight-curve $-1 39.205882289660508 -17.135293030680423 -9.8313157169996845 0 1 0 I I #
coedge $-1 $249 $166 $328 $340 forward $91 $-1 #
vertex $-1 $340 $341 #
straight-curve $-1 39.205882289660508 -17.135293030680423 9.8313157169996845 0 -1 0 I I #
point $-1 39.205882289660508 -32.755488708043991 9.8313157169996845 #
point $-1 39.205882289660508 -32.755488708043991 -9.8313157169996845 #
plane-surface $-1 0 0 9.8313157169996845 0 0 1 1 0 0 forward_v I I I I #
coedge $-1 $279 $278 $271 $342 forward $172 $-1 #
coedge $-1 $271 $174 $176 $275 reversed $99 $-1 #
coedge $-1 $174 $270 $269 $342 reversed $99 $-1 #
coedge $-1 $182 $177 $174 $273 forward $183 $-1 #
edge $-1 $276 -4.0559718619797422 $343 0.99388711773384131 $272 $344 forward 7 unknown #
coedge $-1 $176 $175 $279 $345 reversed $61 $-1 #
edge $-1 $346 -71.571366829355455 $276 -63.715180771629456 $270 $347 forward 7 unknown #
vertex $-1 $178 $348 #
straight-curve $-1 15.614864963721644 30.735824434964112 9.8313157169996792 1 0 0 I I #
coedge $-1 $269 $179 $182 $283 reversed $172 $-1 #
coedge $-1 $179 $269 $274 $345 forward $172 $-1 #
vertex $-1 $180 $349 #
straight-curve $-1 25.903487518543365 35.785683414677699 62.801361659228391 0 0 1 I I #
straight-curve $-1 25.903487518543365 -10.21950368474954 58.63997641741237 0 0.64278759981090561 -0.7660444514056185 I I #
edge $-1 $343 -36.55597233634321 $184 -25.903487518543365 $278 $350 forward 7 unknown #
point $-1 25.903487518543365 35.785683414677699 9.8313157169996845 #
point $-1 25.903487518543365 30.735824434964115 9.8313157169996828 #
edge $-1 $351 1 $351 0 $187 $-1 forward 7 unknown #
vertex $-1 $188 $352 #
ellipse-curve $-1 28.947054609343311 30.708916710419899 4.6809762382661404 0 0.7660444514056185 0.64278759981090561 1 0 0 1 I I #
point $-1 29.947054609343311 33.260753924820897 6.8222218476340952 #
edge $-1 $353 1 $353 0 $191 $-1 forward 7 unknown #
vertex $-1 $192 $354 #
ellipse-curve $-1 33.512405245543249 30.708916710419899 4.6809762382661404 0 0.7660444514056185 0.64278759981090561 1 0 0 1 I I #
point $-1 34.512405245543249 33.260753924820897 6.8222218476340952 #
plane-surface $-1 52.087771233252965 0 0 -1 0 0 0 0 1 forward_v I I I I #
coedge $-1 $200 $198 $202 $299 reversed $121 $-1 #
edge $-1 $213 -9.8313157169996845 $301 9.8313157169996845 $212 $355 forward 7 unknown #
vertex $-1 $299 $356 #
straight-curve $-1 -52.087771233252965 -35.785683414677699 0 0 0 -1 I I #
edge $-1 $297 -35.785683414677699 $301 35.785683414677699 $295 $357 forward 7 unknown #
straight-curve $-1 0 -35.785683414677699 -9.8313157169996845 -1 0 0 I I #
vertex $-1 $205 $358 #
straight-curve $-1 0 35.785683414677699 -9.8313157169996845 1 0 0 I I #
point $-1 52.087771233252965 35.785683414677699 -9.8313157169996845 #
point $-1 52.087771233252965 -35.785683414677699 -9.8313157169996845 #
straight-curve $-1 -52.087771233252965 0 9.8313157169996845 0 -1 0 I I #
point $-1 -52.087771233252965 35.785683414677699 9.8313157169996845 #
point $-1 -52.087771233252965 -35.785683414677699 9.8313157169996845 #
straight-curve $-1 52.087771233252965 -35.785683414677699 0 0 0 -1 I I #
straight-curve $-1 52.087771233252965 35.785683414677699 0 0 0 -1 I I #
plane-surface $-1 0 -35.785683414677699 0 0 1 0 0 0 1 forward_v I I I I #
coedge $-1 $359 $225 $237 $322 reversed $140 $-1 #
coedge $-1 $225 $359 $240 $324 reversed $140 $-1 #
edge $-1 $360 -52.087771233252965 $234 -39.205882289660508 $230 $361 forward 7 unknown #
straight-curve $-1 -39.205882289660508 -17.135293030680423 9.8313157169996845 0 1 0 I I #
coedge $-1 $237 $228 $231 $318 forward $223 $-1 #
straight-curve $-1 -39.205882289660508 -17.135293030680423 -9.8313157169996845 0 -1 0 I I #
coedge $-1 $231 $230 $359 $362 forward $232 $-1 #
edge $-1 $233 39.205882289660508 $363 52.087771233252965 $231 $364 forward 7 unknown #
point $-1 -39.205882289660508 -35.785683414677699 -9.8313157169996845 #
point $-1 -39.205882289660508 -35.785683414677699 9.8313157169996845 #
straight-curve $-1 -52.087771233252965 -32.755488708043991 0 0 0 -1 I I #
edge $-1 $363 -35.785683414677699 $238 -32.755488708043991 $311 $365 forward 7 unknown #
point $-1 -52.087771233252965 -32.755488708043991 -9.8313157169996845 #
edge $-1 $241 32.755488708043991 $360 35.785683414677699 $312 $366 forward 7 unknown #
point $-1 -52.087771233252965 -32.755488708043991 9.8313157169996845 #
plane-surface $-1 52.087771233252965 0 0 -1 0 0 0 0 1 forward_v I I I I #
coedge $-1 $367 $248 $260 $338 reversed $156 $-1 #
coedge $-1 $248 $367 $263 $340 reversed $156 $-1 #
edge $-1 $368 -35.785683414677699 $257 -32.755488708043991 $253 $369 forward 7 unknown #
straight-curve $-1 22.823413380728368 -32.755488708043991 9.8313157169996845 -1 0 0 I I #
coedge $-1 $260 $251 $254 $334 forward $246 $-1 #
straight-curve $-1 22.823413380728368 -32.755488708043991 -9.8313157169996845 1 0 0 I I #
coedge $-1 $254 $253 $367 $370 forward $255 $-1 #
edge $-1 $256 32.755488708043991 $371 35.785683414677699 $254 $372 forward 7 unknown #
point $-1 52.087771233252965 -32.755488708043991 -9.8313157169996845 #
point $-1 52.087771233252965 -32.755488708043991 9.8313157169996845 #
straight-curve $-1 39.205882289660508 -35.785683414677699 0 0 0 -1 I I #
edge $-1 $371 -52.087771233252965 $261 -39.205882289660508 $327 $373 forward 7 unknown #
point $-1 39.205882289660508 -35.785683414677699 -9.8313157169996845 #
edge $-1 $264 39.205882289660508 $368 52.087771233252965 $328 $374 forward 7 unknown #
point $-1 39.205882289660508 -35.785683414677699 9.8313157169996845 #
edge $-1 $343 52.970045942228708 $346 58.98823368095988 $269 $375 forward 7 unknown #
vertex $-1 $283 $376 #
straight-curve $-1 36.55597233634321 34.791796296943858 9.8313157169996828 0 1 0 I I #
edge $-1 $346 -20.941107372621566 $280 -10.288622554821721 $279 $377 forward 7 unknown #
vertex $-1 $345 $378 #
straight-curve $-1 36.55597233634321 -10.21950368474954 58.63997641741237 0 -0.64278759981090561 0.7660444514056185 I I #
point $-1 36.55597233634321 30.735824434964115 9.8313157169996828 #
point $-1 25.903487518543365 35.785683414677699 3.8131279782685112 #
straight-curve $-1 0 35.785683414677699 9.8313157169996845 -1 0 0 I I #
vertex $-1 $286 $379 #
point $-1 29.947054609343311 30.708916710419899 4.6809762382661404 #
vertex $-1 $290 $380 #
point $-1 34.512405245543249 30.708916710419899 4.6809762382661404 #
straight-curve $-1 -52.087771233252965 35.785683414677699 0 0 0 -1 I I #
point $-1 -52.087771233252965 -35.785683414677699 -9.8313157169996845 #
straight-curve $-1 -52.087771233252965 0 -9.8313157169996845 0 1 0 I I #
point $-1 -52.087771233252965 35.785683414677699 -9.8313157169996845 #
coedge $-1 $312 $311 $317 $362 reversed $140 $-1 #
vertex $-1 $324 $381 #
straight-curve $-1 0 -35.785683414677699 9.8313157169996845 1 0 0 I I #
edge $-1 $360 -9.8313157169996845 $363 9.8313157169996845 $359 $382 forward 7 unknown #
vertex $-1 $322 $383 #
straight-curve $-1 0 -35.785683414677699 -9.8313157169996845 -1 0 0 I I #
straight-curve $-1 -52.087771233252965 0 -9.8313157169996845 0 1 0 I I #
straight-curve $-1 -52.087771233252965 0 9.8313157169996845 0 -1 0 I I #
coedge $-1 $328 $327 $333 $370 reversed $156 $-1 #
vertex $-1 $329 $384 #
straight-curve $-1 52.087771233252965 0 9.8313157169996845 0 1 0 I I #
edge $-1 $368 -9.8313157169996845 $371 9.8313157169996845 $333 $385 forward 7 unknown #
vertex $-1 $370 $386 #
straight-curve $-1 52.087771233252965 0 -9.8313157169996845 0 -1 0 I I #
straight-curve $-1 0 -35.785683414677699 -9.8313157169996845 -1 0 0 I I #
straight-curve $-1 0 -35.785683414677699 9.8313157169996845 1 0 0 I I #
straight-curve $-1 36.55597233634321 35.785683414677699 62.801361659228391 0 0 -1 I I #
point $-1 36.55597233634321 35.785683414677699 9.8313157169996845 #
straight-curve $-1 15.614864963721644 35.785683414677699 3.8131279782685112 -1 0 0 I I #
point $-1 36.55597233634321 35.785683414677699 3.8131279782685112 #
point $-1 28.947054609343311 29.94287225901428 4.0381886384552352 #
point $-1 33.512405245543249 29.94287225901428 4.0381886384552352 #
point $-1 -52.087771233252965 -35.785683414677699 9.8313157169996845 #
straight-curve $-1 -52.087771233252965 -35.785683414677699 0 0 0 -1 I I #
point $-1 -52.087771233252965 -35.785683414677699 -9.8313157169996845 #
point $-1 52.087771233252965 -35.785683414677699 9.8313157169996845 #
straight-curve $-1 52.087771233252965 -35.785683414677699 0 0 0 -1 I I #
point $-1 52.087771233252965 -35.785683414677699 -9.8313157169996845 #
End-of-ACIS-data 