500 0 8 0           
7 Unknown 11 ACIS 5.0 NT 24 Fri Mar 26 15:53:02 1999 
-1 9.9999999999999995e-007 1e-010 
body $-1 $8 $-1 $9 #
body $-1 $10 $-1 $11 #
body $-1 $12 $-1 $13 #
body $-1 $14 $-1 $15 #
body $-1 $16 $-1 $17 #
body $-1 $18 $-1 $19 #
body $-1 $20 $-1 $21 #
body $-1 $22 $-1 $23 #
lump $-1 $-1 $24 $0 #
transform $-1 1 0 0 0 1 0 0 0 1 61.024811548203985 31.113956545612041 12.114663893425767 1 rotate no_reflect no_shear #
lump $-1 $-1 $25 $1 #
transform $-1 1 0 0 0 1 0 0 0 1 61.024811548203985 31.113956545612041 12.114663893425767 1 rotate no_reflect no_shear #
lump $-1 $-1 $26 $2 #
transform $-1 1 0 0 0 1 0 0 0 1 61.024811548203985 31.113956545612041 12.114663893425767 1 rotate no_reflect no_shear #
lump $-1 $-1 $27 $3 #
transform $-1 1 0 0 0 1 0 0 0 1 61.024811548203985 31.113956545612041 12.114663893425767 1 rotate no_reflect no_shear #
lump $-1 $-1 $28 $4 #
transform $-1 1 0 0 0 1 0 0 0 1 61.024811548203985 31.113956545612041 12.114663893425767 1 rotate no_reflect no_shear #
lump $-1 $-1 $29 $5 #
transform $-1 1 0 0 0 1 0 0 0 1 61.024811548203985 31.113956545612041 12.114663893425767 1 rotate no_reflect no_shear #
lump $-1 $-1 $30 $6 #
transform $-1 1 0 0 0 1 0 0 0 1 61.024811548203985 31.113956545612041 12.114663893425767 1 rotate no_reflect no_shear #
lump $-1 $-1 $31 $7 #
transform $-1 1 0 0 0 1 0 0 0 1 61.024811548203985 31.113956545612041 12.114663893425767 1 rotate no_reflect no_shear #
shell $-1 $-1 $-1 $32 $-1 $8 #
shell $-1 $-1 $-1 $33 $-1 $10 #
shell $-1 $-1 $-1 $34 $-1 $12 #
shell $-1 $-1 $-1 $35 $-1 $14 #
shell $-1 $-1 $-1 $36 $-1 $16 #
shell $-1 $-1 $-1 $37 $-1 $18 #
shell $-1 $-1 $-1 $38 $-1 $20 #
shell $-1 $-1 $-1 $39 $-1 $22 #
face $-1 $40 $41 $24 $-1 $42 forward single #
face $-1 $43 $44 $25 $-1 $45 reversed single #
face $-1 $46 $47 $26 $-1 $48 forward single #
face $-1 $49 $50 $27 $-1 $51 reversed single #
face $-1 $52 $53 $28 $-1 $54 forward single #
face $-1 $55 $56 $29 $-1 $57 reversed single #
face $-1 $58 $59 $30 $-1 $60 forward single #
face $-1 $61 $62 $31 $-1 $63 forward single #
face $-1 $64 $65 $24 $-1 $66 reversed single #
loop $-1 $-1 $67 $32 #
plane-surface $-1 0 0 12.114663893425767 0 0 1 1 0 0 forward_v I I I I #
face $-1 $68 $69 $25 $-1 $70 reversed single #
loop $-1 $-1 $71 $33 #
plane-surface $-1 0 -24.710117926101599 6.6138736978275379 0 0 1 1 0 0 forward_v I I I I #
face $-1 $72 $73 $26 $-1 $74 reversed single #
loop $-1 $-1 $75 $34 #
plane-surface $-1 0 24.84566891408484 -5.4539834556187499 0 0 1 1 0 0 forward_v I I I I #
face $-1 $76 $77 $27 $-1 $78 reversed single #
loop $-1 $-1 $79 $35 #
plane-surface $-1 25.138375212106951 -10.347141933866723 169.57150291846614 0 -1 0 -0.54463904215088732 0 -0.83867056331134215 forward_v I I I I #
face $-1 $80 $81 $28 $-1 $82 forward single #
loop $-1 $83 $84 $36 #
cone-surface $-1 51.47068179088923 -14.326710620228944 5.2015991497896472 -0.54463904215088732 0 -0.83867056331134215 1.2580058449670133 0 -0.81695856322633098 1 I I 0 1 1.5 forward I I I I #
face $-1 $85 $86 $29 $-1 $87 reversed single #
loop $-1 $-1 $88 $37 #
plane-surface $-1 -139.47679800574099 -10.282281079476334 97.429535870058018 0 1 0 -0.64278761758704617 0 0.76604443648966558 forward_v I I I I #
face $-1 $89 $90 $30 $-1 $91 forward single #
loop $-1 $92 $93 $38 #
cone-surface $-1 -55.239709293221857 -7.1854385826714982 6.9392970566783383 0.64278761758704617 0 -0.76604443648966558 1.1490666547344983 0 0.96418142638056925 1 I I 0 1 1.5 forward I I I I #
face $-1 $94 $95 $31 $-1 $96 forward single #
loop $-1 $97 $98 $39 #
cone-surface $-1 -55.239709293221857 -2.5401748374642459 6.9392970566783383 0.64278761758704617 0 -0.76604443648966558 1.1490666547344983 0 0.96418142638056925 1 I I 0 1 1.5 forward I I I I #
face $-1 $99 $100 $24 $-1 $101 reversed single #
loop $-1 $-1 $102 $40 #
plane-surface $-1 0 0 -12.114663893425767 0 0 1 1 0 0 forward_v I I I I #
coedge $-1 $103 $104 $105 $106 forward $41 $-1 #
face $-1 $107 $108 $25 $-1 $109 reversed single #
loop $-1 $-1 $110 $43 #
plane-surface $-1 0 -18.306279306591158 9.3642687956266535 0 -1 0 0 0 -1 forward_v I I I I #
coedge $-1 $111 $112 $113 $114 reversed $44 $-1 #
face $-1 $115 $116 $26 $-1 $117 reversed single #
loop $-1 $-1 $118 $46 #
plane-surface $-1 0 18.577381282557635 -8.784323674522259 0 1 0 0 0 1 forward_v I I I I #
coedge $-1 $119 $120 $121 $122 reversed $47 $-1 #
face $-1 $123 $124 $27 $-1 $125 forward single #
loop $-1 $-1 $126 $49 #
plane-surface $-1 -41.334614605997501 -14.32671062022894 67.212076764264665 0.54463904215088732 0 0.83867056331134215 0.83867056331134215 0 -0.54463904215088732 forward_v I I I I #
coedge $-1 $127 $128 $129 $130 reversed $50 $-1 #
face $-1 $-1 $131 $28 $-1 $132 forward single #
loop $-1 $133 $134 $52 #
cone-surface $-1 50.266498780949192 -14.326710620228944 3.3473199573027905 -0.54463904215088732 0 -0.83867056331134215 0.62900292248350664 0 -0.40847928161316549 1 I I -0.70710678118654757 0.70710678118654757 0.75 forward I I I I #
loop $-1 $-1 $135 $36 #
coedge $-1 $84 $84 $136 $137 reversed $53 $-1 #
face $-1 $138 $139 $29 $-1 $140 reversed single #
loop $-1 $-1 $141 $55 #
plane-surface $-1 -61.024811548203985 -4.862806710067872 3.9341011213941073 -0.64278761758704617 0 0.76604443648966558 0.76604443648966558 0 0.64278761758704617 forward_v I I I I #
coedge $-1 $142 $143 $144 $145 reversed $56 $-1 #
face $-1 $-1 $146 $30 $-1 $147 forward single #
loop $-1 $148 $149 $58 #
cone-surface $-1 -53.847123759456579 -7.1854385826714982 5.2796782785794925 0.64278761758704617 0 -0.76604443648966558 0.57453332736724916 0 0.48209071319028463 1 I I -0.70710678118654757 0.70710678118654757 0.75 forward I I I I #
loop $-1 $-1 $150 $38 #
coedge $-1 $93 $93 $151 $152 reversed $59 $-1 #
face $-1 $-1 $153 $31 $-1 $154 forward single #
loop $-1 $155 $156 $61 #
cone-surface $-1 -53.847123759456579 -2.5401748374642459 5.2796782785794925 0.64278761758704617 0 -0.76604443648966558 0.57453332736724916 0 0.48209071319028463 1 I I -0.70710678118654757 0.70710678118654757 0.75 forward I I I I #
loop $-1 $-1 $157 $39 #
coedge $-1 $98 $98 $158 $159 reversed $62 $-1 #
face $-1 $160 $161 $24 $-1 $162 reversed single #
loop $-1 $-1 $163 $64 #
plane-surface $-1 0 -31.113956545612041 0 0 1 0 0 0 1 forward_v I I I I #
coedge $-1 $164 $165 $166 $167 forward $65 $-1 #
coedge $-1 $168 $67 $169 $170 forward $41 $-1 #
coedge $-1 $67 $168 $171 $172 forward $41 $-1 #
coedge $-1 $173 $174 $67 $106 reversed $175 $-1 #
edge $-1 $176 -31.113956545612041 $177 31.113956545612041 $105 $178 forward 7 unknown #
face $-1 $179 $180 $25 $-1 $181 reversed single #
loop $-1 $-1 $182 $68 #
plane-surface $-1 -61.024811548203985 0 0 1 0 0 0 0 -1 forward_v I I I I #
coedge $-1 $183 $184 $185 $186 reversed $69 $-1 #
coedge $-1 $187 $71 $188 $189 reversed $44 $-1 #
coedge $-1 $71 $187 $183 $190 forward $44 $-1 #
coedge $-1 $185 $191 $71 $114 forward $192 $-1 #
edge $-1 $193 -18.758897582561239 $194 -5.9512203435403581 $113 $195 forward 7 unknown #
face $-1 $196 $197 $26 $-1 $198 reversed single #
loop $-1 $-1 $121 $72 #
plane-surface $-1 61.024811548203985 0 0 -1 0 0 0 0 1 forward_v I I I I #
coedge $-1 $199 $200 $201 $202 reversed $73 $-1 #
coedge $-1 $203 $75 $204 $205 reversed $47 $-1 #
coedge $-1 $75 $203 $200 $206 forward $47 $-1 #
coedge $-1 $207 $208 $75 $122 forward $116 $-1 #
edge $-1 $209 -18.691122088569625 $210 -6.1545468255152151 $121 $211 forward 7 unknown #
face $-1 $212 $213 $27 $-1 $214 forward single #
loop $-1 $-1 $129 $76 #
plane-surface $-1 0 0 12.114663893425767 0 0 1 1 0 0 forward_v I I I I #
coedge $-1 $215 $216 $217 $218 reversed $77 $-1 #
coedge $-1 $128 $79 $219 $220 reversed $50 $-1 #
coedge $-1 $79 $127 $215 $221 reversed $50 $-1 #
coedge $-1 $217 $222 $79 $130 forward $124 $-1 #
edge $-1 $223 -48.45562394215051 $224 -30.938771884174727 $129 $225 forward 7 unknown #
loop $-1 $-1 $136 $80 #
plane-surface $-1 -41.334614605997501 -14.32671062022894 67.212076764264665 0.54463904215088732 0 0.83867056331134215 0.83867056331134215 0 -0.54463904215088732 forward_v I I I I #
loop $-1 $-1 $226 $52 #
coedge $-1 $134 $134 $135 $227 reversed $81 $-1 #
coedge $-1 $135 $135 $134 $227 forward $83 $-1 #
coedge $-1 $136 $136 $84 $137 forward $131 $-1 #
edge $-1 $228 0 $228 6.2831853071796004 $136 $229 forward 7 unknown #
face $-1 $230 $231 $29 $-1 $232 reversed single #
loop $-1 $-1 $233 $85 #
plane-surface $-1 -139.47679800574099 0.55666765934059015 97.429535870058018 0 -1 0 0.64278761758704617 0 -0.76604443648966558 forward_v I I I I #
coedge $-1 $234 $235 $236 $237 reversed $86 $-1 #
coedge $-1 $143 $88 $238 $239 reversed $56 $-1 #
coedge $-1 $88 $142 $234 $240 reversed $56 $-1 #
coedge $-1 $236 $241 $88 $145 forward $242 $-1 #
edge $-1 $243 8.7135874546665093 $244 18.462802323480773 $144 $245 forward 7 unknown #
loop $-1 $-1 $151 $89 #
plane-surface $-1 -61.024811548203985 -4.862806710067872 3.9341011213941073 -0.64278761758704617 0 0.76604443648966558 0.76604443648966558 0 0.64278761758704617 forward_v I I I I #
loop $-1 $-1 $246 $58 #
coedge $-1 $149 $149 $150 $247 reversed $90 $-1 #
coedge $-1 $150 $150 $149 $247 forward $92 $-1 #
coedge $-1 $151 $151 $93 $152 forward $146 $-1 #
edge $-1 $248 0 $248 6.2831853071796004 $151 $249 forward 7 unknown #
loop $-1 $-1 $158 $94 #
plane-surface $-1 -61.024811548203985 -4.862806710067872 3.9341011213941073 -0.64278761758704617 0 0.76604443648966558 0.76604443648966558 0 0.64278761758704617 forward_v I I I I #
loop $-1 $-1 $250 $61 #
coedge $-1 $156 $156 $157 $251 reversed $95 $-1 #
coedge $-1 $157 $157 $156 $251 forward $97 $-1 #
coedge $-1 $158 $158 $98 $159 forward $153 $-1 #
edge $-1 $252 0 $252 6.2831853071796004 $158 $253 forward 7 unknown #
face $-1 $254 $255 $24 $-1 $256 reversed single #
loop $-1 $-1 $257 $99 #
plane-surface $-1 -61.024811548203985 0 0 1 0 0 0 0 -1 forward_v I I I I #
coedge $-1 $258 $171 $259 $260 forward $100 $-1 #
coedge $-1 $261 $102 $258 $262 forward $65 $-1 #
coedge $-1 $102 $261 $263 $264 forward $65 $-1 #
coedge $-1 $174 $173 $102 $167 reversed $175 $-1 #
edge $-1 $265 -31.113956545612041 $266 31.113956545612041 $166 $267 forward 7 unknown #
coedge $-1 $104 $103 $268 $269 forward $41 $-1 #
coedge $-1 $270 $271 $103 $170 reversed $255 $-1 #
edge $-1 $177 -61.024811548203985 $272 61.024811548203985 $169 $273 forward 7 unknown #
coedge $-1 $163 $274 $104 $172 reversed $100 $-1 #
edge $-1 $275 -61.024811548203985 $176 61.024811548203985 $171 $276 forward 7 unknown #
coedge $-1 $166 $105 $274 $277 forward $175 $-1 #
coedge $-1 $105 $166 $270 $278 reversed $175 $-1 #
loop $-1 $-1 $173 $254 #
vertex $-1 $106 $279 #
vertex $-1 $106 $280 #
straight-curve $-1 61.024811548203985 0 12.114663893425767 0 1 0 I I #
face $-1 $281 $282 $25 $-1 $283 forward single #
loop $-1 $-1 $188 $107 #
plane-surface $-1 0 -31.113956545612041 0 0 1 0 0 0 1 forward_v I I I I #
coedge $-1 $284 $285 $286 $287 forward $108 $-1 #
coedge $-1 $286 $110 $112 $190 reversed $69 $-1 #
coedge $-1 $110 $286 $288 $289 reversed $69 $-1 #
coedge $-1 $290 $113 $110 $186 forward $192 $-1 #
edge $-1 $194 1.9317393000142111 $291 7.4325294956124424 $185 $292 forward 7 unknown #
coedge $-1 $112 $111 $284 $293 reversed $44 $-1 #
coedge $-1 $294 $295 $111 $189 forward $180 $-1 #
edge $-1 $296 -61.024811548203985 $193 61.024811548203985 $188 $297 forward 7 unknown #
edge $-1 $298 -61.024811548203985 $194 61.024811548203985 $183 $299 forward 7 unknown #
coedge $-1 $113 $290 $294 $300 forward $192 $-1 #
loop $-1 $-1 $185 $281 #
vertex $-1 $189 $301 #
vertex $-1 $114 $302 #
straight-curve $-1 61.024811548203985 -12.3550589630508 6.6138736978275379 0 1 0 I I #
face $-1 $303 $304 $26 $-1 $305 reversed single #
loop $-1 $-1 $306 $115 #
plane-surface $-1 0 0 -12.114663893425767 0 0 1 1 0 0 forward_v I I I I #
coedge $-1 $307 $118 $306 $308 reversed $73 $-1 #
coedge $-1 $118 $307 $120 $206 reversed $73 $-1 #
coedge $-1 $309 $310 $118 $202 forward $304 $-1 #
edge $-1 $311 -7.7225020561646378 $312 -1.0618216183576203 $201 $313 forward 7 unknown #
coedge $-1 $120 $119 $309 $314 reversed $47 $-1 #
coedge $-1 $315 $316 $119 $205 forward $317 $-1 #
edge $-1 $318 -61.024811548203985 $209 61.024811548203985 $204 $319 forward 7 unknown #
edge $-1 $312 -61.024811548203985 $210 61.024811548203985 $200 $320 forward 7 unknown #
coedge $-1 $321 $121 $307 $322 forward $116 $-1 #
coedge $-1 $121 $321 $315 $323 reversed $116 $-1 #
vertex $-1 $323 $324 #
vertex $-1 $122 $325 #
straight-curve $-1 61.024811548203985 12.42283445704242 -5.4539834556187499 0 -1 0 I I #
face $-1 $-1 $326 $27 $-1 $327 reversed single #
loop $-1 $-1 $328 $123 #
plane-surface $-1 0 -18.306279306591158 9.3642687956266535 0 -1 0 0 0 -1 forward_v I I I I #
coedge $-1 $329 $126 $128 $221 forward $77 $-1 #
coedge $-1 $126 $329 $328 $330 forward $77 $-1 #
coedge $-1 $331 $129 $126 $218 forward $124 $-1 #
edge $-1 $224 3.183786623752253 $332 11.142923996476688 $217 $333 forward 7 unknown #
coedge $-1 $334 $335 $127 $220 forward $326 $-1 #
edge $-1 $336 -84.046664513072869 $223 -72.671087565807298 $219 $337 forward 7 unknown #
edge $-1 $224 101.16317158103158 $336 122.049623096408 $128 $338 forward 7 unknown #
coedge $-1 $129 $331 $334 $339 forward $124 $-1 #
vertex $-1 $130 $340 #
vertex $-1 $130 $341 #
straight-curve $-1 12.569187606053475 -10.347141933866723 12.114663893425771 -1 0 0 I I #
coedge $-1 $226 $226 $-1 $342 reversed $133 $-1 #
edge $-1 $343 0 $343 6.2831853071796004 $134 $344 forward 7 unknown #
vertex $-1 $137 $345 #
ellipse-curve $-1 52.266385519216101 -14.326710620228944 6.4268754197929852 0.54463904215088732 0 0.83867056331134215 1.2580058449670133 0 -0.81695856322633098 1 I I #
face $-1 $-1 $242 $29 $-1 $346 forward single #
loop $-1 $-1 $347 $138 #
plane-surface $-1 -61.024811548203985 0 0 1 0 0 0 0 -1 forward_v I I I I #
coedge $-1 $348 $349 $350 $351 reversed $139 $-1 #
coedge $-1 $352 $141 $143 $240 forward $86 $-1 #
coedge $-1 $141 $352 $348 $353 forward $86 $-1 #
coedge $-1 $350 $144 $141 $237 forward $242 $-1 #
edge $-1 $244 -7.8508777244423982 $354 2.9880710143745262 $236 $355 forward 7 unknown #
coedge $-1 $356 $357 $142 $239 forward $231 $-1 #
edge $-1 $358 -44.780666813634902 $243 -36.600104041603245 $238 $359 forward 7 unknown #
edge $-1 $244 -12.726696265153004 $358 0 $143 $360 forward 7 unknown #
coedge $-1 $144 $350 $356 $361 forward $242 $-1 #
loop $-1 $-1 $350 $230 #
vertex $-1 $239 $362 #
vertex $-1 $145 $363 #
straight-curve $-1 -69.738399002870494 -10.282281079476334 12.114663893425771 1 0 0 I I #
coedge $-1 $246 $246 $-1 $364 reversed $148 $-1 #
edge $-1 $365 0 $365 6.2831853071796004 $149 $366 forward 7 unknown #
vertex $-1 $152 $367 #
ellipse-curve $-1 -56.150204113796853 -7.1854385826714982 8.0243825074099373 -0.64278761758704617 0 0.76604443648966558 1.1490666547344983 0 0.96418142638056925 1 I I #
coedge $-1 $250 $250 $-1 $368 reversed $155 $-1 #
edge $-1 $369 0 $369 6.2831853071796004 $156 $370 forward 7 unknown #
vertex $-1 $159 $371 #
ellipse-curve $-1 -56.150204113796853 -2.5401748374642459 8.0243825074099373 -0.64278761758704617 0 0.76604443648966558 1.1490666547344983 0 0.96418142638056925 1 I I #
face $-1 $-1 $175 $24 $-1 $372 reversed single #
loop $-1 $-1 $270 $160 #
plane-surface $-1 0 31.113956545612041 0 0 -1 0 0 0 -1 forward_v I I I I #
coedge $-1 $373 $268 $271 $374 forward $161 $-1 #
coedge $-1 $274 $163 $164 $262 reversed $100 $-1 #
coedge $-1 $268 $373 $163 $260 reversed $161 $-1 #
edge $-1 $275 -12.114663893425767 $375 12.114663893425767 $259 $376 forward 7 unknown #
coedge $-1 $165 $164 $373 $377 forward $65 $-1 #
edge $-1 $266 -61.024811548203985 $375 61.024811548203985 $258 $378 forward 7 unknown #
coedge $-1 $271 $270 $165 $264 reversed $255 $-1 #
edge $-1 $379 -61.024811548203985 $265 61.024811548203985 $263 $380 forward 7 unknown #
vertex $-1 $167 $381 #
vertex $-1 $277 $382 #
straight-curve $-1 61.024811548203985 0 -12.114663893425767 0 -1 0 I I #
coedge $-1 $257 $259 $168 $269 reversed $161 $-1 #
edge $-1 $272 -31.113956545612041 $275 31.113956545612041 $268 $383 forward 7 unknown #
coedge $-1 $263 $169 $174 $278 forward $255 $-1 #
coedge $-1 $169 $263 $257 $374 reversed $255 $-1 #
vertex $-1 $170 $384 #
straight-curve $-1 0 31.113956545612041 12.114663893425767 -1 0 0 I I #
coedge $-1 $171 $258 $173 $277 reversed $100 $-1 #
vertex $-1 $269 $385 #
straight-curve $-1 0 -31.113956545612041 12.114663893425767 1 0 0 I I #
edge $-1 $176 -12.114663893425767 $266 12.114663893425767 $173 $386 forward 7 unknown #
edge $-1 $177 -12.114663893425767 $265 12.114663893425767 $174 $387 forward 7 unknown #
point $-1 61.024811548203985 -31.113956545612041 12.114663893425767 #
point $-1 61.024811548203985 31.113956545612041 12.114663893425767 #
face $-1 $-1 $192 $25 $-1 $388 reversed single #
loop $-1 $-1 $288 $179 #
plane-surface $-1 0 0 12.114663893425767 0 0 1 1 0 0 forward_v I I I I #
coedge $-1 $389 $182 $187 $293 forward $108 $-1 #
coedge $-1 $182 $389 $390 $391 reversed $108 $-1 #
coedge $-1 $184 $183 $182 $287 reversed $69 $-1 #
edge $-1 $392 -7.4325294956124424 $298 -1.9317393000142111 $182 $393 forward 7 unknown #
coedge $-1 $390 $394 $184 $289 forward $282 $-1 #
edge $-1 $291 -61.024811548203985 $392 61.024811548203985 $288 $395 forward 7 unknown #
coedge $-1 $191 $185 $394 $396 reversed $192 $-1 #
vertex $-1 $186 $397 #
straight-curve $-1 61.024811548203985 -18.306279306591158 4.6821343978133267 0 0 1 I I #
edge $-1 $298 5.9512203435403581 $296 18.758897582561239 $284 $398 forward 7 unknown #
coedge $-1 $399 $188 $191 $300 reversed $180 $-1 #
coedge $-1 $188 $399 $389 $400 forward $180 $-1 #
vertex $-1 $189 $401 #
straight-curve $-1 0 -31.113956545612041 6.6138736978275379 1 0 0 I I #
vertex $-1 $293 $402 #
straight-curve $-1 0 -18.306279306591158 6.6138736978275379 1 0 0 I I #
edge $-1 $403 -12.114663893425767 $193 -6.6138736978275379 $191 $404 forward 7 unknown #
point $-1 61.024811548203985 -31.113956545612041 6.6138736978275379 #
point $-1 61.024811548203985 -18.306279306591158 6.6138736978275379 #
face $-1 $-1 $317 $26 $-1 $405 reversed single #
loop $-1 $-1 $309 $196 #
plane-surface $-1 -61.024811548203985 0 0 1 0 0 0 0 -1 forward_v I I I I #
coedge $-1 $406 $407 $199 $308 forward $197 $-1 #
coedge $-1 $200 $199 $207 $322 reversed $73 $-1 #
edge $-1 $408 -61.024811548203985 $311 61.024811548203985 $306 $409 forward 7 unknown #
coedge $-1 $410 $201 $203 $314 forward $304 $-1 #
coedge $-1 $201 $410 $406 $411 reversed $304 $-1 #
vertex $-1 $411 $412 #
vertex $-1 $314 $413 #
straight-curve $-1 -61.024811548203985 18.577381282557635 -4.3921618372611295 0 0 1 I I #
edge $-1 $312 6.1545468255152151 $318 18.691122088569625 $309 $414 forward 7 unknown #
coedge $-1 $415 $204 $208 $323 forward $317 $-1 #
coedge $-1 $204 $415 $410 $416 reversed $317 $-1 #
loop $-1 $-1 $204 $303 #
vertex $-1 $416 $417 #
straight-curve $-1 0 31.113956545612041 -5.4539834556187499 1 0 0 I I #
straight-curve $-1 0 18.577381282557635 -5.4539834556187499 1 0 0 I I #
coedge $-1 $208 $207 $407 $418 reversed $116 $-1 #
edge $-1 $210 1.0618216183576203 $408 7.7225020561646378 $207 $419 forward 7 unknown #
edge $-1 $209 5.4539834556187499 $420 12.114663893425767 $208 $421 forward 7 unknown #
point $-1 61.024811548203985 31.113956545612044 -5.4539834556187499 #
point $-1 61.024811548203985 18.577381282557635 -5.4539834556187499 #
loop $-1 $-1 $219 $212 #
plane-surface $-1 61.024811548203985 0 0 -1 0 0 0 0 1 forward_v I I I I #
coedge $-1 $422 $423 $216 $330 reversed $213 $-1 #
coedge $-1 $216 $215 $335 $424 reversed $77 $-1 #
edge $-1 $425 -122.049623096408 $332 -101.16317158103155 $328 $426 forward 7 unknown #
coedge $-1 $222 $217 $423 $427 forward $124 $-1 #
vertex $-1 $427 $428 #
straight-curve $-1 43.50795949022821 -7.1633553101144702 12.114663893425764 0 -1 0 I I #
coedge $-1 $429 $219 $222 $339 reversed $326 $-1 #
coedge $-1 $219 $429 $329 $424 forward $326 $-1 #
vertex $-1 $220 $430 #
straight-curve $-1 61.024811548203985 -10.347141933866723 84.785751459233069 0 0 1 I I #
straight-curve $-1 -41.334614605997501 -10.347141933866723 67.212076764264665 0.83867056331134215 0 -0.54463904215088732 I I #
edge $-1 $431 -18.306279306591158 $223 -10.347141933866723 $334 $432 forward 7 unknown #
point $-1 61.024811548203985 -10.347141933866723 12.114663893425767 #
point $-1 43.507959490228203 -10.347141933866723 12.114663893425771 #
edge $-1 $433 1 $433 0 $226 $-1 forward 7 unknown #
vertex $-1 $227 $434 #
ellipse-curve $-1 50.67497806256236 -14.326710620228944 3.9763228797862973 0.54463904215088732 0 0.83867056331134215 1.2580058449670133 0 -0.81695856322633098 1 I I #
point $-1 53.524391364183124 -14.326710620228944 5.6099168565666657 #
plane-surface $-1 0 0 12.114663893425767 0 0 1 1 0 0 forward_v I I I I #
coedge $-1 $357 $356 $349 $435 forward $231 $-1 #
coedge $-1 $349 $233 $235 $353 reversed $139 $-1 #
coedge $-1 $233 $348 $347 $435 reversed $139 $-1 #
coedge $-1 $241 $236 $233 $351 forward $242 $-1 #
edge $-1 $354 -18.462802323480773 $436 -8.7135874546665093 $350 $437 forward 7 unknown #
coedge $-1 $235 $234 $357 $438 reversed $86 $-1 #
edge $-1 $439 0 $354 12.726696265153004 $348 $440 forward 7 unknown #
vertex $-1 $237 $441 #
straight-curve $-1 -51.275596679389714 -2.431403355033936 12.114663893425769 0 1 0 I I #
coedge $-1 $347 $238 $241 $361 reversed $231 $-1 #
coedge $-1 $238 $347 $352 $438 forward $231 $-1 #
vertex $-1 $239 $442 #
straight-curve $-1 -61.024811548203985 -10.282281079476334 48.714767935029009 0 0 1 I I #
straight-curve $-1 -61.024811548203985 -10.282281079476334 3.9341011213941073 -0.76604443648966558 0 -0.64278761758704617 I I #
edge $-1 $436 -0.55666765934059015 $243 10.282281079476334 $356 $443 forward 7 unknown #
point $-1 -61.024811548203985 -10.282281079476334 12.114663893425767 #
point $-1 -51.275596679389722 -10.282281079476334 12.114663893425767 #
edge $-1 $444 1 $444 0 $246 $-1 forward 7 unknown #
vertex $-1 $247 $445 #
ellipse-curve $-1 -54.329214472646861 -7.1854385826714982 5.8542116059467419 -0.64278761758704617 0 0.76604443648966558 1.1490666547344983 0 0.96418142638056925 1 I I #
point $-1 -55.001137459062349 -7.1854385826714982 8.9885639337905054 #
edge $-1 $446 1 $446 0 $250 $-1 forward 7 unknown #
vertex $-1 $251 $447 #
ellipse-curve $-1 -54.329214472646861 -2.5401748374642459 5.8542116059467419 -0.64278761758704617 0 0.76604443648966558 1.1490666547344983 0 0.96418142638056925 1 I I #
point $-1 -55.001137459062349 -2.5401748374642459 8.9885639337905054 #
plane-surface $-1 61.024811548203985 0 0 -1 0 0 0 0 1 forward_v I I I I #
coedge $-1 $259 $257 $261 $377 reversed $161 $-1 #
edge $-1 $272 -12.114663893425767 $379 12.114663893425767 $271 $448 forward 7 unknown #
vertex $-1 $377 $449 #
straight-curve $-1 -61.024811548203985 -31.113956545612041 0 0 0 -1 I I #
edge $-1 $375 -31.113956545612041 $379 31.113956545612041 $373 $450 forward 7 unknown #
straight-curve $-1 0 -31.113956545612041 -12.114663893425767 -1 0 0 I I #
vertex $-1 $264 $451 #
straight-curve $-1 0 31.113956545612041 -12.114663893425767 1 0 0 I I #
point $-1 61.024811548203985 31.113956545612041 -12.114663893425767 #
point $-1 61.024811548203985 -31.113956545612041 -12.114663893425767 #
straight-curve $-1 -61.024811548203985 0 12.114663893425767 0 -1 0 I I #
point $-1 -61.024811548203985 31.113956545612041 12.114663893425767 #
point $-1 -61.024811548203985 -31.113956545612041 12.114663893425767 #
straight-curve $-1 61.024811548203985 -31.113956545612041 0 0 0 -1 I I #
straight-curve $-1 61.024811548203985 31.113956545612041 0 0 0 -1 I I #
plane-surface $-1 61.024811548203985 0 0 -1 0 0 0 0 1 forward_v I I I I #
coedge $-1 $285 $284 $295 $400 reversed $108 $-1 #
coedge $-1 $452 $288 $285 $391 forward $282 $-1 #
edge $-1 $392 18.306279306591158 $453 31.113956545612041 $285 $454 forward 7 unknown #
vertex $-1 $391 $455 #
straight-curve $-1 -61.024811548203985 -18.306279306591158 4.6821343978133267 0 0 -1 I I #
coedge $-1 $288 $452 $290 $396 forward $282 $-1 #
straight-curve $-1 0 -18.306279306591158 12.114663893425767 -1 0 0 I I #
edge $-1 $403 -31.113956545612041 $291 -18.306279306591158 $290 $456 forward 7 unknown #
point $-1 61.024811548203985 -18.306279306591158 12.114663893425769 #
straight-curve $-1 -61.024811548203985 -12.3550589630508 6.6138736978275379 0 -1 0 I I #
coedge $-1 $295 $294 $452 $457 reversed $180 $-1 #
edge $-1 $453 -12.114663893425767 $296 -6.6138736978275379 $389 $458 forward 7 unknown #
point $-1 -61.024811548203985 -31.113956545612041 6.6138736978275379 #
point $-1 -61.024811548203985 -18.306279306591158 6.6138736978275379 #
vertex $-1 $396 $459 #
straight-curve $-1 61.024811548203985 -31.113956545612041 0 0 0 -1 I I #
plane-surface $-1 0 31.113956545612041 0 0 -1 0 0 0 -1 forward_v I I I I #
coedge $-1 $460 $306 $310 $411 forward $197 $-1 #
coedge $-1 $306 $460 $321 $418 forward $197 $-1 #
vertex $-1 $308 $461 #
straight-curve $-1 0 18.577381282557635 -12.114663893425767 -1 0 0 I I #
coedge $-1 $310 $309 $316 $416 forward $304 $-1 #
edge $-1 $311 18.577381282557635 $462 31.113956545612041 $310 $463 forward 7 unknown #
point $-1 -61.024811548203985 18.577381282557635 -12.114663893425767 #
point $-1 -61.024811548203985 18.577381282557635 -5.4539834556187499 #
straight-curve $-1 -61.024811548203985 12.42283445704242 -5.4539834556187499 0 1 0 I I #
coedge $-1 $316 $315 $460 $464 reversed $317 $-1 #
edge $-1 $318 5.4539834556187499 $462 12.114663893425767 $316 $465 forward 7 unknown #
point $-1 -61.024811548203985 31.113956545612044 -5.4539834556187499 #
edge $-1 $420 -31.113956545612041 $408 -18.577381282557635 $321 $466 forward 7 unknown #
straight-curve $-1 61.024811548203985 18.577381282557635 -4.3921618372611295 0 0 -1 I I #
vertex $-1 $418 $467 #
straight-curve $-1 61.024811548203985 31.113956545612041 0 0 0 -1 I I #
coedge $-1 $423 $328 $429 $468 reversed $213 $-1 #
coedge $-1 $328 $422 $331 $427 reversed $213 $-1 #
edge $-1 $425 -11.142923996476688 $336 -3.183786623752253 $335 $469 forward 7 unknown #
vertex $-1 $468 $470 #
straight-curve $-1 -41.334614605997501 -18.306279306591158 67.212076764264665 -0.83867056331134215 0 0.54463904215088732 I I #
edge $-1 $332 43.507959490228195 $431 61.024811548203985 $331 $471 forward 7 unknown #
point $-1 43.507959490228195 -18.306279306591158 12.114663893425767 #
coedge $-1 $335 $334 $422 $468 forward $326 $-1 #
point $-1 61.024811548203985 -10.347141933866723 0.73908694616019943 #
vertex $-1 $339 $472 #
straight-curve $-1 61.024811548203985 0 12.114663893425767 0 1 0 I I #
vertex $-1 $342 $473 #
point $-1 51.932983907529369 -14.326710620228944 3.1593643165599663 #
edge $-1 $436 36.600104041603245 $439 44.780666813634902 $347 $474 forward 7 unknown #
vertex $-1 $361 $475 #
straight-curve $-1 -69.738399002870494 0.55666765934059015 12.114663893425771 -1 0 0 I I #
edge $-1 $439 -2.9880710143745262 $358 7.8508777244423982 $357 $476 forward 7 unknown #
vertex $-1 $438 $477 #
straight-curve $-1 -61.024811548203985 0.55666765934059015 3.9341011213941073 0.76604443648966558 0 0.64278761758704617 I I #
point $-1 -51.275596679389722 0.55666765934059015 12.114663893425767 #
point $-1 -61.024811548203985 -10.282281079476334 3.9341011213941073 #
straight-curve $-1 -61.024811548203985 0 12.114663893425767 0 -1 0 I I #
vertex $-1 $364 $478 #
point $-1 -53.180147817912363 -7.1854385826714982 6.818393032327311 #
vertex $-1 $368 $479 #
point $-1 -53.180147817912363 -2.5401748374642459 6.818393032327311 #
straight-curve $-1 -61.024811548203985 31.113956545612041 0 0 0 -1 I I #
point $-1 -61.024811548203985 -31.113956545612041 -12.114663893425767 #
straight-curve $-1 -61.024811548203985 0 -12.114663893425767 0 1 0 I I #
point $-1 -61.024811548203985 31.113956545612041 -12.114663893425767 #
coedge $-1 $394 $390 $399 $457 forward $282 $-1 #
vertex $-1 $391 $480 #
straight-curve $-1 -61.024811548203985 0 12.114663893425767 0 -1 0 I I #
point $-1 -61.024811548203985 -18.306279306591158 12.114663893425769 #
straight-curve $-1 61.024811548203985 0 12.114663893425767 0 1 0 I I #
edge $-1 $453 -61.024811548203985 $403 61.024811548203985 $399 $481 forward 7 unknown #
straight-curve $-1 -61.024811548203985 -31.113956545612041 0 0 0 -1 I I #
point $-1 61.024811548203985 -31.113956545612041 12.114663893425767 #
coedge $-1 $407 $406 $415 $464 forward $197 $-1 #
point $-1 61.024811548203985 18.577381282557635 -12.114663893425767 #
vertex $-1 $464 $482 #
straight-curve $-1 -61.024811548203985 0 -12.114663893425767 0 1 0 I I #
edge $-1 $462 -61.024811548203985 $420 61.024811548203985 $415 $483 forward 7 unknown #
straight-curve $-1 -61.024811548203985 31.113956545612041 0 0 0 -1 I I #
straight-curve $-1 61.024811548203985 0 -12.114663893425767 0 -1 0 I I #
point $-1 61.024811548203985 31.113956545612041 -12.114663893425767 #
edge $-1 $431 72.671087565807298 $425 84.046664513072869 $429 $484 forward 7 unknown #
straight-curve $-1 61.024811548203978 -7.1633553101144702 0.73908694616021364 0 1 0 I I #
point $-1 61.024811548203985 -18.306279306591158 0.73908694616019943 #
straight-curve $-1 0 -18.306279306591158 12.114663893425767 1 0 0 I I #
point $-1 61.024811548203985 -18.306279306591158 12.114663893425769 #
point $-1 49.858019499336024 -14.326710620228944 2.7183170348192838 #
straight-curve $-1 -61.024811548203985 0.55666765934059015 48.714767935029009 0 0 -1 I I #
point $-1 -61.024811548203985 0.55666765934059015 12.114663893425767 #
straight-curve $-1 -61.024811548203985 -2.431403355033936 3.9341011213941051 0 -1 0 I I #
point $-1 -61.024811548203985 0.55666765934059015 3.9341011213941073 #
point $-1 -53.365033046266298 -7.1854385826714982 4.705144951212243 #
point $-1 -53.365033046266298 -2.5401748374642459 4.705144951212243 #
point $-1 -61.024811548203985 -31.113956545612041 12.114663893425767 #
straight-curve $-1 0 -31.113956545612041 12.114663893425767 1 0 0 I I #
point $-1 -61.024811548203985 31.113956545612041 -12.114663893425767 #
straight-curve $-1 0 31.113956545612041 -12.114663893425767 1 0 0 I I #
straight-curve $-1 61.024811548203985 -18.306279306591158 84.785751459233069 0 0 -1 I I #
End-of-ACIS-data 