500 0 2 0           
7 Unknown 11 ACIS 5.0 NT 24 Thu Mar 25 15:30:23 1999 
-1 9.9999999999999995e-007 1e-010 
body $-1 $2 $-1 $3 #
body $-1 $4 $-1 $5 #
lump $-1 $-1 $6 $0 #
transform $-1 1 0 0 0 1 0 0 0 1 73.698538163396108 36.602760100628437 10.091311813625207 1 rotate no_reflect no_shear #
lump $-1 $-1 $7 $1 #
transform $-1 1 0 0 0 1 0 0 0 1 73.698538163396108 36.602760100628437 10.091311813625207 1 rotate no_reflect no_shear #
shell $-1 $-1 $-1 $8 $-1 $2 #
shell $-1 $-1 $-1 $9 $-1 $4 #
face $-1 $10 $11 $6 $-1 $12 forward single #
face $-1 $13 $14 $7 $-1 $15 forward single #
face $-1 $16 $17 $6 $-1 $18 reversed single #
loop $-1 $-1 $19 $8 #
plane-surface $-1 0 0 10.091311813625207 0 0 1 1 0 0 forward_v I I I I #
face $-1 $20 $21 $7 $-1 $22 reversed single #
loop $-1 $-1 $23 $9 #
plane-surface $-1 0 -30.178988924895023 5.1991769424828647 0 0 1 1 0 0 forward_v I I I I #
face $-1 $24 $25 $6 $-1 $26 reversed single #
loop $-1 $-1 $27 $10 #
plane-surface $-1 0 0 -10.091311813625207 0 0 1 1 0 0 forward_v I I I I #
coedge $-1 $28 $29 $30 $31 forward $11 $-1 #
face $-1 $32 $33 $7 $-1 $34 reversed single #
loop $-1 $-1 $35 $13 #
plane-surface $-1 0 -30.178988924895023 0.44193662188382987 0 0 1 1 0 0 forward_v I I I I #
coedge $-1 $36 $37 $38 $39 reversed $14 $-1 #
face $-1 $40 $41 $6 $-1 $42 reversed single #
loop $-1 $-1 $43 $16 #
plane-surface $-1 0 -36.602760100628437 0 0 1 0 0 0 1 forward_v I I I I #
coedge $-1 $44 $45 $46 $47 forward $17 $-1 #
coedge $-1 $48 $19 $49 $50 forward $11 $-1 #
coedge $-1 $19 $48 $51 $52 forward $11 $-1 #
coedge $-1 $53 $54 $19 $31 reversed $55 $-1 #
edge $-1 $56 -36.602760100628437 $57 36.602760100628437 $30 $58 forward 7 unknown #
face $-1 $59 $60 $7 $-1 $61 reversed single #
loop $-1 $-1 $62 $20 #
plane-surface $-1 0 -23.755217749161609 2.8205567821833473 0 -1 0 0 0 -1 forward_v I I I I #
coedge $-1 $63 $64 $65 $66 reversed $21 $-1 #
coedge $-1 $67 $23 $68 $69 forward $14 $-1 #
coedge $-1 $23 $67 $70 $71 reversed $14 $-1 #
coedge $-1 $72 $73 $23 $39 forward $74 $-1 #
edge $-1 $75 8.6657232867140976 $76 21.513265638180926 $38 $77 forward 7 unknown #
face $-1 $78 $79 $6 $-1 $80 reversed single #
loop $-1 $-1 $81 $24 #
plane-surface $-1 -73.698538163396108 0 0 1 0 0 0 0 -1 forward_v I I I I #
coedge $-1 $82 $51 $83 $84 forward $25 $-1 #
coedge $-1 $85 $27 $82 $86 forward $17 $-1 #
coedge $-1 $27 $85 $87 $88 forward $17 $-1 #
coedge $-1 $54 $53 $27 $47 reversed $55 $-1 #
edge $-1 $89 -36.602760100628437 $90 36.602760100628437 $46 $91 forward 7 unknown #
coedge $-1 $29 $28 $92 $93 forward $11 $-1 #
coedge $-1 $94 $95 $28 $50 reversed $79 $-1 #
edge $-1 $57 -73.698538163396108 $96 73.698538163396108 $49 $97 forward 7 unknown #
coedge $-1 $43 $98 $29 $52 reversed $25 $-1 #
edge $-1 $99 -73.698538163396108 $56 73.698538163396108 $51 $100 forward 7 unknown #
coedge $-1 $46 $30 $98 $101 forward $55 $-1 #
coedge $-1 $30 $46 $94 $102 reversed $55 $-1 #
loop $-1 $-1 $53 $78 #
vertex $-1 $31 $103 #
vertex $-1 $31 $104 #
straight-curve $-1 73.698538163396108 0 10.091311813625207 0 1 0 I I #
face $-1 $105 $106 $7 $-1 $107 reversed single #
loop $-1 $-1 $108 $32 #
plane-surface $-1 -73.698538163396108 0 0 1 0 0 0 0 -1 forward_v I I I I #
coedge $-1 $109 $68 $73 $110 reversed $33 $-1 #
coedge $-1 $111 $35 $112 $113 reversed $21 $-1 #
coedge $-1 $35 $111 $109 $114 forward $21 $-1 #
coedge $-1 $73 $72 $35 $66 forward $74 $-1 #
edge $-1 $115 -21.513265638180926 $116 -8.6657232867140976 $65 $117 forward 7 unknown #
coedge $-1 $37 $36 $108 $118 reversed $14 $-1 #
coedge $-1 $62 $119 $36 $69 reversed $33 $-1 #
edge $-1 $75 -73.698538163396108 $120 73.698538163396108 $68 $121 forward 7 unknown #
coedge $-1 $122 $123 $37 $71 forward $106 $-1 #
edge $-1 $76 -73.698538163396108 $124 73.698538163396108 $70 $125 forward 7 unknown #
coedge $-1 $65 $38 $123 $126 forward $74 $-1 #
coedge $-1 $38 $65 $62 $110 forward $74 $-1 #
loop $-1 $-1 $38 $105 #
vertex $-1 $39 $127 #
vertex $-1 $126 $128 #
straight-curve $-1 73.698538163396108 -15.089494462447512 5.1991769424828647 0 -1 0 I I #
face $-1 $-1 $55 $6 $-1 $129 reversed single #
loop $-1 $-1 $94 $40 #
plane-surface $-1 0 36.602760100628437 0 0 -1 0 0 0 -1 forward_v I I I I #
coedge $-1 $130 $92 $95 $131 forward $41 $-1 #
coedge $-1 $98 $43 $44 $86 reversed $25 $-1 #
coedge $-1 $92 $130 $43 $84 reversed $41 $-1 #
edge $-1 $99 -10.091311813625207 $132 10.091311813625207 $83 $133 forward 7 unknown #
coedge $-1 $45 $44 $130 $134 forward $17 $-1 #
edge $-1 $90 -73.698538163396108 $132 73.698538163396108 $82 $135 forward 7 unknown #
coedge $-1 $95 $94 $45 $88 reversed $79 $-1 #
edge $-1 $136 -73.698538163396108 $89 73.698538163396108 $87 $137 forward 7 unknown #
vertex $-1 $47 $138 #
vertex $-1 $101 $139 #
straight-curve $-1 73.698538163396108 0 -10.091311813625207 0 -1 0 I I #
coedge $-1 $81 $83 $48 $93 reversed $41 $-1 #
edge $-1 $96 -36.602760100628437 $99 36.602760100628437 $92 $140 forward 7 unknown #
coedge $-1 $87 $49 $54 $102 forward $79 $-1 #
coedge $-1 $49 $87 $81 $131 reversed $79 $-1 #
vertex $-1 $50 $141 #
straight-curve $-1 0 36.602760100628437 10.091311813625207 -1 0 0 I I #
coedge $-1 $51 $82 $53 $101 reversed $25 $-1 #
vertex $-1 $93 $142 #
straight-curve $-1 0 -36.602760100628437 10.091311813625207 1 0 0 I I #
edge $-1 $56 -10.091311813625207 $90 10.091311813625207 $53 $143 forward 7 unknown #
edge $-1 $57 -10.091311813625207 $89 10.091311813625207 $54 $144 forward 7 unknown #
point $-1 73.698538163396108 -36.602760100628437 10.091311813625207 #
point $-1 73.698538163396108 36.602760100628437 10.091311813625207 #
face $-1 $-1 $74 $7 $-1 $145 reversed single #
loop $-1 $-1 $70 $59 #
plane-surface $-1 0 -36.602760100628437 0 0 1 0 0 0 1 forward_v I I I I #
coedge $-1 $146 $147 $67 $118 forward $60 $-1 #
coedge $-1 $119 $62 $64 $114 reversed $33 $-1 #
edge $-1 $116 -0.96834176920784376 $75 3.788898551391191 $73 $148 forward 7 unknown #
coedge $-1 $64 $63 $149 $150 reversed $21 $-1 #
coedge $-1 $123 $122 $63 $113 forward $106 $-1 #
edge $-1 $151 -73.698538163396108 $115 73.698538163396108 $112 $152 forward 7 unknown #
edge $-1 $153 -73.698538163396108 $116 73.698538163396108 $109 $154 forward 7 unknown #
vertex $-1 $113 $155 #
vertex $-1 $66 $156 #
straight-curve $-1 73.698538163396108 -15.089494462447512 0.44193662188382987 0 1 0 I I #
edge $-1 $124 -21.513265638180926 $120 -8.6657232867140976 $108 $157 forward 7 unknown #
coedge $-1 $68 $109 $146 $158 reversed $33 $-1 #
vertex $-1 $118 $159 #
straight-curve $-1 0 -23.755217749161609 5.1991769424828647 -1 0 0 I I #
coedge $-1 $112 $70 $147 $160 forward $106 $-1 #
coedge $-1 $70 $112 $72 $126 reversed $106 $-1 #
vertex $-1 $160 $161 #
straight-curve $-1 0 -36.602760100628437 5.1991769424828647 -1 0 0 I I #
edge $-1 $76 -5.1991769424828647 $115 -0.44193662188382987 $72 $162 forward 7 unknown #
point $-1 73.698538163396108 -23.755217749161609 5.1991769424828647 #
point $-1 73.698538163396108 -36.602760100628437 5.1991769424828647 #
plane-surface $-1 73.698538163396108 0 0 -1 0 0 0 0 1 forward_v I I I I #
coedge $-1 $83 $81 $85 $134 reversed $41 $-1 #
edge $-1 $96 -10.091311813625207 $136 10.091311813625207 $95 $163 forward 7 unknown #
vertex $-1 $134 $164 #
straight-curve $-1 -73.698538163396108 -36.602760100628437 0 0 0 -1 I I #
edge $-1 $132 -36.602760100628437 $136 36.602760100628437 $130 $165 forward 7 unknown #
straight-curve $-1 0 -36.602760100628437 -10.091311813625207 -1 0 0 I I #
vertex $-1 $88 $166 #
straight-curve $-1 0 36.602760100628437 -10.091311813625207 1 0 0 I I #
point $-1 73.698538163396108 36.602760100628437 -10.091311813625207 #
point $-1 73.698538163396108 -36.602760100628437 -10.091311813625207 #
straight-curve $-1 -73.698538163396108 0 10.091311813625207 0 -1 0 I I #
point $-1 -73.698538163396108 36.602760100628437 10.091311813625207 #
point $-1 -73.698538163396108 -36.602760100628437 10.091311813625207 #
straight-curve $-1 73.698538163396108 -36.602760100628437 0 0 0 -1 I I #
straight-curve $-1 73.698538163396108 36.602760100628437 0 0 0 -1 I I #
plane-surface $-1 73.698538163396108 0 0 -1 0 0 0 0 1 forward_v I I I I #
coedge $-1 $149 $108 $119 $158 forward $60 $-1 #
coedge $-1 $108 $149 $122 $160 reversed $60 $-1 #
straight-curve $-1 73.698538163396108 -23.755217749161609 1.4102783910916736 0 0 1 I I #
coedge $-1 $147 $146 $111 $150 forward $60 $-1 #
edge $-1 $153 8.6657232867140976 $151 21.513265638180926 $149 $167 forward 7 unknown #
vertex $-1 $113 $168 #
straight-curve $-1 0 -36.602760100628437 0.44193662188382987 1 0 0 I I #
vertex $-1 $150 $169 #
straight-curve $-1 0 -23.755217749161609 0.44193662188382987 1 0 0 I I #
point $-1 73.698538163396108 -36.602760100628437 0.44193662188382987 #
point $-1 73.698538163396108 -23.755217749161609 0.44193662188382987 #
straight-curve $-1 -73.698538163396108 -15.089494462447512 5.1991769424828647 0 1 0 I I #
edge $-1 $120 -3.788898551391191 $153 0.96834176920784376 $146 $170 forward 7 unknown #
point $-1 -73.698538163396108 -23.755217749161609 5.1991769424828647 #
edge $-1 $124 -5.1991769424828647 $151 -0.44193662188382987 $147 $171 forward 7 unknown #
point $-1 -73.698538163396108 -36.602760100628437 5.1991769424828647 #
straight-curve $-1 73.698538163396108 -36.602760100628437 0 0 0 -1 I I #
straight-curve $-1 -73.698538163396108 36.602760100628437 0 0 0 -1 I I #
point $-1 -73.698538163396108 -36.602760100628437 -10.091311813625207 #
straight-curve $-1 -73.698538163396108 0 -10.091311813625207 0 1 0 I I #
point $-1 -73.698538163396108 36.602760100628437 -10.091311813625207 #
straight-curve $-1 -73.698538163396108 -15.089494462447512 0.44193662188382987 0 -1 0 I I #
point $-1 -73.698538163396108 -36.602760100628437 0.44193662188382987 #
point $-1 -73.698538163396108 -23.755217749161609 0.44193662188382987 #
straight-curve $-1 -73.698538163396108 -23.755217749161609 1.4102783910916736 0 0 -1 I I #
straight-curve $-1 -73.698538163396108 -36.602760100628437 0 0 0 -1 I I #
End-of-ACIS-data 