500 0 19 0           
7 Unknown 11 ACIS 5.0 NT 24 Fri Mar 26 18:27:19 1999 
-1 9.9999999999999995e-007 1e-010 
body $-1 $19 $-1 $20 #
body $-1 $21 $-1 $22 #
body $-1 $23 $-1 $24 #
body $-1 $25 $-1 $26 #
body $-1 $27 $-1 $28 #
body $-1 $29 $-1 $30 #
body $-1 $31 $-1 $32 #
body $-1 $33 $-1 $34 #
body $-1 $35 $-1 $36 #
body $-1 $37 $-1 $38 #
body $-1 $39 $-1 $40 #
body $-1 $41 $-1 $42 #
body $-1 $43 $-1 $44 #
body $-1 $45 $-1 $46 #
body $-1 $47 $-1 $48 #
body $-1 $49 $-1 $50 #
body $-1 $51 $-1 $52 #
body $-1 $53 $-1 $54 #
body $-1 $55 $-1 $56 #
lump $-1 $-1 $57 $0 #
transform $-1 1 0 0 0 1 0 0 0 1 49.361857966856903 22.572953036499442 10.024355870702779 1 rotate no_reflect no_shear #
lump $-1 $-1 $58 $1 #
transform $-1 1 0 0 0 1 0 0 0 1 49.361857966856903 22.572953036499442 10.024355870702779 1 rotate no_reflect no_shear #
lump $-1 $-1 $59 $2 #
transform $-1 1 0 0 0 1 0 0 0 1 49.361857966856903 22.572953036499442 10.024355870702779 1 rotate no_reflect no_shear #
lump $-1 $-1 $60 $3 #
transform $-1 1 0 0 0 1 0 0 0 1 49.361857966856903 22.572953036499442 10.024355870702779 1 rotate no_reflect no_shear #
lump $-1 $-1 $61 $4 #
transform $-1 1 0 0 0 1 0 0 0 1 49.361857966856903 22.572953036499442 10.024355870702779 1 rotate no_reflect no_shear #
lump $-1 $-1 $62 $5 #
transform $-1 1 0 0 0 1 0 0 0 1 49.361857966856903 22.572953036499442 10.024355870702779 1 rotate no_reflect no_shear #
lump $-1 $-1 $63 $6 #
transform $-1 1 0 0 0 1 0 0 0 1 49.361857966856903 22.572953036499442 10.024355870702779 1 rotate no_reflect no_shear #
lump $-1 $-1 $64 $7 #
transform $-1 1 0 0 0 1 0 0 0 1 49.361857966856903 22.572953036499442 10.024355870702779 1 rotate no_reflect no_shear #
lump $-1 $-1 $65 $8 #
transform $-1 1 0 0 0 1 0 0 0 1 49.361857966856903 22.572953036499442 10.024355870702779 1 rotate no_reflect no_shear #
lump $-1 $-1 $66 $9 #
transform $-1 1 0 0 0 1 0 0 0 1 49.361857966856903 22.572953036499442 10.024355870702779 1 rotate no_reflect no_shear #
lump $-1 $-1 $67 $10 #
transform $-1 1 0 0 0 1 0 0 0 1 49.361857966856903 22.572953036499442 10.024355870702779 1 rotate no_reflect no_shear #
lump $-1 $-1 $68 $11 #
transform $-1 1 0 0 0 1 0 0 0 1 49.361857966856903 22.572953036499442 10.024355870702779 1 rotate no_reflect no_shear #
lump $-1 $-1 $69 $12 #
transform $-1 1 0 0 0 1 0 0 0 1 49.361857966856903 22.572953036499442 10.024355870702779 1 rotate no_reflect no_shear #
lump $-1 $-1 $70 $13 #
transform $-1 1 0 0 0 1 0 0 0 1 49.361857966856903 22.572953036499442 10.024355870702779 1 rotate no_reflect no_shear #
lump $-1 $-1 $71 $14 #
transform $-1 1 0 0 0 1 0 0 0 1 49.361857966856903 22.572953036499442 10.024355870702779 1 rotate no_reflect no_shear #
lump $-1 $-1 $72 $15 #
transform $-1 1 0 0 0 1 0 0 0 1 49.361857966856903 22.572953036499442 10.024355870702779 1 rotate no_reflect no_shear #
lump $-1 $-1 $73 $16 #
transform $-1 1 0 0 0 1 0 0 0 1 49.361857966856903 22.572953036499442 10.024355870702779 1 rotate no_reflect no_shear #
lump $-1 $-1 $74 $17 #
transform $-1 1 0 0 0 1 0 0 0 1 49.361857966856903 22.572953036499442 10.024355870702779 1 rotate no_reflect no_shear #
lump $-1 $-1 $75 $18 #
transform $-1 1 0 0 0 1 0 0 0 1 49.361857966856903 22.572953036499442 10.024355870702779 1 rotate no_reflect no_shear #
shell $-1 $-1 $-1 $76 $-1 $19 #
shell $-1 $-1 $-1 $77 $-1 $21 #
shell $-1 $-1 $-1 $78 $-1 $23 #
shell $-1 $-1 $-1 $79 $-1 $25 #
shell $-1 $-1 $-1 $80 $-1 $27 #
shell $-1 $-1 $-1 $81 $-1 $29 #
shell $-1 $-1 $-1 $82 $-1 $31 #
shell $-1 $-1 $-1 $83 $-1 $33 #
shell $-1 $-1 $-1 $84 $-1 $35 #
shell $-1 $-1 $-1 $85 $-1 $37 #
shell $-1 $-1 $-1 $86 $-1 $39 #
shell $-1 $-1 $-1 $87 $-1 $41 #
shell $-1 $-1 $-1 $88 $-1 $43 #
shell $-1 $-1 $-1 $89 $-1 $45 #
shell $-1 $-1 $-1 $90 $-1 $47 #
shell $-1 $-1 $-1 $91 $-1 $49 #
shell $-1 $-1 $-1 $92 $-1 $51 #
shell $-1 $-1 $-1 $93 $-1 $53 #
shell $-1 $-1 $-1 $94 $-1 $55 #
face $-1 $95 $96 $57 $-1 $97 forward single #
face $-1 $98 $99 $58 $-1 $100 reversed single #
face $-1 $101 $102 $59 $-1 $103 reversed single #
face $-1 $104 $105 $60 $-1 $106 forward single #
face $-1 $107 $108 $61 $-1 $109 forward single #
face $-1 $110 $111 $62 $-1 $112 reversed single #
face $-1 $113 $114 $63 $-1 $115 forward single #
face $-1 $116 $117 $64 $-1 $118 forward single #
face $-1 $119 $120 $65 $-1 $121 reversed single #
face $-1 $122 $123 $66 $-1 $124 forward single #
face $-1 $125 $126 $67 $-1 $127 forward single #
face $-1 $128 $129 $68 $-1 $130 reversed single #
face $-1 $131 $132 $69 $-1 $133 forward single #
face $-1 $134 $135 $70 $-1 $136 forward single #
face $-1 $137 $138 $71 $-1 $139 forward single #
face $-1 $140 $141 $72 $-1 $142 reversed single #
face $-1 $143 $144 $73 $-1 $145 forward single #
face $-1 $146 $147 $74 $-1 $148 forward single #
face $-1 $149 $150 $75 $-1 $151 forward single #
face $-1 $152 $153 $57 $-1 $154 reversed single #
loop $-1 $-1 $155 $76 #
plane-surface $-1 0 0 10.024355870702779 0 0 1 1 0 0 forward_v I I I I #
face $-1 $156 $157 $58 $-1 $158 reversed single #
loop $-1 $-1 $159 $77 #
plane-surface $-1 -33.054824733619341 -16.18705868971783 0 1 0 0 0 0 -1 forward_v I I I I #
face $-1 $160 $161 $59 $-1 $162 reversed single #
loop $-1 $-1 $163 $78 #
plane-surface $-1 -117.94111440868275 -9.8011643429362181 73.402939251278525 0 1 0 -0.69465837861970381 0 0.71933979245794832 forward_v I I I I #
face $-1 $164 $165 $60 $-1 $166 forward single #
loop $-1 $167 $168 $79 #
cone-surface $-1 -44.839619053664421 -7.8976136117762046 5.6176171562069523 0.69465837861970381 0 -0.71933979245794832 0.35966989622897416 0 0.3473291893098519 1 I I 0 1 0.5 forward I I I I #
face $-1 $169 $170 $61 $-1 $171 forward single #
loop $-1 $172 $173 $80 #
cone-surface $-1 -44.839619053664421 -5.0422875150361861 5.6176171562069523 0.69465837861970381 0 -0.71933979245794832 0.35966989622897416 0 0.3473291893098519 1 I I 0 1 0.5 forward I I I I #
face $-1 $174 $175 $62 $-1 $176 reversed single #
loop $-1 $-1 $177 $81 #
plane-surface $-1 -117.94111440868275 3.0546805672515918 73.402939251278525 0 1 0 -0.69465837861970381 0 0.71933979245794832 forward_v I I I I #
face $-1 $178 $179 $63 $-1 $180 forward single #
loop $-1 $181 $182 $82 #
cone-surface $-1 -44.839619053664421 4.9582312984116044 5.6176171562069523 0.69465837861970381 0 -0.71933979245794832 0.35966989622897416 0 0.3473291893098519 1 I I 0 1 0.5 forward I I I I #
face $-1 $183 $184 $64 $-1 $185 forward single #
loop $-1 $186 $187 $83 #
cone-surface $-1 -44.839619053664421 7.8135573951516228 5.6176171562069523 0.69465837861970381 0 -0.71933979245794832 0.35966989622897416 0 0.3473291893098519 1 I I 0 1 0.5 forward I I I I #
face $-1 $188 $189 $65 $-1 $190 reversed single #
loop $-1 $-1 $191 $84 #
plane-surface $-1 -117.94111440868275 15.910525477439403 73.402939251278525 0 1 0 -0.69465837861970381 0 0.71933979245794832 forward_v I I I I #
face $-1 $192 $193 $66 $-1 $194 forward single #
loop $-1 $195 $196 $85 #
cone-surface $-1 -44.839619053664421 17.814076208599417 5.6176171562069523 0.69465837861970381 0 -0.71933979245794832 0.35966989622897416 0 0.3473291893098519 1 I I 0 1 0.5 forward I I I I #
face $-1 $197 $198 $67 $-1 $199 forward single #
loop $-1 $200 $201 $86 #
cone-surface $-1 -44.839619053664421 20.669402305339432 5.6176171562069523 0.69465837861970381 0 -0.71933979245794832 0.35966989622897416 0 0.3473291893098519 1 I I 0 1 0.5 forward I I I I #
face $-1 $202 $203 $68 $-1 $204 reversed single #
loop $-1 $-1 $205 $87 #
plane-surface $-1 25.1177226493284 -3.2376422377189042 138.27714897556072 0 -1 0 -0.57357644374324357 0 -0.81915203911291934 forward_v I I I I #
face $-1 $206 $207 $69 $-1 $208 forward single #
loop $-1 $209 $210 $88 #
cone-surface $-1 42.325631732320801 -8.4884599218927548 4.7798855843638188 -0.57357644374324357 0 -0.81915203911291934 0.40957601955645967 0 -0.28678822187162178 1 I I 0 1 0.5 forward I I I I #
face $-1 $211 $212 $70 $-1 $213 forward single #
loop $-1 $214 $215 $89 #
cone-surface $-1 42.325631732320801 -6.5194032903275598 4.7798855843638188 -0.57357644374324357 0 -0.81915203911291934 0.40957601955645967 0 -0.28678822187162178 1 I I 0 1 0.5 forward I I I I #
face $-1 $216 $217 $71 $-1 $218 forward single #
loop $-1 $219 $220 $90 #
cone-surface $-1 42.325631732320801 -4.5503466587623649 4.7798855843638188 -0.57357644374324357 0 -0.81915203911291934 0.40957601955645967 0 -0.28678822187162178 1 I I 0 1 0.5 forward I I I I #
face $-1 $221 $222 $72 $-1 $223 reversed single #
loop $-1 $-1 $224 $91 #
plane-surface $-1 25.1177226493284 12.949416451998925 138.27714897556072 0 -1 0 -0.57357644374324357 0 -0.81915203911291934 forward_v I I I I #
face $-1 $225 $226 $73 $-1 $227 forward single #
loop $-1 $228 $229 $92 #
cone-surface $-1 42.325631732320801 7.6985987678250751 4.7798855843638188 -0.57357644374324357 0 -0.81915203911291934 0.40957601955645967 0 -0.28678822187162178 1 I I 0 1 0.5 forward I I I I #
face $-1 $230 $231 $74 $-1 $232 forward single #
loop $-1 $233 $234 $93 #
cone-surface $-1 42.325631732320801 9.6676553993902701 4.7798855843638188 -0.57357644374324357 0 -0.81915203911291934 0.40957601955645967 0 -0.28678822187162178 1 I I 0 1 0.5 forward I I I I #
face $-1 $235 $236 $75 $-1 $237 forward single #
loop $-1 $238 $239 $94 #
cone-surface $-1 42.325631732320801 11.636712030955465 4.7798855843638188 -0.57357644374324357 0 -0.81915203911291934 0.40957601955645967 0 -0.28678822187162178 1 I I 0 1 0.5 forward I I I I #
face $-1 $240 $241 $57 $-1 $242 reversed single #
loop $-1 $-1 $243 $95 #
plane-surface $-1 0 0 -10.024355870702779 0 0 1 1 0 0 forward_v I I I I #
coedge $-1 $244 $245 $246 $247 forward $96 $-1 #
face $-1 $248 $249 $58 $-1 $250 reversed single #
loop $-1 $-1 $251 $98 #
plane-surface $-1 -31.433985479535345 -9.8011643429362181 0 0 -1 0 0 0 -1 forward_v I I I I #
coedge $-1 $252 $253 $254 $255 forward $99 $-1 #
face $-1 $256 $257 $59 $-1 $258 reversed single #
loop $-1 $-1 $259 $101 #
plane-surface $-1 -49.361857966856903 -6.4699505634061971 2.3870419208433873 -0.69465837861970381 0 0.71933979245794832 0.71933979245794832 0 0.69465837861970381 forward_v I I I I #
coedge $-1 $260 $261 $262 $263 reversed $102 $-1 #
face $-1 $-1 $264 $60 $-1 $265 forward single #
loop $-1 $266 $267 $104 #
cone-surface $-1 -44.098050511548188 -7.8976136117762046 4.849700468526331 0.69465837861970381 0 -0.71933979245794832 0.17983494811448708 0 0.17366459465492595 1 I I -0.70710678118654746 0.70710678118654746 0.25 forward I I I I #
loop $-1 $-1 $268 $79 #
coedge $-1 $168 $168 $269 $270 reversed $105 $-1 #
face $-1 $-1 $271 $61 $-1 $272 forward single #
loop $-1 $273 $274 $107 #
cone-surface $-1 -44.098050511548188 -5.0422875150361861 4.849700468526331 0.69465837861970381 0 -0.71933979245794832 0.17983494811448708 0 0.17366459465492595 1 I I -0.70710678118654746 0.70710678118654746 0.25 forward I I I I #
loop $-1 $-1 $275 $80 #
coedge $-1 $173 $173 $276 $277 reversed $108 $-1 #
face $-1 $278 $279 $62 $-1 $280 reversed single #
loop $-1 $-1 $281 $110 #
plane-surface $-1 -49.361857966856903 6.3858943467816118 2.3870419208433873 -0.69465837861970381 0 0.71933979245794832 0.71933979245794832 0 0.69465837861970381 forward_v I I I I #
coedge $-1 $282 $283 $284 $285 reversed $111 $-1 #
face $-1 $-1 $286 $63 $-1 $287 forward single #
loop $-1 $288 $289 $113 #
cone-surface $-1 -44.098050511548188 4.9582312984116044 4.849700468526331 0.69465837861970381 0 -0.71933979245794832 0.17983494811448708 0 0.17366459465492595 1 I I -0.70710678118654746 0.70710678118654746 0.25 forward I I I I #
loop $-1 $-1 $290 $82 #
coedge $-1 $182 $182 $291 $292 reversed $114 $-1 #
face $-1 $-1 $293 $64 $-1 $294 forward single #
loop $-1 $295 $296 $116 #
cone-surface $-1 -44.098050511548188 7.8135573951516228 4.849700468526331 0.69465837861970381 0 -0.71933979245794832 0.17983494811448708 0 0.17366459465492595 1 I I -0.70710678118654746 0.70710678118654746 0.25 forward I I I I #
loop $-1 $-1 $297 $83 #
coedge $-1 $187 $187 $298 $299 reversed $117 $-1 #
face $-1 $300 $301 $65 $-1 $302 forward single #
loop $-1 $-1 $303 $119 #
plane-surface $-1 -49.361857966856903 19.241739256969424 2.3870419208433873 -0.69465837861970381 0 0.71933979245794832 0.71933979245794832 0 0.69465837861970381 forward_v I I I I #
coedge $-1 $304 $305 $306 $307 reversed $120 $-1 #
face $-1 $-1 $308 $66 $-1 $309 forward single #
loop $-1 $310 $311 $122 #
cone-surface $-1 -44.098050511548188 17.814076208599417 4.849700468526331 0.69465837861970381 0 -0.71933979245794832 0.17983494811448708 0 0.17366459465492595 1 I I -0.70710678118654746 0.70710678118654746 0.25 forward I I I I #
loop $-1 $-1 $312 $85 #
coedge $-1 $196 $196 $313 $314 reversed $123 $-1 #
face $-1 $-1 $315 $67 $-1 $316 forward single #
loop $-1 $317 $318 $125 #
cone-surface $-1 -44.098050511548188 20.669402305339432 4.849700468526331 0.69465837861970381 0 -0.71933979245794832 0.17983494811448708 0 0.17366459465492595 1 I I -0.70710678118654746 0.70710678118654746 0.25 forward I I I I #
loop $-1 $-1 $319 $86 #
coedge $-1 $201 $201 $320 $321 reversed $126 $-1 #
face $-1 $322 $323 $68 $-1 $324 reversed single #
loop $-1 $-1 $325 $128 #
plane-surface $-1 -31.507875249049356 -6.5194032903275598 57.407415759654455 0.57357644374324357 0 0.81915203911291934 0.81915203911291934 0 -0.57357644374324357 forward_v I I I I #
coedge $-1 $326 $327 $328 $329 reversed $129 $-1 #
face $-1 $-1 $330 $69 $-1 $331 forward single #
loop $-1 $332 $333 $131 #
cone-surface $-1 41.745867377787334 -8.4884599218927548 3.9518962929596793 -0.57357644374324357 0 -0.81915203911291934 0.20478800977822983 0 -0.14339411093581089 1 I I -0.70710678118654746 0.70710678118654746 0.25 forward I I I I #
loop $-1 $-1 $334 $88 #
coedge $-1 $210 $210 $335 $336 reversed $132 $-1 #
face $-1 $-1 $337 $70 $-1 $338 forward single #
loop $-1 $339 $340 $134 #
cone-surface $-1 41.745867377787334 -6.5194032903275598 3.9518962929596793 -0.57357644374324357 0 -0.81915203911291934 0.20478800977822983 0 -0.14339411093581089 1 I I -0.70710678118654746 0.70710678118654746 0.25 forward I I I I #
loop $-1 $-1 $341 $89 #
coedge $-1 $215 $215 $342 $343 reversed $135 $-1 #
face $-1 $-1 $344 $71 $-1 $345 forward single #
loop $-1 $346 $347 $137 #
cone-surface $-1 41.745867377787334 -4.5503466587623649 3.9518962929596793 -0.57357644374324357 0 -0.81915203911291934 0.20478800977822983 0 -0.14339411093581089 1 I I -0.70710678118654746 0.70710678118654746 0.25 forward I I I I #
loop $-1 $-1 $348 $90 #
coedge $-1 $220 $220 $349 $350 reversed $138 $-1 #
face $-1 $351 $352 $72 $-1 $353 reversed single #
loop $-1 $-1 $354 $140 #
plane-surface $-1 -31.507875249049356 9.6676553993902701 57.407415759654455 0.57357644374324357 0 0.81915203911291934 0.81915203911291934 0 -0.57357644374324357 forward_v I I I I #
coedge $-1 $355 $356 $357 $358 reversed $141 $-1 #
face $-1 $-1 $359 $73 $-1 $360 forward single #
loop $-1 $361 $362 $143 #
cone-surface $-1 41.745867377787334 7.6985987678250751 3.9518962929596793 -0.57357644374324357 0 -0.81915203911291934 0.20478800977822983 0 -0.14339411093581089 1 I I -0.70710678118654746 0.70710678118654746 0.25 forward I I I I #
loop $-1 $-1 $363 $92 #
coedge $-1 $229 $229 $364 $365 reversed $144 $-1 #
face $-1 $-1 $366 $74 $-1 $367 forward single #
loop $-1 $368 $369 $146 #
cone-surface $-1 41.745867377787334 9.6676553993902701 3.9518962929596793 -0.57357644374324357 0 -0.81915203911291934 0.20478800977822983 0 -0.14339411093581089 1 I I -0.70710678118654746 0.70710678118654746 0.25 forward I I I I #
loop $-1 $-1 $370 $93 #
coedge $-1 $234 $234 $371 $372 reversed $147 $-1 #
face $-1 $-1 $373 $75 $-1 $374 forward single #
loop $-1 $375 $376 $149 #
cone-surface $-1 41.745867377787334 11.636712030955465 3.9518962929596793 -0.57357644374324357 0 -0.81915203911291934 0.20478800977822983 0 -0.14339411093581089 1 I I -0.70710678118654746 0.70710678118654746 0.25 forward I I I I #
loop $-1 $-1 $377 $94 #
coedge $-1 $239 $239 $378 $379 reversed $150 $-1 #
face $-1 $380 $381 $57 $-1 $382 reversed single #
loop $-1 $-1 $383 $152 #
plane-surface $-1 0 -22.572953036499442 0 0 1 0 0 0 1 forward_v I I I I #
coedge $-1 $384 $385 $386 $387 forward $153 $-1 #
coedge $-1 $388 $155 $389 $390 forward $96 $-1 #
coedge $-1 $155 $388 $391 $392 forward $96 $-1 #
coedge $-1 $393 $394 $155 $247 reversed $395 $-1 #
edge $-1 $396 -22.572953036499442 $397 22.572953036499442 $246 $398 forward 7 unknown #
face $-1 $399 $400 $58 $-1 $401 forward single #
loop $-1 $-1 $402 $156 #
plane-surface $-1 -29.813146225451348 -16.18705868971783 0 -1 0 0 0 0 1 forward_v I I I I #
coedge $-1 $403 $404 $405 $406 forward $157 $-1 #
coedge $-1 $407 $159 $408 $409 reversed $99 $-1 #
coedge $-1 $159 $407 $410 $411 reversed $99 $-1 #
coedge $-1 $404 $403 $159 $255 reversed $157 $-1 #
edge $-1 $412 -10.024355870702779 $413 10.024355870702779 $254 $414 forward 7 unknown #
face $-1 $415 $416 $59 $-1 $417 reversed single #
loop $-1 $-1 $418 $160 #
plane-surface $-1 -117.94111440868275 -3.138736783876177 73.402939251278525 0 -1 0 0.69465837861970381 0 -0.71933979245794832 forward_v I I I I #
coedge $-1 $419 $420 $421 $422 reversed $161 $-1 #
coedge $-1 $261 $163 $423 $424 reversed $102 $-1 #
coedge $-1 $163 $260 $419 $425 reversed $102 $-1 #
coedge $-1 $421 $426 $163 $263 forward $427 $-1 #
edge $-1 $428 9.6086992374844726 $429 17.517369168946836 $262 $430 forward 7 unknown #
loop $-1 $-1 $269 $164 #
plane-surface $-1 -49.361857966856903 -6.4699505634061971 2.3870419208433873 -0.69465837861970381 0 0.71933979245794832 0.71933979245794832 0 0.69465837861970381 forward_v I I I I #
loop $-1 $-1 $431 $104 #
coedge $-1 $267 $267 $268 $432 reversed $165 $-1 #
coedge $-1 $268 $268 $267 $432 forward $167 $-1 #
coedge $-1 $269 $269 $168 $270 forward $264 $-1 #
edge $-1 $433 0 $433 6.2831853071796004 $269 $434 forward 7 unknown #
loop $-1 $-1 $276 $169 #
plane-surface $-1 -49.361857966856903 -6.4699505634061971 2.3870419208433873 -0.69465837861970381 0 0.71933979245794832 0.71933979245794832 0 0.69465837861970381 forward_v I I I I #
loop $-1 $-1 $435 $107 #
coedge $-1 $274 $274 $275 $436 reversed $170 $-1 #
coedge $-1 $275 $275 $274 $436 forward $172 $-1 #
coedge $-1 $276 $276 $173 $277 forward $271 $-1 #
edge $-1 $437 0 $437 6.2831853071796004 $276 $438 forward 7 unknown #
face $-1 $439 $440 $62 $-1 $441 forward single #
loop $-1 $-1 $442 $174 #
plane-surface $-1 -117.94111440868275 9.7171081263116328 73.402939251278525 0 -1 0 0.69465837861970381 0 -0.71933979245794832 forward_v I I I I #
coedge $-1 $443 $444 $445 $446 reversed $175 $-1 #
coedge $-1 $283 $177 $447 $448 reversed $111 $-1 #
coedge $-1 $177 $282 $443 $449 reversed $111 $-1 #
coedge $-1 $445 $450 $177 $285 forward $440 $-1 #
edge $-1 $451 9.6086992374844726 $452 17.517369168946836 $284 $453 forward 7 unknown #
loop $-1 $-1 $291 $178 #
plane-surface $-1 -49.361857966856903 6.3858943467816118 2.3870419208433873 -0.69465837861970381 0 0.71933979245794832 0.71933979245794832 0 0.69465837861970381 forward_v I I I I #
loop $-1 $-1 $454 $113 #
coedge $-1 $289 $289 $290 $455 reversed $179 $-1 #
coedge $-1 $290 $290 $289 $455 forward $181 $-1 #
coedge $-1 $291 $291 $182 $292 forward $286 $-1 #
edge $-1 $456 0 $456 6.2831853071796004 $291 $457 forward 7 unknown #
loop $-1 $-1 $298 $183 #
plane-surface $-1 -49.361857966856903 6.3858943467816118 2.3870419208433873 -0.69465837861970381 0 0.71933979245794832 0.71933979245794832 0 0.69465837861970381 forward_v I I I I #
loop $-1 $-1 $458 $116 #
coedge $-1 $296 $296 $297 $459 reversed $184 $-1 #
coedge $-1 $297 $297 $296 $459 forward $186 $-1 #
coedge $-1 $298 $298 $187 $299 forward $293 $-1 #
edge $-1 $460 0 $460 6.2831853071796004 $298 $461 forward 7 unknown #
face $-1 $462 $463 $65 $-1 $464 reversed single #
loop $-1 $-1 $306 $188 #
plane-surface $-1 0 0 10.024355870702779 0 0 1 1 0 0 forward_v I I I I #
coedge $-1 $465 $466 $467 $468 reversed $189 $-1 #
coedge $-1 $305 $191 $469 $470 reversed $120 $-1 #
coedge $-1 $191 $304 $465 $471 reversed $120 $-1 #
coedge $-1 $467 $472 $191 $307 forward $301 $-1 #
edge $-1 $473 9.6086992374844726 $474 17.517369168946836 $306 $475 forward 7 unknown #
loop $-1 $-1 $313 $192 #
plane-surface $-1 -49.361857966856903 19.241739256969424 2.3870419208433873 -0.69465837861970381 0 0.71933979245794832 0.71933979245794832 0 0.69465837861970381 forward_v I I I I #
loop $-1 $-1 $476 $122 #
coedge $-1 $311 $311 $312 $477 reversed $193 $-1 #
coedge $-1 $312 $312 $311 $477 forward $195 $-1 #
coedge $-1 $313 $313 $196 $314 forward $308 $-1 #
edge $-1 $478 0 $478 6.2831853071796004 $313 $479 forward 7 unknown #
loop $-1 $-1 $320 $197 #
plane-surface $-1 -49.361857966856903 19.241739256969424 2.3870419208433873 -0.69465837861970381 0 0.71933979245794832 0.71933979245794832 0 0.69465837861970381 forward_v I I I I #
loop $-1 $-1 $480 $125 #
coedge $-1 $318 $318 $319 $481 reversed $198 $-1 #
coedge $-1 $319 $319 $318 $481 forward $200 $-1 #
coedge $-1 $320 $320 $201 $321 forward $315 $-1 #
edge $-1 $482 0 $482 6.2831853071796004 $320 $483 forward 7 unknown #
face $-1 $484 $485 $68 $-1 $486 reversed single #
loop $-1 $-1 $487 $202 #
plane-surface $-1 25.1177226493284 -9.8011643429362145 138.27714897556072 0 1 0 0.57357644374324357 0 0.81915203911291934 forward_v I I I I #
coedge $-1 $488 $489 $490 $491 reversed $203 $-1 #
coedge $-1 $327 $205 $492 $493 reversed $129 $-1 #
coedge $-1 $205 $326 $488 $494 reversed $129 $-1 #
coedge $-1 $490 $495 $205 $329 forward $496 $-1 #
edge $-1 $497 -36.802996642192703 $498 -23.603284660315822 $328 $499 forward 7 unknown #
loop $-1 $-1 $335 $206 #
plane-surface $-1 -31.507875249049356 -6.5194032903275598 57.407415759654455 0.57357644374324357 0 0.81915203911291934 0.81915203911291934 0 -0.57357644374324357 forward_v I I I I #
loop $-1 $-1 $500 $131 #
coedge $-1 $333 $333 $334 $501 reversed $207 $-1 #
coedge $-1 $334 $334 $333 $501 forward $209 $-1 #
coedge $-1 $335 $335 $210 $336 forward $330 $-1 #
edge $-1 $502 0 $502 6.2831853071796004 $335 $503 forward 7 unknown #
loop $-1 $-1 $342 $211 #
plane-surface $-1 -31.507875249049356 -6.5194032903275598 57.407415759654455 0.57357644374324357 0 0.81915203911291934 0.81915203911291934 0 -0.57357644374324357 forward_v I I I I #
loop $-1 $-1 $504 $134 #
coedge $-1 $340 $340 $341 $505 reversed $212 $-1 #
coedge $-1 $341 $341 $340 $505 forward $214 $-1 #
coedge $-1 $342 $342 $215 $343 forward $337 $-1 #
edge $-1 $506 0 $506 6.2831853071796004 $342 $507 forward 7 unknown #
loop $-1 $-1 $349 $216 #
plane-surface $-1 -31.507875249049356 -6.5194032903275598 57.407415759654455 0.57357644374324357 0 0.81915203911291934 0.81915203911291934 0 -0.57357644374324357 forward_v I I I I #
loop $-1 $-1 $508 $137 #
coedge $-1 $347 $347 $348 $509 reversed $217 $-1 #
coedge $-1 $348 $348 $347 $509 forward $219 $-1 #
coedge $-1 $349 $349 $220 $350 forward $344 $-1 #
edge $-1 $510 0 $510 6.2831853071796004 $349 $511 forward 7 unknown #
face $-1 $512 $513 $72 $-1 $514 reversed single #
loop $-1 $-1 $515 $221 #
plane-surface $-1 25.1177226493284 6.3858943467816145 138.27714897556072 0 1 0 0.57357644374324357 0 0.81915203911291934 forward_v I I I I #
coedge $-1 $516 $517 $518 $519 reversed $222 $-1 #
coedge $-1 $356 $224 $520 $521 reversed $141 $-1 #
coedge $-1 $224 $355 $516 $522 reversed $141 $-1 #
coedge $-1 $518 $523 $224 $358 forward $524 $-1 #
edge $-1 $525 -36.802996642192703 $526 -23.603284660315822 $357 $527 forward 7 unknown #
loop $-1 $-1 $364 $225 #
plane-surface $-1 -31.507875249049356 9.6676553993902701 57.407415759654455 0.57357644374324357 0 0.81915203911291934 0.81915203911291934 0 -0.57357644374324357 forward_v I I I I #
loop $-1 $-1 $528 $143 #
coedge $-1 $362 $362 $363 $529 reversed $226 $-1 #
coedge $-1 $363 $363 $362 $529 forward $228 $-1 #
coedge $-1 $364 $364 $229 $365 forward $359 $-1 #
edge $-1 $530 0 $530 6.2831853071796004 $364 $531 forward 7 unknown #
loop $-1 $-1 $371 $230 #
plane-surface $-1 -31.507875249049356 9.6676553993902701 57.407415759654455 0.57357644374324357 0 0.81915203911291934 0.81915203911291934 0 -0.57357644374324357 forward_v I I I I #
loop $-1 $-1 $532 $146 #
coedge $-1 $369 $369 $370 $533 reversed $231 $-1 #
coedge $-1 $370 $370 $369 $533 forward $233 $-1 #
coedge $-1 $371 $371 $234 $372 forward $366 $-1 #
edge $-1 $534 0 $534 6.2831853071796004 $371 $535 forward 7 unknown #
loop $-1 $-1 $378 $235 #
plane-surface $-1 -31.507875249049356 9.6676553993902701 57.407415759654455 0.57357644374324357 0 0.81915203911291934 0.81915203911291934 0 -0.57357644374324357 forward_v I I I I #
loop $-1 $-1 $536 $149 #
coedge $-1 $376 $376 $377 $537 reversed $236 $-1 #
coedge $-1 $377 $377 $376 $537 forward $238 $-1 #
coedge $-1 $378 $378 $239 $379 forward $373 $-1 #
edge $-1 $538 0 $538 6.2831853071796004 $378 $539 forward 7 unknown #
face $-1 $540 $541 $57 $-1 $542 reversed single #
loop $-1 $-1 $543 $240 #
plane-surface $-1 -49.361857966856903 0 0 1 0 0 0 0 -1 forward_v I I I I #
coedge $-1 $544 $391 $545 $546 forward $241 $-1 #
coedge $-1 $547 $243 $544 $548 forward $153 $-1 #
coedge $-1 $243 $547 $549 $550 forward $153 $-1 #
coedge $-1 $394 $393 $243 $387 reversed $395 $-1 #
edge $-1 $551 -22.572953036499442 $552 22.572953036499442 $386 $553 forward 7 unknown #
coedge $-1 $245 $244 $554 $555 forward $96 $-1 #
coedge $-1 $556 $557 $244 $390 reversed $541 $-1 #
edge $-1 $397 -49.361857966856903 $558 49.361857966856903 $389 $559 forward 7 unknown #
coedge $-1 $383 $560 $245 $392 reversed $241 $-1 #
edge $-1 $561 -49.361857966856903 $396 49.361857966856903 $391 $562 forward 7 unknown #
coedge $-1 $386 $246 $560 $563 forward $395 $-1 #
coedge $-1 $246 $386 $556 $564 reversed $395 $-1 #
loop $-1 $-1 $393 $540 #
vertex $-1 $247 $565 #
vertex $-1 $247 $566 #
straight-curve $-1 49.361857966856903 0 10.024355870702779 0 1 0 I I #
face $-1 $567 $568 $58 $-1 $569 reversed single #
loop $-1 $-1 $570 $248 #
plane-surface $-1 0 0 10.024355870702779 0 0 1 1 0 0 forward_v I I I I #
coedge $-1 $571 $572 $573 $574 reversed $249 $-1 #
coedge $-1 $254 $251 $575 $576 reversed $157 $-1 #
coedge $-1 $251 $254 $577 $578 reversed $157 $-1 #
coedge $-1 $572 $571 $251 $406 reversed $249 $-1 #
edge $-1 $579 -10.024355870702779 $580 10.024355870702779 $405 $581 forward 7 unknown #
coedge $-1 $253 $252 $582 $583 reversed $99 $-1 #
coedge $-1 $575 $584 $252 $409 forward $568 $-1 #
edge $-1 $585 -14.479423691640527 $413 -1.7076349980773031 $408 $586 forward 7 unknown #
coedge $-1 $587 $577 $253 $411 forward $400 $-1 #
edge $-1 $412 1.7076349980773031 $588 14.479423691640527 $410 $589 forward 7 unknown #
vertex $-1 $411 $590 #
vertex $-1 $409 $591 #
straight-curve $-1 -33.054824733619341 -9.8011643429362181 0 0 0 -1 I I #
face $-1 $-1 $427 $59 $-1 $592 forward single #
loop $-1 $-1 $593 $256 #
plane-surface $-1 -49.361857966856903 0 0 1 0 0 0 0 -1 forward_v I I I I #
coedge $-1 $594 $595 $596 $597 reversed $257 $-1 #
coedge $-1 $598 $259 $261 $425 forward $161 $-1 #
coedge $-1 $259 $598 $594 $599 forward $161 $-1 #
coedge $-1 $596 $262 $259 $422 forward $427 $-1 #
edge $-1 $429 -6.5661890612331195 $600 0.09623849782692151 $421 $601 forward 7 unknown #
coedge $-1 $602 $603 $260 $424 forward $416 $-1 #
edge $-1 $604 -34.314427704795875 $428 -26.677113754936485 $423 $605 forward 7 unknown #
edge $-1 $429 -10.994345112535523 $604 0 $261 $606 forward 7 unknown #
coedge $-1 $262 $596 $602 $607 forward $427 $-1 #
loop $-1 $-1 $596 $415 #
vertex $-1 $424 $608 #
vertex $-1 $263 $609 #
straight-curve $-1 -58.970557204341375 -9.8011643429362181 10.024355870702777 1 0 0 I I #
coedge $-1 $431 $431 $-1 $610 reversed $266 $-1 #
edge $-1 $611 0 $611 6.2831853071796004 $267 $612 forward 7 unknown #
vertex $-1 $270 $613 #
ellipse-curve $-1 -45.407523001125725 -7.8976136117762046 6.2056988957730814 -0.69465837861970381 0 0.71933979245794832 0.35966989622897416 0 0.3473291893098519 1 I I #
coedge $-1 $435 $435 $-1 $614 reversed $273 $-1 #
edge $-1 $615 0 $615 6.2831853071796004 $274 $616 forward 7 unknown #
vertex $-1 $277 $617 #
ellipse-curve $-1 -45.407523001125725 -5.0422875150361861 6.2056988957730814 -0.69465837861970381 0 0.71933979245794832 0.35966989622897416 0 0.3473291893098519 1 I I #
face $-1 $-1 $618 $62 $-1 $619 reversed single #
loop $-1 $-1 $284 $278 #
plane-surface $-1 0 0 10.024355870702779 0 0 1 1 0 0 forward_v I I I I #
coedge $-1 $620 $621 $622 $623 reversed $279 $-1 #
coedge $-1 $624 $281 $283 $449 forward $175 $-1 #
coedge $-1 $281 $624 $620 $625 forward $175 $-1 #
coedge $-1 $622 $284 $281 $446 forward $440 $-1 #
edge $-1 $452 -0.13826660613921415 $626 6.5241609529208269 $445 $627 forward 7 unknown #
coedge $-1 $628 $629 $282 $448 forward $618 $-1 #
edge $-1 $630 -34.314427704795875 $451 -26.677113754936485 $447 $631 forward 7 unknown #
edge $-1 $452 -10.994345112535523 $630 0 $283 $632 forward 7 unknown #
coedge $-1 $284 $622 $628 $633 forward $440 $-1 #
vertex $-1 $448 $634 #
vertex $-1 $285 $635 #
straight-curve $-1 -58.970557204341375 3.0546805672515918 10.024355870702777 1 0 0 I I #
coedge $-1 $454 $454 $-1 $636 reversed $288 $-1 #
edge $-1 $637 0 $637 6.2831853071796004 $289 $638 forward 7 unknown #
vertex $-1 $292 $639 #
ellipse-curve $-1 -45.407523001125725 4.9582312984116044 6.2056988957730814 -0.69465837861970381 0 0.71933979245794832 0.35966989622897416 0 0.3473291893098519 1 I I #
coedge $-1 $458 $458 $-1 $640 reversed $295 $-1 #
edge $-1 $641 0 $641 6.2831853071796004 $296 $642 forward 7 unknown #
vertex $-1 $299 $643 #
ellipse-curve $-1 -45.407523001125725 7.8135573951516228 6.2056988957730814 -0.69465837861970381 0 0.71933979245794832 0.35966989622897416 0 0.3473291893098519 1 I I #
face $-1 $-1 $644 $65 $-1 $645 reversed single #
loop $-1 $-1 $646 $300 #
plane-surface $-1 0 22.572953036499442 0 0 -1 0 0 0 -1 forward_v I I I I #
coedge $-1 $647 $303 $305 $471 forward $189 $-1 #
coedge $-1 $303 $647 $646 $648 reversed $189 $-1 #
coedge $-1 $649 $306 $303 $468 forward $301 $-1 #
edge $-1 $474 6.2896558489546912 $650 12.952083408014733 $467 $651 forward 7 unknown #
coedge $-1 $652 $653 $304 $470 forward $644 $-1 #
edge $-1 $654 -34.314427704795875 $473 -26.677113754936485 $469 $655 forward 7 unknown #
edge $-1 $474 -10.994345112535523 $654 0 $305 $656 forward 7 unknown #
coedge $-1 $306 $649 $652 $657 forward $301 $-1 #
vertex $-1 $470 $658 #
vertex $-1 $307 $659 #
straight-curve $-1 -58.970557204341375 15.910525477439403 10.024355870702777 1 0 0 I I #
coedge $-1 $476 $476 $-1 $660 reversed $310 $-1 #
edge $-1 $661 0 $661 6.2831853071796004 $311 $662 forward 7 unknown #
vertex $-1 $314 $663 #
ellipse-curve $-1 -45.407523001125725 17.814076208599417 6.2056988957730814 -0.69465837861970381 0 0.71933979245794832 0.35966989622897416 0 0.3473291893098519 1 I I #
coedge $-1 $480 $480 $-1 $664 reversed $317 $-1 #
edge $-1 $665 0 $665 6.2831853071796004 $318 $666 forward 7 unknown #
vertex $-1 $321 $667 #
ellipse-curve $-1 -45.407523001125725 20.669402305339432 6.2056988957730814 -0.69465837861970381 0 0.71933979245794832 0.35966989622897416 0 0.3473291893098519 1 I I #
face $-1 $-1 $496 $68 $-1 $668 forward single #
loop $-1 $-1 $669 $322 #
plane-surface $-1 49.361857966856903 0 0 -1 0 0 0 0 1 forward_v I I I I #
coedge $-1 $670 $671 $672 $673 reversed $323 $-1 #
coedge $-1 $674 $325 $327 $494 forward $203 $-1 #
coedge $-1 $325 $674 $670 $675 forward $203 $-1 #
coedge $-1 $672 $328 $325 $491 forward $496 $-1 #
edge $-1 $498 -0.022059407444875667 $676 6.5414626977724346 $490 $677 forward 7 unknown #
coedge $-1 $678 $679 $326 $493 forward $485 $-1 #
edge $-1 $680 -68.356756626503653 $497 -59.114218617077583 $492 $681 forward 7 unknown #
edge $-1 $498 82.609842865447746 $680 98.723715933713777 $327 $682 forward 7 unknown #
coedge $-1 $328 $672 $678 $683 forward $496 $-1 #
loop $-1 $-1 $672 $484 #
vertex $-1 $493 $684 #
vertex $-1 $329 $685 #
straight-curve $-1 12.5588613246642 -3.2376422377189042 10.024355870702777 -1 0 0 I I #
coedge $-1 $500 $500 $-1 $686 reversed $332 $-1 #
edge $-1 $687 0 $687 6.2831853071796004 $333 $688 forward 7 unknown #
vertex $-1 $336 $689 #
ellipse-curve $-1 42.762001975918459 -8.4884599218927548 5.4030868659897342 0.57357644374324357 0 0.81915203911291934 0.40957601955645967 0 -0.28678822187162178 1 I I #
coedge $-1 $504 $504 $-1 $690 reversed $339 $-1 #
edge $-1 $691 0 $691 6.2831853071796004 $340 $692 forward 7 unknown #
vertex $-1 $343 $693 #
ellipse-curve $-1 42.762001975918459 -6.5194032903275598 5.4030868659897342 0.57357644374324357 0 0.81915203911291934 0.40957601955645967 0 -0.28678822187162178 1 I I #
coedge $-1 $508 $508 $-1 $694 reversed $346 $-1 #
edge $-1 $695 0 $695 6.2831853071796004 $347 $696 forward 7 unknown #
vertex $-1 $350 $697 #
ellipse-curve $-1 42.762001975918459 -4.5503466587623649 5.4030868659897342 0.57357644374324357 0 0.81915203911291934 0.40957601955645967 0 -0.28678822187162178 1 I I #
face $-1 $-1 $524 $72 $-1 $698 forward single #
loop $-1 $-1 $699 $351 #
plane-surface $-1 49.361857966856903 0 0 -1 0 0 0 0 1 forward_v I I I I #
coedge $-1 $700 $701 $702 $703 reversed $352 $-1 #
coedge $-1 $704 $354 $356 $522 forward $222 $-1 #
coedge $-1 $354 $704 $700 $705 forward $222 $-1 #
coedge $-1 $702 $357 $354 $519 forward $524 $-1 #
edge $-1 $526 -8.1155887523037897 $706 -1.5520666470864795 $518 $707 forward 7 unknown #
coedge $-1 $708 $709 $355 $521 forward $513 $-1 #
edge $-1 $710 -68.356756626503653 $525 -59.114218617077583 $520 $711 forward 7 unknown #
edge $-1 $526 82.609842865447746 $710 98.723715933713777 $356 $712 forward 7 unknown #
coedge $-1 $357 $702 $708 $713 forward $524 $-1 #
loop $-1 $-1 $702 $512 #
vertex $-1 $521 $714 #
vertex $-1 $358 $715 #
straight-curve $-1 12.5588613246642 12.949416451998925 10.024355870702777 -1 0 0 I I #
coedge $-1 $528 $528 $-1 $716 reversed $361 $-1 #
edge $-1 $717 0 $717 6.2831853071796004 $362 $718 forward 7 unknown #
vertex $-1 $365 $719 #
ellipse-curve $-1 42.762001975918459 7.6985987678250751 5.4030868659897342 0.57357644374324357 0 0.81915203911291934 0.40957601955645967 0 -0.28678822187162178 1 I I #
coedge $-1 $532 $532 $-1 $720 reversed $368 $-1 #
edge $-1 $721 0 $721 6.2831853071796004 $369 $722 forward 7 unknown #
vertex $-1 $372 $723 #
ellipse-curve $-1 42.762001975918459 9.6676553993902701 5.4030868659897342 0.57357644374324357 0 0.81915203911291934 0.40957601955645967 0 -0.28678822187162178 1 I I #
coedge $-1 $536 $536 $-1 $724 reversed $375 $-1 #
edge $-1 $725 0 $725 6.2831853071796004 $376 $726 forward 7 unknown #
vertex $-1 $379 $727 #
ellipse-curve $-1 42.762001975918459 11.636712030955465 5.4030868659897342 0.57357644374324357 0 0.81915203911291934 0.40957601955645967 0 -0.28678822187162178 1 I I #
face $-1 $-1 $395 $57 $-1 $728 reversed single #
loop $-1 $-1 $556 $380 #
plane-surface $-1 0 22.572953036499442 0 0 -1 0 0 0 -1 forward_v I I I I #
coedge $-1 $729 $554 $557 $730 forward $381 $-1 #
coedge $-1 $560 $383 $384 $548 reversed $241 $-1 #
coedge $-1 $554 $729 $383 $546 reversed $381 $-1 #
edge $-1 $561 -10.024355870702779 $731 10.024355870702779 $545 $732 forward 7 unknown #
coedge $-1 $385 $384 $729 $733 forward $153 $-1 #
edge $-1 $552 -49.361857966856903 $731 49.361857966856903 $544 $734 forward 7 unknown #
coedge $-1 $557 $556 $385 $550 reversed $541 $-1 #
edge $-1 $735 -49.361857966856903 $551 49.361857966856903 $549 $736 forward 7 unknown #
vertex $-1 $387 $737 #
vertex $-1 $563 $738 #
straight-curve $-1 49.361857966856903 0 -10.024355870702779 0 -1 0 I I #
coedge $-1 $543 $545 $388 $555 reversed $381 $-1 #
edge $-1 $558 -22.572953036499442 $561 22.572953036499442 $554 $739 forward 7 unknown #
coedge $-1 $549 $389 $394 $564 forward $541 $-1 #
coedge $-1 $389 $549 $543 $730 reversed $541 $-1 #
vertex $-1 $390 $740 #
straight-curve $-1 0 22.572953036499442 10.024355870702779 -1 0 0 I I #
coedge $-1 $391 $544 $393 $563 reversed $241 $-1 #
vertex $-1 $555 $741 #
straight-curve $-1 0 -22.572953036499442 10.024355870702779 1 0 0 I I #
edge $-1 $396 -10.024355870702779 $552 10.024355870702779 $393 $742 forward 7 unknown #
edge $-1 $397 -10.024355870702779 $551 10.024355870702779 $394 $743 forward 7 unknown #
point $-1 49.361857966856903 -22.572953036499442 10.024355870702779 #
point $-1 49.361857966856903 22.572953036499442 10.024355870702779 #
face $-1 $-1 $744 $58 $-1 $745 reversed single #
loop $-1 $-1 $746 $399 #
plane-surface $-1 0 0 -10.024355870702779 0 0 1 1 0 0 forward_v I I I I #
coedge $-1 $577 $587 $572 $747 forward $400 $-1 #
coedge $-1 $405 $402 $746 $748 reversed $249 $-1 #
coedge $-1 $402 $405 $570 $747 reversed $249 $-1 #
coedge $-1 $749 $750 $402 $574 forward $744 $-1 #
edge $-1 $751 -10.024355870702779 $752 10.024355870702779 $573 $753 forward 7 unknown #
coedge $-1 $746 $408 $403 $576 forward $568 $-1 #
edge $-1 $413 -17.337831993851669 $580 -14.096153485683676 $575 $754 forward 7 unknown #
coedge $-1 $410 $570 $404 $578 forward $400 $-1 #
edge $-1 $579 14.096153485683676 $412 17.337831993851669 $577 $755 forward 7 unknown #
vertex $-1 $578 $756 #
vertex $-1 $576 $757 #
straight-curve $-1 -29.813146225451348 -9.8011643429362181 0 0 0 -1 I I #
coedge $-1 $750 $749 $407 $583 forward $744 $-1 #
edge $-1 $588 -10.024355870702779 $585 10.024355870702779 $582 $758 forward 7 unknown #
coedge $-1 $408 $746 $750 $759 forward $568 $-1 #
vertex $-1 $409 $760 #
straight-curve $-1 -33.054824733619341 -8.093529344858915 -10.024355870702779 0 1 0 I I #
coedge $-1 $570 $410 $749 $761 forward $400 $-1 #
vertex $-1 $761 $762 #
straight-curve $-1 -33.054824733619341 -8.093529344858915 10.024355870702779 0 -1 0 I I #
point $-1 -33.054824733619341 -9.8011643429362181 10.024355870702779 #
point $-1 -33.054824733619341 -9.8011643429362181 -10.024355870702779 #
plane-surface $-1 0 0 10.024355870702779 0 0 1 1 0 0 forward_v I I I I #
coedge $-1 $603 $602 $595 $763 forward $416 $-1 #
coedge $-1 $595 $418 $420 $599 reversed $257 $-1 #
coedge $-1 $418 $594 $593 $763 reversed $257 $-1 #
coedge $-1 $426 $421 $418 $597 forward $427 $-1 #
edge $-1 $600 -17.517369168946836 $764 -9.6086992374844726 $596 $765 forward 7 unknown #
coedge $-1 $420 $419 $603 $766 reversed $161 $-1 #
edge $-1 $767 0 $600 10.994345112535523 $594 $768 forward 7 unknown #
vertex $-1 $422 $769 #
straight-curve $-1 -41.45318803539454 -3.2349752817030986 10.024355870702779 0 1 0 I I #
coedge $-1 $593 $423 $426 $607 reversed $416 $-1 #
coedge $-1 $423 $593 $598 $766 forward $416 $-1 #
vertex $-1 $424 $770 #
straight-curve $-1 -49.361857966856903 -9.8011643429362181 36.701469625639263 0 0 1 I I #
straight-curve $-1 -49.361857966856903 -9.8011643429362181 2.3870419208433873 -0.71933979245794832 0 -0.69465837861970381 I I #
edge $-1 $764 3.138736783876177 $428 9.8011643429362181 $602 $771 forward 7 unknown #
point $-1 -49.361857966856903 -9.8011643429362181 10.024355870702779 #
point $-1 -41.45318803539454 -9.8011643429362181 10.024355870702779 #
edge $-1 $772 1 $772 0 $431 $-1 forward 7 unknown #
vertex $-1 $432 $773 #
ellipse-curve $-1 -44.271715106203111 -7.8976136117762046 5.0295354166408179 -0.69465837861970381 0 0.71933979245794832 0.35966989622897416 0 0.3473291893098519 1 I I #
point $-1 -45.047853104896753 -7.8976136117762046 6.5530280850829383 #
edge $-1 $774 1 $774 0 $435 $-1 forward 7 unknown #
vertex $-1 $436 $775 #
ellipse-curve $-1 -44.271715106203111 -5.0422875150361861 5.0295354166408179 -0.69465837861970381 0 0.71933979245794832 0.35966989622897416 0 0.3473291893098519 1 I I #
point $-1 -45.047853104896753 -5.0422875150361861 6.5530280850829383 #
loop $-1 $-1 $447 $439 #
plane-surface $-1 -49.361857966856903 0 0 1 0 0 0 0 -1 forward_v I I I I #
coedge $-1 $621 $442 $444 $625 reversed $279 $-1 #
coedge $-1 $442 $620 $776 $777 reversed $279 $-1 #
coedge $-1 $450 $445 $442 $623 forward $440 $-1 #
edge $-1 $626 -17.517369168946836 $778 -9.6086992374844726 $622 $779 forward 7 unknown #
coedge $-1 $444 $443 $629 $780 reversed $175 $-1 #
edge $-1 $781 0 $626 10.994345112535523 $620 $782 forward 7 unknown #
vertex $-1 $446 $783 #
straight-curve $-1 -41.45318803539454 3.1929471733908059 10.024355870702779 0 1 0 I I #
coedge $-1 $776 $447 $450 $633 reversed $618 $-1 #
coedge $-1 $447 $776 $624 $780 forward $618 $-1 #
vertex $-1 $448 $784 #
straight-curve $-1 -49.361857966856903 3.0546805672515918 36.701469625639263 0 0 1 I I #
straight-curve $-1 -49.361857966856903 3.0546805672515918 2.3870419208433873 -0.71933979245794832 0 -0.69465837861970381 I I #
edge $-1 $778 -9.7171081263116328 $451 -3.0546805672515918 $628 $785 forward 7 unknown #
point $-1 -49.361857966856903 3.0546805672515918 10.024355870702779 #
point $-1 -41.45318803539454 3.0546805672515918 10.024355870702779 #
edge $-1 $786 1 $786 0 $454 $-1 forward 7 unknown #
vertex $-1 $455 $787 #
ellipse-curve $-1 -44.271715106203111 4.9582312984116044 5.0295354166408179 -0.69465837861970381 0 0.71933979245794832 0.35966989622897416 0 0.3473291893098519 1 I I #
point $-1 -45.047853104896753 4.9582312984116044 6.5530280850829383 #
edge $-1 $788 1 $788 0 $458 $-1 forward 7 unknown #
vertex $-1 $459 $789 #
ellipse-curve $-1 -44.271715106203111 7.8135573951516228 5.0295354166408179 -0.69465837861970381 0 0.71933979245794832 0.35966989622897416 0 0.3473291893098519 1 I I #
point $-1 -45.047853104896753 7.8135573951516228 6.5530280850829383 #
loop $-1 $-1 $469 $462 #
plane-surface $-1 -49.361857966856903 0 0 1 0 0 0 0 -1 forward_v I I I I #
coedge $-1 $790 $791 $466 $648 forward $463 $-1 #
coedge $-1 $466 $465 $653 $792 reversed $189 $-1 #
edge $-1 $650 5.9305398848580921 $793 16.924884997393615 $646 $794 forward 7 unknown #
coedge $-1 $472 $467 $791 $795 forward $301 $-1 #
vertex $-1 $795 $796 #
straight-curve $-1 -41.45318803539454 9.6208696284847122 10.024355870702779 0 1 0 I I #
coedge $-1 $797 $469 $472 $657 reversed $644 $-1 #
coedge $-1 $469 $797 $647 $792 forward $644 $-1 #
vertex $-1 $470 $798 #
straight-curve $-1 -49.361857966856903 15.910525477439403 36.701469625639263 0 0 1 I I #
straight-curve $-1 -49.361857966856903 15.910525477439403 2.3870419208433873 -0.71933979245794832 0 -0.69465837861970381 I I #
edge $-1 $799 -22.572953036499442 $473 -15.910525477439403 $652 $800 forward 7 unknown #
point $-1 -49.361857966856903 15.910525477439403 10.024355870702779 #
point $-1 -41.45318803539454 15.910525477439403 10.024355870702779 #
edge $-1 $801 1 $801 0 $476 $-1 forward 7 unknown #
vertex $-1 $477 $802 #
ellipse-curve $-1 -44.271715106203111 17.814076208599417 5.0295354166408179 -0.69465837861970381 0 0.71933979245794832 0.35966989622897416 0 0.3473291893098519 1 I I #
point $-1 -45.047853104896753 17.814076208599417 6.5530280850829383 #
edge $-1 $803 1 $803 0 $480 $-1 forward 7 unknown #
vertex $-1 $481 $804 #
ellipse-curve $-1 -44.271715106203111 20.669402305339432 5.0295354166408179 -0.69465837861970381 0 0.71933979245794832 0.35966989622897416 0 0.3473291893098519 1 I I #
point $-1 -45.047853104896753 20.669402305339432 6.5530280850829383 #
plane-surface $-1 0 0 10.024355870702779 0 0 1 1 0 0 forward_v I I I I #
coedge $-1 $679 $678 $671 $805 forward $485 $-1 #
coedge $-1 $671 $487 $489 $675 reversed $323 $-1 #
coedge $-1 $487 $670 $669 $805 reversed $323 $-1 #
coedge $-1 $495 $490 $487 $673 forward $496 $-1 #
edge $-1 $676 23.603284660315822 $806 36.802996642192703 $672 $807 forward 7 unknown #
coedge $-1 $489 $488 $679 $808 reversed $203 $-1 #
edge $-1 $809 -98.723715933713777 $676 -82.609842865447746 $670 $810 forward 7 unknown #
vertex $-1 $491 $811 #
straight-curve $-1 36.16214598498 -3.2597016451637799 10.024355870702784 0 -1 0 I I #
coedge $-1 $669 $492 $495 $683 reversed $485 $-1 #
coedge $-1 $492 $669 $674 $808 forward $485 $-1 #
vertex $-1 $493 $812 #
straight-curve $-1 49.361857966856903 -3.2376422377189042 69.13857448778036 0 0 1 I I #
straight-curve $-1 -31.507875249049356 -3.2376422377189042 57.407415759654455 0.81915203911291934 0 -0.57357644374324357 I I #
edge $-1 $806 -9.8011643429362145 $497 -3.2376422377189042 $678 $813 forward 7 unknown #
point $-1 49.361857966856903 -3.2376422377189042 10.024355870702779 #
point $-1 36.162145984980022 -3.2376422377189042 10.024355870702777 #
edge $-1 $814 1 $814 0 $500 $-1 forward 7 unknown #
vertex $-1 $501 $815 #
ellipse-curve $-1 41.889261488723143 -8.4884599218927548 4.1566843027379088 0.57357644374324357 0 0.81915203911291934 0.40957601955645967 0 -0.28678822187162178 1 I I #
point $-1 43.171577995474919 -8.4884599218927548 5.1162986441181069 #
edge $-1 $816 1 $816 0 $504 $-1 forward 7 unknown #
vertex $-1 $505 $817 #
ellipse-curve $-1 41.889261488723143 -6.5194032903275598 4.1566843027379088 0.57357644374324357 0 0.81915203911291934 0.40957601955645967 0 -0.28678822187162178 1 I I #
point $-1 43.171577995474919 -6.5194032903275598 5.1162986441181069 #
edge $-1 $818 1 $818 0 $508 $-1 forward 7 unknown #
vertex $-1 $509 $819 #
ellipse-curve $-1 41.889261488723143 -4.5503466587623649 4.1566843027379088 0.57357644374324357 0 0.81915203911291934 0.40957601955645967 0 -0.28678822187162178 1 I I #
point $-1 43.171577995474919 -4.5503466587623649 5.1162986441181069 #
plane-surface $-1 0 0 10.024355870702779 0 0 1 1 0 0 forward_v I I I I #
coedge $-1 $709 $708 $701 $820 forward $513 $-1 #
coedge $-1 $701 $515 $517 $705 reversed $352 $-1 #
coedge $-1 $515 $700 $699 $820 reversed $352 $-1 #
coedge $-1 $523 $518 $515 $703 forward $524 $-1 #
edge $-1 $706 23.603284660315822 $821 36.802996642192703 $702 $822 forward 7 unknown #
coedge $-1 $517 $516 $709 $823 reversed $222 $-1 #
edge $-1 $824 -98.723715933713777 $706 -82.609842865447746 $700 $825 forward 7 unknown #
vertex $-1 $519 $826 #
straight-curve $-1 36.16214598498 4.833827699695135 10.024355870702784 0 -1 0 I I #
coedge $-1 $699 $520 $523 $713 reversed $513 $-1 #
coedge $-1 $520 $699 $704 $823 forward $513 $-1 #
vertex $-1 $521 $827 #
straight-curve $-1 49.361857966856903 12.949416451998925 69.13857448778036 0 0 1 I I #
straight-curve $-1 -31.507875249049356 12.949416451998925 57.407415759654455 0.81915203911291934 0 -0.57357644374324357 I I #
edge $-1 $821 6.3858943467816145 $525 12.949416451998925 $708 $828 forward 7 unknown #
point $-1 49.361857966856903 12.949416451998925 10.024355870702779 #
point $-1 36.162145984980022 12.949416451998925 10.024355870702777 #
edge $-1 $829 1 $829 0 $528 $-1 forward 7 unknown #
vertex $-1 $529 $830 #
ellipse-curve $-1 41.889261488723143 7.6985987678250751 4.1566843027379088 0.57357644374324357 0 0.81915203911291934 0.40957601955645967 0 -0.28678822187162178 1 I I #
point $-1 43.171577995474919 7.6985987678250751 5.1162986441181069 #
edge $-1 $831 1 $831 0 $532 $-1 forward 7 unknown #
vertex $-1 $533 $832 #
ellipse-curve $-1 41.889261488723143 9.6676553993902701 4.1566843027379088 0.57357644374324357 0 0.81915203911291934 0.40957601955645967 0 -0.28678822187162178 1 I I #
point $-1 43.171577995474919 9.6676553993902701 5.1162986441181069 #
edge $-1 $833 1 $833 0 $536 $-1 forward 7 unknown #
vertex $-1 $537 $834 #
ellipse-curve $-1 41.889261488723143 11.636712030955465 4.1566843027379088 0.57357644374324357 0 0.81915203911291934 0.40957601955645967 0 -0.28678822187162178 1 I I #
point $-1 43.171577995474919 11.636712030955465 5.1162986441181069 #
plane-surface $-1 49.361857966856903 0 0 -1 0 0 0 0 1 forward_v I I I I #
coedge $-1 $545 $543 $547 $733 reversed $381 $-1 #
edge $-1 $558 -10.024355870702779 $735 10.024355870702779 $557 $835 forward 7 unknown #
vertex $-1 $733 $836 #
straight-curve $-1 -49.361857966856903 -22.572953036499442 0 0 0 -1 I I #
edge $-1 $731 -22.572953036499442 $735 22.572953036499442 $729 $837 forward 7 unknown #
straight-curve $-1 0 -22.572953036499442 -10.024355870702779 -1 0 0 I I #
vertex $-1 $550 $838 #
straight-curve $-1 0 22.572953036499442 -10.024355870702779 1 0 0 I I #
point $-1 49.361857966856903 22.572953036499442 -10.024355870702779 #
point $-1 49.361857966856903 -22.572953036499442 -10.024355870702779 #
straight-curve $-1 -49.361857966856903 0 10.024355870702779 0 -1 0 I I #
point $-1 -49.361857966856903 22.572953036499442 10.024355870702779 #
point $-1 -49.361857966856903 -22.572953036499442 10.024355870702779 #
straight-curve $-1 49.361857966856903 -22.572953036499442 0 0 0 -1 I I #
straight-curve $-1 49.361857966856903 22.572953036499442 0 0 0 -1 I I #
loop $-1 $-1 $573 $567 #
plane-surface $-1 0 -22.572953036499442 0 0 1 0 0 0 1 forward_v I I I I #
coedge $-1 $584 $575 $571 $748 forward $568 $-1 #
edge $-1 $752 -14.479423691640527 $579 -1.7076349980773031 $570 $839 forward 7 unknown #
edge $-1 $580 1.7076349980773031 $751 14.479423691640527 $746 $840 forward 7 unknown #
coedge $-1 $582 $573 $587 $761 reversed $744 $-1 #
coedge $-1 $573 $582 $584 $759 reversed $744 $-1 #
vertex $-1 $759 $841 #
vertex $-1 $574 $842 #
straight-curve $-1 -29.813146225451348 -22.572953036499442 0 0 0 1 I I #
straight-curve $-1 -15.716992739767672 -9.8011643429362181 -10.024355870702779 1 0 0 I I #
straight-curve $-1 -15.716992739767672 -9.8011643429362181 10.024355870702779 -1 0 0 I I #
point $-1 -29.813146225451348 -9.8011643429362181 10.024355870702779 #
point $-1 -29.813146225451348 -9.8011643429362181 -10.024355870702779 #
straight-curve $-1 -33.054824733619341 -22.572953036499442 0 0 0 -1 I I #
edge $-1 $751 29.813146225451348 $585 33.054824733619341 $750 $843 forward 7 unknown #
point $-1 -33.054824733619341 -22.572953036499442 -10.024355870702779 #
edge $-1 $588 -33.054824733619341 $752 -29.813146225451348 $749 $844 forward 7 unknown #
point $-1 -33.054824733619341 -22.572953036499442 10.024355870702779 #
edge $-1 $764 26.677113754936485 $767 34.314427704795875 $593 $845 forward 7 unknown #
vertex $-1 $607 $846 #
straight-curve $-1 -58.970557204341375 -3.138736783876177 10.024355870702777 -1 0 0 I I #
edge $-1 $767 -0.09623849782692151 $604 6.5661890612331195 $603 $847 forward 7 unknown #
vertex $-1 $766 $848 #
straight-curve $-1 -49.361857966856903 -3.138736783876177 2.3870419208433873 0.71933979245794832 0 0.69465837861970381 I I #
point $-1 -41.45318803539454 -3.138736783876177 10.024355870702779 #
point $-1 -49.361857966856903 -9.8011643429362181 2.3870419208433873 #
straight-curve $-1 -49.361857966856903 0 10.024355870702779 0 -1 0 I I #
vertex $-1 $610 $849 #
point $-1 -43.912045209974139 -7.8976136117762046 5.3768646059506704 #
vertex $-1 $614 $850 #
point $-1 -43.912045209974139 -5.0422875150361861 5.3768646059506704 #
coedge $-1 $629 $628 $621 $777 forward $618 $-1 #
edge $-1 $778 26.677113754936485 $781 34.314427704795875 $776 $851 forward 7 unknown #
vertex $-1 $633 $852 #
straight-curve $-1 -58.970557204341375 9.7171081263116328 10.024355870702777 -1 0 0 I I #
edge $-1 $781 -6.5241609529208269 $630 0.13826660613921415 $629 $853 forward 7 unknown #
vertex $-1 $780 $854 #
straight-curve $-1 -49.361857966856903 9.7171081263116328 2.3870419208433873 0.71933979245794832 0 0.69465837861970381 I I #
point $-1 -41.45318803539454 9.7171081263116328 10.024355870702779 #
point $-1 -49.361857966856903 3.0546805672515918 2.3870419208433873 #
straight-curve $-1 -49.361857966856903 0 10.024355870702779 0 -1 0 I I #
vertex $-1 $636 $855 #
point $-1 -43.912045209974139 4.9582312984116044 5.3768646059506704 #
vertex $-1 $640 $856 #
point $-1 -43.912045209974139 7.8135573951516228 5.3768646059506704 #
coedge $-1 $791 $646 $797 $857 reversed $463 $-1 #
coedge $-1 $646 $790 $649 $795 reversed $463 $-1 #
edge $-1 $793 -12.952083408014733 $654 -6.2896558489546912 $653 $858 forward 7 unknown #
vertex $-1 $648 $859 #
straight-curve $-1 -37.187114705457134 22.572953036499442 14.144055091457787 -0.71933979245794832 0 -0.69465837861970381 I I #
edge $-1 $650 41.45318803539454 $799 49.361857966856903 $791 $860 forward 7 unknown #
point $-1 -41.45318803539454 22.572953036499445 10.024355870702779 #
coedge $-1 $653 $652 $790 $857 forward $644 $-1 #
point $-1 -49.361857966856903 15.910525477439403 2.3870419208433873 #
vertex $-1 $795 $861 #
straight-curve $-1 -49.361857966856903 0 10.024355870702779 0 -1 0 I I #
vertex $-1 $660 $862 #
point $-1 -43.912045209974139 17.814076208599417 5.3768646059506704 #
vertex $-1 $664 $863 #
point $-1 -43.912045209974139 20.669402305339432 5.3768646059506704 #
edge $-1 $806 59.114218617077583 $809 68.356756626503653 $669 $864 forward 7 unknown #
vertex $-1 $683 $865 #
straight-curve $-1 12.5588613246642 -9.8011643429362145 10.024355870702777 1 0 0 I I #
edge $-1 $809 -6.5414626977724346 $680 0.022059407444875667 $679 $866 forward 7 unknown #
vertex $-1 $808 $867 #
straight-curve $-1 -31.507875249049356 -9.8011643429362145 57.407415759654455 -0.81915203911291934 0 0.57357644374324357 I I #
point $-1 36.162145984980022 -9.8011643429362145 10.024355870702777 #
point $-1 49.361857966856896 -3.2376422377189042 0.78181786127671415 #
straight-curve $-1 49.361857966856903 0 10.024355870702779 0 1 0 I I #
vertex $-1 $686 $868 #
point $-1 42.298837508279604 -8.4884599218927548 3.8698960808662872 #
vertex $-1 $690 $869 #
point $-1 42.298837508279604 -6.5194032903275598 3.8698960808662872 #
vertex $-1 $694 $870 #
point $-1 42.298837508279604 -4.5503466587623649 3.8698960808662872 #
edge $-1 $821 59.114218617077583 $824 68.356756626503653 $699 $871 forward 7 unknown #
vertex $-1 $713 $872 #
straight-curve $-1 12.5588613246642 6.3858943467816145 10.024355870702777 1 0 0 I I #
edge $-1 $824 1.5520666470864795 $710 8.1155887523037897 $709 $873 forward 7 unknown #
vertex $-1 $823 $874 #
straight-curve $-1 -31.507875249049356 6.3858943467816145 57.407415759654455 -0.81915203911291934 0 0.57357644374324357 I I #
point $-1 36.162145984980022 6.3858943467816145 10.024355870702777 #
point $-1 49.361857966856896 12.949416451998925 0.78181786127671415 #
straight-curve $-1 49.361857966856903 0 10.024355870702779 0 1 0 I I #
vertex $-1 $716 $875 #
point $-1 42.298837508279604 7.6985987678250751 3.8698960808662872 #
vertex $-1 $720 $876 #
point $-1 42.298837508279604 9.6676553993902701 3.8698960808662872 #
vertex $-1 $724 $877 #
point $-1 42.298837508279604 11.636712030955465 3.8698960808662872 #
straight-curve $-1 -49.361857966856903 22.572953036499442 0 0 0 -1 I I #
point $-1 -49.361857966856903 -22.572953036499442 -10.024355870702779 #
straight-curve $-1 -49.361857966856903 0 -10.024355870702779 0 1 0 I I #
point $-1 -49.361857966856903 22.572953036499442 -10.024355870702779 #
straight-curve $-1 -29.813146225451348 -8.093529344858915 10.024355870702779 0 1 0 I I #
straight-curve $-1 -29.813146225451348 -8.093529344858915 -10.024355870702779 0 -1 0 I I #
point $-1 -29.813146225451348 -22.572953036499442 -10.024355870702779 #
point $-1 -29.813146225451348 -22.572953036499442 10.024355870702779 #
straight-curve $-1 0 -22.572953036499442 -10.024355870702779 -1 0 0 I I #
straight-curve $-1 0 -22.572953036499442 10.024355870702779 1 0 0 I I #
straight-curve $-1 -49.361857966856903 -3.138736783876177 36.701469625639263 0 0 -1 I I #
point $-1 -49.361857966856903 -3.138736783876177 10.024355870702779 #
straight-curve $-1 -49.361857966856903 -3.2349752817030986 2.3870419208433891 0 -1 0 I I #
point $-1 -49.361857966856903 -3.138736783876177 2.3870419208433873 #
point $-1 -43.924385916893264 -7.8976136117762046 4.669865520411844 #
point $-1 -43.924385916893264 -5.0422875150361861 4.669865520411844 #
straight-curve $-1 -49.361857966856903 9.7171081263116328 36.701469625639263 0 0 -1 I I #
point $-1 -49.361857966856903 9.7171081263116328 10.024355870702779 #
straight-curve $-1 -49.361857966856903 3.1929471733908059 2.3870419208433891 0 -1 0 I I #
point $-1 -49.361857966856903 9.7171081263116328 2.3870419208433873 #
point $-1 -43.924385916893264 4.9582312984116044 4.669865520411844 #
point $-1 -43.924385916893264 7.8135573951516228 4.669865520411844 #
edge $-1 $799 -10.024355870702779 $793 -2.3870419208433873 $790 $878 forward 7 unknown #
straight-curve $-1 -49.361857966856903 9.6208696284847122 2.3870419208433891 0 -1 0 I I #
point $-1 -49.361857966856903 22.572953036499445 2.3870419208433873 #
straight-curve $-1 0 22.572953036499442 10.024355870702779 -1 0 0 I I #
point $-1 -49.361857966856903 22.572953036499442 10.024355870702779 #
point $-1 -43.924385916893264 17.814076208599417 4.669865520411844 #
point $-1 -43.924385916893264 20.669402305339432 4.669865520411844 #
straight-curve $-1 49.361857966856903 -9.8011643429362145 69.13857448778036 0 0 -1 I I #
point $-1 49.361857966856903 -9.8011643429362145 10.024355870702779 #
straight-curve $-1 49.361857966856903 -3.2597016451637799 0.78181786127671771 0 1 0 I I #
point $-1 49.361857966856896 -9.8011643429362145 0.78181786127671415 #
point $-1 41.602473266851526 -8.4884599218927548 3.7471082831814493 #
point $-1 41.602473266851526 -6.5194032903275598 3.7471082831814493 #
point $-1 41.602473266851526 -4.5503466587623649 3.7471082831814493 #
straight-curve $-1 49.361857966856903 6.3858943467816145 69.13857448778036 0 0 -1 I I #
point $-1 49.361857966856903 6.3858943467816145 10.024355870702779 #
straight-curve $-1 49.361857966856903 4.833827699695135 0.78181786127671771 0 1 0 I I #
point $-1 49.361857966856896 6.3858943467816145 0.78181786127671415 #
point $-1 41.602473266851526 7.6985987678250751 3.7471082831814493 #
point $-1 41.602473266851526 9.6676553993902701 3.7471082831814493 #
point $-1 41.602473266851526 11.636712030955465 3.7471082831814493 #
straight-curve $-1 -49.361857966856903 22.572953036499442 0 0 0 -1 I I #
End-of-ACIS-data 