500 0 18 0           
7 Unknown 11 ACIS 5.0 NT 24 Fri Mar 26 02:52:19 1999 
-1 9.9999999999999995e-007 1e-010 
body $-1 $18 $-1 $19 #
body $-1 $20 $-1 $21 #
body $-1 $22 $-1 $23 #
body $-1 $24 $-1 $25 #
body $-1 $26 $-1 $27 #
body $-1 $28 $-1 $29 #
body $-1 $30 $-1 $31 #
body $-1 $32 $-1 $33 #
body $-1 $34 $-1 $35 #
body $-1 $36 $-1 $37 #
body $-1 $38 $-1 $39 #
body $-1 $40 $-1 $41 #
body $-1 $42 $-1 $43 #
body $-1 $44 $-1 $45 #
body $-1 $46 $-1 $47 #
body $-1 $48 $-1 $49 #
body $-1 $50 $-1 $51 #
body $-1 $52 $-1 $53 #
lump $-1 $-1 $54 $0 #
transform $-1 1 0 0 0 1 0 0 0 1 65.742973113193159 28.103530951683339 12.978295846668207 1 rotate no_reflect no_shear #
lump $-1 $-1 $55 $1 #
transform $-1 1 0 0 0 1 0 0 0 1 65.742973113193159 28.103530951683339 12.978295846668207 1 rotate no_reflect no_shear #
lump $-1 $-1 $56 $2 #
transform $-1 1 0 0 0 1 0 0 0 1 65.742973113193159 28.103530951683339 12.978295846668207 1 rotate no_reflect no_shear #
lump $-1 $-1 $57 $3 #
transform $-1 1 0 0 0 1 0 0 0 1 65.742973113193159 28.103530951683339 12.978295846668207 1 rotate no_reflect no_shear #
lump $-1 $-1 $58 $4 #
transform $-1 1 0 0 0 1 0 0 0 1 65.742973113193159 28.103530951683339 12.978295846668207 1 rotate no_reflect no_shear #
lump $-1 $-1 $59 $5 #
transform $-1 1 0 0 0 1 0 0 0 1 65.742973113193159 28.103530951683339 12.978295846668207 1 rotate no_reflect no_shear #
lump $-1 $-1 $60 $6 #
transform $-1 1 0 0 0 1 0 0 0 1 65.742973113193159 28.103530951683339 12.978295846668207 1 rotate no_reflect no_shear #
lump $-1 $-1 $61 $7 #
transform $-1 1 0 0 0 1 0 0 0 1 65.742973113193159 28.103530951683339 12.978295846668207 1 rotate no_reflect no_shear #
lump $-1 $-1 $62 $8 #
transform $-1 1 0 0 0 1 0 0 0 1 65.742973113193159 28.103530951683339 12.978295846668207 1 rotate no_reflect no_shear #
lump $-1 $-1 $63 $9 #
transform $-1 1 0 0 0 1 0 0 0 1 65.742973113193159 28.103530951683339 12.978295846668207 1 rotate no_reflect no_shear #
lump $-1 $-1 $64 $10 #
transform $-1 1 0 0 0 1 0 0 0 1 65.742973113193159 28.103530951683339 12.978295846668207 1 rotate no_reflect no_shear #
lump $-1 $-1 $65 $11 #
transform $-1 1 0 0 0 1 0 0 0 1 65.742973113193159 28.103530951683339 12.978295846668207 1 rotate no_reflect no_shear #
lump $-1 $-1 $66 $12 #
transform $-1 1 0 0 0 1 0 0 0 1 65.742973113193159 28.103530951683339 12.978295846668207 1 rotate no_reflect no_shear #
lump $-1 $-1 $67 $13 #
transform $-1 1 0 0 0 1 0 0 0 1 65.742973113193159 28.103530951683339 12.978295846668207 1 rotate no_reflect no_shear #
lump $-1 $-1 $68 $14 #
transform $-1 1 0 0 0 1 0 0 0 1 65.742973113193159 28.103530951683339 12.978295846668207 1 rotate no_reflect no_shear #
lump $-1 $-1 $69 $15 #
transform $-1 1 0 0 0 1 0 0 0 1 65.742973113193159 28.103530951683339 12.978295846668207 1 rotate no_reflect no_shear #
lump $-1 $-1 $70 $16 #
transform $-1 1 0 0 0 1 0 0 0 1 65.742973113193159 28.103530951683339 12.978295846668207 1 rotate no_reflect no_shear #
lump $-1 $-1 $71 $17 #
transform $-1 1 0 0 0 1 0 0 0 1 65.742973113193159 28.103530951683339 12.978295846668207 1 rotate no_reflect no_shear #
shell $-1 $-1 $-1 $72 $-1 $18 #
shell $-1 $-1 $-1 $73 $-1 $20 #
shell $-1 $-1 $-1 $74 $-1 $22 #
shell $-1 $-1 $-1 $75 $-1 $24 #
shell $-1 $-1 $-1 $76 $-1 $26 #
shell $-1 $-1 $-1 $77 $-1 $28 #
shell $-1 $-1 $-1 $78 $-1 $30 #
shell $-1 $-1 $-1 $79 $-1 $32 #
shell $-1 $-1 $-1 $80 $-1 $34 #
shell $-1 $-1 $-1 $81 $-1 $36 #
shell $-1 $-1 $-1 $82 $-1 $38 #
shell $-1 $-1 $-1 $83 $-1 $40 #
shell $-1 $-1 $-1 $84 $-1 $42 #
shell $-1 $-1 $-1 $85 $-1 $44 #
shell $-1 $-1 $-1 $86 $-1 $46 #
shell $-1 $-1 $-1 $87 $-1 $48 #
shell $-1 $-1 $-1 $88 $-1 $50 #
shell $-1 $-1 $-1 $89 $-1 $52 #
face $-1 $90 $91 $54 $-1 $92 forward single #
face $-1 $93 $94 $55 $-1 $95 forward single #
face $-1 $96 $97 $56 $-1 $98 reversed single #
face $-1 $99 $100 $57 $-1 $101 forward single #
face $-1 $102 $103 $58 $-1 $104 forward single #
face $-1 $105 $106 $59 $-1 $107 forward single #
face $-1 $108 $109 $60 $-1 $110 reversed single #
face $-1 $111 $112 $61 $-1 $113 forward single #
face $-1 $114 $115 $62 $-1 $116 forward single #
face $-1 $117 $118 $63 $-1 $119 forward single #
face $-1 $120 $121 $64 $-1 $122 reversed single #
face $-1 $123 $124 $65 $-1 $125 forward single #
face $-1 $126 $127 $66 $-1 $128 forward single #
face $-1 $129 $130 $67 $-1 $131 forward single #
face $-1 $132 $133 $68 $-1 $134 reversed single #
face $-1 $135 $136 $69 $-1 $137 forward single #
face $-1 $138 $139 $70 $-1 $140 forward single #
face $-1 $141 $142 $71 $-1 $143 forward single #
face $-1 $144 $145 $54 $-1 $146 reversed single #
loop $-1 $-1 $147 $72 #
plane-surface $-1 0 0 12.978295846668207 0 0 1 1 0 0 forward_v I I I I #
face $-1 $148 $149 $55 $-1 $150 reversed single #
loop $-1 $-1 $151 $73 #
plane-surface $-1 0 -28.103530951683339 0 0 1 0 0 0 1 forward_v I I I I #
face $-1 $152 $153 $56 $-1 $154 reversed single #
loop $-1 $-1 $155 $74 #
plane-surface $-1 -176.01636736417407 -9.1976771625523881 77.792361255760738 0 1 0 -0.83867057594974714 0 0.54463902268945019 forward_v I I I I #
face $-1 $156 $157 $57 $-1 $158 forward single #
loop $-1 $159 $160 $75 #
cone-surface $-1 -62.891956248219316 -7.3348495348963354 9.1611946743449302 0.83867057594974714 0 -0.54463902268945019 0.2723195113447251 0 0.41933528797487357 1 I I 0 1 0.5 forward I I I I #
face $-1 $161 $162 $58 $-1 $163 forward single #
loop $-1 $164 $165 $76 #
cone-surface $-1 -62.891956248219316 -4.5406080934122528 9.1611946743449302 0.83867057594974714 0 -0.54463902268945019 0.2723195113447251 0 0.41933528797487357 1 I I 0 1 0.5 forward I I I I #
face $-1 $166 $167 $59 $-1 $168 forward single #
loop $-1 $169 $170 $77 #
cone-surface $-1 -62.891956248219316 -1.7463666519281702 9.1611946743449302 0.83867057594974714 0 -0.54463902268945019 0.2723195113447251 0 0.41933528797487357 1 I I 0 1 0.5 forward I I I I #
face $-1 $171 $172 $60 $-1 $173 reversed single #
loop $-1 $-1 $174 $78 #
plane-surface $-1 -176.01636736417407 8.55221046984542 77.792361255760738 0 1 0 -0.83867057594974714 0 0.54463902268945019 forward_v I I I I #
face $-1 $175 $176 $61 $-1 $177 forward single #
loop $-1 $178 $179 $79 #
cone-surface $-1 -62.891956248219316 10.41503809750148 9.1611946743449302 0.83867057594974714 0 -0.54463902268945019 0.2723195113447251 0 0.41933528797487357 1 I I 0 1 0.5 forward I I I I #
face $-1 $180 $181 $62 $-1 $182 forward single #
loop $-1 $183 $184 $80 #
cone-surface $-1 -62.891956248219316 13.209279538985555 9.1611946743449302 0.83867057594974714 0 -0.54463902268945019 0.2723195113447251 0 0.41933528797487357 1 I I 0 1 0.5 forward I I I I #
face $-1 $185 $186 $63 $-1 $187 forward single #
loop $-1 $188 $189 $81 #
cone-surface $-1 -62.891956248219316 16.003520980469645 9.1611946743449302 0.83867057594974714 0 -0.54463902268945019 0.2723195113447251 0 0.41933528797487357 1 I I 0 1 0.5 forward I I I I #
face $-1 $190 $191 $64 $-1 $192 reversed single #
loop $-1 $-1 $193 $82 #
plane-surface $-1 104.40399011403741 0.1164609757278825 188.06575550674162 0 -1 0 -0.83867057594974714 0 -0.54463902268945019 forward_v I I I I #
face $-1 $194 $195 $65 $-1 $196 forward single #
loop $-1 $197 $198 $83 #
cone-surface $-1 62.891956248219337 -7.3348495348963354 9.1611946743449231 -0.83867057594974714 0 -0.54463902268945019 0.2723195113447251 0 -0.41933528797487357 1 I I 0 1 0.5 forward I I I I #
face $-1 $199 $200 $66 $-1 $201 forward single #
loop $-1 $202 $203 $84 #
cone-surface $-1 62.891956248219337 -4.5406080934122528 9.1611946743449231 -0.83867057594974714 0 -0.54463902268945019 0.2723195113447251 0 -0.41933528797487357 1 I I 0 1 0.5 forward I I I I #
face $-1 $204 $205 $67 $-1 $206 forward single #
loop $-1 $207 $208 $85 #
cone-surface $-1 62.891956248219337 -1.7463666519281702 9.1611946743449231 -0.83867057594974714 0 -0.54463902268945019 0.2723195113447251 0 -0.41933528797487357 1 I I 0 1 0.5 forward I I I I #
face $-1 $209 $210 $68 $-1 $211 reversed single #
loop $-1 $-1 $212 $86 #
plane-surface $-1 104.40399011403741 17.866348608125691 188.06575550674162 0 -1 0 -0.83867057594974714 0 -0.54463902268945019 forward_v I I I I #
face $-1 $213 $214 $69 $-1 $215 forward single #
loop $-1 $216 $217 $87 #
cone-surface $-1 62.891956248219337 10.41503809750148 9.1611946743449231 -0.83867057594974714 0 -0.54463902268945019 0.2723195113447251 0 -0.41933528797487357 1 I I 0 1 0.5 forward I I I I #
face $-1 $218 $219 $70 $-1 $220 forward single #
loop $-1 $221 $222 $88 #
cone-surface $-1 62.891956248219337 13.209279538985555 9.1611946743449231 -0.83867057594974714 0 -0.54463902268945019 0.2723195113447251 0 -0.41933528797487357 1 I I 0 1 0.5 forward I I I I #
face $-1 $223 $224 $71 $-1 $225 forward single #
loop $-1 $226 $227 $89 #
cone-surface $-1 62.891956248219337 16.003520980469645 9.1611946743449231 -0.83867057594974714 0 -0.54463902268945019 0.2723195113447251 0 -0.41933528797487357 1 I I 0 1 0.5 forward I I I I #
face $-1 $228 $229 $54 $-1 $230 reversed single #
loop $-1 $-1 $231 $90 #
plane-surface $-1 0 0 -12.978295846668207 0 0 1 1 0 0 forward_v I I I I #
coedge $-1 $232 $233 $234 $235 forward $91 $-1 #
face $-1 $236 $237 $55 $-1 $238 reversed single #
loop $-1 $-1 $239 $93 #
plane-surface $-1 0 0 -12.978295846668207 0 0 1 1 0 0 forward_v I I I I #
coedge $-1 $240 $241 $242 $243 forward $94 $-1 #
face $-1 $244 $245 $56 $-1 $246 reversed single #
loop $-1 $-1 $247 $96 #
plane-surface $-1 -65.742973113193173 -4.5406080934122528 6.1799840056240924 -0.83867057594974714 0 0.54463902268945019 0.54463902268945019 0 0.83867057594974714 forward_v I I I I #
coedge $-1 $248 $249 $250 $251 reversed $97 $-1 #
face $-1 $-1 $252 $57 $-1 $253 forward single #
loop $-1 $254 $255 $99 #
cone-surface $-1 -62.038709333483489 -7.3348495348963354 8.6070896668713495 0.83867057594974714 0 -0.54463902268945019 0.13615975567236255 0 0.20966764398743679 1 I I -0.70710678118654746 0.70710678118654746 0.25 forward I I I I #
loop $-1 $-1 $256 $75 #
coedge $-1 $160 $160 $257 $258 reversed $100 $-1 #
face $-1 $-1 $259 $58 $-1 $260 forward single #
loop $-1 $261 $262 $102 #
cone-surface $-1 -62.038709333483489 -4.5406080934122528 8.6070896668713495 0.83867057594974714 0 -0.54463902268945019 0.13615975567236255 0 0.20966764398743679 1 I I -0.70710678118654746 0.70710678118654746 0.25 forward I I I I #
loop $-1 $-1 $263 $76 #
coedge $-1 $165 $165 $264 $265 reversed $103 $-1 #
face $-1 $-1 $266 $59 $-1 $267 forward single #
loop $-1 $268 $269 $105 #
cone-surface $-1 -62.038709333483489 -1.7463666519281702 8.6070896668713495 0.83867057594974714 0 -0.54463902268945019 0.13615975567236255 0 0.20966764398743679 1 I I -0.70710678118654746 0.70710678118654746 0.25 forward I I I I #
loop $-1 $-1 $270 $77 #
coedge $-1 $170 $170 $271 $272 reversed $106 $-1 #
face $-1 $273 $274 $60 $-1 $275 reversed single #
loop $-1 $-1 $276 $108 #
plane-surface $-1 -65.742973113193173 13.209279538985555 6.1799840056240924 -0.83867057594974714 0 0.54463902268945019 0.54463902268945019 0 0.83867057594974714 forward_v I I I I #
coedge $-1 $277 $278 $279 $280 reversed $109 $-1 #
face $-1 $-1 $281 $61 $-1 $282 forward single #
loop $-1 $283 $284 $111 #
cone-surface $-1 -62.038709333483489 10.41503809750148 8.6070896668713495 0.83867057594974714 0 -0.54463902268945019 0.13615975567236255 0 0.20966764398743679 1 I I -0.70710678118654746 0.70710678118654746 0.25 forward I I I I #
loop $-1 $-1 $285 $79 #
coedge $-1 $179 $179 $286 $287 reversed $112 $-1 #
face $-1 $-1 $288 $62 $-1 $289 forward single #
loop $-1 $290 $291 $114 #
cone-surface $-1 -62.038709333483489 13.209279538985555 8.6070896668713495 0.83867057594974714 0 -0.54463902268945019 0.13615975567236255 0 0.20966764398743679 1 I I -0.70710678118654746 0.70710678118654746 0.25 forward I I I I #
loop $-1 $-1 $292 $80 #
coedge $-1 $184 $184 $293 $294 reversed $115 $-1 #
face $-1 $-1 $295 $63 $-1 $296 forward single #
loop $-1 $297 $298 $117 #
cone-surface $-1 -62.038709333483489 16.003520980469645 8.6070896668713495 0.83867057594974714 0 -0.54463902268945019 0.13615975567236255 0 0.20966764398743679 1 I I -0.70710678118654746 0.70710678118654746 0.25 forward I I I I #
loop $-1 $-1 $299 $81 #
coedge $-1 $189 $189 $300 $301 reversed $118 $-1 #
face $-1 $302 $303 $64 $-1 $304 reversed single #
loop $-1 $-1 $305 $120 #
plane-surface $-1 -5.8694041369434871 -4.5406080934122528 116.45337825660498 0.83867057594974714 0 0.54463902268945019 0.54463902268945019 0 -0.83867057594974714 forward_v I I I I #
coedge $-1 $306 $307 $308 $309 reversed $121 $-1 #
face $-1 $-1 $310 $65 $-1 $311 forward single #
loop $-1 $312 $313 $123 #
cone-surface $-1 62.03870933348351 -7.3348495348963354 8.6070896668713424 -0.83867057594974714 0 -0.54463902268945019 0.13615975567236255 0 -0.20966764398743679 1 I I -0.70710678118654746 0.70710678118654746 0.25 forward I I I I #
loop $-1 $-1 $314 $83 #
coedge $-1 $198 $198 $315 $316 reversed $124 $-1 #
face $-1 $-1 $317 $66 $-1 $318 forward single #
loop $-1 $319 $320 $126 #
cone-surface $-1 62.03870933348351 -4.5406080934122528 8.6070896668713424 -0.83867057594974714 0 -0.54463902268945019 0.13615975567236255 0 -0.20966764398743679 1 I I -0.70710678118654746 0.70710678118654746 0.25 forward I I I I #
loop $-1 $-1 $321 $84 #
coedge $-1 $203 $203 $322 $323 reversed $127 $-1 #
face $-1 $-1 $324 $67 $-1 $325 forward single #
loop $-1 $326 $327 $129 #
cone-surface $-1 62.03870933348351 -1.7463666519281702 8.6070896668713424 -0.83867057594974714 0 -0.54463902268945019 0.13615975567236255 0 -0.20966764398743679 1 I I -0.70710678118654746 0.70710678118654746 0.25 forward I I I I #
loop $-1 $-1 $328 $85 #
coedge $-1 $208 $208 $329 $330 reversed $130 $-1 #
face $-1 $331 $332 $68 $-1 $333 reversed single #
loop $-1 $-1 $334 $132 #
plane-surface $-1 -5.8694041369434871 13.209279538985555 116.45337825660498 0.83867057594974714 0 0.54463902268945019 0.54463902268945019 0 -0.83867057594974714 forward_v I I I I #
coedge $-1 $335 $336 $337 $338 reversed $133 $-1 #
face $-1 $-1 $339 $69 $-1 $340 forward single #
loop $-1 $341 $342 $135 #
cone-surface $-1 62.03870933348351 10.41503809750148 8.6070896668713424 -0.83867057594974714 0 -0.54463902268945019 0.13615975567236255 0 -0.20966764398743679 1 I I -0.70710678118654746 0.70710678118654746 0.25 forward I I I I #
loop $-1 $-1 $343 $87 #
coedge $-1 $217 $217 $344 $345 reversed $136 $-1 #
face $-1 $-1 $346 $70 $-1 $347 forward single #
loop $-1 $348 $349 $138 #
cone-surface $-1 62.03870933348351 13.209279538985555 8.6070896668713424 -0.83867057594974714 0 -0.54463902268945019 0.13615975567236255 0 -0.20966764398743679 1 I I -0.70710678118654746 0.70710678118654746 0.25 forward I I I I #
loop $-1 $-1 $350 $88 #
coedge $-1 $222 $222 $351 $352 reversed $139 $-1 #
face $-1 $-1 $353 $71 $-1 $354 forward single #
loop $-1 $355 $356 $141 #
cone-surface $-1 62.03870933348351 16.003520980469645 8.6070896668713424 -0.83867057594974714 0 -0.54463902268945019 0.13615975567236255 0 -0.20966764398743679 1 I I -0.70710678118654746 0.70710678118654746 0.25 forward I I I I #
loop $-1 $-1 $357 $89 #
coedge $-1 $227 $227 $358 $359 reversed $142 $-1 #
face $-1 $360 $361 $54 $-1 $362 reversed single #
loop $-1 $-1 $363 $144 #
plane-surface $-1 0 -28.103530951683339 0 0 1 0 0 0 1 forward_v I I I I #
coedge $-1 $364 $365 $366 $367 forward $145 $-1 #
coedge $-1 $368 $147 $369 $370 forward $91 $-1 #
coedge $-1 $147 $368 $371 $372 forward $91 $-1 #
coedge $-1 $373 $374 $147 $235 reversed $375 $-1 #
edge $-1 $376 -28.103530951683339 $377 28.103530951683339 $234 $378 forward 7 unknown #
face $-1 $379 $380 $55 $-1 $381 forward single #
loop $-1 $-1 $382 $148 #
plane-surface $-1 65.742973113193159 0 0 -1 0 0 0 0 1 forward_v I I I I #
coedge $-1 $383 $384 $385 $386 forward $149 $-1 #
coedge $-1 $385 $151 $382 $387 reversed $94 $-1 #
coedge $-1 $151 $385 $388 $389 reversed $94 $-1 #
coedge $-1 $390 $391 $151 $243 reversed $380 $-1 #
edge $-1 $392 -65.742973113193159 $393 65.742973113193159 $242 $394 forward 7 unknown #
face $-1 $395 $396 $56 $-1 $397 forward single #
loop $-1 $-1 $398 $152 #
plane-surface $-1 -176.01636736417407 0.1164609757278825 77.792361255760738 0 -1 0 0.83867057594974714 0 -0.54463902268945019 forward_v I I I I #
coedge $-1 $399 $400 $401 $402 reversed $153 $-1 #
coedge $-1 $249 $155 $403 $404 reversed $97 $-1 #
coedge $-1 $155 $248 $399 $405 reversed $97 $-1 #
coedge $-1 $401 $406 $155 $251 forward $396 $-1 #
edge $-1 $407 22.265210568893878 $408 26.680085757344784 $250 $409 forward 7 unknown #
loop $-1 $-1 $257 $156 #
plane-surface $-1 -65.742973113193173 -4.5406080934122528 6.1799840056240924 -0.83867057594974714 0 0.54463902268945019 0.54463902268945019 0 0.83867057594974714 forward_v I I I I #
loop $-1 $-1 $410 $99 #
coedge $-1 $255 $255 $256 $411 reversed $157 $-1 #
coedge $-1 $256 $256 $255 $411 forward $159 $-1 #
coedge $-1 $257 $257 $160 $258 forward $252 $-1 #
edge $-1 $412 0 $412 6.2831853071796004 $257 $413 forward 7 unknown #
loop $-1 $-1 $264 $161 #
plane-surface $-1 -65.742973113193173 -4.5406080934122528 6.1799840056240924 -0.83867057594974714 0 0.54463902268945019 0.54463902268945019 0 0.83867057594974714 forward_v I I I I #
loop $-1 $-1 $414 $102 #
coedge $-1 $262 $262 $263 $415 reversed $162 $-1 #
coedge $-1 $263 $263 $262 $415 forward $164 $-1 #
coedge $-1 $264 $264 $165 $265 forward $259 $-1 #
edge $-1 $416 0 $416 6.2831853071796004 $264 $417 forward 7 unknown #
loop $-1 $-1 $271 $166 #
plane-surface $-1 -65.742973113193173 -4.5406080934122528 6.1799840056240924 -0.83867057594974714 0 0.54463902268945019 0.54463902268945019 0 0.83867057594974714 forward_v I I I I #
loop $-1 $-1 $418 $105 #
coedge $-1 $269 $269 $270 $419 reversed $167 $-1 #
coedge $-1 $270 $270 $269 $419 forward $169 $-1 #
coedge $-1 $271 $271 $170 $272 forward $266 $-1 #
edge $-1 $420 0 $420 6.2831853071796004 $271 $421 forward 7 unknown #
face $-1 $422 $423 $60 $-1 $424 forward single #
loop $-1 $-1 $425 $171 #
plane-surface $-1 -176.01636736417407 17.866348608125691 77.792361255760738 0 -1 0 0.83867057594974714 0 -0.54463902268945019 forward_v I I I I #
coedge $-1 $426 $427 $428 $429 reversed $172 $-1 #
coedge $-1 $278 $174 $430 $431 reversed $109 $-1 #
coedge $-1 $174 $277 $426 $432 reversed $109 $-1 #
coedge $-1 $428 $433 $174 $280 forward $423 $-1 #
edge $-1 $434 22.265210568893878 $435 26.680085757344784 $279 $436 forward 7 unknown #
loop $-1 $-1 $286 $175 #
plane-surface $-1 -65.742973113193173 13.209279538985555 6.1799840056240924 -0.83867057594974714 0 0.54463902268945019 0.54463902268945019 0 0.83867057594974714 forward_v I I I I #
loop $-1 $-1 $437 $111 #
coedge $-1 $284 $284 $285 $438 reversed $176 $-1 #
coedge $-1 $285 $285 $284 $438 forward $178 $-1 #
coedge $-1 $286 $286 $179 $287 forward $281 $-1 #
edge $-1 $439 0 $439 6.2831853071796004 $286 $440 forward 7 unknown #
loop $-1 $-1 $293 $180 #
plane-surface $-1 -65.742973113193173 13.209279538985555 6.1799840056240924 -0.83867057594974714 0 0.54463902268945019 0.54463902268945019 0 0.83867057594974714 forward_v I I I I #
loop $-1 $-1 $441 $114 #
coedge $-1 $291 $291 $292 $442 reversed $181 $-1 #
coedge $-1 $292 $292 $291 $442 forward $183 $-1 #
coedge $-1 $293 $293 $184 $294 forward $288 $-1 #
edge $-1 $443 0 $443 6.2831853071796004 $293 $444 forward 7 unknown #
loop $-1 $-1 $300 $185 #
plane-surface $-1 -65.742973113193173 13.209279538985555 6.1799840056240924 -0.83867057594974714 0 0.54463902268945019 0.54463902268945019 0 0.83867057594974714 forward_v I I I I #
loop $-1 $-1 $445 $117 #
coedge $-1 $298 $298 $299 $446 reversed $186 $-1 #
coedge $-1 $299 $299 $298 $446 forward $188 $-1 #
coedge $-1 $300 $300 $189 $301 forward $295 $-1 #
edge $-1 $447 0 $447 6.2831853071796004 $300 $448 forward 7 unknown #
face $-1 $449 $450 $64 $-1 $451 reversed single #
loop $-1 $-1 $452 $190 #
plane-surface $-1 104.40399011403741 -9.1976771625523881 188.06575550674162 0 1 0 0.83867057594974714 0 0.54463902268945019 forward_v I I I I #
coedge $-1 $453 $454 $455 $456 reversed $191 $-1 #
coedge $-1 $307 $193 $457 $458 reversed $121 $-1 #
coedge $-1 $193 $306 $453 $459 reversed $121 $-1 #
coedge $-1 $455 $460 $193 $309 forward $461 $-1 #
edge $-1 $462 -13.540978056174453 $463 -9.1261028677235316 $308 $464 forward 7 unknown #
loop $-1 $-1 $315 $194 #
plane-surface $-1 -5.8694041369434871 -4.5406080934122528 116.45337825660498 0.83867057594974714 0 0.54463902268945019 0.54463902268945019 0 -0.83867057594974714 forward_v I I I I #
loop $-1 $-1 $465 $123 #
coedge $-1 $313 $313 $314 $466 reversed $195 $-1 #
coedge $-1 $314 $314 $313 $466 forward $197 $-1 #
coedge $-1 $315 $315 $198 $316 forward $310 $-1 #
edge $-1 $467 0 $467 6.2831853071796004 $315 $468 forward 7 unknown #
loop $-1 $-1 $322 $199 #
plane-surface $-1 -5.8694041369434871 -4.5406080934122528 116.45337825660498 0.83867057594974714 0 0.54463902268945019 0.54463902268945019 0 -0.83867057594974714 forward_v I I I I #
loop $-1 $-1 $469 $126 #
coedge $-1 $320 $320 $321 $470 reversed $200 $-1 #
coedge $-1 $321 $321 $320 $470 forward $202 $-1 #
coedge $-1 $322 $322 $203 $323 forward $317 $-1 #
edge $-1 $471 0 $471 6.2831853071796004 $322 $472 forward 7 unknown #
loop $-1 $-1 $329 $204 #
plane-surface $-1 -5.8694041369434871 -4.5406080934122528 116.45337825660498 0.83867057594974714 0 0.54463902268945019 0.54463902268945019 0 -0.83867057594974714 forward_v I I I I #
loop $-1 $-1 $473 $129 #
coedge $-1 $327 $327 $328 $474 reversed $205 $-1 #
coedge $-1 $328 $328 $327 $474 forward $207 $-1 #
coedge $-1 $329 $329 $208 $330 forward $324 $-1 #
edge $-1 $475 0 $475 6.2831853071796004 $329 $476 forward 7 unknown #
face $-1 $477 $478 $68 $-1 $479 reversed single #
loop $-1 $-1 $480 $209 #
plane-surface $-1 104.40399011403741 8.55221046984542 188.06575550674162 0 1 0 0.83867057594974714 0 0.54463902268945019 forward_v I I I I #
coedge $-1 $481 $482 $483 $484 reversed $210 $-1 #
coedge $-1 $336 $212 $485 $486 reversed $133 $-1 #
coedge $-1 $212 $335 $481 $487 reversed $133 $-1 #
coedge $-1 $483 $488 $212 $338 forward $489 $-1 #
edge $-1 $490 -13.540978056174453 $491 -9.1261028677235316 $337 $492 forward 7 unknown #
loop $-1 $-1 $344 $213 #
plane-surface $-1 -5.8694041369434871 13.209279538985555 116.45337825660498 0.83867057594974714 0 0.54463902268945019 0.54463902268945019 0 -0.83867057594974714 forward_v I I I I #
loop $-1 $-1 $493 $135 #
coedge $-1 $342 $342 $343 $494 reversed $214 $-1 #
coedge $-1 $343 $343 $342 $494 forward $216 $-1 #
coedge $-1 $344 $344 $217 $345 forward $339 $-1 #
edge $-1 $495 0 $495 6.2831853071796004 $344 $496 forward 7 unknown #
loop $-1 $-1 $351 $218 #
plane-surface $-1 -5.8694041369434871 13.209279538985555 116.45337825660498 0.83867057594974714 0 0.54463902268945019 0.54463902268945019 0 -0.83867057594974714 forward_v I I I I #
loop $-1 $-1 $497 $138 #
coedge $-1 $349 $349 $350 $498 reversed $219 $-1 #
coedge $-1 $350 $350 $349 $498 forward $221 $-1 #
coedge $-1 $351 $351 $222 $352 forward $346 $-1 #
edge $-1 $499 0 $499 6.2831853071796004 $351 $500 forward 7 unknown #
loop $-1 $-1 $358 $223 #
plane-surface $-1 -5.8694041369434871 13.209279538985555 116.45337825660498 0.83867057594974714 0 0.54463902268945019 0.54463902268945019 0 -0.83867057594974714 forward_v I I I I #
loop $-1 $-1 $501 $141 #
coedge $-1 $356 $356 $357 $502 reversed $224 $-1 #
coedge $-1 $357 $357 $356 $502 forward $226 $-1 #
coedge $-1 $358 $358 $227 $359 forward $353 $-1 #
edge $-1 $503 0 $503 6.2831853071796004 $358 $504 forward 7 unknown #
face $-1 $505 $506 $54 $-1 $507 reversed single #
loop $-1 $-1 $508 $228 #
plane-surface $-1 -65.742973113193159 0 0 1 0 0 0 0 -1 forward_v I I I I #
coedge $-1 $371 $509 $373 $510 reversed $229 $-1 #
coedge $-1 $511 $231 $509 $512 forward $145 $-1 #
coedge $-1 $231 $511 $513 $514 forward $145 $-1 #
coedge $-1 $374 $373 $231 $367 reversed $375 $-1 #
edge $-1 $515 -28.103530951683339 $516 28.103530951683339 $366 $517 forward 7 unknown #
coedge $-1 $233 $232 $518 $519 forward $91 $-1 #
coedge $-1 $520 $521 $232 $370 reversed $506 $-1 #
edge $-1 $377 -65.742973113193159 $522 65.742973113193159 $369 $523 forward 7 unknown #
coedge $-1 $524 $363 $233 $372 reversed $229 $-1 #
edge $-1 $525 -65.742973113193159 $376 65.742973113193159 $371 $526 forward 7 unknown #
coedge $-1 $366 $234 $363 $510 forward $375 $-1 #
coedge $-1 $234 $366 $520 $527 reversed $375 $-1 #
loop $-1 $-1 $373 $505 #
vertex $-1 $235 $528 #
vertex $-1 $235 $529 #
straight-curve $-1 65.742973113193159 0 12.978295846668207 0 1 0 I I #
face $-1 $530 $531 $55 $-1 $532 reversed single #
loop $-1 $-1 $391 $236 #
plane-surface $-1 0 -32.437866674469994 -9.9782958466682068 0 0 1 1 0 0 forward_v I I I I #
coedge $-1 $533 $534 $240 $387 forward $237 $-1 #
coedge $-1 $535 $239 $534 $536 forward $149 $-1 #
coedge $-1 $239 $535 $537 $538 forward $149 $-1 #
coedge $-1 $241 $240 $239 $386 reversed $94 $-1 #
edge $-1 $539 -65.742973113193159 $540 65.742973113193159 $239 $541 forward 7 unknown #
edge $-1 $540 -12.978295846668207 $393 -9.9782958466682068 $382 $542 forward 7 unknown #
coedge $-1 $537 $543 $241 $389 forward $544 $-1 #
edge $-1 $392 9.9782958466682068 $539 12.978295846668207 $388 $545 forward 7 unknown #
coedge $-1 $546 $242 $543 $547 forward $380 $-1 #
coedge $-1 $242 $546 $533 $548 forward $380 $-1 #
vertex $-1 $389 $549 #
vertex $-1 $548 $550 #
straight-curve $-1 0 -28.103530951683339 -9.9782958466682068 1 0 0 I I #
face $-1 $-1 $551 $56 $-1 $552 reversed single #
loop $-1 $-1 $250 $244 #
plane-surface $-1 0 0 12.978295846668207 0 0 1 1 0 0 forward_v I I I I #
coedge $-1 $553 $554 $555 $556 reversed $245 $-1 #
coedge $-1 $557 $247 $249 $405 forward $153 $-1 #
coedge $-1 $247 $557 $553 $558 forward $153 $-1 #
coedge $-1 $555 $250 $247 $402 forward $396 $-1 #
edge $-1 $408 -6.9273731158462617 $559 2.3867650224340089 $401 $560 forward 7 unknown #
coedge $-1 $561 $562 $248 $404 forward $551 $-1 #
edge $-1 $563 -32.716196622256255 $407 -25.917884781212162 $403 $564 forward 7 unknown #
edge $-1 $408 -8.1060574151482658 $563 -2.636201369357039e-014 $249 $565 forward 7 unknown #
coedge $-1 $250 $555 $561 $566 forward $396 $-1 #
vertex $-1 $404 $567 #
vertex $-1 $251 $568 #
straight-curve $-1 -88.008183682087036 -9.1976771625523881 12.978295846668203 1 0 0 I I #
coedge $-1 $410 $410 $-1 $569 reversed $254 $-1 #
edge $-1 $570 0 $570 6.2831853071796004 $255 $571 forward 7 unknown #
vertex $-1 $258 $572 #
ellipse-curve $-1 -63.535535518967713 -7.3348495348963354 9.5791399261461532 -0.83867057594974714 0 0.54463902268945019 0.2723195113447251 0 0.41933528797487357 1 I I #
coedge $-1 $414 $414 $-1 $573 reversed $261 $-1 #
edge $-1 $574 0 $574 6.2831853071796004 $262 $575 forward 7 unknown #
vertex $-1 $265 $576 #
ellipse-curve $-1 -63.535535518967713 -4.5406080934122528 9.5791399261461532 -0.83867057594974714 0 0.54463902268945019 0.2723195113447251 0 0.41933528797487357 1 I I #
coedge $-1 $418 $418 $-1 $577 reversed $268 $-1 #
edge $-1 $578 0 $578 6.2831853071796004 $269 $579 forward 7 unknown #
vertex $-1 $272 $580 #
ellipse-curve $-1 -63.535535518967713 -1.7463666519281702 9.5791399261461532 -0.83867057594974714 0 0.54463902268945019 0.2723195113447251 0 0.41933528797487357 1 I I #
face $-1 $-1 $581 $60 $-1 $582 reversed single #
loop $-1 $-1 $279 $273 #
plane-surface $-1 0 0 12.978295846668207 0 0 1 1 0 0 forward_v I I I I #
coedge $-1 $583 $584 $585 $586 reversed $274 $-1 #
coedge $-1 $587 $276 $278 $432 forward $172 $-1 #
coedge $-1 $276 $587 $583 $588 forward $172 $-1 #
coedge $-1 $585 $279 $276 $429 forward $423 $-1 #
edge $-1 $435 1.9475707003526423 $589 11.261708838632913 $428 $590 forward 7 unknown #
coedge $-1 $591 $592 $277 $431 forward $581 $-1 #
edge $-1 $593 -32.716196622256255 $434 -25.917884781212162 $430 $594 forward 7 unknown #
edge $-1 $435 -8.1060574151482658 $593 -2.636201369357039e-014 $278 $595 forward 7 unknown #
coedge $-1 $279 $585 $591 $596 forward $423 $-1 #
vertex $-1 $280 $597 #
vertex $-1 $280 $598 #
straight-curve $-1 -88.008183682087036 8.55221046984542 12.978295846668203 1 0 0 I I #
coedge $-1 $437 $437 $-1 $599 reversed $283 $-1 #
edge $-1 $600 0 $600 6.2831853071796004 $284 $601 forward 7 unknown #
vertex $-1 $287 $602 #
ellipse-curve $-1 -63.535535518967713 10.41503809750148 9.5791399261461532 -0.83867057594974714 0 0.54463902268945019 0.2723195113447251 0 0.41933528797487357 1 I I #
coedge $-1 $441 $441 $-1 $603 reversed $290 $-1 #
edge $-1 $604 0 $604 6.2831853071796004 $291 $605 forward 7 unknown #
vertex $-1 $294 $606 #
ellipse-curve $-1 -63.535535518967713 13.209279538985555 9.5791399261461532 -0.83867057594974714 0 0.54463902268945019 0.2723195113447251 0 0.41933528797487357 1 I I #
coedge $-1 $445 $445 $-1 $607 reversed $297 $-1 #
edge $-1 $608 0 $608 6.2831853071796004 $298 $609 forward 7 unknown #
vertex $-1 $301 $610 #
ellipse-curve $-1 -63.535535518967713 16.003520980469645 9.5791399261461532 -0.83867057594974714 0 0.54463902268945019 0.2723195113447251 0 0.41933528797487357 1 I I #
face $-1 $-1 $461 $64 $-1 $611 forward single #
loop $-1 $-1 $612 $302 #
plane-surface $-1 65.742973113193159 0 0 -1 0 0 0 0 1 forward_v I I I I #
coedge $-1 $613 $614 $615 $616 reversed $303 $-1 #
coedge $-1 $617 $305 $307 $459 forward $191 $-1 #
coedge $-1 $305 $617 $613 $618 forward $191 $-1 #
coedge $-1 $615 $308 $305 $456 forward $461 $-1 #
edge $-1 $463 -2.3867650224340089 $619 6.9273731158462617 $455 $620 forward 7 unknown #
coedge $-1 $621 $622 $306 $458 forward $450 $-1 #
edge $-1 $623 -87.852893747746734 $462 -81.054581906702609 $457 $624 forward 7 unknown #
edge $-1 $463 123.37988881123806 $623 131.48594622638632 $307 $625 forward 7 unknown #
coedge $-1 $308 $615 $621 $626 forward $461 $-1 #
loop $-1 $-1 $615 $449 #
vertex $-1 $458 $627 #
vertex $-1 $309 $628 #
straight-curve $-1 52.201995057018706 0.1164609757278825 12.978295846668203 -1 0 0 I I #
coedge $-1 $465 $465 $-1 $629 reversed $312 $-1 #
edge $-1 $630 0 $630 6.2831853071796004 $313 $631 forward 7 unknown #
vertex $-1 $316 $632 #
ellipse-curve $-1 63.535535518967713 -7.3348495348963354 9.5791399261461336 0.83867057594974714 0 0.54463902268945019 0.2723195113447251 0 -0.41933528797487357 1 I I #
coedge $-1 $469 $469 $-1 $633 reversed $319 $-1 #
edge $-1 $634 0 $634 6.2831853071796004 $320 $635 forward 7 unknown #
vertex $-1 $323 $636 #
ellipse-curve $-1 63.535535518967713 -4.5406080934122528 9.5791399261461336 0.83867057594974714 0 0.54463902268945019 0.2723195113447251 0 -0.41933528797487357 1 I I #
coedge $-1 $473 $473 $-1 $637 reversed $326 $-1 #
edge $-1 $638 0 $638 6.2831853071796004 $327 $639 forward 7 unknown #
vertex $-1 $330 $640 #
ellipse-curve $-1 63.535535518967713 -1.7463666519281702 9.5791399261461336 0.83867057594974714 0 0.54463902268945019 0.2723195113447251 0 -0.41933528797487357 1 I I #
face $-1 $-1 $489 $68 $-1 $641 forward single #
loop $-1 $-1 $642 $331 #
plane-surface $-1 65.742973113193159 0 0 -1 0 0 0 0 1 forward_v I I I I #
coedge $-1 $643 $644 $645 $646 reversed $332 $-1 #
coedge $-1 $647 $334 $336 $487 forward $210 $-1 #
coedge $-1 $334 $647 $643 $648 forward $210 $-1 #
coedge $-1 $645 $337 $334 $484 forward $489 $-1 #
edge $-1 $491 -11.261708838632913 $649 -1.9475707003526423 $483 $650 forward 7 unknown #
coedge $-1 $651 $652 $335 $486 forward $478 $-1 #
edge $-1 $653 -87.852893747746734 $490 -81.054581906702609 $485 $654 forward 7 unknown #
edge $-1 $491 123.37988881123806 $653 131.48594622638632 $336 $655 forward 7 unknown #
coedge $-1 $337 $645 $651 $656 forward $489 $-1 #
loop $-1 $-1 $645 $477 #
vertex $-1 $486 $657 #
vertex $-1 $338 $658 #
straight-curve $-1 52.201995057018706 17.866348608125691 12.978295846668203 -1 0 0 I I #
coedge $-1 $493 $493 $-1 $659 reversed $341 $-1 #
edge $-1 $660 0 $660 6.2831853071796004 $342 $661 forward 7 unknown #
vertex $-1 $345 $662 #
ellipse-curve $-1 63.535535518967713 10.41503809750148 9.5791399261461336 0.83867057594974714 0 0.54463902268945019 0.2723195113447251 0 -0.41933528797487357 1 I I #
coedge $-1 $497 $497 $-1 $663 reversed $348 $-1 #
edge $-1 $664 0 $664 6.2831853071796004 $349 $665 forward 7 unknown #
vertex $-1 $352 $666 #
ellipse-curve $-1 63.535535518967713 13.209279538985555 9.5791399261461336 0.83867057594974714 0 0.54463902268945019 0.2723195113447251 0 -0.41933528797487357 1 I I #
coedge $-1 $501 $501 $-1 $667 reversed $355 $-1 #
edge $-1 $668 0 $668 6.2831853071796004 $356 $669 forward 7 unknown #
vertex $-1 $359 $670 #
ellipse-curve $-1 63.535535518967713 16.003520980469645 9.5791399261461336 0.83867057594974714 0 0.54463902268945019 0.2723195113447251 0 -0.41933528797487357 1 I I #
face $-1 $-1 $375 $54 $-1 $671 reversed single #
loop $-1 $-1 $520 $360 #
plane-surface $-1 0 28.103530951683339 0 0 -1 0 0 0 -1 forward_v I I I I #
coedge $-1 $672 $518 $521 $673 forward $361 $-1 #
coedge $-1 $363 $524 $364 $512 reversed $229 $-1 #
edge $-1 $376 -12.978295846668207 $516 12.978295846668207 $373 $674 forward 7 unknown #
coedge $-1 $365 $364 $672 $675 forward $145 $-1 #
edge $-1 $516 -65.742973113193159 $676 65.742973113193159 $509 $677 forward 7 unknown #
coedge $-1 $521 $520 $365 $514 reversed $506 $-1 #
edge $-1 $678 -65.742973113193159 $515 65.742973113193159 $513 $679 forward 7 unknown #
vertex $-1 $367 $680 #
vertex $-1 $510 $681 #
straight-curve $-1 65.742973113193159 0 -12.978295846668207 0 -1 0 I I #
coedge $-1 $508 $682 $368 $519 reversed $361 $-1 #
edge $-1 $522 -28.103530951683339 $525 28.103530951683339 $518 $683 forward 7 unknown #
coedge $-1 $513 $369 $374 $527 forward $506 $-1 #
coedge $-1 $369 $513 $508 $673 reversed $506 $-1 #
vertex $-1 $370 $684 #
straight-curve $-1 0 28.103530951683339 12.978295846668207 -1 0 0 I I #
coedge $-1 $509 $371 $682 $685 forward $229 $-1 #
vertex $-1 $519 $686 #
straight-curve $-1 0 -28.103530951683339 12.978295846668207 1 0 0 I I #
edge $-1 $377 -12.978295846668207 $515 12.978295846668207 $374 $687 forward 7 unknown #
point $-1 65.742973113193159 -28.103530951683339 12.978295846668207 #
point $-1 65.742973113193159 28.103530951683339 12.978295846668207 #
face $-1 $-1 $544 $55 $-1 $688 reversed single #
loop $-1 $-1 $689 $379 #
plane-surface $-1 0 -36.772202397256649 -11.478295846668207 0 1 0 0 0 1 forward_v I I I I #
coedge $-1 $690 $382 $391 $548 reversed $237 $-1 #
coedge $-1 $382 $690 $383 $536 reversed $237 $-1 #
coedge $-1 $384 $383 $691 $692 forward $149 $-1 #
edge $-1 $540 28.103530951683339 $693 36.772202397256649 $534 $694 forward 7 unknown #
coedge $-1 $695 $388 $384 $538 reversed $544 $-1 #
edge $-1 $696 -36.772202397256649 $539 -28.103530951683339 $537 $697 forward 7 unknown #
vertex $-1 $389 $698 #
vertex $-1 $536 $699 #
straight-curve $-1 0 -28.103530951683339 -12.978295846668207 1 0 0 I I #
straight-curve $-1 65.742973113193159 -28.103530951683339 0 0 0 1 I I #
coedge $-1 $388 $695 $390 $547 reversed $544 $-1 #
loop $-1 $-1 $388 $530 #
straight-curve $-1 -65.742973113193159 -28.103530951683339 0 0 0 -1 I I #
coedge $-1 $391 $390 $700 $701 forward $380 $-1 #
edge $-1 $392 -4.3343357227866548 $702 4.3343357227866548 $543 $703 forward 7 unknown #
edge $-1 $704 -4.3343357227866548 $393 4.3343357227866548 $533 $705 forward 7 unknown #
point $-1 -65.742973113193159 -28.103530951683339 -9.9782958466682068 #
point $-1 65.742973113193159 -28.103530951683339 -9.9782958466682068 #
loop $-1 $-1 $403 $395 #
plane-surface $-1 -65.742973113193159 0 0 1 0 0 0 0 -1 forward_v I I I I #
coedge $-1 $554 $398 $400 $558 reversed $245 $-1 #
coedge $-1 $398 $553 $706 $707 reversed $245 $-1 #
coedge $-1 $406 $401 $398 $556 forward $396 $-1 #
edge $-1 $559 -26.680085757344784 $708 -22.265210568893878 $555 $709 forward 7 unknown #
coedge $-1 $400 $399 $562 $710 reversed $153 $-1 #
edge $-1 $711 2.636201369357039e-014 $559 8.1060574151482658 $553 $712 forward 7 unknown #
vertex $-1 $402 $713 #
straight-curve $-1 -61.328097924742245 -2.2703040467061264 12.978295846668207 0 1 0 I I #
coedge $-1 $706 $403 $406 $566 reversed $551 $-1 #
coedge $-1 $403 $706 $557 $710 forward $551 $-1 #
vertex $-1 $404 $714 #
straight-curve $-1 -65.742973113193159 -9.1976771625523881 38.896180627880369 0 0 1 I I #
straight-curve $-1 -65.742973113193173 -9.1976771625523881 6.1799840056240924 -0.54463902268945019 0 -0.83867057594974714 I I #
edge $-1 $708 -0.1164609757278825 $407 9.1976771625523881 $561 $715 forward 7 unknown #
point $-1 -65.742973113193159 -9.1976771625523881 12.978295846668207 #
point $-1 -61.328097924742252 -9.1976771625523881 12.978295846668207 #
edge $-1 $716 1 $716 0 $410 $-1 forward 7 unknown #
vertex $-1 $411 $717 #
ellipse-curve $-1 -62.248376977470926 -7.3348495348963354 8.7432494225437125 -0.83867057594974714 0 0.54463902268945019 0.2723195113447251 0 0.41933528797487357 1 I I #
point $-1 -63.263216007622972 -7.3348495348963354 9.998475214121024 #
edge $-1 $718 1 $718 0 $414 $-1 forward 7 unknown #
vertex $-1 $415 $719 #
ellipse-curve $-1 -62.248376977470926 -4.5406080934122528 8.7432494225437125 -0.83867057594974714 0 0.54463902268945019 0.2723195113447251 0 0.41933528797487357 1 I I #
point $-1 -63.263216007622972 -4.5406080934122528 9.998475214121024 #
edge $-1 $720 1 $720 0 $418 $-1 forward 7 unknown #
vertex $-1 $419 $721 #
ellipse-curve $-1 -62.248376977470926 -1.7463666519281702 8.7432494225437125 -0.83867057594974714 0 0.54463902268945019 0.2723195113447251 0 0.41933528797487357 1 I I #
point $-1 -63.263216007622972 -1.7463666519281702 9.998475214121024 #
loop $-1 $-1 $430 $422 #
plane-surface $-1 -65.742973113193159 0 0 1 0 0 0 0 -1 forward_v I I I I #
coedge $-1 $584 $425 $427 $588 reversed $274 $-1 #
coedge $-1 $425 $583 $722 $723 reversed $274 $-1 #
coedge $-1 $433 $428 $425 $586 forward $423 $-1 #
edge $-1 $589 -26.680085757344784 $724 -22.265210568893878 $585 $725 forward 7 unknown #
coedge $-1 $427 $426 $592 $726 reversed $172 $-1 #
edge $-1 $727 2.636201369357039e-014 $589 8.1060574151482658 $583 $728 forward 7 unknown #
vertex $-1 $429 $729 #
straight-curve $-1 -61.328097924742245 6.6046397694927776 12.978295846668207 0 1 0 I I #
coedge $-1 $722 $430 $433 $596 reversed $581 $-1 #
coedge $-1 $430 $722 $587 $726 forward $581 $-1 #
vertex $-1 $431 $730 #
straight-curve $-1 -65.742973113193159 8.55221046984542 38.896180627880369 0 0 1 I I #
straight-curve $-1 -65.742973113193173 8.55221046984542 6.1799840056240924 -0.54463902268945019 0 -0.83867057594974714 I I #
edge $-1 $724 -17.866348608125691 $434 -8.55221046984542 $591 $731 forward 7 unknown #
point $-1 -65.742973113193159 8.55221046984542 12.978295846668207 #
point $-1 -61.328097924742252 8.55221046984542 12.978295846668207 #
edge $-1 $732 1 $732 0 $437 $-1 forward 7 unknown #
vertex $-1 $438 $733 #
ellipse-curve $-1 -62.248376977470926 10.41503809750148 8.7432494225437125 -0.83867057594974714 0 0.54463902268945019 0.2723195113447251 0 0.41933528797487357 1 I I #
point $-1 -63.263216007622972 10.41503809750148 9.998475214121024 #
edge $-1 $734 1 $734 0 $441 $-1 forward 7 unknown #
vertex $-1 $442 $735 #
ellipse-curve $-1 -62.248376977470926 13.209279538985555 8.7432494225437125 -0.83867057594974714 0 0.54463902268945019 0.2723195113447251 0 0.41933528797487357 1 I I #
point $-1 -63.263216007622972 13.209279538985555 9.998475214121024 #
edge $-1 $736 1 $736 0 $445 $-1 forward 7 unknown #
vertex $-1 $446 $737 #
ellipse-curve $-1 -62.248376977470926 16.003520980469645 8.7432494225437125 -0.83867057594974714 0 0.54463902268945019 0.2723195113447251 0 0.41933528797487357 1 I I #
point $-1 -63.263216007622972 16.003520980469645 9.998475214121024 #
plane-surface $-1 0 0 12.978295846668207 0 0 1 1 0 0 forward_v I I I I #
coedge $-1 $622 $621 $614 $738 forward $450 $-1 #
coedge $-1 $614 $452 $454 $618 reversed $303 $-1 #
coedge $-1 $452 $613 $612 $738 reversed $303 $-1 #
coedge $-1 $460 $455 $452 $616 forward $461 $-1 #
edge $-1 $619 9.1261028677235316 $739 13.540978056174453 $615 $740 forward 7 unknown #
coedge $-1 $454 $453 $622 $741 reversed $191 $-1 #
edge $-1 $742 -131.48594622638632 $619 -123.37988881123806 $613 $743 forward 7 unknown #
vertex $-1 $456 $744 #
straight-curve $-1 61.328097924742238 -2.2703040467061264 12.978295846668203 0 -1 0 I I #
coedge $-1 $612 $457 $460 $626 reversed $450 $-1 #
coedge $-1 $457 $612 $617 $741 forward $450 $-1 #
vertex $-1 $458 $745 #
straight-curve $-1 65.742973113193159 0.1164609757278825 94.032877753370812 0 0 1 I I #
straight-curve $-1 -5.8694041369434871 0.1164609757278825 116.45337825660498 0.54463902268945019 0 -0.83867057594974714 I I #
edge $-1 $739 -9.1976771625523881 $462 0.1164609757278825 $621 $746 forward 7 unknown #
point $-1 65.742973113193159 0.1164609757278825 12.978295846668207 #
point $-1 61.328097924742238 0.1164609757278825 12.978295846668203 #
edge $-1 $747 1 $747 0 $465 $-1 forward 7 unknown #
vertex $-1 $466 $748 #
ellipse-curve $-1 62.248376977470947 -7.3348495348963354 8.7432494225437054 0.83867057594974714 0 0.54463902268945019 0.2723195113447251 0 -0.41933528797487357 1 I I #
point $-1 63.807855030312446 -7.3348495348963354 9.1598046381712699 #
edge $-1 $749 1 $749 0 $469 $-1 forward 7 unknown #
vertex $-1 $470 $750 #
ellipse-curve $-1 62.248376977470947 -4.5406080934122528 8.7432494225437054 0.83867057594974714 0 0.54463902268945019 0.2723195113447251 0 -0.41933528797487357 1 I I #
point $-1 63.807855030312446 -4.5406080934122528 9.1598046381712699 #
edge $-1 $751 1 $751 0 $473 $-1 forward 7 unknown #
vertex $-1 $474 $752 #
ellipse-curve $-1 62.248376977470947 -1.7463666519281702 8.7432494225437054 0.83867057594974714 0 0.54463902268945019 0.2723195113447251 0 -0.41933528797487357 1 I I #
point $-1 63.807855030312446 -1.7463666519281702 9.1598046381712699 #
plane-surface $-1 0 0 12.978295846668207 0 0 1 1 0 0 forward_v I I I I #
coedge $-1 $652 $651 $644 $753 forward $478 $-1 #
coedge $-1 $644 $480 $482 $648 reversed $332 $-1 #
coedge $-1 $480 $643 $642 $753 reversed $332 $-1 #
coedge $-1 $488 $483 $480 $646 forward $489 $-1 #
edge $-1 $649 9.1261028677235316 $754 13.540978056174453 $645 $755 forward 7 unknown #
coedge $-1 $482 $481 $652 $756 reversed $210 $-1 #
edge $-1 $757 -131.48594622638632 $649 -123.37988881123806 $643 $758 forward 7 unknown #
vertex $-1 $484 $759 #
straight-curve $-1 61.328097924742238 6.6046397694927776 12.978295846668203 0 -1 0 I I #
coedge $-1 $642 $485 $488 $656 reversed $478 $-1 #
coedge $-1 $485 $642 $647 $756 forward $478 $-1 #
vertex $-1 $486 $760 #
straight-curve $-1 65.742973113193159 17.866348608125691 94.032877753370812 0 0 1 I I #
straight-curve $-1 -5.8694041369434871 17.866348608125691 116.45337825660498 0.54463902268945019 0 -0.83867057594974714 I I #
edge $-1 $754 8.55221046984542 $490 17.866348608125691 $651 $761 forward 7 unknown #
point $-1 65.742973113193159 17.866348608125691 12.978295846668207 #
point $-1 61.328097924742238 17.866348608125691 12.978295846668203 #
edge $-1 $762 1 $762 0 $493 $-1 forward 7 unknown #
vertex $-1 $494 $763 #
ellipse-curve $-1 62.248376977470947 10.41503809750148 8.7432494225437054 0.83867057594974714 0 0.54463902268945019 0.2723195113447251 0 -0.41933528797487357 1 I I #
point $-1 63.807855030312446 10.41503809750148 9.1598046381712699 #
edge $-1 $764 1 $764 0 $497 $-1 forward 7 unknown #
vertex $-1 $498 $765 #
ellipse-curve $-1 62.248376977470947 13.209279538985555 8.7432494225437054 0.83867057594974714 0 0.54463902268945019 0.2723195113447251 0 -0.41933528797487357 1 I I #
point $-1 63.807855030312446 13.209279538985555 9.1598046381712699 #
edge $-1 $766 1 $766 0 $501 $-1 forward 7 unknown #
vertex $-1 $502 $767 #
ellipse-curve $-1 62.248376977470947 16.003520980469645 8.7432494225437054 0.83867057594974714 0 0.54463902268945019 0.2723195113447251 0 -0.41933528797487357 1 I I #
point $-1 63.807855030312446 16.003520980469645 9.1598046381712699 #
plane-surface $-1 65.742973113193159 0 0 -1 0 0 0 0 1 forward_v I I I I #
coedge $-1 $682 $508 $511 $675 reversed $361 $-1 #
edge $-1 $522 -12.978295846668207 $678 12.978295846668207 $521 $768 forward 7 unknown #
straight-curve $-1 65.742973113193159 -28.103530951683339 0 0 0 -1 I I #
edge $-1 $676 -28.103530951683339 $678 28.103530951683339 $672 $769 forward 7 unknown #
vertex $-1 $675 $770 #
straight-curve $-1 0 -28.103530951683339 -12.978295846668207 -1 0 0 I I #
vertex $-1 $514 $771 #
straight-curve $-1 0 28.103530951683339 -12.978295846668207 1 0 0 I I #
point $-1 65.742973113193159 28.103530951683339 -12.978295846668207 #
point $-1 65.742973113193159 -28.103530951683339 -12.978295846668207 #
coedge $-1 $518 $672 $524 $685 reversed $361 $-1 #
straight-curve $-1 -65.742973113193159 0 12.978295846668207 0 -1 0 I I #
point $-1 -65.742973113193159 28.103530951683339 12.978295846668207 #
edge $-1 $525 -12.978295846668207 $676 12.978295846668207 $682 $772 forward 7 unknown #
point $-1 -65.742973113193159 -28.103530951683339 12.978295846668207 #
straight-curve $-1 65.742973113193159 28.103530951683339 0 0 0 -1 I I #
plane-surface $-1 -65.742973113193159 0 0 1 0 0 0 0 -1 forward_v I I I I #
coedge $-1 $691 $700 $695 $773 forward $531 $-1 #
coedge $-1 $534 $533 $774 $775 forward $237 $-1 #
coedge $-1 $774 $689 $535 $692 reversed $531 $-1 #
edge $-1 $693 -65.742973113193159 $696 65.742973113193159 $691 $776 forward 7 unknown #
vertex $-1 $775 $777 #
straight-curve $-1 65.742973113193159 0 -12.978295846668207 0 -1 0 I I #
coedge $-1 $543 $537 $689 $773 reversed $544 $-1 #
vertex $-1 $538 $778 #
straight-curve $-1 -65.742973113193159 0 -12.978295846668207 0 1 0 I I #
point $-1 -65.742973113193159 -28.103530951683339 -12.978295846668207 #
point $-1 65.742973113193159 -28.103530951683339 -12.978295846668207 #
coedge $-1 $689 $774 $546 $701 reversed $531 $-1 #
edge $-1 $702 -65.742973113193159 $704 65.742973113193159 $700 $779 forward 7 unknown #
vertex $-1 $547 $780 #
straight-curve $-1 -65.742973113193159 -32.437866674469994 -9.9782958466682068 0 -1 0 I I #
vertex $-1 $548 $781 #
straight-curve $-1 65.742973113193159 -32.437866674469994 -9.9782958466682068 0 1 0 I I #
coedge $-1 $562 $561 $554 $707 forward $551 $-1 #
edge $-1 $708 25.917884781212162 $711 32.716196622256255 $706 $782 forward 7 unknown #
vertex $-1 $566 $783 #
straight-curve $-1 -88.008183682087036 0.1164609757278825 12.978295846668203 -1 0 0 I I #
edge $-1 $711 -2.3867650224340089 $563 6.9273731158462617 $562 $784 forward 7 unknown #
vertex $-1 $710 $785 #
straight-curve $-1 -65.742973113193173 0.1164609757278825 6.1799840056240924 0.54463902268945019 0 0.83867057594974714 I I #
point $-1 -61.328097924742252 0.1164609757278825 12.978295846668207 #
point $-1 -65.742973113193159 -9.1976771625523881 6.1799840056241147 #
straight-curve $-1 -65.742973113193159 0 12.978295846668207 0 -1 0 I I #
vertex $-1 $569 $786 #
point $-1 -61.9760574661262 -7.3348495348963354 9.1625847105185851 #
vertex $-1 $573 $787 #
point $-1 -61.9760574661262 -4.5406080934122528 9.1625847105185851 #
vertex $-1 $577 $788 #
point $-1 -61.9760574661262 -1.7463666519281702 9.1625847105185851 #
coedge $-1 $592 $591 $584 $723 forward $581 $-1 #
edge $-1 $724 25.917884781212162 $727 32.716196622256255 $722 $789 forward 7 unknown #
vertex $-1 $596 $790 #
straight-curve $-1 -88.008183682087036 17.866348608125691 12.978295846668203 -1 0 0 I I #
edge $-1 $727 -11.261708838632913 $593 -1.9475707003526423 $592 $791 forward 7 unknown #
vertex $-1 $726 $792 #
straight-curve $-1 -65.742973113193173 17.866348608125691 6.1799840056240924 0.54463902268945019 0 0.83867057594974714 I I #
point $-1 -61.328097924742252 17.866348608125691 12.978295846668207 #
point $-1 -65.742973113193159 8.55221046984542 6.1799840056241147 #
straight-curve $-1 -65.742973113193159 0 12.978295846668207 0 -1 0 I I #
vertex $-1 $599 $793 #
point $-1 -61.9760574661262 10.41503809750148 9.1625847105185851 #
vertex $-1 $603 $794 #
point $-1 -61.9760574661262 13.209279538985555 9.1625847105185851 #
vertex $-1 $607 $795 #
point $-1 -61.9760574661262 16.003520980469645 9.1625847105185851 #
edge $-1 $739 81.054581906702609 $742 87.852893747746734 $612 $796 forward 7 unknown #
vertex $-1 $626 $797 #
straight-curve $-1 52.201995057018706 -9.1976771625523881 12.978295846668203 1 0 0 I I #
edge $-1 $742 -6.9273731158462617 $623 2.3867650224340089 $622 $798 forward 7 unknown #
vertex $-1 $741 $799 #
straight-curve $-1 -5.8694041369434871 -9.1976771625523881 116.45337825660498 -0.54463902268945019 0 0.83867057594974714 I I #
point $-1 61.328097924742238 -9.1976771625523881 12.978295846668203 #
point $-1 65.742973113193159 0.1164609757278825 6.1799840056240782 #
straight-curve $-1 65.742973113193159 0 12.978295846668207 0 1 0 I I #
vertex $-1 $629 $800 #
point $-1 62.520696488815673 -7.3348495348963354 8.323914134568831 #
vertex $-1 $633 $801 #
point $-1 62.520696488815673 -4.5406080934122528 8.323914134568831 #
vertex $-1 $637 $802 #
point $-1 62.520696488815673 -1.7463666519281702 8.323914134568831 #
edge $-1 $754 81.054581906702609 $757 87.852893747746734 $642 $803 forward 7 unknown #
vertex $-1 $656 $804 #
straight-curve $-1 52.201995057018706 8.55221046984542 12.978295846668203 1 0 0 I I #
edge $-1 $757 1.9475707003526423 $653 11.261708838632913 $652 $805 forward 7 unknown #
vertex $-1 $756 $806 #
straight-curve $-1 -5.8694041369434871 8.55221046984542 116.45337825660498 -0.54463902268945019 0 0.83867057594974714 I I #
point $-1 61.328097924742238 8.55221046984542 12.978295846668203 #
point $-1 65.742973113193159 17.866348608125691 6.1799840056240782 #
straight-curve $-1 65.742973113193159 0 12.978295846668207 0 1 0 I I #
vertex $-1 $659 $807 #
point $-1 62.520696488815673 10.41503809750148 8.323914134568831 #
vertex $-1 $663 $808 #
point $-1 62.520696488815673 13.209279538985555 8.323914134568831 #
vertex $-1 $667 $809 #
point $-1 62.520696488815673 16.003520980469645 8.323914134568831 #
straight-curve $-1 -65.742973113193159 28.103530951683339 0 0 0 -1 I I #
straight-curve $-1 -65.742973113193159 0 -12.978295846668207 0 1 0 I I #
point $-1 -65.742973113193159 -28.103530951683339 -12.978295846668207 #
point $-1 -65.742973113193159 28.103530951683339 -12.978295846668207 #
straight-curve $-1 -65.742973113193159 -28.103530951683339 0 0 0 -1 I I #
edge $-1 $702 -1.5 $696 1.5 $695 $810 forward 7 unknown #
coedge $-1 $700 $691 $690 $775 reversed $531 $-1 #
edge $-1 $704 -1.5 $693 1.5 $690 $811 forward 7 unknown #
straight-curve $-1 0 -36.772202397256649 -12.978295846668207 -1 0 0 I I #
point $-1 65.742973113193159 -36.772202397256649 -12.978295846668207 #
point $-1 -65.742973113193159 -36.772202397256649 -12.978295846668207 #
straight-curve $-1 0 -36.772202397256649 -9.9782958466682068 1 0 0 I I #
point $-1 -65.742973113193159 -36.772202397256649 -9.9782958466682068 #
point $-1 65.742973113193159 -36.772202397256649 -9.9782958466682068 #
straight-curve $-1 -65.742973113193159 0.1164609757278825 38.896180627880369 0 0 -1 I I #
point $-1 -65.742973113193159 0.1164609757278825 12.978295846668207 #
straight-curve $-1 -65.742973113193159 -2.2703040467061264 6.1799840056241058 0 -1 0 I I #
point $-1 -65.742973113193159 0.1164609757278825 6.1799840056241147 #
point $-1 -61.829041689496052 -7.3348495348963354 8.4709299111989864 #
point $-1 -61.829041689496052 -4.5406080934122528 8.4709299111989864 #
point $-1 -61.829041689496052 -1.7463666519281702 8.4709299111989864 #
straight-curve $-1 -65.742973113193159 17.866348608125691 38.896180627880369 0 0 -1 I I #
point $-1 -65.742973113193159 17.866348608125691 12.978295846668207 #
straight-curve $-1 -65.742973113193159 6.6046397694927776 6.1799840056241058 0 -1 0 I I #
point $-1 -65.742973113193159 17.866348608125691 6.1799840056241147 #
point $-1 -61.829041689496052 10.41503809750148 8.4709299111989864 #
point $-1 -61.829041689496052 13.209279538985555 8.4709299111989864 #
point $-1 -61.829041689496052 16.003520980469645 8.4709299111989864 #
straight-curve $-1 65.742973113193159 -9.1976771625523881 94.032877753370812 0 0 -1 I I #
point $-1 65.742973113193159 -9.1976771625523881 12.978295846668207 #
straight-curve $-1 65.742973113193159 -2.2703040467061264 6.1799840056240853 0 1 0 I I #
point $-1 65.742973113193159 -9.1976771625523881 6.1799840056240782 #
point $-1 61.829041689496073 -7.3348495348963354 8.4709299111989793 #
point $-1 61.829041689496073 -4.5406080934122528 8.4709299111989793 #
point $-1 61.829041689496073 -1.7463666519281702 8.4709299111989793 #
straight-curve $-1 65.742973113193159 8.55221046984542 94.032877753370812 0 0 -1 I I #
point $-1 65.742973113193159 8.55221046984542 12.978295846668207 #
straight-curve $-1 65.742973113193159 6.6046397694927776 6.1799840056240853 0 1 0 I I #
point $-1 65.742973113193159 8.55221046984542 6.1799840056240782 #
point $-1 61.829041689496073 10.41503809750148 8.4709299111989793 #
point $-1 61.829041689496073 13.209279538985555 8.4709299111989793 #
point $-1 61.829041689496073 16.003520980469645 8.4709299111989793 #
straight-curve $-1 -65.742973113193159 -36.772202397256649 -11.478295846668207 0 0 -1 I I #
straight-curve $-1 65.742973113193159 -36.772202397256649 -11.478295846668207 0 0 -1 I I #
End-of-ACIS-data 