500 0 8 0           
7 Unknown 11 ACIS 5.0 NT 24 Thu Mar 25 21:49:47 1999 
-1 9.9999999999999995e-007 1e-010 
body $-1 $8 $-1 $9 #
body $-1 $10 $-1 $11 #
body $-1 $12 $-1 $13 #
body $-1 $14 $-1 $15 #
body $-1 $16 $-1 $17 #
body $-1 $18 $-1 $19 #
body $-1 $20 $-1 $21 #
body $-1 $22 $-1 $23 #
lump $-1 $-1 $24 $0 #
transform $-1 1 0 0 0 1 0 0 0 1 57.172154911954102 28.816217756672469 8.992767049604959 1 rotate no_reflect no_shear #
lump $-1 $-1 $25 $1 #
transform $-1 1 0 0 0 1 0 0 0 1 57.172154911954102 28.816217756672469 8.992767049604959 1 rotate no_reflect no_shear #
lump $-1 $-1 $26 $2 #
transform $-1 1 0 0 0 1 0 0 0 1 57.172154911954102 28.816217756672469 8.992767049604959 1 rotate no_reflect no_shear #
lump $-1 $-1 $27 $3 #
transform $-1 1 0 0 0 1 0 0 0 1 57.172154911954102 28.816217756672469 8.992767049604959 1 rotate no_reflect no_shear #
lump $-1 $-1 $28 $4 #
transform $-1 1 0 0 0 1 0 0 0 1 57.172154911954102 28.816217756672469 8.992767049604959 1 rotate no_reflect no_shear #
lump $-1 $-1 $29 $5 #
transform $-1 1 0 0 0 1 0 0 0 1 57.172154911954102 28.816217756672469 8.992767049604959 1 rotate no_reflect no_shear #
lump $-1 $-1 $30 $6 #
transform $-1 1 0 0 0 1 0 0 0 1 57.172154911954102 28.816217756672469 8.992767049604959 1 rotate no_reflect no_shear #
lump $-1 $-1 $31 $7 #
transform $-1 1 0 0 0 1 0 0 0 1 57.172154911954102 28.816217756672469 8.992767049604959 1 rotate no_reflect no_shear #
shell $-1 $-1 $-1 $32 $-1 $8 #
shell $-1 $-1 $-1 $33 $-1 $10 #
shell $-1 $-1 $-1 $34 $-1 $12 #
shell $-1 $-1 $-1 $35 $-1 $14 #
shell $-1 $-1 $-1 $36 $-1 $16 #
shell $-1 $-1 $-1 $37 $-1 $18 #
shell $-1 $-1 $-1 $38 $-1 $20 #
shell $-1 $-1 $-1 $39 $-1 $22 #
face $-1 $40 $41 $24 $-1 $42 forward single #
face $-1 $43 $44 $25 $-1 $45 forward single #
face $-1 $46 $47 $26 $-1 $48 reversed single #
face $-1 $49 $50 $27 $-1 $51 forward single #
face $-1 $52 $53 $28 $-1 $54 reversed single #
face $-1 $55 $56 $29 $-1 $57 forward single #
face $-1 $58 $59 $30 $-1 $60 reversed single #
face $-1 $61 $62 $31 $-1 $63 forward single #
face $-1 $64 $65 $24 $-1 $66 reversed single #
loop $-1 $-1 $67 $32 #
plane-surface $-1 0 0 8.992767049604959 0 0 1 1 0 0 forward_v I I I I #
face $-1 $68 $69 $25 $-1 $70 forward single #
loop $-1 $-1 $71 $33 #
plane-surface $-1 0 -28.816217756672469 0 0 1 0 0 0 1 forward_v I I I I #
face $-1 $72 $73 $26 $-1 $74 reversed single #
loop $-1 $-1 $75 $34 #
plane-surface $-1 20.795934490610641 -1.0067593870712024 157.82773515452303 0 -1 0 -0.52991927123019833 0 -0.84804809178421925 forward_v I I I I #
face $-1 $76 $77 $27 $-1 $78 forward single #
loop $-1 $79 $80 $35 #
cone-surface $-1 49.147421521188811 -4.8302077833277899 2.9628329374124354 -0.52991927123019833 0 -0.84804809178421925 1.2720721376763289 0 -0.79487890684529749 1 I I 0 1 1.5 forward I I I I #
face $-1 $81 $82 $28 $-1 $83 reversed single #
loop $-1 $-1 $84 $36 #
plane-surface $-1 20.795934490610641 16.444421777795039 157.82773515452303 0 -1 0 -0.52991927123019833 0 -0.84804809178421925 forward_v I I I I #
face $-1 $85 $86 $29 $-1 $87 forward single #
loop $-1 $88 $89 $37 #
cone-surface $-1 49.147421521188811 12.620973381538452 2.9628329374124354 -0.52991927123019833 0 -0.84804809178421925 1.2720721376763289 0 -0.79487890684529749 1 I I 0 1 1.5 forward I I I I #
face $-1 $90 $91 $30 $-1 $92 reversed single #
loop $-1 $-1 $93 $38 #
plane-surface $-1 -124.38205476865775 17.380623581866708 95.149071438420179 0 1 0 -0.5877852598018023 0 0.80901698891910034 forward_v I I I I #
face $-1 $94 $95 $31 $-1 $96 forward single #
loop $-1 $97 $98 $39 #
cone-surface $-1 -52.323940757740537 21.57786041375353 5.1596616332099643 0.5877852598018023 0 -0.80901698891910034 0.80901698891910034 0 0.5877852598018023 1 I I 0 1 1 forward I I I I #
face $-1 $99 $100 $24 $-1 $101 reversed single #
loop $-1 $-1 $102 $40 #
plane-surface $-1 0 0 -8.992767049604959 0 0 1 1 0 0 forward_v I I I I #
coedge $-1 $103 $104 $105 $106 forward $41 $-1 #
face $-1 $107 $108 $25 $-1 $109 reversed single #
loop $-1 $-1 $110 $43 #
plane-surface $-1 0 0 8.992767049604959 0 0 1 1 0 0 forward_v I I I I #
coedge $-1 $111 $112 $113 $114 forward $44 $-1 #
face $-1 $115 $116 $26 $-1 $117 reversed single #
loop $-1 $-1 $118 $46 #
plane-surface $-1 -39.797318840594805 -4.8302077833277899 60.858261401974119 0.52991927123019833 0 0.84804809178421925 0.84804809178421925 0 -0.52991927123019833 forward_v I I I I #
coedge $-1 $119 $120 $121 $122 reversed $47 $-1 #
face $-1 $-1 $123 $27 $-1 $124 forward single #
loop $-1 $125 $126 $49 #
cone-surface $-1 47.70891557627413 -4.8302077833277899 0.66074224579987906 -0.52991927123019833 0 -0.84804809178421925 0.63603606883816444 0 -0.39743945342264875 1 I I -0.70710678118654757 0.70710678118654757 0.75 forward I I I I #
loop $-1 $-1 $127 $35 #
coedge $-1 $80 $80 $128 $129 reversed $50 $-1 #
face $-1 $130 $131 $28 $-1 $132 reversed single #
loop $-1 $-1 $133 $52 #
plane-surface $-1 -39.797318840594805 12.620973381538452 60.858261401974119 0.52991927123019833 0 0.84804809178421925 0.84804809178421925 0 -0.52991927123019833 forward_v I I I I #
coedge $-1 $134 $135 $136 $137 reversed $53 $-1 #
face $-1 $-1 $138 $29 $-1 $139 forward single #
loop $-1 $140 $141 $55 #
cone-surface $-1 47.70891557627413 12.620973381538452 0.66074224579987906 -0.52991927123019833 0 -0.84804809178421925 0.63603606883816444 0 -0.39743945342264875 1 I I -0.70710678118654757 0.70710678118654757 0.75 forward I I I I #
loop $-1 $-1 $142 $37 #
coedge $-1 $89 $89 $143 $144 reversed $56 $-1 #
face $-1 $145 $146 $30 $-1 $147 reversed single #
loop $-1 $-1 $148 $58 #
plane-surface $-1 -57.172154911954095 21.57786041375353 2.6425822046492584 -0.5877852598018023 0 0.80901698891910034 0.80901698891910034 0 0.5877852598018023 forward_v I I I I #
coedge $-1 $149 $150 $151 $152 reversed $59 $-1 #
face $-1 $-1 $153 $31 $-1 $154 forward single #
loop $-1 $155 $156 $61 #
cone-surface $-1 -51.551973694446957 21.57786041375353 4.0971401448332738 0.5877852598018023 0 -0.80901698891910034 0.40450849445955017 0 0.29389262990090115 1 I I -0.70710678118654746 0.70710678118654746 0.5 forward I I I I #
loop $-1 $-1 $157 $39 #
coedge $-1 $98 $98 $158 $159 reversed $62 $-1 #
face $-1 $160 $161 $24 $-1 $162 reversed single #
loop $-1 $-1 $163 $64 #
plane-surface $-1 0 -28.816217756672469 0 0 1 0 0 0 1 forward_v I I I I #
coedge $-1 $164 $165 $166 $167 forward $65 $-1 #
coedge $-1 $168 $67 $169 $170 forward $41 $-1 #
coedge $-1 $67 $168 $171 $172 forward $41 $-1 #
coedge $-1 $173 $174 $67 $106 reversed $175 $-1 #
edge $-1 $176 -28.816217756672469 $177 28.816217756672469 $105 $178 forward 7 unknown #
face $-1 $179 $180 $25 $-1 $181 reversed single #
loop $-1 $-1 $182 $68 #
plane-surface $-1 -57.172154911954102 0 0 1 0 0 0 0 -1 forward_v I I I I #
coedge $-1 $183 $184 $185 $186 forward $69 $-1 #
coedge $-1 $185 $71 $182 $187 reversed $44 $-1 #
coedge $-1 $71 $185 $188 $189 reversed $44 $-1 #
coedge $-1 $190 $191 $71 $114 reversed $180 $-1 #
edge $-1 $192 -57.172154911954102 $193 57.172154911954102 $113 $194 forward 7 unknown #
face $-1 $195 $196 $26 $-1 $197 reversed single #
loop $-1 $-1 $198 $72 #
plane-surface $-1 20.795934490610641 -8.6536561795843774 157.82773515452303 0 1 0 0.52991927123019833 0 0.84804809178421925 forward_v I I I I #
coedge $-1 $199 $200 $201 $202 reversed $73 $-1 #
coedge $-1 $120 $75 $203 $204 reversed $47 $-1 #
coedge $-1 $75 $119 $199 $205 reversed $47 $-1 #
coedge $-1 $201 $206 $75 $122 forward $207 $-1 #
edge $-1 $208 -46.774187666648785 $209 -32.806853868102252 $121 $210 forward 7 unknown #
loop $-1 $-1 $128 $76 #
plane-surface $-1 -39.797318840594805 -4.8302077833277899 60.858261401974119 0.52991927123019833 0 0.84804809178421925 0.84804809178421925 0 -0.52991927123019833 forward_v I I I I #
loop $-1 $-1 $211 $49 #
coedge $-1 $126 $126 $127 $212 reversed $77 $-1 #
coedge $-1 $127 $127 $126 $212 forward $79 $-1 #
coedge $-1 $128 $128 $80 $129 forward $123 $-1 #
edge $-1 $213 0 $213 6.2831853071796004 $128 $214 forward 7 unknown #
face $-1 $215 $216 $28 $-1 $217 reversed single #
loop $-1 $-1 $218 $81 #
plane-surface $-1 20.795934490610641 8.7975249852818642 157.82773515452303 0 1 0 0.52991927123019833 0 0.84804809178421925 forward_v I I I I #
coedge $-1 $219 $220 $221 $222 reversed $82 $-1 #
coedge $-1 $135 $84 $223 $224 reversed $53 $-1 #
coedge $-1 $84 $134 $219 $225 reversed $53 $-1 #
coedge $-1 $221 $226 $84 $137 forward $227 $-1 #
edge $-1 $228 -46.774187666648785 $229 -32.806853868102252 $136 $230 forward 7 unknown #
loop $-1 $-1 $143 $85 #
plane-surface $-1 -39.797318840594805 12.620973381538452 60.858261401974119 0.52991927123019833 0 0.84804809178421925 0.84804809178421925 0 -0.52991927123019833 forward_v I I I I #
loop $-1 $-1 $231 $55 #
coedge $-1 $141 $141 $142 $232 reversed $86 $-1 #
coedge $-1 $142 $142 $141 $232 forward $88 $-1 #
coedge $-1 $143 $143 $89 $144 forward $138 $-1 #
edge $-1 $233 0 $233 6.2831853071796004 $143 $234 forward 7 unknown #
face $-1 $235 $236 $30 $-1 $237 forward single #
loop $-1 $-1 $238 $90 #
plane-surface $-1 -124.38205476865775 25.775097245640353 95.149071438420179 0 -1 0 0.5877852598018023 0 -0.80901698891910034 forward_v I I I I #
coedge $-1 $239 $240 $241 $242 reversed $91 $-1 #
coedge $-1 $150 $93 $243 $244 reversed $59 $-1 #
coedge $-1 $93 $149 $239 $245 reversed $59 $-1 #
coedge $-1 $241 $246 $93 $152 forward $236 $-1 #
edge $-1 $247 5.018872472374774 $248 13.759151914016556 $151 $249 forward 7 unknown #
loop $-1 $-1 $158 $94 #
plane-surface $-1 -57.172154911954095 21.57786041375353 2.6425822046492584 -0.5877852598018023 0 0.80901698891910034 0.80901698891910034 0 0.5877852598018023 forward_v I I I I #
loop $-1 $-1 $250 $61 #
coedge $-1 $156 $156 $157 $251 reversed $95 $-1 #
coedge $-1 $157 $157 $156 $251 forward $97 $-1 #
coedge $-1 $158 $158 $98 $159 forward $153 $-1 #
edge $-1 $252 0 $252 6.2831853071796004 $158 $253 forward 7 unknown #
face $-1 $254 $255 $24 $-1 $256 reversed single #
loop $-1 $-1 $257 $99 #
plane-surface $-1 -57.172154911954102 0 0 1 0 0 0 0 -1 forward_v I I I I #
coedge $-1 $258 $171 $259 $260 forward $100 $-1 #
coedge $-1 $261 $102 $258 $262 forward $65 $-1 #
coedge $-1 $102 $261 $263 $264 forward $65 $-1 #
coedge $-1 $174 $173 $102 $167 reversed $175 $-1 #
edge $-1 $265 -28.816217756672469 $266 28.816217756672469 $166 $267 forward 7 unknown #
coedge $-1 $104 $103 $268 $269 forward $41 $-1 #
coedge $-1 $270 $271 $103 $170 reversed $255 $-1 #
edge $-1 $177 -57.172154911954102 $272 57.172154911954102 $169 $273 forward 7 unknown #
coedge $-1 $163 $274 $104 $172 reversed $100 $-1 #
edge $-1 $275 -57.172154911954102 $176 57.172154911954102 $171 $276 forward 7 unknown #
coedge $-1 $166 $105 $274 $277 forward $175 $-1 #
coedge $-1 $105 $166 $270 $278 reversed $175 $-1 #
loop $-1 $-1 $173 $254 #
vertex $-1 $106 $279 #
vertex $-1 $106 $280 #
straight-curve $-1 57.172154911954102 0 8.992767049604959 0 1 0 I I #
face $-1 $281 $282 $25 $-1 $283 reversed single #
loop $-1 $-1 $190 $107 #
plane-surface $-1 0 -32.7116005557778 5.992767049604959 0 0 1 1 0 0 forward_v I I I I #
coedge $-1 $284 $285 $111 $187 forward $108 $-1 #
coedge $-1 $286 $110 $285 $287 forward $69 $-1 #
coedge $-1 $110 $286 $288 $289 forward $69 $-1 #
coedge $-1 $112 $111 $110 $186 reversed $44 $-1 #
edge $-1 $290 -57.172154911954102 $291 57.172154911954102 $110 $292 forward 7 unknown #
edge $-1 $291 -8.992767049604959 $193 -5.992767049604959 $182 $293 forward 7 unknown #
coedge $-1 $288 $294 $112 $189 forward $295 $-1 #
edge $-1 $192 5.992767049604959 $290 8.992767049604959 $188 $296 forward 7 unknown #
coedge $-1 $297 $113 $294 $298 forward $180 $-1 #
coedge $-1 $113 $297 $284 $299 forward $180 $-1 #
vertex $-1 $189 $300 #
vertex $-1 $187 $301 #
straight-curve $-1 0 -28.816217756672469 5.992767049604959 -1 0 0 I I #
face $-1 $-1 $207 $26 $-1 $302 forward single #
loop $-1 $-1 $303 $115 #
plane-surface $-1 57.172154911954102 0 0 -1 0 0 0 0 1 forward_v I I I I #
coedge $-1 $304 $305 $306 $307 reversed $116 $-1 #
coedge $-1 $308 $118 $120 $205 forward $73 $-1 #
coedge $-1 $118 $308 $304 $309 forward $73 $-1 #
coedge $-1 $306 $121 $118 $202 forward $207 $-1 #
edge $-1 $209 -1.4083445045926926 $310 6.2385522879204824 $201 $311 forward 7 unknown #
coedge $-1 $312 $313 $119 $204 forward $196 $-1 #
edge $-1 $314 -78.64885950649284 $208 -69.921100527656549 $203 $315 forward 7 unknown #
edge $-1 $209 97.874331371199844 $314 114.34430982390822 $120 $316 forward 7 unknown #
coedge $-1 $121 $306 $312 $317 forward $207 $-1 #
loop $-1 $-1 $306 $195 #
vertex $-1 $204 $318 #
vertex $-1 $122 $319 #
straight-curve $-1 10.39796724530532 -1.0067593870712024 8.9927670496049643 -1 0 0 I I #
coedge $-1 $211 $211 $-1 $320 reversed $125 $-1 #
edge $-1 $321 0 $321 6.2831853071796004 $126 $322 forward 7 unknown #
vertex $-1 $129 $323 #
ellipse-curve $-1 50.188488012680835 -4.8302077833277899 4.628887560186822 0.52991927123019833 0 0.84804809178421925 1.2720721376763289 0 -0.79487890684529749 1 I I #
face $-1 $-1 $227 $28 $-1 $324 forward single #
loop $-1 $-1 $325 $130 #
plane-surface $-1 57.172154911954102 0 0 -1 0 0 0 0 1 forward_v I I I I #
coedge $-1 $326 $327 $328 $329 reversed $131 $-1 #
coedge $-1 $330 $133 $135 $225 forward $82 $-1 #
coedge $-1 $133 $330 $326 $331 forward $82 $-1 #
coedge $-1 $328 $136 $133 $222 forward $227 $-1 #
edge $-1 $229 -10.133935087025813 $332 -2.4870382945126384 $221 $333 forward 7 unknown #
coedge $-1 $334 $335 $134 $224 forward $216 $-1 #
edge $-1 $336 -78.64885950649284 $228 -69.921100527656549 $223 $337 forward 7 unknown #
edge $-1 $229 97.874331371199844 $336 114.34430982390822 $135 $338 forward 7 unknown #
coedge $-1 $136 $328 $334 $339 forward $227 $-1 #
loop $-1 $-1 $328 $215 #
vertex $-1 $224 $340 #
vertex $-1 $137 $341 #
straight-curve $-1 10.39796724530532 16.444421777795039 8.9927670496049643 -1 0 0 I I #
coedge $-1 $231 $231 $-1 $342 reversed $140 $-1 #
edge $-1 $343 0 $343 6.2831853071796004 $141 $344 forward 7 unknown #
vertex $-1 $144 $345 #
ellipse-curve $-1 50.188488012680835 12.620973381538452 4.628887560186822 0.52991927123019833 0 0.84804809178421925 1.2720721376763289 0 -0.79487890684529749 1 I I #
face $-1 $-1 $346 $30 $-1 $347 reversed single #
loop $-1 $-1 $151 $145 #
plane-surface $-1 0 0 8.992767049604959 0 0 1 1 0 0 forward_v I I I I #
coedge $-1 $348 $349 $350 $351 reversed $146 $-1 #
coedge $-1 $352 $148 $150 $245 forward $91 $-1 #
coedge $-1 $148 $352 $348 $353 forward $91 $-1 #
coedge $-1 $350 $151 $148 $242 forward $236 $-1 #
edge $-1 $248 6.5916933749899425 $354 14.986167038763588 $241 $355 forward 7 unknown #
coedge $-1 $356 $357 $149 $244 forward $346 $-1 #
edge $-1 $358 -44.931953514560838 $247 -38.581768669605133 $243 $359 forward 7 unknown #
edge $-1 $248 -10.803579605070299 $358 8.8807605448725156e-015 $150 $360 forward 7 unknown #
coedge $-1 $151 $350 $356 $361 forward $236 $-1 #
vertex $-1 $244 $362 #
vertex $-1 $152 $363 #
straight-curve $-1 -62.191027384328876 17.380623581866708 8.9927670496049572 1 0 0 I I #
coedge $-1 $250 $250 $-1 $364 reversed $155 $-1 #
edge $-1 $365 0 $365 6.2831853071796004 $156 $366 forward 7 unknown #
vertex $-1 $159 $367 #
ellipse-curve $-1 -52.802015191133215 21.57786041375353 5.8176746271271034 -0.5877852598018023 0 0.80901698891910034 0.80901698891910034 0 0.5877852598018023 1 I I #
face $-1 $-1 $175 $24 $-1 $368 reversed single #
loop $-1 $-1 $270 $160 #
plane-surface $-1 0 28.816217756672469 0 0 -1 0 0 0 -1 forward_v I I I I #
coedge $-1 $369 $268 $271 $370 forward $161 $-1 #
coedge $-1 $274 $163 $164 $262 reversed $100 $-1 #
coedge $-1 $268 $369 $163 $260 reversed $161 $-1 #
edge $-1 $275 -8.992767049604959 $371 8.992767049604959 $259 $372 forward 7 unknown #
coedge $-1 $165 $164 $369 $373 forward $65 $-1 #
edge $-1 $266 -57.172154911954102 $371 57.172154911954102 $258 $374 forward 7 unknown #
coedge $-1 $271 $270 $165 $264 reversed $255 $-1 #
edge $-1 $375 -57.172154911954102 $265 57.172154911954102 $263 $376 forward 7 unknown #
vertex $-1 $167 $377 #
vertex $-1 $277 $378 #
straight-curve $-1 57.172154911954102 0 -8.992767049604959 0 -1 0 I I #
coedge $-1 $257 $259 $168 $269 reversed $161 $-1 #
edge $-1 $272 -28.816217756672469 $275 28.816217756672469 $268 $379 forward 7 unknown #
coedge $-1 $263 $169 $174 $278 forward $255 $-1 #
coedge $-1 $169 $263 $257 $370 reversed $255 $-1 #
vertex $-1 $170 $380 #
straight-curve $-1 0 28.816217756672469 8.992767049604959 -1 0 0 I I #
coedge $-1 $171 $258 $173 $277 reversed $100 $-1 #
vertex $-1 $269 $381 #
straight-curve $-1 0 -28.816217756672469 8.992767049604959 1 0 0 I I #
edge $-1 $176 -8.992767049604959 $266 8.992767049604959 $173 $382 forward 7 unknown #
edge $-1 $177 -8.992767049604959 $265 8.992767049604959 $174 $383 forward 7 unknown #
point $-1 57.172154911954102 -28.816217756672469 8.992767049604959 #
point $-1 57.172154911954102 28.816217756672469 8.992767049604959 #
face $-1 $-1 $295 $25 $-1 $384 reversed single #
loop $-1 $-1 $385 $179 #
plane-surface $-1 0 -36.606983354883134 7.492767049604959 0 1 0 0 0 1 forward_v I I I I #
coedge $-1 $386 $182 $191 $299 reversed $108 $-1 #
coedge $-1 $182 $386 $183 $287 reversed $108 $-1 #
coedge $-1 $184 $183 $387 $388 forward $69 $-1 #
edge $-1 $291 28.816217756672469 $389 36.606983354883134 $285 $390 forward 7 unknown #
coedge $-1 $391 $188 $184 $289 reversed $295 $-1 #
edge $-1 $392 -36.606983354883134 $290 -28.816217756672469 $288 $393 forward 7 unknown #
vertex $-1 $189 $394 #
vertex $-1 $287 $395 #
straight-curve $-1 0 -28.816217756672469 8.992767049604959 -1 0 0 I I #
straight-curve $-1 -57.172154911954102 -28.816217756672469 0 0 0 -1 I I #
coedge $-1 $188 $391 $190 $298 reversed $295 $-1 #
loop $-1 $-1 $188 $281 #
straight-curve $-1 57.172154911954102 -28.816217756672469 0 0 0 1 I I #
coedge $-1 $191 $190 $396 $397 forward $180 $-1 #
edge $-1 $192 -3.8953827991053345 $398 3.8953827991053345 $294 $399 forward 7 unknown #
edge $-1 $400 -3.8953827991053345 $193 3.8953827991053345 $284 $401 forward 7 unknown #
point $-1 57.172154911954102 -28.816217756672465 5.992767049604959 #
point $-1 -57.172154911954102 -28.816217756672465 5.992767049604959 #
plane-surface $-1 0 0 8.992767049604959 0 0 1 1 0 0 forward_v I I I I #
coedge $-1 $313 $312 $305 $402 forward $196 $-1 #
coedge $-1 $305 $198 $200 $309 reversed $116 $-1 #
coedge $-1 $198 $304 $303 $402 reversed $116 $-1 #
coedge $-1 $206 $201 $198 $307 forward $207 $-1 #
edge $-1 $310 32.806853868102252 $403 46.774187666648785 $306 $404 forward 7 unknown #
coedge $-1 $200 $199 $313 $405 reversed $73 $-1 #
edge $-1 $406 -114.34430982390822 $310 -97.874331371199844 $304 $407 forward 7 unknown #
vertex $-1 $202 $408 #
straight-curve $-1 43.20482111340759 -2.4151038916638949 8.9927670496049501 0 -1 0 I I #
coedge $-1 $303 $203 $206 $317 reversed $196 $-1 #
coedge $-1 $203 $303 $308 $405 forward $196 $-1 #
vertex $-1 $204 $409 #
straight-curve $-1 57.172154911954102 -1.0067593870712024 78.913867577261513 0 0 1 I I #
straight-curve $-1 -39.797318840594805 -1.0067593870712024 60.858261401974119 0.84804809178421925 0 -0.52991927123019833 I I #
edge $-1 $403 -8.6536561795843774 $208 -1.0067593870712024 $312 $410 forward 7 unknown #
point $-1 57.172154911954102 -1.0067593870712024 8.992767049604959 #
point $-1 43.204821113407569 -1.0067593870712024 8.9927670496049572 #
edge $-1 $411 1 $411 0 $211 $-1 forward 7 unknown #
vertex $-1 $212 $412 #
ellipse-curve $-1 48.106355029696779 -4.8302077833277899 1.2967783146380434 0.52991927123019833 0 0.84804809178421925 1.2720721376763289 0 -0.79487890684529749 1 I I #
point $-1 51.460560150357168 -4.8302077833277899 3.8340086533415292 #
plane-surface $-1 0 0 8.992767049604959 0 0 1 1 0 0 forward_v I I I I #
coedge $-1 $335 $334 $327 $413 forward $216 $-1 #
coedge $-1 $327 $218 $220 $331 reversed $131 $-1 #
coedge $-1 $218 $326 $325 $413 reversed $131 $-1 #
coedge $-1 $226 $221 $218 $329 forward $227 $-1 #
edge $-1 $332 32.806853868102252 $414 46.774187666648785 $328 $415 forward 7 unknown #
coedge $-1 $220 $219 $335 $416 reversed $82 $-1 #
edge $-1 $417 -114.34430982390822 $332 -97.874331371199844 $326 $418 forward 7 unknown #
vertex $-1 $222 $419 #
straight-curve $-1 43.20482111340759 6.3104866907692259 8.9927670496049501 0 -1 0 I I #
coedge $-1 $325 $223 $226 $339 reversed $216 $-1 #
coedge $-1 $223 $325 $330 $416 forward $216 $-1 #
vertex $-1 $224 $420 #
straight-curve $-1 57.172154911954102 16.444421777795039 78.913867577261513 0 0 1 I I #
straight-curve $-1 -39.797318840594805 16.444421777795039 60.858261401974119 0.84804809178421925 0 -0.52991927123019833 I I #
edge $-1 $414 8.7975249852818642 $228 16.444421777795039 $334 $421 forward 7 unknown #
point $-1 57.172154911954102 16.444421777795039 8.992767049604959 #
point $-1 43.204821113407569 16.444421777795039 8.9927670496049572 #
edge $-1 $422 1 $422 0 $231 $-1 forward 7 unknown #
vertex $-1 $232 $423 #
ellipse-curve $-1 48.106355029696779 12.620973381538452 1.2967783146380434 0.52991927123019833 0 0.84804809178421925 1.2720721376763289 0 -0.79487890684529749 1 I I #
point $-1 51.460560150357168 12.620973381538452 3.8340086533415292 #
loop $-1 $-1 $243 $235 #
plane-surface $-1 -57.172154911954102 0 0 1 0 0 0 0 -1 forward_v I I I I #
coedge $-1 $349 $238 $240 $353 reversed $146 $-1 #
coedge $-1 $238 $348 $424 $425 reversed $146 $-1 #
coedge $-1 $246 $241 $238 $351 forward $236 $-1 #
edge $-1 $354 -13.759151914016556 $426 -5.018872472374774 $350 $427 forward 7 unknown #
coedge $-1 $240 $239 $357 $428 reversed $91 $-1 #
edge $-1 $429 -8.8807605448725156e-015 $354 10.803579605070299 $348 $430 forward 7 unknown #
vertex $-1 $242 $431 #
straight-curve $-1 -48.431875470312306 10.788930206876765 8.9927670496049572 0 1 0 I I #
coedge $-1 $424 $243 $246 $361 reversed $346 $-1 #
coedge $-1 $243 $424 $352 $428 forward $346 $-1 #
vertex $-1 $244 $432 #
straight-curve $-1 -57.172154911954102 17.380623581866708 47.57453571921009 0 0 1 I I #
straight-curve $-1 -57.172154911954095 17.380623581866708 2.6425822046492584 -0.80901698891910034 0 -0.5877852598018023 I I #
edge $-1 $426 -25.775097245640353 $247 -17.380623581866708 $356 $433 forward 7 unknown #
point $-1 -57.172154911954102 17.380623581866708 8.992767049604959 #
point $-1 -48.43187547031232 17.380623581866708 8.992767049604959 #
edge $-1 $434 1 $434 0 $250 $-1 forward 7 unknown #
vertex $-1 $251 $435 #
ellipse-curve $-1 -51.84586632434786 21.57786041375353 4.5016486392928243 -0.5877852598018023 0 0.80901698891910034 0.80901698891910034 0 0.5877852598018023 1 I I #
point $-1 -51.99299820221411 21.57786041375353 6.4054598869289077 #
plane-surface $-1 57.172154911954102 0 0 -1 0 0 0 0 1 forward_v I I I I #
coedge $-1 $259 $257 $261 $373 reversed $161 $-1 #
edge $-1 $272 -8.992767049604959 $375 8.992767049604959 $271 $436 forward 7 unknown #
vertex $-1 $373 $437 #
straight-curve $-1 -57.172154911954102 -28.816217756672469 0 0 0 -1 I I #
edge $-1 $371 -28.816217756672469 $375 28.816217756672469 $369 $438 forward 7 unknown #
straight-curve $-1 0 -28.816217756672469 -8.992767049604959 -1 0 0 I I #
vertex $-1 $264 $439 #
straight-curve $-1 0 28.816217756672469 -8.992767049604959 1 0 0 I I #
point $-1 57.172154911954102 28.816217756672469 -8.992767049604959 #
point $-1 57.172154911954102 -28.816217756672469 -8.992767049604959 #
straight-curve $-1 -57.172154911954102 0 8.992767049604959 0 -1 0 I I #
point $-1 -57.172154911954102 28.816217756672469 8.992767049604959 #
point $-1 -57.172154911954102 -28.816217756672469 8.992767049604959 #
straight-curve $-1 57.172154911954102 -28.816217756672469 0 0 0 -1 I I #
straight-curve $-1 57.172154911954102 28.816217756672469 0 0 0 -1 I I #
plane-surface $-1 57.172154911954102 0 0 -1 0 0 0 0 1 forward_v I I I I #
coedge $-1 $396 $387 $386 $440 forward $282 $-1 #
coedge $-1 $285 $284 $385 $440 reversed $108 $-1 #
coedge $-1 $385 $441 $286 $388 reversed $282 $-1 #
edge $-1 $389 -57.172154911954102 $392 57.172154911954102 $387 $442 forward 7 unknown #
vertex $-1 $287 $443 #
straight-curve $-1 -57.172154911954102 0 8.992767049604959 0 -1 0 I I #
coedge $-1 $294 $288 $441 $444 forward $295 $-1 #
vertex $-1 $289 $445 #
straight-curve $-1 57.172154911954102 0 8.992767049604959 0 1 0 I I #
point $-1 57.172154911954102 -28.816217756672469 8.992767049604959 #
point $-1 -57.172154911954102 -28.816217756672469 8.992767049604959 #
coedge $-1 $441 $385 $297 $397 reversed $282 $-1 #
edge $-1 $398 -57.172154911954102 $400 57.172154911954102 $396 $446 forward 7 unknown #
vertex $-1 $444 $447 #
straight-curve $-1 57.172154911954102 -32.7116005557778 5.992767049604959 0 -1 0 I I #
vertex $-1 $299 $448 #
straight-curve $-1 -57.172154911954102 -32.7116005557778 5.992767049604959 0 1 0 I I #
edge $-1 $403 69.921100527656549 $406 78.64885950649284 $303 $449 forward 7 unknown #
vertex $-1 $317 $450 #
straight-curve $-1 10.39796724530532 -8.6536561795843774 8.9927670496049643 1 0 0 I I #
edge $-1 $406 -6.2385522879204824 $314 1.4083445045926926 $313 $451 forward 7 unknown #
vertex $-1 $405 $452 #
straight-curve $-1 -39.797318840594805 -8.6536561795843774 60.858261401974119 -0.84804809178421925 0 0.52991927123019833 I I #
point $-1 43.204821113407569 -8.6536561795843774 8.9927670496049572 #
point $-1 57.172154911954102 -1.0067593870712024 0.26500807076867261 #
straight-curve $-1 57.172154911954102 0 8.992767049604959 0 1 0 I I #
vertex $-1 $320 $453 #
point $-1 49.378427167373104 -4.8302077833277899 0.501899407792746 #
edge $-1 $414 69.921100527656549 $417 78.64885950649284 $325 $454 forward 7 unknown #
vertex $-1 $339 $455 #
straight-curve $-1 10.39796724530532 8.7975249852818642 8.9927670496049643 1 0 0 I I #
edge $-1 $417 2.4870382945126384 $336 10.133935087025813 $335 $456 forward 7 unknown #
vertex $-1 $416 $457 #
straight-curve $-1 -39.797318840594805 8.7975249852818642 60.858261401974119 -0.84804809178421925 0 0.52991927123019833 I I #
point $-1 43.204821113407569 8.7975249852818642 8.9927670496049572 #
point $-1 57.172154911954102 16.444421777795039 0.26500807076867261 #
straight-curve $-1 57.172154911954102 0 8.992767049604959 0 1 0 I I #
vertex $-1 $342 $458 #
point $-1 49.378427167373104 12.620973381538452 0.501899407792746 #
coedge $-1 $357 $356 $349 $425 forward $346 $-1 #
edge $-1 $426 38.581768669605133 $429 44.931953514560838 $424 $459 forward 7 unknown #
vertex $-1 $361 $460 #
straight-curve $-1 -62.191027384328876 25.775097245640353 8.9927670496049572 -1 0 0 I I #
edge $-1 $429 -14.986167038763588 $358 -6.5916933749899425 $357 $461 forward 7 unknown #
vertex $-1 $428 $462 #
straight-curve $-1 -57.172154911954095 25.775097245640353 2.6425822046492584 0.80901698891910034 0 0.5877852598018023 I I #
point $-1 -48.43187547031232 25.775097245640353 8.992767049604959 #
point $-1 -57.172154911954102 17.380623581866708 2.6425822046492531 #
straight-curve $-1 -57.172154911954102 0 8.992767049604959 0 -1 0 I I #
vertex $-1 $364 $463 #
point $-1 -51.036849335428755 21.57786041375353 5.089433899094626 #
straight-curve $-1 -57.172154911954102 28.816217756672469 0 0 0 -1 I I #
point $-1 -57.172154911954102 -28.816217756672469 -8.992767049604959 #
straight-curve $-1 -57.172154911954102 0 -8.992767049604959 0 1 0 I I #
point $-1 -57.172154911954102 28.816217756672469 -8.992767049604959 #
edge $-1 $389 -1.5 $400 1.5 $386 $464 forward 7 unknown #
coedge $-1 $387 $396 $391 $444 reversed $282 $-1 #
straight-curve $-1 0 -36.606983354883134 8.992767049604959 1 0 0 I I #
point $-1 -57.172154911954102 -36.606983354883134 8.992767049604959 #
edge $-1 $392 -1.5 $398 1.5 $391 $465 forward 7 unknown #
point $-1 57.172154911954102 -36.606983354883134 8.992767049604959 #
straight-curve $-1 0 -36.606983354883134 5.992767049604959 -1 0 0 I I #
point $-1 57.172154911954102 -36.606983354883134 5.992767049604959 #
point $-1 -57.172154911954102 -36.606983354883134 5.992767049604959 #
straight-curve $-1 57.172154911954102 -8.6536561795843774 78.913867577261513 0 0 -1 I I #
point $-1 57.172154911954102 -8.6536561795843774 8.992767049604959 #
straight-curve $-1 57.172154911954109 -2.4151038916638949 0.26500807076866906 0 1 0 I I #
point $-1 57.172154911954102 -8.6536561795843774 0.26500807076867261 #
point $-1 47.311476122851481 -4.8302077833277899 0.024706176961714621 #
straight-curve $-1 57.172154911954102 8.7975249852818642 78.913867577261513 0 0 -1 I I #
point $-1 57.172154911954102 8.7975249852818642 8.992767049604959 #
straight-curve $-1 57.172154911954109 6.3104866907692259 0.26500807076866906 0 1 0 I I #
point $-1 57.172154911954102 8.7975249852818642 0.26500807076867261 #
point $-1 47.311476122851481 12.620973381538452 0.024706176961714621 #
straight-curve $-1 -57.172154911954102 25.775097245640353 47.57453571921009 0 0 -1 I I #
point $-1 -57.172154911954102 25.775097245640353 8.992767049604959 #
straight-curve $-1 -57.172154911954102 10.788930206876765 2.64258220464925 0 -1 0 I I #
point $-1 -57.172154911954102 25.775097245640353 2.6425822046492531 #
point $-1 -51.258081064546055 21.57786041375353 3.6926316503737238 #
straight-curve $-1 -57.172154911954102 -36.606983354883134 7.492767049604959 0 0 -1 I I #
straight-curve $-1 57.172154911954102 -36.606983354883134 7.492767049604959 0 0 -1 I I #
End-of-ACIS-data 