500 0 10 0           
7 Unknown 11 ACIS 5.0 NT 24 Fri Mar 26 03:02:28 1999 
-1 9.9999999999999995e-007 1e-010 
body $-1 $10 $-1 $11 #
body $-1 $12 $-1 $13 #
body $-1 $14 $-1 $15 #
body $-1 $16 $-1 $17 #
body $-1 $18 $-1 $19 #
body $-1 $20 $-1 $21 #
body $-1 $22 $-1 $23 #
body $-1 $24 $-1 $25 #
body $-1 $26 $-1 $27 #
body $-1 $28 $-1 $29 #
lump $-1 $-1 $30 $0 #
transform $-1 1 0 0 0 1 0 0 0 1 68.968169194616536 29.761952953028285 7.9142979479633988 1 rotate no_reflect no_shear #
lump $-1 $-1 $31 $1 #
transform $-1 1 0 0 0 1 0 0 0 1 68.968169194616536 29.761952953028285 7.9142979479633988 1 rotate no_reflect no_shear #
lump $-1 $-1 $32 $2 #
transform $-1 1 0 0 0 1 0 0 0 1 68.968169194616536 29.761952953028285 7.9142979479633988 1 rotate no_reflect no_shear #
lump $-1 $-1 $33 $3 #
transform $-1 1 0 0 0 1 0 0 0 1 68.968169194616536 29.761952953028285 7.9142979479633988 1 rotate no_reflect no_shear #
lump $-1 $-1 $34 $4 #
transform $-1 1 0 0 0 1 0 0 0 1 68.968169194616536 29.761952953028285 7.9142979479633988 1 rotate no_reflect no_shear #
lump $-1 $-1 $35 $5 #
transform $-1 1 0 0 0 1 0 0 0 1 68.968169194616536 29.761952953028285 7.9142979479633988 1 rotate no_reflect no_shear #
lump $-1 $-1 $36 $6 #
transform $-1 1 0 0 0 1 0 0 0 1 68.968169194616536 29.761952953028285 7.9142979479633988 1 rotate no_reflect no_shear #
lump $-1 $-1 $37 $7 #
transform $-1 1 0 0 0 1 0 0 0 1 68.968169194616536 29.761952953028285 7.9142979479633988 1 rotate no_reflect no_shear #
lump $-1 $-1 $38 $8 #
transform $-1 1 0 0 0 1 0 0 0 1 68.968169194616536 29.761952953028285 7.9142979479633988 1 rotate no_reflect no_shear #
lump $-1 $-1 $39 $9 #
transform $-1 1 0 0 0 1 0 0 0 1 68.968169194616536 29.761952953028285 7.9142979479633988 1 rotate no_reflect no_shear #
shell $-1 $-1 $-1 $40 $-1 $10 #
shell $-1 $-1 $-1 $41 $-1 $12 #
shell $-1 $-1 $-1 $42 $-1 $14 #
shell $-1 $-1 $-1 $43 $-1 $16 #
shell $-1 $-1 $-1 $44 $-1 $18 #
shell $-1 $-1 $-1 $45 $-1 $20 #
shell $-1 $-1 $-1 $46 $-1 $22 #
shell $-1 $-1 $-1 $47 $-1 $24 #
shell $-1 $-1 $-1 $48 $-1 $26 #
shell $-1 $-1 $-1 $49 $-1 $28 #
face $-1 $50 $51 $30 $-1 $52 forward single #
face $-1 $53 $54 $31 $-1 $55 reversed single #
face $-1 $56 $57 $32 $-1 $58 forward single #
face $-1 $59 $60 $33 $-1 $61 forward single #
face $-1 $62 $63 $34 $-1 $64 reversed single #
face $-1 $65 $66 $35 $-1 $67 forward single #
face $-1 $68 $69 $36 $-1 $70 forward single #
face $-1 $71 $72 $37 $-1 $73 reversed single #
face $-1 $74 $75 $38 $-1 $76 forward single #
face $-1 $77 $78 $39 $-1 $79 forward single #
face $-1 $80 $81 $30 $-1 $82 reversed single #
loop $-1 $-1 $83 $40 #
plane-surface $-1 0 0 7.9142979479633988 0 0 1 1 0 0 forward_v I I I I #
face $-1 $84 $85 $31 $-1 $86 reversed single #
loop $-1 $-1 $87 $41 #
plane-surface $-1 -8.0179947792244732 -133.8638301395286 95.264398938247979 -1 0 0 0 -0.75470958851134928 0.65605901945558964 forward_v I I I I #
face $-1 $88 $89 $32 $-1 $90 forward single #
loop $-1 $91 $92 $42 #
cone-surface $-1 -32.090056484221293 -27.944392483567999 5.9501793906843634 0 0.75470958851134928 -0.65605901945558964 0.5 0 0 1 I I 0 1 0.5 forward I I I I #
face $-1 $93 $94 $33 $-1 $95 forward single #
loop $-1 $96 $97 $43 #
cone-surface $-1 -17.646819461223203 -27.944392483567999 5.9501793906843634 0 0.75470958851134928 -0.65605901945558964 0.5 0 0 1 I I 0 1 0.5 forward I I I I #
face $-1 $98 $99 $34 $-1 $100 reversed single #
loop $-1 $-1 $101 $44 #
plane-surface $-1 -37.389086543024106 67.778566020133283 150.00962899888532 1 0 0 0 -0.61566148304635926 -0.78801074757464917 forward_v I I I I #
face $-1 $102 $103 $35 $-1 $104 forward single #
loop $-1 $105 $106 $45 #
cone-surface $-1 -28.953626569855231 26.812914126989149 5.175760476524859 0 -0.61566148304635926 -0.78801074757464917 1 0 0 1 I I 0 1 1 forward I I I I #
face $-1 $107 $108 $36 $-1 $109 forward single #
loop $-1 $110 $111 $46 #
cone-surface $-1 -16.300436610101912 26.812914126989149 5.175760476524859 0 -0.61566148304635926 -0.78801074757464917 1 0 0 1 I I 0 1 1 forward I I I I #
face $-1 $112 $113 $37 $-1 $114 reversed single #
loop $-1 $-1 $115 $47 #
plane-surface $-1 7.8649766369330472 67.778566020133283 150.00962899888532 1 0 0 0 -0.61566148304635926 -0.78801074757464917 forward_v I I I I #
face $-1 $116 $117 $38 $-1 $118 forward single #
loop $-1 $119 $120 $48 #
cone-surface $-1 16.300436610101926 26.812914126989149 5.175760476524859 0 -0.61566148304635926 -0.78801074757464917 1 0 0 1 I I 0 1 1 forward I I I I #
face $-1 $121 $122 $39 $-1 $123 forward single #
loop $-1 $124 $125 $49 #
cone-surface $-1 28.953626569855246 26.812914126989149 5.175760476524859 0 -0.61566148304635926 -0.78801074757464917 1 0 0 1 I I 0 1 1 forward I I I I #
face $-1 $126 $127 $30 $-1 $128 reversed single #
loop $-1 $-1 $129 $50 #
plane-surface $-1 0 0 -7.9142979479633988 0 0 1 1 0 0 forward_v I I I I #
coedge $-1 $130 $131 $132 $133 forward $51 $-1 #
face $-1 $134 $135 $31 $-1 $136 reversed single #
loop $-1 $-1 $137 $53 #
plane-surface $-1 -24.868437972722248 -29.761952953028285 4.770020027313322 0 -0.75470958851134928 0.65605901945558964 1 0 0 forward_v I I I I #
coedge $-1 $138 $139 $140 $141 reversed $54 $-1 #
face $-1 $-1 $142 $32 $-1 $143 forward single #
loop $-1 $144 $145 $56 #
cone-surface $-1 -32.090056484221293 -27.304794130323309 5.3941850388664632 0 0.75470958851134928 -0.65605901945558964 0.25 0 0 1 I I -0.70710678118654746 0.70710678118654746 0.25 forward I I I I #
loop $-1 $-1 $146 $42 #
coedge $-1 $92 $92 $147 $148 reversed $57 $-1 #
face $-1 $-1 $149 $33 $-1 $150 forward single #
loop $-1 $151 $152 $59 #
cone-surface $-1 -17.646819461223203 -27.304794130323309 5.3941850388664632 0 0.75470958851134928 -0.65605901945558964 0.25 0 0 1 I I -0.70710678118654746 0.70710678118654746 0.25 forward I I I I #
loop $-1 $-1 $153 $43 #
coedge $-1 $97 $97 $154 $155 reversed $60 $-1 #
face $-1 $156 $157 $34 $-1 $158 reversed single #
loop $-1 $-1 $159 $62 #
plane-surface $-1 -22.627031589978571 -17.143524638566404 41.314311867075986 0 0.61566148304635926 0.78801074757464917 1 0 0 forward_v I I I I #
coedge $-1 $160 $161 $162 $163 reversed $63 $-1 #
face $-1 $-1 $164 $35 $-1 $165 forward single #
loop $-1 $166 $167 $65 #
cone-surface $-1 -28.953626569855231 25.633749621449326 3.6664987651600773 0 -0.61566148304635926 -0.78801074757464917 0.5 0 0 1 I I -0.70710678118654746 0.70710678118654746 0.5 forward I I I I #
loop $-1 $-1 $168 $45 #
coedge $-1 $106 $106 $169 $170 reversed $66 $-1 #
face $-1 $-1 $171 $36 $-1 $172 forward single #
loop $-1 $173 $174 $68 #
cone-surface $-1 -16.300436610101912 25.633749621449326 3.6664987651600773 0 -0.61566148304635926 -0.78801074757464917 0.5 0 0 1 I I -0.70710678118654746 0.70710678118654746 0.5 forward I I I I #
loop $-1 $-1 $175 $46 #
coedge $-1 $111 $111 $176 $177 reversed $69 $-1 #
face $-1 $178 $179 $37 $-1 $180 reversed single #
loop $-1 $-1 $181 $71 #
plane-surface $-1 22.627031589978586 -17.143524638566404 41.314311867075986 0 0.61566148304635926 0.78801074757464917 1 0 0 forward_v I I I I #
coedge $-1 $182 $183 $184 $185 reversed $72 $-1 #
face $-1 $-1 $186 $38 $-1 $187 forward single #
loop $-1 $188 $189 $74 #
cone-surface $-1 16.300436610101926 25.633749621449326 3.6664987651600773 0 -0.61566148304635926 -0.78801074757464917 0.5 0 0 1 I I -0.70710678118654746 0.70710678118654746 0.5 forward I I I I #
loop $-1 $-1 $190 $48 #
coedge $-1 $120 $120 $191 $192 reversed $75 $-1 #
face $-1 $-1 $193 $39 $-1 $194 forward single #
loop $-1 $195 $196 $77 #
cone-surface $-1 28.953626569855246 25.633749621449326 3.6664987651600773 0 -0.61566148304635926 -0.78801074757464917 0.5 0 0 1 I I -0.70710678118654746 0.70710678118654746 0.5 forward I I I I #
loop $-1 $-1 $197 $49 #
coedge $-1 $125 $125 $198 $199 reversed $78 $-1 #
face $-1 $200 $201 $30 $-1 $202 reversed single #
loop $-1 $-1 $203 $80 #
plane-surface $-1 0 -29.761952953028285 0 0 1 0 0 0 1 forward_v I I I I #
coedge $-1 $204 $205 $206 $207 forward $81 $-1 #
coedge $-1 $208 $83 $209 $210 forward $51 $-1 #
coedge $-1 $83 $208 $211 $212 forward $51 $-1 #
coedge $-1 $213 $214 $83 $133 reversed $215 $-1 #
edge $-1 $216 -29.761952953028285 $217 29.761952953028285 $132 $218 forward 7 unknown #
face $-1 $219 $220 $31 $-1 $221 reversed single #
loop $-1 $-1 $222 $84 #
plane-surface $-1 -41.718881166220022 -133.8638301395286 95.264398938247979 1 0 0 0 0.75470958851134928 -0.65605901945558964 forward_v I I I I #
coedge $-1 $223 $224 $225 $226 reversed $85 $-1 #
coedge $-1 $139 $87 $227 $228 reversed $54 $-1 #
coedge $-1 $87 $138 $223 $229 reversed $54 $-1 #
coedge $-1 $225 $230 $87 $141 forward $231 $-1 #
edge $-1 $232 37.169962116736016 $233 39.903241143422889 $140 $234 forward 7 unknown #
loop $-1 $-1 $147 $88 #
plane-surface $-1 -24.868437972722248 -29.761952953028285 4.770020027313322 0 -0.75470958851134928 0.65605901945558964 1 0 0 forward_v I I I I #
loop $-1 $-1 $235 $56 #
coedge $-1 $145 $145 $146 $236 reversed $89 $-1 #
coedge $-1 $146 $146 $145 $236 forward $91 $-1 #
coedge $-1 $147 $147 $92 $148 forward $142 $-1 #
edge $-1 $237 -2.6199917135158488e-015 $237 6.2831853071795978 $147 $238 forward 7 unknown #
loop $-1 $-1 $154 $93 #
plane-surface $-1 -24.868437972722248 -29.761952953028285 4.770020027313322 0 -0.75470958851134928 0.65605901945558964 1 0 0 forward_v I I I I #
loop $-1 $-1 $239 $59 #
coedge $-1 $152 $152 $153 $240 reversed $94 $-1 #
coedge $-1 $153 $153 $152 $240 forward $96 $-1 #
coedge $-1 $154 $154 $97 $155 forward $149 $-1 #
edge $-1 $241 -2.6199917135158488e-015 $241 6.2831853071795978 $154 $242 forward 7 unknown #
face $-1 $243 $244 $34 $-1 $245 reversed single #
loop $-1 $-1 $246 $98 #
plane-surface $-1 -7.8649766369330329 67.778566020133283 150.00962899888532 -1 0 0 0 0.61566148304635926 0.78801074757464917 forward_v I I I I #
coedge $-1 $247 $248 $249 $250 reversed $99 $-1 #
coedge $-1 $161 $101 $251 $252 reversed $63 $-1 #
coedge $-1 $101 $160 $247 $253 reversed $63 $-1 #
coedge $-1 $249 $254 $101 $163 forward $255 $-1 #
edge $-1 $256 4.1273300570383569 $257 8.282740181083291 $162 $258 forward 7 unknown #
loop $-1 $-1 $169 $102 #
plane-surface $-1 -22.627031589978571 -17.143524638566404 41.314311867075986 0 0.61566148304635926 0.78801074757464917 1 0 0 forward_v I I I I #
loop $-1 $-1 $259 $65 #
coedge $-1 $167 $167 $168 $260 reversed $103 $-1 #
coedge $-1 $168 $168 $167 $260 forward $105 $-1 #
coedge $-1 $169 $169 $106 $170 forward $164 $-1 #
edge $-1 $261 -1.486576565395766e-015 $261 6.2831853071795987 $169 $262 forward 7 unknown #
loop $-1 $-1 $176 $107 #
plane-surface $-1 -22.627031589978571 -17.143524638566404 41.314311867075986 0 0.61566148304635926 0.78801074757464917 1 0 0 forward_v I I I I #
loop $-1 $-1 $263 $68 #
coedge $-1 $174 $174 $175 $264 reversed $108 $-1 #
coedge $-1 $175 $175 $174 $264 forward $110 $-1 #
coedge $-1 $176 $176 $111 $177 forward $171 $-1 #
edge $-1 $265 -1.486576565395766e-015 $265 6.2831853071795987 $176 $266 forward 7 unknown #
face $-1 $267 $268 $37 $-1 $269 forward single #
loop $-1 $-1 $270 $112 #
plane-surface $-1 37.389086543024121 67.778566020133283 150.00962899888532 -1 0 0 0 0.61566148304635926 0.78801074757464917 forward_v I I I I #
coedge $-1 $271 $272 $273 $274 reversed $113 $-1 #
coedge $-1 $183 $115 $275 $276 reversed $72 $-1 #
coedge $-1 $115 $182 $271 $277 reversed $72 $-1 #
coedge $-1 $273 $278 $115 $185 forward $268 $-1 #
edge $-1 $279 4.1273300570383569 $280 8.282740181083291 $184 $281 forward 7 unknown #
loop $-1 $-1 $191 $116 #
plane-surface $-1 22.627031589978586 -17.143524638566404 41.314311867075986 0 0.61566148304635926 0.78801074757464917 1 0 0 forward_v I I I I #
loop $-1 $-1 $282 $74 #
coedge $-1 $189 $189 $190 $283 reversed $117 $-1 #
coedge $-1 $190 $190 $189 $283 forward $119 $-1 #
coedge $-1 $191 $191 $120 $192 forward $186 $-1 #
edge $-1 $284 -1.486576565395766e-015 $284 6.2831853071795987 $191 $285 forward 7 unknown #
loop $-1 $-1 $198 $121 #
plane-surface $-1 22.627031589978586 -17.143524638566404 41.314311867075986 0 0.61566148304635926 0.78801074757464917 1 0 0 forward_v I I I I #
loop $-1 $-1 $286 $77 #
coedge $-1 $196 $196 $197 $287 reversed $122 $-1 #
coedge $-1 $197 $197 $196 $287 forward $124 $-1 #
coedge $-1 $198 $198 $125 $199 forward $193 $-1 #
edge $-1 $288 -1.486576565395766e-015 $288 6.2831853071795987 $198 $289 forward 7 unknown #
face $-1 $290 $291 $30 $-1 $292 reversed single #
loop $-1 $-1 $293 $126 #
plane-surface $-1 -68.968169194616536 0 0 1 0 0 0 0 -1 forward_v I I I I #
coedge $-1 $294 $211 $295 $296 forward $127 $-1 #
coedge $-1 $297 $129 $294 $298 forward $81 $-1 #
coedge $-1 $129 $297 $299 $300 forward $81 $-1 #
coedge $-1 $214 $213 $129 $207 reversed $215 $-1 #
edge $-1 $301 -29.761952953028285 $302 29.761952953028285 $206 $303 forward 7 unknown #
coedge $-1 $131 $130 $304 $305 forward $51 $-1 #
coedge $-1 $306 $307 $130 $210 reversed $291 $-1 #
edge $-1 $217 -68.968169194616536 $308 68.968169194616536 $209 $309 forward 7 unknown #
coedge $-1 $203 $310 $131 $212 reversed $127 $-1 #
edge $-1 $311 -68.968169194616536 $216 68.968169194616536 $211 $312 forward 7 unknown #
coedge $-1 $206 $132 $310 $313 forward $215 $-1 #
coedge $-1 $132 $206 $306 $314 reversed $215 $-1 #
loop $-1 $-1 $213 $290 #
vertex $-1 $133 $315 #
vertex $-1 $133 $316 #
straight-curve $-1 68.968169194616536 0 7.9142979479633988 0 1 0 I I #
face $-1 $-1 $231 $31 $-1 $317 forward single #
loop $-1 $-1 $318 $134 #
plane-surface $-1 0 -29.761952953028285 0 0 1 0 0 0 1 forward_v I I I I #
coedge $-1 $319 $320 $321 $322 reversed $135 $-1 #
coedge $-1 $323 $137 $139 $229 forward $85 $-1 #
coedge $-1 $137 $323 $319 $324 forward $85 $-1 #
coedge $-1 $321 $140 $137 $226 forward $231 $-1 #
edge $-1 $233 -4.4162242071366506 $325 29.284662179858898 $225 $326 forward 7 unknown #
coedge $-1 $327 $328 $138 $228 forward $220 $-1 #
edge $-1 $329 -42.862179441810667 $232 -39.717901521160591 $227 $330 forward 7 unknown #
edge $-1 $233 -4.1662090538058596 $329 0 $139 $331 forward 7 unknown #
coedge $-1 $140 $321 $327 $332 forward $231 $-1 #
loop $-1 $-1 $321 $219 #
vertex $-1 $228 $333 #
vertex $-1 $141 $334 #
straight-curve $-1 -8.0179947792244732 -66.931915069764301 7.9142979479633979 0 1 0 I I #
coedge $-1 $235 $235 $-1 $335 reversed $144 $-1 #
edge $-1 $336 0 $336 6.2831853071796004 $145 $337 forward 7 unknown #
vertex $-1 $148 $338 #
ellipse-curve $-1 -32.090056484221293 -28.395313439684848 6.3421589876383617 0 -0.75470958851134928 0.65605901945558964 0.5 0 0 1 I I #
coedge $-1 $239 $239 $-1 $339 reversed $151 $-1 #
edge $-1 $340 0 $340 6.2831853071796004 $152 $341 forward 7 unknown #
vertex $-1 $155 $342 #
ellipse-curve $-1 -17.646819461223203 -28.395313439684848 6.3421589876383617 0 -0.75470958851134928 0.65605901945558964 0.5 0 0 1 I I #
face $-1 $-1 $255 $34 $-1 $343 forward single #
loop $-1 $-1 $344 $156 #
plane-surface $-1 0 29.761952953028285 0 0 -1 0 0 0 -1 forward_v I I I I #
coedge $-1 $345 $346 $347 $348 reversed $157 $-1 #
coedge $-1 $349 $159 $161 $253 forward $99 $-1 #
coedge $-1 $159 $349 $345 $350 forward $99 $-1 #
coedge $-1 $347 $162 $159 $250 forward $255 $-1 #
edge $-1 $257 -26.075570748034821 $351 3.4485391580562528 $249 $352 forward 7 unknown #
coedge $-1 $353 $354 $160 $252 forward $244 $-1 #
edge $-1 $355 -70.337078819201395 $256 -67.090516551479254 $251 $356 forward 7 unknown #
edge $-1 $257 54.250614727180462 $355 59.523905906056541 $161 $357 forward 7 unknown #
coedge $-1 $162 $347 $353 $358 forward $255 $-1 #
loop $-1 $-1 $347 $243 #
vertex $-1 $252 $359 #
vertex $-1 $163 $360 #
straight-curve $-1 -37.389086543024106 33.889283010066642 7.914297947963405 0 -1 0 I I #
coedge $-1 $259 $259 $-1 $361 reversed $166 $-1 #
edge $-1 $362 0 $362 6.2831853071796004 $167 $363 forward 7 unknown #
vertex $-1 $170 $364 #
ellipse-curve $-1 -28.953626569855231 27.684247891005814 6.2910168141023419 0 0.61566148304635926 0.78801074757464917 1 0 0 1 I I #
coedge $-1 $263 $263 $-1 $365 reversed $173 $-1 #
edge $-1 $366 0 $366 6.2831853071796004 $174 $367 forward 7 unknown #
vertex $-1 $177 $368 #
ellipse-curve $-1 -16.300436610101912 27.684247891005814 6.2910168141023419 0 0.61566148304635926 0.78801074757464917 1 0 0 1 I I #
face $-1 $-1 $369 $37 $-1 $370 reversed single #
loop $-1 $-1 $184 $178 #
plane-surface $-1 0 0 7.9142979479633988 0 0 1 1 0 0 forward_v I I I I #
coedge $-1 $371 $372 $373 $374 reversed $179 $-1 #
coedge $-1 $375 $181 $183 $277 forward $113 $-1 #
coedge $-1 $181 $375 $371 $376 forward $113 $-1 #
coedge $-1 $373 $184 $181 $274 forward $268 $-1 #
edge $-1 $280 -3.4485391580562457 $377 26.075570748034828 $273 $378 forward 7 unknown #
coedge $-1 $379 $380 $182 $276 forward $369 $-1 #
edge $-1 $381 -70.337078819201395 $279 -67.090516551479254 $275 $382 forward 7 unknown #
edge $-1 $280 54.250614727180462 $381 59.523905906056541 $183 $383 forward 7 unknown #
coedge $-1 $184 $373 $379 $384 forward $268 $-1 #
vertex $-1 $185 $385 #
vertex $-1 $185 $386 #
straight-curve $-1 7.8649766369330472 33.889283010066642 7.914297947963405 0 -1 0 I I #
coedge $-1 $282 $282 $-1 $387 reversed $188 $-1 #
edge $-1 $388 0 $388 6.2831853071796004 $189 $389 forward 7 unknown #
vertex $-1 $192 $390 #
ellipse-curve $-1 16.300436610101926 27.684247891005814 6.2910168141023419 0 0.61566148304635926 0.78801074757464917 1 0 0 1 I I #
coedge $-1 $286 $286 $-1 $391 reversed $195 $-1 #
edge $-1 $392 0 $392 6.2831853071796004 $196 $393 forward 7 unknown #
vertex $-1 $199 $394 #
ellipse-curve $-1 28.953626569855246 27.684247891005814 6.2910168141023419 0 0.61566148304635926 0.78801074757464917 1 0 0 1 I I #
face $-1 $-1 $215 $30 $-1 $395 reversed single #
loop $-1 $-1 $306 $200 #
plane-surface $-1 0 29.761952953028285 0 0 -1 0 0 0 -1 forward_v I I I I #
coedge $-1 $396 $304 $307 $397 forward $201 $-1 #
coedge $-1 $310 $203 $204 $298 reversed $127 $-1 #
coedge $-1 $304 $396 $203 $296 reversed $201 $-1 #
edge $-1 $311 -7.9142979479633988 $398 7.9142979479633988 $295 $399 forward 7 unknown #
coedge $-1 $205 $204 $396 $400 forward $81 $-1 #
edge $-1 $302 -68.968169194616536 $398 68.968169194616536 $294 $401 forward 7 unknown #
coedge $-1 $307 $306 $205 $300 reversed $291 $-1 #
edge $-1 $402 -68.968169194616536 $301 68.968169194616536 $299 $403 forward 7 unknown #
vertex $-1 $207 $404 #
vertex $-1 $313 $405 #
straight-curve $-1 68.968169194616536 0 -7.9142979479633988 0 -1 0 I I #
coedge $-1 $293 $295 $208 $305 reversed $201 $-1 #
edge $-1 $308 -29.761952953028285 $311 29.761952953028285 $304 $406 forward 7 unknown #
coedge $-1 $299 $209 $214 $314 forward $291 $-1 #
coedge $-1 $209 $299 $293 $397 reversed $291 $-1 #
vertex $-1 $210 $407 #
straight-curve $-1 0 29.761952953028285 7.9142979479633988 -1 0 0 I I #
coedge $-1 $211 $294 $213 $313 reversed $127 $-1 #
vertex $-1 $305 $408 #
straight-curve $-1 0 -29.761952953028285 7.9142979479633988 1 0 0 I I #
edge $-1 $216 -7.9142979479633988 $302 7.9142979479633988 $213 $409 forward 7 unknown #
edge $-1 $217 -7.9142979479633988 $301 7.9142979479633988 $214 $410 forward 7 unknown #
point $-1 68.968169194616536 -29.761952953028285 7.9142979479633988 #
point $-1 68.968169194616536 29.761952953028285 7.9142979479633988 #
plane-surface $-1 0 0 7.9142979479633988 0 0 1 1 0 0 forward_v I I I I #
coedge $-1 $328 $327 $320 $411 forward $220 $-1 #
coedge $-1 $320 $222 $224 $324 reversed $135 $-1 #
coedge $-1 $222 $319 $318 $411 reversed $135 $-1 #
coedge $-1 $230 $225 $222 $322 forward $231 $-1 #
edge $-1 $325 -39.903241143422889 $412 -37.169962116736016 $321 $413 forward 7 unknown #
coedge $-1 $224 $223 $328 $414 reversed $85 $-1 #
edge $-1 $415 0 $325 4.1662090538058596 $319 $416 forward 7 unknown #
vertex $-1 $226 $417 #
straight-curve $-1 -12.434218986361124 -27.028673926341416 7.9142979479633988 -1 0 0 I I #
coedge $-1 $318 $227 $230 $332 reversed $220 $-1 #
coedge $-1 $227 $318 $323 $414 forward $220 $-1 #
vertex $-1 $228 $418 #
straight-curve $-1 -8.0179947792244732 -29.761952953028285 47.632199469123989 0 0 1 I I #
straight-curve $-1 -8.0179947792244732 -29.761952953028285 4.770020027313322 0 -0.65605901945558964 -0.75470958851134928 I I #
edge $-1 $412 -41.718881166220022 $232 -8.0179947792244732 $327 $419 forward 7 unknown #
point $-1 -8.0179947792244732 -29.761952953028285 7.9142979479633988 #
point $-1 -8.0179947792244732 -27.028673926341412 7.9142979479633979 #
edge $-1 $420 1 $420 0 $235 $-1 forward 7 unknown #
vertex $-1 $236 $421 #
ellipse-curve $-1 -32.090056484221293 -27.493471527451145 5.5581997937303607 0 -0.75470958851134928 0.65605901945558964 0.5 0 0 1 I I #
point $-1 -31.590056484221293 -28.395313439684855 6.3421589876383662 #
edge $-1 $422 1 $422 0 $239 $-1 forward 7 unknown #
vertex $-1 $240 $423 #
ellipse-curve $-1 -17.646819461223203 -27.493471527451145 5.5581997937303607 0 -0.75470958851134928 0.65605901945558964 0.5 0 0 1 I I #
point $-1 -17.146819461223203 -28.395313439684855 6.3421589876383662 #
plane-surface $-1 0 0 7.9142979479633988 0 0 1 1 0 0 forward_v I I I I #
coedge $-1 $354 $353 $346 $424 forward $244 $-1 #
coedge $-1 $346 $246 $248 $350 reversed $157 $-1 #
coedge $-1 $246 $345 $344 $424 reversed $157 $-1 #
coedge $-1 $254 $249 $246 $348 forward $255 $-1 #
edge $-1 $351 -8.282740181083291 $425 -4.1273300570383569 $347 $426 forward 7 unknown #
coedge $-1 $248 $247 $354 $427 reversed $99 $-1 #
edge $-1 $428 -59.523905906056541 $351 -54.250614727180462 $345 $429 forward 7 unknown #
vertex $-1 $250 $430 #
straight-curve $-1 -11.313515794989286 25.606542828983354 7.9142979479633979 1 0 0 I I #
coedge $-1 $344 $251 $254 $358 reversed $244 $-1 #
coedge $-1 $251 $344 $349 $427 forward $244 $-1 #
vertex $-1 $252 $431 #
straight-curve $-1 -37.389086543024106 29.761952953028285 75.004814499442659 0 0 1 I I #
straight-curve $-1 -37.389086543024106 -17.143524638566404 41.314311867075986 0 0.78801074757464917 -0.61566148304635926 I I #
edge $-1 $425 7.8649766369330329 $256 37.389086543024106 $353 $432 forward 7 unknown #
point $-1 -37.389086543024106 29.761952953028285 7.9142979479633988 #
point $-1 -37.389086543024106 25.606542828983351 7.9142979479633979 #
edge $-1 $433 1 $433 0 $259 $-1 forward 7 unknown #
vertex $-1 $260 $434 #
ellipse-curve $-1 -28.953626569855231 25.941580362972505 4.0605041389474019 0 0.61566148304635926 0.78801074757464917 1 0 0 1 I I #
point $-1 -27.953626569855231 27.684247891005793 6.2910168141023171 #
edge $-1 $435 1 $435 0 $263 $-1 forward 7 unknown #
vertex $-1 $264 $436 #
ellipse-curve $-1 -16.300436610101912 25.941580362972505 4.0605041389474019 0 0.61566148304635926 0.78801074757464917 1 0 0 1 I I #
point $-1 -15.300436610101912 27.684247891005793 6.2910168141023171 #
loop $-1 $-1 $275 $267 #
plane-surface $-1 0 29.761952953028285 0 0 -1 0 0 0 -1 forward_v I I I I #
coedge $-1 $372 $270 $272 $376 reversed $179 $-1 #
coedge $-1 $270 $371 $437 $438 reversed $179 $-1 #
coedge $-1 $278 $273 $270 $374 forward $268 $-1 #
edge $-1 $377 -8.282740181083291 $439 -4.1273300570383569 $373 $440 forward 7 unknown #
coedge $-1 $272 $271 $380 $441 reversed $113 $-1 #
edge $-1 $442 -59.523905906056541 $377 -54.250614727180462 $371 $443 forward 7 unknown #
vertex $-1 $274 $444 #
straight-curve $-1 11.313515794989293 25.606542828983354 7.9142979479633979 1 0 0 I I #
coedge $-1 $437 $275 $278 $384 reversed $369 $-1 #
coedge $-1 $275 $437 $375 $441 forward $369 $-1 #
vertex $-1 $276 $445 #
straight-curve $-1 7.8649766369330472 29.761952953028285 75.004814499442659 0 0 1 I I #
straight-curve $-1 7.8649766369330472 -17.143524638566404 41.314311867075986 0 0.78801074757464917 -0.61566148304635926 I I #
edge $-1 $439 -37.389086543024121 $279 -7.8649766369330472 $379 $446 forward 7 unknown #
point $-1 7.8649766369330472 29.761952953028285 7.9142979479633988 #
point $-1 7.8649766369330472 25.606542828983351 7.9142979479633979 #
edge $-1 $447 1 $447 0 $282 $-1 forward 7 unknown #
vertex $-1 $283 $448 #
ellipse-curve $-1 16.300436610101926 25.941580362972505 4.0605041389474019 0 0.61566148304635926 0.78801074757464917 1 0 0 1 I I #
point $-1 17.300436610101926 27.684247891005793 6.2910168141023171 #
edge $-1 $449 1 $449 0 $286 $-1 forward 7 unknown #
vertex $-1 $287 $450 #
ellipse-curve $-1 28.953626569855246 25.941580362972505 4.0605041389474019 0 0.61566148304635926 0.78801074757464917 1 0 0 1 I I #
point $-1 29.953626569855246 27.684247891005793 6.2910168141023171 #
plane-surface $-1 68.968169194616536 0 0 -1 0 0 0 0 1 forward_v I I I I #
coedge $-1 $295 $293 $297 $400 reversed $201 $-1 #
edge $-1 $308 -7.9142979479633988 $402 7.9142979479633988 $307 $451 forward 7 unknown #
vertex $-1 $400 $452 #
straight-curve $-1 -68.968169194616536 -29.761952953028285 0 0 0 -1 I I #
edge $-1 $398 -29.761952953028285 $402 29.761952953028285 $396 $453 forward 7 unknown #
straight-curve $-1 0 -29.761952953028285 -7.9142979479633988 -1 0 0 I I #
vertex $-1 $300 $454 #
straight-curve $-1 0 29.761952953028285 -7.9142979479633988 1 0 0 I I #
point $-1 68.968169194616536 29.761952953028285 -7.9142979479633988 #
point $-1 68.968169194616536 -29.761952953028285 -7.9142979479633988 #
straight-curve $-1 -68.968169194616536 0 7.9142979479633988 0 -1 0 I I #
point $-1 -68.968169194616536 29.761952953028285 7.9142979479633988 #
point $-1 -68.968169194616536 -29.761952953028285 7.9142979479633988 #
straight-curve $-1 68.968169194616536 -29.761952953028285 0 0 0 -1 I I #
straight-curve $-1 68.968169194616536 29.761952953028285 0 0 0 -1 I I #
edge $-1 $412 39.717901521160591 $415 42.862179441810667 $318 $455 forward 7 unknown #
vertex $-1 $332 $456 #
straight-curve $-1 -41.718881166220022 -66.931915069764301 7.9142979479633979 0 -1 0 I I #
edge $-1 $415 -29.284662179858898 $329 4.4162242071366506 $328 $457 forward 7 unknown #
vertex $-1 $414 $458 #
straight-curve $-1 -41.718881166220022 -29.761952953028285 4.770020027313322 0 0.65605901945558964 0.75470958851134928 I I #
point $-1 -41.718881166220022 -27.028673926341412 7.9142979479633979 #
point $-1 -8.0179947792244732 -29.761952953028285 4.770020027313322 #
straight-curve $-1 0 -29.761952953028285 7.9142979479633988 1 0 0 I I #
vertex $-1 $335 $459 #
point $-1 -31.590056484221293 -27.493471527451145 5.5581997937303607 #
vertex $-1 $339 $460 #
point $-1 -17.146819461223203 -27.493471527451145 5.5581997937303607 #
edge $-1 $425 67.090516551479254 $428 70.337078819201395 $344 $461 forward 7 unknown #
vertex $-1 $358 $462 #
straight-curve $-1 -7.8649766369330329 33.889283010066642 7.914297947963405 0 1 0 I I #
edge $-1 $428 -3.4485391580562528 $355 26.075570748034821 $354 $463 forward 7 unknown #
vertex $-1 $427 $464 #
straight-curve $-1 -7.8649766369330329 -17.143524638566404 41.314311867075986 0 -0.78801074757464917 0.61566148304635926 I I #
point $-1 -7.8649766369330329 25.606542828983351 7.9142979479633979 #
point $-1 -37.389086543024106 29.761952953028285 4.6677356802412717 #
straight-curve $-1 0 29.761952953028285 7.9142979479633988 -1 0 0 I I #
vertex $-1 $361 $465 #
point $-1 -27.953626569855231 25.941580362972505 4.0605041389474019 #
vertex $-1 $365 $466 #
point $-1 -15.300436610101912 25.941580362972505 4.0605041389474019 #
coedge $-1 $380 $379 $372 $438 forward $369 $-1 #
edge $-1 $439 67.090516551479254 $442 70.337078819201395 $437 $467 forward 7 unknown #
vertex $-1 $384 $468 #
straight-curve $-1 37.389086543024121 33.889283010066642 7.914297947963405 0 1 0 I I #
edge $-1 $442 -26.075570748034828 $381 3.4485391580562457 $380 $469 forward 7 unknown #
vertex $-1 $441 $470 #
straight-curve $-1 37.389086543024121 -17.143524638566404 41.314311867075986 0 -0.78801074757464917 0.61566148304635926 I I #
point $-1 37.389086543024121 25.606542828983351 7.9142979479633979 #
point $-1 7.8649766369330472 29.761952953028285 4.6677356802412717 #
straight-curve $-1 0 29.761952953028285 7.9142979479633988 -1 0 0 I I #
vertex $-1 $387 $471 #
point $-1 17.300436610101926 25.941580362972505 4.0605041389474019 #
vertex $-1 $391 $472 #
point $-1 29.953626569855246 25.941580362972505 4.0605041389474019 #
straight-curve $-1 -68.968169194616536 29.761952953028285 0 0 0 -1 I I #
point $-1 -68.968169194616536 -29.761952953028285 -7.9142979479633988 #
straight-curve $-1 -68.968169194616536 0 -7.9142979479633988 0 1 0 I I #
point $-1 -68.968169194616536 29.761952953028285 -7.9142979479633988 #
straight-curve $-1 -41.718881166220022 -29.761952953028285 47.632199469123989 0 0 -1 I I #
point $-1 -41.718881166220022 -29.761952953028285 7.9142979479633988 #
straight-curve $-1 -12.434218986361124 -29.761952953028285 4.770020027313322 1 0 0 I I #
point $-1 -41.718881166220022 -29.761952953028285 4.770020027313322 #
point $-1 -32.090056484221293 -27.116116733195472 5.2301702840025657 #
point $-1 -17.646819461223203 -27.116116733195472 5.2301702840025657 #
straight-curve $-1 -7.8649766369330329 29.761952953028285 75.004814499442659 0 0 -1 I I #
point $-1 -7.8649766369330329 29.761952953028285 7.9142979479633988 #
straight-curve $-1 -11.313515794989286 29.761952953028285 4.6677356802412753 -1 0 0 I I #
point $-1 -7.8649766369330329 29.761952953028285 4.6677356802412717 #
point $-1 -28.953626569855231 25.325918879926146 3.2724933913727527 #
point $-1 -16.300436610101912 25.325918879926146 3.2724933913727527 #
straight-curve $-1 37.389086543024121 29.761952953028285 75.004814499442659 0 0 -1 I I #
point $-1 37.389086543024121 29.761952953028285 7.9142979479633988 #
straight-curve $-1 11.313515794989293 29.761952953028285 4.6677356802412753 -1 0 0 I I #
point $-1 37.389086543024121 29.761952953028285 4.6677356802412717 #
point $-1 16.300436610101926 25.325918879926146 3.2724933913727527 #
point $-1 28.953626569855246 25.325918879926146 3.2724933913727527 #
End-of-ACIS-data 