500 0 12 0           
7 Unknown 11 ACIS 5.0 NT 24 Fri Mar 26 14:33:08 1999 
-1 9.9999999999999995e-007 1e-010 
body $-1 $12 $-1 $13 #
body $-1 $14 $-1 $15 #
body $-1 $16 $-1 $17 #
body $-1 $18 $-1 $19 #
body $-1 $20 $-1 $21 #
body $-1 $22 $-1 $23 #
body $-1 $24 $-1 $25 #
body $-1 $26 $-1 $27 #
body $-1 $28 $-1 $29 #
body $-1 $30 $-1 $31 #
body $-1 $32 $-1 $33 #
body $-1 $34 $-1 $35 #
lump $-1 $-1 $36 $0 #
transform $-1 1 0 0 0 1 0 0 0 1 67.698599200415046 30.561577779240686 6.9962294711100288 1 rotate no_reflect no_shear #
lump $-1 $-1 $37 $1 #
transform $-1 1 0 0 0 1 0 0 0 1 67.698599200415046 30.561577779240686 6.9962294711100288 1 rotate no_reflect no_shear #
lump $-1 $-1 $38 $2 #
transform $-1 1 0 0 0 1 0 0 0 1 67.698599200415046 30.561577779240686 6.9962294711100288 1 rotate no_reflect no_shear #
lump $-1 $-1 $39 $3 #
transform $-1 1 0 0 0 1 0 0 0 1 67.698599200415046 30.561577779240686 6.9962294711100288 1 rotate no_reflect no_shear #
lump $-1 $-1 $40 $4 #
transform $-1 1 0 0 0 1 0 0 0 1 67.698599200415046 30.561577779240686 6.9962294711100288 1 rotate no_reflect no_shear #
lump $-1 $-1 $41 $5 #
transform $-1 1 0 0 0 1 0 0 0 1 67.698599200415046 30.561577779240686 6.9962294711100288 1 rotate no_reflect no_shear #
lump $-1 $-1 $42 $6 #
transform $-1 1 0 0 0 1 0 0 0 1 67.698599200415046 30.561577779240686 6.9962294711100288 1 rotate no_reflect no_shear #
lump $-1 $-1 $43 $7 #
transform $-1 1 0 0 0 1 0 0 0 1 67.698599200415046 30.561577779240686 6.9962294711100288 1 rotate no_reflect no_shear #
lump $-1 $-1 $44 $8 #
transform $-1 1 0 0 0 1 0 0 0 1 67.698599200415046 30.561577779240686 6.9962294711100288 1 rotate no_reflect no_shear #
lump $-1 $-1 $45 $9 #
transform $-1 1 0 0 0 1 0 0 0 1 67.698599200415046 30.561577779240686 6.9962294711100288 1 rotate no_reflect no_shear #
lump $-1 $-1 $46 $10 #
transform $-1 1 0 0 0 1 0 0 0 1 67.698599200415046 30.561577779240686 6.9962294711100288 1 rotate no_reflect no_shear #
lump $-1 $-1 $47 $11 #
transform $-1 1 0 0 0 1 0 0 0 1 67.698599200415046 30.561577779240686 6.9962294711100288 1 rotate no_reflect no_shear #
shell $-1 $-1 $-1 $48 $-1 $12 #
shell $-1 $-1 $-1 $49 $-1 $14 #
shell $-1 $-1 $-1 $50 $-1 $16 #
shell $-1 $-1 $-1 $51 $-1 $18 #
shell $-1 $-1 $-1 $52 $-1 $20 #
shell $-1 $-1 $-1 $53 $-1 $22 #
shell $-1 $-1 $-1 $54 $-1 $24 #
shell $-1 $-1 $-1 $55 $-1 $26 #
shell $-1 $-1 $-1 $56 $-1 $28 #
shell $-1 $-1 $-1 $57 $-1 $30 #
shell $-1 $-1 $-1 $58 $-1 $32 #
shell $-1 $-1 $-1 $59 $-1 $34 #
face $-1 $60 $61 $36 $-1 $62 forward single #
face $-1 $63 $64 $37 $-1 $65 reversed single #
face $-1 $66 $67 $38 $-1 $68 reversed single #
face $-1 $69 $70 $39 $-1 $71 forward single #
face $-1 $72 $73 $40 $-1 $74 forward single #
face $-1 $75 $76 $41 $-1 $77 forward single #
face $-1 $78 $79 $42 $-1 $80 reversed single #
face $-1 $81 $82 $43 $-1 $83 forward single #
face $-1 $84 $85 $44 $-1 $86 forward single #
face $-1 $87 $88 $45 $-1 $89 reversed single #
face $-1 $90 $91 $46 $-1 $92 forward single #
face $-1 $93 $94 $47 $-1 $95 forward single #
face $-1 $96 $97 $36 $-1 $98 reversed single #
loop $-1 $-1 $99 $48 #
plane-surface $-1 0 0 6.9962294711100288 0 0 1 1 0 0 forward_v I I I I #
face $-1 $100 $101 $37 $-1 $102 reversed single #
loop $-1 $-1 $103 $49 #
plane-surface $-1 -63.794986275756564 0 3.9962294711100288 0 0 1 1 0 0 forward_v I I I I #
face $-1 $104 $105 $38 $-1 $106 reversed single #
loop $-1 $-1 $107 $50 #
plane-surface $-1 -10.0563960818989 87.898929826544816 139.53725155975758 1 0 0 0 -0.73135370988377701 -0.68199835119979291 forward_v I I I I #
face $-1 $108 $109 $39 $-1 $110 forward single #
loop $-1 $111 $112 $51 #
cone-surface $-1 -3.1498640736400176 27.658820453368953 3.995779950112599 0 -0.73135370988377701 -0.68199835119979291 1.5 0 0 1 I I 0 1 1.5 forward I I I I #
face $-1 $113 $114 $40 $-1 $115 forward single #
loop $-1 $116 $117 $52 #
cone-surface $-1 7.209933938748307 27.658820453368953 3.995779950112599 0 -0.73135370988377701 -0.68199835119979291 1.5 0 0 1 I I 0 1 1.5 forward I I I I #
face $-1 $118 $119 $41 $-1 $120 forward single #
loop $-1 $121 $122 $53 #
cone-surface $-1 17.569731951136632 27.658820453368953 3.995779950112599 0 -0.73135370988377701 -0.68199835119979291 1.5 0 0 1 I I 0 1 1.5 forward I I I I #
face $-1 $123 $124 $42 $-1 $125 reversed single #
loop $-1 $-1 $126 $54 #
plane-surface $-1 -11.176055822972236 -98.260177886645863 118.94508107781112 -1 0 0 0 -0.50000000669873634 0.8660253999169214 forward_v I I I I #
face $-1 $127 $128 $43 $-1 $129 forward single #
loop $-1 $130 $131 $55 #
cone-surface $-1 -33.342525218191767 -24.603835833506629 1.9856789085710647 0 0.50000000669873634 -0.8660253999169214 2 0 0 1 I I 0 1 2 forward I I I I #
face $-1 $132 $133 $44 $-1 $134 forward single #
loop $-1 $135 $136 $56 #
cone-surface $-1 -20.042643581060048 -24.603835833506629 1.9856789085710647 0 0.50000000669873634 -0.8660253999169214 2 0 0 1 I I 0 1 2 forward I I I I #
face $-1 $137 $138 $45 $-1 $139 reversed single #
loop $-1 $-1 $140 $57 #
plane-surface $-1 52.618930452784326 -98.260177886645863 118.94508107781112 -1 0 0 0 -0.50000000669873634 0.8660253999169214 forward_v I I I I #
face $-1 $141 $142 $46 $-1 $143 forward single #
loop $-1 $144 $145 $58 #
cone-surface $-1 30.452461057564804 -24.603835833506629 1.9856789085710647 0 0.50000000669873634 -0.8660253999169214 2 0 0 1 I I 0 1 2 forward I I I I #
face $-1 $146 $147 $47 $-1 $148 forward single #
loop $-1 $149 $150 $59 #
cone-surface $-1 43.752342694696509 -24.603835833506629 1.9856789085710647 0 0.50000000669873634 -0.8660253999169214 2 0 0 1 I I 0 1 2 forward I I I I #
face $-1 $151 $152 $36 $-1 $153 reversed single #
loop $-1 $-1 $154 $60 #
plane-surface $-1 0 0 -6.9962294711100288 0 0 1 1 0 0 forward_v I I I I #
coedge $-1 $155 $156 $157 $158 forward $61 $-1 #
face $-1 $159 $160 $37 $-1 $161 reversed single #
loop $-1 $-1 $162 $63 #
plane-surface $-1 -59.891373351098082 0 5.4962294711100288 -1 0 0 0 0 1 forward_v I I I I #
coedge $-1 $163 $164 $165 $166 forward $64 $-1 #
face $-1 $167 $168 $38 $-1 $169 reversed single #
loop $-1 $-1 $170 $66 #
plane-surface $-1 7.209933938748307 -11.124313531772074 47.196585493320214 0 0.73135370988377701 0.68199835119979291 1 0 0 forward_v I I I I #
coedge $-1 $171 $172 $173 $174 reversed $67 $-1 #
face $-1 $-1 $175 $39 $-1 $176 forward single #
loop $-1 $177 $178 $69 #
cone-surface $-1 -3.1498640736400176 26.306774726573103 2.7349769433595039 0 -0.73135370988377701 -0.68199835119979291 0.75 0 0 1 I I -0.70710678118654757 0.70710678118654757 0.75 forward I I I I #
loop $-1 $-1 $179 $51 #
coedge $-1 $112 $112 $180 $181 reversed $70 $-1 #
face $-1 $-1 $182 $40 $-1 $183 forward single #
loop $-1 $184 $185 $72 #
cone-surface $-1 7.209933938748307 26.306774726573103 2.7349769433595039 0 -0.73135370988377701 -0.68199835119979291 0.75 0 0 1 I I -0.70710678118654757 0.70710678118654757 0.75 forward I I I I #
loop $-1 $-1 $186 $52 #
coedge $-1 $117 $117 $187 $188 reversed $73 $-1 #
face $-1 $-1 $189 $41 $-1 $190 forward single #
loop $-1 $191 $192 $75 #
cone-surface $-1 17.569731951136632 26.306774726573103 2.7349769433595039 0 -0.73135370988377701 -0.68199835119979291 0.75 0 0 1 I I -0.70710678118654757 0.70710678118654757 0.75 forward I I I I #
loop $-1 $-1 $193 $53 #
coedge $-1 $122 $122 $194 $195 reversed $76 $-1 #
face $-1 $196 $197 $42 $-1 $198 reversed single #
loop $-1 $-1 $199 $78 #
plane-surface $-1 -26.692584399625908 -30.561577779240679 1.6876681851014865 0 -0.50000000669873634 0.8660253999169214 1 0 0 forward_v I I I I #
coedge $-1 $200 $201 $202 $203 reversed $79 $-1 #
face $-1 $-1 $204 $43 $-1 $205 forward single #
loop $-1 $206 $207 $81 #
cone-surface $-1 -33.342525218191767 -22.743442730180014 -1.2366164108805524 0 0.50000000669873634 -0.8660253999169214 1 0 0 1 I I -0.70710678118654746 0.70710678118654746 1 forward I I I I #
loop $-1 $-1 $208 $55 #
coedge $-1 $131 $131 $209 $210 reversed $82 $-1 #
face $-1 $-1 $211 $44 $-1 $212 forward single #
loop $-1 $213 $214 $84 #
cone-surface $-1 -20.042643581060048 -22.743442730180014 -1.2366164108805524 0 0.50000000669873634 -0.8660253999169214 1 0 0 1 I I -0.70710678118654746 0.70710678118654746 1 forward I I I I #
loop $-1 $-1 $215 $56 #
coedge $-1 $136 $136 $216 $217 reversed $85 $-1 #
face $-1 $218 $219 $45 $-1 $220 reversed single #
loop $-1 $-1 $221 $87 #
plane-surface $-1 37.102401876130656 -30.561577779240679 1.6876681851014865 0 -0.50000000669873634 0.8660253999169214 1 0 0 forward_v I I I I #
coedge $-1 $222 $223 $224 $225 reversed $88 $-1 #
face $-1 $-1 $226 $46 $-1 $227 forward single #
loop $-1 $228 $229 $90 #
cone-surface $-1 30.452461057564804 -22.743442730180014 -1.2366164108805524 0 0.50000000669873634 -0.8660253999169214 1 0 0 1 I I -0.70710678118654746 0.70710678118654746 1 forward I I I I #
loop $-1 $-1 $230 $58 #
coedge $-1 $145 $145 $231 $232 reversed $91 $-1 #
face $-1 $-1 $233 $47 $-1 $234 forward single #
loop $-1 $235 $236 $93 #
cone-surface $-1 43.752342694696509 -22.743442730180014 -1.2366164108805524 0 0.50000000669873634 -0.8660253999169214 1 0 0 1 I I -0.70710678118654746 0.70710678118654746 1 forward I I I I #
loop $-1 $-1 $237 $59 #
coedge $-1 $150 $150 $238 $239 reversed $94 $-1 #
face $-1 $240 $241 $36 $-1 $242 reversed single #
loop $-1 $-1 $243 $96 #
plane-surface $-1 0 -30.561577779240686 0 0 1 0 0 0 1 forward_v I I I I #
coedge $-1 $244 $245 $246 $247 forward $97 $-1 #
coedge $-1 $248 $99 $249 $250 forward $61 $-1 #
coedge $-1 $99 $248 $251 $252 forward $61 $-1 #
coedge $-1 $253 $254 $99 $158 reversed $255 $-1 #
edge $-1 $256 -30.561577779240686 $257 30.561577779240686 $157 $258 forward 7 unknown #
face $-1 $259 $260 $37 $-1 $261 reversed single #
loop $-1 $-1 $262 $100 #
plane-surface $-1 0 30.561577779240686 0 0 -1 0 0 0 -1 forward_v I I I I #
coedge $-1 $165 $263 $264 $265 reversed $101 $-1 #
coedge $-1 $266 $103 $267 $268 reversed $64 $-1 #
coedge $-1 $103 $266 $269 $270 reversed $64 $-1 #
coedge $-1 $271 $162 $103 $166 reversed $101 $-1 #
edge $-1 $272 -30.561577779240686 $273 30.561577779240686 $165 $274 forward 7 unknown #
face $-1 $275 $276 $38 $-1 $277 forward single #
loop $-1 $-1 $278 $104 #
plane-surface $-1 24.476263959395514 87.898929826544816 139.53725155975758 -1 0 0 0 0.73135370988377701 0.68199835119979291 forward_v I I I I #
coedge $-1 $279 $280 $281 $282 reversed $105 $-1 #
coedge $-1 $172 $107 $283 $284 reversed $67 $-1 #
coedge $-1 $107 $171 $279 $285 reversed $67 $-1 #
coedge $-1 $281 $286 $107 $174 forward $276 $-1 #
edge $-1 $287 13.387887134031722 $288 17.586340897009194 $173 $289 forward 7 unknown #
loop $-1 $-1 $180 $108 #
plane-surface $-1 7.209933938748307 -11.124313531772074 47.196585493320214 0 0.73135370988377701 0.68199835119979291 1 0 0 forward_v I I I I #
loop $-1 $-1 $290 $69 #
coedge $-1 $178 $178 $179 $291 reversed $109 $-1 #
coedge $-1 $179 $179 $178 $291 forward $111 $-1 #
coedge $-1 $180 $180 $112 $181 forward $175 $-1 #
edge $-1 $292 1.1477086930347401e-015 $292 6.2831853071796013 $180 $293 forward 7 unknown #
loop $-1 $-1 $187 $113 #
plane-surface $-1 7.209933938748307 -11.124313531772074 47.196585493320214 0 0.73135370988377701 0.68199835119979291 1 0 0 forward_v I I I I #
loop $-1 $-1 $294 $72 #
coedge $-1 $185 $185 $186 $295 reversed $114 $-1 #
coedge $-1 $186 $186 $185 $295 forward $116 $-1 #
coedge $-1 $187 $187 $117 $188 forward $182 $-1 #
edge $-1 $296 1.1477086930347401e-015 $296 6.2831853071796013 $187 $297 forward 7 unknown #
loop $-1 $-1 $194 $118 #
plane-surface $-1 7.209933938748307 -11.124313531772074 47.196585493320214 0 0.73135370988377701 0.68199835119979291 1 0 0 forward_v I I I I #
loop $-1 $-1 $298 $75 #
coedge $-1 $192 $192 $193 $299 reversed $119 $-1 #
coedge $-1 $193 $193 $192 $299 forward $121 $-1 #
coedge $-1 $194 $194 $122 $195 forward $189 $-1 #
edge $-1 $300 1.1477086930347401e-015 $300 6.2831853071796013 $194 $301 forward 7 unknown #
face $-1 $302 $303 $42 $-1 $304 reversed single #
loop $-1 $-1 $305 $123 #
plane-surface $-1 -42.209112976279577 -98.260177886645863 118.94508107781112 1 0 0 0 0.50000000669873634 -0.8660253999169214 forward_v I I I I #
coedge $-1 $306 $307 $308 $309 reversed $124 $-1 #
coedge $-1 $201 $126 $310 $311 reversed $79 $-1 #
coedge $-1 $126 $200 $306 $312 reversed $79 $-1 #
coedge $-1 $308 $313 $126 $203 forward $314 $-1 #
edge $-1 $315 18.568511164082246 $316 27.763208862294611 $202 $317 forward 7 unknown #
loop $-1 $-1 $209 $127 #
plane-surface $-1 -26.692584399625908 -30.561577779240679 1.6876681851014865 0 -0.50000000669873634 0.8660253999169214 1 0 0 forward_v I I I I #
loop $-1 $-1 $318 $81 #
coedge $-1 $207 $207 $208 $319 reversed $128 $-1 #
coedge $-1 $208 $208 $207 $319 forward $130 $-1 #
coedge $-1 $209 $209 $131 $210 forward $204 $-1 #
edge $-1 $320 -2.0610249483755331e-016 $320 6.2831853071796004 $209 $321 forward 7 unknown #
loop $-1 $-1 $216 $132 #
plane-surface $-1 -26.692584399625908 -30.561577779240679 1.6876681851014865 0 -0.50000000669873634 0.8660253999169214 1 0 0 forward_v I I I I #
loop $-1 $-1 $322 $84 #
coedge $-1 $214 $214 $215 $323 reversed $133 $-1 #
coedge $-1 $215 $215 $214 $323 forward $135 $-1 #
coedge $-1 $216 $216 $136 $217 forward $211 $-1 #
edge $-1 $324 -2.0610249483755331e-016 $324 6.2831853071796004 $216 $325 forward 7 unknown #
face $-1 $326 $327 $45 $-1 $328 reversed single #
loop $-1 $-1 $329 $137 #
plane-surface $-1 21.585873299476987 -98.260177886645863 118.94508107781112 1 0 0 0 0.50000000669873634 -0.8660253999169214 forward_v I I I I #
coedge $-1 $330 $331 $332 $333 reversed $138 $-1 #
coedge $-1 $223 $140 $334 $335 reversed $88 $-1 #
coedge $-1 $140 $222 $330 $336 reversed $88 $-1 #
coedge $-1 $332 $337 $140 $225 forward $338 $-1 #
edge $-1 $339 18.568511164082246 $340 27.763208862294611 $224 $341 forward 7 unknown #
loop $-1 $-1 $231 $141 #
plane-surface $-1 37.102401876130656 -30.561577779240679 1.6876681851014865 0 -0.50000000669873634 0.8660253999169214 1 0 0 forward_v I I I I #
loop $-1 $-1 $342 $90 #
coedge $-1 $229 $229 $230 $343 reversed $142 $-1 #
coedge $-1 $230 $230 $229 $343 forward $144 $-1 #
coedge $-1 $231 $231 $145 $232 forward $226 $-1 #
edge $-1 $344 -2.0610249483755331e-016 $344 6.2831853071796004 $231 $345 forward 7 unknown #
loop $-1 $-1 $238 $146 #
plane-surface $-1 37.102401876130656 -30.561577779240679 1.6876681851014865 0 -0.50000000669873634 0.8660253999169214 1 0 0 forward_v I I I I #
loop $-1 $-1 $346 $93 #
coedge $-1 $236 $236 $237 $347 reversed $147 $-1 #
coedge $-1 $237 $237 $236 $347 forward $149 $-1 #
coedge $-1 $238 $238 $150 $239 forward $233 $-1 #
edge $-1 $348 -2.0610249483755331e-016 $348 6.2831853071796004 $238 $349 forward 7 unknown #
face $-1 $350 $351 $36 $-1 $352 reversed single #
loop $-1 $-1 $353 $151 #
plane-surface $-1 -67.698599200415046 0 0 1 0 0 0 0 -1 forward_v I I I I #
coedge $-1 $354 $251 $355 $356 forward $152 $-1 #
coedge $-1 $357 $154 $354 $358 forward $97 $-1 #
coedge $-1 $154 $357 $359 $360 forward $97 $-1 #
coedge $-1 $254 $253 $154 $247 reversed $255 $-1 #
edge $-1 $361 -30.561577779240686 $362 30.561577779240686 $246 $363 forward 7 unknown #
coedge $-1 $156 $155 $364 $365 forward $61 $-1 #
coedge $-1 $366 $367 $155 $250 reversed $351 $-1 #
edge $-1 $257 -67.698599200415046 $368 67.698599200415046 $249 $369 forward 7 unknown #
coedge $-1 $243 $370 $156 $252 reversed $152 $-1 #
edge $-1 $371 -67.698599200415046 $256 67.698599200415046 $251 $372 forward 7 unknown #
coedge $-1 $246 $157 $370 $373 forward $255 $-1 #
coedge $-1 $157 $246 $366 $374 reversed $255 $-1 #
loop $-1 $-1 $253 $350 #
vertex $-1 $158 $375 #
vertex $-1 $158 $376 #
straight-curve $-1 67.698599200415046 0 6.9962294711100288 0 1 0 I I #
face $-1 $377 $378 $37 $-1 $379 forward single #
loop $-1 $-1 $380 $159 #
plane-surface $-1 -67.698599200415046 0 0 1 0 0 0 0 -1 forward_v I I I I #
coedge $-1 $269 $381 $271 $382 forward $160 $-1 #
coedge $-1 $162 $271 $383 $384 reversed $101 $-1 #
coedge $-1 $385 $267 $162 $265 forward $386 $-1 #
edge $-1 $273 1.2481147355550144 $387 4.2481147355550144 $264 $388 forward 7 unknown #
coedge $-1 $164 $163 $380 $389 reversed $64 $-1 #
coedge $-1 $264 $390 $163 $268 forward $386 $-1 #
edge $-1 $391 -35.801106062536761 $273 -27.9938802132198 $267 $392 forward 7 unknown #
coedge $-1 $393 $262 $164 $270 forward $160 $-1 #
edge $-1 $272 27.9938802132198 $394 35.801106062536761 $269 $395 forward 7 unknown #
coedge $-1 $263 $165 $262 $382 reversed $101 $-1 #
vertex $-1 $270 $396 #
vertex $-1 $268 $397 #
straight-curve $-1 -59.891373351098082 0 3.9962294711100288 0 -1 0 I I #
face $-1 $-1 $398 $38 $-1 $399 reversed single #
loop $-1 $-1 $173 $167 #
plane-surface $-1 0 0 6.9962294711100288 0 0 1 1 0 0 forward_v I I I I #
coedge $-1 $400 $401 $402 $403 reversed $168 $-1 #
coedge $-1 $404 $170 $172 $285 forward $105 $-1 #
coedge $-1 $170 $404 $400 $405 forward $105 $-1 #
coedge $-1 $402 $173 $170 $282 forward $276 $-1 #
edge $-1 $288 -13.661363051273053 $406 20.87129699002136 $281 $407 forward 7 unknown #
coedge $-1 $408 $409 $171 $284 forward $398 $-1 #
edge $-1 $410 -67.274686864057145 $287 -62.772396308768762 $283 $411 forward 7 unknown #
edge $-1 $288 54.967050113957328 $410 61.123155558481386 $172 $412 forward 7 unknown #
coedge $-1 $173 $402 $408 $413 forward $276 $-1 #
vertex $-1 $284 $414 #
vertex $-1 $174 $415 #
straight-curve $-1 -10.0563960818989 43.949464913272408 6.996229471110027 0 -1 0 I I #
coedge $-1 $290 $290 $-1 $416 reversed $177 $-1 #
edge $-1 $417 0 $417 6.2831853071796004 $178 $418 forward 7 unknown #
vertex $-1 $181 $419 #
ellipse-curve $-1 -3.1498640736400176 28.462350897751957 4.7450841934658348 0 0.73135370988377701 0.68199835119979291 1.5 0 0 1 I I #
coedge $-1 $294 $294 $-1 $420 reversed $184 $-1 #
edge $-1 $421 0 $421 6.2831853071796004 $185 $422 forward 7 unknown #
vertex $-1 $188 $423 #
ellipse-curve $-1 7.209933938748307 28.462350897751957 4.7450841934658348 0 0.73135370988377701 0.68199835119979291 1.5 0 0 1 I I #
coedge $-1 $298 $298 $-1 $424 reversed $191 $-1 #
edge $-1 $425 0 $425 6.2831853071796004 $192 $426 forward 7 unknown #
vertex $-1 $195 $427 #
ellipse-curve $-1 17.569731951136632 28.462350897751957 4.7450841934658348 0 0.73135370988377701 0.68199835119979291 1.5 0 0 1 I I #
face $-1 $-1 $314 $42 $-1 $428 forward single #
loop $-1 $-1 $429 $196 #
plane-surface $-1 0 -30.561577779240686 0 0 1 0 0 0 1 forward_v I I I I #
coedge $-1 $430 $431 $432 $433 reversed $197 $-1 #
coedge $-1 $434 $199 $201 $312 forward $124 $-1 #
coedge $-1 $199 $434 $430 $435 forward $124 $-1 #
coedge $-1 $432 $202 $199 $309 forward $314 $-1 #
edge $-1 $316 -2.1702363768407178 $436 28.862820776466624 $308 $437 forward 7 unknown #
coedge $-1 $438 $439 $200 $311 forward $303 $-1 #
edge $-1 $440 -57.784872353804083 $315 -52.476311067795535 $310 $441 forward 7 unknown #
edge $-1 $316 -10.617122429774479 $440 8.1518820400458524e-015 $201 $442 forward 7 unknown #
coedge $-1 $202 $432 $438 $443 forward $314 $-1 #
loop $-1 $-1 $432 $302 #
vertex $-1 $311 $444 #
vertex $-1 $203 $445 #
straight-curve $-1 -11.176055822972236 -49.130088943322932 6.996229471110027 0 1 0 I I #
coedge $-1 $318 $318 $-1 $446 reversed $206 $-1 #
edge $-1 $447 0 $447 6.2831853071796004 $207 $448 forward 7 unknown #
vertex $-1 $210 $449 #
ellipse-curve $-1 -33.342525218191767 -25.964228930134507 4.341948828105755 0 -0.50000000669873634 0.8660253999169214 2 0 0 1 I I #
coedge $-1 $322 $322 $-1 $450 reversed $213 $-1 #
edge $-1 $451 0 $451 6.2831853071796004 $214 $452 forward 7 unknown #
vertex $-1 $217 $453 #
ellipse-curve $-1 -20.042643581060048 -25.964228930134507 4.341948828105755 0 -0.50000000669873634 0.8660253999169214 2 0 0 1 I I #
face $-1 $-1 $338 $45 $-1 $454 forward single #
loop $-1 $-1 $455 $218 #
plane-surface $-1 0 -30.561577779240686 0 0 1 0 0 0 1 forward_v I I I I #
coedge $-1 $456 $457 $458 $459 reversed $219 $-1 #
coedge $-1 $460 $221 $223 $336 forward $138 $-1 #
coedge $-1 $221 $460 $456 $461 forward $138 $-1 #
coedge $-1 $458 $224 $221 $333 forward $338 $-1 #
edge $-1 $340 -34.067729514718998 $462 -3.0346723614116584 $332 $463 forward 7 unknown #
coedge $-1 $464 $465 $222 $335 forward $327 $-1 #
edge $-1 $466 -57.784872353804083 $339 -52.476311067795535 $334 $467 forward 7 unknown #
edge $-1 $340 -10.617122429774479 $466 8.1518820400458524e-015 $223 $468 forward 7 unknown #
coedge $-1 $224 $458 $464 $469 forward $338 $-1 #
loop $-1 $-1 $458 $326 #
vertex $-1 $335 $470 #
vertex $-1 $225 $471 #
straight-curve $-1 52.618930452784326 -49.130088943322932 6.996229471110027 0 1 0 I I #
coedge $-1 $342 $342 $-1 $472 reversed $228 $-1 #
edge $-1 $473 0 $473 6.2831853071796004 $229 $474 forward 7 unknown #
vertex $-1 $232 $475 #
ellipse-curve $-1 30.452461057564804 -25.964228930134507 4.341948828105755 0 -0.50000000669873634 0.8660253999169214 2 0 0 1 I I #
coedge $-1 $346 $346 $-1 $476 reversed $235 $-1 #
edge $-1 $477 0 $477 6.2831853071796004 $236 $478 forward 7 unknown #
vertex $-1 $239 $479 #
ellipse-curve $-1 43.752342694696509 -25.964228930134507 4.341948828105755 0 -0.50000000669873634 0.8660253999169214 2 0 0 1 I I #
face $-1 $-1 $255 $36 $-1 $480 reversed single #
loop $-1 $-1 $366 $240 #
plane-surface $-1 0 30.561577779240686 0 0 -1 0 0 0 -1 forward_v I I I I #
coedge $-1 $481 $364 $367 $482 forward $241 $-1 #
coedge $-1 $370 $243 $244 $358 reversed $152 $-1 #
coedge $-1 $364 $481 $243 $356 reversed $241 $-1 #
edge $-1 $371 -6.9962294711100288 $483 6.9962294711100288 $355 $484 forward 7 unknown #
coedge $-1 $245 $244 $481 $485 forward $97 $-1 #
edge $-1 $362 -67.698599200415046 $483 67.698599200415046 $354 $486 forward 7 unknown #
coedge $-1 $367 $366 $245 $360 reversed $351 $-1 #
edge $-1 $487 -67.698599200415046 $361 67.698599200415046 $359 $488 forward 7 unknown #
vertex $-1 $247 $489 #
vertex $-1 $373 $490 #
straight-curve $-1 67.698599200415046 0 -6.9962294711100288 0 -1 0 I I #
coedge $-1 $353 $355 $248 $365 reversed $241 $-1 #
edge $-1 $368 -30.561577779240686 $371 30.561577779240686 $364 $491 forward 7 unknown #
coedge $-1 $359 $249 $254 $374 forward $351 $-1 #
coedge $-1 $249 $359 $353 $482 reversed $351 $-1 #
vertex $-1 $250 $492 #
straight-curve $-1 0 30.561577779240686 6.9962294711100288 -1 0 0 I I #
coedge $-1 $251 $354 $253 $373 reversed $152 $-1 #
vertex $-1 $365 $493 #
straight-curve $-1 0 -30.561577779240686 6.9962294711100288 1 0 0 I I #
edge $-1 $256 -6.9962294711100288 $362 6.9962294711100288 $253 $494 forward 7 unknown #
edge $-1 $257 -6.9962294711100288 $361 6.9962294711100288 $254 $495 forward 7 unknown #
point $-1 67.698599200415046 -30.561577779240686 6.9962294711100288 #
point $-1 67.698599200415046 30.561577779240686 6.9962294711100288 #
face $-1 $-1 $386 $37 $-1 $496 reversed single #
loop $-1 $-1 $383 $259 #
plane-surface $-1 0 0 6.9962294711100288 0 0 1 1 0 0 forward_v I I I I #
coedge $-1 $497 $498 $266 $389 forward $260 $-1 #
coedge $-1 $262 $393 $499 $500 reversed $160 $-1 #
edge $-1 $501 -4.2481147355550144 $272 -1.2481147355550144 $262 $502 forward 7 unknown #
coedge $-1 $499 $503 $263 $384 forward $378 $-1 #
edge $-1 $387 -30.561577779240686 $501 30.561577779240686 $383 $504 forward 7 unknown #
coedge $-1 $390 $264 $503 $505 reversed $386 $-1 #
loop $-1 $-1 $264 $377 #
vertex $-1 $265 $506 #
straight-curve $-1 -59.891373351098082 -30.561577779240686 2.7481147355550144 0 0 1 I I #
edge $-1 $394 -30.561577779240686 $391 30.561577779240686 $380 $507 forward 7 unknown #
coedge $-1 $267 $385 $497 $508 forward $386 $-1 #
vertex $-1 $389 $509 #
straight-curve $-1 -31.897493137878282 -30.561577779240686 3.9962294711100288 1 0 0 I I #
coedge $-1 $381 $269 $498 $510 reversed $160 $-1 #
vertex $-1 $389 $511 #
straight-curve $-1 -31.897493137878282 30.561577779240686 3.9962294711100288 -1 0 0 I I #
point $-1 -59.891373351098082 30.561577779240686 3.9962294711100288 #
point $-1 -59.891373351098082 -30.561577779240686 3.9962294711100288 #
loop $-1 $-1 $283 $275 #
plane-surface $-1 0 30.561577779240686 0 0 -1 0 0 0 -1 forward_v I I I I #
coedge $-1 $401 $278 $280 $405 reversed $168 $-1 #
coedge $-1 $278 $400 $512 $513 reversed $168 $-1 #
coedge $-1 $286 $281 $278 $403 forward $276 $-1 #
edge $-1 $406 -17.586340897009194 $514 -13.387887134031722 $402 $515 forward 7 unknown #
coedge $-1 $280 $279 $409 $516 reversed $105 $-1 #
edge $-1 $517 -61.123155558481386 $406 -54.967050113957328 $400 $518 forward 7 unknown #
vertex $-1 $282 $519 #
straight-curve $-1 3.6049669693741535 26.363124016263221 6.9962294711100235 1 0 0 I I #
coedge $-1 $512 $283 $286 $413 reversed $398 $-1 #
coedge $-1 $283 $512 $404 $516 forward $398 $-1 #
vertex $-1 $284 $520 #
straight-curve $-1 -10.0563960818989 30.561577779240686 69.768625779878789 0 0 1 I I #
straight-curve $-1 -10.0563960818989 -11.124313531772074 47.196585493320214 0 0.68199835119979291 -0.73135370988377701 I I #
edge $-1 $514 -24.476263959395514 $287 10.0563960818989 $408 $521 forward 7 unknown #
point $-1 -10.0563960818989 30.561577779240686 6.9962294711100288 #
point $-1 -10.0563960818989 26.363124016263214 6.996229471110027 #
edge $-1 $522 1 $522 0 $290 $-1 forward 7 unknown #
vertex $-1 $291 $523 #
ellipse-curve $-1 -3.1498640736400176 26.855290008985936 3.2464757067593486 0 0.73135370988377701 0.68199835119979291 1.5 0 0 1 I I #
point $-1 -1.6498640736400176 28.462350897751975 4.745084193465849 #
edge $-1 $524 1 $524 0 $294 $-1 forward 7 unknown #
vertex $-1 $295 $525 #
ellipse-curve $-1 7.209933938748307 26.855290008985936 3.2464757067593486 0 0.73135370988377701 0.68199835119979291 1.5 0 0 1 I I #
point $-1 8.709933938748307 28.462350897751975 4.745084193465849 #
edge $-1 $526 1 $526 0 $298 $-1 forward 7 unknown #
vertex $-1 $299 $527 #
ellipse-curve $-1 17.569731951136632 26.855290008985936 3.2464757067593486 0 0.73135370988377701 0.68199835119979291 1.5 0 0 1 I I #
point $-1 19.069731951136632 28.462350897751975 4.745084193465849 #
plane-surface $-1 0 0 6.9962294711100288 0 0 1 1 0 0 forward_v I I I I #
coedge $-1 $439 $438 $431 $528 forward $303 $-1 #
coedge $-1 $431 $305 $307 $435 reversed $197 $-1 #
coedge $-1 $305 $430 $429 $528 reversed $197 $-1 #
coedge $-1 $313 $308 $305 $433 forward $314 $-1 #
edge $-1 $436 -27.763208862294611 $529 -18.568511164082246 $432 $530 forward 7 unknown #
coedge $-1 $307 $306 $439 $531 reversed $124 $-1 #
edge $-1 $532 -8.1518820400458524e-015 $436 10.617122429774479 $430 $533 forward 7 unknown #
vertex $-1 $309 $534 #
straight-curve $-1 -13.346292199812954 -21.36688008102832 6.9962294711100288 -1 0 0 I I #
coedge $-1 $429 $310 $313 $443 reversed $303 $-1 #
coedge $-1 $310 $429 $434 $531 forward $303 $-1 #
vertex $-1 $311 $535 #
straight-curve $-1 -11.176055822972236 -30.561577779240686 59.472540538905562 0 0 1 I I #
straight-curve $-1 -11.176055822972236 -30.561577779240679 1.6876681851014865 0 -0.8660253999169214 -0.50000000669873634 I I #
edge $-1 $529 -42.209112976279577 $315 -11.176055822972236 $438 $536 forward 7 unknown #
point $-1 -11.176055822972236 -30.561577779240686 6.9962294711100288 #
point $-1 -11.176055822972236 -21.36688008102832 6.9962294711100288 #
edge $-1 $537 1 $537 0 $318 $-1 forward 7 unknown #
vertex $-1 $319 $538 #
ellipse-curve $-1 -33.342525218191767 -23.243442736878752 -0.37059101096363101 0 -0.50000000669873634 0.8660253999169214 2 0 0 1 I I #
point $-1 -31.342525218191767 -25.96422893013451 4.3419488281057603 #
edge $-1 $539 1 $539 0 $322 $-1 forward 7 unknown #
vertex $-1 $323 $540 #
ellipse-curve $-1 -20.042643581060048 -23.243442736878752 -0.37059101096363101 0 -0.50000000669873634 0.8660253999169214 2 0 0 1 I I #
point $-1 -18.042643581060048 -25.96422893013451 4.3419488281057603 #
plane-surface $-1 0 0 6.9962294711100288 0 0 1 1 0 0 forward_v I I I I #
coedge $-1 $465 $464 $457 $541 forward $327 $-1 #
coedge $-1 $457 $329 $331 $461 reversed $219 $-1 #
coedge $-1 $329 $456 $455 $541 reversed $219 $-1 #
coedge $-1 $337 $332 $329 $459 forward $338 $-1 #
edge $-1 $462 -27.763208862294611 $542 -18.568511164082246 $458 $543 forward 7 unknown #
coedge $-1 $331 $330 $465 $544 reversed $138 $-1 #
edge $-1 $545 -8.1518820400458524e-015 $462 10.617122429774479 $456 $546 forward 7 unknown #
vertex $-1 $333 $547 #
straight-curve $-1 18.551200938065328 -21.36688008102832 6.9962294711100288 -1 0 0 I I #
coedge $-1 $455 $334 $337 $469 reversed $327 $-1 #
coedge $-1 $334 $455 $460 $544 forward $327 $-1 #
vertex $-1 $335 $548 #
straight-curve $-1 52.618930452784326 -30.561577779240686 59.472540538905562 0 0 1 I I #
straight-curve $-1 52.618930452784326 -30.561577779240679 1.6876681851014865 0 -0.8660253999169214 -0.50000000669873634 I I #
edge $-1 $542 21.585873299476987 $339 52.618930452784326 $464 $549 forward 7 unknown #
point $-1 52.618930452784326 -30.561577779240686 6.9962294711100288 #
point $-1 52.618930452784326 -21.36688008102832 6.9962294711100288 #
edge $-1 $550 1 $550 0 $342 $-1 forward 7 unknown #
vertex $-1 $343 $551 #
ellipse-curve $-1 30.452461057564804 -23.243442736878752 -0.37059101096363101 0 -0.50000000669873634 0.8660253999169214 2 0 0 1 I I #
point $-1 32.452461057564804 -25.96422893013451 4.3419488281057603 #
edge $-1 $552 1 $552 0 $346 $-1 forward 7 unknown #
vertex $-1 $347 $553 #
ellipse-curve $-1 43.752342694696509 -23.243442736878752 -0.37059101096363101 0 -0.50000000669873634 0.8660253999169214 2 0 0 1 I I #
point $-1 45.752342694696509 -25.96422893013451 4.3419488281057603 #
plane-surface $-1 67.698599200415046 0 0 -1 0 0 0 0 1 forward_v I I I I #
coedge $-1 $355 $353 $357 $485 reversed $241 $-1 #
edge $-1 $368 -6.9962294711100288 $487 6.9962294711100288 $367 $554 forward 7 unknown #
vertex $-1 $485 $555 #
straight-curve $-1 -67.698599200415046 -30.561577779240686 0 0 0 -1 I I #
edge $-1 $483 -30.561577779240686 $487 30.561577779240686 $481 $556 forward 7 unknown #
straight-curve $-1 0 -30.561577779240686 -6.9962294711100288 -1 0 0 I I #
vertex $-1 $360 $557 #
straight-curve $-1 0 30.561577779240686 -6.9962294711100288 1 0 0 I I #
point $-1 67.698599200415046 30.561577779240686 -6.9962294711100288 #
point $-1 67.698599200415046 -30.561577779240686 -6.9962294711100288 #
straight-curve $-1 -67.698599200415046 0 6.9962294711100288 0 -1 0 I I #
point $-1 -67.698599200415046 30.561577779240686 6.9962294711100288 #
point $-1 -67.698599200415046 -30.561577779240686 6.9962294711100288 #
straight-curve $-1 67.698599200415046 -30.561577779240686 0 0 0 -1 I I #
straight-curve $-1 67.698599200415046 30.561577779240686 0 0 0 -1 I I #
plane-surface $-1 0 -30.561577779240686 0 0 1 0 0 0 1 forward_v I I I I #
coedge $-1 $558 $380 $390 $508 reversed $260 $-1 #
coedge $-1 $380 $558 $393 $510 forward $260 $-1 #
coedge $-1 $559 $383 $381 $500 forward $378 $-1 #
edge $-1 $501 59.891373351098082 $560 67.698599200415046 $381 $561 forward 7 unknown #
vertex $-1 $500 $562 #
straight-curve $-1 -59.891373351098082 30.561577779240686 2.7481147355550144 0 0 -1 I I #
coedge $-1 $383 $559 $385 $505 forward $378 $-1 #
straight-curve $-1 -59.891373351098082 0 6.9962294711100288 0 1 0 I I #
edge $-1 $563 -67.698599200415046 $387 -59.891373351098082 $385 $564 forward 7 unknown #
point $-1 -59.891373351098082 -30.561577779240686 6.9962294711100288 #
straight-curve $-1 -67.698599200415046 0 3.9962294711100288 0 -1 0 I I #
edge $-1 $563 -6.9962294711100288 $391 -3.9962294711100288 $497 $565 forward 7 unknown #
point $-1 -67.698599200415046 -30.561577779240686 3.9962294711100288 #
edge $-1 $560 -6.9962294711100288 $394 -3.9962294711100288 $393 $566 forward 7 unknown #
point $-1 -67.698599200415046 30.561577779240686 3.9962294711100288 #
coedge $-1 $409 $408 $401 $513 forward $398 $-1 #
edge $-1 $514 62.772396308768762 $517 67.274686864057145 $512 $567 forward 7 unknown #
vertex $-1 $413 $568 #
straight-curve $-1 24.476263959395514 43.949464913272408 6.996229471110027 0 1 0 I I #
edge $-1 $517 -20.87129699002136 $410 13.661363051273053 $409 $569 forward 7 unknown #
vertex $-1 $516 $570 #
straight-curve $-1 24.476263959395514 -11.124313531772074 47.196585493320214 0 -0.68199835119979291 0.73135370988377701 I I #
point $-1 24.476263959395514 26.363124016263214 6.996229471110027 #
point $-1 -10.0563960818989 30.561577779240686 2.4939389158216443 #
straight-curve $-1 0 30.561577779240686 6.9962294711100288 -1 0 0 I I #
vertex $-1 $416 $571 #
point $-1 -1.6498640736400176 26.855290008985936 3.2464757067593486 #
vertex $-1 $420 $572 #
point $-1 8.709933938748307 26.855290008985936 3.2464757067593486 #
vertex $-1 $424 $573 #
point $-1 19.069731951136632 26.855290008985936 3.2464757067593486 #
edge $-1 $529 52.476311067795535 $532 57.784872353804083 $429 $574 forward 7 unknown #
vertex $-1 $443 $575 #
straight-curve $-1 -42.209112976279577 -49.130088943322932 6.996229471110027 0 -1 0 I I #
edge $-1 $532 -28.862820776466624 $440 2.1702363768407178 $439 $576 forward 7 unknown #
vertex $-1 $531 $577 #
straight-curve $-1 -42.209112976279577 -30.561577779240679 1.6876681851014865 0 0.8660253999169214 0.50000000669873634 I I #
point $-1 -42.209112976279577 -21.36688008102832 6.9962294711100288 #
point $-1 -11.176055822972236 -30.561577779240686 1.6876681851014825 #
straight-curve $-1 0 -30.561577779240686 6.9962294711100288 1 0 0 I I #
vertex $-1 $446 $578 #
point $-1 -31.342525218191767 -23.243442736878752 -0.37059101096363101 #
vertex $-1 $450 $579 #
point $-1 -18.042643581060048 -23.243442736878752 -0.37059101096363101 #
edge $-1 $542 52.476311067795535 $545 57.784872353804083 $455 $580 forward 7 unknown #
vertex $-1 $469 $581 #
straight-curve $-1 21.585873299476987 -49.130088943322932 6.996229471110027 0 -1 0 I I #
edge $-1 $545 3.0346723614116584 $466 34.067729514718998 $465 $582 forward 7 unknown #
vertex $-1 $544 $583 #
straight-curve $-1 21.585873299476987 -30.561577779240679 1.6876681851014865 0 0.8660253999169214 0.50000000669873634 I I #
point $-1 21.585873299476987 -21.36688008102832 6.9962294711100288 #
point $-1 52.618930452784326 -30.561577779240686 1.6876681851014825 #
straight-curve $-1 0 -30.561577779240686 6.9962294711100288 1 0 0 I I #
vertex $-1 $472 $584 #
point $-1 32.452461057564804 -23.243442736878752 -0.37059101096363101 #
vertex $-1 $476 $585 #
point $-1 45.752342694696509 -23.243442736878752 -0.37059101096363101 #
straight-curve $-1 -67.698599200415046 30.561577779240686 0 0 0 -1 I I #
point $-1 -67.698599200415046 -30.561577779240686 -6.9962294711100288 #
straight-curve $-1 -67.698599200415046 0 -6.9962294711100288 0 1 0 I I #
point $-1 -67.698599200415046 30.561577779240686 -6.9962294711100288 #
coedge $-1 $498 $497 $559 $586 reversed $260 $-1 #
coedge $-1 $503 $499 $558 $586 forward $378 $-1 #
vertex $-1 $500 $587 #
straight-curve $-1 0 30.561577779240686 6.9962294711100288 -1 0 0 I I #
point $-1 -59.891373351098082 30.561577779240686 6.9962294711100288 #
vertex $-1 $586 $588 #
straight-curve $-1 0 -30.561577779240686 6.9962294711100288 1 0 0 I I #
straight-curve $-1 -67.698599200415046 -30.561577779240686 0 0 0 -1 I I #
straight-curve $-1 -67.698599200415046 30.561577779240686 0 0 0 -1 I I #
straight-curve $-1 24.476263959395514 30.561577779240686 69.768625779878789 0 0 -1 I I #
point $-1 24.476263959395514 30.561577779240686 6.9962294711100288 #
straight-curve $-1 3.6049669693741535 30.561577779240682 2.4939389158216443 -1 0 0 I I #
point $-1 24.476263959395514 30.561577779240686 2.4939389158216443 #
point $-1 -3.1498640736400176 25.75825944416027 2.2234781799596592 #
point $-1 7.209933938748307 25.75825944416027 2.2234781799596592 #
point $-1 17.569731951136632 25.75825944416027 2.2234781799596592 #
straight-curve $-1 -42.209112976279577 -30.561577779240686 59.472540538905562 0 0 -1 I I #
point $-1 -42.209112976279577 -30.561577779240686 6.9962294711100288 #
straight-curve $-1 -13.346292199812954 -30.561577779240686 1.6876681851014819 1 0 0 I I #
point $-1 -42.209112976279577 -30.561577779240686 1.6876681851014825 #
point $-1 -33.342525218191767 -22.243442723481277 -2.1026418107974738 #
point $-1 -20.042643581060048 -22.243442723481277 -2.1026418107974738 #
straight-curve $-1 21.585873299476987 -30.561577779240686 59.472540538905562 0 0 -1 I I #
point $-1 21.585873299476987 -30.561577779240686 6.9962294711100288 #
straight-curve $-1 18.551200938065328 -30.561577779240686 1.6876681851014819 1 0 0 I I #
point $-1 21.585873299476987 -30.561577779240686 1.6876681851014825 #
point $-1 30.452461057564804 -22.243442723481277 -2.1026418107974738 #
point $-1 43.752342694696509 -22.243442723481277 -2.1026418107974738 #
edge $-1 $560 -30.561577779240686 $563 30.561577779240686 $558 $589 forward 7 unknown #
point $-1 -67.698599200415046 30.561577779240686 6.9962294711100288 #
point $-1 -67.698599200415046 -30.561577779240686 6.9962294711100288 #
straight-curve $-1 -67.698599200415046 0 6.9962294711100288 0 -1 0 I I #
End-of-ACIS-data 