500 0 7 0           
7 Unknown 11 ACIS 5.0 NT 24 Fri Mar 26 03:24:52 1999 
-1 9.9999999999999995e-007 1e-010 
body $-1 $7 $-1 $8 #
body $-1 $9 $-1 $10 #
body $-1 $11 $-1 $12 #
body $-1 $13 $-1 $14 #
body $-1 $15 $-1 $16 #
body $-1 $17 $-1 $18 #
body $-1 $19 $-1 $20 #
lump $-1 $-1 $21 $0 #
transform $-1 1 0 0 0 1 0 0 0 1 71.950437940610982 30.925711017541158 8.7855181608900299 1 rotate no_reflect no_shear #
lump $-1 $-1 $22 $1 #
transform $-1 1 0 0 0 1 0 0 0 1 71.950437940610982 30.925711017541158 8.7855181608900299 1 rotate no_reflect no_shear #
lump $-1 $-1 $23 $2 #
transform $-1 1 0 0 0 1 0 0 0 1 71.950437940610982 30.925711017541158 8.7855181608900299 1 rotate no_reflect no_shear #
lump $-1 $-1 $24 $3 #
transform $-1 1 0 0 0 1 0 0 0 1 71.950437940610982 30.925711017541158 8.7855181608900299 1 rotate no_reflect no_shear #
lump $-1 $-1 $25 $4 #
transform $-1 1 0 0 0 1 0 0 0 1 71.950437940610982 30.925711017541158 8.7855181608900299 1 rotate no_reflect no_shear #
lump $-1 $-1 $26 $5 #
transform $-1 1 0 0 0 1 0 0 0 1 71.950437940610982 30.925711017541158 8.7855181608900299 1 rotate no_reflect no_shear #
lump $-1 $-1 $27 $6 #
transform $-1 1 0 0 0 1 0 0 0 1 71.950437940610982 30.925711017541158 8.7855181608900299 1 rotate no_reflect no_shear #
shell $-1 $-1 $-1 $28 $-1 $7 #
shell $-1 $-1 $-1 $29 $-1 $9 #
shell $-1 $-1 $-1 $30 $-1 $11 #
shell $-1 $-1 $-1 $31 $-1 $13 #
shell $-1 $-1 $-1 $32 $-1 $15 #
shell $-1 $-1 $-1 $33 $-1 $17 #
shell $-1 $-1 $-1 $34 $-1 $19 #
face $-1 $35 $36 $21 $-1 $37 forward single #
face $-1 $38 $39 $22 $-1 $40 forward single #
face $-1 $41 $42 $23 $-1 $43 forward single #
face $-1 $44 $45 $24 $-1 $46 reversed single #
face $-1 $47 $48 $25 $-1 $49 forward single #
face $-1 $50 $51 $26 $-1 $52 forward single #
face $-1 $53 $54 $27 $-1 $55 forward single #
face $-1 $56 $57 $21 $-1 $58 reversed single #
loop $-1 $-1 $59 $28 #
plane-surface $-1 0 0 8.7855181608900299 0 0 1 1 0 0 forward_v I I I I #
face $-1 $60 $61 $22 $-1 $62 reversed single #
loop $-1 $-1 $63 $29 #
plane-surface $-1 -71.950437940610982 0 0 1 0 0 0 0 -1 forward_v I I I I #
face $-1 $64 $65 $23 $-1 $66 forward single #
loop $-1 $-1 $67 $30 #
plane-surface $-1 71.950437940610982 0 0 -1 0 0 0 0 1 forward_v I I I I #
face $-1 $68 $69 $24 $-1 $70 reversed single #
loop $-1 $-1 $71 $31 #
plane-surface $-1 29.909236547456459 57.426779262393566 157.00595382396983 1 0 0 0 -0.54463904215088732 -0.83867056331134215 forward_v I I I I #
face $-1 $72 $73 $25 $-1 $74 forward single #
loop $-1 $75 $76 $32 #
cone-surface $-1 34.15456674392567 25.15719032165412 4.120326447113225 0 -0.54463904215088732 -0.83867056331134215 1 0 0 1 I I 0 1 1 forward I I I I #
face $-1 $77 $78 $26 $-1 $79 forward single #
loop $-1 $80 $81 $33 #
cone-surface $-1 40.522562038629488 25.15719032165412 4.120326447113225 0 -0.54463904215088732 -0.83867056331134215 1 0 0 1 I I 0 1 1 forward I I I I #
face $-1 $82 $83 $27 $-1 $84 forward single #
loop $-1 $85 $86 $34 #
cone-surface $-1 46.890557333333305 25.15719032165412 4.120326447113225 0 -0.54463904215088732 -0.83867056331134215 1 0 0 1 I I 0 1 1 forward I I I I #
face $-1 $87 $88 $21 $-1 $89 reversed single #
loop $-1 $-1 $90 $35 #
plane-surface $-1 0 0 -8.7855181608900299 0 0 1 1 0 0 forward_v I I I I #
coedge $-1 $91 $92 $93 $94 forward $36 $-1 #
face $-1 $95 $96 $22 $-1 $97 reversed single #
loop $-1 $-1 $98 $38 #
plane-surface $-1 0 30.925711017541158 0 0 -1 0 0 0 -1 forward_v I I I I #
coedge $-1 $99 $100 $101 $102 forward $39 $-1 #
face $-1 $103 $104 $23 $-1 $105 reversed single #
loop $-1 $-1 $106 $41 #
plane-surface $-1 0 0 8.7855181608900299 0 0 1 1 0 0 forward_v I I I I #
coedge $-1 $107 $108 $109 $110 forward $42 $-1 #
face $-1 $111 $112 $24 $-1 $113 reversed single #
loop $-1 $-1 $114 $44 #
plane-surface $-1 40.522562038629488 -20.947255942228892 36.320525187669872 0 0.54463904215088732 0.83867056331134215 1 0 0 forward_v I I I I #
coedge $-1 $115 $116 $117 $118 reversed $45 $-1 #
face $-1 $-1 $119 $25 $-1 $120 forward single #
loop $-1 $121 $122 $47 #
cone-surface $-1 34.15456674392567 23.852737680018311 2.1116455647195824 0 -0.54463904215088732 -0.83867056331134215 0.5 0 0 1 I I -0.70710678118654746 0.70710678118654746 0.5 forward I I I I #
loop $-1 $-1 $123 $32 #
coedge $-1 $76 $76 $124 $125 reversed $48 $-1 #
face $-1 $-1 $126 $26 $-1 $127 forward single #
loop $-1 $128 $129 $50 #
cone-surface $-1 40.522562038629488 23.852737680018311 2.1116455647195824 0 -0.54463904215088732 -0.83867056331134215 0.5 0 0 1 I I -0.70710678118654746 0.70710678118654746 0.5 forward I I I I #
loop $-1 $-1 $130 $33 #
coedge $-1 $81 $81 $131 $132 reversed $51 $-1 #
face $-1 $-1 $133 $27 $-1 $134 forward single #
loop $-1 $135 $136 $53 #
cone-surface $-1 46.890557333333305 23.852737680018311 2.1116455647195824 0 -0.54463904215088732 -0.83867056331134215 0.5 0 0 1 I I -0.70710678118654746 0.70710678118654746 0.5 forward I I I I #
loop $-1 $-1 $137 $34 #
coedge $-1 $86 $86 $138 $139 reversed $54 $-1 #
face $-1 $140 $141 $21 $-1 $142 reversed single #
loop $-1 $-1 $143 $56 #
plane-surface $-1 0 -30.925711017541158 0 0 1 0 0 0 1 forward_v I I I I #
coedge $-1 $144 $145 $146 $147 forward $57 $-1 #
coedge $-1 $148 $59 $149 $150 forward $36 $-1 #
coedge $-1 $59 $148 $151 $152 forward $36 $-1 #
coedge $-1 $153 $154 $59 $94 reversed $155 $-1 #
edge $-1 $156 -30.925711017541158 $157 30.925711017541158 $93 $158 forward 7 unknown #
face $-1 $159 $160 $22 $-1 $161 reversed single #
loop $-1 $-1 $101 $60 #
plane-surface $-1 -76.512107837761747 0 4.6179002163347622 0 0 1 1 0 0 forward_v I I I I #
coedge $-1 $162 $163 $99 $164 forward $61 $-1 #
coedge $-1 $165 $63 $98 $164 reversed $39 $-1 #
coedge $-1 $63 $165 $166 $167 reversed $39 $-1 #
coedge $-1 $168 $169 $63 $102 reversed $96 $-1 #
edge $-1 $170 -30.925711017541158 $171 30.925711017541158 $101 $172 forward 7 unknown #
face $-1 $173 $174 $23 $-1 $175 reversed single #
loop $-1 $-1 $176 $64 #
plane-surface $-1 0 -30.925711017541158 0 0 1 0 0 0 1 forward_v I I I I #
coedge $-1 $177 $178 $179 $180 forward $65 $-1 #
coedge $-1 $179 $67 $176 $181 reversed $42 $-1 #
coedge $-1 $67 $179 $182 $183 reversed $42 $-1 #
coedge $-1 $184 $185 $67 $110 reversed $174 $-1 #
edge $-1 $186 -30.925711017541158 $187 30.925711017541158 $109 $188 forward 7 unknown #
face $-1 $189 $190 $24 $-1 $191 reversed single #
loop $-1 $-1 $192 $68 #
plane-surface $-1 51.135887529802517 57.426779262393566 157.00595382396983 -1 0 0 0 0.54463904215088732 0.83867056331134215 forward_v I I I I #
coedge $-1 $193 $194 $195 $196 reversed $69 $-1 #
coedge $-1 $116 $71 $197 $198 reversed $45 $-1 #
coedge $-1 $71 $115 $193 $199 reversed $45 $-1 #
coedge $-1 $195 $200 $71 $118 forward $201 $-1 #
edge $-1 $202 -2.2123213863443745 $203 7.260453764308977 $117 $204 forward 7 unknown #
loop $-1 $-1 $124 $72 #
plane-surface $-1 40.522562038629488 -20.947255942228892 36.320525187669872 0 0.54463904215088732 0.83867056331134215 1 0 0 forward_v I I I I #
loop $-1 $-1 $205 $47 #
coedge $-1 $122 $122 $123 $206 reversed $73 $-1 #
coedge $-1 $123 $123 $122 $206 forward $75 $-1 #
coedge $-1 $124 $124 $76 $125 forward $119 $-1 #
edge $-1 $207 1.1217463269214035e-015 $207 6.2831853071796013 $124 $208 forward 7 unknown #
loop $-1 $-1 $131 $77 #
plane-surface $-1 40.522562038629488 -20.947255942228892 36.320525187669872 0 0.54463904215088732 0.83867056331134215 1 0 0 forward_v I I I I #
loop $-1 $-1 $209 $50 #
coedge $-1 $129 $129 $130 $210 reversed $78 $-1 #
coedge $-1 $130 $130 $129 $210 forward $80 $-1 #
coedge $-1 $131 $131 $81 $132 forward $126 $-1 #
edge $-1 $211 1.1217463269214035e-015 $211 6.2831853071796013 $131 $212 forward 7 unknown #
loop $-1 $-1 $138 $82 #
plane-surface $-1 40.522562038629488 -20.947255942228892 36.320525187669872 0 0.54463904215088732 0.83867056331134215 1 0 0 forward_v I I I I #
loop $-1 $-1 $213 $53 #
coedge $-1 $136 $136 $137 $214 reversed $83 $-1 #
coedge $-1 $137 $137 $136 $214 forward $85 $-1 #
coedge $-1 $138 $138 $86 $139 forward $133 $-1 #
edge $-1 $215 1.1217463269214035e-015 $215 6.2831853071796013 $138 $216 forward 7 unknown #
face $-1 $217 $218 $21 $-1 $219 reversed single #
loop $-1 $-1 $220 $87 #
plane-surface $-1 -71.950437940610982 0 0 1 0 0 0 0 -1 forward_v I I I I #
coedge $-1 $221 $151 $222 $223 forward $88 $-1 #
coedge $-1 $224 $90 $221 $225 forward $57 $-1 #
coedge $-1 $90 $224 $226 $227 forward $57 $-1 #
coedge $-1 $154 $153 $90 $147 reversed $155 $-1 #
edge $-1 $228 -30.925711017541158 $229 30.925711017541158 $146 $230 forward 7 unknown #
coedge $-1 $92 $91 $231 $232 forward $36 $-1 #
coedge $-1 $233 $234 $91 $150 reversed $218 $-1 #
edge $-1 $157 -71.950437940610982 $235 71.950437940610982 $149 $236 forward 7 unknown #
coedge $-1 $143 $237 $92 $152 reversed $88 $-1 #
edge $-1 $238 -71.950437940610982 $156 71.950437940610982 $151 $239 forward 7 unknown #
coedge $-1 $146 $93 $237 $240 forward $155 $-1 #
coedge $-1 $93 $146 $233 $241 reversed $155 $-1 #
loop $-1 $-1 $153 $217 #
vertex $-1 $94 $242 #
vertex $-1 $94 $243 #
straight-curve $-1 71.950437940610982 0 8.7855181608900299 0 1 0 I I #
face $-1 $244 $245 $22 $-1 $246 forward single #
loop $-1 $-1 $247 $95 #
plane-surface $-1 -81.073777734912511 0 6.7017091886123961 1 0 0 0 0 -1 forward_v I I I I #
coedge $-1 $248 $98 $169 $249 reversed $61 $-1 #
coedge $-1 $98 $248 $250 $251 reversed $61 $-1 #
edge $-1 $252 -8.7855181608900299 $171 -4.6179002163347622 $98 $253 forward 7 unknown #
coedge $-1 $100 $99 $254 $255 reversed $39 $-1 #
coedge $-1 $256 $257 $100 $167 forward $258 $-1 #
edge $-1 $170 4.6179002163347622 $259 8.7855181608900299 $166 $260 forward 7 unknown #
coedge $-1 $261 $101 $257 $262 forward $96 $-1 #
coedge $-1 $101 $261 $162 $249 forward $96 $-1 #
vertex $-1 $167 $263 #
vertex $-1 $164 $264 #
straight-curve $-1 -71.950437940610982 0 4.6179002163347622 0 1 0 I I #
face $-1 $265 $266 $23 $-1 $267 reversed single #
loop $-1 $-1 $268 $103 #
plane-surface $-1 76.512107837761732 0 4.6179002163347622 0 0 1 1 0 0 forward_v I I I I #
coedge $-1 $269 $270 $107 $181 forward $104 $-1 #
coedge $-1 $271 $106 $270 $272 forward $65 $-1 #
coedge $-1 $106 $271 $273 $274 forward $65 $-1 #
coedge $-1 $108 $107 $106 $180 reversed $42 $-1 #
edge $-1 $275 -30.925711017541158 $276 30.925711017541158 $106 $277 forward 7 unknown #
edge $-1 $276 -8.7855181608900299 $187 -4.6179002163347622 $176 $278 forward 7 unknown #
coedge $-1 $273 $279 $108 $183 forward $280 $-1 #
edge $-1 $186 4.6179002163347622 $275 8.7855181608900299 $182 $281 forward 7 unknown #
coedge $-1 $268 $109 $279 $282 forward $174 $-1 #
coedge $-1 $109 $268 $269 $283 forward $174 $-1 #
vertex $-1 $183 $284 #
vertex $-1 $181 $285 #
straight-curve $-1 71.950437940610982 0 4.6179002163347622 0 -1 0 I I #
face $-1 $-1 $201 $24 $-1 $286 forward single #
loop $-1 $-1 $287 $111 #
plane-surface $-1 0 30.925711017541158 0 0 -1 0 0 0 -1 forward_v I I I I #
coedge $-1 $288 $289 $290 $291 reversed $112 $-1 #
coedge $-1 $292 $114 $116 $199 forward $69 $-1 #
coedge $-1 $114 $292 $288 $293 forward $69 $-1 #
coedge $-1 $290 $117 $114 $196 forward $201 $-1 #
edge $-1 $203 9.6479555281417149 $294 30.874606510487773 $195 $295 forward 7 unknown #
coedge $-1 $296 $297 $115 $198 forward $190 $-1 #
edge $-1 $298 -75.869150977172566 $202 -69.717458751094881 $197 $299 forward 7 unknown #
edge $-1 $203 50.556432601744177 $298 61.851422035082322 $116 $300 forward 7 unknown #
coedge $-1 $117 $290 $296 $301 forward $201 $-1 #
loop $-1 $-1 $290 $189 #
vertex $-1 $198 $302 #
vertex $-1 $118 $303 #
straight-curve $-1 29.909236547456459 28.713389631196783 8.7855181608900352 0 -1 0 I I #
coedge $-1 $205 $205 $-1 $304 reversed $121 $-1 #
edge $-1 $305 0 $305 6.2831853071796004 $122 $306 forward 7 unknown #
vertex $-1 $125 $307 #
ellipse-curve $-1 34.15456674392567 26.18932344221448 5.7096720478511873 0 0.54463904215088732 0.83867056331134215 1 0 0 1 I I #
coedge $-1 $209 $209 $-1 $308 reversed $128 $-1 #
edge $-1 $309 0 $309 6.2831853071796004 $129 $310 forward 7 unknown #
vertex $-1 $132 $311 #
ellipse-curve $-1 40.522562038629488 26.18932344221448 5.7096720478511873 0 0.54463904215088732 0.83867056331134215 1 0 0 1 I I #
coedge $-1 $213 $213 $-1 $312 reversed $135 $-1 #
edge $-1 $313 0 $313 6.2831853071796004 $136 $314 forward 7 unknown #
vertex $-1 $139 $315 #
ellipse-curve $-1 46.890557333333305 26.18932344221448 5.7096720478511873 0 0.54463904215088732 0.83867056331134215 1 0 0 1 I I #
face $-1 $-1 $155 $21 $-1 $316 reversed single #
loop $-1 $-1 $233 $140 #
plane-surface $-1 0 30.925711017541158 0 0 -1 0 0 0 -1 forward_v I I I I #
coedge $-1 $317 $231 $234 $318 forward $141 $-1 #
coedge $-1 $237 $143 $144 $225 reversed $88 $-1 #
coedge $-1 $231 $317 $143 $223 reversed $141 $-1 #
edge $-1 $238 -8.7855181608900299 $319 8.7855181608900299 $222 $320 forward 7 unknown #
coedge $-1 $145 $144 $317 $321 forward $57 $-1 #
edge $-1 $229 -71.950437940610982 $319 71.950437940610982 $221 $322 forward 7 unknown #
coedge $-1 $234 $233 $145 $227 reversed $218 $-1 #
edge $-1 $323 -71.950437940610982 $228 71.950437940610982 $226 $324 forward 7 unknown #
vertex $-1 $147 $325 #
vertex $-1 $240 $326 #
straight-curve $-1 71.950437940610982 0 -8.7855181608900299 0 -1 0 I I #
coedge $-1 $220 $222 $148 $232 reversed $141 $-1 #
edge $-1 $235 -30.925711017541158 $238 30.925711017541158 $231 $327 forward 7 unknown #
coedge $-1 $226 $149 $154 $241 forward $218 $-1 #
coedge $-1 $149 $226 $220 $318 reversed $218 $-1 #
vertex $-1 $150 $328 #
straight-curve $-1 0 30.925711017541158 8.7855181608900299 -1 0 0 I I #
coedge $-1 $151 $221 $153 $240 reversed $88 $-1 #
vertex $-1 $232 $329 #
straight-curve $-1 0 -30.925711017541158 8.7855181608900299 1 0 0 I I #
edge $-1 $156 -8.7855181608900299 $229 8.7855181608900299 $153 $330 forward 7 unknown #
edge $-1 $157 -8.7855181608900299 $228 8.7855181608900299 $154 $331 forward 7 unknown #
point $-1 71.950437940610982 -30.925711017541158 8.7855181608900299 #
point $-1 71.950437940610982 30.925711017541158 8.7855181608900299 #
face $-1 $-1 $258 $22 $-1 $332 reversed single #
loop $-1 $-1 $254 $159 #
plane-surface $-1 0 0 8.7855181608900299 0 0 1 1 0 0 forward_v I I I I #
coedge $-1 $333 $334 $248 $335 forward $160 $-1 #
coedge $-1 $163 $162 $247 $335 reversed $61 $-1 #
edge $-1 $336 -4.5616698971507645 $171 4.5616698971507645 $162 $337 forward 7 unknown #
coedge $-1 $338 $254 $163 $251 forward $245 $-1 #
edge $-1 $252 71.950437940610982 $339 81.073777734912511 $163 $340 forward 7 unknown #
vertex $-1 $251 $341 #
straight-curve $-1 -71.950437940610982 30.925711017541158 0 0 0 -1 I I #
coedge $-1 $250 $342 $165 $255 forward $245 $-1 #
edge $-1 $259 -30.925711017541158 $252 30.925711017541158 $254 $343 forward 7 unknown #
coedge $-1 $344 $166 $342 $345 reversed $258 $-1 #
coedge $-1 $166 $344 $168 $262 reversed $258 $-1 #
loop $-1 $-1 $166 $244 #
vertex $-1 $167 $346 #
straight-curve $-1 -71.950437940610982 -30.925711017541158 0 0 0 1 I I #
coedge $-1 $169 $168 $333 $347 forward $96 $-1 #
edge $-1 $170 -4.5616698971507645 $348 4.5616698971507645 $257 $349 forward 7 unknown #
point $-1 -71.950437940610982 -30.925711017541158 4.6179002163347622 #
point $-1 -71.950437940610982 30.925711017541158 4.6179002163347622 #
face $-1 $-1 $280 $23 $-1 $350 reversed single #
loop $-1 $-1 $351 $173 #
plane-surface $-1 81.073777734912497 0 6.7017091886123961 -1 0 0 0 0 1 forward_v I I I I #
coedge $-1 $185 $184 $352 $353 forward $174 $-1 #
coedge $-1 $354 $176 $185 $283 reversed $104 $-1 #
coedge $-1 $176 $354 $177 $272 reversed $104 $-1 #
coedge $-1 $178 $177 $355 $356 forward $65 $-1 #
edge $-1 $276 -4.5616698971507503 $357 4.5616698971507645 $270 $358 forward 7 unknown #
coedge $-1 $359 $182 $178 $274 reversed $280 $-1 #
edge $-1 $360 -81.073777734912497 $275 -71.950437940610982 $273 $361 forward 7 unknown #
vertex $-1 $183 $362 #
vertex $-1 $272 $363 #
straight-curve $-1 71.950437940610982 0 8.7855181608900299 0 -1 0 I I #
straight-curve $-1 71.950437940610982 -30.925711017541158 0 0 0 -1 I I #
coedge $-1 $182 $359 $184 $282 reversed $280 $-1 #
loop $-1 $-1 $182 $265 #
straight-curve $-1 71.950437940610982 30.925711017541158 0 0 0 1 I I #
edge $-1 $186 -4.5616698971507645 $364 4.5616698971507645 $279 $365 forward 7 unknown #
edge $-1 $366 -4.5616698971507645 $187 4.5616698971507645 $269 $367 forward 7 unknown #
point $-1 71.950437940610968 30.925711017541158 4.6179002163347622 #
point $-1 71.950437940610968 -30.925711017541158 4.6179002163347622 #
plane-surface $-1 0 0 8.7855181608900299 0 0 1 1 0 0 forward_v I I I I #
coedge $-1 $297 $296 $289 $368 forward $190 $-1 #
coedge $-1 $289 $192 $194 $293 reversed $112 $-1 #
coedge $-1 $192 $288 $287 $368 reversed $112 $-1 #
coedge $-1 $200 $195 $192 $291 forward $201 $-1 #
edge $-1 $294 -7.260453764308977 $369 2.2123213863443745 $290 $370 forward 7 unknown #
coedge $-1 $194 $193 $297 $371 reversed $69 $-1 #
edge $-1 $372 -61.851422035082322 $294 -50.556432601744177 $288 $373 forward 7 unknown #
vertex $-1 $196 $374 #
straight-curve $-1 20.261281019314744 21.452935866887803 8.7855181608900281 1 0 0 I I #
coedge $-1 $287 $197 $200 $301 reversed $190 $-1 #
coedge $-1 $197 $287 $292 $371 forward $190 $-1 #
vertex $-1 $198 $375 #
straight-curve $-1 29.909236547456459 30.925711017541158 78.502976911984916 0 0 1 I I #
straight-curve $-1 29.909236547456459 -20.947255942228892 36.320525187669872 0 0.83867056331134215 -0.54463904215088732 I I #
edge $-1 $369 -51.135887529802517 $202 -29.909236547456459 $296 $376 forward 7 unknown #
point $-1 29.909236547456459 30.925711017541158 8.7855181608900299 #
point $-1 29.909236547456459 21.452935866887806 8.7855181608900281 #
edge $-1 $377 1 $377 0 $205 $-1 forward 7 unknown #
vertex $-1 $206 $378 #
ellipse-curve $-1 34.15456674392567 24.125057201093753 2.5309808463752534 0 0.54463904215088732 0.83867056331134215 1 0 0 1 I I #
point $-1 35.15456674392567 26.189323442214487 5.7096720478511962 #
edge $-1 $379 1 $379 0 $209 $-1 forward 7 unknown #
vertex $-1 $210 $380 #
ellipse-curve $-1 40.522562038629488 24.125057201093753 2.5309808463752534 0 0.54463904215088732 0.83867056331134215 1 0 0 1 I I #
point $-1 41.522562038629488 26.189323442214487 5.7096720478511962 #
edge $-1 $381 1 $381 0 $213 $-1 forward 7 unknown #
vertex $-1 $214 $382 #
ellipse-curve $-1 46.890557333333305 24.125057201093753 2.5309808463752534 0 0.54463904215088732 0.83867056331134215 1 0 0 1 I I #
point $-1 47.890557333333305 26.189323442214487 5.7096720478511962 #
plane-surface $-1 71.950437940610982 0 0 -1 0 0 0 0 1 forward_v I I I I #
coedge $-1 $222 $220 $224 $321 reversed $141 $-1 #
edge $-1 $235 -8.7855181608900299 $323 8.7855181608900299 $234 $383 forward 7 unknown #
vertex $-1 $321 $384 #
straight-curve $-1 -71.950437940610982 -30.925711017541158 0 0 0 -1 I I #
edge $-1 $319 -30.925711017541158 $323 30.925711017541158 $317 $385 forward 7 unknown #
straight-curve $-1 0 -30.925711017541158 -8.7855181608900299 -1 0 0 I I #
vertex $-1 $227 $386 #
straight-curve $-1 0 30.925711017541158 -8.7855181608900299 1 0 0 I I #
point $-1 71.950437940610982 30.925711017541158 -8.7855181608900299 #
point $-1 71.950437940610982 -30.925711017541158 -8.7855181608900299 #
straight-curve $-1 -71.950437940610982 0 8.7855181608900299 0 -1 0 I I #
point $-1 -71.950437940610982 30.925711017541158 8.7855181608900299 #
point $-1 -71.950437940610982 -30.925711017541158 8.7855181608900299 #
straight-curve $-1 71.950437940610982 -30.925711017541158 0 0 0 -1 I I #
straight-curve $-1 71.950437940610982 30.925711017541158 0 0 0 -1 I I #
plane-surface $-1 0 -30.925711017541158 0 0 1 0 0 0 1 forward_v I I I I #
coedge $-1 $387 $247 $261 $347 reversed $160 $-1 #
coedge $-1 $247 $387 $338 $388 reversed $160 $-1 #
edge $-1 $339 -2.0838089722776338 $336 2.0838089722776338 $248 $389 forward 7 unknown #
vertex $-1 $249 $390 #
straight-curve $-1 -76.512107837761747 30.925711017541158 4.6179002163347622 1 0 0 I I #
coedge $-1 $342 $250 $334 $388 forward $245 $-1 #
vertex $-1 $251 $391 #
straight-curve $-1 0 30.925711017541158 8.7855181608900299 -1 0 0 I I #
point $-1 -71.950437940610982 30.925711017541158 8.7855181608900299 #
coedge $-1 $254 $338 $256 $345 forward $245 $-1 #
straight-curve $-1 -71.950437940610982 0 8.7855181608900299 0 1 0 I I #
coedge $-1 $257 $256 $387 $392 forward $258 $-1 #
edge $-1 $393 -81.073777734912511 $259 -71.950437940610982 $256 $394 forward 7 unknown #
point $-1 -71.950437940610982 -30.925711017541158 8.7855181608900299 #
edge $-1 $348 -30.925711017541158 $336 30.925711017541158 $333 $395 forward 7 unknown #
vertex $-1 $347 $396 #
straight-curve $-1 -76.512107837761747 -30.925711017541158 4.6179002163347622 -1 0 0 I I #
plane-surface $-1 0 30.925711017541158 0 0 -1 0 0 0 -1 forward_v I I I I #
coedge $-1 $352 $355 $354 $397 forward $266 $-1 #
coedge $-1 $398 $351 $268 $353 reversed $266 $-1 #
edge $-1 $364 -30.925711017541158 $366 30.925711017541158 $352 $399 forward 7 unknown #
coedge $-1 $270 $269 $351 $397 reversed $104 $-1 #
coedge $-1 $351 $398 $271 $356 reversed $266 $-1 #
edge $-1 $357 -30.925711017541158 $360 30.925711017541158 $355 $400 forward 7 unknown #
vertex $-1 $356 $401 #
straight-curve $-1 76.512107837761732 -30.925711017541158 8.7855181608900299 1 0 0 I I #
coedge $-1 $279 $273 $398 $402 forward $280 $-1 #
vertex $-1 $356 $403 #
straight-curve $-1 0 30.925711017541158 8.7855181608900299 -1 0 0 I I #
point $-1 71.950437940610982 30.925711017541158 8.7855181608900299 #
point $-1 71.950437940610982 -30.925711017541158 8.7855181608900299 #
vertex $-1 $353 $404 #
straight-curve $-1 76.512107837761732 30.925711017541158 4.6179002163347622 1 0 0 I I #
vertex $-1 $397 $405 #
straight-curve $-1 76.512107837761732 -30.925711017541158 4.6179002163347622 -1 0 0 I I #
edge $-1 $369 69.717458751094881 $372 75.869150977172566 $287 $406 forward 7 unknown #
vertex $-1 $301 $407 #
straight-curve $-1 51.135887529802517 28.713389631196783 8.7855181608900352 0 1 0 I I #
edge $-1 $372 -30.874606510487773 $298 -9.6479555281417149 $297 $408 forward 7 unknown #
vertex $-1 $371 $409 #
straight-curve $-1 51.135887529802517 -20.947255942228892 36.320525187669872 0 -0.83867056331134215 0.54463904215088732 I I #
point $-1 51.135887529802517 21.452935866887806 8.7855181608900281 #
point $-1 29.909236547456459 30.925711017541161 2.6338259348123501 #
straight-curve $-1 0 30.925711017541158 8.7855181608900299 -1 0 0 I I #
vertex $-1 $304 $410 #
point $-1 35.15456674392567 24.125057201093753 2.5309808463752534 #
vertex $-1 $308 $411 #
point $-1 41.522562038629488 24.125057201093753 2.5309808463752534 #
vertex $-1 $312 $412 #
point $-1 47.890557333333305 24.125057201093753 2.5309808463752534 #
straight-curve $-1 -71.950437940610982 30.925711017541158 0 0 0 -1 I I #
point $-1 -71.950437940610982 -30.925711017541158 -8.7855181608900299 #
straight-curve $-1 -71.950437940610982 0 -8.7855181608900299 0 1 0 I I #
point $-1 -71.950437940610982 30.925711017541158 -8.7855181608900299 #
coedge $-1 $334 $333 $344 $392 reversed $160 $-1 #
edge $-1 $339 -30.925711017541158 $393 30.925711017541158 $334 $413 forward 7 unknown #
straight-curve $-1 -81.073777734912511 30.925711017541158 6.7017091886123961 0 0 -1 I I #
point $-1 -81.073777734912511 30.925711017541158 4.6179002163347622 #
point $-1 -81.073777734912511 30.925711017541158 8.7855181608900299 #
edge $-1 $393 -2.0838089722776338 $348 2.0838089722776338 $387 $414 forward 7 unknown #
vertex $-1 $388 $415 #
straight-curve $-1 0 -30.925711017541158 8.7855181608900299 1 0 0 I I #
straight-curve $-1 -81.073777734912511 0 4.6179002163347622 0 1 0 I I #
point $-1 -81.073777734912511 -30.925711017541158 4.6179002163347622 #
edge $-1 $357 -2.0838089722776338 $366 2.0838089722776338 $351 $416 forward 7 unknown #
coedge $-1 $355 $352 $359 $402 reversed $266 $-1 #
straight-curve $-1 81.073777734912497 0 4.6179002163347622 0 -1 0 I I #
straight-curve $-1 81.073777734912497 0 8.7855181608900299 0 1 0 I I #
point $-1 81.073777734912497 -30.925711017541158 8.7855181608900299 #
edge $-1 $360 -2.0838089722776338 $364 2.0838089722776338 $398 $417 forward 7 unknown #
point $-1 81.073777734912497 30.925711017541158 8.7855181608900299 #
point $-1 81.073777734912497 30.925711017541158 4.6179002163347622 #
point $-1 81.073777734912497 -30.925711017541158 4.6179002163347622 #
straight-curve $-1 51.135887529802517 30.925711017541158 78.502976911984916 0 0 -1 I I #
point $-1 51.135887529802517 30.925711017541158 8.7855181608900299 #
straight-curve $-1 20.261281019314744 30.925711017541158 2.6338259348123501 -1 0 0 I I #
point $-1 51.135887529802517 30.925711017541161 2.6338259348123501 #
point $-1 34.15456674392567 23.580418158942869 1.6923102830639114 #
point $-1 40.522562038629488 23.580418158942869 1.6923102830639114 #
point $-1 46.890557333333305 23.580418158942869 1.6923102830639114 #
straight-curve $-1 -81.073777734912511 0 8.7855181608900299 0 -1 0 I I #
straight-curve $-1 -81.073777734912511 -30.925711017541158 6.7017091886123961 0 0 -1 I I #
point $-1 -81.073777734912511 -30.925711017541158 8.7855181608900299 #
straight-curve $-1 81.073777734912497 -30.925711017541158 6.7017091886123961 0 0 -1 I I #
straight-curve $-1 81.073777734912497 30.925711017541158 6.7017091886123961 0 0 -1 I I #
End-of-ACIS-data 