500 0 14 0           
7 Unknown 11 ACIS 5.0 NT 24 Fri Mar 26 14:34:49 1999 
-1 9.9999999999999995e-007 1e-010 
body $-1 $14 $-1 $15 #
body $-1 $16 $-1 $17 #
body $-1 $18 $-1 $19 #
body $-1 $20 $-1 $21 #
body $-1 $22 $-1 $23 #
body $-1 $24 $-1 $25 #
body $-1 $26 $-1 $27 #
body $-1 $28 $-1 $29 #
body $-1 $30 $-1 $31 #
body $-1 $32 $-1 $33 #
body $-1 $34 $-1 $35 #
body $-1 $36 $-1 $37 #
body $-1 $38 $-1 $39 #
body $-1 $40 $-1 $41 #
lump $-1 $-1 $42 $0 #
transform $-1 1 0 0 0 1 0 0 0 1 48.469496749778742 28.958035525733774 13.98959364487771 1 rotate no_reflect no_shear #
lump $-1 $-1 $43 $1 #
transform $-1 1 0 0 0 1 0 0 0 1 48.469496749778742 28.958035525733774 13.98959364487771 1 rotate no_reflect no_shear #
lump $-1 $-1 $44 $2 #
transform $-1 1 0 0 0 1 0 0 0 1 48.469496749778742 28.958035525733774 13.98959364487771 1 rotate no_reflect no_shear #
lump $-1 $-1 $45 $3 #
transform $-1 1 0 0 0 1 0 0 0 1 48.469496749778742 28.958035525733774 13.98959364487771 1 rotate no_reflect no_shear #
lump $-1 $-1 $46 $4 #
transform $-1 1 0 0 0 1 0 0 0 1 48.469496749778742 28.958035525733774 13.98959364487771 1 rotate no_reflect no_shear #
lump $-1 $-1 $47 $5 #
transform $-1 1 0 0 0 1 0 0 0 1 48.469496749778742 28.958035525733774 13.98959364487771 1 rotate no_reflect no_shear #
lump $-1 $-1 $48 $6 #
transform $-1 1 0 0 0 1 0 0 0 1 48.469496749778742 28.958035525733774 13.98959364487771 1 rotate no_reflect no_shear #
lump $-1 $-1 $49 $7 #
transform $-1 1 0 0 0 1 0 0 0 1 48.469496749778742 28.958035525733774 13.98959364487771 1 rotate no_reflect no_shear #
lump $-1 $-1 $50 $8 #
transform $-1 1 0 0 0 1 0 0 0 1 48.469496749778742 28.958035525733774 13.98959364487771 1 rotate no_reflect no_shear #
lump $-1 $-1 $51 $9 #
transform $-1 1 0 0 0 1 0 0 0 1 48.469496749778742 28.958035525733774 13.98959364487771 1 rotate no_reflect no_shear #
lump $-1 $-1 $52 $10 #
transform $-1 1 0 0 0 1 0 0 0 1 48.469496749778742 28.958035525733774 13.98959364487771 1 rotate no_reflect no_shear #
lump $-1 $-1 $53 $11 #
transform $-1 1 0 0 0 1 0 0 0 1 48.469496749778742 28.958035525733774 13.98959364487771 1 rotate no_reflect no_shear #
lump $-1 $-1 $54 $12 #
transform $-1 1 0 0 0 1 0 0 0 1 48.469496749778742 28.958035525733774 13.98959364487771 1 rotate no_reflect no_shear #
lump $-1 $-1 $55 $13 #
transform $-1 1 0 0 0 1 0 0 0 1 48.469496749778742 28.958035525733774 13.98959364487771 1 rotate no_reflect no_shear #
shell $-1 $-1 $-1 $56 $-1 $14 #
shell $-1 $-1 $-1 $57 $-1 $16 #
shell $-1 $-1 $-1 $58 $-1 $18 #
shell $-1 $-1 $-1 $59 $-1 $20 #
shell $-1 $-1 $-1 $60 $-1 $22 #
shell $-1 $-1 $-1 $61 $-1 $24 #
shell $-1 $-1 $-1 $62 $-1 $26 #
shell $-1 $-1 $-1 $63 $-1 $28 #
shell $-1 $-1 $-1 $64 $-1 $30 #
shell $-1 $-1 $-1 $65 $-1 $32 #
shell $-1 $-1 $-1 $66 $-1 $34 #
shell $-1 $-1 $-1 $67 $-1 $36 #
shell $-1 $-1 $-1 $68 $-1 $38 #
shell $-1 $-1 $-1 $69 $-1 $40 #
face $-1 $70 $71 $42 $-1 $72 forward single #
face $-1 $73 $74 $43 $-1 $75 forward single #
face $-1 $76 $77 $44 $-1 $78 reversed single #
face $-1 $79 $80 $45 $-1 $81 forward single #
face $-1 $82 $83 $46 $-1 $84 forward single #
face $-1 $85 $86 $47 $-1 $87 reversed single #
face $-1 $88 $89 $48 $-1 $90 forward single #
face $-1 $91 $92 $49 $-1 $93 forward single #
face $-1 $94 $95 $50 $-1 $96 reversed single #
face $-1 $97 $98 $51 $-1 $99 forward single #
face $-1 $100 $101 $52 $-1 $102 forward single #
face $-1 $103 $104 $53 $-1 $105 reversed single #
face $-1 $106 $107 $54 $-1 $108 forward single #
face $-1 $109 $110 $55 $-1 $111 forward single #
face $-1 $112 $113 $42 $-1 $114 reversed single #
loop $-1 $-1 $115 $56 #
plane-surface $-1 0 0 13.98959364487771 0 0 1 1 0 0 forward_v I I I I #
face $-1 $116 $117 $43 $-1 $118 forward single #
loop $-1 $-1 $119 $57 #
plane-surface $-1 -48.469496749778742 0 0 1 0 0 0 0 -1 forward_v I I I I #
face $-1 $120 $121 $44 $-1 $122 reversed single #
loop $-1 $-1 $123 $58 #
plane-surface $-1 -28.567365789549129 78.714564700512398 107.98441716044024 1 0 0 0 -0.83867057594974714 -0.54463902268945019 forward_v I I I I #
face $-1 $124 $125 $45 $-1 $126 forward single #
loop $-1 $127 $128 $59 #
cone-surface $-1 -24.863757803897489 25.920363639791546 9.8846985785999912 0 -0.83867057594974714 -0.54463902268945019 1 0 0 1 I I 0 1 1 forward I I I I #
face $-1 $129 $130 $46 $-1 $131 forward single #
loop $-1 $132 $133 $60 #
cone-surface $-1 -19.30834582542002 25.920363639791546 9.8846985785999912 0 -0.83867057594974714 -0.54463902268945019 1 0 0 1 I I 0 1 1 forward I I I I #
face $-1 $134 $135 $47 $-1 $136 reversed single #
loop $-1 $-1 $137 $61 #
plane-surface $-1 -8.3320623699667866 78.714564700512398 107.98441716044024 1 0 0 0 -0.83867057594974714 -0.54463902268945019 forward_v I I I I #
face $-1 $138 $139 $48 $-1 $140 forward single #
loop $-1 $141 $142 $62 #
cone-surface $-1 -4.6284543843151482 25.920363639791546 9.8846985785999912 0 -0.83867057594974714 -0.54463902268945019 1 0 0 1 I I 0 1 1 forward I I I I #
face $-1 $143 $144 $49 $-1 $145 forward single #
loop $-1 $146 $147 $63 #
cone-surface $-1 0.92695759416232448 25.920363639791546 9.8846985785999912 0 -0.83867057594974714 -0.54463902268945019 1 0 0 1 I I 0 1 1 forward I I I I #
face $-1 $148 $149 $50 $-1 $150 reversed single #
loop $-1 $-1 $151 $64 #
plane-surface $-1 11.90324104961555 78.714564700512398 107.98441716044024 1 0 0 0 -0.83867057594974714 -0.54463902268945019 forward_v I I I I #
face $-1 $152 $153 $51 $-1 $154 forward single #
loop $-1 $155 $156 $65 #
cone-surface $-1 15.606849035267189 25.920363639791546 9.8846985785999912 0 -0.83867057594974714 -0.54463902268945019 1 0 0 1 I I 0 1 1 forward I I I I #
face $-1 $157 $158 $52 $-1 $159 forward single #
loop $-1 $160 $161 $66 #
cone-surface $-1 21.162261013744669 25.920363639791546 9.8846985785999912 0 -0.83867057594974714 -0.54463902268945019 1 0 0 1 I I 0 1 1 forward I I I I #
face $-1 $162 $163 $53 $-1 $164 reversed single #
loop $-1 $-1 $165 $67 #
plane-surface $-1 32.138544469197903 78.714564700512398 107.98441716044024 1 0 0 0 -0.83867057594974714 -0.54463902268945019 forward_v I I I I #
face $-1 $166 $167 $54 $-1 $168 forward single #
loop $-1 $169 $170 $68 #
cone-surface $-1 35.84215245484954 25.920363639791546 9.8846985785999912 0 -0.83867057594974714 -0.54463902268945019 1 0 0 1 I I 0 1 1 forward I I I I #
face $-1 $171 $172 $55 $-1 $173 forward single #
loop $-1 $174 $175 $69 #
cone-surface $-1 41.39756443332702 25.920363639791546 9.8846985785999912 0 -0.83867057594974714 -0.54463902268945019 1 0 0 1 I I 0 1 1 forward I I I I #
face $-1 $176 $177 $42 $-1 $178 reversed single #
loop $-1 $-1 $179 $70 #
plane-surface $-1 0 0 -13.98959364487771 0 0 1 1 0 0 forward_v I I I I #
coedge $-1 $180 $181 $182 $183 forward $71 $-1 #
face $-1 $184 $185 $43 $-1 $186 reversed single #
loop $-1 $-1 $187 $73 #
plane-surface $-1 0 0 13.98959364487771 0 0 1 1 0 0 forward_v I I I I #
coedge $-1 $188 $189 $190 $191 forward $74 $-1 #
face $-1 $192 $193 $44 $-1 $194 reversed single #
loop $-1 $-1 $195 $76 #
plane-surface $-1 -22.086051814658752 -2.5853168097502675 55.187658480342293 0 0.83867057594974714 0.54463902268945019 1 0 0 forward_v I I I I #
coedge $-1 $196 $197 $198 $199 reversed $77 $-1 #
face $-1 $-1 $200 $45 $-1 $201 forward single #
loop $-1 $202 $203 $79 #
cone-surface $-1 -24.863757803897489 24.857864999426976 9.1947039159856399 0 -0.83867057594974714 -0.54463902268945019 0.5 0 0 1 I I -0.70710678118654746 0.70710678118654746 0.5 forward I I I I #
loop $-1 $-1 $204 $59 #
coedge $-1 $128 $128 $205 $206 reversed $80 $-1 #
face $-1 $-1 $207 $46 $-1 $208 forward single #
loop $-1 $209 $210 $82 #
cone-surface $-1 -19.30834582542002 24.857864999426976 9.1947039159856399 0 -0.83867057594974714 -0.54463902268945019 0.5 0 0 1 I I -0.70710678118654746 0.70710678118654746 0.5 forward I I I I #
loop $-1 $-1 $211 $60 #
coedge $-1 $133 $133 $212 $213 reversed $83 $-1 #
face $-1 $214 $215 $47 $-1 $216 reversed single #
loop $-1 $-1 $217 $85 #
plane-surface $-1 -1.8507483950764083 -2.5853168097502675 55.187658480342293 0 0.83867057594974714 0.54463902268945019 1 0 0 forward_v I I I I #
coedge $-1 $218 $219 $220 $221 reversed $86 $-1 #
face $-1 $-1 $222 $48 $-1 $223 forward single #
loop $-1 $224 $225 $88 #
cone-surface $-1 -4.6284543843151482 24.857864999426976 9.1947039159856399 0 -0.83867057594974714 -0.54463902268945019 0.5 0 0 1 I I -0.70710678118654746 0.70710678118654746 0.5 forward I I I I #
loop $-1 $-1 $226 $62 #
coedge $-1 $142 $142 $227 $228 reversed $89 $-1 #
face $-1 $-1 $229 $49 $-1 $230 forward single #
loop $-1 $231 $232 $91 #
cone-surface $-1 0.92695759416232448 24.857864999426976 9.1947039159856399 0 -0.83867057594974714 -0.54463902268945019 0.5 0 0 1 I I -0.70710678118654746 0.70710678118654746 0.5 forward I I I I #
loop $-1 $-1 $233 $63 #
coedge $-1 $147 $147 $234 $235 reversed $92 $-1 #
face $-1 $236 $237 $50 $-1 $238 reversed single #
loop $-1 $-1 $239 $94 #
plane-surface $-1 18.384555024505929 -2.5853168097502675 55.187658480342293 0 0.83867057594974714 0.54463902268945019 1 0 0 forward_v I I I I #
coedge $-1 $240 $241 $242 $243 reversed $95 $-1 #
face $-1 $-1 $244 $51 $-1 $245 forward single #
loop $-1 $246 $247 $97 #
cone-surface $-1 15.606849035267189 24.857864999426976 9.1947039159856399 0 -0.83867057594974714 -0.54463902268945019 0.5 0 0 1 I I -0.70710678118654746 0.70710678118654746 0.5 forward I I I I #
loop $-1 $-1 $248 $65 #
coedge $-1 $156 $156 $249 $250 reversed $98 $-1 #
face $-1 $-1 $251 $52 $-1 $252 forward single #
loop $-1 $253 $254 $100 #
cone-surface $-1 21.162261013744669 24.857864999426976 9.1947039159856399 0 -0.83867057594974714 -0.54463902268945019 0.5 0 0 1 I I -0.70710678118654746 0.70710678118654746 0.5 forward I I I I #
loop $-1 $-1 $255 $66 #
coedge $-1 $161 $161 $256 $257 reversed $101 $-1 #
face $-1 $258 $259 $53 $-1 $260 reversed single #
loop $-1 $-1 $261 $103 #
plane-surface $-1 38.61985844408828 -2.5853168097502675 55.187658480342293 0 0.83867057594974714 0.54463902268945019 1 0 0 forward_v I I I I #
coedge $-1 $262 $263 $264 $265 reversed $104 $-1 #
face $-1 $-1 $266 $54 $-1 $267 forward single #
loop $-1 $268 $269 $106 #
cone-surface $-1 35.84215245484954 24.857864999426976 9.1947039159856399 0 -0.83867057594974714 -0.54463902268945019 0.5 0 0 1 I I -0.70710678118654746 0.70710678118654746 0.5 forward I I I I #
loop $-1 $-1 $270 $68 #
coedge $-1 $170 $170 $271 $272 reversed $107 $-1 #
face $-1 $-1 $273 $55 $-1 $274 forward single #
loop $-1 $275 $276 $109 #
cone-surface $-1 41.39756443332702 24.857864999426976 9.1947039159856399 0 -0.83867057594974714 -0.54463902268945019 0.5 0 0 1 I I -0.70710678118654746 0.70710678118654746 0.5 forward I I I I #
loop $-1 $-1 $277 $69 #
coedge $-1 $175 $175 $278 $279 reversed $110 $-1 #
face $-1 $280 $281 $42 $-1 $282 reversed single #
loop $-1 $-1 $283 $112 #
plane-surface $-1 0 -28.958035525733774 0 0 1 0 0 0 1 forward_v I I I I #
coedge $-1 $284 $285 $286 $287 forward $113 $-1 #
coedge $-1 $288 $115 $289 $290 forward $71 $-1 #
coedge $-1 $115 $288 $291 $292 forward $71 $-1 #
coedge $-1 $293 $294 $115 $183 reversed $295 $-1 #
edge $-1 $296 -28.958035525733774 $297 28.958035525733774 $182 $298 forward 7 unknown #
face $-1 $299 $300 $43 $-1 $301 reversed single #
loop $-1 $-1 $302 $116 #
plane-surface $-1 -65.003303379208276 -25.153004383388012 0 1 0 0 0 0 -1 forward_v I I I I #
coedge $-1 $303 $304 $188 $305 forward $117 $-1 #
coedge $-1 $306 $119 $187 $305 reversed $74 $-1 #
coedge $-1 $119 $306 $307 $308 reversed $74 $-1 #
coedge $-1 $309 $310 $119 $191 reversed $300 $-1 #
edge $-1 $311 -13.98959364487771 $312 13.98959364487771 $190 $313 forward 7 unknown #
face $-1 $314 $315 $44 $-1 $316 forward single #
loop $-1 $-1 $317 $120 #
plane-surface $-1 -15.604737839768374 78.714564700512398 107.98441716044024 -1 0 0 0 0.83867057594974714 0.54463902268945019 forward_v I I I I #
coedge $-1 $318 $319 $320 $321 reversed $121 $-1 #
coedge $-1 $197 $123 $322 $323 reversed $77 $-1 #
coedge $-1 $123 $196 $318 $324 reversed $77 $-1 #
coedge $-1 $320 $325 $123 $199 forward $315 $-1 #
edge $-1 $326 10.399246824522425 $327 15.188263891627479 $198 $328 forward 7 unknown #
loop $-1 $-1 $205 $124 #
plane-surface $-1 -22.086051814658752 -2.5853168097502675 55.187658480342293 0 0.83867057594974714 0.54463902268945019 1 0 0 forward_v I I I I #
loop $-1 $-1 $329 $79 #
coedge $-1 $203 $203 $204 $330 reversed $125 $-1 #
coedge $-1 $204 $204 $203 $330 forward $127 $-1 #
coedge $-1 $205 $205 $128 $206 forward $200 $-1 #
edge $-1 $331 3.4247247195094268e-015 $331 6.283185307179604 $205 $332 forward 7 unknown #
loop $-1 $-1 $212 $129 #
plane-surface $-1 -22.086051814658752 -2.5853168097502675 55.187658480342293 0 0.83867057594974714 0.54463902268945019 1 0 0 forward_v I I I I #
loop $-1 $-1 $333 $82 #
coedge $-1 $210 $210 $211 $334 reversed $130 $-1 #
coedge $-1 $211 $211 $210 $334 forward $132 $-1 #
coedge $-1 $212 $212 $133 $213 forward $207 $-1 #
edge $-1 $335 3.4247247195094268e-015 $335 6.283185307179604 $212 $336 forward 7 unknown #
face $-1 $337 $338 $47 $-1 $339 forward single #
loop $-1 $-1 $340 $134 #
plane-surface $-1 4.63056557981397 78.714564700512398 107.98441716044024 -1 0 0 0 0.83867057594974714 0.54463902268945019 forward_v I I I I #
coedge $-1 $341 $342 $343 $344 reversed $135 $-1 #
coedge $-1 $219 $137 $345 $346 reversed $86 $-1 #
coedge $-1 $137 $218 $341 $347 reversed $86 $-1 #
coedge $-1 $343 $348 $137 $221 forward $338 $-1 #
edge $-1 $349 10.399246824522425 $350 15.188263891627479 $220 $351 forward 7 unknown #
loop $-1 $-1 $227 $138 #
plane-surface $-1 -1.8507483950764083 -2.5853168097502675 55.187658480342293 0 0.83867057594974714 0.54463902268945019 1 0 0 forward_v I I I I #
loop $-1 $-1 $352 $88 #
coedge $-1 $225 $225 $226 $353 reversed $139 $-1 #
coedge $-1 $226 $226 $225 $353 forward $141 $-1 #
coedge $-1 $227 $227 $142 $228 forward $222 $-1 #
edge $-1 $354 3.4247247195094268e-015 $354 6.283185307179604 $227 $355 forward 7 unknown #
loop $-1 $-1 $234 $143 #
plane-surface $-1 -1.8507483950764083 -2.5853168097502675 55.187658480342293 0 0.83867057594974714 0.54463902268945019 1 0 0 forward_v I I I I #
loop $-1 $-1 $356 $91 #
coedge $-1 $232 $232 $233 $357 reversed $144 $-1 #
coedge $-1 $233 $233 $232 $357 forward $146 $-1 #
coedge $-1 $234 $234 $147 $235 forward $229 $-1 #
edge $-1 $358 3.4247247195094268e-015 $358 6.283185307179604 $234 $359 forward 7 unknown #
face $-1 $360 $361 $50 $-1 $362 forward single #
loop $-1 $-1 $363 $148 #
plane-surface $-1 24.865868999396305 78.714564700512398 107.98441716044024 -1 0 0 0 0.83867057594974714 0.54463902268945019 forward_v I I I I #
coedge $-1 $364 $365 $366 $367 reversed $149 $-1 #
coedge $-1 $241 $151 $368 $369 reversed $95 $-1 #
coedge $-1 $151 $240 $364 $370 reversed $95 $-1 #
coedge $-1 $366 $371 $151 $243 forward $361 $-1 #
edge $-1 $372 10.399246824522425 $373 15.188263891627479 $242 $374 forward 7 unknown #
loop $-1 $-1 $249 $152 #
plane-surface $-1 18.384555024505929 -2.5853168097502675 55.187658480342293 0 0.83867057594974714 0.54463902268945019 1 0 0 forward_v I I I I #
loop $-1 $-1 $375 $97 #
coedge $-1 $247 $247 $248 $376 reversed $153 $-1 #
coedge $-1 $248 $248 $247 $376 forward $155 $-1 #
coedge $-1 $249 $249 $156 $250 forward $244 $-1 #
edge $-1 $377 3.4247247195094268e-015 $377 6.283185307179604 $249 $378 forward 7 unknown #
loop $-1 $-1 $256 $157 #
plane-surface $-1 18.384555024505929 -2.5853168097502675 55.187658480342293 0 0.83867057594974714 0.54463902268945019 1 0 0 forward_v I I I I #
loop $-1 $-1 $379 $100 #
coedge $-1 $254 $254 $255 $380 reversed $158 $-1 #
coedge $-1 $255 $255 $254 $380 forward $160 $-1 #
coedge $-1 $256 $256 $161 $257 forward $251 $-1 #
edge $-1 $381 3.4247247195094268e-015 $381 6.283185307179604 $256 $382 forward 7 unknown #
face $-1 $383 $384 $53 $-1 $385 forward single #
loop $-1 $-1 $386 $162 #
plane-surface $-1 45.101172418978656 78.714564700512398 107.98441716044024 -1 0 0 0 0.83867057594974714 0.54463902268945019 forward_v I I I I #
coedge $-1 $387 $388 $389 $390 reversed $163 $-1 #
coedge $-1 $263 $165 $391 $392 reversed $104 $-1 #
coedge $-1 $165 $262 $387 $393 reversed $104 $-1 #
coedge $-1 $389 $394 $165 $265 forward $384 $-1 #
edge $-1 $395 10.399246824522425 $396 15.188263891627479 $264 $397 forward 7 unknown #
loop $-1 $-1 $271 $166 #
plane-surface $-1 38.61985844408828 -2.5853168097502675 55.187658480342293 0 0.83867057594974714 0.54463902268945019 1 0 0 forward_v I I I I #
loop $-1 $-1 $398 $106 #
coedge $-1 $269 $269 $270 $399 reversed $167 $-1 #
coedge $-1 $270 $270 $269 $399 forward $169 $-1 #
coedge $-1 $271 $271 $170 $272 forward $266 $-1 #
edge $-1 $400 3.4247247195094268e-015 $400 6.283185307179604 $271 $401 forward 7 unknown #
loop $-1 $-1 $278 $171 #
plane-surface $-1 38.61985844408828 -2.5853168097502675 55.187658480342293 0 0.83867057594974714 0.54463902268945019 1 0 0 forward_v I I I I #
loop $-1 $-1 $402 $109 #
coedge $-1 $276 $276 $277 $403 reversed $172 $-1 #
coedge $-1 $277 $277 $276 $403 forward $174 $-1 #
coedge $-1 $278 $278 $175 $279 forward $273 $-1 #
edge $-1 $404 3.4247247195094268e-015 $404 6.283185307179604 $278 $405 forward 7 unknown #
face $-1 $406 $407 $42 $-1 $408 reversed single #
loop $-1 $-1 $409 $176 #
plane-surface $-1 -48.469496749778742 0 0 1 0 0 0 0 -1 forward_v I I I I #
coedge $-1 $410 $291 $411 $412 forward $177 $-1 #
coedge $-1 $413 $179 $410 $414 forward $113 $-1 #
coedge $-1 $179 $413 $415 $416 forward $113 $-1 #
coedge $-1 $294 $293 $179 $287 reversed $295 $-1 #
edge $-1 $417 -28.958035525733774 $418 28.958035525733774 $286 $419 forward 7 unknown #
coedge $-1 $181 $180 $420 $421 forward $71 $-1 #
coedge $-1 $422 $423 $180 $290 reversed $407 $-1 #
edge $-1 $297 -48.469496749778742 $424 48.469496749778742 $289 $425 forward 7 unknown #
coedge $-1 $283 $426 $181 $292 reversed $177 $-1 #
edge $-1 $427 -48.469496749778742 $296 48.469496749778742 $291 $428 forward 7 unknown #
coedge $-1 $286 $182 $426 $429 forward $295 $-1 #
coedge $-1 $182 $286 $422 $430 reversed $295 $-1 #
loop $-1 $-1 $293 $406 #
vertex $-1 $183 $431 #
vertex $-1 $183 $432 #
straight-curve $-1 48.469496749778742 0 13.98959364487771 0 1 0 I I #
face $-1 $433 $434 $43 $-1 $435 reversed single #
loop $-1 $-1 $190 $184 #
plane-surface $-1 -56.736400064493509 -21.347973241042251 0 0 -1 0 0 0 -1 forward_v I I I I #
coedge $-1 $436 $437 $438 $439 forward $185 $-1 #
coedge $-1 $440 $187 $310 $441 forward $117 $-1 #
coedge $-1 $187 $440 $442 $443 forward $117 $-1 #
edge $-1 $444 -28.958035525733774 $312 -21.347973241042251 $187 $445 forward 7 unknown #
coedge $-1 $189 $188 $446 $447 reversed $74 $-1 #
coedge $-1 $448 $449 $189 $308 forward $434 $-1 #
edge $-1 $311 21.347973241042251 $450 28.958035525733774 $307 $451 forward 7 unknown #
coedge $-1 $438 $190 $449 $452 reversed $300 $-1 #
coedge $-1 $190 $438 $303 $441 reversed $300 $-1 #
vertex $-1 $308 $453 #
vertex $-1 $441 $454 #
straight-curve $-1 -48.469496749778742 -21.347973241042251 0 0 0 1 I I #
face $-1 $-1 $455 $44 $-1 $456 reversed single #
loop $-1 $-1 $198 $192 #
plane-surface $-1 0 0 13.98959364487771 0 0 1 1 0 0 forward_v I I I I #
coedge $-1 $457 $458 $459 $460 reversed $193 $-1 #
coedge $-1 $461 $195 $197 $324 forward $121 $-1 #
coedge $-1 $195 $461 $457 $462 forward $121 $-1 #
coedge $-1 $459 $198 $195 $321 forward $315 $-1 #
edge $-1 $327 -17.524339882219753 $463 -4.5617119324389979 $320 $464 forward 7 unknown #
coedge $-1 $465 $466 $196 $323 forward $455 $-1 #
edge $-1 $467 -47.377054765358594 $326 -40.002614935342415 $322 $468 forward 7 unknown #
edge $-1 $327 49.123059776849935 $467 57.916071051467547 $197 $469 forward 7 unknown #
coedge $-1 $198 $459 $465 $470 forward $315 $-1 #
vertex $-1 $323 $471 #
vertex $-1 $199 $472 #
straight-curve $-1 -28.567365789549129 39.357282350256199 13.989593644877708 0 -1 0 I I #
coedge $-1 $329 $329 $-1 $473 reversed $202 $-1 #
edge $-1 $474 0 $474 6.2831853071796004 $203 $475 forward 7 unknown #
vertex $-1 $206 $476 #
ellipse-curve $-1 -24.863757803897489 26.563526992181242 10.302373729869618 0 0.83867057594974714 0.54463902268945019 1 0 0 1 I I #
coedge $-1 $333 $333 $-1 $477 reversed $209 $-1 #
edge $-1 $478 0 $478 6.2831853071796004 $210 $479 forward 7 unknown #
vertex $-1 $213 $480 #
ellipse-curve $-1 -19.30834582542002 26.563526992181242 10.302373729869618 0 0.83867057594974714 0.54463902268945019 1 0 0 1 I I #
face $-1 $-1 $481 $47 $-1 $482 reversed single #
loop $-1 $-1 $220 $214 #
plane-surface $-1 0 0 13.98959364487771 0 0 1 1 0 0 forward_v I I I I #
coedge $-1 $483 $484 $485 $486 reversed $215 $-1 #
coedge $-1 $487 $217 $219 $347 forward $135 $-1 #
coedge $-1 $217 $487 $483 $488 forward $135 $-1 #
coedge $-1 $485 $220 $217 $344 forward $338 $-1 #
edge $-1 $350 -7.4066881724285825 $489 5.5559397773521741 $343 $490 forward 7 unknown #
coedge $-1 $491 $492 $218 $346 forward $481 $-1 #
edge $-1 $493 -47.377054765358594 $349 -40.002614935342415 $345 $494 forward 7 unknown #
edge $-1 $350 49.123059776849935 $493 57.916071051467547 $219 $495 forward 7 unknown #
coedge $-1 $220 $485 $491 $496 forward $338 $-1 #
vertex $-1 $221 $497 #
vertex $-1 $221 $498 #
straight-curve $-1 -8.3320623699667866 39.357282350256199 13.989593644877708 0 -1 0 I I #
coedge $-1 $352 $352 $-1 $499 reversed $224 $-1 #
edge $-1 $500 0 $500 6.2831853071796004 $225 $501 forward 7 unknown #
vertex $-1 $228 $502 #
ellipse-curve $-1 -4.6284543843151482 26.563526992181242 10.302373729869618 0 0.83867057594974714 0.54463902268945019 1 0 0 1 I I #
coedge $-1 $356 $356 $-1 $503 reversed $231 $-1 #
edge $-1 $504 0 $504 6.2831853071796004 $232 $505 forward 7 unknown #
vertex $-1 $235 $506 #
ellipse-curve $-1 0.92695759416232448 26.563526992181242 10.302373729869618 0 0.83867057594974714 0.54463902268945019 1 0 0 1 I I #
face $-1 $-1 $507 $50 $-1 $508 reversed single #
loop $-1 $-1 $242 $236 #
plane-surface $-1 0 0 13.98959364487771 0 0 1 1 0 0 forward_v I I I I #
coedge $-1 $509 $510 $511 $512 reversed $237 $-1 #
coedge $-1 $513 $239 $241 $370 forward $149 $-1 #
coedge $-1 $239 $513 $509 $514 forward $149 $-1 #
coedge $-1 $511 $242 $239 $367 forward $361 $-1 #
edge $-1 $373 2.710963537362586 $515 15.673591487143341 $366 $516 forward 7 unknown #
coedge $-1 $517 $518 $240 $369 forward $507 $-1 #
edge $-1 $519 -47.377054765358594 $372 -40.002614935342415 $368 $520 forward 7 unknown #
edge $-1 $373 49.123059776849935 $519 57.916071051467547 $241 $521 forward 7 unknown #
coedge $-1 $242 $511 $517 $522 forward $361 $-1 #
vertex $-1 $243 $523 #
vertex $-1 $243 $524 #
straight-curve $-1 11.90324104961555 39.357282350256199 13.989593644877708 0 -1 0 I I #
coedge $-1 $375 $375 $-1 $525 reversed $246 $-1 #
edge $-1 $526 0 $526 6.2831853071796004 $247 $527 forward 7 unknown #
vertex $-1 $250 $528 #
ellipse-curve $-1 15.606849035267189 26.563526992181242 10.302373729869618 0 0.83867057594974714 0.54463902268945019 1 0 0 1 I I #
coedge $-1 $379 $379 $-1 $529 reversed $253 $-1 #
edge $-1 $530 0 $530 6.2831853071796004 $254 $531 forward 7 unknown #
vertex $-1 $257 $532 #
ellipse-curve $-1 21.162261013744669 26.563526992181242 10.302373729869618 0 0.83867057594974714 0.54463902268945019 1 0 0 1 I I #
face $-1 $-1 $533 $53 $-1 $534 reversed single #
loop $-1 $-1 $264 $258 #
plane-surface $-1 0 0 13.98959364487771 0 0 1 1 0 0 forward_v I I I I #
coedge $-1 $535 $536 $537 $538 reversed $259 $-1 #
coedge $-1 $539 $261 $263 $393 forward $163 $-1 #
coedge $-1 $261 $539 $535 $540 forward $163 $-1 #
coedge $-1 $537 $264 $261 $390 forward $384 $-1 #
edge $-1 $396 12.828615247153763 $541 25.791243196934516 $389 $542 forward 7 unknown #
coedge $-1 $543 $544 $262 $392 forward $533 $-1 #
edge $-1 $545 -47.377054765358594 $395 -40.002614935342415 $391 $546 forward 7 unknown #
edge $-1 $396 49.123059776849935 $545 57.916071051467547 $263 $547 forward 7 unknown #
coedge $-1 $264 $537 $543 $548 forward $384 $-1 #
vertex $-1 $265 $549 #
vertex $-1 $265 $550 #
straight-curve $-1 32.138544469197903 39.357282350256199 13.989593644877708 0 -1 0 I I #
coedge $-1 $398 $398 $-1 $551 reversed $268 $-1 #
edge $-1 $552 0 $552 6.2831853071796004 $269 $553 forward 7 unknown #
vertex $-1 $272 $554 #
ellipse-curve $-1 35.84215245484954 26.563526992181242 10.302373729869618 0 0.83867057594974714 0.54463902268945019 1 0 0 1 I I #
coedge $-1 $402 $402 $-1 $555 reversed $275 $-1 #
edge $-1 $556 0 $556 6.2831853071796004 $276 $557 forward 7 unknown #
vertex $-1 $279 $558 #
ellipse-curve $-1 41.39756443332702 26.563526992181242 10.302373729869618 0 0.83867057594974714 0.54463902268945019 1 0 0 1 I I #
face $-1 $-1 $295 $42 $-1 $559 reversed single #
loop $-1 $-1 $422 $280 #
plane-surface $-1 0 28.958035525733774 0 0 -1 0 0 0 -1 forward_v I I I I #
coedge $-1 $560 $420 $423 $561 forward $281 $-1 #
coedge $-1 $426 $283 $284 $414 reversed $177 $-1 #
coedge $-1 $420 $560 $283 $412 reversed $281 $-1 #
edge $-1 $427 -13.98959364487771 $562 13.98959364487771 $411 $563 forward 7 unknown #
coedge $-1 $285 $284 $560 $564 forward $113 $-1 #
edge $-1 $418 -48.469496749778742 $562 48.469496749778742 $410 $565 forward 7 unknown #
coedge $-1 $423 $422 $285 $416 reversed $407 $-1 #
edge $-1 $566 -48.469496749778742 $417 48.469496749778742 $415 $567 forward 7 unknown #
vertex $-1 $287 $568 #
vertex $-1 $429 $569 #
straight-curve $-1 48.469496749778742 0 -13.98959364487771 0 -1 0 I I #
coedge $-1 $409 $411 $288 $421 reversed $281 $-1 #
edge $-1 $424 -28.958035525733774 $427 28.958035525733774 $420 $570 forward 7 unknown #
coedge $-1 $415 $289 $294 $430 forward $407 $-1 #
coedge $-1 $289 $415 $409 $561 reversed $407 $-1 #
vertex $-1 $290 $571 #
straight-curve $-1 0 28.958035525733774 13.98959364487771 -1 0 0 I I #
coedge $-1 $291 $410 $293 $429 reversed $177 $-1 #
vertex $-1 $421 $572 #
straight-curve $-1 0 -28.958035525733774 13.98959364487771 1 0 0 I I #
edge $-1 $296 -13.98959364487771 $418 13.98959364487771 $293 $573 forward 7 unknown #
edge $-1 $297 -13.98959364487771 $417 13.98959364487771 $294 $574 forward 7 unknown #
point $-1 48.469496749778742 -28.958035525733774 13.98959364487771 #
point $-1 48.469496749778742 28.958035525733774 13.98959364487771 #
face $-1 $-1 $575 $43 $-1 $576 reversed single #
loop $-1 $-1 $307 $299 #
plane-surface $-1 0 0 -13.98959364487771 0 0 1 1 0 0 forward_v I I I I #
coedge $-1 $577 $302 $578 $579 reversed $185 $-1 #
coedge $-1 $302 $577 $440 $580 reversed $185 $-1 #
coedge $-1 $310 $309 $302 $439 reversed $300 $-1 #
edge $-1 $581 -13.98959364487771 $582 13.98959364487771 $438 $583 forward 7 unknown #
coedge $-1 $304 $303 $437 $580 forward $117 $-1 #
edge $-1 $312 -8.2669033147147672 $581 8.2669033147147672 $310 $584 forward 7 unknown #
coedge $-1 $585 $446 $304 $443 reversed $575 $-1 #
edge $-1 $586 -65.003303379208276 $444 -48.469496749778742 $442 $587 forward 7 unknown #
vertex $-1 $447 $588 #
straight-curve $-1 -48.469496749778742 0 13.98959364487771 0 1 0 I I #
coedge $-1 $442 $589 $306 $447 forward $575 $-1 #
edge $-1 $450 -13.98959364487771 $444 13.98959364487771 $446 $590 forward 7 unknown #
coedge $-1 $578 $307 $589 $591 forward $434 $-1 #
coedge $-1 $307 $578 $309 $452 forward $434 $-1 #
vertex $-1 $591 $592 #
straight-curve $-1 -48.469496749778742 0 -13.98959364487771 0 -1 0 I I #
edge $-1 $582 -8.2669033147147672 $311 8.2669033147147672 $309 $593 forward 7 unknown #
point $-1 -48.469496749778742 -21.347973241042251 -13.98959364487771 #
point $-1 -48.469496749778742 -21.347973241042251 13.98959364487771 #
loop $-1 $-1 $322 $314 #
plane-surface $-1 0 28.958035525733774 0 0 -1 0 0 0 -1 forward_v I I I I #
coedge $-1 $458 $317 $319 $462 reversed $193 $-1 #
coedge $-1 $317 $457 $594 $595 reversed $193 $-1 #
coedge $-1 $325 $320 $317 $460 forward $315 $-1 #
edge $-1 $463 -15.188263891627479 $596 -10.399246824522425 $459 $597 forward 7 unknown #
coedge $-1 $319 $318 $466 $598 reversed $121 $-1 #
edge $-1 $599 -57.916071051467547 $463 -49.123059776849935 $457 $600 forward 7 unknown #
vertex $-1 $321 $601 #
straight-curve $-1 -11.043025907329376 24.16901845862872 13.989593644877704 1 0 0 I I #
coedge $-1 $594 $322 $325 $470 reversed $455 $-1 #
coedge $-1 $322 $594 $461 $598 forward $455 $-1 #
vertex $-1 $323 $602 #
straight-curve $-1 -28.567365789549129 28.958035525733774 53.992208580220122 0 0 1 I I #
straight-curve $-1 -28.567365789549129 -2.5853168097502675 55.187658480342293 0 0.54463902268945019 -0.83867057594974714 I I #
edge $-1 $596 15.604737839768374 $326 28.567365789549129 $465 $603 forward 7 unknown #
point $-1 -28.567365789549129 28.958035525733774 13.98959364487771 #
point $-1 -28.567365789549129 24.16901845862872 13.989593644877708 #
edge $-1 $604 1 $604 0 $329 $-1 forward 7 unknown #
vertex $-1 $330 $605 #
ellipse-curve $-1 -24.863757803897489 25.27720028740185 9.4670234273303642 0 0.83867057594974714 0.54463902268945019 1 0 0 1 I I #
point $-1 -23.863757803897489 26.563526992181245 10.302373729869617 #
edge $-1 $606 1 $606 0 $333 $-1 forward 7 unknown #
vertex $-1 $334 $607 #
ellipse-curve $-1 -19.30834582542002 25.27720028740185 9.4670234273303642 0 0.83867057594974714 0.54463902268945019 1 0 0 1 I I #
point $-1 -18.30834582542002 26.563526992181245 10.302373729869617 #
loop $-1 $-1 $345 $337 #
plane-surface $-1 0 28.958035525733774 0 0 -1 0 0 0 -1 forward_v I I I I #
coedge $-1 $484 $340 $342 $488 reversed $215 $-1 #
coedge $-1 $340 $483 $608 $609 reversed $215 $-1 #
coedge $-1 $348 $343 $340 $486 forward $338 $-1 #
edge $-1 $489 -15.188263891627479 $610 -10.399246824522425 $485 $611 forward 7 unknown #
coedge $-1 $342 $341 $492 $612 reversed $135 $-1 #
edge $-1 $613 -57.916071051467547 $489 -49.123059776849935 $483 $614 forward 7 unknown #
vertex $-1 $344 $615 #
straight-curve $-1 -0.92537419753820416 24.16901845862872 13.989593644877704 1 0 0 I I #
coedge $-1 $608 $345 $348 $496 reversed $481 $-1 #
coedge $-1 $345 $608 $487 $612 forward $481 $-1 #
vertex $-1 $346 $616 #
straight-curve $-1 -8.3320623699667866 28.958035525733774 53.992208580220122 0 0 1 I I #
straight-curve $-1 -8.3320623699667866 -2.5853168097502675 55.187658480342293 0 0.54463902268945019 -0.83867057594974714 I I #
edge $-1 $610 -4.63056557981397 $349 8.3320623699667866 $491 $617 forward 7 unknown #
point $-1 -8.3320623699667866 28.958035525733774 13.98959364487771 #
point $-1 -8.3320623699667866 24.16901845862872 13.989593644877708 #
edge $-1 $618 1 $618 0 $352 $-1 forward 7 unknown #
vertex $-1 $353 $619 #
ellipse-curve $-1 -4.6284543843151482 25.27720028740185 9.4670234273303642 0 0.83867057594974714 0.54463902268945019 1 0 0 1 I I #
point $-1 -3.6284543843151482 26.563526992181245 10.302373729869617 #
edge $-1 $620 1 $620 0 $356 $-1 forward 7 unknown #
vertex $-1 $357 $621 #
ellipse-curve $-1 0.92695759416232448 25.27720028740185 9.4670234273303642 0 0.83867057594974714 0.54463902268945019 1 0 0 1 I I #
point $-1 1.9269575941623245 26.563526992181245 10.302373729869617 #
loop $-1 $-1 $368 $360 #
plane-surface $-1 0 28.958035525733774 0 0 -1 0 0 0 -1 forward_v I I I I #
coedge $-1 $510 $363 $365 $514 reversed $237 $-1 #
coedge $-1 $363 $509 $622 $623 reversed $237 $-1 #
coedge $-1 $371 $366 $363 $512 forward $361 $-1 #
edge $-1 $515 -15.188263891627479 $624 -10.399246824522425 $511 $625 forward 7 unknown #
coedge $-1 $365 $364 $518 $626 reversed $149 $-1 #
edge $-1 $627 -57.916071051467547 $515 -49.123059776849935 $509 $628 forward 7 unknown #
vertex $-1 $367 $629 #
straight-curve $-1 9.1922775122529643 24.16901845862872 13.989593644877704 1 0 0 I I #
coedge $-1 $622 $368 $371 $522 reversed $507 $-1 #
coedge $-1 $368 $622 $513 $626 forward $507 $-1 #
vertex $-1 $369 $630 #
straight-curve $-1 11.90324104961555 28.958035525733774 53.992208580220122 0 0 1 I I #
straight-curve $-1 11.90324104961555 -2.5853168097502675 55.187658480342293 0 0.54463902268945019 -0.83867057594974714 I I #
edge $-1 $624 -24.865868999396305 $372 -11.90324104961555 $517 $631 forward 7 unknown #
point $-1 11.90324104961555 28.958035525733774 13.98959364487771 #
point $-1 11.90324104961555 24.16901845862872 13.989593644877708 #
edge $-1 $632 1 $632 0 $375 $-1 forward 7 unknown #
vertex $-1 $376 $633 #
ellipse-curve $-1 15.606849035267189 25.27720028740185 9.4670234273303642 0 0.83867057594974714 0.54463902268945019 1 0 0 1 I I #
point $-1 16.606849035267189 26.563526992181245 10.302373729869617 #
edge $-1 $634 1 $634 0 $379 $-1 forward 7 unknown #
vertex $-1 $380 $635 #
ellipse-curve $-1 21.162261013744669 25.27720028740185 9.4670234273303642 0 0.83867057594974714 0.54463902268945019 1 0 0 1 I I #
point $-1 22.162261013744669 26.563526992181245 10.302373729869617 #
loop $-1 $-1 $391 $383 #
plane-surface $-1 0 28.958035525733774 0 0 -1 0 0 0 -1 forward_v I I I I #
coedge $-1 $536 $386 $388 $540 reversed $259 $-1 #
coedge $-1 $386 $535 $636 $637 reversed $259 $-1 #
coedge $-1 $394 $389 $386 $538 forward $384 $-1 #
edge $-1 $541 -15.188263891627479 $638 -10.399246824522425 $537 $639 forward 7 unknown #
coedge $-1 $388 $387 $544 $640 reversed $163 $-1 #
edge $-1 $641 -57.916071051467547 $541 -49.123059776849935 $535 $642 forward 7 unknown #
vertex $-1 $390 $643 #
straight-curve $-1 19.30992922204414 24.16901845862872 13.989593644877704 1 0 0 I I #
coedge $-1 $636 $391 $394 $548 reversed $533 $-1 #
coedge $-1 $391 $636 $539 $640 forward $533 $-1 #
vertex $-1 $392 $644 #
straight-curve $-1 32.138544469197903 28.958035525733774 53.992208580220122 0 0 1 I I #
straight-curve $-1 32.138544469197903 -2.5853168097502675 55.187658480342293 0 0.54463902268945019 -0.83867057594974714 I I #
edge $-1 $638 -45.101172418978656 $395 -32.138544469197903 $543 $645 forward 7 unknown #
point $-1 32.138544469197903 28.958035525733774 13.98959364487771 #
point $-1 32.138544469197903 24.16901845862872 13.989593644877708 #
edge $-1 $646 1 $646 0 $398 $-1 forward 7 unknown #
vertex $-1 $399 $647 #
ellipse-curve $-1 35.84215245484954 25.27720028740185 9.4670234273303642 0 0.83867057594974714 0.54463902268945019 1 0 0 1 I I #
point $-1 36.84215245484954 26.563526992181245 10.302373729869617 #
edge $-1 $648 1 $648 0 $402 $-1 forward 7 unknown #
vertex $-1 $403 $649 #
ellipse-curve $-1 41.39756443332702 25.27720028740185 9.4670234273303642 0 0.83867057594974714 0.54463902268945019 1 0 0 1 I I #
point $-1 42.39756443332702 26.563526992181245 10.302373729869617 #
plane-surface $-1 48.469496749778742 0 0 -1 0 0 0 0 1 forward_v I I I I #
coedge $-1 $411 $409 $413 $564 reversed $281 $-1 #
edge $-1 $424 -13.98959364487771 $566 13.98959364487771 $423 $650 forward 7 unknown #
vertex $-1 $564 $651 #
straight-curve $-1 -48.469496749778742 -28.958035525733774 0 0 0 -1 I I #
edge $-1 $562 -28.958035525733774 $566 28.958035525733774 $560 $652 forward 7 unknown #
straight-curve $-1 0 -28.958035525733774 -13.98959364487771 -1 0 0 I I #
vertex $-1 $416 $653 #
straight-curve $-1 0 28.958035525733774 -13.98959364487771 1 0 0 I I #
point $-1 48.469496749778742 28.958035525733774 -13.98959364487771 #
point $-1 48.469496749778742 -28.958035525733774 -13.98959364487771 #
straight-curve $-1 -48.469496749778742 0 13.98959364487771 0 -1 0 I I #
point $-1 -48.469496749778742 28.958035525733774 13.98959364487771 #
point $-1 -48.469496749778742 -28.958035525733774 13.98959364487771 #
straight-curve $-1 48.469496749778742 -28.958035525733774 0 0 0 -1 I I #
straight-curve $-1 48.469496749778742 28.958035525733774 0 0 0 -1 I I #
loop $-1 $-1 $446 $433 #
plane-surface $-1 0 -28.958035525733774 0 0 1 0 0 0 1 forward_v I I I I #
coedge $-1 $437 $436 $585 $654 reversed $185 $-1 #
coedge $-1 $449 $448 $436 $579 forward $434 $-1 #
edge $-1 $655 -3.8050311423457615 $582 3.8050311423457615 $436 $656 forward 7 unknown #
edge $-1 $581 -3.8050311423457615 $586 3.8050311423457615 $437 $657 forward 7 unknown #
vertex $-1 $441 $658 #
vertex $-1 $452 $659 #
straight-curve $-1 -65.003303379208276 -21.347973241042251 0 0 0 -1 I I #
straight-curve $-1 -56.736400064493509 -21.347973241042251 13.98959364487771 -1 0 0 I I #
coedge $-1 $589 $442 $577 $654 forward $575 $-1 #
vertex $-1 $580 $660 #
straight-curve $-1 0 -28.958035525733774 13.98959364487771 1 0 0 I I #
point $-1 -48.469496749778742 -28.958035525733774 13.98959364487771 #
coedge $-1 $446 $585 $448 $591 reversed $575 $-1 #
straight-curve $-1 -48.469496749778742 -28.958035525733774 0 0 0 1 I I #
edge $-1 $450 -8.2669033147147672 $655 8.2669033147147672 $589 $661 forward 7 unknown #
point $-1 -48.469496749778742 -28.958035525733774 -13.98959364487771 #
straight-curve $-1 -56.736400064493509 -21.347973241042251 -13.98959364487771 1 0 0 I I #
coedge $-1 $466 $465 $458 $595 forward $455 $-1 #
edge $-1 $596 40.002614935342415 $599 47.377054765358594 $594 $662 forward 7 unknown #
vertex $-1 $470 $663 #
straight-curve $-1 -15.604737839768374 39.357282350256199 13.989593644877708 0 1 0 I I #
edge $-1 $599 4.5617119324389979 $467 17.524339882219753 $466 $664 forward 7 unknown #
vertex $-1 $598 $665 #
straight-curve $-1 -15.604737839768374 -2.5853168097502675 55.187658480342293 0 -0.54463902268945019 0.83867057594974714 I I #
point $-1 -15.604737839768374 24.16901845862872 13.989593644877708 #
point $-1 -28.567365789549129 28.958035525733777 6.6151538148615288 #
straight-curve $-1 0 28.958035525733774 13.98959364487771 -1 0 0 I I #
vertex $-1 $473 $666 #
point $-1 -23.863757803897489 25.27720028740185 9.4670234273303642 #
vertex $-1 $477 $667 #
point $-1 -18.30834582542002 25.27720028740185 9.4670234273303642 #
coedge $-1 $492 $491 $484 $609 forward $481 $-1 #
edge $-1 $610 40.002614935342415 $613 47.377054765358594 $608 $668 forward 7 unknown #
vertex $-1 $496 $669 #
straight-curve $-1 4.63056557981397 39.357282350256199 13.989593644877708 0 1 0 I I #
edge $-1 $613 -5.5559397773521741 $493 7.4066881724285825 $492 $670 forward 7 unknown #
vertex $-1 $612 $671 #
straight-curve $-1 4.63056557981397 -2.5853168097502675 55.187658480342293 0 -0.54463902268945019 0.83867057594974714 I I #
point $-1 4.63056557981397 24.16901845862872 13.989593644877708 #
point $-1 -8.3320623699667866 28.958035525733777 6.6151538148615288 #
straight-curve $-1 0 28.958035525733774 13.98959364487771 -1 0 0 I I #
vertex $-1 $499 $672 #
point $-1 -3.6284543843151482 25.27720028740185 9.4670234273303642 #
vertex $-1 $503 $673 #
point $-1 1.9269575941623245 25.27720028740185 9.4670234273303642 #
coedge $-1 $518 $517 $510 $623 forward $507 $-1 #
edge $-1 $624 40.002614935342415 $627 47.377054765358594 $622 $674 forward 7 unknown #
vertex $-1 $522 $675 #
straight-curve $-1 24.865868999396305 39.357282350256199 13.989593644877708 0 1 0 I I #
edge $-1 $627 -15.673591487143341 $519 -2.710963537362586 $518 $676 forward 7 unknown #
vertex $-1 $626 $677 #
straight-curve $-1 24.865868999396305 -2.5853168097502675 55.187658480342293 0 -0.54463902268945019 0.83867057594974714 I I #
point $-1 24.865868999396305 24.16901845862872 13.989593644877708 #
point $-1 11.90324104961555 28.958035525733777 6.6151538148615288 #
straight-curve $-1 0 28.958035525733774 13.98959364487771 -1 0 0 I I #
vertex $-1 $525 $678 #
point $-1 16.606849035267189 25.27720028740185 9.4670234273303642 #
vertex $-1 $529 $679 #
point $-1 22.162261013744669 25.27720028740185 9.4670234273303642 #
coedge $-1 $544 $543 $536 $637 forward $533 $-1 #
edge $-1 $638 40.002614935342415 $641 47.377054765358594 $636 $680 forward 7 unknown #
vertex $-1 $548 $681 #
straight-curve $-1 45.101172418978656 39.357282350256199 13.989593644877708 0 1 0 I I #
edge $-1 $641 -25.791243196934516 $545 -12.828615247153763 $544 $682 forward 7 unknown #
vertex $-1 $640 $683 #
straight-curve $-1 45.101172418978656 -2.5853168097502675 55.187658480342293 0 -0.54463902268945019 0.83867057594974714 I I #
point $-1 45.101172418978656 24.16901845862872 13.989593644877708 #
point $-1 32.138544469197903 28.958035525733777 6.6151538148615288 #
straight-curve $-1 0 28.958035525733774 13.98959364487771 -1 0 0 I I #
vertex $-1 $551 $684 #
point $-1 36.84215245484954 25.27720028740185 9.4670234273303642 #
vertex $-1 $555 $685 #
point $-1 42.39756443332702 25.27720028740185 9.4670234273303642 #
straight-curve $-1 -48.469496749778742 28.958035525733774 0 0 0 -1 I I #
point $-1 -48.469496749778742 -28.958035525733774 -13.98959364487771 #
straight-curve $-1 -48.469496749778742 0 -13.98959364487771 0 1 0 I I #
point $-1 -48.469496749778742 28.958035525733774 -13.98959364487771 #
edge $-1 $586 -13.98959364487771 $655 13.98959364487771 $577 $686 forward 7 unknown #
vertex $-1 $579 $687 #
straight-curve $-1 -65.003303379208276 -25.153004383388012 -13.98959364487771 0 1 0 I I #
straight-curve $-1 -65.003303379208276 -25.153004383388012 13.98959364487771 0 -1 0 I I #
point $-1 -65.003303379208276 -21.347973241042251 13.98959364487771 #
point $-1 -65.003303379208276 -21.347973241042251 -13.98959364487771 #
point $-1 -65.003303379208276 -28.958035525733774 13.98959364487771 #
straight-curve $-1 -56.736400064493509 -28.958035525733774 -13.98959364487771 -1 0 0 I I #
straight-curve $-1 -15.604737839768374 28.958035525733774 53.992208580220122 0 0 -1 I I #
point $-1 -15.604737839768374 28.958035525733774 13.98959364487771 #
straight-curve $-1 -11.043025907329376 28.958035525733774 6.6151538148615288 -1 0 0 I I #
point $-1 -15.604737839768374 28.958035525733777 6.6151538148615288 #
point $-1 -24.863757803897489 24.438529711452102 8.9223844046409155 #
point $-1 -19.30834582542002 24.438529711452102 8.9223844046409155 #
straight-curve $-1 4.63056557981397 28.958035525733774 53.992208580220122 0 0 -1 I I #
point $-1 4.63056557981397 28.958035525733774 13.98959364487771 #
straight-curve $-1 -0.92537419753820416 28.958035525733774 6.6151538148615288 -1 0 0 I I #
point $-1 4.63056557981397 28.958035525733777 6.6151538148615288 #
point $-1 -4.6284543843151482 24.438529711452102 8.9223844046409155 #
point $-1 0.92695759416232448 24.438529711452102 8.9223844046409155 #
straight-curve $-1 24.865868999396305 28.958035525733774 53.992208580220122 0 0 -1 I I #
point $-1 24.865868999396305 28.958035525733774 13.98959364487771 #
straight-curve $-1 9.1922775122529643 28.958035525733774 6.6151538148615288 -1 0 0 I I #
point $-1 24.865868999396305 28.958035525733777 6.6151538148615288 #
point $-1 15.606849035267189 24.438529711452102 8.9223844046409155 #
point $-1 21.162261013744669 24.438529711452102 8.9223844046409155 #
straight-curve $-1 45.101172418978656 28.958035525733774 53.992208580220122 0 0 -1 I I #
point $-1 45.101172418978656 28.958035525733774 13.98959364487771 #
straight-curve $-1 19.30992922204414 28.958035525733774 6.6151538148615288 -1 0 0 I I #
point $-1 45.101172418978656 28.958035525733777 6.6151538148615288 #
point $-1 35.84215245484954 24.438529711452102 8.9223844046409155 #
point $-1 41.39756443332702 24.438529711452102 8.9223844046409155 #
straight-curve $-1 -65.003303379208276 -28.958035525733774 0 0 0 -1 I I #
point $-1 -65.003303379208276 -28.958035525733774 -13.98959364487771 #
End-of-ACIS-data 