500 0 6 0           
7 Unknown 11 ACIS 5.0 NT 24 Fri Mar 26 15:28:21 1999 
-1 9.9999999999999995e-007 1e-010 
body $-1 $6 $-1 $7 #
body $-1 $8 $-1 $9 #
body $-1 $10 $-1 $11 #
body $-1 $12 $-1 $13 #
body $-1 $14 $-1 $15 #
body $-1 $16 $-1 $17 #
lump $-1 $-1 $18 $0 #
transform $-1 1 0 0 0 1 0 0 0 1 62.843714712973416 30.597161860207567 8.1061422195642532 1 rotate no_reflect no_shear #
lump $-1 $-1 $19 $1 #
transform $-1 1 0 0 0 1 0 0 0 1 62.843714712973416 30.597161860207567 8.1061422195642532 1 rotate no_reflect no_shear #
lump $-1 $-1 $20 $2 #
transform $-1 1 0 0 0 1 0 0 0 1 62.843714712973416 30.597161860207567 8.1061422195642532 1 rotate no_reflect no_shear #
lump $-1 $-1 $21 $3 #
transform $-1 1 0 0 0 1 0 0 0 1 62.843714712973416 30.597161860207567 8.1061422195642532 1 rotate no_reflect no_shear #
lump $-1 $-1 $22 $4 #
transform $-1 1 0 0 0 1 0 0 0 1 62.843714712973416 30.597161860207567 8.1061422195642532 1 rotate no_reflect no_shear #
lump $-1 $-1 $23 $5 #
transform $-1 1 0 0 0 1 0 0 0 1 62.843714712973416 30.597161860207567 8.1061422195642532 1 rotate no_reflect no_shear #
shell $-1 $-1 $-1 $24 $-1 $6 #
shell $-1 $-1 $-1 $25 $-1 $8 #
shell $-1 $-1 $-1 $26 $-1 $10 #
shell $-1 $-1 $-1 $27 $-1 $12 #
shell $-1 $-1 $-1 $28 $-1 $14 #
shell $-1 $-1 $-1 $29 $-1 $16 #
face $-1 $30 $31 $18 $-1 $32 forward single #
face $-1 $33 $34 $19 $-1 $35 forward single #
face $-1 $36 $37 $20 $-1 $38 reversed single #
face $-1 $39 $40 $21 $-1 $41 forward single #
face $-1 $42 $43 $22 $-1 $44 reversed single #
face $-1 $45 $46 $23 $-1 $47 forward single #
face $-1 $48 $49 $18 $-1 $50 reversed single #
loop $-1 $-1 $51 $24 #
plane-surface $-1 0 0 8.1061422195642532 0 0 1 1 0 0 forward_v I I I I #
face $-1 $52 $53 $19 $-1 $54 reversed single #
loop $-1 $-1 $55 $25 #
plane-surface $-1 0 -27.256296747230937 -3.5673259928011887 0 0 1 1 0 0 forward_v I I I I #
face $-1 $56 $57 $20 $-1 $58 reversed single #
loop $-1 $-1 $59 $26 #
plane-surface $-1 25.887648648114954 3.3408651129766334 177.76151547655533 0 -1 0 -0.54463904215088732 0 -0.83867056331134215 forward_v I I I I #
face $-1 $60 $61 $21 $-1 $62 forward single #
loop $-1 $63 $64 $27 #
cone-surface $-1 58.12887152134919 -1.532241421466864 3.7317522123509272 -0.54463904215088732 0 -0.83867056331134215 1.2580058449670133 0 -0.81695856322633098 1 I I 0 1 1.5 forward I I I I #
face $-1 $65 $66 $22 $-1 $67 reversed single #
loop $-1 $-1 $68 $28 #
plane-surface $-1 25.887648648114954 20.850948791320576 177.76151547655533 0 1 0 0.54463904215088732 0 0.83867056331134215 forward_v I I I I #
face $-1 $69 $70 $23 $-1 $71 forward single #
loop $-1 $72 $73 $29 #
cone-surface $-1 58.12887152134919 25.724055325764073 3.7317522123509272 -0.54463904215088732 0 -0.83867056331134215 1.2580058449670133 0 -0.81695856322633098 1 I I 0 1 1.5 forward I I I I #
face $-1 $74 $75 $18 $-1 $76 reversed single #
loop $-1 $-1 $77 $30 #
plane-surface $-1 0 0 -8.1061422195642532 0 0 1 1 0 0 forward_v I I I I #
coedge $-1 $78 $79 $80 $81 forward $31 $-1 #
face $-1 $82 $83 $19 $-1 $84 reversed single #
loop $-1 $-1 $85 $33 #
plane-surface $-1 0 -23.915431634254308 -5.8367341061827211 0 -1 0 0 0 -1 forward_v I I I I #
coedge $-1 $86 $87 $88 $89 reversed $34 $-1 #
face $-1 $90 $91 $20 $-1 $92 reversed single #
loop $-1 $-1 $93 $36 #
plane-surface $-1 -42.566632524839981 -1.532241421466864 72.351168238741934 0.54463904215088732 0 0.83867056331134215 0.83867056331134215 0 -0.54463904215088732 forward_v I I I I #
coedge $-1 $94 $95 $96 $97 reversed $37 $-1 #
face $-1 $-1 $98 $21 $-1 $99 forward single #
loop $-1 $100 $101 $39 #
cone-surface $-1 56.246391255271753 -1.532241421466864 0.83298685954270901 -0.54463904215088732 0 -0.83867056331134215 0.62900292248350664 0 -0.40847928161316549 1 I I -0.70710678118654757 0.70710678118654757 0.75 forward I I I I #
loop $-1 $-1 $102 $27 #
coedge $-1 $64 $64 $103 $104 reversed $40 $-1 #
face $-1 $105 $106 $22 $-1 $107 reversed single #
loop $-1 $-1 $108 $42 #
plane-surface $-1 -42.566632524839981 25.724055325764073 72.351168238741934 0.54463904215088732 0 0.83867056331134215 0.83867056331134215 0 -0.54463904215088732 forward_v I I I I #
coedge $-1 $109 $110 $111 $112 reversed $43 $-1 #
face $-1 $-1 $113 $23 $-1 $114 forward single #
loop $-1 $115 $116 $45 #
cone-surface $-1 56.246391255271753 25.724055325764073 0.83298685954270901 -0.54463904215088732 0 -0.83867056331134215 0.62900292248350664 0 -0.40847928161316549 1 I I -0.70710678118654757 0.70710678118654757 0.75 forward I I I I #
loop $-1 $-1 $117 $29 #
coedge $-1 $73 $73 $118 $119 reversed $46 $-1 #
face $-1 $120 $121 $18 $-1 $122 reversed single #
loop $-1 $-1 $123 $48 #
plane-surface $-1 0 -30.597161860207567 0 0 1 0 0 0 1 forward_v I I I I #
coedge $-1 $124 $125 $126 $127 forward $49 $-1 #
coedge $-1 $128 $51 $129 $130 forward $31 $-1 #
coedge $-1 $51 $128 $131 $132 forward $31 $-1 #
coedge $-1 $133 $134 $51 $81 reversed $135 $-1 #
edge $-1 $136 -30.597161860207567 $137 30.597161860207567 $80 $138 forward 7 unknown #
face $-1 $139 $140 $19 $-1 $141 reversed single #
loop $-1 $-1 $142 $52 #
plane-surface $-1 0 0 -8.1061422195642532 0 0 1 1 0 0 forward_v I I I I #
coedge $-1 $143 $144 $145 $146 reversed $53 $-1 #
coedge $-1 $147 $55 $144 $148 forward $34 $-1 #
coedge $-1 $55 $147 $149 $150 reversed $34 $-1 #
coedge $-1 $151 $145 $55 $89 forward $140 $-1 #
edge $-1 $152 10.287283260638839 $153 16.969013486592097 $88 $154 forward 7 unknown #
face $-1 $155 $156 $20 $-1 $157 reversed single #
loop $-1 $-1 $158 $56 #
plane-surface $-1 25.887648648114954 -6.4053479559103614 177.76151547655533 0 1 0 0.54463904215088732 0 0.83867056331134215 forward_v I I I I #
coedge $-1 $159 $160 $161 $162 reversed $57 $-1 #
coedge $-1 $95 $59 $163 $164 reversed $37 $-1 #
coedge $-1 $59 $94 $159 $165 reversed $37 $-1 #
coedge $-1 $161 $166 $59 $97 forward $167 $-1 #
edge $-1 $168 -49.899890388915935 $169 -43.41820597459602 $96 $170 forward 7 unknown #
loop $-1 $-1 $103 $60 #
plane-surface $-1 -42.566632524839981 -1.532241421466864 72.351168238741934 0.54463904215088732 0 0.83867056331134215 0.83867056331134215 0 -0.54463904215088732 forward_v I I I I #
loop $-1 $-1 $171 $39 #
coedge $-1 $101 $101 $102 $172 reversed $61 $-1 #
coedge $-1 $102 $102 $101 $172 forward $63 $-1 #
coedge $-1 $103 $103 $64 $104 forward $98 $-1 #
edge $-1 $173 0 $173 6.2831853071796004 $103 $174 forward 7 unknown #
face $-1 $175 $176 $22 $-1 $177 forward single #
loop $-1 $-1 $111 $65 #
plane-surface $-1 62.843714712973416 0 0 -1 0 0 0 0 1 forward_v I I I I #
coedge $-1 $178 $179 $180 $181 reversed $66 $-1 #
coedge $-1 $110 $68 $182 $183 reversed $43 $-1 #
coedge $-1 $68 $109 $178 $184 reversed $43 $-1 #
coedge $-1 $180 $185 $68 $112 forward $106 $-1 #
edge $-1 $186 80.774615518713418 $187 84.983870672490667 $111 $188 forward 7 unknown #
loop $-1 $-1 $118 $69 #
plane-surface $-1 -42.566632524839981 25.724055325764073 72.351168238741934 0.54463904215088732 0 0.83867056331134215 0.83867056331134215 0 -0.54463904215088732 forward_v I I I I #
loop $-1 $-1 $189 $45 #
coedge $-1 $116 $116 $117 $190 reversed $70 $-1 #
coedge $-1 $117 $117 $116 $190 forward $72 $-1 #
coedge $-1 $118 $118 $73 $119 forward $113 $-1 #
edge $-1 $191 0 $191 6.2831853071796004 $118 $192 forward 7 unknown #
face $-1 $193 $194 $18 $-1 $195 reversed single #
loop $-1 $-1 $196 $74 #
plane-surface $-1 -62.843714712973416 0 0 1 0 0 0 0 -1 forward_v I I I I #
coedge $-1 $197 $131 $198 $199 forward $75 $-1 #
coedge $-1 $200 $77 $197 $201 forward $49 $-1 #
coedge $-1 $77 $200 $202 $203 forward $49 $-1 #
coedge $-1 $134 $133 $77 $127 reversed $135 $-1 #
edge $-1 $204 -30.597161860207567 $205 30.597161860207567 $126 $206 forward 7 unknown #
coedge $-1 $79 $78 $207 $208 forward $31 $-1 #
coedge $-1 $209 $210 $78 $130 reversed $194 $-1 #
edge $-1 $137 -62.843714712973416 $211 62.843714712973416 $129 $212 forward 7 unknown #
coedge $-1 $123 $213 $79 $132 reversed $75 $-1 #
edge $-1 $214 -62.843714712973416 $136 62.843714712973416 $131 $215 forward 7 unknown #
coedge $-1 $126 $80 $213 $216 forward $135 $-1 #
coedge $-1 $80 $126 $209 $217 reversed $135 $-1 #
loop $-1 $-1 $133 $193 #
vertex $-1 $81 $218 #
vertex $-1 $81 $219 #
straight-curve $-1 62.843714712973416 0 8.1061422195642532 0 1 0 I I #
face $-1 $220 $221 $19 $-1 $222 reversed single #
loop $-1 $-1 $145 $82 #
plane-surface $-1 62.843714712973416 0 0 -1 0 0 0 0 1 forward_v I I I I #
coedge $-1 $223 $224 $143 $225 forward $83 $-1 #
coedge $-1 $226 $85 $142 $225 reversed $53 $-1 #
coedge $-1 $85 $226 $86 $148 reversed $53 $-1 #
coedge $-1 $88 $227 $85 $146 forward $140 $-1 #
edge $-1 $228 -5.1877751664728926 $152 -0.6489589397098281 $145 $229 forward 7 unknown #
coedge $-1 $87 $86 $230 $231 reversed $34 $-1 #
edge $-1 $152 -62.843714712973416 $232 62.843714712973416 $144 $233 forward 7 unknown #
coedge $-1 $234 $235 $87 $150 forward $221 $-1 #
edge $-1 $153 -62.843714712973416 $236 62.843714712973416 $149 $237 forward 7 unknown #
coedge $-1 $227 $88 $235 $238 forward $140 $-1 #
vertex $-1 $89 $239 #
vertex $-1 $238 $240 #
straight-curve $-1 62.843714712973416 -13.628148373615469 -3.5673259928011887 0 -1 0 I I #
face $-1 $-1 $167 $20 $-1 $241 forward single #
loop $-1 $-1 $242 $90 #
plane-surface $-1 62.843714712973416 0 0 -1 0 0 0 0 1 forward_v I I I I #
coedge $-1 $243 $244 $245 $246 reversed $91 $-1 #
coedge $-1 $247 $93 $95 $165 forward $57 $-1 #
coedge $-1 $93 $247 $243 $248 forward $57 $-1 #
coedge $-1 $245 $96 $93 $162 forward $167 $-1 #
edge $-1 $169 -4.1069858237100654 $249 5.6392272451769294 $161 $250 forward 7 unknown #
coedge $-1 $251 $252 $94 $164 forward $156 $-1 #
edge $-1 $253 -84.983870672490667 $168 -80.774615518713418 $163 $254 forward 7 unknown #
edge $-1 $169 117.95890681186088 $253 125.68742942594685 $95 $255 forward 7 unknown #
coedge $-1 $96 $245 $251 $256 forward $167 $-1 #
loop $-1 $-1 $245 $155 #
vertex $-1 $164 $257 #
vertex $-1 $97 $258 #
straight-curve $-1 12.943824324057477 3.3408651129766334 8.1061422195642479 -1 0 0 I I #
coedge $-1 $171 $171 $-1 $259 reversed $100 $-1 #
edge $-1 $260 0 $260 6.2831853071796004 $101 $261 forward 7 unknown #
vertex $-1 $104 $262 #
ellipse-curve $-1 59.602872505813451 -1.532241421466864 6.0015146426756285 0.54463904215088732 0 0.83867056331134215 1.2580058449670133 0 -0.81695856322633098 1 I I #
face $-1 $-1 $263 $22 $-1 $264 reversed single #
loop $-1 $-1 $182 $105 #
plane-surface $-1 0 0 8.1061422195642532 0 0 1 1 0 0 forward_v I I I I #
coedge $-1 $265 $108 $110 $184 forward $66 $-1 #
coedge $-1 $108 $265 $266 $267 reversed $66 $-1 #
coedge $-1 $268 $111 $108 $181 forward $106 $-1 #
edge $-1 $187 7.9889211284385393 $269 17.735134197325529 $180 $270 forward 7 unknown #
coedge $-1 $271 $272 $109 $183 forward $176 $-1 #
edge $-1 $273 43.41820597459602 $186 49.899890388915935 $182 $274 forward 7 unknown #
edge $-1 $187 -125.68742942594685 $273 -117.95890681186088 $110 $275 forward 7 unknown #
coedge $-1 $111 $268 $271 $276 reversed $106 $-1 #
vertex $-1 $276 $277 #
vertex $-1 $112 $278 #
straight-curve $-1 62.843714712973416 20.850948791320576 88.880757738277666 0 0 -1 I I #
coedge $-1 $189 $189 $-1 $279 reversed $115 $-1 #
edge $-1 $280 0 $280 6.2831853071796004 $116 $281 forward 7 unknown #
vertex $-1 $119 $282 #
ellipse-curve $-1 59.602872505813451 25.724055325764073 6.0015146426756285 0.54463904215088732 0 0.83867056331134215 1.2580058449670133 0 -0.81695856322633098 1 I I #
face $-1 $-1 $135 $18 $-1 $283 reversed single #
loop $-1 $-1 $209 $120 #
plane-surface $-1 0 30.597161860207567 0 0 -1 0 0 0 -1 forward_v I I I I #
coedge $-1 $284 $207 $210 $285 forward $121 $-1 #
coedge $-1 $213 $123 $124 $201 reversed $75 $-1 #
coedge $-1 $207 $284 $123 $199 reversed $121 $-1 #
edge $-1 $214 -8.1061422195642532 $286 8.1061422195642532 $198 $287 forward 7 unknown #
coedge $-1 $125 $124 $284 $288 forward $49 $-1 #
edge $-1 $205 -62.843714712973416 $286 62.843714712973416 $197 $289 forward 7 unknown #
coedge $-1 $210 $209 $125 $203 reversed $194 $-1 #
edge $-1 $290 -62.843714712973416 $204 62.843714712973416 $202 $291 forward 7 unknown #
vertex $-1 $127 $292 #
vertex $-1 $216 $293 #
straight-curve $-1 62.843714712973416 0 -8.1061422195642532 0 -1 0 I I #
coedge $-1 $196 $198 $128 $208 reversed $121 $-1 #
edge $-1 $211 -30.597161860207567 $214 30.597161860207567 $207 $294 forward 7 unknown #
coedge $-1 $202 $129 $134 $217 forward $194 $-1 #
coedge $-1 $129 $202 $196 $285 reversed $194 $-1 #
vertex $-1 $130 $295 #
straight-curve $-1 0 30.597161860207567 8.1061422195642532 -1 0 0 I I #
coedge $-1 $131 $197 $133 $216 reversed $75 $-1 #
vertex $-1 $208 $296 #
straight-curve $-1 0 -30.597161860207567 8.1061422195642532 1 0 0 I I #
edge $-1 $136 -8.1061422195642532 $205 8.1061422195642532 $133 $297 forward 7 unknown #
edge $-1 $137 -8.1061422195642532 $204 8.1061422195642532 $134 $298 forward 7 unknown #
point $-1 62.843714712973416 -30.597161860207567 8.1061422195642532 #
point $-1 62.843714712973416 30.597161860207567 8.1061422195642532 #
face $-1 $-1 $299 $19 $-1 $300 reversed single #
loop $-1 $-1 $149 $139 #
plane-surface $-1 0 -30.597161860207567 0 0 1 0 0 0 1 forward_v I I I I #
coedge $-1 $301 $142 $227 $302 forward $83 $-1 #
coedge $-1 $142 $301 $303 $304 forward $83 $-1 #
edge $-1 $305 -62.843714712973416 $228 62.843714712973416 $142 $306 forward 7 unknown #
coedge $-1 $144 $143 $307 $308 reversed $53 $-1 #
coedge $-1 $145 $151 $223 $302 reversed $140 $-1 #
vertex $-1 $302 $309 #
straight-curve $-1 62.843714712973416 -23.915431634254308 -2.9183670530913606 0 0 1 I I #
coedge $-1 $307 $310 $147 $231 forward $299 $-1 #
edge $-1 $236 -16.969013486592097 $232 -10.287283260638839 $230 $311 forward 7 unknown #
vertex $-1 $231 $312 #
straight-curve $-1 0 -23.915431634254308 -3.5673259928011887 -1 0 0 I I #
coedge $-1 $313 $149 $310 $314 forward $221 $-1 #
coedge $-1 $149 $313 $151 $238 reversed $221 $-1 #
vertex $-1 $314 $315 #
straight-curve $-1 0 -30.597161860207567 -3.5673259928011887 -1 0 0 I I #
edge $-1 $153 3.5673259928011887 $316 8.1061422195642532 $151 $317 forward 7 unknown #
point $-1 62.843714712973416 -23.915431634254308 -3.5673259928011887 #
point $-1 62.843714712973416 -30.597161860207567 -3.5673259928011887 #
plane-surface $-1 0 0 8.1061422195642532 0 0 1 1 0 0 forward_v I I I I #
coedge $-1 $252 $251 $244 $318 forward $156 $-1 #
coedge $-1 $244 $158 $160 $248 reversed $91 $-1 #
coedge $-1 $158 $243 $242 $318 reversed $91 $-1 #
coedge $-1 $166 $161 $158 $246 forward $167 $-1 #
edge $-1 $249 43.41820597459602 $319 49.899890388915935 $245 $320 forward 7 unknown #
coedge $-1 $160 $159 $252 $321 reversed $57 $-1 #
edge $-1 $322 -125.68742942594685 $249 -117.95890681186088 $243 $323 forward 7 unknown #
vertex $-1 $162 $324 #
straight-curve $-1 56.362030298653472 -0.76612071073343202 8.106142219564255 0 -1 0 I I #
coedge $-1 $242 $163 $166 $256 reversed $156 $-1 #
coedge $-1 $163 $242 $247 $321 forward $156 $-1 #
vertex $-1 $164 $325 #
straight-curve $-1 62.843714712973416 3.3408651129766334 88.880757738277666 0 0 1 I I #
straight-curve $-1 -42.566632524839981 3.3408651129766334 72.351168238741934 0.83867056331134215 0 -0.54463904215088732 I I #
edge $-1 $319 -6.4053479559103614 $168 3.3408651129766334 $251 $326 forward 7 unknown #
point $-1 62.843714712973416 3.3408651129766334 8.1061422195642532 #
point $-1 56.362030298653501 3.3408651129766334 8.1061422195642479 #
edge $-1 $327 1 $327 0 $171 $-1 forward 7 unknown #
vertex $-1 $172 $328 #
ellipse-curve $-1 56.654870536884921 -1.532241421466864 1.4619897820262158 0.54463904215088732 0 0.83867056331134215 1.2580058449670133 0 -0.81695856322633098 1 I I #
point $-1 60.860878350780467 -1.532241421466864 5.1845560794493082 #
loop $-1 $-1 $266 $175 #
plane-surface $-1 0 30.597161860207567 0 0 -1 0 0 0 -1 forward_v I I I I #
coedge $-1 $179 $178 $272 $329 reversed $66 $-1 #
coedge $-1 $330 $331 $179 $267 forward $263 $-1 #
edge $-1 $269 -88.135103102986562 $332 -80.406580488900602 $266 $333 forward 7 unknown #
coedge $-1 $185 $180 $331 $334 reversed $106 $-1 #
vertex $-1 $181 $335 #
straight-curve $-1 62.843714712973409 12.862027662882037 3.8968870657869985 0 1 0 I I #
coedge $-1 $336 $182 $185 $276 forward $176 $-1 #
coedge $-1 $182 $336 $265 $329 forward $176 $-1 #
vertex $-1 $183 $337 #
straight-curve $-1 12.943824324057477 20.850948791320576 8.1061422195642479 1 0 0 I I #
straight-curve $-1 -42.566632524839981 20.850948791320576 72.351168238741934 -0.83867056331134215 0 0.54463904215088732 I I #
edge $-1 $186 20.850948791320576 $338 30.597161860207567 $185 $339 forward 7 unknown #
point $-1 62.843714712973416 20.850948791320576 8.1061422195642532 #
point $-1 62.843714712973416 20.850948791320576 3.8968870657869985 #
edge $-1 $340 1 $340 0 $189 $-1 forward 7 unknown #
vertex $-1 $190 $341 #
ellipse-curve $-1 56.654870536884921 25.724055325764073 1.4619897820262158 0.54463904215088732 0 0.83867056331134215 1.2580058449670133 0 -0.81695856322633098 1 I I #
point $-1 60.860878350780467 25.724055325764073 5.1845560794493082 #
plane-surface $-1 62.843714712973416 0 0 -1 0 0 0 0 1 forward_v I I I I #
coedge $-1 $198 $196 $200 $288 reversed $121 $-1 #
edge $-1 $211 -8.1061422195642532 $290 8.1061422195642532 $210 $342 forward 7 unknown #
vertex $-1 $288 $343 #
straight-curve $-1 -62.843714712973416 -30.597161860207567 0 0 0 -1 I I #
edge $-1 $286 -30.597161860207567 $290 30.597161860207567 $284 $344 forward 7 unknown #
straight-curve $-1 0 -30.597161860207567 -8.1061422195642532 -1 0 0 I I #
vertex $-1 $203 $345 #
straight-curve $-1 0 30.597161860207567 -8.1061422195642532 1 0 0 I I #
point $-1 62.843714712973416 30.597161860207567 -8.1061422195642532 #
point $-1 62.843714712973416 -30.597161860207567 -8.1061422195642532 #
straight-curve $-1 -62.843714712973416 0 8.1061422195642532 0 -1 0 I I #
point $-1 -62.843714712973416 30.597161860207567 8.1061422195642532 #
point $-1 -62.843714712973416 -30.597161860207567 8.1061422195642532 #
straight-curve $-1 62.843714712973416 -30.597161860207567 0 0 0 -1 I I #
straight-curve $-1 62.843714712973416 30.597161860207567 0 0 0 -1 I I #
loop $-1 $-1 $307 $220 #
plane-surface $-1 -62.843714712973416 0 0 1 0 0 0 0 -1 forward_v I I I I #
coedge $-1 $224 $223 $313 $346 forward $83 $-1 #
edge $-1 $228 23.915431634254308 $316 30.597161860207567 $227 $347 forward 7 unknown #
coedge $-1 $310 $307 $224 $304 reversed $299 $-1 #
edge $-1 $348 -30.597161860207567 $305 -23.915431634254308 $303 $349 forward 7 unknown #
vertex $-1 $308 $350 #
straight-curve $-1 0 -23.915431634254308 -8.1061422195642532 1 0 0 I I #
coedge $-1 $303 $230 $226 $308 forward $299 $-1 #
edge $-1 $232 0.6489589397098281 $305 5.1877751664728926 $307 $351 forward 7 unknown #
point $-1 62.843714712973416 -23.915431634254308 -8.1061422195642532 #
coedge $-1 $230 $303 $234 $314 reversed $299 $-1 #
straight-curve $-1 -62.843714712973416 -13.628148373615469 -3.5673259928011887 0 1 0 I I #
point $-1 -62.843714712973416 -23.915431634254308 -3.5673259928011887 #
coedge $-1 $235 $234 $301 $346 reversed $221 $-1 #
edge $-1 $236 3.5673259928011887 $348 8.1061422195642532 $310 $352 forward 7 unknown #
point $-1 -62.843714712973416 -30.597161860207567 -3.5673259928011887 #
vertex $-1 $238 $353 #
straight-curve $-1 62.843714712973416 -30.597161860207567 0 0 0 -1 I I #
edge $-1 $319 80.774615518713418 $322 84.983870672490667 $242 $354 forward 7 unknown #
vertex $-1 $256 $355 #
straight-curve $-1 12.943824324057477 -6.4053479559103614 8.1061422195642479 1 0 0 I I #
edge $-1 $322 -5.6392272451769294 $253 4.1069858237100654 $252 $356 forward 7 unknown #
vertex $-1 $321 $357 #
straight-curve $-1 -42.566632524839981 -6.4053479559103614 72.351168238741934 -0.83867056331134215 0 0.54463904215088732 I I #
point $-1 56.362030298653501 -6.4053479559103614 8.1061422195642479 #
point $-1 62.843714712973416 3.3408651129766334 3.8968870657869985 #
straight-curve $-1 62.843714712973416 0 8.1061422195642532 0 1 0 I I #
vertex $-1 $259 $358 #
point $-1 57.91287638185193 -1.532241421466864 0.64503121879988468 #
edge $-1 $332 -17.735134197325536 $273 -7.9889211284385393 $272 $359 forward 7 unknown #
coedge $-1 $331 $266 $336 $360 reversed $263 $-1 #
coedge $-1 $266 $330 $268 $334 forward $263 $-1 #
vertex $-1 $267 $361 #
straight-curve $-1 -11.072601853911545 30.597161860207567 51.898705199667297 -0.83867056331134215 0 0.54463904215088732 I I #
edge $-1 $338 -8.1061422195642532 $269 -3.8968870657869945 $268 $362 forward 7 unknown #
point $-1 62.843714712973416 30.597161860207567 3.8968870657869945 #
coedge $-1 $272 $271 $330 $360 forward $176 $-1 #
point $-1 56.362030298653501 20.850948791320576 8.1061422195642479 #
vertex $-1 $276 $363 #
straight-curve $-1 62.843714712973416 0 8.1061422195642532 0 1 0 I I #
vertex $-1 $279 $364 #
point $-1 57.91287638185193 25.724055325764073 0.64503121879988468 #
straight-curve $-1 -62.843714712973416 30.597161860207567 0 0 0 -1 I I #
point $-1 -62.843714712973416 -30.597161860207567 -8.1061422195642532 #
straight-curve $-1 -62.843714712973416 0 -8.1061422195642532 0 1 0 I I #
point $-1 -62.843714712973416 30.597161860207567 -8.1061422195642532 #
edge $-1 $316 -62.843714712973416 $348 62.843714712973416 $313 $365 forward 7 unknown #
straight-curve $-1 62.843714712973416 0 -8.1061422195642532 0 -1 0 I I #
vertex $-1 $304 $366 #
straight-curve $-1 -62.843714712973416 0 -8.1061422195642532 0 1 0 I I #
point $-1 -62.843714712973416 -23.915431634254308 -8.1061422195642532 #
straight-curve $-1 -62.843714712973416 -23.915431634254308 -2.9183670530913606 0 0 -1 I I #
straight-curve $-1 -62.843714712973416 -30.597161860207567 0 0 0 -1 I I #
point $-1 62.843714712973416 -30.597161860207567 -8.1061422195642532 #
straight-curve $-1 62.843714712973416 -6.4053479559103614 88.880757738277666 0 0 -1 I I #
point $-1 62.843714712973416 -6.4053479559103614 8.1061422195642532 #
straight-curve $-1 62.843714712973409 -0.76612071073343202 3.8968870657869985 0 1 0 I I #
point $-1 62.843714712973416 -6.4053479559103614 3.8968870657869985 #
point $-1 55.837911973658585 -1.532241421466864 0.20398393705920237 #
straight-curve $-1 56.362030298653472 12.862027662882037 8.106142219564255 0 -1 0 I I #
edge $-1 $338 -62.843714712973416 $332 -56.362030298653501 $330 $367 forward 7 unknown #
point $-1 56.362030298653501 30.597161860207571 8.1061422195642479 #
straight-curve $-1 62.843714712973416 30.597161860207567 0 0 0 -1 I I #
point $-1 62.843714712973416 30.597161860207567 8.1061422195642532 #
point $-1 55.837911973658585 25.724055325764073 0.20398393705920237 #
straight-curve $-1 0 -30.597161860207567 -8.1061422195642532 -1 0 0 I I #
point $-1 -62.843714712973416 -30.597161860207567 -8.1061422195642532 #
straight-curve $-1 0 30.597161860207567 8.1061422195642532 -1 0 0 I I #
End-of-ACIS-data 