500 0 8 0           
7 Unknown 11 ACIS 5.0 NT 24 Thu Mar 25 18:33:42 1999 
-1 9.9999999999999995e-007 1e-010 
body $-1 $8 $-1 $9 #
body $-1 $10 $-1 $11 #
body $-1 $12 $-1 $13 #
body $-1 $14 $-1 $15 #
body $-1 $16 $-1 $17 #
body $-1 $18 $-1 $19 #
body $-1 $20 $-1 $21 #
body $-1 $22 $-1 $23 #
lump $-1 $-1 $24 $0 #
transform $-1 1 0 0 0 1 0 0 0 1 54.617145298623612 26.703845322600767 5.5965040009571823 1 rotate no_reflect no_shear #
lump $-1 $-1 $25 $1 #
transform $-1 1 0 0 0 1 0 0 0 1 54.617145298623612 26.703845322600767 5.5965040009571823 1 rotate no_reflect no_shear #
lump $-1 $-1 $26 $2 #
transform $-1 1 0 0 0 1 0 0 0 1 54.617145298623612 26.703845322600767 5.5965040009571823 1 rotate no_reflect no_shear #
lump $-1 $-1 $27 $3 #
transform $-1 1 0 0 0 1 0 0 0 1 54.617145298623612 26.703845322600767 5.5965040009571823 1 rotate no_reflect no_shear #
lump $-1 $-1 $28 $4 #
transform $-1 1 0 0 0 1 0 0 0 1 54.617145298623612 26.703845322600767 5.5965040009571823 1 rotate no_reflect no_shear #
lump $-1 $-1 $29 $5 #
transform $-1 1 0 0 0 1 0 0 0 1 54.617145298623612 26.703845322600767 5.5965040009571823 1 rotate no_reflect no_shear #
lump $-1 $-1 $30 $6 #
transform $-1 1 0 0 0 1 0 0 0 1 54.617145298623612 26.703845322600767 5.5965040009571823 1 rotate no_reflect no_shear #
lump $-1 $-1 $31 $7 #
transform $-1 1 0 0 0 1 0 0 0 1 54.617145298623612 26.703845322600767 5.5965040009571823 1 rotate no_reflect no_shear #
shell $-1 $-1 $-1 $32 $-1 $8 #
shell $-1 $-1 $-1 $33 $-1 $10 #
shell $-1 $-1 $-1 $34 $-1 $12 #
shell $-1 $-1 $-1 $35 $-1 $14 #
shell $-1 $-1 $-1 $36 $-1 $16 #
shell $-1 $-1 $-1 $37 $-1 $18 #
shell $-1 $-1 $-1 $38 $-1 $20 #
shell $-1 $-1 $-1 $39 $-1 $22 #
face $-1 $40 $41 $24 $-1 $42 forward single #
face $-1 $43 $44 $25 $-1 $45 reversed single #
face $-1 $46 $47 $26 $-1 $48 reversed single #
face $-1 $49 $50 $27 $-1 $51 forward single #
face $-1 $52 $53 $28 $-1 $54 reversed single #
face $-1 $55 $56 $29 $-1 $57 forward single #
face $-1 $58 $59 $30 $-1 $60 forward single #
face $-1 $61 $62 $31 $-1 $63 forward single #
face $-1 $64 $65 $24 $-1 $66 reversed single #
loop $-1 $-1 $67 $32 #
plane-surface $-1 0 0 5.5965040009571823 0 0 1 1 0 0 forward_v I I I I #
face $-1 $68 $69 $25 $-1 $70 reversed single #
loop $-1 $-1 $71 $33 #
plane-surface $-1 -51.119877702283411 0 2.5965040009571823 0 0 1 1 0 0 forward_v I I I I #
face $-1 $72 $73 $26 $-1 $74 reversed single #
loop $-1 $-1 $75 $34 #
plane-surface $-1 20.236808498107774 -101.20145325823266 80.415619744317326 -1 0 0 0 -0.68199836817093118 0.7313536940579346 forward_v I I I I #
face $-1 $76 $77 $27 $-1 $78 forward single #
loop $-1 $79 $80 $35 #
cone-surface $-1 7.4278991716800391 -22.242269679222943 1.1922195666208193 0 0.68199836817093118 -0.7313536940579346 1.5 0 0 1 I I 0 1 1.5 forward I I I I #
face $-1 $81 $82 $28 $-1 $83 reversed single #
loop $-1 $-1 $84 $36 #
plane-surface $-1 -11.276085810249057 94.599672182046803 102.80289356137892 1 0 0 0 -0.86602541151947299 -0.49999998660252726 forward_v I I I I #
face $-1 $85 $86 $29 $-1 $87 forward single #
loop $-1 $88 $89 $37 #
cone-surface $-1 -8.0662061760166281 25.213366116097092 3.514918235629017 0 -0.86602541151947299 -0.49999998660252726 0.25 0 0 1 I I 0 1 0.25 forward I I I I #
face $-1 $90 $91 $30 $-1 $92 forward single #
loop $-1 $93 $94 $38 #
cone-surface $-1 -3.2513867246679808 25.213366116097092 3.514918235629017 0 -0.86602541151947299 -0.49999998660252726 0.25 0 0 1 I I 0 1 0.25 forward I I I I #
face $-1 $95 $96 $31 $-1 $97 forward single #
loop $-1 $98 $99 $39 #
cone-surface $-1 1.5634327266806665 25.213366116097092 3.514918235629017 0 -0.86602541151947299 -0.49999998660252726 0.25 0 0 1 I I 0 1 0.25 forward I I I I #
face $-1 $100 $101 $24 $-1 $102 reversed single #
loop $-1 $-1 $103 $40 #
plane-surface $-1 0 0 -5.5965040009571823 0 0 1 1 0 0 forward_v I I I I #
coedge $-1 $104 $105 $106 $107 forward $41 $-1 #
face $-1 $108 $109 $25 $-1 $110 reversed single #
loop $-1 $-1 $111 $43 #
plane-surface $-1 -47.62261010594321 0 4.0965040009571823 -1 0 0 0 0 1 forward_v I I I I #
coedge $-1 $112 $113 $114 $115 forward $44 $-1 #
face $-1 $116 $117 $26 $-1 $118 reversed single #
loop $-1 $-1 $119 $46 #
plane-surface $-1 7.4278991716800391 -26.703845322600756 0.52671779822266274 0 -0.68199836817093118 0.7313536940579346 1 0 0 forward_v I I I I #
coedge $-1 $120 $121 $122 $123 reversed $47 $-1 #
face $-1 $-1 $124 $27 $-1 $125 forward single #
loop $-1 $126 $127 $49 #
cone-surface $-1 7.4278991716800391 -19.987535244457572 -1.225687036891741 0 0.68199836817093118 -0.7313536940579346 0.75 0 0 1 I I -0.70710678118654757 0.70710678118654757 0.75 forward I I I I #
loop $-1 $-1 $128 $35 #
coedge $-1 $80 $80 $129 $130 reversed $50 $-1 #
face $-1 $131 $132 $28 $-1 $133 reversed single #
loop $-1 $-1 $134 $52 #
plane-surface $-1 -3.2513867246679808 7.1552807412444963e-007 48.185749726218745 0 0.86602541151947299 0.49999998660252726 1 0 0 forward_v I I I I #
coedge $-1 $135 $136 $137 $138 reversed $53 $-1 #
face $-1 $-1 $139 $29 $-1 $140 forward single #
loop $-1 $141 $142 $55 #
cone-surface $-1 -8.0662061760166281 24.672100233897421 3.2024182440024376 0 -0.86602541151947299 -0.49999998660252726 0.125 0 0 1 I I -0.70710678118654746 0.70710678118654746 0.125 forward I I I I #
loop $-1 $-1 $143 $37 #
coedge $-1 $89 $89 $144 $145 reversed $56 $-1 #
face $-1 $-1 $146 $30 $-1 $147 forward single #
loop $-1 $148 $149 $58 #
cone-surface $-1 -3.2513867246679808 24.672100233897421 3.2024182440024376 0 -0.86602541151947299 -0.49999998660252726 0.125 0 0 1 I I -0.70710678118654746 0.70710678118654746 0.125 forward I I I I #
loop $-1 $-1 $150 $38 #
coedge $-1 $94 $94 $151 $152 reversed $59 $-1 #
face $-1 $-1 $153 $31 $-1 $154 forward single #
loop $-1 $155 $156 $61 #
cone-surface $-1 1.5634327266806665 24.672100233897421 3.2024182440024376 0 -0.86602541151947299 -0.49999998660252726 0.125 0 0 1 I I -0.70710678118654746 0.70710678118654746 0.125 forward I I I I #
loop $-1 $-1 $157 $39 #
coedge $-1 $99 $99 $158 $159 reversed $62 $-1 #
face $-1 $160 $161 $24 $-1 $162 reversed single #
loop $-1 $-1 $163 $64 #
plane-surface $-1 0 -26.703845322600767 0 0 1 0 0 0 1 forward_v I I I I #
coedge $-1 $164 $165 $166 $167 forward $65 $-1 #
coedge $-1 $168 $67 $169 $170 forward $41 $-1 #
coedge $-1 $67 $168 $171 $172 forward $41 $-1 #
coedge $-1 $173 $174 $67 $107 reversed $175 $-1 #
edge $-1 $176 -26.703845322600767 $177 26.703845322600767 $106 $178 forward 7 unknown #
face $-1 $179 $180 $25 $-1 $181 reversed single #
loop $-1 $-1 $182 $68 #
plane-surface $-1 0 26.703845322600767 0 0 -1 0 0 0 -1 forward_v I I I I #
coedge $-1 $114 $183 $184 $185 reversed $69 $-1 #
coedge $-1 $186 $71 $187 $188 reversed $44 $-1 #
coedge $-1 $71 $186 $189 $190 reversed $44 $-1 #
coedge $-1 $191 $111 $71 $115 reversed $69 $-1 #
edge $-1 $192 -26.703845322600767 $193 26.703845322600767 $114 $194 forward 7 unknown #
face $-1 $195 $196 $26 $-1 $197 reversed single #
loop $-1 $-1 $198 $72 #
plane-surface $-1 -5.3810101547476954 -101.20145325823266 80.415619744317326 1 0 0 0 0.68199836817093118 -0.7313536940579346 forward_v I I I I #
coedge $-1 $199 $200 $201 $202 reversed $73 $-1 #
coedge $-1 $121 $75 $203 $204 reversed $47 $-1 #
coedge $-1 $75 $120 $199 $205 reversed $47 $-1 #
coedge $-1 $201 $206 $75 $123 forward $207 $-1 #
edge $-1 $208 23.896881306515564 $209 29.333561275996882 $122 $210 forward 7 unknown #
loop $-1 $-1 $129 $76 #
plane-surface $-1 7.4278991716800391 -26.703845322600756 0.52671779822266274 0 -0.68199836817093118 0.7313536940579346 1 0 0 forward_v I I I I #
loop $-1 $-1 $211 $49 #
coedge $-1 $127 $127 $128 $212 reversed $77 $-1 #
coedge $-1 $128 $128 $127 $212 forward $79 $-1 #
coedge $-1 $129 $129 $80 $130 forward $124 $-1 #
edge $-1 $213 5.3133472452587546e-017 $213 6.2831853071796004 $129 $214 forward 7 unknown #
face $-1 $215 $216 $28 $-1 $217 forward single #
loop $-1 $-1 $218 $81 #
plane-surface $-1 4.7733123609130956 94.599672182046803 102.80289356137892 -1 0 0 0 0.86602541151947299 0.49999998660252726 forward_v I I I I #
coedge $-1 $219 $220 $221 $222 reversed $82 $-1 #
coedge $-1 $136 $84 $223 $224 reversed $53 $-1 #
coedge $-1 $84 $135 $219 $225 reversed $53 $-1 #
coedge $-1 $221 $226 $84 $138 forward $216 $-1 #
edge $-1 $227 20.595990768422634 $228 22.710923769910526 $137 $229 forward 7 unknown #
loop $-1 $-1 $144 $85 #
plane-surface $-1 -3.2513867246679808 7.1552807412444963e-007 48.185749726218745 0 0.86602541151947299 0.49999998660252726 1 0 0 forward_v I I I I #
loop $-1 $-1 $230 $55 #
coedge $-1 $142 $142 $143 $231 reversed $86 $-1 #
coedge $-1 $143 $143 $142 $231 forward $88 $-1 #
coedge $-1 $144 $144 $89 $145 forward $139 $-1 #
edge $-1 $232 2.8558395474700043e-015 $232 6.2831853071796031 $144 $233 forward 7 unknown #
loop $-1 $-1 $151 $90 #
plane-surface $-1 -3.2513867246679808 7.1552807412444963e-007 48.185749726218745 0 0.86602541151947299 0.49999998660252726 1 0 0 forward_v I I I I #
loop $-1 $-1 $234 $58 #
coedge $-1 $149 $149 $150 $235 reversed $91 $-1 #
coedge $-1 $150 $150 $149 $235 forward $93 $-1 #
coedge $-1 $151 $151 $94 $152 forward $146 $-1 #
edge $-1 $236 2.8558395474700043e-015 $236 6.2831853071796031 $151 $237 forward 7 unknown #
loop $-1 $-1 $158 $95 #
plane-surface $-1 -3.2513867246679808 7.1552807412444963e-007 48.185749726218745 0 0.86602541151947299 0.49999998660252726 1 0 0 forward_v I I I I #
loop $-1 $-1 $238 $61 #
coedge $-1 $156 $156 $157 $239 reversed $96 $-1 #
coedge $-1 $157 $157 $156 $239 forward $98 $-1 #
coedge $-1 $158 $158 $99 $159 forward $153 $-1 #
edge $-1 $240 2.8558395474700043e-015 $240 6.2831853071796031 $158 $241 forward 7 unknown #
face $-1 $242 $243 $24 $-1 $244 reversed single #
loop $-1 $-1 $245 $100 #
plane-surface $-1 -54.617145298623612 0 0 1 0 0 0 0 -1 forward_v I I I I #
coedge $-1 $246 $171 $247 $248 forward $101 $-1 #
coedge $-1 $249 $103 $246 $250 forward $65 $-1 #
coedge $-1 $103 $249 $251 $252 forward $65 $-1 #
coedge $-1 $174 $173 $103 $167 reversed $175 $-1 #
edge $-1 $253 -26.703845322600767 $254 26.703845322600767 $166 $255 forward 7 unknown #
coedge $-1 $105 $104 $256 $257 forward $41 $-1 #
coedge $-1 $258 $259 $104 $170 reversed $243 $-1 #
edge $-1 $177 -54.617145298623612 $260 54.617145298623612 $169 $261 forward 7 unknown #
coedge $-1 $163 $262 $105 $172 reversed $101 $-1 #
edge $-1 $263 -54.617145298623612 $176 54.617145298623612 $171 $264 forward 7 unknown #
coedge $-1 $166 $106 $262 $265 forward $175 $-1 #
coedge $-1 $106 $166 $258 $266 reversed $175 $-1 #
loop $-1 $-1 $173 $242 #
vertex $-1 $107 $267 #
vertex $-1 $107 $268 #
straight-curve $-1 54.617145298623612 0 5.5965040009571823 0 1 0 I I #
face $-1 $269 $270 $25 $-1 $271 forward single #
loop $-1 $-1 $272 $108 #
plane-surface $-1 -54.617145298623612 0 0 1 0 0 0 0 -1 forward_v I I I I #
coedge $-1 $189 $273 $191 $274 forward $109 $-1 #
coedge $-1 $111 $191 $275 $276 reversed $69 $-1 #
coedge $-1 $277 $187 $111 $185 forward $278 $-1 #
edge $-1 $193 0.54825200047859113 $279 3.5482520004785911 $184 $280 forward 7 unknown #
coedge $-1 $113 $112 $272 $281 reversed $44 $-1 #
coedge $-1 $184 $282 $112 $188 forward $278 $-1 #
edge $-1 $283 -29.057206447481907 $193 -22.062671254801504 $187 $284 forward 7 unknown #
coedge $-1 $285 $182 $113 $190 forward $109 $-1 #
edge $-1 $192 22.062671254801504 $286 29.057206447481907 $189 $287 forward 7 unknown #
coedge $-1 $183 $114 $182 $274 reversed $69 $-1 #
vertex $-1 $190 $288 #
vertex $-1 $188 $289 #
straight-curve $-1 -47.62261010594321 0 2.5965040009571823 0 -1 0 I I #
face $-1 $-1 $207 $26 $-1 $290 forward single #
loop $-1 $-1 $291 $116 #
plane-surface $-1 0 -26.703845322600767 0 0 1 0 0 0 1 forward_v I I I I #
coedge $-1 $292 $293 $294 $295 reversed $117 $-1 #
coedge $-1 $296 $119 $121 $205 forward $73 $-1 #
coedge $-1 $119 $296 $292 $297 forward $73 $-1 #
coedge $-1 $294 $122 $119 $202 forward $207 $-1 #
edge $-1 $209 -16.522858912267754 $298 9.0949597405877149 $201 $299 forward 7 unknown #
coedge $-1 $300 $301 $120 $204 forward $196 $-1 #
edge $-1 $302 -39.681092073936007 $208 -34.61130587120148 $203 $303 forward 7 unknown #
edge $-1 $209 -7.4337218963313774 $302 1.4609403438664074e-014 $121 $304 forward 7 unknown #
coedge $-1 $122 $294 $300 $305 forward $207 $-1 #
loop $-1 $-1 $294 $195 #
vertex $-1 $204 $306 #
vertex $-1 $123 $307 #
straight-curve $-1 20.236808498107774 -50.60072662911633 5.5965040009571823 0 1 0 I I #
coedge $-1 $211 $211 $-1 $308 reversed $126 $-1 #
edge $-1 $309 0 $309 6.2831853071796004 $127 $310 forward 7 unknown #
vertex $-1 $130 $311 #
ellipse-curve $-1 7.4278991716800391 -23.985505337860108 3.0616108995899172 0 -0.68199836817093118 0.7313536940579346 1.5 0 0 1 I I #
face $-1 $-1 $312 $28 $-1 $313 reversed single #
loop $-1 $-1 $137 $131 #
plane-surface $-1 0 0 5.5965040009571823 0 0 1 1 0 0 forward_v I I I I #
coedge $-1 $314 $315 $316 $317 reversed $132 $-1 #
coedge $-1 $318 $134 $136 $225 forward $82 $-1 #
coedge $-1 $134 $318 $314 $319 forward $82 $-1 #
coedge $-1 $316 $137 $134 $222 forward $216 $-1 #
edge $-1 $228 -9.6503924479150669 $320 6.3990057232470861 $221 $321 forward 7 unknown #
coedge $-1 $322 $323 $135 $224 forward $312 $-1 #
edge $-1 $324 -49.468114323786097 $227 -45.804942779732279 $223 $325 forward 7 unknown #
edge $-1 $228 49.177824528886731 $324 53.407690645201548 $136 $326 forward 7 unknown #
coedge $-1 $137 $316 $322 $327 forward $216 $-1 #
vertex $-1 $224 $328 #
vertex $-1 $138 $329 #
straight-curve $-1 -11.276085810249057 47.299836091023401 5.5965040009571823 0 -1 0 I I #
coedge $-1 $230 $230 $-1 $330 reversed $141 $-1 #
edge $-1 $331 0 $331 6.2831853071796004 $142 $332 forward 7 unknown #
vertex $-1 $145 $333 #
ellipse-curve $-1 -8.0662061760166281 25.646378821856818 3.7649182289302754 0 0.86602541151947299 0.49999998660252726 0.25 0 0 1 I I #
coedge $-1 $234 $234 $-1 $334 reversed $148 $-1 #
edge $-1 $335 0 $335 6.2831853071796004 $149 $336 forward 7 unknown #
vertex $-1 $152 $337 #
ellipse-curve $-1 -3.2513867246679808 25.646378821856818 3.7649182289302754 0 0.86602541151947299 0.49999998660252726 0.25 0 0 1 I I #
coedge $-1 $238 $238 $-1 $338 reversed $155 $-1 #
edge $-1 $339 0 $339 6.2831853071796004 $156 $340 forward 7 unknown #
vertex $-1 $159 $341 #
ellipse-curve $-1 1.5634327266806665 25.646378821856818 3.7649182289302754 0 0.86602541151947299 0.49999998660252726 0.25 0 0 1 I I #
face $-1 $-1 $175 $24 $-1 $342 reversed single #
loop $-1 $-1 $258 $160 #
plane-surface $-1 0 26.703845322600767 0 0 -1 0 0 0 -1 forward_v I I I I #
coedge $-1 $343 $256 $259 $344 forward $161 $-1 #
coedge $-1 $262 $163 $164 $250 reversed $101 $-1 #
coedge $-1 $256 $343 $163 $248 reversed $161 $-1 #
edge $-1 $263 -5.5965040009571823 $345 5.5965040009571823 $247 $346 forward 7 unknown #
coedge $-1 $165 $164 $343 $347 forward $65 $-1 #
edge $-1 $254 -54.617145298623612 $345 54.617145298623612 $246 $348 forward 7 unknown #
coedge $-1 $259 $258 $165 $252 reversed $243 $-1 #
edge $-1 $349 -54.617145298623612 $253 54.617145298623612 $251 $350 forward 7 unknown #
vertex $-1 $167 $351 #
vertex $-1 $265 $352 #
straight-curve $-1 54.617145298623612 0 -5.5965040009571823 0 -1 0 I I #
coedge $-1 $245 $247 $168 $257 reversed $161 $-1 #
edge $-1 $260 -26.703845322600767 $263 26.703845322600767 $256 $353 forward 7 unknown #
coedge $-1 $251 $169 $174 $266 forward $243 $-1 #
coedge $-1 $169 $251 $245 $344 reversed $243 $-1 #
vertex $-1 $170 $354 #
straight-curve $-1 0 26.703845322600767 5.5965040009571823 -1 0 0 I I #
coedge $-1 $171 $246 $173 $265 reversed $101 $-1 #
vertex $-1 $257 $355 #
straight-curve $-1 0 -26.703845322600767 5.5965040009571823 1 0 0 I I #
edge $-1 $176 -5.5965040009571823 $254 5.5965040009571823 $173 $356 forward 7 unknown #
edge $-1 $177 -5.5965040009571823 $253 5.5965040009571823 $174 $357 forward 7 unknown #
point $-1 54.617145298623612 -26.703845322600767 5.5965040009571823 #
point $-1 54.617145298623612 26.703845322600767 5.5965040009571823 #
face $-1 $-1 $278 $25 $-1 $358 reversed single #
loop $-1 $-1 $275 $179 #
plane-surface $-1 0 0 5.5965040009571823 0 0 1 1 0 0 forward_v I I I I #
coedge $-1 $359 $360 $186 $281 forward $180 $-1 #
coedge $-1 $182 $285 $361 $362 reversed $109 $-1 #
edge $-1 $363 -3.5482520004785911 $192 -0.54825200047859113 $182 $364 forward 7 unknown #
coedge $-1 $361 $365 $183 $276 forward $270 $-1 #
edge $-1 $279 -26.703845322600767 $363 26.703845322600767 $275 $366 forward 7 unknown #
coedge $-1 $282 $184 $365 $367 reversed $278 $-1 #
loop $-1 $-1 $184 $269 #
vertex $-1 $185 $368 #
straight-curve $-1 -47.62261010594321 -26.703845322600767 2.0482520004785911 0 0 1 I I #
edge $-1 $286 -26.703845322600767 $283 26.703845322600767 $272 $369 forward 7 unknown #
coedge $-1 $187 $277 $359 $370 forward $278 $-1 #
vertex $-1 $281 $371 #
straight-curve $-1 -25.559938851141705 -26.703845322600767 2.5965040009571823 1 0 0 I I #
coedge $-1 $273 $189 $360 $372 reversed $109 $-1 #
vertex $-1 $281 $373 #
straight-curve $-1 -25.559938851141705 26.703845322600767 2.5965040009571823 -1 0 0 I I #
point $-1 -47.62261010594321 26.703845322600767 2.5965040009571823 #
point $-1 -47.62261010594321 -26.703845322600767 2.5965040009571823 #
plane-surface $-1 0 0 5.5965040009571823 0 0 1 1 0 0 forward_v I I I I #
coedge $-1 $301 $300 $293 $374 forward $196 $-1 #
coedge $-1 $293 $198 $200 $297 reversed $117 $-1 #
coedge $-1 $198 $292 $291 $374 reversed $117 $-1 #
coedge $-1 $206 $201 $198 $295 forward $207 $-1 #
edge $-1 $298 -29.333561275996882 $375 -23.896881306515564 $294 $376 forward 7 unknown #
coedge $-1 $200 $199 $301 $377 reversed $73 $-1 #
edge $-1 $378 -1.4609403438664074e-014 $298 7.4337218963313774 $292 $379 forward 7 unknown #
vertex $-1 $202 $380 #
straight-curve $-1 3.7139495858400196 -21.267165353119445 5.5965040009571823 -1 0 0 I I #
coedge $-1 $291 $203 $206 $305 reversed $196 $-1 #
coedge $-1 $203 $291 $296 $377 forward $196 $-1 #
vertex $-1 $204 $381 #
straight-curve $-1 20.236808498107774 -26.70384532260077 40.207809872158663 0 0 1 I I #
straight-curve $-1 20.236808498107774 -26.703845322600756 0.52671779822266274 0 -0.7313536940579346 -0.68199836817093118 I I #
edge $-1 $375 -5.3810101547476954 $208 20.236808498107774 $300 $382 forward 7 unknown #
point $-1 20.236808498107774 -26.703845322600767 5.5965040009571823 #
point $-1 20.236808498107774 -21.267165353119449 5.5965040009571823 #
edge $-1 $383 1 $383 0 $211 $-1 forward 7 unknown #
vertex $-1 $212 $384 #
ellipse-curve $-1 7.4278991716800391 -20.499034020585771 -0.67717176634829002 0 -0.68199836817093118 0.7313536940579346 1.5 0 0 1 I I #
point $-1 8.9278991716800391 -23.985505337860118 3.0616108995899287 #
loop $-1 $-1 $223 $215 #
plane-surface $-1 0 26.703845322600767 0 0 -1 0 0 0 -1 forward_v I I I I #
coedge $-1 $315 $218 $220 $319 reversed $132 $-1 #
coedge $-1 $218 $314 $385 $386 reversed $132 $-1 #
coedge $-1 $226 $221 $218 $317 forward $216 $-1 #
edge $-1 $320 -22.710923769910526 $387 -20.595990768422634 $316 $388 forward 7 unknown #
coedge $-1 $220 $219 $323 $389 reversed $82 $-1 #
edge $-1 $390 -53.407690645201548 $320 -49.177824528886731 $314 $391 forward 7 unknown #
vertex $-1 $222 $392 #
straight-curve $-1 -1.6256933623339904 24.588912321112872 5.5965040009571787 1 0 0 I I #
coedge $-1 $385 $223 $226 $327 reversed $312 $-1 #
coedge $-1 $223 $385 $318 $389 forward $312 $-1 #
vertex $-1 $224 $393 #
straight-curve $-1 -11.276085810249057 26.70384532260077 51.401446780689461 0 0 1 I I #
straight-curve $-1 -11.276085810249057 7.1552807412444963e-007 48.185749726218745 0 0.49999998660252726 -0.86602541151947299 I I #
edge $-1 $387 -4.7733123609130956 $227 11.276085810249057 $322 $394 forward 7 unknown #
point $-1 -11.276085810249057 26.703845322600767 5.5965040009571823 #
point $-1 -11.276085810249057 24.588912321112876 5.5965040009571823 #
edge $-1 $395 1 $395 0 $230 $-1 forward 7 unknown #
vertex $-1 $231 $396 #
ellipse-curve $-1 -8.0662061760166281 24.780353410337355 3.2649182423277536 0 0.86602541151947299 0.49999998660252726 0.25 0 0 1 I I #
point $-1 -7.8162061760166281 25.646378821856828 3.7649182289302807 #
edge $-1 $397 1 $397 0 $234 $-1 forward 7 unknown #
vertex $-1 $235 $398 #
ellipse-curve $-1 -3.2513867246679808 24.780353410337355 3.2649182423277536 0 0.86602541151947299 0.49999998660252726 0.25 0 0 1 I I #
point $-1 -3.0013867246679808 25.646378821856828 3.7649182289302807 #
edge $-1 $399 1 $399 0 $238 $-1 forward 7 unknown #
vertex $-1 $239 $400 #
ellipse-curve $-1 1.5634327266806665 24.780353410337355 3.2649182423277536 0 0.86602541151947299 0.49999998660252726 0.25 0 0 1 I I #
point $-1 1.8134327266806665 25.646378821856828 3.7649182289302807 #
plane-surface $-1 54.617145298623612 0 0 -1 0 0 0 0 1 forward_v I I I I #
coedge $-1 $247 $245 $249 $347 reversed $161 $-1 #
edge $-1 $260 -5.5965040009571823 $349 5.5965040009571823 $259 $401 forward 7 unknown #
vertex $-1 $347 $402 #
straight-curve $-1 -54.617145298623612 -26.703845322600767 0 0 0 -1 I I #
edge $-1 $345 -26.703845322600767 $349 26.703845322600767 $343 $403 forward 7 unknown #
straight-curve $-1 0 -26.703845322600767 -5.5965040009571823 -1 0 0 I I #
vertex $-1 $252 $404 #
straight-curve $-1 0 26.703845322600767 -5.5965040009571823 1 0 0 I I #
point $-1 54.617145298623612 26.703845322600767 -5.5965040009571823 #
point $-1 54.617145298623612 -26.703845322600767 -5.5965040009571823 #
straight-curve $-1 -54.617145298623612 0 5.5965040009571823 0 -1 0 I I #
point $-1 -54.617145298623612 26.703845322600767 5.5965040009571823 #
point $-1 -54.617145298623612 -26.703845322600767 5.5965040009571823 #
straight-curve $-1 54.617145298623612 -26.703845322600767 0 0 0 -1 I I #
straight-curve $-1 54.617145298623612 26.703845322600767 0 0 0 -1 I I #
plane-surface $-1 0 -26.703845322600767 0 0 1 0 0 0 1 forward_v I I I I #
coedge $-1 $405 $272 $282 $370 reversed $180 $-1 #
coedge $-1 $272 $405 $285 $372 forward $180 $-1 #
coedge $-1 $406 $275 $273 $362 forward $270 $-1 #
edge $-1 $363 47.62261010594321 $407 54.617145298623612 $273 $408 forward 7 unknown #
vertex $-1 $362 $409 #
straight-curve $-1 -47.62261010594321 26.703845322600767 2.0482520004785911 0 0 -1 I I #
coedge $-1 $275 $406 $277 $367 forward $270 $-1 #
straight-curve $-1 -47.62261010594321 0 5.5965040009571823 0 1 0 I I #
edge $-1 $410 -54.617145298623612 $279 -47.62261010594321 $277 $411 forward 7 unknown #
point $-1 -47.62261010594321 -26.703845322600767 5.5965040009571823 #
straight-curve $-1 -54.617145298623612 0 2.5965040009571823 0 -1 0 I I #
edge $-1 $410 -5.5965040009571823 $283 -2.5965040009571823 $359 $412 forward 7 unknown #
point $-1 -54.617145298623612 -26.703845322600767 2.5965040009571823 #
edge $-1 $407 -5.5965040009571823 $286 -2.5965040009571823 $285 $413 forward 7 unknown #
point $-1 -54.617145298623612 26.703845322600767 2.5965040009571823 #
edge $-1 $375 34.61130587120148 $378 39.681092073936007 $291 $414 forward 7 unknown #
vertex $-1 $305 $415 #
straight-curve $-1 -5.3810101547476954 -50.60072662911633 5.5965040009571823 0 -1 0 I I #
edge $-1 $378 -9.0949597405877149 $302 16.522858912267754 $301 $416 forward 7 unknown #
vertex $-1 $377 $417 #
straight-curve $-1 -5.3810101547476954 -26.703845322600756 0.52671779822266274 0 0.7313536940579346 0.68199836817093118 I I #
point $-1 -5.3810101547476954 -21.267165353119449 5.5965040009571823 #
point $-1 20.236808498107774 -26.703845322600767 0.52671779822265274 #
straight-curve $-1 0 -26.703845322600767 5.5965040009571823 1 0 0 I I #
vertex $-1 $308 $418 #
point $-1 8.9278991716800391 -20.499034020585771 -0.67717176634829002 #
coedge $-1 $323 $322 $315 $386 forward $312 $-1 #
edge $-1 $387 45.804942779732279 $390 49.468114323786097 $385 $419 forward 7 unknown #
vertex $-1 $327 $420 #
straight-curve $-1 4.7733123609130956 47.299836091023401 5.5965040009571823 0 1 0 I I #
edge $-1 $390 -6.3990057232470861 $324 9.6503924479150669 $323 $421 forward 7 unknown #
vertex $-1 $389 $422 #
straight-curve $-1 4.7733123609130956 7.1552807412444963e-007 48.185749726218745 0 -0.49999998660252726 0.86602541151947299 I I #
point $-1 4.7733123609130956 24.588912321112876 5.5965040009571823 #
point $-1 -11.276085810249057 26.703845322600767 1.933332456903365 #
straight-curve $-1 0 26.703845322600767 5.5965040009571823 -1 0 0 I I #
vertex $-1 $330 $423 #
point $-1 -7.8162061760166281 24.780353410337355 3.2649182423277536 #
vertex $-1 $334 $424 #
point $-1 -3.0013867246679808 24.780353410337355 3.2649182423277536 #
vertex $-1 $338 $425 #
point $-1 1.8134327266806665 24.780353410337355 3.2649182423277536 #
straight-curve $-1 -54.617145298623612 26.703845322600767 0 0 0 -1 I I #
point $-1 -54.617145298623612 -26.703845322600767 -5.5965040009571823 #
straight-curve $-1 -54.617145298623612 0 -5.5965040009571823 0 1 0 I I #
point $-1 -54.617145298623612 26.703845322600767 -5.5965040009571823 #
coedge $-1 $360 $359 $406 $426 reversed $180 $-1 #
coedge $-1 $365 $361 $405 $426 forward $270 $-1 #
vertex $-1 $362 $427 #
straight-curve $-1 0 26.703845322600767 5.5965040009571823 -1 0 0 I I #
point $-1 -47.62261010594321 26.703845322600767 5.5965040009571823 #
vertex $-1 $426 $428 #
straight-curve $-1 0 -26.703845322600767 5.5965040009571823 1 0 0 I I #
straight-curve $-1 -54.617145298623612 -26.703845322600767 0 0 0 -1 I I #
straight-curve $-1 -54.617145298623612 26.703845322600767 0 0 0 -1 I I #
straight-curve $-1 -5.3810101547476954 -26.70384532260077 40.207809872158663 0 0 -1 I I #
point $-1 -5.3810101547476954 -26.703845322600767 5.5965040009571823 #
straight-curve $-1 3.7139495858400196 -26.703845322600767 0.52671779822265297 1 0 0 I I #
point $-1 -5.3810101547476954 -26.703845322600767 0.52671779822265274 #
point $-1 7.4278991716800391 -19.476036468329372 -1.7742023074351918 #
straight-curve $-1 4.7733123609130956 26.70384532260077 51.401446780689461 0 0 -1 I I #
point $-1 4.7733123609130956 26.703845322600767 5.5965040009571823 #
straight-curve $-1 -1.6256933623339904 26.703845322600767 1.9333324569033685 -1 0 0 I I #
point $-1 4.7733123609130956 26.703845322600767 1.933332456903365 #
point $-1 -8.0662061760166281 24.563847057457487 3.1399182456771215 #
point $-1 -3.2513867246679808 24.563847057457487 3.1399182456771215 #
point $-1 1.5634327266806665 24.563847057457487 3.1399182456771215 #
edge $-1 $407 -26.703845322600767 $410 26.703845322600767 $405 $429 forward 7 unknown #
point $-1 -54.617145298623612 26.703845322600767 5.5965040009571823 #
point $-1 -54.617145298623612 -26.703845322600767 5.5965040009571823 #
straight-curve $-1 -54.617145298623612 0 5.5965040009571823 0 -1 0 I I #
End-of-ACIS-data 