500 0 8 0           
7 Unknown 11 ACIS 5.0 NT 24 Thu Mar 25 19:16:39 1999 
-1 9.9999999999999995e-007 1e-010 
body $-1 $8 $-1 $9 #
body $-1 $10 $-1 $11 #
body $-1 $12 $-1 $13 #
body $-1 $14 $-1 $15 #
body $-1 $16 $-1 $17 #
body $-1 $18 $-1 $19 #
body $-1 $20 $-1 $21 #
body $-1 $22 $-1 $23 #
lump $-1 $-1 $24 $0 #
transform $-1 1 0 0 0 1 0 0 0 1 44.580217902157656 19.423081356693718 4.4572258050331968 1 rotate no_reflect no_shear #
lump $-1 $-1 $25 $1 #
transform $-1 1 0 0 0 1 0 0 0 1 44.580217902157656 19.423081356693718 4.4572258050331968 1 rotate no_reflect no_shear #
lump $-1 $-1 $26 $2 #
transform $-1 1 0 0 0 1 0 0 0 1 44.580217902157656 19.423081356693718 4.4572258050331968 1 rotate no_reflect no_shear #
lump $-1 $-1 $27 $3 #
transform $-1 1 0 0 0 1 0 0 0 1 44.580217902157656 19.423081356693718 4.4572258050331968 1 rotate no_reflect no_shear #
lump $-1 $-1 $28 $4 #
transform $-1 1 0 0 0 1 0 0 0 1 44.580217902157656 19.423081356693718 4.4572258050331968 1 rotate no_reflect no_shear #
lump $-1 $-1 $29 $5 #
transform $-1 1 0 0 0 1 0 0 0 1 44.580217902157656 19.423081356693718 4.4572258050331968 1 rotate no_reflect no_shear #
lump $-1 $-1 $30 $6 #
transform $-1 1 0 0 0 1 0 0 0 1 44.580217902157656 19.423081356693718 4.4572258050331968 1 rotate no_reflect no_shear #
lump $-1 $-1 $31 $7 #
transform $-1 1 0 0 0 1 0 0 0 1 44.580217902157656 19.423081356693718 4.4572258050331968 1 rotate no_reflect no_shear #
shell $-1 $-1 $-1 $32 $-1 $8 #
shell $-1 $-1 $-1 $33 $-1 $10 #
shell $-1 $-1 $-1 $34 $-1 $12 #
shell $-1 $-1 $-1 $35 $-1 $14 #
shell $-1 $-1 $-1 $36 $-1 $16 #
shell $-1 $-1 $-1 $37 $-1 $18 #
shell $-1 $-1 $-1 $38 $-1 $20 #
shell $-1 $-1 $-1 $39 $-1 $22 #
face $-1 $40 $41 $24 $-1 $42 reversed single #
face $-1 $43 $44 $25 $-1 $45 forward single #
face $-1 $46 $47 $26 $-1 $48 forward single #
face $-1 $49 $50 $27 $-1 $51 reversed single #
face $-1 $52 $53 $28 $-1 $54 forward single #
face $-1 $55 $56 $29 $-1 $57 forward single #
face $-1 $58 $59 $30 $-1 $60 reversed single #
face $-1 $61 $62 $31 $-1 $63 forward single #
face $-1 $64 $65 $24 $-1 $66 forward single #
loop $-1 $-1 $67 $32 #
plane-surface $-1 44.580217902157656 0 0 -1 0 0 0 0 1 forward_v I I I I #
face $-1 $68 $69 $25 $-1 $70 reversed single #
loop $-1 $-1 $71 $33 #
plane-surface $-1 -44.580217902157656 0 0 1 0 0 0 0 -1 forward_v I I I I #
face $-1 $72 $73 $26 $-1 $74 reversed single #
loop $-1 $-1 $75 $34 #
plane-surface $-1 44.580217902157656 0 0 -1 0 0 0 0 1 forward_v I I I I #
face $-1 $76 $77 $27 $-1 $78 reversed single #
loop $-1 $-1 $79 $35 #
plane-surface $-1 -9.366779787650632 32.046440906594029 96.89468619171447 1 0 0 0 -0.51503808176128008 -0.85716729658548041 forward_v I I I I #
face $-1 $80 $81 $28 $-1 $82 forward single #
loop $-1 $83 $84 $36 #
cone-surface $-1 -3.7498576281254543 14.758275306803364 0.229091733600157 0 -0.51503808176128008 -0.85716729658548041 1.5 0 0 1 I I 0 1 1.5 forward I I I I #
face $-1 $85 $86 $29 $-1 $87 forward single #
loop $-1 $88 $89 $37 #
cone-surface $-1 4.6755256111623211 14.758275306803364 0.229091733600157 0 -0.51503808176128008 -0.85716729658548041 1.5 0 0 1 I I 0 1 1.5 forward I I I I #
face $-1 $90 $91 $30 $-1 $92 reversed single #
loop $-1 $-1 $93 $38 #
plane-surface $-1 30.63582783153182 -89.682464302723247 54.964111587748356 -1 0 0 0 -0.78801076186113728 0.61566146476048833 forward_v I I I I #
face $-1 $94 $95 $31 $-1 $96 forward single #
loop $-1 $97 $98 $39 #
cone-surface $-1 26.469633082213448 -17.094969720836673 1.7839756789546348 0 0.78801076186113728 -0.61566146476048833 1 0 0 1 I I 0 1 1 forward I I I I #
face $-1 $99 $100 $24 $-1 $101 reversed single #
loop $-1 $-1 $102 $40 #
plane-surface $-1 0 0 4.4572258050331968 0 0 1 1 0 0 forward_v I I I I #
coedge $-1 $103 $104 $105 $106 reversed $41 $-1 #
face $-1 $107 $108 $25 $-1 $109 forward single #
loop $-1 $-1 $110 $43 #
plane-surface $-1 0 19.423081356693718 0 0 -1 0 0 0 -1 forward_v I I I I #
coedge $-1 $111 $112 $113 $114 forward $44 $-1 #
face $-1 $115 $116 $26 $-1 $117 forward single #
loop $-1 $-1 $118 $46 #
plane-surface $-1 0 -19.423081356693718 0 0 1 0 0 0 1 forward_v I I I I #
coedge $-1 $119 $120 $121 $122 forward $47 $-1 #
face $-1 $123 $124 $27 $-1 $125 reversed single #
loop $-1 $-1 $126 $49 #
plane-surface $-1 0.46283399151843696 -13.874578919060284 20.469276470946241 0 0.51503808176128008 0.85716729658548041 1 0 0 forward_v I I I I #
coedge $-1 $127 $128 $129 $130 reversed $50 $-1 #
face $-1 $-1 $131 $28 $-1 $132 forward single #
loop $-1 $133 $134 $52 #
cone-surface $-1 -3.7498576281254543 13.03175737788639 -2.6443165793837089 0 -0.51503808176128008 -0.85716729658548041 0.75 0 0 1 I I -0.70710678118654757 0.70710678118654757 0.75 forward I I I I #
loop $-1 $-1 $135 $36 #
coedge $-1 $84 $84 $136 $137 reversed $53 $-1 #
face $-1 $-1 $138 $29 $-1 $139 forward single #
loop $-1 $140 $141 $55 #
cone-surface $-1 4.6755256111623211 13.03175737788639 -2.6443165793837089 0 -0.51503808176128008 -0.85716729658548041 0.75 0 0 1 I I -0.70710678118654757 0.70710678118654757 0.75 forward I I I I #
loop $-1 $-1 $142 $37 #
coedge $-1 $89 $89 $143 $144 reversed $56 $-1 #
face $-1 $145 $146 $30 $-1 $147 reversed single #
loop $-1 $-1 $148 $58 #
plane-surface $-1 26.469633082213463 -19.423081356693714 0.071467081780099306 0 -0.78801076186113728 0.61566146476048833 1 0 0 forward_v I I I I #
coedge $-1 $149 $150 $151 $152 reversed $59 $-1 #
face $-1 $-1 $153 $31 $-1 $154 forward single #
loop $-1 $155 $156 $61 #
cone-surface $-1 26.469633082213448 -16.086117782603857 0.99577418212238022 0 0.78801076186113728 -0.61566146476048833 0.5 0 0 1 I I -0.70710678118654746 0.70710678118654746 0.5 forward I I I I #
loop $-1 $-1 $157 $39 #
coedge $-1 $98 $98 $158 $159 reversed $62 $-1 #
face $-1 $160 $161 $24 $-1 $162 reversed single #
loop $-1 $-1 $163 $64 #
plane-surface $-1 0 0 -4.4572258050331968 0 0 1 1 0 0 forward_v I I I I #
coedge $-1 $164 $165 $103 $166 forward $65 $-1 #
coedge $-1 $167 $67 $102 $166 reversed $41 $-1 #
coedge $-1 $67 $167 $163 $168 reversed $41 $-1 #
coedge $-1 $169 $170 $67 $106 forward $171 $-1 #
edge $-1 $172 -4.4572258050331968 $173 4.4572258050331968 $67 $174 forward 7 unknown #
face $-1 $175 $176 $25 $-1 $177 reversed single #
loop $-1 $-1 $113 $68 #
plane-surface $-1 -46.345036919254447 0 1.3111064909837806 0 0 1 1 0 0 forward_v I I I I #
coedge $-1 $178 $179 $112 $180 forward $69 $-1 #
coedge $-1 $181 $71 $182 $183 reversed $44 $-1 #
coedge $-1 $71 $181 $110 $180 reversed $44 $-1 #
coedge $-1 $184 $185 $71 $114 reversed $108 $-1 #
edge $-1 $186 -19.423081356693718 $187 19.423081356693718 $113 $188 forward 7 unknown #
face $-1 $189 $190 $26 $-1 $191 reversed single #
loop $-1 $-1 $192 $72 #
plane-surface $-1 46.34503691925444 0 1.3111064909837806 0 0 1 1 0 0 forward_v I I I I #
coedge $-1 $193 $194 $120 $195 forward $73 $-1 #
coedge $-1 $196 $75 $197 $198 reversed $47 $-1 #
coedge $-1 $75 $196 $118 $195 reversed $47 $-1 #
coedge $-1 $199 $200 $75 $122 reversed $116 $-1 #
edge $-1 $201 -19.423081356693718 $202 19.423081356693718 $121 $203 forward 7 unknown #
face $-1 $204 $205 $27 $-1 $206 reversed single #
loop $-1 $-1 $207 $76 #
plane-surface $-1 10.292447770687506 32.046440906594029 96.89468619171447 -1 0 0 0 0.51503808176128008 0.85716729658548041 forward_v I I I I #
coedge $-1 $208 $209 $210 $211 reversed $77 $-1 #
coedge $-1 $128 $79 $212 $213 reversed $50 $-1 #
coedge $-1 $79 $127 $208 $214 reversed $50 $-1 #
coedge $-1 $210 $215 $79 $130 forward $216 $-1 #
edge $-1 $217 -3.3998609033967035 $218 3.2492724611919996 $129 $219 forward 7 unknown #
loop $-1 $-1 $136 $80 #
plane-surface $-1 0.46283399151843696 -13.874578919060284 20.469276470946241 0 0.51503808176128008 0.85716729658548041 1 0 0 forward_v I I I I #
loop $-1 $-1 $220 $52 #
coedge $-1 $134 $134 $135 $221 reversed $81 $-1 #
coedge $-1 $135 $135 $134 $221 forward $83 $-1 #
coedge $-1 $136 $136 $84 $137 forward $131 $-1 #
edge $-1 $222 -5.1409712264160027e-016 $222 6.2831853071795996 $136 $223 forward 7 unknown #
loop $-1 $-1 $143 $85 #
plane-surface $-1 0.46283399151843696 -13.874578919060284 20.469276470946241 0 0.51503808176128008 0.85716729658548041 1 0 0 forward_v I I I I #
loop $-1 $-1 $224 $55 #
coedge $-1 $141 $141 $142 $225 reversed $86 $-1 #
coedge $-1 $142 $142 $141 $225 forward $88 $-1 #
coedge $-1 $143 $143 $89 $144 forward $138 $-1 #
edge $-1 $226 -5.1409712264160027e-016 $226 6.2831853071795996 $143 $227 forward 7 unknown #
face $-1 $228 $229 $30 $-1 $230 forward single #
loop $-1 $-1 $231 $90 #
plane-surface $-1 22.303438332895105 -89.682464302723247 54.964111587748356 1 0 0 0 0.78801076186113728 -0.61566146476048833 forward_v I I I I #
coedge $-1 $232 $233 $234 $235 reversed $91 $-1 #
coedge $-1 $150 $93 $236 $237 reversed $59 $-1 #
coedge $-1 $93 $149 $232 $238 reversed $59 $-1 #
coedge $-1 $234 $239 $93 $152 forward $229 $-1 #
edge $-1 $240 25.418150794667906 $241 28.844680951777498 $151 $242 forward 7 unknown #
loop $-1 $-1 $158 $94 #
plane-surface $-1 26.469633082213463 -19.423081356693714 0.071467081780099306 0 -0.78801076186113728 0.61566146476048833 1 0 0 forward_v I I I I #
loop $-1 $-1 $243 $61 #
coedge $-1 $156 $156 $157 $244 reversed $95 $-1 #
coedge $-1 $157 $157 $156 $244 forward $97 $-1 #
coedge $-1 $158 $158 $98 $159 forward $153 $-1 #
edge $-1 $245 -2.1872689073649395e-015 $245 6.2831853071795987 $158 $246 forward 7 unknown #
face $-1 $247 $248 $24 $-1 $249 reversed single #
loop $-1 $-1 $250 $99 #
plane-surface $-1 0 -19.423081356693718 0 0 1 0 0 0 1 forward_v I I I I #
coedge $-1 $251 $252 $104 $168 forward $100 $-1 #
coedge $-1 $253 $102 $170 $254 forward $65 $-1 #
coedge $-1 $102 $253 $255 $256 forward $65 $-1 #
edge $-1 $257 -19.423081356693718 $172 19.423081356693718 $103 $258 forward 7 unknown #
coedge $-1 $104 $103 $259 $260 forward $41 $-1 #
edge $-1 $173 -19.423081356693718 $261 19.423081356693718 $104 $262 forward 7 unknown #
coedge $-1 $263 $105 $252 $264 reversed $171 $-1 #
coedge $-1 $105 $263 $164 $254 reversed $171 $-1 #
loop $-1 $-1 $105 $247 #
vertex $-1 $166 $265 #
vertex $-1 $168 $266 #
straight-curve $-1 44.580217902157656 19.423081356693718 0 0 0 -1 I I #
face $-1 $267 $268 $25 $-1 $269 reversed single #
loop $-1 $-1 $270 $107 #
plane-surface $-1 -46.345036919254447 0 -1.6888935090162198 0 0 1 1 0 0 forward_v I I I I #
coedge $-1 $271 $110 $272 $273 reversed $69 $-1 #
coedge $-1 $110 $271 $184 $274 reversed $69 $-1 #
edge $-1 $186 -1.3111064909837806 $275 1.6888935090162198 $110 $276 forward 7 unknown #
coedge $-1 $112 $111 $270 $277 forward $44 $-1 #
coedge $-1 $278 $279 $111 $183 forward $280 $-1 #
edge $-1 $281 -1.6888935090162198 $187 1.3111064909837806 $182 $282 forward 7 unknown #
coedge $-1 $283 $113 $179 $274 forward $108 $-1 #
coedge $-1 $113 $283 $278 $284 forward $108 $-1 #
vertex $-1 $180 $285 #
vertex $-1 $284 $286 #
straight-curve $-1 -44.580217902157656 0 1.3111064909837806 0 -1 0 I I #
face $-1 $287 $288 $26 $-1 $289 reversed single #
loop $-1 $-1 $290 $115 #
plane-surface $-1 46.34503691925444 0 -1.6888935090162198 0 0 1 1 0 0 forward_v I I I I #
coedge $-1 $200 $199 $291 $292 forward $116 $-1 #
coedge $-1 $293 $118 $294 $295 reversed $73 $-1 #
coedge $-1 $118 $293 $199 $296 reversed $73 $-1 #
edge $-1 $201 -1.3111064909837806 $297 1.6888935090162198 $118 $298 forward 7 unknown #
coedge $-1 $120 $119 $299 $300 forward $47 $-1 #
coedge $-1 $301 $302 $119 $198 forward $303 $-1 #
edge $-1 $304 -1.6888935090162198 $202 1.3111064909837806 $197 $305 forward 7 unknown #
coedge $-1 $192 $121 $194 $296 forward $116 $-1 #
coedge $-1 $121 $192 $301 $306 forward $116 $-1 #
vertex $-1 $195 $307 #
vertex $-1 $306 $308 #
straight-curve $-1 44.580217902157656 0 1.3111064909837806 0 1 0 I I #
face $-1 $-1 $216 $27 $-1 $309 forward single #
loop $-1 $-1 $310 $123 #
plane-surface $-1 0 19.423081356693718 0 0 -1 0 0 0 -1 forward_v I I I I #
coedge $-1 $311 $312 $313 $314 reversed $124 $-1 #
coedge $-1 $315 $126 $128 $214 forward $77 $-1 #
coedge $-1 $126 $315 $311 $316 forward $77 $-1 #
coedge $-1 $313 $129 $126 $211 forward $216 $-1 #
edge $-1 $218 -9.5981967834098505 $317 10.061030774928287 $210 $318 forward 7 unknown #
coedge $-1 $319 $320 $127 $213 forward $205 $-1 #
edge $-1 $321 -47.985319752600617 $217 -43.990117290824038 $212 $322 forward 7 unknown #
edge $-1 $218 31.089061630465263 $321 38.846162713387429 $128 $323 forward 7 unknown #
coedge $-1 $129 $313 $319 $324 forward $216 $-1 #
loop $-1 $-1 $313 $204 #
vertex $-1 $213 $325 #
vertex $-1 $130 $326 #
straight-curve $-1 -9.366779787650632 16.023220453297014 4.4572258050331968 0 -1 0 I I #
coedge $-1 $220 $220 $-1 $327 reversed $133 $-1 #
edge $-1 $328 0 $328 6.2831853071796004 $134 $329 forward 7 unknown #
vertex $-1 $137 $330 #
ellipse-curve $-1 -3.7498576281254543 16.098514674399372 2.4596245741448994 0 0.51503808176128008 0.85716729658548041 1.5 0 0 1 I I #
coedge $-1 $224 $224 $-1 $331 reversed $140 $-1 #
edge $-1 $332 0 $332 6.2831853071796004 $141 $333 forward 7 unknown #
vertex $-1 $144 $334 #
ellipse-curve $-1 4.6755256111623211 16.098514674399372 2.4596245741448994 0 0.51503808176128008 0.85716729658548041 1.5 0 0 1 I I #
face $-1 $-1 $335 $30 $-1 $336 reversed single #
loop $-1 $-1 $151 $145 #
plane-surface $-1 0 0 4.4572258050331968 0 0 1 1 0 0 forward_v I I I I #
coedge $-1 $337 $338 $339 $340 reversed $146 $-1 #
coedge $-1 $341 $148 $150 $238 forward $91 $-1 #
coedge $-1 $148 $341 $337 $342 forward $91 $-1 #
coedge $-1 $339 $151 $148 $235 forward $229 $-1 #
edge $-1 $241 -17.401011290425089 $343 -9.0686217917883738 $234 $344 forward 7 unknown #
coedge $-1 $345 $346 $149 $237 forward $335 $-1 #
edge $-1 $347 -27.410588712094082 $240 -23.024829988840981 $236 $348 forward 7 unknown #
edge $-1 $241 -5.5656076484218788 $347 5.7742264423945871e-015 $150 $349 forward 7 unknown #
coedge $-1 $151 $339 $345 $350 forward $229 $-1 #
vertex $-1 $237 $351 #
vertex $-1 $152 $352 #
straight-curve $-1 30.63582783153182 -44.841232151361623 4.4572258050331968 0 1 0 I I #
coedge $-1 $243 $243 $-1 $353 reversed $155 $-1 #
edge $-1 $354 0 $354 6.2831853071796004 $156 $355 forward 7 unknown #
vertex $-1 $159 $356 #
ellipse-curve $-1 26.469633082213448 -17.70981627813892 2.2643464434066454 0 -0.78801076186113728 0.61566146476048833 1 0 0 1 I I #
face $-1 $-1 $171 $24 $-1 $357 reversed single #
loop $-1 $-1 $358 $160 #
plane-surface $-1 -44.580217902157656 0 0 1 0 0 0 0 -1 forward_v I I I I #
coedge $-1 $359 $255 $358 $360 forward $161 $-1 #
coedge $-1 $361 $163 $359 $362 forward $100 $-1 #
coedge $-1 $163 $361 $169 $264 forward $100 $-1 #
coedge $-1 $165 $164 $363 $364 forward $65 $-1 #
edge $-1 $172 -44.580217902157656 $365 44.580217902157656 $170 $366 forward 7 unknown #
coedge $-1 $250 $259 $165 $256 reversed $161 $-1 #
edge $-1 $367 -44.580217902157656 $257 44.580217902157656 $255 $368 forward 7 unknown #
vertex $-1 $166 $369 #
straight-curve $-1 44.580217902157656 0 4.4572258050331968 0 1 0 I I #
coedge $-1 $255 $359 $167 $260 reversed $161 $-1 #
edge $-1 $257 -4.4572258050331968 $261 4.4572258050331968 $167 $370 forward 7 unknown #
vertex $-1 $260 $371 #
straight-curve $-1 44.580217902157656 0 -4.4572258050331968 0 -1 0 I I #
coedge $-1 $170 $169 $372 $373 reversed $171 $-1 #
edge $-1 $374 -44.580217902157656 $173 44.580217902157656 $169 $375 forward 7 unknown #
point $-1 44.580217902157656 19.423081356693718 4.4572258050331968 #
point $-1 44.580217902157656 19.423081356693718 -4.4572258050331968 #
face $-1 $-1 $280 $25 $-1 $376 reversed single #
loop $-1 $-1 $377 $175 #
plane-surface $-1 -48.109855936351238 0 -0.1888935090162196 1 0 0 0 0 -1 forward_v I I I I #
coedge $-1 $378 $272 $181 $277 reversed $176 $-1 #
coedge $-1 $179 $178 $377 $379 reversed $69 $-1 #
coedge $-1 $270 $380 $178 $273 forward $176 $-1 #
edge $-1 $381 -1.7648190170967908 $275 1.7648190170967908 $178 $382 forward 7 unknown #
edge $-1 $186 -1.7648190170967908 $383 1.7648190170967908 $179 $384 forward 7 unknown #
vertex $-1 $180 $385 #
straight-curve $-1 -44.580217902157656 19.423081356693718 0 0 0 -1 I I #
edge $-1 $281 -19.423081356693718 $275 19.423081356693718 $270 $386 forward 7 unknown #
coedge $-1 $387 $182 $185 $284 reversed $280 $-1 #
coedge $-1 $182 $387 $378 $388 reversed $280 $-1 #
loop $-1 $-1 $182 $267 #
vertex $-1 $183 $389 #
straight-curve $-1 -44.580217902157656 -19.423081356693718 0 0 0 1 I I #
coedge $-1 $185 $184 $390 $391 forward $108 $-1 #
edge $-1 $392 -1.7648190170967908 $187 1.7648190170967908 $278 $393 forward 7 unknown #
point $-1 -44.580217902157656 19.423081356693718 1.3111064909837806 #
point $-1 -44.580217902157656 -19.423081356693718 1.3111064909837806 #
face $-1 $-1 $303 $26 $-1 $394 reversed single #
loop $-1 $-1 $395 $189 #
plane-surface $-1 48.109855936351231 0 -0.1888935090162196 -1 0 0 0 0 1 forward_v I I I I #
coedge $-1 $294 $396 $397 $398 forward $190 $-1 #
coedge $-1 $395 $399 $192 $292 reversed $288 $-1 #
edge $-1 $400 -19.423081356693718 $401 19.423081356693718 $291 $402 forward 7 unknown #
coedge $-1 $194 $193 $395 $403 reversed $73 $-1 #
coedge $-1 $299 $290 $193 $295 forward $190 $-1 #
edge $-1 $404 -1.7648190170967908 $297 1.7648190170967908 $193 $405 forward 7 unknown #
edge $-1 $201 -1.7648190170967908 $400 1.7648190170967908 $194 $406 forward 7 unknown #
vertex $-1 $195 $407 #
straight-curve $-1 44.580217902157656 -19.423081356693718 0 0 0 -1 I I #
coedge $-1 $396 $294 $196 $300 reversed $190 $-1 #
edge $-1 $304 -19.423081356693718 $297 19.423081356693718 $299 $408 forward 7 unknown #
coedge $-1 $409 $197 $200 $306 reversed $303 $-1 #
coedge $-1 $197 $409 $396 $410 reversed $303 $-1 #
loop $-1 $-1 $197 $287 #
vertex $-1 $198 $411 #
straight-curve $-1 44.580217902157656 19.423081356693718 0 0 0 1 I I #
edge $-1 $401 -1.7648190170967908 $202 1.7648190170967908 $301 $412 forward 7 unknown #
point $-1 44.580217902157649 -19.423081356693718 1.3111064909837806 #
point $-1 44.580217902157649 19.423081356693718 1.3111064909837806 #
plane-surface $-1 0 0 4.4572258050331968 0 0 1 1 0 0 forward_v I I I I #
coedge $-1 $320 $319 $312 $413 forward $205 $-1 #
coedge $-1 $312 $207 $209 $316 reversed $124 $-1 #
coedge $-1 $207 $311 $310 $413 reversed $124 $-1 #
coedge $-1 $215 $210 $207 $314 forward $216 $-1 #
edge $-1 $317 -3.2492724611919996 $414 3.3998609033967035 $313 $415 forward 7 unknown #
coedge $-1 $209 $208 $320 $416 reversed $77 $-1 #
edge $-1 $417 -38.846162713387429 $317 -31.089061630465263 $311 $418 forward 7 unknown #
vertex $-1 $211 $419 #
straight-curve $-1 0.23141699575921848 12.773947992105015 4.457225805033195 1 0 0 I I #
coedge $-1 $310 $212 $215 $324 reversed $205 $-1 #
coedge $-1 $212 $310 $315 $416 forward $205 $-1 #
vertex $-1 $213 $420 #
straight-curve $-1 -9.366779787650632 19.423081356693718 48.447343095857235 0 0 1 I I #
straight-curve $-1 -9.366779787650632 -13.874578919060284 20.469276470946241 0 0.85716729658548041 -0.51503808176128008 I I #
edge $-1 $414 -10.292447770687506 $217 9.366779787650632 $319 $421 forward 7 unknown #
point $-1 -9.366779787650632 19.423081356693718 4.4572258050331968 #
point $-1 -9.366779787650632 12.773947992105015 4.4572258050331968 #
edge $-1 $422 1 $422 0 $220 $-1 forward 7 unknown #
vertex $-1 $221 $423 #
ellipse-curve $-1 -3.7498576281254543 13.41803593920735 -2.0014411069445988 0 0.51503808176128008 0.85716729658548041 1.5 0 0 1 I I #
point $-1 -2.2498576281254543 16.098514674399379 2.4596245741449128 #
edge $-1 $424 1 $424 0 $224 $-1 forward 7 unknown #
vertex $-1 $225 $425 #
ellipse-curve $-1 4.6755256111623211 13.41803593920735 -2.0014411069445988 0 0.51503808176128008 0.85716729658548041 1.5 0 0 1 I I #
point $-1 6.1755256111623211 16.098514674399379 2.4596245741449128 #
loop $-1 $-1 $236 $228 #
plane-surface $-1 0 -19.423081356693718 0 0 1 0 0 0 1 forward_v I I I I #
coedge $-1 $338 $231 $233 $342 reversed $146 $-1 #
coedge $-1 $231 $337 $426 $427 reversed $146 $-1 #
coedge $-1 $239 $234 $231 $340 forward $229 $-1 #
edge $-1 $343 -28.844680951777498 $428 -25.418150794667906 $339 $429 forward 7 unknown #
coedge $-1 $233 $232 $346 $430 reversed $91 $-1 #
edge $-1 $431 -5.7742264423945871e-015 $343 5.5656076484218788 $337 $432 forward 7 unknown #
vertex $-1 $235 $433 #
straight-curve $-1 13.234816541106731 -15.996551199584124 4.4572258050331968 -1 0 0 I I #
coedge $-1 $426 $236 $239 $350 reversed $335 $-1 #
coedge $-1 $236 $426 $341 $430 forward $335 $-1 #
vertex $-1 $237 $434 #
straight-curve $-1 30.63582783153182 -19.423081356693721 27.482055793874178 0 0 1 I I #
straight-curve $-1 30.63582783153182 -19.423081356693714 0.071467081780099306 0 -0.61566146476048833 -0.78801076186113728 I I #
edge $-1 $428 22.303438332895105 $240 30.63582783153182 $345 $435 forward 7 unknown #
point $-1 30.63582783153182 -19.423081356693718 4.4572258050331968 #
point $-1 30.63582783153182 -15.996551199584124 4.4572258050331968 #
edge $-1 $436 1 $436 0 $243 $-1 forward 7 unknown #
vertex $-1 $244 $437 #
ellipse-curve $-1 26.469633082213448 -16.480123163534426 1.3036049145026243 0 -0.78801076186113728 0.61566146476048833 1 0 0 1 I I #
point $-1 27.469633082213448 -17.709816278138923 2.2643464434066454 #
plane-surface $-1 0 19.423081356693718 0 0 -1 0 0 0 -1 forward_v I I I I #
coedge $-1 $363 $438 $250 $360 reversed $248 $-1 #
coedge $-1 $259 $250 $251 $362 reversed $161 $-1 #
edge $-1 $367 -4.4572258050331968 $439 4.4572258050331968 $358 $440 forward 7 unknown #
coedge $-1 $252 $251 $438 $441 forward $100 $-1 #
edge $-1 $261 -44.580217902157656 $439 44.580217902157656 $359 $442 forward 7 unknown #
coedge $-1 $372 $358 $253 $364 reversed $248 $-1 #
edge $-1 $365 -19.423081356693718 $367 19.423081356693718 $363 $443 forward 7 unknown #
vertex $-1 $254 $444 #
straight-curve $-1 0 19.423081356693718 4.4572258050331968 -1 0 0 I I #
vertex $-1 $364 $445 #
straight-curve $-1 0 -19.423081356693718 4.4572258050331968 1 0 0 I I #
point $-1 44.580217902157656 -19.423081356693718 4.4572258050331968 #
straight-curve $-1 44.580217902157656 -19.423081356693718 0 0 0 -1 I I #
point $-1 44.580217902157656 -19.423081356693718 -4.4572258050331968 #
coedge $-1 $438 $363 $263 $373 forward $248 $-1 #
edge $-1 $365 -4.4572258050331968 $374 4.4572258050331968 $263 $446 forward 7 unknown #
vertex $-1 $264 $447 #
straight-curve $-1 0 19.423081356693718 -4.4572258050331968 1 0 0 I I #
plane-surface $-1 0 -19.423081356693718 0 0 1 0 0 0 1 forward_v I I I I #
coedge $-1 $448 $390 $271 $379 forward $268 $-1 #
coedge $-1 $380 $270 $279 $388 forward $176 $-1 #
edge $-1 $383 -1.5000000000000002 $381 1.5000000000000002 $271 $449 forward 7 unknown #
coedge $-1 $272 $378 $448 $450 forward $176 $-1 #
vertex $-1 $273 $451 #
straight-curve $-1 -46.345036919254447 19.423081356693718 -1.6888935090162198 1 0 0 I I #
vertex $-1 $274 $452 #
straight-curve $-1 -46.345036919254447 19.423081356693718 1.3111064909837806 -1 0 0 I I #
point $-1 -44.580217902157656 19.423081356693718 -1.6888935090162198 #
straight-curve $-1 -44.580217902157656 0 -1.6888935090162198 0 1 0 I I #
coedge $-1 $279 $278 $453 $454 forward $280 $-1 #
edge $-1 $281 -1.7648190170967908 $455 1.7648190170967908 $279 $456 forward 7 unknown #
point $-1 -44.580217902157656 -19.423081356693718 -1.6888935090162198 #
coedge $-1 $377 $453 $283 $391 reversed $268 $-1 #
edge $-1 $383 -19.423081356693718 $392 19.423081356693718 $390 $457 forward 7 unknown #
vertex $-1 $391 $458 #
straight-curve $-1 -46.345036919254447 -19.423081356693718 1.3111064909837806 1 0 0 I I #
plane-surface $-1 0 19.423081356693718 0 0 -1 0 0 0 -1 forward_v I I I I #
coedge $-1 $397 $291 $293 $403 forward $288 $-1 #
coedge $-1 $290 $299 $302 $410 forward $190 $-1 #
coedge $-1 $399 $395 $290 $398 reversed $288 $-1 #
edge $-1 $459 -19.423081356693718 $404 19.423081356693718 $397 $460 forward 7 unknown #
coedge $-1 $291 $397 $409 $461 reversed $288 $-1 #
vertex $-1 $292 $462 #
vertex $-1 $292 $463 #
straight-curve $-1 48.109855936351231 0 1.3111064909837806 0 1 0 I I #
edge $-1 $400 -1.5000000000000002 $404 1.5000000000000002 $395 $464 forward 7 unknown #
vertex $-1 $403 $465 #
straight-curve $-1 46.34503691925444 -19.423081356693718 -1.6888935090162198 -1 0 0 I I #
straight-curve $-1 46.34503691925444 -19.423081356693718 1.3111064909837806 1 0 0 I I #
point $-1 44.580217902157649 -19.423081356693718 -1.6888935090162198 #
straight-curve $-1 44.580217902157656 0 -1.6888935090162198 0 -1 0 I I #
coedge $-1 $302 $301 $399 $461 forward $303 $-1 #
edge $-1 $304 -1.7648190170967908 $459 1.7648190170967908 $302 $466 forward 7 unknown #
point $-1 44.580217902157649 19.423081356693718 -1.6888935090162198 #
straight-curve $-1 46.34503691925444 19.423081356693718 1.3111064909837806 -1 0 0 I I #
edge $-1 $414 43.990117290824038 $417 47.985319752600617 $310 $467 forward 7 unknown #
vertex $-1 $324 $468 #
straight-curve $-1 10.292447770687506 16.023220453297014 4.4572258050331968 0 1 0 I I #
edge $-1 $417 -10.061030774928287 $321 9.5981967834098505 $320 $469 forward 7 unknown #
vertex $-1 $416 $470 #
straight-curve $-1 10.292447770687506 -13.874578919060284 20.469276470946241 0 -0.85716729658548041 0.51503808176128008 I I #
point $-1 10.292447770687506 12.773947992105015 4.4572258050331968 #
point $-1 -9.366779787650632 19.423081356693714 0.46202334325661454 #
straight-curve $-1 0 19.423081356693718 4.4572258050331968 -1 0 0 I I #
vertex $-1 $327 $471 #
point $-1 -2.2498576281254543 13.41803593920735 -2.0014411069445988 #
vertex $-1 $331 $472 #
point $-1 6.1755256111623211 13.41803593920735 -2.0014411069445988 #
coedge $-1 $346 $345 $338 $427 forward $335 $-1 #
edge $-1 $428 23.024829988840981 $431 27.410588712094082 $426 $473 forward 7 unknown #
vertex $-1 $350 $474 #
straight-curve $-1 22.303438332895105 -44.841232151361623 4.4572258050331968 0 -1 0 I I #
edge $-1 $431 9.0686217917883738 $347 17.401011290425089 $346 $475 forward 7 unknown #
vertex $-1 $430 $476 #
straight-curve $-1 22.303438332895105 -19.423081356693714 0.071467081780099306 0 0.61566146476048833 0.78801076186113728 I I #
point $-1 22.303438332895105 -15.996551199584124 4.4572258050331968 #
point $-1 30.63582783153182 -19.423081356693718 0.071467081780094754 #
straight-curve $-1 0 -19.423081356693718 4.4572258050331968 1 0 0 I I #
vertex $-1 $353 $477 #
point $-1 27.469633082213448 -16.480123163534426 1.3036049145026243 #
coedge $-1 $358 $372 $361 $441 reversed $248 $-1 #
vertex $-1 $441 $478 #
straight-curve $-1 -44.580217902157656 -19.423081356693718 0 0 0 -1 I I #
edge $-1 $439 -19.423081356693718 $374 19.423081356693718 $438 $479 forward 7 unknown #
straight-curve $-1 0 -19.423081356693718 -4.4572258050331968 -1 0 0 I I #
straight-curve $-1 -44.580217902157656 0 4.4572258050331968 0 -1 0 I I #
point $-1 -44.580217902157656 19.423081356693718 4.4572258050331968 #
point $-1 -44.580217902157656 -19.423081356693718 4.4572258050331968 #
straight-curve $-1 -44.580217902157656 19.423081356693718 0 0 0 -1 I I #
point $-1 -44.580217902157656 19.423081356693718 -4.4572258050331968 #
coedge $-1 $453 $377 $380 $450 reversed $268 $-1 #
straight-curve $-1 -48.109855936351238 19.423081356693718 -0.1888935090162196 0 0 -1 I I #
edge $-1 $455 -19.423081356693718 $381 19.423081356693718 $448 $480 forward 7 unknown #
point $-1 -48.109855936351238 19.423081356693718 -1.6888935090162198 #
point $-1 -48.109855936351238 19.423081356693718 1.3111064909837806 #
coedge $-1 $390 $448 $387 $454 reversed $268 $-1 #
edge $-1 $392 -1.5000000000000002 $455 1.5000000000000002 $453 $481 forward 7 unknown #
vertex $-1 $450 $482 #
straight-curve $-1 -46.345036919254447 -19.423081356693718 -1.6888935090162198 -1 0 0 I I #
straight-curve $-1 -48.109855936351238 0 1.3111064909837806 0 -1 0 I I #
point $-1 -48.109855936351238 -19.423081356693718 1.3111064909837806 #
vertex $-1 $398 $483 #
straight-curve $-1 48.109855936351231 0 -1.6888935090162198 0 -1 0 I I #
edge $-1 $401 -1.5000000000000002 $459 1.5000000000000002 $399 $484 forward 7 unknown #
point $-1 48.109855936351231 -19.423081356693718 1.3111064909837806 #
point $-1 48.109855936351231 19.423081356693718 1.3111064909837806 #
straight-curve $-1 48.109855936351231 -19.423081356693718 -0.1888935090162196 0 0 -1 I I #
point $-1 48.109855936351231 -19.423081356693718 -1.6888935090162198 #
straight-curve $-1 46.34503691925444 19.423081356693718 -1.6888935090162198 1 0 0 I I #
straight-curve $-1 10.292447770687506 19.423081356693718 48.447343095857235 0 0 -1 I I #
point $-1 10.292447770687506 19.423081356693718 4.4572258050331968 #
straight-curve $-1 0.23141699575921848 19.423081356693714 0.46202334325661276 -1 0 0 I I #
point $-1 10.292447770687506 19.423081356693714 0.46202334325661454 #
point $-1 -3.7498576281254543 12.645478816565429 -3.287192051822819 #
point $-1 4.6755256111623211 12.645478816565429 -3.287192051822819 #
straight-curve $-1 22.303438332895105 -19.423081356693721 27.482055793874178 0 0 -1 I I #
point $-1 22.303438332895105 -19.423081356693718 4.4572258050331968 #
straight-curve $-1 13.234816541106731 -19.423081356693718 0.071467081780094713 1 0 0 I I #
point $-1 22.303438332895105 -19.423081356693718 0.071467081780094754 #
point $-1 26.469633082213448 -15.692112401673288 0.68794344974213606 #
point $-1 -44.580217902157656 -19.423081356693718 -4.4572258050331968 #
straight-curve $-1 -44.580217902157656 0 -4.4572258050331968 0 1 0 I I #
straight-curve $-1 -48.109855936351238 0 -1.6888935090162198 0 1 0 I I #
straight-curve $-1 -48.109855936351238 -19.423081356693718 -0.1888935090162196 0 0 -1 I I #
point $-1 -48.109855936351238 -19.423081356693718 -1.6888935090162198 #
point $-1 48.109855936351231 19.423081356693718 -1.6888935090162198 #
straight-curve $-1 48.109855936351231 19.423081356693718 -0.1888935090162196 0 0 -1 I I #
End-of-ACIS-data 