500 0 8 0           
7 Unknown 11 ACIS 5.0 NT 24 Thu Mar 25 19:40:15 1999 
-1 9.9999999999999995e-007 1e-010 
body $-1 $8 $-1 $9 #
body $-1 $10 $-1 $11 #
body $-1 $12 $-1 $13 #
body $-1 $14 $-1 $15 #
body $-1 $16 $-1 $17 #
body $-1 $18 $-1 $19 #
body $-1 $20 $-1 $21 #
body $-1 $22 $-1 $23 #
lump $-1 $-1 $24 $0 #
transform $-1 1 0 0 0 1 0 0 0 1 69.843440046388139 38.148837801148467 13.317340497214174 1 rotate no_reflect no_shear #
lump $-1 $-1 $25 $1 #
transform $-1 1 0 0 0 1 0 0 0 1 69.843440046388139 38.148837801148467 13.317340497214174 1 rotate no_reflect no_shear #
lump $-1 $-1 $26 $2 #
transform $-1 1 0 0 0 1 0 0 0 1 69.843440046388139 38.148837801148467 13.317340497214174 1 rotate no_reflect no_shear #
lump $-1 $-1 $27 $3 #
transform $-1 1 0 0 0 1 0 0 0 1 69.843440046388139 38.148837801148467 13.317340497214174 1 rotate no_reflect no_shear #
lump $-1 $-1 $28 $4 #
transform $-1 1 0 0 0 1 0 0 0 1 69.843440046388139 38.148837801148467 13.317340497214174 1 rotate no_reflect no_shear #
lump $-1 $-1 $29 $5 #
transform $-1 1 0 0 0 1 0 0 0 1 69.843440046388139 38.148837801148467 13.317340497214174 1 rotate no_reflect no_shear #
lump $-1 $-1 $30 $6 #
transform $-1 1 0 0 0 1 0 0 0 1 69.843440046388139 38.148837801148467 13.317340497214174 1 rotate no_reflect no_shear #
lump $-1 $-1 $31 $7 #
transform $-1 1 0 0 0 1 0 0 0 1 69.843440046388139 38.148837801148467 13.317340497214174 1 rotate no_reflect no_shear #
shell $-1 $-1 $-1 $32 $-1 $8 #
shell $-1 $-1 $-1 $33 $-1 $10 #
shell $-1 $-1 $-1 $34 $-1 $12 #
shell $-1 $-1 $-1 $35 $-1 $14 #
shell $-1 $-1 $-1 $36 $-1 $16 #
shell $-1 $-1 $-1 $37 $-1 $18 #
shell $-1 $-1 $-1 $38 $-1 $20 #
shell $-1 $-1 $-1 $39 $-1 $22 #
face $-1 $40 $41 $24 $-1 $42 forward single #
face $-1 $43 $44 $25 $-1 $45 forward single #
face $-1 $46 $47 $26 $-1 $48 reversed single #
face $-1 $49 $50 $27 $-1 $51 forward single #
face $-1 $52 $53 $28 $-1 $54 reversed single #
face $-1 $55 $56 $29 $-1 $57 forward single #
face $-1 $58 $59 $30 $-1 $60 forward single #
face $-1 $61 $62 $31 $-1 $63 forward single #
face $-1 $64 $65 $24 $-1 $66 reversed single #
loop $-1 $-1 $67 $32 #
plane-surface $-1 0 0 13.317340497214174 0 0 1 1 0 0 forward_v I I I I #
face $-1 $68 $69 $25 $-1 $70 reversed single #
loop $-1 $-1 $71 $33 #
plane-surface $-1 0 -38.148837801148467 0 0 1 0 0 0 1 forward_v I I I I #
face $-1 $72 $73 $26 $-1 $74 reversed single #
loop $-1 $-1 $75 $34 #
plane-surface $-1 -185.64911316412744 -22.955300532963697 79.759624328338688 0 1 0 -0.82903758062907751 0 0.55919289150049634 forward_v I I I I #
face $-1 $76 $77 $27 $-1 $78 forward single #
loop $-1 $79 $80 $35 #
cone-surface $-1 -62.553245367404855 -13.302496953611495 5.2198456049184117 0.82903758062907751 0 -0.55919289150049634 1.3979822287512409 0 2.0725939515726939 1 I I 0 1 2.5 forward I I I I #
face $-1 $81 $82 $28 $-1 $83 reversed single #
loop $-1 $-1 $84 $36 #
plane-surface $-1 28.771094206551055 -8.2190351985674397 193.50728846067165 0 -1 0 -0.54463904215088732 0 -0.83867056331134215 forward_v I I I I #
face $-1 $85 $86 $29 $-1 $87 forward single #
loop $-1 $88 $89 $37 #
cone-surface $-1 59.38257831501307 -23.152563117088722 6.1493209698215079 -0.54463904215088732 0 -0.83867056331134215 1.2580058449670133 0 -0.81695856322633098 1 I I 0 1 1.5 forward I I I I #
face $-1 $90 $91 $30 $-1 $92 forward single #
loop $-1 $93 $94 $38 #
cone-surface $-1 59.38257831501307 -17.55249014764324 6.1493209698215079 -0.54463904215088732 0 -0.83867056331134215 1.2580058449670133 0 -0.81695856322633098 1 I I 0 1 1.5 forward I I I I #
face $-1 $95 $96 $31 $-1 $97 forward single #
loop $-1 $98 $99 $39 #
cone-surface $-1 59.38257831501307 -11.952417178197759 6.1493209698215079 -0.54463904215088732 0 -0.83867056331134215 1.2580058449670133 0 -0.81695856322633098 1 I I 0 1 1.5 forward I I I I #
face $-1 $100 $101 $24 $-1 $102 reversed single #
loop $-1 $-1 $103 $40 #
plane-surface $-1 0 0 -13.317340497214174 0 0 1 1 0 0 forward_v I I I I #
coedge $-1 $104 $105 $106 $107 forward $41 $-1 #
face $-1 $108 $109 $25 $-1 $110 reversed single #
loop $-1 $-1 $111 $43 #
plane-surface $-1 0 0 -13.317340497214174 0 0 1 1 0 0 forward_v I I I I #
coedge $-1 $112 $113 $114 $115 forward $44 $-1 #
face $-1 $116 $117 $26 $-1 $118 reversed single #
loop $-1 $-1 $119 $46 #
plane-surface $-1 -69.843440046388153 -13.302496953611495 1.6477139445759974 -0.82903758062907751 0 0.55919289150049634 0.55919289150049634 0 0.82903758062907751 forward_v I I I I #
coedge $-1 $120 $121 $122 $123 reversed $47 $-1 #
face $-1 $-1 $124 $27 $-1 $125 forward single #
loop $-1 $126 $127 $49 #
cone-surface $-1 -58.162384839121117 -13.302496953611495 2.2581728745661174 0.82903758062907751 0 -0.55919289150049634 0.69899111437562045 0 1.0362969757863469 1 I I -0.70710678118654746 0.70710678118654746 1.25 forward I I I I #
loop $-1 $-1 $128 $35 #
coedge $-1 $80 $80 $129 $130 reversed $50 $-1 #
face $-1 $131 $132 $28 $-1 $133 reversed single #
loop $-1 $-1 $134 $52 #
plane-surface $-1 -47.307834368224462 -17.55249014764324 76.356014046059059 0.54463904215088732 0 0.83867056331134215 0.83867056331134215 0 -0.54463904215088732 forward_v I I I I #
coedge $-1 $135 $136 $137 $138 reversed $53 $-1 #
face $-1 $-1 $139 $29 $-1 $140 forward single #
loop $-1 $141 $142 $55 #
cone-surface $-1 58.553353031821302 -23.152563117088722 4.8724260329106546 -0.54463904215088732 0 -0.83867056331134215 0.62900292248350664 0 -0.40847928161316549 1 I I -0.70710678118654757 0.70710678118654757 0.75 forward I I I I #
loop $-1 $-1 $143 $37 #
coedge $-1 $89 $89 $144 $145 reversed $56 $-1 #
face $-1 $-1 $146 $30 $-1 $147 forward single #
loop $-1 $148 $149 $58 #
cone-surface $-1 58.553353031821302 -17.55249014764324 4.8724260329106546 -0.54463904215088732 0 -0.83867056331134215 0.62900292248350664 0 -0.40847928161316549 1 I I -0.70710678118654757 0.70710678118654757 0.75 forward I I I I #
loop $-1 $-1 $150 $38 #
coedge $-1 $94 $94 $151 $152 reversed $59 $-1 #
face $-1 $-1 $153 $31 $-1 $154 forward single #
loop $-1 $155 $156 $61 #
cone-surface $-1 58.553353031821302 -11.952417178197759 4.8724260329106546 -0.54463904215088732 0 -0.83867056331134215 0.62900292248350664 0 -0.40847928161316549 1 I I -0.70710678118654757 0.70710678118654757 0.75 forward I I I I #
loop $-1 $-1 $157 $39 #
coedge $-1 $99 $99 $158 $159 reversed $62 $-1 #
face $-1 $160 $161 $24 $-1 $162 reversed single #
loop $-1 $-1 $163 $64 #
plane-surface $-1 0 -38.148837801148467 0 0 1 0 0 0 1 forward_v I I I I #
coedge $-1 $164 $165 $166 $167 forward $65 $-1 #
coedge $-1 $168 $67 $169 $170 forward $41 $-1 #
coedge $-1 $67 $168 $171 $172 forward $41 $-1 #
coedge $-1 $173 $174 $67 $107 reversed $175 $-1 #
edge $-1 $176 -38.148837801148467 $177 38.148837801148467 $106 $178 forward 7 unknown #
face $-1 $179 $180 $25 $-1 $181 forward single #
loop $-1 $-1 $182 $68 #
plane-surface $-1 69.843440046388139 0 0 -1 0 0 0 0 1 forward_v I I I I #
coedge $-1 $183 $184 $185 $186 forward $69 $-1 #
coedge $-1 $185 $71 $182 $187 reversed $44 $-1 #
coedge $-1 $71 $185 $188 $189 reversed $44 $-1 #
coedge $-1 $190 $191 $71 $115 reversed $180 $-1 #
edge $-1 $192 -69.843440046388139 $193 69.843440046388139 $114 $194 forward 7 unknown #
face $-1 $195 $196 $26 $-1 $197 forward single #
loop $-1 $-1 $198 $72 #
plane-surface $-1 -185.64911316412744 -3.6496933742592912 79.759624328338688 0 -1 0 0.82903758062907751 0 -0.55919289150049634 forward_v I I I I #
coedge $-1 $199 $200 $201 $202 reversed $73 $-1 #
coedge $-1 $121 $75 $203 $204 reversed $47 $-1 #
coedge $-1 $75 $120 $199 $205 reversed $47 $-1 #
coedge $-1 $201 $206 $75 $123 forward $196 $-1 #
edge $-1 $207 22.981116535675582 $208 30.852378788647357 $122 $209 forward 7 unknown #
loop $-1 $-1 $129 $76 #
plane-surface $-1 -69.843440046388153 -13.302496953611495 1.6477139445759974 -0.82903758062907751 0 0.55919289150049634 0.55919289150049634 0 0.82903758062907751 forward_v I I I I #
loop $-1 $-1 $210 $49 #
coedge $-1 $127 $127 $128 $211 reversed $77 $-1 #
coedge $-1 $128 $128 $127 $211 forward $79 $-1 #
coedge $-1 $129 $129 $80 $130 forward $124 $-1 #
edge $-1 $212 0 $212 6.2831853071796004 $129 $213 forward 7 unknown #
face $-1 $214 $215 $28 $-1 $216 reversed single #
loop $-1 $-1 $217 $81 #
plane-surface $-1 28.771094206551055 -26.885945096719041 193.50728846067165 0 1 0 0.54463904215088732 0 0.83867056331134215 forward_v I I I I #
coedge $-1 $218 $219 $220 $221 reversed $82 $-1 #
coedge $-1 $136 $84 $222 $223 reversed $53 $-1 #
coedge $-1 $84 $135 $218 $224 reversed $53 $-1 #
coedge $-1 $220 $225 $84 $138 forward $226 $-1 #
edge $-1 $227 -55.457892943112611 $228 -35.37766148351966 $137 $229 forward 7 unknown #
loop $-1 $-1 $144 $85 #
plane-surface $-1 -47.307834368224462 -17.55249014764324 76.356014046059059 0.54463904215088732 0 0.83867056331134215 0.83867056331134215 0 -0.54463904215088732 forward_v I I I I #
loop $-1 $-1 $230 $55 #
coedge $-1 $142 $142 $143 $231 reversed $86 $-1 #
coedge $-1 $143 $143 $142 $231 forward $88 $-1 #
coedge $-1 $144 $144 $89 $145 forward $139 $-1 #
edge $-1 $232 0 $232 6.2831853071796004 $144 $233 forward 7 unknown #
loop $-1 $-1 $151 $90 #
plane-surface $-1 -47.307834368224462 -17.55249014764324 76.356014046059059 0.54463904215088732 0 0.83867056331134215 0.83867056331134215 0 -0.54463904215088732 forward_v I I I I #
loop $-1 $-1 $234 $58 #
coedge $-1 $149 $149 $150 $235 reversed $91 $-1 #
coedge $-1 $150 $150 $149 $235 forward $93 $-1 #
coedge $-1 $151 $151 $94 $152 forward $146 $-1 #
edge $-1 $236 0 $236 6.2831853071796004 $151 $237 forward 7 unknown #
loop $-1 $-1 $158 $95 #
plane-surface $-1 -47.307834368224462 -17.55249014764324 76.356014046059059 0.54463904215088732 0 0.83867056331134215 0.83867056331134215 0 -0.54463904215088732 forward_v I I I I #
loop $-1 $-1 $238 $61 #
coedge $-1 $156 $156 $157 $239 reversed $96 $-1 #
coedge $-1 $157 $157 $156 $239 forward $98 $-1 #
coedge $-1 $158 $158 $99 $159 forward $153 $-1 #
edge $-1 $240 0 $240 6.2831853071796004 $158 $241 forward 7 unknown #
face $-1 $242 $243 $24 $-1 $244 reversed single #
loop $-1 $-1 $245 $100 #
plane-surface $-1 -69.843440046388139 0 0 1 0 0 0 0 -1 forward_v I I I I #
coedge $-1 $246 $171 $247 $248 forward $101 $-1 #
coedge $-1 $249 $103 $246 $250 forward $65 $-1 #
coedge $-1 $103 $249 $251 $252 forward $65 $-1 #
coedge $-1 $174 $173 $103 $167 reversed $175 $-1 #
edge $-1 $253 -38.148837801148467 $254 38.148837801148467 $166 $255 forward 7 unknown #
coedge $-1 $105 $104 $256 $257 forward $41 $-1 #
coedge $-1 $258 $259 $104 $170 reversed $243 $-1 #
edge $-1 $177 -69.843440046388139 $260 69.843440046388139 $169 $261 forward 7 unknown #
coedge $-1 $163 $262 $105 $172 reversed $101 $-1 #
edge $-1 $263 -69.843440046388139 $176 69.843440046388139 $171 $264 forward 7 unknown #
coedge $-1 $166 $106 $262 $265 forward $175 $-1 #
coedge $-1 $106 $166 $258 $266 reversed $175 $-1 #
loop $-1 $-1 $173 $242 #
vertex $-1 $107 $267 #
vertex $-1 $107 $268 #
straight-curve $-1 69.843440046388139 0 13.317340497214174 0 1 0 I I #
face $-1 $269 $270 $25 $-1 $271 reversed single #
loop $-1 $-1 $191 $108 #
plane-surface $-1 0 -43.780284153363183 -7.9044859725400247 0 0 1 1 0 0 forward_v I I I I #
coedge $-1 $272 $273 $112 $187 forward $109 $-1 #
coedge $-1 $274 $111 $273 $275 forward $69 $-1 #
coedge $-1 $111 $274 $276 $277 forward $69 $-1 #
coedge $-1 $113 $112 $111 $186 reversed $44 $-1 #
edge $-1 $278 -69.843440046388139 $279 69.843440046388139 $111 $280 forward 7 unknown #
edge $-1 $279 -13.317340497214174 $193 -7.9044859725400247 $182 $281 forward 7 unknown #
coedge $-1 $276 $282 $113 $189 forward $283 $-1 #
edge $-1 $192 7.9044859725400247 $278 13.317340497214174 $188 $284 forward 7 unknown #
coedge $-1 $285 $114 $282 $286 forward $180 $-1 #
coedge $-1 $114 $285 $272 $287 forward $180 $-1 #
vertex $-1 $189 $288 #
vertex $-1 $287 $289 #
straight-curve $-1 0 -38.148837801148467 -7.9044859725400247 1 0 0 I I #
face $-1 $-1 $290 $26 $-1 $291 reversed single #
loop $-1 $-1 $122 $116 #
plane-surface $-1 0 0 13.317340497214174 0 0 1 1 0 0 forward_v I I I I #
coedge $-1 $292 $293 $294 $295 reversed $117 $-1 #
coedge $-1 $296 $119 $121 $205 forward $73 $-1 #
coedge $-1 $119 $296 $292 $297 forward $73 $-1 #
coedge $-1 $294 $122 $119 $202 forward $196 $-1 #
edge $-1 $208 -16.30405205615795 $298 3.0015551025464564 $201 $299 forward 7 unknown #
coedge $-1 $300 $301 $120 $204 forward $290 $-1 #
edge $-1 $302 -38.232098219593325 $207 -26.562471666955169 $203 $303 forward 7 unknown #
edge $-1 $208 -14.076112863042002 $302 -2.5434524534472062e-014 $121 $304 forward 7 unknown #
coedge $-1 $122 $294 $300 $305 forward $196 $-1 #
vertex $-1 $204 $306 #
vertex $-1 $123 $307 #
straight-curve $-1 -92.824556582063721 -22.955300532963697 13.317340497214175 1 0 0 I I #
coedge $-1 $210 $210 $-1 $308 reversed $126 $-1 #
edge $-1 $309 0 $309 6.2831853071796004 $127 $310 forward 7 unknown #
vertex $-1 $130 $311 #
ellipse-curve $-1 -65.907808919902251 -13.302496953611495 7.4825272208950917 -0.82903758062907751 0 0.55919289150049634 1.3979822287512409 0 2.0725939515726939 1 I I #
face $-1 $-1 $226 $28 $-1 $312 forward single #
loop $-1 $-1 $313 $131 #
plane-surface $-1 69.843440046388139 0 0 -1 0 0 0 0 1 forward_v I I I I #
coedge $-1 $314 $315 $316 $317 reversed $132 $-1 #
coedge $-1 $318 $134 $136 $224 forward $82 $-1 #
coedge $-1 $134 $318 $314 $319 forward $82 $-1 #
coedge $-1 $316 $137 $134 $221 forward $226 $-1 #
edge $-1 $228 -0.55720987525418053 $320 18.109700022897421 $220 $321 forward 7 unknown #
coedge $-1 $322 $323 $135 $223 forward $215 $-1 #
edge $-1 $324 -96.476558759052295 $227 -83.436303733121647 $222 $325 forward 7 unknown #
edge $-1 $228 115.74394905641117 $324 139.68688009277631 $136 $326 forward 7 unknown #
coedge $-1 $137 $316 $322 $327 forward $226 $-1 #
loop $-1 $-1 $316 $214 #
vertex $-1 $223 $328 #
vertex $-1 $138 $329 #
straight-curve $-1 14.385547103275528 -8.2190351985674397 13.317340497214175 -1 0 0 I I #
coedge $-1 $230 $230 $-1 $330 reversed $141 $-1 #
edge $-1 $331 0 $331 6.2831853071796004 $142 $332 forward 7 unknown #
vertex $-1 $145 $333 #
ellipse-curve $-1 59.80332431659167 -23.152563117088722 6.7972129842488584 0.54463904215088732 0 0.83867056331134215 1.2580058449670133 0 -0.81695856322633098 1 I I #
coedge $-1 $234 $234 $-1 $334 reversed $148 $-1 #
edge $-1 $335 0 $335 6.2831853071796004 $149 $336 forward 7 unknown #
vertex $-1 $152 $337 #
ellipse-curve $-1 59.80332431659167 -17.55249014764324 6.7972129842488584 0.54463904215088732 0 0.83867056331134215 1.2580058449670133 0 -0.81695856322633098 1 I I #
coedge $-1 $238 $238 $-1 $338 reversed $155 $-1 #
edge $-1 $339 0 $339 6.2831853071796004 $156 $340 forward 7 unknown #
vertex $-1 $159 $341 #
ellipse-curve $-1 59.80332431659167 -11.952417178197759 6.7972129842488584 0.54463904215088732 0 0.83867056331134215 1.2580058449670133 0 -0.81695856322633098 1 I I #
face $-1 $-1 $175 $24 $-1 $342 reversed single #
loop $-1 $-1 $258 $160 #
plane-surface $-1 0 38.148837801148467 0 0 -1 0 0 0 -1 forward_v I I I I #
coedge $-1 $343 $256 $259 $344 forward $161 $-1 #
coedge $-1 $262 $163 $164 $250 reversed $101 $-1 #
coedge $-1 $256 $343 $163 $248 reversed $161 $-1 #
edge $-1 $263 -13.317340497214174 $345 13.317340497214174 $247 $346 forward 7 unknown #
coedge $-1 $165 $164 $343 $347 forward $65 $-1 #
edge $-1 $254 -69.843440046388139 $345 69.843440046388139 $246 $348 forward 7 unknown #
coedge $-1 $259 $258 $165 $252 reversed $243 $-1 #
edge $-1 $349 -69.843440046388139 $253 69.843440046388139 $251 $350 forward 7 unknown #
vertex $-1 $167 $351 #
vertex $-1 $265 $352 #
straight-curve $-1 69.843440046388139 0 -13.317340497214174 0 -1 0 I I #
coedge $-1 $245 $247 $168 $257 reversed $161 $-1 #
edge $-1 $260 -38.148837801148467 $263 38.148837801148467 $256 $353 forward 7 unknown #
coedge $-1 $251 $169 $174 $266 forward $243 $-1 #
coedge $-1 $169 $251 $245 $344 reversed $243 $-1 #
vertex $-1 $170 $354 #
straight-curve $-1 0 38.148837801148467 13.317340497214174 -1 0 0 I I #
coedge $-1 $171 $246 $173 $265 reversed $101 $-1 #
vertex $-1 $257 $355 #
straight-curve $-1 0 -38.148837801148467 13.317340497214174 1 0 0 I I #
edge $-1 $176 -13.317340497214174 $254 13.317340497214174 $173 $356 forward 7 unknown #
edge $-1 $177 -13.317340497214174 $253 13.317340497214174 $174 $357 forward 7 unknown #
point $-1 69.843440046388139 -38.148837801148467 13.317340497214174 #
point $-1 69.843440046388139 38.148837801148467 13.317340497214174 #
face $-1 $-1 $283 $25 $-1 $358 reversed single #
loop $-1 $-1 $359 $179 #
plane-surface $-1 0 -49.411730505577893 -10.610913234877099 0 1 0 0 0 1 forward_v I I I I #
coedge $-1 $360 $182 $191 $287 reversed $109 $-1 #
coedge $-1 $182 $360 $183 $275 reversed $109 $-1 #
coedge $-1 $184 $183 $361 $362 forward $69 $-1 #
edge $-1 $279 38.148837801148467 $363 49.411730505577893 $273 $364 forward 7 unknown #
coedge $-1 $365 $188 $184 $277 reversed $283 $-1 #
edge $-1 $366 -49.411730505577893 $278 -38.148837801148467 $276 $367 forward 7 unknown #
vertex $-1 $189 $368 #
vertex $-1 $275 $369 #
straight-curve $-1 0 -38.148837801148467 -13.317340497214174 1 0 0 I I #
straight-curve $-1 69.843440046388139 -38.148837801148467 0 0 0 1 I I #
coedge $-1 $188 $365 $190 $286 reversed $283 $-1 #
loop $-1 $-1 $188 $269 #
straight-curve $-1 -69.843440046388139 -38.148837801148467 0 0 0 -1 I I #
coedge $-1 $191 $190 $370 $371 forward $180 $-1 #
edge $-1 $192 -5.6314463522147093 $372 5.6314463522147093 $282 $373 forward 7 unknown #
edge $-1 $374 -5.6314463522147093 $193 5.6314463522147093 $272 $375 forward 7 unknown #
point $-1 -69.843440046388139 -38.148837801148474 -7.9044859725400247 #
point $-1 69.843440046388139 -38.148837801148474 -7.9044859725400247 #
loop $-1 $-1 $203 $195 #
plane-surface $-1 -69.843440046388139 0 0 1 0 0 0 0 -1 forward_v I I I I #
coedge $-1 $293 $198 $200 $297 reversed $117 $-1 #
coedge $-1 $198 $292 $376 $377 reversed $117 $-1 #
coedge $-1 $206 $201 $198 $295 forward $196 $-1 #
edge $-1 $298 -30.852378788647357 $378 -22.981116535675582 $294 $379 forward 7 unknown #
coedge $-1 $200 $199 $301 $380 reversed $73 $-1 #
edge $-1 $381 2.5434524534472062e-014 $298 14.076112863042002 $292 $382 forward 7 unknown #
vertex $-1 $202 $383 #
straight-curve $-1 -61.972177793416364 -6.6512484768057476 13.317340497214174 0 1 0 I I #
coedge $-1 $376 $203 $206 $305 reversed $290 $-1 #
coedge $-1 $203 $376 $296 $380 forward $290 $-1 #
vertex $-1 $204 $384 #
straight-curve $-1 -69.843440046388139 -22.955300532963697 39.879812164169344 0 0 1 I I #
straight-curve $-1 -69.843440046388153 -22.955300532963697 1.6477139445759974 -0.55919289150049634 0 -0.82903758062907751 I I #
edge $-1 $378 3.6496933742592912 $207 22.955300532963697 $300 $385 forward 7 unknown #
point $-1 -69.843440046388139 -22.955300532963697 13.317340497214174 #
point $-1 -61.972177793416364 -22.955300532963697 13.317340497214174 #
edge $-1 $386 1 $386 0 $210 $-1 forward 7 unknown #
vertex $-1 $211 $387 #
ellipse-curve $-1 -59.198681814907467 -13.302496953611495 2.9571639889417378 -0.82903758062907751 0 0.55919289150049634 1.3979822287512409 0 2.0725939515726939 1 I I #
point $-1 -64.509826691151005 -13.302496953611495 9.5551211724677785 #
plane-surface $-1 0 0 13.317340497214174 0 0 1 1 0 0 forward_v I I I I #
coedge $-1 $323 $322 $315 $388 forward $215 $-1 #
coedge $-1 $315 $217 $219 $319 reversed $132 $-1 #
coedge $-1 $217 $314 $313 $388 reversed $132 $-1 #
coedge $-1 $225 $220 $217 $317 forward $226 $-1 #
edge $-1 $320 35.37766148351966 $389 55.457892943112611 $316 $390 forward 7 unknown #
coedge $-1 $219 $218 $323 $391 reversed $82 $-1 #
edge $-1 $392 -139.68688009277631 $320 -115.74394905641117 $314 $393 forward 7 unknown #
vertex $-1 $221 $394 #
straight-curve $-1 49.763208586795201 -8.7762450738216202 13.317340497214168 0 -1 0 I I #
coedge $-1 $313 $222 $225 $327 reversed $215 $-1 #
coedge $-1 $222 $313 $318 $391 forward $215 $-1 #
vertex $-1 $223 $395 #
straight-curve $-1 69.843440046388139 -8.2190351985674397 96.753644230335823 0 0 1 I I #
straight-curve $-1 -47.307834368224462 -8.2190351985674397 76.356014046059059 0.83867056331134215 0 -0.54463904215088732 I I #
edge $-1 $389 -26.885945096719041 $227 -8.2190351985674397 $322 $396 forward 7 unknown #
point $-1 69.843440046388139 -8.2190351985674397 13.317340497214174 #
point $-1 49.763208586795187 -8.2190351985674397 13.317340497214175 #
edge $-1 $397 1 $397 0 $230 $-1 forward 7 unknown #
vertex $-1 $231 $398 #
ellipse-curve $-1 58.961832313434471 -23.152563117088722 5.5014289553941609 0.54463904215088732 0 0.83867056331134215 1.2580058449670133 0 -0.81695856322633098 1 I I #
point $-1 61.061330161558679 -23.152563117088722 5.9802544210225221 #
edge $-1 $399 1 $399 0 $234 $-1 forward 7 unknown #
vertex $-1 $235 $400 #
ellipse-curve $-1 58.961832313434471 -17.55249014764324 5.5014289553941609 0.54463904215088732 0 0.83867056331134215 1.2580058449670133 0 -0.81695856322633098 1 I I #
point $-1 61.061330161558679 -17.55249014764324 5.9802544210225221 #
edge $-1 $401 1 $401 0 $238 $-1 forward 7 unknown #
vertex $-1 $239 $402 #
ellipse-curve $-1 58.961832313434471 -11.952417178197759 5.5014289553941609 0.54463904215088732 0 0.83867056331134215 1.2580058449670133 0 -0.81695856322633098 1 I I #
point $-1 61.061330161558679 -11.952417178197759 5.9802544210225221 #
plane-surface $-1 69.843440046388139 0 0 -1 0 0 0 0 1 forward_v I I I I #
coedge $-1 $247 $245 $249 $347 reversed $161 $-1 #
edge $-1 $260 -13.317340497214174 $349 13.317340497214174 $259 $403 forward 7 unknown #
vertex $-1 $347 $404 #
straight-curve $-1 -69.843440046388139 -38.148837801148467 0 0 0 -1 I I #
edge $-1 $345 -38.148837801148467 $349 38.148837801148467 $343 $405 forward 7 unknown #
straight-curve $-1 0 -38.148837801148467 -13.317340497214174 -1 0 0 I I #
vertex $-1 $252 $406 #
straight-curve $-1 0 38.148837801148467 -13.317340497214174 1 0 0 I I #
point $-1 69.843440046388139 38.148837801148467 -13.317340497214174 #
point $-1 69.843440046388139 -38.148837801148467 -13.317340497214174 #
straight-curve $-1 -69.843440046388139 0 13.317340497214174 0 -1 0 I I #
point $-1 -69.843440046388139 38.148837801148467 13.317340497214174 #
point $-1 -69.843440046388139 -38.148837801148467 13.317340497214174 #
straight-curve $-1 69.843440046388139 -38.148837801148467 0 0 0 -1 I I #
straight-curve $-1 69.843440046388139 38.148837801148467 0 0 0 -1 I I #
plane-surface $-1 -69.843440046388139 0 0 1 0 0 0 0 -1 forward_v I I I I #
coedge $-1 $361 $370 $365 $407 forward $270 $-1 #
coedge $-1 $273 $272 $408 $409 forward $109 $-1 #
coedge $-1 $408 $359 $274 $362 reversed $270 $-1 #
edge $-1 $363 -69.843440046388139 $366 69.843440046388139 $361 $410 forward 7 unknown #
vertex $-1 $409 $411 #
straight-curve $-1 69.843440046388139 0 -13.317340497214174 0 -1 0 I I #
coedge $-1 $282 $276 $359 $407 reversed $283 $-1 #
vertex $-1 $277 $412 #
straight-curve $-1 -69.843440046388139 0 -13.317340497214174 0 1 0 I I #
point $-1 -69.843440046388139 -38.148837801148467 -13.317340497214174 #
point $-1 69.843440046388139 -38.148837801148467 -13.317340497214174 #
coedge $-1 $359 $408 $285 $371 reversed $270 $-1 #
edge $-1 $372 -69.843440046388139 $374 69.843440046388139 $370 $413 forward 7 unknown #
vertex $-1 $286 $414 #
straight-curve $-1 -69.843440046388139 -43.780284153363183 -7.9044859725400247 0 -1 0 I I #
vertex $-1 $287 $415 #
straight-curve $-1 69.843440046388139 -43.780284153363183 -7.9044859725400247 0 1 0 I I #
coedge $-1 $301 $300 $293 $377 forward $290 $-1 #
edge $-1 $378 26.562471666955169 $381 38.232098219593325 $376 $416 forward 7 unknown #
vertex $-1 $305 $417 #
straight-curve $-1 -92.824556582063721 -3.6496933742592912 13.317340497214175 -1 0 0 I I #
edge $-1 $381 -3.0015551025464564 $302 16.30405205615795 $301 $418 forward 7 unknown #
vertex $-1 $380 $419 #
straight-curve $-1 -69.843440046388153 -3.6496933742592912 1.6477139445759974 0.55919289150049634 0 0.82903758062907751 I I #
point $-1 -61.972177793416364 -3.6496933742592912 13.317340497214174 #
point $-1 -69.843440046388139 -22.955300532963697 1.6477139445760185 #
straight-curve $-1 -69.843440046388139 0 13.317340497214174 0 -1 0 I I #
vertex $-1 $308 $420 #
point $-1 -57.80069958615622 -13.302496953611495 5.0297579405144317 #
edge $-1 $389 83.436303733121647 $392 96.476558759052295 $313 $421 forward 7 unknown #
vertex $-1 $327 $422 #
straight-curve $-1 14.385547103275528 -26.885945096719041 13.317340497214175 1 0 0 I I #
edge $-1 $392 -18.109700022897421 $324 0.55720987525418053 $323 $423 forward 7 unknown #
vertex $-1 $391 $424 #
straight-curve $-1 -47.307834368224462 -26.885945096719041 76.356014046059059 -0.83867056331134215 0 0.54463904215088732 I I #
point $-1 49.763208586795187 -26.885945096719041 13.317340497214175 #
point $-1 69.843440046388153 -8.2190351985674397 0.27708547128352734 #
straight-curve $-1 69.843440046388139 0 13.317340497214174 0 1 0 I I #
vertex $-1 $330 $425 #
point $-1 60.21983815840148 -23.152563117088722 4.6844703921678299 #
vertex $-1 $334 $426 #
point $-1 60.21983815840148 -17.55249014764324 4.6844703921678299 #
vertex $-1 $338 $427 #
point $-1 60.21983815840148 -11.952417178197759 4.6844703921678299 #
straight-curve $-1 -69.843440046388139 38.148837801148467 0 0 0 -1 I I #
point $-1 -69.843440046388139 -38.148837801148467 -13.317340497214174 #
straight-curve $-1 -69.843440046388139 0 -13.317340497214174 0 1 0 I I #
point $-1 -69.843440046388139 38.148837801148467 -13.317340497214174 #
edge $-1 $372 -2.7064272623370744 $366 2.7064272623370744 $365 $428 forward 7 unknown #
coedge $-1 $370 $361 $360 $409 reversed $270 $-1 #
edge $-1 $374 -2.7064272623370744 $363 2.7064272623370744 $360 $429 forward 7 unknown #
straight-curve $-1 0 -49.411730505577893 -13.317340497214174 -1 0 0 I I #
point $-1 69.843440046388139 -49.411730505577893 -13.317340497214174 #
point $-1 -69.843440046388139 -49.411730505577893 -13.317340497214174 #
straight-curve $-1 0 -49.411730505577893 -7.9044859725400247 1 0 0 I I #
point $-1 -69.843440046388139 -49.411730505577893 -7.9044859725400247 #
point $-1 69.843440046388139 -49.411730505577893 -7.9044859725400247 #
straight-curve $-1 -69.843440046388139 -3.6496933742592912 39.879812164169344 0 0 -1 I I #
point $-1 -69.843440046388139 -3.6496933742592912 13.317340497214174 #
straight-curve $-1 -69.843440046388139 -6.6512484768057476 1.6477139445760058 0 -1 0 I I #
point $-1 -69.843440046388139 -3.6496933742592912 1.6477139445760185 #
point $-1 -57.126087863334767 -13.302496953611495 1.5591817601904969 #
straight-curve $-1 69.843440046388139 -26.885945096719041 96.753644230335823 0 0 -1 I I #
point $-1 69.843440046388139 -26.885945096719041 13.317340497214174 #
straight-curve $-1 69.843440046388139 -8.7762450738216202 0.27708547128352023 0 1 0 I I #
point $-1 69.843440046388153 -26.885945096719041 0.27708547128352734 #
point $-1 58.144873750208134 -23.152563117088722 4.2434231104271483 #
point $-1 58.144873750208134 -17.55249014764324 4.2434231104271483 #
point $-1 58.144873750208134 -11.952417178197759 4.2434231104271483 #
straight-curve $-1 -69.843440046388139 -49.411730505577893 -10.610913234877099 0 0 -1 I I #
straight-curve $-1 69.843440046388139 -49.411730505577893 -10.610913234877099 0 0 -1 I I #
End-of-ACIS-data 