500 0 7 0           
7 Unknown 11 ACIS 5.0 NT 24 Fri Mar 26 02:28:36 1999 
-1 9.9999999999999995e-007 1e-010 
body $-1 $7 $-1 $8 #
body $-1 $9 $-1 $10 #
body $-1 $11 $-1 $12 #
body $-1 $13 $-1 $14 #
body $-1 $15 $-1 $16 #
body $-1 $17 $-1 $18 #
body $-1 $19 $-1 $20 #
lump $-1 $-1 $21 $0 #
transform $-1 1 0 0 0 1 0 0 0 1 61.192052980132452 30.79304671130723 13.469267879242933 1 rotate no_reflect no_shear #
lump $-1 $-1 $22 $1 #
transform $-1 1 0 0 0 1 0 0 0 1 61.192052980132452 30.79304671130723 13.469267879242933 1 rotate no_reflect no_shear #
lump $-1 $-1 $23 $2 #
transform $-1 1 0 0 0 1 0 0 0 1 61.192052980132452 30.79304671130723 13.469267879242933 1 rotate no_reflect no_shear #
lump $-1 $-1 $24 $3 #
transform $-1 1 0 0 0 1 0 0 0 1 61.192052980132452 30.79304671130723 13.469267879242933 1 rotate no_reflect no_shear #
lump $-1 $-1 $25 $4 #
transform $-1 1 0 0 0 1 0 0 0 1 61.192052980132452 30.79304671130723 13.469267879242933 1 rotate no_reflect no_shear #
lump $-1 $-1 $26 $5 #
transform $-1 1 0 0 0 1 0 0 0 1 61.192052980132452 30.79304671130723 13.469267879242933 1 rotate no_reflect no_shear #
lump $-1 $-1 $27 $6 #
transform $-1 1 0 0 0 1 0 0 0 1 61.192052980132452 30.79304671130723 13.469267879242933 1 rotate no_reflect no_shear #
shell $-1 $-1 $-1 $28 $-1 $7 #
shell $-1 $-1 $-1 $29 $-1 $9 #
shell $-1 $-1 $-1 $30 $-1 $11 #
shell $-1 $-1 $-1 $31 $-1 $13 #
shell $-1 $-1 $-1 $32 $-1 $15 #
shell $-1 $-1 $-1 $33 $-1 $17 #
shell $-1 $-1 $-1 $34 $-1 $19 #
face $-1 $35 $36 $21 $-1 $37 forward single #
face $-1 $38 $39 $22 $-1 $40 forward single #
face $-1 $41 $42 $23 $-1 $43 reversed single #
face $-1 $44 $45 $24 $-1 $46 forward single #
face $-1 $47 $48 $25 $-1 $49 reversed single #
face $-1 $50 $51 $26 $-1 $52 forward single #
face $-1 $53 $54 $27 $-1 $55 forward single #
face $-1 $56 $57 $21 $-1 $58 reversed single #
loop $-1 $-1 $59 $28 #
plane-surface $-1 0 0 13.469267879242933 0 0 1 1 0 0 forward_v I I I I #
face $-1 $60 $61 $22 $-1 $62 reversed single #
loop $-1 $-1 $63 $29 #
plane-surface $-1 -61.192052980132452 0 0 1 0 0 0 0 -1 forward_v I I I I #
face $-1 $64 $65 $23 $-1 $66 reversed single #
loop $-1 $-1 $67 $30 #
plane-surface $-1 -33.405715970663493 76.047511291242884 134.89377583426139 1 0 0 0 -0.71933980857756763 -0.69465836192734942 forward_v I I I I #
face $-1 $68 $69 $24 $-1 $70 forward single #
loop $-1 $71 $72 $31 #
cone-surface $-1 -21.460231264903165 26.025638310918374 8.5992975546795929 0 -0.71933980857756763 -0.69465836192734942 1 0 0 1 I I 0 1 1 forward I I I I #
face $-1 $73 $74 $25 $-1 $75 reversed single #
loop $-1 $-1 $76 $32 #
plane-surface $-1 0.30640968811983171 -135.69670142497355 69.97694544958182 -1 0 0 0 -0.85716730853699208 0.51503806187062418 forward_v I I I I #
face $-1 $77 $78 $26 $-1 $79 forward single #
loop $-1 $80 $81 $33 #
cone-surface $-1 -21.491401323876836 -27.64801205362032 9.494977572468235 0 0.85716730853699208 -0.51503806187062418 1.5 0 0 1 I I 0 1 1.5 forward I I I I #
face $-1 $82 $83 $27 $-1 $84 forward single #
loop $-1 $85 $86 $34 #
cone-surface $-1 -8.4127147166788276 -27.64801205362032 9.494977572468235 0 0.85716730853699208 -0.51503806187062418 1.5 0 0 1 I I 0 1 1.5 forward I I I I #
face $-1 $87 $88 $21 $-1 $89 reversed single #
loop $-1 $-1 $90 $35 #
plane-surface $-1 0 0 -13.469267879242933 0 0 1 1 0 0 forward_v I I I I #
coedge $-1 $91 $92 $93 $94 forward $36 $-1 #
face $-1 $95 $96 $22 $-1 $97 forward single #
loop $-1 $-1 $98 $38 #
plane-surface $-1 0 30.79304671130723 0 0 -1 0 0 0 -1 forward_v I I I I #
coedge $-1 $99 $100 $101 $102 forward $39 $-1 #
face $-1 $103 $104 $23 $-1 $105 reversed single #
loop $-1 $-1 $106 $41 #
plane-surface $-1 -21.460231264903165 -11.988248063150834 49.878633261960601 0 0.71933980857756763 0.69465836192734942 1 0 0 forward_v I I I I #
coedge $-1 $107 $108 $109 $110 reversed $42 $-1 #
face $-1 $-1 $111 $24 $-1 $112 forward single #
loop $-1 $113 $114 $44 #
cone-surface $-1 -21.460231264903165 24.709150086766652 7.327979684625598 0 -0.71933980857756763 -0.69465836192734942 0.5 0 0 1 I I -0.70710678118654746 0.70710678118654746 0.5 forward I I I I #
loop $-1 $-1 $115 $31 #
coedge $-1 $72 $72 $116 $117 reversed $45 $-1 #
face $-1 $118 $119 $25 $-1 $120 reversed single #
loop $-1 $-1 $121 $47 #
plane-surface $-1 -14.952058020277839 -30.793046711307241 6.9444727120378786 0 -0.85716730853699208 0.51503806187062418 1 0 0 forward_v I I I I #
coedge $-1 $122 $123 $124 $125 reversed $48 $-1 #
face $-1 $-1 $126 $26 $-1 $127 forward single #
loop $-1 $128 $129 $50 #
cone-surface $-1 -21.491401323876836 -25.820348078582246 8.3968063028930988 0 0.85716730853699208 -0.51503806187062418 0.75 0 0 1 I I -0.70710678118654757 0.70710678118654757 0.75 forward I I I I #
loop $-1 $-1 $130 $33 #
coedge $-1 $81 $81 $131 $132 reversed $51 $-1 #
face $-1 $-1 $133 $27 $-1 $134 forward single #
loop $-1 $135 $136 $53 #
cone-surface $-1 -8.4127147166788276 -25.820348078582246 8.3968063028930988 0 0.85716730853699208 -0.51503806187062418 0.75 0 0 1 I I -0.70710678118654757 0.70710678118654757 0.75 forward I I I I #
loop $-1 $-1 $137 $34 #
coedge $-1 $86 $86 $138 $139 reversed $54 $-1 #
face $-1 $140 $141 $21 $-1 $142 reversed single #
loop $-1 $-1 $143 $56 #
plane-surface $-1 0 -30.79304671130723 0 0 1 0 0 0 1 forward_v I I I I #
coedge $-1 $144 $145 $146 $147 forward $57 $-1 #
coedge $-1 $148 $59 $149 $150 forward $36 $-1 #
coedge $-1 $59 $148 $151 $152 forward $36 $-1 #
coedge $-1 $153 $154 $59 $94 reversed $155 $-1 #
edge $-1 $156 -30.79304671130723 $157 30.79304671130723 $93 $158 forward 7 unknown #
face $-1 $159 $160 $22 $-1 $161 reversed single #
loop $-1 $-1 $101 $60 #
plane-surface $-1 -68.408114488796301 0 -7.9336764191061571 0 0 1 1 0 0 forward_v I I I I #
coedge $-1 $162 $163 $100 $164 forward $61 $-1 #
coedge $-1 $165 $63 $166 $167 reversed $39 $-1 #
coedge $-1 $63 $165 $98 $164 reversed $39 $-1 #
coedge $-1 $168 $169 $63 $102 reversed $96 $-1 #
edge $-1 $170 -30.79304671130723 $171 30.79304671130723 $101 $172 forward 7 unknown #
face $-1 $173 $174 $23 $-1 $175 forward single #
loop $-1 $-1 $176 $64 #
plane-surface $-1 -9.5147465591428322 76.047511291242884 134.89377583426139 -1 0 0 0 0.71933980857756763 0.69465836192734942 forward_v I I I I #
coedge $-1 $177 $178 $179 $180 reversed $65 $-1 #
coedge $-1 $108 $67 $181 $182 reversed $42 $-1 #
coedge $-1 $67 $107 $177 $183 reversed $42 $-1 #
coedge $-1 $179 $184 $67 $110 forward $174 $-1 #
edge $-1 $185 7.2307089343142117 $186 14.851889095366019 $109 $187 forward 7 unknown #
loop $-1 $-1 $116 $68 #
plane-surface $-1 -21.460231264903165 -11.988248063150834 49.878633261960601 0 0.71933980857756763 0.69465836192734942 1 0 0 forward_v I I I I #
loop $-1 $-1 $188 $44 #
coedge $-1 $114 $114 $115 $189 reversed $69 $-1 #
coedge $-1 $115 $115 $114 $189 forward $71 $-1 #
coedge $-1 $116 $116 $72 $117 forward $111 $-1 #
edge $-1 $190 3.5074445250725914e-016 $190 6.2831853071796004 $116 $191 forward 7 unknown #
face $-1 $192 $193 $25 $-1 $194 reversed single #
loop $-1 $-1 $195 $73 #
plane-surface $-1 -30.21052572867551 -135.69670142497355 69.97694544958182 1 0 0 0 0.85716730853699208 -0.51503806187062418 forward_v I I I I #
coedge $-1 $196 $197 $198 $199 reversed $74 $-1 #
coedge $-1 $123 $76 $200 $201 reversed $48 $-1 #
coedge $-1 $76 $122 $196 $202 reversed $48 $-1 #
coedge $-1 $198 $203 $76 $125 forward $204 $-1 #
edge $-1 $205 37.05530400117955 $206 40.975796329282687 $124 $207 forward 7 unknown #
loop $-1 $-1 $131 $77 #
plane-surface $-1 -14.952058020277839 -30.793046711307241 6.9444727120378786 0 -0.85716730853699208 0.51503806187062418 1 0 0 forward_v I I I I #
loop $-1 $-1 $208 $50 #
coedge $-1 $129 $129 $130 $209 reversed $78 $-1 #
coedge $-1 $130 $130 $129 $209 forward $80 $-1 #
coedge $-1 $131 $131 $81 $132 forward $126 $-1 #
edge $-1 $210 -4.0079449439197804e-016 $210 6.2831853071796004 $131 $211 forward 7 unknown #
loop $-1 $-1 $138 $82 #
plane-surface $-1 -14.952058020277839 -30.793046711307241 6.9444727120378786 0 -0.85716730853699208 0.51503806187062418 1 0 0 forward_v I I I I #
loop $-1 $-1 $212 $53 #
coedge $-1 $136 $136 $137 $213 reversed $83 $-1 #
coedge $-1 $137 $137 $136 $213 forward $85 $-1 #
coedge $-1 $138 $138 $86 $139 forward $133 $-1 #
edge $-1 $214 -4.0079449439197804e-016 $214 6.2831853071796004 $138 $215 forward 7 unknown #
face $-1 $216 $217 $21 $-1 $218 reversed single #
loop $-1 $-1 $219 $87 #
plane-surface $-1 -61.192052980132452 0 0 1 0 0 0 0 -1 forward_v I I I I #
coedge $-1 $220 $151 $221 $222 forward $88 $-1 #
coedge $-1 $223 $90 $220 $224 forward $57 $-1 #
coedge $-1 $90 $223 $225 $226 forward $57 $-1 #
coedge $-1 $154 $153 $90 $147 reversed $155 $-1 #
edge $-1 $227 -30.79304671130723 $228 30.79304671130723 $146 $229 forward 7 unknown #
coedge $-1 $92 $91 $230 $231 forward $36 $-1 #
coedge $-1 $232 $233 $91 $150 reversed $217 $-1 #
edge $-1 $157 -61.192052980132452 $234 61.192052980132452 $149 $235 forward 7 unknown #
coedge $-1 $143 $236 $92 $152 reversed $88 $-1 #
edge $-1 $237 -61.192052980132452 $156 61.192052980132452 $151 $238 forward 7 unknown #
coedge $-1 $146 $93 $236 $239 forward $155 $-1 #
coedge $-1 $93 $146 $232 $240 reversed $155 $-1 #
loop $-1 $-1 $153 $216 #
vertex $-1 $94 $241 #
vertex $-1 $94 $242 #
straight-curve $-1 61.192052980132452 0 13.469267879242933 0 1 0 I I #
face $-1 $243 $244 $22 $-1 $245 reversed single #
loop $-1 $-1 $246 $95 #
plane-surface $-1 -68.408114488796301 0 -12.969267879242935 0 0 1 1 0 0 forward_v I I I I #
coedge $-1 $247 $98 $248 $249 reversed $61 $-1 #
coedge $-1 $98 $247 $168 $250 reversed $61 $-1 #
edge $-1 $170 7.9336764191061571 $251 12.969267879242935 $98 $252 forward 7 unknown #
coedge $-1 $100 $99 $246 $253 forward $39 $-1 #
coedge $-1 $254 $255 $99 $167 forward $256 $-1 #
edge $-1 $257 -12.969267879242935 $171 -7.9336764191061571 $166 $258 forward 7 unknown #
coedge $-1 $259 $101 $163 $250 forward $96 $-1 #
coedge $-1 $101 $259 $254 $260 forward $96 $-1 #
vertex $-1 $164 $261 #
vertex $-1 $260 $262 #
straight-curve $-1 -61.192052980132452 0 -7.9336764191061571 0 -1 0 I I #
face $-1 $-1 $263 $23 $-1 $264 reversed single #
loop $-1 $-1 $109 $103 #
plane-surface $-1 0 0 13.469267879242933 0 0 1 1 0 0 forward_v I I I I #
coedge $-1 $265 $266 $267 $268 reversed $104 $-1 #
coedge $-1 $269 $106 $108 $183 forward $65 $-1 #
coedge $-1 $106 $269 $265 $270 forward $65 $-1 #
coedge $-1 $267 $109 $106 $180 forward $174 $-1 #
edge $-1 $186 -22.675600338211911 $271 1.2153690733087501 $179 $272 forward 7 unknown #
coedge $-1 $273 $274 $107 $182 forward $263 $-1 #
edge $-1 $275 -61.869583308833768 $185 -53.97762003788776 $181 $276 forward 7 unknown #
edge $-1 $186 50.614973547361501 $275 61.586093422614454 $108 $277 forward 7 unknown #
coedge $-1 $109 $267 $273 $278 forward $174 $-1 #
vertex $-1 $182 $279 #
vertex $-1 $110 $280 #
straight-curve $-1 -33.405715970663493 38.023755645621442 13.469267879242935 0 -1 0 I I #
coedge $-1 $188 $188 $-1 $281 reversed $113 $-1 #
edge $-1 $282 0 $282 6.2831853071796004 $114 $283 forward 7 unknown #
vertex $-1 $117 $284 #
ellipse-curve $-1 -21.460231264903165 26.982456630781328 9.5232862437699275 0 0.71933980857756763 0.69465836192734942 1 0 0 1 I I #
face $-1 $-1 $204 $25 $-1 $285 forward single #
loop $-1 $-1 $286 $118 #
plane-surface $-1 0 -30.79304671130723 0 0 1 0 0 0 1 forward_v I I I I #
coedge $-1 $287 $288 $289 $290 reversed $119 $-1 #
coedge $-1 $291 $121 $123 $202 forward $74 $-1 #
coedge $-1 $121 $291 $287 $292 forward $74 $-1 #
coedge $-1 $289 $124 $121 $199 forward $204 $-1 #
edge $-1 $206 -7.7824386982587512 $293 22.73449671853659 $198 $294 forward 7 unknown #
coedge $-1 $295 $296 $122 $201 forward $193 $-1 #
edge $-1 $297 -28.044000012753013 $205 -21.519204845547975 $200 $298 forward 7 unknown #
edge $-1 $206 -7.6120438824732313 $297 -2.0715698412831909e-014 $123 $299 forward 7 unknown #
coedge $-1 $124 $289 $295 $300 forward $204 $-1 #
loop $-1 $-1 $289 $192 #
vertex $-1 $201 $301 #
vertex $-1 $125 $302 #
straight-curve $-1 0.30640968811983171 -67.848350712486777 13.469267879242935 0 1 0 I I #
coedge $-1 $208 $208 $-1 $303 reversed $128 $-1 #
edge $-1 $304 0 $304 6.2831853071796004 $129 $305 forward 7 unknown #
vertex $-1 $132 $306 #
ellipse-curve $-1 -21.491401323876836 -28.832800547255662 10.20687029564041 0 -0.85716730853699208 0.51503806187062418 1.5 0 0 1 I I #
coedge $-1 $212 $212 $-1 $307 reversed $135 $-1 #
edge $-1 $308 0 $308 6.2831853071796004 $136 $309 forward 7 unknown #
vertex $-1 $139 $310 #
ellipse-curve $-1 -8.4127147166788276 -28.832800547255662 10.20687029564041 0 -0.85716730853699208 0.51503806187062418 1.5 0 0 1 I I #
face $-1 $-1 $155 $21 $-1 $311 reversed single #
loop $-1 $-1 $232 $140 #
plane-surface $-1 0 30.79304671130723 0 0 -1 0 0 0 -1 forward_v I I I I #
coedge $-1 $312 $230 $233 $313 forward $141 $-1 #
coedge $-1 $236 $143 $144 $224 reversed $88 $-1 #
coedge $-1 $230 $312 $143 $222 reversed $141 $-1 #
edge $-1 $237 -13.469267879242933 $314 13.469267879242933 $221 $315 forward 7 unknown #
coedge $-1 $145 $144 $312 $316 forward $57 $-1 #
edge $-1 $228 -61.192052980132452 $314 61.192052980132452 $220 $317 forward 7 unknown #
coedge $-1 $233 $232 $145 $226 reversed $217 $-1 #
edge $-1 $318 -61.192052980132452 $227 61.192052980132452 $225 $319 forward 7 unknown #
vertex $-1 $147 $320 #
vertex $-1 $239 $321 #
straight-curve $-1 61.192052980132452 0 -13.469267879242933 0 -1 0 I I #
coedge $-1 $219 $221 $148 $231 reversed $141 $-1 #
edge $-1 $234 -30.79304671130723 $237 30.79304671130723 $230 $322 forward 7 unknown #
coedge $-1 $225 $149 $154 $240 forward $217 $-1 #
coedge $-1 $149 $225 $219 $313 reversed $217 $-1 #
vertex $-1 $150 $323 #
straight-curve $-1 0 30.79304671130723 13.469267879242933 -1 0 0 I I #
coedge $-1 $151 $220 $153 $239 reversed $88 $-1 #
vertex $-1 $231 $324 #
straight-curve $-1 0 -30.79304671130723 13.469267879242933 1 0 0 I I #
edge $-1 $156 -13.469267879242933 $228 13.469267879242933 $153 $325 forward 7 unknown #
edge $-1 $157 -13.469267879242933 $227 13.469267879242933 $154 $326 forward 7 unknown #
point $-1 61.192052980132452 -30.79304671130723 13.469267879242933 #
point $-1 61.192052980132452 30.79304671130723 13.469267879242933 #
face $-1 $-1 $256 $22 $-1 $327 reversed single #
loop $-1 $-1 $328 $159 #
plane-surface $-1 -75.624175997460156 0 -10.451472149174545 1 0 0 0 0 -1 forward_v I I I I #
coedge $-1 $329 $248 $165 $253 reversed $160 $-1 #
coedge $-1 $163 $162 $328 $330 reversed $61 $-1 #
coedge $-1 $246 $331 $162 $249 forward $160 $-1 #
edge $-1 $332 -7.2160615086638558 $251 7.2160615086638487 $162 $333 forward 7 unknown #
edge $-1 $170 -7.2160615086638487 $334 7.2160615086638558 $163 $335 forward 7 unknown #
vertex $-1 $164 $336 #
straight-curve $-1 -61.192052980132452 30.79304671130723 0 0 0 -1 I I #
edge $-1 $257 -30.79304671130723 $251 30.79304671130723 $246 $337 forward 7 unknown #
coedge $-1 $338 $166 $169 $260 reversed $256 $-1 #
coedge $-1 $166 $338 $329 $339 reversed $256 $-1 #
loop $-1 $-1 $166 $243 #
vertex $-1 $167 $340 #
straight-curve $-1 -61.192052980132452 -30.79304671130723 0 0 0 1 I I #
coedge $-1 $169 $168 $341 $342 forward $96 $-1 #
edge $-1 $343 -7.2160615086638558 $171 7.2160615086638487 $254 $344 forward 7 unknown #
point $-1 -61.192052980132452 30.79304671130723 -7.9336764191061571 #
point $-1 -61.192052980132452 -30.79304671130723 -7.9336764191061571 #
loop $-1 $-1 $181 $173 #
plane-surface $-1 0 30.79304671130723 0 0 -1 0 0 0 -1 forward_v I I I I #
coedge $-1 $266 $176 $178 $270 reversed $104 $-1 #
coedge $-1 $176 $265 $345 $346 reversed $104 $-1 #
coedge $-1 $184 $179 $176 $268 forward $174 $-1 #
edge $-1 $271 -14.851889095366019 $347 -7.2307089343142117 $267 $348 forward 7 unknown #
coedge $-1 $178 $177 $274 $349 reversed $65 $-1 #
edge $-1 $350 -61.586093422614454 $271 -50.614973547361501 $265 $351 forward 7 unknown #
vertex $-1 $180 $352 #
straight-curve $-1 -10.730115632451582 23.171866550255423 13.469267879242935 1 0 0 I I #
coedge $-1 $345 $181 $184 $278 reversed $263 $-1 #
coedge $-1 $181 $345 $269 $349 forward $263 $-1 #
vertex $-1 $182 $353 #
straight-curve $-1 -33.405715970663493 30.79304671130723 67.446887917130695 0 0 1 I I #
straight-curve $-1 -33.405715970663493 -11.988248063150834 49.878633261960601 0 0.69465836192734942 -0.71933980857756763 I I #
edge $-1 $347 9.5147465591428322 $185 33.405715970663493 $273 $354 forward 7 unknown #
point $-1 -33.405715970663493 30.79304671130723 13.469267879242933 #
point $-1 -33.405715970663493 23.171866550255423 13.469267879242935 #
edge $-1 $355 1 $355 0 $188 $-1 forward 7 unknown #
vertex $-1 $189 $356 #
ellipse-curve $-1 -21.460231264903165 25.068819991055435 7.6753088655892725 0 0.71933980857756763 0.69465836192734942 1 0 0 1 I I #
point $-1 -20.460231264903165 26.982456630781314 9.5232862437699133 #
plane-surface $-1 0 0 13.469267879242933 0 0 1 1 0 0 forward_v I I I I #
coedge $-1 $296 $295 $288 $357 forward $193 $-1 #
coedge $-1 $288 $195 $197 $292 reversed $119 $-1 #
coedge $-1 $195 $287 $286 $357 reversed $119 $-1 #
coedge $-1 $203 $198 $195 $290 forward $204 $-1 #
edge $-1 $293 -40.975796329282687 $358 -37.05530400117955 $289 $359 forward 7 unknown #
coedge $-1 $197 $196 $296 $360 reversed $74 $-1 #
edge $-1 $361 2.0715698412831909e-014 $293 7.6120438824732313 $287 $362 forward 7 unknown #
vertex $-1 $199 $363 #
straight-curve $-1 -7.4760290101389195 -26.872554383204086 13.469267879242933 -1 0 0 I I #
coedge $-1 $286 $200 $203 $300 reversed $193 $-1 #
coedge $-1 $200 $286 $291 $360 forward $193 $-1 #
vertex $-1 $201 $364 #
straight-curve $-1 0.30640968811983171 -30.793046711307227 34.98847272479091 0 0 1 I I #
straight-curve $-1 0.30640968811983171 -30.793046711307241 6.9444727120378786 0 -0.51503806187062418 -0.85716730853699208 I I #
edge $-1 $358 -30.21052572867551 $205 0.30640968811983171 $295 $365 forward 7 unknown #
point $-1 0.30640968811983171 -30.79304671130723 13.469267879242933 #
point $-1 0.30640968811983171 -26.872554383204086 13.469267879242933 #
edge $-1 $366 1 $366 0 $208 $-1 forward 7 unknown #
vertex $-1 $209 $367 #
ellipse-curve $-1 -21.491401323876836 -26.463223559984989 8.7830848492960669 0 -0.85716730853699208 0.51503806187062418 1.5 0 0 1 I I #
point $-1 -19.991401323876836 -28.832800547255651 10.206870295640403 #
edge $-1 $368 1 $368 0 $212 $-1 forward 7 unknown #
vertex $-1 $213 $369 #
ellipse-curve $-1 -8.4127147166788276 -26.463223559984989 8.7830848492960669 0 -0.85716730853699208 0.51503806187062418 1.5 0 0 1 I I #
point $-1 -6.9127147166788276 -28.832800547255651 10.206870295640403 #
plane-surface $-1 61.192052980132452 0 0 -1 0 0 0 0 1 forward_v I I I I #
coedge $-1 $221 $219 $223 $316 reversed $141 $-1 #
edge $-1 $234 -13.469267879242933 $318 13.469267879242933 $233 $370 forward 7 unknown #
vertex $-1 $316 $371 #
straight-curve $-1 -61.192052980132452 -30.79304671130723 0 0 0 -1 I I #
edge $-1 $314 -30.79304671130723 $318 30.79304671130723 $312 $372 forward 7 unknown #
straight-curve $-1 0 -30.79304671130723 -13.469267879242933 -1 0 0 I I #
vertex $-1 $226 $373 #
straight-curve $-1 0 30.79304671130723 -13.469267879242933 1 0 0 I I #
point $-1 61.192052980132452 30.79304671130723 -13.469267879242933 #
point $-1 61.192052980132452 -30.79304671130723 -13.469267879242933 #
straight-curve $-1 -61.192052980132452 0 13.469267879242933 0 -1 0 I I #
point $-1 -61.192052980132452 30.79304671130723 13.469267879242933 #
point $-1 -61.192052980132452 -30.79304671130723 13.469267879242933 #
straight-curve $-1 61.192052980132452 -30.79304671130723 0 0 0 -1 I I #
straight-curve $-1 61.192052980132452 30.79304671130723 0 0 0 -1 I I #
plane-surface $-1 0 -30.79304671130723 0 0 1 0 0 0 1 forward_v I I I I #
coedge $-1 $374 $341 $247 $330 forward $244 $-1 #
coedge $-1 $331 $246 $255 $339 forward $160 $-1 #
edge $-1 $334 -2.5177957300683884 $332 2.5177957300683893 $247 $375 forward 7 unknown #
coedge $-1 $248 $329 $374 $376 forward $160 $-1 #
vertex $-1 $249 $377 #
straight-curve $-1 -68.408114488796301 30.79304671130723 -12.969267879242935 1 0 0 I I #
vertex $-1 $250 $378 #
straight-curve $-1 -68.408114488796301 30.79304671130723 -7.9336764191061571 -1 0 0 I I #
point $-1 -61.192052980132452 30.79304671130723 -12.969267879242935 #
straight-curve $-1 -61.192052980132452 0 -12.969267879242935 0 1 0 I I #
coedge $-1 $255 $254 $379 $380 forward $256 $-1 #
edge $-1 $257 -7.2160615086638487 $381 7.2160615086638558 $255 $382 forward 7 unknown #
point $-1 -61.192052980132452 -30.79304671130723 -12.969267879242935 #
coedge $-1 $328 $379 $259 $342 reversed $244 $-1 #
edge $-1 $334 -30.79304671130723 $343 30.79304671130723 $341 $383 forward 7 unknown #
vertex $-1 $342 $384 #
straight-curve $-1 -68.408114488796301 -30.79304671130723 -7.9336764191061571 1 0 0 I I #
coedge $-1 $274 $273 $266 $346 forward $263 $-1 #
edge $-1 $347 53.97762003788776 $350 61.869583308833768 $345 $385 forward 7 unknown #
vertex $-1 $278 $386 #
straight-curve $-1 -9.5147465591428322 38.023755645621442 13.469267879242935 0 1 0 I I #
edge $-1 $350 -1.2153690733087501 $275 22.675600338211911 $274 $387 forward 7 unknown #
vertex $-1 $349 $388 #
straight-curve $-1 -9.5147465591428322 -11.988248063150834 49.878633261960601 0 -0.69465836192734942 0.71933980857756763 I I #
point $-1 -9.5147465591428322 23.171866550255423 13.469267879242935 #
point $-1 -33.405715970663493 30.793046711307227 5.5773046082969273 #
straight-curve $-1 0 30.79304671130723 13.469267879242933 -1 0 0 I I #
vertex $-1 $281 $389 #
point $-1 -20.460231264903165 25.068819991055435 7.6753088655892725 #
edge $-1 $358 21.519204845547975 $361 28.044000012753013 $286 $390 forward 7 unknown #
vertex $-1 $300 $391 #
straight-curve $-1 -30.21052572867551 -67.848350712486777 13.469267879242935 0 -1 0 I I #
edge $-1 $361 -22.73449671853659 $297 7.7824386982587512 $296 $392 forward 7 unknown #
vertex $-1 $360 $393 #
straight-curve $-1 -30.21052572867551 -30.793046711307241 6.9444727120378786 0 0.51503806187062418 0.85716730853699208 I I #
point $-1 -30.21052572867551 -26.872554383204086 13.469267879242933 #
point $-1 0.30640968811983171 -30.79304671130723 6.9444727120378964 #
straight-curve $-1 0 -30.79304671130723 13.469267879242933 1 0 0 I I #
vertex $-1 $303 $394 #
point $-1 -19.991401323876836 -26.463223559984989 8.7830848492960669 #
vertex $-1 $307 $395 #
point $-1 -6.9127147166788276 -26.463223559984989 8.7830848492960669 #
straight-curve $-1 -61.192052980132452 30.79304671130723 0 0 0 -1 I I #
point $-1 -61.192052980132452 -30.79304671130723 -13.469267879242933 #
straight-curve $-1 -61.192052980132452 0 -13.469267879242933 0 1 0 I I #
point $-1 -61.192052980132452 30.79304671130723 -13.469267879242933 #
coedge $-1 $379 $328 $331 $376 reversed $244 $-1 #
straight-curve $-1 -75.624175997460156 30.79304671130723 -10.451472149174545 0 0 -1 I I #
edge $-1 $381 -30.79304671130723 $332 30.79304671130723 $374 $396 forward 7 unknown #
point $-1 -75.624175997460156 30.79304671130723 -12.969267879242935 #
point $-1 -75.624175997460156 30.79304671130723 -7.9336764191061571 #
coedge $-1 $341 $374 $338 $380 reversed $244 $-1 #
edge $-1 $343 -2.5177957300683884 $381 2.5177957300683893 $379 $397 forward 7 unknown #
vertex $-1 $376 $398 #
straight-curve $-1 -68.408114488796301 -30.79304671130723 -12.969267879242935 -1 0 0 I I #
straight-curve $-1 -75.624175997460156 0 -7.9336764191061571 0 -1 0 I I #
point $-1 -75.624175997460156 -30.79304671130723 -7.9336764191061571 #
straight-curve $-1 -9.5147465591428322 30.79304671130723 67.446887917130695 0 0 -1 I I #
point $-1 -9.5147465591428322 30.79304671130723 13.469267879242933 #
straight-curve $-1 -10.730115632451582 30.79304671130723 5.5773046082969273 -1 0 0 I I #
point $-1 -9.5147465591428322 30.793046711307227 5.5773046082969273 #
point $-1 -21.460231264903165 24.349480182477869 6.9806505036619235 #
straight-curve $-1 -30.21052572867551 -30.793046711307227 34.98847272479091 0 0 -1 I I #
point $-1 -30.21052572867551 -30.79304671130723 13.469267879242933 #
straight-curve $-1 -7.4760290101389195 -30.79304671130723 6.9444727120378911 1 0 0 I I #
point $-1 -30.21052572867551 -30.79304671130723 6.9444727120378964 #
point $-1 -21.491401323876836 -25.177472597179502 8.0105277564901307 #
point $-1 -8.4127147166788276 -25.177472597179502 8.0105277564901307 #
straight-curve $-1 -75.624175997460156 0 -12.969267879242935 0 1 0 I I #
straight-curve $-1 -75.624175997460156 -30.79304671130723 -10.451472149174545 0 0 -1 I I #
point $-1 -75.624175997460156 -30.79304671130723 -12.969267879242935 #
End-of-ACIS-data 