500 0 5 0           
7 Unknown 11 ACIS 5.0 NT 24 Thu Mar 25 16:11:27 1999 
-1 9.9999999999999995e-007 1e-010 
body $-1 $5 $-1 $6 #
body $-1 $7 $-1 $8 #
body $-1 $9 $-1 $10 #
body $-1 $11 $-1 $12 #
body $-1 $13 $-1 $14 #
lump $-1 $-1 $15 $0 #
transform $-1 1 0 0 0 1 0 0 0 1 76.010620441297647 51.796110065722047 11.656219245387977 1 rotate no_reflect no_shear #
lump $-1 $-1 $16 $1 #
transform $-1 1 0 0 0 1 0 0 0 1 76.010620441297647 51.796110065722047 11.656219245387977 1 rotate no_reflect no_shear #
lump $-1 $-1 $17 $2 #
transform $-1 1 0 0 0 1 0 0 0 1 76.010620441297647 51.796110065722047 11.656219245387977 1 rotate no_reflect no_shear #
lump $-1 $-1 $18 $3 #
transform $-1 1 0 0 0 1 0 0 0 1 76.010620441297647 51.796110065722047 11.656219245387977 1 rotate no_reflect no_shear #
lump $-1 $-1 $19 $4 #
transform $-1 1 0 0 0 1 0 0 0 1 76.010620441297647 51.796110065722047 11.656219245387977 1 rotate no_reflect no_shear #
shell $-1 $-1 $-1 $20 $-1 $5 #
shell $-1 $-1 $-1 $21 $-1 $7 #
shell $-1 $-1 $-1 $22 $-1 $9 #
shell $-1 $-1 $-1 $23 $-1 $11 #
shell $-1 $-1 $-1 $24 $-1 $13 #
face $-1 $25 $26 $15 $-1 $27 forward single #
face $-1 $28 $29 $16 $-1 $30 forward single #
face $-1 $31 $32 $17 $-1 $33 reversed single #
face $-1 $34 $35 $18 $-1 $36 reversed single #
face $-1 $37 $38 $19 $-1 $39 reversed single #
face $-1 $40 $41 $15 $-1 $42 reversed single #
loop $-1 $-1 $43 $20 #
plane-surface $-1 0 0 11.656219245387977 0 0 1 1 0 0 forward_v I I I I #
face $-1 $44 $45 $16 $-1 $46 forward single #
loop $-1 $-1 $47 $21 #
plane-surface $-1 34.819348841291841 -149.51348131527195 122.08195136948777 -1 0 0 0 -0.64278761758704617 0.76604443648966558 forward_v I I I I #
face $-1 $48 $49 $17 $-1 $50 reversed single #
loop $-1 $51 $52 $22 #
cone-surface $-1 13.532385180683335 -46.495466414908023 6.6061436857710385 0 0.64278761758704617 -0.76604443648966558 2 0 0 1 I I 0 1 2 forward I I I I #
face $-1 $53 $54 $18 $-1 $55 reversed single #
loop $-1 $56 $57 $23 #
cone-surface $-1 21.514996553411521 -46.495466414908023 6.6061436857710385 0 0.64278761758704617 -0.76604443648966558 2 0 0 1 I I 0 1 2 forward I I I I #
face $-1 $58 $59 $19 $-1 $60 reversed single #
loop $-1 $61 $62 $24 #
cone-surface $-1 29.497607926139708 -46.495466414908023 6.6061436857710385 0 0.64278761758704617 -0.76604443648966558 2 0 0 1 I I 0 1 2 forward I I I I #
face $-1 $63 $64 $15 $-1 $65 reversed single #
loop $-1 $-1 $66 $25 #
plane-surface $-1 0 0 -11.656219245387977 0 0 1 1 0 0 forward_v I I I I #
coedge $-1 $67 $68 $69 $70 forward $26 $-1 #
face $-1 $71 $72 $16 $-1 $73 forward single #
loop $-1 $-1 $74 $28 #
plane-surface $-1 21.514996553411521 -51.796110065722047 5.6269255631203521 0 -0.64278761758704617 0.76604443648966558 1 0 0 forward_v I I I I #
coedge $-1 $75 $76 $77 $78 reversed $29 $-1 #
face $-1 $79 $80 $17 $-1 $81 forward single #
loop $-1 $82 $83 $31 #
cone-surface $-1 13.532385180683335 -44.144751274581679 3.8046705307982567 0 0.64278761758704617 -0.76604443648966558 1 0 0 1 I I -0.70710678118654746 0.70710678118654746 1 forward I I I I #
loop $-1 $-1 $84 $22 #
coedge $-1 $52 $52 $85 $86 reversed $32 $-1 #
face $-1 $87 $88 $18 $-1 $89 reversed single #
loop $-1 $90 $91 $34 #
cone-surface $-1 21.514996553411521 -44.144751274581679 3.8046705307982567 0 0.64278761758704617 -0.76604443648966558 1 0 0 1 I I -0.70710678118654746 0.70710678118654746 1 forward I I I I #
loop $-1 $-1 $92 $23 #
coedge $-1 $57 $57 $93 $94 reversed $35 $-1 #
face $-1 $95 $96 $19 $-1 $97 reversed single #
loop $-1 $98 $99 $37 #
cone-surface $-1 29.497607926139708 -44.144751274581679 3.8046705307982567 0 0.64278761758704617 -0.76604443648966558 1 0 0 1 I I -0.70710678118654746 0.70710678118654746 1 forward I I I I #
loop $-1 $-1 $100 $24 #
coedge $-1 $62 $62 $101 $102 reversed $38 $-1 #
face $-1 $103 $104 $15 $-1 $105 reversed single #
loop $-1 $-1 $106 $40 #
plane-surface $-1 0 -51.796110065722047 0 0 1 0 0 0 1 forward_v I I I I #
coedge $-1 $107 $108 $109 $110 forward $41 $-1 #
coedge $-1 $111 $43 $112 $113 forward $26 $-1 #
coedge $-1 $43 $111 $114 $115 forward $26 $-1 #
coedge $-1 $116 $117 $43 $70 reversed $118 $-1 #
edge $-1 $119 -51.796110065722047 $120 51.796110065722047 $69 $121 forward 7 unknown #
face $-1 $122 $123 $16 $-1 $124 forward single #
loop $-1 $-1 $125 $44 #
plane-surface $-1 8.2106442655312009 -149.51348131527195 122.08195136948777 1 0 0 0 0.64278761758704617 -0.76604443648966558 forward_v I I I I #
coedge $-1 $126 $127 $128 $129 reversed $45 $-1 #
coedge $-1 $76 $47 $127 $130 forward $29 $-1 #
coedge $-1 $47 $75 $131 $132 reversed $29 $-1 #
coedge $-1 $133 $128 $47 $78 forward $123 $-1 #
edge $-1 $134 -30.146062848063352 $135 -22.960630591913926 $77 $136 forward 7 unknown #
face $-1 $137 $138 $17 $-1 $139 forward single #
loop $-1 $-1 $140 $48 #
plane-surface $-1 34.819348841291841 -149.51348131527195 122.08195136948777 -1 0 0 0 -0.64278761758704617 0.76604443648966558 forward_v I I I I #
loop $-1 $-1 $141 $31 #
coedge $-1 $83 $83 $84 $142 forward $49 $-1 #
coedge $-1 $84 $84 $83 $142 reversed $51 $-1 #
coedge $-1 $85 $85 $52 $86 forward $138 $-1 #
edge $-1 $143 -1.4467024634328154e-015 $143 6.2831853071795987 $85 $144 forward 7 unknown #
face $-1 $145 $146 $18 $-1 $147 reversed single #
loop $-1 $148 $149 $53 #
cone-surface $-1 13.532385180683335 -46.495466414908023 6.6061436857710385 0 0.64278761758704617 -0.76604443648966558 2 0 0 1 I I 0 1 2 forward I I I I #
loop $-1 $-1 $150 $34 #
coedge $-1 $91 $91 $92 $151 forward $54 $-1 #
coedge $-1 $92 $92 $91 $151 reversed $56 $-1 #
coedge $-1 $93 $93 $57 $94 forward $152 $-1 #
edge $-1 $153 -1.4467024634328154e-015 $153 6.2831853071795987 $93 $154 forward 7 unknown #
face $-1 $155 $156 $19 $-1 $157 reversed single #
loop $-1 $158 $159 $58 #
cone-surface $-1 21.514996553411521 -46.495466414908023 6.6061436857710385 0 0.64278761758704617 -0.76604443648966558 2 0 0 1 I I 0 1 2 forward I I I I #
loop $-1 $-1 $160 $37 #
coedge $-1 $99 $99 $100 $161 forward $59 $-1 #
coedge $-1 $100 $100 $99 $161 reversed $61 $-1 #
coedge $-1 $101 $101 $62 $102 forward $162 $-1 #
edge $-1 $163 -1.4467024634328154e-015 $163 6.2831853071795987 $101 $164 forward 7 unknown #
face $-1 $165 $166 $15 $-1 $167 reversed single #
loop $-1 $-1 $168 $63 #
plane-surface $-1 -76.010620441297647 0 0 1 0 0 0 0 -1 forward_v I I I I #
coedge $-1 $169 $114 $170 $171 forward $64 $-1 #
coedge $-1 $172 $66 $169 $173 forward $41 $-1 #
coedge $-1 $66 $172 $174 $175 forward $41 $-1 #
coedge $-1 $117 $116 $66 $110 reversed $118 $-1 #
edge $-1 $176 -51.796110065722047 $177 51.796110065722047 $109 $178 forward 7 unknown #
coedge $-1 $68 $67 $179 $180 forward $26 $-1 #
coedge $-1 $181 $182 $67 $113 reversed $166 $-1 #
edge $-1 $120 -76.010620441297647 $183 76.010620441297647 $112 $184 forward 7 unknown #
coedge $-1 $106 $185 $68 $115 reversed $64 $-1 #
edge $-1 $186 -76.010620441297647 $119 76.010620441297647 $114 $187 forward 7 unknown #
coedge $-1 $109 $69 $185 $188 forward $118 $-1 #
coedge $-1 $69 $109 $181 $189 reversed $118 $-1 #
loop $-1 $-1 $116 $165 #
vertex $-1 $70 $190 #
vertex $-1 $70 $191 #
straight-curve $-1 76.010620441297647 0 11.656219245387977 0 1 0 I I #
face $-1 $192 $193 $16 $-1 $194 reversed single #
loop $-1 $-1 $195 $71 #
plane-surface $-1 0 0 11.656219245387977 0 0 1 1 0 0 forward_v I I I I #
coedge $-1 $196 $197 $195 $198 reversed $72 $-1 #
coedge $-1 $199 $74 $197 $200 reversed $45 $-1 #
coedge $-1 $74 $199 $75 $130 reversed $45 $-1 #
coedge $-1 $77 $195 $74 $129 forward $123 $-1 #
edge $-1 $201 -2.5468540111745597 $134 24.061850564586081 $128 $202 forward 7 unknown #
edge $-1 $134 -9.3799157253540884 $203 0 $75 $204 forward 7 unknown #
coedge $-1 $205 $206 $76 $132 forward $207 $-1 #
edge $-1 $135 49.384756439355911 $203 55.414050121623532 $131 $208 forward 7 unknown #
coedge $-1 $209 $77 $206 $210 forward $123 $-1 #
vertex $-1 $129 $211 #
vertex $-1 $210 $212 #
straight-curve $-1 34.819348841291841 -74.756740657635973 11.656219245387973 0 -1 0 I I #
face $-1 $213 $214 $17 $-1 $215 forward single #
loop $-1 $216 $85 $79 #
plane-surface $-1 21.514996553411521 -51.796110065722047 5.6269255631203521 0 -0.64278761758704617 0.76604443648966558 1 0 0 forward_v I I I I #
coedge $-1 $217 $218 $219 $220 reversed $80 $-1 #
coedge $-1 $141 $141 $-1 $221 forward $82 $-1 #
edge $-1 $222 0 $222 6.2831853071796004 $83 $223 forward 7 unknown #
vertex $-1 $86 $224 #
ellipse-curve $-1 13.532385180683335 -48.203393937647334 8.6415724042541662 0 0.64278761758704617 -0.76604443648966558 2 0 0 1 I I #
face $-1 $225 $226 $18 $-1 $227 forward single #
loop $-1 $228 $229 $87 #
cone-surface $-1 13.532385180683335 -44.144751274581679 3.8046705307982567 0 0.64278761758704617 -0.76604443648966558 1 0 0 1 I I -0.70710678118654746 0.70710678118654746 1 forward I I I I #
loop $-1 $-1 $230 $53 #
coedge $-1 $149 $149 $231 $232 reversed $88 $-1 #
coedge $-1 $150 $150 $-1 $233 forward $90 $-1 #
edge $-1 $234 0 $234 6.2831853071796004 $91 $235 forward 7 unknown #
loop $-1 $236 $93 $225 #
vertex $-1 $94 $237 #
ellipse-curve $-1 21.514996553411521 -48.203393937647334 8.6415724042541662 0 0.64278761758704617 -0.76604443648966558 2 0 0 1 I I #
face $-1 $238 $239 $19 $-1 $240 reversed single #
loop $-1 $241 $242 $95 #
cone-surface $-1 21.514996553411521 -44.144751274581679 3.8046705307982567 0 0.64278761758704617 -0.76604443648966558 1 0 0 1 I I -0.70710678118654746 0.70710678118654746 1 forward I I I I #
loop $-1 $-1 $243 $58 #
coedge $-1 $159 $159 $244 $245 reversed $96 $-1 #
coedge $-1 $160 $160 $-1 $246 forward $98 $-1 #
edge $-1 $247 0 $247 6.2831853071796004 $99 $248 forward 7 unknown #
loop $-1 $249 $101 $250 #
vertex $-1 $102 $251 #
ellipse-curve $-1 29.497607926139708 -48.203393937647334 8.6415724042541662 0 0.64278761758704617 -0.76604443648966558 2 0 0 1 I I #
face $-1 $-1 $118 $15 $-1 $252 reversed single #
loop $-1 $-1 $181 $103 #
plane-surface $-1 0 51.796110065722047 0 0 -1 0 0 0 -1 forward_v I I I I #
coedge $-1 $253 $179 $182 $254 forward $104 $-1 #
coedge $-1 $185 $106 $107 $173 reversed $64 $-1 #
coedge $-1 $179 $253 $106 $171 reversed $104 $-1 #
edge $-1 $186 -11.656219245387977 $255 11.656219245387977 $170 $256 forward 7 unknown #
coedge $-1 $108 $107 $253 $257 forward $41 $-1 #
edge $-1 $177 -76.010620441297647 $255 76.010620441297647 $169 $258 forward 7 unknown #
coedge $-1 $182 $181 $108 $175 reversed $166 $-1 #
edge $-1 $259 -76.010620441297647 $176 76.010620441297647 $174 $260 forward 7 unknown #
vertex $-1 $110 $261 #
vertex $-1 $188 $262 #
straight-curve $-1 76.010620441297647 0 -11.656219245387977 0 -1 0 I I #
coedge $-1 $168 $170 $111 $180 reversed $104 $-1 #
edge $-1 $183 -51.796110065722047 $186 51.796110065722047 $179 $263 forward 7 unknown #
coedge $-1 $174 $112 $117 $189 forward $166 $-1 #
coedge $-1 $112 $174 $168 $254 reversed $166 $-1 #
vertex $-1 $113 $264 #
straight-curve $-1 0 51.796110065722047 11.656219245387977 -1 0 0 I I #
coedge $-1 $114 $169 $116 $188 reversed $64 $-1 #
vertex $-1 $180 $265 #
straight-curve $-1 0 -51.796110065722047 11.656219245387977 1 0 0 I I #
edge $-1 $119 -11.656219245387977 $177 11.656219245387977 $116 $266 forward 7 unknown #
edge $-1 $120 -11.656219245387977 $176 11.656219245387977 $117 $267 forward 7 unknown #
point $-1 76.010620441297647 -51.796110065722047 11.656219245387977 #
point $-1 76.010620441297647 51.796110065722047 11.656219245387977 #
face $-1 $268 $207 $16 $-1 $269 reversed single #
loop $-1 $-1 $270 $122 #
plane-surface $-1 0 0 -11.656219245387977 0 0 1 1 0 0 forward_v I I I I #
coedge $-1 $128 $271 $125 $198 forward $123 $-1 #
coedge $-1 $197 $125 $272 $273 reversed $72 $-1 #
coedge $-1 $125 $196 $126 $200 forward $72 $-1 #
edge $-1 $274 22.960630591913926 $201 30.146062848063352 $195 $275 forward 7 unknown #
coedge $-1 $127 $126 $205 $276 reversed $45 $-1 #
edge $-1 $277 0 $201 9.3799157253540884 $197 $278 forward 7 unknown #
vertex $-1 $129 $279 #
straight-curve $-1 10.757498276705761 -44.610677809572621 11.656219245387977 1 0 0 I I #
vertex $-1 $276 $280 #
straight-curve $-1 34.819348841291841 -51.796110065722047 5.6269255631203521 0 -0.76604443648966558 -0.64278761758704617 I I #
coedge $-1 $272 $131 $199 $276 forward $207 $-1 #
coedge $-1 $131 $281 $133 $210 reversed $207 $-1 #
loop $-1 $-1 $272 $192 #
straight-curve $-1 34.819348841291841 -51.796110065722047 61.040975684743884 0 0 -1 I I #
coedge $-1 $282 $133 $283 $284 forward $123 $-1 #
edge $-1 $135 34.819348841291841 $285 76.010620441297647 $206 $286 forward 7 unknown #
point $-1 34.819348841291841 -44.610677809572621 11.656219245387977 #
point $-1 34.819348841291841 -51.796110065722047 11.656219245387977 #
face $-1 $287 $288 $17 $-1 $289 forward single #
loop $-1 $-1 $290 $137 #
plane-surface $-1 8.2106442655312009 -149.51348131527195 122.08195136948777 1 0 0 0 0.64278761758704617 -0.76604443648966558 forward_v I I I I #
loop $-1 $-1 $291 $79 #
coedge $-1 $218 $140 $292 $293 forward $80 $-1 #
coedge $-1 $140 $217 $294 $295 reversed $80 $-1 #
coedge $-1 $296 $297 $140 $220 forward $288 $-1 #
edge $-1 $298 -30.146062848063352 $299 -22.960630591913926 $219 $300 forward 7 unknown #
edge $-1 $301 1 $301 0 $141 $-1 forward 7 unknown #
vertex $-1 $142 $302 #
ellipse-curve $-1 13.532385180683335 -44.787538892168726 4.5707149672879224 0 -0.64278761758704617 0.76604443648966558 2 0 0 1 I I #
point $-1 15.532385180683335 -48.20339393764732 8.6415724042541537 #
face $-1 $303 $152 $18 $-1 $304 forward single #
loop $-1 $-1 $305 $145 #
plane-surface $-1 34.819348841291841 -149.51348131527195 122.08195136948777 -1 0 0 0 -0.64278761758704617 0.76604443648966558 forward_v I I I I #
loop $-1 $-1 $306 $87 #
coedge $-1 $229 $229 $230 $307 forward $146 $-1 #
coedge $-1 $230 $230 $229 $307 reversed $148 $-1 #
coedge $-1 $231 $231 $149 $232 forward $236 $-1 #
edge $-1 $308 -1.4467024634328154e-015 $308 6.2831853071795987 $231 $309 forward 7 unknown #
edge $-1 $310 1 $310 0 $150 $-1 forward 7 unknown #
vertex $-1 $151 $311 #
ellipse-curve $-1 21.514996553411521 -44.787538892168726 4.5707149672879224 0 -0.64278761758704617 0.76604443648966558 2 0 0 1 I I #
loop $-1 $312 $231 $225 #
point $-1 23.514996553411521 -48.20339393764732 8.6415724042541537 #
face $-1 $313 $314 $19 $-1 $315 reversed single #
loop $-1 $316 $317 $155 #
cone-surface $-1 13.532385180683335 -46.495466414908023 6.6061436857710385 0 0.64278761758704617 -0.76604443648966558 2 0 0 1 I I 0 1 2 forward I I I I #
loop $-1 $-1 $318 $95 #
coedge $-1 $242 $242 $243 $319 forward $156 $-1 #
coedge $-1 $243 $243 $242 $319 reversed $158 $-1 #
coedge $-1 $244 $244 $159 $245 forward $249 $-1 #
edge $-1 $320 -1.4467024634328154e-015 $320 6.2831853071795987 $244 $321 forward 7 unknown #
edge $-1 $322 1 $322 0 $160 $-1 forward 7 unknown #
vertex $-1 $161 $323 #
ellipse-curve $-1 29.497607926139708 -44.787538892168726 4.5707149672879224 0 -0.64278761758704617 0.76604443648966558 2 0 0 1 I I #
loop $-1 $324 $244 $250 #
face $-1 $325 $162 $19 $-1 $326 forward single #
point $-1 31.497607926139708 -48.20339393764732 8.6415724042541537 #
plane-surface $-1 76.010620441297647 0 0 -1 0 0 0 0 1 forward_v I I I I #
coedge $-1 $170 $168 $172 $257 reversed $104 $-1 #
edge $-1 $183 -11.656219245387977 $259 11.656219245387977 $182 $327 forward 7 unknown #
vertex $-1 $257 $328 #
straight-curve $-1 -76.010620441297647 -51.796110065722047 0 0 0 -1 I I #
edge $-1 $255 -51.796110065722047 $259 51.796110065722047 $253 $329 forward 7 unknown #
straight-curve $-1 0 -51.796110065722047 -11.656219245387977 -1 0 0 I I #
vertex $-1 $175 $330 #
straight-curve $-1 0 51.796110065722047 -11.656219245387977 1 0 0 I I #
point $-1 76.010620441297647 51.796110065722047 -11.656219245387977 #
point $-1 76.010620441297647 -51.796110065722047 -11.656219245387977 #
straight-curve $-1 -76.010620441297647 0 11.656219245387977 0 -1 0 I I #
point $-1 -76.010620441297647 51.796110065722047 11.656219245387977 #
point $-1 -76.010620441297647 -51.796110065722047 11.656219245387977 #
straight-curve $-1 76.010620441297647 -51.796110065722047 0 0 0 -1 I I #
straight-curve $-1 76.010620441297647 51.796110065722047 0 0 0 -1 I I #
face $-1 $331 $332 $16 $-1 $333 reversed single #
plane-surface $-1 0 -51.796110065722047 0 0 1 0 0 0 1 forward_v I I I I #
coedge $-1 $334 $335 $336 $337 forward $193 $-1 #
coedge $-1 $195 $338 $339 $340 forward $123 $-1 #
coedge $-1 $339 $205 $196 $273 forward $207 $-1 #
edge $-1 $277 -55.414050121623532 $274 -49.384756439355911 $272 $341 forward 7 unknown #
vertex $-1 $273 $342 #
straight-curve $-1 8.2106442655312009 -74.756740657635973 11.656219245387973 0 1 0 I I #
edge $-1 $203 -24.061850564586081 $277 2.5468540111745597 $205 $343 forward 7 unknown #
vertex $-1 $276 $344 #
straight-curve $-1 8.2106442655312009 -51.796110065722047 5.6269255631203521 0 0.76604443648966558 0.64278761758704617 I I #
point $-1 8.2106442655312009 -44.610677809572621 11.656219245387977 #
point $-1 34.819348841291841 -51.796110065722047 5.6269255631203521 #
coedge $-1 $206 $345 $346 $347 reversed $207 $-1 #
coedge $-1 $338 $209 $348 $349 forward $123 $-1 #
coedge $-1 $346 $350 $209 $284 reversed $351 $-1 #
edge $-1 $285 -51.796110065722047 $352 51.796110065722047 $283 $353 forward 7 unknown #
vertex $-1 $284 $354 #
straight-curve $-1 0 -51.796110065722047 11.656219245387977 1 0 0 I I #
face $-1 $355 $356 $17 $-1 $357 reversed single #
loop $-1 $-1 $358 $213 #
plane-surface $-1 0 0 11.656219245387977 0 0 1 1 0 0 forward_v I I I I #
coedge $-1 $359 $360 $358 $361 reversed $214 $-1 #
coedge $-1 $362 $292 $297 $363 reversed $216 $-1 #
coedge $-1 $291 $364 $217 $293 reversed $216 $-1 #
edge $-1 $298 -9.3799157253540884 $365 0 $217 $366 forward 7 unknown #
coedge $-1 $367 $368 $218 $295 forward $369 $-1 #
edge $-1 $299 49.384756439355911 $365 55.414050121623532 $294 $370 forward 7 unknown #
coedge $-1 $371 $219 $368 $372 forward $288 $-1 #
coedge $-1 $219 $358 $291 $363 forward $288 $-1 #
vertex $-1 $363 $373 #
vertex $-1 $372 $374 #
straight-curve $-1 34.819348841291841 -74.756740657635973 11.656219245387973 0 -1 0 I I #
vertex $-1 $221 $375 #
point $-1 15.532385180683335 -44.787538892168726 4.5707149672879224 #
face $-1 $376 $377 $18 $-1 $378 forward single #
plane-surface $-1 21.514996553411521 -51.796110065722047 5.6269255631203521 0 -0.64278761758704617 0.76604443648966558 1 0 0 forward_v I I I I #
coedge $-1 $379 $380 $381 $382 reversed $226 $-1 #
coedge $-1 $306 $306 $-1 $383 forward $228 $-1 #
edge $-1 $384 0 $384 6.2831853071796004 $229 $385 forward 7 unknown #
vertex $-1 $232 $386 #
ellipse-curve $-1 13.532385180683335 -48.203393937647334 8.6415724042541662 0 0.64278761758704617 -0.76604443648966558 2 0 0 1 I I #
vertex $-1 $233 $387 #
point $-1 23.514996553411521 -44.787538892168726 4.5707149672879224 #
loop $-1 $-1 $388 $225 #
face $-1 $250 $389 $19 $-1 $390 forward single #
loop $-1 $391 $392 $238 #
cone-surface $-1 13.532385180683335 -44.144751274581679 3.8046705307982567 0 0.64278761758704617 -0.76604443648966558 1 0 0 1 I I -0.70710678118654746 0.70710678118654746 1 forward I I I I #
loop $-1 $-1 $393 $155 #
coedge $-1 $317 $317 $394 $395 reversed $239 $-1 #
coedge $-1 $318 $318 $-1 $396 forward $241 $-1 #
edge $-1 $397 0 $397 6.2831853071796004 $242 $398 forward 7 unknown #
vertex $-1 $245 $399 #
ellipse-curve $-1 21.514996553411521 -48.203393937647334 8.6415724042541662 0 0.64278761758704617 -0.76604443648966558 2 0 0 1 I I #
vertex $-1 $246 $400 #
point $-1 31.497607926139708 -44.787538892168726 4.5707149672879224 #
loop $-1 $401 $394 $250 #
face $-1 $402 $403 $19 $-1 $404 forward single #
plane-surface $-1 21.514996553411521 -51.796110065722047 5.6269255631203521 0 -0.64278761758704617 0.76604443648966558 1 0 0 forward_v I I I I #
straight-curve $-1 -76.010620441297647 51.796110065722047 0 0 0 -1 I I #
point $-1 -76.010620441297647 -51.796110065722047 -11.656219245387977 #
straight-curve $-1 -76.010620441297647 0 -11.656219245387977 0 1 0 I I #
point $-1 -76.010620441297647 51.796110065722047 -11.656219245387977 #
face $-1 $405 $406 $16 $-1 $407 reversed single #
loop $-1 $-1 $408 $268 #
plane-surface $-1 -76.010620441297647 0 0 1 0 0 0 0 -1 forward_v I I I I #
coedge $-1 $409 $270 $345 $410 forward $193 $-1 #
coedge $-1 $270 $409 $411 $412 forward $193 $-1 #
coedge $-1 $350 $346 $270 $337 reversed $351 $-1 #
edge $-1 $413 -51.796110065722047 $414 51.796110065722047 $336 $415 forward 7 unknown #
coedge $-1 $271 $282 $416 $417 forward $123 $-1 #
coedge $-1 $418 $272 $271 $340 reversed $207 $-1 #
edge $-1 $419 -76.010620441297647 $274 8.2106442655312009 $339 $286 forward 7 unknown #
straight-curve $-1 8.2106442655312009 -51.796110065722047 61.040975684743884 0 0 1 I I #
point $-1 8.2106442655312009 -51.796110065722047 11.656219245387977 #
straight-curve $-1 10.757498276705761 -51.796110065722047 5.6269255631203521 -1 0 0 I I #
point $-1 8.2106442655312009 -51.796110065722047 5.6269255631203521 #
coedge $-1 $281 $418 $334 $410 reversed $207 $-1 #
coedge $-1 $336 $283 $281 $347 forward $351 $-1 #
edge $-1 $285 -11.656219245387977 $414 11.656219245387977 $346 $420 forward 7 unknown #
coedge $-1 $421 $422 $282 $349 reversed $406 $-1 #
edge $-1 $352 -76.010620441297647 $423 76.010620441297647 $348 $424 forward 7 unknown #
coedge $-1 $283 $336 $421 $425 reversed $351 $-1 #
loop $-1 $-1 $346 $405 #
vertex $-1 $284 $426 #
straight-curve $-1 76.010620441297647 0 11.656219245387977 0 1 0 I I #
point $-1 76.010620441297647 -51.796110065722047 11.656219245387977 #
face $-1 $427 $369 $17 $-1 $428 reversed single #
loop $-1 $-1 $429 $287 #
plane-surface $-1 0 0 -11.656219245387977 0 0 1 1 0 0 forward_v I I I I #
coedge $-1 $297 $430 $290 $361 forward $288 $-1 #
coedge $-1 $360 $290 $431 $432 reversed $214 $-1 #
coedge $-1 $290 $359 $362 $433 forward $214 $-1 #
edge $-1 $434 22.960630591913926 $435 30.146062848063352 $358 $436 forward 7 unknown #
coedge $-1 $364 $291 $360 $433 reversed $216 $-1 #
edge $-1 $435 -2.5468540111745597 $298 24.061850564586081 $297 $437 forward 7 unknown #
coedge $-1 $292 $362 $367 $438 reversed $216 $-1 #
vertex $-1 $438 $439 #
straight-curve $-1 34.819348841291841 -51.796110065722047 5.6269255631203521 0 -0.76604443648966558 -0.64278761758704617 I I #
coedge $-1 $431 $294 $364 $438 forward $369 $-1 #
coedge $-1 $294 $440 $296 $372 reversed $369 $-1 #
loop $-1 $-1 $431 $355 #
straight-curve $-1 34.819348841291841 -51.796110065722047 61.040975684743884 0 0 -1 I I #
coedge $-1 $441 $296 $442 $443 forward $288 $-1 #
edge $-1 $299 34.819348841291841 $444 76.010620441297647 $368 $445 forward 7 unknown #
point $-1 34.819348841291841 -44.610677809572621 11.656219245387977 #
point $-1 34.819348841291841 -51.796110065722047 11.656219245387977 #
point $-1 13.532385180683335 -43.501963656994633 3.038626094308591 #
face $-1 $446 $447 $18 $-1 $448 forward single #
loop $-1 $-1 $449 $303 #
plane-surface $-1 8.2106442655312009 -149.51348131527195 122.08195136948777 1 0 0 0 0.64278761758704617 -0.76604443648966558 forward_v I I I I #
coedge $-1 $380 $305 $450 $451 forward $226 $-1 #
coedge $-1 $305 $379 $452 $453 reversed $226 $-1 #
coedge $-1 $454 $455 $305 $382 forward $447 $-1 #
edge $-1 $456 -30.146062848063352 $457 -22.960630591913926 $381 $458 forward 7 unknown #
edge $-1 $459 1 $459 0 $306 $-1 forward 7 unknown #
vertex $-1 $307 $460 #
ellipse-curve $-1 13.532385180683335 -44.787538892168726 4.5707149672879224 0 -0.64278761758704617 0.76604443648966558 2 0 0 1 I I #
point $-1 15.532385180683335 -48.20339393764732 8.6415724042541537 #
point $-1 21.514996553411521 -43.501963656994633 3.038626094308591 #
coedge $-1 $461 $450 $455 $462 reversed $312 $-1 #
loop $-1 $-1 $463 $313 #
plane-surface $-1 34.819348841291841 -149.51348131527195 122.08195136948777 -1 0 0 0 -0.64278761758704617 0.76604443648966558 forward_v I I I I #
loop $-1 $-1 $464 $238 #
coedge $-1 $392 $392 $393 $465 forward $314 $-1 #
coedge $-1 $393 $393 $392 $465 reversed $316 $-1 #
coedge $-1 $394 $394 $317 $395 forward $324 $-1 #
edge $-1 $466 -1.4467024634328154e-015 $466 6.2831853071795987 $394 $467 forward 7 unknown #
edge $-1 $468 1 $468 0 $318 $-1 forward 7 unknown #
vertex $-1 $319 $469 #
ellipse-curve $-1 21.514996553411521 -44.787538892168726 4.5707149672879224 0 -0.64278761758704617 0.76604443648966558 2 0 0 1 I I #
point $-1 23.514996553411521 -48.20339393764732 8.6415724042541537 #
point $-1 29.497607926139708 -43.501963656994633 3.038626094308591 #
loop $-1 $-1 $470 $250 #
face $-1 $471 $472 $19 $-1 $473 forward single #
loop $-1 $-1 $474 $325 #
plane-surface $-1 8.2106442655312009 -149.51348131527195 122.08195136948777 1 0 0 0 0.64278761758704617 -0.76604443648966558 forward_v I I I I #
face $-1 $-1 $351 $16 $-1 $475 reversed single #
loop $-1 $-1 $421 $331 #
plane-surface $-1 0 51.796110065722047 0 0 -1 0 0 0 -1 forward_v I I I I #
coedge $-1 $476 $416 $422 $477 forward $332 $-1 #
coedge $-1 $335 $334 $476 $478 forward $193 $-1 #
edge $-1 $414 -76.010620441297647 $479 76.010620441297647 $345 $480 forward 7 unknown #
coedge $-1 $422 $421 $335 $412 reversed $406 $-1 #
edge $-1 $481 -76.010620441297647 $413 76.010620441297647 $411 $482 forward 7 unknown #
vertex $-1 $337 $483 #
vertex $-1 $347 $484 #
straight-curve $-1 76.010620441297647 0 -11.656219245387977 0 -1 0 I I #
coedge $-1 $408 $485 $338 $417 reversed $332 $-1 #
edge $-1 $423 -51.796110065722047 $419 51.796110065722047 $416 $486 forward 7 unknown #
coedge $-1 $345 $339 $485 $487 forward $207 $-1 #
vertex $-1 $417 $488 #
straight-curve $-1 76.010620441297647 -51.796110065722047 0 0 0 -1 I I #
coedge $-1 $411 $348 $350 $425 forward $406 $-1 #
coedge $-1 $348 $411 $408 $477 reversed $406 $-1 #
vertex $-1 $349 $489 #
straight-curve $-1 0 51.796110065722047 11.656219245387977 -1 0 0 I I #
edge $-1 $352 -11.656219245387977 $413 11.656219245387977 $350 $490 forward 7 unknown #
point $-1 76.010620441297647 51.796110065722047 11.656219245387977 #
face $-1 $491 $492 $17 $-1 $493 reversed single #
plane-surface $-1 0 -51.796110065722047 0 0 1 0 0 0 1 forward_v I I I I #
coedge $-1 $494 $495 $496 $497 forward $356 $-1 #
coedge $-1 $358 $498 $499 $500 forward $288 $-1 #
coedge $-1 $499 $367 $359 $432 forward $369 $-1 #
edge $-1 $501 -55.414050121623532 $434 -49.384756439355911 $431 $502 forward 7 unknown #
edge $-1 $501 0 $435 9.3799157253540884 $360 $503 forward 7 unknown #
vertex $-1 $432 $504 #
vertex $-1 $363 $505 #
straight-curve $-1 8.2106442655312009 -74.756740657635973 11.656219245387973 0 1 0 I I #
straight-curve $-1 10.757498276705761 -44.610677809572621 11.656219245387977 1 0 0 I I #
edge $-1 $365 -24.061850564586081 $501 2.5468540111745597 $367 $506 forward 7 unknown #
point $-1 34.819348841291841 -51.796110065722047 5.6269255631203521 #
coedge $-1 $368 $507 $508 $509 reversed $369 $-1 #
coedge $-1 $498 $371 $510 $511 forward $288 $-1 #
coedge $-1 $508 $512 $371 $443 reversed $513 $-1 #
edge $-1 $444 -51.796110065722047 $514 51.796110065722047 $442 $515 forward 7 unknown #
vertex $-1 $443 $516 #
straight-curve $-1 0 -51.796110065722047 11.656219245387977 1 0 0 I I #
face $-1 $517 $518 $18 $-1 $519 reversed single #
loop $-1 $-1 $520 $376 #
plane-surface $-1 0 0 11.656219245387977 0 0 1 1 0 0 forward_v I I I I #
coedge $-1 $521 $522 $520 $523 reversed $377 $-1 #
coedge $-1 $388 $524 $379 $451 reversed $312 $-1 #
edge $-1 $456 -9.3799157253540884 $525 0 $379 $526 forward 7 unknown #
coedge $-1 $527 $528 $380 $453 forward $529 $-1 #
edge $-1 $457 49.384756439355911 $525 55.414050121623532 $452 $530 forward 7 unknown #
coedge $-1 $531 $381 $528 $532 forward $447 $-1 #
coedge $-1 $381 $520 $388 $462 forward $447 $-1 #
vertex $-1 $462 $533 #
vertex $-1 $532 $534 #
straight-curve $-1 34.819348841291841 -74.756740657635973 11.656219245387973 0 -1 0 I I #
vertex $-1 $383 $535 #
point $-1 15.532385180683335 -44.787538892168726 4.5707149672879224 #
coedge $-1 $524 $388 $522 $536 reversed $312 $-1 #
edge $-1 $537 -2.5468540111745597 $456 24.061850564586081 $455 $538 forward 7 unknown #
coedge $-1 $539 $540 $541 $542 reversed $389 $-1 #
coedge $-1 $464 $464 $-1 $543 forward $391 $-1 #
edge $-1 $544 0 $544 6.2831853071796004 $392 $545 forward 7 unknown #
vertex $-1 $395 $546 #
ellipse-curve $-1 13.532385180683335 -48.203393937647334 8.6415724042541662 0 0.64278761758704617 -0.76604443648966558 2 0 0 1 I I #
vertex $-1 $396 $547 #
point $-1 23.514996553411521 -44.787538892168726 4.5707149672879224 #
coedge $-1 $548 $549 $550 $551 reversed $401 $-1 #
face $-1 $552 $553 $19 $-1 $554 reversed single #
loop $-1 $-1 $555 $402 #
plane-surface $-1 0 0 11.656219245387977 0 0 1 1 0 0 forward_v I I I I #
coedge $-1 $556 $557 $555 $558 reversed $403 $-1 #
plane-surface $-1 76.010620441297647 0 0 -1 0 0 0 0 1 forward_v I I I I #
coedge $-1 $485 $408 $409 $478 reversed $332 $-1 #
edge $-1 $423 -11.656219245387977 $481 11.656219245387977 $422 $559 forward 7 unknown #
edge $-1 $479 -51.796110065722047 $481 51.796110065722047 $476 $560 forward 7 unknown #
vertex $-1 $478 $561 #
straight-curve $-1 0 -51.796110065722047 -11.656219245387977 -1 0 0 I I #
vertex $-1 $412 $562 #
straight-curve $-1 0 51.796110065722047 -11.656219245387977 1 0 0 I I #
point $-1 76.010620441297647 51.796110065722047 -11.656219245387977 #
point $-1 76.010620441297647 -51.796110065722047 -11.656219245387977 #
coedge $-1 $416 $476 $418 $487 reversed $332 $-1 #
straight-curve $-1 -76.010620441297647 0 11.656219245387977 0 -1 0 I I #
edge $-1 $419 -11.656219245387977 $479 11.656219245387977 $485 $563 forward 7 unknown #
point $-1 -76.010620441297647 -51.796110065722047 11.656219245387977 #
point $-1 -76.010620441297647 51.796110065722047 11.656219245387977 #
straight-curve $-1 76.010620441297647 51.796110065722047 0 0 0 -1 I I #
face $-1 $564 $565 $17 $-1 $566 reversed single #
loop $-1 $-1 $567 $427 #
plane-surface $-1 -76.010620441297647 0 0 1 0 0 0 0 -1 forward_v I I I I #
coedge $-1 $568 $429 $507 $569 forward $356 $-1 #
coedge $-1 $429 $568 $570 $571 forward $356 $-1 #
coedge $-1 $512 $508 $429 $497 reversed $513 $-1 #
edge $-1 $572 -51.796110065722047 $573 51.796110065722047 $496 $574 forward 7 unknown #
coedge $-1 $430 $441 $575 $576 forward $288 $-1 #
coedge $-1 $577 $431 $430 $500 reversed $369 $-1 #
edge $-1 $578 -76.010620441297647 $434 8.2106442655312009 $499 $445 forward 7 unknown #
vertex $-1 $438 $579 #
straight-curve $-1 8.2106442655312009 -51.796110065722047 61.040975684743884 0 0 1 I I #
straight-curve $-1 8.2106442655312009 -51.796110065722047 5.6269255631203521 0 0.76604443648966558 0.64278761758704617 I I #
point $-1 8.2106442655312009 -51.796110065722047 11.656219245387977 #
point $-1 8.2106442655312009 -44.610677809572621 11.656219245387977 #
straight-curve $-1 10.757498276705761 -51.796110065722047 5.6269255631203521 -1 0 0 I I #
coedge $-1 $440 $577 $494 $569 reversed $369 $-1 #
coedge $-1 $496 $442 $440 $509 forward $513 $-1 #
edge $-1 $444 -11.656219245387977 $573 11.656219245387977 $508 $580 forward 7 unknown #
coedge $-1 $581 $582 $441 $511 reversed $565 $-1 #
edge $-1 $514 -76.010620441297647 $583 76.010620441297647 $510 $584 forward 7 unknown #
coedge $-1 $442 $496 $581 $585 reversed $513 $-1 #
loop $-1 $-1 $508 $564 #
vertex $-1 $443 $586 #
straight-curve $-1 76.010620441297647 0 11.656219245387977 0 1 0 I I #
point $-1 76.010620441297647 -51.796110065722047 11.656219245387977 #
face $-1 $587 $529 $18 $-1 $588 reversed single #
loop $-1 $-1 $589 $446 #
plane-surface $-1 0 0 -11.656219245387977 0 0 1 1 0 0 forward_v I I I I #
coedge $-1 $455 $590 $449 $523 forward $447 $-1 #
coedge $-1 $522 $449 $591 $592 reversed $377 $-1 #
coedge $-1 $449 $521 $461 $536 forward $377 $-1 #
edge $-1 $593 22.960630591913926 $537 30.146062848063352 $520 $594 forward 7 unknown #
coedge $-1 $450 $461 $527 $595 reversed $312 $-1 #
vertex $-1 $595 $596 #
straight-curve $-1 34.819348841291841 -51.796110065722047 5.6269255631203521 0 -0.76604443648966558 -0.64278761758704617 I I #
coedge $-1 $591 $452 $524 $595 forward $529 $-1 #
coedge $-1 $452 $597 $454 $532 reversed $529 $-1 #
loop $-1 $-1 $591 $517 #
straight-curve $-1 34.819348841291841 -51.796110065722047 61.040975684743884 0 0 -1 I I #
coedge $-1 $598 $454 $599 $600 forward $447 $-1 #
edge $-1 $457 34.819348841291841 $601 76.010620441297647 $528 $602 forward 7 unknown #
point $-1 34.819348841291841 -44.610677809572621 11.656219245387977 #
point $-1 34.819348841291841 -51.796110065722047 11.656219245387977 #
point $-1 13.532385180683335 -43.501963656994633 3.038626094308591 #
edge $-1 $603 0 $537 9.3799157253540884 $522 $604 forward 7 unknown #
vertex $-1 $462 $605 #
straight-curve $-1 10.757498276705761 -44.610677809572621 11.656219245387977 1 0 0 I I #
coedge $-1 $540 $463 $549 $606 forward $389 $-1 #
coedge $-1 $463 $539 $607 $608 reversed $389 $-1 #
coedge $-1 $609 $550 $463 $542 forward $472 $-1 #
edge $-1 $610 -30.146062848063352 $611 -22.960630591913926 $541 $612 forward 7 unknown #
edge $-1 $613 1 $613 0 $464 $-1 forward 7 unknown #
vertex $-1 $465 $614 #
ellipse-curve $-1 13.532385180683335 -44.787538892168726 4.5707149672879224 0 -0.64278761758704617 0.76604443648966558 2 0 0 1 I I #
point $-1 15.532385180683335 -48.20339393764732 8.6415724042541537 #
point $-1 21.514996553411521 -43.501963656994633 3.038626094308591 #
coedge $-1 $615 $470 $557 $616 reversed $401 $-1 #
coedge $-1 $470 $615 $539 $606 reversed $401 $-1 #
coedge $-1 $541 $555 $470 $551 forward $472 $-1 #
edge $-1 $617 -2.5468540111745597 $610 24.061850564586081 $550 $618 forward 7 unknown #
face $-1 $619 $620 $19 $-1 $621 reversed single #
loop $-1 $-1 $622 $471 #
plane-surface $-1 0 0 -11.656219245387977 0 0 1 1 0 0 forward_v I I I I #
coedge $-1 $550 $623 $474 $558 forward $472 $-1 #
coedge $-1 $557 $474 $624 $625 reversed $403 $-1 #
coedge $-1 $474 $556 $548 $616 forward $403 $-1 #
edge $-1 $626 22.960630591913926 $617 30.146062848063352 $555 $627 forward 7 unknown #
straight-curve $-1 -76.010620441297647 51.796110065722047 0 0 0 -1 I I #
straight-curve $-1 -76.010620441297647 0 -11.656219245387977 0 1 0 I I #
point $-1 -76.010620441297647 -51.796110065722047 -11.656219245387977 #
point $-1 -76.010620441297647 51.796110065722047 -11.656219245387977 #
straight-curve $-1 -76.010620441297647 -51.796110065722047 0 0 0 -1 I I #
face $-1 $-1 $513 $17 $-1 $628 reversed single #
loop $-1 $-1 $581 $491 #
plane-surface $-1 0 51.796110065722047 0 0 -1 0 0 0 -1 forward_v I I I I #
coedge $-1 $629 $575 $582 $630 forward $492 $-1 #
coedge $-1 $495 $494 $629 $631 forward $356 $-1 #
edge $-1 $573 -76.010620441297647 $632 76.010620441297647 $507 $633 forward 7 unknown #
coedge $-1 $582 $581 $495 $571 reversed $565 $-1 #
edge $-1 $634 -76.010620441297647 $572 76.010620441297647 $570 $635 forward 7 unknown #
vertex $-1 $497 $636 #
vertex $-1 $509 $637 #
straight-curve $-1 76.010620441297647 0 -11.656219245387977 0 -1 0 I I #
coedge $-1 $567 $638 $498 $576 reversed $492 $-1 #
edge $-1 $583 -51.796110065722047 $578 51.796110065722047 $575 $639 forward 7 unknown #
coedge $-1 $507 $499 $638 $640 forward $369 $-1 #
vertex $-1 $576 $641 #
point $-1 8.2106442655312009 -51.796110065722047 5.6269255631203521 #
straight-curve $-1 76.010620441297647 -51.796110065722047 0 0 0 -1 I I #
coedge $-1 $570 $510 $512 $585 forward $565 $-1 #
coedge $-1 $510 $570 $567 $630 reversed $565 $-1 #
vertex $-1 $511 $642 #
straight-curve $-1 0 51.796110065722047 11.656219245387977 -1 0 0 I I #
edge $-1 $514 -11.656219245387977 $572 11.656219245387977 $512 $643 forward 7 unknown #
point $-1 76.010620441297647 51.796110065722047 11.656219245387977 #
face $-1 $644 $645 $18 $-1 $646 reversed single #
plane-surface $-1 0 -51.796110065722047 0 0 1 0 0 0 1 forward_v I I I I #
coedge $-1 $647 $648 $649 $650 forward $518 $-1 #
coedge $-1 $520 $651 $652 $653 forward $447 $-1 #
coedge $-1 $652 $527 $521 $592 forward $529 $-1 #
edge $-1 $603 -55.414050121623532 $593 -49.384756439355911 $591 $654 forward 7 unknown #
vertex $-1 $592 $655 #
straight-curve $-1 8.2106442655312009 -74.756740657635973 11.656219245387973 0 1 0 I I #
edge $-1 $525 -24.061850564586081 $603 2.5468540111745597 $527 $656 forward 7 unknown #
point $-1 34.819348841291841 -51.796110065722047 5.6269255631203521 #
coedge $-1 $528 $657 $658 $659 reversed $529 $-1 #
coedge $-1 $651 $531 $660 $661 forward $447 $-1 #
coedge $-1 $658 $662 $531 $600 reversed $663 $-1 #
edge $-1 $601 -51.796110065722047 $664 51.796110065722047 $599 $665 forward 7 unknown #
vertex $-1 $600 $666 #
straight-curve $-1 0 -51.796110065722047 11.656219245387977 1 0 0 I I #
vertex $-1 $595 $667 #
straight-curve $-1 8.2106442655312009 -51.796110065722047 5.6269255631203521 0 0.76604443648966558 0.64278761758704617 I I #
point $-1 8.2106442655312009 -44.610677809572621 11.656219245387977 #
edge $-1 $610 -9.3799157253540884 $668 0 $539 $669 forward 7 unknown #
coedge $-1 $670 $671 $540 $608 forward $620 $-1 #
edge $-1 $611 49.384756439355911 $668 55.414050121623532 $607 $672 forward 7 unknown #
coedge $-1 $673 $541 $671 $674 forward $472 $-1 #
vertex $-1 $551 $675 #
vertex $-1 $674 $676 #
straight-curve $-1 34.819348841291841 -74.756740657635973 11.656219245387973 0 -1 0 I I #
vertex $-1 $543 $677 #
point $-1 15.532385180683335 -44.787538892168726 4.5707149672879224 #
coedge $-1 $549 $548 $670 $678 reversed $401 $-1 #
edge $-1 $679 0 $617 9.3799157253540884 $557 $680 forward 7 unknown #
vertex $-1 $551 $681 #
straight-curve $-1 10.757498276705761 -44.610677809572621 11.656219245387977 1 0 0 I I #
face $-1 $682 $683 $19 $-1 $684 reversed single #
loop $-1 $-1 $624 $552 #
plane-surface $-1 0 -51.796110065722047 0 0 1 0 0 0 1 forward_v I I I I #
coedge $-1 $685 $686 $687 $688 forward $553 $-1 #
coedge $-1 $555 $689 $690 $691 forward $472 $-1 #
coedge $-1 $690 $670 $556 $625 forward $620 $-1 #
edge $-1 $679 -55.414050121623532 $626 -49.384756439355911 $624 $692 forward 7 unknown #
vertex $-1 $625 $693 #
straight-curve $-1 8.2106442655312009 -74.756740657635973 11.656219245387973 0 1 0 I I #
plane-surface $-1 76.010620441297647 0 0 -1 0 0 0 0 1 forward_v I I I I #
coedge $-1 $638 $567 $568 $631 reversed $492 $-1 #
edge $-1 $583 -11.656219245387977 $634 11.656219245387977 $582 $694 forward 7 unknown #
edge $-1 $632 -51.796110065722047 $634 51.796110065722047 $629 $695 forward 7 unknown #
vertex $-1 $631 $696 #
straight-curve $-1 0 -51.796110065722047 -11.656219245387977 -1 0 0 I I #
vertex $-1 $571 $697 #
straight-curve $-1 0 51.796110065722047 -11.656219245387977 1 0 0 I I #
point $-1 76.010620441297647 51.796110065722047 -11.656219245387977 #
point $-1 76.010620441297647 -51.796110065722047 -11.656219245387977 #
coedge $-1 $575 $629 $577 $640 reversed $492 $-1 #
straight-curve $-1 -76.010620441297647 0 11.656219245387977 0 -1 0 I I #
edge $-1 $578 -11.656219245387977 $632 11.656219245387977 $638 $698 forward 7 unknown #
point $-1 -76.010620441297647 -51.796110065722047 11.656219245387977 #
point $-1 -76.010620441297647 51.796110065722047 11.656219245387977 #
straight-curve $-1 76.010620441297647 51.796110065722047 0 0 0 -1 I I #
face $-1 $699 $700 $18 $-1 $701 reversed single #
loop $-1 $-1 $702 $587 #
plane-surface $-1 -76.010620441297647 0 0 1 0 0 0 0 -1 forward_v I I I I #
coedge $-1 $703 $589 $657 $704 forward $518 $-1 #
coedge $-1 $589 $703 $705 $706 forward $518 $-1 #
coedge $-1 $662 $658 $589 $650 reversed $663 $-1 #
edge $-1 $707 -51.796110065722047 $708 51.796110065722047 $649 $709 forward 7 unknown #
coedge $-1 $590 $598 $710 $711 forward $447 $-1 #
coedge $-1 $712 $591 $590 $653 reversed $529 $-1 #
edge $-1 $713 -76.010620441297647 $593 8.2106442655312009 $652 $602 forward 7 unknown #
straight-curve $-1 8.2106442655312009 -51.796110065722047 61.040975684743884 0 0 1 I I #
point $-1 8.2106442655312009 -51.796110065722047 11.656219245387977 #
straight-curve $-1 10.757498276705761 -51.796110065722047 5.6269255631203521 -1 0 0 I I #
coedge $-1 $597 $712 $647 $704 reversed $529 $-1 #
coedge $-1 $649 $599 $597 $659 forward $663 $-1 #
edge $-1 $601 -11.656219245387977 $708 11.656219245387977 $658 $714 forward 7 unknown #
coedge $-1 $715 $716 $598 $661 reversed $700 $-1 #
edge $-1 $664 -76.010620441297647 $717 76.010620441297647 $660 $718 forward 7 unknown #
coedge $-1 $599 $649 $715 $719 reversed $663 $-1 #
loop $-1 $-1 $658 $699 #
vertex $-1 $600 $720 #
straight-curve $-1 76.010620441297647 0 11.656219245387977 0 1 0 I I #
point $-1 76.010620441297647 -51.796110065722047 11.656219245387977 #
point $-1 8.2106442655312009 -51.796110065722047 5.6269255631203521 #
vertex $-1 $678 $721 #
straight-curve $-1 34.819348841291841 -51.796110065722047 5.6269255631203521 0 -0.76604443648966558 -0.64278761758704617 I I #
coedge $-1 $624 $607 $615 $678 forward $620 $-1 #
coedge $-1 $607 $722 $609 $674 reversed $620 $-1 #
straight-curve $-1 34.819348841291841 -51.796110065722047 61.040975684743884 0 0 -1 I I #
coedge $-1 $723 $609 $724 $725 forward $472 $-1 #
edge $-1 $611 34.819348841291841 $726 76.010620441297647 $671 $727 forward 7 unknown #
point $-1 34.819348841291841 -44.610677809572621 11.656219245387977 #
point $-1 34.819348841291841 -51.796110065722047 11.656219245387977 #
point $-1 13.532385180683335 -43.501963656994633 3.038626094308591 #
edge $-1 $668 -24.061850564586081 $679 2.5468540111745597 $670 $728 forward 7 unknown #
vertex $-1 $678 $729 #
straight-curve $-1 8.2106442655312009 -51.796110065722047 5.6269255631203521 0 0.76604443648966558 0.64278761758704617 I I #
point $-1 8.2106442655312009 -44.610677809572621 11.656219245387977 #
face $-1 $730 $731 $19 $-1 $732 reversed single #
loop $-1 $-1 $733 $619 #
plane-surface $-1 -76.010620441297647 0 0 1 0 0 0 0 -1 forward_v I I I I #
coedge $-1 $734 $622 $735 $736 forward $553 $-1 #
coedge $-1 $622 $734 $737 $738 forward $553 $-1 #
coedge $-1 $739 $740 $622 $688 reversed $741 $-1 #
edge $-1 $742 -51.796110065722047 $743 51.796110065722047 $687 $744 forward 7 unknown #
coedge $-1 $623 $723 $745 $746 forward $472 $-1 #
coedge $-1 $747 $624 $623 $691 reversed $620 $-1 #
edge $-1 $748 -76.010620441297647 $626 8.2106442655312009 $690 $727 forward 7 unknown #
straight-curve $-1 8.2106442655312009 -51.796110065722047 61.040975684743884 0 0 1 I I #
point $-1 8.2106442655312009 -51.796110065722047 11.656219245387977 #
straight-curve $-1 -76.010620441297647 51.796110065722047 0 0 0 -1 I I #
straight-curve $-1 -76.010620441297647 0 -11.656219245387977 0 1 0 I I #
point $-1 -76.010620441297647 -51.796110065722047 -11.656219245387977 #
point $-1 -76.010620441297647 51.796110065722047 -11.656219245387977 #
straight-curve $-1 -76.010620441297647 -51.796110065722047 0 0 0 -1 I I #
face $-1 $-1 $663 $18 $-1 $749 reversed single #
loop $-1 $-1 $715 $644 #
plane-surface $-1 0 51.796110065722047 0 0 -1 0 0 0 -1 forward_v I I I I #
coedge $-1 $750 $710 $716 $751 forward $645 $-1 #
coedge $-1 $648 $647 $750 $752 forward $518 $-1 #
edge $-1 $708 -76.010620441297647 $753 76.010620441297647 $657 $754 forward 7 unknown #
coedge $-1 $716 $715 $648 $706 reversed $700 $-1 #
edge $-1 $755 -76.010620441297647 $707 76.010620441297647 $705 $756 forward 7 unknown #
vertex $-1 $650 $757 #
vertex $-1 $659 $758 #
straight-curve $-1 76.010620441297647 0 -11.656219245387977 0 -1 0 I I #
coedge $-1 $702 $759 $651 $711 reversed $645 $-1 #
edge $-1 $717 -51.796110065722047 $713 51.796110065722047 $710 $760 forward 7 unknown #
coedge $-1 $657 $652 $759 $761 forward $529 $-1 #
vertex $-1 $711 $762 #
straight-curve $-1 76.010620441297647 -51.796110065722047 0 0 0 -1 I I #
coedge $-1 $705 $660 $662 $719 forward $700 $-1 #
coedge $-1 $660 $705 $702 $751 reversed $700 $-1 #
vertex $-1 $661 $763 #
straight-curve $-1 0 51.796110065722047 11.656219245387977 -1 0 0 I I #
edge $-1 $664 -11.656219245387977 $707 11.656219245387977 $662 $764 forward 7 unknown #
point $-1 76.010620441297647 51.796110065722047 11.656219245387977 #
point $-1 34.819348841291841 -51.796110065722047 5.6269255631203521 #
coedge $-1 $671 $735 $740 $765 reversed $620 $-1 #
coedge $-1 $689 $673 $766 $767 forward $472 $-1 #
coedge $-1 $740 $739 $673 $725 reversed $741 $-1 #
edge $-1 $726 -51.796110065722047 $768 51.796110065722047 $724 $769 forward 7 unknown #
vertex $-1 $725 $770 #
straight-curve $-1 0 -51.796110065722047 11.656219245387977 1 0 0 I I #
straight-curve $-1 10.757498276705761 -51.796110065722047 5.6269255631203521 -1 0 0 I I #
point $-1 8.2106442655312009 -51.796110065722047 5.6269255631203521 #
face $-1 $-1 $741 $19 $-1 $771 reversed single #
loop $-1 $-1 $772 $682 #
plane-surface $-1 0 51.796110065722047 0 0 -1 0 0 0 -1 forward_v I I I I #
coedge $-1 $773 $745 $774 $775 forward $683 $-1 #
coedge $-1 $686 $685 $773 $776 forward $553 $-1 #
coedge $-1 $722 $747 $685 $736 reversed $620 $-1 #
edge $-1 $743 -76.010620441297647 $777 76.010620441297647 $735 $778 forward 7 unknown #
coedge $-1 $774 $772 $686 $738 reversed $731 $-1 #
edge $-1 $779 -76.010620441297647 $742 76.010620441297647 $737 $780 forward 7 unknown #
coedge $-1 $724 $687 $772 $781 reversed $741 $-1 #
coedge $-1 $687 $724 $722 $765 forward $741 $-1 #
loop $-1 $-1 $740 $730 #
vertex $-1 $688 $782 #
vertex $-1 $765 $783 #
straight-curve $-1 76.010620441297647 0 -11.656219245387977 0 -1 0 I I #
coedge $-1 $733 $784 $689 $746 reversed $683 $-1 #
edge $-1 $785 -51.796110065722047 $748 51.796110065722047 $745 $786 forward 7 unknown #
coedge $-1 $735 $690 $784 $787 forward $620 $-1 #
vertex $-1 $746 $788 #
plane-surface $-1 76.010620441297647 0 0 -1 0 0 0 0 1 forward_v I I I I #
coedge $-1 $759 $702 $703 $752 reversed $645 $-1 #
edge $-1 $717 -11.656219245387977 $755 11.656219245387977 $716 $789 forward 7 unknown #
edge $-1 $753 -51.796110065722047 $755 51.796110065722047 $750 $790 forward 7 unknown #
vertex $-1 $752 $791 #
straight-curve $-1 0 -51.796110065722047 -11.656219245387977 -1 0 0 I I #
vertex $-1 $706 $792 #
straight-curve $-1 0 51.796110065722047 -11.656219245387977 1 0 0 I I #
point $-1 76.010620441297647 51.796110065722047 -11.656219245387977 #
point $-1 76.010620441297647 -51.796110065722047 -11.656219245387977 #
coedge $-1 $710 $750 $712 $761 reversed $645 $-1 #
straight-curve $-1 -76.010620441297647 0 11.656219245387977 0 -1 0 I I #
edge $-1 $713 -11.656219245387977 $753 11.656219245387977 $759 $793 forward 7 unknown #
point $-1 -76.010620441297647 -51.796110065722047 11.656219245387977 #
point $-1 -76.010620441297647 51.796110065722047 11.656219245387977 #
straight-curve $-1 76.010620441297647 51.796110065722047 0 0 0 -1 I I #
edge $-1 $726 -11.656219245387977 $743 11.656219245387977 $740 $794 forward 7 unknown #
coedge $-1 $772 $774 $723 $767 reversed $731 $-1 #
edge $-1 $768 -76.010620441297647 $785 76.010620441297647 $766 $795 forward 7 unknown #
vertex $-1 $725 $796 #
straight-curve $-1 76.010620441297647 0 11.656219245387977 0 1 0 I I #
point $-1 76.010620441297647 -51.796110065722047 11.656219245387977 #
plane-surface $-1 76.010620441297647 0 0 -1 0 0 0 0 1 forward_v I I I I #
coedge $-1 $737 $766 $739 $781 forward $731 $-1 #
coedge $-1 $784 $733 $734 $776 reversed $683 $-1 #
coedge $-1 $766 $737 $733 $775 reversed $731 $-1 #
edge $-1 $785 -11.656219245387977 $779 11.656219245387977 $774 $797 forward 7 unknown #
edge $-1 $777 -51.796110065722047 $779 51.796110065722047 $773 $798 forward 7 unknown #
vertex $-1 $776 $799 #
straight-curve $-1 0 -51.796110065722047 -11.656219245387977 -1 0 0 I I #
vertex $-1 $738 $800 #
straight-curve $-1 0 51.796110065722047 -11.656219245387977 1 0 0 I I #
edge $-1 $768 -11.656219245387977 $742 11.656219245387977 $739 $801 forward 7 unknown #
point $-1 76.010620441297647 51.796110065722047 -11.656219245387977 #
point $-1 76.010620441297647 -51.796110065722047 -11.656219245387977 #
coedge $-1 $745 $773 $747 $787 reversed $683 $-1 #
vertex $-1 $767 $802 #
straight-curve $-1 -76.010620441297647 0 11.656219245387977 0 -1 0 I I #
edge $-1 $748 -11.656219245387977 $777 11.656219245387977 $784 $803 forward 7 unknown #
point $-1 -76.010620441297647 -51.796110065722047 11.656219245387977 #
straight-curve $-1 -76.010620441297647 51.796110065722047 0 0 0 -1 I I #
straight-curve $-1 -76.010620441297647 0 -11.656219245387977 0 1 0 I I #
point $-1 -76.010620441297647 -51.796110065722047 -11.656219245387977 #
point $-1 -76.010620441297647 51.796110065722047 -11.656219245387977 #
straight-curve $-1 -76.010620441297647 -51.796110065722047 0 0 0 -1 I I #
straight-curve $-1 76.010620441297647 -51.796110065722047 0 0 0 -1 I I #
straight-curve $-1 0 51.796110065722047 11.656219245387977 -1 0 0 I I #
point $-1 76.010620441297647 51.796110065722047 11.656219245387977 #
straight-curve $-1 -76.010620441297647 51.796110065722047 0 0 0 -1 I I #
straight-curve $-1 -76.010620441297647 0 -11.656219245387977 0 1 0 I I #
point $-1 -76.010620441297647 -51.796110065722047 -11.656219245387977 #
point $-1 -76.010620441297647 51.796110065722047 -11.656219245387977 #
straight-curve $-1 76.010620441297647 51.796110065722047 0 0 0 -1 I I #
point $-1 -76.010620441297647 51.796110065722047 11.656219245387977 #
straight-curve $-1 -76.010620441297647 -51.796110065722047 0 0 0 -1 I I #
End-of-ACIS-data 