500 0 8 0           
7 Unknown 11 ACIS 5.0 NT 24 Thu Mar 25 23:41:03 1999 
-1 9.9999999999999995e-007 1e-010 
body $-1 $8 $-1 $9 #
body $-1 $10 $-1 $11 #
body $-1 $12 $-1 $13 #
body $-1 $14 $-1 $15 #
body $-1 $16 $-1 $17 #
body $-1 $18 $-1 $19 #
body $-1 $20 $-1 $21 #
body $-1 $22 $-1 $23 #
lump $-1 $-1 $24 $0 #
transform $-1 1 0 0 0 1 0 0 0 1 43.188573870052188 19.382992938572755 6.1550334124315125 1 rotate no_reflect no_shear #
lump $-1 $-1 $25 $1 #
transform $-1 1 0 0 0 1 0 0 0 1 43.188573870052188 19.382992938572755 6.1550334124315125 1 rotate no_reflect no_shear #
lump $-1 $-1 $26 $2 #
transform $-1 1 0 0 0 1 0 0 0 1 43.188573870052188 19.382992938572755 6.1550334124315125 1 rotate no_reflect no_shear #
lump $-1 $-1 $27 $3 #
transform $-1 1 0 0 0 1 0 0 0 1 43.188573870052188 19.382992938572755 6.1550334124315125 1 rotate no_reflect no_shear #
lump $-1 $-1 $28 $4 #
transform $-1 1 0 0 0 1 0 0 0 1 43.188573870052188 19.382992938572755 6.1550334124315125 1 rotate no_reflect no_shear #
lump $-1 $-1 $29 $5 #
transform $-1 1 0 0 0 1 0 0 0 1 43.188573870052188 19.382992938572755 6.1550334124315125 1 rotate no_reflect no_shear #
lump $-1 $-1 $30 $6 #
transform $-1 1 0 0 0 1 0 0 0 1 43.188573870052188 19.382992938572755 6.1550334124315125 1 rotate no_reflect no_shear #
lump $-1 $-1 $31 $7 #
transform $-1 1 0 0 0 1 0 0 0 1 43.188573870052188 19.382992938572755 6.1550334124315125 1 rotate no_reflect no_shear #
shell $-1 $-1 $-1 $32 $-1 $8 #
shell $-1 $-1 $-1 $33 $-1 $10 #
shell $-1 $-1 $-1 $34 $-1 $12 #
shell $-1 $-1 $-1 $35 $-1 $14 #
shell $-1 $-1 $-1 $36 $-1 $16 #
shell $-1 $-1 $-1 $37 $-1 $18 #
shell $-1 $-1 $-1 $38 $-1 $20 #
shell $-1 $-1 $-1 $39 $-1 $22 #
face $-1 $40 $41 $24 $-1 $42 forward single #
face $-1 $43 $44 $25 $-1 $45 reversed single #
face $-1 $46 $47 $26 $-1 $48 reversed single #
face $-1 $49 $50 $27 $-1 $51 forward single #
face $-1 $52 $53 $28 $-1 $54 forward single #
face $-1 $55 $56 $29 $-1 $57 forward single #
face $-1 $58 $59 $30 $-1 $60 reversed single #
face $-1 $61 $62 $31 $-1 $63 forward single #
face $-1 $64 $65 $24 $-1 $66 reversed single #
loop $-1 $-1 $67 $32 #
plane-surface $-1 0 0 6.1550334124315125 0 0 1 1 0 0 forward_v I I I I #
face $-1 $68 $69 $25 $-1 $70 reversed single #
loop $-1 $-1 $71 $33 #
plane-surface $-1 -39.366207393031033 0 3.1550334124315125 0 0 1 1 0 0 forward_v I I I I #
face $-1 $72 $73 $26 $-1 $74 reversed single #
loop $-1 $-1 $75 $34 #
plane-surface $-1 30.814205148488512 46.794440641641984 93.613203606290583 1 0 0 0 -0.6560590369687036 -0.75470957328743171 forward_v I I I I #
face $-1 $76 $77 $27 $-1 $78 forward single #
loop $-1 $79 $80 $35 #
cone-surface $-1 32.767341861736547 17.182915933635542 4.1357129195952389 0 -0.6560590369687036 -0.75470957328743171 0.5 0 0 1 I I 0 1 0.5 forward I I I I #
face $-1 $81 $82 $28 $-1 $83 forward single #
loop $-1 $84 $85 $36 #
cone-surface $-1 35.697046931608604 17.182915933635542 4.1357129195952389 0 -0.6560590369687036 -0.75470957328743171 0.5 0 0 1 I I 0 1 0.5 forward I I I I #
face $-1 $86 $87 $29 $-1 $88 forward single #
loop $-1 $89 $90 $37 #
cone-surface $-1 38.626752001480661 17.182915933635542 4.1357129195952389 0 -0.6560590369687036 -0.75470957328743171 0.5 0 0 1 I I 0 1 0.5 forward I I I I #
face $-1 $91 $92 $30 $-1 $93 reversed single #
loop $-1 $-1 $94 $38 #
plane-surface $-1 19.894693837394403 -93.422660186060142 46.073075425769055 -1 0 0 0 -0.85716730853699208 0.51503806187062418 forward_v I I I I #
face $-1 $95 $96 $31 $-1 $97 forward single #
loop $-1 $98 $99 $39 #
cone-surface $-1 15.387889619935457 -16.863247929436884 3.1811465416172031 0 0.85716730853699208 -0.51503806187062418 1 0 0 1 I I 0 1 1 forward I I I I #
face $-1 $100 $101 $24 $-1 $102 reversed single #
loop $-1 $-1 $103 $40 #
plane-surface $-1 0 0 -6.1550334124315125 0 0 1 1 0 0 forward_v I I I I #
coedge $-1 $104 $105 $106 $107 forward $41 $-1 #
face $-1 $108 $109 $25 $-1 $110 reversed single #
loop $-1 $-1 $111 $43 #
plane-surface $-1 -35.543840916009877 0 4.6550334124315125 -1 0 0 0 0 1 forward_v I I I I #
coedge $-1 $112 $113 $114 $115 forward $44 $-1 #
face $-1 $116 $117 $26 $-1 $118 reversed single #
loop $-1 $-1 $119 $46 #
plane-surface $-1 35.697046931608604 -9.8740677208343257 28.423543293570958 0 0.6560590369687036 0.75470957328743171 1 0 0 forward_v I I I I #
coedge $-1 $120 $121 $122 $123 reversed $47 $-1 #
face $-1 $-1 $124 $27 $-1 $125 forward single #
loop $-1 $126 $127 $49 #
cone-surface $-1 32.767341861736547 16.638859651047859 3.5098477737186133 0 -0.6560590369687036 -0.75470957328743171 0.25 0 0 1 I I -0.70710678118654746 0.70710678118654746 0.25 forward I I I I #
loop $-1 $-1 $128 $35 #
coedge $-1 $80 $80 $129 $130 reversed $50 $-1 #
face $-1 $-1 $131 $28 $-1 $132 forward single #
loop $-1 $133 $134 $52 #
cone-surface $-1 35.697046931608604 16.638859651047859 3.5098477737186133 0 -0.6560590369687036 -0.75470957328743171 0.25 0 0 1 I I -0.70710678118654746 0.70710678118654746 0.25 forward I I I I #
loop $-1 $-1 $135 $36 #
coedge $-1 $85 $85 $136 $137 reversed $53 $-1 #
face $-1 $-1 $138 $29 $-1 $139 forward single #
loop $-1 $140 $141 $55 #
cone-surface $-1 38.626752001480661 16.638859651047859 3.5098477737186133 0 -0.6560590369687036 -0.75470957328743171 0.25 0 0 1 I I -0.70710678118654746 0.70710678118654746 0.25 forward I I I I #
loop $-1 $-1 $142 $37 #
coedge $-1 $90 $90 $143 $144 reversed $56 $-1 #
face $-1 $145 $146 $30 $-1 $147 reversed single #
loop $-1 $-1 $148 $58 #
plane-surface $-1 15.387889619935457 -19.382992938572727 1.5855566637931275 0 -0.85716730853699208 0.51503806187062418 1 0 0 forward_v I I I I #
coedge $-1 $149 $150 $151 $152 reversed $59 $-1 #
face $-1 $-1 $153 $31 $-1 $154 forward single #
loop $-1 $155 $156 $61 #
cone-surface $-1 15.387889619935457 -15.287728532637917 2.2344790141867694 0 0.85716730853699208 -0.51503806187062418 0.5 0 0 1 I I -0.70710678118654746 0.70710678118654746 0.5 forward I I I I #
loop $-1 $-1 $157 $39 #
coedge $-1 $99 $99 $158 $159 reversed $62 $-1 #
face $-1 $160 $161 $24 $-1 $162 reversed single #
loop $-1 $-1 $163 $64 #
plane-surface $-1 0 -19.382992938572755 0 0 1 0 0 0 1 forward_v I I I I #
coedge $-1 $164 $165 $166 $167 forward $65 $-1 #
coedge $-1 $168 $67 $169 $170 forward $41 $-1 #
coedge $-1 $67 $168 $171 $172 forward $41 $-1 #
coedge $-1 $173 $174 $67 $107 reversed $175 $-1 #
edge $-1 $176 -19.382992938572755 $177 19.382992938572755 $106 $178 forward 7 unknown #
face $-1 $179 $180 $25 $-1 $181 reversed single #
loop $-1 $-1 $182 $68 #
plane-surface $-1 0 19.382992938572755 0 0 -1 0 0 0 -1 forward_v I I I I #
coedge $-1 $114 $183 $184 $185 reversed $69 $-1 #
coedge $-1 $186 $71 $187 $188 reversed $44 $-1 #
coedge $-1 $71 $186 $189 $190 reversed $44 $-1 #
coedge $-1 $191 $111 $71 $115 reversed $69 $-1 #
edge $-1 $192 -19.382992938572755 $193 19.382992938572755 $114 $194 forward 7 unknown #
face $-1 $195 $196 $26 $-1 $197 forward single #
loop $-1 $-1 $198 $72 #
plane-surface $-1 40.579888714728696 46.794440641641984 93.613203606290583 -1 0 0 0 0.6560590369687036 0.75470957328743171 forward_v I I I I #
coedge $-1 $199 $200 $201 $202 reversed $73 $-1 #
coedge $-1 $121 $75 $203 $204 reversed $47 $-1 #
coedge $-1 $75 $120 $199 $205 reversed $47 $-1 #
coedge $-1 $201 $206 $75 $123 forward $196 $-1 #
edge $-1 $207 4.0142273822482366 $208 7.6542983454316449 $122 $209 forward 7 unknown #
loop $-1 $-1 $129 $76 #
plane-surface $-1 35.697046931608604 -9.8740677208343257 28.423543293570958 0 0.6560590369687036 0.75470957328743171 1 0 0 forward_v I I I I #
loop $-1 $-1 $210 $49 #
coedge $-1 $127 $127 $128 $211 reversed $77 $-1 #
coedge $-1 $128 $128 $127 $211 forward $79 $-1 #
coedge $-1 $129 $129 $80 $130 forward $124 $-1 #
edge $-1 $212 9.2888147553719372e-016 $212 6.2831853071796013 $129 $213 forward 7 unknown #
loop $-1 $-1 $136 $81 #
plane-surface $-1 35.697046931608604 -9.8740677208343257 28.423543293570958 0 0.6560590369687036 0.75470957328743171 1 0 0 forward_v I I I I #
loop $-1 $-1 $214 $52 #
coedge $-1 $134 $134 $135 $215 reversed $82 $-1 #
coedge $-1 $135 $135 $134 $215 forward $84 $-1 #
coedge $-1 $136 $136 $85 $137 forward $131 $-1 #
edge $-1 $216 9.2888147553719372e-016 $216 6.2831853071796013 $136 $217 forward 7 unknown #
loop $-1 $-1 $143 $86 #
plane-surface $-1 35.697046931608604 -9.8740677208343257 28.423543293570958 0 0.6560590369687036 0.75470957328743171 1 0 0 forward_v I I I I #
loop $-1 $-1 $218 $55 #
coedge $-1 $141 $141 $142 $219 reversed $87 $-1 #
coedge $-1 $142 $142 $141 $219 forward $89 $-1 #
coedge $-1 $143 $143 $90 $144 forward $138 $-1 #
edge $-1 $220 9.2888147553719372e-016 $220 6.2831853071796013 $143 $221 forward 7 unknown #
face $-1 $222 $223 $30 $-1 $224 reversed single #
loop $-1 $-1 $225 $91 #
plane-surface $-1 10.881085402476511 -93.422660186060142 46.073075425769055 1 0 0 0 0.85716730853699208 -0.51503806187062418 forward_v I I I I #
coedge $-1 $226 $227 $228 $229 reversed $92 $-1 #
coedge $-1 $150 $94 $230 $231 reversed $59 $-1 #
coedge $-1 $94 $149 $226 $232 reversed $59 $-1 #
coedge $-1 $228 $233 $94 $152 forward $234 $-1 #
edge $-1 $235 27.328337154457316 $236 30.073955687668157 $151 $237 forward 7 unknown #
loop $-1 $-1 $158 $95 #
plane-surface $-1 15.387889619935457 -19.382992938572727 1.5855566637931275 0 -0.85716730853699208 0.51503806187062418 1 0 0 forward_v I I I I #
loop $-1 $-1 $238 $61 #
coedge $-1 $156 $156 $157 $239 reversed $96 $-1 #
coedge $-1 $157 $157 $156 $239 forward $98 $-1 #
coedge $-1 $158 $158 $99 $159 forward $153 $-1 #
edge $-1 $240 1.3391822118026249e-016 $240 6.2831853071796004 $158 $241 forward 7 unknown #
face $-1 $242 $243 $24 $-1 $244 reversed single #
loop $-1 $-1 $245 $100 #
plane-surface $-1 -43.188573870052188 0 0 1 0 0 0 0 -1 forward_v I I I I #
coedge $-1 $246 $171 $247 $248 forward $101 $-1 #
coedge $-1 $249 $103 $246 $250 forward $65 $-1 #
coedge $-1 $103 $249 $251 $252 forward $65 $-1 #
coedge $-1 $174 $173 $103 $167 reversed $175 $-1 #
edge $-1 $253 -19.382992938572755 $254 19.382992938572755 $166 $255 forward 7 unknown #
coedge $-1 $105 $104 $256 $257 forward $41 $-1 #
coedge $-1 $258 $259 $104 $170 reversed $243 $-1 #
edge $-1 $177 -43.188573870052188 $260 43.188573870052188 $169 $261 forward 7 unknown #
coedge $-1 $163 $262 $105 $172 reversed $101 $-1 #
edge $-1 $263 -43.188573870052188 $176 43.188573870052188 $171 $264 forward 7 unknown #
coedge $-1 $166 $106 $262 $265 forward $175 $-1 #
coedge $-1 $106 $166 $258 $266 reversed $175 $-1 #
loop $-1 $-1 $173 $242 #
vertex $-1 $107 $267 #
vertex $-1 $107 $268 #
straight-curve $-1 43.188573870052188 0 6.1550334124315125 0 1 0 I I #
face $-1 $269 $270 $25 $-1 $271 forward single #
loop $-1 $-1 $272 $108 #
plane-surface $-1 -43.188573870052188 0 0 1 0 0 0 0 -1 forward_v I I I I #
coedge $-1 $189 $273 $191 $274 forward $109 $-1 #
coedge $-1 $111 $191 $275 $276 reversed $69 $-1 #
coedge $-1 $277 $187 $111 $185 forward $278 $-1 #
edge $-1 $193 0.82751670621575624 $279 3.8275167062157562 $184 $280 forward 7 unknown #
coedge $-1 $113 $112 $272 $281 reversed $44 $-1 #
coedge $-1 $184 $282 $112 $188 forward $278 $-1 #
edge $-1 $283 -23.505470173536672 $193 -15.860737219494361 $187 $284 forward 7 unknown #
coedge $-1 $285 $182 $113 $190 forward $109 $-1 #
edge $-1 $192 15.860737219494361 $286 23.505470173536672 $189 $287 forward 7 unknown #
coedge $-1 $183 $114 $182 $274 reversed $69 $-1 #
vertex $-1 $190 $288 #
vertex $-1 $188 $289 #
straight-curve $-1 -35.543840916009877 0 3.1550334124315125 0 -1 0 I I #
face $-1 $-1 $290 $26 $-1 $291 reversed single #
loop $-1 $-1 $122 $116 #
plane-surface $-1 0 0 6.1550334124315125 0 0 1 1 0 0 forward_v I I I I #
coedge $-1 $292 $293 $294 $295 reversed $117 $-1 #
coedge $-1 $296 $119 $121 $205 forward $73 $-1 #
coedge $-1 $119 $296 $292 $297 forward $73 $-1 #
coedge $-1 $294 $122 $119 $202 forward $196 $-1 #
edge $-1 $208 12.96568168268421 $298 22.731365248924394 $201 $299 forward 7 unknown #
coedge $-1 $300 $301 $120 $204 forward $290 $-1 #
edge $-1 $302 -43.815833871276773 $207 -40.651568390713777 $203 $303 forward 7 unknown #
edge $-1 $208 33.942844509893902 $302 38.765985877145496 $121 $304 forward 7 unknown #
coedge $-1 $122 $294 $300 $305 forward $196 $-1 #
vertex $-1 $204 $306 #
vertex $-1 $123 $307 #
straight-curve $-1 30.814205148488512 23.397220320820992 6.1550334124315143 0 -1 0 I I #
coedge $-1 $210 $210 $-1 $308 reversed $126 $-1 #
edge $-1 $309 0 $309 6.2831853071796004 $127 $310 forward 7 unknown #
vertex $-1 $130 $311 #
ellipse-curve $-1 32.767341861736547 17.562957456981056 4.5729006721500154 0 0.6560590369687036 0.75470957328743171 0.5 0 0 1 I I #
coedge $-1 $214 $214 $-1 $312 reversed $133 $-1 #
edge $-1 $313 0 $313 6.2831853071796004 $134 $314 forward 7 unknown #
vertex $-1 $137 $315 #
ellipse-curve $-1 35.697046931608604 17.562957456981056 4.5729006721500154 0 0.6560590369687036 0.75470957328743171 0.5 0 0 1 I I #
coedge $-1 $218 $218 $-1 $316 reversed $140 $-1 #
edge $-1 $317 0 $317 6.2831853071796004 $141 $318 forward 7 unknown #
vertex $-1 $144 $319 #
ellipse-curve $-1 38.626752001480661 17.562957456981056 4.5729006721500154 0 0.6560590369687036 0.75470957328743171 0.5 0 0 1 I I #
face $-1 $-1 $234 $30 $-1 $320 forward single #
loop $-1 $-1 $321 $145 #
plane-surface $-1 0 -19.382992938572755 0 0 1 0 0 0 1 forward_v I I I I #
coedge $-1 $322 $323 $324 $325 reversed $146 $-1 #
coedge $-1 $326 $148 $150 $232 forward $92 $-1 #
coedge $-1 $148 $326 $322 $327 forward $92 $-1 #
coedge $-1 $324 $151 $148 $229 forward $234 $-1 #
edge $-1 $236 -12.200749027426674 $328 -3.1871405925087828 $228 $329 forward 7 unknown #
coedge $-1 $330 $331 $149 $231 forward $223 $-1 #
edge $-1 $332 -21.450981049091446 $235 -16.881504300453017 $230 $333 forward 7 unknown #
edge $-1 $236 -5.3309041340336947 $332 5.5178419308758838e-014 $150 $334 forward 7 unknown #
coedge $-1 $151 $324 $330 $335 forward $234 $-1 #
loop $-1 $-1 $324 $222 #
vertex $-1 $231 $336 #
vertex $-1 $152 $337 #
straight-curve $-1 19.894693837394403 -46.711330093030071 6.1550334124315143 0 1 0 I I #
coedge $-1 $238 $238 $-1 $338 reversed $155 $-1 #
edge $-1 $339 0 $339 6.2831853071796004 $156 $340 forward 7 unknown #
vertex $-1 $159 $341 #
ellipse-curve $-1 15.387889619935457 -18.010183671967326 3.8702950381123093 0 -0.85716730853699208 0.51503806187062418 1 0 0 1 I I #
face $-1 $-1 $175 $24 $-1 $342 reversed single #
loop $-1 $-1 $258 $160 #
plane-surface $-1 0 19.382992938572755 0 0 -1 0 0 0 -1 forward_v I I I I #
coedge $-1 $343 $256 $259 $344 forward $161 $-1 #
coedge $-1 $262 $163 $164 $250 reversed $101 $-1 #
coedge $-1 $256 $343 $163 $248 reversed $161 $-1 #
edge $-1 $263 -6.1550334124315125 $345 6.1550334124315125 $247 $346 forward 7 unknown #
coedge $-1 $165 $164 $343 $347 forward $65 $-1 #
edge $-1 $254 -43.188573870052188 $345 43.188573870052188 $246 $348 forward 7 unknown #
coedge $-1 $259 $258 $165 $252 reversed $243 $-1 #
edge $-1 $349 -43.188573870052188 $253 43.188573870052188 $251 $350 forward 7 unknown #
vertex $-1 $167 $351 #
vertex $-1 $265 $352 #
straight-curve $-1 43.188573870052188 0 -6.1550334124315125 0 -1 0 I I #
coedge $-1 $245 $247 $168 $257 reversed $161 $-1 #
edge $-1 $260 -19.382992938572755 $263 19.382992938572755 $256 $353 forward 7 unknown #
coedge $-1 $251 $169 $174 $266 forward $243 $-1 #
coedge $-1 $169 $251 $245 $344 reversed $243 $-1 #
vertex $-1 $170 $354 #
straight-curve $-1 0 19.382992938572755 6.1550334124315125 -1 0 0 I I #
coedge $-1 $171 $246 $173 $265 reversed $101 $-1 #
vertex $-1 $257 $355 #
straight-curve $-1 0 -19.382992938572755 6.1550334124315125 1 0 0 I I #
edge $-1 $176 -6.1550334124315125 $254 6.1550334124315125 $173 $356 forward 7 unknown #
edge $-1 $177 -6.1550334124315125 $253 6.1550334124315125 $174 $357 forward 7 unknown #
point $-1 43.188573870052188 -19.382992938572755 6.1550334124315125 #
point $-1 43.188573870052188 19.382992938572755 6.1550334124315125 #
face $-1 $-1 $278 $25 $-1 $358 reversed single #
loop $-1 $-1 $275 $179 #
plane-surface $-1 0 0 6.1550334124315125 0 0 1 1 0 0 forward_v I I I I #
coedge $-1 $359 $360 $186 $281 forward $180 $-1 #
coedge $-1 $182 $285 $361 $362 reversed $109 $-1 #
edge $-1 $363 -3.8275167062157562 $192 -0.82751670621575624 $182 $364 forward 7 unknown #
coedge $-1 $361 $365 $183 $276 forward $270 $-1 #
edge $-1 $279 -19.382992938572755 $363 19.382992938572755 $275 $366 forward 7 unknown #
coedge $-1 $282 $184 $365 $367 reversed $278 $-1 #
loop $-1 $-1 $184 $269 #
vertex $-1 $185 $368 #
straight-curve $-1 -35.543840916009877 -19.382992938572755 2.3275167062157562 0 0 1 I I #
edge $-1 $286 -19.382992938572755 $283 19.382992938572755 $272 $369 forward 7 unknown #
coedge $-1 $187 $277 $359 $370 forward $278 $-1 #
vertex $-1 $281 $371 #
straight-curve $-1 -19.683103696515516 -19.382992938572755 3.1550334124315125 1 0 0 I I #
coedge $-1 $273 $189 $360 $372 reversed $109 $-1 #
vertex $-1 $281 $373 #
straight-curve $-1 -19.683103696515516 19.382992938572755 3.1550334124315125 -1 0 0 I I #
point $-1 -35.543840916009877 19.382992938572755 3.1550334124315125 #
point $-1 -35.543840916009877 -19.382992938572755 3.1550334124315125 #
loop $-1 $-1 $203 $195 #
plane-surface $-1 0 19.382992938572755 0 0 -1 0 0 0 -1 forward_v I I I I #
coedge $-1 $293 $198 $200 $297 reversed $117 $-1 #
coedge $-1 $198 $292 $374 $375 reversed $117 $-1 #
coedge $-1 $206 $201 $198 $295 forward $196 $-1 #
edge $-1 $298 -7.6542983454316449 $376 -4.0142273822482366 $294 $377 forward 7 unknown #
coedge $-1 $200 $199 $301 $378 reversed $73 $-1 #
edge $-1 $379 -38.765985877145496 $298 -33.942844509893902 $292 $380 forward 7 unknown #
vertex $-1 $202 $381 #
straight-curve $-1 17.848523465804302 15.742921975389343 6.155033412431516 1 0 0 I I #
coedge $-1 $374 $203 $206 $305 reversed $290 $-1 #
coedge $-1 $203 $374 $296 $378 forward $290 $-1 #
vertex $-1 $204 $382 #
straight-curve $-1 30.814205148488512 19.382992938572755 46.806601803145291 0 0 1 I I #
straight-curve $-1 30.814205148488512 -9.8740677208343257 28.423543293570958 0 0.75470957328743171 -0.6560590369687036 I I #
edge $-1 $376 -40.579888714728696 $207 -30.814205148488512 $300 $383 forward 7 unknown #
point $-1 30.814205148488512 19.382992938572755 6.1550334124315125 #
point $-1 30.814205148488512 15.742921975389347 6.1550334124315178 #
edge $-1 $384 1 $384 0 $210 $-1 forward 7 unknown #
vertex $-1 $211 $385 #
ellipse-curve $-1 32.767341861736547 16.802874410290034 3.6985251670404713 0 0.6560590369687036 0.75470957328743171 0.5 0 0 1 I I #
point $-1 33.267341861736547 17.562957456981049 4.5729006721500065 #
edge $-1 $386 1 $386 0 $214 $-1 forward 7 unknown #
vertex $-1 $215 $387 #
ellipse-curve $-1 35.697046931608604 16.802874410290034 3.6985251670404713 0 0.6560590369687036 0.75470957328743171 0.5 0 0 1 I I #
point $-1 36.197046931608604 17.562957456981049 4.5729006721500065 #
edge $-1 $388 1 $388 0 $218 $-1 forward 7 unknown #
vertex $-1 $219 $389 #
ellipse-curve $-1 38.626752001480661 16.802874410290034 3.6985251670404713 0 0.6560590369687036 0.75470957328743171 0.5 0 0 1 I I #
point $-1 39.126752001480661 17.562957456981049 4.5729006721500065 #
plane-surface $-1 0 0 6.1550334124315125 0 0 1 1 0 0 forward_v I I I I #
coedge $-1 $331 $330 $323 $390 forward $223 $-1 #
coedge $-1 $323 $225 $227 $327 reversed $146 $-1 #
coedge $-1 $225 $322 $321 $390 reversed $146 $-1 #
coedge $-1 $233 $228 $225 $325 forward $234 $-1 #
edge $-1 $328 -30.073955687668157 $391 -27.328337154457316 $324 $392 forward 7 unknown #
coedge $-1 $227 $226 $331 $393 reversed $92 $-1 #
edge $-1 $394 -5.5178419308758838e-014 $328 5.3309041340336947 $322 $395 forward 7 unknown #
vertex $-1 $229 $396 #
straight-curve $-1 7.6939448099677286 -16.637374405361914 6.1550334124315125 -1 0 0 I I #
coedge $-1 $321 $230 $233 $335 reversed $223 $-1 #
coedge $-1 $230 $321 $326 $393 forward $223 $-1 #
vertex $-1 $231 $397 #
straight-curve $-1 19.894693837394403 -19.382992938572755 23.036537712884527 0 0 1 I I #
straight-curve $-1 19.894693837394403 -19.382992938572727 1.5855566637931275 0 -0.51503806187062418 -0.85716730853699208 I I #
edge $-1 $391 10.881085402476511 $235 19.894693837394403 $330 $398 forward 7 unknown #
point $-1 19.894693837394403 -19.382992938572755 6.1550334124315125 #
point $-1 19.894693837394403 -16.637374405361914 6.1550334124315125 #
edge $-1 $399 1 $399 0 $238 $-1 forward 7 unknown #
vertex $-1 $239 $400 #
ellipse-curve $-1 15.387889619935457 -15.716312186906414 2.4919980451220813 0 -0.85716730853699208 0.51503806187062418 1 0 0 1 I I #
point $-1 16.387889619935457 -18.010183671967351 3.8702950381123244 #
plane-surface $-1 43.188573870052188 0 0 -1 0 0 0 0 1 forward_v I I I I #
coedge $-1 $247 $245 $249 $347 reversed $161 $-1 #
edge $-1 $260 -6.1550334124315125 $349 6.1550334124315125 $259 $401 forward 7 unknown #
vertex $-1 $347 $402 #
straight-curve $-1 -43.188573870052188 -19.382992938572755 0 0 0 -1 I I #
edge $-1 $345 -19.382992938572755 $349 19.382992938572755 $343 $403 forward 7 unknown #
straight-curve $-1 0 -19.382992938572755 -6.1550334124315125 -1 0 0 I I #
vertex $-1 $252 $404 #
straight-curve $-1 0 19.382992938572755 -6.1550334124315125 1 0 0 I I #
point $-1 43.188573870052188 19.382992938572755 -6.1550334124315125 #
point $-1 43.188573870052188 -19.382992938572755 -6.1550334124315125 #
straight-curve $-1 -43.188573870052188 0 6.1550334124315125 0 -1 0 I I #
point $-1 -43.188573870052188 19.382992938572755 6.1550334124315125 #
point $-1 -43.188573870052188 -19.382992938572755 6.1550334124315125 #
straight-curve $-1 43.188573870052188 -19.382992938572755 0 0 0 -1 I I #
straight-curve $-1 43.188573870052188 19.382992938572755 0 0 0 -1 I I #
plane-surface $-1 0 -19.382992938572755 0 0 1 0 0 0 1 forward_v I I I I #
coedge $-1 $405 $272 $282 $370 reversed $180 $-1 #
coedge $-1 $272 $405 $285 $372 forward $180 $-1 #
coedge $-1 $406 $275 $273 $362 forward $270 $-1 #
edge $-1 $363 35.543840916009877 $407 43.188573870052188 $273 $408 forward 7 unknown #
vertex $-1 $362 $409 #
straight-curve $-1 -35.543840916009877 19.382992938572755 2.3275167062157562 0 0 -1 I I #
coedge $-1 $275 $406 $277 $367 forward $270 $-1 #
straight-curve $-1 -35.543840916009877 0 6.1550334124315125 0 1 0 I I #
edge $-1 $410 -43.188573870052188 $279 -35.543840916009877 $277 $411 forward 7 unknown #
point $-1 -35.543840916009877 -19.382992938572755 6.1550334124315125 #
straight-curve $-1 -43.188573870052188 0 3.1550334124315125 0 -1 0 I I #
edge $-1 $410 -6.1550334124315125 $283 -3.1550334124315125 $359 $412 forward 7 unknown #
point $-1 -43.188573870052188 -19.382992938572755 3.1550334124315125 #
edge $-1 $407 -6.1550334124315125 $286 -3.1550334124315125 $285 $413 forward 7 unknown #
point $-1 -43.188573870052188 19.382992938572755 3.1550334124315125 #
coedge $-1 $301 $300 $293 $375 forward $290 $-1 #
edge $-1 $376 40.651568390713777 $379 43.815833871276773 $374 $414 forward 7 unknown #
vertex $-1 $305 $415 #
straight-curve $-1 40.579888714728696 23.397220320820992 6.1550334124315143 0 1 0 I I #
edge $-1 $379 -22.731365248924394 $302 -12.96568168268421 $301 $416 forward 7 unknown #
vertex $-1 $378 $417 #
straight-curve $-1 40.579888714728696 -9.8740677208343257 28.423543293570958 0 -0.75470957328743171 0.6560590369687036 I I #
point $-1 40.579888714728696 15.742921975389347 6.1550334124315178 #
point $-1 30.814205148488512 19.382992938572755 2.9907679318685183 #
straight-curve $-1 0 19.382992938572755 6.1550334124315125 -1 0 0 I I #
vertex $-1 $308 $418 #
point $-1 33.267341861736547 16.802874410290034 3.6985251670404713 #
vertex $-1 $312 $419 #
point $-1 36.197046931608604 16.802874410290034 3.6985251670404713 #
vertex $-1 $316 $420 #
point $-1 39.126752001480661 16.802874410290034 3.6985251670404713 #
edge $-1 $391 16.881504300453017 $394 21.450981049091446 $321 $421 forward 7 unknown #
vertex $-1 $335 $422 #
straight-curve $-1 10.881085402476511 -46.711330093030071 6.1550334124315143 0 -1 0 I I #
edge $-1 $394 3.1871405925087828 $332 12.200749027426674 $331 $423 forward 7 unknown #
vertex $-1 $393 $424 #
straight-curve $-1 10.881085402476511 -19.382992938572727 1.5855566637931275 0 0.51503806187062418 0.85716730853699208 I I #
point $-1 10.881085402476511 -16.637374405361914 6.1550334124315125 #
point $-1 19.894693837394403 -19.382992938572755 1.5855566637930802 #
straight-curve $-1 0 -19.382992938572755 6.1550334124315125 1 0 0 I I #
vertex $-1 $338 $425 #
point $-1 16.387889619935457 -15.716312186906414 2.4919980451220813 #
straight-curve $-1 -43.188573870052188 19.382992938572755 0 0 0 -1 I I #
point $-1 -43.188573870052188 -19.382992938572755 -6.1550334124315125 #
straight-curve $-1 -43.188573870052188 0 -6.1550334124315125 0 1 0 I I #
point $-1 -43.188573870052188 19.382992938572755 -6.1550334124315125 #
coedge $-1 $360 $359 $406 $426 reversed $180 $-1 #
coedge $-1 $365 $361 $405 $426 forward $270 $-1 #
vertex $-1 $362 $427 #
straight-curve $-1 0 19.382992938572755 6.1550334124315125 -1 0 0 I I #
point $-1 -35.543840916009877 19.382992938572755 6.1550334124315125 #
vertex $-1 $426 $428 #
straight-curve $-1 0 -19.382992938572755 6.1550334124315125 1 0 0 I I #
straight-curve $-1 -43.188573870052188 -19.382992938572755 0 0 0 -1 I I #
straight-curve $-1 -43.188573870052188 19.382992938572755 0 0 0 -1 I I #
straight-curve $-1 40.579888714728696 19.382992938572755 46.806601803145291 0 0 -1 I I #
point $-1 40.579888714728696 19.382992938572755 6.1550334124315125 #
straight-curve $-1 17.848523465804302 19.382992938572755 2.9907679318685219 -1 0 0 I I #
point $-1 40.579888714728696 19.382992938572755 2.9907679318685183 #
point $-1 32.767341861736547 16.474844891805684 3.3211703803967554 #
point $-1 35.697046931608604 16.474844891805684 3.3211703803967554 #
point $-1 38.626752001480661 16.474844891805684 3.3211703803967554 #
straight-curve $-1 10.881085402476511 -19.382992938572755 23.036537712884527 0 0 -1 I I #
point $-1 10.881085402476511 -19.382992938572755 6.1550334124315125 #
straight-curve $-1 7.6939448099677286 -19.382992938572755 1.5855566637930827 1 0 0 I I #
point $-1 10.881085402476511 -19.382992938572755 1.5855566637930802 #
point $-1 15.387889619935457 -14.85914487836942 1.9769599832514573 #
edge $-1 $407 -19.382992938572755 $410 19.382992938572755 $405 $429 forward 7 unknown #
point $-1 -43.188573870052188 19.382992938572755 6.1550334124315125 #
point $-1 -43.188573870052188 -19.382992938572755 6.1550334124315125 #
straight-curve $-1 -43.188573870052188 0 6.1550334124315125 0 -1 0 I I #
End-of-ACIS-data 