500 0 9 0           
7 Unknown 11 ACIS 5.0 NT 24 Fri Mar 26 00:14:57 1999 
-1 9.9999999999999995e-007 1e-010 
body $-1 $9 $-1 $10 #
body $-1 $11 $-1 $12 #
body $-1 $13 $-1 $14 #
body $-1 $15 $-1 $16 #
body $-1 $17 $-1 $18 #
body $-1 $19 $-1 $20 #
body $-1 $21 $-1 $22 #
body $-1 $23 $-1 $24 #
body $-1 $25 $-1 $26 #
lump $-1 $-1 $27 $0 #
transform $-1 1 0 0 0 1 0 0 0 1 40.700704977568897 18.367424377386062 6.3271116036655002 1 rotate no_reflect no_shear #
lump $-1 $-1 $28 $1 #
transform $-1 1 0 0 0 1 0 0 0 1 40.700704977568897 18.367424377386062 6.3271116036655002 1 rotate no_reflect no_shear #
lump $-1 $-1 $29 $2 #
transform $-1 1 0 0 0 1 0 0 0 1 40.700704977568897 18.367424377386062 6.3271116036655002 1 rotate no_reflect no_shear #
lump $-1 $-1 $30 $3 #
transform $-1 1 0 0 0 1 0 0 0 1 40.700704977568897 18.367424377386062 6.3271116036655002 1 rotate no_reflect no_shear #
lump $-1 $-1 $31 $4 #
transform $-1 1 0 0 0 1 0 0 0 1 40.700704977568897 18.367424377386062 6.3271116036655002 1 rotate no_reflect no_shear #
lump $-1 $-1 $32 $5 #
transform $-1 1 0 0 0 1 0 0 0 1 40.700704977568897 18.367424377386062 6.3271116036655002 1 rotate no_reflect no_shear #
lump $-1 $-1 $33 $6 #
transform $-1 1 0 0 0 1 0 0 0 1 40.700704977568897 18.367424377386062 6.3271116036655002 1 rotate no_reflect no_shear #
lump $-1 $-1 $34 $7 #
transform $-1 1 0 0 0 1 0 0 0 1 40.700704977568897 18.367424377386062 6.3271116036655002 1 rotate no_reflect no_shear #
lump $-1 $-1 $35 $8 #
transform $-1 1 0 0 0 1 0 0 0 1 40.700704977568897 18.367424377386062 6.3271116036655002 1 rotate no_reflect no_shear #
shell $-1 $-1 $-1 $36 $-1 $9 #
shell $-1 $-1 $-1 $37 $-1 $11 #
shell $-1 $-1 $-1 $38 $-1 $13 #
shell $-1 $-1 $-1 $39 $-1 $15 #
shell $-1 $-1 $-1 $40 $-1 $17 #
shell $-1 $-1 $-1 $41 $-1 $19 #
shell $-1 $-1 $-1 $42 $-1 $21 #
shell $-1 $-1 $-1 $43 $-1 $23 #
shell $-1 $-1 $-1 $44 $-1 $25 #
face $-1 $45 $46 $27 $-1 $47 forward single #
face $-1 $48 $49 $28 $-1 $50 forward single #
face $-1 $51 $52 $29 $-1 $53 forward single #
face $-1 $54 $55 $30 $-1 $56 reversed single #
face $-1 $57 $58 $31 $-1 $59 forward single #
face $-1 $60 $61 $32 $-1 $62 forward single #
face $-1 $63 $64 $33 $-1 $65 reversed single #
face $-1 $66 $67 $34 $-1 $68 forward single #
face $-1 $69 $70 $35 $-1 $71 forward single #
face $-1 $72 $73 $27 $-1 $74 reversed single #
loop $-1 $-1 $75 $36 #
plane-surface $-1 0 0 6.3271116036655002 0 0 1 1 0 0 forward_v I I I I #
face $-1 $76 $77 $28 $-1 $78 reversed single #
loop $-1 $-1 $79 $37 #
plane-surface $-1 0 -18.367424377386062 0 0 1 0 0 0 1 forward_v I I I I #
face $-1 $80 $81 $29 $-1 $82 reversed single #
loop $-1 $-1 $83 $38 #
plane-surface $-1 0 18.367424377386062 0 0 -1 0 0 0 -1 forward_v I I I I #
face $-1 $84 $85 $30 $-1 $86 reversed single #
loop $-1 $-1 $87 $39 #
plane-surface $-1 70.495690645236692 -4.6558021233435989 111.2780303852106 0 -1 0 -0.86602541151947299 0 -0.49999998660252726 forward_v I I I I #
face $-1 $88 $89 $31 $-1 $90 forward single #
loop $-1 $91 $92 $40 #
cone-surface $-1 38.464779098104167 -9.1078113954670172 2.9543742803071482 -0.86602541151947299 0 -0.49999998660252726 0.12499999665063181 0 -0.21650635287986825 1 I I 0 1 0.25 forward I I I I #
face $-1 $93 $94 $32 $-1 $95 forward single #
loop $-1 $96 $97 $41 #
cone-surface $-1 38.464779098104167 -6.4366058321929671 2.9543742803071482 -0.86602541151947299 0 -0.49999998660252726 0.12499999665063181 0 -0.21650635287986825 1 I I 0 1 0.25 forward I I I I #
face $-1 $98 $99 $33 $-1 $100 reversed single #
loop $-1 $-1 $101 $42 #
plane-surface $-1 -111.19639453223243 -10.888615104316386 40.782340830547078 0 1 0 -0.86602541151947299 0 0.49999998660252726 forward_v I I I I #
face $-1 $102 $103 $34 $-1 $104 forward single #
loop $-1 $105 $106 $43 #
cone-surface $-1 -38.46477909810416 -9.1078113954670172 2.9543742803071606 0.86602541151947299 0 -0.49999998660252726 0.12499999665063181 0 0.21650635287986825 1 I I 0 1 0.25 forward I I I I #
face $-1 $107 $108 $35 $-1 $109 forward single #
loop $-1 $110 $111 $44 #
cone-surface $-1 -38.46477909810416 -6.4366058321929671 2.9543742803071606 0.86602541151947299 0 -0.49999998660252726 0.12499999665063181 0 0.21650635287986825 1 I I 0 1 0.25 forward I I I I #
face $-1 $112 $113 $27 $-1 $114 reversed single #
loop $-1 $-1 $115 $45 #
plane-surface $-1 0 0 -6.3271116036655002 0 0 1 1 0 0 forward_v I I I I #
coedge $-1 $116 $117 $118 $119 forward $46 $-1 #
face $-1 $120 $121 $28 $-1 $122 forward single #
loop $-1 $-1 $123 $48 #
plane-surface $-1 -40.700704977568897 0 0 1 0 0 0 0 -1 forward_v I I I I #
coedge $-1 $124 $125 $126 $127 forward $49 $-1 #
face $-1 $128 $129 $29 $-1 $130 forward single #
loop $-1 $-1 $131 $51 #
plane-surface $-1 40.700704977568897 0 0 -1 0 0 0 0 1 forward_v I I I I #
coedge $-1 $132 $133 $134 $135 forward $52 $-1 #
face $-1 $136 $137 $30 $-1 $138 reversed single #
loop $-1 $-1 $139 $54 #
plane-surface $-1 1.090573164219677e-006 -7.7722086138299922 70.577326498214873 0.86602541151947299 0 0.49999998660252726 0.49999998660252726 0 -0.86602541151947299 forward_v I I I I #
coedge $-1 $140 $141 $142 $143 reversed $55 $-1 #
face $-1 $-1 $144 $31 $-1 $145 forward single #
loop $-1 $146 $147 $57 #
cone-surface $-1 37.923513215904499 -9.1078113954670172 2.6418742886805688 -0.86602541151947299 0 -0.49999998660252726 0.062499998325315907 0 -0.10825317643993412 1 I I -0.70710678118654746 0.70710678118654746 0.125 forward I I I I #
loop $-1 $-1 $148 $40 #
coedge $-1 $92 $92 $149 $150 reversed $58 $-1 #
face $-1 $-1 $151 $32 $-1 $152 forward single #
loop $-1 $153 $154 $60 #
cone-surface $-1 37.923513215904499 -6.4366058321929671 2.6418742886805688 -0.86602541151947299 0 -0.49999998660252726 0.062499998325315907 0 -0.10825317643993412 1 I I -0.70710678118654746 0.70710678118654746 0.125 forward I I I I #
loop $-1 $-1 $155 $41 #
coedge $-1 $97 $97 $156 $157 reversed $61 $-1 #
face $-1 $158 $159 $33 $-1 $160 reversed single #
loop $-1 $-1 $161 $63 #
plane-surface $-1 -40.700704977568904 -7.7722086138299922 0.081636943551352203 -0.86602541151947299 0 0.49999998660252726 0.49999998660252726 0 0.86602541151947299 forward_v I I I I #
coedge $-1 $162 $163 $164 $165 reversed $64 $-1 #
face $-1 $-1 $166 $34 $-1 $167 forward single #
loop $-1 $168 $169 $66 #
cone-surface $-1 -37.923513215904492 -9.1078113954670172 2.6418742886805813 0.86602541151947299 0 -0.49999998660252726 0.062499998325315907 0 0.10825317643993412 1 I I -0.70710678118654746 0.70710678118654746 0.125 forward I I I I #
loop $-1 $-1 $170 $43 #
coedge $-1 $106 $106 $171 $172 reversed $67 $-1 #
face $-1 $-1 $173 $35 $-1 $174 forward single #
loop $-1 $175 $176 $69 #
cone-surface $-1 -37.923513215904492 -6.4366058321929671 2.6418742886805813 0.86602541151947299 0 -0.49999998660252726 0.062499998325315907 0 0.10825317643993412 1 I I -0.70710678118654746 0.70710678118654746 0.125 forward I I I I #
loop $-1 $-1 $177 $44 #
coedge $-1 $111 $111 $178 $179 reversed $70 $-1 #
face $-1 $180 $181 $27 $-1 $182 reversed single #
loop $-1 $-1 $183 $72 #
plane-surface $-1 0 -18.367424377386062 0 0 1 0 0 0 1 forward_v I I I I #
coedge $-1 $184 $185 $186 $187 forward $73 $-1 #
coedge $-1 $188 $75 $189 $190 forward $46 $-1 #
coedge $-1 $75 $188 $191 $192 forward $46 $-1 #
coedge $-1 $193 $194 $75 $119 reversed $195 $-1 #
edge $-1 $196 -18.367424377386062 $197 18.367424377386062 $118 $198 forward 7 unknown #
face $-1 $199 $200 $28 $-1 $201 reversed single #
loop $-1 $-1 $202 $76 #
plane-surface $-1 0 -22.106829013920901 5.3852784662398667 0 0 1 1 0 0 forward_v I I I I #
coedge $-1 $203 $204 $125 $205 forward $77 $-1 #
coedge $-1 $206 $79 $207 $208 reversed $49 $-1 #
coedge $-1 $79 $206 $123 $205 reversed $49 $-1 #
coedge $-1 $209 $202 $79 $127 reversed $121 $-1 #
edge $-1 $210 -40.700704977568897 $211 40.700704977568897 $126 $212 forward 7 unknown #
face $-1 $213 $214 $29 $-1 $215 reversed single #
loop $-1 $-1 $216 $80 #
plane-surface $-1 0 22.106829013920898 5.3852784662398667 0 0 1 1 0 0 forward_v I I I I #
coedge $-1 $217 $218 $133 $219 forward $81 $-1 #
coedge $-1 $220 $83 $221 $222 reversed $52 $-1 #
coedge $-1 $83 $220 $131 $219 reversed $52 $-1 #
coedge $-1 $216 $223 $83 $135 reversed $129 $-1 #
edge $-1 $224 -40.700704977568897 $225 40.700704977568897 $134 $226 forward 7 unknown #
face $-1 $227 $228 $30 $-1 $229 forward single #
loop $-1 $-1 $230 $84 #
plane-surface $-1 70.495690645236692 -10.888615104316386 111.2780303852106 0 1 0 0.86602541151947299 0 0.49999998660252726 forward_v I I I I #
coedge $-1 $231 $232 $233 $234 reversed $85 $-1 #
coedge $-1 $141 $87 $235 $236 reversed $55 $-1 #
coedge $-1 $87 $140 $231 $237 reversed $55 $-1 #
coedge $-1 $233 $238 $87 $143 forward $228 $-1 #
edge $-1 $239 -5.4528596549505508 $240 -1.8470333075405421 $142 $241 forward 7 unknown #
loop $-1 $-1 $149 $88 #
plane-surface $-1 1.090573164219677e-006 -7.7722086138299922 70.577326498214873 0.86602541151947299 0 0.49999998660252726 0.49999998660252726 0 -0.86602541151947299 forward_v I I I I #
loop $-1 $-1 $242 $57 #
coedge $-1 $147 $147 $148 $243 reversed $89 $-1 #
coedge $-1 $148 $148 $147 $243 forward $91 $-1 #
coedge $-1 $149 $149 $92 $150 forward $144 $-1 #
edge $-1 $244 0 $244 6.2831853071796004 $149 $245 forward 7 unknown #
loop $-1 $-1 $156 $93 #
plane-surface $-1 1.090573164219677e-006 -7.7722086138299922 70.577326498214873 0.86602541151947299 0 0.49999998660252726 0.49999998660252726 0 -0.86602541151947299 forward_v I I I I #
loop $-1 $-1 $246 $60 #
coedge $-1 $154 $154 $155 $247 reversed $94 $-1 #
coedge $-1 $155 $155 $154 $247 forward $96 $-1 #
coedge $-1 $156 $156 $97 $157 forward $151 $-1 #
edge $-1 $248 0 $248 6.2831853071796004 $156 $249 forward 7 unknown #
face $-1 $250 $251 $33 $-1 $252 reversed single #
loop $-1 $-1 $253 $98 #
plane-surface $-1 -111.19639453223243 -4.6558021233435989 40.782340830547078 0 -1 0 0.86602541151947299 0 -0.49999998660252726 forward_v I I I I #
coedge $-1 $254 $255 $256 $257 reversed $99 $-1 #
coedge $-1 $163 $101 $258 $259 reversed $64 $-1 #
coedge $-1 $101 $162 $254 $260 reversed $64 $-1 #
coedge $-1 $256 $261 $101 $165 forward $262 $-1 #
edge $-1 $263 14.897492288547319 $264 18.503318635957307 $164 $265 forward 7 unknown #
loop $-1 $-1 $171 $102 #
plane-surface $-1 -40.700704977568904 -7.7722086138299922 0.081636943551352203 -0.86602541151947299 0 0.49999998660252726 0.49999998660252726 0 0.86602541151947299 forward_v I I I I #
loop $-1 $-1 $266 $66 #
coedge $-1 $169 $169 $170 $267 reversed $103 $-1 #
coedge $-1 $170 $170 $169 $267 forward $105 $-1 #
coedge $-1 $171 $171 $106 $172 forward $166 $-1 #
edge $-1 $268 0 $268 6.2831853071796004 $171 $269 forward 7 unknown #
loop $-1 $-1 $178 $107 #
plane-surface $-1 -40.700704977568904 -7.7722086138299922 0.081636943551352203 -0.86602541151947299 0 0.49999998660252726 0.49999998660252726 0 0.86602541151947299 forward_v I I I I #
loop $-1 $-1 $270 $69 #
coedge $-1 $176 $176 $177 $271 reversed $108 $-1 #
coedge $-1 $177 $177 $176 $271 forward $110 $-1 #
coedge $-1 $178 $178 $111 $179 forward $173 $-1 #
edge $-1 $272 0 $272 6.2831853071796004 $178 $273 forward 7 unknown #
face $-1 $274 $275 $27 $-1 $276 reversed single #
loop $-1 $-1 $277 $112 #
plane-surface $-1 -40.700704977568897 0 0 1 0 0 0 0 -1 forward_v I I I I #
coedge $-1 $278 $191 $279 $280 forward $113 $-1 #
coedge $-1 $281 $115 $278 $282 forward $73 $-1 #
coedge $-1 $115 $281 $283 $284 forward $73 $-1 #
coedge $-1 $194 $193 $115 $187 reversed $195 $-1 #
edge $-1 $285 -18.367424377386062 $286 18.367424377386062 $186 $287 forward 7 unknown #
coedge $-1 $117 $116 $288 $289 forward $46 $-1 #
coedge $-1 $290 $291 $116 $190 reversed $275 $-1 #
edge $-1 $197 -40.700704977568897 $292 40.700704977568897 $189 $293 forward 7 unknown #
coedge $-1 $183 $294 $117 $192 reversed $113 $-1 #
edge $-1 $295 -40.700704977568897 $196 40.700704977568897 $191 $296 forward 7 unknown #
coedge $-1 $186 $118 $294 $297 forward $195 $-1 #
coedge $-1 $118 $186 $290 $298 reversed $195 $-1 #
loop $-1 $-1 $193 $274 #
vertex $-1 $119 $299 #
vertex $-1 $119 $300 #
straight-curve $-1 40.700704977568897 0 6.3271116036655002 0 1 0 I I #
face $-1 $301 $302 $28 $-1 $303 reversed single #
loop $-1 $-1 $304 $120 #
plane-surface $-1 0 -22.106829013920901 1.8453631189282982 0 0 1 1 0 0 forward_v I I I I #
coedge $-1 $126 $305 $306 $307 forward $121 $-1 #
coedge $-1 $308 $123 $309 $310 reversed $77 $-1 #
coedge $-1 $123 $308 $209 $311 reversed $77 $-1 #
edge $-1 $210 -5.3852784662398667 $312 -1.8453631189282982 $123 $313 forward 7 unknown #
coedge $-1 $125 $124 $314 $315 forward $49 $-1 #
coedge $-1 $306 $316 $124 $208 forward $317 $-1 #
edge $-1 $318 1.8453631189282982 $211 5.3852784662398667 $207 $319 forward 7 unknown #
coedge $-1 $305 $126 $204 $311 forward $121 $-1 #
vertex $-1 $205 $320 #
vertex $-1 $307 $321 #
straight-curve $-1 0 -18.367424377386062 5.3852784662398667 1 0 0 I I #
face $-1 $322 $323 $29 $-1 $324 reversed single #
loop $-1 $-1 $325 $128 #
plane-surface $-1 0 22.106829013920898 1.8453631189282982 0 0 1 1 0 0 forward_v I I I I #
coedge $-1 $326 $134 $218 $327 forward $129 $-1 #
coedge $-1 $328 $131 $325 $329 reversed $81 $-1 #
coedge $-1 $131 $328 $216 $327 reversed $81 $-1 #
edge $-1 $224 -5.3852784662398667 $330 -1.8453631189282982 $131 $331 forward 7 unknown #
coedge $-1 $133 $132 $332 $333 forward $52 $-1 #
coedge $-1 $334 $335 $132 $222 forward $336 $-1 #
edge $-1 $337 1.8453631189282982 $225 5.3852784662398667 $221 $338 forward 7 unknown #
coedge $-1 $134 $326 $334 $339 forward $129 $-1 #
vertex $-1 $219 $340 #
vertex $-1 $339 $341 #
straight-curve $-1 0 18.367424377386062 5.3852784662398667 -1 0 0 I I #
face $-1 $-1 $342 $30 $-1 $343 reversed single #
loop $-1 $-1 $142 $136 #
plane-surface $-1 0 0 6.3271116036655002 0 0 1 1 0 0 forward_v I I I I #
coedge $-1 $344 $345 $346 $347 reversed $137 $-1 #
coedge $-1 $348 $139 $141 $237 forward $85 $-1 #
coedge $-1 $139 $348 $344 $349 forward $85 $-1 #
coedge $-1 $346 $142 $139 $234 forward $228 $-1 #
edge $-1 $240 0.7696978164286028 $350 7.0025107974013903 $233 $351 forward 7 unknown #
coedge $-1 $352 $353 $140 $236 forward $342 $-1 #
edge $-1 $354 -55.557378249053968 $239 -49.311903588939799 $235 $355 forward 7 unknown #
edge $-1 $240 74.189757067081942 $354 81.401409955137808 $141 $356 forward 7 unknown #
coedge $-1 $142 $346 $352 $357 forward $228 $-1 #
vertex $-1 $236 $358 #
vertex $-1 $143 $359 #
straight-curve $-1 35.247845322618346 -4.6558021233435989 6.3271116036655002 -1 0 0 I I #
coedge $-1 $242 $242 $-1 $360 reversed $146 $-1 #
edge $-1 $361 0 $361 6.2831853071796004 $147 $362 forward 7 unknown #
vertex $-1 $150 $363 #
ellipse-curve $-1 38.897791803863889 -9.1078113954670172 3.2043742736084049 0.86602541151947299 0 0.49999998660252726 0.12499999665063181 0 -0.21650635287986825 1 I I #
coedge $-1 $246 $246 $-1 $364 reversed $153 $-1 #
edge $-1 $365 0 $365 6.2831853071796004 $154 $366 forward 7 unknown #
vertex $-1 $157 $367 #
ellipse-curve $-1 38.897791803863889 -6.4366058321929671 3.2043742736084049 0.86602541151947299 0 0.49999998660252726 0.12499999665063181 0 -0.21650635287986825 1 I I #
face $-1 $-1 $262 $33 $-1 $368 forward single #
loop $-1 $-1 $369 $158 #
plane-surface $-1 -40.700704977568897 0 0 1 0 0 0 0 -1 forward_v I I I I #
coedge $-1 $370 $371 $372 $373 reversed $159 $-1 #
coedge $-1 $374 $161 $163 $260 forward $99 $-1 #
coedge $-1 $161 $374 $370 $375 forward $99 $-1 #
coedge $-1 $372 $164 $161 $257 forward $262 $-1 #
edge $-1 $264 -7.0025107974013903 $376 -0.7696978164286028 $256 $377 forward 7 unknown #
coedge $-1 $378 $379 $162 $259 forward $251 $-1 #
edge $-1 $380 -20.309533471722176 $263 -14.064058811608039 $258 $381 forward 7 unknown #
edge $-1 $264 -7.2116528880558324 $380 -1.4213138071459776e-014 $163 $382 forward 7 unknown #
coedge $-1 $164 $372 $378 $383 forward $262 $-1 #
loop $-1 $-1 $372 $250 #
vertex $-1 $259 $384 #
vertex $-1 $165 $385 #
straight-curve $-1 -55.598197266116216 -10.888615104316386 6.3271116036655002 1 0 0 I I #
coedge $-1 $266 $266 $-1 $386 reversed $168 $-1 #
edge $-1 $387 0 $387 6.2831853071796004 $169 $388 forward 7 unknown #
vertex $-1 $172 $389 #
ellipse-curve $-1 -38.897791803863903 -9.1078113954670172 3.2043742736084297 -0.86602541151947299 0 0.49999998660252726 0.12499999665063181 0 0.21650635287986825 1 I I #
coedge $-1 $270 $270 $-1 $390 reversed $175 $-1 #
edge $-1 $391 0 $391 6.2831853071796004 $176 $392 forward 7 unknown #
vertex $-1 $179 $393 #
ellipse-curve $-1 -38.897791803863903 -6.4366058321929671 3.2043742736084297 -0.86602541151947299 0 0.49999998660252726 0.12499999665063181 0 0.21650635287986825 1 I I #
face $-1 $-1 $195 $27 $-1 $394 reversed single #
loop $-1 $-1 $291 $180 #
plane-surface $-1 0 18.367424377386062 0 0 -1 0 0 0 -1 forward_v I I I I #
coedge $-1 $395 $288 $291 $396 forward $181 $-1 #
coedge $-1 $294 $183 $184 $282 reversed $113 $-1 #
coedge $-1 $288 $395 $183 $280 reversed $181 $-1 #
edge $-1 $295 -6.3271116036655002 $397 6.3271116036655002 $279 $398 forward 7 unknown #
coedge $-1 $185 $184 $395 $399 forward $73 $-1 #
edge $-1 $286 -40.700704977568897 $397 40.700704977568897 $278 $400 forward 7 unknown #
coedge $-1 $291 $290 $185 $284 reversed $275 $-1 #
edge $-1 $401 -40.700704977568897 $285 40.700704977568897 $283 $402 forward 7 unknown #
vertex $-1 $187 $403 #
vertex $-1 $297 $404 #
straight-curve $-1 40.700704977568897 0 -6.3271116036655002 0 -1 0 I I #
coedge $-1 $277 $279 $188 $289 reversed $181 $-1 #
edge $-1 $292 -18.367424377386062 $295 18.367424377386062 $288 $405 forward 7 unknown #
coedge $-1 $283 $189 $194 $298 forward $275 $-1 #
coedge $-1 $189 $283 $277 $396 reversed $275 $-1 #
vertex $-1 $190 $406 #
straight-curve $-1 0 18.367424377386062 6.3271116036655002 -1 0 0 I I #
coedge $-1 $191 $278 $193 $297 reversed $113 $-1 #
vertex $-1 $289 $407 #
straight-curve $-1 0 -18.367424377386062 6.3271116036655002 1 0 0 I I #
edge $-1 $196 -6.3271116036655002 $286 6.3271116036655002 $193 $408 forward 7 unknown #
edge $-1 $197 -6.3271116036655002 $285 6.3271116036655002 $194 $409 forward 7 unknown #
point $-1 40.700704977568897 -18.367424377386062 6.3271116036655002 #
point $-1 40.700704977568897 18.367424377386062 6.3271116036655002 #
face $-1 $-1 $317 $28 $-1 $410 reversed single #
loop $-1 $-1 $411 $199 #
plane-surface $-1 0 -25.846233650455741 3.6153207925840825 0 1 0 0 0 1 forward_v I I I I #
coedge $-1 $412 $314 $316 $413 forward $200 $-1 #
coedge $-1 $202 $209 $414 $415 forward $121 $-1 #
coedge $-1 $416 $207 $202 $307 reversed $317 $-1 #
edge $-1 $417 -3.7394046365348395 $211 3.7394046365348395 $306 $418 forward 7 unknown #
coedge $-1 $204 $203 $411 $419 reversed $77 $-1 #
coedge $-1 $314 $412 $203 $310 forward $200 $-1 #
edge $-1 $420 -3.7394046365348395 $312 3.7394046365348395 $203 $421 forward 7 unknown #
edge $-1 $210 -3.7394046365348395 $422 3.7394046365348395 $204 $423 forward 7 unknown #
vertex $-1 $205 $424 #
straight-curve $-1 -40.700704977568897 -18.367424377386062 0 0 0 -1 I I #
coedge $-1 $304 $309 $206 $315 reversed $200 $-1 #
edge $-1 $318 -40.700704977568897 $312 40.700704977568897 $314 $425 forward 7 unknown #
coedge $-1 $207 $416 $304 $413 reversed $317 $-1 #
loop $-1 $-1 $207 $301 #
vertex $-1 $208 $426 #
straight-curve $-1 40.700704977568897 -18.367424377386062 0 0 0 1 I I #
point $-1 -40.700704977568897 -18.367424377386062 5.3852784662398667 #
point $-1 40.700704977568897 -18.367424377386062 5.3852784662398667 #
face $-1 $-1 $336 $29 $-1 $427 reversed single #
loop $-1 $-1 $428 $213 #
plane-surface $-1 0 25.846233650455737 3.6153207925840825 0 -1 0 0 0 -1 forward_v I I I I #
coedge $-1 $332 $429 $217 $329 forward $214 $-1 #
coedge $-1 $223 $216 $430 $431 forward $129 $-1 #
edge $-1 $224 -3.7394046365348395 $432 3.7394046365348395 $218 $433 forward 7 unknown #
coedge $-1 $218 $217 $428 $434 reversed $81 $-1 #
edge $-1 $435 -3.7394046365348395 $330 3.7394046365348395 $217 $436 forward 7 unknown #
vertex $-1 $219 $437 #
straight-curve $-1 40.700704977568897 18.367424377386062 0 0 0 -1 I I #
coedge $-1 $438 $325 $220 $333 reversed $214 $-1 #
edge $-1 $337 -40.700704977568897 $330 40.700704977568897 $332 $439 forward 7 unknown #
coedge $-1 $440 $221 $223 $339 reversed $336 $-1 #
coedge $-1 $221 $440 $438 $441 reversed $336 $-1 #
loop $-1 $-1 $221 $322 #
vertex $-1 $222 $442 #
straight-curve $-1 -40.700704977568897 18.367424377386062 0 0 0 1 I I #
edge $-1 $443 -3.7394046365348395 $225 3.7394046365348395 $334 $444 forward 7 unknown #
point $-1 40.700704977568897 18.367424377386058 5.3852784662398667 #
point $-1 -40.700704977568897 18.367424377386058 5.3852784662398667 #
loop $-1 $-1 $235 $227 #
plane-surface $-1 40.700704977568897 0 0 -1 0 0 0 0 1 forward_v I I I I #
coedge $-1 $345 $230 $232 $349 reversed $137 $-1 #
coedge $-1 $230 $344 $445 $446 reversed $137 $-1 #
coedge $-1 $238 $233 $230 $347 forward $228 $-1 #
edge $-1 $350 1.8470333075405421 $447 5.4528596549505508 $346 $448 forward 7 unknown #
coedge $-1 $232 $231 $353 $449 reversed $85 $-1 #
edge $-1 $450 -81.401409955137808 $350 -74.189757067081942 $344 $451 forward 7 unknown #
vertex $-1 $234 $452 #
straight-curve $-1 37.094878630158895 -3.8861043069149961 6.3271116036654931 0 -1 0 I I #
coedge $-1 $445 $235 $238 $357 reversed $342 $-1 #
coedge $-1 $235 $445 $348 $449 forward $342 $-1 #
vertex $-1 $236 $453 #
straight-curve $-1 40.700704977568897 -4.6558021233435989 55.639015192605299 0 0 1 I I #
straight-curve $-1 1.090573164219677e-006 -4.6558021233435989 70.577326498214873 0.49999998660252726 0 -0.86602541151947299 I I #
edge $-1 $447 -10.888615104316386 $239 -4.6558021233435989 $352 $454 forward 7 unknown #
point $-1 40.700704977568897 -4.6558021233435989 6.3271116036655002 #
point $-1 37.094878630158888 -4.6558021233435989 6.3271116036655002 #
edge $-1 $455 1 $455 0 $242 $-1 forward 7 unknown #
vertex $-1 $243 $456 #
ellipse-curve $-1 38.03176639234443 -9.1078113954670172 2.7043742870058849 0.86602541151947299 0 0.49999998660252726 0.12499999665063181 0 -0.21650635287986825 1 I I #
point $-1 39.02279180051454 -9.1078113954670172 2.9878679207285437 #
edge $-1 $457 1 $457 0 $246 $-1 forward 7 unknown #
vertex $-1 $247 $458 #
ellipse-curve $-1 38.03176639234443 -6.4366058321929671 2.7043742870058849 0.86602541151947299 0 0.49999998660252726 0.12499999665063181 0 -0.21650635287986825 1 I I #
point $-1 39.02279180051454 -6.4366058321929671 2.9878679207285437 #
plane-surface $-1 0 0 6.3271116036655002 0 0 1 1 0 0 forward_v I I I I #
coedge $-1 $379 $378 $371 $459 forward $251 $-1 #
coedge $-1 $371 $253 $255 $375 reversed $159 $-1 #
coedge $-1 $253 $370 $369 $459 reversed $159 $-1 #
coedge $-1 $261 $256 $253 $373 forward $262 $-1 #
edge $-1 $376 -18.503318635957307 $460 -14.897492288547319 $372 $461 forward 7 unknown #
coedge $-1 $255 $254 $379 $462 reversed $99 $-1 #
edge $-1 $463 1.4213138071459776e-014 $376 7.2116528880558324 $370 $464 forward 7 unknown #
vertex $-1 $257 $465 #
straight-curve $-1 -37.094878630158902 -3.8861043069149961 6.3271116036655002 0 1 0 I I #
coedge $-1 $369 $258 $261 $383 reversed $251 $-1 #
coedge $-1 $258 $369 $374 $462 forward $251 $-1 #
vertex $-1 $259 $466 #
straight-curve $-1 -40.700704977568897 -10.888615104316386 20.391170415273539 0 0 1 I I #
straight-curve $-1 -40.700704977568904 -10.888615104316386 0.081636943551352203 -0.49999998660252726 0 -0.86602541151947299 I I #
edge $-1 $460 4.6558021233435989 $263 10.888615104316386 $378 $467 forward 7 unknown #
point $-1 -40.700704977568897 -10.888615104316386 6.3271116036655002 #
point $-1 -37.09487863015891 -10.888615104316386 6.3271116036655002 #
edge $-1 $468 1 $468 0 $266 $-1 forward 7 unknown #
vertex $-1 $267 $469 #
ellipse-curve $-1 -38.031766392344423 -9.1078113954670172 2.7043742870058973 -0.86602541151947299 0 0.49999998660252726 0.12499999665063181 0 0.21650635287986825 1 I I #
point $-1 -38.772791807213267 -9.1078113954670172 3.4208806264882927 #
edge $-1 $470 1 $470 0 $270 $-1 forward 7 unknown #
vertex $-1 $271 $471 #
ellipse-curve $-1 -38.031766392344423 -6.4366058321929671 2.7043742870058973 -0.86602541151947299 0 0.49999998660252726 0.12499999665063181 0 0.21650635287986825 1 I I #
point $-1 -38.772791807213267 -6.4366058321929671 3.4208806264882927 #
plane-surface $-1 40.700704977568897 0 0 -1 0 0 0 0 1 forward_v I I I I #
coedge $-1 $279 $277 $281 $399 reversed $181 $-1 #
edge $-1 $292 -6.3271116036655002 $401 6.3271116036655002 $291 $472 forward 7 unknown #
vertex $-1 $399 $473 #
straight-curve $-1 -40.700704977568897 -18.367424377386062 0 0 0 -1 I I #
edge $-1 $397 -18.367424377386062 $401 18.367424377386062 $395 $474 forward 7 unknown #
straight-curve $-1 0 -18.367424377386062 -6.3271116036655002 -1 0 0 I I #
vertex $-1 $284 $475 #
straight-curve $-1 0 18.367424377386062 -6.3271116036655002 1 0 0 I I #
point $-1 40.700704977568897 18.367424377386062 -6.3271116036655002 #
point $-1 40.700704977568897 -18.367424377386062 -6.3271116036655002 #
straight-curve $-1 -40.700704977568897 0 6.3271116036655002 0 -1 0 I I #
point $-1 -40.700704977568897 18.367424377386062 6.3271116036655002 #
point $-1 -40.700704977568897 -18.367424377386062 6.3271116036655002 #
straight-curve $-1 40.700704977568897 -18.367424377386062 0 0 0 -1 I I #
straight-curve $-1 40.700704977568897 18.367424377386062 0 0 0 -1 I I #
plane-surface $-1 40.700704977568897 0 0 -1 0 0 0 0 1 forward_v I I I I #
coedge $-1 $476 $414 $308 $419 forward $302 $-1 #
coedge $-1 $309 $304 $476 $477 forward $200 $-1 #
edge $-1 $318 -3.7394046365348395 $478 3.7394046365348395 $316 $479 forward 7 unknown #
coedge $-1 $411 $480 $305 $415 reversed $302 $-1 #
edge $-1 $422 -40.700704977568897 $417 40.700704977568897 $414 $481 forward 7 unknown #
coedge $-1 $316 $306 $480 $482 forward $317 $-1 #
vertex $-1 $307 $483 #
straight-curve $-1 40.700704977568897 -22.106829013920901 5.3852784662398667 0 1 0 I I #
edge $-1 $422 -1.7699576736557843 $420 1.7699576736557843 $308 $484 forward 7 unknown #
vertex $-1 $310 $485 #
straight-curve $-1 -40.700704977568897 -22.106829013920901 1.8453631189282982 0 1 0 I I #
vertex $-1 $311 $486 #
straight-curve $-1 -40.700704977568897 -22.106829013920901 5.3852784662398667 0 -1 0 I I #
point $-1 -40.700704977568897 -18.367424377386062 1.8453631189282982 #
straight-curve $-1 0 -18.367424377386062 1.8453631189282982 -1 0 0 I I #
point $-1 40.700704977568897 -18.367424377386062 1.8453631189282982 #
plane-surface $-1 -40.700704977568897 0 0 1 0 0 0 0 -1 forward_v I I I I #
coedge $-1 $487 $430 $328 $434 forward $323 $-1 #
coedge $-1 $325 $438 $487 $488 forward $214 $-1 #
coedge $-1 $428 $489 $326 $431 reversed $323 $-1 #
edge $-1 $432 -40.700704977568897 $443 40.700704977568897 $430 $490 forward 7 unknown #
vertex $-1 $327 $491 #
straight-curve $-1 40.700704977568897 22.106829013920898 5.3852784662398667 0 1 0 I I #
edge $-1 $432 -1.7699576736557843 $435 1.7699576736557843 $328 $492 forward 7 unknown #
vertex $-1 $329 $493 #
straight-curve $-1 40.700704977568897 22.106829013920898 1.8453631189282982 0 -1 0 I I #
point $-1 40.700704977568897 18.367424377386058 1.8453631189282982 #
coedge $-1 $429 $332 $335 $441 forward $214 $-1 #
straight-curve $-1 0 18.367424377386062 1.8453631189282982 1 0 0 I I #
coedge $-1 $335 $334 $489 $494 forward $336 $-1 #
edge $-1 $337 -3.7394046365348395 $495 3.7394046365348395 $335 $496 forward 7 unknown #
point $-1 -40.700704977568897 18.367424377386058 1.8453631189282982 #
vertex $-1 $431 $497 #
straight-curve $-1 -40.700704977568897 22.106829013920898 5.3852784662398667 0 -1 0 I I #
coedge $-1 $353 $352 $345 $446 forward $342 $-1 #
edge $-1 $447 49.311903588939799 $450 55.557378249053968 $445 $498 forward 7 unknown #
vertex $-1 $357 $499 #
straight-curve $-1 35.247845322618346 -10.888615104316386 6.3271116036655002 1 0 0 I I #
edge $-1 $450 -7.0025107974013903 $354 -0.7696978164286028 $353 $500 forward 7 unknown #
vertex $-1 $449 $501 #
straight-curve $-1 1.090573164219677e-006 -10.888615104316386 70.577326498214873 -0.49999998660252726 0 0.86602541151947299 I I #
point $-1 37.094878630158888 -10.888615104316386 6.3271116036655002 #
point $-1 40.700704977568897 -4.6558021233435989 0.081636943551330887 #
straight-curve $-1 40.700704977568897 0 6.3271116036655002 0 1 0 I I #
vertex $-1 $360 $502 #
point $-1 38.156766388995067 -9.1078113954670172 2.4878679341260166 #
vertex $-1 $364 $503 #
point $-1 38.156766388995067 -6.4366058321929671 2.4878679341260166 #
edge $-1 $460 14.064058811608039 $463 20.309533471722176 $369 $504 forward 7 unknown #
vertex $-1 $383 $505 #
straight-curve $-1 -55.598197266116216 -4.6558021233435989 6.3271116036655002 -1 0 0 I I #
edge $-1 $463 0.7696978164286028 $380 7.0025107974013903 $379 $506 forward 7 unknown #
vertex $-1 $462 $507 #
straight-curve $-1 -40.700704977568904 -4.6558021233435989 0.081636943551352203 0.49999998660252726 0 0.86602541151947299 I I #
point $-1 -37.09487863015891 -4.6558021233435989 6.3271116036655002 #
point $-1 -40.700704977568897 -10.888615104316386 0.081636943551364513 #
straight-curve $-1 -40.700704977568897 0 6.3271116036655002 0 -1 0 I I #
vertex $-1 $386 $508 #
point $-1 -37.906766395693793 -9.1078113954670172 2.9208806398857652 #
vertex $-1 $390 $509 #
point $-1 -37.906766395693793 -6.4366058321929671 2.9208806398857652 #
straight-curve $-1 -40.700704977568897 18.367424377386062 0 0 0 -1 I I #
point $-1 -40.700704977568897 -18.367424377386062 -6.3271116036655002 #
straight-curve $-1 -40.700704977568897 0 -6.3271116036655002 0 1 0 I I #
point $-1 -40.700704977568897 18.367424377386062 -6.3271116036655002 #
coedge $-1 $480 $411 $412 $477 reversed $302 $-1 #
edge $-1 $478 -40.700704977568897 $420 40.700704977568897 $476 $510 forward 7 unknown #
vertex $-1 $482 $511 #
straight-curve $-1 40.700704977568897 -22.106829013920901 1.8453631189282982 0 -1 0 I I #
coedge $-1 $414 $476 $416 $482 reversed $302 $-1 #
straight-curve $-1 0 -25.846233650455741 5.3852784662398667 1 0 0 I I #
edge $-1 $417 -1.7699576736557843 $478 1.7699576736557843 $416 $512 forward 7 unknown #
point $-1 40.700704977568897 -25.846233650455741 5.3852784662398667 #
straight-curve $-1 -40.700704977568897 -25.846233650455741 3.6153207925840825 0 0 -1 I I #
point $-1 -40.700704977568897 -25.846233650455741 1.8453631189282982 #
point $-1 -40.700704977568897 -25.846233650455741 5.3852784662398667 #
coedge $-1 $489 $428 $429 $488 reversed $323 $-1 #
edge $-1 $495 -40.700704977568897 $435 40.700704977568897 $487 $513 forward 7 unknown #
coedge $-1 $430 $487 $440 $494 reversed $323 $-1 #
straight-curve $-1 0 25.846233650455737 5.3852784662398667 -1 0 0 I I #
point $-1 40.700704977568897 25.846233650455737 5.3852784662398667 #
straight-curve $-1 40.700704977568897 25.846233650455737 3.6153207925840825 0 0 -1 I I #
point $-1 40.700704977568897 25.846233650455737 1.8453631189282982 #
edge $-1 $443 -1.7699576736557843 $495 1.7699576736557843 $489 $514 forward 7 unknown #
vertex $-1 $488 $515 #
straight-curve $-1 -40.700704977568897 22.106829013920898 1.8453631189282982 0 1 0 I I #
point $-1 -40.700704977568897 25.846233650455737 5.3852784662398667 #
straight-curve $-1 40.700704977568897 -10.888615104316386 55.639015192605299 0 0 -1 I I #
point $-1 40.700704977568897 -10.888615104316386 6.3271116036655002 #
straight-curve $-1 40.700704977568897 -3.8861043069149961 0.081636943551323782 0 1 0 I I #
point $-1 40.700704977568897 -10.888615104316386 0.081636943551330887 #
point $-1 37.815260039464569 -9.1078113954670172 2.5793742903552528 #
point $-1 37.815260039464569 -6.4366058321929671 2.5793742903552528 #
straight-curve $-1 -40.700704977568897 -4.6558021233435989 20.391170415273539 0 0 -1 I I #
point $-1 -40.700704977568897 -4.6558021233435989 6.3271116036655002 #
straight-curve $-1 -40.700704977568897 -3.8861043069149961 0.08163694355137574 0 -1 0 I I #
point $-1 -40.700704977568897 -4.6558021233435989 0.081636943551364513 #
point $-1 -37.815260039464562 -9.1078113954670172 2.5793742903552652 #
point $-1 -37.815260039464562 -6.4366058321929671 2.5793742903552652 #
straight-curve $-1 0 -25.846233650455741 1.8453631189282982 -1 0 0 I I #
point $-1 40.700704977568897 -25.846233650455741 1.8453631189282982 #
straight-curve $-1 40.700704977568897 -25.846233650455741 3.6153207925840825 0 0 -1 I I #
straight-curve $-1 0 25.846233650455737 1.8453631189282982 1 0 0 I I #
straight-curve $-1 -40.700704977568897 25.846233650455737 3.6153207925840825 0 0 -1 I I #
point $-1 -40.700704977568897 25.846233650455737 1.8453631189282982 #
End-of-ACIS-data 