500 0 14 0           
7 Unknown 11 ACIS 5.0 NT 24 Thu Mar 25 19:29:23 1999 
-1 9.9999999999999995e-007 1e-010 
body $-1 $14 $-1 $15 #
body $-1 $16 $-1 $17 #
body $-1 $18 $-1 $19 #
body $-1 $20 $-1 $21 #
body $-1 $22 $-1 $23 #
body $-1 $24 $-1 $25 #
body $-1 $26 $-1 $27 #
body $-1 $28 $-1 $29 #
body $-1 $30 $-1 $31 #
body $-1 $32 $-1 $33 #
body $-1 $34 $-1 $35 #
body $-1 $36 $-1 $37 #
body $-1 $38 $-1 $39 #
body $-1 $40 $-1 $41 #
lump $-1 $-1 $42 $0 #
transform $-1 1 0 0 0 1 0 0 0 1 50.209051789910582 22.29703589924393 6.9856605987135918 1 rotate no_reflect no_shear #
lump $-1 $-1 $43 $1 #
transform $-1 1 0 0 0 1 0 0 0 1 50.209051789910582 22.29703589924393 6.9856605987135918 1 rotate no_reflect no_shear #
lump $-1 $-1 $44 $2 #
transform $-1 1 0 0 0 1 0 0 0 1 50.209051789910582 22.29703589924393 6.9856605987135918 1 rotate no_reflect no_shear #
lump $-1 $-1 $45 $3 #
transform $-1 1 0 0 0 1 0 0 0 1 50.209051789910582 22.29703589924393 6.9856605987135918 1 rotate no_reflect no_shear #
lump $-1 $-1 $46 $4 #
transform $-1 1 0 0 0 1 0 0 0 1 50.209051789910582 22.29703589924393 6.9856605987135918 1 rotate no_reflect no_shear #
lump $-1 $-1 $47 $5 #
transform $-1 1 0 0 0 1 0 0 0 1 50.209051789910582 22.29703589924393 6.9856605987135918 1 rotate no_reflect no_shear #
lump $-1 $-1 $48 $6 #
transform $-1 1 0 0 0 1 0 0 0 1 50.209051789910582 22.29703589924393 6.9856605987135918 1 rotate no_reflect no_shear #
lump $-1 $-1 $49 $7 #
transform $-1 1 0 0 0 1 0 0 0 1 50.209051789910582 22.29703589924393 6.9856605987135918 1 rotate no_reflect no_shear #
lump $-1 $-1 $50 $8 #
transform $-1 1 0 0 0 1 0 0 0 1 50.209051789910582 22.29703589924393 6.9856605987135918 1 rotate no_reflect no_shear #
lump $-1 $-1 $51 $9 #
transform $-1 1 0 0 0 1 0 0 0 1 50.209051789910582 22.29703589924393 6.9856605987135918 1 rotate no_reflect no_shear #
lump $-1 $-1 $52 $10 #
transform $-1 1 0 0 0 1 0 0 0 1 50.209051789910582 22.29703589924393 6.9856605987135918 1 rotate no_reflect no_shear #
lump $-1 $-1 $53 $11 #
transform $-1 1 0 0 0 1 0 0 0 1 50.209051789910582 22.29703589924393 6.9856605987135918 1 rotate no_reflect no_shear #
lump $-1 $-1 $54 $12 #
transform $-1 1 0 0 0 1 0 0 0 1 50.209051789910582 22.29703589924393 6.9856605987135918 1 rotate no_reflect no_shear #
lump $-1 $-1 $55 $13 #
transform $-1 1 0 0 0 1 0 0 0 1 50.209051789910582 22.29703589924393 6.9856605987135918 1 rotate no_reflect no_shear #
shell $-1 $-1 $-1 $56 $-1 $14 #
shell $-1 $-1 $-1 $57 $-1 $16 #
shell $-1 $-1 $-1 $58 $-1 $18 #
shell $-1 $-1 $-1 $59 $-1 $20 #
shell $-1 $-1 $-1 $60 $-1 $22 #
shell $-1 $-1 $-1 $61 $-1 $24 #
shell $-1 $-1 $-1 $62 $-1 $26 #
shell $-1 $-1 $-1 $63 $-1 $28 #
shell $-1 $-1 $-1 $64 $-1 $30 #
shell $-1 $-1 $-1 $65 $-1 $32 #
shell $-1 $-1 $-1 $66 $-1 $34 #
shell $-1 $-1 $-1 $67 $-1 $36 #
shell $-1 $-1 $-1 $68 $-1 $38 #
shell $-1 $-1 $-1 $69 $-1 $40 #
face $-1 $70 $71 $42 $-1 $72 forward single #
face $-1 $73 $74 $43 $-1 $75 reversed single #
face $-1 $76 $77 $44 $-1 $78 reversed single #
face $-1 $79 $80 $45 $-1 $81 forward single #
face $-1 $82 $83 $46 $-1 $84 forward single #
face $-1 $85 $86 $47 $-1 $87 forward single #
face $-1 $88 $89 $48 $-1 $90 reversed single #
face $-1 $91 $92 $49 $-1 $93 forward single #
face $-1 $94 $95 $50 $-1 $96 forward single #
face $-1 $97 $98 $51 $-1 $99 forward single #
face $-1 $100 $101 $52 $-1 $102 reversed single #
face $-1 $103 $104 $53 $-1 $105 forward single #
face $-1 $106 $107 $54 $-1 $108 forward single #
face $-1 $109 $110 $55 $-1 $111 forward single #
face $-1 $112 $113 $42 $-1 $114 reversed single #
loop $-1 $-1 $115 $56 #
plane-surface $-1 0 0 6.9856605987135918 0 0 1 1 0 0 forward_v I I I I #
face $-1 $116 $117 $43 $-1 $118 reversed single #
loop $-1 $-1 $119 $57 #
plane-surface $-1 -48.626318085261445 -18.138801547710404 0 1 0 0 0 0 -1 forward_v I I I I #
face $-1 $120 $121 $44 $-1 $122 reversed single #
loop $-1 $-1 $123 $58 #
plane-surface $-1 -114.75656535259304 -9.9551069430505361 77.295720653452321 0 1 0 -0.64278761758704617 0 0.76604443648966558 forward_v I I I I #
face $-1 $124 $125 $45 $-1 $126 forward single #
loop $-1 $127 $128 $59 #
cone-surface $-1 -45.94612998425589 -8.2926219581365075 3.2953036227556365 0.64278761758704617 0 -0.76604443648966558 0.1915111091224164 0 0.16069690439676154 1 I I 0 1 0.25 forward I I I I #
face $-1 $129 $130 $46 $-1 $131 forward single #
loop $-1 $132 $133 $60 #
cone-surface $-1 -45.94612998425589 -5.798894480765469 3.2953036227556365 0.64278761758704617 0 -0.76604443648966558 0.1915111091224164 0 0.16069690439676154 1 I I 0 1 0.25 forward I I I I #
face $-1 $134 $135 $47 $-1 $136 forward single #
loop $-1 $137 $138 $61 #
cone-surface $-1 -45.94612998425589 -3.3051670033944305 3.2953036227556365 0.64278761758704617 0 -0.76604443648966558 0.1915111091224164 0 0.16069690439676154 1 I I 0 1 0.25 forward I I I I #
face $-1 $139 $140 $48 $-1 $141 reversed single #
loop $-1 $-1 $142 $62 #
plane-surface $-1 -114.75656535259304 8.1836946046598715 77.295720653452321 0 1 0 -0.64278761758704617 0 0.76604443648966558 forward_v I I I I #
face $-1 $143 $144 $49 $-1 $145 forward single #
loop $-1 $146 $147 $63 #
cone-surface $-1 -45.94612998425589 9.8461795895739002 3.2953036227556365 0.64278761758704617 0 -0.76604443648966558 0.1915111091224164 0 0.16069690439676154 1 I I 0 1 0.25 forward I I I I #
face $-1 $148 $149 $50 $-1 $150 forward single #
loop $-1 $151 $152 $64 #
cone-surface $-1 -45.94612998425589 12.339907066944939 3.2953036227556365 0.64278761758704617 0 -0.76604443648966558 0.1915111091224164 0 0.16069690439676154 1 I I 0 1 0.25 forward I I I I #
face $-1 $153 $154 $51 $-1 $155 forward single #
loop $-1 $156 $157 $65 #
cone-surface $-1 -45.94612998425589 14.833634544315977 3.2953036227556365 0.64278761758704617 0 -0.76604443648966558 0.1915111091224164 0 0.16069690439676154 1 I I 0 1 0.25 forward I I I I #
face $-1 $158 $159 $52 $-1 $160 reversed single #
loop $-1 $-1 $161 $66 #
plane-surface $-1 23.111763081404028 14.288999544609389 142.07825686405837 0 1 0 0.55919291073839883 0 0.82903756765294845 forward_v I I I I #
face $-1 $162 $163 $53 $-1 $164 forward single #
loop $-1 $165 $166 $67 #
cone-surface $-1 46.688633303223106 15.890606815536295 4.3486120591514084 -0.55919291073839883 0 -0.82903756765294845 0.41451878382647422 0 -0.27959645536919941 1 I I 0 1 0.5 forward I I I I #
face $-1 $167 $168 $54 $-1 $169 forward single #
loop $-1 $170 $171 $68 #
cone-surface $-1 46.688633303223106 18.29301772192666 4.3486120591514084 -0.55919291073839883 0 -0.82903756765294845 0.41451878382647422 0 -0.27959645536919941 1 I I 0 1 0.5 forward I I I I #
face $-1 $172 $173 $55 $-1 $174 forward single #
loop $-1 $175 $176 $69 #
cone-surface $-1 46.688633303223106 20.695428628317025 4.3486120591514084 -0.55919291073839883 0 -0.82903756765294845 0.41451878382647422 0 -0.27959645536919941 1 I I 0 1 0.5 forward I I I I #
face $-1 $177 $178 $42 $-1 $179 reversed single #
loop $-1 $-1 $180 $70 #
plane-surface $-1 0 0 -6.9856605987135918 0 0 1 1 0 0 forward_v I I I I #
coedge $-1 $181 $182 $183 $184 forward $71 $-1 #
face $-1 $185 $186 $43 $-1 $187 reversed single #
loop $-1 $-1 $188 $73 #
plane-surface $-1 -47.126318085261445 -13.980567196176878 0 0 -1 0 0 0 -1 forward_v I I I I #
coedge $-1 $189 $190 $191 $192 forward $74 $-1 #
face $-1 $193 $194 $44 $-1 $195 reversed single #
loop $-1 $-1 $196 $76 #
plane-surface $-1 -50.209051789910561 -5.798894480765469 0.37099108328735042 -0.64278761758704617 0 0.76604443648966558 0.76604443648966558 0 0.64278761758704617 forward_v I I I I #
coedge $-1 $197 $198 $199 $200 reversed $77 $-1 #
face $-1 $-1 $201 $45 $-1 $202 forward single #
loop $-1 $203 $204 $79 #
cone-surface $-1 -45.544387723263988 -8.2926219581365075 2.8165258499495955 0.64278761758704617 0 -0.76604443648966558 0.095755554561208198 0 0.080348452198380771 1 I I -0.70710678118654746 0.70710678118654746 0.125 forward I I I I #
loop $-1 $-1 $205 $59 #
coedge $-1 $128 $128 $206 $207 reversed $80 $-1 #
face $-1 $-1 $208 $46 $-1 $209 forward single #
loop $-1 $210 $211 $82 #
cone-surface $-1 -45.544387723263988 -5.798894480765469 2.8165258499495955 0.64278761758704617 0 -0.76604443648966558 0.095755554561208198 0 0.080348452198380771 1 I I -0.70710678118654746 0.70710678118654746 0.125 forward I I I I #
loop $-1 $-1 $212 $60 #
coedge $-1 $133 $133 $213 $214 reversed $83 $-1 #
face $-1 $-1 $215 $47 $-1 $216 forward single #
loop $-1 $217 $218 $85 #
cone-surface $-1 -45.544387723263988 -3.3051670033944305 2.8165258499495955 0.64278761758704617 0 -0.76604443648966558 0.095755554561208198 0 0.080348452198380771 1 I I -0.70710678118654746 0.70710678118654746 0.125 forward I I I I #
loop $-1 $-1 $219 $61 #
coedge $-1 $138 $138 $220 $221 reversed $86 $-1 #
face $-1 $222 $223 $48 $-1 $224 reversed single #
loop $-1 $-1 $225 $88 #
plane-surface $-1 -50.209051789910561 12.339907066944939 0.37099108328735042 -0.64278761758704617 0 0.76604443648966558 0.76604443648966558 0 0.64278761758704617 forward_v I I I I #
coedge $-1 $226 $227 $228 $229 reversed $89 $-1 #
face $-1 $-1 $230 $49 $-1 $231 forward single #
loop $-1 $232 $233 $91 #
cone-surface $-1 -45.544387723263988 9.8461795895739002 2.8165258499495955 0.64278761758704617 0 -0.76604443648966558 0.095755554561208198 0 0.080348452198380771 1 I I -0.70710678118654746 0.70710678118654746 0.125 forward I I I I #
loop $-1 $-1 $234 $63 #
coedge $-1 $147 $147 $235 $236 reversed $92 $-1 #
face $-1 $-1 $237 $50 $-1 $238 forward single #
loop $-1 $239 $240 $94 #
cone-surface $-1 -45.544387723263988 12.339907066944939 2.8165258499495955 0.64278761758704617 0 -0.76604443648966558 0.095755554561208198 0 0.080348452198380771 1 I I -0.70710678118654746 0.70710678118654746 0.125 forward I I I I #
loop $-1 $-1 $241 $64 #
coedge $-1 $152 $152 $242 $243 reversed $95 $-1 #
face $-1 $-1 $244 $51 $-1 $245 forward single #
loop $-1 $246 $247 $97 #
cone-surface $-1 -45.544387723263988 14.833634544315977 2.8165258499495955 0.64278761758704617 0 -0.76604443648966558 0.095755554561208198 0 0.080348452198380771 1 I I -0.70710678118654746 0.70710678118654746 0.125 forward I I I I #
loop $-1 $-1 $248 $65 #
coedge $-1 $157 $157 $249 $250 reversed $98 $-1 #
face $-1 $251 $252 $52 $-1 $253 forward single #
loop $-1 $-1 $254 $100 #
plane-surface $-1 -33.041328550226204 18.29301772192666 58.827876523921589 0.55919291073839883 0 0.82903756765294845 0.82903756765294845 0 -0.55919291073839883 forward_v I I I I #
coedge $-1 $255 $256 $257 $258 reversed $101 $-1 #
face $-1 $-1 $259 $53 $-1 $260 forward single #
loop $-1 $261 $262 $103 #
cone-surface $-1 46.223984559649558 15.890606815536295 3.6597419808870928 -0.55919291073839883 0 -0.82903756765294845 0.20725939191323711 0 -0.13979822768459971 1 I I -0.70710678118654813 0.70710678118654691 0.25 forward I I I I #
loop $-1 $-1 $263 $67 #
coedge $-1 $166 $166 $264 $265 reversed $104 $-1 #
face $-1 $-1 $266 $54 $-1 $267 forward single #
loop $-1 $268 $269 $106 #
cone-surface $-1 46.223984559649558 18.29301772192666 3.6597419808870928 -0.55919291073839883 0 -0.82903756765294845 0.20725939191323711 0 -0.13979822768459971 1 I I -0.70710678118654813 0.70710678118654691 0.25 forward I I I I #
loop $-1 $-1 $270 $68 #
coedge $-1 $171 $171 $271 $272 reversed $107 $-1 #
face $-1 $-1 $273 $55 $-1 $274 forward single #
loop $-1 $275 $276 $109 #
cone-surface $-1 46.223984559649558 20.695428628317025 3.6597419808870928 -0.55919291073839883 0 -0.82903756765294845 0.20725939191323711 0 -0.13979822768459971 1 I I -0.70710678118654813 0.70710678118654691 0.25 forward I I I I #
loop $-1 $-1 $277 $69 #
coedge $-1 $176 $176 $278 $279 reversed $110 $-1 #
face $-1 $280 $281 $42 $-1 $282 reversed single #
loop $-1 $-1 $283 $112 #
plane-surface $-1 0 -22.29703589924393 0 0 1 0 0 0 1 forward_v I I I I #
coedge $-1 $284 $285 $286 $287 forward $113 $-1 #
coedge $-1 $288 $115 $289 $290 forward $71 $-1 #
coedge $-1 $115 $288 $291 $292 forward $71 $-1 #
coedge $-1 $293 $294 $115 $184 reversed $295 $-1 #
edge $-1 $296 -22.29703589924393 $297 22.29703589924393 $183 $298 forward 7 unknown #
face $-1 $299 $300 $43 $-1 $301 forward single #
loop $-1 $-1 $302 $116 #
plane-surface $-1 -45.626318085261445 -18.138801547710404 0 -1 0 0 0 0 1 forward_v I I I I #
coedge $-1 $303 $304 $305 $306 forward $117 $-1 #
coedge $-1 $307 $119 $308 $309 reversed $74 $-1 #
coedge $-1 $119 $307 $310 $311 reversed $74 $-1 #
coedge $-1 $304 $303 $119 $192 reversed $117 $-1 #
edge $-1 $312 -6.9856605987135918 $313 6.9856605987135918 $191 $314 forward 7 unknown #
face $-1 $315 $316 $44 $-1 $317 reversed single #
loop $-1 $-1 $318 $120 #
plane-surface $-1 -114.75656535259304 -1.6426820184804019 77.295720653452321 0 -1 0 0.64278761758704617 0 -0.76604443648966558 forward_v I I I I #
coedge $-1 $319 $320 $321 $322 reversed $121 $-1 #
coedge $-1 $198 $123 $323 $324 reversed $77 $-1 #
coedge $-1 $123 $197 $319 $325 reversed $77 $-1 #
coedge $-1 $321 $326 $123 $200 forward $327 $-1 #
edge $-1 $328 7.1692308863859395 $329 15.052286880108298 $199 $330 forward 7 unknown #
loop $-1 $-1 $206 $124 #
plane-surface $-1 -50.209051789910561 -5.798894480765469 0.37099108328735042 -0.64278761758704617 0 0.76604443648966558 0.76604443648966558 0 0.64278761758704617 forward_v I I I I #
loop $-1 $-1 $331 $79 #
coedge $-1 $204 $204 $205 $332 reversed $125 $-1 #
coedge $-1 $205 $205 $204 $332 forward $127 $-1 #
coedge $-1 $206 $206 $128 $207 forward $201 $-1 #
edge $-1 $333 0 $333 6.2831853071796004 $206 $334 forward 7 unknown #
loop $-1 $-1 $213 $129 #
plane-surface $-1 -50.209051789910561 -5.798894480765469 0.37099108328735042 -0.64278761758704617 0 0.76604443648966558 0.76604443648966558 0 0.64278761758704617 forward_v I I I I #
loop $-1 $-1 $335 $82 #
coedge $-1 $211 $211 $212 $336 reversed $130 $-1 #
coedge $-1 $212 $212 $211 $336 forward $132 $-1 #
coedge $-1 $213 $213 $133 $214 forward $208 $-1 #
edge $-1 $337 0 $337 6.2831853071796004 $213 $338 forward 7 unknown #
loop $-1 $-1 $220 $134 #
plane-surface $-1 -50.209051789910561 -5.798894480765469 0.37099108328735042 -0.64278761758704617 0 0.76604443648966558 0.76604443648966558 0 0.64278761758704617 forward_v I I I I #
loop $-1 $-1 $339 $85 #
coedge $-1 $218 $218 $219 $340 reversed $135 $-1 #
coedge $-1 $219 $219 $218 $340 forward $137 $-1 #
coedge $-1 $220 $220 $138 $221 forward $215 $-1 #
edge $-1 $341 0 $341 6.2831853071796004 $220 $342 forward 7 unknown #
face $-1 $343 $344 $48 $-1 $345 forward single #
loop $-1 $-1 $346 $139 #
plane-surface $-1 -114.75656535259304 16.496119529230008 77.295720653452321 0 -1 0 0.64278761758704617 0 -0.76604443648966558 forward_v I I I I #
coedge $-1 $347 $348 $349 $350 reversed $140 $-1 #
coedge $-1 $227 $142 $351 $352 reversed $89 $-1 #
coedge $-1 $142 $226 $347 $353 reversed $89 $-1 #
coedge $-1 $349 $354 $142 $229 forward $344 $-1 #
edge $-1 $355 7.1692308863859395 $356 15.052286880108298 $228 $357 forward 7 unknown #
loop $-1 $-1 $235 $143 #
plane-surface $-1 -50.209051789910561 12.339907066944939 0.37099108328735042 -0.64278761758704617 0 0.76604443648966558 0.76604443648966558 0 0.64278761758704617 forward_v I I I I #
loop $-1 $-1 $358 $91 #
coedge $-1 $233 $233 $234 $359 reversed $144 $-1 #
coedge $-1 $234 $234 $233 $359 forward $146 $-1 #
coedge $-1 $235 $235 $147 $236 forward $230 $-1 #
edge $-1 $360 0 $360 6.2831853071796004 $235 $361 forward 7 unknown #
loop $-1 $-1 $242 $148 #
plane-surface $-1 -50.209051789910561 12.339907066944939 0.37099108328735042 -0.64278761758704617 0 0.76604443648966558 0.76604443648966558 0 0.64278761758704617 forward_v I I I I #
loop $-1 $-1 $362 $94 #
coedge $-1 $240 $240 $241 $363 reversed $149 $-1 #
coedge $-1 $241 $241 $240 $363 forward $151 $-1 #
coedge $-1 $242 $242 $152 $243 forward $237 $-1 #
edge $-1 $364 0 $364 6.2831853071796004 $242 $365 forward 7 unknown #
loop $-1 $-1 $249 $153 #
plane-surface $-1 -50.209051789910561 12.339907066944939 0.37099108328735042 -0.64278761758704617 0 0.76604443648966558 0.76604443648966558 0 0.64278761758704617 forward_v I I I I #
loop $-1 $-1 $366 $97 #
coedge $-1 $247 $247 $248 $367 reversed $154 $-1 #
coedge $-1 $248 $248 $247 $367 forward $156 $-1 #
coedge $-1 $249 $249 $157 $250 forward $244 $-1 #
edge $-1 $368 0 $368 6.2831853071796004 $249 $369 forward 7 unknown #
face $-1 $370 $371 $52 $-1 $372 reversed single #
loop $-1 $-1 $373 $158 #
plane-surface $-1 0 0 6.9856605987135918 0 0 1 1 0 0 forward_v I I I I #
coedge $-1 $374 $375 $376 $377 reversed $159 $-1 #
coedge $-1 $256 $161 $378 $379 reversed $101 $-1 #
coedge $-1 $161 $255 $374 $380 reversed $101 $-1 #
coedge $-1 $376 $381 $161 $258 forward $382 $-1 #
edge $-1 $383 64.053467833315594 $384 68.364343539737831 $257 $385 forward 7 unknown #
loop $-1 $-1 $264 $162 #
plane-surface $-1 -33.041328550226204 18.29301772192666 58.827876523921589 0.55919291073839883 0 0.82903756765294845 0.82903756765294845 0 -0.55919291073839883 forward_v I I I I #
loop $-1 $-1 $386 $103 #
coedge $-1 $262 $262 $263 $387 reversed $163 $-1 #
coedge $-1 $263 $263 $262 $387 forward $165 $-1 #
coedge $-1 $264 $264 $166 $265 forward $259 $-1 #
edge $-1 $388 0 $388 6.2831853071796004 $264 $389 forward 7 unknown #
loop $-1 $-1 $271 $167 #
plane-surface $-1 -33.041328550226204 18.29301772192666 58.827876523921589 0.55919291073839883 0 0.82903756765294845 0.82903756765294845 0 -0.55919291073839883 forward_v I I I I #
loop $-1 $-1 $390 $106 #
coedge $-1 $269 $269 $270 $391 reversed $168 $-1 #
coedge $-1 $270 $270 $269 $391 forward $170 $-1 #
coedge $-1 $271 $271 $171 $272 forward $266 $-1 #
edge $-1 $392 0 $392 6.2831853071796004 $271 $393 forward 7 unknown #
loop $-1 $-1 $278 $172 #
plane-surface $-1 -33.041328550226204 18.29301772192666 58.827876523921589 0.55919291073839883 0 0.82903756765294845 0.82903756765294845 0 -0.55919291073839883 forward_v I I I I #
loop $-1 $-1 $394 $109 #
coedge $-1 $276 $276 $277 $395 reversed $173 $-1 #
coedge $-1 $277 $277 $276 $395 forward $175 $-1 #
coedge $-1 $278 $278 $176 $279 forward $273 $-1 #
edge $-1 $396 0 $396 6.2831853071796004 $278 $397 forward 7 unknown #
face $-1 $398 $399 $42 $-1 $400 reversed single #
loop $-1 $-1 $401 $177 #
plane-surface $-1 -50.209051789910582 0 0 1 0 0 0 0 -1 forward_v I I I I #
coedge $-1 $402 $291 $403 $404 forward $178 $-1 #
coedge $-1 $405 $180 $402 $406 forward $113 $-1 #
coedge $-1 $180 $405 $407 $408 forward $113 $-1 #
coedge $-1 $294 $293 $180 $287 reversed $295 $-1 #
edge $-1 $409 -22.29703589924393 $410 22.29703589924393 $286 $411 forward 7 unknown #
coedge $-1 $182 $181 $412 $413 forward $71 $-1 #
coedge $-1 $414 $415 $181 $290 reversed $399 $-1 #
edge $-1 $297 -50.209051789910582 $416 50.209051789910582 $289 $417 forward 7 unknown #
coedge $-1 $283 $418 $182 $292 reversed $178 $-1 #
edge $-1 $419 -50.209051789910582 $296 50.209051789910582 $291 $420 forward 7 unknown #
coedge $-1 $286 $183 $418 $421 forward $295 $-1 #
coedge $-1 $183 $286 $414 $422 reversed $295 $-1 #
loop $-1 $-1 $293 $398 #
vertex $-1 $184 $423 #
vertex $-1 $184 $424 #
straight-curve $-1 50.209051789910582 0 6.9856605987135918 0 1 0 I I #
face $-1 $425 $426 $43 $-1 $427 reversed single #
loop $-1 $-1 $428 $185 #
plane-surface $-1 0 0 6.9856605987135918 0 0 1 1 0 0 forward_v I I I I #
coedge $-1 $429 $430 $431 $432 reversed $186 $-1 #
coedge $-1 $191 $188 $433 $434 reversed $117 $-1 #
coedge $-1 $188 $191 $435 $436 reversed $117 $-1 #
coedge $-1 $430 $429 $188 $306 reversed $186 $-1 #
edge $-1 $437 -6.9856605987135918 $438 6.9856605987135918 $305 $439 forward 7 unknown #
coedge $-1 $190 $189 $440 $441 reversed $74 $-1 #
coedge $-1 $433 $442 $189 $309 forward $426 $-1 #
edge $-1 $443 -13.227635125388728 $313 -4.911166422321676 $308 $444 forward 7 unknown #
coedge $-1 $445 $435 $190 $311 forward $300 $-1 #
edge $-1 $312 4.911166422321676 $446 13.227635125388728 $310 $447 forward 7 unknown #
vertex $-1 $311 $448 #
vertex $-1 $309 $449 #
straight-curve $-1 -48.626318085261445 -13.980567196176878 0 0 0 -1 I I #
face $-1 $-1 $327 $44 $-1 $450 forward single #
loop $-1 $-1 $451 $193 #
plane-surface $-1 -50.209051789910582 0 0 1 0 0 0 0 -1 forward_v I I I I #
coedge $-1 $452 $453 $454 $455 reversed $194 $-1 #
coedge $-1 $456 $196 $198 $325 forward $121 $-1 #
coedge $-1 $196 $456 $452 $457 forward $121 $-1 #
coedge $-1 $454 $199 $196 $322 forward $327 $-1 #
edge $-1 $329 -7.0556597026678016 $458 1.2567652219023326 $321 $459 forward 7 unknown #
coedge $-1 $460 $461 $197 $324 forward $316 $-1 #
edge $-1 $462 -38.276869243438831 $328 -31.662199728012567 $323 $463 forward 7 unknown #
edge $-1 $329 -10.290598845474005 $462 2.7818784857639469e-014 $198 $464 forward 7 unknown #
coedge $-1 $199 $454 $460 $465 forward $327 $-1 #
loop $-1 $-1 $454 $315 #
vertex $-1 $324 $466 #
vertex $-1 $200 $467 #
straight-curve $-1 -57.378282676296521 -9.9551069430505361 6.9856605987135936 1 0 0 I I #
coedge $-1 $331 $331 $-1 $468 reversed $203 $-1 #
edge $-1 $469 0 $469 6.2831853071796004 $204 $470 forward 7 unknown #
vertex $-1 $207 $471 #
ellipse-curve $-1 -46.267523793049406 -8.2926219581365075 3.6783258410004604 -0.64278761758704617 0 0.76604443648966558 0.1915111091224164 0 0.16069690439676154 1 I I #
coedge $-1 $335 $335 $-1 $472 reversed $210 $-1 #
edge $-1 $473 0 $473 6.2831853071796004 $211 $474 forward 7 unknown #
vertex $-1 $214 $475 #
ellipse-curve $-1 -46.267523793049406 -5.798894480765469 3.6783258410004604 -0.64278761758704617 0 0.76604443648966558 0.1915111091224164 0 0.16069690439676154 1 I I #
coedge $-1 $339 $339 $-1 $476 reversed $217 $-1 #
edge $-1 $477 0 $477 6.2831853071796004 $218 $478 forward 7 unknown #
vertex $-1 $221 $479 #
ellipse-curve $-1 -46.267523793049406 -3.3051670033944305 3.6783258410004604 -0.64278761758704617 0 0.76604443648966558 0.1915111091224164 0 0.16069690439676154 1 I I #
face $-1 $-1 $480 $48 $-1 $481 reversed single #
loop $-1 $-1 $228 $222 #
plane-surface $-1 0 0 6.9856605987135918 0 0 1 1 0 0 forward_v I I I I #
coedge $-1 $482 $483 $484 $485 reversed $223 $-1 #
coedge $-1 $486 $225 $227 $353 forward $140 $-1 #
coedge $-1 $225 $486 $482 $487 forward $140 $-1 #
coedge $-1 $484 $228 $225 $350 forward $344 $-1 #
edge $-1 $356 2.0137410711874022 $488 10.326165995757538 $349 $489 forward 7 unknown #
coedge $-1 $490 $491 $226 $352 forward $480 $-1 #
edge $-1 $492 -38.276869243438831 $355 -31.662199728012567 $351 $493 forward 7 unknown #
edge $-1 $356 -10.290598845474005 $492 2.7818784857639469e-014 $227 $494 forward 7 unknown #
coedge $-1 $228 $484 $490 $495 forward $344 $-1 #
vertex $-1 $352 $496 #
vertex $-1 $229 $497 #
straight-curve $-1 -57.378282676296521 8.1836946046598715 6.9856605987135936 1 0 0 I I #
coedge $-1 $358 $358 $-1 $498 reversed $232 $-1 #
edge $-1 $499 0 $499 6.2831853071796004 $233 $500 forward 7 unknown #
vertex $-1 $236 $501 #
ellipse-curve $-1 -46.267523793049406 9.8461795895739002 3.6783258410004604 -0.64278761758704617 0 0.76604443648966558 0.1915111091224164 0 0.16069690439676154 1 I I #
coedge $-1 $362 $362 $-1 $502 reversed $239 $-1 #
edge $-1 $503 0 $503 6.2831853071796004 $240 $504 forward 7 unknown #
vertex $-1 $243 $505 #
ellipse-curve $-1 -46.267523793049406 12.339907066944939 3.6783258410004604 -0.64278761758704617 0 0.76604443648966558 0.1915111091224164 0 0.16069690439676154 1 I I #
coedge $-1 $366 $366 $-1 $506 reversed $246 $-1 #
edge $-1 $507 0 $507 6.2831853071796004 $247 $508 forward 7 unknown #
vertex $-1 $250 $509 #
ellipse-curve $-1 -46.267523793049406 14.833634544315977 3.6783258410004604 -0.64278761758704617 0 0.76604443648966558 0.1915111091224164 0 0.16069690439676154 1 I I #
face $-1 $-1 $382 $52 $-1 $510 reversed single #
loop $-1 $-1 $511 $251 #
plane-surface $-1 0 22.29703589924393 0 0 -1 0 0 0 -1 forward_v I I I I #
coedge $-1 $378 $512 $513 $514 forward $252 $-1 #
coedge $-1 $513 $254 $256 $380 forward $159 $-1 #
coedge $-1 $254 $513 $511 $515 reversed $159 $-1 #
coedge $-1 $516 $257 $254 $377 forward $382 $-1 #
edge $-1 $384 5.1424906836460593 $517 13.1505270382806 $376 $518 forward 7 unknown #
coedge $-1 $519 $373 $255 $379 forward $252 $-1 #
edge $-1 $520 32.262034307611472 $383 38.653170249208571 $378 $521 forward 7 unknown #
edge $-1 $384 -100.41810357982118 $520 -92.709000650154479 $256 $522 forward 7 unknown #
coedge $-1 $257 $516 $519 $523 reversed $382 $-1 #
loop $-1 $-1 $376 $370 #
vertex $-1 $523 $524 #
vertex $-1 $258 $525 #
straight-curve $-1 50.209051789910582 14.288999544609389 71.039128432029187 0 0 -1 I I #
coedge $-1 $386 $386 $-1 $526 reversed $261 $-1 #
edge $-1 $527 0 $527 6.2831853071796004 $262 $528 forward 7 unknown #
vertex $-1 $265 $529 #
ellipse-curve $-1 47.013483819112047 15.890606815536295 4.8302227455024731 0.55919291073839883 0 0.82903756765294845 0.41451878382647422 0 -0.27959645536919941 1 I I #
coedge $-1 $390 $390 $-1 $530 reversed $268 $-1 #
edge $-1 $531 0 $531 6.2831853071796004 $269 $532 forward 7 unknown #
vertex $-1 $272 $533 #
ellipse-curve $-1 47.013483819112047 18.29301772192666 4.8302227455024731 0.55919291073839883 0 0.82903756765294845 0.41451878382647422 0 -0.27959645536919941 1 I I #
coedge $-1 $394 $394 $-1 $534 reversed $275 $-1 #
edge $-1 $535 0 $535 6.2831853071796004 $276 $536 forward 7 unknown #
vertex $-1 $279 $537 #
ellipse-curve $-1 47.013483819112047 20.695428628317025 4.8302227455024731 0.55919291073839883 0 0.82903756765294845 0.41451878382647422 0 -0.27959645536919941 1 I I #
face $-1 $-1 $295 $42 $-1 $538 reversed single #
loop $-1 $-1 $414 $280 #
plane-surface $-1 0 22.29703589924393 0 0 -1 0 0 0 -1 forward_v I I I I #
coedge $-1 $539 $412 $415 $540 forward $281 $-1 #
coedge $-1 $418 $283 $284 $406 reversed $178 $-1 #
coedge $-1 $412 $539 $283 $404 reversed $281 $-1 #
edge $-1 $419 -6.9856605987135918 $541 6.9856605987135918 $403 $542 forward 7 unknown #
coedge $-1 $285 $284 $539 $543 forward $113 $-1 #
edge $-1 $410 -50.209051789910582 $541 50.209051789910582 $402 $544 forward 7 unknown #
coedge $-1 $415 $414 $285 $408 reversed $399 $-1 #
edge $-1 $545 -50.209051789910582 $409 50.209051789910582 $407 $546 forward 7 unknown #
vertex $-1 $287 $547 #
vertex $-1 $421 $548 #
straight-curve $-1 50.209051789910582 0 -6.9856605987135918 0 -1 0 I I #
coedge $-1 $401 $403 $288 $413 reversed $281 $-1 #
edge $-1 $416 -22.29703589924393 $419 22.29703589924393 $412 $549 forward 7 unknown #
coedge $-1 $407 $289 $294 $422 forward $399 $-1 #
coedge $-1 $289 $407 $401 $540 reversed $399 $-1 #
vertex $-1 $290 $550 #
straight-curve $-1 0 22.29703589924393 6.9856605987135918 -1 0 0 I I #
coedge $-1 $291 $402 $293 $421 reversed $178 $-1 #
vertex $-1 $413 $551 #
straight-curve $-1 0 -22.29703589924393 6.9856605987135918 1 0 0 I I #
edge $-1 $296 -6.9856605987135918 $410 6.9856605987135918 $293 $552 forward 7 unknown #
edge $-1 $297 -6.9856605987135918 $409 6.9856605987135918 $294 $553 forward 7 unknown #
point $-1 50.209051789910582 -22.29703589924393 6.9856605987135918 #
point $-1 50.209051789910582 22.29703589924393 6.9856605987135918 #
face $-1 $-1 $554 $43 $-1 $555 reversed single #
loop $-1 $-1 $556 $299 #
plane-surface $-1 0 0 -6.9856605987135918 0 0 1 1 0 0 forward_v I I I I #
coedge $-1 $435 $445 $430 $557 forward $300 $-1 #
coedge $-1 $305 $302 $556 $558 reversed $186 $-1 #
coedge $-1 $302 $305 $428 $557 reversed $186 $-1 #
coedge $-1 $559 $560 $302 $432 forward $554 $-1 #
edge $-1 $561 -6.9856605987135918 $562 6.9856605987135918 $431 $563 forward 7 unknown #
coedge $-1 $556 $308 $303 $434 forward $426 $-1 #
edge $-1 $313 -25.063159042630723 $438 -22.063159042630723 $433 $564 forward 7 unknown #
coedge $-1 $310 $428 $304 $436 forward $300 $-1 #
edge $-1 $437 22.063159042630723 $312 25.063159042630723 $435 $565 forward 7 unknown #
vertex $-1 $436 $566 #
vertex $-1 $434 $567 #
straight-curve $-1 -45.626318085261445 -13.980567196176878 0 0 0 -1 I I #
coedge $-1 $560 $559 $307 $441 forward $554 $-1 #
edge $-1 $446 -6.9856605987135918 $443 6.9856605987135918 $440 $568 forward 7 unknown #
coedge $-1 $308 $556 $560 $569 forward $426 $-1 #
vertex $-1 $309 $570 #
straight-curve $-1 -48.626318085261445 -9.069400773855202 -6.9856605987135918 0 1 0 I I #
coedge $-1 $428 $310 $559 $571 forward $300 $-1 #
vertex $-1 $571 $572 #
straight-curve $-1 -48.626318085261445 -9.069400773855202 6.9856605987135918 0 -1 0 I I #
point $-1 -48.626318085261445 -13.980567196176878 6.9856605987135918 #
point $-1 -48.626318085261445 -13.980567196176878 -6.9856605987135918 #
plane-surface $-1 0 0 6.9856605987135918 0 0 1 1 0 0 forward_v I I I I #
coedge $-1 $461 $460 $453 $573 forward $316 $-1 #
coedge $-1 $453 $318 $320 $457 reversed $194 $-1 #
coedge $-1 $318 $452 $451 $573 reversed $194 $-1 #
coedge $-1 $326 $321 $318 $455 forward $327 $-1 #
edge $-1 $458 -15.052286880108298 $574 -7.1692308863859395 $454 $575 forward 7 unknown #
coedge $-1 $320 $319 $461 $576 reversed $121 $-1 #
edge $-1 $577 -2.7818784857639469e-014 $458 10.290598845474005 $452 $578 forward 7 unknown #
vertex $-1 $322 $579 #
straight-curve $-1 -42.325995796188224 -2.8994472403827345 6.9856605987135927 0 1 0 I I #
coedge $-1 $451 $323 $326 $465 reversed $316 $-1 #
coedge $-1 $323 $451 $456 $576 forward $316 $-1 #
vertex $-1 $324 $580 #
straight-curve $-1 -50.209051789910582 -9.9551069430505361 38.64786032672616 0 0 1 I I #
straight-curve $-1 -50.209051789910561 -9.9551069430505361 0.37099108328735042 -0.76604443648966558 0 -0.64278761758704617 I I #
edge $-1 $574 1.6426820184804019 $328 9.9551069430505361 $460 $581 forward 7 unknown #
point $-1 -50.209051789910582 -9.9551069430505361 6.9856605987135918 #
point $-1 -42.325995796188224 -9.9551069430505361 6.9856605987135918 #
edge $-1 $582 1 $582 0 $331 $-1 forward 7 unknown #
vertex $-1 $332 $583 #
ellipse-curve $-1 -45.624736175462367 -8.2926219581365075 2.9122814045108036 -0.64278761758704617 0 0.76604443648966558 0.1915111091224164 0 0.16069690439676154 1 I I #
point $-1 -46.076012683926997 -8.2926219581365075 3.839022745397231 #
edge $-1 $584 1 $584 0 $335 $-1 forward 7 unknown #
vertex $-1 $336 $585 #
ellipse-curve $-1 -45.624736175462367 -5.798894480765469 2.9122814045108036 -0.64278761758704617 0 0.76604443648966558 0.1915111091224164 0 0.16069690439676154 1 I I #
point $-1 -46.076012683926997 -5.798894480765469 3.839022745397231 #
edge $-1 $586 1 $586 0 $339 $-1 forward 7 unknown #
vertex $-1 $340 $587 #
ellipse-curve $-1 -45.624736175462367 -3.3051670033944305 2.9122814045108036 -0.64278761758704617 0 0.76604443648966558 0.1915111091224164 0 0.16069690439676154 1 I I #
point $-1 -46.076012683926997 -3.3051670033944305 3.839022745397231 #
loop $-1 $-1 $351 $343 #
plane-surface $-1 -50.209051789910582 0 0 1 0 0 0 0 -1 forward_v I I I I #
coedge $-1 $483 $346 $348 $487 reversed $223 $-1 #
coedge $-1 $346 $482 $588 $589 reversed $223 $-1 #
coedge $-1 $354 $349 $346 $485 forward $344 $-1 #
edge $-1 $488 -15.052286880108298 $590 -7.1692308863859395 $484 $591 forward 7 unknown #
coedge $-1 $348 $347 $491 $592 reversed $140 $-1 #
edge $-1 $593 -2.7818784857639469e-014 $488 10.290598845474005 $482 $594 forward 7 unknown #
vertex $-1 $350 $595 #
straight-curve $-1 -42.325995796188224 6.1699535334724693 6.9856605987135927 0 1 0 I I #
coedge $-1 $588 $351 $354 $495 reversed $480 $-1 #
coedge $-1 $351 $588 $486 $592 forward $480 $-1 #
vertex $-1 $352 $596 #
straight-curve $-1 -50.209051789910582 8.1836946046598715 38.64786032672616 0 0 1 I I #
straight-curve $-1 -50.209051789910561 8.1836946046598715 0.37099108328735042 -0.76604443648966558 0 -0.64278761758704617 I I #
edge $-1 $590 -16.496119529230008 $355 -8.1836946046598715 $490 $597 forward 7 unknown #
point $-1 -50.209051789910582 8.1836946046598715 6.9856605987135918 #
point $-1 -42.325995796188224 8.1836946046598715 6.9856605987135918 #
edge $-1 $598 1 $598 0 $358 $-1 forward 7 unknown #
vertex $-1 $359 $599 #
ellipse-curve $-1 -45.624736175462367 9.8461795895739002 2.9122814045108036 -0.64278761758704617 0 0.76604443648966558 0.1915111091224164 0 0.16069690439676154 1 I I #
point $-1 -46.076012683926997 9.8461795895739002 3.839022745397231 #
edge $-1 $600 1 $600 0 $362 $-1 forward 7 unknown #
vertex $-1 $363 $601 #
ellipse-curve $-1 -45.624736175462367 12.339907066944939 2.9122814045108036 -0.64278761758704617 0 0.76604443648966558 0.1915111091224164 0 0.16069690439676154 1 I I #
point $-1 -46.076012683926997 12.339907066944939 3.839022745397231 #
edge $-1 $602 1 $602 0 $366 $-1 forward 7 unknown #
vertex $-1 $367 $603 #
ellipse-curve $-1 -45.624736175462367 14.833634544315977 2.9122814045108036 -0.64278761758704617 0 0.76604443648966558 0.1915111091224164 0 0.16069690439676154 1 I I #
point $-1 -46.076012683926997 14.833634544315977 3.839022745397231 #
plane-surface $-1 50.209051789910582 0 0 -1 0 0 0 0 1 forward_v I I I I #
coedge $-1 $604 $605 $375 $515 forward $371 $-1 #
coedge $-1 $373 $519 $604 $606 forward $252 $-1 #
coedge $-1 $375 $374 $373 $514 reversed $159 $-1 #
edge $-1 $607 -13.1505270382806 $520 -5.1424906836460593 $373 $608 forward 7 unknown #
edge $-1 $517 -70.273786500185025 $607 -62.564683570518326 $511 $609 forward 7 unknown #
coedge $-1 $381 $376 $605 $610 reversed $382 $-1 #
vertex $-1 $377 $611 #
straight-curve $-1 50.209051789910575 9.1465088609633298 2.6747848922913562 0 1 0 I I #
coedge $-1 $512 $378 $381 $523 forward $252 $-1 #
vertex $-1 $379 $612 #
straight-curve $-1 11.555881540702014 14.288999544609389 6.9856605987135936 1 0 0 I I #
straight-curve $-1 -33.041328550226204 14.288999544609389 58.827876523921589 -0.82903756765294845 0 0.55919291073839883 I I #
edge $-1 $383 14.288999544609389 $613 22.29703589924393 $381 $614 forward 7 unknown #
point $-1 50.209051789910582 14.288999544609389 6.9856605987135918 #
point $-1 50.209051789910582 14.288999544609389 2.6747848922913562 #
edge $-1 $615 1 $615 0 $386 $-1 forward 7 unknown #
vertex $-1 $387 $616 #
ellipse-curve $-1 46.363782787334159 15.890606815536295 3.8670013728003294 0.55919291073839883 0 0.82903756765294845 0.41451878382647422 0 -0.27959645536919941 1 I I #
point $-1 47.428002602938527 15.890606815536295 4.5506262901332875 #
edge $-1 $617 1 $617 0 $390 $-1 forward 7 unknown #
vertex $-1 $391 $618 #
ellipse-curve $-1 46.363782787334159 18.29301772192666 3.8670013728003294 0.55919291073839883 0 0.82903756765294845 0.41451878382647422 0 -0.27959645536919941 1 I I #
point $-1 47.428002602938527 18.29301772192666 4.5506262901332875 #
edge $-1 $619 1 $619 0 $394 $-1 forward 7 unknown #
vertex $-1 $395 $620 #
ellipse-curve $-1 46.363782787334159 20.695428628317025 3.8670013728003294 0.55919291073839883 0 0.82903756765294845 0.41451878382647422 0 -0.27959645536919941 1 I I #
point $-1 47.428002602938527 20.695428628317025 4.5506262901332875 #
plane-surface $-1 50.209051789910582 0 0 -1 0 0 0 0 1 forward_v I I I I #
coedge $-1 $403 $401 $405 $543 reversed $281 $-1 #
edge $-1 $416 -6.9856605987135918 $545 6.9856605987135918 $415 $621 forward 7 unknown #
vertex $-1 $543 $622 #
straight-curve $-1 -50.209051789910582 -22.29703589924393 0 0 0 -1 I I #
edge $-1 $541 -22.29703589924393 $545 22.29703589924393 $539 $623 forward 7 unknown #
straight-curve $-1 0 -22.29703589924393 -6.9856605987135918 -1 0 0 I I #
vertex $-1 $408 $624 #
straight-curve $-1 0 22.29703589924393 -6.9856605987135918 1 0 0 I I #
point $-1 50.209051789910582 22.29703589924393 -6.9856605987135918 #
point $-1 50.209051789910582 -22.29703589924393 -6.9856605987135918 #
straight-curve $-1 -50.209051789910582 0 6.9856605987135918 0 -1 0 I I #
point $-1 -50.209051789910582 22.29703589924393 6.9856605987135918 #
point $-1 -50.209051789910582 -22.29703589924393 6.9856605987135918 #
straight-curve $-1 50.209051789910582 -22.29703589924393 0 0 0 -1 I I #
straight-curve $-1 50.209051789910582 22.29703589924393 0 0 0 -1 I I #
loop $-1 $-1 $431 $425 #
plane-surface $-1 0 -22.29703589924393 0 0 1 0 0 0 1 forward_v I I I I #
coedge $-1 $442 $433 $429 $558 forward $426 $-1 #
edge $-1 $562 -13.227635125388728 $437 -4.911166422321676 $428 $625 forward 7 unknown #
edge $-1 $438 4.911166422321676 $561 13.227635125388728 $556 $626 forward 7 unknown #
coedge $-1 $440 $431 $445 $571 reversed $554 $-1 #
coedge $-1 $431 $440 $442 $569 reversed $554 $-1 #
vertex $-1 $569 $627 #
vertex $-1 $432 $628 #
straight-curve $-1 -45.626318085261445 -22.29703589924393 0 0 0 1 I I #
straight-curve $-1 -23.563159042630723 -13.980567196176878 -6.9856605987135918 1 0 0 I I #
straight-curve $-1 -23.563159042630723 -13.980567196176878 6.9856605987135918 -1 0 0 I I #
point $-1 -45.626318085261445 -13.980567196176878 6.9856605987135918 #
point $-1 -45.626318085261445 -13.980567196176878 -6.9856605987135918 #
straight-curve $-1 -48.626318085261445 -22.29703589924393 0 0 0 -1 I I #
edge $-1 $561 45.626318085261445 $443 48.626318085261445 $560 $629 forward 7 unknown #
point $-1 -48.626318085261445 -22.29703589924393 -6.9856605987135918 #
edge $-1 $446 -48.626318085261445 $562 -45.626318085261445 $559 $630 forward 7 unknown #
point $-1 -48.626318085261445 -22.29703589924393 6.9856605987135918 #
edge $-1 $574 31.662199728012567 $577 38.276869243438831 $451 $631 forward 7 unknown #
vertex $-1 $465 $632 #
straight-curve $-1 -57.378282676296521 -1.6426820184804019 6.9856605987135936 -1 0 0 I I #
edge $-1 $577 -1.2567652219023326 $462 7.0556597026678016 $461 $633 forward 7 unknown #
vertex $-1 $576 $634 #
straight-curve $-1 -50.209051789910561 -1.6426820184804019 0.37099108328735042 0.76604443648966558 0 0.64278761758704617 I I #
point $-1 -42.325995796188224 -1.6426820184804019 6.9856605987135918 #
point $-1 -50.209051789910582 -9.9551069430505361 0.37099108328733255 #
straight-curve $-1 -50.209051789910582 0 6.9856605987135918 0 -1 0 I I #
vertex $-1 $468 $635 #
point $-1 -45.433225066339951 -8.2926219581365075 3.0729783089075653 #
vertex $-1 $472 $636 #
point $-1 -45.433225066339951 -5.798894480765469 3.0729783089075653 #
vertex $-1 $476 $637 #
point $-1 -45.433225066339951 -3.3051670033944305 3.0729783089075653 #
coedge $-1 $491 $490 $483 $589 forward $480 $-1 #
edge $-1 $590 31.662199728012567 $593 38.276869243438831 $588 $638 forward 7 unknown #
vertex $-1 $495 $639 #
straight-curve $-1 -57.378282676296521 16.496119529230008 6.9856605987135936 -1 0 0 I I #
edge $-1 $593 -10.326165995757538 $492 -2.0137410711874022 $491 $640 forward 7 unknown #
vertex $-1 $592 $641 #
straight-curve $-1 -50.209051789910561 16.496119529230008 0.37099108328735042 0.76604443648966558 0 0.64278761758704617 I I #
point $-1 -42.325995796188224 16.496119529230008 6.9856605987135918 #
point $-1 -50.209051789910582 8.1836946046598715 0.37099108328733255 #
straight-curve $-1 -50.209051789910582 0 6.9856605987135918 0 -1 0 I I #
vertex $-1 $498 $642 #
point $-1 -45.433225066339951 9.8461795895739002 3.0729783089075653 #
vertex $-1 $502 $643 #
point $-1 -45.433225066339951 12.339907066944939 3.0729783089075653 #
vertex $-1 $506 $644 #
point $-1 -45.433225066339951 14.833634544315977 3.0729783089075653 #
coedge $-1 $605 $511 $512 $606 reversed $371 $-1 #
coedge $-1 $511 $604 $516 $610 forward $371 $-1 #
edge $-1 $613 -50.209051789910582 $607 -43.817915848313483 $604 $645 forward 7 unknown #
vertex $-1 $515 $646 #
straight-curve $-1 43.81791584831349 9.1465088609633298 6.9856605987135936 0 -1 0 I I #
straight-curve $-1 -8.0505572399654248 22.29703589924393 41.971388113938623 -0.82903756765294845 0 0.55919291073839883 I I #
edge $-1 $613 -6.9856605987135918 $517 -2.6747848922913531 $516 $647 forward 7 unknown #
point $-1 50.209051789910582 22.29703589924393 2.6747848922913531 #
point $-1 43.817915848313483 14.288999544609389 6.9856605987135936 #
vertex $-1 $523 $648 #
straight-curve $-1 50.209051789910582 0 6.9856605987135918 0 1 0 I I #
vertex $-1 $526 $649 #
point $-1 46.778301571160632 15.890606815536295 3.58740491743113 #
vertex $-1 $530 $650 #
point $-1 46.778301571160632 18.29301772192666 3.58740491743113 #
vertex $-1 $534 $651 #
point $-1 46.778301571160632 20.695428628317025 3.58740491743113 #
straight-curve $-1 -50.209051789910582 22.29703589924393 0 0 0 -1 I I #
point $-1 -50.209051789910582 -22.29703589924393 -6.9856605987135918 #
straight-curve $-1 -50.209051789910582 0 -6.9856605987135918 0 1 0 I I #
point $-1 -50.209051789910582 22.29703589924393 -6.9856605987135918 #
straight-curve $-1 -45.626318085261445 -9.069400773855202 6.9856605987135918 0 1 0 I I #
straight-curve $-1 -45.626318085261445 -9.069400773855202 -6.9856605987135918 0 -1 0 I I #
point $-1 -45.626318085261445 -22.29703589924393 -6.9856605987135918 #
point $-1 -45.626318085261445 -22.29703589924393 6.9856605987135918 #
straight-curve $-1 0 -22.29703589924393 -6.9856605987135918 -1 0 0 I I #
straight-curve $-1 0 -22.29703589924393 6.9856605987135918 1 0 0 I I #
straight-curve $-1 -50.209051789910582 -1.6426820184804019 38.64786032672616 0 0 -1 I I #
point $-1 -50.209051789910582 -1.6426820184804019 6.9856605987135918 #
straight-curve $-1 -50.209051789910582 -2.8994472403827345 0.37099108328733277 0 -1 0 I I #
point $-1 -50.209051789910582 -1.6426820184804019 0.37099108328733255 #
point $-1 -45.464039271065609 -8.2926219581365075 2.7207702953883874 #
point $-1 -45.464039271065609 -5.798894480765469 2.7207702953883874 #
point $-1 -45.464039271065609 -3.3051670033944305 2.7207702953883874 #
straight-curve $-1 -50.209051789910582 16.496119529230008 38.64786032672616 0 0 -1 I I #
point $-1 -50.209051789910582 16.496119529230008 6.9856605987135918 #
straight-curve $-1 -50.209051789910582 6.1699535334724693 0.37099108328733277 0 -1 0 I I #
point $-1 -50.209051789910582 16.496119529230008 0.37099108328733255 #
point $-1 -45.464039271065609 9.8461795895739002 2.7207702953883874 #
point $-1 -45.464039271065609 12.339907066944939 2.7207702953883874 #
point $-1 -45.464039271065609 14.833634544315977 2.7207702953883874 #
straight-curve $-1 0 22.29703589924393 6.9856605987135918 -1 0 0 I I #
point $-1 43.817915848313483 22.29703589924393 6.9856605987135936 #
straight-curve $-1 50.209051789910582 22.29703589924393 0 0 0 -1 I I #
point $-1 50.209051789910582 22.29703589924393 6.9856605987135918 #
point $-1 46.084186331964958 15.890606815536295 3.4524825889738562 #
point $-1 46.084186331964958 18.29301772192666 3.4524825889738562 #
point $-1 46.084186331964958 20.695428628317025 3.4524825889738562 #
End-of-ACIS-data 