500 0 8 0           
7 Unknown 11 ACIS 5.0 NT 24 Thu Mar 25 19:37:07 1999 
-1 9.9999999999999995e-007 1e-010 
body $-1 $8 $-1 $9 #
body $-1 $10 $-1 $11 #
body $-1 $12 $-1 $13 #
body $-1 $14 $-1 $15 #
body $-1 $16 $-1 $17 #
body $-1 $18 $-1 $19 #
body $-1 $20 $-1 $21 #
body $-1 $22 $-1 $23 #
lump $-1 $-1 $24 $0 #
transform $-1 1 0 0 0 1 0 0 0 1 69.695730460524317 45.638611400870758 13.591578772335495 1 rotate no_reflect no_shear #
lump $-1 $-1 $25 $1 #
transform $-1 1 0 0 0 1 0 0 0 1 69.695730460524317 45.638611400870758 13.591578772335495 1 rotate no_reflect no_shear #
lump $-1 $-1 $26 $2 #
transform $-1 1 0 0 0 1 0 0 0 1 69.695730460524317 45.638611400870758 13.591578772335495 1 rotate no_reflect no_shear #
lump $-1 $-1 $27 $3 #
transform $-1 1 0 0 0 1 0 0 0 1 69.695730460524317 45.638611400870758 13.591578772335495 1 rotate no_reflect no_shear #
lump $-1 $-1 $28 $4 #
transform $-1 1 0 0 0 1 0 0 0 1 69.695730460524317 45.638611400870758 13.591578772335495 1 rotate no_reflect no_shear #
lump $-1 $-1 $29 $5 #
transform $-1 1 0 0 0 1 0 0 0 1 69.695730460524317 45.638611400870758 13.591578772335495 1 rotate no_reflect no_shear #
lump $-1 $-1 $30 $6 #
transform $-1 1 0 0 0 1 0 0 0 1 69.695730460524317 45.638611400870758 13.591578772335495 1 rotate no_reflect no_shear #
lump $-1 $-1 $31 $7 #
transform $-1 1 0 0 0 1 0 0 0 1 69.695730460524317 45.638611400870758 13.591578772335495 1 rotate no_reflect no_shear #
shell $-1 $-1 $-1 $32 $-1 $8 #
shell $-1 $-1 $-1 $33 $-1 $10 #
shell $-1 $-1 $-1 $34 $-1 $12 #
shell $-1 $-1 $-1 $35 $-1 $14 #
shell $-1 $-1 $-1 $36 $-1 $16 #
shell $-1 $-1 $-1 $37 $-1 $18 #
shell $-1 $-1 $-1 $38 $-1 $20 #
shell $-1 $-1 $-1 $39 $-1 $22 #
face $-1 $40 $41 $24 $-1 $42 forward single #
face $-1 $43 $44 $25 $-1 $45 forward single #
face $-1 $46 $47 $26 $-1 $48 reversed single #
face $-1 $49 $50 $27 $-1 $51 forward single #
face $-1 $52 $53 $28 $-1 $54 forward single #
face $-1 $55 $56 $29 $-1 $57 reversed single #
face $-1 $58 $59 $30 $-1 $60 forward single #
face $-1 $61 $62 $31 $-1 $63 forward single #
face $-1 $64 $65 $24 $-1 $66 reversed single #
loop $-1 $-1 $67 $32 #
plane-surface $-1 0 0 13.591578772335495 0 0 1 1 0 0 forward_v I I I I #
face $-1 $68 $69 $25 $-1 $70 reversed single #
loop $-1 $-1 $71 $33 #
plane-surface $-1 0 -40.986120284971818 12.59509920846817 0 0 1 1 0 0 forward_v I I I I #
face $-1 $72 $73 $26 $-1 $74 reversed single #
loop $-1 $-1 $75 $34 #
plane-surface $-1 -51.651771507163822 99.284714028813625 161.21212527553797 1 0 0 0 -0.78801076186113728 -0.61566146476048833 forward_v I I I I #
face $-1 $76 $77 $27 $-1 $78 forward single #
loop $-1 $79 $80 $35 #
cone-surface $-1 -43.187123265313716 39.827729816955411 7.0793385533583848 0 -0.78801076186113728 -0.61566146476048833 3 0 0 1 I I 0 1 3 forward I I I I #
face $-1 $81 $82 $28 $-1 $83 forward single #
loop $-1 $84 $85 $36 #
cone-surface $-1 -30.490150902538552 39.827729816955411 7.0793385533583848 0 -0.78801076186113728 -0.61566146476048833 3 0 0 1 I I 0 1 3 forward I I I I #
face $-1 $86 $87 $29 $-1 $88 reversed single #
loop $-1 $-1 $89 $37 #
plane-surface $-1 18.043958953360494 99.284714028813625 161.21212527553797 1 0 0 0 -0.78801076186113728 -0.61566146476048833 forward_v I I I I #
face $-1 $90 $91 $30 $-1 $92 forward single #
loop $-1 $93 $94 $38 #
cone-surface $-1 26.508607195210601 39.827729816955411 7.0793385533583848 0 -0.78801076186113728 -0.61566146476048833 3 0 0 1 I I 0 1 3 forward I I I I #
face $-1 $95 $96 $31 $-1 $97 forward single #
loop $-1 $98 $99 $39 #
cone-surface $-1 39.205579557985772 39.827729816955411 7.0793385533583848 0 -0.78801076186113728 -0.61566146476048833 3 0 0 1 I I 0 1 3 forward I I I I #
face $-1 $100 $101 $24 $-1 $102 reversed single #
loop $-1 $-1 $103 $40 #
plane-surface $-1 0 0 -13.591578772335495 0 0 1 1 0 0 forward_v I I I I #
coedge $-1 $104 $105 $106 $107 forward $41 $-1 #
face $-1 $108 $109 $25 $-1 $110 reversed single #
loop $-1 $-1 $111 $43 #
plane-surface $-1 0 -40.986120284971818 9.2975640992328792 0 0 1 1 0 0 forward_v I I I I #
coedge $-1 $112 $113 $114 $115 reversed $44 $-1 #
face $-1 $116 $117 $26 $-1 $118 reversed single #
loop $-1 $-1 $119 $46 #
plane-surface $-1 -36.83863708392613 -10.557257288518855 75.394174269780805 0 0.78801076186113728 0.61566146476048833 1 0 0 forward_v I I I I #
coedge $-1 $120 $121 $122 $123 reversed $47 $-1 #
face $-1 $-1 $124 $27 $-1 $125 forward single #
loop $-1 $126 $127 $49 #
cone-surface $-1 -43.187123265313716 36.790027330662895 4.7060253288024612 0 -0.78801076186113728 -0.61566146476048833 1.5 0 0 1 I I -0.70710678118654757 0.70710678118654757 1.5 forward I I I I #
loop $-1 $-1 $128 $35 #
coedge $-1 $80 $80 $129 $130 reversed $50 $-1 #
face $-1 $-1 $131 $28 $-1 $132 forward single #
loop $-1 $133 $134 $52 #
cone-surface $-1 -30.490150902538552 36.790027330662895 4.7060253288024612 0 -0.78801076186113728 -0.61566146476048833 1.5 0 0 1 I I -0.70710678118654757 0.70710678118654757 1.5 forward I I I I #
loop $-1 $-1 $135 $36 #
coedge $-1 $85 $85 $136 $137 reversed $53 $-1 #
face $-1 $138 $139 $29 $-1 $140 reversed single #
loop $-1 $-1 $141 $55 #
plane-surface $-1 32.857093376598186 -10.557257288518855 75.394174269780805 0 0.78801076186113728 0.61566146476048833 1 0 0 forward_v I I I I #
coedge $-1 $142 $143 $144 $145 reversed $56 $-1 #
face $-1 $-1 $146 $30 $-1 $147 forward single #
loop $-1 $148 $149 $58 #
cone-surface $-1 26.508607195210601 36.790027330662895 4.7060253288024612 0 -0.78801076186113728 -0.61566146476048833 1.5 0 0 1 I I -0.70710678118654757 0.70710678118654757 1.5 forward I I I I #
loop $-1 $-1 $150 $38 #
coedge $-1 $94 $94 $151 $152 reversed $59 $-1 #
face $-1 $-1 $153 $31 $-1 $154 forward single #
loop $-1 $155 $156 $61 #
cone-surface $-1 39.205579557985772 36.790027330662895 4.7060253288024612 0 -0.78801076186113728 -0.61566146476048833 1.5 0 0 1 I I -0.70710678118654757 0.70710678118654757 1.5 forward I I I I #
loop $-1 $-1 $157 $39 #
coedge $-1 $99 $99 $158 $159 reversed $62 $-1 #
face $-1 $160 $161 $24 $-1 $162 reversed single #
loop $-1 $-1 $163 $64 #
plane-surface $-1 0 -45.638611400870758 0 0 1 0 0 0 1 forward_v I I I I #
coedge $-1 $164 $165 $166 $167 forward $65 $-1 #
coedge $-1 $168 $67 $169 $170 forward $41 $-1 #
coedge $-1 $67 $168 $171 $172 forward $41 $-1 #
coedge $-1 $173 $174 $67 $107 reversed $175 $-1 #
edge $-1 $176 -45.638611400870758 $177 45.638611400870758 $106 $178 forward 7 unknown #
face $-1 $179 $180 $25 $-1 $181 reversed single #
loop $-1 $-1 $182 $68 #
plane-surface $-1 0 -36.333629169072879 10.946331653850525 0 -1 0 0 0 -1 forward_v I I I I #
coedge $-1 $183 $184 $185 $186 reversed $69 $-1 #
coedge $-1 $187 $71 $188 $189 forward $44 $-1 #
coedge $-1 $71 $187 $190 $191 reversed $44 $-1 #
coedge $-1 $192 $193 $71 $115 forward $194 $-1 #
edge $-1 $195 15.840569026586969 $196 25.145551258384849 $114 $197 forward 7 unknown #
face $-1 $198 $199 $26 $-1 $200 reversed single #
loop $-1 $-1 $201 $72 #
plane-surface $-1 -22.025502660688439 99.284714028813625 161.21212527553797 -1 0 0 0 0.78801076186113728 0.61566146476048833 forward_v I I I I #
coedge $-1 $202 $203 $204 $205 reversed $73 $-1 #
coedge $-1 $121 $75 $206 $207 reversed $47 $-1 #
coedge $-1 $75 $120 $202 $208 reversed $47 $-1 #
coedge $-1 $204 $209 $75 $123 forward $210 $-1 #
edge $-1 $211 4.0037456135360543 $212 11.914136094365112 $122 $213 forward 7 unknown #
loop $-1 $-1 $129 $76 #
plane-surface $-1 -36.83863708392613 -10.557257288518855 75.394174269780805 0 0.78801076186113728 0.61566146476048833 1 0 0 forward_v I I I I #
loop $-1 $-1 $214 $49 #
coedge $-1 $127 $127 $128 $215 reversed $77 $-1 #
coedge $-1 $128 $128 $127 $215 forward $79 $-1 #
coedge $-1 $129 $129 $80 $130 forward $124 $-1 #
edge $-1 $216 -6.4176899778845691e-016 $216 6.2831853071795996 $129 $217 forward 7 unknown #
loop $-1 $-1 $136 $81 #
plane-surface $-1 -36.83863708392613 -10.557257288518855 75.394174269780805 0 0.78801076186113728 0.61566146476048833 1 0 0 forward_v I I I I #
loop $-1 $-1 $218 $52 #
coedge $-1 $134 $134 $135 $219 reversed $82 $-1 #
coedge $-1 $135 $135 $134 $219 forward $84 $-1 #
coedge $-1 $136 $136 $85 $137 forward $131 $-1 #
edge $-1 $220 -6.4176899778845691e-016 $220 6.2831853071795996 $136 $221 forward 7 unknown #
face $-1 $222 $223 $29 $-1 $224 forward single #
loop $-1 $-1 $225 $86 #
plane-surface $-1 47.670227799835878 99.284714028813625 161.21212527553797 -1 0 0 0 0.78801076186113728 0.61566146476048833 forward_v I I I I #
coedge $-1 $226 $227 $228 $229 reversed $87 $-1 #
coedge $-1 $143 $89 $230 $231 reversed $56 $-1 #
coedge $-1 $89 $142 $226 $232 reversed $56 $-1 #
coedge $-1 $228 $233 $89 $145 forward $223 $-1 #
edge $-1 $234 4.0037456135360543 $235 11.914136094365112 $144 $236 forward 7 unknown #
loop $-1 $-1 $151 $90 #
plane-surface $-1 32.857093376598186 -10.557257288518855 75.394174269780805 0 0.78801076186113728 0.61566146476048833 1 0 0 forward_v I I I I #
loop $-1 $-1 $237 $58 #
coedge $-1 $149 $149 $150 $238 reversed $91 $-1 #
coedge $-1 $150 $150 $149 $238 forward $93 $-1 #
coedge $-1 $151 $151 $94 $152 forward $146 $-1 #
edge $-1 $239 -6.4176899778845691e-016 $239 6.2831853071795996 $151 $240 forward 7 unknown #
loop $-1 $-1 $158 $95 #
plane-surface $-1 32.857093376598186 -10.557257288518855 75.394174269780805 0 0.78801076186113728 0.61566146476048833 1 0 0 forward_v I I I I #
loop $-1 $-1 $241 $61 #
coedge $-1 $156 $156 $157 $242 reversed $96 $-1 #
coedge $-1 $157 $157 $156 $242 forward $98 $-1 #
coedge $-1 $158 $158 $99 $159 forward $153 $-1 #
edge $-1 $243 -6.4176899778845691e-016 $243 6.2831853071795996 $158 $244 forward 7 unknown #
face $-1 $245 $246 $24 $-1 $247 reversed single #
loop $-1 $-1 $248 $100 #
plane-surface $-1 -69.695730460524317 0 0 1 0 0 0 0 -1 forward_v I I I I #
coedge $-1 $249 $171 $250 $251 forward $101 $-1 #
coedge $-1 $252 $103 $249 $253 forward $65 $-1 #
coedge $-1 $103 $252 $254 $255 forward $65 $-1 #
coedge $-1 $174 $173 $103 $167 reversed $175 $-1 #
edge $-1 $256 -45.638611400870758 $257 45.638611400870758 $166 $258 forward 7 unknown #
coedge $-1 $105 $104 $259 $260 forward $41 $-1 #
coedge $-1 $261 $262 $104 $170 reversed $246 $-1 #
edge $-1 $177 -69.695730460524317 $263 69.695730460524317 $169 $264 forward 7 unknown #
coedge $-1 $163 $265 $105 $172 reversed $101 $-1 #
edge $-1 $266 -69.695730460524317 $176 69.695730460524317 $171 $267 forward 7 unknown #
coedge $-1 $166 $106 $265 $268 forward $175 $-1 #
coedge $-1 $106 $166 $261 $269 reversed $175 $-1 #
loop $-1 $-1 $173 $245 #
vertex $-1 $107 $270 #
vertex $-1 $107 $271 #
straight-curve $-1 69.695730460524317 0 13.591578772335495 0 1 0 I I #
face $-1 $272 $273 $25 $-1 $274 reversed single #
loop $-1 $-1 $275 $108 #
plane-surface $-1 -69.695730460524317 0 0 1 0 0 0 0 -1 forward_v I I I I #
coedge $-1 $276 $188 $193 $277 reversed $109 $-1 #
coedge $-1 $278 $111 $279 $280 reversed $69 $-1 #
coedge $-1 $111 $278 $276 $281 forward $69 $-1 #
coedge $-1 $193 $192 $111 $186 forward $194 $-1 #
edge $-1 $282 -25.145551258384849 $283 -15.840569026586969 $185 $284 forward 7 unknown #
coedge $-1 $113 $112 $275 $285 reversed $44 $-1 #
coedge $-1 $182 $286 $112 $189 reversed $109 $-1 #
edge $-1 $195 -69.695730460524317 $287 69.695730460524317 $188 $288 forward 7 unknown #
coedge $-1 $289 $290 $113 $191 forward $273 $-1 #
edge $-1 $196 -69.695730460524317 $291 69.695730460524317 $190 $292 forward 7 unknown #
coedge $-1 $185 $114 $290 $293 forward $194 $-1 #
coedge $-1 $114 $185 $182 $277 forward $194 $-1 #
loop $-1 $-1 $114 $272 #
vertex $-1 $115 $294 #
vertex $-1 $293 $295 #
straight-curve $-1 69.695730460524317 -20.493060142485909 12.59509920846817 0 -1 0 I I #
face $-1 $-1 $210 $26 $-1 $296 forward single #
loop $-1 $-1 $297 $116 #
plane-surface $-1 0 45.638611400870758 0 0 -1 0 0 0 -1 forward_v I I I I #
coedge $-1 $298 $299 $300 $301 reversed $117 $-1 #
coedge $-1 $302 $119 $121 $208 forward $73 $-1 #
coedge $-1 $119 $302 $298 $303 forward $73 $-1 #
coedge $-1 $300 $122 $119 $205 forward $210 $-1 #
edge $-1 $212 -33.232452965200757 $304 -3.6061841187253734 $204 $305 forward 7 unknown #
coedge $-1 $306 $307 $120 $207 forward $199 $-1 #
edge $-1 $308 -77.139322248557264 $211 -67.01448386543349 $206 $309 forward 7 unknown #
edge $-1 $212 78.428618603480601 $308 91.277222801741488 $121 $310 forward 7 unknown #
coedge $-1 $122 $300 $306 $311 forward $210 $-1 #
loop $-1 $-1 $300 $198 #
vertex $-1 $207 $312 #
vertex $-1 $123 $313 #
straight-curve $-1 -51.651771507163822 49.642357014406812 13.591578772335495 0 -1 0 I I #
coedge $-1 $214 $214 $-1 $314 reversed $126 $-1 #
edge $-1 $315 0 $315 6.2831853071796004 $127 $316 forward 7 unknown #
vertex $-1 $130 $317 #
ellipse-curve $-1 -43.187123265313716 41.68341616045624 8.5291595807735909 0 0.78801076186113728 0.61566146476048833 3 0 0 1 I I #
coedge $-1 $218 $218 $-1 $318 reversed $133 $-1 #
edge $-1 $319 0 $319 6.2831853071796004 $134 $320 forward 7 unknown #
vertex $-1 $137 $321 #
ellipse-curve $-1 -30.490150902538552 41.68341616045624 8.5291595807735909 0 0.78801076186113728 0.61566146476048833 3 0 0 1 I I #
face $-1 $-1 $322 $29 $-1 $323 reversed single #
loop $-1 $-1 $144 $138 #
plane-surface $-1 0 0 13.591578772335495 0 0 1 1 0 0 forward_v I I I I #
coedge $-1 $324 $325 $326 $327 reversed $139 $-1 #
coedge $-1 $328 $141 $143 $232 forward $87 $-1 #
coedge $-1 $141 $328 $324 $329 forward $87 $-1 #
coedge $-1 $326 $144 $141 $229 forward $223 $-1 #
edge $-1 $235 1.6154122650614013 $330 31.241681111536785 $228 $331 forward 7 unknown #
coedge $-1 $332 $333 $142 $231 forward $322 $-1 #
edge $-1 $334 -77.139322248557264 $234 -67.01448386543349 $230 $335 forward 7 unknown #
edge $-1 $235 78.428618603480601 $334 91.277222801741488 $143 $336 forward 7 unknown #
coedge $-1 $144 $326 $332 $337 forward $223 $-1 #
vertex $-1 $145 $338 #
vertex $-1 $145 $339 #
straight-curve $-1 18.043958953360494 49.642357014406812 13.591578772335495 0 -1 0 I I #
coedge $-1 $237 $237 $-1 $340 reversed $148 $-1 #
edge $-1 $341 0 $341 6.2831853071796004 $149 $342 forward 7 unknown #
vertex $-1 $152 $343 #
ellipse-curve $-1 26.508607195210601 41.68341616045624 8.5291595807735909 0 0.78801076186113728 0.61566146476048833 3 0 0 1 I I #
coedge $-1 $241 $241 $-1 $344 reversed $155 $-1 #
edge $-1 $345 0 $345 6.2831853071796004 $156 $346 forward 7 unknown #
vertex $-1 $159 $347 #
ellipse-curve $-1 39.205579557985772 41.68341616045624 8.5291595807735909 0 0.78801076186113728 0.61566146476048833 3 0 0 1 I I #
face $-1 $-1 $175 $24 $-1 $348 reversed single #
loop $-1 $-1 $261 $160 #
plane-surface $-1 0 45.638611400870758 0 0 -1 0 0 0 -1 forward_v I I I I #
coedge $-1 $349 $259 $262 $350 forward $161 $-1 #
coedge $-1 $265 $163 $164 $253 reversed $101 $-1 #
coedge $-1 $259 $349 $163 $251 reversed $161 $-1 #
edge $-1 $266 -13.591578772335495 $351 13.591578772335495 $250 $352 forward 7 unknown #
coedge $-1 $165 $164 $349 $353 forward $65 $-1 #
edge $-1 $257 -69.695730460524317 $351 69.695730460524317 $249 $354 forward 7 unknown #
coedge $-1 $262 $261 $165 $255 reversed $246 $-1 #
edge $-1 $355 -69.695730460524317 $256 69.695730460524317 $254 $356 forward 7 unknown #
vertex $-1 $167 $357 #
vertex $-1 $268 $358 #
straight-curve $-1 69.695730460524317 0 -13.591578772335495 0 -1 0 I I #
coedge $-1 $248 $250 $168 $260 reversed $161 $-1 #
edge $-1 $263 -45.638611400870758 $266 45.638611400870758 $259 $359 forward 7 unknown #
coedge $-1 $254 $169 $174 $269 forward $246 $-1 #
coedge $-1 $169 $254 $248 $350 reversed $246 $-1 #
vertex $-1 $170 $360 #
straight-curve $-1 0 45.638611400870758 13.591578772335495 -1 0 0 I I #
coedge $-1 $171 $249 $173 $268 reversed $101 $-1 #
vertex $-1 $260 $361 #
straight-curve $-1 0 -45.638611400870758 13.591578772335495 1 0 0 I I #
edge $-1 $176 -13.591578772335495 $257 13.591578772335495 $173 $362 forward 7 unknown #
edge $-1 $177 -13.591578772335495 $256 13.591578772335495 $174 $363 forward 7 unknown #
point $-1 69.695730460524317 -45.638611400870758 13.591578772335495 #
point $-1 69.695730460524317 45.638611400870758 13.591578772335495 #
face $-1 $-1 $194 $25 $-1 $364 reversed single #
loop $-1 $-1 $190 $179 #
plane-surface $-1 0 -45.638611400870758 0 0 1 0 0 0 1 forward_v I I I I #
coedge $-1 $365 $366 $187 $285 forward $180 $-1 #
coedge $-1 $286 $182 $184 $281 reversed $109 $-1 #
edge $-1 $283 3.8243982723076169 $195 7.1219333815429078 $193 $367 forward 7 unknown #
coedge $-1 $184 $183 $368 $369 reversed $69 $-1 #
coedge $-1 $290 $289 $183 $280 forward $273 $-1 #
edge $-1 $370 -69.695730460524317 $282 69.695730460524317 $279 $371 forward 7 unknown #
edge $-1 $372 -69.695730460524317 $283 69.695730460524317 $276 $373 forward 7 unknown #
vertex $-1 $280 $374 #
vertex $-1 $186 $375 #
straight-curve $-1 69.695730460524317 -20.493060142485909 9.2975640992328792 0 1 0 I I #
edge $-1 $291 -25.145551258384849 $287 -15.840569026586969 $275 $376 forward 7 unknown #
coedge $-1 $188 $276 $365 $377 reversed $109 $-1 #
vertex $-1 $285 $378 #
straight-curve $-1 0 -36.333629169072879 12.59509920846817 -1 0 0 I I #
coedge $-1 $279 $190 $366 $379 forward $273 $-1 #
coedge $-1 $190 $279 $192 $293 reversed $273 $-1 #
vertex $-1 $379 $380 #
straight-curve $-1 0 -45.638611400870758 12.59509920846817 -1 0 0 I I #
edge $-1 $196 -12.59509920846817 $282 -9.2975640992328792 $192 $381 forward 7 unknown #
point $-1 69.695730460524317 -36.333629169072879 12.59509920846817 #
point $-1 69.695730460524317 -45.638611400870758 12.59509920846817 #
plane-surface $-1 0 0 13.591578772335495 0 0 1 1 0 0 forward_v I I I I #
coedge $-1 $307 $306 $299 $382 forward $199 $-1 #
coedge $-1 $299 $201 $203 $303 reversed $117 $-1 #
coedge $-1 $201 $298 $297 $382 reversed $117 $-1 #
coedge $-1 $209 $204 $201 $301 forward $210 $-1 #
edge $-1 $304 -11.914136094365112 $383 -4.0037456135360543 $300 $384 forward 7 unknown #
coedge $-1 $203 $202 $307 $385 reversed $73 $-1 #
edge $-1 $386 -91.277222801741488 $304 -78.428618603480601 $298 $387 forward 7 unknown #
vertex $-1 $205 $388 #
straight-curve $-1 -18.419318541963065 37.7282209200417 13.591578772335495 1 0 0 I I #
coedge $-1 $297 $206 $209 $311 reversed $199 $-1 #
coedge $-1 $206 $297 $302 $385 forward $199 $-1 #
vertex $-1 $207 $389 #
straight-curve $-1 -51.651771507163822 45.638611400870758 80.606062637768986 0 0 1 I I #
straight-curve $-1 -51.651771507163822 -10.557257288518855 75.394174269780805 0 0.61566146476048833 -0.78801076186113728 I I #
edge $-1 $383 22.025502660688439 $211 51.651771507163822 $306 $390 forward 7 unknown #
point $-1 -51.651771507163822 45.638611400870758 13.591578772335495 #
point $-1 -51.651771507163822 37.7282209200417 13.591578772335495 #
edge $-1 $391 1 $391 0 $214 $-1 forward 7 unknown #
vertex $-1 $215 $392 #
ellipse-curve $-1 -43.187123265313716 37.972043473454598 5.6295175259431938 0 0.78801076186113728 0.61566146476048833 3 0 0 1 I I #
point $-1 -40.187123265313716 41.683416160456218 8.5291595807735767 #
edge $-1 $393 1 $393 0 $218 $-1 forward 7 unknown #
vertex $-1 $219 $394 #
ellipse-curve $-1 -30.490150902538552 37.972043473454598 5.6295175259431938 0 0.78801076186113728 0.61566146476048833 3 0 0 1 I I #
point $-1 -27.490150902538552 41.683416160456218 8.5291595807735767 #
loop $-1 $-1 $230 $222 #
plane-surface $-1 0 45.638611400870758 0 0 -1 0 0 0 -1 forward_v I I I I #
coedge $-1 $325 $225 $227 $329 reversed $139 $-1 #
coedge $-1 $225 $324 $395 $396 reversed $139 $-1 #
coedge $-1 $233 $228 $225 $327 forward $223 $-1 #
edge $-1 $330 -11.914136094365112 $397 -4.0037456135360543 $326 $398 forward 7 unknown #
coedge $-1 $227 $226 $333 $399 reversed $87 $-1 #
edge $-1 $400 -91.277222801741488 $330 -78.428618603480601 $324 $401 forward 7 unknown #
vertex $-1 $229 $402 #
straight-curve $-1 16.428546688299093 37.7282209200417 13.591578772335495 1 0 0 I I #
coedge $-1 $395 $230 $233 $337 reversed $322 $-1 #
coedge $-1 $230 $395 $328 $399 forward $322 $-1 #
vertex $-1 $231 $403 #
straight-curve $-1 18.043958953360494 45.638611400870758 80.606062637768986 0 0 1 I I #
straight-curve $-1 18.043958953360494 -10.557257288518855 75.394174269780805 0 0.61566146476048833 -0.78801076186113728 I I #
edge $-1 $397 -47.670227799835878 $234 -18.043958953360494 $332 $404 forward 7 unknown #
point $-1 18.043958953360494 45.638611400870758 13.591578772335495 #
point $-1 18.043958953360494 37.7282209200417 13.591578772335495 #
edge $-1 $405 1 $405 0 $237 $-1 forward 7 unknown #
vertex $-1 $238 $406 #
ellipse-curve $-1 26.508607195210601 37.972043473454598 5.6295175259431938 0 0.78801076186113728 0.61566146476048833 3 0 0 1 I I #
point $-1 29.508607195210601 41.683416160456218 8.5291595807735767 #
edge $-1 $407 1 $407 0 $241 $-1 forward 7 unknown #
vertex $-1 $242 $408 #
ellipse-curve $-1 39.205579557985772 37.972043473454598 5.6295175259431938 0 0.78801076186113728 0.61566146476048833 3 0 0 1 I I #
point $-1 42.205579557985772 41.683416160456218 8.5291595807735767 #
plane-surface $-1 69.695730460524317 0 0 -1 0 0 0 0 1 forward_v I I I I #
coedge $-1 $250 $248 $252 $353 reversed $161 $-1 #
edge $-1 $263 -13.591578772335495 $355 13.591578772335495 $262 $409 forward 7 unknown #
vertex $-1 $353 $410 #
straight-curve $-1 -69.695730460524317 -45.638611400870758 0 0 0 -1 I I #
edge $-1 $351 -45.638611400870758 $355 45.638611400870758 $349 $411 forward 7 unknown #
straight-curve $-1 0 -45.638611400870758 -13.591578772335495 -1 0 0 I I #
vertex $-1 $255 $412 #
straight-curve $-1 0 45.638611400870758 -13.591578772335495 1 0 0 I I #
point $-1 69.695730460524317 45.638611400870758 -13.591578772335495 #
point $-1 69.695730460524317 -45.638611400870758 -13.591578772335495 #
straight-curve $-1 -69.695730460524317 0 13.591578772335495 0 -1 0 I I #
point $-1 -69.695730460524317 45.638611400870758 13.591578772335495 #
point $-1 -69.695730460524317 -45.638611400870758 13.591578772335495 #
straight-curve $-1 69.695730460524317 -45.638611400870758 0 0 0 -1 I I #
straight-curve $-1 69.695730460524317 45.638611400870758 0 0 0 -1 I I #
plane-surface $-1 69.695730460524317 0 0 -1 0 0 0 0 1 forward_v I I I I #
coedge $-1 $368 $275 $286 $377 forward $180 $-1 #
coedge $-1 $275 $368 $289 $379 reversed $180 $-1 #
straight-curve $-1 69.695730460524317 -36.333629169072879 5.4731658269252623 0 0 1 I I #
coedge $-1 $366 $365 $278 $369 forward $180 $-1 #
edge $-1 $372 15.840569026586969 $370 25.145551258384849 $368 $413 forward 7 unknown #
vertex $-1 $280 $414 #
straight-curve $-1 0 -45.638611400870758 9.2975640992328792 1 0 0 I I #
vertex $-1 $369 $415 #
straight-curve $-1 0 -36.333629169072879 9.2975640992328792 1 0 0 I I #
point $-1 69.695730460524317 -45.638611400870758 9.2975640992328792 #
point $-1 69.695730460524317 -36.333629169072879 9.2975640992328792 #
straight-curve $-1 -69.695730460524317 -20.493060142485909 12.59509920846817 0 1 0 I I #
edge $-1 $287 -7.1219333815429078 $372 -3.8243982723076169 $365 $416 forward 7 unknown #
point $-1 -69.695730460524317 -36.333629169072879 12.59509920846817 #
edge $-1 $291 -12.59509920846817 $370 -9.2975640992328792 $366 $417 forward 7 unknown #
point $-1 -69.695730460524317 -45.638611400870758 12.59509920846817 #
straight-curve $-1 69.695730460524317 -45.638611400870758 0 0 0 -1 I I #
edge $-1 $383 67.01448386543349 $386 77.139322248557264 $297 $418 forward 7 unknown #
vertex $-1 $311 $419 #
straight-curve $-1 -22.025502660688439 49.642357014406812 13.591578772335495 0 1 0 I I #
edge $-1 $386 3.6061841187253734 $308 33.232452965200757 $307 $420 forward 7 unknown #
vertex $-1 $385 $421 #
straight-curve $-1 -22.025502660688439 -10.557257288518855 75.394174269780805 0 -0.61566146476048833 0.78801076186113728 I I #
point $-1 -22.025502660688439 37.7282209200417 13.591578772335495 #
point $-1 -51.651771507163822 45.638611400870751 3.4667403892117221 #
straight-curve $-1 0 45.638611400870758 13.591578772335495 -1 0 0 I I #
vertex $-1 $314 $422 #
point $-1 -40.187123265313716 37.972043473454598 5.6295175259431938 #
vertex $-1 $318 $423 #
point $-1 -27.490150902538552 37.972043473454598 5.6295175259431938 #
coedge $-1 $333 $332 $325 $396 forward $322 $-1 #
edge $-1 $397 67.01448386543349 $400 77.139322248557264 $395 $424 forward 7 unknown #
vertex $-1 $337 $425 #
straight-curve $-1 47.670227799835878 49.642357014406812 13.591578772335495 0 1 0 I I #
edge $-1 $400 -31.241681111536785 $334 -1.6154122650614013 $333 $426 forward 7 unknown #
vertex $-1 $399 $427 #
straight-curve $-1 47.670227799835878 -10.557257288518855 75.394174269780805 0 -0.61566146476048833 0.78801076186113728 I I #
point $-1 47.670227799835878 37.7282209200417 13.591578772335495 #
point $-1 18.043958953360494 45.638611400870751 3.4667403892117221 #
straight-curve $-1 0 45.638611400870758 13.591578772335495 -1 0 0 I I #
vertex $-1 $340 $428 #
point $-1 29.508607195210601 37.972043473454598 5.6295175259431938 #
vertex $-1 $344 $429 #
point $-1 42.205579557985772 37.972043473454598 5.6295175259431938 #
straight-curve $-1 -69.695730460524317 45.638611400870758 0 0 0 -1 I I #
point $-1 -69.695730460524317 -45.638611400870758 -13.591578772335495 #
straight-curve $-1 -69.695730460524317 0 -13.591578772335495 0 1 0 I I #
point $-1 -69.695730460524317 45.638611400870758 -13.591578772335495 #
straight-curve $-1 -69.695730460524317 -20.493060142485909 9.2975640992328792 0 -1 0 I I #
point $-1 -69.695730460524317 -45.638611400870758 9.2975640992328792 #
point $-1 -69.695730460524317 -36.333629169072879 9.2975640992328792 #
straight-curve $-1 -69.695730460524317 -36.333629169072879 5.4731658269252623 0 0 -1 I I #
straight-curve $-1 -69.695730460524317 -45.638611400870758 0 0 0 -1 I I #
straight-curve $-1 -22.025502660688439 45.638611400870758 80.606062637768986 0 0 -1 I I #
point $-1 -22.025502660688439 45.638611400870758 13.591578772335495 #
straight-curve $-1 -18.419318541963065 45.638611400870758 3.4667403892117221 -1 0 0 I I #
point $-1 -22.025502660688439 45.638611400870751 3.4667403892117221 #
point $-1 -43.187123265313716 35.608011187871192 3.7825331316617286 #
point $-1 -30.490150902538552 35.608011187871192 3.7825331316617286 #
straight-curve $-1 47.670227799835878 45.638611400870758 80.606062637768986 0 0 -1 I I #
point $-1 47.670227799835878 45.638611400870758 13.591578772335495 #
straight-curve $-1 16.428546688299093 45.638611400870758 3.4667403892117221 -1 0 0 I I #
point $-1 47.670227799835878 45.638611400870751 3.4667403892117221 #
point $-1 26.508607195210601 35.608011187871192 3.7825331316617286 #
point $-1 39.205579557985772 35.608011187871192 3.7825331316617286 #
End-of-ACIS-data 