500 0 5 0           
7 Unknown 11 ACIS 5.0 NT 24 Fri Mar 26 14:53:15 1999 
-1 9.9999999999999995e-007 1e-010 
body $-1 $5 $-1 $6 #
body $-1 $7 $-1 $8 #
body $-1 $9 $-1 $10 #
body $-1 $11 $-1 $12 #
body $-1 $13 $-1 $14 #
lump $-1 $-1 $15 $0 #
transform $-1 1 0 0 0 1 0 0 0 1 60.442518387401961 25.207409612451634 5.7816183032435156 1 rotate no_reflect no_shear #
lump $-1 $-1 $16 $1 #
transform $-1 1 0 0 0 1 0 0 0 1 60.442518387401961 25.207409612451634 5.7816183032435156 1 rotate no_reflect no_shear #
lump $-1 $-1 $17 $2 #
transform $-1 1 0 0 0 1 0 0 0 1 60.442518387401961 25.207409612451634 5.7816183032435156 1 rotate no_reflect no_shear #
lump $-1 $-1 $18 $3 #
transform $-1 1 0 0 0 1 0 0 0 1 60.442518387401961 25.207409612451634 5.7816183032435156 1 rotate no_reflect no_shear #
lump $-1 $-1 $19 $4 #
transform $-1 1 0 0 0 1 0 0 0 1 60.442518387401961 25.207409612451634 5.7816183032435156 1 rotate no_reflect no_shear #
shell $-1 $-1 $-1 $20 $-1 $5 #
shell $-1 $-1 $-1 $21 $-1 $7 #
shell $-1 $-1 $-1 $22 $-1 $9 #
shell $-1 $-1 $-1 $23 $-1 $11 #
shell $-1 $-1 $-1 $24 $-1 $13 #
face $-1 $25 $26 $15 $-1 $27 forward single #
face $-1 $28 $29 $16 $-1 $30 forward single #
face $-1 $31 $32 $17 $-1 $33 reversed single #
face $-1 $34 $35 $18 $-1 $36 forward single #
face $-1 $37 $38 $19 $-1 $39 forward single #
face $-1 $40 $41 $15 $-1 $42 reversed single #
loop $-1 $-1 $43 $20 #
plane-surface $-1 0 0 5.7816183032435156 0 0 1 1 0 0 forward_v I I I I #
face $-1 $44 $45 $16 $-1 $46 reversed single #
loop $-1 $-1 $47 $21 #
plane-surface $-1 -58.409279191100289 0 -2.7816183032435156 0 0 1 1 0 0 forward_v I I I I #
face $-1 $48 $49 $17 $-1 $50 reversed single #
loop $-1 $-1 $51 $22 #
plane-surface $-1 30.756103510144342 17.369822478458865 169.56022062757754 0 1 0 0.57357644374324357 0 0.81915203911291934 forward_v I I I I #
face $-1 $52 $53 $18 $-1 $54 forward single #
loop $-1 $55 $56 $23 #
cone-surface $-1 56.081439847096902 19.609133088171085 1.9347961494856369 -0.57357644374324357 0 -0.81915203911291934 0.81915203911291934 0 -0.57357644374324357 1 I I 0 1 1 forward I I I I #
face $-1 $57 $58 $19 $-1 $59 forward single #
loop $-1 $60 $61 $24 #
cone-surface $-1 56.081439847096902 22.968099002739415 1.9347961494856369 -0.57357644374324357 0 -0.81915203911291934 0.81915203911291934 0 -0.57357644374324357 1 I I 0 1 1 forward I I I I #
face $-1 $62 $63 $15 $-1 $64 reversed single #
loop $-1 $-1 $65 $25 #
plane-surface $-1 0 0 -5.7816183032435156 0 0 1 1 0 0 forward_v I I I I #
coedge $-1 $66 $67 $68 $69 forward $26 $-1 #
face $-1 $70 $71 $16 $-1 $72 reversed single #
loop $-1 $-1 $73 $28 #
plane-surface $-1 -56.376039994798617 0 -4.2816183032435156 -1 0 0 0 0 1 forward_v I I I I #
coedge $-1 $74 $75 $76 $77 forward $29 $-1 #
face $-1 $78 $79 $17 $-1 $80 reversed single #
loop $-1 $-1 $81 $31 #
plane-surface $-1 -38.580705984918907 21.28861604545525 70.536996255256668 0.57357644374324357 0 0.81915203911291934 0.81915203911291934 0 -0.57357644374324357 forward_v I I I I #
coedge $-1 $82 $83 $84 $85 reversed $32 $-1 #
face $-1 $-1 $86 $18 $-1 $87 forward single #
loop $-1 $88 $89 $34 #
cone-surface $-1 54.70505418520203 19.609133088171085 -0.030886252303641726 -0.57357644374324357 0 -0.81915203911291934 0.40957601955645967 0 -0.28678822187162178 1 I I -0.70710678118654735 0.70710678118654768 0.5 forward I I I I #
loop $-1 $-1 $90 $23 #
coedge $-1 $56 $56 $91 $92 reversed $35 $-1 #
face $-1 $-1 $93 $19 $-1 $94 forward single #
loop $-1 $95 $96 $37 #
cone-surface $-1 54.70505418520203 22.968099002739415 -0.030886252303641726 -0.57357644374324357 0 -0.81915203911291934 0.40957601955645967 0 -0.28678822187162178 1 I I -0.70710678118654735 0.70710678118654768 0.5 forward I I I I #
loop $-1 $-1 $97 $24 #
coedge $-1 $61 $61 $98 $99 reversed $38 $-1 #
face $-1 $100 $101 $15 $-1 $102 reversed single #
loop $-1 $-1 $103 $40 #
plane-surface $-1 0 -25.207409612451634 0 0 1 0 0 0 1 forward_v I I I I #
coedge $-1 $104 $105 $106 $107 forward $41 $-1 #
coedge $-1 $108 $43 $109 $110 forward $26 $-1 #
coedge $-1 $43 $108 $111 $112 forward $26 $-1 #
coedge $-1 $113 $114 $43 $69 reversed $115 $-1 #
edge $-1 $116 -25.207409612451634 $117 25.207409612451634 $68 $118 forward 7 unknown #
face $-1 $119 $120 $16 $-1 $121 reversed single #
loop $-1 $-1 $122 $44 #
plane-surface $-1 0 0 -5.7816183032435156 0 0 1 1 0 0 forward_v I I I I #
coedge $-1 $123 $76 $124 $125 reversed $45 $-1 #
coedge $-1 $126 $47 $127 $128 reversed $29 $-1 #
coedge $-1 $47 $126 $129 $130 reversed $29 $-1 #
coedge $-1 $73 $131 $47 $77 reversed $45 $-1 #
edge $-1 $132 -25.207409612451634 $133 25.207409612451634 $76 $134 forward 7 unknown #
face $-1 $135 $136 $17 $-1 $137 forward single #
loop $-1 $-1 $138 $48 #
plane-surface $-1 0 25.207409612451634 0 0 -1 0 0 0 -1 forward_v I I I I #
coedge $-1 $139 $140 $141 $142 reversed $49 $-1 #
coedge $-1 $83 $51 $143 $144 reversed $32 $-1 #
coedge $-1 $51 $82 $139 $145 reversed $32 $-1 #
coedge $-1 $141 $146 $51 $85 forward $147 $-1 #
edge $-1 $148 78.998492010545249 $149 83.57992355359535 $84 $150 forward 7 unknown #
loop $-1 $-1 $91 $52 #
plane-surface $-1 -38.580705984918907 21.28861604545525 70.536996255256668 0.57357644374324357 0 0.81915203911291934 0.81915203911291934 0 -0.57357644374324357 forward_v I I I I #
loop $-1 $-1 $151 $34 #
coedge $-1 $89 $89 $90 $152 reversed $53 $-1 #
coedge $-1 $90 $90 $89 $152 forward $55 $-1 #
coedge $-1 $91 $91 $56 $92 forward $86 $-1 #
edge $-1 $153 0 $153 6.2831853071796004 $91 $154 forward 7 unknown #
loop $-1 $-1 $98 $57 #
plane-surface $-1 -38.580705984918907 21.28861604545525 70.536996255256668 0.57357644374324357 0 0.81915203911291934 0.81915203911291934 0 -0.57357644374324357 forward_v I I I I #
loop $-1 $-1 $155 $37 #
coedge $-1 $96 $96 $97 $156 reversed $58 $-1 #
coedge $-1 $97 $97 $96 $156 forward $60 $-1 #
coedge $-1 $98 $98 $61 $99 forward $93 $-1 #
edge $-1 $157 0 $157 6.2831853071796004 $98 $158 forward 7 unknown #
face $-1 $159 $160 $15 $-1 $161 reversed single #
loop $-1 $-1 $162 $62 #
plane-surface $-1 -60.442518387401961 0 0 1 0 0 0 0 -1 forward_v I I I I #
coedge $-1 $163 $111 $164 $165 forward $63 $-1 #
coedge $-1 $166 $65 $163 $167 forward $41 $-1 #
coedge $-1 $65 $166 $168 $169 forward $41 $-1 #
coedge $-1 $114 $113 $65 $107 reversed $115 $-1 #
edge $-1 $170 -25.207409612451634 $171 25.207409612451634 $106 $172 forward 7 unknown #
coedge $-1 $67 $66 $173 $174 forward $26 $-1 #
coedge $-1 $175 $176 $66 $110 reversed $160 $-1 #
edge $-1 $117 -60.442518387401961 $177 60.442518387401961 $109 $178 forward 7 unknown #
coedge $-1 $103 $179 $67 $112 reversed $63 $-1 #
edge $-1 $180 -60.442518387401961 $116 60.442518387401961 $111 $181 forward 7 unknown #
coedge $-1 $106 $68 $179 $182 forward $115 $-1 #
coedge $-1 $68 $106 $175 $183 reversed $115 $-1 #
loop $-1 $-1 $113 $159 #
vertex $-1 $69 $184 #
vertex $-1 $69 $185 #
straight-curve $-1 60.442518387401961 0 5.7816183032435156 0 1 0 I I #
face $-1 $186 $187 $16 $-1 $188 reversed single #
loop $-1 $-1 $124 $70 #
plane-surface $-1 0 -25.207409612451634 0 0 1 0 0 0 1 forward_v I I I I #
coedge $-1 $189 $190 $123 $191 forward $71 $-1 #
coedge $-1 $131 $73 $122 $191 reversed $45 $-1 #
coedge $-1 $129 $192 $73 $125 forward $120 $-1 #
edge $-1 $193 -3.6408091516217578 $132 -0.64080915162175778 $124 $194 forward 7 unknown #
coedge $-1 $75 $74 $195 $196 reversed $29 $-1 #
coedge $-1 $197 $198 $74 $128 forward $199 $-1 #
edge $-1 $200 -31.237878791851816 $133 -27.171400399248473 $127 $201 forward 7 unknown #
coedge $-1 $202 $124 $75 $130 forward $120 $-1 #
edge $-1 $132 27.171400399248473 $203 31.237878791851816 $129 $204 forward 7 unknown #
coedge $-1 $76 $123 $197 $205 reversed $45 $-1 #
vertex $-1 $130 $206 #
vertex $-1 $128 $207 #
straight-curve $-1 -56.376039994798617 0 -2.7816183032435156 0 1 0 I I #
face $-1 $-1 $147 $17 $-1 $208 reversed single #
loop $-1 $-1 $143 $78 #
plane-surface $-1 0 0 5.7816183032435156 0 0 1 1 0 0 forward_v I I I I #
coedge $-1 $209 $210 $140 $211 forward $79 $-1 #
coedge $-1 $212 $81 $83 $145 forward $49 $-1 #
coedge $-1 $81 $212 $138 $211 reversed $49 $-1 #
coedge $-1 $213 $84 $81 $142 forward $147 $-1 #
edge $-1 $149 6.7255144557312398 $214 14.56310158972401 $141 $215 forward 7 unknown #
coedge $-1 $216 $217 $82 $144 forward $136 $-1 #
edge $-1 $218 38.521504431766182 $148 45.06446663232979 $143 $219 forward 7 unknown #
edge $-1 $149 -120.88503677480392 $218 -112.89755473465769 $83 $220 forward 7 unknown #
coedge $-1 $84 $213 $216 $221 reversed $147 $-1 #
loop $-1 $-1 $141 $135 #
vertex $-1 $221 $222 #
vertex $-1 $85 $223 #
straight-curve $-1 60.442518387401961 17.369822478458865 84.780110313788768 0 0 -1 I I #
coedge $-1 $151 $151 $-1 $224 reversed $88 $-1 #
edge $-1 $225 0 $225 6.2831853071796004 $89 $226 forward 7 unknown #
vertex $-1 $92 $227 #
ellipse-curve $-1 57.171037287120164 19.609133088171085 3.4909025317184699 0.57357644374324357 0 0.81915203911291934 0.81915203911291934 0 -0.57357644374324357 1 I I #
coedge $-1 $155 $155 $-1 $228 reversed $95 $-1 #
edge $-1 $229 0 $229 6.2831853071796004 $96 $230 forward 7 unknown #
vertex $-1 $99 $231 #
ellipse-curve $-1 57.171037287120164 22.968099002739415 3.4909025317184699 0.57357644374324357 0 0.81915203911291934 0.81915203911291934 0 -0.57357644374324357 1 I I #
face $-1 $-1 $115 $15 $-1 $232 reversed single #
loop $-1 $-1 $175 $100 #
plane-surface $-1 0 25.207409612451634 0 0 -1 0 0 0 -1 forward_v I I I I #
coedge $-1 $233 $173 $176 $234 forward $101 $-1 #
coedge $-1 $179 $103 $104 $167 reversed $63 $-1 #
coedge $-1 $173 $233 $103 $165 reversed $101 $-1 #
edge $-1 $180 -5.7816183032435156 $235 5.7816183032435156 $164 $236 forward 7 unknown #
coedge $-1 $105 $104 $233 $237 forward $41 $-1 #
edge $-1 $171 -60.442518387401961 $235 60.442518387401961 $163 $238 forward 7 unknown #
coedge $-1 $176 $175 $105 $169 reversed $160 $-1 #
edge $-1 $239 -60.442518387401961 $170 60.442518387401961 $168 $240 forward 7 unknown #
vertex $-1 $107 $241 #
vertex $-1 $182 $242 #
straight-curve $-1 60.442518387401961 0 -5.7816183032435156 0 -1 0 I I #
coedge $-1 $162 $164 $108 $174 reversed $101 $-1 #
edge $-1 $177 -25.207409612451634 $180 25.207409612451634 $173 $243 forward 7 unknown #
coedge $-1 $168 $109 $114 $183 forward $160 $-1 #
coedge $-1 $109 $168 $162 $234 reversed $160 $-1 #
vertex $-1 $110 $244 #
straight-curve $-1 0 25.207409612451634 5.7816183032435156 -1 0 0 I I #
coedge $-1 $111 $163 $113 $182 reversed $63 $-1 #
vertex $-1 $174 $245 #
straight-curve $-1 0 -25.207409612451634 5.7816183032435156 1 0 0 I I #
edge $-1 $116 -5.7816183032435156 $171 5.7816183032435156 $113 $246 forward 7 unknown #
edge $-1 $117 -5.7816183032435156 $170 5.7816183032435156 $114 $247 forward 7 unknown #
point $-1 60.442518387401961 -25.207409612451634 5.7816183032435156 #
point $-1 60.442518387401961 25.207409612451634 5.7816183032435156 #
face $-1 $-1 $199 $16 $-1 $248 reversed single #
loop $-1 $-1 $195 $119 #
plane-surface $-1 -60.442518387401961 0 0 1 0 0 0 0 -1 forward_v I I I I #
coedge $-1 $249 $122 $192 $250 forward $71 $-1 #
coedge $-1 $122 $249 $251 $252 forward $71 $-1 #
edge $-1 $253 -25.207409612451634 $193 25.207409612451634 $122 $254 forward 7 unknown #
coedge $-1 $124 $202 $189 $250 reversed $120 $-1 #
vertex $-1 $250 $255 #
straight-curve $-1 -56.376039994798617 -25.207409612451634 -2.1408091516217578 0 0 1 I I #
coedge $-1 $256 $257 $126 $196 forward $187 $-1 #
edge $-1 $203 -25.207409612451634 $200 25.207409612451634 $195 $258 forward 7 unknown #
coedge $-1 $251 $127 $131 $205 forward $199 $-1 #
coedge $-1 $127 $251 $256 $259 reversed $199 $-1 #
loop $-1 $-1 $197 $186 #
vertex $-1 $259 $260 #
straight-curve $-1 -29.204639595550145 25.207409612451634 -2.7816183032435156 1 0 0 I I #
coedge $-1 $192 $129 $257 $261 forward $120 $-1 #
vertex $-1 $261 $262 #
straight-curve $-1 -29.204639595550145 -25.207409612451634 -2.7816183032435156 -1 0 0 I I #
edge $-1 $133 0.64080915162175778 $253 3.6408091516217578 $197 $263 forward 7 unknown #
point $-1 -56.376039994798617 -25.207409612451634 -2.7816183032435156 #
point $-1 -56.376039994798617 25.207409612451634 -2.7816183032435156 #
plane-surface $-1 60.442518387401961 0 0 -1 0 0 0 0 1 forward_v I I I I #
coedge $-1 $210 $138 $264 $265 reversed $79 $-1 #
coedge $-1 $138 $209 $213 $266 forward $79 $-1 #
edge $-1 $214 -84.854125053612449 $267 -76.866643013466216 $138 $268 forward 7 unknown #
coedge $-1 $140 $139 $217 $269 reversed $49 $-1 #
coedge $-1 $146 $141 $210 $266 reversed $147 $-1 #
vertex $-1 $211 $270 #
straight-curve $-1 60.442518387401975 10.644308022727625 1.2001867601934109 0 1 0 I I #
coedge $-1 $264 $143 $146 $221 forward $136 $-1 #
coedge $-1 $143 $264 $212 $269 forward $136 $-1 #
vertex $-1 $144 $271 #
straight-curve $-1 15.378051755072171 17.369822478458865 5.7816183032435191 1 0 0 I I #
straight-curve $-1 -38.580705984918907 17.369822478458865 70.536996255256668 -0.81915203911291934 0 0.57357644374324357 I I #
edge $-1 $148 17.369822478458865 $272 25.207409612451634 $146 $273 forward 7 unknown #
point $-1 60.442518387401961 17.369822478458865 5.7816183032435156 #
point $-1 60.442518387401961 17.369822478458865 1.200186760193418 #
edge $-1 $274 1 $274 0 $151 $-1 forward 7 unknown #
vertex $-1 $152 $275 #
ellipse-curve $-1 54.991842407073655 19.609133088171085 0.37868976725281811 0.57357644374324357 0 0.81915203911291934 0.81915203911291934 0 -0.57357644374324357 1 I I #
point $-1 57.990189326233079 19.609133088171085 2.9173260879752125 #
edge $-1 $276 1 $276 0 $155 $-1 forward 7 unknown #
vertex $-1 $156 $277 #
ellipse-curve $-1 54.991842407073655 22.968099002739415 0.37868976725281811 0.57357644374324357 0 0.81915203911291934 0.81915203911291934 0 -0.57357644374324357 1 I I #
point $-1 57.990189326233079 22.968099002739415 2.9173260879752125 #
plane-surface $-1 60.442518387401961 0 0 -1 0 0 0 0 1 forward_v I I I I #
coedge $-1 $164 $162 $166 $237 reversed $101 $-1 #
edge $-1 $177 -5.7816183032435156 $239 5.7816183032435156 $176 $278 forward 7 unknown #
vertex $-1 $237 $279 #
straight-curve $-1 -60.442518387401961 -25.207409612451634 0 0 0 -1 I I #
edge $-1 $235 -25.207409612451634 $239 25.207409612451634 $233 $280 forward 7 unknown #
straight-curve $-1 0 -25.207409612451634 -5.7816183032435156 -1 0 0 I I #
vertex $-1 $169 $281 #
straight-curve $-1 0 25.207409612451634 -5.7816183032435156 1 0 0 I I #
point $-1 60.442518387401961 25.207409612451634 -5.7816183032435156 #
point $-1 60.442518387401961 -25.207409612451634 -5.7816183032435156 #
straight-curve $-1 -60.442518387401961 0 5.7816183032435156 0 -1 0 I I #
point $-1 -60.442518387401961 25.207409612451634 5.7816183032435156 #
point $-1 -60.442518387401961 -25.207409612451634 5.7816183032435156 #
straight-curve $-1 60.442518387401961 -25.207409612451634 0 0 0 -1 I I #
straight-curve $-1 60.442518387401961 25.207409612451634 0 0 0 -1 I I #
plane-surface $-1 0 25.207409612451634 0 0 -1 0 0 0 -1 forward_v I I I I #
coedge $-1 $190 $189 $282 $283 forward $71 $-1 #
edge $-1 $193 56.376039994798617 $284 60.442518387401961 $192 $285 forward 7 unknown #
coedge $-1 $198 $197 $190 $252 reversed $199 $-1 #
edge $-1 $286 -60.442518387401961 $253 -56.376039994798617 $251 $287 forward 7 unknown #
vertex $-1 $205 $288 #
straight-curve $-1 -56.376039994798617 0 -5.7816183032435156 0 -1 0 I I #
point $-1 -56.376039994798617 -25.207409612451634 -5.7816183032435156 #
coedge $-1 $282 $195 $198 $259 forward $187 $-1 #
coedge $-1 $195 $282 $202 $261 reversed $187 $-1 #
straight-curve $-1 -60.442518387401961 0 -2.7816183032435156 0 1 0 I I #
edge $-1 $200 2.7816183032435156 $286 5.7816183032435156 $198 $289 forward 7 unknown #
point $-1 -60.442518387401961 25.207409612451634 -2.7816183032435156 #
edge $-1 $203 2.7816183032435156 $284 5.7816183032435156 $257 $290 forward 7 unknown #
point $-1 -60.442518387401961 -25.207409612451634 -2.7816183032435156 #
straight-curve $-1 -56.376039994798617 25.207409612451634 -2.1408091516217578 0 0 -1 I I #
coedge $-1 $217 $216 $209 $265 forward $136 $-1 #
edge $-1 $272 -60.442518387401961 $267 -53.899556186838353 $209 $291 forward 7 unknown #
edge $-1 $272 -5.7816183032435156 $214 -1.2001867601934166 $213 $292 forward 7 unknown #
vertex $-1 $211 $293 #
straight-curve $-1 -9.065911177407326 25.207409612451634 49.870514045388916 -0.81915203911291934 0 0.57357644374324357 I I #
edge $-1 $267 -14.56310158972401 $218 -6.7255144557312398 $217 $294 forward 7 unknown #
point $-1 60.442518387401961 25.207409612451634 1.2001867601934166 #
point $-1 53.899556186838353 17.369822478458865 5.7816183032435191 #
vertex $-1 $221 $295 #
straight-curve $-1 60.442518387401961 0 5.7816183032435156 0 1 0 I I #
vertex $-1 $224 $296 #
point $-1 55.810994446186569 19.609133088171085 -0.19488667649042546 #
vertex $-1 $228 $297 #
point $-1 55.810994446186569 22.968099002739415 -0.19488667649042546 #
straight-curve $-1 -60.442518387401961 25.207409612451634 0 0 0 -1 I I #
point $-1 -60.442518387401961 -25.207409612451634 -5.7816183032435156 #
straight-curve $-1 -60.442518387401961 0 -5.7816183032435156 0 1 0 I I #
point $-1 -60.442518387401961 25.207409612451634 -5.7816183032435156 #
coedge $-1 $257 $256 $249 $283 reversed $187 $-1 #
edge $-1 $284 -25.207409612451634 $286 25.207409612451634 $282 $298 forward 7 unknown #
vertex $-1 $283 $299 #
straight-curve $-1 0 -25.207409612451634 -5.7816183032435156 -1 0 0 I I #
vertex $-1 $252 $300 #
straight-curve $-1 0 25.207409612451634 -5.7816183032435156 1 0 0 I I #
point $-1 -56.376039994798617 25.207409612451634 -5.7816183032435156 #
straight-curve $-1 -60.442518387401961 25.207409612451634 0 0 0 -1 I I #
straight-curve $-1 -60.442518387401961 -25.207409612451634 0 0 0 -1 I I #
straight-curve $-1 0 25.207409612451634 5.7816183032435156 -1 0 0 I I #
straight-curve $-1 60.442518387401961 25.207409612451634 0 0 0 -1 I I #
point $-1 53.899556186838353 25.207409612451634 5.7816183032435191 #
straight-curve $-1 53.899556186838346 10.644308022727625 5.7816183032435262 0 -1 0 I I #
point $-1 60.442518387401961 25.207409612451634 5.7816183032435156 #
point $-1 54.418265963330406 19.609133088171085 -0.44046227186010156 #
point $-1 54.418265963330406 22.968099002739415 -0.44046227186010156 #
straight-curve $-1 -60.442518387401961 0 -5.7816183032435156 0 1 0 I I #
point $-1 -60.442518387401961 -25.207409612451634 -5.7816183032435156 #
point $-1 -60.442518387401961 25.207409612451634 -5.7816183032435156 #
End-of-ACIS-data 