500 0 9 0           
7 Unknown 11 ACIS 5.0 NT 24 Fri Mar 26 20:37:41 1999 
-1 9.9999999999999995e-007 1e-010 
body $-1 $9 $-1 $10 #
body $-1 $11 $-1 $12 #
body $-1 $13 $-1 $14 #
body $-1 $15 $-1 $16 #
body $-1 $17 $-1 $18 #
body $-1 $19 $-1 $20 #
body $-1 $21 $-1 $22 #
body $-1 $23 $-1 $24 #
body $-1 $25 $-1 $26 #
lump $-1 $-1 $27 $0 #
transform $-1 1 0 0 0 1 0 0 0 1 48.015381328775902 31.591210713604571 9.1368372085256251 1 rotate no_reflect no_shear #
lump $-1 $-1 $28 $1 #
transform $-1 1 0 0 0 0.52991925155115449 -0.84804810408105047 0 0.84804810408105047 0.52991925155115449 25.694921100050312 111.13954615850699 117.84655113470225 1 rotate no_reflect no_shear #
lump $-1 $-1 $29 $2 #
transform $-1 1 0 0 0 -0.52991925155115449 0.84804810408105047 0 -0.84804810408105047 -0.52991925155115449 25.694921100050312 58.140758661189942 13.630715709491156 1 rotate no_reflect no_shear #
lump $-1 $-1 $30 $3 #
transform $-1 1 0 0 0 0.52991925155115449 -0.84804810408105047 0 0.84804810408105047 0.52991925155115449 73.710302428826211 111.13954615850699 117.84655113470225 1 rotate no_reflect no_shear #
lump $-1 $-1 $31 $4 #
transform $-1 1 0 0 0 -0.52991925155115449 0.84804810408105047 0 -0.84804810408105047 -0.52991925155115449 73.710302428826211 58.140758661189942 13.630715709491156 1 rotate no_reflect no_shear #
lump $-1 $-1 $32 $5 #
transform $-1 1 0 0 0 0.79863550430605224 0.6018150307709319 0 -0.6018150307709319 0.79863550430605224 82.19705168510059 -57.792756383710604 86.909749470933832 1 rotate no_reflect no_shear #
lump $-1 $-1 $33 $6 #
transform $-1 1 0 0 0 -0.79863550430605224 -0.6018150307709319 0 0.6018150307709319 -0.79863550430605224 73.896825101629858 7.7485741985037926 11.057041612206529 1 rotate no_reflect no_shear #
lump $-1 $-1 $34 $7 #
transform $-1 1 0 0 0 -0.79863550430605224 -0.6018150307709319 0 0.6018150307709319 -0.79863550430605224 82.19705168510059 7.7485741985037926 11.057041612206529 1 rotate no_reflect no_shear #
lump $-1 $-1 $35 $8 #
transform $-1 1 0 0 0 -0.79863550430605224 -0.6018150307709319 0 0.6018150307709319 -0.79863550430605224 90.497278268571321 7.7485741985037926 11.057041612206529 1 rotate no_reflect no_shear #
shell $-1 $-1 $-1 $36 $-1 $9 #
shell $-1 $-1 $-1 $37 $-1 $11 #
shell $-1 $-1 $-1 $38 $-1 $13 #
shell $-1 $-1 $-1 $39 $-1 $15 #
shell $-1 $-1 $-1 $40 $-1 $17 #
shell $-1 $-1 $-1 $41 $-1 $19 #
shell $-1 $-1 $-1 $42 $-1 $21 #
shell $-1 $-1 $-1 $43 $-1 $23 #
shell $-1 $-1 $-1 $44 $-1 $25 #
face $-1 $45 $46 $27 $-1 $47 forward single #
face $-1 $48 $49 $28 $-1 $50 forward single #
face $-1 $51 $52 $29 $-1 $53 forward single #
face $-1 $54 $55 $30 $-1 $56 forward single #
face $-1 $57 $58 $31 $-1 $59 forward single #
face $-1 $60 $61 $32 $-1 $62 forward single #
face $-1 $63 $64 $33 $-1 $65 forward single #
face $-1 $66 $67 $34 $-1 $68 forward single #
face $-1 $69 $70 $35 $-1 $71 forward single #
face $-1 $72 $73 $27 $-1 $74 reversed single #
loop $-1 $-1 $75 $36 #
plane-surface $-1 0 0 9.1368372085256251 0 0 1 1 0 0 forward_v I I I I #
face $-1 $76 $77 $28 $-1 $78 reversed single #
loop $-1 $-1 $79 $37 #
plane-surface $-1 0 0 96.030762657551804 0 0 1 1 0 0 forward_v I I I I #
face $-1 $80 $81 $29 $-1 $82 forward single #
loop $-1 $83 $84 $38 #
cone-surface $-1 0 0 -2.3203680532242803 0 0 1 1 0 0 1 I I 0 1 1 forward I I I I #
face $-1 $85 $86 $30 $-1 $87 reversed single #
loop $-1 $-1 $88 $39 #
plane-surface $-1 0 0 96.030762657551804 0 0 1 1 0 0 forward_v I I I I #
face $-1 $89 $90 $31 $-1 $91 forward single #
loop $-1 $92 $93 $40 #
cone-surface $-1 0 0 -2.3203680532242803 0 0 1 1 0 0 1 I I 0 1 1 forward I I I I #
face $-1 $94 $95 $32 $-1 $96 reversed single #
loop $-1 $-1 $97 $41 #
plane-surface $-1 0 0 96.030762657551804 0 0 1 1 0 0 forward_v I I I I #
face $-1 $98 $99 $33 $-1 $100 forward single #
loop $-1 $101 $102 $42 #
cone-surface $-1 0 0 -2.370830408642842 0 0 1 1.5 0 0 1 I I 0 1 1.5 forward I I I I #
face $-1 $103 $104 $34 $-1 $105 forward single #
loop $-1 $106 $107 $43 #
cone-surface $-1 0 0 -2.370830408642842 0 0 1 1.5 0 0 1 I I 0 1 1.5 forward I I I I #
face $-1 $108 $109 $35 $-1 $110 forward single #
loop $-1 $111 $112 $44 #
cone-surface $-1 0 0 -2.370830408642842 0 0 1 1.5 0 0 1 I I 0 1 1.5 forward I I I I #
face $-1 $113 $114 $27 $-1 $115 reversed single #
loop $-1 $-1 $116 $45 #
plane-surface $-1 0 0 -9.1368372085256251 0 0 1 1 0 0 forward_v I I I I #
coedge $-1 $117 $118 $119 $120 forward $46 $-1 #
face $-1 $121 $122 $28 $-1 $123 reversed single #
loop $-1 $-1 $124 $48 #
plane-surface $-1 0 0 -96.030762657551804 0 0 1 1 0 0 forward_v I I I I #
coedge $-1 $125 $126 $127 $128 forward $49 $-1 #
face $-1 $-1 $129 $29 $-1 $130 forward single #
loop $-1 $-1 $131 $51 #
plane-surface $-1 0 0 -4.1407361064485606 0 0 -1 -1 0 0 forward_v I I I I #
loop $-1 $-1 $132 $38 #
coedge $-1 $84 $84 $131 $133 reversed $52 $-1 #
face $-1 $134 $135 $30 $-1 $136 reversed single #
loop $-1 $-1 $137 $54 #
plane-surface $-1 0 0 -96.030762657551804 0 0 1 1 0 0 forward_v I I I I #
coedge $-1 $138 $139 $140 $141 forward $55 $-1 #
face $-1 $-1 $142 $31 $-1 $143 forward single #
loop $-1 $-1 $144 $57 #
plane-surface $-1 0 0 -4.1407361064485606 0 0 -1 -1 0 0 forward_v I I I I #
loop $-1 $-1 $145 $40 #
coedge $-1 $93 $93 $144 $146 reversed $58 $-1 #
face $-1 $147 $148 $32 $-1 $149 reversed single #
loop $-1 $-1 $150 $60 #
plane-surface $-1 0 0 -96.030762657551804 0 0 1 1 0 0 forward_v I I I I #
coedge $-1 $151 $152 $153 $154 forward $61 $-1 #
face $-1 $-1 $155 $33 $-1 $156 forward single #
loop $-1 $-1 $157 $63 #
plane-surface $-1 0 0 -3.991660817285684 0 0 -1 -1 0 0 forward_v I I I I #
loop $-1 $-1 $158 $42 #
coedge $-1 $102 $102 $157 $159 reversed $64 $-1 #
face $-1 $-1 $160 $34 $-1 $161 forward single #
loop $-1 $-1 $162 $66 #
plane-surface $-1 0 0 -3.991660817285684 0 0 -1 -1 0 0 forward_v I I I I #
loop $-1 $-1 $163 $43 #
coedge $-1 $107 $107 $162 $164 reversed $67 $-1 #
face $-1 $-1 $165 $35 $-1 $166 forward single #
loop $-1 $-1 $167 $69 #
plane-surface $-1 0 0 -3.991660817285684 0 0 -1 -1 0 0 forward_v I I I I #
loop $-1 $-1 $168 $44 #
coedge $-1 $112 $112 $167 $169 reversed $70 $-1 #
face $-1 $170 $171 $27 $-1 $172 reversed single #
loop $-1 $-1 $173 $72 #
plane-surface $-1 0 -31.591210713604571 0 0 1 0 0 0 1 forward_v I I I I #
coedge $-1 $174 $175 $176 $177 forward $73 $-1 #
coedge $-1 $178 $75 $179 $180 forward $46 $-1 #
coedge $-1 $75 $178 $181 $182 forward $46 $-1 #
coedge $-1 $183 $184 $75 $120 reversed $185 $-1 #
edge $-1 $186 -31.591210713604571 $187 31.591210713604571 $119 $188 forward 7 unknown #
face $-1 $189 $190 $28 $-1 $191 reversed single #
loop $-1 $-1 $192 $76 #
plane-surface $-1 0 -192.06152531510361 0 0 1 0 0 0 1 forward_v I I I I #
coedge $-1 $193 $194 $195 $196 forward $77 $-1 #
coedge $-1 $197 $79 $198 $199 forward $49 $-1 #
coedge $-1 $79 $197 $200 $201 forward $49 $-1 #
coedge $-1 $202 $203 $79 $128 reversed $204 $-1 #
edge $-1 $205 -192.06152531510361 $206 192.06152531510361 $127 $207 forward 7 unknown #
loop $-1 $208 $209 $80 #
cone-surface $-1 0 0 0 0 0 1 0.5 0 0 1 I I -0.70710678118654746 0.70710678118654746 0.5 forward I I I I #
coedge $-1 $131 $131 $84 $133 forward $81 $-1 #
coedge $-1 $132 $132 $209 $210 forward $83 $-1 #
edge $-1 $211 0 $211 6.2831853071796004 $131 $212 forward 7 unknown #
face $-1 $213 $214 $30 $-1 $215 reversed single #
loop $-1 $-1 $216 $85 #
plane-surface $-1 0 -192.06152531510361 0 0 1 0 0 0 1 forward_v I I I I #
coedge $-1 $217 $218 $219 $220 forward $86 $-1 #
coedge $-1 $221 $88 $222 $223 forward $55 $-1 #
coedge $-1 $88 $221 $224 $225 forward $55 $-1 #
coedge $-1 $226 $227 $88 $141 reversed $228 $-1 #
edge $-1 $229 -192.06152531510361 $230 192.06152531510361 $140 $231 forward 7 unknown #
loop $-1 $232 $233 $89 #
cone-surface $-1 0 0 0 0 0 1 0.5 0 0 1 I I -0.70710678118654746 0.70710678118654746 0.5 forward I I I I #
coedge $-1 $144 $144 $93 $146 forward $90 $-1 #
coedge $-1 $145 $145 $233 $234 forward $92 $-1 #
edge $-1 $235 0 $235 6.2831853071796004 $144 $236 forward 7 unknown #
face $-1 $237 $238 $32 $-1 $239 reversed single #
loop $-1 $-1 $240 $94 #
plane-surface $-1 0 -192.06152531510361 0 0 1 0 0 0 1 forward_v I I I I #
coedge $-1 $241 $242 $243 $244 forward $95 $-1 #
coedge $-1 $245 $97 $246 $247 forward $61 $-1 #
coedge $-1 $97 $245 $248 $249 forward $61 $-1 #
coedge $-1 $250 $251 $97 $154 reversed $252 $-1 #
edge $-1 $253 -192.06152531510361 $254 192.06152531510361 $153 $255 forward 7 unknown #
loop $-1 $256 $257 $98 #
cone-surface $-1 0 0 0 0 0 1 0.75 0 0 1 I I -0.70710678118654757 0.70710678118654757 0.75 forward I I I I #
coedge $-1 $157 $157 $102 $159 forward $99 $-1 #
coedge $-1 $158 $158 $257 $258 forward $101 $-1 #
edge $-1 $259 0 $259 6.2831853071796004 $157 $260 forward 7 unknown #
loop $-1 $261 $262 $103 #
cone-surface $-1 0 0 0 0 0 1 0.75 0 0 1 I I -0.70710678118654757 0.70710678118654757 0.75 forward I I I I #
coedge $-1 $162 $162 $107 $164 forward $104 $-1 #
coedge $-1 $163 $163 $262 $263 forward $106 $-1 #
edge $-1 $264 0 $264 6.2831853071796004 $162 $265 forward 7 unknown #
loop $-1 $266 $267 $108 #
cone-surface $-1 0 0 0 0 0 1 0.75 0 0 1 I I -0.70710678118654757 0.70710678118654757 0.75 forward I I I I #
coedge $-1 $167 $167 $112 $169 forward $109 $-1 #
coedge $-1 $168 $168 $267 $268 forward $111 $-1 #
edge $-1 $269 0 $269 6.2831853071796004 $167 $270 forward 7 unknown #
face $-1 $271 $272 $27 $-1 $273 reversed single #
loop $-1 $-1 $274 $113 #
plane-surface $-1 -48.015381328775902 0 0 1 0 0 0 0 -1 forward_v I I I I #
coedge $-1 $275 $181 $276 $277 forward $114 $-1 #
coedge $-1 $278 $116 $275 $279 forward $73 $-1 #
coedge $-1 $116 $278 $280 $281 forward $73 $-1 #
coedge $-1 $184 $183 $116 $177 reversed $185 $-1 #
edge $-1 $282 -31.591210713604571 $283 31.591210713604571 $176 $284 forward 7 unknown #
coedge $-1 $118 $117 $285 $286 forward $46 $-1 #
coedge $-1 $287 $288 $117 $180 reversed $272 $-1 #
edge $-1 $187 -48.015381328775902 $289 48.015381328775902 $179 $290 forward 7 unknown #
coedge $-1 $173 $291 $118 $182 reversed $114 $-1 #
edge $-1 $292 -48.015381328775902 $186 48.015381328775902 $181 $293 forward 7 unknown #
coedge $-1 $176 $119 $291 $294 forward $185 $-1 #
coedge $-1 $119 $176 $287 $295 reversed $185 $-1 #
loop $-1 $-1 $183 $271 #
vertex $-1 $120 $296 #
vertex $-1 $120 $297 #
straight-curve $-1 48.015381328775902 0 9.1368372085256251 0 1 0 I I #
face $-1 $298 $299 $28 $-1 $300 reversed single #
loop $-1 $-1 $301 $121 #
plane-surface $-1 -5.499634622181734 0 0 1 0 0 0 0 -1 forward_v I I I I #
coedge $-1 $302 $200 $303 $304 forward $122 $-1 #
coedge $-1 $305 $124 $302 $306 forward $77 $-1 #
coedge $-1 $124 $305 $307 $308 forward $77 $-1 #
coedge $-1 $203 $202 $124 $196 reversed $204 $-1 #
edge $-1 $309 -192.06152531510361 $310 192.06152531510361 $195 $311 forward 7 unknown #
coedge $-1 $126 $125 $312 $313 forward $49 $-1 #
coedge $-1 $314 $315 $125 $199 reversed $299 $-1 #
edge $-1 $206 -5.499634622181734 $316 5.499634622181734 $198 $317 forward 7 unknown #
coedge $-1 $192 $318 $126 $201 reversed $122 $-1 #
edge $-1 $319 -5.499634622181734 $205 5.499634622181734 $200 $320 forward 7 unknown #
coedge $-1 $195 $127 $318 $321 forward $204 $-1 #
coedge $-1 $127 $195 $314 $322 reversed $204 $-1 #
loop $-1 $-1 $202 $298 #
vertex $-1 $128 $323 #
vertex $-1 $128 $324 #
straight-curve $-1 5.499634622181734 0 96.030762657551804 0 1 0 I I #
loop $-1 $-1 $325 $80 #
coedge $-1 $209 $209 $132 $210 reversed $129 $-1 #
edge $-1 $326 0 $326 6.2831853071796004 $209 $327 forward 7 unknown #
vertex $-1 $133 $328 #
ellipse-curve $-1 0 0 -4.1407361064485606 0 0 -1 1 0 0 1 I I #
face $-1 $329 $330 $30 $-1 $331 reversed single #
loop $-1 $-1 $332 $134 #
plane-surface $-1 -5.499634622181734 0 0 1 0 0 0 0 -1 forward_v I I I I #
coedge $-1 $333 $224 $334 $335 forward $135 $-1 #
coedge $-1 $336 $137 $333 $337 forward $86 $-1 #
coedge $-1 $137 $336 $338 $339 forward $86 $-1 #
coedge $-1 $227 $226 $137 $220 reversed $228 $-1 #
edge $-1 $340 -192.06152531510361 $341 192.06152531510361 $219 $342 forward 7 unknown #
coedge $-1 $139 $138 $343 $344 forward $55 $-1 #
coedge $-1 $345 $346 $138 $223 reversed $330 $-1 #
edge $-1 $230 -5.499634622181734 $347 5.499634622181734 $222 $348 forward 7 unknown #
coedge $-1 $216 $349 $139 $225 reversed $135 $-1 #
edge $-1 $350 -5.499634622181734 $229 5.499634622181734 $224 $351 forward 7 unknown #
coedge $-1 $219 $140 $349 $352 forward $228 $-1 #
coedge $-1 $140 $219 $345 $353 reversed $228 $-1 #
loop $-1 $-1 $226 $329 #
vertex $-1 $141 $354 #
vertex $-1 $141 $355 #
straight-curve $-1 5.499634622181734 0 96.030762657551804 0 1 0 I I #
loop $-1 $-1 $356 $89 #
coedge $-1 $233 $233 $145 $234 reversed $142 $-1 #
edge $-1 $357 0 $357 6.2831853071796004 $233 $358 forward 7 unknown #
vertex $-1 $146 $359 #
ellipse-curve $-1 0 0 -4.1407361064485606 0 0 -1 1 0 0 1 I I #
face $-1 $360 $361 $32 $-1 $362 reversed single #
loop $-1 $-1 $363 $147 #
plane-surface $-1 -13.833710972451215 0 0 1 0 0 0 0 -1 forward_v I I I I #
coedge $-1 $364 $248 $365 $366 forward $148 $-1 #
coedge $-1 $367 $150 $364 $368 forward $95 $-1 #
coedge $-1 $150 $367 $369 $370 forward $95 $-1 #
coedge $-1 $251 $250 $150 $244 reversed $252 $-1 #
edge $-1 $371 -192.06152531510361 $372 192.06152531510361 $243 $373 forward 7 unknown #
coedge $-1 $152 $151 $374 $375 forward $61 $-1 #
coedge $-1 $376 $377 $151 $247 reversed $361 $-1 #
edge $-1 $254 -13.833710972451215 $378 13.833710972451215 $246 $379 forward 7 unknown #
coedge $-1 $240 $380 $152 $249 reversed $148 $-1 #
edge $-1 $381 -13.833710972451215 $253 13.833710972451215 $248 $382 forward 7 unknown #
coedge $-1 $243 $153 $380 $383 forward $252 $-1 #
coedge $-1 $153 $243 $376 $384 reversed $252 $-1 #
loop $-1 $-1 $250 $360 #
vertex $-1 $154 $385 #
vertex $-1 $154 $386 #
straight-curve $-1 13.833710972451215 0 96.030762657551804 0 1 0 I I #
loop $-1 $-1 $387 $98 #
coedge $-1 $257 $257 $158 $258 reversed $155 $-1 #
edge $-1 $388 0 $388 6.2831853071796004 $257 $389 forward 7 unknown #
vertex $-1 $159 $390 #
ellipse-curve $-1 0 0 -3.991660817285684 0 0 -1 1.5 0 0 1 I I #
loop $-1 $-1 $391 $103 #
coedge $-1 $262 $262 $163 $263 reversed $160 $-1 #
edge $-1 $392 0 $392 6.2831853071796004 $262 $393 forward 7 unknown #
vertex $-1 $164 $394 #
ellipse-curve $-1 0 0 -3.991660817285684 0 0 -1 1.5 0 0 1 I I #
loop $-1 $-1 $395 $108 #
coedge $-1 $267 $267 $168 $268 reversed $165 $-1 #
edge $-1 $396 0 $396 6.2831853071796004 $267 $397 forward 7 unknown #
vertex $-1 $169 $398 #
ellipse-curve $-1 0 0 -3.991660817285684 0 0 -1 1.5 0 0 1 I I #
face $-1 $-1 $185 $27 $-1 $399 reversed single #
loop $-1 $-1 $287 $170 #
plane-surface $-1 0 31.591210713604571 0 0 -1 0 0 0 -1 forward_v I I I I #
coedge $-1 $400 $285 $288 $401 forward $171 $-1 #
coedge $-1 $291 $173 $174 $279 reversed $114 $-1 #
coedge $-1 $285 $400 $173 $277 reversed $171 $-1 #
edge $-1 $292 -9.1368372085256251 $402 9.1368372085256251 $276 $403 forward 7 unknown #
coedge $-1 $175 $174 $400 $404 forward $73 $-1 #
edge $-1 $283 -48.015381328775902 $402 48.015381328775902 $275 $405 forward 7 unknown #
coedge $-1 $288 $287 $175 $281 reversed $272 $-1 #
edge $-1 $406 -48.015381328775902 $282 48.015381328775902 $280 $407 forward 7 unknown #
vertex $-1 $177 $408 #
vertex $-1 $294 $409 #
straight-curve $-1 48.015381328775902 0 -9.1368372085256251 0 -1 0 I I #
coedge $-1 $274 $276 $178 $286 reversed $171 $-1 #
edge $-1 $289 -31.591210713604571 $292 31.591210713604571 $285 $410 forward 7 unknown #
coedge $-1 $280 $179 $184 $295 forward $272 $-1 #
coedge $-1 $179 $280 $274 $401 reversed $272 $-1 #
vertex $-1 $180 $411 #
straight-curve $-1 0 31.591210713604571 9.1368372085256251 -1 0 0 I I #
coedge $-1 $181 $275 $183 $294 reversed $114 $-1 #
vertex $-1 $286 $412 #
straight-curve $-1 0 -31.591210713604571 9.1368372085256251 1 0 0 I I #
edge $-1 $186 -9.1368372085256251 $283 9.1368372085256251 $183 $413 forward 7 unknown #
edge $-1 $187 -9.1368372085256251 $282 9.1368372085256251 $184 $414 forward 7 unknown #
point $-1 48.015381328775902 -31.591210713604571 9.1368372085256251 #
point $-1 48.015381328775902 31.591210713604571 9.1368372085256251 #
face $-1 $-1 $204 $28 $-1 $415 reversed single #
loop $-1 $-1 $314 $189 #
plane-surface $-1 0 192.06152531510361 0 0 -1 0 0 0 -1 forward_v I I I I #
coedge $-1 $416 $312 $315 $417 forward $190 $-1 #
coedge $-1 $318 $192 $193 $306 reversed $122 $-1 #
coedge $-1 $312 $416 $192 $304 reversed $190 $-1 #
edge $-1 $319 -96.030762657551804 $418 96.030762657551804 $303 $419 forward 7 unknown #
coedge $-1 $194 $193 $416 $420 forward $77 $-1 #
edge $-1 $310 -5.499634622181734 $418 5.499634622181734 $302 $421 forward 7 unknown #
coedge $-1 $315 $314 $194 $308 reversed $299 $-1 #
edge $-1 $422 -5.499634622181734 $309 5.499634622181734 $307 $423 forward 7 unknown #
vertex $-1 $196 $424 #
vertex $-1 $321 $425 #
straight-curve $-1 5.499634622181734 0 -96.030762657551804 0 -1 0 I I #
coedge $-1 $301 $303 $197 $313 reversed $190 $-1 #
edge $-1 $316 -192.06152531510361 $319 192.06152531510361 $312 $426 forward 7 unknown #
coedge $-1 $307 $198 $203 $322 forward $299 $-1 #
coedge $-1 $198 $307 $301 $417 reversed $299 $-1 #
vertex $-1 $199 $427 #
straight-curve $-1 0 192.06152531510361 96.030762657551804 -1 0 0 I I #
coedge $-1 $200 $302 $202 $321 reversed $122 $-1 #
vertex $-1 $313 $428 #
straight-curve $-1 0 -192.06152531510361 96.030762657551804 1 0 0 I I #
edge $-1 $205 -96.030762657551804 $310 96.030762657551804 $202 $429 forward 7 unknown #
edge $-1 $206 -96.030762657551804 $309 96.030762657551804 $203 $430 forward 7 unknown #
point $-1 5.499634622181734 -192.06152531510361 96.030762657551804 #
point $-1 5.499634622181734 192.06152531510361 96.030762657551804 #
coedge $-1 $325 $325 $-1 $431 reversed $208 $-1 #
vertex $-1 $210 $432 #
ellipse-curve $-1 0 0 -0.5 0 0 -1 1 0 0 1 I I #
point $-1 1 0 -4.1407361064485606 #
face $-1 $-1 $228 $30 $-1 $433 reversed single #
loop $-1 $-1 $345 $213 #
plane-surface $-1 0 192.06152531510361 0 0 -1 0 0 0 -1 forward_v I I I I #
coedge $-1 $434 $343 $346 $435 forward $214 $-1 #
coedge $-1 $349 $216 $217 $337 reversed $135 $-1 #
coedge $-1 $343 $434 $216 $335 reversed $214 $-1 #
edge $-1 $350 -96.030762657551804 $436 96.030762657551804 $334 $437 forward 7 unknown #
coedge $-1 $218 $217 $434 $438 forward $86 $-1 #
edge $-1 $341 -5.499634622181734 $436 5.499634622181734 $333 $439 forward 7 unknown #
coedge $-1 $346 $345 $218 $339 reversed $330 $-1 #
edge $-1 $440 -5.499634622181734 $340 5.499634622181734 $338 $441 forward 7 unknown #
vertex $-1 $220 $442 #
vertex $-1 $352 $443 #
straight-curve $-1 5.499634622181734 0 -96.030762657551804 0 -1 0 I I #
coedge $-1 $332 $334 $221 $344 reversed $214 $-1 #
edge $-1 $347 -192.06152531510361 $350 192.06152531510361 $343 $444 forward 7 unknown #
coedge $-1 $338 $222 $227 $353 forward $330 $-1 #
coedge $-1 $222 $338 $332 $435 reversed $330 $-1 #
vertex $-1 $223 $445 #
straight-curve $-1 0 192.06152531510361 96.030762657551804 -1 0 0 I I #
coedge $-1 $224 $333 $226 $352 reversed $135 $-1 #
vertex $-1 $344 $446 #
straight-curve $-1 0 -192.06152531510361 96.030762657551804 1 0 0 I I #
edge $-1 $229 -96.030762657551804 $341 96.030762657551804 $226 $447 forward 7 unknown #
edge $-1 $230 -96.030762657551804 $340 96.030762657551804 $227 $448 forward 7 unknown #
point $-1 5.499634622181734 -192.06152531510361 96.030762657551804 #
point $-1 5.499634622181734 192.06152531510361 96.030762657551804 #
coedge $-1 $356 $356 $-1 $449 reversed $232 $-1 #
vertex $-1 $234 $450 #
ellipse-curve $-1 0 0 -0.5 0 0 -1 1 0 0 1 I I #
point $-1 1 0 -4.1407361064485606 #
face $-1 $-1 $252 $32 $-1 $451 reversed single #
loop $-1 $-1 $376 $237 #
plane-surface $-1 0 192.06152531510361 0 0 -1 0 0 0 -1 forward_v I I I I #
coedge $-1 $452 $374 $377 $453 forward $238 $-1 #
coedge $-1 $380 $240 $241 $368 reversed $148 $-1 #
coedge $-1 $374 $452 $240 $366 reversed $238 $-1 #
edge $-1 $381 -96.030762657551804 $454 96.030762657551804 $365 $455 forward 7 unknown #
coedge $-1 $242 $241 $452 $456 forward $95 $-1 #
edge $-1 $372 -13.833710972451215 $454 13.833710972451215 $364 $457 forward 7 unknown #
coedge $-1 $377 $376 $242 $370 reversed $361 $-1 #
edge $-1 $458 -13.833710972451215 $371 13.833710972451215 $369 $459 forward 7 unknown #
vertex $-1 $244 $460 #
vertex $-1 $383 $461 #
straight-curve $-1 13.833710972451215 0 -96.030762657551804 0 -1 0 I I #
coedge $-1 $363 $365 $245 $375 reversed $238 $-1 #
edge $-1 $378 -192.06152531510361 $381 192.06152531510361 $374 $462 forward 7 unknown #
coedge $-1 $369 $246 $251 $384 forward $361 $-1 #
coedge $-1 $246 $369 $363 $453 reversed $361 $-1 #
vertex $-1 $247 $463 #
straight-curve $-1 0 192.06152531510361 96.030762657551804 -1 0 0 I I #
coedge $-1 $248 $364 $250 $383 reversed $148 $-1 #
vertex $-1 $375 $464 #
straight-curve $-1 0 -192.06152531510361 96.030762657551804 1 0 0 I I #
edge $-1 $253 -96.030762657551804 $372 96.030762657551804 $250 $465 forward 7 unknown #
edge $-1 $254 -96.030762657551804 $371 96.030762657551804 $251 $466 forward 7 unknown #
point $-1 13.833710972451215 -192.06152531510361 96.030762657551804 #
point $-1 13.833710972451215 192.06152531510361 96.030762657551804 #
coedge $-1 $387 $387 $-1 $467 reversed $256 $-1 #
vertex $-1 $258 $468 #
ellipse-curve $-1 0 0 -0.75 0 0 -1 1.5 0 0 1 I I #
point $-1 1.5 0 -3.991660817285684 #
coedge $-1 $391 $391 $-1 $469 reversed $261 $-1 #
vertex $-1 $263 $470 #
ellipse-curve $-1 0 0 -0.75 0 0 -1 1.5 0 0 1 I I #
point $-1 1.5 0 -3.991660817285684 #
coedge $-1 $395 $395 $-1 $471 reversed $266 $-1 #
vertex $-1 $268 $472 #
ellipse-curve $-1 0 0 -0.75 0 0 -1 1.5 0 0 1 I I #
point $-1 1.5 0 -3.991660817285684 #
plane-surface $-1 48.015381328775902 0 0 -1 0 0 0 0 1 forward_v I I I I #
coedge $-1 $276 $274 $278 $404 reversed $171 $-1 #
edge $-1 $289 -9.1368372085256251 $406 9.1368372085256251 $288 $473 forward 7 unknown #
vertex $-1 $404 $474 #
straight-curve $-1 -48.015381328775902 -31.591210713604571 0 0 0 -1 I I #
edge $-1 $402 -31.591210713604571 $406 31.591210713604571 $400 $475 forward 7 unknown #
straight-curve $-1 0 -31.591210713604571 -9.1368372085256251 -1 0 0 I I #
vertex $-1 $281 $476 #
straight-curve $-1 0 31.591210713604571 -9.1368372085256251 1 0 0 I I #
point $-1 48.015381328775902 31.591210713604571 -9.1368372085256251 #
point $-1 48.015381328775902 -31.591210713604571 -9.1368372085256251 #
straight-curve $-1 -48.015381328775902 0 9.1368372085256251 0 -1 0 I I #
point $-1 -48.015381328775902 31.591210713604571 9.1368372085256251 #
point $-1 -48.015381328775902 -31.591210713604571 9.1368372085256251 #
straight-curve $-1 48.015381328775902 -31.591210713604571 0 0 0 -1 I I #
straight-curve $-1 48.015381328775902 31.591210713604571 0 0 0 -1 I I #
plane-surface $-1 5.499634622181734 0 0 -1 0 0 0 0 1 forward_v I I I I #
coedge $-1 $303 $301 $305 $420 reversed $190 $-1 #
edge $-1 $316 -96.030762657551804 $422 96.030762657551804 $315 $477 forward 7 unknown #
vertex $-1 $420 $478 #
straight-curve $-1 -5.499634622181734 -192.06152531510361 0 0 0 -1 I I #
edge $-1 $418 -192.06152531510361 $422 192.06152531510361 $416 $479 forward 7 unknown #
straight-curve $-1 0 -192.06152531510361 -96.030762657551804 -1 0 0 I I #
vertex $-1 $308 $480 #
straight-curve $-1 0 192.06152531510361 -96.030762657551804 1 0 0 I I #
point $-1 5.499634622181734 192.06152531510361 -96.030762657551804 #
point $-1 5.499634622181734 -192.06152531510361 -96.030762657551804 #
straight-curve $-1 -5.499634622181734 0 96.030762657551804 0 -1 0 I I #
point $-1 -5.499634622181734 192.06152531510361 96.030762657551804 #
point $-1 -5.499634622181734 -192.06152531510361 96.030762657551804 #
straight-curve $-1 5.499634622181734 -192.06152531510361 0 0 0 -1 I I #
straight-curve $-1 5.499634622181734 192.06152531510361 0 0 0 -1 I I #
edge $-1 $481 1 $481 0 $325 $-1 forward 7 unknown #
point $-1 1 0 -0.5 #
plane-surface $-1 5.499634622181734 0 0 -1 0 0 0 0 1 forward_v I I I I #
coedge $-1 $334 $332 $336 $438 reversed $214 $-1 #
edge $-1 $347 -96.030762657551804 $440 96.030762657551804 $346 $482 forward 7 unknown #
vertex $-1 $438 $483 #
straight-curve $-1 -5.499634622181734 -192.06152531510361 0 0 0 -1 I I #
edge $-1 $436 -192.06152531510361 $440 192.06152531510361 $434 $484 forward 7 unknown #
straight-curve $-1 0 -192.06152531510361 -96.030762657551804 -1 0 0 I I #
vertex $-1 $339 $485 #
straight-curve $-1 0 192.06152531510361 -96.030762657551804 1 0 0 I I #
point $-1 5.499634622181734 192.06152531510361 -96.030762657551804 #
point $-1 5.499634622181734 -192.06152531510361 -96.030762657551804 #
straight-curve $-1 -5.499634622181734 0 96.030762657551804 0 -1 0 I I #
point $-1 -5.499634622181734 192.06152531510361 96.030762657551804 #
point $-1 -5.499634622181734 -192.06152531510361 96.030762657551804 #
straight-curve $-1 5.499634622181734 -192.06152531510361 0 0 0 -1 I I #
straight-curve $-1 5.499634622181734 192.06152531510361 0 0 0 -1 I I #
edge $-1 $486 1 $486 0 $356 $-1 forward 7 unknown #
point $-1 1 0 -0.5 #
plane-surface $-1 13.833710972451215 0 0 -1 0 0 0 0 1 forward_v I I I I #
coedge $-1 $365 $363 $367 $456 reversed $238 $-1 #
edge $-1 $378 -96.030762657551804 $458 96.030762657551804 $377 $487 forward 7 unknown #
vertex $-1 $456 $488 #
straight-curve $-1 -13.833710972451215 -192.06152531510361 0 0 0 -1 I I #
edge $-1 $454 -192.06152531510361 $458 192.06152531510361 $452 $489 forward 7 unknown #
straight-curve $-1 0 -192.06152531510361 -96.030762657551804 -1 0 0 I I #
vertex $-1 $370 $490 #
straight-curve $-1 0 192.06152531510361 -96.030762657551804 1 0 0 I I #
point $-1 13.833710972451215 192.06152531510361 -96.030762657551804 #
point $-1 13.833710972451215 -192.06152531510361 -96.030762657551804 #
straight-curve $-1 -13.833710972451215 0 96.030762657551804 0 -1 0 I I #
point $-1 -13.833710972451215 192.06152531510361 96.030762657551804 #
point $-1 -13.833710972451215 -192.06152531510361 96.030762657551804 #
straight-curve $-1 13.833710972451215 -192.06152531510361 0 0 0 -1 I I #
straight-curve $-1 13.833710972451215 192.06152531510361 0 0 0 -1 I I #
edge $-1 $491 1 $491 0 $387 $-1 forward 7 unknown #
point $-1 1.5 0 -0.75 #
edge $-1 $492 1 $492 0 $391 $-1 forward 7 unknown #
point $-1 1.5 0 -0.75 #
edge $-1 $493 1 $493 0 $395 $-1 forward 7 unknown #
point $-1 1.5 0 -0.75 #
straight-curve $-1 -48.015381328775902 31.591210713604571 0 0 0 -1 I I #
point $-1 -48.015381328775902 -31.591210713604571 -9.1368372085256251 #
straight-curve $-1 -48.015381328775902 0 -9.1368372085256251 0 1 0 I I #
point $-1 -48.015381328775902 31.591210713604571 -9.1368372085256251 #
straight-curve $-1 -5.499634622181734 192.06152531510361 0 0 0 -1 I I #
point $-1 -5.499634622181734 -192.06152531510361 -96.030762657551804 #
straight-curve $-1 -5.499634622181734 0 -96.030762657551804 0 1 0 I I #
point $-1 -5.499634622181734 192.06152531510361 -96.030762657551804 #
vertex $-1 $431 $494 #
straight-curve $-1 -5.499634622181734 192.06152531510361 0 0 0 -1 I I #
point $-1 -5.499634622181734 -192.06152531510361 -96.030762657551804 #
straight-curve $-1 -5.499634622181734 0 -96.030762657551804 0 1 0 I I #
point $-1 -5.499634622181734 192.06152531510361 -96.030762657551804 #
vertex $-1 $449 $495 #
straight-curve $-1 -13.833710972451215 192.06152531510361 0 0 0 -1 I I #
point $-1 -13.833710972451215 -192.06152531510361 -96.030762657551804 #
straight-curve $-1 -13.833710972451215 0 -96.030762657551804 0 1 0 I I #
point $-1 -13.833710972451215 192.06152531510361 -96.030762657551804 #
vertex $-1 $467 $496 #
vertex $-1 $469 $497 #
vertex $-1 $471 $498 #
point $-1 0 0 0.5 #
point $-1 0 0 0.5 #
point $-1 0 0 0.75 #
point $-1 0 0 0.75 #
point $-1 0 0 0.75 #
End-of-ACIS-data 