500 0 9 0           
7 Unknown 11 ACIS 5.0 NT 24 Fri Mar 26 00:49:08 1999 
-1 9.9999999999999995e-007 1e-010 
body $-1 $9 $-1 $10 #
body $-1 $11 $-1 $12 #
body $-1 $13 $-1 $14 #
body $-1 $15 $-1 $16 #
body $-1 $17 $-1 $18 #
body $-1 $19 $-1 $20 #
body $-1 $21 $-1 $22 #
body $-1 $23 $-1 $24 #
body $-1 $25 $-1 $26 #
lump $-1 $-1 $27 $0 #
transform $-1 1 0 0 0 1 0 0 0 1 45.797296060060425 28.09195266488743 11.510524786341293 1 rotate no_reflect no_shear #
lump $-1 $-1 $28 $1 #
transform $-1 1 0 0 0 1 0 0 0 1 45.797296060060425 28.09195266488743 11.510524786341293 1 rotate no_reflect no_shear #
lump $-1 $-1 $29 $2 #
transform $-1 1 0 0 0 1 0 0 0 1 45.797296060060425 28.09195266488743 11.510524786341293 1 rotate no_reflect no_shear #
lump $-1 $-1 $30 $3 #
transform $-1 1 0 0 0 1 0 0 0 1 45.797296060060425 28.09195266488743 11.510524786341293 1 rotate no_reflect no_shear #
lump $-1 $-1 $31 $4 #
transform $-1 1 0 0 0 1 0 0 0 1 45.797296060060425 28.09195266488743 11.510524786341293 1 rotate no_reflect no_shear #
lump $-1 $-1 $32 $5 #
transform $-1 1 0 0 0 1 0 0 0 1 45.797296060060425 28.09195266488743 11.510524786341293 1 rotate no_reflect no_shear #
lump $-1 $-1 $33 $6 #
transform $-1 1 0 0 0 1 0 0 0 1 45.797296060060425 28.09195266488743 11.510524786341293 1 rotate no_reflect no_shear #
lump $-1 $-1 $34 $7 #
transform $-1 1 0 0 0 1 0 0 0 1 45.797296060060425 28.09195266488743 11.510524786341293 1 rotate no_reflect no_shear #
lump $-1 $-1 $35 $8 #
transform $-1 1 0 0 0 1 0 0 0 1 45.797296060060425 28.09195266488743 11.510524786341293 1 rotate no_reflect no_shear #
shell $-1 $-1 $-1 $36 $-1 $9 #
shell $-1 $-1 $-1 $37 $-1 $11 #
shell $-1 $-1 $-1 $38 $-1 $13 #
shell $-1 $-1 $-1 $39 $-1 $15 #
shell $-1 $-1 $-1 $40 $-1 $17 #
shell $-1 $-1 $-1 $41 $-1 $19 #
shell $-1 $-1 $-1 $42 $-1 $21 #
shell $-1 $-1 $-1 $43 $-1 $23 #
shell $-1 $-1 $-1 $44 $-1 $25 #
face $-1 $45 $46 $27 $-1 $47 forward single #
face $-1 $48 $49 $28 $-1 $50 reversed single #
face $-1 $51 $52 $29 $-1 $53 reversed single #
face $-1 $54 $55 $30 $-1 $56 forward single #
face $-1 $57 $58 $31 $-1 $59 forward single #
face $-1 $60 $61 $32 $-1 $62 forward single #
face $-1 $63 $64 $33 $-1 $65 reversed single #
face $-1 $66 $67 $34 $-1 $68 forward single #
face $-1 $69 $70 $35 $-1 $71 forward single #
face $-1 $72 $73 $27 $-1 $74 reversed single #
loop $-1 $-1 $75 $36 #
plane-surface $-1 0 0 11.510524786341293 0 0 1 1 0 0 forward_v I I I I #
face $-1 $76 $77 $28 $-1 $78 reversed single #
loop $-1 $-1 $79 $37 #
plane-surface $-1 -40.557890795815048 -23.307768720220892 0 0 1 0 0 0 1 forward_v I I I I #
face $-1 $80 $81 $29 $-1 $82 reversed single #
loop $-1 $-1 $83 $38 #
plane-surface $-1 34.418156089898645 -88.183412562755109 74.22215040513241 -1 0 0 0 -0.6560590369687036 0.75470957328743171 forward_v I I I I #
face $-1 $84 $85 $30 $-1 $86 forward single #
loop $-1 $87 $88 $39 #
cone-surface $-1 27.580734636726795 -24.073719730460901 7.9253250418867571 0 0.6560590369687036 -0.75470957328743171 0.5 0 0 1 I I 0 1 0.5 forward I I I I #
face $-1 $89 $90 $31 $-1 $91 forward single #
loop $-1 $92 $93 $40 #
cone-surface $-1 30.144767681666245 -24.073719730460901 7.9253250418867571 0 0.6560590369687036 -0.75470957328743171 0.5 0 0 1 I I 0 1 0.5 forward I I I I #
face $-1 $94 $95 $32 $-1 $96 forward single #
loop $-1 $97 $98 $41 #
cone-surface $-1 32.708800726605695 -24.073719730460901 7.9253250418867571 0 0.6560590369687036 -0.75470957328743171 0.5 0 0 1 I I 0 1 0.5 forward I I I I #
face $-1 $99 $100 $33 $-1 $101 reversed single #
loop $-1 $-1 $102 $42 #
plane-surface $-1 30.223967088388143 42.071203141375122 110.51103400534397 1 0 0 0 -0.62932039886446345 -0.77714595512881146 forward_v I I I I #
face $-1 $103 $104 $34 $-1 $105 forward single #
loop $-1 $106 $107 $43 #
cone-surface $-1 34.673489651723081 21.133157727230383 4.8961472823257903 0 -0.62932039886446345 -0.77714595512881146 2 0 0 1 I I 0 1 2 forward I I I I #
face $-1 $108 $109 $35 $-1 $110 forward single #
loop $-1 $111 $112 $44 #
cone-surface $-1 41.347773496725488 21.133157727230383 4.8961472823257903 0 -0.62932039886446345 -0.77714595512881146 2 0 0 1 I I 0 1 2 forward I I I I #
face $-1 $113 $114 $27 $-1 $115 reversed single #
loop $-1 $-1 $116 $45 #
plane-surface $-1 0 0 -11.510524786341293 0 0 1 1 0 0 forward_v I I I I #
coedge $-1 $117 $118 $119 $120 forward $46 $-1 #
face $-1 $121 $122 $28 $-1 $123 reversed single #
loop $-1 $-1 $124 $48 #
plane-surface $-1 -40.557890795815048 -20.294805339610853 0 0 -1 0 0 0 -1 forward_v I I I I #
coedge $-1 $125 $126 $127 $128 reversed $49 $-1 #
face $-1 $129 $130 $29 $-1 $131 reversed single #
loop $-1 $-1 $132 $51 #
plane-surface $-1 30.144767681666231 -28.091952664887415 5.0948348707196516 0 -0.6560590369687036 0.75470957328743171 1 0 0 forward_v I I I I #
coedge $-1 $133 $134 $135 $136 reversed $52 $-1 #
face $-1 $-1 $137 $30 $-1 $138 forward single #
loop $-1 $139 $140 $54 #
cone-surface $-1 27.580734636726795 -23.581675452734373 7.3592928619211833 0 0.6560590369687036 -0.75470957328743171 0.25 0 0 1 I I -0.70710678118654746 0.70710678118654746 0.25 forward I I I I #
loop $-1 $-1 $141 $39 #
coedge $-1 $88 $88 $142 $143 reversed $55 $-1 #
face $-1 $-1 $144 $31 $-1 $145 forward single #
loop $-1 $146 $147 $57 #
cone-surface $-1 30.144767681666245 -23.581675452734373 7.3592928619211833 0 0.6560590369687036 -0.75470957328743171 0.25 0 0 1 I I -0.70710678118654746 0.70710678118654746 0.25 forward I I I I #
loop $-1 $-1 $148 $40 #
coedge $-1 $93 $93 $149 $150 reversed $58 $-1 #
face $-1 $-1 $151 $32 $-1 $152 forward single #
loop $-1 $153 $154 $60 #
cone-surface $-1 32.708800726605695 -23.581675452734373 7.3592928619211833 0 0.6560590369687036 -0.75470957328743171 0.25 0 0 1 I I -0.70710678118654746 0.70710678118654746 0.25 forward I I I I #
loop $-1 $-1 $155 $41 #
coedge $-1 $98 $98 $156 $157 reversed $61 $-1 #
face $-1 $158 $159 $33 $-1 $160 forward single #
loop $-1 $-1 $161 $63 #
plane-surface $-1 38.010631574224284 -15.571142105487169 39.32866722751875 0 0.62932039886446345 0.77714595512881146 1 0 0 forward_v I I I I #
coedge $-1 $162 $163 $164 $165 reversed $64 $-1 #
face $-1 $-1 $166 $34 $-1 $167 forward single #
loop $-1 $168 $169 $66 #
cone-surface $-1 34.673489651723081 18.200317628698386 1.2743914585413378 0 -0.62932039886446345 -0.77714595512881146 1 0 0 1 I I -0.70710678118654746 0.70710678118654746 1 forward I I I I #
loop $-1 $-1 $170 $43 #
coedge $-1 $107 $107 $171 $172 reversed $67 $-1 #
face $-1 $-1 $173 $35 $-1 $174 forward single #
loop $-1 $175 $176 $69 #
cone-surface $-1 41.347773496725488 18.200317628698386 1.2743914585413378 0 -0.62932039886446345 -0.77714595512881146 1 0 0 1 I I -0.70710678118654746 0.70710678118654746 1 forward I I I I #
loop $-1 $-1 $177 $44 #
coedge $-1 $112 $112 $178 $179 reversed $70 $-1 #
face $-1 $180 $181 $27 $-1 $182 reversed single #
loop $-1 $-1 $183 $72 #
plane-surface $-1 0 -28.09195266488743 0 0 1 0 0 0 1 forward_v I I I I #
coedge $-1 $184 $185 $186 $187 forward $73 $-1 #
coedge $-1 $188 $75 $189 $190 forward $46 $-1 #
coedge $-1 $75 $188 $191 $192 forward $46 $-1 #
coedge $-1 $193 $194 $75 $120 reversed $195 $-1 #
edge $-1 $196 -28.09195266488743 $197 28.09195266488743 $119 $198 forward 7 unknown #
face $-1 $199 $200 $28 $-1 $201 reversed single #
loop $-1 $-1 $202 $76 #
plane-surface $-1 -35.318485531569671 -21.801287029915873 0 -1 0 0 0 0 1 forward_v I I I I #
coedge $-1 $203 $204 $205 $206 forward $77 $-1 #
coedge $-1 $207 $79 $208 $209 reversed $49 $-1 #
coedge $-1 $79 $207 $210 $211 reversed $49 $-1 #
coedge $-1 $212 $213 $79 $128 forward $214 $-1 #
edge $-1 $215 -11.510524786341293 $216 11.510524786341293 $127 $217 forward 7 unknown #
face $-1 $218 $219 $29 $-1 $220 reversed single #
loop $-1 $-1 $221 $80 #
plane-surface $-1 25.871379273433817 -88.183412562755109 74.22215040513241 1 0 0 0 0.6560590369687036 -0.75470957328743171 forward_v I I I I #
coedge $-1 $222 $223 $224 $225 reversed $81 $-1 #
coedge $-1 $134 $83 $226 $227 reversed $52 $-1 #
coedge $-1 $83 $133 $222 $228 reversed $52 $-1 #
coedge $-1 $224 $229 $83 $136 forward $230 $-1 #
edge $-1 $231 15.999753616490125 $232 23.38016044837449 $135 $233 forward 7 unknown #
loop $-1 $-1 $142 $84 #
plane-surface $-1 30.144767681666231 -28.091952664887415 5.0948348707196516 0 -0.6560590369687036 0.75470957328743171 1 0 0 forward_v I I I I #
loop $-1 $-1 $234 $54 #
coedge $-1 $140 $140 $141 $235 reversed $85 $-1 #
coedge $-1 $141 $141 $140 $235 forward $87 $-1 #
coedge $-1 $142 $142 $88 $143 forward $137 $-1 #
edge $-1 $236 -3.7326983539416015e-015 $236 6.2831853071795969 $142 $237 forward 7 unknown #
loop $-1 $-1 $149 $89 #
plane-surface $-1 30.144767681666231 -28.091952664887415 5.0948348707196516 0 -0.6560590369687036 0.75470957328743171 1 0 0 forward_v I I I I #
loop $-1 $-1 $238 $57 #
coedge $-1 $147 $147 $148 $239 reversed $90 $-1 #
coedge $-1 $148 $148 $147 $239 forward $92 $-1 #
coedge $-1 $149 $149 $93 $150 forward $144 $-1 #
edge $-1 $240 -3.7326983539416015e-015 $240 6.2831853071795969 $149 $241 forward 7 unknown #
loop $-1 $-1 $156 $94 #
plane-surface $-1 30.144767681666231 -28.091952664887415 5.0948348707196516 0 -0.6560590369687036 0.75470957328743171 1 0 0 forward_v I I I I #
loop $-1 $-1 $242 $60 #
coedge $-1 $154 $154 $155 $243 reversed $95 $-1 #
coedge $-1 $155 $155 $154 $243 forward $97 $-1 #
coedge $-1 $156 $156 $98 $157 forward $151 $-1 #
edge $-1 $244 -3.7326983539416015e-015 $244 6.2831853071795969 $156 $245 forward 7 unknown #
face $-1 $246 $247 $33 $-1 $248 reversed single #
loop $-1 $-1 $164 $99 #
plane-surface $-1 0 0 11.510524786341293 0 0 1 1 0 0 forward_v I I I I #
coedge $-1 $249 $250 $251 $252 reversed $100 $-1 #
coedge $-1 $163 $102 $253 $254 reversed $64 $-1 #
coedge $-1 $102 $162 $249 $255 reversed $64 $-1 #
coedge $-1 $251 $256 $102 $165 forward $159 $-1 #
edge $-1 $257 -7.0563510941998686 $258 2.2541993817791379 $164 $259 forward 7 unknown #
loop $-1 $-1 $171 $103 #
plane-surface $-1 38.010631574224284 -15.571142105487169 39.32866722751875 0 0.62932039886446345 0.77714595512881146 1 0 0 forward_v I I I I #
loop $-1 $-1 $260 $66 #
coedge $-1 $169 $169 $170 $261 reversed $104 $-1 #
coedge $-1 $170 $170 $169 $261 forward $106 $-1 #
coedge $-1 $171 $171 $107 $172 forward $166 $-1 #
edge $-1 $262 3.3766921531849239e-017 $262 6.2831853071796004 $171 $263 forward 7 unknown #
loop $-1 $-1 $178 $108 #
plane-surface $-1 38.010631574224284 -15.571142105487169 39.32866722751875 0 0.62932039886446345 0.77714595512881146 1 0 0 forward_v I I I I #
loop $-1 $-1 $264 $69 #
coedge $-1 $176 $176 $177 $265 reversed $109 $-1 #
coedge $-1 $177 $177 $176 $265 forward $111 $-1 #
coedge $-1 $178 $178 $112 $179 forward $173 $-1 #
edge $-1 $266 3.3766921531849239e-017 $266 6.2831853071796004 $178 $267 forward 7 unknown #
face $-1 $268 $269 $27 $-1 $270 reversed single #
loop $-1 $-1 $271 $113 #
plane-surface $-1 -45.797296060060425 0 0 1 0 0 0 0 -1 forward_v I I I I #
coedge $-1 $272 $191 $273 $274 forward $114 $-1 #
coedge $-1 $275 $116 $272 $276 forward $73 $-1 #
coedge $-1 $116 $275 $277 $278 forward $73 $-1 #
coedge $-1 $194 $193 $116 $187 reversed $195 $-1 #
edge $-1 $279 -28.09195266488743 $280 28.09195266488743 $186 $281 forward 7 unknown #
coedge $-1 $118 $117 $282 $283 forward $46 $-1 #
coedge $-1 $284 $285 $117 $190 reversed $269 $-1 #
edge $-1 $197 -45.797296060060425 $286 45.797296060060425 $189 $287 forward 7 unknown #
coedge $-1 $183 $288 $118 $192 reversed $114 $-1 #
edge $-1 $289 -45.797296060060425 $196 45.797296060060425 $191 $290 forward 7 unknown #
coedge $-1 $186 $119 $288 $291 forward $195 $-1 #
coedge $-1 $119 $186 $284 $292 reversed $195 $-1 #
loop $-1 $-1 $193 $268 #
vertex $-1 $120 $293 #
vertex $-1 $120 $294 #
straight-curve $-1 45.797296060060425 0 11.510524786341293 0 1 0 I I #
face $-1 $295 $296 $28 $-1 $297 forward single #
loop $-1 $-1 $298 $121 #
plane-surface $-1 0 0 -11.510524786341293 0 0 1 1 0 0 forward_v I I I I #
coedge $-1 $299 $300 $207 $301 forward $122 $-1 #
coedge $-1 $302 $124 $298 $303 reversed $77 $-1 #
coedge $-1 $124 $302 $304 $305 reversed $77 $-1 #
coedge $-1 $300 $299 $124 $206 reversed $122 $-1 #
edge $-1 $306 -11.510524786341293 $307 11.510524786341293 $205 $308 forward 7 unknown #
coedge $-1 $126 $125 $202 $301 reversed $49 $-1 #
coedge $-1 $309 $310 $125 $209 forward $200 $-1 #
edge $-1 $311 15.039540133662147 $215 25.518350662152901 $208 $312 forward 7 unknown #
coedge $-1 $313 $314 $126 $211 forward $296 $-1 #
edge $-1 $216 -25.518350662152901 $315 -15.039540133662147 $210 $316 forward 7 unknown #
coedge $-1 $317 $127 $314 $318 reversed $214 $-1 #
coedge $-1 $127 $317 $309 $319 reversed $214 $-1 #
loop $-1 $-1 $317 $295 #
vertex $-1 $319 $320 #
vertex $-1 $128 $321 #
straight-curve $-1 -45.797296060060425 -23.307768720220892 0 0 0 1 I I #
face $-1 $-1 $230 $29 $-1 $322 forward single #
loop $-1 $-1 $323 $129 #
plane-surface $-1 0 -28.09195266488743 0 0 1 0 0 0 1 forward_v I I I I #
coedge $-1 $324 $325 $326 $327 reversed $130 $-1 #
coedge $-1 $328 $132 $134 $228 forward $81 $-1 #
coedge $-1 $132 $328 $324 $329 forward $81 $-1 #
coedge $-1 $326 $135 $132 $225 forward $230 $-1 #
edge $-1 $232 -19.345772249065529 $330 -10.798995432600702 $224 $331 forward 7 unknown #
coedge $-1 $332 $333 $133 $227 forward $219 $-1 #
edge $-1 $334 -32.016240331846568 $231 -25.600550416224912 $226 $335 forward 7 unknown #
edge $-1 $232 -9.7791350383116402 $334 1.888283279974768e-014 $134 $336 forward 7 unknown #
coedge $-1 $135 $326 $332 $337 forward $230 $-1 #
loop $-1 $-1 $326 $218 #
vertex $-1 $227 $338 #
vertex $-1 $136 $339 #
straight-curve $-1 34.418156089898645 -44.091706281377554 11.510524786341293 0 1 0 I I #
coedge $-1 $234 $234 $-1 $340 reversed $139 $-1 #
edge $-1 $341 0 $341 6.2831853071796004 $140 $342 forward 7 unknown #
vertex $-1 $143 $343 #
ellipse-curve $-1 27.580734636726795 -24.401749248945247 8.3026798285304668 0 -0.6560590369687036 0.75470957328743171 0.5 0 0 1 I I #
coedge $-1 $238 $238 $-1 $344 reversed $146 $-1 #
edge $-1 $345 0 $345 6.2831853071796004 $147 $346 forward 7 unknown #
vertex $-1 $150 $347 #
ellipse-curve $-1 30.144767681666245 -24.401749248945247 8.3026798285304668 0 -0.6560590369687036 0.75470957328743171 0.5 0 0 1 I I #
coedge $-1 $242 $242 $-1 $348 reversed $153 $-1 #
edge $-1 $349 0 $349 6.2831853071796004 $154 $350 forward 7 unknown #
vertex $-1 $157 $351 #
ellipse-curve $-1 32.708800726605695 -24.401749248945247 8.3026798285304668 0 -0.6560590369687036 0.75470957328743171 0.5 0 0 1 I I #
face $-1 $-1 $352 $33 $-1 $353 reversed single #
loop $-1 $-1 $354 $158 #
plane-surface $-1 45.797296060060425 0 0 -1 0 0 0 0 1 forward_v I I I I #
coedge $-1 $355 $161 $163 $255 forward $100 $-1 #
coedge $-1 $161 $355 $354 $356 reversed $100 $-1 #
coedge $-1 $357 $164 $161 $252 forward $159 $-1 #
edge $-1 $258 11.218651301276001 $358 26.791980272948283 $251 $359 forward 7 unknown #
coedge $-1 $360 $361 $162 $254 forward $352 $-1 #
edge $-1 $362 -51.284527487050397 $257 -43.744992216330694 $253 $363 forward 7 unknown #
edge $-1 $258 44.203465343523121 $362 56.183905329774845 $163 $364 forward 7 unknown #
coedge $-1 $164 $357 $360 $365 forward $159 $-1 #
vertex $-1 $254 $366 #
vertex $-1 $165 $367 #
straight-curve $-1 30.223967088388143 21.035601570687561 11.510524786341293 0 -1 0 I I #
coedge $-1 $260 $260 $-1 $368 reversed $168 $-1 #
edge $-1 $369 0 $369 6.2831853071796004 $169 $370 forward 7 unknown #
vertex $-1 $172 $371 #
ellipse-curve $-1 34.673489651723081 23.436677426897923 7.740757150981441 0 0.62932039886446345 0.77714595512881146 2 0 0 1 I I #
coedge $-1 $264 $264 $-1 $372 reversed $175 $-1 #
edge $-1 $373 0 $373 6.2831853071796004 $176 $374 forward 7 unknown #
vertex $-1 $179 $375 #
ellipse-curve $-1 41.347773496725488 23.436677426897923 7.740757150981441 0 0.62932039886446345 0.77714595512881146 2 0 0 1 I I #
face $-1 $-1 $195 $27 $-1 $376 reversed single #
loop $-1 $-1 $284 $180 #
plane-surface $-1 0 28.09195266488743 0 0 -1 0 0 0 -1 forward_v I I I I #
coedge $-1 $377 $282 $285 $378 forward $181 $-1 #
coedge $-1 $288 $183 $184 $276 reversed $114 $-1 #
coedge $-1 $282 $377 $183 $274 reversed $181 $-1 #
edge $-1 $289 -11.510524786341293 $379 11.510524786341293 $273 $380 forward 7 unknown #
coedge $-1 $185 $184 $377 $381 forward $73 $-1 #
edge $-1 $280 -45.797296060060425 $379 45.797296060060425 $272 $382 forward 7 unknown #
coedge $-1 $285 $284 $185 $278 reversed $269 $-1 #
edge $-1 $383 -45.797296060060425 $279 45.797296060060425 $277 $384 forward 7 unknown #
vertex $-1 $187 $385 #
vertex $-1 $291 $386 #
straight-curve $-1 45.797296060060425 0 -11.510524786341293 0 -1 0 I I #
coedge $-1 $271 $273 $188 $283 reversed $181 $-1 #
edge $-1 $286 -28.09195266488743 $289 28.09195266488743 $282 $387 forward 7 unknown #
coedge $-1 $277 $189 $194 $292 forward $269 $-1 #
coedge $-1 $189 $277 $271 $378 reversed $269 $-1 #
vertex $-1 $190 $388 #
straight-curve $-1 0 28.09195266488743 11.510524786341293 -1 0 0 I I #
coedge $-1 $191 $272 $193 $291 reversed $114 $-1 #
vertex $-1 $283 $389 #
straight-curve $-1 0 -28.09195266488743 11.510524786341293 1 0 0 I I #
edge $-1 $196 -11.510524786341293 $280 11.510524786341293 $193 $390 forward 7 unknown #
edge $-1 $197 -11.510524786341293 $279 11.510524786341293 $194 $391 forward 7 unknown #
point $-1 45.797296060060425 -28.09195266488743 11.510524786341293 #
point $-1 45.797296060060425 28.09195266488743 11.510524786341293 #
face $-1 $-1 $214 $28 $-1 $392 reversed single #
loop $-1 $-1 $304 $199 #
plane-surface $-1 0 0 11.510524786341293 0 0 1 1 0 0 forward_v I I I I #
coedge $-1 $310 $309 $203 $303 forward $200 $-1 #
coedge $-1 $205 $202 $310 $393 reversed $122 $-1 #
coedge $-1 $202 $205 $313 $394 reversed $122 $-1 #
edge $-1 $315 -11.510524786341293 $311 11.510524786341293 $202 $395 forward 7 unknown #
coedge $-1 $204 $203 $317 $396 reversed $77 $-1 #
edge $-1 $397 -25.518350662152901 $307 -15.039540133662147 $298 $398 forward 7 unknown #
coedge $-1 $314 $313 $204 $305 forward $296 $-1 #
edge $-1 $306 15.039540133662147 $399 25.518350662152901 $304 $400 forward 7 unknown #
vertex $-1 $305 $401 #
vertex $-1 $303 $402 #
straight-curve $-1 -35.318485531569671 -20.294805339610853 0 0 0 -1 I I #
coedge $-1 $298 $208 $213 $319 forward $200 $-1 #
coedge $-1 $208 $298 $299 $393 forward $200 $-1 #
vertex $-1 $209 $403 #
straight-curve $-1 -20.278945397907524 -23.307768720220892 -11.510524786341293 -1 0 0 I I #
coedge $-1 $304 $210 $300 $394 forward $296 $-1 #
coedge $-1 $210 $304 $212 $318 forward $296 $-1 #
vertex $-1 $211 $404 #
straight-curve $-1 -20.278945397907524 -23.307768720220892 11.510524786341293 1 0 0 I I #
coedge $-1 $213 $212 $302 $396 forward $214 $-1 #
edge $-1 $399 20.294805339610853 $216 23.307768720220892 $212 $405 forward 7 unknown #
edge $-1 $215 -23.307768720220892 $397 -20.294805339610853 $213 $406 forward 7 unknown #
point $-1 -45.797296060060425 -23.307768720220892 -11.510524786341293 #
point $-1 -45.797296060060425 -23.307768720220892 11.510524786341293 #
plane-surface $-1 0 0 11.510524786341293 0 0 1 1 0 0 forward_v I I I I #
coedge $-1 $333 $332 $325 $407 forward $219 $-1 #
coedge $-1 $325 $221 $223 $329 reversed $130 $-1 #
coedge $-1 $221 $324 $323 $407 reversed $130 $-1 #
coedge $-1 $229 $224 $221 $327 forward $230 $-1 #
edge $-1 $330 -23.38016044837449 $408 -15.999753616490125 $326 $409 forward 7 unknown #
coedge $-1 $223 $222 $333 $410 reversed $81 $-1 #
edge $-1 $411 -1.888283279974768e-014 $330 9.7791350383116402 $324 $412 forward 7 unknown #
vertex $-1 $225 $413 #
straight-curve $-1 15.072383840833115 -20.711545833003065 11.510524786341293 -1 0 0 I I #
coedge $-1 $323 $226 $229 $337 reversed $219 $-1 #
coedge $-1 $226 $323 $328 $410 forward $219 $-1 #
vertex $-1 $227 $414 #
straight-curve $-1 34.418156089898645 -28.09195266488743 37.111075202566205 0 0 1 I I #
straight-curve $-1 34.418156089898645 -28.091952664887415 5.0948348707196516 0 -0.75470957328743171 -0.6560590369687036 I I #
edge $-1 $408 25.871379273433817 $231 34.418156089898645 $332 $415 forward 7 unknown #
point $-1 34.418156089898645 -28.09195266488743 11.510524786341293 #
point $-1 34.418156089898645 -20.711545833003065 11.510524786341293 #
edge $-1 $416 1 $416 0 $234 $-1 forward 7 unknown #
vertex $-1 $235 $417 #
ellipse-curve $-1 27.580734636726795 -23.745690211976548 7.5479702552430412 0 -0.6560590369687036 0.75470957328743171 0.5 0 0 1 I I #
point $-1 28.080734636726795 -24.401749248945254 8.3026798285304722 #
edge $-1 $418 1 $418 0 $238 $-1 forward 7 unknown #
vertex $-1 $239 $419 #
ellipse-curve $-1 30.144767681666245 -23.745690211976548 7.5479702552430412 0 -0.6560590369687036 0.75470957328743171 0.5 0 0 1 I I #
point $-1 30.644767681666245 -24.401749248945254 8.3026798285304722 #
edge $-1 $420 1 $420 0 $242 $-1 forward 7 unknown #
vertex $-1 $243 $421 #
ellipse-curve $-1 32.708800726605695 -23.745690211976548 7.5479702552430412 0 -0.6560590369687036 0.75470957328743171 0.5 0 0 1 I I #
point $-1 33.208800726605695 -24.401749248945254 8.3026798285304722 #
loop $-1 $-1 $253 $246 #
plane-surface $-1 0 28.09195266488743 0 0 -1 0 0 0 -1 forward_v I I I I #
coedge $-1 $422 $423 $250 $356 forward $247 $-1 #
coedge $-1 $250 $249 $361 $424 reversed $100 $-1 #
edge $-1 $358 25.777774018300555 $425 37.758214004552286 $354 $426 forward 7 unknown #
coedge $-1 $256 $251 $423 $427 forward $159 $-1 #
vertex $-1 $427 $428 #
straight-curve $-1 19.005315787112142 18.781402188908423 11.510524786341289 1 0 0 I I #
coedge $-1 $429 $253 $256 $365 reversed $352 $-1 #
coedge $-1 $253 $429 $355 $424 forward $352 $-1 #
vertex $-1 $254 $430 #
straight-curve $-1 30.223967088388143 28.09195266488743 55.255517002671986 0 0 1 I I #
straight-curve $-1 30.223967088388143 -15.571142105487169 39.32866722751875 0 0.77714595512881146 -0.62932039886446345 I I #
edge $-1 $431 -45.797296060060425 $257 -30.223967088388143 $360 $432 forward 7 unknown #
point $-1 30.223967088388143 28.09195266488743 11.510524786341293 #
point $-1 30.223967088388143 18.781402188908423 11.510524786341293 #
edge $-1 $433 1 $433 0 $260 $-1 forward 7 unknown #
vertex $-1 $261 $434 #
ellipse-curve $-1 34.673489651723081 18.829638027562851 2.0515374136701494 0 0.62932039886446345 0.77714595512881146 2 0 0 1 I I #
point $-1 36.673489651723081 23.436677426897916 7.7407571509814321 #
edge $-1 $435 1 $435 0 $264 $-1 forward 7 unknown #
vertex $-1 $265 $436 #
ellipse-curve $-1 41.347773496725488 18.829638027562851 2.0515374136701494 0 0.62932039886446345 0.77714595512881146 2 0 0 1 I I #
point $-1 43.347773496725488 23.436677426897916 7.7407571509814321 #
plane-surface $-1 45.797296060060425 0 0 -1 0 0 0 0 1 forward_v I I I I #
coedge $-1 $273 $271 $275 $381 reversed $181 $-1 #
edge $-1 $286 -11.510524786341293 $383 11.510524786341293 $285 $437 forward 7 unknown #
vertex $-1 $381 $438 #
straight-curve $-1 -45.797296060060425 -28.09195266488743 0 0 0 -1 I I #
edge $-1 $379 -28.09195266488743 $383 28.09195266488743 $377 $439 forward 7 unknown #
straight-curve $-1 0 -28.09195266488743 -11.510524786341293 -1 0 0 I I #
vertex $-1 $278 $440 #
straight-curve $-1 0 28.09195266488743 -11.510524786341293 1 0 0 I I #
point $-1 45.797296060060425 28.09195266488743 -11.510524786341293 #
point $-1 45.797296060060425 -28.09195266488743 -11.510524786341293 #
straight-curve $-1 -45.797296060060425 0 11.510524786341293 0 -1 0 I I #
point $-1 -45.797296060060425 28.09195266488743 11.510524786341293 #
point $-1 -45.797296060060425 -28.09195266488743 11.510524786341293 #
straight-curve $-1 45.797296060060425 -28.09195266488743 0 0 0 -1 I I #
straight-curve $-1 45.797296060060425 28.09195266488743 0 0 0 -1 I I #
plane-surface $-1 -45.797296060060425 0 0 1 0 0 0 0 -1 forward_v I I I I #
edge $-1 $307 9.394161824652917 $311 12.407125205262956 $310 $441 forward 7 unknown #
edge $-1 $315 -12.407125205262956 $306 -9.394161824652917 $313 $442 forward 7 unknown #
straight-curve $-1 -35.318485531569671 -23.307768720220892 0 0 0 -1 I I #
edge $-1 $399 -11.510524786341293 $397 11.510524786341293 $317 $443 forward 7 unknown #
vertex $-1 $396 $444 #
straight-curve $-1 -20.278945397907524 -20.294805339610853 -11.510524786341293 1 0 0 I I #
vertex $-1 $318 $445 #
straight-curve $-1 -20.278945397907524 -20.294805339610853 11.510524786341293 -1 0 0 I I #
point $-1 -35.318485531569671 -20.294805339610853 11.510524786341293 #
point $-1 -35.318485531569671 -20.294805339610853 -11.510524786341293 #
point $-1 -35.318485531569671 -23.307768720220892 -11.510524786341293 #
point $-1 -35.318485531569671 -23.307768720220892 11.510524786341293 #
straight-curve $-1 -45.797296060060425 0 11.510524786341293 0 -1 0 I I #
straight-curve $-1 -45.797296060060425 0 -11.510524786341293 0 1 0 I I #
edge $-1 $408 25.600550416224912 $411 32.016240331846568 $323 $446 forward 7 unknown #
vertex $-1 $337 $447 #
straight-curve $-1 25.871379273433817 -44.091706281377554 11.510524786341293 0 -1 0 I I #
edge $-1 $411 10.798995432600702 $334 19.345772249065529 $333 $448 forward 7 unknown #
vertex $-1 $410 $449 #
straight-curve $-1 25.871379273433817 -28.091952664887415 5.0948348707196516 0 0.75470957328743171 0.6560590369687036 I I #
point $-1 25.871379273433817 -20.711545833003065 11.510524786341293 #
point $-1 34.418156089898645 -28.09195266488743 5.0948348707196391 #
straight-curve $-1 0 -28.09195266488743 11.510524786341293 1 0 0 I I #
vertex $-1 $340 $450 #
point $-1 28.080734636726795 -23.745690211976548 7.5479702552430412 #
vertex $-1 $344 $451 #
point $-1 30.644767681666245 -23.745690211976548 7.5479702552430412 #
vertex $-1 $348 $452 #
point $-1 33.208800726605695 -23.745690211976548 7.5479702552430412 #
coedge $-1 $423 $354 $429 $453 reversed $247 $-1 #
coedge $-1 $354 $422 $357 $427 reversed $247 $-1 #
edge $-1 $425 -26.791980272948283 $362 -11.218651301276001 $361 $454 forward 7 unknown #
vertex $-1 $356 $455 #
straight-curve $-1 45.797296060060425 -1.2516906216384234 27.7330038133762 0 0.77714595512881146 -0.62932039886446345 I I #
edge $-1 $358 18.781402188908423 $431 28.09195266488743 $423 $456 forward 7 unknown #
point $-1 45.797296060060425 18.781402188908423 11.510524786341293 #
coedge $-1 $361 $360 $422 $453 forward $352 $-1 #
point $-1 30.223967088388143 28.09195266488743 3.9709895156215893 #
vertex $-1 $427 $457 #
straight-curve $-1 0 28.09195266488743 11.510524786341293 -1 0 0 I I #
vertex $-1 $368 $458 #
point $-1 36.673489651723081 18.829638027562851 2.0515374136701494 #
vertex $-1 $372 $459 #
point $-1 43.347773496725488 18.829638027562851 2.0515374136701494 #
straight-curve $-1 -45.797296060060425 28.09195266488743 0 0 0 -1 I I #
point $-1 -45.797296060060425 -28.09195266488743 -11.510524786341293 #
straight-curve $-1 -45.797296060060425 0 -11.510524786341293 0 1 0 I I #
point $-1 -45.797296060060425 28.09195266488743 -11.510524786341293 #
straight-curve $-1 -35.318485531569671 -10.900643514957936 -11.510524786341293 0 -1 0 I I #
straight-curve $-1 -35.318485531569671 -10.900643514957936 11.510524786341293 0 1 0 I I #
straight-curve $-1 -45.797296060060425 -20.294805339610853 0 0 0 -1 I I #
point $-1 -45.797296060060425 -20.294805339610853 -11.510524786341293 #
point $-1 -45.797296060060425 -20.294805339610853 11.510524786341293 #
straight-curve $-1 25.871379273433817 -28.09195266488743 37.111075202566205 0 0 -1 I I #
point $-1 25.871379273433817 -28.09195266488743 11.510524786341293 #
straight-curve $-1 15.072383840833115 -28.09195266488743 5.09483487071964 1 0 0 I I #
point $-1 25.871379273433817 -28.09195266488743 5.0948348707196391 #
point $-1 27.580734636726795 -23.417660693492198 7.1706154685993253 #
point $-1 30.144767681666245 -23.417660693492198 7.1706154685993253 #
point $-1 32.708800726605695 -23.417660693492198 7.1706154685993253 #
edge $-1 $431 -11.510524786341293 $425 -3.9709895156215893 $422 $460 forward 7 unknown #
straight-curve $-1 19.005315787112142 28.091952664887426 3.9709895156215858 -1 0 0 I I #
point $-1 45.797296060060425 28.09195266488743 3.9709895156215893 #
straight-curve $-1 45.797296060060425 0 11.510524786341293 0 1 0 I I #
point $-1 45.797296060060425 28.09195266488743 11.510524786341293 #
point $-1 34.673489651723081 17.570997229833921 0.49724550341252638 #
point $-1 41.347773496725488 17.570997229833921 0.49724550341252638 #
straight-curve $-1 45.797296060060425 28.09195266488743 0 0 0 -1 I I #
End-of-ACIS-data 