500 0 8 0           
7 Unknown 11 ACIS 5.0 NT 24 Thu Mar 25 19:37:45 1999 
-1 9.9999999999999995e-007 1e-010 
body $-1 $8 $-1 $9 #
body $-1 $10 $-1 $11 #
body $-1 $12 $-1 $13 #
body $-1 $14 $-1 $15 #
body $-1 $16 $-1 $17 #
body $-1 $18 $-1 $19 #
body $-1 $20 $-1 $21 #
body $-1 $22 $-1 $23 #
lump $-1 $-1 $24 $0 #
transform $-1 1 0 0 0 1 0 0 0 1 40.681173131504259 18.442785691432924 6.3265616018376258 1 rotate no_reflect no_shear #
lump $-1 $-1 $25 $1 #
transform $-1 1 0 0 0 1 0 0 0 1 40.681173131504259 18.442785691432924 6.3265616018376258 1 rotate no_reflect no_shear #
lump $-1 $-1 $26 $2 #
transform $-1 1 0 0 0 1 0 0 0 1 40.681173131504259 18.442785691432924 6.3265616018376258 1 rotate no_reflect no_shear #
lump $-1 $-1 $27 $3 #
transform $-1 1 0 0 0 1 0 0 0 1 40.681173131504259 18.442785691432924 6.3265616018376258 1 rotate no_reflect no_shear #
lump $-1 $-1 $28 $4 #
transform $-1 1 0 0 0 1 0 0 0 1 40.681173131504259 18.442785691432924 6.3265616018376258 1 rotate no_reflect no_shear #
lump $-1 $-1 $29 $5 #
transform $-1 1 0 0 0 1 0 0 0 1 40.681173131504259 18.442785691432924 6.3265616018376258 1 rotate no_reflect no_shear #
lump $-1 $-1 $30 $6 #
transform $-1 1 0 0 0 1 0 0 0 1 40.681173131504259 18.442785691432924 6.3265616018376258 1 rotate no_reflect no_shear #
lump $-1 $-1 $31 $7 #
transform $-1 1 0 0 0 1 0 0 0 1 40.681173131504259 18.442785691432924 6.3265616018376258 1 rotate no_reflect no_shear #
shell $-1 $-1 $-1 $32 $-1 $8 #
shell $-1 $-1 $-1 $33 $-1 $10 #
shell $-1 $-1 $-1 $34 $-1 $12 #
shell $-1 $-1 $-1 $35 $-1 $14 #
shell $-1 $-1 $-1 $36 $-1 $16 #
shell $-1 $-1 $-1 $37 $-1 $18 #
shell $-1 $-1 $-1 $38 $-1 $20 #
shell $-1 $-1 $-1 $39 $-1 $22 #
face $-1 $40 $41 $24 $-1 $42 forward single #
face $-1 $43 $44 $25 $-1 $45 reversed single #
face $-1 $46 $47 $26 $-1 $48 reversed single #
face $-1 $49 $50 $27 $-1 $51 forward single #
face $-1 $52 $53 $28 $-1 $54 forward single #
face $-1 $55 $56 $29 $-1 $57 reversed single #
face $-1 $58 $59 $30 $-1 $60 forward single #
face $-1 $61 $62 $31 $-1 $63 forward single #
face $-1 $64 $65 $24 $-1 $66 reversed single #
loop $-1 $-1 $67 $32 #
plane-surface $-1 0 0 6.3265616018376258 0 0 1 1 0 0 forward_v I I I I #
face $-1 $68 $69 $25 $-1 $70 reversed single #
loop $-1 $-1 $71 $33 #
plane-surface $-1 -32.82421961601554 -15.949726156604839 0 1 0 0 0 0 -1 forward_v I I I I #
face $-1 $72 $73 $26 $-1 $74 reversed single #
loop $-1 $-1 $75 $34 #
plane-surface $-1 -99.208347717758585 -5.9772770945285956 58.765506394353366 0 1 0 -0.71933980857756763 0 0.69465836192734942 forward_v I I I I #
face $-1 $76 $77 $27 $-1 $78 forward single #
loop $-1 $79 $80 $35 #
cone-surface $-1 -38.216728356191197 -3.6543252818620999 3.8090837100330619 0.71933980857756763 0 -0.69465836192734942 0.34732918096367471 0 0.35966990428878381 1 I I 0 1 0.5 forward I I I I #
face $-1 $81 $82 $28 $-1 $83 forward single #
loop $-1 $84 $85 $36 #
cone-surface $-1 -38.216728356191197 -0.16989756286235647 3.8090837100330619 0.71933980857756763 0 -0.69465836192734942 0.34732918096367471 0 0.35966990428878381 1 I I 0 1 0.5 forward I I I I #
face $-1 $86 $87 $29 $-1 $88 reversed single #
loop $-1 $-1 $89 $37 #
plane-surface $-1 42.689313540131288 5.7468870822409546 116.27289548634641 0 -1 0 -0.71933980857756763 0 -0.69465836192734942 forward_v I I I I #
face $-1 $90 $91 $30 $-1 $92 forward single #
loop $-1 $93 $94 $38 #
cone-surface $-1 37.859057323696746 1.1542561692363726 3.4292949811875393 -0.71933980857756763 0 -0.69465836192734942 0.34732918096367471 0 -0.35966990428878381 1 I I 0 1 0.5 forward I I I I #
face $-1 $95 $96 $31 $-1 $97 forward single #
loop $-1 $98 $99 $39 #
cone-surface $-1 37.859057323696746 3.9098347170391214 3.4292949811875393 -0.71933980857756763 0 -0.69465836192734942 0.34732918096367471 0 -0.35966990428878381 1 I I 0 1 0.5 forward I I I I #
face $-1 $100 $101 $24 $-1 $102 reversed single #
loop $-1 $-1 $103 $40 #
plane-surface $-1 0 0 -6.3265616018376258 0 0 1 1 0 0 forward_v I I I I #
coedge $-1 $104 $105 $106 $107 forward $41 $-1 #
face $-1 $108 $109 $25 $-1 $110 reversed single #
loop $-1 $-1 $111 $43 #
plane-surface $-1 -31.324219616015537 -13.456666621776755 0 0 -1 0 0 0 -1 forward_v I I I I #
coedge $-1 $112 $113 $114 $115 forward $44 $-1 #
face $-1 $116 $117 $26 $-1 $118 reversed single #
loop $-1 $-1 $119 $46 #
plane-surface $-1 -40.681173131504259 -1.91211142236223 2.2464722167260689 -0.71933980857756763 0 0.69465836192734942 0.69465836192734942 0 0.71933980857756763 forward_v I I I I #
coedge $-1 $120 $121 $122 $123 reversed $47 $-1 #
face $-1 $-1 $124 $27 $-1 $125 forward single #
loop $-1 $126 $127 $49 #
cone-surface $-1 -37.542496841680062 -3.6543252818620999 3.1579859203024414 0.71933980857756763 0 -0.69465836192734942 0.17366459048183736 0 0.17983495214439191 1 I I -0.70710678118654746 0.70710678118654746 0.25 forward I I I I #
loop $-1 $-1 $128 $35 #
coedge $-1 $80 $80 $129 $130 reversed $50 $-1 #
face $-1 $-1 $131 $28 $-1 $132 forward single #
loop $-1 $133 $134 $52 #
cone-surface $-1 -37.542496841680062 -0.16989756286235647 3.1579859203024414 0.71933980857756763 0 -0.69465836192734942 0.17366459048183736 0 0.17983495214439191 1 I I -0.70710678118654746 0.70710678118654746 0.25 forward I I I I #
loop $-1 $-1 $135 $36 #
coedge $-1 $85 $85 $136 $137 reversed $53 $-1 #
face $-1 $138 $139 $29 $-1 $140 reversed single #
loop $-1 $-1 $141 $55 #
plane-surface $-1 -15.837861046123038 2.532045443137747 59.753861308719117 0.71933980857756763 0 0.69465836192734942 0.69465836192734942 0 -0.71933980857756763 forward_v I I I I #
coedge $-1 $142 $143 $144 $145 reversed $56 $-1 #
face $-1 $-1 $146 $30 $-1 $147 forward single #
loop $-1 $148 $149 $58 #
cone-surface $-1 37.31955246726357 1.1542561692363726 2.9083012097420271 -0.71933980857756763 0 -0.69465836192734942 0.17366459048183736 0 -0.17983495214439191 1 I I -0.70710678118654746 0.70710678118654746 0.25 forward I I I I #
loop $-1 $-1 $150 $38 #
coedge $-1 $94 $94 $151 $152 reversed $59 $-1 #
face $-1 $-1 $153 $31 $-1 $154 forward single #
loop $-1 $155 $156 $61 #
cone-surface $-1 37.31955246726357 3.9098347170391214 2.9083012097420271 -0.71933980857756763 0 -0.69465836192734942 0.17366459048183736 0 -0.17983495214439191 1 I I -0.70710678118654746 0.70710678118654746 0.25 forward I I I I #
loop $-1 $-1 $157 $39 #
coedge $-1 $99 $99 $158 $159 reversed $62 $-1 #
face $-1 $160 $161 $24 $-1 $162 reversed single #
loop $-1 $-1 $163 $64 #
plane-surface $-1 0 -18.442785691432924 0 0 1 0 0 0 1 forward_v I I I I #
coedge $-1 $164 $165 $166 $167 forward $65 $-1 #
coedge $-1 $168 $67 $169 $170 forward $41 $-1 #
coedge $-1 $67 $168 $171 $172 forward $41 $-1 #
coedge $-1 $173 $174 $67 $107 reversed $175 $-1 #
edge $-1 $176 -18.442785691432924 $177 18.442785691432924 $106 $178 forward 7 unknown #
face $-1 $179 $180 $25 $-1 $181 forward single #
loop $-1 $-1 $182 $68 #
plane-surface $-1 -29.824219616015537 -15.949726156604839 0 -1 0 0 0 0 1 forward_v I I I I #
coedge $-1 $183 $184 $185 $186 forward $69 $-1 #
coedge $-1 $187 $71 $188 $189 reversed $44 $-1 #
coedge $-1 $71 $187 $190 $191 reversed $44 $-1 #
coedge $-1 $184 $183 $71 $115 reversed $69 $-1 #
edge $-1 $192 -6.3265616018376258 $193 6.3265616018376258 $114 $194 forward 7 unknown #
face $-1 $195 $196 $26 $-1 $197 reversed single #
loop $-1 $-1 $198 $72 #
plane-surface $-1 -99.208347717758585 2.1530542498041356 58.765506394353366 0 -1 0 0.71933980857756763 0 -0.69465836192734942 forward_v I I I I #
coedge $-1 $199 $200 $201 $202 reversed $73 $-1 #
coedge $-1 $121 $75 $203 $204 reversed $47 $-1 #
coedge $-1 $75 $120 $199 $205 reversed $47 $-1 #
coedge $-1 $201 $206 $75 $123 forward $207 $-1 #
edge $-1 $208 8.9230007273750331 $209 12.86309715326766 $122 $210 forward 7 unknown #
loop $-1 $-1 $129 $76 #
plane-surface $-1 -40.681173131504259 -1.91211142236223 2.2464722167260689 -0.71933980857756763 0 0.69465836192734942 0.69465836192734942 0 0.71933980857756763 forward_v I I I I #
loop $-1 $-1 $211 $49 #
coedge $-1 $127 $127 $128 $212 reversed $77 $-1 #
coedge $-1 $128 $128 $127 $212 forward $79 $-1 #
coedge $-1 $129 $129 $80 $130 forward $124 $-1 #
edge $-1 $213 0 $213 6.2831853071796004 $129 $214 forward 7 unknown #
loop $-1 $-1 $136 $81 #
plane-surface $-1 -40.681173131504259 -1.91211142236223 2.2464722167260689 -0.71933980857756763 0 0.69465836192734942 0.69465836192734942 0 0.71933980857756763 forward_v I I I I #
loop $-1 $-1 $215 $52 #
coedge $-1 $134 $134 $135 $216 reversed $82 $-1 #
coedge $-1 $135 $135 $134 $216 forward $84 $-1 #
coedge $-1 $136 $136 $85 $137 forward $131 $-1 #
edge $-1 $217 0 $217 6.2831853071796004 $136 $218 forward 7 unknown #
face $-1 $219 $220 $29 $-1 $221 forward single #
loop $-1 $-1 $222 $86 #
plane-surface $-1 42.689313540131288 -0.68279619596546048 116.27289548634641 0 1 0 0.71933980857756763 0 0.69465836192734942 forward_v I I I I #
coedge $-1 $223 $224 $225 $226 reversed $87 $-1 #
coedge $-1 $143 $89 $227 $228 reversed $56 $-1 #
coedge $-1 $89 $142 $223 $229 reversed $56 $-1 #
coedge $-1 $225 $230 $89 $145 forward $220 $-1 #
edge $-1 $231 -19.336516361438616 $232 -14.411624554401133 $144 $233 forward 7 unknown #
loop $-1 $-1 $151 $90 #
plane-surface $-1 -15.837861046123038 2.532045443137747 59.753861308719117 0.71933980857756763 0 0.69465836192734942 0.69465836192734942 0 -0.71933980857756763 forward_v I I I I #
loop $-1 $-1 $234 $58 #
coedge $-1 $149 $149 $150 $235 reversed $91 $-1 #
coedge $-1 $150 $150 $149 $235 forward $93 $-1 #
coedge $-1 $151 $151 $94 $152 forward $146 $-1 #
edge $-1 $236 0 $236 6.2831853071796004 $151 $237 forward 7 unknown #
loop $-1 $-1 $158 $95 #
plane-surface $-1 -15.837861046123038 2.532045443137747 59.753861308719117 0.71933980857756763 0 0.69465836192734942 0.69465836192734942 0 -0.71933980857756763 forward_v I I I I #
loop $-1 $-1 $238 $61 #
coedge $-1 $156 $156 $157 $239 reversed $96 $-1 #
coedge $-1 $157 $157 $156 $239 forward $98 $-1 #
coedge $-1 $158 $158 $99 $159 forward $153 $-1 #
edge $-1 $240 0 $240 6.2831853071796004 $158 $241 forward 7 unknown #
face $-1 $242 $243 $24 $-1 $244 reversed single #
loop $-1 $-1 $245 $100 #
plane-surface $-1 -40.681173131504259 0 0 1 0 0 0 0 -1 forward_v I I I I #
coedge $-1 $246 $171 $247 $248 forward $101 $-1 #
coedge $-1 $249 $103 $246 $250 forward $65 $-1 #
coedge $-1 $103 $249 $251 $252 forward $65 $-1 #
coedge $-1 $174 $173 $103 $167 reversed $175 $-1 #
edge $-1 $253 -18.442785691432924 $254 18.442785691432924 $166 $255 forward 7 unknown #
coedge $-1 $105 $104 $256 $257 forward $41 $-1 #
coedge $-1 $258 $259 $104 $170 reversed $243 $-1 #
edge $-1 $177 -40.681173131504259 $260 40.681173131504259 $169 $261 forward 7 unknown #
coedge $-1 $163 $262 $105 $172 reversed $101 $-1 #
edge $-1 $263 -40.681173131504259 $176 40.681173131504259 $171 $264 forward 7 unknown #
coedge $-1 $166 $106 $262 $265 forward $175 $-1 #
coedge $-1 $106 $166 $258 $266 reversed $175 $-1 #
loop $-1 $-1 $173 $242 #
vertex $-1 $107 $267 #
vertex $-1 $107 $268 #
straight-curve $-1 40.681173131504259 0 6.3265616018376258 0 1 0 I I #
face $-1 $269 $270 $25 $-1 $271 reversed single #
loop $-1 $-1 $272 $108 #
plane-surface $-1 0 0 6.3265616018376258 0 0 1 1 0 0 forward_v I I I I #
coedge $-1 $273 $274 $275 $276 reversed $109 $-1 #
coedge $-1 $114 $111 $277 $278 reversed $69 $-1 #
coedge $-1 $111 $114 $279 $280 reversed $69 $-1 #
coedge $-1 $274 $273 $111 $186 reversed $109 $-1 #
edge $-1 $281 -6.3265616018376258 $282 6.3265616018376258 $185 $283 forward 7 unknown #
coedge $-1 $113 $112 $284 $285 reversed $44 $-1 #
coedge $-1 $277 $286 $112 $189 forward $270 $-1 #
edge $-1 $287 -10.467922613130504 $193 -5.4818035434743351 $188 $288 forward 7 unknown #
coedge $-1 $289 $279 $113 $191 forward $180 $-1 #
edge $-1 $192 5.4818035434743351 $290 10.467922613130504 $190 $291 forward 7 unknown #
vertex $-1 $191 $292 #
vertex $-1 $189 $293 #
straight-curve $-1 -32.82421961601554 -13.456666621776755 0 0 0 -1 I I #
face $-1 $-1 $207 $26 $-1 $294 forward single #
loop $-1 $-1 $295 $116 #
plane-surface $-1 -40.681173131504259 0 0 1 0 0 0 0 -1 forward_v I I I I #
coedge $-1 $296 $297 $298 $299 reversed $117 $-1 #
coedge $-1 $300 $119 $121 $205 forward $73 $-1 #
coedge $-1 $119 $300 $296 $301 forward $73 $-1 #
coedge $-1 $298 $122 $119 $202 forward $207 $-1 #
edge $-1 $209 -5.0212213833474806 $302 3.1091099609852506 $201 $303 forward 7 unknown #
coedge $-1 $304 $305 $120 $204 forward $196 $-1 #
edge $-1 $306 -27.136280980450614 $208 -23.056191595339058 $203 $307 forward 7 unknown #
edge $-1 $209 -5.6719916463118896 $306 0 $121 $308 forward 7 unknown #
coedge $-1 $122 $298 $304 $309 forward $207 $-1 #
loop $-1 $-1 $298 $195 #
vertex $-1 $204 $310 #
vertex $-1 $123 $311 #
straight-curve $-1 -49.604173858879292 -5.9772770945285956 6.3265616018376249 1 0 0 I I #
coedge $-1 $211 $211 $-1 $312 reversed $126 $-1 #
edge $-1 $313 0 $313 6.2831853071796004 $127 $314 forward 7 unknown #
vertex $-1 $130 $315 #
ellipse-curve $-1 -38.711124918557942 -3.6543252818620999 4.2865169092818487 -0.71933980857756763 0 0.69465836192734942 0.34732918096367471 0 0.35966990428878381 1 I I #
coedge $-1 $215 $215 $-1 $316 reversed $133 $-1 #
edge $-1 $317 0 $317 6.2831853071796004 $134 $318 forward 7 unknown #
vertex $-1 $137 $319 #
ellipse-curve $-1 -38.711124918557942 -0.16989756286235647 4.2865169092818487 -0.71933980857756763 0 0.69465836192734942 0.34732918096367471 0 0.35966990428878381 1 I I #
face $-1 $-1 $320 $29 $-1 $321 reversed single #
loop $-1 $-1 $144 $138 #
plane-surface $-1 0 0 6.3265616018376258 0 0 1 1 0 0 forward_v I I I I #
coedge $-1 $322 $323 $324 $325 reversed $139 $-1 #
coedge $-1 $326 $141 $143 $229 forward $87 $-1 #
coedge $-1 $141 $326 $322 $327 forward $87 $-1 #
coedge $-1 $324 $144 $141 $226 forward $220 $-1 #
edge $-1 $232 -4.480864360672081 $328 1.948818917534334 $225 $329 forward 7 unknown #
coedge $-1 $330 $331 $142 $228 forward $320 $-1 #
edge $-1 $332 -56.909761020708416 $231 -51.809886141335582 $227 $333 forward 7 unknown #
edge $-1 $232 74.272685968164836 $332 81.362346263008533 $143 $334 forward 7 unknown #
coedge $-1 $144 $324 $330 $335 forward $220 $-1 #
vertex $-1 $228 $336 #
vertex $-1 $145 $337 #
straight-curve $-1 21.344656770065644 5.7468870822409546 6.3265616018376249 -1 0 0 I I #
coedge $-1 $234 $234 $-1 $338 reversed $148 $-1 #
edge $-1 $339 0 $339 6.2831853071796004 $149 $340 forward 7 unknown #
vertex $-1 $152 $341 #
ellipse-curve $-1 38.218727227985525 1.1542561692363726 3.7766241621512089 0.71933980857756763 0 0.69465836192734942 0.34732918096367471 0 -0.35966990428878381 1 I I #
coedge $-1 $238 $238 $-1 $342 reversed $155 $-1 #
edge $-1 $343 0 $343 6.2831853071796004 $156 $344 forward 7 unknown #
vertex $-1 $159 $345 #
ellipse-curve $-1 38.218727227985525 3.9098347170391214 3.7766241621512089 0.71933980857756763 0 0.69465836192734942 0.34732918096367471 0 -0.35966990428878381 1 I I #
face $-1 $-1 $175 $24 $-1 $346 reversed single #
loop $-1 $-1 $258 $160 #
plane-surface $-1 0 18.442785691432924 0 0 -1 0 0 0 -1 forward_v I I I I #
coedge $-1 $347 $256 $259 $348 forward $161 $-1 #
coedge $-1 $262 $163 $164 $250 reversed $101 $-1 #
coedge $-1 $256 $347 $163 $248 reversed $161 $-1 #
edge $-1 $263 -6.3265616018376258 $349 6.3265616018376258 $247 $350 forward 7 unknown #
coedge $-1 $165 $164 $347 $351 forward $65 $-1 #
edge $-1 $254 -40.681173131504259 $349 40.681173131504259 $246 $352 forward 7 unknown #
coedge $-1 $259 $258 $165 $252 reversed $243 $-1 #
edge $-1 $353 -40.681173131504259 $253 40.681173131504259 $251 $354 forward 7 unknown #
vertex $-1 $167 $355 #
vertex $-1 $265 $356 #
straight-curve $-1 40.681173131504259 0 -6.3265616018376258 0 -1 0 I I #
coedge $-1 $245 $247 $168 $257 reversed $161 $-1 #
edge $-1 $260 -18.442785691432924 $263 18.442785691432924 $256 $357 forward 7 unknown #
coedge $-1 $251 $169 $174 $266 forward $243 $-1 #
coedge $-1 $169 $251 $245 $348 reversed $243 $-1 #
vertex $-1 $170 $358 #
straight-curve $-1 0 18.442785691432924 6.3265616018376258 -1 0 0 I I #
coedge $-1 $171 $246 $173 $265 reversed $101 $-1 #
vertex $-1 $257 $359 #
straight-curve $-1 0 -18.442785691432924 6.3265616018376258 1 0 0 I I #
edge $-1 $176 -6.3265616018376258 $254 6.3265616018376258 $173 $360 forward 7 unknown #
edge $-1 $177 -6.3265616018376258 $253 6.3265616018376258 $174 $361 forward 7 unknown #
point $-1 40.681173131504259 -18.442785691432924 6.3265616018376258 #
point $-1 40.681173131504259 18.442785691432924 6.3265616018376258 #
face $-1 $-1 $362 $25 $-1 $363 reversed single #
loop $-1 $-1 $364 $179 #
plane-surface $-1 0 0 -6.3265616018376258 0 0 1 1 0 0 forward_v I I I I #
coedge $-1 $279 $289 $274 $365 forward $180 $-1 #
coedge $-1 $185 $182 $364 $366 reversed $109 $-1 #
coedge $-1 $182 $185 $272 $365 reversed $109 $-1 #
coedge $-1 $367 $368 $182 $276 forward $362 $-1 #
edge $-1 $369 -6.3265616018376258 $370 6.3265616018376258 $275 $371 forward 7 unknown #
coedge $-1 $364 $188 $183 $278 forward $270 $-1 #
edge $-1 $193 -17.16210980800777 $282 -14.162109808007768 $277 $372 forward 7 unknown #
coedge $-1 $190 $272 $184 $280 forward $180 $-1 #
edge $-1 $281 14.162109808007768 $192 17.16210980800777 $279 $373 forward 7 unknown #
vertex $-1 $280 $374 #
vertex $-1 $278 $375 #
straight-curve $-1 -29.824219616015537 -13.456666621776755 0 0 0 -1 I I #
coedge $-1 $368 $367 $187 $285 forward $362 $-1 #
edge $-1 $290 -6.3265616018376258 $287 6.3265616018376258 $284 $376 forward 7 unknown #
coedge $-1 $188 $364 $368 $377 forward $270 $-1 #
vertex $-1 $189 $378 #
straight-curve $-1 -32.82421961601554 -7.9748630783024197 -6.3265616018376258 0 1 0 I I #
coedge $-1 $272 $190 $367 $379 forward $180 $-1 #
vertex $-1 $379 $380 #
straight-curve $-1 -32.82421961601554 -7.9748630783024197 6.3265616018376258 0 -1 0 I I #
point $-1 -32.82421961601554 -13.456666621776755 6.3265616018376258 #
point $-1 -32.82421961601554 -13.456666621776755 -6.3265616018376258 #
plane-surface $-1 0 0 6.3265616018376258 0 0 1 1 0 0 forward_v I I I I #
coedge $-1 $305 $304 $297 $381 forward $196 $-1 #
coedge $-1 $297 $198 $200 $301 reversed $117 $-1 #
coedge $-1 $198 $296 $295 $381 reversed $117 $-1 #
coedge $-1 $206 $201 $198 $299 forward $207 $-1 #
edge $-1 $302 -12.86309715326766 $382 -8.9230007273750331 $298 $383 forward 7 unknown #
coedge $-1 $200 $199 $305 $384 reversed $73 $-1 #
edge $-1 $385 0 $302 5.6719916463118896 $296 $386 forward 7 unknown #
vertex $-1 $202 $387 #
straight-curve $-1 -36.741076705611633 -0.95605571118111499 6.3265616018376267 0 1 0 I I #
coedge $-1 $295 $203 $206 $309 reversed $196 $-1 #
coedge $-1 $203 $295 $300 $384 forward $196 $-1 #
vertex $-1 $204 $388 #
straight-curve $-1 -40.681173131504259 -5.9772770945285956 29.382753197176683 0 0 1 I I #
straight-curve $-1 -40.681173131504259 -5.9772770945285956 2.2464722167260689 -0.69465836192734942 0 -0.71933980857756763 I I #
edge $-1 $382 -2.1530542498041356 $208 5.9772770945285956 $304 $389 forward 7 unknown #
point $-1 -40.681173131504259 -5.9772770945285956 6.3265616018376258 #
point $-1 -36.741076705611633 -5.9772770945285956 6.3265616018376258 #
edge $-1 $390 1 $390 0 $211 $-1 forward 7 unknown #
vertex $-1 $212 $391 #
ellipse-curve $-1 -37.722331793824452 -3.6543252818620999 3.3316505107842787 -0.71933980857756763 0 0.69465836192734942 0.34732918096367471 0 0.35966990428878381 1 I I #
point $-1 -38.363795737594266 -3.6543252818620999 4.6461868135706288 #
edge $-1 $392 1 $392 0 $215 $-1 forward 7 unknown #
vertex $-1 $216 $393 #
ellipse-curve $-1 -37.722331793824452 -0.16989756286235647 3.3316505107842787 -0.71933980857756763 0 0.69465836192734942 0.34732918096367471 0 0.35966990428878381 1 I I #
point $-1 -38.363795737594266 -0.16989756286235647 4.6461868135706288 #
loop $-1 $-1 $227 $219 #
plane-surface $-1 40.681173131504259 0 0 -1 0 0 0 0 1 forward_v I I I I #
coedge $-1 $323 $222 $224 $327 reversed $139 $-1 #
coedge $-1 $222 $322 $394 $395 reversed $139 $-1 #
coedge $-1 $230 $225 $222 $325 forward $220 $-1 #
edge $-1 $328 14.411624554401133 $396 19.336516361438616 $324 $397 forward 7 unknown #
coedge $-1 $224 $223 $331 $398 reversed $87 $-1 #
edge $-1 $399 -81.362346263008533 $328 -74.272685968164836 $322 $400 forward 7 unknown #
vertex $-1 $226 $401 #
straight-curve $-1 35.756281324466784 1.2660227215688735 6.3265616018376321 0 -1 0 I I #
coedge $-1 $394 $227 $230 $335 reversed $320 $-1 #
coedge $-1 $227 $394 $326 $398 forward $320 $-1 #
vertex $-1 $228 $402 #
straight-curve $-1 40.681173131504259 5.7468870822409546 58.136447743173207 0 0 1 I I #
straight-curve $-1 -15.837861046123038 5.7468870822409546 59.753861308719117 0.69465836192734942 0 -0.71933980857756763 I I #
edge $-1 $396 -0.68279619596546048 $231 5.7468870822409546 $330 $403 forward 7 unknown #
point $-1 40.681173131504259 5.7468870822409546 6.3265616018376258 #
point $-1 35.756281324466777 5.7468870822409546 6.3265616018376321 #
edge $-1 $404 1 $404 0 $234 $-1 forward 7 unknown #
vertex $-1 $235 $405 #
ellipse-curve $-1 37.499387419407959 1.1542561692363726 3.0819658002238643 0.71933980857756763 0 0.69465836192734942 0.34732918096367471 0 -0.35966990428878381 1 I I #
point $-1 38.566056408949201 1.1542561692363726 3.4169542578624301 #
edge $-1 $406 1 $406 0 $238 $-1 forward 7 unknown #
vertex $-1 $239 $407 #
ellipse-curve $-1 37.499387419407959 3.9098347170391214 3.0819658002238643 0.71933980857756763 0 0.69465836192734942 0.34732918096367471 0 -0.35966990428878381 1 I I #
point $-1 38.566056408949201 3.9098347170391214 3.4169542578624301 #
plane-surface $-1 40.681173131504259 0 0 -1 0 0 0 0 1 forward_v I I I I #
coedge $-1 $247 $245 $249 $351 reversed $161 $-1 #
edge $-1 $260 -6.3265616018376258 $353 6.3265616018376258 $259 $408 forward 7 unknown #
vertex $-1 $351 $409 #
straight-curve $-1 -40.681173131504259 -18.442785691432924 0 0 0 -1 I I #
edge $-1 $349 -18.442785691432924 $353 18.442785691432924 $347 $410 forward 7 unknown #
straight-curve $-1 0 -18.442785691432924 -6.3265616018376258 -1 0 0 I I #
vertex $-1 $252 $411 #
straight-curve $-1 0 18.442785691432924 -6.3265616018376258 1 0 0 I I #
point $-1 40.681173131504259 18.442785691432924 -6.3265616018376258 #
point $-1 40.681173131504259 -18.442785691432924 -6.3265616018376258 #
straight-curve $-1 -40.681173131504259 0 6.3265616018376258 0 -1 0 I I #
point $-1 -40.681173131504259 18.442785691432924 6.3265616018376258 #
point $-1 -40.681173131504259 -18.442785691432924 6.3265616018376258 #
straight-curve $-1 40.681173131504259 -18.442785691432924 0 0 0 -1 I I #
straight-curve $-1 40.681173131504259 18.442785691432924 0 0 0 -1 I I #
loop $-1 $-1 $275 $269 #
plane-surface $-1 0 -18.442785691432924 0 0 1 0 0 0 1 forward_v I I I I #
coedge $-1 $286 $277 $273 $366 forward $270 $-1 #
edge $-1 $370 -10.467922613130504 $281 -5.4818035434743351 $272 $412 forward 7 unknown #
edge $-1 $282 5.4818035434743351 $369 10.467922613130504 $364 $413 forward 7 unknown #
coedge $-1 $284 $275 $289 $379 reversed $362 $-1 #
coedge $-1 $275 $284 $286 $377 reversed $362 $-1 #
vertex $-1 $377 $414 #
vertex $-1 $276 $415 #
straight-curve $-1 -29.824219616015537 -18.442785691432924 0 0 0 1 I I #
straight-curve $-1 -15.662109808007768 -13.456666621776755 -6.3265616018376258 1 0 0 I I #
straight-curve $-1 -15.662109808007768 -13.456666621776755 6.3265616018376258 -1 0 0 I I #
point $-1 -29.824219616015537 -13.456666621776755 6.3265616018376258 #
point $-1 -29.824219616015537 -13.456666621776755 -6.3265616018376258 #
straight-curve $-1 -32.82421961601554 -18.442785691432924 0 0 0 -1 I I #
edge $-1 $369 29.824219616015537 $287 32.82421961601554 $368 $416 forward 7 unknown #
point $-1 -32.82421961601554 -18.442785691432924 -6.3265616018376258 #
edge $-1 $290 -32.82421961601554 $370 -29.824219616015537 $367 $417 forward 7 unknown #
point $-1 -32.82421961601554 -18.442785691432924 6.3265616018376258 #
edge $-1 $382 23.056191595339058 $385 27.136280980450614 $295 $418 forward 7 unknown #
vertex $-1 $309 $419 #
straight-curve $-1 -49.604173858879292 2.1530542498041356 6.3265616018376249 -1 0 0 I I #
edge $-1 $385 -3.1091099609852506 $306 5.0212213833474806 $305 $420 forward 7 unknown #
vertex $-1 $384 $421 #
straight-curve $-1 -40.681173131504259 2.1530542498041356 2.2464722167260689 0.69465836192734942 0 0.71933980857756763 I I #
point $-1 -36.741076705611633 2.1530542498041356 6.3265616018376258 #
point $-1 -40.681173131504259 -5.9772770945285956 2.2464722167260689 #
straight-curve $-1 -40.681173131504259 0 6.3265616018376258 0 -1 0 I I #
vertex $-1 $312 $422 #
point $-1 -37.375002612860783 -3.6543252818620999 3.6913204150730623 #
vertex $-1 $316 $423 #
point $-1 -37.375002612860783 -0.16989756286235647 3.6913204150730623 #
coedge $-1 $331 $330 $323 $395 forward $320 $-1 #
edge $-1 $396 51.809886141335582 $399 56.909761020708416 $394 $424 forward 7 unknown #
vertex $-1 $335 $425 #
straight-curve $-1 21.344656770065644 -0.68279619596546048 6.3265616018376249 1 0 0 I I #
edge $-1 $399 -1.948818917534334 $332 4.480864360672081 $331 $426 forward 7 unknown #
vertex $-1 $398 $427 #
straight-curve $-1 -15.837861046123038 -0.68279619596546048 59.753861308719117 -0.69465836192734942 0 0.71933980857756763 I I #
point $-1 35.756281324466777 -0.68279619596546048 6.3265616018376321 #
point $-1 40.681173131504259 5.7468870822409546 1.226686722464791 #
straight-curve $-1 40.681173131504259 0 6.3265616018376258 0 1 0 I I #
vertex $-1 $338 $428 #
point $-1 37.846716600371636 1.1542561692363726 2.7222958959350807 #
vertex $-1 $342 $429 #
point $-1 37.846716600371636 3.9098347170391214 2.7222958959350807 #
straight-curve $-1 -40.681173131504259 18.442785691432924 0 0 0 -1 I I #
point $-1 -40.681173131504259 -18.442785691432924 -6.3265616018376258 #
straight-curve $-1 -40.681173131504259 0 -6.3265616018376258 0 1 0 I I #
point $-1 -40.681173131504259 18.442785691432924 -6.3265616018376258 #
straight-curve $-1 -29.824219616015537 -7.9748630783024197 6.3265616018376258 0 1 0 I I #
straight-curve $-1 -29.824219616015537 -7.9748630783024197 -6.3265616018376258 0 -1 0 I I #
point $-1 -29.824219616015537 -18.442785691432924 -6.3265616018376258 #
point $-1 -29.824219616015537 -18.442785691432924 6.3265616018376258 #
straight-curve $-1 0 -18.442785691432924 -6.3265616018376258 -1 0 0 I I #
straight-curve $-1 0 -18.442785691432924 6.3265616018376258 1 0 0 I I #
straight-curve $-1 -40.681173131504259 2.1530542498041356 29.382753197176683 0 0 -1 I I #
point $-1 -40.681173131504259 2.1530542498041356 6.3265616018376258 #
straight-curve $-1 -40.681173131504259 -0.95605571118111499 2.246472216726068 0 -1 0 I I #
point $-1 -40.681173131504259 2.1530542498041356 2.2464722167260689 #
point $-1 -37.362661889535673 -3.6543252818620999 2.9843213298206042 #
point $-1 -37.362661889535673 -0.16989756286235647 2.9843213298206042 #
straight-curve $-1 40.681173131504259 -0.68279619596546048 58.136447743173207 0 0 -1 I I #
point $-1 40.681173131504259 -0.68279619596546048 6.3265616018376258 #
straight-curve $-1 40.681173131504252 1.2660227215688735 1.2266867224647946 0 1 0 I I #
point $-1 40.681173131504259 -0.68279619596546048 1.226686722464791 #
point $-1 37.13971751511918 1.1542561692363726 2.7346366192601899 #
point $-1 37.13971751511918 3.9098347170391214 2.7346366192601899 #
End-of-ACIS-data 