500 0 13 0           
7 Unknown 11 ACIS 5.0 NT 24 Fri Mar 26 18:24:01 1999 
-1 9.9999999999999995e-007 1e-010 
body $-1 $13 $-1 $14 #
body $-1 $15 $-1 $16 #
body $-1 $17 $-1 $18 #
body $-1 $19 $-1 $20 #
body $-1 $21 $-1 $22 #
body $-1 $23 $-1 $24 #
body $-1 $25 $-1 $26 #
body $-1 $27 $-1 $28 #
body $-1 $29 $-1 $30 #
body $-1 $31 $-1 $32 #
body $-1 $33 $-1 $34 #
body $-1 $35 $-1 $36 #
body $-1 $37 $-1 $38 #
lump $-1 $-1 $39 $0 #
transform $-1 1 0 0 0 1 0 0 0 1 78.435010834070866 41.327808635252445 14.710868520100419 1 rotate no_reflect no_shear #
lump $-1 $-1 $40 $1 #
transform $-1 1 0 0 0 1 0 0 0 1 78.435010834070866 41.327808635252445 14.710868520100419 1 rotate no_reflect no_shear #
lump $-1 $-1 $41 $2 #
transform $-1 1 0 0 0 1 0 0 0 1 78.435010834070866 41.327808635252445 14.710868520100419 1 rotate no_reflect no_shear #
lump $-1 $-1 $42 $3 #
transform $-1 1 0 0 0 1 0 0 0 1 78.435010834070866 41.327808635252445 14.710868520100419 1 rotate no_reflect no_shear #
lump $-1 $-1 $43 $4 #
transform $-1 1 0 0 0 1 0 0 0 1 78.435010834070866 41.327808635252445 14.710868520100419 1 rotate no_reflect no_shear #
lump $-1 $-1 $44 $5 #
transform $-1 1 0 0 0 1 0 0 0 1 78.435010834070866 41.327808635252445 14.710868520100419 1 rotate no_reflect no_shear #
lump $-1 $-1 $45 $6 #
transform $-1 1 0 0 0 1 0 0 0 1 78.435010834070866 41.327808635252445 14.710868520100419 1 rotate no_reflect no_shear #
lump $-1 $-1 $46 $7 #
transform $-1 1 0 0 0 1 0 0 0 1 78.435010834070866 41.327808635252445 14.710868520100419 1 rotate no_reflect no_shear #
lump $-1 $-1 $47 $8 #
transform $-1 1 0 0 0 1 0 0 0 1 78.435010834070866 41.327808635252445 14.710868520100419 1 rotate no_reflect no_shear #
lump $-1 $-1 $48 $9 #
transform $-1 1 0 0 0 1 0 0 0 1 78.435010834070866 41.327808635252445 14.710868520100419 1 rotate no_reflect no_shear #
lump $-1 $-1 $49 $10 #
transform $-1 1 0 0 0 1 0 0 0 1 78.435010834070866 41.327808635252445 14.710868520100419 1 rotate no_reflect no_shear #
lump $-1 $-1 $50 $11 #
transform $-1 1 0 0 0 1 0 0 0 1 78.435010834070866 41.327808635252445 14.710868520100419 1 rotate no_reflect no_shear #
lump $-1 $-1 $51 $12 #
transform $-1 1 0 0 0 1 0 0 0 1 78.435010834070866 41.327808635252445 14.710868520100419 1 rotate no_reflect no_shear #
shell $-1 $-1 $-1 $52 $-1 $13 #
shell $-1 $-1 $-1 $53 $-1 $15 #
shell $-1 $-1 $-1 $54 $-1 $17 #
shell $-1 $-1 $-1 $55 $-1 $19 #
shell $-1 $-1 $-1 $56 $-1 $21 #
shell $-1 $-1 $-1 $57 $-1 $23 #
shell $-1 $-1 $-1 $58 $-1 $25 #
shell $-1 $-1 $-1 $59 $-1 $27 #
shell $-1 $-1 $-1 $60 $-1 $29 #
shell $-1 $-1 $-1 $61 $-1 $31 #
shell $-1 $-1 $-1 $62 $-1 $33 #
shell $-1 $-1 $-1 $63 $-1 $35 #
shell $-1 $-1 $-1 $64 $-1 $37 #
face $-1 $65 $66 $39 $-1 $67 forward single #
face $-1 $68 $69 $40 $-1 $70 forward single #
face $-1 $71 $72 $41 $-1 $73 reversed single #
face $-1 $74 $75 $42 $-1 $76 forward single #
face $-1 $77 $78 $43 $-1 $79 reversed single #
face $-1 $80 $81 $44 $-1 $82 forward single #
face $-1 $83 $84 $45 $-1 $85 reversed single #
face $-1 $86 $87 $46 $-1 $88 forward single #
face $-1 $89 $90 $47 $-1 $91 reversed single #
face $-1 $92 $93 $48 $-1 $94 forward single #
face $-1 $95 $96 $49 $-1 $97 reversed single #
face $-1 $98 $99 $50 $-1 $100 forward single #
face $-1 $101 $102 $51 $-1 $103 forward single #
face $-1 $104 $105 $39 $-1 $106 reversed single #
loop $-1 $-1 $107 $52 #
plane-surface $-1 0 0 14.710868520100419 0 0 1 1 0 0 forward_v I I I I #
face $-1 $108 $109 $40 $-1 $110 reversed single #
loop $-1 $-1 $111 $53 #
plane-surface $-1 0 -41.327808635252445 0 0 1 0 0 0 1 forward_v I I I I #
face $-1 $112 $113 $41 $-1 $114 reversed single #
loop $-1 $-1 $115 $54 #
plane-surface $-1 47.559778885882622 -8.3921238238053419 222.03002173090272 0 -1 0 -0.6018150307709319 0 -0.79863550430605224 forward_v I I I I #
face $-1 $116 $117 $42 $-1 $118 forward single #
loop $-1 $119 $120 $55 #
cone-surface $-1 69.861032191847301 -13.929863563916335 8.0397257224716032 -0.6018150307709319 0 -0.79863550430605224 0.79863550430605224 0 -0.6018150307709319 1 I I 0 1 1 forward I I I I #
face $-1 $121 $122 $43 $-1 $123 reversed single #
loop $-1 $-1 $124 $56 #
plane-surface $-1 47.559778885882622 7.4681591153308986 222.03002173090272 0 -1 0 -0.6018150307709319 0 -0.79863550430605224 forward_v I I I I #
face $-1 $125 $126 $44 $-1 $127 forward single #
loop $-1 $128 $129 $57 #
cone-surface $-1 69.861032191847301 1.9304193752199055 8.0397257224716032 -0.6018150307709319 0 -0.79863550430605224 0.79863550430605224 0 -0.6018150307709319 1 I I 0 1 1 forward I I I I #
face $-1 $130 $131 $45 $-1 $132 reversed single #
loop $-1 $-1 $133 $58 #
plane-surface $-1 47.559778885882622 23.328442054467139 222.03002173090272 0 -1 0 -0.6018150307709319 0 -0.79863550430605224 forward_v I I I I #
face $-1 $134 $135 $46 $-1 $136 forward single #
loop $-1 $137 $138 $59 #
cone-surface $-1 69.861032191847301 17.790702314356146 8.0397257224716032 -0.6018150307709319 0 -0.79863550430605224 0.79863550430605224 0 -0.6018150307709319 1 I I 0 1 1 forward I I I I #
face $-1 $139 $140 $47 $-1 $141 reversed single #
loop $-1 $-1 $142 $60 #
plane-surface $-1 47.559778885882622 39.18872499360338 222.03002173090272 0 -1 0 -0.6018150307709319 0 -0.79863550430605224 forward_v I I I I #
face $-1 $143 $144 $48 $-1 $145 forward single #
loop $-1 $146 $147 $61 #
cone-surface $-1 69.861032191847301 33.650985253492387 8.0397257224716032 -0.6018150307709319 0 -0.79863550430605224 0.79863550430605224 0 -0.6018150307709319 1 I I 0 1 1 forward I I I I #
face $-1 $148 $149 $49 $-1 $150 reversed single #
loop $-1 $-1 $151 $62 #
plane-surface $-1 -175.01384101979352 10.20914829930198 128.62670133494544 0 1 0 -0.61566148304635926 0 0.78801074757464917 forward_v I I I I #
face $-1 $152 $153 $50 $-1 $154 forward single #
loop $-1 $155 $156 $63 #
cone-surface $-1 -71.353896426819631 13.542332290155684 8.7427887444979628 0.61566148304635926 0 -0.78801074757464917 1.1820161213619738 0 0.92349222456953894 1 I I 0 1 1.5 forward I I I I #
face $-1 $157 $158 $51 $-1 $159 forward single #
loop $-1 $160 $161 $64 #
cone-surface $-1 -71.353896426819631 18.542108276436238 8.7427887444979628 0.61566148304635926 0 -0.78801074757464917 1.1820161213619738 0 0.92349222456953894 1 I I 0 1 1.5 forward I I I I #
face $-1 $162 $163 $39 $-1 $164 reversed single #
loop $-1 $-1 $165 $65 #
plane-surface $-1 0 0 -14.710868520100419 0 0 1 1 0 0 forward_v I I I I #
coedge $-1 $166 $167 $168 $169 forward $66 $-1 #
face $-1 $170 $171 $40 $-1 $172 forward single #
loop $-1 $-1 $173 $68 #
plane-surface $-1 -78.435010834070866 0 0 1 0 0 0 0 -1 forward_v I I I I #
coedge $-1 $174 $175 $176 $177 forward $69 $-1 #
face $-1 $178 $179 $41 $-1 $180 reversed single #
loop $-1 $-1 $181 $71 #
plane-surface $-1 -46.846958031366853 -13.929863563916335 96.748052865464999 0.6018150307709319 0 0.79863550430605224 0.79863550430605224 0 -0.6018150307709319 forward_v I I I I #
coedge $-1 $182 $183 $184 $185 reversed $72 $-1 #
face $-1 $-1 $186 $42 $-1 $187 forward single #
loop $-1 $188 $189 $74 #
cone-surface $-1 69.193621214471605 -13.929863563916335 7.1540414586322072 -0.6018150307709319 0 -0.79863550430605224 0.39931775215302612 0 -0.30090751538546595 1 I I -0.70710678118654746 0.70710678118654746 0.5 forward I I I I #
loop $-1 $-1 $190 $55 #
coedge $-1 $120 $120 $191 $192 reversed $75 $-1 #
face $-1 $193 $194 $43 $-1 $195 reversed single #
loop $-1 $-1 $196 $77 #
plane-surface $-1 -46.846958031366853 1.9304193752199055 96.748052865464999 0.6018150307709319 0 0.79863550430605224 0.79863550430605224 0 -0.6018150307709319 forward_v I I I I #
coedge $-1 $197 $198 $199 $200 reversed $78 $-1 #
face $-1 $-1 $201 $44 $-1 $202 forward single #
loop $-1 $203 $204 $80 #
cone-surface $-1 69.193621214471605 1.9304193752199055 7.1540414586322072 -0.6018150307709319 0 -0.79863550430605224 0.39931775215302612 0 -0.30090751538546595 1 I I -0.70710678118654746 0.70710678118654746 0.5 forward I I I I #
loop $-1 $-1 $205 $57 #
coedge $-1 $129 $129 $206 $207 reversed $81 $-1 #
face $-1 $208 $209 $45 $-1 $210 reversed single #
loop $-1 $-1 $211 $83 #
plane-surface $-1 -46.846958031366853 17.790702314356146 96.748052865464999 0.6018150307709319 0 0.79863550430605224 0.79863550430605224 0 -0.6018150307709319 forward_v I I I I #
coedge $-1 $212 $213 $214 $215 reversed $84 $-1 #
face $-1 $-1 $216 $46 $-1 $217 forward single #
loop $-1 $218 $219 $86 #
cone-surface $-1 69.193621214471605 17.790702314356146 7.1540414586322072 -0.6018150307709319 0 -0.79863550430605224 0.39931775215302612 0 -0.30090751538546595 1 I I -0.70710678118654746 0.70710678118654746 0.5 forward I I I I #
loop $-1 $-1 $220 $59 #
coedge $-1 $138 $138 $221 $222 reversed $87 $-1 #
face $-1 $223 $224 $47 $-1 $225 reversed single #
loop $-1 $-1 $226 $89 #
plane-surface $-1 -46.846958031366853 33.650985253492387 96.748052865464999 0.6018150307709319 0 0.79863550430605224 0.79863550430605224 0 -0.6018150307709319 forward_v I I I I #
coedge $-1 $227 $228 $229 $230 reversed $90 $-1 #
face $-1 $-1 $231 $48 $-1 $232 forward single #
loop $-1 $233 $234 $92 #
cone-surface $-1 69.193621214471605 33.650985253492387 7.1540414586322072 -0.6018150307709319 0 -0.79863550430605224 0.39931775215302612 0 -0.30090751538546595 1 I I -0.70710678118654746 0.70710678118654746 0.5 forward I I I I #
loop $-1 $-1 $235 $61 #
coedge $-1 $147 $147 $236 $237 reversed $93 $-1 #
face $-1 $238 $239 $49 $-1 $240 reversed single #
loop $-1 $-1 $241 $95 #
plane-surface $-1 -78.435010834070852 16.042220283295961 5.0114382881816368 -0.61566148304635926 0 0.78801074757464917 0.78801074757464917 0 0.61566148304635926 forward_v I I I I #
coedge $-1 $242 $243 $244 $245 reversed $96 $-1 #
face $-1 $-1 $246 $50 $-1 $247 forward single #
loop $-1 $248 $249 $98 #
cone-surface $-1 -70.01838806311676 13.542332290155684 7.0334160241739028 0.61566148304635926 0 -0.78801074757464917 0.59100806068098688 0 0.46174611228476947 1 I I -0.70710678118654757 0.70710678118654757 0.75 forward I I I I #
loop $-1 $-1 $250 $63 #
coedge $-1 $156 $156 $251 $252 reversed $99 $-1 #
face $-1 $-1 $253 $51 $-1 $254 forward single #
loop $-1 $255 $256 $101 #
cone-surface $-1 -70.01838806311676 18.542108276436238 7.0334160241739028 0.61566148304635926 0 -0.78801074757464917 0.59100806068098688 0 0.46174611228476947 1 I I -0.70710678118654757 0.70710678118654757 0.75 forward I I I I #
loop $-1 $-1 $257 $64 #
coedge $-1 $161 $161 $258 $259 reversed $102 $-1 #
face $-1 $260 $261 $39 $-1 $262 reversed single #
loop $-1 $-1 $263 $104 #
plane-surface $-1 0 -41.327808635252445 0 0 1 0 0 0 1 forward_v I I I I #
coedge $-1 $264 $265 $266 $267 forward $105 $-1 #
coedge $-1 $268 $107 $269 $270 forward $66 $-1 #
coedge $-1 $107 $268 $271 $272 forward $66 $-1 #
coedge $-1 $273 $274 $107 $169 reversed $275 $-1 #
edge $-1 $276 -41.327808635252445 $277 41.327808635252445 $168 $278 forward 7 unknown #
face $-1 $279 $280 $40 $-1 $281 reversed single #
loop $-1 $-1 $282 $108 #
plane-surface $-1 0 -50.93505139223241 11.486613131797235 0 0 1 1 0 0 forward_v I I I I #
coedge $-1 $283 $284 $175 $285 forward $109 $-1 #
coedge $-1 $286 $111 $287 $288 reversed $69 $-1 #
coedge $-1 $111 $286 $173 $285 reversed $69 $-1 #
coedge $-1 $289 $282 $111 $177 reversed $171 $-1 #
edge $-1 $290 -78.435010834070866 $291 78.435010834070866 $176 $292 forward 7 unknown #
face $-1 $293 $294 $41 $-1 $295 reversed single #
loop $-1 $-1 $296 $112 #
plane-surface $-1 47.559778885882622 -19.467603304027328 222.03002173090272 0 1 0 0.6018150307709319 0 0.79863550430605224 forward_v I I I I #
coedge $-1 $297 $298 $299 $300 reversed $113 $-1 #
coedge $-1 $183 $115 $301 $302 reversed $72 $-1 #
coedge $-1 $115 $182 $297 $303 reversed $72 $-1 #
coedge $-1 $299 $304 $115 $185 forward $305 $-1 #
edge $-1 $306 -54.655121391129555 $307 -38.240171030662964 $184 $308 forward 7 unknown #
loop $-1 $-1 $191 $116 #
plane-surface $-1 -46.846958031366853 -13.929863563916335 96.748052865464999 0.6018150307709319 0 0.79863550430605224 0.79863550430605224 0 -0.6018150307709319 forward_v I I I I #
loop $-1 $-1 $309 $74 #
coedge $-1 $189 $189 $190 $310 reversed $117 $-1 #
coedge $-1 $190 $190 $189 $310 forward $119 $-1 #
coedge $-1 $191 $191 $120 $192 forward $186 $-1 #
edge $-1 $311 0 $311 6.2831853071796004 $191 $312 forward 7 unknown #
face $-1 $313 $314 $43 $-1 $315 reversed single #
loop $-1 $-1 $316 $121 #
plane-surface $-1 47.559778885882622 -3.6073203648910876 222.03002173090272 0 1 0 0.6018150307709319 0 0.79863550430605224 forward_v I I I I #
coedge $-1 $317 $318 $319 $320 reversed $122 $-1 #
coedge $-1 $198 $124 $321 $322 reversed $78 $-1 #
coedge $-1 $124 $197 $317 $323 reversed $78 $-1 #
coedge $-1 $319 $324 $124 $200 forward $325 $-1 #
edge $-1 $326 -54.655121391129555 $327 -38.240171030662964 $199 $328 forward 7 unknown #
loop $-1 $-1 $206 $125 #
plane-surface $-1 -46.846958031366853 1.9304193752199055 96.748052865464999 0.6018150307709319 0 0.79863550430605224 0.79863550430605224 0 -0.6018150307709319 forward_v I I I I #
loop $-1 $-1 $329 $80 #
coedge $-1 $204 $204 $205 $330 reversed $126 $-1 #
coedge $-1 $205 $205 $204 $330 forward $128 $-1 #
coedge $-1 $206 $206 $129 $207 forward $201 $-1 #
edge $-1 $331 0 $331 6.2831853071796004 $206 $332 forward 7 unknown #
face $-1 $333 $334 $45 $-1 $335 reversed single #
loop $-1 $-1 $336 $130 #
plane-surface $-1 47.559778885882622 12.252962574245153 222.03002173090272 0 1 0 0.6018150307709319 0 0.79863550430605224 forward_v I I I I #
coedge $-1 $337 $338 $339 $340 reversed $131 $-1 #
coedge $-1 $213 $133 $341 $342 reversed $84 $-1 #
coedge $-1 $133 $212 $337 $343 reversed $84 $-1 #
coedge $-1 $339 $344 $133 $215 forward $345 $-1 #
edge $-1 $346 -54.655121391129555 $347 -38.240171030662964 $214 $348 forward 7 unknown #
loop $-1 $-1 $221 $134 #
plane-surface $-1 -46.846958031366853 17.790702314356146 96.748052865464999 0.6018150307709319 0 0.79863550430605224 0.79863550430605224 0 -0.6018150307709319 forward_v I I I I #
loop $-1 $-1 $349 $86 #
coedge $-1 $219 $219 $220 $350 reversed $135 $-1 #
coedge $-1 $220 $220 $219 $350 forward $137 $-1 #
coedge $-1 $221 $221 $138 $222 forward $216 $-1 #
edge $-1 $351 0 $351 6.2831853071796004 $221 $352 forward 7 unknown #
face $-1 $353 $354 $47 $-1 $355 reversed single #
loop $-1 $-1 $356 $139 #
plane-surface $-1 47.559778885882622 28.113245513381393 222.03002173090272 0 1 0 0.6018150307709319 0 0.79863550430605224 forward_v I I I I #
coedge $-1 $357 $358 $359 $360 reversed $140 $-1 #
coedge $-1 $228 $142 $361 $362 reversed $90 $-1 #
coedge $-1 $142 $227 $357 $363 reversed $90 $-1 #
coedge $-1 $359 $364 $142 $230 forward $365 $-1 #
edge $-1 $366 -54.655121391129555 $367 -38.240171030662964 $229 $368 forward 7 unknown #
loop $-1 $-1 $236 $143 #
plane-surface $-1 -46.846958031366853 33.650985253492387 96.748052865464999 0.6018150307709319 0 0.79863550430605224 0.79863550430605224 0 -0.6018150307709319 forward_v I I I I #
loop $-1 $-1 $369 $92 #
coedge $-1 $234 $234 $235 $370 reversed $144 $-1 #
coedge $-1 $235 $235 $234 $370 forward $146 $-1 #
coedge $-1 $236 $236 $147 $237 forward $231 $-1 #
edge $-1 $371 0 $371 6.2831853071796004 $236 $372 forward 7 unknown #
face $-1 $373 $374 $49 $-1 $375 forward single #
loop $-1 $-1 $376 $148 #
plane-surface $-1 -175.01384101979352 21.875292267289943 128.62670133494544 0 -1 0 0.61566148304635926 0 -0.78801074757464917 forward_v I I I I #
coedge $-1 $377 $378 $379 $380 reversed $149 $-1 #
coedge $-1 $243 $151 $381 $382 reversed $96 $-1 #
coedge $-1 $151 $242 $377 $383 reversed $96 $-1 #
coedge $-1 $379 $384 $151 $245 forward $374 $-1 #
edge $-1 $385 9.0719096758258928 $386 21.486613987492149 $244 $387 forward 7 unknown #
loop $-1 $-1 $251 $152 #
plane-surface $-1 -78.435010834070852 16.042220283295961 5.0114382881816368 -0.61566148304635926 0 0.78801074757464917 0.78801074757464917 0 0.61566148304635926 forward_v I I I I #
loop $-1 $-1 $388 $98 #
coedge $-1 $249 $249 $250 $389 reversed $153 $-1 #
coedge $-1 $250 $250 $249 $389 forward $155 $-1 #
coedge $-1 $251 $251 $156 $252 forward $246 $-1 #
edge $-1 $390 0 $390 6.2831853071796004 $251 $391 forward 7 unknown #
loop $-1 $-1 $258 $157 #
plane-surface $-1 -78.435010834070852 16.042220283295961 5.0114382881816368 -0.61566148304635926 0 0.78801074757464917 0.78801074757464917 0 0.61566148304635926 forward_v I I I I #
loop $-1 $-1 $392 $101 #
coedge $-1 $256 $256 $257 $393 reversed $158 $-1 #
coedge $-1 $257 $257 $256 $393 forward $160 $-1 #
coedge $-1 $258 $258 $161 $259 forward $253 $-1 #
edge $-1 $394 0 $394 6.2831853071796004 $258 $395 forward 7 unknown #
face $-1 $396 $397 $39 $-1 $398 reversed single #
loop $-1 $-1 $399 $162 #
plane-surface $-1 -78.435010834070866 0 0 1 0 0 0 0 -1 forward_v I I I I #
coedge $-1 $400 $271 $401 $402 forward $163 $-1 #
coedge $-1 $403 $165 $400 $404 forward $105 $-1 #
coedge $-1 $165 $403 $405 $406 forward $105 $-1 #
coedge $-1 $274 $273 $165 $267 reversed $275 $-1 #
edge $-1 $407 -41.327808635252445 $408 41.327808635252445 $266 $409 forward 7 unknown #
coedge $-1 $167 $166 $410 $411 forward $66 $-1 #
coedge $-1 $412 $413 $166 $270 reversed $397 $-1 #
edge $-1 $277 -78.435010834070866 $414 78.435010834070866 $269 $415 forward 7 unknown #
coedge $-1 $263 $416 $167 $272 reversed $163 $-1 #
edge $-1 $417 -78.435010834070866 $276 78.435010834070866 $271 $418 forward 7 unknown #
coedge $-1 $266 $168 $416 $419 forward $275 $-1 #
coedge $-1 $168 $266 $412 $420 reversed $275 $-1 #
loop $-1 $-1 $273 $396 #
vertex $-1 $169 $421 #
vertex $-1 $169 $422 #
straight-curve $-1 78.435010834070866 0 14.710868520100419 0 1 0 I I #
face $-1 $423 $424 $40 $-1 $425 reversed single #
loop $-1 $-1 $426 $170 #
plane-surface $-1 0 -50.93505139223241 6.9352094975593133 0 0 1 1 0 0 forward_v I I I I #
coedge $-1 $176 $427 $428 $429 forward $171 $-1 #
coedge $-1 $430 $173 $431 $432 reversed $109 $-1 #
coedge $-1 $173 $430 $289 $433 reversed $109 $-1 #
edge $-1 $290 -11.486613131797235 $434 -6.9352094975593133 $173 $435 forward 7 unknown #
coedge $-1 $175 $174 $436 $437 forward $69 $-1 #
coedge $-1 $428 $438 $174 $288 forward $439 $-1 #
edge $-1 $440 6.9352094975593133 $291 11.486613131797235 $287 $441 forward 7 unknown #
coedge $-1 $427 $176 $284 $433 forward $171 $-1 #
vertex $-1 $285 $442 #
vertex $-1 $429 $443 #
straight-curve $-1 0 -41.327808635252445 11.486613131797235 1 0 0 I I #
face $-1 $-1 $305 $41 $-1 $444 forward single #
loop $-1 $-1 $445 $178 #
plane-surface $-1 78.435010834070866 0 0 -1 0 0 0 0 1 forward_v I I I I #
coedge $-1 $446 $447 $448 $449 reversed $179 $-1 #
coedge $-1 $450 $181 $183 $303 forward $113 $-1 #
coedge $-1 $181 $450 $446 $451 forward $113 $-1 #
coedge $-1 $448 $184 $181 $300 forward $305 $-1 #
edge $-1 $307 1.4271920418471744 $452 12.502671522069161 $299 $453 forward 7 unknown #
coedge $-1 $454 $455 $182 $302 forward $294 $-1 #
edge $-1 $456 -108.67369491723584 $306 -96.30414234535094 $301 $457 forward 7 unknown #
edge $-1 $307 136.31627684718012 $456 156.87002166814176 $183 $458 forward 7 unknown #
coedge $-1 $184 $448 $454 $459 forward $305 $-1 #
loop $-1 $-1 $448 $293 #
vertex $-1 $302 $460 #
vertex $-1 $185 $461 #
straight-curve $-1 23.779889442941311 -8.3921238238053419 14.710868520100419 -1 0 0 I I #
coedge $-1 $309 $309 $-1 $462 reversed $188 $-1 #
edge $-1 $463 0 $463 6.2831853071796004 $189 $464 forward 7 unknown #
vertex $-1 $192 $465 #
ellipse-curve $-1 70.227535653837549 -13.929863563916335 8.5260922341579928 0.6018150307709319 0 0.79863550430605224 0.79863550430605224 0 -0.6018150307709319 1 I I #
face $-1 $-1 $325 $43 $-1 $466 forward single #
loop $-1 $-1 $467 $193 #
plane-surface $-1 78.435010834070866 0 0 -1 0 0 0 0 1 forward_v I I I I #
coedge $-1 $468 $469 $470 $471 reversed $194 $-1 #
coedge $-1 $472 $196 $198 $323 forward $122 $-1 #
coedge $-1 $196 $472 $468 $473 forward $122 $-1 #
coedge $-1 $470 $199 $196 $320 forward $325 $-1 #
edge $-1 $327 -6.5029494277209459 $474 4.5725300525010404 $319 $475 forward 7 unknown #
coedge $-1 $476 $477 $197 $322 forward $314 $-1 #
edge $-1 $478 -108.67369491723584 $326 -96.30414234535094 $321 $479 forward 7 unknown #
edge $-1 $327 136.31627684718012 $478 156.87002166814176 $198 $480 forward 7 unknown #
coedge $-1 $199 $470 $476 $481 forward $325 $-1 #
loop $-1 $-1 $470 $313 #
vertex $-1 $322 $482 #
vertex $-1 $200 $483 #
straight-curve $-1 23.779889442941311 7.4681591153308986 14.710868520100419 -1 0 0 I I #
coedge $-1 $329 $329 $-1 $484 reversed $203 $-1 #
edge $-1 $485 0 $485 6.2831853071796004 $204 $486 forward 7 unknown #
vertex $-1 $207 $487 #
ellipse-curve $-1 70.227535653837549 1.9304193752199055 8.5260922341579928 0.6018150307709319 0 0.79863550430605224 0.79863550430605224 0 -0.6018150307709319 1 I I #
face $-1 $-1 $345 $45 $-1 $488 forward single #
loop $-1 $-1 $489 $208 #
plane-surface $-1 78.435010834070866 0 0 -1 0 0 0 0 1 forward_v I I I I #
coedge $-1 $490 $491 $492 $493 reversed $209 $-1 #
coedge $-1 $494 $211 $213 $343 forward $131 $-1 #
coedge $-1 $211 $494 $490 $495 forward $131 $-1 #
coedge $-1 $492 $214 $211 $340 forward $345 $-1 #
edge $-1 $347 -14.433090897289066 $496 -3.3576114170670799 $339 $497 forward 7 unknown #
coedge $-1 $498 $499 $212 $342 forward $334 $-1 #
edge $-1 $500 -108.67369491723584 $346 -96.30414234535094 $341 $501 forward 7 unknown #
edge $-1 $347 136.31627684718012 $500 156.87002166814176 $213 $502 forward 7 unknown #
coedge $-1 $214 $492 $498 $503 forward $345 $-1 #
loop $-1 $-1 $492 $333 #
vertex $-1 $342 $504 #
vertex $-1 $215 $505 #
straight-curve $-1 23.779889442941311 23.328442054467139 14.710868520100419 -1 0 0 I I #
coedge $-1 $349 $349 $-1 $506 reversed $218 $-1 #
edge $-1 $507 0 $507 6.2831853071796004 $219 $508 forward 7 unknown #
vertex $-1 $222 $509 #
ellipse-curve $-1 70.227535653837549 17.790702314356146 8.5260922341579928 0.6018150307709319 0 0.79863550430605224 0.79863550430605224 0 -0.6018150307709319 1 I I #
face $-1 $-1 $365 $47 $-1 $510 forward single #
loop $-1 $-1 $511 $223 #
plane-surface $-1 78.435010834070866 0 0 -1 0 0 0 0 1 forward_v I I I I #
coedge $-1 $512 $513 $514 $515 reversed $224 $-1 #
coedge $-1 $516 $226 $228 $363 forward $140 $-1 #
coedge $-1 $226 $516 $512 $517 forward $140 $-1 #
coedge $-1 $514 $229 $226 $360 forward $365 $-1 #
edge $-1 $367 -22.363232366857186 $518 -11.2877528866352 $359 $519 forward 7 unknown #
coedge $-1 $520 $521 $227 $362 forward $354 $-1 #
edge $-1 $522 -108.67369491723584 $366 -96.30414234535094 $361 $523 forward 7 unknown #
edge $-1 $367 136.31627684718012 $522 156.87002166814176 $228 $524 forward 7 unknown #
coedge $-1 $229 $514 $520 $525 forward $365 $-1 #
loop $-1 $-1 $514 $353 #
vertex $-1 $362 $526 #
vertex $-1 $230 $527 #
straight-curve $-1 23.779889442941311 39.18872499360338 14.710868520100419 -1 0 0 I I #
coedge $-1 $369 $369 $-1 $528 reversed $233 $-1 #
edge $-1 $529 0 $529 6.2831853071796004 $234 $530 forward 7 unknown #
vertex $-1 $237 $531 #
ellipse-curve $-1 70.227535653837549 33.650985253492387 8.5260922341579928 0.6018150307709319 0 0.79863550430605224 0.79863550430605224 0 -0.6018150307709319 1 I I #
face $-1 $-1 $532 $49 $-1 $533 reversed single #
loop $-1 $-1 $244 $238 #
plane-surface $-1 0 0 14.710868520100419 0 0 1 1 0 0 forward_v I I I I #
coedge $-1 $534 $535 $536 $537 reversed $239 $-1 #
coedge $-1 $538 $241 $243 $383 forward $149 $-1 #
coedge $-1 $241 $538 $534 $539 forward $149 $-1 #
coedge $-1 $536 $244 $241 $380 forward $374 $-1 #
edge $-1 $386 2.1880381576539989 $540 13.854182125641962 $379 $541 forward 7 unknown #
coedge $-1 $542 $543 $242 $382 forward $532 $-1 #
edge $-1 $544 -59.301912379291096 $385 -49.602482147372299 $381 $545 forward 7 unknown #
edge $-1 $386 -15.754486026842144 $544 1.830693040787162e-014 $243 $546 forward 7 unknown #
coedge $-1 $244 $536 $542 $547 forward $374 $-1 #
vertex $-1 $245 $548 #
vertex $-1 $245 $549 #
straight-curve $-1 -87.506920509896759 10.20914829930198 14.710868520100419 1 0 0 I I #
coedge $-1 $388 $388 $-1 $550 reversed $248 $-1 #
edge $-1 $551 0 $551 6.2831853071796004 $249 $552 forward 7 unknown #
vertex $-1 $252 $553 #
ellipse-curve $-1 -72.227658678237731 13.542332290155684 9.8611534041410263 -0.61566148304635926 0 0.78801074757464917 1.1820161213619738 0 0.92349222456953894 1 I I #
coedge $-1 $392 $392 $-1 $554 reversed $255 $-1 #
edge $-1 $555 0 $555 6.2831853071796004 $256 $556 forward 7 unknown #
vertex $-1 $259 $557 #
ellipse-curve $-1 -72.227658678237731 18.542108276436238 9.8611534041410263 -0.61566148304635926 0 0.78801074757464917 1.1820161213619738 0 0.92349222456953894 1 I I #
face $-1 $-1 $275 $39 $-1 $558 reversed single #
loop $-1 $-1 $412 $260 #
plane-surface $-1 0 41.327808635252445 0 0 -1 0 0 0 -1 forward_v I I I I #
coedge $-1 $559 $410 $413 $560 forward $261 $-1 #
coedge $-1 $416 $263 $264 $404 reversed $163 $-1 #
coedge $-1 $410 $559 $263 $402 reversed $261 $-1 #
edge $-1 $417 -14.710868520100419 $561 14.710868520100419 $401 $562 forward 7 unknown #
coedge $-1 $265 $264 $559 $563 forward $105 $-1 #
edge $-1 $408 -78.435010834070866 $561 78.435010834070866 $400 $564 forward 7 unknown #
coedge $-1 $413 $412 $265 $406 reversed $397 $-1 #
edge $-1 $565 -78.435010834070866 $407 78.435010834070866 $405 $566 forward 7 unknown #
vertex $-1 $267 $567 #
vertex $-1 $419 $568 #
straight-curve $-1 78.435010834070866 0 -14.710868520100419 0 -1 0 I I #
coedge $-1 $399 $401 $268 $411 reversed $261 $-1 #
edge $-1 $414 -41.327808635252445 $417 41.327808635252445 $410 $569 forward 7 unknown #
coedge $-1 $405 $269 $274 $420 forward $397 $-1 #
coedge $-1 $269 $405 $399 $560 reversed $397 $-1 #
vertex $-1 $270 $570 #
straight-curve $-1 0 41.327808635252445 14.710868520100419 -1 0 0 I I #
coedge $-1 $271 $400 $273 $419 reversed $163 $-1 #
vertex $-1 $411 $571 #
straight-curve $-1 0 -41.327808635252445 14.710868520100419 1 0 0 I I #
edge $-1 $276 -14.710868520100419 $408 14.710868520100419 $273 $572 forward 7 unknown #
edge $-1 $277 -14.710868520100419 $407 14.710868520100419 $274 $573 forward 7 unknown #
point $-1 78.435010834070866 -41.327808635252445 14.710868520100419 #
point $-1 78.435010834070866 41.327808635252445 14.710868520100419 #
face $-1 $-1 $439 $40 $-1 $574 reversed single #
loop $-1 $-1 $575 $279 #
plane-surface $-1 0 -60.542294149212374 9.210911314678274 0 1 0 0 0 1 forward_v I I I I #
coedge $-1 $576 $436 $438 $577 forward $280 $-1 #
coedge $-1 $282 $289 $578 $579 forward $171 $-1 #
coedge $-1 $580 $287 $282 $429 reversed $439 $-1 #
edge $-1 $581 -9.6072427569799643 $291 9.6072427569799643 $428 $582 forward 7 unknown #
coedge $-1 $284 $283 $575 $583 reversed $109 $-1 #
coedge $-1 $436 $576 $283 $432 forward $280 $-1 #
edge $-1 $584 -9.6072427569799643 $434 9.6072427569799643 $283 $585 forward 7 unknown #
edge $-1 $290 -9.6072427569799643 $586 9.6072427569799643 $284 $587 forward 7 unknown #
vertex $-1 $285 $588 #
straight-curve $-1 -78.435010834070866 -41.327808635252445 0 0 0 -1 I I #
coedge $-1 $426 $431 $286 $437 reversed $280 $-1 #
edge $-1 $440 -78.435010834070866 $434 78.435010834070866 $436 $589 forward 7 unknown #
coedge $-1 $287 $580 $426 $577 reversed $439 $-1 #
loop $-1 $-1 $287 $423 #
vertex $-1 $288 $590 #
straight-curve $-1 78.435010834070866 -41.327808635252445 0 0 0 1 I I #
point $-1 -78.435010834070866 -41.327808635252445 11.486613131797235 #
point $-1 78.435010834070866 -41.327808635252445 11.486613131797235 #
plane-surface $-1 0 0 14.710868520100419 0 0 1 1 0 0 forward_v I I I I #
coedge $-1 $455 $454 $447 $591 forward $294 $-1 #
coedge $-1 $447 $296 $298 $451 reversed $179 $-1 #
coedge $-1 $296 $446 $445 $591 reversed $179 $-1 #
coedge $-1 $304 $299 $296 $449 forward $305 $-1 #
edge $-1 $452 38.240171030662964 $592 54.655121391129555 $448 $593 forward 7 unknown #
coedge $-1 $298 $297 $455 $594 reversed $113 $-1 #
edge $-1 $595 -156.87002166814176 $452 -136.31627684718012 $446 $596 forward 7 unknown #
vertex $-1 $300 $597 #
straight-curve $-1 62.020060473604275 -6.9649317819581675 14.710868520100419 0 -1 0 I I #
coedge $-1 $445 $301 $304 $459 reversed $294 $-1 #
coedge $-1 $301 $445 $450 $594 forward $294 $-1 #
vertex $-1 $302 $598 #
straight-curve $-1 78.435010834070866 -8.3921238238053419 111.01501086545136 0 0 1 I I #
straight-curve $-1 -46.846958031366853 -8.3921238238053419 96.748052865464999 0.79863550430605224 0 -0.6018150307709319 I I #
edge $-1 $592 -19.467603304027328 $306 -8.3921238238053419 $454 $599 forward 7 unknown #
point $-1 78.435010834070866 -8.3921238238053419 14.710868520100419 #
point $-1 62.020060473604275 -8.3921238238053419 14.710868520100419 #
edge $-1 $600 1 $600 0 $309 $-1 forward 7 unknown #
vertex $-1 $310 $601 #
ellipse-curve $-1 69.494528729857066 -13.929863563916335 7.5533592107852332 0.6018150307709319 0 0.79863550430605224 0.79863550430605224 0 -0.6018150307709319 1 I I #
point $-1 71.026171158143583 -13.929863563916335 7.9242772033870414 #
plane-surface $-1 0 0 14.710868520100419 0 0 1 1 0 0 forward_v I I I I #
coedge $-1 $477 $476 $469 $602 forward $314 $-1 #
coedge $-1 $469 $316 $318 $473 reversed $194 $-1 #
coedge $-1 $316 $468 $467 $602 reversed $194 $-1 #
coedge $-1 $324 $319 $316 $471 forward $325 $-1 #
edge $-1 $474 38.240171030662964 $603 54.655121391129555 $470 $604 forward 7 unknown #
coedge $-1 $318 $317 $477 $605 reversed $122 $-1 #
edge $-1 $606 -156.87002166814176 $474 -136.31627684718012 $468 $607 forward 7 unknown #
vertex $-1 $320 $608 #
straight-curve $-1 62.020060473604275 0.96520968760995274 14.710868520100419 0 -1 0 I I #
coedge $-1 $467 $321 $324 $481 reversed $314 $-1 #
coedge $-1 $321 $467 $472 $605 forward $314 $-1 #
vertex $-1 $322 $609 #
straight-curve $-1 78.435010834070866 7.4681591153308986 111.01501086545136 0 0 1 I I #
straight-curve $-1 -46.846958031366853 7.4681591153308986 96.748052865464999 0.79863550430605224 0 -0.6018150307709319 I I #
edge $-1 $603 -3.6073203648910876 $326 7.4681591153308986 $476 $610 forward 7 unknown #
point $-1 78.435010834070866 7.4681591153308986 14.710868520100419 #
point $-1 62.020060473604275 7.4681591153308986 14.710868520100419 #
edge $-1 $611 1 $611 0 $329 $-1 forward 7 unknown #
vertex $-1 $330 $612 #
ellipse-curve $-1 69.494528729857066 1.9304193752199055 7.5533592107852332 0.6018150307709319 0 0.79863550430605224 0.79863550430605224 0 -0.6018150307709319 1 I I #
point $-1 71.026171158143583 1.9304193752199055 7.9242772033870414 #
plane-surface $-1 0 0 14.710868520100419 0 0 1 1 0 0 forward_v I I I I #
coedge $-1 $499 $498 $491 $613 forward $334 $-1 #
coedge $-1 $491 $336 $338 $495 reversed $209 $-1 #
coedge $-1 $336 $490 $489 $613 reversed $209 $-1 #
coedge $-1 $344 $339 $336 $493 forward $345 $-1 #
edge $-1 $496 38.240171030662964 $614 54.655121391129555 $492 $615 forward 7 unknown #
coedge $-1 $338 $337 $499 $616 reversed $131 $-1 #
edge $-1 $617 -156.87002166814176 $496 -136.31627684718012 $490 $618 forward 7 unknown #
vertex $-1 $340 $619 #
straight-curve $-1 62.020060473604275 8.895351157178073 14.710868520100419 0 -1 0 I I #
coedge $-1 $489 $341 $344 $503 reversed $334 $-1 #
coedge $-1 $341 $489 $494 $616 forward $334 $-1 #
vertex $-1 $342 $620 #
straight-curve $-1 78.435010834070866 23.328442054467139 111.01501086545136 0 0 1 I I #
straight-curve $-1 -46.846958031366853 23.328442054467139 96.748052865464999 0.79863550430605224 0 -0.6018150307709319 I I #
edge $-1 $614 12.252962574245153 $346 23.328442054467139 $498 $621 forward 7 unknown #
point $-1 78.435010834070866 23.328442054467139 14.710868520100419 #
point $-1 62.020060473604275 23.328442054467139 14.710868520100419 #
edge $-1 $622 1 $622 0 $349 $-1 forward 7 unknown #
vertex $-1 $350 $623 #
ellipse-curve $-1 69.494528729857066 17.790702314356146 7.5533592107852332 0.6018150307709319 0 0.79863550430605224 0.79863550430605224 0 -0.6018150307709319 1 I I #
point $-1 71.026171158143583 17.790702314356146 7.9242772033870414 #
plane-surface $-1 0 0 14.710868520100419 0 0 1 1 0 0 forward_v I I I I #
coedge $-1 $521 $520 $513 $624 forward $354 $-1 #
coedge $-1 $513 $356 $358 $517 reversed $224 $-1 #
coedge $-1 $356 $512 $511 $624 reversed $224 $-1 #
coedge $-1 $364 $359 $356 $515 forward $365 $-1 #
edge $-1 $518 38.240171030662964 $625 54.655121391129555 $514 $626 forward 7 unknown #
coedge $-1 $358 $357 $521 $627 reversed $140 $-1 #
edge $-1 $628 -156.87002166814176 $518 -136.31627684718012 $512 $629 forward 7 unknown #
vertex $-1 $360 $630 #
straight-curve $-1 62.020060473604275 16.825492626746193 14.710868520100419 0 -1 0 I I #
coedge $-1 $511 $361 $364 $525 reversed $354 $-1 #
coedge $-1 $361 $511 $516 $627 forward $354 $-1 #
vertex $-1 $362 $631 #
straight-curve $-1 78.435010834070866 39.18872499360338 111.01501086545136 0 0 1 I I #
straight-curve $-1 -46.846958031366853 39.18872499360338 96.748052865464999 0.79863550430605224 0 -0.6018150307709319 I I #
edge $-1 $625 28.113245513381393 $366 39.18872499360338 $520 $632 forward 7 unknown #
point $-1 78.435010834070866 39.18872499360338 14.710868520100419 #
point $-1 62.020060473604275 39.18872499360338 14.710868520100419 #
edge $-1 $633 1 $633 0 $369 $-1 forward 7 unknown #
vertex $-1 $370 $634 #
ellipse-curve $-1 69.494528729857066 33.650985253492387 7.5533592107852332 0.6018150307709319 0 0.79863550430605224 0.79863550430605224 0 -0.6018150307709319 1 I I #
point $-1 71.026171158143583 33.650985253492387 7.9242772033870414 #
loop $-1 $-1 $381 $373 #
plane-surface $-1 -78.435010834070866 0 0 1 0 0 0 0 -1 forward_v I I I I #
coedge $-1 $535 $376 $378 $539 reversed $239 $-1 #
coedge $-1 $376 $534 $635 $636 reversed $239 $-1 #
coedge $-1 $384 $379 $376 $537 forward $374 $-1 #
edge $-1 $540 -21.486613987492149 $637 -9.0719096758258928 $536 $638 forward 7 unknown #
coedge $-1 $378 $377 $543 $639 reversed $149 $-1 #
edge $-1 $640 -1.830693040787162e-014 $540 15.754486026842144 $534 $641 forward 7 unknown #
vertex $-1 $380 $642 #
straight-curve $-1 -66.02030652240461 8.0211101416479806 14.710868520100419 0 1 0 I I #
coedge $-1 $635 $381 $384 $547 reversed $532 $-1 #
coedge $-1 $381 $635 $538 $639 forward $532 $-1 #
vertex $-1 $382 $643 #
straight-curve $-1 -78.435010834070866 10.20914829930198 64.313350667472719 0 0 1 I I #
straight-curve $-1 -78.435010834070852 10.20914829930198 5.0114382881816368 -0.78801074757464917 0 -0.61566148304635926 I I #
edge $-1 $637 -21.875292267289943 $385 -10.20914829930198 $542 $644 forward 7 unknown #
point $-1 -78.435010834070866 10.20914829930198 14.710868520100419 #
point $-1 -66.02030652240461 10.20914829930198 14.710868520100419 #
edge $-1 $645 1 $645 0 $388 $-1 forward 7 unknown #
vertex $-1 $389 $646 #
ellipse-curve $-1 -70.480134175401531 13.542332290155684 7.6244240848548896 -0.61566148304635926 0 0.78801074757464917 1.1820161213619738 0 0.92349222456953894 1 I I #
point $-1 -71.045642556875777 13.542332290155684 10.784645628710575 #
edge $-1 $647 1 $647 0 $392 $-1 forward 7 unknown #
vertex $-1 $393 $648 #
ellipse-curve $-1 -70.480134175401531 18.542108276436238 7.6244240848548896 -0.61566148304635926 0 0.78801074757464917 1.1820161213619738 0 0.92349222456953894 1 I I #
point $-1 -71.045642556875777 18.542108276436238 10.784645628710575 #
plane-surface $-1 78.435010834070866 0 0 -1 0 0 0 0 1 forward_v I I I I #
coedge $-1 $401 $399 $403 $563 reversed $261 $-1 #
edge $-1 $414 -14.710868520100419 $565 14.710868520100419 $413 $649 forward 7 unknown #
vertex $-1 $563 $650 #
straight-curve $-1 -78.435010834070866 -41.327808635252445 0 0 0 -1 I I #
edge $-1 $561 -41.327808635252445 $565 41.327808635252445 $559 $651 forward 7 unknown #
straight-curve $-1 0 -41.327808635252445 -14.710868520100419 -1 0 0 I I #
vertex $-1 $406 $652 #
straight-curve $-1 0 41.327808635252445 -14.710868520100419 1 0 0 I I #
point $-1 78.435010834070866 41.327808635252445 -14.710868520100419 #
point $-1 78.435010834070866 -41.327808635252445 -14.710868520100419 #
straight-curve $-1 -78.435010834070866 0 14.710868520100419 0 -1 0 I I #
point $-1 -78.435010834070866 41.327808635252445 14.710868520100419 #
point $-1 -78.435010834070866 -41.327808635252445 14.710868520100419 #
straight-curve $-1 78.435010834070866 -41.327808635252445 0 0 0 -1 I I #
straight-curve $-1 78.435010834070866 41.327808635252445 0 0 0 -1 I I #
plane-surface $-1 78.435010834070866 0 0 -1 0 0 0 0 1 forward_v I I I I #
coedge $-1 $653 $578 $430 $583 forward $424 $-1 #
coedge $-1 $431 $426 $653 $654 forward $280 $-1 #
edge $-1 $440 -9.6072427569799643 $655 9.6072427569799643 $438 $656 forward 7 unknown #
coedge $-1 $575 $657 $427 $579 reversed $424 $-1 #
edge $-1 $586 -78.435010834070866 $581 78.435010834070866 $578 $658 forward 7 unknown #
coedge $-1 $438 $428 $657 $659 forward $439 $-1 #
vertex $-1 $429 $660 #
straight-curve $-1 78.435010834070866 -50.93505139223241 11.486613131797235 0 1 0 I I #
edge $-1 $586 -2.2757018171189607 $584 2.2757018171189607 $430 $661 forward 7 unknown #
vertex $-1 $432 $662 #
straight-curve $-1 -78.435010834070866 -50.93505139223241 6.9352094975593133 0 1 0 I I #
vertex $-1 $433 $663 #
straight-curve $-1 -78.435010834070866 -50.93505139223241 11.486613131797235 0 -1 0 I I #
point $-1 -78.435010834070866 -41.327808635252445 6.9352094975593133 #
straight-curve $-1 0 -41.327808635252445 6.9352094975593133 -1 0 0 I I #
point $-1 78.435010834070866 -41.327808635252445 6.9352094975593133 #
edge $-1 $592 96.30414234535094 $595 108.67369491723584 $445 $664 forward 7 unknown #
vertex $-1 $459 $665 #
straight-curve $-1 23.779889442941311 -19.467603304027328 14.710868520100419 1 0 0 I I #
edge $-1 $595 -12.502671522069161 $456 -1.4271920418471744 $455 $666 forward 7 unknown #
vertex $-1 $594 $667 #
straight-curve $-1 -46.846958031366853 -19.467603304027328 96.748052865464999 -0.79863550430605224 0 0.6018150307709319 I I #
point $-1 62.020060473604275 -19.467603304027328 14.710868520100419 #
point $-1 78.435010834070866 -8.3921238238053419 2.3413159482155237 #
straight-curve $-1 78.435010834070866 0 14.710868520100419 0 1 0 I I #
vertex $-1 $462 $668 #
point $-1 70.293164234163129 -13.929863563916335 6.9515441800143014 #
edge $-1 $603 96.30414234535094 $606 108.67369491723584 $467 $669 forward 7 unknown #
vertex $-1 $481 $670 #
straight-curve $-1 23.779889442941311 -3.6073203648910876 14.710868520100419 1 0 0 I I #
edge $-1 $606 -4.5725300525010404 $478 6.5029494277209459 $477 $671 forward 7 unknown #
vertex $-1 $605 $672 #
straight-curve $-1 -46.846958031366853 -3.6073203648910876 96.748052865464999 -0.79863550430605224 0 0.6018150307709319 I I #
point $-1 62.020060473604275 -3.6073203648910876 14.710868520100419 #
point $-1 78.435010834070866 7.4681591153308986 2.3413159482155237 #
straight-curve $-1 78.435010834070866 0 14.710868520100419 0 1 0 I I #
vertex $-1 $484 $673 #
point $-1 70.293164234163129 1.9304193752199055 6.9515441800143014 #
edge $-1 $614 96.30414234535094 $617 108.67369491723584 $489 $674 forward 7 unknown #
vertex $-1 $503 $675 #
straight-curve $-1 23.779889442941311 12.252962574245153 14.710868520100419 1 0 0 I I #
edge $-1 $617 3.3576114170670799 $500 14.433090897289066 $499 $676 forward 7 unknown #
vertex $-1 $616 $677 #
straight-curve $-1 -46.846958031366853 12.252962574245153 96.748052865464999 -0.79863550430605224 0 0.6018150307709319 I I #
point $-1 62.020060473604275 12.252962574245153 14.710868520100419 #
point $-1 78.435010834070866 23.328442054467139 2.3413159482155237 #
straight-curve $-1 78.435010834070866 0 14.710868520100419 0 1 0 I I #
vertex $-1 $506 $678 #
point $-1 70.293164234163129 17.790702314356146 6.9515441800143014 #
edge $-1 $625 96.30414234535094 $628 108.67369491723584 $511 $679 forward 7 unknown #
vertex $-1 $525 $680 #
straight-curve $-1 23.779889442941311 28.113245513381393 14.710868520100419 1 0 0 I I #
edge $-1 $628 11.2877528866352 $522 22.363232366857186 $521 $681 forward 7 unknown #
vertex $-1 $627 $682 #
straight-curve $-1 -46.846958031366853 28.113245513381393 96.748052865464999 -0.79863550430605224 0 0.6018150307709319 I I #
point $-1 62.020060473604275 28.113245513381393 14.710868520100419 #
point $-1 78.435010834070866 39.18872499360338 2.3413159482155237 #
straight-curve $-1 78.435010834070866 0 14.710868520100419 0 1 0 I I #
vertex $-1 $528 $683 #
point $-1 70.293164234163129 33.650985253492387 6.9515441800143014 #
coedge $-1 $543 $542 $535 $636 forward $532 $-1 #
edge $-1 $637 49.602482147372299 $640 59.301912379291096 $635 $684 forward 7 unknown #
vertex $-1 $547 $685 #
straight-curve $-1 -87.506920509896759 21.875292267289943 14.710868520100419 -1 0 0 I I #
edge $-1 $640 -13.854182125641962 $544 -2.1880381576539989 $543 $686 forward 7 unknown #
vertex $-1 $639 $687 #
straight-curve $-1 -78.435010834070852 21.875292267289943 5.0114382881816368 0.78801074757464917 0 0.61566148304635926 I I #
point $-1 -66.02030652240461 21.875292267289943 14.710868520100419 #
point $-1 -78.435010834070866 10.20914829930198 5.0114382881816253 #
straight-curve $-1 -78.435010834070866 0 14.710868520100419 0 -1 0 I I #
vertex $-1 $550 $688 #
point $-1 -69.298118054039548 13.542332290155684 8.5479163094244281 #
vertex $-1 $554 $689 #
point $-1 -69.298118054039548 18.542108276436238 8.5479163094244281 #
straight-curve $-1 -78.435010834070866 41.327808635252445 0 0 0 -1 I I #
point $-1 -78.435010834070866 -41.327808635252445 -14.710868520100419 #
straight-curve $-1 -78.435010834070866 0 -14.710868520100419 0 1 0 I I #
point $-1 -78.435010834070866 41.327808635252445 -14.710868520100419 #
coedge $-1 $657 $575 $576 $654 reversed $424 $-1 #
edge $-1 $655 -78.435010834070866 $584 78.435010834070866 $653 $690 forward 7 unknown #
vertex $-1 $659 $691 #
straight-curve $-1 78.435010834070866 -50.93505139223241 6.9352094975593133 0 -1 0 I I #
coedge $-1 $578 $653 $580 $659 reversed $424 $-1 #
straight-curve $-1 0 -60.542294149212374 11.486613131797235 1 0 0 I I #
edge $-1 $581 -2.2757018171189607 $655 2.2757018171189607 $580 $692 forward 7 unknown #
point $-1 78.435010834070866 -60.542294149212374 11.486613131797235 #
straight-curve $-1 -78.435010834070866 -60.542294149212374 9.210911314678274 0 0 -1 I I #
point $-1 -78.435010834070866 -60.542294149212374 6.9352094975593133 #
point $-1 -78.435010834070866 -60.542294149212374 11.486613131797235 #
straight-curve $-1 78.435010834070866 -19.467603304027328 111.01501086545136 0 0 -1 I I #
point $-1 78.435010834070866 -19.467603304027328 14.710868520100419 #
straight-curve $-1 78.435010834070866 -6.9649317819581675 2.3413159482155237 0 1 0 I I #
point $-1 78.435010834070866 -19.467603304027328 2.3413159482155237 #
point $-1 68.892713699086144 -13.929863563916335 6.7547237064791812 #
straight-curve $-1 78.435010834070866 -3.6073203648910876 111.01501086545136 0 0 -1 I I #
point $-1 78.435010834070866 -3.6073203648910876 14.710868520100419 #
straight-curve $-1 78.435010834070866 0.96520968760995274 2.3413159482155237 0 1 0 I I #
point $-1 78.435010834070866 -3.6073203648910876 2.3413159482155237 #
point $-1 68.892713699086144 1.9304193752199055 6.7547237064791812 #
straight-curve $-1 78.435010834070866 12.252962574245153 111.01501086545136 0 0 -1 I I #
point $-1 78.435010834070866 12.252962574245153 14.710868520100419 #
straight-curve $-1 78.435010834070866 8.895351157178073 2.3413159482155237 0 1 0 I I #
point $-1 78.435010834070866 12.252962574245153 2.3413159482155237 #
point $-1 68.892713699086144 17.790702314356146 6.7547237064791812 #
straight-curve $-1 78.435010834070866 28.113245513381393 111.01501086545136 0 0 -1 I I #
point $-1 78.435010834070866 28.113245513381393 14.710868520100419 #
straight-curve $-1 78.435010834070866 16.825492626746193 2.3413159482155237 0 1 0 I I #
point $-1 78.435010834070866 28.113245513381393 2.3413159482155237 #
point $-1 68.892713699086144 33.650985253492387 6.7547237064791812 #
straight-curve $-1 -78.435010834070866 21.875292267289943 64.313350667472719 0 0 -1 I I #
point $-1 -78.435010834070866 21.875292267289943 14.710868520100419 #
straight-curve $-1 -78.435010834070866 8.0211101416479806 5.0114382881816226 0 -1 0 I I #
point $-1 -78.435010834070866 21.875292267289943 5.0114382881816253 #
point $-1 -69.556641950831988 13.542332290155684 6.4424079634929159 #
point $-1 -69.556641950831988 18.542108276436238 6.4424079634929159 #
straight-curve $-1 0 -60.542294149212374 6.9352094975593133 -1 0 0 I I #
point $-1 78.435010834070866 -60.542294149212374 6.9352094975593133 #
straight-curve $-1 78.435010834070866 -60.542294149212374 9.210911314678274 0 0 -1 I I #
End-of-ACIS-data 