500 0 13 0           
7 Unknown 11 ACIS 5.0 NT 24 Fri Mar 26 15:39:19 1999 
-1 9.9999999999999995e-007 1e-010 
body $-1 $13 $-1 $14 #
body $-1 $15 $-1 $16 #
body $-1 $17 $-1 $18 #
body $-1 $19 $-1 $20 #
body $-1 $21 $-1 $22 #
body $-1 $23 $-1 $24 #
body $-1 $25 $-1 $26 #
body $-1 $27 $-1 $28 #
body $-1 $29 $-1 $30 #
body $-1 $31 $-1 $32 #
body $-1 $33 $-1 $34 #
body $-1 $35 $-1 $36 #
body $-1 $37 $-1 $38 #
lump $-1 $-1 $39 $0 #
transform $-1 1 0 0 0 1 0 0 0 1 62.792443617053742 25.909763906502736 11.300522138645666 1 rotate no_reflect no_shear #
lump $-1 $-1 $40 $1 #
transform $-1 1 0 0 0 1 0 0 0 1 62.792443617053742 25.909763906502736 11.300522138645666 1 rotate no_reflect no_shear #
lump $-1 $-1 $41 $2 #
transform $-1 1 0 0 0 1 0 0 0 1 62.792443617053742 25.909763906502736 11.300522138645666 1 rotate no_reflect no_shear #
lump $-1 $-1 $42 $3 #
transform $-1 1 0 0 0 1 0 0 0 1 62.792443617053742 25.909763906502736 11.300522138645666 1 rotate no_reflect no_shear #
lump $-1 $-1 $43 $4 #
transform $-1 1 0 0 0 1 0 0 0 1 62.792443617053742 25.909763906502736 11.300522138645666 1 rotate no_reflect no_shear #
lump $-1 $-1 $44 $5 #
transform $-1 1 0 0 0 1 0 0 0 1 62.792443617053742 25.909763906502736 11.300522138645666 1 rotate no_reflect no_shear #
lump $-1 $-1 $45 $6 #
transform $-1 1 0 0 0 1 0 0 0 1 62.792443617053742 25.909763906502736 11.300522138645666 1 rotate no_reflect no_shear #
lump $-1 $-1 $46 $7 #
transform $-1 1 0 0 0 1 0 0 0 1 62.792443617053742 25.909763906502736 11.300522138645666 1 rotate no_reflect no_shear #
lump $-1 $-1 $47 $8 #
transform $-1 1 0 0 0 1 0 0 0 1 62.792443617053742 25.909763906502736 11.300522138645666 1 rotate no_reflect no_shear #
lump $-1 $-1 $48 $9 #
transform $-1 1 0 0 0 1 0 0 0 1 62.792443617053742 25.909763906502736 11.300522138645666 1 rotate no_reflect no_shear #
lump $-1 $-1 $49 $10 #
transform $-1 1 0 0 0 1 0 0 0 1 62.792443617053742 25.909763906502736 11.300522138645666 1 rotate no_reflect no_shear #
lump $-1 $-1 $50 $11 #
transform $-1 1 0 0 0 1 0 0 0 1 62.792443617053742 25.909763906502736 11.300522138645666 1 rotate no_reflect no_shear #
lump $-1 $-1 $51 $12 #
transform $-1 1 0 0 0 1 0 0 0 1 62.792443617053742 25.909763906502736 11.300522138645666 1 rotate no_reflect no_shear #
shell $-1 $-1 $-1 $52 $-1 $13 #
shell $-1 $-1 $-1 $53 $-1 $15 #
shell $-1 $-1 $-1 $54 $-1 $17 #
shell $-1 $-1 $-1 $55 $-1 $19 #
shell $-1 $-1 $-1 $56 $-1 $21 #
shell $-1 $-1 $-1 $57 $-1 $23 #
shell $-1 $-1 $-1 $58 $-1 $25 #
shell $-1 $-1 $-1 $59 $-1 $27 #
shell $-1 $-1 $-1 $60 $-1 $29 #
shell $-1 $-1 $-1 $61 $-1 $31 #
shell $-1 $-1 $-1 $62 $-1 $33 #
shell $-1 $-1 $-1 $63 $-1 $35 #
shell $-1 $-1 $-1 $64 $-1 $37 #
face $-1 $65 $66 $39 $-1 $67 forward single #
face $-1 $68 $69 $40 $-1 $70 reversed single #
face $-1 $71 $72 $41 $-1 $73 reversed single #
face $-1 $74 $75 $42 $-1 $76 forward single #
face $-1 $77 $78 $43 $-1 $79 reversed single #
face $-1 $80 $81 $44 $-1 $82 forward single #
face $-1 $83 $84 $45 $-1 $85 forward single #
face $-1 $86 $87 $46 $-1 $88 reversed single #
face $-1 $89 $90 $47 $-1 $91 forward single #
face $-1 $92 $93 $48 $-1 $94 forward single #
face $-1 $95 $96 $49 $-1 $97 reversed single #
face $-1 $98 $99 $50 $-1 $100 forward single #
face $-1 $101 $102 $51 $-1 $103 forward single #
face $-1 $104 $105 $39 $-1 $106 reversed single #
loop $-1 $-1 $107 $52 #
plane-surface $-1 0 0 11.300522138645666 0 0 1 1 0 0 forward_v I I I I #
face $-1 $108 $109 $40 $-1 $110 reversed single #
loop $-1 $-1 $111 $53 #
plane-surface $-1 -48.580451343433126 -19.349484380744375 0 1 0 0 0 0 -1 forward_v I I I I #
face $-1 $112 $113 $41 $-1 $114 reversed single #
loop $-1 $-1 $115 $54 #
plane-surface $-1 84.436910658316407 23.703664339565361 177.65123709138899 0 -1 0 -0.78801076186113728 0 -0.61566146476048833 forward_v I I I I #
face $-1 $116 $117 $42 $-1 $118 forward single #
loop $-1 $119 $120 $55 #
cone-surface $-1 57.531325211168756 20.080327336538712 5.2558934993675885 -0.78801076186113728 0 -0.61566146476048833 0.61566146476048833 0 -0.78801076186113728 1 I I 0 1 1 forward I I I I #
face $-1 $121 $122 $43 $-1 $123 reversed single #
loop $-1 $-1 $124 $56 #
plane-surface $-1 -161.75468628464779 -10.434447257484319 82.790998116262656 0 1 0 -0.78801076186113728 0 0.61566146476048833 forward_v I I I I #
face $-1 $125 $126 $44 $-1 $127 forward single #
loop $-1 $128 $129 $57 #
cone-surface $-1 -60.042816423735161 -8.0707985380226219 8.0171409899817974 0.78801076186113728 0 -0.61566146476048833 0.30783073238024417 0 0.39400538093056864 1 I I 0 1 0.5 forward I I I I #
face $-1 $130 $131 $45 $-1 $132 forward single #
loop $-1 $133 $134 $58 #
cone-surface $-1 -60.042816423735161 -4.5253254588300749 8.0171409899817974 0.78801076186113728 0 -0.61566146476048833 0.30783073238024417 0 0.39400538093056864 1 I I 0 1 0.5 forward I I I I #
face $-1 $135 $136 $46 $-1 $137 reversed single #
loop $-1 $-1 $138 $59 #
plane-surface $-1 -161.75468628464779 2.4238942667003931 82.790998116262656 0 1 0 -0.78801076186113728 0 0.61566146476048833 forward_v I I I I #
face $-1 $139 $140 $47 $-1 $141 forward single #
loop $-1 $142 $143 $60 #
cone-surface $-1 -60.042816423735161 4.7875429861620908 8.0171409899817974 0.78801076186113728 0 -0.61566146476048833 0.30783073238024417 0 0.39400538093056864 1 I I 0 1 0.5 forward I I I I #
face $-1 $144 $145 $48 $-1 $146 forward single #
loop $-1 $147 $148 $61 #
cone-surface $-1 -60.042816423735161 8.3330160653546379 8.0171409899817974 0.78801076186113728 0 -0.61566146476048833 0.30783073238024417 0 0.39400538093056864 1 I I 0 1 0.5 forward I I I I #
face $-1 $149 $150 $49 $-1 $151 reversed single #
loop $-1 $-1 $152 $62 #
plane-surface $-1 -161.75468628464779 15.282235790885103 82.790998116262656 0 1 0 -0.78801076186113728 0 0.61566146476048833 forward_v I I I I #
face $-1 $153 $154 $50 $-1 $155 forward single #
loop $-1 $156 $157 $63 #
cone-surface $-1 -60.042816423735161 17.6458845103468 8.0171409899817974 0.78801076186113728 0 -0.61566146476048833 0.30783073238024417 0 0.39400538093056864 1 I I 0 1 0.5 forward I I I I #
face $-1 $158 $159 $51 $-1 $160 forward single #
loop $-1 $161 $162 $64 #
cone-surface $-1 -60.042816423735161 21.191357589539347 8.0171409899817974 0.78801076186113728 0 -0.61566146476048833 0.30783073238024417 0 0.39400538093056864 1 I I 0 1 0.5 forward I I I I #
face $-1 $163 $164 $39 $-1 $165 reversed single #
loop $-1 $-1 $166 $65 #
plane-surface $-1 0 0 -11.300522138645666 0 0 1 1 0 0 forward_v I I I I #
coedge $-1 $167 $168 $169 $170 forward $66 $-1 #
face $-1 $171 $172 $40 $-1 $173 reversed single #
loop $-1 $-1 $174 $68 #
plane-surface $-1 -45.712573541121785 -12.789204854986014 0 0 -1 0 0 0 -1 forward_v I I I I #
coedge $-1 $175 $176 $177 $178 forward $69 $-1 #
face $-1 $179 $180 $41 $-1 $181 reversed single #
loop $-1 $-1 $182 $71 #
plane-surface $-1 -14.525332009277633 20.080327336538712 100.33346146505764 0.78801076186113728 0 0.61566146476048833 0.61566146476048833 0 -0.78801076186113728 forward_v I I I I #
coedge $-1 $183 $184 $185 $186 reversed $72 $-1 #
face $-1 $-1 $187 $42 $-1 $188 forward single #
loop $-1 $189 $190 $74 #
cone-surface $-1 55.755012308004957 20.080327336538712 3.8680857983003083 -0.78801076186113728 0 -0.61566146476048833 0.30783073238024417 0 -0.39400538093056864 1 I I -0.70710678118654746 0.70710678118654746 0.5 forward I I I I #
loop $-1 $-1 $191 $55 #
coedge $-1 $120 $120 $192 $193 reversed $75 $-1 #
face $-1 $194 $195 $43 $-1 $196 reversed single #
loop $-1 $-1 $197 $77 #
plane-surface $-1 -62.792443617053721 -6.2980619984263484 5.4732224899312882 -0.78801076186113728 0 0.61566146476048833 0.61566146476048833 0 0.78801076186113728 forward_v I I I I #
coedge $-1 $198 $199 $200 $201 reversed $78 $-1 #
face $-1 $-1 $202 $44 $-1 $203 forward single #
loop $-1 $204 $205 $80 #
cone-surface $-1 -59.372579205485721 -8.0707985380226219 7.4934942994849987 0.78801076186113728 0 -0.61566146476048833 0.15391536619012208 0 0.19700269046528432 1 I I -0.70710678118654746 0.70710678118654746 0.25 forward I I I I #
loop $-1 $-1 $206 $57 #
coedge $-1 $129 $129 $207 $208 reversed $81 $-1 #
face $-1 $-1 $209 $45 $-1 $210 forward single #
loop $-1 $211 $212 $83 #
cone-surface $-1 -59.372579205485721 -4.5253254588300749 7.4934942994849987 0.78801076186113728 0 -0.61566146476048833 0.15391536619012208 0 0.19700269046528432 1 I I -0.70710678118654746 0.70710678118654746 0.25 forward I I I I #
loop $-1 $-1 $213 $58 #
coedge $-1 $134 $134 $214 $215 reversed $84 $-1 #
face $-1 $216 $217 $46 $-1 $218 reversed single #
loop $-1 $-1 $219 $86 #
plane-surface $-1 -62.792443617053721 6.5602795257583644 5.4732224899312882 -0.78801076186113728 0 0.61566146476048833 0.61566146476048833 0 0.78801076186113728 forward_v I I I I #
coedge $-1 $220 $221 $222 $223 reversed $87 $-1 #
face $-1 $-1 $224 $47 $-1 $225 forward single #
loop $-1 $226 $227 $89 #
cone-surface $-1 -59.372579205485721 4.7875429861620908 7.4934942994849987 0.78801076186113728 0 -0.61566146476048833 0.15391536619012208 0 0.19700269046528432 1 I I -0.70710678118654746 0.70710678118654746 0.25 forward I I I I #
loop $-1 $-1 $228 $60 #
coedge $-1 $143 $143 $229 $230 reversed $90 $-1 #
face $-1 $-1 $231 $48 $-1 $232 forward single #
loop $-1 $233 $234 $92 #
cone-surface $-1 -59.372579205485721 8.3330160653546379 7.4934942994849987 0.78801076186113728 0 -0.61566146476048833 0.15391536619012208 0 0.19700269046528432 1 I I -0.70710678118654746 0.70710678118654746 0.25 forward I I I I #
loop $-1 $-1 $235 $61 #
coedge $-1 $148 $148 $236 $237 reversed $93 $-1 #
face $-1 $238 $239 $49 $-1 $240 reversed single #
loop $-1 $-1 $241 $95 #
plane-surface $-1 -62.792443617053721 19.418621049943074 5.4732224899312882 -0.78801076186113728 0 0.61566146476048833 0.61566146476048833 0 0.78801076186113728 forward_v I I I I #
coedge $-1 $242 $243 $244 $245 reversed $96 $-1 #
face $-1 $-1 $246 $50 $-1 $247 forward single #
loop $-1 $248 $249 $98 #
cone-surface $-1 -59.372579205485721 17.6458845103468 7.4934942994849987 0.78801076186113728 0 -0.61566146476048833 0.15391536619012208 0 0.19700269046528432 1 I I -0.70710678118654746 0.70710678118654746 0.25 forward I I I I #
loop $-1 $-1 $250 $63 #
coedge $-1 $157 $157 $251 $252 reversed $99 $-1 #
face $-1 $-1 $253 $51 $-1 $254 forward single #
loop $-1 $255 $256 $101 #
cone-surface $-1 -59.372579205485721 21.191357589539347 7.4934942994849987 0.78801076186113728 0 -0.61566146476048833 0.15391536619012208 0 0.19700269046528432 1 I I -0.70710678118654746 0.70710678118654746 0.25 forward I I I I #
loop $-1 $-1 $257 $64 #
coedge $-1 $162 $162 $258 $259 reversed $102 $-1 #
face $-1 $260 $261 $39 $-1 $262 reversed single #
loop $-1 $-1 $263 $104 #
plane-surface $-1 0 -25.909763906502736 0 0 1 0 0 0 1 forward_v I I I I #
coedge $-1 $264 $265 $266 $267 forward $105 $-1 #
coedge $-1 $268 $107 $269 $270 forward $66 $-1 #
coedge $-1 $107 $268 $271 $272 forward $66 $-1 #
coedge $-1 $273 $274 $107 $170 reversed $275 $-1 #
edge $-1 $276 -25.909763906502736 $277 25.909763906502736 $169 $278 forward 7 unknown #
face $-1 $279 $280 $40 $-1 $281 forward single #
loop $-1 $-1 $282 $108 #
plane-surface $-1 -42.844695738810444 -19.349484380744375 0 -1 0 0 0 0 1 forward_v I I I I #
coedge $-1 $283 $284 $285 $286 forward $109 $-1 #
coedge $-1 $287 $111 $288 $289 reversed $69 $-1 #
coedge $-1 $111 $287 $290 $291 reversed $69 $-1 #
coedge $-1 $284 $283 $111 $178 reversed $109 $-1 #
edge $-1 $292 -11.300522138645666 $293 11.300522138645666 $177 $294 forward 7 unknown #
face $-1 $295 $296 $41 $-1 $297 reversed single #
loop $-1 $-1 $298 $112 #
plane-surface $-1 84.436910658316407 16.456990333512064 177.65123709138899 0 1 0 0.78801076186113728 0 0.61566146476048833 forward_v I I I I #
coedge $-1 $299 $300 $301 $302 reversed $113 $-1 #
coedge $-1 $184 $115 $303 $304 reversed $72 $-1 #
coedge $-1 $115 $183 $299 $305 reversed $72 $-1 #
coedge $-1 $301 $306 $115 $186 forward $307 $-1 #
edge $-1 $308 -20.573988287895538 $309 -12.816366520592041 $185 $310 forward 7 unknown #
loop $-1 $-1 $192 $116 #
plane-surface $-1 -14.525332009277633 20.080327336538712 100.33346146505764 0.78801076186113728 0 0.61566146476048833 0.61566146476048833 0 -0.78801076186113728 forward_v I I I I #
loop $-1 $-1 $311 $74 #
coedge $-1 $190 $190 $191 $312 reversed $117 $-1 #
coedge $-1 $191 $191 $190 $312 forward $119 $-1 #
coedge $-1 $192 $192 $120 $193 forward $187 $-1 #
edge $-1 $313 0 $313 6.2831853071796004 $192 $314 forward 7 unknown #
face $-1 $315 $316 $43 $-1 $317 reversed single #
loop $-1 $-1 $318 $121 #
plane-surface $-1 -161.75468628464779 -2.1616767393683771 82.790998116262656 0 -1 0 0.78801076186113728 0 -0.61566146476048833 forward_v I I I I #
coedge $-1 $319 $320 $321 $322 reversed $122 $-1 #
coedge $-1 $199 $124 $323 $324 reversed $78 $-1 #
coedge $-1 $124 $198 $319 $325 reversed $78 $-1 #
coedge $-1 $321 $326 $124 $201 forward $327 $-1 #
edge $-1 $328 18.084899525270153 $329 22.637684856339021 $200 $330 forward 7 unknown #
loop $-1 $-1 $207 $125 #
plane-surface $-1 -62.792443617053721 -6.2980619984263484 5.4732224899312882 -0.78801076186113728 0 0.61566146476048833 0.61566146476048833 0 0.78801076186113728 forward_v I I I I #
loop $-1 $-1 $331 $80 #
coedge $-1 $205 $205 $206 $332 reversed $126 $-1 #
coedge $-1 $206 $206 $205 $332 forward $128 $-1 #
coedge $-1 $207 $207 $129 $208 forward $202 $-1 #
edge $-1 $333 0 $333 6.2831853071796004 $207 $334 forward 7 unknown #
loop $-1 $-1 $214 $130 #
plane-surface $-1 -62.792443617053721 -6.2980619984263484 5.4732224899312882 -0.78801076186113728 0 0.61566146476048833 0.61566146476048833 0 0.78801076186113728 forward_v I I I I #
loop $-1 $-1 $335 $83 #
coedge $-1 $212 $212 $213 $336 reversed $131 $-1 #
coedge $-1 $213 $213 $212 $336 forward $133 $-1 #
coedge $-1 $214 $214 $134 $215 forward $209 $-1 #
edge $-1 $337 0 $337 6.2831853071796004 $214 $338 forward 7 unknown #
face $-1 $339 $340 $46 $-1 $341 forward single #
loop $-1 $-1 $342 $135 #
plane-surface $-1 -161.75468628464779 10.696664784816335 82.790998116262656 0 -1 0 0.78801076186113728 0 -0.61566146476048833 forward_v I I I I #
coedge $-1 $343 $344 $345 $346 reversed $136 $-1 #
coedge $-1 $221 $138 $347 $348 reversed $87 $-1 #
coedge $-1 $138 $220 $343 $349 reversed $87 $-1 #
coedge $-1 $345 $350 $138 $223 forward $340 $-1 #
edge $-1 $351 18.084899525270153 $352 22.637684856339021 $222 $353 forward 7 unknown #
loop $-1 $-1 $229 $139 #
plane-surface $-1 -62.792443617053721 6.5602795257583644 5.4732224899312882 -0.78801076186113728 0 0.61566146476048833 0.61566146476048833 0 0.78801076186113728 forward_v I I I I #
loop $-1 $-1 $354 $89 #
coedge $-1 $227 $227 $228 $355 reversed $140 $-1 #
coedge $-1 $228 $228 $227 $355 forward $142 $-1 #
coedge $-1 $229 $229 $143 $230 forward $224 $-1 #
edge $-1 $356 0 $356 6.2831853071796004 $229 $357 forward 7 unknown #
loop $-1 $-1 $236 $144 #
plane-surface $-1 -62.792443617053721 6.5602795257583644 5.4732224899312882 -0.78801076186113728 0 0.61566146476048833 0.61566146476048833 0 0.78801076186113728 forward_v I I I I #
loop $-1 $-1 $358 $92 #
coedge $-1 $234 $234 $235 $359 reversed $145 $-1 #
coedge $-1 $235 $235 $234 $359 forward $147 $-1 #
coedge $-1 $236 $236 $148 $237 forward $231 $-1 #
edge $-1 $360 0 $360 6.2831853071796004 $236 $361 forward 7 unknown #
face $-1 $362 $363 $49 $-1 $364 forward single #
loop $-1 $-1 $365 $149 #
plane-surface $-1 -161.75468628464779 23.555006309001044 82.790998116262656 0 -1 0 0.78801076186113728 0 -0.61566146476048833 forward_v I I I I #
coedge $-1 $366 $367 $368 $369 reversed $150 $-1 #
coedge $-1 $243 $152 $370 $371 reversed $96 $-1 #
coedge $-1 $152 $242 $366 $372 reversed $96 $-1 #
coedge $-1 $368 $373 $152 $245 forward $363 $-1 #
edge $-1 $374 18.084899525270153 $375 22.637684856339021 $244 $376 forward 7 unknown #
loop $-1 $-1 $251 $153 #
plane-surface $-1 -62.792443617053721 19.418621049943074 5.4732224899312882 -0.78801076186113728 0 0.61566146476048833 0.61566146476048833 0 0.78801076186113728 forward_v I I I I #
loop $-1 $-1 $377 $98 #
coedge $-1 $249 $249 $250 $378 reversed $154 $-1 #
coedge $-1 $250 $250 $249 $378 forward $156 $-1 #
coedge $-1 $251 $251 $157 $252 forward $246 $-1 #
edge $-1 $379 0 $379 6.2831853071796004 $251 $380 forward 7 unknown #
loop $-1 $-1 $258 $158 #
plane-surface $-1 -62.792443617053721 19.418621049943074 5.4732224899312882 -0.78801076186113728 0 0.61566146476048833 0.61566146476048833 0 0.78801076186113728 forward_v I I I I #
loop $-1 $-1 $381 $101 #
coedge $-1 $256 $256 $257 $382 reversed $159 $-1 #
coedge $-1 $257 $257 $256 $382 forward $161 $-1 #
coedge $-1 $258 $258 $162 $259 forward $253 $-1 #
edge $-1 $383 0 $383 6.2831853071796004 $258 $384 forward 7 unknown #
face $-1 $385 $386 $39 $-1 $387 reversed single #
loop $-1 $-1 $388 $163 #
plane-surface $-1 -62.792443617053742 0 0 1 0 0 0 0 -1 forward_v I I I I #
coedge $-1 $389 $271 $390 $391 forward $164 $-1 #
coedge $-1 $392 $166 $389 $393 forward $105 $-1 #
coedge $-1 $166 $392 $394 $395 forward $105 $-1 #
coedge $-1 $274 $273 $166 $267 reversed $275 $-1 #
edge $-1 $396 -25.909763906502736 $397 25.909763906502736 $266 $398 forward 7 unknown #
coedge $-1 $168 $167 $399 $400 forward $66 $-1 #
coedge $-1 $401 $402 $167 $270 reversed $386 $-1 #
edge $-1 $277 -62.792443617053742 $403 62.792443617053742 $269 $404 forward 7 unknown #
coedge $-1 $263 $405 $168 $272 reversed $164 $-1 #
edge $-1 $406 -62.792443617053742 $276 62.792443617053742 $271 $407 forward 7 unknown #
coedge $-1 $266 $169 $405 $408 forward $275 $-1 #
coedge $-1 $169 $266 $401 $409 reversed $275 $-1 #
loop $-1 $-1 $273 $385 #
vertex $-1 $170 $410 #
vertex $-1 $170 $411 #
straight-curve $-1 62.792443617053742 0 11.300522138645666 0 1 0 I I #
face $-1 $412 $413 $40 $-1 $414 reversed single #
loop $-1 $-1 $415 $171 #
plane-surface $-1 0 0 11.300522138645666 0 0 1 1 0 0 forward_v I I I I #
coedge $-1 $416 $417 $418 $419 reversed $172 $-1 #
coedge $-1 $177 $174 $420 $421 reversed $109 $-1 #
coedge $-1 $174 $177 $422 $423 reversed $109 $-1 #
coedge $-1 $417 $416 $174 $286 reversed $172 $-1 #
edge $-1 $424 -11.300522138645666 $425 11.300522138645666 $285 $426 forward 7 unknown #
coedge $-1 $176 $175 $427 $428 reversed $69 $-1 #
coedge $-1 $420 $429 $175 $289 forward $413 $-1 #
edge $-1 $430 -16.235021716130547 $293 -3.1144626646138267 $288 $431 forward 7 unknown #
coedge $-1 $432 $422 $176 $291 forward $280 $-1 #
edge $-1 $292 3.1144626646138267 $433 16.235021716130547 $290 $434 forward 7 unknown #
vertex $-1 $291 $435 #
vertex $-1 $289 $436 #
straight-curve $-1 -48.580451343433126 -12.789204854986014 0 0 0 -1 I I #
face $-1 $-1 $307 $41 $-1 $437 forward single #
loop $-1 $-1 $438 $179 #
plane-surface $-1 62.792443617053742 0 0 -1 0 0 0 0 1 forward_v I I I I #
coedge $-1 $439 $440 $441 $442 reversed $180 $-1 #
coedge $-1 $443 $182 $184 $305 forward $113 $-1 #
coedge $-1 $182 $443 $439 $444 forward $113 $-1 #
coedge $-1 $441 $185 $182 $302 forward $307 $-1 #
edge $-1 $309 -13.663500671296005 $445 -6.4168266652427075 $301 $446 forward 7 unknown #
coedge $-1 $447 $448 $183 $304 forward $296 $-1 #
edge $-1 $449 -87.454399748230927 $308 -77.525096407048835 $303 $450 forward 7 unknown #
edge $-1 $309 112.98442056315635 $449 125.58488723410751 $184 $451 forward 7 unknown #
coedge $-1 $185 $441 $447 $452 forward $307 $-1 #
loop $-1 $-1 $441 $295 #
vertex $-1 $304 $453 #
vertex $-1 $186 $454 #
straight-curve $-1 42.218455329158203 23.703664339565361 11.300522138645661 -1 0 0 I I #
coedge $-1 $311 $311 $-1 $455 reversed $189 $-1 #
edge $-1 $456 0 $456 6.2831853071796004 $190 $457 forward 7 unknown #
vertex $-1 $193 $458 #
ellipse-curve $-1 58.913632733401982 20.080327336538712 6.3358704680546198 0.78801076186113728 0 0.61566146476048833 0.61566146476048833 0 -0.78801076186113728 1 I I #
face $-1 $-1 $327 $43 $-1 $459 forward single #
loop $-1 $-1 $460 $194 #
plane-surface $-1 -62.792443617053742 0 0 1 0 0 0 0 -1 forward_v I I I I #
coedge $-1 $461 $462 $463 $464 reversed $195 $-1 #
coedge $-1 $465 $197 $199 $325 forward $122 $-1 #
coedge $-1 $197 $465 $461 $466 forward $122 $-1 #
coedge $-1 $463 $200 $197 $322 forward $327 $-1 #
edge $-1 $329 -7.2854162582711446 $467 0.98735425984479708 $321 $468 forward 7 unknown #
coedge $-1 $469 $470 $198 $324 forward $316 $-1 #
edge $-1 $471 -35.922276568200068 $328 -30.09497691948566 $323 $472 forward 7 unknown #
edge $-1 $329 -7.394949321442466 $471 3.482033219266165e-014 $199 $473 forward 7 unknown #
coedge $-1 $200 $463 $469 $474 forward $327 $-1 #
loop $-1 $-1 $463 $315 #
vertex $-1 $324 $475 #
vertex $-1 $201 $476 #
straight-curve $-1 -80.877343142323895 -10.434447257484319 11.300522138645668 1 0 0 I I #
coedge $-1 $331 $331 $-1 $477 reversed $204 $-1 #
edge $-1 $478 0 $478 6.2831853071796004 $205 $479 forward 7 unknown #
vertex $-1 $208 $480 #
ellipse-curve $-1 -60.516050951519304 -8.0707985380226219 8.3868723142884658 -0.78801076186113728 0 0.61566146476048833 0.30783073238024417 0 0.39400538093056864 1 I I #
coedge $-1 $335 $335 $-1 $481 reversed $211 $-1 #
edge $-1 $482 0 $482 6.2831853071796004 $212 $483 forward 7 unknown #
vertex $-1 $215 $484 #
ellipse-curve $-1 -60.516050951519304 -4.5253254588300749 8.3868723142884658 -0.78801076186113728 0 0.61566146476048833 0.30783073238024417 0 0.39400538093056864 1 I I #
face $-1 $-1 $485 $46 $-1 $486 reversed single #
loop $-1 $-1 $222 $216 #
plane-surface $-1 0 0 11.300522138645666 0 0 1 1 0 0 forward_v I I I I #
coedge $-1 $487 $488 $489 $490 reversed $217 $-1 #
coedge $-1 $491 $219 $221 $349 forward $136 $-1 #
coedge $-1 $219 $491 $487 $492 forward $136 $-1 #
coedge $-1 $489 $222 $219 $346 forward $340 $-1 #
edge $-1 $352 -0.85624549617878909 $493 7.4165250219371526 $345 $494 forward 7 unknown #
coedge $-1 $495 $496 $220 $348 forward $485 $-1 #
edge $-1 $497 -35.922276568200068 $351 -30.09497691948566 $347 $498 forward 7 unknown #
edge $-1 $352 -7.394949321442466 $497 3.482033219266165e-014 $221 $499 forward 7 unknown #
coedge $-1 $222 $489 $495 $500 forward $340 $-1 #
vertex $-1 $348 $501 #
vertex $-1 $223 $502 #
straight-curve $-1 -80.877343142323895 2.4238942667003931 11.300522138645668 1 0 0 I I #
coedge $-1 $354 $354 $-1 $503 reversed $226 $-1 #
edge $-1 $504 0 $504 6.2831853071796004 $227 $505 forward 7 unknown #
vertex $-1 $230 $506 #
ellipse-curve $-1 -60.516050951519304 4.7875429861620908 8.3868723142884658 -0.78801076186113728 0 0.61566146476048833 0.30783073238024417 0 0.39400538093056864 1 I I #
coedge $-1 $358 $358 $-1 $507 reversed $233 $-1 #
edge $-1 $508 0 $508 6.2831853071796004 $234 $509 forward 7 unknown #
vertex $-1 $237 $510 #
ellipse-curve $-1 -60.516050951519304 8.3330160653546379 8.3868723142884658 -0.78801076186113728 0 0.61566146476048833 0.30783073238024417 0 0.39400538093056864 1 I I #
face $-1 $-1 $511 $49 $-1 $512 reversed single #
loop $-1 $-1 $244 $238 #
plane-surface $-1 0 0 11.300522138645666 0 0 1 1 0 0 forward_v I I I I #
coedge $-1 $513 $514 $515 $516 reversed $239 $-1 #
coedge $-1 $517 $241 $243 $372 forward $150 $-1 #
coedge $-1 $241 $517 $513 $518 forward $150 $-1 #
coedge $-1 $515 $244 $241 $369 forward $363 $-1 #
edge $-1 $375 5.5729252659135664 $519 13.845695784029507 $368 $520 forward 7 unknown #
coedge $-1 $521 $522 $242 $371 forward $511 $-1 #
edge $-1 $523 -35.922276568200068 $374 -30.09497691948566 $370 $524 forward 7 unknown #
edge $-1 $375 -7.394949321442466 $523 3.482033219266165e-014 $243 $525 forward 7 unknown #
coedge $-1 $244 $515 $521 $526 forward $363 $-1 #
vertex $-1 $245 $527 #
vertex $-1 $245 $528 #
straight-curve $-1 -80.877343142323895 15.282235790885103 11.300522138645668 1 0 0 I I #
coedge $-1 $377 $377 $-1 $529 reversed $248 $-1 #
edge $-1 $530 0 $530 6.2831853071796004 $249 $531 forward 7 unknown #
vertex $-1 $252 $532 #
ellipse-curve $-1 -60.516050951519304 17.6458845103468 8.3868723142884658 -0.78801076186113728 0 0.61566146476048833 0.30783073238024417 0 0.39400538093056864 1 I I #
coedge $-1 $381 $381 $-1 $533 reversed $255 $-1 #
edge $-1 $534 0 $534 6.2831853071796004 $256 $535 forward 7 unknown #
vertex $-1 $259 $536 #
ellipse-curve $-1 -60.516050951519304 21.191357589539347 8.3868723142884658 -0.78801076186113728 0 0.61566146476048833 0.30783073238024417 0 0.39400538093056864 1 I I #
face $-1 $-1 $275 $39 $-1 $537 reversed single #
loop $-1 $-1 $401 $260 #
plane-surface $-1 0 25.909763906502736 0 0 -1 0 0 0 -1 forward_v I I I I #
coedge $-1 $538 $399 $402 $539 forward $261 $-1 #
coedge $-1 $405 $263 $264 $393 reversed $164 $-1 #
coedge $-1 $399 $538 $263 $391 reversed $261 $-1 #
edge $-1 $406 -11.300522138645666 $540 11.300522138645666 $390 $541 forward 7 unknown #
coedge $-1 $265 $264 $538 $542 forward $105 $-1 #
edge $-1 $397 -62.792443617053742 $540 62.792443617053742 $389 $543 forward 7 unknown #
coedge $-1 $402 $401 $265 $395 reversed $386 $-1 #
edge $-1 $544 -62.792443617053742 $396 62.792443617053742 $394 $545 forward 7 unknown #
vertex $-1 $267 $546 #
vertex $-1 $408 $547 #
straight-curve $-1 62.792443617053742 0 -11.300522138645666 0 -1 0 I I #
coedge $-1 $388 $390 $268 $400 reversed $261 $-1 #
edge $-1 $403 -25.909763906502736 $406 25.909763906502736 $399 $548 forward 7 unknown #
coedge $-1 $394 $269 $274 $409 forward $386 $-1 #
coedge $-1 $269 $394 $388 $539 reversed $386 $-1 #
vertex $-1 $270 $549 #
straight-curve $-1 0 25.909763906502736 11.300522138645666 -1 0 0 I I #
coedge $-1 $271 $389 $273 $408 reversed $164 $-1 #
vertex $-1 $400 $550 #
straight-curve $-1 0 -25.909763906502736 11.300522138645666 1 0 0 I I #
edge $-1 $276 -11.300522138645666 $397 11.300522138645666 $273 $551 forward 7 unknown #
edge $-1 $277 -11.300522138645666 $396 11.300522138645666 $274 $552 forward 7 unknown #
point $-1 62.792443617053742 -25.909763906502736 11.300522138645666 #
point $-1 62.792443617053742 25.909763906502736 11.300522138645666 #
face $-1 $-1 $553 $40 $-1 $554 reversed single #
loop $-1 $-1 $555 $279 #
plane-surface $-1 0 0 -11.300522138645666 0 0 1 1 0 0 forward_v I I I I #
coedge $-1 $422 $432 $417 $556 forward $280 $-1 #
coedge $-1 $285 $282 $555 $557 reversed $172 $-1 #
coedge $-1 $282 $285 $415 $556 reversed $172 $-1 #
coedge $-1 $558 $559 $282 $419 forward $553 $-1 #
edge $-1 $560 -11.300522138645666 $561 11.300522138645666 $418 $562 forward 7 unknown #
coedge $-1 $555 $288 $283 $421 forward $413 $-1 #
edge $-1 $293 -25.724164572872233 $425 -19.988408968249551 $420 $563 forward 7 unknown #
coedge $-1 $290 $415 $284 $423 forward $280 $-1 #
edge $-1 $424 19.988408968249551 $292 25.724164572872233 $422 $564 forward 7 unknown #
vertex $-1 $423 $565 #
vertex $-1 $421 $566 #
straight-curve $-1 -42.844695738810444 -12.789204854986014 0 0 0 -1 I I #
coedge $-1 $559 $558 $287 $428 forward $553 $-1 #
edge $-1 $433 -11.300522138645666 $430 11.300522138645666 $427 $567 forward 7 unknown #
coedge $-1 $288 $555 $559 $568 forward $413 $-1 #
vertex $-1 $289 $569 #
straight-curve $-1 -48.580451343433126 -9.6747421903721875 -11.300522138645666 0 1 0 I I #
coedge $-1 $415 $290 $558 $570 forward $280 $-1 #
vertex $-1 $570 $571 #
straight-curve $-1 -48.580451343433126 -9.6747421903721875 11.300522138645666 0 -1 0 I I #
point $-1 -48.580451343433126 -12.789204854986014 11.300522138645666 #
point $-1 -48.580451343433126 -12.789204854986014 -11.300522138645666 #
plane-surface $-1 0 0 11.300522138645666 0 0 1 1 0 0 forward_v I I I I #
coedge $-1 $448 $447 $440 $572 forward $296 $-1 #
coedge $-1 $440 $298 $300 $444 reversed $180 $-1 #
coedge $-1 $298 $439 $438 $572 reversed $180 $-1 #
coedge $-1 $306 $301 $298 $442 forward $307 $-1 #
edge $-1 $445 12.816366520592041 $573 20.573988287895538 $441 $574 forward 7 unknown #
coedge $-1 $300 $299 $448 $575 reversed $113 $-1 #
edge $-1 $576 -125.58488723410751 $445 -112.98442056315635 $439 $577 forward 7 unknown #
vertex $-1 $302 $578 #
straight-curve $-1 55.034821849750244 10.040163668269356 11.300522138645661 0 -1 0 I I #
coedge $-1 $438 $303 $306 $452 reversed $296 $-1 #
coedge $-1 $303 $438 $443 $575 forward $296 $-1 #
vertex $-1 $304 $579 #
straight-curve $-1 62.792443617053742 23.703664339565361 88.825618545694496 0 0 1 I I #
straight-curve $-1 -14.525332009277633 23.703664339565361 100.33346146505764 0.61566146476048833 0 -0.78801076186113728 I I #
edge $-1 $573 16.456990333512064 $308 23.703664339565361 $447 $580 forward 7 unknown #
point $-1 62.792443617053742 23.703664339565361 11.300522138645666 #
point $-1 55.034821849750244 23.703664339565361 11.300522138645661 #
edge $-1 $581 1 $581 0 $311 $-1 forward 7 unknown #
vertex $-1 $312 $582 #
ellipse-curve $-1 56.149017688935523 20.080327336538712 4.1759165306805528 0.78801076186113728 0 0.61566146476048833 0.61566146476048833 0 -0.78801076186113728 1 I I #
point $-1 59.529294198162475 20.080327336538712 5.5478597061934867 #
plane-surface $-1 0 0 11.300522138645666 0 0 1 1 0 0 forward_v I I I I #
coedge $-1 $470 $469 $462 $583 forward $316 $-1 #
coedge $-1 $462 $318 $320 $466 reversed $195 $-1 #
coedge $-1 $318 $461 $460 $583 reversed $195 $-1 #
coedge $-1 $326 $321 $318 $464 forward $327 $-1 #
edge $-1 $467 -22.637684856339021 $584 -18.084899525270153 $463 $585 forward 7 unknown #
coedge $-1 $320 $319 $470 $586 reversed $122 $-1 #
edge $-1 $587 -3.482033219266165e-014 $467 7.394949321442466 $461 $588 forward 7 unknown #
vertex $-1 $322 $589 #
straight-curve $-1 -58.239658285984873 -3.1490309992131742 11.300522138645668 0 1 0 I I #
coedge $-1 $460 $323 $326 $474 reversed $316 $-1 #
coedge $-1 $323 $460 $465 $586 forward $316 $-1 #
vertex $-1 $324 $590 #
straight-curve $-1 -62.792443617053742 -10.434447257484319 41.395499058131328 0 0 1 I I #
straight-curve $-1 -62.792443617053721 -10.434447257484319 5.4732224899312882 -0.61566146476048833 0 -0.78801076186113728 I I #
edge $-1 $584 2.1616767393683771 $328 10.434447257484319 $469 $591 forward 7 unknown #
point $-1 -62.792443617053742 -10.434447257484319 11.300522138645666 #
point $-1 -58.239658285984873 -10.434447257484319 11.300522138645666 #
edge $-1 $592 1 $592 0 $331 $-1 forward 7 unknown #
vertex $-1 $332 $593 #
ellipse-curve $-1 -59.569581895951004 -8.0707985380226219 7.6474096656751209 -0.78801076186113728 0 0.61566146476048833 0.30783073238024417 0 0.39400538093056864 1 I I #
point $-1 -60.208220219139072 -8.0707985380226219 8.7808776952190435 #
edge $-1 $594 1 $594 0 $335 $-1 forward 7 unknown #
vertex $-1 $336 $595 #
ellipse-curve $-1 -59.569581895951004 -4.5253254588300749 7.6474096656751209 -0.78801076186113728 0 0.61566146476048833 0.30783073238024417 0 0.39400538093056864 1 I I #
point $-1 -60.208220219139072 -4.5253254588300749 8.7808776952190435 #
loop $-1 $-1 $347 $339 #
plane-surface $-1 -62.792443617053742 0 0 1 0 0 0 0 -1 forward_v I I I I #
coedge $-1 $488 $342 $344 $492 reversed $217 $-1 #
coedge $-1 $342 $487 $596 $597 reversed $217 $-1 #
coedge $-1 $350 $345 $342 $490 forward $340 $-1 #
edge $-1 $493 -22.637684856339021 $598 -18.084899525270153 $489 $599 forward 7 unknown #
coedge $-1 $344 $343 $496 $600 reversed $136 $-1 #
edge $-1 $601 -3.482033219266165e-014 $493 7.394949321442466 $487 $602 forward 7 unknown #
vertex $-1 $346 $603 #
straight-curve $-1 -58.239658285984873 3.2801397628791822 11.300522138645668 0 1 0 I I #
coedge $-1 $596 $347 $350 $500 reversed $485 $-1 #
coedge $-1 $347 $596 $491 $600 forward $485 $-1 #
vertex $-1 $348 $604 #
straight-curve $-1 -62.792443617053742 2.4238942667003931 41.395499058131328 0 0 1 I I #
straight-curve $-1 -62.792443617053721 2.4238942667003931 5.4732224899312882 -0.61566146476048833 0 -0.78801076186113728 I I #
edge $-1 $598 -10.696664784816335 $351 -2.4238942667003931 $495 $605 forward 7 unknown #
point $-1 -62.792443617053742 2.4238942667003931 11.300522138645666 #
point $-1 -58.239658285984873 2.4238942667003931 11.300522138645666 #
edge $-1 $606 1 $606 0 $354 $-1 forward 7 unknown #
vertex $-1 $355 $607 #
ellipse-curve $-1 -59.569581895951004 4.7875429861620908 7.6474096656751209 -0.78801076186113728 0 0.61566146476048833 0.30783073238024417 0 0.39400538093056864 1 I I #
point $-1 -60.208220219139072 4.7875429861620908 8.7808776952190435 #
edge $-1 $608 1 $608 0 $358 $-1 forward 7 unknown #
vertex $-1 $359 $609 #
ellipse-curve $-1 -59.569581895951004 8.3330160653546379 7.6474096656751209 -0.78801076186113728 0 0.61566146476048833 0.30783073238024417 0 0.39400538093056864 1 I I #
point $-1 -60.208220219139072 8.3330160653546379 8.7808776952190435 #
loop $-1 $-1 $370 $362 #
plane-surface $-1 -62.792443617053742 0 0 1 0 0 0 0 -1 forward_v I I I I #
coedge $-1 $514 $365 $367 $518 reversed $239 $-1 #
coedge $-1 $365 $513 $610 $611 reversed $239 $-1 #
coedge $-1 $373 $368 $365 $516 forward $363 $-1 #
edge $-1 $519 -22.637684856339021 $612 -18.084899525270153 $515 $613 forward 7 unknown #
coedge $-1 $367 $366 $522 $614 reversed $150 $-1 #
edge $-1 $615 -3.482033219266165e-014 $519 7.394949321442466 $513 $616 forward 7 unknown #
vertex $-1 $369 $617 #
straight-curve $-1 -58.239658285984873 9.7093105249715368 11.300522138645668 0 1 0 I I #
coedge $-1 $610 $370 $373 $526 reversed $511 $-1 #
coedge $-1 $370 $610 $517 $614 forward $511 $-1 #
vertex $-1 $371 $618 #
straight-curve $-1 -62.792443617053742 15.282235790885103 41.395499058131328 0 0 1 I I #
straight-curve $-1 -62.792443617053721 15.282235790885103 5.4732224899312882 -0.61566146476048833 0 -0.78801076186113728 I I #
edge $-1 $612 -23.555006309001044 $374 -15.282235790885103 $521 $619 forward 7 unknown #
point $-1 -62.792443617053742 15.282235790885103 11.300522138645666 #
point $-1 -58.239658285984873 15.282235790885103 11.300522138645666 #
edge $-1 $620 1 $620 0 $377 $-1 forward 7 unknown #
vertex $-1 $378 $621 #
ellipse-curve $-1 -59.569581895951004 17.6458845103468 7.6474096656751209 -0.78801076186113728 0 0.61566146476048833 0.30783073238024417 0 0.39400538093056864 1 I I #
point $-1 -60.208220219139072 17.6458845103468 8.7808776952190435 #
edge $-1 $622 1 $622 0 $381 $-1 forward 7 unknown #
vertex $-1 $382 $623 #
ellipse-curve $-1 -59.569581895951004 21.191357589539347 7.6474096656751209 -0.78801076186113728 0 0.61566146476048833 0.30783073238024417 0 0.39400538093056864 1 I I #
point $-1 -60.208220219139072 21.191357589539347 8.7808776952190435 #
plane-surface $-1 62.792443617053742 0 0 -1 0 0 0 0 1 forward_v I I I I #
coedge $-1 $390 $388 $392 $542 reversed $261 $-1 #
edge $-1 $403 -11.300522138645666 $544 11.300522138645666 $402 $624 forward 7 unknown #
vertex $-1 $542 $625 #
straight-curve $-1 -62.792443617053742 -25.909763906502736 0 0 0 -1 I I #
edge $-1 $540 -25.909763906502736 $544 25.909763906502736 $538 $626 forward 7 unknown #
straight-curve $-1 0 -25.909763906502736 -11.300522138645666 -1 0 0 I I #
vertex $-1 $395 $627 #
straight-curve $-1 0 25.909763906502736 -11.300522138645666 1 0 0 I I #
point $-1 62.792443617053742 25.909763906502736 -11.300522138645666 #
point $-1 62.792443617053742 -25.909763906502736 -11.300522138645666 #
straight-curve $-1 -62.792443617053742 0 11.300522138645666 0 -1 0 I I #
point $-1 -62.792443617053742 25.909763906502736 11.300522138645666 #
point $-1 -62.792443617053742 -25.909763906502736 11.300522138645666 #
straight-curve $-1 62.792443617053742 -25.909763906502736 0 0 0 -1 I I #
straight-curve $-1 62.792443617053742 25.909763906502736 0 0 0 -1 I I #
loop $-1 $-1 $418 $412 #
plane-surface $-1 0 -25.909763906502736 0 0 1 0 0 0 1 forward_v I I I I #
coedge $-1 $429 $420 $416 $557 forward $413 $-1 #
edge $-1 $561 -16.235021716130547 $424 -3.1144626646138267 $415 $628 forward 7 unknown #
edge $-1 $425 3.1144626646138267 $560 16.235021716130547 $555 $629 forward 7 unknown #
coedge $-1 $427 $418 $432 $570 reversed $553 $-1 #
coedge $-1 $418 $427 $429 $568 reversed $553 $-1 #
vertex $-1 $568 $630 #
vertex $-1 $419 $631 #
straight-curve $-1 -42.844695738810444 -25.909763906502736 0 0 0 1 I I #
straight-curve $-1 -22.856286770560892 -12.789204854986014 -11.300522138645666 1 0 0 I I #
straight-curve $-1 -22.856286770560892 -12.789204854986014 11.300522138645666 -1 0 0 I I #
point $-1 -42.844695738810444 -12.789204854986014 11.300522138645666 #
point $-1 -42.844695738810444 -12.789204854986014 -11.300522138645666 #
straight-curve $-1 -48.580451343433126 -25.909763906502736 0 0 0 -1 I I #
edge $-1 $560 42.844695738810444 $430 48.580451343433126 $559 $632 forward 7 unknown #
point $-1 -48.580451343433126 -25.909763906502736 -11.300522138645666 #
edge $-1 $433 -48.580451343433126 $561 -42.844695738810444 $558 $633 forward 7 unknown #
point $-1 -48.580451343433126 -25.909763906502736 11.300522138645666 #
edge $-1 $573 77.525096407048835 $576 87.454399748230927 $438 $634 forward 7 unknown #
vertex $-1 $452 $635 #
straight-curve $-1 42.218455329158203 16.456990333512064 11.300522138645661 1 0 0 I I #
edge $-1 $576 6.4168266652427075 $449 13.663500671296005 $448 $636 forward 7 unknown #
vertex $-1 $575 $637 #
straight-curve $-1 -14.525332009277633 16.456990333512064 100.33346146505764 -0.61566146476048833 0 0.78801076186113728 I I #
point $-1 55.034821849750244 16.456990333512064 11.300522138645661 #
point $-1 62.792443617053749 23.703664339565361 1.3712187974635697 #
straight-curve $-1 62.792443617053742 0 11.300522138645666 0 1 0 I I #
vertex $-1 $455 $638 #
point $-1 56.764679153696015 20.080327336538712 3.3879057688194152 #
edge $-1 $584 30.09497691948566 $587 35.922276568200068 $460 $639 forward 7 unknown #
vertex $-1 $474 $640 #
straight-curve $-1 -80.877343142323895 -2.1616767393683771 11.300522138645668 -1 0 0 I I #
edge $-1 $587 -0.98735425984479708 $471 7.2854162582711446 $470 $641 forward 7 unknown #
vertex $-1 $586 $642 #
straight-curve $-1 -62.792443617053721 -2.1616767393683771 5.4732224899312882 0.61566146476048833 0 0.78801076186113728 I I #
point $-1 -58.239658285984873 -2.1616767393683771 11.300522138645666 #
point $-1 -62.792443617053742 -10.434447257484319 5.4732224899312607 #
straight-curve $-1 -62.792443617053742 0 11.300522138645666 0 -1 0 I I #
vertex $-1 $477 $643 #
point $-1 -59.261751163570764 -8.0707985380226219 8.0414150466056888 #
vertex $-1 $481 $644 #
point $-1 -59.261751163570764 -4.5253254588300749 8.0414150466056888 #
coedge $-1 $496 $495 $488 $597 forward $485 $-1 #
edge $-1 $598 30.09497691948566 $601 35.922276568200068 $596 $645 forward 7 unknown #
vertex $-1 $500 $646 #
straight-curve $-1 -80.877343142323895 10.696664784816335 11.300522138645668 -1 0 0 I I #
edge $-1 $601 -7.4165250219371526 $497 0.85624549617878909 $496 $647 forward 7 unknown #
vertex $-1 $600 $648 #
straight-curve $-1 -62.792443617053721 10.696664784816335 5.4732224899312882 0.61566146476048833 0 0.78801076186113728 I I #
point $-1 -58.239658285984873 10.696664784816335 11.300522138645666 #
point $-1 -62.792443617053742 2.4238942667003931 5.4732224899312607 #
straight-curve $-1 -62.792443617053742 0 11.300522138645666 0 -1 0 I I #
vertex $-1 $503 $649 #
point $-1 -59.261751163570764 4.7875429861620908 8.0414150466056888 #
vertex $-1 $507 $650 #
point $-1 -59.261751163570764 8.3330160653546379 8.0414150466056888 #
coedge $-1 $522 $521 $514 $611 forward $511 $-1 #
edge $-1 $612 30.09497691948566 $615 35.922276568200068 $610 $651 forward 7 unknown #
vertex $-1 $526 $652 #
straight-curve $-1 -80.877343142323895 23.555006309001044 11.300522138645668 -1 0 0 I I #
edge $-1 $615 -13.845695784029507 $523 -5.5729252659135664 $522 $653 forward 7 unknown #
vertex $-1 $614 $654 #
straight-curve $-1 -62.792443617053721 23.555006309001044 5.4732224899312882 0.61566146476048833 0 0.78801076186113728 I I #
point $-1 -58.239658285984873 23.555006309001044 11.300522138645666 #
point $-1 -62.792443617053742 15.282235790885103 5.4732224899312607 #
straight-curve $-1 -62.792443617053742 0 11.300522138645666 0 -1 0 I I #
vertex $-1 $529 $655 #
point $-1 -59.261751163570764 17.6458845103468 8.0414150466056888 #
vertex $-1 $533 $656 #
point $-1 -59.261751163570764 21.191357589539347 8.0414150466056888 #
straight-curve $-1 -62.792443617053742 25.909763906502736 0 0 0 -1 I I #
point $-1 -62.792443617053742 -25.909763906502736 -11.300522138645666 #
straight-curve $-1 -62.792443617053742 0 -11.300522138645666 0 1 0 I I #
point $-1 -62.792443617053742 25.909763906502736 -11.300522138645666 #
straight-curve $-1 -42.844695738810444 -9.6747421903721875 11.300522138645666 0 1 0 I I #
straight-curve $-1 -42.844695738810444 -9.6747421903721875 -11.300522138645666 0 -1 0 I I #
point $-1 -42.844695738810444 -25.909763906502736 -11.300522138645666 #
point $-1 -42.844695738810444 -25.909763906502736 11.300522138645666 #
straight-curve $-1 0 -25.909763906502736 -11.300522138645666 -1 0 0 I I #
straight-curve $-1 0 -25.909763906502736 11.300522138645666 1 0 0 I I #
straight-curve $-1 62.792443617053742 16.456990333512064 88.825618545694496 0 0 -1 I I #
point $-1 62.792443617053742 16.456990333512064 11.300522138645666 #
straight-curve $-1 62.792443617053742 10.040163668269356 1.3712187974635697 0 1 0 I I #
point $-1 62.792443617053749 16.456990333512064 1.3712187974635697 #
point $-1 55.361006927074392 20.080327336538712 3.5602550659200642 #
straight-curve $-1 -62.792443617053742 -2.1616767393683771 41.395499058131328 0 0 -1 I I #
point $-1 -62.792443617053742 -2.1616767393683771 11.300522138645666 #
straight-curve $-1 -62.792443617053742 -3.1490309992131742 5.4732224899312651 0 -1 0 I I #
point $-1 -62.792443617053742 -2.1616767393683771 5.4732224899312607 #
point $-1 -59.175576515020438 -8.0707985380226219 7.3395789332948764 #
point $-1 -59.175576515020438 -4.5253254588300749 7.3395789332948764 #
straight-curve $-1 -62.792443617053742 10.696664784816335 41.395499058131328 0 0 -1 I I #
point $-1 -62.792443617053742 10.696664784816335 11.300522138645666 #
straight-curve $-1 -62.792443617053742 3.2801397628791822 5.4732224899312651 0 -1 0 I I #
point $-1 -62.792443617053742 10.696664784816335 5.4732224899312607 #
point $-1 -59.175576515020438 4.7875429861620908 7.3395789332948764 #
point $-1 -59.175576515020438 8.3330160653546379 7.3395789332948764 #
straight-curve $-1 -62.792443617053742 23.555006309001044 41.395499058131328 0 0 -1 I I #
point $-1 -62.792443617053742 23.555006309001044 11.300522138645666 #
straight-curve $-1 -62.792443617053742 9.7093105249715368 5.4732224899312651 0 -1 0 I I #
point $-1 -62.792443617053742 23.555006309001044 5.4732224899312607 #
point $-1 -59.175576515020438 17.6458845103468 7.3395789332948764 #
point $-1 -59.175576515020438 21.191357589539347 7.3395789332948764 #
End-of-ACIS-data 