500 0 17 0           
7 Unknown 11 ACIS 5.0 NT 24 Thu Mar 25 22:48:14 1999 
-1 9.9999999999999995e-007 1e-010 
body $-1 $17 $-1 $18 #
body $-1 $19 $-1 $20 #
body $-1 $21 $-1 $22 #
body $-1 $23 $-1 $24 #
body $-1 $25 $-1 $26 #
body $-1 $27 $-1 $28 #
body $-1 $29 $-1 $30 #
body $-1 $31 $-1 $32 #
body $-1 $33 $-1 $34 #
body $-1 $35 $-1 $36 #
body $-1 $37 $-1 $38 #
body $-1 $39 $-1 $40 #
body $-1 $41 $-1 $42 #
body $-1 $43 $-1 $44 #
body $-1 $45 $-1 $46 #
body $-1 $47 $-1 $48 #
body $-1 $49 $-1 $50 #
lump $-1 $-1 $51 $0 #
transform $-1 1 0 0 0 1 0 0 0 1 52.875148777733699 24.640429297959475 4.9542550828826757 1 rotate no_reflect no_shear #
lump $-1 $-1 $52 $1 #
transform $-1 1 0 0 0 1 0 0 0 1 52.875148777733699 24.640429297959475 4.9542550828826757 1 rotate no_reflect no_shear #
lump $-1 $-1 $53 $2 #
transform $-1 1 0 0 0 1 0 0 0 1 52.875148777733699 24.640429297959475 4.9542550828826757 1 rotate no_reflect no_shear #
lump $-1 $-1 $54 $3 #
transform $-1 1 0 0 0 1 0 0 0 1 52.875148777733699 24.640429297959475 4.9542550828826757 1 rotate no_reflect no_shear #
lump $-1 $-1 $55 $4 #
transform $-1 1 0 0 0 1 0 0 0 1 52.875148777733699 24.640429297959475 4.9542550828826757 1 rotate no_reflect no_shear #
lump $-1 $-1 $56 $5 #
transform $-1 1 0 0 0 1 0 0 0 1 52.875148777733699 24.640429297959475 4.9542550828826757 1 rotate no_reflect no_shear #
lump $-1 $-1 $57 $6 #
transform $-1 1 0 0 0 1 0 0 0 1 52.875148777733699 24.640429297959475 4.9542550828826757 1 rotate no_reflect no_shear #
lump $-1 $-1 $58 $7 #
transform $-1 1 0 0 0 1 0 0 0 1 52.875148777733699 24.640429297959475 4.9542550828826757 1 rotate no_reflect no_shear #
lump $-1 $-1 $59 $8 #
transform $-1 1 0 0 0 1 0 0 0 1 52.875148777733699 24.640429297959475 4.9542550828826757 1 rotate no_reflect no_shear #
lump $-1 $-1 $60 $9 #
transform $-1 1 0 0 0 1 0 0 0 1 52.875148777733699 24.640429297959475 4.9542550828826757 1 rotate no_reflect no_shear #
lump $-1 $-1 $61 $10 #
transform $-1 1 0 0 0 1 0 0 0 1 52.875148777733699 24.640429297959475 4.9542550828826757 1 rotate no_reflect no_shear #
lump $-1 $-1 $62 $11 #
transform $-1 1 0 0 0 1 0 0 0 1 52.875148777733699 24.640429297959475 4.9542550828826757 1 rotate no_reflect no_shear #
lump $-1 $-1 $63 $12 #
transform $-1 1 0 0 0 1 0 0 0 1 52.875148777733699 24.640429297959475 4.9542550828826757 1 rotate no_reflect no_shear #
lump $-1 $-1 $64 $13 #
transform $-1 1 0 0 0 1 0 0 0 1 52.875148777733699 24.640429297959475 4.9542550828826757 1 rotate no_reflect no_shear #
lump $-1 $-1 $65 $14 #
transform $-1 1 0 0 0 1 0 0 0 1 52.875148777733699 24.640429297959475 4.9542550828826757 1 rotate no_reflect no_shear #
lump $-1 $-1 $66 $15 #
transform $-1 1 0 0 0 1 0 0 0 1 52.875148777733699 24.640429297959475 4.9542550828826757 1 rotate no_reflect no_shear #
lump $-1 $-1 $67 $16 #
transform $-1 1 0 0 0 1 0 0 0 1 52.875148777733699 24.640429297959475 4.9542550828826757 1 rotate no_reflect no_shear #
shell $-1 $-1 $-1 $68 $-1 $17 #
shell $-1 $-1 $-1 $69 $-1 $19 #
shell $-1 $-1 $-1 $70 $-1 $21 #
shell $-1 $-1 $-1 $71 $-1 $23 #
shell $-1 $-1 $-1 $72 $-1 $25 #
shell $-1 $-1 $-1 $73 $-1 $27 #
shell $-1 $-1 $-1 $74 $-1 $29 #
shell $-1 $-1 $-1 $75 $-1 $31 #
shell $-1 $-1 $-1 $76 $-1 $33 #
shell $-1 $-1 $-1 $77 $-1 $35 #
shell $-1 $-1 $-1 $78 $-1 $37 #
shell $-1 $-1 $-1 $79 $-1 $39 #
shell $-1 $-1 $-1 $80 $-1 $41 #
shell $-1 $-1 $-1 $81 $-1 $43 #
shell $-1 $-1 $-1 $82 $-1 $45 #
shell $-1 $-1 $-1 $83 $-1 $47 #
shell $-1 $-1 $-1 $84 $-1 $49 #
face $-1 $85 $86 $51 $-1 $87 forward single #
face $-1 $88 $89 $52 $-1 $90 forward single #
face $-1 $91 $92 $53 $-1 $93 reversed single #
face $-1 $94 $95 $54 $-1 $96 forward single #
face $-1 $97 $98 $55 $-1 $99 forward single #
face $-1 $100 $101 $56 $-1 $102 reversed single #
face $-1 $103 $104 $57 $-1 $105 forward single #
face $-1 $106 $107 $58 $-1 $108 forward single #
face $-1 $109 $110 $59 $-1 $111 reversed single #
face $-1 $112 $113 $60 $-1 $114 forward single #
face $-1 $115 $116 $61 $-1 $117 forward single #
face $-1 $118 $119 $62 $-1 $120 reversed single #
face $-1 $121 $122 $63 $-1 $123 forward single #
face $-1 $124 $125 $64 $-1 $126 forward single #
face $-1 $127 $128 $65 $-1 $129 reversed single #
face $-1 $130 $131 $66 $-1 $132 forward single #
face $-1 $133 $134 $67 $-1 $135 forward single #
face $-1 $136 $137 $51 $-1 $138 reversed single #
loop $-1 $-1 $139 $68 #
plane-surface $-1 0 0 4.9542550828826757 0 0 1 1 0 0 forward_v I I I I #
face $-1 $140 $141 $52 $-1 $142 reversed single #
loop $-1 $-1 $143 $69 #
plane-surface $-1 0 -22.329649636541891 -1.9542550828826757 0 0 1 1 0 0 forward_v I I I I #
face $-1 $144 $145 $53 $-1 $146 reversed single #
loop $-1 $-1 $147 $70 #
plane-surface $-1 -136.20752132145952 2.8711883814049024 66.179741309778208 0 1 0 -0.78801076186113728 0 0.61566146476048833 forward_v I I I I #
face $-1 $148 $149 $54 $-1 $150 forward single #
loop $-1 $151 $152 $71 #
cone-surface $-1 -50.919363947410432 6.5032893890076409 2.6702438036810316 0.78801076186113728 0 -0.61566146476048833 0.30783073238024417 0 0.39400538093056864 1 I I 0 1 0.5 forward I I I I #
face $-1 $153 $154 $55 $-1 $155 forward single #
loop $-1 $156 $157 $72 #
cone-surface $-1 -50.919363947410432 11.95144090041175 2.6702438036810316 0.78801076186113728 0 -0.61566146476048833 0.30783073238024417 0 0.39400538093056864 1 I I 0 1 0.5 forward I I I I #
face $-1 $158 $159 $56 $-1 $160 reversed single #
loop $-1 $-1 $161 $73 #
plane-surface $-1 52.875150512935946 -11.816142697857746 151.10440835064364 0 -1 0 -0.70710678939079041 0 -0.70710677298230451 forward_v I I I I #
face $-1 $162 $163 $57 $-1 $164 forward single #
loop $-1 $165 $166 $74 #
cone-surface $-1 50.819919542440182 -16.246032423979024 2.8990258163058433 -0.70710678939079041 0 -0.70710677298230451 0.35355338649115226 0 -0.35355339469539521 1 I I 0 1 0.5 forward I I I I #
face $-1 $167 $168 $58 $-1 $169 forward single #
loop $-1 $170 $171 $75 #
cone-surface $-1 50.819919542440182 -13.588098588306257 2.8990258163058433 -0.70710678939079041 0 -0.70710677298230451 0.35355338649115226 0 -0.35355339469539521 1 I I 0 1 0.5 forward I I I I #
face $-1 $172 $173 $59 $-1 $174 reversed single #
loop $-1 $-1 $175 $76 #
plane-surface $-1 52.875150512935946 -0.65131787958679821 151.10440835064364 0 -1 0 -0.70710678939079041 0 -0.70710677298230451 forward_v I I I I #
face $-1 $176 $177 $60 $-1 $178 forward single #
loop $-1 $179 $180 $77 #
cone-surface $-1 50.819919542440182 -5.0812076057080802 2.8990258163058433 -0.70710678939079041 0 -0.70710677298230451 0.35355338649115226 0 -0.35355339469539521 1 I I 0 1 0.5 forward I I I I #
face $-1 $181 $182 $61 $-1 $183 forward single #
loop $-1 $184 $185 $78 #
cone-surface $-1 50.819919542440182 -2.423273770035312 2.8990258163058433 -0.70710678939079041 0 -0.70710677298230451 0.35355338649115226 0 -0.35355339469539521 1 I I 0 1 0.5 forward I I I I #
face $-1 $186 $187 $62 $-1 $188 reversed single #
loop $-1 $-1 $189 $79 #
plane-surface $-1 52.875150512935946 10.513506938684145 151.10440835064364 0 -1 0 -0.70710678939079041 0 -0.70710677298230451 forward_v I I I I #
face $-1 $190 $191 $63 $-1 $192 forward single #
loop $-1 $193 $194 $80 #
cone-surface $-1 50.819919542440182 6.0836172125628671 2.8990258163058433 -0.70710678939079041 0 -0.70710677298230451 0.35355338649115226 0 -0.35355339469539521 1 I I 0 1 0.5 forward I I I I #
face $-1 $195 $196 $64 $-1 $197 forward single #
loop $-1 $198 $199 $81 #
cone-surface $-1 50.819919542440182 8.7415510482356318 2.8990258163058433 -0.70710678939079041 0 -0.70710677298230451 0.35355338649115226 0 -0.35355339469539521 1 I I 0 1 0.5 forward I I I I #
face $-1 $200 $201 $65 $-1 $202 reversed single #
loop $-1 $-1 $203 $82 #
plane-surface $-1 52.875150512935946 21.678331756955089 151.10440835064364 0 -1 0 -0.70710678939079041 0 -0.70710677298230451 forward_v I I I I #
face $-1 $204 $205 $66 $-1 $206 forward single #
loop $-1 $207 $208 $83 #
cone-surface $-1 50.819919542440182 17.248442030833811 2.8990258163058433 -0.70710678939079041 0 -0.70710677298230451 0.35355338649115226 0 -0.35355339469539521 1 I I 0 1 0.5 forward I I I I #
face $-1 $209 $210 $67 $-1 $211 forward single #
loop $-1 $212 $213 $84 #
cone-surface $-1 50.819919542440182 19.906375866506576 2.8990258163058433 -0.70710678939079041 0 -0.70710677298230451 0.35355338649115226 0 -0.35355339469539521 1 I I 0 1 0.5 forward I I I I #
face $-1 $214 $215 $51 $-1 $216 reversed single #
loop $-1 $-1 $217 $85 #
plane-surface $-1 0 0 -4.9542550828826757 0 0 1 1 0 0 forward_v I I I I #
coedge $-1 $218 $219 $220 $221 forward $86 $-1 #
face $-1 $222 $223 $52 $-1 $224 reversed single #
loop $-1 $-1 $225 $88 #
plane-surface $-1 0 -20.018869975124307 -3.4542550828826757 0 -1 0 0 0 -1 forward_v I I I I #
coedge $-1 $226 $227 $228 $229 reversed $89 $-1 #
face $-1 $230 $231 $53 $-1 $232 reversed single #
loop $-1 $-1 $233 $91 #
plane-surface $-1 -52.875148777733699 9.2273651447096903 1.0733582179216654 -0.78801076186113728 0 0.61566146476048833 0.61566146476048833 0 0.78801076186113728 forward_v I I I I #
coedge $-1 $234 $235 $236 $237 reversed $92 $-1 #
face $-1 $-1 $238 $54 $-1 $239 forward single #
loop $-1 $240 $241 $94 #
cone-surface $-1 -50.282620853999461 6.5032893890076409 2.1727655907697656 0.78801076186113728 0 -0.61566146476048833 0.15391536619012208 0 0.19700269046528432 1 I I -0.70710678118654746 0.70710678118654746 0.25 forward I I I I #
loop $-1 $-1 $242 $71 #
coedge $-1 $152 $152 $243 $244 reversed $95 $-1 #
face $-1 $-1 $245 $55 $-1 $246 forward single #
loop $-1 $247 $248 $97 #
cone-surface $-1 -50.282620853999461 11.95144090041175 2.1727655907697656 0.78801076186113728 0 -0.61566146476048833 0.15391536619012208 0 0.19700269046528432 1 I I -0.70710678118654746 0.70710678118654746 0.25 forward I I I I #
loop $-1 $-1 $249 $72 #
coedge $-1 $157 $157 $250 $251 reversed $98 $-1 #
face $-1 $252 $253 $56 $-1 $254 reversed single #
loop $-1 $-1 $255 $100 #
plane-surface $-1 -21.901602868631358 -14.917065506142642 76.327656704278596 0.70710678939079041 0 0.70710677298230451 0.70710677298230451 0 -0.70710678939079041 forward_v I I I I #
coedge $-1 $256 $257 $258 $259 reversed $101 $-1 #
face $-1 $-1 $260 $57 $-1 $261 forward single #
loop $-1 $262 $263 $103 #
cone-surface $-1 50.289589450397088 -16.246032423979024 2.3686957365691148 -0.70710678939079041 0 -0.70710677298230451 0.17677669324557613 0 -0.1767766973476976 1 I I -0.70710678118654746 0.70710678118654746 0.25 forward I I I I #
loop $-1 $-1 $264 $74 #
coedge $-1 $166 $166 $265 $266 reversed $104 $-1 #
face $-1 $-1 $267 $58 $-1 $268 forward single #
loop $-1 $269 $270 $106 #
cone-surface $-1 50.289589450397088 -13.588098588306257 2.3686957365691148 -0.70710678939079041 0 -0.70710677298230451 0.17677669324557613 0 -0.1767766973476976 1 I I -0.70710678118654746 0.70710678118654746 0.25 forward I I I I #
loop $-1 $-1 $271 $75 #
coedge $-1 $171 $171 $272 $273 reversed $107 $-1 #
face $-1 $274 $275 $59 $-1 $276 reversed single #
loop $-1 $-1 $277 $109 #
plane-surface $-1 -21.901602868631358 -3.7522406878716943 76.327656704278596 0.70710678939079041 0 0.70710677298230451 0.70710677298230451 0 -0.70710678939079041 forward_v I I I I #
coedge $-1 $278 $279 $280 $281 reversed $110 $-1 #
face $-1 $-1 $282 $60 $-1 $283 forward single #
loop $-1 $284 $285 $112 #
cone-surface $-1 50.289589450397088 -5.0812076057080802 2.3686957365691148 -0.70710678939079041 0 -0.70710677298230451 0.17677669324557613 0 -0.1767766973476976 1 I I -0.70710678118654746 0.70710678118654746 0.25 forward I I I I #
loop $-1 $-1 $286 $77 #
coedge $-1 $180 $180 $287 $288 reversed $113 $-1 #
face $-1 $-1 $289 $61 $-1 $290 forward single #
loop $-1 $291 $292 $115 #
cone-surface $-1 50.289589450397088 -2.423273770035312 2.3686957365691148 -0.70710678939079041 0 -0.70710677298230451 0.17677669324557613 0 -0.1767766973476976 1 I I -0.70710678118654746 0.70710678118654746 0.25 forward I I I I #
loop $-1 $-1 $293 $78 #
coedge $-1 $185 $185 $294 $295 reversed $116 $-1 #
face $-1 $296 $297 $62 $-1 $298 reversed single #
loop $-1 $-1 $299 $118 #
plane-surface $-1 -21.901602868631358 7.4125841303992495 76.327656704278596 0.70710678939079041 0 0.70710677298230451 0.70710677298230451 0 -0.70710678939079041 forward_v I I I I #
coedge $-1 $300 $301 $302 $303 reversed $119 $-1 #
face $-1 $-1 $304 $63 $-1 $305 forward single #
loop $-1 $306 $307 $121 #
cone-surface $-1 50.289589450397088 6.0836172125628671 2.3686957365691148 -0.70710678939079041 0 -0.70710677298230451 0.17677669324557613 0 -0.1767766973476976 1 I I -0.70710678118654746 0.70710678118654746 0.25 forward I I I I #
loop $-1 $-1 $308 $80 #
coedge $-1 $194 $194 $309 $310 reversed $122 $-1 #
face $-1 $-1 $311 $64 $-1 $312 forward single #
loop $-1 $313 $314 $124 #
cone-surface $-1 50.289589450397088 8.7415510482356318 2.3686957365691148 -0.70710678939079041 0 -0.70710677298230451 0.17677669324557613 0 -0.1767766973476976 1 I I -0.70710678118654746 0.70710678118654746 0.25 forward I I I I #
loop $-1 $-1 $315 $81 #
coedge $-1 $199 $199 $316 $317 reversed $125 $-1 #
face $-1 $318 $319 $65 $-1 $320 reversed single #
loop $-1 $-1 $321 $127 #
plane-surface $-1 -21.901602868631358 18.577408948670193 76.327656704278596 0.70710678939079041 0 0.70710677298230451 0.70710677298230451 0 -0.70710678939079041 forward_v I I I I #
coedge $-1 $322 $323 $324 $325 reversed $128 $-1 #
face $-1 $-1 $326 $66 $-1 $327 forward single #
loop $-1 $328 $329 $130 #
cone-surface $-1 50.289589450397088 17.248442030833811 2.3686957365691148 -0.70710678939079041 0 -0.70710677298230451 0.17677669324557613 0 -0.1767766973476976 1 I I -0.70710678118654746 0.70710678118654746 0.25 forward I I I I #
loop $-1 $-1 $330 $83 #
coedge $-1 $208 $208 $331 $332 reversed $131 $-1 #
face $-1 $-1 $333 $67 $-1 $334 forward single #
loop $-1 $335 $336 $133 #
cone-surface $-1 50.289589450397088 19.906375866506576 2.3686957365691148 -0.70710678939079041 0 -0.70710677298230451 0.17677669324557613 0 -0.1767766973476976 1 I I -0.70710678118654746 0.70710678118654746 0.25 forward I I I I #
loop $-1 $-1 $337 $84 #
coedge $-1 $213 $213 $338 $339 reversed $134 $-1 #
face $-1 $340 $341 $51 $-1 $342 reversed single #
loop $-1 $-1 $343 $136 #
plane-surface $-1 0 -24.640429297959475 0 0 1 0 0 0 1 forward_v I I I I #
coedge $-1 $344 $345 $346 $347 forward $137 $-1 #
coedge $-1 $348 $139 $349 $350 forward $86 $-1 #
coedge $-1 $139 $348 $351 $352 forward $86 $-1 #
coedge $-1 $353 $354 $139 $221 reversed $355 $-1 #
edge $-1 $356 -24.640429297959475 $357 24.640429297959475 $220 $358 forward 7 unknown #
face $-1 $359 $360 $52 $-1 $361 reversed single #
loop $-1 $-1 $362 $140 #
plane-surface $-1 0 0 -4.9542550828826757 0 0 1 1 0 0 forward_v I I I I #
coedge $-1 $363 $364 $365 $366 reversed $141 $-1 #
coedge $-1 $367 $143 $364 $368 forward $89 $-1 #
coedge $-1 $143 $367 $369 $370 reversed $89 $-1 #
coedge $-1 $371 $365 $143 $229 forward $360 $-1 #
edge $-1 $372 8.8540451568533616 $373 13.475604479688529 $228 $374 forward 7 unknown #
face $-1 $375 $376 $53 $-1 $377 forward single #
loop $-1 $-1 $378 $144 #
plane-surface $-1 -136.20752132145952 15.583541908014478 66.179741309778208 0 -1 0 0.78801076186113728 0 -0.61566146476048833 forward_v I I I I #
coedge $-1 $379 $380 $381 $382 reversed $145 $-1 #
coedge $-1 $235 $147 $383 $384 reversed $92 $-1 #
coedge $-1 $147 $234 $379 $385 reversed $92 $-1 #
coedge $-1 $381 $386 $147 $237 forward $376 $-1 #
edge $-1 $387 15.228611882996063 $388 18.260700737751229 $236 $389 forward 7 unknown #
loop $-1 $-1 $243 $148 #
plane-surface $-1 -52.875148777733699 9.2273651447096903 1.0733582179216654 -0.78801076186113728 0 0.61566146476048833 0.61566146476048833 0 0.78801076186113728 forward_v I I I I #
loop $-1 $-1 $390 $94 #
coedge $-1 $241 $241 $242 $391 reversed $149 $-1 #
coedge $-1 $242 $242 $241 $391 forward $151 $-1 #
coedge $-1 $243 $243 $152 $244 forward $238 $-1 #
edge $-1 $392 0 $392 6.2831853071796004 $243 $393 forward 7 unknown #
loop $-1 $-1 $250 $153 #
plane-surface $-1 -52.875148777733699 9.2273651447096903 1.0733582179216654 -0.78801076186113728 0 0.61566146476048833 0.61566146476048833 0 0.78801076186113728 forward_v I I I I #
loop $-1 $-1 $394 $97 #
coedge $-1 $248 $248 $249 $395 reversed $154 $-1 #
coedge $-1 $249 $249 $248 $395 forward $156 $-1 #
coedge $-1 $250 $250 $157 $251 forward $245 $-1 #
edge $-1 $396 0 $396 6.2831853071796004 $250 $397 forward 7 unknown #
face $-1 $398 $399 $56 $-1 $400 reversed single #
loop $-1 $-1 $401 $158 #
plane-surface $-1 52.875150512935946 -18.017988314427537 151.10440835064364 0 1 0 0.70710678939079041 0 0.70710677298230451 forward_v I I I I #
coedge $-1 $402 $403 $404 $405 reversed $159 $-1 #
coedge $-1 $257 $161 $406 $407 reversed $101 $-1 #
coedge $-1 $161 $256 $402 $408 reversed $101 $-1 #
coedge $-1 $404 $409 $161 $259 forward $410 $-1 #
edge $-1 $411 -26.437573521265726 $412 -23.034221840069442 $258 $413 forward 7 unknown #
loop $-1 $-1 $265 $162 #
plane-surface $-1 -21.901602868631358 -14.917065506142642 76.327656704278596 0.70710678939079041 0 0.70710677298230451 0.70710677298230451 0 -0.70710678939079041 forward_v I I I I #
loop $-1 $-1 $414 $103 #
coedge $-1 $263 $263 $264 $415 reversed $163 $-1 #
coedge $-1 $264 $264 $263 $415 forward $165 $-1 #
coedge $-1 $265 $265 $166 $266 forward $260 $-1 #
edge $-1 $416 0 $416 6.2831853071796004 $265 $417 forward 7 unknown #
loop $-1 $-1 $272 $167 #
plane-surface $-1 -21.901602868631358 -14.917065506142642 76.327656704278596 0.70710678939079041 0 0.70710677298230451 0.70710677298230451 0 -0.70710678939079041 forward_v I I I I #
loop $-1 $-1 $418 $106 #
coedge $-1 $270 $270 $271 $419 reversed $168 $-1 #
coedge $-1 $271 $271 $270 $419 forward $170 $-1 #
coedge $-1 $272 $272 $171 $273 forward $267 $-1 #
edge $-1 $420 0 $420 6.2831853071796004 $272 $421 forward 7 unknown #
face $-1 $422 $423 $59 $-1 $424 reversed single #
loop $-1 $-1 $425 $172 #
plane-surface $-1 52.875150512935946 -6.8531634961565899 151.10440835064364 0 1 0 0.70710678939079041 0 0.70710677298230451 forward_v I I I I #
coedge $-1 $426 $427 $428 $429 reversed $173 $-1 #
coedge $-1 $279 $175 $430 $431 reversed $110 $-1 #
coedge $-1 $175 $278 $426 $432 reversed $110 $-1 #
coedge $-1 $428 $433 $175 $281 forward $434 $-1 #
edge $-1 $435 -26.437573521265726 $436 -23.034221840069442 $280 $437 forward 7 unknown #
loop $-1 $-1 $287 $176 #
plane-surface $-1 -21.901602868631358 -3.7522406878716943 76.327656704278596 0.70710678939079041 0 0.70710677298230451 0.70710677298230451 0 -0.70710678939079041 forward_v I I I I #
loop $-1 $-1 $438 $112 #
coedge $-1 $285 $285 $286 $439 reversed $177 $-1 #
coedge $-1 $286 $286 $285 $439 forward $179 $-1 #
coedge $-1 $287 $287 $180 $288 forward $282 $-1 #
edge $-1 $440 0 $440 6.2831853071796004 $287 $441 forward 7 unknown #
loop $-1 $-1 $294 $181 #
plane-surface $-1 -21.901602868631358 -3.7522406878716943 76.327656704278596 0.70710678939079041 0 0.70710677298230451 0.70710677298230451 0 -0.70710678939079041 forward_v I I I I #
loop $-1 $-1 $442 $115 #
coedge $-1 $292 $292 $293 $443 reversed $182 $-1 #
coedge $-1 $293 $293 $292 $443 forward $184 $-1 #
coedge $-1 $294 $294 $185 $295 forward $289 $-1 #
edge $-1 $444 0 $444 6.2831853071796004 $294 $445 forward 7 unknown #
face $-1 $446 $447 $62 $-1 $448 reversed single #
loop $-1 $-1 $449 $186 #
plane-surface $-1 52.875150512935946 4.3116613221143538 151.10440835064364 0 1 0 0.70710678939079041 0 0.70710677298230451 forward_v I I I I #
coedge $-1 $450 $451 $452 $453 reversed $187 $-1 #
coedge $-1 $301 $189 $454 $455 reversed $119 $-1 #
coedge $-1 $189 $300 $450 $456 reversed $119 $-1 #
coedge $-1 $452 $457 $189 $303 forward $458 $-1 #
edge $-1 $459 -26.437573521265726 $460 -23.034221840069442 $302 $461 forward 7 unknown #
loop $-1 $-1 $309 $190 #
plane-surface $-1 -21.901602868631358 7.4125841303992495 76.327656704278596 0.70710678939079041 0 0.70710677298230451 0.70710677298230451 0 -0.70710678939079041 forward_v I I I I #
loop $-1 $-1 $462 $121 #
coedge $-1 $307 $307 $308 $463 reversed $191 $-1 #
coedge $-1 $308 $308 $307 $463 forward $193 $-1 #
coedge $-1 $309 $309 $194 $310 forward $304 $-1 #
edge $-1 $464 0 $464 6.2831853071796004 $309 $465 forward 7 unknown #
loop $-1 $-1 $316 $195 #
plane-surface $-1 -21.901602868631358 7.4125841303992495 76.327656704278596 0.70710678939079041 0 0.70710677298230451 0.70710677298230451 0 -0.70710678939079041 forward_v I I I I #
loop $-1 $-1 $466 $124 #
coedge $-1 $314 $314 $315 $467 reversed $196 $-1 #
coedge $-1 $315 $315 $314 $467 forward $198 $-1 #
coedge $-1 $316 $316 $199 $317 forward $311 $-1 #
edge $-1 $468 0 $468 6.2831853071796004 $316 $469 forward 7 unknown #
face $-1 $470 $471 $65 $-1 $472 reversed single #
loop $-1 $-1 $473 $200 #
plane-surface $-1 52.875150512935946 15.476486140385298 151.10440835064364 0 1 0 0.70710678939079041 0 0.70710677298230451 forward_v I I I I #
coedge $-1 $474 $475 $476 $477 reversed $201 $-1 #
coedge $-1 $323 $203 $478 $479 reversed $128 $-1 #
coedge $-1 $203 $322 $474 $480 reversed $128 $-1 #
coedge $-1 $476 $481 $203 $325 forward $482 $-1 #
edge $-1 $483 -26.437573521265726 $484 -23.034221840069442 $324 $485 forward 7 unknown #
loop $-1 $-1 $331 $204 #
plane-surface $-1 -21.901602868631358 18.577408948670193 76.327656704278596 0.70710678939079041 0 0.70710677298230451 0.70710677298230451 0 -0.70710678939079041 forward_v I I I I #
loop $-1 $-1 $486 $130 #
coedge $-1 $329 $329 $330 $487 reversed $205 $-1 #
coedge $-1 $330 $330 $329 $487 forward $207 $-1 #
coedge $-1 $331 $331 $208 $332 forward $326 $-1 #
edge $-1 $488 0 $488 6.2831853071796004 $331 $489 forward 7 unknown #
loop $-1 $-1 $338 $209 #
plane-surface $-1 -21.901602868631358 18.577408948670193 76.327656704278596 0.70710678939079041 0 0.70710677298230451 0.70710677298230451 0 -0.70710678939079041 forward_v I I I I #
loop $-1 $-1 $490 $133 #
coedge $-1 $336 $336 $337 $491 reversed $210 $-1 #
coedge $-1 $337 $337 $336 $491 forward $212 $-1 #
coedge $-1 $338 $338 $213 $339 forward $333 $-1 #
edge $-1 $492 0 $492 6.2831853071796004 $338 $493 forward 7 unknown #
face $-1 $494 $495 $51 $-1 $496 reversed single #
loop $-1 $-1 $497 $214 #
plane-surface $-1 -52.875148777733699 0 0 1 0 0 0 0 -1 forward_v I I I I #
coedge $-1 $498 $351 $499 $500 forward $215 $-1 #
coedge $-1 $501 $217 $498 $502 forward $137 $-1 #
coedge $-1 $217 $501 $503 $504 forward $137 $-1 #
coedge $-1 $354 $353 $217 $347 reversed $355 $-1 #
edge $-1 $505 -24.640429297959475 $506 24.640429297959475 $346 $507 forward 7 unknown #
coedge $-1 $219 $218 $508 $509 forward $86 $-1 #
coedge $-1 $510 $511 $218 $350 reversed $495 $-1 #
edge $-1 $357 -52.875148777733699 $512 52.875148777733699 $349 $513 forward 7 unknown #
coedge $-1 $343 $514 $219 $352 reversed $215 $-1 #
edge $-1 $515 -52.875148777733699 $356 52.875148777733699 $351 $516 forward 7 unknown #
coedge $-1 $346 $220 $514 $517 forward $355 $-1 #
coedge $-1 $220 $346 $510 $518 reversed $355 $-1 #
loop $-1 $-1 $353 $494 #
vertex $-1 $221 $519 #
vertex $-1 $221 $520 #
straight-curve $-1 52.875148777733699 0 4.9542550828826757 0 1 0 I I #
face $-1 $521 $522 $52 $-1 $523 reversed single #
loop $-1 $-1 $365 $222 #
plane-surface $-1 52.875148777733699 0 0 -1 0 0 0 0 1 forward_v I I I I #
coedge $-1 $524 $525 $363 $526 forward $223 $-1 #
coedge $-1 $527 $225 $362 $526 reversed $141 $-1 #
coedge $-1 $225 $527 $226 $368 reversed $141 $-1 #
coedge $-1 $228 $528 $225 $366 forward $360 $-1 #
edge $-1 $529 -3.2271275414413378 $372 -0.22712754144133784 $365 $530 forward 7 unknown #
coedge $-1 $227 $226 $531 $532 reversed $89 $-1 #
edge $-1 $372 -52.875148777733699 $533 52.875148777733699 $364 $534 forward 7 unknown #
coedge $-1 $535 $536 $227 $370 forward $522 $-1 #
edge $-1 $373 -52.875148777733699 $537 52.875148777733699 $369 $538 forward 7 unknown #
coedge $-1 $528 $228 $536 $539 forward $360 $-1 #
vertex $-1 $229 $540 #
vertex $-1 $539 $541 #
straight-curve $-1 52.875148777733699 -11.164824818270946 -1.9542550828826757 0 -1 0 I I #
face $-1 $-1 $542 $53 $-1 $543 reversed single #
loop $-1 $-1 $236 $230 #
plane-surface $-1 0 0 4.9542550828826757 0 0 1 1 0 0 forward_v I I I I #
coedge $-1 $544 $545 $546 $547 reversed $231 $-1 #
coedge $-1 $548 $233 $235 $385 forward $145 $-1 #
coedge $-1 $233 $548 $544 $549 forward $145 $-1 #
coedge $-1 $546 $236 $233 $382 forward $376 $-1 #
edge $-1 $388 -1.7424941909499427 $550 10.969859335659633 $381 $551 forward 7 unknown #
coedge $-1 $552 $553 $234 $384 forward $542 $-1 #
edge $-1 $554 -32.016512436967439 $387 -28.135615572006429 $383 $555 forward 7 unknown #
edge $-1 $388 -4.924928760864943 $554 0 $235 $556 forward 7 unknown #
coedge $-1 $236 $546 $552 $557 forward $376 $-1 #
vertex $-1 $384 $558 #
vertex $-1 $237 $559 #
straight-curve $-1 -68.103760660729762 2.8711883814049024 4.9542550828826748 1 0 0 I I #
coedge $-1 $390 $390 $-1 $560 reversed $240 $-1 #
edge $-1 $561 0 $561 6.2831853071796004 $241 $562 forward 7 unknown #
vertex $-1 $244 $563 #
ellipse-curve $-1 -51.359104350356112 6.5032893890076409 3.0138066504021714 -0.78801076186113728 0 0.61566146476048833 0.30783073238024417 0 0.39400538093056864 1 I I #
coedge $-1 $394 $394 $-1 $564 reversed $247 $-1 #
edge $-1 $565 0 $565 6.2831853071796004 $248 $566 forward 7 unknown #
vertex $-1 $251 $567 #
ellipse-curve $-1 -51.359104350356112 11.95144090041175 3.0138066504021714 -0.78801076186113728 0 0.61566146476048833 0.30783073238024417 0 0.39400538093056864 1 I I #
face $-1 $-1 $410 $56 $-1 $568 forward single #
loop $-1 $-1 $569 $252 #
plane-surface $-1 52.875148777733699 0 0 -1 0 0 0 0 1 forward_v I I I I #
coedge $-1 $570 $571 $572 $573 reversed $253 $-1 #
coedge $-1 $574 $255 $257 $408 forward $159 $-1 #
coedge $-1 $255 $574 $570 $575 forward $159 $-1 #
coedge $-1 $572 $258 $255 $405 forward $410 $-1 #
edge $-1 $412 4.3576099447864252 $576 10.559455561356216 $404 $577 forward 7 unknown #
coedge $-1 $578 $579 $256 $407 forward $399 $-1 #
edge $-1 $580 -74.001300852610555 $411 -70.597949092439137 $406 $581 forward 7 unknown #
edge $-1 $412 100.93723139455055 $580 105.75029755546747 $257 $582 forward 7 unknown #
coedge $-1 $258 $572 $578 $583 forward $410 $-1 #
loop $-1 $-1 $572 $398 #
vertex $-1 $407 $584 #
vertex $-1 $259 $585 #
straight-curve $-1 26.437575256467973 -11.816142697857746 4.9542550828826819 -1 0 0 I I #
coedge $-1 $414 $414 $-1 $586 reversed $262 $-1 #
edge $-1 $587 0 $587 6.2831853071796004 $263 $588 forward 7 unknown #
vertex $-1 $266 $589 #
ellipse-curve $-1 51.173472937135564 -16.246032423979024 3.2525792027969853 0.70710678939079041 0 0.70710677298230451 0.35355338649115226 0 -0.35355339469539521 1 I I #
coedge $-1 $418 $418 $-1 $590 reversed $269 $-1 #
edge $-1 $591 0 $591 6.2831853071796004 $270 $592 forward 7 unknown #
vertex $-1 $273 $593 #
ellipse-curve $-1 51.173472937135564 -13.588098588306257 3.2525792027969853 0.70710678939079041 0 0.70710677298230451 0.35355338649115226 0 -0.35355339469539521 1 I I #
face $-1 $-1 $434 $59 $-1 $594 forward single #
loop $-1 $-1 $595 $274 #
plane-surface $-1 52.875148777733699 0 0 -1 0 0 0 0 1 forward_v I I I I #
coedge $-1 $596 $597 $598 $599 reversed $275 $-1 #
coedge $-1 $600 $277 $279 $432 forward $173 $-1 #
coedge $-1 $277 $600 $596 $601 forward $173 $-1 #
coedge $-1 $598 $280 $277 $429 forward $434 $-1 #
edge $-1 $436 -1.2248024643490489 $602 4.9770431522207428 $428 $603 forward 7 unknown #
coedge $-1 $604 $605 $278 $431 forward $423 $-1 #
edge $-1 $606 -74.001300852610555 $435 -70.597949092439137 $430 $607 forward 7 unknown #
edge $-1 $436 100.93723139455055 $606 105.75029755546747 $279 $608 forward 7 unknown #
coedge $-1 $280 $598 $604 $609 forward $434 $-1 #
loop $-1 $-1 $598 $422 #
vertex $-1 $431 $610 #
vertex $-1 $281 $611 #
straight-curve $-1 26.437575256467973 -0.65131787958679821 4.9542550828826819 -1 0 0 I I #
coedge $-1 $438 $438 $-1 $612 reversed $284 $-1 #
edge $-1 $613 0 $613 6.2831853071796004 $285 $614 forward 7 unknown #
vertex $-1 $288 $615 #
ellipse-curve $-1 51.173472937135564 -5.0812076057080802 3.2525792027969853 0.70710678939079041 0 0.70710677298230451 0.35355338649115226 0 -0.35355339469539521 1 I I #
coedge $-1 $442 $442 $-1 $616 reversed $291 $-1 #
edge $-1 $617 0 $617 6.2831853071796004 $292 $618 forward 7 unknown #
vertex $-1 $295 $619 #
ellipse-curve $-1 51.173472937135564 -2.423273770035312 3.2525792027969853 0.70710678939079041 0 0.70710677298230451 0.35355338649115226 0 -0.35355339469539521 1 I I #
face $-1 $-1 $458 $62 $-1 $620 forward single #
loop $-1 $-1 $621 $296 #
plane-surface $-1 52.875148777733699 0 0 -1 0 0 0 0 1 forward_v I I I I #
coedge $-1 $622 $623 $624 $625 reversed $297 $-1 #
coedge $-1 $626 $299 $301 $456 forward $187 $-1 #
coedge $-1 $299 $626 $622 $627 forward $187 $-1 #
coedge $-1 $624 $302 $299 $453 forward $458 $-1 #
edge $-1 $460 -6.8072148734845204 $628 -0.60536925691472909 $452 $629 forward 7 unknown #
coedge $-1 $630 $631 $300 $455 forward $447 $-1 #
edge $-1 $632 -74.001300852610555 $459 -70.597949092439137 $454 $633 forward 7 unknown #
edge $-1 $460 100.93723139455055 $632 105.75029755546747 $301 $634 forward 7 unknown #
coedge $-1 $302 $624 $630 $635 forward $458 $-1 #
loop $-1 $-1 $624 $446 #
vertex $-1 $455 $636 #
vertex $-1 $303 $637 #
straight-curve $-1 26.437575256467973 10.513506938684145 4.9542550828826819 -1 0 0 I I #
coedge $-1 $462 $462 $-1 $638 reversed $306 $-1 #
edge $-1 $639 0 $639 6.2831853071796004 $307 $640 forward 7 unknown #
vertex $-1 $310 $641 #
ellipse-curve $-1 51.173472937135564 6.0836172125628671 3.2525792027969853 0.70710678939079041 0 0.70710677298230451 0.35355338649115226 0 -0.35355339469539521 1 I I #
coedge $-1 $466 $466 $-1 $642 reversed $313 $-1 #
edge $-1 $643 0 $643 6.2831853071796004 $314 $644 forward 7 unknown #
vertex $-1 $317 $645 #
ellipse-curve $-1 51.173472937135564 8.7415510482356318 3.2525792027969853 0.70710678939079041 0 0.70710677298230451 0.35355338649115226 0 -0.35355339469539521 1 I I #
face $-1 $-1 $482 $65 $-1 $646 forward single #
loop $-1 $-1 $647 $318 #
plane-surface $-1 52.875148777733699 0 0 -1 0 0 0 0 1 forward_v I I I I #
coedge $-1 $648 $649 $650 $651 reversed $319 $-1 #
coedge $-1 $652 $321 $323 $480 forward $201 $-1 #
coedge $-1 $321 $652 $648 $653 forward $201 $-1 #
coedge $-1 $650 $324 $321 $477 forward $482 $-1 #
edge $-1 $484 -12.389627282619992 $654 -6.187781666050201 $476 $655 forward 7 unknown #
coedge $-1 $656 $657 $322 $479 forward $471 $-1 #
edge $-1 $658 -74.001300852610555 $483 -70.597949092439137 $478 $659 forward 7 unknown #
edge $-1 $484 100.93723139455055 $658 105.75029755546747 $323 $660 forward 7 unknown #
coedge $-1 $324 $650 $656 $661 forward $482 $-1 #
loop $-1 $-1 $650 $470 #
vertex $-1 $479 $662 #
vertex $-1 $325 $663 #
straight-curve $-1 26.437575256467973 21.678331756955089 4.9542550828826819 -1 0 0 I I #
coedge $-1 $486 $486 $-1 $664 reversed $328 $-1 #
edge $-1 $665 0 $665 6.2831853071796004 $329 $666 forward 7 unknown #
vertex $-1 $332 $667 #
ellipse-curve $-1 51.173472937135564 17.248442030833811 3.2525792027969853 0.70710678939079041 0 0.70710677298230451 0.35355338649115226 0 -0.35355339469539521 1 I I #
coedge $-1 $490 $490 $-1 $668 reversed $335 $-1 #
edge $-1 $669 0 $669 6.2831853071796004 $336 $670 forward 7 unknown #
vertex $-1 $339 $671 #
ellipse-curve $-1 51.173472937135564 19.906375866506576 3.2525792027969853 0.70710678939079041 0 0.70710677298230451 0.35355338649115226 0 -0.35355339469539521 1 I I #
face $-1 $-1 $355 $51 $-1 $672 reversed single #
loop $-1 $-1 $510 $340 #
plane-surface $-1 0 24.640429297959475 0 0 -1 0 0 0 -1 forward_v I I I I #
coedge $-1 $673 $508 $511 $674 forward $341 $-1 #
coedge $-1 $514 $343 $344 $502 reversed $215 $-1 #
coedge $-1 $508 $673 $343 $500 reversed $341 $-1 #
edge $-1 $515 -4.9542550828826757 $675 4.9542550828826757 $499 $676 forward 7 unknown #
coedge $-1 $345 $344 $673 $677 forward $137 $-1 #
edge $-1 $506 -52.875148777733699 $675 52.875148777733699 $498 $678 forward 7 unknown #
coedge $-1 $511 $510 $345 $504 reversed $495 $-1 #
edge $-1 $679 -52.875148777733699 $505 52.875148777733699 $503 $680 forward 7 unknown #
vertex $-1 $347 $681 #
vertex $-1 $517 $682 #
straight-curve $-1 52.875148777733699 0 -4.9542550828826757 0 -1 0 I I #
coedge $-1 $497 $499 $348 $509 reversed $341 $-1 #
edge $-1 $512 -24.640429297959475 $515 24.640429297959475 $508 $683 forward 7 unknown #
coedge $-1 $503 $349 $354 $518 forward $495 $-1 #
coedge $-1 $349 $503 $497 $674 reversed $495 $-1 #
vertex $-1 $350 $684 #
straight-curve $-1 0 24.640429297959475 4.9542550828826757 -1 0 0 I I #
coedge $-1 $351 $498 $353 $517 reversed $215 $-1 #
vertex $-1 $509 $685 #
straight-curve $-1 0 -24.640429297959475 4.9542550828826757 1 0 0 I I #
edge $-1 $356 -4.9542550828826757 $506 4.9542550828826757 $353 $686 forward 7 unknown #
edge $-1 $357 -4.9542550828826757 $505 4.9542550828826757 $354 $687 forward 7 unknown #
point $-1 52.875148777733699 -24.640429297959475 4.9542550828826757 #
point $-1 52.875148777733699 24.640429297959475 4.9542550828826757 #
face $-1 $-1 $688 $52 $-1 $689 reversed single #
loop $-1 $-1 $369 $359 #
plane-surface $-1 0 -24.640429297959475 0 0 1 0 0 0 1 forward_v I I I I #
coedge $-1 $690 $362 $528 $691 forward $223 $-1 #
coedge $-1 $362 $690 $692 $693 forward $223 $-1 #
edge $-1 $694 -52.875148777733699 $529 52.875148777733699 $362 $695 forward 7 unknown #
coedge $-1 $364 $363 $696 $697 reversed $141 $-1 #
coedge $-1 $365 $371 $524 $691 reversed $360 $-1 #
vertex $-1 $691 $698 #
straight-curve $-1 52.875148777733699 -20.018869975124307 -1.7271275414413378 0 0 1 I I #
coedge $-1 $696 $699 $367 $532 forward $688 $-1 #
edge $-1 $537 -13.475604479688529 $533 -8.8540451568533616 $531 $700 forward 7 unknown #
vertex $-1 $532 $701 #
straight-curve $-1 0 -20.018869975124307 -1.9542550828826757 -1 0 0 I I #
coedge $-1 $702 $369 $699 $703 forward $522 $-1 #
coedge $-1 $369 $702 $371 $539 reversed $522 $-1 #
vertex $-1 $703 $704 #
straight-curve $-1 0 -24.640429297959475 -1.9542550828826757 -1 0 0 I I #
edge $-1 $373 1.9542550828826757 $705 4.9542550828826757 $371 $706 forward 7 unknown #
point $-1 52.875148777733699 -20.018869975124307 -1.9542550828826757 #
point $-1 52.875148777733699 -24.640429297959475 -1.9542550828826757 #
loop $-1 $-1 $383 $375 #
plane-surface $-1 -52.875148777733699 0 0 1 0 0 0 0 -1 forward_v I I I I #
coedge $-1 $545 $378 $380 $549 reversed $231 $-1 #
coedge $-1 $378 $544 $707 $708 reversed $231 $-1 #
coedge $-1 $386 $381 $378 $547 forward $376 $-1 #
edge $-1 $550 -18.260700737751229 $709 -15.228611882996063 $546 $710 forward 7 unknown #
coedge $-1 $380 $379 $553 $711 reversed $145 $-1 #
edge $-1 $712 0 $550 4.924928760864943 $544 $713 forward 7 unknown #
vertex $-1 $382 $714 #
straight-curve $-1 -49.843059922978526 4.6136825723548451 4.9542550828826748 0 1 0 I I #
coedge $-1 $707 $383 $386 $557 reversed $542 $-1 #
coedge $-1 $383 $707 $548 $711 forward $542 $-1 #
vertex $-1 $384 $715 #
straight-curve $-1 -52.875148777733699 2.8711883814049024 33.089870654889104 0 0 1 I I #
straight-curve $-1 -52.875148777733699 2.8711883814049024 1.0733582179216654 -0.61566146476048833 0 -0.78801076186113728 I I #
edge $-1 $709 -15.583541908014478 $387 -2.8711883814049024 $552 $716 forward 7 unknown #
point $-1 -52.875148777733699 2.8711883814049024 4.9542550828826757 #
point $-1 -49.843059922978533 2.8711883814049024 4.9542550828826766 #
edge $-1 $717 1 $717 0 $390 $-1 forward 7 unknown #
vertex $-1 $391 $718 #
ellipse-curve $-1 -50.479623544464744 6.5032893890076409 2.3266809569598879 -0.78801076186113728 0 0.61566146476048833 0.30783073238024417 0 0.39400538093056864 1 I I #
point $-1 -51.05127361797588 6.5032893890076409 3.4078120313327442 #
edge $-1 $719 1 $719 0 $394 $-1 forward 7 unknown #
vertex $-1 $395 $720 #
ellipse-curve $-1 -50.479623544464744 11.95144090041175 2.3266809569598879 -0.78801076186113728 0 0.61566146476048833 0.30783073238024417 0 0.39400538093056864 1 I I #
point $-1 -51.05127361797588 11.95144090041175 3.4078120313327442 #
plane-surface $-1 0 0 4.9542550828826757 0 0 1 1 0 0 forward_v I I I I #
coedge $-1 $579 $578 $571 $721 forward $399 $-1 #
coedge $-1 $571 $401 $403 $575 reversed $253 $-1 #
coedge $-1 $401 $570 $569 $721 reversed $253 $-1 #
coedge $-1 $409 $404 $401 $573 forward $410 $-1 #
edge $-1 $576 23.034221840069442 $722 26.437573521265726 $572 $723 forward 7 unknown #
coedge $-1 $403 $402 $579 $724 reversed $159 $-1 #
edge $-1 $725 -105.75029755546747 $576 -100.93723139455055 $570 $726 forward 7 unknown #
vertex $-1 $405 $727 #
straight-curve $-1 49.471797096537415 -7.4585327530713208 4.9542550828826748 0 -1 0 I I #
coedge $-1 $569 $406 $409 $583 reversed $399 $-1 #
coedge $-1 $406 $569 $574 $724 forward $399 $-1 #
vertex $-1 $407 $728 #
straight-curve $-1 52.875148777733699 -11.816142697857746 75.552204175321819 0 0 1 I I #
straight-curve $-1 -21.901602868631358 -11.816142697857746 76.327656704278596 0.70710677298230451 0 -0.70710678939079041 I I #
edge $-1 $722 -18.017988314427537 $411 -11.816142697857746 $578 $729 forward 7 unknown #
point $-1 52.875148777733699 -11.816142697857746 4.9542550828826757 #
point $-1 49.471797096537415 -11.816142697857746 4.9542550828826819 #
edge $-1 $730 1 $730 0 $414 $-1 forward 7 unknown #
vertex $-1 $415 $731 #
ellipse-curve $-1 50.466366147744786 -16.246032423979024 2.5454724298146911 0.70710678939079041 0 0.70710677298230451 0.35355338649115226 0 -0.35355339469539521 1 I I #
point $-1 51.527026323626728 -16.246032423979024 2.8990258081016003 #
edge $-1 $732 1 $732 0 $418 $-1 forward 7 unknown #
vertex $-1 $419 $733 #
ellipse-curve $-1 50.466366147744786 -13.588098588306257 2.5454724298146911 0.70710678939079041 0 0.70710677298230451 0.35355338649115226 0 -0.35355339469539521 1 I I #
point $-1 51.527026323626728 -13.588098588306257 2.8990258081016003 #
plane-surface $-1 0 0 4.9542550828826757 0 0 1 1 0 0 forward_v I I I I #
coedge $-1 $605 $604 $597 $734 forward $423 $-1 #
coedge $-1 $597 $425 $427 $601 reversed $275 $-1 #
coedge $-1 $425 $596 $595 $734 reversed $275 $-1 #
coedge $-1 $433 $428 $425 $599 forward $434 $-1 #
edge $-1 $602 23.034221840069442 $735 26.437573521265726 $598 $736 forward 7 unknown #
coedge $-1 $427 $426 $605 $737 reversed $173 $-1 #
edge $-1 $738 -105.75029755546747 $602 -100.93723139455055 $596 $739 forward 7 unknown #
vertex $-1 $429 $740 #
straight-curve $-1 49.471797096537415 -1.8761203439358471 4.9542550828826748 0 -1 0 I I #
coedge $-1 $595 $430 $433 $609 reversed $423 $-1 #
coedge $-1 $430 $595 $600 $737 forward $423 $-1 #
vertex $-1 $431 $741 #
straight-curve $-1 52.875148777733699 -0.65131787958679821 75.552204175321819 0 0 1 I I #
straight-curve $-1 -21.901602868631358 -0.65131787958679821 76.327656704278596 0.70710677298230451 0 -0.70710678939079041 I I #
edge $-1 $735 -6.8531634961565899 $435 -0.65131787958679821 $604 $742 forward 7 unknown #
point $-1 52.875148777733699 -0.65131787958679821 4.9542550828826757 #
point $-1 49.471797096537415 -0.65131787958679821 4.9542550828826819 #
edge $-1 $743 1 $743 0 $438 $-1 forward 7 unknown #
vertex $-1 $439 $744 #
ellipse-curve $-1 50.466366147744786 -5.0812076057080802 2.5454724298146911 0.70710678939079041 0 0.70710677298230451 0.35355338649115226 0 -0.35355339469539521 1 I I #
point $-1 51.527026323626728 -5.0812076057080802 2.8990258081016003 #
edge $-1 $745 1 $745 0 $442 $-1 forward 7 unknown #
vertex $-1 $443 $746 #
ellipse-curve $-1 50.466366147744786 -2.423273770035312 2.5454724298146911 0.70710678939079041 0 0.70710677298230451 0.35355338649115226 0 -0.35355339469539521 1 I I #
point $-1 51.527026323626728 -2.423273770035312 2.8990258081016003 #
plane-surface $-1 0 0 4.9542550828826757 0 0 1 1 0 0 forward_v I I I I #
coedge $-1 $631 $630 $623 $747 forward $447 $-1 #
coedge $-1 $623 $449 $451 $627 reversed $297 $-1 #
coedge $-1 $449 $622 $621 $747 reversed $297 $-1 #
coedge $-1 $457 $452 $449 $625 forward $458 $-1 #
edge $-1 $628 23.034221840069442 $748 26.437573521265726 $624 $749 forward 7 unknown #
coedge $-1 $451 $450 $631 $750 reversed $187 $-1 #
edge $-1 $751 -105.75029755546747 $628 -100.93723139455055 $622 $752 forward 7 unknown #
vertex $-1 $453 $753 #
straight-curve $-1 49.471797096537415 3.7062920651996247 4.9542550828826748 0 -1 0 I I #
coedge $-1 $621 $454 $457 $635 reversed $447 $-1 #
coedge $-1 $454 $621 $626 $750 forward $447 $-1 #
vertex $-1 $455 $754 #
straight-curve $-1 52.875148777733699 10.513506938684145 75.552204175321819 0 0 1 I I #
straight-curve $-1 -21.901602868631358 10.513506938684145 76.327656704278596 0.70710677298230451 0 -0.70710678939079041 I I #
edge $-1 $748 4.3116613221143538 $459 10.513506938684145 $630 $755 forward 7 unknown #
point $-1 52.875148777733699 10.513506938684145 4.9542550828826757 #
point $-1 49.471797096537415 10.513506938684145 4.9542550828826819 #
edge $-1 $756 1 $756 0 $462 $-1 forward 7 unknown #
vertex $-1 $463 $757 #
ellipse-curve $-1 50.466366147744786 6.0836172125628671 2.5454724298146911 0.70710678939079041 0 0.70710677298230451 0.35355338649115226 0 -0.35355339469539521 1 I I #
point $-1 51.527026323626728 6.0836172125628671 2.8990258081016003 #
edge $-1 $758 1 $758 0 $466 $-1 forward 7 unknown #
vertex $-1 $467 $759 #
ellipse-curve $-1 50.466366147744786 8.7415510482356318 2.5454724298146911 0.70710678939079041 0 0.70710677298230451 0.35355338649115226 0 -0.35355339469539521 1 I I #
point $-1 51.527026323626728 8.7415510482356318 2.8990258081016003 #
plane-surface $-1 0 0 4.9542550828826757 0 0 1 1 0 0 forward_v I I I I #
coedge $-1 $657 $656 $649 $760 forward $471 $-1 #
coedge $-1 $649 $473 $475 $653 reversed $319 $-1 #
coedge $-1 $473 $648 $647 $760 reversed $319 $-1 #
coedge $-1 $481 $476 $473 $651 forward $482 $-1 #
edge $-1 $654 23.034221840069442 $761 26.437573521265726 $650 $762 forward 7 unknown #
coedge $-1 $475 $474 $657 $763 reversed $201 $-1 #
edge $-1 $764 -105.75029755546747 $654 -100.93723139455055 $648 $765 forward 7 unknown #
vertex $-1 $477 $766 #
straight-curve $-1 49.471797096537415 9.2887044743350966 4.9542550828826748 0 -1 0 I I #
coedge $-1 $647 $478 $481 $661 reversed $471 $-1 #
coedge $-1 $478 $647 $652 $763 forward $471 $-1 #
vertex $-1 $479 $767 #
straight-curve $-1 52.875148777733699 21.678331756955089 75.552204175321819 0 0 1 I I #
straight-curve $-1 -21.901602868631358 21.678331756955089 76.327656704278596 0.70710677298230451 0 -0.70710678939079041 I I #
edge $-1 $761 15.476486140385298 $483 21.678331756955089 $656 $768 forward 7 unknown #
point $-1 52.875148777733699 21.678331756955089 4.9542550828826757 #
point $-1 49.471797096537415 21.678331756955089 4.9542550828826819 #
edge $-1 $769 1 $769 0 $486 $-1 forward 7 unknown #
vertex $-1 $487 $770 #
ellipse-curve $-1 50.466366147744786 17.248442030833811 2.5454724298146911 0.70710678939079041 0 0.70710677298230451 0.35355338649115226 0 -0.35355339469539521 1 I I #
point $-1 51.527026323626728 17.248442030833811 2.8990258081016003 #
edge $-1 $771 1 $771 0 $490 $-1 forward 7 unknown #
vertex $-1 $491 $772 #
ellipse-curve $-1 50.466366147744786 19.906375866506576 2.5454724298146911 0.70710678939079041 0 0.70710677298230451 0.35355338649115226 0 -0.35355339469539521 1 I I #
point $-1 51.527026323626728 19.906375866506576 2.8990258081016003 #
plane-surface $-1 52.875148777733699 0 0 -1 0 0 0 0 1 forward_v I I I I #
coedge $-1 $499 $497 $501 $677 reversed $341 $-1 #
edge $-1 $512 -4.9542550828826757 $679 4.9542550828826757 $511 $773 forward 7 unknown #
vertex $-1 $677 $774 #
straight-curve $-1 -52.875148777733699 -24.640429297959475 0 0 0 -1 I I #
edge $-1 $675 -24.640429297959475 $679 24.640429297959475 $673 $775 forward 7 unknown #
straight-curve $-1 0 -24.640429297959475 -4.9542550828826757 -1 0 0 I I #
vertex $-1 $504 $776 #
straight-curve $-1 0 24.640429297959475 -4.9542550828826757 1 0 0 I I #
point $-1 52.875148777733699 24.640429297959475 -4.9542550828826757 #
point $-1 52.875148777733699 -24.640429297959475 -4.9542550828826757 #
straight-curve $-1 -52.875148777733699 0 4.9542550828826757 0 -1 0 I I #
point $-1 -52.875148777733699 24.640429297959475 4.9542550828826757 #
point $-1 -52.875148777733699 -24.640429297959475 4.9542550828826757 #
straight-curve $-1 52.875148777733699 -24.640429297959475 0 0 0 -1 I I #
straight-curve $-1 52.875148777733699 24.640429297959475 0 0 0 -1 I I #
loop $-1 $-1 $696 $521 #
plane-surface $-1 -52.875148777733699 0 0 1 0 0 0 0 -1 forward_v I I I I #
coedge $-1 $525 $524 $702 $777 forward $223 $-1 #
edge $-1 $529 20.018869975124307 $705 24.640429297959475 $528 $778 forward 7 unknown #
coedge $-1 $699 $696 $525 $693 reversed $688 $-1 #
edge $-1 $779 -24.640429297959475 $694 -20.018869975124307 $692 $780 forward 7 unknown #
vertex $-1 $697 $781 #
straight-curve $-1 0 -20.018869975124307 -4.9542550828826757 1 0 0 I I #
coedge $-1 $692 $531 $527 $697 forward $688 $-1 #
edge $-1 $533 0.22712754144133784 $694 3.2271275414413378 $696 $782 forward 7 unknown #
point $-1 52.875148777733699 -20.018869975124307 -4.9542550828826757 #
coedge $-1 $531 $692 $535 $703 reversed $688 $-1 #
straight-curve $-1 -52.875148777733699 -11.164824818270946 -1.9542550828826757 0 1 0 I I #
point $-1 -52.875148777733699 -20.018869975124307 -1.9542550828826757 #
coedge $-1 $536 $535 $690 $777 reversed $522 $-1 #
edge $-1 $537 1.9542550828826757 $779 4.9542550828826757 $699 $783 forward 7 unknown #
point $-1 -52.875148777733699 -24.640429297959475 -1.9542550828826757 #
vertex $-1 $539 $784 #
straight-curve $-1 52.875148777733699 -24.640429297959475 0 0 0 -1 I I #
coedge $-1 $553 $552 $545 $708 forward $542 $-1 #
edge $-1 $709 28.135615572006429 $712 32.016512436967439 $707 $785 forward 7 unknown #
vertex $-1 $557 $786 #
straight-curve $-1 -68.103760660729762 15.583541908014478 4.9542550828826748 -1 0 0 I I #
edge $-1 $712 -10.969859335659633 $554 1.7424941909499427 $553 $787 forward 7 unknown #
vertex $-1 $711 $788 #
straight-curve $-1 -52.875148777733699 15.583541908014478 1.0733582179216654 0.61566146476048833 0 0.78801076186113728 I I #
point $-1 -49.843059922978533 15.583541908014478 4.9542550828826766 #
point $-1 -52.875148777733699 2.8711883814049024 1.0733582179216654 #
straight-curve $-1 -52.875148777733699 0 4.9542550828826757 0 -1 0 I I #
vertex $-1 $560 $789 #
point $-1 -50.171792812084504 6.5032893890076409 2.7206863378904562 #
vertex $-1 $564 $790 #
point $-1 -50.171792812084504 11.95144090041175 2.7206863378904562 #
edge $-1 $722 70.597949092439137 $725 74.001300852610555 $569 $791 forward 7 unknown #
vertex $-1 $583 $792 #
straight-curve $-1 26.437575256467973 -18.017988314427537 4.9542550828826819 1 0 0 I I #
edge $-1 $725 -10.559455561356216 $580 -4.3576099447864252 $579 $793 forward 7 unknown #
vertex $-1 $724 $794 #
straight-curve $-1 -21.901602868631358 -18.017988314427537 76.327656704278596 -0.70710677298230451 0 0.70710678939079041 I I #
point $-1 49.471797096537415 -18.017988314427537 4.9542550828826819 #
point $-1 52.875148777733699 -11.816142697857746 1.5509033227112639 #
straight-curve $-1 52.875148777733699 0 4.9542550828826757 0 1 0 I I #
vertex $-1 $586 $795 #
point $-1 50.819919534235936 -16.246032423979024 2.1919190351192959 #
vertex $-1 $590 $796 #
point $-1 50.819919534235936 -13.588098588306257 2.1919190351192959 #
edge $-1 $735 70.597949092439137 $738 74.001300852610555 $595 $797 forward 7 unknown #
vertex $-1 $609 $798 #
straight-curve $-1 26.437575256467973 -6.8531634961565899 4.9542550828826819 1 0 0 I I #
edge $-1 $738 -4.9770431522207428 $606 1.2248024643490489 $605 $799 forward 7 unknown #
vertex $-1 $737 $800 #
straight-curve $-1 -21.901602868631358 -6.8531634961565899 76.327656704278596 -0.70710677298230451 0 0.70710678939079041 I I #
point $-1 49.471797096537415 -6.8531634961565899 4.9542550828826819 #
point $-1 52.875148777733699 -0.65131787958679821 1.5509033227112639 #
straight-curve $-1 52.875148777733699 0 4.9542550828826757 0 1 0 I I #
vertex $-1 $612 $801 #
point $-1 50.819919534235936 -5.0812076057080802 2.1919190351192959 #
vertex $-1 $616 $802 #
point $-1 50.819919534235936 -2.423273770035312 2.1919190351192959 #
edge $-1 $748 70.597949092439137 $751 74.001300852610555 $621 $803 forward 7 unknown #
vertex $-1 $635 $804 #
straight-curve $-1 26.437575256467973 4.3116613221143538 4.9542550828826819 1 0 0 I I #
edge $-1 $751 0.60536925691472909 $632 6.8072148734845204 $631 $805 forward 7 unknown #
vertex $-1 $750 $806 #
straight-curve $-1 -21.901602868631358 4.3116613221143538 76.327656704278596 -0.70710677298230451 0 0.70710678939079041 I I #
point $-1 49.471797096537415 4.3116613221143538 4.9542550828826819 #
point $-1 52.875148777733699 10.513506938684145 1.5509033227112639 #
straight-curve $-1 52.875148777733699 0 4.9542550828826757 0 1 0 I I #
vertex $-1 $638 $807 #
point $-1 50.819919534235936 6.0836172125628671 2.1919190351192959 #
vertex $-1 $642 $808 #
point $-1 50.819919534235936 8.7415510482356318 2.1919190351192959 #
edge $-1 $761 70.597949092439137 $764 74.001300852610555 $647 $809 forward 7 unknown #
vertex $-1 $661 $810 #
straight-curve $-1 26.437575256467973 15.476486140385298 4.9542550828826819 1 0 0 I I #
edge $-1 $764 6.187781666050201 $658 12.389627282619992 $657 $811 forward 7 unknown #
vertex $-1 $763 $812 #
straight-curve $-1 -21.901602868631358 15.476486140385298 76.327656704278596 -0.70710677298230451 0 0.70710678939079041 I I #
point $-1 49.471797096537415 15.476486140385298 4.9542550828826819 #
point $-1 52.875148777733699 21.678331756955089 1.5509033227112639 #
straight-curve $-1 52.875148777733699 0 4.9542550828826757 0 1 0 I I #
vertex $-1 $664 $813 #
point $-1 50.819919534235936 17.248442030833811 2.1919190351192959 #
vertex $-1 $668 $814 #
point $-1 50.819919534235936 19.906375866506576 2.1919190351192959 #
straight-curve $-1 -52.875148777733699 24.640429297959475 0 0 0 -1 I I #
point $-1 -52.875148777733699 -24.640429297959475 -4.9542550828826757 #
straight-curve $-1 -52.875148777733699 0 -4.9542550828826757 0 1 0 I I #
point $-1 -52.875148777733699 24.640429297959475 -4.9542550828826757 #
edge $-1 $705 -52.875148777733699 $779 52.875148777733699 $702 $815 forward 7 unknown #
straight-curve $-1 52.875148777733699 0 -4.9542550828826757 0 -1 0 I I #
vertex $-1 $693 $816 #
straight-curve $-1 -52.875148777733699 0 -4.9542550828826757 0 1 0 I I #
point $-1 -52.875148777733699 -20.018869975124307 -4.9542550828826757 #
straight-curve $-1 -52.875148777733699 -20.018869975124307 -1.7271275414413378 0 0 -1 I I #
straight-curve $-1 -52.875148777733699 -24.640429297959475 0 0 0 -1 I I #
point $-1 52.875148777733699 -24.640429297959475 -4.9542550828826757 #
straight-curve $-1 -52.875148777733699 15.583541908014478 33.089870654889104 0 0 -1 I I #
point $-1 -52.875148777733699 15.583541908014478 4.9542550828826757 #
straight-curve $-1 -52.875148777733699 4.6136825723548451 1.0733582179216694 0 -1 0 I I #
point $-1 -52.875148777733699 15.583541908014478 1.0733582179216654 #
point $-1 -50.085618163534178 6.5032893890076409 2.0188502245796434 #
point $-1 -50.085618163534178 11.95144090041175 2.0188502245796434 #
straight-curve $-1 52.875148777733699 -18.017988314427537 75.552204175321819 0 0 -1 I I #
point $-1 52.875148777733699 -18.017988314427537 4.9542550828826757 #
straight-curve $-1 52.875148777733699 -7.4585327530713208 1.550903322711271 0 1 0 I I #
point $-1 52.875148777733699 -18.017988314427537 1.5509033227112639 #
point $-1 50.11281275304939 -16.246032423979024 2.1919190433235385 #
point $-1 50.11281275304939 -13.588098588306257 2.1919190433235385 #
straight-curve $-1 52.875148777733699 -6.8531634961565899 75.552204175321819 0 0 -1 I I #
point $-1 52.875148777733699 -6.8531634961565899 4.9542550828826757 #
straight-curve $-1 52.875148777733699 -1.8761203439358471 1.550903322711271 0 1 0 I I #
point $-1 52.875148777733699 -6.8531634961565899 1.5509033227112639 #
point $-1 50.11281275304939 -5.0812076057080802 2.1919190433235385 #
point $-1 50.11281275304939 -2.423273770035312 2.1919190433235385 #
straight-curve $-1 52.875148777733699 4.3116613221143538 75.552204175321819 0 0 -1 I I #
point $-1 52.875148777733699 4.3116613221143538 4.9542550828826757 #
straight-curve $-1 52.875148777733699 3.7062920651996247 1.550903322711271 0 1 0 I I #
point $-1 52.875148777733699 4.3116613221143538 1.5509033227112639 #
point $-1 50.11281275304939 6.0836172125628671 2.1919190433235385 #
point $-1 50.11281275304939 8.7415510482356318 2.1919190433235385 #
straight-curve $-1 52.875148777733699 15.476486140385298 75.552204175321819 0 0 -1 I I #
point $-1 52.875148777733699 15.476486140385298 4.9542550828826757 #
straight-curve $-1 52.875148777733699 9.2887044743350966 1.550903322711271 0 1 0 I I #
point $-1 52.875148777733699 15.476486140385298 1.5509033227112639 #
point $-1 50.11281275304939 17.248442030833811 2.1919190433235385 #
point $-1 50.11281275304939 19.906375866506576 2.1919190433235385 #
straight-curve $-1 0 -24.640429297959475 -4.9542550828826757 -1 0 0 I I #
point $-1 -52.875148777733699 -24.640429297959475 -4.9542550828826757 #
End-of-ACIS-data 