500 0 7 0           
7 Unknown 11 ACIS 5.0 NT 24 Fri Mar 26 18:30:26 1999 
-1 9.9999999999999995e-007 1e-010 
body $-1 $7 $-1 $8 #
body $-1 $9 $-1 $10 #
body $-1 $11 $-1 $12 #
body $-1 $13 $-1 $14 #
body $-1 $15 $-1 $16 #
body $-1 $17 $-1 $18 #
body $-1 $19 $-1 $20 #
lump $-1 $-1 $21 $0 #
transform $-1 1 0 0 0 1 0 0 0 1 69.052400280770286 36.889201221803269 15.322522519275767 1 rotate no_reflect no_shear #
lump $-1 $-1 $22 $1 #
transform $-1 1 0 0 0 1 0 0 0 1 69.052400280770286 36.889201221803269 15.322522519275767 1 rotate no_reflect no_shear #
lump $-1 $-1 $23 $2 #
transform $-1 1 0 0 0 1 0 0 0 1 69.052400280770286 36.889201221803269 15.322522519275767 1 rotate no_reflect no_shear #
lump $-1 $-1 $24 $3 #
transform $-1 1 0 0 0 1 0 0 0 1 69.052400280770286 36.889201221803269 15.322522519275767 1 rotate no_reflect no_shear #
lump $-1 $-1 $25 $4 #
transform $-1 1 0 0 0 1 0 0 0 1 69.052400280770286 36.889201221803269 15.322522519275767 1 rotate no_reflect no_shear #
lump $-1 $-1 $26 $5 #
transform $-1 1 0 0 0 1 0 0 0 1 69.052400280770286 36.889201221803269 15.322522519275767 1 rotate no_reflect no_shear #
lump $-1 $-1 $27 $6 #
transform $-1 1 0 0 0 1 0 0 0 1 69.052400280770286 36.889201221803269 15.322522519275767 1 rotate no_reflect no_shear #
shell $-1 $-1 $-1 $28 $-1 $7 #
shell $-1 $-1 $-1 $29 $-1 $9 #
shell $-1 $-1 $-1 $30 $-1 $11 #
shell $-1 $-1 $-1 $31 $-1 $13 #
shell $-1 $-1 $-1 $32 $-1 $15 #
shell $-1 $-1 $-1 $33 $-1 $17 #
shell $-1 $-1 $-1 $34 $-1 $19 #
face $-1 $35 $36 $21 $-1 $37 forward single #
face $-1 $38 $39 $22 $-1 $40 forward single #
face $-1 $41 $42 $23 $-1 $43 forward single #
face $-1 $44 $45 $24 $-1 $46 reversed single #
face $-1 $47 $48 $25 $-1 $49 forward single #
face $-1 $50 $51 $26 $-1 $52 reversed single #
face $-1 $53 $54 $27 $-1 $55 forward single #
face $-1 $56 $57 $21 $-1 $58 reversed single #
loop $-1 $-1 $59 $28 #
plane-surface $-1 0 0 15.322522519275767 0 0 1 1 0 0 forward_v I I I I #
face $-1 $60 $61 $22 $-1 $62 reversed single #
loop $-1 $-1 $63 $29 #
plane-surface $-1 -60.759986890345587 0 5.7497563468520871 0 0 1 1 0 0 forward_v I I I I #
face $-1 $64 $65 $23 $-1 $66 reversed single #
loop $-1 $-1 $67 $30 #
plane-surface $-1 60.759986890345573 0 5.7497563468520871 0 0 1 1 0 0 forward_v I I I I #
face $-1 $68 $69 $24 $-1 $70 reversed single #
loop $-1 $-1 $71 $31 #
plane-surface $-1 -22.138635554365855 112.53103684770068 147.87031022756582 -1 0 0 0 0.83867057594974714 0.54463902268945019 forward_v I I I I #
face $-1 $72 $73 $25 $-1 $74 forward single #
loop $-1 $75 $76 $32 #
cone-surface $-1 -37.303104527143368 34.588696429300711 12.514366533439905 0 -0.83867057594974714 -0.54463902268945019 1 0 0 1 I I 0 1 1 forward I I I I #
face $-1 $77 $78 $26 $-1 $79 reversed single #
loop $-1 $-1 $80 $33 #
plane-surface $-1 -11.809845512402056 -120.0027460213602 111.03737332855076 1 0 0 0 0.6018150307709319 -0.79863550430605224 forward_v I I I I #
face $-1 $81 $82 $27 $-1 $83 forward single #
loop $-1 $84 $85 $34 #
cone-surface $-1 1.3492403294418551 -23.43570185377849 3.0173731683349887 0 0.6018150307709319 -0.79863550430605224 4 0 0 1 I I 0 1 4 forward I I I I #
face $-1 $86 $87 $21 $-1 $88 reversed single #
loop $-1 $-1 $89 $35 #
plane-surface $-1 0 0 -15.322522519275767 0 0 1 1 0 0 forward_v I I I I #
coedge $-1 $90 $91 $92 $93 forward $36 $-1 #
face $-1 $94 $95 $22 $-1 $96 reversed single #
loop $-1 $-1 $97 $38 #
plane-surface $-1 -60.759986890345587 0 -2.6286010242183151 0 0 1 1 0 0 forward_v I I I I #
coedge $-1 $98 $99 $100 $101 forward $39 $-1 #
face $-1 $102 $103 $23 $-1 $104 reversed single #
loop $-1 $-1 $105 $41 #
plane-surface $-1 60.759986890345573 0 -2.6286010242183151 0 0 1 1 0 0 forward_v I I I I #
coedge $-1 $106 $107 $108 $109 reversed $42 $-1 #
face $-1 $110 $111 $24 $-1 $112 reversed single #
loop $-1 $-1 $113 $44 #
plane-surface $-1 -37.303104527143368 -3.2933957806715171 72.653046621006936 0 0.83867057594974714 0.54463902268945019 1 0 0 forward_v I I I I #
coedge $-1 $114 $115 $116 $117 reversed $45 $-1 #
face $-1 $-1 $118 $25 $-1 $119 forward single #
loop $-1 $120 $121 $47 #
cone-surface $-1 -37.303104527143368 33.344716612179901 11.7065166204096 0 -0.83867057594974714 -0.54463902268945019 0.5 0 0 1 I I -0.70710678118654746 0.70710678118654746 0.5 forward I I I I #
loop $-1 $-1 $122 $32 #
coedge $-1 $76 $76 $123 $124 reversed $48 $-1 #
face $-1 $125 $126 $26 $-1 $127 reversed single #
loop $-1 $-1 $128 $50 #
plane-surface $-1 1.3492403294418693 -36.889201221803248 0.74197628499803159 0 -0.6018150307709319 0.79863550430605224 1 0 0 forward_v I I I I #
coedge $-1 $129 $130 $131 $132 reversed $51 $-1 #
face $-1 $-1 $133 $27 $-1 $134 forward single #
loop $-1 $135 $136 $53 #
cone-surface $-1 1.3492403294418551 -18.453091420483268 -3.5947740740790337 0 0.6018150307709319 -0.79863550430605224 2 0 0 1 I I -0.70710678118654768 0.70710678118654735 2 forward I I I I #
loop $-1 $-1 $137 $34 #
coedge $-1 $85 $85 $138 $139 reversed $54 $-1 #
face $-1 $140 $141 $21 $-1 $142 reversed single #
loop $-1 $-1 $143 $56 #
plane-surface $-1 0 -36.889201221803269 0 0 1 0 0 0 1 forward_v I I I I #
coedge $-1 $144 $145 $146 $147 forward $57 $-1 #
coedge $-1 $148 $59 $149 $150 forward $36 $-1 #
coedge $-1 $59 $148 $151 $152 forward $36 $-1 #
coedge $-1 $153 $154 $59 $93 reversed $155 $-1 #
edge $-1 $156 -36.889201221803269 $157 36.889201221803269 $92 $158 forward 7 unknown #
face $-1 $159 $160 $22 $-1 $161 reversed single #
loop $-1 $-1 $162 $60 #
plane-surface $-1 -52.467573499920888 0 1.560577661316886 -1 0 0 0 0 1 forward_v I I I I #
coedge $-1 $163 $164 $165 $166 forward $61 $-1 #
coedge $-1 $167 $63 $168 $169 reversed $39 $-1 #
coedge $-1 $63 $167 $170 $171 reversed $39 $-1 #
coedge $-1 $162 $172 $63 $101 reversed $95 $-1 #
edge $-1 $173 -36.889201221803269 $174 36.889201221803269 $100 $175 forward 7 unknown #
face $-1 $176 $177 $23 $-1 $178 reversed single #
loop $-1 $-1 $179 $64 #
plane-surface $-1 52.467573499920874 0 1.560577661316886 1 0 0 0 0 -1 forward_v I I I I #
coedge $-1 $180 $181 $182 $183 reversed $65 $-1 #
coedge $-1 $184 $67 $185 $186 reversed $42 $-1 #
coedge $-1 $67 $184 $187 $188 reversed $42 $-1 #
coedge $-1 $189 $190 $67 $109 forward $191 $-1 #
edge $-1 $192 -36.889201221803269 $193 36.889201221803269 $108 $194 forward 7 unknown #
face $-1 $195 $196 $24 $-1 $197 reversed single #
loop $-1 $-1 $198 $68 #
plane-surface $-1 -52.467573499920881 112.53103684770068 147.87031022756582 1 0 0 0 -0.83867057594974714 -0.54463902268945019 forward_v I I I I #
coedge $-1 $199 $200 $201 $202 reversed $69 $-1 #
coedge $-1 $115 $71 $203 $204 reversed $45 $-1 #
coedge $-1 $71 $114 $199 $205 reversed $45 $-1 #
coedge $-1 $201 $206 $71 $117 forward $196 $-1 #
edge $-1 $207 58.612632594507147 $208 63.157883762807664 $116 $209 forward 7 unknown #
loop $-1 $-1 $123 $72 #
plane-surface $-1 -37.303104527143368 -3.2933957806715171 72.653046621006936 0 0.83867057594974714 0.54463902268945019 1 0 0 forward_v I I I I #
loop $-1 $-1 $210 $47 #
coedge $-1 $121 $121 $122 $211 reversed $73 $-1 #
coedge $-1 $122 $122 $121 $211 forward $75 $-1 #
coedge $-1 $123 $123 $76 $124 forward $118 $-1 #
edge $-1 $212 -1.7806731693010629e-015 $212 6.2831853071795987 $123 $213 forward 7 unknown #
face $-1 $214 $215 $26 $-1 $216 forward single #
loop $-1 $-1 $217 $77 #
plane-surface $-1 14.508326171285795 -120.0027460213602 111.03737332855076 -1 0 0 0 -0.6018150307709319 0.79863550430605224 forward_v I I I I #
coedge $-1 $218 $219 $220 $221 reversed $78 $-1 #
coedge $-1 $130 $80 $222 $223 reversed $51 $-1 #
coedge $-1 $80 $129 $218 $224 reversed $51 $-1 #
coedge $-1 $220 $225 $80 $132 forward $226 $-1 #
edge $-1 $227 40.196164144999614 $228 54.776710379277361 $131 $229 forward 7 unknown #
loop $-1 $-1 $138 $81 #
plane-surface $-1 1.3492403294418693 -36.889201221803248 0.74197628499803159 0 -0.6018150307709319 0.79863550430605224 1 0 0 forward_v I I I I #
loop $-1 $-1 $230 $53 #
coedge $-1 $136 $136 $137 $231 reversed $82 $-1 #
coedge $-1 $137 $137 $136 $231 forward $84 $-1 #
coedge $-1 $138 $138 $85 $139 forward $133 $-1 #
edge $-1 $232 -1.6472766561430553e-016 $232 6.2831853071796004 $138 $233 forward 7 unknown #
face $-1 $234 $235 $21 $-1 $236 reversed single #
loop $-1 $-1 $237 $86 #
plane-surface $-1 -69.052400280770286 0 0 1 0 0 0 0 -1 forward_v I I I I #
coedge $-1 $238 $151 $239 $240 forward $87 $-1 #
coedge $-1 $241 $89 $238 $242 forward $57 $-1 #
coedge $-1 $89 $241 $243 $244 forward $57 $-1 #
coedge $-1 $154 $153 $89 $147 reversed $155 $-1 #
edge $-1 $245 -36.889201221803269 $246 36.889201221803269 $146 $247 forward 7 unknown #
coedge $-1 $91 $90 $248 $249 forward $36 $-1 #
coedge $-1 $250 $251 $90 $150 reversed $235 $-1 #
edge $-1 $157 -69.052400280770286 $252 69.052400280770286 $149 $253 forward 7 unknown #
coedge $-1 $143 $254 $91 $152 reversed $87 $-1 #
edge $-1 $255 -69.052400280770286 $156 69.052400280770286 $151 $256 forward 7 unknown #
coedge $-1 $146 $92 $254 $257 forward $155 $-1 #
coedge $-1 $92 $146 $250 $258 reversed $155 $-1 #
loop $-1 $-1 $153 $234 #
vertex $-1 $93 $259 #
vertex $-1 $93 $260 #
straight-curve $-1 69.052400280770286 0 15.322522519275767 0 1 0 I I #
face $-1 $261 $262 $22 $-1 $263 reversed single #
loop $-1 $-1 $264 $94 #
plane-surface $-1 0 -36.889201221803269 0 0 1 0 0 0 1 forward_v I I I I #
coedge $-1 $165 $100 $265 $266 reversed $95 $-1 #
coedge $-1 $267 $97 $264 $268 reversed $61 $-1 #
coedge $-1 $97 $267 $269 $270 reversed $61 $-1 #
coedge $-1 $172 $162 $97 $166 reversed $95 $-1 #
edge $-1 $271 -36.889201221803269 $272 36.889201221803269 $165 $273 forward 7 unknown #
coedge $-1 $99 $98 $274 $275 reversed $39 $-1 #
coedge $-1 $276 $277 $98 $169 forward $278 $-1 #
edge $-1 $279 -38.672406835597492 $174 -22.087580054748095 $168 $280 forward 7 unknown #
coedge $-1 $281 $265 $99 $171 forward $160 $-1 #
edge $-1 $173 22.087580054748095 $282 38.672406835597492 $170 $283 forward 7 unknown #
coedge $-1 $100 $165 $276 $284 reversed $95 $-1 #
vertex $-1 $171 $285 #
vertex $-1 $169 $286 #
straight-curve $-1 -52.467573499920888 0 5.7497563468520871 0 1 0 I I #
face $-1 $287 $288 $23 $-1 $289 reversed single #
loop $-1 $-1 $187 $102 #
plane-surface $-1 0 -36.889201221803269 0 0 1 0 0 0 1 forward_v I I I I #
coedge $-1 $290 $291 $292 $293 reversed $103 $-1 #
coedge $-1 $294 $105 $295 $296 reversed $65 $-1 #
coedge $-1 $105 $294 $297 $298 reversed $65 $-1 #
coedge $-1 $190 $189 $105 $183 forward $191 $-1 #
edge $-1 $299 -36.889201221803269 $300 36.889201221803269 $182 $301 forward 7 unknown #
coedge $-1 $107 $106 $291 $302 forward $42 $-1 #
coedge $-1 $303 $292 $106 $186 forward $288 $-1 #
edge $-1 $304 22.087580054748088 $192 38.672406835597485 $185 $305 forward 7 unknown #
coedge $-1 $306 $307 $107 $188 forward $177 $-1 #
edge $-1 $193 -38.672406835597485 $308 -22.087580054748088 $187 $309 forward 7 unknown #
coedge $-1 $182 $108 $307 $310 forward $191 $-1 #
coedge $-1 $108 $182 $303 $311 reversed $191 $-1 #
loop $-1 $-1 $108 $287 #
vertex $-1 $311 $312 #
vertex $-1 $310 $313 #
straight-curve $-1 69.052400280770286 0 5.7497563468520871 0 -1 0 I I #
face $-1 $-1 $314 $24 $-1 $315 forward single #
loop $-1 $-1 $116 $110 #
plane-surface $-1 0 36.889201221803269 0 0 -1 0 0 0 -1 forward_v I I I I #
coedge $-1 $316 $317 $318 $319 reversed $111 $-1 #
coedge $-1 $320 $113 $115 $205 forward $69 $-1 #
coedge $-1 $113 $320 $316 $321 forward $69 $-1 #
coedge $-1 $318 $116 $113 $202 forward $196 $-1 #
edge $-1 $208 3.4870832907941711 $322 33.816021236349201 $201 $323 forward 7 unknown #
coedge $-1 $324 $325 $114 $204 forward $314 $-1 #
edge $-1 $326 -22.3280377287603 $207 -19.376317202047069 $203 $327 forward 7 unknown #
edge $-1 $208 -73.778402443606495 $326 -68.358811845530155 $115 $328 forward 7 unknown #
coedge $-1 $116 $318 $324 $329 reversed $196 $-1 #
vertex $-1 $329 $330 #
vertex $-1 $117 $331 #
straight-curve $-1 -22.138635554365855 36.889201221803269 73.935155113782912 0 0 -1 I I #
coedge $-1 $210 $210 $-1 $332 reversed $120 $-1 #
edge $-1 $333 0 $333 6.2831853071796004 $121 $334 forward 7 unknown #
vertex $-1 $124 $335 #
ellipse-curve $-1 -37.303104527143368 35.413340958446661 13.049896935125492 0 0.83867057594974714 0.54463902268945019 1 0 0 1 I I #
face $-1 $-1 $226 $26 $-1 $336 reversed single #
loop $-1 $-1 $337 $125 #
plane-surface $-1 0 0 15.322522519275767 0 0 1 1 0 0 forward_v I I I I #
coedge $-1 $338 $339 $340 $341 reversed $126 $-1 #
coedge $-1 $342 $128 $130 $224 forward $78 $-1 #
coedge $-1 $128 $342 $338 $343 forward $78 $-1 #
coedge $-1 $340 $131 $128 $221 forward $226 $-1 #
edge $-1 $228 -12.484465677122991 $344 13.83370600656486 $220 $345 forward 7 unknown #
coedge $-1 $346 $347 $129 $223 forward $215 $-1 #
edge $-1 $348 -42.461209781419704 $227 -23.112171788876829 $222 $349 forward 7 unknown #
edge $-1 $228 -2.6712098787190181e-014 $348 24.227620595650279 $130 $350 forward 7 unknown #
coedge $-1 $131 $340 $346 $351 reversed $226 $-1 #
loop $-1 $-1 $340 $214 #
vertex $-1 $351 $352 #
vertex $-1 $132 $353 #
straight-curve $-1 -11.809845512402056 -36.889201221803269 55.518686664275378 0 0 -1 I I #
coedge $-1 $230 $230 $-1 $354 reversed $135 $-1 #
edge $-1 $355 0 $355 6.2831853071796004 $136 $356 forward 7 unknown #
vertex $-1 $139 $357 #
ellipse-curve $-1 1.3492403294418551 -27.214682225531835 8.0322494021368893 0 -0.6018150307709319 0.79863550430605224 4 0 0 1 I I #
face $-1 $-1 $155 $21 $-1 $358 reversed single #
loop $-1 $-1 $250 $140 #
plane-surface $-1 0 36.889201221803269 0 0 -1 0 0 0 -1 forward_v I I I I #
coedge $-1 $359 $248 $251 $360 forward $141 $-1 #
coedge $-1 $254 $143 $144 $242 reversed $87 $-1 #
coedge $-1 $248 $359 $143 $240 reversed $141 $-1 #
edge $-1 $255 -15.322522519275767 $361 15.322522519275767 $239 $362 forward 7 unknown #
coedge $-1 $145 $144 $359 $363 forward $57 $-1 #
edge $-1 $246 -69.052400280770286 $361 69.052400280770286 $238 $364 forward 7 unknown #
coedge $-1 $251 $250 $145 $244 reversed $235 $-1 #
edge $-1 $365 -69.052400280770286 $245 69.052400280770286 $243 $366 forward 7 unknown #
vertex $-1 $147 $367 #
vertex $-1 $257 $368 #
straight-curve $-1 69.052400280770286 0 -15.322522519275767 0 -1 0 I I #
coedge $-1 $237 $239 $148 $249 reversed $141 $-1 #
edge $-1 $252 -36.889201221803269 $255 36.889201221803269 $248 $369 forward 7 unknown #
coedge $-1 $243 $149 $154 $258 forward $235 $-1 #
coedge $-1 $149 $243 $237 $360 reversed $235 $-1 #
vertex $-1 $150 $370 #
straight-curve $-1 0 36.889201221803269 15.322522519275767 -1 0 0 I I #
coedge $-1 $151 $238 $153 $257 reversed $87 $-1 #
vertex $-1 $249 $371 #
straight-curve $-1 0 -36.889201221803269 15.322522519275767 1 0 0 I I #
edge $-1 $156 -15.322522519275767 $246 15.322522519275767 $153 $372 forward 7 unknown #
edge $-1 $157 -15.322522519275767 $245 15.322522519275767 $154 $373 forward 7 unknown #
point $-1 69.052400280770286 -36.889201221803269 15.322522519275767 #
point $-1 69.052400280770286 36.889201221803269 15.322522519275767 #
face $-1 $-1 $278 $22 $-1 $374 reversed single #
loop $-1 $-1 $375 $159 #
plane-surface $-1 -69.052400280770286 0 0 1 0 0 0 0 -1 forward_v I I I I #
coedge $-1 $265 $281 $163 $268 forward $160 $-1 #
coedge $-1 $170 $264 $162 $266 forward $160 $-1 #
edge $-1 $272 -3.4088898548767581 $173 4.9694675161936441 $265 $376 forward 7 unknown #
coedge $-1 $164 $163 $375 $377 reversed $61 $-1 #
edge $-1 $378 -38.672406835597492 $272 -22.087580054748095 $264 $379 forward 7 unknown #
coedge $-1 $277 $276 $164 $270 forward $278 $-1 #
edge $-1 $271 22.087580054748095 $380 38.672406835597492 $269 $381 forward 7 unknown #
vertex $-1 $270 $382 #
vertex $-1 $268 $383 #
straight-curve $-1 -52.467573499920888 0 -2.6286010242183151 0 -1 0 I I #
coedge $-1 $384 $385 $167 $275 forward $262 $-1 #
edge $-1 $282 -36.889201221803269 $279 36.889201221803269 $274 $386 forward 7 unknown #
coedge $-1 $269 $168 $172 $284 forward $278 $-1 #
coedge $-1 $168 $269 $384 $387 reversed $278 $-1 #
loop $-1 $-1 $269 $261 #
vertex $-1 $387 $388 #
straight-curve $-1 -30.379993445172794 36.889201221803269 5.7497563468520871 1 0 0 I I #
coedge $-1 $264 $170 $385 $389 forward $160 $-1 #
vertex $-1 $389 $390 #
straight-curve $-1 -30.379993445172794 -36.889201221803269 5.7497563468520871 -1 0 0 I I #
edge $-1 $174 -4.9694675161936441 $271 3.4088898548767581 $276 $391 forward 7 unknown #
point $-1 -52.467573499920888 -36.889201221803269 5.7497563468520871 #
point $-1 -52.467573499920888 36.889201221803269 5.7497563468520871 #
face $-1 $-1 $191 $23 $-1 $392 reversed single #
loop $-1 $-1 $185 $176 #
plane-surface $-1 0 36.889201221803269 0 0 -1 0 0 0 -1 forward_v I I I I #
coedge $-1 $393 $179 $294 $394 reversed $103 $-1 #
coedge $-1 $179 $393 $184 $302 reversed $103 $-1 #
coedge $-1 $185 $297 $179 $293 forward $288 $-1 #
edge $-1 $395 -3.4088898548767581 $304 4.9694675161936441 $292 $396 forward 7 unknown #
coedge $-1 $181 $180 $290 $394 forward $65 $-1 #
coedge $-1 $307 $306 $180 $296 forward $177 $-1 #
edge $-1 $397 22.087580054748088 $299 38.672406835597485 $295 $398 forward 7 unknown #
coedge $-1 $292 $303 $181 $298 forward $288 $-1 #
edge $-1 $300 -38.672406835597485 $395 -22.087580054748088 $297 $399 forward 7 unknown #
vertex $-1 $183 $400 #
vertex $-1 $183 $401 #
straight-curve $-1 69.052400280770286 0 -2.6286010242183151 0 1 0 I I #
edge $-1 $304 -36.889201221803269 $308 36.889201221803269 $291 $402 forward 7 unknown #
coedge $-1 $297 $185 $190 $311 forward $288 $-1 #
vertex $-1 $186 $403 #
straight-curve $-1 30.379993445172786 36.889201221803269 5.7497563468520871 1 0 0 I I #
coedge $-1 $295 $187 $393 $404 forward $177 $-1 #
coedge $-1 $187 $295 $189 $310 reversed $177 $-1 #
vertex $-1 $188 $405 #
straight-curve $-1 30.379993445172786 -36.889201221803269 5.7497563468520871 -1 0 0 I I #
edge $-1 $193 -5.7497563468520871 $299 2.6286010242183151 $189 $406 forward 7 unknown #
edge $-1 $192 -5.7497563468520871 $300 2.6286010242183151 $190 $407 forward 7 unknown #
point $-1 69.052400280770271 36.889201221803269 5.7497563468520871 #
point $-1 69.052400280770271 -36.889201221803269 5.7497563468520871 #
loop $-1 $-1 $203 $195 #
plane-surface $-1 0 0 15.322522519275767 0 0 1 1 0 0 forward_v I I I I #
coedge $-1 $317 $198 $200 $321 reversed $111 $-1 #
coedge $-1 $198 $316 $408 $409 reversed $111 $-1 #
coedge $-1 $206 $201 $198 $319 forward $196 $-1 #
edge $-1 $322 -63.157883762807664 $410 -58.612632594507147 $318 $411 forward 7 unknown #
coedge $-1 $200 $199 $325 $412 reversed $69 $-1 #
edge $-1 $413 68.358811845530155 $322 73.778402443606495 $316 $414 forward 7 unknown #
vertex $-1 $202 $415 #
straight-curve $-1 -18.651552263571684 36.889201221803262 10.777271350975244 -1 0 0 I I #
coedge $-1 $408 $203 $206 $329 forward $314 $-1 #
coedge $-1 $203 $408 $320 $412 forward $314 $-1 #
vertex $-1 $204 $416 #
straight-curve $-1 -22.138635554365855 56.265518423850338 15.322522519275765 0 1 0 I I #
straight-curve $-1 -22.138635554365855 -3.2933957806715171 72.653046621006936 0 -0.54463902268945019 0.83867057594974714 I I #
edge $-1 $207 22.138635554365855 $410 52.467573499920881 $206 $417 forward 7 unknown #
point $-1 -22.138635554365855 36.889201221803269 15.322522519275767 #
point $-1 -22.138635554365855 36.889201221803269 10.777271350975248 #
edge $-1 $418 1 $418 0 $210 $-1 forward 7 unknown #
vertex $-1 $211 $419 #
ellipse-curve $-1 -37.303104527143368 33.764051900154776 11.978836131754324 0 0.83867057594974714 0.54463902268945019 1 0 0 1 I I #
point $-1 -36.303104527143368 35.413340958446646 13.049896935125485 #
plane-surface $-1 0 -36.889201221803269 0 0 1 0 0 0 1 forward_v I I I I #
coedge $-1 $347 $346 $339 $420 forward $215 $-1 #
coedge $-1 $339 $217 $219 $343 reversed $126 $-1 #
coedge $-1 $217 $338 $337 $420 reversed $126 $-1 #
coedge $-1 $225 $220 $217 $341 forward $226 $-1 #
edge $-1 $344 -54.776710379277361 $421 -40.196164144999614 $340 $422 forward 7 unknown #
coedge $-1 $219 $218 $347 $423 reversed $78 $-1 #
edge $-1 $424 -24.227620595650279 $344 2.6712098787190181e-014 $338 $425 forward 7 unknown #
vertex $-1 $221 $426 #
straight-curve $-1 0.67462016472093467 -36.889201221803269 0.74197628499802026 1 0 0 I I #
coedge $-1 $337 $222 $225 $351 forward $215 $-1 #
coedge $-1 $222 $337 $342 $423 forward $215 $-1 #
vertex $-1 $223 $427 #
straight-curve $-1 -11.809845512402056 -60.001373010680098 15.322522519275765 0 -1 0 I I #
straight-curve $-1 -11.809845512402056 -36.889201221803248 0.74197628499803159 0 0.79863550430605224 0.6018150307709319 I I #
edge $-1 $227 -11.809845512402056 $421 14.508326171285795 $225 $428 forward 7 unknown #
point $-1 -11.809845512402056 -36.889201221803269 15.322522519275767 #
point $-1 -11.809845512402056 -36.889201221803269 0.74197628499801549 #
edge $-1 $429 1 $429 0 $230 $-1 forward 7 unknown #
vertex $-1 $231 $430 #
ellipse-curve $-1 1.3492403294418551 -19.65672148202513 -1.9975030654669299 0 -0.6018150307709319 0.79863550430605224 4 0 0 1 I I #
point $-1 5.3492403294418551 -27.214682225531849 8.0322494021369071 #
plane-surface $-1 69.052400280770286 0 0 -1 0 0 0 0 1 forward_v I I I I #
coedge $-1 $239 $237 $241 $363 reversed $141 $-1 #
edge $-1 $252 -15.322522519275767 $365 15.322522519275767 $251 $431 forward 7 unknown #
vertex $-1 $363 $432 #
straight-curve $-1 -69.052400280770286 -36.889201221803269 0 0 0 -1 I I #
edge $-1 $361 -36.889201221803269 $365 36.889201221803269 $359 $433 forward 7 unknown #
straight-curve $-1 0 -36.889201221803269 -15.322522519275767 -1 0 0 I I #
vertex $-1 $244 $434 #
straight-curve $-1 0 36.889201221803269 -15.322522519275767 1 0 0 I I #
point $-1 69.052400280770286 36.889201221803269 -15.322522519275767 #
point $-1 69.052400280770286 -36.889201221803269 -15.322522519275767 #
straight-curve $-1 -69.052400280770286 0 15.322522519275767 0 -1 0 I I #
point $-1 -69.052400280770286 36.889201221803269 15.322522519275767 #
point $-1 -69.052400280770286 -36.889201221803269 15.322522519275767 #
straight-curve $-1 69.052400280770286 -36.889201221803269 0 0 0 -1 I I #
straight-curve $-1 69.052400280770286 36.889201221803269 0 0 0 -1 I I #
plane-surface $-1 0 36.889201221803269 0 0 -1 0 0 0 -1 forward_v I I I I #
coedge $-1 $385 $384 $267 $377 forward $262 $-1 #
straight-curve $-1 -52.467573499920888 -36.889201221803269 0.78028883065844301 0 0 1 I I #
edge $-1 $380 -36.889201221803269 $378 36.889201221803269 $375 $435 forward 7 unknown #
vertex $-1 $268 $436 #
straight-curve $-1 -30.379993445172794 -36.889201221803269 -2.6286010242183151 1 0 0 I I #
vertex $-1 $270 $437 #
straight-curve $-1 -30.379993445172794 36.889201221803269 -2.6286010242183151 -1 0 0 I I #
point $-1 -52.467573499920888 36.889201221803269 -2.6286010242183151 #
point $-1 -52.467573499920888 -36.889201221803269 -2.6286010242183151 #
coedge $-1 $375 $274 $277 $387 forward $262 $-1 #
coedge $-1 $274 $375 $281 $389 reversed $262 $-1 #
straight-curve $-1 -69.052400280770286 0 5.7497563468520871 0 1 0 I I #
edge $-1 $279 -5.7497563468520871 $380 2.6286010242183151 $277 $438 forward 7 unknown #
point $-1 -69.052400280770286 36.889201221803269 5.7497563468520871 #
edge $-1 $282 -5.7497563468520871 $378 2.6286010242183151 $385 $439 forward 7 unknown #
point $-1 -69.052400280770286 -36.889201221803269 5.7497563468520871 #
straight-curve $-1 -52.467573499920888 36.889201221803269 0.78028883065844301 0 0 -1 I I #
plane-surface $-1 69.052400280770286 0 0 -1 0 0 0 0 1 forward_v I I I I #
coedge $-1 $291 $290 $306 $404 reversed $103 $-1 #
edge $-1 $397 -36.889201221803269 $395 36.889201221803269 $290 $440 forward 7 unknown #
vertex $-1 $298 $441 #
straight-curve $-1 52.467573499920874 36.889201221803269 0.78028883065844301 0 0 1 I I #
vertex $-1 $296 $442 #
straight-curve $-1 30.379993445172786 -36.889201221803269 -2.6286010242183151 1 0 0 I I #
straight-curve $-1 30.379993445172786 36.889201221803269 -2.6286010242183151 -1 0 0 I I #
point $-1 69.052400280770271 -36.889201221803269 -2.6286010242183151 #
point $-1 69.052400280770271 36.889201221803269 -2.6286010242183151 #
straight-curve $-1 52.467573499920874 0 5.7497563468520871 0 -1 0 I I #
point $-1 52.467573499920874 36.889201221803269 5.7497563468520871 #
edge $-1 $308 -4.9694675161936441 $397 3.4088898548767581 $306 $443 forward 7 unknown #
point $-1 52.467573499920874 -36.889201221803269 5.7497563468520871 #
straight-curve $-1 69.052400280770286 -36.889201221803269 0 0 0 -1 I I #
straight-curve $-1 69.052400280770286 36.889201221803269 0 0 0 -1 I I #
coedge $-1 $325 $324 $317 $409 forward $314 $-1 #
edge $-1 $410 19.376317202047069 $413 22.3280377287603 $408 $444 forward 7 unknown #
vertex $-1 $409 $445 #
straight-curve $-1 -52.467573499920881 36.889201221803269 73.935155113782912 0 0 1 I I #
edge $-1 $413 -33.816021236349201 $326 -3.4870832907941711 $325 $446 forward 7 unknown #
vertex $-1 $412 $447 #
straight-curve $-1 -52.467573499920881 -3.2933957806715171 72.653046621006936 0 0.54463902268945019 -0.83867057594974714 I I #
point $-1 -52.467573499920881 36.889201221803269 10.777271350975248 #
point $-1 -22.138635554365855 33.937480695090038 15.322522519275765 #
straight-curve $-1 0 36.889201221803269 15.322522519275767 -1 0 0 I I #
vertex $-1 $332 $448 #
point $-1 -36.303104527143368 33.764051900154776 11.978836131754324 #
edge $-1 $421 23.112171788876829 $424 42.461209781419704 $337 $449 forward 7 unknown #
vertex $-1 $341 $450 #
straight-curve $-1 14.508326171285795 -36.889201221803269 55.518686664275378 0 0 1 I I #
edge $-1 $424 -13.83370600656486 $348 12.484465677122991 $347 $451 forward 7 unknown #
vertex $-1 $423 $452 #
straight-curve $-1 14.508326171285795 -36.889201221803248 0.74197628499803159 0 -0.79863550430605224 -0.6018150307709319 I I #
point $-1 14.508326171285795 -36.889201221803269 0.74197628499801549 #
point $-1 -11.809845512402056 -17.540163229260394 15.322522519275767 #
straight-curve $-1 0 -36.889201221803269 15.322522519275767 1 0 0 I I #
vertex $-1 $354 $453 #
point $-1 5.3492403294418551 -19.65672148202513 -1.9975030654669299 #
straight-curve $-1 -69.052400280770286 36.889201221803269 0 0 0 -1 I I #
point $-1 -69.052400280770286 -36.889201221803269 -15.322522519275767 #
straight-curve $-1 -69.052400280770286 0 -15.322522519275767 0 1 0 I I #
point $-1 -69.052400280770286 36.889201221803269 -15.322522519275767 #
straight-curve $-1 -69.052400280770286 0 -2.6286010242183151 0 -1 0 I I #
point $-1 -69.052400280770286 -36.889201221803269 -2.6286010242183151 #
point $-1 -69.052400280770286 36.889201221803269 -2.6286010242183151 #
straight-curve $-1 -69.052400280770286 36.889201221803269 0 0 0 -1 I I #
straight-curve $-1 -69.052400280770286 -36.889201221803269 0 0 0 -1 I I #
straight-curve $-1 52.467573499920874 0 -2.6286010242183151 0 1 0 I I #
point $-1 52.467573499920874 36.889201221803269 -2.6286010242183151 #
point $-1 52.467573499920874 -36.889201221803269 -2.6286010242183151 #
straight-curve $-1 52.467573499920874 -36.889201221803269 0.78028883065844301 0 0 -1 I I #
straight-curve $-1 -52.467573499920881 56.265518423850338 15.322522519275765 0 -1 0 I I #
point $-1 -52.467573499920881 36.889201221803269 15.322522519275767 #
straight-curve $-1 -18.651552263571684 33.937480695090038 15.322522519275765 1 0 0 I I #
point $-1 -52.467573499920881 33.937480695090038 15.322522519275765 #
point $-1 -37.303104527143368 32.925381324205027 11.434197109064876 #
straight-curve $-1 14.508326171285795 -60.001373010680098 15.322522519275765 0 1 0 I I #
point $-1 14.508326171285795 -36.889201221803269 15.322522519275767 #
straight-curve $-1 0.67462016472093467 -17.540163229260394 15.322522519275767 -1 0 0 I I #
point $-1 14.508326171285795 -17.540163229260394 15.322522519275767 #
point $-1 1.3492403294418551 -17.249461358941407 -5.1920450826911377 #
End-of-ACIS-data 