500 0 4 0           
7 Unknown 11 ACIS 5.0 NT 24 Thu Mar 25 18:14:02 1999 
-1 9.9999999999999995e-007 1e-010 
body $-1 $4 $-1 $5 #
body $-1 $6 $-1 $7 #
body $-1 $8 $-1 $9 #
body $-1 $10 $-1 $11 #
lump $-1 $-1 $12 $0 #
transform $-1 1 0 0 0 1 0 0 0 1 51.454206976531268 29.375080667353735 8.9173231421298151 1 rotate no_reflect no_shear #
lump $-1 $-1 $13 $1 #
transform $-1 1 0 0 0 1 0 0 0 1 51.454206976531268 29.375080667353735 8.9173231421298151 1 rotate no_reflect no_shear #
lump $-1 $-1 $14 $2 #
transform $-1 1 0 0 0 1 0 0 0 1 51.454206976531268 29.375080667353735 8.9173231421298151 1 rotate no_reflect no_shear #
lump $-1 $-1 $15 $3 #
transform $-1 1 0 0 0 1 0 0 0 1 51.454206976531268 29.375080667353735 8.9173231421298151 1 rotate no_reflect no_shear #
shell $-1 $-1 $-1 $16 $-1 $4 #
shell $-1 $-1 $-1 $17 $-1 $6 #
shell $-1 $-1 $-1 $18 $-1 $8 #
shell $-1 $-1 $-1 $19 $-1 $10 #
face $-1 $20 $21 $12 $-1 $22 forward single #
face $-1 $23 $24 $13 $-1 $25 forward single #
face $-1 $26 $27 $14 $-1 $28 forward single #
face $-1 $29 $30 $15 $-1 $31 reversed single #
face $-1 $32 $33 $12 $-1 $34 reversed single #
loop $-1 $-1 $35 $16 #
plane-surface $-1 0 0 8.9173231421298151 0 0 1 1 0 0 forward_v I I I I #
face $-1 $36 $37 $13 $-1 $38 forward single #
loop $-1 $-1 $39 $17 #
plane-surface $-1 0 -25.471784876170286 5.9173231421298151 0 0 1 1 0 0 forward_v I I I I #
face $-1 $40 $41 $14 $-1 $42 forward single #
loop $-1 $-1 $43 $18 #
plane-surface $-1 -32.843430154996305 22.962524411500418 62.611595099104164 0.57357644374324357 0 0.81915203911291934 0.81915203911291934 0 -0.57357644374324357 forward_v I I I I #
face $-1 $44 $45 $15 $-1 $46 reversed single #
loop $-1 $47 $48 $19 #
cone-surface $-1 46.596176856310557 22.962524411500418 4.7507051358380137 -0.57357644374324357 0 -0.81915203911291934 0.81915203911291934 0 -0.57357644374324357 1 I I 0 1 1 forward I I I I #
face $-1 $49 $50 $12 $-1 $51 reversed single #
loop $-1 $-1 $52 $20 #
plane-surface $-1 0 0 -8.9173231421298151 0 0 1 1 0 0 forward_v I I I I #
coedge $-1 $53 $54 $55 $56 forward $21 $-1 #
face $-1 $57 $58 $13 $-1 $59 forward single #
loop $-1 $-1 $60 $23 #
plane-surface $-1 0 -21.568489084986837 7.4173231421298151 0 -1 0 0 0 -1 forward_v I I I I #
coedge $-1 $61 $62 $63 $64 reversed $24 $-1 #
face $-1 $65 $66 $14 $-1 $67 forward single #
loop $-1 $-1 $68 $26 #
plane-surface $-1 26.182411951458889 16.549968155647104 146.90923223063174 0 1 0 0.57357644374324357 0 0.81915203911291934 forward_v I I I I #
coedge $-1 $69 $70 $71 $72 reversed $27 $-1 #
face $-1 $73 $74 $15 $-1 $75 forward single #
loop $-1 $76 $77 $29 #
cone-surface $-1 45.258494081989042 22.962524411500418 2.8402961847301729 -0.57357644374324357 0 -0.81915203911291934 0.40957601955645967 0 -0.28678822187162178 1 I I -0.70710678118654724 0.70710678118654791 0.5 forward I I I I #
loop $-1 $-1 $78 $19 #
coedge $-1 $48 $48 $79 $80 reversed $30 $-1 #
face $-1 $81 $82 $12 $-1 $83 reversed single #
loop $-1 $-1 $84 $32 #
plane-surface $-1 0 -29.375080667353735 0 0 1 0 0 0 1 forward_v I I I I #
coedge $-1 $85 $86 $87 $88 forward $33 $-1 #
coedge $-1 $89 $35 $90 $91 forward $21 $-1 #
coedge $-1 $35 $89 $92 $93 forward $21 $-1 #
coedge $-1 $94 $95 $35 $56 reversed $96 $-1 #
edge $-1 $97 -29.375080667353735 $98 29.375080667353735 $55 $99 forward 7 unknown #
face $-1 $100 $101 $13 $-1 $102 reversed single #
loop $-1 $-1 $103 $36 #
plane-surface $-1 0 0 8.9173231421298151 0 0 1 1 0 0 forward_v I I I I #
coedge $-1 $104 $105 $106 $107 reversed $37 $-1 #
coedge $-1 $108 $39 $105 $109 reversed $24 $-1 #
coedge $-1 $39 $108 $110 $111 reversed $24 $-1 #
coedge $-1 $112 $106 $39 $64 forward $101 $-1 #
edge $-1 $113 8.8325966469016937 $114 16.639188229268591 $63 $115 forward 7 unknown #
face $-1 $116 $117 $14 $-1 $118 reversed single #
loop $-1 $-1 $119 $40 #
plane-surface $-1 0 0 8.9173231421298151 0 0 1 1 0 0 forward_v I I I I #
coedge $-1 $120 $121 $119 $122 reversed $41 $-1 #
coedge $-1 $123 $43 $121 $124 reversed $27 $-1 #
coedge $-1 $43 $123 $125 $126 reversed $27 $-1 #
coedge $-1 $127 $119 $43 $72 forward $66 $-1 #
edge $-1 $128 5.0687059498968949 $129 17.893818461603523 $71 $130 forward 7 unknown #
face $-1 $131 $132 $15 $-1 $133 forward single #
loop $-1 $134 $79 $44 #
plane-surface $-1 -32.843430154996305 22.962524411500418 62.611595099104164 0.57357644374324357 0 0.81915203911291934 0.81915203911291934 0 -0.57357644374324357 forward_v I I I I #
loop $-1 $-1 $135 $29 #
coedge $-1 $77 $77 $78 $136 forward $45 $-1 #
coedge $-1 $78 $78 $77 $136 reversed $47 $-1 #
coedge $-1 $79 $79 $48 $80 forward $74 $-1 #
edge $-1 $137 0 $137 6.2831853071796004 $79 $138 forward 7 unknown #
face $-1 $139 $140 $12 $-1 $141 reversed single #
loop $-1 $-1 $142 $49 #
plane-surface $-1 -51.454206976531268 0 0 1 0 0 0 0 -1 forward_v I I I I #
coedge $-1 $143 $92 $144 $145 forward $50 $-1 #
coedge $-1 $146 $52 $143 $147 forward $33 $-1 #
coedge $-1 $52 $146 $148 $149 forward $33 $-1 #
coedge $-1 $95 $94 $52 $88 reversed $96 $-1 #
edge $-1 $150 -29.375080667353735 $151 29.375080667353735 $87 $152 forward 7 unknown #
coedge $-1 $54 $53 $153 $154 forward $21 $-1 #
coedge $-1 $155 $156 $53 $91 reversed $140 $-1 #
edge $-1 $98 -51.454206976531268 $157 51.454206976531268 $90 $158 forward 7 unknown #
coedge $-1 $84 $159 $54 $93 reversed $50 $-1 #
edge $-1 $160 -51.454206976531268 $97 51.454206976531268 $92 $161 forward 7 unknown #
coedge $-1 $87 $55 $159 $162 forward $96 $-1 #
coedge $-1 $55 $87 $155 $163 reversed $96 $-1 #
loop $-1 $-1 $94 $139 #
vertex $-1 $56 $164 #
vertex $-1 $56 $165 #
straight-curve $-1 51.454206976531268 0 8.9173231421298151 0 1 0 I I #
face $-1 $166 $167 $13 $-1 $168 reversed single #
loop $-1 $-1 $106 $57 #
plane-surface $-1 51.454206976531268 0 0 -1 0 0 0 0 1 forward_v I I I I #
coedge $-1 $169 $170 $104 $171 forward $58 $-1 #
coedge $-1 $172 $60 $103 $171 reversed $37 $-1 #
coedge $-1 $60 $172 $61 $109 forward $37 $-1 #
coedge $-1 $63 $173 $60 $107 forward $101 $-1 #
edge $-1 $174 -5.2086615710649076 $113 -2.2086615710649076 $106 $175 forward 7 unknown #
coedge $-1 $62 $61 $176 $177 reversed $24 $-1 #
edge $-1 $178 -51.454206976531268 $113 51.454206976531268 $105 $179 forward 7 unknown #
coedge $-1 $180 $181 $62 $111 forward $182 $-1 #
edge $-1 $114 -51.454206976531268 $183 51.454206976531268 $110 $184 forward 7 unknown #
coedge $-1 $185 $63 $181 $186 forward $101 $-1 #
vertex $-1 $64 $187 #
vertex $-1 $186 $188 #
straight-curve $-1 51.454206976531268 -12.735892438085143 5.9173231421298151 0 -1 0 I I #
face $-1 $189 $190 $14 $-1 $191 forward single #
loop $-1 $-1 $125 $65 #
plane-surface $-1 0 29.375080667353735 0 0 -1 0 0 0 -1 forward_v I I I I #
coedge $-1 $71 $192 $68 $122 forward $66 $-1 #
coedge $-1 $121 $68 $193 $194 reversed $41 $-1 #
coedge $-1 $68 $120 $69 $124 forward $41 $-1 #
edge $-1 $195 -38.363001000801823 $128 -30.748729865260188 $119 $196 forward 7 unknown #
coedge $-1 $70 $69 $197 $198 reversed $27 $-1 #
edge $-1 $199 -102.90841395306254 $128 -93.613105180118097 $121 $200 forward 7 unknown #
coedge $-1 $201 $202 $70 $126 forward $117 $-1 #
edge $-1 $129 62.204955761636086 $203 71.500264534580523 $125 $204 forward 7 unknown #
coedge $-1 $205 $71 $202 $206 forward $66 $-1 #
vertex $-1 $72 $207 #
vertex $-1 $206 $208 #
straight-curve $-1 43.839935840989611 11.481262205750209 8.917323142129824 0 1 0 I I #
face $-1 $209 $210 $15 $-1 $211 forward single #
loop $-1 $-1 $212 $73 #
plane-surface $-1 26.182411951458889 16.549968155647104 146.90923223063174 0 1 0 0.57357644374324357 0 0.81915203911291934 forward_v I I I I #
loop $-1 $-1 $213 $44 #
coedge $-1 $135 $135 $-1 $214 forward $76 $-1 #
edge $-1 $215 0 $215 6.2831853071796004 $77 $216 forward 7 unknown #
vertex $-1 $80 $217 #
ellipse-curve $-1 47.647071408760446 22.962524411500418 6.2515380673893937 -0.57357644374324357 0 -0.81915203911291934 0.81915203911291934 0 -0.57357644374324357 1 I I #
face $-1 $-1 $96 $12 $-1 $218 reversed single #
loop $-1 $-1 $155 $81 #
plane-surface $-1 0 29.375080667353735 0 0 -1 0 0 0 -1 forward_v I I I I #
coedge $-1 $219 $153 $156 $220 forward $82 $-1 #
coedge $-1 $159 $84 $85 $147 reversed $50 $-1 #
coedge $-1 $153 $219 $84 $145 reversed $82 $-1 #
edge $-1 $160 -8.9173231421298151 $221 8.9173231421298151 $144 $222 forward 7 unknown #
coedge $-1 $86 $85 $219 $223 forward $33 $-1 #
edge $-1 $151 -51.454206976531268 $221 51.454206976531268 $143 $224 forward 7 unknown #
coedge $-1 $156 $155 $86 $149 reversed $140 $-1 #
edge $-1 $225 -51.454206976531268 $150 51.454206976531268 $148 $226 forward 7 unknown #
vertex $-1 $88 $227 #
vertex $-1 $162 $228 #
straight-curve $-1 51.454206976531268 0 -8.9173231421298151 0 -1 0 I I #
coedge $-1 $142 $144 $89 $154 reversed $82 $-1 #
edge $-1 $157 -29.375080667353735 $160 29.375080667353735 $153 $229 forward 7 unknown #
coedge $-1 $148 $90 $95 $163 forward $140 $-1 #
coedge $-1 $90 $148 $142 $220 reversed $140 $-1 #
vertex $-1 $91 $230 #
straight-curve $-1 0 29.375080667353735 8.9173231421298151 -1 0 0 I I #
coedge $-1 $92 $143 $94 $162 reversed $50 $-1 #
vertex $-1 $154 $231 #
straight-curve $-1 0 -29.375080667353735 8.9173231421298151 1 0 0 I I #
edge $-1 $97 -8.9173231421298151 $151 8.9173231421298151 $94 $232 forward 7 unknown #
edge $-1 $98 -8.9173231421298151 $150 8.9173231421298151 $95 $233 forward 7 unknown #
point $-1 51.454206976531268 -29.375080667353735 8.9173231421298151 #
point $-1 51.454206976531268 29.375080667353735 8.9173231421298151 #
face $-1 $234 $182 $13 $-1 $235 reversed single #
loop $-1 $-1 $236 $100 #
plane-surface $-1 0 0 -8.9173231421298151 0 0 1 1 0 0 forward_v I I I I #
coedge $-1 $237 $103 $173 $238 forward $58 $-1 #
coedge $-1 $103 $237 $239 $240 forward $58 $-1 #
edge $-1 $241 -51.454206976531268 $174 51.454206976531268 $103 $242 forward 7 unknown #
coedge $-1 $105 $104 $243 $244 reversed $37 $-1 #
coedge $-1 $106 $245 $169 $238 reversed $101 $-1 #
vertex $-1 $238 $246 #
straight-curve $-1 51.454206976531268 -21.568489084986837 3.7086615710649076 0 0 -1 I I #
coedge $-1 $243 $247 $108 $177 forward $248 $-1 #
edge $-1 $183 -16.639188229268591 $178 -8.8325966469016937 $176 $249 forward 7 unknown #
vertex $-1 $177 $250 #
straight-curve $-1 0 -21.568489084986837 5.9173231421298151 1 0 0 I I #
coedge $-1 $251 $110 $247 $252 forward $182 $-1 #
coedge $-1 $110 $251 $112 $186 reversed $182 $-1 #
loop $-1 $-1 $110 $166 #
vertex $-1 $252 $253 #
straight-curve $-1 0 -29.375080667353735 5.9173231421298151 -1 0 0 I I #
coedge $-1 $245 $112 $236 $254 reversed $101 $-1 #
edge $-1 $114 -5.9173231421298151 $255 8.9173231421298151 $112 $256 forward 7 unknown #
point $-1 51.454206976531268 -21.568489084986837 5.9173231421298151 #
point $-1 51.454206976531268 -29.375080667353735 5.9173231421298151 #
face $-1 $257 $258 $14 $-1 $259 forward single #
loop $-1 $-1 $260 $116 #
plane-surface $-1 0 -25.471784876170286 5.9173231421298151 0 0 1 1 0 0 forward_v I I I I #
coedge $-1 $119 $261 $262 $263 forward $66 $-1 #
coedge $-1 $262 $197 $120 $194 forward $264 $-1 #
edge $-1 $199 -69.868863122666909 $195 -64.537292973186055 $193 $265 forward 7 unknown #
vertex $-1 $194 $266 #
straight-curve $-1 13.091205975729444 16.549968155647104 8.9173231421298169 -1 0 0 I I #
coedge $-1 $193 $267 $123 $198 forward $264 $-1 #
edge $-1 $203 -17.893818461603523 $199 -5.0687059498968949 $197 $268 forward 7 unknown #
vertex $-1 $198 $269 #
straight-curve $-1 -32.843430154996305 16.549968155647104 62.611595099104164 -0.81915203911291934 0 0.57357644374324357 I I #
coedge $-1 $270 $125 $267 $271 forward $117 $-1 #
coedge $-1 $125 $272 $127 $206 reversed $117 $-1 #
vertex $-1 $271 $273 #
straight-curve $-1 -7.1153805140835118 29.375080667353735 44.596620451094822 0.81915203911291934 0 -0.57357644374324357 I I #
coedge $-1 $261 $127 $274 $275 forward $66 $-1 #
edge $-1 $129 -43.839935840989632 $276 51.454206976531268 $202 $277 forward 7 unknown #
point $-1 43.839935840989632 16.549968155647104 8.9173231421298098 #
point $-1 43.839935840989632 29.375080667353732 8.9173231421298098 #
face $-1 $278 $279 $15 $-1 $280 reversed single #
loop $-1 $-1 $281 $131 #
plane-surface $-1 0 0 8.9173231421298151 0 0 1 1 0 0 forward_v I I I I #
coedge $-1 $282 $283 $281 $284 reversed $132 $-1 #
coedge $-1 $285 $286 $287 $288 reversed $134 $-1 #
edge $-1 $289 1 $289 0 $135 $-1 forward 7 unknown #
vertex $-1 $136 $290 #
ellipse-curve $-1 45.545282303860667 22.962524411500418 3.2498722042866328 0.57357644374324357 0 0.81915203911291934 0.81915203911291934 0 -0.57357644374324357 1 I I #
point $-1 48.466223447873368 22.962524411500418 5.6779616236461505 #
plane-surface $-1 51.454206976531268 0 0 -1 0 0 0 0 1 forward_v I I I I #
coedge $-1 $144 $142 $146 $223 reversed $82 $-1 #
edge $-1 $157 -8.9173231421298151 $225 8.9173231421298151 $156 $291 forward 7 unknown #
vertex $-1 $223 $292 #
straight-curve $-1 -51.454206976531268 -29.375080667353735 0 0 0 -1 I I #
edge $-1 $221 -29.375080667353735 $225 29.375080667353735 $219 $293 forward 7 unknown #
straight-curve $-1 0 -29.375080667353735 -8.9173231421298151 -1 0 0 I I #
vertex $-1 $149 $294 #
straight-curve $-1 0 29.375080667353735 -8.9173231421298151 1 0 0 I I #
point $-1 51.454206976531268 29.375080667353735 -8.9173231421298151 #
point $-1 51.454206976531268 -29.375080667353735 -8.9173231421298151 #
straight-curve $-1 -51.454206976531268 0 8.9173231421298151 0 -1 0 I I #
point $-1 -51.454206976531268 29.375080667353735 8.9173231421298151 #
point $-1 -51.454206976531268 -29.375080667353735 8.9173231421298151 #
straight-curve $-1 51.454206976531268 -29.375080667353735 0 0 0 -1 I I #
straight-curve $-1 51.454206976531268 29.375080667353735 0 0 0 -1 I I #
face $-1 $295 $248 $13 $-1 $296 reversed single #
plane-surface $-1 0 -29.375080667353735 0 0 1 0 0 0 1 forward_v I I I I #
coedge $-1 $297 $298 $185 $254 forward $167 $-1 #
coedge $-1 $170 $169 $299 $300 forward $58 $-1 #
edge $-1 $174 -21.568489084986837 $301 29.375080667353735 $173 $302 forward 7 unknown #
coedge $-1 $303 $243 $170 $240 reversed $248 $-1 #
edge $-1 $304 -29.375080667353735 $241 21.568489084986837 $239 $305 forward 7 unknown #
vertex $-1 $244 $306 #
straight-curve $-1 0 -21.568489084986837 8.9173231421298151 1 0 0 I I #
coedge $-1 $239 $176 $172 $244 forward $248 $-1 #
edge $-1 $178 2.2086615710649076 $241 5.2086615710649076 $243 $307 forward 7 unknown #
coedge $-1 $173 $185 $308 $309 reversed $101 $-1 #
point $-1 51.454206976531268 -21.568489084986837 8.9173231421298151 #
coedge $-1 $176 $310 $180 $252 reversed $248 $-1 #
loop $-1 $-1 $243 $234 #
straight-curve $-1 -51.454206976531268 -12.735892438085143 5.9173231421298151 0 1 0 I I #
point $-1 -51.454206976531268 -21.568489084986837 5.9173231421298151 #
coedge $-1 $181 $180 $297 $311 reversed $182 $-1 #
edge $-1 $183 -5.9173231421298151 $312 8.9173231421298151 $247 $313 forward 7 unknown #
point $-1 -51.454206976531268 -29.375080667353735 5.9173231421298151 #
edge $-1 $314 -29.375080667353735 $255 29.375080667353735 $185 $315 forward 7 unknown #
vertex $-1 $186 $316 #
straight-curve $-1 51.454206976531268 -29.375080667353735 0 0 0 -1 I I #
face $-1 $317 $264 $14 $-1 $318 reversed single #
loop $-1 $-1 $319 $189 #
plane-surface $-1 0 -21.568489084986837 7.4173231421298151 0 -1 0 0 0 -1 forward_v I I I I #
coedge $-1 $320 $321 $322 $323 reversed $190 $-1 #
coedge $-1 $192 $205 $324 $325 forward $66 $-1 #
coedge $-1 $326 $193 $192 $263 reversed $264 $-1 #
edge $-1 $327 -21.568489084986837 $195 16.549968155647104 $262 $328 forward 7 unknown #
loop $-1 $-1 $193 $257 #
straight-curve $-1 51.454206976531268 16.549968155647104 73.454616115315872 0 0 1 I I #
point $-1 51.454206976531268 16.549968155647104 8.9173231421298151 #
coedge $-1 $197 $329 $201 $271 reversed $264 $-1 #
straight-curve $-1 51.454206976531268 11.481262205750209 3.5857529926489669 0 -1 0 I I #
point $-1 51.454206976531275 16.549968155647104 3.5857529926489704 #
coedge $-1 $272 $201 $330 $331 reversed $117 $-1 #
edge $-1 $203 -3.5857529926489704 $332 8.9173231421298151 $267 $333 forward 7 unknown #
coedge $-1 $202 $270 $334 $335 reversed $117 $-1 #
point $-1 51.454206976531275 29.375080667353732 3.5857529926489704 #
coedge $-1 $334 $336 $205 $275 reversed $337 $-1 #
edge $-1 $276 -29.375080667353735 $338 21.568489084986837 $274 $339 forward 7 unknown #
vertex $-1 $206 $340 #
straight-curve $-1 0 29.375080667353735 8.9173231421298151 -1 0 0 I I #
face $-1 $341 $342 $15 $-1 $343 forward single #
loop $-1 $-1 $344 $209 #
plane-surface $-1 0 29.375080667353735 0 0 -1 0 0 0 -1 forward_v I I I I #
coedge $-1 $287 $345 $212 $284 forward $210 $-1 #
coedge $-1 $283 $212 $346 $347 reversed $132 $-1 #
coedge $-1 $212 $282 $285 $348 forward $132 $-1 #
edge $-1 $349 -38.363001000801823 $350 -30.748729865260188 $281 $351 forward 7 unknown #
coedge $-1 $352 $213 $283 $348 reversed $134 $-1 #
coedge $-1 $213 $352 $344 $353 reversed $134 $-1 #
coedge $-1 $354 $281 $213 $288 forward $210 $-1 #
edge $-1 $350 5.0687059498968949 $355 17.893818461603523 $287 $356 forward 7 unknown #
vertex $-1 $214 $357 #
point $-1 46.364434342973581 22.962524411500418 2.6762957605433892 #
straight-curve $-1 -51.454206976531268 29.375080667353735 0 0 0 -1 I I #
point $-1 -51.454206976531268 -29.375080667353735 -8.9173231421298151 #
straight-curve $-1 -51.454206976531268 0 -8.9173231421298151 0 1 0 I I #
point $-1 -51.454206976531268 29.375080667353735 -8.9173231421298151 #
face $-1 $-1 $358 $13 $-1 $359 reversed single #
plane-surface $-1 -51.454206976531268 0 0 1 0 0 0 0 -1 forward_v I I I I #
coedge $-1 $360 $236 $251 $311 forward $167 $-1 #
coedge $-1 $236 $360 $361 $362 forward $167 $-1 #
coedge $-1 $308 $363 $237 $300 reversed $358 $-1 #
edge $-1 $301 -51.454206976531268 $304 51.454206976531268 $299 $364 forward 7 unknown #
vertex $-1 $238 $365 #
straight-curve $-1 51.454206976531268 0 8.9173231421298151 0 1 0 I I #
coedge $-1 $310 $239 $363 $366 forward $248 $-1 #
vertex $-1 $300 $367 #
straight-curve $-1 -51.454206976531268 0 8.9173231421298151 0 -1 0 I I #
point $-1 -51.454206976531268 -21.568489084986837 8.9173231421298151 #
straight-curve $-1 -51.454206976531268 -21.568489084986837 3.7086615710649076 0 0 1 I I #
coedge $-1 $361 $299 $245 $309 forward $358 $-1 #
edge $-1 $301 -8.9173231421298151 $314 8.9173231421298151 $245 $368 forward 7 unknown #
coedge $-1 $247 $303 $360 $369 reversed $248 $-1 #
edge $-1 $255 -51.454206976531268 $312 51.454206976531268 $251 $370 forward 7 unknown #
vertex $-1 $369 $371 #
straight-curve $-1 -51.454206976531268 -29.375080667353735 0 0 0 -1 I I #
vertex $-1 $254 $372 #
straight-curve $-1 51.454206976531268 0 -8.9173231421298151 0 -1 0 I I #
point $-1 51.454206976531268 -29.375080667353735 -8.9173231421298151 #
face $-1 $373 $374 $14 $-1 $375 reversed single #
plane-surface $-1 51.454206976531268 0 0 -1 0 0 0 0 1 forward_v I I I I #
coedge $-1 $324 $376 $326 $377 reversed $258 $-1 #
coedge $-1 $378 $260 $376 $379 reversed $190 $-1 #
coedge $-1 $260 $378 $380 $381 reversed $190 $-1 #
coedge $-1 $382 $326 $260 $323 forward $264 $-1 #
edge $-1 $383 8.8325966469016937 $384 16.639188229268591 $322 $385 forward 7 unknown #
coedge $-1 $386 $319 $261 $325 reversed $258 $-1 #
edge $-1 $338 -51.454206976531268 $327 51.454206976531268 $261 $387 forward 7 unknown #
coedge $-1 $322 $262 $319 $377 forward $264 $-1 #
vertex $-1 $263 $388 #
straight-curve $-1 51.454206976531268 0 8.9173231421298151 0 1 0 I I #
coedge $-1 $267 $382 $389 $390 reversed $264 $-1 #
coedge $-1 $389 $391 $270 $331 forward $374 $-1 #
edge $-1 $392 -51.454206976531268 $332 51.454206976531268 $270 $393 forward 7 unknown #
vertex $-1 $390 $394 #
straight-curve $-1 51.454206976531268 29.375080667353735 0 0 0 -1 I I #
coedge $-1 $395 $274 $272 $335 forward $337 $-1 #
edge $-1 $276 -8.9173231421298151 $392 8.9173231421298151 $272 $396 forward 7 unknown #
coedge $-1 $274 $397 $386 $398 forward $337 $-1 #
loop $-1 $-1 $336 $399 #
vertex $-1 $398 $400 #
straight-curve $-1 -51.454206976531268 0 8.9173231421298151 0 -1 0 I I #
point $-1 -51.454206976531268 29.375080667353735 8.9173231421298151 #
face $-1 $401 $402 $15 $-1 $403 forward single #
loop $-1 $-1 $404 $278 #
plane-surface $-1 0 -25.471784876170286 5.9173231421298151 0 0 1 1 0 0 forward_v I I I I #
coedge $-1 $405 $406 $286 $353 forward $279 $-1 #
coedge $-1 $281 $407 $408 $409 forward $210 $-1 #
coedge $-1 $408 $410 $282 $347 forward $411 $-1 #
edge $-1 $412 -69.868863122666909 $349 -64.537292973186055 $346 $413 forward 7 unknown #
edge $-1 $412 -102.90841395306254 $350 -93.613105180118097 $283 $414 forward 7 unknown #
vertex $-1 $347 $415 #
vertex $-1 $288 $416 #
straight-curve $-1 13.091205975729444 16.549968155647104 8.9173231421298169 -1 0 0 I I #
coedge $-1 $286 $285 $410 $417 reversed $134 $-1 #
edge $-1 $355 62.204955761636086 $418 71.500264534580523 $344 $419 forward 7 unknown #
coedge $-1 $420 $287 $406 $421 forward $210 $-1 #
vertex $-1 $421 $422 #
straight-curve $-1 43.839935840989611 11.481262205750209 8.917323142129824 0 1 0 I I #
point $-1 44.971705860117417 22.962524411500418 2.4307201651737129 #
loop $-1 $-1 $308 $295 #
plane-surface $-1 0 29.375080667353735 0 0 -1 0 0 0 -1 forward_v I I I I #
coedge $-1 $298 $297 $310 $369 forward $167 $-1 #
coedge $-1 $363 $308 $298 $362 reversed $358 $-1 #
edge $-1 $423 -51.454206976531268 $314 51.454206976531268 $361 $424 forward 7 unknown #
coedge $-1 $299 $361 $303 $366 reversed $358 $-1 #
straight-curve $-1 0 29.375080667353735 8.9173231421298151 -1 0 0 I I #
point $-1 51.454206976531268 29.375080667353735 8.9173231421298151 #
edge $-1 $304 -8.9173231421298151 $423 8.9173231421298151 $363 $425 forward 7 unknown #
point $-1 -51.454206976531268 29.375080667353735 8.9173231421298151 #
straight-curve $-1 51.454206976531268 29.375080667353735 0 0 0 -1 I I #
edge $-1 $312 -29.375080667353735 $423 29.375080667353735 $310 $426 forward 7 unknown #
straight-curve $-1 0 -29.375080667353735 -8.9173231421298151 -1 0 0 I I #
point $-1 -51.454206976531268 -29.375080667353735 -8.9173231421298151 #
point $-1 51.454206976531268 29.375080667353735 -8.9173231421298151 #
face $-1 $399 $427 $14 $-1 $428 reversed single #
loop $-1 $-1 $389 $317 #
plane-surface $-1 0 0 -8.9173231421298151 0 0 1 1 0 0 forward_v I I I I #
coedge $-1 $319 $386 $320 $379 forward $258 $-1 #
edge $-1 $327 -5.2086615710649076 $383 -2.2086615710649076 $326 $429 forward 7 unknown #
coedge $-1 $321 $320 $397 $430 reversed $190 $-1 #
edge $-1 $431 -51.454206976531268 $383 51.454206976531268 $376 $432 forward 7 unknown #
coedge $-1 $433 $434 $321 $381 forward $427 $-1 #
edge $-1 $384 -51.454206976531268 $435 51.454206976531268 $380 $436 forward 7 unknown #
coedge $-1 $329 $322 $434 $437 forward $264 $-1 #
vertex $-1 $323 $438 #
vertex $-1 $437 $439 #
straight-curve $-1 51.454206976531268 -12.735892438085143 5.9173231421298151 0 -1 0 I I #
coedge $-1 $376 $324 $336 $398 reversed $258 $-1 #
straight-curve $-1 0 -21.568489084986837 8.9173231421298151 1 0 0 I I #
point $-1 51.454206976531268 -21.568489084986837 8.9173231421298151 #
coedge $-1 $440 $330 $329 $390 forward $374 $-1 #
edge $-1 $332 -29.375080667353735 $441 29.375080667353735 $329 $442 forward 7 unknown #
coedge $-1 $330 $440 $395 $443 forward $374 $-1 #
vertex $-1 $331 $444 #
straight-curve $-1 0 29.375080667353735 -8.9173231421298151 1 0 0 I I #
point $-1 51.454206976531268 29.375080667353735 -8.9173231421298151 #
coedge $-1 $445 $334 $391 $443 reversed $337 $-1 #
straight-curve $-1 -51.454206976531268 29.375080667353735 0 0 0 -1 I I #
coedge $-1 $336 $445 $378 $430 forward $337 $-1 #
edge $-1 $431 2.2086615710649076 $338 5.2086615710649076 $336 $446 forward 7 unknown #
face $-1 $-1 $337 $14 $-1 $447 reversed single #
point $-1 -51.454206976531268 -21.568489084986837 8.9173231421298151 #
face $-1 $448 $411 $15 $-1 $449 reversed single #
loop $-1 $-1 $450 $341 #
plane-surface $-1 0 -21.568489084986837 7.4173231421298151 0 -1 0 0 0 -1 forward_v I I I I #
coedge $-1 $451 $452 $453 $454 reversed $342 $-1 #
coedge $-1 $455 $344 $456 $457 forward $279 $-1 #
coedge $-1 $344 $458 $354 $421 reversed $279 $-1 #
coedge $-1 $345 $420 $459 $460 forward $210 $-1 #
coedge $-1 $461 $346 $345 $409 reversed $411 $-1 #
edge $-1 $462 -21.568489084986837 $349 16.549968155647104 $408 $463 forward 7 unknown #
coedge $-1 $346 $456 $352 $417 forward $411 $-1 #
loop $-1 $-1 $346 $401 #
vertex $-1 $417 $464 #
straight-curve $-1 51.454206976531268 16.549968155647104 73.454616115315872 0 0 1 I I #
straight-curve $-1 -32.843430154996305 16.549968155647104 62.611595099104164 -0.81915203911291934 0 0.57357644374324357 I I #
point $-1 51.454206976531268 16.549968155647104 8.9173231421298151 #
point $-1 43.839935840989632 16.549968155647104 8.9173231421298098 #
edge $-1 $418 -17.893818461603523 $412 -5.0687059498968949 $410 $465 forward 7 unknown #
vertex $-1 $457 $466 #
straight-curve $-1 -7.1153805140835118 29.375080667353735 44.596620451094822 0.81915203911291934 0 -0.57357644374324357 I I #
coedge $-1 $407 $354 $467 $468 forward $210 $-1 #
edge $-1 $355 -43.839935840989632 $469 51.454206976531268 $406 $470 forward 7 unknown #
point $-1 43.839935840989632 29.375080667353732 8.9173231421298098 #
vertex $-1 $362 $471 #
straight-curve $-1 0 29.375080667353735 -8.9173231421298151 1 0 0 I I #
straight-curve $-1 -51.454206976531268 29.375080667353735 0 0 0 -1 I I #
straight-curve $-1 -51.454206976531268 0 -8.9173231421298151 0 1 0 I I #
loop $-1 $-1 $380 $373 #
plane-surface $-1 0 -29.375080667353735 0 0 1 0 0 0 1 forward_v I I I I #
straight-curve $-1 51.454206976531268 -21.568489084986837 3.7086615710649076 0 0 -1 I I #
edge $-1 $435 -16.639188229268591 $431 -8.8325966469016937 $397 $472 forward 7 unknown #
vertex $-1 $430 $473 #
straight-curve $-1 0 -21.568489084986837 5.9173231421298151 1 0 0 I I #
coedge $-1 $474 $380 $445 $475 forward $427 $-1 #
coedge $-1 $380 $474 $382 $437 reversed $427 $-1 #
vertex $-1 $475 $476 #
straight-curve $-1 0 -29.375080667353735 5.9173231421298151 -1 0 0 I I #
edge $-1 $384 -5.9173231421298151 $441 8.9173231421298151 $382 $477 forward 7 unknown #
point $-1 51.454206976531268 -21.568489084986837 5.9173231421298151 #
point $-1 51.454206976531268 -29.375080667353735 5.9173231421298151 #
coedge $-1 $391 $389 $474 $478 forward $374 $-1 #
vertex $-1 $437 $479 #
straight-curve $-1 51.454206976531268 0 -8.9173231421298151 0 -1 0 I I #
edge $-1 $480 -29.375080667353735 $392 29.375080667353735 $395 $481 forward 7 unknown #
point $-1 -51.454206976531268 29.375080667353735 -8.9173231421298151 #
coedge $-1 $397 $395 $433 $475 reversed $337 $-1 #
straight-curve $-1 -51.454206976531268 -21.568489084986837 3.7086615710649076 0 0 1 I I #
plane-surface $-1 -51.454206976531268 0 0 1 0 0 0 0 -1 forward_v I I I I #
face $-1 $482 $483 $15 $-1 $484 reversed single #
plane-surface $-1 51.454206976531268 0 0 -1 0 0 0 0 1 forward_v I I I I #
coedge $-1 $459 $485 $461 $486 reversed $402 $-1 #
coedge $-1 $487 $404 $485 $488 reversed $342 $-1 #
coedge $-1 $404 $487 $489 $490 reversed $342 $-1 #
coedge $-1 $491 $461 $404 $454 forward $411 $-1 #
edge $-1 $492 8.8325966469016937 $493 16.639188229268591 $453 $494 forward 7 unknown #
coedge $-1 $458 $405 $495 $496 reversed $279 $-1 #
coedge $-1 $410 $497 $405 $457 reversed $411 $-1 #
edge $-1 $418 -3.5857529926489704 $498 8.9173231421298151 $456 $499 forward 7 unknown #
coedge $-1 $406 $455 $500 $501 reversed $279 $-1 #
coedge $-1 $502 $450 $407 $460 reversed $402 $-1 #
edge $-1 $503 -51.454206976531268 $462 51.454206976531268 $407 $504 forward 7 unknown #
coedge $-1 $453 $408 $450 $486 forward $411 $-1 #
vertex $-1 $409 $505 #
straight-curve $-1 51.454206976531268 0 8.9173231421298151 0 1 0 I I #
point $-1 51.454206976531275 16.549968155647104 3.5857529926489704 #
straight-curve $-1 51.454206976531268 11.481262205750209 3.5857529926489669 0 -1 0 I I #
point $-1 51.454206976531275 29.375080667353732 3.5857529926489704 #
coedge $-1 $500 $506 $420 $468 reversed $507 $-1 #
edge $-1 $469 -29.375080667353735 $503 21.568489084986837 $467 $508 forward 7 unknown #
vertex $-1 $421 $509 #
straight-curve $-1 0 29.375080667353735 8.9173231421298151 -1 0 0 I I #
point $-1 -51.454206976531268 29.375080667353735 -8.9173231421298151 #
straight-curve $-1 -51.454206976531268 -12.735892438085143 5.9173231421298151 0 1 0 I I #
point $-1 -51.454206976531268 -21.568489084986837 5.9173231421298151 #
coedge $-1 $434 $433 $440 $478 reversed $427 $-1 #
edge $-1 $435 -5.9173231421298151 $480 8.9173231421298151 $445 $510 forward 7 unknown #
point $-1 -51.454206976531268 -29.375080667353735 5.9173231421298151 #
straight-curve $-1 51.454206976531268 -29.375080667353735 0 0 0 -1 I I #
edge $-1 $441 -51.454206976531268 $480 51.454206976531268 $474 $511 forward 7 unknown #
point $-1 51.454206976531268 -29.375080667353735 -8.9173231421298151 #
vertex $-1 $443 $512 #
straight-curve $-1 -51.454206976531268 0 -8.9173231421298151 0 1 0 I I #
face $-1 $513 $514 $15 $-1 $515 reversed single #
loop $-1 $-1 $516 $448 #
plane-surface $-1 0 0 -8.9173231421298151 0 0 1 1 0 0 forward_v I I I I #
coedge $-1 $450 $502 $451 $488 forward $402 $-1 #
edge $-1 $462 -5.2086615710649076 $492 -2.2086615710649076 $461 $517 forward 7 unknown #
coedge $-1 $452 $451 $518 $519 reversed $342 $-1 #
edge $-1 $520 -51.454206976531268 $492 51.454206976531268 $485 $521 forward 7 unknown #
coedge $-1 $522 $523 $452 $490 forward $514 $-1 #
edge $-1 $493 -51.454206976531268 $524 51.454206976531268 $489 $525 forward 7 unknown #
coedge $-1 $497 $453 $523 $526 forward $411 $-1 #
vertex $-1 $454 $527 #
vertex $-1 $526 $528 #
straight-curve $-1 51.454206976531268 -12.735892438085143 5.9173231421298151 0 -1 0 I I #
coedge $-1 $516 $529 $455 $496 forward $483 $-1 #
edge $-1 $530 -51.454206976531268 $498 51.454206976531268 $455 $531 forward 7 unknown #
coedge $-1 $456 $491 $516 $532 reversed $411 $-1 #
vertex $-1 $532 $533 #
straight-curve $-1 51.454206976531268 29.375080667353735 0 0 0 -1 I I #
coedge $-1 $534 $467 $458 $501 forward $507 $-1 #
edge $-1 $469 -8.9173231421298151 $530 8.9173231421298151 $458 $535 forward 7 unknown #
coedge $-1 $485 $459 $506 $536 reversed $402 $-1 #
vertex $-1 $536 $537 #
straight-curve $-1 0 -21.568489084986837 8.9173231421298151 1 0 0 I I #
point $-1 51.454206976531268 -21.568489084986837 8.9173231421298151 #
coedge $-1 $467 $518 $502 $536 forward $507 $-1 #
loop $-1 $-1 $506 $513 #
straight-curve $-1 -51.454206976531268 0 8.9173231421298151 0 -1 0 I I #
point $-1 -51.454206976531268 29.375080667353735 8.9173231421298151 #
straight-curve $-1 -51.454206976531268 -29.375080667353735 0 0 0 -1 I I #
straight-curve $-1 0 -29.375080667353735 -8.9173231421298151 -1 0 0 I I #
point $-1 -51.454206976531268 -29.375080667353735 -8.9173231421298151 #
face $-1 $-1 $507 $15 $-1 $538 reversed single #
loop $-1 $-1 $489 $482 #
plane-surface $-1 0 -29.375080667353735 0 0 1 0 0 0 1 forward_v I I I I #
coedge $-1 $539 $495 $497 $532 forward $483 $-1 #
straight-curve $-1 51.454206976531268 -21.568489084986837 3.7086615710649076 0 0 -1 I I #
coedge $-1 $506 $540 $487 $519 forward $507 $-1 #
edge $-1 $524 -16.639188229268591 $520 -8.8325966469016937 $518 $541 forward 7 unknown #
vertex $-1 $519 $542 #
straight-curve $-1 0 -21.568489084986837 5.9173231421298151 1 0 0 I I #
coedge $-1 $543 $489 $540 $544 forward $514 $-1 #
coedge $-1 $489 $543 $491 $526 reversed $514 $-1 #
vertex $-1 $544 $545 #
straight-curve $-1 0 -29.375080667353735 5.9173231421298151 -1 0 0 I I #
edge $-1 $493 -5.9173231421298151 $546 8.9173231421298151 $491 $547 forward 7 unknown #
point $-1 51.454206976531268 -21.568489084986837 5.9173231421298151 #
point $-1 51.454206976531268 -29.375080667353735 5.9173231421298151 #
coedge $-1 $495 $539 $534 $548 forward $483 $-1 #
vertex $-1 $496 $549 #
straight-curve $-1 0 29.375080667353735 -8.9173231421298151 1 0 0 I I #
edge $-1 $498 -29.375080667353735 $546 29.375080667353735 $497 $550 forward 7 unknown #
point $-1 51.454206976531268 29.375080667353735 -8.9173231421298151 #
coedge $-1 $540 $500 $529 $548 reversed $507 $-1 #
straight-curve $-1 -51.454206976531268 29.375080667353735 0 0 0 -1 I I #
edge $-1 $520 2.2086615710649076 $503 5.2086615710649076 $506 $551 forward 7 unknown #
point $-1 -51.454206976531268 -21.568489084986837 8.9173231421298151 #
plane-surface $-1 -51.454206976531268 0 0 1 0 0 0 0 -1 forward_v I I I I #
coedge $-1 $529 $516 $543 $552 forward $483 $-1 #
coedge $-1 $518 $534 $522 $544 reversed $507 $-1 #
straight-curve $-1 -51.454206976531268 -12.735892438085143 5.9173231421298151 0 1 0 I I #
point $-1 -51.454206976531268 -21.568489084986837 5.9173231421298151 #
coedge $-1 $523 $522 $539 $552 reversed $514 $-1 #
edge $-1 $524 -5.9173231421298151 $553 8.9173231421298151 $540 $554 forward 7 unknown #
point $-1 -51.454206976531268 -29.375080667353735 5.9173231421298151 #
vertex $-1 $526 $555 #
straight-curve $-1 51.454206976531268 -29.375080667353735 0 0 0 -1 I I #
edge $-1 $553 -29.375080667353735 $530 29.375080667353735 $534 $556 forward 7 unknown #
point $-1 -51.454206976531268 29.375080667353735 -8.9173231421298151 #
straight-curve $-1 51.454206976531268 0 -8.9173231421298151 0 -1 0 I I #
straight-curve $-1 -51.454206976531268 -21.568489084986837 3.7086615710649076 0 0 1 I I #
edge $-1 $546 -51.454206976531268 $553 51.454206976531268 $543 $557 forward 7 unknown #
vertex $-1 $548 $558 #
straight-curve $-1 -51.454206976531268 -29.375080667353735 0 0 0 -1 I I #
point $-1 51.454206976531268 -29.375080667353735 -8.9173231421298151 #
straight-curve $-1 -51.454206976531268 0 -8.9173231421298151 0 1 0 I I #
straight-curve $-1 0 -29.375080667353735 -8.9173231421298151 -1 0 0 I I #
point $-1 -51.454206976531268 -29.375080667353735 -8.9173231421298151 #
End-of-ACIS-data 