500 0 17 0           
7 Unknown 11 ACIS 5.0 NT 24 Fri Mar 26 16:29:36 1999 
-1 9.9999999999999995e-007 1e-010 
body $-1 $17 $-1 $18 #
body $-1 $19 $-1 $20 #
body $-1 $21 $-1 $22 #
body $-1 $23 $-1 $24 #
body $-1 $25 $-1 $26 #
body $-1 $27 $-1 $28 #
body $-1 $29 $-1 $30 #
body $-1 $31 $-1 $32 #
body $-1 $33 $-1 $34 #
body $-1 $35 $-1 $36 #
body $-1 $37 $-1 $38 #
body $-1 $39 $-1 $40 #
body $-1 $41 $-1 $42 #
body $-1 $43 $-1 $44 #
body $-1 $45 $-1 $46 #
body $-1 $47 $-1 $48 #
body $-1 $49 $-1 $50 #
lump $-1 $-1 $51 $0 #
transform $-1 1 0 0 0 1 0 0 0 1 76.913968321787166 37.246246990558248 16.495903224331808 1 rotate no_reflect no_shear #
lump $-1 $-1 $52 $1 #
transform $-1 1 0 0 0 1 0 0 0 1 76.913968321787166 37.246246990558248 16.495903224331808 1 rotate no_reflect no_shear #
lump $-1 $-1 $53 $2 #
transform $-1 1 0 0 0 1 0 0 0 1 76.913968321787166 37.246246990558248 16.495903224331808 1 rotate no_reflect no_shear #
lump $-1 $-1 $54 $3 #
transform $-1 1 0 0 0 1 0 0 0 1 76.913968321787166 37.246246990558248 16.495903224331808 1 rotate no_reflect no_shear #
lump $-1 $-1 $55 $4 #
transform $-1 1 0 0 0 1 0 0 0 1 76.913968321787166 37.246246990558248 16.495903224331808 1 rotate no_reflect no_shear #
lump $-1 $-1 $56 $5 #
transform $-1 1 0 0 0 1 0 0 0 1 76.913968321787166 37.246246990558248 16.495903224331808 1 rotate no_reflect no_shear #
lump $-1 $-1 $57 $6 #
transform $-1 1 0 0 0 1 0 0 0 1 76.913968321787166 37.246246990558248 16.495903224331808 1 rotate no_reflect no_shear #
lump $-1 $-1 $58 $7 #
transform $-1 1 0 0 0 1 0 0 0 1 76.913968321787166 37.246246990558248 16.495903224331808 1 rotate no_reflect no_shear #
lump $-1 $-1 $59 $8 #
transform $-1 1 0 0 0 1 0 0 0 1 76.913968321787166 37.246246990558248 16.495903224331808 1 rotate no_reflect no_shear #
lump $-1 $-1 $60 $9 #
transform $-1 1 0 0 0 1 0 0 0 1 76.913968321787166 37.246246990558248 16.495903224331808 1 rotate no_reflect no_shear #
lump $-1 $-1 $61 $10 #
transform $-1 1 0 0 0 1 0 0 0 1 76.913968321787166 37.246246990558248 16.495903224331808 1 rotate no_reflect no_shear #
lump $-1 $-1 $62 $11 #
transform $-1 1 0 0 0 1 0 0 0 1 76.913968321787166 37.246246990558248 16.495903224331808 1 rotate no_reflect no_shear #
lump $-1 $-1 $63 $12 #
transform $-1 1 0 0 0 1 0 0 0 1 76.913968321787166 37.246246990558248 16.495903224331808 1 rotate no_reflect no_shear #
lump $-1 $-1 $64 $13 #
transform $-1 1 0 0 0 1 0 0 0 1 76.913968321787166 37.246246990558248 16.495903224331808 1 rotate no_reflect no_shear #
lump $-1 $-1 $65 $14 #
transform $-1 1 0 0 0 1 0 0 0 1 76.913968321787166 37.246246990558248 16.495903224331808 1 rotate no_reflect no_shear #
lump $-1 $-1 $66 $15 #
transform $-1 1 0 0 0 1 0 0 0 1 76.913968321787166 37.246246990558248 16.495903224331808 1 rotate no_reflect no_shear #
lump $-1 $-1 $67 $16 #
transform $-1 1 0 0 0 1 0 0 0 1 76.913968321787166 37.246246990558248 16.495903224331808 1 rotate no_reflect no_shear #
shell $-1 $-1 $-1 $68 $-1 $17 #
shell $-1 $-1 $-1 $69 $-1 $19 #
shell $-1 $-1 $-1 $70 $-1 $21 #
shell $-1 $-1 $-1 $71 $-1 $23 #
shell $-1 $-1 $-1 $72 $-1 $25 #
shell $-1 $-1 $-1 $73 $-1 $27 #
shell $-1 $-1 $-1 $74 $-1 $29 #
shell $-1 $-1 $-1 $75 $-1 $31 #
shell $-1 $-1 $-1 $76 $-1 $33 #
shell $-1 $-1 $-1 $77 $-1 $35 #
shell $-1 $-1 $-1 $78 $-1 $37 #
shell $-1 $-1 $-1 $79 $-1 $39 #
shell $-1 $-1 $-1 $80 $-1 $41 #
shell $-1 $-1 $-1 $81 $-1 $43 #
shell $-1 $-1 $-1 $82 $-1 $45 #
shell $-1 $-1 $-1 $83 $-1 $47 #
shell $-1 $-1 $-1 $84 $-1 $49 #
face $-1 $85 $86 $51 $-1 $87 forward single #
face $-1 $88 $89 $52 $-1 $90 forward single #
face $-1 $91 $92 $53 $-1 $93 reversed single #
face $-1 $94 $95 $54 $-1 $96 forward single #
face $-1 $97 $98 $55 $-1 $99 forward single #
face $-1 $100 $101 $56 $-1 $102 reversed single #
face $-1 $103 $104 $57 $-1 $105 forward single #
face $-1 $106 $107 $58 $-1 $108 forward single #
face $-1 $109 $110 $59 $-1 $111 reversed single #
face $-1 $112 $113 $60 $-1 $114 forward single #
face $-1 $115 $116 $61 $-1 $117 forward single #
face $-1 $118 $119 $62 $-1 $120 reversed single #
face $-1 $121 $122 $63 $-1 $123 forward single #
face $-1 $124 $125 $64 $-1 $126 forward single #
face $-1 $127 $128 $65 $-1 $129 reversed single #
face $-1 $130 $131 $66 $-1 $132 forward single #
face $-1 $133 $134 $67 $-1 $135 forward single #
face $-1 $136 $137 $51 $-1 $138 reversed single #
loop $-1 $-1 $139 $68 #
plane-surface $-1 0 0 16.495903224331808 0 0 1 1 0 0 forward_v I I I I #
face $-1 $140 $141 $52 $-1 $142 reversed single #
loop $-1 $-1 $143 $69 #
plane-surface $-1 -69.746866630137134 0 -6.7294545603896649 0 0 1 1 0 0 forward_v I I I I #
face $-1 $144 $145 $53 $-1 $146 reversed single #
loop $-1 $-1 $147 $70 #
plane-surface $-1 -62.579764938487102 -151.56268339497441 108.40520774364396 1 0 0 0 0.74314483375859142 -0.66913059716165679 forward_v I I I I #
face $-1 $148 $149 $54 $-1 $150 forward single #
loop $-1 $151 $152 $71 #
cone-surface $-1 -57.471074321477154 -30.686211833110946 9.546170696613439 0 0.74314483375859142 -0.66913059716165679 2 0 0 1 I I 0 1 2 forward I I I I #
face $-1 $153 $154 $55 $-1 $155 forward single #
loop $-1 $156 $157 $72 #
cone-surface $-1 -49.808038395962228 -30.686211833110946 9.546170696613439 0 0.74314483375859142 -0.66913059716165679 2 0 0 1 I I 0 1 2 forward I I I I #
face $-1 $158 $159 $56 $-1 $160 reversed single #
loop $-1 $-1 $161 $73 #
plane-surface $-1 -22.041992904907293 -151.56268339497441 108.40520774364396 1 0 0 0 0.74314483375859142 -0.66913059716165679 forward_v I I I I #
face $-1 $162 $163 $57 $-1 $164 forward single #
loop $-1 $165 $166 $74 #
cone-surface $-1 -16.933302287897341 -30.686211833110946 9.546170696613439 0 0.74314483375859142 -0.66913059716165679 2 0 0 1 I I 0 1 2 forward I I I I #
face $-1 $167 $168 $58 $-1 $169 forward single #
loop $-1 $170 $171 $75 #
cone-surface $-1 -9.2702663623824151 -30.686211833110946 9.546170696613439 0 0.74314483375859142 -0.66913059716165679 2 0 0 1 I I 0 1 2 forward I I I I #
face $-1 $172 $173 $59 $-1 $174 reversed single #
loop $-1 $-1 $175 $76 #
plane-surface $-1 18.49577912867252 -151.56268339497441 108.40520774364396 1 0 0 0 0.74314483375859142 -0.66913059716165679 forward_v I I I I #
face $-1 $176 $177 $60 $-1 $178 forward single #
loop $-1 $179 $180 $77 #
cone-surface $-1 23.604469745682479 -30.686211833110946 9.546170696613439 0 0.74314483375859142 -0.66913059716165679 2 0 0 1 I I 0 1 2 forward I I I I #
face $-1 $181 $182 $61 $-1 $183 forward single #
loop $-1 $184 $185 $78 #
cone-surface $-1 31.267505671197398 -30.686211833110946 9.546170696613439 0 0.74314483375859142 -0.66913059716165679 2 0 0 1 I I 0 1 2 forward I I I I #
face $-1 $186 $187 $62 $-1 $188 reversed single #
loop $-1 $-1 $189 $79 #
plane-surface $-1 59.033551162252337 -151.56268339497441 108.40520774364396 1 0 0 0 0.74314483375859142 -0.66913059716165679 forward_v I I I I #
face $-1 $190 $191 $63 $-1 $192 forward single #
loop $-1 $193 $194 $80 #
cone-surface $-1 64.142241779262292 -30.686211833110946 9.546170696613439 0 0.74314483375859142 -0.66913059716165679 2 0 0 1 I I 0 1 2 forward I I I I #
face $-1 $195 $196 $64 $-1 $197 forward single #
loop $-1 $198 $199 $81 #
cone-surface $-1 71.805277704777211 -30.686211833110946 9.546170696613439 0 0.74314483375859142 -0.66913059716165679 2 0 0 1 I I 0 1 2 forward I I I I #
face $-1 $200 $201 $65 $-1 $202 reversed single #
loop $-1 $-1 $203 $82 #
plane-surface $-1 -8.1760696462252582 87.67628810789931 173.82114210654731 1 0 0 0 -0.68199836817093118 -0.7313536940579346 forward_v I I I I #
face $-1 $204 $205 $66 $-1 $206 forward single #
loop $-1 $207 $208 $83 #
cone-surface $-1 -0.15890042075498911 33.608396535479848 13.043296610583123 0 -0.68199836817093118 -0.7313536940579346 1 0 0 1 I I 0 1 1 forward I I I I #
face $-1 $209 $210 $67 $-1 $211 forward single #
loop $-1 $212 $213 $84 #
cone-surface $-1 11.866853417450415 33.608396535479848 13.043296610583123 0 -0.68199836817093118 -0.7313536940579346 1 0 0 1 I I 0 1 1 forward I I I I #
face $-1 $214 $215 $51 $-1 $216 reversed single #
loop $-1 $-1 $217 $85 #
plane-surface $-1 0 0 -16.495903224331808 0 0 1 1 0 0 forward_v I I I I #
coedge $-1 $218 $219 $220 $221 forward $86 $-1 #
face $-1 $222 $223 $52 $-1 $224 reversed single #
loop $-1 $-1 $225 $88 #
plane-surface $-1 -62.579764938487102 0 -11.612678892360737 -1 0 0 0 0 1 forward_v I I I I #
coedge $-1 $226 $227 $228 $229 forward $89 $-1 #
face $-1 $230 $231 $53 $-1 $232 reversed single #
loop $-1 $-1 $233 $91 #
plane-surface $-1 -53.639556358719688 -37.246246990558234 5.4742286371835576 0 -0.74314483375859142 0.66913059716165679 1 0 0 forward_v I I I I #
coedge $-1 $234 $235 $236 $237 reversed $92 $-1 #
face $-1 $-1 $238 $54 $-1 $239 forward single #
loop $-1 $240 $241 $94 #
cone-surface $-1 -57.471074321477154 -28.345011905010551 7.4381448653075317 0 0.74314483375859142 -0.66913059716165679 1 0 0 1 I I -0.70710678118654724 0.70710678118654791 1 forward I I I I #
loop $-1 $-1 $242 $71 #
coedge $-1 $152 $152 $243 $244 reversed $95 $-1 #
face $-1 $-1 $245 $55 $-1 $246 forward single #
loop $-1 $247 $248 $97 #
cone-surface $-1 -49.808038395962228 -28.345011905010551 7.4381448653075317 0 0.74314483375859142 -0.66913059716165679 1 0 0 1 I I -0.70710678118654724 0.70710678118654791 1 forward I I I I #
loop $-1 $-1 $249 $72 #
coedge $-1 $157 $157 $250 $251 reversed $98 $-1 #
face $-1 $252 $253 $56 $-1 $254 reversed single #
loop $-1 $-1 $255 $100 #
plane-surface $-1 -13.101784325139874 -37.246246990558234 5.4742286371835576 0 -0.74314483375859142 0.66913059716165679 1 0 0 forward_v I I I I #
coedge $-1 $256 $257 $258 $259 reversed $101 $-1 #
face $-1 $-1 $260 $57 $-1 $261 forward single #
loop $-1 $262 $263 $103 #
cone-surface $-1 -16.933302287897341 -28.345011905010551 7.4381448653075317 0 0.74314483375859142 -0.66913059716165679 1 0 0 1 I I -0.70710678118654724 0.70710678118654791 1 forward I I I I #
loop $-1 $-1 $264 $74 #
coedge $-1 $166 $166 $265 $266 reversed $104 $-1 #
face $-1 $-1 $267 $58 $-1 $268 forward single #
loop $-1 $269 $270 $106 #
cone-surface $-1 -9.2702663623824151 -28.345011905010551 7.4381448653075317 0 0.74314483375859142 -0.66913059716165679 1 0 0 1 I I -0.70710678118654724 0.70710678118654791 1 forward I I I I #
loop $-1 $-1 $271 $75 #
coedge $-1 $171 $171 $272 $273 reversed $107 $-1 #
face $-1 $274 $275 $59 $-1 $276 reversed single #
loop $-1 $-1 $277 $109 #
plane-surface $-1 27.435987708439939 -37.246246990558234 5.4742286371835576 0 -0.74314483375859142 0.66913059716165679 1 0 0 forward_v I I I I #
coedge $-1 $278 $279 $280 $281 reversed $110 $-1 #
face $-1 $-1 $282 $60 $-1 $283 forward single #
loop $-1 $284 $285 $112 #
cone-surface $-1 23.604469745682479 -28.345011905010551 7.4381448653075317 0 0.74314483375859142 -0.66913059716165679 1 0 0 1 I I -0.70710678118654724 0.70710678118654791 1 forward I I I I #
loop $-1 $-1 $286 $77 #
coedge $-1 $180 $180 $287 $288 reversed $113 $-1 #
face $-1 $-1 $289 $61 $-1 $290 forward single #
loop $-1 $291 $292 $115 #
cone-surface $-1 31.267505671197398 -28.345011905010551 7.4381448653075317 0 0.74314483375859142 -0.66913059716165679 1 0 0 1 I I -0.70710678118654724 0.70710678118654791 1 forward I I I I #
loop $-1 $-1 $293 $78 #
coedge $-1 $185 $185 $294 $295 reversed $116 $-1 #
face $-1 $296 $297 $62 $-1 $298 reversed single #
loop $-1 $-1 $299 $118 #
plane-surface $-1 67.973759742019752 -37.246246990558234 5.4742286371835576 0 -0.74314483375859142 0.66913059716165679 1 0 0 forward_v I I I I #
coedge $-1 $300 $301 $302 $303 reversed $119 $-1 #
face $-1 $-1 $304 $63 $-1 $305 forward single #
loop $-1 $306 $307 $121 #
cone-surface $-1 64.142241779262292 -28.345011905010551 7.4381448653075317 0 0.74314483375859142 -0.66913059716165679 1 0 0 1 I I -0.70710678118654724 0.70710678118654791 1 forward I I I I #
loop $-1 $-1 $308 $80 #
coedge $-1 $194 $194 $309 $310 reversed $122 $-1 #
face $-1 $-1 $311 $64 $-1 $312 forward single #
loop $-1 $313 $314 $124 #
cone-surface $-1 71.805277704777211 -28.345011905010551 7.4381448653075317 0 0.74314483375859142 -0.66913059716165679 1 0 0 1 I I -0.70710678118654724 0.70710678118654791 1 forward I I I I #
loop $-1 $-1 $315 $81 #
coedge $-1 $199 $199 $316 $317 reversed $125 $-1 #
face $-1 $318 $319 $65 $-1 $320 reversed single #
loop $-1 $-1 $321 $127 #
plane-surface $-1 5.8539764983477198 -17.234113662119768 61.318512392959306 0 0.68199836817093118 0.7313536940579346 1 0 0 forward_v I I I I #
coedge $-1 $322 $323 $324 $325 reversed $128 $-1 #
face $-1 $-1 $326 $66 $-1 $327 forward single #
loop $-1 $328 $329 $130 #
cone-surface $-1 -0.15890042075498911 32.836545969811624 12.215588233543894 0 -0.68199836817093118 -0.7313536940579346 0.5 0 0 1 I I -0.70710678118654746 0.70710678118654746 0.5 forward I I I I #
loop $-1 $-1 $330 $83 #
coedge $-1 $208 $208 $331 $332 reversed $131 $-1 #
face $-1 $-1 $333 $67 $-1 $334 forward single #
loop $-1 $335 $336 $133 #
cone-surface $-1 11.866853417450415 32.836545969811624 12.215588233543894 0 -0.68199836817093118 -0.7313536940579346 0.5 0 0 1 I I -0.70710678118654746 0.70710678118654746 0.5 forward I I I I #
loop $-1 $-1 $337 $84 #
coedge $-1 $213 $213 $338 $339 reversed $134 $-1 #
face $-1 $340 $341 $51 $-1 $342 reversed single #
loop $-1 $-1 $343 $136 #
plane-surface $-1 0 -37.246246990558248 0 0 1 0 0 0 1 forward_v I I I I #
coedge $-1 $344 $345 $346 $347 forward $137 $-1 #
coedge $-1 $348 $139 $349 $350 forward $86 $-1 #
coedge $-1 $139 $348 $351 $352 forward $86 $-1 #
coedge $-1 $353 $354 $139 $221 reversed $355 $-1 #
edge $-1 $356 -37.246246990558248 $357 37.246246990558248 $220 $358 forward 7 unknown #
face $-1 $359 $360 $52 $-1 $361 reversed single #
loop $-1 $-1 $362 $140 #
plane-surface $-1 0 0 -16.495903224331808 0 0 1 1 0 0 forward_v I I I I #
coedge $-1 $363 $228 $364 $365 reversed $141 $-1 #
coedge $-1 $366 $143 $367 $368 reversed $89 $-1 #
coedge $-1 $143 $366 $369 $370 reversed $89 $-1 #
coedge $-1 $225 $371 $143 $229 reversed $141 $-1 #
edge $-1 $372 -37.246246990558248 $373 37.246246990558248 $228 $374 forward 7 unknown #
face $-1 $375 $376 $53 $-1 $377 forward single #
loop $-1 $-1 $378 $144 #
plane-surface $-1 -44.699347778952273 -151.56268339497441 108.40520774364396 -1 0 0 0 -0.74314483375859142 0.66913059716165679 forward_v I I I I #
coedge $-1 $379 $380 $381 $382 reversed $145 $-1 #
coedge $-1 $235 $147 $383 $384 reversed $92 $-1 #
coedge $-1 $147 $234 $379 $385 reversed $92 $-1 #
coedge $-1 $381 $386 $147 $237 forward $387 $-1 #
edge $-1 $388 37.706700647490166 $389 48.728375234638435 $236 $390 forward 7 unknown #
loop $-1 $-1 $243 $148 #
plane-surface $-1 -53.639556358719688 -37.246246990558234 5.4742286371835576 0 -0.74314483375859142 0.66913059716165679 1 0 0 forward_v I I I I #
loop $-1 $-1 $391 $94 #
coedge $-1 $241 $241 $242 $392 reversed $149 $-1 #
coedge $-1 $242 $242 $241 $392 forward $151 $-1 #
coedge $-1 $243 $243 $152 $244 forward $238 $-1 #
edge $-1 $393 -7.9418762654422365e-016 $393 6.2831853071795996 $243 $394 forward 7 unknown #
loop $-1 $-1 $250 $153 #
plane-surface $-1 -53.639556358719688 -37.246246990558234 5.4742286371835576 0 -0.74314483375859142 0.66913059716165679 1 0 0 forward_v I I I I #
loop $-1 $-1 $395 $97 #
coedge $-1 $248 $248 $249 $396 reversed $154 $-1 #
coedge $-1 $249 $249 $248 $396 forward $156 $-1 #
coedge $-1 $250 $250 $157 $251 forward $245 $-1 #
edge $-1 $397 -7.9418762654422365e-016 $397 6.2831853071795996 $250 $398 forward 7 unknown #
face $-1 $399 $400 $56 $-1 $401 reversed single #
loop $-1 $-1 $402 $158 #
plane-surface $-1 -4.1615757453724562 -151.56268339497441 108.40520774364396 -1 0 0 0 -0.74314483375859142 0.66913059716165679 forward_v I I I I #
coedge $-1 $403 $404 $405 $406 reversed $159 $-1 #
coedge $-1 $257 $161 $407 $408 reversed $101 $-1 #
coedge $-1 $161 $256 $403 $409 reversed $101 $-1 #
coedge $-1 $405 $410 $161 $259 forward $400 $-1 #
edge $-1 $411 37.706700647490166 $412 48.728375234638435 $258 $413 forward 7 unknown #
loop $-1 $-1 $265 $162 #
plane-surface $-1 -13.101784325139874 -37.246246990558234 5.4742286371835576 0 -0.74314483375859142 0.66913059716165679 1 0 0 forward_v I I I I #
loop $-1 $-1 $414 $103 #
coedge $-1 $263 $263 $264 $415 reversed $163 $-1 #
coedge $-1 $264 $264 $263 $415 forward $165 $-1 #
coedge $-1 $265 $265 $166 $266 forward $260 $-1 #
edge $-1 $416 -7.9418762654422365e-016 $416 6.2831853071795996 $265 $417 forward 7 unknown #
loop $-1 $-1 $272 $167 #
plane-surface $-1 -13.101784325139874 -37.246246990558234 5.4742286371835576 0 -0.74314483375859142 0.66913059716165679 1 0 0 forward_v I I I I #
loop $-1 $-1 $418 $106 #
coedge $-1 $270 $270 $271 $419 reversed $168 $-1 #
coedge $-1 $271 $271 $270 $419 forward $170 $-1 #
coedge $-1 $272 $272 $171 $273 forward $267 $-1 #
edge $-1 $420 -7.9418762654422365e-016 $420 6.2831853071795996 $272 $421 forward 7 unknown #
face $-1 $422 $423 $59 $-1 $424 reversed single #
loop $-1 $-1 $425 $172 #
plane-surface $-1 36.376196288207353 -151.56268339497441 108.40520774364396 -1 0 0 0 -0.74314483375859142 0.66913059716165679 forward_v I I I I #
coedge $-1 $426 $427 $428 $429 reversed $173 $-1 #
coedge $-1 $279 $175 $430 $431 reversed $110 $-1 #
coedge $-1 $175 $278 $426 $432 reversed $110 $-1 #
coedge $-1 $428 $433 $175 $281 forward $423 $-1 #
edge $-1 $434 37.706700647490166 $435 48.728375234638435 $280 $436 forward 7 unknown #
loop $-1 $-1 $287 $176 #
plane-surface $-1 27.435987708439939 -37.246246990558234 5.4742286371835576 0 -0.74314483375859142 0.66913059716165679 1 0 0 forward_v I I I I #
loop $-1 $-1 $437 $112 #
coedge $-1 $285 $285 $286 $438 reversed $177 $-1 #
coedge $-1 $286 $286 $285 $438 forward $179 $-1 #
coedge $-1 $287 $287 $180 $288 forward $282 $-1 #
edge $-1 $439 -7.9418762654422365e-016 $439 6.2831853071795996 $287 $440 forward 7 unknown #
loop $-1 $-1 $294 $181 #
plane-surface $-1 27.435987708439939 -37.246246990558234 5.4742286371835576 0 -0.74314483375859142 0.66913059716165679 1 0 0 forward_v I I I I #
loop $-1 $-1 $441 $115 #
coedge $-1 $292 $292 $293 $442 reversed $182 $-1 #
coedge $-1 $293 $293 $292 $442 forward $184 $-1 #
coedge $-1 $294 $294 $185 $295 forward $289 $-1 #
edge $-1 $443 -7.9418762654422365e-016 $443 6.2831853071795996 $294 $444 forward 7 unknown #
face $-1 $445 $446 $62 $-1 $447 forward single #
loop $-1 $-1 $302 $186 #
plane-surface $-1 0 -37.246246990558248 0 0 1 0 0 0 1 forward_v I I I I #
coedge $-1 $448 $449 $450 $451 reversed $187 $-1 #
coedge $-1 $301 $189 $452 $453 reversed $119 $-1 #
coedge $-1 $189 $300 $448 $454 reversed $119 $-1 #
coedge $-1 $450 $455 $189 $303 forward $297 $-1 #
edge $-1 $456 37.706700647490166 $457 48.728375234638435 $302 $458 forward 7 unknown #
loop $-1 $-1 $309 $190 #
plane-surface $-1 67.973759742019752 -37.246246990558234 5.4742286371835576 0 -0.74314483375859142 0.66913059716165679 1 0 0 forward_v I I I I #
loop $-1 $-1 $459 $121 #
coedge $-1 $307 $307 $308 $460 reversed $191 $-1 #
coedge $-1 $308 $308 $307 $460 forward $193 $-1 #
coedge $-1 $309 $309 $194 $310 forward $304 $-1 #
edge $-1 $461 -7.9418762654422365e-016 $461 6.2831853071795996 $309 $462 forward 7 unknown #
loop $-1 $-1 $316 $195 #
plane-surface $-1 67.973759742019752 -37.246246990558234 5.4742286371835576 0 -0.74314483375859142 0.66913059716165679 1 0 0 forward_v I I I I #
loop $-1 $-1 $463 $124 #
coedge $-1 $314 $314 $315 $464 reversed $196 $-1 #
coedge $-1 $315 $315 $314 $464 forward $198 $-1 #
coedge $-1 $316 $316 $199 $317 forward $311 $-1 #
edge $-1 $465 -7.9418762654422365e-016 $465 6.2831853071795996 $316 $466 forward 7 unknown #
face $-1 $467 $468 $65 $-1 $469 reversed single #
loop $-1 $-1 $470 $200 #
plane-surface $-1 19.884022642920698 87.67628810789931 173.82114210654731 -1 0 0 0 0.68199836817093118 0.7313536940579346 forward_v I I I I #
coedge $-1 $471 $472 $473 $474 reversed $201 $-1 #
coedge $-1 $323 $203 $475 $476 reversed $128 $-1 #
coedge $-1 $203 $322 $471 $477 reversed $128 $-1 #
coedge $-1 $473 $478 $203 $325 forward $479 $-1 #
edge $-1 $480 6.5918970633914071 $481 13.005895210382718 $324 $482 forward 7 unknown #
loop $-1 $-1 $331 $204 #
plane-surface $-1 5.8539764983477198 -17.234113662119768 61.318512392959306 0 0.68199836817093118 0.7313536940579346 1 0 0 forward_v I I I I #
loop $-1 $-1 $483 $130 #
coedge $-1 $329 $329 $330 $484 reversed $205 $-1 #
coedge $-1 $330 $330 $329 $484 forward $207 $-1 #
coedge $-1 $331 $331 $208 $332 forward $326 $-1 #
edge $-1 $485 -1.7215635659188341e-015 $485 6.2831853071795987 $331 $486 forward 7 unknown #
loop $-1 $-1 $338 $209 #
plane-surface $-1 5.8539764983477198 -17.234113662119768 61.318512392959306 0 0.68199836817093118 0.7313536940579346 1 0 0 forward_v I I I I #
loop $-1 $-1 $487 $133 #
coedge $-1 $336 $336 $337 $488 reversed $210 $-1 #
coedge $-1 $337 $337 $336 $488 forward $212 $-1 #
coedge $-1 $338 $338 $213 $339 forward $333 $-1 #
edge $-1 $489 -1.7215635659188341e-015 $489 6.2831853071795987 $338 $490 forward 7 unknown #
face $-1 $491 $492 $51 $-1 $493 reversed single #
loop $-1 $-1 $494 $214 #
plane-surface $-1 -76.913968321787166 0 0 1 0 0 0 0 -1 forward_v I I I I #
coedge $-1 $495 $351 $496 $497 forward $215 $-1 #
coedge $-1 $498 $217 $495 $499 forward $137 $-1 #
coedge $-1 $217 $498 $500 $501 forward $137 $-1 #
coedge $-1 $354 $353 $217 $347 reversed $355 $-1 #
edge $-1 $502 -37.246246990558248 $503 37.246246990558248 $346 $504 forward 7 unknown #
coedge $-1 $219 $218 $505 $506 forward $86 $-1 #
coedge $-1 $507 $508 $218 $350 reversed $492 $-1 #
edge $-1 $357 -76.913968321787166 $509 76.913968321787166 $349 $510 forward 7 unknown #
coedge $-1 $343 $511 $219 $352 reversed $215 $-1 #
edge $-1 $512 -76.913968321787166 $356 76.913968321787166 $351 $513 forward 7 unknown #
coedge $-1 $346 $220 $511 $514 forward $355 $-1 #
coedge $-1 $220 $346 $507 $515 reversed $355 $-1 #
loop $-1 $-1 $353 $491 #
vertex $-1 $221 $516 #
vertex $-1 $221 $517 #
straight-curve $-1 76.913968321787166 0 16.495903224331808 0 1 0 I I #
face $-1 $518 $519 $52 $-1 $520 reversed single #
loop $-1 $-1 $364 $222 #
plane-surface $-1 0 -37.246246990558248 0 0 1 0 0 0 1 forward_v I I I I #
coedge $-1 $521 $522 $363 $523 forward $223 $-1 #
coedge $-1 $371 $225 $362 $523 reversed $141 $-1 #
coedge $-1 $369 $524 $225 $365 forward $360 $-1 #
edge $-1 $525 -10.68956377815144 $372 -0.92311511420929637 $364 $526 forward 7 unknown #
coedge $-1 $227 $226 $527 $528 reversed $89 $-1 #
coedge $-1 $529 $530 $226 $368 forward $531 $-1 #
edge $-1 $532 -42.040535006718599 $373 -27.706331623418535 $367 $533 forward 7 unknown #
coedge $-1 $534 $364 $227 $370 forward $360 $-1 #
edge $-1 $372 27.706331623418535 $535 42.040535006718599 $369 $536 forward 7 unknown #
coedge $-1 $228 $363 $529 $537 reversed $141 $-1 #
vertex $-1 $370 $538 #
vertex $-1 $368 $539 #
straight-curve $-1 -62.579764938487102 0 -6.7294545603896649 0 1 0 I I #
face $-1 $-1 $387 $53 $-1 $540 reversed single #
loop $-1 $-1 $541 $230 #
plane-surface $-1 0 0 16.495903224331808 0 0 1 1 0 0 forward_v I I I I #
coedge $-1 $542 $543 $544 $545 reversed $231 $-1 #
coedge $-1 $546 $233 $235 $385 forward $145 $-1 #
coedge $-1 $233 $546 $542 $547 forward $145 $-1 #
coedge $-1 $544 $236 $233 $382 forward $387 $-1 #
edge $-1 $389 -35.759986759127258 $548 -17.879569599592429 $381 $549 forward 7 unknown #
coedge $-1 $550 $551 $234 $384 forward $376 $-1 #
edge $-1 $552 -48.459054833139973 $388 -38.535094706928959 $383 $553 forward 7 unknown #
edge $-1 $389 -2.1389731374768986e-014 $552 14.831125894267618 $235 $554 forward 7 unknown #
coedge $-1 $236 $544 $550 $555 reversed $387 $-1 #
loop $-1 $-1 $544 $375 #
vertex $-1 $555 $556 #
vertex $-1 $237 $557 #
straight-curve $-1 -62.579764938487102 -37.246246990558248 54.202603871821978 0 0 -1 I I #
coedge $-1 $391 $391 $-1 $558 reversed $240 $-1 #
edge $-1 $559 0 $559 6.2831853071796004 $241 $560 forward 7 unknown #
vertex $-1 $244 $561 #
ellipse-curve $-1 -57.471074321477154 -32.284266927452734 10.985065930757678 0 -0.74314483375859142 0.66913059716165679 2 0 0 1 I I #
coedge $-1 $395 $395 $-1 $562 reversed $247 $-1 #
edge $-1 $563 0 $563 6.2831853071796004 $248 $564 forward 7 unknown #
vertex $-1 $251 $565 #
ellipse-curve $-1 -49.808038395962228 -32.284266927452734 10.985065930757678 0 -0.74314483375859142 0.66913059716165679 2 0 0 1 I I #
face $-1 $-1 $566 $56 $-1 $567 forward single #
loop $-1 $-1 $258 $252 #
plane-surface $-1 0 -37.246246990558248 0 0 1 0 0 0 1 forward_v I I I I #
coedge $-1 $568 $569 $570 $571 reversed $253 $-1 #
coedge $-1 $572 $255 $257 $409 forward $159 $-1 #
coedge $-1 $255 $572 $568 $573 forward $159 $-1 #
coedge $-1 $570 $258 $255 $406 forward $400 $-1 #
edge $-1 $412 -15.491100742337355 $574 2.389316417197481 $405 $575 forward 7 unknown #
coedge $-1 $576 $577 $256 $408 forward $566 $-1 #
edge $-1 $578 -48.459054833139973 $411 -38.535094706928959 $407 $579 forward 7 unknown #
edge $-1 $412 -2.1389731374768986e-014 $578 14.831125894267618 $257 $580 forward 7 unknown #
coedge $-1 $258 $570 $576 $581 reversed $400 $-1 #
vertex $-1 $581 $582 #
vertex $-1 $259 $583 #
straight-curve $-1 -22.041992904907293 -37.246246990558248 54.202603871821978 0 0 -1 I I #
coedge $-1 $414 $414 $-1 $584 reversed $262 $-1 #
edge $-1 $585 0 $585 6.2831853071796004 $263 $586 forward 7 unknown #
vertex $-1 $266 $587 #
ellipse-curve $-1 -16.933302287897341 -32.284266927452734 10.985065930757678 0 -0.74314483375859142 0.66913059716165679 2 0 0 1 I I #
coedge $-1 $418 $418 $-1 $588 reversed $269 $-1 #
edge $-1 $589 0 $589 6.2831853071796004 $270 $590 forward 7 unknown #
vertex $-1 $273 $591 #
ellipse-curve $-1 -9.2702663623824151 -32.284266927452734 10.985065930757678 0 -0.74314483375859142 0.66913059716165679 2 0 0 1 I I #
face $-1 $-1 $592 $59 $-1 $593 forward single #
loop $-1 $-1 $280 $274 #
plane-surface $-1 0 -37.246246990558248 0 0 1 0 0 0 1 forward_v I I I I #
coedge $-1 $594 $595 $596 $597 reversed $275 $-1 #
coedge $-1 $598 $277 $279 $432 forward $173 $-1 #
coedge $-1 $277 $598 $594 $599 forward $173 $-1 #
coedge $-1 $596 $280 $277 $429 forward $423 $-1 #
edge $-1 $435 4.7777852744525511 $600 22.658202433987384 $428 $601 forward 7 unknown #
coedge $-1 $602 $603 $278 $431 forward $592 $-1 #
edge $-1 $604 -48.459054833139973 $434 -38.535094706928959 $430 $605 forward 7 unknown #
edge $-1 $435 -2.1389731374768986e-014 $604 14.831125894267618 $279 $606 forward 7 unknown #
coedge $-1 $280 $596 $602 $607 reversed $423 $-1 #
vertex $-1 $607 $608 #
vertex $-1 $281 $609 #
straight-curve $-1 18.49577912867252 -37.246246990558248 54.202603871821978 0 0 -1 I I #
coedge $-1 $437 $437 $-1 $610 reversed $284 $-1 #
edge $-1 $611 0 $611 6.2831853071796004 $285 $612 forward 7 unknown #
vertex $-1 $288 $613 #
ellipse-curve $-1 23.604469745682479 -32.284266927452734 10.985065930757678 0 -0.74314483375859142 0.66913059716165679 2 0 0 1 I I #
coedge $-1 $441 $441 $-1 $614 reversed $291 $-1 #
edge $-1 $615 0 $615 6.2831853071796004 $292 $616 forward 7 unknown #
vertex $-1 $295 $617 #
ellipse-curve $-1 31.267505671197398 -32.284266927452734 10.985065930757678 0 -0.74314483375859142 0.66913059716165679 2 0 0 1 I I #
face $-1 $-1 $618 $62 $-1 $619 reversed single #
loop $-1 $-1 $452 $296 #
plane-surface $-1 0 0 16.495903224331808 0 0 1 1 0 0 forward_v I I I I #
coedge $-1 $620 $299 $301 $454 forward $187 $-1 #
coedge $-1 $299 $620 $621 $622 reversed $187 $-1 #
coedge $-1 $623 $302 $299 $451 forward $297 $-1 #
edge $-1 $457 25.046671291242461 $624 42.927088450777291 $450 $625 forward 7 unknown #
coedge $-1 $626 $627 $300 $453 forward $446 $-1 #
edge $-1 $628 -48.459054833139973 $456 -38.535094706928959 $452 $629 forward 7 unknown #
edge $-1 $457 -2.1389731374768986e-014 $628 14.831125894267618 $301 $630 forward 7 unknown #
coedge $-1 $302 $623 $626 $631 reversed $297 $-1 #
vertex $-1 $631 $632 #
vertex $-1 $303 $633 #
straight-curve $-1 59.033551162252337 -37.246246990558248 54.202603871821978 0 0 -1 I I #
coedge $-1 $459 $459 $-1 $634 reversed $306 $-1 #
edge $-1 $635 0 $635 6.2831853071796004 $307 $636 forward 7 unknown #
vertex $-1 $310 $637 #
ellipse-curve $-1 64.142241779262292 -32.284266927452734 10.985065930757678 0 -0.74314483375859142 0.66913059716165679 2 0 0 1 I I #
coedge $-1 $463 $463 $-1 $638 reversed $313 $-1 #
edge $-1 $639 0 $639 6.2831853071796004 $314 $640 forward 7 unknown #
vertex $-1 $317 $641 #
ellipse-curve $-1 71.805277704777211 -32.284266927452734 10.985065930757678 0 -0.74314483375859142 0.66913059716165679 2 0 0 1 I I #
face $-1 $-1 $479 $65 $-1 $642 forward single #
loop $-1 $-1 $643 $318 #
plane-surface $-1 0 37.246246990558248 0 0 -1 0 0 0 -1 forward_v I I I I #
coedge $-1 $644 $645 $646 $647 reversed $319 $-1 #
coedge $-1 $648 $321 $323 $477 forward $201 $-1 #
coedge $-1 $321 $648 $644 $649 forward $201 $-1 #
coedge $-1 $646 $324 $321 $474 forward $479 $-1 #
edge $-1 $481 -11.103057895399118 $650 16.957034393746838 $473 $651 forward 7 unknown #
coedge $-1 $652 $653 $322 $476 forward $468 $-1 #
edge $-1 $654 -76.395817996418714 $480 -70.414667828941845 $475 $655 forward 7 unknown #
edge $-1 $481 65.722458088629139 $654 74.492493981116496 $323 $656 forward 7 unknown #
coedge $-1 $324 $646 $652 $657 forward $479 $-1 #
loop $-1 $-1 $646 $467 #
vertex $-1 $476 $658 #
vertex $-1 $325 $659 #
straight-curve $-1 -8.1760696462252582 43.838144053949655 16.495903224331812 0 -1 0 I I #
coedge $-1 $483 $483 $-1 $660 reversed $328 $-1 #
edge $-1 $661 0 $661 6.2831853071796004 $329 $662 forward 7 unknown #
vertex $-1 $332 $663 #
ellipse-curve $-1 -0.15890042075498911 34.039247917062596 13.505328140593369 0 0.68199836817093118 0.7313536940579346 1 0 0 1 I I #
coedge $-1 $487 $487 $-1 $664 reversed $335 $-1 #
edge $-1 $665 0 $665 6.2831853071796004 $336 $666 forward 7 unknown #
vertex $-1 $339 $667 #
ellipse-curve $-1 11.866853417450415 34.039247917062596 13.505328140593369 0 0.68199836817093118 0.7313536940579346 1 0 0 1 I I #
face $-1 $-1 $355 $51 $-1 $668 reversed single #
loop $-1 $-1 $507 $340 #
plane-surface $-1 0 37.246246990558248 0 0 -1 0 0 0 -1 forward_v I I I I #
coedge $-1 $669 $505 $508 $670 forward $341 $-1 #
coedge $-1 $511 $343 $344 $499 reversed $215 $-1 #
coedge $-1 $505 $669 $343 $497 reversed $341 $-1 #
edge $-1 $512 -16.495903224331808 $671 16.495903224331808 $496 $672 forward 7 unknown #
coedge $-1 $345 $344 $669 $673 forward $137 $-1 #
edge $-1 $503 -76.913968321787166 $671 76.913968321787166 $495 $674 forward 7 unknown #
coedge $-1 $508 $507 $345 $501 reversed $492 $-1 #
edge $-1 $675 -76.913968321787166 $502 76.913968321787166 $500 $676 forward 7 unknown #
vertex $-1 $347 $677 #
vertex $-1 $514 $678 #
straight-curve $-1 76.913968321787166 0 -16.495903224331808 0 -1 0 I I #
coedge $-1 $494 $496 $348 $506 reversed $341 $-1 #
edge $-1 $509 -37.246246990558248 $512 37.246246990558248 $505 $679 forward 7 unknown #
coedge $-1 $500 $349 $354 $515 forward $492 $-1 #
coedge $-1 $349 $500 $494 $670 reversed $492 $-1 #
vertex $-1 $350 $680 #
straight-curve $-1 0 37.246246990558248 16.495903224331808 -1 0 0 I I #
coedge $-1 $351 $495 $353 $514 reversed $215 $-1 #
vertex $-1 $506 $681 #
straight-curve $-1 0 -37.246246990558248 16.495903224331808 1 0 0 I I #
edge $-1 $356 -16.495903224331808 $503 16.495903224331808 $353 $682 forward 7 unknown #
edge $-1 $357 -16.495903224331808 $502 16.495903224331808 $354 $683 forward 7 unknown #
point $-1 76.913968321787166 -37.246246990558248 16.495903224331808 #
point $-1 76.913968321787166 37.246246990558248 16.495903224331808 #
face $-1 $-1 $531 $52 $-1 $684 reversed single #
loop $-1 $-1 $527 $359 #
plane-surface $-1 -76.913968321787166 0 0 1 0 0 0 0 -1 forward_v I I I I #
coedge $-1 $685 $362 $524 $686 forward $223 $-1 #
coedge $-1 $362 $685 $687 $688 forward $223 $-1 #
edge $-1 $689 -37.246246990558248 $525 37.246246990558248 $362 $690 forward 7 unknown #
coedge $-1 $364 $534 $521 $686 reversed $360 $-1 #
vertex $-1 $686 $691 #
straight-curve $-1 -62.579764938487102 -37.246246990558248 -5.8063394461803686 0 0 1 I I #
coedge $-1 $692 $693 $366 $528 forward $519 $-1 #
edge $-1 $535 -37.246246990558248 $532 37.246246990558248 $527 $694 forward 7 unknown #
coedge $-1 $687 $367 $371 $537 forward $531 $-1 #
coedge $-1 $367 $687 $692 $695 reversed $531 $-1 #
loop $-1 $-1 $529 $518 #
vertex $-1 $695 $696 #
straight-curve $-1 -34.873433315068567 37.246246990558248 -6.7294545603896649 1 0 0 I I #
coedge $-1 $524 $369 $693 $697 forward $360 $-1 #
vertex $-1 $697 $698 #
straight-curve $-1 -34.873433315068567 -37.246246990558248 -6.7294545603896649 -1 0 0 I I #
edge $-1 $373 0.92311511420929637 $689 10.68956377815144 $529 $699 forward 7 unknown #
point $-1 -62.579764938487102 -37.246246990558248 -6.7294545603896649 #
point $-1 -62.579764938487102 37.246246990558248 -6.7294545603896649 #
plane-surface $-1 0 -37.246246990558248 0 0 1 0 0 0 1 forward_v I I I I #
coedge $-1 $551 $550 $543 $700 forward $376 $-1 #
coedge $-1 $543 $378 $380 $547 reversed $231 $-1 #
coedge $-1 $378 $542 $541 $700 reversed $231 $-1 #
coedge $-1 $386 $381 $378 $545 forward $387 $-1 #
edge $-1 $548 -48.728375234638435 $701 -37.706700647490166 $544 $702 forward 7 unknown #
coedge $-1 $380 $379 $551 $703 reversed $145 $-1 #
edge $-1 $704 -14.831125894267618 $548 2.1389731374768986e-014 $542 $705 forward 7 unknown #
vertex $-1 $382 $706 #
straight-curve $-1 -26.819778179359844 -37.246246990558248 5.4742286371835389 1 0 0 I I #
coedge $-1 $541 $383 $386 $555 forward $376 $-1 #
coedge $-1 $383 $541 $546 $703 forward $376 $-1 #
vertex $-1 $384 $707 #
straight-curve $-1 -62.579764938487102 -75.781341697487207 16.495903224331812 0 -1 0 I I #
straight-curve $-1 -62.579764938487102 -37.246246990558234 5.4742286371835576 0 0.66913059716165679 0.74314483375859142 I I #
edge $-1 $388 -62.579764938487102 $701 -44.699347778952273 $386 $708 forward 7 unknown #
point $-1 -62.579764938487102 -37.246246990558248 16.495903224331808 #
point $-1 -62.579764938487102 -37.246246990558248 5.4742286371835416 #
edge $-1 $709 1 $709 0 $391 $-1 forward 7 unknown #
vertex $-1 $392 $710 #
ellipse-curve $-1 -57.471074321477154 -29.088156738769143 8.1072754624691896 0 -0.74314483375859142 0.66913059716165679 2 0 0 1 I I #
point $-1 -55.471074321477154 -32.284266927452748 10.985065930757688 #
edge $-1 $711 1 $711 0 $395 $-1 forward 7 unknown #
vertex $-1 $396 $712 #
ellipse-curve $-1 -49.808038395962228 -29.088156738769143 8.1072754624691896 0 -0.74314483375859142 0.66913059716165679 2 0 0 1 I I #
point $-1 -47.808038395962228 -32.284266927452748 10.985065930757688 #
loop $-1 $-1 $407 $399 #
plane-surface $-1 0 0 16.495903224331808 0 0 1 1 0 0 forward_v I I I I #
coedge $-1 $569 $402 $404 $573 reversed $253 $-1 #
coedge $-1 $402 $568 $713 $714 reversed $253 $-1 #
coedge $-1 $410 $405 $402 $571 forward $400 $-1 #
edge $-1 $574 -48.728375234638435 $715 -37.706700647490166 $570 $716 forward 7 unknown #
coedge $-1 $404 $403 $577 $717 reversed $159 $-1 #
edge $-1 $718 -14.831125894267618 $574 2.1389731374768986e-014 $568 $719 forward 7 unknown #
vertex $-1 $406 $720 #
straight-curve $-1 -6.5508921625699372 -37.246246990558248 5.4742286371835389 1 0 0 I I #
coedge $-1 $713 $407 $410 $581 forward $566 $-1 #
coedge $-1 $407 $713 $572 $717 forward $566 $-1 #
vertex $-1 $408 $721 #
straight-curve $-1 -22.041992904907293 -75.781341697487207 16.495903224331812 0 -1 0 I I #
straight-curve $-1 -22.041992904907293 -37.246246990558234 5.4742286371835576 0 0.66913059716165679 0.74314483375859142 I I #
edge $-1 $411 -22.041992904907293 $715 -4.1615757453724562 $410 $722 forward 7 unknown #
point $-1 -22.041992904907293 -37.246246990558248 16.495903224331808 #
point $-1 -22.041992904907293 -37.246246990558248 5.4742286371835416 #
edge $-1 $723 1 $723 0 $414 $-1 forward 7 unknown #
vertex $-1 $415 $724 #
ellipse-curve $-1 -16.933302287897341 -29.088156738769143 8.1072754624691896 0 -0.74314483375859142 0.66913059716165679 2 0 0 1 I I #
point $-1 -14.933302287897341 -32.284266927452748 10.985065930757688 #
edge $-1 $725 1 $725 0 $418 $-1 forward 7 unknown #
vertex $-1 $419 $726 #
ellipse-curve $-1 -9.2702663623824151 -29.088156738769143 8.1072754624691896 0 -0.74314483375859142 0.66913059716165679 2 0 0 1 I I #
point $-1 -7.2702663623824151 -32.284266927452748 10.985065930757688 #
loop $-1 $-1 $430 $422 #
plane-surface $-1 0 0 16.495903224331808 0 0 1 1 0 0 forward_v I I I I #
coedge $-1 $595 $425 $427 $599 reversed $275 $-1 #
coedge $-1 $425 $594 $727 $728 reversed $275 $-1 #
coedge $-1 $433 $428 $425 $597 forward $423 $-1 #
edge $-1 $600 -48.728375234638435 $729 -37.706700647490166 $596 $730 forward 7 unknown #
coedge $-1 $427 $426 $603 $731 reversed $173 $-1 #
edge $-1 $732 -14.831125894267618 $600 2.1389731374768986e-014 $594 $733 forward 7 unknown #
vertex $-1 $429 $734 #
straight-curve $-1 13.717993854219969 -37.246246990558248 5.4742286371835389 1 0 0 I I #
coedge $-1 $727 $430 $433 $607 forward $592 $-1 #
coedge $-1 $430 $727 $598 $731 forward $592 $-1 #
vertex $-1 $431 $735 #
straight-curve $-1 18.49577912867252 -75.781341697487207 16.495903224331812 0 -1 0 I I #
straight-curve $-1 18.49577912867252 -37.246246990558234 5.4742286371835576 0 0.66913059716165679 0.74314483375859142 I I #
edge $-1 $434 18.49577912867252 $729 36.376196288207353 $433 $736 forward 7 unknown #
point $-1 18.49577912867252 -37.246246990558248 16.495903224331808 #
point $-1 18.49577912867252 -37.246246990558248 5.4742286371835416 #
edge $-1 $737 1 $737 0 $437 $-1 forward 7 unknown #
vertex $-1 $438 $738 #
ellipse-curve $-1 23.604469745682479 -29.088156738769143 8.1072754624691896 0 -0.74314483375859142 0.66913059716165679 2 0 0 1 I I #
point $-1 25.604469745682479 -32.284266927452748 10.985065930757688 #
edge $-1 $739 1 $739 0 $441 $-1 forward 7 unknown #
vertex $-1 $442 $740 #
ellipse-curve $-1 31.267505671197398 -29.088156738769143 8.1072754624691896 0 -0.74314483375859142 0.66913059716165679 2 0 0 1 I I #
point $-1 33.267505671197398 -32.284266927452748 10.985065930757688 #
loop $-1 $-1 $621 $445 #
plane-surface $-1 76.913968321787166 0 0 -1 0 0 0 0 1 forward_v I I I I #
coedge $-1 $449 $448 $627 $741 reversed $187 $-1 #
coedge $-1 $742 $743 $449 $622 forward $618 $-1 #
edge $-1 $624 -10.42722938014327 $744 4.4038965141243693 $621 $745 forward 7 unknown #
coedge $-1 $455 $450 $743 $746 reversed $297 $-1 #
vertex $-1 $451 $747 #
straight-curve $-1 33.986879871009876 -37.246246990558248 5.4742286371835389 1 0 0 I I #
coedge $-1 $748 $452 $455 $631 forward $446 $-1 #
coedge $-1 $452 $748 $620 $741 forward $446 $-1 #
vertex $-1 $453 $749 #
straight-curve $-1 59.033551162252337 -75.781341697487207 16.495903224331812 0 -1 0 I I #
straight-curve $-1 59.033551162252337 -37.246246990558234 5.4742286371835576 0 0.66913059716165679 0.74314483375859142 I I #
edge $-1 $456 59.033551162252337 $750 76.913968321787166 $455 $751 forward 7 unknown #
point $-1 59.033551162252337 -37.246246990558248 16.495903224331808 #
point $-1 59.033551162252337 -37.246246990558248 5.4742286371835416 #
edge $-1 $752 1 $752 0 $459 $-1 forward 7 unknown #
vertex $-1 $460 $753 #
ellipse-curve $-1 64.142241779262292 -29.088156738769143 8.1072754624691896 0 -0.74314483375859142 0.66913059716165679 2 0 0 1 I I #
point $-1 66.142241779262292 -32.284266927452748 10.985065930757688 #
edge $-1 $754 1 $754 0 $463 $-1 forward 7 unknown #
vertex $-1 $464 $755 #
ellipse-curve $-1 71.805277704777211 -29.088156738769143 8.1072754624691896 0 -0.74314483375859142 0.66913059716165679 2 0 0 1 I I #
point $-1 73.805277704777211 -32.284266927452748 10.985065930757688 #
plane-surface $-1 0 0 16.495903224331808 0 0 1 1 0 0 forward_v I I I I #
coedge $-1 $653 $652 $645 $756 forward $468 $-1 #
coedge $-1 $645 $470 $472 $649 reversed $319 $-1 #
coedge $-1 $470 $644 $643 $756 reversed $319 $-1 #
coedge $-1 $478 $473 $470 $647 forward $479 $-1 #
edge $-1 $650 -13.005895210382718 $757 -6.5918970633914071 $646 $758 forward 7 unknown #
coedge $-1 $472 $471 $653 $759 reversed $201 $-1 #
edge $-1 $760 -74.492493981116496 $650 -65.722458088629139 $644 $761 forward 7 unknown #
vertex $-1 $474 $762 #
straight-curve $-1 2.9269882491738599 30.832248843566941 16.495903224331812 1 0 0 I I #
coedge $-1 $643 $475 $478 $657 reversed $468 $-1 #
coedge $-1 $475 $643 $648 $759 forward $468 $-1 #
vertex $-1 $476 $763 #
straight-curve $-1 -8.1760696462252582 37.246246990558248 86.910571053273657 0 0 1 I I #
straight-curve $-1 -8.1760696462252582 -17.234113662119768 61.318512392959306 0 0.7313536940579346 -0.68199836817093118 I I #
edge $-1 $757 -19.884022642920698 $480 8.1760696462252582 $652 $764 forward 7 unknown #
point $-1 -8.1760696462252582 37.246246990558248 16.495903224331808 #
point $-1 -8.1760696462252582 30.832248843566937 16.495903224331819 #
edge $-1 $765 1 $765 0 $483 $-1 forward 7 unknown #
vertex $-1 $484 $766 #
ellipse-curve $-1 -0.15890042075498911 33.177545153897093 12.581265080572861 0 0.68199836817093118 0.7313536940579346 1 0 0 1 I I #
point $-1 0.84109957924501089 34.03924791706261 13.505328140593386 #
edge $-1 $767 1 $767 0 $487 $-1 forward 7 unknown #
vertex $-1 $488 $768 #
ellipse-curve $-1 11.866853417450415 33.177545153897093 12.581265080572861 0 0.68199836817093118 0.7313536940579346 1 0 0 1 I I #
point $-1 12.866853417450415 34.03924791706261 13.505328140593386 #
plane-surface $-1 76.913968321787166 0 0 -1 0 0 0 0 1 forward_v I I I I #
coedge $-1 $496 $494 $498 $673 reversed $341 $-1 #
edge $-1 $509 -16.495903224331808 $675 16.495903224331808 $508 $769 forward 7 unknown #
vertex $-1 $673 $770 #
straight-curve $-1 -76.913968321787166 -37.246246990558248 0 0 0 -1 I I #
edge $-1 $671 -37.246246990558248 $675 37.246246990558248 $669 $771 forward 7 unknown #
straight-curve $-1 0 -37.246246990558248 -16.495903224331808 -1 0 0 I I #
vertex $-1 $501 $772 #
straight-curve $-1 0 37.246246990558248 -16.495903224331808 1 0 0 I I #
point $-1 76.913968321787166 37.246246990558248 -16.495903224331808 #
point $-1 76.913968321787166 -37.246246990558248 -16.495903224331808 #
straight-curve $-1 -76.913968321787166 0 16.495903224331808 0 -1 0 I I #
point $-1 -76.913968321787166 37.246246990558248 16.495903224331808 #
point $-1 -76.913968321787166 -37.246246990558248 16.495903224331808 #
straight-curve $-1 76.913968321787166 -37.246246990558248 0 0 0 -1 I I #
straight-curve $-1 76.913968321787166 37.246246990558248 0 0 0 -1 I I #
plane-surface $-1 0 37.246246990558248 0 0 -1 0 0 0 -1 forward_v I I I I #
coedge $-1 $522 $521 $773 $774 forward $223 $-1 #
edge $-1 $525 62.579764938487102 $775 76.913968321787166 $524 $776 forward 7 unknown #
coedge $-1 $530 $529 $522 $688 reversed $531 $-1 #
edge $-1 $777 -76.913968321787166 $689 -62.579764938487102 $687 $778 forward 7 unknown #
vertex $-1 $537 $779 #
straight-curve $-1 -62.579764938487102 0 -16.495903224331808 0 -1 0 I I #
point $-1 -62.579764938487102 -37.246246990558248 -16.495903224331808 #
coedge $-1 $773 $527 $530 $695 forward $519 $-1 #
coedge $-1 $527 $773 $534 $697 reversed $519 $-1 #
straight-curve $-1 -76.913968321787166 0 -6.7294545603896649 0 1 0 I I #
edge $-1 $532 6.7294545603896649 $777 16.495903224331808 $530 $780 forward 7 unknown #
point $-1 -76.913968321787166 37.246246990558248 -6.7294545603896649 #
edge $-1 $535 6.7294545603896649 $775 16.495903224331808 $693 $781 forward 7 unknown #
point $-1 -76.913968321787166 -37.246246990558248 -6.7294545603896649 #
straight-curve $-1 -62.579764938487102 37.246246990558248 -5.8063394461803686 0 0 -1 I I #
edge $-1 $701 38.535094706928959 $704 48.459054833139973 $541 $782 forward 7 unknown #
vertex $-1 $545 $783 #
straight-curve $-1 -44.699347778952273 -37.246246990558248 54.202603871821978 0 0 1 I I #
edge $-1 $704 17.879569599592429 $552 35.759986759127258 $551 $784 forward 7 unknown #
vertex $-1 $703 $785 #
straight-curve $-1 -44.699347778952273 -37.246246990558234 5.4742286371835576 0 -0.66913059716165679 -0.74314483375859142 I I #
point $-1 -44.699347778952273 -37.246246990558248 5.4742286371835416 #
point $-1 -62.579764938487102 -27.32228686434723 16.495903224331808 #
straight-curve $-1 0 -37.246246990558248 16.495903224331808 1 0 0 I I #
vertex $-1 $558 $786 #
point $-1 -55.471074321477154 -29.088156738769143 8.1072754624691896 #
vertex $-1 $562 $787 #
point $-1 -47.808038395962228 -29.088156738769143 8.1072754624691896 #
coedge $-1 $577 $576 $569 $714 forward $566 $-1 #
edge $-1 $715 38.535094706928959 $718 48.459054833139973 $713 $788 forward 7 unknown #
vertex $-1 $714 $789 #
straight-curve $-1 -4.1615757453724562 -37.246246990558248 54.202603871821978 0 0 1 I I #
edge $-1 $718 -2.389316417197481 $578 15.491100742337355 $577 $790 forward 7 unknown #
vertex $-1 $717 $791 #
straight-curve $-1 -4.1615757453724562 -37.246246990558234 5.4742286371835576 0 -0.66913059716165679 -0.74314483375859142 I I #
point $-1 -4.1615757453724562 -37.246246990558248 5.4742286371835416 #
point $-1 -22.041992904907293 -27.32228686434723 16.495903224331808 #
straight-curve $-1 0 -37.246246990558248 16.495903224331808 1 0 0 I I #
vertex $-1 $584 $792 #
point $-1 -14.933302287897341 -29.088156738769143 8.1072754624691896 #
vertex $-1 $588 $793 #
point $-1 -7.2702663623824151 -29.088156738769143 8.1072754624691896 #
coedge $-1 $603 $602 $595 $728 forward $592 $-1 #
edge $-1 $729 38.535094706928959 $732 48.459054833139973 $727 $794 forward 7 unknown #
vertex $-1 $728 $795 #
straight-curve $-1 36.376196288207353 -37.246246990558248 54.202603871821978 0 0 1 I I #
edge $-1 $732 -22.658202433987384 $604 -4.7777852744525511 $603 $796 forward 7 unknown #
vertex $-1 $731 $797 #
straight-curve $-1 36.376196288207353 -37.246246990558234 5.4742286371835576 0 -0.66913059716165679 -0.74314483375859142 I I #
point $-1 36.376196288207353 -37.246246990558248 5.4742286371835416 #
point $-1 18.49577912867252 -27.32228686434723 16.495903224331808 #
straight-curve $-1 0 -37.246246990558248 16.495903224331808 1 0 0 I I #
vertex $-1 $610 $798 #
point $-1 25.604469745682479 -29.088156738769143 8.1072754624691896 #
vertex $-1 $614 $799 #
point $-1 33.267505671197398 -29.088156738769143 8.1072754624691896 #
edge $-1 $744 -42.927088450777291 $628 -25.046671291242461 $627 $800 forward 7 unknown #
coedge $-1 $743 $621 $748 $801 reversed $618 $-1 #
coedge $-1 $621 $742 $623 $746 forward $618 $-1 #
vertex $-1 $622 $802 #
straight-curve $-1 76.913968321787166 -30.269068768681407 13.223170281452813 0 0.66913059716165679 0.74314483375859142 I I #
edge $-1 $750 -16.495903224331808 $624 -5.4742286371835416 $743 $803 forward 7 unknown #
point $-1 76.913968321787166 -37.246246990558248 5.4742286371835416 #
coedge $-1 $627 $626 $742 $801 forward $446 $-1 #
point $-1 59.033551162252337 -27.32228686434723 16.495903224331808 #
vertex $-1 $801 $804 #
straight-curve $-1 0 -37.246246990558248 16.495903224331808 1 0 0 I I #
vertex $-1 $634 $805 #
point $-1 66.142241779262292 -29.088156738769143 8.1072754624691896 #
vertex $-1 $638 $806 #
point $-1 73.805277704777211 -29.088156738769143 8.1072754624691896 #
edge $-1 $757 70.414667828941845 $760 76.395817996418714 $643 $807 forward 7 unknown #
vertex $-1 $657 $808 #
straight-curve $-1 19.884022642920698 43.838144053949655 16.495903224331812 0 1 0 I I #
edge $-1 $760 -16.957034393746838 $654 11.103057895399118 $653 $809 forward 7 unknown #
vertex $-1 $759 $810 #
straight-curve $-1 19.884022642920698 -17.234113662119768 61.318512392959306 0 -0.7313536940579346 0.68199836817093118 I I #
point $-1 19.884022642920698 30.832248843566937 16.495903224331819 #
point $-1 -8.1760696462252582 37.246246990558248 10.514753056854936 #
straight-curve $-1 0 37.246246990558248 16.495903224331808 -1 0 0 I I #
vertex $-1 $660 $811 #
point $-1 0.84109957924501089 33.177545153897093 12.581265080572861 #
vertex $-1 $664 $812 #
point $-1 12.866853417450415 33.177545153897093 12.581265080572861 #
straight-curve $-1 -76.913968321787166 37.246246990558248 0 0 0 -1 I I #
point $-1 -76.913968321787166 -37.246246990558248 -16.495903224331808 #
straight-curve $-1 -76.913968321787166 0 -16.495903224331808 0 1 0 I I #
point $-1 -76.913968321787166 37.246246990558248 -16.495903224331808 #
coedge $-1 $693 $692 $685 $774 reversed $519 $-1 #
edge $-1 $775 -37.246246990558248 $777 37.246246990558248 $773 $813 forward 7 unknown #
vertex $-1 $774 $814 #
straight-curve $-1 0 -37.246246990558248 -16.495903224331808 -1 0 0 I I #
vertex $-1 $688 $815 #
straight-curve $-1 0 37.246246990558248 -16.495903224331808 1 0 0 I I #
point $-1 -62.579764938487102 37.246246990558248 -16.495903224331808 #
straight-curve $-1 -76.913968321787166 37.246246990558248 0 0 0 -1 I I #
straight-curve $-1 -76.913968321787166 -37.246246990558248 0 0 0 -1 I I #
straight-curve $-1 -44.699347778952273 -75.781341697487207 16.495903224331812 0 1 0 I I #
point $-1 -44.699347778952273 -37.246246990558248 16.495903224331808 #
straight-curve $-1 -26.819778179359844 -27.322286864347227 16.495903224331808 -1 0 0 I I #
point $-1 -44.699347778952273 -27.32228686434723 16.495903224331808 #
point $-1 -57.471074321477154 -27.601867071251959 6.7690142681458747 #
point $-1 -49.808038395962228 -27.601867071251959 6.7690142681458747 #
straight-curve $-1 -4.1615757453724562 -75.781341697487207 16.495903224331812 0 1 0 I I #
point $-1 -4.1615757453724562 -37.246246990558248 16.495903224331808 #
straight-curve $-1 -6.5508921625699372 -27.322286864347227 16.495903224331808 -1 0 0 I I #
point $-1 -4.1615757453724562 -27.32228686434723 16.495903224331808 #
point $-1 -16.933302287897341 -27.601867071251959 6.7690142681458747 #
point $-1 -9.2702663623824151 -27.601867071251959 6.7690142681458747 #
straight-curve $-1 36.376196288207353 -75.781341697487207 16.495903224331812 0 1 0 I I #
point $-1 36.376196288207353 -37.246246990558248 16.495903224331808 #
straight-curve $-1 13.717993854219969 -27.322286864347227 16.495903224331808 -1 0 0 I I #
point $-1 36.376196288207353 -27.32228686434723 16.495903224331808 #
point $-1 23.604469745682479 -27.601867071251959 6.7690142681458747 #
point $-1 31.267505671197398 -27.601867071251959 6.7690142681458747 #
straight-curve $-1 33.986879871009876 -27.322286864347227 16.495903224331808 -1 0 0 I I #
edge $-1 $750 -37.246246990558248 $744 -27.32228686434723 $742 $816 forward 7 unknown #
point $-1 76.913968321787166 -27.32228686434723 16.495903224331808 #
straight-curve $-1 76.913968321787166 -37.246246990558248 0 0 0 -1 I I #
point $-1 76.913968321787166 -37.246246990558248 16.495903224331808 #
point $-1 64.142241779262292 -27.601867071251959 6.7690142681458747 #
point $-1 71.805277704777211 -27.601867071251959 6.7690142681458747 #
straight-curve $-1 19.884022642920698 37.246246990558248 86.910571053273657 0 0 -1 I I #
point $-1 19.884022642920698 37.246246990558248 16.495903224331808 #
straight-curve $-1 2.9269882491738599 37.246246990558248 10.514753056854939 -1 0 0 I I #
point $-1 19.884022642920698 37.246246990558248 10.514753056854936 #
point $-1 -0.15890042075498911 32.495546785726155 11.849911386514927 #
point $-1 11.866853417450415 32.495546785726155 11.849911386514927 #
straight-curve $-1 -76.913968321787166 0 -16.495903224331808 0 1 0 I I #
point $-1 -76.913968321787166 -37.246246990558248 -16.495903224331808 #
point $-1 -76.913968321787166 37.246246990558248 -16.495903224331808 #
straight-curve $-1 76.913968321787166 0 16.495903224331808 0 1 0 I I #
End-of-ACIS-data 