500 0 6 0           
7 Unknown 11 ACIS 5.0 NT 24 Thu Mar 25 16:39:41 1999 
-1 9.9999999999999995e-007 1e-010 
body $-1 $6 $-1 $7 #
body $-1 $8 $-1 $9 #
body $-1 $10 $-1 $11 #
body $-1 $12 $-1 $13 #
body $-1 $14 $-1 $15 #
body $-1 $16 $-1 $17 #
lump $-1 $-1 $18 $0 #
transform $-1 1 0 0 0 1 0 0 0 1 76.500137333292642 46.023586451763386 19.629023805109973 1 rotate no_reflect no_shear #
lump $-1 $-1 $19 $1 #
transform $-1 1 0 0 0 1 0 0 0 1 76.500137333292642 46.023586451763386 19.629023805109973 1 rotate no_reflect no_shear #
lump $-1 $-1 $20 $2 #
transform $-1 1 0 0 0 1 0 0 0 1 76.500137333292642 46.023586451763386 19.629023805109973 1 rotate no_reflect no_shear #
lump $-1 $-1 $21 $3 #
transform $-1 1 0 0 0 1 0 0 0 1 76.500137333292642 46.023586451763386 19.629023805109973 1 rotate no_reflect no_shear #
lump $-1 $-1 $22 $4 #
transform $-1 1 0 0 0 1 0 0 0 1 76.500137333292642 46.023586451763386 19.629023805109973 1 rotate no_reflect no_shear #
lump $-1 $-1 $23 $5 #
transform $-1 1 0 0 0 1 0 0 0 1 76.500137333292642 46.023586451763386 19.629023805109973 1 rotate no_reflect no_shear #
shell $-1 $-1 $-1 $24 $-1 $6 #
shell $-1 $-1 $-1 $25 $-1 $8 #
shell $-1 $-1 $-1 $26 $-1 $10 #
shell $-1 $-1 $-1 $27 $-1 $12 #
shell $-1 $-1 $-1 $28 $-1 $14 #
shell $-1 $-1 $-1 $29 $-1 $16 #
face $-1 $30 $31 $18 $-1 $32 forward single #
face $-1 $33 $34 $19 $-1 $35 reversed single #
face $-1 $36 $37 $20 $-1 $38 reversed single #
face $-1 $39 $40 $21 $-1 $41 forward single #
face $-1 $42 $43 $22 $-1 $44 forward single #
face $-1 $45 $46 $23 $-1 $47 forward single #
face $-1 $48 $49 $18 $-1 $50 reversed single #
loop $-1 $-1 $51 $24 #
plane-surface $-1 0 0 19.629023805109973 0 0 1 1 0 0 forward_v I I I I #
face $-1 $52 $53 $19 $-1 $54 reversed single #
loop $-1 $-1 $55 $25 #
plane-surface $-1 -69.886551495041203 -23.734010978704234 0 0 1 0 0 0 1 forward_v I I I I #
face $-1 $56 $57 $20 $-1 $58 reversed single #
loop $-1 $-1 $59 $26 #
plane-surface $-1 35.213830708056065 35.667120728827747 226.06947649655103 0 1 0 0.55919291073839883 0 0.82903756765294845 forward_v I I I I #
face $-1 $60 $61 $21 $-1 $62 forward single #
loop $-1 $63 $64 $27 #
cone-surface $-1 71.585870113178373 37.738413873414878 15.912840156595372 -0.55919291073839883 0 -0.82903756765294845 0.41451878382647422 0 -0.27959645536919941 1 I I 0 1 0.5 forward I I I I #
face $-1 $65 $66 $22 $-1 $67 forward single #
loop $-1 $68 $69 $28 #
cone-surface $-1 71.585870113178373 40.845353590295566 15.912840156595372 -0.55919291073839883 0 -0.82903756765294845 0.41451878382647422 0 -0.27959645536919941 1 I I 0 1 0.5 forward I I I I #
face $-1 $70 $71 $23 $-1 $72 forward single #
loop $-1 $73 $74 $29 #
cone-surface $-1 71.585870113178373 43.952293307176255 15.912840156595372 -0.55919291073839883 0 -0.82903756765294845 0.41451878382647422 0 -0.27959645536919941 1 I I 0 1 0.5 forward I I I I #
face $-1 $75 $76 $18 $-1 $77 reversed single #
loop $-1 $-1 $78 $30 #
plane-surface $-1 0 0 -19.629023805109973 0 0 1 1 0 0 forward_v I I I I #
coedge $-1 $79 $80 $81 $82 forward $31 $-1 #
face $-1 $83 $84 $19 $-1 $85 reversed single #
loop $-1 $-1 $86 $33 #
plane-surface $-1 -69.886551495041203 -12.739672958892127 0 0 -1 0 0 0 -1 forward_v I I I I #
coedge $-1 $87 $88 $89 $90 reversed $34 $-1 #
face $-1 $91 $92 $20 $-1 $93 reversed single #
loop $-1 $-1 $94 $36 #
plane-surface $-1 -50.342838226526268 40.845353590295566 99.226500936732137 0.55919291073839883 0 0.82903756765294845 0.82903756765294845 0 -0.55919291073839883 forward_v I I I I #
coedge $-1 $95 $96 $97 $98 reversed $37 $-1 #
face $-1 $-1 $99 $21 $-1 $100 forward single #
loop $-1 $101 $102 $39 #
cone-surface $-1 70.949237167322238 37.738413873414878 14.968993017647612 -0.55919291073839883 0 -0.82903756765294845 0.20725939191323711 0 -0.13979822768459971 1 I I -0.70710678118654746 0.70710678118654746 0.25 forward I I I I #
loop $-1 $-1 $103 $27 #
coedge $-1 $64 $64 $104 $105 reversed $40 $-1 #
face $-1 $-1 $106 $22 $-1 $107 forward single #
loop $-1 $108 $109 $42 #
cone-surface $-1 70.949237167322238 40.845353590295566 14.968993017647612 -0.55919291073839883 0 -0.82903756765294845 0.20725939191323711 0 -0.13979822768459971 1 I I -0.70710678118654746 0.70710678118654746 0.25 forward I I I I #
loop $-1 $-1 $110 $28 #
coedge $-1 $69 $69 $111 $112 reversed $43 $-1 #
face $-1 $-1 $113 $23 $-1 $114 forward single #
loop $-1 $115 $116 $45 #
cone-surface $-1 70.949237167322238 43.952293307176255 14.968993017647612 -0.55919291073839883 0 -0.82903756765294845 0.20725939191323711 0 -0.13979822768459971 1 I I -0.70710678118654746 0.70710678118654746 0.25 forward I I I I #
loop $-1 $-1 $117 $29 #
coedge $-1 $74 $74 $118 $119 reversed $46 $-1 #
face $-1 $120 $121 $18 $-1 $122 reversed single #
loop $-1 $-1 $123 $48 #
plane-surface $-1 0 -46.023586451763386 0 0 1 0 0 0 1 forward_v I I I I #
coedge $-1 $124 $125 $126 $127 forward $49 $-1 #
coedge $-1 $128 $51 $129 $130 forward $31 $-1 #
coedge $-1 $51 $128 $131 $132 forward $31 $-1 #
coedge $-1 $133 $134 $51 $82 reversed $135 $-1 #
edge $-1 $136 -46.023586451763386 $137 46.023586451763386 $81 $138 forward 7 unknown #
face $-1 $139 $140 $19 $-1 $141 reversed single #
loop $-1 $-1 $142 $52 #
plane-surface $-1 -63.272965656789765 -18.236841968798181 0 -1 0 0 0 0 1 forward_v I I I I #
coedge $-1 $143 $144 $145 $146 forward $53 $-1 #
coedge $-1 $147 $55 $148 $149 reversed $34 $-1 #
coedge $-1 $55 $147 $150 $151 reversed $34 $-1 #
coedge $-1 $152 $153 $55 $90 forward $154 $-1 #
edge $-1 $155 -19.629023805109973 $156 19.629023805109973 $89 $157 forward 7 unknown #
face $-1 $158 $159 $20 $-1 $160 reversed single #
loop $-1 $-1 $97 $56 #
plane-surface $-1 76.500137333292642 0 0 -1 0 0 0 0 1 forward_v I I I I #
coedge $-1 $161 $162 $163 $164 reversed $57 $-1 #
coedge $-1 $96 $59 $165 $166 reversed $37 $-1 #
coedge $-1 $59 $95 $161 $167 reversed $37 $-1 #
coedge $-1 $163 $168 $59 $98 forward $92 $-1 #
edge $-1 $169 93.40571444316555 $170 99.364906246125727 $97 $171 forward 7 unknown #
loop $-1 $-1 $104 $60 #
plane-surface $-1 -50.342838226526268 40.845353590295566 99.226500936732137 0.55919291073839883 0 0.82903756765294845 0.82903756765294845 0 -0.55919291073839883 forward_v I I I I #
loop $-1 $-1 $172 $39 #
coedge $-1 $102 $102 $103 $173 reversed $61 $-1 #
coedge $-1 $103 $103 $102 $173 forward $63 $-1 #
coedge $-1 $104 $104 $64 $105 forward $99 $-1 #
edge $-1 $174 0 $174 6.2831853071796004 $104 $175 forward 7 unknown #
loop $-1 $-1 $111 $65 #
plane-surface $-1 -50.342838226526268 40.845353590295566 99.226500936732137 0.55919291073839883 0 0.82903756765294845 0.82903756765294845 0 -0.55919291073839883 forward_v I I I I #
loop $-1 $-1 $176 $42 #
coedge $-1 $109 $109 $110 $177 reversed $66 $-1 #
coedge $-1 $110 $110 $109 $177 forward $68 $-1 #
coedge $-1 $111 $111 $69 $112 forward $106 $-1 #
edge $-1 $178 0 $178 6.2831853071796004 $111 $179 forward 7 unknown #
loop $-1 $-1 $118 $70 #
plane-surface $-1 -50.342838226526268 40.845353590295566 99.226500936732137 0.55919291073839883 0 0.82903756765294845 0.82903756765294845 0 -0.55919291073839883 forward_v I I I I #
loop $-1 $-1 $180 $45 #
coedge $-1 $116 $116 $117 $181 reversed $71 $-1 #
coedge $-1 $117 $117 $116 $181 forward $73 $-1 #
coedge $-1 $118 $118 $74 $119 forward $113 $-1 #
edge $-1 $182 0 $182 6.2831853071796004 $118 $183 forward 7 unknown #
face $-1 $184 $185 $18 $-1 $186 reversed single #
loop $-1 $-1 $187 $75 #
plane-surface $-1 -76.500137333292642 0 0 1 0 0 0 0 -1 forward_v I I I I #
coedge $-1 $188 $131 $189 $190 forward $76 $-1 #
coedge $-1 $191 $78 $188 $192 forward $49 $-1 #
coedge $-1 $78 $191 $193 $194 forward $49 $-1 #
coedge $-1 $134 $133 $78 $127 reversed $135 $-1 #
edge $-1 $195 -46.023586451763386 $196 46.023586451763386 $126 $197 forward 7 unknown #
coedge $-1 $80 $79 $198 $199 forward $31 $-1 #
coedge $-1 $200 $201 $79 $130 reversed $185 $-1 #
edge $-1 $137 -76.500137333292642 $202 76.500137333292642 $129 $203 forward 7 unknown #
coedge $-1 $123 $204 $80 $132 reversed $76 $-1 #
edge $-1 $205 -76.500137333292642 $136 76.500137333292642 $131 $206 forward 7 unknown #
coedge $-1 $126 $81 $204 $207 forward $135 $-1 #
coedge $-1 $81 $126 $200 $208 reversed $135 $-1 #
loop $-1 $-1 $133 $184 #
vertex $-1 $82 $209 #
vertex $-1 $82 $210 #
straight-curve $-1 76.500137333292642 0 19.629023805109973 0 1 0 I I #
face $-1 $211 $212 $19 $-1 $213 forward single #
loop $-1 $-1 $214 $83 #
plane-surface $-1 0 0 -19.629023805109973 0 0 1 1 0 0 forward_v I I I I #
coedge $-1 $215 $216 $147 $217 forward $84 $-1 #
coedge $-1 $218 $86 $214 $219 reversed $53 $-1 #
coedge $-1 $86 $218 $220 $221 reversed $53 $-1 #
coedge $-1 $216 $215 $86 $146 reversed $84 $-1 #
edge $-1 $222 -19.629023805109973 $223 19.629023805109973 $145 $224 forward 7 unknown #
coedge $-1 $88 $87 $142 $217 reversed $34 $-1 #
coedge $-1 $225 $226 $87 $149 forward $140 $-1 #
edge $-1 $227 28.329689909269163 $155 41.55686158577204 $148 $228 forward 7 unknown #
coedge $-1 $229 $230 $88 $151 forward $212 $-1 #
edge $-1 $156 -41.55686158577204 $231 -28.329689909269163 $150 $232 forward 7 unknown #
coedge $-1 $233 $89 $230 $234 reversed $154 $-1 #
coedge $-1 $89 $233 $225 $235 reversed $154 $-1 #
loop $-1 $-1 $233 $211 #
vertex $-1 $235 $236 #
vertex $-1 $90 $237 #
straight-curve $-1 -76.500137333292642 -23.734010978704234 0 0 0 1 I I #
face $-1 $-1 $238 $20 $-1 $239 forward single #
loop $-1 $-1 $240 $91 #
plane-surface $-1 0 46.023586451763386 0 0 -1 0 0 0 -1 forward_v I I I I #
coedge $-1 $241 $94 $96 $167 forward $57 $-1 #
coedge $-1 $94 $241 $240 $242 reversed $57 $-1 #
coedge $-1 $243 $97 $94 $164 forward $92 $-1 #
edge $-1 $170 15.244443933679964 $244 25.600909656615602 $163 $245 forward 7 unknown #
coedge $-1 $246 $247 $95 $166 forward $238 $-1 #
edge $-1 $248 50.058356975379183 $169 58.893221979264609 $165 $249 forward 7 unknown #
edge $-1 $170 -153.00027466658531 $248 -142.34350186327623 $96 $250 forward 7 unknown #
coedge $-1 $97 $243 $246 $251 reversed $92 $-1 #
vertex $-1 $251 $252 #
vertex $-1 $98 $253 #
straight-curve $-1 76.500137333292642 35.667120728827747 113.03473824827552 0 0 -1 I I #
coedge $-1 $172 $172 $-1 $254 reversed $101 $-1 #
edge $-1 $255 0 $255 6.2831853071796004 $102 $256 forward 7 unknown #
vertex $-1 $105 $257 #
ellipse-curve $-1 72.082704831349915 37.738413873414878 16.649427903629899 0.55919291073839883 0 0.82903756765294845 0.41451878382647422 0 -0.27959645536919941 1 I I #
coedge $-1 $176 $176 $-1 $258 reversed $108 $-1 #
edge $-1 $259 0 $259 6.2831853071796004 $109 $260 forward 7 unknown #
vertex $-1 $112 $261 #
ellipse-curve $-1 72.082704831349915 40.845353590295566 16.649427903629899 0.55919291073839883 0 0.82903756765294845 0.41451878382647422 0 -0.27959645536919941 1 I I #
coedge $-1 $180 $180 $-1 $262 reversed $115 $-1 #
edge $-1 $263 0 $263 6.2831853071796004 $116 $264 forward 7 unknown #
vertex $-1 $119 $265 #
ellipse-curve $-1 72.082704831349915 43.952293307176255 16.649427903629899 0.55919291073839883 0 0.82903756765294845 0.41451878382647422 0 -0.27959645536919941 1 I I #
face $-1 $-1 $135 $18 $-1 $266 reversed single #
loop $-1 $-1 $200 $120 #
plane-surface $-1 0 46.023586451763386 0 0 -1 0 0 0 -1 forward_v I I I I #
coedge $-1 $267 $198 $201 $268 forward $121 $-1 #
coedge $-1 $204 $123 $124 $192 reversed $76 $-1 #
coedge $-1 $198 $267 $123 $190 reversed $121 $-1 #
edge $-1 $205 -19.629023805109973 $269 19.629023805109973 $189 $270 forward 7 unknown #
coedge $-1 $125 $124 $267 $271 forward $49 $-1 #
edge $-1 $196 -76.500137333292642 $269 76.500137333292642 $188 $272 forward 7 unknown #
coedge $-1 $201 $200 $125 $194 reversed $185 $-1 #
edge $-1 $273 -76.500137333292642 $195 76.500137333292642 $193 $274 forward 7 unknown #
vertex $-1 $127 $275 #
vertex $-1 $207 $276 #
straight-curve $-1 76.500137333292642 0 -19.629023805109973 0 -1 0 I I #
coedge $-1 $187 $189 $128 $199 reversed $121 $-1 #
edge $-1 $202 -46.023586451763386 $205 46.023586451763386 $198 $277 forward 7 unknown #
coedge $-1 $193 $129 $134 $208 forward $185 $-1 #
coedge $-1 $129 $193 $187 $268 reversed $185 $-1 #
vertex $-1 $130 $278 #
straight-curve $-1 0 46.023586451763386 19.629023805109973 -1 0 0 I I #
coedge $-1 $131 $188 $133 $207 reversed $76 $-1 #
vertex $-1 $199 $279 #
straight-curve $-1 0 -46.023586451763386 19.629023805109973 1 0 0 I I #
edge $-1 $136 -19.629023805109973 $196 19.629023805109973 $133 $280 forward 7 unknown #
edge $-1 $137 -19.629023805109973 $195 19.629023805109973 $134 $281 forward 7 unknown #
point $-1 76.500137333292642 -46.023586451763386 19.629023805109973 #
point $-1 76.500137333292642 46.023586451763386 19.629023805109973 #
face $-1 $-1 $154 $19 $-1 $282 reversed single #
loop $-1 $-1 $220 $139 #
plane-surface $-1 0 0 19.629023805109973 0 0 1 1 0 0 forward_v I I I I #
coedge $-1 $226 $225 $143 $219 forward $140 $-1 #
coedge $-1 $145 $142 $226 $283 reversed $84 $-1 #
coedge $-1 $142 $145 $229 $284 reversed $84 $-1 #
edge $-1 $231 -19.629023805109973 $227 19.629023805109973 $142 $285 forward 7 unknown #
coedge $-1 $144 $143 $233 $286 reversed $53 $-1 #
edge $-1 $287 -41.55686158577204 $223 -28.329689909269163 $214 $288 forward 7 unknown #
coedge $-1 $230 $229 $144 $221 forward $212 $-1 #
edge $-1 $222 28.329689909269163 $289 41.55686158577204 $220 $290 forward 7 unknown #
vertex $-1 $221 $291 #
vertex $-1 $219 $292 #
straight-curve $-1 -63.272965656789765 -12.739672958892127 0 0 0 -1 I I #
coedge $-1 $214 $148 $153 $235 forward $140 $-1 #
coedge $-1 $148 $214 $215 $283 forward $140 $-1 #
vertex $-1 $149 $293 #
straight-curve $-1 -34.943275747520602 -23.734010978704234 -19.629023805109973 -1 0 0 I I #
coedge $-1 $220 $150 $216 $284 forward $212 $-1 #
coedge $-1 $150 $220 $152 $234 forward $212 $-1 #
vertex $-1 $151 $294 #
straight-curve $-1 -34.943275747520602 -23.734010978704234 19.629023805109973 1 0 0 I I #
coedge $-1 $153 $152 $218 $286 forward $154 $-1 #
edge $-1 $289 12.739672958892127 $156 23.734010978704234 $152 $295 forward 7 unknown #
edge $-1 $155 -23.734010978704234 $287 -12.739672958892127 $153 $296 forward 7 unknown #
point $-1 -76.500137333292642 -23.734010978704234 -19.629023805109973 #
point $-1 -76.500137333292642 -23.734010978704234 19.629023805109973 #
loop $-1 $-1 $165 $158 #
plane-surface $-1 0 0 19.629023805109973 0 0 1 1 0 0 forward_v I I I I #
coedge $-1 $297 $298 $162 $242 forward $159 $-1 #
coedge $-1 $162 $161 $247 $299 reversed $57 $-1 #
edge $-1 $244 -104.38884464995385 $300 -93.7320718466448 $240 $301 forward 7 unknown #
coedge $-1 $168 $163 $298 $302 reversed $92 $-1 #
vertex $-1 $242 $303 #
straight-curve $-1 76.500137333292656 20.422676795147783 13.669832002149789 0 1 0 I I #
coedge $-1 $304 $165 $168 $251 forward $238 $-1 #
coedge $-1 $165 $304 $241 $299 forward $238 $-1 #
vertex $-1 $166 $305 #
straight-curve $-1 17.606915354028033 35.667120728827747 19.629023805109966 1 0 0 I I #
straight-curve $-1 -50.342838226526268 35.667120728827747 99.226500936732137 -0.82903756765294845 0 0.55919291073839883 I I #
edge $-1 $169 35.667120728827747 $306 46.023586451763386 $168 $307 forward 7 unknown #
point $-1 76.500137333292642 35.667120728827747 19.629023805109973 #
point $-1 76.500137333292642 35.667120728827747 13.669832002149789 #
edge $-1 $308 1 $308 0 $172 $-1 forward 7 unknown #
vertex $-1 $173 $309 #
ellipse-curve $-1 71.089035395006832 37.738413873414878 15.176252409560849 0.55919291073839883 0 0.82903756765294845 0.41451878382647422 0 -0.27959645536919941 1 I I #
point $-1 72.497223615176395 37.738413873414878 16.369831448260697 #
edge $-1 $310 1 $310 0 $176 $-1 forward 7 unknown #
vertex $-1 $177 $311 #
ellipse-curve $-1 71.089035395006832 40.845353590295566 15.176252409560849 0.55919291073839883 0 0.82903756765294845 0.41451878382647422 0 -0.27959645536919941 1 I I #
point $-1 72.497223615176395 40.845353590295566 16.369831448260697 #
edge $-1 $312 1 $312 0 $180 $-1 forward 7 unknown #
vertex $-1 $181 $313 #
ellipse-curve $-1 71.089035395006832 43.952293307176255 15.176252409560849 0.55919291073839883 0 0.82903756765294845 0.41451878382647422 0 -0.27959645536919941 1 I I #
point $-1 72.497223615176395 43.952293307176255 16.369831448260697 #
plane-surface $-1 76.500137333292642 0 0 -1 0 0 0 0 1 forward_v I I I I #
coedge $-1 $189 $187 $191 $271 reversed $121 $-1 #
edge $-1 $202 -19.629023805109973 $273 19.629023805109973 $201 $314 forward 7 unknown #
vertex $-1 $271 $315 #
straight-curve $-1 -76.500137333292642 -46.023586451763386 0 0 0 -1 I I #
edge $-1 $269 -46.023586451763386 $273 46.023586451763386 $267 $316 forward 7 unknown #
straight-curve $-1 0 -46.023586451763386 -19.629023805109973 -1 0 0 I I #
vertex $-1 $194 $317 #
straight-curve $-1 0 46.023586451763386 -19.629023805109973 1 0 0 I I #
point $-1 76.500137333292642 46.023586451763386 -19.629023805109973 #
point $-1 76.500137333292642 -46.023586451763386 -19.629023805109973 #
straight-curve $-1 -76.500137333292642 0 19.629023805109973 0 -1 0 I I #
point $-1 -76.500137333292642 46.023586451763386 19.629023805109973 #
point $-1 -76.500137333292642 -46.023586451763386 19.629023805109973 #
straight-curve $-1 76.500137333292642 -46.023586451763386 0 0 0 -1 I I #
straight-curve $-1 76.500137333292642 46.023586451763386 0 0 0 -1 I I #
plane-surface $-1 -76.500137333292642 0 0 1 0 0 0 0 -1 forward_v I I I I #
edge $-1 $223 3.6212519744930365 $227 14.615589994305143 $226 $318 forward 7 unknown #
edge $-1 $231 -14.615589994305143 $222 -3.6212519744930365 $229 $319 forward 7 unknown #
straight-curve $-1 -63.272965656789765 -23.734010978704234 0 0 0 -1 I I #
edge $-1 $289 -19.629023805109973 $287 19.629023805109973 $233 $320 forward 7 unknown #
vertex $-1 $286 $321 #
straight-curve $-1 -34.943275747520602 -12.739672958892127 -19.629023805109973 1 0 0 I I #
vertex $-1 $234 $322 #
straight-curve $-1 -34.943275747520602 -12.739672958892127 19.629023805109973 -1 0 0 I I #
point $-1 -63.272965656789765 -12.739672958892127 19.629023805109973 #
point $-1 -63.272965656789765 -12.739672958892127 -19.629023805109973 #
point $-1 -63.272965656789765 -23.734010978704234 -19.629023805109973 #
point $-1 -63.272965656789765 -23.734010978704234 19.629023805109973 #
straight-curve $-1 -76.500137333292642 0 19.629023805109973 0 -1 0 I I #
straight-curve $-1 -76.500137333292642 0 -19.629023805109973 0 1 0 I I #
coedge $-1 $298 $240 $304 $323 reversed $159 $-1 #
coedge $-1 $240 $297 $243 $302 forward $159 $-1 #
edge $-1 $300 -25.600909656615602 $248 -15.244443933679964 $247 $324 forward 7 unknown #
vertex $-1 $242 $325 #
straight-curve $-1 -10.042136525406599 46.023586451763386 72.043333890576008 -0.82903756765294845 0 0.55919291073839883 I I #
edge $-1 $306 -19.629023805109973 $244 -13.669832002149791 $243 $326 forward 7 unknown #
point $-1 76.500137333292642 46.023586451763386 13.669832002149791 #
coedge $-1 $247 $246 $297 $323 forward $238 $-1 #
point $-1 67.665272329407216 35.667120728827747 19.629023805109995 #
vertex $-1 $251 $327 #
straight-curve $-1 76.500137333292642 0 19.629023805109973 0 1 0 I I #
vertex $-1 $254 $328 #
point $-1 71.503554178833312 37.738413873414878 14.896655954191651 #
vertex $-1 $258 $329 #
point $-1 71.503554178833312 40.845353590295566 14.896655954191651 #
vertex $-1 $262 $330 #
point $-1 71.503554178833312 43.952293307176255 14.896655954191651 #
straight-curve $-1 -76.500137333292642 46.023586451763386 0 0 0 -1 I I #
point $-1 -76.500137333292642 -46.023586451763386 -19.629023805109973 #
straight-curve $-1 -76.500137333292642 0 -19.629023805109973 0 1 0 I I #
point $-1 -76.500137333292642 46.023586451763386 -19.629023805109973 #
straight-curve $-1 -63.272965656789765 -9.1184209843990907 -19.629023805109973 0 -1 0 I I #
straight-curve $-1 -63.272965656789765 -9.1184209843990907 19.629023805109973 0 1 0 I I #
straight-curve $-1 -76.500137333292642 -12.739672958892127 0 0 0 -1 I I #
point $-1 -76.500137333292642 -12.739672958892127 -19.629023805109973 #
point $-1 -76.500137333292642 -12.739672958892127 19.629023805109973 #
edge $-1 $306 -76.500137333292642 $300 -67.665272329407216 $297 $331 forward 7 unknown #
straight-curve $-1 67.66527232940723 20.422676795147783 19.629023805109973 0 -1 0 I I #
point $-1 67.665272329407216 46.023586451763386 19.629023805109995 #
straight-curve $-1 76.500137333292642 46.023586451763386 0 0 0 -1 I I #
point $-1 76.500137333292642 46.023586451763386 19.629023805109973 #
point $-1 70.809438939637644 37.738413873414878 14.761733625734376 #
point $-1 70.809438939637644 40.845353590295566 14.761733625734376 #
point $-1 70.809438939637644 43.952293307176255 14.761733625734376 #
straight-curve $-1 0 46.023586451763386 19.629023805109973 -1 0 0 I I #
End-of-ACIS-data 