500 0 4 0           
7 Unknown 11 ACIS 5.0 NT 24 Fri Mar 26 15:42:53 1999 
-1 9.9999999999999995e-007 1e-010 
body $-1 $4 $-1 $5 #
body $-1 $6 $-1 $7 #
body $-1 $8 $-1 $9 #
body $-1 $10 $-1 $11 #
lump $-1 $-1 $12 $0 #
transform $-1 1 0 0 0 1 0 0 0 1 66.283761101107814 36.401754234883725 16.298191962313673 1 rotate no_reflect no_shear #
lump $-1 $-1 $13 $1 #
transform $-1 1 0 0 0 1 0 0 0 1 66.283761101107814 36.401754234883725 16.298191962313673 1 rotate no_reflect no_shear #
lump $-1 $-1 $14 $2 #
transform $-1 1 0 0 0 1 0 0 0 1 66.283761101107814 36.401754234883725 16.298191962313673 1 rotate no_reflect no_shear #
lump $-1 $-1 $15 $3 #
transform $-1 1 0 0 0 1 0 0 0 1 66.283761101107814 36.401754234883725 16.298191962313673 1 rotate no_reflect no_shear #
shell $-1 $-1 $-1 $16 $-1 $4 #
shell $-1 $-1 $-1 $17 $-1 $6 #
shell $-1 $-1 $-1 $18 $-1 $8 #
shell $-1 $-1 $-1 $19 $-1 $10 #
face $-1 $20 $21 $12 $-1 $22 forward single #
face $-1 $23 $24 $13 $-1 $25 forward single #
face $-1 $26 $27 $14 $-1 $28 reversed single #
face $-1 $29 $30 $15 $-1 $31 forward single #
face $-1 $32 $33 $12 $-1 $34 reversed single #
loop $-1 $-1 $35 $16 #
plane-surface $-1 0 0 16.298191962313673 0 0 1 1 0 0 forward_v I I I I #
face $-1 $36 $37 $13 $-1 $38 forward single #
loop $-1 $-1 $39 $17 #
plane-surface $-1 -66.283761101107814 0 0 1 0 0 0 0 -1 forward_v I I I I #
face $-1 $40 $41 $14 $-1 $42 reversed single #
loop $-1 $-1 $43 $18 #
plane-surface $-1 51.003981977942004 -36.401754234883711 0.39163656250595125 0 -0.57357644374324357 0.81915203911291934 1 0 0 forward_v I I I I #
face $-1 $44 $45 $15 $-1 $46 forward single #
loop $-1 $47 $48 $19 #
cone-surface $-1 51.003981977942004 -24.157567785647814 7.07996221910118 0 0.57357644374324357 -0.81915203911291934 3 0 0 1 I I 0 1 3 forward I I I I #
face $-1 $49 $50 $12 $-1 $51 reversed single #
loop $-1 $-1 $52 $20 #
plane-surface $-1 0 0 -16.298191962313673 0 0 1 1 0 0 forward_v I I I I #
coedge $-1 $53 $54 $55 $56 forward $21 $-1 #
face $-1 $57 $58 $13 $-1 $59 reversed single #
loop $-1 $-1 $60 $23 #
plane-surface $-1 0 0 16.298191962313673 0 0 1 1 0 0 forward_v I I I I #
coedge $-1 $61 $62 $63 $64 forward $24 $-1 #
face $-1 $65 $66 $14 $-1 $67 reversed single #
loop $-1 $-1 $68 $26 #
plane-surface $-1 35.724202854776188 -112.43936217548404 108.98459269459809 1 0 0 0 0.57357644374324357 -0.81915203911291934 forward_v I I I I #
coedge $-1 $69 $70 $71 $72 reversed $27 $-1 #
face $-1 $-1 $73 $15 $-1 $74 forward single #
loop $-1 $75 $76 $29 #
cone-surface $-1 51.003981977942004 -22.411474146822513 4.5862821171231616 0 0.57357644374324357 -0.81915203911291934 1.5 0 0 1 I I -0.70710678118654757 0.70710678118654757 1.5 forward I I I I #
loop $-1 $-1 $77 $19 #
coedge $-1 $48 $48 $78 $79 reversed $30 $-1 #
face $-1 $80 $81 $12 $-1 $82 reversed single #
loop $-1 $-1 $83 $32 #
plane-surface $-1 0 -36.401754234883725 0 0 1 0 0 0 1 forward_v I I I I #
coedge $-1 $84 $85 $86 $87 forward $33 $-1 #
coedge $-1 $88 $35 $89 $90 forward $21 $-1 #
coedge $-1 $35 $88 $91 $92 forward $21 $-1 #
coedge $-1 $93 $94 $35 $56 reversed $95 $-1 #
edge $-1 $96 -36.401754234883725 $97 36.401754234883725 $55 $98 forward 7 unknown #
face $-1 $99 $100 $13 $-1 $101 reversed single #
loop $-1 $-1 $102 $36 #
plane-surface $-1 -78.885182708186449 -34.692848991043242 0 1 0 0 0 0 -1 forward_v I I I I #
coedge $-1 $103 $104 $61 $105 forward $37 $-1 #
coedge $-1 $106 $39 $60 $105 reversed $24 $-1 #
coedge $-1 $39 $106 $107 $108 reversed $24 $-1 #
coedge $-1 $109 $110 $39 $64 reversed $100 $-1 #
edge $-1 $111 -16.298191962313673 $112 16.298191962313673 $63 $113 forward 7 unknown #
face $-1 $114 $115 $14 $-1 $116 forward single #
loop $-1 $-1 $117 $40 #
plane-surface $-1 0 -36.401754234883725 0 0 1 0 0 0 1 forward_v I I I I #
coedge $-1 $118 $119 $120 $121 reversed $41 $-1 #
coedge $-1 $122 $43 $123 $124 reversed $27 $-1 #
coedge $-1 $43 $122 $118 $125 forward $27 $-1 #
coedge $-1 $120 $126 $43 $72 forward $115 $-1 #
edge $-1 $127 -40.781770112136812 $128 -10.222211865805185 $71 $129 forward 7 unknown #
loop $-1 $-1 $78 $44 #
plane-surface $-1 51.003981977942004 -36.401754234883711 0.39163656250595125 0 -0.57357644374324357 0.81915203911291934 1 0 0 forward_v I I I I #
loop $-1 $-1 $130 $29 #
coedge $-1 $76 $76 $77 $131 reversed $45 $-1 #
coedge $-1 $77 $77 $76 $131 forward $47 $-1 #
coedge $-1 $78 $78 $48 $79 forward $73 $-1 #
edge $-1 $132 1.1164875467040235e-015 $132 6.2831853071796013 $78 $133 forward 7 unknown #
face $-1 $134 $135 $12 $-1 $136 reversed single #
loop $-1 $-1 $137 $49 #
plane-surface $-1 -66.283761101107814 0 0 1 0 0 0 0 -1 forward_v I I I I #
coedge $-1 $138 $91 $139 $140 forward $50 $-1 #
coedge $-1 $141 $52 $138 $142 forward $33 $-1 #
coedge $-1 $52 $141 $143 $144 forward $33 $-1 #
coedge $-1 $94 $93 $52 $87 reversed $95 $-1 #
edge $-1 $145 -36.401754234883725 $146 36.401754234883725 $86 $147 forward 7 unknown #
coedge $-1 $54 $53 $137 $148 forward $21 $-1 #
coedge $-1 $149 $150 $53 $90 reversed $135 $-1 #
edge $-1 $97 -66.283761101107814 $151 66.283761101107814 $89 $152 forward 7 unknown #
coedge $-1 $83 $153 $54 $92 reversed $50 $-1 #
edge $-1 $154 -66.283761101107814 $96 66.283761101107814 $91 $155 forward 7 unknown #
coedge $-1 $86 $55 $153 $156 forward $95 $-1 #
coedge $-1 $55 $86 $149 $157 reversed $95 $-1 #
loop $-1 $-1 $93 $134 #
vertex $-1 $56 $158 #
vertex $-1 $56 $159 #
straight-curve $-1 66.283761101107814 0 16.298191962313673 0 1 0 I I #
face $-1 $160 $161 $13 $-1 $162 reversed single #
loop $-1 $-1 $63 $57 #
plane-surface $-1 -72.584471904647131 -32.983943747202758 0 0 -1 0 0 0 -1 forward_v I I I I #
coedge $-1 $163 $164 $165 $166 forward $58 $-1 #
coedge $-1 $167 $60 $110 $168 forward $37 $-1 #
coedge $-1 $60 $167 $169 $170 forward $37 $-1 #
edge $-1 $171 -36.401754234883725 $112 -32.983943747202758 $60 $172 forward 7 unknown #
coedge $-1 $62 $61 $173 $174 reversed $24 $-1 #
coedge $-1 $175 $176 $62 $108 forward $161 $-1 #
edge $-1 $111 32.983943747202758 $177 36.401754234883725 $107 $178 forward 7 unknown #
coedge $-1 $165 $63 $176 $179 reversed $100 $-1 #
coedge $-1 $63 $165 $103 $168 reversed $100 $-1 #
vertex $-1 $108 $180 #
vertex $-1 $168 $181 #
straight-curve $-1 -66.283761101107814 -32.983943747202758 0 0 0 1 I I #
face $-1 $-1 $182 $14 $-1 $183 reversed single #
loop $-1 $-1 $120 $65 #
plane-surface $-1 0 0 16.298191962313673 0 0 1 1 0 0 forward_v I I I I #
coedge $-1 $184 $185 $119 $186 forward $66 $-1 #
coedge $-1 $119 $68 $70 $125 reversed $41 $-1 #
coedge $-1 $68 $118 $117 $186 reversed $41 $-1 #
coedge $-1 $187 $71 $68 $121 forward $115 $-1 #
edge $-1 $128 -42.534841804909277 $188 -19.817926852858292 $120 $189 forward 7 unknown #
coedge $-1 $70 $69 $184 $190 reversed $27 $-1 #
coedge $-1 $191 $192 $69 $124 forward $182 $-1 #
edge $-1 $193 -14.79696885101519 $127 12.935263832738748 $123 $194 forward 7 unknown #
edge $-1 $195 -1.7340190696821129e-014 $128 27.732232683753921 $118 $196 forward 7 unknown #
coedge $-1 $71 $187 $191 $197 forward $115 $-1 #
vertex $-1 $124 $198 #
vertex $-1 $72 $199 #
straight-curve $-1 25.501990988971002 -13.684839282832737 16.298191962313673 -1 0 0 I I #
coedge $-1 $130 $130 $-1 $200 reversed $75 $-1 #
edge $-1 $201 0 $201 6.2831853071796004 $76 $202 forward 7 unknown #
vertex $-1 $79 $203 #
ellipse-curve $-1 51.003981977942004 -25.043296758858236 8.3449142624098034 0 -0.57357644374324357 0.81915203911291934 3 0 0 1 I I #
face $-1 $-1 $95 $12 $-1 $204 reversed single #
loop $-1 $-1 $149 $80 #
plane-surface $-1 0 36.401754234883725 0 0 -1 0 0 0 -1 forward_v I I I I #
coedge $-1 $205 $139 $88 $148 reversed $81 $-1 #
coedge $-1 $153 $83 $84 $142 reversed $50 $-1 #
coedge $-1 $137 $206 $83 $140 reversed $81 $-1 #
edge $-1 $154 -16.298191962313673 $207 16.298191962313673 $139 $208 forward 7 unknown #
coedge $-1 $85 $84 $206 $209 forward $33 $-1 #
edge $-1 $146 -66.283761101107814 $207 66.283761101107814 $138 $210 forward 7 unknown #
coedge $-1 $150 $149 $85 $144 reversed $135 $-1 #
edge $-1 $211 -66.283761101107814 $145 66.283761101107814 $143 $212 forward 7 unknown #
vertex $-1 $87 $213 #
vertex $-1 $156 $214 #
straight-curve $-1 66.283761101107814 0 -16.298191962313673 0 -1 0 I I #
edge $-1 $151 -36.401754234883725 $154 36.401754234883725 $137 $215 forward 7 unknown #
coedge $-1 $143 $89 $94 $157 forward $135 $-1 #
coedge $-1 $89 $143 $205 $216 reversed $135 $-1 #
vertex $-1 $90 $217 #
straight-curve $-1 0 36.401754234883725 16.298191962313673 -1 0 0 I I #
coedge $-1 $91 $138 $93 $156 reversed $50 $-1 #
vertex $-1 $148 $218 #
straight-curve $-1 0 -36.401754234883725 16.298191962313673 1 0 0 I I #
edge $-1 $96 -16.298191962313673 $146 16.298191962313673 $93 $219 forward 7 unknown #
edge $-1 $97 -16.298191962313673 $145 16.298191962313673 $94 $220 forward 7 unknown #
point $-1 66.283761101107814 -36.401754234883725 16.298191962313673 #
point $-1 66.283761101107814 36.401754234883725 16.298191962313673 #
face $-1 $-1 $221 $13 $-1 $222 reversed single #
loop $-1 $-1 $107 $99 #
plane-surface $-1 0 0 -16.298191962313673 0 0 1 1 0 0 forward_v I I I I #
coedge $-1 $223 $102 $224 $225 reversed $58 $-1 #
coedge $-1 $102 $223 $167 $226 reversed $58 $-1 #
coedge $-1 $110 $109 $102 $166 reversed $100 $-1 #
edge $-1 $227 -16.298191962313673 $228 16.298191962313673 $165 $229 forward 7 unknown #
coedge $-1 $104 $103 $164 $226 forward $37 $-1 #
edge $-1 $112 -6.3007108035393173 $227 6.3007108035393173 $110 $230 forward 7 unknown #
coedge $-1 $231 $173 $104 $170 reversed $221 $-1 #
edge $-1 $232 -78.885182708186449 $171 -66.283761101107814 $169 $233 forward 7 unknown #
vertex $-1 $174 $234 #
straight-curve $-1 -66.283761101107814 0 16.298191962313673 0 1 0 I I #
coedge $-1 $169 $235 $106 $174 forward $221 $-1 #
edge $-1 $177 -16.298191962313673 $171 16.298191962313673 $173 $236 forward 7 unknown #
coedge $-1 $224 $107 $235 $237 forward $161 $-1 #
coedge $-1 $107 $224 $109 $179 forward $161 $-1 #
vertex $-1 $237 $238 #
straight-curve $-1 -66.283761101107814 0 -16.298191962313673 0 -1 0 I I #
edge $-1 $228 -6.3007108035393173 $111 6.3007108035393173 $109 $239 forward 7 unknown #
point $-1 -66.283761101107814 -32.983943747202758 -16.298191962313673 #
point $-1 -66.283761101107814 -32.983943747202758 16.298191962313673 #
loop $-1 $-1 $123 $114 #
plane-surface $-1 66.283761101107814 0 0 -1 0 0 0 0 1 forward_v I I I I #
coedge $-1 $240 $117 $122 $190 forward $66 $-1 #
coedge $-1 $117 $240 $187 $241 reversed $66 $-1 #
edge $-1 $188 38.194104384985373 $195 54.100659784793102 $117 $242 forward 7 unknown #
coedge $-1 $126 $120 $185 $241 forward $115 $-1 #
vertex $-1 $241 $243 #
straight-curve $-1 35.724202854776188 -56.219681087742018 16.298191962313673 0 -1 0 I I #
edge $-1 $195 10.222211865805185 $193 40.781770112136812 $184 $244 forward 7 unknown #
coedge $-1 $192 $123 $126 $197 reversed $182 $-1 #
coedge $-1 $123 $191 $240 $245 forward $182 $-1 #
vertex $-1 $190 $246 #
straight-curve $-1 66.283761101107814 -24.28078702788428 8.8788293342507831 0 0.81915203911291934 0.57357644374324357 I I #
vertex $-1 $190 $247 #
straight-curve $-1 35.724202854776188 -36.401754234883711 0.39163656250595125 0 0.81915203911291934 0.57357644374324357 I I #
edge $-1 $248 -36.401754234883725 $127 -13.684839282832741 $191 $249 forward 7 unknown #
point $-1 66.283761101107814 -13.684839282832741 16.298191962313673 #
point $-1 35.724202854776188 -13.684839282832741 16.298191962313673 #
edge $-1 $250 1 $250 0 $130 $-1 forward 7 unknown #
vertex $-1 $131 $251 #
ellipse-curve $-1 51.003981977942004 -23.27183881243738 5.8150101757925405 0 -0.57357644374324357 0.81915203911291934 3 0 0 1 I I #
point $-1 54.003981977942004 -25.043296758858244 8.3449142624098194 #
plane-surface $-1 66.283761101107814 0 0 -1 0 0 0 0 1 forward_v I I I I #
coedge $-1 $206 $137 $150 $216 forward $81 $-1 #
coedge $-1 $139 $205 $141 $209 reversed $81 $-1 #
vertex $-1 $209 $252 #
straight-curve $-1 -66.283761101107814 -36.401754234883725 0 0 0 -1 I I #
edge $-1 $207 -36.401754234883725 $211 36.401754234883725 $206 $253 forward 7 unknown #
straight-curve $-1 0 -36.401754234883725 -16.298191962313673 -1 0 0 I I #
vertex $-1 $144 $254 #
straight-curve $-1 0 36.401754234883725 -16.298191962313673 1 0 0 I I #
point $-1 66.283761101107814 36.401754234883725 -16.298191962313673 #
point $-1 66.283761101107814 -36.401754234883725 -16.298191962313673 #
straight-curve $-1 -66.283761101107814 0 16.298191962313673 0 -1 0 I I #
edge $-1 $151 -16.298191962313673 $211 16.298191962313673 $150 $255 forward 7 unknown #
point $-1 -66.283761101107814 36.401754234883725 16.298191962313673 #
point $-1 -66.283761101107814 -36.401754234883725 16.298191962313673 #
straight-curve $-1 66.283761101107814 -36.401754234883725 0 0 0 -1 I I #
straight-curve $-1 66.283761101107814 36.401754234883725 0 0 0 -1 I I #
loop $-1 $-1 $173 $160 #
plane-surface $-1 0 -36.401754234883725 0 0 1 0 0 0 1 forward_v I I I I #
coedge $-1 $164 $163 $231 $256 reversed $58 $-1 #
coedge $-1 $176 $175 $163 $225 forward $161 $-1 #
edge $-1 $257 -1.7089052438404835 $228 1.7089052438404835 $163 $258 forward 7 unknown #
edge $-1 $227 -1.7089052438404835 $232 1.7089052438404835 $164 $259 forward 7 unknown #
vertex $-1 $168 $260 #
vertex $-1 $179 $261 #
straight-curve $-1 -78.885182708186449 -32.983943747202758 0 0 0 -1 I I #
straight-curve $-1 -72.584471904647131 -32.983943747202758 16.298191962313673 -1 0 0 I I #
coedge $-1 $235 $169 $223 $256 forward $221 $-1 #
vertex $-1 $226 $262 #
straight-curve $-1 0 -36.401754234883725 16.298191962313673 1 0 0 I I #
point $-1 -66.283761101107814 -36.401754234883725 16.298191962313673 #
coedge $-1 $173 $231 $175 $237 reversed $221 $-1 #
straight-curve $-1 -66.283761101107814 -36.401754234883725 0 0 0 1 I I #
edge $-1 $177 -6.3007108035393173 $257 6.3007108035393173 $235 $263 forward 7 unknown #
point $-1 -66.283761101107814 -36.401754234883725 -16.298191962313673 #
straight-curve $-1 -72.584471904647131 -32.983943747202758 -16.298191962313673 1 0 0 I I #
coedge $-1 $185 $184 $192 $245 reversed $66 $-1 #
edge $-1 $188 35.724202854776188 $248 66.283761101107814 $185 $264 forward 7 unknown #
straight-curve $-1 35.724202854776188 -36.401754234883725 54.492296347299046 0 0 -1 I I #
point $-1 35.724202854776188 -36.401754234883725 16.298191962313673 #
straight-curve $-1 25.501990988971002 -36.401754234883725 0.39163656250594159 1 0 0 I I #
edge $-1 $248 -16.298191962313673 $193 -0.39163656250594131 $192 $265 forward 7 unknown #
point $-1 66.283761101107814 -36.401754234883725 0.39163656250594131 #
point $-1 35.724202854776188 -36.401754234883725 0.39163656250594131 #
vertex $-1 $197 $266 #
straight-curve $-1 66.283761101107814 0 16.298191962313673 0 1 0 I I #
vertex $-1 $200 $267 #
point $-1 54.003981977942004 -23.27183881243738 5.8150101757925405 #
point $-1 -66.283761101107814 -36.401754234883725 -16.298191962313673 #
straight-curve $-1 -66.283761101107814 0 -16.298191962313673 0 1 0 I I #
point $-1 -66.283761101107814 36.401754234883725 -16.298191962313673 #
straight-curve $-1 -66.283761101107814 36.401754234883725 0 0 0 -1 I I #
edge $-1 $232 -16.298191962313673 $257 16.298191962313673 $223 $268 forward 7 unknown #
vertex $-1 $225 $269 #
straight-curve $-1 -78.885182708186449 -34.692848991043242 -16.298191962313673 0 1 0 I I #
straight-curve $-1 -78.885182708186449 -34.692848991043242 16.298191962313673 0 -1 0 I I #
point $-1 -78.885182708186449 -32.983943747202758 16.298191962313673 #
point $-1 -78.885182708186449 -32.983943747202758 -16.298191962313673 #
point $-1 -78.885182708186449 -36.401754234883725 16.298191962313673 #
straight-curve $-1 -72.584471904647131 -36.401754234883725 -16.298191962313673 -1 0 0 I I #
straight-curve $-1 0 -36.401754234883725 16.298191962313673 1 0 0 I I #
straight-curve $-1 66.283761101107814 -36.401754234883725 0 0 0 -1 I I #
point $-1 66.283761101107814 -36.401754234883725 16.298191962313673 #
point $-1 51.003981977942004 -21.551109481207646 3.3575540584537826 #
straight-curve $-1 -78.885182708186449 -36.401754234883725 0 0 0 -1 I I #
point $-1 -78.885182708186449 -36.401754234883725 -16.298191962313673 #
End-of-ACIS-data 