500 0 13 0           
7 Unknown 11 ACIS 5.0 NT 24 Fri Mar 26 17:00:16 1999 
-1 9.9999999999999995e-007 1e-010 
body $-1 $13 $-1 $14 #
body $-1 $15 $-1 $16 #
body $-1 $17 $-1 $18 #
body $-1 $19 $-1 $20 #
body $-1 $21 $-1 $22 #
body $-1 $23 $-1 $24 #
body $-1 $25 $-1 $26 #
body $-1 $27 $-1 $28 #
body $-1 $29 $-1 $30 #
body $-1 $31 $-1 $32 #
body $-1 $33 $-1 $34 #
body $-1 $35 $-1 $36 #
body $-1 $37 $-1 $38 #
lump $-1 $-1 $39 $0 #
transform $-1 1 0 0 0 1 0 0 0 1 76.704000976592312 33.485052387144599 16.694087475253543 1 rotate no_reflect no_shear #
lump $-1 $-1 $40 $1 #
transform $-1 1 0 0 0 1 0 0 0 1 76.704000976592312 10.990692876179809 31.483081371716974 1 rotate no_reflect no_shear #
lump $-1 $-1 $41 $2 #
transform $-1 1 0 0 0 1 0 0 0 1 76.704000976592312 55.97941189810939 31.483081371716974 1 rotate no_reflect no_shear #
lump $-1 $-1 $42 $3 #
transform $-1 0.76604443648966558 0 0.64278761758704617 0 1 0 -0.64278761758704617 0 0.76604443648966558 -98.608764094276466 27.593758119481897 146.93593967870143 1 rotate no_reflect no_shear #
lump $-1 $-1 $43 $4 #
transform $-1 0.76604443648966558 0 0.64278761758704617 0 -1 0 0.64278761758704617 0 -0.76604443648966558 3.7506548920299494 26.351416660474918 29.752479680584376 1 rotate no_reflect no_shear #
lump $-1 $-1 $44 $5 #
transform $-1 0.76604443648966558 0 0.64278761758704617 0 -1 0 0.64278761758704617 0 -0.76604443648966558 3.7506548920299494 28.836099578488874 29.752479680584376 1 rotate no_reflect no_shear #
lump $-1 $-1 $45 $6 #
transform $-1 0.76604443648966558 0 0.64278761758704617 0 1 0 -0.64278761758704617 0 0.76604443648966558 -98.608764094276466 39.376346654807307 146.93593967870143 1 rotate no_reflect no_shear #
lump $-1 $-1 $46 $7 #
transform $-1 0.76604443648966558 0 0.64278761758704617 0 -1 0 0.64278761758704617 0 -0.76604443648966558 3.7506548920299494 38.134005195800327 29.752479680584376 1 rotate no_reflect no_shear #
lump $-1 $-1 $47 $8 #
transform $-1 0.76604443648966558 0 0.64278761758704617 0 -1 0 0.64278761758704617 0 -0.76604443648966558 3.7506548920299494 40.618688113814279 29.752479680584376 1 rotate no_reflect no_shear #
lump $-1 $-1 $48 $9 #
transform $-1 0.64278759981090561 0 -0.7660444514056185 0 1 0 0.7660444514056185 0 0.64278759981090561 172.31658928336972 30.384571162887383 245.99689616992794 1 rotate no_reflect no_shear #
lump $-1 $-1 $49 $10 #
transform $-1 0.64278759981090561 0 -0.7660444514056185 0 -1 0 -0.7660444514056185 0 -0.64278759981090561 150.97472658615919 28.453705771210341 30.825996028087047 1 rotate no_reflect no_shear #
lump $-1 $-1 $50 $11 #
transform $-1 0.64278759981090561 0 -0.7660444514056185 0 -1 0 -0.7660444514056185 0 -0.64278759981090561 150.97472658615919 30.384571162887386 30.825996028087047 1 rotate no_reflect no_shear #
lump $-1 $-1 $51 $12 #
transform $-1 0.64278759981090561 0 -0.7660444514056185 0 -1 0 -0.7660444514056185 0 -0.64278759981090561 150.97472658615919 32.315436554564428 30.825996028087047 1 rotate no_reflect no_shear #
shell $-1 $-1 $-1 $52 $-1 $13 #
shell $-1 $-1 $-1 $53 $-1 $15 #
shell $-1 $-1 $-1 $54 $-1 $17 #
shell $-1 $-1 $-1 $55 $-1 $19 #
shell $-1 $-1 $-1 $56 $-1 $21 #
shell $-1 $-1 $-1 $57 $-1 $23 #
shell $-1 $-1 $-1 $58 $-1 $25 #
shell $-1 $-1 $-1 $59 $-1 $27 #
shell $-1 $-1 $-1 $60 $-1 $29 #
shell $-1 $-1 $-1 $61 $-1 $31 #
shell $-1 $-1 $-1 $62 $-1 $33 #
shell $-1 $-1 $-1 $63 $-1 $35 #
shell $-1 $-1 $-1 $64 $-1 $37 #
face $-1 $65 $66 $39 $-1 $67 forward single #
face $-1 $68 $69 $40 $-1 $70 forward single #
face $-1 $71 $72 $41 $-1 $73 forward single #
face $-1 $74 $75 $42 $-1 $76 forward single #
face $-1 $77 $78 $43 $-1 $79 forward single #
face $-1 $80 $81 $44 $-1 $82 forward single #
face $-1 $83 $84 $45 $-1 $85 forward single #
face $-1 $86 $87 $46 $-1 $88 forward single #
face $-1 $89 $90 $47 $-1 $91 forward single #
face $-1 $92 $93 $48 $-1 $94 forward single #
face $-1 $95 $96 $49 $-1 $97 forward single #
face $-1 $98 $99 $50 $-1 $100 forward single #
face $-1 $101 $102 $51 $-1 $103 forward single #
face $-1 $104 $105 $39 $-1 $106 reversed single #
loop $-1 $-1 $107 $52 #
plane-surface $-1 0 0 16.694087475253543 0 0 1 1 0 0 forward_v I I I I #
face $-1 $108 $109 $40 $-1 $110 reversed single #
loop $-1 $-1 $111 $53 #
plane-surface $-1 0 0 1.9050935787901118 0 0 1 1 0 0 forward_v I I I I #
face $-1 $112 $113 $41 $-1 $114 reversed single #
loop $-1 $-1 $115 $54 #
plane-surface $-1 0 0 1.9050935787901118 0 0 1 1 0 0 forward_v I I I I #
face $-1 $116 $117 $42 $-1 $118 reversed single #
loop $-1 $-1 $119 $55 #
plane-surface $-1 0 0 153.40800195318462 0 0 1 1 0 0 forward_v I I I I #
face $-1 $120 $121 $43 $-1 $122 forward single #
loop $-1 $123 $124 $56 #
cone-surface $-1 0 0 -1.2025513473921912 0 0 1 0.5 0 0 1 I I 0 1 0.5 forward I I I I #
face $-1 $125 $126 $44 $-1 $127 forward single #
loop $-1 $128 $129 $57 #
cone-surface $-1 0 0 -1.2025513473921912 0 0 1 0.5 0 0 1 I I 0 1 0.5 forward I I I I #
face $-1 $130 $131 $45 $-1 $132 reversed single #
loop $-1 $-1 $133 $58 #
plane-surface $-1 0 0 153.40800195318462 0 0 1 1 0 0 forward_v I I I I #
face $-1 $134 $135 $46 $-1 $136 forward single #
loop $-1 $137 $138 $59 #
cone-surface $-1 0 0 -1.2025513473921912 0 0 1 0.5 0 0 1 I I 0 1 0.5 forward I I I I #
face $-1 $139 $140 $47 $-1 $141 forward single #
loop $-1 $142 $143 $60 #
cone-surface $-1 0 0 -1.2025513473921912 0 0 1 0.5 0 0 1 I I 0 1 0.5 forward I I I I #
face $-1 $144 $145 $48 $-1 $146 reversed single #
loop $-1 $-1 $147 $61 #
plane-surface $-1 0 0 153.40800195318462 0 0 1 1 0 0 forward_v I I I I #
face $-1 $148 $149 $49 $-1 $150 forward single #
loop $-1 $151 $152 $62 #
cone-surface $-1 0 0 -0.75 0 0 1 0.5 0 0 1 I I 0 1 0.5 forward I I I I #
face $-1 $153 $154 $50 $-1 $155 forward single #
loop $-1 $156 $157 $63 #
cone-surface $-1 0 0 -0.75 0 0 1 0.5 0 0 1 I I 0 1 0.5 forward I I I I #
face $-1 $158 $159 $51 $-1 $160 forward single #
loop $-1 $161 $162 $64 #
cone-surface $-1 0 0 -0.75 0 0 1 0.5 0 0 1 I I 0 1 0.5 forward I I I I #
face $-1 $163 $164 $39 $-1 $165 reversed single #
loop $-1 $-1 $166 $65 #
plane-surface $-1 0 0 -16.694087475253543 0 0 1 1 0 0 forward_v I I I I #
coedge $-1 $167 $168 $169 $170 forward $66 $-1 #
face $-1 $171 $172 $40 $-1 $173 reversed single #
loop $-1 $-1 $174 $68 #
plane-surface $-1 0 0 -1.9050935787901118 0 0 1 1 0 0 forward_v I I I I #
coedge $-1 $175 $176 $177 $178 forward $69 $-1 #
face $-1 $179 $180 $41 $-1 $181 reversed single #
loop $-1 $-1 $182 $71 #
plane-surface $-1 0 0 -1.9050935787901118 0 0 1 1 0 0 forward_v I I I I #
coedge $-1 $183 $184 $185 $186 forward $72 $-1 #
face $-1 $187 $188 $42 $-1 $189 reversed single #
loop $-1 $-1 $190 $74 #
plane-surface $-1 0 0 -153.40800195318462 0 0 1 1 0 0 forward_v I I I I #
coedge $-1 $191 $192 $193 $194 forward $75 $-1 #
face $-1 $-1 $195 $43 $-1 $196 forward single #
loop $-1 $-1 $197 $77 #
plane-surface $-1 0 0 -2.1551026947843841 0 0 -1 -1 0 0 forward_v I I I I #
loop $-1 $-1 $198 $56 #
coedge $-1 $124 $124 $197 $199 reversed $78 $-1 #
face $-1 $-1 $200 $44 $-1 $201 forward single #
loop $-1 $-1 $202 $80 #
plane-surface $-1 0 0 -2.1551026947843841 0 0 -1 -1 0 0 forward_v I I I I #
loop $-1 $-1 $203 $57 #
coedge $-1 $129 $129 $202 $204 reversed $81 $-1 #
face $-1 $205 $206 $45 $-1 $207 reversed single #
loop $-1 $-1 $208 $83 #
plane-surface $-1 0 0 -153.40800195318462 0 0 1 1 0 0 forward_v I I I I #
coedge $-1 $209 $210 $211 $212 forward $84 $-1 #
face $-1 $-1 $213 $46 $-1 $214 forward single #
loop $-1 $-1 $215 $86 #
plane-surface $-1 0 0 -2.1551026947843841 0 0 -1 -1 0 0 forward_v I I I I #
loop $-1 $-1 $216 $59 #
coedge $-1 $138 $138 $215 $217 reversed $87 $-1 #
face $-1 $-1 $218 $47 $-1 $219 forward single #
loop $-1 $-1 $220 $89 #
plane-surface $-1 0 0 -2.1551026947843841 0 0 -1 -1 0 0 forward_v I I I I #
loop $-1 $-1 $221 $60 #
coedge $-1 $143 $143 $220 $222 reversed $90 $-1 #
face $-1 $223 $224 $48 $-1 $225 reversed single #
loop $-1 $-1 $226 $92 #
plane-surface $-1 0 0 -153.40800195318462 0 0 1 1 0 0 forward_v I I I I #
coedge $-1 $227 $228 $229 $230 forward $93 $-1 #
face $-1 $-1 $231 $49 $-1 $232 forward single #
loop $-1 $-1 $233 $95 #
plane-surface $-1 0 0 -1.25 0 0 -1 -1 0 0 forward_v I I I I #
loop $-1 $-1 $234 $62 #
coedge $-1 $152 $152 $233 $235 reversed $96 $-1 #
face $-1 $-1 $236 $50 $-1 $237 forward single #
loop $-1 $-1 $238 $98 #
plane-surface $-1 0 0 -1.25 0 0 -1 -1 0 0 forward_v I I I I #
loop $-1 $-1 $239 $63 #
coedge $-1 $157 $157 $238 $240 reversed $99 $-1 #
face $-1 $-1 $241 $51 $-1 $242 forward single #
loop $-1 $-1 $243 $101 #
plane-surface $-1 0 0 -1.25 0 0 -1 -1 0 0 forward_v I I I I #
loop $-1 $-1 $244 $64 #
coedge $-1 $162 $162 $243 $245 reversed $102 $-1 #
face $-1 $246 $247 $39 $-1 $248 reversed single #
loop $-1 $-1 $249 $104 #
plane-surface $-1 0 -33.485052387144599 0 0 1 0 0 0 1 forward_v I I I I #
coedge $-1 $250 $251 $252 $253 forward $105 $-1 #
coedge $-1 $254 $107 $255 $256 forward $66 $-1 #
coedge $-1 $107 $254 $257 $258 forward $66 $-1 #
coedge $-1 $259 $260 $107 $170 reversed $261 $-1 #
edge $-1 $262 -33.485052387144599 $263 33.485052387144599 $169 $264 forward 7 unknown #
face $-1 $265 $266 $40 $-1 $267 reversed single #
loop $-1 $-1 $268 $108 #
plane-surface $-1 0 -10.990692876179809 0 0 1 0 0 0 1 forward_v I I I I #
coedge $-1 $269 $270 $271 $272 forward $109 $-1 #
coedge $-1 $273 $111 $274 $275 forward $69 $-1 #
coedge $-1 $111 $273 $276 $277 forward $69 $-1 #
coedge $-1 $278 $279 $111 $178 reversed $280 $-1 #
edge $-1 $281 -10.990692876179809 $282 10.990692876179809 $177 $283 forward 7 unknown #
face $-1 $284 $285 $41 $-1 $286 reversed single #
loop $-1 $-1 $287 $112 #
plane-surface $-1 0 -10.990692876179807 0 0 1 0 0 0 1 forward_v I I I I #
coedge $-1 $288 $289 $290 $291 forward $113 $-1 #
coedge $-1 $292 $115 $293 $294 forward $72 $-1 #
coedge $-1 $115 $292 $295 $296 forward $72 $-1 #
coedge $-1 $297 $298 $115 $186 reversed $299 $-1 #
edge $-1 $300 -10.990692876179807 $301 10.990692876179807 $185 $302 forward 7 unknown #
face $-1 $303 $304 $42 $-1 $305 reversed single #
loop $-1 $-1 $306 $116 #
plane-surface $-1 0 -2.8987967376829484 0 0 1 0 0 0 1 forward_v I I I I #
coedge $-1 $307 $308 $309 $310 forward $117 $-1 #
coedge $-1 $311 $119 $312 $313 forward $75 $-1 #
coedge $-1 $119 $311 $314 $315 forward $75 $-1 #
coedge $-1 $316 $317 $119 $194 reversed $318 $-1 #
edge $-1 $319 -2.8987967376829484 $320 2.8987967376829484 $193 $321 forward 7 unknown #
loop $-1 $322 $323 $120 #
cone-surface $-1 0 0 0 0 0 1 0.25 0 0 1 I I -0.70710678118654746 0.70710678118654746 0.25 forward I I I I #
coedge $-1 $197 $197 $124 $199 forward $121 $-1 #
coedge $-1 $198 $198 $323 $324 forward $123 $-1 #
edge $-1 $325 0 $325 6.2831853071796004 $197 $326 forward 7 unknown #
loop $-1 $327 $328 $125 #
cone-surface $-1 0 0 0 0 0 1 0.25 0 0 1 I I -0.70710678118654746 0.70710678118654746 0.25 forward I I I I #
coedge $-1 $202 $202 $129 $204 forward $126 $-1 #
coedge $-1 $203 $203 $328 $329 forward $128 $-1 #
edge $-1 $330 0 $330 6.2831853071796004 $202 $331 forward 7 unknown #
face $-1 $332 $333 $45 $-1 $334 reversed single #
loop $-1 $-1 $335 $130 #
plane-surface $-1 0 -2.8987967376829484 0 0 1 0 0 0 1 forward_v I I I I #
coedge $-1 $336 $337 $338 $339 forward $131 $-1 #
coedge $-1 $340 $133 $341 $342 forward $84 $-1 #
coedge $-1 $133 $340 $343 $344 forward $84 $-1 #
coedge $-1 $345 $346 $133 $212 reversed $347 $-1 #
edge $-1 $348 -2.8987967376829484 $349 2.8987967376829484 $211 $350 forward 7 unknown #
loop $-1 $351 $352 $134 #
cone-surface $-1 0 0 0 0 0 1 0.25 0 0 1 I I -0.70710678118654746 0.70710678118654746 0.25 forward I I I I #
coedge $-1 $215 $215 $138 $217 forward $135 $-1 #
coedge $-1 $216 $216 $352 $353 forward $137 $-1 #
edge $-1 $354 0 $354 6.2831853071796004 $215 $355 forward 7 unknown #
loop $-1 $356 $357 $139 #
cone-surface $-1 0 0 0 0 0 1 0.25 0 0 1 I I -0.70710678118654746 0.70710678118654746 0.25 forward I I I I #
coedge $-1 $220 $220 $143 $222 forward $140 $-1 #
coedge $-1 $221 $221 $357 $358 forward $142 $-1 #
edge $-1 $359 0 $359 6.2831853071796004 $220 $360 forward 7 unknown #
face $-1 $361 $362 $48 $-1 $363 reversed single #
loop $-1 $-1 $364 $144 #
plane-surface $-1 0 -3.2181089861284065 0 0 1 0 0 0 1 forward_v I I I I #
coedge $-1 $365 $366 $367 $368 forward $145 $-1 #
coedge $-1 $369 $147 $370 $371 forward $93 $-1 #
coedge $-1 $147 $369 $372 $373 forward $93 $-1 #
coedge $-1 $374 $375 $147 $230 reversed $376 $-1 #
edge $-1 $377 -3.2181089861284065 $378 3.2181089861284065 $229 $379 forward 7 unknown #
loop $-1 $380 $381 $148 #
cone-surface $-1 0 0 0 0 0 1 0.25 0 0 1 I I -0.70710678118654746 0.70710678118654746 0.25 forward I I I I #
coedge $-1 $233 $233 $152 $235 forward $149 $-1 #
coedge $-1 $234 $234 $381 $382 forward $151 $-1 #
edge $-1 $383 0 $383 6.2831853071796004 $233 $384 forward 7 unknown #
loop $-1 $385 $386 $153 #
cone-surface $-1 0 0 0 0 0 1 0.25 0 0 1 I I -0.70710678118654746 0.70710678118654746 0.25 forward I I I I #
coedge $-1 $238 $238 $157 $240 forward $154 $-1 #
coedge $-1 $239 $239 $386 $387 forward $156 $-1 #
edge $-1 $388 0 $388 6.2831853071796004 $238 $389 forward 7 unknown #
loop $-1 $390 $391 $158 #
cone-surface $-1 0 0 0 0 0 1 0.25 0 0 1 I I -0.70710678118654746 0.70710678118654746 0.25 forward I I I I #
coedge $-1 $243 $243 $162 $245 forward $159 $-1 #
coedge $-1 $244 $244 $391 $392 forward $161 $-1 #
edge $-1 $393 0 $393 6.2831853071796004 $243 $394 forward 7 unknown #
face $-1 $395 $396 $39 $-1 $397 reversed single #
loop $-1 $-1 $398 $163 #
plane-surface $-1 -76.704000976592312 0 0 1 0 0 0 0 -1 forward_v I I I I #
coedge $-1 $399 $257 $400 $401 forward $164 $-1 #
coedge $-1 $402 $166 $399 $403 forward $105 $-1 #
coedge $-1 $166 $402 $404 $405 forward $105 $-1 #
coedge $-1 $260 $259 $166 $253 reversed $261 $-1 #
edge $-1 $406 -33.485052387144599 $407 33.485052387144599 $252 $408 forward 7 unknown #
coedge $-1 $168 $167 $409 $410 forward $66 $-1 #
coedge $-1 $411 $412 $167 $256 reversed $396 $-1 #
edge $-1 $263 -76.704000976592312 $413 76.704000976592312 $255 $414 forward 7 unknown #
coedge $-1 $249 $415 $168 $258 reversed $164 $-1 #
edge $-1 $416 -76.704000976592312 $262 76.704000976592312 $257 $417 forward 7 unknown #
coedge $-1 $252 $169 $415 $418 forward $261 $-1 #
coedge $-1 $169 $252 $411 $419 reversed $261 $-1 #
loop $-1 $-1 $259 $395 #
vertex $-1 $170 $420 #
vertex $-1 $170 $421 #
straight-curve $-1 76.704000976592312 0 16.694087475253543 0 1 0 I I #
face $-1 $422 $423 $40 $-1 $424 reversed single #
loop $-1 $-1 $425 $171 #
plane-surface $-1 -76.704000976592312 0 0 1 0 0 0 0 -1 forward_v I I I I #
coedge $-1 $426 $276 $427 $428 forward $172 $-1 #
coedge $-1 $429 $174 $426 $430 forward $109 $-1 #
coedge $-1 $174 $429 $431 $432 forward $109 $-1 #
coedge $-1 $279 $278 $174 $272 reversed $280 $-1 #
edge $-1 $433 -10.990692876179809 $434 10.990692876179809 $271 $435 forward 7 unknown #
coedge $-1 $176 $175 $436 $437 forward $69 $-1 #
coedge $-1 $438 $439 $175 $275 reversed $423 $-1 #
edge $-1 $282 -76.704000976592312 $440 76.704000976592312 $274 $441 forward 7 unknown #
coedge $-1 $268 $442 $176 $277 reversed $172 $-1 #
edge $-1 $443 -76.704000976592312 $281 76.704000976592312 $276 $444 forward 7 unknown #
coedge $-1 $271 $177 $442 $445 forward $280 $-1 #
coedge $-1 $177 $271 $438 $446 reversed $280 $-1 #
loop $-1 $-1 $278 $422 #
vertex $-1 $178 $447 #
vertex $-1 $178 $448 #
straight-curve $-1 76.704000976592312 0 1.9050935787901118 0 1 0 I I #
face $-1 $449 $450 $41 $-1 $451 reversed single #
loop $-1 $-1 $452 $179 #
plane-surface $-1 -76.704000976592312 0 0 1 0 0 0 0 -1 forward_v I I I I #
coedge $-1 $453 $295 $454 $455 forward $180 $-1 #
coedge $-1 $456 $182 $453 $457 forward $113 $-1 #
coedge $-1 $182 $456 $458 $459 forward $113 $-1 #
coedge $-1 $298 $297 $182 $291 reversed $299 $-1 #
edge $-1 $460 -10.990692876179807 $461 10.990692876179807 $290 $462 forward 7 unknown #
coedge $-1 $184 $183 $463 $464 forward $72 $-1 #
coedge $-1 $465 $466 $183 $294 reversed $450 $-1 #
edge $-1 $301 -76.704000976592312 $467 76.704000976592312 $293 $468 forward 7 unknown #
coedge $-1 $287 $469 $184 $296 reversed $180 $-1 #
edge $-1 $470 -76.704000976592312 $300 76.704000976592312 $295 $471 forward 7 unknown #
coedge $-1 $290 $185 $469 $472 forward $299 $-1 #
coedge $-1 $185 $290 $465 $473 reversed $299 $-1 #
loop $-1 $-1 $297 $449 #
vertex $-1 $186 $474 #
vertex $-1 $186 $475 #
straight-curve $-1 76.704000976592312 0 1.9050935787901118 0 1 0 I I #
face $-1 $476 $477 $42 $-1 $478 reversed single #
loop $-1 $-1 $479 $187 #
plane-surface $-1 -306.81600390636925 0 0 1 0 0 0 0 -1 forward_v I I I I #
coedge $-1 $480 $314 $481 $482 forward $188 $-1 #
coedge $-1 $483 $190 $480 $484 forward $117 $-1 #
coedge $-1 $190 $483 $485 $486 forward $117 $-1 #
coedge $-1 $317 $316 $190 $310 reversed $318 $-1 #
edge $-1 $487 -2.8987967376829484 $488 2.8987967376829484 $309 $489 forward 7 unknown #
coedge $-1 $192 $191 $490 $491 forward $75 $-1 #
coedge $-1 $492 $493 $191 $313 reversed $477 $-1 #
edge $-1 $320 -306.81600390636925 $494 306.81600390636925 $312 $495 forward 7 unknown #
coedge $-1 $306 $496 $192 $315 reversed $188 $-1 #
edge $-1 $497 -306.81600390636925 $319 306.81600390636925 $314 $498 forward 7 unknown #
coedge $-1 $309 $193 $496 $499 forward $318 $-1 #
coedge $-1 $193 $309 $492 $500 reversed $318 $-1 #
loop $-1 $-1 $316 $476 #
vertex $-1 $194 $501 #
vertex $-1 $194 $502 #
straight-curve $-1 306.81600390636925 0 153.40800195318462 0 1 0 I I #
loop $-1 $-1 $503 $120 #
coedge $-1 $323 $323 $198 $324 reversed $195 $-1 #
edge $-1 $504 0 $504 6.2831853071796004 $323 $505 forward 7 unknown #
vertex $-1 $199 $506 #
ellipse-curve $-1 0 0 -2.1551026947843841 0 0 -1 0.5 0 0 1 I I #
loop $-1 $-1 $507 $125 #
coedge $-1 $328 $328 $203 $329 reversed $200 $-1 #
edge $-1 $508 0 $508 6.2831853071796004 $328 $509 forward 7 unknown #
vertex $-1 $204 $510 #
ellipse-curve $-1 0 0 -2.1551026947843841 0 0 -1 0.5 0 0 1 I I #
face $-1 $511 $512 $45 $-1 $513 reversed single #
loop $-1 $-1 $514 $205 #
plane-surface $-1 -306.81600390636925 0 0 1 0 0 0 0 -1 forward_v I I I I #
coedge $-1 $515 $343 $516 $517 forward $206 $-1 #
coedge $-1 $518 $208 $515 $519 forward $131 $-1 #
coedge $-1 $208 $518 $520 $521 forward $131 $-1 #
coedge $-1 $346 $345 $208 $339 reversed $347 $-1 #
edge $-1 $522 -2.8987967376829484 $523 2.8987967376829484 $338 $524 forward 7 unknown #
coedge $-1 $210 $209 $525 $526 forward $84 $-1 #
coedge $-1 $527 $528 $209 $342 reversed $512 $-1 #
edge $-1 $349 -306.81600390636925 $529 306.81600390636925 $341 $530 forward 7 unknown #
coedge $-1 $335 $531 $210 $344 reversed $206 $-1 #
edge $-1 $532 -306.81600390636925 $348 306.81600390636925 $343 $533 forward 7 unknown #
coedge $-1 $338 $211 $531 $534 forward $347 $-1 #
coedge $-1 $211 $338 $527 $535 reversed $347 $-1 #
loop $-1 $-1 $345 $511 #
vertex $-1 $212 $536 #
vertex $-1 $212 $537 #
straight-curve $-1 306.81600390636925 0 153.40800195318462 0 1 0 I I #
loop $-1 $-1 $538 $134 #
coedge $-1 $352 $352 $216 $353 reversed $213 $-1 #
edge $-1 $539 0 $539 6.2831853071796004 $352 $540 forward 7 unknown #
vertex $-1 $217 $541 #
ellipse-curve $-1 0 0 -2.1551026947843841 0 0 -1 0.5 0 0 1 I I #
loop $-1 $-1 $542 $139 #
coedge $-1 $357 $357 $221 $358 reversed $218 $-1 #
edge $-1 $543 0 $543 6.2831853071796004 $357 $544 forward 7 unknown #
vertex $-1 $222 $545 #
ellipse-curve $-1 0 0 -2.1551026947843841 0 0 -1 0.5 0 0 1 I I #
face $-1 $546 $547 $48 $-1 $548 reversed single #
loop $-1 $-1 $549 $223 #
plane-surface $-1 -306.81600390636925 0 0 1 0 0 0 0 -1 forward_v I I I I #
coedge $-1 $550 $372 $551 $552 forward $224 $-1 #
coedge $-1 $553 $226 $550 $554 forward $145 $-1 #
coedge $-1 $226 $553 $555 $556 forward $145 $-1 #
coedge $-1 $375 $374 $226 $368 reversed $376 $-1 #
edge $-1 $557 -3.2181089861284065 $558 3.2181089861284065 $367 $559 forward 7 unknown #
coedge $-1 $228 $227 $560 $561 forward $93 $-1 #
coedge $-1 $562 $563 $227 $371 reversed $547 $-1 #
edge $-1 $378 -306.81600390636925 $564 306.81600390636925 $370 $565 forward 7 unknown #
coedge $-1 $364 $566 $228 $373 reversed $224 $-1 #
edge $-1 $567 -306.81600390636925 $377 306.81600390636925 $372 $568 forward 7 unknown #
coedge $-1 $367 $229 $566 $569 forward $376 $-1 #
coedge $-1 $229 $367 $562 $570 reversed $376 $-1 #
loop $-1 $-1 $374 $546 #
vertex $-1 $230 $571 #
vertex $-1 $230 $572 #
straight-curve $-1 306.81600390636925 0 153.40800195318462 0 1 0 I I #
loop $-1 $-1 $573 $148 #
coedge $-1 $381 $381 $234 $382 reversed $231 $-1 #
edge $-1 $574 0 $574 6.2831853071796004 $381 $575 forward 7 unknown #
vertex $-1 $235 $576 #
ellipse-curve $-1 0 0 -1.25 0 0 -1 0.5 0 0 1 I I #
loop $-1 $-1 $577 $153 #
coedge $-1 $386 $386 $239 $387 reversed $236 $-1 #
edge $-1 $578 0 $578 6.2831853071796004 $386 $579 forward 7 unknown #
vertex $-1 $240 $580 #
ellipse-curve $-1 0 0 -1.25 0 0 -1 0.5 0 0 1 I I #
loop $-1 $-1 $581 $158 #
coedge $-1 $391 $391 $244 $392 reversed $241 $-1 #
edge $-1 $582 0 $582 6.2831853071796004 $391 $583 forward 7 unknown #
vertex $-1 $245 $584 #
ellipse-curve $-1 0 0 -1.25 0 0 -1 0.5 0 0 1 I I #
face $-1 $-1 $261 $39 $-1 $585 reversed single #
loop $-1 $-1 $411 $246 #
plane-surface $-1 0 33.485052387144599 0 0 -1 0 0 0 -1 forward_v I I I I #
coedge $-1 $586 $409 $412 $587 forward $247 $-1 #
coedge $-1 $415 $249 $250 $403 reversed $164 $-1 #
coedge $-1 $409 $586 $249 $401 reversed $247 $-1 #
edge $-1 $416 -16.694087475253543 $588 16.694087475253543 $400 $589 forward 7 unknown #
coedge $-1 $251 $250 $586 $590 forward $105 $-1 #
edge $-1 $407 -76.704000976592312 $588 76.704000976592312 $399 $591 forward 7 unknown #
coedge $-1 $412 $411 $251 $405 reversed $396 $-1 #
edge $-1 $592 -76.704000976592312 $406 76.704000976592312 $404 $593 forward 7 unknown #
vertex $-1 $253 $594 #
vertex $-1 $418 $595 #
straight-curve $-1 76.704000976592312 0 -16.694087475253543 0 -1 0 I I #
coedge $-1 $398 $400 $254 $410 reversed $247 $-1 #
edge $-1 $413 -33.485052387144599 $416 33.485052387144599 $409 $596 forward 7 unknown #
coedge $-1 $404 $255 $260 $419 forward $396 $-1 #
coedge $-1 $255 $404 $398 $587 reversed $396 $-1 #
vertex $-1 $256 $597 #
straight-curve $-1 0 33.485052387144599 16.694087475253543 -1 0 0 I I #
coedge $-1 $257 $399 $259 $418 reversed $164 $-1 #
vertex $-1 $410 $598 #
straight-curve $-1 0 -33.485052387144599 16.694087475253543 1 0 0 I I #
edge $-1 $262 -16.694087475253543 $407 16.694087475253543 $259 $599 forward 7 unknown #
edge $-1 $263 -16.694087475253543 $406 16.694087475253543 $260 $600 forward 7 unknown #
point $-1 76.704000976592312 -33.485052387144599 16.694087475253543 #
point $-1 76.704000976592312 33.485052387144599 16.694087475253543 #
face $-1 $-1 $280 $40 $-1 $601 reversed single #
loop $-1 $-1 $438 $265 #
plane-surface $-1 0 10.990692876179809 0 0 -1 0 0 0 -1 forward_v I I I I #
coedge $-1 $602 $436 $439 $603 forward $266 $-1 #
coedge $-1 $442 $268 $269 $430 reversed $172 $-1 #
coedge $-1 $436 $602 $268 $428 reversed $266 $-1 #
edge $-1 $443 -1.9050935787901118 $604 1.9050935787901118 $427 $605 forward 7 unknown #
coedge $-1 $270 $269 $602 $606 forward $109 $-1 #
edge $-1 $434 -76.704000976592312 $604 76.704000976592312 $426 $607 forward 7 unknown #
coedge $-1 $439 $438 $270 $432 reversed $423 $-1 #
edge $-1 $608 -76.704000976592312 $433 76.704000976592312 $431 $609 forward 7 unknown #
vertex $-1 $272 $610 #
vertex $-1 $445 $611 #
straight-curve $-1 76.704000976592312 0 -1.9050935787901118 0 -1 0 I I #
coedge $-1 $425 $427 $273 $437 reversed $266 $-1 #
edge $-1 $440 -10.990692876179809 $443 10.990692876179809 $436 $612 forward 7 unknown #
coedge $-1 $431 $274 $279 $446 forward $423 $-1 #
coedge $-1 $274 $431 $425 $603 reversed $423 $-1 #
vertex $-1 $275 $613 #
straight-curve $-1 0 10.990692876179809 1.9050935787901118 -1 0 0 I I #
coedge $-1 $276 $426 $278 $445 reversed $172 $-1 #
vertex $-1 $437 $614 #
straight-curve $-1 0 -10.990692876179809 1.9050935787901118 1 0 0 I I #
edge $-1 $281 -1.9050935787901118 $434 1.9050935787901118 $278 $615 forward 7 unknown #
edge $-1 $282 -1.9050935787901118 $433 1.9050935787901118 $279 $616 forward 7 unknown #
point $-1 76.704000976592312 -10.990692876179809 1.9050935787901118 #
point $-1 76.704000976592312 10.990692876179809 1.9050935787901118 #
face $-1 $-1 $299 $41 $-1 $617 reversed single #
loop $-1 $-1 $465 $284 #
plane-surface $-1 0 10.990692876179807 0 0 -1 0 0 0 -1 forward_v I I I I #
coedge $-1 $618 $463 $466 $619 forward $285 $-1 #
coedge $-1 $469 $287 $288 $457 reversed $180 $-1 #
coedge $-1 $463 $618 $287 $455 reversed $285 $-1 #
edge $-1 $470 -1.9050935787901118 $620 1.9050935787901118 $454 $621 forward 7 unknown #
coedge $-1 $289 $288 $618 $622 forward $113 $-1 #
edge $-1 $461 -76.704000976592312 $620 76.704000976592312 $453 $623 forward 7 unknown #
coedge $-1 $466 $465 $289 $459 reversed $450 $-1 #
edge $-1 $624 -76.704000976592312 $460 76.704000976592312 $458 $625 forward 7 unknown #
vertex $-1 $291 $626 #
vertex $-1 $472 $627 #
straight-curve $-1 76.704000976592312 0 -1.9050935787901118 0 -1 0 I I #
coedge $-1 $452 $454 $292 $464 reversed $285 $-1 #
edge $-1 $467 -10.990692876179807 $470 10.990692876179807 $463 $628 forward 7 unknown #
coedge $-1 $458 $293 $298 $473 forward $450 $-1 #
coedge $-1 $293 $458 $452 $619 reversed $450 $-1 #
vertex $-1 $294 $629 #
straight-curve $-1 0 10.990692876179807 1.9050935787901118 -1 0 0 I I #
coedge $-1 $295 $453 $297 $472 reversed $180 $-1 #
vertex $-1 $464 $630 #
straight-curve $-1 0 -10.990692876179807 1.9050935787901118 1 0 0 I I #
edge $-1 $300 -1.9050935787901118 $461 1.9050935787901118 $297 $631 forward 7 unknown #
edge $-1 $301 -1.9050935787901118 $460 1.9050935787901118 $298 $632 forward 7 unknown #
point $-1 76.704000976592312 -10.990692876179807 1.9050935787901118 #
point $-1 76.704000976592312 10.990692876179807 1.9050935787901118 #
face $-1 $-1 $318 $42 $-1 $633 reversed single #
loop $-1 $-1 $492 $303 #
plane-surface $-1 0 2.8987967376829484 0 0 -1 0 0 0 -1 forward_v I I I I #
coedge $-1 $634 $490 $493 $635 forward $304 $-1 #
coedge $-1 $496 $306 $307 $484 reversed $188 $-1 #
coedge $-1 $490 $634 $306 $482 reversed $304 $-1 #
edge $-1 $497 -153.40800195318462 $636 153.40800195318462 $481 $637 forward 7 unknown #
coedge $-1 $308 $307 $634 $638 forward $117 $-1 #
edge $-1 $488 -306.81600390636925 $636 306.81600390636925 $480 $639 forward 7 unknown #
coedge $-1 $493 $492 $308 $486 reversed $477 $-1 #
edge $-1 $640 -306.81600390636925 $487 306.81600390636925 $485 $641 forward 7 unknown #
vertex $-1 $310 $642 #
vertex $-1 $499 $643 #
straight-curve $-1 306.81600390636925 0 -153.40800195318462 0 -1 0 I I #
coedge $-1 $479 $481 $311 $491 reversed $304 $-1 #
edge $-1 $494 -2.8987967376829484 $497 2.8987967376829484 $490 $644 forward 7 unknown #
coedge $-1 $485 $312 $317 $500 forward $477 $-1 #
coedge $-1 $312 $485 $479 $635 reversed $477 $-1 #
vertex $-1 $313 $645 #
straight-curve $-1 0 2.8987967376829484 153.40800195318462 -1 0 0 I I #
coedge $-1 $314 $480 $316 $499 reversed $188 $-1 #
vertex $-1 $491 $646 #
straight-curve $-1 0 -2.8987967376829484 153.40800195318462 1 0 0 I I #
edge $-1 $319 -153.40800195318462 $488 153.40800195318462 $316 $647 forward 7 unknown #
edge $-1 $320 -153.40800195318462 $487 153.40800195318462 $317 $648 forward 7 unknown #
point $-1 306.81600390636925 -2.8987967376829484 153.40800195318462 #
point $-1 306.81600390636925 2.8987967376829484 153.40800195318462 #
coedge $-1 $503 $503 $-1 $649 reversed $322 $-1 #
vertex $-1 $324 $650 #
ellipse-curve $-1 0 0 -0.25 0 0 -1 0.5 0 0 1 I I #
point $-1 0.5 0 -2.1551026947843841 #
coedge $-1 $507 $507 $-1 $651 reversed $327 $-1 #
vertex $-1 $329 $652 #
ellipse-curve $-1 0 0 -0.25 0 0 -1 0.5 0 0 1 I I #
point $-1 0.5 0 -2.1551026947843841 #
face $-1 $-1 $347 $45 $-1 $653 reversed single #
loop $-1 $-1 $527 $332 #
plane-surface $-1 0 2.8987967376829484 0 0 -1 0 0 0 -1 forward_v I I I I #
coedge $-1 $654 $525 $528 $655 forward $333 $-1 #
coedge $-1 $531 $335 $336 $519 reversed $206 $-1 #
coedge $-1 $525 $654 $335 $517 reversed $333 $-1 #
edge $-1 $532 -153.40800195318462 $656 153.40800195318462 $516 $657 forward 7 unknown #
coedge $-1 $337 $336 $654 $658 forward $131 $-1 #
edge $-1 $523 -306.81600390636925 $656 306.81600390636925 $515 $659 forward 7 unknown #
coedge $-1 $528 $527 $337 $521 reversed $512 $-1 #
edge $-1 $660 -306.81600390636925 $522 306.81600390636925 $520 $661 forward 7 unknown #
vertex $-1 $339 $662 #
vertex $-1 $534 $663 #
straight-curve $-1 306.81600390636925 0 -153.40800195318462 0 -1 0 I I #
coedge $-1 $514 $516 $340 $526 reversed $333 $-1 #
edge $-1 $529 -2.8987967376829484 $532 2.8987967376829484 $525 $664 forward 7 unknown #
coedge $-1 $520 $341 $346 $535 forward $512 $-1 #
coedge $-1 $341 $520 $514 $655 reversed $512 $-1 #
vertex $-1 $342 $665 #
straight-curve $-1 0 2.8987967376829484 153.40800195318462 -1 0 0 I I #
coedge $-1 $343 $515 $345 $534 reversed $206 $-1 #
vertex $-1 $526 $666 #
straight-curve $-1 0 -2.8987967376829484 153.40800195318462 1 0 0 I I #
edge $-1 $348 -153.40800195318462 $523 153.40800195318462 $345 $667 forward 7 unknown #
edge $-1 $349 -153.40800195318462 $522 153.40800195318462 $346 $668 forward 7 unknown #
point $-1 306.81600390636925 -2.8987967376829484 153.40800195318462 #
point $-1 306.81600390636925 2.8987967376829484 153.40800195318462 #
coedge $-1 $538 $538 $-1 $669 reversed $351 $-1 #
vertex $-1 $353 $670 #
ellipse-curve $-1 0 0 -0.25 0 0 -1 0.5 0 0 1 I I #
point $-1 0.5 0 -2.1551026947843841 #
coedge $-1 $542 $542 $-1 $671 reversed $356 $-1 #
vertex $-1 $358 $672 #
ellipse-curve $-1 0 0 -0.25 0 0 -1 0.5 0 0 1 I I #
point $-1 0.5 0 -2.1551026947843841 #
face $-1 $-1 $376 $48 $-1 $673 reversed single #
loop $-1 $-1 $562 $361 #
plane-surface $-1 0 3.2181089861284065 0 0 -1 0 0 0 -1 forward_v I I I I #
coedge $-1 $674 $560 $563 $675 forward $362 $-1 #
coedge $-1 $566 $364 $365 $554 reversed $224 $-1 #
coedge $-1 $560 $674 $364 $552 reversed $362 $-1 #
edge $-1 $567 -153.40800195318462 $676 153.40800195318462 $551 $677 forward 7 unknown #
coedge $-1 $366 $365 $674 $678 forward $145 $-1 #
edge $-1 $558 -306.81600390636925 $676 306.81600390636925 $550 $679 forward 7 unknown #
coedge $-1 $563 $562 $366 $556 reversed $547 $-1 #
edge $-1 $680 -306.81600390636925 $557 306.81600390636925 $555 $681 forward 7 unknown #
vertex $-1 $368 $682 #
vertex $-1 $569 $683 #
straight-curve $-1 306.81600390636925 0 -153.40800195318462 0 -1 0 I I #
coedge $-1 $549 $551 $369 $561 reversed $362 $-1 #
edge $-1 $564 -3.2181089861284065 $567 3.2181089861284065 $560 $684 forward 7 unknown #
coedge $-1 $555 $370 $375 $570 forward $547 $-1 #
coedge $-1 $370 $555 $549 $675 reversed $547 $-1 #
vertex $-1 $371 $685 #
straight-curve $-1 0 3.2181089861284065 153.40800195318462 -1 0 0 I I #
coedge $-1 $372 $550 $374 $569 reversed $224 $-1 #
vertex $-1 $561 $686 #
straight-curve $-1 0 -3.2181089861284065 153.40800195318462 1 0 0 I I #
edge $-1 $377 -153.40800195318462 $558 153.40800195318462 $374 $687 forward 7 unknown #
edge $-1 $378 -153.40800195318462 $557 153.40800195318462 $375 $688 forward 7 unknown #
point $-1 306.81600390636925 -3.2181089861284065 153.40800195318462 #
point $-1 306.81600390636925 3.2181089861284065 153.40800195318462 #
coedge $-1 $573 $573 $-1 $689 reversed $380 $-1 #
vertex $-1 $382 $690 #
ellipse-curve $-1 0 0 -0.25 0 0 -1 0.5 0 0 1 I I #
point $-1 0.5 0 -1.25 #
coedge $-1 $577 $577 $-1 $691 reversed $385 $-1 #
vertex $-1 $387 $692 #
ellipse-curve $-1 0 0 -0.25 0 0 -1 0.5 0 0 1 I I #
point $-1 0.5 0 -1.25 #
coedge $-1 $581 $581 $-1 $693 reversed $390 $-1 #
vertex $-1 $392 $694 #
ellipse-curve $-1 0 0 -0.25 0 0 -1 0.5 0 0 1 I I #
point $-1 0.5 0 -1.25 #
plane-surface $-1 76.704000976592312 0 0 -1 0 0 0 0 1 forward_v I I I I #
coedge $-1 $400 $398 $402 $590 reversed $247 $-1 #
edge $-1 $413 -16.694087475253543 $592 16.694087475253543 $412 $695 forward 7 unknown #
vertex $-1 $590 $696 #
straight-curve $-1 -76.704000976592312 -33.485052387144599 0 0 0 -1 I I #
edge $-1 $588 -33.485052387144599 $592 33.485052387144599 $586 $697 forward 7 unknown #
straight-curve $-1 0 -33.485052387144599 -16.694087475253543 -1 0 0 I I #
vertex $-1 $405 $698 #
straight-curve $-1 0 33.485052387144599 -16.694087475253543 1 0 0 I I #
point $-1 76.704000976592312 33.485052387144599 -16.694087475253543 #
point $-1 76.704000976592312 -33.485052387144599 -16.694087475253543 #
straight-curve $-1 -76.704000976592312 0 16.694087475253543 0 -1 0 I I #
point $-1 -76.704000976592312 33.485052387144599 16.694087475253543 #
point $-1 -76.704000976592312 -33.485052387144599 16.694087475253543 #
straight-curve $-1 76.704000976592312 -33.485052387144599 0 0 0 -1 I I #
straight-curve $-1 76.704000976592312 33.485052387144599 0 0 0 -1 I I #
plane-surface $-1 76.704000976592312 0 0 -1 0 0 0 0 1 forward_v I I I I #
coedge $-1 $427 $425 $429 $606 reversed $266 $-1 #
edge $-1 $440 -1.9050935787901118 $608 1.9050935787901118 $439 $699 forward 7 unknown #
vertex $-1 $606 $700 #
straight-curve $-1 -76.704000976592312 -10.990692876179809 0 0 0 -1 I I #
edge $-1 $604 -10.990692876179809 $608 10.990692876179809 $602 $701 forward 7 unknown #
straight-curve $-1 0 -10.990692876179809 -1.9050935787901118 -1 0 0 I I #
vertex $-1 $432 $702 #
straight-curve $-1 0 10.990692876179809 -1.9050935787901118 1 0 0 I I #
point $-1 76.704000976592312 10.990692876179809 -1.9050935787901118 #
point $-1 76.704000976592312 -10.990692876179809 -1.9050935787901118 #
straight-curve $-1 -76.704000976592312 0 1.9050935787901118 0 -1 0 I I #
point $-1 -76.704000976592312 10.990692876179809 1.9050935787901118 #
point $-1 -76.704000976592312 -10.990692876179809 1.9050935787901118 #
straight-curve $-1 76.704000976592312 -10.990692876179809 0 0 0 -1 I I #
straight-curve $-1 76.704000976592312 10.990692876179809 0 0 0 -1 I I #
plane-surface $-1 76.704000976592312 0 0 -1 0 0 0 0 1 forward_v I I I I #
coedge $-1 $454 $452 $456 $622 reversed $285 $-1 #
edge $-1 $467 -1.9050935787901118 $624 1.9050935787901118 $466 $703 forward 7 unknown #
vertex $-1 $622 $704 #
straight-curve $-1 -76.704000976592312 -10.990692876179807 0 0 0 -1 I I #
edge $-1 $620 -10.990692876179807 $624 10.990692876179807 $618 $705 forward 7 unknown #
straight-curve $-1 0 -10.990692876179807 -1.9050935787901118 -1 0 0 I I #
vertex $-1 $459 $706 #
straight-curve $-1 0 10.990692876179807 -1.9050935787901118 1 0 0 I I #
point $-1 76.704000976592312 10.990692876179807 -1.9050935787901118 #
point $-1 76.704000976592312 -10.990692876179807 -1.9050935787901118 #
straight-curve $-1 -76.704000976592312 0 1.9050935787901118 0 -1 0 I I #
point $-1 -76.704000976592312 10.990692876179807 1.9050935787901118 #
point $-1 -76.704000976592312 -10.990692876179807 1.9050935787901118 #
straight-curve $-1 76.704000976592312 -10.990692876179807 0 0 0 -1 I I #
straight-curve $-1 76.704000976592312 10.990692876179807 0 0 0 -1 I I #
plane-surface $-1 306.81600390636925 0 0 -1 0 0 0 0 1 forward_v I I I I #
coedge $-1 $481 $479 $483 $638 reversed $304 $-1 #
edge $-1 $494 -153.40800195318462 $640 153.40800195318462 $493 $707 forward 7 unknown #
vertex $-1 $638 $708 #
straight-curve $-1 -306.81600390636925 -2.8987967376829484 0 0 0 -1 I I #
edge $-1 $636 -2.8987967376829484 $640 2.8987967376829484 $634 $709 forward 7 unknown #
straight-curve $-1 0 -2.8987967376829484 -153.40800195318462 -1 0 0 I I #
vertex $-1 $486 $710 #
straight-curve $-1 0 2.8987967376829484 -153.40800195318462 1 0 0 I I #
point $-1 306.81600390636925 2.8987967376829484 -153.40800195318462 #
point $-1 306.81600390636925 -2.8987967376829484 -153.40800195318462 #
straight-curve $-1 -306.81600390636925 0 153.40800195318462 0 -1 0 I I #
point $-1 -306.81600390636925 2.8987967376829484 153.40800195318462 #
point $-1 -306.81600390636925 -2.8987967376829484 153.40800195318462 #
straight-curve $-1 306.81600390636925 -2.8987967376829484 0 0 0 -1 I I #
straight-curve $-1 306.81600390636925 2.8987967376829484 0 0 0 -1 I I #
edge $-1 $711 1 $711 0 $503 $-1 forward 7 unknown #
point $-1 0.5 0 -0.25 #
edge $-1 $712 1 $712 0 $507 $-1 forward 7 unknown #
point $-1 0.5 0 -0.25 #
plane-surface $-1 306.81600390636925 0 0 -1 0 0 0 0 1 forward_v I I I I #
coedge $-1 $516 $514 $518 $658 reversed $333 $-1 #
edge $-1 $529 -153.40800195318462 $660 153.40800195318462 $528 $713 forward 7 unknown #
vertex $-1 $658 $714 #
straight-curve $-1 -306.81600390636925 -2.8987967376829484 0 0 0 -1 I I #
edge $-1 $656 -2.8987967376829484 $660 2.8987967376829484 $654 $715 forward 7 unknown #
straight-curve $-1 0 -2.8987967376829484 -153.40800195318462 -1 0 0 I I #
vertex $-1 $521 $716 #
straight-curve $-1 0 2.8987967376829484 -153.40800195318462 1 0 0 I I #
point $-1 306.81600390636925 2.8987967376829484 -153.40800195318462 #
point $-1 306.81600390636925 -2.8987967376829484 -153.40800195318462 #
straight-curve $-1 -306.81600390636925 0 153.40800195318462 0 -1 0 I I #
point $-1 -306.81600390636925 2.8987967376829484 153.40800195318462 #
point $-1 -306.81600390636925 -2.8987967376829484 153.40800195318462 #
straight-curve $-1 306.81600390636925 -2.8987967376829484 0 0 0 -1 I I #
straight-curve $-1 306.81600390636925 2.8987967376829484 0 0 0 -1 I I #
edge $-1 $717 1 $717 0 $538 $-1 forward 7 unknown #
point $-1 0.5 0 -0.25 #
edge $-1 $718 1 $718 0 $542 $-1 forward 7 unknown #
point $-1 0.5 0 -0.25 #
plane-surface $-1 306.81600390636925 0 0 -1 0 0 0 0 1 forward_v I I I I #
coedge $-1 $551 $549 $553 $678 reversed $362 $-1 #
edge $-1 $564 -153.40800195318462 $680 153.40800195318462 $563 $719 forward 7 unknown #
vertex $-1 $678 $720 #
straight-curve $-1 -306.81600390636925 -3.2181089861284065 0 0 0 -1 I I #
edge $-1 $676 -3.2181089861284065 $680 3.2181089861284065 $674 $721 forward 7 unknown #
straight-curve $-1 0 -3.2181089861284065 -153.40800195318462 -1 0 0 I I #
vertex $-1 $556 $722 #
straight-curve $-1 0 3.2181089861284065 -153.40800195318462 1 0 0 I I #
point $-1 306.81600390636925 3.2181089861284065 -153.40800195318462 #
point $-1 306.81600390636925 -3.2181089861284065 -153.40800195318462 #
straight-curve $-1 -306.81600390636925 0 153.40800195318462 0 -1 0 I I #
point $-1 -306.81600390636925 3.2181089861284065 153.40800195318462 #
point $-1 -306.81600390636925 -3.2181089861284065 153.40800195318462 #
straight-curve $-1 306.81600390636925 -3.2181089861284065 0 0 0 -1 I I #
straight-curve $-1 306.81600390636925 3.2181089861284065 0 0 0 -1 I I #
edge $-1 $723 1 $723 0 $573 $-1 forward 7 unknown #
point $-1 0.5 0 -0.25 #
edge $-1 $724 1 $724 0 $577 $-1 forward 7 unknown #
point $-1 0.5 0 -0.25 #
edge $-1 $725 1 $725 0 $581 $-1 forward 7 unknown #
point $-1 0.5 0 -0.25 #
straight-curve $-1 -76.704000976592312 33.485052387144599 0 0 0 -1 I I #
point $-1 -76.704000976592312 -33.485052387144599 -16.694087475253543 #
straight-curve $-1 -76.704000976592312 0 -16.694087475253543 0 1 0 I I #
point $-1 -76.704000976592312 33.485052387144599 -16.694087475253543 #
straight-curve $-1 -76.704000976592312 10.990692876179809 0 0 0 -1 I I #
point $-1 -76.704000976592312 -10.990692876179809 -1.9050935787901118 #
straight-curve $-1 -76.704000976592312 0 -1.9050935787901118 0 1 0 I I #
point $-1 -76.704000976592312 10.990692876179809 -1.9050935787901118 #
straight-curve $-1 -76.704000976592312 10.990692876179807 0 0 0 -1 I I #
point $-1 -76.704000976592312 -10.990692876179807 -1.9050935787901118 #
straight-curve $-1 -76.704000976592312 0 -1.9050935787901118 0 1 0 I I #
point $-1 -76.704000976592312 10.990692876179807 -1.9050935787901118 #
straight-curve $-1 -306.81600390636925 2.8987967376829484 0 0 0 -1 I I #
point $-1 -306.81600390636925 -2.8987967376829484 -153.40800195318462 #
straight-curve $-1 -306.81600390636925 0 -153.40800195318462 0 1 0 I I #
point $-1 -306.81600390636925 2.8987967376829484 -153.40800195318462 #
vertex $-1 $649 $726 #
vertex $-1 $651 $727 #
straight-curve $-1 -306.81600390636925 2.8987967376829484 0 0 0 -1 I I #
point $-1 -306.81600390636925 -2.8987967376829484 -153.40800195318462 #
straight-curve $-1 -306.81600390636925 0 -153.40800195318462 0 1 0 I I #
point $-1 -306.81600390636925 2.8987967376829484 -153.40800195318462 #
vertex $-1 $669 $728 #
vertex $-1 $671 $729 #
straight-curve $-1 -306.81600390636925 3.2181089861284065 0 0 0 -1 I I #
point $-1 -306.81600390636925 -3.2181089861284065 -153.40800195318462 #
straight-curve $-1 -306.81600390636925 0 -153.40800195318462 0 1 0 I I #
point $-1 -306.81600390636925 3.2181089861284065 -153.40800195318462 #
vertex $-1 $689 $730 #
vertex $-1 $691 $731 #
vertex $-1 $693 $732 #
point $-1 0 0 0.25 #
point $-1 0 0 0.25 #
point $-1 0 0 0.25 #
point $-1 0 0 0.25 #
point $-1 0 0 0.25 #
point $-1 0 0 0.25 #
point $-1 0 0 0.25 #
End-of-ACIS-data 