500 0 14 0           
7 Unknown 11 ACIS 5.0 NT 24 Fri Mar 26 18:51:42 1999 
-1 9.9999999999999995e-007 1e-010 
body $-1 $14 $-1 $15 #
body $-1 $16 $-1 $17 #
body $-1 $18 $-1 $19 #
body $-1 $20 $-1 $21 #
body $-1 $22 $-1 $23 #
body $-1 $24 $-1 $25 #
body $-1 $26 $-1 $27 #
body $-1 $28 $-1 $29 #
body $-1 $30 $-1 $31 #
body $-1 $32 $-1 $33 #
body $-1 $34 $-1 $35 #
body $-1 $36 $-1 $37 #
body $-1 $38 $-1 $39 #
body $-1 $40 $-1 $41 #
lump $-1 $-1 $42 $0 #
transform $-1 1 0 0 0 1 0 0 0 1 65.834528641621148 36.590231080347536 9.3491742202213715 1 rotate no_reflect no_shear #
lump $-1 $-1 $43 $1 #
transform $-1 1 0 0 0 1 0 0 0 1 65.834528641621148 36.590231080347536 9.3491742202213715 1 rotate no_reflect no_shear #
lump $-1 $-1 $44 $2 #
transform $-1 1 0 0 0 1 0 0 0 1 65.834528641621148 36.590231080347536 9.3491742202213715 1 rotate no_reflect no_shear #
lump $-1 $-1 $45 $3 #
transform $-1 1 0 0 0 1 0 0 0 1 65.834528641621148 36.590231080347536 9.3491742202213715 1 rotate no_reflect no_shear #
lump $-1 $-1 $46 $4 #
transform $-1 1 0 0 0 1 0 0 0 1 65.834528641621148 36.590231080347536 9.3491742202213715 1 rotate no_reflect no_shear #
lump $-1 $-1 $47 $5 #
transform $-1 1 0 0 0 1 0 0 0 1 65.834528641621148 36.590231080347536 9.3491742202213715 1 rotate no_reflect no_shear #
lump $-1 $-1 $48 $6 #
transform $-1 1 0 0 0 1 0 0 0 1 65.834528641621148 36.590231080347536 9.3491742202213715 1 rotate no_reflect no_shear #
lump $-1 $-1 $49 $7 #
transform $-1 1 0 0 0 1 0 0 0 1 65.834528641621148 36.590231080347536 9.3491742202213715 1 rotate no_reflect no_shear #
lump $-1 $-1 $50 $8 #
transform $-1 1 0 0 0 1 0 0 0 1 65.834528641621148 36.590231080347536 9.3491742202213715 1 rotate no_reflect no_shear #
lump $-1 $-1 $51 $9 #
transform $-1 1 0 0 0 1 0 0 0 1 65.834528641621148 36.590231080347536 9.3491742202213715 1 rotate no_reflect no_shear #
lump $-1 $-1 $52 $10 #
transform $-1 1 0 0 0 1 0 0 0 1 65.834528641621148 36.590231080347536 9.3491742202213715 1 rotate no_reflect no_shear #
lump $-1 $-1 $53 $11 #
transform $-1 1 0 0 0 1 0 0 0 1 65.834528641621148 36.590231080347536 9.3491742202213715 1 rotate no_reflect no_shear #
lump $-1 $-1 $54 $12 #
transform $-1 1 0 0 0 1 0 0 0 1 65.834528641621148 36.590231080347536 9.3491742202213715 1 rotate no_reflect no_shear #
lump $-1 $-1 $55 $13 #
transform $-1 1 0 0 0 1 0 0 0 1 65.834528641621148 36.590231080347536 9.3491742202213715 1 rotate no_reflect no_shear #
shell $-1 $-1 $-1 $56 $-1 $14 #
shell $-1 $-1 $-1 $57 $-1 $16 #
shell $-1 $-1 $-1 $58 $-1 $18 #
shell $-1 $-1 $-1 $59 $-1 $20 #
shell $-1 $-1 $-1 $60 $-1 $22 #
shell $-1 $-1 $-1 $61 $-1 $24 #
shell $-1 $-1 $-1 $62 $-1 $26 #
shell $-1 $-1 $-1 $63 $-1 $28 #
shell $-1 $-1 $-1 $64 $-1 $30 #
shell $-1 $-1 $-1 $65 $-1 $32 #
shell $-1 $-1 $-1 $66 $-1 $34 #
shell $-1 $-1 $-1 $67 $-1 $36 #
shell $-1 $-1 $-1 $68 $-1 $38 #
shell $-1 $-1 $-1 $69 $-1 $40 #
face $-1 $70 $71 $42 $-1 $72 forward single #
face $-1 $73 $74 $43 $-1 $75 forward single #
face $-1 $76 $77 $44 $-1 $78 reversed single #
face $-1 $79 $80 $45 $-1 $81 forward single #
face $-1 $82 $83 $46 $-1 $84 forward single #
face $-1 $85 $86 $47 $-1 $87 forward single #
face $-1 $88 $89 $48 $-1 $90 reversed single #
face $-1 $91 $92 $49 $-1 $93 forward single #
face $-1 $94 $95 $50 $-1 $96 forward single #
face $-1 $97 $98 $51 $-1 $99 forward single #
face $-1 $100 $101 $52 $-1 $102 reversed single #
face $-1 $103 $104 $53 $-1 $105 forward single #
face $-1 $106 $107 $54 $-1 $108 reversed single #
face $-1 $109 $110 $55 $-1 $111 forward single #
face $-1 $112 $113 $42 $-1 $114 reversed single #
loop $-1 $-1 $115 $56 #
plane-surface $-1 0 0 9.3491742202213715 0 0 1 1 0 0 forward_v I I I I #
face $-1 $116 $117 $43 $-1 $118 reversed single #
loop $-1 $-1 $119 $57 #
plane-surface $-1 0 -32.835268086854043 -5.3272060924377946 0 0 1 1 0 0 forward_v I I I I #
face $-1 $120 $121 $44 $-1 $122 reversed single #
loop $-1 $-1 $123 $58 #
plane-surface $-1 -180.99488196599253 -14.091924924251586 63.884803355188197 0 1 0 -0.87461971476443456 0 0.48480960649040278 forward_v I I I I #
face $-1 $124 $125 $45 $-1 $126 forward single #
loop $-1 $127 $128 $59 #
cone-surface $-1 -61.735302685618784 -11.052926516657344 3.8561057621733186 0.87461971476443456 0 -0.48480960649040278 0.48480960649040278 0 0.87461971476443456 1 I I 0 1 1 forward I I I I #
face $-1 $129 $130 $46 $-1 $131 forward single #
loop $-1 $132 $133 $60 #
cone-surface $-1 -61.735302685618784 -6.494428905265984 3.8561057621733186 0.87461971476443456 0 -0.48480960649040278 0.48480960649040278 0 0.87461971476443456 1 I I 0 1 1 forward I I I I #
face $-1 $134 $135 $47 $-1 $136 forward single #
loop $-1 $137 $138 $61 #
cone-surface $-1 -61.735302685618784 -1.9359312938746243 3.8561057621733186 0.87461971476443456 0 -0.48480960649040278 0.48480960649040278 0 0.87461971476443456 1 I I 0 1 1 forward I I I I #
face $-1 $139 $140 $48 $-1 $141 reversed single #
loop $-1 $-1 $142 $62 #
plane-surface $-1 -180.99488196599253 18.743343162602457 63.884803355188197 0 1 0 -0.87461971476443456 0 0.48480960649040278 forward_v I I I I #
face $-1 $143 $144 $49 $-1 $145 forward single #
loop $-1 $146 $147 $63 #
cone-surface $-1 -61.735302685618784 21.782341570196699 3.8561057621733186 0.87461971476443456 0 -0.48480960649040278 0.48480960649040278 0 0.87461971476443456 1 I I 0 1 1 forward I I I I #
face $-1 $148 $149 $50 $-1 $150 forward single #
loop $-1 $151 $152 $64 #
cone-surface $-1 -61.735302685618784 26.340839181588059 3.8561057621733186 0.87461971476443456 0 -0.48480960649040278 0.48480960649040278 0 0.87461971476443456 1 I I 0 1 1 forward I I I I #
face $-1 $153 $154 $51 $-1 $155 forward single #
loop $-1 $156 $157 $65 #
cone-surface $-1 -61.735302685618784 30.899336792979426 3.8561057621733186 0.87461971476443456 0 -0.48480960649040278 0.48480960649040278 0 0.87461971476443456 1 I I 0 1 1 forward I I I I #
face $-1 $158 $159 $52 $-1 $160 reversed single #
loop $-1 $-1 $161 $66 #
plane-surface $-1 23.946806744643439 -1.5579125873197643 185.88553047141289 0 -1 0 -0.52991927123019833 0 -0.84804809178421925 forward_v I I I I #
face $-1 $162 $163 $53 $-1 $164 forward single #
loop $-1 $165 $166 $67 #
cone-surface $-1 61.365034257384664 -8.4922297855442395 6.0205703169531706 -0.52991927123019833 0 -0.84804809178421925 1.6960961835684385 0 -1.0598385424603967 1 I I 0 1 2 forward I I I I #
face $-1 $167 $168 $54 $-1 $169 reversed single #
loop $-1 $-1 $170 $68 #
plane-surface $-1 23.946806744643439 22.936472970755709 185.88553047141289 0 -1 0 -0.52991927123019833 0 -0.84804809178421925 forward_v I I I I #
face $-1 $171 $172 $55 $-1 $173 forward single #
loop $-1 $174 $175 $69 #
cone-surface $-1 61.365034257384664 16.002155772531232 6.0205703169531706 -0.52991927123019833 0 -0.84804809178421925 1.6960961835684385 0 -1.0598385424603967 1 I I 0 1 2 forward I I I I #
face $-1 $176 $177 $42 $-1 $178 reversed single #
loop $-1 $-1 $179 $70 #
plane-surface $-1 0 0 -9.3491742202213715 0 0 1 1 0 0 forward_v I I I I #
coedge $-1 $180 $181 $182 $183 forward $71 $-1 #
face $-1 $184 $185 $43 $-1 $186 reversed single #
loop $-1 $-1 $187 $73 #
plane-surface $-1 0 -29.08030509336055 -7.338190156329583 0 -1 0 0 0 -1 forward_v I I I I #
coedge $-1 $188 $189 $190 $191 reversed $74 $-1 #
face $-1 $192 $193 $44 $-1 $194 reversed single #
loop $-1 $-1 $195 $76 #
plane-surface $-1 -65.834528641621162 -6.494428905265984 0.050379506737201041 -0.87461971476443456 0 0.48480960649040278 0.48480960649040278 0 0.87461971476443456 forward_v I I I I #
coedge $-1 $196 $197 $198 $199 reversed $77 $-1 #
face $-1 $-1 $200 $45 $-1 $201 forward single #
loop $-1 $202 $203 $79 #
cone-surface $-1 -59.775969815283283 -11.052926516657344 2.7700298576221538 0.87461971476443456 0 -0.48480960649040278 0.24240480324520139 0 0.43730985738221728 1 I I -0.70710678118654746 0.70710678118654746 0.5 forward I I I I #
loop $-1 $-1 $204 $59 #
coedge $-1 $128 $128 $205 $206 reversed $80 $-1 #
face $-1 $-1 $207 $46 $-1 $208 forward single #
loop $-1 $209 $210 $82 #
cone-surface $-1 -59.775969815283283 -6.494428905265984 2.7700298576221538 0.87461971476443456 0 -0.48480960649040278 0.24240480324520139 0 0.43730985738221728 1 I I -0.70710678118654746 0.70710678118654746 0.5 forward I I I I #
loop $-1 $-1 $211 $60 #
coedge $-1 $133 $133 $212 $213 reversed $83 $-1 #
face $-1 $-1 $214 $47 $-1 $215 forward single #
loop $-1 $216 $217 $85 #
cone-surface $-1 -59.775969815283283 -1.9359312938746243 2.7700298576221538 0.87461971476443456 0 -0.48480960649040278 0.24240480324520139 0 0.43730985738221728 1 I I -0.70710678118654746 0.70710678118654746 0.5 forward I I I I #
loop $-1 $-1 $218 $61 #
coedge $-1 $138 $138 $219 $220 reversed $86 $-1 #
face $-1 $221 $222 $48 $-1 $223 reversed single #
loop $-1 $-1 $224 $88 #
plane-surface $-1 -65.834528641621162 26.340839181588059 0.050379506737201041 -0.87461971476443456 0 0.48480960649040278 0.48480960649040278 0 0.87461971476443456 forward_v I I I I #
coedge $-1 $225 $226 $227 $228 reversed $89 $-1 #
face $-1 $-1 $229 $49 $-1 $230 forward single #
loop $-1 $231 $232 $91 #
cone-surface $-1 -59.775969815283283 21.782341570196699 2.7700298576221538 0.87461971476443456 0 -0.48480960649040278 0.24240480324520139 0 0.43730985738221728 1 I I -0.70710678118654746 0.70710678118654746 0.5 forward I I I I #
loop $-1 $-1 $233 $63 #
coedge $-1 $147 $147 $234 $235 reversed $92 $-1 #
face $-1 $-1 $236 $50 $-1 $237 forward single #
loop $-1 $238 $239 $94 #
cone-surface $-1 -59.775969815283283 26.340839181588059 2.7700298576221538 0.87461971476443456 0 -0.48480960649040278 0.24240480324520139 0 0.43730985738221728 1 I I -0.70710678118654746 0.70710678118654746 0.5 forward I I I I #
loop $-1 $-1 $240 $64 #
coedge $-1 $152 $152 $241 $242 reversed $95 $-1 #
face $-1 $-1 $243 $51 $-1 $244 forward single #
loop $-1 $245 $246 $97 #
cone-surface $-1 -59.775969815283283 30.899336792979426 2.7700298576221538 0.87461971476443456 0 -0.48480960649040278 0.24240480324520139 0 0.43730985738221728 1 I I -0.70710678118654746 0.70710678118654746 0.5 forward I I I I #
loop $-1 $-1 $247 $65 #
coedge $-1 $157 $157 $248 $249 reversed $98 $-1 #
face $-1 $250 $251 $52 $-1 $252 reversed single #
loop $-1 $-1 $253 $100 #
plane-surface $-1 -45.827164134459551 -8.4922297855442395 74.223837695332207 0.52991927123019833 0 0.84804809178421925 0.84804809178421925 0 -0.52991927123019833 forward_v I I I I #
coedge $-1 $254 $255 $256 $257 reversed $101 $-1 #
face $-1 $-1 $258 $53 $-1 $259 forward single #
loop $-1 $260 $261 $103 #
cone-surface $-1 60.285885933441406 -8.4922297855442395 4.2935720238968216 -0.52991927123019833 0 -0.84804809178421925 0.84804809178421925 0 -0.52991927123019833 1 I I -0.70710678118654746 0.70710678118654746 1 forward I I I I #
loop $-1 $-1 $262 $67 #
coedge $-1 $166 $166 $263 $264 reversed $104 $-1 #
face $-1 $265 $266 $54 $-1 $267 reversed single #
loop $-1 $-1 $268 $106 #
plane-surface $-1 -45.827164134459551 16.002155772531232 74.223837695332207 0.52991927123019833 0 0.84804809178421925 0.84804809178421925 0 -0.52991927123019833 forward_v I I I I #
coedge $-1 $269 $270 $271 $272 reversed $107 $-1 #
face $-1 $-1 $273 $55 $-1 $274 forward single #
loop $-1 $275 $276 $109 #
cone-surface $-1 60.285885933441406 16.002155772531232 4.2935720238968216 -0.52991927123019833 0 -0.84804809178421925 0.84804809178421925 0 -0.52991927123019833 1 I I -0.70710678118654746 0.70710678118654746 1 forward I I I I #
loop $-1 $-1 $277 $69 #
coedge $-1 $175 $175 $278 $279 reversed $110 $-1 #
face $-1 $280 $281 $42 $-1 $282 reversed single #
loop $-1 $-1 $283 $112 #
plane-surface $-1 0 -36.590231080347536 0 0 1 0 0 0 1 forward_v I I I I #
coedge $-1 $284 $285 $286 $287 forward $113 $-1 #
coedge $-1 $288 $115 $289 $290 forward $71 $-1 #
coedge $-1 $115 $288 $291 $292 forward $71 $-1 #
coedge $-1 $293 $294 $115 $183 reversed $295 $-1 #
edge $-1 $296 -36.590231080347536 $297 36.590231080347536 $182 $298 forward 7 unknown #
face $-1 $299 $300 $43 $-1 $301 reversed single #
loop $-1 $-1 $302 $116 #
plane-surface $-1 0 0 -9.3491742202213715 0 0 1 1 0 0 forward_v I I I I #
coedge $-1 $303 $304 $305 $306 reversed $117 $-1 #
coedge $-1 $307 $119 $304 $308 forward $74 $-1 #
coedge $-1 $119 $307 $309 $310 reversed $74 $-1 #
coedge $-1 $311 $305 $119 $191 forward $300 $-1 #
edge $-1 $312 12.662671049933529 $313 20.172597036920514 $190 $314 forward 7 unknown #
face $-1 $315 $316 $44 $-1 $317 forward single #
loop $-1 $-1 $318 $120 #
plane-surface $-1 -180.99488196599253 1.103067113719618 63.884803355188197 0 -1 0 0.87461971476443456 0 -0.48480960649040278 forward_v I I I I #
coedge $-1 $319 $320 $321 $322 reversed $121 $-1 #
coedge $-1 $197 $123 $323 $324 reversed $77 $-1 #
coedge $-1 $123 $196 $319 $325 reversed $77 $-1 #
coedge $-1 $321 $326 $123 $199 forward $316 $-1 #
edge $-1 $327 24.662912341375119 $328 29.817318227473265 $198 $329 forward 7 unknown #
loop $-1 $-1 $205 $124 #
plane-surface $-1 -65.834528641621162 -6.494428905265984 0.050379506737201041 -0.87461971476443456 0 0.48480960649040278 0.48480960649040278 0 0.87461971476443456 forward_v I I I I #
loop $-1 $-1 $330 $79 #
coedge $-1 $203 $203 $204 $331 reversed $125 $-1 #
coedge $-1 $204 $204 $203 $331 forward $127 $-1 #
coedge $-1 $205 $205 $128 $206 forward $200 $-1 #
edge $-1 $332 0 $332 6.2831853071796004 $205 $333 forward 7 unknown #
loop $-1 $-1 $212 $129 #
plane-surface $-1 -65.834528641621162 -6.494428905265984 0.050379506737201041 -0.87461971476443456 0 0.48480960649040278 0.48480960649040278 0 0.87461971476443456 forward_v I I I I #
loop $-1 $-1 $334 $82 #
coedge $-1 $210 $210 $211 $335 reversed $130 $-1 #
coedge $-1 $211 $211 $210 $335 forward $132 $-1 #
coedge $-1 $212 $212 $133 $213 forward $207 $-1 #
edge $-1 $336 0 $336 6.2831853071796004 $212 $337 forward 7 unknown #
loop $-1 $-1 $219 $134 #
plane-surface $-1 -65.834528641621162 -6.494428905265984 0.050379506737201041 -0.87461971476443456 0 0.48480960649040278 0.48480960649040278 0 0.87461971476443456 forward_v I I I I #
loop $-1 $-1 $338 $85 #
coedge $-1 $217 $217 $218 $339 reversed $135 $-1 #
coedge $-1 $218 $218 $217 $339 forward $137 $-1 #
coedge $-1 $219 $219 $138 $220 forward $214 $-1 #
edge $-1 $340 0 $340 6.2831853071796004 $219 $341 forward 7 unknown #
face $-1 $342 $343 $48 $-1 $344 forward single #
loop $-1 $-1 $345 $139 #
plane-surface $-1 -180.99488196599253 33.938335200573661 63.884803355188197 0 -1 0 0.87461971476443456 0 -0.48480960649040278 forward_v I I I I #
coedge $-1 $346 $347 $348 $349 reversed $140 $-1 #
coedge $-1 $226 $142 $350 $351 reversed $89 $-1 #
coedge $-1 $142 $225 $346 $352 reversed $89 $-1 #
coedge $-1 $348 $353 $142 $228 forward $343 $-1 #
edge $-1 $354 24.662912341375119 $355 29.817318227473265 $227 $356 forward 7 unknown #
loop $-1 $-1 $234 $143 #
plane-surface $-1 -65.834528641621162 26.340839181588059 0.050379506737201041 -0.87461971476443456 0 0.48480960649040278 0.48480960649040278 0 0.87461971476443456 forward_v I I I I #
loop $-1 $-1 $357 $91 #
coedge $-1 $232 $232 $233 $358 reversed $144 $-1 #
coedge $-1 $233 $233 $232 $358 forward $146 $-1 #
coedge $-1 $234 $234 $147 $235 forward $229 $-1 #
edge $-1 $359 0 $359 6.2831853071796004 $234 $360 forward 7 unknown #
loop $-1 $-1 $241 $148 #
plane-surface $-1 -65.834528641621162 26.340839181588059 0.050379506737201041 -0.87461971476443456 0 0.48480960649040278 0.48480960649040278 0 0.87461971476443456 forward_v I I I I #
loop $-1 $-1 $361 $94 #
coedge $-1 $239 $239 $240 $362 reversed $149 $-1 #
coedge $-1 $240 $240 $239 $362 forward $151 $-1 #
coedge $-1 $241 $241 $152 $242 forward $236 $-1 #
edge $-1 $363 0 $363 6.2831853071796004 $241 $364 forward 7 unknown #
loop $-1 $-1 $248 $153 #
plane-surface $-1 -65.834528641621162 26.340839181588059 0.050379506737201041 -0.87461971476443456 0 0.48480960649040278 0.48480960649040278 0 0.87461971476443456 forward_v I I I I #
loop $-1 $-1 $365 $97 #
coedge $-1 $246 $246 $247 $366 reversed $154 $-1 #
coedge $-1 $247 $247 $246 $366 forward $156 $-1 #
coedge $-1 $248 $248 $157 $249 forward $243 $-1 #
edge $-1 $367 0 $367 6.2831853071796004 $248 $368 forward 7 unknown #
face $-1 $369 $370 $52 $-1 $371 reversed single #
loop $-1 $-1 $372 $158 #
plane-surface $-1 23.946806744643439 -15.426546983768715 185.88553047141289 0 1 0 0.52991927123019833 0 0.84804809178421925 forward_v I I I I #
coedge $-1 $373 $374 $375 $376 reversed $159 $-1 #
coedge $-1 $255 $161 $377 $378 reversed $101 $-1 #
coedge $-1 $161 $254 $373 $379 reversed $101 $-1 #
coedge $-1 $375 $380 $161 $257 forward $381 $-1 #
edge $-1 $382 -53.861125269299428 $383 -46.020594606252494 $256 $384 forward 7 unknown #
loop $-1 $-1 $263 $162 #
plane-surface $-1 -45.827164134459551 -8.4922297855442395 74.223837695332207 0.52991927123019833 0 0.84804809178421925 0.84804809178421925 0 -0.52991927123019833 forward_v I I I I #
loop $-1 $-1 $385 $103 #
coedge $-1 $261 $261 $262 $386 reversed $163 $-1 #
coedge $-1 $262 $262 $261 $386 forward $165 $-1 #
coedge $-1 $263 $263 $166 $264 forward $258 $-1 #
edge $-1 $387 0 $387 6.2831853071796004 $263 $388 forward 7 unknown #
face $-1 $389 $390 $54 $-1 $391 reversed single #
loop $-1 $-1 $392 $167 #
plane-surface $-1 23.946806744643439 9.0678385743067569 185.88553047141289 0 1 0 0.52991927123019833 0 0.84804809178421925 forward_v I I I I #
coedge $-1 $393 $394 $395 $396 reversed $168 $-1 #
coedge $-1 $270 $170 $397 $398 reversed $107 $-1 #
coedge $-1 $170 $269 $393 $399 reversed $107 $-1 #
coedge $-1 $395 $400 $170 $272 forward $401 $-1 #
edge $-1 $402 -53.861125269299428 $403 -46.020594606252494 $271 $404 forward 7 unknown #
loop $-1 $-1 $278 $171 #
plane-surface $-1 -45.827164134459551 16.002155772531232 74.223837695332207 0.52991927123019833 0 0.84804809178421925 0.84804809178421925 0 -0.52991927123019833 forward_v I I I I #
loop $-1 $-1 $405 $109 #
coedge $-1 $276 $276 $277 $406 reversed $172 $-1 #
coedge $-1 $277 $277 $276 $406 forward $174 $-1 #
coedge $-1 $278 $278 $175 $279 forward $273 $-1 #
edge $-1 $407 0 $407 6.2831853071796004 $278 $408 forward 7 unknown #
face $-1 $409 $410 $42 $-1 $411 reversed single #
loop $-1 $-1 $412 $176 #
plane-surface $-1 -65.834528641621148 0 0 1 0 0 0 0 -1 forward_v I I I I #
coedge $-1 $413 $291 $414 $415 forward $177 $-1 #
coedge $-1 $416 $179 $413 $417 forward $113 $-1 #
coedge $-1 $179 $416 $418 $419 forward $113 $-1 #
coedge $-1 $294 $293 $179 $287 reversed $295 $-1 #
edge $-1 $420 -36.590231080347536 $421 36.590231080347536 $286 $422 forward 7 unknown #
coedge $-1 $181 $180 $423 $424 forward $71 $-1 #
coedge $-1 $425 $426 $180 $290 reversed $410 $-1 #
edge $-1 $297 -65.834528641621148 $427 65.834528641621148 $289 $428 forward 7 unknown #
coedge $-1 $283 $429 $181 $292 reversed $177 $-1 #
edge $-1 $430 -65.834528641621148 $296 65.834528641621148 $291 $431 forward 7 unknown #
coedge $-1 $286 $182 $429 $432 forward $295 $-1 #
coedge $-1 $182 $286 $425 $433 reversed $295 $-1 #
loop $-1 $-1 $293 $409 #
vertex $-1 $183 $434 #
vertex $-1 $183 $435 #
straight-curve $-1 65.834528641621148 0 9.3491742202213715 0 1 0 I I #
face $-1 $436 $437 $43 $-1 $438 reversed single #
loop $-1 $-1 $305 $184 #
plane-surface $-1 65.834528641621148 0 0 -1 0 0 0 0 1 forward_v I I I I #
coedge $-1 $439 $440 $303 $441 forward $185 $-1 #
coedge $-1 $442 $187 $302 $441 reversed $117 $-1 #
coedge $-1 $187 $442 $188 $308 reversed $117 $-1 #
coedge $-1 $190 $443 $187 $306 forward $300 $-1 #
edge $-1 $444 -5.6800791420565799 $312 -1.6581110142730031 $305 $445 forward 7 unknown #
coedge $-1 $189 $188 $446 $447 reversed $74 $-1 #
edge $-1 $312 -65.834528641621148 $448 65.834528641621148 $304 $449 forward 7 unknown #
coedge $-1 $450 $451 $189 $310 forward $437 $-1 #
edge $-1 $313 -65.834528641621148 $452 65.834528641621148 $309 $453 forward 7 unknown #
coedge $-1 $443 $190 $451 $454 forward $300 $-1 #
vertex $-1 $191 $455 #
vertex $-1 $454 $456 #
straight-curve $-1 65.834528641621148 -16.417634043427022 -5.3272060924377946 0 -1 0 I I #
face $-1 $-1 $457 $44 $-1 $458 reversed single #
loop $-1 $-1 $198 $192 #
plane-surface $-1 0 0 9.3491742202213715 0 0 1 1 0 0 forward_v I I I I #
coedge $-1 $459 $460 $461 $462 reversed $193 $-1 #
coedge $-1 $463 $195 $197 $325 forward $121 $-1 #
coedge $-1 $195 $463 $459 $464 forward $121 $-1 #
coedge $-1 $461 $198 $195 $322 forward $316 $-1 #
edge $-1 $328 -10.844710471618594 $465 4.35028156635261 $321 $466 forward 7 unknown #
coedge $-1 $467 $468 $196 $324 forward $457 $-1 #
edge $-1 $469 -31.892022170856873 $327 -22.593227457372727 $323 $470 forward 7 unknown #
edge $-1 $328 -10.631814669291622 $469 -2.9314120021293539e-014 $197 $471 forward 7 unknown #
coedge $-1 $198 $461 $467 $472 forward $316 $-1 #
vertex $-1 $324 $473 #
vertex $-1 $199 $474 #
straight-curve $-1 -90.497440982996267 -14.091924924251586 9.3491742202213715 1 0 0 I I #
coedge $-1 $330 $330 $-1 $475 reversed $202 $-1 #
edge $-1 $476 0 $476 6.2831853071796004 $203 $477 forward 7 unknown #
vertex $-1 $206 $478 #
ellipse-curve $-1 -63.257325698572082 -11.052926516657344 4.6997768634792889 -0.87461971476443456 0 0.48480960649040278 0.48480960649040278 0 0.87461971476443456 1 I I #
coedge $-1 $334 $334 $-1 $479 reversed $209 $-1 #
edge $-1 $480 0 $480 6.2831853071796004 $210 $481 forward 7 unknown #
vertex $-1 $213 $482 #
ellipse-curve $-1 -63.257325698572082 -6.494428905265984 4.6997768634792889 -0.87461971476443456 0 0.48480960649040278 0.48480960649040278 0 0.87461971476443456 1 I I #
coedge $-1 $338 $338 $-1 $483 reversed $216 $-1 #
edge $-1 $484 0 $484 6.2831853071796004 $217 $485 forward 7 unknown #
vertex $-1 $220 $486 #
ellipse-curve $-1 -63.257325698572082 -1.9359312938746243 4.6997768634792889 -0.87461971476443456 0 0.48480960649040278 0.48480960649040278 0 0.87461971476443456 1 I I #
face $-1 $-1 $487 $48 $-1 $488 reversed single #
loop $-1 $-1 $227 $221 #
plane-surface $-1 0 0 9.3491742202213715 0 0 1 1 0 0 forward_v I I I I #
coedge $-1 $489 $490 $491 $492 reversed $222 $-1 #
coedge $-1 $493 $224 $226 $352 forward $140 $-1 #
coedge $-1 $224 $493 $489 $494 forward $140 $-1 #
coedge $-1 $491 $227 $224 $349 forward $343 $-1 #
edge $-1 $355 5.5729235718084276 $495 20.767915609779632 $348 $496 forward 7 unknown #
coedge $-1 $497 $498 $225 $351 forward $487 $-1 #
edge $-1 $499 -31.892022170856873 $354 -22.593227457372727 $350 $500 forward 7 unknown #
edge $-1 $355 -10.631814669291622 $499 -2.9314120021293539e-014 $226 $501 forward 7 unknown #
coedge $-1 $227 $491 $497 $502 forward $343 $-1 #
vertex $-1 $228 $503 #
vertex $-1 $228 $504 #
straight-curve $-1 -90.497440982996267 18.743343162602457 9.3491742202213715 1 0 0 I I #
coedge $-1 $357 $357 $-1 $505 reversed $231 $-1 #
edge $-1 $506 0 $506 6.2831853071796004 $232 $507 forward 7 unknown #
vertex $-1 $235 $508 #
ellipse-curve $-1 -63.257325698572082 21.782341570196699 4.6997768634792889 -0.87461971476443456 0 0.48480960649040278 0.48480960649040278 0 0.87461971476443456 1 I I #
coedge $-1 $361 $361 $-1 $509 reversed $238 $-1 #
edge $-1 $510 0 $510 6.2831853071796004 $239 $511 forward 7 unknown #
vertex $-1 $242 $512 #
ellipse-curve $-1 -63.257325698572082 26.340839181588059 4.6997768634792889 -0.87461971476443456 0 0.48480960649040278 0.48480960649040278 0 0.87461971476443456 1 I I #
coedge $-1 $365 $365 $-1 $513 reversed $245 $-1 #
edge $-1 $514 0 $514 6.2831853071796004 $246 $515 forward 7 unknown #
vertex $-1 $249 $516 #
ellipse-curve $-1 -63.257325698572082 30.899336792979426 4.6997768634792889 -0.87461971476443456 0 0.48480960649040278 0.48480960649040278 0 0.87461971476443456 1 I I #
face $-1 $-1 $381 $52 $-1 $517 forward single #
loop $-1 $-1 $518 $250 #
plane-surface $-1 65.834528641621148 0 0 -1 0 0 0 0 1 forward_v I I I I #
coedge $-1 $519 $520 $521 $522 reversed $251 $-1 #
coedge $-1 $523 $253 $255 $379 forward $159 $-1 #
coedge $-1 $253 $523 $519 $524 forward $159 $-1 #
coedge $-1 $521 $256 $253 $376 forward $381 $-1 #
edge $-1 $383 -2.6882023054523554 $525 11.180432090996595 $375 $526 forward 7 unknown #
coedge $-1 $527 $528 $254 $378 forward $370 $-1 #
edge $-1 $529 -88.492898419477243 $382 -83.593591015485075 $377 $530 forward 7 unknown #
edge $-1 $383 122.42367280681347 $529 131.66905728324232 $255 $531 forward 7 unknown #
coedge $-1 $256 $521 $527 $532 forward $381 $-1 #
loop $-1 $-1 $521 $369 #
vertex $-1 $378 $533 #
vertex $-1 $257 $534 #
straight-curve $-1 11.973403372321719 -1.5579125873197643 9.3491742202213715 -1 0 0 I I #
coedge $-1 $385 $385 $-1 $535 reversed $260 $-1 #
edge $-1 $536 0 $536 6.2831853071796004 $261 $537 forward 7 unknown #
vertex $-1 $264 $538 #
ellipse-curve $-1 61.914263310097702 -8.4922297855442395 6.8995205182252688 0.52991927123019833 0 0.84804809178421925 1.6960961835684385 0 -1.0598385424603967 1 I I #
face $-1 $-1 $401 $54 $-1 $539 forward single #
loop $-1 $-1 $540 $265 #
plane-surface $-1 65.834528641621148 0 0 -1 0 0 0 0 1 forward_v I I I I #
coedge $-1 $541 $542 $543 $544 reversed $266 $-1 #
coedge $-1 $545 $268 $270 $399 forward $168 $-1 #
coedge $-1 $268 $545 $541 $546 forward $168 $-1 #
coedge $-1 $543 $271 $268 $396 forward $401 $-1 #
edge $-1 $403 -14.935395084490093 $547 -1.0667606880411409 $395 $548 forward 7 unknown #
coedge $-1 $549 $550 $269 $398 forward $390 $-1 #
edge $-1 $551 -88.492898419477243 $402 -83.593591015485075 $397 $552 forward 7 unknown #
edge $-1 $403 122.42367280681347 $551 131.66905728324232 $270 $553 forward 7 unknown #
coedge $-1 $271 $543 $549 $554 forward $401 $-1 #
loop $-1 $-1 $543 $389 #
vertex $-1 $398 $555 #
vertex $-1 $272 $556 #
straight-curve $-1 11.973403372321719 22.936472970755709 9.3491742202213715 -1 0 0 I I #
coedge $-1 $405 $405 $-1 $557 reversed $275 $-1 #
edge $-1 $558 0 $558 6.2831853071796004 $276 $559 forward 7 unknown #
vertex $-1 $279 $560 #
ellipse-curve $-1 61.914263310097702 16.002155772531232 6.8995205182252688 0.52991927123019833 0 0.84804809178421925 1.6960961835684385 0 -1.0598385424603967 1 I I #
face $-1 $-1 $295 $42 $-1 $561 reversed single #
loop $-1 $-1 $425 $280 #
plane-surface $-1 0 36.590231080347536 0 0 -1 0 0 0 -1 forward_v I I I I #
coedge $-1 $562 $423 $426 $563 forward $281 $-1 #
coedge $-1 $429 $283 $284 $417 reversed $177 $-1 #
coedge $-1 $423 $562 $283 $415 reversed $281 $-1 #
edge $-1 $430 -9.3491742202213715 $564 9.3491742202213715 $414 $565 forward 7 unknown #
coedge $-1 $285 $284 $562 $566 forward $113 $-1 #
edge $-1 $421 -65.834528641621148 $564 65.834528641621148 $413 $567 forward 7 unknown #
coedge $-1 $426 $425 $285 $419 reversed $410 $-1 #
edge $-1 $568 -65.834528641621148 $420 65.834528641621148 $418 $569 forward 7 unknown #
vertex $-1 $287 $570 #
vertex $-1 $432 $571 #
straight-curve $-1 65.834528641621148 0 -9.3491742202213715 0 -1 0 I I #
coedge $-1 $412 $414 $288 $424 reversed $281 $-1 #
edge $-1 $427 -36.590231080347536 $430 36.590231080347536 $423 $572 forward 7 unknown #
coedge $-1 $418 $289 $294 $433 forward $410 $-1 #
coedge $-1 $289 $418 $412 $563 reversed $410 $-1 #
vertex $-1 $290 $573 #
straight-curve $-1 0 36.590231080347536 9.3491742202213715 -1 0 0 I I #
coedge $-1 $291 $413 $293 $432 reversed $177 $-1 #
vertex $-1 $424 $574 #
straight-curve $-1 0 -36.590231080347536 9.3491742202213715 1 0 0 I I #
edge $-1 $296 -9.3491742202213715 $421 9.3491742202213715 $293 $575 forward 7 unknown #
edge $-1 $297 -9.3491742202213715 $420 9.3491742202213715 $294 $576 forward 7 unknown #
point $-1 65.834528641621148 -36.590231080347536 9.3491742202213715 #
point $-1 65.834528641621148 36.590231080347536 9.3491742202213715 #
face $-1 $-1 $577 $43 $-1 $578 reversed single #
loop $-1 $-1 $309 $299 #
plane-surface $-1 0 -36.590231080347536 0 0 1 0 0 0 1 forward_v I I I I #
coedge $-1 $579 $302 $443 $580 forward $185 $-1 #
coedge $-1 $302 $579 $581 $582 forward $185 $-1 #
edge $-1 $583 -65.834528641621148 $444 65.834528641621148 $302 $584 forward 7 unknown #
coedge $-1 $304 $303 $585 $586 reversed $117 $-1 #
coedge $-1 $305 $311 $439 $580 reversed $300 $-1 #
vertex $-1 $580 $587 #
straight-curve $-1 65.834528641621148 -29.08030509336055 -3.6690950781647915 0 0 1 I I #
coedge $-1 $585 $588 $307 $447 forward $577 $-1 #
edge $-1 $452 -20.172597036920514 $448 -12.662671049933529 $446 $589 forward 7 unknown #
vertex $-1 $447 $590 #
straight-curve $-1 0 -29.08030509336055 -5.3272060924377946 -1 0 0 I I #
coedge $-1 $591 $309 $588 $592 forward $437 $-1 #
coedge $-1 $309 $591 $311 $454 reversed $437 $-1 #
vertex $-1 $592 $593 #
straight-curve $-1 0 -36.590231080347536 -5.3272060924377946 -1 0 0 I I #
edge $-1 $313 5.3272060924377946 $594 9.3491742202213715 $311 $595 forward 7 unknown #
point $-1 65.834528641621148 -29.08030509336055 -5.3272060924377946 #
point $-1 65.834528641621148 -36.590231080347536 -5.3272060924377946 #
loop $-1 $-1 $323 $315 #
plane-surface $-1 -65.834528641621148 0 0 1 0 0 0 0 -1 forward_v I I I I #
coedge $-1 $460 $318 $320 $464 reversed $193 $-1 #
coedge $-1 $318 $459 $596 $597 reversed $193 $-1 #
coedge $-1 $326 $321 $318 $462 forward $316 $-1 #
edge $-1 $465 -29.817318227473265 $598 -24.662912341375119 $461 $599 forward 7 unknown #
coedge $-1 $320 $319 $468 $600 reversed $121 $-1 #
edge $-1 $601 2.9314120021293539e-014 $465 10.631814669291622 $459 $602 forward 7 unknown #
vertex $-1 $322 $603 #
straight-curve $-1 -60.680122755522994 -3.247214452632992 9.3491742202213715 0 1 0 I I #
coedge $-1 $596 $323 $326 $472 reversed $457 $-1 #
coedge $-1 $323 $596 $463 $600 forward $457 $-1 #
vertex $-1 $324 $604 #
straight-curve $-1 -65.834528641621148 -14.091924924251586 31.942401677594098 0 0 1 I I #
straight-curve $-1 -65.834528641621162 -14.091924924251586 0.050379506737201041 -0.48480960649040278 0 -0.87461971476443456 I I #
edge $-1 $598 -1.103067113719618 $327 14.091924924251586 $467 $605 forward 7 unknown #
point $-1 -65.834528641621148 -14.091924924251586 9.3491742202213715 #
point $-1 -60.680122755523001 -14.091924924251586 9.3491742202213715 #
edge $-1 $606 1 $606 0 $330 $-1 forward 7 unknown #
vertex $-1 $331 $607 #
ellipse-curve $-1 -60.2132796726655 -11.052926516657344 3.0124346608673553 -0.87461971476443456 0 0.48480960649040278 0.48480960649040278 0 0.87461971476443456 1 I I #
point $-1 -62.772516092081659 -11.052926516657344 5.574396578243717 #
edge $-1 $608 1 $608 0 $334 $-1 forward 7 unknown #
vertex $-1 $335 $609 #
ellipse-curve $-1 -60.2132796726655 -6.494428905265984 3.0124346608673553 -0.87461971476443456 0 0.48480960649040278 0.48480960649040278 0 0.87461971476443456 1 I I #
point $-1 -62.772516092081659 -6.494428905265984 5.574396578243717 #
edge $-1 $610 1 $610 0 $338 $-1 forward 7 unknown #
vertex $-1 $339 $611 #
ellipse-curve $-1 -60.2132796726655 -1.9359312938746243 3.0124346608673553 -0.87461971476443456 0 0.48480960649040278 0.48480960649040278 0 0.87461971476443456 1 I I #
point $-1 -62.772516092081659 -1.9359312938746243 5.574396578243717 #
loop $-1 $-1 $350 $342 #
plane-surface $-1 -65.834528641621148 0 0 1 0 0 0 0 -1 forward_v I I I I #
coedge $-1 $490 $345 $347 $494 reversed $222 $-1 #
coedge $-1 $345 $489 $612 $613 reversed $222 $-1 #
coedge $-1 $353 $348 $345 $492 forward $343 $-1 #
edge $-1 $495 -29.817318227473265 $614 -24.662912341375119 $491 $615 forward 7 unknown #
coedge $-1 $347 $346 $498 $616 reversed $140 $-1 #
edge $-1 $617 2.9314120021293539e-014 $495 10.631814669291622 $489 $618 forward 7 unknown #
vertex $-1 $349 $619 #
straight-curve $-1 -60.680122755522994 13.17041959079403 9.3491742202213715 0 1 0 I I #
coedge $-1 $612 $350 $353 $502 reversed $487 $-1 #
coedge $-1 $350 $612 $493 $616 forward $487 $-1 #
vertex $-1 $351 $620 #
straight-curve $-1 -65.834528641621148 18.743343162602457 31.942401677594098 0 0 1 I I #
straight-curve $-1 -65.834528641621162 18.743343162602457 0.050379506737201041 -0.48480960649040278 0 -0.87461971476443456 I I #
edge $-1 $614 -33.938335200573661 $354 -18.743343162602457 $497 $621 forward 7 unknown #
point $-1 -65.834528641621148 18.743343162602457 9.3491742202213715 #
point $-1 -60.680122755523001 18.743343162602457 9.3491742202213715 #
edge $-1 $622 1 $622 0 $357 $-1 forward 7 unknown #
vertex $-1 $358 $623 #
ellipse-curve $-1 -60.2132796726655 21.782341570196699 3.0124346608673553 -0.87461971476443456 0 0.48480960649040278 0.48480960649040278 0 0.87461971476443456 1 I I #
point $-1 -62.772516092081659 21.782341570196699 5.574396578243717 #
edge $-1 $624 1 $624 0 $361 $-1 forward 7 unknown #
vertex $-1 $362 $625 #
ellipse-curve $-1 -60.2132796726655 26.340839181588059 3.0124346608673553 -0.87461971476443456 0 0.48480960649040278 0.48480960649040278 0 0.87461971476443456 1 I I #
point $-1 -62.772516092081659 26.340839181588059 5.574396578243717 #
edge $-1 $626 1 $626 0 $365 $-1 forward 7 unknown #
vertex $-1 $366 $627 #
ellipse-curve $-1 -60.2132796726655 30.899336792979426 3.0124346608673553 -0.87461971476443456 0 0.48480960649040278 0.48480960649040278 0 0.87461971476443456 1 I I #
point $-1 -62.772516092081659 30.899336792979426 5.574396578243717 #
plane-surface $-1 0 0 9.3491742202213715 0 0 1 1 0 0 forward_v I I I I #
coedge $-1 $528 $527 $520 $628 forward $370 $-1 #
coedge $-1 $520 $372 $374 $524 reversed $251 $-1 #
coedge $-1 $372 $519 $518 $628 reversed $251 $-1 #
coedge $-1 $380 $375 $372 $522 forward $381 $-1 #
edge $-1 $525 46.020594606252494 $629 53.861125269299428 $521 $630 forward 7 unknown #
coedge $-1 $374 $373 $528 $631 reversed $159 $-1 #
edge $-1 $632 -131.66905728324232 $525 -122.42367280681347 $519 $633 forward 7 unknown #
vertex $-1 $376 $634 #
straight-curve $-1 57.993997978574228 -4.2461148927721197 9.3491742202213644 0 -1 0 I I #
coedge $-1 $518 $377 $380 $532 reversed $370 $-1 #
coedge $-1 $377 $518 $523 $631 forward $370 $-1 #
vertex $-1 $378 $635 #
straight-curve $-1 65.834528641621148 -1.5579125873197643 92.942765235706446 0 0 1 I I #
straight-curve $-1 -45.827164134459551 -1.5579125873197643 74.223837695332207 0.84804809178421925 0 -0.52991927123019833 I I #
edge $-1 $629 -15.426546983768715 $382 -1.5579125873197643 $527 $636 forward 7 unknown #
point $-1 65.834528641621148 -1.5579125873197643 9.3491742202213715 #
point $-1 57.993997978574214 -1.5579125873197643 9.3491742202213715 #
edge $-1 $637 1 $637 0 $385 $-1 forward 7 unknown #
vertex $-1 $386 $638 #
ellipse-curve $-1 60.815805204671605 -8.4922297855442395 5.1416201156810413 0.52991927123019833 0 0.84804809178421925 1.6960961835684385 0 -1.0598385424603967 1 I I #
point $-1 63.610359493666159 -8.4922297855442395 5.8396819757649041 #
plane-surface $-1 0 0 9.3491742202213715 0 0 1 1 0 0 forward_v I I I I #
coedge $-1 $550 $549 $542 $639 forward $390 $-1 #
coedge $-1 $542 $392 $394 $546 reversed $266 $-1 #
coedge $-1 $392 $541 $540 $639 reversed $266 $-1 #
coedge $-1 $400 $395 $392 $544 forward $401 $-1 #
edge $-1 $547 46.020594606252494 $640 53.861125269299428 $543 $641 forward 7 unknown #
coedge $-1 $394 $393 $550 $642 reversed $168 $-1 #
edge $-1 $643 -131.66905728324232 $547 -122.42367280681347 $541 $644 forward 7 unknown #
vertex $-1 $396 $645 #
straight-curve $-1 57.993997978574228 8.001077886265616 9.3491742202213644 0 -1 0 I I #
coedge $-1 $540 $397 $400 $554 reversed $390 $-1 #
coedge $-1 $397 $540 $545 $642 forward $390 $-1 #
vertex $-1 $398 $646 #
straight-curve $-1 65.834528641621148 22.936472970755709 92.942765235706446 0 0 1 I I #
straight-curve $-1 -45.827164134459551 22.936472970755709 74.223837695332207 0.84804809178421925 0 -0.52991927123019833 I I #
edge $-1 $640 9.0678385743067569 $402 22.936472970755709 $549 $647 forward 7 unknown #
point $-1 65.834528641621148 22.936472970755709 9.3491742202213715 #
point $-1 57.993997978574214 22.936472970755709 9.3491742202213715 #
edge $-1 $648 1 $648 0 $405 $-1 forward 7 unknown #
vertex $-1 $406 $649 #
ellipse-curve $-1 60.815805204671605 16.002155772531232 5.1416201156810413 0.52991927123019833 0 0.84804809178421925 1.6960961835684385 0 -1.0598385424603967 1 I I #
point $-1 63.610359493666159 16.002155772531232 5.8396819757649041 #
plane-surface $-1 65.834528641621148 0 0 -1 0 0 0 0 1 forward_v I I I I #
coedge $-1 $414 $412 $416 $566 reversed $281 $-1 #
edge $-1 $427 -9.3491742202213715 $568 9.3491742202213715 $426 $650 forward 7 unknown #
vertex $-1 $566 $651 #
straight-curve $-1 -65.834528641621148 -36.590231080347536 0 0 0 -1 I I #
edge $-1 $564 -36.590231080347536 $568 36.590231080347536 $562 $652 forward 7 unknown #
straight-curve $-1 0 -36.590231080347536 -9.3491742202213715 -1 0 0 I I #
vertex $-1 $419 $653 #
straight-curve $-1 0 36.590231080347536 -9.3491742202213715 1 0 0 I I #
point $-1 65.834528641621148 36.590231080347536 -9.3491742202213715 #
point $-1 65.834528641621148 -36.590231080347536 -9.3491742202213715 #
straight-curve $-1 -65.834528641621148 0 9.3491742202213715 0 -1 0 I I #
point $-1 -65.834528641621148 36.590231080347536 9.3491742202213715 #
point $-1 -65.834528641621148 -36.590231080347536 9.3491742202213715 #
straight-curve $-1 65.834528641621148 -36.590231080347536 0 0 0 -1 I I #
straight-curve $-1 65.834528641621148 36.590231080347536 0 0 0 -1 I I #
loop $-1 $-1 $585 $436 #
plane-surface $-1 -65.834528641621148 0 0 1 0 0 0 0 -1 forward_v I I I I #
coedge $-1 $440 $439 $591 $654 forward $185 $-1 #
edge $-1 $444 29.08030509336055 $594 36.590231080347536 $443 $655 forward 7 unknown #
coedge $-1 $588 $585 $440 $582 reversed $577 $-1 #
edge $-1 $656 -36.590231080347536 $583 -29.08030509336055 $581 $657 forward 7 unknown #
vertex $-1 $586 $658 #
straight-curve $-1 0 -29.08030509336055 -9.3491742202213715 1 0 0 I I #
coedge $-1 $581 $446 $442 $586 forward $577 $-1 #
edge $-1 $448 1.6581110142730031 $583 5.6800791420565799 $585 $659 forward 7 unknown #
point $-1 65.834528641621148 -29.08030509336055 -9.3491742202213715 #
coedge $-1 $446 $581 $450 $592 reversed $577 $-1 #
straight-curve $-1 -65.834528641621148 -16.417634043427022 -5.3272060924377946 0 1 0 I I #
point $-1 -65.834528641621148 -29.08030509336055 -5.3272060924377946 #
coedge $-1 $451 $450 $579 $654 reversed $437 $-1 #
edge $-1 $452 5.3272060924377946 $656 9.3491742202213715 $588 $660 forward 7 unknown #
point $-1 -65.834528641621148 -36.590231080347536 -5.3272060924377946 #
vertex $-1 $454 $661 #
straight-curve $-1 65.834528641621148 -36.590231080347536 0 0 0 -1 I I #
coedge $-1 $468 $467 $460 $597 forward $457 $-1 #
edge $-1 $598 22.593227457372727 $601 31.892022170856873 $596 $662 forward 7 unknown #
vertex $-1 $472 $663 #
straight-curve $-1 -90.497440982996267 1.103067113719618 9.3491742202213715 -1 0 0 I I #
edge $-1 $601 -4.35028156635261 $469 10.844710471618594 $468 $664 forward 7 unknown #
vertex $-1 $600 $665 #
straight-curve $-1 -65.834528641621162 1.103067113719618 0.050379506737201041 0.48480960649040278 0 0.87461971476443456 I I #
point $-1 -60.680122755523001 1.103067113719618 9.3491742202213715 #
point $-1 -65.834528641621148 -14.091924924251586 0.05037950673722668 #
straight-curve $-1 -65.834528641621148 0 9.3491742202213715 0 -1 0 I I #
vertex $-1 $475 $666 #
point $-1 -59.728470066175099 -11.052926516657344 3.8870543756317897 #
vertex $-1 $479 $667 #
point $-1 -59.728470066175099 -6.494428905265984 3.8870543756317897 #
vertex $-1 $483 $668 #
point $-1 -59.728470066175099 -1.9359312938746243 3.8870543756317897 #
coedge $-1 $498 $497 $490 $613 forward $487 $-1 #
edge $-1 $614 22.593227457372727 $617 31.892022170856873 $612 $669 forward 7 unknown #
vertex $-1 $502 $670 #
straight-curve $-1 -90.497440982996267 33.938335200573661 9.3491742202213715 -1 0 0 I I #
edge $-1 $617 -20.767915609779632 $499 -5.5729235718084276 $498 $671 forward 7 unknown #
vertex $-1 $616 $672 #
straight-curve $-1 -65.834528641621162 33.938335200573661 0.050379506737201041 0.48480960649040278 0 0.87461971476443456 I I #
point $-1 -60.680122755523001 33.938335200573661 9.3491742202213715 #
point $-1 -65.834528641621148 18.743343162602457 0.05037950673722668 #
straight-curve $-1 -65.834528641621148 0 9.3491742202213715 0 -1 0 I I #
vertex $-1 $505 $673 #
point $-1 -59.728470066175099 21.782341570196699 3.8870543756317897 #
vertex $-1 $509 $674 #
point $-1 -59.728470066175099 26.340839181588059 3.8870543756317897 #
vertex $-1 $513 $675 #
point $-1 -59.728470066175099 30.899336792979426 3.8870543756317897 #
edge $-1 $629 83.593591015485075 $632 88.492898419477243 $518 $676 forward 7 unknown #
vertex $-1 $532 $677 #
straight-curve $-1 11.973403372321719 -15.426546983768715 9.3491742202213715 1 0 0 I I #
edge $-1 $632 -11.180432090996595 $529 2.6882023054523554 $528 $678 forward 7 unknown #
vertex $-1 $631 $679 #
straight-curve $-1 -45.827164134459551 -15.426546983768715 74.223837695332207 -0.84804809178421925 0 0.52991927123019833 I I #
point $-1 57.993997978574214 -15.426546983768715 9.3491742202213715 #
point $-1 65.834528641621162 -1.5579125873197643 4.4498668162292034 #
straight-curve $-1 65.834528641621148 0 9.3491742202213715 0 1 0 I I #
vertex $-1 $535 $680 #
point $-1 62.511901388240041 -8.4922297855442395 4.0817815732206437 #
edge $-1 $640 83.593591015485075 $643 88.492898419477243 $540 $681 forward 7 unknown #
vertex $-1 $554 $682 #
straight-curve $-1 11.973403372321719 9.0678385743067569 9.3491742202213715 1 0 0 I I #
edge $-1 $643 1.0667606880411409 $551 14.935395084490093 $550 $683 forward 7 unknown #
vertex $-1 $642 $684 #
straight-curve $-1 -45.827164134459551 9.0678385743067569 74.223837695332207 -0.84804809178421925 0 0.52991927123019833 I I #
point $-1 57.993997978574214 9.0678385743067569 9.3491742202213715 #
point $-1 65.834528641621162 22.936472970755709 4.4498668162292034 #
straight-curve $-1 65.834528641621148 0 9.3491742202213715 0 1 0 I I #
vertex $-1 $557 $685 #
point $-1 62.511901388240041 16.002155772531232 4.0817815732206437 #
straight-curve $-1 -65.834528641621148 36.590231080347536 0 0 0 -1 I I #
point $-1 -65.834528641621148 -36.590231080347536 -9.3491742202213715 #
straight-curve $-1 -65.834528641621148 0 -9.3491742202213715 0 1 0 I I #
point $-1 -65.834528641621148 36.590231080347536 -9.3491742202213715 #
edge $-1 $594 -65.834528641621148 $656 65.834528641621148 $591 $686 forward 7 unknown #
straight-curve $-1 65.834528641621148 0 -9.3491742202213715 0 -1 0 I I #
vertex $-1 $582 $687 #
straight-curve $-1 -65.834528641621148 0 -9.3491742202213715 0 1 0 I I #
point $-1 -65.834528641621148 -29.08030509336055 -9.3491742202213715 #
straight-curve $-1 -65.834528641621148 -29.08030509336055 -3.6690950781647915 0 0 -1 I I #
straight-curve $-1 -65.834528641621148 -36.590231080347536 0 0 0 -1 I I #
point $-1 65.834528641621148 -36.590231080347536 -9.3491742202213715 #
straight-curve $-1 -65.834528641621148 1.103067113719618 31.942401677594098 0 0 -1 I I #
point $-1 -65.834528641621148 1.103067113719618 9.3491742202213715 #
straight-curve $-1 -65.834528641621148 -3.247214452632992 0.050379506737203227 0 -1 0 I I #
point $-1 -65.834528641621148 1.103067113719618 0.05037950673722668 #
point $-1 -59.338659957901065 -11.052926516657344 2.5276250543769523 #
point $-1 -59.338659957901065 -6.494428905265984 2.5276250543769523 #
point $-1 -59.338659957901065 -1.9359312938746243 2.5276250543769523 #
straight-curve $-1 -65.834528641621148 33.938335200573661 31.942401677594098 0 0 -1 I I #
point $-1 -65.834528641621148 33.938335200573661 9.3491742202213715 #
straight-curve $-1 -65.834528641621148 13.17041959079403 0.050379506737203227 0 -1 0 I I #
point $-1 -65.834528641621148 33.938335200573661 0.05037950673722668 #
point $-1 -59.338659957901065 21.782341570196699 2.5276250543769523 #
point $-1 -59.338659957901065 26.340839181588059 2.5276250543769523 #
point $-1 -59.338659957901065 30.899336792979426 2.5276250543769523 #
straight-curve $-1 65.834528641621148 -15.426546983768715 92.942765235706446 0 0 -1 I I #
point $-1 65.834528641621148 -15.426546983768715 9.3491742202213715 #
straight-curve $-1 65.834528641621148 -4.2461148927721197 4.4498668162291963 0 1 0 I I #
point $-1 65.834528641621162 -15.426546983768715 4.4498668162292034 #
point $-1 59.755966662211208 -8.4922297855442395 3.4455239321126023 #
straight-curve $-1 65.834528641621148 9.0678385743067569 92.942765235706446 0 0 -1 I I #
point $-1 65.834528641621148 9.0678385743067569 9.3491742202213715 #
straight-curve $-1 65.834528641621148 8.001077886265616 4.4498668162291963 0 1 0 I I #
point $-1 65.834528641621162 9.0678385743067569 4.4498668162292034 #
point $-1 59.755966662211208 16.002155772531232 3.4455239321126023 #
straight-curve $-1 0 -36.590231080347536 -9.3491742202213715 -1 0 0 I I #
point $-1 -65.834528641621148 -36.590231080347536 -9.3491742202213715 #
End-of-ACIS-data 