500 0 13 0           
7 Unknown 11 ACIS 5.0 NT 24 Fri Mar 26 17:17:19 1999 
-1 9.9999999999999995e-007 1e-010 
body $-1 $13 $-1 $14 #
body $-1 $15 $-1 $16 #
body $-1 $17 $-1 $18 #
body $-1 $19 $-1 $20 #
body $-1 $21 $-1 $22 #
body $-1 $23 $-1 $24 #
body $-1 $25 $-1 $26 #
body $-1 $27 $-1 $28 #
body $-1 $29 $-1 $30 #
body $-1 $31 $-1 $32 #
body $-1 $33 $-1 $34 #
body $-1 $35 $-1 $36 #
body $-1 $37 $-1 $38 #
lump $-1 $-1 $39 $0 #
transform $-1 1 0 0 0 1 0 0 0 1 62.359080782494587 38.870944089555103 17.014386507731956 1 rotate no_reflect no_shear #
lump $-1 $-1 $40 $1 #
transform $-1 1 0 0 0 1 0 0 0 1 62.359080782494587 38.870944089555103 17.014386507731956 1 rotate no_reflect no_shear #
lump $-1 $-1 $41 $2 #
transform $-1 1 0 0 0 1 0 0 0 1 62.359080782494587 38.870944089555103 17.014386507731956 1 rotate no_reflect no_shear #
lump $-1 $-1 $42 $3 #
transform $-1 1 0 0 0 1 0 0 0 1 62.359080782494587 38.870944089555103 17.014386507731956 1 rotate no_reflect no_shear #
lump $-1 $-1 $43 $4 #
transform $-1 1 0 0 0 1 0 0 0 1 62.359080782494587 38.870944089555103 17.014386507731956 1 rotate no_reflect no_shear #
lump $-1 $-1 $44 $5 #
transform $-1 1 0 0 0 1 0 0 0 1 62.359080782494587 38.870944089555103 17.014386507731956 1 rotate no_reflect no_shear #
lump $-1 $-1 $45 $6 #
transform $-1 1 0 0 0 1 0 0 0 1 62.359080782494587 38.870944089555103 17.014386507731956 1 rotate no_reflect no_shear #
lump $-1 $-1 $46 $7 #
transform $-1 1 0 0 0 1 0 0 0 1 62.359080782494587 38.870944089555103 17.014386507731956 1 rotate no_reflect no_shear #
lump $-1 $-1 $47 $8 #
transform $-1 1 0 0 0 1 0 0 0 1 62.359080782494587 38.870944089555103 17.014386507731956 1 rotate no_reflect no_shear #
lump $-1 $-1 $48 $9 #
transform $-1 1 0 0 0 1 0 0 0 1 62.359080782494587 38.870944089555103 17.014386507731956 1 rotate no_reflect no_shear #
lump $-1 $-1 $49 $10 #
transform $-1 1 0 0 0 1 0 0 0 1 62.359080782494587 38.870944089555103 17.014386507731956 1 rotate no_reflect no_shear #
lump $-1 $-1 $50 $11 #
transform $-1 1 0 0 0 1 0 0 0 1 62.359080782494587 38.870944089555103 17.014386507731956 1 rotate no_reflect no_shear #
lump $-1 $-1 $51 $12 #
transform $-1 1 0 0 0 1 0 0 0 1 62.359080782494587 38.870944089555103 17.014386507731956 1 rotate no_reflect no_shear #
shell $-1 $-1 $-1 $52 $-1 $13 #
shell $-1 $-1 $-1 $53 $-1 $15 #
shell $-1 $-1 $-1 $54 $-1 $17 #
shell $-1 $-1 $-1 $55 $-1 $19 #
shell $-1 $-1 $-1 $56 $-1 $21 #
shell $-1 $-1 $-1 $57 $-1 $23 #
shell $-1 $-1 $-1 $58 $-1 $25 #
shell $-1 $-1 $-1 $59 $-1 $27 #
shell $-1 $-1 $-1 $60 $-1 $29 #
shell $-1 $-1 $-1 $61 $-1 $31 #
shell $-1 $-1 $-1 $62 $-1 $33 #
shell $-1 $-1 $-1 $63 $-1 $35 #
shell $-1 $-1 $-1 $64 $-1 $37 #
face $-1 $65 $66 $39 $-1 $67 forward single #
face $-1 $68 $69 $40 $-1 $70 reversed single #
face $-1 $71 $72 $41 $-1 $73 forward single #
face $-1 $74 $75 $42 $-1 $76 forward single #
face $-1 $77 $78 $43 $-1 $79 reversed single #
face $-1 $80 $81 $44 $-1 $82 forward single #
face $-1 $83 $84 $45 $-1 $85 forward single #
face $-1 $86 $87 $46 $-1 $88 reversed single #
face $-1 $89 $90 $47 $-1 $91 forward single #
face $-1 $92 $93 $48 $-1 $94 forward single #
face $-1 $95 $96 $49 $-1 $97 reversed single #
face $-1 $98 $99 $50 $-1 $100 forward single #
face $-1 $101 $102 $51 $-1 $103 forward single #
face $-1 $104 $105 $39 $-1 $106 reversed single #
loop $-1 $-1 $107 $52 #
plane-surface $-1 0 0 17.014386507731956 0 0 1 1 0 0 forward_v I I I I #
face $-1 $108 $109 $40 $-1 $110 reversed single #
loop $-1 $-1 $111 $53 #
plane-surface $-1 -164.52221880285629 -22.75374362311257 81.262537086804045 0 -1 0 0.81915205242281985 0 -0.57357642473473569 forward_v I I I I #
face $-1 $112 $113 $41 $-1 $114 forward single #
loop $-1 $115 $116 $54 #
cone-surface $-1 -57.538776911310961 -34.26602967057152 11.781984328254085 0.81915205242281985 0 -0.57357642473473569 1.1471528494694714 0 1.6383041048456397 1 I I 0 1 2 forward I I I I #
face $-1 $117 $118 $42 $-1 $119 forward single #
loop $-1 $120 $121 $55 #
cone-surface $-1 -57.538776911310961 -27.358658042096149 11.781984328254085 0.81915205242281985 0 -0.57357642473473569 1.1471528494694714 0 1.6383041048456397 1 I I 0 1 2 forward I I I I #
face $-1 $122 $123 $43 $-1 $124 reversed single #
loop $-1 $-1 $125 $56 #
plane-surface $-1 -164.52221880285629 16.117200466442529 81.262537086804045 0 -1 0 0.81915205242281985 0 -0.57357642473473569 forward_v I I I I #
face $-1 $126 $127 $44 $-1 $128 forward single #
loop $-1 $129 $130 $57 #
cone-surface $-1 -57.538776911310961 4.6049144189835829 11.781984328254085 0.81915205242281985 0 -0.57357642473473569 1.1471528494694714 0 1.6383041048456397 1 I I 0 1 2 forward I I I I #
face $-1 $131 $132 $45 $-1 $133 forward single #
loop $-1 $134 $135 $58 #
cone-surface $-1 -57.538776911310961 11.51228604745895 11.781984328254085 0.81915205242281985 0 -0.57357642473473569 1.1471528494694714 0 1.6383041048456397 1 I I 0 1 2 forward I I I I #
face $-1 $136 $137 $46 $-1 $138 reversed single #
loop $-1 $-1 $139 $59 #
plane-surface $-1 -9.1763164274410371 -30.812343856333836 111.89027789723015 0.81915205242281985 0 0.57357642473473569 0.57357642473473569 0 -0.81915205242281985 forward_v I I I I #
face $-1 $140 $141 $47 $-1 $142 forward single #
loop $-1 $143 $144 $60 #
cone-surface $-1 57.538776911310954 -34.26602967057152 11.781984328254095 -0.81915205242281985 0 -0.57357642473473569 1.1471528494694714 0 -1.6383041048456397 1 I I 0 1 2 forward I I I I #
face $-1 $145 $146 $48 $-1 $147 forward single #
loop $-1 $148 $149 $61 #
cone-surface $-1 57.538776911310954 -27.358658042096149 11.781984328254095 -0.81915205242281985 0 -0.57357642473473569 1.1471528494694714 0 -1.6383041048456397 1 I I 0 1 2 forward I I I I #
face $-1 $150 $151 $49 $-1 $152 reversed single #
loop $-1 $-1 $153 $62 #
plane-surface $-1 92.986821592920691 -3.5527136788005009e-015 183.42567510716577 0 1 0 0.81915205242281985 0 0.57357642473473569 forward_v I I I I #
face $-1 $154 $155 $50 $-1 $156 forward single #
loop $-1 $157 $158 $63 #
cone-surface $-1 57.538776911310954 4.6049144189835829 11.781984328254095 -0.81915205242281985 0 -0.57357642473473569 1.1471528494694714 0 -1.6383041048456397 1 I I 0 1 2 forward I I I I #
face $-1 $159 $160 $51 $-1 $161 forward single #
loop $-1 $162 $163 $64 #
cone-surface $-1 57.538776911310954 11.51228604745895 11.781984328254095 -0.81915205242281985 0 -0.57357642473473569 1.1471528494694714 0 -1.6383041048456397 1 I I 0 1 2 forward I I I I #
face $-1 $164 $165 $39 $-1 $166 reversed single #
loop $-1 $-1 $167 $65 #
plane-surface $-1 0 0 -17.014386507731956 0 0 1 1 0 0 forward_v I I I I #
coedge $-1 $168 $169 $170 $171 forward $66 $-1 #
face $-1 $172 $173 $40 $-1 $174 forward single #
loop $-1 $-1 $175 $68 #
plane-surface $-1 -62.359080782494559 -30.812343856333836 9.7271398768684207 -0.81915205242281985 0 0.57357642473473569 0.57357642473473569 0 0.81915205242281985 forward_v I I I I #
coedge $-1 $176 $177 $178 $179 reversed $69 $-1 #
face $-1 $-1 $180 $41 $-1 $181 forward single #
loop $-1 $182 $183 $71 #
cone-surface $-1 -54.450613422563414 -34.26602967057152 9.6196290394732422 0.81915205242281985 0 -0.57357642473473569 0.57357642473473569 0 0.81915205242281985 1 I I -0.70710678118654746 0.70710678118654746 1 forward I I I I #
loop $-1 $-1 $184 $54 #
coedge $-1 $116 $116 $185 $186 reversed $72 $-1 #
face $-1 $-1 $187 $42 $-1 $188 forward single #
loop $-1 $189 $190 $74 #
cone-surface $-1 -54.450613422563414 -27.358658042096149 9.6196290394732422 0.81915205242281985 0 -0.57357642473473569 0.57357642473473569 0 0.81915205242281985 1 I I -0.70710678118654746 0.70710678118654746 1 forward I I I I #
loop $-1 $-1 $191 $55 #
coedge $-1 $121 $121 $192 $193 reversed $75 $-1 #
face $-1 $194 $195 $43 $-1 $196 reversed single #
loop $-1 $-1 $197 $77 #
plane-surface $-1 -62.359080782494559 8.058600233221263 9.7271398768684207 -0.81915205242281985 0 0.57357642473473569 0.57357642473473569 0 0.81915205242281985 forward_v I I I I #
coedge $-1 $198 $199 $200 $201 reversed $78 $-1 #
face $-1 $-1 $202 $44 $-1 $203 forward single #
loop $-1 $204 $205 $80 #
cone-surface $-1 -54.450613422563414 4.6049144189835829 9.6196290394732422 0.81915205242281985 0 -0.57357642473473569 0.57357642473473569 0 0.81915205242281985 1 I I -0.70710678118654746 0.70710678118654746 1 forward I I I I #
loop $-1 $-1 $206 $57 #
coedge $-1 $130 $130 $207 $208 reversed $81 $-1 #
face $-1 $-1 $209 $45 $-1 $210 forward single #
loop $-1 $211 $212 $83 #
cone-surface $-1 -54.450613422563414 11.51228604745895 9.6196290394732422 0.81915205242281985 0 -0.57357642473473569 0.57357642473473569 0 0.81915205242281985 1 I I -0.70710678118654746 0.70710678118654746 1 forward I I I I #
loop $-1 $-1 $213 $58 #
coedge $-1 $135 $135 $214 $215 reversed $84 $-1 #
face $-1 $216 $217 $46 $-1 $218 forward single #
loop $-1 $-1 $219 $86 #
plane-surface $-1 92.986821592920691 -22.75374362311257 183.42567510716577 0 -1 0 -0.81915205242281985 0 -0.57357642473473569 forward_v I I I I #
coedge $-1 $220 $221 $222 $223 reversed $87 $-1 #
face $-1 $-1 $224 $47 $-1 $225 forward single #
loop $-1 $226 $227 $89 #
cone-surface $-1 54.450613422563407 -34.26602967057152 9.6196290394732529 -0.81915205242281985 0 -0.57357642473473569 0.57357642473473569 0 -0.81915205242281985 1 I I -0.70710678118654746 0.70710678118654746 1 forward I I I I #
loop $-1 $-1 $228 $60 #
coedge $-1 $144 $144 $229 $230 reversed $90 $-1 #
face $-1 $-1 $231 $48 $-1 $232 forward single #
loop $-1 $233 $234 $92 #
cone-surface $-1 54.450613422563407 -27.358658042096149 9.6196290394732529 -0.81915205242281985 0 -0.57357642473473569 0.57357642473473569 0 -0.81915205242281985 1 I I -0.70710678118654746 0.70710678118654746 1 forward I I I I #
loop $-1 $-1 $235 $61 #
coedge $-1 $149 $149 $236 $237 reversed $93 $-1 #
face $-1 $238 $239 $49 $-1 $240 reversed single #
loop $-1 $-1 $241 $95 #
plane-surface $-1 -9.1763164274410371 8.058600233221263 111.89027789723015 0.81915205242281985 0 0.57357642473473569 0.57357642473473569 0 -0.81915205242281985 forward_v I I I I #
coedge $-1 $242 $243 $244 $245 reversed $96 $-1 #
face $-1 $-1 $246 $50 $-1 $247 forward single #
loop $-1 $248 $249 $98 #
cone-surface $-1 54.450613422563407 4.6049144189835829 9.6196290394732529 -0.81915205242281985 0 -0.57357642473473569 0.57357642473473569 0 -0.81915205242281985 1 I I -0.70710678118654746 0.70710678118654746 1 forward I I I I #
loop $-1 $-1 $250 $63 #
coedge $-1 $158 $158 $251 $252 reversed $99 $-1 #
face $-1 $-1 $253 $51 $-1 $254 forward single #
loop $-1 $255 $256 $101 #
cone-surface $-1 54.450613422563407 11.51228604745895 9.6196290394732529 -0.81915205242281985 0 -0.57357642473473569 0.57357642473473569 0 -0.81915205242281985 1 I I -0.70710678118654746 0.70710678118654746 1 forward I I I I #
loop $-1 $-1 $257 $64 #
coedge $-1 $163 $163 $258 $259 reversed $102 $-1 #
face $-1 $260 $261 $39 $-1 $262 reversed single #
loop $-1 $-1 $263 $104 #
plane-surface $-1 0 -38.870944089555103 0 0 1 0 0 0 1 forward_v I I I I #
coedge $-1 $264 $265 $266 $267 forward $105 $-1 #
coedge $-1 $268 $107 $269 $270 forward $66 $-1 #
coedge $-1 $107 $268 $271 $272 forward $66 $-1 #
coedge $-1 $273 $274 $107 $171 reversed $275 $-1 #
edge $-1 $276 -38.870944089555103 $277 38.870944089555103 $170 $278 forward 7 unknown #
face $-1 $279 $280 $40 $-1 $281 reversed single #
loop $-1 $-1 $282 $108 #
plane-surface $-1 0 0 17.014386507731956 0 0 1 1 0 0 forward_v I I I I #
coedge $-1 $283 $284 $285 $286 reversed $109 $-1 #
coedge $-1 $177 $111 $287 $288 reversed $69 $-1 #
coedge $-1 $111 $176 $283 $289 reversed $69 $-1 #
coedge $-1 $285 $290 $111 $179 forward $280 $-1 #
edge $-1 $291 23.616882035670066 $292 30.904128666533644 $178 $293 forward 7 unknown #
loop $-1 $-1 $185 $112 #
plane-surface $-1 -62.359080782494559 -30.812343856333836 9.7271398768684207 -0.81915205242281985 0 0.57357642473473569 0.57357642473473569 0 0.81915205242281985 forward_v I I I I #
loop $-1 $-1 $294 $71 #
coedge $-1 $183 $183 $184 $295 reversed $113 $-1 #
coedge $-1 $184 $184 $183 $295 forward $115 $-1 #
coedge $-1 $185 $185 $116 $186 forward $180 $-1 #
edge $-1 $296 0 $296 6.2831853071796004 $185 $297 forward 7 unknown #
loop $-1 $-1 $192 $117 #
plane-surface $-1 -62.359080782494559 -30.812343856333836 9.7271398768684207 -0.81915205242281985 0 0.57357642473473569 0.57357642473473569 0 0.81915205242281985 forward_v I I I I #
loop $-1 $-1 $298 $74 #
coedge $-1 $190 $190 $191 $299 reversed $118 $-1 #
coedge $-1 $191 $191 $190 $299 forward $120 $-1 #
coedge $-1 $192 $192 $121 $193 forward $187 $-1 #
edge $-1 $300 0 $300 6.2831853071796004 $192 $301 forward 7 unknown #
face $-1 $302 $303 $43 $-1 $304 forward single #
loop $-1 $-1 $305 $122 #
plane-surface $-1 -164.52221880285629 -3.5527136788005009e-015 81.262537086804045 0 1 0 -0.81915205242281985 0 0.57357642473473569 forward_v I I I I #
coedge $-1 $306 $307 $308 $309 reversed $123 $-1 #
coedge $-1 $199 $125 $310 $311 reversed $78 $-1 #
coedge $-1 $125 $198 $306 $312 reversed $78 $-1 #
coedge $-1 $308 $313 $125 $201 forward $314 $-1 #
edge $-1 $315 23.616882035670066 $316 30.904128666533644 $200 $317 forward 7 unknown #
loop $-1 $-1 $207 $126 #
plane-surface $-1 -62.359080782494559 8.058600233221263 9.7271398768684207 -0.81915205242281985 0 0.57357642473473569 0.57357642473473569 0 0.81915205242281985 forward_v I I I I #
loop $-1 $-1 $318 $80 #
coedge $-1 $205 $205 $206 $319 reversed $127 $-1 #
coedge $-1 $206 $206 $205 $319 forward $129 $-1 #
coedge $-1 $207 $207 $130 $208 forward $202 $-1 #
edge $-1 $320 0 $320 6.2831853071796004 $207 $321 forward 7 unknown #
loop $-1 $-1 $214 $131 #
plane-surface $-1 -62.359080782494559 8.058600233221263 9.7271398768684207 -0.81915205242281985 0 0.57357642473473569 0.57357642473473569 0 0.81915205242281985 forward_v I I I I #
loop $-1 $-1 $322 $83 #
coedge $-1 $212 $212 $213 $323 reversed $132 $-1 #
coedge $-1 $213 $213 $212 $323 forward $134 $-1 #
coedge $-1 $214 $214 $135 $215 forward $209 $-1 #
edge $-1 $324 0 $324 6.2831853071796004 $214 $325 forward 7 unknown #
face $-1 $326 $327 $46 $-1 $328 reversed single #
loop $-1 $-1 $329 $136 #
plane-surface $-1 0 0 17.014386507731956 0 0 1 1 0 0 forward_v I I I I #
coedge $-1 $330 $331 $332 $333 reversed $137 $-1 #
coedge $-1 $334 $139 $335 $336 reversed $87 $-1 #
coedge $-1 $139 $334 $330 $337 forward $87 $-1 #
coedge $-1 $332 $338 $139 $223 forward $339 $-1 #
edge $-1 $340 -23.464772161388183 $341 -7.3475716949456515 $222 $342 forward 7 unknown #
loop $-1 $-1 $229 $140 #
plane-surface $-1 -9.1763164274410371 -30.812343856333836 111.89027789723015 0.81915205242281985 0 0.57357642473473569 0.57357642473473569 0 -0.81915205242281985 forward_v I I I I #
loop $-1 $-1 $343 $89 #
coedge $-1 $227 $227 $228 $344 reversed $141 $-1 #
coedge $-1 $228 $228 $227 $344 forward $143 $-1 #
coedge $-1 $229 $229 $144 $230 forward $224 $-1 #
edge $-1 $345 0 $345 6.2831853071796004 $229 $346 forward 7 unknown #
loop $-1 $-1 $236 $145 #
plane-surface $-1 -9.1763164274410371 -30.812343856333836 111.89027789723015 0.81915205242281985 0 0.57357642473473569 0.57357642473473569 0 -0.81915205242281985 forward_v I I I I #
loop $-1 $-1 $347 $92 #
coedge $-1 $234 $234 $235 $348 reversed $146 $-1 #
coedge $-1 $235 $235 $234 $348 forward $148 $-1 #
coedge $-1 $236 $236 $149 $237 forward $231 $-1 #
edge $-1 $349 0 $349 6.2831853071796004 $236 $350 forward 7 unknown #
face $-1 $351 $352 $49 $-1 $353 reversed single #
loop $-1 $-1 $354 $150 #
plane-surface $-1 92.986821592920691 16.117200466442529 183.42567510716577 0 -1 0 -0.81915205242281985 0 -0.57357642473473569 forward_v I I I I #
coedge $-1 $355 $356 $357 $358 reversed $151 $-1 #
coedge $-1 $243 $153 $359 $360 reversed $96 $-1 #
coedge $-1 $153 $242 $355 $361 reversed $96 $-1 #
coedge $-1 $357 $362 $153 $245 forward $352 $-1 #
edge $-1 $363 74.698451045850931 $364 81.98569767671448 $244 $365 forward 7 unknown #
loop $-1 $-1 $251 $154 #
plane-surface $-1 -9.1763164274410371 8.058600233221263 111.89027789723015 0.81915205242281985 0 0.57357642473473569 0.57357642473473569 0 -0.81915205242281985 forward_v I I I I #
loop $-1 $-1 $366 $98 #
coedge $-1 $249 $249 $250 $367 reversed $155 $-1 #
coedge $-1 $250 $250 $249 $367 forward $157 $-1 #
coedge $-1 $251 $251 $158 $252 forward $246 $-1 #
edge $-1 $368 0 $368 6.2831853071796004 $251 $369 forward 7 unknown #
loop $-1 $-1 $258 $159 #
plane-surface $-1 -9.1763164274410371 8.058600233221263 111.89027789723015 0.81915205242281985 0 0.57357642473473569 0.57357642473473569 0 -0.81915205242281985 forward_v I I I I #
loop $-1 $-1 $370 $101 #
coedge $-1 $256 $256 $257 $371 reversed $160 $-1 #
coedge $-1 $257 $257 $256 $371 forward $162 $-1 #
coedge $-1 $258 $258 $163 $259 forward $253 $-1 #
edge $-1 $372 0 $372 6.2831853071796004 $258 $373 forward 7 unknown #
face $-1 $374 $375 $39 $-1 $376 reversed single #
loop $-1 $-1 $377 $164 #
plane-surface $-1 -62.359080782494587 0 0 1 0 0 0 0 -1 forward_v I I I I #
coedge $-1 $378 $271 $379 $380 forward $165 $-1 #
coedge $-1 $381 $167 $378 $382 forward $105 $-1 #
coedge $-1 $167 $381 $383 $384 forward $105 $-1 #
coedge $-1 $274 $273 $167 $267 reversed $275 $-1 #
edge $-1 $385 -38.870944089555103 $386 38.870944089555103 $266 $387 forward 7 unknown #
coedge $-1 $169 $168 $388 $389 forward $66 $-1 #
coedge $-1 $390 $391 $168 $270 reversed $375 $-1 #
edge $-1 $277 -62.359080782494587 $392 62.359080782494587 $269 $393 forward 7 unknown #
coedge $-1 $263 $394 $169 $272 reversed $165 $-1 #
edge $-1 $395 -62.359080782494587 $276 62.359080782494587 $271 $396 forward 7 unknown #
coedge $-1 $266 $170 $394 $397 forward $275 $-1 #
coedge $-1 $170 $266 $390 $398 reversed $275 $-1 #
loop $-1 $-1 $273 $374 #
vertex $-1 $171 $399 #
vertex $-1 $171 $400 #
straight-curve $-1 62.359080782494587 0 17.014386507731956 0 1 0 I I #
face $-1 $-1 $401 $40 $-1 $402 reversed single #
loop $-1 $-1 $178 $172 #
plane-surface $-1 -62.359080782494587 0 0 1 0 0 0 0 -1 forward_v I I I I #
coedge $-1 $287 $403 $404 $405 forward $173 $-1 #
coedge $-1 $404 $175 $177 $289 forward $109 $-1 #
coedge $-1 $175 $404 $406 $407 reversed $109 $-1 #
coedge $-1 $408 $178 $175 $286 forward $280 $-1 #
edge $-1 $292 7.3475716949456515 $409 23.464772161388183 $285 $410 forward 7 unknown #
coedge $-1 $411 $282 $176 $288 forward $173 $-1 #
edge $-1 $412 -25.004613488651373 $291 -19.902028618933556 $287 $413 forward 7 unknown #
edge $-1 $292 -4.9769468549031306e-014 $412 8.8960854206614286 $177 $414 forward 7 unknown #
coedge $-1 $178 $408 $411 $415 reversed $280 $-1 #
vertex $-1 $415 $416 #
vertex $-1 $179 $417 #
straight-curve $-1 -62.359080782494587 -22.75374362311257 40.631268543402022 0 0 -1 I I #
coedge $-1 $294 $294 $-1 $418 reversed $182 $-1 #
edge $-1 $419 0 $419 6.2831853071796004 $183 $420 forward 7 unknown #
vertex $-1 $186 $421 #
ellipse-curve $-1 -59.807788347635672 -34.26602967057152 13.37076319230018 -0.81915205242281985 0 0.57357642473473569 1.1471528494694714 0 1.6383041048456397 1 I I #
coedge $-1 $298 $298 $-1 $422 reversed $189 $-1 #
edge $-1 $423 0 $423 6.2831853071796004 $190 $424 forward 7 unknown #
vertex $-1 $193 $425 #
ellipse-curve $-1 -59.807788347635672 -27.358658042096149 13.37076319230018 -0.81915205242281985 0 0.57357642473473569 1.1471528494694714 0 1.6383041048456397 1 I I #
face $-1 $-1 $314 $43 $-1 $426 reversed single #
loop $-1 $-1 $427 $194 #
plane-surface $-1 0 0 17.014386507731956 0 0 1 1 0 0 forward_v I I I I #
coedge $-1 $428 $429 $430 $431 reversed $195 $-1 #
coedge $-1 $432 $197 $199 $312 forward $123 $-1 #
coedge $-1 $197 $432 $428 $433 forward $123 $-1 #
coedge $-1 $430 $200 $197 $309 forward $314 $-1 #
edge $-1 $316 -12.087900349831898 $434 4.029300116610635 $308 $435 forward 7 unknown #
coedge $-1 $436 $437 $198 $311 forward $303 $-1 #
edge $-1 $438 -25.004613488651373 $315 -19.902028618933556 $310 $439 forward 7 unknown #
edge $-1 $316 -4.9769468549031306e-014 $438 8.8960854206614286 $199 $440 forward 7 unknown #
coedge $-1 $200 $430 $436 $441 reversed $314 $-1 #
loop $-1 $-1 $430 $302 #
vertex $-1 $441 $442 #
vertex $-1 $201 $443 #
straight-curve $-1 -62.359080782494587 16.117200466442529 40.631268543402022 0 0 -1 I I #
coedge $-1 $318 $318 $-1 $444 reversed $204 $-1 #
edge $-1 $445 0 $445 6.2831853071796004 $205 $446 forward 7 unknown #
vertex $-1 $208 $447 #
ellipse-curve $-1 -59.807788347635672 4.6049144189835829 13.37076319230018 -0.81915205242281985 0 0.57357642473473569 1.1471528494694714 0 1.6383041048456397 1 I I #
coedge $-1 $322 $322 $-1 $448 reversed $211 $-1 #
edge $-1 $449 0 $449 6.2831853071796004 $212 $450 forward 7 unknown #
vertex $-1 $215 $451 #
ellipse-curve $-1 -59.807788347635672 11.51228604745895 13.37076319230018 -0.81915205242281985 0 0.57357642473473569 1.1471528494694714 0 1.6383041048456397 1 I I #
face $-1 $-1 $339 $46 $-1 $452 reversed single #
loop $-1 $-1 $335 $216 #
plane-surface $-1 0 -38.870944089555103 0 0 1 0 0 0 1 forward_v I I I I #
coedge $-1 $453 $454 $331 $455 forward $217 $-1 #
coedge $-1 $331 $219 $221 $337 reversed $137 $-1 #
coedge $-1 $219 $330 $329 $455 reversed $137 $-1 #
coedge $-1 $456 $222 $219 $333 forward $339 $-1 #
edge $-1 $341 -81.98569767671448 $457 -74.698451045850931 $332 $458 forward 7 unknown #
coedge $-1 $221 $220 $453 $459 reversed $87 $-1 #
coedge $-1 $460 $461 $220 $336 forward $327 $-1 #
edge $-1 $462 67.362841367146757 $340 76.258926787808178 $335 $463 forward 7 unknown #
edge $-1 $464 115.82207614432775 $341 124.7181615649892 $330 $465 forward 7 unknown #
coedge $-1 $222 $456 $460 $466 forward $339 $-1 #
loop $-1 $-1 $332 $326 #
vertex $-1 $336 $467 #
vertex $-1 $223 $468 #
straight-curve $-1 62.359080782494594 -15.406171928166918 9.7271398768684136 0 1 0 I I #
coedge $-1 $343 $343 $-1 $469 reversed $226 $-1 #
edge $-1 $470 0 $470 6.2831853071796004 $227 $471 forward 7 unknown #
vertex $-1 $230 $472 #
ellipse-curve $-1 59.807788347635686 -34.26602967057152 13.370763192300203 0.81915205242281985 0 0.57357642473473569 1.1471528494694714 0 -1.6383041048456397 1 I I #
coedge $-1 $347 $347 $-1 $473 reversed $233 $-1 #
edge $-1 $474 0 $474 6.2831853071796004 $234 $475 forward 7 unknown #
vertex $-1 $237 $476 #
ellipse-curve $-1 59.807788347635686 -27.358658042096149 13.370763192300203 0.81915205242281985 0 0.57357642473473569 1.1471528494694714 0 -1.6383041048456397 1 I I #
face $-1 $-1 $477 $49 $-1 $478 forward single #
loop $-1 $-1 $244 $238 #
plane-surface $-1 62.359080782494587 0 0 -1 0 0 0 0 1 forward_v I I I I #
coedge $-1 $479 $480 $481 $482 reversed $239 $-1 #
coedge $-1 $483 $241 $243 $361 forward $151 $-1 #
coedge $-1 $241 $483 $479 $484 forward $151 $-1 #
coedge $-1 $481 $244 $241 $358 forward $352 $-1 #
edge $-1 $364 -4.029300116610635 $485 12.087900349831898 $357 $486 forward 7 unknown #
coedge $-1 $487 $488 $242 $360 forward $477 $-1 #
edge $-1 $489 10.763085116316439 $363 15.865669986034241 $359 $490 forward 7 unknown #
edge $-1 $364 -124.7181615649892 $489 -115.82207614432775 $243 $491 forward 7 unknown #
coedge $-1 $244 $481 $487 $492 reversed $352 $-1 #
vertex $-1 $492 $493 #
vertex $-1 $245 $494 #
straight-curve $-1 62.359080782494587 -3.5527136788005009e-015 91.712837553582887 0 0 -1 I I #
coedge $-1 $366 $366 $-1 $495 reversed $248 $-1 #
edge $-1 $496 0 $496 6.2831853071796004 $249 $497 forward 7 unknown #
vertex $-1 $252 $498 #
ellipse-curve $-1 59.807788347635686 4.6049144189835829 13.370763192300203 0.81915205242281985 0 0.57357642473473569 1.1471528494694714 0 -1.6383041048456397 1 I I #
coedge $-1 $370 $370 $-1 $499 reversed $255 $-1 #
edge $-1 $500 0 $500 6.2831853071796004 $256 $501 forward 7 unknown #
vertex $-1 $259 $502 #
ellipse-curve $-1 59.807788347635686 11.51228604745895 13.370763192300203 0.81915205242281985 0 0.57357642473473569 1.1471528494694714 0 -1.6383041048456397 1 I I #
face $-1 $-1 $275 $39 $-1 $503 reversed single #
loop $-1 $-1 $390 $260 #
plane-surface $-1 0 38.870944089555103 0 0 -1 0 0 0 -1 forward_v I I I I #
coedge $-1 $504 $388 $391 $505 forward $261 $-1 #
coedge $-1 $394 $263 $264 $382 reversed $165 $-1 #
coedge $-1 $388 $504 $263 $380 reversed $261 $-1 #
edge $-1 $395 -17.014386507731956 $506 17.014386507731956 $379 $507 forward 7 unknown #
coedge $-1 $265 $264 $504 $508 forward $105 $-1 #
edge $-1 $386 -62.359080782494587 $506 62.359080782494587 $378 $509 forward 7 unknown #
coedge $-1 $391 $390 $265 $384 reversed $375 $-1 #
edge $-1 $510 -62.359080782494587 $385 62.359080782494587 $383 $511 forward 7 unknown #
vertex $-1 $267 $512 #
vertex $-1 $397 $513 #
straight-curve $-1 62.359080782494587 0 -17.014386507731956 0 -1 0 I I #
coedge $-1 $377 $379 $268 $389 reversed $261 $-1 #
edge $-1 $392 -38.870944089555103 $395 38.870944089555103 $388 $514 forward 7 unknown #
coedge $-1 $383 $269 $274 $398 forward $375 $-1 #
coedge $-1 $269 $383 $377 $505 reversed $375 $-1 #
vertex $-1 $270 $515 #
straight-curve $-1 0 38.870944089555103 17.014386507731956 -1 0 0 I I #
coedge $-1 $271 $378 $273 $397 reversed $165 $-1 #
vertex $-1 $389 $516 #
straight-curve $-1 0 -38.870944089555103 17.014386507731956 1 0 0 I I #
edge $-1 $276 -17.014386507731956 $386 17.014386507731956 $273 $517 forward 7 unknown #
edge $-1 $277 -17.014386507731956 $385 17.014386507731956 $274 $518 forward 7 unknown #
point $-1 62.359080782494587 -38.870944089555103 17.014386507731956 #
point $-1 62.359080782494587 38.870944089555103 17.014386507731956 #
loop $-1 $-1 $406 $279 #
plane-surface $-1 0 -38.870944089555103 0 0 1 0 0 0 1 forward_v I I I I #
coedge $-1 $282 $411 $519 $520 forward $173 $-1 #
coedge $-1 $284 $283 $282 $405 reversed $109 $-1 #
edge $-1 $521 -23.464772161388183 $412 -7.3475716949456515 $282 $522 forward 7 unknown #
coedge $-1 $519 $523 $284 $407 forward $401 $-1 #
edge $-1 $409 -13.899846005313634 $521 -5.0037605846521549 $406 $524 forward 7 unknown #
coedge $-1 $290 $285 $523 $525 reversed $280 $-1 #
vertex $-1 $286 $526 #
straight-curve $-1 -62.359080782494587 -15.406171928166918 9.7271398768683852 0 -1 0 I I #
coedge $-1 $403 $287 $290 $415 forward $173 $-1 #
vertex $-1 $288 $527 #
straight-curve $-1 -82.261109401428143 -22.75374362311257 17.014386507731956 -1 0 0 I I #
straight-curve $-1 -62.359080782494559 -22.75374362311257 9.7271398768684207 0.57357642473473569 0 0.81915205242281985 I I #
edge $-1 $291 22.75374362311257 $528 38.870944089555103 $290 $529 forward 7 unknown #
point $-1 -62.359080782494587 -22.75374362311257 17.014386507731956 #
point $-1 -62.359080782494587 -22.75374362311257 9.7271398768683799 #
edge $-1 $530 1 $530 0 $294 $-1 forward 7 unknown #
vertex $-1 $295 $531 #
ellipse-curve $-1 -55.269765474986237 -34.26602967057152 10.193205464207978 -0.81915205242281985 0 0.57357642473473569 1.1471528494694714 0 1.6383041048456397 1 I I #
point $-1 -58.660635498166222 -34.26602967057152 15.009067297145833 #
edge $-1 $532 1 $532 0 $298 $-1 forward 7 unknown #
vertex $-1 $299 $533 #
ellipse-curve $-1 -55.269765474986237 -27.358658042096149 10.193205464207978 -0.81915205242281985 0 0.57357642473473569 1.1471528494694714 0 1.6383041048456397 1 I I #
point $-1 -58.660635498166222 -27.358658042096149 15.009067297145833 #
plane-surface $-1 -62.359080782494587 0 0 1 0 0 0 0 -1 forward_v I I I I #
coedge $-1 $437 $436 $429 $534 forward $303 $-1 #
coedge $-1 $429 $305 $307 $433 reversed $195 $-1 #
coedge $-1 $305 $428 $427 $534 reversed $195 $-1 #
coedge $-1 $313 $308 $305 $431 forward $314 $-1 #
edge $-1 $434 -30.904128666533644 $535 -23.616882035670066 $430 $536 forward 7 unknown #
coedge $-1 $307 $306 $437 $537 reversed $123 $-1 #
edge $-1 $538 -8.8960854206614286 $434 4.9769468549031306e-014 $428 $539 forward 7 unknown #
vertex $-1 $309 $540 #
straight-curve $-1 -62.359080782494587 4.0293001166106315 9.7271398768683852 0 -1 0 I I #
coedge $-1 $427 $310 $313 $441 forward $303 $-1 #
coedge $-1 $310 $427 $432 $537 forward $303 $-1 #
vertex $-1 $311 $541 #
straight-curve $-1 -82.261109401428143 16.117200466442529 17.014386507731956 -1 0 0 I I #
straight-curve $-1 -62.359080782494559 16.117200466442529 9.7271398768684207 0.57357642473473569 0 0.81915205242281985 I I #
edge $-1 $315 -16.117200466442529 $535 3.5527136788005009e-015 $313 $542 forward 7 unknown #
point $-1 -62.359080782494587 16.117200466442529 17.014386507731956 #
point $-1 -62.359080782494587 16.117200466442529 9.7271398768683799 #
edge $-1 $543 1 $543 0 $318 $-1 forward 7 unknown #
vertex $-1 $319 $544 #
ellipse-curve $-1 -55.269765474986237 4.6049144189835829 10.193205464207978 -0.81915205242281985 0 0.57357642473473569 1.1471528494694714 0 1.6383041048456397 1 I I #
point $-1 -58.660635498166222 4.6049144189835829 15.009067297145833 #
edge $-1 $545 1 $545 0 $322 $-1 forward 7 unknown #
vertex $-1 $323 $546 #
ellipse-curve $-1 -55.269765474986237 11.51228604745895 10.193205464207978 -0.81915205242281985 0 0.57357642473473569 1.1471528494694714 0 1.6383041048456397 1 I I #
point $-1 -58.660635498166222 11.51228604745895 15.009067297145833 #
plane-surface $-1 62.359080782494587 0 0 -1 0 0 0 0 1 forward_v I I I I #
coedge $-1 $547 $329 $334 $459 forward $217 $-1 #
coedge $-1 $329 $547 $456 $548 forward $217 $-1 #
edge $-1 $457 -15.865669986034241 $464 -10.763085116316439 $329 $549 forward 7 unknown #
coedge $-1 $338 $332 $454 $548 reversed $339 $-1 #
vertex $-1 $455 $550 #
straight-curve $-1 62.359080782494587 -22.75374362311257 91.712837553582887 0 0 1 I I #
edge $-1 $464 7.3475716949456515 $462 23.464772161388183 $453 $551 forward 7 unknown #
coedge $-1 $461 $335 $338 $466 reversed $327 $-1 #
coedge $-1 $335 $460 $547 $552 reversed $327 $-1 #
vertex $-1 $552 $553 #
straight-curve $-1 18.618758201435611 -38.870944089555103 72.194796270663048 0.57357642473473569 0 -0.81915205242281985 I I #
vertex $-1 $459 $554 #
straight-curve $-1 -9.1763164274410371 -22.75374362311257 111.89027789723015 0.57357642473473569 0 -0.81915205242281985 I I #
edge $-1 $555 -17.014386507731956 $340 -9.7271398768684243 $338 $556 forward 7 unknown #
point $-1 62.359080782494587 -38.870944089555103 9.7271398768684243 #
point $-1 62.359080782494587 -22.75374362311257 9.7271398768684065 #
edge $-1 $557 1 $557 0 $343 $-1 forward 7 unknown #
vertex $-1 $344 $558 #
ellipse-curve $-1 55.269765474986229 -34.26602967057152 10.193205464207988 0.81915205242281985 0 0.57357642473473569 1.1471528494694714 0 -1.6383041048456397 1 I I #
point $-1 60.954941197105157 -34.26602967057152 11.732459087454565 #
edge $-1 $559 1 $559 0 $347 $-1 forward 7 unknown #
vertex $-1 $348 $560 #
ellipse-curve $-1 55.269765474986229 -27.358658042096149 10.193205464207988 0.81915205242281985 0 0.57357642473473569 1.1471528494694714 0 -1.6383041048456397 1 I I #
point $-1 60.954941197105157 -27.358658042096149 11.732459087454565 #
loop $-1 $-1 $359 $351 #
plane-surface $-1 0 0 17.014386507731956 0 0 1 1 0 0 forward_v I I I I #
coedge $-1 $480 $354 $356 $484 reversed $239 $-1 #
coedge $-1 $354 $479 $561 $562 reversed $239 $-1 #
coedge $-1 $362 $357 $354 $482 forward $352 $-1 #
edge $-1 $485 -81.98569767671448 $563 -74.698451045850931 $481 $564 forward 7 unknown #
coedge $-1 $356 $355 $488 $565 reversed $151 $-1 #
edge $-1 $566 115.82207614432775 $485 124.7181615649892 $479 $567 forward 7 unknown #
vertex $-1 $358 $568 #
straight-curve $-1 62.359080782494594 4.0293001166106315 9.7271398768684136 0 1 0 I I #
coedge $-1 $561 $359 $362 $492 forward $477 $-1 #
coedge $-1 $359 $561 $483 $565 forward $477 $-1 #
vertex $-1 $360 $569 #
straight-curve $-1 46.493410796460346 -3.5527136788005009e-015 17.014386507731956 1 0 0 I I #
straight-curve $-1 -9.1763164274410371 -3.5527136788005009e-015 111.89027789723015 -0.57357642473473569 0 0.81915205242281985 I I #
edge $-1 $363 -3.5527136788005009e-015 $563 16.117200466442529 $362 $570 forward 7 unknown #
point $-1 62.359080782494587 -3.5527136788005009e-015 17.014386507731956 #
point $-1 62.359080782494587 -3.5527136788005009e-015 9.7271398768684065 #
edge $-1 $571 1 $571 0 $366 $-1 forward 7 unknown #
vertex $-1 $367 $572 #
ellipse-curve $-1 55.269765474986229 4.6049144189835829 10.193205464207988 0.81915205242281985 0 0.57357642473473569 1.1471528494694714 0 -1.6383041048456397 1 I I #
point $-1 60.954941197105157 4.6049144189835829 11.732459087454565 #
edge $-1 $573 1 $573 0 $370 $-1 forward 7 unknown #
vertex $-1 $371 $574 #
ellipse-curve $-1 55.269765474986229 11.51228604745895 10.193205464207988 0.81915205242281985 0 0.57357642473473569 1.1471528494694714 0 -1.6383041048456397 1 I I #
point $-1 60.954941197105157 11.51228604745895 11.732459087454565 #
plane-surface $-1 62.359080782494587 0 0 -1 0 0 0 0 1 forward_v I I I I #
coedge $-1 $379 $377 $381 $508 reversed $261 $-1 #
edge $-1 $392 -17.014386507731956 $510 17.014386507731956 $391 $575 forward 7 unknown #
vertex $-1 $508 $576 #
straight-curve $-1 -62.359080782494587 -38.870944089555103 0 0 0 -1 I I #
edge $-1 $506 -38.870944089555103 $510 38.870944089555103 $504 $577 forward 7 unknown #
straight-curve $-1 0 -38.870944089555103 -17.014386507731956 -1 0 0 I I #
vertex $-1 $384 $578 #
straight-curve $-1 0 38.870944089555103 -17.014386507731956 1 0 0 I I #
point $-1 62.359080782494587 38.870944089555103 -17.014386507731956 #
point $-1 62.359080782494587 -38.870944089555103 -17.014386507731956 #
straight-curve $-1 -62.359080782494587 0 17.014386507731956 0 -1 0 I I #
point $-1 -62.359080782494587 38.870944089555103 17.014386507731956 #
point $-1 -62.359080782494587 -38.870944089555103 17.014386507731956 #
straight-curve $-1 62.359080782494587 -38.870944089555103 0 0 0 -1 I I #
straight-curve $-1 62.359080782494587 38.870944089555103 0 0 0 -1 I I #
coedge $-1 $523 $406 $403 $520 reversed $401 $-1 #
edge $-1 $528 -62.359080782494587 $521 -57.256495912776771 $519 $579 forward 7 unknown #
vertex $-1 $407 $580 #
straight-curve $-1 -57.256495912776778 -15.406171928166918 17.014386507731956 0 1 0 I I #
coedge $-1 $406 $519 $408 $525 forward $401 $-1 #
straight-curve $-1 -54.386456806403402 -38.870944089555103 21.11322726048218 0.57357642473473569 0 0.81915205242281985 I I #
edge $-1 $528 -17.014386507731956 $409 -9.7271398768683799 $408 $581 forward 7 unknown #
point $-1 -62.359080782494587 -38.870944089555103 9.7271398768683799 #
point $-1 -57.256495912776771 -22.75374362311257 17.014386507731956 #
vertex $-1 $415 $582 #
straight-curve $-1 -62.359080782494587 0 17.014386507731956 0 -1 0 I I #
vertex $-1 $418 $583 #
point $-1 -54.122612625516766 -34.26602967057152 11.831509569053617 #
vertex $-1 $422 $584 #
point $-1 -54.122612625516766 -27.358658042096149 11.831509569053617 #
edge $-1 $535 19.902028618933556 $538 25.004613488651373 $427 $585 forward 7 unknown #
vertex $-1 $431 $586 #
straight-curve $-1 -62.359080782494587 -3.5527136788005009e-015 40.631268543402022 0 0 1 I I #
edge $-1 $538 -4.029300116610635 $438 12.087900349831898 $437 $587 forward 7 unknown #
vertex $-1 $537 $588 #
straight-curve $-1 -62.359080782494559 -3.5527136788005009e-015 9.7271398768684207 -0.57357642473473569 0 -0.81915205242281985 I I #
point $-1 -62.359080782494587 -3.5527136788005009e-015 9.7271398768683799 #
point $-1 -57.256495912776771 16.117200466442529 17.014386507731956 #
straight-curve $-1 -62.359080782494587 0 17.014386507731956 0 -1 0 I I #
vertex $-1 $444 $589 #
point $-1 -54.122612625516766 4.6049144189835829 11.831509569053617 #
vertex $-1 $448 $590 #
point $-1 -54.122612625516766 11.51228604745895 11.831509569053617 #
coedge $-1 $454 $453 $461 $552 forward $217 $-1 #
edge $-1 $555 -38.870944089555103 $457 -22.75374362311257 $456 $591 forward 7 unknown #
straight-curve $-1 46.493410796460346 -22.75374362311257 17.014386507731956 -1 0 0 I I #
point $-1 62.359080782494587 -22.75374362311257 17.014386507731956 #
straight-curve $-1 57.256495912776792 -15.406171928166918 17.014386507731949 0 -1 0 I I #
edge $-1 $462 57.256495912776785 $555 62.359080782494587 $461 $592 forward 7 unknown #
point $-1 57.256495912776785 -38.870944089555103 17.014386507731956 #
point $-1 57.256495912776785 -22.75374362311257 17.014386507731956 #
vertex $-1 $548 $593 #
straight-curve $-1 62.359080782494587 -38.870944089555103 0 0 0 -1 I I #
vertex $-1 $469 $594 #
point $-1 56.4169183244557 -34.26602967057152 8.5549013593623489 #
vertex $-1 $473 $595 #
point $-1 56.4169183244557 -27.358658042096149 8.5549013593623489 #
coedge $-1 $488 $487 $480 $562 forward $477 $-1 #
edge $-1 $563 -15.865669986034241 $566 -10.763085116316439 $561 $596 forward 7 unknown #
vertex $-1 $562 $597 #
straight-curve $-1 62.359080782494587 16.117200466442529 91.712837553582887 0 0 1 I I #
edge $-1 $566 -12.087900349831898 $489 4.029300116610635 $488 $598 forward 7 unknown #
vertex $-1 $565 $599 #
straight-curve $-1 -9.1763164274410371 16.117200466442529 111.89027789723015 0.57357642473473569 0 -0.81915205242281985 I I #
point $-1 62.359080782494587 16.117200466442529 9.7271398768684065 #
point $-1 57.256495912776785 -3.5527136788005009e-015 17.014386507731956 #
straight-curve $-1 62.359080782494587 0 17.014386507731956 0 1 0 I I #
vertex $-1 $495 $600 #
point $-1 56.4169183244557 4.6049144189835829 8.5549013593623489 #
vertex $-1 $499 $601 #
point $-1 56.4169183244557 11.51228604745895 8.5549013593623489 #
straight-curve $-1 -62.359080782494587 38.870944089555103 0 0 0 -1 I I #
point $-1 -62.359080782494587 -38.870944089555103 -17.014386507731956 #
straight-curve $-1 -62.359080782494587 0 -17.014386507731956 0 1 0 I I #
point $-1 -62.359080782494587 38.870944089555103 -17.014386507731956 #
straight-curve $-1 0 -38.870944089555103 17.014386507731956 1 0 0 I I #
point $-1 -57.256495912776771 -38.870944089555103 17.014386507731956 #
straight-curve $-1 -62.359080782494587 -38.870944089555103 0 0 0 -1 I I #
point $-1 -62.359080782494587 -38.870944089555103 17.014386507731956 #
point $-1 -53.631461370140592 -34.26602967057152 9.0460526147385067 #
point $-1 -53.631461370140592 -27.358658042096149 9.0460526147385067 #
straight-curve $-1 -82.261109401428143 -3.5527136788005009e-015 17.014386507731956 1 0 0 I I #
point $-1 -62.359080782494587 -3.5527136788005009e-015 17.014386507731956 #
straight-curve $-1 -57.256495912776778 4.0293001166106315 17.014386507731956 0 1 0 I I #
point $-1 -57.256495912776771 -3.5527136788005009e-015 17.014386507731956 #
point $-1 -53.631461370140592 4.6049144189835829 9.0460526147385067 #
point $-1 -53.631461370140592 11.51228604745895 9.0460526147385067 #
straight-curve $-1 62.359080782494587 0 17.014386507731956 0 1 0 I I #
straight-curve $-1 0 -38.870944089555103 17.014386507731956 1 0 0 I I #
point $-1 62.359080782494587 -38.870944089555103 17.014386507731956 #
point $-1 53.631461370140585 -34.26602967057152 9.0460526147385174 #
point $-1 53.631461370140585 -27.358658042096149 9.0460526147385174 #
straight-curve $-1 46.493410796460346 16.117200466442529 17.014386507731956 -1 0 0 I I #
point $-1 62.359080782494587 16.117200466442529 17.014386507731956 #
straight-curve $-1 57.256495912776792 4.0293001166106315 17.014386507731949 0 -1 0 I I #
point $-1 57.256495912776785 16.117200466442529 17.014386507731956 #
point $-1 53.631461370140585 4.6049144189835829 9.0460526147385174 #
point $-1 53.631461370140585 11.51228604745895 9.0460526147385174 #
End-of-ACIS-data 