500 0 4 0           
7 Unknown 11 ACIS 5.0 NT 24 Fri Mar 26 15:35:53 1999 
-1 9.9999999999999995e-007 1e-010 
body $-1 $4 $-1 $5 #
body $-1 $6 $-1 $7 #
body $-1 $8 $-1 $9 #
body $-1 $10 $-1 $11 #
lump $-1 $-1 $12 $0 #
transform $-1 1 0 0 0 1 0 0 0 1 49.656056398205507 24.921075529125332 9.3636376074825112 1 rotate no_reflect no_shear #
lump $-1 $-1 $13 $1 #
transform $-1 1 0 0 0 1 0 0 0 1 49.656056398205507 24.921075529125332 9.3636376074825112 1 rotate no_reflect no_shear #
lump $-1 $-1 $14 $2 #
transform $-1 1 0 0 0 1 0 0 0 1 49.656056398205507 24.921075529125332 9.3636376074825112 1 rotate no_reflect no_shear #
lump $-1 $-1 $15 $3 #
transform $-1 1 0 0 0 1 0 0 0 1 49.656056398205507 24.921075529125332 9.3636376074825112 1 rotate no_reflect no_shear #
shell $-1 $-1 $-1 $16 $-1 $4 #
shell $-1 $-1 $-1 $17 $-1 $6 #
shell $-1 $-1 $-1 $18 $-1 $8 #
shell $-1 $-1 $-1 $19 $-1 $10 #
face $-1 $20 $21 $12 $-1 $22 forward single #
face $-1 $23 $24 $13 $-1 $25 reversed single #
face $-1 $26 $27 $14 $-1 $28 reversed single #
face $-1 $29 $30 $15 $-1 $31 forward single #
face $-1 $32 $33 $12 $-1 $34 reversed single #
loop $-1 $-1 $35 $16 #
plane-surface $-1 0 0 9.3636376074825112 0 0 1 1 0 0 forward_v I I I I #
face $-1 $36 $37 $13 $-1 $38 reversed single #
loop $-1 $-1 $39 $17 #
plane-surface $-1 -45.955449198656162 0 4.3614484884316855 0 0 1 1 0 0 forward_v I I I I #
face $-1 $40 $41 $14 $-1 $42 reversed single #
loop $-1 $-1 $43 $18 #
plane-surface $-1 39.858863207893535 2.3273837776853821 145.14768168480899 0 -1 0 -0.6560590369687036 0 -0.75470957328743171 forward_v I I I I #
face $-1 $44 $45 $15 $-1 $46 forward single #
loop $-1 $47 $48 $19 #
cone-surface $-1 46.541084896282172 -4.9343234784558021 6.4790860229391365 -0.6560590369687036 0 -0.75470957328743171 1.1320643599311475 0 -0.9840885554530554 1 I I 0 1 1.5 forward I I I I #
face $-1 $49 $50 $12 $-1 $51 reversed single #
loop $-1 $-1 $52 $20 #
plane-surface $-1 0 0 -9.3636376074825112 0 0 1 1 0 0 forward_v I I I I #
coedge $-1 $53 $54 $55 $56 forward $21 $-1 #
face $-1 $57 $58 $13 $-1 $59 reversed single #
loop $-1 $-1 $60 $23 #
plane-surface $-1 -42.254841999106816 0 6.8625430479570984 -1 0 0 0 0 1 forward_v I I I I #
coedge $-1 $61 $62 $63 $64 forward $24 $-1 #
face $-1 $65 $66 $14 $-1 $67 reversed single #
loop $-1 $-1 $68 $26 #
plane-surface $-1 -25.295745872647146 -4.9343234784558021 70.195879413956348 0.6560590369687036 0 0.75470957328743171 0.75470957328743171 0 -0.6560590369687036 forward_v I I I I #
coedge $-1 $69 $70 $71 $72 reversed $27 $-1 #
face $-1 $-1 $73 $15 $-1 $74 forward single #
loop $-1 $75 $76 $29 #
cone-surface $-1 45.42022644179859 -4.9343234784558021 5.1896858954636169 -0.6560590369687036 0 -0.75470957328743171 0.56603217996557376 0 -0.4920442777265277 1 I I -0.70710678118654757 0.70710678118654757 0.75 forward I I I I #
loop $-1 $-1 $77 $19 #
coedge $-1 $48 $48 $78 $79 reversed $30 $-1 #
face $-1 $80 $81 $12 $-1 $82 reversed single #
loop $-1 $-1 $83 $32 #
plane-surface $-1 0 -24.921075529125332 0 0 1 0 0 0 1 forward_v I I I I #
coedge $-1 $84 $85 $86 $87 forward $33 $-1 #
coedge $-1 $88 $35 $89 $90 forward $21 $-1 #
coedge $-1 $35 $88 $91 $92 forward $21 $-1 #
coedge $-1 $93 $94 $35 $56 reversed $95 $-1 #
edge $-1 $96 -24.921075529125332 $97 24.921075529125332 $55 $98 forward 7 unknown #
face $-1 $99 $100 $13 $-1 $101 reversed single #
loop $-1 $-1 $102 $36 #
plane-surface $-1 0 24.921075529125332 0 0 -1 0 0 0 -1 forward_v I I I I #
coedge $-1 $63 $103 $104 $105 reversed $37 $-1 #
coedge $-1 $106 $39 $107 $108 reversed $24 $-1 #
coedge $-1 $39 $106 $109 $110 reversed $24 $-1 #
coedge $-1 $111 $60 $39 $64 reversed $37 $-1 #
edge $-1 $112 -24.921075529125332 $113 24.921075529125332 $63 $114 forward 7 unknown #
face $-1 $115 $116 $14 $-1 $117 forward single #
loop $-1 $-1 $118 $40 #
plane-surface $-1 39.858863207893535 -12.196030734596986 145.14768168480899 0 1 0 0.6560590369687036 0 0.75470957328743171 forward_v I I I I #
coedge $-1 $119 $120 $121 $122 reversed $41 $-1 #
coedge $-1 $70 $43 $123 $124 reversed $27 $-1 #
coedge $-1 $43 $69 $119 $125 reversed $27 $-1 #
coedge $-1 $121 $126 $43 $72 forward $116 $-1 #
edge $-1 $127 -29.72662479425874 $128 -24.75431014392619 $71 $129 forward 7 unknown #
loop $-1 $-1 $78 $44 #
plane-surface $-1 -25.295745872647146 -4.9343234784558021 70.195879413956348 0.6560590369687036 0 0.75470957328743171 0.75470957328743171 0 -0.6560590369687036 forward_v I I I I #
loop $-1 $-1 $130 $29 #
coedge $-1 $76 $76 $77 $131 reversed $45 $-1 #
coedge $-1 $77 $77 $76 $131 forward $47 $-1 #
coedge $-1 $78 $78 $48 $79 forward $73 $-1 #
edge $-1 $132 0 $132 6.2831853071796004 $78 $133 forward 7 unknown #
face $-1 $134 $135 $12 $-1 $136 reversed single #
loop $-1 $-1 $137 $49 #
plane-surface $-1 -49.656056398205507 0 0 1 0 0 0 0 -1 forward_v I I I I #
coedge $-1 $138 $91 $139 $140 forward $50 $-1 #
coedge $-1 $141 $52 $138 $142 forward $33 $-1 #
coedge $-1 $52 $141 $143 $144 forward $33 $-1 #
coedge $-1 $94 $93 $52 $87 reversed $95 $-1 #
edge $-1 $145 -24.921075529125332 $146 24.921075529125332 $86 $147 forward 7 unknown #
coedge $-1 $54 $53 $148 $149 forward $21 $-1 #
coedge $-1 $150 $151 $53 $90 reversed $135 $-1 #
edge $-1 $97 -49.656056398205507 $152 49.656056398205507 $89 $153 forward 7 unknown #
coedge $-1 $83 $154 $54 $92 reversed $50 $-1 #
edge $-1 $155 -49.656056398205507 $96 49.656056398205507 $91 $156 forward 7 unknown #
coedge $-1 $86 $55 $154 $157 forward $95 $-1 #
coedge $-1 $55 $86 $150 $158 reversed $95 $-1 #
loop $-1 $-1 $93 $134 #
vertex $-1 $56 $159 #
vertex $-1 $56 $160 #
straight-curve $-1 49.656056398205507 0 9.3636376074825112 0 1 0 I I #
face $-1 $161 $162 $13 $-1 $163 forward single #
loop $-1 $-1 $164 $57 #
plane-surface $-1 -49.656056398205507 0 0 1 0 0 0 0 -1 forward_v I I I I #
coedge $-1 $109 $165 $111 $166 forward $58 $-1 #
coedge $-1 $60 $111 $167 $168 reversed $37 $-1 #
coedge $-1 $169 $107 $60 $105 forward $170 $-1 #
edge $-1 $113 0.93017696445313636 $171 5.932366083503962 $104 $172 forward 7 unknown #
coedge $-1 $62 $61 $164 $173 reversed $24 $-1 #
coedge $-1 $104 $174 $61 $108 forward $170 $-1 #
edge $-1 $175 -26.678331798877426 $113 -19.277117399778735 $107 $176 forward 7 unknown #
coedge $-1 $177 $102 $62 $110 forward $58 $-1 #
edge $-1 $112 19.277117399778735 $178 26.678331798877426 $109 $179 forward 7 unknown #
coedge $-1 $103 $63 $102 $166 reversed $37 $-1 #
vertex $-1 $110 $180 #
vertex $-1 $108 $181 #
straight-curve $-1 -42.254841999106816 0 4.3614484884316855 0 -1 0 I I #
face $-1 $-1 $182 $14 $-1 $183 reversed single #
loop $-1 $-1 $71 $65 #
plane-surface $-1 0 0 9.3636376074825112 0 0 1 1 0 0 forward_v I I I I #
coedge $-1 $184 $185 $186 $187 reversed $66 $-1 #
coedge $-1 $188 $68 $70 $125 forward $41 $-1 #
coedge $-1 $68 $188 $184 $189 forward $41 $-1 #
coedge $-1 $186 $71 $68 $122 forward $116 $-1 #
edge $-1 $128 -4.7945455169132831 $190 9.7288689953690852 $121 $191 forward 7 unknown #
coedge $-1 $192 $193 $69 $124 forward $182 $-1 #
edge $-1 $194 -67.532570508988826 $127 -63.210203234921984 $123 $195 forward 7 unknown #
edge $-1 $128 92.723731217158374 $194 99.312112796411029 $70 $196 forward 7 unknown #
coedge $-1 $71 $186 $192 $197 forward $116 $-1 #
vertex $-1 $124 $198 #
vertex $-1 $72 $199 #
straight-curve $-1 19.929431603946767 2.3273837776853821 9.3636376074825165 -1 0 0 I I #
coedge $-1 $130 $130 $-1 $200 reversed $75 $-1 #
edge $-1 $201 0 $201 6.2831853071796004 $76 $202 forward 7 unknown #
vertex $-1 $79 $203 #
ellipse-curve $-1 47.169899073039232 -4.9343234784558021 7.2024539704490884 0.6560590369687036 0 0.75470957328743171 1.1320643599311475 0 -0.9840885554530554 1 I I #
face $-1 $-1 $95 $12 $-1 $204 reversed single #
loop $-1 $-1 $150 $80 #
plane-surface $-1 0 24.921075529125332 0 0 -1 0 0 0 -1 forward_v I I I I #
coedge $-1 $205 $148 $151 $206 forward $81 $-1 #
coedge $-1 $154 $83 $84 $142 reversed $50 $-1 #
coedge $-1 $148 $205 $83 $140 reversed $81 $-1 #
edge $-1 $155 -9.3636376074825112 $207 9.3636376074825112 $139 $208 forward 7 unknown #
coedge $-1 $85 $84 $205 $209 forward $33 $-1 #
edge $-1 $146 -49.656056398205507 $207 49.656056398205507 $138 $210 forward 7 unknown #
coedge $-1 $151 $150 $85 $144 reversed $135 $-1 #
edge $-1 $211 -49.656056398205507 $145 49.656056398205507 $143 $212 forward 7 unknown #
vertex $-1 $87 $213 #
vertex $-1 $157 $214 #
straight-curve $-1 49.656056398205507 0 -9.3636376074825112 0 -1 0 I I #
coedge $-1 $137 $139 $88 $149 reversed $81 $-1 #
edge $-1 $152 -24.921075529125332 $155 24.921075529125332 $148 $215 forward 7 unknown #
coedge $-1 $143 $89 $94 $158 forward $135 $-1 #
coedge $-1 $89 $143 $137 $206 reversed $135 $-1 #
vertex $-1 $90 $216 #
straight-curve $-1 0 24.921075529125332 9.3636376074825112 -1 0 0 I I #
coedge $-1 $91 $138 $93 $157 reversed $50 $-1 #
vertex $-1 $149 $217 #
straight-curve $-1 0 -24.921075529125332 9.3636376074825112 1 0 0 I I #
edge $-1 $96 -9.3636376074825112 $146 9.3636376074825112 $93 $218 forward 7 unknown #
edge $-1 $97 -9.3636376074825112 $145 9.3636376074825112 $94 $219 forward 7 unknown #
point $-1 49.656056398205507 -24.921075529125332 9.3636376074825112 #
point $-1 49.656056398205507 24.921075529125332 9.3636376074825112 #
face $-1 $-1 $170 $13 $-1 $220 reversed single #
loop $-1 $-1 $167 $99 #
plane-surface $-1 0 0 9.3636376074825112 0 0 1 1 0 0 forward_v I I I I #
coedge $-1 $221 $222 $106 $173 forward $100 $-1 #
coedge $-1 $102 $177 $223 $224 reversed $58 $-1 #
edge $-1 $225 -5.932366083503962 $112 -0.93017696445313636 $102 $226 forward 7 unknown #
coedge $-1 $223 $227 $103 $168 forward $162 $-1 #
edge $-1 $171 -24.921075529125332 $225 24.921075529125332 $167 $228 forward 7 unknown #
coedge $-1 $174 $104 $227 $229 reversed $170 $-1 #
loop $-1 $-1 $104 $161 #
vertex $-1 $105 $230 #
straight-curve $-1 -42.254841999106816 -24.921075529125332 3.4312715239785492 0 0 1 I I #
edge $-1 $178 -24.921075529125332 $175 24.921075529125332 $164 $231 forward 7 unknown #
coedge $-1 $107 $169 $221 $232 forward $170 $-1 #
vertex $-1 $173 $233 #
straight-curve $-1 -22.977724599328081 -24.921075529125332 4.3614484884316855 1 0 0 I I #
coedge $-1 $165 $109 $222 $234 reversed $58 $-1 #
vertex $-1 $173 $235 #
straight-curve $-1 -22.977724599328081 24.921075529125332 4.3614484884316855 -1 0 0 I I #
point $-1 -42.254841999106816 24.921075529125332 4.3614484884316855 #
point $-1 -42.254841999106816 -24.921075529125332 4.3614484884316855 #
loop $-1 $-1 $123 $115 #
plane-surface $-1 49.656056398205507 0 0 -1 0 0 0 0 1 forward_v I I I I #
coedge $-1 $185 $118 $120 $189 reversed $66 $-1 #
coedge $-1 $118 $184 $236 $237 reversed $66 $-1 #
coedge $-1 $126 $121 $118 $187 forward $116 $-1 #
edge $-1 $190 24.75431014392619 $238 29.72662479425874 $186 $239 forward 7 unknown #
coedge $-1 $120 $119 $193 $240 reversed $41 $-1 #
edge $-1 $241 -99.312112796411029 $190 -92.723731217158374 $184 $242 forward 7 unknown #
vertex $-1 $122 $243 #
straight-curve $-1 44.683741747872958 -2.4671617392279011 9.3636376074825165 0 -1 0 I I #
coedge $-1 $236 $123 $126 $197 reversed $182 $-1 #
coedge $-1 $123 $236 $188 $240 forward $182 $-1 #
vertex $-1 $124 $244 #
straight-curve $-1 49.656056398205507 2.3273837776853821 72.573840842404493 0 0 1 I I #
straight-curve $-1 -25.295745872647146 2.3273837776853821 70.195879413956348 0.75470957328743171 0 -0.6560590369687036 I I #
edge $-1 $238 -12.196030734596986 $127 2.3273837776853821 $192 $245 forward 7 unknown #
point $-1 49.656056398205507 2.3273837776853821 9.3636376074825112 #
point $-1 44.683741747872958 2.3273837776853821 9.3636376074825094 #
edge $-1 $246 1 $246 0 $130 $-1 forward 7 unknown #
vertex $-1 $131 $247 #
ellipse-curve $-1 45.912270719525118 -4.9343234784558021 5.7557180754291908 0.6560590369687036 0 0.75470957328743171 1.1320643599311475 0 -0.9840885554530554 1 I I #
point $-1 48.301963432970368 -4.9343234784558021 6.2183654149960272 #
plane-surface $-1 49.656056398205507 0 0 -1 0 0 0 0 1 forward_v I I I I #
coedge $-1 $139 $137 $141 $209 reversed $81 $-1 #
edge $-1 $152 -9.3636376074825112 $211 9.3636376074825112 $151 $248 forward 7 unknown #
vertex $-1 $209 $249 #
straight-curve $-1 -49.656056398205507 -24.921075529125332 0 0 0 -1 I I #
edge $-1 $207 -24.921075529125332 $211 24.921075529125332 $205 $250 forward 7 unknown #
straight-curve $-1 0 -24.921075529125332 -9.3636376074825112 -1 0 0 I I #
vertex $-1 $144 $251 #
straight-curve $-1 0 24.921075529125332 -9.3636376074825112 1 0 0 I I #
point $-1 49.656056398205507 24.921075529125332 -9.3636376074825112 #
point $-1 49.656056398205507 -24.921075529125332 -9.3636376074825112 #
straight-curve $-1 -49.656056398205507 0 9.3636376074825112 0 -1 0 I I #
point $-1 -49.656056398205507 24.921075529125332 9.3636376074825112 #
point $-1 -49.656056398205507 -24.921075529125332 9.3636376074825112 #
straight-curve $-1 49.656056398205507 -24.921075529125332 0 0 0 -1 I I #
straight-curve $-1 49.656056398205507 24.921075529125332 0 0 0 -1 I I #
plane-surface $-1 0 -24.921075529125332 0 0 1 0 0 0 1 forward_v I I I I #
coedge $-1 $252 $164 $174 $232 reversed $100 $-1 #
coedge $-1 $164 $252 $177 $234 forward $100 $-1 #
coedge $-1 $253 $167 $165 $224 forward $162 $-1 #
edge $-1 $225 42.254841999106816 $254 49.656056398205507 $165 $255 forward 7 unknown #
vertex $-1 $224 $256 #
straight-curve $-1 -42.254841999106816 24.921075529125332 3.4312715239785492 0 0 -1 I I #
coedge $-1 $167 $253 $169 $229 forward $162 $-1 #
straight-curve $-1 -42.254841999106816 0 9.3636376074825112 0 1 0 I I #
edge $-1 $257 -49.656056398205507 $171 -42.254841999106816 $169 $258 forward 7 unknown #
point $-1 -42.254841999106816 -24.921075529125332 9.3636376074825112 #
straight-curve $-1 -49.656056398205507 0 4.3614484884316855 0 -1 0 I I #
edge $-1 $257 -9.3636376074825112 $175 -4.3614484884316855 $221 $259 forward 7 unknown #
point $-1 -49.656056398205507 -24.921075529125332 4.3614484884316855 #
edge $-1 $254 -9.3636376074825112 $178 -4.3614484884316855 $177 $260 forward 7 unknown #
point $-1 -49.656056398205507 24.921075529125332 4.3614484884316855 #
coedge $-1 $193 $192 $185 $237 forward $182 $-1 #
edge $-1 $238 63.210203234921984 $241 67.532570508988826 $236 $261 forward 7 unknown #
vertex $-1 $197 $262 #
straight-curve $-1 19.929431603946767 -12.196030734596986 9.3636376074825165 1 0 0 I I #
edge $-1 $241 -9.7288689953690852 $194 4.7945455169132831 $193 $263 forward 7 unknown #
vertex $-1 $240 $264 #
straight-curve $-1 -25.295745872647146 -12.196030734596986 70.195879413956348 -0.75470957328743171 0 0.6560590369687036 I I #
point $-1 44.683741747872958 -12.196030734596986 9.3636376074825094 #
point $-1 49.656056398205507 2.3273837776853821 5.0412703334156674 #
straight-curve $-1 49.656056398205507 0 9.3636376074825112 0 1 0 I I #
vertex $-1 $200 $265 #
point $-1 47.044335079456268 -4.9343234784558021 4.7716295199761349 #
straight-curve $-1 -49.656056398205507 24.921075529125332 0 0 0 -1 I I #
point $-1 -49.656056398205507 -24.921075529125332 -9.3636376074825112 #
straight-curve $-1 -49.656056398205507 0 -9.3636376074825112 0 1 0 I I #
point $-1 -49.656056398205507 24.921075529125332 -9.3636376074825112 #
coedge $-1 $222 $221 $253 $266 reversed $100 $-1 #
coedge $-1 $227 $223 $252 $266 forward $162 $-1 #
vertex $-1 $224 $267 #
straight-curve $-1 0 24.921075529125332 9.3636376074825112 -1 0 0 I I #
point $-1 -42.254841999106816 24.921075529125332 9.3636376074825112 #
vertex $-1 $266 $268 #
straight-curve $-1 0 -24.921075529125332 9.3636376074825112 1 0 0 I I #
straight-curve $-1 -49.656056398205507 -24.921075529125332 0 0 0 -1 I I #
straight-curve $-1 -49.656056398205507 24.921075529125332 0 0 0 -1 I I #
straight-curve $-1 49.656056398205507 -12.196030734596986 72.573840842404493 0 0 -1 I I #
point $-1 49.656056398205507 -12.196030734596986 9.3636376074825112 #
straight-curve $-1 49.656056398205507 -2.4671617392279011 5.0412703334156674 0 1 0 I I #
point $-1 49.656056398205507 -12.196030734596986 5.0412703334156674 #
point $-1 44.928182164072062 -4.9343234784558021 4.623653715498043 #
edge $-1 $254 -24.921075529125332 $257 24.921075529125332 $252 $269 forward 7 unknown #
point $-1 -49.656056398205507 24.921075529125332 9.3636376074825112 #
point $-1 -49.656056398205507 -24.921075529125332 9.3636376074825112 #
straight-curve $-1 -49.656056398205507 0 9.3636376074825112 0 -1 0 I I #
End-of-ACIS-data 