500 0 12 0           
7 Unknown 11 ACIS 5.0 NT 24 Fri Mar 26 15:20:28 1999 
-1 9.9999999999999995e-007 1e-010 
body $-1 $12 $-1 $13 #
body $-1 $14 $-1 $15 #
body $-1 $16 $-1 $17 #
body $-1 $18 $-1 $19 #
body $-1 $20 $-1 $21 #
body $-1 $22 $-1 $23 #
body $-1 $24 $-1 $25 #
body $-1 $26 $-1 $27 #
body $-1 $28 $-1 $29 #
body $-1 $30 $-1 $31 #
body $-1 $32 $-1 $33 #
body $-1 $34 $-1 $35 #
lump $-1 $-1 $36 $0 #
transform $-1 1 0 0 0 1 0 0 0 1 42.218085268715477 19.734413428962295 4.8786466866453777 1 rotate no_reflect no_shear #
lump $-1 $-1 $37 $1 #
transform $-1 1 0 0 0 1 0 0 0 1 42.218085268715477 19.734413428962295 4.8786466866453777 1 rotate no_reflect no_shear #
lump $-1 $-1 $38 $2 #
transform $-1 1 0 0 0 1 0 0 0 1 42.218085268715477 19.734413428962295 4.8786466866453777 1 rotate no_reflect no_shear #
lump $-1 $-1 $39 $3 #
transform $-1 1 0 0 0 1 0 0 0 1 42.218085268715477 19.734413428962295 4.8786466866453777 1 rotate no_reflect no_shear #
lump $-1 $-1 $40 $4 #
transform $-1 1 0 0 0 1 0 0 0 1 42.218085268715477 19.734413428962295 4.8786466866453777 1 rotate no_reflect no_shear #
lump $-1 $-1 $41 $5 #
transform $-1 1 0 0 0 1 0 0 0 1 42.218085268715477 19.734413428962295 4.8786466866453777 1 rotate no_reflect no_shear #
lump $-1 $-1 $42 $6 #
transform $-1 1 0 0 0 1 0 0 0 1 42.218085268715477 19.734413428962295 4.8786466866453777 1 rotate no_reflect no_shear #
lump $-1 $-1 $43 $7 #
transform $-1 1 0 0 0 1 0 0 0 1 42.218085268715477 19.734413428962295 4.8786466866453777 1 rotate no_reflect no_shear #
lump $-1 $-1 $44 $8 #
transform $-1 1 0 0 0 1 0 0 0 1 42.218085268715477 19.734413428962295 4.8786466866453777 1 rotate no_reflect no_shear #
lump $-1 $-1 $45 $9 #
transform $-1 1 0 0 0 1 0 0 0 1 42.218085268715477 19.734413428962295 4.8786466866453777 1 rotate no_reflect no_shear #
lump $-1 $-1 $46 $10 #
transform $-1 1 0 0 0 1 0 0 0 1 42.218085268715477 19.734413428962295 4.8786466866453777 1 rotate no_reflect no_shear #
lump $-1 $-1 $47 $11 #
transform $-1 1 0 0 0 1 0 0 0 1 42.218085268715477 19.734413428962295 4.8786466866453777 1 rotate no_reflect no_shear #
shell $-1 $-1 $-1 $48 $-1 $12 #
shell $-1 $-1 $-1 $49 $-1 $14 #
shell $-1 $-1 $-1 $50 $-1 $16 #
shell $-1 $-1 $-1 $51 $-1 $18 #
shell $-1 $-1 $-1 $52 $-1 $20 #
shell $-1 $-1 $-1 $53 $-1 $22 #
shell $-1 $-1 $-1 $54 $-1 $24 #
shell $-1 $-1 $-1 $55 $-1 $26 #
shell $-1 $-1 $-1 $56 $-1 $28 #
shell $-1 $-1 $-1 $57 $-1 $30 #
shell $-1 $-1 $-1 $58 $-1 $32 #
shell $-1 $-1 $-1 $59 $-1 $34 #
face $-1 $60 $61 $36 $-1 $62 forward single #
face $-1 $63 $64 $37 $-1 $65 reversed single #
face $-1 $66 $67 $38 $-1 $68 reversed single #
face $-1 $69 $70 $39 $-1 $71 forward single #
face $-1 $72 $73 $40 $-1 $74 forward single #
face $-1 $75 $76 $41 $-1 $77 reversed single #
face $-1 $78 $79 $42 $-1 $80 forward single #
face $-1 $81 $82 $43 $-1 $83 forward single #
face $-1 $84 $85 $44 $-1 $86 reversed single #
face $-1 $87 $88 $45 $-1 $89 forward single #
face $-1 $90 $91 $46 $-1 $92 forward single #
face $-1 $93 $94 $47 $-1 $95 forward single #
face $-1 $96 $97 $36 $-1 $98 reversed single #
loop $-1 $-1 $99 $48 #
plane-surface $-1 0 0 4.8786466866453777 0 0 1 1 0 0 forward_v I I I I #
face $-1 $100 $101 $37 $-1 $102 reversed single #
loop $-1 $-1 $103 $49 #
plane-surface $-1 -40.367623975368375 -19.234413428962295 0 0 1 0 0 0 1 forward_v I I I I #
face $-1 $104 $105 $38 $-1 $106 reversed single #
loop $-1 $-1 $107 $50 #
plane-surface $-1 1.8504612933471023 -64.478767385626455 71.899480804982417 -1 0 0 0 -0.52991927123019833 0.84804809178421925 forward_v I I I I #
face $-1 $108 $109 $39 $-1 $110 forward single #
loop $-1 $111 $112 $51 #
cone-surface $-1 -5.2753696913922923 -15.362886864519588 1.4615734716174276 0 0.52991927123019833 -0.84804809178421925 1 0 0 1 I I 0 1 1 forward I I I I #
face $-1 $113 $114 $40 $-1 $115 forward single #
loop $-1 $116 $117 $52 #
cone-surface $-1 -0.99987110054865269 -15.362886864519588 1.4615734716174276 0 0.52991927123019833 -0.84804809178421925 1 0 0 1 I I 0 1 1 forward I I I I #
face $-1 $118 $119 $41 $-1 $120 reversed single #
loop $-1 $-1 $121 $53 #
plane-surface $-1 37.230003579397895 -19.734413428962299 0.29354750314718103 0 -0.52991927123019833 0.84804809178421925 1 0 0 forward_v I I I I #
face $-1 $122 $123 $42 $-1 $124 forward single #
loop $-1 $125 $126 $54 #
cone-surface $-1 35.092254283976082 -15.362886864519588 1.4615734716174276 0 0.52991927123019833 -0.84804809178421925 1 0 0 1 I I 0 1 1 forward I I I I #
face $-1 $127 $128 $43 $-1 $129 forward single #
loop $-1 $130 $131 $55 #
cone-surface $-1 39.367752874819722 -15.362886864519588 1.4615734716174276 0 0.52991927123019833 -0.84804809178421925 1 0 0 1 I I 0 1 1 forward I I I I #
face $-1 $132 $133 $44 $-1 $134 reversed single #
loop $-1 $-1 $135 $56 #
plane-surface $-1 -38.517162682021265 31.00730408380176 93.938738639316924 1 0 0 0 -0.52991927123019833 -0.84804809178421925 forward_v I I I I #
face $-1 $136 $137 $45 $-1 $138 forward single #
loop $-1 $139 $140 $57 #
cone-surface $-1 -36.114890516519104 16.397852666927925 2.2405699641894872 0 -0.52991927123019833 -0.84804809178421925 1 0 0 1 I I 0 1 1 forward I I I I #
face $-1 $141 $142 $46 $-1 $143 forward single #
loop $-1 $144 $145 $58 #
cone-surface $-1 -32.511482268265866 16.397852666927925 2.2405699641894872 0 -0.52991927123019833 -0.84804809178421925 1 0 0 1 I I 0 1 1 forward I I I I #
face $-1 $146 $147 $47 $-1 $148 forward single #
loop $-1 $149 $150 $59 #
cone-surface $-1 -28.90807402001262 16.397852666927925 2.2405699641894872 0 -0.52991927123019833 -0.84804809178421925 1 0 0 1 I I 0 1 1 forward I I I I #
face $-1 $151 $152 $36 $-1 $153 reversed single #
loop $-1 $-1 $154 $60 #
plane-surface $-1 0 0 -4.8786466866453777 0 0 1 1 0 0 forward_v I I I I #
coedge $-1 $155 $156 $157 $158 forward $61 $-1 #
face $-1 $159 $160 $37 $-1 $161 reversed single #
loop $-1 $-1 $162 $63 #
plane-surface $-1 -40.367623975368375 -16.234413428962295 0 0 -1 0 0 0 -1 forward_v I I I I #
coedge $-1 $163 $164 $165 $166 reversed $64 $-1 #
face $-1 $167 $168 $38 $-1 $169 reversed single #
loop $-1 $-1 $170 $66 #
plane-surface $-1 -3.1376203959704725 -19.734413428962299 0.29354750314718103 0 -0.52991927123019833 0.84804809178421925 1 0 0 forward_v I I I I #
coedge $-1 $171 $172 $173 $174 reversed $67 $-1 #
face $-1 $-1 $175 $39 $-1 $176 forward single #
loop $-1 $177 $178 $69 #
cone-surface $-1 -5.2753696913922923 -14.39524686831864 -0.086974197553542965 0 0.52991927123019833 -0.84804809178421925 0.5 0 0 1 I I -0.70710678118654746 0.70710678118654746 0.5 forward I I I I #
loop $-1 $-1 $179 $51 #
coedge $-1 $112 $112 $180 $181 reversed $70 $-1 #
face $-1 $-1 $182 $40 $-1 $183 forward single #
loop $-1 $184 $185 $72 #
cone-surface $-1 -0.99987110054865269 -14.39524686831864 -0.086974197553542965 0 0.52991927123019833 -0.84804809178421925 0.5 0 0 1 I I -0.70710678118654746 0.70710678118654746 0.5 forward I I I I #
loop $-1 $-1 $186 $52 #
coedge $-1 $117 $117 $187 $188 reversed $73 $-1 #
face $-1 $189 $190 $41 $-1 $191 reversed single #
loop $-1 $-1 $192 $75 #
plane-surface $-1 32.24192189008032 -64.478767385626455 71.899480804982417 1 0 0 0 0.52991927123019833 -0.84804809178421925 forward_v I I I I #
coedge $-1 $193 $194 $195 $196 reversed $76 $-1 #
face $-1 $-1 $197 $42 $-1 $198 forward single #
loop $-1 $199 $200 $78 #
cone-surface $-1 35.092254283976082 -14.39524686831864 -0.086974197553542965 0 0.52991927123019833 -0.84804809178421925 0.5 0 0 1 I I -0.70710678118654746 0.70710678118654746 0.5 forward I I I I #
loop $-1 $-1 $201 $54 #
coedge $-1 $126 $126 $202 $203 reversed $79 $-1 #
face $-1 $-1 $204 $43 $-1 $205 forward single #
loop $-1 $206 $207 $81 #
cone-surface $-1 39.367752874819722 -14.39524686831864 -0.086974197553542965 0 0.52991927123019833 -0.84804809178421925 0.5 0 0 1 I I -0.70710678118654746 0.70710678118654746 0.5 forward I I I I #
loop $-1 $-1 $208 $55 #
coedge $-1 $131 $131 $209 $210 reversed $82 $-1 #
face $-1 $211 $212 $44 $-1 $213 reversed single #
loop $-1 $-1 $214 $84 #
plane-surface $-1 -32.511482268265866 -13.737049872862396 22.332805337481688 0 0.52991927123019833 0.84804809178421925 1 0 0 forward_v I I I I #
coedge $-1 $215 $216 $217 $218 reversed $85 $-1 #
face $-1 $-1 $219 $45 $-1 $220 forward single #
loop $-1 $221 $222 $87 #
cone-surface $-1 -36.114890516519104 15.565817794457107 0.90903585285446997 0 -0.52991927123019833 -0.84804809178421925 0.5 0 0 1 I I -0.70710678118654735 0.70710678118654768 0.5 forward I I I I #
loop $-1 $-1 $223 $57 #
coedge $-1 $140 $140 $224 $225 reversed $88 $-1 #
face $-1 $-1 $226 $46 $-1 $227 forward single #
loop $-1 $228 $229 $90 #
cone-surface $-1 -32.511482268265866 15.565817794457107 0.90903585285446997 0 -0.52991927123019833 -0.84804809178421925 0.5 0 0 1 I I -0.70710678118654735 0.70710678118654768 0.5 forward I I I I #
loop $-1 $-1 $230 $58 #
coedge $-1 $145 $145 $231 $232 reversed $91 $-1 #
face $-1 $-1 $233 $47 $-1 $234 forward single #
loop $-1 $235 $236 $93 #
cone-surface $-1 -28.90807402001262 15.565817794457107 0.90903585285446997 0 -0.52991927123019833 -0.84804809178421925 0.5 0 0 1 I I -0.70710678118654735 0.70710678118654768 0.5 forward I I I I #
loop $-1 $-1 $237 $59 #
coedge $-1 $150 $150 $238 $239 reversed $94 $-1 #
face $-1 $240 $241 $36 $-1 $242 reversed single #
loop $-1 $-1 $243 $96 #
plane-surface $-1 0 -19.734413428962295 0 0 1 0 0 0 1 forward_v I I I I #
coedge $-1 $244 $245 $246 $247 forward $97 $-1 #
coedge $-1 $248 $99 $249 $250 forward $61 $-1 #
coedge $-1 $99 $248 $251 $252 forward $61 $-1 #
coedge $-1 $253 $254 $99 $158 reversed $255 $-1 #
edge $-1 $256 -19.734413428962295 $257 19.734413428962295 $157 $258 forward 7 unknown #
face $-1 $259 $260 $37 $-1 $261 reversed single #
loop $-1 $-1 $262 $100 #
plane-surface $-1 -38.517162682021265 -17.734413428962295 0 -1 0 0 0 0 1 forward_v I I I I #
coedge $-1 $263 $264 $265 $266 forward $101 $-1 #
coedge $-1 $267 $103 $268 $269 reversed $64 $-1 #
coedge $-1 $103 $267 $270 $271 reversed $64 $-1 #
coedge $-1 $272 $273 $103 $166 forward $274 $-1 #
edge $-1 $275 -4.8786466866453777 $276 4.8786466866453777 $165 $277 forward 7 unknown #
face $-1 $278 $279 $38 $-1 $280 reversed single #
loop $-1 $-1 $281 $104 #
plane-surface $-1 -8.1257020852880473 -64.478767385626455 71.899480804982417 1 0 0 0 0.52991927123019833 -0.84804809178421925 forward_v I I I I #
coedge $-1 $282 $283 $284 $285 reversed $105 $-1 #
coedge $-1 $172 $107 $286 $287 reversed $67 $-1 #
coedge $-1 $107 $171 $282 $288 reversed $67 $-1 #
coedge $-1 $284 $289 $107 $174 forward $290 $-1 #
edge $-1 $291 12.504970263850932 $292 19.842662671564675 $173 $293 forward 7 unknown #
loop $-1 $-1 $180 $108 #
plane-surface $-1 -3.1376203959704725 -19.734413428962299 0.29354750314718103 0 -0.52991927123019833 0.84804809178421925 1 0 0 forward_v I I I I #
loop $-1 $-1 $294 $69 #
coedge $-1 $178 $178 $179 $295 reversed $109 $-1 #
coedge $-1 $179 $179 $178 $295 forward $111 $-1 #
coedge $-1 $180 $180 $112 $181 forward $175 $-1 #
edge $-1 $296 9.2873079643517867e-017 $296 6.2831853071796004 $180 $297 forward 7 unknown #
loop $-1 $-1 $187 $113 #
plane-surface $-1 -3.1376203959704725 -19.734413428962299 0.29354750314718103 0 -0.52991927123019833 0.84804809178421925 1 0 0 forward_v I I I I #
loop $-1 $-1 $298 $72 #
coedge $-1 $185 $185 $186 $299 reversed $114 $-1 #
coedge $-1 $186 $186 $185 $299 forward $116 $-1 #
coedge $-1 $187 $187 $117 $188 forward $182 $-1 #
edge $-1 $300 9.2873079643517867e-017 $300 6.2831853071796004 $187 $301 forward 7 unknown #
face $-1 $302 $303 $41 $-1 $304 forward single #
loop $-1 $-1 $305 $118 #
plane-surface $-1 0 -19.734413428962295 0 0 1 0 0 0 1 forward_v I I I I #
coedge $-1 $306 $307 $308 $309 reversed $119 $-1 #
coedge $-1 $310 $121 $311 $312 reversed $76 $-1 #
coedge $-1 $121 $310 $306 $313 forward $76 $-1 #
coedge $-1 $308 $314 $121 $196 forward $303 $-1 #
edge $-1 $315 -23.603083479016522 $316 -13.626920100381373 $195 $317 forward 7 unknown #
loop $-1 $-1 $202 $122 #
plane-surface $-1 37.230003579397895 -19.734413428962299 0.29354750314718103 0 -0.52991927123019833 0.84804809178421925 1 0 0 forward_v I I I I #
loop $-1 $-1 $318 $78 #
coedge $-1 $200 $200 $201 $319 reversed $123 $-1 #
coedge $-1 $201 $201 $200 $319 forward $125 $-1 #
coedge $-1 $202 $202 $126 $203 forward $197 $-1 #
edge $-1 $320 9.2873079643517867e-017 $320 6.2831853071796004 $202 $321 forward 7 unknown #
loop $-1 $-1 $209 $127 #
plane-surface $-1 37.230003579397895 -19.734413428962299 0.29354750314718103 0 -0.52991927123019833 0.84804809178421925 1 0 0 forward_v I I I I #
loop $-1 $-1 $322 $81 #
coedge $-1 $207 $207 $208 $323 reversed $128 $-1 #
coedge $-1 $208 $208 $207 $323 forward $130 $-1 #
coedge $-1 $209 $209 $131 $210 forward $204 $-1 #
edge $-1 $324 9.2873079643517867e-017 $324 6.2831853071796004 $209 $325 forward 7 unknown #
face $-1 $326 $327 $44 $-1 $328 forward single #
loop $-1 $-1 $329 $132 #
plane-surface $-1 -26.505801854510462 31.00730408380176 93.938738639316924 -1 0 0 0 0.52991927123019833 0.84804809178421925 forward_v I I I I #
coedge $-1 $330 $331 $332 $333 reversed $133 $-1 #
coedge $-1 $216 $135 $334 $335 reversed $85 $-1 #
coedge $-1 $135 $215 $330 $336 reversed $85 $-1 #
coedge $-1 $332 $337 $135 $218 forward $327 $-1 #
edge $-1 $338 -4.2307613870614151 $339 1.3082096632958997 $217 $340 forward 7 unknown #
loop $-1 $-1 $224 $136 #
plane-surface $-1 -32.511482268265866 -13.737049872862396 22.332805337481688 0 0.52991927123019833 0.84804809178421925 1 0 0 forward_v I I I I #
loop $-1 $-1 $341 $87 #
coedge $-1 $222 $222 $223 $342 reversed $137 $-1 #
coedge $-1 $223 $223 $222 $342 forward $139 $-1 #
coedge $-1 $224 $224 $140 $225 forward $219 $-1 #
edge $-1 $343 -1.4119885826696388e-015 $343 6.2831853071795987 $224 $344 forward 7 unknown #
loop $-1 $-1 $231 $141 #
plane-surface $-1 -32.511482268265866 -13.737049872862396 22.332805337481688 0 0.52991927123019833 0.84804809178421925 1 0 0 forward_v I I I I #
loop $-1 $-1 $345 $90 #
coedge $-1 $229 $229 $230 $346 reversed $142 $-1 #
coedge $-1 $230 $230 $229 $346 forward $144 $-1 #
coedge $-1 $231 $231 $145 $232 forward $226 $-1 #
edge $-1 $347 -1.4119885826696388e-015 $347 6.2831853071795987 $231 $348 forward 7 unknown #
loop $-1 $-1 $238 $146 #
plane-surface $-1 -32.511482268265866 -13.737049872862396 22.332805337481688 0 0.52991927123019833 0.84804809178421925 1 0 0 forward_v I I I I #
loop $-1 $-1 $349 $93 #
coedge $-1 $236 $236 $237 $350 reversed $147 $-1 #
coedge $-1 $237 $237 $236 $350 forward $149 $-1 #
coedge $-1 $238 $238 $150 $239 forward $233 $-1 #
edge $-1 $351 -1.4119885826696388e-015 $351 6.2831853071795987 $238 $352 forward 7 unknown #
face $-1 $353 $354 $36 $-1 $355 reversed single #
loop $-1 $-1 $356 $151 #
plane-surface $-1 -42.218085268715477 0 0 1 0 0 0 0 -1 forward_v I I I I #
coedge $-1 $357 $251 $358 $359 forward $152 $-1 #
coedge $-1 $360 $154 $357 $361 forward $97 $-1 #
coedge $-1 $154 $360 $362 $363 forward $97 $-1 #
coedge $-1 $254 $253 $154 $247 reversed $255 $-1 #
edge $-1 $364 -19.734413428962295 $365 19.734413428962295 $246 $366 forward 7 unknown #
coedge $-1 $156 $155 $367 $368 forward $61 $-1 #
coedge $-1 $369 $370 $155 $250 reversed $354 $-1 #
edge $-1 $257 -42.218085268715477 $371 42.218085268715477 $249 $372 forward 7 unknown #
coedge $-1 $243 $373 $156 $252 reversed $152 $-1 #
edge $-1 $374 -42.218085268715477 $256 42.218085268715477 $251 $375 forward 7 unknown #
coedge $-1 $246 $157 $373 $376 forward $255 $-1 #
coedge $-1 $157 $246 $369 $377 reversed $255 $-1 #
loop $-1 $-1 $253 $353 #
vertex $-1 $158 $378 #
vertex $-1 $158 $379 #
straight-curve $-1 42.218085268715477 0 4.8786466866453777 0 1 0 I I #
face $-1 $380 $381 $37 $-1 $382 forward single #
loop $-1 $-1 $383 $159 #
plane-surface $-1 0 0 -4.8786466866453777 0 0 1 1 0 0 forward_v I I I I #
coedge $-1 $384 $385 $267 $386 forward $160 $-1 #
coedge $-1 $387 $162 $383 $388 reversed $101 $-1 #
coedge $-1 $162 $387 $389 $390 reversed $101 $-1 #
coedge $-1 $385 $384 $162 $266 reversed $160 $-1 #
edge $-1 $391 -4.8786466866453777 $392 4.8786466866453777 $265 $393 forward 7 unknown #
coedge $-1 $164 $163 $262 $386 reversed $64 $-1 #
coedge $-1 $394 $395 $163 $269 forward $260 $-1 #
edge $-1 $396 18.333350694337078 $275 22.034273281031297 $268 $397 forward 7 unknown #
coedge $-1 $398 $399 $164 $271 forward $381 $-1 #
edge $-1 $276 -22.034273281031297 $400 -18.333350694337078 $270 $401 forward 7 unknown #
coedge $-1 $402 $165 $399 $403 reversed $274 $-1 #
coedge $-1 $165 $402 $394 $404 reversed $274 $-1 #
loop $-1 $-1 $402 $380 #
vertex $-1 $404 $405 #
vertex $-1 $166 $406 #
straight-curve $-1 -42.218085268715477 -19.234413428962295 0 0 0 1 I I #
face $-1 $-1 $290 $38 $-1 $407 forward single #
loop $-1 $-1 $408 $167 #
plane-surface $-1 0 -19.734413428962295 0 0 1 0 0 0 1 forward_v I I I I #
coedge $-1 $409 $410 $411 $412 reversed $168 $-1 #
coedge $-1 $413 $170 $172 $288 forward $105 $-1 #
coedge $-1 $170 $413 $409 $414 forward $105 $-1 #
coedge $-1 $411 $173 $170 $285 forward $290 $-1 #
edge $-1 $292 -3.4192714913323385 $415 6.556891887302811 $284 $416 forward 7 unknown #
coedge $-1 $417 $418 $171 $287 forward $279 $-1 #
edge $-1 $419 -35.656192899344028 $291 -31.07109371584583 $286 $420 forward 7 unknown #
edge $-1 $292 -8.6524484622987377 $419 -4.1895292081871576e-015 $172 $421 forward 7 unknown #
coedge $-1 $173 $411 $417 $422 forward $290 $-1 #
loop $-1 $-1 $411 $278 #
vertex $-1 $287 $423 #
vertex $-1 $174 $424 #
straight-curve $-1 1.8504612933471023 -32.239383692813227 4.878646686645375 0 1 0 I I #
coedge $-1 $294 $294 $-1 $425 reversed $177 $-1 #
edge $-1 $426 0 $426 6.2831853071796004 $178 $427 forward 7 unknown #
vertex $-1 $181 $428 #
ellipse-curve $-1 -5.2753696913922923 -16.065567225105429 2.5860970948962771 0 -0.52991927123019833 0.84804809178421925 1 0 0 1 I I #
coedge $-1 $298 $298 $-1 $429 reversed $184 $-1 #
edge $-1 $430 0 $430 6.2831853071796004 $185 $431 forward 7 unknown #
vertex $-1 $188 $432 #
ellipse-curve $-1 -0.99987110054865269 -16.065567225105429 2.5860970948962771 0 -0.52991927123019833 0.84804809178421925 1 0 0 1 I I #
face $-1 $-1 $433 $41 $-1 $434 reversed single #
loop $-1 $-1 $308 $189 #
plane-surface $-1 0 0 4.8786466866453777 0 0 1 1 0 0 forward_v I I I I #
coedge $-1 $435 $436 $307 $437 forward $190 $-1 #
coedge $-1 $307 $192 $194 $313 reversed $119 $-1 #
coedge $-1 $192 $306 $305 $437 reversed $119 $-1 #
coedge $-1 $438 $195 $192 $309 forward $303 $-1 #
edge $-1 $316 -19.842662671564675 $439 -12.504970263850932 $308 $440 forward 7 unknown #
coedge $-1 $194 $193 $435 $441 reversed $76 $-1 #
coedge $-1 $442 $443 $193 $312 forward $433 $-1 #
edge $-1 $444 -8.290087585986571 $315 0.36236087631216229 $311 $445 forward 7 unknown #
edge $-1 $446 4.1895292081871576e-015 $316 8.6524484622987377 $306 $447 forward 7 unknown #
coedge $-1 $195 $438 $442 $448 forward $303 $-1 #
vertex $-1 $312 $449 #
vertex $-1 $196 $450 #
straight-curve $-1 18.615001789698947 -12.396721021248554 4.8786466866453777 -1 0 0 I I #
coedge $-1 $318 $318 $-1 $451 reversed $199 $-1 #
edge $-1 $452 0 $452 6.2831853071796004 $200 $453 forward 7 unknown #
vertex $-1 $203 $454 #
ellipse-curve $-1 35.092254283976082 -16.065567225105429 2.5860970948962771 0 -0.52991927123019833 0.84804809178421925 1 0 0 1 I I #
coedge $-1 $322 $322 $-1 $455 reversed $206 $-1 #
edge $-1 $456 0 $456 6.2831853071796004 $207 $457 forward 7 unknown #
vertex $-1 $210 $458 #
ellipse-curve $-1 39.367752874819722 -16.065567225105429 2.5860970948962771 0 -0.52991927123019833 0.84804809178421925 1 0 0 1 I I #
face $-1 $-1 $459 $44 $-1 $460 reversed single #
loop $-1 $-1 $217 $211 #
plane-surface $-1 0 0 4.8786466866453777 0 0 1 1 0 0 forward_v I I I I #
coedge $-1 $461 $462 $463 $464 reversed $212 $-1 #
coedge $-1 $465 $214 $216 $336 forward $133 $-1 #
coedge $-1 $214 $465 $461 $466 forward $133 $-1 #
coedge $-1 $463 $217 $214 $333 forward $327 $-1 #
edge $-1 $339 -22.261421547888332 $467 -10.25006072037753 $332 $468 forward 7 unknown #
coedge $-1 $469 $470 $215 $335 forward $459 $-1 #
edge $-1 $471 -45.551855947039051 $338 -42.090722633013087 $334 $472 forward 7 unknown #
edge $-1 $339 32.937391784821834 $471 39.46882685792459 $216 $473 forward 7 unknown #
coedge $-1 $217 $463 $469 $474 forward $327 $-1 #
vertex $-1 $335 $475 #
vertex $-1 $218 $476 #
straight-curve $-1 -38.517162682021265 15.50365204190088 4.878646686645375 0 -1 0 I I #
coedge $-1 $341 $341 $-1 $477 reversed $221 $-1 #
edge $-1 $478 0 $478 6.2831853071796004 $222 $479 forward 7 unknown #
vertex $-1 $225 $480 #
ellipse-curve $-1 -36.114890516519104 16.964927903783639 3.1480800296323919 0 0.52991927123019833 0.84804809178421925 1 0 0 1 I I #
coedge $-1 $345 $345 $-1 $481 reversed $228 $-1 #
edge $-1 $482 0 $482 6.2831853071796004 $229 $483 forward 7 unknown #
vertex $-1 $232 $484 #
ellipse-curve $-1 -32.511482268265866 16.964927903783639 3.1480800296323919 0 0.52991927123019833 0.84804809178421925 1 0 0 1 I I #
coedge $-1 $349 $349 $-1 $485 reversed $235 $-1 #
edge $-1 $486 0 $486 6.2831853071796004 $236 $487 forward 7 unknown #
vertex $-1 $239 $488 #
ellipse-curve $-1 -28.90807402001262 16.964927903783639 3.1480800296323919 0 0.52991927123019833 0.84804809178421925 1 0 0 1 I I #
face $-1 $-1 $255 $36 $-1 $489 reversed single #
loop $-1 $-1 $369 $240 #
plane-surface $-1 0 19.734413428962295 0 0 -1 0 0 0 -1 forward_v I I I I #
coedge $-1 $490 $367 $370 $491 forward $241 $-1 #
coedge $-1 $373 $243 $244 $361 reversed $152 $-1 #
coedge $-1 $367 $490 $243 $359 reversed $241 $-1 #
edge $-1 $374 -4.8786466866453777 $492 4.8786466866453777 $358 $493 forward 7 unknown #
coedge $-1 $245 $244 $490 $494 forward $97 $-1 #
edge $-1 $365 -42.218085268715477 $492 42.218085268715477 $357 $495 forward 7 unknown #
coedge $-1 $370 $369 $245 $363 reversed $354 $-1 #
edge $-1 $496 -42.218085268715477 $364 42.218085268715477 $362 $497 forward 7 unknown #
vertex $-1 $247 $498 #
vertex $-1 $376 $499 #
straight-curve $-1 42.218085268715477 0 -4.8786466866453777 0 -1 0 I I #
coedge $-1 $356 $358 $248 $368 reversed $241 $-1 #
edge $-1 $371 -19.734413428962295 $374 19.734413428962295 $367 $500 forward 7 unknown #
coedge $-1 $362 $249 $254 $377 forward $354 $-1 #
coedge $-1 $249 $362 $356 $491 reversed $354 $-1 #
vertex $-1 $250 $501 #
straight-curve $-1 0 19.734413428962295 4.8786466866453777 -1 0 0 I I #
coedge $-1 $251 $357 $253 $376 reversed $152 $-1 #
vertex $-1 $368 $502 #
straight-curve $-1 0 -19.734413428962295 4.8786466866453777 1 0 0 I I #
edge $-1 $256 -4.8786466866453777 $365 4.8786466866453777 $253 $503 forward 7 unknown #
edge $-1 $257 -4.8786466866453777 $364 4.8786466866453777 $254 $504 forward 7 unknown #
point $-1 42.218085268715477 -19.734413428962295 4.8786466866453777 #
point $-1 42.218085268715477 19.734413428962295 4.8786466866453777 #
face $-1 $-1 $274 $37 $-1 $505 reversed single #
loop $-1 $-1 $389 $259 #
plane-surface $-1 0 0 4.8786466866453777 0 0 1 1 0 0 forward_v I I I I #
coedge $-1 $395 $394 $263 $388 forward $260 $-1 #
coedge $-1 $265 $262 $395 $506 reversed $160 $-1 #
coedge $-1 $262 $265 $398 $507 reversed $160 $-1 #
edge $-1 $400 -4.8786466866453777 $396 4.8786466866453777 $262 $508 forward 7 unknown #
coedge $-1 $264 $263 $402 $509 reversed $101 $-1 #
edge $-1 $510 -22.034273281031297 $392 -18.333350694337078 $383 $511 forward 7 unknown #
coedge $-1 $399 $398 $264 $390 forward $381 $-1 #
edge $-1 $391 18.333350694337078 $512 22.034273281031297 $389 $513 forward 7 unknown #
vertex $-1 $390 $514 #
vertex $-1 $388 $515 #
straight-curve $-1 -38.517162682021265 -16.234413428962295 0 0 0 -1 I I #
coedge $-1 $383 $268 $273 $404 forward $260 $-1 #
coedge $-1 $268 $383 $384 $506 forward $260 $-1 #
vertex $-1 $269 $516 #
straight-curve $-1 -20.183811987684187 -19.234413428962295 -4.8786466866453777 -1 0 0 I I #
coedge $-1 $389 $270 $385 $507 forward $381 $-1 #
coedge $-1 $270 $389 $272 $403 forward $381 $-1 #
vertex $-1 $271 $517 #
straight-curve $-1 -20.183811987684187 -19.234413428962295 4.8786466866453777 1 0 0 I I #
coedge $-1 $273 $272 $387 $509 forward $274 $-1 #
edge $-1 $512 16.234413428962295 $276 19.234413428962295 $272 $518 forward 7 unknown #
edge $-1 $275 -19.234413428962295 $510 -16.234413428962295 $273 $519 forward 7 unknown #
point $-1 -42.218085268715484 -19.234413428962295 -4.8786466866453777 #
point $-1 -42.218085268715484 -19.234413428962295 4.8786466866453777 #
plane-surface $-1 0 0 4.8786466866453777 0 0 1 1 0 0 forward_v I I I I #
coedge $-1 $418 $417 $410 $520 forward $279 $-1 #
coedge $-1 $410 $281 $283 $414 reversed $168 $-1 #
coedge $-1 $281 $409 $408 $520 reversed $168 $-1 #
coedge $-1 $289 $284 $281 $412 forward $290 $-1 #
edge $-1 $415 -19.842662671564675 $521 -12.504970263850932 $411 $522 forward 7 unknown #
coedge $-1 $283 $282 $418 $523 reversed $105 $-1 #
edge $-1 $524 4.1895292081871576e-015 $415 8.6524484622987377 $409 $525 forward 7 unknown #
vertex $-1 $285 $526 #
straight-curve $-1 -1.5688101979852362 -12.396721021248554 4.8786466866453777 -1 0 0 I I #
coedge $-1 $408 $286 $289 $422 reversed $279 $-1 #
coedge $-1 $286 $408 $413 $523 forward $279 $-1 #
vertex $-1 $287 $527 #
straight-curve $-1 1.8504612933471023 -19.734413428962295 35.949740402491209 0 0 1 I I #
straight-curve $-1 1.8504612933471023 -19.734413428962299 0.29354750314718103 0 -0.84804809178421925 -0.52991927123019833 I I #
edge $-1 $521 -8.1257020852880473 $291 1.8504612933471023 $417 $528 forward 7 unknown #
point $-1 1.8504612933471023 -19.734413428962295 4.8786466866453777 #
point $-1 1.8504612933471023 -12.396721021248553 4.8786466866453777 #
edge $-1 $529 1 $529 0 $294 $-1 forward 7 unknown #
vertex $-1 $295 $530 #
ellipse-curve $-1 -5.2753696913922923 -14.66020650393374 0.33704984833856666 0 -0.52991927123019833 0.84804809178421925 1 0 0 1 I I #
point $-1 -4.2753696913922923 -16.065567225105436 2.5860970948962887 #
edge $-1 $531 1 $531 0 $298 $-1 forward 7 unknown #
vertex $-1 $299 $532 #
ellipse-curve $-1 -0.99987110054865269 -14.66020650393374 0.33704984833856666 0 -0.52991927123019833 0.84804809178421925 1 0 0 1 I I #
point $-1 0.00012889945134730851 -16.065567225105436 2.5860970948962887 #
loop $-1 $-1 $311 $302 #
plane-surface $-1 42.218085268715477 0 0 -1 0 0 0 0 1 forward_v I I I I #
coedge $-1 $533 $305 $310 $441 forward $190 $-1 #
coedge $-1 $305 $533 $438 $534 reversed $190 $-1 #
edge $-1 $439 31.07109371584583 $446 35.656192899344028 $305 $535 forward 7 unknown #
coedge $-1 $314 $308 $436 $534 forward $303 $-1 #
vertex $-1 $534 $536 #
straight-curve $-1 32.24192189008032 -32.239383692813227 4.878646686645375 0 -1 0 I I #
edge $-1 $446 13.626920100381373 $444 23.603083479016522 $435 $537 forward 7 unknown #
coedge $-1 $443 $311 $314 $448 reversed $433 $-1 #
coedge $-1 $311 $442 $533 $538 forward $433 $-1 #
vertex $-1 $441 $539 #
straight-curve $-1 42.218085268715477 -12.704020470942339 4.6866246751477005 0 0.84804809178421925 0.52991927123019833 I I #
vertex $-1 $441 $540 #
straight-curve $-1 32.24192189008032 -19.734413428962299 0.29354750314718103 0 0.84804809178421925 0.52991927123019833 I I #
edge $-1 $541 -19.734413428962295 $315 -12.396721021248553 $442 $542 forward 7 unknown #
point $-1 42.21808526871547 -12.396721021248553 4.8786466866453777 #
point $-1 32.24192189008032 -12.396721021248553 4.8786466866453777 #
edge $-1 $543 1 $543 0 $318 $-1 forward 7 unknown #
vertex $-1 $319 $544 #
ellipse-curve $-1 35.092254283976082 -14.66020650393374 0.33704984833856666 0 -0.52991927123019833 0.84804809178421925 1 0 0 1 I I #
point $-1 36.092254283976082 -16.065567225105436 2.5860970948962887 #
edge $-1 $545 1 $545 0 $322 $-1 forward 7 unknown #
vertex $-1 $323 $546 #
ellipse-curve $-1 39.367752874819722 -14.66020650393374 0.33704984833856666 0 -0.52991927123019833 0.84804809178421925 1 0 0 1 I I #
point $-1 40.367752874819722 -16.065567225105436 2.5860970948962887 #
loop $-1 $-1 $334 $326 #
plane-surface $-1 0 19.734413428962295 0 0 -1 0 0 0 -1 forward_v I I I I #
coedge $-1 $462 $329 $331 $466 reversed $212 $-1 #
coedge $-1 $329 $461 $547 $548 reversed $212 $-1 #
coedge $-1 $337 $332 $329 $464 forward $327 $-1 #
edge $-1 $467 -1.3082096632958997 $549 4.2307613870614151 $463 $550 forward 7 unknown #
coedge $-1 $331 $330 $470 $551 reversed $133 $-1 #
edge $-1 $552 -39.46882685792459 $467 -32.937391784821834 $461 $553 forward 7 unknown #
vertex $-1 $333 $554 #
straight-curve $-1 -16.255741134132933 14.195442378604984 4.8786466866453768 1 0 0 I I #
coedge $-1 $547 $334 $337 $474 reversed $459 $-1 #
coedge $-1 $334 $547 $465 $551 forward $459 $-1 #
vertex $-1 $335 $555 #
straight-curve $-1 -38.517162682021265 19.734413428962295 46.969369319658462 0 0 1 I I #
straight-curve $-1 -38.517162682021265 -13.737049872862396 22.332805337481688 0 0.84804809178421925 -0.52991927123019833 I I #
edge $-1 $549 26.505801854510462 $338 38.517162682021265 $469 $556 forward 7 unknown #
point $-1 -38.517162682021265 19.734413428962295 4.8786466866453777 #
point $-1 -38.517162682021265 14.19544237860498 4.8786466866453786 #
edge $-1 $557 1 $557 0 $341 $-1 forward 7 unknown #
vertex $-1 $342 $558 #
ellipse-curve $-1 -36.114890516519104 15.830777430072207 1.3330598987465798 0 0.52991927123019833 0.84804809178421925 1 0 0 1 I I #
point $-1 -35.114890516519104 16.964927903783639 3.1480800296323945 #
edge $-1 $559 1 $559 0 $345 $-1 forward 7 unknown #
vertex $-1 $346 $560 #
ellipse-curve $-1 -32.511482268265866 15.830777430072207 1.3330598987465798 0 0.52991927123019833 0.84804809178421925 1 0 0 1 I I #
point $-1 -31.511482268265866 16.964927903783639 3.1480800296323945 #
edge $-1 $561 1 $561 0 $349 $-1 forward 7 unknown #
vertex $-1 $350 $562 #
ellipse-curve $-1 -28.90807402001262 15.830777430072207 1.3330598987465798 0 0.52991927123019833 0.84804809178421925 1 0 0 1 I I #
point $-1 -27.90807402001262 16.964927903783639 3.1480800296323945 #
plane-surface $-1 42.218085268715477 0 0 -1 0 0 0 0 1 forward_v I I I I #
coedge $-1 $358 $356 $360 $494 reversed $241 $-1 #
edge $-1 $371 -4.8786466866453777 $496 4.8786466866453777 $370 $563 forward 7 unknown #
vertex $-1 $494 $564 #
straight-curve $-1 -42.218085268715477 -19.734413428962295 0 0 0 -1 I I #
edge $-1 $492 -19.734413428962295 $496 19.734413428962295 $490 $565 forward 7 unknown #
straight-curve $-1 0 -19.734413428962295 -4.8786466866453777 -1 0 0 I I #
vertex $-1 $363 $566 #
straight-curve $-1 0 19.734413428962295 -4.8786466866453777 1 0 0 I I #
point $-1 42.218085268715477 19.734413428962295 -4.8786466866453777 #
point $-1 42.218085268715477 -19.734413428962295 -4.8786466866453777 #
straight-curve $-1 -42.218085268715477 0 4.8786466866453777 0 -1 0 I I #
point $-1 -42.218085268715477 19.734413428962295 4.8786466866453777 #
point $-1 -42.218085268715477 -19.734413428962295 4.8786466866453777 #
straight-curve $-1 42.218085268715477 -19.734413428962295 0 0 0 -1 I I #
straight-curve $-1 42.218085268715477 19.734413428962295 0 0 0 -1 I I #
plane-surface $-1 -42.218085268715477 0 0 1 0 0 0 0 -1 forward_v I I I I #
edge $-1 $392 7.3672067144811475 $396 10.367206714481148 $395 $567 forward 7 unknown #
edge $-1 $400 -10.367206714481148 $391 -7.3672067144811475 $398 $568 forward 7 unknown #
straight-curve $-1 -38.517162682021265 -19.234413428962295 0 0 0 -1 I I #
edge $-1 $512 -4.8786466866453777 $510 4.8786466866453777 $402 $569 forward 7 unknown #
vertex $-1 $509 $570 #
straight-curve $-1 -20.183811987684187 -16.234413428962295 -4.8786466866453777 1 0 0 I I #
vertex $-1 $403 $571 #
straight-curve $-1 -20.183811987684187 -16.234413428962295 4.8786466866453777 -1 0 0 I I #
point $-1 -38.517162682021265 -16.234413428962295 4.8786466866453777 #
point $-1 -38.517162682021265 -16.234413428962295 -4.8786466866453777 #
point $-1 -38.517162682021265 -19.234413428962295 -4.8786466866453777 #
point $-1 -38.517162682021265 -19.234413428962295 4.8786466866453777 #
straight-curve $-1 -42.218085268715477 0 4.8786466866453777 0 -1 0 I I #
straight-curve $-1 -42.218085268715477 0 -4.8786466866453777 0 1 0 I I #
edge $-1 $521 31.07109371584583 $524 35.656192899344028 $408 $572 forward 7 unknown #
vertex $-1 $422 $573 #
straight-curve $-1 -8.1257020852880473 -32.239383692813227 4.878646686645375 0 -1 0 I I #
edge $-1 $524 -6.556891887302811 $419 3.4192714913323385 $418 $574 forward 7 unknown #
vertex $-1 $523 $575 #
straight-curve $-1 -8.1257020852880473 -19.734413428962299 0.29354750314718103 0 0.84804809178421925 0.52991927123019833 I I #
point $-1 -8.1257020852880473 -12.396721021248553 4.8786466866453777 #
point $-1 1.8504612933471023 -19.734413428962295 0.29354750314718325 #
straight-curve $-1 0 -19.734413428962295 4.8786466866453777 1 0 0 I I #
vertex $-1 $425 $576 #
point $-1 -4.2753696913922923 -14.66020650393374 0.33704984833856666 #
vertex $-1 $429 $577 #
point $-1 0.00012889945134730851 -14.66020650393374 0.33704984833856666 #
coedge $-1 $436 $435 $443 $538 reversed $190 $-1 #
edge $-1 $439 32.24192189008032 $541 42.218085268715477 $436 $578 forward 7 unknown #
straight-curve $-1 32.24192189008032 -19.734413428962295 35.949740402491209 0 0 -1 I I #
point $-1 32.24192189008032 -19.734413428962295 4.8786466866453777 #
straight-curve $-1 18.615001789698947 -19.734413428962295 0.29354750314718375 1 0 0 I I #
edge $-1 $541 -4.8786466866453777 $444 -0.29354750314718325 $443 $579 forward 7 unknown #
point $-1 42.21808526871547 -19.734413428962295 0.29354750314718325 #
point $-1 32.24192189008032 -19.734413428962295 0.29354750314718325 #
vertex $-1 $448 $580 #
straight-curve $-1 42.218085268715477 0 4.8786466866453777 0 1 0 I I #
vertex $-1 $451 $581 #
point $-1 36.092254283976082 -14.66020650393374 0.33704984833856666 #
vertex $-1 $455 $582 #
point $-1 40.367752874819722 -14.66020650393374 0.33704984833856666 #
coedge $-1 $470 $469 $462 $548 forward $459 $-1 #
edge $-1 $549 42.090722633013087 $552 45.551855947039051 $547 $583 forward 7 unknown #
vertex $-1 $474 $584 #
straight-curve $-1 -26.505801854510462 15.50365204190088 4.878646686645375 0 1 0 I I #
edge $-1 $552 10.25006072037753 $471 22.261421547888332 $470 $585 forward 7 unknown #
vertex $-1 $551 $586 #
straight-curve $-1 -26.505801854510462 -13.737049872862396 22.332805337481688 0 -0.84804809178421925 0.52991927123019833 I I #
point $-1 -26.505801854510462 14.19544237860498 4.8786466866453786 #
point $-1 -38.517162682021265 19.734413428962295 1.4175133726194105 #
straight-curve $-1 0 19.734413428962295 4.8786466866453777 -1 0 0 I I #
vertex $-1 $477 $587 #
point $-1 -35.114890516519104 15.830777430072207 1.3330598987465798 #
vertex $-1 $481 $588 #
point $-1 -31.511482268265866 15.830777430072207 1.3330598987465798 #
vertex $-1 $485 $589 #
point $-1 -27.90807402001262 15.830777430072207 1.3330598987465798 #
straight-curve $-1 -42.218085268715477 19.734413428962295 0 0 0 -1 I I #
point $-1 -42.218085268715477 -19.734413428962295 -4.8786466866453777 #
straight-curve $-1 -42.218085268715477 0 -4.8786466866453777 0 1 0 I I #
point $-1 -42.218085268715477 19.734413428962295 -4.8786466866453777 #
straight-curve $-1 -38.517162682021265 -8.8672067144811475 -4.8786466866453777 0 -1 0 I I #
straight-curve $-1 -38.517162682021265 -8.8672067144811475 4.8786466866453777 0 1 0 I I #
straight-curve $-1 -42.218085268715477 -16.234413428962295 0 0 0 -1 I I #
point $-1 -42.218085268715484 -16.234413428962295 -4.8786466866453777 #
point $-1 -42.218085268715484 -16.234413428962295 4.8786466866453777 #
straight-curve $-1 -8.1257020852880473 -19.734413428962295 35.949740402491209 0 0 -1 I I #
point $-1 -8.1257020852880473 -19.734413428962295 4.8786466866453777 #
straight-curve $-1 -1.5688101979852362 -19.734413428962295 0.29354750314718375 1 0 0 I I #
point $-1 -8.1257020852880473 -19.734413428962295 0.29354750314718325 #
point $-1 -5.2753696913922923 -14.130287232703541 -0.51099824344565259 #
point $-1 -0.99987110054865269 -14.130287232703541 -0.51099824344565259 #
straight-curve $-1 0 -19.734413428962295 4.8786466866453777 1 0 0 I I #
straight-curve $-1 42.218085268715477 -19.734413428962295 0 0 0 -1 I I #
point $-1 42.218085268715477 -19.734413428962295 4.8786466866453777 #
point $-1 35.092254283976082 -14.130287232703541 -0.51099824344565259 #
point $-1 39.367752874819722 -14.130287232703541 -0.51099824344565259 #
straight-curve $-1 -26.505801854510462 19.734413428962295 46.969369319658462 0 0 -1 I I #
point $-1 -26.505801854510462 19.734413428962295 4.8786466866453777 #
straight-curve $-1 -16.255741134132933 19.734413428962295 1.4175133726194069 -1 0 0 I I #
point $-1 -26.505801854510462 19.734413428962295 1.4175133726194105 #
point $-1 -36.114890516519104 15.300858158842008 0.48501180696236018 #
point $-1 -32.511482268265866 15.300858158842008 0.48501180696236018 #
point $-1 -28.90807402001262 15.300858158842008 0.48501180696236018 #
End-of-ACIS-data 