500 0 8 0           
7 Unknown 11 ACIS 5.0 NT 24 Fri Mar 26 18:31:37 1999 
-1 9.9999999999999995e-007 1e-010 
body $-1 $8 $-1 $9 #
body $-1 $10 $-1 $11 #
body $-1 $12 $-1 $13 #
body $-1 $14 $-1 $15 #
body $-1 $16 $-1 $17 #
body $-1 $18 $-1 $19 #
body $-1 $20 $-1 $21 #
body $-1 $22 $-1 $23 #
lump $-1 $-1 $24 $0 #
transform $-1 1 0 0 0 1 0 0 0 1 42.429273354289379 28.099244989473732 13.477981614888751 1 rotate no_reflect no_shear #
lump $-1 $-1 $25 $1 #
transform $-1 1 0 0 0 1 0 0 0 1 42.429273354289379 28.099244989473732 13.477981614888751 1 rotate no_reflect no_shear #
lump $-1 $-1 $26 $2 #
transform $-1 1 0 0 0 1 0 0 0 1 42.429273354289379 28.099244989473732 13.477981614888751 1 rotate no_reflect no_shear #
lump $-1 $-1 $27 $3 #
transform $-1 1 0 0 0 1 0 0 0 1 42.429273354289379 28.099244989473732 13.477981614888751 1 rotate no_reflect no_shear #
lump $-1 $-1 $28 $4 #
transform $-1 1 0 0 0 1 0 0 0 1 42.429273354289379 28.099244989473732 13.477981614888751 1 rotate no_reflect no_shear #
lump $-1 $-1 $29 $5 #
transform $-1 1 0 0 0 1 0 0 0 1 42.429273354289379 28.099244989473732 13.477981614888751 1 rotate no_reflect no_shear #
lump $-1 $-1 $30 $6 #
transform $-1 1 0 0 0 1 0 0 0 1 42.429273354289379 28.099244989473732 13.477981614888751 1 rotate no_reflect no_shear #
lump $-1 $-1 $31 $7 #
transform $-1 1 0 0 0 1 0 0 0 1 42.429273354289379 28.099244989473732 13.477981614888751 1 rotate no_reflect no_shear #
shell $-1 $-1 $-1 $32 $-1 $8 #
shell $-1 $-1 $-1 $33 $-1 $10 #
shell $-1 $-1 $-1 $34 $-1 $12 #
shell $-1 $-1 $-1 $35 $-1 $14 #
shell $-1 $-1 $-1 $36 $-1 $16 #
shell $-1 $-1 $-1 $37 $-1 $18 #
shell $-1 $-1 $-1 $38 $-1 $20 #
shell $-1 $-1 $-1 $39 $-1 $22 #
face $-1 $40 $41 $24 $-1 $42 forward single #
face $-1 $43 $44 $25 $-1 $45 forward single #
face $-1 $46 $47 $26 $-1 $48 reversed single #
face $-1 $49 $50 $27 $-1 $51 forward single #
face $-1 $52 $53 $28 $-1 $54 reversed single #
face $-1 $55 $56 $29 $-1 $57 forward single #
face $-1 $58 $59 $30 $-1 $60 forward single #
face $-1 $61 $62 $31 $-1 $63 forward single #
face $-1 $64 $65 $24 $-1 $66 reversed single #
loop $-1 $-1 $67 $32 #
plane-surface $-1 0 0 13.477981614888751 0 0 1 1 0 0 forward_v I I I I #
face $-1 $68 $69 $25 $-1 $70 reversed single #
loop $-1 $-1 $71 $33 #
plane-surface $-1 0 -20.989549016753244 6.9139660233942326 0 0 1 1 0 0 forward_v I I I I #
face $-1 $72 $73 $26 $-1 $74 reversed single #
loop $-1 $-1 $75 $34 #
plane-surface $-1 11.368890427358096 17.010520683879886 124.18952363984242 0 1 0 0.50000000669873634 0 0.8660253999169214 forward_v I I I I #
face $-1 $76 $77 $27 $-1 $78 forward single #
loop $-1 $79 $80 $35 #
cone-surface $-1 37.445696848450787 22.554882836676803 10.053562525945349 -0.50000000669873634 0 -0.8660253999169214 1.2990380998753821 0 -0.75000001004810457 1 I I 0 1 1.5 forward I I I I #
face $-1 $81 $82 $28 $-1 $83 reversed single #
loop $-1 $-1 $84 $36 #
plane-surface $-1 -42.429273354289379 -9.7686566024205597 1.0766736075115375 -0.86602541151947299 0 0.49999998660252726 0.49999998660252726 0 0.86602541151947299 forward_v I I I I #
face $-1 $85 $86 $29 $-1 $87 forward single #
loop $-1 $88 $89 $37 #
cone-surface $-1 -38.416311518247689 -12.23537446738788 7.0273276178988802 0.86602541151947299 0 -0.49999998660252726 0.24999999330126363 0 0.43301270575973649 1 I I 0 1 0.5 forward I I I I #
face $-1 $90 $91 $30 $-1 $92 forward single #
loop $-1 $93 $94 $38 #
cone-surface $-1 -38.416311518247689 -9.7686566024205632 7.0273276178988802 0.86602541151947299 0 -0.49999998660252726 0.24999999330126363 0 0.43301270575973649 1 I I 0 1 0.5 forward I I I I #
face $-1 $95 $96 $31 $-1 $97 forward single #
loop $-1 $98 $99 $39 #
cone-surface $-1 -38.416311518247689 -7.301938737453245 7.0273276178988802 0.86602541151947299 0 -0.49999998660252726 0.24999999330126363 0 0.43301270575973649 1 I I 0 1 0.5 forward I I I I #
face $-1 $100 $101 $24 $-1 $102 reversed single #
loop $-1 $-1 $103 $40 #
plane-surface $-1 0 0 -13.477981614888751 0 0 1 1 0 0 forward_v I I I I #
coedge $-1 $104 $105 $106 $107 forward $41 $-1 #
face $-1 $108 $109 $25 $-1 $110 reversed single #
loop $-1 $-1 $111 $43 #
plane-surface $-1 0 -20.989549016753244 -0.67560976837670417 0 0 1 1 0 0 forward_v I I I I #
coedge $-1 $112 $113 $114 $115 reversed $44 $-1 #
face $-1 $116 $117 $26 $-1 $118 forward single #
loop $-1 $-1 $119 $46 #
plane-surface $-1 -31.060383495376314 22.554882836676811 50.699866790176742 0.50000000669873634 0 0.8660253999169214 0.8660253999169214 0 -0.50000000669873634 forward_v I I I I #
coedge $-1 $120 $121 $122 $123 reversed $47 $-1 #
face $-1 $-1 $124 $27 $-1 $125 forward single #
loop $-1 $126 $127 $49 #
cone-surface $-1 36.59685119969933 22.554882836676803 8.5833187607874599 -0.50000000669873634 0 -0.8660253999169214 0.64951904993769105 0 -0.37500000502405229 1 I I -0.70710678118654757 0.70710678118654757 0.75 forward I I I I #
loop $-1 $-1 $128 $35 #
coedge $-1 $80 $80 $129 $130 reversed $50 $-1 #
face $-1 $131 $132 $28 $-1 $133 reversed single #
loop $-1 $-1 $134 $52 #
plane-surface $-1 -115.91893118853072 -5.6574601608083617 43.505945824910853 0 -1 0 0.86602541151947299 0 -0.49999998660252726 forward_v I I I I #
coedge $-1 $135 $136 $137 $138 reversed $53 $-1 #
face $-1 $-1 $139 $29 $-1 $140 forward single #
loop $-1 $141 $142 $55 #
cone-surface $-1 -37.766792459608084 -12.23537446738788 6.6523276279469847 0.86602541151947299 0 -0.49999998660252726 0.12499999665063181 0 0.21650635287986825 1 I I -0.70710678118654746 0.70710678118654746 0.25 forward I I I I #
loop $-1 $-1 $143 $37 #
coedge $-1 $89 $89 $144 $145 reversed $56 $-1 #
face $-1 $-1 $146 $30 $-1 $147 forward single #
loop $-1 $148 $149 $58 #
cone-surface $-1 -37.766792459608084 -9.7686566024205632 6.6523276279469847 0.86602541151947299 0 -0.49999998660252726 0.12499999665063181 0 0.21650635287986825 1 I I -0.70710678118654746 0.70710678118654746 0.25 forward I I I I #
loop $-1 $-1 $150 $38 #
coedge $-1 $94 $94 $151 $152 reversed $59 $-1 #
face $-1 $-1 $153 $31 $-1 $154 forward single #
loop $-1 $155 $156 $61 #
cone-surface $-1 -37.766792459608084 -7.301938737453245 6.6523276279469847 0.86602541151947299 0 -0.49999998660252726 0.12499999665063181 0 0.21650635287986825 1 I I -0.70710678118654746 0.70710678118654746 0.25 forward I I I I #
loop $-1 $-1 $157 $39 #
coedge $-1 $99 $99 $158 $159 reversed $62 $-1 #
face $-1 $160 $161 $24 $-1 $162 reversed single #
loop $-1 $-1 $163 $64 #
plane-surface $-1 0 -28.099244989473732 0 0 1 0 0 0 1 forward_v I I I I #
coedge $-1 $164 $165 $166 $167 forward $65 $-1 #
coedge $-1 $168 $67 $169 $170 forward $41 $-1 #
coedge $-1 $67 $168 $171 $172 forward $41 $-1 #
coedge $-1 $173 $174 $67 $107 reversed $175 $-1 #
edge $-1 $176 -28.099244989473732 $177 28.099244989473732 $106 $178 forward 7 unknown #
face $-1 $179 $180 $25 $-1 $181 reversed single #
loop $-1 $-1 $182 $68 #
plane-surface $-1 0 -13.879853044032757 3.1191781275087642 0 -1 0 0 0 -1 forward_v I I I I #
coedge $-1 $183 $184 $185 $186 reversed $69 $-1 #
coedge $-1 $187 $71 $188 $189 forward $44 $-1 #
coedge $-1 $71 $187 $190 $191 reversed $44 $-1 #
coedge $-1 $192 $193 $71 $115 forward $194 $-1 #
edge $-1 $195 3.3850785356561346 $196 17.60447048109711 $114 $197 forward 7 unknown #
face $-1 $198 $199 $26 $-1 $200 reversed single #
loop $-1 $-1 $201 $72 #
plane-surface $-1 0 0 13.477981614888751 0 0 1 1 0 0 forward_v I I I I #
coedge $-1 $202 $203 $204 $205 reversed $73 $-1 #
coedge $-1 $121 $75 $206 $207 reversed $47 $-1 #
coedge $-1 $75 $120 $202 $208 reversed $47 $-1 #
coedge $-1 $204 $209 $75 $123 forward $199 $-1 #
edge $-1 $210 48.616780205032455 $211 53.824168952478892 $122 $212 forward 7 unknown #
loop $-1 $-1 $129 $76 #
plane-surface $-1 -31.060383495376314 22.554882836676811 50.699866790176742 0.50000000669873634 0 0.8660253999169214 0.8660253999169214 0 -0.50000000669873634 forward_v I I I I #
loop $-1 $-1 $213 $49 #
coedge $-1 $127 $127 $128 $214 reversed $77 $-1 #
coedge $-1 $128 $128 $127 $214 forward $79 $-1 #
coedge $-1 $129 $129 $80 $130 forward $124 $-1 #
edge $-1 $215 0 $215 6.2831853071796004 $129 $216 forward 7 unknown #
face $-1 $217 $218 $28 $-1 $219 forward single #
loop $-1 $-1 $220 $81 #
plane-surface $-1 -42.429273354289379 0 0 1 0 0 0 0 -1 forward_v I I I I #
coedge $-1 $221 $222 $223 $224 reversed $82 $-1 #
coedge $-1 $225 $84 $226 $227 forward $53 $-1 #
coedge $-1 $84 $225 $221 $228 forward $53 $-1 #
coedge $-1 $223 $229 $84 $138 forward $230 $-1 #
edge $-1 $231 -8.9955247428224769 $232 -0.77313185959808184 $137 $233 forward 7 unknown #
loop $-1 $-1 $144 $85 #
plane-surface $-1 -42.429273354289379 -9.7686566024205597 1.0766736075115375 -0.86602541151947299 0 0.49999998660252726 0.49999998660252726 0 0.86602541151947299 forward_v I I I I #
loop $-1 $-1 $234 $55 #
coedge $-1 $142 $142 $143 $235 reversed $86 $-1 #
coedge $-1 $143 $143 $142 $235 forward $88 $-1 #
coedge $-1 $144 $144 $89 $145 forward $139 $-1 #
edge $-1 $236 0 $236 6.2831853071796004 $144 $237 forward 7 unknown #
loop $-1 $-1 $151 $90 #
plane-surface $-1 -42.429273354289379 -9.7686566024205597 1.0766736075115375 -0.86602541151947299 0 0.49999998660252726 0.49999998660252726 0 0.86602541151947299 forward_v I I I I #
loop $-1 $-1 $238 $58 #
coedge $-1 $149 $149 $150 $239 reversed $91 $-1 #
coedge $-1 $150 $150 $149 $239 forward $93 $-1 #
coedge $-1 $151 $151 $94 $152 forward $146 $-1 #
edge $-1 $240 0 $240 6.2831853071796004 $151 $241 forward 7 unknown #
loop $-1 $-1 $158 $95 #
plane-surface $-1 -42.429273354289379 -9.7686566024205597 1.0766736075115375 -0.86602541151947299 0 0.49999998660252726 0.49999998660252726 0 0.86602541151947299 forward_v I I I I #
loop $-1 $-1 $242 $61 #
coedge $-1 $156 $156 $157 $243 reversed $96 $-1 #
coedge $-1 $157 $157 $156 $243 forward $98 $-1 #
coedge $-1 $158 $158 $99 $159 forward $153 $-1 #
edge $-1 $244 0 $244 6.2831853071796004 $158 $245 forward 7 unknown #
face $-1 $246 $247 $24 $-1 $248 reversed single #
loop $-1 $-1 $249 $100 #
plane-surface $-1 -42.429273354289379 0 0 1 0 0 0 0 -1 forward_v I I I I #
coedge $-1 $250 $171 $251 $252 forward $101 $-1 #
coedge $-1 $253 $103 $250 $254 forward $65 $-1 #
coedge $-1 $103 $253 $255 $256 forward $65 $-1 #
coedge $-1 $174 $173 $103 $167 reversed $175 $-1 #
edge $-1 $257 -28.099244989473732 $258 28.099244989473732 $166 $259 forward 7 unknown #
coedge $-1 $105 $104 $260 $261 forward $41 $-1 #
coedge $-1 $262 $263 $104 $170 reversed $247 $-1 #
edge $-1 $177 -42.429273354289379 $264 42.429273354289379 $169 $265 forward 7 unknown #
coedge $-1 $163 $266 $105 $172 reversed $101 $-1 #
edge $-1 $267 -42.429273354289379 $176 42.429273354289379 $171 $268 forward 7 unknown #
coedge $-1 $166 $106 $266 $269 forward $175 $-1 #
coedge $-1 $106 $166 $262 $270 reversed $175 $-1 #
loop $-1 $-1 $173 $246 #
vertex $-1 $107 $271 #
vertex $-1 $107 $272 #
straight-curve $-1 42.429273354289379 0 13.477981614888751 0 1 0 I I #
face $-1 $273 $274 $25 $-1 $275 reversed single #
loop $-1 $-1 $276 $108 #
plane-surface $-1 -42.429273354289379 0 0 1 0 0 0 0 -1 forward_v I I I I #
coedge $-1 $277 $188 $193 $278 reversed $109 $-1 #
coedge $-1 $279 $111 $280 $281 reversed $69 $-1 #
coedge $-1 $111 $279 $277 $282 forward $69 $-1 #
coedge $-1 $193 $192 $111 $186 forward $194 $-1 #
edge $-1 $283 -17.60447048109711 $284 -3.3850785356561346 $185 $285 forward 7 unknown #
coedge $-1 $113 $112 $276 $286 reversed $44 $-1 #
coedge $-1 $182 $287 $112 $189 reversed $109 $-1 #
edge $-1 $195 -42.429273354289379 $288 42.429273354289379 $188 $289 forward 7 unknown #
coedge $-1 $290 $291 $113 $191 forward $274 $-1 #
edge $-1 $196 -42.429273354289379 $292 42.429273354289379 $190 $293 forward 7 unknown #
coedge $-1 $185 $114 $291 $294 forward $194 $-1 #
coedge $-1 $114 $185 $182 $278 forward $194 $-1 #
loop $-1 $-1 $114 $273 #
vertex $-1 $115 $295 #
vertex $-1 $294 $296 #
straight-curve $-1 42.429273354289379 -10.494774508376622 6.9139660233942326 0 -1 0 I I #
face $-1 $-1 $297 $26 $-1 $298 reversed single #
loop $-1 $-1 $122 $116 #
plane-surface $-1 42.429273354289379 0 0 -1 0 0 0 0 1 forward_v I I I I #
coedge $-1 $206 $299 $300 $301 forward $117 $-1 #
coedge $-1 $300 $119 $121 $208 forward $73 $-1 #
coedge $-1 $119 $300 $302 $303 reversed $73 $-1 #
coedge $-1 $304 $122 $119 $205 forward $199 $-1 #
edge $-1 $211 5.7330792655414804 $305 16.82180357113533 $204 $306 forward 7 unknown #
coedge $-1 $307 $201 $120 $207 forward $117 $-1 #
edge $-1 $308 27.725366416387978 $210 36.744828140610331 $206 $309 forward 7 unknown #
edge $-1 $211 -84.858546708578785 $308 -74.443769353217618 $121 $310 forward 7 unknown #
coedge $-1 $122 $304 $307 $311 reversed $199 $-1 #
vertex $-1 $311 $312 #
vertex $-1 $123 $313 #
straight-curve $-1 42.429273354289379 17.010520683879886 62.09476181992121 0 0 -1 I I #
coedge $-1 $213 $213 $-1 $314 reversed $126 $-1 #
edge $-1 $315 0 $315 6.2831853071796004 $127 $316 forward 7 unknown #
vertex $-1 $130 $317 #
ellipse-curve $-1 37.919542492178188 22.554882836676803 10.87428724116554 0.50000000669873634 0 0.8660253999169214 1.2990380998753821 0 -0.75000001004810457 1 I I #
face $-1 $-1 $230 $28 $-1 $318 forward single #
loop $-1 $-1 $226 $131 #
plane-surface $-1 0 -13.879853044032757 3.1191781275087642 0 -1 0 0 0 -1 forward_v I I I I #
coedge $-1 $319 $320 $222 $321 forward $132 $-1 #
coedge $-1 $222 $134 $136 $228 reversed $82 $-1 #
coedge $-1 $134 $221 $220 $321 reversed $82 $-1 #
coedge $-1 $322 $137 $134 $224 forward $230 $-1 #
edge $-1 $232 -22.690090500539895 $323 -15.530192239975982 $223 $324 forward 7 unknown #
coedge $-1 $136 $135 $319 $325 reversed $53 $-1 #
coedge $-1 $326 $327 $135 $227 reversed $218 $-1 #
edge $-1 $231 -14.319796904826003 $328 0 $226 $329 forward 7 unknown #
edge $-1 $330 0 $232 14.319796904826003 $221 $331 forward 7 unknown #
coedge $-1 $137 $322 $326 $332 forward $230 $-1 #
loop $-1 $-1 $223 $217 #
vertex $-1 $138 $333 #
vertex $-1 $138 $334 #
straight-curve $-1 -35.269375093725465 -4.8843283012102798 13.477981614888751 0 1 0 I I #
coedge $-1 $234 $234 $-1 $335 reversed $141 $-1 #
edge $-1 $336 0 $336 6.2831853071796004 $142 $337 forward 7 unknown #
vertex $-1 $145 $338 #
ellipse-curve $-1 -38.849324224007425 -12.23537446738788 7.2773276112001426 -0.86602541151947299 0 0.49999998660252726 0.24999999330126363 0 0.43301270575973649 1 I I #
coedge $-1 $238 $238 $-1 $339 reversed $148 $-1 #
edge $-1 $340 0 $340 6.2831853071796004 $149 $341 forward 7 unknown #
vertex $-1 $152 $342 #
ellipse-curve $-1 -38.849324224007425 -9.7686566024205632 7.2773276112001426 -0.86602541151947299 0 0.49999998660252726 0.24999999330126363 0 0.43301270575973649 1 I I #
coedge $-1 $242 $242 $-1 $343 reversed $155 $-1 #
edge $-1 $344 0 $344 6.2831853071796004 $156 $345 forward 7 unknown #
vertex $-1 $159 $346 #
ellipse-curve $-1 -38.849324224007425 -7.301938737453245 7.2773276112001426 -0.86602541151947299 0 0.49999998660252726 0.24999999330126363 0 0.43301270575973649 1 I I #
face $-1 $-1 $175 $24 $-1 $347 reversed single #
loop $-1 $-1 $262 $160 #
plane-surface $-1 0 28.099244989473732 0 0 -1 0 0 0 -1 forward_v I I I I #
coedge $-1 $348 $260 $263 $349 forward $161 $-1 #
coedge $-1 $266 $163 $164 $254 reversed $101 $-1 #
coedge $-1 $260 $348 $163 $252 reversed $161 $-1 #
edge $-1 $267 -13.477981614888751 $350 13.477981614888751 $251 $351 forward 7 unknown #
coedge $-1 $165 $164 $348 $352 forward $65 $-1 #
edge $-1 $258 -42.429273354289379 $350 42.429273354289379 $250 $353 forward 7 unknown #
coedge $-1 $263 $262 $165 $256 reversed $247 $-1 #
edge $-1 $354 -42.429273354289379 $257 42.429273354289379 $255 $355 forward 7 unknown #
vertex $-1 $167 $356 #
vertex $-1 $269 $357 #
straight-curve $-1 42.429273354289379 0 -13.477981614888751 0 -1 0 I I #
coedge $-1 $249 $251 $168 $261 reversed $161 $-1 #
edge $-1 $264 -28.099244989473732 $267 28.099244989473732 $260 $358 forward 7 unknown #
coedge $-1 $255 $169 $174 $270 forward $247 $-1 #
coedge $-1 $169 $255 $249 $349 reversed $247 $-1 #
vertex $-1 $170 $359 #
straight-curve $-1 0 28.099244989473732 13.477981614888751 -1 0 0 I I #
coedge $-1 $171 $250 $173 $269 reversed $101 $-1 #
vertex $-1 $261 $360 #
straight-curve $-1 0 -28.099244989473732 13.477981614888751 1 0 0 I I #
edge $-1 $176 -13.477981614888751 $258 13.477981614888751 $173 $361 forward 7 unknown #
edge $-1 $177 -13.477981614888751 $257 13.477981614888751 $174 $362 forward 7 unknown #
point $-1 42.429273354289379 -28.099244989473732 13.477981614888751 #
point $-1 42.429273354289379 28.099244989473732 13.477981614888751 #
face $-1 $-1 $194 $25 $-1 $363 reversed single #
loop $-1 $-1 $190 $179 #
plane-surface $-1 0 -28.099244989473732 0 0 1 0 0 0 1 forward_v I I I I #
coedge $-1 $364 $365 $187 $286 forward $180 $-1 #
coedge $-1 $287 $182 $184 $282 reversed $109 $-1 #
edge $-1 $284 -2.2351988321310863 $195 5.3543769596398505 $193 $366 forward 7 unknown #
coedge $-1 $184 $183 $367 $368 reversed $69 $-1 #
coedge $-1 $291 $290 $183 $281 forward $274 $-1 #
edge $-1 $369 -42.429273354289379 $283 42.429273354289379 $280 $370 forward 7 unknown #
edge $-1 $371 -42.429273354289379 $284 42.429273354289379 $277 $372 forward 7 unknown #
vertex $-1 $281 $373 #
vertex $-1 $186 $374 #
straight-curve $-1 42.429273354289379 -10.494774508376622 -0.67560976837670417 0 1 0 I I #
edge $-1 $292 -17.60447048109711 $288 -3.3850785356561346 $276 $375 forward 7 unknown #
coedge $-1 $188 $277 $364 $376 reversed $109 $-1 #
vertex $-1 $286 $377 #
straight-curve $-1 0 -13.879853044032757 6.9139660233942326 -1 0 0 I I #
coedge $-1 $280 $190 $365 $378 forward $274 $-1 #
coedge $-1 $190 $280 $192 $294 reversed $274 $-1 #
vertex $-1 $378 $379 #
straight-curve $-1 0 -28.099244989473732 6.9139660233942326 -1 0 0 I I #
edge $-1 $196 -6.9139660233942326 $283 0.67560976837670417 $192 $380 forward 7 unknown #
point $-1 42.429273354289379 -13.879853044032757 6.9139660233942326 #
point $-1 42.429273354289379 -28.099244989473732 6.9139660233942326 #
loop $-1 $-1 $302 $198 #
plane-surface $-1 0 28.099244989473732 0 0 -1 0 0 0 -1 forward_v I I I I #
coedge $-1 $201 $307 $381 $382 forward $117 $-1 #
coedge $-1 $203 $202 $201 $301 reversed $73 $-1 #
edge $-1 $383 -16.82180357113533 $308 -5.7330792655414804 $201 $384 forward 7 unknown #
coedge $-1 $381 $385 $203 $303 forward $297 $-1 #
edge $-1 $305 -58.734039322143971 $383 -48.319261966782804 $302 $386 forward 7 unknown #
coedge $-1 $209 $204 $385 $387 reversed $199 $-1 #
vertex $-1 $303 $388 #
straight-curve $-1 42.429273354289379 11.277441418338405 8.2705928674423248 0 1 0 I I #
coedge $-1 $299 $206 $209 $311 forward $117 $-1 #
vertex $-1 $207 $389 #
straight-curve $-1 5.684445213679048 17.010520683879886 13.477981614888748 1 0 0 I I #
straight-curve $-1 -31.060383495376314 17.010520683879886 50.699866790176742 -0.8660253999169214 0 0.50000000669873634 I I #
edge $-1 $210 17.010520683879886 $390 28.099244989473732 $209 $391 forward 7 unknown #
point $-1 42.429273354289379 17.010520683879886 13.477981614888751 #
point $-1 42.429273354289379 17.010520683879886 8.2705928674423177 #
edge $-1 $392 1 $392 0 $213 $-1 forward 7 unknown #
vertex $-1 $214 $393 #
ellipse-curve $-1 36.971851204723379 22.554882836676803 9.232837810725151 0.50000000669873634 0 0.8660253999169214 1.2990380998753821 0 -0.75000001004810457 1 I I #
point $-1 39.21858059205357 22.554882836676803 10.124287231117439 #
plane-surface $-1 0 0 13.477981614888751 0 0 1 1 0 0 forward_v I I I I #
coedge $-1 $394 $220 $225 $325 forward $132 $-1 #
coedge $-1 $220 $394 $322 $395 reversed $132 $-1 #
edge $-1 $323 8.2749912975666753 $330 20.676299304943889 $220 $396 forward 7 unknown #
coedge $-1 $229 $223 $320 $395 forward $230 $-1 #
vertex $-1 $395 $397 #
straight-curve $-1 -57.95946559426536 -5.6574601608083617 13.477981614888751 -1 0 0 I I #
edge $-1 $330 0.77313185959808184 $328 8.9955247428224769 $319 $398 forward 7 unknown #
coedge $-1 $327 $226 $229 $332 reversed $218 $-1 #
coedge $-1 $226 $326 $394 $399 reversed $218 $-1 #
vertex $-1 $399 $400 #
straight-curve $-1 -42.429273354289379 -13.879853044032757 1.0766736075115375 -0.49999998660252726 0 -0.86602541151947299 I I #
vertex $-1 $325 $401 #
straight-curve $-1 -42.429273354289379 -5.6574601608083617 1.0766736075115375 0.49999998660252726 0 0.86602541151947299 I I #
edge $-1 $402 15.530192239975982 $231 22.690090500539895 $229 $403 forward 7 unknown #
point $-1 -35.269375093725465 -13.879853044032757 13.477981614888751 #
point $-1 -35.269375093725465 -5.6574601608083617 13.477981614888751 #
edge $-1 $404 1 $404 0 $234 $-1 forward 7 unknown #
vertex $-1 $235 $405 #
ellipse-curve $-1 -37.983298812487952 -12.23537446738788 6.7773276245976168 -0.86602541151947299 0 0.49999998660252726 0.24999999330126363 0 0.43301270575973649 1 I I #
point $-1 -38.599324230706159 -12.23537446738788 7.7103403169598801 #
edge $-1 $406 1 $406 0 $238 $-1 forward 7 unknown #
vertex $-1 $239 $407 #
ellipse-curve $-1 -37.983298812487952 -9.7686566024205632 6.7773276245976168 -0.86602541151947299 0 0.49999998660252726 0.24999999330126363 0 0.43301270575973649 1 I I #
point $-1 -38.599324230706159 -9.7686566024205632 7.7103403169598801 #
edge $-1 $408 1 $408 0 $242 $-1 forward 7 unknown #
vertex $-1 $243 $409 #
ellipse-curve $-1 -37.983298812487952 -7.301938737453245 6.7773276245976168 -0.86602541151947299 0 0.49999998660252726 0.24999999330126363 0 0.43301270575973649 1 I I #
point $-1 -38.599324230706159 -7.301938737453245 7.7103403169598801 #
plane-surface $-1 42.429273354289379 0 0 -1 0 0 0 0 1 forward_v I I I I #
coedge $-1 $251 $249 $253 $352 reversed $161 $-1 #
edge $-1 $264 -13.477981614888751 $354 13.477981614888751 $263 $410 forward 7 unknown #
vertex $-1 $352 $411 #
straight-curve $-1 -42.429273354289379 -28.099244989473732 0 0 0 -1 I I #
edge $-1 $350 -28.099244989473732 $354 28.099244989473732 $348 $412 forward 7 unknown #
straight-curve $-1 0 -28.099244989473732 -13.477981614888751 -1 0 0 I I #
vertex $-1 $256 $413 #
straight-curve $-1 0 28.099244989473732 -13.477981614888751 1 0 0 I I #
point $-1 42.429273354289379 28.099244989473732 -13.477981614888751 #
point $-1 42.429273354289379 -28.099244989473732 -13.477981614888751 #
straight-curve $-1 -42.429273354289379 0 13.477981614888751 0 -1 0 I I #
point $-1 -42.429273354289379 28.099244989473732 13.477981614888751 #
point $-1 -42.429273354289379 -28.099244989473732 13.477981614888751 #
straight-curve $-1 42.429273354289379 -28.099244989473732 0 0 0 -1 I I #
straight-curve $-1 42.429273354289379 28.099244989473732 0 0 0 -1 I I #
plane-surface $-1 42.429273354289379 0 0 -1 0 0 0 0 1 forward_v I I I I #
coedge $-1 $367 $276 $287 $376 forward $180 $-1 #
coedge $-1 $276 $367 $290 $378 reversed $180 $-1 #
straight-curve $-1 42.429273354289379 -13.879853044032757 1.5595890637543821 0 0 1 I I #
coedge $-1 $365 $364 $279 $368 forward $180 $-1 #
edge $-1 $371 3.3850785356561346 $369 17.60447048109711 $367 $414 forward 7 unknown #
vertex $-1 $281 $415 #
straight-curve $-1 0 -28.099244989473732 -0.67560976837670417 1 0 0 I I #
vertex $-1 $368 $416 #
straight-curve $-1 0 -13.879853044032757 -0.67560976837670417 1 0 0 I I #
point $-1 42.429273354289379 -28.099244989473732 -0.67560976837670417 #
point $-1 42.429273354289379 -13.879853044032757 -0.67560976837670417 #
straight-curve $-1 -42.429273354289379 -10.494774508376622 6.9139660233942326 0 1 0 I I #
edge $-1 $288 -5.3543769596398505 $371 2.2351988321310863 $364 $417 forward 7 unknown #
point $-1 -42.429273354289379 -13.879853044032757 6.9139660233942326 #
edge $-1 $292 -6.9139660233942326 $369 0.67560976837670417 $365 $418 forward 7 unknown #
point $-1 -42.429273354289379 -28.099244989473732 6.9139660233942326 #
straight-curve $-1 42.429273354289379 -28.099244989473732 0 0 0 -1 I I #
coedge $-1 $385 $302 $299 $382 reversed $297 $-1 #
edge $-1 $390 -42.429273354289379 $383 -33.409811630067026 $381 $419 forward 7 unknown #
vertex $-1 $303 $420 #
straight-curve $-1 33.409811630067011 11.277441418338405 13.477981614888751 0 -1 0 I I #
coedge $-1 $302 $381 $304 $387 forward $297 $-1 #
straight-curve $-1 -8.4358965384065385 28.099244989473732 37.637612921958151 -0.8660253999169214 0 0.50000000669873634 I I #
edge $-1 $390 -13.477981614888751 $305 -8.2705928674423177 $304 $421 forward 7 unknown #
point $-1 42.429273354289379 28.099244989473736 8.2705928674423177 #
point $-1 33.409811630067026 17.010520683879886 13.477981614888748 #
vertex $-1 $311 $422 #
straight-curve $-1 42.429273354289379 0 13.477981614888751 0 1 0 I I #
vertex $-1 $314 $423 #
point $-1 38.270889304598768 22.554882836676803 8.4828378006770464 #
coedge $-1 $320 $319 $327 $399 forward $132 $-1 #
edge $-1 $323 5.6574601608083617 $402 13.879853044032757 $320 $424 forward 7 unknown #
straight-curve $-1 -42.429273354289379 -5.6574601608083617 21.752972912455427 0 0 -1 I I #
point $-1 -42.429273354289379 -5.6574601608083617 13.477981614888751 #
straight-curve $-1 -42.429273354289379 -4.8843283012102798 1.0766736075115324 0 -1 0 I I #
edge $-1 $328 -20.676299304943889 $402 -8.2749912975666753 $394 $425 forward 7 unknown #
point $-1 -42.429273354289379 -13.879853044032757 1.0766736075115375 #
point $-1 -42.429273354289379 -5.6574601608083617 1.0766736075115375 #
vertex $-1 $399 $426 #
straight-curve $-1 -57.95946559426536 -13.879853044032757 13.477981614888751 1 0 0 I I #
vertex $-1 $335 $427 #
point $-1 -37.733298819186686 -12.23537446738788 7.2103403303573526 #
vertex $-1 $339 $428 #
point $-1 -37.733298819186686 -9.7686566024205632 7.2103403303573526 #
vertex $-1 $343 $429 #
point $-1 -37.733298819186686 -7.301938737453245 7.2103403303573526 #
straight-curve $-1 -42.429273354289379 28.099244989473732 0 0 0 -1 I I #
point $-1 -42.429273354289379 -28.099244989473732 -13.477981614888751 #
straight-curve $-1 -42.429273354289379 0 -13.477981614888751 0 1 0 I I #
point $-1 -42.429273354289379 28.099244989473732 -13.477981614888751 #
straight-curve $-1 -42.429273354289379 -10.494774508376622 -0.67560976837670417 0 -1 0 I I #
point $-1 -42.429273354289379 -28.099244989473732 -0.67560976837670417 #
point $-1 -42.429273354289379 -13.879853044032757 -0.67560976837670417 #
straight-curve $-1 -42.429273354289379 -13.879853044032757 1.5595890637543821 0 0 -1 I I #
straight-curve $-1 -42.429273354289379 -28.099244989473732 0 0 0 -1 I I #
straight-curve $-1 0 28.099244989473732 13.477981614888751 -1 0 0 I I #
point $-1 33.409811630067026 28.099244989473736 13.477981614888748 #
straight-curve $-1 42.429273354289379 28.099244989473732 0 0 0 -1 I I #
point $-1 42.429273354289379 28.099244989473732 13.477981614888751 #
point $-1 36.221851194675281 22.554882836676803 7.9337997108497689 #
straight-curve $-1 -42.429273354289379 0 13.477981614888751 0 -1 0 I I #
straight-curve $-1 -42.429273354289379 -13.879853044032757 21.752972912455427 0 0 1 I I #
point $-1 -42.429273354289379 -13.879853044032757 13.477981614888751 #
point $-1 -37.550286106728215 -12.23537446738788 6.5273276312963526 #
point $-1 -37.550286106728215 -9.7686566024205632 6.5273276312963526 #
point $-1 -37.550286106728215 -7.301938737453245 6.5273276312963526 #
End-of-ACIS-data 