500 0 8 0           
7 Unknown 11 ACIS 5.0 NT 24 Fri Mar 26 00:57:29 1999 
-1 9.9999999999999995e-007 1e-010 
body $-1 $8 $-1 $9 #
body $-1 $10 $-1 $11 #
body $-1 $12 $-1 $13 #
body $-1 $14 $-1 $15 #
body $-1 $16 $-1 $17 #
body $-1 $18 $-1 $19 #
body $-1 $20 $-1 $21 #
body $-1 $22 $-1 $23 #
lump $-1 $-1 $24 $0 #
transform $-1 1 0 0 0 1 0 0 0 1 45.131992553483684 20.783277750115239 7.776778166032531 1 rotate no_reflect no_shear #
lump $-1 $-1 $25 $1 #
transform $-1 1 0 0 0 1 0 0 0 1 45.131992553483684 20.783277750115239 7.776778166032531 1 rotate no_reflect no_shear #
lump $-1 $-1 $26 $2 #
transform $-1 1 0 0 0 1 0 0 0 1 45.131992553483684 20.783277750115239 7.776778166032531 1 rotate no_reflect no_shear #
lump $-1 $-1 $27 $3 #
transform $-1 1 0 0 0 1 0 0 0 1 45.131992553483684 20.783277750115239 7.776778166032531 1 rotate no_reflect no_shear #
lump $-1 $-1 $28 $4 #
transform $-1 1 0 0 0 1 0 0 0 1 45.131992553483684 20.783277750115239 7.776778166032531 1 rotate no_reflect no_shear #
lump $-1 $-1 $29 $5 #
transform $-1 1 0 0 0 1 0 0 0 1 45.131992553483684 20.783277750115239 7.776778166032531 1 rotate no_reflect no_shear #
lump $-1 $-1 $30 $6 #
transform $-1 1 0 0 0 1 0 0 0 1 45.131992553483684 20.783277750115239 7.776778166032531 1 rotate no_reflect no_shear #
lump $-1 $-1 $31 $7 #
transform $-1 1 0 0 0 1 0 0 0 1 45.131992553483684 20.783277750115239 7.776778166032531 1 rotate no_reflect no_shear #
shell $-1 $-1 $-1 $32 $-1 $8 #
shell $-1 $-1 $-1 $33 $-1 $10 #
shell $-1 $-1 $-1 $34 $-1 $12 #
shell $-1 $-1 $-1 $35 $-1 $14 #
shell $-1 $-1 $-1 $36 $-1 $16 #
shell $-1 $-1 $-1 $37 $-1 $18 #
shell $-1 $-1 $-1 $38 $-1 $20 #
shell $-1 $-1 $-1 $39 $-1 $22 #
face $-1 $40 $41 $24 $-1 $42 forward single #
face $-1 $43 $44 $25 $-1 $45 forward single #
face $-1 $46 $47 $26 $-1 $48 reversed single #
face $-1 $49 $50 $27 $-1 $51 forward single #
face $-1 $52 $53 $28 $-1 $54 reversed single #
face $-1 $55 $56 $29 $-1 $57 forward single #
face $-1 $58 $59 $30 $-1 $60 reversed single #
face $-1 $61 $62 $31 $-1 $63 forward single #
face $-1 $64 $65 $24 $-1 $66 reversed single #
loop $-1 $-1 $67 $32 #
plane-surface $-1 0 0 7.776778166032531 0 0 1 1 0 0 forward_v I I I I #
face $-1 $68 $69 $25 $-1 $70 reversed single #
loop $-1 $-1 $71 $33 #
plane-surface $-1 0 -16.13979571362874 -4.776778166032531 0 0 1 1 0 0 forward_v I I I I #
face $-1 $72 $73 $26 $-1 $74 reversed single #
loop $-1 $-1 $75 $34 #
plane-surface $-1 47.359838286337379 4.6434820364865015 132.34516158328964 0 -1 0 -0.71933980857756763 0 -0.69465836192734942 forward_v I I I I #
face $-1 $76 $77 $27 $-1 $78 forward single #
loop $-1 $79 $80 $35 #
cone-surface $-1 42.451675120050972 1.54354678426688 5.0850751742048317 -0.71933980857756763 0 -0.69465836192734942 0.69465836192734942 0 -0.71933980857756763 1 I I 0 1 1 forward I I I I #
face $-1 $81 $82 $28 $-1 $83 reversed single #
loop $-1 $-1 $84 $36 #
plane-surface $-1 47.359838286337379 10.843352540925745 132.34516158328964 0 -1 0 -0.71933980857756763 0 -0.69465836192734942 forward_v I I I I #
face $-1 $85 $86 $29 $-1 $87 forward single #
loop $-1 $88 $89 $37 #
cone-surface $-1 42.451675120050972 7.743417288706123 5.0850751742048317 -0.71933980857756763 0 -0.69465836192734942 0.69465836192734942 0 -0.71933980857756763 1 I I 0 1 1 forward I I I I #
face $-1 $90 $91 $30 $-1 $92 reversed single #
loop $-1 $-1 $93 $38 #
plane-surface $-1 -101.93695966409638 0.085489143224194208 72.006258927929551 0 1 0 -0.62932039886446345 0 0.77714595512881146 forward_v I I I I #
face $-1 $94 $95 $31 $-1 $96 forward single #
loop $-1 $97 $98 $39 #
cone-surface $-1 -40.600316525779718 4.2206027774779109 3.7342260604101263 0.62932039886446345 0 -0.77714595512881146 1.1657189326932171 0 0.94398059829669512 1 I I 0 1 1.5 forward I I I I #
face $-1 $99 $100 $24 $-1 $101 reversed single #
loop $-1 $-1 $102 $40 #
plane-surface $-1 0 0 -7.776778166032531 0 0 1 1 0 0 forward_v I I I I #
coedge $-1 $103 $104 $105 $106 forward $41 $-1 #
face $-1 $107 $108 $25 $-1 $109 reversed single #
loop $-1 $-1 $110 $43 #
plane-surface $-1 0 -11.49631367714224 -6.276778166032531 0 -1 0 0 0 -1 forward_v I I I I #
coedge $-1 $111 $112 $113 $114 reversed $44 $-1 #
face $-1 $115 $116 $26 $-1 $117 reversed single #
loop $-1 $-1 $118 $46 #
plane-surface $-1 -17.570639481956945 1.54354678426688 69.642529547849023 0.71933980857756763 0 0.69465836192734942 0.69465836192734942 0 -0.71933980857756763 forward_v I I I I #
coedge $-1 $119 $120 $121 $122 reversed $47 $-1 #
face $-1 $-1 $123 $27 $-1 $124 forward single #
loop $-1 $125 $126 $49 #
cone-surface $-1 40.891473681844744 1.54354678426688 3.5784061946523638 -0.71933980857756763 0 -0.69465836192734942 0.34732918096367471 0 -0.35966990428878381 1 I I -0.70710678118654746 0.70710678118654746 0.5 forward I I I I #
loop $-1 $-1 $127 $35 #
coedge $-1 $80 $80 $128 $129 reversed $50 $-1 #
face $-1 $130 $131 $28 $-1 $132 forward single #
loop $-1 $-1 $133 $52 #
plane-surface $-1 -17.570639481956945 1.54354678426688 69.642529547849023 0.71933980857756763 0 0.69465836192734942 0.69465836192734942 0 -0.71933980857756763 forward_v I I I I #
coedge $-1 $134 $135 $136 $137 reversed $53 $-1 #
face $-1 $-1 $138 $29 $-1 $139 forward single #
loop $-1 $140 $141 $55 #
cone-surface $-1 40.891473681844744 7.743417288706123 3.5784061946523638 -0.71933980857756763 0 -0.69465836192734942 0.34732918096367471 0 -0.35966990428878381 1 I I -0.70710678118654746 0.70710678118654746 0.5 forward I I I I #
loop $-1 $-1 $142 $37 #
coedge $-1 $89 $89 $143 $144 reversed $56 $-1 #
face $-1 $145 $146 $30 $-1 $147 reversed single #
loop $-1 $-1 $148 $58 #
plane-surface $-1 -45.131992553483684 4.2206027774779109 1.8579680082425796 -0.62932039886446345 0 0.77714595512881146 0.77714595512881146 0 0.62932039886446345 forward_v I I I I #
coedge $-1 $149 $150 $151 $152 reversed $59 $-1 #
face $-1 $-1 $153 $31 $-1 $154 forward single #
loop $-1 $155 $156 $61 #
cone-surface $-1 -39.251211040751031 4.2206027774779109 2.0682195673360875 0.62932039886446345 0 -0.77714595512881146 0.58285946634660857 0 0.47199029914834756 1 I I -0.70710678118654757 0.70710678118654757 0.75 forward I I I I #
loop $-1 $-1 $157 $39 #
coedge $-1 $98 $98 $158 $159 reversed $62 $-1 #
face $-1 $160 $161 $24 $-1 $162 reversed single #
loop $-1 $-1 $163 $64 #
plane-surface $-1 0 -20.783277750115239 0 0 1 0 0 0 1 forward_v I I I I #
coedge $-1 $164 $165 $166 $167 forward $65 $-1 #
coedge $-1 $168 $67 $169 $170 forward $41 $-1 #
coedge $-1 $67 $168 $171 $172 forward $41 $-1 #
coedge $-1 $173 $174 $67 $106 reversed $175 $-1 #
edge $-1 $176 -20.783277750115239 $177 20.783277750115239 $105 $178 forward 7 unknown #
face $-1 $179 $180 $25 $-1 $181 reversed single #
loop $-1 $-1 $182 $68 #
plane-surface $-1 0 0 -7.776778166032531 0 0 1 1 0 0 forward_v I I I I #
coedge $-1 $183 $184 $185 $186 reversed $69 $-1 #
coedge $-1 $187 $71 $184 $188 forward $44 $-1 #
coedge $-1 $71 $187 $189 $190 reversed $44 $-1 #
coedge $-1 $191 $185 $71 $114 forward $180 $-1 #
edge $-1 $192 3.4264158203278701 $193 12.713379893300869 $113 $194 forward 7 unknown #
face $-1 $195 $196 $26 $-1 $197 reversed single #
loop $-1 $-1 $198 $72 #
plane-surface $-1 47.359838286337379 -1.5563884679527415 132.34516158328964 0 1 0 0.71933980857756763 0 0.69465836192734942 forward_v I I I I #
coedge $-1 $199 $200 $201 $202 reversed $73 $-1 #
coedge $-1 $120 $75 $203 $204 reversed $47 $-1 #
coedge $-1 $75 $119 $199 $205 reversed $47 $-1 #
coedge $-1 $201 $206 $75 $122 forward $207 $-1 #
edge $-1 $208 -21.452073410314995 $209 -18.492501611284411 $121 $210 forward 7 unknown #
loop $-1 $-1 $128 $76 #
plane-surface $-1 -17.570639481956945 1.54354678426688 69.642529547849023 0.71933980857756763 0 0.69465836192734942 0.69465836192734942 0 -0.71933980857756763 forward_v I I I I #
loop $-1 $-1 $211 $49 #
coedge $-1 $126 $126 $127 $212 reversed $77 $-1 #
coedge $-1 $127 $127 $126 $212 forward $79 $-1 #
coedge $-1 $128 $128 $80 $129 forward $123 $-1 #
edge $-1 $213 0 $213 6.2831853071796004 $128 $214 forward 7 unknown #
face $-1 $215 $216 $28 $-1 $217 forward single #
loop $-1 $-1 $218 $81 #
plane-surface $-1 0 0 7.776778166032531 0 0 1 1 0 0 forward_v I I I I #
coedge $-1 $219 $220 $221 $222 reversed $82 $-1 #
coedge $-1 $135 $84 $223 $224 reversed $53 $-1 #
coedge $-1 $84 $134 $218 $225 reversed $53 $-1 #
coedge $-1 $226 $227 $84 $137 forward $228 $-1 #
edge $-1 $229 -61.460529012090134 $230 -58.395802625612291 $136 $231 forward 7 unknown #
loop $-1 $-1 $143 $85 #
plane-surface $-1 -17.570639481956945 1.54354678426688 69.642529547849023 0.71933980857756763 0 0.69465836192734942 0.69465836192734942 0 -0.71933980857756763 forward_v I I I I #
loop $-1 $-1 $232 $55 #
coedge $-1 $141 $141 $142 $233 reversed $86 $-1 #
coedge $-1 $142 $142 $141 $233 forward $88 $-1 #
coedge $-1 $143 $143 $89 $144 forward $138 $-1 #
edge $-1 $234 0 $234 6.2831853071796004 $143 $235 forward 7 unknown #
face $-1 $236 $237 $30 $-1 $238 reversed single #
loop $-1 $-1 $239 $90 #
plane-surface $-1 -101.93695966409638 8.3557164117316276 72.006258927929551 0 -1 0 0.62932039886446345 0 -0.77714595512881146 forward_v I I I I #
coedge $-1 $240 $241 $242 $243 reversed $91 $-1 #
coedge $-1 $150 $93 $244 $245 reversed $59 $-1 #
coedge $-1 $93 $149 $240 $246 reversed $59 $-1 #
coedge $-1 $242 $247 $93 $152 forward $248 $-1 #
edge $-1 $249 5.8364872785645048 $250 13.145608962211753 $151 $251 forward 7 unknown #
loop $-1 $-1 $158 $94 #
plane-surface $-1 -45.131992553483684 4.2206027774779109 1.8579680082425796 -0.62932039886446345 0 0.77714595512881146 0.77714595512881146 0 0.62932039886446345 forward_v I I I I #
loop $-1 $-1 $252 $61 #
coedge $-1 $156 $156 $157 $253 reversed $95 $-1 #
coedge $-1 $157 $157 $156 $253 forward $97 $-1 #
coedge $-1 $158 $158 $98 $159 forward $153 $-1 #
edge $-1 $254 0 $254 6.2831853071796004 $158 $255 forward 7 unknown #
face $-1 $256 $257 $24 $-1 $258 reversed single #
loop $-1 $-1 $259 $99 #
plane-surface $-1 -45.131992553483684 0 0 1 0 0 0 0 -1 forward_v I I I I #
coedge $-1 $260 $171 $261 $262 forward $100 $-1 #
coedge $-1 $263 $102 $260 $264 forward $65 $-1 #
coedge $-1 $102 $263 $265 $266 forward $65 $-1 #
coedge $-1 $174 $173 $102 $167 reversed $175 $-1 #
edge $-1 $267 -20.783277750115239 $268 20.783277750115239 $166 $269 forward 7 unknown #
coedge $-1 $104 $103 $270 $271 forward $41 $-1 #
coedge $-1 $272 $273 $103 $170 reversed $257 $-1 #
edge $-1 $177 -45.131992553483684 $274 45.131992553483684 $169 $275 forward 7 unknown #
coedge $-1 $163 $276 $104 $172 reversed $100 $-1 #
edge $-1 $277 -45.131992553483684 $176 45.131992553483684 $171 $278 forward 7 unknown #
coedge $-1 $166 $105 $276 $279 forward $175 $-1 #
coedge $-1 $105 $166 $272 $280 reversed $175 $-1 #
loop $-1 $-1 $173 $256 #
vertex $-1 $106 $281 #
vertex $-1 $106 $282 #
straight-curve $-1 45.131992553483684 0 7.776778166032531 0 1 0 I I #
face $-1 $283 $284 $25 $-1 $285 reversed single #
loop $-1 $-1 $185 $107 #
plane-surface $-1 45.131992553483684 0 0 -1 0 0 0 0 1 forward_v I I I I #
coedge $-1 $286 $287 $183 $288 forward $108 $-1 #
coedge $-1 $289 $110 $182 $288 reversed $69 $-1 #
coedge $-1 $110 $289 $111 $188 reversed $69 $-1 #
coedge $-1 $113 $290 $110 $186 forward $180 $-1 #
edge $-1 $291 -4.638389083016266 $192 -1.6383890830162655 $185 $292 forward 7 unknown #
coedge $-1 $112 $111 $293 $294 reversed $44 $-1 #
edge $-1 $192 -45.131992553483684 $295 45.131992553483684 $184 $296 forward 7 unknown #
coedge $-1 $297 $298 $112 $190 forward $284 $-1 #
edge $-1 $193 -45.131992553483684 $299 45.131992553483684 $189 $300 forward 7 unknown #
coedge $-1 $290 $113 $298 $301 forward $180 $-1 #
vertex $-1 $114 $302 #
vertex $-1 $301 $303 #
straight-curve $-1 45.131992553483684 -8.0698978568143698 -4.776778166032531 0 -1 0 I I #
face $-1 $-1 $207 $26 $-1 $304 forward single #
loop $-1 $-1 $305 $115 #
plane-surface $-1 45.131992553483684 0 0 -1 0 0 0 0 1 forward_v I I I I #
coedge $-1 $306 $307 $308 $309 reversed $116 $-1 #
coedge $-1 $310 $118 $120 $205 forward $73 $-1 #
coedge $-1 $118 $310 $306 $311 forward $73 $-1 #
coedge $-1 $308 $121 $118 $202 forward $207 $-1 #
edge $-1 $209 -3.8717086443530615 $312 2.3281618600861815 $201 $313 forward 7 unknown #
coedge $-1 $314 $315 $119 $204 forward $196 $-1 #
edge $-1 $316 -61.460529012090134 $208 -58.395802625612291 $203 $317 forward 7 unknown #
edge $-1 $209 86.003514116854831 $316 90.263985106967397 $120 $318 forward 7 unknown #
coedge $-1 $121 $308 $314 $319 forward $207 $-1 #
loop $-1 $-1 $308 $195 #
vertex $-1 $204 $320 #
vertex $-1 $122 $321 #
straight-curve $-1 23.679919143168689 4.6434820364865015 7.7767781660325284 -1 0 0 I I #
coedge $-1 $211 $211 $-1 $322 reversed $125 $-1 #
edge $-1 $323 0 $323 6.2831853071796004 $126 $324 forward 7 unknown #
vertex $-1 $129 $325 #
ellipse-curve $-1 43.652206653968399 1.54354678426688 6.2444149727936082 0.71933980857756763 0 0.69465836192734942 0.69465836192734942 0 -0.71933980857756763 1 I I #
face $-1 $-1 $228 $28 $-1 $326 reversed single #
loop $-1 $-1 $327 $130 #
plane-surface $-1 47.359838286337379 4.6434820364865015 132.34516158328964 0 -1 0 -0.71933980857756763 0 -0.69465836192734942 forward_v I I I I #
coedge $-1 $328 $329 $135 $225 forward $131 $-1 #
coedge $-1 $223 $133 $328 $330 reversed $82 $-1 #
coedge $-1 $133 $223 $227 $331 reversed $82 $-1 #
coedge $-1 $332 $327 $133 $222 forward $216 $-1 #
edge $-1 $333 86.003514116854831 $334 90.263985106967397 $221 $335 forward 7 unknown #
coedge $-1 $220 $219 $134 $224 forward $82 $-1 #
edge $-1 $336 86.003514116854831 $229 90.263985106967397 $134 $337 forward 7 unknown #
edge $-1 $230 -21.452073410314995 $336 -18.492501611284411 $218 $338 forward 7 unknown #
coedge $-1 $339 $136 $329 $340 reversed $228 $-1 #
coedge $-1 $136 $339 $220 $331 forward $228 $-1 #
loop $-1 $-1 $136 $215 #
vertex $-1 $137 $341 #
vertex $-1 $137 $342 #
straight-curve $-1 45.131992553483684 10.843352540925745 66.172580791644819 0 0 1 I I #
coedge $-1 $232 $232 $-1 $343 reversed $140 $-1 #
edge $-1 $344 0 $344 6.2831853071796004 $141 $345 forward 7 unknown #
vertex $-1 $144 $346 #
ellipse-curve $-1 43.652206653968399 7.743417288706123 6.2444149727936082 0.71933980857756763 0 0.69465836192734942 0.69465836192734942 0 -0.71933980857756763 1 I I #
face $-1 $-1 $248 $30 $-1 $347 forward single #
loop $-1 $-1 $348 $145 #
plane-surface $-1 -45.131992553483684 0 0 1 0 0 0 0 -1 forward_v I I I I #
coedge $-1 $349 $350 $351 $352 reversed $146 $-1 #
coedge $-1 $353 $148 $150 $246 forward $91 $-1 #
coedge $-1 $148 $353 $349 $354 forward $91 $-1 #
coedge $-1 $351 $151 $148 $243 forward $248 $-1 #
edge $-1 $250 -2.0248122455147612 $355 6.2454150229926721 $242 $356 forward 7 unknown #
coedge $-1 $357 $358 $149 $245 forward $237 $-1 #
edge $-1 $359 -34.145161455722196 $249 -28.226351297932244 $244 $360 forward 7 unknown #
edge $-1 $250 -9.4050823212941577 $359 0 $150 $361 forward 7 unknown #
coedge $-1 $151 $351 $357 $362 forward $248 $-1 #
loop $-1 $-1 $351 $236 #
vertex $-1 $245 $363 #
vertex $-1 $152 $364 #
straight-curve $-1 -50.968479832048189 0.085489143224194208 7.7767781660325284 1 0 0 I I #
coedge $-1 $252 $252 $-1 $365 reversed $155 $-1 #
edge $-1 $366 0 $366 6.2831853071796004 $156 $367 forward 7 unknown #
vertex $-1 $159 $368 #
ellipse-curve $-1 -41.47743171166006 4.2206027774779109 4.8173730871375566 -0.62932039886446345 0 0.77714595512881146 1.1657189326932171 0 0.94398059829669512 1 I I #
face $-1 $-1 $175 $24 $-1 $369 reversed single #
loop $-1 $-1 $272 $160 #
plane-surface $-1 0 20.783277750115239 0 0 -1 0 0 0 -1 forward_v I I I I #
coedge $-1 $370 $270 $273 $371 forward $161 $-1 #
coedge $-1 $276 $163 $164 $264 reversed $100 $-1 #
coedge $-1 $270 $370 $163 $262 reversed $161 $-1 #
edge $-1 $277 -7.776778166032531 $372 7.776778166032531 $261 $373 forward 7 unknown #
coedge $-1 $165 $164 $370 $374 forward $65 $-1 #
edge $-1 $268 -45.131992553483684 $372 45.131992553483684 $260 $375 forward 7 unknown #
coedge $-1 $273 $272 $165 $266 reversed $257 $-1 #
edge $-1 $376 -45.131992553483684 $267 45.131992553483684 $265 $377 forward 7 unknown #
vertex $-1 $167 $378 #
vertex $-1 $279 $379 #
straight-curve $-1 45.131992553483684 0 -7.776778166032531 0 -1 0 I I #
coedge $-1 $259 $261 $168 $271 reversed $161 $-1 #
edge $-1 $274 -20.783277750115239 $277 20.783277750115239 $270 $380 forward 7 unknown #
coedge $-1 $265 $169 $174 $280 forward $257 $-1 #
coedge $-1 $169 $265 $259 $371 reversed $257 $-1 #
vertex $-1 $170 $381 #
straight-curve $-1 0 20.783277750115239 7.776778166032531 -1 0 0 I I #
coedge $-1 $171 $260 $173 $279 reversed $100 $-1 #
vertex $-1 $271 $382 #
straight-curve $-1 0 -20.783277750115239 7.776778166032531 1 0 0 I I #
edge $-1 $176 -7.776778166032531 $268 7.776778166032531 $173 $383 forward 7 unknown #
edge $-1 $177 -7.776778166032531 $267 7.776778166032531 $174 $384 forward 7 unknown #
point $-1 45.131992553483684 -20.783277750115239 7.776778166032531 #
point $-1 45.131992553483684 20.783277750115239 7.776778166032531 #
face $-1 $-1 $385 $25 $-1 $386 reversed single #
loop $-1 $-1 $189 $179 #
plane-surface $-1 0 -20.783277750115239 0 0 1 0 0 0 1 forward_v I I I I #
coedge $-1 $387 $182 $290 $388 forward $108 $-1 #
coedge $-1 $182 $387 $389 $390 forward $108 $-1 #
edge $-1 $391 -45.131992553483684 $291 45.131992553483684 $182 $392 forward 7 unknown #
coedge $-1 $184 $183 $393 $394 reversed $69 $-1 #
coedge $-1 $185 $191 $286 $388 reversed $180 $-1 #
vertex $-1 $388 $395 #
straight-curve $-1 45.131992553483684 -11.49631367714224 -3.1383890830162655 0 0 1 I I #
coedge $-1 $393 $396 $187 $294 forward $385 $-1 #
edge $-1 $299 -12.713379893300869 $295 -3.4264158203278701 $293 $397 forward 7 unknown #
vertex $-1 $294 $398 #
straight-curve $-1 0 -11.49631367714224 -4.776778166032531 -1 0 0 I I #
coedge $-1 $399 $189 $396 $400 forward $284 $-1 #
coedge $-1 $189 $399 $191 $301 reversed $284 $-1 #
vertex $-1 $400 $401 #
straight-curve $-1 0 -20.783277750115239 -4.776778166032531 -1 0 0 I I #
edge $-1 $193 4.776778166032531 $402 7.776778166032531 $191 $403 forward 7 unknown #
point $-1 45.131992553483684 -11.49631367714224 -4.776778166032531 #
point $-1 45.131992553483684 -20.783277750115239 -4.776778166032531 #
plane-surface $-1 0 0 7.776778166032531 0 0 1 1 0 0 forward_v I I I I #
coedge $-1 $315 $314 $307 $404 forward $196 $-1 #
coedge $-1 $307 $198 $200 $311 reversed $116 $-1 #
coedge $-1 $198 $306 $305 $404 reversed $116 $-1 #
coedge $-1 $206 $201 $198 $309 forward $207 $-1 #
edge $-1 $312 18.492501611284411 $405 21.452073410314995 $308 $406 forward 7 unknown #
coedge $-1 $200 $199 $315 $407 reversed $73 $-1 #
edge $-1 $408 -90.263985106967397 $312 -86.003514116854831 $306 $409 forward 7 unknown #
vertex $-1 $202 $410 #
straight-curve $-1 42.1724207544531 0.77177339213343998 7.7767781660325284 0 -1 0 I I #
coedge $-1 $305 $203 $206 $319 reversed $196 $-1 #
coedge $-1 $203 $305 $310 $407 forward $196 $-1 #
vertex $-1 $204 $411 #
straight-curve $-1 45.131992553483684 4.6434820364865015 66.172580791644819 0 0 1 I I #
straight-curve $-1 -17.570639481956945 4.6434820364865015 69.642529547849023 0.69465836192734942 0 -0.71933980857756763 I I #
edge $-1 $405 -1.5563884679527415 $208 4.6434820364865015 $314 $412 forward 7 unknown #
point $-1 45.131992553483684 4.6434820364865015 7.776778166032531 #
point $-1 42.1724207544531 4.6434820364865015 7.7767781660325355 #
edge $-1 $413 1 $413 0 $211 $-1 forward 7 unknown #
vertex $-1 $212 $414 #
ellipse-curve $-1 41.25114358613353 1.54354678426688 3.9257353756160382 0.71933980857756763 0 0.69465836192734942 0.69465836192734942 0 -0.71933980857756763 1 I I #
point $-1 44.346865015895759 1.54354678426688 5.5250751642160587 #
plane-surface $-1 45.131992553483684 0 0 -1 0 0 0 0 1 forward_v I I I I #
coedge $-1 $221 $332 $415 $416 reversed $216 $-1 #
coedge $-1 $415 $218 $219 $330 forward $131 $-1 #
coedge $-1 $218 $415 $226 $340 forward $131 $-1 #
edge $-1 $336 -10.071579148792305 $333 -3.8717086443530615 $328 $417 forward 7 unknown #
edge $-1 $334 3.8717086443530615 $229 10.071579148792305 $227 $418 forward 7 unknown #
coedge $-1 $327 $221 $339 $419 reversed $216 $-1 #
vertex $-1 $330 $420 #
vertex $-1 $331 $421 #
straight-curve $-1 -17.570639481956945 4.6434820364865015 69.642529547849023 0.69465836192734942 0 -0.71933980857756763 I I #
vertex $-1 $225 $422 #
straight-curve $-1 -17.570639481956945 10.843352540925745 69.642529547849023 0.69465836192734942 0 -0.71933980857756763 I I #
straight-curve $-1 23.679919143168689 10.843352540925745 7.7767781660325284 -1 0 0 I I #
coedge $-1 $227 $226 $332 $419 forward $228 $-1 #
edge $-1 $423 4.6434820364865015 $230 10.843352540925745 $226 $424 forward 7 unknown #
point $-1 45.131992553483684 10.843352540925745 4.7120517795546846 #
point $-1 45.131992553483684 10.843352540925745 7.776778166032531 #
edge $-1 $425 1 $425 0 $232 $-1 forward 7 unknown #
vertex $-1 $233 $426 #
ellipse-curve $-1 41.25114358613353 7.743417288706123 3.9257353756160382 0.71933980857756763 0 0.69465836192734942 0.69465836192734942 0 -0.71933980857756763 1 I I #
point $-1 44.346865015895759 7.743417288706123 5.5250751642160587 #
plane-surface $-1 0 0 7.776778166032531 0 0 1 1 0 0 forward_v I I I I #
coedge $-1 $358 $357 $350 $427 forward $237 $-1 #
coedge $-1 $350 $239 $241 $354 reversed $146 $-1 #
coedge $-1 $239 $349 $348 $427 reversed $146 $-1 #
coedge $-1 $247 $242 $239 $352 forward $248 $-1 #
edge $-1 $355 -13.145608962211753 $428 -5.8364872785645048 $351 $429 forward 7 unknown #
coedge $-1 $241 $240 $358 $430 reversed $91 $-1 #
edge $-1 $431 0 $355 9.4050823212941577 $349 $432 forward 7 unknown #
vertex $-1 $243 $433 #
straight-curve $-1 -37.822870869836443 2.1103013887389555 7.7767781660325301 0 1 0 I I #
coedge $-1 $348 $244 $247 $362 reversed $237 $-1 #
coedge $-1 $244 $348 $353 $430 forward $237 $-1 #
vertex $-1 $245 $434 #
straight-curve $-1 -45.131992553483684 0.085489143224194208 36.003129463964775 0 0 1 I I #
straight-curve $-1 -45.131992553483684 0.085489143224194208 1.8579680082425796 -0.77714595512881146 0 -0.62932039886446345 I I #
edge $-1 $428 -8.3557164117316276 $249 -0.085489143224194208 $357 $435 forward 7 unknown #
point $-1 -45.131992553483684 0.085489143224194208 7.776778166032531 #
point $-1 -37.822870869836436 0.085489143224194208 7.7767781660325319 #
edge $-1 $436 1 $436 0 $252 $-1 forward 7 unknown #
vertex $-1 $253 $437 #
ellipse-curve $-1 -39.723201339899376 4.2206027774779109 2.6510790336826959 -0.62932039886446345 0 0.77714595512881146 1.1657189326932171 0 0.94398059829669512 1 I I #
point $-1 -40.311712778966843 4.2206027774779109 5.7613536854342513 #
plane-surface $-1 45.131992553483684 0 0 -1 0 0 0 0 1 forward_v I I I I #
coedge $-1 $261 $259 $263 $374 reversed $161 $-1 #
edge $-1 $274 -7.776778166032531 $376 7.776778166032531 $273 $438 forward 7 unknown #
vertex $-1 $374 $439 #
straight-curve $-1 -45.131992553483684 -20.783277750115239 0 0 0 -1 I I #
edge $-1 $372 -20.783277750115239 $376 20.783277750115239 $370 $440 forward 7 unknown #
straight-curve $-1 0 -20.783277750115239 -7.776778166032531 -1 0 0 I I #
vertex $-1 $266 $441 #
straight-curve $-1 0 20.783277750115239 -7.776778166032531 1 0 0 I I #
point $-1 45.131992553483684 20.783277750115239 -7.776778166032531 #
point $-1 45.131992553483684 -20.783277750115239 -7.776778166032531 #
straight-curve $-1 -45.131992553483684 0 7.776778166032531 0 -1 0 I I #
point $-1 -45.131992553483684 20.783277750115239 7.776778166032531 #
point $-1 -45.131992553483684 -20.783277750115239 7.776778166032531 #
straight-curve $-1 45.131992553483684 -20.783277750115239 0 0 0 -1 I I #
straight-curve $-1 45.131992553483684 20.783277750115239 0 0 0 -1 I I #
loop $-1 $-1 $393 $283 #
plane-surface $-1 -45.131992553483684 0 0 1 0 0 0 0 -1 forward_v I I I I #
coedge $-1 $287 $286 $399 $442 forward $108 $-1 #
edge $-1 $291 11.49631367714224 $402 20.783277750115239 $290 $443 forward 7 unknown #
coedge $-1 $396 $393 $287 $390 reversed $385 $-1 #
edge $-1 $444 -20.783277750115239 $391 -11.49631367714224 $389 $445 forward 7 unknown #
vertex $-1 $394 $446 #
straight-curve $-1 0 -11.49631367714224 -7.776778166032531 1 0 0 I I #
coedge $-1 $389 $293 $289 $394 forward $385 $-1 #
edge $-1 $295 1.6383890830162655 $391 4.638389083016266 $393 $447 forward 7 unknown #
point $-1 45.131992553483684 -11.49631367714224 -7.776778166032531 #
coedge $-1 $293 $389 $297 $400 reversed $385 $-1 #
straight-curve $-1 -45.131992553483684 -8.0698978568143698 -4.776778166032531 0 1 0 I I #
point $-1 -45.131992553483684 -11.49631367714224 -4.776778166032531 #
coedge $-1 $298 $297 $387 $442 reversed $284 $-1 #
edge $-1 $299 4.776778166032531 $444 7.776778166032531 $396 $448 forward 7 unknown #
point $-1 -45.131992553483684 -20.783277750115239 -4.776778166032531 #
vertex $-1 $301 $449 #
straight-curve $-1 45.131992553483684 -20.783277750115239 0 0 0 -1 I I #
edge $-1 $405 58.395802625612291 $408 61.460529012090134 $305 $450 forward 7 unknown #
vertex $-1 $319 $451 #
straight-curve $-1 23.679919143168689 -1.5563884679527415 7.7767781660325284 1 0 0 I I #
edge $-1 $408 -2.3281618600861815 $316 3.8717086443530615 $315 $452 forward 7 unknown #
vertex $-1 $407 $453 #
straight-curve $-1 -17.570639481956945 -1.5563884679527415 69.642529547849023 -0.69465836192734942 0 0.71933980857756763 I I #
point $-1 42.1724207544531 -1.5563884679527415 7.7767781660325355 #
point $-1 45.131992553483684 4.6434820364865015 4.7120517795546846 #
straight-curve $-1 45.131992553483684 0 7.776778166032531 0 1 0 I I #
vertex $-1 $322 $454 #
point $-1 41.945801948060875 1.54354678426688 3.206395567038471 #
coedge $-1 $329 $328 $327 $416 forward $131 $-1 #
edge $-1 $333 18.492501611284411 $423 21.452073410314995 $415 $455 forward 7 unknown #
straight-curve $-1 42.1724207544531 0.77177339213343998 7.7767781660325284 0 -1 0 I I #
straight-curve $-1 45.131992553483684 0.77177339213343998 4.7120517795546881 0 1 0 I I #
edge $-1 $423 58.395802625612291 $334 61.460529012090134 $339 $456 forward 7 unknown #
point $-1 42.1724207544531 4.6434820364865015 7.7767781660325355 #
point $-1 45.131992553483684 4.6434820364865015 4.7120517795546846 #
point $-1 42.1724207544531 10.843352540925745 7.7767781660325355 #
vertex $-1 $340 $457 #
straight-curve $-1 45.131992553483684 0 7.776778166032531 0 1 0 I I #
vertex $-1 $343 $458 #
point $-1 41.945801948060875 7.743417288706123 3.206395567038471 #
edge $-1 $428 28.226351297932244 $431 34.145161455722196 $348 $459 forward 7 unknown #
vertex $-1 $362 $460 #
straight-curve $-1 -50.968479832048189 8.3557164117316276 7.7767781660325284 -1 0 0 I I #
edge $-1 $431 -6.2454150229926721 $359 2.0248122455147612 $358 $461 forward 7 unknown #
vertex $-1 $430 $462 #
straight-curve $-1 -45.131992553483684 8.3557164117316276 1.8579680082425796 0.77714595512881146 0 0.62932039886446345 I I #
point $-1 -37.822870869836436 8.3557164117316276 7.7767781660325319 #
point $-1 -45.131992553483684 0.085489143224194208 1.8579680082425796 #
straight-curve $-1 -45.131992553483684 0 7.776778166032531 0 -1 0 I I #
vertex $-1 $365 $463 #
point $-1 -38.557482407206159 4.2206027774779109 3.595059631979391 #
straight-curve $-1 -45.131992553483684 20.783277750115239 0 0 0 -1 I I #
point $-1 -45.131992553483684 -20.783277750115239 -7.776778166032531 #
straight-curve $-1 -45.131992553483684 0 -7.776778166032531 0 1 0 I I #
point $-1 -45.131992553483684 20.783277750115239 -7.776778166032531 #
edge $-1 $402 -45.131992553483684 $444 45.131992553483684 $399 $464 forward 7 unknown #
straight-curve $-1 45.131992553483684 0 -7.776778166032531 0 -1 0 I I #
vertex $-1 $390 $465 #
straight-curve $-1 -45.131992553483684 0 -7.776778166032531 0 1 0 I I #
point $-1 -45.131992553483684 -11.49631367714224 -7.776778166032531 #
straight-curve $-1 -45.131992553483684 -11.49631367714224 -3.1383890830162655 0 0 -1 I I #
straight-curve $-1 -45.131992553483684 -20.783277750115239 0 0 0 -1 I I #
point $-1 45.131992553483684 -20.783277750115239 -7.776778166032531 #
straight-curve $-1 45.131992553483684 -1.5563884679527415 66.172580791644819 0 0 -1 I I #
point $-1 45.131992553483684 -1.5563884679527415 7.776778166032531 #
straight-curve $-1 45.131992553483684 0.77177339213343998 4.7120517795546881 0 1 0 I I #
point $-1 45.131992553483684 -1.5563884679527415 4.7120517795546846 #
point $-1 40.531803777555957 1.54354678426688 3.2310770136886893 #
straight-curve $-1 23.679919143168689 4.6434820364865015 7.7767781660325284 1 0 0 I I #
straight-curve $-1 45.131992553483684 4.6434820364865015 66.172580791644819 0 0 -1 I I #
point $-1 45.131992553483684 4.6434820364865015 7.776778166032531 #
point $-1 40.531803777555957 7.743417288706123 3.2310770136886893 #
straight-curve $-1 -45.131992553483684 8.3557164117316276 36.003129463964775 0 0 -1 I I #
point $-1 -45.131992553483684 8.3557164117316276 7.776778166032531 #
straight-curve $-1 -45.131992553483684 2.1103013887389555 1.857968008242578 0 -1 0 I I #
point $-1 -45.131992553483684 8.3557164117316276 1.8579680082425796 #
point $-1 -38.779220741602686 4.2206027774779109 1.485360100989479 #
straight-curve $-1 0 -20.783277750115239 -7.776778166032531 -1 0 0 I I #
point $-1 -45.131992553483684 -20.783277750115239 -7.776778166032531 #
End-of-ACIS-data 