500 0 14 0           
7 Unknown 11 ACIS 5.0 NT 24 Thu Mar 25 19:51:57 1999 
-1 9.9999999999999995e-007 1e-010 
body $-1 $14 $-1 $15 #
body $-1 $16 $-1 $17 #
body $-1 $18 $-1 $19 #
body $-1 $20 $-1 $21 #
body $-1 $22 $-1 $23 #
body $-1 $24 $-1 $25 #
body $-1 $26 $-1 $27 #
body $-1 $28 $-1 $29 #
body $-1 $30 $-1 $31 #
body $-1 $32 $-1 $33 #
body $-1 $34 $-1 $35 #
body $-1 $36 $-1 $37 #
body $-1 $38 $-1 $39 #
body $-1 $40 $-1 $41 #
lump $-1 $-1 $42 $0 #
transform $-1 1 0 0 0 1 0 0 0 1 42.214423047578357 20.463566217396462 8.1778073729764618 1 rotate no_reflect no_shear #
lump $-1 $-1 $43 $1 #
transform $-1 1 0 0 0 1 0 0 0 1 42.214423047578357 20.463566217396462 8.1778073729764618 1 rotate no_reflect no_shear #
lump $-1 $-1 $44 $2 #
transform $-1 1 0 0 0 1 0 0 0 1 42.214423047578357 20.463566217396462 8.1778073729764618 1 rotate no_reflect no_shear #
lump $-1 $-1 $45 $3 #
transform $-1 1 0 0 0 1 0 0 0 1 42.214423047578357 20.463566217396462 8.1778073729764618 1 rotate no_reflect no_shear #
lump $-1 $-1 $46 $4 #
transform $-1 1 0 0 0 1 0 0 0 1 42.214423047578357 20.463566217396462 8.1778073729764618 1 rotate no_reflect no_shear #
lump $-1 $-1 $47 $5 #
transform $-1 1 0 0 0 1 0 0 0 1 42.214423047578357 20.463566217396462 8.1778073729764618 1 rotate no_reflect no_shear #
lump $-1 $-1 $48 $6 #
transform $-1 1 0 0 0 1 0 0 0 1 42.214423047578357 20.463566217396462 8.1778073729764618 1 rotate no_reflect no_shear #
lump $-1 $-1 $49 $7 #
transform $-1 1 0 0 0 1 0 0 0 1 42.214423047578357 20.463566217396462 8.1778073729764618 1 rotate no_reflect no_shear #
lump $-1 $-1 $50 $8 #
transform $-1 1 0 0 0 1 0 0 0 1 42.214423047578357 20.463566217396462 8.1778073729764618 1 rotate no_reflect no_shear #
lump $-1 $-1 $51 $9 #
transform $-1 1 0 0 0 1 0 0 0 1 42.214423047578357 20.463566217396462 8.1778073729764618 1 rotate no_reflect no_shear #
lump $-1 $-1 $52 $10 #
transform $-1 1 0 0 0 1 0 0 0 1 42.214423047578357 20.463566217396462 8.1778073729764618 1 rotate no_reflect no_shear #
lump $-1 $-1 $53 $11 #
transform $-1 1 0 0 0 1 0 0 0 1 42.214423047578357 20.463566217396462 8.1778073729764618 1 rotate no_reflect no_shear #
lump $-1 $-1 $54 $12 #
transform $-1 1 0 0 0 1 0 0 0 1 42.214423047578357 20.463566217396462 8.1778073729764618 1 rotate no_reflect no_shear #
lump $-1 $-1 $55 $13 #
transform $-1 1 0 0 0 1 0 0 0 1 42.214423047578357 20.463566217396462 8.1778073729764618 1 rotate no_reflect no_shear #
shell $-1 $-1 $-1 $56 $-1 $14 #
shell $-1 $-1 $-1 $57 $-1 $16 #
shell $-1 $-1 $-1 $58 $-1 $18 #
shell $-1 $-1 $-1 $59 $-1 $20 #
shell $-1 $-1 $-1 $60 $-1 $22 #
shell $-1 $-1 $-1 $61 $-1 $24 #
shell $-1 $-1 $-1 $62 $-1 $26 #
shell $-1 $-1 $-1 $63 $-1 $28 #
shell $-1 $-1 $-1 $64 $-1 $30 #
shell $-1 $-1 $-1 $65 $-1 $32 #
shell $-1 $-1 $-1 $66 $-1 $34 #
shell $-1 $-1 $-1 $67 $-1 $36 #
shell $-1 $-1 $-1 $68 $-1 $38 #
shell $-1 $-1 $-1 $69 $-1 $40 #
face $-1 $70 $71 $42 $-1 $72 forward single #
face $-1 $73 $74 $43 $-1 $75 forward single #
face $-1 $76 $77 $44 $-1 $78 reversed single #
face $-1 $79 $80 $45 $-1 $81 forward single #
face $-1 $82 $83 $46 $-1 $84 forward single #
face $-1 $85 $86 $47 $-1 $87 forward single #
face $-1 $88 $89 $48 $-1 $90 reversed single #
face $-1 $91 $92 $49 $-1 $93 forward single #
face $-1 $94 $95 $50 $-1 $96 forward single #
face $-1 $97 $98 $51 $-1 $99 forward single #
face $-1 $100 $101 $52 $-1 $102 reversed single #
face $-1 $103 $104 $53 $-1 $105 forward single #
face $-1 $106 $107 $54 $-1 $108 reversed single #
face $-1 $109 $110 $55 $-1 $111 forward single #
face $-1 $112 $113 $42 $-1 $114 reversed single #
loop $-1 $-1 $115 $56 #
plane-surface $-1 0 0 8.1778073729764618 0 0 1 1 0 0 forward_v I I I I #
face $-1 $116 $117 $43 $-1 $118 reversed single #
loop $-1 $-1 $119 $57 #
plane-surface $-1 0 -15.072307960321876 -2.6034633495801396 0 0 1 1 0 0 forward_v I I I I #
face $-1 $120 $121 $44 $-1 $122 reversed single #
loop $-1 $-1 $123 $58 #
plane-surface $-1 56.765675327097476 -7.6651408702453718 121.66464291745287 0 1 0 0.78801076186113728 0 0.61566146476048833 forward_v I I I I #
face $-1 $124 $125 $45 $-1 $126 forward single #
loop $-1 $127 $128 $59 #
cone-surface $-1 39.591231495312542 -6.2229529536978863 5.1497681536533122 -0.78801076186113728 0 -0.61566146476048833 0.30783073238024417 0 -0.39400538093056864 1 I I 0 1 0.5 forward I I I I #
face $-1 $129 $130 $46 $-1 $131 forward single #
loop $-1 $132 $133 $60 #
cone-surface $-1 39.591231495312542 -4.0596710788766615 5.1497681536533122 -0.78801076186113728 0 -0.61566146476048833 0.30783073238024417 0 -0.39400538093056864 1 I I 0 1 0.5 forward I I I I #
face $-1 $134 $135 $47 $-1 $136 forward single #
loop $-1 $137 $138 $61 #
cone-surface $-1 39.591231495312542 -1.8963892040554349 5.1497681536533122 -0.78801076186113728 0 -0.61566146476048833 0.30783073238024417 0 -0.39400538093056864 1 I I 0 1 0.5 forward I I I I #
face $-1 $139 $140 $48 $-1 $141 reversed single #
loop $-1 $-1 $142 $62 #
plane-surface $-1 56.765675327097476 7.4071670900765003 121.66464291745287 0 1 0 0.78801076186113728 0 0.61566146476048833 forward_v I I I I #
face $-1 $143 $144 $49 $-1 $145 forward single #
loop $-1 $146 $147 $63 #
cone-surface $-1 39.591231495312542 8.8493550066239877 5.1497681536533122 -0.78801076186113728 0 -0.61566146476048833 0.30783073238024417 0 -0.39400538093056864 1 I I 0 1 0.5 forward I I I I #
face $-1 $148 $149 $50 $-1 $150 forward single #
loop $-1 $151 $152 $64 #
cone-surface $-1 39.591231495312542 11.012636881445211 5.1497681536533122 -0.78801076186113728 0 -0.61566146476048833 0.30783073238024417 0 -0.39400538093056864 1 I I 0 1 0.5 forward I I I I #
face $-1 $153 $154 $51 $-1 $155 forward single #
loop $-1 $156 $157 $65 #
cone-surface $-1 39.591231495312542 13.175918756266441 5.1497681536533122 -0.78801076186113728 0 -0.61566146476048833 0.30783073238024417 0 -0.39400538093056864 1 I I 0 1 0.5 forward I I I I #
face $-1 $158 $159 $52 $-1 $160 reversed single #
loop $-1 $-1 $161 $66 #
plane-surface $-1 -91.840454284386425 -6.9123781180953872 70.934438472265796 0 1 0 -0.5877852598018023 0 0.80901698891910034 forward_v I I I I #
face $-1 $162 $163 $53 $-1 $164 forward single #
loop $-1 $165 $166 $67 #
cone-surface $-1 -36.927073567626614 -3.4397225674504526 3.3814197174071023 0.5877852598018023 0 -0.80901698891910034 1.2135254833786506 0 0.88167788970270344 1 I I 0 1 1.5 forward I I I I #
face $-1 $167 $168 $54 $-1 $169 reversed single #
loop $-1 $-1 $170 $68 #
plane-surface $-1 -91.840454284386425 10.749583530954691 70.934438472265796 0 1 0 -0.5877852598018023 0 0.80901698891910034 forward_v I I I I #
face $-1 $171 $172 $55 $-1 $173 forward single #
loop $-1 $174 $175 $69 #
cone-surface $-1 -36.927073567626614 14.222239081599625 3.3814197174071023 0.5877852598018023 0 -0.80901698891910034 1.2135254833786506 0 0.88167788970270344 1 I I 0 1 1.5 forward I I I I #
face $-1 $176 $177 $42 $-1 $178 reversed single #
loop $-1 $-1 $179 $70 #
plane-surface $-1 0 0 -8.1778073729764618 0 0 1 1 0 0 forward_v I I I I #
coedge $-1 $180 $181 $182 $183 forward $71 $-1 #
face $-1 $184 $185 $43 $-1 $186 reversed single #
loop $-1 $-1 $187 $73 #
plane-surface $-1 0 -15.072307960321876 -6.5204351686638633 0 0 1 1 0 0 forward_v I I I I #
coedge $-1 $188 $189 $190 $191 reversed $74 $-1 #
face $-1 $192 $193 $44 $-1 $194 reversed single #
loop $-1 $-1 $195 $76 #
plane-surface $-1 -9.7651640074036763 -4.0596710788766615 69.685055862470847 0.78801076186113728 0 0.61566146476048833 0.61566146476048833 0 -0.78801076186113728 forward_v I I I I #
coedge $-1 $196 $197 $198 $199 reversed $77 $-1 #
face $-1 $-1 $200 $45 $-1 $201 forward single #
loop $-1 $202 $203 $79 #
cone-surface $-1 38.733466858675619 -6.2229529536978863 4.4796089906434329 -0.78801076186113728 0 -0.61566146476048833 0.15391536619012208 0 -0.19700269046528432 1 I I -0.70710678118654746 0.70710678118654746 0.25 forward I I I I #
loop $-1 $-1 $204 $59 #
coedge $-1 $128 $128 $205 $206 reversed $80 $-1 #
face $-1 $-1 $207 $46 $-1 $208 forward single #
loop $-1 $209 $210 $82 #
cone-surface $-1 38.733466858675619 -4.0596710788766615 4.4796089906434329 -0.78801076186113728 0 -0.61566146476048833 0.15391536619012208 0 -0.19700269046528432 1 I I -0.70710678118654746 0.70710678118654746 0.25 forward I I I I #
loop $-1 $-1 $211 $60 #
coedge $-1 $133 $133 $212 $213 reversed $83 $-1 #
face $-1 $-1 $214 $47 $-1 $215 forward single #
loop $-1 $216 $217 $85 #
cone-surface $-1 38.733466858675619 -1.8963892040554349 4.4796089906434329 -0.78801076186113728 0 -0.61566146476048833 0.15391536619012208 0 -0.19700269046528432 1 I I -0.70710678118654746 0.70710678118654746 0.25 forward I I I I #
loop $-1 $-1 $218 $61 #
coedge $-1 $138 $138 $219 $220 reversed $86 $-1 #
face $-1 $221 $222 $48 $-1 $223 reversed single #
loop $-1 $-1 $224 $88 #
plane-surface $-1 -9.7651640074036763 11.012636881445211 69.685055862470847 0.78801076186113728 0 0.61566146476048833 0.61566146476048833 0 -0.78801076186113728 forward_v I I I I #
coedge $-1 $225 $226 $227 $228 reversed $89 $-1 #
face $-1 $-1 $229 $49 $-1 $230 forward single #
loop $-1 $231 $232 $91 #
cone-surface $-1 38.733466858675619 8.8493550066239877 4.4796089906434329 -0.78801076186113728 0 -0.61566146476048833 0.15391536619012208 0 -0.19700269046528432 1 I I -0.70710678118654746 0.70710678118654746 0.25 forward I I I I #
loop $-1 $-1 $233 $63 #
coedge $-1 $147 $147 $234 $235 reversed $92 $-1 #
face $-1 $-1 $236 $50 $-1 $237 forward single #
loop $-1 $238 $239 $94 #
cone-surface $-1 38.733466858675619 11.012636881445211 4.4796089906434329 -0.78801076186113728 0 -0.61566146476048833 0.15391536619012208 0 -0.19700269046528432 1 I I -0.70710678118654746 0.70710678118654746 0.25 forward I I I I #
loop $-1 $-1 $240 $64 #
coedge $-1 $152 $152 $241 $242 reversed $95 $-1 #
face $-1 $-1 $243 $51 $-1 $244 forward single #
loop $-1 $245 $246 $97 #
cone-surface $-1 38.733466858675619 13.175918756266441 4.4796089906434329 -0.78801076186113728 0 -0.61566146476048833 0.15391536619012208 0 -0.19700269046528432 1 I I -0.70710678118654746 0.70710678118654746 0.25 forward I I I I #
loop $-1 $-1 $247 $65 #
coedge $-1 $157 $157 $248 $249 reversed $98 $-1 #
face $-1 $250 $251 $52 $-1 $252 reversed single #
loop $-1 $-1 $253 $100 #
plane-surface $-1 -42.214423047578357 -3.4397225674504526 2.6300676264479677 -0.5877852598018023 0 0.80901698891910034 0.80901698891910034 0 0.5877852598018023 forward_v I I I I #
coedge $-1 $254 $255 $256 $257 reversed $101 $-1 #
face $-1 $-1 $258 $53 $-1 $259 forward single #
loop $-1 $260 $261 $103 #
cone-surface $-1 -35.016789411600776 -3.4397225674504526 0.75213919341266866 0.5877852598018023 0 -0.80901698891910034 0.60676274168932531 0 0.44083894485135172 1 I I -0.70710678118654757 0.70710678118654757 0.75 forward I I I I #
loop $-1 $-1 $262 $67 #
coedge $-1 $166 $166 $263 $264 reversed $104 $-1 #
face $-1 $265 $266 $54 $-1 $267 reversed single #
loop $-1 $-1 $268 $106 #
plane-surface $-1 -42.214423047578357 14.222239081599625 2.6300676264479677 -0.5877852598018023 0 0.80901698891910034 0.80901698891910034 0 0.5877852598018023 forward_v I I I I #
coedge $-1 $269 $270 $271 $272 reversed $107 $-1 #
face $-1 $-1 $273 $55 $-1 $274 forward single #
loop $-1 $275 $276 $109 #
cone-surface $-1 -35.016789411600776 14.222239081599625 0.75213919341266866 0.5877852598018023 0 -0.80901698891910034 0.60676274168932531 0 0.44083894485135172 1 I I -0.70710678118654757 0.70710678118654757 0.75 forward I I I I #
loop $-1 $-1 $277 $69 #
coedge $-1 $175 $175 $278 $279 reversed $110 $-1 #
face $-1 $280 $281 $42 $-1 $282 reversed single #
loop $-1 $-1 $283 $112 #
plane-surface $-1 0 -20.463566217396462 0 0 1 0 0 0 1 forward_v I I I I #
coedge $-1 $284 $285 $286 $287 forward $113 $-1 #
coedge $-1 $288 $115 $289 $290 forward $71 $-1 #
coedge $-1 $115 $288 $291 $292 forward $71 $-1 #
coedge $-1 $293 $294 $115 $183 reversed $295 $-1 #
edge $-1 $296 -20.463566217396462 $297 20.463566217396462 $182 $298 forward 7 unknown #
face $-1 $299 $300 $43 $-1 $301 reversed single #
loop $-1 $-1 $302 $116 #
plane-surface $-1 0 -9.6810497032472895 -4.5619492591220014 0 -1 0 0 0 -1 forward_v I I I I #
coedge $-1 $303 $304 $305 $306 reversed $117 $-1 #
coedge $-1 $307 $119 $308 $309 forward $74 $-1 #
coedge $-1 $119 $307 $310 $311 reversed $74 $-1 #
coedge $-1 $312 $313 $119 $191 forward $314 $-1 #
edge $-1 $315 2.1448957230863517 $316 12.927412237235524 $190 $317 forward 7 unknown #
face $-1 $318 $319 $44 $-1 $320 forward single #
loop $-1 $-1 $321 $120 #
plane-surface $-1 56.765675327097476 -0.45420128750795108 121.66464291745287 0 -1 0 -0.78801076186113728 0 -0.61566146476048833 forward_v I I I I #
coedge $-1 $322 $323 $324 $325 reversed $121 $-1 #
coedge $-1 $197 $123 $326 $327 reversed $77 $-1 #
coedge $-1 $123 $196 $322 $328 reversed $77 $-1 #
coedge $-1 $324 $329 $123 $199 forward $330 $-1 #
edge $-1 $331 52.654514085749973 $332 57.678104930756753 $198 $333 forward 7 unknown #
loop $-1 $-1 $205 $124 #
plane-surface $-1 -9.7651640074036763 -4.0596710788766615 69.685055862470847 0.78801076186113728 0 0.61566146476048833 0.61566146476048833 0 -0.78801076186113728 forward_v I I I I #
loop $-1 $-1 $334 $79 #
coedge $-1 $203 $203 $204 $335 reversed $125 $-1 #
coedge $-1 $204 $204 $203 $335 forward $127 $-1 #
coedge $-1 $205 $205 $128 $206 forward $200 $-1 #
edge $-1 $336 0 $336 6.2831853071796004 $205 $337 forward 7 unknown #
loop $-1 $-1 $212 $129 #
plane-surface $-1 -9.7651640074036763 -4.0596710788766615 69.685055862470847 0.78801076186113728 0 0.61566146476048833 0.61566146476048833 0 -0.78801076186113728 forward_v I I I I #
loop $-1 $-1 $338 $82 #
coedge $-1 $210 $210 $211 $339 reversed $130 $-1 #
coedge $-1 $211 $211 $210 $339 forward $132 $-1 #
coedge $-1 $212 $212 $133 $213 forward $207 $-1 #
edge $-1 $340 0 $340 6.2831853071796004 $212 $341 forward 7 unknown #
loop $-1 $-1 $219 $134 #
plane-surface $-1 -9.7651640074036763 -4.0596710788766615 69.685055862470847 0.78801076186113728 0 0.61566146476048833 0.61566146476048833 0 -0.78801076186113728 forward_v I I I I #
loop $-1 $-1 $342 $85 #
coedge $-1 $217 $217 $218 $343 reversed $135 $-1 #
coedge $-1 $218 $218 $217 $343 forward $137 $-1 #
coedge $-1 $219 $219 $138 $220 forward $214 $-1 #
edge $-1 $344 0 $344 6.2831853071796004 $219 $345 forward 7 unknown #
face $-1 $346 $347 $48 $-1 $348 reversed single #
loop $-1 $-1 $349 $139 #
plane-surface $-1 56.765675327097476 14.618106672813921 121.66464291745287 0 -1 0 -0.78801076186113728 0 -0.61566146476048833 forward_v I I I I #
coedge $-1 $350 $351 $352 $353 reversed $140 $-1 #
coedge $-1 $226 $142 $354 $355 reversed $89 $-1 #
coedge $-1 $142 $225 $350 $356 reversed $89 $-1 #
coedge $-1 $352 $357 $142 $228 forward $347 $-1 #
edge $-1 $358 52.654514085749973 $359 57.678104930756753 $227 $360 forward 7 unknown #
loop $-1 $-1 $234 $143 #
plane-surface $-1 -9.7651640074036763 11.012636881445211 69.685055862470847 0.78801076186113728 0 0.61566146476048833 0.61566146476048833 0 -0.78801076186113728 forward_v I I I I #
loop $-1 $-1 $361 $91 #
coedge $-1 $232 $232 $233 $362 reversed $144 $-1 #
coedge $-1 $233 $233 $232 $362 forward $146 $-1 #
coedge $-1 $234 $234 $147 $235 forward $229 $-1 #
edge $-1 $363 0 $363 6.2831853071796004 $234 $364 forward 7 unknown #
loop $-1 $-1 $241 $148 #
plane-surface $-1 -9.7651640074036763 11.012636881445211 69.685055862470847 0.78801076186113728 0 0.61566146476048833 0.61566146476048833 0 -0.78801076186113728 forward_v I I I I #
loop $-1 $-1 $365 $94 #
coedge $-1 $239 $239 $240 $366 reversed $149 $-1 #
coedge $-1 $240 $240 $239 $366 forward $151 $-1 #
coedge $-1 $241 $241 $152 $242 forward $236 $-1 #
edge $-1 $367 0 $367 6.2831853071796004 $241 $368 forward 7 unknown #
loop $-1 $-1 $248 $153 #
plane-surface $-1 -9.7651640074036763 11.012636881445211 69.685055862470847 0.78801076186113728 0 0.61566146476048833 0.61566146476048833 0 -0.78801076186113728 forward_v I I I I #
loop $-1 $-1 $369 $97 #
coedge $-1 $246 $246 $247 $370 reversed $154 $-1 #
coedge $-1 $247 $247 $246 $370 forward $156 $-1 #
coedge $-1 $248 $248 $157 $249 forward $243 $-1 #
edge $-1 $371 0 $371 6.2831853071796004 $248 $372 forward 7 unknown #
face $-1 $373 $374 $52 $-1 $375 reversed single #
loop $-1 $-1 $376 $158 #
plane-surface $-1 -91.840454284386425 0.032932983194482013 70.934438472265796 0 -1 0 0.5877852598018023 0 -0.80901698891910034 forward_v I I I I #
coedge $-1 $377 $378 $379 $380 reversed $159 $-1 #
coedge $-1 $255 $161 $381 $382 reversed $101 $-1 #
coedge $-1 $161 $254 $377 $383 reversed $101 $-1 #
coedge $-1 $379 $384 $161 $257 forward $385 $-1 #
edge $-1 $386 3.7058040946148552 $387 11.341612632169358 $256 $388 forward 7 unknown #
loop $-1 $-1 $263 $162 #
plane-surface $-1 -42.214423047578357 -3.4397225674504526 2.6300676264479677 -0.5877852598018023 0 0.80901698891910034 0.80901698891910034 0 0.5877852598018023 forward_v I I I I #
loop $-1 $-1 $389 $103 #
coedge $-1 $261 $261 $262 $390 reversed $163 $-1 #
coedge $-1 $262 $262 $261 $390 forward $165 $-1 #
coedge $-1 $263 $263 $166 $264 forward $258 $-1 #
edge $-1 $391 0 $391 6.2831853071796004 $263 $392 forward 7 unknown #
face $-1 $393 $394 $54 $-1 $395 forward single #
loop $-1 $-1 $396 $167 #
plane-surface $-1 -91.840454284386425 17.694894632244559 70.934438472265796 0 -1 0 0.5877852598018023 0 -0.80901698891910034 forward_v I I I I #
coedge $-1 $397 $398 $399 $400 reversed $168 $-1 #
coedge $-1 $270 $170 $401 $402 reversed $107 $-1 #
coedge $-1 $170 $269 $397 $403 reversed $107 $-1 #
coedge $-1 $399 $404 $170 $272 forward $394 $-1 #
edge $-1 $405 3.7058040946148552 $406 11.341612632169358 $271 $407 forward 7 unknown #
loop $-1 $-1 $278 $171 #
plane-surface $-1 -42.214423047578357 14.222239081599625 2.6300676264479677 -0.5877852598018023 0 0.80901698891910034 0.80901698891910034 0 0.5877852598018023 forward_v I I I I #
loop $-1 $-1 $408 $109 #
coedge $-1 $276 $276 $277 $409 reversed $172 $-1 #
coedge $-1 $277 $277 $276 $409 forward $174 $-1 #
coedge $-1 $278 $278 $175 $279 forward $273 $-1 #
edge $-1 $410 0 $410 6.2831853071796004 $278 $411 forward 7 unknown #
face $-1 $412 $413 $42 $-1 $414 reversed single #
loop $-1 $-1 $415 $176 #
plane-surface $-1 -42.214423047578357 0 0 1 0 0 0 0 -1 forward_v I I I I #
coedge $-1 $416 $291 $417 $418 forward $177 $-1 #
coedge $-1 $419 $179 $416 $420 forward $113 $-1 #
coedge $-1 $179 $419 $421 $422 forward $113 $-1 #
coedge $-1 $294 $293 $179 $287 reversed $295 $-1 #
edge $-1 $423 -20.463566217396462 $424 20.463566217396462 $286 $425 forward 7 unknown #
coedge $-1 $181 $180 $426 $427 forward $71 $-1 #
coedge $-1 $428 $429 $180 $290 reversed $413 $-1 #
edge $-1 $297 -42.214423047578357 $430 42.214423047578357 $289 $431 forward 7 unknown #
coedge $-1 $283 $432 $181 $292 reversed $177 $-1 #
edge $-1 $433 -42.214423047578357 $296 42.214423047578357 $291 $434 forward 7 unknown #
coedge $-1 $286 $182 $432 $435 forward $295 $-1 #
coedge $-1 $182 $286 $428 $436 reversed $295 $-1 #
loop $-1 $-1 $293 $412 #
vertex $-1 $183 $437 #
vertex $-1 $183 $438 #
straight-curve $-1 42.214423047578357 0 8.1778073729764618 0 1 0 I I #
face $-1 $439 $440 $43 $-1 $441 reversed single #
loop $-1 $-1 $442 $184 #
plane-surface $-1 -42.214423047578357 0 0 1 0 0 0 0 -1 forward_v I I I I #
coedge $-1 $443 $308 $313 $444 reversed $185 $-1 #
coedge $-1 $445 $187 $446 $447 reversed $117 $-1 #
coedge $-1 $187 $445 $443 $448 forward $117 $-1 #
coedge $-1 $313 $312 $187 $306 forward $314 $-1 #
edge $-1 $449 -12.927412237235524 $450 -2.1448957230863517 $305 $451 forward 7 unknown #
coedge $-1 $189 $188 $442 $452 reversed $74 $-1 #
coedge $-1 $302 $453 $188 $309 reversed $185 $-1 #
edge $-1 $315 -42.214423047578357 $454 42.214423047578357 $308 $455 forward 7 unknown #
coedge $-1 $456 $457 $189 $311 forward $440 $-1 #
edge $-1 $316 -42.214423047578357 $458 42.214423047578357 $310 $459 forward 7 unknown #
coedge $-1 $305 $190 $457 $460 forward $314 $-1 #
coedge $-1 $190 $305 $302 $444 forward $314 $-1 #
loop $-1 $-1 $190 $439 #
vertex $-1 $191 $461 #
vertex $-1 $460 $462 #
straight-curve $-1 42.214423047578357 -7.5361539801609378 -2.6034633495801396 0 -1 0 I I #
face $-1 $-1 $330 $44 $-1 $463 reversed single #
loop $-1 $-1 $464 $192 #
plane-surface $-1 0 0 8.1778073729764618 0 0 1 1 0 0 forward_v I I I I #
coedge $-1 $465 $466 $467 $468 reversed $193 $-1 #
coedge $-1 $469 $195 $197 $328 forward $121 $-1 #
coedge $-1 $195 $469 $465 $470 forward $121 $-1 #
coedge $-1 $467 $198 $195 $325 forward $330 $-1 #
edge $-1 $332 -5.6353053308070411 $471 1.5756342519303796 $324 $472 forward 7 unknown #
coedge $-1 $473 $474 $196 $327 forward $319 $-1 #
edge $-1 $475 9.9067261718412603 $331 13.831585384029619 $326 $476 forward 7 unknown #
edge $-1 $332 -84.428846095156743 $475 -78.053817874549736 $197 $477 forward 7 unknown #
coedge $-1 $198 $467 $473 $478 reversed $330 $-1 #
loop $-1 $-1 $467 $318 #
vertex $-1 $478 $479 #
vertex $-1 $199 $480 #
straight-curve $-1 42.214423047578357 -7.6651408702453718 60.832321458726433 0 0 -1 I I #
coedge $-1 $334 $334 $-1 $481 reversed $202 $-1 #
edge $-1 $482 0 $482 6.2831853071796004 $203 $483 forward 7 unknown #
vertex $-1 $206 $484 #
ellipse-curve $-1 40.251993441484181 -6.2229529536978863 5.6660119504730684 0.78801076186113728 0 0.61566146476048833 0.30783073238024417 0 -0.39400538093056864 1 I I #
coedge $-1 $338 $338 $-1 $485 reversed $209 $-1 #
edge $-1 $486 0 $486 6.2831853071796004 $210 $487 forward 7 unknown #
vertex $-1 $213 $488 #
ellipse-curve $-1 40.251993441484181 -4.0596710788766615 5.6660119504730684 0.78801076186113728 0 0.61566146476048833 0.30783073238024417 0 -0.39400538093056864 1 I I #
coedge $-1 $342 $342 $-1 $489 reversed $216 $-1 #
edge $-1 $490 0 $490 6.2831853071796004 $217 $491 forward 7 unknown #
vertex $-1 $220 $492 #
ellipse-curve $-1 40.251993441484181 -1.8963892040554349 5.6660119504730684 0.78801076186113728 0 0.61566146476048833 0.30783073238024417 0 -0.39400538093056864 1 I I #
face $-1 $-1 $493 $48 $-1 $494 forward single #
loop $-1 $-1 $227 $221 #
plane-surface $-1 42.214423047578357 0 0 -1 0 0 0 0 1 forward_v I I I I #
coedge $-1 $495 $496 $497 $498 reversed $222 $-1 #
coedge $-1 $499 $224 $226 $356 forward $140 $-1 #
coedge $-1 $224 $499 $495 $500 forward $140 $-1 #
coedge $-1 $497 $227 $224 $353 forward $347 $-1 #
edge $-1 $359 1.900848649353895 $501 9.1117882320913157 $352 $502 forward 7 unknown #
coedge $-1 $503 $504 $225 $355 forward $493 $-1 #
edge $-1 $505 9.9067261718412603 $358 13.831585384029619 $354 $506 forward 7 unknown #
edge $-1 $359 -84.428846095156743 $505 -78.053817874549736 $226 $507 forward 7 unknown #
coedge $-1 $227 $497 $503 $508 reversed $347 $-1 #
vertex $-1 $508 $509 #
vertex $-1 $228 $510 #
straight-curve $-1 42.214423047578357 7.4071670900765003 60.832321458726433 0 0 -1 I I #
coedge $-1 $361 $361 $-1 $511 reversed $231 $-1 #
edge $-1 $512 0 $512 6.2831853071796004 $232 $513 forward 7 unknown #
vertex $-1 $235 $514 #
ellipse-curve $-1 40.251993441484181 8.8493550066239877 5.6660119504730684 0.78801076186113728 0 0.61566146476048833 0.30783073238024417 0 -0.39400538093056864 1 I I #
coedge $-1 $365 $365 $-1 $515 reversed $238 $-1 #
edge $-1 $516 0 $516 6.2831853071796004 $239 $517 forward 7 unknown #
vertex $-1 $242 $518 #
ellipse-curve $-1 40.251993441484181 11.012636881445211 5.6660119504730684 0.78801076186113728 0 0.61566146476048833 0.30783073238024417 0 -0.39400538093056864 1 I I #
coedge $-1 $369 $369 $-1 $519 reversed $245 $-1 #
edge $-1 $520 0 $520 6.2831853071796004 $246 $521 forward 7 unknown #
vertex $-1 $249 $522 #
ellipse-curve $-1 40.251993441484181 13.175918756266441 5.6660119504730684 0.78801076186113728 0 0.61566146476048833 0.30783073238024417 0 -0.39400538093056864 1 I I #
face $-1 $-1 $385 $52 $-1 $523 forward single #
loop $-1 $-1 $524 $250 #
plane-surface $-1 -42.214423047578357 0 0 1 0 0 0 0 -1 forward_v I I I I #
coedge $-1 $525 $526 $527 $528 reversed $251 $-1 #
coedge $-1 $529 $253 $255 $383 forward $159 $-1 #
coedge $-1 $253 $529 $525 $530 forward $159 $-1 #
coedge $-1 $527 $256 $253 $380 forward $385 $-1 #
edge $-1 $387 -5.1925168343701609 $531 1.7527942669197083 $379 $532 forward 7 unknown #
coedge $-1 $533 $534 $254 $382 forward $374 $-1 #
edge $-1 $535 -32.837151609684931 $386 -27.289411863156438 $381 $536 forward 7 unknown #
edge $-1 $387 -9.4383784792411376 $535 0 $255 $537 forward 7 unknown #
coedge $-1 $256 $527 $533 $538 forward $385 $-1 #
loop $-1 $-1 $527 $373 #
vertex $-1 $382 $539 #
vertex $-1 $257 $540 #
straight-curve $-1 -45.920227142193212 -6.9123781180953872 8.17780737297646 1 0 0 I I #
coedge $-1 $389 $389 $-1 $541 reversed $260 $-1 #
edge $-1 $542 0 $542 6.2831853071796004 $261 $543 forward 7 unknown #
vertex $-1 $264 $544 #
ellipse-curve $-1 -38.396518778801102 -3.4397225674504526 5.4039374997122156 -0.5877852598018023 0 0.80901698891910034 1.2135254833786506 0 0.88167788970270344 1 I I #
face $-1 $-1 $545 $54 $-1 $546 reversed single #
loop $-1 $-1 $271 $265 #
plane-surface $-1 0 0 8.1778073729764618 0 0 1 1 0 0 forward_v I I I I #
coedge $-1 $547 $548 $549 $550 reversed $266 $-1 #
coedge $-1 $551 $268 $270 $403 forward $168 $-1 #
coedge $-1 $268 $551 $547 $552 forward $168 $-1 #
coedge $-1 $549 $271 $268 $400 forward $394 $-1 #
edge $-1 $406 3.6384639901548788 $553 10.583775091444746 $399 $554 forward 7 unknown #
coedge $-1 $555 $556 $269 $402 forward $545 $-1 #
edge $-1 $557 -32.837151609684931 $405 -27.289411863156438 $401 $558 forward 7 unknown #
edge $-1 $406 -9.4383784792411376 $557 0 $270 $559 forward 7 unknown #
coedge $-1 $271 $549 $555 $560 forward $394 $-1 #
vertex $-1 $272 $561 #
vertex $-1 $272 $562 #
straight-curve $-1 -45.920227142193212 10.749583530954691 8.17780737297646 1 0 0 I I #
coedge $-1 $408 $408 $-1 $563 reversed $275 $-1 #
edge $-1 $564 0 $564 6.2831853071796004 $276 $565 forward 7 unknown #
vertex $-1 $279 $566 #
ellipse-curve $-1 -38.396518778801102 14.222239081599625 5.4039374997122156 -0.5877852598018023 0 0.80901698891910034 1.2135254833786506 0 0.88167788970270344 1 I I #
face $-1 $-1 $295 $42 $-1 $567 reversed single #
loop $-1 $-1 $428 $280 #
plane-surface $-1 0 20.463566217396462 0 0 -1 0 0 0 -1 forward_v I I I I #
coedge $-1 $568 $426 $429 $569 forward $281 $-1 #
coedge $-1 $432 $283 $284 $420 reversed $177 $-1 #
coedge $-1 $426 $568 $283 $418 reversed $281 $-1 #
edge $-1 $433 -8.1778073729764618 $570 8.1778073729764618 $417 $571 forward 7 unknown #
coedge $-1 $285 $284 $568 $572 forward $113 $-1 #
edge $-1 $424 -42.214423047578357 $570 42.214423047578357 $416 $573 forward 7 unknown #
coedge $-1 $429 $428 $285 $422 reversed $413 $-1 #
edge $-1 $574 -42.214423047578357 $423 42.214423047578357 $421 $575 forward 7 unknown #
vertex $-1 $287 $576 #
vertex $-1 $435 $577 #
straight-curve $-1 42.214423047578357 0 -8.1778073729764618 0 -1 0 I I #
coedge $-1 $415 $417 $288 $427 reversed $281 $-1 #
edge $-1 $430 -20.463566217396462 $433 20.463566217396462 $426 $578 forward 7 unknown #
coedge $-1 $421 $289 $294 $436 forward $413 $-1 #
coedge $-1 $289 $421 $415 $569 reversed $413 $-1 #
vertex $-1 $290 $579 #
straight-curve $-1 0 20.463566217396462 8.1778073729764618 -1 0 0 I I #
coedge $-1 $291 $416 $293 $435 reversed $177 $-1 #
vertex $-1 $427 $580 #
straight-curve $-1 0 -20.463566217396462 8.1778073729764618 1 0 0 I I #
edge $-1 $296 -8.1778073729764618 $424 8.1778073729764618 $293 $581 forward 7 unknown #
edge $-1 $297 -8.1778073729764618 $423 8.1778073729764618 $294 $582 forward 7 unknown #
point $-1 42.214423047578357 -20.463566217396462 8.1778073729764618 #
point $-1 42.214423047578357 20.463566217396462 8.1778073729764618 #
face $-1 $-1 $314 $43 $-1 $583 reversed single #
loop $-1 $-1 $310 $299 #
plane-surface $-1 0 -20.463566217396462 0 0 1 0 0 0 1 forward_v I I I I #
coedge $-1 $584 $585 $307 $452 forward $300 $-1 #
coedge $-1 $453 $302 $304 $448 reversed $185 $-1 #
edge $-1 $450 -4.239460539102863 $315 -0.32248872001913886 $313 $586 forward 7 unknown #
coedge $-1 $304 $303 $587 $588 reversed $117 $-1 #
coedge $-1 $457 $456 $303 $447 forward $440 $-1 #
edge $-1 $589 -42.214423047578357 $449 42.214423047578357 $446 $590 forward 7 unknown #
edge $-1 $591 -42.214423047578357 $450 42.214423047578357 $443 $592 forward 7 unknown #
vertex $-1 $447 $593 #
vertex $-1 $306 $594 #
straight-curve $-1 42.214423047578357 -7.5361539801609378 -6.5204351686638633 0 1 0 I I #
edge $-1 $458 -12.927412237235524 $454 -2.1448957230863517 $442 $595 forward 7 unknown #
coedge $-1 $308 $443 $584 $596 reversed $185 $-1 #
vertex $-1 $452 $597 #
straight-curve $-1 0 -9.6810497032472895 -2.6034633495801396 -1 0 0 I I #
coedge $-1 $446 $310 $585 $598 forward $440 $-1 #
coedge $-1 $310 $446 $312 $460 reversed $440 $-1 #
vertex $-1 $598 $599 #
straight-curve $-1 0 -20.463566217396462 -2.6034633495801396 -1 0 0 I I #
edge $-1 $316 2.6034633495801396 $449 6.5204351686638633 $312 $600 forward 7 unknown #
point $-1 42.214423047578357 -9.6810497032472895 -2.6034633495801396 #
point $-1 42.214423047578357 -20.463566217396462 -2.6034633495801396 #
plane-surface $-1 42.214423047578357 0 0 -1 0 0 0 0 1 forward_v I I I I #
coedge $-1 $474 $473 $466 $601 forward $319 $-1 #
coedge $-1 $466 $321 $323 $470 reversed $193 $-1 #
coedge $-1 $321 $465 $464 $601 reversed $193 $-1 #
coedge $-1 $329 $324 $321 $468 forward $330 $-1 #
edge $-1 $471 -57.678104930756753 $602 -52.654514085749973 $467 $603 forward 7 unknown #
coedge $-1 $323 $322 $474 $604 reversed $121 $-1 #
edge $-1 $605 78.053817874549736 $471 84.428846095156743 $465 $606 forward 7 unknown #
vertex $-1 $325 $607 #
straight-curve $-1 42.214423047578364 -2.0298355394383307 3.1542165279696803 0 1 0 I I #
coedge $-1 $464 $326 $329 $478 forward $319 $-1 #
coedge $-1 $326 $464 $469 $604 forward $319 $-1 #
vertex $-1 $327 $608 #
straight-curve $-1 28.382837663548738 -7.6651408702453718 8.17780737297646 1 0 0 I I #
straight-curve $-1 -9.7651640074036763 -7.6651408702453718 69.685055862470847 -0.61566146476048833 0 0.78801076186113728 I I #
edge $-1 $331 -7.6651408702453718 $602 -0.45420128750795108 $329 $609 forward 7 unknown #
point $-1 42.214423047578357 -7.6651408702453718 8.1778073729764618 #
point $-1 42.214423047578357 -7.6651408702453718 3.1542165279696803 #
edge $-1 $610 1 $610 0 $334 $-1 forward 7 unknown #
vertex $-1 $335 $611 #
ellipse-curve $-1 38.930469549140902 -6.2229529536978863 4.6335243568335551 0.78801076186113728 0 0.61566146476048833 0.30783073238024417 0 -0.39400538093056864 1 I I #
point $-1 40.559824173864428 -6.2229529536978863 5.2720065695425005 #
edge $-1 $612 1 $612 0 $338 $-1 forward 7 unknown #
vertex $-1 $339 $613 #
ellipse-curve $-1 38.930469549140902 -4.0596710788766615 4.6335243568335551 0.78801076186113728 0 0.61566146476048833 0.30783073238024417 0 -0.39400538093056864 1 I I #
point $-1 40.559824173864428 -4.0596710788766615 5.2720065695425005 #
edge $-1 $614 1 $614 0 $342 $-1 forward 7 unknown #
vertex $-1 $343 $615 #
ellipse-curve $-1 38.930469549140902 -1.8963892040554349 4.6335243568335551 0.78801076186113728 0 0.61566146476048833 0.30783073238024417 0 -0.39400538093056864 1 I I #
point $-1 40.559824173864428 -1.8963892040554349 5.2720065695425005 #
loop $-1 $-1 $354 $346 #
plane-surface $-1 0 0 8.1778073729764618 0 0 1 1 0 0 forward_v I I I I #
coedge $-1 $496 $349 $351 $500 reversed $222 $-1 #
coedge $-1 $349 $495 $616 $617 reversed $222 $-1 #
coedge $-1 $357 $352 $349 $498 forward $347 $-1 #
edge $-1 $501 -57.678104930756753 $618 -52.654514085749973 $497 $619 forward 7 unknown #
coedge $-1 $351 $350 $504 $620 reversed $140 $-1 #
edge $-1 $621 78.053817874549736 $501 84.428846095156743 $495 $622 forward 7 unknown #
vertex $-1 $353 $623 #
straight-curve $-1 42.214423047578364 5.5063184407226053 3.1542165279696803 0 1 0 I I #
coedge $-1 $616 $354 $357 $508 forward $493 $-1 #
coedge $-1 $354 $616 $499 $620 forward $493 $-1 #
vertex $-1 $355 $624 #
straight-curve $-1 28.382837663548738 7.4071670900765003 8.17780737297646 1 0 0 I I #
straight-curve $-1 -9.7651640074036763 7.4071670900765003 69.685055862470847 -0.61566146476048833 0 0.78801076186113728 I I #
edge $-1 $358 7.4071670900765003 $618 14.618106672813921 $357 $625 forward 7 unknown #
point $-1 42.214423047578357 7.4071670900765003 8.1778073729764618 #
point $-1 42.214423047578357 7.4071670900765003 3.1542165279696803 #
edge $-1 $626 1 $626 0 $361 $-1 forward 7 unknown #
vertex $-1 $362 $627 #
ellipse-curve $-1 38.930469549140902 8.8493550066239877 4.6335243568335551 0.78801076186113728 0 0.61566146476048833 0.30783073238024417 0 -0.39400538093056864 1 I I #
point $-1 40.559824173864428 8.8493550066239877 5.2720065695425005 #
edge $-1 $628 1 $628 0 $365 $-1 forward 7 unknown #
vertex $-1 $366 $629 #
ellipse-curve $-1 38.930469549140902 11.012636881445211 4.6335243568335551 0.78801076186113728 0 0.61566146476048833 0.30783073238024417 0 -0.39400538093056864 1 I I #
point $-1 40.559824173864428 11.012636881445211 5.2720065695425005 #
edge $-1 $630 1 $630 0 $369 $-1 forward 7 unknown #
vertex $-1 $370 $631 #
ellipse-curve $-1 38.930469549140902 13.175918756266441 4.6335243568335551 0.78801076186113728 0 0.61566146476048833 0.30783073238024417 0 -0.39400538093056864 1 I I #
point $-1 40.559824173864428 13.175918756266441 5.2720065695425005 #
plane-surface $-1 0 0 8.1778073729764618 0 0 1 1 0 0 forward_v I I I I #
coedge $-1 $534 $533 $526 $632 forward $374 $-1 #
coedge $-1 $526 $376 $378 $530 reversed $251 $-1 #
coedge $-1 $376 $525 $524 $632 reversed $251 $-1 #
coedge $-1 $384 $379 $376 $528 forward $385 $-1 #
edge $-1 $531 -11.341612632169358 $633 -3.7058040946148552 $527 $634 forward 7 unknown #
coedge $-1 $378 $377 $534 $635 reversed $159 $-1 #
edge $-1 $636 0 $531 9.4383784792411376 $525 $637 forward 7 unknown #
vertex $-1 $380 $638 #
straight-curve $-1 -34.578614510023854 -1.7198612837252263 8.17780737297646 0 1 0 I I #
coedge $-1 $524 $381 $384 $538 reversed $374 $-1 #
coedge $-1 $381 $524 $529 $635 forward $374 $-1 #
vertex $-1 $382 $639 #
straight-curve $-1 -42.214423047578357 -6.9123781180953872 35.467219236132898 0 0 1 I I #
straight-curve $-1 -42.214423047578357 -6.9123781180953872 2.6300676264479677 -0.80901698891910034 0 -0.5877852598018023 I I #
edge $-1 $633 -0.032932983194482013 $386 6.9123781180953872 $533 $640 forward 7 unknown #
point $-1 -42.214423047578357 -6.9123781180953872 8.1778073729764618 #
point $-1 -34.578614510023854 -6.9123781180953872 8.1778073729764618 #
edge $-1 $641 1 $641 0 $389 $-1 forward 7 unknown #
vertex $-1 $390 $642 #
ellipse-curve $-1 -35.457628356452126 -3.4397225674504526 1.358901935101994 -0.5877852598018023 0 0.80901698891910034 1.2135254833786506 0 0.88167788970270344 1 I I #
point $-1 -37.182993295422449 -3.4397225674504526 6.2856153894149136 #
loop $-1 $-1 $401 $393 #
plane-surface $-1 -42.214423047578357 0 0 1 0 0 0 0 -1 forward_v I I I I #
coedge $-1 $548 $396 $398 $552 reversed $266 $-1 #
coedge $-1 $396 $547 $643 $644 reversed $266 $-1 #
coedge $-1 $404 $399 $396 $550 forward $394 $-1 #
edge $-1 $553 -11.341612632169358 $645 -3.7058040946148552 $549 $646 forward 7 unknown #
coedge $-1 $398 $397 $556 $647 reversed $168 $-1 #
edge $-1 $648 0 $553 9.4383784792411376 $547 $649 forward 7 unknown #
vertex $-1 $400 $650 #
straight-curve $-1 -34.578614510023854 7.1111195407998125 8.17780737297646 0 1 0 I I #
coedge $-1 $643 $401 $404 $560 reversed $545 $-1 #
coedge $-1 $401 $643 $551 $647 forward $545 $-1 #
vertex $-1 $402 $651 #
straight-curve $-1 -42.214423047578357 10.749583530954691 35.467219236132898 0 0 1 I I #
straight-curve $-1 -42.214423047578357 10.749583530954691 2.6300676264479677 -0.80901698891910034 0 -0.5877852598018023 I I #
edge $-1 $645 -17.694894632244559 $405 -10.749583530954691 $555 $652 forward 7 unknown #
point $-1 -42.214423047578357 10.749583530954691 8.1778073729764618 #
point $-1 -34.578614510023854 10.749583530954691 8.1778073729764618 #
edge $-1 $653 1 $653 0 $408 $-1 forward 7 unknown #
vertex $-1 $409 $654 #
ellipse-curve $-1 -35.457628356452126 14.222239081599625 1.358901935101994 -0.5877852598018023 0 0.80901698891910034 1.2135254833786506 0 0.88167788970270344 1 I I #
point $-1 -37.182993295422449 14.222239081599625 6.2856153894149136 #
plane-surface $-1 42.214423047578357 0 0 -1 0 0 0 0 1 forward_v I I I I #
coedge $-1 $417 $415 $419 $572 reversed $281 $-1 #
edge $-1 $430 -8.1778073729764618 $574 8.1778073729764618 $429 $655 forward 7 unknown #
vertex $-1 $572 $656 #
straight-curve $-1 -42.214423047578357 -20.463566217396462 0 0 0 -1 I I #
edge $-1 $570 -20.463566217396462 $574 20.463566217396462 $568 $657 forward 7 unknown #
straight-curve $-1 0 -20.463566217396462 -8.1778073729764618 -1 0 0 I I #
vertex $-1 $422 $658 #
straight-curve $-1 0 20.463566217396462 -8.1778073729764618 1 0 0 I I #
point $-1 42.214423047578357 20.463566217396462 -8.1778073729764618 #
point $-1 42.214423047578357 -20.463566217396462 -8.1778073729764618 #
straight-curve $-1 -42.214423047578357 0 8.1778073729764618 0 -1 0 I I #
point $-1 -42.214423047578357 20.463566217396462 8.1778073729764618 #
point $-1 -42.214423047578357 -20.463566217396462 8.1778073729764618 #
straight-curve $-1 42.214423047578357 -20.463566217396462 0 0 0 -1 I I #
straight-curve $-1 42.214423047578357 20.463566217396462 0 0 0 -1 I I #
plane-surface $-1 42.214423047578357 0 0 -1 0 0 0 0 1 forward_v I I I I #
coedge $-1 $587 $442 $453 $596 forward $300 $-1 #
coedge $-1 $442 $587 $456 $598 reversed $300 $-1 #
straight-curve $-1 42.214423047578357 -9.6810497032472895 -2.2809746295610007 0 0 1 I I #
coedge $-1 $585 $584 $445 $588 forward $300 $-1 #
edge $-1 $591 2.1448957230863517 $589 12.927412237235524 $587 $659 forward 7 unknown #
vertex $-1 $447 $660 #
straight-curve $-1 0 -20.463566217396462 -6.5204351686638633 1 0 0 I I #
vertex $-1 $588 $661 #
straight-curve $-1 0 -9.6810497032472895 -6.5204351686638633 1 0 0 I I #
point $-1 42.214423047578357 -20.463566217396462 -6.5204351686638633 #
point $-1 42.214423047578357 -9.6810497032472895 -6.5204351686638633 #
straight-curve $-1 -42.214423047578357 -7.5361539801609378 -2.6034633495801396 0 1 0 I I #
edge $-1 $454 0.32248872001913886 $591 4.239460539102863 $584 $662 forward 7 unknown #
point $-1 -42.214423047578357 -9.6810497032472895 -2.6034633495801396 #
edge $-1 $458 2.6034633495801396 $589 6.5204351686638633 $585 $663 forward 7 unknown #
point $-1 -42.214423047578357 -20.463566217396462 -2.6034633495801396 #
straight-curve $-1 42.214423047578357 -20.463566217396462 0 0 0 -1 I I #
edge $-1 $602 -13.831585384029619 $605 -9.9067261718412603 $464 $664 forward 7 unknown #
vertex $-1 $601 $665 #
straight-curve $-1 42.214423047578357 -0.45420128750795108 60.832321458726433 0 0 1 I I #
edge $-1 $605 -1.5756342519303796 $475 5.6353053308070411 $474 $666 forward 7 unknown #
vertex $-1 $604 $667 #
straight-curve $-1 -9.7651640074036763 -0.45420128750795108 69.685055862470847 0.61566146476048833 0 -0.78801076186113728 I I #
point $-1 42.214423047578357 -0.45420128750795108 3.1542165279696803 #
point $-1 38.289563835389998 -7.6651408702453718 8.1778073729764529 #
straight-curve $-1 42.214423047578357 0 8.1778073729764618 0 1 0 I I #
vertex $-1 $481 $668 #
point $-1 39.238300281521148 -6.2229529536978863 4.2395189759029863 #
vertex $-1 $485 $669 #
point $-1 39.238300281521148 -4.0596710788766615 4.2395189759029863 #
vertex $-1 $489 $670 #
point $-1 39.238300281521148 -1.8963892040554349 4.2395189759029863 #
coedge $-1 $504 $503 $496 $617 forward $493 $-1 #
edge $-1 $618 -13.831585384029619 $621 -9.9067261718412603 $616 $671 forward 7 unknown #
vertex $-1 $617 $672 #
straight-curve $-1 42.214423047578357 14.618106672813921 60.832321458726433 0 0 1 I I #
edge $-1 $621 -9.1117882320913157 $505 -1.900848649353895 $504 $673 forward 7 unknown #
vertex $-1 $620 $674 #
straight-curve $-1 -9.7651640074036763 14.618106672813921 69.685055862470847 0.61566146476048833 0 -0.78801076186113728 I I #
point $-1 42.214423047578357 14.618106672813921 3.1542165279696803 #
point $-1 38.289563835389998 7.4071670900765003 8.1778073729764529 #
straight-curve $-1 42.214423047578357 0 8.1778073729764618 0 1 0 I I #
vertex $-1 $511 $675 #
point $-1 39.238300281521148 8.8493550066239877 4.2395189759029863 #
vertex $-1 $515 $676 #
point $-1 39.238300281521148 11.012636881445211 4.2395189759029863 #
vertex $-1 $519 $677 #
point $-1 39.238300281521148 13.175918756266441 4.2395189759029863 #
edge $-1 $633 27.289411863156438 $636 32.837151609684931 $524 $678 forward 7 unknown #
vertex $-1 $538 $679 #
straight-curve $-1 -45.920227142193212 0.032932983194482013 8.17780737297646 -1 0 0 I I #
edge $-1 $636 -1.7527942669197083 $535 5.1925168343701609 $534 $680 forward 7 unknown #
vertex $-1 $635 $681 #
straight-curve $-1 -42.214423047578357 0.032932983194482013 2.6300676264479677 0.80901698891910034 0 0.5877852598018023 I I #
point $-1 -34.578614510023854 0.032932983194482013 8.1778073729764618 #
point $-1 -42.214423047578357 -6.9123781180953872 2.6300676264479677 #
straight-curve $-1 -42.214423047578357 0 8.1778073729764618 0 -1 0 I I #
vertex $-1 $541 $682 #
point $-1 -34.24410287307348 -3.4397225674504526 2.2405798248046973 #
coedge $-1 $556 $555 $548 $644 forward $545 $-1 #
edge $-1 $645 27.289411863156438 $648 32.837151609684931 $643 $683 forward 7 unknown #
vertex $-1 $560 $684 #
straight-curve $-1 -45.920227142193212 17.694894632244559 8.17780737297646 -1 0 0 I I #
edge $-1 $648 -10.583775091444746 $557 -3.6384639901548788 $556 $685 forward 7 unknown #
vertex $-1 $647 $686 #
straight-curve $-1 -42.214423047578357 17.694894632244559 2.6300676264479677 0.80901698891910034 0 0.5877852598018023 I I #
point $-1 -34.578614510023854 17.694894632244559 8.1778073729764618 #
point $-1 -42.214423047578357 10.749583530954691 2.6300676264479677 #
straight-curve $-1 -42.214423047578357 0 8.1778073729764618 0 -1 0 I I #
vertex $-1 $563 $687 #
point $-1 -34.24410287307348 14.222239081599625 2.2405798248046973 #
straight-curve $-1 -42.214423047578357 20.463566217396462 0 0 0 -1 I I #
point $-1 -42.214423047578357 -20.463566217396462 -8.1778073729764618 #
straight-curve $-1 -42.214423047578357 0 -8.1778073729764618 0 1 0 I I #
point $-1 -42.214423047578357 20.463566217396462 -8.1778073729764618 #
straight-curve $-1 -42.214423047578357 -7.5361539801609378 -6.5204351686638633 0 -1 0 I I #
point $-1 -42.214423047578357 -20.463566217396462 -6.5204351686638633 #
point $-1 -42.214423047578357 -9.6810497032472895 -6.5204351686638633 #
straight-curve $-1 -42.214423047578357 -9.6810497032472895 -2.2809746295610007 0 0 -1 I I #
straight-curve $-1 -42.214423047578357 -20.463566217396462 0 0 0 -1 I I #
straight-curve $-1 28.382837663548738 -0.45420128750795108 8.17780737297646 -1 0 0 I I #
point $-1 42.214423047578357 -0.45420128750795108 8.1778073729764618 #
straight-curve $-1 38.289563835389998 -2.0298355394383307 8.17780737297646 0 -1 0 I I #
point $-1 38.289563835389998 -0.45420128750795108 8.1778073729764529 #
point $-1 38.536464168210337 -6.2229529536978863 4.3256936244533106 #
point $-1 38.536464168210337 -4.0596710788766615 4.3256936244533106 #
point $-1 38.536464168210337 -1.8963892040554349 4.3256936244533106 #
straight-curve $-1 28.382837663548738 14.618106672813921 8.17780737297646 -1 0 0 I I #
point $-1 42.214423047578357 14.618106672813921 8.1778073729764618 #
straight-curve $-1 38.289563835389998 5.5063184407226053 8.17780737297646 0 -1 0 I I #
point $-1 38.289563835389998 14.618106672813921 8.1778073729764529 #
point $-1 38.536464168210337 8.8493550066239877 4.3256936244533106 #
point $-1 38.536464168210337 11.012636881445211 4.3256936244533106 #
point $-1 38.536464168210337 13.175918756266441 4.3256936244533106 #
straight-curve $-1 -42.214423047578357 0.032932983194482013 35.467219236132898 0 0 -1 I I #
point $-1 -42.214423047578357 0.032932983194482013 8.1778073729764618 #
straight-curve $-1 -42.214423047578357 -1.7198612837252263 2.6300676264479685 0 -1 0 I I #
point $-1 -42.214423047578357 0.032932983194482013 2.6300676264479677 #
point $-1 -34.575950466749426 -3.4397225674504526 0.14537645172334335 #
straight-curve $-1 -42.214423047578357 17.694894632244559 35.467219236132898 0 0 -1 I I #
point $-1 -42.214423047578357 17.694894632244559 8.1778073729764618 #
straight-curve $-1 -42.214423047578357 7.1111195407998125 2.6300676264479685 0 -1 0 I I #
point $-1 -42.214423047578357 17.694894632244559 2.6300676264479677 #
point $-1 -34.575950466749426 14.222239081599625 0.14537645172334335 #
End-of-ACIS-data 