500 0 9 0           
7 Unknown 11 ACIS 5.0 NT 24 Fri Mar 26 18:07:07 1999 
-1 9.9999999999999995e-007 1e-010 
body $-1 $9 $-1 $10 #
body $-1 $11 $-1 $12 #
body $-1 $13 $-1 $14 #
body $-1 $15 $-1 $16 #
body $-1 $17 $-1 $18 #
body $-1 $19 $-1 $20 #
body $-1 $21 $-1 $22 #
body $-1 $23 $-1 $24 #
body $-1 $25 $-1 $26 #
lump $-1 $-1 $27 $0 #
transform $-1 1 0 0 0 1 0 0 0 1 52.351451155125588 31.570160212413892 9.6371510215970311 1 rotate no_reflect no_shear #
lump $-1 $-1 $28 $1 #
transform $-1 1 0 0 0 1 0 0 0 1 52.351451155125588 31.570160212413892 9.6371510215970311 1 rotate no_reflect no_shear #
lump $-1 $-1 $29 $2 #
transform $-1 1 0 0 0 1 0 0 0 1 52.351451155125588 31.570160212413892 9.6371510215970311 1 rotate no_reflect no_shear #
lump $-1 $-1 $30 $3 #
transform $-1 1 0 0 0 1 0 0 0 1 52.351451155125588 31.570160212413892 9.6371510215970311 1 rotate no_reflect no_shear #
lump $-1 $-1 $31 $4 #
transform $-1 1 0 0 0 1 0 0 0 1 52.351451155125588 31.570160212413892 9.6371510215970311 1 rotate no_reflect no_shear #
lump $-1 $-1 $32 $5 #
transform $-1 1 0 0 0 1 0 0 0 1 52.351451155125588 31.570160212413892 9.6371510215970311 1 rotate no_reflect no_shear #
lump $-1 $-1 $33 $6 #
transform $-1 1 0 0 0 1 0 0 0 1 52.351451155125588 31.570160212413892 9.6371510215970311 1 rotate no_reflect no_shear #
lump $-1 $-1 $34 $7 #
transform $-1 1 0 0 0 1 0 0 0 1 52.351451155125588 31.570160212413892 9.6371510215970311 1 rotate no_reflect no_shear #
lump $-1 $-1 $35 $8 #
transform $-1 1 0 0 0 1 0 0 0 1 52.351451155125588 31.570160212413892 9.6371510215970311 1 rotate no_reflect no_shear #
shell $-1 $-1 $-1 $36 $-1 $9 #
shell $-1 $-1 $-1 $37 $-1 $11 #
shell $-1 $-1 $-1 $38 $-1 $13 #
shell $-1 $-1 $-1 $39 $-1 $15 #
shell $-1 $-1 $-1 $40 $-1 $17 #
shell $-1 $-1 $-1 $41 $-1 $19 #
shell $-1 $-1 $-1 $42 $-1 $21 #
shell $-1 $-1 $-1 $43 $-1 $23 #
shell $-1 $-1 $-1 $44 $-1 $25 #
face $-1 $45 $46 $27 $-1 $47 reversed single #
face $-1 $48 $49 $28 $-1 $50 forward single #
face $-1 $51 $52 $29 $-1 $53 reversed single #
face $-1 $54 $55 $30 $-1 $56 reversed single #
face $-1 $57 $58 $31 $-1 $59 forward single #
face $-1 $60 $61 $32 $-1 $62 forward single #
face $-1 $63 $64 $33 $-1 $65 reversed single #
face $-1 $66 $67 $34 $-1 $68 forward single #
face $-1 $69 $70 $35 $-1 $71 forward single #
face $-1 $72 $73 $27 $-1 $74 forward single #
loop $-1 $-1 $75 $36 #
plane-surface $-1 0 -31.570160212413892 0 0 1 0 0 0 1 forward_v I I I I #
face $-1 $76 $77 $28 $-1 $78 reversed single #
loop $-1 $-1 $79 $37 #
plane-surface $-1 0 -31.570160212413892 0 0 1 0 0 0 1 forward_v I I I I #
face $-1 $80 $81 $29 $-1 $82 reversed single #
loop $-1 $-1 $83 $38 #
plane-surface $-1 -45.894710092743409 21.826629066774025 0 0 1 0 0 0 1 forward_v I I I I #
face $-1 $84 $85 $30 $-1 $86 reversed single #
loop $-1 $-1 $87 $39 #
plane-surface $-1 49.767235493140973 11.544102995250775 149.99424955414108 0 -1 0 -0.69465837861970381 0 -0.71933979245794832 forward_v I I I I #
face $-1 $88 $89 $31 $-1 $90 forward single #
loop $-1 $91 $92 $40 #
cone-surface $-1 47.431594959645615 2.7325032708243491 4.8206672938598825 -0.69465837861970381 0 -0.71933979245794832 1.0790096886869225 0 -1.0419875679295556 1 I I 0 1 1.5 forward I I I I #
face $-1 $93 $94 $32 $-1 $95 forward single #
loop $-1 $96 $97 $41 #
cone-surface $-1 47.431594959645615 8.0194631054802024 4.8206672938598825 -0.69465837861970381 0 -0.71933979245794832 1.0790096886869225 0 -1.0419875679295556 1 I I 0 1 1.5 forward I I I I #
face $-1 $98 $99 $33 $-1 $100 reversed single #
loop $-1 $-1 $101 $42 #
plane-surface $-1 -113.8942737915593 12.53554652718751 85.968147810210809 0 1 0 -0.5877852598018023 0 0.80901698891910034 forward_v I I I I #
face $-1 $102 $103 $34 $-1 $104 forward single #
loop $-1 $105 $106 $43 #
cone-surface $-1 -45.448283765720298 15.190141538497944 3.8813622591129002 0.5877852598018023 0 -0.80901698891910034 0.80901698891910034 0 0.5877852598018023 1 I I 0 1 1 forward I I I I #
face $-1 $107 $108 $35 $-1 $109 forward single #
loop $-1 $110 $111 $44 #
cone-surface $-1 -45.448283765720298 19.172034055463588 3.8813622591129002 0.5877852598018023 0 -0.80901698891910034 0.80901698891910034 0 0.5877852598018023 1 I I 0 1 1 forward I I I I #
face $-1 $112 $113 $27 $-1 $114 reversed single #
loop $-1 $-1 $115 $45 #
plane-surface $-1 0 0 9.6371510215970311 0 0 1 1 0 0 forward_v I I I I #
coedge $-1 $116 $117 $118 $119 reversed $46 $-1 #
face $-1 $120 $121 $28 $-1 $122 reversed single #
loop $-1 $-1 $123 $48 #
plane-surface $-1 0 0 -9.6371510215970311 0 0 1 1 0 0 forward_v I I I I #
coedge $-1 $124 $125 $126 $127 forward $49 $-1 #
face $-1 $128 $129 $29 $-1 $130 reversed single #
loop $-1 $-1 $131 $51 #
plane-surface $-1 -47.394710092743409 26.69839463959396 0 1 0 0 0 0 -1 forward_v I I I I #
coedge $-1 $132 $133 $134 $135 forward $52 $-1 #
face $-1 $136 $137 $30 $-1 $138 reversed single #
loop $-1 $-1 $139 $54 #
plane-surface $-1 -22.96551286247535 5.3759831881522793 74.677285536540154 0.69465837861970381 0 0.71933979245794832 0.71933979245794832 0 -0.69465837861970381 forward_v I I I I #
coedge $-1 $140 $141 $142 $143 reversed $55 $-1 #
face $-1 $-1 $144 $31 $-1 $145 forward single #
loop $-1 $146 $147 $57 #
cone-surface $-1 45.973712301925516 2.7325032708243491 3.3109856421158632 -0.69465837861970381 0 -0.71933979245794832 0.53950484434346124 0 -0.5209937839647778 1 I I -0.70710678118654757 0.70710678118654757 0.75 forward I I I I #
loop $-1 $-1 $148 $40 #
coedge $-1 $92 $92 $149 $150 reversed $58 $-1 #
face $-1 $-1 $151 $32 $-1 $152 forward single #
loop $-1 $153 $154 $60 #
cone-surface $-1 45.973712301925516 8.0194631054802024 3.3109856421158632 -0.69465837861970381 0 -0.71933979245794832 0.53950484434346124 0 -0.5209937839647778 1 I I -0.70710678118654757 0.70710678118654757 0.75 forward I I I I #
loop $-1 $-1 $155 $41 #
coedge $-1 $97 $97 $156 $157 reversed $61 $-1 #
face $-1 $158 $159 $33 $-1 $160 forward single #
loop $-1 $-1 $161 $63 #
plane-surface $-1 -52.351451155125588 17.181087796980766 1.2617210520806879 -0.5877852598018023 0 0.80901698891910034 0.80901698891910034 0 0.5877852598018023 forward_v I I I I #
coedge $-1 $162 $163 $164 $165 reversed $64 $-1 #
face $-1 $-1 $166 $34 $-1 $167 forward single #
loop $-1 $168 $169 $66 #
cone-surface $-1 -44.015118827013517 15.190141538497944 1.9087799869273905 0.5877852598018023 0 -0.80901698891910034 0.40450849445955017 0 0.29389262990090115 1 I I -0.70710678118654746 0.70710678118654746 0.5 forward I I I I #
loop $-1 $-1 $170 $43 #
coedge $-1 $106 $106 $171 $172 reversed $67 $-1 #
face $-1 $-1 $173 $35 $-1 $174 forward single #
loop $-1 $175 $176 $69 #
cone-surface $-1 -44.015118827013517 19.172034055463588 1.9087799869273905 0.5877852598018023 0 -0.80901698891910034 0.40450849445955017 0 0.29389262990090115 1 I I -0.70710678118654746 0.70710678118654746 0.5 forward I I I I #
loop $-1 $-1 $177 $44 #
coedge $-1 $111 $111 $178 $179 reversed $70 $-1 #
face $-1 $180 $181 $27 $-1 $182 reversed single #
loop $-1 $-1 $183 $72 #
plane-surface $-1 0 0 -9.6371510215970311 0 0 1 1 0 0 forward_v I I I I #
coedge $-1 $184 $185 $186 $187 forward $73 $-1 #
coedge $-1 $188 $75 $189 $190 reversed $46 $-1 #
coedge $-1 $75 $188 $191 $192 forward $46 $-1 #
coedge $-1 $193 $183 $75 $119 forward $113 $-1 #
edge $-1 $194 -52.351451155125588 $195 52.351451155125588 $75 $196 forward 7 unknown #
face $-1 $197 $198 $28 $-1 $199 reversed single #
loop $-1 $-1 $200 $76 #
plane-surface $-1 -36.815166888713833 -38.761291895278212 0 0 1 0 0 0 1 forward_v I I I I #
coedge $-1 $201 $202 $125 $203 forward $77 $-1 #
coedge $-1 $204 $79 $205 $206 reversed $49 $-1 #
coedge $-1 $79 $204 $123 $203 reversed $49 $-1 #
coedge $-1 $207 $208 $79 $127 reversed $198 $-1 #
edge $-1 $209 -9.6371510215970311 $210 9.6371510215970311 $126 $211 forward 7 unknown #
face $-1 $212 $213 $29 $-1 $214 reversed single #
loop $-1 $-1 $215 $80 #
plane-surface $-1 -44.394710092743409 26.69839463959396 0 -1 0 0 0 0 1 forward_v I I I I #
coedge $-1 $216 $217 $218 $219 reversed $81 $-1 #
coedge $-1 $220 $83 $221 $222 reversed $52 $-1 #
coedge $-1 $83 $220 $223 $224 reversed $52 $-1 #
coedge $-1 $217 $216 $83 $135 reversed $81 $-1 #
edge $-1 $225 -9.6371510215970311 $226 9.6371510215970311 $134 $227 forward 7 unknown #
face $-1 $228 $229 $30 $-1 $230 forward single #
loop $-1 $-1 $231 $84 #
plane-surface $-1 49.767235493140973 -0.79213661894621623 149.99424955414108 0 1 0 0.69465837861970381 0 0.71933979245794832 forward_v I I I I #
coedge $-1 $232 $233 $234 $235 reversed $85 $-1 #
coedge $-1 $141 $87 $236 $237 reversed $55 $-1 #
coedge $-1 $87 $140 $232 $238 reversed $55 $-1 #
coedge $-1 $234 $239 $87 $143 forward $229 $-1 #
edge $-1 $240 -27.467833408555101 $241 -19.5018987651058 $142 $242 forward 7 unknown #
loop $-1 $-1 $149 $88 #
plane-surface $-1 -22.96551286247535 5.3759831881522793 74.677285536540154 0.69465837861970381 0 0.71933979245794832 0.71933979245794832 0 -0.69465837861970381 forward_v I I I I #
loop $-1 $-1 $243 $57 #
coedge $-1 $147 $147 $148 $244 reversed $89 $-1 #
coedge $-1 $148 $148 $147 $244 forward $91 $-1 #
coedge $-1 $149 $149 $92 $150 forward $144 $-1 #
edge $-1 $245 0 $245 6.2831853071796004 $149 $246 forward 7 unknown #
loop $-1 $-1 $156 $93 #
plane-surface $-1 -22.96551286247535 5.3759831881522793 74.677285536540154 0.69465837861970381 0 0.71933979245794832 0.71933979245794832 0 -0.69465837861970381 forward_v I I I I #
loop $-1 $-1 $247 $60 #
coedge $-1 $154 $154 $155 $248 reversed $94 $-1 #
coedge $-1 $155 $155 $154 $248 forward $96 $-1 #
coedge $-1 $156 $156 $97 $157 forward $151 $-1 #
edge $-1 $249 0 $249 6.2831853071796004 $156 $250 forward 7 unknown #
face $-1 $251 $252 $33 $-1 $253 reversed single #
loop $-1 $-1 $254 $98 #
plane-surface $-1 0 0 9.6371510215970311 0 0 1 1 0 0 forward_v I I I I #
coedge $-1 $255 $256 $257 $258 reversed $99 $-1 #
coedge $-1 $163 $101 $259 $260 reversed $64 $-1 #
coedge $-1 $101 $162 $255 $261 reversed $64 $-1 #
coedge $-1 $257 $262 $101 $165 forward $159 $-1 #
edge $-1 $263 4.5956857406540621 $264 16.123475901852871 $164 $265 forward 7 unknown #
loop $-1 $-1 $171 $102 #
plane-surface $-1 -52.351451155125588 17.181087796980766 1.2617210520806879 -0.5877852598018023 0 0.80901698891910034 0.80901698891910034 0 0.5877852598018023 forward_v I I I I #
loop $-1 $-1 $266 $66 #
coedge $-1 $169 $169 $170 $267 reversed $103 $-1 #
coedge $-1 $170 $170 $169 $267 forward $105 $-1 #
coedge $-1 $171 $171 $106 $172 forward $166 $-1 #
edge $-1 $268 0 $268 6.2831853071796004 $171 $269 forward 7 unknown #
loop $-1 $-1 $178 $107 #
plane-surface $-1 -52.351451155125588 17.181087796980766 1.2617210520806879 -0.5877852598018023 0 0.80901698891910034 0.80901698891910034 0 0.5877852598018023 forward_v I I I I #
loop $-1 $-1 $270 $69 #
coedge $-1 $176 $176 $177 $271 reversed $108 $-1 #
coedge $-1 $177 $177 $176 $271 forward $110 $-1 #
coedge $-1 $178 $178 $111 $179 forward $173 $-1 #
edge $-1 $272 0 $272 6.2831853071796004 $178 $273 forward 7 unknown #
face $-1 $274 $275 $27 $-1 $276 reversed single #
loop $-1 $-1 $277 $112 #
plane-surface $-1 -52.351451155125588 0 0 1 0 0 0 0 -1 forward_v I I I I #
coedge $-1 $118 $278 $279 $280 forward $113 $-1 #
coedge $-1 $281 $115 $282 $283 forward $73 $-1 #
coedge $-1 $115 $281 $188 $284 forward $73 $-1 #
coedge $-1 $189 $285 $115 $187 reversed $286 $-1 #
edge $-1 $287 -31.570160212413892 $288 31.570160212413892 $186 $289 forward 7 unknown #
coedge $-1 $117 $116 $185 $284 reversed $46 $-1 #
coedge $-1 $279 $186 $116 $190 forward $286 $-1 #
edge $-1 $287 -9.6371510215970311 $194 9.6371510215970311 $189 $290 forward 7 unknown #
coedge $-1 $291 $292 $117 $192 reversed $181 $-1 #
edge $-1 $293 -9.6371510215970311 $195 9.6371510215970311 $191 $294 forward 7 unknown #
coedge $-1 $278 $118 $292 $295 forward $113 $-1 #
vertex $-1 $190 $296 #
vertex $-1 $295 $297 #
straight-curve $-1 0 -31.570160212413892 -9.6371510215970311 -1 0 0 I I #
face $-1 $298 $299 $28 $-1 $300 reversed single #
loop $-1 $-1 $126 $120 #
plane-surface $-1 -38.995738847978416 -35.165726053846051 0 1 0 0 0 0 -1 forward_v I I I I #
coedge $-1 $301 $302 $303 $304 forward $121 $-1 #
coedge $-1 $305 $123 $306 $307 forward $77 $-1 #
coedge $-1 $123 $305 $207 $308 forward $77 $-1 #
edge $-1 $209 -38.995738847978416 $309 -34.63459492944925 $123 $310 forward 7 unknown #
coedge $-1 $125 $124 $311 $312 forward $49 $-1 #
coedge $-1 $313 $314 $124 $206 forward $315 $-1 #
edge $-1 $316 34.63459492944925 $210 38.995738847978416 $205 $317 forward 7 unknown #
coedge $-1 $303 $126 $202 $308 reversed $198 $-1 #
coedge $-1 $126 $303 $313 $318 reversed $198 $-1 #
vertex $-1 $203 $319 #
vertex $-1 $318 $320 #
straight-curve $-1 -38.995738847978416 -31.570160212413892 0 0 0 1 I I #
face $-1 $321 $322 $29 $-1 $323 forward single #
loop $-1 $-1 $218 $128 #
plane-surface $-1 0 31.570160212413892 0 0 -1 0 0 0 -1 forward_v I I I I #
coedge $-1 $324 $325 $220 $326 forward $129 $-1 #
coedge $-1 $134 $131 $327 $328 reversed $81 $-1 #
coedge $-1 $131 $134 $329 $330 reversed $81 $-1 #
coedge $-1 $331 $332 $131 $219 forward $213 $-1 #
edge $-1 $333 -9.6371510215970311 $334 9.6371510215970311 $218 $335 forward 7 unknown #
coedge $-1 $133 $132 $215 $326 reversed $52 $-1 #
coedge $-1 $327 $336 $132 $222 forward $337 $-1 #
edge $-1 $338 21.447355046371705 $226 24.447355046371705 $221 $339 forward 7 unknown #
coedge $-1 $340 $329 $133 $224 forward $322 $-1 #
edge $-1 $225 -24.447355046371705 $341 -21.447355046371705 $223 $342 forward 7 unknown #
vertex $-1 $224 $343 #
vertex $-1 $222 $344 #
straight-curve $-1 -47.394710092743409 21.826629066774025 0 0 0 -1 I I #
face $-1 $-1 $345 $30 $-1 $346 reversed single #
loop $-1 $-1 $142 $136 #
plane-surface $-1 0 0 9.6371510215970311 0 0 1 1 0 0 forward_v I I I I #
coedge $-1 $347 $348 $349 $350 reversed $137 $-1 #
coedge $-1 $351 $139 $141 $238 forward $85 $-1 #
coedge $-1 $139 $351 $347 $352 forward $85 $-1 #
coedge $-1 $349 $142 $139 $235 forward $229 $-1 #
edge $-1 $241 -8.8561114011746351 $353 3.4801282130223559 $234 $354 forward 7 unknown #
coedge $-1 $355 $356 $140 $237 forward $345 $-1 #
edge $-1 $357 -73.052587596146722 $240 -65.359973755473504 $236 $358 forward 7 unknown #
edge $-1 $241 93.628949879189236 $357 104.70290231025119 $141 $359 forward 7 unknown #
coedge $-1 $142 $349 $355 $360 forward $229 $-1 #
vertex $-1 $143 $361 #
vertex $-1 $143 $362 #
straight-curve $-1 24.883617746570486 11.544102995250775 9.6371510215970346 -1 0 0 I I #
coedge $-1 $243 $243 $-1 $363 reversed $146 $-1 #
edge $-1 $364 0 $364 6.2831853071796004 $147 $365 forward 7 unknown #
vertex $-1 $150 $366 #
ellipse-curve $-1 48.368483833400923 2.7325032708243491 5.7908441012604293 0.69465837861970381 0 0.71933979245794832 1.0790096886869225 0 -1.0419875679295556 1 I I #
coedge $-1 $247 $247 $-1 $367 reversed $153 $-1 #
edge $-1 $368 0 $368 6.2831853071796004 $154 $369 forward 7 unknown #
vertex $-1 $157 $370 #
ellipse-curve $-1 48.368483833400923 8.0194631054802024 5.7908441012604293 0.69465837861970381 0 0.71933979245794832 1.0790096886869225 0 -1.0419875679295556 1 I I #
face $-1 $-1 $371 $33 $-1 $372 forward single #
loop $-1 $-1 $373 $158 #
plane-surface $-1 -52.351451155125588 0 0 1 0 0 0 0 -1 forward_v I I I I #
coedge $-1 $262 $257 $374 $375 forward $159 $-1 #
coedge $-1 $376 $161 $163 $261 forward $99 $-1 #
coedge $-1 $161 $376 $377 $378 reversed $99 $-1 #
coedge $-1 $254 $164 $161 $258 forward $159 $-1 #
edge $-1 $264 3.9450026286971269 $379 13.236085168283639 $257 $380 forward 7 unknown #
coedge $-1 $381 $382 $162 $260 forward $252 $-1 #
edge $-1 $383 -41.722352853024717 $263 -33.34692288350837 $259 $384 forward 7 unknown #
edge $-1 $264 -14.249132365688254 $383 0 $163 $385 forward 7 unknown #
coedge $-1 $164 $254 $381 $386 forward $159 $-1 #
vertex $-1 $260 $387 #
vertex $-1 $165 $388 #
straight-curve $-1 -56.94713689577965 12.53554652718751 9.6371510215970275 1 0 0 I I #
coedge $-1 $266 $266 $-1 $389 reversed $168 $-1 #
edge $-1 $390 0 $390 6.2831853071796004 $169 $391 forward 7 unknown #
vertex $-1 $172 $392 #
ellipse-curve $-1 -46.587556074526184 15.190141538497944 5.4494360368388595 -0.5877852598018023 0 0.80901698891910034 0.80901698891910034 0 0.5877852598018023 1 I I #
coedge $-1 $270 $270 $-1 $393 reversed $175 $-1 #
edge $-1 $394 0 $394 6.2831853071796004 $176 $395 forward 7 unknown #
vertex $-1 $179 $396 #
ellipse-curve $-1 -46.587556074526184 19.172034055463588 5.4494360368388595 -0.5877852598018023 0 0.80901698891910034 0.80901698891910034 0 0.5877852598018023 1 I I #
face $-1 $-1 $286 $27 $-1 $397 reversed single #
loop $-1 $-1 $398 $180 #
plane-surface $-1 0 31.570160212413892 0 0 -1 0 0 0 -1 forward_v I I I I #
coedge $-1 $292 $291 $399 $400 forward $181 $-1 #
coedge $-1 $183 $193 $401 $402 forward $113 $-1 #
coedge $-1 $285 $189 $183 $280 reversed $286 $-1 #
edge $-1 $403 -31.570160212413892 $194 31.570160212413892 $279 $404 forward 7 unknown #
coedge $-1 $185 $184 $291 $405 forward $73 $-1 #
coedge $-1 $398 $399 $184 $283 reversed $275 $-1 #
edge $-1 $288 -52.351451155125588 $406 52.351451155125588 $282 $407 forward 7 unknown #
edge $-1 $293 -52.351451155125588 $287 52.351451155125588 $188 $408 forward 7 unknown #
coedge $-1 $186 $279 $398 $409 reversed $286 $-1 #
loop $-1 $-1 $189 $274 #
vertex $-1 $187 $410 #
vertex $-1 $187 $411 #
straight-curve $-1 52.351451155125588 0 9.6371510215970311 0 1 0 I I #
straight-curve $-1 52.351451155125588 -31.570160212413892 0 0 0 -1 I I #
coedge $-1 $277 $191 $281 $405 reversed $181 $-1 #
coedge $-1 $191 $277 $193 $295 reversed $181 $-1 #
vertex $-1 $405 $412 #
straight-curve $-1 -52.351451155125588 -31.570160212413892 0 0 0 -1 I I #
edge $-1 $195 -31.570160212413892 $413 31.570160212413892 $292 $414 forward 7 unknown #
point $-1 52.351451155125588 -31.570160212413892 -9.6371510215970311 #
point $-1 -52.351451155125588 -31.570160212413892 -9.6371510215970311 #
face $-1 $-1 $315 $28 $-1 $415 forward single #
loop $-1 $-1 $416 $197 #
plane-surface $-1 -34.63459492944925 -35.165726053846051 0 -1 0 0 0 0 1 forward_v I I I I #
coedge $-1 $417 $200 $305 $418 reversed $121 $-1 #
coedge $-1 $200 $417 $419 $420 reversed $121 $-1 #
coedge $-1 $208 $207 $200 $304 reversed $198 $-1 #
edge $-1 $421 -9.6371510215970311 $422 9.6371510215970311 $303 $423 forward 7 unknown #
coedge $-1 $202 $201 $301 $418 forward $77 $-1 #
coedge $-1 $311 $416 $201 $307 reversed $299 $-1 #
edge $-1 $309 -3.5955658414321618 $424 3.5955658414321618 $306 $425 forward 7 unknown #
edge $-1 $422 -3.5955658414321618 $209 3.5955658414321618 $207 $426 forward 7 unknown #
vertex $-1 $307 $427 #
straight-curve $-1 0 -31.570160212413892 -9.6371510215970311 1 0 0 I I #
coedge $-1 $428 $306 $204 $312 reversed $299 $-1 #
edge $-1 $316 -9.6371510215970311 $309 9.6371510215970311 $311 $429 forward 7 unknown #
coedge $-1 $419 $205 $208 $318 forward $315 $-1 #
coedge $-1 $205 $419 $428 $430 forward $315 $-1 #
loop $-1 $-1 $205 $298 #
vertex $-1 $206 $431 #
straight-curve $-1 0 -31.570160212413892 9.6371510215970311 -1 0 0 I I #
edge $-1 $210 -3.5955658414321618 $421 3.5955658414321618 $208 $432 forward 7 unknown #
point $-1 -38.995738847978416 -31.570160212413889 -9.6371510215970311 #
point $-1 -38.995738847978416 -31.570160212413889 9.6371510215970311 #
face $-1 $-1 $337 $29 $-1 $433 reversed single #
loop $-1 $-1 $329 $212 #
plane-surface $-1 0 0 9.6371510215970311 0 0 1 1 0 0 forward_v I I I I #
coedge $-1 $434 $215 $336 $435 reversed $129 $-1 #
coedge $-1 $215 $434 $340 $436 reversed $129 $-1 #
edge $-1 $341 -9.6371510215970311 $338 9.6371510215970311 $215 $437 forward 7 unknown #
coedge $-1 $438 $221 $216 $328 forward $337 $-1 #
edge $-1 $226 8.4774317469770448 $333 18.220962892616917 $327 $439 forward 7 unknown #
coedge $-1 $223 $440 $217 $330 forward $322 $-1 #
edge $-1 $334 -18.220962892616917 $225 -8.4774317469770448 $329 $441 forward 7 unknown #
coedge $-1 $442 $218 $440 $443 reversed $213 $-1 #
coedge $-1 $218 $442 $438 $444 reversed $213 $-1 #
vertex $-1 $444 $445 #
vertex $-1 $219 $446 #
straight-curve $-1 -47.394710092743409 31.570160212413892 0 0 0 1 I I #
coedge $-1 $221 $438 $324 $435 forward $337 $-1 #
loop $-1 $-1 $327 $321 #
vertex $-1 $222 $447 #
straight-curve $-1 -22.947355046371705 21.826629066774025 -9.6371510215970311 -1 0 0 I I #
coedge $-1 $440 $223 $325 $436 forward $322 $-1 #
vertex $-1 $224 $448 #
straight-curve $-1 -22.947355046371705 21.826629066774025 9.6371510215970311 1 0 0 I I #
point $-1 -47.394710092743409 21.826629066774025 9.6371510215970311 #
point $-1 -47.394710092743409 21.826629066774025 -9.6371510215970311 #
loop $-1 $-1 $236 $228 #
plane-surface $-1 52.351451155125588 0 0 -1 0 0 0 0 1 forward_v I I I I #
coedge $-1 $348 $231 $233 $352 reversed $137 $-1 #
coedge $-1 $231 $347 $449 $450 reversed $137 $-1 #
coedge $-1 $239 $234 $231 $350 forward $229 $-1 #
edge $-1 $353 19.5018987651058 $451 27.467833408555101 $349 $452 forward 7 unknown #
coedge $-1 $233 $232 $356 $453 reversed $85 $-1 #
edge $-1 $454 -104.70290231025119 $353 -93.628949879189236 $347 $455 forward 7 unknown #
vertex $-1 $235 $456 #
straight-curve $-1 44.3855165116763 2.6879915940761396 9.6371510215970346 0 -1 0 I I #
coedge $-1 $449 $236 $239 $360 reversed $345 $-1 #
coedge $-1 $236 $449 $351 $453 forward $345 $-1 #
vertex $-1 $237 $457 #
straight-curve $-1 52.351451155125588 11.544102995250775 74.997124777070539 0 0 1 I I #
straight-curve $-1 -22.96551286247535 11.544102995250775 74.677285536540154 0.71933979245794832 0 -0.69465837861970381 I I #
edge $-1 $451 -0.79213661894621623 $240 11.544102995250775 $355 $458 forward 7 unknown #
point $-1 52.351451155125588 11.544102995250775 9.6371510215970311 #
point $-1 44.385516511676286 11.544102995250775 9.6371510215970346 #
edge $-1 $459 1 $459 0 $243 $-1 forward 7 unknown #
vertex $-1 $244 $460 #
ellipse-curve $-1 46.494706085890293 2.7325032708243491 3.8504904864593246 0.69465837861970381 0 0.71933979245794832 1.0790096886869225 0 -1.0419875679295556 1 I I #
point $-1 49.447493522087854 2.7325032708243491 4.7488565333308852 #
edge $-1 $461 1 $461 0 $247 $-1 forward 7 unknown #
vertex $-1 $248 $462 #
ellipse-curve $-1 46.494706085890293 8.0194631054802024 3.8504904864593246 0.69465837861970381 0 0.71933979245794832 1.0790096886869225 0 -1.0419875679295556 1 I I #
point $-1 49.447493522087854 8.0194631054802024 4.7488565333308852 #
loop $-1 $-1 $377 $251 #
plane-surface $-1 -45.894710092743409 21.826629066774025 0 0 1 0 0 0 1 forward_v I I I I #
coedge $-1 $382 $381 $463 $464 forward $252 $-1 #
coedge $-1 $377 $463 $254 $375 reversed $371 $-1 #
edge $-1 $379 17.876305947555075 $465 29.404096108753883 $254 $466 forward 7 unknown #
coedge $-1 $256 $255 $382 $467 reversed $99 $-1 #
coedge $-1 $463 $374 $256 $378 forward $371 $-1 #
edge $-1 $379 -12.008136277626207 $468 2.2409960880620492 $377 $469 forward 7 unknown #
vertex $-1 $258 $470 #
straight-curve $-1 -40.823660993926772 8.5905438984903828 9.6371510215970311 0 1 0 I I #
coedge $-1 $373 $259 $262 $386 reversed $252 $-1 #
coedge $-1 $259 $373 $376 $467 forward $252 $-1 #
vertex $-1 $260 $471 #
straight-curve $-1 -52.351451155125588 12.53554652718751 42.984073905105404 0 0 1 I I #
straight-curve $-1 -52.351451155125588 12.53554652718751 1.2617210520806879 -0.80901698891910034 0 -0.5877852598018023 I I #
edge $-1 $465 -21.826629066774021 $263 -12.53554652718751 $381 $472 forward 7 unknown #
point $-1 -52.351451155125588 12.53554652718751 9.6371510215970311 #
point $-1 -40.823660993926779 12.53554652718751 9.6371510215970311 #
edge $-1 $473 1 $473 0 $266 $-1 forward 7 unknown #
vertex $-1 $267 $474 #
ellipse-curve $-1 -44.309011456914419 15.190141538497944 2.3132884813869405 -0.5877852598018023 0 0.80901698891910034 0.80901698891910034 0 0.5877852598018023 1 I I #
point $-1 -45.778539085607086 15.190141538497944 6.037221296640662 #
edge $-1 $475 1 $475 0 $270 $-1 forward 7 unknown #
vertex $-1 $271 $476 #
ellipse-curve $-1 -44.309011456914419 19.172034055463588 2.3132884813869405 -0.5877852598018023 0 0.80901698891910034 0.80901698891910034 0 0.5877852598018023 1 I I #
point $-1 -45.778539085607086 19.172034055463588 6.037221296640662 #
plane-surface $-1 52.351451155125588 0 0 -1 0 0 0 0 1 forward_v I I I I #
coedge $-1 $401 $282 $285 $409 forward $275 $-1 #
coedge $-1 $282 $401 $277 $400 reversed $275 $-1 #
edge $-1 $406 -9.6371510215970311 $413 9.6371510215970311 $399 $477 forward 7 unknown #
coedge $-1 $399 $398 $278 $402 reversed $275 $-1 #
edge $-1 $413 -52.351451155125588 $403 52.351451155125588 $401 $478 forward 7 unknown #
vertex $-1 $280 $479 #
straight-curve $-1 52.351451155125588 0 -9.6371510215970311 0 -1 0 I I #
edge $-1 $406 -31.570160212413892 $293 31.570160212413892 $291 $480 forward 7 unknown #
vertex $-1 $283 $481 #
straight-curve $-1 0 31.570160212413892 9.6371510215970311 -1 0 0 I I #
straight-curve $-1 0 -31.570160212413892 9.6371510215970311 1 0 0 I I #
edge $-1 $288 -9.6371510215970311 $403 9.6371510215970311 $285 $482 forward 7 unknown #
point $-1 52.351451155125588 -31.570160212413892 9.6371510215970311 #
point $-1 52.351451155125588 31.570160212413892 9.6371510215970311 #
point $-1 -52.351451155125588 -31.570160212413892 9.6371510215970311 #
vertex $-1 $402 $483 #
straight-curve $-1 -52.351451155125588 0 -9.6371510215970311 0 1 0 I I #
plane-surface $-1 0 0 9.6371510215970311 0 0 1 1 0 0 forward_v I I I I #
coedge $-1 $306 $428 $417 $484 forward $299 $-1 #
coedge $-1 $302 $301 $416 $484 reversed $121 $-1 #
edge $-1 $424 -2.1805719592645829 $422 2.1805719592645829 $301 $485 forward 7 unknown #
coedge $-1 $314 $313 $302 $420 forward $315 $-1 #
edge $-1 $421 -2.1805719592645829 $486 2.1805719592645829 $302 $487 forward 7 unknown #
vertex $-1 $318 $488 #
vertex $-1 $308 $489 #
straight-curve $-1 -38.995738847978416 -38.761291895278212 0 0 0 -1 I I #
vertex $-1 $484 $490 #
straight-curve $-1 -34.63459492944925 -35.165726053846051 -9.6371510215970311 0 -1 0 I I #
straight-curve $-1 -38.995738847978416 -35.165726053846051 -9.6371510215970311 0 1 0 I I #
point $-1 -34.63459492944925 -31.570160212413889 -9.6371510215970311 #
coedge $-1 $416 $311 $314 $430 reversed $299 $-1 #
straight-curve $-1 -34.63459492944925 -31.570160212413892 0 0 0 -1 I I #
edge $-1 $486 -3.5955658414321618 $316 3.5955658414321618 $428 $491 forward 7 unknown #
point $-1 -34.63459492944925 -31.570160212413889 9.6371510215970311 #
straight-curve $-1 -38.995738847978416 -35.165726053846051 9.6371510215970311 0 -1 0 I I #
plane-surface $-1 0 0 -9.6371510215970311 0 0 1 1 0 0 forward_v I I I I #
coedge $-1 $325 $324 $442 $492 reversed $129 $-1 #
edge $-1 $493 -18.220962892616917 $338 -8.4774317469770448 $336 $494 forward 7 unknown #
edge $-1 $341 8.4774317469770448 $495 18.220962892616917 $340 $496 forward 7 unknown #
straight-curve $-1 -44.394710092743409 21.826629066774025 0 0 0 -1 I I #
coedge $-1 $336 $327 $332 $444 forward $337 $-1 #
straight-curve $-1 -47.394710092743409 13.34919731979698 -9.6371510215970311 0 1 0 I I #
coedge $-1 $329 $340 $331 $443 forward $322 $-1 #
straight-curve $-1 -47.394710092743409 13.34919731979698 9.6371510215970311 0 -1 0 I I #
coedge $-1 $332 $331 $434 $492 forward $213 $-1 #
edge $-1 $495 44.394710092743409 $334 47.394710092743409 $331 $497 forward 7 unknown #
edge $-1 $333 -47.394710092743409 $493 -44.394710092743409 $332 $498 forward 7 unknown #
point $-1 -47.394710092743409 31.570160212413896 -9.6371510215970311 #
point $-1 -47.394710092743409 31.570160212413896 9.6371510215970311 #
point $-1 -44.394710092743409 21.826629066774025 -9.6371510215970311 #
point $-1 -44.394710092743409 21.826629066774025 9.6371510215970311 #
coedge $-1 $356 $355 $348 $450 forward $345 $-1 #
edge $-1 $451 65.359973755473504 $454 73.052587596146722 $449 $499 forward 7 unknown #
vertex $-1 $360 $500 #
straight-curve $-1 24.883617746570486 -0.79213661894621623 9.6371510215970346 1 0 0 I I #
edge $-1 $454 -3.4801282130223559 $357 8.8561114011746351 $356 $501 forward 7 unknown #
vertex $-1 $453 $502 #
straight-curve $-1 -22.96551286247535 -0.79213661894621623 74.677285536540154 -0.71933979245794832 0 0.69465837861970381 I I #
point $-1 44.385516511676286 -0.79213661894621623 9.6371510215970346 #
point $-1 52.351451155125588 11.544102995250775 1.9445371809238168 #
straight-curve $-1 52.351451155125588 0 9.6371510215970311 0 1 0 I I #
vertex $-1 $363 $503 #
point $-1 47.573715774577217 2.7325032708243491 2.808502918529769 #
vertex $-1 $367 $504 #
point $-1 47.573715774577217 8.0194631054802024 2.808502918529769 #
coedge $-1 $374 $377 $373 $464 reversed $371 $-1 #
edge $-1 $465 33.34692288350837 $468 41.722352853024717 $373 $505 forward 7 unknown #
vertex $-1 $386 $506 #
straight-curve $-1 -22.947355046371705 21.826629066774025 9.6371510215970311 -1 0 0 I I #
edge $-1 $468 -13.236085168283639 $383 -3.9450026286971269 $382 $507 forward 7 unknown #
vertex $-1 $464 $508 #
straight-curve $-1 -50.538447247782145 21.826629066774025 2.5789455199170606 -0.80901698891910034 0 -0.5877852598018023 I I #
point $-1 -40.823660993926779 21.826629066774021 9.6371510215970311 #
point $-1 -52.351451155125588 12.53554652718751 1.2617210520806879 #
straight-curve $-1 -52.351451155125588 0 9.6371510215970311 0 -1 0 I I #
vertex $-1 $389 $509 #
point $-1 -43.499994467995315 15.190141538497944 2.9010737411887431 #
vertex $-1 $393 $510 #
point $-1 -43.499994467995315 19.172034055463588 2.9010737411887431 #
straight-curve $-1 -52.351451155125588 31.570160212413892 0 0 0 -1 I I #
straight-curve $-1 0 31.570160212413892 -9.6371510215970311 1 0 0 I I #
point $-1 52.351451155125588 31.570160212413892 -9.6371510215970311 #
straight-curve $-1 -52.351451155125588 0 9.6371510215970311 0 -1 0 I I #
point $-1 -52.351451155125588 31.570160212413892 9.6371510215970311 #
straight-curve $-1 52.351451155125588 31.570160212413892 0 0 0 -1 I I #
point $-1 -52.351451155125588 31.570160212413892 -9.6371510215970311 #
edge $-1 $486 -9.6371510215970311 $424 9.6371510215970311 $416 $511 forward 7 unknown #
straight-curve $-1 -36.815166888713833 -38.761291895278212 -9.6371510215970311 -1 0 0 I I #
vertex $-1 $430 $512 #
straight-curve $-1 -36.815166888713833 -38.761291895278212 9.6371510215970311 1 0 0 I I #
point $-1 -38.995738847978416 -38.761291895278212 9.6371510215970311 #
point $-1 -38.995738847978416 -38.761291895278212 -9.6371510215970311 #
point $-1 -34.63459492944925 -38.761291895278212 -9.6371510215970311 #
straight-curve $-1 -34.63459492944925 -35.165726053846051 9.6371510215970311 0 1 0 I I #
edge $-1 $495 -9.6371510215970311 $493 9.6371510215970311 $442 $513 forward 7 unknown #
vertex $-1 $492 $514 #
straight-curve $-1 -44.394710092743409 13.34919731979698 -9.6371510215970311 0 -1 0 I I #
vertex $-1 $443 $515 #
straight-curve $-1 -44.394710092743409 13.34919731979698 9.6371510215970311 0 1 0 I I #
straight-curve $-1 0 31.570160212413892 9.6371510215970311 -1 0 0 I I #
straight-curve $-1 0 31.570160212413892 -9.6371510215970311 1 0 0 I I #
straight-curve $-1 52.351451155125588 -0.79213661894621623 74.997124777070539 0 0 -1 I I #
point $-1 52.351451155125588 -0.79213661894621623 9.6371510215970311 #
straight-curve $-1 52.351451155125588 2.6879915940761396 1.9445371809238239 0 1 0 I I #
point $-1 52.351451155125588 -0.79213661894621623 1.9445371809238168 #
point $-1 45.45271851796074 2.7325032708243491 2.7714807977724019 #
point $-1 45.45271851796074 8.0194631054802024 2.7714807977724019 #
straight-curve $-1 -52.351451155125588 21.826629066774021 42.984073905105404 0 0 -1 I I #
point $-1 -52.351451155125588 21.826629066774021 9.6371510215970311 #
straight-curve $-1 -52.351451155125588 8.5905438984903828 1.2617210520806861 0 -1 0 I I #
point $-1 -52.351451155125588 21.826629066774021 1.2617210520806879 #
point $-1 -43.721226197112614 15.190141538497944 1.5042714924678404 #
point $-1 -43.721226197112614 19.172034055463588 1.5042714924678404 #
straight-curve $-1 -34.63459492944925 -38.761291895278212 0 0 0 -1 I I #
point $-1 -34.63459492944925 -38.761291895278212 9.6371510215970311 #
straight-curve $-1 -44.394710092743409 31.570160212413892 0 0 0 -1 I I #
point $-1 -44.394710092743409 31.570160212413896 -9.6371510215970311 #
point $-1 -44.394710092743409 31.570160212413896 9.6371510215970311 #
End-of-ACIS-data 