500 0 14 0           
7 Unknown 11 ACIS 5.0 NT 24 Fri Mar 26 20:20:17 1999 
-1 9.9999999999999995e-007 1e-010 
body $-1 $14 $-1 $15 #
body $-1 $16 $-1 $17 #
body $-1 $18 $-1 $19 #
body $-1 $20 $-1 $21 #
body $-1 $22 $-1 $23 #
body $-1 $24 $-1 $25 #
body $-1 $26 $-1 $27 #
body $-1 $28 $-1 $29 #
body $-1 $30 $-1 $31 #
body $-1 $32 $-1 $33 #
body $-1 $34 $-1 $35 #
body $-1 $36 $-1 $37 #
body $-1 $38 $-1 $39 #
body $-1 $40 $-1 $41 #
lump $-1 $-1 $42 $0 #
transform $-1 1 0 0 0 1 0 0 0 1 67.211523789178131 34.119381254213387 11.71702473528738 1 rotate no_reflect no_shear #
lump $-1 $-1 $43 $1 #
transform $-1 1 0 0 0 1 0 0 0 1 67.211523789178131 34.119381254213387 11.71702473528738 1 rotate no_reflect no_shear #
lump $-1 $-1 $44 $2 #
transform $-1 1 0 0 0 1 0 0 0 1 67.211523789178131 34.119381254213387 11.71702473528738 1 rotate no_reflect no_shear #
lump $-1 $-1 $45 $3 #
transform $-1 1 0 0 0 1 0 0 0 1 67.211523789178131 34.119381254213387 11.71702473528738 1 rotate no_reflect no_shear #
lump $-1 $-1 $46 $4 #
transform $-1 1 0 0 0 1 0 0 0 1 67.211523789178131 34.119381254213387 11.71702473528738 1 rotate no_reflect no_shear #
lump $-1 $-1 $47 $5 #
transform $-1 1 0 0 0 1 0 0 0 1 67.211523789178131 34.119381254213387 11.71702473528738 1 rotate no_reflect no_shear #
lump $-1 $-1 $48 $6 #
transform $-1 1 0 0 0 1 0 0 0 1 67.211523789178131 34.119381254213387 11.71702473528738 1 rotate no_reflect no_shear #
lump $-1 $-1 $49 $7 #
transform $-1 1 0 0 0 1 0 0 0 1 67.211523789178131 34.119381254213387 11.71702473528738 1 rotate no_reflect no_shear #
lump $-1 $-1 $50 $8 #
transform $-1 1 0 0 0 1 0 0 0 1 67.211523789178131 34.119381254213387 11.71702473528738 1 rotate no_reflect no_shear #
lump $-1 $-1 $51 $9 #
transform $-1 1 0 0 0 1 0 0 0 1 67.211523789178131 34.119381254213387 11.71702473528738 1 rotate no_reflect no_shear #
lump $-1 $-1 $52 $10 #
transform $-1 1 0 0 0 1 0 0 0 1 67.211523789178131 34.119381254213387 11.71702473528738 1 rotate no_reflect no_shear #
lump $-1 $-1 $53 $11 #
transform $-1 1 0 0 0 1 0 0 0 1 67.211523789178131 34.119381254213387 11.71702473528738 1 rotate no_reflect no_shear #
lump $-1 $-1 $54 $12 #
transform $-1 1 0 0 0 1 0 0 0 1 67.211523789178131 34.119381254213387 11.71702473528738 1 rotate no_reflect no_shear #
lump $-1 $-1 $55 $13 #
transform $-1 1 0 0 0 1 0 0 0 1 67.211523789178131 34.119381254213387 11.71702473528738 1 rotate no_reflect no_shear #
shell $-1 $-1 $-1 $56 $-1 $14 #
shell $-1 $-1 $-1 $57 $-1 $16 #
shell $-1 $-1 $-1 $58 $-1 $18 #
shell $-1 $-1 $-1 $59 $-1 $20 #
shell $-1 $-1 $-1 $60 $-1 $22 #
shell $-1 $-1 $-1 $61 $-1 $24 #
shell $-1 $-1 $-1 $62 $-1 $26 #
shell $-1 $-1 $-1 $63 $-1 $28 #
shell $-1 $-1 $-1 $64 $-1 $30 #
shell $-1 $-1 $-1 $65 $-1 $32 #
shell $-1 $-1 $-1 $66 $-1 $34 #
shell $-1 $-1 $-1 $67 $-1 $36 #
shell $-1 $-1 $-1 $68 $-1 $38 #
shell $-1 $-1 $-1 $69 $-1 $40 #
face $-1 $70 $71 $42 $-1 $72 forward single #
face $-1 $73 $74 $43 $-1 $75 reversed single #
face $-1 $76 $77 $44 $-1 $78 reversed single #
face $-1 $79 $80 $45 $-1 $81 reversed single #
face $-1 $82 $83 $46 $-1 $84 forward single #
face $-1 $85 $86 $47 $-1 $87 forward single #
face $-1 $88 $89 $48 $-1 $90 reversed single #
face $-1 $91 $92 $49 $-1 $93 forward single #
face $-1 $94 $95 $50 $-1 $96 reversed single #
face $-1 $97 $98 $51 $-1 $99 forward single #
face $-1 $100 $101 $52 $-1 $102 reversed single #
face $-1 $103 $104 $53 $-1 $105 forward single #
face $-1 $106 $107 $54 $-1 $108 reversed single #
face $-1 $109 $110 $55 $-1 $111 forward single #
face $-1 $112 $113 $42 $-1 $114 reversed single #
loop $-1 $-1 $115 $56 #
plane-surface $-1 0 0 11.71702473528738 0 0 1 1 0 0 forward_v I I I I #
face $-1 $116 $117 $43 $-1 $118 reversed single #
loop $-1 $-1 $119 $57 #
plane-surface $-1 -61.30462644222807 -13.685331783638627 0 0 1 0 0 0 1 forward_v I I I I #
face $-1 $120 $121 $44 $-1 $122 reversed single #
loop $-1 $-1 $123 $58 #
plane-surface $-1 61.304626442228056 -13.685331783638627 0 0 1 0 0 0 1 forward_v I I I I #
face $-1 $124 $125 $45 $-1 $126 reversed single #
loop $-1 $-1 $127 $59 #
plane-surface $-1 9.7751131163157261 -113.13126719840756 115.89584513192264 -1 0 0 0 -0.5877852598018023 0.80901698891910034 forward_v I I I I #
face $-1 $128 $129 $46 $-1 $130 forward single #
loop $-1 $131 $132 $60 #
cone-surface $-1 -2.2215411913350636 -29.664365183184948 7.6297514388287535 0 0.5877852598018023 -0.80901698891910034 1.5 0 0 1 I I 0 1 1.5 forward I I I I #
face $-1 $133 $134 $47 $-1 $135 forward single #
loop $-1 $136 $137 $61 #
cone-surface $-1 4.9764513932554024 -29.664365183184948 7.6297514388287535 0 0.5877852598018023 -0.80901698891910034 1.5 0 0 1 I I 0 1 1.5 forward I I I I #
face $-1 $138 $139 $48 $-1 $140 reversed single #
loop $-1 $-1 $141 $62 #
plane-surface $-1 -50.329667505726981 50.101579737681313 157.88519358912583 1 0 0 0 -0.54463904215088732 -0.83867056331134215 forward_v I I I I #
face $-1 $142 $143 $49 $-1 $144 forward single #
loop $-1 $145 $146 $63 #
cone-surface $-1 -40.803581062848515 30.60711170221915 8.8685897842652182 0 -0.54463904215088732 -0.83867056331134215 1.5 0 0 1 I I 0 1 1.5 forward I I I I #
face $-1 $147 $148 $50 $-1 $149 reversed single #
loop $-1 $-1 $150 $64 #
plane-surface $-1 -23.127280130494633 50.101579737681313 157.88519358912583 1 0 0 0 -0.54463904215088732 -0.83867056331134215 forward_v I I I I #
face $-1 $151 $152 $51 $-1 $153 forward single #
loop $-1 $154 $155 $65 #
cone-surface $-1 -13.601193687616167 30.60711170221915 8.8685897842652182 0 -0.54463904215088732 -0.83867056331134215 1.5 0 0 1 I I 0 1 1.5 forward I I I I #
face $-1 $156 $157 $52 $-1 $158 reversed single #
loop $-1 $-1 $159 $66 #
plane-surface $-1 4.0751072447377208 50.101579737681313 157.88519358912583 1 0 0 0 -0.54463904215088732 -0.83867056331134215 forward_v I I I I #
face $-1 $160 $161 $53 $-1 $162 forward single #
loop $-1 $163 $164 $67 #
cone-surface $-1 13.601193687616188 30.60711170221915 8.8685897842652182 0 -0.54463904215088732 -0.83867056331134215 1.5 0 0 1 I I 0 1 1.5 forward I I I I #
face $-1 $165 $166 $54 $-1 $167 reversed single #
loop $-1 $-1 $168 $68 #
plane-surface $-1 31.277494619970071 50.101579737681313 157.88519358912583 1 0 0 0 -0.54463904215088732 -0.83867056331134215 forward_v I I I I #
face $-1 $169 $170 $55 $-1 $171 forward single #
loop $-1 $172 $173 $69 #
cone-surface $-1 40.803581062848536 30.60711170221915 8.8685897842652182 0 -0.54463904215088732 -0.83867056331134215 1.5 0 0 1 I I 0 1 1.5 forward I I I I #
face $-1 $174 $175 $42 $-1 $176 reversed single #
loop $-1 $-1 $177 $70 #
plane-surface $-1 0 0 -11.71702473528738 0 0 1 1 0 0 forward_v I I I I #
coedge $-1 $178 $179 $180 $181 forward $71 $-1 #
face $-1 $182 $183 $43 $-1 $184 reversed single #
loop $-1 $-1 $185 $73 #
plane-surface $-1 -61.30462644222807 -10.685331783638627 0 0 -1 0 0 0 -1 forward_v I I I I #
coedge $-1 $186 $187 $188 $189 reversed $74 $-1 #
face $-1 $190 $191 $44 $-1 $192 reversed single #
loop $-1 $-1 $193 $76 #
plane-surface $-1 55.397729095277995 -12.185331783638627 0 1 0 0 0 0 -1 forward_v I I I I #
coedge $-1 $194 $195 $196 $197 forward $77 $-1 #
face $-1 $198 $199 $45 $-1 $200 reversed single #
loop $-1 $-1 $201 $79 #
plane-surface $-1 1.3774551009601765 -34.119381254213394 7.1453159387518923 0 -0.5877852598018023 0.80901698891910034 1 0 0 forward_v I I I I #
coedge $-1 $202 $203 $204 $205 reversed $80 $-1 #
face $-1 $-1 $206 $46 $-1 $207 forward single #
loop $-1 $208 $209 $82 #
cone-surface $-1 -2.2215411913350636 -27.914718772498176 5.2215697989485381 0 0.5877852598018023 -0.80901698891910034 0.75 0 0 1 I I -0.70710678118654757 0.70710678118654757 0.75 forward I I I I #
loop $-1 $-1 $210 $60 #
coedge $-1 $132 $132 $211 $212 reversed $83 $-1 #
face $-1 $-1 $213 $47 $-1 $214 forward single #
loop $-1 $215 $216 $85 #
cone-surface $-1 4.9764513932554024 -27.914718772498176 5.2215697989485381 0 0.5877852598018023 -0.80901698891910034 0.75 0 0 1 I I -0.70710678118654757 0.70710678118654757 0.75 forward I I I I #
loop $-1 $-1 $217 $61 #
coedge $-1 $137 $137 $218 $219 reversed $86 $-1 #
face $-1 $220 $221 $48 $-1 $222 reversed single #
loop $-1 $-1 $223 $88 #
plane-surface $-1 -40.803581062848515 -23.110460138397791 45.148540554558437 0 0.54463904215088732 0.83867056331134215 1 0 0 forward_v I I I I #
coedge $-1 $224 $225 $226 $227 reversed $89 $-1 #
face $-1 $-1 $228 $49 $-1 $229 forward single #
loop $-1 $230 $231 $91 #
cone-surface $-1 -40.803581062848515 29.561274095735342 7.2581411261997477 0 -0.54463904215088732 -0.83867056331134215 0.75 0 0 1 I I -0.70710678118654757 0.70710678118654757 0.75 forward I I I I #
loop $-1 $-1 $232 $63 #
coedge $-1 $146 $146 $233 $234 reversed $92 $-1 #
face $-1 $235 $236 $50 $-1 $237 reversed single #
loop $-1 $-1 $238 $94 #
plane-surface $-1 -13.601193687616167 -23.110460138397791 45.148540554558437 0 0.54463904215088732 0.83867056331134215 1 0 0 forward_v I I I I #
coedge $-1 $239 $240 $241 $242 reversed $95 $-1 #
face $-1 $-1 $243 $51 $-1 $244 forward single #
loop $-1 $245 $246 $97 #
cone-surface $-1 -13.601193687616167 29.561274095735342 7.2581411261997477 0 -0.54463904215088732 -0.83867056331134215 0.75 0 0 1 I I -0.70710678118654757 0.70710678118654757 0.75 forward I I I I #
loop $-1 $-1 $247 $65 #
coedge $-1 $155 $155 $248 $249 reversed $98 $-1 #
face $-1 $250 $251 $52 $-1 $252 reversed single #
loop $-1 $-1 $253 $100 #
plane-surface $-1 13.601193687616188 -23.110460138397791 45.148540554558437 0 0.54463904215088732 0.83867056331134215 1 0 0 forward_v I I I I #
coedge $-1 $254 $255 $256 $257 reversed $101 $-1 #
face $-1 $-1 $258 $53 $-1 $259 forward single #
loop $-1 $260 $261 $103 #
cone-surface $-1 13.601193687616188 29.561274095735342 7.2581411261997477 0 -0.54463904215088732 -0.83867056331134215 0.75 0 0 1 I I -0.70710678118654757 0.70710678118654757 0.75 forward I I I I #
loop $-1 $-1 $262 $67 #
coedge $-1 $164 $164 $263 $264 reversed $104 $-1 #
face $-1 $265 $266 $54 $-1 $267 reversed single #
loop $-1 $-1 $268 $106 #
plane-surface $-1 40.803581062848536 -23.110460138397791 45.148540554558437 0 0.54463904215088732 0.83867056331134215 1 0 0 forward_v I I I I #
coedge $-1 $269 $270 $271 $272 reversed $107 $-1 #
face $-1 $-1 $273 $55 $-1 $274 forward single #
loop $-1 $275 $276 $109 #
cone-surface $-1 40.803581062848536 29.561274095735342 7.2581411261997477 0 -0.54463904215088732 -0.83867056331134215 0.75 0 0 1 I I -0.70710678118654757 0.70710678118654757 0.75 forward I I I I #
loop $-1 $-1 $277 $69 #
coedge $-1 $173 $173 $278 $279 reversed $110 $-1 #
face $-1 $280 $281 $42 $-1 $282 reversed single #
loop $-1 $-1 $283 $112 #
plane-surface $-1 0 -34.119381254213387 0 0 1 0 0 0 1 forward_v I I I I #
coedge $-1 $284 $285 $286 $287 forward $113 $-1 #
coedge $-1 $288 $115 $289 $290 forward $71 $-1 #
coedge $-1 $115 $288 $291 $292 forward $71 $-1 #
coedge $-1 $293 $294 $115 $181 reversed $295 $-1 #
edge $-1 $296 -34.119381254213387 $297 34.119381254213387 $180 $298 forward 7 unknown #
face $-1 $299 $300 $43 $-1 $301 reversed single #
loop $-1 $-1 $302 $116 #
plane-surface $-1 -55.397729095278009 -12.185331783638627 0 -1 0 0 0 0 1 forward_v I I I I #
coedge $-1 $303 $304 $305 $306 forward $117 $-1 #
coedge $-1 $307 $119 $308 $309 reversed $74 $-1 #
coedge $-1 $119 $307 $310 $311 reversed $74 $-1 #
coedge $-1 $312 $313 $119 $189 forward $314 $-1 #
edge $-1 $315 -11.71702473528738 $316 11.71702473528738 $188 $317 forward 7 unknown #
face $-1 $318 $319 $44 $-1 $320 reversed single #
loop $-1 $-1 $321 $120 #
plane-surface $-1 61.304626442228056 -10.685331783638627 0 0 -1 0 0 0 -1 forward_v I I I I #
coedge $-1 $322 $323 $324 $325 forward $121 $-1 #
coedge $-1 $326 $123 $327 $328 reversed $77 $-1 #
coedge $-1 $123 $326 $329 $330 reversed $77 $-1 #
coedge $-1 $323 $322 $123 $197 reversed $121 $-1 #
edge $-1 $331 -11.71702473528738 $332 11.71702473528738 $196 $333 forward 7 unknown #
face $-1 $334 $335 $45 $-1 $336 forward single #
loop $-1 $-1 $337 $124 #
plane-surface $-1 -7.020202914395373 -113.13126719840756 115.89584513192264 1 0 0 0 0.5877852598018023 -0.80901698891910034 forward_v I I I I #
coedge $-1 $338 $339 $340 $341 reversed $125 $-1 #
coedge $-1 $203 $127 $342 $343 reversed $80 $-1 #
coedge $-1 $127 $202 $338 $344 reversed $80 $-1 #
coedge $-1 $340 $345 $127 $205 forward $335 $-1 #
edge $-1 $346 22.446252344990391 $347 28.738669555376447 $204 $348 forward 7 unknown #
loop $-1 $-1 $211 $128 #
plane-surface $-1 1.3774551009601765 -34.119381254213394 7.1453159387518923 0 -0.5877852598018023 0.80901698891910034 1 0 0 forward_v I I I I #
loop $-1 $-1 $349 $82 #
coedge $-1 $209 $209 $210 $350 reversed $129 $-1 #
coedge $-1 $210 $210 $209 $350 forward $131 $-1 #
coedge $-1 $211 $211 $132 $212 forward $206 $-1 #
edge $-1 $351 8.6817316165030489e-016 $351 6.2831853071796013 $211 $352 forward 7 unknown #
loop $-1 $-1 $218 $133 #
plane-surface $-1 1.3774551009601765 -34.119381254213394 7.1453159387518923 0 -0.5877852598018023 0.80901698891910034 1 0 0 forward_v I I I I #
loop $-1 $-1 $353 $85 #
coedge $-1 $216 $216 $217 $354 reversed $134 $-1 #
coedge $-1 $217 $217 $216 $354 forward $136 $-1 #
coedge $-1 $218 $218 $137 $219 forward $213 $-1 #
edge $-1 $355 8.6817316165030489e-016 $355 6.2831853071796013 $218 $356 forward 7 unknown #
face $-1 $357 $358 $48 $-1 $359 reversed single #
loop $-1 $-1 $360 $138 #
plane-surface $-1 -31.277494619970049 50.101579737681313 157.88519358912583 -1 0 0 0 0.54463904215088732 0.83867056331134215 forward_v I I I I #
coedge $-1 $361 $362 $363 $364 reversed $139 $-1 #
coedge $-1 $225 $141 $365 $366 reversed $89 $-1 #
coedge $-1 $141 $224 $361 $367 reversed $89 $-1 #
coedge $-1 $363 $368 $141 $227 forward $369 $-1 #
edge $-1 $370 -9.0685913853727307 $371 -3.3187689311255433 $226 $372 forward 7 unknown #
loop $-1 $-1 $233 $142 #
plane-surface $-1 -40.803581062848515 -23.110460138397791 45.148540554558437 0 0.54463904215088732 0.83867056331134215 1 0 0 forward_v I I I I #
loop $-1 $-1 $373 $91 #
coedge $-1 $231 $231 $232 $374 reversed $143 $-1 #
coedge $-1 $232 $232 $231 $374 forward $145 $-1 #
coedge $-1 $233 $233 $146 $234 forward $228 $-1 #
edge $-1 $375 -6.9640653815017792e-016 $375 6.2831853071795996 $233 $376 forward 7 unknown #
face $-1 $377 $378 $50 $-1 $379 forward single #
loop $-1 $-1 $380 $147 #
plane-surface $-1 -4.0751072447376995 50.101579737681313 157.88519358912583 -1 0 0 0 0.54463904215088732 0.83867056331134215 forward_v I I I I #
coedge $-1 $381 $382 $383 $384 reversed $148 $-1 #
coedge $-1 $240 $150 $385 $386 reversed $95 $-1 #
coedge $-1 $150 $239 $381 $387 reversed $95 $-1 #
coedge $-1 $383 $388 $150 $242 forward $378 $-1 #
edge $-1 $389 -9.0685913853727307 $390 -3.3187689311255433 $241 $391 forward 7 unknown #
loop $-1 $-1 $248 $151 #
plane-surface $-1 -13.601193687616167 -23.110460138397791 45.148540554558437 0 0.54463904215088732 0.83867056331134215 1 0 0 forward_v I I I I #
loop $-1 $-1 $392 $97 #
coedge $-1 $246 $246 $247 $393 reversed $152 $-1 #
coedge $-1 $247 $247 $246 $393 forward $154 $-1 #
coedge $-1 $248 $248 $155 $249 forward $243 $-1 #
edge $-1 $394 -6.9640653815017792e-016 $394 6.2831853071795996 $248 $395 forward 7 unknown #
face $-1 $396 $397 $52 $-1 $398 forward single #
loop $-1 $-1 $399 $156 #
plane-surface $-1 23.127280130494654 50.101579737681313 157.88519358912583 -1 0 0 0 0.54463904215088732 0.83867056331134215 forward_v I I I I #
coedge $-1 $400 $401 $402 $403 reversed $157 $-1 #
coedge $-1 $255 $159 $404 $405 reversed $101 $-1 #
coedge $-1 $159 $254 $400 $406 reversed $101 $-1 #
coedge $-1 $402 $407 $159 $257 forward $397 $-1 #
edge $-1 $408 -9.0685913853727307 $409 -3.3187689311255433 $256 $410 forward 7 unknown #
loop $-1 $-1 $263 $160 #
plane-surface $-1 13.601193687616188 -23.110460138397791 45.148540554558437 0 0.54463904215088732 0.83867056331134215 1 0 0 forward_v I I I I #
loop $-1 $-1 $411 $103 #
coedge $-1 $261 $261 $262 $412 reversed $161 $-1 #
coedge $-1 $262 $262 $261 $412 forward $163 $-1 #
coedge $-1 $263 $263 $164 $264 forward $258 $-1 #
edge $-1 $413 -6.9640653815017792e-016 $413 6.2831853071795996 $263 $414 forward 7 unknown #
face $-1 $415 $416 $54 $-1 $417 forward single #
loop $-1 $-1 $418 $165 #
plane-surface $-1 50.329667505727002 50.101579737681313 157.88519358912583 -1 0 0 0 0.54463904215088732 0.83867056331134215 forward_v I I I I #
coedge $-1 $419 $420 $421 $422 reversed $166 $-1 #
coedge $-1 $270 $168 $423 $424 reversed $107 $-1 #
coedge $-1 $168 $269 $419 $425 reversed $107 $-1 #
coedge $-1 $421 $426 $168 $272 forward $416 $-1 #
edge $-1 $427 -9.0685913853727307 $428 -3.3187689311255433 $271 $429 forward 7 unknown #
loop $-1 $-1 $278 $169 #
plane-surface $-1 40.803581062848536 -23.110460138397791 45.148540554558437 0 0.54463904215088732 0.83867056331134215 1 0 0 forward_v I I I I #
loop $-1 $-1 $430 $109 #
coedge $-1 $276 $276 $277 $431 reversed $170 $-1 #
coedge $-1 $277 $277 $276 $431 forward $172 $-1 #
coedge $-1 $278 $278 $173 $279 forward $273 $-1 #
edge $-1 $432 -6.9640653815017792e-016 $432 6.2831853071795996 $278 $433 forward 7 unknown #
face $-1 $434 $435 $42 $-1 $436 reversed single #
loop $-1 $-1 $437 $174 #
plane-surface $-1 -67.211523789178131 0 0 1 0 0 0 0 -1 forward_v I I I I #
coedge $-1 $438 $291 $439 $440 forward $175 $-1 #
coedge $-1 $441 $177 $438 $442 forward $113 $-1 #
coedge $-1 $177 $441 $443 $444 forward $113 $-1 #
coedge $-1 $294 $293 $177 $287 reversed $295 $-1 #
edge $-1 $445 -34.119381254213387 $446 34.119381254213387 $286 $447 forward 7 unknown #
coedge $-1 $179 $178 $448 $449 forward $71 $-1 #
coedge $-1 $450 $451 $178 $290 reversed $435 $-1 #
edge $-1 $297 -67.211523789178131 $452 67.211523789178131 $289 $453 forward 7 unknown #
coedge $-1 $283 $454 $179 $292 reversed $175 $-1 #
edge $-1 $455 -67.211523789178131 $296 67.211523789178131 $291 $456 forward 7 unknown #
coedge $-1 $286 $180 $454 $457 forward $295 $-1 #
coedge $-1 $180 $286 $450 $458 reversed $295 $-1 #
loop $-1 $-1 $293 $434 #
vertex $-1 $181 $459 #
vertex $-1 $181 $460 #
straight-curve $-1 67.211523789178131 0 11.71702473528738 0 1 0 I I #
face $-1 $461 $462 $43 $-1 $463 forward single #
loop $-1 $-1 $464 $182 #
plane-surface $-1 0 0 -11.71702473528738 0 0 1 1 0 0 forward_v I I I I #
coedge $-1 $465 $466 $307 $467 forward $183 $-1 #
coedge $-1 $468 $185 $464 $469 reversed $117 $-1 #
coedge $-1 $185 $468 $470 $471 reversed $117 $-1 #
coedge $-1 $466 $465 $185 $306 reversed $183 $-1 #
edge $-1 $472 -11.71702473528738 $473 11.71702473528738 $305 $474 forward 7 unknown #
coedge $-1 $187 $186 $302 $467 reversed $74 $-1 #
coedge $-1 $475 $476 $186 $309 forward $300 $-1 #
edge $-1 $477 24.745415874163974 $315 36.559210568064096 $308 $478 forward 7 unknown #
coedge $-1 $479 $480 $187 $311 forward $462 $-1 #
edge $-1 $316 -36.559210568064096 $481 -24.745415874163974 $310 $482 forward 7 unknown #
coedge $-1 $483 $188 $480 $484 reversed $314 $-1 #
coedge $-1 $188 $483 $475 $485 reversed $314 $-1 #
loop $-1 $-1 $483 $461 #
vertex $-1 $485 $486 #
vertex $-1 $189 $487 #
straight-curve $-1 -67.211523789178131 -13.685331783638627 0 0 0 1 I I #
face $-1 $488 $489 $44 $-1 $490 forward single #
loop $-1 $-1 $327 $190 #
plane-surface $-1 0 0 -11.71702473528738 0 0 1 1 0 0 forward_v I I I I #
coedge $-1 $491 $492 $493 $494 reversed $191 $-1 #
coedge $-1 $196 $193 $495 $496 reversed $121 $-1 #
coedge $-1 $193 $196 $497 $498 reversed $121 $-1 #
coedge $-1 $492 $491 $193 $325 reversed $191 $-1 #
edge $-1 $499 -11.71702473528738 $500 11.71702473528738 $324 $501 forward 7 unknown #
coedge $-1 $195 $194 $502 $503 reversed $77 $-1 #
coedge $-1 $495 $504 $194 $328 forward $319 $-1 #
edge $-1 $505 -36.559210568064088 $332 -24.745415874163967 $327 $506 forward 7 unknown #
coedge $-1 $507 $497 $195 $330 forward $489 $-1 #
edge $-1 $331 24.745415874163967 $508 36.559210568064088 $329 $509 forward 7 unknown #
vertex $-1 $330 $510 #
vertex $-1 $328 $511 #
straight-curve $-1 55.397729095277995 -13.685331783638627 0 0 0 -1 I I #
face $-1 $-1 $512 $45 $-1 $513 reversed single #
loop $-1 $-1 $204 $198 #
plane-surface $-1 0 0 11.71702473528738 0 0 1 1 0 0 forward_v I I I I #
coedge $-1 $514 $515 $516 $517 reversed $199 $-1 #
coedge $-1 $518 $201 $203 $344 forward $125 $-1 #
coedge $-1 $201 $518 $514 $519 forward $125 $-1 #
coedge $-1 $516 $204 $201 $341 forward $335 $-1 #
edge $-1 $347 -9.0863855658356378 $520 7.7089304648754613 $340 $521 forward 7 unknown #
coedge $-1 $522 $523 $202 $343 forward $512 $-1 #
edge $-1 $524 -50.802606627209421 $346 -46.230897830673939 $342 $525 forward 7 unknown #
edge $-1 $347 -7.7778554672790534 $524 -8.8807605448725156e-015 $203 $526 forward 7 unknown #
coedge $-1 $204 $516 $522 $527 forward $335 $-1 #
vertex $-1 $205 $528 #
vertex $-1 $205 $529 #
straight-curve $-1 9.7751131163157261 -56.565633599203778 11.717024735287382 0 1 0 I I #
coedge $-1 $349 $349 $-1 $530 reversed $208 $-1 #
edge $-1 $531 0 $531 6.2831853071796004 $209 $532 forward 7 unknown #
vertex $-1 $212 $533 #
ellipse-curve $-1 -2.2215411913350636 -30.973172649020363 9.4311703370196369 0 -0.5877852598018023 0.80901698891910034 1.5 0 0 1 I I #
coedge $-1 $353 $353 $-1 $534 reversed $215 $-1 #
edge $-1 $535 0 $535 6.2831853071796004 $216 $536 forward 7 unknown #
vertex $-1 $219 $537 #
ellipse-curve $-1 4.9764513932554024 -30.973172649020363 9.4311703370196369 0 -0.5877852598018023 0.80901698891910034 1.5 0 0 1 I I #
face $-1 $-1 $369 $48 $-1 $538 forward single #
loop $-1 $-1 $539 $220 #
plane-surface $-1 0 34.119381254213387 0 0 -1 0 0 0 -1 forward_v I I I I #
coedge $-1 $540 $541 $542 $543 reversed $221 $-1 #
coedge $-1 $544 $223 $225 $367 forward $139 $-1 #
coedge $-1 $223 $544 $540 $545 forward $139 $-1 #
coedge $-1 $542 $226 $223 $364 forward $369 $-1 #
edge $-1 $371 -29.927876974302723 $546 -10.875704088545792 $363 $547 forward 7 unknown #
coedge $-1 $548 $549 $224 $366 forward $358 $-1 #
edge $-1 $550 -70.95955049015592 $370 -67.225572059275535 $365 $551 forward 7 unknown #
edge $-1 $371 61.382885235776314 $550 68.238762508426774 $225 $552 forward 7 unknown #
coedge $-1 $226 $542 $548 $553 forward $369 $-1 #
loop $-1 $-1 $542 $357 #
vertex $-1 $366 $554 #
vertex $-1 $227 $555 #
straight-curve $-1 -50.329667505726981 25.050789868840656 11.717024735287382 0 -1 0 I I #
coedge $-1 $373 $373 $-1 $556 reversed $230 $-1 #
edge $-1 $557 0 $557 6.2831853071796004 $231 $558 forward 7 unknown #
vertex $-1 $234 $559 #
ellipse-curve $-1 -40.803581062848515 31.244470027089793 9.8500355198471876 0 0.54463904215088732 0.83867056331134215 1.5 0 0 1 I I #
face $-1 $-1 $560 $50 $-1 $561 reversed single #
loop $-1 $-1 $241 $235 #
plane-surface $-1 0 0 11.71702473528738 0 0 1 1 0 0 forward_v I I I I #
coedge $-1 $562 $563 $564 $565 reversed $236 $-1 #
coedge $-1 $566 $238 $240 $387 forward $148 $-1 #
coedge $-1 $238 $566 $562 $567 forward $148 $-1 #
coedge $-1 $564 $241 $238 $384 forward $378 $-1 #
edge $-1 $390 -16.326683286686549 $568 2.725489599070384 $383 $569 forward 7 unknown #
coedge $-1 $570 $571 $239 $386 forward $560 $-1 #
edge $-1 $572 -70.95955049015592 $389 -67.225572059275535 $385 $573 forward 7 unknown #
edge $-1 $390 61.382885235776314 $572 68.238762508426774 $240 $574 forward 7 unknown #
coedge $-1 $241 $564 $570 $575 forward $378 $-1 #
vertex $-1 $386 $576 #
vertex $-1 $242 $577 #
straight-curve $-1 -23.127280130494633 25.050789868840656 11.717024735287382 0 -1 0 I I #
coedge $-1 $392 $392 $-1 $578 reversed $245 $-1 #
edge $-1 $579 0 $579 6.2831853071796004 $246 $580 forward 7 unknown #
vertex $-1 $249 $581 #
ellipse-curve $-1 -13.601193687616167 31.244470027089793 9.8500355198471876 0 0.54463904215088732 0.83867056331134215 1.5 0 0 1 I I #
face $-1 $-1 $582 $52 $-1 $583 reversed single #
loop $-1 $-1 $256 $250 #
plane-surface $-1 0 0 11.71702473528738 0 0 1 1 0 0 forward_v I I I I #
coedge $-1 $584 $585 $586 $587 reversed $251 $-1 #
coedge $-1 $588 $253 $255 $406 forward $157 $-1 #
coedge $-1 $253 $588 $584 $589 forward $157 $-1 #
coedge $-1 $586 $256 $253 $403 forward $397 $-1 #
edge $-1 $409 -2.7254895990703734 $590 16.32668328668656 $402 $591 forward 7 unknown #
coedge $-1 $592 $593 $254 $405 forward $582 $-1 #
edge $-1 $594 -70.95955049015592 $408 -67.225572059275535 $404 $595 forward 7 unknown #
edge $-1 $409 61.382885235776314 $594 68.238762508426774 $255 $596 forward 7 unknown #
coedge $-1 $256 $586 $592 $597 forward $397 $-1 #
vertex $-1 $257 $598 #
vertex $-1 $257 $599 #
straight-curve $-1 4.0751072447377208 25.050789868840656 11.717024735287382 0 -1 0 I I #
coedge $-1 $411 $411 $-1 $600 reversed $260 $-1 #
edge $-1 $601 0 $601 6.2831853071796004 $261 $602 forward 7 unknown #
vertex $-1 $264 $603 #
ellipse-curve $-1 13.601193687616188 31.244470027089793 9.8500355198471876 0 0.54463904215088732 0.83867056331134215 1.5 0 0 1 I I #
face $-1 $-1 $604 $54 $-1 $605 reversed single #
loop $-1 $-1 $271 $265 #
plane-surface $-1 0 0 11.71702473528738 0 0 1 1 0 0 forward_v I I I I #
coedge $-1 $606 $607 $608 $609 reversed $266 $-1 #
coedge $-1 $610 $268 $270 $425 forward $166 $-1 #
coedge $-1 $268 $610 $606 $611 forward $166 $-1 #
coedge $-1 $608 $271 $268 $422 forward $416 $-1 #
edge $-1 $428 10.875704088545803 $612 29.927876974302734 $421 $613 forward 7 unknown #
coedge $-1 $614 $615 $269 $424 forward $604 $-1 #
edge $-1 $616 -70.95955049015592 $427 -67.225572059275535 $423 $617 forward 7 unknown #
edge $-1 $428 61.382885235776314 $616 68.238762508426774 $270 $618 forward 7 unknown #
coedge $-1 $271 $608 $614 $619 forward $416 $-1 #
vertex $-1 $272 $620 #
vertex $-1 $272 $621 #
straight-curve $-1 31.277494619970071 25.050789868840656 11.717024735287382 0 -1 0 I I #
coedge $-1 $430 $430 $-1 $622 reversed $275 $-1 #
edge $-1 $623 0 $623 6.2831853071796004 $276 $624 forward 7 unknown #
vertex $-1 $279 $625 #
ellipse-curve $-1 40.803581062848536 31.244470027089793 9.8500355198471876 0 0.54463904215088732 0.83867056331134215 1.5 0 0 1 I I #
face $-1 $-1 $295 $42 $-1 $626 reversed single #
loop $-1 $-1 $450 $280 #
plane-surface $-1 0 34.119381254213387 0 0 -1 0 0 0 -1 forward_v I I I I #
coedge $-1 $627 $448 $451 $628 forward $281 $-1 #
coedge $-1 $454 $283 $284 $442 reversed $175 $-1 #
coedge $-1 $448 $627 $283 $440 reversed $281 $-1 #
edge $-1 $455 -11.71702473528738 $629 11.71702473528738 $439 $630 forward 7 unknown #
coedge $-1 $285 $284 $627 $631 forward $113 $-1 #
edge $-1 $446 -67.211523789178131 $629 67.211523789178131 $438 $632 forward 7 unknown #
coedge $-1 $451 $450 $285 $444 reversed $435 $-1 #
edge $-1 $633 -67.211523789178131 $445 67.211523789178131 $443 $634 forward 7 unknown #
vertex $-1 $287 $635 #
vertex $-1 $457 $636 #
straight-curve $-1 67.211523789178131 0 -11.71702473528738 0 -1 0 I I #
coedge $-1 $437 $439 $288 $449 reversed $281 $-1 #
edge $-1 $452 -34.119381254213387 $455 34.119381254213387 $448 $637 forward 7 unknown #
coedge $-1 $443 $289 $294 $458 forward $435 $-1 #
coedge $-1 $289 $443 $437 $628 reversed $435 $-1 #
vertex $-1 $290 $638 #
straight-curve $-1 0 34.119381254213387 11.71702473528738 -1 0 0 I I #
coedge $-1 $291 $438 $293 $457 reversed $175 $-1 #
vertex $-1 $449 $639 #
straight-curve $-1 0 -34.119381254213387 11.71702473528738 1 0 0 I I #
edge $-1 $296 -11.71702473528738 $446 11.71702473528738 $293 $640 forward 7 unknown #
edge $-1 $297 -11.71702473528738 $445 11.71702473528738 $294 $641 forward 7 unknown #
point $-1 67.211523789178131 -34.119381254213387 11.71702473528738 #
point $-1 67.211523789178131 34.119381254213387 11.71702473528738 #
face $-1 $-1 $314 $43 $-1 $642 reversed single #
loop $-1 $-1 $470 $299 #
plane-surface $-1 0 0 11.71702473528738 0 0 1 1 0 0 forward_v I I I I #
coedge $-1 $476 $475 $303 $469 forward $300 $-1 #
coedge $-1 $305 $302 $476 $643 reversed $183 $-1 #
coedge $-1 $302 $305 $479 $644 reversed $183 $-1 #
edge $-1 $481 -11.71702473528738 $477 11.71702473528738 $302 $645 forward 7 unknown #
coedge $-1 $304 $303 $483 $646 reversed $117 $-1 #
edge $-1 $647 -36.559210568064096 $473 -24.745415874163974 $464 $648 forward 7 unknown #
coedge $-1 $480 $479 $304 $471 forward $462 $-1 #
edge $-1 $472 24.745415874163974 $649 36.559210568064096 $470 $650 forward 7 unknown #
vertex $-1 $471 $651 #
vertex $-1 $469 $652 #
straight-curve $-1 -55.397729095278009 -10.685331783638627 0 0 0 -1 I I #
coedge $-1 $464 $308 $313 $485 forward $300 $-1 #
coedge $-1 $308 $464 $465 $643 forward $300 $-1 #
vertex $-1 $309 $653 #
straight-curve $-1 -30.652313221114035 -13.685331783638627 -11.71702473528738 -1 0 0 I I #
coedge $-1 $470 $310 $466 $644 forward $462 $-1 #
coedge $-1 $310 $470 $312 $484 forward $462 $-1 #
vertex $-1 $311 $654 #
straight-curve $-1 -30.652313221114035 -13.685331783638627 11.71702473528738 1 0 0 I I #
coedge $-1 $313 $312 $468 $646 forward $314 $-1 #
edge $-1 $649 10.685331783638627 $316 13.685331783638627 $312 $655 forward 7 unknown #
edge $-1 $315 -13.685331783638627 $647 -10.685331783638627 $313 $656 forward 7 unknown #
point $-1 -67.211523789178131 -13.685331783638627 -11.71702473528738 #
point $-1 -67.211523789178131 -13.685331783638627 11.71702473528738 #
face $-1 $-1 $657 $44 $-1 $658 reversed single #
loop $-1 $-1 $329 $318 #
plane-surface $-1 0 0 11.71702473528738 0 0 1 1 0 0 forward_v I I I I #
coedge $-1 $324 $321 $659 $660 reversed $191 $-1 #
coedge $-1 $321 $324 $661 $662 reversed $191 $-1 #
coedge $-1 $663 $664 $321 $494 forward $657 $-1 #
edge $-1 $665 -11.71702473528738 $666 11.71702473528738 $493 $667 forward 7 unknown #
coedge $-1 $659 $327 $322 $496 forward $319 $-1 #
edge $-1 $332 -7.5926658918193137 $500 -4.5926658918193137 $495 $668 forward 7 unknown #
coedge $-1 $329 $661 $323 $498 forward $489 $-1 #
edge $-1 $499 4.5926658918193137 $331 7.5926658918193137 $497 $669 forward 7 unknown #
vertex $-1 $498 $670 #
vertex $-1 $496 $671 #
straight-curve $-1 55.397729095277995 -10.685331783638627 0 0 0 -1 I I #
coedge $-1 $664 $663 $326 $503 forward $657 $-1 #
edge $-1 $508 -11.71702473528738 $505 11.71702473528738 $502 $672 forward 7 unknown #
coedge $-1 $327 $659 $664 $673 forward $319 $-1 #
vertex $-1 $503 $674 #
straight-curve $-1 30.652313221114028 -13.685331783638627 -11.71702473528738 -1 0 0 I I #
coedge $-1 $661 $329 $663 $675 forward $489 $-1 #
vertex $-1 $675 $676 #
straight-curve $-1 30.652313221114028 -13.685331783638627 11.71702473528738 1 0 0 I I #
point $-1 55.397729095277995 -13.685331783638627 11.71702473528738 #
point $-1 55.397729095277995 -13.685331783638627 -11.71702473528738 #
loop $-1 $-1 $342 $334 #
plane-surface $-1 0 -34.119381254213387 0 0 1 0 0 0 1 forward_v I I I I #
coedge $-1 $515 $337 $339 $519 reversed $199 $-1 #
coedge $-1 $337 $514 $677 $678 reversed $199 $-1 #
coedge $-1 $345 $340 $337 $517 forward $335 $-1 #
edge $-1 $520 -28.738669555376447 $679 -22.446252344990391 $516 $680 forward 7 unknown #
coedge $-1 $339 $338 $523 $681 reversed $125 $-1 #
edge $-1 $682 8.8807605448725156e-015 $520 7.7778554672790534 $514 $683 forward 7 unknown #
vertex $-1 $341 $684 #
straight-curve $-1 0.68872755048008827 -27.826964043827331 11.717024735287378 -1 0 0 I I #
coedge $-1 $677 $342 $345 $527 reversed $512 $-1 #
coedge $-1 $342 $677 $518 $681 forward $512 $-1 #
vertex $-1 $343 $685 #
straight-curve $-1 9.7751131163157261 -34.119381254213387 57.947922565961321 0 0 1 I I #
straight-curve $-1 9.7751131163157261 -34.119381254213394 7.1453159387518923 0 -0.80901698891910034 -0.5877852598018023 I I #
edge $-1 $679 -7.020202914395373 $346 9.7751131163157261 $522 $686 forward 7 unknown #
point $-1 9.7751131163157261 -34.119381254213387 11.71702473528738 #
point $-1 9.7751131163157261 -27.826964043827331 11.71702473528738 #
edge $-1 $687 1 $687 0 $349 $-1 forward 7 unknown #
vertex $-1 $350 $688 #
ellipse-curve $-1 -2.2215411913350636 -28.355557717349527 5.828332540637863 0 -0.5877852598018023 0.80901698891910034 1.5 0 0 1 I I #
point $-1 -0.72154119133506356 -30.973172649020366 9.431170337019644 #
edge $-1 $689 1 $689 0 $353 $-1 forward 7 unknown #
vertex $-1 $354 $690 #
ellipse-curve $-1 4.9764513932554024 -28.355557717349527 5.828332540637863 0 -0.5877852598018023 0.80901698891910034 1.5 0 0 1 I I #
point $-1 6.4764513932554024 -30.973172649020366 9.431170337019644 #
plane-surface $-1 0 0 11.71702473528738 0 0 1 1 0 0 forward_v I I I I #
coedge $-1 $549 $548 $541 $691 forward $358 $-1 #
coedge $-1 $541 $360 $362 $545 reversed $221 $-1 #
coedge $-1 $360 $540 $539 $691 reversed $221 $-1 #
coedge $-1 $368 $363 $360 $543 forward $369 $-1 #
edge $-1 $546 3.3187689311255433 $692 9.0685913853727307 $542 $693 forward 7 unknown #
coedge $-1 $362 $361 $549 $694 reversed $139 $-1 #
edge $-1 $695 -68.238762508426774 $546 -61.382885235776314 $540 $696 forward 7 unknown #
vertex $-1 $364 $697 #
straight-curve $-1 -20.401790531424258 28.369558799966196 11.717024735287382 1 0 0 I I #
coedge $-1 $539 $365 $368 $553 reversed $358 $-1 #
coedge $-1 $365 $539 $544 $694 forward $358 $-1 #
vertex $-1 $366 $698 #
straight-curve $-1 -50.329667505726981 34.119381254213387 78.942596794562917 0 0 1 I I #
straight-curve $-1 -50.329667505726981 -23.110460138397791 45.148540554558437 0 0.83867056331134215 -0.54463904215088732 I I #
edge $-1 $692 31.277494619970049 $370 50.329667505726981 $548 $699 forward 7 unknown #
point $-1 -50.329667505726981 34.119381254213387 11.71702473528738 #
point $-1 -50.329667505726981 28.3695587999662 11.717024735287382 #
edge $-1 $700 1 $700 0 $373 $-1 forward 7 unknown #
vertex $-1 $374 $701 #
ellipse-curve $-1 -40.803581062848515 29.969753377348507 7.887144048683254 0 0.54463904215088732 0.83867056331134215 1.5 0 0 1 I I #
point $-1 -39.303581062848515 31.24447002708979 9.8500355198471841 #
loop $-1 $-1 $385 $377 #
plane-surface $-1 0 34.119381254213387 0 0 -1 0 0 0 -1 forward_v I I I I #
coedge $-1 $563 $380 $382 $567 reversed $236 $-1 #
coedge $-1 $380 $562 $702 $703 reversed $236 $-1 #
coedge $-1 $388 $383 $380 $565 forward $378 $-1 #
edge $-1 $568 3.3187689311255433 $704 9.0685913853727307 $564 $705 forward 7 unknown #
coedge $-1 $382 $381 $571 $706 reversed $148 $-1 #
edge $-1 $707 -68.238762508426774 $568 -61.382885235776314 $562 $708 forward 7 unknown #
vertex $-1 $384 $709 #
straight-curve $-1 -6.8005968438080835 28.369558799966196 11.717024735287382 1 0 0 I I #
coedge $-1 $702 $385 $388 $575 reversed $560 $-1 #
coedge $-1 $385 $702 $566 $706 forward $560 $-1 #
vertex $-1 $386 $710 #
straight-curve $-1 -23.127280130494633 34.119381254213387 78.942596794562917 0 0 1 I I #
straight-curve $-1 -23.127280130494633 -23.110460138397791 45.148540554558437 0 0.83867056331134215 -0.54463904215088732 I I #
edge $-1 $704 4.0751072447376995 $389 23.127280130494633 $570 $711 forward 7 unknown #
point $-1 -23.127280130494633 34.119381254213387 11.71702473528738 #
point $-1 -23.127280130494633 28.3695587999662 11.717024735287382 #
edge $-1 $712 1 $712 0 $392 $-1 forward 7 unknown #
vertex $-1 $393 $713 #
ellipse-curve $-1 -13.601193687616167 29.969753377348507 7.887144048683254 0 0.54463904215088732 0.83867056331134215 1.5 0 0 1 I I #
point $-1 -12.101193687616167 31.24447002708979 9.8500355198471841 #
loop $-1 $-1 $404 $396 #
plane-surface $-1 0 34.119381254213387 0 0 -1 0 0 0 -1 forward_v I I I I #
coedge $-1 $585 $399 $401 $589 reversed $251 $-1 #
coedge $-1 $399 $584 $714 $715 reversed $251 $-1 #
coedge $-1 $407 $402 $399 $587 forward $397 $-1 #
edge $-1 $590 3.3187689311255433 $716 9.0685913853727307 $586 $717 forward 7 unknown #
coedge $-1 $401 $400 $593 $718 reversed $157 $-1 #
edge $-1 $719 -68.238762508426774 $590 -61.382885235776314 $584 $720 forward 7 unknown #
vertex $-1 $403 $721 #
straight-curve $-1 6.8005968438080941 28.369558799966196 11.717024735287382 1 0 0 I I #
coedge $-1 $714 $404 $407 $597 reversed $582 $-1 #
coedge $-1 $404 $714 $588 $718 forward $582 $-1 #
vertex $-1 $405 $722 #
straight-curve $-1 4.0751072447377208 34.119381254213387 78.942596794562917 0 0 1 I I #
straight-curve $-1 4.0751072447377208 -23.110460138397791 45.148540554558437 0 0.83867056331134215 -0.54463904215088732 I I #
edge $-1 $716 -23.127280130494654 $408 -4.0751072447377208 $592 $723 forward 7 unknown #
point $-1 4.0751072447377208 34.119381254213387 11.71702473528738 #
point $-1 4.0751072447377208 28.3695587999662 11.717024735287382 #
edge $-1 $724 1 $724 0 $411 $-1 forward 7 unknown #
vertex $-1 $412 $725 #
ellipse-curve $-1 13.601193687616188 29.969753377348507 7.887144048683254 0 0.54463904215088732 0.83867056331134215 1.5 0 0 1 I I #
point $-1 15.101193687616188 31.24447002708979 9.8500355198471841 #
loop $-1 $-1 $423 $415 #
plane-surface $-1 0 34.119381254213387 0 0 -1 0 0 0 -1 forward_v I I I I #
coedge $-1 $607 $418 $420 $611 reversed $266 $-1 #
coedge $-1 $418 $606 $726 $727 reversed $266 $-1 #
coedge $-1 $426 $421 $418 $609 forward $416 $-1 #
edge $-1 $612 3.3187689311255433 $728 9.0685913853727307 $608 $729 forward 7 unknown #
coedge $-1 $420 $419 $615 $730 reversed $166 $-1 #
edge $-1 $731 -68.238762508426774 $612 -61.382885235776314 $606 $732 forward 7 unknown #
vertex $-1 $422 $733 #
straight-curve $-1 20.401790531424268 28.369558799966196 11.717024735287382 1 0 0 I I #
coedge $-1 $726 $423 $426 $619 reversed $604 $-1 #
coedge $-1 $423 $726 $610 $730 forward $604 $-1 #
vertex $-1 $424 $734 #
straight-curve $-1 31.277494619970071 34.119381254213387 78.942596794562917 0 0 1 I I #
straight-curve $-1 31.277494619970071 -23.110460138397791 45.148540554558437 0 0.83867056331134215 -0.54463904215088732 I I #
edge $-1 $728 -50.329667505727002 $427 -31.277494619970071 $614 $735 forward 7 unknown #
point $-1 31.277494619970071 34.119381254213387 11.71702473528738 #
point $-1 31.277494619970071 28.3695587999662 11.717024735287382 #
edge $-1 $736 1 $736 0 $430 $-1 forward 7 unknown #
vertex $-1 $431 $737 #
ellipse-curve $-1 40.803581062848536 29.969753377348507 7.887144048683254 0 0.54463904215088732 0.83867056331134215 1.5 0 0 1 I I #
point $-1 42.303581062848536 31.24447002708979 9.8500355198471841 #
plane-surface $-1 67.211523789178131 0 0 -1 0 0 0 0 1 forward_v I I I I #
coedge $-1 $439 $437 $441 $631 reversed $281 $-1 #
edge $-1 $452 -11.71702473528738 $633 11.71702473528738 $451 $738 forward 7 unknown #
vertex $-1 $631 $739 #
straight-curve $-1 -67.211523789178131 -34.119381254213387 0 0 0 -1 I I #
edge $-1 $629 -34.119381254213387 $633 34.119381254213387 $627 $740 forward 7 unknown #
straight-curve $-1 0 -34.119381254213387 -11.71702473528738 -1 0 0 I I #
vertex $-1 $444 $741 #
straight-curve $-1 0 34.119381254213387 -11.71702473528738 1 0 0 I I #
point $-1 67.211523789178131 34.119381254213387 -11.71702473528738 #
point $-1 67.211523789178131 -34.119381254213387 -11.71702473528738 #
straight-curve $-1 -67.211523789178131 0 11.71702473528738 0 -1 0 I I #
point $-1 -67.211523789178131 34.119381254213387 11.71702473528738 #
point $-1 -67.211523789178131 -34.119381254213387 11.71702473528738 #
straight-curve $-1 67.211523789178131 -34.119381254213387 0 0 0 -1 I I #
straight-curve $-1 67.211523789178131 34.119381254213387 0 0 0 -1 I I #
plane-surface $-1 -67.211523789178131 0 0 1 0 0 0 0 -1 forward_v I I I I #
edge $-1 $473 4.5926658918193137 $477 7.5926658918193137 $476 $742 forward 7 unknown #
edge $-1 $481 -7.5926658918193137 $472 -4.5926658918193137 $479 $743 forward 7 unknown #
straight-curve $-1 -55.397729095278009 -13.685331783638627 0 0 0 -1 I I #
edge $-1 $649 -11.71702473528738 $647 11.71702473528738 $483 $744 forward 7 unknown #
vertex $-1 $646 $745 #
straight-curve $-1 -30.652313221114035 -10.685331783638627 -11.71702473528738 1 0 0 I I #
vertex $-1 $484 $746 #
straight-curve $-1 -30.652313221114035 -10.685331783638627 11.71702473528738 -1 0 0 I I #
point $-1 -55.397729095278009 -10.685331783638627 11.71702473528738 #
point $-1 -55.397729095278009 -10.685331783638627 -11.71702473528738 #
point $-1 -55.397729095278009 -13.685331783638627 -11.71702473528738 #
point $-1 -55.397729095278009 -13.685331783638627 11.71702473528738 #
straight-curve $-1 -67.211523789178131 0 11.71702473528738 0 -1 0 I I #
straight-curve $-1 -67.211523789178131 0 -11.71702473528738 0 1 0 I I #
loop $-1 $-1 $502 $488 #
plane-surface $-1 67.211523789178131 0 0 -1 0 0 0 0 1 forward_v I I I I #
coedge $-1 $504 $495 $491 $660 forward $319 $-1 #
edge $-1 $500 24.745415874163967 $665 36.559210568064088 $659 $747 forward 7 unknown #
coedge $-1 $497 $507 $492 $662 forward $489 $-1 #
edge $-1 $666 -36.559210568064088 $499 -24.745415874163967 $661 $748 forward 7 unknown #
coedge $-1 $502 $493 $507 $675 reversed $657 $-1 #
coedge $-1 $493 $502 $504 $673 reversed $657 $-1 #
vertex $-1 $673 $749 #
vertex $-1 $494 $750 #
straight-curve $-1 67.211523789178131 -10.685331783638627 0 0 0 1 I I #
straight-curve $-1 55.397729095277995 -6.0926658918193137 -11.71702473528738 0 1 0 I I #
straight-curve $-1 55.397729095277995 -6.0926658918193137 11.71702473528738 0 -1 0 I I #
point $-1 55.397729095277995 -10.685331783638627 11.71702473528738 #
point $-1 55.397729095277995 -10.685331783638627 -11.71702473528738 #
straight-curve $-1 67.211523789178131 -13.685331783638627 0 0 0 -1 I I #
edge $-1 $665 10.685331783638627 $505 13.685331783638627 $664 $751 forward 7 unknown #
point $-1 67.211523789178116 -13.685331783638627 -11.71702473528738 #
edge $-1 $508 -13.685331783638627 $666 -10.685331783638627 $663 $752 forward 7 unknown #
point $-1 67.211523789178116 -13.685331783638627 11.71702473528738 #
coedge $-1 $523 $522 $515 $678 forward $512 $-1 #
edge $-1 $679 46.230897830673939 $682 50.802606627209421 $677 $753 forward 7 unknown #
vertex $-1 $527 $754 #
straight-curve $-1 -7.020202914395373 -56.565633599203778 11.717024735287382 0 -1 0 I I #
edge $-1 $682 -7.7089304648754613 $524 9.0863855658356378 $523 $755 forward 7 unknown #
vertex $-1 $681 $756 #
straight-curve $-1 -7.020202914395373 -34.119381254213394 7.1453159387518923 0 0.80901698891910034 0.5877852598018023 I I #
point $-1 -7.020202914395373 -27.826964043827331 11.71702473528738 #
point $-1 9.7751131163157261 -34.119381254213387 7.1453159387518976 #
straight-curve $-1 0 -34.119381254213387 11.71702473528738 1 0 0 I I #
vertex $-1 $530 $757 #
point $-1 -0.72154119133506356 -28.355557717349527 5.828332540637863 #
vertex $-1 $534 $758 #
point $-1 6.4764513932554024 -28.355557717349527 5.828332540637863 #
edge $-1 $692 67.225572059275535 $695 70.95955049015592 $539 $759 forward 7 unknown #
vertex $-1 $553 $760 #
straight-curve $-1 -31.277494619970049 25.050789868840656 11.717024735287382 0 1 0 I I #
edge $-1 $695 10.875704088545792 $550 29.927876974302723 $549 $761 forward 7 unknown #
vertex $-1 $694 $762 #
straight-curve $-1 -31.277494619970049 -23.110460138397791 45.148540554558437 0 -0.83867056331134215 0.54463904215088732 I I #
point $-1 -31.277494619970049 28.3695587999662 11.717024735287382 #
point $-1 -50.329667505726981 34.119381254213387 7.9830463044069973 #
straight-curve $-1 0 34.119381254213387 11.71702473528738 -1 0 0 I I #
vertex $-1 $556 $763 #
point $-1 -39.303581062848515 29.969753377348507 7.887144048683254 #
coedge $-1 $571 $570 $563 $703 forward $560 $-1 #
edge $-1 $704 67.225572059275535 $707 70.95955049015592 $702 $764 forward 7 unknown #
vertex $-1 $575 $765 #
straight-curve $-1 -4.0751072447376995 25.050789868840656 11.717024735287382 0 1 0 I I #
edge $-1 $707 -2.725489599070384 $572 16.326683286686549 $571 $766 forward 7 unknown #
vertex $-1 $706 $767 #
straight-curve $-1 -4.0751072447376995 -23.110460138397791 45.148540554558437 0 -0.83867056331134215 0.54463904215088732 I I #
point $-1 -4.0751072447376995 28.3695587999662 11.717024735287382 #
point $-1 -23.127280130494633 34.119381254213387 7.9830463044069973 #
straight-curve $-1 0 34.119381254213387 11.71702473528738 -1 0 0 I I #
vertex $-1 $578 $768 #
point $-1 -12.101193687616167 29.969753377348507 7.887144048683254 #
coedge $-1 $593 $592 $585 $715 forward $582 $-1 #
edge $-1 $716 67.225572059275535 $719 70.95955049015592 $714 $769 forward 7 unknown #
vertex $-1 $597 $770 #
straight-curve $-1 23.127280130494654 25.050789868840656 11.717024735287382 0 1 0 I I #
edge $-1 $719 -16.32668328668656 $594 2.7254895990703734 $593 $771 forward 7 unknown #
vertex $-1 $718 $772 #
straight-curve $-1 23.127280130494654 -23.110460138397791 45.148540554558437 0 -0.83867056331134215 0.54463904215088732 I I #
point $-1 23.127280130494654 28.3695587999662 11.717024735287382 #
point $-1 4.0751072447377208 34.119381254213387 7.9830463044069973 #
straight-curve $-1 0 34.119381254213387 11.71702473528738 -1 0 0 I I #
vertex $-1 $600 $773 #
point $-1 15.101193687616188 29.969753377348507 7.887144048683254 #
coedge $-1 $615 $614 $607 $727 forward $604 $-1 #
edge $-1 $728 67.225572059275535 $731 70.95955049015592 $726 $774 forward 7 unknown #
vertex $-1 $619 $775 #
straight-curve $-1 50.329667505727002 25.050789868840656 11.717024735287382 0 1 0 I I #
edge $-1 $731 -29.927876974302734 $616 -10.875704088545803 $615 $776 forward 7 unknown #
vertex $-1 $730 $777 #
straight-curve $-1 50.329667505727002 -23.110460138397791 45.148540554558437 0 -0.83867056331134215 0.54463904215088732 I I #
point $-1 50.329667505727002 28.3695587999662 11.717024735287382 #
point $-1 31.277494619970071 34.119381254213387 7.9830463044069973 #
straight-curve $-1 0 34.119381254213387 11.71702473528738 -1 0 0 I I #
vertex $-1 $622 $778 #
point $-1 42.303581062848536 29.969753377348507 7.887144048683254 #
straight-curve $-1 -67.211523789178131 34.119381254213387 0 0 0 -1 I I #
point $-1 -67.211523789178131 -34.119381254213387 -11.71702473528738 #
straight-curve $-1 -67.211523789178131 0 -11.71702473528738 0 1 0 I I #
point $-1 -67.211523789178131 34.119381254213387 -11.71702473528738 #
straight-curve $-1 -55.397729095278009 -6.0926658918193137 -11.71702473528738 0 -1 0 I I #
straight-curve $-1 -55.397729095278009 -6.0926658918193137 11.71702473528738 0 1 0 I I #
straight-curve $-1 -67.211523789178131 -10.685331783638627 0 0 0 -1 I I #
point $-1 -67.211523789178131 -10.685331783638627 -11.71702473528738 #
point $-1 -67.211523789178131 -10.685331783638627 11.71702473528738 #
straight-curve $-1 30.652313221114028 -10.685331783638627 -11.71702473528738 1 0 0 I I #
straight-curve $-1 30.652313221114028 -10.685331783638627 11.71702473528738 -1 0 0 I I #
point $-1 67.211523789178116 -10.685331783638627 -11.71702473528738 #
point $-1 67.211523789178116 -10.685331783638627 11.71702473528738 #
straight-curve $-1 67.211523789178131 0 -11.71702473528738 0 -1 0 I I #
straight-curve $-1 67.211523789178131 0 11.71702473528738 0 1 0 I I #
straight-curve $-1 -7.020202914395373 -34.119381254213387 57.947922565961321 0 0 -1 I I #
point $-1 -7.020202914395373 -34.119381254213387 11.71702473528738 #
straight-curve $-1 0.68872755048008827 -34.119381254213387 7.1453159387518994 1 0 0 I I #
point $-1 -7.020202914395373 -34.119381254213387 7.1453159387518976 #
point $-1 -2.2215411913350636 -27.473879827646826 4.6148070572592133 #
point $-1 4.9764513932554024 -27.473879827646826 4.6148070572592133 #
straight-curve $-1 -31.277494619970049 34.119381254213387 78.942596794562917 0 0 -1 I I #
point $-1 -31.277494619970049 34.119381254213387 11.71702473528738 #
straight-curve $-1 -20.401790531424258 34.119381254213387 7.9830463044070008 -1 0 0 I I #
point $-1 -31.277494619970049 34.119381254213387 7.9830463044069973 #
point $-1 -40.803581062848515 29.152794814122178 6.6291382037162414 #
straight-curve $-1 -4.0751072447376995 34.119381254213387 78.942596794562917 0 0 -1 I I #
point $-1 -4.0751072447376995 34.119381254213387 11.71702473528738 #
straight-curve $-1 -6.8005968438080835 34.119381254213387 7.9830463044070008 -1 0 0 I I #
point $-1 -4.0751072447376995 34.119381254213387 7.9830463044069973 #
point $-1 -13.601193687616167 29.152794814122178 6.6291382037162414 #
straight-curve $-1 23.127280130494654 34.119381254213387 78.942596794562917 0 0 -1 I I #
point $-1 23.127280130494654 34.119381254213387 11.71702473528738 #
straight-curve $-1 6.8005968438080941 34.119381254213387 7.9830463044070008 -1 0 0 I I #
point $-1 23.127280130494654 34.119381254213387 7.9830463044069973 #
point $-1 13.601193687616188 29.152794814122178 6.6291382037162414 #
straight-curve $-1 50.329667505727002 34.119381254213387 78.942596794562917 0 0 -1 I I #
point $-1 50.329667505727002 34.119381254213387 11.71702473528738 #
straight-curve $-1 20.401790531424268 34.119381254213387 7.9830463044070008 -1 0 0 I I #
point $-1 50.329667505727002 34.119381254213387 7.9830463044069973 #
point $-1 40.803581062848536 29.152794814122178 6.6291382037162414 #
End-of-ACIS-data 