500 0 15 0           
7 Unknown 11 ACIS 5.0 NT 24 Thu Mar 25 22:21:23 1999 
-1 9.9999999999999995e-007 1e-010 
body $-1 $15 $-1 $16 #
body $-1 $17 $-1 $18 #
body $-1 $19 $-1 $20 #
body $-1 $21 $-1 $22 #
body $-1 $23 $-1 $24 #
body $-1 $25 $-1 $26 #
body $-1 $27 $-1 $28 #
body $-1 $29 $-1 $30 #
body $-1 $31 $-1 $32 #
body $-1 $33 $-1 $34 #
body $-1 $35 $-1 $36 #
body $-1 $37 $-1 $38 #
body $-1 $39 $-1 $40 #
body $-1 $41 $-1 $42 #
body $-1 $43 $-1 $44 #
lump $-1 $-1 $45 $0 #
transform $-1 1 0 0 0 1 0 0 0 1 52.50038148136845 30.172778525427599 9.364454740812052 1 rotate no_reflect no_shear #
lump $-1 $-1 $46 $1 #
transform $-1 1 0 0 0 1 0 0 0 1 52.50038148136845 30.172778525427599 9.364454740812052 1 rotate no_reflect no_shear #
lump $-1 $-1 $47 $2 #
transform $-1 1 0 0 0 1 0 0 0 1 52.50038148136845 30.172778525427599 9.364454740812052 1 rotate no_reflect no_shear #
lump $-1 $-1 $48 $3 #
transform $-1 1 0 0 0 1 0 0 0 1 52.50038148136845 30.172778525427599 9.364454740812052 1 rotate no_reflect no_shear #
lump $-1 $-1 $49 $4 #
transform $-1 1 0 0 0 1 0 0 0 1 52.50038148136845 30.172778525427599 9.364454740812052 1 rotate no_reflect no_shear #
lump $-1 $-1 $50 $5 #
transform $-1 1 0 0 0 1 0 0 0 1 52.50038148136845 30.172778525427599 9.364454740812052 1 rotate no_reflect no_shear #
lump $-1 $-1 $51 $6 #
transform $-1 1 0 0 0 1 0 0 0 1 52.50038148136845 30.172778525427599 9.364454740812052 1 rotate no_reflect no_shear #
lump $-1 $-1 $52 $7 #
transform $-1 1 0 0 0 1 0 0 0 1 52.50038148136845 30.172778525427599 9.364454740812052 1 rotate no_reflect no_shear #
lump $-1 $-1 $53 $8 #
transform $-1 1 0 0 0 1 0 0 0 1 52.50038148136845 30.172778525427599 9.364454740812052 1 rotate no_reflect no_shear #
lump $-1 $-1 $54 $9 #
transform $-1 1 0 0 0 1 0 0 0 1 52.50038148136845 30.172778525427599 9.364454740812052 1 rotate no_reflect no_shear #
lump $-1 $-1 $55 $10 #
transform $-1 1 0 0 0 1 0 0 0 1 52.50038148136845 30.172778525427599 9.364454740812052 1 rotate no_reflect no_shear #
lump $-1 $-1 $56 $11 #
transform $-1 1 0 0 0 1 0 0 0 1 52.50038148136845 30.172778525427599 9.364454740812052 1 rotate no_reflect no_shear #
lump $-1 $-1 $57 $12 #
transform $-1 1 0 0 0 1 0 0 0 1 52.50038148136845 30.172778525427599 9.364454740812052 1 rotate no_reflect no_shear #
lump $-1 $-1 $58 $13 #
transform $-1 1 0 0 0 1 0 0 0 1 52.50038148136845 30.172778525427599 9.364454740812052 1 rotate no_reflect no_shear #
lump $-1 $-1 $59 $14 #
transform $-1 1 0 0 0 1 0 0 0 1 52.50038148136845 30.172778525427599 9.364454740812052 1 rotate no_reflect no_shear #
shell $-1 $-1 $-1 $60 $-1 $15 #
shell $-1 $-1 $-1 $61 $-1 $17 #
shell $-1 $-1 $-1 $62 $-1 $19 #
shell $-1 $-1 $-1 $63 $-1 $21 #
shell $-1 $-1 $-1 $64 $-1 $23 #
shell $-1 $-1 $-1 $65 $-1 $25 #
shell $-1 $-1 $-1 $66 $-1 $27 #
shell $-1 $-1 $-1 $67 $-1 $29 #
shell $-1 $-1 $-1 $68 $-1 $31 #
shell $-1 $-1 $-1 $69 $-1 $33 #
shell $-1 $-1 $-1 $70 $-1 $35 #
shell $-1 $-1 $-1 $71 $-1 $37 #
shell $-1 $-1 $-1 $72 $-1 $39 #
shell $-1 $-1 $-1 $73 $-1 $41 #
shell $-1 $-1 $-1 $74 $-1 $43 #
face $-1 $75 $76 $45 $-1 $77 forward single #
face $-1 $78 $79 $46 $-1 $80 reversed single #
face $-1 $81 $82 $47 $-1 $83 reversed single #
face $-1 $84 $85 $48 $-1 $86 reversed single #
face $-1 $87 $88 $49 $-1 $89 forward single #
face $-1 $90 $91 $50 $-1 $92 forward single #
face $-1 $93 $94 $51 $-1 $95 reversed single #
face $-1 $96 $97 $52 $-1 $98 forward single #
face $-1 $99 $100 $53 $-1 $101 forward single #
face $-1 $102 $103 $54 $-1 $104 reversed single #
face $-1 $105 $106 $55 $-1 $107 forward single #
face $-1 $108 $109 $56 $-1 $110 forward single #
face $-1 $111 $112 $57 $-1 $113 reversed single #
face $-1 $114 $115 $58 $-1 $116 forward single #
face $-1 $117 $118 $59 $-1 $119 forward single #
face $-1 $120 $121 $45 $-1 $122 reversed single #
loop $-1 $-1 $123 $60 #
plane-surface $-1 0 0 9.364454740812052 0 0 1 1 0 0 forward_v I I I I #
face $-1 $124 $125 $46 $-1 $126 reversed single #
loop $-1 $-1 $127 $61 #
plane-surface $-1 -48.755125437173 -27.10974702968263 0 0 -1 0 0 0 -1 forward_v I I I I #
face $-1 $128 $129 $47 $-1 $130 reversed single #
loop $-1 $-1 $131 $62 #
plane-surface $-1 45.009869392977542 -28.641262777555113 0 1 0 0 0 0 -1 forward_v I I I I #
face $-1 $132 $133 $48 $-1 $134 reversed single #
loop $-1 $-1 $135 $63 #
plane-surface $-1 -45.009869392977549 49.354594982143098 120.53226675431071 1 0 0 0 -0.62932039886446345 -0.77714595512881146 forward_v I I I I #
face $-1 $136 $137 $49 $-1 $138 forward single #
loop $-1 $139 $140 $64 #
cone-surface $-1 -41.084454775643714 23.319070639410445 3.1082797885519509 0 -0.62932039886446345 -0.77714595512881146 1.5 0 0 1 I I 0 1 1.5 forward I I I I #
face $-1 $141 $142 $50 $-1 $143 forward single #
loop $-1 $144 $145 $65 #
cone-surface $-1 -35.196332849642964 23.319070639410445 3.1082797885519509 0 -0.62932039886446345 -0.77714595512881146 1.5 0 0 1 I I 0 1 1.5 forward I I I I #
face $-1 $146 $147 $51 $-1 $148 reversed single #
loop $-1 $-1 $149 $66 #
plane-surface $-1 31.270918232309128 49.354594982143098 120.53226675431071 1 0 0 0 -0.62932039886446345 -0.77714595512881146 forward_v I I I I #
face $-1 $150 $151 $52 $-1 $152 forward single #
loop $-1 $153 $154 $67 #
cone-surface $-1 35.196332849642957 23.319070639410445 3.1082797885519509 0 -0.62932039886446345 -0.77714595512881146 1.5 0 0 1 I I 0 1 1.5 forward I I I I #
face $-1 $155 $156 $53 $-1 $157 forward single #
loop $-1 $158 $159 $68 #
cone-surface $-1 41.084454775643721 23.319070639410445 3.1082797885519509 0 -0.62932039886446345 -0.77714595512881146 1.5 0 0 1 I I 0 1 1.5 forward I I I I #
face $-1 $160 $161 $54 $-1 $162 reversed single #
loop $-1 $-1 $163 $69 #
plane-surface $-1 -38.140393812643339 -30.172778525427589 0.95465849943818171 0 -0.62932039886446345 0.77714595512881146 1 0 0 forward_v I I I I #
face $-1 $164 $165 $55 $-1 $166 forward single #
loop $-1 $167 $168 $70 #
cone-surface $-1 -41.084454775643714 -23.319070639410441 3.1082797885519473 0 0.62932039886446345 -0.77714595512881146 1.5 0 0 1 I I 0 1 1.5 forward I I I I #
face $-1 $169 $170 $56 $-1 $171 forward single #
loop $-1 $172 $173 $71 #
cone-surface $-1 -35.196332849642964 -23.319070639410441 3.1082797885519473 0 0.62932039886446345 -0.77714595512881146 1.5 0 0 1 I I 0 1 1.5 forward I I I I #
face $-1 $174 $175 $57 $-1 $176 reversed single #
loop $-1 $-1 $177 $72 #
plane-surface $-1 31.270918232309128 -96.251900554210152 82.555576721368283 1 0 0 0 0.62932039886446345 -0.77714595512881146 forward_v I I I I #
face $-1 $178 $179 $58 $-1 $180 forward single #
loop $-1 $181 $182 $73 #
cone-surface $-1 35.196332849642957 -23.319070639410441 3.1082797885519473 0 0.62932039886446345 -0.77714595512881146 1.5 0 0 1 I I 0 1 1.5 forward I I I I #
face $-1 $183 $184 $59 $-1 $185 forward single #
loop $-1 $186 $187 $74 #
cone-surface $-1 41.084454775643721 -23.319070639410441 3.1082797885519473 0 0.62932039886446345 -0.77714595512881146 1.5 0 0 1 I I 0 1 1.5 forward I I I I #
face $-1 $188 $189 $45 $-1 $190 reversed single #
loop $-1 $-1 $191 $75 #
plane-surface $-1 0 0 -9.364454740812052 0 0 1 1 0 0 forward_v I I I I #
coedge $-1 $192 $193 $194 $195 forward $76 $-1 #
face $-1 $196 $197 $46 $-1 $198 forward single #
loop $-1 $-1 $199 $78 #
plane-surface $-1 -45.009869392977549 -28.641262777555113 0 -1 0 0 0 0 1 forward_v I I I I #
coedge $-1 $200 $201 $202 $203 forward $79 $-1 #
face $-1 $204 $205 $47 $-1 $206 forward single #
loop $-1 $-1 $207 $81 #
plane-surface $-1 48.755125437172993 -27.10974702968263 0 0 -1 0 0 0 -1 forward_v I I I I #
coedge $-1 $208 $209 $210 $211 forward $82 $-1 #
face $-1 $212 $213 $48 $-1 $214 reversed single #
loop $-1 $-1 $215 $84 #
plane-surface $-1 -38.140393812643339 -16.724527046639466 38.931348532380611 0 0.62932039886446345 0.77714595512881146 1 0 0 forward_v I I I I #
coedge $-1 $216 $217 $218 $219 reversed $85 $-1 #
face $-1 $-1 $220 $49 $-1 $221 forward single #
loop $-1 $222 $223 $87 #
cone-surface $-1 -41.084454775643714 21.185989080238624 0.47414349063216754 0 -0.62932039886446345 -0.77714595512881146 0.75 0 0 1 I I -0.70710678118654757 0.70710678118654757 0.75 forward I I I I #
loop $-1 $-1 $224 $64 #
coedge $-1 $140 $140 $225 $226 reversed $88 $-1 #
face $-1 $-1 $227 $50 $-1 $228 forward single #
loop $-1 $229 $230 $90 #
cone-surface $-1 -35.196332849642964 21.185989080238624 0.47414349063216754 0 -0.62932039886446345 -0.77714595512881146 0.75 0 0 1 I I -0.70710678118654757 0.70710678118654757 0.75 forward I I I I #
loop $-1 $-1 $231 $65 #
coedge $-1 $145 $145 $232 $233 reversed $91 $-1 #
face $-1 $234 $235 $51 $-1 $236 reversed single #
loop $-1 $-1 $237 $93 #
plane-surface $-1 38.140393812643339 -16.724527046639466 38.931348532380611 0 0.62932039886446345 0.77714595512881146 1 0 0 forward_v I I I I #
coedge $-1 $238 $239 $240 $241 reversed $94 $-1 #
face $-1 $-1 $242 $52 $-1 $243 forward single #
loop $-1 $244 $245 $96 #
cone-surface $-1 35.196332849642957 21.185989080238624 0.47414349063216754 0 -0.62932039886446345 -0.77714595512881146 0.75 0 0 1 I I -0.70710678118654757 0.70710678118654757 0.75 forward I I I I #
loop $-1 $-1 $246 $67 #
coedge $-1 $154 $154 $247 $248 reversed $97 $-1 #
face $-1 $-1 $249 $53 $-1 $250 forward single #
loop $-1 $251 $252 $99 #
cone-surface $-1 41.084454775643721 21.185989080238624 0.47414349063216754 0 -0.62932039886446345 -0.77714595512881146 0.75 0 0 1 I I -0.70710678118654757 0.70710678118654757 0.75 forward I I I I #
loop $-1 $-1 $253 $68 #
coedge $-1 $159 $159 $254 $255 reversed $100 $-1 #
face $-1 $256 $257 $54 $-1 $258 forward single #
loop $-1 $-1 $259 $102 #
plane-surface $-1 -31.270918232309128 -96.251900554210152 82.555576721368283 -1 0 0 0 -0.62932039886446345 0.77714595512881146 forward_v I I I I #
coedge $-1 $260 $261 $262 $263 reversed $103 $-1 #
face $-1 $-1 $264 $55 $-1 $265 forward single #
loop $-1 $266 $267 $105 #
cone-surface $-1 -41.084454775643714 -21.18598908023862 0.47414349063216399 0 0.62932039886446345 -0.77714595512881146 0.75 0 0 1 I I -0.70710678118654757 0.70710678118654757 0.75 forward I I I I #
loop $-1 $-1 $268 $70 #
coedge $-1 $168 $168 $269 $270 reversed $106 $-1 #
face $-1 $-1 $271 $56 $-1 $272 forward single #
loop $-1 $273 $274 $108 #
cone-surface $-1 -35.196332849642964 -21.18598908023862 0.47414349063216399 0 0.62932039886446345 -0.77714595512881146 0.75 0 0 1 I I -0.70710678118654757 0.70710678118654757 0.75 forward I I I I #
loop $-1 $-1 $275 $71 #
coedge $-1 $173 $173 $276 $277 reversed $109 $-1 #
face $-1 $278 $279 $57 $-1 $280 reversed single #
loop $-1 $-1 $281 $111 #
plane-surface $-1 38.140393812643339 -30.172778525427589 0.95465849943818171 0 -0.62932039886446345 0.77714595512881146 1 0 0 forward_v I I I I #
coedge $-1 $282 $283 $284 $285 reversed $112 $-1 #
face $-1 $-1 $286 $58 $-1 $287 forward single #
loop $-1 $288 $289 $114 #
cone-surface $-1 35.196332849642957 -21.18598908023862 0.47414349063216399 0 0.62932039886446345 -0.77714595512881146 0.75 0 0 1 I I -0.70710678118654757 0.70710678118654757 0.75 forward I I I I #
loop $-1 $-1 $290 $73 #
coedge $-1 $182 $182 $291 $292 reversed $115 $-1 #
face $-1 $-1 $293 $59 $-1 $294 forward single #
loop $-1 $295 $296 $117 #
cone-surface $-1 41.084454775643721 -21.18598908023862 0.47414349063216399 0 0.62932039886446345 -0.77714595512881146 0.75 0 0 1 I I -0.70710678118654757 0.70710678118654757 0.75 forward I I I I #
loop $-1 $-1 $297 $74 #
coedge $-1 $187 $187 $298 $299 reversed $118 $-1 #
face $-1 $300 $301 $45 $-1 $302 reversed single #
loop $-1 $-1 $303 $120 #
plane-surface $-1 0 -30.172778525427599 0 0 1 0 0 0 1 forward_v I I I I #
coedge $-1 $304 $305 $306 $307 forward $121 $-1 #
coedge $-1 $308 $123 $309 $310 forward $76 $-1 #
coedge $-1 $123 $308 $311 $312 forward $76 $-1 #
coedge $-1 $313 $314 $123 $195 reversed $315 $-1 #
edge $-1 $316 -30.172778525427599 $317 30.172778525427599 $194 $318 forward 7 unknown #
face $-1 $319 $320 $46 $-1 $321 reversed single #
loop $-1 $-1 $322 $124 #
plane-surface $-1 0 0 9.364454740812052 0 0 1 1 0 0 forward_v I I I I #
coedge $-1 $323 $324 $325 $326 reversed $125 $-1 #
coedge $-1 $327 $127 $328 $329 reversed $79 $-1 #
coedge $-1 $127 $327 $330 $331 reversed $79 $-1 #
coedge $-1 $324 $323 $127 $203 reversed $125 $-1 #
edge $-1 $332 -9.364454740812052 $333 9.364454740812052 $202 $334 forward 7 unknown #
face $-1 $335 $336 $47 $-1 $337 reversed single #
loop $-1 $-1 $338 $128 #
plane-surface $-1 0 0 9.364454740812052 0 0 1 1 0 0 forward_v I I I I #
coedge $-1 $339 $340 $341 $342 reversed $129 $-1 #
coedge $-1 $343 $131 $344 $345 reversed $82 $-1 #
coedge $-1 $131 $343 $346 $347 reversed $82 $-1 #
coedge $-1 $340 $339 $131 $211 reversed $129 $-1 #
edge $-1 $348 -9.364454740812052 $349 9.364454740812052 $210 $350 forward 7 unknown #
face $-1 $351 $352 $48 $-1 $353 reversed single #
loop $-1 $-1 $354 $132 #
plane-surface $-1 -31.270918232309128 49.354594982143098 120.53226675431071 -1 0 0 0 0.62932039886446345 0.77714595512881146 forward_v I I I I #
coedge $-1 $355 $356 $357 $358 reversed $133 $-1 #
coedge $-1 $217 $135 $359 $360 reversed $85 $-1 #
coedge $-1 $135 $216 $355 $361 reversed $85 $-1 #
coedge $-1 $357 $362 $135 $219 forward $363 $-1 #
edge $-1 $364 -5.4954810343560503 $365 4.8897522176313402 $218 $366 forward 7 unknown #
loop $-1 $-1 $225 $136 #
plane-surface $-1 -38.140393812643339 -16.724527046639466 38.931348532380611 0 0.62932039886446345 0.77714595512881146 1 0 0 forward_v I I I I #
loop $-1 $-1 $367 $87 #
coedge $-1 $223 $223 $224 $368 reversed $137 $-1 #
coedge $-1 $224 $224 $223 $368 forward $139 $-1 #
coedge $-1 $225 $225 $140 $226 forward $220 $-1 #
edge $-1 $369 2.1232387842878022e-015 $369 6.2831853071796022 $225 $370 forward 7 unknown #
loop $-1 $-1 $232 $141 #
plane-surface $-1 -38.140393812643339 -16.724527046639466 38.931348532380611 0 0.62932039886446345 0.77714595512881146 1 0 0 forward_v I I I I #
loop $-1 $-1 $371 $90 #
coedge $-1 $230 $230 $231 $372 reversed $142 $-1 #
coedge $-1 $231 $231 $230 $372 forward $144 $-1 #
coedge $-1 $232 $232 $145 $233 forward $227 $-1 #
edge $-1 $373 2.1232387842878022e-015 $373 6.2831853071796022 $232 $374 forward 7 unknown #
face $-1 $375 $376 $51 $-1 $377 forward single #
loop $-1 $-1 $378 $146 #
plane-surface $-1 45.009869392977549 49.354594982143098 120.53226675431071 -1 0 0 0 0.62932039886446345 0.77714595512881146 forward_v I I I I #
coedge $-1 $379 $380 $381 $382 reversed $147 $-1 #
coedge $-1 $239 $149 $383 $384 reversed $94 $-1 #
coedge $-1 $149 $238 $379 $385 reversed $94 $-1 #
coedge $-1 $381 $386 $149 $241 forward $376 $-1 #
edge $-1 $387 -5.4954810343560503 $388 4.8897522176313402 $240 $389 forward 7 unknown #
loop $-1 $-1 $247 $150 #
plane-surface $-1 38.140393812643339 -16.724527046639466 38.931348532380611 0 0.62932039886446345 0.77714595512881146 1 0 0 forward_v I I I I #
loop $-1 $-1 $390 $96 #
coedge $-1 $245 $245 $246 $391 reversed $151 $-1 #
coedge $-1 $246 $246 $245 $391 forward $153 $-1 #
coedge $-1 $247 $247 $154 $248 forward $242 $-1 #
edge $-1 $392 2.1232387842878022e-015 $392 6.2831853071796022 $247 $393 forward 7 unknown #
loop $-1 $-1 $254 $155 #
plane-surface $-1 38.140393812643339 -16.724527046639466 38.931348532380611 0 0.62932039886446345 0.77714595512881146 1 0 0 forward_v I I I I #
loop $-1 $-1 $394 $99 #
coedge $-1 $252 $252 $253 $395 reversed $156 $-1 #
coedge $-1 $253 $253 $252 $395 forward $158 $-1 #
coedge $-1 $254 $254 $159 $255 forward $249 $-1 #
edge $-1 $396 2.1232387842878022e-015 $396 6.2831853071796022 $254 $397 forward 7 unknown #
face $-1 $398 $399 $54 $-1 $400 forward single #
loop $-1 $-1 $401 $160 #
plane-surface $-1 0 0 9.364454740812052 0 0 1 1 0 0 forward_v I I I I #
coedge $-1 $402 $403 $404 $405 reversed $161 $-1 #
coedge $-1 $406 $163 $407 $408 reversed $103 $-1 #
coedge $-1 $163 $406 $402 $409 forward $103 $-1 #
coedge $-1 $404 $410 $163 $263 forward $411 $-1 #
edge $-1 $412 -25.93967248665588 $413 -12.200721325987459 $262 $414 forward 7 unknown #
loop $-1 $-1 $269 $164 #
plane-surface $-1 -38.140393812643339 -30.172778525427589 0.95465849943818171 0 -0.62932039886446345 0.77714595512881146 1 0 0 forward_v I I I I #
loop $-1 $-1 $415 $105 #
coedge $-1 $267 $267 $268 $416 reversed $165 $-1 #
coedge $-1 $268 $268 $267 $416 forward $167 $-1 #
coedge $-1 $269 $269 $168 $270 forward $264 $-1 #
edge $-1 $417 -1.4229962831989453e-015 $417 6.2831853071795987 $269 $418 forward 7 unknown #
loop $-1 $-1 $276 $169 #
plane-surface $-1 -38.140393812643339 -30.172778525427589 0.95465849943818171 0 -0.62932039886446345 0.77714595512881146 1 0 0 forward_v I I I I #
loop $-1 $-1 $419 $108 #
coedge $-1 $274 $274 $275 $420 reversed $170 $-1 #
coedge $-1 $275 $275 $274 $420 forward $172 $-1 #
coedge $-1 $276 $276 $173 $277 forward $271 $-1 #
edge $-1 $421 -1.4229962831989453e-015 $421 6.2831853071795987 $276 $422 forward 7 unknown #
face $-1 $423 $424 $57 $-1 $425 forward single #
loop $-1 $-1 $284 $174 #
plane-surface $-1 0 -30.172778525427599 0 0 1 0 0 0 1 forward_v I I I I #
coedge $-1 $426 $427 $428 $429 reversed $175 $-1 #
coedge $-1 $283 $177 $430 $431 reversed $112 $-1 #
coedge $-1 $177 $282 $426 $432 reversed $112 $-1 #
coedge $-1 $428 $433 $177 $285 forward $279 $-1 #
edge $-1 $434 31.913333619872091 $435 40.323129861245967 $284 $436 forward 7 unknown #
loop $-1 $-1 $291 $178 #
plane-surface $-1 38.140393812643339 -30.172778525427589 0.95465849943818171 0 -0.62932039886446345 0.77714595512881146 1 0 0 forward_v I I I I #
loop $-1 $-1 $437 $114 #
coedge $-1 $289 $289 $290 $438 reversed $179 $-1 #
coedge $-1 $290 $290 $289 $438 forward $181 $-1 #
coedge $-1 $291 $291 $182 $292 forward $286 $-1 #
edge $-1 $439 -1.4229962831989453e-015 $439 6.2831853071795987 $291 $440 forward 7 unknown #
loop $-1 $-1 $298 $183 #
plane-surface $-1 38.140393812643339 -30.172778525427589 0.95465849943818171 0 -0.62932039886446345 0.77714595512881146 1 0 0 forward_v I I I I #
loop $-1 $-1 $441 $117 #
coedge $-1 $296 $296 $297 $442 reversed $184 $-1 #
coedge $-1 $297 $297 $296 $442 forward $186 $-1 #
coedge $-1 $298 $298 $187 $299 forward $293 $-1 #
edge $-1 $443 -1.4229962831989453e-015 $443 6.2831853071795987 $298 $444 forward 7 unknown #
face $-1 $445 $446 $45 $-1 $447 reversed single #
loop $-1 $-1 $448 $188 #
plane-surface $-1 -52.50038148136845 0 0 1 0 0 0 0 -1 forward_v I I I I #
coedge $-1 $449 $311 $450 $451 forward $189 $-1 #
coedge $-1 $452 $191 $449 $453 forward $121 $-1 #
coedge $-1 $191 $452 $454 $455 forward $121 $-1 #
coedge $-1 $314 $313 $191 $307 reversed $315 $-1 #
edge $-1 $456 -30.172778525427599 $457 30.172778525427599 $306 $458 forward 7 unknown #
coedge $-1 $193 $192 $459 $460 forward $76 $-1 #
coedge $-1 $461 $462 $192 $310 reversed $446 $-1 #
edge $-1 $317 -52.50038148136845 $463 52.50038148136845 $309 $464 forward 7 unknown #
coedge $-1 $303 $465 $193 $312 reversed $189 $-1 #
edge $-1 $466 -52.50038148136845 $316 52.50038148136845 $311 $467 forward 7 unknown #
coedge $-1 $306 $194 $465 $468 forward $315 $-1 #
coedge $-1 $194 $306 $461 $469 reversed $315 $-1 #
loop $-1 $-1 $313 $445 #
vertex $-1 $195 $470 #
vertex $-1 $195 $471 #
straight-curve $-1 52.50038148136845 0 9.364454740812052 0 1 0 I I #
face $-1 $472 $473 $46 $-1 $474 reversed single #
loop $-1 $-1 $475 $196 #
plane-surface $-1 -52.50038148136845 0 0 1 0 0 0 0 -1 forward_v I I I I #
coedge $-1 $330 $476 $324 $477 forward $197 $-1 #
coedge $-1 $202 $199 $478 $479 reversed $125 $-1 #
coedge $-1 $199 $202 $322 $477 reversed $125 $-1 #
coedge $-1 $480 $481 $199 $326 forward $482 $-1 #
edge $-1 $483 -9.364454740812052 $484 9.364454740812052 $325 $485 forward 7 unknown #
coedge $-1 $201 $200 $475 $486 reversed $79 $-1 #
coedge $-1 $478 $487 $200 $329 forward $473 $-1 #
edge $-1 $488 -28.12281876278195 $333 -20.632306674391049 $328 $489 forward 7 unknown #
coedge $-1 $490 $322 $201 $331 forward $197 $-1 #
edge $-1 $332 20.632306674391049 $491 28.12281876278195 $330 $492 forward 7 unknown #
vertex $-1 $331 $493 #
vertex $-1 $329 $494 #
straight-curve $-1 -45.009869392977549 -27.10974702968263 0 0 0 -1 I I #
face $-1 $495 $496 $47 $-1 $497 reversed single #
loop $-1 $-1 $498 $204 #
plane-surface $-1 0 -30.172778525427599 0 0 1 0 0 0 1 forward_v I I I I #
coedge $-1 $346 $499 $340 $500 forward $205 $-1 #
coedge $-1 $210 $207 $501 $502 reversed $129 $-1 #
coedge $-1 $207 $210 $338 $500 reversed $129 $-1 #
coedge $-1 $503 $504 $207 $342 forward $505 $-1 #
edge $-1 $506 -9.364454740812052 $507 9.364454740812052 $341 $508 forward 7 unknown #
coedge $-1 $209 $208 $498 $509 reversed $82 $-1 #
coedge $-1 $501 $510 $208 $345 forward $496 $-1 #
edge $-1 $511 -15.852147136650039 $349 -12.789115640905074 $344 $512 forward 7 unknown #
coedge $-1 $513 $338 $209 $347 forward $205 $-1 #
edge $-1 $348 12.789115640905074 $514 15.852147136650039 $346 $515 forward 7 unknown #
vertex $-1 $347 $516 #
vertex $-1 $345 $517 #
straight-curve $-1 45.009869392977542 -27.10974702968263 0 0 0 -1 I I #
face $-1 $-1 $363 $48 $-1 $518 forward single #
loop $-1 $-1 $519 $212 #
plane-surface $-1 0 30.172778525427599 0 0 -1 0 0 0 -1 forward_v I I I I #
coedge $-1 $520 $521 $522 $523 reversed $213 $-1 #
coedge $-1 $524 $215 $217 $361 forward $133 $-1 #
coedge $-1 $215 $524 $520 $525 forward $133 $-1 #
coedge $-1 $522 $218 $215 $358 forward $363 $-1 #
edge $-1 $365 -25.93967248665588 $526 -12.200721325987459 $357 $527 forward 7 unknown #
coedge $-1 $528 $529 $216 $360 forward $352 $-1 #
edge $-1 $530 -59.311474877717188 $364 -50.901678636343306 $359 $531 forward 7 unknown #
edge $-1 $365 46.982258711013714 $530 60.34555705085522 $217 $532 forward 7 unknown #
coedge $-1 $218 $522 $528 $533 forward $363 $-1 #
loop $-1 $-1 $522 $351 #
vertex $-1 $360 $534 #
vertex $-1 $219 $535 #
straight-curve $-1 -45.009869392977549 24.677297491071549 9.3644547408120502 0 -1 0 I I #
coedge $-1 $367 $367 $-1 $536 reversed $222 $-1 #
edge $-1 $537 0 $537 6.2831853071796004 $223 $538 forward 7 unknown #
vertex $-1 $226 $539 #
ellipse-curve $-1 -41.084454775643714 24.980161899433902 5.1595566201251089 0 0.62932039886446345 0.77714595512881146 1.5 0 0 1 I I #
coedge $-1 $371 $371 $-1 $540 reversed $229 $-1 #
edge $-1 $541 0 $541 6.2831853071796004 $230 $542 forward 7 unknown #
vertex $-1 $233 $543 #
ellipse-curve $-1 -35.196332849642964 24.980161899433902 5.1595566201251089 0 0.62932039886446345 0.77714595512881146 1.5 0 0 1 I I #
face $-1 $-1 $544 $51 $-1 $545 reversed single #
loop $-1 $-1 $240 $234 #
plane-surface $-1 0 0 9.364454740812052 0 0 1 1 0 0 forward_v I I I I #
coedge $-1 $546 $547 $548 $549 reversed $235 $-1 #
coedge $-1 $550 $237 $239 $385 forward $147 $-1 #
coedge $-1 $237 $550 $546 $551 forward $147 $-1 #
coedge $-1 $548 $240 $237 $382 forward $376 $-1 #
edge $-1 $388 12.200721325987459 $552 25.93967248665588 $381 $553 forward 7 unknown #
coedge $-1 $554 $555 $238 $384 forward $544 $-1 #
edge $-1 $556 -59.311474877717188 $387 -50.901678636343306 $383 $557 forward 7 unknown #
edge $-1 $388 46.982258711013714 $556 60.34555705085522 $239 $558 forward 7 unknown #
coedge $-1 $240 $548 $554 $559 forward $376 $-1 #
vertex $-1 $241 $560 #
vertex $-1 $241 $561 #
straight-curve $-1 31.270918232309128 24.677297491071549 9.3644547408120502 0 -1 0 I I #
coedge $-1 $390 $390 $-1 $562 reversed $244 $-1 #
edge $-1 $563 0 $563 6.2831853071796004 $245 $564 forward 7 unknown #
vertex $-1 $248 $565 #
ellipse-curve $-1 35.196332849642957 24.980161899433902 5.1595566201251089 0 0.62932039886446345 0.77714595512881146 1.5 0 0 1 I I #
coedge $-1 $394 $394 $-1 $566 reversed $251 $-1 #
edge $-1 $567 0 $567 6.2831853071796004 $252 $568 forward 7 unknown #
vertex $-1 $255 $569 #
ellipse-curve $-1 41.084454775643721 24.980161899433902 5.1595566201251089 0 0.62932039886446345 0.77714595512881146 1.5 0 0 1 I I #
face $-1 $-1 $411 $54 $-1 $570 reversed single #
loop $-1 $-1 $407 $256 #
plane-surface $-1 -45.009869392977549 -28.641262777555113 0 -1 0 0 0 0 1 forward_v I I I I #
coedge $-1 $571 $572 $403 $573 forward $257 $-1 #
coedge $-1 $403 $259 $261 $409 reversed $161 $-1 #
coedge $-1 $259 $402 $401 $573 reversed $161 $-1 #
coedge $-1 $574 $262 $259 $405 forward $411 $-1 #
edge $-1 $413 -40.323129861245967 $575 -31.913333619872091 $404 $576 forward 7 unknown #
coedge $-1 $261 $260 $571 $577 reversed $103 $-1 #
coedge $-1 $578 $579 $260 $408 forward $399 $-1 #
edge $-1 $580 -13.068585739326799 $412 0.29471260051470594 $407 $581 forward 7 unknown #
edge $-1 $582 -13.363298339841492 $413 1.3732681969779619e-014 $402 $583 forward 7 unknown #
coedge $-1 $262 $574 $578 $584 forward $411 $-1 #
loop $-1 $-1 $404 $398 #
vertex $-1 $408 $585 #
vertex $-1 $263 $586 #
straight-curve $-1 -19.070196906321669 -30.172778525427599 0.95465849943817349 1 0 0 I I #
coedge $-1 $415 $415 $-1 $587 reversed $266 $-1 #
edge $-1 $588 0 $588 6.2831853071796004 $267 $589 forward 7 unknown #
vertex $-1 $270 $590 #
ellipse-curve $-1 -41.084454775643714 -24.980161899433906 5.1595566201251124 0 -0.62932039886446345 0.77714595512881146 1.5 0 0 1 I I #
coedge $-1 $419 $419 $-1 $591 reversed $273 $-1 #
edge $-1 $592 0 $592 6.2831853071796004 $274 $593 forward 7 unknown #
vertex $-1 $277 $594 #
ellipse-curve $-1 -35.196332849642964 -24.980161899433906 5.1595566201251124 0 -0.62932039886446345 0.77714595512881146 1.5 0 0 1 I I #
face $-1 $-1 $595 $57 $-1 $596 forward single #
loop $-1 $-1 $430 $278 #
plane-surface $-1 0 0 9.364454740812052 0 0 1 1 0 0 forward_v I I I I #
coedge $-1 $597 $281 $283 $432 forward $175 $-1 #
coedge $-1 $281 $597 $598 $599 reversed $175 $-1 #
coedge $-1 $600 $284 $281 $429 forward $279 $-1 #
edge $-1 $435 12.200721325987459 $601 25.93967248665588 $428 $602 forward 7 unknown #
coedge $-1 $603 $604 $282 $431 forward $424 $-1 #
edge $-1 $605 -28.338405003664864 $434 -17.953171751677477 $430 $606 forward 7 unknown #
edge $-1 $435 -1.3732681969779619e-014 $605 13.363298339841492 $283 $607 forward 7 unknown #
coedge $-1 $284 $600 $603 $608 reversed $279 $-1 #
vertex $-1 $608 $609 #
vertex $-1 $285 $610 #
straight-curve $-1 31.270918232309128 -30.172778525427596 41.277788360684141 0 0 -1 I I #
coedge $-1 $437 $437 $-1 $611 reversed $288 $-1 #
edge $-1 $612 0 $612 6.2831853071796004 $289 $613 forward 7 unknown #
vertex $-1 $292 $614 #
ellipse-curve $-1 35.196332849642957 -24.980161899433906 5.1595566201251124 0 -0.62932039886446345 0.77714595512881146 1.5 0 0 1 I I #
coedge $-1 $441 $441 $-1 $615 reversed $295 $-1 #
edge $-1 $616 0 $616 6.2831853071796004 $296 $617 forward 7 unknown #
vertex $-1 $299 $618 #
ellipse-curve $-1 41.084454775643721 -24.980161899433906 5.1595566201251124 0 -0.62932039886446345 0.77714595512881146 1.5 0 0 1 I I #
face $-1 $-1 $315 $45 $-1 $619 reversed single #
loop $-1 $-1 $461 $300 #
plane-surface $-1 0 30.172778525427599 0 0 -1 0 0 0 -1 forward_v I I I I #
coedge $-1 $620 $459 $462 $621 forward $301 $-1 #
coedge $-1 $465 $303 $304 $453 reversed $189 $-1 #
coedge $-1 $459 $620 $303 $451 reversed $301 $-1 #
edge $-1 $466 -9.364454740812052 $622 9.364454740812052 $450 $623 forward 7 unknown #
coedge $-1 $305 $304 $620 $624 forward $121 $-1 #
edge $-1 $457 -52.50038148136845 $622 52.50038148136845 $449 $625 forward 7 unknown #
coedge $-1 $462 $461 $305 $455 reversed $446 $-1 #
edge $-1 $626 -52.50038148136845 $456 52.50038148136845 $454 $627 forward 7 unknown #
vertex $-1 $307 $628 #
vertex $-1 $468 $629 #
straight-curve $-1 52.50038148136845 0 -9.364454740812052 0 -1 0 I I #
coedge $-1 $448 $450 $308 $460 reversed $301 $-1 #
edge $-1 $463 -30.172778525427599 $466 30.172778525427599 $459 $630 forward 7 unknown #
coedge $-1 $454 $309 $314 $469 forward $446 $-1 #
coedge $-1 $309 $454 $448 $621 reversed $446 $-1 #
vertex $-1 $310 $631 #
straight-curve $-1 0 30.172778525427599 9.364454740812052 -1 0 0 I I #
coedge $-1 $311 $449 $313 $468 reversed $189 $-1 #
vertex $-1 $460 $632 #
straight-curve $-1 0 -30.172778525427599 9.364454740812052 1 0 0 I I #
edge $-1 $316 -9.364454740812052 $457 9.364454740812052 $313 $633 forward 7 unknown #
edge $-1 $317 -9.364454740812052 $456 9.364454740812052 $314 $634 forward 7 unknown #
point $-1 52.50038148136845 -30.172778525427599 9.364454740812052 #
point $-1 52.50038148136845 30.172778525427599 9.364454740812052 #
face $-1 $-1 $482 $46 $-1 $635 reversed single #
loop $-1 $-1 $478 $319 #
plane-surface $-1 0 0 -9.364454740812052 0 0 1 1 0 0 forward_v I I I I #
coedge $-1 $636 $637 $327 $486 forward $320 $-1 #
coedge $-1 $322 $490 $480 $638 forward $197 $-1 #
edge $-1 $484 -15.852147136650039 $332 -12.789115640905074 $322 $639 forward 7 unknown #
coedge $-1 $640 $328 $323 $479 forward $473 $-1 #
edge $-1 $333 12.789115640905074 $483 15.852147136650039 $478 $641 forward 7 unknown #
coedge $-1 $642 $325 $476 $638 reversed $482 $-1 #
coedge $-1 $325 $642 $640 $643 reversed $482 $-1 #
loop $-1 $-1 $325 $472 #
vertex $-1 $643 $644 #
vertex $-1 $326 $645 #
straight-curve $-1 -45.009869392977549 -30.172778525427599 0 0 0 1 I I #
edge $-1 $491 -9.364454740812052 $488 9.364454740812052 $475 $646 forward 7 unknown #
coedge $-1 $328 $640 $636 $647 forward $473 $-1 #
vertex $-1 $329 $648 #
straight-curve $-1 -24.3775627185865 -27.10974702968263 -9.364454740812052 1 0 0 I I #
coedge $-1 $476 $330 $637 $649 forward $197 $-1 #
vertex $-1 $649 $650 #
straight-curve $-1 -24.3775627185865 -27.10974702968263 9.364454740812052 -1 0 0 I I #
point $-1 -45.009869392977549 -27.10974702968263 9.364454740812052 #
point $-1 -45.009869392977549 -27.10974702968263 -9.364454740812052 #
face $-1 $-1 $505 $47 $-1 $651 reversed single #
loop $-1 $-1 $501 $335 #
plane-surface $-1 0 0 -9.364454740812052 0 0 1 1 0 0 forward_v I I I I #
coedge $-1 $652 $653 $343 $509 forward $336 $-1 #
coedge $-1 $338 $513 $503 $654 forward $205 $-1 #
edge $-1 $507 -28.122818762781947 $348 -20.632306674391046 $338 $655 forward 7 unknown #
coedge $-1 $656 $344 $339 $502 forward $496 $-1 #
edge $-1 $349 20.632306674391046 $506 28.122818762781947 $501 $657 forward 7 unknown #
coedge $-1 $658 $341 $499 $654 reversed $505 $-1 #
coedge $-1 $341 $658 $656 $659 reversed $505 $-1 #
loop $-1 $-1 $341 $495 #
vertex $-1 $659 $660 #
vertex $-1 $342 $661 #
straight-curve $-1 52.50038148136845 -27.10974702968263 0 0 0 1 I I #
edge $-1 $514 -9.364454740812052 $511 9.364454740812052 $498 $662 forward 7 unknown #
coedge $-1 $344 $656 $652 $663 forward $496 $-1 #
vertex $-1 $345 $664 #
straight-curve $-1 45.009869392977542 -14.320631388777556 -9.364454740812052 0 1 0 I I #
coedge $-1 $499 $346 $653 $665 forward $205 $-1 #
vertex $-1 $665 $666 #
straight-curve $-1 45.009869392977542 -14.320631388777556 9.364454740812052 0 -1 0 I I #
point $-1 45.009869392977542 -27.10974702968263 9.364454740812052 #
point $-1 45.009869392977542 -27.10974702968263 -9.364454740812052 #
plane-surface $-1 0 0 9.364454740812052 0 0 1 1 0 0 forward_v I I I I #
coedge $-1 $529 $528 $521 $667 forward $352 $-1 #
coedge $-1 $521 $354 $356 $525 reversed $213 $-1 #
coedge $-1 $354 $520 $519 $667 reversed $213 $-1 #
coedge $-1 $362 $357 $354 $523 forward $363 $-1 #
edge $-1 $526 -4.8897522176313402 $668 5.4954810343560503 $522 $669 forward 7 unknown #
coedge $-1 $356 $355 $529 $670 reversed $133 $-1 #
edge $-1 $671 -60.34555705085522 $526 -46.982258711013714 $520 $672 forward 7 unknown #
vertex $-1 $358 $673 #
straight-curve $-1 -19.070196906321669 19.787545273440209 9.3644547408120502 1 0 0 I I #
coedge $-1 $519 $359 $362 $533 reversed $352 $-1 #
coedge $-1 $359 $519 $524 $670 forward $352 $-1 #
vertex $-1 $360 $674 #
straight-curve $-1 -45.009869392977549 30.172778525427599 60.266133377155356 0 0 1 I I #
straight-curve $-1 -45.009869392977549 -16.724527046639466 38.931348532380611 0 0.77714595512881146 -0.62932039886446345 I I #
edge $-1 $668 31.270918232309128 $364 45.009869392977549 $528 $675 forward 7 unknown #
point $-1 -45.009869392977549 30.172778525427599 9.364454740812052 #
point $-1 -45.009869392977549 19.787545273440209 9.3644547408120467 #
edge $-1 $676 1 $676 0 $367 $-1 forward 7 unknown #
vertex $-1 $368 $677 #
ellipse-curve $-1 -41.084454775643714 21.657979379386973 1.057002956978776 0 0.62932039886446345 0.77714595512881146 1.5 0 0 1 I I #
point $-1 -39.584454775643714 24.98016189943392 5.1595566201251257 #
edge $-1 $678 1 $678 0 $371 $-1 forward 7 unknown #
vertex $-1 $372 $679 #
ellipse-curve $-1 -35.196332849642964 21.657979379386973 1.057002956978776 0 0.62932039886446345 0.77714595512881146 1.5 0 0 1 I I #
point $-1 -33.696332849642964 24.98016189943392 5.1595566201251257 #
loop $-1 $-1 $383 $375 #
plane-surface $-1 0 30.172778525427599 0 0 -1 0 0 0 -1 forward_v I I I I #
coedge $-1 $547 $378 $380 $551 reversed $235 $-1 #
coedge $-1 $378 $546 $680 $681 reversed $235 $-1 #
coedge $-1 $386 $381 $378 $549 forward $376 $-1 #
edge $-1 $552 -4.8897522176313402 $682 5.4954810343560503 $548 $683 forward 7 unknown #
coedge $-1 $380 $379 $555 $684 reversed $147 $-1 #
edge $-1 $685 -60.34555705085522 $552 -46.982258711013714 $546 $686 forward 7 unknown #
vertex $-1 $382 $687 #
straight-curve $-1 19.070196906321669 19.787545273440209 9.3644547408120502 1 0 0 I I #
coedge $-1 $680 $383 $386 $559 reversed $544 $-1 #
coedge $-1 $383 $680 $550 $684 forward $544 $-1 #
vertex $-1 $384 $688 #
straight-curve $-1 31.270918232309128 30.172778525427599 60.266133377155356 0 0 1 I I #
straight-curve $-1 31.270918232309128 -16.724527046639466 38.931348532380611 0 0.77714595512881146 -0.62932039886446345 I I #
edge $-1 $682 -45.009869392977549 $387 -31.270918232309128 $554 $689 forward 7 unknown #
point $-1 31.270918232309128 30.172778525427599 9.364454740812052 #
point $-1 31.270918232309128 19.787545273440209 9.3644547408120467 #
edge $-1 $690 1 $690 0 $390 $-1 forward 7 unknown #
vertex $-1 $391 $691 #
ellipse-curve $-1 35.196332849642957 21.657979379386973 1.057002956978776 0 0.62932039886446345 0.77714595512881146 1.5 0 0 1 I I #
point $-1 36.696332849642957 24.98016189943392 5.1595566201251257 #
edge $-1 $692 1 $692 0 $394 $-1 forward 7 unknown #
vertex $-1 $395 $693 #
ellipse-curve $-1 41.084454775643721 21.657979379386973 1.057002956978776 0 0.62932039886446345 0.77714595512881146 1.5 0 0 1 I I #
point $-1 42.584454775643721 24.98016189943392 5.1595566201251257 #
plane-surface $-1 0 -30.172778525427599 0 0 1 0 0 0 1 forward_v I I I I #
coedge $-1 $694 $401 $406 $577 forward $257 $-1 #
coedge $-1 $401 $694 $574 $695 forward $257 $-1 #
edge $-1 $575 17.953171751677477 $582 28.338405003664864 $401 $696 forward 7 unknown #
coedge $-1 $410 $404 $572 $695 reversed $411 $-1 #
vertex $-1 $405 $697 #
straight-curve $-1 -31.270918232309128 -30.172778525427596 41.277788360684141 0 0 1 I I #
edge $-1 $582 12.200721325987459 $580 25.93967248665588 $571 $698 forward 7 unknown #
coedge $-1 $579 $407 $410 $584 reversed $399 $-1 #
coedge $-1 $407 $578 $694 $699 reversed $399 $-1 #
vertex $-1 $577 $700 #
straight-curve $-1 -45.009869392977549 -29.943743820012102 1.140127150744471 0 -0.77714595512881146 -0.62932039886446345 I I #
vertex $-1 $577 $701 #
straight-curve $-1 -31.270918232309128 -30.172778525427589 0.95465849943818171 0 -0.77714595512881146 -0.62932039886446345 I I #
edge $-1 $702 -9.364454740812052 $412 -0.95465849943817305 $410 $703 forward 7 unknown #
point $-1 -45.009869392977549 -30.172778525427599 0.95465849943817305 #
point $-1 -31.270918232309128 -30.172778525427599 0.95465849943817305 #
edge $-1 $704 1 $704 0 $415 $-1 forward 7 unknown #
vertex $-1 $416 $705 #
ellipse-curve $-1 -41.084454775643714 -21.657979379386969 1.0570029569787724 0 -0.62932039886446345 0.77714595512881146 1.5 0 0 1 I I #
point $-1 -39.584454775643714 -24.980161899433917 5.1595566201251222 #
edge $-1 $706 1 $706 0 $419 $-1 forward 7 unknown #
vertex $-1 $420 $707 #
ellipse-curve $-1 -35.196332849642964 -21.657979379386969 1.0570029569787724 0 -0.62932039886446345 0.77714595512881146 1.5 0 0 1 I I #
point $-1 -33.696332849642964 -24.980161899433917 5.1595566201251222 #
loop $-1 $-1 $598 $423 #
plane-surface $-1 45.009869392977542 -28.641262777555113 0 1 0 0 0 0 -1 forward_v I I I I #
coedge $-1 $427 $426 $604 $708 reversed $175 $-1 #
coedge $-1 $709 $710 $427 $599 forward $595 $-1 #
edge $-1 $601 -0.29471260051470594 $711 13.068585739326799 $598 $712 forward 7 unknown #
coedge $-1 $433 $428 $710 $713 forward $279 $-1 #
vertex $-1 $713 $714 #
straight-curve $-1 19.070196906321669 -30.172778525427599 0.95465849943817349 1 0 0 I I #
coedge $-1 $715 $430 $433 $608 forward $424 $-1 #
coedge $-1 $430 $715 $597 $708 forward $424 $-1 #
vertex $-1 $431 $716 #
straight-curve $-1 31.270918232309128 -48.125950277105076 9.3644547408120502 0 -1 0 I I #
straight-curve $-1 31.270918232309128 -30.172778525427589 0.95465849943818171 0 0.77714595512881146 0.62932039886446345 I I #
edge $-1 $434 31.270918232309128 $717 45.009869392977542 $433 $718 forward 7 unknown #
point $-1 31.270918232309128 -30.172778525427599 9.364454740812052 #
point $-1 31.270918232309128 -30.172778525427599 0.95465849943817305 #
edge $-1 $719 1 $719 0 $437 $-1 forward 7 unknown #
vertex $-1 $438 $720 #
ellipse-curve $-1 35.196332849642957 -21.657979379386969 1.0570029569787724 0 -0.62932039886446345 0.77714595512881146 1.5 0 0 1 I I #
point $-1 36.696332849642957 -24.980161899433917 5.1595566201251222 #
edge $-1 $721 1 $721 0 $441 $-1 forward 7 unknown #
vertex $-1 $442 $722 #
ellipse-curve $-1 41.084454775643721 -21.657979379386969 1.0570029569787724 0 -0.62932039886446345 0.77714595512881146 1.5 0 0 1 I I #
point $-1 42.584454775643721 -24.980161899433917 5.1595566201251222 #
plane-surface $-1 52.50038148136845 0 0 -1 0 0 0 0 1 forward_v I I I I #
coedge $-1 $450 $448 $452 $624 reversed $301 $-1 #
edge $-1 $463 -9.364454740812052 $626 9.364454740812052 $462 $723 forward 7 unknown #
vertex $-1 $624 $724 #
straight-curve $-1 -52.50038148136845 -30.172778525427599 0 0 0 -1 I I #
edge $-1 $622 -30.172778525427599 $626 30.172778525427599 $620 $725 forward 7 unknown #
straight-curve $-1 0 -30.172778525427599 -9.364454740812052 -1 0 0 I I #
vertex $-1 $455 $726 #
straight-curve $-1 0 30.172778525427599 -9.364454740812052 1 0 0 I I #
point $-1 52.50038148136845 30.172778525427599 -9.364454740812052 #
point $-1 52.50038148136845 -30.172778525427599 -9.364454740812052 #
straight-curve $-1 -52.50038148136845 0 9.364454740812052 0 -1 0 I I #
point $-1 -52.50038148136845 30.172778525427599 9.364454740812052 #
point $-1 -52.50038148136845 -30.172778525427599 9.364454740812052 #
straight-curve $-1 52.50038148136845 -30.172778525427599 0 0 0 -1 I I #
straight-curve $-1 52.50038148136845 30.172778525427599 0 0 0 -1 I I #
plane-surface $-1 0 -30.172778525427599 0 0 1 0 0 0 1 forward_v I I I I #
coedge $-1 $727 $475 $487 $647 reversed $320 $-1 #
coedge $-1 $475 $727 $490 $649 reversed $320 $-1 #
edge $-1 $728 -52.50038148136845 $484 -45.009869392977549 $480 $729 forward 7 unknown #
straight-curve $-1 -45.009869392977549 -14.320631388777556 9.364454740812052 0 1 0 I I #
coedge $-1 $487 $478 $481 $643 forward $473 $-1 #
straight-curve $-1 -45.009869392977549 -14.320631388777556 -9.364454740812052 0 -1 0 I I #
coedge $-1 $481 $480 $727 $730 forward $482 $-1 #
edge $-1 $483 45.009869392977549 $731 52.50038148136845 $481 $732 forward 7 unknown #
point $-1 -45.009869392977549 -30.172778525427596 -9.364454740812052 #
point $-1 -45.009869392977549 -30.172778525427596 9.364454740812052 #
straight-curve $-1 -52.50038148136845 -27.10974702968263 0 0 0 -1 I I #
edge $-1 $731 -30.172778525427599 $488 -27.10974702968263 $636 $733 forward 7 unknown #
point $-1 -52.50038148136845 -27.10974702968263 -9.364454740812052 #
edge $-1 $491 27.10974702968263 $728 30.172778525427599 $637 $734 forward 7 unknown #
point $-1 -52.50038148136845 -27.10974702968263 9.364454740812052 #
plane-surface $-1 52.50038148136845 0 0 -1 0 0 0 0 1 forward_v I I I I #
coedge $-1 $735 $498 $510 $663 reversed $336 $-1 #
coedge $-1 $498 $735 $513 $665 reversed $336 $-1 #
edge $-1 $736 -30.172778525427599 $507 -27.10974702968263 $503 $737 forward 7 unknown #
straight-curve $-1 24.377562718586496 -27.10974702968263 9.364454740812052 -1 0 0 I I #
coedge $-1 $510 $501 $504 $659 forward $496 $-1 #
straight-curve $-1 24.377562718586496 -27.10974702968263 -9.364454740812052 1 0 0 I I #
coedge $-1 $504 $503 $735 $738 forward $505 $-1 #
edge $-1 $506 27.10974702968263 $739 30.172778525427599 $504 $740 forward 7 unknown #
point $-1 52.500381481368443 -27.10974702968263 -9.364454740812052 #
point $-1 52.500381481368443 -27.10974702968263 9.364454740812052 #
straight-curve $-1 45.009869392977542 -30.172778525427599 0 0 0 -1 I I #
edge $-1 $739 -52.50038148136845 $511 -45.009869392977542 $652 $741 forward 7 unknown #
point $-1 45.009869392977542 -30.172778525427596 -9.364454740812052 #
edge $-1 $514 45.009869392977542 $736 52.50038148136845 $653 $742 forward 7 unknown #
point $-1 45.009869392977542 -30.172778525427596 9.364454740812052 #
edge $-1 $668 50.901678636343306 $671 59.311474877717188 $519 $743 forward 7 unknown #
vertex $-1 $533 $744 #
straight-curve $-1 -31.270918232309128 24.677297491071549 9.3644547408120502 0 1 0 I I #
edge $-1 $671 12.200721325987459 $530 25.93967248665588 $529 $745 forward 7 unknown #
vertex $-1 $670 $746 #
straight-curve $-1 -31.270918232309128 -16.724527046639466 38.931348532380611 0 -0.77714595512881146 0.62932039886446345 I I #
point $-1 -31.270918232309128 19.787545273440209 9.3644547408120467 #
point $-1 -45.009869392977549 30.172778525427603 0.9546584994381675 #
straight-curve $-1 0 30.172778525427599 9.364454740812052 -1 0 0 I I #
vertex $-1 $536 $747 #
point $-1 -39.584454775643714 21.657979379386973 1.057002956978776 #
vertex $-1 $540 $748 #
point $-1 -33.696332849642964 21.657979379386973 1.057002956978776 #
coedge $-1 $555 $554 $547 $681 forward $544 $-1 #
edge $-1 $682 50.901678636343306 $685 59.311474877717188 $680 $749 forward 7 unknown #
vertex $-1 $559 $750 #
straight-curve $-1 45.009869392977549 24.677297491071549 9.3644547408120502 0 1 0 I I #
edge $-1 $685 -25.93967248665588 $556 -12.200721325987459 $555 $751 forward 7 unknown #
vertex $-1 $684 $752 #
straight-curve $-1 45.009869392977549 -16.724527046639466 38.931348532380611 0 -0.77714595512881146 0.62932039886446345 I I #
point $-1 45.009869392977549 19.787545273440209 9.3644547408120467 #
point $-1 31.270918232309128 30.172778525427603 0.9546584994381675 #
straight-curve $-1 0 30.172778525427599 9.364454740812052 -1 0 0 I I #
vertex $-1 $562 $753 #
point $-1 36.696332849642957 21.657979379386973 1.057002956978776 #
vertex $-1 $566 $754 #
point $-1 42.584454775643721 21.657979379386973 1.057002956978776 #
coedge $-1 $572 $571 $579 $699 forward $257 $-1 #
edge $-1 $702 -45.009869392977549 $575 -31.270918232309128 $574 $755 forward 7 unknown #
straight-curve $-1 -31.270918232309128 -48.125950277105076 9.3644547408120502 0 1 0 I I #
point $-1 -31.270918232309128 -30.172778525427599 9.364454740812052 #
straight-curve $-1 -19.070196906321669 -19.787545273440212 9.364454740812052 -1 0 0 I I #
edge $-1 $580 -28.338405003664864 $702 -17.95317175167748 $694 $756 forward 7 unknown #
point $-1 -45.009869392977549 -19.787545273440212 9.364454740812052 #
point $-1 -31.270918232309128 -19.787545273440212 9.364454740812052 #
vertex $-1 $695 $757 #
straight-curve $-1 -45.009869392977549 -30.172778525427599 0 0 0 -1 I I #
vertex $-1 $587 $758 #
point $-1 -39.584454775643714 -21.657979379386969 1.0570029569787724 #
vertex $-1 $591 $759 #
point $-1 -33.696332849642964 -21.657979379386969 1.0570029569787724 #
edge $-1 $711 -25.93967248665588 $605 -12.200721325987459 $604 $760 forward 7 unknown #
coedge $-1 $710 $598 $715 $761 reversed $595 $-1 #
coedge $-1 $598 $709 $600 $713 reversed $595 $-1 #
vertex $-1 $761 $762 #
straight-curve $-1 45.009869392977542 -29.943743820012102 1.140127150744471 0 0.77714595512881146 0.62932039886446345 I I #
edge $-1 $601 0.95465849943817305 $717 9.364454740812052 $600 $763 forward 7 unknown #
point $-1 45.009869392977549 -30.172778525427599 0.95465849943817305 #
coedge $-1 $604 $603 $709 $761 forward $424 $-1 #
point $-1 31.270918232309128 -19.787545273440212 9.364454740812052 #
vertex $-1 $713 $764 #
straight-curve $-1 0 -30.172778525427599 9.364454740812052 1 0 0 I I #
vertex $-1 $611 $765 #
point $-1 36.696332849642957 -21.657979379386969 1.0570029569787724 #
vertex $-1 $615 $766 #
point $-1 42.584454775643721 -21.657979379386969 1.0570029569787724 #
straight-curve $-1 -52.50038148136845 30.172778525427599 0 0 0 -1 I I #
point $-1 -52.50038148136845 -30.172778525427599 -9.364454740812052 #
straight-curve $-1 -52.50038148136845 0 -9.364454740812052 0 1 0 I I #
point $-1 -52.50038148136845 30.172778525427599 -9.364454740812052 #
coedge $-1 $637 $636 $642 $730 reversed $320 $-1 #
vertex $-1 $649 $767 #
straight-curve $-1 0 -30.172778525427599 9.364454740812052 1 0 0 I I #
edge $-1 $728 -9.364454740812052 $731 9.364454740812052 $727 $768 forward 7 unknown #
vertex $-1 $647 $769 #
straight-curve $-1 0 -30.172778525427599 -9.364454740812052 -1 0 0 I I #
straight-curve $-1 -52.50038148136845 0 -9.364454740812052 0 1 0 I I #
straight-curve $-1 -52.50038148136845 0 9.364454740812052 0 -1 0 I I #
coedge $-1 $653 $652 $658 $738 reversed $336 $-1 #
vertex $-1 $654 $770 #
straight-curve $-1 52.50038148136845 0 9.364454740812052 0 1 0 I I #
edge $-1 $736 -9.364454740812052 $739 9.364454740812052 $658 $771 forward 7 unknown #
vertex $-1 $738 $772 #
straight-curve $-1 52.50038148136845 0 -9.364454740812052 0 -1 0 I I #
straight-curve $-1 0 -30.172778525427599 -9.364454740812052 -1 0 0 I I #
straight-curve $-1 0 -30.172778525427599 9.364454740812052 1 0 0 I I #
straight-curve $-1 -31.270918232309128 30.172778525427599 60.266133377155356 0 0 -1 I I #
point $-1 -31.270918232309128 30.172778525427599 9.364454740812052 #
straight-curve $-1 -19.070196906321669 30.172778525427596 0.9546584994381675 -1 0 0 I I #
point $-1 -31.270918232309128 30.172778525427603 0.9546584994381675 #
point $-1 -41.084454775643714 20.713998781090275 -0.10871597571444103 #
point $-1 -35.196332849642964 20.713998781090275 -0.10871597571444103 #
straight-curve $-1 45.009869392977549 30.172778525427599 60.266133377155356 0 0 -1 I I #
point $-1 45.009869392977549 30.172778525427599 9.364454740812052 #
straight-curve $-1 19.070196906321669 30.172778525427596 0.9546584994381675 -1 0 0 I I #
point $-1 45.009869392977549 30.172778525427603 0.9546584994381675 #
point $-1 35.196332849642957 20.713998781090275 -0.10871597571444103 #
point $-1 41.084454775643721 20.713998781090275 -0.10871597571444103 #
straight-curve $-1 0 -30.172778525427599 9.364454740812052 1 0 0 I I #
straight-curve $-1 -45.009869392977549 -48.125950277105076 9.3644547408120502 0 -1 0 I I #
point $-1 -45.009869392977549 -30.172778525427596 9.364454740812052 #
point $-1 -41.084454775643714 -20.713998781090272 -0.10871597571444458 #
point $-1 -35.196332849642964 -20.713998781090272 -0.10871597571444458 #
straight-curve $-1 19.070196906321669 -19.787545273440212 9.364454740812052 -1 0 0 I I #
edge $-1 $717 -15.852147136650039 $711 -5.4669138846626559 $715 $773 forward 7 unknown #
point $-1 45.009869392977549 -19.787545273440212 9.364454740812052 #
straight-curve $-1 45.009869392977542 -30.172778525427599 0 0 0 1 I I #
point $-1 45.009869392977542 -30.172778525427596 9.364454740812052 #
point $-1 35.196332849642957 -20.713998781090272 -0.10871597571444458 #
point $-1 41.084454775643721 -20.713998781090272 -0.10871597571444458 #
point $-1 -52.50038148136845 -30.172778525427599 9.364454740812052 #
straight-curve $-1 -52.50038148136845 -30.172778525427599 0 0 0 -1 I I #
point $-1 -52.50038148136845 -30.172778525427599 -9.364454740812052 #
point $-1 52.50038148136845 -30.172778525427599 9.364454740812052 #
straight-curve $-1 52.50038148136845 -30.172778525427599 0 0 0 -1 I I #
point $-1 52.50038148136845 -30.172778525427599 -9.364454740812052 #
straight-curve $-1 45.009869392977542 -14.320631388777556 9.364454740812052 0 1 0 I I #
End-of-ACIS-data 