500 0 7 0           
7 Unknown 11 ACIS 5.0 NT 24 Thu Mar 25 16:08:21 1999 
-1 9.9999999999999995e-007 1e-010 
body $-1 $7 $-1 $8 #
body $-1 $9 $-1 $10 #
body $-1 $11 $-1 $12 #
body $-1 $13 $-1 $14 #
body $-1 $15 $-1 $16 #
body $-1 $17 $-1 $18 #
body $-1 $19 $-1 $20 #
lump $-1 $-1 $21 $0 #
transform $-1 1 0 0 0 1 0 0 0 1 74.477370525223549 51.735258689316169 21.869423967938967 1 rotate no_reflect no_shear #
lump $-1 $-1 $22 $1 #
transform $-1 1 0 0 0 1 0 0 0 1 74.477370525223549 51.735258689316169 21.869423967938967 1 rotate no_reflect no_shear #
lump $-1 $-1 $23 $2 #
transform $-1 1 0 0 0 1 0 0 0 1 74.477370525223549 51.735258689316169 21.869423967938967 1 rotate no_reflect no_shear #
lump $-1 $-1 $24 $3 #
transform $-1 1 0 0 0 1 0 0 0 1 74.477370525223549 51.735258689316169 21.869423967938967 1 rotate no_reflect no_shear #
lump $-1 $-1 $25 $4 #
transform $-1 1 0 0 0 1 0 0 0 1 74.477370525223549 51.735258689316169 21.869423967938967 1 rotate no_reflect no_shear #
lump $-1 $-1 $26 $5 #
transform $-1 1 0 0 0 1 0 0 0 1 74.477370525223549 51.735258689316169 21.869423967938967 1 rotate no_reflect no_shear #
lump $-1 $-1 $27 $6 #
transform $-1 1 0 0 0 1 0 0 0 1 74.477370525223549 51.735258689316169 21.869423967938967 1 rotate no_reflect no_shear #
shell $-1 $-1 $-1 $28 $-1 $7 #
shell $-1 $-1 $-1 $29 $-1 $9 #
shell $-1 $-1 $-1 $30 $-1 $11 #
shell $-1 $-1 $-1 $31 $-1 $13 #
shell $-1 $-1 $-1 $32 $-1 $15 #
shell $-1 $-1 $-1 $33 $-1 $17 #
shell $-1 $-1 $-1 $34 $-1 $19 #
face $-1 $35 $36 $21 $-1 $37 forward single #
face $-1 $38 $39 $22 $-1 $40 reversed single #
face $-1 $41 $42 $23 $-1 $43 reversed single #
face $-1 $44 $45 $24 $-1 $46 forward single #
face $-1 $47 $48 $25 $-1 $49 reversed single #
face $-1 $50 $51 $26 $-1 $52 forward single #
face $-1 $53 $54 $27 $-1 $55 forward single #
face $-1 $56 $57 $21 $-1 $58 reversed single #
loop $-1 $-1 $59 $28 #
plane-surface $-1 0 0 21.869423967938967 0 0 1 1 0 0 forward_v I I I I #
face $-1 $60 $61 $22 $-1 $62 reversed single #
loop $-1 $-1 $63 $29 #
plane-surface $-1 -61.077841576302824 0 16.051504453533504 0 0 1 1 0 0 forward_v I I I I #
face $-1 $64 $65 $23 $-1 $66 reversed single #
loop $-1 $-1 $67 $30 #
plane-surface $-1 46.832807537452155 -135.02969390560014 124.22273037921279 -1 0 0 0 -0.55919291073839883 0.82903756765294845 forward_v I I I I #
face $-1 $68 $69 $24 $-1 $70 forward single #
loop $-1 $71 $72 $31 #
cone-surface $-1 31.420284783655347 -31.001600007931589 3.7906995706544588 0 0.55919291073839883 -0.82903756765294845 7 0 0 1 I I 0 1 7 forward I I I I #
face $-1 $73 $74 $25 $-1 $75 reversed single #
loop $-1 $-1 $76 $32 #
plane-surface $-1 -18.020383015344219 52.414104040951912 193.77245504995327 1 0 0 0 -0.57357644374324357 -0.81915203911291934 forward_v I I I I #
face $-1 $77 $78 $26 $-1 $79 forward single #
loop $-1 $80 $81 $33 #
cone-surface $-1 -8.5245040528532599 42.962957242347272 14.259554577990428 0 -0.57357644374324357 -0.81915203911291934 2 0 0 1 I I 0 1 2 forward I I I I #
face $-1 $82 $83 $27 $-1 $84 forward single #
loop $-1 $85 $86 $34 #
cone-surface $-1 5.7193143908831843 42.962957242347272 14.259554577990428 0 -0.57357644374324357 -0.81915203911291934 2 0 0 1 I I 0 1 2 forward I I I I #
face $-1 $87 $88 $21 $-1 $89 reversed single #
loop $-1 $-1 $90 $35 #
plane-surface $-1 0 0 -21.869423967938967 0 0 1 1 0 0 forward_v I I I I #
coedge $-1 $91 $92 $93 $94 forward $36 $-1 #
face $-1 $95 $96 $22 $-1 $97 reversed single #
loop $-1 $-1 $98 $38 #
plane-surface $-1 -47.678312627382098 0 18.960464210736237 -1 0 0 0 0 1 forward_v I I I I #
coedge $-1 $99 $100 $101 $102 forward $39 $-1 #
face $-1 $103 $104 $23 $-1 $105 reversed single #
loop $-1 $-1 $106 $41 #
plane-surface $-1 31.420284783655347 -51.735258689316169 0.73365416837533814 0 -0.55919291073839883 0.82903756765294845 1 0 0 forward_v I I I I #
coedge $-1 $107 $108 $109 $110 reversed $42 $-1 #
face $-1 $-1 $111 $24 $-1 $112 forward single #
loop $-1 $113 $114 $44 #
cone-surface $-1 31.420284783655347 -23.978299514846363 -6.6217714136335442 0 0.55919291073839883 -0.82903756765294845 3.5 0 0 1 I I -0.70710678118654757 0.70710678118654757 3.5 forward I I I I #
loop $-1 $-1 $115 $31 #
coedge $-1 $72 $72 $116 $117 reversed $45 $-1 #
face $-1 $118 $119 $25 $-1 $120 reversed single #
loop $-1 $-1 $121 $47 #
plane-surface $-1 -1.4025948309850378 -33.022826609459273 71.75587518294266 0 0.57357644374324357 0.81915203911291934 1 0 0 forward_v I I I I #
coedge $-1 $122 $123 $124 $125 reversed $48 $-1 #
face $-1 $-1 $126 $26 $-1 $127 forward single #
loop $-1 $128 $129 $50 #
cone-surface $-1 -8.5245040528532599 40.373504752143887 10.561433236581845 0 -0.57357644374324357 -0.81915203911291934 1 0 0 1 I I -0.70710678118654746 0.70710678118654746 1 forward I I I I #
loop $-1 $-1 $130 $33 #
coedge $-1 $81 $81 $131 $132 reversed $51 $-1 #
face $-1 $-1 $133 $27 $-1 $134 forward single #
loop $-1 $135 $136 $53 #
cone-surface $-1 5.7193143908831843 40.373504752143887 10.561433236581845 0 -0.57357644374324357 -0.81915203911291934 1 0 0 1 I I -0.70710678118654746 0.70710678118654746 1 forward I I I I #
loop $-1 $-1 $137 $34 #
coedge $-1 $86 $86 $138 $139 reversed $54 $-1 #
face $-1 $140 $141 $21 $-1 $142 reversed single #
loop $-1 $-1 $143 $56 #
plane-surface $-1 0 -51.735258689316169 0 0 1 0 0 0 1 forward_v I I I I #
coedge $-1 $144 $145 $146 $147 forward $57 $-1 #
coedge $-1 $148 $59 $149 $150 forward $36 $-1 #
coedge $-1 $59 $148 $151 $152 forward $36 $-1 #
coedge $-1 $153 $154 $59 $94 reversed $155 $-1 #
edge $-1 $156 -51.735258689316169 $157 51.735258689316169 $93 $158 forward 7 unknown #
face $-1 $159 $160 $22 $-1 $161 reversed single #
loop $-1 $-1 $162 $60 #
plane-surface $-1 0 51.735258689316169 0 0 -1 0 0 0 -1 forward_v I I I I #
coedge $-1 $101 $163 $164 $165 reversed $61 $-1 #
coedge $-1 $166 $63 $167 $168 reversed $39 $-1 #
coedge $-1 $63 $166 $169 $170 reversed $39 $-1 #
coedge $-1 $171 $98 $63 $102 reversed $61 $-1 #
edge $-1 $172 -51.735258689316169 $173 51.735258689316169 $101 $174 forward 7 unknown #
face $-1 $175 $176 $23 $-1 $177 reversed single #
loop $-1 $-1 $178 $64 #
plane-surface $-1 16.00776202985854 -135.02969390560014 124.22273037921279 1 0 0 0 0.55919291073839883 -0.82903756765294845 forward_v I I I I #
coedge $-1 $179 $180 $181 $182 reversed $65 $-1 #
coedge $-1 $108 $67 $183 $184 reversed $42 $-1 #
coedge $-1 $67 $107 $179 $185 reversed $42 $-1 #
coedge $-1 $181 $186 $67 $110 forward $187 $-1 #
edge $-1 $188 15.779588263483902 $189 47.114655015251373 $109 $190 forward 7 unknown #
loop $-1 $-1 $116 $68 #
plane-surface $-1 31.420284783655347 -51.735258689316169 0.73365416837533814 0 -0.55919291073839883 0.82903756765294845 1 0 0 forward_v I I I I #
loop $-1 $-1 $191 $44 #
coedge $-1 $114 $114 $115 $192 reversed $69 $-1 #
coedge $-1 $115 $115 $114 $192 forward $71 $-1 #
coedge $-1 $116 $116 $72 $117 forward $111 $-1 #
edge $-1 $193 -1.518024067228241e-016 $193 6.2831853071796004 $116 $194 forward 7 unknown #
face $-1 $195 $196 $25 $-1 $197 forward single #
loop $-1 $-1 $198 $73 #
plane-surface $-1 15.215193353374143 52.414104040951912 193.77245504995327 -1 0 0 0 0.57357644374324357 0.81915203911291934 forward_v I I I I #
coedge $-1 $199 $200 $201 $202 reversed $74 $-1 #
coedge $-1 $123 $76 $203 $204 reversed $48 $-1 #
coedge $-1 $76 $122 $199 $205 reversed $48 $-1 #
coedge $-1 $201 $206 $76 $125 forward $196 $-1 #
edge $-1 $207 -25.528206668840213 $208 -12.015355867822706 $124 $209 forward 7 unknown #
loop $-1 $-1 $131 $77 #
plane-surface $-1 -1.4025948309850378 -33.022826609459273 71.75587518294266 0 0.57357644374324357 0.81915203911291934 1 0 0 forward_v I I I I #
loop $-1 $-1 $210 $50 #
coedge $-1 $129 $129 $130 $211 reversed $78 $-1 #
coedge $-1 $130 $130 $129 $211 forward $80 $-1 #
coedge $-1 $131 $131 $81 $132 forward $126 $-1 #
edge $-1 $212 -8.7245977684942397e-016 $212 6.2831853071795996 $131 $213 forward 7 unknown #
loop $-1 $-1 $138 $82 #
plane-surface $-1 -1.4025948309850378 -33.022826609459273 71.75587518294266 0 0.57357644374324357 0.81915203911291934 1 0 0 forward_v I I I I #
loop $-1 $-1 $214 $53 #
coedge $-1 $136 $136 $137 $215 reversed $83 $-1 #
coedge $-1 $137 $137 $136 $215 forward $85 $-1 #
coedge $-1 $138 $138 $86 $139 forward $133 $-1 #
edge $-1 $216 -8.7245977684942397e-016 $216 6.2831853071795996 $138 $217 forward 7 unknown #
face $-1 $218 $219 $21 $-1 $220 reversed single #
loop $-1 $-1 $221 $87 #
plane-surface $-1 -74.477370525223549 0 0 1 0 0 0 0 -1 forward_v I I I I #
coedge $-1 $222 $151 $223 $224 forward $88 $-1 #
coedge $-1 $225 $90 $222 $226 forward $57 $-1 #
coedge $-1 $90 $225 $227 $228 forward $57 $-1 #
coedge $-1 $154 $153 $90 $147 reversed $155 $-1 #
edge $-1 $229 -51.735258689316169 $230 51.735258689316169 $146 $231 forward 7 unknown #
coedge $-1 $92 $91 $232 $233 forward $36 $-1 #
coedge $-1 $234 $235 $91 $150 reversed $219 $-1 #
edge $-1 $157 -74.477370525223549 $236 74.477370525223549 $149 $237 forward 7 unknown #
coedge $-1 $143 $238 $92 $152 reversed $88 $-1 #
edge $-1 $239 -74.477370525223549 $156 74.477370525223549 $151 $240 forward 7 unknown #
coedge $-1 $146 $93 $238 $241 forward $155 $-1 #
coedge $-1 $93 $146 $234 $242 reversed $155 $-1 #
loop $-1 $-1 $153 $218 #
vertex $-1 $94 $243 #
vertex $-1 $94 $244 #
straight-curve $-1 74.477370525223549 0 21.869423967938967 0 1 0 I I #
face $-1 $245 $246 $22 $-1 $247 forward single #
loop $-1 $-1 $248 $95 #
plane-surface $-1 -74.477370525223549 0 0 1 0 0 0 0 -1 forward_v I I I I #
coedge $-1 $169 $249 $171 $250 forward $96 $-1 #
coedge $-1 $98 $171 $251 $252 reversed $61 $-1 #
coedge $-1 $253 $167 $98 $165 forward $254 $-1 #
edge $-1 $173 6.571272348165385 $255 12.389191862570852 $164 $256 forward 7 unknown #
coedge $-1 $100 $99 $248 $257 reversed $39 $-1 #
coedge $-1 $164 $258 $99 $168 forward $254 $-1 #
edge $-1 $259 -43.938449737072133 $173 -17.139391839230687 $167 $260 forward 7 unknown #
coedge $-1 $261 $162 $100 $170 forward $96 $-1 #
edge $-1 $172 17.139391839230687 $262 43.938449737072133 $169 $263 forward 7 unknown #
coedge $-1 $163 $101 $162 $250 reversed $61 $-1 #
vertex $-1 $170 $264 #
vertex $-1 $168 $265 #
straight-curve $-1 -47.678312627382098 0 16.051504453533504 0 -1 0 I I #
face $-1 $-1 $187 $23 $-1 $266 forward single #
loop $-1 $-1 $267 $103 #
plane-surface $-1 0 -51.735258689316169 0 0 1 0 0 0 1 forward_v I I I I #
coedge $-1 $268 $269 $270 $271 reversed $104 $-1 #
coedge $-1 $272 $106 $108 $185 forward $65 $-1 #
coedge $-1 $106 $272 $268 $273 forward $65 $-1 #
coedge $-1 $270 $109 $106 $182 forward $187 $-1 #
edge $-1 $189 -31.122665145624481 $274 -0.29761963803086644 $181 $275 forward 7 unknown #
coedge $-1 $276 $277 $107 $184 forward $176 $-1 #
edge $-1 $278 -61.377711021231057 $188 -40.241941221667432 $183 $279 forward 7 unknown #
edge $-1 $189 -37.796920157042813 $278 0 $108 $280 forward 7 unknown #
coedge $-1 $109 $270 $276 $281 forward $187 $-1 #
loop $-1 $-1 $270 $175 #
vertex $-1 $184 $282 #
vertex $-1 $110 $283 #
straight-curve $-1 46.832807537452155 -67.51484695280007 21.869423967938971 0 1 0 I I #
coedge $-1 $191 $191 $-1 $284 reversed $113 $-1 #
edge $-1 $285 0 $285 6.2831853071796004 $114 $286 forward 7 unknown #
vertex $-1 $117 $287 #
ellipse-curve $-1 31.420284783655347 -36.067725313432426 11.301539068157155 0 -0.55919291073839883 0.82903756765294845 7 0 0 1 I I #
face $-1 $-1 $288 $25 $-1 $289 reversed single #
loop $-1 $-1 $124 $118 #
plane-surface $-1 0 0 21.869423967938967 0 0 1 1 0 0 forward_v I I I I #
coedge $-1 $290 $291 $292 $293 reversed $119 $-1 #
coedge $-1 $294 $121 $123 $205 forward $74 $-1 #
coedge $-1 $121 $294 $290 $295 forward $74 $-1 #
coedge $-1 $292 $124 $121 $202 forward $196 $-1 #
edge $-1 $208 -17.3190855998517 $296 15.916490768866662 $201 $297 forward 7 unknown #
coedge $-1 $298 $299 $122 $204 forward $288 $-1 #
edge $-1 $300 -84.478603732343387 $207 -75.016803557037662 $203 $301 forward 7 unknown #
edge $-1 $208 86.974372394789143 $300 103.47051737863234 $123 $302 forward 7 unknown #
coedge $-1 $124 $292 $298 $303 forward $196 $-1 #
vertex $-1 $204 $304 #
vertex $-1 $125 $305 #
straight-curve $-1 -18.020383015344219 26.207052020475956 21.869423967938971 0 -1 0 I I #
coedge $-1 $210 $210 $-1 $306 reversed $128 $-1 #
edge $-1 $307 0 $307 6.2831853071796004 $129 $308 forward 7 unknown #
vertex $-1 $132 $309 #
ellipse-curve $-1 -8.5245040528532599 44.978833288807415 17.138523880286098 0 0.57357644374324357 0.81915203911291934 2 0 0 1 I I #
coedge $-1 $214 $214 $-1 $310 reversed $135 $-1 #
edge $-1 $311 0 $311 6.2831853071796004 $136 $312 forward 7 unknown #
vertex $-1 $139 $313 #
ellipse-curve $-1 5.7193143908831843 44.978833288807415 17.138523880286098 0 0.57357644374324357 0.81915203911291934 2 0 0 1 I I #
face $-1 $-1 $155 $21 $-1 $314 reversed single #
loop $-1 $-1 $234 $140 #
plane-surface $-1 0 51.735258689316169 0 0 -1 0 0 0 -1 forward_v I I I I #
coedge $-1 $315 $232 $235 $316 forward $141 $-1 #
coedge $-1 $238 $143 $144 $226 reversed $88 $-1 #
coedge $-1 $232 $315 $143 $224 reversed $141 $-1 #
edge $-1 $239 -21.869423967938967 $317 21.869423967938967 $223 $318 forward 7 unknown #
coedge $-1 $145 $144 $315 $319 forward $57 $-1 #
edge $-1 $230 -74.477370525223549 $317 74.477370525223549 $222 $320 forward 7 unknown #
coedge $-1 $235 $234 $145 $228 reversed $219 $-1 #
edge $-1 $321 -74.477370525223549 $229 74.477370525223549 $227 $322 forward 7 unknown #
vertex $-1 $147 $323 #
vertex $-1 $241 $324 #
straight-curve $-1 74.477370525223549 0 -21.869423967938967 0 -1 0 I I #
coedge $-1 $221 $223 $148 $233 reversed $141 $-1 #
edge $-1 $236 -51.735258689316169 $239 51.735258689316169 $232 $325 forward 7 unknown #
coedge $-1 $227 $149 $154 $242 forward $219 $-1 #
coedge $-1 $149 $227 $221 $316 reversed $219 $-1 #
vertex $-1 $150 $326 #
straight-curve $-1 0 51.735258689316169 21.869423967938967 -1 0 0 I I #
coedge $-1 $151 $222 $153 $241 reversed $88 $-1 #
vertex $-1 $233 $327 #
straight-curve $-1 0 -51.735258689316169 21.869423967938967 1 0 0 I I #
edge $-1 $156 -21.869423967938967 $230 21.869423967938967 $153 $328 forward 7 unknown #
edge $-1 $157 -21.869423967938967 $229 21.869423967938967 $154 $329 forward 7 unknown #
point $-1 74.477370525223549 -51.735258689316169 21.869423967938967 #
point $-1 74.477370525223549 51.735258689316169 21.869423967938967 #
face $-1 $-1 $254 $22 $-1 $330 reversed single #
loop $-1 $-1 $251 $159 #
plane-surface $-1 0 0 21.869423967938967 0 0 1 1 0 0 forward_v I I I I #
coedge $-1 $331 $332 $166 $257 forward $160 $-1 #
coedge $-1 $162 $261 $333 $334 reversed $96 $-1 #
edge $-1 $335 -12.389191862570852 $172 -6.571272348165385 $162 $336 forward 7 unknown #
coedge $-1 $333 $337 $163 $252 forward $246 $-1 #
edge $-1 $255 -51.735258689316169 $335 51.735258689316169 $251 $338 forward 7 unknown #
coedge $-1 $258 $164 $337 $339 reversed $254 $-1 #
loop $-1 $-1 $164 $245 #
vertex $-1 $165 $340 #
straight-curve $-1 -47.678312627382098 -51.735258689316169 9.4802321053681187 0 0 1 I I #
edge $-1 $262 -51.735258689316169 $259 51.735258689316169 $248 $341 forward 7 unknown #
coedge $-1 $167 $253 $331 $342 forward $254 $-1 #
vertex $-1 $257 $343 #
straight-curve $-1 -30.538920788151412 -51.735258689316169 16.051504453533504 1 0 0 I I #
coedge $-1 $249 $169 $332 $344 reversed $96 $-1 #
vertex $-1 $257 $345 #
straight-curve $-1 -30.538920788151412 51.735258689316169 16.051504453533504 -1 0 0 I I #
point $-1 -47.678312627382098 51.735258689316169 16.051504453533504 #
point $-1 -47.678312627382098 -51.735258689316169 16.051504453533504 #
plane-surface $-1 0 0 21.869423967938967 0 0 1 1 0 0 forward_v I I I I #
coedge $-1 $277 $276 $269 $346 forward $176 $-1 #
coedge $-1 $269 $178 $180 $273 reversed $104 $-1 #
coedge $-1 $178 $268 $267 $346 reversed $104 $-1 #
coedge $-1 $186 $181 $178 $271 forward $187 $-1 #
edge $-1 $274 -47.114655015251373 $347 -15.779588263483902 $270 $348 forward 7 unknown #
coedge $-1 $180 $179 $277 $349 reversed $65 $-1 #
edge $-1 $350 0 $274 37.796920157042813 $268 $351 forward 7 unknown #
vertex $-1 $182 $352 #
straight-curve $-1 15.710142391827674 -20.400191937548694 21.869423967938967 -1 0 0 I I #
coedge $-1 $267 $183 $186 $281 reversed $176 $-1 #
coedge $-1 $183 $267 $272 $349 forward $176 $-1 #
vertex $-1 $184 $353 #
straight-curve $-1 46.832807537452155 -51.735258689316169 62.111365189606396 0 0 1 I I #
straight-curve $-1 46.832807537452155 -51.735258689316169 0.73365416837533814 0 -0.82903756765294845 -0.55919291073839883 I I #
edge $-1 $347 16.00776202985854 $188 46.832807537452155 $276 $354 forward 7 unknown #
point $-1 46.832807537452155 -51.735258689316169 21.869423967938967 #
point $-1 46.832807537452155 -20.400191937548698 21.869423967938967 #
edge $-1 $355 1 $355 0 $191 $-1 forward 7 unknown #
vertex $-1 $192 $356 #
ellipse-curve $-1 31.420284783655347 -25.93547470243076 -3.7201399268482245 0 -0.55919291073839883 0.82903756765294845 7 0 0 1 I I #
point $-1 38.420284783655347 -36.067725313432419 11.301539068157142 #
loop $-1 $-1 $203 $195 #
plane-surface $-1 0 51.735258689316169 0 0 -1 0 0 0 -1 forward_v I I I I #
coedge $-1 $291 $198 $200 $295 reversed $119 $-1 #
coedge $-1 $198 $290 $357 $358 reversed $119 $-1 #
coedge $-1 $206 $201 $198 $293 forward $196 $-1 #
edge $-1 $296 12.015355867822706 $359 25.528206668840213 $292 $360 forward 7 unknown #
coedge $-1 $200 $199 $299 $361 reversed $74 $-1 #
edge $-1 $362 -103.47051737863234 $296 -86.974372394789143 $290 $363 forward 7 unknown #
vertex $-1 $202 $364 #
straight-curve $-1 -0.70129741549251889 38.222407888298648 21.869423967938978 1 0 0 I I #
coedge $-1 $357 $203 $206 $303 reversed $288 $-1 #
coedge $-1 $203 $357 $294 $361 forward $288 $-1 #
vertex $-1 $204 $365 #
straight-curve $-1 -18.020383015344219 51.735258689316169 96.886227524976633 0 0 1 I I #
straight-curve $-1 -18.020383015344219 -33.022826609459273 71.75587518294266 0 0.81915203911291934 -0.57357644374324357 I I #
edge $-1 $359 -15.215193353374143 $207 18.020383015344219 $298 $366 forward 7 unknown #
point $-1 -18.020383015344219 51.735258689316169 21.869423967938967 #
point $-1 -18.020383015344219 38.222407888298662 21.869423967938971 #
edge $-1 $367 1 $367 0 $210 $-1 forward 7 unknown #
vertex $-1 $211 $368 #
ellipse-curve $-1 -8.5245040528532599 40.947081195887129 11.380585275694765 0 0.57357644374324357 0.81915203911291934 2 0 0 1 I I #
point $-1 -6.5245040528532599 44.978833288807408 17.13852388028609 #
edge $-1 $369 1 $369 0 $214 $-1 forward 7 unknown #
vertex $-1 $215 $370 #
ellipse-curve $-1 5.7193143908831843 40.947081195887129 11.380585275694765 0 0.57357644374324357 0.81915203911291934 2 0 0 1 I I #
point $-1 7.7193143908831843 44.978833288807408 17.13852388028609 #
plane-surface $-1 74.477370525223549 0 0 -1 0 0 0 0 1 forward_v I I I I #
coedge $-1 $223 $221 $225 $319 reversed $141 $-1 #
edge $-1 $236 -21.869423967938967 $321 21.869423967938967 $235 $371 forward 7 unknown #
vertex $-1 $319 $372 #
straight-curve $-1 -74.477370525223549 -51.735258689316169 0 0 0 -1 I I #
edge $-1 $317 -51.735258689316169 $321 51.735258689316169 $315 $373 forward 7 unknown #
straight-curve $-1 0 -51.735258689316169 -21.869423967938967 -1 0 0 I I #
vertex $-1 $228 $374 #
straight-curve $-1 0 51.735258689316169 -21.869423967938967 1 0 0 I I #
point $-1 74.477370525223549 51.735258689316169 -21.869423967938967 #
point $-1 74.477370525223549 -51.735258689316169 -21.869423967938967 #
straight-curve $-1 -74.477370525223549 0 21.869423967938967 0 -1 0 I I #
point $-1 -74.477370525223549 51.735258689316169 21.869423967938967 #
point $-1 -74.477370525223549 -51.735258689316169 21.869423967938967 #
straight-curve $-1 74.477370525223549 -51.735258689316169 0 0 0 -1 I I #
straight-curve $-1 74.477370525223549 51.735258689316169 0 0 0 -1 I I #
plane-surface $-1 0 -51.735258689316169 0 0 1 0 0 0 1 forward_v I I I I #
coedge $-1 $375 $248 $258 $342 reversed $160 $-1 #
coedge $-1 $248 $375 $261 $344 forward $160 $-1 #
coedge $-1 $376 $251 $249 $334 forward $246 $-1 #
edge $-1 $335 47.678312627382098 $377 74.477370525223549 $249 $378 forward 7 unknown #
vertex $-1 $334 $379 #
straight-curve $-1 -47.678312627382098 51.735258689316169 9.4802321053681187 0 0 -1 I I #
coedge $-1 $251 $376 $253 $339 forward $246 $-1 #
straight-curve $-1 -47.678312627382098 0 21.869423967938967 0 1 0 I I #
edge $-1 $380 -74.477370525223549 $255 -47.678312627382098 $253 $381 forward 7 unknown #
point $-1 -47.678312627382098 -51.735258689316169 21.869423967938971 #
straight-curve $-1 -74.477370525223549 0 16.051504453533504 0 -1 0 I I #
edge $-1 $380 -21.869423967938967 $259 -16.051504453533504 $331 $382 forward 7 unknown #
point $-1 -74.477370525223549 -51.735258689316169 16.051504453533504 #
edge $-1 $377 -21.869423967938967 $262 -16.051504453533504 $261 $383 forward 7 unknown #
point $-1 -74.477370525223549 51.735258689316169 16.051504453533504 #
edge $-1 $347 40.241941221667432 $350 61.377711021231057 $267 $384 forward 7 unknown #
vertex $-1 $281 $385 #
straight-curve $-1 16.00776202985854 -67.51484695280007 21.869423967938971 0 -1 0 I I #
edge $-1 $350 0.29761963803086644 $278 31.122665145624481 $277 $386 forward 7 unknown #
vertex $-1 $349 $387 #
straight-curve $-1 16.00776202985854 -51.735258689316169 0.73365416837533814 0 0.82903756765294845 0.55919291073839883 I I #
point $-1 16.00776202985854 -20.400191937548698 21.869423967938967 #
point $-1 46.832807537452155 -51.735258689316169 0.73365416837533814 #
straight-curve $-1 0 -51.735258689316169 21.869423967938967 1 0 0 I I #
vertex $-1 $284 $388 #
point $-1 38.420284783655347 -25.93547470243076 -3.7201399268482245 #
coedge $-1 $299 $298 $291 $358 forward $288 $-1 #
edge $-1 $359 75.016803557037662 $362 84.478603732343387 $357 $389 forward 7 unknown #
vertex $-1 $303 $390 #
straight-curve $-1 15.215193353374143 26.207052020475956 21.869423967938971 0 1 0 I I #
edge $-1 $362 -15.916490768866662 $300 17.3190855998517 $299 $391 forward 7 unknown #
vertex $-1 $361 $392 #
straight-curve $-1 15.215193353374143 -33.022826609459273 71.75587518294266 0 -0.81915203911291934 0.57357644374324357 I I #
point $-1 15.215193353374143 38.222407888298662 21.869423967938971 #
point $-1 -18.020383015344219 51.735258689316169 12.407623792633245 #
straight-curve $-1 0 51.735258689316169 21.869423967938967 -1 0 0 I I #
vertex $-1 $306 $393 #
point $-1 -6.5245040528532599 40.947081195887129 11.380585275694765 #
vertex $-1 $310 $394 #
point $-1 7.7193143908831843 40.947081195887129 11.380585275694765 #
straight-curve $-1 -74.477370525223549 51.735258689316169 0 0 0 -1 I I #
point $-1 -74.477370525223549 -51.735258689316169 -21.869423967938967 #
straight-curve $-1 -74.477370525223549 0 -21.869423967938967 0 1 0 I I #
point $-1 -74.477370525223549 51.735258689316169 -21.869423967938967 #
coedge $-1 $332 $331 $376 $395 reversed $160 $-1 #
coedge $-1 $337 $333 $375 $395 forward $246 $-1 #
vertex $-1 $334 $396 #
straight-curve $-1 0 51.735258689316169 21.869423967938967 -1 0 0 I I #
point $-1 -47.678312627382098 51.735258689316169 21.869423967938971 #
vertex $-1 $395 $397 #
straight-curve $-1 0 -51.735258689316169 21.869423967938967 1 0 0 I I #
straight-curve $-1 -74.477370525223549 -51.735258689316169 0 0 0 -1 I I #
straight-curve $-1 -74.477370525223549 51.735258689316169 0 0 0 -1 I I #
straight-curve $-1 16.00776202985854 -51.735258689316169 62.111365189606396 0 0 -1 I I #
point $-1 16.00776202985854 -51.735258689316169 21.869423967938967 #
straight-curve $-1 15.710142391827674 -51.735258689316169 0.73365416837534014 1 0 0 I I #
point $-1 16.00776202985854 -51.735258689316169 0.73365416837533814 #
point $-1 31.420284783655347 -22.021124327261965 -9.5234029004188638 #
straight-curve $-1 15.215193353374143 51.735258689316169 96.886227524976633 0 0 -1 I I #
point $-1 15.215193353374143 51.735258689316169 21.869423967938967 #
straight-curve $-1 -0.70129741549251889 51.735258689316176 12.407623792633231 -1 0 0 I I #
point $-1 15.215193353374143 51.735258689316169 12.407623792633245 #
point $-1 -8.5245040528532599 39.799928308400645 9.742281197468925 #
point $-1 5.7193143908831843 39.799928308400645 9.742281197468925 #
edge $-1 $377 -51.735258689316169 $380 51.735258689316169 $375 $398 forward 7 unknown #
point $-1 -74.477370525223549 51.735258689316169 21.869423967938967 #
point $-1 -74.477370525223549 -51.735258689316169 21.869423967938967 #
straight-curve $-1 -74.477370525223549 0 21.869423967938967 0 -1 0 I I #
End-of-ACIS-data 