500 0 12 0           
7 Unknown 11 ACIS 5.0 NT 24 Fri Mar 26 17:42:21 1999 
-1 9.9999999999999995e-007 1e-010 
body $-1 $12 $-1 $13 #
body $-1 $14 $-1 $15 #
body $-1 $16 $-1 $17 #
body $-1 $18 $-1 $19 #
body $-1 $20 $-1 $21 #
body $-1 $22 $-1 $23 #
body $-1 $24 $-1 $25 #
body $-1 $26 $-1 $27 #
body $-1 $28 $-1 $29 #
body $-1 $30 $-1 $31 #
body $-1 $32 $-1 $33 #
body $-1 $34 $-1 $35 #
lump $-1 $-1 $36 $0 #
transform $-1 1 0 0 0 1 0 0 0 1 43.784295175023651 23.308686523485292 8.0412016418586525 1 rotate no_reflect no_shear #
lump $-1 $-1 $37 $1 #
transform $-1 1 0 0 0 1 0 0 0 1 43.784295175023651 23.308686523485292 8.0412016418586525 1 rotate no_reflect no_shear #
lump $-1 $-1 $38 $2 #
transform $-1 1 0 0 0 1 0 0 0 1 43.784295175023651 23.308686523485292 8.0412016418586525 1 rotate no_reflect no_shear #
lump $-1 $-1 $39 $3 #
transform $-1 1 0 0 0 1 0 0 0 1 43.784295175023651 23.308686523485292 8.0412016418586525 1 rotate no_reflect no_shear #
lump $-1 $-1 $40 $4 #
transform $-1 1 0 0 0 1 0 0 0 1 43.784295175023651 23.308686523485292 8.0412016418586525 1 rotate no_reflect no_shear #
lump $-1 $-1 $41 $5 #
transform $-1 1 0 0 0 1 0 0 0 1 43.784295175023651 23.308686523485292 8.0412016418586525 1 rotate no_reflect no_shear #
lump $-1 $-1 $42 $6 #
transform $-1 1 0 0 0 1 0 0 0 1 43.784295175023651 23.308686523485292 8.0412016418586525 1 rotate no_reflect no_shear #
lump $-1 $-1 $43 $7 #
transform $-1 1 0 0 0 1 0 0 0 1 43.784295175023651 23.308686523485292 8.0412016418586525 1 rotate no_reflect no_shear #
lump $-1 $-1 $44 $8 #
transform $-1 1 0 0 0 1 0 0 0 1 43.784295175023651 23.308686523485292 8.0412016418586525 1 rotate no_reflect no_shear #
lump $-1 $-1 $45 $9 #
transform $-1 1 0 0 0 1 0 0 0 1 43.784295175023651 23.308686523485292 8.0412016418586525 1 rotate no_reflect no_shear #
lump $-1 $-1 $46 $10 #
transform $-1 1 0 0 0 1 0 0 0 1 43.784295175023651 23.308686523485292 8.0412016418586525 1 rotate no_reflect no_shear #
lump $-1 $-1 $47 $11 #
transform $-1 1 0 0 0 1 0 0 0 1 43.784295175023651 23.308686523485292 8.0412016418586525 1 rotate no_reflect no_shear #
shell $-1 $-1 $-1 $48 $-1 $12 #
shell $-1 $-1 $-1 $49 $-1 $14 #
shell $-1 $-1 $-1 $50 $-1 $16 #
shell $-1 $-1 $-1 $51 $-1 $18 #
shell $-1 $-1 $-1 $52 $-1 $20 #
shell $-1 $-1 $-1 $53 $-1 $22 #
shell $-1 $-1 $-1 $54 $-1 $24 #
shell $-1 $-1 $-1 $55 $-1 $26 #
shell $-1 $-1 $-1 $56 $-1 $28 #
shell $-1 $-1 $-1 $57 $-1 $30 #
shell $-1 $-1 $-1 $58 $-1 $32 #
shell $-1 $-1 $-1 $59 $-1 $34 #
face $-1 $60 $61 $36 $-1 $62 forward single #
face $-1 $63 $64 $37 $-1 $65 reversed single #
face $-1 $66 $67 $38 $-1 $68 forward single #
face $-1 $69 $70 $39 $-1 $71 forward single #
face $-1 $72 $73 $40 $-1 $74 reversed single #
face $-1 $75 $76 $41 $-1 $77 forward single #
face $-1 $78 $79 $42 $-1 $80 reversed single #
face $-1 $81 $82 $43 $-1 $83 forward single #
face $-1 $84 $85 $44 $-1 $86 reversed single #
face $-1 $87 $88 $45 $-1 $89 forward single #
face $-1 $90 $91 $46 $-1 $92 reversed single #
face $-1 $93 $94 $47 $-1 $95 forward single #
face $-1 $96 $97 $36 $-1 $98 reversed single #
loop $-1 $-1 $99 $48 #
plane-surface $-1 0 0 8.0412016418586525 0 0 1 1 0 0 forward_v I I I I #
face $-1 $100 $101 $37 $-1 $102 reversed single #
loop $-1 $-1 $103 $49 #
plane-surface $-1 -112.78928677187025 6.7115081034698694 58.941346397013675 0 1 0 -0.78801076186113728 0 0.61566146476048833 forward_v I I I I #
face $-1 $104 $105 $38 $-1 $106 forward single #
loop $-1 $107 $108 $50 #
cone-surface $-1 -42.213493255975472 9.7063855064664821 6.2271399860952705 0.78801076186113728 0 -0.61566146476048833 0.30783073238024417 0 0.39400538093056864 1 I I 0 1 0.5 forward I I I I #
face $-1 $109 $110 $39 $-1 $111 forward single #
loop $-1 $112 $113 $51 #
cone-surface $-1 -42.213493255975472 14.1987016109614 6.2271399860952705 0.78801076186113728 0 -0.61566146476048833 0.30783073238024417 0 0.39400538093056864 1 I I 0 1 0.5 forward I I I I #
face $-1 $114 $115 $40 $-1 $116 reversed single #
loop $-1 $-1 $117 $52 #
plane-surface $-1 71.642390340744697 -11.654343261742646 121.92561310440847 0 -1 0 -0.84804810408105047 0 -0.52991925155115449 forward_v I I I I #
face $-1 $118 $119 $41 $-1 $120 forward single #
loop $-1 $121 $122 $53 #
cone-surface $-1 41.241261919039161 -15.074176978378926 4.385118306810746 -0.84804810408105047 0 -0.52991925155115449 0.26495962577557725 0 -0.42402405204052523 1 I I 0 1 0.5 forward I I I I #
face $-1 $123 $124 $42 $-1 $125 reversed single #
loop $-1 $-1 $126 $54 #
plane-surface $-1 71.642390340744697 0 121.92561310440847 0 -1 0 -0.84804810408105047 0 -0.52991925155115449 forward_v I I I I #
face $-1 $127 $128 $43 $-1 $129 forward single #
loop $-1 $130 $131 $55 #
cone-surface $-1 41.241261919039161 -3.4198337166362798 4.385118306810746 -0.84804810408105047 0 -0.52991925155115449 0.26495962577557725 0 -0.42402405204052523 1 I I 0 1 0.5 forward I I I I #
face $-1 $132 $133 $44 $-1 $134 reversed single #
loop $-1 $-1 $135 $56 #
plane-surface $-1 71.642390340744697 11.654343261742646 121.92561310440847 0 -1 0 -0.84804810408105047 0 -0.52991925155115449 forward_v I I I I #
face $-1 $136 $137 $45 $-1 $138 forward single #
loop $-1 $139 $140 $57 #
cone-surface $-1 41.241261919039161 8.2345095451063663 4.385118306810746 -0.84804810408105047 0 -0.52991925155115449 0.26495962577557725 0 -0.42402405204052523 1 I I 0 1 0.5 forward I I I I #
face $-1 $141 $142 $46 $-1 $143 reversed single #
loop $-1 $-1 $144 $58 #
plane-surface $-1 71.642390340744697 16.469019090212736 121.92561310440847 0 1 0 0.84804810408105047 0 0.52991925155115449 forward_v I I I I #
face $-1 $145 $146 $47 $-1 $147 forward single #
loop $-1 $148 $149 $59 #
cone-surface $-1 41.241261919039161 19.888852806849016 4.385118306810746 -0.84804810408105047 0 -0.52991925155115449 0.26495962577557725 0 -0.42402405204052523 1 I I 0 1 0.5 forward I I I I #
face $-1 $150 $151 $36 $-1 $152 reversed single #
loop $-1 $-1 $153 $60 #
plane-surface $-1 0 0 -8.0412016418586525 0 0 1 1 0 0 forward_v I I I I #
coedge $-1 $154 $155 $156 $157 forward $61 $-1 #
face $-1 $158 $159 $37 $-1 $160 reversed single #
loop $-1 $-1 $161 $63 #
plane-surface $-1 -43.784295175023644 11.952543558713941 5.0287397950923918 -0.78801076186113728 0 0.61566146476048833 0.61566146476048833 0 0.78801076186113728 forward_v I I I I #
coedge $-1 $162 $163 $164 $165 reversed $64 $-1 #
face $-1 $-1 $166 $38 $-1 $167 forward single #
loop $-1 $168 $169 $66 #
cone-surface $-1 -41.622485184579617 9.7063855064664821 5.7653938875249047 0.78801076186113728 0 -0.61566146476048833 0.15391536619012208 0 0.19700269046528432 1 I I -0.70710678118654746 0.70710678118654746 0.25 forward I I I I #
loop $-1 $-1 $170 $50 #
coedge $-1 $108 $108 $171 $172 reversed $67 $-1 #
face $-1 $-1 $173 $39 $-1 $174 forward single #
loop $-1 $175 $176 $69 #
cone-surface $-1 -41.622485184579617 14.1987016109614 5.7653938875249047 0.78801076186113728 0 -0.61566146476048833 0.15391536619012208 0 0.19700269046528432 1 I I -0.70710678118654746 0.70710678118654746 0.25 forward I I I I #
loop $-1 $-1 $177 $51 #
coedge $-1 $113 $113 $178 $179 reversed $70 $-1 #
face $-1 $180 $181 $40 $-1 $182 reversed single #
loop $-1 $-1 $183 $72 #
plane-surface $-1 -2.6199866826630824 -15.074176978378926 75.521331246721758 0.84804810408105047 0 0.52991925155115449 0.52991925155115449 0 -0.84804810408105047 forward_v I I I I #
coedge $-1 $184 $185 $186 $187 reversed $73 $-1 #
face $-1 $-1 $188 $41 $-1 $189 forward single #
loop $-1 $190 $191 $75 #
cone-surface $-1 40.60522584097837 -15.074176978378926 3.9876788681473805 -0.84804810408105047 0 -0.52991925155115449 0.13247981288778862 0 -0.21201202602026262 1 I I -0.70710678118654746 0.70710678118654746 0.25 forward I I I I #
loop $-1 $-1 $192 $53 #
coedge $-1 $122 $122 $193 $194 reversed $76 $-1 #
face $-1 $195 $196 $42 $-1 $197 reversed single #
loop $-1 $-1 $198 $78 #
plane-surface $-1 -2.6199866826630824 -3.4198337166362798 75.521331246721758 0.84804810408105047 0 0.52991925155115449 0.52991925155115449 0 -0.84804810408105047 forward_v I I I I #
coedge $-1 $199 $200 $201 $202 reversed $79 $-1 #
face $-1 $-1 $203 $43 $-1 $204 forward single #
loop $-1 $205 $206 $81 #
cone-surface $-1 40.60522584097837 -3.4198337166362798 3.9876788681473805 -0.84804810408105047 0 -0.52991925155115449 0.13247981288778862 0 -0.21201202602026262 1 I I -0.70710678118654746 0.70710678118654746 0.25 forward I I I I #
loop $-1 $-1 $207 $55 #
coedge $-1 $131 $131 $208 $209 reversed $82 $-1 #
face $-1 $210 $211 $44 $-1 $212 reversed single #
loop $-1 $-1 $213 $84 #
plane-surface $-1 -2.6199866826630824 8.2345095451063663 75.521331246721758 0.84804810408105047 0 0.52991925155115449 0.52991925155115449 0 -0.84804810408105047 forward_v I I I I #
coedge $-1 $214 $215 $216 $217 reversed $85 $-1 #
face $-1 $-1 $218 $45 $-1 $219 forward single #
loop $-1 $220 $221 $87 #
cone-surface $-1 40.60522584097837 8.2345095451063663 3.9876788681473805 -0.84804810408105047 0 -0.52991925155115449 0.13247981288778862 0 -0.21201202602026262 1 I I -0.70710678118654746 0.70710678118654746 0.25 forward I I I I #
loop $-1 $-1 $222 $57 #
coedge $-1 $140 $140 $223 $224 reversed $88 $-1 #
face $-1 $225 $226 $46 $-1 $227 reversed single #
loop $-1 $-1 $228 $90 #
plane-surface $-1 -2.6199866826630824 19.888852806849016 75.521331246721758 0.84804810408105047 0 0.52991925155115449 0.52991925155115449 0 -0.84804810408105047 forward_v I I I I #
coedge $-1 $229 $230 $231 $232 reversed $91 $-1 #
face $-1 $-1 $233 $47 $-1 $234 forward single #
loop $-1 $235 $236 $93 #
cone-surface $-1 40.60522584097837 19.888852806849016 3.9876788681473805 -0.84804810408105047 0 -0.52991925155115449 0.13247981288778862 0 -0.21201202602026262 1 I I -0.70710678118654746 0.70710678118654746 0.25 forward I I I I #
loop $-1 $-1 $237 $59 #
coedge $-1 $149 $149 $238 $239 reversed $94 $-1 #
face $-1 $240 $241 $36 $-1 $242 reversed single #
loop $-1 $-1 $243 $96 #
plane-surface $-1 0 -23.308686523485292 0 0 1 0 0 0 1 forward_v I I I I #
coedge $-1 $244 $245 $246 $247 forward $97 $-1 #
coedge $-1 $248 $99 $249 $250 forward $61 $-1 #
coedge $-1 $99 $248 $251 $252 forward $61 $-1 #
coedge $-1 $253 $254 $99 $157 reversed $255 $-1 #
edge $-1 $256 -23.308686523485292 $257 23.308686523485292 $156 $258 forward 7 unknown #
face $-1 $259 $260 $37 $-1 $261 reversed single #
loop $-1 $-1 $262 $100 #
plane-surface $-1 -112.78928677187025 17.193579013958015 58.941346397013675 0 -1 0 0.78801076186113728 0 -0.61566146476048833 forward_v I I I I #
coedge $-1 $263 $264 $265 $266 reversed $101 $-1 #
coedge $-1 $163 $103 $267 $268 reversed $64 $-1 #
coedge $-1 $103 $162 $263 $269 reversed $64 $-1 #
coedge $-1 $265 $270 $103 $165 forward $271 $-1 #
edge $-1 $272 12.610348210911475 $273 14.963941287146689 $164 $274 forward 7 unknown #
loop $-1 $-1 $171 $104 #
plane-surface $-1 -43.784295175023644 11.952543558713941 5.0287397950923918 -0.78801076186113728 0 0.61566146476048833 0.61566146476048833 0 0.78801076186113728 forward_v I I I I #
loop $-1 $-1 $275 $66 #
coedge $-1 $169 $169 $170 $276 reversed $105 $-1 #
coedge $-1 $170 $170 $169 $276 forward $107 $-1 #
coedge $-1 $171 $171 $108 $172 forward $166 $-1 #
edge $-1 $277 0 $277 6.2831853071796004 $171 $278 forward 7 unknown #
loop $-1 $-1 $178 $109 #
plane-surface $-1 -43.784295175023644 11.952543558713941 5.0287397950923918 -0.78801076186113728 0 0.61566146476048833 0.61566146476048833 0 0.78801076186113728 forward_v I I I I #
loop $-1 $-1 $279 $69 #
coedge $-1 $176 $176 $177 $280 reversed $110 $-1 #
coedge $-1 $177 $177 $176 $280 forward $112 $-1 #
coedge $-1 $178 $178 $113 $179 forward $173 $-1 #
edge $-1 $281 0 $281 6.2831853071796004 $178 $282 forward 7 unknown #
face $-1 $283 $284 $40 $-1 $285 forward single #
loop $-1 $-1 $286 $114 #
plane-surface $-1 71.642390340744697 -18.494010695015206 121.92561310440847 0 1 0 0.84804810408105047 0 0.52991925155115449 forward_v I I I I #
coedge $-1 $287 $288 $289 $290 reversed $115 $-1 #
coedge $-1 $185 $117 $291 $292 reversed $73 $-1 #
coedge $-1 $117 $184 $287 $293 reversed $73 $-1 #
coedge $-1 $289 $294 $117 $187 forward $284 $-1 #
edge $-1 $295 -7.9631000046513023 $296 -3.7250815967633599 $186 $297 forward 7 unknown #
loop $-1 $-1 $193 $118 #
plane-surface $-1 -2.6199866826630824 -15.074176978378926 75.521331246721758 0.84804810408105047 0 0.52991925155115449 0.52991925155115449 0 -0.84804810408105047 forward_v I I I I #
loop $-1 $-1 $298 $75 #
coedge $-1 $191 $191 $192 $299 reversed $119 $-1 #
coedge $-1 $192 $192 $191 $299 forward $121 $-1 #
coedge $-1 $193 $193 $122 $194 forward $188 $-1 #
edge $-1 $300 0 $300 6.2831853071796004 $193 $301 forward 7 unknown #
face $-1 $302 $303 $42 $-1 $304 reversed single #
loop $-1 $-1 $305 $123 #
plane-surface $-1 71.642390340744697 -6.8396674332725595 121.92561310440847 0 1 0 0.84804810408105047 0 0.52991925155115449 forward_v I I I I #
coedge $-1 $306 $307 $308 $309 reversed $124 $-1 #
coedge $-1 $200 $126 $310 $311 reversed $79 $-1 #
coedge $-1 $126 $199 $306 $312 reversed $79 $-1 #
coedge $-1 $308 $313 $126 $202 forward $314 $-1 #
edge $-1 $315 -7.9631000046513023 $316 -3.7250815967633599 $201 $317 forward 7 unknown #
loop $-1 $-1 $208 $127 #
plane-surface $-1 -2.6199866826630824 -3.4198337166362798 75.521331246721758 0.84804810408105047 0 0.52991925155115449 0.52991925155115449 0 -0.84804810408105047 forward_v I I I I #
loop $-1 $-1 $318 $81 #
coedge $-1 $206 $206 $207 $319 reversed $128 $-1 #
coedge $-1 $207 $207 $206 $319 forward $130 $-1 #
coedge $-1 $208 $208 $131 $209 forward $203 $-1 #
edge $-1 $320 0 $320 6.2831853071796004 $208 $321 forward 7 unknown #
face $-1 $322 $323 $44 $-1 $324 reversed single #
loop $-1 $-1 $325 $132 #
plane-surface $-1 71.642390340744697 4.8146758284700866 121.92561310440847 0 1 0 0.84804810408105047 0 0.52991925155115449 forward_v I I I I #
coedge $-1 $326 $327 $328 $329 reversed $133 $-1 #
coedge $-1 $215 $135 $330 $331 reversed $85 $-1 #
coedge $-1 $135 $214 $326 $332 reversed $85 $-1 #
coedge $-1 $328 $333 $135 $217 forward $334 $-1 #
edge $-1 $335 -7.9631000046513023 $336 -3.7250815967633599 $216 $337 forward 7 unknown #
loop $-1 $-1 $223 $136 #
plane-surface $-1 -2.6199866826630824 8.2345095451063663 75.521331246721758 0.84804810408105047 0 0.52991925155115449 0.52991925155115449 0 -0.84804810408105047 forward_v I I I I #
loop $-1 $-1 $338 $87 #
coedge $-1 $221 $221 $222 $339 reversed $137 $-1 #
coedge $-1 $222 $222 $221 $339 forward $139 $-1 #
coedge $-1 $223 $223 $140 $224 forward $218 $-1 #
edge $-1 $340 0 $340 6.2831853071796004 $223 $341 forward 7 unknown #
face $-1 $342 $343 $46 $-1 $344 reversed single #
loop $-1 $-1 $231 $141 #
plane-surface $-1 43.784295175023651 0 0 -1 0 0 0 0 1 forward_v I I I I #
coedge $-1 $345 $346 $347 $348 reversed $142 $-1 #
coedge $-1 $230 $144 $349 $350 reversed $91 $-1 #
coedge $-1 $144 $229 $345 $351 reversed $91 $-1 #
coedge $-1 $347 $352 $144 $232 forward $226 $-1 #
edge $-1 $353 52.921604910345579 $354 59.703852328890285 $231 $355 forward 7 unknown #
loop $-1 $-1 $238 $145 #
plane-surface $-1 -2.6199866826630824 19.888852806849016 75.521331246721758 0.84804810408105047 0 0.52991925155115449 0.52991925155115449 0 -0.84804810408105047 forward_v I I I I #
loop $-1 $-1 $356 $93 #
coedge $-1 $236 $236 $237 $357 reversed $146 $-1 #
coedge $-1 $237 $237 $236 $357 forward $148 $-1 #
coedge $-1 $238 $238 $149 $239 forward $233 $-1 #
edge $-1 $358 0 $358 6.2831853071796004 $238 $359 forward 7 unknown #
face $-1 $360 $361 $36 $-1 $362 reversed single #
loop $-1 $-1 $363 $150 #
plane-surface $-1 -43.784295175023651 0 0 1 0 0 0 0 -1 forward_v I I I I #
coedge $-1 $364 $251 $365 $366 forward $151 $-1 #
coedge $-1 $367 $153 $364 $368 forward $97 $-1 #
coedge $-1 $153 $367 $369 $370 forward $97 $-1 #
coedge $-1 $254 $253 $153 $247 reversed $255 $-1 #
edge $-1 $371 -23.308686523485292 $372 23.308686523485292 $246 $373 forward 7 unknown #
coedge $-1 $155 $154 $374 $375 forward $61 $-1 #
coedge $-1 $376 $377 $154 $250 reversed $361 $-1 #
edge $-1 $257 -43.784295175023651 $378 43.784295175023651 $249 $379 forward 7 unknown #
coedge $-1 $243 $380 $155 $252 reversed $151 $-1 #
edge $-1 $381 -43.784295175023651 $256 43.784295175023651 $251 $382 forward 7 unknown #
coedge $-1 $246 $156 $380 $383 forward $255 $-1 #
coedge $-1 $156 $246 $376 $384 reversed $255 $-1 #
loop $-1 $-1 $253 $360 #
vertex $-1 $157 $385 #
vertex $-1 $157 $386 #
straight-curve $-1 43.784295175023651 0 8.0412016418586525 0 1 0 I I #
face $-1 $-1 $271 $37 $-1 $387 forward single #
loop $-1 $-1 $388 $158 #
plane-surface $-1 -43.784295175023651 0 0 1 0 0 0 0 -1 forward_v I I I I #
coedge $-1 $389 $390 $391 $392 reversed $159 $-1 #
coedge $-1 $393 $161 $163 $269 forward $101 $-1 #
coedge $-1 $161 $393 $389 $394 forward $101 $-1 #
coedge $-1 $391 $164 $161 $266 forward $271 $-1 #
edge $-1 $273 0.73523632411289874 $395 11.217307234601044 $265 $396 forward 7 unknown #
coedge $-1 $397 $398 $162 $268 forward $260 $-1 #
edge $-1 $399 -24.441933403414453 $272 -21.429471556648185 $267 $400 forward 7 unknown #
edge $-1 $273 -3.8228689157130007 $399 1.1373479346495045e-014 $163 $401 forward 7 unknown #
coedge $-1 $164 $391 $397 $402 forward $271 $-1 #
loop $-1 $-1 $391 $259 #
vertex $-1 $268 $403 #
vertex $-1 $165 $404 #
straight-curve $-1 -56.394643385935126 6.7115081034698694 8.0412016418586525 1 0 0 I I #
coedge $-1 $275 $275 $-1 $405 reversed $168 $-1 #
edge $-1 $406 0 $406 6.2831853071796004 $169 $407 forward 7 unknown #
vertex $-1 $172 $408 #
ellipse-curve $-1 -42.607498636906044 9.7063855064664821 6.5349707184755177 -0.78801076186113728 0 0.61566146476048833 0.30783073238024417 0 0.39400538093056864 1 I I #
coedge $-1 $279 $279 $-1 $409 reversed $175 $-1 #
edge $-1 $410 0 $410 6.2831853071796004 $176 $411 forward 7 unknown #
vertex $-1 $179 $412 #
ellipse-curve $-1 -42.607498636906044 14.1987016109614 6.5349707184755177 -0.78801076186113728 0 0.61566146476048833 0.30783073238024417 0 0.39400538093056864 1 I I #
face $-1 $-1 $413 $40 $-1 $414 reversed single #
loop $-1 $-1 $186 $180 #
plane-surface $-1 0 0 8.0412016418586525 0 0 1 1 0 0 forward_v I I I I #
coedge $-1 $415 $416 $417 $418 reversed $181 $-1 #
coedge $-1 $419 $183 $185 $293 forward $115 $-1 #
coedge $-1 $183 $419 $415 $420 forward $115 $-1 #
coedge $-1 $417 $186 $183 $290 forward $284 $-1 #
edge $-1 $296 4.1172547725531832 $421 10.956922205825743 $289 $422 forward 7 unknown #
coedge $-1 $423 $424 $184 $292 forward $413 $-1 #
edge $-1 $425 -59.703852328890285 $295 -52.921604910345579 $291 $426 forward 7 unknown #
edge $-1 $296 79.571110742573907 $425 87.568590350047316 $185 $427 forward 7 unknown #
coedge $-1 $186 $417 $423 $428 forward $284 $-1 #
vertex $-1 $292 $429 #
vertex $-1 $187 $430 #
straight-curve $-1 35.821195170372349 -11.654343261742646 8.0412016418586489 -1 0 0 I I #
coedge $-1 $298 $298 $-1 $431 reversed $190 $-1 #
edge $-1 $432 0 $432 6.2831853071796004 $191 $433 forward 7 unknown #
vertex $-1 $194 $434 #
ellipse-curve $-1 41.665285971079669 -15.074176978378926 4.6500779325863117 0.84804810408105047 0 0.52991925155115449 0.26495962577557725 0 -0.42402405204052523 1 I I #
face $-1 $-1 $314 $42 $-1 $435 forward single #
loop $-1 $-1 $436 $195 #
plane-surface $-1 43.784295175023651 0 0 -1 0 0 0 0 1 forward_v I I I I #
coedge $-1 $437 $438 $439 $440 reversed $196 $-1 #
coedge $-1 $441 $198 $200 $312 forward $124 $-1 #
coedge $-1 $198 $441 $437 $442 forward $124 $-1 #
coedge $-1 $439 $201 $198 $309 forward $314 $-1 #
edge $-1 $316 -1.7099168583181399 $443 5.1297505749544197 $308 $444 forward 7 unknown #
coedge $-1 $445 $446 $199 $311 forward $303 $-1 #
edge $-1 $447 -59.703852328890285 $315 -52.921604910345579 $310 $448 forward 7 unknown #
edge $-1 $316 79.571110742573907 $447 87.568590350047316 $200 $449 forward 7 unknown #
coedge $-1 $201 $439 $445 $450 forward $314 $-1 #
loop $-1 $-1 $439 $302 #
vertex $-1 $311 $451 #
vertex $-1 $202 $452 #
straight-curve $-1 35.821195170372349 0 8.0412016418586489 -1 0 0 I I #
coedge $-1 $318 $318 $-1 $453 reversed $205 $-1 #
edge $-1 $454 0 $454 6.2831853071796004 $206 $455 forward 7 unknown #
vertex $-1 $209 $456 #
ellipse-curve $-1 41.665285971079669 -3.4198337166362798 4.6500779325863117 0.84804810408105047 0 0.52991925155115449 0.26495962577557725 0 -0.42402405204052523 1 I I #
face $-1 $-1 $334 $44 $-1 $457 forward single #
loop $-1 $-1 $458 $210 #
plane-surface $-1 43.784295175023651 0 0 -1 0 0 0 0 1 forward_v I I I I #
coedge $-1 $459 $460 $461 $462 reversed $211 $-1 #
coedge $-1 $463 $213 $215 $332 forward $133 $-1 #
coedge $-1 $213 $463 $459 $464 forward $133 $-1 #
coedge $-1 $461 $216 $213 $329 forward $334 $-1 #
edge $-1 $336 -7.5370884891894629 $465 -0.6974210559169034 $328 $466 forward 7 unknown #
coedge $-1 $467 $468 $214 $331 forward $323 $-1 #
edge $-1 $469 -59.703852328890285 $335 -52.921604910345579 $330 $470 forward 7 unknown #
edge $-1 $336 79.571110742573907 $469 87.568590350047316 $215 $471 forward 7 unknown #
coedge $-1 $216 $461 $467 $472 forward $334 $-1 #
loop $-1 $-1 $461 $322 #
vertex $-1 $331 $473 #
vertex $-1 $217 $474 #
straight-curve $-1 35.821195170372349 11.654343261742646 8.0412016418586489 -1 0 0 I I #
coedge $-1 $338 $338 $-1 $475 reversed $220 $-1 #
edge $-1 $476 0 $476 6.2831853071796004 $221 $477 forward 7 unknown #
vertex $-1 $224 $478 #
ellipse-curve $-1 41.665285971079669 8.2345095451063663 4.6500779325863117 0.84804810408105047 0 0.52991925155115449 0.26495962577557725 0 -0.42402405204052523 1 I I #
face $-1 $-1 $479 $46 $-1 $480 forward single #
loop $-1 $-1 $481 $225 #
plane-surface $-1 0 23.308686523485292 0 0 -1 0 0 0 -1 forward_v I I I I #
coedge $-1 $482 $228 $230 $351 forward $142 $-1 #
coedge $-1 $228 $482 $481 $483 reversed $142 $-1 #
coedge $-1 $484 $231 $228 $348 forward $226 $-1 #
edge $-1 $354 6.5245926867882282 $485 13.364260120060784 $347 $486 forward 7 unknown #
coedge $-1 $487 $488 $229 $350 forward $479 $-1 #
edge $-1 $489 3.7250815967633599 $353 7.9631000046513023 $349 $490 forward 7 unknown #
edge $-1 $354 -87.568590350047316 $489 -79.571110742573907 $230 $491 forward 7 unknown #
coedge $-1 $231 $484 $487 $492 reversed $226 $-1 #
vertex $-1 $492 $493 #
vertex $-1 $232 $494 #
straight-curve $-1 43.784295175023651 16.469019090212736 60.962806552204235 0 0 -1 I I #
coedge $-1 $356 $356 $-1 $495 reversed $235 $-1 #
edge $-1 $496 0 $496 6.2831853071796004 $236 $497 forward 7 unknown #
vertex $-1 $239 $498 #
ellipse-curve $-1 41.665285971079669 19.888852806849016 4.6500779325863117 0.84804810408105047 0 0.52991925155115449 0.26495962577557725 0 -0.42402405204052523 1 I I #
face $-1 $-1 $255 $36 $-1 $499 reversed single #
loop $-1 $-1 $376 $240 #
plane-surface $-1 0 23.308686523485292 0 0 -1 0 0 0 -1 forward_v I I I I #
coedge $-1 $500 $374 $377 $501 forward $241 $-1 #
coedge $-1 $380 $243 $244 $368 reversed $151 $-1 #
coedge $-1 $374 $500 $243 $366 reversed $241 $-1 #
edge $-1 $381 -8.0412016418586525 $502 8.0412016418586525 $365 $503 forward 7 unknown #
coedge $-1 $245 $244 $500 $504 forward $97 $-1 #
edge $-1 $372 -43.784295175023651 $502 43.784295175023651 $364 $505 forward 7 unknown #
coedge $-1 $377 $376 $245 $370 reversed $361 $-1 #
edge $-1 $506 -43.784295175023651 $371 43.784295175023651 $369 $507 forward 7 unknown #
vertex $-1 $247 $508 #
vertex $-1 $383 $509 #
straight-curve $-1 43.784295175023651 0 -8.0412016418586525 0 -1 0 I I #
coedge $-1 $363 $365 $248 $375 reversed $241 $-1 #
edge $-1 $378 -23.308686523485292 $381 23.308686523485292 $374 $510 forward 7 unknown #
coedge $-1 $369 $249 $254 $384 forward $361 $-1 #
coedge $-1 $249 $369 $363 $501 reversed $361 $-1 #
vertex $-1 $250 $511 #
straight-curve $-1 0 23.308686523485292 8.0412016418586525 -1 0 0 I I #
coedge $-1 $251 $364 $253 $383 reversed $151 $-1 #
vertex $-1 $375 $512 #
straight-curve $-1 0 -23.308686523485292 8.0412016418586525 1 0 0 I I #
edge $-1 $256 -8.0412016418586525 $372 8.0412016418586525 $253 $513 forward 7 unknown #
edge $-1 $257 -8.0412016418586525 $371 8.0412016418586525 $254 $514 forward 7 unknown #
point $-1 43.784295175023651 -23.308686523485292 8.0412016418586525 #
point $-1 43.784295175023651 23.308686523485292 8.0412016418586525 #
plane-surface $-1 0 0 8.0412016418586525 0 0 1 1 0 0 forward_v I I I I #
coedge $-1 $398 $397 $390 $515 forward $260 $-1 #
coedge $-1 $390 $262 $264 $394 reversed $159 $-1 #
coedge $-1 $262 $389 $388 $515 reversed $159 $-1 #
coedge $-1 $270 $265 $262 $392 forward $271 $-1 #
edge $-1 $395 -14.963941287146689 $516 -12.610348210911475 $391 $517 forward 7 unknown #
coedge $-1 $264 $263 $398 $518 reversed $101 $-1 #
edge $-1 $519 -1.1373479346495045e-014 $395 3.8228689157130007 $389 $520 forward 7 unknown #
vertex $-1 $266 $521 #
straight-curve $-1 -41.430702098788437 5.9762717793569706 8.0412016418586525 0 1 0 I I #
coedge $-1 $388 $267 $270 $402 reversed $260 $-1 #
coedge $-1 $267 $388 $393 $518 forward $260 $-1 #
vertex $-1 $268 $522 #
straight-curve $-1 -43.784295175023651 6.7115081034698694 29.470673198506837 0 0 1 I I #
straight-curve $-1 -43.784295175023644 6.7115081034698694 5.0287397950923918 -0.61566146476048833 0 -0.78801076186113728 I I #
edge $-1 $516 -17.193579013958015 $272 -6.7115081034698694 $397 $523 forward 7 unknown #
point $-1 -43.784295175023651 6.7115081034698694 8.0412016418586525 #
point $-1 -41.430702098788437 6.7115081034698694 8.0412016418586525 #
edge $-1 $524 1 $524 0 $275 $-1 forward 7 unknown #
vertex $-1 $276 $525 #
ellipse-curve $-1 -41.819487875044899 9.7063855064664821 5.9193092537150269 -0.78801076186113728 0 0.61566146476048833 0.30783073238024417 0 0.39400538093056864 1 I I #
point $-1 -42.299667904525791 9.7063855064664821 6.9289760994060838 #
edge $-1 $526 1 $526 0 $279 $-1 forward 7 unknown #
vertex $-1 $280 $527 #
ellipse-curve $-1 -41.819487875044899 14.1987016109614 5.9193092537150269 -0.78801076186113728 0 0.61566146476048833 0.30783073238024417 0 0.39400538093056864 1 I I #
point $-1 -42.299667904525791 14.1987016109614 6.9289760994060838 #
loop $-1 $-1 $291 $283 #
plane-surface $-1 43.784295175023651 0 0 -1 0 0 0 0 1 forward_v I I I I #
coedge $-1 $416 $286 $288 $420 reversed $181 $-1 #
coedge $-1 $286 $415 $528 $529 reversed $181 $-1 #
coedge $-1 $294 $289 $286 $418 forward $284 $-1 #
edge $-1 $421 3.7250815967633599 $530 7.9631000046513023 $417 $531 forward 7 unknown #
coedge $-1 $288 $287 $424 $532 reversed $115 $-1 #
edge $-1 $533 -87.568590350047316 $421 -79.571110742573907 $415 $534 forward 7 unknown #
vertex $-1 $290 $535 #
straight-curve $-1 39.546276767135708 -7.5370884891894629 8.0412016418586489 0 -1 0 I I #
coedge $-1 $528 $291 $294 $428 reversed $413 $-1 #
coedge $-1 $291 $528 $419 $532 forward $413 $-1 #
vertex $-1 $292 $536 #
straight-curve $-1 43.784295175023651 -11.654343261742646 60.962806552204235 0 0 1 I I #
straight-curve $-1 -2.6199866826630824 -11.654343261742646 75.521331246721758 0.52991925155115449 0 -0.84804810408105047 I I #
edge $-1 $530 -18.494010695015206 $295 -11.654343261742646 $423 $537 forward 7 unknown #
point $-1 43.784295175023651 -11.654343261742646 8.0412016418586525 #
point $-1 39.546276767135708 -11.654343261742646 8.0412016418586489 #
edge $-1 $538 1 $538 0 $298 $-1 forward 7 unknown #
vertex $-1 $299 $539 #
ellipse-curve $-1 40.817237866998632 -15.074176978378926 4.1201586810351687 0.84804810408105047 0 0.52991925155115449 0.26495962577557725 0 -0.42402405204052523 1 I I #
point $-1 41.930245596855258 -15.074176978378926 4.2260538805457983 #
plane-surface $-1 0 0 8.0412016418586525 0 0 1 1 0 0 forward_v I I I I #
coedge $-1 $446 $445 $438 $540 forward $303 $-1 #
coedge $-1 $438 $305 $307 $442 reversed $196 $-1 #
coedge $-1 $305 $437 $436 $540 reversed $196 $-1 #
coedge $-1 $313 $308 $305 $440 forward $314 $-1 #
edge $-1 $443 3.7250815967633599 $541 7.9631000046513023 $439 $542 forward 7 unknown #
coedge $-1 $307 $306 $446 $543 reversed $124 $-1 #
edge $-1 $544 -87.568590350047316 $443 -79.571110742573907 $437 $545 forward 7 unknown #
vertex $-1 $309 $546 #
straight-curve $-1 39.546276767135708 -1.7099168583181399 8.0412016418586489 0 -1 0 I I #
coedge $-1 $436 $310 $313 $450 reversed $303 $-1 #
coedge $-1 $310 $436 $441 $543 forward $303 $-1 #
vertex $-1 $311 $547 #
straight-curve $-1 43.784295175023651 0 60.962806552204235 0 0 1 I I #
straight-curve $-1 -2.6199866826630824 0 75.521331246721758 0.52991925155115449 0 -0.84804810408105047 I I #
edge $-1 $541 -6.8396674332725595 $315 0 $445 $548 forward 7 unknown #
point $-1 43.784295175023651 0 8.0412016418586525 #
point $-1 39.546276767135708 0 8.0412016418586489 #
edge $-1 $549 1 $549 0 $318 $-1 forward 7 unknown #
vertex $-1 $319 $550 #
ellipse-curve $-1 40.817237866998632 -3.4198337166362798 4.1201586810351687 0.84804810408105047 0 0.52991925155115449 0.26495962577557725 0 -0.42402405204052523 1 I I #
point $-1 41.930245596855258 -3.4198337166362798 4.2260538805457983 #
plane-surface $-1 0 0 8.0412016418586525 0 0 1 1 0 0 forward_v I I I I #
coedge $-1 $468 $467 $460 $551 forward $323 $-1 #
coedge $-1 $460 $325 $327 $464 reversed $211 $-1 #
coedge $-1 $325 $459 $458 $551 reversed $211 $-1 #
coedge $-1 $333 $328 $325 $462 forward $334 $-1 #
edge $-1 $465 3.7250815967633599 $552 7.9631000046513023 $461 $553 forward 7 unknown #
coedge $-1 $327 $326 $468 $554 reversed $133 $-1 #
edge $-1 $555 -87.568590350047316 $465 -79.571110742573907 $459 $556 forward 7 unknown #
vertex $-1 $329 $557 #
straight-curve $-1 39.546276767135708 4.1172547725531832 8.0412016418586489 0 -1 0 I I #
coedge $-1 $458 $330 $333 $472 reversed $323 $-1 #
coedge $-1 $330 $458 $463 $554 forward $323 $-1 #
vertex $-1 $331 $558 #
straight-curve $-1 43.784295175023651 11.654343261742646 60.962806552204235 0 0 1 I I #
straight-curve $-1 -2.6199866826630824 11.654343261742646 75.521331246721758 0.52991925155115449 0 -0.84804810408105047 I I #
edge $-1 $552 4.8146758284700866 $335 11.654343261742646 $467 $559 forward 7 unknown #
point $-1 43.784295175023651 11.654343261742646 8.0412016418586525 #
point $-1 39.546276767135708 11.654343261742646 8.0412016418586489 #
edge $-1 $560 1 $560 0 $338 $-1 forward 7 unknown #
vertex $-1 $339 $561 #
ellipse-curve $-1 40.817237866998632 8.2345095451063663 4.1201586810351687 0.84804810408105047 0 0.52991925155115449 0.26495962577557725 0 -0.42402405204052523 1 I I #
point $-1 41.930245596855258 8.2345095451063663 4.2260538805457983 #
loop $-1 $-1 $349 $342 #
plane-surface $-1 0 0 8.0412016418586525 0 0 1 1 0 0 forward_v I I I I #
coedge $-1 $562 $563 $346 $483 forward $343 $-1 #
coedge $-1 $346 $345 $488 $564 reversed $142 $-1 #
edge $-1 $485 -54.851538768342223 $565 -46.8540591608688 $481 $566 forward 7 unknown #
coedge $-1 $352 $347 $563 $567 reversed $226 $-1 #
vertex $-1 $483 $568 #
straight-curve $-1 43.784295175023651 9.944426403424508 1.2589542233139497 0 1 0 I I #
coedge $-1 $569 $349 $352 $492 forward $479 $-1 #
coedge $-1 $349 $569 $482 $564 forward $479 $-1 #
vertex $-1 $350 $570 #
straight-curve $-1 35.821195170372349 16.469019090212736 8.0412016418586489 1 0 0 I I #
straight-curve $-1 -2.6199866826630824 16.469019090212736 75.521331246721758 -0.52991925155115449 0 0.84804810408105047 I I #
edge $-1 $353 16.469019090212736 $571 23.308686523485292 $352 $572 forward 7 unknown #
point $-1 43.784295175023651 16.469019090212736 8.0412016418586525 #
point $-1 43.784295175023651 16.469019090212736 1.2589542233139497 #
edge $-1 $573 1 $573 0 $356 $-1 forward 7 unknown #
vertex $-1 $357 $574 #
ellipse-curve $-1 40.817237866998632 19.888852806849016 4.1201586810351687 0.84804810408105047 0 0.52991925155115449 0.26495962577557725 0 -0.42402405204052523 1 I I #
point $-1 41.930245596855258 19.888852806849016 4.2260538805457983 #
plane-surface $-1 43.784295175023651 0 0 -1 0 0 0 0 1 forward_v I I I I #
coedge $-1 $365 $363 $367 $504 reversed $241 $-1 #
edge $-1 $378 -8.0412016418586525 $506 8.0412016418586525 $377 $575 forward 7 unknown #
vertex $-1 $504 $576 #
straight-curve $-1 -43.784295175023651 -23.308686523485292 0 0 0 -1 I I #
edge $-1 $502 -23.308686523485292 $506 23.308686523485292 $500 $577 forward 7 unknown #
straight-curve $-1 0 -23.308686523485292 -8.0412016418586525 -1 0 0 I I #
vertex $-1 $370 $578 #
straight-curve $-1 0 23.308686523485292 -8.0412016418586525 1 0 0 I I #
point $-1 43.784295175023651 23.308686523485292 -8.0412016418586525 #
point $-1 43.784295175023651 -23.308686523485292 -8.0412016418586525 #
straight-curve $-1 -43.784295175023651 0 8.0412016418586525 0 -1 0 I I #
point $-1 -43.784295175023651 23.308686523485292 8.0412016418586525 #
point $-1 -43.784295175023651 -23.308686523485292 8.0412016418586525 #
straight-curve $-1 43.784295175023651 -23.308686523485292 0 0 0 -1 I I #
straight-curve $-1 43.784295175023651 23.308686523485292 0 0 0 -1 I I #
edge $-1 $516 21.429471556648185 $519 24.441933403414453 $388 $579 forward 7 unknown #
vertex $-1 $402 $580 #
straight-curve $-1 -56.394643385935126 17.193579013958015 8.0412016418586525 -1 0 0 I I #
edge $-1 $519 -11.217307234601044 $399 -0.73523632411289874 $398 $581 forward 7 unknown #
vertex $-1 $518 $582 #
straight-curve $-1 -43.784295175023644 17.193579013958015 5.0287397950923918 0.61566146476048833 0 0.78801076186113728 I I #
point $-1 -41.430702098788437 17.193579013958015 8.0412016418586525 #
point $-1 -43.784295175023651 6.7115081034698694 5.0287397950923829 #
straight-curve $-1 -43.784295175023651 0 8.0412016418586525 0 -1 0 I I #
vertex $-1 $405 $583 #
point $-1 -41.51165714266466 9.7063855064664821 6.3133146346455957 #
vertex $-1 $409 $584 #
point $-1 -41.51165714266466 14.1987016109614 6.3133146346455957 #
coedge $-1 $424 $423 $416 $529 forward $413 $-1 #
edge $-1 $530 52.921604910345579 $533 59.703852328890285 $528 $585 forward 7 unknown #
vertex $-1 $428 $586 #
straight-curve $-1 35.821195170372349 -18.494010695015206 8.0412016418586489 1 0 0 I I #
edge $-1 $533 -10.956922205825743 $425 -4.1172547725531832 $424 $587 forward 7 unknown #
vertex $-1 $532 $588 #
straight-curve $-1 -2.6199866826630824 -18.494010695015206 75.521331246721758 -0.52991925155115449 0 0.84804810408105047 I I #
point $-1 39.546276767135708 -18.494010695015206 8.0412016418586489 #
point $-1 43.784295175023651 -11.654343261742646 1.2589542233139497 #
straight-curve $-1 43.784295175023651 0 8.0412016418586525 0 1 0 I I #
vertex $-1 $431 $589 #
point $-1 41.082197492774213 -15.074176978378926 3.6961346289946437 #
edge $-1 $541 52.921604910345579 $544 59.703852328890285 $436 $590 forward 7 unknown #
vertex $-1 $450 $591 #
straight-curve $-1 35.821195170372349 -6.8396674332725595 8.0412016418586489 1 0 0 I I #
edge $-1 $544 -5.1297505749544197 $447 1.7099168583181399 $446 $592 forward 7 unknown #
vertex $-1 $543 $593 #
straight-curve $-1 -2.6199866826630824 -6.8396674332725595 75.521331246721758 -0.52991925155115449 0 0.84804810408105047 I I #
point $-1 39.546276767135708 -6.8396674332725595 8.0412016418586489 #
point $-1 43.784295175023651 0 1.2589542233139497 #
straight-curve $-1 43.784295175023651 0 8.0412016418586525 0 1 0 I I #
vertex $-1 $453 $594 #
point $-1 41.082197492774213 -3.4198337166362798 3.6961346289946437 #
edge $-1 $552 52.921604910345579 $555 59.703852328890285 $458 $595 forward 7 unknown #
vertex $-1 $472 $596 #
straight-curve $-1 35.821195170372349 4.8146758284700866 8.0412016418586489 1 0 0 I I #
edge $-1 $555 0.6974210559169034 $469 7.5370884891894629 $468 $597 forward 7 unknown #
vertex $-1 $554 $598 #
straight-curve $-1 -2.6199866826630824 4.8146758284700866 75.521331246721758 -0.52991925155115449 0 0.84804810408105047 I I #
point $-1 39.546276767135708 4.8146758284700866 8.0412016418586489 #
point $-1 43.784295175023651 11.654343261742646 1.2589542233139497 #
straight-curve $-1 43.784295175023651 0 8.0412016418586525 0 1 0 I I #
vertex $-1 $475 $599 #
point $-1 41.082197492774213 8.2345095451063663 3.6961346289946437 #
coedge $-1 $563 $481 $569 $600 reversed $343 $-1 #
coedge $-1 $481 $562 $484 $567 forward $343 $-1 #
edge $-1 $565 -13.364260120060788 $489 -6.5245926867882282 $488 $601 forward 7 unknown #
vertex $-1 $483 $602 #
straight-curve $-1 14.717408804474598 23.308686523485292 47.775697681734812 -0.52991925155115449 0 0.84804810408105047 I I #
edge $-1 $571 -8.0412016418586525 $485 -1.2589542233139512 $484 $603 forward 7 unknown #
point $-1 43.784295175023651 23.308686523485292 1.2589542233139512 #
coedge $-1 $488 $487 $562 $600 forward $479 $-1 #
point $-1 39.546276767135708 16.469019090212736 8.0412016418586489 #
vertex $-1 $492 $604 #
straight-curve $-1 43.784295175023651 0 8.0412016418586525 0 1 0 I I #
vertex $-1 $495 $605 #
point $-1 41.082197492774213 19.888852806849016 3.6961346289946437 #
straight-curve $-1 -43.784295175023651 23.308686523485292 0 0 0 -1 I I #
point $-1 -43.784295175023651 -23.308686523485292 -8.0412016418586525 #
straight-curve $-1 -43.784295175023651 0 -8.0412016418586525 0 1 0 I I #
point $-1 -43.784295175023651 23.308686523485292 -8.0412016418586525 #
straight-curve $-1 -43.784295175023651 17.193579013958015 29.470673198506837 0 0 -1 I I #
point $-1 -43.784295175023651 17.193579013958015 8.0412016418586525 #
straight-curve $-1 -43.784295175023651 5.9762717793569706 5.0287397950923785 0 -1 0 I I #
point $-1 -43.784295175023651 17.193579013958015 5.0287397950923829 #
point $-1 -41.425482494114334 9.7063855064664821 5.6114785213347824 #
point $-1 -41.425482494114334 14.1987016109614 5.6114785213347824 #
straight-curve $-1 43.784295175023651 -18.494010695015206 60.962806552204235 0 0 -1 I I #
point $-1 43.784295175023651 -18.494010695015206 8.0412016418586525 #
straight-curve $-1 43.784295175023651 -7.5370884891894629 1.2589542233139497 0 1 0 I I #
point $-1 43.784295175023651 -18.494010695015206 1.2589542233139497 #
point $-1 40.393213814958109 -15.074176978378926 3.8551990552595918 #
straight-curve $-1 43.784295175023651 -6.8396674332725595 60.962806552204235 0 0 -1 I I #
point $-1 43.784295175023651 -6.8396674332725595 8.0412016418586525 #
straight-curve $-1 43.784295175023651 -1.7099168583181399 1.2589542233139497 0 1 0 I I #
point $-1 43.784295175023651 -6.8396674332725595 1.2589542233139497 #
point $-1 40.393213814958109 -3.4198337166362798 3.8551990552595918 #
straight-curve $-1 43.784295175023651 4.8146758284700866 60.962806552204235 0 0 -1 I I #
point $-1 43.784295175023651 4.8146758284700866 8.0412016418586525 #
straight-curve $-1 43.784295175023651 4.1172547725531832 1.2589542233139497 0 1 0 I I #
point $-1 43.784295175023651 4.8146758284700866 1.2589542233139497 #
point $-1 40.393213814958109 8.2345095451063663 3.8551990552595918 #
edge $-1 $571 -43.784295175023651 $565 -39.546276767135708 $562 $606 forward 7 unknown #
straight-curve $-1 39.546276767135708 9.944426403424508 8.0412016418586489 0 -1 0 I I #
point $-1 39.546276767135708 23.308686523485296 8.0412016418586489 #
straight-curve $-1 43.784295175023651 23.308686523485292 0 0 0 -1 I I #
point $-1 43.784295175023651 23.308686523485292 8.0412016418586525 #
point $-1 40.393213814958109 19.888852806849016 3.8551990552595918 #
straight-curve $-1 0 23.308686523485292 8.0412016418586525 -1 0 0 I I #
End-of-ACIS-data 