500 0 5 0           
7 Unknown 11 ACIS 5.0 NT 24 Fri Mar 26 20:26:02 1999 
-1 9.9999999999999995e-007 1e-010 
body $-1 $5 $-1 $6 #
body $-1 $7 $-1 $8 #
body $-1 $9 $-1 $10 #
body $-1 $11 $-1 $12 #
body $-1 $13 $-1 $14 #
lump $-1 $-1 $15 $0 #
transform $-1 1 0 0 0 1 0 0 0 1 41.787163914914395 28.619367586686081 11.238999549301406 1 rotate no_reflect no_shear #
lump $-1 $-1 $16 $1 #
transform $-1 1 0 0 0 1 0 0 0 1 41.787163914914395 28.619367586686081 11.238999549301406 1 rotate no_reflect no_shear #
lump $-1 $-1 $17 $2 #
transform $-1 1 0 0 0 1 0 0 0 1 41.787163914914395 28.619367586686081 11.238999549301406 1 rotate no_reflect no_shear #
lump $-1 $-1 $18 $3 #
transform $-1 1 0 0 0 1 0 0 0 1 41.787163914914395 28.619367586686081 11.238999549301406 1 rotate no_reflect no_shear #
lump $-1 $-1 $19 $4 #
transform $-1 1 0 0 0 1 0 0 0 1 41.787163914914395 28.619367586686081 11.238999549301406 1 rotate no_reflect no_shear #
shell $-1 $-1 $-1 $20 $-1 $5 #
shell $-1 $-1 $-1 $21 $-1 $7 #
shell $-1 $-1 $-1 $22 $-1 $9 #
shell $-1 $-1 $-1 $23 $-1 $11 #
shell $-1 $-1 $-1 $24 $-1 $13 #
face $-1 $25 $26 $15 $-1 $27 forward single #
face $-1 $28 $29 $16 $-1 $30 reversed single #
face $-1 $31 $32 $17 $-1 $33 reversed single #
face $-1 $34 $35 $18 $-1 $36 forward single #
face $-1 $37 $38 $19 $-1 $39 forward single #
face $-1 $40 $41 $15 $-1 $42 reversed single #
loop $-1 $-1 $43 $20 #
plane-surface $-1 0 0 11.238999549301406 0 0 1 1 0 0 forward_v I I I I #
face $-1 $44 $45 $16 $-1 $46 reversed single #
loop $-1 $-1 $47 $21 #
plane-surface $-1 -34.441072963126331 0 4.9526097077020417 0 0 1 1 0 0 forward_v I I I I #
face $-1 $48 $49 $17 $-1 $50 reversed single #
loop $-1 $-1 $51 $22 #
plane-surface $-1 3.2806857047145073 67.536248457535905 95.012328433610747 1 0 0 0 -0.83867057594974714 -0.54463902268945019 forward_v I I I I #
face $-1 $52 $53 $18 $-1 $54 forward single #
loop $-1 $55 $56 $23 #
cone-surface $-1 6.3365953547385345 24.0512789131168 5.4536852105994429 0 -0.83867057594974714 -0.54463902268945019 1 0 0 1 I I 0 1 1 forward I I I I #
face $-1 $57 $58 $19 $-1 $59 forward single #
loop $-1 $60 $61 $24 #
cone-surface $-1 10.920459829774579 24.0512789131168 5.4536852105994429 0 -0.83867057594974714 -0.54463902268945019 1 0 0 1 I I 0 1 1 forward I I I I #
face $-1 $62 $63 $15 $-1 $64 reversed single #
loop $-1 $-1 $65 $25 #
plane-surface $-1 0 0 -11.238999549301406 0 0 1 1 0 0 forward_v I I I I #
coedge $-1 $66 $67 $68 $69 forward $26 $-1 #
face $-1 $70 $71 $16 $-1 $72 reversed single #
loop $-1 $-1 $73 $28 #
plane-surface $-1 -27.094982011338267 0 8.0958046285017229 -1 0 0 0 0 1 forward_v I I I I #
coedge $-1 $74 $75 $76 $77 forward $29 $-1 #
face $-1 $78 $79 $17 $-1 $80 reversed single #
loop $-1 $-1 $81 $31 #
plane-surface $-1 8.6285275922565603 -2.5550811981195807 49.494488202445083 0 0.83867057594974714 0.54463902268945019 1 0 0 forward_v I I I I #
coedge $-1 $82 $83 $84 $85 reversed $32 $-1 #
face $-1 $-1 $86 $18 $-1 $87 forward single #
loop $-1 $88 $89 $34 #
cone-surface $-1 6.3365953547385345 22.229377337224747 4.2705285312244481 0 -0.83867057594974714 -0.54463902268945019 0.5 0 0 1 I I -0.70710678118654746 0.70710678118654746 0.5 forward I I I I #
loop $-1 $-1 $90 $23 #
coedge $-1 $56 $56 $91 $92 reversed $35 $-1 #
face $-1 $-1 $93 $19 $-1 $94 forward single #
loop $-1 $95 $96 $37 #
cone-surface $-1 10.920459829774579 22.229377337224747 4.2705285312244481 0 -0.83867057594974714 -0.54463902268945019 0.5 0 0 1 I I -0.70710678118654746 0.70710678118654746 0.5 forward I I I I #
loop $-1 $-1 $97 $24 #
coedge $-1 $61 $61 $98 $99 reversed $38 $-1 #
face $-1 $100 $101 $15 $-1 $102 reversed single #
loop $-1 $-1 $103 $40 #
plane-surface $-1 0 -28.619367586686081 0 0 1 0 0 0 1 forward_v I I I I #
coedge $-1 $104 $105 $106 $107 forward $41 $-1 #
coedge $-1 $108 $43 $109 $110 forward $26 $-1 #
coedge $-1 $43 $108 $111 $112 forward $26 $-1 #
coedge $-1 $113 $114 $43 $69 reversed $115 $-1 #
edge $-1 $116 -28.619367586686081 $117 28.619367586686081 $68 $118 forward 7 unknown #
face $-1 $119 $120 $16 $-1 $121 reversed single #
loop $-1 $-1 $122 $44 #
plane-surface $-1 0 28.619367586686081 0 0 -1 0 0 0 -1 forward_v I I I I #
coedge $-1 $76 $123 $124 $125 reversed $45 $-1 #
coedge $-1 $126 $47 $127 $128 reversed $29 $-1 #
coedge $-1 $47 $126 $129 $130 reversed $29 $-1 #
coedge $-1 $131 $73 $47 $77 reversed $45 $-1 #
edge $-1 $132 -28.619367586686081 $133 28.619367586686081 $76 $134 forward 7 unknown #
face $-1 $135 $136 $17 $-1 $137 forward single #
loop $-1 $-1 $138 $48 #
plane-surface $-1 13.976369479798613 67.536248457535905 95.012328433610747 -1 0 0 0 0.83867057594974714 0.54463902268945019 forward_v I I I I #
coedge $-1 $139 $140 $141 $142 reversed $49 $-1 #
coedge $-1 $83 $51 $143 $144 reversed $32 $-1 #
coedge $-1 $51 $82 $139 $145 reversed $32 $-1 #
coedge $-1 $141 $146 $51 $85 forward $136 $-1 #
edge $-1 $147 5.1487566420818709 $148 11.479801413386078 $84 $149 forward 7 unknown #
loop $-1 $-1 $91 $52 #
plane-surface $-1 8.6285275922565603 -2.5550811981195807 49.494488202445083 0 0.83867057594974714 0.54463902268945019 1 0 0 forward_v I I I I #
loop $-1 $-1 $150 $34 #
coedge $-1 $89 $89 $90 $151 reversed $53 $-1 #
coedge $-1 $90 $90 $89 $151 forward $55 $-1 #
coedge $-1 $91 $91 $56 $92 forward $86 $-1 #
edge $-1 $152 1.1900573991213057e-015 $152 6.2831853071796013 $91 $153 forward 7 unknown #
loop $-1 $-1 $98 $57 #
plane-surface $-1 8.6285275922565603 -2.5550811981195807 49.494488202445083 0 0.83867057594974714 0.54463902268945019 1 0 0 forward_v I I I I #
loop $-1 $-1 $154 $37 #
coedge $-1 $96 $96 $97 $155 reversed $58 $-1 #
coedge $-1 $97 $97 $96 $155 forward $60 $-1 #
coedge $-1 $98 $98 $61 $99 forward $93 $-1 #
edge $-1 $156 1.1900573991213057e-015 $156 6.2831853071796013 $98 $157 forward 7 unknown #
face $-1 $158 $159 $15 $-1 $160 reversed single #
loop $-1 $-1 $161 $62 #
plane-surface $-1 -41.787163914914395 0 0 1 0 0 0 0 -1 forward_v I I I I #
coedge $-1 $162 $111 $163 $164 forward $63 $-1 #
coedge $-1 $165 $65 $162 $166 forward $41 $-1 #
coedge $-1 $65 $165 $167 $168 forward $41 $-1 #
coedge $-1 $114 $113 $65 $107 reversed $115 $-1 #
edge $-1 $169 -28.619367586686081 $170 28.619367586686081 $106 $171 forward 7 unknown #
coedge $-1 $67 $66 $172 $173 forward $26 $-1 #
coedge $-1 $174 $175 $66 $110 reversed $159 $-1 #
edge $-1 $117 -41.787163914914395 $176 41.787163914914395 $109 $177 forward 7 unknown #
coedge $-1 $103 $178 $67 $112 reversed $63 $-1 #
edge $-1 $179 -41.787163914914395 $116 41.787163914914395 $111 $180 forward 7 unknown #
coedge $-1 $106 $68 $178 $181 forward $115 $-1 #
coedge $-1 $68 $106 $174 $182 reversed $115 $-1 #
loop $-1 $-1 $113 $158 #
vertex $-1 $69 $183 #
vertex $-1 $69 $184 #
straight-curve $-1 41.787163914914395 0 11.238999549301406 0 1 0 I I #
face $-1 $185 $186 $16 $-1 $187 forward single #
loop $-1 $-1 $188 $70 #
plane-surface $-1 -41.787163914914395 0 0 1 0 0 0 0 -1 forward_v I I I I #
coedge $-1 $129 $189 $131 $190 forward $71 $-1 #
coedge $-1 $73 $131 $191 $192 reversed $45 $-1 #
coedge $-1 $193 $127 $73 $125 forward $194 $-1 #
edge $-1 $133 0.90470739345118023 $195 7.1910972350505427 $124 $196 forward 7 unknown #
coedge $-1 $75 $74 $188 $197 reversed $29 $-1 #
coedge $-1 $124 $198 $74 $128 forward $194 $-1 #
edge $-1 $199 -24.566627433351229 $133 -9.8744455297751017 $127 $200 forward 7 unknown #
coedge $-1 $201 $122 $75 $130 forward $71 $-1 #
edge $-1 $132 9.8744455297751017 $202 24.566627433351229 $129 $203 forward 7 unknown #
coedge $-1 $123 $76 $122 $190 reversed $45 $-1 #
vertex $-1 $130 $204 #
vertex $-1 $128 $205 #
straight-curve $-1 -27.094982011338267 0 4.9526097077020417 0 -1 0 I I #
face $-1 $-1 $206 $17 $-1 $207 reversed single #
loop $-1 $-1 $84 $78 #
plane-surface $-1 0 0 11.238999549301406 0 0 1 1 0 0 forward_v I I I I #
coedge $-1 $208 $209 $210 $211 reversed $79 $-1 #
coedge $-1 $212 $81 $83 $145 forward $49 $-1 #
coedge $-1 $81 $212 $208 $213 forward $49 $-1 #
coedge $-1 $210 $84 $81 $142 forward $136 $-1 #
edge $-1 $148 -1.0335780914137729 $214 9.6621056836703332 $141 $215 forward 7 unknown #
coedge $-1 $216 $217 $82 $144 forward $206 $-1 #
edge $-1 $218 -46.016119008847355 $147 -36.26716466750397 $143 $219 forward 7 unknown #
edge $-1 $148 45.614439984163624 $218 57.238735173372149 $83 $220 forward 7 unknown #
coedge $-1 $84 $210 $216 $221 forward $136 $-1 #
vertex $-1 $144 $222 #
vertex $-1 $85 $223 #
straight-curve $-1 3.2806857047145073 33.768124228767952 11.238999549301404 0 -1 0 I I #
coedge $-1 $150 $150 $-1 $224 reversed $88 $-1 #
edge $-1 $225 0 $225 6.2831853071796004 $89 $226 forward 7 unknown #
vertex $-1 $92 $227 #
ellipse-curve $-1 6.3365953547385345 25.453845201033978 6.3645223786297116 0 0.83867057594974714 0.54463902268945019 1 0 0 1 I I #
coedge $-1 $154 $154 $-1 $228 reversed $95 $-1 #
edge $-1 $229 0 $229 6.2831853071796004 $96 $230 forward 7 unknown #
vertex $-1 $99 $231 #
ellipse-curve $-1 10.920459829774579 25.453845201033978 6.3645223786297116 0 0.83867057594974714 0.54463902268945019 1 0 0 1 I I #
face $-1 $-1 $115 $15 $-1 $232 reversed single #
loop $-1 $-1 $174 $100 #
plane-surface $-1 0 28.619367586686081 0 0 -1 0 0 0 -1 forward_v I I I I #
coedge $-1 $233 $172 $175 $234 forward $101 $-1 #
coedge $-1 $178 $103 $104 $166 reversed $63 $-1 #
coedge $-1 $172 $233 $103 $164 reversed $101 $-1 #
edge $-1 $179 -11.238999549301406 $235 11.238999549301406 $163 $236 forward 7 unknown #
coedge $-1 $105 $104 $233 $237 forward $41 $-1 #
edge $-1 $170 -41.787163914914395 $235 41.787163914914395 $162 $238 forward 7 unknown #
coedge $-1 $175 $174 $105 $168 reversed $159 $-1 #
edge $-1 $239 -41.787163914914395 $169 41.787163914914395 $167 $240 forward 7 unknown #
vertex $-1 $107 $241 #
vertex $-1 $181 $242 #
straight-curve $-1 41.787163914914395 0 -11.238999549301406 0 -1 0 I I #
coedge $-1 $161 $163 $108 $173 reversed $101 $-1 #
edge $-1 $176 -28.619367586686081 $179 28.619367586686081 $172 $243 forward 7 unknown #
coedge $-1 $167 $109 $114 $182 forward $159 $-1 #
coedge $-1 $109 $167 $161 $234 reversed $159 $-1 #
vertex $-1 $110 $244 #
straight-curve $-1 0 28.619367586686081 11.238999549301406 -1 0 0 I I #
coedge $-1 $111 $162 $113 $181 reversed $63 $-1 #
vertex $-1 $173 $245 #
straight-curve $-1 0 -28.619367586686081 11.238999549301406 1 0 0 I I #
edge $-1 $116 -11.238999549301406 $170 11.238999549301406 $113 $246 forward 7 unknown #
edge $-1 $117 -11.238999549301406 $169 11.238999549301406 $114 $247 forward 7 unknown #
point $-1 41.787163914914395 -28.619367586686081 11.238999549301406 #
point $-1 41.787163914914395 28.619367586686081 11.238999549301406 #
face $-1 $-1 $194 $16 $-1 $248 reversed single #
loop $-1 $-1 $191 $119 #
plane-surface $-1 0 0 11.238999549301406 0 0 1 1 0 0 forward_v I I I I #
coedge $-1 $249 $250 $126 $197 forward $120 $-1 #
coedge $-1 $122 $201 $251 $252 reversed $71 $-1 #
edge $-1 $253 -7.1910972350505427 $132 -0.90470739345118023 $122 $254 forward 7 unknown #
coedge $-1 $251 $255 $123 $192 forward $186 $-1 #
edge $-1 $195 -28.619367586686081 $253 28.619367586686081 $191 $256 forward 7 unknown #
coedge $-1 $198 $124 $255 $257 reversed $194 $-1 #
loop $-1 $-1 $124 $185 #
vertex $-1 $125 $258 #
straight-curve $-1 -27.094982011338267 -28.619367586686081 4.0479023142508614 0 0 1 I I #
edge $-1 $202 -28.619367586686081 $199 28.619367586686081 $188 $259 forward 7 unknown #
coedge $-1 $127 $193 $249 $260 forward $194 $-1 #
vertex $-1 $197 $261 #
straight-curve $-1 -17.220536481563165 -28.619367586686081 4.9526097077020417 1 0 0 I I #
coedge $-1 $189 $129 $250 $262 reversed $71 $-1 #
vertex $-1 $197 $263 #
straight-curve $-1 -17.220536481563165 28.619367586686081 4.9526097077020417 -1 0 0 I I #
point $-1 -27.094982011338267 28.619367586686081 4.9526097077020417 #
point $-1 -27.094982011338267 -28.619367586686081 4.9526097077020417 #
loop $-1 $-1 $143 $135 #
plane-surface $-1 0 28.619367586686081 0 0 -1 0 0 0 -1 forward_v I I I I #
coedge $-1 $209 $138 $140 $213 reversed $79 $-1 #
coedge $-1 $138 $208 $264 $265 reversed $79 $-1 #
coedge $-1 $146 $141 $138 $211 forward $136 $-1 #
edge $-1 $214 -11.479801413386078 $266 -5.1487566420818709 $210 $267 forward 7 unknown #
coedge $-1 $140 $139 $217 $268 reversed $49 $-1 #
edge $-1 $269 -57.238735173372149 $214 -45.614439984163624 $208 $270 forward 7 unknown #
vertex $-1 $142 $271 #
straight-curve $-1 4.3142637961282801 22.288322815381875 11.238999549301404 1 0 0 I I #
coedge $-1 $264 $143 $146 $221 reversed $206 $-1 #
coedge $-1 $143 $264 $212 $268 forward $206 $-1 #
vertex $-1 $144 $272 #
straight-curve $-1 3.2806857047145073 28.619367586686081 47.506164216805374 0 0 1 I I #
straight-curve $-1 3.2806857047145073 -2.5550811981195807 49.494488202445083 0 0.54463902268945019 -0.83867057594974714 I I #
edge $-1 $266 -13.976369479798613 $147 -3.2806857047145073 $216 $273 forward 7 unknown #
point $-1 3.2806857047145073 28.619367586686081 11.238999549301406 #
point $-1 3.2806857047145073 22.288322815381875 11.238999549301404 #
edge $-1 $274 1 $274 0 $150 $-1 forward 7 unknown #
vertex $-1 $151 $275 #
ellipse-curve $-1 6.3365953547385345 22.648712625199622 4.5428480425691733 0 0.83867057594974714 0.54463902268945019 1 0 0 1 I I #
point $-1 7.3365953547385345 25.453845201033982 6.3645223786297125 #
edge $-1 $276 1 $276 0 $154 $-1 forward 7 unknown #
vertex $-1 $155 $277 #
ellipse-curve $-1 10.920459829774579 22.648712625199622 4.5428480425691733 0 0.83867057594974714 0.54463902268945019 1 0 0 1 I I #
point $-1 11.920459829774579 25.453845201033982 6.3645223786297125 #
plane-surface $-1 41.787163914914395 0 0 -1 0 0 0 0 1 forward_v I I I I #
coedge $-1 $163 $161 $165 $237 reversed $101 $-1 #
edge $-1 $176 -11.238999549301406 $239 11.238999549301406 $175 $278 forward 7 unknown #
vertex $-1 $237 $279 #
straight-curve $-1 -41.787163914914395 -28.619367586686081 0 0 0 -1 I I #
edge $-1 $235 -28.619367586686081 $239 28.619367586686081 $233 $280 forward 7 unknown #
straight-curve $-1 0 -28.619367586686081 -11.238999549301406 -1 0 0 I I #
vertex $-1 $168 $281 #
straight-curve $-1 0 28.619367586686081 -11.238999549301406 1 0 0 I I #
point $-1 41.787163914914395 28.619367586686081 -11.238999549301406 #
point $-1 41.787163914914395 -28.619367586686081 -11.238999549301406 #
straight-curve $-1 -41.787163914914395 0 11.238999549301406 0 -1 0 I I #
point $-1 -41.787163914914395 28.619367586686081 11.238999549301406 #
point $-1 -41.787163914914395 -28.619367586686081 11.238999549301406 #
straight-curve $-1 41.787163914914395 -28.619367586686081 0 0 0 -1 I I #
straight-curve $-1 41.787163914914395 28.619367586686081 0 0 0 -1 I I #
plane-surface $-1 0 -28.619367586686081 0 0 1 0 0 0 1 forward_v I I I I #
coedge $-1 $282 $188 $198 $260 reversed $120 $-1 #
coedge $-1 $188 $282 $201 $262 forward $120 $-1 #
coedge $-1 $283 $191 $189 $252 forward $186 $-1 #
edge $-1 $253 27.094982011338267 $284 41.787163914914395 $189 $285 forward 7 unknown #
vertex $-1 $252 $286 #
straight-curve $-1 -27.094982011338267 28.619367586686081 4.0479023142508614 0 0 -1 I I #
coedge $-1 $191 $283 $193 $257 forward $186 $-1 #
straight-curve $-1 -27.094982011338267 0 11.238999549301406 0 1 0 I I #
edge $-1 $287 -41.787163914914395 $195 -27.094982011338267 $193 $288 forward 7 unknown #
point $-1 -27.094982011338267 -28.619367586686081 11.238999549301404 #
straight-curve $-1 -41.787163914914395 0 4.9526097077020417 0 -1 0 I I #
edge $-1 $287 -11.238999549301406 $199 -4.9526097077020417 $249 $289 forward 7 unknown #
point $-1 -41.787163914914395 -28.619367586686081 4.9526097077020417 #
edge $-1 $284 -11.238999549301406 $202 -4.9526097077020417 $201 $290 forward 7 unknown #
point $-1 -41.787163914914395 28.619367586686081 4.9526097077020417 #
coedge $-1 $217 $216 $209 $265 forward $206 $-1 #
edge $-1 $266 36.26716466750397 $269 46.016119008847355 $264 $291 forward 7 unknown #
vertex $-1 $221 $292 #
straight-curve $-1 13.976369479798613 33.768124228767952 11.238999549301404 0 1 0 I I #
edge $-1 $269 -9.6621056836703332 $218 1.0335780914137729 $217 $293 forward 7 unknown #
vertex $-1 $268 $294 #
straight-curve $-1 13.976369479798613 -2.5550811981195807 49.494488202445083 0 -0.54463902268945019 0.83867057594974714 I I #
point $-1 13.976369479798613 22.288322815381875 11.238999549301404 #
point $-1 3.2806857047145073 28.619367586686081 1.4900452079580191 #
straight-curve $-1 0 28.619367586686081 11.238999549301406 -1 0 0 I I #
vertex $-1 $224 $295 #
point $-1 7.3365953547385345 22.648712625199622 4.5428480425691733 #
vertex $-1 $228 $296 #
point $-1 11.920459829774579 22.648712625199622 4.5428480425691733 #
straight-curve $-1 -41.787163914914395 28.619367586686081 0 0 0 -1 I I #
point $-1 -41.787163914914395 -28.619367586686081 -11.238999549301406 #
straight-curve $-1 -41.787163914914395 0 -11.238999549301406 0 1 0 I I #
point $-1 -41.787163914914395 28.619367586686081 -11.238999549301406 #
coedge $-1 $250 $249 $283 $297 reversed $120 $-1 #
coedge $-1 $255 $251 $282 $297 forward $186 $-1 #
vertex $-1 $252 $298 #
straight-curve $-1 0 28.619367586686081 11.238999549301406 -1 0 0 I I #
point $-1 -27.094982011338267 28.619367586686081 11.238999549301404 #
vertex $-1 $297 $299 #
straight-curve $-1 0 -28.619367586686081 11.238999549301406 1 0 0 I I #
straight-curve $-1 -41.787163914914395 -28.619367586686081 0 0 0 -1 I I #
straight-curve $-1 -41.787163914914395 28.619367586686081 0 0 0 -1 I I #
straight-curve $-1 13.976369479798613 28.619367586686081 47.506164216805374 0 0 -1 I I #
point $-1 13.976369479798613 28.619367586686081 11.238999549301406 #
straight-curve $-1 4.3142637961282801 28.619367586686081 1.4900452079580191 -1 0 0 I I #
point $-1 13.976369479798613 28.619367586686081 1.4900452079580191 #
point $-1 6.3365953547385345 21.810042049249873 3.9982090198797229 #
point $-1 10.920459829774579 21.810042049249873 3.9982090198797229 #
edge $-1 $284 -28.619367586686081 $287 28.619367586686081 $282 $300 forward 7 unknown #
point $-1 -41.787163914914395 28.619367586686081 11.238999549301406 #
point $-1 -41.787163914914395 -28.619367586686081 11.238999549301406 #
straight-curve $-1 -41.787163914914395 0 11.238999549301406 0 -1 0 I I #
End-of-ACIS-data 