500 0 13 0           
7 Unknown 11 ACIS 5.0 NT 24 Thu Mar 25 15:36:52 1999 
-1 9.9999999999999995e-007 1e-010 
body $-1 $13 $-1 $14 #
body $-1 $15 $-1 $16 #
body $-1 $17 $-1 $18 #
body $-1 $19 $-1 $20 #
body $-1 $21 $-1 $22 #
body $-1 $23 $-1 $24 #
body $-1 $25 $-1 $26 #
body $-1 $27 $-1 $28 #
body $-1 $29 $-1 $30 #
body $-1 $31 $-1 $32 #
body $-1 $33 $-1 $34 #
body $-1 $35 $-1 $36 #
body $-1 $37 $-1 $38 #
lump $-1 $-1 $39 $0 #
transform $-1 1 0 0 0 1 0 0 0 1 48.041016876735739 20.768169568844787 8.3773042281042578 1 rotate no_reflect no_shear #
lump $-1 $-1 $40 $1 #
transform $-1 1 0 0 0 1 0 0 0 1 48.041016876735739 20.768169568844787 8.3773042281042578 1 rotate no_reflect no_shear #
lump $-1 $-1 $41 $2 #
transform $-1 1 0 0 0 1 0 0 0 1 48.041016876735739 20.768169568844787 8.3773042281042578 1 rotate no_reflect no_shear #
lump $-1 $-1 $42 $3 #
transform $-1 1 0 0 0 1 0 0 0 1 48.041016876735739 20.768169568844787 8.3773042281042578 1 rotate no_reflect no_shear #
lump $-1 $-1 $43 $4 #
transform $-1 1 0 0 0 1 0 0 0 1 48.041016876735739 20.768169568844787 8.3773042281042578 1 rotate no_reflect no_shear #
lump $-1 $-1 $44 $5 #
transform $-1 1 0 0 0 1 0 0 0 1 48.041016876735739 20.768169568844787 8.3773042281042578 1 rotate no_reflect no_shear #
lump $-1 $-1 $45 $6 #
transform $-1 1 0 0 0 1 0 0 0 1 48.041016876735739 20.768169568844787 8.3773042281042578 1 rotate no_reflect no_shear #
lump $-1 $-1 $46 $7 #
transform $-1 1 0 0 0 1 0 0 0 1 48.041016876735739 20.768169568844787 8.3773042281042578 1 rotate no_reflect no_shear #
lump $-1 $-1 $47 $8 #
transform $-1 1 0 0 0 1 0 0 0 1 48.041016876735739 20.768169568844787 8.3773042281042578 1 rotate no_reflect no_shear #
lump $-1 $-1 $48 $9 #
transform $-1 1 0 0 0 1 0 0 0 1 48.041016876735739 20.768169568844787 8.3773042281042578 1 rotate no_reflect no_shear #
lump $-1 $-1 $49 $10 #
transform $-1 1 0 0 0 1 0 0 0 1 48.041016876735739 20.768169568844787 8.3773042281042578 1 rotate no_reflect no_shear #
lump $-1 $-1 $50 $11 #
transform $-1 1 0 0 0 1 0 0 0 1 48.041016876735739 20.768169568844787 8.3773042281042578 1 rotate no_reflect no_shear #
lump $-1 $-1 $51 $12 #
transform $-1 1 0 0 0 1 0 0 0 1 48.041016876735739 20.768169568844787 8.3773042281042578 1 rotate no_reflect no_shear #
shell $-1 $-1 $-1 $52 $-1 $13 #
shell $-1 $-1 $-1 $53 $-1 $15 #
shell $-1 $-1 $-1 $54 $-1 $17 #
shell $-1 $-1 $-1 $55 $-1 $19 #
shell $-1 $-1 $-1 $56 $-1 $21 #
shell $-1 $-1 $-1 $57 $-1 $23 #
shell $-1 $-1 $-1 $58 $-1 $25 #
shell $-1 $-1 $-1 $59 $-1 $27 #
shell $-1 $-1 $-1 $60 $-1 $29 #
shell $-1 $-1 $-1 $61 $-1 $31 #
shell $-1 $-1 $-1 $62 $-1 $33 #
shell $-1 $-1 $-1 $63 $-1 $35 #
shell $-1 $-1 $-1 $64 $-1 $37 #
face $-1 $65 $66 $39 $-1 $67 forward single #
face $-1 $68 $69 $40 $-1 $70 reversed single #
face $-1 $71 $72 $41 $-1 $73 reversed single #
face $-1 $74 $75 $42 $-1 $76 reversed single #
face $-1 $77 $78 $43 $-1 $79 forward single #
face $-1 $80 $81 $44 $-1 $82 forward single #
face $-1 $83 $84 $45 $-1 $85 forward single #
face $-1 $86 $87 $46 $-1 $88 reversed single #
face $-1 $89 $90 $47 $-1 $91 forward single #
face $-1 $92 $93 $48 $-1 $94 forward single #
face $-1 $95 $96 $49 $-1 $97 reversed single #
face $-1 $98 $99 $50 $-1 $100 forward single #
face $-1 $101 $102 $51 $-1 $103 forward single #
face $-1 $104 $105 $39 $-1 $106 reversed single #
loop $-1 $-1 $107 $52 #
plane-surface $-1 0 0 8.3773042281042578 0 0 1 1 0 0 forward_v I I I I #
face $-1 $108 $109 $40 $-1 $110 reversed single #
loop $-1 $-1 $111 $53 #
plane-surface $-1 -37.746512362724928 0 6.8773042281042578 -1 0 0 0 0 1 forward_v I I I I #
face $-1 $112 $113 $41 $-1 $114 reversed single #
loop $-1 $-1 $115 $54 #
plane-surface $-1 42.893764619730334 0 5.3773042281042578 0 0 1 1 0 0 forward_v I I I I #
face $-1 $116 $117 $42 $-1 $118 reversed single #
loop $-1 $-1 $119 $55 #
plane-surface $-1 20.48150922563352 -93.282201726260809 65.771974246530363 -1 0 0 0 -0.75470958851134928 0.65605901945558964 forward_v I I I I #
face $-1 $120 $121 $43 $-1 $122 forward single #
loop $-1 $123 $124 $56 #
cone-surface $-1 2.7808405540832979 -17.531648205802501 4.8746991449496377 0 0.75470958851134928 -0.65605901945558964 1.5 0 0 1 I I 0 1 1.5 forward I I I I #
face $-1 $125 $126 $44 $-1 $127 forward single #
loop $-1 $128 $129 $57 #
cone-surface $-1 9.4185913059146316 -17.531648205802501 4.8746991449496377 0 0.75470958851134928 -0.65605901945558964 1.5 0 0 1 I I 0 1 1.5 forward I I I I #
face $-1 $130 $131 $45 $-1 $132 forward single #
loop $-1 $133 $134 $58 #
cone-surface $-1 16.056342057745965 -17.531648205802501 4.8746991449496377 0 0.75470958851134928 -0.65605901945558964 1.5 0 0 1 I I 0 1 1.5 forward I I I I #
face $-1 $135 $136 $46 $-1 $137 reversed single #
loop $-1 $-1 $138 $59 #
plane-surface $-1 -30.409690257784678 5.5648196450874821e-007 40.507451244255471 0 0.86602541151947299 0.49999998660252726 1 0 0 forward_v I I I I #
face $-1 $139 $140 $47 $-1 $141 forward single #
loop $-1 $142 $143 $60 #
cone-surface $-1 -33.554042588473351 19.226246539971836 6.2066151455136094 0 -0.86602541151947299 -0.49999998660252726 0.5 0 0 1 I I 0 1 0.5 forward I I I I #
face $-1 $144 $145 $48 $-1 $146 forward single #
loop $-1 $147 $148 $61 #
cone-surface $-1 -27.265337927096002 19.226246539971836 6.2066151455136094 0 -0.86602541151947299 -0.49999998660252726 0.5 0 0 1 I I 0 1 0.5 forward I I I I #
face $-1 $149 $150 $49 $-1 $151 reversed single #
loop $-1 $-1 $152 $62 #
plane-surface $-1 9.7699626167013776e-015 83.209483377459989 88.548466833734778 1 0 0 0 -0.86602541151947299 -0.49999998660252726 forward_v I I I I #
face $-1 $153 $154 $50 $-1 $155 forward single #
loop $-1 $156 $157 $63 #
cone-surface $-1 4.1924697742515775 19.226246539971836 6.2066151455136094 0 -0.86602541151947299 -0.49999998660252726 0.5 0 0 1 I I 0 1 0.5 forward I I I I #
face $-1 $158 $159 $51 $-1 $160 forward single #
loop $-1 $161 $162 $64 #
cone-surface $-1 10.48117443562893 19.226246539971836 6.2066151455136094 0 -0.86602541151947299 -0.49999998660252726 0.5 0 0 1 I I 0 1 0.5 forward I I I I #
face $-1 $163 $164 $39 $-1 $165 reversed single #
loop $-1 $-1 $166 $65 #
plane-surface $-1 0 0 -8.3773042281042578 0 0 1 1 0 0 forward_v I I I I #
coedge $-1 $167 $168 $169 $170 forward $66 $-1 #
face $-1 $171 $172 $40 $-1 $173 reversed single #
loop $-1 $-1 $174 $68 #
plane-surface $-1 -42.893764619730334 0 5.3773042281042578 0 0 1 1 0 0 forward_v I I I I #
coedge $-1 $175 $176 $177 $178 reversed $69 $-1 #
face $-1 $179 $180 $41 $-1 $181 forward single #
loop $-1 $-1 $182 $71 #
plane-surface $-1 37.746512362724928 0 6.8773042281042578 1 0 0 0 0 -1 forward_v I I I I #
coedge $-1 $183 $184 $185 $186 reversed $72 $-1 #
face $-1 $187 $188 $42 $-1 $189 reversed single #
loop $-1 $-1 $190 $74 #
plane-surface $-1 9.4185913059146316 -20.768169568844783 2.736489394928995 0 -0.75470958851134928 0.65605901945558964 1 0 0 forward_v I I I I #
coedge $-1 $191 $192 $193 $194 reversed $75 $-1 #
face $-1 $-1 $195 $43 $-1 $196 forward single #
loop $-1 $197 $198 $77 #
cone-surface $-1 2.7808405540832979 -16.180837351295938 3.7004572137909548 0 0.75470958851134928 -0.65605901945558964 0.75 0 0 1 I I -0.70710678118654768 0.70710678118654735 0.75 forward I I I I #
loop $-1 $-1 $199 $56 #
coedge $-1 $124 $124 $200 $201 reversed $78 $-1 #
face $-1 $-1 $202 $44 $-1 $203 forward single #
loop $-1 $204 $205 $80 #
cone-surface $-1 9.4185913059146316 -16.180837351295938 3.7004572137909548 0 0.75470958851134928 -0.65605901945558964 0.75 0 0 1 I I -0.70710678118654768 0.70710678118654735 0.75 forward I I I I #
loop $-1 $-1 $206 $57 #
coedge $-1 $129 $129 $207 $208 reversed $81 $-1 #
face $-1 $-1 $209 $45 $-1 $210 forward single #
loop $-1 $211 $212 $83 #
cone-surface $-1 16.056342057745965 -16.180837351295938 3.7004572137909548 0 0.75470958851134928 -0.65605901945558964 0.75 0 0 1 I I -0.70710678118654768 0.70710678118654735 0.75 forward I I I I #
loop $-1 $-1 $213 $58 #
coedge $-1 $134 $134 $214 $215 reversed $84 $-1 #
face $-1 $216 $217 $46 $-1 $218 reversed single #
loop $-1 $-1 $219 $86 #
plane-surface $-1 -23.072868152844435 83.209483377459989 88.548466833734778 -1 0 0 0 0.86602541151947299 0.49999998660252726 forward_v I I I I #
coedge $-1 $220 $221 $222 $223 reversed $87 $-1 #
face $-1 $-1 $224 $47 $-1 $225 forward single #
loop $-1 $226 $227 $89 #
cone-surface $-1 -33.554042588473351 18.576727481332231 5.8316151555617139 0 -0.86602541151947299 -0.49999998660252726 0.25 0 0 1 I I -0.70710678118654746 0.70710678118654746 0.25 forward I I I I #
loop $-1 $-1 $228 $60 #
coedge $-1 $143 $143 $229 $230 reversed $90 $-1 #
face $-1 $-1 $231 $48 $-1 $232 forward single #
loop $-1 $233 $234 $92 #
cone-surface $-1 -27.265337927096002 18.576727481332231 5.8316151555617139 0 -0.86602541151947299 -0.49999998660252726 0.25 0 0 1 I I -0.70710678118654746 0.70710678118654746 0.25 forward I I I I #
loop $-1 $-1 $235 $61 #
coedge $-1 $148 $148 $236 $237 reversed $93 $-1 #
face $-1 $238 $239 $49 $-1 $240 reversed single #
loop $-1 $-1 $241 $95 #
plane-surface $-1 7.3368221049402536 5.5648196450874821e-007 40.507451244255471 0 0.86602541151947299 0.49999998660252726 1 0 0 forward_v I I I I #
coedge $-1 $242 $243 $244 $245 reversed $96 $-1 #
face $-1 $-1 $246 $50 $-1 $247 forward single #
loop $-1 $248 $249 $98 #
cone-surface $-1 4.1924697742515775 18.576727481332231 5.8316151555617139 0 -0.86602541151947299 -0.49999998660252726 0.25 0 0 1 I I -0.70710678118654746 0.70710678118654746 0.25 forward I I I I #
loop $-1 $-1 $250 $63 #
coedge $-1 $157 $157 $251 $252 reversed $99 $-1 #
face $-1 $-1 $253 $51 $-1 $254 forward single #
loop $-1 $255 $256 $101 #
cone-surface $-1 10.48117443562893 18.576727481332231 5.8316151555617139 0 -0.86602541151947299 -0.49999998660252726 0.25 0 0 1 I I -0.70710678118654746 0.70710678118654746 0.25 forward I I I I #
loop $-1 $-1 $257 $64 #
coedge $-1 $162 $162 $258 $259 reversed $102 $-1 #
face $-1 $260 $261 $39 $-1 $262 reversed single #
loop $-1 $-1 $263 $104 #
plane-surface $-1 0 -20.768169568844787 0 0 1 0 0 0 1 forward_v I I I I #
coedge $-1 $264 $265 $266 $267 forward $105 $-1 #
coedge $-1 $268 $107 $269 $270 forward $66 $-1 #
coedge $-1 $107 $268 $271 $272 forward $66 $-1 #
coedge $-1 $273 $274 $107 $170 reversed $275 $-1 #
edge $-1 $276 -20.768169568844787 $277 20.768169568844787 $169 $278 forward 7 unknown #
face $-1 $279 $280 $40 $-1 $281 reversed single #
loop $-1 $-1 $282 $108 #
plane-surface $-1 0 20.768169568844787 0 0 -1 0 0 0 -1 forward_v I I I I #
coedge $-1 $283 $284 $285 $286 forward $109 $-1 #
coedge $-1 $285 $111 $287 $288 reversed $69 $-1 #
coedge $-1 $111 $285 $282 $289 reversed $69 $-1 #
coedge $-1 $290 $291 $111 $178 forward $292 $-1 #
edge $-1 $293 -20.768169568844787 $294 20.768169568844787 $177 $295 forward 7 unknown #
face $-1 $296 $297 $41 $-1 $298 reversed single #
loop $-1 $-1 $299 $112 #
plane-surface $-1 0 0 8.3773042281042578 0 0 1 1 0 0 forward_v I I I I #
coedge $-1 $300 $301 $302 $303 reversed $113 $-1 #
coedge $-1 $304 $115 $305 $306 reversed $72 $-1 #
coedge $-1 $115 $304 $307 $308 reversed $72 $-1 #
coedge $-1 $309 $310 $115 $186 forward $311 $-1 #
edge $-1 $312 -20.768169568844787 $313 20.768169568844787 $185 $314 forward 7 unknown #
face $-1 $315 $316 $42 $-1 $317 forward single #
loop $-1 $-1 $318 $116 #
plane-surface $-1 -1.6443266138042567 -93.282201726260809 65.771974246530363 1 0 0 0 0.75470958851134928 -0.65605901945558964 forward_v I I I I #
coedge $-1 $319 $320 $321 $322 reversed $117 $-1 #
coedge $-1 $192 $119 $323 $324 reversed $75 $-1 #
coedge $-1 $119 $191 $319 $325 reversed $75 $-1 #
coedge $-1 $321 $326 $119 $194 forward $316 $-1 #
edge $-1 $327 25.872931294285618 $328 30.776416694124102 $193 $329 forward 7 unknown #
loop $-1 $-1 $200 $120 #
plane-surface $-1 9.4185913059146316 -20.768169568844783 2.736489394928995 0 -0.75470958851134928 0.65605901945558964 1 0 0 forward_v I I I I #
loop $-1 $-1 $330 $77 #
coedge $-1 $198 $198 $199 $331 reversed $121 $-1 #
coedge $-1 $199 $199 $198 $331 forward $123 $-1 #
coedge $-1 $200 $200 $124 $201 forward $195 $-1 #
edge $-1 $332 1.127407176945957e-015 $332 6.2831853071796013 $200 $333 forward 7 unknown #
loop $-1 $-1 $207 $125 #
plane-surface $-1 9.4185913059146316 -20.768169568844783 2.736489394928995 0 -0.75470958851134928 0.65605901945558964 1 0 0 forward_v I I I I #
loop $-1 $-1 $334 $80 #
coedge $-1 $205 $205 $206 $335 reversed $126 $-1 #
coedge $-1 $206 $206 $205 $335 forward $128 $-1 #
coedge $-1 $207 $207 $129 $208 forward $202 $-1 #
edge $-1 $336 1.127407176945957e-015 $336 6.2831853071796013 $207 $337 forward 7 unknown #
loop $-1 $-1 $214 $130 #
plane-surface $-1 9.4185913059146316 -20.768169568844783 2.736489394928995 0 -0.75470958851134928 0.65605901945558964 1 0 0 forward_v I I I I #
loop $-1 $-1 $338 $83 #
coedge $-1 $212 $212 $213 $339 reversed $131 $-1 #
coedge $-1 $213 $213 $212 $339 forward $133 $-1 #
coedge $-1 $214 $214 $134 $215 forward $209 $-1 #
edge $-1 $340 1.127407176945957e-015 $340 6.2831853071796013 $214 $341 forward 7 unknown #
face $-1 $342 $343 $46 $-1 $344 forward single #
loop $-1 $-1 $345 $135 #
plane-surface $-1 0 20.768169568844787 0 0 -1 0 0 0 -1 forward_v I I I I #
coedge $-1 $346 $347 $348 $349 reversed $136 $-1 #
coedge $-1 $350 $138 $351 $352 reversed $87 $-1 #
coedge $-1 $138 $350 $346 $353 forward $87 $-1 #
coedge $-1 $348 $354 $138 $223 forward $343 $-1 #
edge $-1 $355 -22.541667233832584 $356 -7.8680230239520963 $222 $357 forward 7 unknown #
loop $-1 $-1 $229 $139 #
plane-surface $-1 -30.409690257784678 5.5648196450874821e-007 40.507451244255471 0 0.86602541151947299 0.49999998660252726 1 0 0 forward_v I I I I #
loop $-1 $-1 $358 $89 #
coedge $-1 $227 $227 $228 $359 reversed $140 $-1 #
coedge $-1 $228 $228 $227 $359 forward $142 $-1 #
coedge $-1 $229 $229 $143 $230 forward $224 $-1 #
edge $-1 $360 -1.1728472940473972e-015 $360 6.2831853071795996 $229 $361 forward 7 unknown #
loop $-1 $-1 $236 $144 #
plane-surface $-1 -30.409690257784678 5.5648196450874821e-007 40.507451244255471 0 0.86602541151947299 0.49999998660252726 1 0 0 forward_v I I I I #
loop $-1 $-1 $362 $92 #
coedge $-1 $234 $234 $235 $363 reversed $145 $-1 #
coedge $-1 $235 $235 $234 $363 forward $147 $-1 #
coedge $-1 $236 $236 $148 $237 forward $231 $-1 #
edge $-1 $364 -1.1728472940473972e-015 $364 6.2831853071795996 $236 $365 forward 7 unknown #
face $-1 $366 $367 $49 $-1 $368 forward single #
loop $-1 $-1 $369 $149 #
plane-surface $-1 14.673644209880496 83.209483377459989 88.548466833734778 -1 0 0 0 0.86602541151947299 0.49999998660252726 forward_v I I I I #
coedge $-1 $370 $371 $372 $373 reversed $150 $-1 #
coedge $-1 $243 $152 $374 $375 reversed $96 $-1 #
coedge $-1 $152 $242 $370 $376 reversed $96 $-1 #
coedge $-1 $372 $377 $152 $245 forward $367 $-1 #
edge $-1 $378 20.836572119885208 $379 23.054392766111658 $244 $380 forward 7 unknown #
loop $-1 $-1 $251 $153 #
plane-surface $-1 7.3368221049402536 5.5648196450874821e-007 40.507451244255471 0 0.86602541151947299 0.49999998660252726 1 0 0 forward_v I I I I #
loop $-1 $-1 $381 $98 #
coedge $-1 $249 $249 $250 $382 reversed $154 $-1 #
coedge $-1 $250 $250 $249 $382 forward $156 $-1 #
coedge $-1 $251 $251 $157 $252 forward $246 $-1 #
edge $-1 $383 -1.1728472940473972e-015 $383 6.2831853071795996 $251 $384 forward 7 unknown #
loop $-1 $-1 $258 $158 #
plane-surface $-1 7.3368221049402536 5.5648196450874821e-007 40.507451244255471 0 0.86602541151947299 0.49999998660252726 1 0 0 forward_v I I I I #
loop $-1 $-1 $385 $101 #
coedge $-1 $256 $256 $257 $386 reversed $159 $-1 #
coedge $-1 $257 $257 $256 $386 forward $161 $-1 #
coedge $-1 $258 $258 $162 $259 forward $253 $-1 #
edge $-1 $387 -1.1728472940473972e-015 $387 6.2831853071795996 $258 $388 forward 7 unknown #
face $-1 $389 $390 $39 $-1 $391 reversed single #
loop $-1 $-1 $392 $163 #
plane-surface $-1 -48.041016876735739 0 0 1 0 0 0 0 -1 forward_v I I I I #
coedge $-1 $393 $271 $394 $395 forward $164 $-1 #
coedge $-1 $396 $166 $393 $397 forward $105 $-1 #
coedge $-1 $166 $396 $398 $399 forward $105 $-1 #
coedge $-1 $274 $273 $166 $267 reversed $275 $-1 #
edge $-1 $400 -20.768169568844787 $401 20.768169568844787 $266 $402 forward 7 unknown #
coedge $-1 $168 $167 $403 $404 forward $66 $-1 #
coedge $-1 $405 $406 $167 $270 reversed $390 $-1 #
edge $-1 $277 -48.041016876735739 $407 48.041016876735739 $269 $408 forward 7 unknown #
coedge $-1 $263 $409 $168 $272 reversed $164 $-1 #
edge $-1 $410 -48.041016876735739 $276 48.041016876735739 $271 $411 forward 7 unknown #
coedge $-1 $266 $169 $409 $412 forward $275 $-1 #
coedge $-1 $169 $266 $405 $413 reversed $275 $-1 #
loop $-1 $-1 $273 $389 #
vertex $-1 $170 $414 #
vertex $-1 $170 $415 #
straight-curve $-1 48.041016876735739 0 8.3773042281042578 0 1 0 I I #
face $-1 $416 $292 $40 $-1 $417 forward single #
loop $-1 $-1 $418 $171 #
plane-surface $-1 -48.041016876735739 0 0 1 0 0 0 0 -1 forward_v I I I I #
coedge $-1 $419 $420 $176 $289 forward $172 $-1 #
coedge $-1 $421 $174 $422 $423 reversed $109 $-1 #
coedge $-1 $174 $421 $419 $424 reversed $109 $-1 #
coedge $-1 $176 $175 $174 $286 reversed $69 $-1 #
edge $-1 $425 -20.768169568844787 $426 20.768169568844787 $285 $427 forward 7 unknown #
coedge $-1 $428 $422 $175 $288 forward $429 $-1 #
edge $-1 $426 1.9386521140521289 $293 4.9386521140521289 $287 $430 forward 7 unknown #
edge $-1 $294 -4.9386521140521289 $425 -1.9386521140521289 $282 $431 forward 7 unknown #
coedge $-1 $432 $177 $420 $433 forward $292 $-1 #
coedge $-1 $177 $432 $428 $434 forward $292 $-1 #
loop $-1 $-1 $177 $279 #
vertex $-1 $288 $435 #
vertex $-1 $433 $436 #
straight-curve $-1 -37.746512362724928 0 8.3773042281042578 0 1 0 I I #
face $-1 $437 $438 $41 $-1 $439 reversed single #
loop $-1 $-1 $440 $179 #
plane-surface $-1 0 -20.768169568844787 0 0 1 0 0 0 1 forward_v I I I I #
coedge $-1 $441 $442 $301 $443 forward $180 $-1 #
coedge $-1 $444 $182 $304 $445 reversed $113 $-1 #
coedge $-1 $182 $444 $299 $443 reversed $113 $-1 #
coedge $-1 $446 $307 $182 $303 forward $438 $-1 #
edge $-1 $447 1.9386521140521289 $448 4.9386521140521289 $302 $449 forward 7 unknown #
coedge $-1 $184 $183 $300 $445 forward $72 $-1 #
coedge $-1 $450 $440 $183 $306 forward $297 $-1 #
edge $-1 $451 16.299630052859762 $312 26.594134566870572 $305 $452 forward 7 unknown #
coedge $-1 $302 $453 $184 $308 forward $438 $-1 #
edge $-1 $313 -26.594134566870572 $447 -16.299630052859762 $307 $454 forward 7 unknown #
coedge $-1 $455 $185 $453 $456 reversed $311 $-1 #
coedge $-1 $185 $455 $450 $457 forward $311 $-1 #
loop $-1 $-1 $185 $437 #
vertex $-1 $306 $458 #
vertex $-1 $186 $459 #
straight-curve $-1 48.041016876735739 0 5.3773042281042578 0 1 0 I I #
face $-1 $-1 $460 $42 $-1 $461 reversed single #
loop $-1 $-1 $193 $187 #
plane-surface $-1 0 0 8.3773042281042578 0 0 1 1 0 0 forward_v I I I I #
coedge $-1 $462 $463 $464 $465 reversed $188 $-1 #
coedge $-1 $466 $190 $192 $325 forward $117 $-1 #
coedge $-1 $190 $466 $462 $467 forward $117 $-1 #
coedge $-1 $464 $193 $190 $322 forward $316 $-1 #
edge $-1 $328 -15.772213572676204 $468 6.3536222667615725 $321 $469 forward 7 unknown #
coedge $-1 $470 $471 $191 $324 forward $460 $-1 #
edge $-1 $472 -30.14949772833619 $327 -24.508682895160923 $323 $473 forward 7 unknown #
edge $-1 $328 -7.4741528649472526 $472 5.3472153159747578e-015 $192 $474 forward 7 unknown #
coedge $-1 $193 $464 $470 $475 forward $316 $-1 #
vertex $-1 $324 $476 #
vertex $-1 $194 $477 #
straight-curve $-1 20.48150922563352 -46.641100863130404 8.3773042281042578 0 1 0 I I #
coedge $-1 $330 $330 $-1 $478 reversed $197 $-1 #
edge $-1 $479 0 $479 6.2831853071796004 $198 $480 forward 7 unknown #
vertex $-1 $201 $481 #
ellipse-curve $-1 2.7808405540832979 -18.316426868925547 5.5568968115166237 0 -0.75470958851134928 0.65605901945558964 1.5 0 0 1 I I #
coedge $-1 $334 $334 $-1 $482 reversed $204 $-1 #
edge $-1 $483 0 $483 6.2831853071796004 $205 $484 forward 7 unknown #
vertex $-1 $208 $485 #
ellipse-curve $-1 9.4185913059146316 -18.316426868925547 5.5568968115166237 0 -0.75470958851134928 0.65605901945558964 1.5 0 0 1 I I #
coedge $-1 $338 $338 $-1 $486 reversed $211 $-1 #
edge $-1 $487 0 $487 6.2831853071796004 $212 $488 forward 7 unknown #
vertex $-1 $215 $489 #
ellipse-curve $-1 16.056342057745965 -18.316426868925547 5.5568968115166237 0 -0.75470958851134928 0.65605901945558964 1.5 0 0 1 I I #
face $-1 $-1 $490 $46 $-1 $491 forward single #
loop $-1 $-1 $348 $216 #
plane-surface $-1 0 0 8.3773042281042578 0 0 1 1 0 0 forward_v I I I I #
coedge $-1 $492 $493 $347 $494 forward $217 $-1 #
coedge $-1 $347 $219 $221 $353 reversed $136 $-1 #
coedge $-1 $219 $346 $345 $494 reversed $136 $-1 #
coedge $-1 $495 $222 $219 $349 forward $343 $-1 #
edge $-1 $356 -23.054392766111658 $496 -20.836572119885208 $348 $497 forward 7 unknown #
coedge $-1 $221 $220 $492 $498 reversed $87 $-1 #
coedge $-1 $499 $500 $220 $352 forward $490 $-1 #
edge $-1 $501 -26.974058322248712 $355 -22.538416910943042 $351 $502 forward 7 unknown #
edge $-1 $503 -41.536339137689588 $356 -37.10069772638392 $346 $504 forward 7 unknown #
coedge $-1 $222 $495 $499 $505 forward $343 $-1 #
vertex $-1 $352 $506 #
vertex $-1 $223 $507 #
straight-curve $-1 -15.204845128892339 18.55034892261834 8.3773042281042578 1 0 0 I I #
coedge $-1 $358 $358 $-1 $508 reversed $226 $-1 #
edge $-1 $509 0 $509 6.2831853071796004 $227 $510 forward 7 unknown #
vertex $-1 $230 $511 #
ellipse-curve $-1 -33.554042588473351 19.659259245731558 6.4566151388148638 0 0.86602541151947299 0.49999998660252726 0.5 0 0 1 I I #
coedge $-1 $362 $362 $-1 $512 reversed $233 $-1 #
edge $-1 $513 0 $513 6.2831853071796004 $234 $514 forward 7 unknown #
vertex $-1 $237 $515 #
ellipse-curve $-1 -27.265337927096002 19.659259245731558 6.4566151388148638 0 0.86602541151947299 0.49999998660252726 0.5 0 0 1 I I #
face $-1 $-1 $516 $49 $-1 $517 reversed single #
loop $-1 $-1 $244 $238 #
plane-surface $-1 0 0 8.3773042281042578 0 0 1 1 0 0 forward_v I I I I #
coedge $-1 $518 $519 $520 $521 reversed $239 $-1 #
coedge $-1 $522 $241 $243 $376 forward $150 $-1 #
coedge $-1 $241 $522 $518 $523 forward $150 $-1 #
coedge $-1 $520 $244 $241 $373 forward $367 $-1 #
edge $-1 $379 -3.668411052470117 $524 11.00523315741037 $372 $525 forward 7 unknown #
coedge $-1 $526 $527 $242 $375 forward $516 $-1 #
edge $-1 $528 -39.738307367341939 $378 -35.896929188763131 $374 $529 forward 7 unknown #
edge $-1 $379 37.10069772638392 $528 41.536339137689588 $243 $530 forward 7 unknown #
coedge $-1 $244 $520 $526 $531 forward $367 $-1 #
vertex $-1 $375 $532 #
vertex $-1 $245 $533 #
straight-curve $-1 9.7699626167013776e-015 41.604741688729995 8.3773042281042578 0 -1 0 I I #
coedge $-1 $381 $381 $-1 $534 reversed $248 $-1 #
edge $-1 $535 0 $535 6.2831853071796004 $249 $536 forward 7 unknown #
vertex $-1 $252 $537 #
ellipse-curve $-1 4.1924697742515775 19.659259245731558 6.4566151388148638 0 0.86602541151947299 0.49999998660252726 0.5 0 0 1 I I #
coedge $-1 $385 $385 $-1 $538 reversed $255 $-1 #
edge $-1 $539 0 $539 6.2831853071796004 $256 $540 forward 7 unknown #
vertex $-1 $259 $541 #
ellipse-curve $-1 10.48117443562893 19.659259245731558 6.4566151388148638 0 0.86602541151947299 0.49999998660252726 0.5 0 0 1 I I #
face $-1 $-1 $275 $39 $-1 $542 reversed single #
loop $-1 $-1 $405 $260 #
plane-surface $-1 0 20.768169568844787 0 0 -1 0 0 0 -1 forward_v I I I I #
coedge $-1 $543 $403 $406 $544 forward $261 $-1 #
coedge $-1 $409 $263 $264 $397 reversed $164 $-1 #
coedge $-1 $403 $543 $263 $395 reversed $261 $-1 #
edge $-1 $410 -8.3773042281042578 $545 8.3773042281042578 $394 $546 forward 7 unknown #
coedge $-1 $265 $264 $543 $547 forward $105 $-1 #
edge $-1 $401 -48.041016876735739 $545 48.041016876735739 $393 $548 forward 7 unknown #
coedge $-1 $406 $405 $265 $399 reversed $390 $-1 #
edge $-1 $549 -48.041016876735739 $400 48.041016876735739 $398 $550 forward 7 unknown #
vertex $-1 $267 $551 #
vertex $-1 $412 $552 #
straight-curve $-1 48.041016876735739 0 -8.3773042281042578 0 -1 0 I I #
coedge $-1 $392 $394 $268 $404 reversed $261 $-1 #
edge $-1 $407 -20.768169568844787 $410 20.768169568844787 $403 $553 forward 7 unknown #
coedge $-1 $398 $269 $274 $413 forward $390 $-1 #
coedge $-1 $269 $398 $392 $544 reversed $390 $-1 #
vertex $-1 $270 $554 #
straight-curve $-1 0 20.768169568844787 8.3773042281042578 -1 0 0 I I #
coedge $-1 $271 $393 $273 $412 reversed $164 $-1 #
vertex $-1 $404 $555 #
straight-curve $-1 0 -20.768169568844787 8.3773042281042578 1 0 0 I I #
edge $-1 $276 -8.3773042281042578 $401 8.3773042281042578 $273 $556 forward 7 unknown #
edge $-1 $277 -8.3773042281042578 $400 8.3773042281042578 $274 $557 forward 7 unknown #
point $-1 48.041016876735739 -20.768169568844787 8.3773042281042578 #
point $-1 48.041016876735739 20.768169568844787 8.3773042281042578 #
face $-1 $-1 $429 $40 $-1 $558 reversed single #
plane-surface $-1 0 0 8.3773042281042578 0 0 1 1 0 0 forward_v I I I I #
coedge $-1 $559 $560 $421 $561 forward $280 $-1 #
coedge $-1 $562 $282 $284 $424 forward $172 $-1 #
coedge $-1 $282 $562 $290 $433 reversed $172 $-1 #
coedge $-1 $284 $283 $418 $561 reversed $109 $-1 #
coedge $-1 $287 $563 $283 $423 forward $429 $-1 #
edge $-1 $564 -26.594134566870572 $426 -16.299630052859762 $422 $565 forward 7 unknown #
edge $-1 $425 16.299630052859762 $566 26.594134566870572 $419 $567 forward 7 unknown #
vertex $-1 $424 $568 #
vertex $-1 $423 $569 #
straight-curve $-1 -37.746512362724928 0 5.3773042281042578 0 -1 0 I I #
coedge $-1 $563 $287 $291 $434 reversed $429 $-1 #
loop $-1 $-1 $287 $416 #
straight-curve $-1 -37.746512362724928 -20.768169568844787 3.4386521140521289 0 0 1 I I #
straight-curve $-1 -37.746512362724928 20.768169568844787 3.4386521140521289 0 0 -1 I I #
coedge $-1 $291 $290 $570 $571 forward $292 $-1 #
edge $-1 $294 37.746512362724928 $572 48.041016876735739 $420 $573 forward 7 unknown #
edge $-1 $574 -48.041016876735739 $293 -37.746512362724928 $428 $575 forward 7 unknown #
point $-1 -37.746512362724928 -20.768169568844787 8.3773042281042578 #
point $-1 -37.746512362724928 20.768169568844787 8.3773042281042578 #
face $-1 $-1 $311 $41 $-1 $576 reversed single #
loop $-1 $-1 $302 $296 #
plane-surface $-1 0 20.768169568844787 0 0 -1 0 0 0 -1 forward_v I I I I #
coedge $-1 $305 $577 $444 $578 forward $297 $-1 #
coedge $-1 $579 $299 $577 $580 forward $180 $-1 #
coedge $-1 $299 $579 $446 $581 forward $180 $-1 #
edge $-1 $448 -20.768169568844787 $582 20.768169568844787 $299 $583 forward 7 unknown #
coedge $-1 $301 $300 $440 $578 reversed $113 $-1 #
edge $-1 $451 -20.768169568844787 $447 20.768169568844787 $300 $584 forward 7 unknown #
coedge $-1 $453 $302 $442 $581 reversed $438 $-1 #
vertex $-1 $308 $585 #
vertex $-1 $303 $586 #
straight-curve $-1 37.746512362724928 20.768169568844787 3.4386521140521289 0 0 1 I I #
coedge $-1 $577 $305 $310 $457 reversed $297 $-1 #
vertex $-1 $306 $587 #
straight-curve $-1 21.446882309865167 -20.768169568844787 5.3773042281042578 1 0 0 I I #
coedge $-1 $307 $446 $309 $456 forward $438 $-1 #
straight-curve $-1 21.446882309865167 20.768169568844787 5.3773042281042578 -1 0 0 I I #
coedge $-1 $310 $309 $579 $588 reversed $311 $-1 #
edge $-1 $589 -8.3773042281042578 $313 -5.3773042281042578 $309 $590 forward 7 unknown #
edge $-1 $591 -8.3773042281042578 $312 -5.3773042281042578 $310 $592 forward 7 unknown #
point $-1 48.041016876735739 -20.768169568844787 5.3773042281042578 #
point $-1 48.041016876735739 20.768169568844787 5.3773042281042578 #
loop $-1 $-1 $323 $315 #
plane-surface $-1 0 -20.768169568844787 0 0 1 0 0 0 1 forward_v I I I I #
coedge $-1 $463 $318 $320 $467 reversed $188 $-1 #
coedge $-1 $318 $462 $593 $594 reversed $188 $-1 #
coedge $-1 $326 $321 $318 $465 forward $316 $-1 #
edge $-1 $468 -30.776416694124102 $595 -25.872931294285618 $464 $596 forward 7 unknown #
coedge $-1 $320 $319 $471 $597 reversed $117 $-1 #
edge $-1 $598 -5.3472153159747578e-015 $468 7.4741528649472526 $462 $599 forward 7 unknown #
vertex $-1 $322 $600 #
straight-curve $-1 4.7092956529573158 -15.864684169006303 8.3773042281042578 -1 0 0 I I #
coedge $-1 $593 $323 $326 $475 reversed $460 $-1 #
coedge $-1 $323 $593 $466 $597 forward $460 $-1 #
vertex $-1 $324 $601 #
straight-curve $-1 20.48150922563352 -20.76816956884479 32.885987123265181 0 0 1 I I #
straight-curve $-1 20.48150922563352 -20.768169568844783 2.736489394928995 0 -0.65605901945558964 -0.75470958851134928 I I #
edge $-1 $595 -1.6443266138042567 $327 20.48150922563352 $470 $602 forward 7 unknown #
point $-1 20.48150922563352 -20.768169568844787 8.3773042281042578 #
point $-1 20.48150922563352 -15.864684169006303 8.3773042281042578 #
edge $-1 $603 1 $603 0 $330 $-1 forward 7 unknown #
vertex $-1 $331 $604 #
ellipse-curve $-1 2.7808405540832979 -16.746869542679448 4.1925014783826464 0 -0.75470958851134928 0.65605901945558964 1.5 0 0 1 I I #
point $-1 4.2808405540832979 -18.31642686892555 5.5568968115166291 #
edge $-1 $605 1 $605 0 $334 $-1 forward 7 unknown #
vertex $-1 $335 $606 #
ellipse-curve $-1 9.4185913059146316 -16.746869542679448 4.1925014783826464 0 -0.75470958851134928 0.65605901945558964 1.5 0 0 1 I I #
point $-1 10.918591305914632 -18.31642686892555 5.5568968115166291 #
edge $-1 $607 1 $607 0 $338 $-1 forward 7 unknown #
vertex $-1 $339 $608 #
ellipse-curve $-1 16.056342057745965 -16.746869542679448 4.1925014783826464 0 -0.75470958851134928 0.65605901945558964 1.5 0 0 1 I I #
point $-1 17.556342057745965 -18.31642686892555 5.5568968115166291 #
loop $-1 $-1 $351 $342 #
plane-surface $-1 -37.746512362724928 0 6.8773042281042578 -1 0 0 0 0 1 forward_v I I I I #
coedge $-1 $609 $345 $350 $498 forward $217 $-1 #
coedge $-1 $345 $609 $495 $610 reversed $217 $-1 #
edge $-1 $496 35.896929188763131 $503 39.738307367341939 $345 $611 forward 7 unknown #
coedge $-1 $354 $348 $493 $610 forward $343 $-1 #
vertex $-1 $610 $612 #
straight-curve $-1 -23.072868152844435 41.604741688729995 8.3773042281042578 0 1 0 I I #
edge $-1 $503 7.8680230239520963 $501 22.541667233832584 $492 $613 forward 7 unknown #
coedge $-1 $500 $351 $354 $505 reversed $490 $-1 #
coedge $-1 $351 $499 $609 $614 reversed $490 $-1 #
vertex $-1 $614 $615 #
straight-curve $-1 -37.746512362724928 7.2811407691046428 27.896146008401157 0 -0.49999998660252726 0.86602541151947299 I I #
vertex $-1 $498 $616 #
straight-curve $-1 -23.072868152844435 5.5648196450874821e-007 40.507451244255471 0 -0.49999998660252726 0.86602541151947299 I I #
edge $-1 $617 -20.768169568844787 $355 -18.550348922618337 $354 $618 forward 7 unknown #
point $-1 -37.746512362724921 18.550348922618337 8.3773042281042578 #
point $-1 -23.072868152844435 18.550348922618337 8.3773042281042578 #
edge $-1 $619 1 $619 0 $358 $-1 forward 7 unknown #
vertex $-1 $359 $620 #
ellipse-curve $-1 -33.554042588473351 18.793233834212099 5.9566151522123461 0 0.86602541151947299 0.49999998660252726 0.5 0 0 1 I I #
point $-1 -33.054042588473351 19.659259245731572 6.4566151388148727 #
edge $-1 $621 1 $621 0 $362 $-1 forward 7 unknown #
vertex $-1 $363 $622 #
ellipse-curve $-1 -27.265337927096002 18.793233834212099 5.9566151522123461 0 0.86602541151947299 0.49999998660252726 0.5 0 0 1 I I #
point $-1 -26.765337927096002 19.659259245731572 6.4566151388148727 #
loop $-1 $-1 $374 $366 #
plane-surface $-1 0 20.768169568844787 0 0 -1 0 0 0 -1 forward_v I I I I #
coedge $-1 $519 $369 $371 $523 reversed $239 $-1 #
coedge $-1 $369 $518 $623 $624 reversed $239 $-1 #
coedge $-1 $377 $372 $369 $521 forward $367 $-1 #
edge $-1 $524 -23.054392766111658 $625 -20.836572119885208 $520 $626 forward 7 unknown #
coedge $-1 $371 $370 $527 $627 reversed $150 $-1 #
edge $-1 $628 -41.536339137689588 $524 -37.10069772638392 $518 $629 forward 7 unknown #
vertex $-1 $373 $630 #
straight-curve $-1 3.6684110524701268 18.55034892261834 8.3773042281042578 1 0 0 I I #
coedge $-1 $623 $374 $377 $531 reversed $516 $-1 #
coedge $-1 $374 $623 $522 $627 forward $516 $-1 #
vertex $-1 $375 $631 #
straight-curve $-1 9.7699626167013776e-015 20.768169568844787 44.274233416867389 0 0 1 I I #
straight-curve $-1 9.7699626167013776e-015 5.5648196450874821e-007 40.507451244255471 0 0.49999998660252726 -0.86602541151947299 I I #
edge $-1 $625 -14.673644209880496 $378 -9.7699626167013776e-015 $526 $632 forward 7 unknown #
point $-1 9.7699626167013776e-015 20.768169568844787 8.3773042281042578 #
point $-1 9.7699626167013776e-015 18.550348922618337 8.3773042281042578 #
edge $-1 $633 1 $633 0 $381 $-1 forward 7 unknown #
vertex $-1 $382 $634 #
ellipse-curve $-1 4.1924697742515775 18.793233834212099 5.9566151522123461 0 0.86602541151947299 0.49999998660252726 0.5 0 0 1 I I #
point $-1 4.6924697742515775 19.659259245731572 6.4566151388148727 #
edge $-1 $635 1 $635 0 $385 $-1 forward 7 unknown #
vertex $-1 $386 $636 #
ellipse-curve $-1 10.48117443562893 18.793233834212099 5.9566151522123461 0 0.86602541151947299 0.49999998660252726 0.5 0 0 1 I I #
point $-1 10.98117443562893 19.659259245731572 6.4566151388148727 #
plane-surface $-1 48.041016876735739 0 0 -1 0 0 0 0 1 forward_v I I I I #
coedge $-1 $394 $392 $396 $547 reversed $261 $-1 #
edge $-1 $407 -8.3773042281042578 $549 8.3773042281042578 $406 $637 forward 7 unknown #
vertex $-1 $547 $638 #
straight-curve $-1 -48.041016876735739 -20.768169568844787 0 0 0 -1 I I #
edge $-1 $545 -20.768169568844787 $549 20.768169568844787 $543 $639 forward 7 unknown #
straight-curve $-1 0 -20.768169568844787 -8.3773042281042578 -1 0 0 I I #
vertex $-1 $399 $640 #
straight-curve $-1 0 20.768169568844787 -8.3773042281042578 1 0 0 I I #
point $-1 48.041016876735739 20.768169568844787 -8.3773042281042578 #
point $-1 48.041016876735739 -20.768169568844787 -8.3773042281042578 #
straight-curve $-1 -48.041016876735739 0 8.3773042281042578 0 -1 0 I I #
point $-1 -48.041016876735739 20.768169568844787 8.3773042281042578 #
point $-1 -48.041016876735739 -20.768169568844787 8.3773042281042578 #
straight-curve $-1 48.041016876735739 -20.768169568844787 0 0 0 -1 I I #
straight-curve $-1 48.041016876735739 20.768169568844787 0 0 0 -1 I I #
plane-surface $-1 0 -20.768169568844787 0 0 1 0 0 0 1 forward_v I I I I #
coedge $-1 $570 $418 $563 $641 reversed $280 $-1 #
coedge $-1 $418 $570 $562 $642 forward $280 $-1 #
edge $-1 $566 -20.768169568844787 $564 20.768169568844787 $418 $643 forward 7 unknown #
coedge $-1 $420 $419 $560 $642 reversed $172 $-1 #
coedge $-1 $422 $428 $559 $641 forward $429 $-1 #
vertex $-1 $561 $644 #
straight-curve $-1 -21.446882309865167 -20.768169568844787 5.3773042281042578 1 0 0 I I #
vertex $-1 $561 $645 #
straight-curve $-1 -21.446882309865167 20.768169568844787 5.3773042281042578 -1 0 0 I I #
point $-1 -37.746512362724928 20.768169568844787 5.3773042281042578 #
point $-1 -37.746512362724928 -20.768169568844787 5.3773042281042578 #
coedge $-1 $560 $559 $432 $571 reversed $280 $-1 #
edge $-1 $572 -20.768169568844787 $574 20.768169568844787 $570 $646 forward 7 unknown #
vertex $-1 $433 $647 #
straight-curve $-1 0 20.768169568844787 8.3773042281042578 -1 0 0 I I #
vertex $-1 $571 $648 #
straight-curve $-1 0 -20.768169568844787 8.3773042281042578 1 0 0 I I #
plane-surface $-1 48.041016876735739 0 0 -1 0 0 0 0 1 forward_v I I I I #
coedge $-1 $440 $450 $441 $580 reversed $297 $-1 #
edge $-1 $582 -4.9386521140521289 $451 -1.9386521140521289 $440 $649 forward 7 unknown #
coedge $-1 $442 $441 $455 $588 forward $180 $-1 #
edge $-1 $582 37.746512362724928 $591 48.041016876735739 $577 $650 forward 7 unknown #
edge $-1 $589 -48.041016876735739 $448 -37.746512362724928 $446 $651 forward 7 unknown #
vertex $-1 $580 $652 #
straight-curve $-1 37.746512362724928 0 8.3773042281042578 0 -1 0 I I #
straight-curve $-1 37.746512362724928 0 5.3773042281042578 0 1 0 I I #
point $-1 37.746512362724928 20.768169568844787 5.3773042281042578 #
point $-1 37.746512362724928 20.768169568844787 8.3773042281042578 #
point $-1 37.746512362724928 -20.768169568844787 5.3773042281042578 #
edge $-1 $591 -20.768169568844787 $589 20.768169568844787 $455 $653 forward 7 unknown #
vertex $-1 $588 $654 #
straight-curve $-1 48.041016876735739 20.768169568844787 0 0 0 -1 I I #
vertex $-1 $588 $655 #
straight-curve $-1 48.041016876735739 -20.768169568844787 0 0 0 -1 I I #
coedge $-1 $471 $470 $463 $594 forward $460 $-1 #
edge $-1 $595 24.508682895160923 $598 30.14949772833619 $593 $656 forward 7 unknown #
vertex $-1 $475 $657 #
straight-curve $-1 -1.6443266138042567 -46.641100863130404 8.3773042281042578 0 -1 0 I I #
edge $-1 $598 -6.3536222667615725 $472 15.772213572676204 $471 $658 forward 7 unknown #
vertex $-1 $597 $659 #
straight-curve $-1 -1.6443266138042567 -20.768169568844783 2.736489394928995 0 0.65605901945558964 0.75470958851134928 I I #
point $-1 -1.6443266138042567 -15.864684169006303 8.3773042281042578 #
point $-1 20.48150922563352 -20.768169568844787 2.736489394928991 #
straight-curve $-1 0 -20.768169568844787 8.3773042281042578 1 0 0 I I #
vertex $-1 $478 $660 #
point $-1 4.2808405540832979 -16.746869542679448 4.1925014783826464 #
vertex $-1 $482 $661 #
point $-1 10.918591305914632 -16.746869542679448 4.1925014783826464 #
vertex $-1 $486 $662 #
point $-1 17.556342057745965 -16.746869542679448 4.1925014783826464 #
coedge $-1 $493 $492 $500 $614 forward $217 $-1 #
edge $-1 $496 23.072868152844435 $617 37.746512362724928 $493 $663 forward 7 unknown #
straight-curve $-1 -23.072868152844435 20.768169568844787 44.274233416867389 0 0 -1 I I #
point $-1 -23.072868152844435 20.768169568844787 8.3773042281042578 #
straight-curve $-1 -15.204845128892339 20.768169568844787 4.5359260495254539 -1 0 0 I I #
edge $-1 $501 -39.738307367341939 $617 -35.896929188763131 $609 $664 forward 7 unknown #
point $-1 -37.746512362724921 20.768169568844787 4.5359260495254503 #
point $-1 -23.072868152844435 20.768169568844787 4.5359260495254503 #
vertex $-1 $505 $665 #
straight-curve $-1 -37.746512362724928 0 8.3773042281042578 0 -1 0 I I #
vertex $-1 $508 $666 #
point $-1 -33.054042588473351 18.793233834212099 5.9566151522123461 #
vertex $-1 $512 $667 #
point $-1 -26.765337927096002 18.793233834212099 5.9566151522123461 #
coedge $-1 $527 $526 $519 $624 forward $516 $-1 #
edge $-1 $625 35.896929188763131 $628 39.738307367341939 $623 $668 forward 7 unknown #
vertex $-1 $531 $669 #
straight-curve $-1 14.673644209880496 41.604741688729995 8.3773042281042578 0 1 0 I I #
edge $-1 $628 -11.00523315741037 $528 3.668411052470117 $527 $670 forward 7 unknown #
vertex $-1 $627 $671 #
straight-curve $-1 14.673644209880496 5.5648196450874821e-007 40.507451244255471 0 -0.49999998660252726 0.86602541151947299 I I #
point $-1 14.673644209880496 18.550348922618337 8.3773042281042578 #
point $-1 9.7699626167013776e-015 20.768169568844787 4.5359260495254503 #
straight-curve $-1 0 20.768169568844787 8.3773042281042578 -1 0 0 I I #
vertex $-1 $534 $672 #
point $-1 4.6924697742515775 18.793233834212099 5.9566151522123461 #
vertex $-1 $538 $673 #
point $-1 10.98117443562893 18.793233834212099 5.9566151522123461 #
straight-curve $-1 -48.041016876735739 20.768169568844787 0 0 0 -1 I I #
point $-1 -48.041016876735739 -20.768169568844787 -8.3773042281042578 #
straight-curve $-1 -48.041016876735739 0 -8.3773042281042578 0 1 0 I I #
point $-1 -48.041016876735739 20.768169568844787 -8.3773042281042578 #
edge $-1 $574 -8.3773042281042578 $564 -5.3773042281042578 $559 $674 forward 7 unknown #
edge $-1 $572 -8.3773042281042578 $566 -5.3773042281042578 $562 $675 forward 7 unknown #
straight-curve $-1 -48.041016876735739 0 5.3773042281042578 0 -1 0 I I #
point $-1 -48.041016876735739 -20.768169568844787 5.3773042281042578 #
point $-1 -48.041016876735739 20.768169568844787 5.3773042281042578 #
straight-curve $-1 -48.041016876735739 0 8.3773042281042578 0 -1 0 I I #
point $-1 -48.041016876735739 20.768169568844787 8.3773042281042578 #
point $-1 -48.041016876735739 -20.768169568844787 8.3773042281042578 #
straight-curve $-1 37.746512362724928 -20.768169568844787 3.4386521140521289 0 0 -1 I I #
straight-curve $-1 0 -20.768169568844787 8.3773042281042578 1 0 0 I I #
straight-curve $-1 0 20.768169568844787 8.3773042281042578 -1 0 0 I I #
point $-1 37.746512362724928 -20.768169568844787 8.3773042281042578 #
straight-curve $-1 48.041016876735739 0 8.3773042281042578 0 1 0 I I #
point $-1 48.041016876735739 20.768169568844787 8.3773042281042578 #
point $-1 48.041016876735739 -20.768169568844787 8.3773042281042578 #
straight-curve $-1 -1.6443266138042567 -20.76816956884479 32.885987123265181 0 0 -1 I I #
point $-1 -1.6443266138042567 -20.768169568844787 8.3773042281042578 #
straight-curve $-1 4.7092956529573158 -20.768169568844787 2.736489394928987 1 0 0 I I #
point $-1 -1.6443266138042567 -20.768169568844787 2.736489394928991 #
point $-1 2.7808405540832979 -15.614805159912427 3.2084129491992628 #
point $-1 9.4185913059146316 -15.614805159912427 3.2084129491992628 #
point $-1 16.056342057745965 -15.614805159912427 3.2084129491992628 #
straight-curve $-1 0 20.768169568844787 8.3773042281042578 -1 0 0 I I #
straight-curve $-1 -37.746512362724921 20.768169568844787 44.274233416867389 0 0 1 I I #
point $-1 -37.746512362724928 20.768169568844787 8.3773042281042578 #
point $-1 -33.554042588473351 18.360221128452363 5.7066151589110818 #
point $-1 -27.265337927096002 18.360221128452363 5.7066151589110818 #
straight-curve $-1 14.673644209880496 20.768169568844787 44.274233416867389 0 0 -1 I I #
point $-1 14.673644209880496 20.768169568844787 8.3773042281042578 #
straight-curve $-1 3.6684110524701268 20.768169568844787 4.5359260495254539 -1 0 0 I I #
point $-1 14.673644209880496 20.768169568844787 4.5359260495254503 #
point $-1 4.1924697742515775 18.360221128452363 5.7066151589110818 #
point $-1 10.48117443562893 18.360221128452363 5.7066151589110818 #
straight-curve $-1 -48.041016876735739 -20.768169568844787 0 0 0 -1 I I #
straight-curve $-1 -48.041016876735739 20.768169568844787 0 0 0 -1 I I #
End-of-ACIS-data 