500 0 5 0           
7 Unknown 11 ACIS 5.0 NT 24 Fri Mar 26 01:03:37 1999 
-1 9.9999999999999995e-007 1e-010 
body $-1 $5 $-1 $6 #
body $-1 $7 $-1 $8 #
body $-1 $9 $-1 $10 #
body $-1 $11 $-1 $12 #
body $-1 $13 $-1 $14 #
lump $-1 $-1 $15 $0 #
transform $-1 1 0 0 0 1 0 0 0 1 79.313943906979588 54.75874190605321 11.677698193033192 1 rotate no_reflect no_shear #
lump $-1 $-1 $16 $1 #
transform $-1 1 0 0 0 1 0 0 0 1 79.313943906979588 54.75874190605321 11.677698193033192 1 rotate no_reflect no_shear #
lump $-1 $-1 $17 $2 #
transform $-1 1 0 0 0 1 0 0 0 1 79.313943906979588 54.75874190605321 11.677698193033192 1 rotate no_reflect no_shear #
lump $-1 $-1 $18 $3 #
transform $-1 1 0 0 0 1 0 0 0 1 79.313943906979588 54.75874190605321 11.677698193033192 1 rotate no_reflect no_shear #
lump $-1 $-1 $19 $4 #
transform $-1 1 0 0 0 1 0 0 0 1 79.313943906979588 54.75874190605321 11.677698193033192 1 rotate no_reflect no_shear #
shell $-1 $-1 $-1 $20 $-1 $5 #
shell $-1 $-1 $-1 $21 $-1 $7 #
shell $-1 $-1 $-1 $22 $-1 $9 #
shell $-1 $-1 $-1 $23 $-1 $11 #
shell $-1 $-1 $-1 $24 $-1 $13 #
face $-1 $25 $26 $15 $-1 $27 forward single #
face $-1 $28 $29 $16 $-1 $30 forward single #
face $-1 $31 $32 $17 $-1 $33 forward single #
face $-1 $34 $35 $18 $-1 $36 reversed single #
face $-1 $37 $38 $19 $-1 $39 reversed single #
face $-1 $40 $41 $15 $-1 $42 reversed single #
loop $-1 $-1 $43 $20 #
plane-surface $-1 0 0 11.677698193033192 0 0 1 1 0 0 forward_v I I I I #
face $-1 $44 $45 $16 $-1 $46 reversed single #
loop $-1 $-1 $47 $21 #
plane-surface $-1 0 -60.384607635336906 -5.5747314741875185 0 0 1 1 0 0 forward_v I I I I #
face $-1 $48 $49 $17 $-1 $50 forward single #
loop $-1 $-1 $51 $22 #
plane-surface $-1 18.801365801341127 52.668223821965363 199.81317081088113 1 0 0 0 -0.55919291073839883 -0.82903756765294845 forward_v I I I I #
face $-1 $52 $53 $18 $-1 $54 reversed single #
loop $-1 $55 $56 $23 #
cone-surface $-1 27.227761306849018 50.814800768287931 8.594564301705141 0 -0.55919291073839883 -0.82903756765294845 1 0 0 1 I I 0 1 1 forward I I I I #
face $-1 $57 $58 $19 $-1 $59 reversed single #
loop $-1 $60 $61 $24 #
cone-surface $-1 39.867354565110872 50.814800768287931 8.594564301705141 0 -0.55919291073839883 -0.82903756765294845 1 0 0 1 I I 0 1 1 forward I I I I #
face $-1 $62 $63 $15 $-1 $64 reversed single #
loop $-1 $-1 $65 $25 #
plane-surface $-1 0 0 -11.677698193033192 0 0 1 1 0 0 forward_v I I I I #
coedge $-1 $66 $67 $68 $69 forward $26 $-1 #
face $-1 $70 $71 $16 $-1 $72 forward single #
loop $-1 $-1 $73 $28 #
plane-surface $-1 0 -66.010473364620594 -8.626214833610355 0 1 0 0 0 1 forward_v I I I I #
coedge $-1 $74 $75 $76 $77 forward $29 $-1 #
face $-1 $78 $79 $17 $-1 $80 forward single #
loop $-1 $-1 $81 $31 #
plane-surface $-1 33.547557935979953 -36.035366489006655 68.304692535671649 0 0.55919291073839883 0.82903756765294845 1 0 0 forward_v I I I I #
coedge $-1 $82 $83 $84 $85 reversed $32 $-1 #
face $-1 $86 $87 $18 $-1 $88 forward single #
loop $-1 $89 $90 $34 #
cone-surface $-1 27.227761306849018 50.011832378151276 7.4041147300500416 0 -0.55919291073839883 -0.82903756765294845 0.5 0 0 1 I I -0.70710678118654746 0.70710678118654746 0.5 forward I I I I #
loop $-1 $-1 $91 $23 #
coedge $-1 $56 $56 $92 $93 reversed $35 $-1 #
face $-1 $94 $95 $19 $-1 $96 reversed single #
loop $-1 $97 $98 $37 #
cone-surface $-1 39.867354565110872 50.011832378151276 7.4041147300500416 0 -0.55919291073839883 -0.82903756765294845 0.5 0 0 1 I I -0.70710678118654746 0.70710678118654746 0.5 forward I I I I #
loop $-1 $-1 $99 $24 #
coedge $-1 $61 $61 $100 $101 reversed $38 $-1 #
face $-1 $102 $103 $15 $-1 $104 reversed single #
loop $-1 $-1 $105 $40 #
plane-surface $-1 0 -54.75874190605321 0 0 1 0 0 0 1 forward_v I I I I #
coedge $-1 $106 $107 $108 $109 forward $41 $-1 #
coedge $-1 $110 $43 $111 $112 forward $26 $-1 #
coedge $-1 $43 $110 $113 $114 forward $26 $-1 #
coedge $-1 $115 $116 $43 $69 reversed $117 $-1 #
edge $-1 $118 -54.75874190605321 $119 54.75874190605321 $68 $120 forward 7 unknown #
face $-1 $121 $122 $16 $-1 $123 reversed single #
loop $-1 $-1 $124 $44 #
plane-surface $-1 0 0 11.677698193033192 0 0 1 1 0 0 forward_v I I I I #
coedge $-1 $125 $126 $127 $128 forward $45 $-1 #
coedge $-1 $129 $47 $130 $131 reversed $29 $-1 #
coedge $-1 $47 $129 $126 $132 forward $29 $-1 #
coedge $-1 $133 $134 $47 $77 reversed $135 $-1 #
edge $-1 $136 -5.6258657292836887 $137 5.6258657292836958 $76 $138 forward 7 unknown #
face $-1 $139 $140 $17 $-1 $141 forward single #
loop $-1 $-1 $142 $48 #
plane-surface $-1 48.293750070618778 52.668223821965363 199.81317081088113 -1 0 0 0 0.55919291073839883 0.82903756765294845 forward_v I I I I #
coedge $-1 $143 $144 $145 $146 reversed $49 $-1 #
coedge $-1 $83 $51 $144 $147 forward $32 $-1 #
coedge $-1 $51 $82 $148 $149 reversed $32 $-1 #
coedge $-1 $150 $145 $51 $85 forward $140 $-1 #
edge $-1 $151 21.583491589074864 $152 28.424629995070529 $84 $153 forward 7 unknown #
face $-1 $154 $155 $18 $-1 $156 forward single #
loop $-1 $-1 $157 $52 #
plane-surface $-1 18.801365801341127 52.668223821965363 199.81317081088113 1 0 0 0 -0.55919291073839883 -0.82903756765294845 forward_v I I I I #
loop $-1 $-1 $158 $34 #
coedge $-1 $90 $90 $91 $159 forward $53 $-1 #
coedge $-1 $91 $91 $90 $159 reversed $55 $-1 #
coedge $-1 $92 $92 $56 $93 forward $155 $-1 #
edge $-1 $160 4.8280493666204845e-015 $160 6.2831853071796049 $92 $161 forward 7 unknown #
face $-1 $162 $163 $19 $-1 $164 reversed single #
loop $-1 $165 $166 $57 #
cone-surface $-1 27.227761306849018 50.814800768287931 8.594564301705141 0 -0.55919291073839883 -0.82903756765294845 1 0 0 1 I I 0 1 1 forward I I I I #
loop $-1 $-1 $167 $37 #
coedge $-1 $98 $98 $99 $168 forward $58 $-1 #
coedge $-1 $99 $99 $98 $168 reversed $60 $-1 #
coedge $-1 $100 $100 $61 $101 forward $169 $-1 #
edge $-1 $170 4.8280493666204845e-015 $170 6.2831853071796049 $100 $171 forward 7 unknown #
face $-1 $172 $173 $15 $-1 $174 reversed single #
loop $-1 $-1 $175 $62 #
plane-surface $-1 -79.313943906979588 0 0 1 0 0 0 0 -1 forward_v I I I I #
coedge $-1 $176 $113 $177 $178 forward $63 $-1 #
coedge $-1 $179 $65 $176 $180 forward $41 $-1 #
coedge $-1 $65 $179 $181 $182 forward $41 $-1 #
coedge $-1 $116 $115 $65 $109 reversed $117 $-1 #
edge $-1 $183 -54.75874190605321 $184 54.75874190605321 $108 $185 forward 7 unknown #
coedge $-1 $67 $66 $186 $187 forward $26 $-1 #
coedge $-1 $188 $189 $66 $112 reversed $173 $-1 #
edge $-1 $119 -79.313943906979588 $190 79.313943906979588 $111 $191 forward 7 unknown #
coedge $-1 $105 $192 $67 $114 reversed $63 $-1 #
edge $-1 $193 -79.313943906979588 $118 79.313943906979588 $113 $194 forward 7 unknown #
coedge $-1 $108 $68 $192 $195 forward $117 $-1 #
coedge $-1 $68 $108 $188 $196 reversed $117 $-1 #
loop $-1 $-1 $115 $172 #
vertex $-1 $69 $197 #
vertex $-1 $69 $198 #
straight-curve $-1 79.313943906979588 0 11.677698193033192 0 1 0 I I #
face $-1 $199 $200 $16 $-1 $201 reversed single #
loop $-1 $-1 $202 $70 #
plane-surface $-1 0 0 -11.677698193033192 0 0 1 1 0 0 forward_v I I I I #
coedge $-1 $203 $204 $205 $206 forward $71 $-1 #
coedge $-1 $207 $73 $208 $209 reversed $45 $-1 #
coedge $-1 $73 $207 $75 $132 reversed $45 $-1 #
coedge $-1 $210 $211 $73 $128 reversed $212 $-1 #
edge $-1 $213 -3.0514833594228365 $214 3.0514833594228357 $127 $215 forward 7 unknown #
coedge $-1 $75 $74 $210 $216 forward $29 $-1 #
coedge $-1 $217 $218 $74 $131 forward $200 $-1 #
edge $-1 $219 -79.313943906979588 $137 79.313943906979588 $130 $220 forward 7 unknown #
edge $-1 $213 -79.313943906979588 $136 79.313943906979588 $126 $221 forward 7 unknown #
coedge $-1 $222 $76 $207 $223 forward $135 $-1 #
coedge $-1 $76 $205 $217 $224 forward $135 $-1 #
loop $-1 $-1 $134 $225 #
vertex $-1 $77 $226 #
vertex $-1 $77 $227 #
straight-curve $-1 79.313943906979588 -60.384607635336906 -5.5747314741875185 0 1 0 I I #
face $-1 $228 $229 $17 $-1 $230 forward single #
loop $-1 $-1 $231 $78 #
plane-surface $-1 0 0 11.677698193033192 0 0 1 1 0 0 forward_v I I I I #
coedge $-1 $232 $233 $231 $234 reversed $79 $-1 #
coedge $-1 $235 $81 $233 $236 reversed $49 $-1 #
coedge $-1 $81 $235 $82 $147 reversed $49 $-1 #
coedge $-1 $84 $231 $81 $146 forward $140 $-1 #
edge $-1 $237 -31.519971102628801 $151 -2.0275868333511511 $145 $238 forward 7 unknown #
edge $-1 $151 101.26557982980161 $239 109.51748381210641 $82 $240 forward 7 unknown #
coedge $-1 $241 $242 $83 $149 forward $243 $-1 #
edge $-1 $152 88.228887212407372 $239 92.84329341940618 $148 $244 forward 7 unknown #
coedge $-1 $245 $84 $242 $246 forward $140 $-1 #
vertex $-1 $146 $247 #
vertex $-1 $246 $248 #
straight-curve $-1 18.801365801341127 26.334111910982681 11.677698193033194 0 1 0 I I #
face $-1 $249 $250 $18 $-1 $251 forward single #
loop $-1 $252 $92 $86 #
plane-surface $-1 33.547557935979953 -36.035366489006655 68.304692535671649 0 0.55919291073839883 0.82903756765294845 1 0 0 forward_v I I I I #
coedge $-1 $253 $254 $255 $256 reversed $87 $-1 #
coedge $-1 $158 $158 $-1 $257 forward $89 $-1 #
edge $-1 $258 0 $258 6.2831853071796004 $90 $259 forward 7 unknown #
vertex $-1 $93 $260 #
ellipse-curve $-1 27.227761306849018 51.338172703055399 9.3704950895337813 0 -0.55919291073839883 -0.82903756765294845 1 0 0 1 I I #
face $-1 $261 $262 $19 $-1 $263 forward single #
loop $-1 $264 $265 $94 #
cone-surface $-1 27.227761306849018 50.011832378151276 7.4041147300500416 0 -0.55919291073839883 -0.82903756765294845 0.5 0 0 1 I I -0.70710678118654746 0.70710678118654746 0.5 forward I I I I #
loop $-1 $-1 $266 $57 #
coedge $-1 $166 $166 $267 $268 reversed $95 $-1 #
coedge $-1 $167 $167 $-1 $269 forward $97 $-1 #
edge $-1 $270 0 $270 6.2831853071796004 $98 $271 forward 7 unknown #
loop $-1 $272 $100 $261 #
vertex $-1 $101 $273 #
ellipse-curve $-1 39.867354565110872 51.338172703055399 9.3704950895337813 0 -0.55919291073839883 -0.82903756765294845 1 0 0 1 I I #
face $-1 $-1 $117 $15 $-1 $274 reversed single #
loop $-1 $-1 $188 $102 #
plane-surface $-1 0 54.75874190605321 0 0 -1 0 0 0 -1 forward_v I I I I #
coedge $-1 $275 $186 $189 $276 forward $103 $-1 #
coedge $-1 $192 $105 $106 $180 reversed $63 $-1 #
coedge $-1 $186 $275 $105 $178 reversed $103 $-1 #
edge $-1 $193 -11.677698193033192 $277 11.677698193033192 $177 $278 forward 7 unknown #
coedge $-1 $107 $106 $275 $279 forward $41 $-1 #
edge $-1 $184 -79.313943906979588 $277 79.313943906979588 $176 $280 forward 7 unknown #
coedge $-1 $189 $188 $107 $182 reversed $173 $-1 #
edge $-1 $281 -79.313943906979588 $183 79.313943906979588 $181 $282 forward 7 unknown #
vertex $-1 $109 $283 #
vertex $-1 $195 $284 #
straight-curve $-1 79.313943906979588 0 -11.677698193033192 0 -1 0 I I #
coedge $-1 $175 $177 $110 $187 reversed $103 $-1 #
edge $-1 $190 -54.75874190605321 $193 54.75874190605321 $186 $285 forward 7 unknown #
coedge $-1 $181 $111 $116 $196 forward $173 $-1 #
coedge $-1 $111 $181 $175 $276 reversed $173 $-1 #
vertex $-1 $112 $286 #
straight-curve $-1 0 54.75874190605321 11.677698193033192 -1 0 0 I I #
coedge $-1 $113 $176 $115 $195 reversed $63 $-1 #
vertex $-1 $187 $287 #
straight-curve $-1 0 -54.75874190605321 11.677698193033192 1 0 0 I I #
edge $-1 $118 -11.677698193033192 $184 11.677698193033192 $115 $288 forward 7 unknown #
edge $-1 $119 -11.677698193033192 $183 11.677698193033192 $116 $289 forward 7 unknown #
point $-1 79.313943906979588 -54.75874190605321 11.677698193033192 #
point $-1 79.313943906979588 54.75874190605321 11.677698193033192 #
face $-1 $290 $212 $16 $-1 $291 reversed single #
loop $-1 $-1 $130 $121 #
plane-surface $-1 0 -54.75874190605321 0 0 1 0 0 0 1 forward_v I I I I #
coedge $-1 $208 $292 $222 $293 forward $122 $-1 #
coedge $-1 $294 $124 $295 $296 forward $71 $-1 #
coedge $-1 $124 $294 $297 $298 forward $71 $-1 #
coedge $-1 $134 $299 $124 $206 reversed $135 $-1 #
edge $-1 $300 -54.75874190605321 $301 54.75874190605321 $205 $302 forward 7 unknown #
coedge $-1 $126 $125 $133 $223 reversed $45 $-1 #
coedge $-1 $303 $202 $125 $209 forward $122 $-1 #
edge $-1 $304 -79.313943906979588 $214 79.313943906979588 $125 $305 forward 7 unknown #
coedge $-1 $306 $127 $129 $216 reversed $212 $-1 #
coedge $-1 $127 $307 $303 $308 reversed $212 $-1 #
loop $-1 $-1 $307 $199 #
vertex $-1 $216 $309 #
vertex $-1 $308 $310 #
straight-curve $-1 -79.313943906979588 -66.010473364620594 -8.626214833610355 0 0 -1 I I #
edge $-1 $219 -5.6258657292836958 $213 5.6258657292836887 $210 $311 forward 7 unknown #
coedge $-1 $297 $130 $134 $224 reversed $200 $-1 #
coedge $-1 $130 $297 $306 $312 forward $200 $-1 #
vertex $-1 $312 $313 #
straight-curve $-1 0 -54.75874190605321 -5.5747314741875185 1 0 0 I I #
straight-curve $-1 0 -66.010473364620594 -5.5747314741875185 1 0 0 I I #
coedge $-1 $299 $133 $202 $293 reversed $135 $-1 #
edge $-1 $136 -3.0514833594228365 $304 3.0514833594228357 $133 $314 forward 7 unknown #
edge $-1 $300 -11.677698193033192 $137 5.5747314741875185 $134 $315 forward 7 unknown #
face $-1 $-1 $135 $16 $-1 $316 reversed single #
point $-1 79.313943906979588 -66.010473364620594 -5.5747314741875185 #
point $-1 79.313943906979588 -54.75874190605321 -5.5747314741875185 #
face $-1 $317 $318 $17 $-1 $319 reversed single #
loop $-1 $-1 $320 $139 #
plane-surface $-1 0 -60.384607635336906 -5.5747314741875185 0 0 1 1 0 0 forward_v I I I I #
coedge $-1 $145 $321 $142 $234 forward $140 $-1 #
coedge $-1 $233 $142 $322 $323 reversed $79 $-1 #
coedge $-1 $142 $232 $143 $236 forward $79 $-1 #
edge $-1 $324 -28.424629995070529 $237 -21.583491589074864 $231 $325 forward 7 unknown #
coedge $-1 $144 $143 $241 $326 reversed $49 $-1 #
edge $-1 $327 -109.51748381210641 $237 -101.26557982980161 $233 $328 forward 7 unknown #
vertex $-1 $146 $329 #
straight-curve $-1 16.773778967989976 47.917603500057552 11.677698193033194 -1 0 0 I I #
vertex $-1 $326 $330 #
straight-curve $-1 18.801365801341127 -36.035366489006655 68.304692535671649 0 0.82903756765294845 -0.55919291073839883 I I #
coedge $-1 $322 $148 $235 $326 forward $243 $-1 #
coedge $-1 $148 $331 $150 $246 reversed $243 $-1 #
loop $-1 $-1 $322 $332 #
straight-curve $-1 18.801365801341127 54.75874190605321 99.906585405440566 0 0 -1 I I #
coedge $-1 $333 $150 $334 $335 forward $140 $-1 #
edge $-1 $152 -18.801365801341127 $336 79.313943906979588 $242 $337 forward 7 unknown #
point $-1 18.801365801341127 47.917603500057545 11.677698193033194 #
point $-1 18.801365801341127 54.75874190605321 11.677698193033192 #
face $-1 $338 $339 $18 $-1 $340 forward single #
loop $-1 $-1 $341 $154 #
plane-surface $-1 48.293750070618778 52.668223821965363 199.81317081088113 -1 0 0 0 0.55919291073839883 0.82903756765294845 forward_v I I I I #
loop $-1 $-1 $342 $86 #
coedge $-1 $254 $157 $343 $344 forward $87 $-1 #
coedge $-1 $157 $253 $345 $346 reversed $87 $-1 #
coedge $-1 $347 $348 $157 $256 forward $339 $-1 #
edge $-1 $349 21.583491589074864 $350 28.424629995070529 $255 $351 forward 7 unknown #
edge $-1 $352 1 $352 0 $158 $-1 forward 7 unknown #
vertex $-1 $159 $353 #
ellipse-curve $-1 27.227761306849018 50.291428833520477 7.8186335138765157 0 0.55919291073839883 0.82903756765294845 1 0 0 1 I I #
point $-1 28.227761306849018 51.338172703055385 9.3704950895337689 #
face $-1 $354 $169 $19 $-1 $355 forward single #
loop $-1 $-1 $356 $162 #
plane-surface $-1 18.801365801341127 52.668223821965363 199.81317081088113 1 0 0 0 -0.55919291073839883 -0.82903756765294845 forward_v I I I I #
loop $-1 $-1 $357 $94 #
coedge $-1 $265 $265 $266 $358 forward $163 $-1 #
coedge $-1 $266 $266 $265 $358 reversed $165 $-1 #
coedge $-1 $267 $267 $166 $268 forward $272 $-1 #
edge $-1 $359 4.8280493666204845e-015 $359 6.2831853071796049 $267 $360 forward 7 unknown #
edge $-1 $361 1 $361 0 $167 $-1 forward 7 unknown #
vertex $-1 $168 $362 #
ellipse-curve $-1 39.867354565110872 50.291428833520477 7.8186335138765157 0 0.55919291073839883 0.82903756765294845 1 0 0 1 I I #
loop $-1 $363 $267 $261 #
point $-1 40.867354565110872 51.338172703055385 9.3704950895337689 #
plane-surface $-1 79.313943906979588 0 0 -1 0 0 0 0 1 forward_v I I I I #
coedge $-1 $177 $175 $179 $279 reversed $103 $-1 #
edge $-1 $190 -11.677698193033192 $281 11.677698193033192 $189 $364 forward 7 unknown #
vertex $-1 $279 $365 #
straight-curve $-1 -79.313943906979588 -54.75874190605321 0 0 0 -1 I I #
edge $-1 $277 -54.75874190605321 $281 54.75874190605321 $275 $366 forward 7 unknown #
straight-curve $-1 0 -54.75874190605321 -11.677698193033192 -1 0 0 I I #
vertex $-1 $182 $367 #
straight-curve $-1 0 54.75874190605321 -11.677698193033192 1 0 0 I I #
point $-1 79.313943906979588 54.75874190605321 -11.677698193033192 #
point $-1 79.313943906979588 -54.75874190605321 -11.677698193033192 #
straight-curve $-1 -79.313943906979588 0 11.677698193033192 0 -1 0 I I #
point $-1 -79.313943906979588 54.75874190605321 11.677698193033192 #
point $-1 -79.313943906979588 -54.75874190605321 11.677698193033192 #
straight-curve $-1 79.313943906979588 -54.75874190605321 0 0 0 -1 I I #
straight-curve $-1 79.313943906979588 54.75874190605321 0 0 0 -1 I I #
face $-1 $225 $368 $16 $-1 $369 reversed single #
plane-surface $-1 -79.313943906979588 0 0 1 0 0 0 0 -1 forward_v I I I I #
coedge $-1 $202 $303 $370 $371 forward $122 $-1 #
edge $-1 $372 -54.75874190605321 $304 66.010473364620594 $222 $373 forward 7 unknown #
coedge $-1 $204 $203 $374 $375 forward $71 $-1 #
coedge $-1 $376 $377 $203 $296 reversed $368 $-1 #
edge $-1 $301 -79.313943906979588 $378 79.313943906979588 $295 $379 forward 7 unknown #
coedge $-1 $218 $217 $204 $298 reversed $200 $-1 #
edge $-1 $380 -79.313943906979588 $300 79.313943906979588 $297 $381 forward 7 unknown #
coedge $-1 $205 $222 $376 $382 reversed $135 $-1 #
vertex $-1 $206 $383 #
vertex $-1 $206 $384 #
straight-curve $-1 79.313943906979588 0 11.677698193033192 0 1 0 I I #
coedge $-1 $292 $208 $211 $308 forward $122 $-1 #
vertex $-1 $223 $385 #
straight-curve $-1 0 -66.010473364620594 -11.677698193033191 -1 0 0 I I #
coedge $-1 $374 $210 $218 $312 reversed $212 $-1 #
coedge $-1 $211 $374 $377 $386 forward $212 $-1 #
edge $-1 $214 -66.010473364620594 $387 54.75874190605321 $211 $388 forward 7 unknown #
point $-1 -79.313943906979588 -66.010473364620594 -5.5747314741875185 #
point $-1 -79.313943906979588 -66.010473364620594 -11.677698193033191 #
straight-curve $-1 -79.313943906979588 -60.384607635336906 -5.5747314741875185 0 -1 0 I I #
edge $-1 $380 -11.677698193033192 $219 5.5747314741875185 $306 $389 forward 7 unknown #
point $-1 -79.313943906979588 -54.75874190605321 -5.5747314741875185 #
straight-curve $-1 79.313943906979588 -66.010473364620594 -8.626214833610355 0 0 -1 I I #
straight-curve $-1 79.313943906979588 -54.75874190605321 0 0 0 -1 I I #
plane-surface $-1 79.313943906979588 0 0 -1 0 0 0 0 1 forward_v I I I I #
face $-1 $390 $391 $17 $-1 $392 reversed single #
loop $-1 $-1 $393 $228 #
plane-surface $-1 0 -66.010473364620594 -8.626214833610355 0 1 0 0 0 1 forward_v I I I I #
coedge $-1 $394 $395 $396 $397 forward $229 $-1 #
coedge $-1 $231 $398 $399 $400 forward $140 $-1 #
coedge $-1 $399 $241 $232 $323 forward $243 $-1 #
edge $-1 $327 -92.84329341940618 $324 -88.228887212407372 $322 $401 forward 7 unknown #
vertex $-1 $323 $402 #
straight-curve $-1 48.293750070618778 26.334111910982681 11.677698193033194 0 -1 0 I I #
edge $-1 $239 2.0275868333511511 $327 31.519971102628801 $241 $403 forward 7 unknown #
vertex $-1 $326 $404 #
straight-curve $-1 48.293750070618778 -36.035366489006655 68.304692535671649 0 -0.82903756765294845 0.55919291073839883 I I #
point $-1 48.293750070618778 47.917603500057545 11.677698193033194 #
point $-1 18.801365801341127 54.75874190605321 7.0632919860343861 #
coedge $-1 $242 $405 $406 $407 reversed $243 $-1 #
face $-1 $408 $243 $17 $-1 $409 reversed single #
coedge $-1 $398 $245 $410 $411 forward $140 $-1 #
coedge $-1 $406 $412 $245 $335 reversed $413 $-1 #
edge $-1 $336 -54.75874190605321 $414 54.75874190605321 $334 $415 forward 7 unknown #
vertex $-1 $246 $416 #
straight-curve $-1 0 54.75874190605321 11.677698193033192 -1 0 0 I I #
face $-1 $417 $418 $18 $-1 $419 forward single #
loop $-1 $-1 $420 $249 #
plane-surface $-1 0 0 11.677698193033192 0 0 1 1 0 0 forward_v I I I I #
coedge $-1 $421 $422 $420 $423 reversed $250 $-1 #
coedge $-1 $424 $343 $348 $425 reversed $252 $-1 #
coedge $-1 $342 $426 $253 $344 reversed $252 $-1 #
edge $-1 $349 101.26557982980161 $427 109.51748381210641 $253 $428 forward 7 unknown #
coedge $-1 $429 $430 $254 $346 forward $431 $-1 #
edge $-1 $350 88.228887212407372 $427 92.84329341940618 $345 $432 forward 7 unknown #
coedge $-1 $433 $255 $430 $434 forward $339 $-1 #
coedge $-1 $255 $420 $342 $425 forward $339 $-1 #
vertex $-1 $425 $435 #
vertex $-1 $434 $436 #
straight-curve $-1 18.801365801341127 26.334111910982681 11.677698193033194 0 1 0 I I #
vertex $-1 $257 $437 #
point $-1 28.227761306849018 50.291428833520477 7.8186335138765157 #
face $-1 $438 $439 $19 $-1 $440 forward single #
plane-surface $-1 33.547557935979953 -36.035366489006655 68.304692535671649 0 0.55919291073839883 0.82903756765294845 1 0 0 forward_v I I I I #
coedge $-1 $441 $442 $443 $444 reversed $262 $-1 #
coedge $-1 $357 $357 $-1 $445 forward $264 $-1 #
edge $-1 $446 0 $446 6.2831853071796004 $265 $447 forward 7 unknown #
vertex $-1 $268 $448 #
ellipse-curve $-1 27.227761306849018 51.338172703055399 9.3704950895337813 0 -0.55919291073839883 -0.82903756765294845 1 0 0 1 I I #
vertex $-1 $269 $449 #
point $-1 40.867354565110872 50.291428833520477 7.8186335138765157 #
loop $-1 $-1 $450 $261 #
straight-curve $-1 -79.313943906979588 54.75874190605321 0 0 0 -1 I I #
point $-1 -79.313943906979588 -54.75874190605321 -11.677698193033192 #
straight-curve $-1 -79.313943906979588 0 -11.677698193033192 0 1 0 I I #
point $-1 -79.313943906979588 54.75874190605321 -11.677698193033192 #
loop $-1 $-1 $376 $290 #
plane-surface $-1 0 54.75874190605321 0 0 -1 0 0 0 -1 forward_v I I I I #
coedge $-1 $377 $376 $292 $371 reversed $368 $-1 #
edge $-1 $387 -79.313943906979588 $372 79.313943906979588 $370 $451 forward 7 unknown #
vertex $-1 $293 $452 #
straight-curve $-1 79.313943906979588 0 -11.677698193033192 0 -1 0 I I #
coedge $-1 $307 $306 $294 $375 reversed $212 $-1 #
edge $-1 $378 -54.75874190605321 $380 54.75874190605321 $374 $453 forward 7 unknown #
coedge $-1 $370 $295 $299 $382 forward $368 $-1 #
coedge $-1 $295 $370 $307 $386 reversed $368 $-1 #
vertex $-1 $296 $454 #
straight-curve $-1 0 54.75874190605321 11.677698193033192 -1 0 0 I I #
vertex $-1 $375 $455 #
straight-curve $-1 0 -54.75874190605321 11.677698193033192 1 0 0 I I #
edge $-1 $301 -11.677698193033192 $372 11.677698193033192 $299 $456 forward 7 unknown #
point $-1 79.313943906979588 -54.75874190605321 11.677698193033192 #
point $-1 79.313943906979588 54.75874190605321 11.677698193033192 #
point $-1 79.313943906979588 -66.010473364620594 -11.677698193033191 #
edge $-1 $378 -11.677698193033192 $387 11.677698193033192 $377 $457 forward 7 unknown #
vertex $-1 $371 $458 #
straight-curve $-1 -79.313943906979588 0 -11.677698193033192 0 1 0 I I #
straight-curve $-1 -79.313943906979588 -54.75874190605321 0 0 0 -1 I I #
face $-1 $459 $460 $17 $-1 $461 reversed single #
loop $-1 $-1 $462 $317 #
plane-surface $-1 0 0 -11.677698193033192 0 0 1 1 0 0 forward_v I I I I #
coedge $-1 $463 $464 $465 $466 forward $318 $-1 #
coedge $-1 $467 $320 $468 $469 reversed $229 $-1 #
coedge $-1 $320 $467 $464 $470 forward $229 $-1 #
coedge $-1 $471 $472 $320 $397 reversed $473 $-1 #
edge $-1 $474 -5.6258657292836887 $475 5.6258657292836958 $396 $476 forward 7 unknown #
coedge $-1 $321 $333 $477 $478 forward $140 $-1 #
coedge $-1 $479 $322 $321 $400 reversed $243 $-1 #
edge $-1 $480 -79.313943906979588 $324 -48.293750070618778 $399 $337 forward 7 unknown #
straight-curve $-1 48.293750070618778 54.75874190605321 99.906585405440566 0 0 1 I I #
point $-1 48.293750070618778 54.75874190605321 11.677698193033192 #
straight-curve $-1 16.773778967989976 54.75874190605321 7.063291986034379 1 0 0 I I #
point $-1 48.293750070618778 54.75874190605321 7.0632919860343861 #
coedge $-1 $331 $479 $481 $482 reversed $243 $-1 #
coedge $-1 $483 $334 $331 $407 forward $413 $-1 #
edge $-1 $336 -11.677698193033192 $484 11.677698193033192 $331 $485 forward 7 unknown #
face $-1 $-1 $473 $17 $-1 $486 reversed single #
plane-surface $-1 0 54.75874190605321 0 0 -1 0 0 0 -1 forward_v I I I I #
coedge $-1 $487 $488 $333 $411 reversed $460 $-1 #
edge $-1 $414 -79.313943906979588 $489 79.313943906979588 $410 $490 forward 7 unknown #
coedge $-1 $334 $491 $487 $492 reversed $413 $-1 #
loop $-1 $-1 $406 $459 #
vertex $-1 $335 $493 #
straight-curve $-1 -79.313943906979588 0 11.677698193033192 0 -1 0 I I #
point $-1 -79.313943906979588 54.75874190605321 11.677698193033192 #
face $-1 $494 $495 $18 $-1 $496 reversed single #
loop $-1 $-1 $497 $338 #
plane-surface $-1 0 -60.384607635336906 -5.5747314741875185 0 0 1 1 0 0 forward_v I I I I #
coedge $-1 $348 $498 $341 $423 forward $339 $-1 #
coedge $-1 $422 $341 $499 $500 reversed $250 $-1 #
coedge $-1 $341 $421 $424 $501 forward $250 $-1 #
edge $-1 $502 -28.424629995070529 $503 -21.583491589074864 $420 $504 forward 7 unknown #
coedge $-1 $426 $342 $422 $501 reversed $252 $-1 #
edge $-1 $503 -31.519971102628801 $349 -2.0275868333511511 $348 $505 forward 7 unknown #
coedge $-1 $343 $424 $429 $506 reversed $252 $-1 #
vertex $-1 $506 $507 #
straight-curve $-1 18.801365801341127 -36.035366489006655 68.304692535671649 0 0.82903756765294845 -0.55919291073839883 I I #
coedge $-1 $499 $345 $426 $506 forward $431 $-1 #
coedge $-1 $345 $508 $347 $434 reversed $431 $-1 #
loop $-1 $-1 $499 $509 #
straight-curve $-1 18.801365801341127 54.75874190605321 99.906585405440566 0 0 -1 I I #
coedge $-1 $510 $347 $511 $512 forward $339 $-1 #
edge $-1 $350 -18.801365801341127 $513 79.313943906979588 $430 $514 forward 7 unknown #
point $-1 18.801365801341127 47.917603500057545 11.677698193033194 #
point $-1 18.801365801341127 54.75874190605321 11.677698193033192 #
point $-1 27.227761306849018 49.732235922782074 6.9895959462235675 #
face $-1 $515 $516 $19 $-1 $517 forward single #
loop $-1 $-1 $518 $354 #
plane-surface $-1 48.293750070618778 52.668223821965363 199.81317081088113 -1 0 0 0 0.55919291073839883 0.82903756765294845 forward_v I I I I #
coedge $-1 $442 $356 $519 $520 forward $262 $-1 #
coedge $-1 $356 $441 $521 $522 reversed $262 $-1 #
coedge $-1 $523 $524 $356 $444 forward $516 $-1 #
edge $-1 $525 21.583491589074864 $526 28.424629995070529 $443 $527 forward 7 unknown #
edge $-1 $528 1 $528 0 $357 $-1 forward 7 unknown #
vertex $-1 $358 $529 #
ellipse-curve $-1 27.227761306849018 50.291428833520477 7.8186335138765157 0 0.55919291073839883 0.82903756765294845 1 0 0 1 I I #
point $-1 28.227761306849018 51.338172703055385 9.3704950895337689 #
point $-1 39.867354565110872 49.732235922782074 6.9895959462235675 #
coedge $-1 $530 $519 $524 $531 reversed $363 $-1 #
straight-curve $-1 0 54.75874190605321 -11.677698193033192 1 0 0 I I #
point $-1 79.313943906979588 54.75874190605321 -11.677698193033192 #
straight-curve $-1 -79.313943906979588 0 11.677698193033192 0 -1 0 I I #
point $-1 -79.313943906979588 54.75874190605321 11.677698193033192 #
point $-1 -79.313943906979588 -54.75874190605321 11.677698193033192 #
straight-curve $-1 79.313943906979588 54.75874190605321 0 0 0 -1 I I #
straight-curve $-1 -79.313943906979588 54.75874190605321 0 0 0 -1 I I #
point $-1 -79.313943906979588 54.75874190605321 -11.677698193033192 #
face $-1 $332 $413 $17 $-1 $532 reversed single #
loop $-1 $-1 $468 $390 #
plane-surface $-1 0 -54.75874190605321 0 0 1 0 0 0 1 forward_v I I I I #
coedge $-1 $533 $481 $534 $535 forward $391 $-1 #
coedge $-1 $536 $393 $533 $537 reversed $318 $-1 #
coedge $-1 $393 $536 $395 $470 reversed $318 $-1 #
coedge $-1 $491 $483 $393 $466 reversed $413 $-1 #
edge $-1 $538 -3.0514833594228365 $539 3.0514833594228357 $465 $540 forward 7 unknown #
coedge $-1 $395 $394 $491 $541 forward $229 $-1 #
coedge $-1 $488 $487 $394 $469 forward $460 $-1 #
edge $-1 $542 -79.313943906979588 $475 79.313943906979588 $468 $543 forward 7 unknown #
edge $-1 $538 -79.313943906979588 $474 79.313943906979588 $464 $544 forward 7 unknown #
coedge $-1 $534 $396 $536 $545 forward $473 $-1 #
coedge $-1 $396 $477 $488 $546 forward $473 $-1 #
loop $-1 $-1 $472 $408 #
vertex $-1 $397 $547 #
vertex $-1 $397 $548 #
straight-curve $-1 79.313943906979588 -60.384607635336906 -5.5747314741875185 0 1 0 I I #
coedge $-1 $472 $549 $398 $478 reversed $473 $-1 #
edge $-1 $489 -54.75874190605321 $480 54.75874190605321 $477 $550 forward 7 unknown #
coedge $-1 $405 $399 $549 $551 forward $243 $-1 #
vertex $-1 $478 $552 #
coedge $-1 $462 $553 $405 $482 forward $391 $-1 #
edge $-1 $484 -79.313943906979588 $554 79.313943906979588 $405 $555 forward 7 unknown #
coedge $-1 $465 $406 $553 $556 reversed $413 $-1 #
vertex $-1 $482 $557 #
straight-curve $-1 -79.313943906979588 54.75874190605321 0 0 0 -1 I I #
plane-surface $-1 79.313943906979588 0 0 -1 0 0 0 0 1 forward_v I I I I #
coedge $-1 $468 $410 $412 $492 forward $460 $-1 #
coedge $-1 $410 $468 $472 $546 reversed $460 $-1 #
vertex $-1 $478 $558 #
straight-curve $-1 0 -54.75874190605321 11.677698193033192 1 0 0 I I #
coedge $-1 $412 $465 $467 $541 reversed $413 $-1 #
edge $-1 $414 -11.677698193033192 $542 5.5747314741875185 $412 $559 forward 7 unknown #
point $-1 -79.313943906979588 -54.75874190605321 11.677698193033192 #
face $-1 $560 $561 $18 $-1 $562 reversed single #
loop $-1 $-1 $563 $417 #
plane-surface $-1 0 -66.010473364620594 -8.626214833610355 0 1 0 0 0 1 forward_v I I I I #
coedge $-1 $564 $565 $566 $567 forward $418 $-1 #
coedge $-1 $420 $568 $569 $570 forward $339 $-1 #
coedge $-1 $569 $429 $421 $500 forward $431 $-1 #
edge $-1 $571 -92.84329341940618 $502 -88.228887212407372 $499 $572 forward 7 unknown #
edge $-1 $571 -109.51748381210641 $503 -101.26557982980161 $422 $573 forward 7 unknown #
vertex $-1 $500 $574 #
vertex $-1 $425 $575 #
straight-curve $-1 48.293750070618778 26.334111910982681 11.677698193033194 0 -1 0 I I #
straight-curve $-1 16.773778967989976 47.917603500057552 11.677698193033194 -1 0 0 I I #
edge $-1 $427 2.0275868333511511 $571 31.519971102628801 $429 $576 forward 7 unknown #
point $-1 18.801365801341127 54.75874190605321 7.0632919860343861 #
coedge $-1 $430 $577 $578 $579 reversed $431 $-1 #
face $-1 $580 $431 $18 $-1 $581 reversed single #
coedge $-1 $568 $433 $582 $583 forward $339 $-1 #
coedge $-1 $578 $584 $433 $512 reversed $585 $-1 #
edge $-1 $513 -54.75874190605321 $586 54.75874190605321 $511 $587 forward 7 unknown #
vertex $-1 $434 $588 #
straight-curve $-1 0 54.75874190605321 11.677698193033192 -1 0 0 I I #
face $-1 $589 $590 $19 $-1 $591 forward single #
loop $-1 $-1 $592 $438 #
plane-surface $-1 0 0 11.677698193033192 0 0 1 1 0 0 forward_v I I I I #
coedge $-1 $593 $594 $592 $595 reversed $439 $-1 #
coedge $-1 $450 $596 $441 $520 reversed $363 $-1 #
edge $-1 $525 101.26557982980161 $597 109.51748381210641 $441 $598 forward 7 unknown #
coedge $-1 $599 $600 $442 $522 forward $601 $-1 #
edge $-1 $526 88.228887212407372 $597 92.84329341940618 $521 $602 forward 7 unknown #
coedge $-1 $603 $443 $600 $604 forward $516 $-1 #
coedge $-1 $443 $592 $450 $531 forward $516 $-1 #
vertex $-1 $531 $605 #
vertex $-1 $604 $606 #
straight-curve $-1 18.801365801341127 26.334111910982681 11.677698193033194 0 1 0 I I #
vertex $-1 $445 $607 #
point $-1 28.227761306849018 50.291428833520477 7.8186335138765157 #
coedge $-1 $596 $450 $594 $608 reversed $363 $-1 #
edge $-1 $609 -31.519971102628801 $525 -2.0275868333511511 $524 $610 forward 7 unknown #
plane-surface $-1 -79.313943906979588 0 0 1 0 0 0 0 -1 forward_v I I I I #
coedge $-1 $553 $462 $463 $537 forward $391 $-1 #
coedge $-1 $549 $471 $462 $535 reversed $473 $-1 #
edge $-1 $554 -54.75874190605321 $611 66.010473364620594 $534 $612 forward 7 unknown #
coedge $-1 $464 $463 $471 $545 reversed $318 $-1 #
edge $-1 $611 -79.313943906979588 $539 79.313943906979588 $463 $613 forward 7 unknown #
vertex $-1 $541 $614 #
vertex $-1 $556 $615 #
straight-curve $-1 -79.313943906979588 -66.010473364620594 -8.626214833610355 0 0 -1 I I #
edge $-1 $542 -5.6258657292836958 $538 5.6258657292836887 $491 $616 forward 7 unknown #
vertex $-1 $492 $617 #
straight-curve $-1 0 -54.75874190605321 -5.5747314741875185 1 0 0 I I #
straight-curve $-1 0 -66.010473364620594 -5.5747314741875185 1 0 0 I I #
edge $-1 $474 -3.0514833594228365 $611 3.0514833594228357 $471 $618 forward 7 unknown #
edge $-1 $489 -11.677698193033192 $475 5.5747314741875185 $472 $619 forward 7 unknown #
point $-1 79.313943906979588 -66.010473364620594 -5.5747314741875185 #
point $-1 79.313943906979588 -54.75874190605321 -5.5747314741875185 #
coedge $-1 $477 $534 $479 $551 reversed $473 $-1 #
straight-curve $-1 79.313943906979588 0 11.677698193033192 0 1 0 I I #
edge $-1 $480 -11.677698193033192 $554 11.677698193033192 $549 $620 forward 7 unknown #
point $-1 79.313943906979588 54.75874190605321 11.677698193033192 #
coedge $-1 $481 $533 $483 $556 forward $391 $-1 #
vertex $-1 $535 $621 #
straight-curve $-1 0 54.75874190605321 -11.677698193033192 1 0 0 I I #
edge $-1 $539 -66.010473364620594 $484 54.75874190605321 $483 $622 forward 7 unknown #
point $-1 -79.313943906979588 54.75874190605321 -11.677698193033192 #
point $-1 79.313943906979588 -54.75874190605321 11.677698193033192 #
straight-curve $-1 -79.313943906979588 -54.75874190605321 0 0 0 -1 I I #
face $-1 $623 $624 $18 $-1 $625 reversed single #
loop $-1 $-1 $626 $494 #
plane-surface $-1 0 0 -11.677698193033192 0 0 1 1 0 0 forward_v I I I I #
coedge $-1 $627 $628 $629 $630 forward $495 $-1 #
coedge $-1 $631 $497 $632 $633 reversed $418 $-1 #
coedge $-1 $497 $631 $628 $634 forward $418 $-1 #
coedge $-1 $635 $636 $497 $567 reversed $637 $-1 #
edge $-1 $638 -5.6258657292836887 $639 5.6258657292836958 $566 $640 forward 7 unknown #
coedge $-1 $498 $510 $641 $642 forward $339 $-1 #
coedge $-1 $643 $499 $498 $570 reversed $431 $-1 #
edge $-1 $644 -79.313943906979588 $502 -48.293750070618778 $569 $514 forward 7 unknown #
vertex $-1 $506 $645 #
straight-curve $-1 48.293750070618778 54.75874190605321 99.906585405440566 0 0 1 I I #
straight-curve $-1 48.293750070618778 -36.035366489006655 68.304692535671649 0 -0.82903756765294845 0.55919291073839883 I I #
point $-1 48.293750070618778 54.75874190605321 11.677698193033192 #
point $-1 48.293750070618778 47.917603500057545 11.677698193033194 #
straight-curve $-1 16.773778967989976 54.75874190605321 7.063291986034379 1 0 0 I I #
coedge $-1 $508 $643 $646 $647 reversed $431 $-1 #
coedge $-1 $648 $511 $508 $579 forward $585 $-1 #
edge $-1 $513 -11.677698193033192 $649 11.677698193033192 $508 $650 forward 7 unknown #
face $-1 $-1 $637 $18 $-1 $651 reversed single #
plane-surface $-1 0 54.75874190605321 0 0 -1 0 0 0 -1 forward_v I I I I #
coedge $-1 $652 $653 $510 $583 reversed $624 $-1 #
edge $-1 $586 -79.313943906979588 $654 79.313943906979588 $582 $655 forward 7 unknown #
coedge $-1 $511 $656 $652 $657 reversed $585 $-1 #
loop $-1 $-1 $578 $623 #
vertex $-1 $512 $658 #
straight-curve $-1 -79.313943906979588 0 11.677698193033192 0 -1 0 I I #
point $-1 -79.313943906979588 54.75874190605321 11.677698193033192 #
face $-1 $659 $660 $19 $-1 $661 reversed single #
loop $-1 $-1 $662 $515 #
plane-surface $-1 0 -60.384607635336906 -5.5747314741875185 0 0 1 1 0 0 forward_v I I I I #
coedge $-1 $524 $663 $518 $595 forward $516 $-1 #
coedge $-1 $594 $518 $664 $665 reversed $439 $-1 #
coedge $-1 $518 $593 $530 $608 forward $439 $-1 #
edge $-1 $666 -28.424629995070529 $609 -21.583491589074864 $592 $667 forward 7 unknown #
coedge $-1 $519 $530 $599 $668 reversed $363 $-1 #
vertex $-1 $668 $669 #
straight-curve $-1 18.801365801341127 -36.035366489006655 68.304692535671649 0 0.82903756765294845 -0.55919291073839883 I I #
coedge $-1 $664 $521 $596 $668 forward $601 $-1 #
coedge $-1 $521 $670 $523 $604 reversed $601 $-1 #
loop $-1 $-1 $664 $671 #
straight-curve $-1 18.801365801341127 54.75874190605321 99.906585405440566 0 0 -1 I I #
coedge $-1 $672 $523 $673 $674 forward $516 $-1 #
edge $-1 $526 -18.801365801341127 $675 79.313943906979588 $600 $676 forward 7 unknown #
point $-1 18.801365801341127 47.917603500057545 11.677698193033194 #
point $-1 18.801365801341127 54.75874190605321 11.677698193033192 #
point $-1 27.227761306849018 49.732235922782074 6.9895959462235675 #
edge $-1 $677 -109.51748381210641 $609 -101.26557982980161 $594 $678 forward 7 unknown #
vertex $-1 $531 $679 #
straight-curve $-1 16.773778967989976 47.917603500057552 11.677698193033194 -1 0 0 I I #
vertex $-1 $545 $680 #
straight-curve $-1 79.313943906979588 0 -11.677698193033192 0 -1 0 I I #
straight-curve $-1 0 -66.010473364620594 -11.677698193033191 -1 0 0 I I #
point $-1 -79.313943906979588 -66.010473364620594 -5.5747314741875185 #
point $-1 -79.313943906979588 -66.010473364620594 -11.677698193033191 #
straight-curve $-1 -79.313943906979588 -60.384607635336906 -5.5747314741875185 0 -1 0 I I #
point $-1 -79.313943906979588 -54.75874190605321 -5.5747314741875185 #
straight-curve $-1 79.313943906979588 -66.010473364620594 -8.626214833610355 0 0 -1 I I #
straight-curve $-1 79.313943906979588 -54.75874190605321 0 0 0 -1 I I #
straight-curve $-1 79.313943906979588 54.75874190605321 0 0 0 -1 I I #
point $-1 79.313943906979588 54.75874190605321 -11.677698193033192 #
straight-curve $-1 -79.313943906979588 0 -11.677698193033192 0 1 0 I I #
face $-1 $509 $585 $18 $-1 $681 reversed single #
loop $-1 $-1 $632 $560 #
plane-surface $-1 0 -54.75874190605321 0 0 1 0 0 0 1 forward_v I I I I #
coedge $-1 $682 $646 $683 $684 forward $561 $-1 #
coedge $-1 $685 $563 $682 $686 reversed $495 $-1 #
coedge $-1 $563 $685 $565 $634 reversed $495 $-1 #
coedge $-1 $656 $648 $563 $630 reversed $585 $-1 #
edge $-1 $687 -3.0514833594228365 $688 3.0514833594228357 $629 $689 forward 7 unknown #
coedge $-1 $565 $564 $656 $690 forward $418 $-1 #
coedge $-1 $653 $652 $564 $633 forward $624 $-1 #
edge $-1 $691 -79.313943906979588 $639 79.313943906979588 $632 $692 forward 7 unknown #
edge $-1 $687 -79.313943906979588 $638 79.313943906979588 $628 $693 forward 7 unknown #
coedge $-1 $683 $566 $685 $694 forward $637 $-1 #
coedge $-1 $566 $641 $653 $695 forward $637 $-1 #
loop $-1 $-1 $636 $580 #
vertex $-1 $567 $696 #
vertex $-1 $567 $697 #
straight-curve $-1 79.313943906979588 -60.384607635336906 -5.5747314741875185 0 1 0 I I #
coedge $-1 $636 $698 $568 $642 reversed $637 $-1 #
edge $-1 $654 -54.75874190605321 $644 54.75874190605321 $641 $699 forward 7 unknown #
coedge $-1 $577 $569 $698 $700 forward $431 $-1 #
vertex $-1 $642 $701 #
point $-1 48.293750070618778 54.75874190605321 7.0632919860343861 #
coedge $-1 $626 $702 $577 $647 forward $561 $-1 #
edge $-1 $649 -79.313943906979588 $703 79.313943906979588 $577 $704 forward 7 unknown #
coedge $-1 $629 $578 $702 $705 reversed $585 $-1 #
vertex $-1 $647 $706 #
straight-curve $-1 -79.313943906979588 54.75874190605321 0 0 0 -1 I I #
plane-surface $-1 79.313943906979588 0 0 -1 0 0 0 0 1 forward_v I I I I #
coedge $-1 $632 $582 $584 $657 forward $624 $-1 #
coedge $-1 $582 $632 $636 $695 reversed $624 $-1 #
vertex $-1 $642 $707 #
straight-curve $-1 0 -54.75874190605321 11.677698193033192 1 0 0 I I #
coedge $-1 $584 $629 $631 $690 reversed $585 $-1 #
edge $-1 $586 -11.677698193033192 $691 5.5747314741875185 $584 $708 forward 7 unknown #
point $-1 -79.313943906979588 -54.75874190605321 11.677698193033192 #
face $-1 $709 $710 $19 $-1 $711 reversed single #
loop $-1 $-1 $712 $589 #
plane-surface $-1 0 -66.010473364620594 -8.626214833610355 0 1 0 0 0 1 forward_v I I I I #
coedge $-1 $713 $714 $715 $716 forward $590 $-1 #
coedge $-1 $592 $717 $718 $719 forward $516 $-1 #
coedge $-1 $718 $599 $593 $665 forward $601 $-1 #
edge $-1 $677 -92.84329341940618 $666 -88.228887212407372 $664 $720 forward 7 unknown #
vertex $-1 $665 $721 #
straight-curve $-1 48.293750070618778 26.334111910982681 11.677698193033194 0 -1 0 I I #
edge $-1 $597 2.0275868333511511 $677 31.519971102628801 $599 $722 forward 7 unknown #
point $-1 18.801365801341127 54.75874190605321 7.0632919860343861 #
coedge $-1 $600 $723 $724 $725 reversed $601 $-1 #
face $-1 $726 $601 $19 $-1 $727 reversed single #
coedge $-1 $717 $603 $728 $729 forward $516 $-1 #
coedge $-1 $724 $730 $603 $674 reversed $731 $-1 #
edge $-1 $675 -54.75874190605321 $732 54.75874190605321 $673 $733 forward 7 unknown #
vertex $-1 $604 $734 #
straight-curve $-1 0 54.75874190605321 11.677698193033192 -1 0 0 I I #
vertex $-1 $668 $735 #
straight-curve $-1 48.293750070618778 -36.035366489006655 68.304692535671649 0 -0.82903756765294845 0.55919291073839883 I I #
point $-1 48.293750070618778 47.917603500057545 11.677698193033194 #
point $-1 79.313943906979588 -66.010473364620594 -11.677698193033191 #
plane-surface $-1 -79.313943906979588 0 0 1 0 0 0 0 -1 forward_v I I I I #
coedge $-1 $702 $626 $627 $686 forward $561 $-1 #
coedge $-1 $698 $635 $626 $684 reversed $637 $-1 #
edge $-1 $703 -54.75874190605321 $736 66.010473364620594 $683 $737 forward 7 unknown #
coedge $-1 $628 $627 $635 $694 reversed $495 $-1 #
edge $-1 $736 -79.313943906979588 $688 79.313943906979588 $627 $738 forward 7 unknown #
vertex $-1 $690 $739 #
vertex $-1 $705 $740 #
straight-curve $-1 -79.313943906979588 -66.010473364620594 -8.626214833610355 0 0 -1 I I #
edge $-1 $691 -5.6258657292836958 $687 5.6258657292836887 $656 $741 forward 7 unknown #
vertex $-1 $657 $742 #
straight-curve $-1 0 -54.75874190605321 -5.5747314741875185 1 0 0 I I #
straight-curve $-1 0 -66.010473364620594 -5.5747314741875185 1 0 0 I I #
edge $-1 $638 -3.0514833594228365 $736 3.0514833594228357 $635 $743 forward 7 unknown #
edge $-1 $654 -11.677698193033192 $639 5.5747314741875185 $636 $744 forward 7 unknown #
point $-1 79.313943906979588 -66.010473364620594 -5.5747314741875185 #
point $-1 79.313943906979588 -54.75874190605321 -5.5747314741875185 #
coedge $-1 $641 $683 $643 $700 reversed $637 $-1 #
straight-curve $-1 79.313943906979588 0 11.677698193033192 0 1 0 I I #
edge $-1 $644 -11.677698193033192 $703 11.677698193033192 $698 $745 forward 7 unknown #
point $-1 79.313943906979588 54.75874190605321 11.677698193033192 #
coedge $-1 $646 $682 $648 $705 forward $561 $-1 #
vertex $-1 $684 $746 #
straight-curve $-1 0 54.75874190605321 -11.677698193033192 1 0 0 I I #
edge $-1 $688 -66.010473364620594 $649 54.75874190605321 $648 $747 forward 7 unknown #
point $-1 -79.313943906979588 54.75874190605321 -11.677698193033192 #
point $-1 79.313943906979588 -54.75874190605321 11.677698193033192 #
straight-curve $-1 -79.313943906979588 -54.75874190605321 0 0 0 -1 I I #
face $-1 $748 $749 $19 $-1 $750 reversed single #
loop $-1 $-1 $751 $659 #
plane-surface $-1 0 0 -11.677698193033192 0 0 1 1 0 0 forward_v I I I I #
coedge $-1 $752 $753 $754 $755 forward $660 $-1 #
coedge $-1 $756 $662 $757 $758 reversed $590 $-1 #
coedge $-1 $662 $756 $753 $759 forward $590 $-1 #
coedge $-1 $760 $761 $662 $716 reversed $762 $-1 #
edge $-1 $763 -5.6258657292836887 $764 5.6258657292836958 $715 $765 forward 7 unknown #
coedge $-1 $663 $672 $766 $767 forward $516 $-1 #
coedge $-1 $768 $664 $663 $719 reversed $601 $-1 #
edge $-1 $769 -79.313943906979588 $666 -48.293750070618778 $718 $676 forward 7 unknown #
straight-curve $-1 48.293750070618778 54.75874190605321 99.906585405440566 0 0 1 I I #
point $-1 48.293750070618778 54.75874190605321 11.677698193033192 #
straight-curve $-1 16.773778967989976 54.75874190605321 7.063291986034379 1 0 0 I I #
coedge $-1 $670 $768 $770 $771 reversed $601 $-1 #
coedge $-1 $772 $673 $670 $725 forward $731 $-1 #
edge $-1 $675 -11.677698193033192 $773 11.677698193033192 $670 $774 forward 7 unknown #
face $-1 $-1 $762 $19 $-1 $775 reversed single #
plane-surface $-1 0 54.75874190605321 0 0 -1 0 0 0 -1 forward_v I I I I #
coedge $-1 $776 $777 $672 $729 reversed $749 $-1 #
edge $-1 $732 -79.313943906979588 $778 79.313943906979588 $728 $779 forward 7 unknown #
coedge $-1 $673 $780 $776 $781 reversed $731 $-1 #
loop $-1 $-1 $724 $748 #
vertex $-1 $674 $782 #
straight-curve $-1 -79.313943906979588 0 11.677698193033192 0 -1 0 I I #
point $-1 -79.313943906979588 54.75874190605321 11.677698193033192 #
point $-1 48.293750070618778 54.75874190605321 7.0632919860343861 #
vertex $-1 $694 $783 #
straight-curve $-1 79.313943906979588 0 -11.677698193033192 0 -1 0 I I #
straight-curve $-1 0 -66.010473364620594 -11.677698193033191 -1 0 0 I I #
point $-1 -79.313943906979588 -66.010473364620594 -5.5747314741875185 #
point $-1 -79.313943906979588 -66.010473364620594 -11.677698193033191 #
straight-curve $-1 -79.313943906979588 -60.384607635336906 -5.5747314741875185 0 -1 0 I I #
point $-1 -79.313943906979588 -54.75874190605321 -5.5747314741875185 #
straight-curve $-1 79.313943906979588 -66.010473364620594 -8.626214833610355 0 0 -1 I I #
straight-curve $-1 79.313943906979588 -54.75874190605321 0 0 0 -1 I I #
straight-curve $-1 79.313943906979588 54.75874190605321 0 0 0 -1 I I #
point $-1 79.313943906979588 54.75874190605321 -11.677698193033192 #
straight-curve $-1 -79.313943906979588 0 -11.677698193033192 0 1 0 I I #
face $-1 $671 $731 $19 $-1 $784 reversed single #
loop $-1 $-1 $757 $709 #
plane-surface $-1 0 -54.75874190605321 0 0 1 0 0 0 1 forward_v I I I I #
coedge $-1 $785 $770 $786 $787 forward $710 $-1 #
coedge $-1 $788 $712 $785 $789 reversed $660 $-1 #
coedge $-1 $712 $788 $714 $759 reversed $660 $-1 #
coedge $-1 $780 $772 $712 $755 reversed $731 $-1 #
edge $-1 $790 -3.0514833594228365 $791 3.0514833594228357 $754 $792 forward 7 unknown #
coedge $-1 $714 $713 $780 $793 forward $590 $-1 #
coedge $-1 $777 $776 $713 $758 forward $749 $-1 #
edge $-1 $794 -79.313943906979588 $764 79.313943906979588 $757 $795 forward 7 unknown #
edge $-1 $790 -79.313943906979588 $763 79.313943906979588 $753 $796 forward 7 unknown #
coedge $-1 $786 $715 $788 $797 forward $762 $-1 #
coedge $-1 $715 $766 $777 $798 forward $762 $-1 #
loop $-1 $-1 $761 $726 #
vertex $-1 $716 $799 #
vertex $-1 $716 $800 #
straight-curve $-1 79.313943906979588 -60.384607635336906 -5.5747314741875185 0 1 0 I I #
coedge $-1 $761 $801 $717 $767 reversed $762 $-1 #
edge $-1 $778 -54.75874190605321 $769 54.75874190605321 $766 $802 forward 7 unknown #
coedge $-1 $723 $718 $801 $803 forward $601 $-1 #
vertex $-1 $767 $804 #
coedge $-1 $751 $805 $723 $771 forward $710 $-1 #
edge $-1 $773 -79.313943906979588 $806 79.313943906979588 $723 $807 forward 7 unknown #
coedge $-1 $754 $724 $805 $808 reversed $731 $-1 #
vertex $-1 $771 $809 #
straight-curve $-1 -79.313943906979588 54.75874190605321 0 0 0 -1 I I #
plane-surface $-1 79.313943906979588 0 0 -1 0 0 0 0 1 forward_v I I I I #
coedge $-1 $757 $728 $730 $781 forward $749 $-1 #
coedge $-1 $728 $757 $761 $798 reversed $749 $-1 #
vertex $-1 $767 $810 #
straight-curve $-1 0 -54.75874190605321 11.677698193033192 1 0 0 I I #
coedge $-1 $730 $754 $756 $793 reversed $731 $-1 #
edge $-1 $732 -11.677698193033192 $794 5.5747314741875185 $730 $811 forward 7 unknown #
point $-1 -79.313943906979588 -54.75874190605321 11.677698193033192 #
point $-1 79.313943906979588 -66.010473364620594 -11.677698193033191 #
plane-surface $-1 -79.313943906979588 0 0 1 0 0 0 0 -1 forward_v I I I I #
coedge $-1 $805 $751 $752 $789 forward $710 $-1 #
coedge $-1 $801 $760 $751 $787 reversed $762 $-1 #
edge $-1 $806 -54.75874190605321 $812 66.010473364620594 $786 $813 forward 7 unknown #
coedge $-1 $753 $752 $760 $797 reversed $660 $-1 #
edge $-1 $812 -79.313943906979588 $791 79.313943906979588 $752 $814 forward 7 unknown #
vertex $-1 $793 $815 #
vertex $-1 $808 $816 #
straight-curve $-1 -79.313943906979588 -66.010473364620594 -8.626214833610355 0 0 -1 I I #
edge $-1 $794 -5.6258657292836958 $790 5.6258657292836887 $780 $817 forward 7 unknown #
vertex $-1 $781 $818 #
straight-curve $-1 0 -54.75874190605321 -5.5747314741875185 1 0 0 I I #
straight-curve $-1 0 -66.010473364620594 -5.5747314741875185 1 0 0 I I #
edge $-1 $763 -3.0514833594228365 $812 3.0514833594228357 $760 $819 forward 7 unknown #
edge $-1 $778 -11.677698193033192 $764 5.5747314741875185 $761 $820 forward 7 unknown #
point $-1 79.313943906979588 -66.010473364620594 -5.5747314741875185 #
point $-1 79.313943906979588 -54.75874190605321 -5.5747314741875185 #
coedge $-1 $766 $786 $768 $803 reversed $762 $-1 #
straight-curve $-1 79.313943906979588 0 11.677698193033192 0 1 0 I I #
edge $-1 $769 -11.677698193033192 $806 11.677698193033192 $801 $821 forward 7 unknown #
point $-1 79.313943906979588 54.75874190605321 11.677698193033192 #
coedge $-1 $770 $785 $772 $808 forward $710 $-1 #
vertex $-1 $787 $822 #
straight-curve $-1 0 54.75874190605321 -11.677698193033192 1 0 0 I I #
edge $-1 $791 -66.010473364620594 $773 54.75874190605321 $772 $823 forward 7 unknown #
point $-1 -79.313943906979588 54.75874190605321 -11.677698193033192 #
point $-1 79.313943906979588 -54.75874190605321 11.677698193033192 #
straight-curve $-1 -79.313943906979588 -54.75874190605321 0 0 0 -1 I I #
vertex $-1 $797 $824 #
straight-curve $-1 79.313943906979588 0 -11.677698193033192 0 -1 0 I I #
straight-curve $-1 0 -66.010473364620594 -11.677698193033191 -1 0 0 I I #
point $-1 -79.313943906979588 -66.010473364620594 -5.5747314741875185 #
point $-1 -79.313943906979588 -66.010473364620594 -11.677698193033191 #
straight-curve $-1 -79.313943906979588 -60.384607635336906 -5.5747314741875185 0 -1 0 I I #
point $-1 -79.313943906979588 -54.75874190605321 -5.5747314741875185 #
straight-curve $-1 79.313943906979588 -66.010473364620594 -8.626214833610355 0 0 -1 I I #
straight-curve $-1 79.313943906979588 -54.75874190605321 0 0 0 -1 I I #
straight-curve $-1 79.313943906979588 54.75874190605321 0 0 0 -1 I I #
point $-1 79.313943906979588 54.75874190605321 -11.677698193033192 #
straight-curve $-1 -79.313943906979588 0 -11.677698193033192 0 1 0 I I #
point $-1 79.313943906979588 -66.010473364620594 -11.677698193033191 #
End-of-ACIS-data 