500 0 8 0           
7 Unknown 11 ACIS 5.0 NT 24 Thu Mar 25 22:12:05 1999 
-1 9.9999999999999995e-007 1e-010 
body $-1 $8 $-1 $9 #
body $-1 $10 $-1 $11 #
body $-1 $12 $-1 $13 #
body $-1 $14 $-1 $15 #
body $-1 $16 $-1 $17 #
body $-1 $18 $-1 $19 #
body $-1 $20 $-1 $21 #
body $-1 $22 $-1 $23 #
lump $-1 $-1 $24 $0 #
transform $-1 1 0 0 0 1 0 0 0 1 69.357585375530263 33.902602418371934 7.1495825974667175 1 rotate no_reflect no_shear #
lump $-1 $-1 $25 $1 #
transform $-1 1 0 0 0 1 0 0 0 1 69.357585375530263 33.902602418371934 7.1495825974667175 1 rotate no_reflect no_shear #
lump $-1 $-1 $26 $2 #
transform $-1 1 0 0 0 1 0 0 0 1 69.357585375530263 33.902602418371934 7.1495825974667175 1 rotate no_reflect no_shear #
lump $-1 $-1 $27 $3 #
transform $-1 1 0 0 0 1 0 0 0 1 69.357585375530263 33.902602418371934 7.1495825974667175 1 rotate no_reflect no_shear #
lump $-1 $-1 $28 $4 #
transform $-1 1 0 0 0 1 0 0 0 1 69.357585375530263 33.902602418371934 7.1495825974667175 1 rotate no_reflect no_shear #
lump $-1 $-1 $29 $5 #
transform $-1 1 0 0 0 1 0 0 0 1 69.357585375530263 33.902602418371934 7.1495825974667175 1 rotate no_reflect no_shear #
lump $-1 $-1 $30 $6 #
transform $-1 1 0 0 0 1 0 0 0 1 69.357585375530263 33.902602418371934 7.1495825974667175 1 rotate no_reflect no_shear #
lump $-1 $-1 $31 $7 #
transform $-1 1 0 0 0 1 0 0 0 1 69.357585375530263 33.902602418371934 7.1495825974667175 1 rotate no_reflect no_shear #
shell $-1 $-1 $-1 $32 $-1 $8 #
shell $-1 $-1 $-1 $33 $-1 $10 #
shell $-1 $-1 $-1 $34 $-1 $12 #
shell $-1 $-1 $-1 $35 $-1 $14 #
shell $-1 $-1 $-1 $36 $-1 $16 #
shell $-1 $-1 $-1 $37 $-1 $18 #
shell $-1 $-1 $-1 $38 $-1 $20 #
shell $-1 $-1 $-1 $39 $-1 $22 #
face $-1 $40 $41 $24 $-1 $42 forward single #
face $-1 $43 $44 $25 $-1 $45 forward single #
face $-1 $46 $47 $26 $-1 $48 reversed single #
face $-1 $49 $50 $27 $-1 $51 forward single #
face $-1 $52 $53 $28 $-1 $54 reversed single #
face $-1 $55 $56 $29 $-1 $57 forward single #
face $-1 $58 $59 $30 $-1 $60 reversed single #
face $-1 $61 $62 $31 $-1 $63 forward single #
face $-1 $64 $65 $24 $-1 $66 reversed single #
loop $-1 $-1 $67 $32 #
plane-surface $-1 0 0 7.1495825974667175 0 0 1 1 0 0 forward_v I I I I #
face $-1 $68 $69 $25 $-1 $70 reversed single #
loop $-1 $-1 $71 $33 #
plane-surface $-1 0 -30.089762988347637 -1.5181481939749386 0 0 1 1 0 0 forward_v I I I I #
face $-1 $72 $73 $26 $-1 $74 reversed single #
loop $-1 $-1 $75 $34 #
plane-surface $-1 76.203922382858948 -6.7376499501288176 197.03444540496545 0 1 0 0.73135370988377701 0 0.68199835119979291 forward_v I I I I #
face $-1 $76 $77 $27 $-1 $78 forward single #
loop $-1 $79 $80 $35 #
cone-surface $-1 64.930723309004691 -2.343334241393201 2.6192319172658003 -0.73135370988377701 0 -0.68199835119979291 1.0229975267996894 0 -1.0970305648256655 1 I I 0 1 1.5 forward I I I I #
face $-1 $81 $82 $28 $-1 $83 reversed single #
loop $-1 $-1 $84 $36 #
plane-surface $-1 -165.71724097941731 -13.815888085164985 102.30713228089778 0 1 0 -0.69465837861970381 0 0.71933979245794832 forward_v I I I I #
face $-1 $85 $86 $29 $-1 $87 forward single #
loop $-1 $88 $89 $37 #
cone-surface $-1 -66.168488783987158 -8.7940556816423161 4.0144520307423042 0.69465837861970381 0 -0.71933979245794832 0.71933979245794832 0 0.69465837861970381 1 I I 0 1 1 forward I I I I #
face $-1 $90 $91 $30 $-1 $92 reversed single #
loop $-1 $-1 $93 $38 #
plane-surface $-1 -165.71724097941731 16.273874903182648 102.30713228089778 0 1 0 -0.69465837861970381 0 0.71933979245794832 forward_v I I I I #
face $-1 $94 $95 $31 $-1 $96 forward single #
loop $-1 $97 $98 $39 #
cone-surface $-1 -66.168488783987158 21.295707306705317 4.0144520307423042 0.69465837861970381 0 -0.71933979245794832 0.71933979245794832 0 0.69465837861970381 1 I I 0 1 1 forward I I I I #
face $-1 $99 $100 $24 $-1 $101 reversed single #
loop $-1 $-1 $102 $40 #
plane-surface $-1 0 0 -7.1495825974667175 0 0 1 1 0 0 forward_v I I I I #
coedge $-1 $103 $104 $105 $106 forward $41 $-1 #
face $-1 $107 $108 $25 $-1 $109 reversed single #
loop $-1 $-1 $110 $43 #
plane-surface $-1 0 -30.089762988347637 -4.9708159727094534 0 0 1 1 0 0 forward_v I I I I #
coedge $-1 $111 $112 $113 $114 reversed $44 $-1 #
face $-1 $115 $116 $26 $-1 $117 reversed single #
loop $-1 $-1 $118 $46 #
plane-surface $-1 -25.245932363090759 -2.343334241393201 102.43092766634443 0.73135370988377701 0 0.68199835119979291 0.68199835119979291 0 -0.73135370988377701 forward_v I I I I #
coedge $-1 $119 $120 $121 $122 reversed $47 $-1 #
face $-1 $-1 $123 $27 $-1 $124 forward single #
loop $-1 $125 $126 $49 #
cone-surface $-1 62.831460056617189 -2.343334241393201 0.66163731220102395 -0.73135370988377701 0 -0.68199835119979291 0.51149876339984468 0 -0.54851528241283276 1 I I -0.70710678118654757 0.70710678118654757 0.75 forward I I I I #
loop $-1 $-1 $127 $35 #
coedge $-1 $80 $80 $128 $129 reversed $50 $-1 #
face $-1 $130 $131 $28 $-1 $132 reversed single #
loop $-1 $-1 $133 $52 #
plane-surface $-1 -69.357585375530249 -8.7940556816423161 2.5237901420610314 -0.69465837861970381 0 0.71933979245794832 0.71933979245794832 0 0.69465837861970381 forward_v I I I I #
coedge $-1 $134 $135 $136 $137 reversed $53 $-1 #
face $-1 $-1 $138 $29 $-1 $139 forward single #
loop $-1 $140 $141 $55 #
cone-surface $-1 -65.02713710519636 -8.7940556816423161 2.8325477954917533 0.69465837861970381 0 -0.71933979245794832 0.35966989622897416 0 0.3473291893098519 1 I I -0.70710678118654746 0.70710678118654746 0.5 forward I I I I #
loop $-1 $-1 $142 $37 #
coedge $-1 $89 $89 $143 $144 reversed $56 $-1 #
face $-1 $145 $146 $30 $-1 $147 reversed single #
loop $-1 $-1 $148 $58 #
plane-surface $-1 -69.357585375530249 21.295707306705317 2.5237901420610314 -0.69465837861970381 0 0.71933979245794832 0.71933979245794832 0 0.69465837861970381 forward_v I I I I #
coedge $-1 $149 $150 $151 $152 reversed $59 $-1 #
face $-1 $-1 $153 $31 $-1 $154 forward single #
loop $-1 $155 $156 $61 #
cone-surface $-1 -65.02713710519636 21.295707306705317 2.8325477954917533 0.69465837861970381 0 -0.71933979245794832 0.35966989622897416 0 0.3473291893098519 1 I I -0.70710678118654746 0.70710678118654746 0.5 forward I I I I #
loop $-1 $-1 $157 $39 #
coedge $-1 $98 $98 $158 $159 reversed $62 $-1 #
face $-1 $160 $161 $24 $-1 $162 reversed single #
loop $-1 $-1 $163 $64 #
plane-surface $-1 0 -33.902602418371934 0 0 1 0 0 0 1 forward_v I I I I #
coedge $-1 $164 $165 $166 $167 forward $65 $-1 #
coedge $-1 $168 $67 $169 $170 forward $41 $-1 #
coedge $-1 $67 $168 $171 $172 forward $41 $-1 #
coedge $-1 $173 $174 $67 $106 reversed $175 $-1 #
edge $-1 $176 -33.902602418371934 $177 33.902602418371934 $105 $178 forward 7 unknown #
face $-1 $179 $180 $25 $-1 $181 reversed single #
loop $-1 $-1 $182 $68 #
plane-surface $-1 0 -26.27692355832334 -3.2444820833421959 0 -1 0 0 0 -1 forward_v I I I I #
coedge $-1 $183 $184 $185 $186 reversed $69 $-1 #
coedge $-1 $187 $71 $188 $189 forward $44 $-1 #
coedge $-1 $71 $187 $190 $191 reversed $44 $-1 #
coedge $-1 $192 $193 $71 $114 forward $194 $-1 #
edge $-1 $195 11.232042064149521 $196 18.857720924198116 $113 $197 forward 7 unknown #
face $-1 $198 $199 $26 $-1 $200 forward single #
loop $-1 $-1 $201 $72 #
plane-surface $-1 76.203922382858948 2.0509814673424156 197.03444540496545 0 -1 0 -0.73135370988377701 0 -0.68199835119979291 forward_v I I I I #
coedge $-1 $202 $203 $204 $205 reversed $73 $-1 #
coedge $-1 $120 $75 $206 $207 reversed $47 $-1 #
coedge $-1 $75 $119 $202 $208 reversed $47 $-1 #
coedge $-1 $204 $209 $75 $122 forward $210 $-1 #
edge $-1 $211 91.367640105016008 $212 97.536149782088003 $121 $213 forward 7 unknown #
loop $-1 $-1 $128 $76 #
plane-surface $-1 -25.245932363090759 -2.343334241393201 102.43092766634443 0.73135370988377701 0 0.68199835119979291 0.68199835119979291 0 -0.73135370988377701 forward_v I I I I #
loop $-1 $-1 $214 $49 #
coedge $-1 $126 $126 $127 $215 reversed $77 $-1 #
coedge $-1 $127 $127 $126 $215 forward $79 $-1 #
coedge $-1 $128 $128 $80 $129 forward $123 $-1 #
edge $-1 $216 0 $216 6.2831853071796004 $128 $217 forward 7 unknown #
face $-1 $218 $219 $28 $-1 $220 reversed single #
loop $-1 $-1 $221 $81 #
plane-surface $-1 -165.71724097941731 -3.7722232781196467 102.30713228089778 0 -1 0 0.69465837861970381 0 -0.71933979245794832 forward_v I I I I #
coedge $-1 $222 $223 $224 $225 reversed $82 $-1 #
coedge $-1 $135 $84 $226 $227 reversed $53 $-1 #
coedge $-1 $84 $134 $222 $228 reversed $53 $-1 #
coedge $-1 $224 $229 $84 $137 forward $230 $-1 #
edge $-1 $231 13.501035114178393 $232 18.2911833183027 $136 $233 forward 7 unknown #
loop $-1 $-1 $143 $85 #
plane-surface $-1 -69.357585375530249 -8.7940556816423161 2.5237901420610314 -0.69465837861970381 0 0.71933979245794832 0.71933979245794832 0 0.69465837861970381 forward_v I I I I #
loop $-1 $-1 $234 $55 #
coedge $-1 $141 $141 $142 $235 reversed $86 $-1 #
coedge $-1 $142 $142 $141 $235 forward $88 $-1 #
coedge $-1 $143 $143 $89 $144 forward $138 $-1 #
edge $-1 $236 0 $236 6.2831853071796004 $143 $237 forward 7 unknown #
face $-1 $238 $239 $30 $-1 $240 forward single #
loop $-1 $-1 $241 $90 #
plane-surface $-1 -165.71724097941731 26.317539710227987 102.30713228089778 0 -1 0 0.69465837861970381 0 -0.71933979245794832 forward_v I I I I #
coedge $-1 $242 $243 $244 $245 reversed $91 $-1 #
coedge $-1 $150 $93 $246 $247 reversed $59 $-1 #
coedge $-1 $93 $149 $242 $248 reversed $59 $-1 #
coedge $-1 $244 $249 $93 $152 forward $239 $-1 #
edge $-1 $250 13.501035114178393 $251 18.2911833183027 $151 $252 forward 7 unknown #
loop $-1 $-1 $158 $94 #
plane-surface $-1 -69.357585375530249 21.295707306705317 2.5237901420610314 -0.69465837861970381 0 0.71933979245794832 0.71933979245794832 0 0.69465837861970381 forward_v I I I I #
loop $-1 $-1 $253 $61 #
coedge $-1 $156 $156 $157 $254 reversed $95 $-1 #
coedge $-1 $157 $157 $156 $254 forward $97 $-1 #
coedge $-1 $158 $158 $98 $159 forward $153 $-1 #
edge $-1 $255 0 $255 6.2831853071796004 $158 $256 forward 7 unknown #
face $-1 $257 $258 $24 $-1 $259 reversed single #
loop $-1 $-1 $260 $99 #
plane-surface $-1 -69.357585375530263 0 0 1 0 0 0 0 -1 forward_v I I I I #
coedge $-1 $261 $171 $262 $263 forward $100 $-1 #
coedge $-1 $264 $102 $261 $265 forward $65 $-1 #
coedge $-1 $102 $264 $266 $267 forward $65 $-1 #
coedge $-1 $174 $173 $102 $167 reversed $175 $-1 #
edge $-1 $268 -33.902602418371934 $269 33.902602418371934 $166 $270 forward 7 unknown #
coedge $-1 $104 $103 $271 $272 forward $41 $-1 #
coedge $-1 $273 $274 $103 $170 reversed $258 $-1 #
edge $-1 $177 -69.357585375530263 $275 69.357585375530263 $169 $276 forward 7 unknown #
coedge $-1 $163 $277 $104 $172 reversed $100 $-1 #
edge $-1 $278 -69.357585375530263 $176 69.357585375530263 $171 $279 forward 7 unknown #
coedge $-1 $166 $105 $277 $280 forward $175 $-1 #
coedge $-1 $105 $166 $273 $281 reversed $175 $-1 #
loop $-1 $-1 $173 $257 #
vertex $-1 $106 $282 #
vertex $-1 $106 $283 #
straight-curve $-1 69.357585375530263 0 7.1495825974667175 0 1 0 I I #
face $-1 $284 $285 $25 $-1 $286 reversed single #
loop $-1 $-1 $287 $107 #
plane-surface $-1 -69.357585375530263 0 0 1 0 0 0 0 -1 forward_v I I I I #
coedge $-1 $288 $188 $193 $289 reversed $108 $-1 #
coedge $-1 $290 $110 $291 $292 reversed $69 $-1 #
coedge $-1 $110 $290 $288 $293 forward $69 $-1 #
coedge $-1 $193 $192 $110 $186 forward $194 $-1 #
edge $-1 $294 -18.857720924198116 $295 -11.232042064149521 $185 $296 forward 7 unknown #
coedge $-1 $112 $111 $287 $297 reversed $44 $-1 #
coedge $-1 $182 $298 $111 $189 reversed $108 $-1 #
edge $-1 $195 -69.357585375530263 $299 69.357585375530263 $188 $300 forward 7 unknown #
coedge $-1 $301 $302 $112 $191 forward $285 $-1 #
edge $-1 $196 -69.357585375530263 $303 69.357585375530263 $190 $304 forward 7 unknown #
coedge $-1 $185 $113 $302 $305 forward $194 $-1 #
coedge $-1 $113 $185 $182 $289 forward $194 $-1 #
loop $-1 $-1 $113 $284 #
vertex $-1 $114 $306 #
vertex $-1 $305 $307 #
straight-curve $-1 69.357585375530263 -15.044881494173818 -1.5181481939749386 0 -1 0 I I #
face $-1 $-1 $210 $26 $-1 $308 reversed single #
loop $-1 $-1 $309 $115 #
plane-surface $-1 0 0 7.1495825974667175 0 0 1 1 0 0 forward_v I I I I #
coedge $-1 $310 $311 $312 $313 reversed $116 $-1 #
coedge $-1 $314 $118 $120 $208 forward $73 $-1 #
coedge $-1 $118 $314 $310 $315 forward $73 $-1 #
coedge $-1 $312 $121 $118 $205 forward $210 $-1 #
edge $-1 $212 -5.5659828294322171 $316 3.2226485880390161 $204 $317 forward 7 unknown #
coedge $-1 $318 $319 $119 $207 forward $199 $-1 #
edge $-1 $320 25.50339599099896 $211 31.255624184100789 $206 $321 forward 7 unknown #
edge $-1 $212 -138.71517075106053 $320 -130.2807981708595 $120 $322 forward 7 unknown #
coedge $-1 $121 $312 $318 $323 reversed $210 $-1 #
loop $-1 $-1 $312 $198 #
vertex $-1 $323 $324 #
vertex $-1 $122 $325 #
straight-curve $-1 69.357585375530263 -6.7376499501288176 98.517222702482727 0 0 -1 I I #
coedge $-1 $214 $214 $-1 $326 reversed $125 $-1 #
edge $-1 $327 0 $327 6.2831853071796004 $126 $328 forward 7 unknown #
vertex $-1 $129 $329 #
ellipse-curve $-1 66.481471278979342 -2.343334241393201 4.06532775893072 0.73135370988377701 0 0.68199835119979291 1.0229975267996894 0 -1.0970305648256655 1 I I #
face $-1 $-1 $230 $28 $-1 $330 forward single #
loop $-1 $-1 $331 $130 #
plane-surface $-1 -69.357585375530263 0 0 1 0 0 0 0 -1 forward_v I I I I #
coedge $-1 $332 $333 $334 $335 reversed $131 $-1 #
coedge $-1 $336 $133 $135 $228 forward $82 $-1 #
coedge $-1 $133 $336 $332 $337 forward $82 $-1 #
coedge $-1 $334 $136 $133 $225 forward $230 $-1 #
edge $-1 $232 -9.4188602443438274 $338 0.6248045627015113 $224 $339 forward 7 unknown #
coedge $-1 $340 $341 $134 $227 forward $219 $-1 #
edge $-1 $342 -48.629775998387871 $231 -44.003983542982169 $226 $343 forward 7 unknown #
edge $-1 $232 -6.6590897019009549 $342 1.9785632286268914e-014 $135 $344 forward 7 unknown #
coedge $-1 $136 $334 $340 $345 forward $230 $-1 #
loop $-1 $-1 $334 $218 #
vertex $-1 $227 $346 #
vertex $-1 $137 $347 #
straight-curve $-1 -82.858620489708656 -13.815888085164985 7.1495825974667184 1 0 0 I I #
coedge $-1 $234 $234 $-1 $348 reversed $140 $-1 #
edge $-1 $349 0 $349 6.2831853071796004 $141 $350 forward 7 unknown #
vertex $-1 $144 $351 #
ellipse-curve $-1 -66.96251127346811 -8.7940556816423161 4.8366863697638722 -0.69465837861970381 0 0.71933979245794832 0.71933979245794832 0 0.69465837861970381 1 I I #
face $-1 $-1 $352 $30 $-1 $353 reversed single #
loop $-1 $-1 $151 $145 #
plane-surface $-1 0 0 7.1495825974667175 0 0 1 1 0 0 forward_v I I I I #
coedge $-1 $354 $355 $356 $357 reversed $146 $-1 #
coedge $-1 $358 $148 $150 $248 forward $91 $-1 #
coedge $-1 $148 $358 $354 $359 forward $91 $-1 #
coedge $-1 $356 $151 $148 $245 forward $239 $-1 #
edge $-1 $251 5.6260212498299893 $360 15.669686056875328 $244 $361 forward 7 unknown #
coedge $-1 $362 $363 $149 $247 forward $352 $-1 #
edge $-1 $364 -48.629775998387871 $250 -44.003983542982169 $246 $365 forward 7 unknown #
edge $-1 $251 -6.6590897019009549 $364 1.9785632286268914e-014 $150 $366 forward 7 unknown #
coedge $-1 $151 $356 $362 $367 forward $239 $-1 #
vertex $-1 $152 $368 #
vertex $-1 $152 $369 #
straight-curve $-1 -82.858620489708656 16.273874903182648 7.1495825974667184 1 0 0 I I #
coedge $-1 $253 $253 $-1 $370 reversed $155 $-1 #
edge $-1 $371 0 $371 6.2831853071796004 $156 $372 forward 7 unknown #
vertex $-1 $159 $373 #
ellipse-curve $-1 -66.96251127346811 21.295707306705317 4.8366863697638722 -0.69465837861970381 0 0.71933979245794832 0.71933979245794832 0 0.69465837861970381 1 I I #
face $-1 $-1 $175 $24 $-1 $374 reversed single #
loop $-1 $-1 $273 $160 #
plane-surface $-1 0 33.902602418371934 0 0 -1 0 0 0 -1 forward_v I I I I #
coedge $-1 $375 $271 $274 $376 forward $161 $-1 #
coedge $-1 $277 $163 $164 $265 reversed $100 $-1 #
coedge $-1 $271 $375 $163 $263 reversed $161 $-1 #
edge $-1 $278 -7.1495825974667175 $377 7.1495825974667175 $262 $378 forward 7 unknown #
coedge $-1 $165 $164 $375 $379 forward $65 $-1 #
edge $-1 $269 -69.357585375530263 $377 69.357585375530263 $261 $380 forward 7 unknown #
coedge $-1 $274 $273 $165 $267 reversed $258 $-1 #
edge $-1 $381 -69.357585375530263 $268 69.357585375530263 $266 $382 forward 7 unknown #
vertex $-1 $167 $383 #
vertex $-1 $280 $384 #
straight-curve $-1 69.357585375530263 0 -7.1495825974667175 0 -1 0 I I #
coedge $-1 $260 $262 $168 $272 reversed $161 $-1 #
edge $-1 $275 -33.902602418371934 $278 33.902602418371934 $271 $385 forward 7 unknown #
coedge $-1 $266 $169 $174 $281 forward $258 $-1 #
coedge $-1 $169 $266 $260 $376 reversed $258 $-1 #
vertex $-1 $170 $386 #
straight-curve $-1 0 33.902602418371934 7.1495825974667175 -1 0 0 I I #
coedge $-1 $171 $261 $173 $280 reversed $100 $-1 #
vertex $-1 $272 $387 #
straight-curve $-1 0 -33.902602418371934 7.1495825974667175 1 0 0 I I #
edge $-1 $176 -7.1495825974667175 $269 7.1495825974667175 $173 $388 forward 7 unknown #
edge $-1 $177 -7.1495825974667175 $268 7.1495825974667175 $174 $389 forward 7 unknown #
point $-1 69.357585375530263 -33.902602418371934 7.1495825974667175 #
point $-1 69.357585375530263 33.902602418371934 7.1495825974667175 #
face $-1 $-1 $194 $25 $-1 $390 reversed single #
loop $-1 $-1 $190 $179 #
plane-surface $-1 0 -33.902602418371934 0 0 1 0 0 0 1 forward_v I I I I #
coedge $-1 $391 $392 $187 $297 forward $180 $-1 #
coedge $-1 $298 $182 $184 $293 reversed $108 $-1 #
edge $-1 $295 -3.3485749310383555 $195 0.10409284769615934 $193 $393 forward 7 unknown #
coedge $-1 $184 $183 $394 $395 reversed $69 $-1 #
coedge $-1 $302 $301 $183 $292 forward $285 $-1 #
edge $-1 $396 -69.357585375530263 $294 69.357585375530263 $291 $397 forward 7 unknown #
edge $-1 $398 -69.357585375530263 $295 69.357585375530263 $288 $399 forward 7 unknown #
vertex $-1 $292 $400 #
vertex $-1 $186 $401 #
straight-curve $-1 69.357585375530263 -15.044881494173818 -4.9708159727094534 0 1 0 I I #
edge $-1 $303 -18.857720924198116 $299 -11.232042064149521 $287 $402 forward 7 unknown #
coedge $-1 $188 $288 $391 $403 reversed $108 $-1 #
vertex $-1 $297 $404 #
straight-curve $-1 0 -26.27692355832334 -1.5181481939749386 -1 0 0 I I #
coedge $-1 $291 $190 $392 $405 forward $285 $-1 #
coedge $-1 $190 $291 $192 $305 reversed $285 $-1 #
vertex $-1 $405 $406 #
straight-curve $-1 0 -33.902602418371934 -1.5181481939749386 -1 0 0 I I #
edge $-1 $196 1.5181481939749386 $294 4.9708159727094534 $192 $407 forward 7 unknown #
point $-1 69.357585375530263 -26.27692355832334 -1.5181481939749386 #
point $-1 69.357585375530263 -33.902602418371934 -1.5181481939749386 #
plane-surface $-1 69.357585375530263 0 0 -1 0 0 0 0 1 forward_v I I I I #
coedge $-1 $319 $318 $311 $408 forward $199 $-1 #
coedge $-1 $311 $201 $203 $315 reversed $116 $-1 #
coedge $-1 $201 $310 $309 $408 reversed $116 $-1 #
coedge $-1 $209 $204 $201 $313 forward $210 $-1 #
edge $-1 $316 -97.536149782088003 $409 -91.367640105016008 $312 $410 forward 7 unknown #
coedge $-1 $203 $202 $319 $411 reversed $73 $-1 #
edge $-1 $412 130.2807981708595 $316 138.71517075106053 $310 $413 forward 7 unknown #
vertex $-1 $205 $414 #
straight-curve $-1 69.357585375530263 -1.1716671206966005 0.98107292039473037 0 1 0 I I #
coedge $-1 $309 $206 $209 $323 forward $199 $-1 #
coedge $-1 $206 $309 $314 $411 forward $199 $-1 #
vertex $-1 $207 $415 #
straight-curve $-1 38.101961191429474 -6.7376499501288176 7.1495825974667184 1 0 0 I I #
straight-curve $-1 -25.245932363090759 -6.7376499501288176 102.43092766634443 -0.68199835119979291 0 0.73135370988377701 I I #
edge $-1 $211 -6.7376499501288176 $409 2.0509814673424156 $209 $416 forward 7 unknown #
point $-1 69.357585375530263 -6.7376499501288176 7.1495825974667175 #
point $-1 69.357585375530263 -6.7376499501288176 0.98107292039472327 #
edge $-1 $417 1 $417 0 $214 $-1 forward 7 unknown #
vertex $-1 $215 $418 #
ellipse-curve $-1 63.379975339030025 -2.343334241393201 1.1731360756008686 0.73135370988377701 0 0.68199835119979291 1.0229975267996894 0 -1.0970305648256655 1 I I #
point $-1 67.504468805779055 -2.343334241393201 2.9682971941050664 #
plane-surface $-1 0 0 7.1495825974667175 0 0 1 1 0 0 forward_v I I I I #
coedge $-1 $341 $340 $333 $419 forward $219 $-1 #
coedge $-1 $333 $221 $223 $337 reversed $131 $-1 #
coedge $-1 $221 $332 $331 $419 reversed $131 $-1 #
coedge $-1 $229 $224 $221 $335 forward $230 $-1 #
edge $-1 $338 -18.2911833183027 $420 -13.501035114178393 $334 $421 forward 7 unknown #
coedge $-1 $223 $222 $341 $422 reversed $82 $-1 #
edge $-1 $423 -1.9785632286268914e-014 $338 6.6590897019009549 $332 $424 forward 7 unknown #
vertex $-1 $225 $425 #
straight-curve $-1 -64.567437171405956 -4.3970278408211581 7.1495825974667184 0 1 0 I I #
coedge $-1 $331 $226 $229 $345 reversed $219 $-1 #
coedge $-1 $226 $331 $336 $422 forward $219 $-1 #
vertex $-1 $227 $426 #
straight-curve $-1 -69.357585375530263 -13.815888085164985 51.153566140448888 0 0 1 I I #
straight-curve $-1 -69.357585375530249 -13.815888085164985 2.5237901420610314 -0.71933979245794832 0 -0.69465837861970381 I I #
edge $-1 $420 3.7722232781196467 $231 13.815888085164985 $340 $427 forward 7 unknown #
point $-1 -69.357585375530263 -13.815888085164985 7.1495825974667175 #
point $-1 -64.567437171405956 -13.815888085164985 7.1495825974667175 #
edge $-1 $428 1 $428 0 $234 $-1 forward 7 unknown #
vertex $-1 $235 $429 #
ellipse-curve $-1 -65.374466294506206 -8.7940556816423161 3.1922176917207272 -0.69465837861970381 0 0.71933979245794832 0.71933979245794832 0 0.69465837861970381 1 I I #
point $-1 -66.243171481010165 -8.7940556816423161 5.5313447483835843 #
loop $-1 $-1 $246 $238 #
plane-surface $-1 -69.357585375530263 0 0 1 0 0 0 0 -1 forward_v I I I I #
coedge $-1 $355 $241 $243 $359 reversed $146 $-1 #
coedge $-1 $241 $354 $430 $431 reversed $146 $-1 #
coedge $-1 $249 $244 $241 $357 forward $239 $-1 #
edge $-1 $360 -18.2911833183027 $432 -13.501035114178393 $356 $433 forward 7 unknown #
coedge $-1 $243 $242 $363 $434 reversed $91 $-1 #
edge $-1 $435 -1.9785632286268914e-014 $360 6.6590897019009549 $354 $436 forward 7 unknown #
vertex $-1 $245 $437 #
straight-curve $-1 -64.567437171405956 10.647853653352659 7.1495825974667184 0 1 0 I I #
coedge $-1 $430 $246 $249 $367 reversed $352 $-1 #
coedge $-1 $246 $430 $358 $434 forward $352 $-1 #
vertex $-1 $247 $438 #
straight-curve $-1 -69.357585375530263 16.273874903182648 51.153566140448888 0 0 1 I I #
straight-curve $-1 -69.357585375530249 16.273874903182648 2.5237901420610314 -0.71933979245794832 0 -0.69465837861970381 I I #
edge $-1 $432 -26.317539710227987 $250 -16.273874903182648 $362 $439 forward 7 unknown #
point $-1 -69.357585375530263 16.273874903182648 7.1495825974667175 #
point $-1 -64.567437171405956 16.273874903182648 7.1495825974667175 #
edge $-1 $440 1 $440 0 $253 $-1 forward 7 unknown #
vertex $-1 $254 $441 #
ellipse-curve $-1 -65.374466294506206 21.295707306705317 3.1922176917207272 -0.69465837861970381 0 0.71933979245794832 0.71933979245794832 0 0.69465837861970381 1 I I #
point $-1 -66.243171481010165 21.295707306705317 5.5313447483835843 #
plane-surface $-1 69.357585375530263 0 0 -1 0 0 0 0 1 forward_v I I I I #
coedge $-1 $262 $260 $264 $379 reversed $161 $-1 #
edge $-1 $275 -7.1495825974667175 $381 7.1495825974667175 $274 $442 forward 7 unknown #
vertex $-1 $379 $443 #
straight-curve $-1 -69.357585375530263 -33.902602418371934 0 0 0 -1 I I #
edge $-1 $377 -33.902602418371934 $381 33.902602418371934 $375 $444 forward 7 unknown #
straight-curve $-1 0 -33.902602418371934 -7.1495825974667175 -1 0 0 I I #
vertex $-1 $267 $445 #
straight-curve $-1 0 33.902602418371934 -7.1495825974667175 1 0 0 I I #
point $-1 69.357585375530263 33.902602418371934 -7.1495825974667175 #
point $-1 69.357585375530263 -33.902602418371934 -7.1495825974667175 #
straight-curve $-1 -69.357585375530263 0 7.1495825974667175 0 -1 0 I I #
point $-1 -69.357585375530263 33.902602418371934 7.1495825974667175 #
point $-1 -69.357585375530263 -33.902602418371934 7.1495825974667175 #
straight-curve $-1 69.357585375530263 -33.902602418371934 0 0 0 -1 I I #
straight-curve $-1 69.357585375530263 33.902602418371934 0 0 0 -1 I I #
plane-surface $-1 69.357585375530263 0 0 -1 0 0 0 0 1 forward_v I I I I #
coedge $-1 $394 $287 $298 $403 forward $180 $-1 #
coedge $-1 $287 $394 $301 $405 reversed $180 $-1 #
straight-curve $-1 69.357585375530263 -26.27692355832334 -1.6222410416710979 0 0 1 I I #
coedge $-1 $392 $391 $290 $395 forward $180 $-1 #
edge $-1 $398 11.232042064149521 $396 18.857720924198116 $394 $446 forward 7 unknown #
vertex $-1 $292 $447 #
straight-curve $-1 0 -33.902602418371934 -4.9708159727094534 1 0 0 I I #
vertex $-1 $395 $448 #
straight-curve $-1 0 -26.27692355832334 -4.9708159727094534 1 0 0 I I #
point $-1 69.357585375530263 -33.902602418371934 -4.9708159727094534 #
point $-1 69.357585375530263 -26.27692355832334 -4.9708159727094534 #
straight-curve $-1 -69.357585375530263 -15.044881494173818 -1.5181481939749386 0 1 0 I I #
edge $-1 $299 -0.10409284769615934 $398 3.3485749310383555 $391 $449 forward 7 unknown #
point $-1 -69.357585375530263 -26.27692355832334 -1.5181481939749386 #
edge $-1 $303 1.5181481939749386 $396 4.9708159727094534 $392 $450 forward 7 unknown #
point $-1 -69.357585375530263 -33.902602418371934 -1.5181481939749386 #
straight-curve $-1 69.357585375530263 -33.902602418371934 0 0 0 -1 I I #
edge $-1 $409 -31.255624184100789 $412 -25.50339599099896 $309 $451 forward 7 unknown #
vertex $-1 $408 $452 #
straight-curve $-1 69.357585375530263 2.0509814673424156 98.517222702482727 0 0 1 I I #
edge $-1 $412 -3.2226485880390161 $320 5.5659828294322171 $319 $453 forward 7 unknown #
vertex $-1 $411 $454 #
straight-curve $-1 -25.245932363090759 2.0509814673424156 102.43092766634443 0.68199835119979291 0 -0.73135370988377701 I I #
point $-1 69.357585375530263 2.0509814673424156 0.98107292039472327 #
point $-1 63.605357182428435 -6.7376499501288176 7.1495825974667326 #
straight-curve $-1 69.357585375530263 0 7.1495825974667175 0 1 0 I I #
vertex $-1 $326 $455 #
point $-1 64.40297286582971 -2.343334241393201 0.076105510775203111 #
edge $-1 $420 44.003983542982169 $423 48.629775998387871 $331 $456 forward 7 unknown #
vertex $-1 $345 $457 #
straight-curve $-1 -82.858620489708656 -3.7722232781196467 7.1495825974667184 -1 0 0 I I #
edge $-1 $423 -0.6248045627015113 $342 9.4188602443438274 $341 $458 forward 7 unknown #
vertex $-1 $422 $459 #
straight-curve $-1 -69.357585375530249 -3.7722232781196467 2.5237901420610314 0.71933979245794832 0 0.69465837861970381 I I #
point $-1 -64.567437171405956 -3.7722232781196467 7.1495825974667175 #
point $-1 -69.357585375530263 -13.815888085164985 2.5237901420610176 #
straight-curve $-1 -69.357585375530263 0 7.1495825974667175 0 -1 0 I I #
vertex $-1 $348 $460 #
point $-1 -64.655126502048262 -8.7940556816423161 3.8868760703404313 #
coedge $-1 $363 $362 $355 $431 forward $352 $-1 #
edge $-1 $432 44.003983542982169 $435 48.629775998387871 $430 $461 forward 7 unknown #
vertex $-1 $367 $462 #
straight-curve $-1 -82.858620489708656 26.317539710227987 7.1495825974667184 -1 0 0 I I #
edge $-1 $435 -15.669686056875328 $364 -5.6260212498299893 $363 $463 forward 7 unknown #
vertex $-1 $434 $464 #
straight-curve $-1 -69.357585375530249 26.317539710227987 2.5237901420610314 0.71933979245794832 0 0.69465837861970381 I I #
point $-1 -64.567437171405956 26.317539710227987 7.1495825974667175 #
point $-1 -69.357585375530263 16.273874903182648 2.5237901420610176 #
straight-curve $-1 -69.357585375530263 0 7.1495825974667175 0 -1 0 I I #
vertex $-1 $370 $465 #
point $-1 -64.655126502048262 21.295707306705317 3.8868760703404313 #
straight-curve $-1 -69.357585375530263 33.902602418371934 0 0 0 -1 I I #
point $-1 -69.357585375530263 -33.902602418371934 -7.1495825974667175 #
straight-curve $-1 -69.357585375530263 0 -7.1495825974667175 0 1 0 I I #
point $-1 -69.357585375530263 33.902602418371934 -7.1495825974667175 #
straight-curve $-1 -69.357585375530263 -15.044881494173818 -4.9708159727094534 0 -1 0 I I #
point $-1 -69.357585375530263 -33.902602418371934 -4.9708159727094534 #
point $-1 -69.357585375530263 -26.27692355832334 -4.9708159727094534 #
straight-curve $-1 -69.357585375530263 -26.27692355832334 -1.6222410416710979 0 0 -1 I I #
straight-curve $-1 -69.357585375530263 -33.902602418371934 0 0 0 -1 I I #
straight-curve $-1 38.101961191429474 2.0509814673424156 7.1495825974667184 -1 0 0 I I #
point $-1 69.357585375530263 2.0509814673424156 7.1495825974667175 #
straight-curve $-1 63.605357182428449 -1.1716671206966005 7.1495825974667184 0 -1 0 I I #
point $-1 63.605357182428435 2.0509814673424156 7.1495825974667326 #
point $-1 62.282944774204353 -2.343334241393201 0.15013854880117927 #
straight-curve $-1 -69.357585375530263 -3.7722232781196467 51.153566140448888 0 0 -1 I I #
point $-1 -69.357585375530263 -3.7722232781196467 7.1495825974667175 #
straight-curve $-1 -69.357585375530263 -4.3970278408211581 2.5237901420610109 0 -1 0 I I #
point $-1 -69.357585375530263 -3.7722232781196467 2.5237901420610176 #
point $-1 -64.679807915886514 -8.7940556816423161 2.4728778992627793 #
straight-curve $-1 -69.357585375530263 26.317539710227987 51.153566140448888 0 0 -1 I I #
point $-1 -69.357585375530263 26.317539710227987 7.1495825974667175 #
straight-curve $-1 -69.357585375530263 10.647853653352659 2.5237901420610109 0 -1 0 I I #
point $-1 -69.357585375530263 26.317539710227987 2.5237901420610176 #
point $-1 -64.679807915886514 21.295707306705317 2.4728778992627793 #
End-of-ACIS-data 