500 0 5 0           
7 Unknown 11 ACIS 5.0 NT 24 Fri Mar 26 14:28:42 1999 
-1 9.9999999999999995e-007 1e-010 
body $-1 $5 $-1 $6 #
body $-1 $7 $-1 $8 #
body $-1 $9 $-1 $10 #
body $-1 $11 $-1 $12 #
body $-1 $13 $-1 $14 #
lump $-1 $-1 $15 $0 #
transform $-1 1 0 0 0 1 0 0 0 1 45.829035309915461 22.87367754658499 8.5359368166718532 1 rotate no_reflect no_shear #
lump $-1 $-1 $16 $1 #
transform $-1 1 0 0 0 1 0 0 0 1 45.829035309915461 22.87367754658499 8.5359368166718532 1 rotate no_reflect no_shear #
lump $-1 $-1 $17 $2 #
transform $-1 1 0 0 0 1 0 0 0 1 45.829035309915461 22.87367754658499 8.5359368166718532 1 rotate no_reflect no_shear #
lump $-1 $-1 $18 $3 #
transform $-1 1 0 0 0 1 0 0 0 1 45.829035309915461 22.87367754658499 8.5359368166718532 1 rotate no_reflect no_shear #
lump $-1 $-1 $19 $4 #
transform $-1 1 0 0 0 1 0 0 0 1 45.829035309915461 22.87367754658499 8.5359368166718532 1 rotate no_reflect no_shear #
shell $-1 $-1 $-1 $20 $-1 $5 #
shell $-1 $-1 $-1 $21 $-1 $7 #
shell $-1 $-1 $-1 $22 $-1 $9 #
shell $-1 $-1 $-1 $23 $-1 $11 #
shell $-1 $-1 $-1 $24 $-1 $13 #
face $-1 $25 $26 $15 $-1 $27 forward single #
face $-1 $28 $29 $16 $-1 $30 reversed single #
face $-1 $31 $32 $17 $-1 $33 reversed single #
face $-1 $34 $35 $18 $-1 $36 forward single #
face $-1 $37 $38 $19 $-1 $39 forward single #
face $-1 $40 $41 $15 $-1 $42 reversed single #
loop $-1 $-1 $43 $20 #
plane-surface $-1 0 0 8.5359368166718532 0 0 1 1 0 0 forward_v I I I I #
face $-1 $44 $45 $16 $-1 $46 reversed single #
loop $-1 $-1 $47 $21 #
plane-surface $-1 -44.053517729380459 -16.463167375426732 0 0 -1 0 0 0 -1 forward_v I I I I #
face $-1 $48 $49 $17 $-1 $50 reversed single #
loop $-1 $-1 $51 $22 #
plane-surface $-1 -115.00426007115226 12.876479591485221 63.549581315923874 0 1 0 -0.75470958851134928 0 0.65605901945558964 forward_v I I I I #
face $-1 $52 $53 $18 $-1 $54 forward single #
loop $-1 $55 $56 $23 #
cone-surface $-1 -42.280246622973877 15.732821864370866 4.8255760438773416 0.75470958851134928 0 -0.65605901945558964 0.65605901945558964 0 0.75470958851134928 1 I I 0 1 1 forward I I I I #
face $-1 $57 $58 $19 $-1 $59 forward single #
loop $-1 $60 $61 $24 #
cone-surface $-1 -42.280246622973877 20.017335273699342 4.8255760438773416 0.75470958851134928 0 -0.65605901945558964 0.65605901945558964 0 0.75470958851134928 1 I I 0 1 1 forward I I I I #
face $-1 $62 $63 $15 $-1 $64 reversed single #
loop $-1 $-1 $65 $25 #
plane-surface $-1 0 0 -8.5359368166718532 0 0 1 1 0 0 forward_v I I I I #
coedge $-1 $66 $67 $68 $69 forward $26 $-1 #
face $-1 $70 $71 $16 $-1 $72 forward single #
loop $-1 $-1 $73 $28 #
plane-surface $-1 -42.278000148845457 -19.668422461005861 0 -1 0 0 0 0 1 forward_v I I I I #
coedge $-1 $74 $75 $76 $77 forward $29 $-1 #
face $-1 $78 $79 $17 $-1 $80 reversed single #
loop $-1 $-1 $81 $31 #
plane-surface $-1 -45.829035309915469 17.875078569035107 3.416477379886409 -0.75470958851134928 0 0.65605901945558964 0.65605901945558964 0 0.75470958851134928 forward_v I I I I #
coedge $-1 $82 $83 $84 $85 reversed $32 $-1 #
face $-1 $-1 $86 $18 $-1 $87 forward single #
loop $-1 $88 $89 $34 #
cone-surface $-1 -40.579242181592605 15.732821864370866 3.3469154797477536 0.75470958851134928 0 -0.65605901945558964 0.32802950972779482 0 0.37735479425567464 1 I I -0.70710678118654746 0.70710678118654746 0.5 forward I I I I #
loop $-1 $-1 $90 $23 #
coedge $-1 $56 $56 $91 $92 reversed $35 $-1 #
face $-1 $-1 $93 $19 $-1 $94 forward single #
loop $-1 $95 $96 $37 #
cone-surface $-1 -40.579242181592605 20.017335273699342 3.3469154797477536 0.75470958851134928 0 -0.65605901945558964 0.32802950972779482 0 0.37735479425567464 1 I I -0.70710678118654746 0.70710678118654746 0.5 forward I I I I #
loop $-1 $-1 $97 $24 #
coedge $-1 $61 $61 $98 $99 reversed $38 $-1 #
face $-1 $100 $101 $15 $-1 $102 reversed single #
loop $-1 $-1 $103 $40 #
plane-surface $-1 0 -22.87367754658499 0 0 1 0 0 0 1 forward_v I I I I #
coedge $-1 $104 $105 $106 $107 forward $41 $-1 #
coedge $-1 $108 $43 $109 $110 forward $26 $-1 #
coedge $-1 $43 $108 $111 $112 forward $26 $-1 #
coedge $-1 $113 $114 $43 $69 reversed $115 $-1 #
edge $-1 $116 -22.87367754658499 $117 22.87367754658499 $68 $118 forward 7 unknown #
face $-1 $119 $120 $16 $-1 $121 reversed single #
loop $-1 $-1 $122 $44 #
plane-surface $-1 0 0 8.5359368166718532 0 0 1 1 0 0 forward_v I I I I #
coedge $-1 $123 $124 $125 $126 reversed $45 $-1 #
coedge $-1 $127 $47 $128 $129 reversed $29 $-1 #
coedge $-1 $47 $127 $130 $131 reversed $29 $-1 #
coedge $-1 $124 $123 $47 $77 reversed $45 $-1 #
edge $-1 $132 -8.5359368166718532 $133 8.5359368166718532 $76 $134 forward 7 unknown #
face $-1 $135 $136 $17 $-1 $137 reversed single #
loop $-1 $-1 $138 $48 #
plane-surface $-1 0 22.87367754658499 0 0 -1 0 0 0 -1 forward_v I I I I #
coedge $-1 $139 $140 $141 $142 reversed $49 $-1 #
coedge $-1 $83 $51 $143 $144 reversed $32 $-1 #
coedge $-1 $51 $82 $139 $145 reversed $32 $-1 #
coedge $-1 $141 $146 $51 $85 forward $147 $-1 #
edge $-1 $148 11.673094725660668 $149 16.123372805292632 $84 $150 forward 7 unknown #
loop $-1 $-1 $91 $52 #
plane-surface $-1 -45.829035309915469 17.875078569035107 3.416477379886409 -0.75470958851134928 0 0.65605901945558964 0.65605901945558964 0 0.75470958851134928 forward_v I I I I #
loop $-1 $-1 $151 $34 #
coedge $-1 $89 $89 $90 $152 reversed $53 $-1 #
coedge $-1 $90 $90 $89 $152 forward $55 $-1 #
coedge $-1 $91 $91 $56 $92 forward $86 $-1 #
edge $-1 $153 0 $153 6.2831853071796004 $91 $154 forward 7 unknown #
loop $-1 $-1 $98 $57 #
plane-surface $-1 -45.829035309915469 17.875078569035107 3.416477379886409 -0.75470958851134928 0 0.65605901945558964 0.65605901945558964 0 0.75470958851134928 forward_v I I I I #
loop $-1 $-1 $155 $37 #
coedge $-1 $96 $96 $97 $156 reversed $58 $-1 #
coedge $-1 $97 $97 $96 $156 forward $60 $-1 #
coedge $-1 $98 $98 $61 $99 forward $93 $-1 #
edge $-1 $157 0 $157 6.2831853071796004 $98 $158 forward 7 unknown #
face $-1 $159 $160 $15 $-1 $161 reversed single #
loop $-1 $-1 $162 $62 #
plane-surface $-1 -45.829035309915461 0 0 1 0 0 0 0 -1 forward_v I I I I #
coedge $-1 $163 $111 $164 $165 forward $63 $-1 #
coedge $-1 $166 $65 $163 $167 forward $41 $-1 #
coedge $-1 $65 $166 $168 $169 forward $41 $-1 #
coedge $-1 $114 $113 $65 $107 reversed $115 $-1 #
edge $-1 $170 -22.87367754658499 $171 22.87367754658499 $106 $172 forward 7 unknown #
coedge $-1 $67 $66 $173 $174 forward $26 $-1 #
coedge $-1 $175 $176 $66 $110 reversed $160 $-1 #
edge $-1 $117 -45.829035309915461 $177 45.829035309915461 $109 $178 forward 7 unknown #
coedge $-1 $103 $179 $67 $112 reversed $63 $-1 #
edge $-1 $180 -45.829035309915461 $116 45.829035309915461 $111 $181 forward 7 unknown #
coedge $-1 $106 $68 $179 $182 forward $115 $-1 #
coedge $-1 $68 $106 $175 $183 reversed $115 $-1 #
loop $-1 $-1 $113 $159 #
vertex $-1 $69 $184 #
vertex $-1 $69 $185 #
straight-curve $-1 45.829035309915461 0 8.5359368166718532 0 1 0 I I #
face $-1 $186 $187 $16 $-1 $188 reversed single #
loop $-1 $-1 $189 $70 #
plane-surface $-1 -45.829035309915461 0 0 1 0 0 0 0 -1 forward_v I I I I #
coedge $-1 $130 $190 $124 $191 forward $71 $-1 #
coedge $-1 $76 $73 $192 $193 reversed $45 $-1 #
coedge $-1 $73 $76 $122 $191 reversed $45 $-1 #
coedge $-1 $194 $195 $73 $126 forward $196 $-1 #
edge $-1 $197 -8.5359368166718532 $198 8.5359368166718532 $125 $199 forward 7 unknown #
coedge $-1 $75 $74 $189 $200 reversed $29 $-1 #
coedge $-1 $192 $201 $74 $129 forward $187 $-1 #
edge $-1 $202 -23.802276445225232 $133 -20.251241284155228 $128 $203 forward 7 unknown #
coedge $-1 $204 $122 $75 $131 forward $71 $-1 #
edge $-1 $132 20.251241284155228 $205 23.802276445225232 $130 $206 forward 7 unknown #
vertex $-1 $131 $207 #
vertex $-1 $129 $208 #
straight-curve $-1 -42.278000148845457 -16.463167375426732 0 0 0 -1 I I #
face $-1 $-1 $147 $17 $-1 $209 forward single #
loop $-1 $-1 $210 $78 #
plane-surface $-1 -45.829035309915461 0 0 1 0 0 0 0 -1 forward_v I I I I #
coedge $-1 $211 $212 $140 $213 forward $79 $-1 #
coedge $-1 $214 $81 $83 $145 forward $49 $-1 #
coedge $-1 $81 $214 $138 $213 reversed $49 $-1 #
coedge $-1 $215 $84 $81 $142 forward $147 $-1 #
edge $-1 $149 3.9389403069676678 $216 13.936138262067439 $141 $217 forward 7 unknown #
coedge $-1 $218 $210 $82 $144 forward $136 $-1 #
edge $-1 $219 -28.358313278075521 $148 -23.238853841290084 $143 $220 forward 7 unknown #
edge $-1 $149 -6.7833501981649436 $219 -1.0694430631949516e-014 $83 $221 forward 7 unknown #
coedge $-1 $84 $215 $218 $222 forward $147 $-1 #
loop $-1 $-1 $141 $135 #
vertex $-1 $144 $223 #
vertex $-1 $85 $224 #
straight-curve $-1 -57.50213003557613 12.876479591485221 8.5359368166718532 1 0 0 I I #
coedge $-1 $151 $151 $-1 $225 reversed $88 $-1 #
edge $-1 $226 0 $226 6.2831853071796004 $89 $227 forward 7 unknown #
vertex $-1 $92 $228 #
ellipse-curve $-1 -43.603896270099476 15.732821864370866 5.9762070982791364 -0.75470958851134928 0 0.65605901945558964 0.65605901945558964 0 0.75470958851134928 1 I I #
coedge $-1 $155 $155 $-1 $229 reversed $95 $-1 #
edge $-1 $230 0 $230 6.2831853071796004 $96 $231 forward 7 unknown #
vertex $-1 $99 $232 #
ellipse-curve $-1 -43.603896270099476 20.017335273699342 5.9762070982791364 -0.75470958851134928 0 0.65605901945558964 0.65605901945558964 0 0.75470958851134928 1 I I #
face $-1 $-1 $115 $15 $-1 $233 reversed single #
loop $-1 $-1 $175 $100 #
plane-surface $-1 0 22.87367754658499 0 0 -1 0 0 0 -1 forward_v I I I I #
coedge $-1 $234 $173 $176 $235 forward $101 $-1 #
coedge $-1 $179 $103 $104 $167 reversed $63 $-1 #
coedge $-1 $173 $234 $103 $165 reversed $101 $-1 #
edge $-1 $180 -8.5359368166718532 $236 8.5359368166718532 $164 $237 forward 7 unknown #
coedge $-1 $105 $104 $234 $238 forward $41 $-1 #
edge $-1 $171 -45.829035309915461 $236 45.829035309915461 $163 $239 forward 7 unknown #
coedge $-1 $176 $175 $105 $169 reversed $160 $-1 #
edge $-1 $240 -45.829035309915461 $170 45.829035309915461 $168 $241 forward 7 unknown #
vertex $-1 $107 $242 #
vertex $-1 $182 $243 #
straight-curve $-1 45.829035309915461 0 -8.5359368166718532 0 -1 0 I I #
coedge $-1 $162 $164 $108 $174 reversed $101 $-1 #
edge $-1 $177 -22.87367754658499 $180 22.87367754658499 $173 $244 forward 7 unknown #
coedge $-1 $168 $109 $114 $183 forward $160 $-1 #
coedge $-1 $109 $168 $162 $235 reversed $160 $-1 #
vertex $-1 $110 $245 #
straight-curve $-1 0 22.87367754658499 8.5359368166718532 -1 0 0 I I #
coedge $-1 $111 $163 $113 $182 reversed $63 $-1 #
vertex $-1 $174 $246 #
straight-curve $-1 0 -22.87367754658499 8.5359368166718532 1 0 0 I I #
edge $-1 $116 -8.5359368166718532 $171 8.5359368166718532 $113 $247 forward 7 unknown #
edge $-1 $117 -8.5359368166718532 $170 8.5359368166718532 $114 $248 forward 7 unknown #
point $-1 45.829035309915461 -22.87367754658499 8.5359368166718532 #
point $-1 45.829035309915461 22.87367754658499 8.5359368166718532 #
face $-1 $-1 $196 $16 $-1 $249 reversed single #
loop $-1 $-1 $192 $119 #
plane-surface $-1 0 0 -8.5359368166718532 0 0 1 1 0 0 forward_v I I I I #
coedge $-1 $250 $251 $127 $200 forward $120 $-1 #
coedge $-1 $122 $204 $194 $252 forward $71 $-1 #
edge $-1 $198 -13.039466316082059 $132 -6.6289561449238015 $122 $253 forward 7 unknown #
coedge $-1 $254 $128 $123 $193 forward $187 $-1 #
edge $-1 $133 6.6289561449238015 $197 13.039466316082059 $192 $255 forward 7 unknown #
coedge $-1 $256 $125 $190 $252 reversed $196 $-1 #
coedge $-1 $125 $256 $254 $257 reversed $196 $-1 #
loop $-1 $-1 $125 $186 #
vertex $-1 $257 $258 #
vertex $-1 $126 $259 #
straight-curve $-1 -42.278000148845457 -22.87367754658499 0 0 0 1 I I #
edge $-1 $205 -8.5359368166718532 $202 8.5359368166718532 $189 $260 forward 7 unknown #
coedge $-1 $128 $254 $250 $261 forward $187 $-1 #
vertex $-1 $129 $262 #
straight-curve $-1 -22.02675886469023 -16.463167375426732 -8.5359368166718532 1 0 0 I I #
coedge $-1 $190 $130 $251 $263 forward $71 $-1 #
vertex $-1 $263 $264 #
straight-curve $-1 -22.02675886469023 -16.463167375426732 8.5359368166718532 -1 0 0 I I #
point $-1 -42.278000148845457 -16.463167375426732 8.5359368166718532 #
point $-1 -42.278000148845457 -16.463167375426732 -8.5359368166718532 #
plane-surface $-1 0 0 8.5359368166718532 0 0 1 1 0 0 forward_v I I I I #
coedge $-1 $143 $265 $214 $266 forward $136 $-1 #
coedge $-1 $212 $138 $265 $267 reversed $79 $-1 #
coedge $-1 $138 $211 $215 $268 reversed $79 $-1 #
edge $-1 $216 6.9607016670782258 $269 13.744051865243158 $138 $270 forward 7 unknown #
coedge $-1 $140 $139 $210 $266 reversed $49 $-1 #
coedge $-1 $146 $141 $212 $268 forward $147 $-1 #
vertex $-1 $268 $271 #
straight-curve $-1 -41.37875723028349 8.9375392845175536 8.5359368166718532 0 1 0 I I #
coedge $-1 $265 $143 $146 $222 reversed $136 $-1 #
vertex $-1 $144 $272 #
straight-curve $-1 -45.829035309915461 12.876479591485221 31.774790657961937 0 0 1 I I #
straight-curve $-1 -45.829035309915469 12.876479591485221 3.416477379886409 -0.65605901945558964 0 -0.75470958851134928 I I #
edge $-1 $273 -22.87367754658499 $148 -12.876479591485221 $218 $274 forward 7 unknown #
point $-1 -45.829035309915461 12.876479591485221 8.5359368166718532 #
point $-1 -41.378757230283497 12.876479591485221 8.5359368166718532 #
edge $-1 $275 1 $275 0 $151 $-1 forward 7 unknown #
vertex $-1 $152 $276 #
ellipse-curve $-1 -40.956596975848278 15.732821864370866 3.6749449894755486 -0.75470958851134928 0 0.65605901945558964 0.65605901945558964 0 0.75470958851134928 1 I I #
point $-1 -42.947837250643886 15.732821864370866 6.7309166867904837 #
edge $-1 $277 1 $277 0 $155 $-1 forward 7 unknown #
vertex $-1 $156 $278 #
ellipse-curve $-1 -40.956596975848278 20.017335273699342 3.6749449894755486 -0.75470958851134928 0 0.65605901945558964 0.65605901945558964 0 0.75470958851134928 1 I I #
point $-1 -42.947837250643886 20.017335273699342 6.7309166867904837 #
plane-surface $-1 45.829035309915461 0 0 -1 0 0 0 0 1 forward_v I I I I #
coedge $-1 $164 $162 $166 $238 reversed $101 $-1 #
edge $-1 $177 -8.5359368166718532 $240 8.5359368166718532 $176 $279 forward 7 unknown #
vertex $-1 $238 $280 #
straight-curve $-1 -45.829035309915461 -22.87367754658499 0 0 0 -1 I I #
edge $-1 $236 -22.87367754658499 $240 22.87367754658499 $234 $281 forward 7 unknown #
straight-curve $-1 0 -22.87367754658499 -8.5359368166718532 -1 0 0 I I #
vertex $-1 $169 $282 #
straight-curve $-1 0 22.87367754658499 -8.5359368166718532 1 0 0 I I #
point $-1 45.829035309915461 22.87367754658499 -8.5359368166718532 #
point $-1 45.829035309915461 -22.87367754658499 -8.5359368166718532 #
straight-curve $-1 -45.829035309915461 0 8.5359368166718532 0 -1 0 I I #
point $-1 -45.829035309915461 22.87367754658499 8.5359368166718532 #
point $-1 -45.829035309915461 -22.87367754658499 8.5359368166718532 #
straight-curve $-1 45.829035309915461 -22.87367754658499 0 0 0 -1 I I #
straight-curve $-1 45.829035309915461 22.87367754658499 0 0 0 -1 I I #
plane-surface $-1 0 -22.87367754658499 0 0 1 0 0 0 1 forward_v I I I I #
coedge $-1 $283 $189 $201 $261 reversed $120 $-1 #
coedge $-1 $189 $283 $204 $263 reversed $120 $-1 #
edge $-1 $284 -45.829035309915461 $198 -42.278000148845457 $194 $285 forward 7 unknown #
straight-curve $-1 -42.278000148845457 -9.8342112305029303 8.5359368166718532 0 1 0 I I #
coedge $-1 $201 $192 $195 $257 forward $187 $-1 #
straight-curve $-1 -42.278000148845457 -9.8342112305029303 -8.5359368166718532 0 -1 0 I I #
coedge $-1 $195 $194 $283 $286 forward $196 $-1 #
edge $-1 $197 42.278000148845457 $287 45.829035309915461 $195 $288 forward 7 unknown #
point $-1 -42.278000148845457 -22.87367754658499 -8.5359368166718532 #
point $-1 -42.278000148845457 -22.87367754658499 8.5359368166718532 #
straight-curve $-1 -45.829035309915461 -16.463167375426732 0 0 0 -1 I I #
edge $-1 $287 -22.87367754658499 $202 -16.463167375426732 $250 $289 forward 7 unknown #
point $-1 -45.829035309915461 -16.463167375426732 -8.5359368166718532 #
edge $-1 $205 16.463167375426732 $284 22.87367754658499 $251 $290 forward 7 unknown #
point $-1 -45.829035309915461 -16.463167375426732 8.5359368166718532 #
coedge $-1 $210 $218 $211 $267 forward $136 $-1 #
edge $-1 $269 -13.936138262067439 $219 -3.9389403069676678 $210 $291 forward 7 unknown #
edge $-1 $273 -8.5359368166718532 $269 -3.416477379886417 $211 $292 forward 7 unknown #
edge $-1 $216 41.378757230283497 $273 45.829035309915461 $212 $293 forward 7 unknown #
vertex $-1 $266 $294 #
straight-curve $-1 -36.812126119857268 22.87367754658499 13.789245107582722 -0.65605901945558975 0 -0.75470958851134939 I I #
point $-1 -41.378757230283497 22.873677546584993 8.5359368166718532 #
point $-1 -45.829035309915461 12.876479591485221 3.416477379886417 #
vertex $-1 $268 $295 #
straight-curve $-1 -45.829035309915461 0 8.5359368166718532 0 -1 0 I I #
vertex $-1 $225 $296 #
point $-1 -40.300537956392688 15.732821864370866 4.4296545779868977 #
vertex $-1 $229 $297 #
point $-1 -40.300537956392688 20.017335273699342 4.4296545779868977 #
straight-curve $-1 -45.829035309915461 22.87367754658499 0 0 0 -1 I I #
point $-1 -45.829035309915461 -22.87367754658499 -8.5359368166718532 #
straight-curve $-1 -45.829035309915461 0 -8.5359368166718532 0 1 0 I I #
point $-1 -45.829035309915461 22.87367754658499 -8.5359368166718532 #
coedge $-1 $251 $250 $256 $286 reversed $120 $-1 #
vertex $-1 $263 $298 #
straight-curve $-1 0 -22.87367754658499 8.5359368166718532 1 0 0 I I #
edge $-1 $284 -8.5359368166718532 $287 8.5359368166718532 $283 $299 forward 7 unknown #
vertex $-1 $261 $300 #
straight-curve $-1 0 -22.87367754658499 -8.5359368166718532 -1 0 0 I I #
straight-curve $-1 -45.829035309915461 0 -8.5359368166718532 0 1 0 I I #
straight-curve $-1 -45.829035309915461 0 8.5359368166718532 0 -1 0 I I #
straight-curve $-1 -45.829035309915461 8.9375392845175536 3.4164773798864201 0 -1 0 I I #
straight-curve $-1 -45.829035309915461 22.87367754658499 0 0 0 -1 I I #
straight-curve $-1 0 22.87367754658499 8.5359368166718532 -1 0 0 I I #
point $-1 -45.829035309915461 22.873677546584993 3.416477379886417 #
point $-1 -45.829035309915461 22.87367754658499 8.5359368166718532 #
point $-1 -40.201887387336932 15.732821864370866 3.0188859700199586 #
point $-1 -40.201887387336932 20.017335273699342 3.0188859700199586 #
point $-1 -45.829035309915461 -22.87367754658499 8.5359368166718532 #
straight-curve $-1 -45.829035309915461 -22.87367754658499 0 0 0 -1 I I #
point $-1 -45.829035309915461 -22.87367754658499 -8.5359368166718532 #
End-of-ACIS-data 