500 0 12 0           
7 Unknown 11 ACIS 5.0 NT 24 Fri Mar 26 03:28:08 1999 
-1 9.9999999999999995e-007 1e-010 
body $-1 $12 $-1 $13 #
body $-1 $14 $-1 $15 #
body $-1 $16 $-1 $17 #
body $-1 $18 $-1 $19 #
body $-1 $20 $-1 $21 #
body $-1 $22 $-1 $23 #
body $-1 $24 $-1 $25 #
body $-1 $26 $-1 $27 #
body $-1 $28 $-1 $29 #
body $-1 $30 $-1 $31 #
body $-1 $32 $-1 $33 #
body $-1 $34 $-1 $35 #
lump $-1 $-1 $36 $0 #
transform $-1 1 0 0 0 1 0 0 0 1 77.238685262611767 41.645056807247791 19.463252661097833 1 rotate no_reflect no_shear #
lump $-1 $-1 $37 $1 #
transform $-1 1 0 0 0 1 0 0 0 1 77.238685262611767 41.645056807247791 19.463252661097833 1 rotate no_reflect no_shear #
lump $-1 $-1 $38 $2 #
transform $-1 1 0 0 0 1 0 0 0 1 77.238685262611767 41.645056807247791 19.463252661097833 1 rotate no_reflect no_shear #
lump $-1 $-1 $39 $3 #
transform $-1 1 0 0 0 1 0 0 0 1 77.238685262611767 41.645056807247791 19.463252661097833 1 rotate no_reflect no_shear #
lump $-1 $-1 $40 $4 #
transform $-1 1 0 0 0 1 0 0 0 1 77.238685262611767 41.645056807247791 19.463252661097833 1 rotate no_reflect no_shear #
lump $-1 $-1 $41 $5 #
transform $-1 1 0 0 0 1 0 0 0 1 77.238685262611767 41.645056807247791 19.463252661097833 1 rotate no_reflect no_shear #
lump $-1 $-1 $42 $6 #
transform $-1 1 0 0 0 1 0 0 0 1 77.238685262611767 41.645056807247791 19.463252661097833 1 rotate no_reflect no_shear #
lump $-1 $-1 $43 $7 #
transform $-1 1 0 0 0 1 0 0 0 1 77.238685262611767 41.645056807247791 19.463252661097833 1 rotate no_reflect no_shear #
lump $-1 $-1 $44 $8 #
transform $-1 1 0 0 0 1 0 0 0 1 77.238685262611767 41.645056807247791 19.463252661097833 1 rotate no_reflect no_shear #
lump $-1 $-1 $45 $9 #
transform $-1 1 0 0 0 1 0 0 0 1 77.238685262611767 41.645056807247791 19.463252661097833 1 rotate no_reflect no_shear #
lump $-1 $-1 $46 $10 #
transform $-1 1 0 0 0 1 0 0 0 1 77.238685262611767 41.645056807247791 19.463252661097833 1 rotate no_reflect no_shear #
lump $-1 $-1 $47 $11 #
transform $-1 1 0 0 0 1 0 0 0 1 77.238685262611767 41.645056807247791 19.463252661097833 1 rotate no_reflect no_shear #
shell $-1 $-1 $-1 $48 $-1 $12 #
shell $-1 $-1 $-1 $49 $-1 $14 #
shell $-1 $-1 $-1 $50 $-1 $16 #
shell $-1 $-1 $-1 $51 $-1 $18 #
shell $-1 $-1 $-1 $52 $-1 $20 #
shell $-1 $-1 $-1 $53 $-1 $22 #
shell $-1 $-1 $-1 $54 $-1 $24 #
shell $-1 $-1 $-1 $55 $-1 $26 #
shell $-1 $-1 $-1 $56 $-1 $28 #
shell $-1 $-1 $-1 $57 $-1 $30 #
shell $-1 $-1 $-1 $58 $-1 $32 #
shell $-1 $-1 $-1 $59 $-1 $34 #
face $-1 $60 $61 $36 $-1 $62 forward single #
face $-1 $63 $64 $37 $-1 $65 reversed single #
face $-1 $66 $67 $38 $-1 $68 reversed single #
face $-1 $69 $70 $39 $-1 $71 reversed single #
face $-1 $72 $73 $40 $-1 $74 forward single #
face $-1 $75 $76 $41 $-1 $77 forward single #
face $-1 $78 $79 $42 $-1 $80 reversed single #
face $-1 $81 $82 $43 $-1 $83 forward single #
face $-1 $84 $85 $44 $-1 $86 forward single #
face $-1 $87 $88 $45 $-1 $89 reversed single #
face $-1 $90 $91 $46 $-1 $92 forward single #
face $-1 $93 $94 $47 $-1 $95 forward single #
face $-1 $96 $97 $36 $-1 $98 reversed single #
loop $-1 $-1 $99 $48 #
plane-surface $-1 0 0 19.463252661097833 0 0 1 1 0 0 forward_v I I I I #
face $-1 $100 $101 $37 $-1 $102 reversed single #
loop $-1 $-1 $103 $49 #
plane-surface $-1 -68.982665370195093 0 14.355774883708513 0 0 1 1 0 0 forward_v I I I I #
face $-1 $104 $105 $38 $-1 $106 reversed single #
loop $-1 $-1 $107 $50 #
plane-surface $-1 68.982665370195093 0 14.355774883708513 0 0 1 1 0 0 forward_v I I I I #
face $-1 $108 $109 $39 $-1 $110 reversed single #
loop $-1 $-1 $111 $51 #
plane-surface $-1 -44.783561265395932 -134.61186030329785 135.57824753350127 -1 0 0 0 -0.6018150307709319 0.79863550430605224 forward_v I I I I #
face $-1 $112 $113 $40 $-1 $114 forward single #
loop $-1 $115 $116 $52 #
cone-surface $-1 -56.171478559954849 -35.532770611919283 14.113101659733655 0 0.6018150307709319 -0.79863550430605224 1.5 0 0 1 I I 0 1 1.5 forward I I I I #
face $-1 $117 $118 $41 $-1 $119 forward single #
loop $-1 $120 $121 $53 #
cone-surface $-1 -49.338728183219501 -35.532770611919283 14.113101659733655 0 0.6018150307709319 -0.79863550430605224 1.5 0 0 1 I I 0 1 1.5 forward I I I I #
face $-1 $122 $123 $42 $-1 $124 reversed single #
loop $-1 $-1 $125 $54 #
plane-surface $-1 -53.396062578670204 -4.9301826582468209 81.517527444520411 0 0.82903758062907751 0.55919289150049634 1 0 0 forward_v I I I I #
face $-1 $126 $127 $43 $-1 $128 forward single #
loop $-1 $129 $130 $55 #
cone-surface $-1 -56.537740964002296 38.415833874044679 15.378472452573012 0 -0.82903758062907751 -0.55919289150049634 1 0 0 1 I I 0 1 1 forward I I I I #
face $-1 $131 $132 $44 $-1 $133 forward single #
loop $-1 $134 $135 $56 #
cone-surface $-1 -50.254384193338112 38.415833874044679 15.378472452573012 0 -0.82903758062907751 -0.55919289150049634 1 0 0 1 I I 0 1 1 forward I I I I #
face $-1 $136 $137 $45 $-1 $138 reversed single #
loop $-1 $-1 $139 $57 #
plane-surface $-1 0 123.13736286392606 167.90017493991371 1 0 0 0 -0.82903758062907751 -0.55919289150049634 forward_v I I I I #
face $-1 $140 $141 $46 $-1 $142 forward single #
loop $-1 $143 $144 $58 #
cone-surface $-1 4.1889045137761229 38.415833874044679 15.378472452573012 0 -0.82903758062907751 -0.55919289150049634 1 0 0 1 I I 0 1 1 forward I I I I #
face $-1 $145 $146 $47 $-1 $147 forward single #
loop $-1 $148 $149 $59 #
cone-surface $-1 10.472261284440307 38.415833874044679 15.378472452573012 0 -0.82903758062907751 -0.55919289150049634 1 0 0 1 I I 0 1 1 forward I I I I #
face $-1 $150 $151 $36 $-1 $152 reversed single #
loop $-1 $-1 $153 $60 #
plane-surface $-1 0 0 -19.463252661097833 0 0 1 1 0 0 forward_v I I I I #
coedge $-1 $154 $155 $156 $157 forward $61 $-1 #
face $-1 $158 $159 $37 $-1 $160 reversed single #
loop $-1 $-1 $161 $63 #
plane-surface $-1 -60.726645477778419 0 16.909513772403173 -1 0 0 0 0 1 forward_v I I I I #
coedge $-1 $162 $163 $164 $165 forward $64 $-1 #
face $-1 $166 $167 $38 $-1 $168 forward single #
loop $-1 $-1 $169 $66 #
plane-surface $-1 60.726645477778419 0 16.909513772403173 1 0 0 0 0 -1 forward_v I I I I #
coedge $-1 $170 $171 $172 $173 reversed $67 $-1 #
face $-1 $174 $175 $39 $-1 $176 forward single #
loop $-1 $-1 $177 $69 #
plane-surface $-1 -52.755103371587168 -41.645056807247798 12.207134820216481 0 -0.6018150307709319 0.79863550430605224 1 0 0 forward_v I I I I #
coedge $-1 $178 $179 $180 $181 reversed $70 $-1 #
face $-1 $-1 $182 $40 $-1 $183 forward single #
loop $-1 $184 $185 $72 #
cone-surface $-1 -56.171478559954849 -33.783719850853842 11.792032950580619 0 0.6018150307709319 -0.79863550430605224 0.75 0 0 1 I I -0.70710678118654757 0.70710678118654757 0.75 forward I I I I #
loop $-1 $-1 $186 $52 #
coedge $-1 $116 $116 $187 $188 reversed $73 $-1 #
face $-1 $-1 $189 $41 $-1 $190 forward single #
loop $-1 $191 $192 $75 #
cone-surface $-1 -49.338728183219501 -33.783719850853842 11.792032950580619 0 0.6018150307709319 -0.79863550430605224 0.75 0 0 1 I I -0.70710678118654757 0.70710678118654757 0.75 forward I I I I #
loop $-1 $-1 $193 $53 #
coedge $-1 $121 $121 $194 $195 reversed $76 $-1 #
face $-1 $196 $197 $42 $-1 $198 reversed single #
loop $-1 $-1 $199 $78 #
plane-surface $-1 -46.065479679561996 123.13736286392606 167.90017493991371 -1 0 0 0 0.82903758062907751 0.55919289150049634 forward_v I I I I #
coedge $-1 $200 $201 $202 $203 reversed $79 $-1 #
face $-1 $-1 $204 $43 $-1 $205 forward single #
loop $-1 $206 $207 $81 #
cone-surface $-1 -56.537740964002296 37.131644111136886 14.512275547227851 0 -0.82903758062907751 -0.55919289150049634 0.5 0 0 1 I I -0.70710678118654746 0.70710678118654746 0.5 forward I I I I #
loop $-1 $-1 $208 $55 #
coedge $-1 $130 $130 $209 $210 reversed $82 $-1 #
face $-1 $-1 $211 $44 $-1 $212 forward single #
loop $-1 $213 $214 $84 #
cone-surface $-1 -50.254384193338112 37.131644111136886 14.512275547227851 0 -0.82903758062907751 -0.55919289150049634 0.5 0 0 1 I I -0.70710678118654746 0.70710678118654746 0.5 forward I I I I #
loop $-1 $-1 $215 $56 #
coedge $-1 $135 $135 $216 $217 reversed $85 $-1 #
face $-1 $218 $219 $45 $-1 $220 reversed single #
loop $-1 $-1 $221 $87 #
plane-surface $-1 7.330582899108208 -4.9301826582468209 81.517527444520411 0 0.82903758062907751 0.55919289150049634 1 0 0 forward_v I I I I #
coedge $-1 $222 $223 $224 $225 reversed $88 $-1 #
face $-1 $-1 $226 $46 $-1 $227 forward single #
loop $-1 $228 $229 $90 #
cone-surface $-1 4.1889045137761229 37.131644111136886 14.512275547227851 0 -0.82903758062907751 -0.55919289150049634 0.5 0 0 1 I I -0.70710678118654746 0.70710678118654746 0.5 forward I I I I #
loop $-1 $-1 $230 $58 #
coedge $-1 $144 $144 $231 $232 reversed $91 $-1 #
face $-1 $-1 $233 $47 $-1 $234 forward single #
loop $-1 $235 $236 $93 #
cone-surface $-1 10.472261284440307 37.131644111136886 14.512275547227851 0 -0.82903758062907751 -0.55919289150049634 0.5 0 0 1 I I -0.70710678118654746 0.70710678118654746 0.5 forward I I I I #
loop $-1 $-1 $237 $59 #
coedge $-1 $149 $149 $238 $239 reversed $94 $-1 #
face $-1 $240 $241 $36 $-1 $242 reversed single #
loop $-1 $-1 $243 $96 #
plane-surface $-1 0 -41.645056807247791 0 0 1 0 0 0 1 forward_v I I I I #
coedge $-1 $244 $245 $246 $247 forward $97 $-1 #
coedge $-1 $248 $99 $249 $250 forward $61 $-1 #
coedge $-1 $99 $248 $251 $252 forward $61 $-1 #
coedge $-1 $253 $254 $99 $157 reversed $255 $-1 #
edge $-1 $256 -41.645056807247791 $257 41.645056807247791 $156 $258 forward 7 unknown #
face $-1 $259 $260 $37 $-1 $261 reversed single #
loop $-1 $-1 $262 $100 #
plane-surface $-1 0 41.645056807247791 0 0 -1 0 0 0 -1 forward_v I I I I #
coedge $-1 $164 $263 $264 $265 reversed $101 $-1 #
coedge $-1 $266 $103 $267 $268 reversed $64 $-1 #
coedge $-1 $103 $266 $269 $270 reversed $64 $-1 #
coedge $-1 $271 $161 $103 $165 reversed $101 $-1 #
edge $-1 $272 -41.645056807247791 $273 41.645056807247791 $164 $274 forward 7 unknown #
face $-1 $275 $276 $38 $-1 $277 reversed single #
loop $-1 $-1 $278 $104 #
plane-surface $-1 0 0 19.463252661097833 0 0 1 1 0 0 forward_v I I I I #
coedge $-1 $279 $280 $281 $282 reversed $105 $-1 #
coedge $-1 $283 $107 $284 $285 reversed $67 $-1 #
coedge $-1 $107 $283 $286 $287 reversed $67 $-1 #
coedge $-1 $288 $289 $107 $173 forward $290 $-1 #
edge $-1 $291 -41.645056807247791 $292 41.645056807247791 $172 $293 forward 7 unknown #
face $-1 $294 $295 $39 $-1 $296 forward single #
loop $-1 $-1 $180 $108 #
plane-surface $-1 0 0 19.463252661097833 0 0 1 1 0 0 forward_v I I I I #
coedge $-1 $297 $298 $299 $300 reversed $109 $-1 #
coedge $-1 $179 $111 $301 $302 reversed $70 $-1 #
coedge $-1 $111 $178 $297 $303 reversed $70 $-1 #
coedge $-1 $299 $304 $111 $181 forward $175 $-1 #
edge $-1 $305 25.660873344401132 $306 35.290066759083658 $180 $307 forward 7 unknown #
loop $-1 $-1 $187 $112 #
plane-surface $-1 -52.755103371587168 -41.645056807247798 12.207134820216481 0 -0.6018150307709319 0.79863550430605224 1 0 0 forward_v I I I I #
loop $-1 $-1 $308 $72 #
coedge $-1 $185 $185 $186 $309 reversed $113 $-1 #
coedge $-1 $186 $186 $185 $309 forward $115 $-1 #
coedge $-1 $187 $187 $116 $188 forward $182 $-1 #
edge $-1 $310 3.2900424308749935e-015 $310 6.283185307179604 $187 $311 forward 7 unknown #
loop $-1 $-1 $194 $117 #
plane-surface $-1 -52.755103371587168 -41.645056807247798 12.207134820216481 0 -0.6018150307709319 0.79863550430605224 1 0 0 forward_v I I I I #
loop $-1 $-1 $312 $75 #
coedge $-1 $192 $192 $193 $313 reversed $118 $-1 #
coedge $-1 $193 $193 $192 $313 forward $120 $-1 #
coedge $-1 $194 $194 $121 $195 forward $189 $-1 #
edge $-1 $314 3.2900424308749935e-015 $314 6.283185307179604 $194 $315 forward 7 unknown #
face $-1 $316 $317 $42 $-1 $318 forward single #
loop $-1 $-1 $319 $122 #
plane-surface $-1 0 41.645056807247791 0 0 -1 0 0 0 -1 forward_v I I I I #
coedge $-1 $320 $321 $322 $323 reversed $123 $-1 #
coedge $-1 $324 $125 $325 $326 reversed $79 $-1 #
coedge $-1 $125 $324 $320 $327 forward $79 $-1 #
coedge $-1 $322 $328 $125 $203 forward $317 $-1 #
edge $-1 $329 -34.028614188443314 $330 -19.367448390226894 $202 $331 forward 7 unknown #
loop $-1 $-1 $209 $126 #
plane-surface $-1 -53.396062578670204 -4.9301826582468209 81.517527444520411 0 0.82903758062907751 0.55919289150049634 1 0 0 forward_v I I I I #
loop $-1 $-1 $332 $81 #
coedge $-1 $207 $207 $208 $333 reversed $127 $-1 #
coedge $-1 $208 $208 $207 $333 forward $129 $-1 #
coedge $-1 $209 $209 $130 $210 forward $204 $-1 #
edge $-1 $334 4.4469525996725958e-016 $334 6.2831853071796013 $209 $335 forward 7 unknown #
loop $-1 $-1 $216 $131 #
plane-surface $-1 -53.396062578670204 -4.9301826582468209 81.517527444520411 0 0.82903758062907751 0.55919289150049634 1 0 0 forward_v I I I I #
loop $-1 $-1 $336 $84 #
coedge $-1 $214 $214 $215 $337 reversed $132 $-1 #
coedge $-1 $215 $215 $214 $337 forward $134 $-1 #
coedge $-1 $216 $216 $135 $217 forward $211 $-1 #
edge $-1 $338 4.4469525996725958e-016 $338 6.2831853071796013 $216 $339 forward 7 unknown #
face $-1 $340 $341 $45 $-1 $342 forward single #
loop $-1 $-1 $343 $136 #
plane-surface $-1 14.661165798216416 123.13736286392606 167.90017493991371 -1 0 0 0 0.82903758062907751 0.55919289150049634 forward_v I I I I #
coedge $-1 $344 $345 $346 $347 reversed $137 $-1 #
coedge $-1 $223 $139 $348 $349 reversed $88 $-1 #
coedge $-1 $139 $222 $344 $350 reversed $88 $-1 #
coedge $-1 $346 $351 $139 $225 forward $341 $-1 #
edge $-1 $352 19.923624624715238 $353 24.642728545934936 $224 $354 forward 7 unknown #
loop $-1 $-1 $231 $140 #
plane-surface $-1 7.330582899108208 -4.9301826582468209 81.517527444520411 0 0.82903758062907751 0.55919289150049634 1 0 0 forward_v I I I I #
loop $-1 $-1 $355 $90 #
coedge $-1 $229 $229 $230 $356 reversed $141 $-1 #
coedge $-1 $230 $230 $229 $356 forward $143 $-1 #
coedge $-1 $231 $231 $144 $232 forward $226 $-1 #
edge $-1 $357 4.4469525996725958e-016 $357 6.2831853071796013 $231 $358 forward 7 unknown #
loop $-1 $-1 $238 $145 #
plane-surface $-1 7.330582899108208 -4.9301826582468209 81.517527444520411 0 0.82903758062907751 0.55919289150049634 1 0 0 forward_v I I I I #
loop $-1 $-1 $359 $93 #
coedge $-1 $236 $236 $237 $360 reversed $146 $-1 #
coedge $-1 $237 $237 $236 $360 forward $148 $-1 #
coedge $-1 $238 $238 $149 $239 forward $233 $-1 #
edge $-1 $361 4.4469525996725958e-016 $361 6.2831853071796013 $238 $362 forward 7 unknown #
face $-1 $363 $364 $36 $-1 $365 reversed single #
loop $-1 $-1 $366 $150 #
plane-surface $-1 -77.238685262611767 0 0 1 0 0 0 0 -1 forward_v I I I I #
coedge $-1 $367 $251 $368 $369 forward $151 $-1 #
coedge $-1 $370 $153 $367 $371 forward $97 $-1 #
coedge $-1 $153 $370 $372 $373 forward $97 $-1 #
coedge $-1 $254 $253 $153 $247 reversed $255 $-1 #
edge $-1 $374 -41.645056807247791 $375 41.645056807247791 $246 $376 forward 7 unknown #
coedge $-1 $155 $154 $377 $378 forward $61 $-1 #
coedge $-1 $379 $380 $154 $250 reversed $364 $-1 #
edge $-1 $257 -77.238685262611767 $381 77.238685262611767 $249 $382 forward 7 unknown #
coedge $-1 $243 $383 $155 $252 reversed $151 $-1 #
edge $-1 $384 -77.238685262611767 $256 77.238685262611767 $251 $385 forward 7 unknown #
coedge $-1 $246 $156 $383 $386 forward $255 $-1 #
coedge $-1 $156 $246 $379 $387 reversed $255 $-1 #
loop $-1 $-1 $253 $363 #
vertex $-1 $157 $388 #
vertex $-1 $157 $389 #
straight-curve $-1 77.238685262611767 0 19.463252661097833 0 1 0 I I #
face $-1 $390 $391 $37 $-1 $392 forward single #
loop $-1 $-1 $393 $158 #
plane-surface $-1 -77.238685262611767 0 0 1 0 0 0 0 -1 forward_v I I I I #
coedge $-1 $269 $394 $271 $395 forward $159 $-1 #
coedge $-1 $161 $271 $396 $397 reversed $101 $-1 #
coedge $-1 $398 $267 $161 $265 forward $399 $-1 #
edge $-1 $273 5.9010179975069263 $400 11.008495774896247 $264 $401 forward 7 unknown #
coedge $-1 $163 $162 $393 $402 reversed $64 $-1 #
coedge $-1 $264 $403 $162 $268 forward $399 $-1 #
edge $-1 $404 -42.747352577514221 $273 -26.235312792680872 $267 $405 forward 7 unknown #
coedge $-1 $406 $262 $163 $270 forward $159 $-1 #
edge $-1 $272 26.235312792680872 $407 42.747352577514221 $269 $408 forward 7 unknown #
coedge $-1 $263 $164 $262 $395 reversed $101 $-1 #
vertex $-1 $270 $409 #
vertex $-1 $268 $410 #
straight-curve $-1 -60.726645477778419 0 14.355774883708513 0 -1 0 I I #
face $-1 $411 $412 $38 $-1 $413 reversed single #
loop $-1 $-1 $414 $166 #
plane-surface $-1 0 -41.645056807247791 0 0 1 0 0 0 1 forward_v I I I I #
coedge $-1 $415 $416 $280 $417 forward $167 $-1 #
coedge $-1 $418 $169 $283 $419 reversed $105 $-1 #
coedge $-1 $169 $418 $278 $417 reversed $105 $-1 #
coedge $-1 $420 $286 $169 $282 forward $412 $-1 #
edge $-1 $421 5.9010179975069263 $422 11.008495774896247 $281 $423 forward 7 unknown #
coedge $-1 $171 $170 $279 $419 forward $67 $-1 #
coedge $-1 $424 $414 $170 $285 forward $276 $-1 #
edge $-1 $425 26.235312792680872 $291 42.747352577514221 $284 $426 forward 7 unknown #
coedge $-1 $281 $427 $171 $287 forward $412 $-1 #
edge $-1 $292 -42.747352577514221 $421 -26.235312792680872 $286 $428 forward 7 unknown #
coedge $-1 $429 $172 $427 $430 reversed $290 $-1 #
coedge $-1 $172 $429 $424 $431 forward $290 $-1 #
loop $-1 $-1 $172 $411 #
vertex $-1 $285 $432 #
vertex $-1 $173 $433 #
straight-curve $-1 77.238685262611767 0 14.355774883708513 0 1 0 I I #
face $-1 $-1 $434 $39 $-1 $435 reversed single #
loop $-1 $-1 $436 $174 #
plane-surface $-1 -60.726645477778419 0 16.909513772403173 -1 0 0 0 0 1 forward_v I I I I #
coedge $-1 $437 $177 $179 $303 forward $109 $-1 #
coedge $-1 $177 $437 $436 $438 forward $109 $-1 #
coedge $-1 $439 $180 $177 $300 forward $175 $-1 #
edge $-1 $306 18.406009579602348 $440 34.349093791984821 $299 $441 forward 7 unknown #
coedge $-1 $442 $443 $178 $302 forward $434 $-1 #
edge $-1 $444 -55.581988946534146 $305 -48.325871105652801 $301 $445 forward 7 unknown #
edge $-1 $306 -12.05705652048302 $444 -8.8817612989391469e-015 $179 $446 forward 7 unknown #
coedge $-1 $180 $439 $442 $447 forward $175 $-1 #
vertex $-1 $302 $448 #
vertex $-1 $181 $449 #
straight-curve $-1 -44.783561265395932 -67.305930151648923 19.463252661097833 0 1 0 I I #
coedge $-1 $308 $308 $-1 $450 reversed $184 $-1 #
edge $-1 $451 0 $451 6.2831853071796004 $185 $452 forward 7 unknown #
vertex $-1 $188 $453 #
ellipse-curve $-1 -56.171478559954849 -36.830460099906531 15.835193740657161 0 -0.6018150307709319 0.79863550430605224 1.5 0 0 1 I I #
coedge $-1 $312 $312 $-1 $454 reversed $191 $-1 #
edge $-1 $455 0 $455 6.2831853071796004 $192 $456 forward 7 unknown #
vertex $-1 $195 $457 #
ellipse-curve $-1 -49.338728183219501 -36.830460099906531 15.835193740657161 0 -0.6018150307709319 0.79863550430605224 1.5 0 0 1 I I #
face $-1 $-1 $458 $42 $-1 $459 forward single #
loop $-1 $-1 $322 $196 #
plane-surface $-1 0 0 19.463252661097833 0 0 1 1 0 0 forward_v I I I I #
coedge $-1 $460 $461 $321 $462 forward $197 $-1 #
coedge $-1 $321 $199 $201 $327 reversed $123 $-1 #
coedge $-1 $199 $320 $319 $462 reversed $123 $-1 #
coedge $-1 $463 $202 $199 $323 forward $317 $-1 #
edge $-1 $330 -24.642728545934936 $464 -19.923624624715238 $322 $465 forward 7 unknown #
coedge $-1 $201 $200 $460 $466 reversed $79 $-1 #
coedge $-1 $467 $468 $200 $326 forward $458 $-1 #
edge $-1 $469 -55.130416394358988 $329 -46.691282076043876 $325 $470 forward 7 unknown #
edge $-1 $471 -83.290113614495525 $330 -74.850979296180412 $320 $472 forward 7 unknown #
coedge $-1 $202 $463 $467 $473 forward $317 $-1 #
vertex $-1 $326 $474 #
vertex $-1 $203 $475 #
straight-curve $-1 -26.698031289335102 36.925952886028085 19.463252661097833 1 0 0 I I #
coedge $-1 $332 $332 $-1 $476 reversed $206 $-1 #
edge $-1 $477 0 $477 6.2831853071796004 $207 $478 forward 7 unknown #
vertex $-1 $210 $479 #
ellipse-curve $-1 -56.537740964002296 39.285504846637949 15.965072912167933 0 0.82903758062907751 0.55919289150049634 1 0 0 1 I I #
coedge $-1 $336 $336 $-1 $480 reversed $213 $-1 #
edge $-1 $481 0 $481 6.2831853071796004 $214 $482 forward 7 unknown #
vertex $-1 $217 $483 #
ellipse-curve $-1 -50.254384193338112 39.285504846637949 15.965072912167933 0 0.82903758062907751 0.55919289150049634 1 0 0 1 I I #
face $-1 $-1 $484 $45 $-1 $485 reversed single #
loop $-1 $-1 $224 $218 #
plane-surface $-1 0 0 19.463252661097833 0 0 1 1 0 0 forward_v I I I I #
coedge $-1 $486 $487 $488 $489 reversed $219 $-1 #
coedge $-1 $490 $221 $223 $350 forward $137 $-1 #
coedge $-1 $221 $490 $486 $491 forward $137 $-1 #
coedge $-1 $488 $224 $221 $347 forward $341 $-1 #
edge $-1 $353 -3.665291449554104 $492 10.995874348662312 $346 $493 forward 7 unknown #
coedge $-1 $494 $495 $222 $349 forward $484 $-1 #
edge $-1 $496 -71.483194306718801 $352 -64.486834808859015 $348 $497 forward 7 unknown #
edge $-1 $353 74.850979296180412 $496 83.290113614495525 $223 $498 forward 7 unknown #
coedge $-1 $224 $488 $494 $499 forward $341 $-1 #
vertex $-1 $349 $500 #
vertex $-1 $225 $501 #
straight-curve $-1 0 61.568681431963029 19.46325266109784 0 -1 0 I I #
coedge $-1 $355 $355 $-1 $502 reversed $228 $-1 #
edge $-1 $503 0 $503 6.2831853071796004 $229 $504 forward 7 unknown #
vertex $-1 $232 $505 #
ellipse-curve $-1 4.1889045137761229 39.285504846637949 15.965072912167933 0 0.82903758062907751 0.55919289150049634 1 0 0 1 I I #
coedge $-1 $359 $359 $-1 $506 reversed $235 $-1 #
edge $-1 $507 0 $507 6.2831853071796004 $236 $508 forward 7 unknown #
vertex $-1 $239 $509 #
ellipse-curve $-1 10.472261284440307 39.285504846637949 15.965072912167933 0 0.82903758062907751 0.55919289150049634 1 0 0 1 I I #
face $-1 $-1 $255 $36 $-1 $510 reversed single #
loop $-1 $-1 $379 $240 #
plane-surface $-1 0 41.645056807247791 0 0 -1 0 0 0 -1 forward_v I I I I #
coedge $-1 $511 $377 $380 $512 forward $241 $-1 #
coedge $-1 $383 $243 $244 $371 reversed $151 $-1 #
coedge $-1 $377 $511 $243 $369 reversed $241 $-1 #
edge $-1 $384 -19.463252661097833 $513 19.463252661097833 $368 $514 forward 7 unknown #
coedge $-1 $245 $244 $511 $515 forward $97 $-1 #
edge $-1 $375 -77.238685262611767 $513 77.238685262611767 $367 $516 forward 7 unknown #
coedge $-1 $380 $379 $245 $373 reversed $364 $-1 #
edge $-1 $517 -77.238685262611767 $374 77.238685262611767 $372 $518 forward 7 unknown #
vertex $-1 $247 $519 #
vertex $-1 $386 $520 #
straight-curve $-1 77.238685262611767 0 -19.463252661097833 0 -1 0 I I #
coedge $-1 $366 $368 $248 $378 reversed $241 $-1 #
edge $-1 $381 -41.645056807247791 $384 41.645056807247791 $377 $521 forward 7 unknown #
coedge $-1 $372 $249 $254 $387 forward $364 $-1 #
coedge $-1 $249 $372 $366 $512 reversed $364 $-1 #
vertex $-1 $250 $522 #
straight-curve $-1 0 41.645056807247791 19.463252661097833 -1 0 0 I I #
coedge $-1 $251 $367 $253 $386 reversed $151 $-1 #
vertex $-1 $378 $523 #
straight-curve $-1 0 -41.645056807247791 19.463252661097833 1 0 0 I I #
edge $-1 $256 -19.463252661097833 $375 19.463252661097833 $253 $524 forward 7 unknown #
edge $-1 $257 -19.463252661097833 $374 19.463252661097833 $254 $525 forward 7 unknown #
point $-1 77.238685262611767 -41.645056807247791 19.463252661097833 #
point $-1 77.238685262611767 41.645056807247791 19.463252661097833 #
face $-1 $-1 $399 $37 $-1 $526 reversed single #
loop $-1 $-1 $396 $259 #
plane-surface $-1 0 0 19.463252661097833 0 0 1 1 0 0 forward_v I I I I #
coedge $-1 $527 $528 $266 $402 forward $260 $-1 #
coedge $-1 $262 $406 $529 $530 reversed $159 $-1 #
edge $-1 $531 -11.008495774896247 $272 -5.9010179975069263 $262 $532 forward 7 unknown #
coedge $-1 $529 $533 $263 $397 forward $391 $-1 #
edge $-1 $400 -41.645056807247791 $531 41.645056807247791 $396 $534 forward 7 unknown #
coedge $-1 $403 $264 $533 $535 reversed $399 $-1 #
loop $-1 $-1 $264 $390 #
vertex $-1 $265 $536 #
straight-curve $-1 -60.726645477778419 -41.645056807247791 8.4547568862015865 0 0 1 I I #
edge $-1 $407 -41.645056807247791 $404 41.645056807247791 $393 $537 forward 7 unknown #
coedge $-1 $267 $398 $527 $538 forward $399 $-1 #
vertex $-1 $402 $539 #
straight-curve $-1 -34.491332685097547 -41.645056807247791 14.355774883708513 1 0 0 I I #
coedge $-1 $394 $269 $528 $540 reversed $159 $-1 #
vertex $-1 $402 $541 #
straight-curve $-1 -34.491332685097547 41.645056807247791 14.355774883708513 -1 0 0 I I #
point $-1 -60.726645477778419 41.645056807247791 14.355774883708513 #
point $-1 -60.726645477778419 -41.645056807247791 14.355774883708513 #
face $-1 $-1 $290 $38 $-1 $542 reversed single #
loop $-1 $-1 $281 $275 #
plane-surface $-1 0 41.645056807247791 0 0 -1 0 0 0 -1 forward_v I I I I #
coedge $-1 $284 $543 $418 $544 forward $276 $-1 #
coedge $-1 $545 $278 $543 $546 forward $167 $-1 #
coedge $-1 $278 $545 $420 $547 forward $167 $-1 #
edge $-1 $422 -41.645056807247791 $548 41.645056807247791 $278 $549 forward 7 unknown #
coedge $-1 $280 $279 $414 $544 reversed $105 $-1 #
edge $-1 $425 -41.645056807247791 $421 41.645056807247791 $279 $550 forward 7 unknown #
coedge $-1 $427 $281 $416 $547 reversed $412 $-1 #
vertex $-1 $287 $551 #
vertex $-1 $282 $552 #
straight-curve $-1 60.726645477778419 41.645056807247791 8.4547568862015865 0 0 1 I I #
coedge $-1 $543 $284 $289 $431 reversed $276 $-1 #
vertex $-1 $285 $553 #
straight-curve $-1 34.491332685097547 -41.645056807247791 14.355774883708513 1 0 0 I I #
coedge $-1 $286 $420 $288 $430 forward $412 $-1 #
straight-curve $-1 34.491332685097547 41.645056807247791 14.355774883708513 -1 0 0 I I #
coedge $-1 $289 $288 $545 $554 reversed $290 $-1 #
edge $-1 $555 -19.463252661097833 $292 -14.355774883708513 $288 $556 forward 7 unknown #
edge $-1 $557 -19.463252661097833 $291 -14.355774883708513 $289 $558 forward 7 unknown #
point $-1 77.238685262611767 -41.645056807247791 14.355774883708513 #
point $-1 77.238685262611767 41.645056807247791 14.355774883708513 #
loop $-1 $-1 $301 $294 #
plane-surface $-1 0 -41.645056807247791 0 0 1 0 0 0 1 forward_v I I I I #
coedge $-1 $559 $560 $298 $438 reversed $295 $-1 #
coedge $-1 $298 $297 $443 $561 reversed $109 $-1 #
edge $-1 $562 8.8817612989391469e-015 $440 12.05705652048302 $436 $563 forward 7 unknown #
coedge $-1 $304 $299 $560 $564 forward $175 $-1 #
vertex $-1 $564 $565 #
straight-curve $-1 -26.377551685793584 -32.015863392565272 19.463252661097833 -1 0 0 I I #
coedge $-1 $566 $301 $304 $447 reversed $434 $-1 #
coedge $-1 $301 $566 $437 $561 forward $434 $-1 #
vertex $-1 $302 $567 #
straight-curve $-1 -44.783561265395932 -41.645056807247791 67.789123766750635 0 0 1 I I #
straight-curve $-1 -44.783561265395932 -41.645056807247798 12.207134820216481 0 -0.79863550430605224 -0.6018150307709319 I I #
edge $-1 $568 -60.726645477778419 $305 -44.783561265395932 $442 $569 forward 7 unknown #
point $-1 -44.783561265395932 -41.645056807247791 19.463252661097833 #
point $-1 -44.783561265395932 -32.015863392565265 19.463252661097833 #
edge $-1 $570 1 $570 0 $308 $-1 forward 7 unknown #
vertex $-1 $309 $571 #
ellipse-curve $-1 -56.171478559954849 -34.235081123932041 12.391009578810159 0 -0.6018150307709319 0.79863550430605224 1.5 0 0 1 I I #
point $-1 -54.671478559954849 -36.830460099906517 15.83519374065715 #
edge $-1 $572 1 $572 0 $312 $-1 forward 7 unknown #
vertex $-1 $313 $573 #
ellipse-curve $-1 -49.338728183219501 -34.235081123932041 12.391009578810159 0 -0.6018150307709319 0.79863550430605224 1.5 0 0 1 I I #
point $-1 -47.838728183219501 -36.830460099906517 15.83519374065715 #
loop $-1 $-1 $325 $316 #
plane-surface $-1 -60.726645477778419 0 16.909513772403173 -1 0 0 0 0 1 forward_v I I I I #
coedge $-1 $574 $319 $324 $466 forward $197 $-1 #
coedge $-1 $319 $574 $463 $575 reversed $197 $-1 #
edge $-1 $464 64.486834808859015 $471 71.483194306718801 $319 $576 forward 7 unknown #
coedge $-1 $328 $322 $461 $575 forward $317 $-1 #
vertex $-1 $575 $577 #
straight-curve $-1 -46.065479679561996 61.568681431963029 19.46325266109784 0 1 0 I I #
edge $-1 $471 19.367448390226894 $469 34.028614188443314 $460 $578 forward 7 unknown #
coedge $-1 $468 $325 $328 $473 reversed $458 $-1 #
coedge $-1 $325 $467 $574 $579 reversed $458 $-1 #
vertex $-1 $579 $580 #
straight-curve $-1 -60.726645477778419 10.816519854059822 58.172080189891055 0 -0.55919289150049634 0.82903758062907751 I I #
vertex $-1 $466 $581 #
straight-curve $-1 -46.065479679561996 -4.9301826582468209 81.517527444520411 0 -0.55919289150049634 0.82903758062907751 I I #
edge $-1 $582 -41.645056807247791 $329 -36.925952886028092 $328 $583 forward 7 unknown #
point $-1 -60.726645477778412 36.925952886028092 19.463252661097833 #
point $-1 -46.065479679561996 36.925952886028092 19.463252661097833 #
edge $-1 $584 1 $584 0 $332 $-1 forward 7 unknown #
vertex $-1 $333 $585 #
ellipse-curve $-1 -56.537740964002296 37.546162901451424 14.7918719929781 0 0.82903758062907751 0.55919289150049634 1 0 0 1 I I #
point $-1 -55.537740964002296 39.285504846637942 15.965072912167928 #
edge $-1 $586 1 $586 0 $336 $-1 forward 7 unknown #
vertex $-1 $337 $587 #
ellipse-curve $-1 -50.254384193338112 37.546162901451424 14.7918719929781 0 0.82903758062907751 0.55919289150049634 1 0 0 1 I I #
point $-1 -49.254384193338112 39.285504846637942 15.965072912167928 #
loop $-1 $-1 $348 $340 #
plane-surface $-1 0 41.645056807247791 0 0 -1 0 0 0 -1 forward_v I I I I #
coedge $-1 $487 $343 $345 $491 reversed $219 $-1 #
coedge $-1 $343 $486 $588 $589 reversed $219 $-1 #
coedge $-1 $351 $346 $343 $489 forward $341 $-1 #
edge $-1 $492 -24.642728545934936 $590 -19.923624624715238 $488 $591 forward 7 unknown #
coedge $-1 $345 $344 $495 $592 reversed $137 $-1 #
edge $-1 $593 -83.290113614495525 $492 -74.850979296180412 $486 $594 forward 7 unknown #
vertex $-1 $347 $595 #
straight-curve $-1 3.665291449554104 36.925952886028085 19.463252661097833 1 0 0 I I #
coedge $-1 $588 $348 $351 $499 reversed $484 $-1 #
coedge $-1 $348 $588 $490 $592 forward $484 $-1 #
vertex $-1 $349 $596 #
straight-curve $-1 0 41.645056807247791 83.950087469956856 0 0 1 I I #
straight-curve $-1 0 -4.9301826582468209 81.517527444520411 0 0.55919289150049634 -0.82903758062907751 I I #
edge $-1 $590 -14.661165798216416 $352 0 $494 $597 forward 7 unknown #
point $-1 0 41.645056807247791 19.463252661097833 #
point $-1 0 36.925952886028092 19.463252661097833 #
edge $-1 $598 1 $598 0 $355 $-1 forward 7 unknown #
vertex $-1 $356 $599 #
ellipse-curve $-1 4.1889045137761229 37.546162901451424 14.7918719929781 0 0.82903758062907751 0.55919289150049634 1 0 0 1 I I #
point $-1 5.1889045137761229 39.285504846637942 15.965072912167928 #
edge $-1 $600 1 $600 0 $359 $-1 forward 7 unknown #
vertex $-1 $360 $601 #
ellipse-curve $-1 10.472261284440307 37.546162901451424 14.7918719929781 0 0.82903758062907751 0.55919289150049634 1 0 0 1 I I #
point $-1 11.472261284440307 39.285504846637942 15.965072912167928 #
plane-surface $-1 77.238685262611767 0 0 -1 0 0 0 0 1 forward_v I I I I #
coedge $-1 $368 $366 $370 $515 reversed $241 $-1 #
edge $-1 $381 -19.463252661097833 $517 19.463252661097833 $380 $602 forward 7 unknown #
vertex $-1 $515 $603 #
straight-curve $-1 -77.238685262611767 -41.645056807247791 0 0 0 -1 I I #
edge $-1 $513 -41.645056807247791 $517 41.645056807247791 $511 $604 forward 7 unknown #
straight-curve $-1 0 -41.645056807247791 -19.463252661097833 -1 0 0 I I #
vertex $-1 $373 $605 #
straight-curve $-1 0 41.645056807247791 -19.463252661097833 1 0 0 I I #
point $-1 77.238685262611767 41.645056807247791 -19.463252661097833 #
point $-1 77.238685262611767 -41.645056807247791 -19.463252661097833 #
straight-curve $-1 -77.238685262611767 0 19.463252661097833 0 -1 0 I I #
point $-1 -77.238685262611767 41.645056807247791 19.463252661097833 #
point $-1 -77.238685262611767 -41.645056807247791 19.463252661097833 #
straight-curve $-1 77.238685262611767 -41.645056807247791 0 0 0 -1 I I #
straight-curve $-1 77.238685262611767 41.645056807247791 0 0 0 -1 I I #
plane-surface $-1 0 -41.645056807247791 0 0 1 0 0 0 1 forward_v I I I I #
coedge $-1 $606 $393 $403 $538 reversed $260 $-1 #
coedge $-1 $393 $606 $406 $540 forward $260 $-1 #
coedge $-1 $607 $396 $394 $530 forward $391 $-1 #
edge $-1 $531 60.726645477778419 $608 77.238685262611767 $394 $609 forward 7 unknown #
vertex $-1 $530 $610 #
straight-curve $-1 -60.726645477778419 41.645056807247791 8.4547568862015865 0 0 -1 I I #
coedge $-1 $396 $607 $398 $535 forward $391 $-1 #
straight-curve $-1 -60.726645477778419 0 19.463252661097833 0 1 0 I I #
edge $-1 $611 -77.238685262611767 $400 -60.726645477778419 $398 $612 forward 7 unknown #
point $-1 -60.726645477778419 -41.645056807247791 19.463252661097833 #
straight-curve $-1 -77.238685262611767 0 14.355774883708513 0 -1 0 I I #
edge $-1 $611 -19.463252661097833 $404 -14.355774883708513 $527 $613 forward 7 unknown #
point $-1 -77.238685262611767 -41.645056807247791 14.355774883708513 #
edge $-1 $608 -19.463252661097833 $407 -14.355774883708513 $406 $614 forward 7 unknown #
point $-1 -77.238685262611767 41.645056807247791 14.355774883708513 #
plane-surface $-1 77.238685262611767 0 0 -1 0 0 0 0 1 forward_v I I I I #
coedge $-1 $414 $424 $415 $546 reversed $276 $-1 #
edge $-1 $548 -11.008495774896247 $425 -5.9010179975069263 $414 $615 forward 7 unknown #
coedge $-1 $416 $415 $429 $554 forward $167 $-1 #
edge $-1 $548 60.726645477778419 $557 77.238685262611767 $543 $616 forward 7 unknown #
edge $-1 $555 -77.238685262611767 $422 -60.726645477778419 $420 $617 forward 7 unknown #
vertex $-1 $546 $618 #
straight-curve $-1 60.726645477778419 0 19.463252661097833 0 -1 0 I I #
straight-curve $-1 60.726645477778419 0 14.355774883708513 0 1 0 I I #
point $-1 60.726645477778419 41.645056807247791 14.355774883708513 #
point $-1 60.726645477778419 41.645056807247791 19.463252661097833 #
point $-1 60.726645477778419 -41.645056807247791 14.355774883708513 #
edge $-1 $557 -41.645056807247791 $555 41.645056807247791 $429 $619 forward 7 unknown #
vertex $-1 $554 $620 #
straight-curve $-1 77.238685262611767 41.645056807247791 0 0 0 -1 I I #
vertex $-1 $554 $621 #
straight-curve $-1 77.238685262611767 -41.645056807247791 0 0 0 -1 I I #
coedge $-1 $560 $436 $566 $622 reversed $295 $-1 #
coedge $-1 $436 $559 $439 $564 reversed $295 $-1 #
edge $-1 $562 -34.349093791984821 $444 -18.406009579602348 $443 $623 forward 7 unknown #
vertex $-1 $622 $624 #
straight-curve $-1 -60.726645477778405 -41.645056807247798 12.207134820216481 0 0.79863550430605224 0.6018150307709319 I I #
edge $-1 $440 32.015863392565265 $568 41.645056807247791 $439 $625 forward 7 unknown #
point $-1 -60.726645477778405 -32.015863392565265 19.463252661097833 #
coedge $-1 $443 $442 $559 $622 forward $434 $-1 #
point $-1 -44.783561265395932 -41.645056807247791 12.207134820216487 #
vertex $-1 $447 $626 #
straight-curve $-1 0 -41.645056807247791 19.463252661097833 1 0 0 I I #
vertex $-1 $450 $627 #
point $-1 -54.671478559954849 -34.235081123932041 12.391009578810159 #
vertex $-1 $454 $628 #
point $-1 -47.838728183219501 -34.235081123932041 12.391009578810159 #
coedge $-1 $461 $460 $468 $579 forward $197 $-1 #
edge $-1 $464 46.065479679561996 $582 60.726645477778419 $461 $629 forward 7 unknown #
straight-curve $-1 -46.065479679561996 41.645056807247791 83.950087469956856 0 0 -1 I I #
point $-1 -46.065479679561996 41.645056807247791 19.463252661097833 #
straight-curve $-1 -26.698031289335102 41.645056807247791 12.466893163238048 -1 0 0 I I #
edge $-1 $469 -71.483194306718801 $582 -64.486834808859015 $574 $630 forward 7 unknown #
point $-1 -60.726645477778412 41.645056807247791 12.466893163238055 #
point $-1 -46.065479679561996 41.645056807247791 12.466893163238055 #
vertex $-1 $473 $631 #
straight-curve $-1 -60.726645477778419 0 19.463252661097833 0 -1 0 I I #
vertex $-1 $476 $632 #
point $-1 -55.537740964002296 37.546162901451424 14.7918719929781 #
vertex $-1 $480 $633 #
point $-1 -49.254384193338112 37.546162901451424 14.7918719929781 #
coedge $-1 $495 $494 $487 $589 forward $484 $-1 #
edge $-1 $590 64.486834808859015 $593 71.483194306718801 $588 $634 forward 7 unknown #
vertex $-1 $499 $635 #
straight-curve $-1 14.661165798216416 61.568681431963029 19.46325266109784 0 1 0 I I #
edge $-1 $593 -10.995874348662312 $496 3.665291449554104 $495 $636 forward 7 unknown #
vertex $-1 $592 $637 #
straight-curve $-1 14.661165798216416 -4.9301826582468209 81.517527444520411 0 -0.55919289150049634 0.82903758062907751 I I #
point $-1 14.661165798216416 36.925952886028092 19.463252661097833 #
point $-1 0 41.645056807247791 12.466893163238055 #
straight-curve $-1 0 41.645056807247791 19.463252661097833 -1 0 0 I I #
vertex $-1 $502 $638 #
point $-1 5.1889045137761229 37.546162901451424 14.7918719929781 #
vertex $-1 $506 $639 #
point $-1 11.472261284440307 37.546162901451424 14.7918719929781 #
straight-curve $-1 -77.238685262611767 41.645056807247791 0 0 0 -1 I I #
point $-1 -77.238685262611767 -41.645056807247791 -19.463252661097833 #
straight-curve $-1 -77.238685262611767 0 -19.463252661097833 0 1 0 I I #
point $-1 -77.238685262611767 41.645056807247791 -19.463252661097833 #
coedge $-1 $528 $527 $607 $640 reversed $260 $-1 #
coedge $-1 $533 $529 $606 $640 forward $391 $-1 #
vertex $-1 $530 $641 #
straight-curve $-1 0 41.645056807247791 19.463252661097833 -1 0 0 I I #
point $-1 -60.726645477778419 41.645056807247791 19.463252661097833 #
vertex $-1 $640 $642 #
straight-curve $-1 0 -41.645056807247791 19.463252661097833 1 0 0 I I #
straight-curve $-1 -77.238685262611767 -41.645056807247791 0 0 0 -1 I I #
straight-curve $-1 -77.238685262611767 41.645056807247791 0 0 0 -1 I I #
straight-curve $-1 60.726645477778419 -41.645056807247791 8.4547568862015865 0 0 -1 I I #
straight-curve $-1 0 -41.645056807247791 19.463252661097833 1 0 0 I I #
straight-curve $-1 0 41.645056807247791 19.463252661097833 -1 0 0 I I #
point $-1 60.726645477778419 -41.645056807247791 19.463252661097833 #
straight-curve $-1 77.238685262611767 0 19.463252661097833 0 1 0 I I #
point $-1 77.238685262611767 41.645056807247791 19.463252661097833 #
point $-1 77.238685262611767 -41.645056807247791 19.463252661097833 #
edge $-1 $568 48.325871105652801 $562 55.581988946534146 $566 $643 forward 7 unknown #
straight-curve $-1 -26.377551685793584 -41.645056807247791 12.207134820216488 1 0 0 I I #
point $-1 -60.726645477778405 -41.645056807247791 12.207134820216487 #
straight-curve $-1 -60.726645477778419 0 19.463252661097833 0 -1 0 I I #
point $-1 -60.726645477778419 -41.645056807247791 19.463252661097833 #
point $-1 -56.171478559954849 -33.332358577775643 11.19305632235108 #
point $-1 -49.338728183219501 -33.332358577775643 11.19305632235108 #
straight-curve $-1 0 41.645056807247791 19.463252661097833 -1 0 0 I I #
straight-curve $-1 -60.726645477778412 41.645056807247791 83.950087469956856 0 0 1 I I #
point $-1 -60.726645477778419 41.645056807247791 19.463252661097833 #
point $-1 -56.537740964002296 36.717125320822348 14.232679101477602 #
point $-1 -50.254384193338112 36.717125320822348 14.232679101477602 #
straight-curve $-1 14.661165798216416 41.645056807247791 83.950087469956856 0 0 -1 I I #
point $-1 14.661165798216416 41.645056807247791 19.463252661097833 #
straight-curve $-1 3.665291449554104 41.645056807247791 12.466893163238048 -1 0 0 I I #
point $-1 14.661165798216416 41.645056807247791 12.466893163238055 #
point $-1 4.1889045137761229 36.717125320822348 14.232679101477602 #
point $-1 10.472261284440307 36.717125320822348 14.232679101477602 #
edge $-1 $608 -41.645056807247791 $611 41.645056807247791 $606 $644 forward 7 unknown #
point $-1 -77.238685262611767 41.645056807247791 19.463252661097833 #
point $-1 -77.238685262611767 -41.645056807247791 19.463252661097833 #
straight-curve $-1 -60.726645477778405 -41.645056807247791 67.789123766750635 0 0 -1 I I #
straight-curve $-1 -77.238685262611767 0 19.463252661097833 0 -1 0 I I #
End-of-ACIS-data 