500 0 10 0           
7 Unknown 11 ACIS 5.0 NT 24 Fri Mar 26 15:38:17 1999 
-1 9.9999999999999995e-007 1e-010 
body $-1 $10 $-1 $11 #
body $-1 $12 $-1 $13 #
body $-1 $14 $-1 $15 #
body $-1 $16 $-1 $17 #
body $-1 $18 $-1 $19 #
body $-1 $20 $-1 $21 #
body $-1 $22 $-1 $23 #
body $-1 $24 $-1 $25 #
body $-1 $26 $-1 $27 #
body $-1 $28 $-1 $29 #
lump $-1 $-1 $30 $0 #
transform $-1 1 0 0 0 1 0 0 0 1 62.706991790520945 40.562718158340552 19.760692577586426 1 rotate no_reflect no_shear #
lump $-1 $-1 $31 $1 #
transform $-1 1 0 0 0 1 0 0 0 1 62.706991790520945 40.562718158340552 19.760692577586426 1 rotate no_reflect no_shear #
lump $-1 $-1 $32 $2 #
transform $-1 1 0 0 0 1 0 0 0 1 62.706991790520945 40.562718158340552 19.760692577586426 1 rotate no_reflect no_shear #
lump $-1 $-1 $33 $3 #
transform $-1 1 0 0 0 1 0 0 0 1 62.706991790520945 40.562718158340552 19.760692577586426 1 rotate no_reflect no_shear #
lump $-1 $-1 $34 $4 #
transform $-1 1 0 0 0 1 0 0 0 1 62.706991790520945 40.562718158340552 19.760692577586426 1 rotate no_reflect no_shear #
lump $-1 $-1 $35 $5 #
transform $-1 1 0 0 0 1 0 0 0 1 62.706991790520945 40.562718158340552 19.760692577586426 1 rotate no_reflect no_shear #
lump $-1 $-1 $36 $6 #
transform $-1 1 0 0 0 1 0 0 0 1 62.706991790520945 40.562718158340552 19.760692577586426 1 rotate no_reflect no_shear #
lump $-1 $-1 $37 $7 #
transform $-1 1 0 0 0 1 0 0 0 1 62.706991790520945 40.562718158340552 19.760692577586426 1 rotate no_reflect no_shear #
lump $-1 $-1 $38 $8 #
transform $-1 1 0 0 0 1 0 0 0 1 62.706991790520945 40.562718158340552 19.760692577586426 1 rotate no_reflect no_shear #
lump $-1 $-1 $39 $9 #
transform $-1 1 0 0 0 1 0 0 0 1 62.706991790520945 40.562718158340552 19.760692577586426 1 rotate no_reflect no_shear #
shell $-1 $-1 $-1 $40 $-1 $10 #
shell $-1 $-1 $-1 $41 $-1 $12 #
shell $-1 $-1 $-1 $42 $-1 $14 #
shell $-1 $-1 $-1 $43 $-1 $16 #
shell $-1 $-1 $-1 $44 $-1 $18 #
shell $-1 $-1 $-1 $45 $-1 $20 #
shell $-1 $-1 $-1 $46 $-1 $22 #
shell $-1 $-1 $-1 $47 $-1 $24 #
shell $-1 $-1 $-1 $48 $-1 $26 #
shell $-1 $-1 $-1 $49 $-1 $28 #
face $-1 $50 $51 $30 $-1 $52 forward single #
face $-1 $53 $54 $31 $-1 $55 forward single #
face $-1 $56 $57 $32 $-1 $58 reversed single #
face $-1 $59 $60 $33 $-1 $61 forward single #
face $-1 $62 $63 $34 $-1 $64 reversed single #
face $-1 $65 $66 $35 $-1 $67 forward single #
face $-1 $68 $69 $36 $-1 $70 reversed single #
face $-1 $71 $72 $37 $-1 $73 forward single #
face $-1 $74 $75 $38 $-1 $76 reversed single #
face $-1 $77 $78 $39 $-1 $79 forward single #
face $-1 $80 $81 $30 $-1 $82 reversed single #
loop $-1 $-1 $83 $40 #
plane-surface $-1 0 0 19.760692577586426 0 0 1 1 0 0 forward_v I I I I #
face $-1 $84 $85 $31 $-1 $86 reversed single #
loop $-1 $-1 $87 $41 #
plane-surface $-1 0 -32.963044179584585 -9.1808490104112295 0 0 1 1 0 0 forward_v I I I I #
face $-1 $88 $89 $32 $-1 $90 reversed single #
loop $-1 $-1 $91 $42 #
plane-surface $-1 31.908378104923841 -13.623988091560399 189.49122615701418 0 -1 0 -0.57357644374324357 0 -0.81915203911291934 forward_v I I I I #
face $-1 $92 $93 $33 $-1 $94 forward single #
loop $-1 $95 $96 $43 #
cone-surface $-1 58.717527197871838 -17.553986335771636 16.629464401419394 -0.57357644374324357 0 -0.81915203911291934 1.228728058669379 0 -0.86036466561486535 1 I I 0 1 1.5 forward I I I I #
face $-1 $97 $98 $34 $-1 $99 reversed single #
loop $-1 $-1 $100 $44 #
plane-surface $-1 31.908378104923841 2.8575339982318972 189.49122615701418 0 -1 0 -0.57357644374324357 0 -0.81915203911291934 forward_v I I I I #
face $-1 $101 $102 $35 $-1 $103 forward single #
loop $-1 $104 $105 $45 #
cone-surface $-1 58.717527197871838 -1.0724642459793401 16.629464401419394 -0.57357644374324357 0 -0.81915203911291934 1.228728058669379 0 -0.86036466561486535 1 I I 0 1 1.5 forward I I I I #
face $-1 $106 $107 $36 $-1 $108 reversed single #
loop $-1 $-1 $109 $46 #
plane-surface $-1 31.908378104923841 19.33905608802419 189.49122615701418 0 -1 0 -0.57357644374324357 0 -0.81915203911291934 forward_v I I I I #
face $-1 $110 $111 $37 $-1 $112 forward single #
loop $-1 $113 $114 $47 #
cone-surface $-1 58.717527197871838 15.409057843812953 16.629464401419394 -0.57357644374324357 0 -0.81915203911291934 1.228728058669379 0 -0.86036466561486535 1 I I 0 1 1.5 forward I I I I #
face $-1 $115 $116 $38 $-1 $117 reversed single #
loop $-1 $-1 $118 $48 #
plane-surface $-1 31.908378104923841 35.820578177816486 189.49122615701418 0 -1 0 -0.57357644374324357 0 -0.81915203911291934 forward_v I I I I #
face $-1 $119 $120 $39 $-1 $121 forward single #
loop $-1 $122 $123 $49 #
cone-surface $-1 58.717527197871838 31.890579933605245 16.629464401419394 -0.57357644374324357 0 -0.81915203911291934 1.228728058669379 0 -0.86036466561486535 1 I I 0 1 1.5 forward I I I I #
face $-1 $124 $125 $30 $-1 $126 reversed single #
loop $-1 $-1 $127 $50 #
plane-surface $-1 0 0 -19.760692577586426 0 0 1 1 0 0 forward_v I I I I #
coedge $-1 $128 $129 $130 $131 forward $51 $-1 #
face $-1 $132 $133 $31 $-1 $134 reversed single #
loop $-1 $-1 $135 $53 #
plane-surface $-1 0 -25.363370200828623 -14.470770793998827 0 -1 0 0 0 -1 forward_v I I I I #
coedge $-1 $136 $137 $138 $139 reversed $54 $-1 #
face $-1 $140 $141 $32 $-1 $142 reversed single #
loop $-1 $-1 $143 $56 #
plane-surface $-1 -40.026128593163705 -17.553986335771636 86.758105773329532 0.57357644374324357 0 0.81915203911291934 0.81915203911291934 0 -0.57357644374324357 forward_v I I I I #
coedge $-1 $144 $145 $146 $147 reversed $57 $-1 #
face $-1 $-1 $148 $33 $-1 $149 forward single #
loop $-1 $150 $151 $59 #
cone-surface $-1 57.823330326939285 -17.553986335771636 15.352418947089888 -0.57357644374324357 0 -0.81915203911291934 0.61436402933468948 0 -0.43018233280743268 1 I I -0.70710678118654668 0.70710678118654835 0.75 forward I I I I #
loop $-1 $-1 $152 $43 #
coedge $-1 $96 $96 $153 $154 reversed $60 $-1 #
face $-1 $155 $156 $34 $-1 $157 reversed single #
loop $-1 $-1 $158 $62 #
plane-surface $-1 -40.026128593163705 -1.0724642459793401 86.758105773329532 0.57357644374324357 0 0.81915203911291934 0.81915203911291934 0 -0.57357644374324357 forward_v I I I I #
coedge $-1 $159 $160 $161 $162 reversed $63 $-1 #
face $-1 $-1 $163 $35 $-1 $164 forward single #
loop $-1 $165 $166 $65 #
cone-surface $-1 57.823330326939285 -1.0724642459793401 15.352418947089888 -0.57357644374324357 0 -0.81915203911291934 0.61436402933468948 0 -0.43018233280743268 1 I I -0.70710678118654668 0.70710678118654835 0.75 forward I I I I #
loop $-1 $-1 $167 $45 #
coedge $-1 $105 $105 $168 $169 reversed $66 $-1 #
face $-1 $170 $171 $36 $-1 $172 reversed single #
loop $-1 $-1 $173 $68 #
plane-surface $-1 -40.026128593163705 15.409057843812953 86.758105773329532 0.57357644374324357 0 0.81915203911291934 0.81915203911291934 0 -0.57357644374324357 forward_v I I I I #
coedge $-1 $174 $175 $176 $177 reversed $69 $-1 #
face $-1 $-1 $178 $37 $-1 $179 forward single #
loop $-1 $180 $181 $71 #
cone-surface $-1 57.823330326939285 15.409057843812953 15.352418947089888 -0.57357644374324357 0 -0.81915203911291934 0.61436402933468948 0 -0.43018233280743268 1 I I -0.70710678118654668 0.70710678118654835 0.75 forward I I I I #
loop $-1 $-1 $182 $47 #
coedge $-1 $114 $114 $183 $184 reversed $72 $-1 #
face $-1 $185 $186 $38 $-1 $187 reversed single #
loop $-1 $-1 $188 $74 #
plane-surface $-1 -40.026128593163705 31.890579933605245 86.758105773329532 0.57357644374324357 0 0.81915203911291934 0.81915203911291934 0 -0.57357644374324357 forward_v I I I I #
coedge $-1 $189 $190 $191 $192 reversed $75 $-1 #
face $-1 $-1 $193 $39 $-1 $194 forward single #
loop $-1 $195 $196 $77 #
cone-surface $-1 57.823330326939285 31.890579933605245 15.352418947089888 -0.57357644374324357 0 -0.81915203911291934 0.61436402933468948 0 -0.43018233280743268 1 I I -0.70710678118654668 0.70710678118654835 0.75 forward I I I I #
loop $-1 $-1 $197 $49 #
coedge $-1 $123 $123 $198 $199 reversed $78 $-1 #
face $-1 $200 $201 $30 $-1 $202 reversed single #
loop $-1 $-1 $203 $80 #
plane-surface $-1 0 -40.562718158340552 0 0 1 0 0 0 1 forward_v I I I I #
coedge $-1 $204 $205 $206 $207 forward $81 $-1 #
coedge $-1 $208 $83 $209 $210 forward $51 $-1 #
coedge $-1 $83 $208 $211 $212 forward $51 $-1 #
coedge $-1 $213 $214 $83 $131 reversed $215 $-1 #
edge $-1 $216 -40.562718158340552 $217 40.562718158340552 $130 $218 forward 7 unknown #
face $-1 $219 $220 $31 $-1 $221 reversed single #
loop $-1 $-1 $222 $84 #
plane-surface $-1 0 0 -19.760692577586426 0 0 1 1 0 0 forward_v I I I I #
coedge $-1 $223 $224 $225 $226 reversed $85 $-1 #
coedge $-1 $227 $87 $224 $228 forward $54 $-1 #
coedge $-1 $87 $227 $229 $230 reversed $54 $-1 #
coedge $-1 $231 $225 $87 $139 forward $220 $-1 #
edge $-1 $232 8.8818481110363301 $233 24.081196068548252 $138 $234 forward 7 unknown #
face $-1 $235 $236 $32 $-1 $237 reversed single #
loop $-1 $-1 $238 $88 #
plane-surface $-1 31.908378104923841 -21.483984579982874 189.49122615701418 0 1 0 0.57357644374324357 0 0.81915203911291934 forward_v I I I I #
coedge $-1 $239 $240 $241 $242 reversed $89 $-1 #
coedge $-1 $145 $91 $243 $244 reversed $57 $-1 #
coedge $-1 $91 $144 $239 $245 reversed $57 $-1 #
coedge $-1 $241 $246 $91 $147 forward $247 $-1 #
edge $-1 $248 -46.752802738059025 $249 -39.701902629011038 $146 $250 forward 7 unknown #
loop $-1 $-1 $153 $92 #
plane-surface $-1 -40.026128593163705 -17.553986335771636 86.758105773329532 0.57357644374324357 0 0.81915203911291934 0.81915203911291934 0 -0.57357644374324357 forward_v I I I I #
loop $-1 $-1 $251 $59 #
coedge $-1 $151 $151 $152 $252 reversed $93 $-1 #
coedge $-1 $152 $152 $151 $252 forward $95 $-1 #
coedge $-1 $153 $153 $96 $154 forward $148 $-1 #
edge $-1 $253 0 $253 6.2831853071796004 $153 $254 forward 7 unknown #
face $-1 $255 $256 $34 $-1 $257 reversed single #
loop $-1 $-1 $258 $97 #
plane-surface $-1 31.908378104923841 -5.0024624901905774 189.49122615701418 0 1 0 0.57357644374324357 0 0.81915203911291934 forward_v I I I I #
coedge $-1 $259 $260 $261 $262 reversed $98 $-1 #
coedge $-1 $160 $100 $263 $264 reversed $63 $-1 #
coedge $-1 $100 $159 $259 $265 reversed $63 $-1 #
coedge $-1 $261 $266 $100 $162 forward $267 $-1 #
edge $-1 $268 -46.752802738059025 $269 -39.701902629011038 $161 $270 forward 7 unknown #
loop $-1 $-1 $168 $101 #
plane-surface $-1 -40.026128593163705 -1.0724642459793401 86.758105773329532 0.57357644374324357 0 0.81915203911291934 0.81915203911291934 0 -0.57357644374324357 forward_v I I I I #
loop $-1 $-1 $271 $65 #
coedge $-1 $166 $166 $167 $272 reversed $102 $-1 #
coedge $-1 $167 $167 $166 $272 forward $104 $-1 #
coedge $-1 $168 $168 $105 $169 forward $163 $-1 #
edge $-1 $273 0 $273 6.2831853071796004 $168 $274 forward 7 unknown #
face $-1 $275 $276 $36 $-1 $277 reversed single #
loop $-1 $-1 $278 $106 #
plane-surface $-1 31.908378104923841 11.479059599601715 189.49122615701418 0 1 0 0.57357644374324357 0 0.81915203911291934 forward_v I I I I #
coedge $-1 $279 $280 $281 $282 reversed $107 $-1 #
coedge $-1 $175 $109 $283 $284 reversed $69 $-1 #
coedge $-1 $109 $174 $279 $285 reversed $69 $-1 #
coedge $-1 $281 $286 $109 $177 forward $287 $-1 #
edge $-1 $288 -46.752802738059025 $289 -39.701902629011038 $176 $290 forward 7 unknown #
loop $-1 $-1 $183 $110 #
plane-surface $-1 -40.026128593163705 15.409057843812953 86.758105773329532 0.57357644374324357 0 0.81915203911291934 0.81915203911291934 0 -0.57357644374324357 forward_v I I I I #
loop $-1 $-1 $291 $71 #
coedge $-1 $181 $181 $182 $292 reversed $111 $-1 #
coedge $-1 $182 $182 $181 $292 forward $113 $-1 #
coedge $-1 $183 $183 $114 $184 forward $178 $-1 #
edge $-1 $293 0 $293 6.2831853071796004 $183 $294 forward 7 unknown #
face $-1 $295 $296 $38 $-1 $297 reversed single #
loop $-1 $-1 $298 $115 #
plane-surface $-1 31.908378104923841 27.960581689394008 189.49122615701418 0 1 0 0.57357644374324357 0 0.81915203911291934 forward_v I I I I #
coedge $-1 $299 $300 $301 $302 reversed $116 $-1 #
coedge $-1 $190 $118 $303 $304 reversed $75 $-1 #
coedge $-1 $118 $189 $299 $305 reversed $75 $-1 #
coedge $-1 $301 $306 $118 $192 forward $307 $-1 #
edge $-1 $308 -46.752802738059025 $309 -39.701902629011038 $191 $310 forward 7 unknown #
loop $-1 $-1 $198 $119 #
plane-surface $-1 -40.026128593163705 31.890579933605245 86.758105773329532 0.57357644374324357 0 0.81915203911291934 0.81915203911291934 0 -0.57357644374324357 forward_v I I I I #
loop $-1 $-1 $311 $77 #
coedge $-1 $196 $196 $197 $312 reversed $120 $-1 #
coedge $-1 $197 $197 $196 $312 forward $122 $-1 #
coedge $-1 $198 $198 $123 $199 forward $193 $-1 #
edge $-1 $313 0 $313 6.2831853071796004 $198 $314 forward 7 unknown #
face $-1 $315 $316 $30 $-1 $317 reversed single #
loop $-1 $-1 $318 $124 #
plane-surface $-1 -62.706991790520945 0 0 1 0 0 0 0 -1 forward_v I I I I #
coedge $-1 $319 $211 $320 $321 forward $125 $-1 #
coedge $-1 $322 $127 $319 $323 forward $81 $-1 #
coedge $-1 $127 $322 $324 $325 forward $81 $-1 #
coedge $-1 $214 $213 $127 $207 reversed $215 $-1 #
edge $-1 $326 -40.562718158340552 $327 40.562718158340552 $206 $328 forward 7 unknown #
coedge $-1 $129 $128 $329 $330 forward $51 $-1 #
coedge $-1 $331 $332 $128 $210 reversed $316 $-1 #
edge $-1 $217 -62.706991790520945 $333 62.706991790520945 $209 $334 forward 7 unknown #
coedge $-1 $203 $335 $129 $212 reversed $125 $-1 #
edge $-1 $336 -62.706991790520945 $216 62.706991790520945 $211 $337 forward 7 unknown #
coedge $-1 $206 $130 $335 $338 forward $215 $-1 #
coedge $-1 $130 $206 $331 $339 reversed $215 $-1 #
loop $-1 $-1 $213 $315 #
vertex $-1 $131 $340 #
vertex $-1 $131 $341 #
straight-curve $-1 62.706991790520945 0 19.760692577586426 0 1 0 I I #
face $-1 $342 $343 $31 $-1 $344 reversed single #
loop $-1 $-1 $225 $132 #
plane-surface $-1 62.706991790520945 0 0 -1 0 0 0 0 1 forward_v I I I I #
coedge $-1 $345 $346 $223 $347 forward $133 $-1 #
coedge $-1 $348 $135 $222 $347 reversed $85 $-1 #
coedge $-1 $135 $348 $136 $228 reversed $85 $-1 #
coedge $-1 $138 $349 $135 $226 forward $220 $-1 #
edge $-1 $350 -12.525307180587012 $232 -1.9454636134118157 $225 $351 forward 7 unknown #
coedge $-1 $137 $136 $352 $353 reversed $54 $-1 #
edge $-1 $232 -62.706991790520945 $354 62.706991790520945 $224 $355 forward 7 unknown #
coedge $-1 $356 $357 $137 $230 forward $343 $-1 #
edge $-1 $233 -62.706991790520945 $358 62.706991790520945 $229 $359 forward 7 unknown #
coedge $-1 $349 $138 $357 $360 forward $220 $-1 #
vertex $-1 $139 $361 #
vertex $-1 $360 $362 #
straight-curve $-1 62.706991790520945 -16.481522089792293 -9.1808490104112295 0 -1 0 I I #
face $-1 $-1 $247 $32 $-1 $363 forward single #
loop $-1 $-1 $364 $140 #
plane-surface $-1 62.706991790520945 0 0 -1 0 0 0 0 1 forward_v I I I I #
coedge $-1 $365 $366 $367 $368 reversed $141 $-1 #
coedge $-1 $369 $143 $145 $245 forward $89 $-1 #
coedge $-1 $143 $369 $365 $370 forward $89 $-1 #
coedge $-1 $367 $146 $143 $242 forward $247 $-1 #
edge $-1 $249 4.8469949236745808 $371 12.706991412097056 $241 $372 forward 7 unknown #
coedge $-1 $373 $374 $144 $244 forward $236 $-1 #
edge $-1 $375 -79.922014003265105 $248 -74.984920500920666 $243 $376 forward 7 unknown #
edge $-1 $249 116.80642384563113 $375 125.41398358104189 $145 $377 forward 7 unknown #
coedge $-1 $146 $367 $373 $378 forward $247 $-1 #
loop $-1 $-1 $367 $235 #
vertex $-1 $244 $379 #
vertex $-1 $147 $380 #
straight-curve $-1 15.954189052461921 -13.623988091560399 19.760692577586426 -1 0 0 I I #
coedge $-1 $251 $251 $-1 $381 reversed $150 $-1 #
edge $-1 $382 0 $382 6.2831853071796004 $151 $383 forward 7 unknown #
vertex $-1 $154 $384 #
ellipse-curve $-1 59.181541735996959 -17.553986335771636 17.292145826414206 0.57357644374324357 0 0.81915203911291934 1.228728058669379 0 -0.86036466561486535 1 I I #
face $-1 $-1 $267 $34 $-1 $385 forward single #
loop $-1 $-1 $386 $155 #
plane-surface $-1 62.706991790520945 0 0 -1 0 0 0 0 1 forward_v I I I I #
coedge $-1 $387 $388 $389 $390 reversed $156 $-1 #
coedge $-1 $391 $158 $160 $265 forward $98 $-1 #
coedge $-1 $158 $391 $387 $392 forward $98 $-1 #
coedge $-1 $389 $161 $158 $262 forward $267 $-1 #
edge $-1 $269 -3.3937661212215673 $393 4.4662303672009074 $261 $394 forward 7 unknown #
coedge $-1 $395 $396 $159 $264 forward $256 $-1 #
edge $-1 $397 -79.922014003265105 $268 -74.984920500920666 $263 $398 forward 7 unknown #
edge $-1 $269 116.80642384563113 $397 125.41398358104189 $160 $399 forward 7 unknown #
coedge $-1 $161 $389 $395 $400 forward $267 $-1 #
loop $-1 $-1 $389 $255 #
vertex $-1 $264 $401 #
vertex $-1 $162 $402 #
straight-curve $-1 15.954189052461921 2.8575339982318972 19.760692577586426 -1 0 0 I I #
coedge $-1 $271 $271 $-1 $403 reversed $165 $-1 #
edge $-1 $404 0 $404 6.2831853071796004 $166 $405 forward 7 unknown #
vertex $-1 $169 $406 #
ellipse-curve $-1 59.181541735996959 -1.0724642459793401 17.292145826414206 0.57357644374324357 0 0.81915203911291934 1.228728058669379 0 -0.86036466561486535 1 I I #
face $-1 $-1 $287 $36 $-1 $407 forward single #
loop $-1 $-1 $408 $170 #
plane-surface $-1 62.706991790520945 0 0 -1 0 0 0 0 1 forward_v I I I I #
coedge $-1 $409 $410 $411 $412 reversed $171 $-1 #
coedge $-1 $413 $173 $175 $285 forward $107 $-1 #
coedge $-1 $173 $413 $409 $414 forward $107 $-1 #
coedge $-1 $411 $176 $173 $282 forward $287 $-1 #
edge $-1 $289 -11.634527166117714 $415 -3.774530677695239 $281 $416 forward 7 unknown #
coedge $-1 $417 $418 $174 $284 forward $276 $-1 #
edge $-1 $419 -79.922014003265105 $288 -74.984920500920666 $283 $420 forward 7 unknown #
edge $-1 $289 116.80642384563113 $419 125.41398358104189 $175 $421 forward 7 unknown #
coedge $-1 $176 $411 $417 $422 forward $287 $-1 #
loop $-1 $-1 $411 $275 #
vertex $-1 $284 $423 #
vertex $-1 $177 $424 #
straight-curve $-1 15.954189052461921 19.33905608802419 19.760692577586426 -1 0 0 I I #
coedge $-1 $291 $291 $-1 $425 reversed $180 $-1 #
edge $-1 $426 0 $426 6.2831853071796004 $181 $427 forward 7 unknown #
vertex $-1 $184 $428 #
ellipse-curve $-1 59.181541735996959 15.409057843812953 17.292145826414206 0.57357644374324357 0 0.81915203911291934 1.228728058669379 0 -0.86036466561486535 1 I I #
face $-1 $-1 $307 $38 $-1 $429 forward single #
loop $-1 $-1 $430 $185 #
plane-surface $-1 62.706991790520945 0 0 -1 0 0 0 0 1 forward_v I I I I #
coedge $-1 $431 $432 $433 $434 reversed $186 $-1 #
coedge $-1 $435 $188 $190 $305 forward $116 $-1 #
coedge $-1 $188 $435 $431 $436 forward $116 $-1 #
coedge $-1 $433 $191 $188 $302 forward $307 $-1 #
edge $-1 $309 -19.875288211013864 $437 -12.015291722591385 $301 $438 forward 7 unknown #
coedge $-1 $439 $440 $189 $304 forward $296 $-1 #
edge $-1 $441 -79.922014003265105 $308 -74.984920500920666 $303 $442 forward 7 unknown #
edge $-1 $309 116.80642384563113 $441 125.41398358104189 $190 $443 forward 7 unknown #
coedge $-1 $191 $433 $439 $444 forward $307 $-1 #
loop $-1 $-1 $433 $295 #
vertex $-1 $304 $445 #
vertex $-1 $192 $446 #
straight-curve $-1 15.954189052461921 35.820578177816486 19.760692577586426 -1 0 0 I I #
coedge $-1 $311 $311 $-1 $447 reversed $195 $-1 #
edge $-1 $448 0 $448 6.2831853071796004 $196 $449 forward 7 unknown #
vertex $-1 $199 $450 #
ellipse-curve $-1 59.181541735996959 31.890579933605245 17.292145826414206 0.57357644374324357 0 0.81915203911291934 1.228728058669379 0 -0.86036466561486535 1 I I #
face $-1 $-1 $215 $30 $-1 $451 reversed single #
loop $-1 $-1 $331 $200 #
plane-surface $-1 0 40.562718158340552 0 0 -1 0 0 0 -1 forward_v I I I I #
coedge $-1 $452 $329 $332 $453 forward $201 $-1 #
coedge $-1 $335 $203 $204 $323 reversed $125 $-1 #
coedge $-1 $329 $452 $203 $321 reversed $201 $-1 #
edge $-1 $336 -19.760692577586426 $454 19.760692577586426 $320 $455 forward 7 unknown #
coedge $-1 $205 $204 $452 $456 forward $81 $-1 #
edge $-1 $327 -62.706991790520945 $454 62.706991790520945 $319 $457 forward 7 unknown #
coedge $-1 $332 $331 $205 $325 reversed $316 $-1 #
edge $-1 $458 -62.706991790520945 $326 62.706991790520945 $324 $459 forward 7 unknown #
vertex $-1 $207 $460 #
vertex $-1 $338 $461 #
straight-curve $-1 62.706991790520945 0 -19.760692577586426 0 -1 0 I I #
coedge $-1 $318 $320 $208 $330 reversed $201 $-1 #
edge $-1 $333 -40.562718158340552 $336 40.562718158340552 $329 $462 forward 7 unknown #
coedge $-1 $324 $209 $214 $339 forward $316 $-1 #
coedge $-1 $209 $324 $318 $453 reversed $316 $-1 #
vertex $-1 $210 $463 #
straight-curve $-1 0 40.562718158340552 19.760692577586426 -1 0 0 I I #
coedge $-1 $211 $319 $213 $338 reversed $125 $-1 #
vertex $-1 $330 $464 #
straight-curve $-1 0 -40.562718158340552 19.760692577586426 1 0 0 I I #
edge $-1 $216 -19.760692577586426 $327 19.760692577586426 $213 $465 forward 7 unknown #
edge $-1 $217 -19.760692577586426 $326 19.760692577586426 $214 $466 forward 7 unknown #
point $-1 62.706991790520945 -40.562718158340552 19.760692577586426 #
point $-1 62.706991790520945 40.562718158340552 19.760692577586426 #
face $-1 $-1 $467 $31 $-1 $468 reversed single #
loop $-1 $-1 $229 $219 #
plane-surface $-1 0 -40.562718158340552 0 0 1 0 0 0 1 forward_v I I I I #
coedge $-1 $469 $222 $349 $470 forward $133 $-1 #
coedge $-1 $222 $469 $471 $472 forward $133 $-1 #
edge $-1 $473 -62.706991790520945 $350 62.706991790520945 $222 $474 forward 7 unknown #
coedge $-1 $224 $223 $475 $476 reversed $85 $-1 #
coedge $-1 $225 $231 $345 $470 reversed $220 $-1 #
vertex $-1 $470 $477 #
straight-curve $-1 62.706991790520945 -25.363370200828623 -7.2353853969994137 0 0 1 I I #
coedge $-1 $475 $478 $227 $353 forward $467 $-1 #
edge $-1 $358 -24.081196068548252 $354 -8.8818481110363301 $352 $479 forward 7 unknown #
vertex $-1 $353 $480 #
straight-curve $-1 0 -25.363370200828623 -9.1808490104112295 -1 0 0 I I #
coedge $-1 $481 $229 $478 $482 forward $343 $-1 #
coedge $-1 $229 $481 $231 $360 reversed $343 $-1 #
vertex $-1 $482 $483 #
straight-curve $-1 0 -40.562718158340552 -9.1808490104112295 -1 0 0 I I #
edge $-1 $233 9.1808490104112295 $484 19.760692577586426 $231 $485 forward 7 unknown #
point $-1 62.706991790520945 -25.363370200828623 -9.1808490104112295 #
point $-1 62.706991790520945 -40.562718158340545 -9.1808490104112295 #
plane-surface $-1 0 0 19.760692577586426 0 0 1 1 0 0 forward_v I I I I #
coedge $-1 $374 $373 $366 $486 forward $236 $-1 #
coedge $-1 $366 $238 $240 $370 reversed $141 $-1 #
coedge $-1 $238 $365 $364 $486 reversed $141 $-1 #
coedge $-1 $246 $241 $238 $368 forward $247 $-1 #
edge $-1 $371 39.701902629011038 $487 46.752802738059025 $367 $488 forward 7 unknown #
coedge $-1 $240 $239 $374 $489 reversed $89 $-1 #
edge $-1 $490 -125.41398358104189 $371 -116.80642384563113 $365 $491 forward 7 unknown #
vertex $-1 $242 $492 #
straight-curve $-1 55.656091681472951 -8.7769931678858182 19.760692577586433 0 -1 0 I I #
coedge $-1 $364 $243 $246 $378 reversed $236 $-1 #
coedge $-1 $243 $364 $369 $489 forward $236 $-1 #
vertex $-1 $244 $493 #
straight-curve $-1 62.706991790520945 -13.623988091560399 94.745613078507091 0 0 1 I I #
straight-curve $-1 -40.026128593163705 -13.623988091560399 86.758105773329532 0.81915203911291934 0 -0.57357644374324357 I I #
edge $-1 $487 -21.483984579982874 $248 -13.623988091560399 $373 $494 forward 7 unknown #
point $-1 62.706991790520945 -13.623988091560399 19.760692577586426 #
point $-1 55.656091681472958 -13.623988091560399 19.760692577586426 #
edge $-1 $495 1 $495 0 $251 $-1 forward 7 unknown #
vertex $-1 $252 $496 #
ellipse-curve $-1 58.253512659746718 -17.553986335771636 15.966782976424579 0.57357644374324357 0 0.81915203911291934 1.228728058669379 0 -0.86036466561486535 1 I I #
point $-1 60.410269794666341 -17.553986335771636 16.43178116079935 #
plane-surface $-1 0 0 19.760692577586426 0 0 1 1 0 0 forward_v I I I I #
coedge $-1 $396 $395 $388 $497 forward $256 $-1 #
coedge $-1 $388 $258 $260 $392 reversed $156 $-1 #
coedge $-1 $258 $387 $386 $497 reversed $156 $-1 #
coedge $-1 $266 $261 $258 $390 forward $267 $-1 #
edge $-1 $393 39.701902629011038 $498 46.752802738059025 $389 $499 forward 7 unknown #
coedge $-1 $260 $259 $396 $500 reversed $98 $-1 #
edge $-1 $501 -125.41398358104189 $393 -116.80642384563113 $387 $502 forward 7 unknown #
vertex $-1 $262 $503 #
straight-curve $-1 55.656091681472951 -0.53623212298967005 19.760692577586433 0 -1 0 I I #
coedge $-1 $386 $263 $266 $400 reversed $256 $-1 #
coedge $-1 $263 $386 $391 $500 forward $256 $-1 #
vertex $-1 $264 $504 #
straight-curve $-1 62.706991790520945 2.8575339982318972 94.745613078507091 0 0 1 I I #
straight-curve $-1 -40.026128593163705 2.8575339982318972 86.758105773329532 0.81915203911291934 0 -0.57357644374324357 I I #
edge $-1 $498 -5.0024624901905774 $268 2.8575339982318972 $395 $505 forward 7 unknown #
point $-1 62.706991790520945 2.8575339982318972 19.760692577586426 #
point $-1 55.656091681472958 2.8575339982318972 19.760692577586426 #
edge $-1 $506 1 $506 0 $271 $-1 forward 7 unknown #
vertex $-1 $272 $507 #
ellipse-curve $-1 58.253512659746718 -1.0724642459793401 15.966782976424579 0.57357644374324357 0 0.81915203911291934 1.228728058669379 0 -0.86036466561486535 1 I I #
point $-1 60.410269794666341 -1.0724642459793401 16.43178116079935 #
plane-surface $-1 0 0 19.760692577586426 0 0 1 1 0 0 forward_v I I I I #
coedge $-1 $418 $417 $410 $508 forward $276 $-1 #
coedge $-1 $410 $278 $280 $414 reversed $171 $-1 #
coedge $-1 $278 $409 $408 $508 reversed $171 $-1 #
coedge $-1 $286 $281 $278 $412 forward $287 $-1 #
edge $-1 $415 39.701902629011038 $509 46.752802738059025 $411 $510 forward 7 unknown #
coedge $-1 $280 $279 $418 $511 reversed $107 $-1 #
edge $-1 $512 -125.41398358104189 $415 -116.80642384563113 $409 $513 forward 7 unknown #
vertex $-1 $282 $514 #
straight-curve $-1 55.656091681472951 7.7045289219064763 19.760692577586433 0 -1 0 I I #
coedge $-1 $408 $283 $286 $422 reversed $276 $-1 #
coedge $-1 $283 $408 $413 $511 forward $276 $-1 #
vertex $-1 $284 $515 #
straight-curve $-1 62.706991790520945 19.33905608802419 94.745613078507091 0 0 1 I I #
straight-curve $-1 -40.026128593163705 19.33905608802419 86.758105773329532 0.81915203911291934 0 -0.57357644374324357 I I #
edge $-1 $509 11.479059599601715 $288 19.33905608802419 $417 $516 forward 7 unknown #
point $-1 62.706991790520945 19.33905608802419 19.760692577586426 #
point $-1 55.656091681472958 19.33905608802419 19.760692577586426 #
edge $-1 $517 1 $517 0 $291 $-1 forward 7 unknown #
vertex $-1 $292 $518 #
ellipse-curve $-1 58.253512659746718 15.409057843812953 15.966782976424579 0.57357644374324357 0 0.81915203911291934 1.228728058669379 0 -0.86036466561486535 1 I I #
point $-1 60.410269794666341 15.409057843812953 16.43178116079935 #
plane-surface $-1 0 0 19.760692577586426 0 0 1 1 0 0 forward_v I I I I #
coedge $-1 $440 $439 $432 $519 forward $296 $-1 #
coedge $-1 $432 $298 $300 $436 reversed $186 $-1 #
coedge $-1 $298 $431 $430 $519 reversed $186 $-1 #
coedge $-1 $306 $301 $298 $434 forward $307 $-1 #
edge $-1 $437 39.701902629011038 $520 46.752802738059025 $433 $521 forward 7 unknown #
coedge $-1 $300 $299 $440 $522 reversed $116 $-1 #
edge $-1 $523 -125.41398358104189 $437 -116.80642384563113 $431 $524 forward 7 unknown #
vertex $-1 $302 $525 #
straight-curve $-1 55.656091681472951 15.945289966802623 19.760692577586433 0 -1 0 I I #
coedge $-1 $430 $303 $306 $444 reversed $296 $-1 #
coedge $-1 $303 $430 $435 $522 forward $296 $-1 #
vertex $-1 $304 $526 #
straight-curve $-1 62.706991790520945 35.820578177816486 94.745613078507091 0 0 1 I I #
straight-curve $-1 -40.026128593163705 35.820578177816486 86.758105773329532 0.81915203911291934 0 -0.57357644374324357 I I #
edge $-1 $520 27.960581689394008 $308 35.820578177816486 $439 $527 forward 7 unknown #
point $-1 62.706991790520945 35.820578177816486 19.760692577586426 #
point $-1 55.656091681472958 35.820578177816486 19.760692577586426 #
edge $-1 $528 1 $528 0 $311 $-1 forward 7 unknown #
vertex $-1 $312 $529 #
ellipse-curve $-1 58.253512659746718 31.890579933605245 15.966782976424579 0.57357644374324357 0 0.81915203911291934 1.228728058669379 0 -0.86036466561486535 1 I I #
point $-1 60.410269794666341 31.890579933605245 16.43178116079935 #
plane-surface $-1 62.706991790520945 0 0 -1 0 0 0 0 1 forward_v I I I I #
coedge $-1 $320 $318 $322 $456 reversed $201 $-1 #
edge $-1 $333 -19.760692577586426 $458 19.760692577586426 $332 $530 forward 7 unknown #
vertex $-1 $456 $531 #
straight-curve $-1 -62.706991790520945 -40.562718158340552 0 0 0 -1 I I #
edge $-1 $454 -40.562718158340552 $458 40.562718158340552 $452 $532 forward 7 unknown #
straight-curve $-1 0 -40.562718158340552 -19.760692577586426 -1 0 0 I I #
vertex $-1 $325 $533 #
straight-curve $-1 0 40.562718158340552 -19.760692577586426 1 0 0 I I #
point $-1 62.706991790520945 40.562718158340552 -19.760692577586426 #
point $-1 62.706991790520945 -40.562718158340552 -19.760692577586426 #
straight-curve $-1 -62.706991790520945 0 19.760692577586426 0 -1 0 I I #
point $-1 -62.706991790520945 40.562718158340552 19.760692577586426 #
point $-1 -62.706991790520945 -40.562718158340552 19.760692577586426 #
straight-curve $-1 62.706991790520945 -40.562718158340552 0 0 0 -1 I I #
straight-curve $-1 62.706991790520945 40.562718158340552 0 0 0 -1 I I #
loop $-1 $-1 $475 $342 #
plane-surface $-1 -62.706991790520945 0 0 1 0 0 0 0 -1 forward_v I I I I #
coedge $-1 $346 $345 $481 $534 forward $133 $-1 #
edge $-1 $350 25.363370200828623 $484 40.562718158340552 $349 $535 forward 7 unknown #
coedge $-1 $478 $475 $346 $472 reversed $467 $-1 #
edge $-1 $536 -40.562718158340552 $473 -25.363370200828623 $471 $537 forward 7 unknown #
vertex $-1 $476 $538 #
straight-curve $-1 0 -25.363370200828623 -19.760692577586426 1 0 0 I I #
coedge $-1 $471 $352 $348 $476 forward $467 $-1 #
edge $-1 $354 1.9454636134118157 $473 12.525307180587012 $475 $539 forward 7 unknown #
point $-1 62.706991790520945 -25.363370200828623 -19.760692577586426 #
coedge $-1 $352 $471 $356 $482 reversed $467 $-1 #
straight-curve $-1 -62.706991790520945 -16.481522089792293 -9.1808490104112295 0 1 0 I I #
point $-1 -62.706991790520945 -25.363370200828623 -9.1808490104112295 #
coedge $-1 $357 $356 $469 $534 reversed $343 $-1 #
edge $-1 $358 9.1808490104112295 $536 19.760692577586426 $478 $540 forward 7 unknown #
point $-1 -62.706991790520945 -40.562718158340545 -9.1808490104112295 #
vertex $-1 $360 $541 #
straight-curve $-1 62.706991790520945 -40.562718158340552 0 0 0 -1 I I #
edge $-1 $487 74.984920500920666 $490 79.922014003265105 $364 $542 forward 7 unknown #
vertex $-1 $378 $543 #
straight-curve $-1 15.954189052461921 -21.483984579982874 19.760692577586426 1 0 0 I I #
edge $-1 $490 -12.706991412097056 $375 -4.8469949236745808 $374 $544 forward 7 unknown #
vertex $-1 $489 $545 #
straight-curve $-1 -40.026128593163705 -21.483984579982874 86.758105773329532 -0.81915203911291934 0 0.57357644374324357 I I #
point $-1 55.656091681472958 -21.483984579982874 19.760692577586426 #
point $-1 62.706991790520945 -13.623988091560399 14.823599075241987 #
straight-curve $-1 62.706991790520945 0 19.760692577586426 0 1 0 I I #
vertex $-1 $381 $546 #
point $-1 59.482240718416101 -17.553986335771636 15.106418310809714 #
edge $-1 $498 74.984920500920666 $501 79.922014003265105 $386 $547 forward 7 unknown #
vertex $-1 $400 $548 #
straight-curve $-1 15.954189052461921 -5.0024624901905774 19.760692577586426 1 0 0 I I #
edge $-1 $501 -4.4662303672009074 $397 3.3937661212215673 $396 $549 forward 7 unknown #
vertex $-1 $500 $550 #
straight-curve $-1 -40.026128593163705 -5.0024624901905774 86.758105773329532 -0.81915203911291934 0 0.57357644374324357 I I #
point $-1 55.656091681472958 -5.0024624901905774 19.760692577586426 #
point $-1 62.706991790520945 2.8575339982318972 14.823599075241987 #
straight-curve $-1 62.706991790520945 0 19.760692577586426 0 1 0 I I #
vertex $-1 $403 $551 #
point $-1 59.482240718416101 -1.0724642459793401 15.106418310809714 #
edge $-1 $509 74.984920500920666 $512 79.922014003265105 $408 $552 forward 7 unknown #
vertex $-1 $422 $553 #
straight-curve $-1 15.954189052461921 11.479059599601715 19.760692577586426 1 0 0 I I #
edge $-1 $512 3.774530677695239 $419 11.634527166117714 $418 $554 forward 7 unknown #
vertex $-1 $511 $555 #
straight-curve $-1 -40.026128593163705 11.479059599601715 86.758105773329532 -0.81915203911291934 0 0.57357644374324357 I I #
point $-1 55.656091681472958 11.479059599601715 19.760692577586426 #
point $-1 62.706991790520945 19.33905608802419 14.823599075241987 #
straight-curve $-1 62.706991790520945 0 19.760692577586426 0 1 0 I I #
vertex $-1 $425 $556 #
point $-1 59.482240718416101 15.409057843812953 15.106418310809714 #
edge $-1 $520 74.984920500920666 $523 79.922014003265105 $430 $557 forward 7 unknown #
vertex $-1 $444 $558 #
straight-curve $-1 15.954189052461921 27.960581689394008 19.760692577586426 1 0 0 I I #
edge $-1 $523 12.015291722591385 $441 19.875288211013864 $440 $559 forward 7 unknown #
vertex $-1 $522 $560 #
straight-curve $-1 -40.026128593163705 27.960581689394008 86.758105773329532 -0.81915203911291934 0 0.57357644374324357 I I #
point $-1 55.656091681472958 27.960581689394008 19.760692577586426 #
point $-1 62.706991790520945 35.820578177816486 14.823599075241987 #
straight-curve $-1 62.706991790520945 0 19.760692577586426 0 1 0 I I #
vertex $-1 $447 $561 #
point $-1 59.482240718416101 31.890579933605245 15.106418310809714 #
straight-curve $-1 -62.706991790520945 40.562718158340552 0 0 0 -1 I I #
point $-1 -62.706991790520945 -40.562718158340552 -19.760692577586426 #
straight-curve $-1 -62.706991790520945 0 -19.760692577586426 0 1 0 I I #
point $-1 -62.706991790520945 40.562718158340552 -19.760692577586426 #
edge $-1 $484 -62.706991790520945 $536 62.706991790520945 $481 $562 forward 7 unknown #
straight-curve $-1 62.706991790520945 0 -19.760692577586426 0 -1 0 I I #
vertex $-1 $472 $563 #
straight-curve $-1 -62.706991790520945 0 -19.760692577586426 0 1 0 I I #
point $-1 -62.706991790520945 -25.363370200828623 -19.760692577586426 #
straight-curve $-1 -62.706991790520945 -25.363370200828623 -7.2353853969994137 0 0 -1 I I #
straight-curve $-1 -62.706991790520945 -40.562718158340552 0 0 0 -1 I I #
point $-1 62.706991790520945 -40.562718158340552 -19.760692577586426 #
straight-curve $-1 62.706991790520945 -21.483984579982874 94.745613078507091 0 0 -1 I I #
point $-1 62.706991790520945 -21.483984579982874 19.760692577586426 #
straight-curve $-1 62.706991790520952 -8.7769931678858182 14.82359907524198 0 1 0 I I #
point $-1 62.706991790520945 -21.483984579982874 14.823599075241987 #
point $-1 57.393147994131851 -17.553986335771636 14.738054917755196 #
straight-curve $-1 62.706991790520945 -5.0024624901905774 94.745613078507091 0 0 -1 I I #
point $-1 62.706991790520945 -5.0024624901905774 19.760692577586426 #
straight-curve $-1 62.706991790520952 -0.53623212298967005 14.82359907524198 0 1 0 I I #
point $-1 62.706991790520945 -5.0024624901905774 14.823599075241987 #
point $-1 57.393147994131851 -1.0724642459793401 14.738054917755196 #
straight-curve $-1 62.706991790520945 11.479059599601715 94.745613078507091 0 0 -1 I I #
point $-1 62.706991790520945 11.479059599601715 19.760692577586426 #
straight-curve $-1 62.706991790520952 7.7045289219064763 14.82359907524198 0 1 0 I I #
point $-1 62.706991790520945 11.479059599601715 14.823599075241987 #
point $-1 57.393147994131851 15.409057843812953 14.738054917755196 #
straight-curve $-1 62.706991790520945 27.960581689394008 94.745613078507091 0 0 -1 I I #
point $-1 62.706991790520945 27.960581689394008 19.760692577586426 #
straight-curve $-1 62.706991790520952 15.945289966802623 14.82359907524198 0 1 0 I I #
point $-1 62.706991790520945 27.960581689394008 14.823599075241987 #
point $-1 57.393147994131851 31.890579933605245 14.738054917755196 #
straight-curve $-1 0 -40.562718158340552 -19.760692577586426 -1 0 0 I I #
point $-1 -62.706991790520945 -40.562718158340552 -19.760692577586426 #
End-of-ACIS-data 