500 0 17 0           
7 Unknown 11 ACIS 5.0 NT 24 Thu Mar 25 15:30:18 1999 
-1 9.9999999999999995e-007 1e-010 
body $-1 $17 $-1 $18 #
body $-1 $19 $-1 $20 #
body $-1 $21 $-1 $22 #
body $-1 $23 $-1 $24 #
body $-1 $25 $-1 $26 #
body $-1 $27 $-1 $28 #
body $-1 $29 $-1 $30 #
body $-1 $31 $-1 $32 #
body $-1 $33 $-1 $34 #
body $-1 $35 $-1 $36 #
body $-1 $37 $-1 $38 #
body $-1 $39 $-1 $40 #
body $-1 $41 $-1 $42 #
body $-1 $43 $-1 $44 #
body $-1 $45 $-1 $46 #
body $-1 $47 $-1 $48 #
body $-1 $49 $-1 $50 #
lump $-1 $-1 $51 $0 #
transform $-1 1 0 0 0 1 0 0 0 1 62.896206549272136 38.296489935804104 17.501356819199344 1 rotate no_reflect no_shear #
lump $-1 $-1 $52 $1 #
transform $-1 1 0 0 0 1 0 0 0 1 62.896206549272136 38.296489935804104 17.501356819199344 1 rotate no_reflect no_shear #
lump $-1 $-1 $53 $2 #
transform $-1 1 0 0 0 1 0 0 0 1 62.896206549272136 38.296489935804104 17.501356819199344 1 rotate no_reflect no_shear #
lump $-1 $-1 $54 $3 #
transform $-1 1 0 0 0 1 0 0 0 1 62.896206549272136 38.296489935804104 17.501356819199344 1 rotate no_reflect no_shear #
lump $-1 $-1 $55 $4 #
transform $-1 1 0 0 0 1 0 0 0 1 62.896206549272136 38.296489935804104 17.501356819199344 1 rotate no_reflect no_shear #
lump $-1 $-1 $56 $5 #
transform $-1 1 0 0 0 1 0 0 0 1 62.896206549272136 38.296489935804104 17.501356819199344 1 rotate no_reflect no_shear #
lump $-1 $-1 $57 $6 #
transform $-1 1 0 0 0 1 0 0 0 1 62.896206549272136 38.296489935804104 17.501356819199344 1 rotate no_reflect no_shear #
lump $-1 $-1 $58 $7 #
transform $-1 1 0 0 0 1 0 0 0 1 62.896206549272136 38.296489935804104 17.501356819199344 1 rotate no_reflect no_shear #
lump $-1 $-1 $59 $8 #
transform $-1 1 0 0 0 1 0 0 0 1 62.896206549272136 38.296489935804104 17.501356819199344 1 rotate no_reflect no_shear #
lump $-1 $-1 $60 $9 #
transform $-1 1 0 0 0 1 0 0 0 1 62.896206549272136 38.296489935804104 17.501356819199344 1 rotate no_reflect no_shear #
lump $-1 $-1 $61 $10 #
transform $-1 1 0 0 0 1 0 0 0 1 62.896206549272136 38.296489935804104 17.501356819199344 1 rotate no_reflect no_shear #
lump $-1 $-1 $62 $11 #
transform $-1 1 0 0 0 1 0 0 0 1 62.896206549272136 38.296489935804104 17.501356819199344 1 rotate no_reflect no_shear #
lump $-1 $-1 $63 $12 #
transform $-1 1 0 0 0 1 0 0 0 1 62.896206549272136 38.296489935804104 17.501356819199344 1 rotate no_reflect no_shear #
lump $-1 $-1 $64 $13 #
transform $-1 1 0 0 0 1 0 0 0 1 62.896206549272136 38.296489935804104 17.501356819199344 1 rotate no_reflect no_shear #
lump $-1 $-1 $65 $14 #
transform $-1 1 0 0 0 1 0 0 0 1 62.896206549272136 38.296489935804104 17.501356819199344 1 rotate no_reflect no_shear #
lump $-1 $-1 $66 $15 #
transform $-1 1 0 0 0 1 0 0 0 1 62.896206549272136 38.296489935804104 17.501356819199344 1 rotate no_reflect no_shear #
lump $-1 $-1 $67 $16 #
transform $-1 1 0 0 0 1 0 0 0 1 62.896206549272136 38.296489935804104 17.501356819199344 1 rotate no_reflect no_shear #
shell $-1 $-1 $-1 $68 $-1 $17 #
shell $-1 $-1 $-1 $69 $-1 $19 #
shell $-1 $-1 $-1 $70 $-1 $21 #
shell $-1 $-1 $-1 $71 $-1 $23 #
shell $-1 $-1 $-1 $72 $-1 $25 #
shell $-1 $-1 $-1 $73 $-1 $27 #
shell $-1 $-1 $-1 $74 $-1 $29 #
shell $-1 $-1 $-1 $75 $-1 $31 #
shell $-1 $-1 $-1 $76 $-1 $33 #
shell $-1 $-1 $-1 $77 $-1 $35 #
shell $-1 $-1 $-1 $78 $-1 $37 #
shell $-1 $-1 $-1 $79 $-1 $39 #
shell $-1 $-1 $-1 $80 $-1 $41 #
shell $-1 $-1 $-1 $81 $-1 $43 #
shell $-1 $-1 $-1 $82 $-1 $45 #
shell $-1 $-1 $-1 $83 $-1 $47 #
shell $-1 $-1 $-1 $84 $-1 $49 #
face $-1 $85 $86 $51 $-1 $87 forward single #
face $-1 $88 $89 $52 $-1 $90 forward single #
face $-1 $91 $92 $53 $-1 $93 reversed single #
face $-1 $94 $95 $54 $-1 $96 forward single #
face $-1 $97 $98 $55 $-1 $99 forward single #
face $-1 $100 $101 $56 $-1 $102 reversed single #
face $-1 $103 $104 $57 $-1 $105 forward single #
face $-1 $106 $107 $58 $-1 $108 forward single #
face $-1 $109 $110 $59 $-1 $111 reversed single #
face $-1 $112 $113 $60 $-1 $114 forward single #
face $-1 $115 $116 $61 $-1 $117 forward single #
face $-1 $118 $119 $62 $-1 $120 reversed single #
face $-1 $121 $122 $63 $-1 $123 forward single #
face $-1 $124 $125 $64 $-1 $126 forward single #
face $-1 $127 $128 $65 $-1 $129 reversed single #
face $-1 $130 $131 $66 $-1 $132 forward single #
face $-1 $133 $134 $67 $-1 $135 forward single #
face $-1 $136 $137 $51 $-1 $138 reversed single #
loop $-1 $-1 $139 $68 #
plane-surface $-1 0 0 17.501356819199344 0 0 1 1 0 0 forward_v I I I I #
face $-1 $140 $141 $52 $-1 $142 reversed single #
loop $-1 $-1 $143 $69 #
plane-surface $-1 -53.94335480725865 0 3.2390301846628748 0 0 1 1 0 0 forward_v I I I I #
face $-1 $144 $145 $53 $-1 $146 reversed single #
loop $-1 $-1 $147 $70 #
plane-surface $-1 15.406552404350705 -127.24515929163576 102.95745505857475 1 0 0 0 0.70710678939079041 -0.70710677298230451 forward_v I I I I #
face $-1 $148 $149 $54 $-1 $150 forward single #
loop $-1 $151 $152 $71 #
cone-surface $-1 21.960873798237643 -36.196652055434804 15.401518906511575 0 0.70710678939079041 -0.70710677298230451 0.25 0 0 1 I I 0 1 0.25 forward I I I I #
face $-1 $153 $154 $55 $-1 $155 forward single #
loop $-1 $156 $157 $72 #
cone-surface $-1 31.792355889068048 -36.196652055434804 15.401518906511575 0 0.70710678939079041 -0.70710677298230451 0.25 0 0 1 I I 0 1 0.25 forward I I I I #
face $-1 $158 $159 $56 $-1 $160 reversed single #
loop $-1 $-1 $161 $73 #
plane-surface $-1 -34.150706496599817 37.431375584228348 155.19969003352944 1 0 0 0 -0.51503808176128008 -0.85716729658548041 forward_v I I I I #
face $-1 $162 $163 $57 $-1 $164 forward single #
loop $-1 $165 $166 $74 #
cone-surface $-1 -30.512824352541124 29.936231484233904 12.060691013918925 0 -0.51503808176128008 -0.85716729658548041 1 0 0 1 I I 0 1 1 forward I I I I #
face $-1 $167 $168 $58 $-1 $169 forward single #
loop $-1 $170 $171 $75 #
cone-surface $-1 -25.056001136453077 29.936231484233904 12.060691013918925 0 -0.51503808176128008 -0.85716729658548041 1 0 0 1 I I 0 1 1 forward I I I I #
face $-1 $172 $173 $59 $-1 $174 reversed single #
loop $-1 $-1 $175 $76 #
plane-surface $-1 -7.179029092970497 37.431375584228348 155.19969003352944 1 0 0 0 -0.51503808176128008 -0.85716729658548041 forward_v I I I I #
face $-1 $176 $177 $60 $-1 $178 forward single #
loop $-1 $179 $180 $77 #
cone-surface $-1 -3.5411469489118019 29.936231484233904 12.060691013918925 0 -0.51503808176128008 -0.85716729658548041 1 0 0 1 I I 0 1 1 forward I I I I #
face $-1 $181 $182 $61 $-1 $183 forward single #
loop $-1 $184 $185 $78 #
cone-surface $-1 1.9156762671762522 29.936231484233904 12.060691013918925 0 -0.51503808176128008 -0.85716729658548041 1 0 0 1 I I 0 1 1 forward I I I I #
face $-1 $186 $187 $62 $-1 $188 reversed single #
loop $-1 $-1 $189 $79 #
plane-surface $-1 19.792648310658834 37.431375584228348 155.19969003352944 1 0 0 0 -0.51503808176128008 -0.85716729658548041 forward_v I I I I #
face $-1 $190 $191 $63 $-1 $192 forward single #
loop $-1 $193 $194 $80 #
cone-surface $-1 23.430530454717513 29.936231484233904 12.060691013918925 0 -0.51503808176128008 -0.85716729658548041 1 0 0 1 I I 0 1 1 forward I I I I #
face $-1 $195 $196 $64 $-1 $197 forward single #
loop $-1 $198 $199 $81 #
cone-surface $-1 28.887353670805567 29.936231484233904 12.060691013918925 0 -0.51503808176128008 -0.85716729658548041 1 0 0 1 I I 0 1 1 forward I I I I #
face $-1 $200 $201 $65 $-1 $202 reversed single #
loop $-1 $-1 $203 $82 #
plane-surface $-1 46.764325714288148 37.431375584228348 155.19969003352944 1 0 0 0 -0.51503808176128008 -0.85716729658548041 forward_v I I I I #
face $-1 $204 $205 $66 $-1 $206 forward single #
loop $-1 $207 $208 $83 #
cone-surface $-1 50.402207858346827 29.936231484233904 12.060691013918925 0 -0.51503808176128008 -0.85716729658548041 1 0 0 1 I I 0 1 1 forward I I I I #
face $-1 $209 $210 $67 $-1 $211 forward single #
loop $-1 $212 $213 $84 #
cone-surface $-1 55.859031074434881 29.936231484233904 12.060691013918925 0 -0.51503808176128008 -0.85716729658548041 1 0 0 1 I I 0 1 1 forward I I I I #
face $-1 $214 $215 $51 $-1 $216 reversed single #
loop $-1 $-1 $217 $85 #
plane-surface $-1 0 0 -17.501356819199344 0 0 1 1 0 0 forward_v I I I I #
coedge $-1 $218 $219 $220 $221 forward $86 $-1 #
face $-1 $222 $223 $52 $-1 $224 reversed single #
loop $-1 $-1 $225 $88 #
plane-surface $-1 -53.94335480725865 0 -2.3660828477185394 0 0 1 1 0 0 forward_v I I I I #
coedge $-1 $226 $227 $228 $229 forward $89 $-1 #
face $-1 $230 $231 $53 $-1 $232 reversed single #
loop $-1 $-1 $233 $91 #
plane-surface $-1 26.876614843652845 -38.296489935804104 14.008787766806122 0 -0.70710678939079041 0.70710677298230451 1 0 0 forward_v I I I I #
coedge $-1 $234 $235 $236 $237 reversed $92 $-1 #
face $-1 $-1 $238 $54 $-1 $239 forward single #
loop $-1 $240 $241 $94 #
cone-surface $-1 21.960873798237643 -35.754710312065562 14.959577173397633 0 0.70710678939079041 -0.70710677298230451 0.125 0 0 1 I I -0.70710678118654746 0.70710678118654746 0.125 forward I I I I #
loop $-1 $-1 $242 $71 #
coedge $-1 $152 $152 $243 $244 reversed $95 $-1 #
face $-1 $-1 $245 $55 $-1 $246 forward single #
loop $-1 $247 $248 $97 #
cone-surface $-1 31.792355889068048 -35.754710312065562 14.959577173397633 0 0.70710678939079041 -0.70710677298230451 0.125 0 0 1 I I -0.70710678118654746 0.70710678118654746 0.125 forward I I I I #
loop $-1 $-1 $249 $72 #
coedge $-1 $157 $157 $250 $251 reversed $98 $-1 #
face $-1 $252 $253 $56 $-1 $254 reversed single #
loop $-1 $-1 $255 $100 #
plane-surface $-1 -27.784412744497097 -27.356507558168417 47.374547366886247 0 0.51503808176128008 0.85716729658548041 1 0 0 forward_v I I I I #
coedge $-1 $256 $257 $258 $259 reversed $101 $-1 #
face $-1 $-1 $260 $57 $-1 $261 forward single #
loop $-1 $262 $263 $103 #
cone-surface $-1 -30.512824352541124 29.286284138403374 10.978997001229036 0 -0.51503808176128008 -0.85716729658548041 0.5 0 0 1 I I -0.70710678118654746 0.70710678118654746 0.5 forward I I I I #
loop $-1 $-1 $264 $74 #
coedge $-1 $166 $166 $265 $266 reversed $104 $-1 #
face $-1 $-1 $267 $58 $-1 $268 forward single #
loop $-1 $269 $270 $106 #
cone-surface $-1 -25.056001136453077 29.286284138403374 10.978997001229036 0 -0.51503808176128008 -0.85716729658548041 0.5 0 0 1 I I -0.70710678118654746 0.70710678118654746 0.5 forward I I I I #
loop $-1 $-1 $271 $75 #
coedge $-1 $171 $171 $272 $273 reversed $107 $-1 #
face $-1 $274 $275 $59 $-1 $276 reversed single #
loop $-1 $-1 $277 $109 #
plane-surface $-1 -0.81273534086777488 -27.356507558168417 47.374547366886247 0 0.51503808176128008 0.85716729658548041 1 0 0 forward_v I I I I #
coedge $-1 $278 $279 $280 $281 reversed $110 $-1 #
face $-1 $-1 $282 $60 $-1 $283 forward single #
loop $-1 $284 $285 $112 #
cone-surface $-1 -3.5411469489118019 29.286284138403374 10.978997001229036 0 -0.51503808176128008 -0.85716729658548041 0.5 0 0 1 I I -0.70710678118654746 0.70710678118654746 0.5 forward I I I I #
loop $-1 $-1 $286 $77 #
coedge $-1 $180 $180 $287 $288 reversed $113 $-1 #
face $-1 $-1 $289 $61 $-1 $290 forward single #
loop $-1 $291 $292 $115 #
cone-surface $-1 1.9156762671762522 29.286284138403374 10.978997001229036 0 -0.51503808176128008 -0.85716729658548041 0.5 0 0 1 I I -0.70710678118654746 0.70710678118654746 0.5 forward I I I I #
loop $-1 $-1 $293 $78 #
coedge $-1 $185 $185 $294 $295 reversed $116 $-1 #
face $-1 $296 $297 $62 $-1 $298 reversed single #
loop $-1 $-1 $299 $118 #
plane-surface $-1 26.158942062761554 -27.356507558168417 47.374547366886247 0 0.51503808176128008 0.85716729658548041 1 0 0 forward_v I I I I #
coedge $-1 $300 $301 $302 $303 reversed $119 $-1 #
face $-1 $-1 $304 $63 $-1 $305 forward single #
loop $-1 $306 $307 $121 #
cone-surface $-1 23.430530454717513 29.286284138403374 10.978997001229036 0 -0.51503808176128008 -0.85716729658548041 0.5 0 0 1 I I -0.70710678118654746 0.70710678118654746 0.5 forward I I I I #
loop $-1 $-1 $308 $80 #
coedge $-1 $194 $194 $309 $310 reversed $122 $-1 #
face $-1 $-1 $311 $64 $-1 $312 forward single #
loop $-1 $313 $314 $124 #
cone-surface $-1 28.887353670805567 29.286284138403374 10.978997001229036 0 -0.51503808176128008 -0.85716729658548041 0.5 0 0 1 I I -0.70710678118654746 0.70710678118654746 0.5 forward I I I I #
loop $-1 $-1 $315 $81 #
coedge $-1 $199 $199 $316 $317 reversed $125 $-1 #
face $-1 $318 $319 $65 $-1 $320 reversed single #
loop $-1 $-1 $321 $127 #
plane-surface $-1 53.130619466390868 -27.356507558168417 47.374547366886247 0 0.51503808176128008 0.85716729658548041 1 0 0 forward_v I I I I #
coedge $-1 $322 $323 $324 $325 reversed $128 $-1 #
face $-1 $-1 $326 $66 $-1 $327 forward single #
loop $-1 $328 $329 $130 #
cone-surface $-1 50.402207858346827 29.286284138403374 10.978997001229036 0 -0.51503808176128008 -0.85716729658548041 0.5 0 0 1 I I -0.70710678118654746 0.70710678118654746 0.5 forward I I I I #
loop $-1 $-1 $330 $83 #
coedge $-1 $208 $208 $331 $332 reversed $131 $-1 #
face $-1 $-1 $333 $67 $-1 $334 forward single #
loop $-1 $335 $336 $133 #
cone-surface $-1 55.859031074434881 29.286284138403374 10.978997001229036 0 -0.51503808176128008 -0.85716729658548041 0.5 0 0 1 I I -0.70710678118654746 0.70710678118654746 0.5 forward I I I I #
loop $-1 $-1 $337 $84 #
coedge $-1 $213 $213 $338 $339 reversed $134 $-1 #
face $-1 $340 $341 $51 $-1 $342 reversed single #
loop $-1 $-1 $343 $136 #
plane-surface $-1 0 -38.296489935804104 0 0 1 0 0 0 1 forward_v I I I I #
coedge $-1 $344 $345 $346 $347 forward $137 $-1 #
coedge $-1 $348 $139 $349 $350 forward $86 $-1 #
coedge $-1 $139 $348 $351 $352 forward $86 $-1 #
coedge $-1 $353 $354 $139 $221 reversed $355 $-1 #
edge $-1 $356 -38.296489935804104 $357 38.296489935804104 $220 $358 forward 7 unknown #
face $-1 $359 $360 $52 $-1 $361 reversed single #
loop $-1 $-1 $362 $140 #
plane-surface $-1 -44.990503065245164 0 0.43647366847216773 -1 0 0 0 0 1 forward_v I I I I #
coedge $-1 $363 $364 $365 $366 forward $141 $-1 #
coedge $-1 $367 $143 $368 $369 reversed $89 $-1 #
coedge $-1 $143 $367 $370 $371 reversed $89 $-1 #
coedge $-1 $362 $372 $143 $229 reversed $223 $-1 #
edge $-1 $373 -38.296489935804104 $374 38.296489935804104 $228 $375 forward 7 unknown #
face $-1 $376 $377 $53 $-1 $378 forward single #
loop $-1 $-1 $379 $144 #
plane-surface $-1 38.346677282954985 -127.24515929163576 102.95745505857475 -1 0 0 0 -0.70710678939079041 0.70710677298230451 forward_v I I I I #
coedge $-1 $380 $381 $382 $383 reversed $145 $-1 #
coedge $-1 $235 $147 $384 $385 reversed $92 $-1 #
coedge $-1 $147 $234 $380 $386 reversed $92 $-1 #
coedge $-1 $382 $387 $147 $237 forward $388 $-1 #
edge $-1 $389 33.977370710088032 $390 37.469939762481253 $236 $391 forward 7 unknown #
loop $-1 $-1 $243 $148 #
plane-surface $-1 26.876614843652845 -38.296489935804104 14.008787766806122 0 -0.70710678939079041 0.70710677298230451 1 0 0 forward_v I I I I #
loop $-1 $-1 $392 $94 #
coedge $-1 $241 $241 $242 $393 reversed $149 $-1 #
coedge $-1 $242 $242 $241 $393 forward $151 $-1 #
coedge $-1 $243 $243 $152 $244 forward $238 $-1 #
edge $-1 $394 -4.6635721592133791e-022 $394 6.2831853071796004 $243 $395 forward 7 unknown #
loop $-1 $-1 $250 $153 #
plane-surface $-1 26.876614843652845 -38.296489935804104 14.008787766806122 0 -0.70710678939079041 0.70710677298230451 1 0 0 forward_v I I I I #
loop $-1 $-1 $396 $97 #
coedge $-1 $248 $248 $249 $397 reversed $154 $-1 #
coedge $-1 $249 $249 $248 $397 forward $156 $-1 #
coedge $-1 $250 $250 $157 $251 forward $245 $-1 #
edge $-1 $398 -4.6635721592133791e-022 $398 6.2831853071796004 $250 $399 forward 7 unknown #
face $-1 $400 $401 $56 $-1 $402 reversed single #
loop $-1 $-1 $403 $158 #
plane-surface $-1 -21.418118992394376 37.431375584228348 155.19969003352944 -1 0 0 0 0.51503808176128008 0.85716729658548041 forward_v I I I I #
coedge $-1 $404 $405 $406 $407 reversed $159 $-1 #
coedge $-1 $257 $161 $408 $409 reversed $101 $-1 #
coedge $-1 $161 $256 $404 $410 reversed $101 $-1 #
coedge $-1 $406 $411 $161 $259 forward $412 $-1 #
edge $-1 $413 -19.58080214368993 $414 -3.645141850449356 $258 $415 forward 7 unknown #
loop $-1 $-1 $265 $162 #
plane-surface $-1 -27.784412744497097 -27.356507558168417 47.374547366886247 0 0.51503808176128008 0.85716729658548041 1 0 0 forward_v I I I I #
loop $-1 $-1 $416 $103 #
coedge $-1 $263 $263 $264 $417 reversed $163 $-1 #
coedge $-1 $264 $264 $263 $417 forward $165 $-1 #
coedge $-1 $265 $265 $166 $266 forward $260 $-1 #
edge $-1 $418 1.3104252083306003e-017 $418 6.2831853071796004 $265 $419 forward 7 unknown #
loop $-1 $-1 $272 $167 #
plane-surface $-1 -27.784412744497097 -27.356507558168417 47.374547366886247 0 0.51503808176128008 0.85716729658548041 1 0 0 forward_v I I I I #
loop $-1 $-1 $420 $106 #
coedge $-1 $270 $270 $271 $421 reversed $168 $-1 #
coedge $-1 $271 $271 $270 $421 forward $170 $-1 #
coedge $-1 $272 $272 $171 $273 forward $267 $-1 #
edge $-1 $422 1.3104252083306003e-017 $422 6.2831853071796004 $272 $423 forward 7 unknown #
face $-1 $424 $425 $59 $-1 $426 forward single #
loop $-1 $-1 $427 $172 #
plane-surface $-1 5.5535584112349472 37.431375584228348 155.19969003352944 -1 0 0 0 0.51503808176128008 0.85716729658548041 forward_v I I I I #
coedge $-1 $428 $429 $430 $431 reversed $173 $-1 #
coedge $-1 $279 $175 $432 $433 reversed $110 $-1 #
coedge $-1 $175 $278 $428 $434 reversed $110 $-1 #
coedge $-1 $430 $435 $175 $281 forward $425 $-1 #
edge $-1 $436 -19.58080214368993 $437 -3.645141850449356 $280 $438 forward 7 unknown #
loop $-1 $-1 $287 $176 #
plane-surface $-1 -0.81273534086777488 -27.356507558168417 47.374547366886247 0 0.51503808176128008 0.85716729658548041 1 0 0 forward_v I I I I #
loop $-1 $-1 $439 $112 #
coedge $-1 $285 $285 $286 $440 reversed $177 $-1 #
coedge $-1 $286 $286 $285 $440 forward $179 $-1 #
coedge $-1 $287 $287 $180 $288 forward $282 $-1 #
edge $-1 $441 1.3104252083306003e-017 $441 6.2831853071796004 $287 $442 forward 7 unknown #
loop $-1 $-1 $294 $181 #
plane-surface $-1 -0.81273534086777488 -27.356507558168417 47.374547366886247 0 0.51503808176128008 0.85716729658548041 1 0 0 forward_v I I I I #
loop $-1 $-1 $443 $115 #
coedge $-1 $292 $292 $293 $444 reversed $182 $-1 #
coedge $-1 $293 $293 $292 $444 forward $184 $-1 #
coedge $-1 $294 $294 $185 $295 forward $289 $-1 #
edge $-1 $445 1.3104252083306003e-017 $445 6.2831853071796004 $294 $446 forward 7 unknown #
face $-1 $447 $448 $62 $-1 $449 forward single #
loop $-1 $-1 $450 $186 #
plane-surface $-1 32.525235814864274 37.431375584228348 155.19969003352944 -1 0 0 0 0.51503808176128008 0.85716729658548041 forward_v I I I I #
coedge $-1 $451 $452 $453 $454 reversed $187 $-1 #
coedge $-1 $301 $189 $455 $456 reversed $119 $-1 #
coedge $-1 $189 $300 $451 $457 reversed $119 $-1 #
coedge $-1 $453 $458 $189 $303 forward $448 $-1 #
edge $-1 $459 -19.58080214368993 $460 -3.645141850449356 $302 $461 forward 7 unknown #
loop $-1 $-1 $309 $190 #
plane-surface $-1 26.158942062761554 -27.356507558168417 47.374547366886247 0 0.51503808176128008 0.85716729658548041 1 0 0 forward_v I I I I #
loop $-1 $-1 $462 $121 #
coedge $-1 $307 $307 $308 $463 reversed $191 $-1 #
coedge $-1 $308 $308 $307 $463 forward $193 $-1 #
coedge $-1 $309 $309 $194 $310 forward $304 $-1 #
edge $-1 $464 1.3104252083306003e-017 $464 6.2831853071796004 $309 $465 forward 7 unknown #
loop $-1 $-1 $316 $195 #
plane-surface $-1 26.158942062761554 -27.356507558168417 47.374547366886247 0 0.51503808176128008 0.85716729658548041 1 0 0 forward_v I I I I #
loop $-1 $-1 $466 $124 #
coedge $-1 $314 $314 $315 $467 reversed $196 $-1 #
coedge $-1 $315 $315 $314 $467 forward $198 $-1 #
coedge $-1 $316 $316 $199 $317 forward $311 $-1 #
edge $-1 $468 1.3104252083306003e-017 $468 6.2831853071796004 $316 $469 forward 7 unknown #
face $-1 $470 $471 $65 $-1 $472 forward single #
loop $-1 $-1 $473 $200 #
plane-surface $-1 59.496913218493589 37.431375584228348 155.19969003352944 -1 0 0 0 0.51503808176128008 0.85716729658548041 forward_v I I I I #
coedge $-1 $474 $475 $476 $477 reversed $201 $-1 #
coedge $-1 $323 $203 $478 $479 reversed $128 $-1 #
coedge $-1 $203 $322 $474 $480 reversed $128 $-1 #
coedge $-1 $476 $481 $203 $325 forward $471 $-1 #
edge $-1 $482 -19.58080214368993 $483 -3.645141850449356 $324 $484 forward 7 unknown #
loop $-1 $-1 $331 $204 #
plane-surface $-1 53.130619466390868 -27.356507558168417 47.374547366886247 0 0.51503808176128008 0.85716729658548041 1 0 0 forward_v I I I I #
loop $-1 $-1 $485 $130 #
coedge $-1 $329 $329 $330 $486 reversed $205 $-1 #
coedge $-1 $330 $330 $329 $486 forward $207 $-1 #
coedge $-1 $331 $331 $208 $332 forward $326 $-1 #
edge $-1 $487 1.3104252083306003e-017 $487 6.2831853071796004 $331 $488 forward 7 unknown #
loop $-1 $-1 $338 $209 #
plane-surface $-1 53.130619466390868 -27.356507558168417 47.374547366886247 0 0.51503808176128008 0.85716729658548041 1 0 0 forward_v I I I I #
loop $-1 $-1 $489 $133 #
coedge $-1 $336 $336 $337 $490 reversed $210 $-1 #
coedge $-1 $337 $337 $336 $490 forward $212 $-1 #
coedge $-1 $338 $338 $213 $339 forward $333 $-1 #
edge $-1 $491 1.3104252083306003e-017 $491 6.2831853071796004 $338 $492 forward 7 unknown #
face $-1 $493 $494 $51 $-1 $495 reversed single #
loop $-1 $-1 $496 $214 #
plane-surface $-1 -62.896206549272136 0 0 1 0 0 0 0 -1 forward_v I I I I #
coedge $-1 $497 $351 $498 $499 forward $215 $-1 #
coedge $-1 $500 $217 $497 $501 forward $137 $-1 #
coedge $-1 $217 $500 $502 $503 forward $137 $-1 #
coedge $-1 $354 $353 $217 $347 reversed $355 $-1 #
edge $-1 $504 -38.296489935804104 $505 38.296489935804104 $346 $506 forward 7 unknown #
coedge $-1 $219 $218 $507 $508 forward $86 $-1 #
coedge $-1 $509 $510 $218 $350 reversed $494 $-1 #
edge $-1 $357 -62.896206549272136 $511 62.896206549272136 $349 $512 forward 7 unknown #
coedge $-1 $343 $513 $219 $352 reversed $215 $-1 #
edge $-1 $514 -62.896206549272136 $356 62.896206549272136 $351 $515 forward 7 unknown #
coedge $-1 $346 $220 $513 $516 forward $355 $-1 #
coedge $-1 $220 $346 $509 $517 reversed $355 $-1 #
loop $-1 $-1 $353 $493 #
vertex $-1 $221 $518 #
vertex $-1 $221 $519 #
straight-curve $-1 62.896206549272136 0 17.501356819199344 0 1 0 I I #
face $-1 $520 $521 $52 $-1 $522 reversed single #
loop $-1 $-1 $523 $222 #
plane-surface $-1 0 -38.296489935804104 0 0 1 0 0 0 1 forward_v I I I I #
coedge $-1 $365 $228 $524 $525 reversed $223 $-1 #
coedge $-1 $526 $225 $523 $527 reversed $141 $-1 #
coedge $-1 $225 $526 $528 $529 reversed $141 $-1 #
coedge $-1 $372 $362 $225 $366 reversed $223 $-1 #
edge $-1 $530 -38.296489935804104 $531 38.296489935804104 $365 $532 forward 7 unknown #
coedge $-1 $227 $226 $533 $534 reversed $89 $-1 #
coedge $-1 $535 $536 $226 $369 forward $537 $-1 #
edge $-1 $538 -35.924529145642808 $374 -18.018825661615839 $368 $539 forward 7 unknown #
coedge $-1 $540 $524 $227 $371 forward $360 $-1 #
edge $-1 $373 18.018825661615839 $541 35.924529145642808 $370 $542 forward 7 unknown #
coedge $-1 $228 $365 $535 $543 reversed $223 $-1 #
vertex $-1 $371 $544 #
vertex $-1 $369 $545 #
straight-curve $-1 -44.990503065245164 0 3.2390301846628748 0 1 0 I I #
face $-1 $-1 $388 $53 $-1 $546 reversed single #
loop $-1 $-1 $547 $230 #
plane-surface $-1 0 0 17.501356819199344 0 0 1 1 0 0 forward_v I I I I #
coedge $-1 $548 $549 $550 $551 reversed $231 $-1 #
coedge $-1 $552 $233 $235 $386 forward $145 $-1 #
coedge $-1 $233 $552 $548 $553 forward $145 $-1 #
coedge $-1 $550 $236 $233 $383 forward $388 $-1 #
edge $-1 $390 1.9682449825242827 $554 24.908369861128563 $382 $555 forward 7 unknown #
coedge $-1 $556 $557 $234 $385 forward $377 $-1 #
edge $-1 $558 -28.818658681361569 $389 -25.326089710013775 $384 $559 forward 7 unknown #
edge $-1 $390 0 $558 4.9392384641112725 $235 $560 forward 7 unknown #
coedge $-1 $236 $550 $556 $561 reversed $388 $-1 #
loop $-1 $-1 $550 $376 #
vertex $-1 $561 $562 #
vertex $-1 $237 $563 #
straight-curve $-1 15.406552404350705 -38.296489935804104 51.478727529287376 0 0 -1 I I #
coedge $-1 $392 $392 $-1 $564 reversed $240 $-1 #
edge $-1 $565 0 $565 6.2831853071796004 $241 $566 forward 7 unknown #
vertex $-1 $244 $567 #
ellipse-curve $-1 21.960873798237643 -36.550205450130207 15.755072293002733 0 -0.70710678939079041 0.70710677298230451 0.25 0 0 1 I I #
coedge $-1 $396 $396 $-1 $568 reversed $247 $-1 #
edge $-1 $569 0 $569 6.2831853071796004 $248 $570 forward 7 unknown #
vertex $-1 $251 $571 #
ellipse-curve $-1 31.792355889068048 -36.550205450130207 15.755072293002733 0 -0.70710678939079041 0.70710677298230451 0.25 0 0 1 I I #
face $-1 $-1 $412 $56 $-1 $572 forward single #
loop $-1 $-1 $573 $252 #
plane-surface $-1 0 38.296489935804104 0 0 -1 0 0 0 -1 forward_v I I I I #
coedge $-1 $574 $575 $576 $577 reversed $253 $-1 #
coedge $-1 $578 $255 $257 $410 forward $159 $-1 #
coedge $-1 $255 $578 $574 $579 forward $159 $-1 #
coedge $-1 $576 $258 $255 $407 forward $412 $-1 #
edge $-1 $414 -20.258500124351269 $580 -7.525912620145828 $406 $581 forward 7 unknown #
coedge $-1 $582 $583 $256 $409 forward $401 $-1 #
edge $-1 $584 -69.673599079331893 $413 -60.098488197565374 $408 $585 forward 7 unknown #
edge $-1 $414 58.001906277550006 $584 76.592979871608208 $257 $586 forward 7 unknown #
coedge $-1 $258 $576 $582 $587 forward $412 $-1 #
loop $-1 $-1 $576 $400 #
vertex $-1 $409 $588 #
vertex $-1 $259 $589 #
straight-curve $-1 -34.150706496599817 18.715687792114174 17.501356819199344 0 -1 0 I I #
coedge $-1 $416 $416 $-1 $590 reversed $262 $-1 #
edge $-1 $591 0 $591 6.2831853071796004 $263 $592 forward 7 unknown #
vertex $-1 $266 $593 #
ellipse-curve $-1 -30.512824352541124 30.328659789183803 12.713801378316091 0 0.51503808176128008 0.85716729658548041 1 0 0 1 I I #
coedge $-1 $420 $420 $-1 $594 reversed $269 $-1 #
edge $-1 $595 0 $595 6.2831853071796004 $270 $596 forward 7 unknown #
vertex $-1 $273 $597 #
ellipse-curve $-1 -25.056001136453077 30.328659789183803 12.713801378316091 0 0.51503808176128008 0.85716729658548041 1 0 0 1 I I #
face $-1 $-1 $598 $59 $-1 $599 reversed single #
loop $-1 $-1 $280 $274 #
plane-surface $-1 0 0 17.501356819199344 0 0 1 1 0 0 forward_v I I I I #
coedge $-1 $600 $601 $602 $603 reversed $275 $-1 #
coedge $-1 $604 $277 $279 $434 forward $173 $-1 #
coedge $-1 $277 $604 $600 $605 forward $173 $-1 #
coedge $-1 $602 $280 $277 $431 forward $425 $-1 #
edge $-1 $437 -6.7726614225366095 $606 5.9599260816688346 $430 $607 forward 7 unknown #
coedge $-1 $608 $609 $278 $433 forward $598 $-1 #
edge $-1 $610 -69.673599079331893 $436 -60.098488197565374 $432 $611 forward 7 unknown #
edge $-1 $437 58.001906277550006 $610 76.592979871608208 $279 $612 forward 7 unknown #
coedge $-1 $280 $602 $608 $613 forward $425 $-1 #
vertex $-1 $281 $614 #
vertex $-1 $281 $615 #
straight-curve $-1 -7.179029092970497 18.715687792114174 17.501356819199344 0 -1 0 I I #
coedge $-1 $439 $439 $-1 $616 reversed $284 $-1 #
edge $-1 $617 0 $617 6.2831853071796004 $285 $618 forward 7 unknown #
vertex $-1 $288 $619 #
ellipse-curve $-1 -3.5411469489118019 30.328659789183803 12.713801378316091 0 0.51503808176128008 0.85716729658548041 1 0 0 1 I I #
coedge $-1 $443 $443 $-1 $620 reversed $291 $-1 #
edge $-1 $621 0 $621 6.2831853071796004 $292 $622 forward 7 unknown #
vertex $-1 $295 $623 #
ellipse-curve $-1 1.9156762671762522 30.328659789183803 12.713801378316091 0 0.51503808176128008 0.85716729658548041 1 0 0 1 I I #
face $-1 $-1 $624 $62 $-1 $625 reversed single #
loop $-1 $-1 $302 $296 #
plane-surface $-1 0 0 17.501356819199344 0 0 1 1 0 0 forward_v I I I I #
coedge $-1 $626 $627 $628 $629 reversed $297 $-1 #
coedge $-1 $630 $299 $301 $457 forward $187 $-1 #
coedge $-1 $299 $630 $626 $631 forward $187 $-1 #
coedge $-1 $628 $302 $299 $454 forward $448 $-1 #
edge $-1 $460 6.7131772792780566 $632 19.445764783483497 $453 $633 forward 7 unknown #
coedge $-1 $634 $635 $300 $456 forward $624 $-1 #
edge $-1 $636 -69.673599079331893 $459 -60.098488197565374 $455 $637 forward 7 unknown #
edge $-1 $460 58.001906277550006 $636 76.592979871608208 $301 $638 forward 7 unknown #
coedge $-1 $302 $628 $634 $639 forward $448 $-1 #
vertex $-1 $303 $640 #
vertex $-1 $303 $641 #
straight-curve $-1 19.792648310658834 18.715687792114174 17.501356819199344 0 -1 0 I I #
coedge $-1 $462 $462 $-1 $642 reversed $306 $-1 #
edge $-1 $643 0 $643 6.2831853071796004 $307 $644 forward 7 unknown #
vertex $-1 $310 $645 #
ellipse-curve $-1 23.430530454717513 30.328659789183803 12.713801378316091 0 0.51503808176128008 0.85716729658548041 1 0 0 1 I I #
coedge $-1 $466 $466 $-1 $646 reversed $313 $-1 #
edge $-1 $647 0 $647 6.2831853071796004 $314 $648 forward 7 unknown #
vertex $-1 $317 $649 #
ellipse-curve $-1 28.887353670805567 30.328659789183803 12.713801378316091 0 0.51503808176128008 0.85716729658548041 1 0 0 1 I I #
face $-1 $-1 $650 $65 $-1 $651 reversed single #
loop $-1 $-1 $324 $318 #
plane-surface $-1 0 0 17.501356819199344 0 0 1 1 0 0 forward_v I I I I #
coedge $-1 $652 $653 $654 $655 reversed $319 $-1 #
coedge $-1 $656 $321 $323 $480 forward $201 $-1 #
coedge $-1 $321 $656 $652 $657 forward $201 $-1 #
coedge $-1 $654 $324 $321 $477 forward $471 $-1 #
edge $-1 $483 20.199015981092714 $658 32.931603485298155 $476 $659 forward 7 unknown #
coedge $-1 $660 $661 $322 $479 forward $650 $-1 #
edge $-1 $662 -69.673599079331893 $482 -60.098488197565374 $478 $663 forward 7 unknown #
edge $-1 $483 58.001906277550006 $662 76.592979871608208 $323 $664 forward 7 unknown #
coedge $-1 $324 $654 $660 $665 forward $471 $-1 #
vertex $-1 $325 $666 #
vertex $-1 $325 $667 #
straight-curve $-1 46.764325714288148 18.715687792114174 17.501356819199344 0 -1 0 I I #
coedge $-1 $485 $485 $-1 $668 reversed $328 $-1 #
edge $-1 $669 0 $669 6.2831853071796004 $329 $670 forward 7 unknown #
vertex $-1 $332 $671 #
ellipse-curve $-1 50.402207858346827 30.328659789183803 12.713801378316091 0 0.51503808176128008 0.85716729658548041 1 0 0 1 I I #
coedge $-1 $489 $489 $-1 $672 reversed $335 $-1 #
edge $-1 $673 0 $673 6.2831853071796004 $336 $674 forward 7 unknown #
vertex $-1 $339 $675 #
ellipse-curve $-1 55.859031074434881 30.328659789183803 12.713801378316091 0 0.51503808176128008 0.85716729658548041 1 0 0 1 I I #
face $-1 $-1 $355 $51 $-1 $676 reversed single #
loop $-1 $-1 $509 $340 #
plane-surface $-1 0 38.296489935804104 0 0 -1 0 0 0 -1 forward_v I I I I #
coedge $-1 $677 $507 $510 $678 forward $341 $-1 #
coedge $-1 $513 $343 $344 $501 reversed $215 $-1 #
coedge $-1 $507 $677 $343 $499 reversed $341 $-1 #
edge $-1 $514 -17.501356819199344 $679 17.501356819199344 $498 $680 forward 7 unknown #
coedge $-1 $345 $344 $677 $681 forward $137 $-1 #
edge $-1 $505 -62.896206549272136 $679 62.896206549272136 $497 $682 forward 7 unknown #
coedge $-1 $510 $509 $345 $503 reversed $494 $-1 #
edge $-1 $683 -62.896206549272136 $504 62.896206549272136 $502 $684 forward 7 unknown #
vertex $-1 $347 $685 #
vertex $-1 $516 $686 #
straight-curve $-1 62.896206549272136 0 -17.501356819199344 0 -1 0 I I #
coedge $-1 $496 $498 $348 $508 reversed $341 $-1 #
edge $-1 $511 -38.296489935804104 $514 38.296489935804104 $507 $687 forward 7 unknown #
coedge $-1 $502 $349 $354 $517 forward $494 $-1 #
coedge $-1 $349 $502 $496 $678 reversed $494 $-1 #
vertex $-1 $350 $688 #
straight-curve $-1 0 38.296489935804104 17.501356819199344 -1 0 0 I I #
coedge $-1 $351 $497 $353 $516 reversed $215 $-1 #
vertex $-1 $508 $689 #
straight-curve $-1 0 -38.296489935804104 17.501356819199344 1 0 0 I I #
edge $-1 $356 -17.501356819199344 $505 17.501356819199344 $353 $690 forward 7 unknown #
edge $-1 $357 -17.501356819199344 $504 17.501356819199344 $354 $691 forward 7 unknown #
point $-1 62.896206549272136 -38.296489935804104 17.501356819199344 #
point $-1 62.896206549272136 38.296489935804104 17.501356819199344 #
face $-1 $-1 $537 $52 $-1 $692 reversed single #
loop $-1 $-1 $693 $359 #
plane-surface $-1 -62.896206549272136 0 0 1 0 0 0 0 -1 forward_v I I I I #
coedge $-1 $524 $540 $363 $527 forward $360 $-1 #
coedge $-1 $370 $523 $362 $525 forward $360 $-1 #
edge $-1 $531 -2.5843196819546232 $373 3.020793350426791 $524 $694 forward 7 unknown #
coedge $-1 $364 $363 $693 $695 reversed $141 $-1 #
edge $-1 $696 -35.924529145642808 $531 -18.018825661615839 $523 $697 forward 7 unknown #
coedge $-1 $536 $535 $364 $529 forward $537 $-1 #
edge $-1 $530 18.018825661615839 $698 35.924529145642808 $528 $699 forward 7 unknown #
vertex $-1 $529 $700 #
vertex $-1 $527 $701 #
straight-curve $-1 -44.990503065245164 0 -2.3660828477185394 0 -1 0 I I #
coedge $-1 $702 $703 $367 $534 forward $521 $-1 #
edge $-1 $541 -38.296489935804104 $538 38.296489935804104 $533 $704 forward 7 unknown #
coedge $-1 $528 $368 $372 $543 forward $537 $-1 #
coedge $-1 $368 $528 $702 $705 reversed $537 $-1 #
loop $-1 $-1 $528 $520 #
vertex $-1 $705 $706 #
straight-curve $-1 -26.971677403629325 38.296489935804104 3.2390301846628748 1 0 0 I I #
coedge $-1 $523 $370 $703 $707 forward $360 $-1 #
vertex $-1 $707 $708 #
straight-curve $-1 -26.971677403629325 -38.296489935804104 3.2390301846628748 -1 0 0 I I #
edge $-1 $374 -3.020793350426791 $530 2.5843196819546232 $535 $709 forward 7 unknown #
point $-1 -44.990503065245164 -38.296489935804104 3.2390301846628748 #
point $-1 -44.990503065245164 38.296489935804104 3.2390301846628748 #
plane-surface $-1 0 -38.296489935804104 0 0 1 0 0 0 1 forward_v I I I I #
coedge $-1 $557 $556 $549 $710 forward $377 $-1 #
coedge $-1 $549 $379 $381 $553 reversed $231 $-1 #
coedge $-1 $379 $548 $547 $710 reversed $231 $-1 #
coedge $-1 $387 $382 $379 $551 forward $388 $-1 #
edge $-1 $554 -37.469939762481253 $711 -33.977370710088032 $550 $712 forward 7 unknown #
coedge $-1 $381 $380 $557 $713 reversed $145 $-1 #
edge $-1 $714 -4.9392384641112725 $554 0 $548 $715 forward 7 unknown #
vertex $-1 $383 $716 #
straight-curve $-1 13.438307421826423 -38.296489935804104 14.008787766806119 1 0 0 I I #
coedge $-1 $547 $384 $387 $561 forward $377 $-1 #
coedge $-1 $384 $547 $552 $713 forward $377 $-1 #
vertex $-1 $385 $717 #
straight-curve $-1 15.406552404350705 -63.622579645817879 17.501356819199344 0 -1 0 I I #
straight-curve $-1 15.406552404350705 -38.296489935804104 14.008787766806122 0 0.70710677298230451 0.70710678939079041 I I #
edge $-1 $389 15.406552404350705 $711 38.346677282954985 $387 $718 forward 7 unknown #
point $-1 15.406552404350705 -38.296489935804104 17.501356819199344 #
point $-1 15.406552404350705 -38.296489935804104 14.008787766806122 #
edge $-1 $719 1 $719 0 $392 $-1 forward 7 unknown #
vertex $-1 $393 $720 #
ellipse-curve $-1 21.960873798237643 -35.843098660739408 15.047965520020421 0 -0.70710678939079041 0.70710677298230451 0.25 0 0 1 I I #
point $-1 22.210873798237643 -36.5502054501302 15.755072293002726 #
edge $-1 $721 1 $721 0 $396 $-1 forward 7 unknown #
vertex $-1 $397 $722 #
ellipse-curve $-1 31.792355889068048 -35.843098660739408 15.047965520020421 0 -0.70710678939079041 0.70710677298230451 0.25 0 0 1 I I #
point $-1 32.042355889068048 -36.5502054501302 15.755072293002726 #
plane-surface $-1 0 0 17.501356819199344 0 0 1 1 0 0 forward_v I I I I #
coedge $-1 $583 $582 $575 $723 forward $401 $-1 #
coedge $-1 $575 $403 $405 $579 reversed $253 $-1 #
coedge $-1 $403 $574 $573 $723 reversed $253 $-1 #
coedge $-1 $411 $406 $403 $577 forward $412 $-1 #
edge $-1 $580 3.645141850449356 $724 19.58080214368993 $576 $725 forward 7 unknown #
coedge $-1 $405 $404 $583 $726 reversed $159 $-1 #
edge $-1 $727 -76.592979871608208 $580 -58.001906277550006 $574 $728 forward 7 unknown #
vertex $-1 $407 $729 #
straight-curve $-1 -13.892206372248548 22.36082964256353 17.501356819199344 1 0 0 I I #
coedge $-1 $573 $408 $411 $587 reversed $401 $-1 #
coedge $-1 $408 $573 $578 $726 forward $401 $-1 #
vertex $-1 $409 $730 #
straight-curve $-1 -34.150706496599817 38.296489935804104 77.599845016764718 0 0 1 I I #
straight-curve $-1 -34.150706496599817 -27.356507558168417 47.374547366886247 0 0.85716729658548041 -0.51503808176128008 I I #
edge $-1 $724 21.418118992394376 $413 34.150706496599817 $582 $731 forward 7 unknown #
point $-1 -34.150706496599817 38.296489935804104 17.501356819199344 #
point $-1 -34.150706496599817 22.36082964256353 17.501356819199344 #
edge $-1 $732 1 $732 0 $416 $-1 forward 7 unknown #
vertex $-1 $417 $733 #
ellipse-curve $-1 -30.512824352541124 29.543803179284016 11.407580649521776 0 0.51503808176128008 0.85716729658548041 1 0 0 1 I I #
point $-1 -29.512824352541124 30.328659789183792 12.713801378316074 #
edge $-1 $734 1 $734 0 $420 $-1 forward 7 unknown #
vertex $-1 $421 $735 #
ellipse-curve $-1 -25.056001136453077 29.543803179284016 11.407580649521776 0 0.51503808176128008 0.85716729658548041 1 0 0 1 I I #
point $-1 -24.056001136453077 30.328659789183792 12.713801378316074 #
loop $-1 $-1 $432 $424 #
plane-surface $-1 0 38.296489935804104 0 0 -1 0 0 0 -1 forward_v I I I I #
coedge $-1 $601 $427 $429 $605 reversed $275 $-1 #
coedge $-1 $427 $600 $736 $737 reversed $275 $-1 #
coedge $-1 $435 $430 $427 $603 forward $425 $-1 #
edge $-1 $606 3.645141850449356 $738 19.58080214368993 $602 $739 forward 7 unknown #
coedge $-1 $429 $428 $609 $740 reversed $173 $-1 #
edge $-1 $741 -76.592979871608208 $606 -58.001906277550006 $600 $742 forward 7 unknown #
vertex $-1 $431 $743 #
straight-curve $-1 -0.40636767043388744 22.36082964256353 17.501356819199344 1 0 0 I I #
coedge $-1 $736 $432 $435 $613 reversed $598 $-1 #
coedge $-1 $432 $736 $604 $740 forward $598 $-1 #
vertex $-1 $433 $744 #
straight-curve $-1 -7.179029092970497 38.296489935804104 77.599845016764718 0 0 1 I I #
straight-curve $-1 -7.179029092970497 -27.356507558168417 47.374547366886247 0 0.85716729658548041 -0.51503808176128008 I I #
edge $-1 $738 -5.5535584112349472 $436 7.179029092970497 $608 $745 forward 7 unknown #
point $-1 -7.179029092970497 38.296489935804104 17.501356819199344 #
point $-1 -7.179029092970497 22.36082964256353 17.501356819199344 #
edge $-1 $746 1 $746 0 $439 $-1 forward 7 unknown #
vertex $-1 $440 $747 #
ellipse-curve $-1 -3.5411469489118019 29.543803179284016 11.407580649521776 0 0.51503808176128008 0.85716729658548041 1 0 0 1 I I #
point $-1 -2.5411469489118019 30.328659789183792 12.713801378316074 #
edge $-1 $748 1 $748 0 $443 $-1 forward 7 unknown #
vertex $-1 $444 $749 #
ellipse-curve $-1 1.9156762671762522 29.543803179284016 11.407580649521776 0 0.51503808176128008 0.85716729658548041 1 0 0 1 I I #
point $-1 2.9156762671762522 30.328659789183792 12.713801378316074 #
loop $-1 $-1 $455 $447 #
plane-surface $-1 0 38.296489935804104 0 0 -1 0 0 0 -1 forward_v I I I I #
coedge $-1 $627 $450 $452 $631 reversed $297 $-1 #
coedge $-1 $450 $626 $750 $751 reversed $297 $-1 #
coedge $-1 $458 $453 $450 $629 forward $448 $-1 #
edge $-1 $632 3.645141850449356 $752 19.58080214368993 $628 $753 forward 7 unknown #
coedge $-1 $452 $451 $635 $754 reversed $187 $-1 #
edge $-1 $755 -76.592979871608208 $632 -58.001906277550006 $626 $756 forward 7 unknown #
vertex $-1 $454 $757 #
straight-curve $-1 13.079471031380777 22.36082964256353 17.501356819199344 1 0 0 I I #
coedge $-1 $750 $455 $458 $639 reversed $624 $-1 #
coedge $-1 $455 $750 $630 $754 forward $624 $-1 #
vertex $-1 $456 $758 #
straight-curve $-1 19.792648310658834 38.296489935804104 77.599845016764718 0 0 1 I I #
straight-curve $-1 19.792648310658834 -27.356507558168417 47.374547366886247 0 0.85716729658548041 -0.51503808176128008 I I #
edge $-1 $752 -32.525235814864274 $459 -19.792648310658834 $634 $759 forward 7 unknown #
point $-1 19.792648310658834 38.296489935804104 17.501356819199344 #
point $-1 19.792648310658834 22.36082964256353 17.501356819199344 #
edge $-1 $760 1 $760 0 $462 $-1 forward 7 unknown #
vertex $-1 $463 $761 #
ellipse-curve $-1 23.430530454717513 29.543803179284016 11.407580649521776 0 0.51503808176128008 0.85716729658548041 1 0 0 1 I I #
point $-1 24.430530454717513 30.328659789183792 12.713801378316074 #
edge $-1 $762 1 $762 0 $466 $-1 forward 7 unknown #
vertex $-1 $467 $763 #
ellipse-curve $-1 28.887353670805567 29.543803179284016 11.407580649521776 0 0.51503808176128008 0.85716729658548041 1 0 0 1 I I #
point $-1 29.887353670805567 30.328659789183792 12.713801378316074 #
loop $-1 $-1 $478 $470 #
plane-surface $-1 0 38.296489935804104 0 0 -1 0 0 0 -1 forward_v I I I I #
coedge $-1 $653 $473 $475 $657 reversed $319 $-1 #
coedge $-1 $473 $652 $764 $765 reversed $319 $-1 #
coedge $-1 $481 $476 $473 $655 forward $471 $-1 #
edge $-1 $658 3.645141850449356 $766 19.58080214368993 $654 $767 forward 7 unknown #
coedge $-1 $475 $474 $661 $768 reversed $201 $-1 #
edge $-1 $769 -76.592979871608208 $658 -58.001906277550006 $652 $770 forward 7 unknown #
vertex $-1 $477 $771 #
straight-curve $-1 26.565309733195434 22.36082964256353 17.501356819199344 1 0 0 I I #
coedge $-1 $764 $478 $481 $665 reversed $650 $-1 #
coedge $-1 $478 $764 $656 $768 forward $650 $-1 #
vertex $-1 $479 $772 #
straight-curve $-1 46.764325714288148 38.296489935804104 77.599845016764718 0 0 1 I I #
straight-curve $-1 46.764325714288148 -27.356507558168417 47.374547366886247 0 0.85716729658548041 -0.51503808176128008 I I #
edge $-1 $766 -59.496913218493589 $482 -46.764325714288148 $660 $773 forward 7 unknown #
point $-1 46.764325714288148 38.296489935804104 17.501356819199344 #
point $-1 46.764325714288148 22.36082964256353 17.501356819199344 #
edge $-1 $774 1 $774 0 $485 $-1 forward 7 unknown #
vertex $-1 $486 $775 #
ellipse-curve $-1 50.402207858346827 29.543803179284016 11.407580649521776 0 0.51503808176128008 0.85716729658548041 1 0 0 1 I I #
point $-1 51.402207858346827 30.328659789183792 12.713801378316074 #
edge $-1 $776 1 $776 0 $489 $-1 forward 7 unknown #
vertex $-1 $490 $777 #
ellipse-curve $-1 55.859031074434881 29.543803179284016 11.407580649521776 0 0.51503808176128008 0.85716729658548041 1 0 0 1 I I #
point $-1 56.859031074434881 30.328659789183792 12.713801378316074 #
plane-surface $-1 62.896206549272136 0 0 -1 0 0 0 0 1 forward_v I I I I #
coedge $-1 $498 $496 $500 $681 reversed $341 $-1 #
edge $-1 $511 -17.501356819199344 $683 17.501356819199344 $510 $778 forward 7 unknown #
vertex $-1 $681 $779 #
straight-curve $-1 -62.896206549272136 -38.296489935804104 0 0 0 -1 I I #
edge $-1 $679 -38.296489935804104 $683 38.296489935804104 $677 $780 forward 7 unknown #
straight-curve $-1 0 -38.296489935804104 -17.501356819199344 -1 0 0 I I #
vertex $-1 $503 $781 #
straight-curve $-1 0 38.296489935804104 -17.501356819199344 1 0 0 I I #
point $-1 62.896206549272136 38.296489935804104 -17.501356819199344 #
point $-1 62.896206549272136 -38.296489935804104 -17.501356819199344 #
straight-curve $-1 -62.896206549272136 0 17.501356819199344 0 -1 0 I I #
point $-1 -62.896206549272136 38.296489935804104 17.501356819199344 #
point $-1 -62.896206549272136 -38.296489935804104 17.501356819199344 #
straight-curve $-1 62.896206549272136 -38.296489935804104 0 0 0 -1 I I #
straight-curve $-1 62.896206549272136 38.296489935804104 0 0 0 -1 I I #
plane-surface $-1 0 38.296489935804104 0 0 -1 0 0 0 -1 forward_v I I I I #
coedge $-1 $703 $702 $526 $695 forward $521 $-1 #
straight-curve $-1 -44.990503065245164 -38.296489935804104 0.21823683423608387 0 0 1 I I #
edge $-1 $698 -38.296489935804104 $696 38.296489935804104 $693 $782 forward 7 unknown #
vertex $-1 $527 $783 #
straight-curve $-1 -26.971677403629325 -38.296489935804104 -2.3660828477185394 1 0 0 I I #
vertex $-1 $529 $784 #
straight-curve $-1 -26.971677403629325 38.296489935804104 -2.3660828477185394 -1 0 0 I I #
point $-1 -44.990503065245164 38.296489935804104 -2.3660828477185394 #
point $-1 -44.990503065245164 -38.296489935804104 -2.3660828477185394 #
coedge $-1 $693 $533 $536 $705 forward $521 $-1 #
coedge $-1 $533 $693 $540 $707 reversed $521 $-1 #
straight-curve $-1 -62.896206549272136 0 3.2390301846628748 0 1 0 I I #
edge $-1 $538 -3.2390301846628748 $698 2.3660828477185394 $536 $785 forward 7 unknown #
point $-1 -62.896206549272136 38.296489935804104 3.2390301846628748 #
edge $-1 $541 -3.2390301846628748 $696 2.3660828477185394 $703 $786 forward 7 unknown #
point $-1 -62.896206549272136 -38.296489935804104 3.2390301846628748 #
straight-curve $-1 -44.990503065245164 38.296489935804104 0.21823683423608387 0 0 -1 I I #
edge $-1 $711 25.326089710013775 $714 28.818658681361569 $547 $787 forward 7 unknown #
vertex $-1 $710 $788 #
straight-curve $-1 38.346677282954985 -38.296489935804104 51.478727529287376 0 0 1 I I #
edge $-1 $714 -24.908369861128563 $558 -1.9682449825242827 $557 $789 forward 7 unknown #
vertex $-1 $713 $790 #
straight-curve $-1 38.346677282954985 -38.296489935804104 14.008787766806122 0 -0.70710677298230451 -0.70710678939079041 I I #
point $-1 38.346677282954985 -38.296489935804104 14.008787766806122 #
point $-1 15.406552404350705 -34.80392096445631 17.501356819199344 #
straight-curve $-1 0 -38.296489935804104 17.501356819199344 1 0 0 I I #
vertex $-1 $564 $791 #
point $-1 22.210873798237643 -35.843098660739408 15.047965520020421 #
vertex $-1 $568 $792 #
point $-1 32.042355889068048 -35.843098660739408 15.047965520020421 #
edge $-1 $724 60.098488197565374 $727 69.673599079331893 $573 $793 forward 7 unknown #
vertex $-1 $587 $794 #
straight-curve $-1 -21.418118992394376 18.715687792114174 17.501356819199344 0 1 0 I I #
edge $-1 $727 7.525912620145828 $584 20.258500124351269 $583 $795 forward 7 unknown #
vertex $-1 $726 $796 #
straight-curve $-1 -21.418118992394376 -27.356507558168417 47.374547366886247 0 -0.85716729658548041 0.51503808176128008 I I #
point $-1 -21.418118992394376 22.36082964256353 17.501356819199344 #
point $-1 -34.150706496599817 38.296489935804104 7.9262459374328174 #
straight-curve $-1 0 38.296489935804104 17.501356819199344 -1 0 0 I I #
vertex $-1 $590 $797 #
point $-1 -29.512824352541124 29.543803179284016 11.407580649521776 #
vertex $-1 $594 $798 #
point $-1 -24.056001136453077 29.543803179284016 11.407580649521776 #
coedge $-1 $609 $608 $601 $737 forward $598 $-1 #
edge $-1 $738 60.098488197565374 $741 69.673599079331893 $736 $799 forward 7 unknown #
vertex $-1 $613 $800 #
straight-curve $-1 5.5535584112349472 18.715687792114174 17.501356819199344 0 1 0 I I #
edge $-1 $741 -5.9599260816688346 $610 6.7726614225366095 $609 $801 forward 7 unknown #
vertex $-1 $740 $802 #
straight-curve $-1 5.5535584112349472 -27.356507558168417 47.374547366886247 0 -0.85716729658548041 0.51503808176128008 I I #
point $-1 5.5535584112349472 22.36082964256353 17.501356819199344 #
point $-1 -7.179029092970497 38.296489935804104 7.9262459374328174 #
straight-curve $-1 0 38.296489935804104 17.501356819199344 -1 0 0 I I #
vertex $-1 $616 $803 #
point $-1 -2.5411469489118019 29.543803179284016 11.407580649521776 #
vertex $-1 $620 $804 #
point $-1 2.9156762671762522 29.543803179284016 11.407580649521776 #
coedge $-1 $635 $634 $627 $751 forward $624 $-1 #
edge $-1 $752 60.098488197565374 $755 69.673599079331893 $750 $805 forward 7 unknown #
vertex $-1 $639 $806 #
straight-curve $-1 32.525235814864274 18.715687792114174 17.501356819199344 0 1 0 I I #
edge $-1 $755 -19.445764783483497 $636 -6.7131772792780566 $635 $807 forward 7 unknown #
vertex $-1 $754 $808 #
straight-curve $-1 32.525235814864274 -27.356507558168417 47.374547366886247 0 -0.85716729658548041 0.51503808176128008 I I #
point $-1 32.525235814864274 22.36082964256353 17.501356819199344 #
point $-1 19.792648310658834 38.296489935804104 7.9262459374328174 #
straight-curve $-1 0 38.296489935804104 17.501356819199344 -1 0 0 I I #
vertex $-1 $642 $809 #
point $-1 24.430530454717513 29.543803179284016 11.407580649521776 #
vertex $-1 $646 $810 #
point $-1 29.887353670805567 29.543803179284016 11.407580649521776 #
coedge $-1 $661 $660 $653 $765 forward $650 $-1 #
edge $-1 $766 60.098488197565374 $769 69.673599079331893 $764 $811 forward 7 unknown #
vertex $-1 $665 $812 #
straight-curve $-1 59.496913218493589 18.715687792114174 17.501356819199344 0 1 0 I I #
edge $-1 $769 -32.931603485298155 $662 -20.199015981092714 $661 $813 forward 7 unknown #
vertex $-1 $768 $814 #
straight-curve $-1 59.496913218493589 -27.356507558168417 47.374547366886247 0 -0.85716729658548041 0.51503808176128008 I I #
point $-1 59.496913218493589 22.36082964256353 17.501356819199344 #
point $-1 46.764325714288148 38.296489935804104 7.9262459374328174 #
straight-curve $-1 0 38.296489935804104 17.501356819199344 -1 0 0 I I #
vertex $-1 $668 $815 #
point $-1 51.402207858346827 29.543803179284016 11.407580649521776 #
vertex $-1 $672 $816 #
point $-1 56.859031074434881 29.543803179284016 11.407580649521776 #
straight-curve $-1 -62.896206549272136 38.296489935804104 0 0 0 -1 I I #
point $-1 -62.896206549272136 -38.296489935804104 -17.501356819199344 #
straight-curve $-1 -62.896206549272136 0 -17.501356819199344 0 1 0 I I #
point $-1 -62.896206549272136 38.296489935804104 -17.501356819199344 #
straight-curve $-1 -62.896206549272136 0 -2.3660828477185394 0 -1 0 I I #
point $-1 -62.896206549272136 -38.296489935804104 -2.3660828477185394 #
point $-1 -62.896206549272136 38.296489935804104 -2.3660828477185394 #
straight-curve $-1 -62.896206549272136 38.296489935804104 0 0 0 -1 I I #
straight-curve $-1 -62.896206549272136 -38.296489935804104 0 0 0 -1 I I #
straight-curve $-1 38.346677282954985 -63.622579645817879 17.501356819199344 0 1 0 I I #
point $-1 38.346677282954985 -38.296489935804104 17.501356819199344 #
straight-curve $-1 13.438307421826423 -34.80392096445631 17.501356819199344 -1 0 0 I I #
point $-1 38.346677282954985 -34.80392096445631 17.501356819199344 #
point $-1 21.960873798237643 -35.666321963391717 14.871188826774846 #
point $-1 31.792355889068048 -35.666321963391717 14.871188826774846 #
straight-curve $-1 -21.418118992394376 38.296489935804104 77.599845016764718 0 0 -1 I I #
point $-1 -21.418118992394376 38.296489935804104 17.501356819199344 #
straight-curve $-1 -13.892206372248548 38.296489935804104 7.926245937432828 -1 0 0 I I #
point $-1 -21.418118992394376 38.296489935804104 7.9262459374328174 #
point $-1 -30.512824352541124 29.028765097522733 10.550413352936296 #
point $-1 -25.056001136453077 29.028765097522733 10.550413352936296 #
straight-curve $-1 5.5535584112349472 38.296489935804104 77.599845016764718 0 0 -1 I I #
point $-1 5.5535584112349472 38.296489935804104 17.501356819199344 #
straight-curve $-1 -0.40636767043388744 38.296489935804104 7.926245937432828 -1 0 0 I I #
point $-1 5.5535584112349472 38.296489935804104 7.9262459374328174 #
point $-1 -3.5411469489118019 29.028765097522733 10.550413352936296 #
point $-1 1.9156762671762522 29.028765097522733 10.550413352936296 #
straight-curve $-1 32.525235814864274 38.296489935804104 77.599845016764718 0 0 -1 I I #
point $-1 32.525235814864274 38.296489935804104 17.501356819199344 #
straight-curve $-1 13.079471031380777 38.296489935804104 7.926245937432828 -1 0 0 I I #
point $-1 32.525235814864274 38.296489935804104 7.9262459374328174 #
point $-1 23.430530454717513 29.028765097522733 10.550413352936296 #
point $-1 28.887353670805567 29.028765097522733 10.550413352936296 #
straight-curve $-1 59.496913218493589 38.296489935804104 77.599845016764718 0 0 -1 I I #
point $-1 59.496913218493589 38.296489935804104 17.501356819199344 #
straight-curve $-1 26.565309733195434 38.296489935804104 7.926245937432828 -1 0 0 I I #
point $-1 59.496913218493589 38.296489935804104 7.9262459374328174 #
point $-1 50.402207858346827 29.028765097522733 10.550413352936296 #
point $-1 55.859031074434881 29.028765097522733 10.550413352936296 #
End-of-ACIS-data 