500 0 9 0           
7 Unknown 11 ACIS 5.0 NT 24 Fri Mar 26 03:31:57 1999 
-1 9.9999999999999995e-007 1e-010 
body $-1 $9 $-1 $10 #
body $-1 $11 $-1 $12 #
body $-1 $13 $-1 $14 #
body $-1 $15 $-1 $16 #
body $-1 $17 $-1 $18 #
body $-1 $19 $-1 $20 #
body $-1 $21 $-1 $22 #
body $-1 $23 $-1 $24 #
body $-1 $25 $-1 $26 #
lump $-1 $-1 $27 $0 #
transform $-1 1 0 0 0 1 0 0 0 1 53.075350199896235 27.517642349648646 12.907518521244842 1 rotate no_reflect no_shear #
lump $-1 $-1 $28 $1 #
transform $-1 1 0 0 0 1 0 0 0 1 53.075350199896235 27.517642349648646 12.907518521244842 1 rotate no_reflect no_shear #
lump $-1 $-1 $29 $2 #
transform $-1 1 0 0 0 1 0 0 0 1 53.075350199896235 27.517642349648646 12.907518521244842 1 rotate no_reflect no_shear #
lump $-1 $-1 $30 $3 #
transform $-1 1 0 0 0 1 0 0 0 1 53.075350199896235 27.517642349648646 12.907518521244842 1 rotate no_reflect no_shear #
lump $-1 $-1 $31 $4 #
transform $-1 1 0 0 0 1 0 0 0 1 53.075350199896235 27.517642349648646 12.907518521244842 1 rotate no_reflect no_shear #
lump $-1 $-1 $32 $5 #
transform $-1 1 0 0 0 1 0 0 0 1 53.075350199896235 27.517642349648646 12.907518521244842 1 rotate no_reflect no_shear #
lump $-1 $-1 $33 $6 #
transform $-1 1 0 0 0 1 0 0 0 1 53.075350199896235 27.517642349648646 12.907518521244842 1 rotate no_reflect no_shear #
lump $-1 $-1 $34 $7 #
transform $-1 1 0 0 0 1 0 0 0 1 53.075350199896235 27.517642349648646 12.907518521244842 1 rotate no_reflect no_shear #
lump $-1 $-1 $35 $8 #
transform $-1 1 0 0 0 1 0 0 0 1 53.075350199896235 27.517642349648646 12.907518521244842 1 rotate no_reflect no_shear #
shell $-1 $-1 $-1 $36 $-1 $9 #
shell $-1 $-1 $-1 $37 $-1 $11 #
shell $-1 $-1 $-1 $38 $-1 $13 #
shell $-1 $-1 $-1 $39 $-1 $15 #
shell $-1 $-1 $-1 $40 $-1 $17 #
shell $-1 $-1 $-1 $41 $-1 $19 #
shell $-1 $-1 $-1 $42 $-1 $21 #
shell $-1 $-1 $-1 $43 $-1 $23 #
shell $-1 $-1 $-1 $44 $-1 $25 #
face $-1 $45 $46 $27 $-1 $47 forward single #
face $-1 $48 $49 $28 $-1 $50 reversed single #
face $-1 $51 $52 $29 $-1 $53 reversed single #
face $-1 $54 $55 $30 $-1 $56 reversed single #
face $-1 $57 $58 $31 $-1 $59 forward single #
face $-1 $60 $61 $32 $-1 $62 reversed single #
face $-1 $63 $64 $33 $-1 $65 forward single #
face $-1 $66 $67 $34 $-1 $68 reversed single #
face $-1 $69 $70 $35 $-1 $71 forward single #
face $-1 $72 $73 $27 $-1 $74 reversed single #
loop $-1 $-1 $75 $36 #
plane-surface $-1 0 0 12.907518521244842 0 0 1 1 0 0 forward_v I I I I #
face $-1 $76 $77 $28 $-1 $78 reversed single #
loop $-1 $-1 $79 $37 #
plane-surface $-1 -49.44882083309011 -11.038947850757665 0 0 -1 0 0 0 -1 forward_v I I I I #
face $-1 $80 $81 $29 $-1 $82 reversed single #
loop $-1 $-1 $83 $38 #
plane-surface $-1 -49.44882083309011 11.038947850757669 0 0 1 0 0 0 1 forward_v I I I I #
face $-1 $84 $85 $30 $-1 $86 reversed single #
loop $-1 $-1 $87 $39 #
plane-surface $-1 -53.075350199896235 -7.912141486441886 6.0729547868038765 -0.5877852598018023 0 0.80901698891910034 0.80901698891910034 0 0.5877852598018023 forward_v I I I I #
face $-1 $88 $89 $31 $-1 $90 forward single #
loop $-1 $91 $92 $40 #
cone-surface $-1 -47.42721491526752 -7.912141486441886 8.190036951473969 0.5877852598018023 0 -0.80901698891910034 0.80901698891910034 0 0.5877852598018023 1 I I 0 1 1 forward I I I I #
face $-1 $93 $94 $32 $-1 $95 reversed single #
loop $-1 $-1 $96 $41 #
plane-surface $-1 37.38356386544676 -2.6349382842019882 152.39600149294367 0 -1 0 -0.62932039886446345 0 -0.77714595512881146 forward_v I I I I #
face $-1 $97 $98 $33 $-1 $99 forward single #
loop $-1 $100 $101 $42 #
cone-surface $-1 46.490923167148132 -5.5932971883162814 7.3511235871789715 -0.62932039886446345 0 -0.77714595512881146 0.77714595512881146 0 -0.62932039886446345 1 I I 0 1 1 forward I I I I #
face $-1 $102 $103 $34 $-1 $104 reversed single #
loop $-1 $-1 $105 $43 #
plane-surface $-1 37.38356386544676 8.5516560924305747 152.39600149294367 0 -1 0 -0.62932039886446345 0 -0.77714595512881146 forward_v I I I I #
face $-1 $106 $107 $35 $-1 $108 forward single #
loop $-1 $109 $110 $44 #
cone-surface $-1 46.490923167148132 5.5932971883162779 7.3511235871789715 -0.62932039886446345 0 -0.77714595512881146 0.77714595512881146 0 -0.62932039886446345 1 I I 0 1 1 forward I I I I #
face $-1 $111 $112 $27 $-1 $113 reversed single #
loop $-1 $-1 $114 $45 #
plane-surface $-1 0 0 -12.907518521244842 0 0 1 1 0 0 forward_v I I I I #
coedge $-1 $115 $116 $117 $118 forward $46 $-1 #
face $-1 $119 $120 $28 $-1 $121 forward single #
loop $-1 $-1 $122 $48 #
plane-surface $-1 -45.822291466283986 -19.278295100203156 0 -1 0 0 0 0 1 forward_v I I I I #
coedge $-1 $123 $124 $125 $126 forward $49 $-1 #
face $-1 $127 $128 $29 $-1 $129 reversed single #
loop $-1 $-1 $130 $51 #
plane-surface $-1 -45.822291466283986 19.27829510020316 0 -1 0 0 0 0 1 forward_v I I I I #
coedge $-1 $131 $132 $133 $134 reversed $52 $-1 #
face $-1 $135 $136 $30 $-1 $137 forward single #
loop $-1 $-1 $138 $54 #
plane-surface $-1 -115.46916721253153 -4.7853351221261065 91.950674795897527 0 -1 0 0.5877852598018023 0 -0.80901698891910034 forward_v I I I I #
coedge $-1 $139 $140 $141 $142 reversed $55 $-1 #
face $-1 $-1 $143 $31 $-1 $144 forward single #
loop $-1 $145 $146 $57 #
cone-surface $-1 -46.188671888124802 -7.912141486441886 6.4853287544640246 0.5877852598018023 0 -0.80901698891910034 0.40450849445955017 0 0.29389262990090115 1 I I -0.70710678118654746 0.70710678118654746 0.5 forward I I I I #
loop $-1 $-1 $147 $40 #
coedge $-1 $92 $92 $148 $149 reversed $58 $-1 #
face $-1 $150 $151 $32 $-1 $152 reversed single #
loop $-1 $-1 $153 $60 #
plane-surface $-1 -29.419237249892802 -5.593297188316285 69.901414043154645 0.62932039886446345 0 0.77714595512881146 0.77714595512881146 0 -0.62932039886446345 forward_v I I I I #
coedge $-1 $154 $155 $156 $157 reversed $61 $-1 #
face $-1 $-1 $158 $33 $-1 $159 forward single #
loop $-1 $160 $161 $63 #
cone-surface $-1 45.64833062346753 -5.5932971883162814 6.3106084722635494 -0.62932039886446345 0 -0.77714595512881146 0.38857297756440573 0 -0.31466019943223172 1 I I -0.70710678118654746 0.70710678118654746 0.5 forward I I I I #
loop $-1 $-1 $162 $42 #
coedge $-1 $101 $101 $163 $164 reversed $64 $-1 #
face $-1 $165 $166 $34 $-1 $167 reversed single #
loop $-1 $-1 $168 $66 #
plane-surface $-1 -29.419237249892802 5.5932971883162779 69.901414043154645 0.62932039886446345 0 0.77714595512881146 0.77714595512881146 0 -0.62932039886446345 forward_v I I I I #
coedge $-1 $169 $170 $171 $172 reversed $67 $-1 #
face $-1 $-1 $173 $35 $-1 $174 forward single #
loop $-1 $175 $176 $69 #
cone-surface $-1 45.64833062346753 5.5932971883162779 6.3106084722635494 -0.62932039886446345 0 -0.77714595512881146 0.38857297756440573 0 -0.31466019943223172 1 I I -0.70710678118654746 0.70710678118654746 0.5 forward I I I I #
loop $-1 $-1 $177 $44 #
coedge $-1 $110 $110 $178 $179 reversed $70 $-1 #
face $-1 $180 $181 $27 $-1 $182 reversed single #
loop $-1 $-1 $183 $72 #
plane-surface $-1 0 -27.517642349648646 0 0 1 0 0 0 1 forward_v I I I I #
coedge $-1 $184 $185 $186 $187 forward $73 $-1 #
coedge $-1 $188 $75 $189 $190 forward $46 $-1 #
coedge $-1 $75 $188 $191 $192 forward $46 $-1 #
coedge $-1 $193 $194 $75 $118 reversed $195 $-1 #
edge $-1 $196 -27.517642349648646 $197 27.517642349648646 $117 $198 forward 7 unknown #
face $-1 $199 $200 $28 $-1 $201 reversed single #
loop $-1 $-1 $202 $76 #
plane-surface $-1 0 0 12.907518521244842 0 0 1 1 0 0 forward_v I I I I #
coedge $-1 $203 $204 $205 $206 reversed $77 $-1 #
coedge $-1 $207 $79 $208 $209 reversed $49 $-1 #
coedge $-1 $79 $207 $210 $211 reversed $49 $-1 #
coedge $-1 $204 $203 $79 $126 reversed $77 $-1 #
edge $-1 $212 -12.907518521244842 $213 12.907518521244842 $125 $214 forward 7 unknown #
face $-1 $215 $216 $29 $-1 $217 reversed single #
loop $-1 $-1 $218 $80 #
plane-surface $-1 0 0 -12.907518521244842 0 0 1 1 0 0 forward_v I I I I #
coedge $-1 $219 $220 $221 $222 forward $81 $-1 #
coedge $-1 $221 $83 $223 $224 reversed $52 $-1 #
coedge $-1 $83 $221 $225 $226 reversed $52 $-1 #
coedge $-1 $227 $228 $83 $134 forward $216 $-1 #
edge $-1 $229 -12.907518521244842 $230 12.907518521244842 $133 $231 forward 7 unknown #
face $-1 $232 $233 $30 $-1 $234 reversed single #
loop $-1 $-1 $235 $84 #
plane-surface $-1 0 0 12.907518521244842 0 0 1 1 0 0 forward_v I I I I #
coedge $-1 $236 $237 $238 $239 reversed $85 $-1 #
coedge $-1 $240 $87 $241 $242 reversed $55 $-1 #
coedge $-1 $87 $240 $236 $243 forward $55 $-1 #
coedge $-1 $238 $235 $87 $142 forward $136 $-1 #
edge $-1 $244 -7.0828771075367225 $245 -0.82926437890516347 $141 $246 forward 7 unknown #
loop $-1 $-1 $148 $88 #
plane-surface $-1 -53.075350199896235 -7.912141486441886 6.0729547868038765 -0.5877852598018023 0 0.80901698891910034 0.80901698891910034 0 0.5877852598018023 forward_v I I I I #
loop $-1 $-1 $247 $57 #
coedge $-1 $146 $146 $147 $248 reversed $89 $-1 #
coedge $-1 $147 $147 $146 $248 forward $91 $-1 #
coedge $-1 $148 $148 $92 $149 forward $143 $-1 #
edge $-1 $249 0 $249 6.2831853071796004 $148 $250 forward 7 unknown #
face $-1 $251 $252 $32 $-1 $253 reversed single #
loop $-1 $-1 $254 $93 #
plane-surface $-1 37.38356386544676 -8.5516560924305818 152.39600149294367 0 1 0 0.62932039886446345 0 0.77714595512881146 forward_v I I I I #
coedge $-1 $255 $256 $257 $258 reversed $94 $-1 #
coedge $-1 $155 $96 $259 $260 reversed $61 $-1 #
coedge $-1 $96 $154 $255 $261 reversed $61 $-1 #
coedge $-1 $257 $262 $96 $157 forward $263 $-1 #
edge $-1 $264 -34.383568267172855 $265 -22.27057889017339 $156 $266 forward 7 unknown #
loop $-1 $-1 $163 $97 #
plane-surface $-1 -29.419237249892802 -5.593297188316285 69.901414043154645 0.62932039886446345 0 0.77714595512881146 0.77714595512881146 0 -0.62932039886446345 forward_v I I I I #
loop $-1 $-1 $267 $63 #
coedge $-1 $161 $161 $162 $268 reversed $98 $-1 #
coedge $-1 $162 $162 $161 $268 forward $100 $-1 #
coedge $-1 $163 $163 $101 $164 forward $158 $-1 #
edge $-1 $269 0 $269 6.2831853071796004 $163 $270 forward 7 unknown #
face $-1 $271 $272 $34 $-1 $273 reversed single #
loop $-1 $-1 $274 $102 #
plane-surface $-1 37.38356386544676 2.6349382842019811 152.39600149294367 0 1 0 0.62932039886446345 0 0.77714595512881146 forward_v I I I I #
coedge $-1 $275 $276 $277 $278 reversed $103 $-1 #
coedge $-1 $170 $105 $279 $280 reversed $67 $-1 #
coedge $-1 $105 $169 $275 $281 reversed $67 $-1 #
coedge $-1 $277 $282 $105 $172 forward $283 $-1 #
edge $-1 $284 -34.383568267172855 $285 -22.27057889017339 $171 $286 forward 7 unknown #
loop $-1 $-1 $178 $106 #
plane-surface $-1 -29.419237249892802 5.5932971883162779 69.901414043154645 0.62932039886446345 0 0.77714595512881146 0.77714595512881146 0 -0.62932039886446345 forward_v I I I I #
loop $-1 $-1 $287 $69 #
coedge $-1 $176 $176 $177 $288 reversed $107 $-1 #
coedge $-1 $177 $177 $176 $288 forward $109 $-1 #
coedge $-1 $178 $178 $110 $179 forward $173 $-1 #
edge $-1 $289 0 $289 6.2831853071796004 $178 $290 forward 7 unknown #
face $-1 $291 $292 $27 $-1 $293 reversed single #
loop $-1 $-1 $294 $111 #
plane-surface $-1 -53.075350199896235 0 0 1 0 0 0 0 -1 forward_v I I I I #
coedge $-1 $295 $191 $296 $297 forward $112 $-1 #
coedge $-1 $298 $114 $295 $299 forward $73 $-1 #
coedge $-1 $114 $298 $300 $301 forward $73 $-1 #
coedge $-1 $194 $193 $114 $187 reversed $195 $-1 #
edge $-1 $302 -27.517642349648646 $303 27.517642349648646 $186 $304 forward 7 unknown #
coedge $-1 $116 $115 $305 $306 forward $46 $-1 #
coedge $-1 $307 $308 $115 $190 reversed $292 $-1 #
edge $-1 $197 -53.075350199896235 $309 53.075350199896235 $189 $310 forward 7 unknown #
coedge $-1 $183 $311 $116 $192 reversed $112 $-1 #
edge $-1 $312 -53.075350199896235 $196 53.075350199896235 $191 $313 forward 7 unknown #
coedge $-1 $186 $117 $311 $314 forward $195 $-1 #
coedge $-1 $117 $186 $307 $315 reversed $195 $-1 #
loop $-1 $-1 $193 $291 #
vertex $-1 $118 $316 #
vertex $-1 $118 $317 #
straight-curve $-1 53.075350199896235 0 12.907518521244842 0 1 0 I I #
face $-1 $318 $319 $28 $-1 $320 reversed single #
loop $-1 $-1 $321 $119 #
plane-surface $-1 -53.075350199896235 0 0 1 0 0 0 0 -1 forward_v I I I I #
coedge $-1 $210 $322 $204 $323 forward $120 $-1 #
coedge $-1 $125 $122 $324 $325 reversed $77 $-1 #
coedge $-1 $122 $125 $202 $323 reversed $77 $-1 #
coedge $-1 $326 $327 $122 $206 forward $328 $-1 #
edge $-1 $329 -12.907518521244842 $330 12.907518521244842 $205 $331 forward 7 unknown #
coedge $-1 $124 $123 $321 $332 reversed $49 $-1 #
coedge $-1 $324 $333 $123 $209 forward $319 $-1 #
edge $-1 $334 -28.35093978335118 $213 -21.09788104973893 $208 $335 forward 7 unknown #
coedge $-1 $336 $202 $124 $211 forward $120 $-1 #
edge $-1 $212 21.09788104973893 $337 28.35093978335118 $210 $338 forward 7 unknown #
vertex $-1 $211 $339 #
vertex $-1 $209 $340 #
straight-curve $-1 -45.822291466283986 -11.038947850757665 0 0 0 -1 I I #
face $-1 $341 $342 $29 $-1 $343 forward single #
loop $-1 $-1 $133 $127 #
plane-surface $-1 -53.075350199896235 0 0 1 0 0 0 0 -1 forward_v I I I I #
coedge $-1 $223 $344 $219 $345 forward $128 $-1 #
coedge $-1 $346 $130 $218 $345 reversed $81 $-1 #
coedge $-1 $130 $346 $347 $348 reversed $81 $-1 #
coedge $-1 $132 $131 $130 $222 reversed $52 $-1 #
edge $-1 $349 -12.907518521244842 $350 12.907518521244842 $130 $351 forward 7 unknown #
coedge $-1 $352 $218 $131 $224 forward $128 $-1 #
edge $-1 $350 21.09788104973893 $229 28.35093978335118 $223 $353 forward 7 unknown #
coedge $-1 $347 $354 $132 $226 forward $342 $-1 #
edge $-1 $230 -28.35093978335118 $349 -21.09788104973893 $225 $355 forward 7 unknown #
coedge $-1 $356 $133 $354 $357 reversed $216 $-1 #
coedge $-1 $133 $356 $352 $358 reversed $216 $-1 #
vertex $-1 $358 $359 #
vertex $-1 $134 $360 #
straight-curve $-1 -53.075350199896235 11.038947850757669 0 0 0 1 I I #
face $-1 $-1 $361 $30 $-1 $362 forward single #
loop $-1 $-1 $363 $135 #
plane-surface $-1 -53.075350199896235 0 0 1 0 0 0 0 -1 forward_v I I I I #
coedge $-1 $141 $364 $365 $366 forward $136 $-1 #
coedge $-1 $237 $138 $140 $243 reversed $85 $-1 #
coedge $-1 $138 $236 $367 $368 reversed $85 $-1 #
coedge $-1 $364 $141 $138 $239 forward $136 $-1 #
edge $-1 $245 -14.066203181143315 $369 -4.6592334063695304 $238 $370 forward 7 unknown #
coedge $-1 $140 $139 $363 $371 reversed $55 $-1 #
coedge $-1 $365 $372 $139 $242 forward $361 $-1 #
edge $-1 $373 0.31783471928296864 $244 11.945488901603802 $241 $374 forward 7 unknown #
edge $-1 $375 0 $245 11.627654182320835 $236 $376 forward 7 unknown #
vertex $-1 $366 $377 #
vertex $-1 $142 $378 #
straight-curve $-1 -43.66838042512245 -3.956070743220943 12.907518521244842 0 1 0 I I #
coedge $-1 $247 $247 $-1 $379 reversed $145 $-1 #
edge $-1 $380 0 $380 6.2831853071796004 $146 $381 forward 7 unknown #
vertex $-1 $149 $382 #
ellipse-curve $-1 -48.371865312509335 -7.912141486441886 9.4902366540243612 -0.5877852598018023 0 0.80901698891910034 0.80901698891910034 0 0.5877852598018023 1 I I #
face $-1 $-1 $263 $32 $-1 $383 forward single #
loop $-1 $-1 $384 $150 #
plane-surface $-1 53.075350199896235 0 0 -1 0 0 0 0 1 forward_v I I I I #
coedge $-1 $385 $386 $387 $388 reversed $151 $-1 #
coedge $-1 $389 $153 $155 $261 forward $94 $-1 #
coedge $-1 $153 $389 $385 $390 forward $94 $-1 #
coedge $-1 $387 $156 $153 $258 forward $263 $-1 #
edge $-1 $265 -0.16171030995615432 $391 5.7550074982724393 $257 $392 forward 7 unknown #
coedge $-1 $393 $394 $154 $260 forward $252 $-1 #
edge $-1 $395 -73.099387818656751 $264 -63.290482225226995 $259 $396 forward 7 unknown #
edge $-1 $265 90.564195320457998 $395 106.15070039979247 $155 $397 forward 7 unknown #
coedge $-1 $156 $387 $393 $398 forward $263 $-1 #
loop $-1 $-1 $387 $251 #
vertex $-1 $260 $399 #
vertex $-1 $157 $400 #
straight-curve $-1 18.69178193272338 -2.6349382842019882 12.907518521244839 -1 0 0 I I #
coedge $-1 $267 $267 $-1 $401 reversed $160 $-1 #
edge $-1 $402 0 $402 6.2831853071796004 $161 $403 forward 7 unknown #
vertex $-1 $164 $404 #
ellipse-curve $-1 47.018855511396481 -5.5932971883162814 8.0030657245299643 0.62932039886446345 0 0.77714595512881146 0.77714595512881146 0 -0.62932039886446345 1 I I #
face $-1 $-1 $283 $34 $-1 $405 forward single #
loop $-1 $-1 $406 $165 #
plane-surface $-1 53.075350199896235 0 0 -1 0 0 0 0 1 forward_v I I I I #
coedge $-1 $407 $408 $409 $410 reversed $166 $-1 #
coedge $-1 $411 $168 $170 $281 forward $103 $-1 #
coedge $-1 $168 $411 $407 $412 forward $103 $-1 #
coedge $-1 $409 $171 $168 $278 forward $283 $-1 #
edge $-1 $285 -5.7550074982724357 $413 0.16171030995615787 $277 $414 forward 7 unknown #
coedge $-1 $415 $416 $169 $280 forward $272 $-1 #
edge $-1 $417 -73.099387818656751 $284 -63.290482225226995 $279 $418 forward 7 unknown #
edge $-1 $285 90.564195320457998 $417 106.15070039979247 $170 $419 forward 7 unknown #
coedge $-1 $171 $409 $415 $420 forward $283 $-1 #
loop $-1 $-1 $409 $271 #
vertex $-1 $280 $421 #
vertex $-1 $172 $422 #
straight-curve $-1 18.69178193272338 8.5516560924305747 12.907518521244839 -1 0 0 I I #
coedge $-1 $287 $287 $-1 $423 reversed $175 $-1 #
edge $-1 $424 0 $424 6.2831853071796004 $176 $425 forward 7 unknown #
vertex $-1 $179 $426 #
ellipse-curve $-1 47.018855511396481 5.5932971883162779 8.0030657245299643 0.62932039886446345 0 0.77714595512881146 0.77714595512881146 0 -0.62932039886446345 1 I I #
face $-1 $-1 $195 $27 $-1 $427 reversed single #
loop $-1 $-1 $307 $180 #
plane-surface $-1 0 27.517642349648646 0 0 -1 0 0 0 -1 forward_v I I I I #
coedge $-1 $428 $305 $308 $429 forward $181 $-1 #
coedge $-1 $311 $183 $184 $299 reversed $112 $-1 #
coedge $-1 $305 $428 $183 $297 reversed $181 $-1 #
edge $-1 $312 -12.907518521244842 $430 12.907518521244842 $296 $431 forward 7 unknown #
coedge $-1 $185 $184 $428 $432 forward $73 $-1 #
edge $-1 $303 -53.075350199896235 $430 53.075350199896235 $295 $433 forward 7 unknown #
coedge $-1 $308 $307 $185 $301 reversed $292 $-1 #
edge $-1 $434 -53.075350199896235 $302 53.075350199896235 $300 $435 forward 7 unknown #
vertex $-1 $187 $436 #
vertex $-1 $314 $437 #
straight-curve $-1 53.075350199896235 0 -12.907518521244842 0 -1 0 I I #
coedge $-1 $294 $296 $188 $306 reversed $181 $-1 #
edge $-1 $309 -27.517642349648646 $312 27.517642349648646 $305 $438 forward 7 unknown #
coedge $-1 $300 $189 $194 $315 forward $292 $-1 #
coedge $-1 $189 $300 $294 $429 reversed $292 $-1 #
vertex $-1 $190 $439 #
straight-curve $-1 0 27.517642349648646 12.907518521244842 -1 0 0 I I #
coedge $-1 $191 $295 $193 $314 reversed $112 $-1 #
vertex $-1 $306 $440 #
straight-curve $-1 0 -27.517642349648646 12.907518521244842 1 0 0 I I #
edge $-1 $196 -12.907518521244842 $303 12.907518521244842 $193 $441 forward 7 unknown #
edge $-1 $197 -12.907518521244842 $302 12.907518521244842 $194 $442 forward 7 unknown #
point $-1 53.075350199896235 -27.517642349648646 12.907518521244842 #
point $-1 53.075350199896235 27.517642349648646 12.907518521244842 #
face $-1 $-1 $328 $28 $-1 $443 reversed single #
loop $-1 $-1 $324 $199 #
plane-surface $-1 0 0 -12.907518521244842 0 0 1 1 0 0 forward_v I I I I #
coedge $-1 $444 $445 $207 $332 forward $200 $-1 #
coedge $-1 $202 $336 $326 $446 forward $120 $-1 #
edge $-1 $330 -17.87849479954707 $212 -1.3998003006560875 $202 $447 forward 7 unknown #
coedge $-1 $448 $208 $203 $325 forward $319 $-1 #
edge $-1 $213 1.3998003006560875 $329 17.87849479954707 $324 $449 forward 7 unknown #
coedge $-1 $450 $205 $322 $446 reversed $328 $-1 #
coedge $-1 $205 $450 $448 $451 reversed $328 $-1 #
loop $-1 $-1 $205 $318 #
vertex $-1 $451 $452 #
vertex $-1 $206 $453 #
straight-curve $-1 -45.822291466283986 -27.517642349648646 0 0 0 1 I I #
edge $-1 $337 -12.907518521244842 $334 12.907518521244842 $321 $454 forward 7 unknown #
coedge $-1 $208 $448 $444 $455 forward $319 $-1 #
vertex $-1 $209 $456 #
straight-curve $-1 -24.724410416545055 -11.038947850757665 -12.907518521244842 1 0 0 I I #
coedge $-1 $322 $210 $445 $457 forward $120 $-1 #
vertex $-1 $457 $458 #
straight-curve $-1 -24.724410416545055 -11.038947850757665 12.907518521244842 -1 0 0 I I #
point $-1 -45.822291466283986 -11.038947850757665 12.907518521244842 #
point $-1 -45.822291466283986 -11.038947850757665 -12.907518521244842 #
face $-1 $-1 $459 $29 $-1 $460 reversed single #
loop $-1 $-1 $347 $215 #
plane-surface $-1 0 0 12.907518521244842 0 0 1 1 0 0 forward_v I I I I #
coedge $-1 $218 $352 $461 $462 forward $128 $-1 #
edge $-1 $463 -17.87849479954707 $350 -1.3998003006560893 $218 $464 forward 7 unknown #
coedge $-1 $220 $219 $465 $466 reversed $81 $-1 #
coedge $-1 $467 $225 $220 $348 forward $342 $-1 #
edge $-1 $349 1.3998003006560893 $468 17.87849479954707 $347 $469 forward 7 unknown #
vertex $-1 $226 $470 #
vertex $-1 $224 $471 #
straight-curve $-1 -45.822291466283986 11.038947850757669 0 0 0 -1 I I #
coedge $-1 $344 $223 $228 $358 forward $128 $-1 #
straight-curve $-1 -24.724410416545055 11.038947850757669 -12.907518521244842 -1 0 0 I I #
coedge $-1 $225 $467 $227 $357 forward $342 $-1 #
straight-curve $-1 -24.724410416545055 11.038947850757669 12.907518521244842 1 0 0 I I #
coedge $-1 $228 $227 $472 $473 forward $216 $-1 #
edge $-1 $474 -27.517642349648646 $230 -11.038947850757669 $227 $475 forward 7 unknown #
edge $-1 $229 11.038947850757669 $476 27.517642349648646 $228 $477 forward 7 unknown #
point $-1 -53.075350199896235 11.038947850757669 -12.907518521244842 #
point $-1 -53.075350199896235 11.038947850757669 12.907518521244842 #
loop $-1 $-1 $241 $232 #
plane-surface $-1 -49.44882083309011 -11.038947850757665 0 0 -1 0 0 0 -1 forward_v I I I I #
coedge $-1 $478 $367 $240 $371 forward $233 $-1 #
coedge $-1 $235 $238 $479 $480 forward $136 $-1 #
coedge $-1 $372 $241 $235 $366 reversed $361 $-1 #
edge $-1 $481 -28.35093978335118 $244 -18.943970008577395 $235 $482 forward 7 unknown #
coedge $-1 $363 $479 $237 $368 forward $233 $-1 #
edge $-1 $369 33.067818876703925 $375 39.902382611144887 $367 $483 forward 7 unknown #
vertex $-1 $480 $484 #
straight-curve $-1 -57.734583606265765 -4.7853351221261065 12.907518521244839 -1 0 0 I I #
edge $-1 $375 0.82926437890516347 $373 7.0828771075367225 $363 $485 forward 7 unknown #
coedge $-1 $241 $365 $478 $486 reversed $361 $-1 #
vertex $-1 $486 $487 #
straight-curve $-1 -53.332483887464491 -11.038947850757665 5.8861362237561057 0.80901698891910034 0 0.5877852598018023 I I #
vertex $-1 $371 $488 #
straight-curve $-1 -53.075350199896235 -4.7853351221261065 6.0729547868038765 0.80901698891910034 0 0.5877852598018023 I I #
point $-1 -43.66838042512245 -11.038947850757665 12.907518521244842 #
point $-1 -43.66838042512245 -4.7853351221261065 12.907518521244842 #
edge $-1 $489 1 $489 0 $247 $-1 forward 7 unknown #
vertex $-1 $248 $490 #
ellipse-curve $-1 -46.482564518025704 -7.912141486441886 6.8898372489235751 -0.5877852598018023 0 0.80901698891910034 0.80901698891910034 0 0.5877852598018023 1 I I #
point $-1 -47.562848323590245 -7.912141486441886 10.078021913826165 #
plane-surface $-1 0 0 12.907518521244842 0 0 1 1 0 0 forward_v I I I I #
coedge $-1 $394 $393 $386 $491 forward $252 $-1 #
coedge $-1 $386 $254 $256 $390 reversed $151 $-1 #
coedge $-1 $254 $385 $384 $491 reversed $151 $-1 #
coedge $-1 $262 $257 $254 $388 forward $263 $-1 #
edge $-1 $391 22.27057889017339 $492 34.383568267172855 $387 $493 forward 7 unknown #
coedge $-1 $256 $255 $394 $494 reversed $94 $-1 #
edge $-1 $495 -106.15070039979247 $391 -90.564195320457998 $385 $496 forward 7 unknown #
vertex $-1 $258 $497 #
straight-curve $-1 40.96236082289677 -2.7966485941581425 12.907518521244839 0 -1 0 I I #
coedge $-1 $384 $259 $262 $398 reversed $252 $-1 #
coedge $-1 $259 $384 $389 $494 forward $252 $-1 #
vertex $-1 $260 $498 #
straight-curve $-1 53.075350199896235 -2.6349382842019882 76.198000746471834 0 0 1 I I #
straight-curve $-1 -29.419237249892802 -2.6349382842019882 69.901414043154645 0.77714595512881146 0 -0.62932039886446345 I I #
edge $-1 $492 -8.5516560924305818 $264 -2.6349382842019882 $393 $499 forward 7 unknown #
point $-1 53.075350199896235 -2.6349382842019882 12.907518521244842 #
point $-1 40.96236082289677 -2.6349382842019882 12.907518521244832 #
edge $-1 $500 1 $500 0 $267 $-1 forward 7 unknown #
vertex $-1 $268 $501 #
ellipse-curve $-1 45.962990822899762 -5.5932971883162814 6.6991814498279547 0.62932039886446345 0 0.77714595512881146 0.77714595512881146 0 -0.62932039886446345 1 I I #
point $-1 47.796001466525311 -5.5932971883162814 7.3737453256655243 #
plane-surface $-1 0 0 12.907518521244842 0 0 1 1 0 0 forward_v I I I I #
coedge $-1 $416 $415 $408 $502 forward $272 $-1 #
coedge $-1 $408 $274 $276 $412 reversed $166 $-1 #
coedge $-1 $274 $407 $406 $502 reversed $166 $-1 #
coedge $-1 $282 $277 $274 $410 forward $283 $-1 #
edge $-1 $413 22.27057889017339 $503 34.383568267172855 $409 $504 forward 7 unknown #
coedge $-1 $276 $275 $416 $505 reversed $103 $-1 #
edge $-1 $506 -106.15070039979247 $413 -90.564195320457998 $407 $507 forward 7 unknown #
vertex $-1 $278 $508 #
straight-curve $-1 40.96236082289677 2.7966485941581389 12.907518521244839 0 -1 0 I I #
coedge $-1 $406 $279 $282 $420 reversed $272 $-1 #
coedge $-1 $279 $406 $411 $505 forward $272 $-1 #
vertex $-1 $280 $509 #
straight-curve $-1 53.075350199896235 8.5516560924305747 76.198000746471834 0 0 1 I I #
straight-curve $-1 -29.419237249892802 8.5516560924305747 69.901414043154645 0.77714595512881146 0 -0.62932039886446345 I I #
edge $-1 $503 2.6349382842019811 $284 8.5516560924305747 $415 $510 forward 7 unknown #
point $-1 53.075350199896235 8.5516560924305747 12.907518521244842 #
point $-1 40.96236082289677 8.5516560924305747 12.907518521244832 #
edge $-1 $511 1 $511 0 $287 $-1 forward 7 unknown #
vertex $-1 $288 $512 #
ellipse-curve $-1 45.962990822899762 5.5932971883162779 6.6991814498279547 0.62932039886446345 0 0.77714595512881146 0.77714595512881146 0 -0.62932039886446345 1 I I #
point $-1 47.796001466525311 5.5932971883162779 7.3737453256655243 #
plane-surface $-1 53.075350199896235 0 0 -1 0 0 0 0 1 forward_v I I I I #
coedge $-1 $296 $294 $298 $432 reversed $181 $-1 #
edge $-1 $309 -12.907518521244842 $434 12.907518521244842 $308 $513 forward 7 unknown #
vertex $-1 $432 $514 #
straight-curve $-1 -53.075350199896235 -27.517642349648646 0 0 0 -1 I I #
edge $-1 $430 -27.517642349648646 $434 27.517642349648646 $428 $515 forward 7 unknown #
straight-curve $-1 0 -27.517642349648646 -12.907518521244842 -1 0 0 I I #
vertex $-1 $301 $516 #
straight-curve $-1 0 27.517642349648646 -12.907518521244842 1 0 0 I I #
point $-1 53.075350199896235 27.517642349648646 -12.907518521244842 #
point $-1 53.075350199896235 -27.517642349648646 -12.907518521244842 #
straight-curve $-1 -53.075350199896235 0 12.907518521244842 0 -1 0 I I #
point $-1 -53.075350199896235 27.517642349648646 12.907518521244842 #
point $-1 -53.075350199896235 -27.517642349648646 12.907518521244842 #
straight-curve $-1 53.075350199896235 -27.517642349648646 0 0 0 -1 I I #
straight-curve $-1 53.075350199896235 27.517642349648646 0 0 0 -1 I I #
plane-surface $-1 0 -27.517642349648646 0 0 1 0 0 0 1 forward_v I I I I #
coedge $-1 $517 $321 $333 $455 reversed $200 $-1 #
coedge $-1 $321 $517 $336 $457 reversed $200 $-1 #
edge $-1 $518 -53.075350199896235 $330 -45.822291466283986 $326 $519 forward 7 unknown #
straight-curve $-1 -45.822291466283986 -9.639147550101578 12.907518521244842 0 1 0 I I #
coedge $-1 $333 $324 $327 $451 forward $319 $-1 #
straight-curve $-1 -45.822291466283986 -9.639147550101578 -12.907518521244842 0 -1 0 I I #
coedge $-1 $327 $326 $517 $520 forward $328 $-1 #
edge $-1 $329 45.822291466283986 $521 53.075350199896235 $327 $522 forward 7 unknown #
point $-1 -45.822291466283986 -27.517642349648646 -12.907518521244842 #
point $-1 -45.822291466283986 -27.517642349648646 12.907518521244842 #
straight-curve $-1 -53.075350199896235 -11.038947850757665 0 0 0 -1 I I #
edge $-1 $521 -27.517642349648646 $334 -11.038947850757665 $444 $523 forward 7 unknown #
point $-1 -53.075350199896235 -11.038947850757665 -12.907518521244842 #
edge $-1 $337 11.038947850757665 $518 27.517642349648646 $445 $524 forward 7 unknown #
point $-1 -53.075350199896235 -11.038947850757665 12.907518521244842 #
loop $-1 $-1 $465 $341 #
plane-surface $-1 0 27.517642349648646 0 0 -1 0 0 0 -1 forward_v I I I I #
coedge $-1 $472 $465 $344 $462 reversed $459 $-1 #
edge $-1 $476 -53.075350199896235 $463 -45.822291466283986 $461 $525 forward 7 unknown #
vertex $-1 $345 $526 #
straight-curve $-1 -45.822291466283986 9.6391475501015798 -12.907518521244842 0 -1 0 I I #
coedge $-1 $461 $527 $346 $466 forward $459 $-1 #
edge $-1 $468 -12.907518521244842 $463 12.907518521244842 $465 $528 forward 7 unknown #
coedge $-1 $354 $347 $527 $529 forward $342 $-1 #
vertex $-1 $529 $530 #
straight-curve $-1 -45.822291466283986 9.6391475501015798 12.907518521244842 0 1 0 I I #
point $-1 -45.822291466283986 11.038947850757669 12.907518521244842 #
point $-1 -45.822291466283986 11.038947850757669 -12.907518521244842 #
coedge $-1 $527 $461 $356 $473 reversed $459 $-1 #
edge $-1 $474 -12.907518521244842 $476 12.907518521244842 $472 $531 forward 7 unknown #
vertex $-1 $529 $532 #
straight-curve $-1 -53.075350199896235 0 12.907518521244842 0 -1 0 I I #
vertex $-1 $462 $533 #
straight-curve $-1 -53.075350199896235 0 -12.907518521244842 0 1 0 I I #
coedge $-1 $479 $363 $372 $486 forward $233 $-1 #
coedge $-1 $367 $478 $364 $480 reversed $233 $-1 #
edge $-1 $369 4.7853351221261065 $481 11.038947850757665 $479 $534 forward 7 unknown #
vertex $-1 $486 $535 #
straight-curve $-1 -24.724410416545055 -11.038947850757665 12.907518521244842 1 0 0 I I #
straight-curve $-1 -53.075350199896235 -4.7853351221261065 45.975337397948763 0 0 -1 I I #
point $-1 -53.075350199896235 -4.7853351221261065 12.907518521244842 #
straight-curve $-1 -53.075350199896235 -3.956070743220943 6.0729547868038765 0 -1 0 I I #
edge $-1 $373 6.0729547868038765 $481 12.907518521244842 $478 $536 forward 7 unknown #
point $-1 -53.075350199896235 -11.038947850757665 6.0729547868038765 #
point $-1 -53.075350199896235 -4.7853351221261065 6.0729547868038765 #
vertex $-1 $379 $537 #
point $-1 -45.6735475291066 -7.912141486441886 7.4776225087253767 #
edge $-1 $492 63.290482225226995 $495 73.099387818656751 $384 $538 forward 7 unknown #
vertex $-1 $398 $539 #
straight-curve $-1 18.69178193272338 -8.5516560924305818 12.907518521244839 1 0 0 I I #
edge $-1 $495 -5.7550074982724393 $395 0.16171030995615432 $394 $540 forward 7 unknown #
vertex $-1 $494 $541 #
straight-curve $-1 -29.419237249892802 -8.5516560924305818 69.901414043154645 -0.77714595512881146 0 0.62932039886446345 I I #
point $-1 40.96236082289677 -8.5516560924305818 12.907518521244832 #
point $-1 53.075350199896235 -2.6349382842019882 3.0986129278150827 #
straight-curve $-1 53.075350199896235 0 12.907518521244842 0 1 0 I I #
vertex $-1 $401 $542 #
point $-1 46.740136778028571 -5.5932971883162814 6.0698610509634916 #
edge $-1 $503 63.290482225226995 $506 73.099387818656751 $406 $543 forward 7 unknown #
vertex $-1 $420 $544 #
straight-curve $-1 18.69178193272338 2.6349382842019811 12.907518521244839 1 0 0 I I #
edge $-1 $506 -0.16171030995615787 $417 5.7550074982724357 $416 $545 forward 7 unknown #
vertex $-1 $505 $546 #
straight-curve $-1 -29.419237249892802 2.6349382842019811 69.901414043154645 -0.77714595512881146 0 0.62932039886446345 I I #
point $-1 40.96236082289677 2.6349382842019811 12.907518521244832 #
point $-1 53.075350199896235 8.5516560924305747 3.0986129278150827 #
straight-curve $-1 53.075350199896235 0 12.907518521244842 0 1 0 I I #
vertex $-1 $423 $547 #
point $-1 46.740136778028571 5.5932971883162779 6.0698610509634916 #
straight-curve $-1 -53.075350199896235 27.517642349648646 0 0 0 -1 I I #
point $-1 -53.075350199896235 -27.517642349648646 -12.907518521244842 #
straight-curve $-1 -53.075350199896235 0 -12.907518521244842 0 1 0 I I #
point $-1 -53.075350199896235 27.517642349648646 -12.907518521244842 #
coedge $-1 $445 $444 $450 $520 reversed $200 $-1 #
vertex $-1 $457 $548 #
straight-curve $-1 0 -27.517642349648646 12.907518521244842 1 0 0 I I #
edge $-1 $518 -12.907518521244842 $521 12.907518521244842 $517 $549 forward 7 unknown #
vertex $-1 $455 $550 #
straight-curve $-1 0 -27.517642349648646 -12.907518521244842 -1 0 0 I I #
straight-curve $-1 -53.075350199896235 0 -12.907518521244842 0 1 0 I I #
straight-curve $-1 -53.075350199896235 0 12.907518521244842 0 -1 0 I I #
straight-curve $-1 0 27.517642349648646 -12.907518521244842 1 0 0 I I #
point $-1 -45.822291466283986 27.51764234964865 -12.907518521244842 #
coedge $-1 $465 $472 $467 $529 reversed $459 $-1 #
straight-curve $-1 -45.822291466283986 27.517642349648646 0 0 0 -1 I I #
edge $-1 $468 45.822291466283986 $474 53.075350199896235 $527 $551 forward 7 unknown #
point $-1 -45.822291466283986 27.51764234964865 12.907518521244842 #
straight-curve $-1 -53.075350199896235 27.517642349648646 0 0 0 -1 I I #
point $-1 -53.075350199896235 27.517642349648646 12.907518521244842 #
point $-1 -53.075350199896235 27.517642349648646 -12.907518521244842 #
straight-curve $-1 -53.075350199896235 0 12.907518521244842 0 -1 0 I I #
point $-1 -53.075350199896235 -11.038947850757665 12.907518521244842 #
straight-curve $-1 -53.075350199896235 -11.038947850757665 0 0 0 1 I I #
point $-1 -45.894779258223899 -7.912141486441886 6.0808202600044741 #
straight-curve $-1 53.075350199896235 -8.5516560924305818 76.198000746471834 0 0 -1 I I #
point $-1 53.075350199896235 -8.5516560924305818 12.907518521244842 #
straight-curve $-1 53.075350199896235 -2.7966485941581425 3.0986129278150827 0 1 0 I I #
point $-1 53.075350199896235 -8.5516560924305818 3.0986129278150827 #
point $-1 45.333670424035297 -5.5932971883162814 5.922035494699144 #
straight-curve $-1 53.075350199896235 2.6349382842019811 76.198000746471834 0 0 -1 I I #
point $-1 53.075350199896235 2.6349382842019811 12.907518521244842 #
straight-curve $-1 53.075350199896235 2.7966485941581389 3.0986129278150827 0 1 0 I I #
point $-1 53.075350199896235 2.6349382842019811 3.0986129278150827 #
point $-1 45.333670424035297 5.5932971883162779 5.922035494699144 #
point $-1 -53.075350199896235 -27.517642349648646 12.907518521244842 #
straight-curve $-1 -53.075350199896235 -27.517642349648646 0 0 0 -1 I I #
point $-1 -53.075350199896235 -27.517642349648646 -12.907518521244842 #
straight-curve $-1 0 27.517642349648646 12.907518521244842 -1 0 0 I I #
End-of-ACIS-data 