500 0 5 0           
7 Unknown 11 ACIS 5.0 NT 24 Thu Mar 25 19:06:11 1999 
-1 9.9999999999999995e-007 1e-010 
body $-1 $5 $-1 $6 #
body $-1 $7 $-1 $8 #
body $-1 $9 $-1 $10 #
body $-1 $11 $-1 $12 #
body $-1 $13 $-1 $14 #
lump $-1 $-1 $15 $0 #
transform $-1 1 0 0 0 1 0 0 0 1 64.192632831812489 28.854262273831399 13.961387574287768 1 rotate no_reflect no_shear #
lump $-1 $-1 $16 $1 #
transform $-1 1 0 0 0 1 0 0 0 1 64.192632831812489 28.854262273831399 13.961387574287768 1 rotate no_reflect no_shear #
lump $-1 $-1 $17 $2 #
transform $-1 1 0 0 0 1 0 0 0 1 64.192632831812489 28.854262273831399 13.961387574287768 1 rotate no_reflect no_shear #
lump $-1 $-1 $18 $3 #
transform $-1 1 0 0 0 1 0 0 0 1 64.192632831812489 28.854262273831399 13.961387574287768 1 rotate no_reflect no_shear #
lump $-1 $-1 $19 $4 #
transform $-1 1 0 0 0 1 0 0 0 1 64.192632831812489 28.854262273831399 13.961387574287768 1 rotate no_reflect no_shear #
shell $-1 $-1 $-1 $20 $-1 $5 #
shell $-1 $-1 $-1 $21 $-1 $7 #
shell $-1 $-1 $-1 $22 $-1 $9 #
shell $-1 $-1 $-1 $23 $-1 $11 #
shell $-1 $-1 $-1 $24 $-1 $13 #
face $-1 $25 $26 $15 $-1 $27 forward single #
face $-1 $28 $29 $16 $-1 $30 forward single #
face $-1 $31 $32 $17 $-1 $33 reversed single #
face $-1 $34 $35 $18 $-1 $36 forward single #
face $-1 $37 $38 $19 $-1 $39 forward single #
face $-1 $40 $41 $15 $-1 $42 reversed single #
loop $-1 $-1 $43 $20 #
plane-surface $-1 0 0 13.961387574287768 0 0 1 1 0 0 forward_v I I I I #
face $-1 $44 $45 $16 $-1 $46 reversed single #
loop $-1 $-1 $47 $21 #
plane-surface $-1 -56.142761863913961 0 12.098775773357856 0 0 1 1 0 0 forward_v I I I I #
face $-1 $48 $49 $17 $-1 $50 reversed single #
loop $-1 $-1 $51 $22 #
plane-surface $-1 89.461485786872316 -15.537007300617191 186.99786856547547 0 -1 0 -0.79863551827123203 0 -0.60181501223851219 forward_v I I I I #
face $-1 $52 $53 $18 $-1 $54 forward single #
loop $-1 $55 $56 $23 #
cone-surface $-1 60.350824497322584 -22.037698114243533 9.6055307856714638 -0.79863551827123203 0 -0.60181501223851219 0.60181501223851219 0 -0.79863551827123203 1 I I 0 1 1 forward I I I I #
face $-1 $57 $58 $19 $-1 $59 forward single #
loop $-1 $60 $61 $24 #
cone-surface $-1 60.350824497322584 -18.137283626067727 9.6055307856714638 -0.79863551827123203 0 -0.60181501223851219 0.60181501223851219 0 -0.79863551827123203 1 I I 0 1 1 forward I I I I #
face $-1 $62 $63 $15 $-1 $64 reversed single #
loop $-1 $-1 $65 $25 #
plane-surface $-1 0 0 -13.961387574287768 0 0 1 1 0 0 forward_v I I I I #
coedge $-1 $66 $67 $68 $69 forward $26 $-1 #
face $-1 $70 $71 $16 $-1 $72 reversed single #
loop $-1 $-1 $73 $28 #
plane-surface $-1 -56.142761863913961 0 4.7602167735413357 0 0 1 1 0 0 forward_v I I I I #
coedge $-1 $74 $75 $76 $77 forward $29 $-1 #
face $-1 $78 $79 $17 $-1 $80 reversed single #
loop $-1 $-1 $81 $31 #
plane-surface $-1 -13.07154739478662 -20.08749087015563 109.73368833887636 0.79863551827123203 0 0.60181501223851219 0.60181501223851219 0 -0.79863551827123203 forward_v I I I I #
coedge $-1 $82 $83 $84 $85 reversed $32 $-1 #
face $-1 $-1 $86 $18 $-1 $87 forward single #
loop $-1 $88 $89 $34 #
cone-surface $-1 58.656986978545234 -22.037698114243533 8.3291326994710904 -0.79863551827123203 0 -0.60181501223851219 0.3009075061192561 0 -0.39931775913561601 1 I I -0.70710678118654746 0.70710678118654746 0.5 forward I I I I #
loop $-1 $-1 $90 $23 #
coedge $-1 $56 $56 $91 $92 reversed $35 $-1 #
face $-1 $-1 $93 $19 $-1 $94 forward single #
loop $-1 $95 $96 $37 #
cone-surface $-1 58.656986978545234 -18.137283626067727 8.3291326994710904 -0.79863551827123203 0 -0.60181501223851219 0.3009075061192561 0 -0.39931775913561601 1 I I -0.70710678118654746 0.70710678118654746 0.5 forward I I I I #
loop $-1 $-1 $97 $24 #
coedge $-1 $61 $61 $98 $99 reversed $38 $-1 #
face $-1 $100 $101 $15 $-1 $102 reversed single #
loop $-1 $-1 $103 $40 #
plane-surface $-1 0 -28.854262273831399 0 0 1 0 0 0 1 forward_v I I I I #
coedge $-1 $104 $105 $106 $107 forward $41 $-1 #
coedge $-1 $108 $43 $109 $110 forward $26 $-1 #
coedge $-1 $43 $108 $111 $112 forward $26 $-1 #
coedge $-1 $113 $114 $43 $69 reversed $115 $-1 #
edge $-1 $116 -28.854262273831399 $117 28.854262273831399 $68 $118 forward 7 unknown #
face $-1 $119 $120 $16 $-1 $121 reversed single #
loop $-1 $-1 $122 $44 #
plane-surface $-1 -48.092890896015433 0 8.4294962734495957 -1 0 0 0 0 1 forward_v I I I I #
coedge $-1 $123 $124 $125 $126 forward $45 $-1 #
coedge $-1 $127 $47 $128 $129 reversed $29 $-1 #
coedge $-1 $47 $127 $130 $131 reversed $29 $-1 #
coedge $-1 $122 $132 $47 $77 reversed $71 $-1 #
edge $-1 $133 -28.854262273831399 $134 28.854262273831399 $76 $135 forward 7 unknown #
face $-1 $136 $137 $17 $-1 $138 reversed single #
loop $-1 $-1 $139 $48 #
plane-surface $-1 89.461485786872316 -24.637974439694069 186.99786856547547 0 1 0 0.79863551827123203 0 0.60181501223851219 forward_v I I I I #
coedge $-1 $140 $141 $142 $143 reversed $49 $-1 #
coedge $-1 $83 $51 $144 $145 reversed $32 $-1 #
coedge $-1 $51 $82 $140 $146 reversed $32 $-1 #
coedge $-1 $142 $147 $51 $85 forward $148 $-1 #
edge $-1 $149 -19.461889938376331 $150 -14.367312788679996 $84 $151 forward 7 unknown #
loop $-1 $-1 $91 $52 #
plane-surface $-1 -13.07154739478662 -20.08749087015563 109.73368833887636 0.79863551827123203 0 0.60181501223851219 0.60181501223851219 0 -0.79863551827123203 forward_v I I I I #
loop $-1 $-1 $152 $34 #
coedge $-1 $89 $89 $90 $153 reversed $53 $-1 #
coedge $-1 $90 $90 $89 $153 forward $55 $-1 #
coedge $-1 $91 $91 $56 $92 forward $86 $-1 #
edge $-1 $154 0 $154 6.2831853071796004 $91 $155 forward 7 unknown #
loop $-1 $-1 $98 $57 #
plane-surface $-1 -13.07154739478662 -20.08749087015563 109.73368833887636 0.79863551827123203 0 0.60181501223851219 0.60181501223851219 0 -0.79863551827123203 forward_v I I I I #
loop $-1 $-1 $156 $37 #
coedge $-1 $96 $96 $97 $157 reversed $58 $-1 #
coedge $-1 $97 $97 $96 $157 forward $60 $-1 #
coedge $-1 $98 $98 $61 $99 forward $93 $-1 #
edge $-1 $158 0 $158 6.2831853071796004 $98 $159 forward 7 unknown #
face $-1 $160 $161 $15 $-1 $162 reversed single #
loop $-1 $-1 $163 $62 #
plane-surface $-1 -64.192632831812489 0 0 1 0 0 0 0 -1 forward_v I I I I #
coedge $-1 $164 $111 $165 $166 forward $63 $-1 #
coedge $-1 $167 $65 $164 $168 forward $41 $-1 #
coedge $-1 $65 $167 $169 $170 forward $41 $-1 #
coedge $-1 $114 $113 $65 $107 reversed $115 $-1 #
edge $-1 $171 -28.854262273831399 $172 28.854262273831399 $106 $173 forward 7 unknown #
coedge $-1 $67 $66 $174 $175 forward $26 $-1 #
coedge $-1 $176 $177 $66 $110 reversed $161 $-1 #
edge $-1 $117 -64.192632831812489 $178 64.192632831812489 $109 $179 forward 7 unknown #
coedge $-1 $103 $180 $67 $112 reversed $63 $-1 #
edge $-1 $181 -64.192632831812489 $116 64.192632831812489 $111 $182 forward 7 unknown #
coedge $-1 $106 $68 $180 $183 forward $115 $-1 #
coedge $-1 $68 $106 $176 $184 reversed $115 $-1 #
loop $-1 $-1 $113 $160 #
vertex $-1 $69 $185 #
vertex $-1 $69 $186 #
straight-curve $-1 64.192632831812489 0 13.961387574287768 0 1 0 I I #
face $-1 $187 $188 $16 $-1 $189 reversed single #
loop $-1 $-1 $190 $70 #
plane-surface $-1 0 -28.854262273831399 0 0 1 0 0 0 1 forward_v I I I I #
coedge $-1 $125 $76 $191 $192 reversed $71 $-1 #
coedge $-1 $193 $73 $190 $194 reversed $45 $-1 #
coedge $-1 $73 $193 $195 $196 reversed $45 $-1 #
coedge $-1 $132 $122 $73 $126 reversed $71 $-1 #
edge $-1 $197 -28.854262273831399 $198 28.854262273831399 $125 $199 forward 7 unknown #
coedge $-1 $75 $74 $200 $201 reversed $29 $-1 #
coedge $-1 $202 $203 $74 $129 forward $204 $-1 #
edge $-1 $205 -36.121251899855508 $134 -20.021509964058453 $128 $206 forward 7 unknown #
coedge $-1 $207 $191 $75 $131 forward $120 $-1 #
edge $-1 $133 20.021509964058453 $208 36.121251899855508 $130 $209 forward 7 unknown #
coedge $-1 $76 $125 $202 $210 reversed $71 $-1 #
vertex $-1 $131 $211 #
vertex $-1 $129 $212 #
straight-curve $-1 -48.092890896015433 0 12.098775773357856 0 1 0 I I #
face $-1 $-1 $148 $17 $-1 $213 forward single #
loop $-1 $-1 $214 $78 #
plane-surface $-1 64.192632831812489 0 0 -1 0 0 0 0 1 forward_v I I I I #
coedge $-1 $215 $216 $217 $218 reversed $79 $-1 #
coedge $-1 $219 $81 $83 $146 forward $49 $-1 #
coedge $-1 $81 $219 $215 $220 forward $49 $-1 #
coedge $-1 $217 $84 $81 $143 forward $148 $-1 #
edge $-1 $150 5.4932618655393757 $221 14.594229004616254 $142 $222 forward 7 unknown #
coedge $-1 $223 $224 $82 $145 forward $137 $-1 #
edge $-1 $225 -86.29827912552031 $149 -79.537546708449966 $144 $226 forward 7 unknown #
edge $-1 $150 119.91991161613032 $225 128.38526566362498 $83 $227 forward 7 unknown #
coedge $-1 $84 $217 $223 $228 forward $148 $-1 #
loop $-1 $-1 $217 $136 #
vertex $-1 $145 $229 #
vertex $-1 $85 $230 #
straight-curve $-1 44.730742893436158 -15.537007300617191 13.96138757428777 -1 0 0 I I #
coedge $-1 $152 $152 $-1 $231 reversed $88 $-1 #
edge $-1 $232 0 $232 6.2831853071796004 $89 $233 forward 7 unknown #
vertex $-1 $92 $234 #
ellipse-curve $-1 61.645344256964329 -22.037698114243533 10.581021365752587 0.79863551827123203 0 0.60181501223851219 0.60181501223851219 0 -0.79863551827123203 1 I I #
coedge $-1 $156 $156 $-1 $235 reversed $95 $-1 #
edge $-1 $236 0 $236 6.2831853071796004 $96 $237 forward 7 unknown #
vertex $-1 $99 $238 #
ellipse-curve $-1 61.645344256964329 -18.137283626067727 10.581021365752587 0.79863551827123203 0 0.60181501223851219 0.60181501223851219 0 -0.79863551827123203 1 I I #
face $-1 $-1 $115 $15 $-1 $239 reversed single #
loop $-1 $-1 $176 $100 #
plane-surface $-1 0 28.854262273831399 0 0 -1 0 0 0 -1 forward_v I I I I #
coedge $-1 $240 $174 $177 $241 forward $101 $-1 #
coedge $-1 $180 $103 $104 $168 reversed $63 $-1 #
coedge $-1 $174 $240 $103 $166 reversed $101 $-1 #
edge $-1 $181 -13.961387574287768 $242 13.961387574287768 $165 $243 forward 7 unknown #
coedge $-1 $105 $104 $240 $244 forward $41 $-1 #
edge $-1 $172 -64.192632831812489 $242 64.192632831812489 $164 $245 forward 7 unknown #
coedge $-1 $177 $176 $105 $170 reversed $161 $-1 #
edge $-1 $246 -64.192632831812489 $171 64.192632831812489 $169 $247 forward 7 unknown #
vertex $-1 $107 $248 #
vertex $-1 $183 $249 #
straight-curve $-1 64.192632831812489 0 -13.961387574287768 0 -1 0 I I #
coedge $-1 $163 $165 $108 $175 reversed $101 $-1 #
edge $-1 $178 -28.854262273831399 $181 28.854262273831399 $174 $250 forward 7 unknown #
coedge $-1 $169 $109 $114 $184 forward $161 $-1 #
coedge $-1 $109 $169 $163 $241 reversed $161 $-1 #
vertex $-1 $110 $251 #
straight-curve $-1 0 28.854262273831399 13.961387574287768 -1 0 0 I I #
coedge $-1 $111 $164 $113 $183 reversed $63 $-1 #
vertex $-1 $175 $252 #
straight-curve $-1 0 -28.854262273831399 13.961387574287768 1 0 0 I I #
edge $-1 $116 -13.961387574287768 $172 13.961387574287768 $113 $253 forward 7 unknown #
edge $-1 $117 -13.961387574287768 $171 13.961387574287768 $114 $254 forward 7 unknown #
point $-1 64.192632831812489 -28.854262273831399 13.961387574287768 #
point $-1 64.192632831812489 28.854262273831399 13.961387574287768 #
face $-1 $-1 $204 $16 $-1 $255 reversed single #
loop $-1 $-1 $256 $119 #
plane-surface $-1 -64.192632831812489 0 0 1 0 0 0 0 -1 forward_v I I I I #
coedge $-1 $191 $207 $123 $194 forward $120 $-1 #
coedge $-1 $130 $190 $122 $192 forward $120 $-1 #
edge $-1 $198 0.54546863681653779 $133 7.8840276366330579 $191 $257 forward 7 unknown #
coedge $-1 $124 $123 $256 $258 reversed $45 $-1 #
edge $-1 $259 -36.121251899855508 $198 -20.021509964058453 $190 $260 forward 7 unknown #
coedge $-1 $203 $202 $124 $196 forward $204 $-1 #
edge $-1 $197 20.021509964058453 $261 36.121251899855508 $195 $262 forward 7 unknown #
vertex $-1 $196 $263 #
vertex $-1 $194 $264 #
straight-curve $-1 -48.092890896015433 0 4.7602167735413357 0 -1 0 I I #
coedge $-1 $265 $266 $127 $201 forward $188 $-1 #
edge $-1 $208 -28.854262273831399 $205 28.854262273831399 $200 $267 forward 7 unknown #
coedge $-1 $195 $128 $132 $210 forward $204 $-1 #
coedge $-1 $128 $195 $265 $268 reversed $204 $-1 #
loop $-1 $-1 $195 $187 #
vertex $-1 $268 $269 #
straight-curve $-1 -28.07138093195698 28.854262273831399 12.098775773357856 1 0 0 I I #
coedge $-1 $190 $130 $266 $270 forward $120 $-1 #
vertex $-1 $270 $271 #
straight-curve $-1 -28.07138093195698 -28.854262273831399 12.098775773357856 -1 0 0 I I #
edge $-1 $134 -7.8840276366330579 $197 -0.54546863681653779 $202 $272 forward 7 unknown #
point $-1 -48.092890896015433 -28.854262273831399 12.098775773357856 #
point $-1 -48.092890896015433 28.854262273831399 12.098775773357856 #
plane-surface $-1 0 0 13.961387574287768 0 0 1 1 0 0 forward_v I I I I #
coedge $-1 $224 $223 $216 $273 forward $137 $-1 #
coedge $-1 $216 $139 $141 $220 reversed $79 $-1 #
coedge $-1 $139 $215 $214 $273 reversed $79 $-1 #
coedge $-1 $147 $142 $139 $218 forward $148 $-1 #
edge $-1 $221 14.367312788679996 $274 19.461889938376331 $217 $275 forward 7 unknown #
coedge $-1 $141 $140 $224 $276 reversed $49 $-1 #
edge $-1 $277 -128.38526566362498 $221 -119.91991161613032 $215 $278 forward 7 unknown #
vertex $-1 $143 $279 #
straight-curve $-1 59.098055682116147 -10.043745435077815 13.96138757428777 0 -1 0 I I #
coedge $-1 $214 $144 $147 $228 reversed $137 $-1 #
coedge $-1 $144 $214 $219 $276 forward $137 $-1 #
vertex $-1 $145 $280 #
straight-curve $-1 64.192632831812489 -15.537007300617191 93.498934282737736 0 0 1 I I #
straight-curve $-1 -13.07154739478662 -15.537007300617191 109.73368833887636 0.60181501223851219 0 -0.79863551827123203 I I #
edge $-1 $274 -24.637974439694069 $149 -15.537007300617191 $223 $281 forward 7 unknown #
point $-1 64.192632831812489 -15.537007300617191 13.961387574287768 #
point $-1 59.098055682116154 -15.537007300617191 13.96138757428777 #
edge $-1 $282 1 $282 0 $152 $-1 forward 7 unknown #
vertex $-1 $153 $283 #
ellipse-curve $-1 59.056304737680847 -22.037698114243533 8.6300402055903458 0.79863551827123203 0 0.60181501223851219 0.60181501223851219 0 -0.79863551827123203 1 I I #
point $-1 62.247159269202839 -22.037698114243533 9.7823858474813505 #
edge $-1 $284 1 $284 0 $156 $-1 forward 7 unknown #
vertex $-1 $157 $285 #
ellipse-curve $-1 59.056304737680847 -18.137283626067727 8.6300402055903458 0.79863551827123203 0 0.60181501223851219 0.60181501223851219 0 -0.79863551827123203 1 I I #
point $-1 62.247159269202839 -18.137283626067727 9.7823858474813505 #
plane-surface $-1 64.192632831812489 0 0 -1 0 0 0 0 1 forward_v I I I I #
coedge $-1 $165 $163 $167 $244 reversed $101 $-1 #
edge $-1 $178 -13.961387574287768 $246 13.961387574287768 $177 $286 forward 7 unknown #
vertex $-1 $244 $287 #
straight-curve $-1 -64.192632831812489 -28.854262273831399 0 0 0 -1 I I #
edge $-1 $242 -28.854262273831399 $246 28.854262273831399 $240 $288 forward 7 unknown #
straight-curve $-1 0 -28.854262273831399 -13.961387574287768 -1 0 0 I I #
vertex $-1 $170 $289 #
straight-curve $-1 0 28.854262273831399 -13.961387574287768 1 0 0 I I #
point $-1 64.192632831812489 28.854262273831399 -13.961387574287768 #
point $-1 64.192632831812489 -28.854262273831399 -13.961387574287768 #
straight-curve $-1 -64.192632831812489 0 13.961387574287768 0 -1 0 I I #
point $-1 -64.192632831812489 28.854262273831399 13.961387574287768 #
point $-1 -64.192632831812489 -28.854262273831399 13.961387574287768 #
straight-curve $-1 64.192632831812489 -28.854262273831399 0 0 0 -1 I I #
straight-curve $-1 64.192632831812489 28.854262273831399 0 0 0 -1 I I #
plane-surface $-1 0 28.854262273831399 0 0 -1 0 0 0 -1 forward_v I I I I #
coedge $-1 $266 $265 $193 $258 forward $188 $-1 #
straight-curve $-1 -48.092890896015433 -28.854262273831399 4.2147481367247979 0 0 1 I I #
edge $-1 $261 -28.854262273831399 $259 28.854262273831399 $256 $290 forward 7 unknown #
vertex $-1 $194 $291 #
straight-curve $-1 -28.07138093195698 -28.854262273831399 4.7602167735413357 1 0 0 I I #
vertex $-1 $196 $292 #
straight-curve $-1 -28.07138093195698 28.854262273831399 4.7602167735413357 -1 0 0 I I #
point $-1 -48.092890896015433 28.854262273831399 4.7602167735413357 #
point $-1 -48.092890896015433 -28.854262273831399 4.7602167735413357 #
coedge $-1 $256 $200 $203 $268 forward $188 $-1 #
coedge $-1 $200 $256 $207 $270 reversed $188 $-1 #
straight-curve $-1 -64.192632831812489 0 12.098775773357856 0 1 0 I I #
edge $-1 $205 -12.098775773357856 $261 -4.7602167735413357 $203 $293 forward 7 unknown #
point $-1 -64.192632831812489 28.854262273831399 12.098775773357856 #
edge $-1 $208 -12.098775773357856 $259 -4.7602167735413357 $266 $294 forward 7 unknown #
point $-1 -64.192632831812489 -28.854262273831399 12.098775773357856 #
straight-curve $-1 -48.092890896015433 28.854262273831399 4.2147481367247979 0 0 -1 I I #
edge $-1 $274 79.537546708449966 $277 86.29827912552031 $214 $295 forward 7 unknown #
vertex $-1 $228 $296 #
straight-curve $-1 44.730742893436158 -24.637974439694069 13.96138757428777 1 0 0 I I #
edge $-1 $277 -14.594229004616254 $225 -5.4932618655393757 $224 $297 forward 7 unknown #
vertex $-1 $276 $298 #
straight-curve $-1 -13.07154739478662 -24.637974439694069 109.73368833887636 -0.60181501223851219 0 0.79863551827123203 I I #
point $-1 59.098055682116154 -24.637974439694069 13.96138757428777 #
point $-1 64.192632831812489 -15.537007300617191 7.200655157217426 #
straight-curve $-1 64.192632831812489 0 13.961387574287768 0 1 0 I I #
vertex $-1 $231 $299 #
point $-1 59.658119749919365 -22.037698114243533 7.8314046873191145 #
vertex $-1 $235 $300 #
point $-1 59.658119749919365 -18.137283626067727 7.8314046873191145 #
straight-curve $-1 -64.192632831812489 28.854262273831399 0 0 0 -1 I I #
point $-1 -64.192632831812489 -28.854262273831399 -13.961387574287768 #
straight-curve $-1 -64.192632831812489 0 -13.961387574287768 0 1 0 I I #
point $-1 -64.192632831812489 28.854262273831399 -13.961387574287768 #
straight-curve $-1 -64.192632831812489 0 4.7602167735413357 0 -1 0 I I #
point $-1 -64.192632831812489 -28.854262273831399 4.7602167735413357 #
point $-1 -64.192632831812489 28.854262273831399 4.7602167735413357 #
straight-curve $-1 -64.192632831812489 28.854262273831399 0 0 0 -1 I I #
straight-curve $-1 -64.192632831812489 -28.854262273831399 0 0 0 -1 I I #
straight-curve $-1 64.192632831812489 -24.637974439694069 93.498934282737736 0 0 -1 I I #
point $-1 64.192632831812489 -24.637974439694069 13.961387574287768 #
straight-curve $-1 64.192632831812489 -10.043745435077815 7.2006551572174189 0 1 0 I I #
point $-1 64.192632831812489 -24.637974439694069 7.200655157217426 #
point $-1 58.257669219409621 -22.037698114243533 8.0282251933518349 #
point $-1 58.257669219409621 -18.137283626067727 8.0282251933518349 #
End-of-ACIS-data 