500 0 5 0           
7 Unknown 11 ACIS 5.0 NT 24 Fri Mar 26 15:41:38 1999 
-1 9.9999999999999995e-007 1e-010 
body $-1 $5 $-1 $6 #
body $-1 $7 $-1 $8 #
body $-1 $9 $-1 $10 #
body $-1 $11 $-1 $12 #
body $-1 $13 $-1 $14 #
lump $-1 $-1 $15 $0 #
transform $-1 1 0 0 0 1 0 0 0 1 76.266975920896016 33.72859120669284 16.234953256968296 1 rotate no_reflect no_shear #
lump $-1 $-1 $16 $1 #
transform $-1 1 0 0 0 1 0 0 0 1 76.266975920896016 33.72859120669284 16.234953256968296 1 rotate no_reflect no_shear #
lump $-1 $-1 $17 $2 #
transform $-1 1 0 0 0 1 0 0 0 1 76.266975920896016 33.72859120669284 16.234953256968296 1 rotate no_reflect no_shear #
lump $-1 $-1 $18 $3 #
transform $-1 1 0 0 0 1 0 0 0 1 76.266975920896016 33.72859120669284 16.234953256968296 1 rotate no_reflect no_shear #
lump $-1 $-1 $19 $4 #
transform $-1 1 0 0 0 1 0 0 0 1 76.266975920896016 33.72859120669284 16.234953256968296 1 rotate no_reflect no_shear #
shell $-1 $-1 $-1 $20 $-1 $5 #
shell $-1 $-1 $-1 $21 $-1 $7 #
shell $-1 $-1 $-1 $22 $-1 $9 #
shell $-1 $-1 $-1 $23 $-1 $11 #
shell $-1 $-1 $-1 $24 $-1 $13 #
face $-1 $25 $26 $15 $-1 $27 forward single #
face $-1 $28 $29 $16 $-1 $30 reversed single #
face $-1 $31 $32 $17 $-1 $33 reversed single #
face $-1 $34 $35 $18 $-1 $36 forward single #
face $-1 $37 $38 $19 $-1 $39 reversed single #
face $-1 $40 $41 $15 $-1 $42 reversed single #
loop $-1 $-1 $43 $20 #
plane-surface $-1 0 0 16.234953256968296 0 0 1 1 0 0 forward_v I I I I #
face $-1 $44 $45 $16 $-1 $46 reversed single #
loop $-1 $-1 $47 $21 #
plane-surface $-1 0 -40.129281108108216 12.017839052086558 0 0 1 1 0 0 forward_v I I I I #
face $-1 $48 $49 $17 $-1 $50 reversed single #
loop $-1 $-1 $51 $22 #
plane-surface $-1 0 40.129281108108216 12.017839052086558 0 0 1 1 0 0 forward_v I I I I #
face $-1 $52 $53 $18 $-1 $54 forward single #
loop $-1 $-1 $55 $23 #
plane-surface $-1 -157.0976565187606 13.870339600489196 135.9148343629725 0 1 0 -0.52991927123019833 0 0.84804809178421925 forward_v I I I I #
face $-1 $56 $57 $19 $-1 $58 reversed single #
loop $-1 $59 $60 $24 #
cone-surface $-1 -67.956917864130574 17.398775502175646 10.488731552183898 0.52991927123019833 0 -0.84804809178421925 1.2720721376763289 0 0.79487890684529749 1 I I 0 1 1.5 forward I I I I #
face $-1 $61 $62 $15 $-1 $63 reversed single #
loop $-1 $-1 $64 $25 #
plane-surface $-1 0 0 -16.234953256968296 0 0 1 1 0 0 forward_v I I I I #
coedge $-1 $65 $66 $67 $68 forward $26 $-1 #
face $-1 $69 $70 $16 $-1 $71 forward single #
loop $-1 $-1 $72 $28 #
plane-surface $-1 0 -46.529971009523592 14.126396154527427 0 1 0 0 0 1 forward_v I I I I #
coedge $-1 $73 $74 $75 $76 forward $29 $-1 #
face $-1 $77 $78 $17 $-1 $79 reversed single #
loop $-1 $-1 $80 $31 #
plane-surface $-1 0 46.529971009523592 14.126396154527427 0 -1 0 0 0 -1 forward_v I I I I #
coedge $-1 $81 $82 $83 $84 forward $32 $-1 #
face $-1 $85 $86 $18 $-1 $87 forward single #
loop $-1 $-1 $88 $34 #
plane-surface $-1 -76.266975920896002 17.398775502175646 6.5587075712347769 -0.52991927123019833 0 0.84804809178421925 0.84804809178421925 0 0.52991927123019833 forward_v I I I I #
coedge $-1 $89 $90 $91 $92 reversed $35 $-1 #
face $-1 $93 $94 $19 $-1 $95 forward single #
loop $-1 $96 $97 $37 #
cone-surface $-1 -66.992035252973878 17.398775502175646 8.9445966214280794 0.52991927123019833 0 -0.84804809178421925 0.63603606883816444 0 0.39743945342264875 1 I I -0.70710678118654757 0.70710678118654757 0.75 forward I I I I #
loop $-1 $-1 $98 $24 #
coedge $-1 $60 $60 $99 $100 reversed $38 $-1 #
face $-1 $101 $102 $15 $-1 $103 reversed single #
loop $-1 $-1 $104 $40 #
plane-surface $-1 0 -33.72859120669284 0 0 1 0 0 0 1 forward_v I I I I #
coedge $-1 $105 $106 $107 $108 forward $41 $-1 #
coedge $-1 $109 $43 $110 $111 forward $26 $-1 #
coedge $-1 $43 $109 $112 $113 forward $26 $-1 #
coedge $-1 $114 $115 $43 $68 reversed $116 $-1 #
edge $-1 $117 -33.72859120669284 $118 33.72859120669284 $67 $119 forward 7 unknown #
face $-1 $120 $121 $16 $-1 $122 reversed single #
loop $-1 $-1 $123 $44 #
plane-surface $-1 0 0 16.234953256968296 0 0 1 1 0 0 forward_v I I I I #
coedge $-1 $124 $125 $126 $127 forward $45 $-1 #
coedge $-1 $128 $47 $124 $129 forward $29 $-1 #
coedge $-1 $47 $128 $130 $131 reversed $29 $-1 #
coedge $-1 $132 $133 $47 $76 reversed $134 $-1 #
edge $-1 $135 -6.400689901415376 $136 6.400689901415376 $75 $137 forward 7 unknown #
face $-1 $138 $139 $17 $-1 $140 reversed single #
loop $-1 $-1 $141 $48 #
plane-surface $-1 0 -40.129281108108216 12.017839052086558 0 0 1 1 0 0 forward_v I I I I #
coedge $-1 $142 $143 $144 $145 forward $49 $-1 #
coedge $-1 $146 $51 $147 $148 reversed $32 $-1 #
coedge $-1 $51 $146 $142 $149 forward $32 $-1 #
coedge $-1 $144 $150 $51 $84 reversed $151 $-1 #
edge $-1 $152 -6.400689901415376 $153 6.400689901415376 $83 $154 forward 7 unknown #
face $-1 $155 $156 $18 $-1 $157 forward single #
loop $-1 $-1 $158 $52 #
plane-surface $-1 -157.0976565187606 20.927211403862096 135.9148343629725 0 -1 0 0.52991927123019833 0 -0.84804809178421925 forward_v I I I I #
coedge $-1 $159 $160 $161 $162 reversed $53 $-1 #
coedge $-1 $90 $55 $160 $163 forward $35 $-1 #
coedge $-1 $55 $89 $164 $165 reversed $35 $-1 #
coedge $-1 $166 $161 $55 $92 forward $156 $-1 #
edge $-1 $167 -17.76708213654711 $168 -2.2818523384842848 $91 $169 forward 7 unknown #
face $-1 $170 $171 $19 $-1 $172 forward single #
loop $-1 $-1 $173 $56 #
plane-surface $-1 -157.0976565187606 13.870339600489196 135.9148343629725 0 1 0 -0.52991927123019833 0 0.84804809178421925 forward_v I I I I #
loop $-1 $-1 $174 $37 #
coedge $-1 $97 $97 $98 $175 forward $57 $-1 #
coedge $-1 $98 $98 $97 $175 reversed $59 $-1 #
coedge $-1 $99 $99 $60 $100 forward $171 $-1 #
edge $-1 $176 0 $176 6.2831853071796004 $99 $177 forward 7 unknown #
face $-1 $178 $179 $15 $-1 $180 reversed single #
loop $-1 $-1 $181 $61 #
plane-surface $-1 -76.266975920896016 0 0 1 0 0 0 0 -1 forward_v I I I I #
coedge $-1 $182 $112 $183 $184 forward $62 $-1 #
coedge $-1 $185 $64 $182 $186 forward $41 $-1 #
coedge $-1 $64 $185 $187 $188 forward $41 $-1 #
coedge $-1 $115 $114 $64 $108 reversed $116 $-1 #
edge $-1 $189 -33.72859120669284 $190 33.72859120669284 $107 $191 forward 7 unknown #
coedge $-1 $66 $65 $192 $193 forward $26 $-1 #
coedge $-1 $194 $195 $65 $111 reversed $179 $-1 #
edge $-1 $118 -76.266975920896016 $196 76.266975920896016 $110 $197 forward 7 unknown #
coedge $-1 $104 $198 $66 $113 reversed $62 $-1 #
edge $-1 $199 -76.266975920896016 $117 76.266975920896016 $112 $200 forward 7 unknown #
coedge $-1 $107 $67 $198 $201 forward $116 $-1 #
coedge $-1 $67 $107 $194 $202 reversed $116 $-1 #
loop $-1 $-1 $114 $178 #
vertex $-1 $68 $203 #
vertex $-1 $68 $204 #
straight-curve $-1 76.266975920896016 0 16.234953256968296 0 1 0 I I #
face $-1 $205 $206 $16 $-1 $207 reversed single #
loop $-1 $-1 $208 $69 #
plane-surface $-1 0 0 -16.234953256968296 0 0 1 1 0 0 forward_v I I I I #
coedge $-1 $209 $210 $211 $212 forward $70 $-1 #
coedge $-1 $213 $72 $73 $129 reversed $45 $-1 #
coedge $-1 $72 $213 $210 $214 reversed $45 $-1 #
coedge $-1 $215 $216 $72 $127 reversed $217 $-1 #
edge $-1 $218 -2.1085571024408694 $219 2.1085571024408694 $126 $220 forward 7 unknown #
coedge $-1 $74 $73 $216 $221 forward $29 $-1 #
edge $-1 $136 -76.266975920896016 $219 76.266975920896016 $124 $222 forward 7 unknown #
coedge $-1 $223 $224 $74 $131 forward $206 $-1 #
edge $-1 $135 -76.266975920896016 $225 76.266975920896016 $130 $226 forward 7 unknown #
coedge $-1 $227 $75 $224 $228 forward $134 $-1 #
coedge $-1 $75 $211 $213 $229 forward $134 $-1 #
loop $-1 $-1 $132 $230 #
vertex $-1 $228 $231 #
vertex $-1 $229 $232 #
straight-curve $-1 76.266975920896016 -40.129281108108216 12.017839052086558 0 -1 0 I I #
face $-1 $233 $234 $17 $-1 $235 forward single #
loop $-1 $-1 $236 $77 #
plane-surface $-1 0 -46.529971009523592 14.126396154527427 0 1 0 0 0 1 forward_v I I I I #
coedge $-1 $237 $238 $239 $240 forward $78 $-1 #
coedge $-1 $241 $80 $82 $149 reversed $49 $-1 #
coedge $-1 $80 $241 $242 $243 reversed $49 $-1 #
coedge $-1 $244 $83 $80 $145 reversed $151 $-1 #
edge $-1 $245 -2.1085571024408694 $152 2.1085571024408694 $144 $246 forward 7 unknown #
coedge $-1 $82 $81 $247 $248 forward $32 $-1 #
coedge $-1 $249 $250 $81 $148 forward $251 $-1 #
edge $-1 $252 -76.266975920896016 $153 76.266975920896016 $147 $253 forward 7 unknown #
edge $-1 $254 -76.266975920896016 $152 76.266975920896016 $142 $255 forward 7 unknown #
coedge $-1 $83 $256 $249 $257 reversed $151 $-1 #
loop $-1 $-1 $258 $259 #
vertex $-1 $84 $260 #
vertex $-1 $257 $261 #
straight-curve $-1 76.266975920896016 40.129281108108216 12.017839052086558 0 -1 0 I I #
face $-1 $262 $263 $18 $-1 $264 reversed single #
loop $-1 $-1 $265 $85 #
plane-surface $-1 0 0 16.234953256968296 0 0 1 1 0 0 forward_v I I I I #
coedge $-1 $266 $267 $265 $268 reversed $86 $-1 #
coedge $-1 $269 $88 $267 $270 reversed $53 $-1 #
coedge $-1 $88 $269 $89 $163 reversed $53 $-1 #
coedge $-1 $91 $265 $88 $162 forward $156 $-1 #
edge $-1 $271 -12.227823652774273 $167 -5.1709518494013729 $161 $272 forward 7 unknown #
edge $-1 $167 -18.259848643115554 $273 1.675811683274863e-014 $89 $274 forward 7 unknown #
coedge $-1 $275 $276 $90 $165 forward $277 $-1 #
edge $-1 $168 51.722463924517953 $273 61.39870961025148 $164 $278 forward 7 unknown #
coedge $-1 $279 $91 $276 $280 forward $156 $-1 #
vertex $-1 $162 $281 #
vertex $-1 $280 $282 #
straight-curve $-1 -78.548828259380301 13.870339600489196 16.234953256968296 -1 0 0 I I #
face $-1 $283 $284 $19 $-1 $285 forward single #
loop $-1 $286 $99 $93 #
plane-surface $-1 -76.266975920896002 17.398775502175646 6.5587075712347769 -0.52991927123019833 0 0.84804809178421925 0.84804809178421925 0 0.52991927123019833 forward_v I I I I #
coedge $-1 $287 $288 $289 $290 reversed $94 $-1 #
coedge $-1 $174 $174 $-1 $291 forward $96 $-1 #
edge $-1 $292 0 $292 6.2831853071796004 $97 $293 forward 7 unknown #
vertex $-1 $100 $294 #
ellipse-curve $-1 -68.524361021864607 17.398775502175646 11.396830414101528 0.52991927123019833 0 -0.84804809178421925 1.2720721376763289 0 0.79487890684529749 1 I I #
face $-1 $-1 $116 $15 $-1 $295 reversed single #
loop $-1 $-1 $194 $101 #
plane-surface $-1 0 33.72859120669284 0 0 -1 0 0 0 -1 forward_v I I I I #
coedge $-1 $296 $192 $195 $297 forward $102 $-1 #
coedge $-1 $198 $104 $105 $186 reversed $62 $-1 #
coedge $-1 $192 $296 $104 $184 reversed $102 $-1 #
edge $-1 $199 -16.234953256968296 $298 16.234953256968296 $183 $299 forward 7 unknown #
coedge $-1 $106 $105 $296 $300 forward $41 $-1 #
edge $-1 $190 -76.266975920896016 $298 76.266975920896016 $182 $301 forward 7 unknown #
coedge $-1 $195 $194 $106 $188 reversed $179 $-1 #
edge $-1 $302 -76.266975920896016 $189 76.266975920896016 $187 $303 forward 7 unknown #
vertex $-1 $108 $304 #
vertex $-1 $201 $305 #
straight-curve $-1 76.266975920896016 0 -16.234953256968296 0 -1 0 I I #
coedge $-1 $181 $183 $109 $193 reversed $102 $-1 #
edge $-1 $196 -33.72859120669284 $199 33.72859120669284 $192 $306 forward 7 unknown #
coedge $-1 $187 $110 $115 $202 forward $179 $-1 #
coedge $-1 $110 $187 $181 $297 reversed $179 $-1 #
vertex $-1 $111 $307 #
straight-curve $-1 0 33.72859120669284 16.234953256968296 -1 0 0 I I #
coedge $-1 $112 $182 $114 $201 reversed $62 $-1 #
vertex $-1 $193 $308 #
straight-curve $-1 0 -33.72859120669284 16.234953256968296 1 0 0 I I #
edge $-1 $117 -16.234953256968296 $190 16.234953256968296 $114 $309 forward 7 unknown #
edge $-1 $118 -16.234953256968296 $189 16.234953256968296 $115 $310 forward 7 unknown #
point $-1 76.266975920896016 -33.72859120669284 16.234953256968296 #
point $-1 76.266975920896016 33.72859120669284 16.234953256968296 #
face $-1 $311 $217 $16 $-1 $312 reversed single #
loop $-1 $-1 $130 $120 #
plane-surface $-1 0 -33.72859120669284 0 0 1 0 0 0 1 forward_v I I I I #
coedge $-1 $313 $314 $227 $315 forward $121 $-1 #
coedge $-1 $316 $123 $317 $318 forward $70 $-1 #
coedge $-1 $123 $316 $125 $214 forward $70 $-1 #
coedge $-1 $133 $319 $123 $212 reversed $134 $-1 #
edge $-1 $320 -46.529971009523592 $321 33.72859120669284 $211 $322 forward 7 unknown #
coedge $-1 $125 $124 $133 $229 reversed $45 $-1 #
edge $-1 $218 -76.266975920896016 $320 76.266975920896016 $125 $323 forward 7 unknown #
coedge $-1 $324 $126 $316 $325 reversed $217 $-1 #
coedge $-1 $126 $326 $128 $221 reversed $217 $-1 #
loop $-1 $-1 $324 $205 #
vertex $-1 $325 $327 #
vertex $-1 $221 $328 #
straight-curve $-1 -76.266975920896016 -46.529971009523592 14.126396154527427 0 0 -1 I I #
edge $-1 $219 -6.400689901415376 $225 6.400689901415376 $216 $329 forward 7 unknown #
straight-curve $-1 0 -46.529971009523592 12.017839052086558 -1 0 0 I I #
coedge $-1 $330 $130 $326 $331 forward $206 $-1 #
coedge $-1 $130 $330 $132 $228 reversed $206 $-1 #
vertex $-1 $331 $332 #
straight-curve $-1 0 -33.72859120669284 12.017839052086558 -1 0 0 I I #
coedge $-1 $319 $132 $208 $315 reversed $134 $-1 #
edge $-1 $135 -12.017839052086558 $333 16.234953256968296 $132 $334 forward 7 unknown #
edge $-1 $320 -2.1085571024408694 $136 2.1085571024408694 $133 $335 forward 7 unknown #
face $-1 $-1 $134 $16 $-1 $336 reversed single #
point $-1 76.266975920896016 -33.72859120669284 12.017839052086558 #
point $-1 76.266975920896016 -46.529971009523592 12.017839052086558 #
face $-1 $337 $338 $17 $-1 $339 reversed single #
loop $-1 $-1 $340 $138 #
plane-surface $-1 0 0 16.234953256968296 0 0 1 1 0 0 forward_v I I I I #
coedge $-1 $341 $342 $343 $344 forward $139 $-1 #
coedge $-1 $345 $141 $341 $346 forward $78 $-1 #
coedge $-1 $141 $345 $347 $348 reversed $78 $-1 #
coedge $-1 $258 $349 $141 $240 reversed $151 $-1 #
edge $-1 $350 -6.400689901415376 $351 6.400689901415376 $239 $352 forward 7 unknown #
coedge $-1 $143 $142 $353 $354 reversed $49 $-1 #
coedge $-1 $355 $340 $143 $243 forward $234 $-1 #
edge $-1 $245 -76.266975920896016 $356 76.266975920896016 $143 $357 forward 7 unknown #
coedge $-1 $349 $144 $340 $358 reversed $151 $-1 #
vertex $-1 $358 $359 #
straight-curve $-1 76.266975920896016 46.529971009523592 14.126396154527427 0 0 -1 I I #
coedge $-1 $360 $353 $146 $248 reversed $361 $-1 #
edge $-1 $252 -6.400689901415376 $254 6.400689901415376 $247 $362 forward 7 unknown #
coedge $-1 $363 $147 $150 $257 forward $251 $-1 #
coedge $-1 $147 $363 $360 $364 reversed $251 $-1 #
loop $-1 $-1 $147 $365 #
vertex $-1 $364 $366 #
straight-curve $-1 0 33.72859120669284 12.017839052086558 1 0 0 I I #
vertex $-1 $149 $367 #
straight-curve $-1 0 46.529971009523592 12.017839052086558 1 0 0 I I #
coedge $-1 $150 $258 $368 $369 reversed $151 $-1 #
edge $-1 $153 -12.017839052086558 $370 16.234953256968296 $150 $371 forward 7 unknown #
coedge $-1 $256 $239 $372 $373 forward $151 $-1 #
face $-1 $-1 $151 $17 $-1 $374 reversed single #
point $-1 76.266975920896016 46.529971009523592 12.017839052086558 #
point $-1 76.266975920896016 33.72859120669284 12.017839052086558 #
face $-1 $375 $376 $18 $-1 $377 reversed single #
loop $-1 $-1 $378 $155 #
plane-surface $-1 0 40.129281108108216 12.017839052086558 0 0 1 1 0 0 forward_v I I I I #
coedge $-1 $161 $379 $158 $268 forward $156 $-1 #
coedge $-1 $267 $158 $380 $381 reversed $86 $-1 #
coedge $-1 $158 $266 $159 $270 forward $86 $-1 #
edge $-1 $382 2.2818523384842848 $271 17.76708213654711 $265 $383 forward 7 unknown #
coedge $-1 $160 $159 $275 $384 reversed $53 $-1 #
edge $-1 $385 -1.675811683274863e-014 $271 18.259848643115554 $267 $386 forward 7 unknown #
vertex $-1 $162 $387 #
straight-curve $-1 -60.781746122833191 8.6993877510878228 16.234953256968296 0 -1 0 I I #
vertex $-1 $384 $388 #
straight-curve $-1 -76.266975920896002 13.870339600489196 6.5587075712347769 -0.84804809178421925 0 -0.52991927123019833 I I #
coedge $-1 $380 $164 $269 $384 forward $277 $-1 #
coedge $-1 $164 $389 $166 $280 reversed $277 $-1 #
loop $-1 $-1 $380 $390 #
straight-curve $-1 -76.266975920896016 13.870339600489196 67.95741718148625 0 0 -1 I I #
coedge $-1 $391 $166 $392 $393 forward $156 $-1 #
edge $-1 $168 -13.870339600489196 $394 46.529971009523592 $276 $395 forward 7 unknown #
point $-1 -60.781746122833191 13.870339600489196 16.234953256968296 #
point $-1 -76.266975920896016 13.870339600489196 16.234953256968296 #
face $-1 $396 $397 $19 $-1 $398 forward single #
loop $-1 $-1 $399 $170 #
plane-surface $-1 -157.0976565187606 20.927211403862096 135.9148343629725 0 -1 0 0.52991927123019833 0 -0.84804809178421925 forward_v I I I I #
loop $-1 $-1 $400 $93 #
coedge $-1 $288 $173 $401 $402 forward $94 $-1 #
coedge $-1 $173 $287 $403 $404 reversed $94 $-1 #
coedge $-1 $405 $406 $173 $290 forward $397 $-1 #
edge $-1 $407 -17.76708213654711 $408 -2.2818523384842848 $289 $409 forward 7 unknown #
edge $-1 $410 1 $410 0 $174 $-1 forward 7 unknown #
vertex $-1 $175 $411 #
ellipse-curve $-1 -67.389474706396527 17.398775502175646 9.5806326902662438 -0.52991927123019833 0 0.84804809178421925 1.2720721376763289 0 0.79487890684529749 1 I I #
point $-1 -67.252288884188303 17.398775502175646 12.191709320946853 #
plane-surface $-1 76.266975920896016 0 0 -1 0 0 0 0 1 forward_v I I I I #
coedge $-1 $183 $181 $185 $300 reversed $102 $-1 #
edge $-1 $196 -16.234953256968296 $302 16.234953256968296 $195 $412 forward 7 unknown #
vertex $-1 $300 $413 #
straight-curve $-1 -76.266975920896016 -33.72859120669284 0 0 0 -1 I I #
edge $-1 $298 -33.72859120669284 $302 33.72859120669284 $296 $414 forward 7 unknown #
straight-curve $-1 0 -33.72859120669284 -16.234953256968296 -1 0 0 I I #
vertex $-1 $188 $415 #
straight-curve $-1 0 33.72859120669284 -16.234953256968296 1 0 0 I I #
point $-1 76.266975920896016 33.72859120669284 -16.234953256968296 #
point $-1 76.266975920896016 -33.72859120669284 -16.234953256968296 #
straight-curve $-1 -76.266975920896016 0 16.234953256968296 0 -1 0 I I #
point $-1 -76.266975920896016 33.72859120669284 16.234953256968296 #
point $-1 -76.266975920896016 -33.72859120669284 16.234953256968296 #
straight-curve $-1 76.266975920896016 -33.72859120669284 0 0 0 -1 I I #
straight-curve $-1 76.266975920896016 33.72859120669284 0 0 0 -1 I I #
face $-1 $230 $416 $16 $-1 $417 reversed single #
plane-surface $-1 -76.266975920896016 0 0 1 0 0 0 0 -1 forward_v I I I I #
coedge $-1 $418 $208 $330 $419 forward $121 $-1 #
coedge $-1 $208 $418 $420 $421 forward $121 $-1 #
edge $-1 $422 -33.72859120669284 $333 33.72859120669284 $227 $423 forward 7 unknown #
coedge $-1 $210 $209 $215 $325 forward $70 $-1 #
coedge $-1 $424 $425 $209 $318 reversed $416 $-1 #
edge $-1 $321 -76.266975920896016 $426 76.266975920896016 $317 $427 forward 7 unknown #
coedge $-1 $211 $227 $424 $428 reversed $134 $-1 #
vertex $-1 $212 $429 #
vertex $-1 $212 $430 #
straight-curve $-1 76.266975920896016 0 16.234953256968296 0 1 0 I I #
straight-curve $-1 0 -46.529971009523592 16.234953256968296 1 0 0 I I #
coedge $-1 $431 $215 $425 $432 forward $217 $-1 #
edge $-1 $426 -33.72859120669284 $218 46.529971009523592 $215 $433 forward 7 unknown #
coedge $-1 $216 $431 $223 $331 reversed $217 $-1 #
point $-1 -76.266975920896016 -46.529971009523592 16.234953256968296 #
point $-1 -76.266975920896016 -46.529971009523592 12.017839052086558 #
straight-curve $-1 -76.266975920896016 -40.129281108108216 12.017839052086558 0 1 0 I I #
coedge $-1 $224 $223 $313 $419 reversed $206 $-1 #
edge $-1 $225 -12.017839052086558 $434 16.234953256968296 $326 $435 forward 7 unknown #
point $-1 -76.266975920896016 -33.72859120669284 12.017839052086558 #
vertex $-1 $228 $436 #
straight-curve $-1 76.266975920896016 -33.72859120669284 0 0 0 -1 I I #
straight-curve $-1 76.266975920896016 -46.529971009523592 14.126396154527427 0 0 -1 I I #
plane-surface $-1 76.266975920896016 0 0 -1 0 0 0 0 1 forward_v I I I I #
face $-1 $437 $438 $17 $-1 $439 reversed single #
loop $-1 $-1 $368 $233 #
plane-surface $-1 0 0 -16.234953256968296 0 0 1 1 0 0 forward_v I I I I #
coedge $-1 $242 $440 $244 $358 forward $234 $-1 #
coedge $-1 $441 $236 $237 $346 reversed $139 $-1 #
coedge $-1 $236 $441 $440 $442 reversed $139 $-1 #
coedge $-1 $443 $444 $236 $344 reversed $361 $-1 #
edge $-1 $445 -2.1085571024408694 $446 2.1085571024408694 $343 $447 forward 7 unknown #
coedge $-1 $238 $237 $444 $448 forward $78 $-1 #
edge $-1 $351 -76.266975920896016 $446 76.266975920896016 $341 $449 forward 7 unknown #
coedge $-1 $450 $372 $238 $348 forward $438 $-1 #
edge $-1 $350 -76.266975920896016 $451 76.266975920896016 $347 $452 forward 7 unknown #
coedge $-1 $239 $244 $441 $453 forward $151 $-1 #
vertex $-1 $373 $454 #
vertex $-1 $453 $455 #
straight-curve $-1 76.266975920896016 -40.129281108108216 12.017839052086558 0 -1 0 I I #
coedge $-1 $247 $443 $241 $354 forward $361 $-1 #
edge $-1 $356 -2.1085571024408694 $254 2.1085571024408694 $241 $456 forward 7 unknown #
coedge $-1 $440 $242 $443 $457 forward $234 $-1 #
vertex $-1 $243 $458 #
straight-curve $-1 0 46.529971009523592 16.234953256968296 -1 0 0 I I #
edge $-1 $459 -46.529971009523592 $245 46.529971009523592 $244 $460 forward 7 unknown #
point $-1 76.266975920896016 46.529971009523592 16.234953256968296 #
coedge $-1 $461 $247 $250 $364 forward $361 $-1 #
loop $-1 $-1 $360 $437 #
straight-curve $-1 -76.266975920896016 40.129281108108216 12.017839052086558 0 1 0 I I #
coedge $-1 $250 $249 $462 $463 reversed $251 $-1 #
edge $-1 $252 -12.017839052086558 $464 16.234953256968296 $250 $465 forward 7 unknown #
face $-1 $259 $251 $17 $-1 $466 reversed single #
point $-1 -76.266975920896016 33.72859120669284 12.017839052086558 #
point $-1 -76.266975920896016 46.529971009523592 12.017839052086558 #
coedge $-1 $467 $462 $256 $369 forward $338 $-1 #
edge $-1 $370 -33.72859120669284 $468 33.72859120669284 $256 $469 forward 7 unknown #
vertex $-1 $369 $470 #
straight-curve $-1 76.266975920896016 33.72859120669284 0 0 0 -1 I I #
coedge $-1 $347 $471 $258 $373 reversed $438 $-1 #
edge $-1 $350 -12.017839052086558 $468 16.234953256968296 $258 $472 forward 7 unknown #
plane-surface $-1 76.266975920896016 0 0 -1 0 0 0 0 1 forward_v I I I I #
face $-1 $473 $474 $18 $-1 $475 reversed single #
loop $-1 $-1 $476 $262 #
plane-surface $-1 0 46.529971009523592 14.126396154527427 0 -1 0 0 0 -1 forward_v I I I I #
coedge $-1 $477 $478 $479 $480 forward $263 $-1 #
coedge $-1 $265 $481 $482 $483 forward $156 $-1 #
coedge $-1 $482 $275 $266 $381 forward $277 $-1 #
edge $-1 $385 -61.39870961025148 $382 -51.722463924517953 $380 $484 forward 7 unknown #
vertex $-1 $381 $485 #
straight-curve $-1 -78.548828259380301 20.927211403862096 16.234953256968296 1 0 0 I I #
edge $-1 $273 5.1709518494013729 $385 12.227823652774273 $275 $486 forward 7 unknown #
vertex $-1 $384 $487 #
straight-curve $-1 -76.266975920896002 20.927211403862096 6.5587075712347769 0.84804809178421925 0 0.52991927123019833 I I #
point $-1 -60.781746122833191 20.927211403862096 16.234953256968296 #
point $-1 -76.266975920896016 13.870339600489196 6.558707571234768 #
coedge $-1 $276 $488 $489 $490 reversed $277 $-1 #
face $-1 $491 $277 $18 $-1 $492 reversed single #
coedge $-1 $481 $279 $493 $494 forward $156 $-1 #
coedge $-1 $489 $495 $279 $393 reversed $496 $-1 #
edge $-1 $394 -76.266975920896016 $497 76.266975920896016 $392 $498 forward 7 unknown #
vertex $-1 $280 $499 #
straight-curve $-1 -76.266975920896016 0 16.234953256968296 0 -1 0 I I #
face $-1 $500 $501 $19 $-1 $502 reversed single #
loop $-1 $-1 $503 $283 #
plane-surface $-1 0 0 16.234953256968296 0 0 1 1 0 0 forward_v I I I I #
coedge $-1 $504 $505 $503 $506 reversed $284 $-1 #
coedge $-1 $507 $401 $406 $508 reversed $286 $-1 #
coedge $-1 $400 $509 $287 $402 reversed $286 $-1 #
edge $-1 $407 -18.259848643115554 $510 1.675811683274863e-014 $287 $511 forward 7 unknown #
coedge $-1 $512 $513 $288 $404 forward $514 $-1 #
edge $-1 $408 51.722463924517953 $510 61.39870961025148 $403 $515 forward 7 unknown #
coedge $-1 $516 $289 $513 $517 forward $397 $-1 #
coedge $-1 $289 $503 $400 $508 forward $397 $-1 #
vertex $-1 $508 $518 #
vertex $-1 $517 $519 #
straight-curve $-1 -78.548828259380301 13.870339600489196 16.234953256968296 -1 0 0 I I #
vertex $-1 $291 $520 #
point $-1 -66.117402568720195 17.398775502175646 10.375511597111542 #
straight-curve $-1 -76.266975920896016 33.72859120669284 0 0 0 -1 I I #
point $-1 -76.266975920896016 -33.72859120669284 -16.234953256968296 #
straight-curve $-1 -76.266975920896016 0 -16.234953256968296 0 1 0 I I #
point $-1 -76.266975920896016 33.72859120669284 -16.234953256968296 #
loop $-1 $-1 $424 $311 #
plane-surface $-1 0 33.72859120669284 0 0 -1 0 0 0 -1 forward_v I I I I #
coedge $-1 $314 $313 $431 $521 forward $121 $-1 #
edge $-1 $333 -76.266975920896016 $434 76.266975920896016 $330 $522 forward 7 unknown #
coedge $-1 $425 $424 $314 $421 reversed $416 $-1 #
edge $-1 $523 -76.266975920896016 $422 76.266975920896016 $420 $524 forward 7 unknown #
vertex $-1 $315 $525 #
straight-curve $-1 76.266975920896016 0 -16.234953256968296 0 -1 0 I I #
coedge $-1 $420 $317 $319 $428 forward $416 $-1 #
coedge $-1 $317 $420 $324 $432 reversed $416 $-1 #
vertex $-1 $318 $526 #
straight-curve $-1 0 33.72859120669284 16.234953256968296 -1 0 0 I I #
edge $-1 $321 -16.234953256968296 $422 16.234953256968296 $319 $527 forward 7 unknown #
point $-1 76.266975920896016 -46.529971009523592 16.234953256968296 #
point $-1 76.266975920896016 33.72859120669284 16.234953256968296 #
coedge $-1 $326 $324 $418 $521 reversed $217 $-1 #
edge $-1 $426 -16.234953256968296 $523 16.234953256968296 $425 $528 forward 7 unknown #
straight-curve $-1 -76.266975920896016 0 16.234953256968296 0 -1 0 I I #
vertex $-1 $521 $529 #
straight-curve $-1 -76.266975920896016 -33.72859120669284 0 0 0 -1 I I #
point $-1 76.266975920896016 -33.72859120669284 -16.234953256968296 #
face $-1 $365 $361 $17 $-1 $530 reversed single #
loop $-1 $-1 $347 $337 #
plane-surface $-1 0 -33.72859120669284 0 0 1 0 0 0 1 forward_v I I I I #
coedge $-1 $340 $355 $342 $442 forward $234 $-1 #
coedge $-1 $342 $341 $349 $453 reversed $139 $-1 #
edge $-1 $445 -76.266975920896016 $459 76.266975920896016 $342 $531 forward 7 unknown #
coedge $-1 $353 $343 $355 $457 reversed $361 $-1 #
coedge $-1 $343 $532 $345 $448 reversed $361 $-1 #
vertex $-1 $457 $533 #
vertex $-1 $448 $534 #
straight-curve $-1 -76.266975920896016 -46.529971009523592 14.126396154527427 0 0 -1 I I #
edge $-1 $446 -6.400689901415376 $451 6.400689901415376 $444 $535 forward 7 unknown #
straight-curve $-1 0 -46.529971009523592 12.017839052086558 -1 0 0 I I #
coedge $-1 $471 $347 $532 $536 forward $438 $-1 #
vertex $-1 $536 $537 #
straight-curve $-1 0 -33.72859120669284 12.017839052086558 -1 0 0 I I #
edge $-1 $459 -2.1085571024408694 $351 2.1085571024408694 $349 $538 forward 7 unknown #
point $-1 76.266975920896016 -33.72859120669284 12.017839052086558 #
point $-1 76.266975920896016 -46.529971009523592 12.017839052086558 #
straight-curve $-1 -76.266975920896016 46.529971009523592 14.126396154527427 0 0 -1 I I #
edge $-1 $356 -46.529971009523592 $445 46.529971009523592 $443 $539 forward 7 unknown #
point $-1 -76.266975920896016 46.529971009523592 16.234953256968296 #
vertex $-1 $358 $540 #
straight-curve $-1 76.266975920896016 0 16.234953256968296 0 1 0 I I #
coedge $-1 $532 $360 $541 $542 reversed $361 $-1 #
coedge $-1 $368 $541 $363 $463 forward $338 $-1 #
edge $-1 $464 -76.266975920896016 $370 76.266975920896016 $363 $543 forward 7 unknown #
vertex $-1 $463 $544 #
straight-curve $-1 -76.266975920896016 33.72859120669284 0 0 0 -1 I I #
plane-surface $-1 0 33.72859120669284 0 0 -1 0 0 0 -1 forward_v I I I I #
coedge $-1 $541 $368 $471 $545 forward $338 $-1 #
vertex $-1 $373 $546 #
straight-curve $-1 76.266975920896016 0 -16.234953256968296 0 -1 0 I I #
point $-1 76.266975920896016 33.72859120669284 -16.234953256968296 #
coedge $-1 $372 $450 $467 $545 reversed $438 $-1 #
straight-curve $-1 76.266975920896016 -33.72859120669284 0 0 0 -1 I I #
face $-1 $547 $496 $18 $-1 $548 reversed single #
loop $-1 $-1 $549 $375 #
plane-surface $-1 0 -40.129281108108216 12.017839052086558 0 0 1 1 0 0 forward_v I I I I #
coedge $-1 $550 $551 $552 $553 forward $376 $-1 #
coedge $-1 $554 $378 $555 $556 reversed $263 $-1 #
coedge $-1 $378 $554 $550 $557 forward $263 $-1 #
coedge $-1 $552 $558 $378 $480 reversed $559 $-1 #
edge $-1 $560 -6.400689901415376 $561 6.400689901415376 $479 $562 forward 7 unknown #
coedge $-1 $379 $391 $551 $563 forward $156 $-1 #
coedge $-1 $564 $380 $379 $483 reversed $277 $-1 #
edge $-1 $565 -46.529971009523592 $382 -20.927211403862096 $482 $395 forward 7 unknown #
straight-curve $-1 -76.266975920896016 20.927211403862096 67.95741718148625 0 0 1 I I #
point $-1 -76.266975920896016 20.927211403862096 16.234953256968296 #
straight-curve $-1 -76.266975920896016 8.6993877510878228 6.5587075712347715 0 1 0 I I #
point $-1 -76.266975920896016 20.927211403862096 6.558707571234768 #
coedge $-1 $389 $566 $567 $568 reversed $277 $-1 #
coedge $-1 $569 $392 $389 $490 forward $496 $-1 #
edge $-1 $394 -2.1085571024408694 $570 2.1085571024408694 $389 $571 forward 7 unknown #
face $-1 $572 $573 $18 $-1 $574 reversed single #
plane-surface $-1 -76.266975920896016 0 0 1 0 0 0 0 -1 forward_v I I I I #
coedge $-1 $575 $552 $391 $494 reversed $559 $-1 #
edge $-1 $497 -46.529971009523592 $576 46.529971009523592 $493 $577 forward 7 unknown #
coedge $-1 $392 $569 $575 $578 reversed $496 $-1 #
loop $-1 $-1 $489 $473 #
vertex $-1 $494 $579 #
straight-curve $-1 0 -46.529971009523592 16.234953256968296 1 0 0 I I #
point $-1 -76.266975920896016 -46.529971009523592 16.234953256968296 #
face $-1 $580 $581 $19 $-1 $582 reversed single #
loop $-1 $-1 $583 $396 #
plane-surface $-1 0 40.129281108108216 12.017839052086558 0 0 1 1 0 0 forward_v I I I I #
coedge $-1 $406 $584 $399 $506 forward $397 $-1 #
coedge $-1 $505 $399 $585 $586 reversed $284 $-1 #
coedge $-1 $399 $504 $507 $587 forward $284 $-1 #
edge $-1 $588 2.2818523384842848 $589 17.76708213654711 $503 $590 forward 7 unknown #
coedge $-1 $509 $400 $505 $587 reversed $286 $-1 #
edge $-1 $589 -12.227823652774273 $407 -5.1709518494013729 $406 $591 forward 7 unknown #
coedge $-1 $401 $507 $512 $592 reversed $286 $-1 #
vertex $-1 $592 $593 #
straight-curve $-1 -76.266975920896002 13.870339600489196 6.5587075712347769 -0.84804809178421925 0 -0.52991927123019833 I I #
coedge $-1 $585 $403 $509 $592 forward $514 $-1 #
coedge $-1 $403 $594 $405 $517 reversed $514 $-1 #
loop $-1 $-1 $585 $595 #
straight-curve $-1 -76.266975920896016 13.870339600489196 67.95741718148625 0 0 -1 I I #
coedge $-1 $596 $405 $597 $598 forward $397 $-1 #
edge $-1 $408 -13.870339600489196 $599 46.529971009523592 $513 $600 forward 7 unknown #
point $-1 -60.781746122833191 13.870339600489196 16.234953256968296 #
point $-1 -76.266975920896016 13.870339600489196 16.234953256968296 #
point $-1 -66.594595799551229 17.398775502175646 8.3085605525899151 #
edge $-1 $434 -33.72859120669284 $523 33.72859120669284 $431 $601 forward 7 unknown #
straight-curve $-1 0 -33.72859120669284 -16.234953256968296 -1 0 0 I I #
vertex $-1 $421 $602 #
straight-curve $-1 0 33.72859120669284 -16.234953256968296 1 0 0 I I #
point $-1 76.266975920896016 33.72859120669284 -16.234953256968296 #
point $-1 -76.266975920896016 33.72859120669284 16.234953256968296 #
straight-curve $-1 76.266975920896016 33.72859120669284 0 0 0 -1 I I #
straight-curve $-1 -76.266975920896016 33.72859120669284 0 0 0 -1 I I #
point $-1 -76.266975920896016 -33.72859120669284 -16.234953256968296 #
plane-surface $-1 -76.266975920896016 0 0 1 0 0 0 0 -1 forward_v I I I I #
straight-curve $-1 0 -46.529971009523592 16.234953256968296 1 0 0 I I #
coedge $-1 $444 $461 $450 $536 reversed $361 $-1 #
point $-1 -76.266975920896016 -46.529971009523592 16.234953256968296 #
point $-1 -76.266975920896016 -46.529971009523592 12.017839052086558 #
straight-curve $-1 -76.266975920896016 -40.129281108108216 12.017839052086558 0 1 0 I I #
edge $-1 $451 -12.017839052086558 $603 16.234953256968296 $532 $604 forward 7 unknown #
point $-1 -76.266975920896016 -33.72859120669284 12.017839052086558 #
straight-curve $-1 76.266975920896016 -46.529971009523592 14.126396154527427 0 0 -1 I I #
straight-curve $-1 -76.266975920896016 0 16.234953256968296 0 -1 0 I I #
point $-1 76.266975920896016 -46.529971009523592 16.234953256968296 #
coedge $-1 $462 $467 $461 $542 forward $338 $-1 #
edge $-1 $603 -33.72859120669284 $464 33.72859120669284 $461 $605 forward 7 unknown #
straight-curve $-1 0 33.72859120669284 -16.234953256968296 1 0 0 I I #
point $-1 -76.266975920896016 33.72859120669284 -16.234953256968296 #
edge $-1 $468 -76.266975920896016 $603 76.266975920896016 $471 $606 forward 7 unknown #
point $-1 76.266975920896016 -33.72859120669284 -16.234953256968296 #
face $-1 $607 $608 $18 $-1 $609 reversed single #
plane-surface $-1 0 -46.529971009523592 14.126396154527427 0 1 0 0 0 1 forward_v I I I I #
coedge $-1 $610 $611 $612 $613 forward $474 $-1 #
coedge $-1 $614 $476 $478 $557 reversed $376 $-1 #
coedge $-1 $476 $614 $481 $563 reversed $376 $-1 #
coedge $-1 $493 $479 $476 $553 reversed $559 $-1 #
edge $-1 $576 -2.1085571024408694 $560 2.1085571024408694 $552 $615 forward 7 unknown #
coedge $-1 $478 $477 $616 $617 forward $263 $-1 #
coedge $-1 $618 $619 $477 $556 forward $573 $-1 #
edge $-1 $620 -76.266975920896016 $561 76.266975920896016 $555 $621 forward 7 unknown #
edge $-1 $622 -76.266975920896016 $560 76.266975920896016 $550 $623 forward 7 unknown #
coedge $-1 $479 $624 $618 $625 reversed $559 $-1 #
loop $-1 $-1 $626 $572 #
vertex $-1 $480 $627 #
vertex $-1 $625 $628 #
straight-curve $-1 76.266975920896016 40.129281108108216 12.017839052086558 0 -1 0 I I #
edge $-1 $576 -76.266975920896016 $565 76.266975920896016 $551 $629 forward 7 unknown #
coedge $-1 $616 $482 $614 $630 forward $277 $-1 #
vertex $-1 $563 $631 #
coedge $-1 $488 $632 $633 $634 reversed $277 $-1 #
coedge $-1 $611 $610 $488 $568 forward $474 $-1 #
edge $-1 $570 -6.400689901415376 $635 6.400689901415376 $488 $636 forward 7 unknown #
coedge $-1 $495 $489 $610 $637 reversed $496 $-1 #
vertex $-1 $568 $638 #
straight-curve $-1 -76.266975920896016 -46.529971009523592 14.126396154527427 0 0 -1 I I #
face $-1 $-1 $559 $18 $-1 $639 reversed single #
loop $-1 $-1 $555 $491 #
plane-surface $-1 0 33.72859120669284 0 0 -1 0 0 0 -1 forward_v I I I I #
coedge $-1 $612 $493 $495 $578 forward $559 $-1 #
vertex $-1 $494 $640 #
straight-curve $-1 76.266975920896016 0 16.234953256968296 0 1 0 I I #
edge $-1 $497 -2.1085571024408694 $641 2.1085571024408694 $575 $642 forward 7 unknown #
point $-1 76.266975920896016 -46.529971009523592 16.234953256968296 #
face $-1 $643 $644 $19 $-1 $645 reversed single #
loop $-1 $-1 $646 $500 #
plane-surface $-1 0 46.529971009523592 14.126396154527427 0 -1 0 0 0 -1 forward_v I I I I #
coedge $-1 $647 $648 $649 $650 forward $501 $-1 #
coedge $-1 $503 $651 $652 $653 forward $397 $-1 #
coedge $-1 $652 $512 $504 $586 forward $514 $-1 #
edge $-1 $654 -61.39870961025148 $588 -51.722463924517953 $585 $655 forward 7 unknown #
edge $-1 $654 -1.675811683274863e-014 $589 18.259848643115554 $505 $656 forward 7 unknown #
vertex $-1 $586 $657 #
vertex $-1 $508 $658 #
straight-curve $-1 -78.548828259380301 20.927211403862096 16.234953256968296 1 0 0 I I #
straight-curve $-1 -60.781746122833191 8.6993877510878228 16.234953256968296 0 -1 0 I I #
edge $-1 $510 5.1709518494013729 $654 12.227823652774273 $512 $659 forward 7 unknown #
point $-1 -76.266975920896016 13.870339600489196 6.558707571234768 #
coedge $-1 $513 $660 $661 $662 reversed $514 $-1 #
face $-1 $663 $514 $19 $-1 $664 reversed single #
coedge $-1 $651 $516 $665 $666 forward $397 $-1 #
coedge $-1 $661 $667 $516 $598 reversed $668 $-1 #
edge $-1 $599 -76.266975920896016 $669 76.266975920896016 $597 $670 forward 7 unknown #
vertex $-1 $517 $671 #
straight-curve $-1 -76.266975920896016 0 16.234953256968296 0 -1 0 I I #
straight-curve $-1 -76.266975920896016 0 -16.234953256968296 0 1 0 I I #
point $-1 -76.266975920896016 33.72859120669284 -16.234953256968296 #
vertex $-1 $542 $672 #
straight-curve $-1 -76.266975920896016 -33.72859120669284 0 0 0 -1 I I #
straight-curve $-1 -76.266975920896016 0 -16.234953256968296 0 1 0 I I #
straight-curve $-1 0 -33.72859120669284 -16.234953256968296 -1 0 0 I I #
face $-1 $390 $673 $18 $-1 $674 reversed single #
loop $-1 $-1 $675 $547 #
plane-surface $-1 0 0 -16.234953256968296 0 0 1 1 0 0 forward_v I I I I #
coedge $-1 $567 $549 $569 $637 forward $474 $-1 #
coedge $-1 $549 $567 $676 $677 reversed $474 $-1 #
coedge $-1 $626 $575 $549 $613 reversed $559 $-1 #
edge $-1 $678 -6.400689901415376 $641 6.400689901415376 $612 $679 forward 7 unknown #
coedge $-1 $551 $550 $564 $630 reversed $376 $-1 #
straight-curve $-1 76.266975920896016 46.529971009523592 14.126396154527427 0 0 -1 I I #
coedge $-1 $680 $564 $554 $617 reversed $277 $-1 #
edge $-1 $620 -6.400689901415376 $622 6.400689901415376 $616 $681 forward 7 unknown #
coedge $-1 $682 $555 $558 $625 forward $573 $-1 #
coedge $-1 $555 $682 $680 $683 reversed $573 $-1 #
vertex $-1 $683 $684 #
straight-curve $-1 0 33.72859120669284 12.017839052086558 1 0 0 I I #
vertex $-1 $557 $685 #
straight-curve $-1 0 46.529971009523592 12.017839052086558 1 0 0 I I #
coedge $-1 $558 $626 $675 $686 reversed $559 $-1 #
edge $-1 $561 -12.017839052086558 $687 16.234953256968296 $558 $688 forward 7 unknown #
coedge $-1 $624 $612 $689 $690 forward $559 $-1 #
point $-1 76.266975920896016 46.529971009523592 12.017839052086558 #
point $-1 76.266975920896016 33.72859120669284 12.017839052086558 #
straight-curve $-1 0 46.529971009523592 16.234953256968296 -1 0 0 I I #
edge $-1 $565 -2.1085571024408694 $622 2.1085571024408694 $614 $691 forward 7 unknown #
point $-1 -76.266975920896016 46.529971009523592 16.234953256968296 #
coedge $-1 $566 $680 $692 $693 reversed $277 $-1 #
coedge $-1 $694 $676 $566 $634 forward $673 $-1 #
edge $-1 $635 -12.017839052086558 $695 16.234953256968296 $566 $696 forward 7 unknown #
vertex $-1 $634 $697 #
straight-curve $-1 -76.266975920896016 -40.129281108108216 12.017839052086558 0 1 0 I I #
edge $-1 $641 -76.266975920896016 $570 76.266975920896016 $569 $698 forward 7 unknown #
point $-1 -76.266975920896016 -46.529971009523592 12.017839052086558 #
plane-surface $-1 76.266975920896016 0 0 -1 0 0 0 0 1 forward_v I I I I #
point $-1 76.266975920896016 46.529971009523592 16.234953256968296 #
vertex $-1 $578 $699 #
straight-curve $-1 76.266975920896016 -46.529971009523592 14.126396154527427 0 0 -1 I I #
face $-1 $700 $668 $19 $-1 $701 reversed single #
loop $-1 $-1 $702 $580 #
plane-surface $-1 0 -40.129281108108216 12.017839052086558 0 0 1 1 0 0 forward_v I I I I #
coedge $-1 $703 $704 $705 $706 forward $581 $-1 #
coedge $-1 $707 $583 $708 $709 reversed $501 $-1 #
coedge $-1 $583 $707 $703 $710 forward $501 $-1 #
coedge $-1 $705 $711 $583 $650 reversed $712 $-1 #
edge $-1 $713 -6.400689901415376 $714 6.400689901415376 $649 $715 forward 7 unknown #
coedge $-1 $584 $596 $704 $716 forward $397 $-1 #
coedge $-1 $717 $585 $584 $653 reversed $514 $-1 #
edge $-1 $718 -46.529971009523592 $588 -20.927211403862096 $652 $600 forward 7 unknown #
vertex $-1 $592 $719 #
straight-curve $-1 -76.266975920896016 20.927211403862096 67.95741718148625 0 0 1 I I #
straight-curve $-1 -76.266975920896002 20.927211403862096 6.5587075712347769 0.84804809178421925 0 0.52991927123019833 I I #
point $-1 -76.266975920896016 20.927211403862096 16.234953256968296 #
point $-1 -60.781746122833191 20.927211403862096 16.234953256968296 #
straight-curve $-1 -76.266975920896016 8.6993877510878228 6.5587075712347715 0 1 0 I I #
coedge $-1 $594 $720 $721 $722 reversed $514 $-1 #
coedge $-1 $723 $597 $594 $662 forward $668 $-1 #
edge $-1 $599 -2.1085571024408694 $724 2.1085571024408694 $594 $725 forward 7 unknown #
face $-1 $726 $727 $19 $-1 $728 reversed single #
plane-surface $-1 -76.266975920896016 0 0 1 0 0 0 0 -1 forward_v I I I I #
coedge $-1 $729 $705 $596 $666 reversed $712 $-1 #
edge $-1 $669 -46.529971009523592 $730 46.529971009523592 $665 $731 forward 7 unknown #
coedge $-1 $597 $723 $729 $732 reversed $668 $-1 #
loop $-1 $-1 $661 $643 #
vertex $-1 $666 $733 #
straight-curve $-1 0 -46.529971009523592 16.234953256968296 1 0 0 I I #
point $-1 -76.266975920896016 -46.529971009523592 16.234953256968296 #
point $-1 -76.266975920896016 -33.72859120669284 -16.234953256968296 #
loop $-1 $-1 $676 $607 #
plane-surface $-1 0 -33.72859120669284 0 0 1 0 0 0 1 forward_v I I I I #
coedge $-1 $734 $735 $624 $686 forward $608 $-1 #
coedge $-1 $633 $689 $611 $677 forward $673 $-1 #
edge $-1 $678 -76.266975920896016 $635 76.266975920896016 $676 $736 forward 7 unknown #
vertex $-1 $690 $737 #
straight-curve $-1 76.266975920896016 -40.129281108108216 12.017839052086558 0 -1 0 I I #
coedge $-1 $632 $616 $619 $683 forward $277 $-1 #
straight-curve $-1 -76.266975920896016 40.129281108108216 12.017839052086558 0 1 0 I I #
coedge $-1 $619 $618 $735 $738 reversed $573 $-1 #
edge $-1 $620 -12.017839052086558 $739 16.234953256968296 $619 $740 forward 7 unknown #
point $-1 -76.266975920896016 33.72859120669284 12.017839052086558 #
point $-1 -76.266975920896016 46.529971009523592 12.017839052086558 #
edge $-1 $687 -33.72859120669284 $741 33.72859120669284 $624 $742 forward 7 unknown #
vertex $-1 $686 $743 #
straight-curve $-1 76.266975920896016 33.72859120669284 0 0 0 -1 I I #
coedge $-1 $676 $694 $626 $690 reversed $673 $-1 #
edge $-1 $678 -12.017839052086558 $741 16.234953256968296 $626 $744 forward 7 unknown #
straight-curve $-1 -76.266975920896016 46.529971009523592 14.126396154527427 0 0 -1 I I #
coedge $-1 $735 $734 $632 $693 forward $608 $-1 #
edge $-1 $695 -33.72859120669284 $739 33.72859120669284 $632 $745 forward 7 unknown #
coedge $-1 $689 $633 $734 $746 reversed $673 $-1 #
vertex $-1 $693 $747 #
straight-curve $-1 -76.266975920896016 -33.72859120669284 0 0 0 -1 I I #
point $-1 -76.266975920896016 -33.72859120669284 12.017839052086558 #
straight-curve $-1 0 -46.529971009523592 12.017839052086558 -1 0 0 I I #
point $-1 76.266975920896016 -46.529971009523592 12.017839052086558 #
face $-1 $748 $749 $19 $-1 $750 reversed single #
plane-surface $-1 0 -46.529971009523592 14.126396154527427 0 1 0 0 0 1 forward_v I I I I #
coedge $-1 $751 $752 $753 $754 forward $644 $-1 #
coedge $-1 $755 $646 $648 $710 reversed $581 $-1 #
coedge $-1 $646 $755 $651 $716 reversed $581 $-1 #
coedge $-1 $665 $649 $646 $706 reversed $712 $-1 #
edge $-1 $730 -2.1085571024408694 $713 2.1085571024408694 $705 $756 forward 7 unknown #
coedge $-1 $648 $647 $757 $758 forward $501 $-1 #
coedge $-1 $759 $760 $647 $709 forward $727 $-1 #
edge $-1 $761 -76.266975920896016 $714 76.266975920896016 $708 $762 forward 7 unknown #
edge $-1 $763 -76.266975920896016 $713 76.266975920896016 $703 $764 forward 7 unknown #
coedge $-1 $649 $765 $759 $766 reversed $712 $-1 #
loop $-1 $-1 $767 $726 #
vertex $-1 $650 $768 #
vertex $-1 $766 $769 #
straight-curve $-1 76.266975920896016 40.129281108108216 12.017839052086558 0 -1 0 I I #
edge $-1 $730 -76.266975920896016 $718 76.266975920896016 $704 $770 forward 7 unknown #
coedge $-1 $757 $652 $755 $771 forward $514 $-1 #
vertex $-1 $716 $772 #
point $-1 -76.266975920896016 20.927211403862096 6.558707571234768 #
coedge $-1 $660 $773 $774 $775 reversed $514 $-1 #
coedge $-1 $752 $751 $660 $722 forward $644 $-1 #
edge $-1 $724 -6.400689901415376 $776 6.400689901415376 $660 $777 forward 7 unknown #
coedge $-1 $667 $661 $751 $778 reversed $668 $-1 #
vertex $-1 $722 $779 #
straight-curve $-1 -76.266975920896016 -46.529971009523592 14.126396154527427 0 0 -1 I I #
face $-1 $-1 $712 $19 $-1 $780 reversed single #
loop $-1 $-1 $708 $663 #
plane-surface $-1 0 33.72859120669284 0 0 -1 0 0 0 -1 forward_v I I I I #
coedge $-1 $753 $665 $667 $732 forward $712 $-1 #
vertex $-1 $666 $781 #
straight-curve $-1 76.266975920896016 0 16.234953256968296 0 1 0 I I #
edge $-1 $669 -2.1085571024408694 $782 2.1085571024408694 $729 $783 forward 7 unknown #
point $-1 76.266975920896016 -46.529971009523592 16.234953256968296 #
coedge $-1 $692 $675 $694 $746 forward $608 $-1 #
coedge $-1 $675 $692 $682 $738 forward $608 $-1 #
straight-curve $-1 0 -33.72859120669284 12.017839052086558 -1 0 0 I I #
point $-1 76.266975920896016 -33.72859120669284 12.017839052086558 #
edge $-1 $739 -76.266975920896016 $687 76.266975920896016 $682 $784 forward 7 unknown #
vertex $-1 $738 $785 #
straight-curve $-1 -76.266975920896016 33.72859120669284 0 0 0 -1 I I #
vertex $-1 $690 $786 #
straight-curve $-1 76.266975920896016 0 -16.234953256968296 0 -1 0 I I #
point $-1 76.266975920896016 33.72859120669284 -16.234953256968296 #
straight-curve $-1 76.266975920896016 -33.72859120669284 0 0 0 -1 I I #
straight-curve $-1 -76.266975920896016 0 -16.234953256968296 0 1 0 I I #
edge $-1 $741 -76.266975920896016 $695 76.266975920896016 $694 $787 forward 7 unknown #
point $-1 -76.266975920896016 -33.72859120669284 -16.234953256968296 #
face $-1 $595 $788 $19 $-1 $789 reversed single #
loop $-1 $-1 $790 $700 #
plane-surface $-1 0 0 -16.234953256968296 0 0 1 1 0 0 forward_v I I I I #
coedge $-1 $721 $702 $723 $778 forward $644 $-1 #
coedge $-1 $702 $721 $791 $792 reversed $644 $-1 #
coedge $-1 $767 $729 $702 $754 reversed $712 $-1 #
edge $-1 $793 -6.400689901415376 $782 6.400689901415376 $753 $794 forward 7 unknown #
coedge $-1 $704 $703 $717 $771 reversed $581 $-1 #
straight-curve $-1 76.266975920896016 46.529971009523592 14.126396154527427 0 0 -1 I I #
coedge $-1 $795 $717 $707 $758 reversed $514 $-1 #
edge $-1 $761 -6.400689901415376 $763 6.400689901415376 $757 $796 forward 7 unknown #
coedge $-1 $797 $708 $711 $766 forward $727 $-1 #
coedge $-1 $708 $797 $795 $798 reversed $727 $-1 #
vertex $-1 $798 $799 #
straight-curve $-1 0 33.72859120669284 12.017839052086558 1 0 0 I I #
vertex $-1 $710 $800 #
straight-curve $-1 0 46.529971009523592 12.017839052086558 1 0 0 I I #
coedge $-1 $711 $767 $790 $801 reversed $712 $-1 #
edge $-1 $714 -12.017839052086558 $802 16.234953256968296 $711 $803 forward 7 unknown #
coedge $-1 $765 $753 $804 $805 forward $712 $-1 #
point $-1 76.266975920896016 46.529971009523592 12.017839052086558 #
point $-1 76.266975920896016 33.72859120669284 12.017839052086558 #
straight-curve $-1 0 46.529971009523592 16.234953256968296 -1 0 0 I I #
edge $-1 $718 -2.1085571024408694 $763 2.1085571024408694 $755 $806 forward 7 unknown #
point $-1 -76.266975920896016 46.529971009523592 16.234953256968296 #
coedge $-1 $720 $795 $807 $808 reversed $514 $-1 #
coedge $-1 $809 $791 $720 $775 forward $788 $-1 #
edge $-1 $776 -12.017839052086558 $810 16.234953256968296 $720 $811 forward 7 unknown #
vertex $-1 $775 $812 #
straight-curve $-1 -76.266975920896016 -40.129281108108216 12.017839052086558 0 1 0 I I #
edge $-1 $782 -76.266975920896016 $724 76.266975920896016 $723 $813 forward 7 unknown #
point $-1 -76.266975920896016 -46.529971009523592 12.017839052086558 #
plane-surface $-1 76.266975920896016 0 0 -1 0 0 0 0 1 forward_v I I I I #
point $-1 76.266975920896016 46.529971009523592 16.234953256968296 #
vertex $-1 $732 $814 #
straight-curve $-1 76.266975920896016 -46.529971009523592 14.126396154527427 0 0 -1 I I #
straight-curve $-1 0 33.72859120669284 -16.234953256968296 1 0 0 I I #
point $-1 -76.266975920896016 33.72859120669284 -16.234953256968296 #
point $-1 76.266975920896016 -33.72859120669284 -16.234953256968296 #
straight-curve $-1 0 -33.72859120669284 -16.234953256968296 -1 0 0 I I #
loop $-1 $-1 $791 $748 #
plane-surface $-1 0 -33.72859120669284 0 0 1 0 0 0 1 forward_v I I I I #
coedge $-1 $815 $816 $765 $801 forward $749 $-1 #
coedge $-1 $774 $804 $752 $792 forward $788 $-1 #
edge $-1 $793 -76.266975920896016 $776 76.266975920896016 $791 $817 forward 7 unknown #
vertex $-1 $805 $818 #
straight-curve $-1 76.266975920896016 -40.129281108108216 12.017839052086558 0 -1 0 I I #
coedge $-1 $773 $757 $760 $798 forward $514 $-1 #
straight-curve $-1 -76.266975920896016 40.129281108108216 12.017839052086558 0 1 0 I I #
coedge $-1 $760 $759 $816 $819 reversed $727 $-1 #
edge $-1 $761 -12.017839052086558 $820 16.234953256968296 $760 $821 forward 7 unknown #
point $-1 -76.266975920896016 33.72859120669284 12.017839052086558 #
point $-1 -76.266975920896016 46.529971009523592 12.017839052086558 #
edge $-1 $802 -33.72859120669284 $822 33.72859120669284 $765 $823 forward 7 unknown #
vertex $-1 $801 $824 #
straight-curve $-1 76.266975920896016 33.72859120669284 0 0 0 -1 I I #
coedge $-1 $791 $809 $767 $805 reversed $788 $-1 #
edge $-1 $793 -12.017839052086558 $822 16.234953256968296 $767 $825 forward 7 unknown #
straight-curve $-1 -76.266975920896016 46.529971009523592 14.126396154527427 0 0 -1 I I #
coedge $-1 $816 $815 $773 $808 forward $749 $-1 #
edge $-1 $810 -33.72859120669284 $820 33.72859120669284 $773 $826 forward 7 unknown #
coedge $-1 $804 $774 $815 $827 reversed $788 $-1 #
vertex $-1 $808 $828 #
straight-curve $-1 -76.266975920896016 -33.72859120669284 0 0 0 -1 I I #
point $-1 -76.266975920896016 -33.72859120669284 12.017839052086558 #
straight-curve $-1 0 -46.529971009523592 12.017839052086558 -1 0 0 I I #
point $-1 76.266975920896016 -46.529971009523592 12.017839052086558 #
coedge $-1 $807 $790 $809 $827 forward $749 $-1 #
coedge $-1 $790 $807 $797 $819 forward $749 $-1 #
straight-curve $-1 0 -33.72859120669284 12.017839052086558 -1 0 0 I I #
point $-1 76.266975920896016 -33.72859120669284 12.017839052086558 #
edge $-1 $820 -76.266975920896016 $802 76.266975920896016 $797 $829 forward 7 unknown #
vertex $-1 $819 $830 #
straight-curve $-1 -76.266975920896016 33.72859120669284 0 0 0 -1 I I #
vertex $-1 $805 $831 #
straight-curve $-1 76.266975920896016 0 -16.234953256968296 0 -1 0 I I #
point $-1 76.266975920896016 33.72859120669284 -16.234953256968296 #
straight-curve $-1 76.266975920896016 -33.72859120669284 0 0 0 -1 I I #
straight-curve $-1 -76.266975920896016 0 -16.234953256968296 0 1 0 I I #
edge $-1 $822 -76.266975920896016 $810 76.266975920896016 $809 $832 forward 7 unknown #
point $-1 -76.266975920896016 -33.72859120669284 -16.234953256968296 #
straight-curve $-1 0 33.72859120669284 -16.234953256968296 1 0 0 I I #
point $-1 -76.266975920896016 33.72859120669284 -16.234953256968296 #
point $-1 76.266975920896016 -33.72859120669284 -16.234953256968296 #
straight-curve $-1 0 -33.72859120669284 -16.234953256968296 -1 0 0 I I #
End-of-ACIS-data 