500 0 16 0           
7 Unknown 11 ACIS 5.0 NT 24 Thu Mar 25 16:36:39 1999 
-1 9.9999999999999995e-007 1e-010 
body $-1 $16 $-1 $17 #
body $-1 $18 $-1 $19 #
body $-1 $20 $-1 $21 #
body $-1 $22 $-1 $23 #
body $-1 $24 $-1 $25 #
body $-1 $26 $-1 $27 #
body $-1 $28 $-1 $29 #
body $-1 $30 $-1 $31 #
body $-1 $32 $-1 $33 #
body $-1 $34 $-1 $35 #
body $-1 $36 $-1 $37 #
body $-1 $38 $-1 $39 #
body $-1 $40 $-1 $41 #
body $-1 $42 $-1 $43 #
body $-1 $44 $-1 $45 #
body $-1 $46 $-1 $47 #
lump $-1 $-1 $48 $0 #
transform $-1 1 0 0 0 1 0 0 0 1 77.914975432599874 53.688023966411727 22.85956004431857 1 rotate no_reflect no_shear #
lump $-1 $-1 $49 $1 #
transform $-1 1 0 0 0 1 0 0 0 1 77.914975432599874 53.688023966411727 22.85956004431857 1 rotate no_reflect no_shear #
lump $-1 $-1 $50 $2 #
transform $-1 1 0 0 0 1 0 0 0 1 77.914975432599874 53.688023966411727 22.85956004431857 1 rotate no_reflect no_shear #
lump $-1 $-1 $51 $3 #
transform $-1 1 0 0 0 1 0 0 0 1 77.914975432599874 53.688023966411727 22.85956004431857 1 rotate no_reflect no_shear #
lump $-1 $-1 $52 $4 #
transform $-1 1 0 0 0 1 0 0 0 1 77.914975432599874 53.688023966411727 22.85956004431857 1 rotate no_reflect no_shear #
lump $-1 $-1 $53 $5 #
transform $-1 1 0 0 0 1 0 0 0 1 77.914975432599874 53.688023966411727 22.85956004431857 1 rotate no_reflect no_shear #
lump $-1 $-1 $54 $6 #
transform $-1 1 0 0 0 1 0 0 0 1 77.914975432599874 53.688023966411727 22.85956004431857 1 rotate no_reflect no_shear #
lump $-1 $-1 $55 $7 #
transform $-1 1 0 0 0 1 0 0 0 1 77.914975432599874 53.688023966411727 22.85956004431857 1 rotate no_reflect no_shear #
lump $-1 $-1 $56 $8 #
transform $-1 1 0 0 0 1 0 0 0 1 77.914975432599874 53.688023966411727 22.85956004431857 1 rotate no_reflect no_shear #
lump $-1 $-1 $57 $9 #
transform $-1 1 0 0 0 1 0 0 0 1 77.914975432599874 53.688023966411727 22.85956004431857 1 rotate no_reflect no_shear #
lump $-1 $-1 $58 $10 #
transform $-1 1 0 0 0 1 0 0 0 1 77.914975432599874 53.688023966411727 22.85956004431857 1 rotate no_reflect no_shear #
lump $-1 $-1 $59 $11 #
transform $-1 1 0 0 0 1 0 0 0 1 77.914975432599874 53.688023966411727 22.85956004431857 1 rotate no_reflect no_shear #
lump $-1 $-1 $60 $12 #
transform $-1 1 0 0 0 1 0 0 0 1 77.914975432599874 53.688023966411727 22.85956004431857 1 rotate no_reflect no_shear #
lump $-1 $-1 $61 $13 #
transform $-1 1 0 0 0 1 0 0 0 1 77.914975432599874 53.688023966411727 22.85956004431857 1 rotate no_reflect no_shear #
lump $-1 $-1 $62 $14 #
transform $-1 1 0 0 0 1 0 0 0 1 77.914975432599874 53.688023966411727 22.85956004431857 1 rotate no_reflect no_shear #
lump $-1 $-1 $63 $15 #
transform $-1 1 0 0 0 1 0 0 0 1 77.914975432599874 53.688023966411727 22.85956004431857 1 rotate no_reflect no_shear #
shell $-1 $-1 $-1 $64 $-1 $16 #
shell $-1 $-1 $-1 $65 $-1 $18 #
shell $-1 $-1 $-1 $66 $-1 $20 #
shell $-1 $-1 $-1 $67 $-1 $22 #
shell $-1 $-1 $-1 $68 $-1 $24 #
shell $-1 $-1 $-1 $69 $-1 $26 #
shell $-1 $-1 $-1 $70 $-1 $28 #
shell $-1 $-1 $-1 $71 $-1 $30 #
shell $-1 $-1 $-1 $72 $-1 $32 #
shell $-1 $-1 $-1 $73 $-1 $34 #
shell $-1 $-1 $-1 $74 $-1 $36 #
shell $-1 $-1 $-1 $75 $-1 $38 #
shell $-1 $-1 $-1 $76 $-1 $40 #
shell $-1 $-1 $-1 $77 $-1 $42 #
shell $-1 $-1 $-1 $78 $-1 $44 #
shell $-1 $-1 $-1 $79 $-1 $46 #
face $-1 $80 $81 $48 $-1 $82 forward single #
face $-1 $83 $84 $49 $-1 $85 reversed single #
face $-1 $86 $87 $50 $-1 $88 forward single #
face $-1 $89 $90 $51 $-1 $91 forward single #
face $-1 $92 $93 $52 $-1 $94 reversed single #
face $-1 $95 $96 $53 $-1 $97 forward single #
face $-1 $98 $99 $54 $-1 $100 forward single #
face $-1 $101 $102 $55 $-1 $103 reversed single #
face $-1 $104 $105 $56 $-1 $106 forward single #
face $-1 $107 $108 $57 $-1 $109 forward single #
face $-1 $110 $111 $58 $-1 $112 reversed single #
face $-1 $113 $114 $59 $-1 $115 forward single #
face $-1 $116 $117 $60 $-1 $118 forward single #
face $-1 $119 $120 $61 $-1 $121 reversed single #
face $-1 $122 $123 $62 $-1 $124 forward single #
face $-1 $125 $126 $63 $-1 $127 forward single #
face $-1 $128 $129 $48 $-1 $130 reversed single #
loop $-1 $-1 $131 $64 #
plane-surface $-1 0 0 22.85956004431857 0 0 1 1 0 0 forward_v I I I I #
face $-1 $132 $133 $49 $-1 $134 reversed single #
loop $-1 $-1 $135 $65 #
plane-surface $-1 -55.209609487799725 100.84935734180587 196.60644165697136 1 0 0 0 -0.75470958851134928 -0.65605901945558964 forward_v I I I I #
face $-1 $136 $137 $50 $-1 $138 forward single #
loop $-1 $139 $140 $66 #
cone-surface $-1 -50.566146124514077 48.148538634087217 16.880548458290239 0 -0.75470958851134928 -0.65605901945558964 1 0 0 1 I I 0 1 1 forward I I I I #
face $-1 $141 $142 $51 $-1 $143 forward single #
loop $-1 $144 $145 $67 #
cone-surface $-1 -43.600951079585592 48.148538634087217 16.880548458290239 0 -0.75470958851134928 -0.65605901945558964 1 0 0 1 I I 0 1 1 forward I I I I #
face $-1 $146 $147 $52 $-1 $148 reversed single #
loop $-1 $-1 $149 $68 #
plane-surface $-1 -16.252121771499787 100.84935734180587 196.60644165697136 1 0 0 0 -0.75470958851134928 -0.65605901945558964 forward_v I I I I #
face $-1 $150 $151 $53 $-1 $152 forward single #
loop $-1 $153 $154 $69 #
cone-surface $-1 -11.60865840821414 48.148538634087217 16.880548458290239 0 -0.75470958851134928 -0.65605901945558964 1 0 0 1 I I 0 1 1 forward I I I I #
face $-1 $155 $156 $54 $-1 $157 forward single #
loop $-1 $158 $159 $70 #
cone-surface $-1 -4.6434633632856617 48.148538634087217 16.880548458290239 0 -0.75470958851134928 -0.65605901945558964 1 0 0 1 I I 0 1 1 forward I I I I #
face $-1 $160 $161 $55 $-1 $162 reversed single #
loop $-1 $-1 $163 $71 #
plane-surface $-1 22.70536594480015 100.84935734180587 196.60644165697136 1 0 0 0 -0.75470958851134928 -0.65605901945558964 forward_v I I I I #
face $-1 $164 $165 $56 $-1 $166 forward single #
loop $-1 $167 $168 $72 #
cone-surface $-1 27.348829308085783 48.148538634087217 16.880548458290239 0 -0.75470958851134928 -0.65605901945558964 1 0 0 1 I I 0 1 1 forward I I I I #
face $-1 $169 $170 $57 $-1 $171 forward single #
loop $-1 $172 $173 $73 #
cone-surface $-1 34.314024353014275 48.148538634087217 16.880548458290239 0 -0.75470958851134928 -0.65605901945558964 1 0 0 1 I I 0 1 1 forward I I I I #
face $-1 $174 $175 $58 $-1 $176 reversed single #
loop $-1 $-1 $177 $74 #
plane-surface $-1 61.662853661100087 100.84935734180587 196.60644165697136 1 0 0 0 -0.75470958851134928 -0.65605901945558964 forward_v I I I I #
face $-1 $178 $179 $59 $-1 $180 forward single #
loop $-1 $181 $182 $75 #
cone-surface $-1 66.30631702438572 48.148538634087217 16.880548458290239 0 -0.75470958851134928 -0.65605901945558964 1 0 0 1 I I 0 1 1 forward I I I I #
face $-1 $183 $184 $60 $-1 $185 forward single #
loop $-1 $186 $187 $76 #
cone-surface $-1 73.271512069314213 48.148538634087217 16.880548458290239 0 -0.75470958851134928 -0.65605901945558964 1 0 0 1 I I 0 1 1 forward I I I I #
face $-1 $188 $189 $61 $-1 $190 reversed single #
loop $-1 $-1 $191 $77 #
plane-surface $-1 12.727285103755353 -189.97997114388858 87.064062499179443 -1 0 0 0 -0.87461971476443456 0.48480960649040278 forward_v I I I I #
face $-1 $192 $193 $62 $-1 $194 forward single #
loop $-1 $195 $196 $78 #
cone-surface $-1 -17.897710471610282 -48.35052595320478 15.971930426860593 0 0.87461971476443456 -0.48480960649040278 2 0 0 1 I I 0 1 2 forward I I I I #
face $-1 $197 $198 $63 $-1 $199 forward single #
loop $-1 $200 $201 $79 #
cone-surface $-1 0.47728687360910271 -48.35052595320478 15.971930426860593 0 0.87461971476443456 -0.48480960649040278 2 0 0 1 I I 0 1 2 forward I I I I #
face $-1 $202 $203 $48 $-1 $204 reversed single #
loop $-1 $-1 $205 $80 #
plane-surface $-1 0 0 -22.85956004431857 0 0 1 1 0 0 forward_v I I I I #
coedge $-1 $206 $207 $208 $209 forward $81 $-1 #
face $-1 $210 $211 $49 $-1 $212 reversed single #
loop $-1 $-1 $213 $83 #
plane-surface $-1 -47.083548602049831 -16.757000753412811 94.372796890535696 0 0.75470958851134928 0.65605901945558964 1 0 0 forward_v I I I I #
coedge $-1 $214 $215 $216 $217 reversed $84 $-1 #
face $-1 $-1 $218 $50 $-1 $219 forward single #
loop $-1 $220 $221 $86 #
cone-surface $-1 -50.566146124514077 46.371457476166348 15.33575541510362 0 -0.75470958851134928 -0.65605901945558964 0.5 0 0 1 I I -0.70710678118654746 0.70710678118654746 0.5 forward I I I I #
loop $-1 $-1 $222 $66 #
coedge $-1 $140 $140 $223 $224 reversed $87 $-1 #
face $-1 $-1 $225 $51 $-1 $226 forward single #
loop $-1 $227 $228 $89 #
cone-surface $-1 -43.600951079585592 46.371457476166348 15.33575541510362 0 -0.75470958851134928 -0.65605901945558964 0.5 0 0 1 I I -0.70710678118654746 0.70710678118654746 0.5 forward I I I I #
loop $-1 $-1 $229 $67 #
coedge $-1 $145 $145 $230 $231 reversed $90 $-1 #
face $-1 $232 $233 $52 $-1 $234 reversed single #
loop $-1 $-1 $235 $92 #
plane-surface $-1 -8.1260608857498937 -16.757000753412811 94.372796890535696 0 0.75470958851134928 0.65605901945558964 1 0 0 forward_v I I I I #
coedge $-1 $236 $237 $238 $239 reversed $93 $-1 #
face $-1 $-1 $240 $53 $-1 $241 forward single #
loop $-1 $242 $243 $95 #
cone-surface $-1 -11.60865840821414 46.371457476166348 15.33575541510362 0 -0.75470958851134928 -0.65605901945558964 0.5 0 0 1 I I -0.70710678118654746 0.70710678118654746 0.5 forward I I I I #
loop $-1 $-1 $244 $69 #
coedge $-1 $154 $154 $245 $246 reversed $96 $-1 #
face $-1 $-1 $247 $54 $-1 $248 forward single #
loop $-1 $249 $250 $98 #
cone-surface $-1 -4.6434633632856617 46.371457476166348 15.33575541510362 0 -0.75470958851134928 -0.65605901945558964 0.5 0 0 1 I I -0.70710678118654746 0.70710678118654746 0.5 forward I I I I #
loop $-1 $-1 $251 $70 #
coedge $-1 $159 $159 $252 $253 reversed $99 $-1 #
face $-1 $254 $255 $55 $-1 $256 reversed single #
loop $-1 $-1 $257 $101 #
plane-surface $-1 30.831426830550043 -16.757000753412811 94.372796890535696 0 0.75470958851134928 0.65605901945558964 1 0 0 forward_v I I I I #
coedge $-1 $258 $259 $260 $261 reversed $102 $-1 #
face $-1 $-1 $262 $56 $-1 $263 forward single #
loop $-1 $264 $265 $104 #
cone-surface $-1 27.348829308085783 46.371457476166348 15.33575541510362 0 -0.75470958851134928 -0.65605901945558964 0.5 0 0 1 I I -0.70710678118654746 0.70710678118654746 0.5 forward I I I I #
loop $-1 $-1 $266 $72 #
coedge $-1 $168 $168 $267 $268 reversed $105 $-1 #
face $-1 $-1 $269 $57 $-1 $270 forward single #
loop $-1 $271 $272 $107 #
cone-surface $-1 34.314024353014275 46.371457476166348 15.33575541510362 0 -0.75470958851134928 -0.65605901945558964 0.5 0 0 1 I I -0.70710678118654746 0.70710678118654746 0.5 forward I I I I #
loop $-1 $-1 $273 $73 #
coedge $-1 $173 $173 $274 $275 reversed $108 $-1 #
face $-1 $276 $277 $58 $-1 $278 forward single #
loop $-1 $-1 $279 $110 #
plane-surface $-1 69.788914546849981 -16.757000753412811 94.372796890535696 0 0.75470958851134928 0.65605901945558964 1 0 0 forward_v I I I I #
coedge $-1 $280 $281 $282 $283 reversed $111 $-1 #
face $-1 $-1 $284 $59 $-1 $285 forward single #
loop $-1 $286 $287 $113 #
cone-surface $-1 66.30631702438572 46.371457476166348 15.33575541510362 0 -0.75470958851134928 -0.65605901945558964 0.5 0 0 1 I I -0.70710678118654746 0.70710678118654746 0.5 forward I I I I #
loop $-1 $-1 $288 $75 #
coedge $-1 $182 $182 $289 $290 reversed $114 $-1 #
face $-1 $-1 $291 $60 $-1 $292 forward single #
loop $-1 $293 $294 $116 #
cone-surface $-1 73.271512069314213 46.371457476166348 15.33575541510362 0 -0.75470958851134928 -0.65605901945558964 0.5 0 0 1 I I -0.70710678118654746 0.70710678118654746 0.5 forward I I I I #
loop $-1 $-1 $295 $76 #
coedge $-1 $187 $187 $296 $297 reversed $117 $-1 #
face $-1 $298 $299 $61 $-1 $300 reversed single #
loop $-1 $-1 $301 $119 #
plane-surface $-1 -8.7102117990005894 -53.68802396641172 11.516205340803154 0 -0.87461971476443456 0.48480960649040278 1 0 0 forward_v I I I I #
coedge $-1 $302 $303 $304 $305 reversed $120 $-1 #
face $-1 $-1 $306 $62 $-1 $307 forward single #
loop $-1 $308 $309 $122 #
cone-surface $-1 -17.897710471610282 -45.282270201620207 14.27116855466992 0 0.87461971476443456 -0.48480960649040278 1 0 0 1 I I -0.70710678118654746 0.70710678118654746 1 forward I I I I #
loop $-1 $-1 $310 $78 #
coedge $-1 $196 $196 $311 $312 reversed $123 $-1 #
face $-1 $-1 $313 $63 $-1 $314 forward single #
loop $-1 $315 $316 $125 #
cone-surface $-1 0.47728687360910271 -45.282270201620207 14.27116855466992 0 0.87461971476443456 -0.48480960649040278 1 0 0 1 I I -0.70710678118654746 0.70710678118654746 1 forward I I I I #
loop $-1 $-1 $317 $79 #
coedge $-1 $201 $201 $318 $319 reversed $126 $-1 #
face $-1 $320 $321 $48 $-1 $322 reversed single #
loop $-1 $-1 $323 $128 #
plane-surface $-1 0 -53.688023966411727 0 0 1 0 0 0 1 forward_v I I I I #
coedge $-1 $324 $325 $326 $327 forward $129 $-1 #
coedge $-1 $328 $131 $329 $330 forward $81 $-1 #
coedge $-1 $131 $328 $331 $332 forward $81 $-1 #
coedge $-1 $333 $334 $131 $209 reversed $335 $-1 #
edge $-1 $336 -53.688023966411727 $337 53.688023966411727 $208 $338 forward 7 unknown #
face $-1 $339 $340 $49 $-1 $341 reversed single #
loop $-1 $-1 $342 $132 #
plane-surface $-1 -38.957487716299937 100.84935734180587 196.60644165697136 -1 0 0 0 0.75470958851134928 0.65605901945558964 forward_v I I I I #
coedge $-1 $343 $344 $345 $346 reversed $133 $-1 #
coedge $-1 $215 $135 $347 $348 reversed $84 $-1 #
coedge $-1 $135 $214 $343 $349 reversed $84 $-1 #
coedge $-1 $345 $350 $135 $217 forward $351 $-1 #
edge $-1 $352 -3.2633452955087918 $353 5.0161726418098027 $216 $354 forward 7 unknown #
loop $-1 $-1 $223 $136 #
plane-surface $-1 -47.083548602049831 -16.757000753412811 94.372796890535696 0 0.75470958851134928 0.65605901945558964 1 0 0 forward_v I I I I #
loop $-1 $-1 $355 $86 #
coedge $-1 $221 $221 $222 $356 reversed $137 $-1 #
coedge $-1 $222 $222 $221 $356 forward $139 $-1 #
coedge $-1 $223 $223 $140 $224 forward $218 $-1 #
edge $-1 $357 -2.558716348405532e-015 $357 6.2831853071795978 $223 $358 forward 7 unknown #
loop $-1 $-1 $230 $141 #
plane-surface $-1 -47.083548602049831 -16.757000753412811 94.372796890535696 0 0.75470958851134928 0.65605901945558964 1 0 0 forward_v I I I I #
loop $-1 $-1 $359 $89 #
coedge $-1 $228 $228 $229 $360 reversed $142 $-1 #
coedge $-1 $229 $229 $228 $360 forward $144 $-1 #
coedge $-1 $230 $230 $145 $231 forward $225 $-1 #
edge $-1 $361 -2.558716348405532e-015 $361 6.2831853071795978 $230 $362 forward 7 unknown #
face $-1 $363 $364 $52 $-1 $365 forward single #
loop $-1 $-1 $366 $146 #
plane-surface $-1 1.7763568394002505e-015 100.84935734180587 196.60644165697136 -1 0 0 0 0.75470958851134928 0.65605901945558964 forward_v I I I I #
coedge $-1 $367 $368 $369 $370 reversed $147 $-1 #
coedge $-1 $237 $149 $371 $372 reversed $93 $-1 #
coedge $-1 $149 $236 $367 $373 reversed $93 $-1 #
coedge $-1 $369 $374 $149 $239 forward $364 $-1 #
edge $-1 $375 -3.2633452955087918 $376 5.0161726418098027 $238 $377 forward 7 unknown #
loop $-1 $-1 $245 $150 #
plane-surface $-1 -8.1260608857498937 -16.757000753412811 94.372796890535696 0 0.75470958851134928 0.65605901945558964 1 0 0 forward_v I I I I #
loop $-1 $-1 $378 $95 #
coedge $-1 $243 $243 $244 $379 reversed $151 $-1 #
coedge $-1 $244 $244 $243 $379 forward $153 $-1 #
coedge $-1 $245 $245 $154 $246 forward $240 $-1 #
edge $-1 $380 -2.558716348405532e-015 $380 6.2831853071795978 $245 $381 forward 7 unknown #
loop $-1 $-1 $252 $155 #
plane-surface $-1 -8.1260608857498937 -16.757000753412811 94.372796890535696 0 0.75470958851134928 0.65605901945558964 1 0 0 forward_v I I I I #
loop $-1 $-1 $382 $98 #
coedge $-1 $250 $250 $251 $383 reversed $156 $-1 #
coedge $-1 $251 $251 $250 $383 forward $158 $-1 #
coedge $-1 $252 $252 $159 $253 forward $247 $-1 #
edge $-1 $384 -2.558716348405532e-015 $384 6.2831853071795978 $252 $385 forward 7 unknown #
face $-1 $386 $387 $55 $-1 $388 forward single #
loop $-1 $-1 $389 $160 #
plane-surface $-1 38.957487716299937 100.84935734180587 196.60644165697136 -1 0 0 0 0.75470958851134928 0.65605901945558964 forward_v I I I I #
coedge $-1 $390 $391 $392 $393 reversed $161 $-1 #
coedge $-1 $259 $163 $394 $395 reversed $102 $-1 #
coedge $-1 $163 $258 $390 $396 reversed $102 $-1 #
coedge $-1 $392 $397 $163 $261 forward $387 $-1 #
edge $-1 $398 -3.2633452955087918 $399 5.0161726418098027 $260 $400 forward 7 unknown #
loop $-1 $-1 $267 $164 #
plane-surface $-1 30.831426830550043 -16.757000753412811 94.372796890535696 0 0.75470958851134928 0.65605901945558964 1 0 0 forward_v I I I I #
loop $-1 $-1 $401 $104 #
coedge $-1 $265 $265 $266 $402 reversed $165 $-1 #
coedge $-1 $266 $266 $265 $402 forward $167 $-1 #
coedge $-1 $267 $267 $168 $268 forward $262 $-1 #
edge $-1 $403 -2.558716348405532e-015 $403 6.2831853071795978 $267 $404 forward 7 unknown #
loop $-1 $-1 $274 $169 #
plane-surface $-1 30.831426830550043 -16.757000753412811 94.372796890535696 0 0.75470958851134928 0.65605901945558964 1 0 0 forward_v I I I I #
loop $-1 $-1 $405 $107 #
coedge $-1 $272 $272 $273 $406 reversed $170 $-1 #
coedge $-1 $273 $273 $272 $406 forward $172 $-1 #
coedge $-1 $274 $274 $173 $275 forward $269 $-1 #
edge $-1 $407 -2.558716348405532e-015 $407 6.2831853071795978 $274 $408 forward 7 unknown #
face $-1 $409 $410 $58 $-1 $411 reversed single #
loop $-1 $-1 $282 $174 #
plane-surface $-1 0 0 22.85956004431857 0 0 1 1 0 0 forward_v I I I I #
coedge $-1 $412 $413 $414 $415 reversed $175 $-1 #
coedge $-1 $281 $177 $416 $417 reversed $111 $-1 #
coedge $-1 $177 $280 $412 $418 reversed $111 $-1 #
coedge $-1 $414 $419 $177 $283 forward $277 $-1 #
edge $-1 $420 -3.2633452955087918 $421 5.0161726418098027 $282 $422 forward 7 unknown #
loop $-1 $-1 $289 $178 #
plane-surface $-1 69.788914546849981 -16.757000753412811 94.372796890535696 0 0.75470958851134928 0.65605901945558964 1 0 0 forward_v I I I I #
loop $-1 $-1 $423 $113 #
coedge $-1 $287 $287 $288 $424 reversed $179 $-1 #
coedge $-1 $288 $288 $287 $424 forward $181 $-1 #
coedge $-1 $289 $289 $182 $290 forward $284 $-1 #
edge $-1 $425 -2.558716348405532e-015 $425 6.2831853071795978 $289 $426 forward 7 unknown #
loop $-1 $-1 $296 $183 #
plane-surface $-1 69.788914546849981 -16.757000753412811 94.372796890535696 0 0.75470958851134928 0.65605901945558964 1 0 0 forward_v I I I I #
loop $-1 $-1 $427 $116 #
coedge $-1 $294 $294 $295 $428 reversed $184 $-1 #
coedge $-1 $295 $295 $294 $428 forward $186 $-1 #
coedge $-1 $296 $296 $187 $297 forward $291 $-1 #
edge $-1 $429 -2.558716348405532e-015 $429 6.2831853071795978 $296 $430 forward 7 unknown #
face $-1 $431 $432 $61 $-1 $433 reversed single #
loop $-1 $-1 $434 $188 #
plane-surface $-1 -30.147708701756532 -189.97997114388858 87.064062499179443 1 0 0 0 0.87461971476443456 -0.48480960649040278 forward_v I I I I #
coedge $-1 $435 $436 $437 $438 reversed $189 $-1 #
coedge $-1 $303 $191 $439 $440 reversed $120 $-1 #
coedge $-1 $191 $302 $435 $441 reversed $120 $-1 #
coedge $-1 $437 $442 $191 $305 forward $443 $-1 #
edge $-1 $444 41.301961605532561 $445 47.589685558306186 $304 $446 forward 7 unknown #
loop $-1 $-1 $311 $192 #
plane-surface $-1 -8.7102117990005894 -53.68802396641172 11.516205340803154 0 -0.87461971476443456 0.48480960649040278 1 0 0 forward_v I I I I #
loop $-1 $-1 $447 $122 #
coedge $-1 $309 $309 $310 $448 reversed $193 $-1 #
coedge $-1 $310 $310 $309 $448 forward $195 $-1 #
coedge $-1 $311 $311 $196 $312 forward $306 $-1 #
edge $-1 $449 1.3848837037998569e-015 $449 6.2831853071796022 $311 $450 forward 7 unknown #
loop $-1 $-1 $318 $197 #
plane-surface $-1 -8.7102117990005894 -53.68802396641172 11.516205340803154 0 -0.87461971476443456 0.48480960649040278 1 0 0 forward_v I I I I #
loop $-1 $-1 $451 $125 #
coedge $-1 $316 $316 $317 $452 reversed $198 $-1 #
coedge $-1 $317 $317 $316 $452 forward $200 $-1 #
coedge $-1 $318 $318 $201 $319 forward $313 $-1 #
edge $-1 $453 1.3848837037998569e-015 $453 6.2831853071796022 $318 $454 forward 7 unknown #
face $-1 $455 $456 $48 $-1 $457 reversed single #
loop $-1 $-1 $458 $202 #
plane-surface $-1 -77.914975432599874 0 0 1 0 0 0 0 -1 forward_v I I I I #
coedge $-1 $459 $331 $460 $461 forward $203 $-1 #
coedge $-1 $462 $205 $459 $463 forward $129 $-1 #
coedge $-1 $205 $462 $464 $465 forward $129 $-1 #
coedge $-1 $334 $333 $205 $327 reversed $335 $-1 #
edge $-1 $466 -53.688023966411727 $467 53.688023966411727 $326 $468 forward 7 unknown #
coedge $-1 $207 $206 $469 $470 forward $81 $-1 #
coedge $-1 $471 $472 $206 $330 reversed $456 $-1 #
edge $-1 $337 -77.914975432599874 $473 77.914975432599874 $329 $474 forward 7 unknown #
coedge $-1 $323 $475 $207 $332 reversed $203 $-1 #
edge $-1 $476 -77.914975432599874 $336 77.914975432599874 $331 $477 forward 7 unknown #
coedge $-1 $326 $208 $475 $478 forward $335 $-1 #
coedge $-1 $208 $326 $471 $479 reversed $335 $-1 #
loop $-1 $-1 $333 $455 #
vertex $-1 $209 $480 #
vertex $-1 $209 $481 #
straight-curve $-1 77.914975432599874 0 22.85956004431857 0 1 0 I I #
face $-1 $-1 $351 $49 $-1 $482 forward single #
loop $-1 $-1 $483 $210 #
plane-surface $-1 0 53.688023966411727 0 0 -1 0 0 0 -1 forward_v I I I I #
coedge $-1 $484 $485 $486 $487 reversed $211 $-1 #
coedge $-1 $488 $213 $215 $349 forward $133 $-1 #
coedge $-1 $213 $488 $484 $489 forward $133 $-1 #
coedge $-1 $486 $216 $213 $346 forward $351 $-1 #
edge $-1 $353 -31.667835186774809 $490 -15.415713415275022 $345 $491 forward 7 unknown #
coedge $-1 $492 $493 $214 $348 forward $340 $-1 #
edge $-1 $494 -84.968156889306073 $352 -75.443660784167108 $347 $495 forward 7 unknown #
edge $-1 $353 94.75596697701387 $494 107.37604793282345 $215 $496 forward 7 unknown #
coedge $-1 $216 $486 $492 $497 forward $351 $-1 #
loop $-1 $-1 $486 $339 #
vertex $-1 $348 $498 #
vertex $-1 $217 $499 #
straight-curve $-1 -55.209609487799725 50.424678670902935 22.85956004431857 0 -1 0 I I #
coedge $-1 $355 $355 $-1 $500 reversed $220 $-1 #
edge $-1 $501 0 $501 6.2831853071796004 $221 $502 forward 7 unknown #
vertex $-1 $224 $503 #
ellipse-curve $-1 -50.566146124514077 49.54826499775244 18.097311991749088 0 0.75470958851134928 0.65605901945558964 1 0 0 1 I I #
coedge $-1 $359 $359 $-1 $504 reversed $227 $-1 #
edge $-1 $505 0 $505 6.2831853071796004 $228 $506 forward 7 unknown #
vertex $-1 $231 $507 #
ellipse-curve $-1 -43.600951079585592 49.54826499775244 18.097311991749088 0 0.75470958851134928 0.65605901945558964 1 0 0 1 I I #
face $-1 $-1 $508 $52 $-1 $509 reversed single #
loop $-1 $-1 $238 $232 #
plane-surface $-1 0 0 22.85956004431857 0 0 1 1 0 0 forward_v I I I I #
coedge $-1 $510 $511 $512 $513 reversed $233 $-1 #
coedge $-1 $514 $235 $237 $373 forward $147 $-1 #
coedge $-1 $235 $514 $510 $515 forward $147 $-1 #
coedge $-1 $512 $238 $235 $370 forward $364 $-1 #
edge $-1 $376 -12.189091328624841 $516 4.0630304428749486 $369 $517 forward 7 unknown #
coedge $-1 $518 $519 $236 $372 forward $508 $-1 #
edge $-1 $520 -84.968156889306073 $375 -75.443660784167108 $371 $521 forward 7 unknown #
edge $-1 $376 94.75596697701387 $520 107.37604793282345 $237 $522 forward 7 unknown #
coedge $-1 $238 $512 $518 $523 forward $364 $-1 #
vertex $-1 $239 $524 #
vertex $-1 $239 $525 #
straight-curve $-1 -16.252121771499787 50.424678670902935 22.85956004431857 0 -1 0 I I #
coedge $-1 $378 $378 $-1 $526 reversed $242 $-1 #
edge $-1 $527 0 $527 6.2831853071796004 $243 $528 forward 7 unknown #
vertex $-1 $246 $529 #
ellipse-curve $-1 -11.60865840821414 49.54826499775244 18.097311991749088 0 0.75470958851134928 0.65605901945558964 1 0 0 1 I I #
coedge $-1 $382 $382 $-1 $530 reversed $249 $-1 #
edge $-1 $531 0 $531 6.2831853071796004 $250 $532 forward 7 unknown #
vertex $-1 $253 $533 #
ellipse-curve $-1 -4.6434633632856617 49.54826499775244 18.097311991749088 0 0.75470958851134928 0.65605901945558964 1 0 0 1 I I #
face $-1 $-1 $534 $55 $-1 $535 reversed single #
loop $-1 $-1 $260 $254 #
plane-surface $-1 0 0 22.85956004431857 0 0 1 1 0 0 forward_v I I I I #
coedge $-1 $536 $537 $538 $539 reversed $255 $-1 #
coedge $-1 $540 $257 $259 $396 forward $161 $-1 #
coedge $-1 $257 $540 $536 $541 forward $161 $-1 #
coedge $-1 $538 $260 $257 $393 forward $387 $-1 #
edge $-1 $399 7.289652529525128 $542 23.541774301024915 $392 $543 forward 7 unknown #
coedge $-1 $544 $545 $258 $395 forward $534 $-1 #
edge $-1 $546 -84.968156889306073 $398 -75.443660784167108 $394 $547 forward 7 unknown #
edge $-1 $399 94.75596697701387 $546 107.37604793282345 $259 $548 forward 7 unknown #
coedge $-1 $260 $538 $544 $549 forward $387 $-1 #
vertex $-1 $261 $550 #
vertex $-1 $261 $551 #
straight-curve $-1 22.70536594480015 50.424678670902935 22.85956004431857 0 -1 0 I I #
coedge $-1 $401 $401 $-1 $552 reversed $264 $-1 #
edge $-1 $553 0 $553 6.2831853071796004 $265 $554 forward 7 unknown #
vertex $-1 $268 $555 #
ellipse-curve $-1 27.348829308085783 49.54826499775244 18.097311991749088 0 0.75470958851134928 0.65605901945558964 1 0 0 1 I I #
coedge $-1 $405 $405 $-1 $556 reversed $271 $-1 #
edge $-1 $557 0 $557 6.2831853071796004 $272 $558 forward 7 unknown #
vertex $-1 $275 $559 #
ellipse-curve $-1 34.314024353014275 49.54826499775244 18.097311991749088 0 0.75470958851134928 0.65605901945558964 1 0 0 1 I I #
face $-1 $-1 $560 $58 $-1 $561 reversed single #
loop $-1 $-1 $416 $276 #
plane-surface $-1 0 53.688023966411727 0 0 -1 0 0 0 -1 forward_v I I I I #
coedge $-1 $562 $279 $281 $418 forward $175 $-1 #
coedge $-1 $279 $562 $563 $564 reversed $175 $-1 #
coedge $-1 $565 $282 $279 $415 forward $277 $-1 #
edge $-1 $421 26.768396387675097 $566 43.020518159174884 $414 $567 forward 7 unknown #
coedge $-1 $568 $569 $280 $417 forward $410 $-1 #
edge $-1 $570 -84.968156889306073 $420 -75.443660784167108 $416 $571 forward 7 unknown #
edge $-1 $421 94.75596697701387 $570 107.37604793282345 $281 $572 forward 7 unknown #
coedge $-1 $282 $565 $568 $573 forward $277 $-1 #
vertex $-1 $283 $574 #
vertex $-1 $283 $575 #
straight-curve $-1 61.662853661100087 50.424678670902935 22.85956004431857 0 -1 0 I I #
coedge $-1 $423 $423 $-1 $576 reversed $286 $-1 #
edge $-1 $577 0 $577 6.2831853071796004 $287 $578 forward 7 unknown #
vertex $-1 $290 $579 #
ellipse-curve $-1 66.30631702438572 49.54826499775244 18.097311991749088 0 0.75470958851134928 0.65605901945558964 1 0 0 1 I I #
coedge $-1 $427 $427 $-1 $580 reversed $293 $-1 #
edge $-1 $581 0 $581 6.2831853071796004 $294 $582 forward 7 unknown #
vertex $-1 $297 $583 #
ellipse-curve $-1 73.271512069314213 49.54826499775244 18.097311991749088 0 0.75470958851134928 0.65605901945558964 1 0 0 1 I I #
face $-1 $-1 $443 $61 $-1 $584 forward single #
loop $-1 $-1 $585 $298 #
plane-surface $-1 0 -53.688023966411727 0 0 1 0 0 0 1 forward_v I I I I #
coedge $-1 $586 $587 $588 $589 reversed $299 $-1 #
coedge $-1 $590 $301 $303 $441 forward $189 $-1 #
coedge $-1 $301 $590 $586 $591 forward $189 $-1 #
coedge $-1 $588 $304 $301 $438 forward $443 $-1 #
edge $-1 $445 -17.082391003255648 $592 25.792602802256237 $437 $593 forward 7 unknown #
coedge $-1 $594 $595 $302 $440 forward $432 $-1 #
edge $-1 $596 -32.015825908786582 $444 -20.672471205271151 $439 $597 forward 7 unknown #
edge $-1 $445 -12.969470630524917 $596 1.4320236426557382e-014 $303 $598 forward 7 unknown #
coedge $-1 $304 $588 $594 $599 forward $443 $-1 #
loop $-1 $-1 $588 $431 #
vertex $-1 $440 $600 #
vertex $-1 $305 $601 #
straight-curve $-1 12.727285103755353 -94.989985571944288 22.85956004431857 0 1 0 I I #
coedge $-1 $447 $447 $-1 $602 reversed $308 $-1 #
edge $-1 $603 0 $603 6.2831853071796004 $309 $604 forward 7 unknown #
vertex $-1 $312 $605 #
ellipse-curve $-1 -17.897710471610282 -50.544161990024911 17.187882692560859 0 -0.87461971476443456 0.48480960649040278 2 0 0 1 I I #
coedge $-1 $451 $451 $-1 $606 reversed $315 $-1 #
edge $-1 $607 0 $607 6.2831853071796004 $316 $608 forward 7 unknown #
vertex $-1 $319 $609 #
ellipse-curve $-1 0.47728687360910271 -50.544161990024911 17.187882692560859 0 -0.87461971476443456 0.48480960649040278 2 0 0 1 I I #
face $-1 $-1 $335 $48 $-1 $610 reversed single #
loop $-1 $-1 $471 $320 #
plane-surface $-1 0 53.688023966411727 0 0 -1 0 0 0 -1 forward_v I I I I #
coedge $-1 $611 $469 $472 $612 forward $321 $-1 #
coedge $-1 $475 $323 $324 $463 reversed $203 $-1 #
coedge $-1 $469 $611 $323 $461 reversed $321 $-1 #
edge $-1 $476 -22.85956004431857 $613 22.85956004431857 $460 $614 forward 7 unknown #
coedge $-1 $325 $324 $611 $615 forward $129 $-1 #
edge $-1 $467 -77.914975432599874 $613 77.914975432599874 $459 $616 forward 7 unknown #
coedge $-1 $472 $471 $325 $465 reversed $456 $-1 #
edge $-1 $617 -77.914975432599874 $466 77.914975432599874 $464 $618 forward 7 unknown #
vertex $-1 $327 $619 #
vertex $-1 $478 $620 #
straight-curve $-1 77.914975432599874 0 -22.85956004431857 0 -1 0 I I #
coedge $-1 $458 $460 $328 $470 reversed $321 $-1 #
edge $-1 $473 -53.688023966411727 $476 53.688023966411727 $469 $621 forward 7 unknown #
coedge $-1 $464 $329 $334 $479 forward $456 $-1 #
coedge $-1 $329 $464 $458 $612 reversed $456 $-1 #
vertex $-1 $330 $622 #
straight-curve $-1 0 53.688023966411727 22.85956004431857 -1 0 0 I I #
coedge $-1 $331 $459 $333 $478 reversed $203 $-1 #
vertex $-1 $470 $623 #
straight-curve $-1 0 -53.688023966411727 22.85956004431857 1 0 0 I I #
edge $-1 $336 -22.85956004431857 $467 22.85956004431857 $333 $624 forward 7 unknown #
edge $-1 $337 -22.85956004431857 $466 22.85956004431857 $334 $625 forward 7 unknown #
point $-1 77.914975432599874 -53.688023966411727 22.85956004431857 #
point $-1 77.914975432599874 53.688023966411727 22.85956004431857 #
plane-surface $-1 0 0 22.85956004431857 0 0 1 1 0 0 forward_v I I I I #
coedge $-1 $493 $492 $485 $626 forward $340 $-1 #
coedge $-1 $485 $342 $344 $489 reversed $211 $-1 #
coedge $-1 $342 $484 $483 $626 reversed $211 $-1 #
coedge $-1 $350 $345 $342 $487 forward $351 $-1 #
edge $-1 $490 -5.0161726418098027 $627 3.2633452955087918 $486 $628 forward 7 unknown #
coedge $-1 $344 $343 $493 $629 reversed $133 $-1 #
edge $-1 $630 -107.37604793282345 $490 -94.75596697701387 $484 $631 forward 7 unknown #
vertex $-1 $346 $632 #
straight-curve $-1 -23.541774301024915 45.408506029093132 22.85956004431857 1 0 0 I I #
coedge $-1 $483 $347 $350 $497 reversed $340 $-1 #
coedge $-1 $347 $483 $488 $629 forward $340 $-1 #
vertex $-1 $348 $633 #
straight-curve $-1 -55.209609487799725 53.688023966411727 98.303220828485678 0 0 1 I I #
straight-curve $-1 -55.209609487799725 -16.757000753412811 94.372796890535696 0 0.65605901945558964 -0.75470958851134928 I I #
edge $-1 $627 38.957487716299937 $352 55.209609487799725 $492 $634 forward 7 unknown #
point $-1 -55.209609487799725 53.688023966411727 22.85956004431857 #
point $-1 -55.209609487799725 45.408506029093132 22.85956004431857 #
edge $-1 $635 1 $635 0 $355 $-1 forward 7 unknown #
vertex $-1 $356 $636 #
ellipse-curve $-1 -50.566146124514077 46.748812270422022 15.663784924831415 0 0.75470958851134928 0.65605901945558964 1 0 0 1 I I #
point $-1 -49.566146124514077 49.548264997752412 18.097311991749066 #
edge $-1 $637 1 $637 0 $359 $-1 forward 7 unknown #
vertex $-1 $360 $638 #
ellipse-curve $-1 -43.600951079585592 46.748812270422022 15.663784924831415 0 0.75470958851134928 0.65605901945558964 1 0 0 1 I I #
point $-1 -42.600951079585592 49.548264997752412 18.097311991749066 #
loop $-1 $-1 $371 $363 #
plane-surface $-1 0 53.688023966411727 0 0 -1 0 0 0 -1 forward_v I I I I #
coedge $-1 $511 $366 $368 $515 reversed $233 $-1 #
coedge $-1 $366 $510 $639 $640 reversed $233 $-1 #
coedge $-1 $374 $369 $366 $513 forward $364 $-1 #
edge $-1 $516 -5.0161726418098027 $641 3.2633452955087918 $512 $642 forward 7 unknown #
coedge $-1 $368 $367 $519 $643 reversed $147 $-1 #
edge $-1 $644 -107.37604793282345 $516 -94.75596697701387 $510 $645 forward 7 unknown #
vertex $-1 $370 $646 #
straight-curve $-1 -4.0630304428749469 45.408506029093132 22.85956004431857 1 0 0 I I #
coedge $-1 $639 $371 $374 $523 reversed $508 $-1 #
coedge $-1 $371 $639 $514 $643 forward $508 $-1 #
vertex $-1 $372 $647 #
straight-curve $-1 -16.252121771499787 53.688023966411727 98.303220828485678 0 0 1 I I #
straight-curve $-1 -16.252121771499787 -16.757000753412811 94.372796890535696 0 0.65605901945558964 -0.75470958851134928 I I #
edge $-1 $641 -1.7763568394002505e-015 $375 16.252121771499787 $518 $648 forward 7 unknown #
point $-1 -16.252121771499787 53.688023966411727 22.85956004431857 #
point $-1 -16.252121771499787 45.408506029093132 22.85956004431857 #
edge $-1 $649 1 $649 0 $378 $-1 forward 7 unknown #
vertex $-1 $379 $650 #
ellipse-curve $-1 -11.60865840821414 46.748812270422022 15.663784924831415 0 0.75470958851134928 0.65605901945558964 1 0 0 1 I I #
point $-1 -10.60865840821414 49.548264997752412 18.097311991749066 #
edge $-1 $651 1 $651 0 $382 $-1 forward 7 unknown #
vertex $-1 $383 $652 #
ellipse-curve $-1 -4.6434633632856617 46.748812270422022 15.663784924831415 0 0.75470958851134928 0.65605901945558964 1 0 0 1 I I #
point $-1 -3.6434633632856617 49.548264997752412 18.097311991749066 #
loop $-1 $-1 $394 $386 #
plane-surface $-1 0 53.688023966411727 0 0 -1 0 0 0 -1 forward_v I I I I #
coedge $-1 $537 $389 $391 $541 reversed $255 $-1 #
coedge $-1 $389 $536 $653 $654 reversed $255 $-1 #
coedge $-1 $397 $392 $389 $539 forward $387 $-1 #
edge $-1 $542 -5.0161726418098027 $655 3.2633452955087918 $538 $656 forward 7 unknown #
coedge $-1 $391 $390 $545 $657 reversed $161 $-1 #
edge $-1 $658 -107.37604793282345 $542 -94.75596697701387 $536 $659 forward 7 unknown #
vertex $-1 $393 $660 #
straight-curve $-1 15.415713415275022 45.408506029093132 22.85956004431857 1 0 0 I I #
coedge $-1 $653 $394 $397 $549 reversed $534 $-1 #
coedge $-1 $394 $653 $540 $657 forward $534 $-1 #
vertex $-1 $395 $661 #
straight-curve $-1 22.70536594480015 53.688023966411727 98.303220828485678 0 0 1 I I #
straight-curve $-1 22.70536594480015 -16.757000753412811 94.372796890535696 0 0.65605901945558964 -0.75470958851134928 I I #
edge $-1 $655 -38.957487716299937 $398 -22.70536594480015 $544 $662 forward 7 unknown #
point $-1 22.70536594480015 53.688023966411727 22.85956004431857 #
point $-1 22.70536594480015 45.408506029093132 22.85956004431857 #
edge $-1 $663 1 $663 0 $401 $-1 forward 7 unknown #
vertex $-1 $402 $664 #
ellipse-curve $-1 27.348829308085783 46.748812270422022 15.663784924831415 0 0.75470958851134928 0.65605901945558964 1 0 0 1 I I #
point $-1 28.348829308085783 49.548264997752412 18.097311991749066 #
edge $-1 $665 1 $665 0 $405 $-1 forward 7 unknown #
vertex $-1 $406 $666 #
ellipse-curve $-1 34.314024353014275 46.748812270422022 15.663784924831415 0 0.75470958851134928 0.65605901945558964 1 0 0 1 I I #
point $-1 35.314024353014275 49.548264997752412 18.097311991749066 #
loop $-1 $-1 $563 $409 #
plane-surface $-1 77.914975432599874 0 0 -1 0 0 0 0 1 forward_v I I I I #
coedge $-1 $413 $412 $569 $667 reversed $175 $-1 #
coedge $-1 $668 $669 $413 $564 forward $560 $-1 #
edge $-1 $566 53.647148881402899 $670 66.267229837212483 $563 $671 forward 7 unknown #
coedge $-1 $419 $414 $669 $672 forward $277 $-1 #
vertex $-1 $672 $673 #
straight-curve $-1 34.89445727342499 45.408506029093132 22.85956004431857 1 0 0 I I #
coedge $-1 $674 $416 $419 $573 reversed $410 $-1 #
coedge $-1 $416 $674 $562 $667 forward $410 $-1 #
vertex $-1 $417 $675 #
straight-curve $-1 61.662853661100087 53.688023966411727 98.303220828485678 0 0 1 I I #
straight-curve $-1 61.662853661100087 -16.757000753412811 94.372796890535696 0 0.65605901945558964 -0.75470958851134928 I I #
edge $-1 $676 -77.914975432599874 $420 -61.662853661100087 $568 $677 forward 7 unknown #
point $-1 61.662853661100087 53.688023966411727 22.85956004431857 #
point $-1 61.662853661100087 45.408506029093132 22.85956004431857 #
edge $-1 $678 1 $678 0 $423 $-1 forward 7 unknown #
vertex $-1 $424 $679 #
ellipse-curve $-1 66.30631702438572 46.748812270422022 15.663784924831415 0 0.75470958851134928 0.65605901945558964 1 0 0 1 I I #
point $-1 67.30631702438572 49.548264997752412 18.097311991749066 #
edge $-1 $680 1 $680 0 $427 $-1 forward 7 unknown #
vertex $-1 $428 $681 #
ellipse-curve $-1 73.271512069314213 46.748812270422022 15.663784924831415 0 0.75470958851134928 0.65605901945558964 1 0 0 1 I I #
point $-1 74.271512069314213 49.548264997752412 18.097311991749066 #
plane-surface $-1 0 0 22.85956004431857 0 0 1 1 0 0 forward_v I I I I #
coedge $-1 $595 $594 $587 $682 forward $432 $-1 #
coedge $-1 $587 $434 $436 $591 reversed $299 $-1 #
coedge $-1 $434 $586 $585 $682 reversed $299 $-1 #
coedge $-1 $442 $437 $434 $589 forward $443 $-1 #
edge $-1 $592 -47.589685558306186 $683 -41.301961605532561 $588 $684 forward 7 unknown #
coedge $-1 $436 $435 $595 $685 reversed $189 $-1 #
edge $-1 $686 -1.4320236426557382e-014 $592 12.969470630524917 $586 $687 forward 7 unknown #
vertex $-1 $438 $688 #
straight-curve $-1 -4.3551058995002947 -47.400300013638095 22.85956004431857 -1 0 0 I I #
coedge $-1 $585 $439 $442 $599 reversed $432 $-1 #
coedge $-1 $439 $585 $590 $685 forward $432 $-1 #
vertex $-1 $440 $689 #
straight-curve $-1 12.727285103755353 -53.68802396641172 43.532031249589721 0 0 1 I I #
straight-curve $-1 12.727285103755353 -53.68802396641172 11.516205340803154 0 -0.48480960649040278 -0.87461971476443456 I I #
edge $-1 $683 -30.147708701756532 $444 12.727285103755353 $594 $690 forward 7 unknown #
point $-1 12.727285103755353 -53.688023966411727 22.85956004431857 #
point $-1 12.727285103755353 -47.400300013638102 22.85956004431857 #
edge $-1 $691 1 $691 0 $447 $-1 forward 7 unknown #
vertex $-1 $448 $692 #
ellipse-curve $-1 -17.897710471610282 -46.156889916384642 14.755978161160323 0 -0.87461971476443456 0.48480960649040278 2 0 0 1 I I #
point $-1 -15.897710471610282 -50.544161990024918 17.187882692560866 #
edge $-1 $693 1 $693 0 $451 $-1 forward 7 unknown #
vertex $-1 $452 $694 #
ellipse-curve $-1 0.47728687360910271 -46.156889916384642 14.755978161160323 0 -0.87461971476443456 0.48480960649040278 2 0 0 1 I I #
point $-1 2.4772868736091027 -50.544161990024918 17.187882692560866 #
plane-surface $-1 77.914975432599874 0 0 -1 0 0 0 0 1 forward_v I I I I #
coedge $-1 $460 $458 $462 $615 reversed $321 $-1 #
edge $-1 $473 -22.85956004431857 $617 22.85956004431857 $472 $695 forward 7 unknown #
vertex $-1 $615 $696 #
straight-curve $-1 -77.914975432599874 -53.688023966411727 0 0 0 -1 I I #
edge $-1 $613 -53.688023966411727 $617 53.688023966411727 $611 $697 forward 7 unknown #
straight-curve $-1 0 -53.688023966411727 -22.85956004431857 -1 0 0 I I #
vertex $-1 $465 $698 #
straight-curve $-1 0 53.688023966411727 -22.85956004431857 1 0 0 I I #
point $-1 77.914975432599874 53.688023966411727 -22.85956004431857 #
point $-1 77.914975432599874 -53.688023966411727 -22.85956004431857 #
straight-curve $-1 -77.914975432599874 0 22.85956004431857 0 -1 0 I I #
point $-1 -77.914975432599874 53.688023966411727 22.85956004431857 #
point $-1 -77.914975432599874 -53.688023966411727 22.85956004431857 #
straight-curve $-1 77.914975432599874 -53.688023966411727 0 0 0 -1 I I #
straight-curve $-1 77.914975432599874 53.688023966411727 0 0 0 -1 I I #
edge $-1 $627 75.443660784167108 $630 84.968156889306073 $483 $699 forward 7 unknown #
vertex $-1 $497 $700 #
straight-curve $-1 -38.957487716299937 50.424678670902935 22.85956004431857 0 1 0 I I #
edge $-1 $630 15.415713415275022 $494 31.667835186774809 $493 $701 forward 7 unknown #
vertex $-1 $629 $702 #
straight-curve $-1 -38.957487716299937 -16.757000753412811 94.372796890535696 0 -0.65605901945558964 0.75470958851134928 I I #
point $-1 -38.957487716299937 45.408506029093132 22.85956004431857 #
point $-1 -55.209609487799725 53.688023966411734 13.335063939179605 #
straight-curve $-1 0 53.688023966411727 22.85956004431857 -1 0 0 I I #
vertex $-1 $500 $703 #
point $-1 -49.566146124514077 46.748812270422022 15.663784924831415 #
vertex $-1 $504 $704 #
point $-1 -42.600951079585592 46.748812270422022 15.663784924831415 #
coedge $-1 $519 $518 $511 $640 forward $508 $-1 #
edge $-1 $641 75.443660784167108 $644 84.968156889306073 $639 $705 forward 7 unknown #
vertex $-1 $523 $706 #
straight-curve $-1 1.7763568394002505e-015 50.424678670902935 22.85956004431857 0 1 0 I I #
edge $-1 $644 -4.0630304428749486 $520 12.189091328624841 $519 $707 forward 7 unknown #
vertex $-1 $643 $708 #
straight-curve $-1 1.7763568394002505e-015 -16.757000753412811 94.372796890535696 0 -0.65605901945558964 0.75470958851134928 I I #
point $-1 1.7763568394002505e-015 45.408506029093132 22.85956004431857 #
point $-1 -16.252121771499787 53.688023966411734 13.335063939179605 #
straight-curve $-1 0 53.688023966411727 22.85956004431857 -1 0 0 I I #
vertex $-1 $526 $709 #
point $-1 -10.60865840821414 46.748812270422022 15.663784924831415 #
vertex $-1 $530 $710 #
point $-1 -3.6434633632856617 46.748812270422022 15.663784924831415 #
coedge $-1 $545 $544 $537 $654 forward $534 $-1 #
edge $-1 $655 75.443660784167108 $658 84.968156889306073 $653 $711 forward 7 unknown #
vertex $-1 $549 $712 #
straight-curve $-1 38.957487716299937 50.424678670902935 22.85956004431857 0 1 0 I I #
edge $-1 $658 -23.541774301024915 $546 -7.289652529525128 $545 $713 forward 7 unknown #
vertex $-1 $657 $714 #
straight-curve $-1 38.957487716299937 -16.757000753412811 94.372796890535696 0 -0.65605901945558964 0.75470958851134928 I I #
point $-1 38.957487716299937 45.408506029093132 22.85956004431857 #
point $-1 22.70536594480015 53.688023966411734 13.335063939179605 #
straight-curve $-1 0 53.688023966411727 22.85956004431857 -1 0 0 I I #
vertex $-1 $552 $715 #
point $-1 28.348829308085783 46.748812270422022 15.663784924831415 #
vertex $-1 $556 $716 #
point $-1 35.314024353014275 46.748812270422022 15.663784924831415 #
edge $-1 $670 -43.020518159174884 $570 -26.768396387675097 $569 $717 forward 7 unknown #
coedge $-1 $669 $563 $674 $718 reversed $560 $-1 #
coedge $-1 $563 $668 $565 $672 reversed $560 $-1 #
vertex $-1 $564 $719 #
straight-curve $-1 77.914975432599874 10.212810137371918 63.347577701409236 0 0.65605901945558975 -0.75470958851134939 I I #
edge $-1 $566 45.408506029093132 $676 53.688023966411727 $669 $720 forward 7 unknown #
point $-1 77.914975432599874 45.408506029093132 22.85956004431857 #
coedge $-1 $569 $568 $668 $718 forward $410 $-1 #
point $-1 61.662853661100087 53.688023966411734 13.335063939179605 #
vertex $-1 $672 $721 #
straight-curve $-1 0 53.688023966411727 22.85956004431857 -1 0 0 I I #
vertex $-1 $576 $722 #
point $-1 67.30631702438572 46.748812270422022 15.663784924831415 #
vertex $-1 $580 $723 #
point $-1 74.271512069314213 46.748812270422022 15.663784924831415 #
edge $-1 $683 20.672471205271151 $686 32.015825908786582 $585 $724 forward 7 unknown #
vertex $-1 $599 $725 #
straight-curve $-1 -30.147708701756532 -94.989985571944288 22.85956004431857 0 -1 0 I I #
edge $-1 $686 -25.792602802256237 $596 17.082391003255648 $595 $726 forward 7 unknown #
vertex $-1 $685 $727 #
straight-curve $-1 -30.147708701756532 -53.68802396641172 11.516205340803154 0 0.48480960649040278 0.87461971476443456 I I #
point $-1 -30.147708701756532 -47.400300013638102 22.85956004431857 #
point $-1 12.727285103755353 -53.688023966411727 11.516205340803142 #
straight-curve $-1 0 -53.688023966411727 22.85956004431857 1 0 0 I I #
vertex $-1 $602 $728 #
point $-1 -15.897710471610282 -46.156889916384642 14.755978161160323 #
vertex $-1 $606 $729 #
point $-1 2.4772868736091027 -46.156889916384642 14.755978161160323 #
straight-curve $-1 -77.914975432599874 53.688023966411727 0 0 0 -1 I I #
point $-1 -77.914975432599874 -53.688023966411727 -22.85956004431857 #
straight-curve $-1 -77.914975432599874 0 -22.85956004431857 0 1 0 I I #
point $-1 -77.914975432599874 53.688023966411727 -22.85956004431857 #
straight-curve $-1 -38.957487716299937 53.688023966411727 98.303220828485678 0 0 -1 I I #
point $-1 -38.957487716299937 53.688023966411727 22.85956004431857 #
straight-curve $-1 -23.541774301024915 53.68802396641172 13.335063939179598 -1 0 0 I I #
point $-1 -38.957487716299937 53.688023966411734 13.335063939179605 #
point $-1 -50.566146124514077 45.994102681910675 15.007725905375825 #
point $-1 -43.600951079585592 45.994102681910675 15.007725905375825 #
straight-curve $-1 1.7763568394002505e-015 53.688023966411727 98.303220828485678 0 0 -1 I I #
point $-1 1.7763568394002505e-015 53.688023966411727 22.85956004431857 #
straight-curve $-1 -4.0630304428749469 53.68802396641172 13.335063939179598 -1 0 0 I I #
point $-1 1.7763568394002505e-015 53.688023966411734 13.335063939179605 #
point $-1 -11.60865840821414 45.994102681910675 15.007725905375825 #
point $-1 -4.6434633632856617 45.994102681910675 15.007725905375825 #
straight-curve $-1 38.957487716299937 53.688023966411727 98.303220828485678 0 0 -1 I I #
point $-1 38.957487716299937 53.688023966411727 22.85956004431857 #
straight-curve $-1 15.415713415275022 53.68802396641172 13.335063939179598 -1 0 0 I I #
point $-1 38.957487716299937 53.688023966411734 13.335063939179605 #
point $-1 27.348829308085783 45.994102681910675 15.007725905375825 #
point $-1 34.314024353014275 45.994102681910675 15.007725905375825 #
straight-curve $-1 34.89445727342499 53.68802396641172 13.335063939179598 -1 0 0 I I #
edge $-1 $676 -22.85956004431857 $670 -13.335063939179605 $668 $730 forward 7 unknown #
point $-1 77.914975432599874 53.688023966411734 13.335063939179605 #
straight-curve $-1 77.914975432599874 0 22.85956004431857 0 1 0 I I #
point $-1 77.914975432599874 53.688023966411727 22.85956004431857 #
point $-1 66.30631702438572 45.994102681910675 15.007725905375825 #
point $-1 73.271512069314213 45.994102681910675 15.007725905375825 #
straight-curve $-1 -30.147708701756532 -53.68802396641172 43.532031249589721 0 0 -1 I I #
point $-1 -30.147708701756532 -53.688023966411727 22.85956004431857 #
straight-curve $-1 -4.3551058995002947 -53.688023966411727 11.516205340803133 1 0 0 I I #
point $-1 -30.147708701756532 -53.688023966411727 11.516205340803142 #
point $-1 -17.897710471610282 -44.407650486855772 13.786358948179517 #
point $-1 0.47728687360910271 -44.407650486855772 13.786358948179517 #
straight-curve $-1 77.914975432599874 53.688023966411727 0 0 0 -1 I I #
End-of-ACIS-data 