500 0 9 0           
7 Unknown 11 ACIS 5.0 NT 24 Thu Mar 25 22:37:08 1999 
-1 9.9999999999999995e-007 1e-010 
body $-1 $9 $-1 $10 #
body $-1 $11 $-1 $12 #
body $-1 $13 $-1 $14 #
body $-1 $15 $-1 $16 #
body $-1 $17 $-1 $18 #
body $-1 $19 $-1 $20 #
body $-1 $21 $-1 $22 #
body $-1 $23 $-1 $24 #
body $-1 $25 $-1 $26 #
lump $-1 $-1 $27 $0 #
transform $-1 1 0 0 0 1 0 0 0 1 50.45075838496048 25.957343990484642 8.9692141523198714 1 rotate no_reflect no_shear #
lump $-1 $-1 $28 $1 #
transform $-1 1 0 0 0 1 0 0 0 1 50.45075838496048 25.957343990484642 8.9692141523198714 1 rotate no_reflect no_shear #
lump $-1 $-1 $29 $2 #
transform $-1 1 0 0 0 1 0 0 0 1 50.45075838496048 25.957343990484642 8.9692141523198714 1 rotate no_reflect no_shear #
lump $-1 $-1 $30 $3 #
transform $-1 1 0 0 0 1 0 0 0 1 50.45075838496048 25.957343990484642 8.9692141523198714 1 rotate no_reflect no_shear #
lump $-1 $-1 $31 $4 #
transform $-1 1 0 0 0 1 0 0 0 1 50.45075838496048 25.957343990484642 8.9692141523198714 1 rotate no_reflect no_shear #
lump $-1 $-1 $32 $5 #
transform $-1 1 0 0 0 1 0 0 0 1 50.45075838496048 25.957343990484642 8.9692141523198714 1 rotate no_reflect no_shear #
lump $-1 $-1 $33 $6 #
transform $-1 1 0 0 0 1 0 0 0 1 50.45075838496048 25.957343990484642 8.9692141523198714 1 rotate no_reflect no_shear #
lump $-1 $-1 $34 $7 #
transform $-1 1 0 0 0 1 0 0 0 1 50.45075838496048 25.957343990484642 8.9692141523198714 1 rotate no_reflect no_shear #
lump $-1 $-1 $35 $8 #
transform $-1 1 0 0 0 1 0 0 0 1 50.45075838496048 25.957343990484642 8.9692141523198714 1 rotate no_reflect no_shear #
shell $-1 $-1 $-1 $36 $-1 $9 #
shell $-1 $-1 $-1 $37 $-1 $11 #
shell $-1 $-1 $-1 $38 $-1 $13 #
shell $-1 $-1 $-1 $39 $-1 $15 #
shell $-1 $-1 $-1 $40 $-1 $17 #
shell $-1 $-1 $-1 $41 $-1 $19 #
shell $-1 $-1 $-1 $42 $-1 $21 #
shell $-1 $-1 $-1 $43 $-1 $23 #
shell $-1 $-1 $-1 $44 $-1 $25 #
face $-1 $45 $46 $27 $-1 $47 forward single #
face $-1 $48 $49 $28 $-1 $50 forward single #
face $-1 $51 $52 $29 $-1 $53 forward single #
face $-1 $54 $55 $30 $-1 $56 reversed single #
face $-1 $57 $58 $31 $-1 $59 forward single #
face $-1 $60 $61 $32 $-1 $62 forward single #
face $-1 $63 $64 $33 $-1 $65 reversed single #
face $-1 $66 $67 $34 $-1 $68 forward single #
face $-1 $69 $70 $35 $-1 $71 forward single #
face $-1 $72 $73 $27 $-1 $74 reversed single #
loop $-1 $-1 $75 $36 #
plane-surface $-1 0 0 8.9692141523198714 0 0 1 1 0 0 forward_v I I I I #
face $-1 $76 $77 $28 $-1 $78 reversed single #
loop $-1 $-1 $79 $37 #
plane-surface $-1 0 -20.892454735366378 -5.9692141523198714 0 0 1 1 0 0 forward_v I I I I #
face $-1 $80 $81 $29 $-1 $82 reversed single #
loop $-1 $-1 $83 $38 #
plane-surface $-1 0 20.892454735366375 -5.9692141523198714 0 0 1 1 0 0 forward_v I I I I #
face $-1 $84 $85 $30 $-1 $86 reversed single #
loop $-1 $-1 $87 $39 #
plane-surface $-1 -136.94023994193381 -2.8274638173011386 52.098009929799396 0 -1 0 0.85716730853699208 0 -0.51503806187062418 forward_v I I I I #
face $-1 $88 $89 $31 $-1 $90 forward single #
loop $-1 $91 $92 $40 #
cone-surface $-1 -47.219531045174918 -7.4285276867123855 4.2036802233162174 0.85716730853699208 0 -0.51503806187062418 0.25751903093531209 0 0.42858365426849604 1 I I 0 1 0.5 forward I I I I #
face $-1 $93 $94 $32 $-1 $95 forward single #
loop $-1 $96 $97 $41 #
cone-surface $-1 -47.219531045174918 -4.667889365065637 4.2036802233162174 0.85716730853699208 0 -0.51503806187062418 0.25751903093531209 0 0.42858365426849604 1 I I 0 1 0.5 forward I I I I #
face $-1 $98 $99 $33 $-1 $100 reversed single #
loop $-1 $-1 $101 $42 #
plane-surface $-1 -136.94023994193381 13.00010166294698 52.098009929799396 0 -1 0 0.85716730853699208 0 -0.51503806187062418 forward_v I I I I #
face $-1 $102 $103 $34 $-1 $104 forward single #
loop $-1 $105 $106 $43 #
cone-surface $-1 -47.219531045174918 8.3990377935357294 4.2036802233162174 0.85716730853699208 0 -0.51503806187062418 0.25751903093531209 0 0.42858365426849604 1 I I 0 1 0.5 forward I I I I #
face $-1 $107 $108 $35 $-1 $109 forward single #
loop $-1 $110 $111 $44 #
cone-surface $-1 -47.219531045174918 11.159676115182481 4.2036802233162174 0.85716730853699208 0 -0.51503806187062418 0.25751903093531209 0 0.42858365426849604 1 I I 0 1 0.5 forward I I I I #
face $-1 $112 $113 $27 $-1 $114 reversed single #
loop $-1 $-1 $115 $45 #
plane-surface $-1 0 0 -8.9692141523198714 0 0 1 1 0 0 forward_v I I I I #
coedge $-1 $116 $117 $118 $119 forward $46 $-1 #
face $-1 $120 $121 $28 $-1 $122 reversed single #
loop $-1 $-1 $123 $48 #
plane-surface $-1 0 -15.827565480248117 -7.4692141523198714 0 -1 0 0 0 -1 forward_v I I I I #
coedge $-1 $124 $125 $126 $127 reversed $49 $-1 #
face $-1 $128 $129 $29 $-1 $130 reversed single #
loop $-1 $-1 $131 $51 #
plane-surface $-1 0 15.827565480248111 -7.4692141523198714 0 1 0 0 0 1 forward_v I I I I #
coedge $-1 $132 $133 $134 $135 reversed $52 $-1 #
face $-1 $136 $137 $30 $-1 $138 reversed single #
loop $-1 $-1 $139 $54 #
plane-surface $-1 -50.450758384960494 -6.048208525889013 0.12988829281302117 -0.85716730853699208 0 0.51503806187062418 0.51503806187062418 0 0.85716730853699208 forward_v I I I I #
coedge $-1 $140 $141 $142 $143 reversed $55 $-1 #
face $-1 $-1 $144 $31 $-1 $145 forward single #
loop $-1 $146 $147 $57 #
cone-surface $-1 -46.429613190613615 -7.4285276867123855 3.7290497085983354 0.85716730853699208 0 -0.51503806187062418 0.12875951546765604 0 0.21429182713424802 1 I I -0.70710678118654746 0.70710678118654746 0.25 forward I I I I #
loop $-1 $-1 $148 $40 #
coedge $-1 $92 $92 $149 $150 reversed $58 $-1 #
face $-1 $-1 $151 $32 $-1 $152 forward single #
loop $-1 $153 $154 $60 #
cone-surface $-1 -46.429613190613615 -4.667889365065637 3.7290497085983354 0.85716730853699208 0 -0.51503806187062418 0.12875951546765604 0 0.21429182713424802 1 I I -0.70710678118654746 0.70710678118654746 0.25 forward I I I I #
loop $-1 $-1 $155 $41 #
coedge $-1 $97 $97 $156 $157 reversed $61 $-1 #
face $-1 $158 $159 $33 $-1 $160 reversed single #
loop $-1 $-1 $161 $63 #
plane-surface $-1 -50.450758384960494 9.7793569543591055 0.12988829281302117 -0.85716730853699208 0 0.51503806187062418 0.51503806187062418 0 0.85716730853699208 forward_v I I I I #
coedge $-1 $162 $163 $164 $165 reversed $64 $-1 #
face $-1 $-1 $166 $34 $-1 $167 forward single #
loop $-1 $168 $169 $66 #
cone-surface $-1 -46.429613190613615 8.3990377935357294 3.7290497085983354 0.85716730853699208 0 -0.51503806187062418 0.12875951546765604 0 0.21429182713424802 1 I I -0.70710678118654746 0.70710678118654746 0.25 forward I I I I #
loop $-1 $-1 $170 $43 #
coedge $-1 $106 $106 $171 $172 reversed $67 $-1 #
face $-1 $-1 $173 $35 $-1 $174 forward single #
loop $-1 $175 $176 $69 #
cone-surface $-1 -46.429613190613615 11.159676115182481 3.7290497085983354 0.85716730853699208 0 -0.51503806187062418 0.12875951546765604 0 0.21429182713424802 1 I I -0.70710678118654746 0.70710678118654746 0.25 forward I I I I #
loop $-1 $-1 $177 $44 #
coedge $-1 $111 $111 $178 $179 reversed $70 $-1 #
face $-1 $180 $181 $27 $-1 $182 reversed single #
loop $-1 $-1 $183 $72 #
plane-surface $-1 0 -25.957343990484642 0 0 1 0 0 0 1 forward_v I I I I #
coedge $-1 $184 $185 $186 $187 forward $73 $-1 #
coedge $-1 $188 $75 $189 $190 forward $46 $-1 #
coedge $-1 $75 $188 $191 $192 forward $46 $-1 #
coedge $-1 $193 $194 $75 $119 reversed $195 $-1 #
edge $-1 $196 -25.957343990484642 $197 25.957343990484642 $118 $198 forward 7 unknown #
face $-1 $199 $200 $28 $-1 $201 reversed single #
loop $-1 $-1 $202 $76 #
plane-surface $-1 0 0 -8.9692141523198714 0 0 1 1 0 0 forward_v I I I I #
coedge $-1 $203 $204 $205 $206 reversed $77 $-1 #
coedge $-1 $207 $79 $204 $208 forward $49 $-1 #
coedge $-1 $79 $207 $209 $210 reversed $49 $-1 #
coedge $-1 $211 $205 $79 $127 forward $200 $-1 #
edge $-1 $212 5.3813381125649276 $213 15.511116622801449 $126 $214 forward 7 unknown #
face $-1 $215 $216 $29 $-1 $217 reversed single #
loop $-1 $-1 $134 $80 #
plane-surface $-1 50.45075838496048 0 0 -1 0 0 0 0 1 forward_v I I I I #
coedge $-1 $218 $219 $220 $221 reversed $81 $-1 #
coedge $-1 $222 $83 $223 $224 reversed $52 $-1 #
coedge $-1 $83 $222 $219 $225 forward $52 $-1 #
coedge $-1 $226 $227 $83 $135 forward $129 $-1 #
edge $-1 $228 -15.511116622801451 $229 -5.381338112564924 $134 $230 forward 7 unknown #
face $-1 $231 $232 $30 $-1 $233 reversed single #
loop $-1 $-1 $234 $84 #
plane-surface $-1 -136.94023994193381 -9.2689532344768875 52.098009929799396 0 1 0 -0.85716730853699208 0 0.51503806187062418 forward_v I I I I #
coedge $-1 $235 $236 $237 $238 reversed $85 $-1 #
coedge $-1 $141 $87 $239 $240 reversed $55 $-1 #
coedge $-1 $87 $140 $235 $241 reversed $55 $-1 #
coedge $-1 $237 $242 $87 $143 forward $232 $-1 #
edge $-1 $243 17.079790812579827 $244 25.919116672086652 $142 $245 forward 7 unknown #
loop $-1 $-1 $149 $88 #
plane-surface $-1 -50.450758384960494 -6.048208525889013 0.12988829281302117 -0.85716730853699208 0 0.51503806187062418 0.51503806187062418 0 0.85716730853699208 forward_v I I I I #
loop $-1 $-1 $246 $57 #
coedge $-1 $147 $147 $148 $247 reversed $89 $-1 #
coedge $-1 $148 $148 $147 $247 forward $91 $-1 #
coedge $-1 $149 $149 $92 $150 forward $144 $-1 #
edge $-1 $248 0 $248 6.2831853071796004 $149 $249 forward 7 unknown #
loop $-1 $-1 $156 $93 #
plane-surface $-1 -50.450758384960494 -6.048208525889013 0.12988829281302117 -0.85716730853699208 0 0.51503806187062418 0.51503806187062418 0 0.85716730853699208 forward_v I I I I #
loop $-1 $-1 $250 $60 #
coedge $-1 $154 $154 $155 $251 reversed $94 $-1 #
coedge $-1 $155 $155 $154 $251 forward $96 $-1 #
coedge $-1 $156 $156 $97 $157 forward $151 $-1 #
edge $-1 $252 0 $252 6.2831853071796004 $156 $253 forward 7 unknown #
face $-1 $254 $255 $33 $-1 $256 forward single #
loop $-1 $-1 $257 $98 #
plane-surface $-1 -136.94023994193381 6.558612245771231 52.098009929799396 0 1 0 -0.85716730853699208 0 0.51503806187062418 forward_v I I I I #
coedge $-1 $258 $259 $260 $261 reversed $99 $-1 #
coedge $-1 $163 $101 $262 $263 reversed $64 $-1 #
coedge $-1 $101 $162 $258 $264 reversed $64 $-1 #
coedge $-1 $260 $265 $101 $165 forward $266 $-1 #
edge $-1 $267 17.079790812579827 $268 25.919116672086652 $164 $269 forward 7 unknown #
loop $-1 $-1 $171 $102 #
plane-surface $-1 -50.450758384960494 9.7793569543591055 0.12988829281302117 -0.85716730853699208 0 0.51503806187062418 0.51503806187062418 0 0.85716730853699208 forward_v I I I I #
loop $-1 $-1 $270 $66 #
coedge $-1 $169 $169 $170 $271 reversed $103 $-1 #
coedge $-1 $170 $170 $169 $271 forward $105 $-1 #
coedge $-1 $171 $171 $106 $172 forward $166 $-1 #
edge $-1 $272 0 $272 6.2831853071796004 $171 $273 forward 7 unknown #
loop $-1 $-1 $178 $107 #
plane-surface $-1 -50.450758384960494 9.7793569543591055 0.12988829281302117 -0.85716730853699208 0 0.51503806187062418 0.51503806187062418 0 0.85716730853699208 forward_v I I I I #
loop $-1 $-1 $274 $69 #
coedge $-1 $176 $176 $177 $275 reversed $108 $-1 #
coedge $-1 $177 $177 $176 $275 forward $110 $-1 #
coedge $-1 $178 $178 $111 $179 forward $173 $-1 #
edge $-1 $276 0 $276 6.2831853071796004 $178 $277 forward 7 unknown #
face $-1 $278 $279 $27 $-1 $280 reversed single #
loop $-1 $-1 $281 $112 #
plane-surface $-1 -50.45075838496048 0 0 1 0 0 0 0 -1 forward_v I I I I #
coedge $-1 $282 $191 $283 $284 forward $113 $-1 #
coedge $-1 $285 $115 $282 $286 forward $73 $-1 #
coedge $-1 $115 $285 $287 $288 forward $73 $-1 #
coedge $-1 $194 $193 $115 $187 reversed $195 $-1 #
edge $-1 $289 -25.957343990484642 $290 25.957343990484642 $186 $291 forward 7 unknown #
coedge $-1 $117 $116 $292 $293 forward $46 $-1 #
coedge $-1 $294 $295 $116 $190 reversed $279 $-1 #
edge $-1 $197 -50.45075838496048 $296 50.45075838496048 $189 $297 forward 7 unknown #
coedge $-1 $183 $298 $117 $192 reversed $113 $-1 #
edge $-1 $299 -50.45075838496048 $196 50.45075838496048 $191 $300 forward 7 unknown #
coedge $-1 $186 $118 $298 $301 forward $195 $-1 #
coedge $-1 $118 $186 $294 $302 reversed $195 $-1 #
loop $-1 $-1 $193 $278 #
vertex $-1 $119 $303 #
vertex $-1 $119 $304 #
straight-curve $-1 50.45075838496048 0 8.9692141523198714 0 1 0 I I #
face $-1 $305 $306 $28 $-1 $307 reversed single #
loop $-1 $-1 $205 $120 #
plane-surface $-1 50.45075838496048 0 0 -1 0 0 0 0 1 forward_v I I I I #
coedge $-1 $308 $309 $203 $310 forward $121 $-1 #
coedge $-1 $311 $123 $202 $310 reversed $77 $-1 #
coedge $-1 $123 $311 $124 $208 reversed $77 $-1 #
coedge $-1 $126 $312 $123 $206 forward $200 $-1 #
edge $-1 $313 -5.2346070761599357 $212 -2.2346070761599357 $205 $314 forward 7 unknown #
coedge $-1 $125 $124 $315 $316 reversed $49 $-1 #
edge $-1 $212 -50.45075838496048 $317 50.45075838496048 $204 $318 forward 7 unknown #
coedge $-1 $319 $320 $125 $210 forward $306 $-1 #
edge $-1 $213 -50.45075838496048 $321 50.45075838496048 $209 $322 forward 7 unknown #
coedge $-1 $312 $126 $320 $323 forward $200 $-1 #
vertex $-1 $127 $324 #
vertex $-1 $323 $325 #
straight-curve $-1 50.45075838496048 -10.446227367683189 -5.9692141523198714 0 -1 0 I I #
face $-1 $326 $327 $29 $-1 $328 reversed single #
loop $-1 $-1 $329 $128 #
plane-surface $-1 0 0 -8.9692141523198714 0 0 1 1 0 0 forward_v I I I I #
coedge $-1 $330 $131 $329 $331 reversed $81 $-1 #
coedge $-1 $131 $330 $133 $225 reversed $81 $-1 #
coedge $-1 $332 $333 $131 $221 forward $327 $-1 #
edge $-1 $334 -5.2346070761599357 $335 -2.2346070761599357 $220 $336 forward 7 unknown #
coedge $-1 $133 $132 $332 $337 reversed $52 $-1 #
coedge $-1 $338 $339 $132 $224 forward $340 $-1 #
edge $-1 $341 -50.45075838496048 $228 50.45075838496048 $223 $342 forward 7 unknown #
edge $-1 $335 -50.45075838496048 $229 50.45075838496048 $219 $343 forward 7 unknown #
coedge $-1 $344 $134 $330 $345 forward $129 $-1 #
coedge $-1 $134 $344 $338 $346 reversed $129 $-1 #
vertex $-1 $346 $347 #
vertex $-1 $135 $348 #
straight-curve $-1 50.45075838496048 10.446227367683187 -5.9692141523198714 0 -1 0 I I #
face $-1 $-1 $349 $30 $-1 $350 forward single #
loop $-1 $-1 $142 $136 #
plane-surface $-1 -50.45075838496048 0 0 1 0 0 0 0 -1 forward_v I I I I #
coedge $-1 $351 $352 $353 $354 reversed $137 $-1 #
coedge $-1 $355 $139 $141 $241 forward $85 $-1 #
coedge $-1 $139 $355 $351 $356 forward $85 $-1 #
coedge $-1 $353 $142 $139 $238 forward $232 $-1 #
edge $-1 $244 -0.19664044564336791 $357 6.2448489715323809 $237 $358 forward 7 unknown #
coedge $-1 $359 $360 $140 $240 forward $349 $-1 #
edge $-1 $361 -23.330564210723431 $243 -18.019361586006426 $239 $362 forward 7 unknown #
edge $-1 $244 2.7589209654379419e-014 $361 10.31225266231135 $141 $363 forward 7 unknown #
coedge $-1 $142 $353 $359 $364 reversed $232 $-1 #
vertex $-1 $364 $365 #
vertex $-1 $143 $366 #
straight-curve $-1 -50.45075838496048 -2.8274638173011386 26.049004964899698 0 0 -1 I I #
coedge $-1 $246 $246 $-1 $367 reversed $146 $-1 #
edge $-1 $368 0 $368 6.2831853071796004 $147 $369 forward 7 unknown #
vertex $-1 $150 $370 #
ellipse-curve $-1 -47.795157072601981 -7.4285276867123855 4.5495512225664498 -0.85716730853699208 0 0.51503806187062418 0.25751903093531209 0 0.42858365426849604 1 I I #
coedge $-1 $250 $250 $-1 $371 reversed $153 $-1 #
edge $-1 $372 0 $372 6.2831853071796004 $154 $373 forward 7 unknown #
vertex $-1 $157 $374 #
ellipse-curve $-1 -47.795157072601981 -4.667889365065637 4.5495512225664498 -0.85716730853699208 0 0.51503806187062418 0.25751903093531209 0 0.42858365426849604 1 I I #
face $-1 $-1 $266 $33 $-1 $375 reversed single #
loop $-1 $-1 $376 $158 #
plane-surface $-1 0 0 8.9692141523198714 0 0 1 1 0 0 forward_v I I I I #
coedge $-1 $377 $378 $379 $380 reversed $159 $-1 #
coedge $-1 $381 $161 $163 $264 forward $99 $-1 #
coedge $-1 $161 $381 $377 $382 forward $99 $-1 #
coedge $-1 $379 $164 $161 $261 forward $266 $-1 #
edge $-1 $268 -8.1104231857674272 $383 -1.6689337685916783 $260 $384 forward 7 unknown #
coedge $-1 $385 $386 $162 $263 forward $255 $-1 #
edge $-1 $387 -23.330564210723431 $267 -18.019361586006426 $262 $388 forward 7 unknown #
edge $-1 $268 2.7589209654379419e-014 $387 10.31225266231135 $163 $389 forward 7 unknown #
coedge $-1 $164 $379 $385 $390 reversed $266 $-1 #
loop $-1 $-1 $379 $254 #
vertex $-1 $390 $391 #
vertex $-1 $165 $392 #
straight-curve $-1 -50.45075838496048 13.00010166294698 26.049004964899698 0 0 -1 I I #
coedge $-1 $270 $270 $-1 $393 reversed $168 $-1 #
edge $-1 $394 0 $394 6.2831853071796004 $169 $395 forward 7 unknown #
vertex $-1 $172 $396 #
ellipse-curve $-1 -47.795157072601981 8.3990377935357294 4.5495512225664498 -0.85716730853699208 0 0.51503806187062418 0.25751903093531209 0 0.42858365426849604 1 I I #
coedge $-1 $274 $274 $-1 $397 reversed $175 $-1 #
edge $-1 $398 0 $398 6.2831853071796004 $176 $399 forward 7 unknown #
vertex $-1 $179 $400 #
ellipse-curve $-1 -47.795157072601981 11.159676115182481 4.5495512225664498 -0.85716730853699208 0 0.51503806187062418 0.25751903093531209 0 0.42858365426849604 1 I I #
face $-1 $-1 $195 $27 $-1 $401 reversed single #
loop $-1 $-1 $294 $180 #
plane-surface $-1 0 25.957343990484642 0 0 -1 0 0 0 -1 forward_v I I I I #
coedge $-1 $402 $292 $295 $403 forward $181 $-1 #
coedge $-1 $298 $183 $184 $286 reversed $113 $-1 #
coedge $-1 $292 $402 $183 $284 reversed $181 $-1 #
edge $-1 $299 -8.9692141523198714 $404 8.9692141523198714 $283 $405 forward 7 unknown #
coedge $-1 $185 $184 $402 $406 forward $73 $-1 #
edge $-1 $290 -50.45075838496048 $404 50.45075838496048 $282 $407 forward 7 unknown #
coedge $-1 $295 $294 $185 $288 reversed $279 $-1 #
edge $-1 $408 -50.45075838496048 $289 50.45075838496048 $287 $409 forward 7 unknown #
vertex $-1 $187 $410 #
vertex $-1 $301 $411 #
straight-curve $-1 50.45075838496048 0 -8.9692141523198714 0 -1 0 I I #
coedge $-1 $281 $283 $188 $293 reversed $181 $-1 #
edge $-1 $296 -25.957343990484642 $299 25.957343990484642 $292 $412 forward 7 unknown #
coedge $-1 $287 $189 $194 $302 forward $279 $-1 #
coedge $-1 $189 $287 $281 $403 reversed $279 $-1 #
vertex $-1 $190 $413 #
straight-curve $-1 0 25.957343990484642 8.9692141523198714 -1 0 0 I I #
coedge $-1 $191 $282 $193 $301 reversed $113 $-1 #
vertex $-1 $293 $414 #
straight-curve $-1 0 -25.957343990484642 8.9692141523198714 1 0 0 I I #
edge $-1 $196 -8.9692141523198714 $290 8.9692141523198714 $193 $415 forward 7 unknown #
edge $-1 $197 -8.9692141523198714 $289 8.9692141523198714 $194 $416 forward 7 unknown #
point $-1 50.45075838496048 -25.957343990484642 8.9692141523198714 #
point $-1 50.45075838496048 25.957343990484642 8.9692141523198714 #
face $-1 $-1 $417 $28 $-1 $418 reversed single #
loop $-1 $-1 $209 $199 #
plane-surface $-1 0 -25.957343990484642 0 0 1 0 0 0 1 forward_v I I I I #
coedge $-1 $419 $202 $312 $420 forward $121 $-1 #
coedge $-1 $202 $419 $421 $422 forward $121 $-1 #
edge $-1 $423 -50.45075838496048 $313 50.45075838496048 $202 $424 forward 7 unknown #
coedge $-1 $204 $203 $425 $426 reversed $77 $-1 #
coedge $-1 $205 $211 $308 $420 reversed $200 $-1 #
vertex $-1 $420 $427 #
straight-curve $-1 50.45075838496048 -15.827565480248117 -3.7346070761599357 0 0 1 I I #
coedge $-1 $425 $428 $207 $316 forward $417 $-1 #
edge $-1 $321 -15.511116622801449 $317 -5.3813381125649276 $315 $429 forward 7 unknown #
vertex $-1 $316 $430 #
straight-curve $-1 0 -15.827565480248117 -5.9692141523198714 -1 0 0 I I #
coedge $-1 $431 $209 $428 $432 forward $306 $-1 #
coedge $-1 $209 $431 $211 $323 reversed $306 $-1 #
vertex $-1 $432 $433 #
straight-curve $-1 0 -25.957343990484642 -5.9692141523198714 -1 0 0 I I #
edge $-1 $213 5.9692141523198714 $434 8.9692141523198714 $211 $435 forward 7 unknown #
point $-1 50.45075838496048 -15.827565480248117 -5.9692141523198714 #
point $-1 50.45075838496048 -25.957343990484638 -5.9692141523198714 #
face $-1 $-1 $340 $29 $-1 $436 reversed single #
loop $-1 $-1 $332 $215 #
plane-surface $-1 -50.45075838496048 0 0 1 0 0 0 0 -1 forward_v I I I I #
coedge $-1 $437 $438 $218 $331 forward $216 $-1 #
coedge $-1 $219 $218 $226 $345 reversed $81 $-1 #
edge $-1 $439 -50.45075838496048 $334 50.45075838496048 $329 $440 forward 7 unknown #
coedge $-1 $441 $220 $222 $337 forward $327 $-1 #
coedge $-1 $220 $441 $437 $442 reversed $327 $-1 #
vertex $-1 $442 $443 #
vertex $-1 $337 $444 #
straight-curve $-1 -50.45075838496048 15.827565480248111 -3.7346070761599357 0 0 1 I I #
edge $-1 $335 5.381338112564924 $341 15.511116622801451 $332 $445 forward 7 unknown #
coedge $-1 $446 $223 $227 $346 forward $340 $-1 #
coedge $-1 $223 $446 $441 $447 reversed $340 $-1 #
loop $-1 $-1 $223 $326 #
vertex $-1 $447 $448 #
straight-curve $-1 0 25.957343990484642 -5.9692141523198714 1 0 0 I I #
straight-curve $-1 0 15.827565480248111 -5.9692141523198714 1 0 0 I I #
coedge $-1 $227 $226 $438 $449 reversed $129 $-1 #
edge $-1 $229 2.2346070761599357 $439 5.2346070761599357 $226 $450 forward 7 unknown #
edge $-1 $228 5.9692141523198714 $451 8.9692141523198714 $227 $452 forward 7 unknown #
point $-1 50.45075838496048 25.957343990484638 -5.9692141523198714 #
point $-1 50.45075838496048 15.827565480248111 -5.9692141523198714 #
loop $-1 $-1 $239 $231 #
plane-surface $-1 0 0 8.9692141523198714 0 0 1 1 0 0 forward_v I I I I #
coedge $-1 $352 $234 $236 $356 reversed $137 $-1 #
coedge $-1 $234 $351 $453 $454 reversed $137 $-1 #
coedge $-1 $242 $237 $234 $354 forward $232 $-1 #
edge $-1 $357 -25.919116672086652 $455 -17.079790812579827 $353 $456 forward 7 unknown #
coedge $-1 $236 $235 $360 $457 reversed $85 $-1 #
edge $-1 $458 -10.31225266231135 $357 -2.7589209654379419e-014 $351 $459 forward 7 unknown #
vertex $-1 $238 $460 #
straight-curve $-1 -50.45075838496048 -3.0241042629445065 0.1298882928130452 0 -1 0 I I #
coedge $-1 $453 $239 $242 $364 forward $349 $-1 #
coedge $-1 $239 $453 $355 $457 forward $349 $-1 #
vertex $-1 $240 $461 #
straight-curve $-1 -68.470119970966905 -2.8274638173011386 8.9692141523198714 -1 0 0 I I #
straight-curve $-1 -50.450758384960494 -2.8274638173011386 0.12988829281302117 0.51503806187062418 0 0.85716730853699208 I I #
edge $-1 $243 2.8274638173011386 $455 9.2689532344768875 $242 $462 forward 7 unknown #
point $-1 -50.45075838496048 -2.8274638173011386 8.9692141523198714 #
point $-1 -50.45075838496048 -2.8274638173011386 0.12988829281304481 #
edge $-1 $463 1 $463 0 $246 $-1 forward 7 unknown #
vertex $-1 $247 $464 #
ellipse-curve $-1 -46.643905017747862 -7.4285276867123855 3.8578092240659916 -0.85716730853699208 0 0.51503806187062418 0.25751903093531209 0 0.42858365426849604 1 I I #
point $-1 -47.537638041666654 -7.4285276867123855 4.9781348768349387 #
edge $-1 $465 1 $465 0 $250 $-1 forward 7 unknown #
vertex $-1 $251 $466 #
ellipse-curve $-1 -46.643905017747862 -4.667889365065637 3.8578092240659916 -0.85716730853699208 0 0.51503806187062418 0.25751903093531209 0 0.42858365426849604 1 I I #
point $-1 -47.537638041666654 -4.667889365065637 4.9781348768349387 #
plane-surface $-1 -50.45075838496048 0 0 1 0 0 0 0 -1 forward_v I I I I #
coedge $-1 $386 $385 $378 $467 forward $255 $-1 #
coedge $-1 $378 $257 $259 $382 reversed $159 $-1 #
coedge $-1 $257 $377 $376 $467 reversed $159 $-1 #
coedge $-1 $265 $260 $257 $380 forward $266 $-1 #
edge $-1 $383 -25.919116672086652 $468 -17.079790812579827 $379 $469 forward 7 unknown #
coedge $-1 $259 $258 $386 $470 reversed $99 $-1 #
edge $-1 $471 -10.31225266231135 $383 -2.7589209654379419e-014 $377 $472 forward 7 unknown #
vertex $-1 $261 $473 #
straight-curve $-1 -50.45075838496048 4.8896784771795527 0.1298882928130452 0 -1 0 I I #
coedge $-1 $376 $262 $265 $390 forward $255 $-1 #
coedge $-1 $262 $376 $381 $470 forward $255 $-1 #
vertex $-1 $263 $474 #
straight-curve $-1 -68.470119970966905 13.00010166294698 8.9692141523198714 -1 0 0 I I #
straight-curve $-1 -50.450758384960494 13.00010166294698 0.12988829281302117 0.51503806187062418 0 0.85716730853699208 I I #
edge $-1 $267 -13.00010166294698 $468 -6.558612245771231 $265 $475 forward 7 unknown #
point $-1 -50.45075838496048 13.00010166294698 8.9692141523198714 #
point $-1 -50.45075838496048 13.00010166294698 0.12988829281304481 #
edge $-1 $476 1 $476 0 $270 $-1 forward 7 unknown #
vertex $-1 $271 $477 #
ellipse-curve $-1 -46.643905017747862 8.3990377935357294 3.8578092240659916 -0.85716730853699208 0 0.51503806187062418 0.25751903093531209 0 0.42858365426849604 1 I I #
point $-1 -47.537638041666654 8.3990377935357294 4.9781348768349387 #
edge $-1 $478 1 $478 0 $274 $-1 forward 7 unknown #
vertex $-1 $275 $479 #
ellipse-curve $-1 -46.643905017747862 11.159676115182481 3.8578092240659916 -0.85716730853699208 0 0.51503806187062418 0.25751903093531209 0 0.42858365426849604 1 I I #
point $-1 -47.537638041666654 11.159676115182481 4.9781348768349387 #
plane-surface $-1 50.45075838496048 0 0 -1 0 0 0 0 1 forward_v I I I I #
coedge $-1 $283 $281 $285 $406 reversed $181 $-1 #
edge $-1 $296 -8.9692141523198714 $408 8.9692141523198714 $295 $480 forward 7 unknown #
vertex $-1 $406 $481 #
straight-curve $-1 -50.45075838496048 -25.957343990484642 0 0 0 -1 I I #
edge $-1 $404 -25.957343990484642 $408 25.957343990484642 $402 $482 forward 7 unknown #
straight-curve $-1 0 -25.957343990484642 -8.9692141523198714 -1 0 0 I I #
vertex $-1 $288 $483 #
straight-curve $-1 0 25.957343990484642 -8.9692141523198714 1 0 0 I I #
point $-1 50.45075838496048 25.957343990484642 -8.9692141523198714 #
point $-1 50.45075838496048 -25.957343990484642 -8.9692141523198714 #
straight-curve $-1 -50.45075838496048 0 8.9692141523198714 0 -1 0 I I #
point $-1 -50.45075838496048 25.957343990484642 8.9692141523198714 #
point $-1 -50.45075838496048 -25.957343990484642 8.9692141523198714 #
straight-curve $-1 50.45075838496048 -25.957343990484642 0 0 0 -1 I I #
straight-curve $-1 50.45075838496048 25.957343990484642 0 0 0 -1 I I #
loop $-1 $-1 $425 $305 #
plane-surface $-1 -50.45075838496048 0 0 1 0 0 0 0 -1 forward_v I I I I #
coedge $-1 $309 $308 $431 $484 forward $121 $-1 #
edge $-1 $313 15.827565480248117 $434 25.957343990484642 $312 $485 forward 7 unknown #
coedge $-1 $428 $425 $309 $422 reversed $417 $-1 #
edge $-1 $486 -25.957343990484642 $423 -15.827565480248117 $421 $487 forward 7 unknown #
vertex $-1 $426 $488 #
straight-curve $-1 0 -15.827565480248117 -8.9692141523198714 1 0 0 I I #
coedge $-1 $421 $315 $311 $426 forward $417 $-1 #
edge $-1 $317 2.2346070761599357 $423 5.2346070761599357 $425 $489 forward 7 unknown #
point $-1 50.45075838496048 -15.827565480248117 -8.9692141523198714 #
coedge $-1 $315 $421 $319 $432 reversed $417 $-1 #
straight-curve $-1 -50.45075838496048 -10.446227367683189 -5.9692141523198714 0 1 0 I I #
point $-1 -50.45075838496048 -15.827565480248117 -5.9692141523198714 #
coedge $-1 $320 $319 $419 $484 reversed $306 $-1 #
edge $-1 $321 5.9692141523198714 $486 8.9692141523198714 $428 $490 forward 7 unknown #
point $-1 -50.45075838496048 -25.957343990484638 -5.9692141523198714 #
vertex $-1 $323 $491 #
straight-curve $-1 50.45075838496048 -25.957343990484642 0 0 0 -1 I I #
plane-surface $-1 0 25.957343990484642 0 0 -1 0 0 0 -1 forward_v I I I I #
coedge $-1 $492 $329 $333 $442 forward $216 $-1 #
coedge $-1 $329 $492 $344 $449 forward $216 $-1 #
vertex $-1 $331 $493 #
straight-curve $-1 0 15.827565480248111 -8.9692141523198714 -1 0 0 I I #
coedge $-1 $333 $332 $339 $447 forward $327 $-1 #
edge $-1 $334 15.827565480248111 $494 25.957343990484642 $333 $495 forward 7 unknown #
point $-1 -50.45075838496048 15.827565480248111 -8.9692141523198714 #
point $-1 -50.45075838496048 15.827565480248111 -5.9692141523198714 #
straight-curve $-1 -50.45075838496048 10.446227367683187 -5.9692141523198714 0 1 0 I I #
coedge $-1 $339 $338 $492 $496 reversed $340 $-1 #
edge $-1 $341 5.9692141523198714 $494 8.9692141523198714 $339 $497 forward 7 unknown #
point $-1 -50.45075838496048 25.957343990484638 -5.9692141523198714 #
edge $-1 $451 -25.957343990484642 $439 -15.827565480248111 $344 $498 forward 7 unknown #
straight-curve $-1 50.45075838496048 15.827565480248111 -3.7346070761599357 0 0 -1 I I #
vertex $-1 $449 $499 #
straight-curve $-1 50.45075838496048 25.957343990484642 0 0 0 -1 I I #
coedge $-1 $360 $359 $352 $454 forward $349 $-1 #
edge $-1 $455 18.019361586006426 $458 23.330564210723431 $453 $500 forward 7 unknown #
vertex $-1 $454 $501 #
straight-curve $-1 -50.45075838496048 -9.2689532344768875 26.049004964899698 0 0 1 I I #
edge $-1 $458 -6.2448489715323809 $361 0.19664044564336791 $360 $502 forward 7 unknown #
vertex $-1 $457 $503 #
straight-curve $-1 -50.450758384960494 -9.2689532344768875 0.12988829281302117 -0.51503806187062418 0 -0.85716730853699208 I I #
point $-1 -50.45075838496048 -9.2689532344768875 0.12988829281304481 #
point $-1 -45.139555760243475 -2.8274638173011386 8.9692141523198714 #
straight-curve $-1 -50.45075838496048 0 8.9692141523198714 0 -1 0 I I #
vertex $-1 $367 $504 #
point $-1 -46.386385986812549 -7.4285276867123855 4.2863928783344871 #
vertex $-1 $371 $505 #
point $-1 -46.386385986812549 -4.667889365065637 4.2863928783344871 #
edge $-1 $468 18.019361586006426 $471 23.330564210723431 $376 $506 forward 7 unknown #
vertex $-1 $467 $507 #
straight-curve $-1 -50.45075838496048 6.558612245771231 26.049004964899698 0 0 1 I I #
edge $-1 $471 1.6689337685916783 $387 8.1104231857674272 $386 $508 forward 7 unknown #
vertex $-1 $470 $509 #
straight-curve $-1 -50.450758384960494 6.558612245771231 0.12988829281302117 -0.51503806187062418 0 -0.85716730853699208 I I #
point $-1 -50.45075838496048 6.558612245771231 0.12988829281304481 #
point $-1 -45.139555760243475 13.00010166294698 8.9692141523198714 #
straight-curve $-1 -50.45075838496048 0 8.9692141523198714 0 -1 0 I I #
vertex $-1 $393 $510 #
point $-1 -46.386385986812549 8.3990377935357294 4.2863928783344871 #
vertex $-1 $397 $511 #
point $-1 -46.386385986812549 11.159676115182481 4.2863928783344871 #
straight-curve $-1 -50.45075838496048 25.957343990484642 0 0 0 -1 I I #
point $-1 -50.45075838496048 -25.957343990484642 -8.9692141523198714 #
straight-curve $-1 -50.45075838496048 0 -8.9692141523198714 0 1 0 I I #
point $-1 -50.45075838496048 25.957343990484642 -8.9692141523198714 #
edge $-1 $434 -50.45075838496048 $486 50.45075838496048 $431 $512 forward 7 unknown #
straight-curve $-1 50.45075838496048 0 -8.9692141523198714 0 -1 0 I I #
vertex $-1 $422 $513 #
straight-curve $-1 -50.45075838496048 0 -8.9692141523198714 0 1 0 I I #
point $-1 -50.45075838496048 -15.827565480248117 -8.9692141523198714 #
straight-curve $-1 -50.45075838496048 -15.827565480248117 -3.7346070761599357 0 0 -1 I I #
straight-curve $-1 -50.45075838496048 -25.957343990484642 0 0 0 -1 I I #
point $-1 50.45075838496048 -25.957343990484642 -8.9692141523198714 #
coedge $-1 $438 $437 $446 $496 forward $216 $-1 #
point $-1 50.45075838496048 15.827565480248111 -8.9692141523198714 #
vertex $-1 $496 $514 #
straight-curve $-1 -50.45075838496048 0 -8.9692141523198714 0 1 0 I I #
edge $-1 $494 -50.45075838496048 $451 50.45075838496048 $446 $515 forward 7 unknown #
straight-curve $-1 -50.45075838496048 25.957343990484642 0 0 0 -1 I I #
straight-curve $-1 50.45075838496048 0 -8.9692141523198714 0 -1 0 I I #
point $-1 50.45075838496048 25.957343990484642 -8.9692141523198714 #
straight-curve $-1 -68.470119970966905 -9.2689532344768875 8.9692141523198714 1 0 0 I I #
point $-1 -50.45075838496048 -9.2689532344768875 8.9692141523198714 #
straight-curve $-1 -45.139555760243468 -3.0241042629445065 8.9692141523198714 0 1 0 I I #
point $-1 -45.139555760243475 -9.2689532344768875 8.9692141523198714 #
point $-1 -46.215321363479369 -7.4285276867123855 3.6002901931306792 #
point $-1 -46.215321363479369 -4.667889365065637 3.6002901931306792 #
straight-curve $-1 -68.470119970966905 6.558612245771231 8.9692141523198714 1 0 0 I I #
point $-1 -50.45075838496048 6.558612245771231 8.9692141523198714 #
straight-curve $-1 -45.139555760243468 4.8896784771795527 8.9692141523198714 0 1 0 I I #
point $-1 -45.139555760243475 6.558612245771231 8.9692141523198714 #
point $-1 -46.215321363479369 8.3990377935357294 3.6002901931306792 #
point $-1 -46.215321363479369 11.159676115182481 3.6002901931306792 #
straight-curve $-1 0 -25.957343990484642 -8.9692141523198714 -1 0 0 I I #
point $-1 -50.45075838496048 -25.957343990484642 -8.9692141523198714 #
point $-1 -50.45075838496048 25.957343990484642 -8.9692141523198714 #
straight-curve $-1 0 25.957343990484642 -8.9692141523198714 1 0 0 I I #
End-of-ACIS-data 