500 0 11 0           
7 Unknown 11 ACIS 5.0 NT 24 Fri Mar 26 00:14:50 1999 
-1 9.9999999999999995e-007 1e-010 
body $-1 $11 $-1 $12 #
body $-1 $13 $-1 $14 #
body $-1 $15 $-1 $16 #
body $-1 $17 $-1 $18 #
body $-1 $19 $-1 $20 #
body $-1 $21 $-1 $22 #
body $-1 $23 $-1 $24 #
body $-1 $25 $-1 $26 #
body $-1 $27 $-1 $28 #
body $-1 $29 $-1 $30 #
body $-1 $31 $-1 $32 #
lump $-1 $-1 $33 $0 #
transform $-1 1 0 0 0 1 0 0 0 1 53.589281899472027 36.098474284179701 10.390195639405011 1 rotate no_reflect no_shear #
lump $-1 $-1 $34 $1 #
transform $-1 1 0 0 0 1 0 0 0 1 53.589281899472027 36.098474284179701 10.390195639405011 1 rotate no_reflect no_shear #
lump $-1 $-1 $35 $2 #
transform $-1 1 0 0 0 1 0 0 0 1 53.589281899472027 36.098474284179701 10.390195639405011 1 rotate no_reflect no_shear #
lump $-1 $-1 $36 $3 #
transform $-1 1 0 0 0 1 0 0 0 1 53.589281899472027 36.098474284179701 10.390195639405011 1 rotate no_reflect no_shear #
lump $-1 $-1 $37 $4 #
transform $-1 1 0 0 0 1 0 0 0 1 53.589281899472027 36.098474284179701 10.390195639405011 1 rotate no_reflect no_shear #
lump $-1 $-1 $38 $5 #
transform $-1 1 0 0 0 1 0 0 0 1 53.589281899472027 36.098474284179701 10.390195639405011 1 rotate no_reflect no_shear #
lump $-1 $-1 $39 $6 #
transform $-1 1 0 0 0 1 0 0 0 1 53.589281899472027 36.098474284179701 10.390195639405011 1 rotate no_reflect no_shear #
lump $-1 $-1 $40 $7 #
transform $-1 1 0 0 0 1 0 0 0 1 53.589281899472027 36.098474284179701 10.390195639405011 1 rotate no_reflect no_shear #
lump $-1 $-1 $41 $8 #
transform $-1 1 0 0 0 1 0 0 0 1 53.589281899472027 36.098474284179701 10.390195639405011 1 rotate no_reflect no_shear #
lump $-1 $-1 $42 $9 #
transform $-1 1 0 0 0 1 0 0 0 1 53.589281899472027 36.098474284179701 10.390195639405011 1 rotate no_reflect no_shear #
lump $-1 $-1 $43 $10 #
transform $-1 1 0 0 0 1 0 0 0 1 53.589281899472027 36.098474284179701 10.390195639405011 1 rotate no_reflect no_shear #
shell $-1 $-1 $-1 $44 $-1 $11 #
shell $-1 $-1 $-1 $45 $-1 $13 #
shell $-1 $-1 $-1 $46 $-1 $15 #
shell $-1 $-1 $-1 $47 $-1 $17 #
shell $-1 $-1 $-1 $48 $-1 $19 #
shell $-1 $-1 $-1 $49 $-1 $21 #
shell $-1 $-1 $-1 $50 $-1 $23 #
shell $-1 $-1 $-1 $51 $-1 $25 #
shell $-1 $-1 $-1 $52 $-1 $27 #
shell $-1 $-1 $-1 $53 $-1 $29 #
shell $-1 $-1 $-1 $54 $-1 $31 #
face $-1 $55 $56 $33 $-1 $57 forward single #
face $-1 $58 $59 $34 $-1 $60 reversed single #
face $-1 $61 $62 $35 $-1 $63 reversed single #
face $-1 $64 $65 $36 $-1 $66 reversed single #
face $-1 $67 $68 $37 $-1 $69 forward single #
face $-1 $70 $71 $38 $-1 $72 reversed single #
face $-1 $73 $74 $39 $-1 $75 forward single #
face $-1 $76 $77 $40 $-1 $78 reversed single #
face $-1 $79 $80 $41 $-1 $81 forward single #
face $-1 $82 $83 $42 $-1 $84 reversed single #
face $-1 $85 $86 $43 $-1 $87 forward single #
face $-1 $88 $89 $33 $-1 $90 reversed single #
loop $-1 $-1 $91 $44 #
plane-surface $-1 0 0 10.390195639405011 0 0 1 1 0 0 forward_v I I I I #
face $-1 $92 $93 $34 $-1 $94 reversed single #
loop $-1 $-1 $95 $45 #
plane-surface $-1 -39.440325896997329 -31.294520543186728 0 1 0 0 0 0 -1 forward_v I I I I #
face $-1 $96 $97 $35 $-1 $98 reversed single #
loop $-1 $-1 $99 $46 #
plane-surface $-1 -37.248228314833241 26.490566802193761 0 0 1 0 0 0 1 forward_v I I I I #
face $-1 $100 $101 $36 $-1 $102 reversed single #
loop $-1 $-1 $103 $47 #
plane-surface $-1 -139.18588974660801 -23.934612167578464 67.422608157799303 0 1 0 -0.79863551827123203 0 0.60181501223851219 forward_v I I I I #
face $-1 $104 $105 $37 $-1 $106 forward single #
loop $-1 $107 $108 $48 #
cone-surface $-1 -49.310149674512942 -19.60988643341387 5.5516951612321543 0.79863551827123203 0 -0.60181501223851219 0.60181501223851219 0 0.79863551827123203 1 I I 0 1 1 forward I I I I #
face $-1 $109 $110 $38 $-1 $111 reversed single #
loop $-1 $-1 $112 $49 #
plane-surface $-1 -139.18588974660801 -10.689328766481587 67.422608157799303 0 1 0 -0.79863551827123203 0 0.60181501223851219 forward_v I I I I #
face $-1 $113 $114 $39 $-1 $115 forward single #
loop $-1 $116 $117 $50 #
cone-surface $-1 -49.310149674512942 -6.3646030323169924 5.5516951612321543 0.79863551827123203 0 -0.60181501223851219 0.60181501223851219 0 0.79863551827123203 1 I I 0 1 1 forward I I I I #
face $-1 $118 $119 $40 $-1 $120 reversed single #
loop $-1 $-1 $121 $51 #
plane-surface $-1 -139.18588974660801 2.5559546346152908 67.422608157799303 0 1 0 -0.79863551827123203 0 0.60181501223851219 forward_v I I I I #
face $-1 $122 $123 $41 $-1 $124 forward single #
loop $-1 $125 $126 $52 #
cone-surface $-1 -49.310149674512942 6.8806803687798848 5.5516951612321543 0.79863551827123203 0 -0.60181501223851219 0.60181501223851219 0 0.79863551827123203 1 I I 0 1 1 forward I I I I #
face $-1 $127 $128 $42 $-1 $129 reversed single #
loop $-1 $-1 $130 $53 #
plane-surface $-1 -139.18588974660801 15.801238035712167 67.422608157799303 0 1 0 -0.79863551827123203 0 0.60181501223851219 forward_v I I I I #
face $-1 $131 $132 $43 $-1 $133 forward single #
loop $-1 $134 $135 $54 #
cone-surface $-1 -49.310149674512942 20.125963769876762 5.5516951612321543 0.79863551827123203 0 -0.60181501223851219 0.60181501223851219 0 0.79863551827123203 1 I I 0 1 1 forward I I I I #
face $-1 $136 $137 $33 $-1 $138 reversed single #
loop $-1 $-1 $139 $55 #
plane-surface $-1 0 0 -10.390195639405011 0 0 1 1 0 0 forward_v I I I I #
coedge $-1 $140 $141 $142 $143 forward $56 $-1 #
face $-1 $144 $145 $34 $-1 $146 reversed single #
loop $-1 $-1 $147 $58 #
plane-surface $-1 -37.248228314833241 -26.490566802193754 0 0 -1 0 0 0 -1 forward_v I I I I #
coedge $-1 $148 $149 $150 $151 forward $59 $-1 #
face $-1 $152 $153 $35 $-1 $154 reversed single #
loop $-1 $-1 $155 $61 #
plane-surface $-1 -39.440325896997329 31.294520543186735 0 1 0 0 0 0 -1 forward_v I I I I #
coedge $-1 $156 $157 $158 $159 forward $62 $-1 #
face $-1 $160 $161 $36 $-1 $162 reversed single #
loop $-1 $-1 $163 $64 #
plane-surface $-1 -53.589281899472027 -19.60988643341387 2.9209394734316305 -0.79863551827123203 0 0.60181501223851219 0.60181501223851219 0 0.79863551827123203 forward_v I I I I #
coedge $-1 $164 $165 $166 $167 reversed $65 $-1 #
face $-1 $-1 $168 $37 $-1 $169 forward single #
loop $-1 $170 $171 $67 #
cone-surface $-1 -47.445943727966309 -19.60988643341387 4.1469152599267289 0.79863551827123203 0 -0.60181501223851219 0.3009075061192561 0 0.39931775913561601 1 I I -0.70710678118654746 0.70710678118654746 0.5 forward I I I I #
loop $-1 $-1 $172 $48 #
coedge $-1 $108 $108 $173 $174 reversed $68 $-1 #
face $-1 $175 $176 $38 $-1 $177 reversed single #
loop $-1 $-1 $178 $70 #
plane-surface $-1 -53.589281899472027 -6.3646030323169924 2.9209394734316305 -0.79863551827123203 0 0.60181501223851219 0.60181501223851219 0 0.79863551827123203 forward_v I I I I #
coedge $-1 $179 $180 $181 $182 reversed $71 $-1 #
face $-1 $-1 $183 $39 $-1 $184 forward single #
loop $-1 $185 $186 $73 #
cone-surface $-1 -47.445943727966309 -6.3646030323169924 4.1469152599267289 0.79863551827123203 0 -0.60181501223851219 0.3009075061192561 0 0.39931775913561601 1 I I -0.70710678118654746 0.70710678118654746 0.5 forward I I I I #
loop $-1 $-1 $187 $50 #
coedge $-1 $117 $117 $188 $189 reversed $74 $-1 #
face $-1 $190 $191 $40 $-1 $192 reversed single #
loop $-1 $-1 $193 $76 #
plane-surface $-1 -53.589281899472027 6.8806803687798848 2.9209394734316305 -0.79863551827123203 0 0.60181501223851219 0.60181501223851219 0 0.79863551827123203 forward_v I I I I #
coedge $-1 $194 $195 $196 $197 reversed $77 $-1 #
face $-1 $-1 $198 $41 $-1 $199 forward single #
loop $-1 $200 $201 $79 #
cone-surface $-1 -47.445943727966309 6.8806803687798848 4.1469152599267289 0.79863551827123203 0 -0.60181501223851219 0.3009075061192561 0 0.39931775913561601 1 I I -0.70710678118654746 0.70710678118654746 0.5 forward I I I I #
loop $-1 $-1 $202 $52 #
coedge $-1 $126 $126 $203 $204 reversed $80 $-1 #
face $-1 $205 $206 $42 $-1 $207 reversed single #
loop $-1 $-1 $208 $82 #
plane-surface $-1 -53.589281899472027 20.125963769876762 2.9209394734316305 -0.79863551827123203 0 0.60181501223851219 0.60181501223851219 0 0.79863551827123203 forward_v I I I I #
coedge $-1 $209 $210 $211 $212 reversed $83 $-1 #
face $-1 $-1 $213 $43 $-1 $214 forward single #
loop $-1 $215 $216 $85 #
cone-surface $-1 -47.445943727966309 20.125963769876762 4.1469152599267289 0.79863551827123203 0 -0.60181501223851219 0.3009075061192561 0 0.39931775913561601 1 I I -0.70710678118654746 0.70710678118654746 0.5 forward I I I I #
loop $-1 $-1 $217 $54 #
coedge $-1 $135 $135 $218 $219 reversed $86 $-1 #
face $-1 $220 $221 $33 $-1 $222 reversed single #
loop $-1 $-1 $223 $88 #
plane-surface $-1 0 -36.098474284179701 0 0 1 0 0 0 1 forward_v I I I I #
coedge $-1 $224 $225 $226 $227 forward $89 $-1 #
coedge $-1 $228 $91 $229 $230 forward $56 $-1 #
coedge $-1 $91 $228 $231 $232 forward $56 $-1 #
coedge $-1 $233 $234 $91 $143 reversed $235 $-1 #
edge $-1 $236 -36.098474284179701 $237 36.098474284179701 $142 $238 forward 7 unknown #
face $-1 $239 $240 $34 $-1 $241 forward single #
loop $-1 $-1 $242 $92 #
plane-surface $-1 -35.056130732669153 -31.294520543186728 0 -1 0 0 0 0 1 forward_v I I I I #
coedge $-1 $243 $244 $245 $246 forward $93 $-1 #
coedge $-1 $247 $95 $248 $249 reversed $59 $-1 #
coedge $-1 $95 $247 $250 $251 reversed $59 $-1 #
coedge $-1 $244 $243 $95 $151 reversed $93 $-1 #
edge $-1 $252 -10.390195639405011 $253 10.390195639405011 $150 $254 forward 7 unknown #
face $-1 $255 $256 $35 $-1 $257 reversed single #
loop $-1 $-1 $258 $96 #
plane-surface $-1 -35.056130732669153 31.294520543186735 0 -1 0 0 0 0 1 forward_v I I I I #
coedge $-1 $259 $260 $261 $262 reversed $97 $-1 #
coedge $-1 $263 $99 $264 $265 reversed $62 $-1 #
coedge $-1 $99 $263 $266 $267 reversed $62 $-1 #
coedge $-1 $260 $259 $99 $159 reversed $97 $-1 #
edge $-1 $268 -10.390195639405011 $269 10.390195639405011 $158 $270 forward 7 unknown #
face $-1 $271 $272 $36 $-1 $273 reversed single #
loop $-1 $-1 $274 $100 #
plane-surface $-1 -139.18588974660801 -15.285160699249275 67.422608157799303 0 -1 0 0.79863551827123203 0 -0.60181501223851219 forward_v I I I I #
coedge $-1 $275 $276 $277 $278 reversed $101 $-1 #
coedge $-1 $165 $103 $279 $280 reversed $65 $-1 #
coedge $-1 $103 $164 $275 $281 reversed $65 $-1 #
coedge $-1 $277 $282 $103 $167 forward $283 $-1 #
edge $-1 $284 16.003662973831979 $285 21.632151048928115 $166 $286 forward 7 unknown #
loop $-1 $-1 $173 $104 #
plane-surface $-1 -53.589281899472027 -19.60988643341387 2.9209394734316305 -0.79863551827123203 0 0.60181501223851219 0.60181501223851219 0 0.79863551827123203 forward_v I I I I #
loop $-1 $-1 $287 $67 #
coedge $-1 $171 $171 $172 $288 reversed $105 $-1 #
coedge $-1 $172 $172 $171 $288 forward $107 $-1 #
coedge $-1 $173 $173 $108 $174 forward $168 $-1 #
edge $-1 $289 0 $289 6.2831853071796004 $173 $290 forward 7 unknown #
face $-1 $291 $292 $38 $-1 $293 forward single #
loop $-1 $-1 $294 $109 #
plane-surface $-1 -139.18588974660801 -2.0398772981523985 67.422608157799303 0 -1 0 0.79863551827123203 0 -0.60181501223851219 forward_v I I I I #
coedge $-1 $295 $296 $297 $298 reversed $110 $-1 #
coedge $-1 $180 $112 $299 $300 reversed $71 $-1 #
coedge $-1 $112 $179 $295 $301 reversed $71 $-1 #
coedge $-1 $297 $302 $112 $182 forward $292 $-1 #
edge $-1 $303 16.003662973831979 $304 21.632151048928115 $181 $305 forward 7 unknown #
loop $-1 $-1 $188 $113 #
plane-surface $-1 -53.589281899472027 -6.3646030323169924 2.9209394734316305 -0.79863551827123203 0 0.60181501223851219 0.60181501223851219 0 0.79863551827123203 forward_v I I I I #
loop $-1 $-1 $306 $73 #
coedge $-1 $186 $186 $187 $307 reversed $114 $-1 #
coedge $-1 $187 $187 $186 $307 forward $116 $-1 #
coedge $-1 $188 $188 $117 $189 forward $183 $-1 #
edge $-1 $308 0 $308 6.2831853071796004 $188 $309 forward 7 unknown #
face $-1 $310 $311 $40 $-1 $312 forward single #
loop $-1 $-1 $313 $118 #
plane-surface $-1 -139.18588974660801 11.20540610294448 67.422608157799303 0 -1 0 0.79863551827123203 0 -0.60181501223851219 forward_v I I I I #
coedge $-1 $314 $315 $316 $317 reversed $119 $-1 #
coedge $-1 $195 $121 $318 $319 reversed $77 $-1 #
coedge $-1 $121 $194 $314 $320 reversed $77 $-1 #
coedge $-1 $316 $321 $121 $197 forward $311 $-1 #
edge $-1 $322 16.003662973831979 $323 21.632151048928115 $196 $324 forward 7 unknown #
loop $-1 $-1 $203 $122 #
plane-surface $-1 -53.589281899472027 6.8806803687798848 2.9209394734316305 -0.79863551827123203 0 0.60181501223851219 0.60181501223851219 0 0.79863551827123203 forward_v I I I I #
loop $-1 $-1 $325 $79 #
coedge $-1 $201 $201 $202 $326 reversed $123 $-1 #
coedge $-1 $202 $202 $201 $326 forward $125 $-1 #
coedge $-1 $203 $203 $126 $204 forward $198 $-1 #
edge $-1 $327 0 $327 6.2831853071796004 $203 $328 forward 7 unknown #
face $-1 $329 $330 $42 $-1 $331 forward single #
loop $-1 $-1 $332 $127 #
plane-surface $-1 -139.18588974660801 24.450689504041357 67.422608157799303 0 -1 0 0.79863551827123203 0 -0.60181501223851219 forward_v I I I I #
coedge $-1 $333 $334 $335 $336 reversed $128 $-1 #
coedge $-1 $210 $130 $337 $338 reversed $83 $-1 #
coedge $-1 $130 $209 $333 $339 reversed $83 $-1 #
coedge $-1 $335 $340 $130 $212 forward $330 $-1 #
edge $-1 $341 16.003662973831979 $342 21.632151048928115 $211 $343 forward 7 unknown #
loop $-1 $-1 $218 $131 #
plane-surface $-1 -53.589281899472027 20.125963769876762 2.9209394734316305 -0.79863551827123203 0 0.60181501223851219 0.60181501223851219 0 0.79863551827123203 forward_v I I I I #
loop $-1 $-1 $344 $85 #
coedge $-1 $216 $216 $217 $345 reversed $132 $-1 #
coedge $-1 $217 $217 $216 $345 forward $134 $-1 #
coedge $-1 $218 $218 $135 $219 forward $213 $-1 #
edge $-1 $346 0 $346 6.2831853071796004 $218 $347 forward 7 unknown #
face $-1 $348 $349 $33 $-1 $350 reversed single #
loop $-1 $-1 $351 $136 #
plane-surface $-1 -53.589281899472027 0 0 1 0 0 0 0 -1 forward_v I I I I #
coedge $-1 $352 $231 $353 $354 forward $137 $-1 #
coedge $-1 $355 $139 $352 $356 forward $89 $-1 #
coedge $-1 $139 $355 $357 $358 forward $89 $-1 #
coedge $-1 $234 $233 $139 $227 reversed $235 $-1 #
edge $-1 $359 -36.098474284179701 $360 36.098474284179701 $226 $361 forward 7 unknown #
coedge $-1 $141 $140 $362 $363 forward $56 $-1 #
coedge $-1 $364 $365 $140 $230 reversed $349 $-1 #
edge $-1 $237 -53.589281899472027 $366 53.589281899472027 $229 $367 forward 7 unknown #
coedge $-1 $223 $368 $141 $232 reversed $137 $-1 #
edge $-1 $369 -53.589281899472027 $236 53.589281899472027 $231 $370 forward 7 unknown #
coedge $-1 $226 $142 $368 $371 forward $235 $-1 #
coedge $-1 $142 $226 $364 $372 reversed $235 $-1 #
loop $-1 $-1 $233 $348 #
vertex $-1 $143 $373 #
vertex $-1 $143 $374 #
straight-curve $-1 53.589281899472027 0 10.390195639405011 0 1 0 I I #
face $-1 $375 $376 $34 $-1 $377 reversed single #
loop $-1 $-1 $378 $144 #
plane-surface $-1 0 0 10.390195639405011 0 0 1 1 0 0 forward_v I I I I #
coedge $-1 $379 $380 $381 $382 reversed $145 $-1 #
coedge $-1 $150 $147 $383 $384 reversed $93 $-1 #
coedge $-1 $147 $150 $385 $386 reversed $93 $-1 #
coedge $-1 $380 $379 $147 $246 reversed $145 $-1 #
edge $-1 $387 -10.390195639405011 $388 10.390195639405011 $245 $389 forward 7 unknown #
coedge $-1 $149 $148 $390 $391 reversed $59 $-1 #
coedge $-1 $383 $392 $148 $249 forward $376 $-1 #
edge $-1 $393 -20.451214012586338 $253 -10.84330653060039 $248 $394 forward 7 unknown #
coedge $-1 $395 $385 $149 $251 forward $240 $-1 #
edge $-1 $252 10.84330653060039 $396 20.451214012586338 $250 $397 forward 7 unknown #
vertex $-1 $251 $398 #
vertex $-1 $249 $399 #
straight-curve $-1 -39.440325896997329 -26.490566802193754 0 0 0 -1 I I #
face $-1 $400 $401 $35 $-1 $402 forward single #
loop $-1 $-1 $403 $152 #
plane-surface $-1 0 0 -10.390195639405011 0 0 1 1 0 0 forward_v I I I I #
coedge $-1 $404 $405 $263 $406 forward $153 $-1 #
coedge $-1 $158 $155 $407 $408 reversed $97 $-1 #
coedge $-1 $155 $158 $409 $410 reversed $97 $-1 #
coedge $-1 $411 $412 $155 $262 forward $413 $-1 #
edge $-1 $414 -10.390195639405011 $415 10.390195639405011 $261 $416 forward 7 unknown #
coedge $-1 $157 $156 $258 $406 reversed $62 $-1 #
coedge $-1 $407 $403 $156 $265 forward $256 $-1 #
edge $-1 $417 16.432016575252533 $269 20.816211739580709 $264 $418 forward 7 unknown #
coedge $-1 $419 $409 $157 $267 forward $401 $-1 #
edge $-1 $268 -20.816211739580709 $420 -16.432016575252533 $266 $421 forward 7 unknown #
vertex $-1 $267 $422 #
vertex $-1 $265 $423 #
straight-curve $-1 -39.440325896997329 26.490566802193761 0 0 0 -1 I I #
face $-1 $-1 $283 $36 $-1 $424 forward single #
loop $-1 $-1 $425 $160 #
plane-surface $-1 -53.589281899472027 0 0 1 0 0 0 0 -1 forward_v I I I I #
coedge $-1 $426 $427 $428 $429 reversed $161 $-1 #
coedge $-1 $430 $163 $165 $281 forward $101 $-1 #
coedge $-1 $163 $430 $426 $431 forward $101 $-1 #
coedge $-1 $428 $166 $163 $278 forward $283 $-1 #
edge $-1 $285 -14.12966895087153 $432 -5.48021748254234 $277 $433 forward 7 unknown #
coedge $-1 $434 $435 $164 $280 forward $272 $-1 #
edge $-1 $436 -30.790364605468021 $284 -23.32110843949464 $279 $437 forward 7 unknown #
edge $-1 $285 -9.3525218890110473 $436 0 $165 $438 forward 7 unknown #
coedge $-1 $166 $428 $434 $439 forward $283 $-1 #
loop $-1 $-1 $428 $271 #
vertex $-1 $280 $440 #
vertex $-1 $167 $441 #
straight-curve $-1 -69.592944873304006 -23.934612167578464 10.390195639405011 1 0 0 I I #
coedge $-1 $287 $287 $-1 $442 reversed $170 $-1 #
edge $-1 $443 0 $443 6.2831853071796004 $171 $444 forward 7 unknown #
vertex $-1 $174 $445 #
ellipse-curve $-1 -50.775037861923956 -19.60988643341387 6.6555675564183225 -0.79863551827123203 0 0.60181501223851219 0.60181501223851219 0 0.79863551827123203 1 I I #
face $-1 $-1 $446 $38 $-1 $447 reversed single #
loop $-1 $-1 $181 $175 #
plane-surface $-1 0 0 10.390195639405011 0 0 1 1 0 0 forward_v I I I I #
coedge $-1 $448 $449 $450 $451 reversed $176 $-1 #
coedge $-1 $452 $178 $180 $301 forward $110 $-1 #
coedge $-1 $178 $452 $448 $453 forward $110 $-1 #
coedge $-1 $450 $181 $178 $298 forward $292 $-1 #
edge $-1 $304 -7.507027250323091 $454 1.1424242180060977 $297 $455 forward 7 unknown #
coedge $-1 $456 $457 $179 $300 forward $446 $-1 #
edge $-1 $458 -30.790364605468021 $303 -23.32110843949464 $299 $459 forward 7 unknown #
edge $-1 $304 -9.3525218890110473 $458 0 $180 $460 forward 7 unknown #
coedge $-1 $181 $450 $456 $461 forward $292 $-1 #
vertex $-1 $300 $462 #
vertex $-1 $182 $463 #
straight-curve $-1 -69.592944873304006 -10.689328766481587 10.390195639405011 1 0 0 I I #
coedge $-1 $306 $306 $-1 $464 reversed $185 $-1 #
edge $-1 $465 0 $465 6.2831853071796004 $186 $466 forward 7 unknown #
vertex $-1 $189 $467 #
ellipse-curve $-1 -50.775037861923956 -6.3646030323169924 6.6555675564183225 -0.79863551827123203 0 0.60181501223851219 0.60181501223851219 0 0.79863551827123203 1 I I #
face $-1 $-1 $468 $40 $-1 $469 reversed single #
loop $-1 $-1 $196 $190 #
plane-surface $-1 0 0 10.390195639405011 0 0 1 1 0 0 forward_v I I I I #
coedge $-1 $470 $471 $472 $473 reversed $191 $-1 #
coedge $-1 $474 $193 $195 $320 forward $119 $-1 #
coedge $-1 $193 $474 $470 $475 forward $119 $-1 #
coedge $-1 $472 $196 $193 $317 forward $311 $-1 #
edge $-1 $323 -0.88438554977465156 $476 7.7650659185545372 $316 $477 forward 7 unknown #
coedge $-1 $478 $479 $194 $319 forward $468 $-1 #
edge $-1 $480 -30.790364605468021 $322 -23.32110843949464 $318 $481 forward 7 unknown #
edge $-1 $323 -9.3525218890110473 $480 0 $195 $482 forward 7 unknown #
coedge $-1 $196 $472 $478 $483 forward $311 $-1 #
vertex $-1 $197 $484 #
vertex $-1 $197 $485 #
straight-curve $-1 -69.592944873304006 2.5559546346152908 10.390195639405011 1 0 0 I I #
coedge $-1 $325 $325 $-1 $486 reversed $200 $-1 #
edge $-1 $487 0 $487 6.2831853071796004 $201 $488 forward 7 unknown #
vertex $-1 $204 $489 #
ellipse-curve $-1 -50.775037861923956 6.8806803687798848 6.6555675564183225 -0.79863551827123203 0 0.60181501223851219 0.60181501223851219 0 0.79863551827123203 1 I I #
face $-1 $-1 $490 $42 $-1 $491 reversed single #
loop $-1 $-1 $211 $205 #
plane-surface $-1 0 0 10.390195639405011 0 0 1 1 0 0 forward_v I I I I #
coedge $-1 $492 $493 $494 $495 reversed $206 $-1 #
coedge $-1 $496 $208 $210 $339 forward $128 $-1 #
coedge $-1 $208 $496 $492 $497 forward $128 $-1 #
coedge $-1 $494 $211 $208 $336 forward $330 $-1 #
edge $-1 $342 5.7382561507737861 $498 14.387707619102976 $335 $499 forward 7 unknown #
coedge $-1 $500 $501 $209 $338 forward $490 $-1 #
edge $-1 $502 -30.790364605468021 $341 -23.32110843949464 $337 $503 forward 7 unknown #
edge $-1 $342 -9.3525218890110473 $502 0 $210 $504 forward 7 unknown #
coedge $-1 $211 $494 $500 $505 forward $330 $-1 #
vertex $-1 $212 $506 #
vertex $-1 $212 $507 #
straight-curve $-1 -69.592944873304006 15.801238035712167 10.390195639405011 1 0 0 I I #
coedge $-1 $344 $344 $-1 $508 reversed $215 $-1 #
edge $-1 $509 0 $509 6.2831853071796004 $216 $510 forward 7 unknown #
vertex $-1 $219 $511 #
ellipse-curve $-1 -50.775037861923956 20.125963769876762 6.6555675564183225 -0.79863551827123203 0 0.60181501223851219 0.60181501223851219 0 0.79863551827123203 1 I I #
face $-1 $-1 $235 $33 $-1 $512 reversed single #
loop $-1 $-1 $364 $220 #
plane-surface $-1 0 36.098474284179701 0 0 -1 0 0 0 -1 forward_v I I I I #
coedge $-1 $513 $362 $365 $514 forward $221 $-1 #
coedge $-1 $368 $223 $224 $356 reversed $137 $-1 #
coedge $-1 $362 $513 $223 $354 reversed $221 $-1 #
edge $-1 $369 -10.390195639405011 $515 10.390195639405011 $353 $516 forward 7 unknown #
coedge $-1 $225 $224 $513 $517 forward $89 $-1 #
edge $-1 $360 -53.589281899472027 $515 53.589281899472027 $352 $518 forward 7 unknown #
coedge $-1 $365 $364 $225 $358 reversed $349 $-1 #
edge $-1 $519 -53.589281899472027 $359 53.589281899472027 $357 $520 forward 7 unknown #
vertex $-1 $227 $521 #
vertex $-1 $371 $522 #
straight-curve $-1 53.589281899472027 0 -10.390195639405011 0 -1 0 I I #
coedge $-1 $351 $353 $228 $363 reversed $221 $-1 #
edge $-1 $366 -36.098474284179701 $369 36.098474284179701 $362 $523 forward 7 unknown #
coedge $-1 $357 $229 $234 $372 forward $349 $-1 #
coedge $-1 $229 $357 $351 $514 reversed $349 $-1 #
vertex $-1 $230 $524 #
straight-curve $-1 0 36.098474284179701 10.390195639405011 -1 0 0 I I #
coedge $-1 $231 $352 $233 $371 reversed $137 $-1 #
vertex $-1 $363 $525 #
straight-curve $-1 0 -36.098474284179701 10.390195639405011 1 0 0 I I #
edge $-1 $236 -10.390195639405011 $360 10.390195639405011 $233 $526 forward 7 unknown #
edge $-1 $237 -10.390195639405011 $359 10.390195639405011 $234 $527 forward 7 unknown #
point $-1 53.589281899472027 -36.098474284179701 10.390195639405011 #
point $-1 53.589281899472027 36.098474284179701 10.390195639405011 #
face $-1 $-1 $528 $34 $-1 $529 reversed single #
loop $-1 $-1 $530 $239 #
plane-surface $-1 0 0 -10.390195639405011 0 0 1 1 0 0 forward_v I I I I #
coedge $-1 $385 $395 $380 $531 forward $240 $-1 #
coedge $-1 $245 $242 $530 $532 reversed $145 $-1 #
coedge $-1 $242 $245 $378 $531 reversed $145 $-1 #
coedge $-1 $533 $534 $242 $382 forward $528 $-1 #
edge $-1 $535 -10.390195639405011 $536 10.390195639405011 $381 $537 forward 7 unknown #
coedge $-1 $530 $248 $243 $384 forward $376 $-1 #
edge $-1 $253 -20.816211739580709 $388 -16.432016575252533 $383 $538 forward 7 unknown #
coedge $-1 $250 $378 $244 $386 forward $240 $-1 #
edge $-1 $387 16.432016575252533 $252 20.816211739580709 $385 $539 forward 7 unknown #
vertex $-1 $386 $540 #
vertex $-1 $384 $541 #
straight-curve $-1 -35.056130732669153 -26.490566802193754 0 0 0 -1 I I #
coedge $-1 $534 $533 $247 $391 forward $528 $-1 #
edge $-1 $396 -10.390195639405011 $393 10.390195639405011 $390 $542 forward 7 unknown #
coedge $-1 $248 $530 $534 $543 forward $376 $-1 #
vertex $-1 $249 $544 #
straight-curve $-1 -39.440325896997329 -15.647260271593364 -10.390195639405011 0 1 0 I I #
coedge $-1 $378 $250 $533 $545 forward $240 $-1 #
vertex $-1 $545 $546 #
straight-curve $-1 -39.440325896997329 -15.647260271593364 10.390195639405011 0 -1 0 I I #
point $-1 -39.440325896997329 -26.490566802193754 10.390195639405011 #
point $-1 -39.440325896997329 -26.490566802193754 -10.390195639405011 #
face $-1 $-1 $413 $35 $-1 $547 reversed single #
loop $-1 $-1 $419 $255 #
plane-surface $-1 0 0 10.390195639405011 0 0 1 1 0 0 forward_v I I I I #
coedge $-1 $264 $548 $404 $549 forward $256 $-1 #
coedge $-1 $550 $258 $403 $549 reversed $153 $-1 #
coedge $-1 $258 $550 $419 $551 reversed $153 $-1 #
edge $-1 $420 -10.390195639405011 $417 10.390195639405011 $258 $552 forward 7 unknown #
coedge $-1 $548 $264 $259 $408 forward $256 $-1 #
edge $-1 $269 10.843306530600394 $414 20.451214012586341 $407 $553 forward 7 unknown #
coedge $-1 $266 $554 $260 $410 forward $401 $-1 #
edge $-1 $415 -20.451214012586341 $268 -10.843306530600394 $409 $555 forward 7 unknown #
coedge $-1 $556 $261 $554 $557 reversed $413 $-1 #
coedge $-1 $261 $556 $548 $558 reversed $413 $-1 #
loop $-1 $-1 $556 $400 #
vertex $-1 $558 $559 #
vertex $-1 $262 $560 #
straight-curve $-1 -39.440325896997329 36.098474284179701 0 0 0 1 I I #
vertex $-1 $265 $561 #
straight-curve $-1 -18.624114157416621 26.490566802193761 -10.390195639405011 -1 0 0 I I #
coedge $-1 $554 $266 $405 $551 forward $401 $-1 #
vertex $-1 $267 $562 #
straight-curve $-1 -18.624114157416621 26.490566802193761 10.390195639405011 1 0 0 I I #
point $-1 -39.440325896997329 26.490566802193761 10.390195639405011 #
point $-1 -39.440325896997329 26.490566802193761 -10.390195639405011 #
plane-surface $-1 0 0 10.390195639405011 0 0 1 1 0 0 forward_v I I I I #
coedge $-1 $435 $434 $427 $563 forward $272 $-1 #
coedge $-1 $427 $274 $276 $431 reversed $161 $-1 #
coedge $-1 $274 $426 $425 $563 reversed $161 $-1 #
coedge $-1 $282 $277 $274 $429 forward $283 $-1 #
edge $-1 $432 -21.632151048928115 $564 -16.003662973831979 $428 $565 forward 7 unknown #
coedge $-1 $276 $275 $435 $566 reversed $101 $-1 #
edge $-1 $567 0 $432 9.3525218890110473 $426 $568 forward 7 unknown #
vertex $-1 $278 $569 #
straight-curve $-1 -47.960793824375891 -9.8049432167069348 10.390195639405011 0 1 0 I I #
coedge $-1 $425 $279 $282 $439 reversed $272 $-1 #
coedge $-1 $279 $425 $430 $566 forward $272 $-1 #
vertex $-1 $280 $570 #
straight-curve $-1 -53.589281899472027 -23.934612167578464 33.711304078899651 0 0 1 I I #
straight-curve $-1 -53.589281899472027 -23.934612167578464 2.9209394734316305 -0.60181501223851219 0 -0.79863551827123203 I I #
edge $-1 $564 15.285160699249275 $284 23.934612167578464 $434 $571 forward 7 unknown #
point $-1 -53.589281899472027 -23.934612167578464 10.390195639405011 #
point $-1 -47.960793824375891 -23.934612167578464 10.390195639405011 #
edge $-1 $572 1 $572 0 $287 $-1 forward 7 unknown #
vertex $-1 $288 $573 #
ellipse-curve $-1 -47.845261487101922 -19.60988643341387 4.4478227660459853 -0.79863551827123203 0 0.60181501223851219 0.60181501223851219 0 0.79863551827123203 1 I I #
point $-1 -50.173222849685445 -19.60988643341387 7.4542030746895547 #
loop $-1 $-1 $299 $291 #
plane-surface $-1 -53.589281899472027 0 0 1 0 0 0 0 -1 forward_v I I I I #
coedge $-1 $449 $294 $296 $453 reversed $176 $-1 #
coedge $-1 $294 $448 $574 $575 reversed $176 $-1 #
coedge $-1 $302 $297 $294 $451 forward $292 $-1 #
edge $-1 $454 -21.632151048928115 $576 -16.003662973831979 $450 $577 forward 7 unknown #
coedge $-1 $296 $295 $457 $578 reversed $110 $-1 #
edge $-1 $579 0 $454 9.3525218890110473 $448 $580 forward 7 unknown #
vertex $-1 $298 $581 #
straight-curve $-1 -47.960793824375891 -3.1823015161584962 10.390195639405011 0 1 0 I I #
coedge $-1 $574 $299 $302 $461 reversed $446 $-1 #
coedge $-1 $299 $574 $452 $578 forward $446 $-1 #
vertex $-1 $300 $582 #
straight-curve $-1 -53.589281899472027 -10.689328766481587 33.711304078899651 0 0 1 I I #
straight-curve $-1 -53.589281899472027 -10.689328766481587 2.9209394734316305 -0.60181501223851219 0 -0.79863551827123203 I I #
edge $-1 $576 2.0398772981523985 $303 10.689328766481587 $456 $583 forward 7 unknown #
point $-1 -53.589281899472027 -10.689328766481587 10.390195639405011 #
point $-1 -47.960793824375891 -10.689328766481587 10.390195639405011 #
edge $-1 $584 1 $584 0 $306 $-1 forward 7 unknown #
vertex $-1 $307 $585 #
ellipse-curve $-1 -47.845261487101922 -6.3646030323169924 4.4478227660459853 -0.79863551827123203 0 0.60181501223851219 0.60181501223851219 0 0.79863551827123203 1 I I #
point $-1 -50.173222849685445 -6.3646030323169924 7.4542030746895547 #
loop $-1 $-1 $318 $310 #
plane-surface $-1 -53.589281899472027 0 0 1 0 0 0 0 -1 forward_v I I I I #
coedge $-1 $471 $313 $315 $475 reversed $191 $-1 #
coedge $-1 $313 $470 $586 $587 reversed $191 $-1 #
coedge $-1 $321 $316 $313 $473 forward $311 $-1 #
edge $-1 $476 -21.632151048928115 $588 -16.003662973831979 $472 $589 forward 7 unknown #
coedge $-1 $315 $314 $479 $590 reversed $119 $-1 #
edge $-1 $591 0 $476 9.3525218890110473 $470 $592 forward 7 unknown #
vertex $-1 $317 $593 #
straight-curve $-1 -47.960793824375891 3.4403401843899424 10.390195639405011 0 1 0 I I #
coedge $-1 $586 $318 $321 $483 reversed $468 $-1 #
coedge $-1 $318 $586 $474 $590 forward $468 $-1 #
vertex $-1 $319 $594 #
straight-curve $-1 -53.589281899472027 2.5559546346152908 33.711304078899651 0 0 1 I I #
straight-curve $-1 -53.589281899472027 2.5559546346152908 2.9209394734316305 -0.60181501223851219 0 -0.79863551827123203 I I #
edge $-1 $588 -11.20540610294448 $322 -2.5559546346152908 $478 $595 forward 7 unknown #
point $-1 -53.589281899472027 2.5559546346152908 10.390195639405011 #
point $-1 -47.960793824375891 2.5559546346152908 10.390195639405011 #
edge $-1 $596 1 $596 0 $325 $-1 forward 7 unknown #
vertex $-1 $326 $597 #
ellipse-curve $-1 -47.845261487101922 6.8806803687798848 4.4478227660459853 -0.79863551827123203 0 0.60181501223851219 0.60181501223851219 0 0.79863551827123203 1 I I #
point $-1 -50.173222849685445 6.8806803687798848 7.4542030746895547 #
loop $-1 $-1 $337 $329 #
plane-surface $-1 -53.589281899472027 0 0 1 0 0 0 0 -1 forward_v I I I I #
coedge $-1 $493 $332 $334 $497 reversed $206 $-1 #
coedge $-1 $332 $492 $598 $599 reversed $206 $-1 #
coedge $-1 $340 $335 $332 $495 forward $330 $-1 #
edge $-1 $498 -21.632151048928115 $600 -16.003662973831979 $494 $601 forward 7 unknown #
coedge $-1 $334 $333 $501 $602 reversed $128 $-1 #
edge $-1 $603 0 $498 9.3525218890110473 $492 $604 forward 7 unknown #
vertex $-1 $336 $605 #
straight-curve $-1 -47.960793824375891 10.062981884938381 10.390195639405011 0 1 0 I I #
coedge $-1 $598 $337 $340 $505 reversed $490 $-1 #
coedge $-1 $337 $598 $496 $602 forward $490 $-1 #
vertex $-1 $338 $606 #
straight-curve $-1 -53.589281899472027 15.801238035712167 33.711304078899651 0 0 1 I I #
straight-curve $-1 -53.589281899472027 15.801238035712167 2.9209394734316305 -0.60181501223851219 0 -0.79863551827123203 I I #
edge $-1 $600 -24.450689504041357 $341 -15.801238035712167 $500 $607 forward 7 unknown #
point $-1 -53.589281899472027 15.801238035712167 10.390195639405011 #
point $-1 -47.960793824375891 15.801238035712167 10.390195639405011 #
edge $-1 $608 1 $608 0 $344 $-1 forward 7 unknown #
vertex $-1 $345 $609 #
ellipse-curve $-1 -47.845261487101922 20.125963769876762 4.4478227660459853 -0.79863551827123203 0 0.60181501223851219 0.60181501223851219 0 0.79863551827123203 1 I I #
point $-1 -50.173222849685445 20.125963769876762 7.4542030746895547 #
plane-surface $-1 53.589281899472027 0 0 -1 0 0 0 0 1 forward_v I I I I #
coedge $-1 $353 $351 $355 $517 reversed $221 $-1 #
edge $-1 $366 -10.390195639405011 $519 10.390195639405011 $365 $610 forward 7 unknown #
vertex $-1 $517 $611 #
straight-curve $-1 -53.589281899472027 -36.098474284179701 0 0 0 -1 I I #
edge $-1 $515 -36.098474284179701 $519 36.098474284179701 $513 $612 forward 7 unknown #
straight-curve $-1 0 -36.098474284179701 -10.390195639405011 -1 0 0 I I #
vertex $-1 $358 $613 #
straight-curve $-1 0 36.098474284179701 -10.390195639405011 1 0 0 I I #
point $-1 53.589281899472027 36.098474284179701 -10.390195639405011 #
point $-1 53.589281899472027 -36.098474284179701 -10.390195639405011 #
straight-curve $-1 -53.589281899472027 0 10.390195639405011 0 -1 0 I I #
point $-1 -53.589281899472027 36.098474284179701 10.390195639405011 #
point $-1 -53.589281899472027 -36.098474284179701 10.390195639405011 #
straight-curve $-1 53.589281899472027 -36.098474284179701 0 0 0 -1 I I #
straight-curve $-1 53.589281899472027 36.098474284179701 0 0 0 -1 I I #
loop $-1 $-1 $381 $375 #
plane-surface $-1 0 -36.098474284179701 0 0 1 0 0 0 1 forward_v I I I I #
coedge $-1 $392 $383 $379 $532 forward $376 $-1 #
edge $-1 $536 -20.451214012586338 $387 -10.84330653060039 $378 $614 forward 7 unknown #
edge $-1 $388 10.84330653060039 $535 20.451214012586338 $530 $615 forward 7 unknown #
coedge $-1 $390 $381 $395 $545 reversed $528 $-1 #
coedge $-1 $381 $390 $392 $543 reversed $528 $-1 #
vertex $-1 $543 $616 #
vertex $-1 $382 $617 #
straight-curve $-1 -35.056130732669153 -36.098474284179701 0 0 0 1 I I #
straight-curve $-1 -18.624114157416621 -26.490566802193754 -10.390195639405011 1 0 0 I I #
straight-curve $-1 -18.624114157416621 -26.490566802193754 10.390195639405011 -1 0 0 I I #
point $-1 -35.056130732669153 -26.490566802193754 10.390195639405011 #
point $-1 -35.056130732669153 -26.490566802193754 -10.390195639405011 #
straight-curve $-1 -39.440325896997329 -36.098474284179701 0 0 0 -1 I I #
edge $-1 $535 35.056130732669153 $393 39.440325896997329 $534 $618 forward 7 unknown #
point $-1 -39.440325896997329 -36.098474284179701 -10.390195639405011 #
edge $-1 $396 -39.440325896997329 $536 -35.056130732669153 $533 $619 forward 7 unknown #
point $-1 -39.440325896997329 -36.098474284179701 10.390195639405011 #
plane-surface $-1 0 36.098474284179701 0 0 -1 0 0 0 -1 forward_v I I I I #
coedge $-1 $403 $407 $412 $558 forward $256 $-1 #
edge $-1 $620 -20.451214012586341 $417 -10.843306530600394 $403 $621 forward 7 unknown #
coedge $-1 $405 $404 $556 $622 reversed $153 $-1 #
edge $-1 $420 10.843306530600394 $623 20.451214012586341 $419 $624 forward 7 unknown #
straight-curve $-1 -35.056130732669153 26.490566802193761 0 0 0 -1 I I #
straight-curve $-1 -39.440325896997329 15.647260271593368 -10.390195639405011 0 1 0 I I #
coedge $-1 $409 $419 $411 $557 forward $401 $-1 #
straight-curve $-1 -39.440325896997329 15.647260271593368 10.390195639405011 0 -1 0 I I #
coedge $-1 $412 $411 $550 $622 forward $413 $-1 #
edge $-1 $623 35.056130732669153 $415 39.440325896997329 $411 $625 forward 7 unknown #
edge $-1 $414 -39.440325896997329 $620 -35.056130732669153 $412 $626 forward 7 unknown #
point $-1 -39.440325896997329 36.098474284179709 -10.390195639405011 #
point $-1 -39.440325896997329 36.098474284179709 10.390195639405011 #
point $-1 -35.056130732669153 26.490566802193761 -10.390195639405011 #
point $-1 -35.056130732669153 26.490566802193761 10.390195639405011 #
edge $-1 $564 23.32110843949464 $567 30.790364605468021 $425 $627 forward 7 unknown #
vertex $-1 $439 $628 #
straight-curve $-1 -69.592944873304006 -15.285160699249275 10.390195639405011 -1 0 0 I I #
edge $-1 $567 5.48021748254234 $436 14.12966895087153 $435 $629 forward 7 unknown #
vertex $-1 $566 $630 #
straight-curve $-1 -53.589281899472027 -15.285160699249275 2.9209394734316305 0.60181501223851219 0 0.79863551827123203 I I #
point $-1 -47.960793824375891 -15.285160699249275 10.390195639405011 #
point $-1 -53.589281899472027 -23.934612167578464 2.9209394734316305 #
straight-curve $-1 -53.589281899472027 0 10.390195639405011 0 -1 0 I I #
vertex $-1 $442 $631 #
point $-1 -47.243446474863411 -19.60988643341387 5.2464582843172174 #
coedge $-1 $457 $456 $449 $575 forward $446 $-1 #
edge $-1 $576 23.32110843949464 $579 30.790364605468021 $574 $632 forward 7 unknown #
vertex $-1 $461 $633 #
straight-curve $-1 -69.592944873304006 -2.0398772981523985 10.390195639405011 -1 0 0 I I #
edge $-1 $579 -1.1424242180060977 $458 7.507027250323091 $457 $634 forward 7 unknown #
vertex $-1 $578 $635 #
straight-curve $-1 -53.589281899472027 -2.0398772981523985 2.9209394734316305 0.60181501223851219 0 0.79863551827123203 I I #
point $-1 -47.960793824375891 -2.0398772981523985 10.390195639405011 #
point $-1 -53.589281899472027 -10.689328766481587 2.9209394734316305 #
straight-curve $-1 -53.589281899472027 0 10.390195639405011 0 -1 0 I I #
vertex $-1 $464 $636 #
point $-1 -47.243446474863411 -6.3646030323169924 5.2464582843172174 #
coedge $-1 $479 $478 $471 $587 forward $468 $-1 #
edge $-1 $588 23.32110843949464 $591 30.790364605468021 $586 $637 forward 7 unknown #
vertex $-1 $483 $638 #
straight-curve $-1 -69.592944873304006 11.20540610294448 10.390195639405011 -1 0 0 I I #
edge $-1 $591 -7.7650659185545372 $480 0.88438554977465156 $479 $639 forward 7 unknown #
vertex $-1 $590 $640 #
straight-curve $-1 -53.589281899472027 11.20540610294448 2.9209394734316305 0.60181501223851219 0 0.79863551827123203 I I #
point $-1 -47.960793824375891 11.20540610294448 10.390195639405011 #
point $-1 -53.589281899472027 2.5559546346152908 2.9209394734316305 #
straight-curve $-1 -53.589281899472027 0 10.390195639405011 0 -1 0 I I #
vertex $-1 $486 $641 #
point $-1 -47.243446474863411 6.8806803687798848 5.2464582843172174 #
coedge $-1 $501 $500 $493 $599 forward $490 $-1 #
edge $-1 $600 23.32110843949464 $603 30.790364605468021 $598 $642 forward 7 unknown #
vertex $-1 $505 $643 #
straight-curve $-1 -69.592944873304006 24.450689504041357 10.390195639405011 -1 0 0 I I #
edge $-1 $603 -14.387707619102976 $502 -5.7382561507737861 $501 $644 forward 7 unknown #
vertex $-1 $602 $645 #
straight-curve $-1 -53.589281899472027 24.450689504041357 2.9209394734316305 0.60181501223851219 0 0.79863551827123203 I I #
point $-1 -47.960793824375891 24.450689504041357 10.390195639405011 #
point $-1 -53.589281899472027 15.801238035712167 2.9209394734316305 #
straight-curve $-1 -53.589281899472027 0 10.390195639405011 0 -1 0 I I #
vertex $-1 $508 $646 #
point $-1 -47.243446474863411 20.125963769876762 5.2464582843172174 #
straight-curve $-1 -53.589281899472027 36.098474284179701 0 0 0 -1 I I #
point $-1 -53.589281899472027 -36.098474284179701 -10.390195639405011 #
straight-curve $-1 -53.589281899472027 0 -10.390195639405011 0 1 0 I I #
point $-1 -53.589281899472027 36.098474284179701 -10.390195639405011 #
straight-curve $-1 -35.056130732669153 -15.647260271593364 10.390195639405011 0 1 0 I I #
straight-curve $-1 -35.056130732669153 -15.647260271593364 -10.390195639405011 0 -1 0 I I #
point $-1 -35.056130732669153 -36.098474284179701 -10.390195639405011 #
point $-1 -35.056130732669153 -36.098474284179701 10.390195639405011 #
straight-curve $-1 0 -36.098474284179701 -10.390195639405011 -1 0 0 I I #
straight-curve $-1 0 -36.098474284179701 10.390195639405011 1 0 0 I I #
vertex $-1 $622 $647 #
straight-curve $-1 -35.056130732669153 15.647260271593368 -10.390195639405011 0 -1 0 I I #
edge $-1 $623 -10.390195639405011 $620 10.390195639405011 $556 $648 forward 7 unknown #
vertex $-1 $557 $649 #
straight-curve $-1 -35.056130732669153 15.647260271593368 10.390195639405011 0 1 0 I I #
straight-curve $-1 0 36.098474284179701 10.390195639405011 -1 0 0 I I #
straight-curve $-1 0 36.098474284179701 -10.390195639405011 1 0 0 I I #
straight-curve $-1 -53.589281899472027 -15.285160699249275 33.711304078899651 0 0 -1 I I #
point $-1 -53.589281899472027 -15.285160699249275 10.390195639405011 #
straight-curve $-1 -53.589281899472027 -9.8049432167069348 2.9209394734316301 0 -1 0 I I #
point $-1 -53.589281899472027 -15.285160699249275 2.9209394734316305 #
point $-1 -47.046625968830696 -19.60988643341387 3.8460077538074726 #
straight-curve $-1 -53.589281899472027 -2.0398772981523985 33.711304078899651 0 0 -1 I I #
point $-1 -53.589281899472027 -2.0398772981523985 10.390195639405011 #
straight-curve $-1 -53.589281899472027 -3.1823015161584962 2.9209394734316301 0 -1 0 I I #
point $-1 -53.589281899472027 -2.0398772981523985 2.9209394734316305 #
point $-1 -47.046625968830696 -6.3646030323169924 3.8460077538074726 #
straight-curve $-1 -53.589281899472027 11.20540610294448 33.711304078899651 0 0 -1 I I #
point $-1 -53.589281899472027 11.20540610294448 10.390195639405011 #
straight-curve $-1 -53.589281899472027 3.4403401843899424 2.9209394734316301 0 -1 0 I I #
point $-1 -53.589281899472027 11.20540610294448 2.9209394734316305 #
point $-1 -47.046625968830696 6.8806803687798848 3.8460077538074726 #
straight-curve $-1 -53.589281899472027 24.450689504041357 33.711304078899651 0 0 -1 I I #
point $-1 -53.589281899472027 24.450689504041357 10.390195639405011 #
straight-curve $-1 -53.589281899472027 10.062981884938381 2.9209394734316301 0 -1 0 I I #
point $-1 -53.589281899472027 24.450689504041357 2.9209394734316305 #
point $-1 -47.046625968830696 20.125963769876762 3.8460077538074726 #
point $-1 -35.056130732669153 36.098474284179709 -10.390195639405011 #
straight-curve $-1 -35.056130732669153 36.098474284179701 0 0 0 -1 I I #
point $-1 -35.056130732669153 36.098474284179709 10.390195639405011 #
End-of-ACIS-data 