500 0 9 0           
7 Unknown 11 ACIS 5.0 NT 24 Fri Mar 26 14:44:11 1999 
-1 9.9999999999999995e-007 1e-010 
body $-1 $9 $-1 $10 #
body $-1 $11 $-1 $12 #
body $-1 $13 $-1 $14 #
body $-1 $15 $-1 $16 #
body $-1 $17 $-1 $18 #
body $-1 $19 $-1 $20 #
body $-1 $21 $-1 $22 #
body $-1 $23 $-1 $24 #
body $-1 $25 $-1 $26 #
lump $-1 $-1 $27 $0 #
transform $-1 1 0 0 0 1 0 0 0 1 60.303353984191411 40.837592534373265 16.84028802889976 1 rotate no_reflect no_shear #
lump $-1 $-1 $28 $1 #
transform $-1 1 0 0 0 1 0 0 0 1 60.303353984191411 40.837592534373265 16.84028802889976 1 rotate no_reflect no_shear #
lump $-1 $-1 $29 $2 #
transform $-1 1 0 0 0 1 0 0 0 1 60.303353984191411 40.837592534373265 16.84028802889976 1 rotate no_reflect no_shear #
lump $-1 $-1 $30 $3 #
transform $-1 1 0 0 0 1 0 0 0 1 60.303353984191411 40.837592534373265 16.84028802889976 1 rotate no_reflect no_shear #
lump $-1 $-1 $31 $4 #
transform $-1 1 0 0 0 1 0 0 0 1 60.303353984191411 40.837592534373265 16.84028802889976 1 rotate no_reflect no_shear #
lump $-1 $-1 $32 $5 #
transform $-1 1 0 0 0 1 0 0 0 1 60.303353984191411 40.837592534373265 16.84028802889976 1 rotate no_reflect no_shear #
lump $-1 $-1 $33 $6 #
transform $-1 1 0 0 0 1 0 0 0 1 60.303353984191411 40.837592534373265 16.84028802889976 1 rotate no_reflect no_shear #
lump $-1 $-1 $34 $7 #
transform $-1 1 0 0 0 1 0 0 0 1 60.303353984191411 40.837592534373265 16.84028802889976 1 rotate no_reflect no_shear #
lump $-1 $-1 $35 $8 #
transform $-1 1 0 0 0 1 0 0 0 1 60.303353984191411 40.837592534373265 16.84028802889976 1 rotate no_reflect no_shear #
shell $-1 $-1 $-1 $36 $-1 $9 #
shell $-1 $-1 $-1 $37 $-1 $11 #
shell $-1 $-1 $-1 $38 $-1 $13 #
shell $-1 $-1 $-1 $39 $-1 $15 #
shell $-1 $-1 $-1 $40 $-1 $17 #
shell $-1 $-1 $-1 $41 $-1 $19 #
shell $-1 $-1 $-1 $42 $-1 $21 #
shell $-1 $-1 $-1 $43 $-1 $23 #
shell $-1 $-1 $-1 $44 $-1 $25 #
face $-1 $45 $46 $27 $-1 $47 forward single #
face $-1 $48 $49 $28 $-1 $50 forward single #
face $-1 $51 $52 $29 $-1 $53 forward single #
face $-1 $54 $55 $30 $-1 $56 reversed single #
face $-1 $57 $58 $31 $-1 $59 forward single #
face $-1 $60 $61 $32 $-1 $62 reversed single #
face $-1 $63 $64 $33 $-1 $65 forward single #
face $-1 $66 $67 $34 $-1 $68 reversed single #
face $-1 $69 $70 $35 $-1 $71 forward single #
face $-1 $72 $73 $27 $-1 $74 reversed single #
loop $-1 $-1 $75 $36 #
plane-surface $-1 0 0 16.84028802889976 0 0 1 1 0 0 forward_v I I I I #
face $-1 $76 $77 $28 $-1 $78 reversed single #
loop $-1 $-1 $79 $37 #
plane-surface $-1 0 -30.220101095237553 15.057045929457177 0 0 1 1 0 0 forward_v I I I I #
face $-1 $80 $81 $29 $-1 $82 reversed single #
loop $-1 $-1 $83 $38 #
plane-surface $-1 0 30.220101095237546 15.057045929457177 0 0 1 1 0 0 forward_v I I I I #
face $-1 $84 $85 $30 $-1 $86 reversed single #
loop $-1 $-1 $87 $39 #
plane-surface $-1 -149.93160592752625 -2.2239264070966165 82.189278358497248 0 -1 0 0.74314483375859142 0 -0.66913059716165679 forward_v I I I I #
face $-1 $88 $89 $31 $-1 $90 forward single #
loop $-1 $91 $92 $40 #
cone-surface $-1 -51.624706665524883 -5.8844882434234762 7.5730812784552164 0.74314483375859142 0 -0.66913059716165679 1.0036958957424851 0 1.1147172506378871 1 I I 0 1 1.5 forward I I I I #
face $-1 $93 $94 $32 $-1 $95 reversed single #
loop $-1 $-1 $96 $41 #
plane-surface $-1 -149.93160592752625 17.378683249005224 82.189278358497248 0 -1 0 0.74314483375859142 0 -0.66913059716165679 forward_v I I I I #
face $-1 $97 $98 $33 $-1 $99 forward single #
loop $-1 $100 $101 $42 #
cone-surface $-1 -51.624706665524883 13.718121412678364 7.5730812784552164 0.74314483375859142 0 -0.66913059716165679 1.0036958957424851 0 1.1147172506378871 1 I I 0 1 1.5 forward I I I I #
face $-1 $102 $103 $34 $-1 $104 reversed single #
loop $-1 $-1 $105 $43 #
plane-surface $-1 21.934884227306547 11.134070510705307 170.57012746554409 0 1 0 0.52991927123019833 0 0.84804809178421925 forward_v I I I I #
face $-1 $106 $107 $35 $-1 $108 forward single #
loop $-1 $109 $110 $44 #
cone-surface $-1 49.049865636639296 15.368340083403574 8.5581818464230004 -0.52991927123019833 0 -0.84804809178421925 1.2720721376763289 0 -0.79487890684529749 1 I I 0 1 1.5 forward I I I I #
face $-1 $111 $112 $27 $-1 $113 reversed single #
loop $-1 $-1 $114 $45 #
plane-surface $-1 0 0 -16.84028802889976 0 0 1 1 0 0 forward_v I I I I #
coedge $-1 $115 $116 $117 $118 forward $46 $-1 #
face $-1 $119 $120 $28 $-1 $121 reversed single #
loop $-1 $-1 $122 $48 #
plane-surface $-1 0 -30.220101095237553 7.2999365408834418 0 0 1 1 0 0 forward_v I I I I #
coedge $-1 $123 $124 $125 $126 reversed $49 $-1 #
face $-1 $127 $128 $29 $-1 $129 reversed single #
loop $-1 $-1 $130 $51 #
plane-surface $-1 0 30.220101095237546 7.2999365408834418 0 0 1 1 0 0 forward_v I I I I #
coedge $-1 $131 $132 $133 $134 reversed $52 $-1 #
face $-1 $135 $136 $30 $-1 $137 reversed single #
loop $-1 $-1 $138 $54 #
plane-surface $-1 -60.303353984191403 -5.8844882434234691 1.4876398339116861 -0.74314483375859142 0 0.66913059716165679 0.66913059716165679 0 0.74314483375859142 forward_v I I I I #
coedge $-1 $139 $140 $141 $142 reversed $55 $-1 #
face $-1 $-1 $143 $31 $-1 $144 forward single #
loop $-1 $145 $146 $57 #
cone-surface $-1 -49.300493812240163 -5.8844882434234762 5.4803506776334565 0.74314483375859142 0 -0.66913059716165679 0.50184794787124254 0 0.55735862531894353 1 I I -0.70710678118654757 0.70710678118654757 0.75 forward I I I I #
loop $-1 $-1 $147 $40 #
coedge $-1 $92 $92 $148 $149 reversed $58 $-1 #
face $-1 $150 $151 $32 $-1 $152 reversed single #
loop $-1 $-1 $153 $60 #
plane-surface $-1 -60.303353984191403 13.718121412678371 1.4876398339116861 -0.74314483375859142 0 0.66913059716165679 0.66913059716165679 0 0.74314483375859142 forward_v I I I I #
coedge $-1 $154 $155 $156 $157 reversed $61 $-1 #
face $-1 $-1 $158 $33 $-1 $159 forward single #
loop $-1 $160 $161 $63 #
cone-surface $-1 -49.300493812240163 13.718121412678364 5.4803506776334565 0.74314483375859142 0 -0.66913059716165679 0.50184794787124254 0 0.55735862531894353 1 I I -0.70710678118654757 0.70710678118654757 0.75 forward I I I I #
loop $-1 $-1 $162 $42 #
coedge $-1 $101 $101 $163 $164 reversed $64 $-1 #
face $-1 $165 $166 $34 $-1 $167 forward single #
loop $-1 $-1 $168 $66 #
plane-surface $-1 -41.976934564772222 15.368340083403574 68.289838916580464 0.52991927123019833 0 0.84804809178421925 0.84804809178421925 0 -0.52991927123019833 forward_v I I I I #
coedge $-1 $169 $170 $171 $172 reversed $67 $-1 #
face $-1 $-1 $173 $35 $-1 $174 forward single #
loop $-1 $175 $176 $69 #
cone-surface $-1 47.37083647136965 15.368340083403574 5.8711735473071407 -0.52991927123019833 0 -0.84804809178421925 0.63603606883816444 0 -0.39743945342264875 1 I I -0.70710678118654713 0.70710678118654802 0.75 forward I I I I #
loop $-1 $-1 $177 $44 #
coedge $-1 $110 $110 $178 $179 reversed $70 $-1 #
face $-1 $180 $181 $27 $-1 $182 reversed single #
loop $-1 $-1 $183 $72 #
plane-surface $-1 0 -40.837592534373265 0 0 1 0 0 0 1 forward_v I I I I #
coedge $-1 $184 $185 $186 $187 forward $73 $-1 #
coedge $-1 $188 $75 $189 $190 forward $46 $-1 #
coedge $-1 $75 $188 $191 $192 forward $46 $-1 #
coedge $-1 $193 $194 $75 $118 reversed $195 $-1 #
edge $-1 $196 -40.837592534373265 $197 40.837592534373265 $117 $198 forward 7 unknown #
face $-1 $199 $200 $28 $-1 $201 reversed single #
loop $-1 $-1 $202 $76 #
plane-surface $-1 0 -19.602609656101841 11.178491235170309 0 -1 0 0 0 -1 forward_v I I I I #
coedge $-1 $203 $204 $205 $206 reversed $77 $-1 #
coedge $-1 $207 $79 $208 $209 forward $49 $-1 #
coedge $-1 $79 $207 $210 $211 reversed $49 $-1 #
coedge $-1 $212 $213 $79 $126 forward $214 $-1 #
edge $-1 $215 4.4925591084830643 $216 25.727541986754488 $125 $217 forward 7 unknown #
face $-1 $218 $219 $29 $-1 $220 reversed single #
loop $-1 $-1 $221 $80 #
plane-surface $-1 0 19.602609656101833 11.178491235170309 0 1 0 0 0 1 forward_v I I I I #
coedge $-1 $222 $223 $224 $225 reversed $81 $-1 #
coedge $-1 $226 $83 $227 $228 reversed $52 $-1 #
coedge $-1 $83 $226 $221 $229 forward $52 $-1 #
coedge $-1 $230 $231 $83 $134 forward $219 $-1 #
edge $-1 $232 -25.727541986754485 $233 -4.4925591084830607 $133 $234 forward 7 unknown #
face $-1 $235 $236 $30 $-1 $237 reversed single #
loop $-1 $-1 $238 $84 #
plane-surface $-1 -149.93160592752625 -9.5450500797503217 82.189278358497248 0 1 0 -0.74314483375859142 0 0.66913059716165679 forward_v I I I I #
coedge $-1 $239 $240 $241 $242 reversed $85 $-1 #
coedge $-1 $140 $87 $243 $244 reversed $55 $-1 #
coedge $-1 $87 $139 $239 $245 reversed $55 $-1 #
coedge $-1 $241 $246 $87 $142 forward $236 $-1 #
edge $-1 $247 24.254351150348864 $248 39.606999345336945 $141 $249 forward 7 unknown #
loop $-1 $-1 $148 $88 #
plane-surface $-1 -60.303353984191403 -5.8844882434234691 1.4876398339116861 -0.74314483375859142 0 0.66913059716165679 0.66913059716165679 0 0.74314483375859142 forward_v I I I I #
loop $-1 $-1 $250 $57 #
coedge $-1 $146 $146 $147 $251 reversed $89 $-1 #
coedge $-1 $147 $147 $146 $251 forward $91 $-1 #
coedge $-1 $148 $148 $92 $149 forward $143 $-1 #
edge $-1 $252 0 $252 6.2831853071796004 $148 $253 forward 7 unknown #
face $-1 $254 $255 $32 $-1 $256 forward single #
loop $-1 $-1 $257 $93 #
plane-surface $-1 -149.93160592752625 10.057559576351519 82.189278358497248 0 1 0 -0.74314483375859142 0 0.66913059716165679 forward_v I I I I #
coedge $-1 $258 $259 $260 $261 reversed $94 $-1 #
coedge $-1 $155 $96 $262 $263 reversed $61 $-1 #
coedge $-1 $96 $154 $258 $264 reversed $61 $-1 #
coedge $-1 $260 $265 $96 $157 forward $266 $-1 #
edge $-1 $267 24.254351150348864 $268 39.606999345336945 $156 $269 forward 7 unknown #
loop $-1 $-1 $163 $97 #
plane-surface $-1 -60.303353984191403 13.718121412678371 1.4876398339116861 -0.74314483375859142 0 0.66913059716165679 0.66913059716165679 0 0.74314483375859142 forward_v I I I I #
loop $-1 $-1 $270 $63 #
coedge $-1 $161 $161 $162 $271 reversed $98 $-1 #
coedge $-1 $162 $162 $161 $271 forward $100 $-1 #
coedge $-1 $163 $163 $101 $164 forward $158 $-1 #
edge $-1 $272 0 $272 6.2831853071796004 $163 $273 forward 7 unknown #
face $-1 $274 $275 $34 $-1 $276 forward single #
loop $-1 $-1 $277 $102 #
plane-surface $-1 0 0 16.84028802889976 0 0 1 1 0 0 forward_v I I I I #
coedge $-1 $278 $279 $280 $281 reversed $103 $-1 #
coedge $-1 $170 $105 $282 $283 reversed $67 $-1 #
coedge $-1 $105 $169 $278 $284 reversed $67 $-1 #
coedge $-1 $280 $285 $105 $172 forward $286 $-1 #
edge $-1 $287 68.444775703872281 $288 80.907043608270357 $171 $289 forward 7 unknown #
loop $-1 $-1 $178 $106 #
plane-surface $-1 -41.976934564772222 15.368340083403574 68.289838916580464 0.52991927123019833 0 0.84804809178421925 0.84804809178421925 0 -0.52991927123019833 forward_v I I I I #
loop $-1 $-1 $290 $69 #
coedge $-1 $176 $176 $177 $291 reversed $107 $-1 #
coedge $-1 $177 $177 $176 $291 forward $109 $-1 #
coedge $-1 $178 $178 $110 $179 forward $173 $-1 #
edge $-1 $292 0 $292 6.2831853071796004 $178 $293 forward 7 unknown #
face $-1 $294 $295 $27 $-1 $296 reversed single #
loop $-1 $-1 $297 $111 #
plane-surface $-1 -60.303353984191411 0 0 1 0 0 0 0 -1 forward_v I I I I #
coedge $-1 $298 $191 $299 $300 forward $112 $-1 #
coedge $-1 $301 $114 $298 $302 forward $73 $-1 #
coedge $-1 $114 $301 $303 $304 forward $73 $-1 #
coedge $-1 $194 $193 $114 $187 reversed $195 $-1 #
edge $-1 $305 -40.837592534373265 $306 40.837592534373265 $186 $307 forward 7 unknown #
coedge $-1 $116 $115 $308 $309 forward $46 $-1 #
coedge $-1 $310 $311 $115 $190 reversed $295 $-1 #
edge $-1 $197 -60.303353984191411 $312 60.303353984191411 $189 $313 forward 7 unknown #
coedge $-1 $183 $314 $116 $192 reversed $112 $-1 #
edge $-1 $315 -60.303353984191411 $196 60.303353984191411 $191 $316 forward 7 unknown #
coedge $-1 $186 $117 $314 $317 forward $195 $-1 #
coedge $-1 $117 $186 $310 $318 reversed $195 $-1 #
loop $-1 $-1 $193 $294 #
vertex $-1 $118 $319 #
vertex $-1 $118 $320 #
straight-curve $-1 60.303353984191411 0 16.84028802889976 0 1 0 I I #
face $-1 $321 $322 $28 $-1 $323 reversed single #
loop $-1 $-1 $324 $119 #
plane-surface $-1 -60.303353984191411 0 0 1 0 0 0 0 -1 forward_v I I I I #
coedge $-1 $325 $208 $213 $326 reversed $120 $-1 #
coedge $-1 $327 $122 $328 $329 reversed $77 $-1 #
coedge $-1 $122 $327 $325 $330 forward $77 $-1 #
coedge $-1 $213 $212 $122 $206 forward $214 $-1 #
edge $-1 $331 -25.727541986754488 $332 -4.4925591084830643 $205 $333 forward 7 unknown #
coedge $-1 $124 $123 $324 $334 reversed $49 $-1 #
coedge $-1 $202 $335 $123 $209 reversed $120 $-1 #
edge $-1 $215 -60.303353984191411 $336 60.303353984191411 $208 $337 forward 7 unknown #
coedge $-1 $338 $339 $124 $211 forward $322 $-1 #
edge $-1 $216 -60.303353984191411 $340 60.303353984191411 $210 $341 forward 7 unknown #
coedge $-1 $205 $125 $339 $342 forward $214 $-1 #
coedge $-1 $125 $205 $202 $326 forward $214 $-1 #
loop $-1 $-1 $125 $321 #
vertex $-1 $126 $343 #
vertex $-1 $342 $344 #
straight-curve $-1 60.303353984191411 -15.110050547618776 15.057045929457177 0 -1 0 I I #
face $-1 $345 $346 $29 $-1 $347 reversed single #
loop $-1 $-1 $133 $127 #
plane-surface $-1 60.303353984191411 0 0 -1 0 0 0 0 1 forward_v I I I I #
coedge $-1 $348 $349 $132 $229 reversed $128 $-1 #
coedge $-1 $350 $130 $351 $352 forward $81 $-1 #
coedge $-1 $130 $350 $353 $354 reversed $81 $-1 #
coedge $-1 $231 $230 $130 $225 forward $219 $-1 #
edge $-1 $355 4.4925591084830607 $356 25.727541986754485 $224 $357 forward 7 unknown #
coedge $-1 $132 $131 $358 $359 reversed $52 $-1 #
coedge $-1 $360 $361 $131 $228 forward $362 $-1 #
edge $-1 $363 -60.303353984191411 $232 60.303353984191411 $227 $364 forward 7 unknown #
edge $-1 $365 -60.303353984191411 $233 60.303353984191411 $221 $366 forward 7 unknown #
coedge $-1 $224 $133 $349 $367 forward $219 $-1 #
coedge $-1 $133 $224 $360 $368 reversed $219 $-1 #
vertex $-1 $368 $369 #
vertex $-1 $134 $370 #
straight-curve $-1 60.303353984191411 15.110050547618773 15.057045929457177 0 -1 0 I I #
face $-1 $-1 $371 $30 $-1 $372 forward single #
loop $-1 $-1 $141 $135 #
plane-surface $-1 -60.303353984191411 0 0 1 0 0 0 0 -1 forward_v I I I I #
coedge $-1 $373 $374 $375 $376 reversed $136 $-1 #
coedge $-1 $377 $138 $140 $245 forward $85 $-1 #
coedge $-1 $138 $377 $373 $378 forward $85 $-1 #
coedge $-1 $375 $141 $138 $242 forward $236 $-1 #
edge $-1 $248 -0.71831771461511806 $379 6.6028059580385872 $241 $380 forward 7 unknown #
coedge $-1 $381 $382 $139 $244 forward $371 $-1 #
edge $-1 $383 -28.486035160973252 $247 -14.662448979571714 $243 $384 forward 7 unknown #
edge $-1 $248 -1.0694865687384493e-014 $383 20.659025667095381 $140 $385 forward 7 unknown #
coedge $-1 $141 $375 $381 $386 reversed $236 $-1 #
vertex $-1 $386 $387 #
vertex $-1 $142 $388 #
straight-curve $-1 -60.303353984191411 -2.2239264070966165 41.094639179248624 0 0 -1 I I #
coedge $-1 $250 $250 $-1 $389 reversed $145 $-1 #
edge $-1 $390 0 $390 6.2831853071796004 $146 $391 forward 7 unknown #
vertex $-1 $149 $392 #
ellipse-curve $-1 -53.391560893490642 -5.8844882434234762 9.1639639314057177 -0.74314483375859142 0 0.66913059716165679 1.0036958957424851 0 1.1147172506378871 1 I I #
face $-1 $-1 $266 $32 $-1 $393 reversed single #
loop $-1 $-1 $394 $150 #
plane-surface $-1 0 0 16.84028802889976 0 0 1 1 0 0 forward_v I I I I #
coedge $-1 $395 $396 $397 $398 reversed $151 $-1 #
coedge $-1 $399 $153 $155 $264 forward $94 $-1 #
coedge $-1 $153 $399 $395 $400 forward $94 $-1 #
coedge $-1 $397 $156 $153 $261 forward $266 $-1 #
edge $-1 $268 -10.519622542666038 $401 -3.1984988700123331 $260 $402 forward 7 unknown #
coedge $-1 $403 $404 $154 $263 forward $255 $-1 #
edge $-1 $405 -28.486035160973252 $267 -14.662448979571714 $262 $406 forward 7 unknown #
edge $-1 $268 -1.0694865687384493e-014 $405 20.659025667095381 $155 $407 forward 7 unknown #
coedge $-1 $156 $397 $403 $408 reversed $266 $-1 #
loop $-1 $-1 $397 $254 #
vertex $-1 $408 $409 #
vertex $-1 $157 $410 #
straight-curve $-1 -60.303353984191411 17.378683249005224 41.094639179248624 0 0 -1 I I #
coedge $-1 $270 $270 $-1 $411 reversed $160 $-1 #
edge $-1 $412 0 $412 6.2831853071796004 $161 $413 forward 7 unknown #
vertex $-1 $164 $414 #
ellipse-curve $-1 -53.391560893490642 13.718121412678364 9.1639639314057177 -0.74314483375859142 0 0.66913059716165679 1.0036958957424851 0 1.1147172506378871 1 I I #
face $-1 $-1 $286 $34 $-1 $415 reversed single #
loop $-1 $-1 $416 $165 #
plane-surface $-1 0 19.602609656101833 11.178491235170309 0 1 0 0 0 1 forward_v I I I I #
coedge $-1 $417 $418 $419 $420 forward $166 $-1 #
coedge $-1 $421 $168 $170 $284 forward $103 $-1 #
coedge $-1 $168 $421 $416 $422 forward $103 $-1 #
coedge $-1 $423 $171 $168 $281 forward $286 $-1 #
edge $-1 $288 3.44990046900352 $424 11.918439614400054 $280 $425 forward 7 unknown #
coedge $-1 $418 $417 $169 $283 forward $166 $-1 #
edge $-1 $426 29.392114599127954 $287 49.335911870538141 $282 $427 forward 7 unknown #
edge $-1 $288 -120.60670796838281 $426 -97.08941282365798 $170 $428 forward 7 unknown #
coedge $-1 $171 $423 $418 $429 reversed $286 $-1 #
loop $-1 $-1 $423 $274 #
vertex $-1 $429 $430 #
vertex $-1 $172 $431 #
straight-curve $-1 60.303353984191411 11.134070510705307 85.285063732772045 0 0 -1 I I #
coedge $-1 $290 $290 $-1 $432 reversed $175 $-1 #
edge $-1 $433 0 $433 6.2831853071796004 $176 $434 forward 7 unknown #
vertex $-1 $179 $435 #
ellipse-curve $-1 50.331455348486315 15.368340083403574 10.609154076700735 0.52991927123019833 0 0.84804809178421925 1.2720721376763289 0 -0.79487890684529749 1 I I #
face $-1 $-1 $195 $27 $-1 $436 reversed single #
loop $-1 $-1 $310 $180 #
plane-surface $-1 0 40.837592534373265 0 0 -1 0 0 0 -1 forward_v I I I I #
coedge $-1 $437 $308 $311 $438 forward $181 $-1 #
coedge $-1 $314 $183 $184 $302 reversed $112 $-1 #
coedge $-1 $308 $437 $183 $300 reversed $181 $-1 #
edge $-1 $315 -16.84028802889976 $439 16.84028802889976 $299 $440 forward 7 unknown #
coedge $-1 $185 $184 $437 $441 forward $73 $-1 #
edge $-1 $306 -60.303353984191411 $439 60.303353984191411 $298 $442 forward 7 unknown #
coedge $-1 $311 $310 $185 $304 reversed $295 $-1 #
edge $-1 $443 -60.303353984191411 $305 60.303353984191411 $303 $444 forward 7 unknown #
vertex $-1 $187 $445 #
vertex $-1 $317 $446 #
straight-curve $-1 60.303353984191411 0 -16.84028802889976 0 -1 0 I I #
coedge $-1 $297 $299 $188 $309 reversed $181 $-1 #
edge $-1 $312 -40.837592534373265 $315 40.837592534373265 $308 $447 forward 7 unknown #
coedge $-1 $303 $189 $194 $318 forward $295 $-1 #
coedge $-1 $189 $303 $297 $438 reversed $295 $-1 #
vertex $-1 $190 $448 #
straight-curve $-1 0 40.837592534373265 16.84028802889976 -1 0 0 I I #
coedge $-1 $191 $298 $193 $317 reversed $112 $-1 #
vertex $-1 $309 $449 #
straight-curve $-1 0 -40.837592534373265 16.84028802889976 1 0 0 I I #
edge $-1 $196 -16.84028802889976 $306 16.84028802889976 $193 $450 forward 7 unknown #
edge $-1 $197 -16.84028802889976 $305 16.84028802889976 $194 $451 forward 7 unknown #
point $-1 60.303353984191411 -40.837592534373265 16.84028802889976 #
point $-1 60.303353984191411 40.837592534373265 16.84028802889976 #
face $-1 $-1 $214 $28 $-1 $452 reversed single #
loop $-1 $-1 $210 $199 #
plane-surface $-1 0 -40.837592534373265 0 0 1 0 0 0 1 forward_v I I I I #
coedge $-1 $453 $454 $207 $334 forward $200 $-1 #
coedge $-1 $335 $202 $204 $330 reversed $120 $-1 #
edge $-1 $332 1.7106909232982872 $215 9.467800311872022 $213 $455 forward 7 unknown #
coedge $-1 $204 $203 $456 $457 reversed $77 $-1 #
coedge $-1 $339 $338 $203 $329 forward $322 $-1 #
edge $-1 $458 -60.303353984191411 $331 60.303353984191411 $328 $459 forward 7 unknown #
edge $-1 $460 -60.303353984191411 $332 60.303353984191411 $325 $461 forward 7 unknown #
vertex $-1 $329 $462 #
vertex $-1 $206 $463 #
straight-curve $-1 60.303353984191411 -15.110050547618776 7.2999365408834418 0 1 0 I I #
edge $-1 $340 -25.727541986754488 $336 -4.4925591084830643 $324 $464 forward 7 unknown #
coedge $-1 $208 $325 $453 $465 reversed $120 $-1 #
vertex $-1 $334 $466 #
straight-curve $-1 0 -19.602609656101841 15.057045929457177 -1 0 0 I I #
coedge $-1 $328 $210 $454 $467 forward $322 $-1 #
coedge $-1 $210 $328 $212 $342 reversed $322 $-1 #
vertex $-1 $467 $468 #
straight-curve $-1 0 -40.837592534373265 15.057045929457177 -1 0 0 I I #
edge $-1 $216 -15.057045929457177 $331 -7.2999365408834418 $212 $469 forward 7 unknown #
point $-1 60.303353984191411 -19.602609656101841 15.057045929457177 #
point $-1 60.303353984191411 -40.837592534373265 15.057045929457177 #
face $-1 $-1 $362 $29 $-1 $470 reversed single #
loop $-1 $-1 $358 $218 #
plane-surface $-1 -60.303353984191411 0 0 1 0 0 0 0 -1 forward_v I I I I #
coedge $-1 $351 $221 $471 $472 reversed $128 $-1 #
coedge $-1 $221 $351 $230 $367 reversed $128 $-1 #
coedge $-1 $223 $222 $473 $474 reversed $81 $-1 #
coedge $-1 $349 $348 $222 $352 reversed $128 $-1 #
edge $-1 $355 -60.303353984191411 $475 60.303353984191411 $351 $476 forward 7 unknown #
coedge $-1 $361 $360 $223 $354 forward $362 $-1 #
edge $-1 $356 -60.303353984191411 $477 60.303353984191411 $353 $478 forward 7 unknown #
vertex $-1 $225 $479 #
vertex $-1 $354 $480 #
straight-curve $-1 60.303353984191411 15.110050547618773 7.2999365408834418 0 1 0 I I #
coedge $-1 $481 $471 $226 $359 forward $346 $-1 #
edge $-1 $365 4.4925591084830607 $363 25.727541986754485 $358 $482 forward 7 unknown #
coedge $-1 $353 $227 $231 $368 forward $362 $-1 #
coedge $-1 $227 $353 $481 $483 reversed $362 $-1 #
loop $-1 $-1 $227 $345 #
vertex $-1 $483 $484 #
straight-curve $-1 0 40.837592534373265 15.057045929457177 1 0 0 I I #
vertex $-1 $359 $485 #
straight-curve $-1 0 19.602609656101833 15.057045929457177 1 0 0 I I #
edge $-1 $233 -9.467800311872022 $355 -1.7106909232982872 $230 $486 forward 7 unknown #
edge $-1 $232 -15.057045929457177 $356 -7.2999365408834418 $231 $487 forward 7 unknown #
point $-1 60.303353984191411 40.837592534373258 15.057045929457177 #
point $-1 60.303353984191411 19.602609656101833 15.057045929457177 #
loop $-1 $-1 $243 $235 #
plane-surface $-1 0 0 16.84028802889976 0 0 1 1 0 0 forward_v I I I I #
coedge $-1 $374 $238 $240 $378 reversed $136 $-1 #
coedge $-1 $238 $373 $488 $489 reversed $136 $-1 #
coedge $-1 $246 $241 $238 $376 forward $236 $-1 #
edge $-1 $379 -39.606999345336945 $490 -24.254351150348864 $375 $491 forward 7 unknown #
coedge $-1 $240 $239 $382 $492 reversed $85 $-1 #
edge $-1 $493 -20.659025667095381 $379 1.0694865687384493e-014 $373 $494 forward 7 unknown #
vertex $-1 $242 $495 #
straight-curve $-1 -60.303353984191411 -2.9422441217117346 1.4876398339116703 0 -1 0 I I #
coedge $-1 $488 $243 $246 $386 forward $371 $-1 #
coedge $-1 $243 $488 $377 $492 forward $371 $-1 #
vertex $-1 $244 $496 #
straight-curve $-1 -74.965802963763124 -2.2239264070966165 16.840288028899764 -1 0 0 I I #
straight-curve $-1 -60.303353984191403 -2.2239264070966165 1.4876398339116861 0.66913059716165679 0 0.74314483375859142 I I #
edge $-1 $247 2.2239264070966165 $490 9.5450500797503217 $246 $497 forward 7 unknown #
point $-1 -60.303353984191411 -2.2239264070966165 16.84028802889976 #
point $-1 -60.303353984191411 -2.2239264070966165 1.4876398339116781 #
edge $-1 $498 1 $498 0 $250 $-1 forward 7 unknown #
vertex $-1 $251 $499 #
ellipse-curve $-1 -49.857852437559103 -5.8844882434234762 5.9821986255046991 -0.74314483375859142 0 0.66913059716165679 1.0036958957424851 0 1.1147172506378871 1 I I #
point $-1 -52.387864997748174 -5.8844882434234762 10.27868118204362 #
plane-surface $-1 -60.303353984191411 0 0 1 0 0 0 0 -1 forward_v I I I I #
coedge $-1 $404 $403 $396 $500 forward $255 $-1 #
coedge $-1 $396 $257 $259 $400 reversed $151 $-1 #
coedge $-1 $257 $395 $394 $500 reversed $151 $-1 #
coedge $-1 $265 $260 $257 $398 forward $266 $-1 #
edge $-1 $401 -39.606999345336945 $501 -24.254351150348864 $397 $502 forward 7 unknown #
coedge $-1 $259 $258 $404 $503 reversed $94 $-1 #
edge $-1 $504 -20.659025667095381 $401 1.0694865687384493e-014 $395 $505 forward 7 unknown #
vertex $-1 $261 $506 #
straight-curve $-1 -60.303353984191411 6.8590607063391857 1.4876398339116703 0 -1 0 I I #
coedge $-1 $394 $262 $265 $408 forward $255 $-1 #
coedge $-1 $262 $394 $399 $503 forward $255 $-1 #
vertex $-1 $263 $507 #
straight-curve $-1 -74.965802963763124 17.378683249005224 16.840288028899764 -1 0 0 I I #
straight-curve $-1 -60.303353984191403 17.378683249005224 1.4876398339116861 0.66913059716165679 0 0.74314483375859142 I I #
edge $-1 $267 -17.378683249005224 $501 -10.057559576351519 $265 $508 forward 7 unknown #
point $-1 -60.303353984191411 17.378683249005224 16.84028802889976 #
point $-1 -60.303353984191411 17.378683249005224 1.4876398339116781 #
edge $-1 $509 1 $509 0 $270 $-1 forward 7 unknown #
vertex $-1 $271 $510 #
ellipse-curve $-1 -49.857852437559103 13.718121412678364 5.9821986255046991 -0.74314483375859142 0 0.66913059716165679 1.0036958957424851 0 1.1147172506378871 1 I I #
point $-1 -52.387864997748174 13.718121412678364 10.27868118204362 #
plane-surface $-1 60.303353984191411 0 0 -1 0 0 0 0 1 forward_v I I I I #
coedge $-1 $419 $511 $279 $422 reversed $275 $-1 #
coedge $-1 $282 $277 $421 $512 forward $166 $-1 #
coedge $-1 $277 $282 $285 $429 forward $166 $-1 #
coedge $-1 $511 $416 $277 $420 reversed $275 $-1 #
edge $-1 $513 -49.335911870538141 $514 -29.392114599127954 $277 $515 forward 7 unknown #
coedge $-1 $279 $278 $417 $512 reversed $103 $-1 #
edge $-1 $514 97.08941282365798 $424 120.60670796838281 $416 $516 forward 7 unknown #
coedge $-1 $285 $280 $511 $517 forward $286 $-1 #
vertex $-1 $517 $518 #
straight-curve $-1 60.303353984191411 7.6841700417017869 4.3780201245016883 0 1 0 I I #
vertex $-1 $283 $519 #
straight-curve $-1 10.967442113653274 11.134070510705307 16.840288028899764 1 0 0 I I #
straight-curve $-1 -41.976934564772222 11.134070510705307 68.289838916580464 -0.84804809178421925 0 0.52991927123019833 I I #
edge $-1 $287 11.134070510705307 $513 19.602609656101841 $285 $520 forward 7 unknown #
point $-1 60.303353984191411 11.134070510705307 16.84028802889976 #
point $-1 60.303353984191403 11.134070510705307 4.3780201245016954 #
edge $-1 $521 1 $521 0 $290 $-1 forward 7 unknown #
vertex $-1 $291 $522 #
ellipse-curve $-1 47.768275924792299 15.368340083403574 6.5072096161453059 0.52991927123019833 0 0.84804809178421925 1.2720721376763289 0 -0.79487890684529749 1 I I #
point $-1 51.603527486162619 15.368340083403574 9.8142751698553994 #
plane-surface $-1 60.303353984191411 0 0 -1 0 0 0 0 1 forward_v I I I I #
coedge $-1 $299 $297 $301 $441 reversed $181 $-1 #
edge $-1 $312 -16.84028802889976 $443 16.84028802889976 $311 $523 forward 7 unknown #
vertex $-1 $441 $524 #
straight-curve $-1 -60.303353984191411 -40.837592534373265 0 0 0 -1 I I #
edge $-1 $439 -40.837592534373265 $443 40.837592534373265 $437 $525 forward 7 unknown #
straight-curve $-1 0 -40.837592534373265 -16.84028802889976 -1 0 0 I I #
vertex $-1 $304 $526 #
straight-curve $-1 0 40.837592534373265 -16.84028802889976 1 0 0 I I #
point $-1 60.303353984191411 40.837592534373265 -16.84028802889976 #
point $-1 60.303353984191411 -40.837592534373265 -16.84028802889976 #
straight-curve $-1 -60.303353984191411 0 16.84028802889976 0 -1 0 I I #
point $-1 -60.303353984191411 40.837592534373265 16.84028802889976 #
point $-1 -60.303353984191411 -40.837592534373265 16.84028802889976 #
straight-curve $-1 60.303353984191411 -40.837592534373265 0 0 0 -1 I I #
straight-curve $-1 60.303353984191411 40.837592534373265 0 0 0 -1 I I #
plane-surface $-1 60.303353984191411 0 0 -1 0 0 0 0 1 forward_v I I I I #
coedge $-1 $456 $324 $335 $465 forward $200 $-1 #
coedge $-1 $324 $456 $338 $467 reversed $200 $-1 #
straight-curve $-1 60.303353984191411 -19.602609656101841 5.5892456175851546 0 0 1 I I #
coedge $-1 $454 $453 $327 $457 forward $200 $-1 #
edge $-1 $460 4.4925591084830643 $458 25.727541986754488 $456 $527 forward 7 unknown #
vertex $-1 $329 $528 #
straight-curve $-1 0 -40.837592534373265 7.2999365408834418 1 0 0 I I #
vertex $-1 $457 $529 #
straight-curve $-1 0 -19.602609656101841 7.2999365408834418 1 0 0 I I #
point $-1 60.303353984191411 -40.837592534373265 7.2999365408834418 #
point $-1 60.303353984191411 -19.602609656101841 7.2999365408834418 #
straight-curve $-1 -60.303353984191411 -15.110050547618776 15.057045929457177 0 1 0 I I #
edge $-1 $336 -9.467800311872022 $460 -1.7106909232982872 $453 $530 forward 7 unknown #
point $-1 -60.303353984191411 -19.602609656101841 15.057045929457177 #
edge $-1 $340 -15.057045929457177 $458 -7.2999365408834418 $454 $531 forward 7 unknown #
point $-1 -60.303353984191411 -40.837592534373265 15.057045929457177 #
straight-curve $-1 60.303353984191411 -40.837592534373265 0 0 0 -1 I I #
plane-surface $-1 0 40.837592534373265 0 0 -1 0 0 0 -1 forward_v I I I I #
coedge $-1 $358 $473 $348 $472 forward $346 $-1 #
edge $-1 $475 1.7106909232982872 $365 9.467800311872022 $471 $532 forward 7 unknown #
coedge $-1 $471 $481 $350 $474 forward $346 $-1 #
edge $-1 $477 -25.727541986754485 $475 -4.4925591084830607 $473 $533 forward 7 unknown #
vertex $-1 $474 $534 #
straight-curve $-1 0 19.602609656101833 7.2999365408834418 -1 0 0 I I #
vertex $-1 $354 $535 #
straight-curve $-1 0 40.837592534373265 7.2999365408834418 -1 0 0 I I #
point $-1 60.303353984191411 19.602609656101833 7.2999365408834418 #
point $-1 60.303353984191411 40.837592534373258 7.2999365408834418 #
coedge $-1 $473 $358 $361 $483 forward $346 $-1 #
straight-curve $-1 -60.303353984191411 15.110050547618773 15.057045929457177 0 1 0 I I #
edge $-1 $363 -15.057045929457177 $477 -7.2999365408834418 $361 $536 forward 7 unknown #
point $-1 -60.303353984191411 40.837592534373258 15.057045929457177 #
point $-1 -60.303353984191411 19.602609656101833 15.057045929457177 #
straight-curve $-1 60.303353984191411 19.602609656101833 5.5892456175851546 0 0 -1 I I #
straight-curve $-1 60.303353984191411 40.837592534373265 0 0 0 -1 I I #
coedge $-1 $382 $381 $374 $489 forward $371 $-1 #
edge $-1 $490 14.662448979571714 $493 28.486035160973252 $488 $537 forward 7 unknown #
vertex $-1 $489 $538 #
straight-curve $-1 -60.303353984191411 -9.5450500797503217 41.094639179248624 0 0 1 I I #
edge $-1 $493 -6.6028059580385872 $383 0.71831771461511806 $382 $539 forward 7 unknown #
vertex $-1 $492 $540 #
straight-curve $-1 -60.303353984191403 -9.5450500797503217 1.4876398339116861 -0.66913059716165679 0 -0.74314483375859142 I I #
point $-1 -60.303353984191411 -9.5450500797503217 1.4876398339116781 #
point $-1 -46.479767802789873 -2.2239264070966165 16.840288028899757 #
straight-curve $-1 -60.303353984191411 0 16.84028802889976 0 -1 0 I I #
vertex $-1 $389 $541 #
point $-1 -48.854156541816621 -5.8844882434234762 7.0969158761425861 #
edge $-1 $501 14.662448979571714 $504 28.486035160973252 $394 $542 forward 7 unknown #
vertex $-1 $500 $543 #
straight-curve $-1 -60.303353984191411 10.057559576351519 41.094639179248624 0 0 1 I I #
edge $-1 $504 3.1984988700123331 $405 10.519622542666038 $404 $544 forward 7 unknown #
vertex $-1 $503 $545 #
straight-curve $-1 -60.303353984191403 10.057559576351519 1.4876398339116861 -0.66913059716165679 0 -0.74314483375859142 I I #
point $-1 -60.303353984191411 10.057559576351519 1.4876398339116781 #
point $-1 -46.479767802789873 17.378683249005224 16.840288028899757 #
straight-curve $-1 -60.303353984191411 0 16.84028802889976 0 -1 0 I I #
vertex $-1 $411 $546 #
point $-1 -48.854156541816621 13.718121412678364 7.0969158761425861 #
coedge $-1 $416 $419 $423 $517 reversed $275 $-1 #
edge $-1 $514 -11.918439614400054 $426 -3.44990046900352 $417 $547 forward 7 unknown #
vertex $-1 $517 $548 #
vertex $-1 $420 $549 #
straight-curve $-1 10.967442113653274 19.602609656101841 16.840288028899764 -1 0 0 I I #
straight-curve $-1 -41.976934564772222 19.602609656101841 68.289838916580464 0.84804809178421925 0 -0.52991927123019833 I I #
edge $-1 $424 -80.907043608270357 $513 -68.444775703872281 $423 $550 forward 7 unknown #
point $-1 60.303353984191403 19.602609656101841 4.3780201245016954 #
point $-1 40.359556712781227 11.134070510705307 16.840288028899764 #
straight-curve $-1 60.303353984191411 0 16.84028802889976 0 1 0 I I #
vertex $-1 $432 $551 #
point $-1 49.040348062468631 15.368340083403574 5.7123307093000086 #
straight-curve $-1 -60.303353984191411 40.837592534373265 0 0 0 -1 I I #
point $-1 -60.303353984191411 -40.837592534373265 -16.84028802889976 #
straight-curve $-1 -60.303353984191411 0 -16.84028802889976 0 1 0 I I #
point $-1 -60.303353984191411 40.837592534373265 -16.84028802889976 #
straight-curve $-1 -60.303353984191411 -15.110050547618776 7.2999365408834418 0 -1 0 I I #
point $-1 -60.303353984191411 -40.837592534373265 7.2999365408834418 #
point $-1 -60.303353984191411 -19.602609656101841 7.2999365408834418 #
straight-curve $-1 -60.303353984191411 -19.602609656101841 5.5892456175851546 0 0 -1 I I #
straight-curve $-1 -60.303353984191411 -40.837592534373265 0 0 0 -1 I I #
straight-curve $-1 -60.303353984191411 19.602609656101833 5.5892456175851546 0 0 1 I I #
straight-curve $-1 -60.303353984191411 15.110050547618773 7.2999365408834418 0 -1 0 I I #
point $-1 -60.303353984191411 19.602609656101833 7.2999365408834418 #
point $-1 -60.303353984191411 40.837592534373258 7.2999365408834418 #
straight-curve $-1 -60.303353984191411 40.837592534373265 0 0 0 -1 I I #
straight-curve $-1 -74.965802963763124 -9.5450500797503217 16.840288028899764 1 0 0 I I #
point $-1 -60.303353984191411 -9.5450500797503217 16.84028802889976 #
straight-curve $-1 -46.479767802789873 -2.9422441217117346 16.84028802889976 0 1 0 I I #
point $-1 -46.479767802789873 -9.5450500797503217 16.840288028899757 #
point $-1 -48.743135186921222 -5.8844882434234762 4.978502729762214 #
straight-curve $-1 -74.965802963763124 10.057559576351519 16.840288028899764 1 0 0 I I #
point $-1 -60.303353984191411 10.057559576351519 16.84028802889976 #
straight-curve $-1 -46.479767802789873 6.8590607063391857 16.84028802889976 0 1 0 I I #
point $-1 -46.479767802789873 10.057559576351519 16.840288028899757 #
point $-1 -48.743135186921222 13.718121412678364 4.978502729762214 #
straight-curve $-1 40.359556712781227 7.6841700417017869 16.840288028899757 0 -1 0 I I #
point $-1 60.303353984191411 19.602609656101841 16.84028802889976 #
point $-1 40.359556712781227 19.602609656101841 16.840288028899764 #
straight-curve $-1 60.303353984191411 19.602609656101841 85.285063732772045 0 0 1 I I #
point $-1 46.973397017947001 15.368340083403574 5.2351374784689755 #
End-of-ACIS-data 