500 0 8 0           
7 Unknown 11 ACIS 5.0 NT 24 Thu Mar 25 21:37:25 1999 
-1 9.9999999999999995e-007 1e-010 
body $-1 $8 $-1 $9 #
body $-1 $10 $-1 $11 #
body $-1 $12 $-1 $13 #
body $-1 $14 $-1 $15 #
body $-1 $16 $-1 $17 #
body $-1 $18 $-1 $19 #
body $-1 $20 $-1 $21 #
body $-1 $22 $-1 $23 #
lump $-1 $-1 $24 $0 #
transform $-1 1 0 0 0 1 0 0 0 1 53.71135593737602 34.751658728304101 13.240883624538657 1 rotate no_reflect no_shear #
lump $-1 $-1 $25 $1 #
transform $-1 1 0 0 0 1 0 0 0 1 53.71135593737602 34.751658728304101 13.240883624538657 1 rotate no_reflect no_shear #
lump $-1 $-1 $26 $2 #
transform $-1 1 0 0 0 1 0 0 0 1 53.71135593737602 34.751658728304101 13.240883624538657 1 rotate no_reflect no_shear #
lump $-1 $-1 $27 $3 #
transform $-1 1 0 0 0 1 0 0 0 1 53.71135593737602 34.751658728304101 13.240883624538657 1 rotate no_reflect no_shear #
lump $-1 $-1 $28 $4 #
transform $-1 1 0 0 0 1 0 0 0 1 53.71135593737602 34.751658728304101 13.240883624538657 1 rotate no_reflect no_shear #
lump $-1 $-1 $29 $5 #
transform $-1 1 0 0 0 1 0 0 0 1 53.71135593737602 34.751658728304101 13.240883624538657 1 rotate no_reflect no_shear #
lump $-1 $-1 $30 $6 #
transform $-1 1 0 0 0 1 0 0 0 1 53.71135593737602 34.751658728304101 13.240883624538657 1 rotate no_reflect no_shear #
lump $-1 $-1 $31 $7 #
transform $-1 1 0 0 0 1 0 0 0 1 53.71135593737602 34.751658728304101 13.240883624538657 1 rotate no_reflect no_shear #
shell $-1 $-1 $-1 $32 $-1 $8 #
shell $-1 $-1 $-1 $33 $-1 $10 #
shell $-1 $-1 $-1 $34 $-1 $12 #
shell $-1 $-1 $-1 $35 $-1 $14 #
shell $-1 $-1 $-1 $36 $-1 $16 #
shell $-1 $-1 $-1 $37 $-1 $18 #
shell $-1 $-1 $-1 $38 $-1 $20 #
shell $-1 $-1 $-1 $39 $-1 $22 #
face $-1 $40 $41 $24 $-1 $42 forward single #
face $-1 $43 $44 $25 $-1 $45 forward single #
face $-1 $46 $47 $26 $-1 $48 reversed single #
face $-1 $49 $50 $27 $-1 $51 forward single #
face $-1 $52 $53 $28 $-1 $54 forward single #
face $-1 $55 $56 $29 $-1 $57 reversed single #
face $-1 $58 $59 $30 $-1 $60 forward single #
face $-1 $61 $62 $31 $-1 $63 forward single #
face $-1 $64 $65 $24 $-1 $66 reversed single #
loop $-1 $-1 $67 $32 #
plane-surface $-1 0 0 13.240883624538657 0 0 1 1 0 0 forward_v I I I I #
face $-1 $68 $69 $25 $-1 $70 reversed single #
loop $-1 $-1 $71 $33 #
plane-surface $-1 -53.71135593737602 0 0 1 0 0 0 0 -1 forward_v I I I I #
face $-1 $72 $73 $26 $-1 $74 reversed single #
loop $-1 $-1 $75 $34 #
plane-surface $-1 -26.071594519263471 28.271377089364684 136.89227022216764 1 0 0 0 -0.50000000669873634 -0.8660253999169214 forward_v I I I I #
face $-1 $76 $77 $27 $-1 $78 forward single #
loop $-1 $79 $80 $35 #
cone-surface $-1 -22.860168259888098 30.321245956501805 9.6982531287209248 0 -0.50000000669873634 -0.8660253999169214 1 0 0 1 I I 0 1 1 forward I I I I #
face $-1 $81 $82 $28 $-1 $83 forward single #
loop $-1 $84 $85 $36 #
cone-surface $-1 -18.043028870825033 30.321245956501805 9.6982531287209248 0 -0.50000000669873634 -0.8660253999169214 1 0 0 1 I I 0 1 1 forward I I I I #
face $-1 $86 $87 $29 $-1 $88 reversed single #
loop $-1 $-1 $89 $37 #
plane-surface $-1 11.542526592779986 -100.8876848339757 94.201992124274724 -1 0 0 0 -0.61566148304635926 0.78801074757464917 forward_v I I I I #
face $-1 $90 $91 $30 $-1 $92 forward single #
loop $-1 $93 $94 $38 #
cone-surface $-1 -5.0148722550885267 -32.056137941406412 10.968073126839279 0 0.61566148304635926 -0.78801074757464917 1 0 0 1 I I 0 1 1 forward I I I I #
face $-1 $95 $96 $31 $-1 $97 forward single #
loop $-1 $98 $99 $39 #
cone-surface $-1 4.9195670536325835 -32.056137941406412 10.968073126839279 0 0.61566148304635926 -0.78801074757464917 1 0 0 1 I I 0 1 1 forward I I I I #
face $-1 $100 $101 $24 $-1 $102 reversed single #
loop $-1 $-1 $103 $40 #
plane-surface $-1 0 0 -13.240883624538657 0 0 1 1 0 0 forward_v I I I I #
coedge $-1 $104 $105 $106 $107 forward $41 $-1 #
face $-1 $108 $109 $25 $-1 $110 reversed single #
loop $-1 $-1 $111 $43 #
plane-surface $-1 0 0 -13.240883624538657 0 0 1 1 0 0 forward_v I I I I #
coedge $-1 $112 $113 $114 $115 forward $44 $-1 #
face $-1 $116 $117 $26 $-1 $118 reversed single #
loop $-1 $-1 $119 $46 #
plane-surface $-1 -20.451598565356562 -25.439979567607757 43.861473210675285 0 0.50000000669873634 0.8660253999169214 1 0 0 forward_v I I I I #
coedge $-1 $120 $121 $122 $123 reversed $47 $-1 #
face $-1 $-1 $124 $27 $-1 $125 forward single #
loop $-1 $126 $127 $49 #
cone-surface $-1 -22.860168259888098 29.218444342557156 7.7881447368206658 0 -0.50000000669873634 -0.8660253999169214 0.5 0 0 1 I I -0.70710678118654746 0.70710678118654746 0.5 forward I I I I #
loop $-1 $-1 $128 $35 #
coedge $-1 $80 $80 $129 $130 reversed $50 $-1 #
face $-1 $-1 $131 $28 $-1 $132 forward single #
loop $-1 $133 $134 $52 #
cone-surface $-1 -18.043028870825033 29.218444342557156 7.7881447368206658 0 -0.50000000669873634 -0.8660253999169214 0.5 0 0 1 I I -0.70710678118654746 0.70710678118654746 0.5 forward I I I I #
loop $-1 $-1 $135 $36 #
coedge $-1 $85 $85 $136 $137 reversed $53 $-1 #
face $-1 $138 $139 $29 $-1 $140 reversed single #
loop $-1 $-1 $141 $55 #
plane-surface $-1 -0.047652600727971617 -34.751658728304108 9.5517406333552088 0 -0.61566148304635926 0.78801074757464917 1 0 0 forward_v I I I I #
coedge $-1 $142 $143 $144 $145 reversed $56 $-1 #
face $-1 $-1 $146 $30 $-1 $147 forward single #
loop $-1 $148 $149 $58 #
cone-surface $-1 -5.0148722550885267 -31.41373021607005 10.14582875094429 0 0.61566148304635926 -0.78801074757464917 0.5 0 0 1 I I -0.70710678118654746 0.70710678118654746 0.5 forward I I I I #
loop $-1 $-1 $150 $38 #
coedge $-1 $94 $94 $151 $152 reversed $59 $-1 #
face $-1 $-1 $153 $31 $-1 $154 forward single #
loop $-1 $155 $156 $61 #
cone-surface $-1 4.9195670536325835 -31.41373021607005 10.14582875094429 0 0.61566148304635926 -0.78801074757464917 0.5 0 0 1 I I -0.70710678118654746 0.70710678118654746 0.5 forward I I I I #
loop $-1 $-1 $157 $39 #
coedge $-1 $99 $99 $158 $159 reversed $62 $-1 #
face $-1 $160 $161 $24 $-1 $162 reversed single #
loop $-1 $-1 $163 $64 #
plane-surface $-1 0 -34.751658728304101 0 0 1 0 0 0 1 forward_v I I I I #
coedge $-1 $164 $165 $166 $167 forward $65 $-1 #
coedge $-1 $168 $67 $169 $170 forward $41 $-1 #
coedge $-1 $67 $168 $171 $172 forward $41 $-1 #
coedge $-1 $173 $174 $67 $107 reversed $175 $-1 #
edge $-1 $176 -34.751658728304101 $177 34.751658728304101 $106 $178 forward 7 unknown #
face $-1 $179 $180 $25 $-1 $181 reversed single #
loop $-1 $-1 $182 $68 #
plane-surface $-1 -58.986296550396403 -31.017650416043086 0 0 1 0 0 0 1 forward_v I I I I #
coedge $-1 $183 $184 $113 $185 forward $69 $-1 #
coedge $-1 $186 $71 $187 $188 reversed $44 $-1 #
coedge $-1 $71 $186 $111 $185 reversed $44 $-1 #
coedge $-1 $189 $190 $71 $115 reversed $191 $-1 #
edge $-1 $192 -13.240883624538657 $193 13.240883624538657 $114 $194 forward 7 unknown #
face $-1 $195 $196 $26 $-1 $197 forward single #
loop $-1 $-1 $198 $72 #
plane-surface $-1 -14.831602611449652 28.271377089364684 136.89227022216764 -1 0 0 0 0.50000000669873634 0.8660253999169214 forward_v I I I I #
coedge $-1 $199 $200 $201 $202 reversed $73 $-1 #
coedge $-1 $121 $75 $203 $204 reversed $47 $-1 #
coedge $-1 $75 $120 $199 $205 reversed $47 $-1 #
coedge $-1 $201 $206 $75 $123 forward $196 $-1 #
edge $-1 $207 -20.615970183621759 $208 -13.460747861207754 $122 $209 forward 7 unknown #
loop $-1 $-1 $129 $76 #
plane-surface $-1 -20.451598565356562 -25.439979567607757 43.861473210675285 0 0.50000000669873634 0.8660253999169214 1 0 0 forward_v I I I I #
loop $-1 $-1 $210 $49 #
coedge $-1 $127 $127 $128 $211 reversed $77 $-1 #
coedge $-1 $128 $128 $127 $211 forward $79 $-1 #
coedge $-1 $129 $129 $80 $130 forward $124 $-1 #
edge $-1 $212 1.3641518735238365e-015 $212 6.2831853071796022 $129 $213 forward 7 unknown #
loop $-1 $-1 $136 $81 #
plane-surface $-1 -20.451598565356562 -25.439979567607757 43.861473210675285 0 0.50000000669873634 0.8660253999169214 1 0 0 forward_v I I I I #
loop $-1 $-1 $214 $52 #
coedge $-1 $134 $134 $135 $215 reversed $82 $-1 #
coedge $-1 $135 $135 $134 $215 forward $84 $-1 #
coedge $-1 $136 $136 $85 $137 forward $131 $-1 #
edge $-1 $216 1.3641518735238365e-015 $216 6.2831853071796022 $136 $217 forward 7 unknown #
face $-1 $218 $219 $29 $-1 $220 forward single #
loop $-1 $-1 $221 $86 #
plane-surface $-1 -11.637831794235929 -100.8876848339757 94.201992124274724 1 0 0 0 0.61566148304635926 -0.78801074757464917 forward_v I I I I #
coedge $-1 $222 $223 $224 $225 reversed $87 $-1 #
coedge $-1 $143 $89 $226 $227 reversed $56 $-1 #
coedge $-1 $89 $142 $222 $228 reversed $56 $-1 #
coedge $-1 $224 $229 $89 $145 forward $219 $-1 #
edge $-1 $230 15.692183688683748 $231 20.414071294852768 $144 $232 forward 7 unknown #
loop $-1 $-1 $151 $90 #
plane-surface $-1 -0.047652600727971617 -34.751658728304108 9.5517406333552088 0 -0.61566148304635926 0.78801074757464917 1 0 0 forward_v I I I I #
loop $-1 $-1 $233 $58 #
coedge $-1 $149 $149 $150 $234 reversed $91 $-1 #
coedge $-1 $150 $150 $149 $234 forward $93 $-1 #
coedge $-1 $151 $151 $94 $152 forward $146 $-1 #
edge $-1 $235 -2.3182496654064245e-015 $235 6.2831853071795978 $151 $236 forward 7 unknown #
loop $-1 $-1 $158 $95 #
plane-surface $-1 -0.047652600727971617 -34.751658728304108 9.5517406333552088 0 -0.61566148304635926 0.78801074757464917 1 0 0 forward_v I I I I #
loop $-1 $-1 $237 $61 #
coedge $-1 $156 $156 $157 $238 reversed $96 $-1 #
coedge $-1 $157 $157 $156 $238 forward $98 $-1 #
coedge $-1 $158 $158 $99 $159 forward $153 $-1 #
edge $-1 $239 -2.3182496654064245e-015 $239 6.2831853071795978 $158 $240 forward 7 unknown #
face $-1 $241 $242 $24 $-1 $243 reversed single #
loop $-1 $-1 $244 $100 #
plane-surface $-1 -53.71135593737602 0 0 1 0 0 0 0 -1 forward_v I I I I #
coedge $-1 $245 $171 $246 $247 forward $101 $-1 #
coedge $-1 $248 $103 $245 $249 forward $65 $-1 #
coedge $-1 $103 $248 $250 $251 forward $65 $-1 #
coedge $-1 $174 $173 $103 $167 reversed $175 $-1 #
edge $-1 $252 -34.751658728304101 $253 34.751658728304101 $166 $254 forward 7 unknown #
coedge $-1 $105 $104 $255 $256 forward $41 $-1 #
coedge $-1 $257 $258 $104 $170 reversed $242 $-1 #
edge $-1 $177 -53.71135593737602 $259 53.71135593737602 $169 $260 forward 7 unknown #
coedge $-1 $163 $261 $105 $172 reversed $101 $-1 #
edge $-1 $262 -53.71135593737602 $176 53.71135593737602 $171 $263 forward 7 unknown #
coedge $-1 $166 $106 $261 $264 forward $175 $-1 #
coedge $-1 $106 $166 $257 $265 reversed $175 $-1 #
loop $-1 $-1 $173 $241 #
vertex $-1 $107 $266 #
vertex $-1 $107 $267 #
straight-curve $-1 53.71135593737602 0 13.240883624538657 0 1 0 I I #
face $-1 $268 $191 $25 $-1 $269 reversed single #
loop $-1 $-1 $270 $108 #
plane-surface $-1 -64.261237163416794 -28.234224087902433 0 1 0 0 0 0 -1 forward_v I I I I #
coedge $-1 $271 $272 $273 $274 forward $109 $-1 #
coedge $-1 $275 $111 $271 $276 forward $69 $-1 #
coedge $-1 $111 $275 $189 $277 forward $69 $-1 #
edge $-1 $192 25.45079775976178 $278 31.017650416043086 $111 $279 forward 7 unknown #
coedge $-1 $113 $112 $280 $281 forward $44 $-1 #
coedge $-1 $282 $283 $112 $188 forward $284 $-1 #
edge $-1 $285 -31.017650416043086 $193 -25.45079775976178 $187 $286 forward 7 unknown #
coedge $-1 $287 $114 $184 $277 reversed $191 $-1 #
coedge $-1 $114 $287 $282 $288 reversed $191 $-1 #
loop $-1 $-1 $114 $179 #
vertex $-1 $185 $289 #
vertex $-1 $288 $290 #
straight-curve $-1 -53.71135593737602 -25.45079775976178 0 0 0 1 I I #
face $-1 $-1 $291 $26 $-1 $292 reversed single #
loop $-1 $-1 $122 $116 #
plane-surface $-1 0 0 13.240883624538657 0 0 1 1 0 0 forward_v I I I I #
coedge $-1 $293 $294 $295 $296 reversed $117 $-1 #
coedge $-1 $297 $119 $121 $205 forward $73 $-1 #
coedge $-1 $119 $297 $293 $298 forward $73 $-1 #
coedge $-1 $295 $122 $119 $202 forward $196 $-1 #
edge $-1 $208 -15.84579523658519 $299 -4.6058033287713709 $201 $300 forward 7 unknown #
coedge $-1 $301 $302 $120 $204 forward $291 $-1 #
edge $-1 $303 -59.336321094297034 $207 -55.205251486545166 $203 $304 forward 7 unknown #
edge $-1 $208 61.24117835179625 $303 69.503317456608215 $121 $305 forward 7 unknown #
coedge $-1 $122 $295 $301 $306 forward $196 $-1 #
vertex $-1 $204 $307 #
vertex $-1 $123 $308 #
straight-curve $-1 -26.071594519263471 14.135688544682342 13.240883624538654 0 -1 0 I I #
coedge $-1 $210 $210 $-1 $309 reversed $126 $-1 #
edge $-1 $310 0 $310 6.2831853071796004 $127 $311 forward 7 unknown #
vertex $-1 $130 $312 #
ellipse-curve $-1 -22.860168259888098 31.174047567097091 11.175348820662732 0 0.50000000669873634 0.8660253999169214 1 0 0 1 I I #
coedge $-1 $214 $214 $-1 $313 reversed $133 $-1 #
edge $-1 $314 0 $314 6.2831853071796004 $134 $315 forward 7 unknown #
vertex $-1 $137 $316 #
ellipse-curve $-1 -18.043028870825033 31.174047567097091 11.175348820662732 0 0.50000000669873634 0.8660253999169214 1 0 0 1 I I #
face $-1 $-1 $317 $29 $-1 $318 reversed single #
loop $-1 $-1 $144 $138 #
plane-surface $-1 0 0 13.240883624538657 0 0 1 1 0 0 forward_v I I I I #
coedge $-1 $319 $320 $321 $322 reversed $139 $-1 #
coedge $-1 $323 $141 $143 $228 forward $87 $-1 #
coedge $-1 $141 $323 $319 $324 forward $87 $-1 #
coedge $-1 $321 $144 $141 $225 forward $219 $-1 #
edge $-1 $231 -11.566352893143971 $325 11.614005493871943 $224 $326 forward 7 unknown #
coedge $-1 $327 $328 $142 $227 forward $317 $-1 #
edge $-1 $329 -37.549255428782146 $230 -33.860112437598701 $226 $330 forward 7 unknown #
edge $-1 $231 -5.9921614276228095 $329 -8.8800565823946346e-015 $143 $331 forward 7 unknown #
coedge $-1 $144 $321 $327 $332 forward $219 $-1 #
vertex $-1 $145 $333 #
vertex $-1 $145 $334 #
straight-curve $-1 11.542526592779986 -50.443842416987849 13.240883624538654 0 1 0 I I #
coedge $-1 $233 $233 $-1 $335 reversed $148 $-1 #
edge $-1 $336 0 $336 6.2831853071796004 $149 $337 forward 7 unknown #
vertex $-1 $152 $338 #
ellipse-curve $-1 -5.0148722550885267 -32.390714925219591 11.396312128946937 0 -0.61566148304635926 0.78801074757464917 1 0 0 1 I I #
coedge $-1 $237 $237 $-1 $339 reversed $155 $-1 #
edge $-1 $340 0 $340 6.2831853071796004 $156 $341 forward 7 unknown #
vertex $-1 $159 $342 #
ellipse-curve $-1 4.9195670536325835 -32.390714925219591 11.396312128946937 0 -0.61566148304635926 0.78801074757464917 1 0 0 1 I I #
face $-1 $-1 $175 $24 $-1 $343 reversed single #
loop $-1 $-1 $257 $160 #
plane-surface $-1 0 34.751658728304101 0 0 -1 0 0 0 -1 forward_v I I I I #
coedge $-1 $344 $255 $258 $345 forward $161 $-1 #
coedge $-1 $261 $163 $164 $249 reversed $101 $-1 #
coedge $-1 $255 $344 $163 $247 reversed $161 $-1 #
edge $-1 $262 -13.240883624538657 $346 13.240883624538657 $246 $347 forward 7 unknown #
coedge $-1 $165 $164 $344 $348 forward $65 $-1 #
edge $-1 $253 -53.71135593737602 $346 53.71135593737602 $245 $349 forward 7 unknown #
coedge $-1 $258 $257 $165 $251 reversed $242 $-1 #
edge $-1 $350 -53.71135593737602 $252 53.71135593737602 $250 $351 forward 7 unknown #
vertex $-1 $167 $352 #
vertex $-1 $264 $353 #
straight-curve $-1 53.71135593737602 0 -13.240883624538657 0 -1 0 I I #
coedge $-1 $244 $246 $168 $256 reversed $161 $-1 #
edge $-1 $259 -34.751658728304101 $262 34.751658728304101 $255 $354 forward 7 unknown #
coedge $-1 $250 $169 $174 $265 forward $242 $-1 #
coedge $-1 $169 $250 $244 $345 reversed $242 $-1 #
vertex $-1 $170 $355 #
straight-curve $-1 0 34.751658728304101 13.240883624538657 -1 0 0 I I #
coedge $-1 $171 $245 $173 $264 reversed $101 $-1 #
vertex $-1 $256 $356 #
straight-curve $-1 0 -34.751658728304101 13.240883624538657 1 0 0 I I #
edge $-1 $176 -13.240883624538657 $253 13.240883624538657 $173 $357 forward 7 unknown #
edge $-1 $177 -13.240883624538657 $252 13.240883624538657 $174 $358 forward 7 unknown #
point $-1 53.71135593737602 -34.751658728304101 13.240883624538657 #
point $-1 53.71135593737602 34.751658728304101 13.240883624538657 #
face $-1 $-1 $284 $25 $-1 $359 forward single #
plane-surface $-1 -58.986296550396403 -25.45079775976178 0 0 -1 0 0 0 -1 forward_v I I I I #
coedge $-1 $360 $361 $287 $362 forward $180 $-1 #
coedge $-1 $280 $182 $183 $276 reversed $109 $-1 #
coedge $-1 $182 $280 $283 $363 reversed $109 $-1 #
coedge $-1 $361 $360 $182 $274 reversed $180 $-1 #
edge $-1 $364 -13.240883624538657 $365 13.240883624538657 $273 $366 forward 7 unknown #
coedge $-1 $184 $183 $360 $367 forward $69 $-1 #
edge $-1 $278 -5.2749406130203838 $365 5.2749406130203909 $271 $368 forward 7 unknown #
edge $-1 $369 -5.2749406130203909 $192 5.2749406130203838 $189 $370 forward 7 unknown #
vertex $-1 $276 $371 #
straight-curve $-1 -53.71135593737602 0 -13.240883624538657 0 -1 0 I I #
coedge $-1 $272 $271 $186 $281 reversed $109 $-1 #
edge $-1 $285 -13.240883624538657 $278 13.240883624538657 $280 $372 forward 7 unknown #
coedge $-1 $373 $187 $190 $288 forward $284 $-1 #
coedge $-1 $187 $373 $272 $363 forward $284 $-1 #
loop $-1 $-1 $187 $268 #
vertex $-1 $188 $374 #
straight-curve $-1 -53.71135593737602 0 13.240883624538657 0 1 0 I I #
coedge $-1 $190 $189 $270 $362 reversed $191 $-1 #
edge $-1 $193 -5.2749406130203838 $375 5.2749406130203909 $190 $376 forward 7 unknown #
point $-1 -53.71135593737602 -25.45079775976178 -13.240883624538657 #
point $-1 -53.71135593737602 -25.45079775976178 13.240883624538657 #
loop $-1 $-1 $203 $195 #
plane-surface $-1 0 34.751658728304101 0 0 -1 0 0 0 -1 forward_v I I I I #
coedge $-1 $294 $198 $200 $298 reversed $117 $-1 #
coedge $-1 $198 $293 $377 $378 reversed $117 $-1 #
coedge $-1 $206 $201 $198 $296 forward $196 $-1 #
edge $-1 $299 13.460747861207754 $379 20.615970183621759 $295 $380 forward 7 unknown #
coedge $-1 $200 $199 $302 $381 reversed $73 $-1 #
edge $-1 $382 -69.503317456608215 $299 -61.24117835179625 $293 $383 forward 7 unknown #
vertex $-1 $202 $384 #
straight-curve $-1 -10.225799282678281 27.596436405890096 13.240883624538657 1 0 0 I I #
coedge $-1 $377 $203 $206 $306 reversed $291 $-1 #
coedge $-1 $203 $377 $297 $381 forward $291 $-1 #
vertex $-1 $204 $385 #
straight-curve $-1 -26.071594519263471 34.751658728304101 68.446135111083819 0 0 1 I I #
straight-curve $-1 -26.071594519263471 -25.439979567607757 43.861473210675285 0 0.8660253999169214 -0.50000000669873634 I I #
edge $-1 $379 14.831602611449652 $207 26.071594519263471 $301 $386 forward 7 unknown #
point $-1 -26.071594519263471 34.751658728304101 13.240883624538657 #
point $-1 -26.071594519263471 27.596436405890096 13.240883624538657 #
edge $-1 $387 1 $387 0 $210 $-1 forward 7 unknown #
vertex $-1 $211 $388 #
ellipse-curve $-1 -22.860168259888098 29.468444345906523 8.2211574367791265 0 0.50000000669873634 0.8660253999169214 1 0 0 1 I I #
point $-1 -21.860168259888098 31.174047567097087 11.175348820662723 #
edge $-1 $389 1 $389 0 $214 $-1 forward 7 unknown #
vertex $-1 $215 $390 #
ellipse-curve $-1 -18.043028870825033 29.468444345906523 8.2211574367791265 0 0.50000000669873634 0.8660253999169214 1 0 0 1 I I #
point $-1 -17.043028870825033 31.174047567097087 11.175348820662723 #
loop $-1 $-1 $226 $218 #
plane-surface $-1 0 -34.751658728304101 0 0 1 0 0 0 1 forward_v I I I I #
coedge $-1 $320 $221 $223 $324 reversed $139 $-1 #
coedge $-1 $221 $319 $391 $392 reversed $139 $-1 #
coedge $-1 $229 $224 $221 $322 forward $219 $-1 #
edge $-1 $325 -20.414071294852768 $393 -15.692183688683748 $321 $394 forward 7 unknown #
coedge $-1 $223 $222 $328 $395 reversed $87 $-1 #
edge $-1 $396 8.8800565823946346e-015 $325 5.9921614276228095 $319 $397 forward 7 unknown #
vertex $-1 $225 $398 #
straight-curve $-1 -0.023826300363985808 -30.029771122135081 13.240883624538657 -1 0 0 I I #
coedge $-1 $391 $226 $229 $332 reversed $317 $-1 #
coedge $-1 $226 $391 $323 $395 forward $317 $-1 #
vertex $-1 $227 $399 #
straight-curve $-1 11.542526592779986 -34.751658728304101 47.100996062137362 0 0 1 I I #
straight-curve $-1 11.542526592779986 -34.751658728304108 9.5517406333552088 0 -0.78801074757464917 -0.61566148304635926 I I #
edge $-1 $393 -11.637831794235929 $230 11.542526592779986 $327 $400 forward 7 unknown #
point $-1 11.542526592779986 -34.751658728304101 13.240883624538657 #
point $-1 11.542526592779986 -30.029771122135081 13.240883624538657 #
edge $-1 $401 1 $401 0 $233 $-1 forward 7 unknown #
vertex $-1 $234 $402 #
ellipse-curve $-1 -5.0148722550885267 -31.72156095759323 10.539834124731614 0 -0.61566148304635926 0.78801074757464917 1 0 0 1 I I #
point $-1 -4.0148722550885267 -32.390714925219598 11.396312128946942 #
edge $-1 $403 1 $403 0 $237 $-1 forward 7 unknown #
vertex $-1 $238 $404 #
ellipse-curve $-1 4.9195670536325835 -31.72156095759323 10.539834124731614 0 -0.61566148304635926 0.78801074757464917 1 0 0 1 I I #
point $-1 5.9195670536325835 -32.390714925219598 11.396312128946942 #
plane-surface $-1 53.71135593737602 0 0 -1 0 0 0 0 1 forward_v I I I I #
coedge $-1 $246 $244 $248 $348 reversed $161 $-1 #
edge $-1 $259 -13.240883624538657 $350 13.240883624538657 $258 $405 forward 7 unknown #
vertex $-1 $348 $406 #
straight-curve $-1 -53.71135593737602 -34.751658728304101 0 0 0 -1 I I #
edge $-1 $346 -34.751658728304101 $350 34.751658728304101 $344 $407 forward 7 unknown #
straight-curve $-1 0 -34.751658728304101 -13.240883624538657 -1 0 0 I I #
vertex $-1 $251 $408 #
straight-curve $-1 0 34.751658728304101 -13.240883624538657 1 0 0 I I #
point $-1 53.71135593737602 34.751658728304101 -13.240883624538657 #
point $-1 53.71135593737602 -34.751658728304101 -13.240883624538657 #
straight-curve $-1 -53.71135593737602 0 13.240883624538657 0 -1 0 I I #
point $-1 -53.71135593737602 34.751658728304101 13.240883624538657 #
point $-1 -53.71135593737602 -34.751658728304101 13.240883624538657 #
straight-curve $-1 53.71135593737602 -34.751658728304101 0 0 0 -1 I I #
straight-curve $-1 53.71135593737602 34.751658728304101 0 0 0 -1 I I #
plane-surface $-1 0 0 13.240883624538657 0 0 1 1 0 0 forward_v I I I I #
coedge $-1 $273 $270 $275 $367 reversed $180 $-1 #
coedge $-1 $270 $273 $373 $409 reversed $180 $-1 #
edge $-1 $375 -13.240883624538657 $369 13.240883624538657 $287 $410 forward 7 unknown #
edge $-1 $364 -5.2749406130203909 $285 5.2749406130203838 $272 $411 forward 7 unknown #
vertex $-1 $409 $412 #
vertex $-1 $367 $413 #
straight-curve $-1 -64.261237163416794 -31.017650416043086 0 0 0 -1 I I #
edge $-1 $365 -2.7834263281406528 $369 2.7834263281406528 $360 $414 forward 7 unknown #
straight-curve $-1 -58.986296550396403 -31.017650416043086 -13.240883624538657 -1 0 0 I I #
vertex $-1 $277 $415 #
straight-curve $-1 -58.986296550396403 -25.45079775976178 -13.240883624538657 1 0 0 I I #
point $-1 -53.71135593737602 -31.017650416043086 -13.240883624538657 #
straight-curve $-1 -53.71135593737602 -31.017650416043086 0 0 0 -1 I I #
coedge $-1 $283 $282 $361 $409 forward $284 $-1 #
point $-1 -53.71135593737602 -31.017650416043086 13.240883624538657 #
vertex $-1 $288 $416 #
straight-curve $-1 -58.986296550396403 -25.45079775976178 13.240883624538657 -1 0 0 I I #
coedge $-1 $302 $301 $294 $378 forward $291 $-1 #
edge $-1 $379 55.205251486545166 $382 59.336321094297034 $377 $417 forward 7 unknown #
vertex $-1 $306 $418 #
straight-curve $-1 -14.831602611449652 14.135688544682342 13.240883624538654 0 1 0 I I #
edge $-1 $382 4.6058033287713709 $303 15.84579523658519 $302 $419 forward 7 unknown #
vertex $-1 $381 $420 #
straight-curve $-1 -14.831602611449652 -25.439979567607757 43.861473210675285 0 -0.8660253999169214 0.50000000669873634 I I #
point $-1 -14.831602611449652 27.596436405890096 13.240883624538657 #
point $-1 -26.071594519263471 34.751658728304108 9.1098140167867854 #
straight-curve $-1 0 34.751658728304101 13.240883624538657 -1 0 0 I I #
vertex $-1 $309 $421 #
point $-1 -21.860168259888098 29.468444345906523 8.2211574367791265 #
vertex $-1 $313 $422 #
point $-1 -17.043028870825033 29.468444345906523 8.2211574367791265 #
coedge $-1 $328 $327 $320 $392 forward $317 $-1 #
edge $-1 $393 33.860112437598701 $396 37.549255428782146 $391 $423 forward 7 unknown #
vertex $-1 $332 $424 #
straight-curve $-1 -11.637831794235929 -50.443842416987849 13.240883624538654 0 -1 0 I I #
edge $-1 $396 -11.614005493871943 $329 11.566352893143971 $328 $425 forward 7 unknown #
vertex $-1 $395 $426 #
straight-curve $-1 -11.637831794235929 -34.751658728304108 9.5517406333552088 0 0.78801074757464917 0.61566148304635926 I I #
point $-1 -11.637831794235929 -30.029771122135081 13.240883624538657 #
point $-1 11.542526592779986 -34.751658728304101 9.5517406333552142 #
straight-curve $-1 0 -34.751658728304101 13.240883624538657 1 0 0 I I #
vertex $-1 $335 $427 #
point $-1 -4.0148722550885267 -31.72156095759323 10.539834124731614 #
vertex $-1 $339 $428 #
point $-1 5.9195670536325835 -31.72156095759323 10.539834124731614 #
straight-curve $-1 -53.71135593737602 34.751658728304101 0 0 0 -1 I I #
point $-1 -53.71135593737602 -34.751658728304101 -13.240883624538657 #
straight-curve $-1 -53.71135593737602 0 -13.240883624538657 0 1 0 I I #
point $-1 -53.71135593737602 34.751658728304101 -13.240883624538657 #
edge $-1 $375 -2.7834263281406528 $364 2.7834263281406528 $361 $429 forward 7 unknown #
straight-curve $-1 -64.261237163416794 -25.45079775976178 0 0 0 -1 I I #
straight-curve $-1 -58.986296550396403 -31.017650416043086 13.240883624538657 1 0 0 I I #
point $-1 -64.261237163416794 -31.017650416043086 13.240883624538657 #
point $-1 -64.261237163416794 -31.017650416043086 -13.240883624538657 #
straight-curve $-1 -64.261237163416794 -28.234224087902433 -13.240883624538657 0 1 0 I I #
point $-1 -64.261237163416794 -25.45079775976178 -13.240883624538657 #
point $-1 -64.261237163416794 -25.45079775976178 13.240883624538657 #
straight-curve $-1 -14.831602611449652 34.751658728304101 68.446135111083819 0 0 -1 I I #
point $-1 -14.831602611449652 34.751658728304101 13.240883624538657 #
straight-curve $-1 -10.225799282678281 34.751658728304101 9.1098140167867889 -1 0 0 I I #
point $-1 -14.831602611449652 34.751658728304108 9.1098140167867854 #
point $-1 -22.860168259888098 28.968444339207789 7.3551320368622051 #
point $-1 -18.043028870825033 28.968444339207789 7.3551320368622051 #
straight-curve $-1 -11.637831794235929 -34.751658728304101 47.100996062137362 0 0 -1 I I #
point $-1 -11.637831794235929 -34.751658728304101 13.240883624538657 #
straight-curve $-1 -0.023826300363985808 -34.751658728304101 9.5517406333552142 1 0 0 I I #
point $-1 -11.637831794235929 -34.751658728304101 9.5517406333552142 #
point $-1 -5.0148722550885267 -31.10589947454687 9.7518233771569651 #
point $-1 4.9195670536325835 -31.10589947454687 9.7518233771569651 #
straight-curve $-1 -64.261237163416794 -28.234224087902433 13.240883624538657 0 -1 0 I I #
End-of-ACIS-data 