500 0 21 0           
7 Unknown 11 ACIS 5.0 NT 24 Fri Mar 26 16:32:49 1999 
-1 9.9999999999999995e-007 1e-010 
body $-1 $21 $-1 $22 #
body $-1 $23 $-1 $24 #
body $-1 $25 $-1 $26 #
body $-1 $27 $-1 $28 #
body $-1 $29 $-1 $30 #
body $-1 $31 $-1 $32 #
body $-1 $33 $-1 $34 #
body $-1 $35 $-1 $36 #
body $-1 $37 $-1 $38 #
body $-1 $39 $-1 $40 #
body $-1 $41 $-1 $42 #
body $-1 $43 $-1 $44 #
body $-1 $45 $-1 $46 #
body $-1 $47 $-1 $48 #
body $-1 $49 $-1 $50 #
body $-1 $51 $-1 $52 #
body $-1 $53 $-1 $54 #
body $-1 $55 $-1 $56 #
body $-1 $57 $-1 $58 #
body $-1 $59 $-1 $60 #
body $-1 $61 $-1 $62 #
lump $-1 $-1 $63 $0 #
transform $-1 1 0 0 0 1 0 0 0 1 53.203527939695427 32.03090415271339 6.7657183697549339 1 rotate no_reflect no_shear #
lump $-1 $-1 $64 $1 #
transform $-1 1 0 0 0 1 0 0 0 1 53.203527939695427 32.03090415271339 6.7657183697549339 1 rotate no_reflect no_shear #
lump $-1 $-1 $65 $2 #
transform $-1 1 0 0 0 1 0 0 0 1 53.203527939695427 32.03090415271339 6.7657183697549339 1 rotate no_reflect no_shear #
lump $-1 $-1 $66 $3 #
transform $-1 1 0 0 0 1 0 0 0 1 53.203527939695427 32.03090415271339 6.7657183697549339 1 rotate no_reflect no_shear #
lump $-1 $-1 $67 $4 #
transform $-1 1 0 0 0 1 0 0 0 1 53.203527939695427 32.03090415271339 6.7657183697549339 1 rotate no_reflect no_shear #
lump $-1 $-1 $68 $5 #
transform $-1 1 0 0 0 1 0 0 0 1 53.203527939695427 32.03090415271339 6.7657183697549339 1 rotate no_reflect no_shear #
lump $-1 $-1 $69 $6 #
transform $-1 1 0 0 0 1 0 0 0 1 53.203527939695427 32.03090415271339 6.7657183697549339 1 rotate no_reflect no_shear #
lump $-1 $-1 $70 $7 #
transform $-1 1 0 0 0 1 0 0 0 1 53.203527939695427 32.03090415271339 6.7657183697549339 1 rotate no_reflect no_shear #
lump $-1 $-1 $71 $8 #
transform $-1 1 0 0 0 1 0 0 0 1 53.203527939695427 32.03090415271339 6.7657183697549339 1 rotate no_reflect no_shear #
lump $-1 $-1 $72 $9 #
transform $-1 1 0 0 0 1 0 0 0 1 53.203527939695427 32.03090415271339 6.7657183697549339 1 rotate no_reflect no_shear #
lump $-1 $-1 $73 $10 #
transform $-1 1 0 0 0 1 0 0 0 1 53.203527939695427 32.03090415271339 6.7657183697549339 1 rotate no_reflect no_shear #
lump $-1 $-1 $74 $11 #
transform $-1 1 0 0 0 1 0 0 0 1 53.203527939695427 32.03090415271339 6.7657183697549339 1 rotate no_reflect no_shear #
lump $-1 $-1 $75 $12 #
transform $-1 1 0 0 0 1 0 0 0 1 53.203527939695427 32.03090415271339 6.7657183697549339 1 rotate no_reflect no_shear #
lump $-1 $-1 $76 $13 #
transform $-1 1 0 0 0 1 0 0 0 1 53.203527939695427 32.03090415271339 6.7657183697549339 1 rotate no_reflect no_shear #
lump $-1 $-1 $77 $14 #
transform $-1 1 0 0 0 1 0 0 0 1 53.203527939695427 32.03090415271339 6.7657183697549339 1 rotate no_reflect no_shear #
lump $-1 $-1 $78 $15 #
transform $-1 1 0 0 0 1 0 0 0 1 53.203527939695427 32.03090415271339 6.7657183697549339 1 rotate no_reflect no_shear #
lump $-1 $-1 $79 $16 #
transform $-1 1 0 0 0 1 0 0 0 1 53.203527939695427 32.03090415271339 6.7657183697549339 1 rotate no_reflect no_shear #
lump $-1 $-1 $80 $17 #
transform $-1 1 0 0 0 1 0 0 0 1 53.203527939695427 32.03090415271339 6.7657183697549339 1 rotate no_reflect no_shear #
lump $-1 $-1 $81 $18 #
transform $-1 1 0 0 0 1 0 0 0 1 53.203527939695427 32.03090415271339 6.7657183697549339 1 rotate no_reflect no_shear #
lump $-1 $-1 $82 $19 #
transform $-1 1 0 0 0 1 0 0 0 1 53.203527939695427 32.03090415271339 6.7657183697549339 1 rotate no_reflect no_shear #
lump $-1 $-1 $83 $20 #
transform $-1 1 0 0 0 1 0 0 0 1 53.203527939695427 32.03090415271339 6.7657183697549339 1 rotate no_reflect no_shear #
shell $-1 $-1 $-1 $84 $-1 $21 #
shell $-1 $-1 $-1 $85 $-1 $23 #
shell $-1 $-1 $-1 $86 $-1 $25 #
shell $-1 $-1 $-1 $87 $-1 $27 #
shell $-1 $-1 $-1 $88 $-1 $29 #
shell $-1 $-1 $-1 $89 $-1 $31 #
shell $-1 $-1 $-1 $90 $-1 $33 #
shell $-1 $-1 $-1 $91 $-1 $35 #
shell $-1 $-1 $-1 $92 $-1 $37 #
shell $-1 $-1 $-1 $93 $-1 $39 #
shell $-1 $-1 $-1 $94 $-1 $41 #
shell $-1 $-1 $-1 $95 $-1 $43 #
shell $-1 $-1 $-1 $96 $-1 $45 #
shell $-1 $-1 $-1 $97 $-1 $47 #
shell $-1 $-1 $-1 $98 $-1 $49 #
shell $-1 $-1 $-1 $99 $-1 $51 #
shell $-1 $-1 $-1 $100 $-1 $53 #
shell $-1 $-1 $-1 $101 $-1 $55 #
shell $-1 $-1 $-1 $102 $-1 $57 #
shell $-1 $-1 $-1 $103 $-1 $59 #
shell $-1 $-1 $-1 $104 $-1 $61 #
face $-1 $105 $106 $63 $-1 $107 forward single #
face $-1 $108 $109 $64 $-1 $110 reversed single #
face $-1 $111 $112 $65 $-1 $113 reversed single #
face $-1 $114 $115 $66 $-1 $116 forward single #
face $-1 $117 $118 $67 $-1 $119 forward single #
face $-1 $120 $121 $68 $-1 $122 forward single #
face $-1 $123 $124 $69 $-1 $125 reversed single #
face $-1 $126 $127 $70 $-1 $128 forward single #
face $-1 $129 $130 $71 $-1 $131 forward single #
face $-1 $132 $133 $72 $-1 $134 forward single #
face $-1 $135 $136 $73 $-1 $137 reversed single #
face $-1 $138 $139 $74 $-1 $140 forward single #
face $-1 $141 $142 $75 $-1 $143 forward single #
face $-1 $144 $145 $76 $-1 $146 forward single #
face $-1 $147 $148 $77 $-1 $149 reversed single #
face $-1 $150 $151 $78 $-1 $152 forward single #
face $-1 $153 $154 $79 $-1 $155 forward single #
face $-1 $156 $157 $80 $-1 $158 forward single #
face $-1 $159 $160 $81 $-1 $161 reversed single #
face $-1 $162 $163 $82 $-1 $164 forward single #
face $-1 $165 $166 $83 $-1 $167 forward single #
face $-1 $168 $169 $63 $-1 $170 reversed single #
loop $-1 $-1 $171 $84 #
plane-surface $-1 0 0 6.7657183697549339 0 0 1 1 0 0 forward_v I I I I #
face $-1 $172 $173 $64 $-1 $174 reversed single #
loop $-1 $-1 $175 $85 #
plane-surface $-1 -50.096013484589854 -22.65056764451154 0 0 1 0 0 0 1 forward_v I I I I #
face $-1 $176 $177 $65 $-1 $178 reversed single #
loop $-1 $-1 $179 $86 #
plane-surface $-1 -38.706535021568641 76.440422587108117 116.58386250392586 1 0 0 0 -0.78801076186113728 -0.61566146476048833 forward_v I I I I #
face $-1 $180 $181 $66 $-1 $182 forward single #
loop $-1 $183 $184 $87 #
cone-surface $-1 -35.353326474692778 28.861568861788889 3.0868943868930101 0 -0.78801076186113728 -0.61566146476048833 1 0 0 1 I I 0 1 1 forward I I I I #
face $-1 $185 $186 $67 $-1 $187 forward single #
loop $-1 $188 $189 $88 #
cone-surface $-1 -30.323513654378996 28.861568861788889 3.0868943868930101 0 -0.78801076186113728 -0.61566146476048833 1 0 0 1 I I 0 1 1 forward I I I I #
face $-1 $190 $191 $68 $-1 $192 forward single #
loop $-1 $193 $194 $89 #
cone-surface $-1 -25.293700834065209 28.861568861788889 3.0868943868930101 0 -0.78801076186113728 -0.61566146476048833 1 0 0 1 I I 0 1 1 forward I I I I #
face $-1 $195 $196 $69 $-1 $197 reversed single #
loop $-1 $-1 $198 $90 #
plane-surface $-1 -13.658528279273714 76.440422587108117 116.58386250392586 1 0 0 0 -0.78801076186113728 -0.61566146476048833 forward_v I I I I #
face $-1 $199 $200 $70 $-1 $201 forward single #
loop $-1 $202 $203 $91 #
cone-surface $-1 -10.305319732397855 28.861568861788889 3.0868943868930101 0 -0.78801076186113728 -0.61566146476048833 1 0 0 1 I I 0 1 1 forward I I I I #
face $-1 $204 $205 $71 $-1 $206 forward single #
loop $-1 $207 $208 $92 #
cone-surface $-1 -5.2755069120840687 28.861568861788889 3.0868943868930101 0 -0.78801076186113728 -0.61566146476048833 1 0 0 1 I I 0 1 1 forward I I I I #
face $-1 $209 $210 $72 $-1 $211 forward single #
loop $-1 $212 $213 $93 #
cone-surface $-1 -0.24569409177028234 28.861568861788889 3.0868943868930101 0 -0.78801076186113728 -0.61566146476048833 1 0 0 1 I I 0 1 1 forward I I I I #
face $-1 $214 $215 $73 $-1 $216 reversed single #
loop $-1 $-1 $217 $94 #
plane-surface $-1 11.389478463021209 76.440422587108117 116.58386250392586 1 0 0 0 -0.78801076186113728 -0.61566146476048833 forward_v I I I I #
face $-1 $218 $219 $74 $-1 $220 forward single #
loop $-1 $221 $222 $95 #
cone-surface $-1 14.742687009897075 28.861568861788889 3.0868943868930101 0 -0.78801076186113728 -0.61566146476048833 1 0 0 1 I I 0 1 1 forward I I I I #
face $-1 $223 $224 $75 $-1 $225 forward single #
loop $-1 $226 $227 $96 #
cone-surface $-1 19.772499830210855 28.861568861788889 3.0868943868930101 0 -0.78801076186113728 -0.61566146476048833 1 0 0 1 I I 0 1 1 forward I I I I #
face $-1 $228 $229 $76 $-1 $230 forward single #
loop $-1 $231 $232 $97 #
cone-surface $-1 24.802312650524648 28.861568861788889 3.0868943868930101 0 -0.78801076186113728 -0.61566146476048833 1 0 0 1 I I 0 1 1 forward I I I I #
face $-1 $233 $234 $77 $-1 $235 reversed single #
loop $-1 $-1 $236 $98 #
plane-surface $-1 36.437485205316136 76.440422587108117 116.58386250392586 1 0 0 0 -0.78801076186113728 -0.61566146476048833 forward_v I I I I #
face $-1 $237 $238 $78 $-1 $239 forward single #
loop $-1 $240 $241 $99 #
cone-surface $-1 39.790693752192006 28.861568861788889 3.0868943868930101 0 -0.78801076186113728 -0.61566146476048833 1 0 0 1 I I 0 1 1 forward I I I I #
face $-1 $242 $243 $79 $-1 $244 forward single #
loop $-1 $245 $246 $100 #
cone-surface $-1 44.820506572505785 28.861568861788889 3.0868943868930101 0 -0.78801076186113728 -0.61566146476048833 1 0 0 1 I I 0 1 1 forward I I I I #
face $-1 $247 $248 $80 $-1 $249 forward single #
loop $-1 $250 $251 $101 #
cone-surface $-1 49.850319392819578 28.861568861788889 3.0868943868930101 0 -0.78801076186113728 -0.61566146476048833 1 0 0 1 I I 0 1 1 forward I I I I #
face $-1 $252 $253 $81 $-1 $254 reversed single #
loop $-1 $-1 $255 $102 #
plane-surface $-1 38.856287748544666 -32.030904152713404 1.0405229077963014 0 -0.83867057594974714 0.54463902268945019 1 0 0 forward_v I I I I #
face $-1 $256 $257 $82 $-1 $258 forward single #
loop $-1 $259 $260 $103 #
cone-surface $-1 32.707470523765771 -27.996767272458996 2.4905655002223988 0 0.83867057594974714 -0.54463902268945019 1.5 0 0 1 I I 0 1 1.5 forward I I I I #
face $-1 $261 $262 $83 $-1 $263 forward single #
loop $-1 $264 $265 $104 #
cone-surface $-1 45.005104973323562 -27.996767272458996 2.4905655002223988 0 0.83867057594974714 -0.54463902268945019 1.5 0 0 1 I I 0 1 1.5 forward I I I I #
face $-1 $266 $267 $63 $-1 $268 reversed single #
loop $-1 $-1 $269 $105 #
plane-surface $-1 0 0 -6.7657183697549339 0 0 1 1 0 0 forward_v I I I I #
coedge $-1 $270 $271 $272 $273 forward $106 $-1 #
face $-1 $274 $275 $64 $-1 $276 reversed single #
loop $-1 $-1 $277 $108 #
plane-surface $-1 -50.096013484589854 -19.382779563105991 0 0 -1 0 0 0 -1 forward_v I I I I #
coedge $-1 $278 $279 $280 $281 reversed $109 $-1 #
face $-1 $282 $283 $65 $-1 $284 reversed single #
loop $-1 $-1 $285 $111 #
plane-surface $-1 -30.323513654378996 -7.4094825838112826 51.073138620368951 0 0.78801076186113728 0.61566146476048833 1 0 0 forward_v I I I I #
coedge $-1 $286 $287 $288 $289 reversed $112 $-1 #
face $-1 $-1 $290 $66 $-1 $291 forward single #
loop $-1 $292 $293 $114 #
cone-surface $-1 -35.353326474692778 27.710046741826247 2.1872267308245856 0 -0.78801076186113728 -0.61566146476048833 0.5 0 0 1 I I -0.70710678118654746 0.70710678118654746 0.5 forward I I I I #
loop $-1 $-1 $294 $87 #
coedge $-1 $184 $184 $295 $296 reversed $115 $-1 #
face $-1 $-1 $297 $67 $-1 $298 forward single #
loop $-1 $299 $300 $117 #
cone-surface $-1 -30.323513654378996 27.710046741826247 2.1872267308245856 0 -0.78801076186113728 -0.61566146476048833 0.5 0 0 1 I I -0.70710678118654746 0.70710678118654746 0.5 forward I I I I #
loop $-1 $-1 $301 $88 #
coedge $-1 $189 $189 $302 $303 reversed $118 $-1 #
face $-1 $-1 $304 $68 $-1 $305 forward single #
loop $-1 $306 $307 $120 #
cone-surface $-1 -25.293700834065209 27.710046741826247 2.1872267308245856 0 -0.78801076186113728 -0.61566146476048833 0.5 0 0 1 I I -0.70710678118654746 0.70710678118654746 0.5 forward I I I I #
loop $-1 $-1 $308 $89 #
coedge $-1 $194 $194 $309 $310 reversed $121 $-1 #
face $-1 $311 $312 $69 $-1 $313 reversed single #
loop $-1 $-1 $314 $123 #
plane-surface $-1 -5.2755069120840687 -7.4094825838112826 51.073138620368951 0 0.78801076186113728 0.61566146476048833 1 0 0 forward_v I I I I #
coedge $-1 $315 $316 $317 $318 reversed $124 $-1 #
face $-1 $-1 $319 $70 $-1 $320 forward single #
loop $-1 $321 $322 $126 #
cone-surface $-1 -10.305319732397855 27.710046741826247 2.1872267308245856 0 -0.78801076186113728 -0.61566146476048833 0.5 0 0 1 I I -0.70710678118654746 0.70710678118654746 0.5 forward I I I I #
loop $-1 $-1 $323 $91 #
coedge $-1 $203 $203 $324 $325 reversed $127 $-1 #
face $-1 $-1 $326 $71 $-1 $327 forward single #
loop $-1 $328 $329 $129 #
cone-surface $-1 -5.2755069120840687 27.710046741826247 2.1872267308245856 0 -0.78801076186113728 -0.61566146476048833 0.5 0 0 1 I I -0.70710678118654746 0.70710678118654746 0.5 forward I I I I #
loop $-1 $-1 $330 $92 #
coedge $-1 $208 $208 $331 $332 reversed $130 $-1 #
face $-1 $-1 $333 $72 $-1 $334 forward single #
loop $-1 $335 $336 $132 #
cone-surface $-1 -0.24569409177028234 27.710046741826247 2.1872267308245856 0 -0.78801076186113728 -0.61566146476048833 0.5 0 0 1 I I -0.70710678118654746 0.70710678118654746 0.5 forward I I I I #
loop $-1 $-1 $337 $93 #
coedge $-1 $213 $213 $338 $339 reversed $133 $-1 #
face $-1 $340 $341 $73 $-1 $342 reversed single #
loop $-1 $-1 $343 $135 #
plane-surface $-1 19.772499830210855 -7.4094825838112826 51.073138620368951 0 0.78801076186113728 0.61566146476048833 1 0 0 forward_v I I I I #
coedge $-1 $344 $345 $346 $347 reversed $136 $-1 #
face $-1 $-1 $348 $74 $-1 $349 forward single #
loop $-1 $350 $351 $138 #
cone-surface $-1 14.742687009897075 27.710046741826247 2.1872267308245856 0 -0.78801076186113728 -0.61566146476048833 0.5 0 0 1 I I -0.70710678118654746 0.70710678118654746 0.5 forward I I I I #
loop $-1 $-1 $352 $95 #
coedge $-1 $222 $222 $353 $354 reversed $139 $-1 #
face $-1 $-1 $355 $75 $-1 $356 forward single #
loop $-1 $357 $358 $141 #
cone-surface $-1 19.772499830210855 27.710046741826247 2.1872267308245856 0 -0.78801076186113728 -0.61566146476048833 0.5 0 0 1 I I -0.70710678118654746 0.70710678118654746 0.5 forward I I I I #
loop $-1 $-1 $359 $96 #
coedge $-1 $227 $227 $360 $361 reversed $142 $-1 #
face $-1 $-1 $362 $76 $-1 $363 forward single #
loop $-1 $364 $365 $144 #
cone-surface $-1 24.802312650524648 27.710046741826247 2.1872267308245856 0 -0.78801076186113728 -0.61566146476048833 0.5 0 0 1 I I -0.70710678118654746 0.70710678118654746 0.5 forward I I I I #
loop $-1 $-1 $366 $97 #
coedge $-1 $232 $232 $367 $368 reversed $145 $-1 #
face $-1 $369 $370 $77 $-1 $371 forward single #
loop $-1 $-1 $372 $147 #
plane-surface $-1 44.820506572505785 -7.4094825838112826 51.073138620368951 0 0.78801076186113728 0.61566146476048833 1 0 0 forward_v I I I I #
coedge $-1 $373 $374 $375 $376 reversed $148 $-1 #
face $-1 $-1 $377 $78 $-1 $378 forward single #
loop $-1 $379 $380 $150 #
cone-surface $-1 39.790693752192006 27.710046741826247 2.1872267308245856 0 -0.78801076186113728 -0.61566146476048833 0.5 0 0 1 I I -0.70710678118654746 0.70710678118654746 0.5 forward I I I I #
loop $-1 $-1 $381 $99 #
coedge $-1 $241 $241 $382 $383 reversed $151 $-1 #
face $-1 $-1 $384 $79 $-1 $385 forward single #
loop $-1 $386 $387 $153 #
cone-surface $-1 44.820506572505785 27.710046741826247 2.1872267308245856 0 -0.78801076186113728 -0.61566146476048833 0.5 0 0 1 I I -0.70710678118654746 0.70710678118654746 0.5 forward I I I I #
loop $-1 $-1 $388 $100 #
coedge $-1 $246 $246 $389 $390 reversed $154 $-1 #
face $-1 $-1 $391 $80 $-1 $392 forward single #
loop $-1 $393 $394 $156 #
cone-surface $-1 49.850319392819578 27.710046741826247 2.1872267308245856 0 -0.78801076186113728 -0.61566146476048833 0.5 0 0 1 I I -0.70710678118654746 0.70710678118654746 0.5 forward I I I I #
loop $-1 $-1 $395 $101 #
coedge $-1 $251 $251 $396 $397 reversed $157 $-1 #
face $-1 $398 $399 $81 $-1 $400 forward single #
loop $-1 $-1 $401 $159 #
plane-surface $-1 24.50904755739392 -121.27137099219905 58.99395782920945 1 0 0 0 0.83867057594974714 -0.54463902268945019 forward_v I I I I #
coedge $-1 $402 $403 $404 $405 reversed $160 $-1 #
face $-1 $-1 $406 $82 $-1 $407 forward single #
loop $-1 $408 $409 $162 #
cone-surface $-1 32.707470523765771 -25.192620103197534 0.66953109465209515 0 0.83867057594974714 -0.54463902268945019 0.75 0 0 1 I I -0.70710678118654757 0.70710678118654757 0.75 forward I I I I #
loop $-1 $-1 $410 $103 #
coedge $-1 $260 $260 $411 $412 reversed $163 $-1 #
face $-1 $-1 $413 $83 $-1 $414 forward single #
loop $-1 $415 $416 $165 #
cone-surface $-1 45.005104973323562 -25.192620103197534 0.66953109465209515 0 0.83867057594974714 -0.54463902268945019 0.75 0 0 1 I I -0.70710678118654757 0.70710678118654757 0.75 forward I I I I #
loop $-1 $-1 $417 $104 #
coedge $-1 $265 $265 $418 $419 reversed $166 $-1 #
face $-1 $420 $421 $63 $-1 $422 reversed single #
loop $-1 $-1 $423 $168 #
plane-surface $-1 0 -32.03090415271339 0 0 1 0 0 0 1 forward_v I I I I #
coedge $-1 $424 $425 $426 $427 forward $169 $-1 #
coedge $-1 $428 $171 $429 $430 forward $106 $-1 #
coedge $-1 $171 $428 $431 $432 forward $106 $-1 #
coedge $-1 $433 $434 $171 $273 reversed $435 $-1 #
edge $-1 $436 -32.03090415271339 $437 32.03090415271339 $272 $438 forward 7 unknown #
face $-1 $439 $440 $64 $-1 $441 reversed single #
loop $-1 $-1 $442 $172 #
plane-surface $-1 -46.988499029484281 -21.016673603808766 0 -1 0 0 0 0 1 forward_v I I I I #
coedge $-1 $443 $444 $445 $446 forward $173 $-1 #
coedge $-1 $447 $175 $448 $449 reversed $109 $-1 #
coedge $-1 $175 $447 $450 $451 reversed $109 $-1 #
coedge $-1 $452 $453 $175 $281 forward $454 $-1 #
edge $-1 $455 -6.7657183697549339 $456 6.7657183697549339 $280 $457 forward 7 unknown #
face $-1 $458 $459 $65 $-1 $460 reversed single #
loop $-1 $-1 $461 $176 #
plane-surface $-1 -21.94049228718935 76.440422587108117 116.58386250392586 -1 0 0 0 0.78801076186113728 0.61566146476048833 forward_v I I I I #
coedge $-1 $462 $463 $464 $465 reversed $177 $-1 #
coedge $-1 $287 $179 $466 $467 reversed $112 $-1 #
coedge $-1 $179 $286 $462 $468 reversed $112 $-1 #
coedge $-1 $464 $469 $179 $289 forward $470 $-1 #
edge $-1 $471 6.1893071408406684 $472 11.012944244625523 $288 $473 forward 7 unknown #
loop $-1 $-1 $295 $180 #
plane-surface $-1 -30.323513654378996 -7.4094825838112826 51.073138620368951 0 0.78801076186113728 0.61566146476048833 1 0 0 forward_v I I I I #
loop $-1 $-1 $474 $114 #
coedge $-1 $293 $293 $294 $475 reversed $181 $-1 #
coedge $-1 $294 $294 $293 $475 forward $183 $-1 #
coedge $-1 $295 $295 $184 $296 forward $290 $-1 #
edge $-1 $476 6.9989415317651662e-016 $476 6.2831853071796013 $295 $477 forward 7 unknown #
loop $-1 $-1 $302 $185 #
plane-surface $-1 -30.323513654378996 -7.4094825838112826 51.073138620368951 0 0.78801076186113728 0.61566146476048833 1 0 0 forward_v I I I I #
loop $-1 $-1 $478 $117 #
coedge $-1 $300 $300 $301 $479 reversed $186 $-1 #
coedge $-1 $301 $301 $300 $479 forward $188 $-1 #
coedge $-1 $302 $302 $189 $303 forward $297 $-1 #
edge $-1 $480 6.9989415317651662e-016 $480 6.2831853071796013 $302 $481 forward 7 unknown #
loop $-1 $-1 $309 $190 #
plane-surface $-1 -30.323513654378996 -7.4094825838112826 51.073138620368951 0 0.78801076186113728 0.61566146476048833 1 0 0 forward_v I I I I #
loop $-1 $-1 $482 $120 #
coedge $-1 $307 $307 $308 $483 reversed $191 $-1 #
coedge $-1 $308 $308 $307 $483 forward $193 $-1 #
coedge $-1 $309 $309 $194 $310 forward $304 $-1 #
edge $-1 $484 6.9989415317651662e-016 $484 6.2831853071796013 $309 $485 forward 7 unknown #
face $-1 $486 $487 $69 $-1 $488 forward single #
loop $-1 $-1 $489 $195 #
plane-surface $-1 3.1075144551055764 76.440422587108117 116.58386250392586 -1 0 0 0 0.78801076186113728 0.61566146476048833 forward_v I I I I #
coedge $-1 $490 $491 $492 $493 reversed $196 $-1 #
coedge $-1 $316 $198 $494 $495 reversed $124 $-1 #
coedge $-1 $198 $315 $490 $496 reversed $124 $-1 #
coedge $-1 $492 $497 $198 $318 forward $487 $-1 #
edge $-1 $498 6.1893071408406684 $499 11.012944244625523 $317 $500 forward 7 unknown #
loop $-1 $-1 $324 $199 #
plane-surface $-1 -5.2755069120840687 -7.4094825838112826 51.073138620368951 0 0.78801076186113728 0.61566146476048833 1 0 0 forward_v I I I I #
loop $-1 $-1 $501 $126 #
coedge $-1 $322 $322 $323 $502 reversed $200 $-1 #
coedge $-1 $323 $323 $322 $502 forward $202 $-1 #
coedge $-1 $324 $324 $203 $325 forward $319 $-1 #
edge $-1 $503 6.9989415317651662e-016 $503 6.2831853071796013 $324 $504 forward 7 unknown #
loop $-1 $-1 $331 $204 #
plane-surface $-1 -5.2755069120840687 -7.4094825838112826 51.073138620368951 0 0.78801076186113728 0.61566146476048833 1 0 0 forward_v I I I I #
loop $-1 $-1 $505 $129 #
coedge $-1 $329 $329 $330 $506 reversed $205 $-1 #
coedge $-1 $330 $330 $329 $506 forward $207 $-1 #
coedge $-1 $331 $331 $208 $332 forward $326 $-1 #
edge $-1 $507 6.9989415317651662e-016 $507 6.2831853071796013 $331 $508 forward 7 unknown #
loop $-1 $-1 $338 $209 #
plane-surface $-1 -5.2755069120840687 -7.4094825838112826 51.073138620368951 0 0.78801076186113728 0.61566146476048833 1 0 0 forward_v I I I I #
loop $-1 $-1 $509 $132 #
coedge $-1 $336 $336 $337 $510 reversed $210 $-1 #
coedge $-1 $337 $337 $336 $510 forward $212 $-1 #
coedge $-1 $338 $338 $213 $339 forward $333 $-1 #
edge $-1 $511 6.9989415317651662e-016 $511 6.2831853071796013 $338 $512 forward 7 unknown #
face $-1 $513 $514 $73 $-1 $515 forward single #
loop $-1 $-1 $516 $214 #
plane-surface $-1 28.1555211974005 76.440422587108117 116.58386250392586 -1 0 0 0 0.78801076186113728 0.61566146476048833 forward_v I I I I #
coedge $-1 $517 $518 $519 $520 reversed $215 $-1 #
coedge $-1 $345 $217 $521 $522 reversed $136 $-1 #
coedge $-1 $217 $344 $517 $523 reversed $136 $-1 #
coedge $-1 $519 $524 $217 $347 forward $514 $-1 #
edge $-1 $525 6.1893071408406684 $526 11.012944244625523 $346 $527 forward 7 unknown #
loop $-1 $-1 $353 $218 #
plane-surface $-1 19.772499830210855 -7.4094825838112826 51.073138620368951 0 0.78801076186113728 0.61566146476048833 1 0 0 forward_v I I I I #
loop $-1 $-1 $528 $138 #
coedge $-1 $351 $351 $352 $529 reversed $219 $-1 #
coedge $-1 $352 $352 $351 $529 forward $221 $-1 #
coedge $-1 $353 $353 $222 $354 forward $348 $-1 #
edge $-1 $530 6.9989415317651662e-016 $530 6.2831853071796013 $353 $531 forward 7 unknown #
loop $-1 $-1 $360 $223 #
plane-surface $-1 19.772499830210855 -7.4094825838112826 51.073138620368951 0 0.78801076186113728 0.61566146476048833 1 0 0 forward_v I I I I #
loop $-1 $-1 $532 $141 #
coedge $-1 $358 $358 $359 $533 reversed $224 $-1 #
coedge $-1 $359 $359 $358 $533 forward $226 $-1 #
coedge $-1 $360 $360 $227 $361 forward $355 $-1 #
edge $-1 $534 6.9989415317651662e-016 $534 6.2831853071796013 $360 $535 forward 7 unknown #
loop $-1 $-1 $367 $228 #
plane-surface $-1 19.772499830210855 -7.4094825838112826 51.073138620368951 0 0.78801076186113728 0.61566146476048833 1 0 0 forward_v I I I I #
loop $-1 $-1 $536 $144 #
coedge $-1 $365 $365 $366 $537 reversed $229 $-1 #
coedge $-1 $366 $366 $365 $537 forward $231 $-1 #
coedge $-1 $367 $367 $232 $368 forward $362 $-1 #
edge $-1 $538 6.9989415317651662e-016 $538 6.2831853071796013 $367 $539 forward 7 unknown #
face $-1 $540 $541 $77 $-1 $542 reversed single #
loop $-1 $-1 $375 $233 #
plane-surface $-1 0 0 6.7657183697549339 0 0 1 1 0 0 forward_v I I I I #
coedge $-1 $543 $544 $545 $546 reversed $234 $-1 #
coedge $-1 $374 $236 $547 $548 reversed $148 $-1 #
coedge $-1 $236 $373 $543 $549 reversed $148 $-1 #
coedge $-1 $545 $550 $236 $376 forward $370 $-1 #
edge $-1 $551 6.1893071408406684 $552 11.012944244625523 $375 $553 forward 7 unknown #
loop $-1 $-1 $382 $237 #
plane-surface $-1 44.820506572505785 -7.4094825838112826 51.073138620368951 0 0.78801076186113728 0.61566146476048833 1 0 0 forward_v I I I I #
loop $-1 $-1 $554 $150 #
coedge $-1 $380 $380 $381 $555 reversed $238 $-1 #
coedge $-1 $381 $381 $380 $555 forward $240 $-1 #
coedge $-1 $382 $382 $241 $383 forward $377 $-1 #
edge $-1 $556 6.9989415317651662e-016 $556 6.2831853071796013 $382 $557 forward 7 unknown #
loop $-1 $-1 $389 $242 #
plane-surface $-1 44.820506572505785 -7.4094825838112826 51.073138620368951 0 0.78801076186113728 0.61566146476048833 1 0 0 forward_v I I I I #
loop $-1 $-1 $558 $153 #
coedge $-1 $387 $387 $388 $559 reversed $243 $-1 #
coedge $-1 $388 $388 $387 $559 forward $245 $-1 #
coedge $-1 $389 $389 $246 $390 forward $384 $-1 #
edge $-1 $560 6.9989415317651662e-016 $560 6.2831853071796013 $389 $561 forward 7 unknown #
loop $-1 $-1 $396 $247 #
plane-surface $-1 44.820506572505785 -7.4094825838112826 51.073138620368951 0 0.78801076186113728 0.61566146476048833 1 0 0 forward_v I I I I #
loop $-1 $-1 $562 $156 #
coedge $-1 $394 $394 $395 $563 reversed $248 $-1 #
coedge $-1 $395 $395 $394 $563 forward $250 $-1 #
coedge $-1 $396 $396 $251 $397 forward $391 $-1 #
edge $-1 $564 6.9989415317651662e-016 $564 6.2831853071796013 $396 $565 forward 7 unknown #
face $-1 $566 $567 $81 $-1 $568 reversed single #
loop $-1 $-1 $404 $252 #
plane-surface $-1 0 0 6.7657183697549339 0 0 1 1 0 0 forward_v I I I I #
coedge $-1 $569 $570 $571 $572 reversed $253 $-1 #
coedge $-1 $573 $255 $574 $575 reversed $160 $-1 #
coedge $-1 $255 $573 $569 $576 forward $160 $-1 #
coedge $-1 $571 $577 $255 $405 forward $399 $-1 #
edge $-1 $578 -33.775384065423083 $579 -5.080903683121587 $404 $580 forward 7 unknown #
loop $-1 $-1 $411 $256 #
plane-surface $-1 38.856287748544666 -32.030904152713404 1.0405229077963014 0 -0.83867057594974714 0.54463902268945019 1 0 0 forward_v I I I I #
loop $-1 $-1 $581 $162 #
coedge $-1 $409 $409 $410 $582 reversed $257 $-1 #
coedge $-1 $410 $410 $409 $582 forward $259 $-1 #
coedge $-1 $411 $411 $260 $412 forward $406 $-1 #
edge $-1 $583 -1.0960343668055766e-015 $583 6.2831853071795996 $411 $584 forward 7 unknown #
loop $-1 $-1 $418 $261 #
plane-surface $-1 38.856287748544666 -32.030904152713404 1.0405229077963014 0 -0.83867057594974714 0.54463902268945019 1 0 0 forward_v I I I I #
loop $-1 $-1 $585 $165 #
coedge $-1 $416 $416 $417 $586 reversed $262 $-1 #
coedge $-1 $417 $417 $416 $586 forward $264 $-1 #
coedge $-1 $418 $418 $265 $419 forward $413 $-1 #
edge $-1 $587 -1.0960343668055766e-015 $587 6.2831853071795996 $418 $588 forward 7 unknown #
face $-1 $589 $590 $63 $-1 $591 reversed single #
loop $-1 $-1 $592 $266 #
plane-surface $-1 -53.203527939695427 0 0 1 0 0 0 0 -1 forward_v I I I I #
coedge $-1 $593 $431 $594 $595 forward $267 $-1 #
coedge $-1 $596 $269 $593 $597 forward $169 $-1 #
coedge $-1 $269 $596 $598 $599 forward $169 $-1 #
coedge $-1 $434 $433 $269 $427 reversed $435 $-1 #
edge $-1 $600 -32.03090415271339 $601 32.03090415271339 $426 $602 forward 7 unknown #
coedge $-1 $271 $270 $603 $604 forward $106 $-1 #
coedge $-1 $605 $606 $270 $430 reversed $590 $-1 #
edge $-1 $437 -53.203527939695427 $607 53.203527939695427 $429 $608 forward 7 unknown #
coedge $-1 $423 $609 $271 $432 reversed $267 $-1 #
edge $-1 $610 -53.203527939695427 $436 53.203527939695427 $431 $611 forward 7 unknown #
coedge $-1 $426 $272 $609 $612 forward $435 $-1 #
coedge $-1 $272 $426 $605 $613 reversed $435 $-1 #
loop $-1 $-1 $433 $589 #
vertex $-1 $273 $614 #
vertex $-1 $273 $615 #
straight-curve $-1 53.203527939695427 0 6.7657183697549339 0 1 0 I I #
face $-1 $616 $617 $64 $-1 $618 forward single #
loop $-1 $-1 $619 $274 #
plane-surface $-1 0 0 -6.7657183697549339 0 0 1 1 0 0 forward_v I I I I #
coedge $-1 $620 $621 $447 $622 forward $275 $-1 #
coedge $-1 $623 $277 $619 $624 reversed $173 $-1 #
coedge $-1 $277 $623 $625 $626 reversed $173 $-1 #
coedge $-1 $621 $620 $277 $446 reversed $275 $-1 #
edge $-1 $627 -6.7657183697549339 $628 6.7657183697549339 $445 $629 forward 7 unknown #
coedge $-1 $279 $278 $442 $622 reversed $109 $-1 #
coedge $-1 $630 $631 $278 $449 forward $440 $-1 #
edge $-1 $632 21.940492287189354 $455 28.1555211974005 $448 $633 forward 7 unknown #
coedge $-1 $634 $635 $279 $451 forward $617 $-1 #
edge $-1 $456 -28.1555211974005 $636 -21.940492287189354 $450 $637 forward 7 unknown #
coedge $-1 $638 $280 $635 $639 reversed $454 $-1 #
coedge $-1 $280 $638 $630 $640 reversed $454 $-1 #
loop $-1 $-1 $638 $616 #
vertex $-1 $640 $641 #
vertex $-1 $281 $642 #
straight-curve $-1 -53.203527939695427 -22.65056764451154 0 0 0 1 I I #
face $-1 $-1 $470 $65 $-1 $643 forward single #
loop $-1 $-1 $644 $282 #
plane-surface $-1 0 32.03090415271339 0 0 -1 0 0 0 -1 forward_v I I I I #
coedge $-1 $645 $646 $647 $648 reversed $283 $-1 #
coedge $-1 $649 $285 $287 $468 forward $177 $-1 #
coedge $-1 $285 $649 $645 $650 forward $177 $-1 #
coedge $-1 $647 $288 $285 $465 forward $470 $-1 #
edge $-1 $472 -23.544778194379141 $651 -6.7787354599998526 $464 $652 forward 7 unknown #
coedge $-1 $653 $654 $286 $467 forward $459 $-1 #
edge $-1 $655 -57.700187000555481 $471 -51.526212882207993 $466 $656 forward 7 unknown #
edge $-1 $472 56.226922771927619 $655 64.061808305426808 $287 $657 forward 7 unknown #
coedge $-1 $288 $647 $653 $658 forward $470 $-1 #
loop $-1 $-1 $647 $458 #
vertex $-1 $467 $659 #
vertex $-1 $289 $660 #
straight-curve $-1 -38.706535021568641 38.220211293554058 6.7657183697549357 0 -1 0 I I #
coedge $-1 $474 $474 $-1 $661 reversed $292 $-1 #
edge $-1 $662 0 $662 6.2831853071796004 $293 $663 forward 7 unknown #
vertex $-1 $296 $664 #
ellipse-curve $-1 -35.353326474692778 29.619085600820963 3.6787313105811918 0 0.78801076186113728 0.61566146476048833 1 0 0 1 I I #
coedge $-1 $478 $478 $-1 $665 reversed $299 $-1 #
edge $-1 $666 0 $666 6.2831853071796004 $300 $667 forward 7 unknown #
vertex $-1 $303 $668 #
ellipse-curve $-1 -30.323513654378996 29.619085600820963 3.6787313105811918 0 0.78801076186113728 0.61566146476048833 1 0 0 1 I I #
coedge $-1 $482 $482 $-1 $669 reversed $306 $-1 #
edge $-1 $670 0 $670 6.2831853071796004 $307 $671 forward 7 unknown #
vertex $-1 $310 $672 #
ellipse-curve $-1 -25.293700834065209 29.619085600820963 3.6787313105811918 0 0.78801076186113728 0.61566146476048833 1 0 0 1 I I #
face $-1 $-1 $673 $69 $-1 $674 reversed single #
loop $-1 $-1 $317 $311 #
plane-surface $-1 0 0 6.7657183697549339 0 0 1 1 0 0 forward_v I I I I #
coedge $-1 $675 $676 $677 $678 reversed $312 $-1 #
coedge $-1 $679 $314 $316 $496 forward $196 $-1 #
coedge $-1 $314 $679 $675 $680 forward $196 $-1 #
coedge $-1 $677 $317 $314 $493 forward $487 $-1 #
edge $-1 $499 -11.02077482323168 $681 5.7452679111476108 $492 $682 forward 7 unknown #
coedge $-1 $683 $684 $315 $495 forward $673 $-1 #
edge $-1 $685 -57.700187000555481 $498 -51.526212882207993 $494 $686 forward 7 unknown #
edge $-1 $499 56.226922771927619 $685 64.061808305426808 $316 $687 forward 7 unknown #
coedge $-1 $317 $677 $683 $688 forward $487 $-1 #
vertex $-1 $495 $689 #
vertex $-1 $318 $690 #
straight-curve $-1 -13.658528279273714 38.220211293554058 6.7657183697549357 0 -1 0 I I #
coedge $-1 $501 $501 $-1 $691 reversed $321 $-1 #
edge $-1 $692 0 $692 6.2831853071796004 $322 $693 forward 7 unknown #
vertex $-1 $325 $694 #
ellipse-curve $-1 -10.305319732397855 29.619085600820963 3.6787313105811918 0 0.78801076186113728 0.61566146476048833 1 0 0 1 I I #
coedge $-1 $505 $505 $-1 $695 reversed $328 $-1 #
edge $-1 $696 0 $696 6.2831853071796004 $329 $697 forward 7 unknown #
vertex $-1 $332 $698 #
ellipse-curve $-1 -5.2755069120840687 29.619085600820963 3.6787313105811918 0 0.78801076186113728 0.61566146476048833 1 0 0 1 I I #
coedge $-1 $509 $509 $-1 $699 reversed $335 $-1 #
edge $-1 $700 0 $700 6.2831853071796004 $336 $701 forward 7 unknown #
vertex $-1 $339 $702 #
ellipse-curve $-1 -0.24569409177028234 29.619085600820963 3.6787313105811918 0 0.78801076186113728 0.61566146476048833 1 0 0 1 I I #
face $-1 $-1 $703 $73 $-1 $704 reversed single #
loop $-1 $-1 $346 $340 #
plane-surface $-1 0 0 6.7657183697549339 0 0 1 1 0 0 forward_v I I I I #
coedge $-1 $705 $706 $707 $708 reversed $341 $-1 #
coedge $-1 $709 $343 $345 $523 forward $215 $-1 #
coedge $-1 $343 $709 $705 $710 forward $215 $-1 #
coedge $-1 $707 $346 $343 $520 forward $514 $-1 #
edge $-1 $526 1.5032285479157821 $711 18.269271282295072 $519 $712 forward 7 unknown #
coedge $-1 $713 $714 $344 $522 forward $703 $-1 #
edge $-1 $715 -57.700187000555481 $525 -51.526212882207993 $521 $716 forward 7 unknown #
edge $-1 $526 56.226922771927619 $715 64.061808305426808 $345 $717 forward 7 unknown #
coedge $-1 $346 $707 $713 $718 forward $514 $-1 #
vertex $-1 $347 $719 #
vertex $-1 $347 $720 #
straight-curve $-1 11.389478463021209 38.220211293554058 6.7657183697549357 0 -1 0 I I #
coedge $-1 $528 $528 $-1 $721 reversed $350 $-1 #
edge $-1 $722 0 $722 6.2831853071796004 $351 $723 forward 7 unknown #
vertex $-1 $354 $724 #
ellipse-curve $-1 14.742687009897075 29.619085600820963 3.6787313105811918 0 0.78801076186113728 0.61566146476048833 1 0 0 1 I I #
coedge $-1 $532 $532 $-1 $725 reversed $357 $-1 #
edge $-1 $726 0 $726 6.2831853071796004 $358 $727 forward 7 unknown #
vertex $-1 $361 $728 #
ellipse-curve $-1 19.772499830210855 29.619085600820963 3.6787313105811918 0 0.78801076186113728 0.61566146476048833 1 0 0 1 I I #
coedge $-1 $536 $536 $-1 $729 reversed $364 $-1 #
edge $-1 $730 0 $730 6.2831853071796004 $365 $731 forward 7 unknown #
vertex $-1 $368 $732 #
ellipse-curve $-1 24.802312650524648 29.619085600820963 3.6787313105811918 0 0.78801076186113728 0.61566146476048833 1 0 0 1 I I #
face $-1 $-1 $733 $77 $-1 $734 reversed single #
loop $-1 $-1 $735 $369 #
plane-surface $-1 53.203527939695427 0 0 -1 0 0 0 0 1 forward_v I I I I #
coedge $-1 $736 $372 $374 $549 forward $234 $-1 #
coedge $-1 $372 $736 $735 $737 reversed $234 $-1 #
coedge $-1 $738 $375 $372 $546 forward $370 $-1 #
edge $-1 $552 14.027231919063244 $739 30.793274653442541 $545 $740 forward 7 unknown #
coedge $-1 $741 $742 $373 $548 forward $733 $-1 #
edge $-1 $743 -57.700187000555481 $551 -51.526212882207993 $547 $744 forward 7 unknown #
edge $-1 $552 56.226922771927619 $743 64.061808305426808 $374 $745 forward 7 unknown #
coedge $-1 $375 $738 $741 $746 forward $370 $-1 #
vertex $-1 $548 $747 #
vertex $-1 $376 $748 #
straight-curve $-1 36.437485205316136 38.220211293554058 6.7657183697549357 0 -1 0 I I #
coedge $-1 $554 $554 $-1 $749 reversed $379 $-1 #
edge $-1 $750 0 $750 6.2831853071796004 $380 $751 forward 7 unknown #
vertex $-1 $383 $752 #
ellipse-curve $-1 39.790693752192006 29.619085600820963 3.6787313105811918 0 0.78801076186113728 0.61566146476048833 1 0 0 1 I I #
coedge $-1 $558 $558 $-1 $753 reversed $386 $-1 #
edge $-1 $754 0 $754 6.2831853071796004 $387 $755 forward 7 unknown #
vertex $-1 $390 $756 #
ellipse-curve $-1 44.820506572505785 29.619085600820963 3.6787313105811918 0 0.78801076186113728 0.61566146476048833 1 0 0 1 I I #
coedge $-1 $562 $562 $-1 $757 reversed $393 $-1 #
edge $-1 $758 0 $758 6.2831853071796004 $394 $759 forward 7 unknown #
vertex $-1 $397 $760 #
ellipse-curve $-1 49.850319392819578 29.619085600820963 3.6787313105811918 0 0.78801076186113728 0.61566146476048833 1 0 0 1 I I #
face $-1 $-1 $761 $81 $-1 $762 reversed single #
loop $-1 $-1 $763 $398 #
plane-surface $-1 0 -32.03090415271339 0 0 1 0 0 0 1 forward_v I I I I #
coedge $-1 $570 $401 $403 $576 reversed $253 $-1 #
coedge $-1 $401 $569 $764 $765 reversed $253 $-1 #
coedge $-1 $766 $404 $401 $572 forward $399 $-1 #
edge $-1 $579 -32.322766629296595 $767 -28.604781343386136 $571 $768 forward 7 unknown #
coedge $-1 $403 $402 $763 $769 reversed $160 $-1 #
coedge $-1 $770 $771 $402 $575 forward $761 $-1 #
edge $-1 $772 -8.2863121936113995 $578 -1.4597993456136629 $574 $773 forward 7 unknown #
edge $-1 $774 2.617579141687138e-014 $579 6.8265128479977628 $569 $775 forward 7 unknown #
coedge $-1 $404 $766 $770 $776 forward $399 $-1 #
vertex $-1 $575 $777 #
vertex $-1 $405 $778 #
straight-curve $-1 19.428143874272333 -28.312918866802931 6.7657183697549339 -1 0 0 I I #
coedge $-1 $581 $581 $-1 $779 reversed $408 $-1 #
edge $-1 $780 0 $780 6.2831853071796004 $409 $781 forward 7 unknown #
vertex $-1 $412 $782 #
ellipse-curve $-1 32.707470523765771 -30.171911509758161 3.903120638775623 0 -0.83867057594974714 0.54463902268945019 1.5 0 0 1 I I #
coedge $-1 $585 $585 $-1 $783 reversed $415 $-1 #
edge $-1 $784 0 $784 6.2831853071796004 $416 $785 forward 7 unknown #
vertex $-1 $419 $786 #
ellipse-curve $-1 45.005104973323562 -30.171911509758161 3.903120638775623 0 -0.83867057594974714 0.54463902268945019 1.5 0 0 1 I I #
face $-1 $-1 $435 $63 $-1 $787 reversed single #
loop $-1 $-1 $605 $420 #
plane-surface $-1 0 32.03090415271339 0 0 -1 0 0 0 -1 forward_v I I I I #
coedge $-1 $788 $603 $606 $789 forward $421 $-1 #
coedge $-1 $609 $423 $424 $597 reversed $267 $-1 #
coedge $-1 $603 $788 $423 $595 reversed $421 $-1 #
edge $-1 $610 -6.7657183697549339 $790 6.7657183697549339 $594 $791 forward 7 unknown #
coedge $-1 $425 $424 $788 $792 forward $169 $-1 #
edge $-1 $601 -53.203527939695427 $790 53.203527939695427 $593 $793 forward 7 unknown #
coedge $-1 $606 $605 $425 $599 reversed $590 $-1 #
edge $-1 $794 -53.203527939695427 $600 53.203527939695427 $598 $795 forward 7 unknown #
vertex $-1 $427 $796 #
vertex $-1 $612 $797 #
straight-curve $-1 53.203527939695427 0 -6.7657183697549339 0 -1 0 I I #
coedge $-1 $592 $594 $428 $604 reversed $421 $-1 #
edge $-1 $607 -32.03090415271339 $610 32.03090415271339 $603 $798 forward 7 unknown #
coedge $-1 $598 $429 $434 $613 forward $590 $-1 #
coedge $-1 $429 $598 $592 $789 reversed $590 $-1 #
vertex $-1 $430 $799 #
straight-curve $-1 0 32.03090415271339 6.7657183697549339 -1 0 0 I I #
coedge $-1 $431 $593 $433 $612 reversed $267 $-1 #
vertex $-1 $604 $800 #
straight-curve $-1 0 -32.03090415271339 6.7657183697549339 1 0 0 I I #
edge $-1 $436 -6.7657183697549339 $601 6.7657183697549339 $433 $801 forward 7 unknown #
edge $-1 $437 -6.7657183697549339 $600 6.7657183697549339 $434 $802 forward 7 unknown #
point $-1 53.203527939695427 -32.03090415271339 6.7657183697549339 #
point $-1 53.203527939695427 32.03090415271339 6.7657183697549339 #
face $-1 $-1 $454 $64 $-1 $803 reversed single #
loop $-1 $-1 $625 $439 #
plane-surface $-1 0 0 6.7657183697549339 0 0 1 1 0 0 forward_v I I I I #
coedge $-1 $631 $630 $443 $624 forward $440 $-1 #
coedge $-1 $445 $442 $631 $804 reversed $275 $-1 #
coedge $-1 $442 $445 $634 $805 reversed $275 $-1 #
edge $-1 $636 -6.7657183697549339 $632 6.7657183697549339 $442 $806 forward 7 unknown #
coedge $-1 $444 $443 $638 $807 reversed $173 $-1 #
edge $-1 $808 -28.1555211974005 $628 -21.940492287189354 $619 $809 forward 7 unknown #
coedge $-1 $635 $634 $444 $626 forward $617 $-1 #
edge $-1 $627 21.940492287189354 $810 28.1555211974005 $625 $811 forward 7 unknown #
vertex $-1 $626 $812 #
vertex $-1 $624 $813 #
straight-curve $-1 -46.988499029484281 -19.382779563105991 0 0 0 -1 I I #
coedge $-1 $619 $448 $453 $640 forward $440 $-1 #
coedge $-1 $448 $619 $620 $804 forward $440 $-1 #
vertex $-1 $449 $814 #
straight-curve $-1 -25.048006742294927 -22.65056764451154 -6.7657183697549339 -1 0 0 I I #
coedge $-1 $625 $450 $621 $805 forward $617 $-1 #
coedge $-1 $450 $625 $452 $639 forward $617 $-1 #
vertex $-1 $451 $815 #
straight-curve $-1 -25.048006742294927 -22.65056764451154 6.7657183697549339 1 0 0 I I #
coedge $-1 $453 $452 $623 $807 forward $454 $-1 #
edge $-1 $810 19.382779563105991 $456 22.65056764451154 $452 $816 forward 7 unknown #
edge $-1 $455 -22.65056764451154 $808 -19.382779563105991 $453 $817 forward 7 unknown #
point $-1 -53.203527939695427 -22.65056764451154 -6.7657183697549339 #
point $-1 -53.203527939695427 -22.65056764451154 6.7657183697549339 #
plane-surface $-1 0 0 6.7657183697549339 0 0 1 1 0 0 forward_v I I I I #
coedge $-1 $654 $653 $646 $818 forward $459 $-1 #
coedge $-1 $646 $461 $463 $650 reversed $283 $-1 #
coedge $-1 $461 $645 $644 $818 reversed $283 $-1 #
coedge $-1 $469 $464 $461 $648 forward $470 $-1 #
edge $-1 $651 -11.012944244625523 $819 -6.1893071408406684 $647 $820 forward 7 unknown #
coedge $-1 $463 $462 $654 $821 reversed $177 $-1 #
edge $-1 $822 -64.061808305426808 $651 -56.226922771927619 $645 $823 forward 7 unknown #
vertex $-1 $465 $824 #
straight-curve $-1 -15.161756827189498 27.207267048928532 6.7657183697549357 1 0 0 I I #
coedge $-1 $644 $466 $469 $658 reversed $459 $-1 #
coedge $-1 $466 $644 $649 $821 forward $459 $-1 #
vertex $-1 $467 $825 #
straight-curve $-1 -38.706535021568641 32.03090415271339 58.291931251962929 0 0 1 I I #
straight-curve $-1 -38.706535021568641 -7.4094825838112826 51.073138620368951 0 0.61566146476048833 -0.78801076186113728 I I #
edge $-1 $819 21.94049228718935 $471 38.706535021568641 $653 $826 forward 7 unknown #
point $-1 -38.706535021568641 32.03090415271339 6.7657183697549339 #
point $-1 -38.706535021568641 27.207267048928536 6.7657183697549357 #
edge $-1 $827 1 $827 0 $474 $-1 forward 7 unknown #
vertex $-1 $475 $828 #
ellipse-curve $-1 -35.353326474692778 28.104052122756816 2.4950574632048297 0 0.78801076186113728 0.61566146476048833 1 0 0 1 I I #
point $-1 -34.353326474692778 29.619085600820963 3.678731310581191 #
edge $-1 $829 1 $829 0 $478 $-1 forward 7 unknown #
vertex $-1 $479 $830 #
ellipse-curve $-1 -30.323513654378996 28.104052122756816 2.4950574632048297 0 0.78801076186113728 0.61566146476048833 1 0 0 1 I I #
point $-1 -29.323513654378996 29.619085600820963 3.678731310581191 #
edge $-1 $831 1 $831 0 $482 $-1 forward 7 unknown #
vertex $-1 $483 $832 #
ellipse-curve $-1 -25.293700834065209 28.104052122756816 2.4950574632048297 0 0.78801076186113728 0.61566146476048833 1 0 0 1 I I #
point $-1 -24.293700834065209 29.619085600820963 3.678731310581191 #
loop $-1 $-1 $494 $486 #
plane-surface $-1 0 32.03090415271339 0 0 -1 0 0 0 -1 forward_v I I I I #
coedge $-1 $676 $489 $491 $680 reversed $312 $-1 #
coedge $-1 $489 $675 $833 $834 reversed $312 $-1 #
coedge $-1 $497 $492 $489 $678 forward $487 $-1 #
edge $-1 $681 -11.012944244625523 $835 -6.1893071408406684 $677 $836 forward 7 unknown #
coedge $-1 $491 $490 $684 $837 reversed $196 $-1 #
edge $-1 $838 -64.061808305426808 $681 -56.226922771927619 $675 $839 forward 7 unknown #
vertex $-1 $493 $840 #
straight-curve $-1 -2.6377534560420344 27.207267048928532 6.7657183697549357 1 0 0 I I #
coedge $-1 $833 $494 $497 $688 reversed $673 $-1 #
coedge $-1 $494 $833 $679 $837 forward $673 $-1 #
vertex $-1 $495 $841 #
straight-curve $-1 -13.658528279273714 32.03090415271339 58.291931251962929 0 0 1 I I #
straight-curve $-1 -13.658528279273714 -7.4094825838112826 51.073138620368951 0 0.61566146476048833 -0.78801076186113728 I I #
edge $-1 $835 -3.1075144551055764 $498 13.658528279273714 $683 $842 forward 7 unknown #
point $-1 -13.658528279273714 32.03090415271339 6.7657183697549339 #
point $-1 -13.658528279273714 27.207267048928536 6.7657183697549357 #
edge $-1 $843 1 $843 0 $501 $-1 forward 7 unknown #
vertex $-1 $502 $844 #
ellipse-curve $-1 -10.305319732397855 28.104052122756816 2.4950574632048297 0 0.78801076186113728 0.61566146476048833 1 0 0 1 I I #
point $-1 -9.3053197323978551 29.619085600820963 3.678731310581191 #
edge $-1 $845 1 $845 0 $505 $-1 forward 7 unknown #
vertex $-1 $506 $846 #
ellipse-curve $-1 -5.2755069120840687 28.104052122756816 2.4950574632048297 0 0.78801076186113728 0.61566146476048833 1 0 0 1 I I #
point $-1 -4.2755069120840687 29.619085600820963 3.678731310581191 #
edge $-1 $847 1 $847 0 $509 $-1 forward 7 unknown #
vertex $-1 $510 $848 #
ellipse-curve $-1 -0.24569409177028234 28.104052122756816 2.4950574632048297 0 0.78801076186113728 0.61566146476048833 1 0 0 1 I I #
point $-1 0.75430590822971766 29.619085600820963 3.678731310581191 #
loop $-1 $-1 $521 $513 #
plane-surface $-1 0 32.03090415271339 0 0 -1 0 0 0 -1 forward_v I I I I #
coedge $-1 $706 $516 $518 $710 reversed $341 $-1 #
coedge $-1 $516 $705 $849 $850 reversed $341 $-1 #
coedge $-1 $524 $519 $516 $708 forward $514 $-1 #
edge $-1 $711 -11.012944244625523 $851 -6.1893071408406684 $707 $852 forward 7 unknown #
coedge $-1 $518 $517 $714 $853 reversed $215 $-1 #
edge $-1 $854 -64.061808305426808 $711 -56.226922771927619 $705 $855 forward 7 unknown #
vertex $-1 $520 $856 #
straight-curve $-1 9.8862499151054273 27.207267048928532 6.7657183697549357 1 0 0 I I #
coedge $-1 $849 $521 $524 $718 reversed $703 $-1 #
coedge $-1 $521 $849 $709 $853 forward $703 $-1 #
vertex $-1 $522 $857 #
straight-curve $-1 11.389478463021209 32.03090415271339 58.291931251962929 0 0 1 I I #
straight-curve $-1 11.389478463021209 -7.4094825838112826 51.073138620368951 0 0.61566146476048833 -0.78801076186113728 I I #
edge $-1 $851 -28.1555211974005 $525 -11.389478463021209 $713 $858 forward 7 unknown #
point $-1 11.389478463021209 32.03090415271339 6.7657183697549339 #
point $-1 11.389478463021209 27.207267048928536 6.7657183697549357 #
edge $-1 $859 1 $859 0 $528 $-1 forward 7 unknown #
vertex $-1 $529 $860 #
ellipse-curve $-1 14.742687009897075 28.104052122756816 2.4950574632048297 0 0.78801076186113728 0.61566146476048833 1 0 0 1 I I #
point $-1 15.742687009897075 29.619085600820963 3.678731310581191 #
edge $-1 $861 1 $861 0 $532 $-1 forward 7 unknown #
vertex $-1 $533 $862 #
ellipse-curve $-1 19.772499830210855 28.104052122756816 2.4950574632048297 0 0.78801076186113728 0.61566146476048833 1 0 0 1 I I #
point $-1 20.772499830210855 29.619085600820963 3.678731310581191 #
edge $-1 $863 1 $863 0 $536 $-1 forward 7 unknown #
vertex $-1 $537 $864 #
ellipse-curve $-1 24.802312650524648 28.104052122756816 2.4950574632048297 0 0.78801076186113728 0.61566146476048833 1 0 0 1 I I #
point $-1 25.802312650524648 29.619085600820963 3.678731310581191 #
loop $-1 $-1 $547 $540 #
plane-surface $-1 0 32.03090415271339 0 0 -1 0 0 0 -1 forward_v I I I I #
coedge $-1 $865 $866 $544 $737 forward $541 $-1 #
coedge $-1 $544 $543 $742 $867 reversed $234 $-1 #
edge $-1 $739 33.822964884156136 $868 41.657850417655304 $735 $869 forward 7 unknown #
coedge $-1 $550 $545 $866 $870 forward $370 $-1 #
vertex $-1 $870 $871 #
straight-curve $-1 22.410253286252892 27.207267048928532 6.7657183697549357 1 0 0 I I #
coedge $-1 $872 $547 $550 $746 reversed $733 $-1 #
coedge $-1 $547 $872 $736 $867 forward $733 $-1 #
vertex $-1 $548 $873 #
straight-curve $-1 36.437485205316136 32.03090415271339 58.291931251962929 0 0 1 I I #
straight-curve $-1 36.437485205316136 -7.4094825838112826 51.073138620368951 0 0.61566146476048833 -0.78801076186113728 I I #
edge $-1 $874 -53.203527939695427 $551 -36.437485205316136 $741 $875 forward 7 unknown #
point $-1 36.437485205316136 32.03090415271339 6.7657183697549339 #
point $-1 36.437485205316136 27.207267048928536 6.7657183697549357 #
edge $-1 $876 1 $876 0 $554 $-1 forward 7 unknown #
vertex $-1 $555 $877 #
ellipse-curve $-1 39.790693752192006 28.104052122756816 2.4950574632048297 0 0.78801076186113728 0.61566146476048833 1 0 0 1 I I #
point $-1 40.790693752192006 29.619085600820963 3.678731310581191 #
edge $-1 $878 1 $878 0 $558 $-1 forward 7 unknown #
vertex $-1 $559 $879 #
ellipse-curve $-1 44.820506572505785 28.104052122756816 2.4950574632048297 0 0.78801076186113728 0.61566146476048833 1 0 0 1 I I #
point $-1 45.820506572505785 29.619085600820963 3.678731310581191 #
edge $-1 $880 1 $880 0 $562 $-1 forward 7 unknown #
vertex $-1 $563 $881 #
ellipse-curve $-1 49.850319392819578 28.104052122756816 2.4950574632048297 0 0.78801076186113728 0.61566146476048833 1 0 0 1 I I #
point $-1 50.850319392819578 29.619085600820963 3.678731310581191 #
loop $-1 $-1 $574 $566 #
plane-surface $-1 53.203527939695427 0 0 -1 0 0 0 0 1 forward_v I I I I #
coedge $-1 $882 $764 $573 $769 forward $567 $-1 #
coedge $-1 $763 $883 $570 $765 forward $567 $-1 #
edge $-1 $767 22.731260544849789 $774 28.456456006808402 $764 $884 forward 7 unknown #
coedge $-1 $577 $571 $883 $885 forward $399 $-1 #
vertex $-1 $885 $886 #
straight-curve $-1 24.50904755739392 -60.635685496099526 6.7657183697549357 0 -1 0 I I #
edge $-1 $774 5.080903683121587 $772 33.775384065423083 $763 $887 forward 7 unknown #
coedge $-1 $771 $574 $577 $776 reversed $761 $-1 #
coedge $-1 $574 $770 $882 $888 forward $761 $-1 #
vertex $-1 $769 $889 #
straight-curve $-1 53.203527939695427 -27.517855177885203 7.9900091277118079 0 0.54463902268945019 0.83867057594974714 I I #
vertex $-1 $769 $890 #
straight-curve $-1 24.50904755739392 -32.030904152713404 1.0405229077963014 0 0.54463902268945019 0.83867057594974714 I I #
edge $-1 $891 -32.03090415271339 $578 -28.312918866802928 $770 $892 forward 7 unknown #
point $-1 53.203527939695412 -28.312918866802928 6.7657183697549339 #
point $-1 24.50904755739392 -28.312918866802928 6.7657183697549339 #
edge $-1 $893 1 $893 0 $581 $-1 forward 7 unknown #
vertex $-1 $582 $894 #
ellipse-curve $-1 32.707470523765771 -25.821623035159845 1.0780103616691827 0 -0.83867057594974714 0.54463902268945019 1.5 0 0 1 I I #
point $-1 34.207470523765771 -30.17191150975815 3.9031206387756141 #
edge $-1 $895 1 $895 0 $585 $-1 forward 7 unknown #
vertex $-1 $586 $896 #
ellipse-curve $-1 45.005104973323562 -25.821623035159845 1.0780103616691827 0 -0.83867057594974714 0.54463902268945019 1.5 0 0 1 I I #
point $-1 46.505104973323562 -30.17191150975815 3.9031206387756141 #
plane-surface $-1 53.203527939695427 0 0 -1 0 0 0 0 1 forward_v I I I I #
coedge $-1 $594 $592 $596 $792 reversed $421 $-1 #
edge $-1 $607 -6.7657183697549339 $794 6.7657183697549339 $606 $897 forward 7 unknown #
vertex $-1 $792 $898 #
straight-curve $-1 -53.203527939695427 -32.03090415271339 0 0 0 -1 I I #
edge $-1 $790 -32.03090415271339 $794 32.03090415271339 $788 $899 forward 7 unknown #
straight-curve $-1 0 -32.03090415271339 -6.7657183697549339 -1 0 0 I I #
vertex $-1 $599 $900 #
straight-curve $-1 0 32.03090415271339 -6.7657183697549339 1 0 0 I I #
point $-1 53.203527939695427 32.03090415271339 -6.7657183697549339 #
point $-1 53.203527939695427 -32.03090415271339 -6.7657183697549339 #
straight-curve $-1 -53.203527939695427 0 6.7657183697549339 0 -1 0 I I #
point $-1 -53.203527939695427 32.03090415271339 6.7657183697549339 #
point $-1 -53.203527939695427 -32.03090415271339 6.7657183697549339 #
straight-curve $-1 53.203527939695427 -32.03090415271339 0 0 0 -1 I I #
straight-curve $-1 53.203527939695427 32.03090415271339 0 0 0 -1 I I #
plane-surface $-1 -53.203527939695427 0 0 1 0 0 0 0 -1 forward_v I I I I #
edge $-1 $628 8.8744427612016086 $632 12.142230842607157 $631 $901 forward 7 unknown #
edge $-1 $636 -12.142230842607157 $627 -8.8744427612016086 $634 $902 forward 7 unknown #
straight-curve $-1 -46.988499029484281 -22.65056764451154 0 0 0 -1 I I #
edge $-1 $810 -6.7657183697549339 $808 6.7657183697549339 $638 $903 forward 7 unknown #
vertex $-1 $807 $904 #
straight-curve $-1 -25.048006742294927 -19.382779563105991 -6.7657183697549339 1 0 0 I I #
vertex $-1 $639 $905 #
straight-curve $-1 -25.048006742294927 -19.382779563105991 6.7657183697549339 -1 0 0 I I #
point $-1 -46.988499029484281 -19.382779563105991 6.7657183697549339 #
point $-1 -46.988499029484281 -19.382779563105991 -6.7657183697549339 #
point $-1 -46.988499029484281 -22.65056764451154 -6.7657183697549339 #
point $-1 -46.988499029484281 -22.65056764451154 6.7657183697549339 #
straight-curve $-1 -53.203527939695427 0 6.7657183697549339 0 -1 0 I I #
straight-curve $-1 -53.203527939695427 0 -6.7657183697549339 0 1 0 I I #
edge $-1 $819 51.526212882207993 $822 57.700187000555481 $644 $906 forward 7 unknown #
vertex $-1 $658 $907 #
straight-curve $-1 -21.94049228718935 38.220211293554058 6.7657183697549357 0 1 0 I I #
edge $-1 $822 6.7787354599998526 $655 23.544778194379141 $654 $908 forward 7 unknown #
vertex $-1 $821 $909 #
straight-curve $-1 -21.94049228718935 -7.4094825838112826 51.073138620368951 0 -0.61566146476048833 0.78801076186113728 I I #
point $-1 -21.94049228718935 27.207267048928536 6.7657183697549357 #
point $-1 -38.706535021568641 32.030904152713397 0.59174425140744802 #
straight-curve $-1 0 32.03090415271339 6.7657183697549339 -1 0 0 I I #
vertex $-1 $661 $910 #
point $-1 -34.353326474692778 28.104052122756816 2.4950574632048297 #
vertex $-1 $665 $911 #
point $-1 -29.323513654378996 28.104052122756816 2.4950574632048297 #
vertex $-1 $669 $912 #
point $-1 -24.293700834065209 28.104052122756816 2.4950574632048297 #
coedge $-1 $684 $683 $676 $834 forward $673 $-1 #
edge $-1 $835 51.526212882207993 $838 57.700187000555481 $833 $913 forward 7 unknown #
vertex $-1 $688 $914 #
straight-curve $-1 3.1075144551055764 38.220211293554058 6.7657183697549357 0 1 0 I I #
edge $-1 $838 -5.7452679111476108 $685 11.02077482323168 $684 $915 forward 7 unknown #
vertex $-1 $837 $916 #
straight-curve $-1 3.1075144551055764 -7.4094825838112826 51.073138620368951 0 -0.61566146476048833 0.78801076186113728 I I #
point $-1 3.1075144551055764 27.207267048928536 6.7657183697549357 #
point $-1 -13.658528279273714 32.030904152713397 0.59174425140744802 #
straight-curve $-1 0 32.03090415271339 6.7657183697549339 -1 0 0 I I #
vertex $-1 $691 $917 #
point $-1 -9.3053197323978551 28.104052122756816 2.4950574632048297 #
vertex $-1 $695 $918 #
point $-1 -4.2755069120840687 28.104052122756816 2.4950574632048297 #
vertex $-1 $699 $919 #
point $-1 0.75430590822971766 28.104052122756816 2.4950574632048297 #
coedge $-1 $714 $713 $706 $850 forward $703 $-1 #
edge $-1 $851 51.526212882207993 $854 57.700187000555481 $849 $920 forward 7 unknown #
vertex $-1 $718 $921 #
straight-curve $-1 28.1555211974005 38.220211293554058 6.7657183697549357 0 1 0 I I #
edge $-1 $854 -18.269271282295072 $715 -1.5032285479157821 $714 $922 forward 7 unknown #
vertex $-1 $853 $923 #
straight-curve $-1 28.1555211974005 -7.4094825838112826 51.073138620368951 0 -0.61566146476048833 0.78801076186113728 I I #
point $-1 28.1555211974005 27.207267048928536 6.7657183697549357 #
point $-1 11.389478463021209 32.030904152713397 0.59174425140744802 #
straight-curve $-1 0 32.03090415271339 6.7657183697549339 -1 0 0 I I #
vertex $-1 $721 $924 #
point $-1 15.742687009897075 28.104052122756816 2.4950574632048297 #
vertex $-1 $725 $925 #
point $-1 20.772499830210855 28.104052122756816 2.4950574632048297 #
vertex $-1 $729 $926 #
point $-1 25.802312650524648 28.104052122756816 2.4950574632048297 #
coedge $-1 $866 $735 $872 $927 reversed $541 $-1 #
coedge $-1 $735 $865 $738 $870 reversed $541 $-1 #
edge $-1 $868 -30.793274653442541 $743 -14.027231919063244 $742 $928 forward 7 unknown #
vertex $-1 $737 $929 #
straight-curve $-1 53.203527939695427 6.3837709458064129 33.418578696521301 0 0.61566146476048833 -0.78801076186113728 I I #
edge $-1 $739 27.207267048928536 $874 32.03090415271339 $866 $930 forward 7 unknown #
point $-1 53.203527939695434 27.207267048928536 6.7657183697549357 #
coedge $-1 $742 $741 $865 $927 forward $733 $-1 #
point $-1 36.437485205316136 32.030904152713397 0.59174425140744802 #
vertex $-1 $870 $931 #
straight-curve $-1 0 32.03090415271339 6.7657183697549339 -1 0 0 I I #
vertex $-1 $749 $932 #
point $-1 40.790693752192006 28.104052122756816 2.4950574632048297 #
vertex $-1 $753 $933 #
point $-1 45.820506572505785 28.104052122756816 2.4950574632048297 #
vertex $-1 $757 $934 #
point $-1 50.850319392819578 28.104052122756816 2.4950574632048297 #
coedge $-1 $883 $763 $771 $888 reversed $567 $-1 #
coedge $-1 $764 $882 $766 $885 reversed $567 $-1 #
straight-curve $-1 24.50904755739392 -32.03090415271339 29.496978914604725 0 0 -1 I I #
edge $-1 $767 24.50904755739392 $891 53.203527939695427 $883 $935 forward 7 unknown #
point $-1 24.50904755739392 -32.03090415271339 6.7657183697549339 #
straight-curve $-1 19.428143874272333 -32.03090415271339 1.0405229077963232 1 0 0 I I #
edge $-1 $891 -6.7657183697549339 $772 -1.0405229077963234 $771 $936 forward 7 unknown #
point $-1 53.203527939695412 -32.03090415271339 1.0405229077963234 #
point $-1 24.50904755739392 -32.03090415271339 1.0405229077963234 #
vertex $-1 $776 $937 #
straight-curve $-1 53.203527939695427 0 6.7657183697549339 0 1 0 I I #
vertex $-1 $779 $938 #
point $-1 34.207470523765771 -25.821623035159845 1.0780103616691827 #
vertex $-1 $783 $939 #
point $-1 46.505104973323562 -25.821623035159845 1.0780103616691827 #
straight-curve $-1 -53.203527939695427 32.03090415271339 0 0 0 -1 I I #
point $-1 -53.203527939695427 -32.03090415271339 -6.7657183697549339 #
straight-curve $-1 -53.203527939695427 0 -6.7657183697549339 0 1 0 I I #
point $-1 -53.203527939695427 32.03090415271339 -6.7657183697549339 #
straight-curve $-1 -46.988499029484281 -10.508336801904383 -6.7657183697549339 0 -1 0 I I #
straight-curve $-1 -46.988499029484281 -10.508336801904383 6.7657183697549339 0 1 0 I I #
straight-curve $-1 -53.203527939695427 -19.382779563105991 0 0 0 -1 I I #
point $-1 -53.203527939695427 -19.382779563105991 -6.7657183697549339 #
point $-1 -53.203527939695427 -19.382779563105991 6.7657183697549339 #
straight-curve $-1 -21.94049228718935 32.03090415271339 58.291931251962929 0 0 -1 I I #
point $-1 -21.94049228718935 32.03090415271339 6.7657183697549339 #
straight-curve $-1 -15.161756827189498 32.030904152713397 0.59174425140745157 -1 0 0 I I #
point $-1 -21.94049228718935 32.030904152713397 0.59174425140744802 #
point $-1 -35.353326474692778 27.316041360895678 1.8793959984443416 #
point $-1 -30.323513654378996 27.316041360895678 1.8793959984443416 #
point $-1 -25.293700834065209 27.316041360895678 1.8793959984443416 #
straight-curve $-1 3.1075144551055764 32.03090415271339 58.291931251962929 0 0 -1 I I #
point $-1 3.1075144551055764 32.03090415271339 6.7657183697549339 #
straight-curve $-1 -2.6377534560420344 32.030904152713397 0.59174425140745157 -1 0 0 I I #
point $-1 3.1075144551055764 32.030904152713397 0.59174425140744802 #
point $-1 -10.305319732397855 27.316041360895678 1.8793959984443416 #
point $-1 -5.2755069120840687 27.316041360895678 1.8793959984443416 #
point $-1 -0.24569409177028234 27.316041360895678 1.8793959984443416 #
straight-curve $-1 28.1555211974005 32.03090415271339 58.291931251962929 0 0 -1 I I #
point $-1 28.1555211974005 32.03090415271339 6.7657183697549339 #
straight-curve $-1 9.8862499151054273 32.030904152713397 0.59174425140745157 -1 0 0 I I #
point $-1 28.1555211974005 32.030904152713397 0.59174425140744802 #
point $-1 14.742687009897075 27.316041360895678 1.8793959984443416 #
point $-1 19.772499830210855 27.316041360895678 1.8793959984443416 #
point $-1 24.802312650524648 27.316041360895678 1.8793959984443416 #
edge $-1 $874 -6.7657183697549339 $868 -0.59174425140744802 $865 $940 forward 7 unknown #
straight-curve $-1 22.410253286252892 32.030904152713397 0.59174425140745157 -1 0 0 I I #
point $-1 53.203527939695434 32.030904152713397 0.59174425140744802 #
straight-curve $-1 53.203527939695427 0 6.7657183697549339 0 1 0 I I #
point $-1 53.203527939695427 32.03090415271339 6.7657183697549339 #
point $-1 39.790693752192006 27.316041360895678 1.8793959984443416 #
point $-1 44.820506572505785 27.316041360895678 1.8793959984443416 #
point $-1 49.850319392819578 27.316041360895678 1.8793959984443416 #
straight-curve $-1 0 -32.03090415271339 6.7657183697549339 1 0 0 I I #
straight-curve $-1 53.203527939695427 -32.03090415271339 0 0 0 -1 I I #
point $-1 53.203527939695427 -32.03090415271339 6.7657183697549339 #
point $-1 32.707470523765771 -24.563617171235222 0.26105182763500751 #
point $-1 45.005104973323562 -24.563617171235222 0.26105182763500751 #
straight-curve $-1 53.203527939695427 32.03090415271339 0 0 0 -1 I I #
End-of-ACIS-data 