500 0 11 0           
7 Unknown 11 ACIS 5.0 NT 24 Thu Mar 25 19:38:51 1999 
-1 9.9999999999999995e-007 1e-010 
body $-1 $11 $-1 $12 #
body $-1 $13 $-1 $14 #
body $-1 $15 $-1 $16 #
body $-1 $17 $-1 $18 #
body $-1 $19 $-1 $20 #
body $-1 $21 $-1 $22 #
body $-1 $23 $-1 $24 #
body $-1 $25 $-1 $26 #
body $-1 $27 $-1 $28 #
body $-1 $29 $-1 $30 #
body $-1 $31 $-1 $32 #
lump $-1 $-1 $33 $0 #
transform $-1 1 0 0 0 1 0 0 0 1 74.201483199560528 36.810430306522299 8.2851834026194844 1 rotate no_reflect no_shear #
lump $-1 $-1 $34 $1 #
transform $-1 1 0 0 0 1 0 0 0 1 74.201483199560528 36.810430306522299 8.2851834026194844 1 rotate no_reflect no_shear #
lump $-1 $-1 $35 $2 #
transform $-1 1 0 0 0 1 0 0 0 1 74.201483199560528 36.810430306522299 8.2851834026194844 1 rotate no_reflect no_shear #
lump $-1 $-1 $36 $3 #
transform $-1 1 0 0 0 1 0 0 0 1 74.201483199560528 36.810430306522299 8.2851834026194844 1 rotate no_reflect no_shear #
lump $-1 $-1 $37 $4 #
transform $-1 1 0 0 0 1 0 0 0 1 74.201483199560528 36.810430306522299 8.2851834026194844 1 rotate no_reflect no_shear #
lump $-1 $-1 $38 $5 #
transform $-1 1 0 0 0 1 0 0 0 1 74.201483199560528 36.810430306522299 8.2851834026194844 1 rotate no_reflect no_shear #
lump $-1 $-1 $39 $6 #
transform $-1 1 0 0 0 1 0 0 0 1 74.201483199560528 36.810430306522299 8.2851834026194844 1 rotate no_reflect no_shear #
lump $-1 $-1 $40 $7 #
transform $-1 1 0 0 0 1 0 0 0 1 74.201483199560528 36.810430306522299 8.2851834026194844 1 rotate no_reflect no_shear #
lump $-1 $-1 $41 $8 #
transform $-1 1 0 0 0 1 0 0 0 1 74.201483199560528 36.810430306522299 8.2851834026194844 1 rotate no_reflect no_shear #
lump $-1 $-1 $42 $9 #
transform $-1 1 0 0 0 1 0 0 0 1 74.201483199560528 36.810430306522299 8.2851834026194844 1 rotate no_reflect no_shear #
lump $-1 $-1 $43 $10 #
transform $-1 1 0 0 0 1 0 0 0 1 74.201483199560528 36.810430306522299 8.2851834026194844 1 rotate no_reflect no_shear #
shell $-1 $-1 $-1 $44 $-1 $11 #
shell $-1 $-1 $-1 $45 $-1 $13 #
shell $-1 $-1 $-1 $46 $-1 $15 #
shell $-1 $-1 $-1 $47 $-1 $17 #
shell $-1 $-1 $-1 $48 $-1 $19 #
shell $-1 $-1 $-1 $49 $-1 $21 #
shell $-1 $-1 $-1 $50 $-1 $23 #
shell $-1 $-1 $-1 $51 $-1 $25 #
shell $-1 $-1 $-1 $52 $-1 $27 #
shell $-1 $-1 $-1 $53 $-1 $29 #
shell $-1 $-1 $-1 $54 $-1 $31 #
face $-1 $55 $56 $33 $-1 $57 forward single #
face $-1 $58 $59 $34 $-1 $60 reversed single #
face $-1 $61 $62 $35 $-1 $63 reversed single #
face $-1 $64 $65 $36 $-1 $66 forward single #
face $-1 $67 $68 $37 $-1 $69 forward single #
face $-1 $70 $71 $38 $-1 $72 reversed single #
face $-1 $73 $74 $39 $-1 $75 forward single #
face $-1 $76 $77 $40 $-1 $78 forward single #
face $-1 $79 $80 $41 $-1 $81 reversed single #
face $-1 $82 $83 $42 $-1 $84 forward single #
face $-1 $85 $86 $43 $-1 $87 forward single #
face $-1 $88 $89 $33 $-1 $90 reversed single #
loop $-1 $-1 $91 $44 #
plane-surface $-1 0 0 8.2851834026194844 0 0 1 1 0 0 forward_v I I I I #
face $-1 $92 $93 $34 $-1 $94 reversed single #
loop $-1 $-1 $95 $45 #
plane-surface $-1 -72.684804357923142 -29.960092902850189 0 0 -1 0 0 0 -1 forward_v I I I I #
face $-1 $96 $97 $35 $-1 $98 reversed single #
loop $-1 $-1 $99 $46 #
plane-surface $-1 99.778630146100284 25.048409461867038 210.02708512402145 0 1 0 0.78801076186113728 0 0.61566146476048833 forward_v I I I I #
face $-1 $100 $101 $36 $-1 $102 forward single #
loop $-1 $103 $104 $47 #
cone-surface $-1 71.227599001404698 28.408986846054255 4.6824595529030519 -0.78801076186113728 0 -0.61566146476048833 0.30783073238024417 0 -0.39400538093056864 1 I I 0 1 0.5 forward I I I I #
face $-1 $105 $106 $37 $-1 $107 forward single #
loop $-1 $108 $109 $48 #
cone-surface $-1 71.227599001404698 33.449852922335076 4.6824595529030519 -0.78801076186113728 0 -0.61566146476048833 0.30783073238024417 0 -0.39400538093056864 1 I I 0 1 0.5 forward I I I I #
face $-1 $110 $111 $38 $-1 $112 reversed single #
loop $-1 $-1 $113 $49 #
plane-surface $-1 -194.26200624659953 -27.582301503318696 89.546734445211541 0 1 0 -0.80901700255871778 0 0.5877852410284794 forward_v I I I I #
face $-1 $114 $115 $39 $-1 $116 forward single #
loop $-1 $117 $118 $50 #
cone-surface $-1 -70.999883873274342 -23.437573870540401 4.5503443827959078 0.80901700255871778 0 -0.5877852410284794 0.5877852410284794 0 0.80901700255871778 1 I I 0 1 1 forward I I I I #
face $-1 $119 $120 $40 $-1 $121 forward single #
loop $-1 $122 $123 $51 #
cone-surface $-1 -70.999883873274342 -17.22048242137296 4.5503443827959078 0.80901700255871778 0 -0.5877852410284794 0.5877852410284794 0 0.80901700255871778 1 I I 0 1 1 forward I I I I #
face $-1 $124 $125 $41 $-1 $126 reversed single #
loop $-1 $-1 $127 $52 #
plane-surface $-1 -194.26200624659953 19.926092192266761 89.546734445211541 0 1 0 -0.80901700255871778 0 0.5877852410284794 forward_v I I I I #
face $-1 $128 $129 $42 $-1 $130 forward single #
loop $-1 $131 $132 $53 #
cone-surface $-1 -70.999883873274342 24.070819825045056 4.5503443827959078 0.80901700255871778 0 -0.5877852410284794 0.5877852410284794 0 0.80901700255871778 1 I I 0 1 1 forward I I I I #
face $-1 $133 $134 $43 $-1 $135 forward single #
loop $-1 $136 $137 $54 #
cone-surface $-1 -70.999883873274342 30.287911274212497 4.5503443827959078 0.80901700255871778 0 -0.5877852410284794 0.5877852410284794 0 0.80901700255871778 1 I I 0 1 1 forward I I I I #
face $-1 $138 $139 $33 $-1 $140 reversed single #
loop $-1 $-1 $141 $55 #
plane-surface $-1 0 0 -8.2851834026194844 0 0 1 1 0 0 forward_v I I I I #
coedge $-1 $142 $143 $144 $145 forward $56 $-1 #
face $-1 $146 $147 $34 $-1 $148 forward single #
loop $-1 $-1 $149 $58 #
plane-surface $-1 -71.168125516285755 -33.385261604686242 0 -1 0 0 0 0 1 forward_v I I I I #
coedge $-1 $150 $151 $152 $153 forward $59 $-1 #
face $-1 $154 $155 $35 $-1 $156 reversed single #
loop $-1 $-1 $157 $61 #
plane-surface $-1 -17.164504468523859 30.929419884194665 118.66109745593705 0.78801076186113728 0 0.61566146476048833 0.61566146476048833 0 -0.78801076186113728 forward_v I I I I #
coedge $-1 $158 $159 $160 $161 reversed $62 $-1 #
face $-1 $-1 $162 $36 $-1 $163 forward single #
loop $-1 $164 $165 $64 #
cone-surface $-1 70.622149557210065 28.408986846054255 4.2094306176497831 -0.78801076186113728 0 -0.61566146476048833 0.15391536619012208 0 -0.19700269046528432 1 I I -0.70710678118654746 0.70710678118654746 0.25 forward I I I I #
loop $-1 $-1 $166 $47 #
coedge $-1 $104 $104 $167 $168 reversed $65 $-1 #
face $-1 $-1 $169 $37 $-1 $170 forward single #
loop $-1 $171 $172 $67 #
cone-surface $-1 70.622149557210065 33.449852922335076 4.2094306176497831 -0.78801076186113728 0 -0.61566146476048833 0.15391536619012208 0 -0.19700269046528432 1 I I -0.70710678118654746 0.70710678118654746 0.25 forward I I I I #
loop $-1 $-1 $173 $48 #
coedge $-1 $109 $109 $174 $175 reversed $68 $-1 #
face $-1 $176 $177 $38 $-1 $178 reversed single #
loop $-1 $-1 $179 $70 #
plane-surface $-1 -74.201483199560499 -20.329028145956681 2.317661070962842 -0.80901700255871778 0 0.5877852410284794 0.5877852410284794 0 0.80901700255871778 forward_v I I I I #
coedge $-1 $180 $181 $182 $183 reversed $71 $-1 #
face $-1 $-1 $184 $39 $-1 $185 forward single #
loop $-1 $186 $187 $73 #
cone-surface $-1 -69.561605362621719 -23.437573870540401 3.5053739082864155 0.80901700255871778 0 -0.5877852410284794 0.2938926205142397 0 0.40450850127935889 1 I I -0.70710678118654746 0.70710678118654746 0.5 forward I I I I #
loop $-1 $-1 $188 $50 #
coedge $-1 $118 $118 $189 $190 reversed $74 $-1 #
face $-1 $-1 $191 $40 $-1 $192 forward single #
loop $-1 $193 $194 $76 #
cone-surface $-1 -69.561605362621719 -17.22048242137296 3.5053739082864155 0.80901700255871778 0 -0.5877852410284794 0.2938926205142397 0 0.40450850127935889 1 I I -0.70710678118654746 0.70710678118654746 0.5 forward I I I I #
loop $-1 $-1 $195 $51 #
coedge $-1 $123 $123 $196 $197 reversed $77 $-1 #
face $-1 $198 $199 $41 $-1 $200 reversed single #
loop $-1 $-1 $201 $79 #
plane-surface $-1 -74.201483199560499 27.179365549628777 2.317661070962842 -0.80901700255871778 0 0.5877852410284794 0.5877852410284794 0 0.80901700255871778 forward_v I I I I #
coedge $-1 $202 $203 $204 $205 reversed $80 $-1 #
face $-1 $-1 $206 $42 $-1 $207 forward single #
loop $-1 $208 $209 $82 #
cone-surface $-1 -69.561605362621719 24.070819825045056 3.5053739082864155 0.80901700255871778 0 -0.5877852410284794 0.2938926205142397 0 0.40450850127935889 1 I I -0.70710678118654746 0.70710678118654746 0.5 forward I I I I #
loop $-1 $-1 $210 $53 #
coedge $-1 $132 $132 $211 $212 reversed $83 $-1 #
face $-1 $-1 $213 $43 $-1 $214 forward single #
loop $-1 $215 $216 $85 #
cone-surface $-1 -69.561605362621719 30.287911274212497 3.5053739082864155 0.80901700255871778 0 -0.5877852410284794 0.2938926205142397 0 0.40450850127935889 1 I I -0.70710678118654746 0.70710678118654746 0.5 forward I I I I #
loop $-1 $-1 $217 $54 #
coedge $-1 $137 $137 $218 $219 reversed $86 $-1 #
face $-1 $220 $221 $33 $-1 $222 reversed single #
loop $-1 $-1 $223 $88 #
plane-surface $-1 0 -36.810430306522299 0 0 1 0 0 0 1 forward_v I I I I #
coedge $-1 $224 $225 $226 $227 forward $89 $-1 #
coedge $-1 $228 $91 $229 $230 forward $56 $-1 #
coedge $-1 $91 $228 $231 $232 forward $56 $-1 #
coedge $-1 $233 $234 $91 $145 reversed $235 $-1 #
edge $-1 $236 -36.810430306522299 $237 36.810430306522299 $144 $238 forward 7 unknown #
face $-1 $239 $240 $34 $-1 $241 reversed single #
loop $-1 $-1 $242 $92 #
plane-surface $-1 0 0 8.2851834026194844 0 0 1 1 0 0 forward_v I I I I #
coedge $-1 $243 $244 $245 $246 reversed $93 $-1 #
coedge $-1 $247 $95 $248 $249 reversed $59 $-1 #
coedge $-1 $95 $247 $250 $251 reversed $59 $-1 #
coedge $-1 $244 $243 $95 $153 reversed $93 $-1 #
edge $-1 $252 -8.2851834026194844 $253 8.2851834026194844 $152 $254 forward 7 unknown #
face $-1 $255 $256 $35 $-1 $257 reversed single #
loop $-1 $-1 $160 $96 #
plane-surface $-1 74.201483199560528 0 0 -1 0 0 0 0 1 forward_v I I I I #
coedge $-1 $258 $259 $260 $261 reversed $97 $-1 #
coedge $-1 $159 $99 $262 $263 reversed $62 $-1 #
coedge $-1 $99 $158 $258 $264 reversed $62 $-1 #
coedge $-1 $260 $265 $99 $161 forward $155 $-1 #
edge $-1 $266 96.728359159391246 $267 103.29557972069779 $160 $268 forward 7 unknown #
loop $-1 $-1 $167 $100 #
plane-surface $-1 -17.164504468523859 30.929419884194665 118.66109745593705 0.78801076186113728 0 0.61566146476048833 0.61566146476048833 0 -0.78801076186113728 forward_v I I I I #
loop $-1 $-1 $269 $64 #
coedge $-1 $165 $165 $166 $270 reversed $101 $-1 #
coedge $-1 $166 $166 $165 $270 forward $103 $-1 #
coedge $-1 $167 $167 $104 $168 forward $162 $-1 #
edge $-1 $271 0 $271 6.2831853071796004 $167 $272 forward 7 unknown #
loop $-1 $-1 $174 $105 #
plane-surface $-1 -17.164504468523859 30.929419884194665 118.66109745593705 0.78801076186113728 0 0.61566146476048833 0.61566146476048833 0 -0.78801076186113728 forward_v I I I I #
loop $-1 $-1 $273 $67 #
coedge $-1 $172 $172 $173 $274 reversed $106 $-1 #
coedge $-1 $173 $173 $172 $274 forward $108 $-1 #
coedge $-1 $174 $174 $109 $175 forward $169 $-1 #
edge $-1 $275 0 $275 6.2831853071796004 $174 $276 forward 7 unknown #
face $-1 $277 $278 $38 $-1 $279 reversed single #
loop $-1 $-1 $280 $110 #
plane-surface $-1 -194.26200624659953 -13.075754788594665 89.546734445211541 0 -1 0 0.80901700255871778 0 -0.5877852410284794 forward_v I I I I #
coedge $-1 $281 $282 $283 $284 reversed $111 $-1 #
coedge $-1 $181 $113 $285 $286 reversed $71 $-1 #
coedge $-1 $113 $180 $281 $287 reversed $71 $-1 #
coedge $-1 $283 $288 $113 $183 forward $289 $-1 #
edge $-1 $290 22.929519923739235 $291 27.265178557565136 $182 $292 forward 7 unknown #
loop $-1 $-1 $189 $114 #
plane-surface $-1 -74.201483199560499 -20.329028145956681 2.317661070962842 -0.80901700255871778 0 0.5877852410284794 0.5877852410284794 0 0.80901700255871778 forward_v I I I I #
loop $-1 $-1 $293 $73 #
coedge $-1 $187 $187 $188 $294 reversed $115 $-1 #
coedge $-1 $188 $188 $187 $294 forward $117 $-1 #
coedge $-1 $189 $189 $118 $190 forward $184 $-1 #
edge $-1 $295 0 $295 6.2831853071796004 $189 $296 forward 7 unknown #
loop $-1 $-1 $196 $119 #
plane-surface $-1 -74.201483199560499 -20.329028145956681 2.317661070962842 -0.80901700255871778 0 0.5877852410284794 0.5877852410284794 0 0.80901700255871778 forward_v I I I I #
loop $-1 $-1 $297 $76 #
coedge $-1 $194 $194 $195 $298 reversed $120 $-1 #
coedge $-1 $195 $195 $194 $298 forward $122 $-1 #
coedge $-1 $196 $196 $123 $197 forward $191 $-1 #
edge $-1 $299 0 $299 6.2831853071796004 $196 $300 forward 7 unknown #
face $-1 $301 $302 $41 $-1 $303 forward single #
loop $-1 $-1 $304 $124 #
plane-surface $-1 -194.26200624659953 34.432638906990789 89.546734445211541 0 -1 0 0.80901700255871778 0 -0.5877852410284794 forward_v I I I I #
coedge $-1 $305 $306 $307 $308 reversed $125 $-1 #
coedge $-1 $203 $127 $309 $310 reversed $80 $-1 #
coedge $-1 $127 $202 $305 $311 reversed $80 $-1 #
coedge $-1 $307 $312 $127 $205 forward $302 $-1 #
edge $-1 $313 22.929519923739235 $314 27.265178557565136 $204 $315 forward 7 unknown #
loop $-1 $-1 $211 $128 #
plane-surface $-1 -74.201483199560499 27.179365549628777 2.317661070962842 -0.80901700255871778 0 0.5877852410284794 0.5877852410284794 0 0.80901700255871778 forward_v I I I I #
loop $-1 $-1 $316 $82 #
coedge $-1 $209 $209 $210 $317 reversed $129 $-1 #
coedge $-1 $210 $210 $209 $317 forward $131 $-1 #
coedge $-1 $211 $211 $132 $212 forward $206 $-1 #
edge $-1 $318 0 $318 6.2831853071796004 $211 $319 forward 7 unknown #
loop $-1 $-1 $218 $133 #
plane-surface $-1 -74.201483199560499 27.179365549628777 2.317661070962842 -0.80901700255871778 0 0.5877852410284794 0.5877852410284794 0 0.80901700255871778 forward_v I I I I #
loop $-1 $-1 $320 $85 #
coedge $-1 $216 $216 $217 $321 reversed $134 $-1 #
coedge $-1 $217 $217 $216 $321 forward $136 $-1 #
coedge $-1 $218 $218 $137 $219 forward $213 $-1 #
edge $-1 $322 0 $322 6.2831853071796004 $218 $323 forward 7 unknown #
face $-1 $324 $325 $33 $-1 $326 reversed single #
loop $-1 $-1 $327 $138 #
plane-surface $-1 -74.201483199560528 0 0 1 0 0 0 0 -1 forward_v I I I I #
coedge $-1 $328 $231 $329 $330 forward $139 $-1 #
coedge $-1 $331 $141 $328 $332 forward $89 $-1 #
coedge $-1 $141 $331 $333 $334 forward $89 $-1 #
coedge $-1 $234 $233 $141 $227 reversed $235 $-1 #
edge $-1 $335 -36.810430306522299 $336 36.810430306522299 $226 $337 forward 7 unknown #
coedge $-1 $143 $142 $338 $339 forward $56 $-1 #
coedge $-1 $340 $341 $142 $230 reversed $325 $-1 #
edge $-1 $237 -74.201483199560528 $342 74.201483199560528 $229 $343 forward 7 unknown #
coedge $-1 $223 $344 $143 $232 reversed $139 $-1 #
edge $-1 $345 -74.201483199560528 $236 74.201483199560528 $231 $346 forward 7 unknown #
coedge $-1 $226 $144 $344 $347 forward $235 $-1 #
coedge $-1 $144 $226 $340 $348 reversed $235 $-1 #
loop $-1 $-1 $233 $324 #
vertex $-1 $145 $349 #
vertex $-1 $145 $350 #
straight-curve $-1 74.201483199560528 0 8.2851834026194844 0 1 0 I I #
face $-1 $351 $352 $34 $-1 $353 reversed single #
loop $-1 $-1 $354 $146 #
plane-surface $-1 -74.201483199560528 0 0 1 0 0 0 0 -1 forward_v I I I I #
coedge $-1 $250 $355 $244 $356 forward $147 $-1 #
coedge $-1 $152 $149 $357 $358 reversed $93 $-1 #
coedge $-1 $149 $152 $242 $356 reversed $93 $-1 #
coedge $-1 $359 $360 $149 $246 forward $361 $-1 #
edge $-1 $362 -8.2851834026194844 $363 8.2851834026194844 $245 $364 forward 7 unknown #
coedge $-1 $151 $150 $354 $365 reversed $59 $-1 #
coedge $-1 $357 $366 $150 $249 forward $352 $-1 #
edge $-1 $367 -37.859081020598957 $253 -34.825723337324185 $248 $368 forward 7 unknown #
coedge $-1 $369 $242 $151 $251 forward $147 $-1 #
edge $-1 $252 34.825723337324185 $370 37.859081020598957 $250 $371 forward 7 unknown #
vertex $-1 $251 $372 #
vertex $-1 $249 $373 #
straight-curve $-1 -71.168125516285755 -29.960092902850189 0 0 0 -1 I I #
face $-1 $-1 $374 $35 $-1 $375 forward single #
loop $-1 $-1 $376 $154 #
plane-surface $-1 0 36.810430306522299 0 0 -1 0 0 0 -1 forward_v I I I I #
coedge $-1 $377 $157 $159 $264 forward $97 $-1 #
coedge $-1 $157 $377 $376 $378 reversed $97 $-1 #
coedge $-1 $379 $160 $157 $261 forward $155 $-1 #
edge $-1 $267 9.5836995197697057 $380 21.345720364424967 $260 $381 forward 7 unknown #
coedge $-1 $382 $383 $158 $263 forward $374 $-1 #
edge $-1 $384 19.181293237657442 $266 24.312168126510386 $262 $385 forward 7 unknown #
edge $-1 $267 -148.40296639912103 $384 -140.06904397172173 $159 $386 forward 7 unknown #
coedge $-1 $160 $379 $382 $387 reversed $155 $-1 #
vertex $-1 $387 $388 #
vertex $-1 $161 $389 #
straight-curve $-1 74.201483199560528 25.048409461867038 105.01354256201073 0 0 -1 I I #
coedge $-1 $269 $269 $-1 $390 reversed $164 $-1 #
edge $-1 $391 0 $391 6.2831853071796004 $165 $392 forward 7 unknown #
vertex $-1 $168 $393 #
ellipse-curve $-1 71.636045755134063 28.408986846054255 5.0015731219662074 0.78801076186113728 0 0.61566146476048833 0.30783073238024417 0 -0.39400538093056864 1 I I #
coedge $-1 $273 $273 $-1 $394 reversed $171 $-1 #
edge $-1 $395 0 $395 6.2831853071796004 $172 $396 forward 7 unknown #
vertex $-1 $175 $397 #
ellipse-curve $-1 71.636045755134063 33.449852922335076 5.0015731219662074 0.78801076186113728 0 0.61566146476048833 0.30783073238024417 0 -0.39400538093056864 1 I I #
face $-1 $-1 $289 $38 $-1 $398 forward single #
loop $-1 $-1 $399 $176 #
plane-surface $-1 -74.201483199560528 0 0 1 0 0 0 0 -1 forward_v I I I I #
coedge $-1 $400 $401 $402 $403 reversed $177 $-1 #
coedge $-1 $404 $179 $181 $287 forward $111 $-1 #
coedge $-1 $179 $404 $400 $405 forward $111 $-1 #
coedge $-1 $402 $182 $179 $284 forward $289 $-1 #
edge $-1 $291 -17.417787430340354 $406 -2.9112407156163247 $283 $407 forward 7 unknown #
coedge $-1 $408 $409 $180 $286 forward $278 $-1 #
edge $-1 $410 -42.455706151642971 $290 -36.48818381998629 $285 $411 forward 7 unknown #
edge $-1 $291 -7.3762631845596154 $410 4.8322124813089328e-014 $181 $412 forward 7 unknown #
coedge $-1 $182 $402 $408 $413 forward $289 $-1 #
loop $-1 $-1 $402 $277 #
vertex $-1 $286 $414 #
vertex $-1 $183 $415 #
straight-curve $-1 -97.131003123299763 -27.582301503318696 8.2851834026194808 1 0 0 I I #
coedge $-1 $293 $293 $-1 $416 reversed $186 $-1 #
edge $-1 $417 0 $417 6.2831853071796004 $187 $418 forward 7 unknown #
vertex $-1 $190 $419 #
ellipse-curve $-1 -72.03365388264757 -23.437573870540401 5.3014222367911437 -0.80901700255871778 0 0.5877852410284794 0.5877852410284794 0 0.80901700255871778 1 I I #
coedge $-1 $297 $297 $-1 $420 reversed $193 $-1 #
edge $-1 $421 0 $421 6.2831853071796004 $194 $422 forward 7 unknown #
vertex $-1 $197 $423 #
ellipse-curve $-1 -72.03365388264757 -17.22048242137296 5.3014222367911437 -0.80901700255871778 0 0.5877852410284794 0.5877852410284794 0 0.80901700255871778 1 I I #
face $-1 $-1 $424 $41 $-1 $425 reversed single #
loop $-1 $-1 $204 $198 #
plane-surface $-1 0 0 8.2851834026194844 0 0 1 1 0 0 forward_v I I I I #
coedge $-1 $426 $427 $428 $429 reversed $199 $-1 #
coedge $-1 $430 $201 $203 $311 forward $125 $-1 #
coedge $-1 $201 $430 $426 $431 forward $125 $-1 #
coedge $-1 $428 $204 $201 $308 forward $302 $-1 #
edge $-1 $314 6.3364094174523728 $432 20.842956132176401 $307 $433 forward 7 unknown #
coedge $-1 $434 $435 $202 $310 forward $424 $-1 #
edge $-1 $436 -42.455706151642971 $313 -36.48818381998629 $309 $437 forward 7 unknown #
edge $-1 $314 -7.3762631845596154 $436 4.8322124813089328e-014 $203 $438 forward 7 unknown #
coedge $-1 $204 $428 $434 $439 forward $302 $-1 #
vertex $-1 $310 $440 #
vertex $-1 $205 $441 #
straight-curve $-1 -97.131003123299763 19.926092192266761 8.2851834026194808 1 0 0 I I #
coedge $-1 $316 $316 $-1 $442 reversed $208 $-1 #
edge $-1 $443 0 $443 6.2831853071796004 $209 $444 forward 7 unknown #
vertex $-1 $212 $445 #
ellipse-curve $-1 -72.03365388264757 24.070819825045056 5.3014222367911437 -0.80901700255871778 0 0.5877852410284794 0.5877852410284794 0 0.80901700255871778 1 I I #
coedge $-1 $320 $320 $-1 $446 reversed $215 $-1 #
edge $-1 $447 0 $447 6.2831853071796004 $216 $448 forward 7 unknown #
vertex $-1 $219 $449 #
ellipse-curve $-1 -72.03365388264757 30.287911274212497 5.3014222367911437 -0.80901700255871778 0 0.5877852410284794 0.5877852410284794 0 0.80901700255871778 1 I I #
face $-1 $-1 $235 $33 $-1 $450 reversed single #
loop $-1 $-1 $340 $220 #
plane-surface $-1 0 36.810430306522299 0 0 -1 0 0 0 -1 forward_v I I I I #
coedge $-1 $451 $338 $341 $452 forward $221 $-1 #
coedge $-1 $344 $223 $224 $332 reversed $139 $-1 #
coedge $-1 $338 $451 $223 $330 reversed $221 $-1 #
edge $-1 $345 -8.2851834026194844 $453 8.2851834026194844 $329 $454 forward 7 unknown #
coedge $-1 $225 $224 $451 $455 forward $89 $-1 #
edge $-1 $336 -74.201483199560528 $453 74.201483199560528 $328 $456 forward 7 unknown #
coedge $-1 $341 $340 $225 $334 reversed $325 $-1 #
edge $-1 $457 -74.201483199560528 $335 74.201483199560528 $333 $458 forward 7 unknown #
vertex $-1 $227 $459 #
vertex $-1 $347 $460 #
straight-curve $-1 74.201483199560528 0 -8.2851834026194844 0 -1 0 I I #
coedge $-1 $327 $329 $228 $339 reversed $221 $-1 #
edge $-1 $342 -36.810430306522299 $345 36.810430306522299 $338 $461 forward 7 unknown #
coedge $-1 $333 $229 $234 $348 forward $325 $-1 #
coedge $-1 $229 $333 $327 $452 reversed $325 $-1 #
vertex $-1 $230 $462 #
straight-curve $-1 0 36.810430306522299 8.2851834026194844 -1 0 0 I I #
coedge $-1 $231 $328 $233 $347 reversed $139 $-1 #
vertex $-1 $339 $463 #
straight-curve $-1 0 -36.810430306522299 8.2851834026194844 1 0 0 I I #
edge $-1 $236 -8.2851834026194844 $336 8.2851834026194844 $233 $464 forward 7 unknown #
edge $-1 $237 -8.2851834026194844 $335 8.2851834026194844 $234 $465 forward 7 unknown #
point $-1 74.201483199560528 -36.810430306522299 8.2851834026194844 #
point $-1 74.201483199560528 36.810430306522299 8.2851834026194844 #
face $-1 $-1 $361 $34 $-1 $466 reversed single #
loop $-1 $-1 $357 $239 #
plane-surface $-1 0 0 -8.2851834026194844 0 0 1 1 0 0 forward_v I I I I #
coedge $-1 $467 $468 $247 $365 forward $240 $-1 #
coedge $-1 $242 $369 $359 $469 forward $147 $-1 #
edge $-1 $363 -20.117799504179178 $252 -13.267462100507068 $242 $470 forward 7 unknown #
coedge $-1 $471 $248 $243 $358 forward $352 $-1 #
edge $-1 $253 13.267462100507068 $362 20.117799504179178 $357 $472 forward 7 unknown #
coedge $-1 $473 $245 $355 $469 reversed $361 $-1 #
coedge $-1 $245 $473 $471 $474 reversed $361 $-1 #
loop $-1 $-1 $245 $351 #
vertex $-1 $474 $475 #
vertex $-1 $246 $476 #
straight-curve $-1 -71.168125516285755 -36.810430306522299 0 0 0 1 I I #
edge $-1 $370 -8.2851834026194844 $367 8.2851834026194844 $354 $477 forward 7 unknown #
coedge $-1 $248 $471 $467 $478 forward $352 $-1 #
vertex $-1 $249 $479 #
straight-curve $-1 -36.342402178961571 -29.960092902850189 -8.2851834026194844 1 0 0 I I #
coedge $-1 $355 $250 $468 $480 forward $147 $-1 #
vertex $-1 $480 $481 #
straight-curve $-1 -36.342402178961571 -29.960092902850189 8.2851834026194844 -1 0 0 I I #
point $-1 -71.168125516285755 -29.960092902850189 8.2851834026194844 #
point $-1 -71.168125516285755 -29.960092902850189 -8.2851834026194844 #
loop $-1 $-1 $262 $255 #
plane-surface $-1 0 0 8.2851834026194844 0 0 1 1 0 0 forward_v I I I I #
coedge $-1 $482 $483 $259 $378 forward $256 $-1 #
coedge $-1 $259 $258 $383 $484 reversed $97 $-1 #
edge $-1 $380 -96.366093512865547 $485 -88.032171085466246 $376 $486 forward 7 unknown #
coedge $-1 $265 $260 $483 $487 reversed $155 $-1 #
vertex $-1 $378 $488 #
straight-curve $-1 74.201483199560528 15.464709942097333 1.7179628413129322 0 1 0 I I #
coedge $-1 $489 $262 $265 $387 forward $374 $-1 #
coedge $-1 $262 $489 $377 $484 forward $374 $-1 #
vertex $-1 $263 $490 #
straight-curve $-1 49.889315073050142 25.048409461867038 8.2851834026194808 1 0 0 I I #
straight-curve $-1 -17.164504468523859 25.048409461867038 118.66109745593705 -0.61566146476048833 0 0.78801076186113728 I I #
edge $-1 $266 25.048409461867038 $491 36.810430306522299 $265 $492 forward 7 unknown #
point $-1 74.201483199560528 25.048409461867038 8.2851834026194844 #
point $-1 74.201483199560528 25.048409461867038 1.7179628413129393 #
edge $-1 $493 1 $493 0 $269 $-1 forward 7 unknown #
vertex $-1 $270 $494 #
ellipse-curve $-1 70.819152247675348 28.408986846054255 4.3633459838399054 0.78801076186113728 0 0.61566146476048833 0.30783073238024417 0 -0.39400538093056864 1 I I #
point $-1 71.943876487514288 28.408986846054255 4.6075677410356297 #
edge $-1 $495 1 $495 0 $273 $-1 forward 7 unknown #
vertex $-1 $274 $496 #
ellipse-curve $-1 70.819152247675348 33.449852922335076 4.3633459838399054 0.78801076186113728 0 0.61566146476048833 0.30783073238024417 0 -0.39400538093056864 1 I I #
point $-1 71.943876487514288 33.449852922335076 4.6075677410356297 #
plane-surface $-1 0 0 8.2851834026194844 0 0 1 1 0 0 forward_v I I I I #
coedge $-1 $409 $408 $401 $497 forward $278 $-1 #
coedge $-1 $401 $280 $282 $405 reversed $177 $-1 #
coedge $-1 $280 $400 $399 $497 reversed $177 $-1 #
coedge $-1 $288 $283 $280 $403 forward $289 $-1 #
edge $-1 $406 -27.265178557565136 $498 -22.929519923739235 $402 $499 forward 7 unknown #
coedge $-1 $282 $281 $409 $500 reversed $111 $-1 #
edge $-1 $501 -4.8322124813089328e-014 $406 7.3762631845596154 $400 $502 forward 7 unknown #
vertex $-1 $284 $503 #
straight-curve $-1 -69.865824565734627 -10.16451407297834 8.2851834026194862 0 1 0 I I #
coedge $-1 $399 $285 $288 $413 reversed $278 $-1 #
coedge $-1 $285 $399 $404 $500 forward $278 $-1 #
vertex $-1 $286 $504 #
straight-curve $-1 -74.201483199560528 -27.582301503318696 44.773367222605771 0 0 1 I I #
straight-curve $-1 -74.201483199560499 -27.582301503318696 2.317661070962842 -0.5877852410284794 0 -0.80901700255871778 I I #
edge $-1 $498 13.075754788594665 $290 27.582301503318696 $408 $505 forward 7 unknown #
point $-1 -74.201483199560528 -27.582301503318696 8.2851834026194844 #
point $-1 -69.865824565734627 -27.582301503318696 8.2851834026194844 #
edge $-1 $506 1 $506 0 $293 $-1 forward 7 unknown #
vertex $-1 $294 $507 #
ellipse-curve $-1 -69.966113863901072 -23.437573870540401 3.7992665288006551 -0.80901700255871778 0 0.5877852410284794 0.5877852410284794 0 0.80901700255871778 1 I I #
point $-1 -71.445868641619114 -23.437573870540401 6.1104392393498781 #
edge $-1 $508 1 $508 0 $297 $-1 forward 7 unknown #
vertex $-1 $298 $509 #
ellipse-curve $-1 -69.966113863901072 -17.22048242137296 3.7992665288006551 -0.80901700255871778 0 0.5877852410284794 0.5877852410284794 0 0.80901700255871778 1 I I #
point $-1 -71.445868641619114 -17.22048242137296 6.1104392393498781 #
loop $-1 $-1 $309 $301 #
plane-surface $-1 -74.201483199560528 0 0 1 0 0 0 0 -1 forward_v I I I I #
coedge $-1 $427 $304 $306 $431 reversed $199 $-1 #
coedge $-1 $304 $426 $510 $511 reversed $199 $-1 #
coedge $-1 $312 $307 $304 $429 forward $302 $-1 #
edge $-1 $432 -27.265178557565136 $512 -22.929519923739235 $428 $513 forward 7 unknown #
coedge $-1 $306 $305 $435 $514 reversed $125 $-1 #
edge $-1 $515 -4.8322124813089328e-014 $432 7.3762631845596154 $426 $516 forward 7 unknown #
vertex $-1 $308 $517 #
straight-curve $-1 -69.865824565734627 13.589682774814388 8.2851834026194862 0 1 0 I I #
coedge $-1 $510 $309 $312 $439 reversed $424 $-1 #
coedge $-1 $309 $510 $430 $514 forward $424 $-1 #
vertex $-1 $310 $518 #
straight-curve $-1 -74.201483199560528 19.926092192266761 44.773367222605771 0 0 1 I I #
straight-curve $-1 -74.201483199560499 19.926092192266761 2.317661070962842 -0.5877852410284794 0 -0.80901700255871778 I I #
edge $-1 $512 -34.432638906990789 $313 -19.926092192266761 $434 $519 forward 7 unknown #
point $-1 -74.201483199560528 19.926092192266761 8.2851834026194844 #
point $-1 -69.865824565734627 19.926092192266761 8.2851834026194844 #
edge $-1 $520 1 $520 0 $316 $-1 forward 7 unknown #
vertex $-1 $317 $521 #
ellipse-curve $-1 -69.966113863901072 24.070819825045056 3.7992665288006551 -0.80901700255871778 0 0.5877852410284794 0.5877852410284794 0 0.80901700255871778 1 I I #
point $-1 -71.445868641619114 24.070819825045056 6.1104392393498781 #
edge $-1 $522 1 $522 0 $320 $-1 forward 7 unknown #
vertex $-1 $321 $523 #
ellipse-curve $-1 -69.966113863901072 30.287911274212497 3.7992665288006551 -0.80901700255871778 0 0.5877852410284794 0.5877852410284794 0 0.80901700255871778 1 I I #
point $-1 -71.445868641619114 30.287911274212497 6.1104392393498781 #
plane-surface $-1 74.201483199560528 0 0 -1 0 0 0 0 1 forward_v I I I I #
coedge $-1 $329 $327 $331 $455 reversed $221 $-1 #
edge $-1 $342 -8.2851834026194844 $457 8.2851834026194844 $341 $524 forward 7 unknown #
vertex $-1 $455 $525 #
straight-curve $-1 -74.201483199560528 -36.810430306522299 0 0 0 -1 I I #
edge $-1 $453 -36.810430306522299 $457 36.810430306522299 $451 $526 forward 7 unknown #
straight-curve $-1 0 -36.810430306522299 -8.2851834026194844 -1 0 0 I I #
vertex $-1 $334 $527 #
straight-curve $-1 0 36.810430306522299 -8.2851834026194844 1 0 0 I I #
point $-1 74.201483199560528 36.810430306522299 -8.2851834026194844 #
point $-1 74.201483199560528 -36.810430306522299 -8.2851834026194844 #
straight-curve $-1 -74.201483199560528 0 8.2851834026194844 0 -1 0 I I #
point $-1 -74.201483199560528 36.810430306522299 8.2851834026194844 #
point $-1 -74.201483199560528 -36.810430306522299 8.2851834026194844 #
straight-curve $-1 74.201483199560528 -36.810430306522299 0 0 0 -1 I I #
straight-curve $-1 74.201483199560528 36.810430306522299 0 0 0 -1 I I #
plane-surface $-1 0 -36.810430306522299 0 0 1 0 0 0 1 forward_v I I I I #
coedge $-1 $528 $354 $366 $478 reversed $240 $-1 #
coedge $-1 $354 $528 $369 $480 reversed $240 $-1 #
edge $-1 $529 -74.201483199560528 $363 -71.168125516285755 $359 $530 forward 7 unknown #
straight-curve $-1 -71.168125516285755 -16.692630802343121 8.2851834026194844 0 1 0 I I #
coedge $-1 $366 $357 $360 $474 forward $352 $-1 #
straight-curve $-1 -71.168125516285755 -16.692630802343121 -8.2851834026194844 0 -1 0 I I #
coedge $-1 $360 $359 $528 $531 forward $361 $-1 #
edge $-1 $362 71.168125516285755 $532 74.201483199560528 $360 $533 forward 7 unknown #
point $-1 -71.168125516285755 -36.810430306522299 -8.2851834026194844 #
point $-1 -71.168125516285755 -36.810430306522299 8.2851834026194844 #
straight-curve $-1 -74.201483199560528 -29.960092902850189 0 0 0 -1 I I #
edge $-1 $532 -36.810430306522299 $367 -29.960092902850189 $467 $534 forward 7 unknown #
point $-1 -74.201483199560528 -29.960092902850189 -8.2851834026194844 #
edge $-1 $370 29.960092902850189 $529 36.810430306522299 $468 $535 forward 7 unknown #
point $-1 -74.201483199560528 -29.960092902850189 8.2851834026194844 #
coedge $-1 $483 $376 $489 $536 reversed $256 $-1 #
coedge $-1 $376 $482 $379 $487 forward $256 $-1 #
edge $-1 $485 -21.34572036442496 $384 -9.5836995197697057 $383 $537 forward 7 unknown #
vertex $-1 $378 $538 #
straight-curve $-1 14.872592914183532 36.810430306522299 77.655481607967715 -0.61566146476048833 0 0.78801076186113728 I I #
edge $-1 $491 -8.2851834026194844 $380 -1.7179628413129346 $379 $539 forward 7 unknown #
point $-1 74.201483199560528 36.810430306522299 1.7179628413129346 #
coedge $-1 $383 $382 $482 $536 forward $374 $-1 #
point $-1 69.070608310707584 25.048409461867038 8.2851834026194808 #
vertex $-1 $387 $540 #
straight-curve $-1 74.201483199560528 0 8.2851834026194844 0 1 0 I I #
vertex $-1 $390 $541 #
point $-1 71.126982980055587 28.408986846054255 3.9693406029093365 #
vertex $-1 $394 $542 #
point $-1 71.126982980055587 33.449852922335076 3.9693406029093365 #
edge $-1 $498 36.48818381998629 $501 42.455706151642971 $399 $543 forward 7 unknown #
vertex $-1 $413 $544 #
straight-curve $-1 -97.131003123299763 -13.075754788594665 8.2851834026194808 -1 0 0 I I #
edge $-1 $501 2.9112407156163247 $410 17.417787430340354 $409 $545 forward 7 unknown #
vertex $-1 $500 $546 #
straight-curve $-1 -74.201483199560499 -13.075754788594665 2.317661070962842 0.5877852410284794 0 0.80901700255871778 I I #
point $-1 -69.865824565734627 -13.075754788594665 8.2851834026194844 #
point $-1 -74.201483199560528 -27.582301503318696 2.3176610709628029 #
straight-curve $-1 -74.201483199560528 0 8.2851834026194844 0 -1 0 I I #
vertex $-1 $416 $547 #
point $-1 -69.378328622872601 -23.437573870540401 4.6082835313593726 #
vertex $-1 $420 $548 #
point $-1 -69.378328622872601 -17.22048242137296 4.6082835313593726 #
coedge $-1 $435 $434 $427 $511 forward $424 $-1 #
edge $-1 $512 36.48818381998629 $515 42.455706151642971 $510 $549 forward 7 unknown #
vertex $-1 $439 $550 #
straight-curve $-1 -97.131003123299763 34.432638906990789 8.2851834026194808 -1 0 0 I I #
edge $-1 $515 -20.842956132176401 $436 -6.3364094174523728 $435 $551 forward 7 unknown #
vertex $-1 $514 $552 #
straight-curve $-1 -74.201483199560499 34.432638906990789 2.317661070962842 0.5877852410284794 0 0.80901700255871778 I I #
point $-1 -69.865824565734627 34.432638906990789 8.2851834026194844 #
point $-1 -74.201483199560528 19.926092192266761 2.3176610709628029 #
straight-curve $-1 -74.201483199560528 0 8.2851834026194844 0 -1 0 I I #
vertex $-1 $442 $553 #
point $-1 -69.378328622872601 24.070819825045056 4.6082835313593726 #
vertex $-1 $446 $554 #
point $-1 -69.378328622872601 30.287911274212497 4.6082835313593726 #
straight-curve $-1 -74.201483199560528 36.810430306522299 0 0 0 -1 I I #
point $-1 -74.201483199560528 -36.810430306522299 -8.2851834026194844 #
straight-curve $-1 -74.201483199560528 0 -8.2851834026194844 0 1 0 I I #
point $-1 -74.201483199560528 36.810430306522299 -8.2851834026194844 #
coedge $-1 $468 $467 $473 $531 reversed $240 $-1 #
vertex $-1 $480 $555 #
straight-curve $-1 0 -36.810430306522299 8.2851834026194844 1 0 0 I I #
edge $-1 $529 -8.2851834026194844 $532 8.2851834026194844 $528 $556 forward 7 unknown #
vertex $-1 $478 $557 #
straight-curve $-1 0 -36.810430306522299 -8.2851834026194844 -1 0 0 I I #
straight-curve $-1 -74.201483199560528 0 -8.2851834026194844 0 1 0 I I #
straight-curve $-1 -74.201483199560528 0 8.2851834026194844 0 -1 0 I I #
edge $-1 $491 -74.201483199560528 $485 -69.070608310707584 $482 $558 forward 7 unknown #
straight-curve $-1 69.070608310707598 15.464709942097333 8.2851834026194808 0 -1 0 I I #
point $-1 69.070608310707584 36.810430306522292 8.2851834026194808 #
straight-curve $-1 74.201483199560528 36.810430306522299 0 0 0 -1 I I #
point $-1 74.201483199560528 36.810430306522299 8.2851834026194844 #
point $-1 70.425146866744782 28.408986846054255 4.0555152514596609 #
point $-1 70.425146866744782 33.449852922335076 4.0555152514596609 #
straight-curve $-1 -74.201483199560528 -13.075754788594665 44.773367222605771 0 0 -1 I I #
point $-1 -74.201483199560528 -13.075754788594665 8.2851834026194844 #
straight-curve $-1 -74.201483199560528 -10.16451407297834 2.3176610709627981 0 -1 0 I I #
point $-1 -74.201483199560528 -13.075754788594665 2.3176610709628029 #
point $-1 -69.157096861342367 -23.437573870540401 3.2114812877721759 #
point $-1 -69.157096861342367 -17.22048242137296 3.2114812877721759 #
straight-curve $-1 -74.201483199560528 34.432638906990789 44.773367222605771 0 0 -1 I I #
point $-1 -74.201483199560528 34.432638906990789 8.2851834026194844 #
straight-curve $-1 -74.201483199560528 13.589682774814388 2.3176610709627981 0 -1 0 I I #
point $-1 -74.201483199560528 34.432638906990789 2.3176610709628029 #
point $-1 -69.157096861342367 24.070819825045056 3.2114812877721759 #
point $-1 -69.157096861342367 30.287911274212497 3.2114812877721759 #
point $-1 -74.201483199560528 -36.810430306522299 8.2851834026194844 #
straight-curve $-1 -74.201483199560528 -36.810430306522299 0 0 0 -1 I I #
point $-1 -74.201483199560528 -36.810430306522299 -8.2851834026194844 #
straight-curve $-1 0 36.810430306522299 8.2851834026194844 -1 0 0 I I #
End-of-ACIS-data 