500 0 5 0           
7 Unknown 11 ACIS 5.0 NT 24 Thu Mar 25 16:15:52 1999 
-1 9.9999999999999995e-007 1e-010 
body $-1 $5 $-1 $6 #
body $-1 $7 $-1 $8 #
body $-1 $9 $-1 $10 #
body $-1 $11 $-1 $12 #
body $-1 $13 $-1 $14 #
lump $-1 $-1 $15 $0 #
transform $-1 1 0 0 0 1 0 0 0 1 58.054750205999937 39.901633804264812 11.232784225003202 1 rotate no_reflect no_shear #
lump $-1 $-1 $16 $1 #
transform $-1 1 0 0 0 1 0 0 0 1 58.054750205999937 39.901633804264812 11.232784225003202 1 rotate no_reflect no_shear #
lump $-1 $-1 $17 $2 #
transform $-1 1 0 0 0 1 0 0 0 1 58.054750205999937 39.901633804264812 11.232784225003202 1 rotate no_reflect no_shear #
lump $-1 $-1 $18 $3 #
transform $-1 1 0 0 0 1 0 0 0 1 58.054750205999937 39.901633804264812 11.232784225003202 1 rotate no_reflect no_shear #
lump $-1 $-1 $19 $4 #
transform $-1 1 0 0 0 1 0 0 0 1 58.054750205999937 39.901633804264812 11.232784225003202 1 rotate no_reflect no_shear #
shell $-1 $-1 $-1 $20 $-1 $5 #
shell $-1 $-1 $-1 $21 $-1 $7 #
shell $-1 $-1 $-1 $22 $-1 $9 #
shell $-1 $-1 $-1 $23 $-1 $11 #
shell $-1 $-1 $-1 $24 $-1 $13 #
face $-1 $25 $26 $15 $-1 $27 forward single #
face $-1 $28 $29 $16 $-1 $30 forward single #
face $-1 $31 $32 $17 $-1 $33 forward single #
face $-1 $34 $35 $18 $-1 $36 reversed single #
face $-1 $37 $38 $19 $-1 $39 reversed single #
face $-1 $40 $41 $15 $-1 $42 reversed single #
loop $-1 $-1 $43 $20 #
plane-surface $-1 0 0 11.232784225003202 0 0 1 1 0 0 forward_v I I I I #
face $-1 $44 $45 $16 $-1 $46 reversed single #
loop $-1 $-1 $47 $21 #
plane-surface $-1 0 -44.57319611111614 -6.7457725144081859 0 0 1 1 0 0 forward_v I I I I #
face $-1 $48 $49 $17 $-1 $50 forward single #
loop $-1 $-1 $51 $22 #
plane-surface $-1 -24.172039343541357 77.550121507201567 138.19042841137585 1 0 0 0 -0.7660444514056185 -0.64278759981090561 forward_v I I I I #
face $-1 $52 $53 $18 $-1 $54 reversed single #
loop $-1 $55 $56 $23 #
cone-surface $-1 -17.797100347912135 35.316379450799936 6.0819622802587059 0 -0.7660444514056185 -0.64278759981090561 1.5 0 0 1 I I 0 1 1.5 forward I I I I #
face $-1 $57 $58 $19 $-1 $59 reversed single #
loop $-1 $60 $61 $24 #
cone-surface $-1 -8.2346918544683021 35.316379450799936 6.0819622802587059 0 -0.7660444514056185 -0.64278759981090561 1.5 0 0 1 I I 0 1 1.5 forward I I I I #
face $-1 $62 $63 $15 $-1 $64 reversed single #
loop $-1 $-1 $65 $25 #
plane-surface $-1 0 0 -11.232784225003202 0 0 1 1 0 0 forward_v I I I I #
coedge $-1 $66 $67 $68 $69 forward $26 $-1 #
face $-1 $70 $71 $16 $-1 $72 forward single #
loop $-1 $-1 $73 $28 #
plane-surface $-1 0 -49.244758417967468 -8.9892783697056942 0 1 0 0 0 1 forward_v I I I I #
coedge $-1 $74 $75 $76 $77 forward $29 $-1 #
face $-1 $78 $79 $17 $-1 $80 forward single #
loop $-1 $-1 $81 $31 #
plane-surface $-1 -13.015896101190215 -11.394917038889318 63.556681326303092 0 0.7660444514056185 0.64278759981090561 1 0 0 forward_v I I I I #
coedge $-1 $82 $83 $84 $85 reversed $32 $-1 #
face $-1 $86 $87 $18 $-1 $88 forward single #
loop $-1 $89 $90 $34 #
cone-surface $-1 -17.797100347912135 33.852386375370877 4.853526262782017 0 -0.7660444514056185 -0.64278759981090561 0.75 0 0 1 I I -0.70710678118654757 0.70710678118654757 0.75 forward I I I I #
loop $-1 $-1 $91 $23 #
coedge $-1 $56 $56 $92 $93 reversed $35 $-1 #
face $-1 $94 $95 $19 $-1 $96 reversed single #
loop $-1 $97 $98 $37 #
cone-surface $-1 -8.2346918544683021 33.852386375370877 4.853526262782017 0 -0.7660444514056185 -0.64278759981090561 0.75 0 0 1 I I -0.70710678118654757 0.70710678118654757 0.75 forward I I I I #
loop $-1 $-1 $99 $24 #
coedge $-1 $61 $61 $100 $101 reversed $38 $-1 #
face $-1 $102 $103 $15 $-1 $104 reversed single #
loop $-1 $-1 $105 $40 #
plane-surface $-1 0 -39.901633804264812 0 0 1 0 0 0 1 forward_v I I I I #
coedge $-1 $106 $107 $108 $109 forward $41 $-1 #
coedge $-1 $110 $43 $111 $112 forward $26 $-1 #
coedge $-1 $43 $110 $113 $114 forward $26 $-1 #
coedge $-1 $115 $116 $43 $69 reversed $117 $-1 #
edge $-1 $118 -39.901633804264812 $119 39.901633804264812 $68 $120 forward 7 unknown #
face $-1 $121 $122 $16 $-1 $123 reversed single #
loop $-1 $-1 $124 $44 #
plane-surface $-1 0 0 11.232784225003202 0 0 1 1 0 0 forward_v I I I I #
coedge $-1 $125 $126 $127 $128 forward $45 $-1 #
coedge $-1 $129 $47 $130 $131 reversed $29 $-1 #
coedge $-1 $47 $129 $126 $132 forward $29 $-1 #
coedge $-1 $133 $134 $47 $77 reversed $135 $-1 #
edge $-1 $136 -4.6715623068513281 $137 4.6715623068513281 $76 $138 forward 7 unknown #
face $-1 $139 $140 $17 $-1 $141 forward single #
loop $-1 $-1 $142 $48 #
plane-surface $-1 -1.859752858839073 77.550121507201567 138.19042841137585 -1 0 0 0 0.7660444514056185 0.64278759981090561 forward_v I I I I #
coedge $-1 $143 $144 $145 $146 reversed $49 $-1 #
coedge $-1 $83 $51 $144 $147 forward $32 $-1 #
coedge $-1 $51 $82 $148 $149 reversed $32 $-1 #
coedge $-1 $150 $145 $51 $85 forward $140 $-1 #
edge $-1 $151 -6.2650161825159856 $152 1.1265730506640281 $84 $153 forward 7 unknown #
face $-1 $154 $155 $18 $-1 $156 forward single #
loop $-1 $-1 $157 $52 #
plane-surface $-1 -24.172039343541357 77.550121507201567 138.19042841137585 1 0 0 0 -0.7660444514056185 -0.64278759981090561 forward_v I I I I #
loop $-1 $-1 $158 $34 #
coedge $-1 $90 $90 $91 $159 forward $53 $-1 #
coedge $-1 $91 $91 $90 $159 reversed $55 $-1 #
coedge $-1 $92 $92 $56 $93 forward $155 $-1 #
edge $-1 $160 9.6995139041228756e-016 $160 6.2831853071796013 $92 $161 forward 7 unknown #
face $-1 $162 $163 $19 $-1 $164 reversed single #
loop $-1 $165 $166 $57 #
cone-surface $-1 -17.797100347912135 35.316379450799936 6.0819622802587059 0 -0.7660444514056185 -0.64278759981090561 1.5 0 0 1 I I 0 1 1.5 forward I I I I #
loop $-1 $-1 $167 $37 #
coedge $-1 $98 $98 $99 $168 forward $58 $-1 #
coedge $-1 $99 $99 $98 $168 reversed $60 $-1 #
coedge $-1 $100 $100 $61 $101 forward $169 $-1 #
edge $-1 $170 9.6995139041228756e-016 $170 6.2831853071796013 $100 $171 forward 7 unknown #
face $-1 $172 $173 $15 $-1 $174 reversed single #
loop $-1 $-1 $175 $62 #
plane-surface $-1 -58.054750205999937 0 0 1 0 0 0 0 -1 forward_v I I I I #
coedge $-1 $176 $113 $177 $178 forward $63 $-1 #
coedge $-1 $179 $65 $176 $180 forward $41 $-1 #
coedge $-1 $65 $179 $181 $182 forward $41 $-1 #
coedge $-1 $116 $115 $65 $109 reversed $117 $-1 #
edge $-1 $183 -39.901633804264812 $184 39.901633804264812 $108 $185 forward 7 unknown #
coedge $-1 $67 $66 $186 $187 forward $26 $-1 #
coedge $-1 $188 $189 $66 $112 reversed $173 $-1 #
edge $-1 $119 -58.054750205999937 $190 58.054750205999937 $111 $191 forward 7 unknown #
coedge $-1 $105 $192 $67 $114 reversed $63 $-1 #
edge $-1 $193 -58.054750205999937 $118 58.054750205999937 $113 $194 forward 7 unknown #
coedge $-1 $108 $68 $192 $195 forward $117 $-1 #
coedge $-1 $68 $108 $188 $196 reversed $117 $-1 #
loop $-1 $-1 $115 $172 #
vertex $-1 $69 $197 #
vertex $-1 $69 $198 #
straight-curve $-1 58.054750205999937 0 11.232784225003202 0 1 0 I I #
face $-1 $199 $200 $16 $-1 $201 reversed single #
loop $-1 $-1 $202 $70 #
plane-surface $-1 0 0 -11.232784225003202 0 0 1 1 0 0 forward_v I I I I #
coedge $-1 $203 $204 $205 $206 forward $71 $-1 #
coedge $-1 $207 $73 $208 $209 reversed $45 $-1 #
coedge $-1 $73 $207 $75 $132 reversed $45 $-1 #
coedge $-1 $210 $211 $73 $128 reversed $212 $-1 #
edge $-1 $213 -2.2435058552975082 $214 2.2435058552975082 $127 $215 forward 7 unknown #
coedge $-1 $75 $74 $210 $216 forward $29 $-1 #
coedge $-1 $217 $218 $74 $131 forward $200 $-1 #
edge $-1 $219 -58.054750205999937 $137 58.054750205999937 $130 $220 forward 7 unknown #
edge $-1 $213 -58.054750205999937 $136 58.054750205999937 $126 $221 forward 7 unknown #
coedge $-1 $222 $76 $207 $223 forward $135 $-1 #
coedge $-1 $76 $205 $217 $224 forward $135 $-1 #
loop $-1 $-1 $134 $225 #
vertex $-1 $77 $226 #
vertex $-1 $77 $227 #
straight-curve $-1 58.054750205999937 -44.57319611111614 -6.7457725144081859 0 1 0 I I #
face $-1 $228 $229 $17 $-1 $230 forward single #
loop $-1 $-1 $231 $78 #
plane-surface $-1 0 0 11.232784225003202 0 0 1 1 0 0 forward_v I I I I #
coedge $-1 $232 $233 $231 $234 reversed $79 $-1 #
coedge $-1 $235 $81 $233 $236 reversed $49 $-1 #
coedge $-1 $81 $235 $82 $147 reversed $49 $-1 #
coedge $-1 $84 $231 $81 $146 forward $140 $-1 #
edge $-1 $237 -4.6481951917560345 $151 17.664091292946249 $145 $238 forward 7 unknown #
edge $-1 $151 68.303995943434543 $239 79.803267608529623 $82 $240 forward 7 unknown #
coedge $-1 $241 $242 $83 $149 forward $243 $-1 #
edge $-1 $152 57.862429980684723 $239 66.671383234936656 $148 $244 forward 7 unknown #
coedge $-1 $245 $84 $242 $246 forward $140 $-1 #
vertex $-1 $146 $247 #
vertex $-1 $246 $248 #
straight-curve $-1 -24.172039343541357 38.775060753600783 11.232784225003201 0 1 0 I I #
face $-1 $249 $250 $18 $-1 $251 forward single #
loop $-1 $252 $92 $86 #
plane-surface $-1 -13.015896101190215 -11.394917038889318 63.556681326303092 0 0.7660444514056185 0.64278759981090561 1 0 0 forward_v I I I I #
coedge $-1 $253 $254 $255 $256 reversed $87 $-1 #
coedge $-1 $158 $158 $-1 $257 forward $89 $-1 #
edge $-1 $258 0 $258 6.2831853071796004 $90 $259 forward 7 unknown #
vertex $-1 $93 $260 #
ellipse-curve $-1 -17.797100347912135 36.205839187674805 6.828307597877231 0 -0.7660444514056185 -0.64278759981090561 1.5 0 0 1 I I #
face $-1 $261 $262 $19 $-1 $263 forward single #
loop $-1 $264 $265 $94 #
cone-surface $-1 -17.797100347912135 33.852386375370877 4.853526262782017 0 -0.7660444514056185 -0.64278759981090561 0.75 0 0 1 I I -0.70710678118654757 0.70710678118654757 0.75 forward I I I I #
loop $-1 $-1 $266 $57 #
coedge $-1 $166 $166 $267 $268 reversed $95 $-1 #
coedge $-1 $167 $167 $-1 $269 forward $97 $-1 #
edge $-1 $270 0 $270 6.2831853071796004 $98 $271 forward 7 unknown #
loop $-1 $272 $100 $261 #
vertex $-1 $101 $273 #
ellipse-curve $-1 -8.2346918544683021 36.205839187674805 6.828307597877231 0 -0.7660444514056185 -0.64278759981090561 1.5 0 0 1 I I #
face $-1 $-1 $117 $15 $-1 $274 reversed single #
loop $-1 $-1 $188 $102 #
plane-surface $-1 0 39.901633804264812 0 0 -1 0 0 0 -1 forward_v I I I I #
coedge $-1 $275 $186 $189 $276 forward $103 $-1 #
coedge $-1 $192 $105 $106 $180 reversed $63 $-1 #
coedge $-1 $186 $275 $105 $178 reversed $103 $-1 #
edge $-1 $193 -11.232784225003202 $277 11.232784225003202 $177 $278 forward 7 unknown #
coedge $-1 $107 $106 $275 $279 forward $41 $-1 #
edge $-1 $184 -58.054750205999937 $277 58.054750205999937 $176 $280 forward 7 unknown #
coedge $-1 $189 $188 $107 $182 reversed $173 $-1 #
edge $-1 $281 -58.054750205999937 $183 58.054750205999937 $181 $282 forward 7 unknown #
vertex $-1 $109 $283 #
vertex $-1 $195 $284 #
straight-curve $-1 58.054750205999937 0 -11.232784225003202 0 -1 0 I I #
coedge $-1 $175 $177 $110 $187 reversed $103 $-1 #
edge $-1 $190 -39.901633804264812 $193 39.901633804264812 $186 $285 forward 7 unknown #
coedge $-1 $181 $111 $116 $196 forward $173 $-1 #
coedge $-1 $111 $181 $175 $276 reversed $173 $-1 #
vertex $-1 $112 $286 #
straight-curve $-1 0 39.901633804264812 11.232784225003202 -1 0 0 I I #
coedge $-1 $113 $176 $115 $195 reversed $63 $-1 #
vertex $-1 $187 $287 #
straight-curve $-1 0 -39.901633804264812 11.232784225003202 1 0 0 I I #
edge $-1 $118 -11.232784225003202 $184 11.232784225003202 $115 $288 forward 7 unknown #
edge $-1 $119 -11.232784225003202 $183 11.232784225003202 $116 $289 forward 7 unknown #
point $-1 58.054750205999937 -39.901633804264812 11.232784225003202 #
point $-1 58.054750205999937 39.901633804264812 11.232784225003202 #
face $-1 $290 $212 $16 $-1 $291 reversed single #
loop $-1 $-1 $130 $121 #
plane-surface $-1 0 -39.901633804264812 0 0 1 0 0 0 1 forward_v I I I I #
coedge $-1 $208 $292 $222 $293 forward $122 $-1 #
coedge $-1 $294 $124 $295 $296 forward $71 $-1 #
coedge $-1 $124 $294 $297 $298 forward $71 $-1 #
coedge $-1 $134 $299 $124 $206 reversed $135 $-1 #
edge $-1 $300 -39.901633804264812 $301 39.901633804264812 $205 $302 forward 7 unknown #
coedge $-1 $126 $125 $133 $223 reversed $45 $-1 #
coedge $-1 $303 $202 $125 $209 forward $122 $-1 #
edge $-1 $304 -58.054750205999937 $214 58.054750205999937 $125 $305 forward 7 unknown #
coedge $-1 $306 $127 $129 $216 reversed $212 $-1 #
coedge $-1 $127 $307 $303 $308 reversed $212 $-1 #
loop $-1 $-1 $307 $199 #
vertex $-1 $216 $309 #
vertex $-1 $308 $310 #
straight-curve $-1 -58.054750205999937 -49.244758417967468 -8.9892783697056942 0 0 -1 I I #
edge $-1 $219 -4.6715623068513281 $213 4.6715623068513281 $210 $311 forward 7 unknown #
coedge $-1 $297 $130 $134 $224 reversed $200 $-1 #
coedge $-1 $130 $297 $306 $312 forward $200 $-1 #
vertex $-1 $312 $313 #
straight-curve $-1 0 -39.901633804264812 -6.7457725144081859 1 0 0 I I #
straight-curve $-1 0 -49.244758417967468 -6.7457725144081859 1 0 0 I I #
coedge $-1 $299 $133 $202 $293 reversed $135 $-1 #
edge $-1 $136 -2.2435058552975082 $304 2.2435058552975082 $133 $314 forward 7 unknown #
edge $-1 $300 -11.232784225003202 $137 6.7457725144081859 $134 $315 forward 7 unknown #
face $-1 $-1 $135 $16 $-1 $316 reversed single #
point $-1 58.054750205999937 -49.244758417967468 -6.7457725144081859 #
point $-1 58.054750205999937 -39.901633804264812 -6.7457725144081859 #
face $-1 $317 $318 $17 $-1 $319 reversed single #
loop $-1 $-1 $320 $139 #
plane-surface $-1 0 -44.57319611111614 -6.7457725144081859 0 0 1 1 0 0 forward_v I I I I #
coedge $-1 $145 $321 $142 $234 forward $140 $-1 #
coedge $-1 $233 $142 $322 $323 reversed $79 $-1 #
coedge $-1 $142 $232 $143 $236 forward $79 $-1 #
edge $-1 $324 -1.1265730506640281 $237 6.2650161825159856 $231 $325 forward 7 unknown #
coedge $-1 $144 $143 $241 $326 reversed $49 $-1 #
edge $-1 $327 -79.803267608529623 $237 -68.303995943434543 $233 $328 forward 7 unknown #
vertex $-1 $146 $329 #
straight-curve $-1 -6.5079480505951075 32.510044571084791 11.232784225003194 -1 0 0 I I #
vertex $-1 $326 $330 #
straight-curve $-1 -24.172039343541357 -11.394917038889318 63.556681326303092 0 0.64278759981090561 -0.7660444514056185 I I #
coedge $-1 $322 $148 $235 $326 forward $243 $-1 #
coedge $-1 $148 $331 $150 $246 reversed $243 $-1 #
loop $-1 $-1 $322 $332 #
straight-curve $-1 -24.172039343541357 39.901633804264812 69.095214205687924 0 0 -1 I I #
coedge $-1 $333 $150 $334 $335 forward $140 $-1 #
edge $-1 $152 24.172039343541357 $336 58.054750205999937 $242 $337 forward 7 unknown #
point $-1 -24.172039343541357 32.510044571084798 11.232784225003201 #
point $-1 -24.172039343541357 39.901633804264812 11.232784225003202 #
face $-1 $338 $339 $18 $-1 $340 forward single #
loop $-1 $-1 $341 $154 #
plane-surface $-1 -1.859752858839073 77.550121507201567 138.19042841137585 -1 0 0 0 0.7660444514056185 0.64278759981090561 forward_v I I I I #
loop $-1 $-1 $342 $86 #
coedge $-1 $254 $157 $343 $344 forward $87 $-1 #
coedge $-1 $157 $253 $345 $346 reversed $87 $-1 #
coedge $-1 $347 $348 $157 $256 forward $339 $-1 #
edge $-1 $349 -6.2650161825159856 $350 1.1265730506640281 $255 $351 forward 7 unknown #
edge $-1 $352 1 $352 0 $158 $-1 forward 7 unknown #
vertex $-1 $159 $353 #
ellipse-curve $-1 -17.797100347912135 34.426919713925088 5.3356169626401959 0 0.7660444514056185 0.64278759981090561 1.5 0 0 1 I I #
point $-1 -16.297100347912135 36.205839187674783 6.828307597877215 #
face $-1 $354 $169 $19 $-1 $355 forward single #
loop $-1 $-1 $356 $162 #
plane-surface $-1 -24.172039343541357 77.550121507201567 138.19042841137585 1 0 0 0 -0.7660444514056185 -0.64278759981090561 forward_v I I I I #
loop $-1 $-1 $357 $94 #
coedge $-1 $265 $265 $266 $358 forward $163 $-1 #
coedge $-1 $266 $266 $265 $358 reversed $165 $-1 #
coedge $-1 $267 $267 $166 $268 forward $272 $-1 #
edge $-1 $359 9.6995139041228756e-016 $359 6.2831853071796013 $267 $360 forward 7 unknown #
edge $-1 $361 1 $361 0 $167 $-1 forward 7 unknown #
vertex $-1 $168 $362 #
ellipse-curve $-1 -8.2346918544683021 34.426919713925088 5.3356169626401959 0 0.7660444514056185 0.64278759981090561 1.5 0 0 1 I I #
loop $-1 $363 $267 $261 #
point $-1 -6.7346918544683021 36.205839187674783 6.828307597877215 #
plane-surface $-1 58.054750205999937 0 0 -1 0 0 0 0 1 forward_v I I I I #
coedge $-1 $177 $175 $179 $279 reversed $103 $-1 #
edge $-1 $190 -11.232784225003202 $281 11.232784225003202 $189 $364 forward 7 unknown #
vertex $-1 $279 $365 #
straight-curve $-1 -58.054750205999937 -39.901633804264812 0 0 0 -1 I I #
edge $-1 $277 -39.901633804264812 $281 39.901633804264812 $275 $366 forward 7 unknown #
straight-curve $-1 0 -39.901633804264812 -11.232784225003202 -1 0 0 I I #
vertex $-1 $182 $367 #
straight-curve $-1 0 39.901633804264812 -11.232784225003202 1 0 0 I I #
point $-1 58.054750205999937 39.901633804264812 -11.232784225003202 #
point $-1 58.054750205999937 -39.901633804264812 -11.232784225003202 #
straight-curve $-1 -58.054750205999937 0 11.232784225003202 0 -1 0 I I #
point $-1 -58.054750205999937 39.901633804264812 11.232784225003202 #
point $-1 -58.054750205999937 -39.901633804264812 11.232784225003202 #
straight-curve $-1 58.054750205999937 -39.901633804264812 0 0 0 -1 I I #
straight-curve $-1 58.054750205999937 39.901633804264812 0 0 0 -1 I I #
face $-1 $225 $368 $16 $-1 $369 reversed single #
plane-surface $-1 -58.054750205999937 0 0 1 0 0 0 0 -1 forward_v I I I I #
coedge $-1 $202 $303 $370 $371 forward $122 $-1 #
edge $-1 $372 -39.901633804264812 $304 49.244758417967468 $222 $373 forward 7 unknown #
coedge $-1 $204 $203 $374 $375 forward $71 $-1 #
coedge $-1 $376 $377 $203 $296 reversed $368 $-1 #
edge $-1 $301 -58.054750205999937 $378 58.054750205999937 $295 $379 forward 7 unknown #
coedge $-1 $218 $217 $204 $298 reversed $200 $-1 #
edge $-1 $380 -58.054750205999937 $300 58.054750205999937 $297 $381 forward 7 unknown #
coedge $-1 $205 $222 $376 $382 reversed $135 $-1 #
vertex $-1 $206 $383 #
vertex $-1 $206 $384 #
straight-curve $-1 58.054750205999937 0 11.232784225003202 0 1 0 I I #
coedge $-1 $292 $208 $211 $308 forward $122 $-1 #
vertex $-1 $223 $385 #
straight-curve $-1 0 -49.244758417967468 -11.232784225003202 -1 0 0 I I #
coedge $-1 $374 $210 $218 $312 reversed $212 $-1 #
coedge $-1 $211 $374 $377 $386 forward $212 $-1 #
edge $-1 $214 -49.244758417967468 $387 39.901633804264812 $211 $388 forward 7 unknown #
point $-1 -58.054750205999937 -49.244758417967468 -6.7457725144081859 #
point $-1 -58.054750205999937 -49.244758417967468 -11.232784225003202 #
straight-curve $-1 -58.054750205999937 -44.57319611111614 -6.7457725144081859 0 -1 0 I I #
edge $-1 $380 -11.232784225003202 $219 6.7457725144081859 $306 $389 forward 7 unknown #
point $-1 -58.054750205999937 -39.901633804264812 -6.7457725144081859 #
straight-curve $-1 58.054750205999937 -49.244758417967468 -8.9892783697056942 0 0 -1 I I #
straight-curve $-1 58.054750205999937 -39.901633804264812 0 0 0 -1 I I #
plane-surface $-1 58.054750205999937 0 0 -1 0 0 0 0 1 forward_v I I I I #
face $-1 $390 $391 $17 $-1 $392 reversed single #
loop $-1 $-1 $393 $228 #
plane-surface $-1 0 -49.244758417967468 -8.9892783697056942 0 1 0 0 0 1 forward_v I I I I #
coedge $-1 $394 $395 $396 $397 forward $229 $-1 #
coedge $-1 $231 $398 $399 $400 forward $140 $-1 #
coedge $-1 $399 $241 $232 $323 forward $243 $-1 #
edge $-1 $327 -66.671383234936656 $324 -57.862429980684723 $322 $401 forward 7 unknown #
vertex $-1 $323 $402 #
straight-curve $-1 -1.859752858839073 38.775060753600783 11.232784225003201 0 -1 0 I I #
edge $-1 $239 -17.664091292946249 $327 4.6481951917560345 $241 $403 forward 7 unknown #
vertex $-1 $326 $404 #
straight-curve $-1 -1.859752858839073 -11.394917038889318 63.556681326303092 0 -0.64278759981090561 0.7660444514056185 I I #
point $-1 -1.859752858839073 32.510044571084798 11.232784225003201 #
point $-1 -24.172039343541357 39.901633804264812 2.4238309707512755 #
coedge $-1 $242 $405 $406 $407 reversed $243 $-1 #
face $-1 $408 $243 $17 $-1 $409 reversed single #
coedge $-1 $398 $245 $410 $411 forward $140 $-1 #
coedge $-1 $406 $412 $245 $335 reversed $413 $-1 #
edge $-1 $336 -39.901633804264812 $414 39.901633804264812 $334 $415 forward 7 unknown #
vertex $-1 $246 $416 #
straight-curve $-1 0 39.901633804264812 11.232784225003202 -1 0 0 I I #
face $-1 $417 $418 $18 $-1 $419 forward single #
loop $-1 $-1 $420 $249 #
plane-surface $-1 0 0 11.232784225003202 0 0 1 1 0 0 forward_v I I I I #
coedge $-1 $421 $422 $420 $423 reversed $250 $-1 #
coedge $-1 $424 $343 $348 $425 reversed $252 $-1 #
coedge $-1 $342 $426 $253 $344 reversed $252 $-1 #
edge $-1 $349 68.303995943434543 $427 79.803267608529623 $253 $428 forward 7 unknown #
coedge $-1 $429 $430 $254 $346 forward $431 $-1 #
edge $-1 $350 57.862429980684723 $427 66.671383234936656 $345 $432 forward 7 unknown #
coedge $-1 $433 $255 $430 $434 forward $339 $-1 #
coedge $-1 $255 $420 $342 $425 forward $339 $-1 #
vertex $-1 $425 $435 #
vertex $-1 $434 $436 #
straight-curve $-1 -24.172039343541357 38.775060753600783 11.232784225003201 0 1 0 I I #
vertex $-1 $257 $437 #
point $-1 -16.297100347912135 34.426919713925088 5.3356169626401959 #
face $-1 $438 $439 $19 $-1 $440 forward single #
plane-surface $-1 -13.015896101190215 -11.394917038889318 63.556681326303092 0 0.7660444514056185 0.64278759981090561 1 0 0 forward_v I I I I #
coedge $-1 $441 $442 $443 $444 reversed $262 $-1 #
coedge $-1 $357 $357 $-1 $445 forward $264 $-1 #
edge $-1 $446 0 $446 6.2831853071796004 $265 $447 forward 7 unknown #
vertex $-1 $268 $448 #
ellipse-curve $-1 -17.797100347912135 36.205839187674805 6.828307597877231 0 -0.7660444514056185 -0.64278759981090561 1.5 0 0 1 I I #
vertex $-1 $269 $449 #
point $-1 -6.7346918544683021 34.426919713925088 5.3356169626401959 #
loop $-1 $-1 $450 $261 #
straight-curve $-1 -58.054750205999937 39.901633804264812 0 0 0 -1 I I #
point $-1 -58.054750205999937 -39.901633804264812 -11.232784225003202 #
straight-curve $-1 -58.054750205999937 0 -11.232784225003202 0 1 0 I I #
point $-1 -58.054750205999937 39.901633804264812 -11.232784225003202 #
loop $-1 $-1 $376 $290 #
plane-surface $-1 0 39.901633804264812 0 0 -1 0 0 0 -1 forward_v I I I I #
coedge $-1 $377 $376 $292 $371 reversed $368 $-1 #
edge $-1 $387 -58.054750205999937 $372 58.054750205999937 $370 $451 forward 7 unknown #
vertex $-1 $293 $452 #
straight-curve $-1 58.054750205999937 0 -11.232784225003202 0 -1 0 I I #
coedge $-1 $307 $306 $294 $375 reversed $212 $-1 #
edge $-1 $378 -39.901633804264812 $380 39.901633804264812 $374 $453 forward 7 unknown #
coedge $-1 $370 $295 $299 $382 forward $368 $-1 #
coedge $-1 $295 $370 $307 $386 reversed $368 $-1 #
vertex $-1 $296 $454 #
straight-curve $-1 0 39.901633804264812 11.232784225003202 -1 0 0 I I #
vertex $-1 $375 $455 #
straight-curve $-1 0 -39.901633804264812 11.232784225003202 1 0 0 I I #
edge $-1 $301 -11.232784225003202 $372 11.232784225003202 $299 $456 forward 7 unknown #
point $-1 58.054750205999937 -39.901633804264812 11.232784225003202 #
point $-1 58.054750205999937 39.901633804264812 11.232784225003202 #
point $-1 58.054750205999937 -49.244758417967468 -11.232784225003202 #
edge $-1 $378 -11.232784225003202 $387 11.232784225003202 $377 $457 forward 7 unknown #
vertex $-1 $371 $458 #
straight-curve $-1 -58.054750205999937 0 -11.232784225003202 0 1 0 I I #
straight-curve $-1 -58.054750205999937 -39.901633804264812 0 0 0 -1 I I #
face $-1 $459 $460 $17 $-1 $461 reversed single #
loop $-1 $-1 $462 $317 #
plane-surface $-1 0 0 -11.232784225003202 0 0 1 1 0 0 forward_v I I I I #
coedge $-1 $463 $464 $465 $466 forward $318 $-1 #
coedge $-1 $467 $320 $468 $469 reversed $229 $-1 #
coedge $-1 $320 $467 $464 $470 forward $229 $-1 #
coedge $-1 $471 $472 $320 $397 reversed $473 $-1 #
edge $-1 $474 -4.6715623068513281 $475 4.6715623068513281 $396 $476 forward 7 unknown #
coedge $-1 $321 $333 $477 $478 forward $140 $-1 #
coedge $-1 $479 $322 $321 $400 reversed $243 $-1 #
edge $-1 $480 -58.054750205999937 $324 1.859752858839073 $399 $337 forward 7 unknown #
straight-curve $-1 -1.859752858839073 39.901633804264812 69.095214205687924 0 0 1 I I #
point $-1 -1.859752858839073 39.901633804264812 11.232784225003202 #
straight-curve $-1 -6.5079480505951075 39.901633804264812 2.4238309707512684 1 0 0 I I #
point $-1 -1.859752858839073 39.901633804264812 2.4238309707512755 #
coedge $-1 $331 $479 $481 $482 reversed $243 $-1 #
coedge $-1 $483 $334 $331 $407 forward $413 $-1 #
edge $-1 $336 -11.232784225003202 $484 11.232784225003202 $331 $485 forward 7 unknown #
face $-1 $-1 $473 $17 $-1 $486 reversed single #
plane-surface $-1 0 39.901633804264812 0 0 -1 0 0 0 -1 forward_v I I I I #
coedge $-1 $487 $488 $333 $411 reversed $460 $-1 #
edge $-1 $414 -58.054750205999937 $489 58.054750205999937 $410 $490 forward 7 unknown #
coedge $-1 $334 $491 $487 $492 reversed $413 $-1 #
loop $-1 $-1 $406 $459 #
vertex $-1 $335 $493 #
straight-curve $-1 -58.054750205999937 0 11.232784225003202 0 -1 0 I I #
point $-1 -58.054750205999937 39.901633804264812 11.232784225003202 #
face $-1 $494 $495 $18 $-1 $496 reversed single #
loop $-1 $-1 $497 $338 #
plane-surface $-1 0 -44.57319611111614 -6.7457725144081859 0 0 1 1 0 0 forward_v I I I I #
coedge $-1 $348 $498 $341 $423 forward $339 $-1 #
coedge $-1 $422 $341 $499 $500 reversed $250 $-1 #
coedge $-1 $341 $421 $424 $501 forward $250 $-1 #
edge $-1 $502 -1.1265730506640281 $503 6.2650161825159856 $420 $504 forward 7 unknown #
coedge $-1 $426 $342 $422 $501 reversed $252 $-1 #
edge $-1 $503 -4.6481951917560345 $349 17.664091292946249 $348 $505 forward 7 unknown #
coedge $-1 $343 $424 $429 $506 reversed $252 $-1 #
vertex $-1 $506 $507 #
straight-curve $-1 -24.172039343541357 -11.394917038889318 63.556681326303092 0 0.64278759981090561 -0.7660444514056185 I I #
coedge $-1 $499 $345 $426 $506 forward $431 $-1 #
coedge $-1 $345 $508 $347 $434 reversed $431 $-1 #
loop $-1 $-1 $499 $509 #
straight-curve $-1 -24.172039343541357 39.901633804264812 69.095214205687924 0 0 -1 I I #
coedge $-1 $510 $347 $511 $512 forward $339 $-1 #
edge $-1 $350 24.172039343541357 $513 58.054750205999937 $430 $514 forward 7 unknown #
point $-1 -24.172039343541357 32.510044571084798 11.232784225003201 #
point $-1 -24.172039343541357 39.901633804264812 11.232784225003202 #
point $-1 -17.797100347912135 33.277853036816666 4.3714355629238382 #
face $-1 $515 $516 $19 $-1 $517 forward single #
loop $-1 $-1 $518 $354 #
plane-surface $-1 -1.859752858839073 77.550121507201567 138.19042841137585 -1 0 0 0 0.7660444514056185 0.64278759981090561 forward_v I I I I #
coedge $-1 $442 $356 $519 $520 forward $262 $-1 #
coedge $-1 $356 $441 $521 $522 reversed $262 $-1 #
coedge $-1 $523 $524 $356 $444 forward $516 $-1 #
edge $-1 $525 -6.2650161825159856 $526 1.1265730506640281 $443 $527 forward 7 unknown #
edge $-1 $528 1 $528 0 $357 $-1 forward 7 unknown #
vertex $-1 $358 $529 #
ellipse-curve $-1 -17.797100347912135 34.426919713925088 5.3356169626401959 0 0.7660444514056185 0.64278759981090561 1.5 0 0 1 I I #
point $-1 -16.297100347912135 36.205839187674783 6.828307597877215 #
point $-1 -8.2346918544683021 33.277853036816666 4.3714355629238382 #
coedge $-1 $530 $519 $524 $531 reversed $363 $-1 #
straight-curve $-1 0 39.901633804264812 -11.232784225003202 1 0 0 I I #
point $-1 58.054750205999937 39.901633804264812 -11.232784225003202 #
straight-curve $-1 -58.054750205999937 0 11.232784225003202 0 -1 0 I I #
point $-1 -58.054750205999937 39.901633804264812 11.232784225003202 #
point $-1 -58.054750205999937 -39.901633804264812 11.232784225003202 #
straight-curve $-1 58.054750205999937 39.901633804264812 0 0 0 -1 I I #
straight-curve $-1 -58.054750205999937 39.901633804264812 0 0 0 -1 I I #
point $-1 -58.054750205999937 39.901633804264812 -11.232784225003202 #
face $-1 $332 $413 $17 $-1 $532 reversed single #
loop $-1 $-1 $468 $390 #
plane-surface $-1 0 -39.901633804264812 0 0 1 0 0 0 1 forward_v I I I I #
coedge $-1 $533 $481 $534 $535 forward $391 $-1 #
coedge $-1 $536 $393 $533 $537 reversed $318 $-1 #
coedge $-1 $393 $536 $395 $470 reversed $318 $-1 #
coedge $-1 $491 $483 $393 $466 reversed $413 $-1 #
edge $-1 $538 -2.2435058552975082 $539 2.2435058552975082 $465 $540 forward 7 unknown #
coedge $-1 $395 $394 $491 $541 forward $229 $-1 #
coedge $-1 $488 $487 $394 $469 forward $460 $-1 #
edge $-1 $542 -58.054750205999937 $475 58.054750205999937 $468 $543 forward 7 unknown #
edge $-1 $538 -58.054750205999937 $474 58.054750205999937 $464 $544 forward 7 unknown #
coedge $-1 $534 $396 $536 $545 forward $473 $-1 #
coedge $-1 $396 $477 $488 $546 forward $473 $-1 #
loop $-1 $-1 $472 $408 #
vertex $-1 $397 $547 #
vertex $-1 $397 $548 #
straight-curve $-1 58.054750205999937 -44.57319611111614 -6.7457725144081859 0 1 0 I I #
coedge $-1 $472 $549 $398 $478 reversed $473 $-1 #
edge $-1 $489 -39.901633804264812 $480 39.901633804264812 $477 $550 forward 7 unknown #
coedge $-1 $405 $399 $549 $551 forward $243 $-1 #
vertex $-1 $478 $552 #
coedge $-1 $462 $553 $405 $482 forward $391 $-1 #
edge $-1 $484 -58.054750205999937 $554 58.054750205999937 $405 $555 forward 7 unknown #
coedge $-1 $465 $406 $553 $556 reversed $413 $-1 #
vertex $-1 $482 $557 #
straight-curve $-1 -58.054750205999937 39.901633804264812 0 0 0 -1 I I #
plane-surface $-1 58.054750205999937 0 0 -1 0 0 0 0 1 forward_v I I I I #
coedge $-1 $468 $410 $412 $492 forward $460 $-1 #
coedge $-1 $410 $468 $472 $546 reversed $460 $-1 #
vertex $-1 $478 $558 #
straight-curve $-1 0 -39.901633804264812 11.232784225003202 1 0 0 I I #
coedge $-1 $412 $465 $467 $541 reversed $413 $-1 #
edge $-1 $414 -11.232784225003202 $542 6.7457725144081859 $412 $559 forward 7 unknown #
point $-1 -58.054750205999937 -39.901633804264812 11.232784225003202 #
face $-1 $560 $561 $18 $-1 $562 reversed single #
loop $-1 $-1 $563 $417 #
plane-surface $-1 0 -49.244758417967468 -8.9892783697056942 0 1 0 0 0 1 forward_v I I I I #
coedge $-1 $564 $565 $566 $567 forward $418 $-1 #
coedge $-1 $420 $568 $569 $570 forward $339 $-1 #
coedge $-1 $569 $429 $421 $500 forward $431 $-1 #
edge $-1 $571 -66.671383234936656 $502 -57.862429980684723 $499 $572 forward 7 unknown #
edge $-1 $571 -79.803267608529623 $503 -68.303995943434543 $422 $573 forward 7 unknown #
vertex $-1 $500 $574 #
vertex $-1 $425 $575 #
straight-curve $-1 -1.859752858839073 38.775060753600783 11.232784225003201 0 -1 0 I I #
straight-curve $-1 -6.5079480505951075 32.510044571084791 11.232784225003194 -1 0 0 I I #
edge $-1 $427 -17.664091292946249 $571 4.6481951917560345 $429 $576 forward 7 unknown #
point $-1 -24.172039343541357 39.901633804264812 2.4238309707512755 #
coedge $-1 $430 $577 $578 $579 reversed $431 $-1 #
face $-1 $580 $431 $18 $-1 $581 reversed single #
coedge $-1 $568 $433 $582 $583 forward $339 $-1 #
coedge $-1 $578 $584 $433 $512 reversed $585 $-1 #
edge $-1 $513 -39.901633804264812 $586 39.901633804264812 $511 $587 forward 7 unknown #
vertex $-1 $434 $588 #
straight-curve $-1 0 39.901633804264812 11.232784225003202 -1 0 0 I I #
face $-1 $589 $590 $19 $-1 $591 forward single #
loop $-1 $-1 $592 $438 #
plane-surface $-1 0 0 11.232784225003202 0 0 1 1 0 0 forward_v I I I I #
coedge $-1 $593 $594 $592 $595 reversed $439 $-1 #
coedge $-1 $450 $596 $441 $520 reversed $363 $-1 #
edge $-1 $525 68.303995943434543 $597 79.803267608529623 $441 $598 forward 7 unknown #
coedge $-1 $599 $600 $442 $522 forward $601 $-1 #
edge $-1 $526 57.862429980684723 $597 66.671383234936656 $521 $602 forward 7 unknown #
coedge $-1 $603 $443 $600 $604 forward $516 $-1 #
coedge $-1 $443 $592 $450 $531 forward $516 $-1 #
vertex $-1 $531 $605 #
vertex $-1 $604 $606 #
straight-curve $-1 -24.172039343541357 38.775060753600783 11.232784225003201 0 1 0 I I #
vertex $-1 $445 $607 #
point $-1 -16.297100347912135 34.426919713925088 5.3356169626401959 #
coedge $-1 $596 $450 $594 $608 reversed $363 $-1 #
edge $-1 $609 -4.6481951917560345 $525 17.664091292946249 $524 $610 forward 7 unknown #
plane-surface $-1 -58.054750205999937 0 0 1 0 0 0 0 -1 forward_v I I I I #
coedge $-1 $553 $462 $463 $537 forward $391 $-1 #
coedge $-1 $549 $471 $462 $535 reversed $473 $-1 #
edge $-1 $554 -39.901633804264812 $611 49.244758417967468 $534 $612 forward 7 unknown #
coedge $-1 $464 $463 $471 $545 reversed $318 $-1 #
edge $-1 $611 -58.054750205999937 $539 58.054750205999937 $463 $613 forward 7 unknown #
vertex $-1 $541 $614 #
vertex $-1 $556 $615 #
straight-curve $-1 -58.054750205999937 -49.244758417967468 -8.9892783697056942 0 0 -1 I I #
edge $-1 $542 -4.6715623068513281 $538 4.6715623068513281 $491 $616 forward 7 unknown #
vertex $-1 $492 $617 #
straight-curve $-1 0 -39.901633804264812 -6.7457725144081859 1 0 0 I I #
straight-curve $-1 0 -49.244758417967468 -6.7457725144081859 1 0 0 I I #
edge $-1 $474 -2.2435058552975082 $611 2.2435058552975082 $471 $618 forward 7 unknown #
edge $-1 $489 -11.232784225003202 $475 6.7457725144081859 $472 $619 forward 7 unknown #
point $-1 58.054750205999937 -49.244758417967468 -6.7457725144081859 #
point $-1 58.054750205999937 -39.901633804264812 -6.7457725144081859 #
coedge $-1 $477 $534 $479 $551 reversed $473 $-1 #
straight-curve $-1 58.054750205999937 0 11.232784225003202 0 1 0 I I #
edge $-1 $480 -11.232784225003202 $554 11.232784225003202 $549 $620 forward 7 unknown #
point $-1 58.054750205999937 39.901633804264812 11.232784225003202 #
coedge $-1 $481 $533 $483 $556 forward $391 $-1 #
vertex $-1 $535 $621 #
straight-curve $-1 0 39.901633804264812 -11.232784225003202 1 0 0 I I #
edge $-1 $539 -49.244758417967468 $484 39.901633804264812 $483 $622 forward 7 unknown #
point $-1 -58.054750205999937 39.901633804264812 -11.232784225003202 #
point $-1 58.054750205999937 -39.901633804264812 11.232784225003202 #
straight-curve $-1 -58.054750205999937 -39.901633804264812 0 0 0 -1 I I #
face $-1 $623 $624 $18 $-1 $625 reversed single #
loop $-1 $-1 $626 $494 #
plane-surface $-1 0 0 -11.232784225003202 0 0 1 1 0 0 forward_v I I I I #
coedge $-1 $627 $628 $629 $630 forward $495 $-1 #
coedge $-1 $631 $497 $632 $633 reversed $418 $-1 #
coedge $-1 $497 $631 $628 $634 forward $418 $-1 #
coedge $-1 $635 $636 $497 $567 reversed $637 $-1 #
edge $-1 $638 -4.6715623068513281 $639 4.6715623068513281 $566 $640 forward 7 unknown #
coedge $-1 $498 $510 $641 $642 forward $339 $-1 #
coedge $-1 $643 $499 $498 $570 reversed $431 $-1 #
edge $-1 $644 -58.054750205999937 $502 1.859752858839073 $569 $514 forward 7 unknown #
vertex $-1 $506 $645 #
straight-curve $-1 -1.859752858839073 39.901633804264812 69.095214205687924 0 0 1 I I #
straight-curve $-1 -1.859752858839073 -11.394917038889318 63.556681326303092 0 -0.64278759981090561 0.7660444514056185 I I #
point $-1 -1.859752858839073 39.901633804264812 11.232784225003202 #
point $-1 -1.859752858839073 32.510044571084798 11.232784225003201 #
straight-curve $-1 -6.5079480505951075 39.901633804264812 2.4238309707512684 1 0 0 I I #
coedge $-1 $508 $643 $646 $647 reversed $431 $-1 #
coedge $-1 $648 $511 $508 $579 forward $585 $-1 #
edge $-1 $513 -11.232784225003202 $649 11.232784225003202 $508 $650 forward 7 unknown #
face $-1 $-1 $637 $18 $-1 $651 reversed single #
plane-surface $-1 0 39.901633804264812 0 0 -1 0 0 0 -1 forward_v I I I I #
coedge $-1 $652 $653 $510 $583 reversed $624 $-1 #
edge $-1 $586 -58.054750205999937 $654 58.054750205999937 $582 $655 forward 7 unknown #
coedge $-1 $511 $656 $652 $657 reversed $585 $-1 #
loop $-1 $-1 $578 $623 #
vertex $-1 $512 $658 #
straight-curve $-1 -58.054750205999937 0 11.232784225003202 0 -1 0 I I #
point $-1 -58.054750205999937 39.901633804264812 11.232784225003202 #
face $-1 $659 $660 $19 $-1 $661 reversed single #
loop $-1 $-1 $662 $515 #
plane-surface $-1 0 -44.57319611111614 -6.7457725144081859 0 0 1 1 0 0 forward_v I I I I #
coedge $-1 $524 $663 $518 $595 forward $516 $-1 #
coedge $-1 $594 $518 $664 $665 reversed $439 $-1 #
coedge $-1 $518 $593 $530 $608 forward $439 $-1 #
edge $-1 $666 -1.1265730506640281 $609 6.2650161825159856 $592 $667 forward 7 unknown #
coedge $-1 $519 $530 $599 $668 reversed $363 $-1 #
vertex $-1 $668 $669 #
straight-curve $-1 -24.172039343541357 -11.394917038889318 63.556681326303092 0 0.64278759981090561 -0.7660444514056185 I I #
coedge $-1 $664 $521 $596 $668 forward $601 $-1 #
coedge $-1 $521 $670 $523 $604 reversed $601 $-1 #
loop $-1 $-1 $664 $671 #
straight-curve $-1 -24.172039343541357 39.901633804264812 69.095214205687924 0 0 -1 I I #
coedge $-1 $672 $523 $673 $674 forward $516 $-1 #
edge $-1 $526 24.172039343541357 $675 58.054750205999937 $600 $676 forward 7 unknown #
point $-1 -24.172039343541357 32.510044571084798 11.232784225003201 #
point $-1 -24.172039343541357 39.901633804264812 11.232784225003202 #
point $-1 -17.797100347912135 33.277853036816666 4.3714355629238382 #
edge $-1 $677 -79.803267608529623 $609 -68.303995943434543 $594 $678 forward 7 unknown #
vertex $-1 $531 $679 #
straight-curve $-1 -6.5079480505951075 32.510044571084791 11.232784225003194 -1 0 0 I I #
vertex $-1 $545 $680 #
straight-curve $-1 58.054750205999937 0 -11.232784225003202 0 -1 0 I I #
straight-curve $-1 0 -49.244758417967468 -11.232784225003202 -1 0 0 I I #
point $-1 -58.054750205999937 -49.244758417967468 -6.7457725144081859 #
point $-1 -58.054750205999937 -49.244758417967468 -11.232784225003202 #
straight-curve $-1 -58.054750205999937 -44.57319611111614 -6.7457725144081859 0 -1 0 I I #
point $-1 -58.054750205999937 -39.901633804264812 -6.7457725144081859 #
straight-curve $-1 58.054750205999937 -49.244758417967468 -8.9892783697056942 0 0 -1 I I #
straight-curve $-1 58.054750205999937 -39.901633804264812 0 0 0 -1 I I #
straight-curve $-1 58.054750205999937 39.901633804264812 0 0 0 -1 I I #
point $-1 58.054750205999937 39.901633804264812 -11.232784225003202 #
straight-curve $-1 -58.054750205999937 0 -11.232784225003202 0 1 0 I I #
face $-1 $509 $585 $18 $-1 $681 reversed single #
loop $-1 $-1 $632 $560 #
plane-surface $-1 0 -39.901633804264812 0 0 1 0 0 0 1 forward_v I I I I #
coedge $-1 $682 $646 $683 $684 forward $561 $-1 #
coedge $-1 $685 $563 $682 $686 reversed $495 $-1 #
coedge $-1 $563 $685 $565 $634 reversed $495 $-1 #
coedge $-1 $656 $648 $563 $630 reversed $585 $-1 #
edge $-1 $687 -2.2435058552975082 $688 2.2435058552975082 $629 $689 forward 7 unknown #
coedge $-1 $565 $564 $656 $690 forward $418 $-1 #
coedge $-1 $653 $652 $564 $633 forward $624 $-1 #
edge $-1 $691 -58.054750205999937 $639 58.054750205999937 $632 $692 forward 7 unknown #
edge $-1 $687 -58.054750205999937 $638 58.054750205999937 $628 $693 forward 7 unknown #
coedge $-1 $683 $566 $685 $694 forward $637 $-1 #
coedge $-1 $566 $641 $653 $695 forward $637 $-1 #
loop $-1 $-1 $636 $580 #
vertex $-1 $567 $696 #
vertex $-1 $567 $697 #
straight-curve $-1 58.054750205999937 -44.57319611111614 -6.7457725144081859 0 1 0 I I #
coedge $-1 $636 $698 $568 $642 reversed $637 $-1 #
edge $-1 $654 -39.901633804264812 $644 39.901633804264812 $641 $699 forward 7 unknown #
coedge $-1 $577 $569 $698 $700 forward $431 $-1 #
vertex $-1 $642 $701 #
point $-1 -1.859752858839073 39.901633804264812 2.4238309707512755 #
coedge $-1 $626 $702 $577 $647 forward $561 $-1 #
edge $-1 $649 -58.054750205999937 $703 58.054750205999937 $577 $704 forward 7 unknown #
coedge $-1 $629 $578 $702 $705 reversed $585 $-1 #
vertex $-1 $647 $706 #
straight-curve $-1 -58.054750205999937 39.901633804264812 0 0 0 -1 I I #
plane-surface $-1 58.054750205999937 0 0 -1 0 0 0 0 1 forward_v I I I I #
coedge $-1 $632 $582 $584 $657 forward $624 $-1 #
coedge $-1 $582 $632 $636 $695 reversed $624 $-1 #
vertex $-1 $642 $707 #
straight-curve $-1 0 -39.901633804264812 11.232784225003202 1 0 0 I I #
coedge $-1 $584 $629 $631 $690 reversed $585 $-1 #
edge $-1 $586 -11.232784225003202 $691 6.7457725144081859 $584 $708 forward 7 unknown #
point $-1 -58.054750205999937 -39.901633804264812 11.232784225003202 #
face $-1 $709 $710 $19 $-1 $711 reversed single #
loop $-1 $-1 $712 $589 #
plane-surface $-1 0 -49.244758417967468 -8.9892783697056942 0 1 0 0 0 1 forward_v I I I I #
coedge $-1 $713 $714 $715 $716 forward $590 $-1 #
coedge $-1 $592 $717 $718 $719 forward $516 $-1 #
coedge $-1 $718 $599 $593 $665 forward $601 $-1 #
edge $-1 $677 -66.671383234936656 $666 -57.862429980684723 $664 $720 forward 7 unknown #
vertex $-1 $665 $721 #
straight-curve $-1 -1.859752858839073 38.775060753600783 11.232784225003201 0 -1 0 I I #
edge $-1 $597 -17.664091292946249 $677 4.6481951917560345 $599 $722 forward 7 unknown #
point $-1 -24.172039343541357 39.901633804264812 2.4238309707512755 #
coedge $-1 $600 $723 $724 $725 reversed $601 $-1 #
face $-1 $726 $601 $19 $-1 $727 reversed single #
coedge $-1 $717 $603 $728 $729 forward $516 $-1 #
coedge $-1 $724 $730 $603 $674 reversed $731 $-1 #
edge $-1 $675 -39.901633804264812 $732 39.901633804264812 $673 $733 forward 7 unknown #
vertex $-1 $604 $734 #
straight-curve $-1 0 39.901633804264812 11.232784225003202 -1 0 0 I I #
vertex $-1 $668 $735 #
straight-curve $-1 -1.859752858839073 -11.394917038889318 63.556681326303092 0 -0.64278759981090561 0.7660444514056185 I I #
point $-1 -1.859752858839073 32.510044571084798 11.232784225003201 #
point $-1 58.054750205999937 -49.244758417967468 -11.232784225003202 #
plane-surface $-1 -58.054750205999937 0 0 1 0 0 0 0 -1 forward_v I I I I #
coedge $-1 $702 $626 $627 $686 forward $561 $-1 #
coedge $-1 $698 $635 $626 $684 reversed $637 $-1 #
edge $-1 $703 -39.901633804264812 $736 49.244758417967468 $683 $737 forward 7 unknown #
coedge $-1 $628 $627 $635 $694 reversed $495 $-1 #
edge $-1 $736 -58.054750205999937 $688 58.054750205999937 $627 $738 forward 7 unknown #
vertex $-1 $690 $739 #
vertex $-1 $705 $740 #
straight-curve $-1 -58.054750205999937 -49.244758417967468 -8.9892783697056942 0 0 -1 I I #
edge $-1 $691 -4.6715623068513281 $687 4.6715623068513281 $656 $741 forward 7 unknown #
vertex $-1 $657 $742 #
straight-curve $-1 0 -39.901633804264812 -6.7457725144081859 1 0 0 I I #
straight-curve $-1 0 -49.244758417967468 -6.7457725144081859 1 0 0 I I #
edge $-1 $638 -2.2435058552975082 $736 2.2435058552975082 $635 $743 forward 7 unknown #
edge $-1 $654 -11.232784225003202 $639 6.7457725144081859 $636 $744 forward 7 unknown #
point $-1 58.054750205999937 -49.244758417967468 -6.7457725144081859 #
point $-1 58.054750205999937 -39.901633804264812 -6.7457725144081859 #
coedge $-1 $641 $683 $643 $700 reversed $637 $-1 #
straight-curve $-1 58.054750205999937 0 11.232784225003202 0 1 0 I I #
edge $-1 $644 -11.232784225003202 $703 11.232784225003202 $698 $745 forward 7 unknown #
point $-1 58.054750205999937 39.901633804264812 11.232784225003202 #
coedge $-1 $646 $682 $648 $705 forward $561 $-1 #
vertex $-1 $684 $746 #
straight-curve $-1 0 39.901633804264812 -11.232784225003202 1 0 0 I I #
edge $-1 $688 -49.244758417967468 $649 39.901633804264812 $648 $747 forward 7 unknown #
point $-1 -58.054750205999937 39.901633804264812 -11.232784225003202 #
point $-1 58.054750205999937 -39.901633804264812 11.232784225003202 #
straight-curve $-1 -58.054750205999937 -39.901633804264812 0 0 0 -1 I I #
face $-1 $748 $749 $19 $-1 $750 reversed single #
loop $-1 $-1 $751 $659 #
plane-surface $-1 0 0 -11.232784225003202 0 0 1 1 0 0 forward_v I I I I #
coedge $-1 $752 $753 $754 $755 forward $660 $-1 #
coedge $-1 $756 $662 $757 $758 reversed $590 $-1 #
coedge $-1 $662 $756 $753 $759 forward $590 $-1 #
coedge $-1 $760 $761 $662 $716 reversed $762 $-1 #
edge $-1 $763 -4.6715623068513281 $764 4.6715623068513281 $715 $765 forward 7 unknown #
coedge $-1 $663 $672 $766 $767 forward $516 $-1 #
coedge $-1 $768 $664 $663 $719 reversed $601 $-1 #
edge $-1 $769 -58.054750205999937 $666 1.859752858839073 $718 $676 forward 7 unknown #
straight-curve $-1 -1.859752858839073 39.901633804264812 69.095214205687924 0 0 1 I I #
point $-1 -1.859752858839073 39.901633804264812 11.232784225003202 #
straight-curve $-1 -6.5079480505951075 39.901633804264812 2.4238309707512684 1 0 0 I I #
coedge $-1 $670 $768 $770 $771 reversed $601 $-1 #
coedge $-1 $772 $673 $670 $725 forward $731 $-1 #
edge $-1 $675 -11.232784225003202 $773 11.232784225003202 $670 $774 forward 7 unknown #
face $-1 $-1 $762 $19 $-1 $775 reversed single #
plane-surface $-1 0 39.901633804264812 0 0 -1 0 0 0 -1 forward_v I I I I #
coedge $-1 $776 $777 $672 $729 reversed $749 $-1 #
edge $-1 $732 -58.054750205999937 $778 58.054750205999937 $728 $779 forward 7 unknown #
coedge $-1 $673 $780 $776 $781 reversed $731 $-1 #
loop $-1 $-1 $724 $748 #
vertex $-1 $674 $782 #
straight-curve $-1 -58.054750205999937 0 11.232784225003202 0 -1 0 I I #
point $-1 -58.054750205999937 39.901633804264812 11.232784225003202 #
point $-1 -1.859752858839073 39.901633804264812 2.4238309707512755 #
vertex $-1 $694 $783 #
straight-curve $-1 58.054750205999937 0 -11.232784225003202 0 -1 0 I I #
straight-curve $-1 0 -49.244758417967468 -11.232784225003202 -1 0 0 I I #
point $-1 -58.054750205999937 -49.244758417967468 -6.7457725144081859 #
point $-1 -58.054750205999937 -49.244758417967468 -11.232784225003202 #
straight-curve $-1 -58.054750205999937 -44.57319611111614 -6.7457725144081859 0 -1 0 I I #
point $-1 -58.054750205999937 -39.901633804264812 -6.7457725144081859 #
straight-curve $-1 58.054750205999937 -49.244758417967468 -8.9892783697056942 0 0 -1 I I #
straight-curve $-1 58.054750205999937 -39.901633804264812 0 0 0 -1 I I #
straight-curve $-1 58.054750205999937 39.901633804264812 0 0 0 -1 I I #
point $-1 58.054750205999937 39.901633804264812 -11.232784225003202 #
straight-curve $-1 -58.054750205999937 0 -11.232784225003202 0 1 0 I I #
face $-1 $671 $731 $19 $-1 $784 reversed single #
loop $-1 $-1 $757 $709 #
plane-surface $-1 0 -39.901633804264812 0 0 1 0 0 0 1 forward_v I I I I #
coedge $-1 $785 $770 $786 $787 forward $710 $-1 #
coedge $-1 $788 $712 $785 $789 reversed $660 $-1 #
coedge $-1 $712 $788 $714 $759 reversed $660 $-1 #
coedge $-1 $780 $772 $712 $755 reversed $731 $-1 #
edge $-1 $790 -2.2435058552975082 $791 2.2435058552975082 $754 $792 forward 7 unknown #
coedge $-1 $714 $713 $780 $793 forward $590 $-1 #
coedge $-1 $777 $776 $713 $758 forward $749 $-1 #
edge $-1 $794 -58.054750205999937 $764 58.054750205999937 $757 $795 forward 7 unknown #
edge $-1 $790 -58.054750205999937 $763 58.054750205999937 $753 $796 forward 7 unknown #
coedge $-1 $786 $715 $788 $797 forward $762 $-1 #
coedge $-1 $715 $766 $777 $798 forward $762 $-1 #
loop $-1 $-1 $761 $726 #
vertex $-1 $716 $799 #
vertex $-1 $716 $800 #
straight-curve $-1 58.054750205999937 -44.57319611111614 -6.7457725144081859 0 1 0 I I #
coedge $-1 $761 $801 $717 $767 reversed $762 $-1 #
edge $-1 $778 -39.901633804264812 $769 39.901633804264812 $766 $802 forward 7 unknown #
coedge $-1 $723 $718 $801 $803 forward $601 $-1 #
vertex $-1 $767 $804 #
coedge $-1 $751 $805 $723 $771 forward $710 $-1 #
edge $-1 $773 -58.054750205999937 $806 58.054750205999937 $723 $807 forward 7 unknown #
coedge $-1 $754 $724 $805 $808 reversed $731 $-1 #
vertex $-1 $771 $809 #
straight-curve $-1 -58.054750205999937 39.901633804264812 0 0 0 -1 I I #
plane-surface $-1 58.054750205999937 0 0 -1 0 0 0 0 1 forward_v I I I I #
coedge $-1 $757 $728 $730 $781 forward $749 $-1 #
coedge $-1 $728 $757 $761 $798 reversed $749 $-1 #
vertex $-1 $767 $810 #
straight-curve $-1 0 -39.901633804264812 11.232784225003202 1 0 0 I I #
coedge $-1 $730 $754 $756 $793 reversed $731 $-1 #
edge $-1 $732 -11.232784225003202 $794 6.7457725144081859 $730 $811 forward 7 unknown #
point $-1 -58.054750205999937 -39.901633804264812 11.232784225003202 #
point $-1 58.054750205999937 -49.244758417967468 -11.232784225003202 #
plane-surface $-1 -58.054750205999937 0 0 1 0 0 0 0 -1 forward_v I I I I #
coedge $-1 $805 $751 $752 $789 forward $710 $-1 #
coedge $-1 $801 $760 $751 $787 reversed $762 $-1 #
edge $-1 $806 -39.901633804264812 $812 49.244758417967468 $786 $813 forward 7 unknown #
coedge $-1 $753 $752 $760 $797 reversed $660 $-1 #
edge $-1 $812 -58.054750205999937 $791 58.054750205999937 $752 $814 forward 7 unknown #
vertex $-1 $793 $815 #
vertex $-1 $808 $816 #
straight-curve $-1 -58.054750205999937 -49.244758417967468 -8.9892783697056942 0 0 -1 I I #
edge $-1 $794 -4.6715623068513281 $790 4.6715623068513281 $780 $817 forward 7 unknown #
vertex $-1 $781 $818 #
straight-curve $-1 0 -39.901633804264812 -6.7457725144081859 1 0 0 I I #
straight-curve $-1 0 -49.244758417967468 -6.7457725144081859 1 0 0 I I #
edge $-1 $763 -2.2435058552975082 $812 2.2435058552975082 $760 $819 forward 7 unknown #
edge $-1 $778 -11.232784225003202 $764 6.7457725144081859 $761 $820 forward 7 unknown #
point $-1 58.054750205999937 -49.244758417967468 -6.7457725144081859 #
point $-1 58.054750205999937 -39.901633804264812 -6.7457725144081859 #
coedge $-1 $766 $786 $768 $803 reversed $762 $-1 #
straight-curve $-1 58.054750205999937 0 11.232784225003202 0 1 0 I I #
edge $-1 $769 -11.232784225003202 $806 11.232784225003202 $801 $821 forward 7 unknown #
point $-1 58.054750205999937 39.901633804264812 11.232784225003202 #
coedge $-1 $770 $785 $772 $808 forward $710 $-1 #
vertex $-1 $787 $822 #
straight-curve $-1 0 39.901633804264812 -11.232784225003202 1 0 0 I I #
edge $-1 $791 -49.244758417967468 $773 39.901633804264812 $772 $823 forward 7 unknown #
point $-1 -58.054750205999937 39.901633804264812 -11.232784225003202 #
point $-1 58.054750205999937 -39.901633804264812 11.232784225003202 #
straight-curve $-1 -58.054750205999937 -39.901633804264812 0 0 0 -1 I I #
vertex $-1 $797 $824 #
straight-curve $-1 58.054750205999937 0 -11.232784225003202 0 -1 0 I I #
straight-curve $-1 0 -49.244758417967468 -11.232784225003202 -1 0 0 I I #
point $-1 -58.054750205999937 -49.244758417967468 -6.7457725144081859 #
point $-1 -58.054750205999937 -49.244758417967468 -11.232784225003202 #
straight-curve $-1 -58.054750205999937 -44.57319611111614 -6.7457725144081859 0 -1 0 I I #
point $-1 -58.054750205999937 -39.901633804264812 -6.7457725144081859 #
straight-curve $-1 58.054750205999937 -49.244758417967468 -8.9892783697056942 0 0 -1 I I #
straight-curve $-1 58.054750205999937 -39.901633804264812 0 0 0 -1 I I #
straight-curve $-1 58.054750205999937 39.901633804264812 0 0 0 -1 I I #
point $-1 58.054750205999937 39.901633804264812 -11.232784225003202 #
straight-curve $-1 -58.054750205999937 0 -11.232784225003202 0 1 0 I I #
point $-1 58.054750205999937 -49.244758417967468 -11.232784225003202 #
End-of-ACIS-data 