500 0 8 0           
7 Unknown 11 ACIS 5.0 NT 24 Fri Mar 26 17:28:58 1999 
-1 9.9999999999999995e-007 1e-010 
body $-1 $8 $-1 $9 #
body $-1 $10 $-1 $11 #
body $-1 $12 $-1 $13 #
body $-1 $14 $-1 $15 #
body $-1 $16 $-1 $17 #
body $-1 $18 $-1 $19 #
body $-1 $20 $-1 $21 #
body $-1 $22 $-1 $23 #
lump $-1 $-1 $24 $0 #
transform $-1 1 0 0 0 1 0 0 0 1 65.348673970763258 31.085642454752946 12.146614939838095 1 rotate no_reflect no_shear #
lump $-1 $-1 $25 $1 #
transform $-1 1 0 0 0 1 0 0 0 1 65.348673970763258 31.085642454752946 12.146614939838095 1 rotate no_reflect no_shear #
lump $-1 $-1 $26 $2 #
transform $-1 1 0 0 0 1 0 0 0 1 65.348673970763258 31.085642454752946 12.146614939838095 1 rotate no_reflect no_shear #
lump $-1 $-1 $27 $3 #
transform $-1 1 0 0 0 1 0 0 0 1 65.348673970763258 31.085642454752946 12.146614939838095 1 rotate no_reflect no_shear #
lump $-1 $-1 $28 $4 #
transform $-1 1 0 0 0 1 0 0 0 1 65.348673970763258 31.085642454752946 12.146614939838095 1 rotate no_reflect no_shear #
lump $-1 $-1 $29 $5 #
transform $-1 1 0 0 0 1 0 0 0 1 65.348673970763258 31.085642454752946 12.146614939838095 1 rotate no_reflect no_shear #
lump $-1 $-1 $30 $6 #
transform $-1 1 0 0 0 1 0 0 0 1 65.348673970763258 31.085642454752946 12.146614939838095 1 rotate no_reflect no_shear #
lump $-1 $-1 $31 $7 #
transform $-1 1 0 0 0 1 0 0 0 1 65.348673970763258 31.085642454752946 12.146614939838095 1 rotate no_reflect no_shear #
shell $-1 $-1 $-1 $32 $-1 $8 #
shell $-1 $-1 $-1 $33 $-1 $10 #
shell $-1 $-1 $-1 $34 $-1 $12 #
shell $-1 $-1 $-1 $35 $-1 $14 #
shell $-1 $-1 $-1 $36 $-1 $16 #
shell $-1 $-1 $-1 $37 $-1 $18 #
shell $-1 $-1 $-1 $38 $-1 $20 #
shell $-1 $-1 $-1 $39 $-1 $22 #
face $-1 $40 $41 $24 $-1 $42 reversed single #
face $-1 $43 $44 $25 $-1 $45 forward single #
face $-1 $46 $47 $26 $-1 $48 forward single #
face $-1 $49 $50 $27 $-1 $51 reversed single #
face $-1 $52 $53 $28 $-1 $54 forward single #
face $-1 $55 $56 $29 $-1 $57 forward single #
face $-1 $58 $59 $30 $-1 $60 reversed single #
face $-1 $61 $62 $31 $-1 $63 forward single #
face $-1 $64 $65 $24 $-1 $66 forward single #
loop $-1 $-1 $67 $32 #
plane-surface $-1 65.348673970763258 0 0 -1 0 0 0 0 1 forward_v I I I I #
face $-1 $68 $69 $25 $-1 $70 forward single #
loop $-1 $-1 $71 $33 #
plane-surface $-1 -65.348673970763258 0 0 1 0 0 0 0 -1 forward_v I I I I #
face $-1 $72 $73 $26 $-1 $74 reversed single #
loop $-1 $-1 $75 $34 #
plane-surface $-1 65.348673970763258 0 0 -1 0 0 0 0 1 forward_v I I I I #
face $-1 $76 $77 $27 $-1 $78 reversed single #
loop $-1 $-1 $79 $35 #
plane-surface $-1 52.084201242663255 -145.3961196318389 69.654331774976953 -1 0 0 0 -0.87461971476443456 0.48480960649040278 forward_v I I I I #
face $-1 $80 $81 $28 $-1 $82 forward single #
loop $-1 $83 $84 $36 #
cone-surface $-1 41.286509081604521 -27.758469616153857 8.2741199301613619 0 0.87461971476443456 -0.48480960649040278 1.5 0 0 1 I I 0 1 1.5 forward I I I I #
face $-1 $85 $86 $29 $-1 $87 forward single #
loop $-1 $88 $89 $37 #
cone-surface $-1 47.765124378239761 -27.758469616153857 8.2741199301613619 0 0.87461971476443456 -0.48480960649040278 1.5 0 0 1 I I 0 1 1.5 forward I I I I #
face $-1 $90 $91 $30 $-1 $92 reversed single #
loop $-1 $-1 $93 $38 #
plane-surface $-1 -52.084201242663255 65.019986999258563 141.60713123646619 1 0 0 0 -0.62932039886446345 -0.77714595512881146 forward_v I I I I #
face $-1 $94 $95 $31 $-1 $96 forward single #
loop $-1 $97 $98 $39 #
cone-surface $-1 -37.879028927672294 23.344629249844871 5.5365615090957485 0 -0.62932039886446345 -0.77714595512881146 2 0 0 1 I I 0 1 2 forward I I I I #
face $-1 $99 $100 $24 $-1 $101 reversed single #
loop $-1 $-1 $102 $40 #
plane-surface $-1 0 0 12.146614939838095 0 0 1 1 0 0 forward_v I I I I #
coedge $-1 $103 $104 $105 $106 reversed $41 $-1 #
face $-1 $107 $108 $25 $-1 $109 reversed single #
loop $-1 $-1 $110 $43 #
plane-surface $-1 0 0 12.146614939838095 0 0 1 1 0 0 forward_v I I I I #
coedge $-1 $111 $112 $113 $114 forward $44 $-1 #
face $-1 $115 $116 $26 $-1 $117 reversed single #
loop $-1 $-1 $118 $46 #
plane-surface $-1 0 -31.085642454752946 0 0 1 0 0 0 1 forward_v I I I I #
coedge $-1 $119 $120 $121 $122 forward $47 $-1 #
face $-1 $123 $124 $27 $-1 $125 reversed single #
loop $-1 $-1 $126 $49 #
plane-surface $-1 44.525816729922141 -31.085642454752914 6.291001950106228 0 -0.87461971476443456 0.48480960649040278 1 0 0 forward_v I I I I #
coedge $-1 $127 $128 $129 $130 reversed $50 $-1 #
face $-1 $-1 $131 $28 $-1 $132 forward single #
loop $-1 $133 $134 $52 #
cone-surface $-1 41.286509081604521 -25.39824157229085 6.9658242104827508 0 0.87461971476443456 -0.48480960649040278 0.75 0 0 1 I I -0.70710678118654757 0.70710678118654757 0.75 forward I I I I #
loop $-1 $-1 $135 $36 #
coedge $-1 $84 $84 $136 $137 reversed $53 $-1 #
face $-1 $-1 $138 $29 $-1 $139 forward single #
loop $-1 $140 $141 $55 #
cone-surface $-1 47.765124378239761 -25.39824157229085 6.9658242104827508 0 0.87461971476443456 -0.48480960649040278 0.75 0 0 1 I I -0.70710678118654757 0.70710678118654757 0.75 forward I I I I #
loop $-1 $-1 $142 $37 #
coedge $-1 $89 $89 $143 $144 reversed $56 $-1 #
face $-1 $145 $146 $30 $-1 $147 reversed single #
loop $-1 $-1 $148 $58 #
plane-surface $-1 -37.879028927672294 -17.230520137830467 40.036215937645963 0 0.62932039886446345 0.77714595512881146 1 0 0 forward_v I I I I #
coedge $-1 $149 $150 $151 $152 reversed $59 $-1 #
face $-1 $-1 $153 $31 $-1 $154 forward single #
loop $-1 $155 $156 $61 #
cone-surface $-1 -37.879028927672294 21.911982811876921 3.7673905329038924 0 -0.62932039886446345 -0.77714595512881146 1 0 0 1 I I -0.70710678118654746 0.70710678118654746 1 forward I I I I #
loop $-1 $-1 $157 $39 #
coedge $-1 $98 $98 $158 $159 reversed $62 $-1 #
face $-1 $160 $161 $24 $-1 $162 reversed single #
loop $-1 $-1 $105 $64 #
plane-surface $-1 0 0 -12.146614939838095 0 0 1 1 0 0 forward_v I I I I #
coedge $-1 $163 $164 $165 $166 forward $65 $-1 #
coedge $-1 $165 $67 $167 $168 reversed $41 $-1 #
coedge $-1 $67 $165 $169 $170 forward $41 $-1 #
coedge $-1 $171 $172 $67 $106 forward $100 $-1 #
edge $-1 $173 -31.085642454752946 $174 31.085642454752946 $67 $175 forward 7 unknown #
face $-1 $176 $177 $25 $-1 $178 reversed single #
loop $-1 $-1 $179 $68 #
plane-surface $-1 -78.613146698863261 -28.817164714210961 0 1 0 0 0 0 -1 forward_v I I I I #
coedge $-1 $180 $181 $111 $182 forward $69 $-1 #
coedge $-1 $183 $71 $110 $182 reversed $44 $-1 #
coedge $-1 $71 $183 $184 $185 reversed $44 $-1 #
coedge $-1 $186 $187 $71 $114 reversed $177 $-1 #
edge $-1 $188 -12.146614939838095 $189 12.146614939838095 $113 $190 forward 7 unknown #
face $-1 $191 $192 $26 $-1 $193 reversed single #
loop $-1 $-1 $194 $72 #
plane-surface $-1 0 0 -12.146614939838095 0 0 1 1 0 0 forward_v I I I I #
coedge $-1 $195 $196 $197 $198 forward $73 $-1 #
coedge $-1 $197 $75 $194 $199 reversed $47 $-1 #
coedge $-1 $75 $197 $200 $201 reversed $47 $-1 #
coedge $-1 $202 $203 $75 $122 reversed $192 $-1 #
edge $-1 $204 -12.146614939838095 $205 12.146614939838095 $121 $206 forward 7 unknown #
face $-1 $207 $208 $27 $-1 $209 forward single #
loop $-1 $-1 $210 $76 #
plane-surface $-1 36.967432217181027 -145.3961196318389 69.654331774976953 1 0 0 0 0.87461971476443456 -0.48480960649040278 forward_v I I I I #
coedge $-1 $211 $212 $213 $214 reversed $77 $-1 #
coedge $-1 $128 $79 $215 $216 reversed $50 $-1 #
coedge $-1 $79 $127 $211 $217 reversed $50 $-1 #
coedge $-1 $213 $218 $79 $130 forward $208 $-1 #
edge $-1 $219 41.612417361166507 $220 44.858236522785361 $129 $221 forward 7 unknown #
loop $-1 $-1 $136 $80 #
plane-surface $-1 44.525816729922141 -31.085642454752914 6.291001950106228 0 -0.87461971476443456 0.48480960649040278 1 0 0 forward_v I I I I #
loop $-1 $-1 $222 $52 #
coedge $-1 $134 $134 $135 $223 reversed $81 $-1 #
coedge $-1 $135 $135 $134 $223 forward $83 $-1 #
coedge $-1 $136 $136 $84 $137 forward $131 $-1 #
edge $-1 $224 1.3574176335077307e-016 $224 6.2831853071796004 $136 $225 forward 7 unknown #
loop $-1 $-1 $143 $85 #
plane-surface $-1 44.525816729922141 -31.085642454752914 6.291001950106228 0 -0.87461971476443456 0.48480960649040278 1 0 0 forward_v I I I I #
loop $-1 $-1 $226 $55 #
coedge $-1 $141 $141 $142 $227 reversed $86 $-1 #
coedge $-1 $142 $142 $141 $227 forward $88 $-1 #
coedge $-1 $143 $143 $89 $144 forward $138 $-1 #
edge $-1 $228 1.3574176335077307e-016 $228 6.2831853071796004 $143 $229 forward 7 unknown #
face $-1 $230 $231 $30 $-1 $232 reversed single #
loop $-1 $-1 $233 $90 #
plane-surface $-1 -23.673856612681337 65.019986999258563 141.60713123646619 -1 0 0 0 0.62932039886446345 0.77714595512881146 forward_v I I I I #
coedge $-1 $234 $235 $236 $237 reversed $91 $-1 #
coedge $-1 $150 $93 $238 $239 reversed $59 $-1 #
coedge $-1 $93 $149 $234 $240 reversed $59 $-1 #
coedge $-1 $236 $241 $93 $152 forward $242 $-1 #
edge $-1 $243 1.4243510448763352 $244 15.299725376485497 $151 $245 forward 7 unknown #
loop $-1 $-1 $158 $94 #
plane-surface $-1 -37.879028927672294 -17.230520137830467 40.036215937645963 0 0.62932039886446345 0.77714595512881146 1 0 0 forward_v I I I I #
loop $-1 $-1 $246 $61 #
coedge $-1 $156 $156 $157 $247 reversed $95 $-1 #
coedge $-1 $157 $157 $156 $247 forward $97 $-1 #
coedge $-1 $158 $158 $98 $159 forward $153 $-1 #
edge $-1 $248 -4.9141495428479309e-016 $248 6.2831853071795996 $158 $249 forward 7 unknown #
face $-1 $250 $251 $24 $-1 $252 reversed single #
loop $-1 $-1 $253 $99 #
plane-surface $-1 0 -31.085642454752946 0 0 1 0 0 0 1 forward_v I I I I #
coedge $-1 $254 $102 $255 $256 forward $65 $-1 #
coedge $-1 $102 $254 $257 $258 forward $65 $-1 #
coedge $-1 $104 $103 $102 $166 reversed $41 $-1 #
edge $-1 $259 -31.085642454752946 $260 31.085642454752946 $165 $261 forward 7 unknown #
coedge $-1 $262 $255 $103 $168 forward $263 $-1 #
edge $-1 $260 -12.146614939838095 $173 12.146614939838095 $103 $264 forward 7 unknown #
coedge $-1 $257 $265 $104 $170 reversed $161 $-1 #
edge $-1 $259 -12.146614939838095 $174 12.146614939838095 $104 $266 forward 7 unknown #
coedge $-1 $267 $105 $265 $268 forward $100 $-1 #
coedge $-1 $105 $267 $262 $269 forward $100 $-1 #
vertex $-1 $106 $270 #
vertex $-1 $170 $271 #
straight-curve $-1 65.348673970763258 0 -12.146614939838095 0 -1 0 I I #
face $-1 $272 $273 $25 $-1 $274 reversed single #
loop $-1 $-1 $113 $107 #
plane-surface $-1 -71.98091033481326 -26.548686973668975 0 0 -1 0 0 0 -1 forward_v I I I I #
coedge $-1 $275 $276 $277 $278 forward $108 $-1 #
coedge $-1 $279 $110 $187 $280 forward $69 $-1 #
coedge $-1 $110 $279 $281 $282 forward $69 $-1 #
edge $-1 $283 -31.085642454752946 $189 -26.548686973668975 $110 $284 forward 7 unknown #
coedge $-1 $112 $111 $285 $286 reversed $44 $-1 #
coedge $-1 $287 $288 $112 $185 forward $273 $-1 #
edge $-1 $188 26.548686973668975 $289 31.085642454752946 $184 $290 forward 7 unknown #
coedge $-1 $277 $113 $288 $291 reversed $177 $-1 #
coedge $-1 $113 $277 $180 $280 reversed $177 $-1 #
vertex $-1 $185 $292 #
vertex $-1 $280 $293 #
straight-curve $-1 -65.348673970763258 -26.548686973668975 0 0 0 1 I I #
face $-1 $294 $295 $26 $-1 $296 reversed single #
loop $-1 $-1 $297 $115 #
plane-surface $-1 71.980910334813274 -26.548686973668975 0 0 -1 0 0 0 -1 forward_v I I I I #
coedge $-1 $298 $299 $119 $199 forward $116 $-1 #
coedge $-1 $300 $118 $299 $301 reversed $73 $-1 #
coedge $-1 $118 $300 $302 $303 reversed $73 $-1 #
coedge $-1 $120 $119 $118 $198 reversed $47 $-1 #
edge $-1 $304 -12.146614939838095 $305 12.146614939838095 $118 $306 forward 7 unknown #
edge $-1 $305 -31.085642454752946 $205 -26.548686973668975 $194 $307 forward 7 unknown #
coedge $-1 $302 $308 $120 $201 forward $309 $-1 #
edge $-1 $204 26.548686973668975 $304 31.085642454752946 $200 $310 forward 7 unknown #
coedge $-1 $297 $121 $308 $311 reversed $192 $-1 #
coedge $-1 $121 $297 $298 $312 reversed $192 $-1 #
vertex $-1 $201 $313 #
vertex $-1 $312 $314 #
straight-curve $-1 65.348673970763258 -26.548686973668975 0 0 0 -1 I I #
face $-1 $-1 $315 $27 $-1 $316 reversed single #
loop $-1 $-1 $129 $123 #
plane-surface $-1 0 0 12.146614939838095 0 0 1 1 0 0 forward_v I I I I #
coedge $-1 $317 $318 $319 $320 reversed $124 $-1 #
coedge $-1 $321 $126 $128 $217 forward $77 $-1 #
coedge $-1 $126 $321 $317 $322 forward $77 $-1 #
coedge $-1 $319 $129 $126 $214 forward $208 $-1 #
edge $-1 $220 -29.821292877702184 $323 -14.704523852219957 $213 $324 forward 7 unknown #
coedge $-1 $325 $326 $127 $216 forward $315 $-1 #
edge $-1 $327 -28.536163937382305 $219 -22.680550947650381 $215 $328 forward 7 unknown #
edge $-1 $220 -6.6950388733336377 $327 6.5994700631704317e-014 $128 $329 forward 7 unknown #
coedge $-1 $129 $319 $325 $330 forward $208 $-1 #
vertex $-1 $130 $331 #
vertex $-1 $130 $332 #
straight-curve $-1 52.084201242663255 -72.69805981591945 12.146614939838095 0 1 0 I I #
coedge $-1 $222 $222 $-1 $333 reversed $133 $-1 #
edge $-1 $334 0 $334 6.2831853071796004 $134 $335 forward 7 unknown #
vertex $-1 $137 $336 #
ellipse-curve $-1 41.286509081604521 -29.462732873943505 9.2188084449721526 0 -0.87461971476443456 0.48480960649040278 1.5 0 0 1 I I #
coedge $-1 $226 $226 $-1 $337 reversed $140 $-1 #
edge $-1 $338 0 $338 6.2831853071796004 $141 $339 forward 7 unknown #
vertex $-1 $144 $340 #
ellipse-curve $-1 47.765124378239761 -29.462732873943505 9.2188084449721526 0 -0.87461971476443456 0.48480960649040278 1.5 0 0 1 I I #
face $-1 $-1 $242 $30 $-1 $341 forward single #
loop $-1 $-1 $342 $145 #
plane-surface $-1 0 31.085642454752946 0 0 -1 0 0 0 -1 forward_v I I I I #
coedge $-1 $343 $344 $345 $346 reversed $146 $-1 #
coedge $-1 $347 $148 $150 $240 forward $91 $-1 #
coedge $-1 $148 $347 $343 $348 forward $91 $-1 #
coedge $-1 $345 $151 $148 $237 forward $242 $-1 #
edge $-1 $244 -33.144686778827108 $349 -4.7343421488451902 $236 $350 forward 7 unknown #
coedge $-1 $351 $352 $149 $239 forward $231 $-1 #
edge $-1 $353 -69.893007497753558 $243 -58.656950678394999 $238 $354 forward 7 unknown #
edge $-1 $244 44.31701411257518 $353 62.171284909505879 $150 $355 forward 7 unknown #
coedge $-1 $151 $345 $351 $356 forward $242 $-1 #
loop $-1 $-1 $345 $230 #
vertex $-1 $239 $357 #
vertex $-1 $152 $358 #
straight-curve $-1 -52.084201242663255 32.509993499629282 12.146614939838088 0 -1 0 I I #
coedge $-1 $246 $246 $-1 $359 reversed $155 $-1 #
edge $-1 $360 0 $360 6.2831853071796004 $156 $361 forward 7 unknown #
vertex $-1 $159 $362 #
ellipse-curve $-1 -37.879028927672294 24.147955288948371 6.52858653015881 0 0.62932039886446345 0.77714595512881146 2 0 0 1 I I #
face $-1 $-1 $263 $24 $-1 $363 reversed single #
loop $-1 $-1 $364 $160 #
plane-surface $-1 -65.348673970763258 0 0 1 0 0 0 0 -1 forward_v I I I I #
coedge $-1 $265 $257 $365 $366 forward $161 $-1 #
coedge $-1 $164 $163 $364 $367 forward $65 $-1 #
coedge $-1 $167 $368 $163 $256 reversed $263 $-1 #
edge $-1 $260 -65.348673970763258 $369 65.348673970763258 $255 $370 forward 7 unknown #
coedge $-1 $253 $169 $164 $258 reversed $161 $-1 #
edge $-1 $371 -65.348673970763258 $259 65.348673970763258 $257 $372 forward 7 unknown #
vertex $-1 $166 $373 #
vertex $-1 $166 $374 #
straight-curve $-1 65.348673970763258 0 12.146614939838095 0 1 0 I I #
coedge $-1 $368 $167 $172 $269 reversed $263 $-1 #
loop $-1 $-1 $167 $250 #
straight-curve $-1 65.348673970763258 31.085642454752946 0 0 0 -1 I I #
coedge $-1 $169 $253 $171 $268 reversed $161 $-1 #
straight-curve $-1 65.348673970763258 -31.085642454752946 0 0 0 -1 I I #
coedge $-1 $172 $171 $375 $376 forward $100 $-1 #
edge $-1 $174 -65.348673970763258 $377 65.348673970763258 $265 $378 forward 7 unknown #
edge $-1 $379 -65.348673970763258 $173 65.348673970763258 $262 $380 forward 7 unknown #
point $-1 65.348673970763258 31.085642454752946 -12.146614939838095 #
point $-1 65.348673970763258 -31.085642454752946 -12.146614939838095 #
face $-1 $-1 $381 $25 $-1 $382 reversed single #
loop $-1 $-1 $184 $176 #
plane-surface $-1 0 0 -12.146614939838095 0 0 1 1 0 0 forward_v I I I I #
coedge $-1 $383 $179 $384 $385 reversed $108 $-1 #
coedge $-1 $179 $383 $279 $386 reversed $108 $-1 #
coedge $-1 $187 $186 $179 $278 reversed $177 $-1 #
edge $-1 $387 -12.146614939838095 $388 12.146614939838095 $277 $389 forward 7 unknown #
coedge $-1 $181 $180 $276 $386 forward $69 $-1 #
edge $-1 $189 -6.6322363640500015 $387 6.6322363640500015 $187 $390 forward 7 unknown #
coedge $-1 $391 $285 $181 $282 reversed $381 $-1 #
edge $-1 $392 -78.613146698863261 $283 -65.348673970763258 $281 $393 forward 7 unknown #
vertex $-1 $286 $394 #
straight-curve $-1 -65.348673970763258 0 12.146614939838095 0 1 0 I I #
coedge $-1 $281 $395 $183 $286 forward $381 $-1 #
edge $-1 $289 -12.146614939838095 $283 12.146614939838095 $285 $396 forward 7 unknown #
coedge $-1 $384 $184 $395 $397 forward $273 $-1 #
coedge $-1 $184 $384 $186 $291 forward $273 $-1 #
vertex $-1 $397 $398 #
straight-curve $-1 -65.348673970763258 0 -12.146614939838095 0 -1 0 I I #
edge $-1 $388 -6.6322363640500015 $188 6.6322363640500015 $186 $399 forward 7 unknown #
point $-1 -65.348673970763258 -26.548686973668975 -12.146614939838095 #
point $-1 -65.348673970763258 -26.548686973668975 12.146614939838095 #
face $-1 $-1 $309 $26 $-1 $400 forward single #
loop $-1 $-1 $401 $191 #
plane-surface $-1 78.613146698863275 -28.817164714210961 0 -1 0 0 0 0 1 forward_v I I I I #
coedge $-1 $203 $202 $402 $403 forward $192 $-1 #
coedge $-1 $404 $194 $203 $312 forward $116 $-1 #
coedge $-1 $194 $404 $195 $301 forward $116 $-1 #
coedge $-1 $196 $195 $401 $405 reversed $73 $-1 #
edge $-1 $406 -6.6322363640500015 $305 6.6322363640500157 $195 $407 forward 7 unknown #
coedge $-1 $408 $200 $196 $303 forward $309 $-1 #
edge $-1 $304 -6.6322363640500157 $409 6.6322363640500015 $196 $410 forward 7 unknown #
vertex $-1 $303 $411 #
vertex $-1 $199 $412 #
straight-curve $-1 65.348673970763258 -31.085642454752946 0 0 0 -1 I I #
straight-curve $-1 65.348673970763258 0 -12.146614939838095 0 1 0 I I #
coedge $-1 $200 $408 $202 $311 forward $309 $-1 #
loop $-1 $-1 $200 $294 #
straight-curve $-1 65.348673970763258 0 12.146614939838095 0 -1 0 I I #
edge $-1 $413 -6.6322363640500015 $204 6.6322363640500015 $202 $414 forward 7 unknown #
edge $-1 $205 -6.6322363640500015 $415 6.6322363640500015 $203 $416 forward 7 unknown #
point $-1 65.348673970763272 -26.548686973668975 12.146614939838095 #
point $-1 65.348673970763272 -26.548686973668975 -12.146614939838095 #
loop $-1 $-1 $215 $207 #
plane-surface $-1 0 -31.085642454752946 0 0 1 0 0 0 1 forward_v I I I I #
coedge $-1 $318 $210 $212 $322 reversed $124 $-1 #
coedge $-1 $210 $317 $417 $418 reversed $124 $-1 #
coedge $-1 $218 $213 $210 $320 forward $208 $-1 #
edge $-1 $323 -44.858236522785361 $419 -41.612417361166507 $319 $420 forward 7 unknown #
coedge $-1 $212 $211 $326 $421 reversed $77 $-1 #
edge $-1 $422 -6.5994700631704317e-014 $323 6.6950388733336377 $317 $423 forward 7 unknown #
vertex $-1 $214 $424 #
straight-curve $-1 22.262908364961071 -27.839823293134085 12.146614939838095 -1 0 0 I I #
coedge $-1 $417 $215 $218 $330 reversed $315 $-1 #
coedge $-1 $215 $417 $321 $421 forward $315 $-1 #
vertex $-1 $216 $425 #
straight-curve $-1 52.084201242663255 -31.085642454752943 34.827165887488476 0 0 1 I I #
straight-curve $-1 52.084201242663255 -31.085642454752914 6.291001950106228 0 -0.48480960649040278 -0.87461971476443456 I I #
edge $-1 $419 -35.013478117632246 $219 -19.896709092150019 $325 $426 forward 7 unknown #
point $-1 52.084201242663255 -31.085642454752946 12.146614939838095 #
point $-1 52.084201242663255 -27.839823293134085 12.146614939838095 #
edge $-1 $427 1 $427 0 $222 $-1 forward 7 unknown #
vertex $-1 $223 $428 #
ellipse-curve $-1 41.286509081604521 -26.054206358364176 7.3294314153505526 0 -0.87461971476443456 0.48480960649040278 1.5 0 0 1 I I #
point $-1 42.786509081604521 -29.462732873943533 9.2188084449721686 #
edge $-1 $429 1 $429 0 $226 $-1 forward 7 unknown #
vertex $-1 $227 $430 #
ellipse-curve $-1 47.765124378239761 -26.054206358364176 7.3294314153505526 0 -0.87461971476443456 0.48480960649040278 1.5 0 0 1 I I #
point $-1 49.265124378239761 -29.462732873943533 9.2188084449721686 #
plane-surface $-1 0 0 12.146614939838095 0 0 1 1 0 0 forward_v I I I I #
coedge $-1 $352 $351 $344 $431 forward $231 $-1 #
coedge $-1 $344 $233 $235 $348 reversed $146 $-1 #
coedge $-1 $233 $343 $342 $431 reversed $146 $-1 #
coedge $-1 $241 $236 $233 $346 forward $242 $-1 #
edge $-1 $349 -15.299725376485497 $432 -1.4243510448763352 $345 $433 forward 7 unknown #
coedge $-1 $235 $234 $352 $434 reversed $91 $-1 #
edge $-1 $435 -62.171284909505879 $349 -44.31701411257518 $343 $436 forward 7 unknown #
vertex $-1 $237 $437 #
straight-curve $-1 -18.939514463836147 17.210268123143784 12.146614939838095 1 0 0 I I #
coedge $-1 $342 $238 $241 $356 reversed $231 $-1 #
coedge $-1 $238 $342 $347 $434 forward $231 $-1 #
vertex $-1 $239 $438 #
straight-curve $-1 -52.084201242663255 31.085642454752946 70.803565618233094 0 0 1 I I #
straight-curve $-1 -52.084201242663255 -17.230520137830467 40.036215937645963 0 0.77714595512881146 -0.62932039886446345 I I #
edge $-1 $432 23.673856612681337 $243 52.084201242663255 $351 $439 forward 7 unknown #
point $-1 -52.084201242663255 31.085642454752946 12.146614939838095 #
point $-1 -52.084201242663255 17.210268123143784 12.146614939838095 #
edge $-1 $440 1 $440 0 $246 $-1 forward 7 unknown #
vertex $-1 $247 $441 #
ellipse-curve $-1 -37.879028927672294 22.541303210741386 4.5445364880327039 0 0.62932039886446345 0.77714595512881146 2 0 0 1 I I #
point $-1 -35.879028927672294 24.147955288948356 6.528586530158794 #
plane-surface $-1 0 31.085642454752946 0 0 -1 0 0 0 -1 forward_v I I I I #
coedge $-1 $442 $365 $254 $367 reversed $251 $-1 #
coedge $-1 $364 $375 $253 $366 reversed $251 $-1 #
edge $-1 $371 -12.146614939838095 $377 12.146614939838095 $365 $443 forward 7 unknown #
edge $-1 $369 -31.085642454752946 $371 31.085642454752946 $364 $444 forward 7 unknown #
coedge $-1 $255 $262 $442 $445 reversed $263 $-1 #
vertex $-1 $256 $446 #
straight-curve $-1 0 31.085642454752946 12.146614939838095 -1 0 0 I I #
vertex $-1 $367 $447 #
straight-curve $-1 0 -31.085642454752946 12.146614939838095 1 0 0 I I #
point $-1 65.348673970763258 -31.085642454752946 12.146614939838095 #
point $-1 65.348673970763258 31.085642454752946 12.146614939838095 #
coedge $-1 $365 $442 $267 $376 reversed $251 $-1 #
edge $-1 $377 -31.085642454752946 $379 31.085642454752946 $375 $448 forward 7 unknown #
vertex $-1 $376 $449 #
straight-curve $-1 0 -31.085642454752946 -12.146614939838095 -1 0 0 I I #
vertex $-1 $269 $450 #
straight-curve $-1 0 31.085642454752946 -12.146614939838095 1 0 0 I I #
loop $-1 $-1 $285 $272 #
plane-surface $-1 0 -31.085642454752946 0 0 1 0 0 0 1 forward_v I I I I #
coedge $-1 $276 $275 $391 $451 reversed $108 $-1 #
coedge $-1 $288 $287 $275 $385 forward $273 $-1 #
edge $-1 $452 -2.2684777405419858 $388 2.2684777405419858 $275 $453 forward 7 unknown #
edge $-1 $387 -2.2684777405419858 $392 2.2684777405419858 $276 $454 forward 7 unknown #
vertex $-1 $280 $455 #
vertex $-1 $291 $456 #
straight-curve $-1 -78.613146698863261 -26.548686973668975 0 0 0 -1 I I #
straight-curve $-1 -71.98091033481326 -26.548686973668975 12.146614939838095 -1 0 0 I I #
coedge $-1 $395 $281 $383 $451 forward $381 $-1 #
vertex $-1 $386 $457 #
straight-curve $-1 0 -31.085642454752946 12.146614939838095 1 0 0 I I #
point $-1 -65.348673970763258 -31.085642454752946 12.146614939838095 #
coedge $-1 $285 $391 $287 $397 reversed $381 $-1 #
straight-curve $-1 -65.348673970763258 -31.085642454752946 0 0 0 1 I I #
edge $-1 $289 -6.6322363640500015 $452 6.6322363640500015 $395 $458 forward 7 unknown #
point $-1 -65.348673970763258 -31.085642454752946 -12.146614939838095 #
straight-curve $-1 -71.98091033481326 -26.548686973668975 -12.146614939838095 1 0 0 I I #
plane-surface $-1 0 0 12.146614939838095 0 0 1 1 0 0 forward_v I I I I #
coedge $-1 $459 $460 $300 $405 forward $295 $-1 #
coedge $-1 $460 $459 $297 $403 reversed $295 $-1 #
edge $-1 $413 -12.146614939838095 $415 12.146614939838095 $402 $461 forward 7 unknown #
coedge $-1 $299 $298 $459 $462 forward $116 $-1 #
edge $-1 $409 -12.146614939838095 $406 12.146614939838095 $401 $463 forward 7 unknown #
vertex $-1 $405 $464 #
straight-curve $-1 71.980910334813274 -31.085642454752946 -12.146614939838095 -1 0 0 I I #
coedge $-1 $308 $302 $460 $465 forward $309 $-1 #
vertex $-1 $465 $466 #
straight-curve $-1 71.980910334813274 -31.085642454752946 12.146614939838095 1 0 0 I I #
point $-1 65.348673970763258 -31.085642454752946 12.146614939838095 #
point $-1 65.348673970763258 -31.085642454752946 -12.146614939838095 #
vertex $-1 $465 $467 #
straight-curve $-1 71.980910334813274 -26.548686973668975 12.146614939838095 -1 0 0 I I #
vertex $-1 $462 $468 #
straight-curve $-1 71.980910334813274 -26.548686973668975 -12.146614939838095 1 0 0 I I #
coedge $-1 $326 $325 $318 $418 forward $315 $-1 #
edge $-1 $419 22.680550947650381 $422 28.536163937382305 $417 $469 forward 7 unknown #
vertex $-1 $330 $470 #
straight-curve $-1 36.967432217181027 -72.69805981591945 12.146614939838095 0 -1 0 I I #
edge $-1 $422 14.704523852219957 $327 29.821292877702184 $326 $471 forward 7 unknown #
vertex $-1 $421 $472 #
straight-curve $-1 36.967432217181027 -31.085642454752914 6.291001950106228 0 0.48480960649040278 0.87461971476443456 I I #
point $-1 36.967432217181027 -27.839823293134085 12.146614939838095 #
point $-1 52.084201242663255 -31.085642454752946 6.2910019501061702 #
straight-curve $-1 71.980910334813274 -31.085642454752946 12.146614939838095 1 0 0 I I #
vertex $-1 $333 $473 #
point $-1 42.786509081604521 -26.054206358364176 7.3294314153505526 #
vertex $-1 $337 $474 #
point $-1 49.265124378239761 -26.054206358364176 7.3294314153505526 #
edge $-1 $432 58.656950678394999 $435 69.893007497753558 $342 $475 forward 7 unknown #
vertex $-1 $356 $476 #
straight-curve $-1 -23.673856612681337 32.509993499629282 12.146614939838088 0 1 0 I I #
edge $-1 $435 4.7343421488451902 $353 33.144686778827108 $352 $477 forward 7 unknown #
vertex $-1 $434 $478 #
straight-curve $-1 -23.673856612681337 -17.230520137830467 40.036215937645963 0 -0.77714595512881146 0.62932039886446345 I I #
point $-1 -23.673856612681337 17.210268123143784 12.146614939838095 #
point $-1 -52.084201242663255 31.085642454752943 0.91055812047952855 #
straight-curve $-1 0 31.085642454752946 12.146614939838095 -1 0 0 I I #
vertex $-1 $359 $479 #
point $-1 -35.879028927672294 22.541303210741386 4.5445364880327039 #
coedge $-1 $375 $364 $368 $445 forward $251 $-1 #
straight-curve $-1 -65.348673970763258 -31.085642454752946 0 0 0 -1 I I #
straight-curve $-1 -65.348673970763258 0 12.146614939838095 0 -1 0 I I #
edge $-1 $369 -12.146614939838095 $379 12.146614939838095 $368 $480 forward 7 unknown #
point $-1 -65.348673970763258 31.085642454752946 12.146614939838095 #
point $-1 -65.348673970763258 -31.085642454752946 12.146614939838095 #
straight-curve $-1 -65.348673970763258 0 -12.146614939838095 0 1 0 I I #
point $-1 -65.348673970763258 -31.085642454752946 -12.146614939838095 #
point $-1 -65.348673970763258 31.085642454752946 -12.146614939838095 #
edge $-1 $392 -12.146614939838095 $452 12.146614939838095 $383 $481 forward 7 unknown #
vertex $-1 $385 $482 #
straight-curve $-1 -78.613146698863261 -28.817164714210961 -12.146614939838095 0 1 0 I I #
straight-curve $-1 -78.613146698863261 -28.817164714210961 12.146614939838095 0 -1 0 I I #
point $-1 -78.613146698863261 -26.548686973668975 12.146614939838095 #
point $-1 -78.613146698863261 -26.548686973668975 -12.146614939838095 #
point $-1 -78.613146698863261 -31.085642454752946 12.146614939838095 #
straight-curve $-1 -71.98091033481326 -31.085642454752946 -12.146614939838095 -1 0 0 I I #
coedge $-1 $402 $401 $404 $462 reversed $295 $-1 #
coedge $-1 $401 $402 $408 $465 reversed $295 $-1 #
straight-curve $-1 78.613146698863275 -26.548686973668975 0 0 0 -1 I I #
edge $-1 $415 -2.2684777405419858 $406 2.2684777405419858 $459 $483 forward 7 unknown #
straight-curve $-1 78.613146698863275 -31.085642454752946 0 0 0 -1 I I #
point $-1 78.613146698863275 -31.085642454752946 -12.146614939838095 #
edge $-1 $409 -2.2684777405419858 $413 2.2684777405419858 $460 $484 forward 7 unknown #
point $-1 78.613146698863275 -31.085642454752946 12.146614939838095 #
point $-1 78.613146698863275 -26.548686973668975 12.146614939838095 #
point $-1 78.613146698863275 -26.548686973668975 -12.146614939838095 #
straight-curve $-1 36.967432217181027 -31.085642454752943 34.827165887488476 0 0 -1 I I #
point $-1 36.967432217181027 -31.085642454752946 12.146614939838095 #
straight-curve $-1 22.262908364961071 -31.085642454752946 6.2910019501061676 1 0 0 I I #
point $-1 36.967432217181027 -31.085642454752946 6.2910019501061702 #
point $-1 41.286509081604521 -24.742276786217523 6.602217005614949 #
point $-1 47.765124378239761 -24.742276786217523 6.602217005614949 #
straight-curve $-1 -23.673856612681337 31.085642454752946 70.803565618233094 0 0 -1 I I #
point $-1 -23.673856612681337 31.085642454752946 12.146614939838095 #
straight-curve $-1 -18.939514463836147 31.085642454752943 0.910558120479525 -1 0 0 I I #
point $-1 -23.673856612681337 31.085642454752943 0.91055812047952855 #
point $-1 -37.879028927672294 21.282662413012456 2.9902445777750808 #
straight-curve $-1 -65.348673970763258 31.085642454752946 0 0 0 -1 I I #
straight-curve $-1 -78.613146698863261 -31.085642454752946 0 0 0 -1 I I #
point $-1 -78.613146698863261 -31.085642454752946 -12.146614939838095 #
straight-curve $-1 78.613146698863275 -28.817164714210961 -12.146614939838095 0 -1 0 I I #
straight-curve $-1 78.613146698863275 -28.817164714210961 12.146614939838095 0 1 0 I I #
End-of-ACIS-data 