500 0 10 0           
7 Unknown 11 ACIS 5.0 NT 24 Thu Mar 25 21:05:43 1999 
-1 9.9999999999999995e-007 1e-010 
body $-1 $10 $-1 $11 #
body $-1 $12 $-1 $13 #
body $-1 $14 $-1 $15 #
body $-1 $16 $-1 $17 #
body $-1 $18 $-1 $19 #
body $-1 $20 $-1 $21 #
body $-1 $22 $-1 $23 #
body $-1 $24 $-1 $25 #
body $-1 $26 $-1 $27 #
body $-1 $28 $-1 $29 #
lump $-1 $-1 $30 $0 #
transform $-1 1 0 0 0 1 0 0 0 1 58.377025666066473 24.542687159965773 7.1784757146248355 1 rotate no_reflect no_shear #
lump $-1 $-1 $31 $1 #
transform $-1 1 0 0 0 1 0 0 0 1 58.377025666066473 24.542687159965773 7.1784757146248355 1 rotate no_reflect no_shear #
lump $-1 $-1 $32 $2 #
transform $-1 1 0 0 0 1 0 0 0 1 58.377025666066473 24.542687159965773 7.1784757146248355 1 rotate no_reflect no_shear #
lump $-1 $-1 $33 $3 #
transform $-1 1 0 0 0 1 0 0 0 1 58.377025666066473 24.542687159965773 7.1784757146248355 1 rotate no_reflect no_shear #
lump $-1 $-1 $34 $4 #
transform $-1 1 0 0 0 1 0 0 0 1 58.377025666066473 24.542687159965773 7.1784757146248355 1 rotate no_reflect no_shear #
lump $-1 $-1 $35 $5 #
transform $-1 1 0 0 0 1 0 0 0 1 58.377025666066473 24.542687159965773 7.1784757146248355 1 rotate no_reflect no_shear #
lump $-1 $-1 $36 $6 #
transform $-1 1 0 0 0 1 0 0 0 1 58.377025666066473 24.542687159965773 7.1784757146248355 1 rotate no_reflect no_shear #
lump $-1 $-1 $37 $7 #
transform $-1 1 0 0 0 1 0 0 0 1 58.377025666066473 24.542687159965773 7.1784757146248355 1 rotate no_reflect no_shear #
lump $-1 $-1 $38 $8 #
transform $-1 1 0 0 0 1 0 0 0 1 58.377025666066473 24.542687159965773 7.1784757146248355 1 rotate no_reflect no_shear #
lump $-1 $-1 $39 $9 #
transform $-1 1 0 0 0 1 0 0 0 1 58.377025666066473 24.542687159965773 7.1784757146248355 1 rotate no_reflect no_shear #
shell $-1 $-1 $-1 $40 $-1 $10 #
shell $-1 $-1 $-1 $41 $-1 $12 #
shell $-1 $-1 $-1 $42 $-1 $14 #
shell $-1 $-1 $-1 $43 $-1 $16 #
shell $-1 $-1 $-1 $44 $-1 $18 #
shell $-1 $-1 $-1 $45 $-1 $20 #
shell $-1 $-1 $-1 $46 $-1 $22 #
shell $-1 $-1 $-1 $47 $-1 $24 #
shell $-1 $-1 $-1 $48 $-1 $26 #
shell $-1 $-1 $-1 $49 $-1 $28 #
face $-1 $50 $51 $30 $-1 $52 forward single #
face $-1 $53 $54 $31 $-1 $55 reversed single #
face $-1 $56 $57 $32 $-1 $58 reversed single #
face $-1 $59 $60 $33 $-1 $61 forward single #
face $-1 $62 $63 $34 $-1 $64 reversed single #
face $-1 $65 $66 $35 $-1 $67 forward single #
face $-1 $68 $69 $36 $-1 $70 reversed single #
face $-1 $71 $72 $37 $-1 $73 forward single #
face $-1 $74 $75 $38 $-1 $76 reversed single #
face $-1 $77 $78 $39 $-1 $79 forward single #
face $-1 $80 $81 $30 $-1 $82 reversed single #
loop $-1 $-1 $83 $40 #
plane-surface $-1 0 0 7.1784757146248355 0 0 1 1 0 0 forward_v I I I I #
face $-1 $84 $85 $31 $-1 $86 reversed single #
loop $-1 $-1 $87 $41 #
plane-surface $-1 0 -21.054443513427671 4.1784757146248355 0 0 1 1 0 0 forward_v I I I I #
face $-1 $88 $89 $32 $-1 $90 reversed single #
loop $-1 $-1 $91 $42 #
plane-surface $-1 84.206730108066111 -11.000418040852914 164.13181744981327 0 -1 0 -0.80901700255871778 0 -0.5877852410284794 forward_v I I I I #
face $-1 $92 $93 $33 $-1 $94 forward single #
loop $-1 $95 $96 $43 #
cone-surface $-1 55.710407580411108 -14.283308953871243 3.7942085280020317 -0.80901700255871778 0 -0.5877852410284794 0.5877852410284794 0 -0.80901700255871778 1 I I 0 1 1 forward I I I I #
face $-1 $97 $98 $34 $-1 $99 reversed single #
loop $-1 $-1 $100 $44 #
plane-surface $-1 -10.249282537242749 21.259796246947445 95.505509246504047 0.80901700255871778 0 0.5877852410284794 0.5877852410284794 0 -0.80901700255871778 forward_v I I I I #
face $-1 $101 $102 $35 $-1 $103 forward single #
loop $-1 $104 $105 $45 #
cone-surface $-1 55.710407580411108 21.259796246947445 3.7942085280020317 -0.80901700255871778 0 -0.5877852410284794 0.5877852410284794 0 -0.80901700255871778 1 I I 0 1 1 forward I I I I #
face $-1 $106 $107 $36 $-1 $108 reversed single #
loop $-1 $-1 $109 $46 #
plane-surface $-1 -58.377025666066473 -14.283308953871243 1.0494966011951732 -0.80901700255871778 0 0.5877852410284794 0.5877852410284794 0 0.80901700255871778 forward_v I I I I #
face $-1 $110 $111 $37 $-1 $112 forward single #
loop $-1 $113 $114 $47 #
cone-surface $-1 -55.710407580411093 -14.283308953871243 3.7942085280020423 0.80901700255871778 0 -0.5877852410284794 0.5877852410284794 0 0.80901700255871778 1 I I 0 1 1 forward I I I I #
face $-1 $115 $116 $38 $-1 $117 reversed single #
loop $-1 $-1 $118 $48 #
plane-surface $-1 -58.377025666066473 21.259796246947445 1.0494966011951732 -0.80901700255871778 0 0.5877852410284794 0.5877852410284794 0 0.80901700255871778 forward_v I I I I #
face $-1 $119 $120 $39 $-1 $121 forward single #
loop $-1 $122 $123 $49 #
cone-surface $-1 -55.710407580411093 21.259796246947445 3.7942085280020423 0.80901700255871778 0 -0.5877852410284794 0.5877852410284794 0 0.80901700255871778 1 I I 0 1 1 forward I I I I #
face $-1 $124 $125 $30 $-1 $126 reversed single #
loop $-1 $-1 $127 $50 #
plane-surface $-1 0 0 -7.1784757146248355 0 0 1 1 0 0 forward_v I I I I #
coedge $-1 $128 $129 $130 $131 forward $51 $-1 #
face $-1 $132 $133 $31 $-1 $134 reversed single #
loop $-1 $-1 $135 $53 #
plane-surface $-1 0 -17.566199866889569 5.6784757146248355 0 -1 0 0 0 -1 forward_v I I I I #
coedge $-1 $136 $137 $138 $139 reversed $54 $-1 #
face $-1 $140 $141 $32 $-1 $142 forward single #
loop $-1 $-1 $143 $56 #
plane-surface $-1 -10.249282537242749 -14.283308953871243 95.505509246504047 0.80901700255871778 0 0.5877852410284794 0.5877852410284794 0 -0.80901700255871778 forward_v I I I I #
coedge $-1 $144 $145 $146 $147 reversed $57 $-1 #
face $-1 $-1 $148 $33 $-1 $149 forward single #
loop $-1 $150 $151 $59 #
cone-surface $-1 54.865762917868494 -14.283308953871243 3.1805382775798305 -0.80901700255871778 0 -0.5877852410284794 0.2938926205142397 0 -0.40450850127935889 1 I I -0.70710678118654746 0.70710678118654746 0.5 forward I I I I #
loop $-1 $-1 $152 $43 #
coedge $-1 $96 $96 $153 $154 reversed $60 $-1 #
face $-1 $155 $156 $34 $-1 $157 reversed single #
loop $-1 $-1 $158 $62 #
plane-surface $-1 84.206730108066111 17.976905333929118 164.13181744981327 0 1 0 0.80901700255871778 0 0.5877852410284794 forward_v I I I I #
coedge $-1 $159 $160 $161 $162 reversed $63 $-1 #
face $-1 $-1 $163 $35 $-1 $164 forward single #
loop $-1 $165 $166 $65 #
cone-surface $-1 54.865762917868494 21.259796246947445 3.1805382775798305 -0.80901700255871778 0 -0.5877852410284794 0.2938926205142397 0 -0.40450850127935889 1 I I -0.70710678118654746 0.70710678118654746 0.5 forward I I I I #
loop $-1 $-1 $167 $45 #
coedge $-1 $105 $105 $168 $169 reversed $66 $-1 #
face $-1 $170 $171 $36 $-1 $172 forward single #
loop $-1 $-1 $173 $68 #
plane-surface $-1 -152.83303831137533 -11.000418040852914 69.675804804504395 0 -1 0 0.80901700255871778 0 -0.5877852410284794 forward_v I I I I #
coedge $-1 $174 $175 $176 $177 reversed $69 $-1 #
face $-1 $-1 $178 $37 $-1 $179 forward single #
loop $-1 $180 $181 $71 #
cone-surface $-1 -54.86576291786848 -14.283308953871243 3.1805382775798412 0.80901700255871778 0 -0.5877852410284794 0.2938926205142397 0 0.40450850127935889 1 I I -0.70710678118654746 0.70710678118654746 0.5 forward I I I I #
loop $-1 $-1 $182 $47 #
coedge $-1 $114 $114 $183 $184 reversed $72 $-1 #
face $-1 $185 $186 $38 $-1 $187 reversed single #
loop $-1 $-1 $188 $74 #
plane-surface $-1 -152.83303831137533 17.976905333929118 69.675804804504395 0 1 0 -0.80901700255871778 0 0.5877852410284794 forward_v I I I I #
coedge $-1 $189 $190 $191 $192 reversed $75 $-1 #
face $-1 $-1 $193 $39 $-1 $194 forward single #
loop $-1 $195 $196 $77 #
cone-surface $-1 -54.86576291786848 21.259796246947445 3.1805382775798412 0.80901700255871778 0 -0.5877852410284794 0.2938926205142397 0 0.40450850127935889 1 I I -0.70710678118654746 0.70710678118654746 0.5 forward I I I I #
loop $-1 $-1 $197 $49 #
coedge $-1 $123 $123 $198 $199 reversed $78 $-1 #
face $-1 $200 $201 $30 $-1 $202 reversed single #
loop $-1 $-1 $203 $80 #
plane-surface $-1 0 -24.542687159965773 0 0 1 0 0 0 1 forward_v I I I I #
coedge $-1 $204 $205 $206 $207 forward $81 $-1 #
coedge $-1 $208 $83 $209 $210 forward $51 $-1 #
coedge $-1 $83 $208 $211 $212 forward $51 $-1 #
coedge $-1 $213 $214 $83 $131 reversed $215 $-1 #
edge $-1 $216 -24.542687159965773 $217 24.542687159965773 $130 $218 forward 7 unknown #
face $-1 $219 $220 $31 $-1 $221 reversed single #
loop $-1 $-1 $222 $84 #
plane-surface $-1 -58.377025666066473 0 0 1 0 0 0 0 -1 forward_v I I I I #
coedge $-1 $223 $224 $225 $226 reversed $85 $-1 #
coedge $-1 $227 $87 $228 $229 reversed $54 $-1 #
coedge $-1 $87 $227 $230 $231 forward $54 $-1 #
coedge $-1 $232 $233 $87 $139 forward $234 $-1 #
edge $-1 $235 -14.015465403251937 $236 -7.0389781101757336 $138 $237 forward 7 unknown #
face $-1 $238 $239 $32 $-1 $240 forward single #
loop $-1 $-1 $241 $88 #
plane-surface $-1 0 -17.566199866889569 5.6784757146248355 0 -1 0 0 0 -1 forward_v I I I I #
coedge $-1 $242 $243 $244 $245 reversed $89 $-1 #
coedge $-1 $145 $91 $246 $247 reversed $57 $-1 #
coedge $-1 $91 $144 $242 $248 reversed $57 $-1 #
coedge $-1 $244 $249 $91 $147 forward $239 $-1 #
edge $-1 $250 -16.273660612033417 $251 -11.820696763249167 $146 $252 forward 7 unknown #
loop $-1 $-1 $153 $92 #
plane-surface $-1 -10.249282537242749 -14.283308953871243 95.505509246504047 0.80901700255871778 0 0.5877852410284794 0.5877852410284794 0 -0.80901700255871778 forward_v I I I I #
loop $-1 $-1 $253 $59 #
coedge $-1 $151 $151 $152 $254 reversed $93 $-1 #
coedge $-1 $152 $152 $151 $254 forward $95 $-1 #
coedge $-1 $153 $153 $96 $154 forward $148 $-1 #
edge $-1 $255 0 $255 6.2831853071796004 $153 $256 forward 7 unknown #
face $-1 $257 $258 $34 $-1 $259 forward single #
loop $-1 $-1 $260 $97 #
plane-surface $-1 0 24.542687159965773 0 0 -1 0 0 0 -1 forward_v I I I I #
coedge $-1 $261 $262 $263 $264 reversed $98 $-1 #
coedge $-1 $265 $100 $260 $266 reversed $63 $-1 #
coedge $-1 $100 $265 $261 $267 forward $63 $-1 #
coedge $-1 $263 $268 $100 $162 forward $258 $-1 #
edge $-1 $269 -13.91278903649205 $270 -7.347007210455395 $161 $271 forward 7 unknown #
loop $-1 $-1 $168 $101 #
plane-surface $-1 -10.249282537242749 21.259796246947445 95.505509246504047 0.80901700255871778 0 0.5877852410284794 0.5877852410284794 0 -0.80901700255871778 forward_v I I I I #
loop $-1 $-1 $272 $65 #
coedge $-1 $166 $166 $167 $273 reversed $102 $-1 #
coedge $-1 $167 $167 $166 $273 forward $104 $-1 #
coedge $-1 $168 $168 $105 $169 forward $163 $-1 #
edge $-1 $274 0 $274 6.2831853071796004 $168 $275 forward 7 unknown #
face $-1 $276 $277 $36 $-1 $278 forward single #
loop $-1 $-1 $279 $106 #
plane-surface $-1 0 -17.566199866889569 5.6784757146248355 0 -1 0 0 0 -1 forward_v I I I I #
coedge $-1 $280 $281 $282 $283 reversed $107 $-1 #
coedge $-1 $284 $109 $279 $285 reversed $69 $-1 #
coedge $-1 $109 $284 $280 $286 forward $69 $-1 #
coedge $-1 $282 $287 $109 $177 forward $277 $-1 #
edge $-1 $288 -10.424545389953952 $289 -3.8587635639172921 $176 $290 forward 7 unknown #
loop $-1 $-1 $183 $110 #
plane-surface $-1 -58.377025666066473 -14.283308953871243 1.0494966011951732 -0.80901700255871778 0 0.5877852410284794 0.5877852410284794 0 0.80901700255871778 forward_v I I I I #
loop $-1 $-1 $291 $71 #
coedge $-1 $181 $181 $182 $292 reversed $111 $-1 #
coedge $-1 $182 $182 $181 $292 forward $113 $-1 #
coedge $-1 $183 $183 $114 $184 forward $178 $-1 #
edge $-1 $293 0 $293 6.2831853071796004 $183 $294 forward 7 unknown #
face $-1 $295 $296 $38 $-1 $297 forward single #
loop $-1 $-1 $191 $115 #
plane-surface $-1 -58.377025666066473 0 0 1 0 0 0 0 -1 forward_v I I I I #
coedge $-1 $298 $299 $300 $301 reversed $116 $-1 #
coedge $-1 $302 $118 $303 $304 reversed $75 $-1 #
coedge $-1 $118 $302 $298 $305 forward $75 $-1 #
coedge $-1 $300 $306 $118 $192 forward $186 $-1 #
edge $-1 $307 -13.91278903649205 $308 -7.347007210455395 $191 $309 forward 7 unknown #
loop $-1 $-1 $198 $119 #
plane-surface $-1 -58.377025666066473 21.259796246947445 1.0494966011951732 -0.80901700255871778 0 0.5877852410284794 0.5877852410284794 0 0.80901700255871778 forward_v I I I I #
loop $-1 $-1 $310 $77 #
coedge $-1 $196 $196 $197 $311 reversed $120 $-1 #
coedge $-1 $197 $197 $196 $311 forward $122 $-1 #
coedge $-1 $198 $198 $123 $199 forward $193 $-1 #
edge $-1 $312 0 $312 6.2831853071796004 $198 $313 forward 7 unknown #
face $-1 $314 $315 $30 $-1 $316 reversed single #
loop $-1 $-1 $317 $124 #
plane-surface $-1 -58.377025666066473 0 0 1 0 0 0 0 -1 forward_v I I I I #
coedge $-1 $318 $211 $319 $320 forward $125 $-1 #
coedge $-1 $321 $127 $318 $322 forward $81 $-1 #
coedge $-1 $127 $321 $323 $324 forward $81 $-1 #
coedge $-1 $214 $213 $127 $207 reversed $215 $-1 #
edge $-1 $325 -24.542687159965773 $326 24.542687159965773 $206 $327 forward 7 unknown #
coedge $-1 $129 $128 $328 $329 forward $51 $-1 #
coedge $-1 $330 $331 $128 $210 reversed $315 $-1 #
edge $-1 $217 -58.377025666066473 $332 58.377025666066473 $209 $333 forward 7 unknown #
coedge $-1 $203 $334 $129 $212 reversed $125 $-1 #
edge $-1 $335 -58.377025666066473 $216 58.377025666066473 $211 $336 forward 7 unknown #
coedge $-1 $206 $130 $334 $337 forward $215 $-1 #
coedge $-1 $130 $206 $330 $338 reversed $215 $-1 #
loop $-1 $-1 $213 $314 #
vertex $-1 $131 $339 #
vertex $-1 $131 $340 #
straight-curve $-1 58.377025666066473 0 7.1784757146248355 0 1 0 I I #
face $-1 $341 $342 $31 $-1 $343 forward single #
loop $-1 $-1 $228 $132 #
plane-surface $-1 0 -24.542687159965773 0 0 1 0 0 0 1 forward_v I I I I #
coedge $-1 $344 $345 $224 $346 forward $133 $-1 #
coedge $-1 $230 $135 $232 $347 reversed $85 $-1 #
coedge $-1 $135 $230 $222 $346 reversed $85 $-1 #
coedge $-1 $348 $349 $135 $226 forward $342 $-1 #
edge $-1 $350 -58.377025666066473 $351 58.377025666066473 $225 $352 forward 7 unknown #
coedge $-1 $137 $136 $344 $353 reversed $54 $-1 #
coedge $-1 $354 $355 $136 $229 forward $220 $-1 #
edge $-1 $356 -58.377025666066473 $235 58.377025666066473 $228 $357 forward 7 unknown #
coedge $-1 $224 $223 $137 $231 reversed $85 $-1 #
edge $-1 $358 -58.377025666066473 $236 58.377025666066473 $230 $359 forward 7 unknown #
coedge $-1 $360 $138 $223 $347 forward $234 $-1 #
coedge $-1 $138 $360 $354 $361 forward $234 $-1 #
loop $-1 $-1 $232 $341 #
vertex $-1 $229 $362 #
vertex $-1 $139 $363 #
straight-curve $-1 58.377025666066473 -10.527221756713836 4.1784757146248355 0 1 0 I I #
face $-1 $-1 $364 $32 $-1 $365 reversed single #
loop $-1 $-1 $244 $140 #
plane-surface $-1 0 0 7.1784757146248355 0 0 1 1 0 0 forward_v I I I I #
coedge $-1 $366 $367 $243 $368 reversed $141 $-1 #
coedge $-1 $369 $143 $145 $248 forward $89 $-1 #
coedge $-1 $143 $369 $241 $368 forward $89 $-1 #
coedge $-1 $370 $146 $143 $245 forward $239 $-1 #
edge $-1 $251 3.8587635639172921 $371 10.424545389953948 $244 $372 forward 7 unknown #
coedge $-1 $373 $374 $144 $247 forward $364 $-1 #
edge $-1 $375 -81.016412123711447 $250 -74.887433010281796 $246 $376 forward 7 unknown #
edge $-1 $251 109.17821659189234 $375 116.75405133213295 $145 $377 forward 7 unknown #
coedge $-1 $146 $370 $373 $378 forward $239 $-1 #
vertex $-1 $247 $379 #
vertex $-1 $147 $380 #
straight-curve $-1 42.103365054033056 -11.000418040852914 7.1784757146248381 -1 0 0 I I #
coedge $-1 $253 $253 $-1 $381 reversed $150 $-1 #
edge $-1 $382 0 $382 6.2831853071796004 $151 $383 forward 7 unknown #
vertex $-1 $154 $384 #
ellipse-curve $-1 56.150543741674362 -14.283308953871243 4.1139861579099968 0.80901700255871778 0 0.5877852410284794 0.5877852410284794 0 -0.80901700255871778 1 I I #
face $-1 $-1 $385 $34 $-1 $386 reversed single #
loop $-1 $-1 $161 $155 #
plane-surface $-1 0 0 7.1784757146248355 0 0 1 1 0 0 forward_v I I I I #
coedge $-1 $387 $388 $159 $266 forward $156 $-1 #
coedge $-1 $262 $158 $160 $267 reversed $98 $-1 #
coedge $-1 $158 $261 $389 $390 reversed $98 $-1 #
coedge $-1 $391 $161 $158 $264 forward $258 $-1 #
edge $-1 $270 11.820696763249167 $392 16.273660612033417 $263 $393 forward 7 unknown #
coedge $-1 $160 $159 $394 $395 reversed $63 $-1 #
edge $-1 $396 -75.109072419646537 $269 -67.533237679405929 $260 $397 forward 7 unknown #
edge $-1 $398 -116.75405133213295 $270 -109.17821659189234 $261 $399 forward 7 unknown #
coedge $-1 $161 $391 $387 $400 forward $258 $-1 #
vertex $-1 $266 $401 #
vertex $-1 $162 $402 #
straight-curve $-1 53.924061817282222 10.629898123473723 7.1784757146248452 0 -1 0 I I #
coedge $-1 $272 $272 $-1 $403 reversed $165 $-1 #
edge $-1 $404 0 $404 6.2831853071796004 $166 $405 forward 7 unknown #
vertex $-1 $169 $406 #
ellipse-curve $-1 56.150543741674362 21.259796246947445 4.1139861579099968 0.80901700255871778 0 0.5877852410284794 0.5877852410284794 0 -0.80901700255871778 1 I I #
face $-1 $-1 $407 $36 $-1 $408 reversed single #
loop $-1 $-1 $282 $170 #
plane-surface $-1 0 0 7.1784757146248355 0 0 1 1 0 0 forward_v I I I I #
coedge $-1 $409 $410 $174 $285 forward $171 $-1 #
coedge $-1 $281 $173 $175 $286 reversed $107 $-1 #
coedge $-1 $173 $280 $411 $412 reversed $107 $-1 #
coedge $-1 $413 $176 $173 $283 forward $277 $-1 #
edge $-1 $289 -22.492457338405451 $414 -18.039493489621194 $282 $415 forward 7 unknown #
coedge $-1 $175 $174 $416 $417 reversed $69 $-1 #
edge $-1 $418 -19.029038454454192 $288 -11.453203714213579 $279 $419 forward 7 unknown #
edge $-1 $420 0 $289 7.5758347402406141 $280 $421 forward 7 unknown #
coedge $-1 $176 $413 $409 $422 forward $277 $-1 #
vertex $-1 $177 $423 #
vertex $-1 $177 $424 #
straight-curve $-1 -53.924061817282208 -7.1416544769356216 7.1784757146248346 0 1 0 I I #
coedge $-1 $291 $291 $-1 $425 reversed $180 $-1 #
edge $-1 $426 0 $426 6.2831853071796004 $181 $427 forward 7 unknown #
vertex $-1 $184 $428 #
ellipse-curve $-1 -56.150543741674348 -14.283308953871243 4.1139861579100039 -0.80901700255871778 0 0.5877852410284794 0.5877852410284794 0 0.80901700255871778 1 I I #
face $-1 $-1 $429 $38 $-1 $430 reversed single #
loop $-1 $-1 $431 $185 #
plane-surface $-1 0 0 7.1784757146248355 0 0 1 1 0 0 forward_v I I I I #
coedge $-1 $299 $188 $190 $305 reversed $116 $-1 #
coedge $-1 $188 $298 $431 $432 reversed $116 $-1 #
coedge $-1 $433 $191 $188 $301 forward $186 $-1 #
edge $-1 $308 -33.788405801057024 $434 -27.659426687627363 $300 $435 forward 7 unknown #
coedge $-1 $190 $189 $436 $437 reversed $75 $-1 #
coedge $-1 $438 $439 $189 $304 forward $429 $-1 #
edge $-1 $440 9.1562120133394487 $307 16.732046753580065 $303 $441 forward 7 unknown #
edge $-1 $442 -7.5758347402406141 $308 0 $298 $443 forward 7 unknown #
coedge $-1 $191 $433 $438 $444 forward $186 $-1 #
vertex $-1 $304 $445 #
vertex $-1 $192 $446 #
straight-curve $-1 -58.377025666066473 10.629898123473723 1.0494966011951763 0 -1 0 I I #
coedge $-1 $310 $310 $-1 $447 reversed $195 $-1 #
edge $-1 $448 0 $448 6.2831853071796004 $196 $449 forward 7 unknown #
vertex $-1 $199 $450 #
ellipse-curve $-1 -56.150543741674348 21.259796246947445 4.1139861579100039 -0.80901700255871778 0 0.5877852410284794 0.5877852410284794 0 0.80901700255871778 1 I I #
face $-1 $-1 $215 $30 $-1 $451 reversed single #
loop $-1 $-1 $330 $200 #
plane-surface $-1 0 24.542687159965773 0 0 -1 0 0 0 -1 forward_v I I I I #
coedge $-1 $452 $328 $331 $453 forward $201 $-1 #
coedge $-1 $334 $203 $204 $322 reversed $125 $-1 #
coedge $-1 $328 $452 $203 $320 reversed $201 $-1 #
edge $-1 $335 -7.1784757146248355 $454 7.1784757146248355 $319 $455 forward 7 unknown #
coedge $-1 $205 $204 $452 $456 forward $81 $-1 #
edge $-1 $326 -58.377025666066473 $454 58.377025666066473 $318 $457 forward 7 unknown #
coedge $-1 $331 $330 $205 $324 reversed $315 $-1 #
edge $-1 $458 -58.377025666066473 $325 58.377025666066473 $323 $459 forward 7 unknown #
vertex $-1 $207 $460 #
vertex $-1 $337 $461 #
straight-curve $-1 58.377025666066473 0 -7.1784757146248355 0 -1 0 I I #
coedge $-1 $317 $319 $208 $329 reversed $201 $-1 #
edge $-1 $332 -24.542687159965773 $335 24.542687159965773 $328 $462 forward 7 unknown #
coedge $-1 $323 $209 $214 $338 forward $315 $-1 #
coedge $-1 $209 $323 $317 $453 reversed $315 $-1 #
vertex $-1 $210 $463 #
straight-curve $-1 0 24.542687159965773 7.1784757146248355 -1 0 0 I I #
coedge $-1 $211 $318 $213 $337 reversed $125 $-1 #
vertex $-1 $329 $464 #
straight-curve $-1 0 -24.542687159965773 7.1784757146248355 1 0 0 I I #
edge $-1 $216 -7.1784757146248355 $326 7.1784757146248355 $213 $465 forward 7 unknown #
edge $-1 $217 -7.1784757146248355 $325 7.1784757146248355 $214 $466 forward 7 unknown #
point $-1 58.377025666066473 -24.542687159965773 7.1784757146248355 #
point $-1 58.377025666066473 24.542687159965773 7.1784757146248355 #
face $-1 $-1 $234 $31 $-1 $467 reversed single #
loop $-1 $-1 $225 $219 #
plane-surface $-1 0 0 7.1784757146248355 0 0 1 1 0 0 forward_v I I I I #
coedge $-1 $468 $222 $227 $353 forward $133 $-1 #
coedge $-1 $222 $468 $348 $469 reversed $133 $-1 #
edge $-1 $351 -4.3392378573124173 $358 -1.3392378573124177 $222 $470 forward 7 unknown #
edge $-1 $236 1.3392378573124177 $350 4.3392378573124173 $232 $471 forward 7 unknown #
coedge $-1 $472 $225 $345 $469 forward $342 $-1 #
coedge $-1 $225 $472 $360 $473 forward $342 $-1 #
vertex $-1 $347 $474 #
vertex $-1 $469 $475 #
straight-curve $-1 0 -17.566199866889569 7.1784757146248355 -1 0 0 I I #
edge $-1 $358 7.0389781101757336 $356 14.015465403251937 $344 $476 forward 7 unknown #
coedge $-1 $477 $228 $233 $361 reversed $220 $-1 #
coedge $-1 $228 $477 $468 $478 forward $220 $-1 #
vertex $-1 $229 $479 #
straight-curve $-1 0 -24.542687159965773 4.1784757146248355 1 0 0 I I #
vertex $-1 $353 $480 #
straight-curve $-1 0 -17.566199866889569 4.1784757146248355 1 0 0 I I #
coedge $-1 $233 $232 $349 $473 reversed $234 $-1 #
edge $-1 $481 -7.1784757146248355 $235 -4.1784757146248355 $233 $482 forward 7 unknown #
point $-1 58.377025666066473 -24.542687159965773 4.1784757146248355 #
point $-1 58.377025666066473 -17.566199866889569 4.1784757146248355 #
loop $-1 $-1 $246 $238 #
plane-surface $-1 58.377025666066473 0 0 -1 0 0 0 0 1 forward_v I I I I #
coedge $-1 $367 $241 $483 $484 reversed $141 $-1 #
coedge $-1 $241 $366 $370 $485 reversed $141 $-1 #
edge $-1 $486 -116.75405133213295 $371 -109.17821659189234 $241 $487 forward 7 unknown #
coedge $-1 $243 $242 $374 $488 reversed $89 $-1 #
coedge $-1 $249 $244 $367 $485 forward $239 $-1 #
vertex $-1 $485 $489 #
straight-curve $-1 53.924061817282222 -7.1416544769356216 7.1784757146248452 0 -1 0 I I #
coedge $-1 $483 $246 $249 $378 reversed $364 $-1 #
coedge $-1 $246 $483 $369 $488 forward $364 $-1 #
vertex $-1 $247 $490 #
straight-curve $-1 58.377025666066473 -11.000418040852914 82.065908724906635 0 0 1 I I #
straight-curve $-1 -10.249282537242749 -11.000418040852914 95.505509246504047 0.5877852410284794 0 -0.80901700255871778 I I #
edge $-1 $491 -17.566199866889569 $250 -11.000418040852914 $373 $492 forward 7 unknown #
point $-1 58.377025666066473 -11.000418040852914 7.1784757146248355 #
point $-1 53.924061817282222 -11.000418040852914 7.1784757146248381 #
edge $-1 $493 1 $493 0 $253 $-1 forward 7 unknown #
vertex $-1 $254 $494 #
ellipse-curve $-1 55.270271419147853 -14.283308953871243 3.4744308980940701 0.80901700255871778 0 0.5877852410284794 0.5877852410284794 0 -0.80901700255871778 1 I I #
point $-1 56.738328982702839 -14.283308953871243 3.3049691553512761 #
loop $-1 $-1 $394 $257 #
plane-surface $-1 58.377025666066473 0 0 -1 0 0 0 0 1 forward_v I I I I #
coedge $-1 $388 $260 $268 $400 reversed $156 $-1 #
coedge $-1 $260 $387 $495 $496 forward $156 $-1 #
coedge $-1 $394 $497 $262 $390 forward $385 $-1 #
edge $-1 $392 74.887433010281796 $398 81.016412123711447 $389 $498 forward 7 unknown #
coedge $-1 $268 $263 $497 $499 forward $258 $-1 #
vertex $-1 $499 $500 #
straight-curve $-1 42.103365054033056 17.976905333929118 7.1784757146248381 1 0 0 I I #
coedge $-1 $495 $389 $265 $395 forward $385 $-1 #
edge $-1 $398 7.347007210455395 $396 13.91278903649205 $394 $501 forward 7 unknown #
vertex $-1 $266 $502 #
straight-curve $-1 14.229021430459021 24.542687159965773 61.814013235103282 -0.5877852410284794 0 0.80901700255871778 I I #
vertex $-1 $395 $503 #
straight-curve $-1 -10.249282537242749 17.976905333929118 95.505509246504047 -0.5877852410284794 0 0.80901700255871778 I I #
edge $-1 $504 -58.377025666066473 $269 -53.924061817282222 $387 $505 forward 7 unknown #
point $-1 53.924061817282222 24.542687159965773 7.1784757146248381 #
point $-1 53.924061817282222 17.976905333929118 7.1784757146248381 #
edge $-1 $506 1 $506 0 $272 $-1 forward 7 unknown #
vertex $-1 $273 $507 #
ellipse-curve $-1 55.270271419147853 21.259796246947445 3.4744308980940701 0.80901700255871778 0 0.5877852410284794 0.5877852410284794 0 -0.80901700255871778 1 I I #
point $-1 56.738328982702839 21.259796246947445 3.3049691553512761 #
loop $-1 $-1 $508 $276 #
plane-surface $-1 -58.377025666066473 0 0 1 0 0 0 0 -1 forward_v I I I I #
coedge $-1 $410 $279 $287 $422 reversed $171 $-1 #
coedge $-1 $279 $409 $508 $509 reversed $171 $-1 #
coedge $-1 $416 $510 $281 $412 forward $407 $-1 #
edge $-1 $414 27.659426687627363 $420 33.788405801057024 $411 $511 forward 7 unknown #
coedge $-1 $287 $282 $510 $512 forward $277 $-1 #
vertex $-1 $512 $513 #
straight-curve $-1 -76.416519155687666 -11.000418040852914 7.1784757146248346 -1 0 0 I I #
coedge $-1 $508 $411 $284 $417 forward $407 $-1 #
edge $-1 $420 3.8587635639172921 $418 10.424545389953952 $416 $514 forward 7 unknown #
vertex $-1 $509 $515 #
straight-curve $-1 -47.192037711574912 -17.566199866889569 16.44431225319228 0.5877852410284794 0 0.80901700255871778 I I #
vertex $-1 $417 $516 #
straight-curve $-1 -58.377025666066473 -11.000418040852914 1.0494966011951732 0.5877852410284794 0 0.80901700255871778 I I #
edge $-1 $517 -58.377025666066473 $288 -53.924061817282215 $287 $518 forward 7 unknown #
point $-1 -53.924061817282215 -17.566199866889573 7.1784757146248355 #
point $-1 -53.924061817282215 -11.000418040852914 7.1784757146248355 #
edge $-1 $519 1 $519 0 $291 $-1 forward 7 unknown #
vertex $-1 $292 $520 #
ellipse-curve $-1 -55.270271419147839 -14.283308953871243 3.4744308980940808 -0.80901700255871778 0 0.5877852410284794 0.5877852410284794 0 0.80901700255871778 1 I I #
point $-1 -55.562758500645863 -14.283308953871243 4.9230031604687223 #
loop $-1 $-1 $303 $295 #
plane-surface $-1 0 24.542687159965773 0 0 -1 0 0 0 -1 forward_v I I I I #
coedge $-1 $436 $521 $299 $432 forward $296 $-1 #
edge $-1 $434 18.039493489621194 $442 22.492457338405451 $431 $522 forward 7 unknown #
coedge $-1 $306 $300 $521 $523 reversed $186 $-1 #
vertex $-1 $301 $524 #
straight-curve $-1 -58.377025666066473 17.976905333929118 34.837902402252197 0 0 1 I I #
coedge $-1 $525 $431 $302 $437 forward $296 $-1 #
edge $-1 $442 7.347007210455395 $440 13.91278903649205 $436 $526 forward 7 unknown #
coedge $-1 $439 $303 $306 $444 reversed $429 $-1 #
coedge $-1 $303 $438 $525 $527 reversed $429 $-1 #
vertex $-1 $527 $528 #
straight-curve $-1 -48.542175532113632 24.542687159965773 14.586006912448841 -0.5877852410284794 0 -0.80901700255871778 I I #
vertex $-1 $437 $529 #
straight-curve $-1 -58.377025666066473 17.976905333929118 1.0494966011951732 -0.5877852410284794 0 -0.80901700255871778 I I #
edge $-1 $530 -7.1784757146248355 $307 -1.0494966011951732 $438 $531 forward 7 unknown #
point $-1 -58.377025666066473 24.542687159965773 1.0494966011951732 #
point $-1 -58.377025666066473 17.976905333929118 1.0494966011951732 #
edge $-1 $532 1 $532 0 $310 $-1 forward 7 unknown #
vertex $-1 $311 $533 #
ellipse-curve $-1 -55.270271419147839 21.259796246947445 3.4744308980940808 -0.80901700255871778 0 0.5877852410284794 0.5877852410284794 0 0.80901700255871778 1 I I #
point $-1 -55.562758500645863 21.259796246947445 4.9230031604687223 #
plane-surface $-1 58.377025666066473 0 0 -1 0 0 0 0 1 forward_v I I I I #
coedge $-1 $319 $317 $321 $456 reversed $201 $-1 #
edge $-1 $332 -7.1784757146248355 $458 7.1784757146248355 $331 $534 forward 7 unknown #
vertex $-1 $456 $535 #
straight-curve $-1 -58.377025666066473 -24.542687159965773 0 0 0 -1 I I #
edge $-1 $454 -24.542687159965773 $458 24.542687159965773 $452 $536 forward 7 unknown #
straight-curve $-1 0 -24.542687159965773 -7.1784757146248355 -1 0 0 I I #
vertex $-1 $324 $537 #
straight-curve $-1 0 24.542687159965773 -7.1784757146248355 1 0 0 I I #
point $-1 58.377025666066473 24.542687159965773 -7.1784757146248355 #
point $-1 58.377025666066473 -24.542687159965773 -7.1784757146248355 #
straight-curve $-1 -58.377025666066473 0 7.1784757146248355 0 -1 0 I I #
point $-1 -58.377025666066473 24.542687159965773 7.1784757146248355 #
point $-1 -58.377025666066473 -24.542687159965773 7.1784757146248355 #
straight-curve $-1 58.377025666066473 -24.542687159965773 0 0 0 -1 I I #
straight-curve $-1 58.377025666066473 24.542687159965773 0 0 0 -1 I I #
plane-surface $-1 58.377025666066473 0 0 -1 0 0 0 0 1 forward_v I I I I #
coedge $-1 $345 $344 $355 $478 reversed $133 $-1 #
edge $-1 $351 17.566199866889569 $538 24.542687159965773 $345 $539 forward 7 unknown #
straight-curve $-1 -58.377025666066473 -17.566199866889569 2.8392378573124177 0 0 -1 I I #
straight-curve $-1 58.377025666066473 -17.566199866889569 2.8392378573124177 0 0 1 I I #
coedge $-1 $349 $348 $477 $540 forward $342 $-1 #
edge $-1 $481 -24.542687159965773 $350 -17.566199866889569 $360 $541 forward 7 unknown #
point $-1 58.377025666066473 -17.566199866889569 7.1784757146248355 #
point $-1 -58.377025666066473 -17.566199866889569 7.1784757146248355 #
straight-curve $-1 -58.377025666066473 -10.527221756713836 4.1784757146248355 0 -1 0 I I #
coedge $-1 $355 $354 $472 $540 reversed $220 $-1 #
edge $-1 $538 -7.1784757146248355 $356 -4.1784757146248355 $468 $542 forward 7 unknown #
point $-1 -58.377025666066473 -24.542687159965773 4.1784757146248355 #
point $-1 -58.377025666066473 -17.566199866889569 4.1784757146248355 #
vertex $-1 $473 $543 #
straight-curve $-1 58.377025666066473 -24.542687159965773 0 0 0 -1 I I #
coedge $-1 $374 $373 $366 $484 forward $364 $-1 #
edge $-1 $491 74.887433010281796 $486 81.016412123711447 $483 $544 forward 7 unknown #
edge $-1 $371 53.924061817282222 $491 58.377025666066473 $370 $545 forward 7 unknown #
vertex $-1 $484 $546 #
straight-curve $-1 -10.249282537242749 -17.566199866889573 95.505509246504047 -0.5877852410284794 0 0.80901700255871778 I I #
edge $-1 $486 -10.424545389953952 $375 -3.8587635639172921 $374 $547 forward 7 unknown #
point $-1 53.924061817282222 -17.566199866889569 7.1784757146248355 #
point $-1 58.377025666066473 -11.000418040852914 1.0494966011951874 #
vertex $-1 $378 $548 #
straight-curve $-1 58.377025666066473 0 7.1784757146248355 0 1 0 I I #
vertex $-1 $381 $549 #
point $-1 55.858056660176331 -14.283308953871243 2.6654138955353526 #
coedge $-1 $497 $394 $388 $496 reversed $385 $-1 #
edge $-1 $504 -7.1784757146248355 $396 -1.0494966011951874 $495 $550 forward 7 unknown #
coedge $-1 $389 $495 $391 $499 reversed $385 $-1 #
straight-curve $-1 58.377025666066473 17.976905333929118 82.065908724906635 0 0 -1 I I #
edge $-1 $392 17.976905333929118 $504 24.542687159965773 $497 $551 forward 7 unknown #
point $-1 58.377025666066473 17.976905333929118 7.1784757146248355 #
straight-curve $-1 58.377025666066473 10.629898123473723 1.0494966011951803 0 1 0 I I #
point $-1 58.377025666066473 24.542687159965773 1.0494966011951874 #
point $-1 58.377025666066473 17.976905333929118 1.0494966011951874 #
vertex $-1 $499 $552 #
straight-curve $-1 0 24.542687159965773 7.1784757146248355 -1 0 0 I I #
vertex $-1 $403 $553 #
point $-1 55.858056660176331 21.259796246947445 2.6654138955353526 #
coedge $-1 $510 $416 $410 $509 forward $407 $-1 #
edge $-1 $418 -33.788405801057024 $517 -27.659426687627363 $508 $554 forward 7 unknown #
coedge $-1 $411 $508 $413 $512 reversed $407 $-1 #
straight-curve $-1 -58.377025666066473 -11.000418040852914 34.837902402252197 0 0 -1 I I #
edge $-1 $414 11.000418040852914 $517 17.566199866889569 $510 $555 forward 7 unknown #
point $-1 -58.377025666066473 -11.000418040852914 7.1784757146248355 #
straight-curve $-1 -58.377025666066473 -7.1416544769356216 1.0494966011951763 0 -1 0 I I #
point $-1 -58.377025666066473 -17.566199866889573 1.0494966011951732 #
point $-1 -58.377025666066473 -11.000418040852914 1.0494966011951732 #
vertex $-1 $509 $556 #
straight-curve $-1 0 -17.566199866889569 7.1784757146248355 1 0 0 I I #
vertex $-1 $425 $557 #
point $-1 -54.682486178119362 -14.283308953871243 4.2834479006527992 #
coedge $-1 $431 $525 $433 $523 forward $296 $-1 #
straight-curve $-1 -76.416519155687666 17.976905333929118 7.1784757146248346 1 0 0 I I #
edge $-1 $530 -24.542687159965773 $434 -17.976905333929118 $433 $558 forward 7 unknown #
point $-1 -58.377025666066473 17.976905333929118 7.1784757146248355 #
coedge $-1 $521 $436 $439 $527 forward $296 $-1 #
straight-curve $-1 -53.924061817282208 10.629898123473723 7.1784757146248346 0 1 0 I I #
edge $-1 $440 53.924061817282215 $530 58.377025666066473 $439 $559 forward 7 unknown #
point $-1 -53.924061817282215 24.542687159965773 7.1784757146248355 #
point $-1 -53.924061817282215 17.976905333929118 7.1784757146248355 #
vertex $-1 $527 $560 #
straight-curve $-1 -58.377025666066473 24.542687159965773 0 0 0 -1 I I #
vertex $-1 $447 $561 #
point $-1 -54.682486178119362 21.259796246947445 4.2834479006527992 #
straight-curve $-1 -58.377025666066473 24.542687159965773 0 0 0 -1 I I #
point $-1 -58.377025666066473 -24.542687159965773 -7.1784757146248355 #
straight-curve $-1 -58.377025666066473 0 -7.1784757146248355 0 1 0 I I #
point $-1 -58.377025666066473 24.542687159965773 -7.1784757146248355 #
vertex $-1 $469 $562 #
straight-curve $-1 -58.377025666066473 0 7.1784757146248355 0 -1 0 I I #
edge $-1 $538 -58.377025666066473 $481 58.377025666066473 $477 $563 forward 7 unknown #
straight-curve $-1 58.377025666066473 0 7.1784757146248355 0 1 0 I I #
straight-curve $-1 -58.377025666066473 -24.542687159965773 0 0 0 -1 I I #
point $-1 58.377025666066473 -24.542687159965773 7.1784757146248355 #
straight-curve $-1 58.377025666066473 -17.566199866889573 82.065908724906635 0 0 -1 I I #
straight-curve $-1 0 -17.566199866889569 7.1784757146248355 1 0 0 I I #
point $-1 58.377025666066473 -17.566199866889573 1.0494966011951874 #
straight-curve $-1 58.377025666066473 -7.1416544769356216 1.0494966011951803 0 1 0 I I #
point $-1 58.377025666066473 -17.566199866889569 7.1784757146248355 #
point $-1 54.461254416589135 -14.283308953871243 2.886645657065591 #
straight-curve $-1 58.377025666066473 24.542687159965773 0 0 0 -1 I I #
straight-curve $-1 58.377025666066473 0 7.1784757146248355 0 1 0 I I #
point $-1 58.377025666066473 24.542687159965773 7.1784757146248355 #
point $-1 54.461254416589135 21.259796246947445 2.886645657065591 #
straight-curve $-1 -58.377025666066473 -17.566199866889573 34.837902402252197 0 0 1 I I #
straight-curve $-1 -58.377025666066473 0 7.1784757146248355 0 -1 0 I I #
point $-1 -58.377025666066473 -17.566199866889569 7.1784757146248355 #
point $-1 -54.461254416589121 -14.283308953871243 2.8866456570656016 #
straight-curve $-1 -58.377025666066473 0 7.1784757146248355 0 -1 0 I I #
straight-curve $-1 0 24.542687159965773 7.1784757146248355 -1 0 0 I I #
point $-1 -58.377025666066473 24.542687159965773 7.1784757146248355 #
point $-1 -54.461254416589121 21.259796246947445 2.8866456570656016 #
point $-1 -58.377025666066473 -24.542687159965773 7.1784757146248355 #
straight-curve $-1 0 -24.542687159965773 7.1784757146248355 1 0 0 I I #
End-of-ACIS-data 