500 0 16 0           
7 Unknown 11 ACIS 5.0 NT 24 Thu Mar 25 17:53:39 1999 
-1 9.9999999999999995e-007 1e-010 
body $-1 $16 $-1 $17 #
body $-1 $18 $-1 $19 #
body $-1 $20 $-1 $21 #
body $-1 $22 $-1 $23 #
body $-1 $24 $-1 $25 #
body $-1 $26 $-1 $27 #
body $-1 $28 $-1 $29 #
body $-1 $30 $-1 $31 #
body $-1 $32 $-1 $33 #
body $-1 $34 $-1 $35 #
body $-1 $36 $-1 $37 #
body $-1 $38 $-1 $39 #
body $-1 $40 $-1 $41 #
body $-1 $42 $-1 $43 #
body $-1 $44 $-1 $45 #
body $-1 $46 $-1 $47 #
lump $-1 $-1 $48 $0 #
transform $-1 1 0 0 0 1 0 0 0 1 75.833613086336868 43.69522278981799 9.371929861349555 1 rotate no_reflect no_shear #
lump $-1 $-1 $49 $1 #
transform $-1 1 0 0 0 1 0 0 0 1 75.833613086336868 43.69522278981799 9.371929861349555 1 rotate no_reflect no_shear #
lump $-1 $-1 $50 $2 #
transform $-1 1 0 0 0 1 0 0 0 1 75.833613086336868 43.69522278981799 9.371929861349555 1 rotate no_reflect no_shear #
lump $-1 $-1 $51 $3 #
transform $-1 1 0 0 0 1 0 0 0 1 75.833613086336868 43.69522278981799 9.371929861349555 1 rotate no_reflect no_shear #
lump $-1 $-1 $52 $4 #
transform $-1 1 0 0 0 1 0 0 0 1 75.833613086336868 43.69522278981799 9.371929861349555 1 rotate no_reflect no_shear #
lump $-1 $-1 $53 $5 #
transform $-1 1 0 0 0 1 0 0 0 1 75.833613086336868 43.69522278981799 9.371929861349555 1 rotate no_reflect no_shear #
lump $-1 $-1 $54 $6 #
transform $-1 1 0 0 0 1 0 0 0 1 75.833613086336868 43.69522278981799 9.371929861349555 1 rotate no_reflect no_shear #
lump $-1 $-1 $55 $7 #
transform $-1 1 0 0 0 1 0 0 0 1 75.833613086336868 43.69522278981799 9.371929861349555 1 rotate no_reflect no_shear #
lump $-1 $-1 $56 $8 #
transform $-1 1 0 0 0 1 0 0 0 1 75.833613086336868 43.69522278981799 9.371929861349555 1 rotate no_reflect no_shear #
lump $-1 $-1 $57 $9 #
transform $-1 1 0 0 0 1 0 0 0 1 75.833613086336868 43.69522278981799 9.371929861349555 1 rotate no_reflect no_shear #
lump $-1 $-1 $58 $10 #
transform $-1 1 0 0 0 1 0 0 0 1 75.833613086336868 43.69522278981799 9.371929861349555 1 rotate no_reflect no_shear #
lump $-1 $-1 $59 $11 #
transform $-1 1 0 0 0 1 0 0 0 1 75.833613086336868 43.69522278981799 9.371929861349555 1 rotate no_reflect no_shear #
lump $-1 $-1 $60 $12 #
transform $-1 1 0 0 0 1 0 0 0 1 75.833613086336868 43.69522278981799 9.371929861349555 1 rotate no_reflect no_shear #
lump $-1 $-1 $61 $13 #
transform $-1 1 0 0 0 1 0 0 0 1 75.833613086336868 43.69522278981799 9.371929861349555 1 rotate no_reflect no_shear #
lump $-1 $-1 $62 $14 #
transform $-1 1 0 0 0 1 0 0 0 1 75.833613086336868 43.69522278981799 9.371929861349555 1 rotate no_reflect no_shear #
lump $-1 $-1 $63 $15 #
transform $-1 1 0 0 0 1 0 0 0 1 75.833613086336868 43.69522278981799 9.371929861349555 1 rotate no_reflect no_shear #
shell $-1 $-1 $-1 $64 $-1 $16 #
shell $-1 $-1 $-1 $65 $-1 $18 #
shell $-1 $-1 $-1 $66 $-1 $20 #
shell $-1 $-1 $-1 $67 $-1 $22 #
shell $-1 $-1 $-1 $68 $-1 $24 #
shell $-1 $-1 $-1 $69 $-1 $26 #
shell $-1 $-1 $-1 $70 $-1 $28 #
shell $-1 $-1 $-1 $71 $-1 $30 #
shell $-1 $-1 $-1 $72 $-1 $32 #
shell $-1 $-1 $-1 $73 $-1 $34 #
shell $-1 $-1 $-1 $74 $-1 $36 #
shell $-1 $-1 $-1 $75 $-1 $38 #
shell $-1 $-1 $-1 $76 $-1 $40 #
shell $-1 $-1 $-1 $77 $-1 $42 #
shell $-1 $-1 $-1 $78 $-1 $44 #
shell $-1 $-1 $-1 $79 $-1 $46 #
face $-1 $80 $81 $48 $-1 $82 forward single #
face $-1 $83 $84 $49 $-1 $85 reversed single #
face $-1 $86 $87 $50 $-1 $88 reversed single #
face $-1 $89 $90 $51 $-1 $91 forward single #
face $-1 $92 $93 $52 $-1 $94 reversed single #
face $-1 $95 $96 $53 $-1 $97 forward single #
face $-1 $98 $99 $54 $-1 $100 reversed single #
face $-1 $101 $102 $55 $-1 $103 forward single #
face $-1 $104 $105 $56 $-1 $106 reversed single #
face $-1 $107 $108 $57 $-1 $109 forward single #
face $-1 $110 $111 $58 $-1 $112 reversed single #
face $-1 $113 $114 $59 $-1 $115 forward single #
face $-1 $116 $117 $60 $-1 $118 forward single #
face $-1 $119 $120 $61 $-1 $121 reversed single #
face $-1 $122 $123 $62 $-1 $124 forward single #
face $-1 $125 $126 $63 $-1 $127 forward single #
face $-1 $128 $129 $48 $-1 $130 reversed single #
loop $-1 $-1 $131 $64 #
plane-surface $-1 0 0 9.371929861349555 0 0 1 1 0 0 forward_v I I I I #
face $-1 $132 $133 $49 $-1 $134 reversed single #
loop $-1 $-1 $135 $65 #
plane-surface $-1 -74.333613086336868 -36.598171807292388 0 0 -1 0 0 0 -1 forward_v I I I I #
face $-1 $136 $137 $50 $-1 $138 reversed single #
loop $-1 $-1 $139 $66 #
plane-surface $-1 -153.94801032036497 -24.608378485991491 134.76072191239783 0 1 0 -0.51503808176128008 0 0.85716729658548041 forward_v I I I I #
face $-1 $140 $141 $51 $-1 $142 forward single #
loop $-1 $143 $144 $67 #
cone-surface $-1 -70.737457650224698 -20.566600822003139 4.9747256202120358 0.51503808176128008 0 -0.85716729658548041 1.2857509448782207 0 0.77255712264192011 1 I I 0 1 1.5 forward I I I I #
face $-1 $145 $146 $52 $-1 $147 reversed single #
loop $-1 $-1 $148 $68 #
plane-surface $-1 -153.94801032036497 -8.5316276104808573 134.76072191239783 0 1 0 -0.51503808176128008 0 0.85716729658548041 forward_v I I I I #
face $-1 $149 $150 $53 $-1 $151 forward single #
loop $-1 $152 $153 $69 #
cone-surface $-1 -70.737457650224698 -4.4898499464925052 4.9747256202120358 0.51503808176128008 0 -0.85716729658548041 1.2857509448782207 0 0.77255712264192011 1 I I 0 1 1.5 forward I I I I #
face $-1 $154 $155 $54 $-1 $156 reversed single #
loop $-1 $-1 $157 $70 #
plane-surface $-1 -153.94801032036497 7.5451232650297761 134.76072191239783 0 1 0 -0.51503808176128008 0 0.85716729658548041 forward_v I I I I #
face $-1 $158 $159 $55 $-1 $160 forward single #
loop $-1 $161 $162 $71 #
cone-surface $-1 -70.737457650224698 11.586900929018128 4.9747256202120358 0.51503808176128008 0 -0.85716729658548041 1.2857509448782207 0 0.77255712264192011 1 I I 0 1 1.5 forward I I I I #
face $-1 $163 $164 $56 $-1 $165 reversed single #
loop $-1 $-1 $166 $72 #
plane-surface $-1 -153.94801032036497 23.621874140540417 134.76072191239783 0 1 0 -0.51503808176128008 0 0.85716729658548041 forward_v I I I I #
face $-1 $167 $168 $57 $-1 $169 forward single #
loop $-1 $170 $171 $73 #
cone-surface $-1 -70.737457650224698 27.663651804528769 4.9747256202120358 0.51503808176128008 0 -0.85716729658548041 1.2857509448782207 0 0.77255712264192011 1 I I 0 1 1.5 forward I I I I #
face $-1 $172 $173 $58 $-1 $174 reversed single #
loop $-1 $-1 $175 $74 #
plane-surface $-1 79.576979637704312 -17.300646749748811 220.21383305399968 0 -1 0 -0.71933980857756763 0 -0.69465836192734942 forward_v I I I I #
face $-1 $176 $177 $59 $-1 $178 forward single #
loop $-1 $179 $180 $75 #
cone-surface $-1 72.836819333970212 -28.897766658101816 6.3560432357207031 -0.71933980857756763 0 -0.69465836192734942 0.69465836192734942 0 -0.71933980857756763 1 I I 0 1 1 forward I I I I #
face $-1 $181 $182 $60 $-1 $183 forward single #
loop $-1 $184 $185 $76 #
cone-surface $-1 72.836819333970212 -21.939494713090014 6.3560432357207031 -0.71933980857756763 0 -0.69465836192734942 0.69465836192734942 0 -0.71933980857756763 1 I I 0 1 1 forward I I I I #
face $-1 $186 $187 $61 $-1 $188 reversed single #
loop $-1 $-1 $189 $77 #
plane-surface $-1 79.576979637704312 40.633665603968637 220.21383305399968 0 -1 0 -0.71933980857756763 0 -0.69465836192734942 forward_v I I I I #
face $-1 $190 $191 $62 $-1 $192 forward single #
loop $-1 $193 $194 $78 #
cone-surface $-1 72.836819333970212 29.036545695615629 6.3560432357207031 -0.71933980857756763 0 -0.69465836192734942 0.69465836192734942 0 -0.71933980857756763 1 I I 0 1 1 forward I I I I #
face $-1 $195 $196 $63 $-1 $197 forward single #
loop $-1 $198 $199 $79 #
cone-surface $-1 72.836819333970212 35.994817640627431 6.3560432357207031 -0.71933980857756763 0 -0.69465836192734942 0.69465836192734942 0 -0.71933980857756763 1 I I 0 1 1 forward I I I I #
face $-1 $200 $201 $48 $-1 $202 reversed single #
loop $-1 $-1 $203 $80 #
plane-surface $-1 0 0 -9.371929861349555 0 0 1 1 0 0 forward_v I I I I #
coedge $-1 $204 $205 $206 $207 forward $81 $-1 #
face $-1 $208 $209 $49 $-1 $210 forward single #
loop $-1 $-1 $211 $83 #
plane-surface $-1 -72.833613086336868 -40.146697298555189 0 -1 0 0 0 0 1 forward_v I I I I #
coedge $-1 $212 $213 $214 $215 forward $84 $-1 #
face $-1 $216 $217 $50 $-1 $218 reversed single #
loop $-1 $-1 $219 $86 #
plane-surface $-1 -75.833613086336882 -20.566600822003139 4.7565356733484521 -0.51503808176128008 0 0.85716729658548041 0.85716729658548041 0 0.51503808176128008 forward_v I I I I #
coedge $-1 $220 $221 $222 $223 reversed $87 $-1 #
face $-1 $-1 $224 $51 $-1 $225 forward single #
loop $-1 $226 $227 $89 #
cone-surface $-1 -69.095676508281656 -20.566600822003139 2.2423430006359375 0.51503808176128008 0 -0.85716729658548041 0.64287547243911036 0 0.38627856132096006 1 I I -0.70710678118654757 0.70710678118654757 0.75 forward I I I I #
loop $-1 $-1 $228 $67 #
coedge $-1 $144 $144 $229 $230 reversed $90 $-1 #
face $-1 $231 $232 $52 $-1 $233 reversed single #
loop $-1 $-1 $234 $92 #
plane-surface $-1 -75.833613086336882 -4.4898499464925052 4.7565356733484521 -0.51503808176128008 0 0.85716729658548041 0.85716729658548041 0 0.51503808176128008 forward_v I I I I #
coedge $-1 $235 $236 $237 $238 reversed $93 $-1 #
face $-1 $-1 $239 $53 $-1 $240 forward single #
loop $-1 $241 $242 $95 #
cone-surface $-1 -69.095676508281656 -4.4898499464925052 2.2423430006359375 0.51503808176128008 0 -0.85716729658548041 0.64287547243911036 0 0.38627856132096006 1 I I -0.70710678118654757 0.70710678118654757 0.75 forward I I I I #
loop $-1 $-1 $243 $69 #
coedge $-1 $153 $153 $244 $245 reversed $96 $-1 #
face $-1 $246 $247 $54 $-1 $248 reversed single #
loop $-1 $-1 $249 $98 #
plane-surface $-1 -75.833613086336882 11.586900929018128 4.7565356733484521 -0.51503808176128008 0 0.85716729658548041 0.85716729658548041 0 0.51503808176128008 forward_v I I I I #
coedge $-1 $250 $251 $252 $253 reversed $99 $-1 #
face $-1 $-1 $254 $55 $-1 $255 forward single #
loop $-1 $256 $257 $101 #
cone-surface $-1 -69.095676508281656 11.586900929018128 2.2423430006359375 0.51503808176128008 0 -0.85716729658548041 0.64287547243911036 0 0.38627856132096006 1 I I -0.70710678118654757 0.70710678118654757 0.75 forward I I I I #
loop $-1 $-1 $258 $71 #
coedge $-1 $162 $162 $259 $260 reversed $102 $-1 #
face $-1 $261 $262 $56 $-1 $263 reversed single #
loop $-1 $-1 $264 $104 #
plane-surface $-1 -75.833613086336882 27.663651804528769 4.7565356733484521 -0.51503808176128008 0 0.85716729658548041 0.85716729658548041 0 0.51503808176128008 forward_v I I I I #
coedge $-1 $265 $266 $267 $268 reversed $105 $-1 #
face $-1 $-1 $269 $57 $-1 $270 forward single #
loop $-1 $271 $272 $107 #
cone-surface $-1 -69.095676508281656 27.663651804528769 2.2423430006359375 0.51503808176128008 0 -0.85716729658548041 0.64287547243911036 0 0.38627856132096006 1 I I -0.70710678118654757 0.70710678118654757 0.75 forward I I I I #
loop $-1 $-1 $273 $73 #
coedge $-1 $171 $171 $274 $275 reversed $108 $-1 #
face $-1 $276 $277 $58 $-1 $278 reversed single #
loop $-1 $-1 $279 $110 #
plane-surface $-1 -29.523293804837465 -25.418630685595915 114.85692616282532 0.71933980857756763 0 0.69465836192734942 0.69465836192734942 0 -0.71933980857756763 forward_v I I I I #
coedge $-1 $280 $281 $282 $283 reversed $111 $-1 #
face $-1 $-1 $284 $59 $-1 $285 forward single #
loop $-1 $286 $287 $113 #
cone-surface $-1 71.225971912354197 -28.897766658101816 4.8004659996611867 -0.71933980857756763 0 -0.69465836192734942 0.34732918096367471 0 -0.35966990428878381 1 I I -0.70710678118654746 0.70710678118654746 0.5 forward I I I I #
loop $-1 $-1 $288 $75 #
coedge $-1 $180 $180 $289 $290 reversed $114 $-1 #
face $-1 $-1 $291 $60 $-1 $292 forward single #
loop $-1 $293 $294 $116 #
cone-surface $-1 71.225971912354197 -21.939494713090014 4.8004659996611867 -0.71933980857756763 0 -0.69465836192734942 0.34732918096367471 0 -0.35966990428878381 1 I I -0.70710678118654746 0.70710678118654746 0.5 forward I I I I #
loop $-1 $-1 $295 $76 #
coedge $-1 $185 $185 $296 $297 reversed $117 $-1 #
face $-1 $298 $299 $61 $-1 $300 reversed single #
loop $-1 $-1 $301 $119 #
plane-surface $-1 -29.523293804837465 32.51568166812153 114.85692616282532 0.71933980857756763 0 0.69465836192734942 0.69465836192734942 0 -0.71933980857756763 forward_v I I I I #
coedge $-1 $302 $303 $304 $305 reversed $120 $-1 #
face $-1 $-1 $306 $62 $-1 $307 forward single #
loop $-1 $308 $309 $122 #
cone-surface $-1 71.225971912354197 29.036545695615629 4.8004659996611867 -0.71933980857756763 0 -0.69465836192734942 0.34732918096367471 0 -0.35966990428878381 1 I I -0.70710678118654746 0.70710678118654746 0.5 forward I I I I #
loop $-1 $-1 $310 $78 #
coedge $-1 $194 $194 $311 $312 reversed $123 $-1 #
face $-1 $-1 $313 $63 $-1 $314 forward single #
loop $-1 $315 $316 $125 #
cone-surface $-1 71.225971912354197 35.994817640627431 4.8004659996611867 -0.71933980857756763 0 -0.69465836192734942 0.34732918096367471 0 -0.35966990428878381 1 I I -0.70710678118654746 0.70710678118654746 0.5 forward I I I I #
loop $-1 $-1 $317 $79 #
coedge $-1 $199 $199 $318 $319 reversed $126 $-1 #
face $-1 $320 $321 $48 $-1 $322 reversed single #
loop $-1 $-1 $323 $128 #
plane-surface $-1 0 -43.69522278981799 0 0 1 0 0 0 1 forward_v I I I I #
coedge $-1 $324 $325 $326 $327 forward $129 $-1 #
coedge $-1 $328 $131 $329 $330 forward $81 $-1 #
coedge $-1 $131 $328 $331 $332 forward $81 $-1 #
coedge $-1 $333 $334 $131 $207 reversed $335 $-1 #
edge $-1 $336 -43.69522278981799 $337 43.69522278981799 $206 $338 forward 7 unknown #
face $-1 $339 $340 $49 $-1 $341 reversed single #
loop $-1 $-1 $342 $132 #
plane-surface $-1 0 0 9.371929861349555 0 0 1 1 0 0 forward_v I I I I #
coedge $-1 $343 $344 $345 $346 reversed $133 $-1 #
coedge $-1 $347 $135 $348 $349 reversed $84 $-1 #
coedge $-1 $135 $347 $350 $351 reversed $84 $-1 #
coedge $-1 $344 $343 $135 $215 reversed $133 $-1 #
edge $-1 $352 -9.371929861349555 $353 9.371929861349555 $214 $354 forward 7 unknown #
face $-1 $355 $356 $50 $-1 $357 reversed single #
loop $-1 $-1 $358 $136 #
plane-surface $-1 -153.94801032036497 -16.524823158014787 134.76072191239783 0 -1 0 0.51503808176128008 0 -0.85716729658548041 forward_v I I I I #
coedge $-1 $359 $360 $361 $362 reversed $137 $-1 #
coedge $-1 $221 $139 $363 $364 reversed $87 $-1 #
coedge $-1 $139 $220 $359 $365 reversed $87 $-1 #
coedge $-1 $361 $366 $139 $223 forward $367 $-1 #
edge $-1 $368 1.1403920738456179 $369 8.8216977848258722 $222 $370 forward 7 unknown #
loop $-1 $-1 $229 $140 #
plane-surface $-1 -75.833613086336882 -20.566600822003139 4.7565356733484521 -0.51503808176128008 0 0.85716729658548041 0.85716729658548041 0 0.51503808176128008 forward_v I I I I #
loop $-1 $-1 $371 $89 #
coedge $-1 $227 $227 $228 $372 reversed $141 $-1 #
coedge $-1 $228 $228 $227 $372 forward $143 $-1 #
coedge $-1 $229 $229 $144 $230 forward $224 $-1 #
edge $-1 $373 0 $373 6.2831853071796004 $229 $374 forward 7 unknown #
face $-1 $375 $376 $52 $-1 $377 forward single #
loop $-1 $-1 $378 $145 #
plane-surface $-1 -153.94801032036497 -0.44807228250415321 134.76072191239783 0 -1 0 0.51503808176128008 0 -0.85716729658548041 forward_v I I I I #
coedge $-1 $379 $380 $381 $382 reversed $146 $-1 #
coedge $-1 $236 $148 $383 $384 reversed $93 $-1 #
coedge $-1 $148 $235 $379 $385 reversed $93 $-1 #
coedge $-1 $381 $386 $148 $238 forward $376 $-1 #
edge $-1 $387 1.1403920738456179 $388 8.8216977848258722 $237 $389 forward 7 unknown #
loop $-1 $-1 $244 $149 #
plane-surface $-1 -75.833613086336882 -4.4898499464925052 4.7565356733484521 -0.51503808176128008 0 0.85716729658548041 0.85716729658548041 0 0.51503808176128008 forward_v I I I I #
loop $-1 $-1 $390 $95 #
coedge $-1 $242 $242 $243 $391 reversed $150 $-1 #
coedge $-1 $243 $243 $242 $391 forward $152 $-1 #
coedge $-1 $244 $244 $153 $245 forward $239 $-1 #
edge $-1 $392 0 $392 6.2831853071796004 $244 $393 forward 7 unknown #
face $-1 $394 $395 $54 $-1 $396 forward single #
loop $-1 $-1 $397 $154 #
plane-surface $-1 -153.94801032036497 15.62867859300648 134.76072191239783 0 -1 0 0.51503808176128008 0 -0.85716729658548041 forward_v I I I I #
coedge $-1 $398 $399 $400 $401 reversed $155 $-1 #
coedge $-1 $251 $157 $402 $403 reversed $99 $-1 #
coedge $-1 $157 $250 $398 $404 reversed $99 $-1 #
coedge $-1 $400 $405 $157 $253 forward $395 $-1 #
edge $-1 $406 1.1403920738456179 $407 8.8216977848258722 $252 $408 forward 7 unknown #
loop $-1 $-1 $259 $158 #
plane-surface $-1 -75.833613086336882 11.586900929018128 4.7565356733484521 -0.51503808176128008 0 0.85716729658548041 0.85716729658548041 0 0.51503808176128008 forward_v I I I I #
loop $-1 $-1 $409 $101 #
coedge $-1 $257 $257 $258 $410 reversed $159 $-1 #
coedge $-1 $258 $258 $257 $410 forward $161 $-1 #
coedge $-1 $259 $259 $162 $260 forward $254 $-1 #
edge $-1 $411 0 $411 6.2831853071796004 $259 $412 forward 7 unknown #
face $-1 $413 $414 $56 $-1 $415 forward single #
loop $-1 $-1 $416 $163 #
plane-surface $-1 -153.94801032036497 31.705429468517121 134.76072191239783 0 -1 0 0.51503808176128008 0 -0.85716729658548041 forward_v I I I I #
coedge $-1 $417 $418 $419 $420 reversed $164 $-1 #
coedge $-1 $266 $166 $421 $422 reversed $105 $-1 #
coedge $-1 $166 $265 $417 $423 reversed $105 $-1 #
coedge $-1 $419 $424 $166 $268 forward $414 $-1 #
edge $-1 $425 1.1403920738456179 $426 8.8216977848258722 $267 $427 forward 7 unknown #
loop $-1 $-1 $274 $167 #
plane-surface $-1 -75.833613086336882 27.663651804528769 4.7565356733484521 -0.51503808176128008 0 0.85716729658548041 0.85716729658548041 0 0.51503808176128008 forward_v I I I I #
loop $-1 $-1 $428 $107 #
coedge $-1 $272 $272 $273 $429 reversed $168 $-1 #
coedge $-1 $273 $273 $272 $429 forward $170 $-1 #
coedge $-1 $274 $274 $171 $275 forward $269 $-1 #
edge $-1 $430 0 $430 6.2831853071796004 $274 $431 forward 7 unknown #
face $-1 $432 $433 $58 $-1 $434 forward single #
loop $-1 $-1 $435 $172 #
plane-surface $-1 79.576979637704312 -33.536614621443022 220.21383305399968 0 1 0 0.71933980857756763 0 0.69465836192734942 forward_v I I I I #
coedge $-1 $436 $437 $438 $439 reversed $173 $-1 #
coedge $-1 $281 $175 $440 $441 reversed $111 $-1 #
coedge $-1 $175 $280 $436 $442 reversed $111 $-1 #
coedge $-1 $438 $443 $175 $283 forward $433 $-1 #
edge $-1 $444 -36.045123267484712 $445 -32.553890797405884 $282 $446 forward 7 unknown #
loop $-1 $-1 $289 $176 #
plane-surface $-1 -29.523293804837465 -25.418630685595915 114.85692616282532 0.71933980857756763 0 0.69465836192734942 0.69465836192734942 0 -0.71933980857756763 forward_v I I I I #
loop $-1 $-1 $447 $113 #
coedge $-1 $287 $287 $288 $448 reversed $177 $-1 #
coedge $-1 $288 $288 $287 $448 forward $179 $-1 #
coedge $-1 $289 $289 $180 $290 forward $284 $-1 #
edge $-1 $449 0 $449 6.2831853071796004 $289 $450 forward 7 unknown #
loop $-1 $-1 $296 $181 #
plane-surface $-1 -29.523293804837465 -25.418630685595915 114.85692616282532 0.71933980857756763 0 0.69465836192734942 0.69465836192734942 0 -0.71933980857756763 forward_v I I I I #
loop $-1 $-1 $451 $116 #
coedge $-1 $294 $294 $295 $452 reversed $182 $-1 #
coedge $-1 $295 $295 $294 $452 forward $184 $-1 #
coedge $-1 $296 $296 $185 $297 forward $291 $-1 #
edge $-1 $453 0 $453 6.2831853071796004 $296 $454 forward 7 unknown #
face $-1 $455 $456 $61 $-1 $457 reversed single #
loop $-1 $-1 $458 $186 #
plane-surface $-1 79.576979637704312 24.397697732274427 220.21383305399968 0 1 0 0.71933980857756763 0 0.69465836192734942 forward_v I I I I #
coedge $-1 $459 $460 $461 $462 reversed $187 $-1 #
coedge $-1 $303 $189 $463 $464 reversed $120 $-1 #
coedge $-1 $189 $302 $459 $465 reversed $120 $-1 #
coedge $-1 $461 $466 $189 $305 forward $467 $-1 #
edge $-1 $468 -36.045123267484712 $469 -32.553890797405884 $304 $470 forward 7 unknown #
loop $-1 $-1 $311 $190 #
plane-surface $-1 -29.523293804837465 32.51568166812153 114.85692616282532 0.71933980857756763 0 0.69465836192734942 0.69465836192734942 0 -0.71933980857756763 forward_v I I I I #
loop $-1 $-1 $471 $122 #
coedge $-1 $309 $309 $310 $472 reversed $191 $-1 #
coedge $-1 $310 $310 $309 $472 forward $193 $-1 #
coedge $-1 $311 $311 $194 $312 forward $306 $-1 #
edge $-1 $473 0 $473 6.2831853071796004 $311 $474 forward 7 unknown #
loop $-1 $-1 $318 $195 #
plane-surface $-1 -29.523293804837465 32.51568166812153 114.85692616282532 0.71933980857756763 0 0.69465836192734942 0.69465836192734942 0 -0.71933980857756763 forward_v I I I I #
loop $-1 $-1 $475 $125 #
coedge $-1 $316 $316 $317 $476 reversed $196 $-1 #
coedge $-1 $317 $317 $316 $476 forward $198 $-1 #
coedge $-1 $318 $318 $199 $319 forward $313 $-1 #
edge $-1 $477 0 $477 6.2831853071796004 $318 $478 forward 7 unknown #
face $-1 $479 $480 $48 $-1 $481 reversed single #
loop $-1 $-1 $482 $200 #
plane-surface $-1 -75.833613086336868 0 0 1 0 0 0 0 -1 forward_v I I I I #
coedge $-1 $483 $331 $484 $485 forward $201 $-1 #
coedge $-1 $486 $203 $483 $487 forward $129 $-1 #
coedge $-1 $203 $486 $488 $489 forward $129 $-1 #
coedge $-1 $334 $333 $203 $327 reversed $335 $-1 #
edge $-1 $490 -43.69522278981799 $491 43.69522278981799 $326 $492 forward 7 unknown #
coedge $-1 $205 $204 $493 $494 forward $81 $-1 #
coedge $-1 $495 $496 $204 $330 reversed $480 $-1 #
edge $-1 $337 -75.833613086336868 $497 75.833613086336868 $329 $498 forward 7 unknown #
coedge $-1 $323 $499 $205 $332 reversed $201 $-1 #
edge $-1 $500 -75.833613086336868 $336 75.833613086336868 $331 $501 forward 7 unknown #
coedge $-1 $326 $206 $499 $502 forward $335 $-1 #
coedge $-1 $206 $326 $495 $503 reversed $335 $-1 #
loop $-1 $-1 $333 $479 #
vertex $-1 $207 $504 #
vertex $-1 $207 $505 #
straight-curve $-1 75.833613086336868 0 9.371929861349555 0 1 0 I I #
face $-1 $506 $507 $49 $-1 $508 reversed single #
loop $-1 $-1 $509 $208 #
plane-surface $-1 -75.833613086336868 0 0 1 0 0 0 0 -1 forward_v I I I I #
coedge $-1 $350 $510 $344 $511 forward $209 $-1 #
coedge $-1 $214 $211 $512 $513 reversed $133 $-1 #
coedge $-1 $211 $214 $342 $511 reversed $133 $-1 #
coedge $-1 $514 $515 $211 $346 forward $516 $-1 #
edge $-1 $517 -9.371929861349555 $518 9.371929861349555 $345 $519 forward 7 unknown #
coedge $-1 $213 $212 $509 $520 reversed $84 $-1 #
coedge $-1 $512 $521 $212 $349 forward $507 $-1 #
edge $-1 $522 -38.666806543168434 $353 -35.666806543168434 $348 $523 forward 7 unknown #
coedge $-1 $524 $342 $213 $351 forward $209 $-1 #
edge $-1 $352 35.666806543168434 $525 38.666806543168434 $350 $526 forward 7 unknown #
vertex $-1 $351 $527 #
vertex $-1 $349 $528 #
straight-curve $-1 -72.833613086336868 -36.598171807292388 0 0 0 -1 I I #
face $-1 $-1 $367 $50 $-1 $529 forward single #
loop $-1 $-1 $530 $216 #
plane-surface $-1 -75.833613086336868 0 0 1 0 0 0 0 -1 forward_v I I I I #
coedge $-1 $531 $532 $533 $534 reversed $217 $-1 #
coedge $-1 $535 $219 $221 $365 forward $137 $-1 #
coedge $-1 $219 $535 $531 $536 forward $137 $-1 #
coedge $-1 $533 $222 $219 $362 forward $367 $-1 #
edge $-1 $369 -14.325078074989921 $537 -6.2415227470132173 $361 $538 forward 7 unknown #
coedge $-1 $539 $540 $220 $364 forward $356 $-1 #
edge $-1 $541 -62.623825282850454 $368 -58.008431094849357 $363 $542 forward 7 unknown #
edge $-1 $369 -8.9612678196878175 $541 -1.6755537013839907e-014 $221 $543 forward 7 unknown #
coedge $-1 $222 $533 $539 $544 forward $367 $-1 #
loop $-1 $-1 $533 $355 #
vertex $-1 $364 $545 #
vertex $-1 $223 $546 #
straight-curve $-1 -76.974005160182486 -24.608378485991491 9.3719298613495567 1 0 0 I I #
coedge $-1 $371 $371 $-1 $547 reversed $226 $-1 #
edge $-1 $548 0 $548 6.2831853071796004 $227 $549 forward 7 unknown #
vertex $-1 $230 $550 #
ellipse-curve $-1 -71.992960230846762 -20.566600822003139 7.0642327673489973 -0.51503808176128008 0 0.85716729658548041 1.2857509448782207 0 0.77255712264192011 1 I I #
face $-1 $-1 $551 $52 $-1 $552 reversed single #
loop $-1 $-1 $237 $231 #
plane-surface $-1 0 0 9.371929861349555 0 0 1 1 0 0 forward_v I I I I #
coedge $-1 $553 $554 $555 $556 reversed $232 $-1 #
coedge $-1 $557 $234 $236 $385 forward $146 $-1 #
coedge $-1 $234 $557 $553 $558 forward $146 $-1 #
coedge $-1 $555 $237 $234 $382 forward $376 $-1 #
edge $-1 $388 -6.2867026372346047 $559 1.7968526907420994 $381 $560 forward 7 unknown #
coedge $-1 $561 $562 $235 $384 forward $551 $-1 #
edge $-1 $563 -62.623825282850454 $387 -58.008431094849357 $383 $564 forward 7 unknown #
edge $-1 $388 -8.9612678196878175 $563 -1.6755537013839907e-014 $236 $565 forward 7 unknown #
coedge $-1 $237 $555 $561 $566 forward $376 $-1 #
vertex $-1 $384 $567 #
vertex $-1 $238 $568 #
straight-curve $-1 -76.974005160182486 -8.5316276104808573 9.3719298613495567 1 0 0 I I #
coedge $-1 $390 $390 $-1 $569 reversed $241 $-1 #
edge $-1 $570 0 $570 6.2831853071796004 $242 $571 forward 7 unknown #
vertex $-1 $245 $572 #
ellipse-curve $-1 -71.992960230846762 -4.4898499464925052 7.0642327673489973 -0.51503808176128008 0 0.85716729658548041 1.2857509448782207 0 0.77255712264192011 1 I I #
face $-1 $-1 $573 $54 $-1 $574 reversed single #
loop $-1 $-1 $252 $246 #
plane-surface $-1 0 0 9.371929861349555 0 0 1 1 0 0 forward_v I I I I #
coedge $-1 $575 $576 $577 $578 reversed $247 $-1 #
coedge $-1 $579 $249 $251 $404 forward $155 $-1 #
coedge $-1 $249 $579 $575 $580 forward $155 $-1 #
coedge $-1 $577 $252 $249 $401 forward $395 $-1 #
edge $-1 $407 1.7516728005207121 $581 9.8352281284974161 $400 $582 forward 7 unknown #
coedge $-1 $583 $584 $250 $403 forward $573 $-1 #
edge $-1 $585 -62.623825282850454 $406 -58.008431094849357 $402 $586 forward 7 unknown #
edge $-1 $407 -8.9612678196878175 $585 -1.6755537013839907e-014 $251 $587 forward 7 unknown #
coedge $-1 $252 $577 $583 $588 forward $395 $-1 #
vertex $-1 $253 $589 #
vertex $-1 $253 $590 #
straight-curve $-1 -76.974005160182486 7.5451232650297761 9.3719298613495567 1 0 0 I I #
coedge $-1 $409 $409 $-1 $591 reversed $256 $-1 #
edge $-1 $592 0 $592 6.2831853071796004 $257 $593 forward 7 unknown #
vertex $-1 $260 $594 #
ellipse-curve $-1 -71.992960230846762 11.586900929018128 7.0642327673489973 -0.51503808176128008 0 0.85716729658548041 1.2857509448782207 0 0.77255712264192011 1 I I #
face $-1 $-1 $595 $56 $-1 $596 reversed single #
loop $-1 $-1 $267 $261 #
plane-surface $-1 0 0 9.371929861349555 0 0 1 1 0 0 forward_v I I I I #
coedge $-1 $597 $598 $599 $600 reversed $262 $-1 #
coedge $-1 $601 $264 $266 $423 forward $164 $-1 #
coedge $-1 $264 $601 $597 $602 forward $164 $-1 #
coedge $-1 $599 $267 $264 $420 forward $414 $-1 #
edge $-1 $426 9.7900482382760323 $603 17.873603566252736 $419 $604 forward 7 unknown #
coedge $-1 $605 $606 $265 $422 forward $595 $-1 #
edge $-1 $607 -62.623825282850454 $425 -58.008431094849357 $421 $608 forward 7 unknown #
edge $-1 $426 -8.9612678196878175 $607 -1.6755537013839907e-014 $266 $609 forward 7 unknown #
coedge $-1 $267 $599 $605 $610 forward $414 $-1 #
vertex $-1 $268 $611 #
vertex $-1 $268 $612 #
straight-curve $-1 -76.974005160182486 23.621874140540417 9.3719298613495567 1 0 0 I I #
coedge $-1 $428 $428 $-1 $613 reversed $271 $-1 #
edge $-1 $614 0 $614 6.2831853071796004 $272 $615 forward 7 unknown #
vertex $-1 $275 $616 #
ellipse-curve $-1 -71.992960230846762 27.663651804528769 7.0642327673489973 -0.51503808176128008 0 0.85716729658548041 1.2857509448782207 0 0.77255712264192011 1 I I #
face $-1 $-1 $617 $58 $-1 $618 reversed single #
loop $-1 $-1 $282 $276 #
plane-surface $-1 0 0 9.371929861349555 0 0 1 1 0 0 forward_v I I I I #
coedge $-1 $619 $620 $621 $622 reversed $277 $-1 #
coedge $-1 $623 $279 $281 $442 forward $173 $-1 #
coedge $-1 $279 $623 $619 $624 forward $173 $-1 #
coedge $-1 $621 $282 $279 $439 forward $433 $-1 #
edge $-1 $445 4.5913314069508537 $625 20.827299278645064 $438 $626 forward 7 unknown #
coedge $-1 $627 $628 $280 $441 forward $617 $-1 #
edge $-1 $629 -104.35026380671628 $444 -100.73498666565028 $440 $630 forward 7 unknown #
edge $-1 $445 146.64139957729191 $629 151.66722617267371 $281 $631 forward 7 unknown #
coedge $-1 $282 $621 $627 $632 forward $433 $-1 #
vertex $-1 $283 $633 #
vertex $-1 $283 $634 #
straight-curve $-1 39.788489818852156 -17.300646749748811 9.3719298613495567 -1 0 0 I I #
coedge $-1 $447 $447 $-1 $635 reversed $286 $-1 #
edge $-1 $636 0 $636 6.2831853071796004 $287 $637 forward 7 unknown #
vertex $-1 $290 $638 #
ellipse-curve $-1 74.087996851297461 -28.897766658101816 7.5642912908165592 0.71933980857756763 0 0.69465836192734942 0.69465836192734942 0 -0.71933980857756763 1 I I #
coedge $-1 $451 $451 $-1 $639 reversed $293 $-1 #
edge $-1 $640 0 $640 6.2831853071796004 $294 $641 forward 7 unknown #
vertex $-1 $297 $642 #
ellipse-curve $-1 74.087996851297461 -21.939494713090014 7.5642912908165592 0.71933980857756763 0 0.69465836192734942 0.69465836192734942 0 -0.71933980857756763 1 I I #
face $-1 $-1 $467 $61 $-1 $643 forward single #
loop $-1 $-1 $644 $298 #
plane-surface $-1 75.833613086336868 0 0 -1 0 0 0 0 1 forward_v I I I I #
coedge $-1 $645 $646 $647 $648 reversed $299 $-1 #
coedge $-1 $649 $301 $303 $465 forward $187 $-1 #
coedge $-1 $301 $649 $645 $650 forward $187 $-1 #
coedge $-1 $647 $304 $301 $462 forward $467 $-1 #
edge $-1 $469 -24.375824769907872 $651 -8.1398568982136617 $461 $652 forward 7 unknown #
coedge $-1 $653 $654 $302 $464 forward $456 $-1 #
edge $-1 $655 -104.35026380671628 $468 -100.73498666565028 $463 $656 forward 7 unknown #
edge $-1 $469 146.64139957729191 $655 151.66722617267371 $303 $657 forward 7 unknown #
coedge $-1 $304 $647 $653 $658 forward $467 $-1 #
loop $-1 $-1 $647 $455 #
vertex $-1 $464 $659 #
vertex $-1 $305 $660 #
straight-curve $-1 39.788489818852156 40.633665603968637 9.3719298613495567 -1 0 0 I I #
coedge $-1 $471 $471 $-1 $661 reversed $308 $-1 #
edge $-1 $662 0 $662 6.2831853071796004 $309 $663 forward 7 unknown #
vertex $-1 $312 $664 #
ellipse-curve $-1 74.087996851297461 29.036545695615629 7.5642912908165592 0.71933980857756763 0 0.69465836192734942 0.69465836192734942 0 -0.71933980857756763 1 I I #
coedge $-1 $475 $475 $-1 $665 reversed $315 $-1 #
edge $-1 $666 0 $666 6.2831853071796004 $316 $667 forward 7 unknown #
vertex $-1 $319 $668 #
ellipse-curve $-1 74.087996851297461 35.994817640627431 7.5642912908165592 0.71933980857756763 0 0.69465836192734942 0.69465836192734942 0 -0.71933980857756763 1 I I #
face $-1 $-1 $335 $48 $-1 $669 reversed single #
loop $-1 $-1 $495 $320 #
plane-surface $-1 0 43.69522278981799 0 0 -1 0 0 0 -1 forward_v I I I I #
coedge $-1 $670 $493 $496 $671 forward $321 $-1 #
coedge $-1 $499 $323 $324 $487 reversed $201 $-1 #
coedge $-1 $493 $670 $323 $485 reversed $321 $-1 #
edge $-1 $500 -9.371929861349555 $672 9.371929861349555 $484 $673 forward 7 unknown #
coedge $-1 $325 $324 $670 $674 forward $129 $-1 #
edge $-1 $491 -75.833613086336868 $672 75.833613086336868 $483 $675 forward 7 unknown #
coedge $-1 $496 $495 $325 $489 reversed $480 $-1 #
edge $-1 $676 -75.833613086336868 $490 75.833613086336868 $488 $677 forward 7 unknown #
vertex $-1 $327 $678 #
vertex $-1 $502 $679 #
straight-curve $-1 75.833613086336868 0 -9.371929861349555 0 -1 0 I I #
coedge $-1 $482 $484 $328 $494 reversed $321 $-1 #
edge $-1 $497 -43.69522278981799 $500 43.69522278981799 $493 $680 forward 7 unknown #
coedge $-1 $488 $329 $334 $503 forward $480 $-1 #
coedge $-1 $329 $488 $482 $671 reversed $480 $-1 #
vertex $-1 $330 $681 #
straight-curve $-1 0 43.69522278981799 9.371929861349555 -1 0 0 I I #
coedge $-1 $331 $483 $333 $502 reversed $201 $-1 #
vertex $-1 $494 $682 #
straight-curve $-1 0 -43.69522278981799 9.371929861349555 1 0 0 I I #
edge $-1 $336 -9.371929861349555 $491 9.371929861349555 $333 $683 forward 7 unknown #
edge $-1 $337 -9.371929861349555 $490 9.371929861349555 $334 $684 forward 7 unknown #
point $-1 75.833613086336868 -43.69522278981799 9.371929861349555 #
point $-1 75.833613086336868 43.69522278981799 9.371929861349555 #
face $-1 $-1 $516 $49 $-1 $685 reversed single #
loop $-1 $-1 $512 $339 #
plane-surface $-1 0 0 -9.371929861349555 0 0 1 1 0 0 forward_v I I I I #
coedge $-1 $686 $687 $347 $520 forward $340 $-1 #
coedge $-1 $342 $524 $514 $688 forward $209 $-1 #
edge $-1 $518 -23.621874140540395 $352 -16.524823158014794 $342 $689 forward 7 unknown #
coedge $-1 $690 $348 $343 $513 forward $507 $-1 #
edge $-1 $353 16.524823158014794 $517 23.621874140540395 $512 $691 forward 7 unknown #
coedge $-1 $692 $345 $510 $688 reversed $516 $-1 #
coedge $-1 $345 $692 $690 $693 reversed $516 $-1 #
loop $-1 $-1 $345 $506 #
vertex $-1 $693 $694 #
vertex $-1 $346 $695 #
straight-curve $-1 -72.833613086336868 -43.69522278981799 0 0 0 1 I I #
edge $-1 $525 -9.371929861349555 $522 9.371929861349555 $509 $696 forward 7 unknown #
coedge $-1 $348 $690 $686 $697 forward $507 $-1 #
vertex $-1 $349 $698 #
straight-curve $-1 -37.166806543168434 -36.598171807292388 -9.371929861349555 1 0 0 I I #
coedge $-1 $510 $350 $687 $699 forward $209 $-1 #
vertex $-1 $699 $700 #
straight-curve $-1 -37.166806543168434 -36.598171807292388 9.371929861349555 -1 0 0 I I #
point $-1 -72.833613086336868 -36.598171807292388 9.371929861349555 #
point $-1 -72.833613086336868 -36.598171807292388 -9.371929861349555 #
plane-surface $-1 0 0 9.371929861349555 0 0 1 1 0 0 forward_v I I I I #
coedge $-1 $540 $539 $532 $701 forward $356 $-1 #
coedge $-1 $532 $358 $360 $536 reversed $217 $-1 #
coedge $-1 $358 $531 $530 $701 reversed $217 $-1 #
coedge $-1 $366 $361 $358 $534 forward $367 $-1 #
edge $-1 $537 -8.8216977848258722 $702 -1.1403920738456179 $533 $703 forward 7 unknown #
coedge $-1 $360 $359 $540 $704 reversed $137 $-1 #
edge $-1 $705 1.6755537013839907e-014 $537 8.9612678196878175 $531 $706 forward 7 unknown #
vertex $-1 $362 $707 #
straight-curve $-1 -68.152307375356614 -10.283300411001569 9.371929861349555 0 1 0 I I #
coedge $-1 $530 $363 $366 $544 reversed $356 $-1 #
coedge $-1 $363 $530 $535 $704 forward $356 $-1 #
vertex $-1 $364 $708 #
straight-curve $-1 -75.833613086336868 -24.608378485991491 67.380360956198913 0 0 1 I I #
straight-curve $-1 -75.833613086336882 -24.608378485991491 4.7565356733484521 -0.85716729658548041 0 -0.51503808176128008 I I #
edge $-1 $702 16.524823158014787 $368 24.608378485991491 $539 $709 forward 7 unknown #
point $-1 -75.833613086336868 -24.608378485991491 9.371929861349555 #
point $-1 -68.152307375356614 -24.608378485991491 9.371929861349555 #
edge $-1 $710 1 $710 0 $371 $-1 forward 7 unknown #
vertex $-1 $372 $711 #
ellipse-curve $-1 -69.48195506960262 -20.566600822003139 2.8852184730750476 -0.51503808176128008 0 0.85716729658548041 1.2857509448782207 0 0.77255712264192011 1 I I #
point $-1 -70.707209285968545 -20.566600822003139 7.8367898899909445 #
loop $-1 $-1 $383 $375 #
plane-surface $-1 -75.833613086336868 0 0 1 0 0 0 0 -1 forward_v I I I I #
coedge $-1 $554 $378 $380 $558 reversed $232 $-1 #
coedge $-1 $378 $553 $712 $713 reversed $232 $-1 #
coedge $-1 $386 $381 $378 $556 forward $376 $-1 #
edge $-1 $559 -8.8216977848258722 $714 -1.1403920738456179 $555 $715 forward 7 unknown #
coedge $-1 $380 $379 $562 $716 reversed $146 $-1 #
edge $-1 $717 1.6755537013839907e-014 $559 8.9612678196878175 $553 $718 forward 7 unknown #
vertex $-1 $382 $719 #
straight-curve $-1 -68.152307375356614 -2.2449249732462526 9.371929861349555 0 1 0 I I #
coedge $-1 $712 $383 $386 $566 reversed $551 $-1 #
coedge $-1 $383 $712 $557 $716 forward $551 $-1 #
vertex $-1 $384 $720 #
straight-curve $-1 -75.833613086336868 -8.5316276104808573 67.380360956198913 0 0 1 I I #
straight-curve $-1 -75.833613086336882 -8.5316276104808573 4.7565356733484521 -0.85716729658548041 0 -0.51503808176128008 I I #
edge $-1 $714 0.44807228250415321 $387 8.5316276104808573 $561 $721 forward 7 unknown #
point $-1 -75.833613086336868 -8.5316276104808573 9.371929861349555 #
point $-1 -68.152307375356614 -8.5316276104808573 9.371929861349555 #
edge $-1 $722 1 $722 0 $390 $-1 forward 7 unknown #
vertex $-1 $391 $723 #
ellipse-curve $-1 -69.48195506960262 -4.4898499464925052 2.8852184730750476 -0.51503808176128008 0 0.85716729658548041 1.2857509448782207 0 0.77255712264192011 1 I I #
point $-1 -70.707209285968545 -4.4898499464925052 7.8367898899909445 #
loop $-1 $-1 $402 $394 #
plane-surface $-1 -75.833613086336868 0 0 1 0 0 0 0 -1 forward_v I I I I #
coedge $-1 $576 $397 $399 $580 reversed $247 $-1 #
coedge $-1 $397 $575 $724 $725 reversed $247 $-1 #
coedge $-1 $405 $400 $397 $578 forward $395 $-1 #
edge $-1 $581 -8.8216977848258722 $726 -1.1403920738456179 $577 $727 forward 7 unknown #
coedge $-1 $399 $398 $584 $728 reversed $155 $-1 #
edge $-1 $729 1.6755537013839907e-014 $581 8.9612678196878175 $575 $730 forward 7 unknown #
vertex $-1 $401 $731 #
straight-curve $-1 -68.152307375356614 5.7934504645090641 9.371929861349555 0 1 0 I I #
coedge $-1 $724 $402 $405 $588 reversed $573 $-1 #
coedge $-1 $402 $724 $579 $728 forward $573 $-1 #
vertex $-1 $403 $732 #
straight-curve $-1 -75.833613086336868 7.5451232650297761 67.380360956198913 0 0 1 I I #
straight-curve $-1 -75.833613086336882 7.5451232650297761 4.7565356733484521 -0.85716729658548041 0 -0.51503808176128008 I I #
edge $-1 $726 -15.62867859300648 $406 -7.5451232650297761 $583 $733 forward 7 unknown #
point $-1 -75.833613086336868 7.5451232650297761 9.371929861349555 #
point $-1 -68.152307375356614 7.5451232650297761 9.371929861349555 #
edge $-1 $734 1 $734 0 $409 $-1 forward 7 unknown #
vertex $-1 $410 $735 #
ellipse-curve $-1 -69.48195506960262 11.586900929018128 2.8852184730750476 -0.51503808176128008 0 0.85716729658548041 1.2857509448782207 0 0.77255712264192011 1 I I #
point $-1 -70.707209285968545 11.586900929018128 7.8367898899909445 #
loop $-1 $-1 $421 $413 #
plane-surface $-1 -75.833613086336868 0 0 1 0 0 0 0 -1 forward_v I I I I #
coedge $-1 $598 $416 $418 $602 reversed $262 $-1 #
coedge $-1 $416 $597 $736 $737 reversed $262 $-1 #
coedge $-1 $424 $419 $416 $600 forward $414 $-1 #
edge $-1 $603 -8.8216977848258722 $738 -1.1403920738456179 $599 $739 forward 7 unknown #
coedge $-1 $418 $417 $606 $740 reversed $164 $-1 #
edge $-1 $741 1.6755537013839907e-014 $603 8.9612678196878175 $597 $742 forward 7 unknown #
vertex $-1 $420 $743 #
straight-curve $-1 -68.152307375356614 13.831825902264384 9.371929861349555 0 1 0 I I #
coedge $-1 $736 $421 $424 $610 reversed $595 $-1 #
coedge $-1 $421 $736 $601 $740 forward $595 $-1 #
vertex $-1 $422 $744 #
straight-curve $-1 -75.833613086336868 23.621874140540417 67.380360956198913 0 0 1 I I #
straight-curve $-1 -75.833613086336882 23.621874140540417 4.7565356733484521 -0.85716729658548041 0 -0.51503808176128008 I I #
edge $-1 $738 -31.705429468517121 $425 -23.621874140540417 $605 $745 forward 7 unknown #
point $-1 -75.833613086336868 23.621874140540417 9.371929861349555 #
point $-1 -68.152307375356614 23.621874140540417 9.371929861349555 #
edge $-1 $746 1 $746 0 $428 $-1 forward 7 unknown #
vertex $-1 $429 $747 #
ellipse-curve $-1 -69.48195506960262 27.663651804528769 2.8852184730750476 -0.51503808176128008 0 0.85716729658548041 1.2857509448782207 0 0.77255712264192011 1 I I #
point $-1 -70.707209285968545 27.663651804528769 7.8367898899909445 #
loop $-1 $-1 $440 $432 #
plane-surface $-1 75.833613086336868 0 0 -1 0 0 0 0 1 forward_v I I I I #
coedge $-1 $620 $435 $437 $624 reversed $277 $-1 #
coedge $-1 $435 $619 $748 $749 reversed $277 $-1 #
coedge $-1 $443 $438 $435 $622 forward $433 $-1 #
edge $-1 $625 32.553890797405884 $750 36.045123267484712 $621 $751 forward 7 unknown #
coedge $-1 $437 $436 $628 $752 reversed $173 $-1 #
edge $-1 $753 -151.66722617267371 $625 -146.64139957729191 $619 $754 forward 7 unknown #
vertex $-1 $439 $755 #
straight-curve $-1 72.342380616258041 -12.709315342797957 9.3719298613495567 0 -1 0 I I #
coedge $-1 $748 $440 $443 $632 reversed $617 $-1 #
coedge $-1 $440 $748 $623 $752 forward $617 $-1 #
vertex $-1 $441 $756 #
straight-curve $-1 75.833613086336868 -17.300646749748811 110.10691652699984 0 0 1 I I #
straight-curve $-1 -29.523293804837465 -17.300646749748811 114.85692616282532 0.69465836192734942 0 -0.71933980857756763 I I #
edge $-1 $750 -33.536614621443022 $444 -17.300646749748811 $627 $757 forward 7 unknown #
point $-1 75.833613086336868 -17.300646749748811 9.371929861349555 #
point $-1 72.342380616258041 -17.300646749748811 9.3719298613495567 #
edge $-1 $758 1 $758 0 $447 $-1 forward 7 unknown #
vertex $-1 $448 $759 #
ellipse-curve $-1 71.585641816642976 -28.897766658101816 5.1477951806248612 0.71933980857756763 0 0.69465836192734942 0.69465836192734942 0 -0.71933980857756763 1 I I #
point $-1 74.782655213224785 -28.897766658101816 6.8449514822389759 #
edge $-1 $760 1 $760 0 $451 $-1 forward 7 unknown #
vertex $-1 $452 $761 #
ellipse-curve $-1 71.585641816642976 -21.939494713090014 5.1477951806248612 0.71933980857756763 0 0.69465836192734942 0.69465836192734942 0 -0.71933980857756763 1 I I #
point $-1 74.782655213224785 -21.939494713090014 6.8449514822389759 #
plane-surface $-1 0 0 9.371929861349555 0 0 1 1 0 0 forward_v I I I I #
coedge $-1 $654 $653 $646 $762 forward $456 $-1 #
coedge $-1 $646 $458 $460 $650 reversed $299 $-1 #
coedge $-1 $458 $645 $644 $762 reversed $299 $-1 #
coedge $-1 $466 $461 $458 $648 forward $467 $-1 #
edge $-1 $651 32.553890797405884 $763 36.045123267484712 $647 $764 forward 7 unknown #
coedge $-1 $460 $459 $654 $765 reversed $187 $-1 #
edge $-1 $766 -151.66722617267371 $651 -146.64139957729191 $645 $767 forward 7 unknown #
vertex $-1 $462 $768 #
straight-curve $-1 72.342380616258041 16.257840834060765 9.3719298613495567 0 -1 0 I I #
coedge $-1 $644 $463 $466 $658 reversed $456 $-1 #
coedge $-1 $463 $644 $649 $765 forward $456 $-1 #
vertex $-1 $464 $769 #
straight-curve $-1 75.833613086336868 40.633665603968637 110.10691652699984 0 0 1 I I #
straight-curve $-1 -29.523293804837465 40.633665603968637 114.85692616282532 0.69465836192734942 0 -0.71933980857756763 I I #
edge $-1 $763 24.397697732274427 $468 40.633665603968637 $653 $770 forward 7 unknown #
point $-1 75.833613086336868 40.633665603968637 9.371929861349555 #
point $-1 72.342380616258041 40.633665603968637 9.3719298613495567 #
edge $-1 $771 1 $771 0 $471 $-1 forward 7 unknown #
vertex $-1 $472 $772 #
ellipse-curve $-1 71.585641816642976 29.036545695615629 5.1477951806248612 0.71933980857756763 0 0.69465836192734942 0.69465836192734942 0 -0.71933980857756763 1 I I #
point $-1 74.782655213224785 29.036545695615629 6.8449514822389759 #
edge $-1 $773 1 $773 0 $475 $-1 forward 7 unknown #
vertex $-1 $476 $774 #
ellipse-curve $-1 71.585641816642976 35.994817640627431 5.1477951806248612 0.71933980857756763 0 0.69465836192734942 0.69465836192734942 0 -0.71933980857756763 1 I I #
point $-1 74.782655213224785 35.994817640627431 6.8449514822389759 #
plane-surface $-1 75.833613086336868 0 0 -1 0 0 0 0 1 forward_v I I I I #
coedge $-1 $484 $482 $486 $674 reversed $321 $-1 #
edge $-1 $497 -9.371929861349555 $676 9.371929861349555 $496 $775 forward 7 unknown #
vertex $-1 $674 $776 #
straight-curve $-1 -75.833613086336868 -43.69522278981799 0 0 0 -1 I I #
edge $-1 $672 -43.69522278981799 $676 43.69522278981799 $670 $777 forward 7 unknown #
straight-curve $-1 0 -43.69522278981799 -9.371929861349555 -1 0 0 I I #
vertex $-1 $489 $778 #
straight-curve $-1 0 43.69522278981799 -9.371929861349555 1 0 0 I I #
point $-1 75.833613086336868 43.69522278981799 -9.371929861349555 #
point $-1 75.833613086336868 -43.69522278981799 -9.371929861349555 #
straight-curve $-1 -75.833613086336868 0 9.371929861349555 0 -1 0 I I #
point $-1 -75.833613086336868 43.69522278981799 9.371929861349555 #
point $-1 -75.833613086336868 -43.69522278981799 9.371929861349555 #
straight-curve $-1 75.833613086336868 -43.69522278981799 0 0 0 -1 I I #
straight-curve $-1 75.833613086336868 43.69522278981799 0 0 0 -1 I I #
plane-surface $-1 0 -43.69522278981799 0 0 1 0 0 0 1 forward_v I I I I #
coedge $-1 $779 $509 $521 $697 reversed $340 $-1 #
coedge $-1 $509 $779 $524 $699 reversed $340 $-1 #
edge $-1 $780 -75.833613086336868 $518 -72.833613086336868 $514 $781 forward 7 unknown #
straight-curve $-1 -72.833613086336868 -20.073348649277595 9.371929861349555 0 1 0 I I #
coedge $-1 $521 $512 $515 $693 forward $507 $-1 #
straight-curve $-1 -72.833613086336868 -20.073348649277595 -9.371929861349555 0 -1 0 I I #
coedge $-1 $515 $514 $779 $782 forward $516 $-1 #
edge $-1 $517 72.833613086336868 $783 75.833613086336868 $515 $784 forward 7 unknown #
point $-1 -72.833613086336868 -43.69522278981799 -9.371929861349555 #
point $-1 -72.833613086336868 -43.69522278981799 9.371929861349555 #
straight-curve $-1 -75.833613086336868 -36.598171807292388 0 0 0 -1 I I #
edge $-1 $783 -43.69522278981799 $522 -36.598171807292388 $686 $785 forward 7 unknown #
point $-1 -75.833613086336868 -36.598171807292388 -9.371929861349555 #
edge $-1 $525 36.598171807292388 $780 43.69522278981799 $687 $786 forward 7 unknown #
point $-1 -75.833613086336868 -36.598171807292388 9.371929861349555 #
edge $-1 $702 58.008431094849357 $705 62.623825282850454 $530 $787 forward 7 unknown #
vertex $-1 $544 $788 #
straight-curve $-1 -76.974005160182486 -16.524823158014787 9.3719298613495567 -1 0 0 I I #
edge $-1 $705 6.2415227470132173 $541 14.325078074989921 $540 $789 forward 7 unknown #
vertex $-1 $704 $790 #
straight-curve $-1 -75.833613086336882 -16.524823158014787 4.7565356733484521 0.85716729658548041 0 0.51503808176128008 I I #
point $-1 -68.152307375356614 -16.524823158014787 9.371929861349555 #
point $-1 -75.833613086336868 -24.608378485991491 4.7565356733484609 #
straight-curve $-1 -75.833613086336868 0 9.371929861349555 0 -1 0 I I #
vertex $-1 $547 $791 #
point $-1 -68.196204124724389 -20.566600822003139 3.6577755957169682 #
coedge $-1 $562 $561 $554 $713 forward $551 $-1 #
edge $-1 $714 58.008431094849357 $717 62.623825282850454 $712 $792 forward 7 unknown #
vertex $-1 $566 $793 #
straight-curve $-1 -76.974005160182486 -0.44807228250415321 9.3719298613495567 -1 0 0 I I #
edge $-1 $717 -1.7968526907420994 $563 6.2867026372346047 $562 $794 forward 7 unknown #
vertex $-1 $716 $795 #
straight-curve $-1 -75.833613086336882 -0.44807228250415321 4.7565356733484521 0.85716729658548041 0 0.51503808176128008 I I #
point $-1 -68.152307375356614 -0.44807228250415321 9.371929861349555 #
point $-1 -75.833613086336868 -8.5316276104808573 4.7565356733484609 #
straight-curve $-1 -75.833613086336868 0 9.371929861349555 0 -1 0 I I #
vertex $-1 $569 $796 #
point $-1 -68.196204124724389 -4.4898499464925052 3.6577755957169682 #
coedge $-1 $584 $583 $576 $725 forward $573 $-1 #
edge $-1 $726 58.008431094849357 $729 62.623825282850454 $724 $797 forward 7 unknown #
vertex $-1 $588 $798 #
straight-curve $-1 -76.974005160182486 15.62867859300648 9.3719298613495567 -1 0 0 I I #
edge $-1 $729 -9.8352281284974161 $585 -1.7516728005207121 $584 $799 forward 7 unknown #
vertex $-1 $728 $800 #
straight-curve $-1 -75.833613086336882 15.62867859300648 4.7565356733484521 0.85716729658548041 0 0.51503808176128008 I I #
point $-1 -68.152307375356614 15.62867859300648 9.371929861349555 #
point $-1 -75.833613086336868 7.5451232650297761 4.7565356733484609 #
straight-curve $-1 -75.833613086336868 0 9.371929861349555 0 -1 0 I I #
vertex $-1 $591 $801 #
point $-1 -68.196204124724389 11.586900929018128 3.6577755957169682 #
coedge $-1 $606 $605 $598 $737 forward $595 $-1 #
edge $-1 $738 58.008431094849357 $741 62.623825282850454 $736 $802 forward 7 unknown #
vertex $-1 $610 $803 #
straight-curve $-1 -76.974005160182486 31.705429468517121 9.3719298613495567 -1 0 0 I I #
edge $-1 $741 -17.873603566252736 $607 -9.7900482382760323 $606 $804 forward 7 unknown #
vertex $-1 $740 $805 #
straight-curve $-1 -75.833613086336882 31.705429468517121 4.7565356733484521 0.85716729658548041 0 0.51503808176128008 I I #
point $-1 -68.152307375356614 31.705429468517121 9.371929861349555 #
point $-1 -75.833613086336868 23.621874140540417 4.7565356733484609 #
straight-curve $-1 -75.833613086336868 0 9.371929861349555 0 -1 0 I I #
vertex $-1 $613 $806 #
point $-1 -68.196204124724389 27.663651804528769 3.6577755957169682 #
coedge $-1 $628 $627 $620 $749 forward $617 $-1 #
edge $-1 $750 100.73498666565028 $753 104.35026380671628 $748 $807 forward 7 unknown #
vertex $-1 $632 $808 #
straight-curve $-1 39.788489818852156 -33.536614621443022 9.3719298613495567 1 0 0 I I #
edge $-1 $753 -20.827299278645064 $629 -4.5913314069508537 $628 $809 forward 7 unknown #
vertex $-1 $752 $810 #
straight-curve $-1 -29.523293804837465 -33.536614621443022 114.85692616282532 -0.69465836192734942 0 0.71933980857756763 I I #
point $-1 72.342380616258041 -33.536614621443022 9.3719298613495567 #
point $-1 75.833613086336868 -17.300646749748811 5.7566527202835545 #
straight-curve $-1 75.833613086336868 0 9.371929861349555 0 1 0 I I #
vertex $-1 $635 $811 #
point $-1 72.280300178570329 -28.897766658101816 4.4284553720472939 #
vertex $-1 $639 $812 #
point $-1 72.280300178570329 -21.939494713090014 4.4284553720472939 #
edge $-1 $763 100.73498666565028 $766 104.35026380671628 $644 $813 forward 7 unknown #
vertex $-1 $658 $814 #
straight-curve $-1 39.788489818852156 24.397697732274427 9.3719298613495567 1 0 0 I I #
edge $-1 $766 8.1398568982136617 $655 24.375824769907872 $654 $815 forward 7 unknown #
vertex $-1 $765 $816 #
straight-curve $-1 -29.523293804837465 24.397697732274427 114.85692616282532 -0.69465836192734942 0 0.71933980857756763 I I #
point $-1 72.342380616258041 24.397697732274427 9.3719298613495567 #
point $-1 75.833613086336868 40.633665603968637 5.7566527202835545 #
straight-curve $-1 75.833613086336868 0 9.371929861349555 0 1 0 I I #
vertex $-1 $661 $817 #
point $-1 72.280300178570329 29.036545695615629 4.4284553720472939 #
vertex $-1 $665 $818 #
point $-1 72.280300178570329 35.994817640627431 4.4284553720472939 #
straight-curve $-1 -75.833613086336868 43.69522278981799 0 0 0 -1 I I #
point $-1 -75.833613086336868 -43.69522278981799 -9.371929861349555 #
straight-curve $-1 -75.833613086336868 0 -9.371929861349555 0 1 0 I I #
point $-1 -75.833613086336868 43.69522278981799 -9.371929861349555 #
coedge $-1 $687 $686 $692 $782 reversed $340 $-1 #
vertex $-1 $699 $819 #
straight-curve $-1 0 -43.69522278981799 9.371929861349555 1 0 0 I I #
edge $-1 $780 -9.371929861349555 $783 9.371929861349555 $779 $820 forward 7 unknown #
vertex $-1 $697 $821 #
straight-curve $-1 0 -43.69522278981799 -9.371929861349555 -1 0 0 I I #
straight-curve $-1 -75.833613086336868 0 -9.371929861349555 0 1 0 I I #
straight-curve $-1 -75.833613086336868 0 9.371929861349555 0 -1 0 I I #
straight-curve $-1 -75.833613086336868 -16.524823158014787 67.380360956198913 0 0 -1 I I #
point $-1 -75.833613086336868 -16.524823158014787 9.371929861349555 #
straight-curve $-1 -75.833613086336868 -10.283300411001569 4.7565356733484521 0 -1 0 I I #
point $-1 -75.833613086336868 -16.524823158014787 4.7565356733484609 #
point $-1 -68.709397946960692 -20.566600822003139 1.5994675281968271 #
straight-curve $-1 -75.833613086336868 -0.44807228250415321 67.380360956198913 0 0 -1 I I #
point $-1 -75.833613086336868 -0.44807228250415321 9.371929861349555 #
straight-curve $-1 -75.833613086336868 -2.2449249732462526 4.7565356733484521 0 -1 0 I I #
point $-1 -75.833613086336868 -0.44807228250415321 4.7565356733484609 #
point $-1 -68.709397946960692 -4.4898499464925052 1.5994675281968271 #
straight-curve $-1 -75.833613086336868 15.62867859300648 67.380360956198913 0 0 -1 I I #
point $-1 -75.833613086336868 15.62867859300648 9.371929861349555 #
straight-curve $-1 -75.833613086336868 5.7934504645090641 4.7565356733484521 0 -1 0 I I #
point $-1 -75.833613086336868 15.62867859300648 4.7565356733484609 #
point $-1 -68.709397946960692 11.586900929018128 1.5994675281968271 #
straight-curve $-1 -75.833613086336868 31.705429468517121 67.380360956198913 0 0 -1 I I #
point $-1 -75.833613086336868 31.705429468517121 9.371929861349555 #
straight-curve $-1 -75.833613086336868 13.831825902264384 4.7565356733484521 0 -1 0 I I #
point $-1 -75.833613086336868 31.705429468517121 4.7565356733484609 #
point $-1 -68.709397946960692 27.663651804528769 1.5994675281968271 #
straight-curve $-1 75.833613086336868 -33.536614621443022 110.10691652699984 0 0 -1 I I #
point $-1 75.833613086336868 -33.536614621443022 9.371929861349555 #
straight-curve $-1 75.833613086336868 -12.709315342797957 5.7566527202835616 0 1 0 I I #
point $-1 75.833613086336868 -33.536614621443022 5.7566527202835545 #
point $-1 70.866302008065418 -28.897766658101816 4.4531368186975122 #
point $-1 70.866302008065418 -21.939494713090014 4.4531368186975122 #
straight-curve $-1 75.833613086336868 24.397697732274427 110.10691652699984 0 0 -1 I I #
point $-1 75.833613086336868 24.397697732274427 9.371929861349555 #
straight-curve $-1 75.833613086336868 16.257840834060765 5.7566527202835616 0 1 0 I I #
point $-1 75.833613086336868 24.397697732274427 5.7566527202835545 #
point $-1 70.866302008065418 29.036545695615629 4.4531368186975122 #
point $-1 70.866302008065418 35.994817640627431 4.4531368186975122 #
point $-1 -75.833613086336868 -43.69522278981799 9.371929861349555 #
straight-curve $-1 -75.833613086336868 -43.69522278981799 0 0 0 -1 I I #
point $-1 -75.833613086336868 -43.69522278981799 -9.371929861349555 #
End-of-ACIS-data 