500 0 16 0           
7 Unknown 11 ACIS 5.0 NT 24 Thu Mar 25 17:52:02 1999 
-1 9.9999999999999995e-007 1e-010 
body $-1 $16 $-1 $17 #
body $-1 $18 $-1 $19 #
body $-1 $20 $-1 $21 #
body $-1 $22 $-1 $23 #
body $-1 $24 $-1 $25 #
body $-1 $26 $-1 $27 #
body $-1 $28 $-1 $29 #
body $-1 $30 $-1 $31 #
body $-1 $32 $-1 $33 #
body $-1 $34 $-1 $35 #
body $-1 $36 $-1 $37 #
body $-1 $38 $-1 $39 #
body $-1 $40 $-1 $41 #
body $-1 $42 $-1 $43 #
body $-1 $44 $-1 $45 #
body $-1 $46 $-1 $47 #
lump $-1 $-1 $48 $0 #
transform $-1 1 0 0 0 1 0 0 0 1 70.894497512741481 47.586095104685697 19.350013421562629 1 rotate no_reflect no_shear #
lump $-1 $-1 $49 $1 #
transform $-1 1 0 0 0 1 0 0 0 1 70.894497512741481 47.586095104685697 19.350013421562629 1 rotate no_reflect no_shear #
lump $-1 $-1 $50 $2 #
transform $-1 1 0 0 0 1 0 0 0 1 70.894497512741481 47.586095104685697 19.350013421562629 1 rotate no_reflect no_shear #
lump $-1 $-1 $51 $3 #
transform $-1 1 0 0 0 1 0 0 0 1 70.894497512741481 47.586095104685697 19.350013421562629 1 rotate no_reflect no_shear #
lump $-1 $-1 $52 $4 #
transform $-1 1 0 0 0 1 0 0 0 1 70.894497512741481 47.586095104685697 19.350013421562629 1 rotate no_reflect no_shear #
lump $-1 $-1 $53 $5 #
transform $-1 1 0 0 0 1 0 0 0 1 70.894497512741481 47.586095104685697 19.350013421562629 1 rotate no_reflect no_shear #
lump $-1 $-1 $54 $6 #
transform $-1 1 0 0 0 1 0 0 0 1 70.894497512741481 47.586095104685697 19.350013421562629 1 rotate no_reflect no_shear #
lump $-1 $-1 $55 $7 #
transform $-1 1 0 0 0 1 0 0 0 1 70.894497512741481 47.586095104685697 19.350013421562629 1 rotate no_reflect no_shear #
lump $-1 $-1 $56 $8 #
transform $-1 1 0 0 0 1 0 0 0 1 70.894497512741481 47.586095104685697 19.350013421562629 1 rotate no_reflect no_shear #
lump $-1 $-1 $57 $9 #
transform $-1 1 0 0 0 1 0 0 0 1 70.894497512741481 47.586095104685697 19.350013421562629 1 rotate no_reflect no_shear #
lump $-1 $-1 $58 $10 #
transform $-1 1 0 0 0 1 0 0 0 1 70.894497512741481 47.586095104685697 19.350013421562629 1 rotate no_reflect no_shear #
lump $-1 $-1 $59 $11 #
transform $-1 1 0 0 0 1 0 0 0 1 70.894497512741481 47.586095104685697 19.350013421562629 1 rotate no_reflect no_shear #
lump $-1 $-1 $60 $12 #
transform $-1 1 0 0 0 1 0 0 0 1 70.894497512741481 47.586095104685697 19.350013421562629 1 rotate no_reflect no_shear #
lump $-1 $-1 $61 $13 #
transform $-1 1 0 0 0 1 0 0 0 1 70.894497512741481 47.586095104685697 19.350013421562629 1 rotate no_reflect no_shear #
lump $-1 $-1 $62 $14 #
transform $-1 1 0 0 0 1 0 0 0 1 70.894497512741481 47.586095104685697 19.350013421562629 1 rotate no_reflect no_shear #
lump $-1 $-1 $63 $15 #
transform $-1 1 0 0 0 1 0 0 0 1 70.894497512741481 47.586095104685697 19.350013421562629 1 rotate no_reflect no_shear #
shell $-1 $-1 $-1 $64 $-1 $16 #
shell $-1 $-1 $-1 $65 $-1 $18 #
shell $-1 $-1 $-1 $66 $-1 $20 #
shell $-1 $-1 $-1 $67 $-1 $22 #
shell $-1 $-1 $-1 $68 $-1 $24 #
shell $-1 $-1 $-1 $69 $-1 $26 #
shell $-1 $-1 $-1 $70 $-1 $28 #
shell $-1 $-1 $-1 $71 $-1 $30 #
shell $-1 $-1 $-1 $72 $-1 $32 #
shell $-1 $-1 $-1 $73 $-1 $34 #
shell $-1 $-1 $-1 $74 $-1 $36 #
shell $-1 $-1 $-1 $75 $-1 $38 #
shell $-1 $-1 $-1 $76 $-1 $40 #
shell $-1 $-1 $-1 $77 $-1 $42 #
shell $-1 $-1 $-1 $78 $-1 $44 #
shell $-1 $-1 $-1 $79 $-1 $46 #
face $-1 $80 $81 $48 $-1 $82 forward single #
face $-1 $83 $84 $49 $-1 $85 forward single #
face $-1 $86 $87 $50 $-1 $88 reversed single #
face $-1 $89 $90 $51 $-1 $91 forward single #
face $-1 $92 $93 $52 $-1 $94 forward single #
face $-1 $95 $96 $53 $-1 $97 forward single #
face $-1 $98 $99 $54 $-1 $100 reversed single #
face $-1 $101 $102 $55 $-1 $103 forward single #
face $-1 $104 $105 $56 $-1 $106 forward single #
face $-1 $107 $108 $57 $-1 $109 forward single #
face $-1 $110 $111 $58 $-1 $112 reversed single #
face $-1 $113 $114 $59 $-1 $115 forward single #
face $-1 $116 $117 $60 $-1 $118 forward single #
face $-1 $119 $120 $61 $-1 $121 reversed single #
face $-1 $122 $123 $62 $-1 $124 forward single #
face $-1 $125 $126 $63 $-1 $127 forward single #
face $-1 $128 $129 $48 $-1 $130 reversed single #
loop $-1 $-1 $131 $64 #
plane-surface $-1 0 0 19.350013421562629 0 0 1 1 0 0 forward_v I I I I #
face $-1 $132 $133 $49 $-1 $134 reversed single #
loop $-1 $-1 $135 $65 #
plane-surface $-1 0 -37.042130059312839 -8.3056035733315987 0 0 1 1 0 0 forward_v I I I I #
face $-1 $136 $137 $50 $-1 $138 reversed single #
loop $-1 $-1 $139 $66 #
plane-surface $-1 -182.62575150629729 -26.498165013939989 95.763174629395763 0 1 0 -0.78801076186113728 0 0.61566146476048833 forward_v I I I I #
face $-1 $140 $141 $51 $-1 $142 forward single #
loop $-1 $143 $144 $67 #
cone-surface $-1 -65.463022232586454 -23.520256757314627 12.986927759811213 0.78801076186113728 0 -0.61566146476048833 0.61566146476048833 0 0.78801076186113728 1 I I 0 1 1 forward I I I I #
face $-1 $145 $146 $52 $-1 $147 forward single #
loop $-1 $148 $149 $68 #
cone-surface $-1 -65.463022232586454 -19.053394372376591 12.986927759811213 0.78801076186113728 0 -0.61566146476048833 0.61566146476048833 0 0.78801076186113728 1 I I 0 1 1 forward I I I I #
face $-1 $150 $151 $53 $-1 $152 forward single #
loop $-1 $153 $154 $69 #
cone-surface $-1 -65.463022232586454 -14.586531987438555 12.986927759811213 0.78801076186113728 0 -0.61566146476048833 0.61566146476048833 0 0.78801076186113728 1 I I 0 1 1 forward I I I I #
face $-1 $155 $156 $54 $-1 $157 reversed single #
loop $-1 $-1 $158 $70 #
plane-surface $-1 -182.62575150629729 10.543965045372845 95.763174629395763 0 1 0 -0.78801076186113728 0 0.61566146476048833 forward_v I I I I #
face $-1 $159 $160 $55 $-1 $161 forward single #
loop $-1 $162 $163 $71 #
cone-surface $-1 -65.463022232586454 13.521873301998212 12.986927759811213 0.78801076186113728 0 -0.61566146476048833 0.61566146476048833 0 0.78801076186113728 1 I I 0 1 1 forward I I I I #
face $-1 $164 $165 $56 $-1 $166 forward single #
loop $-1 $167 $168 $72 #
cone-surface $-1 -65.463022232586454 17.988735686936252 12.986927759811213 0.78801076186113728 0 -0.61566146476048833 0.61566146476048833 0 0.78801076186113728 1 I I 0 1 1 forward I I I I #
face $-1 $169 $170 $57 $-1 $171 forward single #
loop $-1 $172 $173 $73 #
cone-surface $-1 -65.463022232586454 22.455598071874292 12.986927759811213 0.78801076186113728 0 -0.61566146476048833 0.61566146476048833 0 0.78801076186113728 1 I I 0 1 1 forward I I I I #
face $-1 $174 $175 $58 $-1 $176 reversed single #
loop $-1 $-1 $177 $74 #
plane-surface $-1 53.418037030501139 -8.9478576686937874 212.06367547440485 0 -1 0 -0.64278761758704617 0 -0.76604443648966558 forward_v I I I I #
face $-1 $178 $179 $59 $-1 $180 forward single #
loop $-1 $181 $182 $75 #
cone-surface $-1 65.349791976802607 -18.406424407786098 14.222140776393786 -0.64278761758704617 0 -0.76604443648966558 1.1490666547344983 0 -0.96418142638056925 1 I I 0 1 1.5 forward I I I I #
face $-1 $183 $184 $60 $-1 $185 forward single #
loop $-1 $186 $187 $76 #
cone-surface $-1 65.349791976802607 -12.731284364330712 14.222140776393786 -0.64278761758704617 0 -0.76604443648966558 1.1490666547344983 0 -0.96418142638056925 1 I I 0 1 1.5 forward I I I I #
face $-1 $188 $189 $61 $-1 $190 reversed single #
loop $-1 $-1 $191 $77 #
plane-surface $-1 53.418037030501139 28.094272390619054 212.06367547440485 0 -1 0 -0.64278761758704617 0 -0.76604443648966558 forward_v I I I I #
face $-1 $192 $193 $62 $-1 $194 forward single #
loop $-1 $195 $196 $78 #
cone-surface $-1 65.349791976802607 18.635705651526749 14.222140776393786 -0.64278761758704617 0 -0.76604443648966558 1.1490666547344983 0 -0.96418142638056925 1 I I 0 1 1.5 forward I I I I #
face $-1 $197 $198 $63 $-1 $199 forward single #
loop $-1 $200 $201 $79 #
cone-surface $-1 65.349791976802607 24.31084569498212 14.222140776393786 -0.64278761758704617 0 -0.76604443648966558 1.1490666547344983 0 -0.96418142638056925 1 I I 0 1 1.5 forward I I I I #
face $-1 $202 $203 $48 $-1 $204 reversed single #
loop $-1 $-1 $205 $80 #
plane-surface $-1 0 0 -19.350013421562629 0 0 1 1 0 0 forward_v I I I I #
coedge $-1 $206 $207 $208 $209 forward $81 $-1 #
face $-1 $210 $211 $49 $-1 $212 reversed single #
loop $-1 $-1 $213 $83 #
plane-surface $-1 0 -37.042130059312839 -17.708433362637091 0 0 1 1 0 0 forward_v I I I I #
coedge $-1 $214 $215 $216 $217 reversed $84 $-1 #
face $-1 $218 $219 $50 $-1 $220 reversed single #
loop $-1 $-1 $221 $86 #
plane-surface $-1 -70.894497512741466 -19.053394372376594 8.4691542650893297 -0.78801076186113728 0 0.61566146476048833 0.61566146476048833 0 0.78801076186113728 forward_v I I I I #
coedge $-1 $222 $223 $224 $225 reversed $87 $-1 #
face $-1 $-1 $226 $51 $-1 $227 forward single #
loop $-1 $228 $229 $89 #
cone-surface $-1 -63.888070885532869 -23.520256757314627 11.756440943916196 0.78801076186113728 0 -0.61566146476048833 0.30783073238024417 0 0.39400538093056864 1 I I -0.70710678118654746 0.70710678118654746 0.5 forward I I I I #
loop $-1 $-1 $230 $67 #
coedge $-1 $144 $144 $231 $232 reversed $90 $-1 #
face $-1 $-1 $233 $52 $-1 $234 forward single #
loop $-1 $235 $236 $92 #
cone-surface $-1 -63.888070885532869 -19.053394372376591 11.756440943916196 0.78801076186113728 0 -0.61566146476048833 0.30783073238024417 0 0.39400538093056864 1 I I -0.70710678118654746 0.70710678118654746 0.5 forward I I I I #
loop $-1 $-1 $237 $68 #
coedge $-1 $149 $149 $238 $239 reversed $93 $-1 #
face $-1 $-1 $240 $53 $-1 $241 forward single #
loop $-1 $242 $243 $95 #
cone-surface $-1 -63.888070885532869 -14.586531987438555 11.756440943916196 0.78801076186113728 0 -0.61566146476048833 0.30783073238024417 0 0.39400538093056864 1 I I -0.70710678118654746 0.70710678118654746 0.5 forward I I I I #
loop $-1 $-1 $244 $69 #
coedge $-1 $154 $154 $245 $246 reversed $96 $-1 #
face $-1 $247 $248 $54 $-1 $249 reversed single #
loop $-1 $-1 $250 $98 #
plane-surface $-1 -70.894497512741466 17.988735686936238 8.4691542650893297 -0.78801076186113728 0 0.61566146476048833 0.61566146476048833 0 0.78801076186113728 forward_v I I I I #
coedge $-1 $251 $252 $253 $254 reversed $99 $-1 #
face $-1 $-1 $255 $55 $-1 $256 forward single #
loop $-1 $257 $258 $101 #
cone-surface $-1 -63.888070885532869 13.521873301998212 11.756440943916196 0.78801076186113728 0 -0.61566146476048833 0.30783073238024417 0 0.39400538093056864 1 I I -0.70710678118654746 0.70710678118654746 0.5 forward I I I I #
loop $-1 $-1 $259 $71 #
coedge $-1 $163 $163 $260 $261 reversed $102 $-1 #
face $-1 $-1 $262 $56 $-1 $263 forward single #
loop $-1 $264 $265 $104 #
cone-surface $-1 -63.888070885532869 17.988735686936252 11.756440943916196 0.78801076186113728 0 -0.61566146476048833 0.30783073238024417 0 0.39400538093056864 1 I I -0.70710678118654746 0.70710678118654746 0.5 forward I I I I #
loop $-1 $-1 $266 $72 #
coedge $-1 $168 $168 $267 $268 reversed $105 $-1 #
face $-1 $-1 $269 $57 $-1 $270 forward single #
loop $-1 $271 $272 $107 #
cone-surface $-1 -63.888070885532869 22.455598071874292 11.756440943916196 0.78801076186113728 0 -0.61566146476048833 0.30783073238024417 0 0.39400538093056864 1 I I -0.70710678118654746 0.70710678118654746 0.5 forward I I I I #
loop $-1 $-1 $273 $73 #
coedge $-1 $173 $173 $274 $275 reversed $108 $-1 #
face $-1 $276 $277 $58 $-1 $278 reversed single #
loop $-1 $-1 $279 $110 #
plane-surface $-1 -37.722173281990592 -15.568854386058405 103.44700467967276 0.64278761758704617 0 0.76604443648966558 0.76604443648966558 0 -0.64278761758704617 forward_v I I I I #
coedge $-1 $280 $281 $282 $283 reversed $111 $-1 #
face $-1 $-1 $284 $59 $-1 $285 forward single #
loop $-1 $286 $287 $113 #
cone-surface $-1 63.51988644551335 -18.406424407786098 12.041344331048499 -0.64278761758704617 0 -0.76604443648966558 0.57453332736724916 0 -0.48209071319028463 1 I I -0.70710678118654757 0.70710678118654757 0.75 forward I I I I #
loop $-1 $-1 $288 $75 #
coedge $-1 $182 $182 $289 $290 reversed $114 $-1 #
face $-1 $-1 $291 $60 $-1 $292 forward single #
loop $-1 $293 $294 $116 #
cone-surface $-1 63.51988644551335 -12.731284364330712 12.041344331048499 -0.64278761758704617 0 -0.76604443648966558 0.57453332736724916 0 -0.48209071319028463 1 I I -0.70710678118654757 0.70710678118654757 0.75 forward I I I I #
loop $-1 $-1 $295 $76 #
coedge $-1 $187 $187 $296 $297 reversed $117 $-1 #
face $-1 $298 $299 $61 $-1 $300 reversed single #
loop $-1 $-1 $301 $119 #
plane-surface $-1 -37.722173281990592 21.473275673254435 103.44700467967276 0.64278761758704617 0 0.76604443648966558 0.76604443648966558 0 -0.64278761758704617 forward_v I I I I #
coedge $-1 $302 $303 $304 $305 reversed $120 $-1 #
face $-1 $-1 $306 $62 $-1 $307 forward single #
loop $-1 $308 $309 $122 #
cone-surface $-1 63.51988644551335 18.635705651526749 12.041344331048499 -0.64278761758704617 0 -0.76604443648966558 0.57453332736724916 0 -0.48209071319028463 1 I I -0.70710678118654757 0.70710678118654757 0.75 forward I I I I #
loop $-1 $-1 $310 $78 #
coedge $-1 $196 $196 $311 $312 reversed $123 $-1 #
face $-1 $-1 $313 $63 $-1 $314 forward single #
loop $-1 $315 $316 $125 #
cone-surface $-1 63.51988644551335 24.31084569498212 12.041344331048499 -0.64278761758704617 0 -0.76604443648966558 0.57453332736724916 0 -0.48209071319028463 1 I I -0.70710678118654757 0.70710678118654757 0.75 forward I I I I #
loop $-1 $-1 $317 $79 #
coedge $-1 $201 $201 $318 $319 reversed $126 $-1 #
face $-1 $320 $321 $48 $-1 $322 reversed single #
loop $-1 $-1 $323 $128 #
plane-surface $-1 0 -47.586095104685697 0 0 1 0 0 0 1 forward_v I I I I #
coedge $-1 $324 $325 $326 $327 forward $129 $-1 #
coedge $-1 $328 $131 $329 $330 forward $81 $-1 #
coedge $-1 $131 $328 $331 $332 forward $81 $-1 #
coedge $-1 $333 $334 $131 $209 reversed $335 $-1 #
edge $-1 $336 -47.586095104685697 $337 47.586095104685697 $208 $338 forward 7 unknown #
face $-1 $339 $340 $49 $-1 $341 reversed single #
loop $-1 $-1 $342 $132 #
plane-surface $-1 0 -26.498165013939982 -13.007018467984345 0 -1 0 0 0 -1 forward_v I I I I #
coedge $-1 $343 $344 $345 $346 reversed $133 $-1 #
coedge $-1 $347 $135 $348 $349 forward $84 $-1 #
coedge $-1 $135 $347 $350 $351 reversed $84 $-1 #
coedge $-1 $352 $353 $135 $217 forward $354 $-1 #
edge $-1 $355 7.9770999842835622 $356 29.065030075029277 $216 $357 forward 7 unknown #
face $-1 $358 $359 $50 $-1 $360 reversed single #
loop $-1 $-1 $361 $136 #
plane-surface $-1 -182.62575150629729 -11.608623730813202 95.763174629395763 0 -1 0 0.78801076186113728 0 -0.61566146476048833 forward_v I I I I #
coedge $-1 $362 $363 $364 $365 reversed $137 $-1 #
coedge $-1 $223 $139 $366 $367 reversed $87 $-1 #
coedge $-1 $139 $222 $362 $368 reversed $87 $-1 #
coedge $-1 $364 $369 $139 $225 forward $370 $-1 #
edge $-1 $371 20.418378240407165 $372 28.919436868471195 $224 $373 forward 7 unknown #
loop $-1 $-1 $231 $140 #
plane-surface $-1 -70.894497512741466 -19.053394372376594 8.4691542650893297 -0.78801076186113728 0 0.61566146476048833 0.61566146476048833 0 0.78801076186113728 forward_v I I I I #
loop $-1 $-1 $374 $89 #
coedge $-1 $229 $229 $230 $375 reversed $141 $-1 #
coedge $-1 $230 $230 $229 $375 forward $143 $-1 #
coedge $-1 $231 $231 $144 $232 forward $226 $-1 #
edge $-1 $376 0 $376 6.2831853071796004 $231 $377 forward 7 unknown #
loop $-1 $-1 $238 $145 #
plane-surface $-1 -70.894497512741466 -19.053394372376594 8.4691542650893297 -0.78801076186113728 0 0.61566146476048833 0.61566146476048833 0 0.78801076186113728 forward_v I I I I #
loop $-1 $-1 $378 $92 #
coedge $-1 $236 $236 $237 $379 reversed $146 $-1 #
coedge $-1 $237 $237 $236 $379 forward $148 $-1 #
coedge $-1 $238 $238 $149 $239 forward $233 $-1 #
edge $-1 $380 0 $380 6.2831853071796004 $238 $381 forward 7 unknown #
loop $-1 $-1 $245 $150 #
plane-surface $-1 -70.894497512741466 -19.053394372376594 8.4691542650893297 -0.78801076186113728 0 0.61566146476048833 0.61566146476048833 0 0.78801076186113728 forward_v I I I I #
loop $-1 $-1 $382 $95 #
coedge $-1 $243 $243 $244 $383 reversed $151 $-1 #
coedge $-1 $244 $244 $243 $383 forward $153 $-1 #
coedge $-1 $245 $245 $154 $246 forward $240 $-1 #
edge $-1 $384 0 $384 6.2831853071796004 $245 $385 forward 7 unknown #
face $-1 $386 $387 $54 $-1 $388 forward single #
loop $-1 $-1 $389 $155 #
plane-surface $-1 -182.62575150629729 25.433506328499632 95.763174629395763 0 -1 0 0.78801076186113728 0 -0.61566146476048833 forward_v I I I I #
coedge $-1 $390 $391 $392 $393 reversed $156 $-1 #
coedge $-1 $252 $158 $394 $395 reversed $99 $-1 #
coedge $-1 $158 $251 $390 $396 reversed $99 $-1 #
coedge $-1 $392 $397 $158 $254 forward $387 $-1 #
edge $-1 $398 20.418378240407165 $399 28.919436868471195 $253 $400 forward 7 unknown #
loop $-1 $-1 $260 $159 #
plane-surface $-1 -70.894497512741466 17.988735686936238 8.4691542650893297 -0.78801076186113728 0 0.61566146476048833 0.61566146476048833 0 0.78801076186113728 forward_v I I I I #
loop $-1 $-1 $401 $101 #
coedge $-1 $258 $258 $259 $402 reversed $160 $-1 #
coedge $-1 $259 $259 $258 $402 forward $162 $-1 #
coedge $-1 $260 $260 $163 $261 forward $255 $-1 #
edge $-1 $403 0 $403 6.2831853071796004 $260 $404 forward 7 unknown #
loop $-1 $-1 $267 $164 #
plane-surface $-1 -70.894497512741466 17.988735686936238 8.4691542650893297 -0.78801076186113728 0 0.61566146476048833 0.61566146476048833 0 0.78801076186113728 forward_v I I I I #
loop $-1 $-1 $405 $104 #
coedge $-1 $265 $265 $266 $406 reversed $165 $-1 #
coedge $-1 $266 $266 $265 $406 forward $167 $-1 #
coedge $-1 $267 $267 $168 $268 forward $262 $-1 #
edge $-1 $407 0 $407 6.2831853071796004 $267 $408 forward 7 unknown #
loop $-1 $-1 $274 $169 #
plane-surface $-1 -70.894497512741466 17.988735686936238 8.4691542650893297 -0.78801076186113728 0 0.61566146476048833 0.61566146476048833 0 0.78801076186113728 forward_v I I I I #
loop $-1 $-1 $409 $107 #
coedge $-1 $272 $272 $273 $410 reversed $170 $-1 #
coedge $-1 $273 $273 $272 $410 forward $172 $-1 #
coedge $-1 $274 $274 $173 $275 forward $269 $-1 #
edge $-1 $411 0 $411 6.2831853071796004 $274 $412 forward 7 unknown #
face $-1 $413 $414 $58 $-1 $415 forward single #
loop $-1 $-1 $416 $174 #
plane-surface $-1 53.418037030501139 -22.189851103423024 212.06367547440485 0 1 0 0.64278761758704617 0 0.76604443648966558 forward_v I I I I #
coedge $-1 $417 $418 $419 $420 reversed $175 $-1 #
coedge $-1 $281 $177 $421 $422 reversed $111 $-1 #
coedge $-1 $177 $280 $417 $423 reversed $111 $-1 #
coedge $-1 $419 $424 $177 $283 forward $414 $-1 #
edge $-1 $425 -44.185478997490911 $426 -35.79169756181107 $282 $427 forward 7 unknown #
loop $-1 $-1 $289 $178 #
plane-surface $-1 -37.722173281990592 -15.568854386058405 103.44700467967276 0.64278761758704617 0 0.76604443648966558 0.76604443648966558 0 -0.64278761758704617 forward_v I I I I #
loop $-1 $-1 $428 $113 #
coedge $-1 $287 $287 $288 $429 reversed $179 $-1 #
coedge $-1 $288 $288 $287 $429 forward $181 $-1 #
coedge $-1 $289 $289 $182 $290 forward $284 $-1 #
edge $-1 $430 0 $430 6.2831853071796004 $289 $431 forward 7 unknown #
loop $-1 $-1 $296 $183 #
plane-surface $-1 -37.722173281990592 -15.568854386058405 103.44700467967276 0.64278761758704617 0 0.76604443648966558 0.76604443648966558 0 -0.64278761758704617 forward_v I I I I #
loop $-1 $-1 $432 $116 #
coedge $-1 $294 $294 $295 $433 reversed $184 $-1 #
coedge $-1 $295 $295 $294 $433 forward $186 $-1 #
coedge $-1 $296 $296 $187 $297 forward $291 $-1 #
edge $-1 $434 0 $434 6.2831853071796004 $296 $435 forward 7 unknown #
face $-1 $436 $437 $61 $-1 $438 reversed single #
loop $-1 $-1 $439 $188 #
plane-surface $-1 53.418037030501139 14.852278955889817 212.06367547440485 0 1 0 0.64278761758704617 0 0.76604443648966558 forward_v I I I I #
coedge $-1 $440 $441 $442 $443 reversed $189 $-1 #
coedge $-1 $303 $191 $444 $445 reversed $120 $-1 #
coedge $-1 $191 $302 $440 $446 reversed $120 $-1 #
coedge $-1 $442 $447 $191 $305 forward $448 $-1 #
edge $-1 $449 -44.185478997490911 $450 -35.79169756181107 $304 $451 forward 7 unknown #
loop $-1 $-1 $311 $192 #
plane-surface $-1 -37.722173281990592 21.473275673254435 103.44700467967276 0.64278761758704617 0 0.76604443648966558 0.76604443648966558 0 -0.64278761758704617 forward_v I I I I #
loop $-1 $-1 $452 $122 #
coedge $-1 $309 $309 $310 $453 reversed $193 $-1 #
coedge $-1 $310 $310 $309 $453 forward $195 $-1 #
coedge $-1 $311 $311 $196 $312 forward $306 $-1 #
edge $-1 $454 0 $454 6.2831853071796004 $311 $455 forward 7 unknown #
loop $-1 $-1 $318 $197 #
plane-surface $-1 -37.722173281990592 21.473275673254435 103.44700467967276 0.64278761758704617 0 0.76604443648966558 0.76604443648966558 0 -0.64278761758704617 forward_v I I I I #
loop $-1 $-1 $456 $125 #
coedge $-1 $316 $316 $317 $457 reversed $198 $-1 #
coedge $-1 $317 $317 $316 $457 forward $200 $-1 #
coedge $-1 $318 $318 $201 $319 forward $313 $-1 #
edge $-1 $458 0 $458 6.2831853071796004 $318 $459 forward 7 unknown #
face $-1 $460 $461 $48 $-1 $462 reversed single #
loop $-1 $-1 $463 $202 #
plane-surface $-1 -70.894497512741481 0 0 1 0 0 0 0 -1 forward_v I I I I #
coedge $-1 $464 $331 $465 $466 forward $203 $-1 #
coedge $-1 $467 $205 $464 $468 forward $129 $-1 #
coedge $-1 $205 $467 $469 $470 forward $129 $-1 #
coedge $-1 $334 $333 $205 $327 reversed $335 $-1 #
edge $-1 $471 -47.586095104685697 $472 47.586095104685697 $326 $473 forward 7 unknown #
coedge $-1 $207 $206 $474 $475 forward $81 $-1 #
coedge $-1 $476 $477 $206 $330 reversed $461 $-1 #
edge $-1 $337 -70.894497512741481 $478 70.894497512741481 $329 $479 forward 7 unknown #
coedge $-1 $323 $480 $207 $332 reversed $203 $-1 #
edge $-1 $481 -70.894497512741481 $336 70.894497512741481 $331 $482 forward 7 unknown #
coedge $-1 $326 $208 $480 $483 forward $335 $-1 #
coedge $-1 $208 $326 $476 $484 reversed $335 $-1 #
loop $-1 $-1 $333 $460 #
vertex $-1 $209 $485 #
vertex $-1 $209 $486 #
straight-curve $-1 70.894497512741481 0 19.350013421562629 0 1 0 I I #
face $-1 $487 $488 $49 $-1 $489 reversed single #
loop $-1 $-1 $490 $210 #
plane-surface $-1 -70.894497512741481 0 0 1 0 0 0 0 -1 forward_v I I I I #
coedge $-1 $491 $348 $353 $492 reversed $211 $-1 #
coedge $-1 $493 $213 $494 $495 reversed $133 $-1 #
coedge $-1 $213 $493 $491 $496 forward $133 $-1 #
coedge $-1 $353 $352 $213 $346 forward $354 $-1 #
edge $-1 $497 -29.065030075029277 $498 -7.9770999842835622 $345 $499 forward 7 unknown #
coedge $-1 $215 $214 $490 $500 reversed $84 $-1 #
coedge $-1 $342 $501 $214 $349 reversed $211 $-1 #
edge $-1 $355 -70.894497512741481 $502 70.894497512741481 $348 $503 forward 7 unknown #
coedge $-1 $504 $505 $215 $351 forward $488 $-1 #
edge $-1 $356 -70.894497512741481 $506 70.894497512741481 $350 $507 forward 7 unknown #
coedge $-1 $345 $216 $505 $508 forward $354 $-1 #
coedge $-1 $216 $345 $342 $492 forward $354 $-1 #
loop $-1 $-1 $216 $487 #
vertex $-1 $217 $509 #
vertex $-1 $508 $510 #
straight-curve $-1 70.894497512741481 -18.52106502965642 -8.3056035733315987 0 -1 0 I I #
face $-1 $-1 $370 $50 $-1 $511 forward single #
loop $-1 $-1 $512 $218 #
plane-surface $-1 -70.894497512741481 0 0 1 0 0 0 0 -1 forward_v I I I I #
coedge $-1 $513 $514 $515 $516 reversed $219 $-1 #
coedge $-1 $517 $221 $223 $368 forward $137 $-1 #
coedge $-1 $221 $517 $513 $518 forward $137 $-1 #
coedge $-1 $515 $224 $221 $365 forward $370 $-1 #
edge $-1 $372 -16.971467827751692 $519 -2.0819265446249045 $364 $520 forward 7 unknown #
coedge $-1 $521 $522 $222 $367 forward $359 $-1 #
edge $-1 $523 -39.412433049608566 $371 -28.531573893135253 $366 $524 forward 7 unknown #
edge $-1 $372 -13.808008320564936 $523 2.274695869299009e-014 $223 $525 forward 7 unknown #
coedge $-1 $224 $515 $521 $526 forward $370 $-1 #
loop $-1 $-1 $515 $358 #
vertex $-1 $367 $527 #
vertex $-1 $225 $528 #
straight-curve $-1 -91.312875753148646 -26.498165013939989 19.350013421562629 1 0 0 I I #
coedge $-1 $374 $374 $-1 $529 reversed $228 $-1 #
edge $-1 $530 0 $530 6.2831853071796004 $229 $531 forward 7 unknown #
vertex $-1 $232 $532 #
ellipse-curve $-1 -66.643968198709459 -23.520256757314627 13.909583843325974 -0.78801076186113728 0 0.61566146476048833 0.61566146476048833 0 0.78801076186113728 1 I I #
coedge $-1 $378 $378 $-1 $533 reversed $235 $-1 #
edge $-1 $534 0 $534 6.2831853071796004 $236 $535 forward 7 unknown #
vertex $-1 $239 $536 #
ellipse-curve $-1 -66.643968198709459 -19.053394372376591 13.909583843325974 -0.78801076186113728 0 0.61566146476048833 0.61566146476048833 0 0.78801076186113728 1 I I #
coedge $-1 $382 $382 $-1 $537 reversed $242 $-1 #
edge $-1 $538 0 $538 6.2831853071796004 $243 $539 forward 7 unknown #
vertex $-1 $246 $540 #
ellipse-curve $-1 -66.643968198709459 -14.586531987438555 13.909583843325974 -0.78801076186113728 0 0.61566146476048833 0.61566146476048833 0 0.78801076186113728 1 I I #
face $-1 $-1 $541 $54 $-1 $542 reversed single #
loop $-1 $-1 $253 $247 #
plane-surface $-1 0 0 19.350013421562629 0 0 1 1 0 0 forward_v I I I I #
coedge $-1 $543 $544 $545 $546 reversed $248 $-1 #
coedge $-1 $547 $250 $252 $396 forward $156 $-1 #
coedge $-1 $250 $547 $543 $548 forward $156 $-1 #
coedge $-1 $545 $253 $250 $393 forward $387 $-1 #
edge $-1 $399 1.5495972019047262 $549 16.439138485031513 $392 $550 forward 7 unknown #
coedge $-1 $551 $552 $251 $395 forward $541 $-1 #
edge $-1 $553 -39.412433049608566 $398 -28.531573893135253 $394 $554 forward 7 unknown #
edge $-1 $399 -13.808008320564936 $553 2.274695869299009e-014 $252 $555 forward 7 unknown #
coedge $-1 $253 $545 $551 $556 forward $387 $-1 #
vertex $-1 $254 $557 #
vertex $-1 $254 $558 #
straight-curve $-1 -91.312875753148646 10.543965045372845 19.350013421562629 1 0 0 I I #
coedge $-1 $401 $401 $-1 $559 reversed $257 $-1 #
edge $-1 $560 0 $560 6.2831853071796004 $258 $561 forward 7 unknown #
vertex $-1 $261 $562 #
ellipse-curve $-1 -66.643968198709459 13.521873301998212 13.909583843325974 -0.78801076186113728 0 0.61566146476048833 0.61566146476048833 0 0.78801076186113728 1 I I #
coedge $-1 $405 $405 $-1 $563 reversed $264 $-1 #
edge $-1 $564 0 $564 6.2831853071796004 $265 $565 forward 7 unknown #
vertex $-1 $268 $566 #
ellipse-curve $-1 -66.643968198709459 17.988735686936252 13.909583843325974 -0.78801076186113728 0 0.61566146476048833 0.61566146476048833 0 0.78801076186113728 1 I I #
coedge $-1 $409 $409 $-1 $567 reversed $271 $-1 #
edge $-1 $568 0 $568 6.2831853071796004 $272 $569 forward 7 unknown #
vertex $-1 $275 $570 #
ellipse-curve $-1 -66.643968198709459 22.455598071874292 13.909583843325974 -0.78801076186113728 0 0.61566146476048833 0.61566146476048833 0 0.78801076186113728 1 I I #
face $-1 $-1 $571 $58 $-1 $572 reversed single #
loop $-1 $-1 $282 $276 #
plane-surface $-1 0 0 19.350013421562629 0 0 1 1 0 0 forward_v I I I I #
coedge $-1 $573 $574 $575 $576 reversed $277 $-1 #
coedge $-1 $577 $279 $281 $423 forward $175 $-1 #
coedge $-1 $279 $577 $573 $578 forward $175 $-1 #
coedge $-1 $575 $282 $279 $420 forward $414 $-1 #
edge $-1 $426 1.163430475664585 $579 14.405423910393822 $419 $580 forward 7 unknown #
coedge $-1 $581 $582 $280 $422 forward $571 $-1 #
edge $-1 $583 -93.725043370021382 $425 -86.681824315639801 $421 $584 forward 7 unknown #
edge $-1 $426 130.83169145946053 $583 141.78899502548293 $281 $585 forward 7 unknown #
coedge $-1 $282 $575 $581 $586 forward $414 $-1 #
vertex $-1 $422 $587 #
vertex $-1 $283 $588 #
straight-curve $-1 26.70901851525057 -8.9478576686937874 19.350013421562636 -1 0 0 I I #
coedge $-1 $428 $428 $-1 $589 reversed $286 $-1 #
edge $-1 $590 0 $590 6.2831853071796004 $287 $591 forward 7 unknown #
vertex $-1 $290 $592 #
ellipse-curve $-1 66.69760679490156 -18.406424407786098 15.828403894371815 0.64278761758704617 0 0.76604443648966558 1.1490666547344983 0 -0.96418142638056925 1 I I #
coedge $-1 $432 $432 $-1 $593 reversed $293 $-1 #
edge $-1 $594 0 $594 6.2831853071796004 $294 $595 forward 7 unknown #
vertex $-1 $297 $596 #
ellipse-curve $-1 66.69760679490156 -12.731284364330712 15.828403894371815 0.64278761758704617 0 0.76604443648966558 1.1490666547344983 0 -0.96418142638056925 1 I I #
face $-1 $-1 $448 $61 $-1 $597 forward single #
loop $-1 $-1 $598 $298 #
plane-surface $-1 70.894497512741481 0 0 -1 0 0 0 0 1 forward_v I I I I #
coedge $-1 $599 $600 $601 $602 reversed $299 $-1 #
coedge $-1 $603 $301 $303 $446 forward $189 $-1 #
coedge $-1 $301 $603 $599 $604 forward $189 $-1 #
coedge $-1 $601 $304 $301 $443 forward $448 $-1 #
edge $-1 $450 -17.357634553991836 $605 -4.1156411192625999 $442 $606 forward 7 unknown #
coedge $-1 $607 $608 $302 $445 forward $437 $-1 #
edge $-1 $609 -93.725043370021382 $449 -86.681824315639801 $444 $610 forward 7 unknown #
edge $-1 $450 130.83169145946053 $609 141.78899502548293 $303 $611 forward 7 unknown #
coedge $-1 $304 $601 $607 $612 forward $448 $-1 #
loop $-1 $-1 $601 $436 #
vertex $-1 $445 $613 #
vertex $-1 $305 $614 #
straight-curve $-1 26.70901851525057 28.094272390619054 19.350013421562636 -1 0 0 I I #
coedge $-1 $452 $452 $-1 $615 reversed $308 $-1 #
edge $-1 $616 0 $616 6.2831853071796004 $309 $617 forward 7 unknown #
vertex $-1 $312 $618 #
ellipse-curve $-1 66.69760679490156 18.635705651526749 15.828403894371815 0.64278761758704617 0 0.76604443648966558 1.1490666547344983 0 -0.96418142638056925 1 I I #
coedge $-1 $456 $456 $-1 $619 reversed $315 $-1 #
edge $-1 $620 0 $620 6.2831853071796004 $316 $621 forward 7 unknown #
vertex $-1 $319 $622 #
ellipse-curve $-1 66.69760679490156 24.31084569498212 15.828403894371815 0.64278761758704617 0 0.76604443648966558 1.1490666547344983 0 -0.96418142638056925 1 I I #
face $-1 $-1 $335 $48 $-1 $623 reversed single #
loop $-1 $-1 $476 $320 #
plane-surface $-1 0 47.586095104685697 0 0 -1 0 0 0 -1 forward_v I I I I #
coedge $-1 $624 $474 $477 $625 forward $321 $-1 #
coedge $-1 $480 $323 $324 $468 reversed $203 $-1 #
coedge $-1 $474 $624 $323 $466 reversed $321 $-1 #
edge $-1 $481 -19.350013421562629 $626 19.350013421562629 $465 $627 forward 7 unknown #
coedge $-1 $325 $324 $624 $628 forward $129 $-1 #
edge $-1 $472 -70.894497512741481 $626 70.894497512741481 $464 $629 forward 7 unknown #
coedge $-1 $477 $476 $325 $470 reversed $461 $-1 #
edge $-1 $630 -70.894497512741481 $471 70.894497512741481 $469 $631 forward 7 unknown #
vertex $-1 $327 $632 #
vertex $-1 $483 $633 #
straight-curve $-1 70.894497512741481 0 -19.350013421562629 0 -1 0 I I #
coedge $-1 $463 $465 $328 $475 reversed $321 $-1 #
edge $-1 $478 -47.586095104685697 $481 47.586095104685697 $474 $634 forward 7 unknown #
coedge $-1 $469 $329 $334 $484 forward $461 $-1 #
coedge $-1 $329 $469 $463 $625 reversed $461 $-1 #
vertex $-1 $330 $635 #
straight-curve $-1 0 47.586095104685697 19.350013421562629 -1 0 0 I I #
coedge $-1 $331 $464 $333 $483 reversed $203 $-1 #
vertex $-1 $475 $636 #
straight-curve $-1 0 -47.586095104685697 19.350013421562629 1 0 0 I I #
edge $-1 $336 -19.350013421562629 $472 19.350013421562629 $333 $637 forward 7 unknown #
edge $-1 $337 -19.350013421562629 $471 19.350013421562629 $334 $638 forward 7 unknown #
point $-1 70.894497512741481 -47.586095104685697 19.350013421562629 #
point $-1 70.894497512741481 47.586095104685697 19.350013421562629 #
face $-1 $-1 $354 $49 $-1 $639 reversed single #
loop $-1 $-1 $350 $339 #
plane-surface $-1 0 -47.586095104685697 0 0 1 0 0 0 1 forward_v I I I I #
coedge $-1 $640 $641 $347 $500 forward $340 $-1 #
coedge $-1 $501 $342 $344 $496 reversed $211 $-1 #
edge $-1 $498 -11.204924128644919 $355 -1.8020943393394262 $353 $642 forward 7 unknown #
coedge $-1 $344 $343 $643 $644 reversed $133 $-1 #
coedge $-1 $505 $504 $343 $495 forward $488 $-1 #
edge $-1 $645 -70.894497512741481 $497 70.894497512741481 $494 $646 forward 7 unknown #
edge $-1 $647 -70.894497512741481 $498 70.894497512741481 $491 $648 forward 7 unknown #
vertex $-1 $495 $649 #
vertex $-1 $346 $650 #
straight-curve $-1 70.894497512741481 -18.52106502965642 -17.708433362637091 0 1 0 I I #
edge $-1 $506 -29.065030075029277 $502 -7.9770999842835622 $490 $651 forward 7 unknown #
coedge $-1 $348 $491 $640 $652 reversed $211 $-1 #
vertex $-1 $500 $653 #
straight-curve $-1 0 -26.498165013939982 -8.3056035733315987 -1 0 0 I I #
coedge $-1 $494 $350 $641 $654 forward $488 $-1 #
coedge $-1 $350 $494 $352 $508 reversed $488 $-1 #
vertex $-1 $654 $655 #
straight-curve $-1 0 -47.586095104685697 -8.3056035733315987 -1 0 0 I I #
edge $-1 $356 8.3056035733315987 $497 17.708433362637091 $352 $656 forward 7 unknown #
point $-1 70.894497512741481 -26.498165013939982 -8.3056035733315987 #
point $-1 70.894497512741481 -47.586095104685697 -8.3056035733315987 #
plane-surface $-1 0 0 19.350013421562629 0 0 1 1 0 0 forward_v I I I I #
coedge $-1 $522 $521 $514 $657 forward $359 $-1 #
coedge $-1 $514 $361 $363 $518 reversed $219 $-1 #
coedge $-1 $361 $513 $512 $657 reversed $219 $-1 #
coedge $-1 $369 $364 $361 $516 forward $370 $-1 #
edge $-1 $519 -28.919436868471195 $658 -20.418378240407165 $515 $659 forward 7 unknown #
coedge $-1 $363 $362 $522 $660 reversed $137 $-1 #
edge $-1 $661 -2.274695869299009e-014 $519 13.808008320564936 $513 $662 forward 7 unknown #
vertex $-1 $365 $663 #
straight-curve $-1 -62.393438884677444 -9.5266971861882972 19.350013421562629 0 1 0 I I #
coedge $-1 $512 $366 $369 $526 reversed $359 $-1 #
coedge $-1 $366 $512 $517 $660 forward $359 $-1 #
vertex $-1 $367 $664 #
straight-curve $-1 -70.894497512741481 -26.498165013939989 47.881587314697882 0 0 1 I I #
straight-curve $-1 -70.894497512741466 -26.498165013939989 8.4691542650893297 -0.61566146476048833 0 -0.78801076186113728 I I #
edge $-1 $658 11.608623730813202 $371 26.498165013939989 $521 $665 forward 7 unknown #
point $-1 -70.894497512741481 -26.498165013939989 19.350013421562629 #
point $-1 -62.393438884677451 -26.498165013939989 19.350013421562629 #
edge $-1 $666 1 $666 0 $374 $-1 forward 7 unknown #
vertex $-1 $375 $667 #
ellipse-curve $-1 -64.282076266463434 -23.520256757314627 12.064271676296441 -0.78801076186113728 0 0.61566146476048833 0.61566146476048833 0 0.78801076186113728 1 I I #
point $-1 -66.028306733948995 -23.520256757314627 14.697594605187122 #
edge $-1 $668 1 $668 0 $378 $-1 forward 7 unknown #
vertex $-1 $379 $669 #
ellipse-curve $-1 -64.282076266463434 -19.053394372376591 12.064271676296441 -0.78801076186113728 0 0.61566146476048833 0.61566146476048833 0 0.78801076186113728 1 I I #
point $-1 -66.028306733948995 -19.053394372376591 14.697594605187122 #
edge $-1 $670 1 $670 0 $382 $-1 forward 7 unknown #
vertex $-1 $383 $671 #
ellipse-curve $-1 -64.282076266463434 -14.586531987438555 12.064271676296441 -0.78801076186113728 0 0.61566146476048833 0.61566146476048833 0 0.78801076186113728 1 I I #
point $-1 -66.028306733948995 -14.586531987438555 14.697594605187122 #
loop $-1 $-1 $394 $386 #
plane-surface $-1 -70.894497512741481 0 0 1 0 0 0 0 -1 forward_v I I I I #
coedge $-1 $544 $389 $391 $548 reversed $248 $-1 #
coedge $-1 $389 $543 $672 $673 reversed $248 $-1 #
coedge $-1 $397 $392 $389 $546 forward $387 $-1 #
edge $-1 $549 -28.919436868471195 $674 -20.418378240407165 $545 $675 forward 7 unknown #
coedge $-1 $391 $390 $552 $676 reversed $156 $-1 #
edge $-1 $677 -2.274695869299009e-014 $549 13.808008320564936 $543 $678 forward 7 unknown #
vertex $-1 $393 $679 #
straight-curve $-1 -62.393438884677444 8.9943678434681189 19.350013421562629 0 1 0 I I #
coedge $-1 $672 $394 $397 $556 reversed $541 $-1 #
coedge $-1 $394 $672 $547 $676 forward $541 $-1 #
vertex $-1 $395 $680 #
straight-curve $-1 -70.894497512741481 10.543965045372845 47.881587314697882 0 0 1 I I #
straight-curve $-1 -70.894497512741466 10.543965045372845 8.4691542650893297 -0.61566146476048833 0 -0.78801076186113728 I I #
edge $-1 $674 -25.433506328499632 $398 -10.543965045372845 $551 $681 forward 7 unknown #
point $-1 -70.894497512741481 10.543965045372845 19.350013421562629 #
point $-1 -62.393438884677451 10.543965045372845 19.350013421562629 #
edge $-1 $682 1 $682 0 $401 $-1 forward 7 unknown #
vertex $-1 $402 $683 #
ellipse-curve $-1 -64.282076266463434 13.521873301998212 12.064271676296441 -0.78801076186113728 0 0.61566146476048833 0.61566146476048833 0 0.78801076186113728 1 I I #
point $-1 -66.028306733948995 13.521873301998212 14.697594605187122 #
edge $-1 $684 1 $684 0 $405 $-1 forward 7 unknown #
vertex $-1 $406 $685 #
ellipse-curve $-1 -64.282076266463434 17.988735686936252 12.064271676296441 -0.78801076186113728 0 0.61566146476048833 0.61566146476048833 0 0.78801076186113728 1 I I #
point $-1 -66.028306733948995 17.988735686936252 14.697594605187122 #
edge $-1 $686 1 $686 0 $409 $-1 forward 7 unknown #
vertex $-1 $410 $687 #
ellipse-curve $-1 -64.282076266463434 22.455598071874292 12.064271676296441 -0.78801076186113728 0 0.61566146476048833 0.61566146476048833 0 0.78801076186113728 1 I I #
point $-1 -66.028306733948995 22.455598071874292 14.697594605187122 #
loop $-1 $-1 $421 $413 #
plane-surface $-1 70.894497512741481 0 0 -1 0 0 0 0 1 forward_v I I I I #
coedge $-1 $574 $416 $418 $578 reversed $277 $-1 #
coedge $-1 $416 $573 $688 $689 reversed $277 $-1 #
coedge $-1 $424 $419 $416 $576 forward $414 $-1 #
edge $-1 $579 35.79169756181107 $690 44.185478997490911 $575 $691 forward 7 unknown #
coedge $-1 $418 $417 $582 $692 reversed $175 $-1 #
edge $-1 $693 -141.78899502548293 $579 -130.83169145946053 $573 $694 forward 7 unknown #
vertex $-1 $420 $695 #
straight-curve $-1 62.500716077061632 -7.7844271930292024 19.350013421562636 0 -1 0 I I #
coedge $-1 $688 $421 $424 $586 reversed $571 $-1 #
coedge $-1 $421 $688 $577 $692 forward $571 $-1 #
vertex $-1 $422 $696 #
straight-curve $-1 70.894497512741481 -8.9478576686937874 106.03183773720242 0 0 1 I I #
straight-curve $-1 -37.722173281990592 -8.9478576686937874 103.44700467967276 0.76604443648966558 0 -0.64278761758704617 I I #
edge $-1 $690 -22.189851103423024 $425 -8.9478576686937874 $581 $697 forward 7 unknown #
point $-1 70.894497512741481 -8.9478576686937874 19.350013421562629 #
point $-1 62.500716077061639 -8.9478576686937874 19.350013421562636 #
edge $-1 $698 1 $698 0 $428 $-1 forward 7 unknown #
vertex $-1 $429 $699 #
ellipse-curve $-1 64.001977158703639 -18.406424407786098 12.615877658415748 0.64278761758704617 0 0.76604443648966558 1.1490666547344983 0 -0.96418142638056925 1 I I #
point $-1 67.846673449636057 -18.406424407786098 14.864222467991254 #
edge $-1 $700 1 $700 0 $432 $-1 forward 7 unknown #
vertex $-1 $433 $701 #
ellipse-curve $-1 64.001977158703639 -12.731284364330712 12.615877658415748 0.64278761758704617 0 0.76604443648966558 1.1490666547344983 0 -0.96418142638056925 1 I I #
point $-1 67.846673449636057 -12.731284364330712 14.864222467991254 #
plane-surface $-1 0 0 19.350013421562629 0 0 1 1 0 0 forward_v I I I I #
coedge $-1 $608 $607 $600 $702 forward $437 $-1 #
coedge $-1 $600 $439 $441 $604 reversed $299 $-1 #
coedge $-1 $439 $599 $598 $702 reversed $299 $-1 #
coedge $-1 $447 $442 $439 $602 forward $448 $-1 #
edge $-1 $605 35.79169756181107 $703 44.185478997490911 $601 $704 forward 7 unknown #
coedge $-1 $441 $440 $608 $705 reversed $189 $-1 #
edge $-1 $706 -141.78899502548293 $605 -130.83169145946053 $599 $707 forward 7 unknown #
vertex $-1 $443 $708 #
straight-curve $-1 62.500716077061632 10.736637836627217 19.350013421562636 0 -1 0 I I #
coedge $-1 $598 $444 $447 $612 reversed $437 $-1 #
coedge $-1 $444 $598 $603 $705 forward $437 $-1 #
vertex $-1 $445 $709 #
straight-curve $-1 70.894497512741481 28.094272390619054 106.03183773720242 0 0 1 I I #
straight-curve $-1 -37.722173281990592 28.094272390619054 103.44700467967276 0.76604443648966558 0 -0.64278761758704617 I I #
edge $-1 $703 14.852278955889817 $449 28.094272390619054 $607 $710 forward 7 unknown #
point $-1 70.894497512741481 28.094272390619054 19.350013421562629 #
point $-1 62.500716077061639 28.094272390619054 19.350013421562636 #
edge $-1 $711 1 $711 0 $452 $-1 forward 7 unknown #
vertex $-1 $453 $712 #
ellipse-curve $-1 64.001977158703639 18.635705651526749 12.615877658415748 0.64278761758704617 0 0.76604443648966558 1.1490666547344983 0 -0.96418142638056925 1 I I #
point $-1 67.846673449636057 18.635705651526749 14.864222467991254 #
edge $-1 $713 1 $713 0 $456 $-1 forward 7 unknown #
vertex $-1 $457 $714 #
ellipse-curve $-1 64.001977158703639 24.31084569498212 12.615877658415748 0.64278761758704617 0 0.76604443648966558 1.1490666547344983 0 -0.96418142638056925 1 I I #
point $-1 67.846673449636057 24.31084569498212 14.864222467991254 #
plane-surface $-1 70.894497512741481 0 0 -1 0 0 0 0 1 forward_v I I I I #
coedge $-1 $465 $463 $467 $628 reversed $321 $-1 #
edge $-1 $478 -19.350013421562629 $630 19.350013421562629 $477 $715 forward 7 unknown #
vertex $-1 $628 $716 #
straight-curve $-1 -70.894497512741481 -47.586095104685697 0 0 0 -1 I I #
edge $-1 $626 -47.586095104685697 $630 47.586095104685697 $624 $717 forward 7 unknown #
straight-curve $-1 0 -47.586095104685697 -19.350013421562629 -1 0 0 I I #
vertex $-1 $470 $718 #
straight-curve $-1 0 47.586095104685697 -19.350013421562629 1 0 0 I I #
point $-1 70.894497512741481 47.586095104685697 -19.350013421562629 #
point $-1 70.894497512741481 -47.586095104685697 -19.350013421562629 #
straight-curve $-1 -70.894497512741481 0 19.350013421562629 0 -1 0 I I #
point $-1 -70.894497512741481 47.586095104685697 19.350013421562629 #
point $-1 -70.894497512741481 -47.586095104685697 19.350013421562629 #
straight-curve $-1 70.894497512741481 -47.586095104685697 0 0 0 -1 I I #
straight-curve $-1 70.894497512741481 47.586095104685697 0 0 0 -1 I I #
plane-surface $-1 70.894497512741481 0 0 -1 0 0 0 0 1 forward_v I I I I #
coedge $-1 $643 $490 $501 $652 forward $340 $-1 #
coedge $-1 $490 $643 $504 $654 reversed $340 $-1 #
straight-curve $-1 70.894497512741481 -26.498165013939982 -6.5035092339921725 0 0 1 I I #
coedge $-1 $641 $640 $493 $644 forward $340 $-1 #
edge $-1 $647 7.9770999842835622 $645 29.065030075029277 $643 $719 forward 7 unknown #
vertex $-1 $495 $720 #
straight-curve $-1 0 -47.586095104685697 -17.708433362637091 1 0 0 I I #
vertex $-1 $644 $721 #
straight-curve $-1 0 -26.498165013939982 -17.708433362637091 1 0 0 I I #
point $-1 70.894497512741481 -47.586095104685697 -17.708433362637091 #
point $-1 70.894497512741481 -26.498165013939982 -17.708433362637091 #
straight-curve $-1 -70.894497512741481 -18.52106502965642 -8.3056035733315987 0 1 0 I I #
edge $-1 $502 1.8020943393394262 $647 11.204924128644919 $640 $722 forward 7 unknown #
point $-1 -70.894497512741481 -26.498165013939982 -8.3056035733315987 #
edge $-1 $506 8.3056035733315987 $645 17.708433362637091 $641 $723 forward 7 unknown #
point $-1 -70.894497512741481 -47.586095104685697 -8.3056035733315987 #
straight-curve $-1 70.894497512741481 -47.586095104685697 0 0 0 -1 I I #
edge $-1 $658 28.531573893135253 $661 39.412433049608566 $512 $724 forward 7 unknown #
vertex $-1 $526 $725 #
straight-curve $-1 -91.312875753148646 -11.608623730813202 19.350013421562629 -1 0 0 I I #
edge $-1 $661 2.0819265446249045 $523 16.971467827751692 $522 $726 forward 7 unknown #
vertex $-1 $660 $727 #
straight-curve $-1 -70.894497512741466 -11.608623730813202 8.4691542650893297 0.61566146476048833 0 0.78801076186113728 I I #
point $-1 -62.393438884677451 -11.608623730813202 19.350013421562629 #
point $-1 -70.894497512741481 -26.498165013939989 8.4691542650893119 #
straight-curve $-1 -70.894497512741481 0 19.350013421562629 0 -1 0 I I #
vertex $-1 $529 $728 #
point $-1 -63.666414801702949 -23.520256757314627 12.852282438157578 #
vertex $-1 $533 $729 #
point $-1 -63.666414801702949 -19.053394372376591 12.852282438157578 #
vertex $-1 $537 $730 #
point $-1 -63.666414801702949 -14.586531987438555 12.852282438157578 #
coedge $-1 $552 $551 $544 $673 forward $541 $-1 #
edge $-1 $674 28.531573893135253 $677 39.412433049608566 $672 $731 forward 7 unknown #
vertex $-1 $556 $732 #
straight-curve $-1 -91.312875753148646 25.433506328499632 19.350013421562629 -1 0 0 I I #
edge $-1 $677 -16.439138485031513 $553 -1.5495972019047262 $552 $733 forward 7 unknown #
vertex $-1 $676 $734 #
straight-curve $-1 -70.894497512741466 25.433506328499632 8.4691542650893297 0.61566146476048833 0 0.78801076186113728 I I #
point $-1 -62.393438884677451 25.433506328499632 19.350013421562629 #
point $-1 -70.894497512741481 10.543965045372845 8.4691542650893119 #
straight-curve $-1 -70.894497512741481 0 19.350013421562629 0 -1 0 I I #
vertex $-1 $559 $735 #
point $-1 -63.666414801702949 13.521873301998212 12.852282438157578 #
vertex $-1 $563 $736 #
point $-1 -63.666414801702949 17.988735686936252 12.852282438157578 #
vertex $-1 $567 $737 #
point $-1 -63.666414801702949 22.455598071874292 12.852282438157578 #
coedge $-1 $582 $581 $574 $689 forward $571 $-1 #
edge $-1 $690 86.681824315639801 $693 93.725043370021382 $688 $738 forward 7 unknown #
vertex $-1 $586 $739 #
straight-curve $-1 26.70901851525057 -22.189851103423024 19.350013421562636 1 0 0 I I #
edge $-1 $693 -14.405423910393822 $583 -1.163430475664585 $582 $740 forward 7 unknown #
vertex $-1 $692 $741 #
straight-curve $-1 -37.722173281990592 -22.189851103423024 103.44700467967276 -0.76604443648966558 0 0.64278761758704617 I I #
point $-1 62.500716077061639 -22.189851103423024 19.350013421562636 #
point $-1 70.894497512741481 -8.9478576686937874 12.306794367181041 #
straight-curve $-1 70.894497512741481 0 19.350013421562629 0 1 0 I I #
vertex $-1 $589 $742 #
point $-1 65.151043813438136 -18.406424407786098 11.65169623203518 #
vertex $-1 $593 $743 #
point $-1 65.151043813438136 -12.731284364330712 11.65169623203518 #
edge $-1 $703 86.681824315639801 $706 93.725043370021382 $598 $744 forward 7 unknown #
vertex $-1 $612 $745 #
straight-curve $-1 26.70901851525057 14.852278955889817 19.350013421562636 1 0 0 I I #
edge $-1 $706 4.1156411192625999 $609 17.357634553991836 $608 $746 forward 7 unknown #
vertex $-1 $705 $747 #
straight-curve $-1 -37.722173281990592 14.852278955889817 103.44700467967276 -0.76604443648966558 0 0.64278761758704617 I I #
point $-1 62.500716077061639 14.852278955889817 19.350013421562636 #
point $-1 70.894497512741481 28.094272390619054 12.306794367181041 #
straight-curve $-1 70.894497512741481 0 19.350013421562629 0 1 0 I I #
vertex $-1 $615 $748 #
point $-1 65.151043813438136 18.635705651526749 11.65169623203518 #
vertex $-1 $619 $749 #
point $-1 65.151043813438136 24.31084569498212 11.65169623203518 #
straight-curve $-1 -70.894497512741481 47.586095104685697 0 0 0 -1 I I #
point $-1 -70.894497512741481 -47.586095104685697 -19.350013421562629 #
straight-curve $-1 -70.894497512741481 0 -19.350013421562629 0 1 0 I I #
point $-1 -70.894497512741481 47.586095104685697 -19.350013421562629 #
straight-curve $-1 -70.894497512741481 -18.52106502965642 -17.708433362637091 0 -1 0 I I #
point $-1 -70.894497512741481 -47.586095104685697 -17.708433362637091 #
point $-1 -70.894497512741481 -26.498165013939982 -17.708433362637091 #
straight-curve $-1 -70.894497512741481 -26.498165013939982 -6.5035092339921725 0 0 -1 I I #
straight-curve $-1 -70.894497512741481 -47.586095104685697 0 0 0 -1 I I #
straight-curve $-1 -70.894497512741481 -11.608623730813202 47.881587314697882 0 0 -1 I I #
point $-1 -70.894497512741481 -11.608623730813202 19.350013421562629 #
straight-curve $-1 -70.894497512741481 -9.5266971861882972 8.4691542650893261 0 -1 0 I I #
point $-1 -70.894497512741481 -11.608623730813202 8.4691542650893119 #
point $-1 -63.494065504602304 -23.520256757314627 11.448610211535952 #
point $-1 -63.494065504602304 -19.053394372376591 11.448610211535952 #
point $-1 -63.494065504602304 -14.586531987438555 11.448610211535952 #
straight-curve $-1 -70.894497512741481 25.433506328499632 47.881587314697882 0 0 -1 I I #
point $-1 -70.894497512741481 25.433506328499632 19.350013421562629 #
straight-curve $-1 -70.894497512741481 8.9943678434681189 8.4691542650893261 0 -1 0 I I #
point $-1 -70.894497512741481 25.433506328499632 8.4691542650893119 #
point $-1 -63.494065504602304 13.521873301998212 11.448610211535952 #
point $-1 -63.494065504602304 17.988735686936252 11.448610211535952 #
point $-1 -63.494065504602304 22.455598071874292 11.448610211535952 #
straight-curve $-1 70.894497512741481 -22.189851103423024 106.03183773720242 0 0 -1 I I #
point $-1 70.894497512741481 -22.189851103423024 19.350013421562629 #
straight-curve $-1 70.894497512741466 -7.7844271930292024 12.306794367181048 0 1 0 I I #
point $-1 70.894497512741481 -22.189851103423024 12.306794367181041 #
point $-1 63.037795732323069 -18.406424407786098 11.466811003681251 #
point $-1 63.037795732323069 -12.731284364330712 11.466811003681251 #
straight-curve $-1 70.894497512741481 14.852278955889817 106.03183773720242 0 0 -1 I I #
point $-1 70.894497512741481 14.852278955889817 19.350013421562629 #
straight-curve $-1 70.894497512741466 10.736637836627217 12.306794367181048 0 1 0 I I #
point $-1 70.894497512741481 14.852278955889817 12.306794367181041 #
point $-1 63.037795732323069 18.635705651526749 11.466811003681251 #
point $-1 63.037795732323069 24.31084569498212 11.466811003681251 #
End-of-ACIS-data 