500 0 4 0           
7 Unknown 11 ACIS 5.0 NT 24 Fri Mar 26 01:25:13 1999 
-1 9.9999999999999995e-007 1e-010 
body $-1 $4 $-1 $5 #
body $-1 $6 $-1 $7 #
body $-1 $8 $-1 $9 #
body $-1 $10 $-1 $11 #
lump $-1 $-1 $12 $0 #
transform $-1 1 0 0 0 1 0 0 0 1 66.176335947752307 41.521222827339528 20.475118951650064 1 rotate no_reflect no_shear #
lump $-1 $-1 $13 $1 #
transform $-1 1 0 0 0 1 0 0 0 1 66.176335947752307 41.521222827339528 20.475118951650064 1 rotate no_reflect no_shear #
lump $-1 $-1 $14 $2 #
transform $-1 1 0 0 0 1 0 0 0 1 66.176335947752307 41.521222827339528 20.475118951650064 1 rotate no_reflect no_shear #
lump $-1 $-1 $15 $3 #
transform $-1 1 0 0 0 1 0 0 0 1 66.176335947752307 41.521222827339528 20.475118951650064 1 rotate no_reflect no_shear #
shell $-1 $-1 $-1 $16 $-1 $4 #
shell $-1 $-1 $-1 $17 $-1 $6 #
shell $-1 $-1 $-1 $18 $-1 $8 #
shell $-1 $-1 $-1 $19 $-1 $10 #
face $-1 $20 $21 $12 $-1 $22 forward single #
face $-1 $23 $24 $13 $-1 $25 forward single #
face $-1 $26 $27 $14 $-1 $28 reversed single #
face $-1 $29 $30 $15 $-1 $31 forward single #
face $-1 $32 $33 $12 $-1 $34 reversed single #
loop $-1 $-1 $35 $16 #
plane-surface $-1 0 0 20.475118951650064 0 0 1 1 0 0 forward_v I I I I #
face $-1 $36 $37 $13 $-1 $38 reversed single #
loop $-1 $-1 $39 $17 #
plane-surface $-1 -66.176335947752307 0 0 1 0 0 0 0 -1 forward_v I I I I #
face $-1 $40 $41 $14 $-1 $42 reversed single #
loop $-1 $-1 $43 $18 #
plane-surface $-1 -39.99751635925309 112.19958611070624 139.86364845468051 1 0 0 0 -0.85716730853699208 -0.51503806187062418 forward_v I I I I #
face $-1 $44 $45 $15 $-1 $46 forward single #
loop $-1 $47 $48 $19 #
cone-surface $-1 -24.457902797538708 31.232436777924207 7.916297219014254 0 -0.85716730853699208 -0.51503806187062418 3 0 0 1 I I 0 1 3 forward I I I I #
face $-1 $49 $50 $12 $-1 $51 reversed single #
loop $-1 $-1 $52 $20 #
plane-surface $-1 0 0 -20.475118951650064 0 0 1 1 0 0 forward_v I I I I #
coedge $-1 $53 $54 $55 $56 forward $21 $-1 #
face $-1 $57 $58 $13 $-1 $59 forward single #
loop $-1 $-1 $60 $23 #
plane-surface $-1 0 41.521222827339528 0 0 -1 0 0 0 -1 forward_v I I I I #
coedge $-1 $61 $62 $63 $64 forward $24 $-1 #
face $-1 $65 $66 $14 $-1 $67 reversed single #
loop $-1 $-1 $68 $26 #
plane-surface $-1 -24.457902797538708 -1.2487974356430414 71.696984838221184 0 0.85716730853699208 0.51503806187062418 1 0 0 forward_v I I I I #
coedge $-1 $69 $70 $71 $72 reversed $27 $-1 #
face $-1 $-1 $73 $15 $-1 $74 forward single #
loop $-1 $75 $76 $29 #
cone-surface $-1 -24.457902797538708 25.654309405276734 4.5646202683622725 0 -0.85716730853699208 -0.51503806187062418 1.5 0 0 1 I I -0.70710678118654757 0.70710678118654757 1.5 forward I I I I #
loop $-1 $-1 $77 $19 #
coedge $-1 $48 $48 $78 $79 reversed $30 $-1 #
face $-1 $80 $81 $12 $-1 $82 reversed single #
loop $-1 $-1 $83 $32 #
plane-surface $-1 0 -41.521222827339528 0 0 1 0 0 0 1 forward_v I I I I #
coedge $-1 $84 $85 $86 $87 forward $33 $-1 #
coedge $-1 $88 $35 $89 $90 forward $21 $-1 #
coedge $-1 $35 $88 $91 $92 forward $21 $-1 #
coedge $-1 $93 $94 $35 $56 reversed $95 $-1 #
edge $-1 $96 -41.521222827339528 $97 41.521222827339528 $55 $98 forward 7 unknown #
face $-1 $99 $100 $13 $-1 $101 reversed single #
loop $-1 $-1 $63 $36 #
plane-surface $-1 -73.535456248614182 0 -9.0826242645899118 0 0 1 1 0 0 forward_v I I I I #
coedge $-1 $102 $103 $62 $104 forward $37 $-1 #
coedge $-1 $105 $39 $106 $107 reversed $24 $-1 #
coedge $-1 $39 $105 $60 $104 reversed $24 $-1 #
coedge $-1 $108 $109 $39 $64 reversed $58 $-1 #
edge $-1 $110 -41.521222827339528 $111 41.521222827339528 $63 $112 forward 7 unknown #
face $-1 $113 $114 $14 $-1 $115 forward single #
loop $-1 $-1 $116 $40 #
plane-surface $-1 -8.9182892358243269 112.19958611070624 139.86364845468051 -1 0 0 0 0.85716730853699208 0.51503806187062418 forward_v I I I I #
coedge $-1 $117 $118 $119 $120 reversed $41 $-1 #
coedge $-1 $70 $43 $121 $122 reversed $27 $-1 #
coedge $-1 $43 $69 $117 $123 reversed $27 $-1 #
coedge $-1 $119 $124 $43 $72 forward $114 $-1 #
edge $-1 $125 14.578570228013589 $126 26.571389507160315 $71 $127 forward 7 unknown #
loop $-1 $-1 $78 $44 #
plane-surface $-1 -24.457902797538708 -1.2487974356430414 71.696984838221184 0 0.85716730853699208 0.51503806187062418 1 0 0 forward_v I I I I #
loop $-1 $-1 $128 $29 #
coedge $-1 $76 $76 $77 $129 reversed $45 $-1 #
coedge $-1 $77 $77 $76 $129 forward $47 $-1 #
coedge $-1 $78 $78 $48 $79 forward $73 $-1 #
edge $-1 $130 -1.0063541597710715e-015 $130 6.2831853071795996 $78 $131 forward 7 unknown #
face $-1 $132 $133 $12 $-1 $134 reversed single #
loop $-1 $-1 $135 $49 #
plane-surface $-1 -66.176335947752307 0 0 1 0 0 0 0 -1 forward_v I I I I #
coedge $-1 $136 $91 $137 $138 forward $50 $-1 #
coedge $-1 $139 $52 $136 $140 forward $33 $-1 #
coedge $-1 $52 $139 $141 $142 forward $33 $-1 #
coedge $-1 $94 $93 $52 $87 reversed $95 $-1 #
edge $-1 $143 -41.521222827339528 $144 41.521222827339528 $86 $145 forward 7 unknown #
coedge $-1 $54 $53 $146 $147 forward $21 $-1 #
coedge $-1 $148 $149 $53 $90 reversed $133 $-1 #
edge $-1 $97 -66.176335947752307 $150 66.176335947752307 $89 $151 forward 7 unknown #
coedge $-1 $83 $152 $54 $92 reversed $50 $-1 #
edge $-1 $153 -66.176335947752307 $96 66.176335947752307 $91 $154 forward 7 unknown #
coedge $-1 $86 $55 $152 $155 forward $95 $-1 #
coedge $-1 $55 $86 $148 $156 reversed $95 $-1 #
loop $-1 $-1 $93 $132 #
vertex $-1 $56 $157 #
vertex $-1 $56 $158 #
straight-curve $-1 66.176335947752307 0 20.475118951650064 0 1 0 I I #
face $-1 $159 $160 $13 $-1 $161 reversed single #
loop $-1 $-1 $162 $57 #
plane-surface $-1 -73.535456248614182 0 -17.272796819272287 0 0 1 1 0 0 forward_v I I I I #
coedge $-1 $163 $60 $164 $165 reversed $37 $-1 #
coedge $-1 $60 $163 $108 $166 reversed $37 $-1 #
edge $-1 $110 9.0826242645899118 $167 17.272796819272287 $60 $168 forward 7 unknown #
coedge $-1 $62 $61 $162 $169 forward $24 $-1 #
coedge $-1 $170 $171 $61 $107 forward $172 $-1 #
edge $-1 $173 -17.272796819272287 $111 -9.0826242645899118 $106 $174 forward 7 unknown #
coedge $-1 $175 $63 $103 $166 forward $58 $-1 #
coedge $-1 $63 $175 $170 $176 forward $58 $-1 #
vertex $-1 $104 $177 #
vertex $-1 $176 $178 #
straight-curve $-1 -66.176335947752307 0 -9.0826242645899118 0 -1 0 I I #
face $-1 $-1 $179 $14 $-1 $180 reversed single #
loop $-1 $-1 $71 $65 #
plane-surface $-1 0 0 20.475118951650064 0 0 1 1 0 0 forward_v I I I I #
coedge $-1 $181 $182 $183 $184 reversed $66 $-1 #
coedge $-1 $185 $68 $70 $123 forward $41 $-1 #
coedge $-1 $68 $185 $181 $186 forward $41 $-1 #
coedge $-1 $183 $71 $68 $120 forward $114 $-1 #
edge $-1 $126 -27.768564960483737 $187 3.310662162945027 $119 $188 forward 7 unknown #
coedge $-1 $189 $190 $69 $122 forward $179 $-1 #
edge $-1 $191 -69.416109025269805 $125 -49.456705275690197 $121 $192 forward 7 unknown #
edge $-1 $126 59.757138864752434 $191 83.042445654679128 $70 $193 forward 7 unknown #
coedge $-1 $71 $183 $189 $194 forward $114 $-1 #
vertex $-1 $122 $195 #
vertex $-1 $72 $196 #
straight-curve $-1 -39.99751635925309 56.099793055353118 20.47511895165006 0 -1 0 I I #
coedge $-1 $128 $128 $-1 $197 reversed $75 $-1 #
edge $-1 $198 0 $198 6.2831853071796004 $76 $199 forward 7 unknown #
vertex $-1 $79 $200 #
ellipse-curve $-1 -24.457902797538708 35.524813187766156 10.495417076860274 0 0.85716730853699208 0.51503806187062418 3 0 0 1 I I #
face $-1 $-1 $95 $12 $-1 $201 reversed single #
loop $-1 $-1 $148 $80 #
plane-surface $-1 0 41.521222827339528 0 0 -1 0 0 0 -1 forward_v I I I I #
coedge $-1 $202 $146 $149 $203 forward $81 $-1 #
coedge $-1 $152 $83 $84 $140 reversed $50 $-1 #
coedge $-1 $146 $202 $83 $138 reversed $81 $-1 #
edge $-1 $153 -20.475118951650064 $204 20.475118951650064 $137 $205 forward 7 unknown #
coedge $-1 $85 $84 $202 $206 forward $33 $-1 #
edge $-1 $144 -66.176335947752307 $204 66.176335947752307 $136 $207 forward 7 unknown #
coedge $-1 $149 $148 $85 $142 reversed $133 $-1 #
edge $-1 $208 -66.176335947752307 $143 66.176335947752307 $141 $209 forward 7 unknown #
vertex $-1 $87 $210 #
vertex $-1 $155 $211 #
straight-curve $-1 66.176335947752307 0 -20.475118951650064 0 -1 0 I I #
coedge $-1 $135 $137 $88 $147 reversed $81 $-1 #
edge $-1 $150 -41.521222827339528 $153 41.521222827339528 $146 $212 forward 7 unknown #
coedge $-1 $141 $89 $94 $156 forward $133 $-1 #
coedge $-1 $89 $141 $135 $203 reversed $133 $-1 #
vertex $-1 $90 $213 #
straight-curve $-1 0 41.521222827339528 20.475118951650064 -1 0 0 I I #
coedge $-1 $91 $136 $93 $155 reversed $50 $-1 #
vertex $-1 $147 $214 #
straight-curve $-1 0 -41.521222827339528 20.475118951650064 1 0 0 I I #
edge $-1 $96 -20.475118951650064 $144 20.475118951650064 $93 $215 forward 7 unknown #
edge $-1 $97 -20.475118951650064 $143 20.475118951650064 $94 $216 forward 7 unknown #
point $-1 66.176335947752307 -41.521222827339528 20.475118951650064 #
point $-1 66.176335947752307 41.521222827339528 20.475118951650064 #
face $-1 $-1 $172 $13 $-1 $217 reversed single #
loop $-1 $-1 $218 $99 #
plane-surface $-1 -80.894576549476056 0 -13.177710541931098 1 0 0 0 0 -1 forward_v I I I I #
coedge $-1 $219 $164 $105 $169 reversed $100 $-1 #
coedge $-1 $103 $102 $218 $220 reversed $37 $-1 #
coedge $-1 $162 $221 $102 $165 forward $100 $-1 #
edge $-1 $222 -7.3591203008618749 $167 7.3591203008618749 $102 $223 forward 7 unknown #
edge $-1 $110 -7.3591203008618749 $224 7.3591203008618749 $103 $225 forward 7 unknown #
vertex $-1 $104 $226 #
straight-curve $-1 -66.176335947752307 41.521222827339528 0 0 0 -1 I I #
edge $-1 $173 -41.521222827339528 $167 41.521222827339528 $162 $227 forward 7 unknown #
coedge $-1 $228 $106 $109 $176 reversed $172 $-1 #
coedge $-1 $106 $228 $219 $229 reversed $172 $-1 #
loop $-1 $-1 $106 $159 #
vertex $-1 $107 $230 #
straight-curve $-1 -66.176335947752307 -41.521222827339528 0 0 0 1 I I #
coedge $-1 $109 $108 $231 $232 forward $58 $-1 #
edge $-1 $233 -7.3591203008618749 $111 7.3591203008618749 $170 $234 forward 7 unknown #
point $-1 -66.176335947752307 41.521222827339528 -9.0826242645899118 #
point $-1 -66.176335947752307 -41.521222827339528 -9.0826242645899118 #
loop $-1 $-1 $121 $113 #
plane-surface $-1 0 41.521222827339528 0 0 -1 0 0 0 -1 forward_v I I I I #
coedge $-1 $182 $116 $118 $186 reversed $66 $-1 #
coedge $-1 $116 $181 $235 $236 reversed $66 $-1 #
coedge $-1 $124 $119 $116 $184 forward $114 $-1 #
edge $-1 $187 -26.571389507160315 $237 -14.578570228013589 $183 $238 forward 7 unknown #
coedge $-1 $118 $117 $190 $239 reversed $41 $-1 #
edge $-1 $240 -83.042445654679128 $187 -59.757138864752434 $181 $241 forward 7 unknown #
vertex $-1 $120 $242 #
straight-curve $-1 -12.228951398769354 29.528403548192799 20.475118951650053 1 0 0 I I #
coedge $-1 $235 $121 $124 $194 reversed $179 $-1 #
coedge $-1 $121 $235 $185 $239 forward $179 $-1 #
vertex $-1 $122 $243 #
straight-curve $-1 -39.99751635925309 41.521222827339528 69.931824227340257 0 0 1 I I #
straight-curve $-1 -39.99751635925309 -1.2487974356430414 71.696984838221184 0 0.51503806187062418 -0.85716730853699208 I I #
edge $-1 $237 8.9182892358243269 $125 39.99751635925309 $189 $244 forward 7 unknown #
point $-1 -39.99751635925309 41.521222827339528 20.475118951650064 #
point $-1 -39.99751635925309 29.528403548192802 20.47511895165006 #
edge $-1 $245 1 $245 0 $128 $-1 forward 7 unknown #
vertex $-1 $129 $246 #
ellipse-curve $-1 -24.457902797538708 26.940060368082221 5.3371773611682087 0 0.85716730853699208 0.51503806187062418 3 0 0 1 I I #
point $-1 -21.457902797538708 35.524813187766192 10.495417076860299 #
plane-surface $-1 66.176335947752307 0 0 -1 0 0 0 0 1 forward_v I I I I #
coedge $-1 $137 $135 $139 $206 reversed $81 $-1 #
edge $-1 $150 -20.475118951650064 $208 20.475118951650064 $149 $247 forward 7 unknown #
vertex $-1 $206 $248 #
straight-curve $-1 -66.176335947752307 -41.521222827339528 0 0 0 -1 I I #
edge $-1 $204 -41.521222827339528 $208 41.521222827339528 $202 $249 forward 7 unknown #
straight-curve $-1 0 -41.521222827339528 -20.475118951650064 -1 0 0 I I #
vertex $-1 $142 $250 #
straight-curve $-1 0 41.521222827339528 -20.475118951650064 1 0 0 I I #
point $-1 66.176335947752307 41.521222827339528 -20.475118951650064 #
point $-1 66.176335947752307 -41.521222827339528 -20.475118951650064 #
straight-curve $-1 -66.176335947752307 0 20.475118951650064 0 -1 0 I I #
point $-1 -66.176335947752307 41.521222827339528 20.475118951650064 #
point $-1 -66.176335947752307 -41.521222827339528 20.475118951650064 #
straight-curve $-1 66.176335947752307 -41.521222827339528 0 0 0 -1 I I #
straight-curve $-1 66.176335947752307 41.521222827339528 0 0 0 -1 I I #
plane-surface $-1 0 -41.521222827339528 0 0 1 0 0 0 1 forward_v I I I I #
coedge $-1 $251 $231 $163 $220 forward $160 $-1 #
coedge $-1 $221 $162 $171 $229 forward $100 $-1 #
edge $-1 $224 -4.0950862773411867 $222 4.0950862773411885 $163 $252 forward 7 unknown #
coedge $-1 $164 $219 $251 $253 forward $100 $-1 #
vertex $-1 $165 $254 #
straight-curve $-1 -73.535456248614182 41.521222827339528 -17.272796819272287 1 0 0 I I #
vertex $-1 $166 $255 #
straight-curve $-1 -73.535456248614182 41.521222827339528 -9.0826242645899118 -1 0 0 I I #
point $-1 -66.176335947752307 41.521222827339528 -17.272796819272287 #
straight-curve $-1 -66.176335947752307 0 -17.272796819272287 0 1 0 I I #
coedge $-1 $171 $170 $256 $257 forward $172 $-1 #
edge $-1 $173 -7.3591203008618749 $258 7.3591203008618749 $171 $259 forward 7 unknown #
point $-1 -66.176335947752307 -41.521222827339528 -17.272796819272287 #
coedge $-1 $218 $256 $175 $232 reversed $160 $-1 #
edge $-1 $224 -41.521222827339528 $233 41.521222827339528 $231 $260 forward 7 unknown #
vertex $-1 $232 $261 #
straight-curve $-1 -73.535456248614182 -41.521222827339528 -9.0826242645899118 1 0 0 I I #
coedge $-1 $190 $189 $182 $236 forward $179 $-1 #
edge $-1 $237 49.456705275690197 $240 69.416109025269805 $235 $262 forward 7 unknown #
vertex $-1 $194 $263 #
straight-curve $-1 -8.9182892358243269 56.099793055353118 20.47511895165006 0 1 0 I I #
edge $-1 $240 -3.310662162945027 $191 27.768564960483737 $190 $264 forward 7 unknown #
vertex $-1 $239 $265 #
straight-curve $-1 -8.9182892358243269 -1.2487974356430414 71.696984838221184 0 -0.51503806187062418 0.85716730853699208 I I #
point $-1 -8.9182892358243269 29.528403548192802 20.47511895165006 #
point $-1 -39.99751635925309 41.521222827339528 0.51571520207045296 #
straight-curve $-1 0 41.521222827339528 20.475118951650064 -1 0 0 I I #
vertex $-1 $197 $266 #
point $-1 -21.457902797538708 26.940060368082221 5.3371773611682087 #
straight-curve $-1 -66.176335947752307 41.521222827339528 0 0 0 -1 I I #
point $-1 -66.176335947752307 -41.521222827339528 -20.475118951650064 #
straight-curve $-1 -66.176335947752307 0 -20.475118951650064 0 1 0 I I #
point $-1 -66.176335947752307 41.521222827339528 -20.475118951650064 #
coedge $-1 $256 $218 $221 $253 reversed $160 $-1 #
straight-curve $-1 -80.894576549476056 41.521222827339528 -13.177710541931098 0 0 -1 I I #
edge $-1 $258 -41.521222827339528 $222 41.521222827339528 $251 $267 forward 7 unknown #
point $-1 -80.894576549476056 41.521222827339528 -17.272796819272287 #
point $-1 -80.894576549476056 41.521222827339528 -9.0826242645899118 #
coedge $-1 $231 $251 $228 $257 reversed $160 $-1 #
edge $-1 $233 -4.0950862773411867 $258 4.0950862773411885 $256 $268 forward 7 unknown #
vertex $-1 $253 $269 #
straight-curve $-1 -73.535456248614182 -41.521222827339528 -17.272796819272287 -1 0 0 I I #
straight-curve $-1 -80.894576549476056 0 -9.0826242645899118 0 -1 0 I I #
point $-1 -80.894576549476056 -41.521222827339528 -9.0826242645899118 #
straight-curve $-1 -8.9182892358243269 41.521222827339528 69.931824227340257 0 0 -1 I I #
point $-1 -8.9182892358243269 41.521222827339528 20.475118951650064 #
straight-curve $-1 -12.228951398769354 41.521222827339528 0.51571520207044586 -1 0 0 I I #
point $-1 -8.9182892358243269 41.521222827339528 0.51571520207045296 #
point $-1 -24.457902797538708 24.368558442471247 3.7920631755563363 #
straight-curve $-1 -80.894576549476056 0 -17.272796819272287 0 1 0 I I #
straight-curve $-1 -80.894576549476056 -41.521222827339528 -13.177710541931098 0 0 -1 I I #
point $-1 -80.894576549476056 -41.521222827339528 -17.272796819272287 #
End-of-ACIS-data 