500 0 3 0           
7 Unknown 11 ACIS 5.0 NT 24 Fri Mar 26 20:45:00 1999 
-1 9.9999999999999995e-007 1e-010 
body $-1 $3 $-1 $4 #
body $-1 $5 $-1 $6 #
body $-1 $7 $-1 $8 #
lump $-1 $-1 $9 $0 #
transform $-1 1 0 0 0 1 0 0 0 1 60.260628070925016 32.232732627664461 14.056804184173089 1 rotate no_reflect no_shear #
lump $-1 $-1 $10 $1 #
transform $-1 1 0 0 0 1 0 0 0 1 60.260628070925016 32.232732627664461 14.056804184173089 1 rotate no_reflect no_shear #
lump $-1 $-1 $11 $2 #
transform $-1 1 0 0 0 1 0 0 0 1 60.260628070925016 32.232732627664461 14.056804184173089 1 rotate no_reflect no_shear #
shell $-1 $-1 $-1 $12 $-1 $3 #
shell $-1 $-1 $-1 $13 $-1 $5 #
shell $-1 $-1 $-1 $14 $-1 $7 #
face $-1 $15 $16 $9 $-1 $17 forward single #
face $-1 $18 $19 $10 $-1 $20 reversed single #
face $-1 $21 $22 $11 $-1 $23 forward single #
face $-1 $24 $25 $9 $-1 $26 reversed single #
loop $-1 $-1 $27 $12 #
plane-surface $-1 0 0 14.056804184173089 0 0 1 1 0 0 forward_v I I I I #
face $-1 $28 $29 $10 $-1 $30 reversed single #
loop $-1 $-1 $31 $13 #
plane-surface $-1 -40.21519230178324 -132.14938323388117 72.239890223791662 -1 0 0 0 -0.82903758062907751 0.55919289150049634 forward_v I I I I #
face $-1 $32 $33 $11 $-1 $34 forward single #
loop $-1 $35 $36 $14 #
cone-surface $-1 -50.237910186354128 -26.114928221347526 7.419971135674011 0 0.82903758062907751 -0.55919289150049634 2 0 0 1 I I 0 1 2 forward I I I I #
face $-1 $37 $38 $9 $-1 $39 reversed single #
loop $-1 $-1 $40 $15 #
plane-surface $-1 0 0 -14.056804184173089 0 0 1 1 0 0 forward_v I I I I #
coedge $-1 $41 $42 $43 $44 forward $16 $-1 #
face $-1 $45 $46 $10 $-1 $47 forward single #
loop $-1 $-1 $48 $18 #
plane-surface $-1 -50.237910186354128 -32.232732627664475 4.8452605145586034 0 -0.82903758062907751 0.55919289150049634 1 0 0 forward_v I I I I #
coedge $-1 $49 $50 $51 $52 reversed $19 $-1 #
face $-1 $-1 $53 $11 $-1 $54 forward single #
loop $-1 $55 $56 $21 #
cone-surface $-1 -50.237910186354128 -22.274718466854836 4.8297170304816888 0 0.82903758062907751 -0.55919289150049634 1 0 0 1 I I -0.70710678118654746 0.70710678118654746 1 forward I I I I #
loop $-1 $-1 $57 $14 #
coedge $-1 $36 $36 $58 $59 reversed $22 $-1 #
face $-1 $60 $61 $9 $-1 $62 reversed single #
loop $-1 $-1 $63 $24 #
plane-surface $-1 0 -32.232732627664461 0 0 1 0 0 0 1 forward_v I I I I #
coedge $-1 $64 $65 $66 $67 forward $25 $-1 #
coedge $-1 $68 $27 $69 $70 forward $16 $-1 #
coedge $-1 $27 $68 $71 $72 forward $16 $-1 #
coedge $-1 $73 $74 $27 $44 reversed $75 $-1 #
edge $-1 $76 -32.232732627664461 $77 32.232732627664461 $43 $78 forward 7 unknown #
face $-1 $79 $80 $10 $-1 $81 reversed single #
loop $-1 $-1 $51 $28 #
plane-surface $-1 0 0 14.056804184173089 0 0 1 1 0 0 forward_v I I I I #
coedge $-1 $82 $83 $84 $85 reversed $29 $-1 #
coedge $-1 $50 $31 $86 $87 reversed $19 $-1 #
coedge $-1 $31 $49 $82 $88 reversed $19 $-1 #
coedge $-1 $84 $89 $31 $52 forward $46 $-1 #
edge $-1 $90 33.841958989276122 $91 40.055223454182745 $51 $92 forward 7 unknown #
loop $-1 $-1 $58 $32 #
plane-surface $-1 -50.237910186354128 -32.232732627664475 4.8452605145586034 0 -0.82903758062907751 0.55919289150049634 1 0 0 forward_v I I I I #
loop $-1 $-1 $93 $21 #
coedge $-1 $56 $56 $57 $94 reversed $33 $-1 #
coedge $-1 $57 $57 $56 $94 forward $35 $-1 #
coedge $-1 $58 $58 $36 $59 forward $53 $-1 #
edge $-1 $95 -1.8770243084150076e-016 $95 6.2831853071796004 $58 $96 forward 7 unknown #
face $-1 $97 $98 $9 $-1 $99 reversed single #
loop $-1 $-1 $100 $37 #
plane-surface $-1 -60.260628070925016 0 0 1 0 0 0 0 -1 forward_v I I I I #
coedge $-1 $101 $71 $102 $103 forward $38 $-1 #
coedge $-1 $104 $40 $101 $105 forward $25 $-1 #
coedge $-1 $40 $104 $106 $107 forward $25 $-1 #
coedge $-1 $74 $73 $40 $67 reversed $75 $-1 #
edge $-1 $108 -32.232732627664461 $109 32.232732627664461 $66 $110 forward 7 unknown #
coedge $-1 $42 $41 $111 $112 forward $16 $-1 #
coedge $-1 $113 $114 $41 $70 reversed $98 $-1 #
edge $-1 $77 -60.260628070925016 $115 60.260628070925016 $69 $116 forward 7 unknown #
coedge $-1 $63 $117 $42 $72 reversed $38 $-1 #
edge $-1 $118 -60.260628070925016 $76 60.260628070925016 $71 $119 forward 7 unknown #
coedge $-1 $66 $43 $117 $120 forward $75 $-1 #
coedge $-1 $43 $66 $113 $121 reversed $75 $-1 #
loop $-1 $-1 $73 $97 #
vertex $-1 $44 $122 #
vertex $-1 $44 $123 #
straight-curve $-1 60.260628070925016 0 14.056804184173089 0 1 0 I I #
face $-1 $-1 $124 $10 $-1 $125 reversed single #
loop $-1 $-1 $126 $45 #
plane-surface $-1 -60.260628070925016 0 0 1 0 0 0 0 -1 forward_v I I I I #
coedge $-1 $127 $48 $50 $88 forward $29 $-1 #
coedge $-1 $48 $127 $126 $128 reversed $29 $-1 #
coedge $-1 $129 $51 $48 $85 forward $46 $-1 #
edge $-1 $91 15.096237208606176 $130 35.141672977747952 $84 $131 forward 7 unknown #
coedge $-1 $132 $133 $49 $87 forward $124 $-1 #
edge $-1 $134 -31.274684597337206 $90 -22.063140927722742 $86 $135 forward 7 unknown #
edge $-1 $91 -11.111129199504713 $134 -2.5618607856530852e-014 $50 $136 forward 7 unknown #
coedge $-1 $51 $129 $132 $137 forward $46 $-1 #
vertex $-1 $87 $138 #
vertex $-1 $52 $139 #
straight-curve $-1 -40.21519230178324 -66.074691616940584 14.056804184173089 0 1 0 I I #
coedge $-1 $93 $93 $-1 $140 reversed $55 $-1 #
edge $-1 $141 0 $141 6.2831853071796004 $56 $142 forward 7 unknown #
vertex $-1 $59 $143 #
ellipse-curve $-1 -50.237910186354128 -29.126100395211157 9.4510323493658497 0 -0.82903758062907751 0.55919289150049634 2 0 0 1 I I #
face $-1 $-1 $75 $9 $-1 $144 reversed single #
loop $-1 $-1 $113 $60 #
plane-surface $-1 0 32.232732627664461 0 0 -1 0 0 0 -1 forward_v I I I I #
coedge $-1 $145 $111 $114 $146 forward $61 $-1 #
coedge $-1 $117 $63 $64 $105 reversed $38 $-1 #
coedge $-1 $111 $145 $63 $103 reversed $61 $-1 #
edge $-1 $118 -14.056804184173089 $147 14.056804184173089 $102 $148 forward 7 unknown #
coedge $-1 $65 $64 $145 $149 forward $25 $-1 #
edge $-1 $109 -60.260628070925016 $147 60.260628070925016 $101 $150 forward 7 unknown #
coedge $-1 $114 $113 $65 $107 reversed $98 $-1 #
edge $-1 $151 -60.260628070925016 $108 60.260628070925016 $106 $152 forward 7 unknown #
vertex $-1 $67 $153 #
vertex $-1 $120 $154 #
straight-curve $-1 60.260628070925016 0 -14.056804184173089 0 -1 0 I I #
coedge $-1 $100 $102 $68 $112 reversed $61 $-1 #
edge $-1 $115 -32.232732627664461 $118 32.232732627664461 $111 $155 forward 7 unknown #
coedge $-1 $106 $69 $74 $121 forward $98 $-1 #
coedge $-1 $69 $106 $100 $146 reversed $98 $-1 #
vertex $-1 $70 $156 #
straight-curve $-1 0 32.232732627664461 14.056804184173089 -1 0 0 I I #
coedge $-1 $71 $101 $73 $120 reversed $38 $-1 #
vertex $-1 $112 $157 #
straight-curve $-1 0 -32.232732627664461 14.056804184173089 1 0 0 I I #
edge $-1 $76 -14.056804184173089 $109 14.056804184173089 $73 $158 forward 7 unknown #
edge $-1 $77 -14.056804184173089 $108 14.056804184173089 $74 $159 forward 7 unknown #
point $-1 60.260628070925016 -32.232732627664461 14.056804184173089 #
point $-1 60.260628070925016 32.232732627664461 14.056804184173089 #
loop $-1 $-1 $86 $79 #
plane-surface $-1 0 -32.232732627664461 0 0 1 0 0 0 1 forward_v I I I I #
coedge $-1 $160 $161 $83 $128 forward $80 $-1 #
coedge $-1 $83 $82 $133 $162 reversed $29 $-1 #
edge $-1 $130 -4.1074232472453005 $163 7.0037059522593879 $126 $164 forward 7 unknown #
coedge $-1 $89 $84 $161 $165 forward $46 $-1 #
vertex $-1 $165 $166 #
straight-curve $-1 -25.118955093177064 -26.019468162757843 14.056804184173089 -1 0 0 I I #
coedge $-1 $167 $86 $89 $137 reversed $124 $-1 #
coedge $-1 $86 $167 $127 $162 forward $124 $-1 #
vertex $-1 $87 $168 #
straight-curve $-1 -40.21519230178324 -32.232732627664461 36.119945111895831 0 0 1 I I #
straight-curve $-1 -40.21519230178324 -32.232732627664475 4.8452605145586034 0 -0.55919289150049634 -0.82903758062907751 I I #
edge $-1 $169 -60.260628070925016 $90 -40.21519230178324 $132 $170 forward 7 unknown #
point $-1 -40.21519230178324 -32.232732627664461 14.056804184173089 #
point $-1 -40.21519230178324 -26.019468162757839 14.056804184173089 #
edge $-1 $171 1 $171 0 $93 $-1 forward 7 unknown #
vertex $-1 $94 $172 #
ellipse-curve $-1 -50.237910186354128 -23.103756047483913 5.3889099219821848 0 -0.82903758062907751 0.55919289150049634 2 0 0 1 I I #
point $-1 -48.237910186354128 -29.126100395211139 9.4510323493658372 #
plane-surface $-1 60.260628070925016 0 0 -1 0 0 0 0 1 forward_v I I I I #
coedge $-1 $102 $100 $104 $149 reversed $61 $-1 #
edge $-1 $115 -14.056804184173089 $151 14.056804184173089 $114 $173 forward 7 unknown #
vertex $-1 $149 $174 #
straight-curve $-1 -60.260628070925016 -32.232732627664461 0 0 0 -1 I I #
edge $-1 $147 -32.232732627664461 $151 32.232732627664461 $145 $175 forward 7 unknown #
straight-curve $-1 0 -32.232732627664461 -14.056804184173089 -1 0 0 I I #
vertex $-1 $107 $176 #
straight-curve $-1 0 32.232732627664461 -14.056804184173089 1 0 0 I I #
point $-1 60.260628070925016 32.232732627664461 -14.056804184173089 #
point $-1 60.260628070925016 -32.232732627664461 -14.056804184173089 #
straight-curve $-1 -60.260628070925016 0 14.056804184173089 0 -1 0 I I #
point $-1 -60.260628070925016 32.232732627664461 14.056804184173089 #
point $-1 -60.260628070925016 -32.232732627664461 14.056804184173089 #
straight-curve $-1 60.260628070925016 -32.232732627664461 0 0 0 -1 I I #
straight-curve $-1 60.260628070925016 32.232732627664461 0 0 0 -1 I I #
coedge $-1 $161 $126 $167 $177 reversed $80 $-1 #
coedge $-1 $126 $160 $129 $165 reversed $80 $-1 #
edge $-1 $163 -35.141672977747952 $134 -15.096237208606176 $133 $178 forward 7 unknown #
vertex $-1 $128 $179 #
straight-curve $-1 -60.260628070925016 -28.316310045001298 10.651595952657217 0 -0.55919289150049634 -0.82903758062907751 I I #
edge $-1 $130 26.019468162757839 $169 32.232732627664461 $161 $180 forward 7 unknown #
point $-1 -60.260628070925016 -26.019468162757839 14.056804184173089 #
coedge $-1 $133 $132 $160 $177 forward $124 $-1 #
point $-1 -40.21519230178324 -32.232732627664461 4.8452605145586247 #
vertex $-1 $165 $181 #
straight-curve $-1 0 -32.232732627664461 14.056804184173089 1 0 0 I I #
vertex $-1 $140 $182 #
point $-1 -48.237910186354128 -23.103756047483913 5.3889099219821848 #
straight-curve $-1 -60.260628070925016 32.232732627664461 0 0 0 -1 I I #
point $-1 -60.260628070925016 -32.232732627664461 -14.056804184173089 #
straight-curve $-1 -60.260628070925016 0 -14.056804184173089 0 1 0 I I #
point $-1 -60.260628070925016 32.232732627664461 -14.056804184173089 #
edge $-1 $169 -14.056804184173089 $163 -4.8452605145586247 $160 $183 forward 7 unknown #
straight-curve $-1 -25.118955093177064 -32.232732627664461 4.8452605145586238 1 0 0 I I #
point $-1 -60.260628070925016 -32.232732627664461 4.8452605145586247 #
straight-curve $-1 -60.260628070925016 0 14.056804184173089 0 -1 0 I I #
point $-1 -60.260628070925016 -32.232732627664461 14.056804184173089 #
point $-1 -50.237910186354128 -21.445680886225759 4.2705241389811928 #
straight-curve $-1 -60.260628070925016 -32.232732627664461 0 0 0 -1 I I #
End-of-ACIS-data 