500 0 13 0           
7 Unknown 11 ACIS 5.0 NT 24 Fri Mar 26 16:36:28 1999 
-1 9.9999999999999995e-007 1e-010 
body $-1 $13 $-1 $14 #
body $-1 $15 $-1 $16 #
body $-1 $17 $-1 $18 #
body $-1 $19 $-1 $20 #
body $-1 $21 $-1 $22 #
body $-1 $23 $-1 $24 #
body $-1 $25 $-1 $26 #
body $-1 $27 $-1 $28 #
body $-1 $29 $-1 $30 #
body $-1 $31 $-1 $32 #
body $-1 $33 $-1 $34 #
body $-1 $35 $-1 $36 #
body $-1 $37 $-1 $38 #
lump $-1 $-1 $39 $0 #
transform $-1 1 0 0 0 1 0 0 0 1 66.0628070925016 33.232009317475018 9.8426260330565292 1 rotate no_reflect no_shear #
lump $-1 $-1 $40 $1 #
transform $-1 1 0 0 0 1 0 0 0 1 66.0628070925016 33.232009317475018 9.8426260330565292 1 rotate no_reflect no_shear #
lump $-1 $-1 $41 $2 #
transform $-1 1 0 0 0 1 0 0 0 1 66.0628070925016 33.232009317475018 9.8426260330565292 1 rotate no_reflect no_shear #
lump $-1 $-1 $42 $3 #
transform $-1 1 0 0 0 1 0 0 0 1 66.0628070925016 33.232009317475018 9.8426260330565292 1 rotate no_reflect no_shear #
lump $-1 $-1 $43 $4 #
transform $-1 1 0 0 0 1 0 0 0 1 66.0628070925016 33.232009317475018 9.8426260330565292 1 rotate no_reflect no_shear #
lump $-1 $-1 $44 $5 #
transform $-1 1 0 0 0 1 0 0 0 1 66.0628070925016 33.232009317475018 9.8426260330565292 1 rotate no_reflect no_shear #
lump $-1 $-1 $45 $6 #
transform $-1 1 0 0 0 1 0 0 0 1 66.0628070925016 33.232009317475018 9.8426260330565292 1 rotate no_reflect no_shear #
lump $-1 $-1 $46 $7 #
transform $-1 1 0 0 0 1 0 0 0 1 66.0628070925016 33.232009317475018 9.8426260330565292 1 rotate no_reflect no_shear #
lump $-1 $-1 $47 $8 #
transform $-1 1 0 0 0 1 0 0 0 1 66.0628070925016 33.232009317475018 9.8426260330565292 1 rotate no_reflect no_shear #
lump $-1 $-1 $48 $9 #
transform $-1 1 0 0 0 1 0 0 0 1 66.0628070925016 33.232009317475018 9.8426260330565292 1 rotate no_reflect no_shear #
lump $-1 $-1 $49 $10 #
transform $-1 1 0 0 0 1 0 0 0 1 66.0628070925016 33.232009317475018 9.8426260330565292 1 rotate no_reflect no_shear #
lump $-1 $-1 $50 $11 #
transform $-1 1 0 0 0 1 0 0 0 1 66.0628070925016 33.232009317475018 9.8426260330565292 1 rotate no_reflect no_shear #
lump $-1 $-1 $51 $12 #
transform $-1 1 0 0 0 1 0 0 0 1 66.0628070925016 33.232009317475018 9.8426260330565292 1 rotate no_reflect no_shear #
shell $-1 $-1 $-1 $52 $-1 $13 #
shell $-1 $-1 $-1 $53 $-1 $15 #
shell $-1 $-1 $-1 $54 $-1 $17 #
shell $-1 $-1 $-1 $55 $-1 $19 #
shell $-1 $-1 $-1 $56 $-1 $21 #
shell $-1 $-1 $-1 $57 $-1 $23 #
shell $-1 $-1 $-1 $58 $-1 $25 #
shell $-1 $-1 $-1 $59 $-1 $27 #
shell $-1 $-1 $-1 $60 $-1 $29 #
shell $-1 $-1 $-1 $61 $-1 $31 #
shell $-1 $-1 $-1 $62 $-1 $33 #
shell $-1 $-1 $-1 $63 $-1 $35 #
shell $-1 $-1 $-1 $64 $-1 $37 #
face $-1 $65 $66 $39 $-1 $67 forward single #
face $-1 $68 $69 $40 $-1 $70 reversed single #
face $-1 $71 $72 $41 $-1 $73 reversed single #
face $-1 $74 $75 $42 $-1 $76 reversed single #
face $-1 $77 $78 $43 $-1 $79 forward single #
face $-1 $80 $81 $44 $-1 $82 reversed single #
face $-1 $83 $84 $45 $-1 $85 forward single #
face $-1 $86 $87 $46 $-1 $88 forward single #
face $-1 $89 $90 $47 $-1 $91 forward single #
face $-1 $92 $93 $48 $-1 $94 reversed single #
face $-1 $95 $96 $49 $-1 $97 forward single #
face $-1 $98 $99 $50 $-1 $100 forward single #
face $-1 $101 $102 $51 $-1 $103 forward single #
face $-1 $104 $105 $39 $-1 $106 reversed single #
loop $-1 $-1 $107 $52 #
plane-surface $-1 0 0 9.8426260330565292 0 0 1 1 0 0 forward_v I I I I #
face $-1 $108 $109 $40 $-1 $110 reversed single #
loop $-1 $-1 $111 $53 #
plane-surface $-1 -59.62862775508011 -30.232009317475018 0 0 -1 0 0 0 -1 forward_v I I I I #
face $-1 $112 $113 $41 $-1 $114 reversed single #
loop $-1 $-1 $115 $54 #
plane-surface $-1 53.194448417658627 -31.732009317475018 0 1 0 0 0 0 -1 forward_v I I I I #
face $-1 $116 $117 $42 $-1 $118 reversed single #
loop $-1 $-1 $119 $55 #
plane-surface $-1 -9.6822803804654178 114.42414028728038 130.18450612318011 1 0 0 0 -0.86602541151947299 -0.49999998660252726 forward_v I I I I #
face $-1 $120 $121 $43 $-1 $122 forward single #
loop $-1 $123 $124 $56 #
cone-surface $-1 4.4406208314069318 31.601363999533181 7.8076877404253704 0 -0.86602541151947299 -0.49999998660252726 0.5 0 0 1 I I 0 1 0.5 forward I I I I #
face $-1 $125 $126 $44 $-1 $127 reversed single #
loop $-1 $-1 $128 $57 #
plane-surface $-1 -23.942213597271731 -128.27522333350876 92.465443835991991 -1 0 0 0 -0.71933980857756763 0.69465836192734942 forward_v I I I I #
face $-1 $129 $130 $45 $-1 $131 forward single #
loop $-1 $132 $133 $58 #
cone-surface $-1 -38.627628203007376 -27.646753954224639 4.140130669598161 0 0.71933980857756763 -0.69465836192734942 1.5 0 0 1 I I 0 1 1.5 forward I I I I #
face $-1 $134 $135 $46 $-1 $136 forward single #
loop $-1 $137 $138 $59 #
cone-surface $-1 -33.120597725856506 -27.646753954224639 4.140130669598161 0 0.71933980857756763 -0.69465836192734942 1.5 0 0 1 I I 0 1 1.5 forward I I I I #
face $-1 $139 $140 $47 $-1 $141 forward single #
loop $-1 $142 $143 $60 #
cone-surface $-1 -27.613567248705635 -27.646753954224639 4.140130669598161 0 0.71933980857756763 -0.69465836192734942 1.5 0 0 1 I I 0 1 1.5 forward I I I I #
face $-1 $144 $145 $48 $-1 $146 reversed single #
loop $-1 $-1 $147 $61 #
plane-surface $-1 29.252234820386882 -128.27522333350876 92.465443835991991 -1 0 0 0 -0.71933980857756763 0.69465836192734942 forward_v I I I I #
face $-1 $148 $149 $49 $-1 $150 forward single #
loop $-1 $151 $152 $62 #
cone-surface $-1 14.566820214651244 -27.646753954224639 4.140130669598161 0 0.71933980857756763 -0.69465836192734942 1.5 0 0 1 I I 0 1 1.5 forward I I I I #
face $-1 $153 $154 $50 $-1 $155 forward single #
loop $-1 $156 $157 $63 #
cone-surface $-1 20.073850691802107 -27.646753954224639 4.140130669598161 0 0.71933980857756763 -0.69465836192734942 1.5 0 0 1 I I 0 1 1.5 forward I I I I #
face $-1 $158 $159 $51 $-1 $160 forward single #
loop $-1 $161 $162 $64 #
cone-surface $-1 25.580881168952985 -27.646753954224639 4.140130669598161 0 0.71933980857756763 -0.69465836192734942 1.5 0 0 1 I I 0 1 1.5 forward I I I I #
face $-1 $163 $164 $39 $-1 $165 reversed single #
loop $-1 $-1 $166 $65 #
plane-surface $-1 0 0 -9.8426260330565292 0 0 1 1 0 0 forward_v I I I I #
coedge $-1 $167 $168 $169 $170 forward $66 $-1 #
face $-1 $171 $172 $40 $-1 $173 forward single #
loop $-1 $-1 $174 $68 #
plane-surface $-1 -53.19444841765862 -31.732009317475018 0 -1 0 0 0 0 1 forward_v I I I I #
coedge $-1 $175 $176 $177 $178 forward $69 $-1 #
face $-1 $179 $180 $41 $-1 $181 forward single #
loop $-1 $-1 $182 $71 #
plane-surface $-1 59.628627755080117 -30.232009317475018 0 0 -1 0 0 0 -1 forward_v I I I I #
coedge $-1 $183 $184 $185 $186 forward $72 $-1 #
face $-1 $187 $188 $42 $-1 $189 reversed single #
loop $-1 $-1 $190 $74 #
plane-surface $-1 4.4406208314069318 8.9044986850694841e-007 64.121700800827824 0 0.86602541151947299 0.49999998660252726 1 0 0 forward_v I I I I #
coedge $-1 $191 $192 $193 $194 reversed $75 $-1 #
face $-1 $-1 $195 $43 $-1 $196 forward single #
loop $-1 $197 $198 $77 #
cone-surface $-1 4.4406208314069318 30.701197887756429 7.2879766120431917 0 -0.86602541151947299 -0.49999998660252726 0.25 0 0 1 I I -0.70710678118654746 0.70710678118654746 0.25 forward I I I I #
loop $-1 $-1 $199 $56 #
coedge $-1 $124 $124 $200 $201 reversed $78 $-1 #
face $-1 $202 $203 $44 $-1 $204 reversed single #
loop $-1 $-1 $205 $80 #
plane-surface $-1 -33.120597725856506 -33.232009317475004 0.68328111759269916 0 -0.71933980857756763 0.69465836192734942 1 0 0 forward_v I I I I #
coedge $-1 $206 $207 $208 $209 reversed $81 $-1 #
face $-1 $-1 $210 $45 $-1 $211 forward single #
loop $-1 $212 $213 $83 #
cone-surface $-1 -38.627628203007376 -25.944531914295933 2.496313992426181 0 0.71933980857756763 -0.69465836192734942 0.75 0 0 1 I I -0.70710678118654757 0.70710678118654757 0.75 forward I I I I #
loop $-1 $-1 $214 $58 #
coedge $-1 $133 $133 $215 $216 reversed $84 $-1 #
face $-1 $-1 $217 $46 $-1 $218 forward single #
loop $-1 $219 $220 $86 #
cone-surface $-1 -33.120597725856506 -25.944531914295933 2.496313992426181 0 0.71933980857756763 -0.69465836192734942 0.75 0 0 1 I I -0.70710678118654757 0.70710678118654757 0.75 forward I I I I #
loop $-1 $-1 $221 $59 #
coedge $-1 $138 $138 $222 $223 reversed $87 $-1 #
face $-1 $-1 $224 $47 $-1 $225 forward single #
loop $-1 $226 $227 $89 #
cone-surface $-1 -27.613567248705635 -25.944531914295933 2.496313992426181 0 0.71933980857756763 -0.69465836192734942 0.75 0 0 1 I I -0.70710678118654757 0.70710678118654757 0.75 forward I I I I #
loop $-1 $-1 $228 $60 #
coedge $-1 $143 $143 $229 $230 reversed $90 $-1 #
face $-1 $231 $232 $48 $-1 $233 reversed single #
loop $-1 $-1 $234 $92 #
plane-surface $-1 20.073850691802107 -33.232009317475004 0.68328111759269916 0 -0.71933980857756763 0.69465836192734942 1 0 0 forward_v I I I I #
coedge $-1 $235 $236 $237 $238 reversed $93 $-1 #
face $-1 $-1 $239 $49 $-1 $240 forward single #
loop $-1 $241 $242 $95 #
cone-surface $-1 14.566820214651244 -25.944531914295933 2.496313992426181 0 0.71933980857756763 -0.69465836192734942 0.75 0 0 1 I I -0.70710678118654757 0.70710678118654757 0.75 forward I I I I #
loop $-1 $-1 $243 $62 #
coedge $-1 $152 $152 $244 $245 reversed $96 $-1 #
face $-1 $-1 $246 $50 $-1 $247 forward single #
loop $-1 $248 $249 $98 #
cone-surface $-1 20.073850691802107 -25.944531914295933 2.496313992426181 0 0.71933980857756763 -0.69465836192734942 0.75 0 0 1 I I -0.70710678118654757 0.70710678118654757 0.75 forward I I I I #
loop $-1 $-1 $250 $63 #
coedge $-1 $157 $157 $251 $252 reversed $99 $-1 #
face $-1 $-1 $253 $51 $-1 $254 forward single #
loop $-1 $255 $256 $101 #
cone-surface $-1 25.580881168952985 -25.944531914295933 2.496313992426181 0 0.71933980857756763 -0.69465836192734942 0.75 0 0 1 I I -0.70710678118654757 0.70710678118654757 0.75 forward I I I I #
loop $-1 $-1 $257 $64 #
coedge $-1 $162 $162 $258 $259 reversed $102 $-1 #
face $-1 $260 $261 $39 $-1 $262 reversed single #
loop $-1 $-1 $263 $104 #
plane-surface $-1 0 -33.232009317475018 0 0 1 0 0 0 1 forward_v I I I I #
coedge $-1 $264 $265 $266 $267 forward $105 $-1 #
coedge $-1 $268 $107 $269 $270 forward $66 $-1 #
coedge $-1 $107 $268 $271 $272 forward $66 $-1 #
coedge $-1 $273 $274 $107 $170 reversed $275 $-1 #
edge $-1 $276 -33.232009317475018 $277 33.232009317475018 $169 $278 forward 7 unknown #
face $-1 $279 $280 $40 $-1 $281 reversed single #
loop $-1 $-1 $282 $108 #
plane-surface $-1 0 0 9.8426260330565292 0 0 1 1 0 0 forward_v I I I I #
coedge $-1 $283 $284 $285 $286 reversed $109 $-1 #
coedge $-1 $287 $111 $288 $289 reversed $69 $-1 #
coedge $-1 $111 $287 $290 $291 reversed $69 $-1 #
coedge $-1 $284 $283 $111 $178 reversed $109 $-1 #
edge $-1 $292 -9.8426260330565292 $293 9.8426260330565292 $177 $294 forward 7 unknown #
face $-1 $295 $296 $41 $-1 $297 reversed single #
loop $-1 $-1 $298 $112 #
plane-surface $-1 0 0 9.8426260330565292 0 0 1 1 0 0 forward_v I I I I #
coedge $-1 $299 $300 $301 $302 reversed $113 $-1 #
coedge $-1 $303 $115 $304 $305 reversed $72 $-1 #
coedge $-1 $115 $303 $306 $307 reversed $72 $-1 #
coedge $-1 $300 $299 $115 $186 reversed $113 $-1 #
edge $-1 $308 -9.8426260330565292 $309 9.8426260330565292 $185 $310 forward 7 unknown #
face $-1 $311 $312 $42 $-1 $313 reversed single #
loop $-1 $-1 $314 $116 #
plane-surface $-1 18.563522043279281 114.42414028728038 130.18450612318011 -1 0 0 0 0.86602541151947299 0.49999998660252726 forward_v I I I I #
coedge $-1 $315 $316 $317 $318 reversed $117 $-1 #
coedge $-1 $192 $119 $319 $320 reversed $75 $-1 #
coedge $-1 $119 $191 $315 $321 reversed $75 $-1 #
coedge $-1 $317 $322 $119 $194 forward $323 $-1 #
edge $-1 $324 23.980060826165172 $325 25.874031944255101 $193 $326 forward 7 unknown #
loop $-1 $-1 $200 $120 #
plane-surface $-1 4.4406208314069318 8.9044986850694841e-007 64.121700800827824 0 0.86602541151947299 0.49999998660252726 1 0 0 forward_v I I I I #
loop $-1 $-1 $327 $77 #
coedge $-1 $198 $198 $199 $328 reversed $121 $-1 #
coedge $-1 $199 $199 $198 $328 forward $123 $-1 #
coedge $-1 $200 $200 $124 $201 forward $195 $-1 #
edge $-1 $329 1.9038930316466688e-015 $329 6.2831853071796022 $200 $330 forward 7 unknown #
face $-1 $331 $332 $44 $-1 $333 forward single #
loop $-1 $-1 $334 $125 #
plane-surface $-1 -42.29898185444128 -128.27522333350876 92.465443835991991 1 0 0 0 0.71933980857756763 -0.69465836192734942 forward_v I I I I #
coedge $-1 $335 $336 $337 $338 reversed $126 $-1 #
coedge $-1 $207 $128 $339 $340 reversed $81 $-1 #
coedge $-1 $128 $206 $335 $341 reversed $81 $-1 #
coedge $-1 $337 $342 $128 $209 forward $332 $-1 #
edge $-1 $343 30.905602349279363 $344 39.75067870878911 $208 $345 forward 7 unknown #
loop $-1 $-1 $215 $129 #
plane-surface $-1 -33.120597725856506 -33.232009317475004 0.68328111759269916 0 -0.71933980857756763 0.69465836192734942 1 0 0 forward_v I I I I #
loop $-1 $-1 $346 $83 #
coedge $-1 $213 $213 $214 $347 reversed $130 $-1 #
coedge $-1 $214 $214 $213 $347 forward $132 $-1 #
coedge $-1 $215 $215 $133 $216 forward $210 $-1 #
edge $-1 $348 1.2026139117203464e-015 $348 6.2831853071796013 $215 $349 forward 7 unknown #
loop $-1 $-1 $222 $134 #
plane-surface $-1 -33.120597725856506 -33.232009317475004 0.68328111759269916 0 -0.71933980857756763 0.69465836192734942 1 0 0 forward_v I I I I #
loop $-1 $-1 $350 $86 #
coedge $-1 $220 $220 $221 $351 reversed $135 $-1 #
coedge $-1 $221 $221 $220 $351 forward $137 $-1 #
coedge $-1 $222 $222 $138 $223 forward $217 $-1 #
edge $-1 $352 1.2026139117203464e-015 $352 6.2831853071796013 $222 $353 forward 7 unknown #
loop $-1 $-1 $229 $139 #
plane-surface $-1 -33.120597725856506 -33.232009317475004 0.68328111759269916 0 -0.71933980857756763 0.69465836192734942 1 0 0 forward_v I I I I #
loop $-1 $-1 $354 $89 #
coedge $-1 $227 $227 $228 $355 reversed $140 $-1 #
coedge $-1 $228 $228 $227 $355 forward $142 $-1 #
coedge $-1 $229 $229 $143 $230 forward $224 $-1 #
edge $-1 $356 1.2026139117203464e-015 $356 6.2831853071796013 $229 $357 forward 7 unknown #
face $-1 $358 $359 $48 $-1 $360 reversed single #
loop $-1 $-1 $361 $144 #
plane-surface $-1 10.895466563217331 -128.27522333350876 92.465443835991991 1 0 0 0 0.71933980857756763 -0.69465836192734942 forward_v I I I I #
coedge $-1 $362 $363 $364 $365 reversed $145 $-1 #
coedge $-1 $236 $147 $366 $367 reversed $93 $-1 #
coedge $-1 $147 $235 $362 $368 reversed $93 $-1 #
coedge $-1 $364 $369 $147 $238 forward $370 $-1 #
edge $-1 $371 30.905602349279363 $372 39.75067870878911 $237 $373 forward 7 unknown #
loop $-1 $-1 $244 $148 #
plane-surface $-1 20.073850691802107 -33.232009317475004 0.68328111759269916 0 -0.71933980857756763 0.69465836192734942 1 0 0 forward_v I I I I #
loop $-1 $-1 $374 $95 #
coedge $-1 $242 $242 $243 $375 reversed $149 $-1 #
coedge $-1 $243 $243 $242 $375 forward $151 $-1 #
coedge $-1 $244 $244 $152 $245 forward $239 $-1 #
edge $-1 $376 1.2026139117203464e-015 $376 6.2831853071796013 $244 $377 forward 7 unknown #
loop $-1 $-1 $251 $153 #
plane-surface $-1 20.073850691802107 -33.232009317475004 0.68328111759269916 0 -0.71933980857756763 0.69465836192734942 1 0 0 forward_v I I I I #
loop $-1 $-1 $378 $98 #
coedge $-1 $249 $249 $250 $379 reversed $154 $-1 #
coedge $-1 $250 $250 $249 $379 forward $156 $-1 #
coedge $-1 $251 $251 $157 $252 forward $246 $-1 #
edge $-1 $380 1.2026139117203464e-015 $380 6.2831853071796013 $251 $381 forward 7 unknown #
loop $-1 $-1 $258 $158 #
plane-surface $-1 20.073850691802107 -33.232009317475004 0.68328111759269916 0 -0.71933980857756763 0.69465836192734942 1 0 0 forward_v I I I I #
loop $-1 $-1 $382 $101 #
coedge $-1 $256 $256 $257 $383 reversed $159 $-1 #
coedge $-1 $257 $257 $256 $383 forward $161 $-1 #
coedge $-1 $258 $258 $162 $259 forward $253 $-1 #
edge $-1 $384 1.2026139117203464e-015 $384 6.2831853071796013 $258 $385 forward 7 unknown #
face $-1 $386 $387 $39 $-1 $388 reversed single #
loop $-1 $-1 $389 $163 #
plane-surface $-1 -66.0628070925016 0 0 1 0 0 0 0 -1 forward_v I I I I #
coedge $-1 $390 $271 $391 $392 forward $164 $-1 #
coedge $-1 $393 $166 $390 $394 forward $105 $-1 #
coedge $-1 $166 $393 $395 $396 forward $105 $-1 #
coedge $-1 $274 $273 $166 $267 reversed $275 $-1 #
edge $-1 $397 -33.232009317475018 $398 33.232009317475018 $266 $399 forward 7 unknown #
coedge $-1 $168 $167 $400 $401 forward $66 $-1 #
coedge $-1 $402 $403 $167 $270 reversed $387 $-1 #
edge $-1 $277 -66.0628070925016 $404 66.0628070925016 $269 $405 forward 7 unknown #
coedge $-1 $263 $406 $168 $272 reversed $164 $-1 #
edge $-1 $407 -66.0628070925016 $276 66.0628070925016 $271 $408 forward 7 unknown #
coedge $-1 $266 $169 $406 $409 forward $275 $-1 #
coedge $-1 $169 $266 $402 $410 reversed $275 $-1 #
loop $-1 $-1 $273 $386 #
vertex $-1 $170 $411 #
vertex $-1 $170 $412 #
straight-curve $-1 66.0628070925016 0 9.8426260330565292 0 1 0 I I #
face $-1 $413 $414 $40 $-1 $415 reversed single #
loop $-1 $-1 $416 $171 #
plane-surface $-1 -66.0628070925016 0 0 1 0 0 0 0 -1 forward_v I I I I #
coedge $-1 $290 $417 $284 $418 forward $172 $-1 #
coedge $-1 $177 $174 $419 $420 reversed $109 $-1 #
coedge $-1 $174 $177 $282 $418 reversed $109 $-1 #
coedge $-1 $421 $422 $174 $286 forward $423 $-1 #
edge $-1 $424 -9.8426260330565292 $425 9.8426260330565292 $285 $426 forward 7 unknown #
coedge $-1 $176 $175 $416 $427 reversed $69 $-1 #
coedge $-1 $419 $428 $175 $289 forward $414 $-1 #
edge $-1 $429 -36.248493214961542 $293 -23.380134540118565 $288 $430 forward 7 unknown #
coedge $-1 $431 $282 $176 $291 forward $172 $-1 #
edge $-1 $292 23.380134540118565 $432 36.248493214961542 $290 $433 forward 7 unknown #
vertex $-1 $291 $434 #
vertex $-1 $289 $435 #
straight-curve $-1 -53.19444841765862 -30.232009317475018 0 0 0 -1 I I #
face $-1 $436 $437 $41 $-1 $438 reversed single #
loop $-1 $-1 $439 $179 #
plane-surface $-1 0 -33.232009317475018 0 0 1 0 0 0 1 forward_v I I I I #
coedge $-1 $306 $440 $300 $441 forward $180 $-1 #
coedge $-1 $185 $182 $442 $443 reversed $113 $-1 #
coedge $-1 $182 $185 $298 $441 reversed $113 $-1 #
coedge $-1 $444 $445 $182 $302 forward $446 $-1 #
edge $-1 $447 -9.8426260330565292 $448 9.8426260330565292 $301 $449 forward 7 unknown #
coedge $-1 $184 $183 $439 $450 reversed $72 $-1 #
coedge $-1 $442 $451 $183 $305 forward $437 $-1 #
edge $-1 $452 -17.366004658737509 $309 -14.366004658737509 $304 $453 forward 7 unknown #
coedge $-1 $454 $298 $184 $307 forward $180 $-1 #
edge $-1 $308 14.366004658737509 $455 17.366004658737509 $306 $456 forward 7 unknown #
vertex $-1 $307 $457 #
vertex $-1 $305 $458 #
straight-curve $-1 53.194448417658627 -30.232009317475018 0 0 0 -1 I I #
face $-1 $-1 $323 $42 $-1 $459 forward single #
loop $-1 $-1 $460 $187 #
plane-surface $-1 0 33.232009317475018 0 0 -1 0 0 0 -1 forward_v I I I I #
coedge $-1 $461 $462 $463 $464 reversed $188 $-1 #
coedge $-1 $465 $190 $192 $321 forward $117 $-1 #
coedge $-1 $190 $465 $461 $466 forward $117 $-1 #
coedge $-1 $463 $193 $190 $318 forward $323 $-1 #
edge $-1 $325 -11.902590796168884 $467 16.343211627575815 $317 $468 forward 7 unknown #
coedge $-1 $469 $470 $191 $320 forward $312 $-1 #
edge $-1 $471 -58.530081350332772 $324 -55.249627028533524 $319 $472 forward 7 unknown #
edge $-1 $325 62.676076297272488 $471 66.464018634950051 $192 $473 forward 7 unknown #
coedge $-1 $193 $463 $469 $474 forward $323 $-1 #
loop $-1 $-1 $463 $311 #
vertex $-1 $320 $475 #
vertex $-1 $194 $476 #
straight-curve $-1 -9.6822803804654178 57.21207014364019 9.8426260330565327 0 -1 0 I I #
coedge $-1 $327 $327 $-1 $477 reversed $197 $-1 #
edge $-1 $478 0 $478 6.2831853071796004 $198 $479 forward 7 unknown #
vertex $-1 $201 $480 #
ellipse-curve $-1 4.4406208314069318 32.28502375843005 8.202398872156909 0 0.86602541151947299 0.49999998660252726 0.5 0 0 1 I I #
face $-1 $-1 $481 $44 $-1 $482 reversed single #
loop $-1 $-1 $208 $202 #
plane-surface $-1 0 0 9.8426260330565292 0 0 1 1 0 0 forward_v I I I I #
coedge $-1 $483 $484 $485 $486 reversed $203 $-1 #
coedge $-1 $487 $205 $207 $341 forward $126 $-1 #
coedge $-1 $205 $487 $483 $488 forward $126 $-1 #
coedge $-1 $485 $208 $205 $338 forward $332 $-1 #
edge $-1 $344 7.3819147343434786 $489 25.738682991513027 $337 $490 forward 7 unknown #
coedge $-1 $491 $492 $206 $340 forward $481 $-1 #
edge $-1 $493 -45.54944080040331 $343 -36.39009588493947 $339 $494 forward 7 unknown #
edge $-1 $344 -12.732987673205024 $493 2.0493436377612941e-014 $207 $495 forward 7 unknown #
coedge $-1 $208 $485 $491 $496 forward $332 $-1 #
vertex $-1 $340 $497 #
vertex $-1 $209 $498 #
straight-curve $-1 -23.942213597271731 -64.137611666754381 9.8426260330565327 0 1 0 I I #
coedge $-1 $346 $346 $-1 $499 reversed $212 $-1 #
edge $-1 $500 0 $500 6.2831853071796004 $213 $501 forward 7 unknown #
vertex $-1 $216 $502 #
ellipse-curve $-1 -38.627628203007376 -28.809471137720145 5.2629535753246062 0 -0.71933980857756763 0.69465836192734942 1.5 0 0 1 I I #
coedge $-1 $350 $350 $-1 $503 reversed $219 $-1 #
edge $-1 $504 0 $504 6.2831853071796004 $220 $505 forward 7 unknown #
vertex $-1 $223 $506 #
ellipse-curve $-1 -33.120597725856506 -28.809471137720145 5.2629535753246062 0 -0.71933980857756763 0.69465836192734942 1.5 0 0 1 I I #
coedge $-1 $354 $354 $-1 $507 reversed $226 $-1 #
edge $-1 $508 0 $508 6.2831853071796004 $227 $509 forward 7 unknown #
vertex $-1 $230 $510 #
ellipse-curve $-1 -27.613567248705635 -28.809471137720145 5.2629535753246062 0 -0.71933980857756763 0.69465836192734942 1.5 0 0 1 I I #
face $-1 $-1 $370 $48 $-1 $511 forward single #
loop $-1 $-1 $512 $231 #
plane-surface $-1 0 -33.232009317475018 0 0 1 0 0 0 1 forward_v I I I I #
coedge $-1 $513 $514 $515 $516 reversed $232 $-1 #
coedge $-1 $517 $234 $236 $368 forward $145 $-1 #
coedge $-1 $234 $517 $513 $518 forward $145 $-1 #
coedge $-1 $515 $237 $234 $365 forward $370 $-1 #
edge $-1 $372 -19.215309474485828 $519 -0.85854121731627764 $364 $520 forward 7 unknown #
coedge $-1 $521 $522 $235 $367 forward $359 $-1 #
edge $-1 $523 -45.54944080040331 $371 -36.39009588493947 $366 $524 forward 7 unknown #
edge $-1 $372 -12.732987673205024 $523 2.0493436377612941e-014 $236 $525 forward 7 unknown #
coedge $-1 $237 $515 $521 $526 forward $370 $-1 #
loop $-1 $-1 $515 $358 #
vertex $-1 $367 $527 #
vertex $-1 $238 $528 #
straight-curve $-1 29.252234820386882 -64.137611666754381 9.8426260330565327 0 1 0 I I #
coedge $-1 $374 $374 $-1 $529 reversed $241 $-1 #
edge $-1 $530 0 $530 6.2831853071796004 $242 $531 forward 7 unknown #
vertex $-1 $245 $532 #
ellipse-curve $-1 14.566820214651244 -28.809471137720145 5.2629535753246062 0 -0.71933980857756763 0.69465836192734942 1.5 0 0 1 I I #
coedge $-1 $378 $378 $-1 $533 reversed $248 $-1 #
edge $-1 $534 0 $534 6.2831853071796004 $249 $535 forward 7 unknown #
vertex $-1 $252 $536 #
ellipse-curve $-1 20.073850691802107 -28.809471137720145 5.2629535753246062 0 -0.71933980857756763 0.69465836192734942 1.5 0 0 1 I I #
coedge $-1 $382 $382 $-1 $537 reversed $255 $-1 #
edge $-1 $538 0 $538 6.2831853071796004 $256 $539 forward 7 unknown #
vertex $-1 $259 $540 #
ellipse-curve $-1 25.580881168952985 -28.809471137720145 5.2629535753246062 0 -0.71933980857756763 0.69465836192734942 1.5 0 0 1 I I #
face $-1 $-1 $275 $39 $-1 $541 reversed single #
loop $-1 $-1 $402 $260 #
plane-surface $-1 0 33.232009317475018 0 0 -1 0 0 0 -1 forward_v I I I I #
coedge $-1 $542 $400 $403 $543 forward $261 $-1 #
coedge $-1 $406 $263 $264 $394 reversed $164 $-1 #
coedge $-1 $400 $542 $263 $392 reversed $261 $-1 #
edge $-1 $407 -9.8426260330565292 $544 9.8426260330565292 $391 $545 forward 7 unknown #
coedge $-1 $265 $264 $542 $546 forward $105 $-1 #
edge $-1 $398 -66.0628070925016 $544 66.0628070925016 $390 $547 forward 7 unknown #
coedge $-1 $403 $402 $265 $396 reversed $387 $-1 #
edge $-1 $548 -66.0628070925016 $397 66.0628070925016 $395 $549 forward 7 unknown #
vertex $-1 $267 $550 #
vertex $-1 $409 $551 #
straight-curve $-1 66.0628070925016 0 -9.8426260330565292 0 -1 0 I I #
coedge $-1 $389 $391 $268 $401 reversed $261 $-1 #
edge $-1 $404 -33.232009317475018 $407 33.232009317475018 $400 $552 forward 7 unknown #
coedge $-1 $395 $269 $274 $410 forward $387 $-1 #
coedge $-1 $269 $395 $389 $543 reversed $387 $-1 #
vertex $-1 $270 $553 #
straight-curve $-1 0 33.232009317475018 9.8426260330565292 -1 0 0 I I #
coedge $-1 $271 $390 $273 $409 reversed $164 $-1 #
vertex $-1 $401 $554 #
straight-curve $-1 0 -33.232009317475018 9.8426260330565292 1 0 0 I I #
edge $-1 $276 -9.8426260330565292 $398 9.8426260330565292 $273 $555 forward 7 unknown #
edge $-1 $277 -9.8426260330565292 $397 9.8426260330565292 $274 $556 forward 7 unknown #
point $-1 66.0628070925016 -33.232009317475018 9.8426260330565292 #
point $-1 66.0628070925016 33.232009317475018 9.8426260330565292 #
face $-1 $-1 $423 $40 $-1 $557 reversed single #
loop $-1 $-1 $419 $279 #
plane-surface $-1 0 0 -9.8426260330565292 0 0 1 1 0 0 forward_v I I I I #
coedge $-1 $558 $559 $287 $427 forward $280 $-1 #
coedge $-1 $282 $431 $421 $560 forward $172 $-1 #
edge $-1 $425 -17.366004658737509 $292 -14.366004658737509 $282 $561 forward 7 unknown #
coedge $-1 $562 $288 $283 $420 forward $414 $-1 #
edge $-1 $293 14.366004658737509 $424 17.366004658737509 $419 $563 forward 7 unknown #
coedge $-1 $564 $285 $417 $560 reversed $423 $-1 #
coedge $-1 $285 $564 $562 $565 reversed $423 $-1 #
loop $-1 $-1 $285 $413 #
vertex $-1 $565 $566 #
vertex $-1 $286 $567 #
straight-curve $-1 -53.19444841765862 -33.232009317475018 0 0 0 1 I I #
edge $-1 $432 -9.8426260330565292 $429 9.8426260330565292 $416 $568 forward 7 unknown #
coedge $-1 $288 $562 $558 $569 forward $414 $-1 #
vertex $-1 $289 $570 #
straight-curve $-1 -29.814313877540055 -30.232009317475018 -9.8426260330565292 1 0 0 I I #
coedge $-1 $417 $290 $559 $571 forward $172 $-1 #
vertex $-1 $571 $572 #
straight-curve $-1 -29.814313877540055 -30.232009317475018 9.8426260330565292 -1 0 0 I I #
point $-1 -53.19444841765862 -30.232009317475018 9.8426260330565292 #
point $-1 -53.19444841765862 -30.232009317475018 -9.8426260330565292 #
face $-1 $-1 $446 $41 $-1 $573 reversed single #
loop $-1 $-1 $442 $295 #
plane-surface $-1 0 0 -9.8426260330565292 0 0 1 1 0 0 forward_v I I I I #
coedge $-1 $574 $575 $303 $450 forward $296 $-1 #
coedge $-1 $298 $454 $444 $576 forward $180 $-1 #
edge $-1 $448 -36.248493214961542 $308 -23.380134540118569 $298 $577 forward 7 unknown #
coedge $-1 $578 $304 $299 $443 forward $437 $-1 #
edge $-1 $309 23.380134540118569 $447 36.248493214961542 $442 $579 forward 7 unknown #
coedge $-1 $580 $301 $440 $576 reversed $446 $-1 #
coedge $-1 $301 $580 $578 $581 reversed $446 $-1 #
loop $-1 $-1 $301 $436 #
vertex $-1 $581 $582 #
vertex $-1 $302 $583 #
straight-curve $-1 66.0628070925016 -30.232009317475018 0 0 0 1 I I #
edge $-1 $455 -9.8426260330565292 $452 9.8426260330565292 $439 $584 forward 7 unknown #
coedge $-1 $304 $578 $574 $585 forward $437 $-1 #
vertex $-1 $305 $586 #
straight-curve $-1 53.194448417658627 -15.866004658737509 -9.8426260330565292 0 1 0 I I #
coedge $-1 $440 $306 $575 $587 forward $180 $-1 #
vertex $-1 $587 $588 #
straight-curve $-1 53.194448417658627 -15.866004658737509 9.8426260330565292 0 -1 0 I I #
point $-1 53.194448417658627 -30.232009317475018 9.8426260330565292 #
point $-1 53.194448417658627 -30.232009317475018 -9.8426260330565292 #
plane-surface $-1 0 0 9.8426260330565292 0 0 1 1 0 0 forward_v I I I I #
coedge $-1 $470 $469 $462 $589 forward $312 $-1 #
coedge $-1 $462 $314 $316 $466 reversed $188 $-1 #
coedge $-1 $314 $461 $460 $589 reversed $188 $-1 #
coedge $-1 $322 $317 $314 $464 forward $323 $-1 #
edge $-1 $467 -25.874031944255101 $590 -23.980060826165172 $463 $591 forward 7 unknown #
coedge $-1 $316 $315 $470 $592 reversed $117 $-1 #
edge $-1 $593 -66.464018634950051 $467 -62.676076297272488 $461 $594 forward 7 unknown #
vertex $-1 $318 $595 #
straight-curve $-1 2.2203104157034659 31.338038199385089 9.8426260330565256 1 0 0 I I #
coedge $-1 $460 $319 $322 $474 reversed $312 $-1 #
coedge $-1 $319 $460 $465 $592 forward $312 $-1 #
vertex $-1 $320 $596 #
straight-curve $-1 -9.6822803804654178 33.232009317475018 65.092253061590057 0 0 1 I I #
straight-curve $-1 -9.6822803804654178 8.9044986850694841e-007 64.121700800827824 0 0.49999998660252726 -0.86602541151947299 I I #
edge $-1 $590 -18.563522043279281 $324 9.6822803804654178 $469 $597 forward 7 unknown #
point $-1 -9.6822803804654178 33.232009317475018 9.8426260330565292 #
point $-1 -9.6822803804654178 31.338038199385089 9.8426260330565327 #
edge $-1 $598 1 $598 0 $327 $-1 forward 7 unknown #
vertex $-1 $328 $599 #
ellipse-curve $-1 4.4406208314069318 30.917704240636297 7.4129766086938238 0 0.86602541151947299 0.49999998660252726 0.5 0 0 1 I I #
point $-1 4.9406208314069318 32.285023758430064 8.2023988721569161 #
loop $-1 $-1 $339 $331 #
plane-surface $-1 0 -33.232009317475018 0 0 1 0 0 0 1 forward_v I I I I #
coedge $-1 $484 $334 $336 $488 reversed $203 $-1 #
coedge $-1 $334 $483 $600 $601 reversed $203 $-1 #
coedge $-1 $342 $337 $334 $486 forward $332 $-1 #
edge $-1 $489 -39.75067870878911 $602 -30.905602349279363 $485 $603 forward 7 unknown #
coedge $-1 $336 $335 $492 $604 reversed $126 $-1 #
edge $-1 $605 -2.0493436377612941e-014 $489 12.732987673205024 $483 $606 forward 7 unknown #
vertex $-1 $338 $607 #
straight-curve $-1 -16.560298862928253 -24.386932957965271 9.8426260330565292 -1 0 0 I I #
coedge $-1 $600 $339 $342 $496 reversed $481 $-1 #
coedge $-1 $339 $600 $487 $604 forward $481 $-1 #
vertex $-1 $340 $608 #
straight-curve $-1 -23.942213597271731 -33.232009317475018 46.232721917995995 0 0 1 I I #
straight-curve $-1 -23.942213597271731 -33.232009317475004 0.68328111759269916 0 -0.69465836192734942 -0.71933980857756763 I I #
edge $-1 $602 -42.29898185444128 $343 -23.942213597271731 $491 $609 forward 7 unknown #
point $-1 -23.942213597271731 -33.232009317475018 9.8426260330565292 #
point $-1 -23.942213597271731 -24.386932957965271 9.8426260330565292 #
edge $-1 $610 1 $610 0 $346 $-1 forward 7 unknown #
vertex $-1 $347 $611 #
ellipse-curve $-1 -38.627628203007376 -26.484036770729109 3.0173077638716932 0 -0.71933980857756763 0.69465836192734942 1.5 0 0 1 I I #
point $-1 -37.127628203007376 -28.809471137720166 5.2629535753246293 #
edge $-1 $612 1 $612 0 $350 $-1 forward 7 unknown #
vertex $-1 $351 $613 #
ellipse-curve $-1 -33.120597725856506 -26.484036770729109 3.0173077638716932 0 -0.71933980857756763 0.69465836192734942 1.5 0 0 1 I I #
point $-1 -31.620597725856506 -28.809471137720166 5.2629535753246293 #
edge $-1 $614 1 $614 0 $354 $-1 forward 7 unknown #
vertex $-1 $355 $615 #
ellipse-curve $-1 -27.613567248705635 -26.484036770729109 3.0173077638716932 0 -0.71933980857756763 0.69465836192734942 1.5 0 0 1 I I #
point $-1 -26.113567248705635 -28.809471137720166 5.2629535753246293 #
plane-surface $-1 0 0 9.8426260330565292 0 0 1 1 0 0 forward_v I I I I #
coedge $-1 $522 $521 $514 $616 forward $359 $-1 #
coedge $-1 $514 $361 $363 $518 reversed $232 $-1 #
coedge $-1 $361 $513 $512 $616 reversed $232 $-1 #
coedge $-1 $369 $364 $361 $516 forward $370 $-1 #
edge $-1 $519 -39.75067870878911 $617 -30.905602349279363 $515 $618 forward 7 unknown #
coedge $-1 $363 $362 $522 $619 reversed $145 $-1 #
edge $-1 $620 -2.0493436377612941e-014 $519 12.732987673205024 $513 $621 forward 7 unknown #
vertex $-1 $365 $622 #
straight-curve $-1 10.036925345901054 -24.386932957965271 9.8426260330565292 -1 0 0 I I #
coedge $-1 $512 $366 $369 $526 reversed $359 $-1 #
coedge $-1 $366 $512 $517 $619 forward $359 $-1 #
vertex $-1 $367 $623 #
straight-curve $-1 29.252234820386882 -33.232009317475018 46.232721917995995 0 0 1 I I #
straight-curve $-1 29.252234820386882 -33.232009317475004 0.68328111759269916 0 -0.69465836192734942 -0.71933980857756763 I I #
edge $-1 $617 10.895466563217331 $371 29.252234820386882 $521 $624 forward 7 unknown #
point $-1 29.252234820386882 -33.232009317475018 9.8426260330565292 #
point $-1 29.252234820386882 -24.386932957965271 9.8426260330565292 #
edge $-1 $625 1 $625 0 $374 $-1 forward 7 unknown #
vertex $-1 $375 $626 #
ellipse-curve $-1 14.566820214651244 -26.484036770729109 3.0173077638716932 0 -0.71933980857756763 0.69465836192734942 1.5 0 0 1 I I #
point $-1 16.066820214651244 -28.809471137720166 5.2629535753246293 #
edge $-1 $627 1 $627 0 $378 $-1 forward 7 unknown #
vertex $-1 $379 $628 #
ellipse-curve $-1 20.073850691802107 -26.484036770729109 3.0173077638716932 0 -0.71933980857756763 0.69465836192734942 1.5 0 0 1 I I #
point $-1 21.573850691802107 -28.809471137720166 5.2629535753246293 #
edge $-1 $629 1 $629 0 $382 $-1 forward 7 unknown #
vertex $-1 $383 $630 #
ellipse-curve $-1 25.580881168952985 -26.484036770729109 3.0173077638716932 0 -0.71933980857756763 0.69465836192734942 1.5 0 0 1 I I #
point $-1 27.080881168952985 -28.809471137720166 5.2629535753246293 #
plane-surface $-1 66.0628070925016 0 0 -1 0 0 0 0 1 forward_v I I I I #
coedge $-1 $391 $389 $393 $546 reversed $261 $-1 #
edge $-1 $404 -9.8426260330565292 $548 9.8426260330565292 $403 $631 forward 7 unknown #
vertex $-1 $546 $632 #
straight-curve $-1 -66.0628070925016 -33.232009317475018 0 0 0 -1 I I #
edge $-1 $544 -33.232009317475018 $548 33.232009317475018 $542 $633 forward 7 unknown #
straight-curve $-1 0 -33.232009317475018 -9.8426260330565292 -1 0 0 I I #
vertex $-1 $396 $634 #
straight-curve $-1 0 33.232009317475018 -9.8426260330565292 1 0 0 I I #
point $-1 66.0628070925016 33.232009317475018 -9.8426260330565292 #
point $-1 66.0628070925016 -33.232009317475018 -9.8426260330565292 #
straight-curve $-1 -66.0628070925016 0 9.8426260330565292 0 -1 0 I I #
point $-1 -66.0628070925016 33.232009317475018 9.8426260330565292 #
point $-1 -66.0628070925016 -33.232009317475018 9.8426260330565292 #
straight-curve $-1 66.0628070925016 -33.232009317475018 0 0 0 -1 I I #
straight-curve $-1 66.0628070925016 33.232009317475018 0 0 0 -1 I I #
plane-surface $-1 0 -33.232009317475018 0 0 1 0 0 0 1 forward_v I I I I #
coedge $-1 $635 $416 $428 $569 reversed $280 $-1 #
coedge $-1 $416 $635 $431 $571 reversed $280 $-1 #
edge $-1 $636 -66.0628070925016 $425 -53.19444841765862 $421 $637 forward 7 unknown #
straight-curve $-1 -53.19444841765862 -15.866004658737509 9.8426260330565292 0 1 0 I I #
coedge $-1 $428 $419 $422 $565 forward $414 $-1 #
straight-curve $-1 -53.19444841765862 -15.866004658737509 -9.8426260330565292 0 -1 0 I I #
coedge $-1 $422 $421 $635 $638 forward $423 $-1 #
edge $-1 $424 53.19444841765862 $639 66.0628070925016 $422 $640 forward 7 unknown #
point $-1 -53.19444841765862 -33.232009317475018 -9.8426260330565292 #
point $-1 -53.19444841765862 -33.232009317475018 9.8426260330565292 #
straight-curve $-1 -66.0628070925016 -30.232009317475018 0 0 0 -1 I I #
edge $-1 $639 -33.232009317475018 $429 -30.232009317475018 $558 $641 forward 7 unknown #
point $-1 -66.0628070925016 -30.232009317475018 -9.8426260330565292 #
edge $-1 $432 30.232009317475018 $636 33.232009317475018 $559 $642 forward 7 unknown #
point $-1 -66.0628070925016 -30.232009317475018 9.8426260330565292 #
plane-surface $-1 66.0628070925016 0 0 -1 0 0 0 0 1 forward_v I I I I #
coedge $-1 $643 $439 $451 $585 reversed $296 $-1 #
coedge $-1 $439 $643 $454 $587 reversed $296 $-1 #
edge $-1 $644 -33.232009317475018 $448 -30.232009317475018 $444 $645 forward 7 unknown #
straight-curve $-1 29.814313877540059 -30.232009317475018 9.8426260330565292 -1 0 0 I I #
coedge $-1 $451 $442 $445 $581 forward $437 $-1 #
straight-curve $-1 29.814313877540059 -30.232009317475018 -9.8426260330565292 1 0 0 I I #
coedge $-1 $445 $444 $643 $646 forward $446 $-1 #
edge $-1 $447 30.232009317475018 $647 33.232009317475018 $445 $648 forward 7 unknown #
point $-1 66.0628070925016 -30.232009317475018 -9.8426260330565292 #
point $-1 66.0628070925016 -30.232009317475018 9.8426260330565292 #
straight-curve $-1 53.194448417658627 -33.232009317475018 0 0 0 -1 I I #
edge $-1 $647 -66.0628070925016 $452 -53.194448417658627 $574 $649 forward 7 unknown #
point $-1 53.194448417658627 -33.232009317475018 -9.8426260330565292 #
edge $-1 $455 53.194448417658627 $644 66.0628070925016 $575 $650 forward 7 unknown #
point $-1 53.194448417658627 -33.232009317475018 9.8426260330565292 #
edge $-1 $590 55.249627028533524 $593 58.530081350332772 $460 $651 forward 7 unknown #
vertex $-1 $474 $652 #
straight-curve $-1 18.563522043279281 57.21207014364019 9.8426260330565327 0 1 0 I I #
edge $-1 $593 -16.343211627575815 $471 11.902590796168884 $470 $653 forward 7 unknown #
vertex $-1 $592 $654 #
straight-curve $-1 18.563522043279281 8.9044986850694841e-007 64.121700800827824 0 -0.49999998660252726 0.86602541151947299 I I #
point $-1 18.563522043279281 31.338038199385089 9.8426260330565327 #
point $-1 -9.6822803804654178 33.232009317475018 6.5621717112572853 #
straight-curve $-1 0 33.232009317475018 9.8426260330565292 -1 0 0 I I #
vertex $-1 $477 $655 #
point $-1 4.9406208314069318 30.917704240636297 7.4129766086938238 #
coedge $-1 $492 $491 $484 $601 forward $481 $-1 #
edge $-1 $602 36.39009588493947 $605 45.54944080040331 $600 $656 forward 7 unknown #
vertex $-1 $496 $657 #
straight-curve $-1 -42.29898185444128 -64.137611666754381 9.8426260330565327 0 -1 0 I I #
edge $-1 $605 -25.738682991513027 $493 -7.3819147343434786 $492 $658 forward 7 unknown #
vertex $-1 $604 $659 #
straight-curve $-1 -42.29898185444128 -33.232009317475004 0.68328111759269916 0 0.69465836192734942 0.71933980857756763 I I #
point $-1 -42.29898185444128 -24.386932957965271 9.8426260330565292 #
point $-1 -23.942213597271731 -33.232009317475018 0.68328111759268439 #
straight-curve $-1 0 -33.232009317475018 9.8426260330565292 1 0 0 I I #
vertex $-1 $499 $660 #
point $-1 -37.127628203007376 -26.484036770729109 3.0173077638716932 #
vertex $-1 $503 $661 #
point $-1 -31.620597725856506 -26.484036770729109 3.0173077638716932 #
vertex $-1 $507 $662 #
point $-1 -26.113567248705635 -26.484036770729109 3.0173077638716932 #
edge $-1 $617 36.39009588493947 $620 45.54944080040331 $512 $663 forward 7 unknown #
vertex $-1 $526 $664 #
straight-curve $-1 10.895466563217331 -64.137611666754381 9.8426260330565327 0 -1 0 I I #
edge $-1 $620 0.85854121731627764 $523 19.215309474485828 $522 $665 forward 7 unknown #
vertex $-1 $619 $666 #
straight-curve $-1 10.895466563217331 -33.232009317475004 0.68328111759269916 0 0.69465836192734942 0.71933980857756763 I I #
point $-1 10.895466563217331 -24.386932957965271 9.8426260330565292 #
point $-1 29.252234820386882 -33.232009317475018 0.68328111759268439 #
straight-curve $-1 0 -33.232009317475018 9.8426260330565292 1 0 0 I I #
vertex $-1 $529 $667 #
point $-1 16.066820214651244 -26.484036770729109 3.0173077638716932 #
vertex $-1 $533 $668 #
point $-1 21.573850691802107 -26.484036770729109 3.0173077638716932 #
vertex $-1 $537 $669 #
point $-1 27.080881168952985 -26.484036770729109 3.0173077638716932 #
straight-curve $-1 -66.0628070925016 33.232009317475018 0 0 0 -1 I I #
point $-1 -66.0628070925016 -33.232009317475018 -9.8426260330565292 #
straight-curve $-1 -66.0628070925016 0 -9.8426260330565292 0 1 0 I I #
point $-1 -66.0628070925016 33.232009317475018 -9.8426260330565292 #
coedge $-1 $559 $558 $564 $638 reversed $280 $-1 #
vertex $-1 $571 $670 #
straight-curve $-1 0 -33.232009317475018 9.8426260330565292 1 0 0 I I #
edge $-1 $636 -9.8426260330565292 $639 9.8426260330565292 $635 $671 forward 7 unknown #
vertex $-1 $569 $672 #
straight-curve $-1 0 -33.232009317475018 -9.8426260330565292 -1 0 0 I I #
straight-curve $-1 -66.0628070925016 0 -9.8426260330565292 0 1 0 I I #
straight-curve $-1 -66.0628070925016 0 9.8426260330565292 0 -1 0 I I #
coedge $-1 $575 $574 $580 $646 reversed $296 $-1 #
vertex $-1 $576 $673 #
straight-curve $-1 66.0628070925016 0 9.8426260330565292 0 1 0 I I #
edge $-1 $644 -9.8426260330565292 $647 9.8426260330565292 $580 $674 forward 7 unknown #
vertex $-1 $646 $675 #
straight-curve $-1 66.0628070925016 0 -9.8426260330565292 0 -1 0 I I #
straight-curve $-1 0 -33.232009317475018 -9.8426260330565292 -1 0 0 I I #
straight-curve $-1 0 -33.232009317475018 9.8426260330565292 1 0 0 I I #
straight-curve $-1 18.563522043279281 33.232009317475018 65.092253061590057 0 0 -1 I I #
point $-1 18.563522043279281 33.232009317475018 9.8426260330565292 #
straight-curve $-1 2.2203104157034659 33.232009317475018 6.5621717112572746 -1 0 0 I I #
point $-1 18.563522043279281 33.232009317475018 6.5621717112572853 #
point $-1 4.4406208314069318 30.484691534876561 7.1629766153925596 #
straight-curve $-1 -42.29898185444128 -33.232009317475018 46.232721917995995 0 0 -1 I I #
point $-1 -42.29898185444128 -33.232009317475018 9.8426260330565292 #
straight-curve $-1 -16.560298862928253 -33.232009317475018 0.68328111759268195 1 0 0 I I #
point $-1 -42.29898185444128 -33.232009317475018 0.68328111759268439 #
point $-1 -38.627628203007376 -25.405027057862757 1.9753202209806688 #
point $-1 -33.120597725856506 -25.405027057862757 1.9753202209806688 #
point $-1 -27.613567248705635 -25.405027057862757 1.9753202209806688 #
straight-curve $-1 10.895466563217331 -33.232009317475018 46.232721917995995 0 0 -1 I I #
point $-1 10.895466563217331 -33.232009317475018 9.8426260330565292 #
straight-curve $-1 10.036925345901054 -33.232009317475018 0.68328111759268195 1 0 0 I I #
point $-1 10.895466563217331 -33.232009317475018 0.68328111759268439 #
point $-1 14.566820214651244 -25.405027057862757 1.9753202209806688 #
point $-1 20.073850691802107 -25.405027057862757 1.9753202209806688 #
point $-1 25.580881168952985 -25.405027057862757 1.9753202209806688 #
point $-1 -66.0628070925016 -33.232009317475018 9.8426260330565292 #
straight-curve $-1 -66.0628070925016 -33.232009317475018 0 0 0 -1 I I #
point $-1 -66.0628070925016 -33.232009317475018 -9.8426260330565292 #
point $-1 66.0628070925016 -33.232009317475018 9.8426260330565292 #
straight-curve $-1 66.0628070925016 -33.232009317475018 0 0 0 -1 I I #
point $-1 66.0628070925016 -33.232009317475018 -9.8426260330565292 #
End-of-ACIS-data 