500 0 7 0           
7 Unknown 11 ACIS 5.0 NT 24 Fri Mar 26 03:13:07 1999 
-1 9.9999999999999995e-007 1e-010 
body $-1 $7 $-1 $8 #
body $-1 $9 $-1 $10 #
body $-1 $11 $-1 $12 #
body $-1 $13 $-1 $14 #
body $-1 $15 $-1 $16 #
body $-1 $17 $-1 $18 #
body $-1 $19 $-1 $20 #
lump $-1 $-1 $21 $0 #
transform $-1 1 0 0 0 1 0 0 0 1 57.720267342143011 31.764907402178835 7.1431537886579415 1 rotate no_reflect no_shear #
lump $-1 $-1 $22 $1 #
transform $-1 1 0 0 0 1 0 0 0 1 57.720267342143011 31.764907402178835 7.1431537886579415 1 rotate no_reflect no_shear #
lump $-1 $-1 $23 $2 #
transform $-1 1 0 0 0 1 0 0 0 1 57.720267342143011 31.764907402178835 7.1431537886579415 1 rotate no_reflect no_shear #
lump $-1 $-1 $24 $3 #
transform $-1 1 0 0 0 1 0 0 0 1 57.720267342143011 31.764907402178835 7.1431537886579415 1 rotate no_reflect no_shear #
lump $-1 $-1 $25 $4 #
transform $-1 1 0 0 0 1 0 0 0 1 57.720267342143011 31.764907402178835 7.1431537886579415 1 rotate no_reflect no_shear #
lump $-1 $-1 $26 $5 #
transform $-1 1 0 0 0 1 0 0 0 1 57.720267342143011 31.764907402178835 7.1431537886579415 1 rotate no_reflect no_shear #
lump $-1 $-1 $27 $6 #
transform $-1 1 0 0 0 1 0 0 0 1 57.720267342143011 31.764907402178835 7.1431537886579415 1 rotate no_reflect no_shear #
shell $-1 $-1 $-1 $28 $-1 $7 #
shell $-1 $-1 $-1 $29 $-1 $9 #
shell $-1 $-1 $-1 $30 $-1 $11 #
shell $-1 $-1 $-1 $31 $-1 $13 #
shell $-1 $-1 $-1 $32 $-1 $15 #
shell $-1 $-1 $-1 $33 $-1 $17 #
shell $-1 $-1 $-1 $34 $-1 $19 #
face $-1 $35 $36 $21 $-1 $37 reversed single #
face $-1 $38 $39 $22 $-1 $40 forward single #
face $-1 $41 $42 $23 $-1 $43 forward single #
face $-1 $44 $45 $24 $-1 $46 reversed single #
face $-1 $47 $48 $25 $-1 $49 forward single #
face $-1 $50 $51 $26 $-1 $52 reversed single #
face $-1 $53 $54 $27 $-1 $55 forward single #
face $-1 $56 $57 $21 $-1 $58 reversed single #
loop $-1 $-1 $59 $28 #
plane-surface $-1 0 31.764907402178835 0 0 -1 0 0 0 -1 forward_v I I I I #
face $-1 $60 $61 $22 $-1 $62 reversed single #
loop $-1 $-1 $63 $29 #
plane-surface $-1 0 -31.764907402178835 0 0 1 0 0 0 1 forward_v I I I I #
face $-1 $64 $65 $23 $-1 $66 reversed single #
loop $-1 $-1 $67 $30 #
plane-surface $-1 0 31.764907402178835 0 0 -1 0 0 0 -1 forward_v I I I I #
face $-1 $68 $69 $24 $-1 $70 reversed single #
loop $-1 $-1 $71 $31 #
plane-surface $-1 32.181158243713007 1.7763568394002505e-015 162.16999923672887 0 -1 0 -0.5877852598018023 0 -0.80901698891910034 forward_v I I I I #
face $-1 $72 $73 $25 $-1 $74 forward single #
loop $-1 $75 $76 $32 #
cone-surface $-1 52.425071416425517 -3.5597081196110523 2.636947075863135 -0.5877852598018023 0 -0.80901698891910034 1.2135254833786506 0 -0.88167788970270344 1 I I 0 1 1.5 forward I I I I #
face $-1 $77 $78 $26 $-1 $79 reversed single #
loop $-1 $-1 $80 $33 #
plane-surface $-1 32.181158243713007 23.385972966193016 162.16999923672887 0 -1 0 -0.5877852598018023 0 -0.80901698891910034 forward_v I I I I #
face $-1 $81 $82 $27 $-1 $83 forward single #
loop $-1 $84 $85 $34 #
cone-surface $-1 52.425071416425517 19.826264846581964 2.636947075863135 -0.5877852598018023 0 -0.80901698891910034 1.2135254833786506 0 -0.88167788970270344 1 I I 0 1 1.5 forward I I I I #
face $-1 $86 $87 $21 $-1 $88 forward single #
loop $-1 $-1 $89 $35 #
plane-surface $-1 0 -31.764907402178835 0 0 1 0 0 0 1 forward_v I I I I #
coedge $-1 $90 $91 $92 $93 reversed $36 $-1 #
face $-1 $94 $95 $22 $-1 $96 reversed single #
loop $-1 $-1 $97 $38 #
plane-surface $-1 0 0 -7.1431537886579415 0 0 1 1 0 0 forward_v I I I I #
coedge $-1 $98 $99 $100 $101 forward $39 $-1 #
face $-1 $102 $103 $23 $-1 $104 reversed single #
loop $-1 $-1 $105 $41 #
plane-surface $-1 0 0 -7.1431537886579415 0 0 1 1 0 0 forward_v I I I I #
coedge $-1 $106 $107 $108 $109 forward $42 $-1 #
face $-1 $110 $111 $24 $-1 $112 reversed single #
loop $-1 $-1 $113 $44 #
plane-surface $-1 -35.673086427349027 -3.5597081196110523 68.776645467236833 0.5877852598018023 0 0.80901698891910034 0.80901698891910034 0 -0.5877852598018023 forward_v I I I I #
coedge $-1 $114 $115 $116 $117 reversed $45 $-1 #
face $-1 $-1 $118 $25 $-1 $119 forward single #
loop $-1 $120 $121 $47 #
cone-surface $-1 50.97010243757807 -3.5597081196110523 0.63435411762058092 -0.5877852598018023 0 -0.80901698891910034 0.60676274168932531 0 -0.44083894485135172 1 I I -0.70710678118654757 0.70710678118654757 0.75 forward I I I I #
loop $-1 $-1 $122 $32 #
coedge $-1 $76 $76 $123 $124 reversed $48 $-1 #
face $-1 $125 $126 $26 $-1 $127 reversed single #
loop $-1 $-1 $128 $50 #
plane-surface $-1 -35.673086427349027 19.826264846581964 68.776645467236833 0.5877852598018023 0 0.80901698891910034 0.80901698891910034 0 -0.5877852598018023 forward_v I I I I #
coedge $-1 $129 $130 $131 $132 reversed $51 $-1 #
face $-1 $-1 $133 $27 $-1 $134 forward single #
loop $-1 $135 $136 $53 #
cone-surface $-1 50.97010243757807 19.826264846581964 0.63435411762058092 -0.5877852598018023 0 -0.80901698891910034 0.60676274168932531 0 -0.44083894485135172 1 I I -0.70710678118654757 0.70710678118654757 0.75 forward I I I I #
loop $-1 $-1 $137 $34 #
coedge $-1 $85 $85 $138 $139 reversed $54 $-1 #
face $-1 $140 $141 $21 $-1 $142 reversed single #
loop $-1 $-1 $143 $56 #
plane-surface $-1 0 0 7.1431537886579415 0 0 1 1 0 0 forward_v I I I I #
coedge $-1 $144 $145 $146 $147 reversed $57 $-1 #
coedge $-1 $148 $59 $149 $150 reversed $36 $-1 #
coedge $-1 $59 $148 $151 $152 forward $36 $-1 #
coedge $-1 $153 $154 $59 $93 forward $141 $-1 #
edge $-1 $155 -57.720267342143011 $156 57.720267342143011 $59 $157 forward 7 unknown #
face $-1 $158 $159 $22 $-1 $160 reversed single #
loop $-1 $-1 $161 $60 #
plane-surface $-1 -50.467064563008293 -40.143841838164661 0 0 1 0 0 0 1 forward_v I I I I #
coedge $-1 $162 $163 $99 $164 forward $61 $-1 #
coedge $-1 $165 $63 $166 $167 reversed $39 $-1 #
coedge $-1 $63 $165 $97 $164 reversed $39 $-1 #
coedge $-1 $168 $169 $63 $101 reversed $159 $-1 #
edge $-1 $170 -7.1431537886579415 $171 7.1431537886579415 $100 $172 forward 7 unknown #
face $-1 $173 $174 $23 $-1 $175 reversed single #
loop $-1 $-1 $176 $64 #
plane-surface $-1 -51.967064563008293 35.954374620171748 0 1 0 0 0 0 -1 forward_v I I I I #
coedge $-1 $177 $178 $107 $179 forward $65 $-1 #
coedge $-1 $180 $67 $181 $182 reversed $42 $-1 #
coedge $-1 $67 $180 $105 $179 reversed $42 $-1 #
coedge $-1 $183 $184 $67 $109 reversed $185 $-1 #
edge $-1 $186 -7.1431537886579415 $187 7.1431537886579415 $108 $188 forward 7 unknown #
face $-1 $189 $190 $24 $-1 $191 forward single #
loop $-1 $-1 $192 $68 #
plane-surface $-1 32.181158243713007 -7.1194162392221063 162.16999923672887 0 1 0 0.5877852598018023 0 0.80901698891910034 forward_v I I I I #
coedge $-1 $193 $194 $195 $196 reversed $69 $-1 #
coedge $-1 $115 $71 $197 $198 reversed $45 $-1 #
coedge $-1 $71 $114 $193 $199 reversed $45 $-1 #
coedge $-1 $195 $200 $71 $117 forward $190 $-1 #
edge $-1 $201 -41.629688220286511 $202 -33.067556436843716 $116 $203 forward 7 unknown #
loop $-1 $-1 $123 $72 #
plane-surface $-1 -35.673086427349027 -3.5597081196110523 68.776645467236833 0.5877852598018023 0 0.80901698891910034 0.80901698891910034 0 -0.5877852598018023 forward_v I I I I #
loop $-1 $-1 $204 $47 #
coedge $-1 $121 $121 $122 $205 reversed $73 $-1 #
coedge $-1 $122 $122 $121 $205 forward $75 $-1 #
coedge $-1 $123 $123 $76 $124 forward $118 $-1 #
edge $-1 $206 0 $206 6.2831853071796004 $123 $207 forward 7 unknown #
face $-1 $208 $209 $26 $-1 $210 reversed single #
loop $-1 $-1 $211 $77 #
plane-surface $-1 32.181158243713007 16.266556726970911 162.16999923672887 0 1 0 0.5877852598018023 0 0.80901698891910034 forward_v I I I I #
coedge $-1 $212 $213 $214 $215 reversed $78 $-1 #
coedge $-1 $130 $80 $216 $217 reversed $51 $-1 #
coedge $-1 $80 $129 $212 $218 reversed $51 $-1 #
coedge $-1 $214 $219 $80 $132 forward $220 $-1 #
edge $-1 $221 -41.629688220286511 $222 -33.067556436843716 $131 $223 forward 7 unknown #
loop $-1 $-1 $138 $81 #
plane-surface $-1 -35.673086427349027 19.826264846581964 68.776645467236833 0.5877852598018023 0 0.80901698891910034 0.80901698891910034 0 -0.5877852598018023 forward_v I I I I #
loop $-1 $-1 $224 $53 #
coedge $-1 $136 $136 $137 $225 reversed $82 $-1 #
coedge $-1 $137 $137 $136 $225 forward $84 $-1 #
coedge $-1 $138 $138 $85 $139 forward $133 $-1 #
edge $-1 $226 0 $226 6.2831853071796004 $138 $227 forward 7 unknown #
face $-1 $228 $229 $21 $-1 $230 reversed single #
loop $-1 $-1 $153 $86 #
plane-surface $-1 0 0 -7.1431537886579415 0 0 1 1 0 0 forward_v I I I I #
coedge $-1 $231 $232 $233 $234 forward $87 $-1 #
coedge $-1 $235 $89 $236 $237 reversed $57 $-1 #
coedge $-1 $89 $235 $238 $239 forward $57 $-1 #
coedge $-1 $154 $153 $89 $147 forward $141 $-1 #
edge $-1 $240 -57.720267342143011 $241 57.720267342143011 $89 $242 forward 7 unknown #
coedge $-1 $91 $90 $231 $243 reversed $36 $-1 #
coedge $-1 $244 $245 $90 $150 forward $229 $-1 #
edge $-1 $246 -7.1431537886579415 $155 7.1431537886579415 $90 $247 forward 7 unknown #
coedge $-1 $233 $248 $91 $152 reversed $249 $-1 #
edge $-1 $250 -7.1431537886579415 $156 7.1431537886579415 $151 $251 forward 7 unknown #
coedge $-1 $146 $92 $248 $252 forward $141 $-1 #
coedge $-1 $92 $146 $244 $253 forward $141 $-1 #
vertex $-1 $93 $254 #
vertex $-1 $252 $255 #
straight-curve $-1 0 31.764907402178835 -7.1431537886579415 1 0 0 I I #
face $-1 $256 $257 $22 $-1 $258 reversed single #
loop $-1 $-1 $100 $94 #
plane-surface $-1 -51.967064563008293 -35.954374620171748 0 1 0 0 0 0 -1 forward_v I I I I #
coedge $-1 $259 $260 $261 $262 forward $95 $-1 #
coedge $-1 $263 $97 $264 $265 forward $61 $-1 #
coedge $-1 $97 $263 $168 $266 forward $61 $-1 #
edge $-1 $170 -51.967064563008293 $267 -48.967064563008293 $97 $268 forward 7 unknown #
coedge $-1 $99 $98 $269 $270 forward $39 $-1 #
coedge $-1 $271 $272 $98 $167 forward $273 $-1 #
edge $-1 $274 48.967064563008293 $171 51.967064563008293 $166 $275 forward 7 unknown #
coedge $-1 $261 $100 $163 $266 reversed $159 $-1 #
coedge $-1 $100 $261 $271 $276 reversed $159 $-1 #
vertex $-1 $164 $277 #
vertex $-1 $276 $278 #
straight-curve $-1 -51.967064563008293 -31.764907402178835 0 0 0 1 I I #
face $-1 $279 $185 $23 $-1 $280 reversed single #
loop $-1 $-1 $281 $102 #
plane-surface $-1 -50.467064563008293 40.143841838164661 0 0 -1 0 0 0 -1 forward_v I I I I #
coedge $-1 $282 $283 $284 $285 forward $103 $-1 #
coedge $-1 $286 $105 $282 $287 forward $65 $-1 #
coedge $-1 $105 $286 $183 $288 forward $65 $-1 #
edge $-1 $186 48.967064563008293 $289 51.967064563008293 $105 $290 forward 7 unknown #
coedge $-1 $107 $106 $291 $292 forward $42 $-1 #
coedge $-1 $293 $294 $106 $182 forward $295 $-1 #
edge $-1 $296 -51.967064563008293 $187 -48.967064563008293 $181 $297 forward 7 unknown #
coedge $-1 $298 $108 $178 $288 reversed $185 $-1 #
coedge $-1 $108 $298 $293 $299 reversed $185 $-1 #
loop $-1 $-1 $108 $173 #
vertex $-1 $179 $300 #
vertex $-1 $299 $301 #
straight-curve $-1 -48.967064563008293 31.764907402178835 0 0 0 1 I I #
face $-1 $-1 $302 $24 $-1 $303 reversed single #
loop $-1 $-1 $116 $110 #
plane-surface $-1 0 0 7.1431537886579415 0 0 1 1 0 0 forward_v I I I I #
coedge $-1 $304 $305 $306 $307 reversed $111 $-1 #
coedge $-1 $308 $113 $115 $199 forward $69 $-1 #
coedge $-1 $113 $308 $304 $309 forward $69 $-1 #
coedge $-1 $306 $116 $113 $196 forward $190 $-1 #
edge $-1 $202 -1.7798540598055279 $310 5.3395621794165802 $195 $311 forward 7 unknown #
coedge $-1 $312 $313 $114 $198 forward $302 $-1 #
edge $-1 $314 -80.162598822189636 $201 -73.941845829706494 $197 $315 forward 7 unknown #
edge $-1 $202 104.85715769626705 $314 115.44053468428601 $115 $316 forward 7 unknown #
coedge $-1 $116 $306 $312 $317 forward $190 $-1 #
vertex $-1 $117 $318 #
vertex $-1 $117 $319 #
straight-curve $-1 16.090579121856504 1.7763568394002505e-015 7.1431537886579406 -1 0 0 I I #
coedge $-1 $204 $204 $-1 $320 reversed $120 $-1 #
edge $-1 $321 0 $321 6.2831853071796004 $121 $322 forward 7 unknown #
vertex $-1 $124 $323 #
ellipse-curve $-1 53.439201450421621 -3.5597081196110523 4.0327772924163758 0.5877852598018023 0 0.80901698891910034 1.2135254833786506 0 -0.88167788970270344 1 I I #
face $-1 $-1 $220 $26 $-1 $324 forward single #
loop $-1 $-1 $325 $125 #
plane-surface $-1 57.720267342143011 0 0 -1 0 0 0 0 1 forward_v I I I I #
coedge $-1 $326 $327 $328 $329 reversed $126 $-1 #
coedge $-1 $330 $128 $130 $218 forward $78 $-1 #
coedge $-1 $128 $330 $326 $331 forward $78 $-1 #
coedge $-1 $328 $131 $128 $215 forward $220 $-1 #
edge $-1 $222 -13.472840542902034 $332 -6.3534243036799296 $214 $333 forward 7 unknown #
coedge $-1 $334 $335 $129 $217 forward $209 $-1 #
edge $-1 $336 -80.162598822189636 $221 -73.941845829706494 $216 $337 forward 7 unknown #
edge $-1 $222 104.85715769626705 $336 115.44053468428601 $130 $338 forward 7 unknown #
coedge $-1 $131 $328 $334 $339 forward $220 $-1 #
loop $-1 $-1 $328 $208 #
vertex $-1 $217 $340 #
vertex $-1 $132 $341 #
straight-curve $-1 16.090579121856504 23.385972966193016 7.1431537886579406 -1 0 0 I I #
coedge $-1 $224 $224 $-1 $342 reversed $135 $-1 #
edge $-1 $343 0 $343 6.2831853071796004 $136 $344 forward 7 unknown #
vertex $-1 $139 $345 #
ellipse-curve $-1 53.439201450421621 19.826264846581964 4.0327772924163758 0.5877852598018023 0 0.80901698891910034 1.2135254833786506 0 -0.88167788970270344 1 I I #
face $-1 $-1 $249 $21 $-1 $346 reversed single #
loop $-1 $-1 $149 $140 #
plane-surface $-1 -57.720267342143011 0 0 1 0 0 0 0 -1 forward_v I I I I #
coedge $-1 $347 $143 $148 $243 forward $87 $-1 #
coedge $-1 $143 $347 $235 $348 forward $87 $-1 #
coedge $-1 $236 $151 $143 $234 reversed $249 $-1 #
edge $-1 $349 -31.764907402178835 $250 31.764907402178835 $233 $350 forward 7 unknown #
coedge $-1 $145 $144 $232 $348 reversed $57 $-1 #
coedge $-1 $248 $233 $144 $237 forward $249 $-1 #
edge $-1 $349 -7.1431537886579415 $240 7.1431537886579415 $236 $351 forward 7 unknown #
coedge $-1 $245 $244 $145 $239 reversed $229 $-1 #
edge $-1 $352 -7.1431537886579415 $241 7.1431537886579415 $238 $353 forward 7 unknown #
vertex $-1 $237 $354 #
vertex $-1 $253 $355 #
straight-curve $-1 0 -31.764907402178835 -7.1431537886579415 -1 0 0 I I #
edge $-1 $250 -57.720267342143011 $246 57.720267342143011 $148 $356 forward 7 unknown #
coedge $-1 $238 $149 $154 $253 reversed $229 $-1 #
coedge $-1 $149 $238 $347 $357 reversed $229 $-1 #
vertex $-1 $243 $358 #
straight-curve $-1 -57.720267342143011 31.764907402178835 0 0 0 -1 I I #
coedge $-1 $151 $236 $153 $252 reversed $249 $-1 #
loop $-1 $-1 $236 $228 #
vertex $-1 $234 $359 #
straight-curve $-1 57.720267342143011 31.764907402178835 0 0 0 -1 I I #
edge $-1 $156 -31.764907402178835 $240 31.764907402178835 $248 $360 forward 7 unknown #
edge $-1 $241 -31.764907402178835 $155 31.764907402178835 $244 $361 forward 7 unknown #
point $-1 -57.720267342143011 31.764907402178835 -7.1431537886579415 #
point $-1 57.720267342143011 31.764907402178835 -7.1431537886579415 #
face $-1 $-1 $273 $22 $-1 $362 forward single #
loop $-1 $-1 $363 $158 #
plane-surface $-1 -48.967064563008293 -35.954374620171748 0 -1 0 0 0 0 1 forward_v I I I I #
coedge $-1 $364 $161 $263 $365 reversed $95 $-1 #
coedge $-1 $161 $364 $366 $367 reversed $95 $-1 #
coedge $-1 $169 $168 $161 $262 reversed $159 $-1 #
edge $-1 $368 -7.1431537886579415 $369 7.1431537886579415 $261 $370 forward 7 unknown #
coedge $-1 $163 $162 $259 $365 forward $61 $-1 #
coedge $-1 $269 $363 $162 $265 reversed $257 $-1 #
edge $-1 $267 -4.1894672179929096 $371 4.1894672179929131 $264 $372 forward 7 unknown #
edge $-1 $369 -4.1894672179929131 $170 4.1894672179929096 $168 $373 forward 7 unknown #
vertex $-1 $265 $374 #
straight-curve $-1 0 -31.764907402178835 -7.1431537886579415 1 0 0 I I #
coedge $-1 $375 $264 $165 $270 reversed $257 $-1 #
edge $-1 $274 -7.1431537886579415 $267 7.1431537886579415 $269 $376 forward 7 unknown #
coedge $-1 $366 $166 $169 $276 forward $273 $-1 #
coedge $-1 $166 $366 $375 $377 forward $273 $-1 #
loop $-1 $-1 $166 $256 #
vertex $-1 $167 $378 #
straight-curve $-1 0 -31.764907402178835 7.1431537886579415 -1 0 0 I I #
edge $-1 $171 -4.1894672179929096 $368 4.1894672179929131 $169 $379 forward 7 unknown #
point $-1 -51.967064563008293 -31.764907402178839 -7.1431537886579415 #
point $-1 -51.967064563008293 -31.764907402178839 7.1431537886579415 #
face $-1 $-1 $295 $23 $-1 $380 forward single #
plane-surface $-1 -48.967064563008293 35.954374620171748 0 -1 0 0 0 0 1 forward_v I I I I #
coedge $-1 $381 $382 $298 $383 forward $174 $-1 #
coedge $-1 $291 $176 $177 $287 reversed $103 $-1 #
coedge $-1 $176 $291 $294 $384 reversed $103 $-1 #
coedge $-1 $382 $381 $176 $285 reversed $174 $-1 #
edge $-1 $385 -7.1431537886579415 $386 7.1431537886579415 $284 $387 forward 7 unknown #
coedge $-1 $178 $177 $381 $388 forward $65 $-1 #
edge $-1 $289 -4.1894672179929131 $386 4.1894672179929131 $282 $389 forward 7 unknown #
edge $-1 $390 -4.1894672179929131 $186 4.1894672179929131 $183 $391 forward 7 unknown #
vertex $-1 $287 $392 #
straight-curve $-1 0 31.764907402178835 -7.1431537886579415 -1 0 0 I I #
coedge $-1 $283 $282 $180 $292 reversed $103 $-1 #
edge $-1 $296 -7.1431537886579415 $289 7.1431537886579415 $291 $393 forward 7 unknown #
coedge $-1 $394 $181 $184 $299 forward $295 $-1 #
coedge $-1 $181 $394 $283 $384 forward $295 $-1 #
loop $-1 $-1 $181 $279 #
vertex $-1 $182 $395 #
straight-curve $-1 0 31.764907402178835 7.1431537886579415 1 0 0 I I #
coedge $-1 $184 $183 $281 $383 reversed $185 $-1 #
edge $-1 $187 -4.1894672179929131 $396 4.1894672179929131 $184 $397 forward 7 unknown #
point $-1 -48.967064563008293 31.764907402178835 -7.1431537886579415 #
point $-1 -48.967064563008293 31.764907402178835 7.1431537886579415 #
loop $-1 $-1 $197 $189 #
plane-surface $-1 57.720267342143011 0 0 -1 0 0 0 0 1 forward_v I I I I #
coedge $-1 $305 $192 $194 $309 reversed $111 $-1 #
coedge $-1 $192 $304 $398 $399 reversed $111 $-1 #
coedge $-1 $200 $195 $192 $307 forward $190 $-1 #
edge $-1 $310 33.067556436843716 $400 41.629688220286511 $306 $401 forward 7 unknown #
coedge $-1 $194 $193 $313 $402 reversed $69 $-1 #
edge $-1 $403 -115.44053468428601 $310 -104.85715769626705 $304 $404 forward 7 unknown #
vertex $-1 $196 $405 #
straight-curve $-1 49.158135558700224 -1.7798540598055261 7.1431537886579406 0 -1 0 I I #
coedge $-1 $398 $197 $200 $317 reversed $302 $-1 #
coedge $-1 $197 $398 $308 $402 forward $302 $-1 #
vertex $-1 $198 $406 #
straight-curve $-1 57.720267342143011 1.7763568394002505e-015 81.084999618364435 0 0 1 I I #
straight-curve $-1 -35.673086427349027 1.7763568394002505e-015 68.776645467236833 0.80901698891910034 0 -0.5877852598018023 I I #
edge $-1 $400 -7.1194162392221063 $201 1.7763568394002505e-015 $312 $407 forward 7 unknown #
point $-1 57.720267342143011 1.7763568394002505e-015 7.1431537886579415 #
point $-1 49.158135558700216 1.7763568394002505e-015 7.1431537886579406 #
edge $-1 $408 1 $408 0 $204 $-1 forward 7 unknown #
vertex $-1 $205 $409 #
ellipse-curve $-1 51.410941382429421 -3.5597081196110523 1.2411168593099062 0.5877852598018023 0 0.80901698891910034 1.2135254833786506 0 -0.88167788970270344 1 I I #
point $-1 54.65272693380026 -3.5597081196110523 3.1510994027136601 #
plane-surface $-1 0 0 7.1431537886579415 0 0 1 1 0 0 forward_v I I I I #
coedge $-1 $335 $334 $327 $410 forward $209 $-1 #
coedge $-1 $327 $211 $213 $331 reversed $126 $-1 #
coedge $-1 $211 $326 $325 $410 reversed $126 $-1 #
coedge $-1 $219 $214 $211 $329 forward $220 $-1 #
edge $-1 $332 33.067556436843716 $411 41.629688220286511 $328 $412 forward 7 unknown #
coedge $-1 $213 $212 $335 $413 reversed $78 $-1 #
edge $-1 $414 -115.44053468428601 $332 -104.85715769626705 $326 $415 forward 7 unknown #
vertex $-1 $215 $416 #
straight-curve $-1 49.158135558700224 9.9131324232909819 7.1431537886579406 0 -1 0 I I #
coedge $-1 $325 $216 $219 $339 reversed $209 $-1 #
coedge $-1 $216 $325 $330 $413 forward $209 $-1 #
vertex $-1 $217 $417 #
straight-curve $-1 57.720267342143011 23.385972966193016 81.084999618364435 0 0 1 I I #
straight-curve $-1 -35.673086427349027 23.385972966193016 68.776645467236833 0.80901698891910034 0 -0.5877852598018023 I I #
edge $-1 $411 16.266556726970911 $221 23.385972966193016 $334 $418 forward 7 unknown #
point $-1 57.720267342143011 23.385972966193016 7.1431537886579415 #
point $-1 49.158135558700216 23.385972966193016 7.1431537886579406 #
edge $-1 $419 1 $419 0 $224 $-1 forward 7 unknown #
vertex $-1 $225 $420 #
ellipse-curve $-1 51.410941382429421 19.826264846581964 1.2411168593099062 0.5877852598018023 0 0.80901698891910034 1.2135254833786506 0 -0.88167788970270344 1 I I #
point $-1 54.65272693380026 19.826264846581964 3.1510994027136601 #
plane-surface $-1 57.720267342143011 0 0 -1 0 0 0 0 1 forward_v I I I I #
coedge $-1 $232 $231 $245 $357 forward $87 $-1 #
edge $-1 $352 -57.720267342143011 $349 57.720267342143011 $235 $421 forward 7 unknown #
vertex $-1 $234 $422 #
straight-curve $-1 57.720267342143011 0 7.1431537886579415 0 1 0 I I #
straight-curve $-1 57.720267342143011 -31.764907402178835 0 0 0 -1 I I #
vertex $-1 $357 $423 #
straight-curve $-1 -57.720267342143011 -31.764907402178835 0 0 0 -1 I I #
point $-1 57.720267342143011 -31.764907402178835 -7.1431537886579415 #
point $-1 -57.720267342143011 -31.764907402178835 -7.1431537886579415 #
straight-curve $-1 0 31.764907402178835 7.1431537886579415 -1 0 0 I I #
edge $-1 $246 -31.764907402178835 $352 31.764907402178835 $245 $424 forward 7 unknown #
point $-1 -57.720267342143011 31.764907402178835 7.1431537886579415 #
point $-1 57.720267342143011 31.764907402178835 7.1431537886579415 #
straight-curve $-1 57.720267342143011 0 -7.1431537886579415 0 -1 0 I I #
straight-curve $-1 -57.720267342143011 0 -7.1431537886579415 0 1 0 I I #
plane-surface $-1 0 0 7.1431537886579415 0 0 1 1 0 0 forward_v I I I I #
coedge $-1 $264 $375 $364 $425 forward $257 $-1 #
coedge $-1 $260 $259 $363 $425 reversed $95 $-1 #
edge $-1 $371 -1.5 $369 1.5 $259 $426 forward 7 unknown #
coedge $-1 $272 $271 $260 $367 forward $273 $-1 #
edge $-1 $368 -1.5 $427 1.5 $260 $428 forward 7 unknown #
vertex $-1 $276 $429 #
vertex $-1 $266 $430 #
straight-curve $-1 -51.967064563008293 -40.143841838164661 0 0 0 -1 I I #
vertex $-1 $425 $431 #
straight-curve $-1 -48.967064563008293 -35.954374620171748 -7.1431537886579415 0 -1 0 I I #
straight-curve $-1 -51.967064563008293 -35.954374620171748 -7.1431537886579415 0 1 0 I I #
point $-1 -48.967064563008293 -31.764907402178839 -7.1431537886579415 #
coedge $-1 $363 $269 $272 $377 reversed $257 $-1 #
straight-curve $-1 -48.967064563008293 -31.764907402178835 0 0 0 -1 I I #
edge $-1 $427 -4.1894672179929131 $274 4.1894672179929096 $375 $432 forward 7 unknown #
point $-1 -48.967064563008293 -31.764907402178839 7.1431537886579415 #
straight-curve $-1 -51.967064563008293 -35.954374620171748 7.1431537886579415 0 -1 0 I I #
plane-surface $-1 0 0 7.1431537886579415 0 0 1 1 0 0 forward_v I I I I #
coedge $-1 $284 $281 $286 $388 reversed $174 $-1 #
coedge $-1 $281 $284 $394 $433 reversed $174 $-1 #
edge $-1 $396 -7.1431537886579415 $390 7.1431537886579415 $298 $434 forward 7 unknown #
edge $-1 $385 -4.1894672179929131 $296 4.1894672179929131 $283 $435 forward 7 unknown #
vertex $-1 $433 $436 #
vertex $-1 $388 $437 #
straight-curve $-1 -51.967064563008293 40.143841838164661 0 0 0 -1 I I #
edge $-1 $386 -1.5 $390 1.5 $381 $438 forward 7 unknown #
straight-curve $-1 -51.967064563008293 35.954374620171748 -7.1431537886579415 0 1 0 I I #
vertex $-1 $288 $439 #
straight-curve $-1 -48.967064563008293 35.954374620171748 -7.1431537886579415 0 -1 0 I I #
point $-1 -51.967064563008293 31.764907402178835 -7.1431537886579415 #
straight-curve $-1 -51.967064563008293 31.764907402178835 0 0 0 -1 I I #
coedge $-1 $294 $293 $382 $433 forward $295 $-1 #
point $-1 -51.967064563008293 31.764907402178835 7.1431537886579415 #
vertex $-1 $299 $440 #
straight-curve $-1 -48.967064563008293 35.954374620171748 7.1431537886579415 0 1 0 I I #
coedge $-1 $313 $312 $305 $399 forward $302 $-1 #
edge $-1 $400 73.941845829706494 $403 80.162598822189636 $398 $441 forward 7 unknown #
vertex $-1 $317 $442 #
straight-curve $-1 16.090579121856504 -7.1194162392221063 7.1431537886579406 1 0 0 I I #
edge $-1 $403 -5.3395621794165802 $314 1.7798540598055279 $313 $443 forward 7 unknown #
vertex $-1 $402 $444 #
straight-curve $-1 -35.673086427349027 -7.1194162392221063 68.776645467236833 -0.80901698891910034 0 0.5877852598018023 I I #
point $-1 49.158135558700216 -7.1194162392221063 7.1431537886579406 #
point $-1 57.720267342143011 1.7763568394002505e-015 0.92240079617479864 #
straight-curve $-1 57.720267342143011 0 7.1431537886579415 0 1 0 I I #
vertex $-1 $320 $445 #
point $-1 52.624466865808074 -3.5597081196110523 0.35943896960720279 #
edge $-1 $411 73.941845829706494 $414 80.162598822189636 $325 $446 forward 7 unknown #
vertex $-1 $339 $447 #
straight-curve $-1 16.090579121856504 16.266556726970911 7.1431537886579406 1 0 0 I I #
edge $-1 $414 6.3534243036799296 $336 13.472840542902034 $335 $448 forward 7 unknown #
vertex $-1 $413 $449 #
straight-curve $-1 -35.673086427349027 16.266556726970911 68.776645467236833 -0.80901698891910034 0 0.5877852598018023 I I #
point $-1 49.158135558700216 16.266556726970911 7.1431537886579406 #
point $-1 57.720267342143011 23.385972966193016 0.92240079617479864 #
straight-curve $-1 57.720267342143011 0 7.1431537886579415 0 1 0 I I #
vertex $-1 $342 $450 #
point $-1 52.624466865808074 19.826264846581964 0.35943896960720279 #
straight-curve $-1 0 -31.764907402178835 7.1431537886579415 1 0 0 I I #
point $-1 57.720267342143011 -31.764907402178835 7.1431537886579415 #
point $-1 -57.720267342143011 -31.764907402178835 7.1431537886579415 #
straight-curve $-1 -57.720267342143011 0 7.1431537886579415 0 -1 0 I I #
edge $-1 $427 -7.1431537886579415 $371 7.1431537886579415 $363 $451 forward 7 unknown #
straight-curve $-1 -50.467064563008293 -40.143841838164661 -7.1431537886579415 -1 0 0 I I #
vertex $-1 $377 $452 #
straight-curve $-1 -50.467064563008293 -40.143841838164661 7.1431537886579415 1 0 0 I I #
point $-1 -51.967064563008293 -40.143841838164661 7.1431537886579415 #
point $-1 -51.967064563008293 -40.143841838164661 -7.1431537886579415 #
point $-1 -48.967064563008293 -40.143841838164661 -7.1431537886579415 #
straight-curve $-1 -48.967064563008293 -35.954374620171748 7.1431537886579415 0 1 0 I I #
edge $-1 $396 -1.5 $385 1.5 $382 $453 forward 7 unknown #
straight-curve $-1 -48.967064563008293 40.143841838164661 0 0 0 -1 I I #
straight-curve $-1 -51.967064563008293 35.954374620171748 7.1431537886579415 0 -1 0 I I #
point $-1 -51.967064563008293 40.143841838164661 7.1431537886579415 #
point $-1 -51.967064563008293 40.143841838164661 -7.1431537886579415 #
straight-curve $-1 -50.467064563008293 40.143841838164661 -7.1431537886579415 1 0 0 I I #
point $-1 -48.967064563008293 40.143841838164661 -7.1431537886579415 #
point $-1 -48.967064563008293 40.143841838164661 7.1431537886579415 #
straight-curve $-1 57.720267342143011 -7.1194162392221063 81.084999618364435 0 0 -1 I I #
point $-1 57.720267342143011 -7.1194162392221063 7.1431537886579415 #
straight-curve $-1 57.720267342143011 -1.7798540598055261 0.92240079617480575 0 1 0 I I #
point $-1 57.720267342143011 -7.1194162392221063 0.92240079617479864 #
point $-1 50.52926349272672 -3.5597081196110523 0.027591375931255602 #
straight-curve $-1 57.720267342143011 16.266556726970911 81.084999618364435 0 0 -1 I I #
point $-1 57.720267342143011 16.266556726970911 7.1431537886579415 #
straight-curve $-1 57.720267342143011 9.9131324232909819 0.92240079617480575 0 1 0 I I #
point $-1 57.720267342143011 16.266556726970911 0.92240079617479864 #
point $-1 50.52926349272672 19.826264846581964 0.027591375931255602 #
straight-curve $-1 -48.967064563008293 -40.143841838164661 0 0 0 -1 I I #
point $-1 -48.967064563008293 -40.143841838164661 7.1431537886579415 #
straight-curve $-1 -50.467064563008293 40.143841838164661 7.1431537886579415 -1 0 0 I I #
End-of-ACIS-data 