500 0 8 0           
7 Unknown 11 ACIS 5.0 NT 24 Thu Mar 25 15:57:55 1999 
-1 9.9999999999999995e-007 1e-010 
body $-1 $8 $-1 $9 #
body $-1 $10 $-1 $11 #
body $-1 $12 $-1 $13 #
body $-1 $14 $-1 $15 #
body $-1 $16 $-1 $17 #
body $-1 $18 $-1 $19 #
body $-1 $20 $-1 $21 #
body $-1 $22 $-1 $23 #
lump $-1 $-1 $24 $0 #
transform $-1 1 0 0 0 1 0 0 0 1 78.005310220648823 36.412794061432422 15.749725262424677 1 rotate no_reflect no_shear #
lump $-1 $-1 $25 $1 #
transform $-1 1 0 0 0 1 0 0 0 1 78.005310220648823 36.412794061432422 15.749725262424677 1 rotate no_reflect no_shear #
lump $-1 $-1 $26 $2 #
transform $-1 1 0 0 0 1 0 0 0 1 78.005310220648823 36.412794061432422 15.749725262424677 1 rotate no_reflect no_shear #
lump $-1 $-1 $27 $3 #
transform $-1 1 0 0 0 1 0 0 0 1 78.005310220648823 36.412794061432422 15.749725262424677 1 rotate no_reflect no_shear #
lump $-1 $-1 $28 $4 #
transform $-1 1 0 0 0 1 0 0 0 1 78.005310220648823 36.412794061432422 15.749725262424677 1 rotate no_reflect no_shear #
lump $-1 $-1 $29 $5 #
transform $-1 1 0 0 0 1 0 0 0 1 78.005310220648823 36.412794061432422 15.749725262424677 1 rotate no_reflect no_shear #
lump $-1 $-1 $30 $6 #
transform $-1 1 0 0 0 1 0 0 0 1 78.005310220648823 36.412794061432422 15.749725262424677 1 rotate no_reflect no_shear #
lump $-1 $-1 $31 $7 #
transform $-1 1 0 0 0 1 0 0 0 1 78.005310220648823 36.412794061432422 15.749725262424677 1 rotate no_reflect no_shear #
shell $-1 $-1 $-1 $32 $-1 $8 #
shell $-1 $-1 $-1 $33 $-1 $10 #
shell $-1 $-1 $-1 $34 $-1 $12 #
shell $-1 $-1 $-1 $35 $-1 $14 #
shell $-1 $-1 $-1 $36 $-1 $16 #
shell $-1 $-1 $-1 $37 $-1 $18 #
shell $-1 $-1 $-1 $38 $-1 $20 #
shell $-1 $-1 $-1 $39 $-1 $22 #
face $-1 $40 $41 $24 $-1 $42 forward single #
face $-1 $43 $44 $25 $-1 $45 forward single #
face $-1 $46 $47 $26 $-1 $48 reversed single #
face $-1 $49 $50 $27 $-1 $51 forward single #
face $-1 $52 $53 $28 $-1 $54 forward single #
face $-1 $55 $56 $29 $-1 $57 reversed single #
face $-1 $58 $59 $30 $-1 $60 forward single #
face $-1 $61 $62 $31 $-1 $63 forward single #
face $-1 $64 $65 $24 $-1 $66 reversed single #
loop $-1 $-1 $67 $32 #
plane-surface $-1 0 0 15.749725262424677 0 0 1 1 0 0 forward_v I I I I #
face $-1 $68 $69 $25 $-1 $70 reversed single #
loop $-1 $-1 $71 $33 #
plane-surface $-1 -78.005310220648823 0 0 1 0 0 0 0 -1 forward_v I I I I #
face $-1 $72 $73 $26 $-1 $74 reversed single #
loop $-1 $-1 $75 $34 #
plane-surface $-1 25.93866313463208 119.82223271033801 151.69958441106738 1 0 0 0 -0.80901700255871778 -0.5877852410284794 forward_v I I I I #
face $-1 $76 $77 $27 $-1 $78 forward single #
loop $-1 $79 $80 $35 #
cone-surface $-1 30.601815378056784 29.499621535984229 7.2643615235307895 0 -0.80901700255871778 -0.5877852410284794 1 0 0 1 I I 0 1 1 forward I I I I #
face $-1 $81 $82 $28 $-1 $83 forward single #
loop $-1 $84 $85 $36 #
cone-surface $-1 37.596543743193848 29.499621535984229 7.2643615235307895 0 -0.80901700255871778 -0.5877852410284794 1 0 0 1 I I 0 1 1 forward I I I I #
face $-1 $86 $87 $29 $-1 $88 reversed single #
loop $-1 $-1 $89 $37 #
plane-surface $-1 48.649046572673534 -132.4625240133044 131.38390692305663 -1 0 0 0 -0.61566148304635926 0.78801074757464917 forward_v I I I I #
face $-1 $90 $91 $30 $-1 $92 forward single #
loop $-1 $93 $94 $38 #
cone-surface $-1 30.271475219400187 -29.538221436420987 9.2815212105030334 0 0.61566148304635926 -0.78801074757464917 2 0 0 1 I I 0 1 2 forward I I I I #
face $-1 $95 $96 $31 $-1 $97 forward single #
loop $-1 $98 $99 $39 #
cone-surface $-1 41.298018031364208 -29.538221436420987 9.2815212105030334 0 0.61566148304635926 -0.78801074757464917 2 0 0 1 I I 0 1 2 forward I I I I #
face $-1 $100 $101 $24 $-1 $102 reversed single #
loop $-1 $-1 $103 $40 #
plane-surface $-1 0 0 -15.749725262424677 0 0 1 1 0 0 forward_v I I I I #
coedge $-1 $104 $105 $106 $107 forward $41 $-1 #
face $-1 $108 $109 $25 $-1 $110 reversed single #
loop $-1 $-1 $111 $43 #
plane-surface $-1 0 0 -15.749725262424677 0 0 1 1 0 0 forward_v I I I I #
coedge $-1 $112 $113 $114 $115 forward $44 $-1 #
face $-1 $116 $117 $26 $-1 $118 reversed single #
loop $-1 $-1 $119 $46 #
plane-surface $-1 34.099179560625316 -6.3930118064064345 59.998844271976623 0 0.80901700255871778 0.5877852410284794 1 0 0 forward_v I I I I #
coedge $-1 $120 $121 $122 $123 reversed $47 $-1 #
face $-1 $-1 $124 $27 $-1 $125 forward single #
loop $-1 $126 $127 $49 #
cone-surface $-1 30.601815378056784 27.510410520216858 5.8191151657146332 0 -0.80901700255871778 -0.5877852410284794 0.5 0 0 1 I I -0.70710678118654746 0.70710678118654746 0.5 forward I I I I #
loop $-1 $-1 $128 $35 #
coedge $-1 $80 $80 $129 $130 reversed $50 $-1 #
face $-1 $-1 $131 $28 $-1 $132 forward single #
loop $-1 $133 $134 $52 #
cone-surface $-1 37.596543743193848 27.510410520216858 5.8191151657146332 0 -0.80901700255871778 -0.5877852410284794 0.5 0 0 1 I I -0.70710678118654746 0.70710678118654746 0.5 forward I I I I #
loop $-1 $-1 $135 $36 #
coedge $-1 $85 $85 $136 $137 reversed $53 $-1 #
face $-1 $138 $139 $29 $-1 $140 reversed single #
loop $-1 $-1 $141 $55 #
plane-surface $-1 35.784746625382184 -36.412794061432436 8.44586127952482 0 -0.61566148304635926 0.78801074757464917 1 0 0 forward_v I I I I #
coedge $-1 $142 $143 $144 $145 reversed $56 $-1 #
face $-1 $-1 $146 $30 $-1 $147 forward single #
loop $-1 $148 $149 $58 #
cone-surface $-1 30.271475219400187 -26.722247027759622 5.6772384024566644 0 0.61566148304635926 -0.78801074757464917 1 0 0 1 I I -0.70710678118654746 0.70710678118654746 1 forward I I I I #
loop $-1 $-1 $150 $38 #
coedge $-1 $94 $94 $151 $152 reversed $59 $-1 #
face $-1 $-1 $153 $31 $-1 $154 forward single #
loop $-1 $155 $156 $61 #
cone-surface $-1 41.298018031364208 -26.722247027759622 5.6772384024566644 0 0.61566148304635926 -0.78801074757464917 1 0 0 1 I I -0.70710678118654746 0.70710678118654746 1 forward I I I I #
loop $-1 $-1 $157 $39 #
coedge $-1 $99 $99 $158 $159 reversed $62 $-1 #
face $-1 $160 $161 $24 $-1 $162 reversed single #
loop $-1 $-1 $163 $64 #
plane-surface $-1 0 -36.412794061432422 0 0 1 0 0 0 1 forward_v I I I I #
coedge $-1 $164 $165 $166 $167 forward $65 $-1 #
coedge $-1 $168 $67 $169 $170 forward $41 $-1 #
coedge $-1 $67 $168 $171 $172 forward $41 $-1 #
coedge $-1 $173 $174 $67 $107 reversed $175 $-1 #
edge $-1 $176 -36.412794061432422 $177 36.412794061432422 $106 $178 forward 7 unknown #
face $-1 $179 $180 $25 $-1 $181 reversed single #
loop $-1 $-1 $182 $68 #
plane-surface $-1 -83.315179142186537 -35.376140754005206 0 0 1 0 0 0 1 forward_v I I I I #
coedge $-1 $183 $184 $113 $185 forward $69 $-1 #
coedge $-1 $186 $71 $187 $188 reversed $44 $-1 #
coedge $-1 $71 $186 $111 $185 reversed $44 $-1 #
coedge $-1 $189 $190 $71 $115 reversed $191 $-1 #
edge $-1 $192 -15.749725262424677 $193 15.749725262424677 $114 $194 forward 7 unknown #
face $-1 $195 $196 $26 $-1 $197 forward single #
loop $-1 $-1 $198 $72 #
plane-surface $-1 42.259695986618553 119.82223271033801 151.69958441106738 -1 0 0 0 0.80901700255871778 0.5877852410284794 forward_v I I I I #
coedge $-1 $199 $200 $201 $202 reversed $73 $-1 #
coedge $-1 $121 $75 $203 $204 reversed $47 $-1 #
coedge $-1 $75 $120 $199 $205 reversed $47 $-1 #
coedge $-1 $201 $206 $75 $123 forward $196 $-1 #
edge $-1 $207 23.498322293736585 $208 34.155262315656891 $122 $209 forward 7 unknown #
loop $-1 $-1 $129 $76 #
plane-surface $-1 34.099179560625316 -6.3930118064064345 59.998844271976623 0 0.80901700255871778 0.5877852410284794 1 0 0 forward_v I I I I #
loop $-1 $-1 $210 $49 #
coedge $-1 $127 $127 $128 $211 reversed $77 $-1 #
coedge $-1 $128 $128 $127 $211 forward $79 $-1 #
coedge $-1 $129 $129 $80 $130 forward $124 $-1 #
edge $-1 $212 1.1905030805564524e-015 $212 6.2831853071796013 $129 $213 forward 7 unknown #
loop $-1 $-1 $136 $81 #
plane-surface $-1 34.099179560625316 -6.3930118064064345 59.998844271976623 0 0.80901700255871778 0.5877852410284794 1 0 0 forward_v I I I I #
loop $-1 $-1 $214 $52 #
coedge $-1 $134 $134 $135 $215 reversed $82 $-1 #
coedge $-1 $135 $135 $134 $215 forward $84 $-1 #
coedge $-1 $136 $136 $85 $137 forward $131 $-1 #
edge $-1 $216 1.1905030805564524e-015 $216 6.2831853071796013 $136 $217 forward 7 unknown #
face $-1 $218 $219 $29 $-1 $220 forward single #
loop $-1 $-1 $221 $86 #
plane-surface $-1 22.920446678090833 -132.4625240133044 131.38390692305663 1 0 0 0 0.61566148304635926 -0.78801074757464917 forward_v I I I I #
coedge $-1 $222 $223 $224 $225 reversed $87 $-1 #
coedge $-1 $143 $89 $226 $227 reversed $56 $-1 #
coedge $-1 $89 $142 $222 $228 reversed $56 $-1 #
coedge $-1 $224 $229 $89 $145 forward $219 $-1 #
edge $-1 $230 29.81846794521978 $231 39.166987344012625 $144 $232 forward 7 unknown #
loop $-1 $-1 $151 $90 #
plane-surface $-1 35.784746625382184 -36.412794061432436 8.44586127952482 0 -0.61566148304635926 0.78801074757464917 1 0 0 forward_v I I I I #
loop $-1 $-1 $233 $58 #
coedge $-1 $149 $149 $150 $234 reversed $91 $-1 #
coedge $-1 $150 $150 $149 $234 forward $93 $-1 #
coedge $-1 $151 $151 $94 $152 forward $146 $-1 #
edge $-1 $235 -1.0936344861647016e-015 $235 6.2831853071795996 $151 $236 forward 7 unknown #
loop $-1 $-1 $158 $95 #
plane-surface $-1 35.784746625382184 -36.412794061432436 8.44586127952482 0 -0.61566148304635926 0.78801074757464917 1 0 0 forward_v I I I I #
loop $-1 $-1 $237 $61 #
coedge $-1 $156 $156 $157 $238 reversed $96 $-1 #
coedge $-1 $157 $157 $156 $238 forward $98 $-1 #
coedge $-1 $158 $158 $99 $159 forward $153 $-1 #
edge $-1 $239 -1.0936344861647016e-015 $239 6.2831853071795996 $158 $240 forward 7 unknown #
face $-1 $241 $242 $24 $-1 $243 reversed single #
loop $-1 $-1 $244 $100 #
plane-surface $-1 -78.005310220648823 0 0 1 0 0 0 0 -1 forward_v I I I I #
coedge $-1 $245 $171 $246 $247 forward $101 $-1 #
coedge $-1 $248 $103 $245 $249 forward $65 $-1 #
coedge $-1 $103 $248 $250 $251 forward $65 $-1 #
coedge $-1 $174 $173 $103 $167 reversed $175 $-1 #
edge $-1 $252 -36.412794061432422 $253 36.412794061432422 $166 $254 forward 7 unknown #
coedge $-1 $105 $104 $255 $256 forward $41 $-1 #
coedge $-1 $257 $258 $104 $170 reversed $242 $-1 #
edge $-1 $177 -78.005310220648823 $259 78.005310220648823 $169 $260 forward 7 unknown #
coedge $-1 $163 $261 $105 $172 reversed $101 $-1 #
edge $-1 $262 -78.005310220648823 $176 78.005310220648823 $171 $263 forward 7 unknown #
coedge $-1 $166 $106 $261 $264 forward $175 $-1 #
coedge $-1 $106 $166 $257 $265 reversed $175 $-1 #
loop $-1 $-1 $173 $241 #
vertex $-1 $107 $266 #
vertex $-1 $107 $267 #
straight-curve $-1 78.005310220648823 0 15.749725262424677 0 1 0 I I #
face $-1 $268 $191 $25 $-1 $269 reversed single #
loop $-1 $-1 $270 $108 #
plane-surface $-1 -88.62504806372425 -32.32948913573442 0 1 0 0 0 0 -1 forward_v I I I I #
coedge $-1 $271 $272 $273 $274 forward $109 $-1 #
coedge $-1 $275 $111 $271 $276 forward $69 $-1 #
coedge $-1 $111 $275 $189 $277 forward $69 $-1 #
edge $-1 $192 29.282837517463634 $278 35.376140754005206 $111 $279 forward 7 unknown #
coedge $-1 $113 $112 $280 $281 forward $44 $-1 #
coedge $-1 $282 $283 $112 $188 forward $284 $-1 #
edge $-1 $285 -35.376140754005206 $193 -29.282837517463634 $187 $286 forward 7 unknown #
coedge $-1 $287 $114 $184 $277 reversed $191 $-1 #
coedge $-1 $114 $287 $282 $288 reversed $191 $-1 #
loop $-1 $-1 $114 $179 #
vertex $-1 $185 $289 #
vertex $-1 $288 $290 #
straight-curve $-1 -78.005310220648823 -29.282837517463634 0 0 0 1 I I #
face $-1 $-1 $291 $26 $-1 $292 reversed single #
loop $-1 $-1 $122 $116 #
plane-surface $-1 0 0 15.749725262424677 0 0 1 1 0 0 forward_v I I I I #
coedge $-1 $293 $294 $295 $296 reversed $117 $-1 #
coedge $-1 $297 $119 $121 $205 forward $73 $-1 #
coedge $-1 $119 $297 $293 $298 forward $73 $-1 #
coedge $-1 $295 $122 $119 $202 forward $196 $-1 #
edge $-1 $208 8.8890733543194216 $299 25.210106206305895 $201 $300 forward 7 unknown #
coedge $-1 $301 $302 $120 $204 forward $291 $-1 #
edge $-1 $303 -74.768086946292897 $207 -60.100066943109013 $203 $304 forward 7 unknown #
edge $-1 $208 54.694918487007179 $303 72.825588122864801 $121 $305 forward 7 unknown #
coedge $-1 $122 $295 $301 $306 forward $196 $-1 #
vertex $-1 $204 $307 #
vertex $-1 $123 $308 #
straight-curve $-1 25.93866313463208 59.911116355169007 15.749725262424676 0 -1 0 I I #
coedge $-1 $210 $210 $-1 $309 reversed $126 $-1 #
edge $-1 $310 0 $310 6.2831853071796004 $127 $311 forward 7 unknown #
vertex $-1 $130 $312 #
ellipse-curve $-1 30.601815378056784 31.084324050472269 8.4157152608327266 0 0.80901700255871778 0.5877852410284794 1 0 0 1 I I #
coedge $-1 $214 $214 $-1 $313 reversed $133 $-1 #
edge $-1 $314 0 $314 6.2831853071796004 $134 $315 forward 7 unknown #
vertex $-1 $137 $316 #
ellipse-curve $-1 37.596543743193848 31.084324050472269 8.4157152608327266 0 0.80901700255871778 0.5877852410284794 1 0 0 1 I I #
face $-1 $-1 $317 $29 $-1 $318 reversed single #
loop $-1 $-1 $144 $138 #
plane-surface $-1 0 0 15.749725262424677 0 0 1 1 0 0 forward_v I I I I #
coedge $-1 $319 $320 $321 $322 reversed $139 $-1 #
coedge $-1 $323 $141 $143 $228 forward $87 $-1 #
coedge $-1 $141 $323 $319 $324 forward $87 $-1 #
coedge $-1 $321 $144 $141 $225 forward $219 $-1 #
edge $-1 $231 -30.756673259982442 $325 -5.0280733653997416 $224 $326 forward 7 unknown #
coedge $-1 $327 $328 $142 $227 forward $317 $-1 #
edge $-1 $329 -57.24609218200348 $230 -49.942228199103639 $226 $330 forward 7 unknown #
edge $-1 $231 -11.863441491839886 $329 -1.7760113164789269e-014 $143 $331 forward 7 unknown #
coedge $-1 $144 $321 $327 $332 forward $219 $-1 #
vertex $-1 $145 $333 #
vertex $-1 $145 $334 #
straight-curve $-1 48.649046572673534 -66.231262006652202 15.749725262424676 0 1 0 I I #
coedge $-1 $233 $233 $-1 $335 reversed $148 $-1 #
edge $-1 $336 0 $336 6.2831853071796004 $149 $337 forward 7 unknown #
vertex $-1 $152 $338 #
ellipse-curve $-1 30.271475219400187 -31.738534362035995 12.097793270974757 0 -0.61566148304635926 0.78801074757464917 2 0 0 1 I I #
coedge $-1 $237 $237 $-1 $339 reversed $155 $-1 #
edge $-1 $340 0 $340 6.2831853071796004 $156 $341 forward 7 unknown #
vertex $-1 $159 $342 #
ellipse-curve $-1 41.298018031364208 -31.738534362035995 12.097793270974757 0 -0.61566148304635926 0.78801074757464917 2 0 0 1 I I #
face $-1 $-1 $175 $24 $-1 $343 reversed single #
loop $-1 $-1 $257 $160 #
plane-surface $-1 0 36.412794061432422 0 0 -1 0 0 0 -1 forward_v I I I I #
coedge $-1 $344 $255 $258 $345 forward $161 $-1 #
coedge $-1 $261 $163 $164 $249 reversed $101 $-1 #
coedge $-1 $255 $344 $163 $247 reversed $161 $-1 #
edge $-1 $262 -15.749725262424677 $346 15.749725262424677 $246 $347 forward 7 unknown #
coedge $-1 $165 $164 $344 $348 forward $65 $-1 #
edge $-1 $253 -78.005310220648823 $346 78.005310220648823 $245 $349 forward 7 unknown #
coedge $-1 $258 $257 $165 $251 reversed $242 $-1 #
edge $-1 $350 -78.005310220648823 $252 78.005310220648823 $250 $351 forward 7 unknown #
vertex $-1 $167 $352 #
vertex $-1 $264 $353 #
straight-curve $-1 78.005310220648823 0 -15.749725262424677 0 -1 0 I I #
coedge $-1 $244 $246 $168 $256 reversed $161 $-1 #
edge $-1 $259 -36.412794061432422 $262 36.412794061432422 $255 $354 forward 7 unknown #
coedge $-1 $250 $169 $174 $265 forward $242 $-1 #
coedge $-1 $169 $250 $244 $345 reversed $242 $-1 #
vertex $-1 $170 $355 #
straight-curve $-1 0 36.412794061432422 15.749725262424677 -1 0 0 I I #
coedge $-1 $171 $245 $173 $264 reversed $101 $-1 #
vertex $-1 $256 $356 #
straight-curve $-1 0 -36.412794061432422 15.749725262424677 1 0 0 I I #
edge $-1 $176 -15.749725262424677 $253 15.749725262424677 $173 $357 forward 7 unknown #
edge $-1 $177 -15.749725262424677 $252 15.749725262424677 $174 $358 forward 7 unknown #
point $-1 78.005310220648823 -36.412794061432422 15.749725262424677 #
point $-1 78.005310220648823 36.412794061432422 15.749725262424677 #
face $-1 $-1 $284 $25 $-1 $359 forward single #
plane-surface $-1 -83.315179142186537 -29.282837517463634 0 0 -1 0 0 0 -1 forward_v I I I I #
coedge $-1 $360 $361 $287 $362 forward $180 $-1 #
coedge $-1 $280 $182 $183 $276 reversed $109 $-1 #
coedge $-1 $182 $280 $283 $363 reversed $109 $-1 #
coedge $-1 $361 $360 $182 $274 reversed $180 $-1 #
edge $-1 $364 -15.749725262424677 $365 15.749725262424677 $273 $366 forward 7 unknown #
coedge $-1 $184 $183 $360 $367 forward $69 $-1 #
edge $-1 $278 -5.3098689215377135 $365 5.3098689215377135 $271 $368 forward 7 unknown #
edge $-1 $369 -5.3098689215377135 $192 5.3098689215377135 $189 $370 forward 7 unknown #
vertex $-1 $276 $371 #
straight-curve $-1 -78.005310220648823 0 -15.749725262424677 0 -1 0 I I #
coedge $-1 $272 $271 $186 $281 reversed $109 $-1 #
edge $-1 $285 -15.749725262424677 $278 15.749725262424677 $280 $372 forward 7 unknown #
coedge $-1 $373 $187 $190 $288 forward $284 $-1 #
coedge $-1 $187 $373 $272 $363 forward $284 $-1 #
loop $-1 $-1 $187 $268 #
vertex $-1 $188 $374 #
straight-curve $-1 -78.005310220648823 0 15.749725262424677 0 1 0 I I #
coedge $-1 $190 $189 $270 $362 reversed $191 $-1 #
edge $-1 $193 -5.3098689215377135 $375 5.3098689215377135 $190 $376 forward 7 unknown #
point $-1 -78.005310220648823 -29.282837517463634 -15.749725262424677 #
point $-1 -78.005310220648823 -29.282837517463634 15.749725262424677 #
loop $-1 $-1 $203 $195 #
plane-surface $-1 0 36.412794061432422 0 0 -1 0 0 0 -1 forward_v I I I I #
coedge $-1 $294 $198 $200 $298 reversed $117 $-1 #
coedge $-1 $198 $293 $377 $378 reversed $117 $-1 #
coedge $-1 $206 $201 $198 $296 forward $196 $-1 #
edge $-1 $299 -34.155262315656891 $379 -23.498322293736585 $295 $380 forward 7 unknown #
coedge $-1 $200 $199 $302 $381 reversed $73 $-1 #
edge $-1 $382 -72.825588122864801 $299 -54.694918487007179 $293 $383 forward 7 unknown #
vertex $-1 $202 $384 #
straight-curve $-1 17.049589780312658 25.755854039512116 15.749725262424679 1 0 0 I I #
coedge $-1 $377 $203 $206 $306 reversed $291 $-1 #
coedge $-1 $203 $377 $297 $381 forward $291 $-1 #
vertex $-1 $204 $385 #
straight-curve $-1 25.93866313463208 36.412794061432422 75.849792205533689 0 0 1 I I #
straight-curve $-1 25.93866313463208 -6.3930118064064345 59.998844271976623 0 0.5877852410284794 -0.80901700255871778 I I #
edge $-1 $379 -42.259695986618553 $207 -25.93866313463208 $301 $386 forward 7 unknown #
point $-1 25.93866313463208 36.412794061432422 15.749725262424677 #
point $-1 25.93866313463208 25.755854039512116 15.749725262424676 #
edge $-1 $387 1 $387 0 $210 $-1 forward 7 unknown #
vertex $-1 $211 $388 #
ellipse-curve $-1 30.601815378056784 27.914919021496218 6.1130077862288728 0 0.80901700255871778 0.5877852410284794 1 0 0 1 I I #
point $-1 31.601815378056784 31.084324050472244 8.415715260832707 #
edge $-1 $389 1 $389 0 $214 $-1 forward 7 unknown #
vertex $-1 $215 $390 #
ellipse-curve $-1 37.596543743193848 27.914919021496218 6.1130077862288728 0 0.80901700255871778 0.5877852410284794 1 0 0 1 I I #
point $-1 38.596543743193848 31.084324050472244 8.415715260832707 #
loop $-1 $-1 $226 $218 #
plane-surface $-1 0 -36.412794061432422 0 0 1 0 0 0 1 forward_v I I I I #
coedge $-1 $320 $221 $223 $324 reversed $139 $-1 #
coedge $-1 $221 $319 $391 $392 reversed $139 $-1 #
coedge $-1 $229 $224 $221 $322 forward $219 $-1 #
edge $-1 $325 -39.166987344012625 $393 -29.81846794521978 $321 $394 forward 7 unknown #
coedge $-1 $223 $222 $328 $395 reversed $87 $-1 #
edge $-1 $396 1.7760113164789269e-014 $325 11.863441491839886 $319 $397 forward 7 unknown #
vertex $-1 $225 $398 #
straight-curve $-1 17.892373312691092 -27.064274662639576 15.749725262424677 -1 0 0 I I #
coedge $-1 $391 $226 $229 $332 reversed $317 $-1 #
coedge $-1 $226 $391 $323 $395 forward $317 $-1 #
vertex $-1 $227 $399 #
straight-curve $-1 48.649046572673534 -36.412794061432422 65.691953461528314 0 0 1 I I #
straight-curve $-1 48.649046572673534 -36.412794061432436 8.44586127952482 0 -0.78801074757464917 -0.61566148304635926 I I #
edge $-1 $393 22.920446678090833 $230 48.649046572673534 $327 $400 forward 7 unknown #
point $-1 48.649046572673534 -36.412794061432422 15.749725262424677 #
point $-1 48.649046572673534 -27.064274662639576 15.749725262424677 #
edge $-1 $401 1 $401 0 $233 $-1 forward 7 unknown #
vertex $-1 $234 $402 #
ellipse-curve $-1 30.271475219400187 -27.337908510805981 6.4652491500313136 0 -0.61566148304635926 0.78801074757464917 2 0 0 1 I I #
point $-1 32.271475219400187 -31.738534362035995 12.097793270974753 #
edge $-1 $403 1 $403 0 $237 $-1 forward 7 unknown #
vertex $-1 $238 $404 #
ellipse-curve $-1 41.298018031364208 -27.337908510805981 6.4652491500313136 0 -0.61566148304635926 0.78801074757464917 2 0 0 1 I I #
point $-1 43.298018031364208 -31.738534362035995 12.097793270974753 #
plane-surface $-1 78.005310220648823 0 0 -1 0 0 0 0 1 forward_v I I I I #
coedge $-1 $246 $244 $248 $348 reversed $161 $-1 #
edge $-1 $259 -15.749725262424677 $350 15.749725262424677 $258 $405 forward 7 unknown #
vertex $-1 $348 $406 #
straight-curve $-1 -78.005310220648823 -36.412794061432422 0 0 0 -1 I I #
edge $-1 $346 -36.412794061432422 $350 36.412794061432422 $344 $407 forward 7 unknown #
straight-curve $-1 0 -36.412794061432422 -15.749725262424677 -1 0 0 I I #
vertex $-1 $251 $408 #
straight-curve $-1 0 36.412794061432422 -15.749725262424677 1 0 0 I I #
point $-1 78.005310220648823 36.412794061432422 -15.749725262424677 #
point $-1 78.005310220648823 -36.412794061432422 -15.749725262424677 #
straight-curve $-1 -78.005310220648823 0 15.749725262424677 0 -1 0 I I #
point $-1 -78.005310220648823 36.412794061432422 15.749725262424677 #
point $-1 -78.005310220648823 -36.412794061432422 15.749725262424677 #
straight-curve $-1 78.005310220648823 -36.412794061432422 0 0 0 -1 I I #
straight-curve $-1 78.005310220648823 36.412794061432422 0 0 0 -1 I I #
plane-surface $-1 0 0 15.749725262424677 0 0 1 1 0 0 forward_v I I I I #
coedge $-1 $273 $270 $275 $367 reversed $180 $-1 #
coedge $-1 $270 $273 $373 $409 reversed $180 $-1 #
edge $-1 $375 -15.749725262424677 $369 15.749725262424677 $287 $410 forward 7 unknown #
edge $-1 $364 -5.3098689215377135 $285 5.3098689215377135 $272 $411 forward 7 unknown #
vertex $-1 $409 $412 #
vertex $-1 $367 $413 #
straight-curve $-1 -88.62504806372425 -35.376140754005206 0 0 0 -1 I I #
edge $-1 $365 -3.0466516182707863 $369 3.0466516182707863 $360 $414 forward 7 unknown #
straight-curve $-1 -83.315179142186537 -35.376140754005206 -15.749725262424677 -1 0 0 I I #
vertex $-1 $277 $415 #
straight-curve $-1 -83.315179142186537 -29.282837517463634 -15.749725262424677 1 0 0 I I #
point $-1 -78.005310220648823 -35.376140754005206 -15.749725262424677 #
straight-curve $-1 -78.005310220648823 -35.376140754005206 0 0 0 -1 I I #
coedge $-1 $283 $282 $361 $409 forward $284 $-1 #
point $-1 -78.005310220648823 -35.376140754005206 15.749725262424677 #
vertex $-1 $288 $416 #
straight-curve $-1 -83.315179142186537 -29.282837517463634 15.749725262424677 -1 0 0 I I #
coedge $-1 $302 $301 $294 $378 forward $291 $-1 #
edge $-1 $379 60.100066943109013 $382 74.768086946292897 $377 $417 forward 7 unknown #
vertex $-1 $306 $418 #
straight-curve $-1 42.259695986618553 59.911116355169007 15.749725262424676 0 1 0 I I #
edge $-1 $382 -25.210106206305895 $303 -8.8890733543194216 $302 $419 forward 7 unknown #
vertex $-1 $381 $420 #
straight-curve $-1 42.259695986618553 -6.3930118064064345 59.998844271976623 0 -0.5877852410284794 0.80901700255871778 I I #
point $-1 42.259695986618553 25.755854039512116 15.749725262424676 #
point $-1 25.93866313463208 36.412794061432422 1.0817052592407848 #
straight-curve $-1 0 36.412794061432422 15.749725262424677 -1 0 0 I I #
vertex $-1 $309 $421 #
point $-1 31.601815378056784 27.914919021496218 6.1130077862288728 #
vertex $-1 $313 $422 #
point $-1 38.596543743193848 27.914919021496218 6.1130077862288728 #
coedge $-1 $328 $327 $320 $392 forward $317 $-1 #
edge $-1 $393 49.942228199103639 $396 57.24609218200348 $391 $423 forward 7 unknown #
vertex $-1 $332 $424 #
straight-curve $-1 22.920446678090833 -66.231262006652202 15.749725262424676 0 -1 0 I I #
edge $-1 $396 5.0280733653997416 $329 30.756673259982442 $328 $425 forward 7 unknown #
vertex $-1 $395 $426 #
straight-curve $-1 22.920446678090833 -36.412794061432436 8.44586127952482 0 0.78801074757464917 0.61566148304635926 I I #
point $-1 22.920446678090833 -27.064274662639576 15.749725262424677 #
point $-1 48.649046572673534 -36.412794061432422 8.4458612795248307 #
straight-curve $-1 0 -36.412794061432422 15.749725262424677 1 0 0 I I #
vertex $-1 $335 $427 #
point $-1 32.271475219400187 -27.337908510805981 6.4652491500313136 #
vertex $-1 $339 $428 #
point $-1 43.298018031364208 -27.337908510805981 6.4652491500313136 #
straight-curve $-1 -78.005310220648823 36.412794061432422 0 0 0 -1 I I #
point $-1 -78.005310220648823 -36.412794061432422 -15.749725262424677 #
straight-curve $-1 -78.005310220648823 0 -15.749725262424677 0 1 0 I I #
point $-1 -78.005310220648823 36.412794061432422 -15.749725262424677 #
edge $-1 $375 -3.0466516182707863 $364 3.0466516182707863 $361 $429 forward 7 unknown #
straight-curve $-1 -88.62504806372425 -29.282837517463634 0 0 0 -1 I I #
straight-curve $-1 -83.315179142186537 -35.376140754005206 15.749725262424677 1 0 0 I I #
point $-1 -88.62504806372425 -35.376140754005206 15.749725262424677 #
point $-1 -88.62504806372425 -35.376140754005206 -15.749725262424677 #
straight-curve $-1 -88.62504806372425 -32.32948913573442 -15.749725262424677 0 1 0 I I #
point $-1 -88.62504806372425 -29.282837517463634 -15.749725262424677 #
point $-1 -88.62504806372425 -29.282837517463634 15.749725262424677 #
straight-curve $-1 42.259695986618553 36.412794061432422 75.849792205533689 0 0 -1 I I #
point $-1 42.259695986618553 36.412794061432422 15.749725262424677 #
straight-curve $-1 17.049589780312658 36.412794061432422 1.0817052592407777 -1 0 0 I I #
point $-1 42.259695986618553 36.412794061432422 1.0817052592407848 #
point $-1 30.601815378056784 27.105902018937499 5.5252225452003936 #
point $-1 37.596543743193848 27.105902018937499 5.5252225452003936 #
straight-curve $-1 22.920446678090833 -36.412794061432422 65.691953461528314 0 0 -1 I I #
point $-1 22.920446678090833 -36.412794061432422 15.749725262424677 #
straight-curve $-1 17.892373312691092 -36.412794061432422 8.4458612795248342 1 0 0 I I #
point $-1 22.920446678090833 -36.412794061432422 8.4458612795248307 #
point $-1 30.271475219400187 -26.106585544713262 4.8892276548820153 #
point $-1 41.298018031364208 -26.106585544713262 4.8892276548820153 #
straight-curve $-1 -88.62504806372425 -32.32948913573442 15.749725262424677 0 -1 0 I I #
End-of-ACIS-data 