500 0 7 0           
7 Unknown 11 ACIS 5.0 NT 24 Fri Mar 26 18:36:21 1999 
-1 9.9999999999999995e-007 1e-010 
body $-1 $7 $-1 $8 #
body $-1 $9 $-1 $10 #
body $-1 $11 $-1 $12 #
body $-1 $13 $-1 $14 #
body $-1 $15 $-1 $16 #
body $-1 $17 $-1 $18 #
body $-1 $19 $-1 $20 #
lump $-1 $-1 $21 $0 #
transform $-1 1 0 0 0 1 0 0 0 1 64.875026703695795 35.763529079852859 11.075375682390787 1 rotate no_reflect no_shear #
lump $-1 $-1 $22 $1 #
transform $-1 1 0 0 0 1 0 0 0 1 64.875026703695795 35.763529079852859 11.075375682390787 1 rotate no_reflect no_shear #
lump $-1 $-1 $23 $2 #
transform $-1 1 0 0 0 1 0 0 0 1 64.875026703695795 35.763529079852859 11.075375682390787 1 rotate no_reflect no_shear #
lump $-1 $-1 $24 $3 #
transform $-1 1 0 0 0 1 0 0 0 1 64.875026703695795 35.763529079852859 11.075375682390787 1 rotate no_reflect no_shear #
lump $-1 $-1 $25 $4 #
transform $-1 1 0 0 0 1 0 0 0 1 64.875026703695795 35.763529079852859 11.075375682390787 1 rotate no_reflect no_shear #
lump $-1 $-1 $26 $5 #
transform $-1 1 0 0 0 1 0 0 0 1 64.875026703695795 35.763529079852859 11.075375682390787 1 rotate no_reflect no_shear #
lump $-1 $-1 $27 $6 #
transform $-1 1 0 0 0 1 0 0 0 1 64.875026703695795 35.763529079852859 11.075375682390787 1 rotate no_reflect no_shear #
shell $-1 $-1 $-1 $28 $-1 $7 #
shell $-1 $-1 $-1 $29 $-1 $9 #
shell $-1 $-1 $-1 $30 $-1 $11 #
shell $-1 $-1 $-1 $31 $-1 $13 #
shell $-1 $-1 $-1 $32 $-1 $15 #
shell $-1 $-1 $-1 $33 $-1 $17 #
shell $-1 $-1 $-1 $34 $-1 $19 #
face $-1 $35 $36 $21 $-1 $37 forward single #
face $-1 $38 $39 $22 $-1 $40 forward single #
face $-1 $41 $42 $23 $-1 $43 forward single #
face $-1 $44 $45 $24 $-1 $46 reversed single #
face $-1 $47 $48 $25 $-1 $49 forward single #
face $-1 $50 $51 $26 $-1 $52 reversed single #
face $-1 $53 $54 $27 $-1 $55 forward single #
face $-1 $56 $57 $21 $-1 $58 reversed single #
loop $-1 $-1 $59 $28 #
plane-surface $-1 0 0 11.075375682390787 0 0 1 1 0 0 forward_v I I I I #
face $-1 $60 $61 $22 $-1 $62 reversed single #
loop $-1 $-1 $63 $29 #
plane-surface $-1 -64.875026703695795 0 0 1 0 0 0 0 -1 forward_v I I I I #
face $-1 $64 $65 $23 $-1 $66 reversed single #
loop $-1 $-1 $67 $30 #
plane-surface $-1 64.875026703695795 0 0 -1 0 0 0 0 1 forward_v I I I I #
face $-1 $68 $69 $24 $-1 $70 reversed single #
loop $-1 $-1 $71 $31 #
plane-surface $-1 10.957076772287841 74.443231633921172 146.08287557515027 1 0 0 0 -0.69465837861970381 -0.71933979245794832 forward_v I I I I #
face $-1 $72 $73 $25 $-1 $74 forward single #
loop $-1 $75 $76 $32 #
cone-surface $-1 17.279955780691878 29.441853102892793 4.8188777576901147 0 -0.69465837861970381 -0.71933979245794832 2.5 0 0 1 I I 0 1 2.5 forward I I I I #
face $-1 $77 $78 $26 $-1 $79 reversed single #
loop $-1 $-1 $80 $33 #
plane-surface $-1 52.892367277852713 -139.38653022858506 85.277880939578608 -1 0 0 0 -0.79863551827123203 0.60181501223851219 forward_v I I I I #
face $-1 $81 $82 $27 $-1 $83 forward single #
loop $-1 $84 $85 $34 #
cone-surface $-1 46.304444436611107 -33.633547314084495 8.6312824932096692 0 0.79863551827123203 -0.60181501223851219 0.5 0 0 1 I I 0 1 0.5 forward I I I I #
face $-1 $86 $87 $21 $-1 $88 reversed single #
loop $-1 $-1 $89 $35 #
plane-surface $-1 0 0 -11.075375682390787 0 0 1 1 0 0 forward_v I I I I #
coedge $-1 $90 $91 $92 $93 forward $36 $-1 #
face $-1 $94 $95 $22 $-1 $96 reversed single #
loop $-1 $-1 $97 $38 #
plane-surface $-1 0 35.763529079852859 0 0 -1 0 0 0 -1 forward_v I I I I #
coedge $-1 $98 $99 $100 $101 forward $39 $-1 #
face $-1 $102 $103 $23 $-1 $104 reversed single #
loop $-1 $-1 $105 $41 #
plane-surface $-1 0 0 -11.075375682390787 0 0 1 1 0 0 forward_v I I I I #
coedge $-1 $106 $107 $108 $109 forward $42 $-1 #
face $-1 $110 $111 $24 $-1 $112 reversed single #
loop $-1 $-1 $113 $44 #
plane-surface $-1 17.279955780691864 -15.688730091877446 52.748499085669494 0 0.69465837861970381 0.71933979245794832 1 0 0 forward_v I I I I #
coedge $-1 $114 $115 $116 $117 reversed $45 $-1 #
face $-1 $-1 $118 $25 $-1 $119 forward single #
loop $-1 $120 $121 $47 #
cone-surface $-1 17.279955780691878 26.401092951173972 1.6700785151068853 0 -0.69465837861970381 -0.71933979245794832 1.25 0 0 1 I I -0.70710678118654746 0.70710678118654746 1.25 forward I I I I #
loop $-1 $-1 $122 $32 #
coedge $-1 $76 $76 $123 $124 reversed $48 $-1 #
face $-1 $125 $126 $26 $-1 $127 reversed single #
loop $-1 $-1 $128 $50 #
plane-surface $-1 46.304444436611107 -35.763529079852844 7.1923509602616349 0 -0.79863551827123203 0.60181501223851219 1 0 0 forward_v I I I I #
coedge $-1 $129 $130 $131 $132 reversed $51 $-1 #
face $-1 $-1 $133 $27 $-1 $134 forward single #
loop $-1 $135 $136 $53 #
cone-surface $-1 46.304444436611107 -32.766941130156383 7.9782479120335008 0 0.79863551827123203 -0.60181501223851219 0.25 0 0 1 I I -0.70710678118654746 0.70710678118654746 0.25 forward I I I I #
loop $-1 $-1 $137 $34 #
coedge $-1 $85 $85 $138 $139 reversed $54 $-1 #
face $-1 $140 $141 $21 $-1 $142 reversed single #
loop $-1 $-1 $143 $56 #
plane-surface $-1 0 -35.763529079852859 0 0 1 0 0 0 1 forward_v I I I I #
coedge $-1 $144 $145 $146 $147 forward $57 $-1 #
coedge $-1 $148 $59 $149 $150 forward $36 $-1 #
coedge $-1 $59 $148 $151 $152 forward $36 $-1 #
coedge $-1 $153 $154 $59 $93 reversed $155 $-1 #
edge $-1 $156 -35.763529079852859 $157 35.763529079852859 $92 $158 forward 7 unknown #
face $-1 $159 $160 $22 $-1 $161 reversed single #
loop $-1 $-1 $100 $60 #
plane-surface $-1 -69.138023879444162 0 7.4452807773417877 0 0 1 1 0 0 forward_v I I I I #
coedge $-1 $162 $163 $98 $164 forward $61 $-1 #
coedge $-1 $165 $63 $97 $164 reversed $39 $-1 #
coedge $-1 $63 $165 $166 $167 reversed $39 $-1 #
coedge $-1 $168 $169 $63 $101 reversed $95 $-1 #
edge $-1 $170 -35.763529079852859 $171 35.763529079852859 $100 $172 forward 7 unknown #
face $-1 $173 $174 $23 $-1 $175 reversed single #
loop $-1 $-1 $108 $64 #
plane-surface $-1 70.866356416617322 -16.612777715071285 0 0 1 0 0 0 1 forward_v I I I I #
coedge $-1 $176 $177 $107 $178 forward $65 $-1 #
coedge $-1 $179 $67 $180 $181 reversed $42 $-1 #
coedge $-1 $67 $179 $105 $178 reversed $42 $-1 #
coedge $-1 $182 $183 $67 $109 reversed $103 $-1 #
edge $-1 $184 -11.075375682390787 $185 11.075375682390787 $108 $186 forward 7 unknown #
face $-1 $187 $188 $24 $-1 $189 reversed single #
loop $-1 $-1 $190 $68 #
plane-surface $-1 23.602834789095887 74.443231633921172 146.08287557515027 -1 0 0 0 0.69465837861970381 0.71933979245794832 forward_v I I I I #
coedge $-1 $191 $192 $193 $194 reversed $69 $-1 #
coedge $-1 $115 $71 $195 $196 reversed $45 $-1 #
coedge $-1 $71 $114 $191 $197 reversed $45 $-1 #
coedge $-1 $193 $198 $71 $117 forward $199 $-1 #
edge $-1 $200 1.4580867371077275 $201 9.7565643341394335 $116 $202 forward 7 unknown #
loop $-1 $-1 $123 $72 #
plane-surface $-1 17.279955780691864 -15.688730091877446 52.748499085669494 0 0.69465837861970381 0.71933979245794832 1 0 0 forward_v I I I I #
loop $-1 $-1 $203 $47 #
coedge $-1 $121 $121 $122 $204 reversed $73 $-1 #
coedge $-1 $122 $122 $121 $204 forward $75 $-1 #
coedge $-1 $123 $123 $76 $124 forward $118 $-1 #
edge $-1 $205 8.4687133503781203e-016 $205 6.2831853071796013 $123 $206 forward 7 unknown #
face $-1 $207 $208 $26 $-1 $209 forward single #
loop $-1 $-1 $210 $77 #
plane-surface $-1 39.7165215953695 -139.38653022858506 85.277880939578608 1 0 0 0 0.79863551827123203 -0.60181501223851219 forward_v I I I I #
coedge $-1 $211 $212 $213 $214 reversed $78 $-1 #
coedge $-1 $130 $80 $215 $216 reversed $51 $-1 #
coedge $-1 $80 $129 $211 $217 reversed $51 $-1 #
coedge $-1 $213 $218 $80 $132 forward $208 $-1 #
edge $-1 $219 33.929736034439671 $220 36.855804957255806 $131 $221 forward 7 unknown #
loop $-1 $-1 $138 $81 #
plane-surface $-1 46.304444436611107 -35.763529079852844 7.1923509602616349 0 -0.79863551827123203 0.60181501223851219 1 0 0 forward_v I I I I #
loop $-1 $-1 $222 $53 #
coedge $-1 $136 $136 $137 $223 reversed $82 $-1 #
coedge $-1 $137 $137 $136 $223 forward $84 $-1 #
coedge $-1 $138 $138 $85 $139 forward $133 $-1 #
edge $-1 $224 -4.0335713934611979e-017 $224 6.2831853071796004 $138 $225 forward 7 unknown #
face $-1 $226 $227 $21 $-1 $228 reversed single #
loop $-1 $-1 $229 $86 #
plane-surface $-1 -64.875026703695795 0 0 1 0 0 0 0 -1 forward_v I I I I #
coedge $-1 $230 $151 $231 $232 forward $87 $-1 #
coedge $-1 $233 $89 $230 $234 forward $57 $-1 #
coedge $-1 $89 $233 $235 $236 forward $57 $-1 #
coedge $-1 $154 $153 $89 $147 reversed $155 $-1 #
edge $-1 $237 -35.763529079852859 $238 35.763529079852859 $146 $239 forward 7 unknown #
coedge $-1 $91 $90 $240 $241 forward $36 $-1 #
coedge $-1 $242 $243 $90 $150 reversed $227 $-1 #
edge $-1 $157 -64.875026703695795 $244 64.875026703695795 $149 $245 forward 7 unknown #
coedge $-1 $143 $246 $91 $152 reversed $87 $-1 #
edge $-1 $247 -64.875026703695795 $156 64.875026703695795 $151 $248 forward 7 unknown #
coedge $-1 $146 $92 $246 $249 forward $155 $-1 #
coedge $-1 $92 $146 $242 $250 reversed $155 $-1 #
loop $-1 $-1 $153 $226 #
vertex $-1 $93 $251 #
vertex $-1 $93 $252 #
straight-curve $-1 64.875026703695795 0 11.075375682390787 0 1 0 I I #
face $-1 $253 $254 $22 $-1 $255 forward single #
loop $-1 $-1 $256 $94 #
plane-surface $-1 -73.40102105519253 0 9.2603282298662872 1 0 0 0 0 -1 forward_v I I I I #
coedge $-1 $257 $97 $169 $258 reversed $61 $-1 #
coedge $-1 $97 $257 $259 $260 reversed $61 $-1 #
edge $-1 $261 -11.075375682390787 $171 -7.4452807773417877 $97 $262 forward 7 unknown #
coedge $-1 $99 $98 $263 $264 reversed $39 $-1 #
coedge $-1 $265 $266 $99 $167 forward $267 $-1 #
edge $-1 $170 7.4452807773417877 $268 11.075375682390787 $166 $269 forward 7 unknown #
coedge $-1 $270 $100 $266 $271 forward $95 $-1 #
coedge $-1 $100 $270 $162 $258 forward $95 $-1 #
vertex $-1 $167 $272 #
vertex $-1 $164 $273 #
straight-curve $-1 -64.875026703695795 0 7.4452807773417877 0 1 0 I I #
face $-1 $274 $275 $23 $-1 $276 reversed single #
loop $-1 $-1 $277 $102 #
plane-surface $-1 70.866356416617322 -13.612777715071285 0 0 -1 0 0 0 -1 forward_v I I I I #
coedge $-1 $278 $105 $279 $280 forward $65 $-1 #
coedge $-1 $105 $278 $182 $281 forward $65 $-1 #
edge $-1 $184 -16.612777715071285 $282 -13.612777715071285 $105 $283 forward 7 unknown #
coedge $-1 $107 $106 $284 $285 forward $42 $-1 #
coedge $-1 $286 $287 $106 $181 forward $288 $-1 #
edge $-1 $289 13.612777715071285 $185 16.612777715071285 $180 $290 forward 7 unknown #
coedge $-1 $291 $108 $177 $281 reversed $103 $-1 #
coedge $-1 $108 $291 $286 $292 reversed $103 $-1 #
vertex $-1 $178 $293 #
vertex $-1 $292 $294 #
straight-curve $-1 64.875026703695795 -16.612777715071285 0 0 0 1 I I #
face $-1 $-1 $199 $24 $-1 $295 forward single #
loop $-1 $-1 $296 $110 #
plane-surface $-1 0 35.763529079852859 0 0 -1 0 0 0 -1 forward_v I I I I #
coedge $-1 $297 $298 $299 $300 reversed $111 $-1 #
coedge $-1 $301 $113 $115 $197 forward $69 $-1 #
coedge $-1 $113 $301 $297 $302 forward $69 $-1 #
coedge $-1 $299 $116 $113 $194 forward $199 $-1 #
edge $-1 $201 2.3170988819419094 $303 14.962856898749955 $193 $304 forward 7 unknown #
coedge $-1 $305 $306 $114 $196 forward $188 $-1 #
edge $-1 $307 -69.979808950564063 $200 -61.966062105184349 $195 $308 forward 7 unknown #
edge $-1 $201 59.99081661705975 $307 71.527058159705689 $115 $309 forward 7 unknown #
coedge $-1 $116 $299 $305 $310 forward $199 $-1 #
loop $-1 $-1 $299 $187 #
vertex $-1 $196 $311 #
vertex $-1 $117 $312 #
straight-curve $-1 10.957076772287841 37.221615816960586 11.075375682390785 0 -1 0 I I #
coedge $-1 $203 $203 $-1 $313 reversed $120 $-1 #
edge $-1 $314 0 $314 6.2831853071796004 $121 $315 forward 7 unknown #
vertex $-1 $124 $316 #
ellipse-curve $-1 17.279955780691878 31.614290281337002 7.0685022597009262 0 0.69465837861970381 0.71933979245794832 2.5 0 0 1 I I #
face $-1 $-1 $317 $26 $-1 $318 reversed single #
loop $-1 $-1 $131 $125 #
plane-surface $-1 0 0 11.075375682390787 0 0 1 1 0 0 forward_v I I I I #
coedge $-1 $319 $320 $321 $322 reversed $126 $-1 #
coedge $-1 $323 $128 $130 $217 forward $78 $-1 #
coedge $-1 $128 $323 $319 $324 forward $78 $-1 #
coedge $-1 $321 $131 $128 $214 forward $208 $-1 #
edge $-1 $220 -29.74014505954716 $325 -16.564299377063946 $213 $326 forward 7 unknown #
coedge $-1 $327 $328 $129 $216 forward $317 $-1 #
edge $-1 $329 -35.446589509527691 $219 -31.563564787398519 $215 $330 forward 7 unknown #
edge $-1 $220 -4.862073666012936 $329 2.3448253187574213e-014 $130 $331 forward 7 unknown #
coedge $-1 $131 $321 $327 $332 forward $208 $-1 #
vertex $-1 $132 $333 #
vertex $-1 $132 $334 #
straight-curve $-1 52.892367277852713 -69.693265114292529 11.075375682390785 0 1 0 I I #
coedge $-1 $222 $222 $-1 $335 reversed $135 $-1 #
edge $-1 $336 0 $336 6.2831853071796004 $136 $337 forward 7 unknown #
vertex $-1 $139 $338 #
ellipse-curve $-1 46.304444436611107 -34.300494618444787 9.1338633213262028 0 -0.79863551827123203 0.60181501223851219 0.5 0 0 1 I I #
face $-1 $-1 $155 $21 $-1 $339 reversed single #
loop $-1 $-1 $242 $140 #
plane-surface $-1 0 35.763529079852859 0 0 -1 0 0 0 -1 forward_v I I I I #
coedge $-1 $340 $240 $243 $341 forward $141 $-1 #
coedge $-1 $246 $143 $144 $234 reversed $87 $-1 #
coedge $-1 $240 $340 $143 $232 reversed $141 $-1 #
edge $-1 $247 -11.075375682390787 $342 11.075375682390787 $231 $343 forward 7 unknown #
coedge $-1 $145 $144 $340 $344 forward $57 $-1 #
edge $-1 $238 -64.875026703695795 $342 64.875026703695795 $230 $345 forward 7 unknown #
coedge $-1 $243 $242 $145 $236 reversed $227 $-1 #
edge $-1 $346 -64.875026703695795 $237 64.875026703695795 $235 $347 forward 7 unknown #
vertex $-1 $147 $348 #
vertex $-1 $249 $349 #
straight-curve $-1 64.875026703695795 0 -11.075375682390787 0 -1 0 I I #
coedge $-1 $229 $231 $148 $241 reversed $141 $-1 #
edge $-1 $244 -35.763529079852859 $247 35.763529079852859 $240 $350 forward 7 unknown #
coedge $-1 $235 $149 $154 $250 forward $227 $-1 #
coedge $-1 $149 $235 $229 $341 reversed $227 $-1 #
vertex $-1 $150 $351 #
straight-curve $-1 0 35.763529079852859 11.075375682390787 -1 0 0 I I #
coedge $-1 $151 $230 $153 $249 reversed $87 $-1 #
vertex $-1 $241 $352 #
straight-curve $-1 0 -35.763529079852859 11.075375682390787 1 0 0 I I #
edge $-1 $156 -11.075375682390787 $238 11.075375682390787 $153 $353 forward 7 unknown #
edge $-1 $157 -11.075375682390787 $237 11.075375682390787 $154 $354 forward 7 unknown #
point $-1 64.875026703695795 -35.763529079852859 11.075375682390787 #
point $-1 64.875026703695795 35.763529079852859 11.075375682390787 #
face $-1 $-1 $267 $22 $-1 $355 reversed single #
loop $-1 $-1 $263 $159 #
plane-surface $-1 0 0 11.075375682390787 0 0 1 1 0 0 forward_v I I I I #
coedge $-1 $356 $357 $257 $358 forward $160 $-1 #
coedge $-1 $163 $162 $256 $358 reversed $61 $-1 #
edge $-1 $359 -4.2629971757483673 $171 4.2629971757483673 $162 $360 forward 7 unknown #
coedge $-1 $361 $263 $163 $260 forward $254 $-1 #
edge $-1 $261 64.875026703695795 $362 73.40102105519253 $163 $363 forward 7 unknown #
vertex $-1 $260 $364 #
straight-curve $-1 -64.875026703695795 35.763529079852859 0 0 0 -1 I I #
coedge $-1 $259 $365 $165 $264 forward $254 $-1 #
edge $-1 $268 -35.763529079852859 $261 35.763529079852859 $263 $366 forward 7 unknown #
coedge $-1 $367 $166 $365 $368 reversed $267 $-1 #
coedge $-1 $166 $367 $168 $271 reversed $267 $-1 #
loop $-1 $-1 $166 $253 #
vertex $-1 $167 $369 #
straight-curve $-1 -64.875026703695795 -35.763529079852859 0 0 0 1 I I #
coedge $-1 $169 $168 $356 $370 forward $95 $-1 #
edge $-1 $170 -4.2629971757483673 $371 4.2629971757483673 $266 $372 forward 7 unknown #
point $-1 -64.875026703695795 -35.763529079852859 7.4452807773417877 #
point $-1 -64.875026703695795 35.763529079852859 7.4452807773417877 #
face $-1 $-1 $288 $23 $-1 $373 forward single #
loop $-1 $-1 $374 $173 #
plane-surface $-1 76.857686129538848 -15.112777715071285 0 -1 0 0 0 0 1 forward_v I I I I #
coedge $-1 $279 $375 $376 $377 forward $174 $-1 #
coedge $-1 $177 $176 $378 $379 forward $65 $-1 #
coedge $-1 $284 $277 $176 $280 reversed $174 $-1 #
edge $-1 $282 -5.9913297129215266 $380 5.9913297129215266 $279 $381 forward 7 unknown #
edge $-1 $382 -5.9913297129215266 $184 5.9913297129215266 $182 $383 forward 7 unknown #
vertex $-1 $280 $384 #
straight-curve $-1 64.875026703695795 0 -11.075375682390787 0 1 0 I I #
coedge $-1 $375 $279 $179 $285 reversed $174 $-1 #
edge $-1 $289 -11.075375682390787 $282 11.075375682390787 $284 $385 forward 7 unknown #
coedge $-1 $386 $180 $183 $292 forward $288 $-1 #
coedge $-1 $180 $386 $375 $387 forward $288 $-1 #
loop $-1 $-1 $180 $274 #
vertex $-1 $181 $388 #
straight-curve $-1 64.875026703695795 0 11.075375682390787 0 -1 0 I I #
coedge $-1 $183 $182 $374 $389 reversed $103 $-1 #
edge $-1 $185 -5.9913297129215266 $390 5.9913297129215266 $183 $391 forward 7 unknown #
point $-1 64.875026703695795 -16.612777715071285 -11.075375682390787 #
point $-1 64.875026703695795 -16.612777715071285 11.075375682390787 #
plane-surface $-1 0 0 11.075375682390787 0 0 1 1 0 0 forward_v I I I I #
coedge $-1 $306 $305 $298 $392 forward $188 $-1 #
coedge $-1 $298 $190 $192 $302 reversed $111 $-1 #
coedge $-1 $190 $297 $296 $392 reversed $111 $-1 #
coedge $-1 $198 $193 $190 $300 forward $199 $-1 #
edge $-1 $303 -9.7565643341394335 $393 -1.4580867371077275 $299 $394 forward 7 unknown #
coedge $-1 $192 $191 $306 $395 reversed $69 $-1 #
edge $-1 $396 -71.527058159705689 $303 -59.99081661705975 $297 $397 forward 7 unknown #
vertex $-1 $194 $398 #
straight-curve $-1 8.6399778903459321 27.465051482821153 11.075375682390785 1 0 0 I I #
coedge $-1 $296 $195 $198 $310 reversed $188 $-1 #
coedge $-1 $195 $296 $301 $395 forward $188 $-1 #
vertex $-1 $196 $399 #
straight-curve $-1 10.957076772287841 35.763529079852859 73.041437787575134 0 0 1 I I #
straight-curve $-1 10.957076772287841 -15.688730091877446 52.748499085669494 0 0.71933979245794832 -0.69465837861970381 I I #
edge $-1 $393 -23.602834789095887 $200 -10.957076772287841 $305 $400 forward 7 unknown #
point $-1 10.957076772287841 35.763529079852859 11.075375682390787 #
point $-1 10.957076772287841 27.465051482821153 11.075375682390785 #
edge $-1 $401 1 $401 0 $203 $-1 forward 7 unknown #
vertex $-1 $204 $402 #
ellipse-curve $-1 17.279955780691878 27.269415924448602 2.5692532556793206 0 0.69465837861970381 0.71933979245794832 2.5 0 0 1 I I #
point $-1 19.779955780691878 31.614290281336988 7.0685022597009084 #
loop $-1 $-1 $215 $207 #
plane-surface $-1 0 -35.763529079852859 0 0 1 0 0 0 1 forward_v I I I I #
coedge $-1 $320 $210 $212 $324 reversed $126 $-1 #
coedge $-1 $210 $319 $403 $404 reversed $126 $-1 #
coedge $-1 $218 $213 $210 $322 forward $208 $-1 #
edge $-1 $325 -36.855804957255806 $405 -33.929736034439671 $321 $406 forward 7 unknown #
coedge $-1 $212 $211 $328 $407 reversed $78 $-1 #
edge $-1 $408 -2.3448253187574213e-014 $325 4.862073666012936 $319 $409 forward 7 unknown #
vertex $-1 $214 $410 #
straight-curve $-1 23.152222218305553 -32.837460157036716 11.075375682390787 -1 0 0 I I #
coedge $-1 $403 $215 $218 $332 reversed $317 $-1 #
coedge $-1 $215 $403 $323 $407 forward $317 $-1 #
vertex $-1 $216 $411 #
straight-curve $-1 52.892367277852713 -35.763529079852859 42.638940469789304 0 0 1 I I #
straight-curve $-1 52.892367277852713 -35.763529079852844 7.1923509602616349 0 -0.60181501223851219 -0.79863551827123203 I I #
edge $-1 $405 39.7165215953695 $219 52.892367277852713 $327 $412 forward 7 unknown #
point $-1 52.892367277852713 -35.763529079852859 11.075375682390787 #
point $-1 52.892367277852713 -32.837460157036723 11.075375682390787 #
edge $-1 $413 1 $413 0 $222 $-1 forward 7 unknown #
vertex $-1 $223 $414 #
ellipse-curve $-1 46.304444436611107 -32.966600009724189 8.1287016650931285 0 -0.79863551827123203 0.60181501223851219 0.5 0 0 1 I I #
point $-1 46.804444436611107 -34.300494618444795 9.1338633213262082 #
plane-surface $-1 64.875026703695795 0 0 -1 0 0 0 0 1 forward_v I I I I #
coedge $-1 $231 $229 $233 $344 reversed $141 $-1 #
edge $-1 $244 -11.075375682390787 $346 11.075375682390787 $243 $415 forward 7 unknown #
vertex $-1 $344 $416 #
straight-curve $-1 -64.875026703695795 -35.763529079852859 0 0 0 -1 I I #
edge $-1 $342 -35.763529079852859 $346 35.763529079852859 $340 $417 forward 7 unknown #
straight-curve $-1 0 -35.763529079852859 -11.075375682390787 -1 0 0 I I #
vertex $-1 $236 $418 #
straight-curve $-1 0 35.763529079852859 -11.075375682390787 1 0 0 I I #
point $-1 64.875026703695795 35.763529079852859 -11.075375682390787 #
point $-1 64.875026703695795 -35.763529079852859 -11.075375682390787 #
straight-curve $-1 -64.875026703695795 0 11.075375682390787 0 -1 0 I I #
point $-1 -64.875026703695795 35.763529079852859 11.075375682390787 #
point $-1 -64.875026703695795 -35.763529079852859 11.075375682390787 #
straight-curve $-1 64.875026703695795 -35.763529079852859 0 0 0 -1 I I #
straight-curve $-1 64.875026703695795 35.763529079852859 0 0 0 -1 I I #
plane-surface $-1 0 -35.763529079852859 0 0 1 0 0 0 1 forward_v I I I I #
coedge $-1 $419 $256 $270 $370 reversed $160 $-1 #
coedge $-1 $256 $419 $361 $420 reversed $160 $-1 #
edge $-1 $362 -1.8150474525244995 $359 1.8150474525244995 $257 $421 forward 7 unknown #
vertex $-1 $258 $422 #
straight-curve $-1 -69.138023879444162 35.763529079852859 7.4452807773417877 1 0 0 I I #
coedge $-1 $365 $259 $357 $420 forward $254 $-1 #
vertex $-1 $260 $423 #
straight-curve $-1 0 35.763529079852859 11.075375682390787 -1 0 0 I I #
point $-1 -64.875026703695795 35.763529079852859 11.075375682390787 #
coedge $-1 $263 $361 $265 $368 forward $254 $-1 #
straight-curve $-1 -64.875026703695795 0 11.075375682390787 0 1 0 I I #
coedge $-1 $266 $265 $419 $424 forward $267 $-1 #
edge $-1 $425 -73.40102105519253 $268 -64.875026703695795 $265 $426 forward 7 unknown #
point $-1 -64.875026703695795 -35.763529079852859 11.075375682390787 #
edge $-1 $371 -35.763529079852859 $359 35.763529079852859 $356 $427 forward 7 unknown #
vertex $-1 $370 $428 #
straight-curve $-1 -69.138023879444162 -35.763529079852859 7.4452807773417877 -1 0 0 I I #
plane-surface $-1 0 0 11.075375682390787 0 0 1 1 0 0 forward_v I I I I #
coedge $-1 $378 $429 $291 $389 forward $275 $-1 #
coedge $-1 $277 $284 $287 $387 reversed $174 $-1 #
coedge $-1 $429 $378 $277 $377 reversed $275 $-1 #
edge $-1 $430 -11.075375682390787 $380 11.075375682390787 $376 $431 forward 7 unknown #
coedge $-1 $376 $374 $278 $379 reversed $275 $-1 #
edge $-1 $380 -1.5 $382 1.5 $378 $432 forward 7 unknown #
vertex $-1 $379 $433 #
straight-curve $-1 70.866356416617322 -13.612777715071285 -11.075375682390787 1 0 0 I I #
vertex $-1 $389 $434 #
straight-curve $-1 70.866356416617322 -16.612777715071285 -11.075375682390787 -1 0 0 I I #
point $-1 64.875026703695795 -13.612777715071285 -11.075375682390787 #
straight-curve $-1 64.875026703695795 -13.612777715071285 0 0 0 -1 I I #
coedge $-1 $287 $286 $429 $435 forward $288 $-1 #
edge $-1 $430 -5.9913297129215266 $289 5.9913297129215266 $375 $436 forward 7 unknown #
point $-1 64.875026703695795 -13.612777715071285 11.075375682390787 #
edge $-1 $390 -11.075375682390787 $382 11.075375682390787 $374 $437 forward 7 unknown #
vertex $-1 $435 $438 #
straight-curve $-1 70.866356416617322 -16.612777715071285 11.075375682390787 1 0 0 I I #
edge $-1 $393 61.966062105184349 $396 69.979808950564063 $296 $439 forward 7 unknown #
vertex $-1 $310 $440 #
straight-curve $-1 23.602834789095887 37.221615816960586 11.075375682390785 0 1 0 I I #
edge $-1 $396 -14.962856898749955 $307 -2.3170988819419094 $306 $441 forward 7 unknown #
vertex $-1 $395 $442 #
straight-curve $-1 23.602834789095887 -15.688730091877446 52.748499085669494 0 -0.71933979245794832 0.69465837861970381 I I #
point $-1 23.602834789095887 27.465051482821153 11.075375682390785 #
point $-1 10.957076772287841 35.763529079852852 3.0616288370110709 #
straight-curve $-1 0 35.763529079852859 11.075375682390787 -1 0 0 I I #
vertex $-1 $313 $443 #
point $-1 19.779955780691878 27.269415924448602 2.5692532556793206 #
coedge $-1 $328 $327 $320 $404 forward $317 $-1 #
edge $-1 $405 31.563564787398519 $408 35.446589509527691 $403 $444 forward 7 unknown #
vertex $-1 $332 $445 #
straight-curve $-1 39.7165215953695 -69.693265114292529 11.075375682390785 0 -1 0 I I #
edge $-1 $408 16.564299377063946 $329 29.74014505954716 $328 $446 forward 7 unknown #
vertex $-1 $407 $447 #
straight-curve $-1 39.7165215953695 -35.763529079852844 7.1923509602616349 0 0.60181501223851219 0.79863551827123203 I I #
point $-1 39.7165215953695 -32.837460157036723 11.075375682390787 #
point $-1 52.892367277852713 -35.763529079852859 7.1923509602616162 #
straight-curve $-1 0 -35.763529079852859 11.075375682390787 1 0 0 I I #
vertex $-1 $335 $448 #
point $-1 46.804444436611107 -32.966600009724189 8.1287016650931285 #
straight-curve $-1 -64.875026703695795 35.763529079852859 0 0 0 -1 I I #
point $-1 -64.875026703695795 -35.763529079852859 -11.075375682390787 #
straight-curve $-1 -64.875026703695795 0 -11.075375682390787 0 1 0 I I #
point $-1 -64.875026703695795 35.763529079852859 -11.075375682390787 #
coedge $-1 $357 $356 $367 $424 reversed $160 $-1 #
edge $-1 $362 -35.763529079852859 $425 35.763529079852859 $357 $449 forward 7 unknown #
straight-curve $-1 -73.40102105519253 35.763529079852859 9.2603282298662872 0 0 -1 I I #
point $-1 -73.40102105519253 35.763529079852859 7.4452807773417877 #
point $-1 -73.40102105519253 35.763529079852859 11.075375682390787 #
edge $-1 $425 -1.8150474525244995 $371 1.8150474525244995 $419 $450 forward 7 unknown #
vertex $-1 $420 $451 #
straight-curve $-1 0 -35.763529079852859 11.075375682390787 1 0 0 I I #
straight-curve $-1 -73.40102105519253 0 7.4452807773417877 0 1 0 I I #
point $-1 -73.40102105519253 -35.763529079852859 7.4452807773417877 #
coedge $-1 $374 $376 $386 $435 reversed $275 $-1 #
vertex $-1 $435 $452 #
straight-curve $-1 76.857686129538848 -13.612777715071285 0 0 0 -1 I I #
straight-curve $-1 76.857686129538848 -15.112777715071285 -11.075375682390787 0 -1 0 I I #
point $-1 76.857686129538848 -13.612777715071285 -11.075375682390787 #
point $-1 76.857686129538848 -16.612777715071285 -11.075375682390787 #
edge $-1 $390 -1.5 $430 1.5 $429 $453 forward 7 unknown #
straight-curve $-1 70.866356416617322 -13.612777715071285 11.075375682390787 -1 0 0 I I #
straight-curve $-1 76.857686129538848 -16.612777715071285 0 0 0 -1 I I #
point $-1 76.857686129538848 -16.612777715071285 11.075375682390787 #
straight-curve $-1 23.602834789095887 35.763529079852859 73.041437787575134 0 0 -1 I I #
point $-1 23.602834789095887 35.763529079852859 11.075375682390787 #
straight-curve $-1 8.6399778903459321 35.763529079852852 3.0616288370110745 -1 0 0 I I #
point $-1 23.602834789095887 35.763529079852852 3.0616288370110709 #
point $-1 17.279955780691878 25.532769977899342 0.77090377453444991 #
straight-curve $-1 39.7165215953695 -35.763529079852859 42.638940469789304 0 0 -1 I I #
point $-1 39.7165215953695 -35.763529079852859 11.075375682390787 #
straight-curve $-1 23.152222218305553 -35.763529079852859 7.1923509602616171 1 0 0 I I #
point $-1 39.7165215953695 -35.763529079852859 7.1923509602616162 #
point $-1 46.304444436611107 -32.567282250588576 7.8277941589738731 #
straight-curve $-1 -73.40102105519253 0 11.075375682390787 0 -1 0 I I #
straight-curve $-1 -73.40102105519253 -35.763529079852859 9.2603282298662872 0 0 -1 I I #
point $-1 -73.40102105519253 -35.763529079852859 11.075375682390787 #
point $-1 76.857686129538848 -13.612777715071285 11.075375682390787 #
straight-curve $-1 76.857686129538848 -15.112777715071285 11.075375682390787 0 1 0 I I #
End-of-ACIS-data 