500 0 8 0           
7 Unknown 11 ACIS 5.0 NT 24 Fri Mar 26 02:04:42 1999 
-1 9.9999999999999995e-007 1e-010 
body $-1 $8 $-1 $9 #
body $-1 $10 $-1 $11 #
body $-1 $12 $-1 $13 #
body $-1 $14 $-1 $15 #
body $-1 $16 $-1 $17 #
body $-1 $18 $-1 $19 #
body $-1 $20 $-1 $21 #
body $-1 $22 $-1 $23 #
lump $-1 $-1 $24 $0 #
transform $-1 1 0 0 0 1 0 0 0 1 49.645069734794149 23.571067610677204 8.0456131379625599 1 rotate no_reflect no_shear #
lump $-1 $-1 $25 $1 #
transform $-1 1 0 0 0 1 0 0 0 1 49.645069734794149 23.571067610677204 8.0456131379625599 1 rotate no_reflect no_shear #
lump $-1 $-1 $26 $2 #
transform $-1 1 0 0 0 1 0 0 0 1 49.645069734794149 23.571067610677204 8.0456131379625599 1 rotate no_reflect no_shear #
lump $-1 $-1 $27 $3 #
transform $-1 1 0 0 0 1 0 0 0 1 49.645069734794149 23.571067610677204 8.0456131379625599 1 rotate no_reflect no_shear #
lump $-1 $-1 $28 $4 #
transform $-1 1 0 0 0 1 0 0 0 1 49.645069734794149 23.571067610677204 8.0456131379625599 1 rotate no_reflect no_shear #
lump $-1 $-1 $29 $5 #
transform $-1 1 0 0 0 1 0 0 0 1 49.645069734794149 23.571067610677204 8.0456131379625599 1 rotate no_reflect no_shear #
lump $-1 $-1 $30 $6 #
transform $-1 1 0 0 0 1 0 0 0 1 49.645069734794149 23.571067610677204 8.0456131379625599 1 rotate no_reflect no_shear #
lump $-1 $-1 $31 $7 #
transform $-1 1 0 0 0 1 0 0 0 1 49.645069734794149 23.571067610677204 8.0456131379625599 1 rotate no_reflect no_shear #
shell $-1 $-1 $-1 $32 $-1 $8 #
shell $-1 $-1 $-1 $33 $-1 $10 #
shell $-1 $-1 $-1 $34 $-1 $12 #
shell $-1 $-1 $-1 $35 $-1 $14 #
shell $-1 $-1 $-1 $36 $-1 $16 #
shell $-1 $-1 $-1 $37 $-1 $18 #
shell $-1 $-1 $-1 $38 $-1 $20 #
shell $-1 $-1 $-1 $39 $-1 $22 #
face $-1 $40 $41 $24 $-1 $42 forward single #
face $-1 $43 $44 $25 $-1 $45 forward single #
face $-1 $46 $47 $26 $-1 $48 reversed single #
face $-1 $49 $50 $27 $-1 $51 forward single #
face $-1 $52 $53 $28 $-1 $54 reversed single #
face $-1 $55 $56 $29 $-1 $57 forward single #
face $-1 $58 $59 $30 $-1 $60 forward single #
face $-1 $61 $62 $31 $-1 $63 forward single #
face $-1 $64 $65 $24 $-1 $66 reversed single #
loop $-1 $-1 $67 $32 #
plane-surface $-1 0 0 8.0456131379625599 0 0 1 1 0 0 forward_v I I I I #
face $-1 $68 $69 $25 $-1 $70 reversed single #
loop $-1 $-1 $71 $33 #
plane-surface $-1 -44.938058253024792 0 -4.7602372137532445 0 0 1 1 0 0 forward_v I I I I #
face $-1 $72 $73 $26 $-1 $74 reversed single #
loop $-1 $-1 $75 $34 #
plane-surface $-1 8.278211561160628 76.189027314319603 98.585634809847363 1 0 0 0 -0.80901700255871778 -0.5877852410284794 forward_v I I I I #
face $-1 $76 $77 $27 $-1 $78 forward single #
loop $-1 $79 $80 $35 #
cone-surface $-1 12.939059089860379 19.576259152776647 3.7362389326305294 0 -0.80901700255871778 -0.5877852410284794 1.5 0 0 1 I I 0 1 1.5 forward I I I I #
face $-1 $81 $82 $28 $-1 $83 reversed single #
loop $-1 $-1 $84 $36 #
plane-surface $-1 -9.8732868694817473 -98.50628791300467 70.011340136841966 -1 0 0 0 -0.75470958851134928 0.65605901945558964 forward_v I I I I #
face $-1 $85 $86 $29 $-1 $87 forward single #
loop $-1 $88 $89 $37 #
cone-surface $-1 -30.03217586705679 -20.852974745267762 5.2949858230682363 0 0.75470958851134928 -0.65605901945558964 1 0 0 1 I I 0 1 1 forward I I I I #
face $-1 $90 $91 $30 $-1 $92 forward single #
loop $-1 $93 $94 $38 #
cone-surface $-1 -22.472592492966147 -20.852974745267762 5.2949858230682363 0 0.75470958851134928 -0.65605901945558964 1 0 0 1 I I 0 1 1 forward I I I I #
face $-1 $95 $96 $31 $-1 $97 forward single #
loop $-1 $98 $99 $39 #
cone-surface $-1 -14.913009118875507 -20.852974745267762 5.2949858230682363 0 0.75470958851134928 -0.65605901945558964 1 0 0 1 I I 0 1 1 forward I I I I #
face $-1 $100 $101 $24 $-1 $102 reversed single #
loop $-1 $-1 $103 $40 #
plane-surface $-1 0 0 -8.0456131379625599 0 0 1 1 0 0 forward_v I I I I #
coedge $-1 $104 $105 $106 $107 forward $41 $-1 #
face $-1 $108 $109 $25 $-1 $110 reversed single #
loop $-1 $-1 $111 $43 #
plane-surface $-1 -40.231046771255436 0 -6.4029251758579022 -1 0 0 0 0 1 forward_v I I I I #
coedge $-1 $112 $113 $114 $115 forward $44 $-1 #
face $-1 $116 $117 $26 $-1 $118 reversed single #
loop $-1 $-1 $119 $46 #
plane-surface $-1 12.939059089860379 -4.138383703003754 40.224356249964067 0 0.80901700255871778 0.5877852410284794 1 0 0 forward_v I I I I #
coedge $-1 $120 $121 $122 $123 reversed $47 $-1 #
face $-1 $-1 $124 $27 $-1 $125 forward single #
loop $-1 $126 $127 $49 #
cone-surface $-1 12.939059089860379 17.139801257745077 1.9660487060253349 0 -0.80901700255871778 -0.5877852410284794 0.75 0 0 1 I I -0.70710678118654757 0.70710678118654757 0.75 forward I I I I #
loop $-1 $-1 $128 $35 #
coedge $-1 $80 $80 $129 $130 reversed $50 $-1 #
face $-1 $131 $132 $28 $-1 $133 reversed single #
loop $-1 $-1 $134 $52 #
plane-surface $-1 -22.47259249296615 -23.571067610677204 4.871148594815125 0 -0.75470958851134928 0.65605901945558964 1 0 0 forward_v I I I I #
coedge $-1 $135 $136 $137 $138 reversed $53 $-1 #
face $-1 $-1 $139 $29 $-1 $140 forward single #
loop $-1 $141 $142 $55 #
cone-surface $-1 -30.03217586705679 -19.1372870139095 3.8035612700198289 0 0.75470958851134928 -0.65605901945558964 0.5 0 0 1 I I -0.70710678118654746 0.70710678118654746 0.5 forward I I I I #
loop $-1 $-1 $143 $37 #
coedge $-1 $89 $89 $144 $145 reversed $56 $-1 #
face $-1 $-1 $146 $30 $-1 $147 forward single #
loop $-1 $148 $149 $58 #
cone-surface $-1 -22.472592492966147 -19.1372870139095 3.8035612700198289 0 0.75470958851134928 -0.65605901945558964 0.5 0 0 1 I I -0.70710678118654746 0.70710678118654746 0.5 forward I I I I #
loop $-1 $-1 $150 $38 #
coedge $-1 $94 $94 $151 $152 reversed $59 $-1 #
face $-1 $-1 $153 $31 $-1 $154 forward single #
loop $-1 $155 $156 $61 #
cone-surface $-1 -14.913009118875507 -19.1372870139095 3.8035612700198289 0 0.75470958851134928 -0.65605901945558964 0.5 0 0 1 I I -0.70710678118654746 0.70710678118654746 0.5 forward I I I I #
loop $-1 $-1 $157 $39 #
coedge $-1 $99 $99 $158 $159 reversed $62 $-1 #
face $-1 $160 $161 $24 $-1 $162 reversed single #
loop $-1 $-1 $163 $64 #
plane-surface $-1 0 -23.571067610677204 0 0 1 0 0 0 1 forward_v I I I I #
coedge $-1 $164 $165 $166 $167 forward $65 $-1 #
coedge $-1 $168 $67 $169 $170 forward $41 $-1 #
coedge $-1 $67 $168 $171 $172 forward $41 $-1 #
coedge $-1 $173 $174 $67 $107 reversed $175 $-1 #
edge $-1 $176 -23.571067610677204 $177 23.571067610677204 $106 $178 forward 7 unknown #
face $-1 $179 $180 $25 $-1 $181 reversed single #
loop $-1 $-1 $182 $68 #
plane-surface $-1 0 0 -8.0456131379625599 0 0 1 1 0 0 forward_v I I I I #
coedge $-1 $183 $114 $184 $185 reversed $69 $-1 #
coedge $-1 $186 $71 $187 $188 reversed $44 $-1 #
coedge $-1 $71 $186 $189 $190 reversed $44 $-1 #
coedge $-1 $111 $191 $71 $115 reversed $69 $-1 #
edge $-1 $192 -23.571067610677204 $193 23.571067610677204 $114 $194 forward 7 unknown #
face $-1 $195 $196 $26 $-1 $197 reversed single #
loop $-1 $-1 $198 $72 #
plane-surface $-1 17.59990661856013 76.189027314319603 98.585634809847363 -1 0 0 0 0.80901700255871778 0.5877852410284794 forward_v I I I I #
coedge $-1 $199 $200 $201 $202 reversed $73 $-1 #
coedge $-1 $121 $75 $203 $204 reversed $47 $-1 #
coedge $-1 $75 $120 $199 $205 reversed $47 $-1 #
coedge $-1 $201 $206 $75 $123 forward $207 $-1 #
edge $-1 $208 14.523446046482597 $209 18.853672676058661 $122 $210 forward 7 unknown #
loop $-1 $-1 $129 $76 #
plane-surface $-1 12.939059089860379 -4.138383703003754 40.224356249964067 0 0.80901700255871778 0.5877852410284794 1 0 0 forward_v I I I I #
loop $-1 $-1 $211 $49 #
coedge $-1 $127 $127 $128 $212 reversed $77 $-1 #
coedge $-1 $128 $128 $127 $212 forward $79 $-1 #
coedge $-1 $129 $129 $80 $130 forward $124 $-1 #
edge $-1 $213 -4.3408652020844003e-016 $213 6.2831853071796004 $129 $214 forward 7 unknown #
face $-1 $215 $216 $28 $-1 $217 forward single #
loop $-1 $-1 $218 $81 #
plane-surface $-1 -35.071898116450555 -98.50628791300467 70.011340136841966 1 0 0 0 0.75470958851134928 -0.65605901945558964 forward_v I I I I #
coedge $-1 $219 $220 $221 $222 reversed $82 $-1 #
coedge $-1 $136 $84 $223 $224 reversed $53 $-1 #
coedge $-1 $84 $135 $219 $225 reversed $53 $-1 #
coedge $-1 $221 $226 $84 $138 forward $216 $-1 #
edge $-1 $227 25.682076345825131 $228 28.441596202438856 $137 $229 forward 7 unknown #
loop $-1 $-1 $144 $85 #
plane-surface $-1 -22.47259249296615 -23.571067610677204 4.871148594815125 0 -0.75470958851134928 0.65605901945558964 1 0 0 forward_v I I I I #
loop $-1 $-1 $230 $55 #
coedge $-1 $142 $142 $143 $231 reversed $86 $-1 #
coedge $-1 $143 $143 $142 $231 forward $88 $-1 #
coedge $-1 $144 $144 $89 $145 forward $139 $-1 #
edge $-1 $232 -1.6298354003086155e-015 $232 6.2831853071795987 $144 $233 forward 7 unknown #
loop $-1 $-1 $151 $90 #
plane-surface $-1 -22.47259249296615 -23.571067610677204 4.871148594815125 0 -0.75470958851134928 0.65605901945558964 1 0 0 forward_v I I I I #
loop $-1 $-1 $234 $58 #
coedge $-1 $149 $149 $150 $235 reversed $91 $-1 #
coedge $-1 $150 $150 $149 $235 forward $93 $-1 #
coedge $-1 $151 $151 $94 $152 forward $146 $-1 #
edge $-1 $236 -1.6298354003086155e-015 $236 6.2831853071795987 $151 $237 forward 7 unknown #
loop $-1 $-1 $158 $95 #
plane-surface $-1 -22.47259249296615 -23.571067610677204 4.871148594815125 0 -0.75470958851134928 0.65605901945558964 1 0 0 forward_v I I I I #
loop $-1 $-1 $238 $61 #
coedge $-1 $156 $156 $157 $239 reversed $96 $-1 #
coedge $-1 $157 $157 $156 $239 forward $98 $-1 #
coedge $-1 $158 $158 $99 $159 forward $153 $-1 #
edge $-1 $240 -1.6298354003086155e-015 $240 6.2831853071795987 $158 $241 forward 7 unknown #
face $-1 $242 $243 $24 $-1 $244 reversed single #
loop $-1 $-1 $245 $100 #
plane-surface $-1 -49.645069734794149 0 0 1 0 0 0 0 -1 forward_v I I I I #
coedge $-1 $246 $171 $247 $248 forward $101 $-1 #
coedge $-1 $249 $103 $246 $250 forward $65 $-1 #
coedge $-1 $103 $249 $251 $252 forward $65 $-1 #
coedge $-1 $174 $173 $103 $167 reversed $175 $-1 #
edge $-1 $253 -23.571067610677204 $254 23.571067610677204 $166 $255 forward 7 unknown #
coedge $-1 $105 $104 $256 $257 forward $41 $-1 #
coedge $-1 $258 $259 $104 $170 reversed $243 $-1 #
edge $-1 $177 -49.645069734794149 $260 49.645069734794149 $169 $261 forward 7 unknown #
coedge $-1 $163 $262 $105 $172 reversed $101 $-1 #
edge $-1 $263 -49.645069734794149 $176 49.645069734794149 $171 $264 forward 7 unknown #
coedge $-1 $166 $106 $262 $265 forward $175 $-1 #
coedge $-1 $106 $166 $258 $266 reversed $175 $-1 #
loop $-1 $-1 $173 $242 #
vertex $-1 $107 $267 #
vertex $-1 $107 $268 #
straight-curve $-1 49.645069734794149 0 8.0456131379625599 0 1 0 I I #
face $-1 $269 $270 $25 $-1 $271 reversed single #
loop $-1 $-1 $184 $108 #
plane-surface $-1 0 -23.571067610677204 0 0 1 0 0 0 1 forward_v I I I I #
coedge $-1 $272 $273 $183 $274 forward $109 $-1 #
coedge $-1 $191 $111 $182 $274 reversed $69 $-1 #
coedge $-1 $189 $275 $111 $185 forward $180 $-1 #
edge $-1 $276 -4.8441505500336088 $192 -1.5587746258242934 $184 $277 forward 7 unknown #
coedge $-1 $113 $112 $278 $279 reversed $44 $-1 #
coedge $-1 $280 $281 $112 $188 forward $282 $-1 #
edge $-1 $283 -27.176040608281752 $193 -17.76201764474304 $187 $284 forward 7 unknown #
coedge $-1 $285 $184 $113 $190 forward $180 $-1 #
edge $-1 $192 17.76201764474304 $286 27.176040608281752 $189 $287 forward 7 unknown #
coedge $-1 $114 $183 $280 $288 reversed $69 $-1 #
vertex $-1 $190 $289 #
vertex $-1 $188 $290 #
straight-curve $-1 -40.231046771255436 0 -4.7602372137532445 0 1 0 I I #
face $-1 $-1 $207 $26 $-1 $291 forward single #
loop $-1 $-1 $292 $116 #
plane-surface $-1 0 23.571067610677204 0 0 -1 0 0 0 -1 forward_v I I I I #
coedge $-1 $293 $294 $295 $296 reversed $117 $-1 #
coedge $-1 $297 $119 $121 $205 forward $73 $-1 #
coedge $-1 $119 $297 $293 $298 forward $73 $-1 #
coedge $-1 $295 $122 $119 $202 forward $207 $-1 #
edge $-1 $209 1.8086820162304384 $299 11.130377073629941 $201 $300 forward 7 unknown #
coedge $-1 $301 $302 $120 $204 forward $196 $-1 #
edge $-1 $303 -47.207250085957497 $208 -41.24720426696112 $203 $304 forward 7 unknown #
edge $-1 $209 39.775113514584014 $303 47.142135221354387 $121 $305 forward 7 unknown #
coedge $-1 $122 $295 $301 $306 forward $207 $-1 #
loop $-1 $-1 $295 $195 #
vertex $-1 $204 $307 #
vertex $-1 $123 $308 #
straight-curve $-1 8.278211561160628 38.094513657159801 8.0456131379625617 0 -1 0 I I #
coedge $-1 $211 $211 $-1 $309 reversed $126 $-1 #
edge $-1 $310 0 $310 6.2831853071796004 $127 $311 forward 7 unknown #
vertex $-1 $130 $312 #
ellipse-curve $-1 12.939059089860379 21.405954295889178 5.0655902284643659 0 0.80901700255871778 0.5877852410284794 1.5 0 0 1 I I #
face $-1 $-1 $313 $28 $-1 $314 reversed single #
loop $-1 $-1 $137 $131 #
plane-surface $-1 0 0 8.0456131379625599 0 0 1 1 0 0 forward_v I I I I #
coedge $-1 $315 $316 $317 $318 reversed $132 $-1 #
coedge $-1 $319 $134 $136 $225 forward $82 $-1 #
coedge $-1 $134 $319 $315 $320 forward $82 $-1 #
coedge $-1 $317 $137 $134 $222 forward $216 $-1 #
edge $-1 $228 -1.3630093770013278 $321 23.83560186996748 $221 $322 forward 7 unknown #
coedge $-1 $323 $324 $135 $224 forward $313 $-1 #
edge $-1 $325 -30.134521473605858 $227 -26.960056930458421 $223 $326 forward 7 unknown #
edge $-1 $228 -4.2062067204009006 $325 0 $136 $327 forward 7 unknown #
coedge $-1 $137 $317 $323 $328 forward $216 $-1 #
vertex $-1 $138 $329 #
vertex $-1 $138 $330 #
straight-curve $-1 -9.8732868694817473 -49.253143956502335 8.0456131379625617 0 1 0 I I #
coedge $-1 $230 $230 $-1 $331 reversed $141 $-1 #
edge $-1 $332 0 $332 6.2831853071796004 $142 $333 forward 7 unknown #
vertex $-1 $145 $334 #
ellipse-curve $-1 -30.03217586705679 -22.19130768237034 6.4583808663888416 0 -0.75470958851134928 0.65605901945558964 1 0 0 1 I I #
coedge $-1 $234 $234 $-1 $335 reversed $148 $-1 #
edge $-1 $336 0 $336 6.2831853071796004 $149 $337 forward 7 unknown #
vertex $-1 $152 $338 #
ellipse-curve $-1 -22.472592492966147 -22.19130768237034 6.4583808663888416 0 -0.75470958851134928 0.65605901945558964 1 0 0 1 I I #
coedge $-1 $238 $238 $-1 $339 reversed $155 $-1 #
edge $-1 $340 0 $340 6.2831853071796004 $156 $341 forward 7 unknown #
vertex $-1 $159 $342 #
ellipse-curve $-1 -14.913009118875507 -22.19130768237034 6.4583808663888416 0 -0.75470958851134928 0.65605901945558964 1 0 0 1 I I #
face $-1 $-1 $175 $24 $-1 $343 reversed single #
loop $-1 $-1 $258 $160 #
plane-surface $-1 0 23.571067610677204 0 0 -1 0 0 0 -1 forward_v I I I I #
coedge $-1 $344 $256 $259 $345 forward $161 $-1 #
coedge $-1 $262 $163 $164 $250 reversed $101 $-1 #
coedge $-1 $256 $344 $163 $248 reversed $161 $-1 #
edge $-1 $263 -8.0456131379625599 $346 8.0456131379625599 $247 $347 forward 7 unknown #
coedge $-1 $165 $164 $344 $348 forward $65 $-1 #
edge $-1 $254 -49.645069734794149 $346 49.645069734794149 $246 $349 forward 7 unknown #
coedge $-1 $259 $258 $165 $252 reversed $243 $-1 #
edge $-1 $350 -49.645069734794149 $253 49.645069734794149 $251 $351 forward 7 unknown #
vertex $-1 $167 $352 #
vertex $-1 $265 $353 #
straight-curve $-1 49.645069734794149 0 -8.0456131379625599 0 -1 0 I I #
coedge $-1 $245 $247 $168 $257 reversed $161 $-1 #
edge $-1 $260 -23.571067610677204 $263 23.571067610677204 $256 $354 forward 7 unknown #
coedge $-1 $251 $169 $174 $266 forward $243 $-1 #
coedge $-1 $169 $251 $245 $345 reversed $243 $-1 #
vertex $-1 $170 $355 #
straight-curve $-1 0 23.571067610677204 8.0456131379625599 -1 0 0 I I #
coedge $-1 $171 $246 $173 $265 reversed $101 $-1 #
vertex $-1 $257 $356 #
straight-curve $-1 0 -23.571067610677204 8.0456131379625599 1 0 0 I I #
edge $-1 $176 -8.0456131379625599 $254 8.0456131379625599 $173 $357 forward 7 unknown #
edge $-1 $177 -8.0456131379625599 $253 8.0456131379625599 $174 $358 forward 7 unknown #
point $-1 49.645069734794149 -23.571067610677204 8.0456131379625599 #
point $-1 49.645069734794149 23.571067610677204 8.0456131379625599 #
face $-1 $-1 $282 $25 $-1 $359 reversed single #
loop $-1 $-1 $278 $179 #
plane-surface $-1 -49.645069734794149 0 0 1 0 0 0 0 -1 forward_v I I I I #
coedge $-1 $360 $182 $275 $361 forward $109 $-1 #
coedge $-1 $182 $360 $362 $363 forward $109 $-1 #
edge $-1 $364 -23.571067610677204 $276 23.571067610677204 $182 $365 forward 7 unknown #
coedge $-1 $184 $285 $272 $361 reversed $180 $-1 #
vertex $-1 $361 $366 #
straight-curve $-1 -40.231046771255436 -23.571067610677204 -3.2014625879289511 0 0 1 I I #
coedge $-1 $367 $368 $186 $279 forward $270 $-1 #
edge $-1 $286 -23.571067610677204 $283 23.571067610677204 $278 $369 forward 7 unknown #
coedge $-1 $362 $187 $191 $288 forward $282 $-1 #
coedge $-1 $187 $362 $367 $370 reversed $282 $-1 #
loop $-1 $-1 $280 $269 #
vertex $-1 $370 $371 #
straight-curve $-1 -22.469029126512396 23.571067610677204 -4.7602372137532445 1 0 0 I I #
coedge $-1 $275 $189 $368 $372 forward $180 $-1 #
vertex $-1 $372 $373 #
straight-curve $-1 -22.469029126512396 -23.571067610677204 -4.7602372137532445 -1 0 0 I I #
edge $-1 $193 1.5587746258242934 $364 4.8441505500336088 $280 $374 forward 7 unknown #
point $-1 -40.231046771255436 -23.571067610677204 -4.7602372137532445 #
point $-1 -40.231046771255436 23.571067610677204 -4.7602372137532445 #
plane-surface $-1 0 0 8.0456131379625599 0 0 1 1 0 0 forward_v I I I I #
coedge $-1 $302 $301 $294 $375 forward $196 $-1 #
coedge $-1 $294 $198 $200 $298 reversed $117 $-1 #
coedge $-1 $198 $293 $292 $375 reversed $117 $-1 #
coedge $-1 $206 $201 $198 $296 forward $207 $-1 #
edge $-1 $299 -18.853672676058661 $376 -14.523446046482597 $295 $377 forward 7 unknown #
coedge $-1 $200 $199 $302 $378 reversed $73 $-1 #
edge $-1 $379 -47.142135221354387 $299 -39.775113514584014 $293 $380 forward 7 unknown #
vertex $-1 $202 $381 #
straight-curve $-1 6.4695295449301895 19.24084098110114 8.0456131379625617 1 0 0 I I #
coedge $-1 $292 $203 $206 $306 reversed $196 $-1 #
coedge $-1 $203 $292 $297 $378 forward $196 $-1 #
vertex $-1 $204 $382 #
straight-curve $-1 8.278211561160628 23.571067610677204 49.292817404923682 0 0 1 I I #
straight-curve $-1 8.278211561160628 -4.138383703003754 40.224356249964067 0 0.5877852410284794 -0.80901700255871778 I I #
edge $-1 $376 -17.59990661856013 $208 -8.278211561160628 $301 $383 forward 7 unknown #
point $-1 8.278211561160628 23.571067610677204 8.0456131379625599 #
point $-1 8.278211561160628 19.24084098110114 8.0456131379625617 #
edge $-1 $384 1 $384 0 $211 $-1 forward 7 unknown #
vertex $-1 $212 $385 #
ellipse-curve $-1 12.939059089860379 17.746564009664116 2.4068876367966943 0 0.80901700255871778 0.5877852410284794 1.5 0 0 1 I I #
point $-1 14.439059089860379 21.405954295889174 5.0655902284643641 #
loop $-1 $-1 $223 $215 #
plane-surface $-1 0 -23.571067610677204 0 0 1 0 0 0 1 forward_v I I I I #
coedge $-1 $316 $218 $220 $320 reversed $132 $-1 #
coedge $-1 $218 $315 $386 $387 reversed $132 $-1 #
coedge $-1 $226 $221 $218 $318 forward $216 $-1 #
edge $-1 $321 -28.441596202438856 $388 -25.682076345825131 $317 $389 forward 7 unknown #
coedge $-1 $220 $219 $324 $390 reversed $82 $-1 #
edge $-1 $391 0 $321 4.2062067204009006 $315 $392 forward 7 unknown #
vertex $-1 $222 $393 #
straight-curve $-1 -11.236296246483075 -20.811547754063479 8.0456131379625599 -1 0 0 I I #
coedge $-1 $386 $223 $226 $328 reversed $313 $-1 #
coedge $-1 $223 $386 $319 $390 forward $313 $-1 #
vertex $-1 $224 $394 #
straight-curve $-1 -9.8732868694817473 -23.571067610677204 35.005670068420983 0 0 1 I I #
straight-curve $-1 -9.8732868694817473 -23.571067610677204 4.871148594815125 0 -0.65605901945558964 -0.75470958851134928 I I #
edge $-1 $388 -35.071898116450555 $227 -9.8732868694817473 $323 $395 forward 7 unknown #
point $-1 -9.8732868694817473 -23.571067610677204 8.0456131379625599 #
point $-1 -9.8732868694817473 -20.811547754063479 8.0456131379625599 #
edge $-1 $396 1 $396 0 $230 $-1 forward 7 unknown #
vertex $-1 $231 $397 #
ellipse-curve $-1 -30.03217586705679 -19.514641808165173 4.1315907797476239 0 -0.75470958851134928 0.65605901945558964 1 0 0 1 I I #
point $-1 -29.03217586705679 -22.191307682370351 6.4583808663888487 #
edge $-1 $398 1 $398 0 $234 $-1 forward 7 unknown #
vertex $-1 $235 $399 #
ellipse-curve $-1 -22.472592492966147 -19.514641808165173 4.1315907797476239 0 -0.75470958851134928 0.65605901945558964 1 0 0 1 I I #
point $-1 -21.472592492966147 -22.191307682370351 6.4583808663888487 #
edge $-1 $400 1 $400 0 $238 $-1 forward 7 unknown #
vertex $-1 $239 $401 #
ellipse-curve $-1 -14.913009118875507 -19.514641808165173 4.1315907797476239 0 -0.75470958851134928 0.65605901945558964 1 0 0 1 I I #
point $-1 -13.913009118875507 -22.191307682370351 6.4583808663888487 #
plane-surface $-1 49.645069734794149 0 0 -1 0 0 0 0 1 forward_v I I I I #
coedge $-1 $247 $245 $249 $348 reversed $161 $-1 #
edge $-1 $260 -8.0456131379625599 $350 8.0456131379625599 $259 $402 forward 7 unknown #
vertex $-1 $348 $403 #
straight-curve $-1 -49.645069734794149 -23.571067610677204 0 0 0 -1 I I #
edge $-1 $346 -23.571067610677204 $350 23.571067610677204 $344 $404 forward 7 unknown #
straight-curve $-1 0 -23.571067610677204 -8.0456131379625599 -1 0 0 I I #
vertex $-1 $252 $405 #
straight-curve $-1 0 23.571067610677204 -8.0456131379625599 1 0 0 I I #
point $-1 49.645069734794149 23.571067610677204 -8.0456131379625599 #
point $-1 49.645069734794149 -23.571067610677204 -8.0456131379625599 #
straight-curve $-1 -49.645069734794149 0 8.0456131379625599 0 -1 0 I I #
point $-1 -49.645069734794149 23.571067610677204 8.0456131379625599 #
point $-1 -49.645069734794149 -23.571067610677204 8.0456131379625599 #
straight-curve $-1 49.645069734794149 -23.571067610677204 0 0 0 -1 I I #
straight-curve $-1 49.645069734794149 23.571067610677204 0 0 0 -1 I I #
plane-surface $-1 0 23.571067610677204 0 0 -1 0 0 0 -1 forward_v I I I I #
coedge $-1 $273 $272 $406 $407 forward $109 $-1 #
edge $-1 $276 40.231046771255436 $408 49.645069734794149 $275 $409 forward 7 unknown #
coedge $-1 $281 $280 $273 $363 reversed $282 $-1 #
edge $-1 $410 -49.645069734794149 $364 -40.231046771255436 $362 $411 forward 7 unknown #
vertex $-1 $288 $412 #
straight-curve $-1 -40.231046771255436 0 -8.0456131379625599 0 -1 0 I I #
point $-1 -40.231046771255436 -23.571067610677204 -8.0456131379625599 #
coedge $-1 $406 $278 $281 $370 forward $270 $-1 #
coedge $-1 $278 $406 $285 $372 reversed $270 $-1 #
straight-curve $-1 -49.645069734794149 0 -4.7602372137532445 0 1 0 I I #
edge $-1 $283 4.7602372137532445 $410 8.0456131379625599 $281 $413 forward 7 unknown #
point $-1 -49.645069734794149 23.571067610677204 -4.7602372137532445 #
edge $-1 $286 4.7602372137532445 $408 8.0456131379625599 $368 $414 forward 7 unknown #
point $-1 -49.645069734794149 -23.571067610677204 -4.7602372137532445 #
straight-curve $-1 -40.231046771255436 23.571067610677204 -3.2014625879289511 0 0 -1 I I #
edge $-1 $376 41.24720426696112 $379 47.207250085957497 $292 $415 forward 7 unknown #
vertex $-1 $306 $416 #
straight-curve $-1 17.59990661856013 38.094513657159801 8.0456131379625617 0 1 0 I I #
edge $-1 $379 -11.130377073629941 $303 -1.8086820162304384 $302 $417 forward 7 unknown #
vertex $-1 $378 $418 #
straight-curve $-1 17.59990661856013 -4.138383703003754 40.224356249964067 0 -0.5877852410284794 0.80901700255871778 I I #
point $-1 17.59990661856013 19.24084098110114 8.0456131379625617 #
point $-1 8.278211561160628 23.571067610677201 2.0855673189661843 #
straight-curve $-1 0 23.571067610677204 8.0456131379625599 -1 0 0 I I #
vertex $-1 $309 $419 #
point $-1 14.439059089860379 17.746564009664116 2.4068876367966943 #
coedge $-1 $324 $323 $316 $387 forward $313 $-1 #
edge $-1 $388 26.960056930458421 $391 30.134521473605858 $386 $420 forward 7 unknown #
vertex $-1 $328 $421 #
straight-curve $-1 -35.071898116450555 -49.253143956502335 8.0456131379625617 0 -1 0 I I #
edge $-1 $391 -23.83560186996748 $325 1.3630093770013278 $324 $422 forward 7 unknown #
vertex $-1 $390 $423 #
straight-curve $-1 -35.071898116450555 -23.571067610677204 4.871148594815125 0 0.65605901945558964 0.75470958851134928 I I #
point $-1 -35.071898116450555 -20.811547754063479 8.0456131379625599 #
point $-1 -9.8732868694817473 -23.571067610677204 4.871148594815125 #
straight-curve $-1 0 -23.571067610677204 8.0456131379625599 1 0 0 I I #
vertex $-1 $331 $424 #
point $-1 -29.03217586705679 -19.514641808165173 4.1315907797476239 #
vertex $-1 $335 $425 #
point $-1 -21.472592492966147 -19.514641808165173 4.1315907797476239 #
vertex $-1 $339 $426 #
point $-1 -13.913009118875507 -19.514641808165173 4.1315907797476239 #
straight-curve $-1 -49.645069734794149 23.571067610677204 0 0 0 -1 I I #
point $-1 -49.645069734794149 -23.571067610677204 -8.0456131379625599 #
straight-curve $-1 -49.645069734794149 0 -8.0456131379625599 0 1 0 I I #
point $-1 -49.645069734794149 23.571067610677204 -8.0456131379625599 #
coedge $-1 $368 $367 $360 $407 reversed $270 $-1 #
edge $-1 $408 -23.571067610677204 $410 23.571067610677204 $406 $427 forward 7 unknown #
vertex $-1 $407 $428 #
straight-curve $-1 0 -23.571067610677204 -8.0456131379625599 -1 0 0 I I #
vertex $-1 $363 $429 #
straight-curve $-1 0 23.571067610677204 -8.0456131379625599 1 0 0 I I #
point $-1 -40.231046771255436 23.571067610677204 -8.0456131379625599 #
straight-curve $-1 -49.645069734794149 23.571067610677204 0 0 0 -1 I I #
straight-curve $-1 -49.645069734794149 -23.571067610677204 0 0 0 -1 I I #
straight-curve $-1 17.59990661856013 23.571067610677204 49.292817404923682 0 0 -1 I I #
point $-1 17.59990661856013 23.571067610677204 8.0456131379625599 #
straight-curve $-1 6.4695295449301895 23.571067610677204 2.0855673189661879 -1 0 0 I I #
point $-1 17.59990661856013 23.571067610677201 2.0855673189661843 #
point $-1 12.939059089860379 16.533038505826038 1.5252097752539753 #
straight-curve $-1 -35.071898116450555 -23.571067610677204 35.005670068420983 0 0 -1 I I #
point $-1 -35.071898116450555 -23.571067610677204 8.0456131379625599 #
straight-curve $-1 -11.236296246483075 -23.571067610677204 4.8711485948151241 1 0 0 I I #
point $-1 -35.071898116450555 -23.571067610677204 4.871148594815125 #
point $-1 -30.03217586705679 -18.759932219653827 3.4755317602920339 #
point $-1 -22.472592492966147 -18.759932219653827 3.4755317602920339 #
point $-1 -14.913009118875507 -18.759932219653827 3.4755317602920339 #
straight-curve $-1 -49.645069734794149 0 -8.0456131379625599 0 1 0 I I #
point $-1 -49.645069734794149 -23.571067610677204 -8.0456131379625599 #
point $-1 -49.645069734794149 23.571067610677204 -8.0456131379625599 #
End-of-ACIS-data 