500 0 8 0           
7 Unknown 11 ACIS 5.0 NT 24 Fri Mar 26 17:28:07 1999 
-1 9.9999999999999995e-007 1e-010 
body $-1 $8 $-1 $9 #
body $-1 $10 $-1 $11 #
body $-1 $12 $-1 $13 #
body $-1 $14 $-1 $15 #
body $-1 $16 $-1 $17 #
body $-1 $18 $-1 $19 #
body $-1 $20 $-1 $21 #
body $-1 $22 $-1 $23 #
lump $-1 $-1 $24 $0 #
transform $-1 1 0 0 0 1 0 0 0 1 49.339884640034178 30.113185491050736 14.840993108201216 1 rotate no_reflect no_shear #
lump $-1 $-1 $25 $1 #
transform $-1 1 0 0 0 1 0 0 0 1 49.339884640034178 30.113185491050736 14.840993108201216 1 rotate no_reflect no_shear #
lump $-1 $-1 $26 $2 #
transform $-1 1 0 0 0 1 0 0 0 1 49.339884640034178 30.113185491050736 14.840993108201216 1 rotate no_reflect no_shear #
lump $-1 $-1 $27 $3 #
transform $-1 1 0 0 0 1 0 0 0 1 49.339884640034178 30.113185491050736 14.840993108201216 1 rotate no_reflect no_shear #
lump $-1 $-1 $28 $4 #
transform $-1 1 0 0 0 1 0 0 0 1 49.339884640034178 30.113185491050736 14.840993108201216 1 rotate no_reflect no_shear #
lump $-1 $-1 $29 $5 #
transform $-1 1 0 0 0 1 0 0 0 1 49.339884640034178 30.113185491050736 14.840993108201216 1 rotate no_reflect no_shear #
lump $-1 $-1 $30 $6 #
transform $-1 1 0 0 0 1 0 0 0 1 49.339884640034178 30.113185491050736 14.840993108201216 1 rotate no_reflect no_shear #
lump $-1 $-1 $31 $7 #
transform $-1 1 0 0 0 1 0 0 0 1 49.339884640034178 30.113185491050736 14.840993108201216 1 rotate no_reflect no_shear #
shell $-1 $-1 $-1 $32 $-1 $8 #
shell $-1 $-1 $-1 $33 $-1 $10 #
shell $-1 $-1 $-1 $34 $-1 $12 #
shell $-1 $-1 $-1 $35 $-1 $14 #
shell $-1 $-1 $-1 $36 $-1 $16 #
shell $-1 $-1 $-1 $37 $-1 $18 #
shell $-1 $-1 $-1 $38 $-1 $20 #
shell $-1 $-1 $-1 $39 $-1 $22 #
face $-1 $40 $41 $24 $-1 $42 forward single #
face $-1 $43 $44 $25 $-1 $45 forward single #
face $-1 $46 $47 $26 $-1 $48 reversed single #
face $-1 $49 $50 $27 $-1 $51 forward single #
face $-1 $52 $53 $28 $-1 $54 reversed single #
face $-1 $55 $56 $29 $-1 $57 forward single #
face $-1 $58 $59 $30 $-1 $60 reversed single #
face $-1 $61 $62 $31 $-1 $63 forward single #
face $-1 $64 $65 $24 $-1 $66 reversed single #
loop $-1 $-1 $67 $32 #
plane-surface $-1 0 0 14.840993108201216 0 0 1 1 0 0 forward_v I I I I #
face $-1 $68 $69 $25 $-1 $70 reversed single #
loop $-1 $-1 $71 $33 #
plane-surface $-1 -41.304931929120002 0 -9.5130552948825056 0 0 1 1 0 0 forward_v I I I I #
face $-1 $72 $73 $26 $-1 $74 reversed single #
loop $-1 $-1 $75 $34 #
plane-surface $-1 -2.2753341246663048 -86.713576624116115 91.655665454896067 1 0 0 0 0.57357644374324357 -0.81915203911291934 forward_v I I I I #
face $-1 $76 $77 $27 $-1 $78 forward single #
loop $-1 $79 $80 $35 #
cone-surface $-1 2.8798092931239268 -26.532434030630863 11.816271874921068 0 0.57357644374324357 -0.81915203911291934 1.5 0 0 1 I I 0 1 1.5 forward I I I I #
face $-1 $81 $82 $28 $-1 $83 reversed single #
loop $-1 $-1 $84 $36 #
plane-surface $-1 39.029597804453701 -86.713576624116115 91.655665454896067 1 0 0 0 0.57357644374324357 -0.81915203911291934 forward_v I I I I #
face $-1 $85 $86 $29 $-1 $87 forward single #
loop $-1 $88 $89 $37 #
cone-surface $-1 44.184741222243922 -26.532434030630863 11.816271874921068 0 0.57357644374324357 -0.81915203911291934 1.5 0 0 1 I I 0 1 1.5 forward I I I I #
face $-1 $90 $91 $30 $-1 $92 reversed single #
loop $-1 $-1 $93 $38 #
plane-surface $-1 -33.269979218205833 49.399521148673877 123.22105670259569 1 0 0 0 -0.6560590369687036 -0.75470957328743171 forward_v I I I I #
face $-1 $94 $95 $31 $-1 $96 forward single #
loop $-1 $97 $98 $39 #
cone-surface $-1 -24.110336074904197 25.802772186826065 10.788862934003234 0 -0.6560590369687036 -0.75470957328743171 1 0 0 1 I I 0 1 1 forward I I I I #
face $-1 $99 $100 $24 $-1 $101 reversed single #
loop $-1 $-1 $102 $40 #
plane-surface $-1 0 0 -14.840993108201216 0 0 1 1 0 0 forward_v I I I I #
coedge $-1 $103 $104 $105 $106 forward $41 $-1 #
face $-1 $107 $108 $25 $-1 $109 reversed single #
loop $-1 $-1 $110 $43 #
plane-surface $-1 -33.269979218205826 0 -12.177024201541862 -1 0 0 0 0 1 forward_v I I I I #
coedge $-1 $111 $112 $113 $114 forward $44 $-1 #
face $-1 $115 $116 $26 $-1 $117 reversed single #
loop $-1 $-1 $118 $46 #
plane-surface $-1 2.8798092931239339 -30.113185491050722 10.821931229935643 0 -0.57357644374324357 0.81915203911291934 1 0 0 forward_v I I I I #
coedge $-1 $119 $120 $121 $122 reversed $47 $-1 #
face $-1 $-1 $123 $27 $-1 $124 forward single #
loop $-1 $125 $126 $49 #
cone-surface $-1 2.8798092931239268 -25.391407787491133 10.186717551439012 0 0.57357644374324357 -0.81915203911291934 0.75 0 0 1 I I -0.70710678118654757 0.70710678118654757 0.75 forward I I I I #
loop $-1 $-1 $127 $35 #
coedge $-1 $80 $80 $128 $129 reversed $50 $-1 #
face $-1 $130 $131 $28 $-1 $132 reversed single #
loop $-1 $-1 $133 $52 #
plane-surface $-1 44.184741222243936 -30.113185491050722 10.821931229935643 0 -0.57357644374324357 0.81915203911291934 1 0 0 forward_v I I I I #
coedge $-1 $134 $135 $136 $137 reversed $53 $-1 #
face $-1 $-1 $138 $29 $-1 $139 forward single #
loop $-1 $140 $141 $55 #
cone-surface $-1 44.184741222243922 -25.391407787491133 10.186717551439012 0 0.57357644374324357 -0.81915203911291934 0.75 0 0 1 I I -0.70710678118654757 0.70710678118654757 0.75 forward I I I I #
loop $-1 $-1 $142 $37 #
coedge $-1 $89 $89 $143 $144 reversed $56 $-1 #
face $-1 $145 $146 $30 $-1 $147 reversed single #
loop $-1 $-1 $148 $58 #
plane-surface $-1 -24.110336074904197 -15.34023325350163 48.746490137133094 0 0.6560590369687036 0.75470957328743171 1 0 0 forward_v I I I I #
coedge $-1 $149 $150 $151 $152 reversed $59 $-1 #
face $-1 $-1 $153 $31 $-1 $154 forward single #
loop $-1 $155 $156 $61 #
cone-surface $-1 -24.110336074904197 24.389132846158418 9.1626569320142668 0 -0.6560590369687036 -0.75470957328743171 0.5 0 0 1 I I -0.70710678118654746 0.70710678118654746 0.5 forward I I I I #
loop $-1 $-1 $157 $39 #
coedge $-1 $98 $98 $158 $159 reversed $62 $-1 #
face $-1 $160 $161 $24 $-1 $162 reversed single #
loop $-1 $-1 $163 $64 #
plane-surface $-1 0 -30.113185491050736 0 0 1 0 0 0 1 forward_v I I I I #
coedge $-1 $164 $165 $166 $167 forward $65 $-1 #
coedge $-1 $168 $67 $169 $170 forward $41 $-1 #
coedge $-1 $67 $168 $171 $172 forward $41 $-1 #
coedge $-1 $173 $174 $67 $106 reversed $175 $-1 #
edge $-1 $176 -30.113185491050736 $177 30.113185491050736 $105 $178 forward 7 unknown #
face $-1 $179 $180 $25 $-1 $181 reversed single #
loop $-1 $-1 $182 $68 #
plane-surface $-1 0 0 -14.840993108201216 0 0 1 1 0 0 forward_v I I I I #
coedge $-1 $183 $113 $184 $185 reversed $69 $-1 #
coedge $-1 $186 $71 $187 $188 reversed $44 $-1 #
coedge $-1 $71 $186 $189 $190 reversed $44 $-1 #
coedge $-1 $110 $191 $71 $114 reversed $69 $-1 #
edge $-1 $192 -30.113185491050736 $193 30.113185491050736 $113 $194 forward 7 unknown #
face $-1 $195 $196 $26 $-1 $197 forward single #
loop $-1 $-1 $198 $72 #
plane-surface $-1 8.0349527109141725 -86.713576624116115 91.655665454896067 -1 0 0 0 -0.57357644374324357 0.81915203911291934 forward_v I I I I #
coedge $-1 $199 $200 $201 $202 reversed $73 $-1 #
coedge $-1 $120 $75 $203 $204 reversed $47 $-1 #
coedge $-1 $75 $119 $199 $205 reversed $47 $-1 #
coedge $-1 $201 $206 $75 $122 forward $207 $-1 #
edge $-1 $208 30.986839619246815 $209 35.005901497512397 $121 $210 forward 7 unknown #
loop $-1 $-1 $128 $76 #
plane-surface $-1 2.8798092931239339 -30.113185491050722 10.821931229935643 0 -0.57357644374324357 0.81915203911291934 1 0 0 forward_v I I I I #
loop $-1 $-1 $211 $49 #
coedge $-1 $126 $126 $127 $212 reversed $77 $-1 #
coedge $-1 $127 $127 $126 $212 forward $79 $-1 #
coedge $-1 $128 $128 $80 $129 forward $123 $-1 #
edge $-1 $213 -1.6473084457570081e-015 $213 6.2831853071795987 $128 $214 forward 7 unknown #
face $-1 $215 $216 $28 $-1 $217 forward single #
loop $-1 $-1 $136 $81 #
plane-surface $-1 0 -30.113185491050736 0 0 1 0 0 0 1 forward_v I I I I #
coedge $-1 $218 $219 $220 $221 reversed $82 $-1 #
coedge $-1 $135 $84 $222 $223 reversed $53 $-1 #
coedge $-1 $84 $134 $218 $224 reversed $53 $-1 #
coedge $-1 $220 $225 $84 $137 forward $131 $-1 #
edge $-1 $226 30.986839619246815 $227 35.005901497512397 $136 $228 forward 7 unknown #
loop $-1 $-1 $143 $85 #
plane-surface $-1 44.184741222243936 -30.113185491050722 10.821931229935643 0 -0.57357644374324357 0.81915203911291934 1 0 0 forward_v I I I I #
loop $-1 $-1 $229 $55 #
coedge $-1 $141 $141 $142 $230 reversed $86 $-1 #
coedge $-1 $142 $142 $141 $230 forward $88 $-1 #
coedge $-1 $143 $143 $89 $144 forward $138 $-1 #
edge $-1 $231 -1.6473084457570081e-015 $231 6.2831853071795987 $143 $232 forward 7 unknown #
face $-1 $233 $234 $30 $-1 $235 reversed single #
loop $-1 $-1 $236 $90 #
plane-surface $-1 -14.950692931602562 49.399521148673877 123.22105670259569 -1 0 0 0 0.6560590369687036 0.75470957328743171 forward_v I I I I #
coedge $-1 $237 $238 $239 $240 reversed $91 $-1 #
coedge $-1 $150 $93 $241 $242 reversed $59 $-1 #
coedge $-1 $93 $149 $237 $243 reversed $59 $-1 #
coedge $-1 $239 $244 $93 $152 forward $245 $-1 #
edge $-1 $246 -5.4134249167137973 $247 1.0361820473689711 $151 $248 forward 7 unknown #
loop $-1 $-1 $158 $94 #
plane-surface $-1 -24.110336074904197 -15.34023325350163 48.746490137133094 0 0.6560590369687036 0.75470957328743171 1 0 0 forward_v I I I I #
loop $-1 $-1 $249 $61 #
coedge $-1 $156 $156 $157 $250 reversed $95 $-1 #
coedge $-1 $157 $157 $156 $250 forward $97 $-1 #
coedge $-1 $158 $158 $98 $159 forward $153 $-1 #
edge $-1 $251 2.5673033965719019e-015 $251 6.2831853071796031 $158 $252 forward 7 unknown #
face $-1 $253 $254 $24 $-1 $255 reversed single #
loop $-1 $-1 $256 $99 #
plane-surface $-1 -49.339884640034178 0 0 1 0 0 0 0 -1 forward_v I I I I #
coedge $-1 $257 $171 $258 $259 forward $100 $-1 #
coedge $-1 $260 $102 $257 $261 forward $65 $-1 #
coedge $-1 $102 $260 $262 $263 forward $65 $-1 #
coedge $-1 $174 $173 $102 $167 reversed $175 $-1 #
edge $-1 $264 -30.113185491050736 $265 30.113185491050736 $166 $266 forward 7 unknown #
coedge $-1 $104 $103 $267 $268 forward $41 $-1 #
coedge $-1 $269 $270 $103 $170 reversed $254 $-1 #
edge $-1 $177 -49.339884640034178 $271 49.339884640034178 $169 $272 forward 7 unknown #
coedge $-1 $163 $273 $104 $172 reversed $100 $-1 #
edge $-1 $274 -49.339884640034178 $176 49.339884640034178 $171 $275 forward 7 unknown #
coedge $-1 $166 $105 $273 $276 forward $175 $-1 #
coedge $-1 $105 $166 $269 $277 reversed $175 $-1 #
loop $-1 $-1 $173 $253 #
vertex $-1 $106 $278 #
vertex $-1 $106 $279 #
straight-curve $-1 49.339884640034178 0 14.840993108201216 0 1 0 I I #
face $-1 $280 $281 $25 $-1 $282 reversed single #
loop $-1 $-1 $184 $107 #
plane-surface $-1 0 -30.113185491050736 0 0 1 0 0 0 1 forward_v I I I I #
coedge $-1 $283 $284 $183 $285 forward $108 $-1 #
coedge $-1 $191 $110 $182 $285 reversed $69 $-1 #
coedge $-1 $189 $286 $110 $185 forward $180 $-1 #
edge $-1 $287 -8.752481007430287 $192 -3.4245431941115747 $184 $288 forward 7 unknown #
coedge $-1 $112 $111 $289 $290 reversed $44 $-1 #
coedge $-1 $291 $292 $111 $188 forward $293 $-1 #
edge $-1 $294 -28.687418675474177 $193 -12.617513253645825 $187 $295 forward 7 unknown #
coedge $-1 $296 $184 $112 $190 forward $180 $-1 #
edge $-1 $192 12.617513253645825 $297 28.687418675474177 $189 $298 forward 7 unknown #
coedge $-1 $113 $183 $291 $299 reversed $69 $-1 #
vertex $-1 $190 $300 #
vertex $-1 $188 $301 #
straight-curve $-1 -33.269979218205826 0 -9.5130552948825056 0 1 0 I I #
face $-1 $-1 $207 $26 $-1 $302 reversed single #
loop $-1 $-1 $303 $115 #
plane-surface $-1 0 0 14.840993108201216 0 0 1 1 0 0 forward_v I I I I #
coedge $-1 $304 $305 $306 $307 reversed $116 $-1 #
coedge $-1 $308 $118 $120 $205 forward $73 $-1 #
coedge $-1 $118 $308 $304 $309 forward $73 $-1 #
coedge $-1 $306 $121 $118 $202 forward $207 $-1 #
edge $-1 $209 -3.7152387712282717 $310 6.5950480643522056 $201 $311 forward 7 unknown #
coedge $-1 $312 $313 $119 $204 forward $196 $-1 #
edge $-1 $314 -18.983417921182507 $208 -13.243602821007322 $203 $315 forward 7 unknown #
edge $-1 $209 -1.7754109250068268e-014 $314 7.0070204627592254 $120 $316 forward 7 unknown #
coedge $-1 $121 $306 $312 $317 reversed $207 $-1 #
loop $-1 $-1 $306 $195 #
vertex $-1 $317 $318 #
vertex $-1 $122 $319 #
straight-curve $-1 -2.2753341246663048 -30.113185491050736 45.827832727448033 0 0 -1 I I #
coedge $-1 $211 $211 $-1 $320 reversed $125 $-1 #
edge $-1 $321 0 $321 6.2831853071796004 $126 $322 forward 7 unknown #
vertex $-1 $129 $323 #
ellipse-curve $-1 2.8798092931239268 -27.24327794096315 12.831462169068418 0 -0.57357644374324357 0.81915203911291934 1.5 0 0 1 I I #
face $-1 $-1 $324 $28 $-1 $325 reversed single #
loop $-1 $-1 $222 $130 #
plane-surface $-1 0 0 14.840993108201216 0 0 1 1 0 0 forward_v I I I I #
coedge $-1 $326 $133 $135 $224 forward $82 $-1 #
coedge $-1 $133 $326 $327 $328 reversed $82 $-1 #
coedge $-1 $329 $136 $133 $221 forward $131 $-1 #
edge $-1 $227 16.937227193331733 $330 27.247514028912203 $220 $331 forward 7 unknown #
coedge $-1 $332 $333 $134 $223 forward $216 $-1 #
edge $-1 $334 -18.983417921182507 $226 -13.243602821007322 $222 $335 forward 7 unknown #
edge $-1 $227 -1.7754109250068268e-014 $334 7.0070204627592254 $135 $336 forward 7 unknown #
coedge $-1 $136 $329 $332 $337 reversed $131 $-1 #
vertex $-1 $337 $338 #
vertex $-1 $137 $339 #
straight-curve $-1 39.029597804453701 -30.113185491050736 45.827832727448033 0 0 -1 I I #
coedge $-1 $229 $229 $-1 $340 reversed $140 $-1 #
edge $-1 $341 0 $341 6.2831853071796004 $141 $342 forward 7 unknown #
vertex $-1 $144 $343 #
ellipse-curve $-1 44.184741222243922 -27.24327794096315 12.831462169068418 0 -0.57357644374324357 0.81915203911291934 1.5 0 0 1 I I #
face $-1 $-1 $245 $30 $-1 $344 forward single #
loop $-1 $-1 $345 $145 #
plane-surface $-1 0 30.113185491050736 0 0 -1 0 0 0 -1 forward_v I I I I #
coedge $-1 $346 $347 $348 $349 reversed $146 $-1 #
coedge $-1 $350 $148 $150 $243 forward $91 $-1 #
coedge $-1 $148 $350 $346 $351 forward $91 $-1 #
coedge $-1 $348 $151 $148 $240 forward $245 $-1 #
edge $-1 $247 -21.214811180753735 $352 -2.8955248941504639 $239 $353 forward 7 unknown #
coedge $-1 $354 $355 $149 $242 forward $234 $-1 #
edge $-1 $356 -52.376093160802121 $246 -46.769535243096627 $241 $357 forward 7 unknown #
edge $-1 $247 51.680557874167803 $356 60.226370982101486 $150 $358 forward 7 unknown #
coedge $-1 $151 $348 $354 $359 forward $245 $-1 #
loop $-1 $-1 $348 $233 #
vertex $-1 $242 $360 #
vertex $-1 $152 $361 #
straight-curve $-1 -33.269979218205833 24.699760574336938 14.840993108201218 0 -1 0 I I #
coedge $-1 $249 $249 $-1 $362 reversed $155 $-1 #
edge $-1 $363 0 $363 6.2831853071796004 $156 $364 forward 7 unknown #
vertex $-1 $159 $365 #
ellipse-curve $-1 -24.110336074904197 26.888382009009348 12.037714149348471 0 0.6560590369687036 0.75470957328743171 1 0 0 1 I I #
face $-1 $-1 $175 $24 $-1 $366 reversed single #
loop $-1 $-1 $269 $160 #
plane-surface $-1 0 30.113185491050736 0 0 -1 0 0 0 -1 forward_v I I I I #
coedge $-1 $367 $267 $270 $368 forward $161 $-1 #
coedge $-1 $273 $163 $164 $261 reversed $100 $-1 #
coedge $-1 $267 $367 $163 $259 reversed $161 $-1 #
edge $-1 $274 -14.840993108201216 $369 14.840993108201216 $258 $370 forward 7 unknown #
coedge $-1 $165 $164 $367 $371 forward $65 $-1 #
edge $-1 $265 -49.339884640034178 $369 49.339884640034178 $257 $372 forward 7 unknown #
coedge $-1 $270 $269 $165 $263 reversed $254 $-1 #
edge $-1 $373 -49.339884640034178 $264 49.339884640034178 $262 $374 forward 7 unknown #
vertex $-1 $167 $375 #
vertex $-1 $276 $376 #
straight-curve $-1 49.339884640034178 0 -14.840993108201216 0 -1 0 I I #
coedge $-1 $256 $258 $168 $268 reversed $161 $-1 #
edge $-1 $271 -30.113185491050736 $274 30.113185491050736 $267 $377 forward 7 unknown #
coedge $-1 $262 $169 $174 $277 forward $254 $-1 #
coedge $-1 $169 $262 $256 $368 reversed $254 $-1 #
vertex $-1 $170 $378 #
straight-curve $-1 0 30.113185491050736 14.840993108201216 -1 0 0 I I #
coedge $-1 $171 $257 $173 $276 reversed $100 $-1 #
vertex $-1 $268 $379 #
straight-curve $-1 0 -30.113185491050736 14.840993108201216 1 0 0 I I #
edge $-1 $176 -14.840993108201216 $265 14.840993108201216 $173 $380 forward 7 unknown #
edge $-1 $177 -14.840993108201216 $264 14.840993108201216 $174 $381 forward 7 unknown #
point $-1 49.339884640034178 -30.113185491050736 14.840993108201216 #
point $-1 49.339884640034178 30.113185491050736 14.840993108201216 #
face $-1 $-1 $293 $25 $-1 $382 reversed single #
loop $-1 $-1 $289 $179 #
plane-surface $-1 -49.339884640034178 0 0 1 0 0 0 0 -1 forward_v I I I I #
coedge $-1 $383 $182 $286 $384 forward $108 $-1 #
coedge $-1 $182 $383 $385 $386 forward $108 $-1 #
edge $-1 $387 -30.113185491050736 $287 30.113185491050736 $182 $388 forward 7 unknown #
coedge $-1 $184 $296 $283 $384 reversed $180 $-1 #
vertex $-1 $384 $389 #
straight-curve $-1 -33.269979218205826 -30.113185491050736 -6.0885121007709309 0 0 1 I I #
coedge $-1 $390 $391 $186 $290 forward $281 $-1 #
edge $-1 $297 -30.113185491050736 $294 30.113185491050736 $289 $392 forward 7 unknown #
coedge $-1 $385 $187 $191 $299 forward $293 $-1 #
coedge $-1 $187 $385 $390 $393 reversed $293 $-1 #
loop $-1 $-1 $291 $280 #
vertex $-1 $393 $394 #
straight-curve $-1 -20.652465964560001 30.113185491050736 -9.5130552948825056 1 0 0 I I #
coedge $-1 $286 $189 $391 $395 forward $180 $-1 #
vertex $-1 $395 $396 #
straight-curve $-1 -20.652465964560001 -30.113185491050736 -9.5130552948825056 -1 0 0 I I #
edge $-1 $193 3.4245431941115747 $387 8.752481007430287 $291 $397 forward 7 unknown #
point $-1 -33.269979218205826 -30.113185491050736 -9.5130552948825056 #
point $-1 -33.269979218205826 30.113185491050736 -9.5130552948825056 #
plane-surface $-1 0 -30.113185491050736 0 0 1 0 0 0 1 forward_v I I I I #
coedge $-1 $313 $312 $305 $398 forward $196 $-1 #
coedge $-1 $305 $198 $200 $309 reversed $116 $-1 #
coedge $-1 $198 $304 $303 $398 reversed $116 $-1 #
coedge $-1 $206 $201 $198 $307 forward $207 $-1 #
edge $-1 $310 -35.005901497512397 $399 -30.986839619246815 $306 $400 forward 7 unknown #
coedge $-1 $200 $199 $313 $401 reversed $73 $-1 #
edge $-1 $402 -7.0070204627592254 $310 1.7754109250068268e-014 $304 $403 forward 7 unknown #
vertex $-1 $202 $404 #
straight-curve $-1 1.4399046465619669 -30.113185491050736 10.821931229935633 1 0 0 I I #
coedge $-1 $303 $203 $206 $317 forward $196 $-1 #
coedge $-1 $203 $303 $308 $401 forward $196 $-1 #
vertex $-1 $204 $405 #
straight-curve $-1 -2.2753341246663048 -43.356788312058057 14.840993108201218 0 -1 0 I I #
straight-curve $-1 -2.2753341246663048 -30.113185491050722 10.821931229935643 0 0.81915203911291934 0.57357644374324357 I I #
edge $-1 $208 -2.2753341246663048 $399 8.0349527109141725 $206 $406 forward 7 unknown #
point $-1 -2.2753341246663048 -30.113185491050736 14.840993108201216 #
point $-1 -2.2753341246663048 -30.113185491050736 10.821931229935633 #
edge $-1 $407 1 $407 0 $211 $-1 forward 7 unknown #
vertex $-1 $212 $408 #
ellipse-curve $-1 2.8798092931239268 -25.821590120298566 10.801081580773701 0 -0.57357644374324357 0.81915203911291934 1.5 0 0 1 I I #
point $-1 4.3798092931239268 -27.243277940963164 12.831462169068434 #
loop $-1 $-1 $327 $215 #
plane-surface $-1 49.339884640034178 0 0 -1 0 0 0 0 1 forward_v I I I I #
coedge $-1 $219 $218 $333 $409 reversed $82 $-1 #
coedge $-1 $410 $411 $219 $328 forward $324 $-1 #
edge $-1 $330 -9.2300362349396892 $412 -2.223015772180446 $327 $413 forward 7 unknown #
coedge $-1 $225 $220 $411 $414 reversed $131 $-1 #
vertex $-1 $221 $415 #
straight-curve $-1 22.092370611121968 -30.113185491050736 10.821931229935633 1 0 0 I I #
coedge $-1 $416 $222 $225 $337 forward $216 $-1 #
coedge $-1 $222 $416 $326 $409 forward $216 $-1 #
vertex $-1 $223 $417 #
straight-curve $-1 39.029597804453701 -43.356788312058057 14.840993108201218 0 -1 0 I I #
straight-curve $-1 39.029597804453701 -30.113185491050722 10.821931229935643 0 0.81915203911291934 0.57357644374324357 I I #
edge $-1 $226 39.029597804453701 $418 49.339884640034178 $225 $419 forward 7 unknown #
point $-1 39.029597804453701 -30.113185491050736 14.840993108201216 #
point $-1 39.029597804453701 -30.113185491050736 10.821931229935633 #
edge $-1 $420 1 $420 0 $229 $-1 forward 7 unknown #
vertex $-1 $230 $421 #
ellipse-curve $-1 44.184741222243922 -25.821590120298566 10.801081580773701 0 -0.57357644374324357 0.81915203911291934 1.5 0 0 1 I I #
point $-1 45.684741222243922 -27.243277940963164 12.831462169068434 #
plane-surface $-1 0 0 14.840993108201216 0 0 1 1 0 0 forward_v I I I I #
coedge $-1 $355 $354 $347 $422 forward $234 $-1 #
coedge $-1 $347 $236 $238 $351 reversed $146 $-1 #
coedge $-1 $236 $346 $345 $422 reversed $146 $-1 #
coedge $-1 $244 $239 $236 $349 forward $245 $-1 #
edge $-1 $352 -1.0361820473689711 $423 5.4134249167137973 $348 $424 forward 7 unknown #
coedge $-1 $238 $237 $355 $425 reversed $91 $-1 #
edge $-1 $426 -60.226370982101486 $352 -51.680557874167803 $346 $427 forward 7 unknown #
vertex $-1 $240 $428 #
straight-curve $-1 -12.055168037452098 23.66357852696796 14.840993108201221 1 0 0 I I #
coedge $-1 $345 $241 $244 $359 reversed $234 $-1 #
coedge $-1 $241 $345 $350 $425 forward $234 $-1 #
vertex $-1 $242 $429 #
straight-curve $-1 -33.269979218205833 30.113185491050736 61.610528351297845 0 0 1 I I #
straight-curve $-1 -33.269979218205833 -15.34023325350163 48.746490137133094 0 0.75470957328743171 -0.6560590369687036 I I #
edge $-1 $423 14.950692931602562 $246 33.269979218205833 $354 $430 forward 7 unknown #
point $-1 -33.269979218205833 30.113185491050736 14.840993108201216 #
point $-1 -33.269979218205833 23.663578526967967 14.840993108201218 #
edge $-1 $431 1 $431 0 $249 $-1 forward 7 unknown #
vertex $-1 $250 $432 #
ellipse-curve $-1 -24.110336074904197 24.717162364642771 9.5400117186579827 0 0.6560590369687036 0.75470957328743171 1 0 0 1 I I #
point $-1 -23.110336074904197 26.888382009009362 12.037714149348483 #
plane-surface $-1 49.339884640034178 0 0 -1 0 0 0 0 1 forward_v I I I I #
coedge $-1 $258 $256 $260 $371 reversed $161 $-1 #
edge $-1 $271 -14.840993108201216 $373 14.840993108201216 $270 $433 forward 7 unknown #
vertex $-1 $371 $434 #
straight-curve $-1 -49.339884640034178 -30.113185491050736 0 0 0 -1 I I #
edge $-1 $369 -30.113185491050736 $373 30.113185491050736 $367 $435 forward 7 unknown #
straight-curve $-1 0 -30.113185491050736 -14.840993108201216 -1 0 0 I I #
vertex $-1 $263 $436 #
straight-curve $-1 0 30.113185491050736 -14.840993108201216 1 0 0 I I #
point $-1 49.339884640034178 30.113185491050736 -14.840993108201216 #
point $-1 49.339884640034178 -30.113185491050736 -14.840993108201216 #
straight-curve $-1 -49.339884640034178 0 14.840993108201216 0 -1 0 I I #
point $-1 -49.339884640034178 30.113185491050736 14.840993108201216 #
point $-1 -49.339884640034178 -30.113185491050736 14.840993108201216 #
straight-curve $-1 49.339884640034178 -30.113185491050736 0 0 0 -1 I I #
straight-curve $-1 49.339884640034178 30.113185491050736 0 0 0 -1 I I #
plane-surface $-1 0 30.113185491050736 0 0 -1 0 0 0 -1 forward_v I I I I #
coedge $-1 $284 $283 $437 $438 forward $108 $-1 #
edge $-1 $287 33.269979218205826 $439 49.339884640034178 $286 $440 forward 7 unknown #
coedge $-1 $292 $291 $284 $386 reversed $293 $-1 #
edge $-1 $441 -49.339884640034178 $387 -33.269979218205826 $385 $442 forward 7 unknown #
vertex $-1 $299 $443 #
straight-curve $-1 -33.269979218205826 0 -14.840993108201216 0 -1 0 I I #
point $-1 -33.269979218205826 -30.113185491050736 -14.840993108201218 #
coedge $-1 $437 $289 $292 $393 forward $281 $-1 #
coedge $-1 $289 $437 $296 $395 reversed $281 $-1 #
straight-curve $-1 -49.339884640034178 0 -9.5130552948825056 0 1 0 I I #
edge $-1 $294 9.5130552948825056 $441 14.840993108201216 $292 $444 forward 7 unknown #
point $-1 -49.339884640034178 30.113185491050736 -9.5130552948825056 #
edge $-1 $297 9.5130552948825056 $439 14.840993108201216 $391 $445 forward 7 unknown #
point $-1 -49.339884640034178 -30.113185491050736 -9.5130552948825056 #
straight-curve $-1 -33.269979218205826 30.113185491050736 -6.0885121007709309 0 0 -1 I I #
edge $-1 $399 13.243602821007322 $402 18.983417921182507 $303 $446 forward 7 unknown #
vertex $-1 $307 $447 #
straight-curve $-1 8.0349527109141725 -30.113185491050736 45.827832727448033 0 0 1 I I #
edge $-1 $402 -6.5950480643522056 $314 3.7152387712282717 $313 $448 forward 7 unknown #
vertex $-1 $401 $449 #
straight-curve $-1 8.0349527109141725 -30.113185491050722 10.821931229935643 0 -0.81915203911291934 -0.57357644374324357 I I #
point $-1 8.0349527109141725 -30.113185491050736 10.821931229935633 #
point $-1 -2.2753341246663048 -24.37337039087555 14.840993108201216 #
straight-curve $-1 0 -30.113185491050736 14.840993108201216 1 0 0 I I #
vertex $-1 $320 $450 #
point $-1 4.3798092931239268 -25.821590120298566 10.801081580773701 #
edge $-1 $412 -27.247514028912203 $334 -16.937227193331733 $333 $451 forward 7 unknown #
coedge $-1 $411 $327 $416 $452 reversed $324 $-1 #
coedge $-1 $327 $410 $329 $414 forward $324 $-1 #
vertex $-1 $328 $453 #
straight-curve $-1 49.339884640034178 -22.552382488113757 16.116062589193618 0 0.81915203911291934 0.57357644374324357 I I #
edge $-1 $418 -14.840993108201216 $330 -10.821931229935633 $411 $454 forward 7 unknown #
point $-1 49.339884640034171 -30.113185491050736 10.821931229935633 #
coedge $-1 $333 $332 $410 $452 forward $216 $-1 #
point $-1 39.029597804453701 -24.37337039087555 14.840993108201216 #
vertex $-1 $452 $455 #
straight-curve $-1 0 -30.113185491050736 14.840993108201216 1 0 0 I I #
vertex $-1 $340 $456 #
point $-1 45.684741222243922 -25.821590120298566 10.801081580773701 #
edge $-1 $423 46.769535243096627 $426 52.376093160802121 $345 $457 forward 7 unknown #
vertex $-1 $359 $458 #
straight-curve $-1 -14.950692931602562 24.699760574336938 14.840993108201218 0 1 0 I I #
edge $-1 $426 2.8955248941504639 $356 21.214811180753735 $355 $459 forward 7 unknown #
vertex $-1 $425 $460 #
straight-curve $-1 -14.950692931602562 -15.34023325350163 48.746490137133094 0 -0.75470957328743171 0.6560590369687036 I I #
point $-1 -14.950692931602562 23.663578526967967 14.840993108201218 #
point $-1 -33.269979218205833 30.113185491050736 9.2344351904957236 #
straight-curve $-1 0 30.113185491050736 14.840993108201216 -1 0 0 I I #
vertex $-1 $362 $461 #
point $-1 -23.110336074904197 24.717162364642771 9.5400117186579827 #
straight-curve $-1 -49.339884640034178 30.113185491050736 0 0 0 -1 I I #
point $-1 -49.339884640034178 -30.113185491050736 -14.840993108201216 #
straight-curve $-1 -49.339884640034178 0 -14.840993108201216 0 1 0 I I #
point $-1 -49.339884640034178 30.113185491050736 -14.840993108201216 #
coedge $-1 $391 $390 $383 $438 reversed $281 $-1 #
edge $-1 $439 -30.113185491050736 $441 30.113185491050736 $437 $462 forward 7 unknown #
vertex $-1 $438 $463 #
straight-curve $-1 0 -30.113185491050736 -14.840993108201216 -1 0 0 I I #
vertex $-1 $386 $464 #
straight-curve $-1 0 30.113185491050736 -14.840993108201216 1 0 0 I I #
point $-1 -33.269979218205826 30.113185491050736 -14.840993108201218 #
straight-curve $-1 -49.339884640034178 30.113185491050736 0 0 0 -1 I I #
straight-curve $-1 -49.339884640034178 -30.113185491050736 0 0 0 -1 I I #
straight-curve $-1 8.0349527109141725 -43.356788312058057 14.840993108201218 0 1 0 I I #
point $-1 8.0349527109141725 -30.113185491050736 14.840993108201216 #
straight-curve $-1 1.4399046465619669 -24.373370390875554 14.840993108201218 -1 0 0 I I #
point $-1 8.0349527109141725 -24.37337039087555 14.840993108201216 #
point $-1 2.8798092931239268 -24.961225454683699 9.5723535221043221 #
straight-curve $-1 22.092370611121968 -24.373370390875554 14.840993108201218 -1 0 0 I I #
edge $-1 $418 -30.113185491050736 $412 -24.37337039087555 $410 $465 forward 7 unknown #
point $-1 49.339884640034171 -24.37337039087555 14.840993108201216 #
straight-curve $-1 49.339884640034178 -30.113185491050736 0 0 0 -1 I I #
point $-1 49.339884640034178 -30.113185491050736 14.840993108201216 #
point $-1 44.184741222243922 -24.961225454683699 9.5723535221043221 #
straight-curve $-1 -14.950692931602562 30.113185491050736 61.610528351297845 0 0 -1 I I #
point $-1 -14.950692931602562 30.113185491050736 14.840993108201216 #
straight-curve $-1 -12.055168037452098 30.113185491050729 9.2344351904957271 -1 0 0 I I #
point $-1 -14.950692931602562 30.113185491050736 9.2344351904957236 #
point $-1 -24.110336074904197 24.061103327674065 8.7853021453705509 #
straight-curve $-1 -49.339884640034178 0 -14.840993108201216 0 1 0 I I #
point $-1 -49.339884640034178 -30.113185491050736 -14.840993108201216 #
point $-1 -49.339884640034178 30.113185491050736 -14.840993108201216 #
straight-curve $-1 49.339884640034178 0 14.840993108201216 0 1 0 I I #
End-of-ACIS-data 