500 0 7 0           
7 Unknown 11 ACIS 5.0 NT 24 Fri Mar 26 20:04:53 1999 
-1 9.9999999999999995e-007 1e-010 
body $-1 $7 $-1 $8 #
body $-1 $9 $-1 $10 #
body $-1 $11 $-1 $12 #
body $-1 $13 $-1 $14 #
body $-1 $15 $-1 $16 #
body $-1 $17 $-1 $18 #
body $-1 $19 $-1 $20 #
lump $-1 $-1 $21 $0 #
transform $-1 1 0 0 0 1 0 0 0 1 62.80465102084414 41.74141204677381 12.076308849214485 1 rotate no_reflect no_shear #
lump $-1 $-1 $22 $1 #
transform $-1 1 0 0 0 1 0 0 0 1 62.80465102084414 41.74141204677381 12.076308849214485 1 rotate no_reflect no_shear #
lump $-1 $-1 $23 $2 #
transform $-1 1 0 0 0 1 0 0 0 1 62.80465102084414 41.74141204677381 12.076308849214485 1 rotate no_reflect no_shear #
lump $-1 $-1 $24 $3 #
transform $-1 1 0 0 0 1 0 0 0 1 62.80465102084414 41.74141204677381 12.076308849214485 1 rotate no_reflect no_shear #
lump $-1 $-1 $25 $4 #
transform $-1 1 0 0 0 1 0 0 0 1 62.80465102084414 41.74141204677381 12.076308849214485 1 rotate no_reflect no_shear #
lump $-1 $-1 $26 $5 #
transform $-1 1 0 0 0 1 0 0 0 1 62.80465102084414 41.74141204677381 12.076308849214485 1 rotate no_reflect no_shear #
lump $-1 $-1 $27 $6 #
transform $-1 1 0 0 0 1 0 0 0 1 62.80465102084414 41.74141204677381 12.076308849214485 1 rotate no_reflect no_shear #
shell $-1 $-1 $-1 $28 $-1 $7 #
shell $-1 $-1 $-1 $29 $-1 $9 #
shell $-1 $-1 $-1 $30 $-1 $11 #
shell $-1 $-1 $-1 $31 $-1 $13 #
shell $-1 $-1 $-1 $32 $-1 $15 #
shell $-1 $-1 $-1 $33 $-1 $17 #
shell $-1 $-1 $-1 $34 $-1 $19 #
face $-1 $35 $36 $21 $-1 $37 forward single #
face $-1 $38 $39 $22 $-1 $40 reversed single #
face $-1 $41 $42 $23 $-1 $43 forward single #
face $-1 $44 $45 $24 $-1 $46 forward single #
face $-1 $47 $48 $25 $-1 $49 forward single #
face $-1 $50 $51 $26 $-1 $52 reversed single #
face $-1 $53 $54 $27 $-1 $55 forward single #
face $-1 $56 $57 $21 $-1 $58 reversed single #
loop $-1 $-1 $59 $28 #
plane-surface $-1 0 0 12.076308849214485 0 0 1 1 0 0 forward_v I I I I #
face $-1 $60 $61 $22 $-1 $62 reversed single #
loop $-1 $-1 $63 $29 #
plane-surface $-1 84.453325937032218 22.449942099755987 181.5400842300983 0 1 0 0.78801076186113728 0 0.61566146476048833 forward_v I I I I #
face $-1 $64 $65 $23 $-1 $66 forward single #
loop $-1 $67 $68 $30 #
cone-surface $-1 58.999468835854877 26.308236089159543 7.7689194427728854 -0.78801076186113728 0 -0.61566146476048833 0.9234921971407325 0 -1.182016142791706 1 I I 0 1 1.5 forward I I I I #
face $-1 $69 $70 $24 $-1 $71 forward single #
loop $-1 $72 $73 $31 #
cone-surface $-1 58.999468835854877 32.095677073264888 7.7689194427728854 -0.78801076186113728 0 -0.61566146476048833 0.9234921971407325 0 -1.182016142791706 1 I I 0 1 1.5 forward I I I I #
face $-1 $74 $75 $25 $-1 $76 forward single #
loop $-1 $77 $78 $32 #
cone-surface $-1 58.999468835854877 37.883118057370233 7.7689194427728854 -0.78801076186113728 0 -0.61566146476048833 0.9234921971407325 0 -1.182016142791706 1 I I 0 1 1.5 forward I I I I #
face $-1 $79 $80 $26 $-1 $81 reversed single #
loop $-1 $-1 $82 $33 #
plane-surface $-1 -150.06020511667597 -31.65809734249715 94.605155963192288 0 -1 0 0.69465837861970381 0 -0.71933979245794832 forward_v I I I I #
face $-1 $83 $84 $27 $-1 $85 forward single #
loop $-1 $86 $87 $34 #
cone-surface $-1 -56.027500967566581 -36.69975469463548 5.3413978624094103 0.69465837861970381 0 -0.71933979245794832 1.7983494811448708 0 1.7366459465492596 1 I I 0 1 2.5 forward I I I I #
face $-1 $88 $89 $21 $-1 $90 reversed single #
loop $-1 $-1 $91 $35 #
plane-surface $-1 0 0 -12.076308849214485 0 0 1 1 0 0 forward_v I I I I #
coedge $-1 $92 $93 $94 $95 forward $36 $-1 #
face $-1 $96 $97 $22 $-1 $98 forward single #
loop $-1 $-1 $99 $38 #
plane-surface $-1 -14.528155861684283 32.095677073264902 104.20727734756989 0.78801076186113728 0 0.61566146476048833 0.61566146476048833 0 -0.78801076186113728 forward_v I I I I #
coedge $-1 $100 $101 $102 $103 reversed $39 $-1 #
face $-1 $-1 $104 $23 $-1 $105 forward single #
loop $-1 $106 $107 $41 #
cone-surface $-1 57.279382293396402 26.308236089159543 6.4250405879414529 -0.78801076186113728 0 -0.61566146476048833 0.46174609857036625 0 -0.59100807139585299 1 I I -0.70710678118654757 0.70710678118654757 0.75 forward I I I I #
loop $-1 $-1 $108 $30 #
coedge $-1 $68 $68 $109 $110 reversed $42 $-1 #
face $-1 $-1 $111 $24 $-1 $112 forward single #
loop $-1 $113 $114 $44 #
cone-surface $-1 57.279382293396402 32.095677073264888 6.4250405879414529 -0.78801076186113728 0 -0.61566146476048833 0.46174609857036625 0 -0.59100807139585299 1 I I -0.70710678118654757 0.70710678118654757 0.75 forward I I I I #
loop $-1 $-1 $115 $31 #
coedge $-1 $73 $73 $116 $117 reversed $45 $-1 #
face $-1 $-1 $118 $25 $-1 $119 forward single #
loop $-1 $120 $121 $47 #
cone-surface $-1 57.279382293396402 37.883118057370233 6.4250405879414529 -0.78801076186113728 0 -0.61566146476048833 0.46174609857036625 0 -0.59100807139585299 1 I I -0.70710678118654757 0.70710678118654757 0.75 forward I I I I #
loop $-1 $-1 $122 $32 #
coedge $-1 $78 $78 $123 $124 reversed $48 $-1 #
face $-1 $125 $126 $26 $-1 $127 reversed single #
loop $-1 $-1 $128 $50 #
plane-surface $-1 -62.804651020844133 -36.69975469463548 4.2493867017364835 -0.69465837861970381 0 0.71933979245794832 0.71933979245794832 0 0.69465837861970381 forward_v I I I I #
coedge $-1 $129 $130 $131 $132 reversed $51 $-1 #
face $-1 $-1 $133 $27 $-1 $134 forward single #
loop $-1 $135 $136 $53 #
cone-surface $-1 -52.434535422705366 -36.69975469463548 1.620773208770899 0.69465837861970381 0 -0.71933979245794832 0.8991747405724354 0 0.86832297327462982 1 I I -0.70710678118654746 0.70710678118654746 1.25 forward I I I I #
loop $-1 $-1 $137 $34 #
coedge $-1 $87 $87 $138 $139 reversed $54 $-1 #
face $-1 $140 $141 $21 $-1 $142 reversed single #
loop $-1 $-1 $143 $56 #
plane-surface $-1 0 -41.74141204677381 0 0 1 0 0 0 1 forward_v I I I I #
coedge $-1 $144 $145 $146 $147 forward $57 $-1 #
coedge $-1 $148 $59 $149 $150 forward $36 $-1 #
coedge $-1 $59 $148 $151 $152 forward $36 $-1 #
coedge $-1 $153 $154 $59 $95 reversed $155 $-1 #
edge $-1 $156 -41.74141204677381 $157 41.74141204677381 $94 $158 forward 7 unknown #
face $-1 $159 $160 $22 $-1 $161 reversed single #
loop $-1 $-1 $162 $60 #
plane-surface $-1 0 0 12.076308849214485 0 0 1 1 0 0 forward_v I I I I #
coedge $-1 $163 $164 $165 $166 reversed $61 $-1 #
coedge $-1 $101 $63 $167 $168 reversed $39 $-1 #
coedge $-1 $63 $100 $163 $169 reversed $39 $-1 #
coedge $-1 $165 $170 $63 $103 forward $160 $-1 #
edge $-1 $171 78.693733265834666 $172 85.544246566195767 $102 $173 forward 7 unknown #
loop $-1 $-1 $109 $64 #
plane-surface $-1 -14.528155861684283 32.095677073264902 104.20727734756989 0.78801076186113728 0 0.61566146476048833 0.61566146476048833 0 -0.78801076186113728 forward_v I I I I #
loop $-1 $-1 $174 $41 #
coedge $-1 $107 $107 $108 $175 reversed $65 $-1 #
coedge $-1 $108 $108 $107 $175 forward $67 $-1 #
coedge $-1 $109 $109 $68 $110 forward $104 $-1 #
edge $-1 $176 0 $176 6.2831853071796004 $109 $177 forward 7 unknown #
loop $-1 $-1 $116 $69 #
plane-surface $-1 -14.528155861684283 32.095677073264902 104.20727734756989 0.78801076186113728 0 0.61566146476048833 0.61566146476048833 0 -0.78801076186113728 forward_v I I I I #
loop $-1 $-1 $178 $44 #
coedge $-1 $114 $114 $115 $179 reversed $70 $-1 #
coedge $-1 $115 $115 $114 $179 forward $72 $-1 #
coedge $-1 $116 $116 $73 $117 forward $111 $-1 #
edge $-1 $180 0 $180 6.2831853071796004 $116 $181 forward 7 unknown #
loop $-1 $-1 $123 $74 #
plane-surface $-1 -14.528155861684283 32.095677073264902 104.20727734756989 0.78801076186113728 0 0.61566146476048833 0.61566146476048833 0 -0.78801076186113728 forward_v I I I I #
loop $-1 $-1 $182 $47 #
coedge $-1 $121 $121 $122 $183 reversed $75 $-1 #
coedge $-1 $122 $122 $121 $183 forward $77 $-1 #
coedge $-1 $123 $123 $78 $124 forward $118 $-1 #
edge $-1 $184 0 $184 6.2831853071796004 $123 $185 forward 7 unknown #
face $-1 $186 $187 $26 $-1 $188 reversed single #
loop $-1 $-1 $131 $79 #
plane-surface $-1 -62.80465102084414 0 0 1 0 0 0 0 -1 forward_v I I I I #
coedge $-1 $189 $190 $191 $192 reversed $80 $-1 #
coedge $-1 $130 $82 $193 $194 reversed $51 $-1 #
coedge $-1 $82 $129 $189 $195 reversed $51 $-1 #
coedge $-1 $191 $196 $82 $132 forward $126 $-1 #
edge $-1 $197 35.22626913238166 $198 43.053191279859668 $131 $199 forward 7 unknown #
loop $-1 $-1 $138 $83 #
plane-surface $-1 -62.804651020844133 -36.69975469463548 4.2493867017364835 -0.69465837861970381 0 0.71933979245794832 0.71933979245794832 0 0.69465837861970381 forward_v I I I I #
loop $-1 $-1 $200 $53 #
coedge $-1 $136 $136 $137 $201 reversed $84 $-1 #
coedge $-1 $137 $137 $136 $201 forward $86 $-1 #
coedge $-1 $138 $138 $87 $139 forward $133 $-1 #
edge $-1 $202 0 $202 6.2831853071796004 $138 $203 forward 7 unknown #
face $-1 $204 $205 $21 $-1 $206 reversed single #
loop $-1 $-1 $207 $88 #
plane-surface $-1 -62.80465102084414 0 0 1 0 0 0 0 -1 forward_v I I I I #
coedge $-1 $208 $151 $209 $210 forward $89 $-1 #
coedge $-1 $211 $91 $208 $212 forward $57 $-1 #
coedge $-1 $91 $211 $213 $214 forward $57 $-1 #
coedge $-1 $154 $153 $91 $147 reversed $155 $-1 #
edge $-1 $215 -41.74141204677381 $216 41.74141204677381 $146 $217 forward 7 unknown #
coedge $-1 $93 $92 $218 $219 forward $36 $-1 #
coedge $-1 $220 $221 $92 $150 reversed $205 $-1 #
edge $-1 $157 -62.80465102084414 $222 62.80465102084414 $149 $223 forward 7 unknown #
coedge $-1 $143 $224 $93 $152 reversed $89 $-1 #
edge $-1 $225 -62.80465102084414 $156 62.80465102084414 $151 $226 forward 7 unknown #
coedge $-1 $146 $94 $224 $227 forward $155 $-1 #
coedge $-1 $94 $146 $220 $228 reversed $155 $-1 #
loop $-1 $-1 $153 $204 #
vertex $-1 $95 $229 #
vertex $-1 $95 $230 #
straight-curve $-1 62.80465102084414 0 12.076308849214485 0 1 0 I I #
face $-1 $-1 $231 $22 $-1 $232 reversed single #
loop $-1 $-1 $102 $96 #
plane-surface $-1 62.80465102084414 0 0 -1 0 0 0 0 1 forward_v I I I I #
coedge $-1 $167 $233 $234 $235 forward $97 $-1 #
coedge $-1 $234 $99 $101 $169 forward $61 $-1 #
coedge $-1 $99 $234 $236 $237 reversed $61 $-1 #
coedge $-1 $238 $102 $99 $166 forward $160 $-1 #
edge $-1 $172 6.4021035631235357 $239 25.693573510141359 $165 $240 forward 7 unknown #
coedge $-1 $241 $162 $100 $168 forward $97 $-1 #
edge $-1 $242 15.225780624474709 $171 20.577988052328031 $167 $243 forward 7 unknown #
edge $-1 $172 -125.6093020416883 $242 -116.91587597199675 $101 $244 forward 7 unknown #
coedge $-1 $102 $238 $241 $245 reversed $160 $-1 #
vertex $-1 $245 $246 #
vertex $-1 $103 $247 #
straight-curve $-1 62.80465102084414 22.449942099755987 90.770042115049151 0 0 -1 I I #
coedge $-1 $174 $174 $-1 $248 reversed $106 $-1 #
edge $-1 $249 0 $249 6.2831853071796004 $107 $250 forward 7 unknown #
vertex $-1 $110 $251 #
ellipse-curve $-1 60.128547306917483 26.308236089159543 8.651052199033936 0.78801076186113728 0 0.61566146476048833 0.9234921971407325 0 -1.182016142791706 1 I I #
coedge $-1 $178 $178 $-1 $252 reversed $113 $-1 #
edge $-1 $253 0 $253 6.2831853071796004 $114 $254 forward 7 unknown #
vertex $-1 $117 $255 #
ellipse-curve $-1 60.128547306917483 32.095677073264888 8.651052199033936 0.78801076186113728 0 0.61566146476048833 0.9234921971407325 0 -1.182016142791706 1 I I #
coedge $-1 $182 $182 $-1 $256 reversed $120 $-1 #
edge $-1 $257 0 $257 6.2831853071796004 $121 $258 forward 7 unknown #
vertex $-1 $124 $259 #
ellipse-curve $-1 60.128547306917483 37.883118057370233 8.651052199033936 0.78801076186113728 0 0.61566146476048833 0.9234921971407325 0 -1.182016142791706 1 I I #
face $-1 $-1 $260 $26 $-1 $261 forward single #
loop $-1 $-1 $262 $125 #
plane-surface $-1 0 -41.74141204677381 0 0 1 0 0 0 1 forward_v I I I I #
coedge $-1 $263 $128 $130 $195 forward $80 $-1 #
coedge $-1 $128 $263 $262 $264 reversed $80 $-1 #
coedge $-1 $265 $131 $128 $192 forward $126 $-1 #
edge $-1 $198 13.30821999517941 $266 23.39153469945607 $191 $267 forward 7 unknown #
coedge $-1 $268 $269 $129 $194 forward $260 $-1 #
edge $-1 $270 -20.330466500875801 $197 -12.225451537493846 $193 $271 forward 7 unknown #
edge $-1 $198 -1.0047061288372931e-014 $270 11.267296830177454 $130 $272 forward 7 unknown #
coedge $-1 $131 $265 $268 $273 reversed $126 $-1 #
vertex $-1 $273 $274 #
vertex $-1 $132 $275 #
straight-curve $-1 -62.80465102084414 -31.65809734249715 47.302577981596144 0 0 -1 I I #
coedge $-1 $200 $200 $-1 $276 reversed $135 $-1 #
edge $-1 $277 0 $277 6.2831853071796004 $136 $278 forward 7 unknown #
vertex $-1 $139 $279 #
ellipse-curve $-1 -58.75214353915316 -36.69975469463548 8.1628477754754805 -0.69465837861970381 0 0.71933979245794832 1.7983494811448708 0 1.7366459465492596 1 I I #
face $-1 $-1 $155 $21 $-1 $280 reversed single #
loop $-1 $-1 $220 $140 #
plane-surface $-1 0 41.74141204677381 0 0 -1 0 0 0 -1 forward_v I I I I #
coedge $-1 $281 $218 $221 $282 forward $141 $-1 #
coedge $-1 $224 $143 $144 $212 reversed $89 $-1 #
coedge $-1 $218 $281 $143 $210 reversed $141 $-1 #
edge $-1 $225 -12.076308849214485 $283 12.076308849214485 $209 $284 forward 7 unknown #
coedge $-1 $145 $144 $281 $285 forward $57 $-1 #
edge $-1 $216 -62.80465102084414 $283 62.80465102084414 $208 $286 forward 7 unknown #
coedge $-1 $221 $220 $145 $214 reversed $205 $-1 #
edge $-1 $287 -62.80465102084414 $215 62.80465102084414 $213 $288 forward 7 unknown #
vertex $-1 $147 $289 #
vertex $-1 $227 $290 #
straight-curve $-1 62.80465102084414 0 -12.076308849214485 0 -1 0 I I #
coedge $-1 $207 $209 $148 $219 reversed $141 $-1 #
edge $-1 $222 -41.74141204677381 $225 41.74141204677381 $218 $291 forward 7 unknown #
coedge $-1 $213 $149 $154 $228 forward $205 $-1 #
coedge $-1 $149 $213 $207 $282 reversed $205 $-1 #
vertex $-1 $150 $292 #
straight-curve $-1 0 41.74141204677381 12.076308849214485 -1 0 0 I I #
coedge $-1 $151 $208 $153 $227 reversed $89 $-1 #
vertex $-1 $219 $293 #
straight-curve $-1 0 -41.74141204677381 12.076308849214485 1 0 0 I I #
edge $-1 $156 -12.076308849214485 $216 12.076308849214485 $153 $294 forward 7 unknown #
edge $-1 $157 -12.076308849214485 $215 12.076308849214485 $154 $295 forward 7 unknown #
point $-1 62.80465102084414 -41.74141204677381 12.076308849214485 #
point $-1 62.80465102084414 41.74141204677381 12.076308849214485 #
loop $-1 $-1 $236 $159 #
plane-surface $-1 0 41.74141204677381 0 0 -1 0 0 0 -1 forward_v I I I I #
coedge $-1 $162 $241 $296 $297 forward $97 $-1 #
coedge $-1 $164 $163 $162 $235 reversed $61 $-1 #
edge $-1 $298 -25.693573510141366 $242 -6.4021035631235357 $162 $299 forward 7 unknown #
coedge $-1 $296 $300 $164 $237 forward $231 $-1 #
edge $-1 $239 -80.078861175585004 $298 -71.385435105893464 $236 $301 forward 7 unknown #
coedge $-1 $170 $165 $300 $302 reversed $160 $-1 #
vertex $-1 $166 $303 #
straight-curve $-1 62.804651020844148 16.047838536632451 5.2257955488533767 0 1 0 I I #
coedge $-1 $233 $167 $170 $245 forward $97 $-1 #
vertex $-1 $168 $304 #
straight-curve $-1 42.226662968516109 22.449942099755987 12.076308849214485 1 0 0 I I #
straight-curve $-1 -14.528155861684283 22.449942099755987 104.20727734756989 -0.61566146476048833 0 0.78801076186113728 I I #
edge $-1 $171 22.449942099755987 $305 41.74141204677381 $170 $306 forward 7 unknown #
point $-1 62.80465102084414 22.449942099755987 12.076308849214485 #
point $-1 62.804651020844133 22.449942099755987 5.2257955488533838 #
edge $-1 $307 1 $307 0 $174 $-1 forward 7 unknown #
vertex $-1 $175 $308 #
ellipse-curve $-1 57.870390364792257 26.308236089159543 6.8867866865118188 0.78801076186113728 0 0.61566146476048833 0.9234921971407325 0 -1.182016142791706 1 I I #
point $-1 61.052039504058236 26.308236089159543 7.4690360562422455 #
edge $-1 $309 1 $309 0 $178 $-1 forward 7 unknown #
vertex $-1 $179 $310 #
ellipse-curve $-1 57.870390364792257 32.095677073264888 6.8867866865118188 0.78801076186113728 0 0.61566146476048833 0.9234921971407325 0 -1.182016142791706 1 I I #
point $-1 61.052039504058236 32.095677073264888 7.4690360562422455 #
edge $-1 $311 1 $311 0 $182 $-1 forward 7 unknown #
vertex $-1 $183 $312 #
ellipse-curve $-1 57.870390364792257 37.883118057370233 6.8867866865118188 0.78801076186113728 0 0.61566146476048833 0.9234921971407325 0 -1.182016142791706 1 I I #
point $-1 61.052039504058236 37.883118057370233 7.4690360562422455 #
loop $-1 $-1 $193 $186 #
plane-surface $-1 0 0 12.076308849214485 0 0 1 1 0 0 forward_v I I I I #
coedge $-1 $313 $314 $190 $264 forward $187 $-1 #
coedge $-1 $190 $189 $269 $315 reversed $80 $-1 #
edge $-1 $266 -21.113006277185754 $316 -9.8457094470082893 $262 $317 forward 7 unknown #
coedge $-1 $196 $191 $314 $318 reversed $126 $-1 #
vertex $-1 $264 $319 #
straight-curve $-1 -62.80465102084414 -18.34987734731774 4.2493867017364755 0 -1 0 I I #
coedge $-1 $320 $193 $196 $273 forward $260 $-1 #
coedge $-1 $193 $320 $263 $315 forward $260 $-1 #
vertex $-1 $194 $321 #
straight-curve $-1 -75.030102558337987 -31.65809734249715 12.076308849214485 -1 0 0 I I #
straight-curve $-1 -62.804651020844133 -31.65809734249715 4.2493867017364835 0.71933979245794832 0 0.69465837861970381 I I #
edge $-1 $197 31.65809734249715 $322 41.74141204677381 $196 $323 forward 7 unknown #
point $-1 -62.80465102084414 -31.65809734249715 12.076308849214485 #
point $-1 -62.80465102084414 -31.65809734249715 4.2493867017364764 #
edge $-1 $324 1 $324 0 $200 $-1 forward 7 unknown #
vertex $-1 $201 $325 #
ellipse-curve $-1 -53.302858395979996 -36.69975469463548 2.5199479493433343 -0.69465837861970381 0 0.71933979245794832 1.7983494811448708 0 1.7366459465492596 1 I I #
point $-1 -56.953794058008292 -36.69975469463548 9.8994937220247454 #
plane-surface $-1 62.80465102084414 0 0 -1 0 0 0 0 1 forward_v I I I I #
coedge $-1 $209 $207 $211 $285 reversed $141 $-1 #
edge $-1 $222 -12.076308849214485 $287 12.076308849214485 $221 $326 forward 7 unknown #
vertex $-1 $285 $327 #
straight-curve $-1 -62.80465102084414 -41.74141204677381 0 0 0 -1 I I #
edge $-1 $283 -41.74141204677381 $287 41.74141204677381 $281 $328 forward 7 unknown #
straight-curve $-1 0 -41.74141204677381 -12.076308849214485 -1 0 0 I I #
vertex $-1 $214 $329 #
straight-curve $-1 0 41.74141204677381 -12.076308849214485 1 0 0 I I #
point $-1 62.80465102084414 41.74141204677381 -12.076308849214485 #
point $-1 62.80465102084414 -41.74141204677381 -12.076308849214485 #
straight-curve $-1 -62.80465102084414 0 12.076308849214485 0 -1 0 I I #
point $-1 -62.80465102084414 41.74141204677381 12.076308849214485 #
point $-1 -62.80465102084414 -41.74141204677381 12.076308849214485 #
straight-curve $-1 62.80465102084414 -41.74141204677381 0 0 0 -1 I I #
straight-curve $-1 62.80465102084414 41.74141204677381 0 0 0 -1 I I #
coedge $-1 $300 $236 $233 $297 reversed $231 $-1 #
edge $-1 $305 -62.80465102084414 $298 -57.452443592990818 $296 $330 forward 7 unknown #
vertex $-1 $237 $331 #
straight-curve $-1 57.452443592990825 16.047838536632451 12.076308849214485 0 -1 0 I I #
coedge $-1 $236 $296 $238 $302 forward $231 $-1 #
straight-curve $-1 13.50318205313167 41.74141204677381 68.328799952798363 -0.61566146476048833 0 0.78801076186113728 I I #
edge $-1 $305 -12.076308849214485 $239 -5.2257955488533776 $238 $332 forward 7 unknown #
point $-1 62.80465102084414 41.74141204677381 5.2257955488533776 #
point $-1 57.452443592990818 22.449942099755987 12.076308849214485 #
vertex $-1 $245 $333 #
straight-curve $-1 62.80465102084414 0 12.076308849214485 0 1 0 I I #
vertex $-1 $248 $334 #
point $-1 58.793882561932989 26.308236089159543 5.7047705437201133 #
vertex $-1 $252 $335 #
point $-1 58.793882561932989 32.095677073264888 5.7047705437201133 #
vertex $-1 $256 $336 #
point $-1 58.793882561932989 37.883118057370233 5.7047705437201133 #
coedge $-1 $314 $262 $320 $337 reversed $187 $-1 #
coedge $-1 $262 $313 $265 $318 forward $187 $-1 #
edge $-1 $316 -23.39153469945607 $270 -13.30821999517941 $269 $338 forward 7 unknown #
vertex $-1 $264 $339 #
straight-curve $-1 -47.61722546724998 -41.74141204677381 18.915713410033963 0.71933979245794832 0 0.69465837861970381 I I #
edge $-1 $322 -12.076308849214485 $266 -4.2493867017364764 $265 $340 forward 7 unknown #
point $-1 -62.80465102084414 -41.74141204677381 4.2493867017364764 #
coedge $-1 $269 $268 $313 $337 forward $260 $-1 #
point $-1 -54.699636057462186 -31.65809734249715 12.076308849214485 #
vertex $-1 $273 $341 #
straight-curve $-1 -62.80465102084414 0 12.076308849214485 0 -1 0 I I #
vertex $-1 $276 $342 #
point $-1 -51.504508914835128 -36.69975469463548 4.2565938958925944 #
straight-curve $-1 -62.80465102084414 41.74141204677381 0 0 0 -1 I I #
point $-1 -62.80465102084414 -41.74141204677381 -12.076308849214485 #
straight-curve $-1 -62.80465102084414 0 -12.076308849214485 0 1 0 I I #
point $-1 -62.80465102084414 41.74141204677381 -12.076308849214485 #
straight-curve $-1 0 41.74141204677381 12.076308849214485 -1 0 0 I I #
point $-1 57.452443592990818 41.741412046773817 12.076308849214485 #
straight-curve $-1 62.80465102084414 41.74141204677381 0 0 0 -1 I I #
point $-1 62.80465102084414 41.74141204677381 12.076308849214485 #
point $-1 56.688374222000547 26.308236089159543 5.9632944893710871 #
point $-1 56.688374222000547 32.095677073264888 5.9632944893710871 #
point $-1 56.688374222000547 37.883118057370233 5.9632944893710871 #
edge $-1 $322 -62.80465102084414 $316 -54.699636057462186 $313 $343 forward 7 unknown #
straight-curve $-1 -54.699636057462186 -18.34987734731774 12.076308849214485 0 1 0 I I #
point $-1 -54.699636057462186 -41.74141204677381 12.076308849214485 #
straight-curve $-1 -62.80465102084414 -41.74141204677381 0 0 0 -1 I I #
point $-1 -62.80465102084414 -41.74141204677381 12.076308849214485 #
point $-1 -51.566212449430736 -36.69975469463548 0.72159846819846363 #
straight-curve $-1 0 -41.74141204677381 12.076308849214485 1 0 0 I I #
End-of-ACIS-data 