500 0 9 0           
7 Unknown 11 ACIS 5.0 NT 24 Fri Mar 26 20:29:39 1999 
-1 9.9999999999999995e-007 1e-010 
body $-1 $9 $-1 $10 #
body $-1 $11 $-1 $12 #
body $-1 $13 $-1 $14 #
body $-1 $15 $-1 $16 #
body $-1 $17 $-1 $18 #
body $-1 $19 $-1 $20 #
body $-1 $21 $-1 $22 #
body $-1 $23 $-1 $24 #
body $-1 $25 $-1 $26 #
lump $-1 $-1 $27 $0 #
transform $-1 1 0 0 0 1 0 0 0 1 53.605151524399545 25.57495938890013 10.627653417373603 1 rotate no_reflect no_shear #
lump $-1 $-1 $28 $1 #
transform $-1 1 0 0 0 1 0 0 0 1 53.605151524399545 25.57495938890013 10.627653417373603 1 rotate no_reflect no_shear #
lump $-1 $-1 $29 $2 #
transform $-1 1 0 0 0 1 0 0 0 1 53.605151524399545 25.57495938890013 10.627653417373603 1 rotate no_reflect no_shear #
lump $-1 $-1 $30 $3 #
transform $-1 1 0 0 0 1 0 0 0 1 53.605151524399545 25.57495938890013 10.627653417373603 1 rotate no_reflect no_shear #
lump $-1 $-1 $31 $4 #
transform $-1 1 0 0 0 1 0 0 0 1 53.605151524399545 25.57495938890013 10.627653417373603 1 rotate no_reflect no_shear #
lump $-1 $-1 $32 $5 #
transform $-1 1 0 0 0 1 0 0 0 1 53.605151524399545 25.57495938890013 10.627653417373603 1 rotate no_reflect no_shear #
lump $-1 $-1 $33 $6 #
transform $-1 1 0 0 0 1 0 0 0 1 53.605151524399545 25.57495938890013 10.627653417373603 1 rotate no_reflect no_shear #
lump $-1 $-1 $34 $7 #
transform $-1 1 0 0 0 1 0 0 0 1 53.605151524399545 25.57495938890013 10.627653417373603 1 rotate no_reflect no_shear #
lump $-1 $-1 $35 $8 #
transform $-1 1 0 0 0 1 0 0 0 1 53.605151524399545 25.57495938890013 10.627653417373603 1 rotate no_reflect no_shear #
shell $-1 $-1 $-1 $36 $-1 $9 #
shell $-1 $-1 $-1 $37 $-1 $11 #
shell $-1 $-1 $-1 $38 $-1 $13 #
shell $-1 $-1 $-1 $39 $-1 $15 #
shell $-1 $-1 $-1 $40 $-1 $17 #
shell $-1 $-1 $-1 $41 $-1 $19 #
shell $-1 $-1 $-1 $42 $-1 $21 #
shell $-1 $-1 $-1 $43 $-1 $23 #
shell $-1 $-1 $-1 $44 $-1 $25 #
face $-1 $45 $46 $27 $-1 $47 forward single #
face $-1 $48 $49 $28 $-1 $50 forward single #
face $-1 $51 $52 $29 $-1 $53 reversed single #
face $-1 $54 $55 $30 $-1 $56 forward single #
face $-1 $57 $58 $31 $-1 $59 reversed single #
face $-1 $60 $61 $32 $-1 $62 forward single #
face $-1 $63 $64 $33 $-1 $65 reversed single #
face $-1 $66 $67 $34 $-1 $68 forward single #
face $-1 $69 $70 $35 $-1 $71 forward single #
face $-1 $72 $73 $27 $-1 $74 reversed single #
loop $-1 $-1 $75 $36 #
plane-surface $-1 0 0 10.627653417373603 0 0 1 1 0 0 forward_v I I I I #
face $-1 $76 $77 $28 $-1 $78 forward single #
loop $-1 $-1 $79 $37 #
plane-surface $-1 0 -25.57495938890013 0 0 1 0 0 0 1 forward_v I I I I #
face $-1 $80 $81 $29 $-1 $82 reversed single #
loop $-1 $-1 $83 $38 #
plane-surface $-1 24.675024080491468 -1.3739733427260052 152.98478943374005 0 -1 0 -0.55919291073839883 0 -0.82903756765294845 forward_v I I I I #
face $-1 $84 $85 $30 $-1 $86 forward single #
loop $-1 $87 $88 $39 #
cone-surface $-1 46.923443457428704 -6.4034838247108929 4.6003808338382663 -0.55919291073839883 0 -0.82903756765294845 1.6580751353058969 0 -1.1183858214767977 1 I I 0 1 2 forward I I I I #
face $-1 $89 $90 $31 $-1 $91 reversed single #
loop $-1 $-1 $92 $40 #
plane-surface $-1 24.675024080491468 21.173142821206874 152.98478943374005 0 -1 0 -0.55919291073839883 0 -0.82903756765294845 forward_v I I I I #
face $-1 $93 $94 $32 $-1 $95 forward single #
loop $-1 $96 $97 $41 #
cone-surface $-1 46.923443457428704 16.143632339221984 4.6003808338382663 -0.55919291073839883 0 -0.82903756765294845 1.6580751353058969 0 -1.1183858214767977 1 I I 0 1 2 forward I I I I #
face $-1 $98 $99 $33 $-1 $100 reversed single #
loop $-1 $-1 $101 $42 #
plane-surface $-1 -134.51779522253577 -11.335708707810848 75.567887688490316 0 1 0 -0.75470958851134928 0 0.65605901945558964 forward_v I I I I #
face $-1 $102 $103 $34 $-1 $104 forward single #
loop $-1 $105 $106 $43 #
cone-surface $-1 -49.787479714803204 -8.6351149987042497 6.6497647179756445 0.75470958851134928 0 -0.65605901945558964 0.65605901945558964 0 0.75470958851134928 1 I I 0 1 1 forward I I I I #
face $-1 $107 $108 $35 $-1 $109 forward single #
loop $-1 $110 $111 $44 #
cone-surface $-1 -49.787479714803204 -4.5842244350443515 6.6497647179756445 0.75470958851134928 0 -0.65605901945558964 0.65605901945558964 0 0.75470958851134928 1 I I 0 1 1 forward I I I I #
face $-1 $112 $113 $27 $-1 $114 reversed single #
loop $-1 $-1 $115 $45 #
plane-surface $-1 0 0 -10.627653417373603 0 0 1 1 0 0 forward_v I I I I #
coedge $-1 $116 $117 $118 $119 forward $46 $-1 #
face $-1 $120 $121 $28 $-1 $122 reversed single #
loop $-1 $-1 $123 $48 #
plane-surface $-1 0 0 10.627653417373603 0 0 1 1 0 0 forward_v I I I I #
coedge $-1 $124 $125 $126 $127 forward $49 $-1 #
face $-1 $128 $129 $29 $-1 $130 reversed single #
loop $-1 $-1 $131 $51 #
plane-surface $-1 -35.276217342512332 -6.4034838247108929 64.103420566828163 0.55919291073839883 0 0.82903756765294845 0.82903756765294845 0 -0.55919291073839883 forward_v I I I I #
coedge $-1 $132 $133 $134 $135 reversed $52 $-1 #
face $-1 $-1 $136 $30 $-1 $137 forward single #
loop $-1 $138 $139 $54 #
cone-surface $-1 44.482685094236572 -6.4034838247108929 0.98180781942460804 -0.55919291073839883 0 -0.82903756765294845 0.82903756765294845 0 -0.55919291073839883 1 I I -0.70710678118654746 0.70710678118654746 1 forward I I I I #
loop $-1 $-1 $140 $39 #
coedge $-1 $88 $88 $141 $142 reversed $55 $-1 #
face $-1 $143 $144 $31 $-1 $145 reversed single #
loop $-1 $-1 $146 $57 #
plane-surface $-1 -35.276217342512332 16.143632339221984 64.103420566828163 0.55919291073839883 0 0.82903756765294845 0.82903756765294845 0 -0.55919291073839883 forward_v I I I I #
coedge $-1 $147 $148 $149 $150 reversed $58 $-1 #
face $-1 $-1 $151 $32 $-1 $152 forward single #
loop $-1 $153 $154 $60 #
cone-surface $-1 44.482685094236572 16.143632339221984 0.98180781942460804 -0.55919291073839883 0 -0.82903756765294845 0.82903756765294845 0 -0.55919291073839883 1 I I -0.70710678118654746 0.70710678118654746 1 forward I I I I #
loop $-1 $-1 $155 $41 #
coedge $-1 $97 $97 $156 $157 reversed $61 $-1 #
face $-1 $158 $159 $33 $-1 $160 reversed single #
loop $-1 $-1 $161 $63 #
plane-surface $-1 -53.605151524399545 -6.6096697168743006 5.2316013947585702 -0.75470958851134928 0 0.65605901945558964 0.65605901945558964 0 0.75470958851134928 forward_v I I I I #
coedge $-1 $162 $163 $164 $165 reversed $64 $-1 #
face $-1 $-1 $166 $34 $-1 $167 forward single #
loop $-1 $168 $169 $66 #
cone-surface $-1 -47.93781128101962 -8.6351149987042497 5.0418725201574031 0.75470958851134928 0 -0.65605901945558964 0.32802950972779482 0 0.37735479425567464 1 I I -0.70710678118654746 0.70710678118654746 0.5 forward I I I I #
loop $-1 $-1 $170 $43 #
coedge $-1 $106 $106 $171 $172 reversed $67 $-1 #
face $-1 $-1 $173 $35 $-1 $174 forward single #
loop $-1 $175 $176 $69 #
cone-surface $-1 -47.93781128101962 -4.5842244350443515 5.0418725201574031 0.75470958851134928 0 -0.65605901945558964 0.32802950972779482 0 0.37735479425567464 1 I I -0.70710678118654746 0.70710678118654746 0.5 forward I I I I #
loop $-1 $-1 $177 $44 #
coedge $-1 $111 $111 $178 $179 reversed $70 $-1 #
face $-1 $180 $181 $27 $-1 $182 reversed single #
loop $-1 $-1 $183 $72 #
plane-surface $-1 0 -25.57495938890013 0 0 1 0 0 0 1 forward_v I I I I #
coedge $-1 $184 $185 $186 $187 forward $73 $-1 #
coedge $-1 $188 $75 $189 $190 forward $46 $-1 #
coedge $-1 $75 $188 $191 $192 forward $46 $-1 #
coedge $-1 $193 $194 $75 $119 reversed $195 $-1 #
edge $-1 $196 -25.57495938890013 $197 25.57495938890013 $118 $198 forward 7 unknown #
face $-1 $199 $200 $28 $-1 $201 reversed single #
loop $-1 $-1 $202 $76 #
plane-surface $-1 -53.605151524399545 0 0 1 0 0 0 0 -1 forward_v I I I I #
coedge $-1 $203 $204 $205 $206 forward $77 $-1 #
coedge $-1 $205 $79 $202 $207 reversed $49 $-1 #
coedge $-1 $79 $205 $208 $209 reversed $49 $-1 #
coedge $-1 $210 $211 $79 $127 reversed $200 $-1 #
edge $-1 $212 -53.605151524399545 $213 53.605151524399545 $126 $214 forward 7 unknown #
face $-1 $215 $216 $29 $-1 $217 reversed single #
loop $-1 $-1 $218 $80 #
plane-surface $-1 24.675024080491468 -11.432994306695781 152.98478943374005 0 1 0 0.55919291073839883 0 0.82903756765294845 forward_v I I I I #
coedge $-1 $219 $220 $221 $222 reversed $81 $-1 #
coedge $-1 $133 $83 $223 $224 reversed $52 $-1 #
coedge $-1 $83 $132 $219 $225 reversed $52 $-1 #
coedge $-1 $221 $226 $83 $135 forward $227 $-1 #
edge $-1 $228 -41.267639484153811 $229 -31.667354255119591 $134 $230 forward 7 unknown #
loop $-1 $-1 $141 $84 #
plane-surface $-1 -35.276217342512332 -6.4034838247108929 64.103420566828163 0.55919291073839883 0 0.82903756765294845 0.82903756765294845 0 -0.55919291073839883 forward_v I I I I #
loop $-1 $-1 $231 $54 #
coedge $-1 $139 $139 $140 $232 reversed $85 $-1 #
coedge $-1 $140 $140 $139 $232 forward $87 $-1 #
coedge $-1 $141 $141 $88 $142 forward $136 $-1 #
edge $-1 $233 0 $233 6.2831853071796004 $141 $234 forward 7 unknown #
face $-1 $235 $236 $31 $-1 $237 reversed single #
loop $-1 $-1 $238 $89 #
plane-surface $-1 24.675024080491468 11.114121857237096 152.98478943374005 0 1 0 0.55919291073839883 0 0.82903756765294845 forward_v I I I I #
coedge $-1 $239 $240 $241 $242 reversed $90 $-1 #
coedge $-1 $148 $92 $243 $244 reversed $58 $-1 #
coedge $-1 $92 $147 $239 $245 reversed $58 $-1 #
coedge $-1 $241 $246 $92 $150 forward $247 $-1 #
edge $-1 $248 -41.267639484153811 $249 -31.667354255119591 $149 $250 forward 7 unknown #
loop $-1 $-1 $156 $93 #
plane-surface $-1 -35.276217342512332 16.143632339221984 64.103420566828163 0.55919291073839883 0 0.82903756765294845 0.82903756765294845 0 -0.55919291073839883 forward_v I I I I #
loop $-1 $-1 $251 $60 #
coedge $-1 $154 $154 $155 $252 reversed $94 $-1 #
coedge $-1 $155 $155 $154 $252 forward $96 $-1 #
coedge $-1 $156 $156 $97 $157 forward $151 $-1 #
edge $-1 $253 0 $253 6.2831853071796004 $156 $254 forward 7 unknown #
face $-1 $255 $256 $33 $-1 $257 forward single #
loop $-1 $-1 $258 $98 #
plane-surface $-1 -134.51779522253577 -1.8836307259377527 75.567887688490316 0 -1 0 0.75470958851134928 0 -0.65605901945558964 forward_v I I I I #
coedge $-1 $259 $260 $261 $262 reversed $99 $-1 #
coedge $-1 $163 $101 $263 $264 reversed $64 $-1 #
coedge $-1 $101 $162 $259 $265 reversed $64 $-1 #
coedge $-1 $261 $266 $101 $165 forward $256 $-1 #
edge $-1 $267 13.653746086868338 $268 18.344462427005219 $164 $269 forward 7 unknown #
loop $-1 $-1 $171 $102 #
plane-surface $-1 -53.605151524399545 -6.6096697168743006 5.2316013947585702 -0.75470958851134928 0 0.65605901945558964 0.65605901945558964 0 0.75470958851134928 forward_v I I I I #
loop $-1 $-1 $270 $66 #
coedge $-1 $169 $169 $170 $271 reversed $103 $-1 #
coedge $-1 $170 $170 $169 $271 forward $105 $-1 #
coedge $-1 $171 $171 $106 $172 forward $166 $-1 #
edge $-1 $272 0 $272 6.2831853071796004 $171 $273 forward 7 unknown #
loop $-1 $-1 $178 $107 #
plane-surface $-1 -53.605151524399545 -6.6096697168743006 5.2316013947585702 -0.75470958851134928 0 0.65605901945558964 0.65605901945558964 0 0.75470958851134928 forward_v I I I I #
loop $-1 $-1 $274 $69 #
coedge $-1 $176 $176 $177 $275 reversed $108 $-1 #
coedge $-1 $177 $177 $176 $275 forward $110 $-1 #
coedge $-1 $178 $178 $111 $179 forward $173 $-1 #
edge $-1 $276 0 $276 6.2831853071796004 $178 $277 forward 7 unknown #
face $-1 $278 $279 $27 $-1 $280 reversed single #
loop $-1 $-1 $281 $112 #
plane-surface $-1 -53.605151524399545 0 0 1 0 0 0 0 -1 forward_v I I I I #
coedge $-1 $282 $191 $283 $284 forward $113 $-1 #
coedge $-1 $285 $115 $282 $286 forward $73 $-1 #
coedge $-1 $115 $285 $287 $288 forward $73 $-1 #
coedge $-1 $194 $193 $115 $187 reversed $195 $-1 #
edge $-1 $289 -25.57495938890013 $290 25.57495938890013 $186 $291 forward 7 unknown #
coedge $-1 $117 $116 $292 $293 forward $46 $-1 #
coedge $-1 $294 $295 $116 $190 reversed $279 $-1 #
edge $-1 $197 -53.605151524399545 $296 53.605151524399545 $189 $297 forward 7 unknown #
coedge $-1 $183 $298 $117 $192 reversed $113 $-1 #
edge $-1 $299 -53.605151524399545 $196 53.605151524399545 $191 $300 forward 7 unknown #
coedge $-1 $186 $118 $298 $301 forward $195 $-1 #
coedge $-1 $118 $186 $294 $302 reversed $195 $-1 #
loop $-1 $-1 $193 $278 #
vertex $-1 $119 $303 #
vertex $-1 $119 $304 #
straight-curve $-1 53.605151524399545 0 10.627653417373603 0 1 0 I I #
face $-1 $305 $306 $28 $-1 $307 reversed single #
loop $-1 $-1 $210 $120 #
plane-surface $-1 0 -30.445033646155672 7.6276534173736028 0 0 1 1 0 0 forward_v I I I I #
coedge $-1 $308 $309 $124 $207 forward $121 $-1 #
coedge $-1 $310 $123 $309 $311 forward $77 $-1 #
coedge $-1 $123 $310 $312 $313 forward $77 $-1 #
coedge $-1 $125 $124 $123 $206 reversed $49 $-1 #
edge $-1 $314 -53.605151524399545 $315 53.605151524399545 $123 $316 forward 7 unknown #
edge $-1 $315 -10.627653417373603 $213 -7.6276534173736028 $202 $317 forward 7 unknown #
coedge $-1 $312 $318 $125 $209 forward $319 $-1 #
edge $-1 $212 7.6276534173736028 $314 10.627653417373603 $208 $320 forward 7 unknown #
coedge $-1 $321 $126 $318 $322 forward $200 $-1 #
coedge $-1 $126 $321 $308 $323 forward $200 $-1 #
vertex $-1 $209 $324 #
vertex $-1 $207 $325 #
straight-curve $-1 0 -25.57495938890013 7.6276534173736028 -1 0 0 I I #
face $-1 $-1 $227 $29 $-1 $326 forward single #
loop $-1 $-1 $327 $128 #
plane-surface $-1 53.605151524399545 0 0 -1 0 0 0 0 1 forward_v I I I I #
coedge $-1 $328 $329 $330 $331 reversed $129 $-1 #
coedge $-1 $332 $131 $133 $225 forward $81 $-1 #
coedge $-1 $131 $332 $328 $333 forward $81 $-1 #
coedge $-1 $330 $134 $131 $222 forward $227 $-1 #
edge $-1 $229 -1.8277685696294412 $334 8.2312523943403342 $221 $335 forward 7 unknown #
coedge $-1 $336 $337 $132 $224 forward $216 $-1 #
edge $-1 $338 -72.340215573045668 $228 -65.864741299496416 $223 $339 forward 7 unknown #
edge $-1 $229 95.630266626308398 $338 107.21030304879909 $133 $340 forward 7 unknown #
coedge $-1 $134 $330 $336 $341 forward $227 $-1 #
loop $-1 $-1 $330 $215 #
vertex $-1 $224 $342 #
vertex $-1 $135 $343 #
straight-curve $-1 12.337512040245734 -1.3739733427260052 10.627653417373608 -1 0 0 I I #
coedge $-1 $231 $231 $-1 $344 reversed $138 $-1 #
edge $-1 $345 0 $345 6.2831853071796004 $139 $346 forward 7 unknown #
vertex $-1 $142 $347 #
ellipse-curve $-1 48.805008909882439 -6.4034838247108929 7.3899162805989853 0.55919291073839883 0 0.82903756765294845 1.6580751353058969 0 -1.1183858214767977 1 I I #
face $-1 $-1 $247 $31 $-1 $348 forward single #
loop $-1 $-1 $349 $143 #
plane-surface $-1 53.605151524399545 0 0 -1 0 0 0 0 1 forward_v I I I I #
coedge $-1 $350 $351 $352 $353 reversed $144 $-1 #
coedge $-1 $354 $146 $148 $245 forward $90 $-1 #
coedge $-1 $146 $354 $350 $355 forward $90 $-1 #
coedge $-1 $352 $149 $146 $242 forward $247 $-1 #
edge $-1 $249 -13.101326651595882 $356 -3.0423056876261043 $241 $357 forward 7 unknown #
coedge $-1 $358 $359 $147 $244 forward $236 $-1 #
edge $-1 $360 -72.340215573045668 $248 -65.864741299496416 $243 $361 forward 7 unknown #
edge $-1 $249 95.630266626308398 $360 107.21030304879909 $148 $362 forward 7 unknown #
coedge $-1 $149 $352 $358 $363 forward $247 $-1 #
loop $-1 $-1 $352 $235 #
vertex $-1 $244 $364 #
vertex $-1 $150 $365 #
straight-curve $-1 12.337512040245734 21.173142821206874 10.627653417373608 -1 0 0 I I #
coedge $-1 $251 $251 $-1 $366 reversed $153 $-1 #
edge $-1 $367 0 $367 6.2831853071796004 $154 $368 forward 7 unknown #
vertex $-1 $157 $369 #
ellipse-curve $-1 48.805008909882439 16.143632339221984 7.3899162805989853 0.55919291073839883 0 0.82903756765294845 1.6580751353058969 0 -1.1183858214767977 1 I I #
face $-1 $-1 $370 $33 $-1 $371 reversed single #
loop $-1 $-1 $164 $158 #
plane-surface $-1 0 0 10.627653417373603 0 0 1 1 0 0 forward_v I I I I #
coedge $-1 $372 $373 $374 $375 reversed $159 $-1 #
coedge $-1 $376 $161 $163 $265 forward $99 $-1 #
coedge $-1 $161 $376 $372 $377 forward $99 $-1 #
coedge $-1 $374 $164 $161 $262 forward $256 $-1 #
edge $-1 $268 -8.0308738493736982 $378 1.4212041324993976 $261 $379 forward 7 unknown #
coedge $-1 $380 $381 $162 $264 forward $370 $-1 #
edge $-1 $382 -32.552342449486588 $267 -27.156290426871557 $263 $383 forward 7 unknown #
edge $-1 $268 -7.1498389642281408 $382 0 $163 $384 forward 7 unknown #
coedge $-1 $164 $374 $380 $385 forward $256 $-1 #
vertex $-1 $264 $386 #
vertex $-1 $165 $387 #
straight-curve $-1 -67.258897611267884 -11.335708707810848 10.627653417373601 1 0 0 I I #
coedge $-1 $270 $270 $-1 $388 reversed $168 $-1 #
edge $-1 $389 0 $389 6.2831853071796004 $169 $390 forward 7 unknown #
vertex $-1 $172 $391 #
ellipse-curve $-1 -51.259793354331109 -8.6351149987042497 7.9296274060660839 -0.75470958851134928 0 0.65605901945558964 0.65605901945558964 0 0.75470958851134928 1 I I #
coedge $-1 $274 $274 $-1 $392 reversed $175 $-1 #
edge $-1 $393 0 $393 6.2831853071796004 $176 $394 forward 7 unknown #
vertex $-1 $179 $395 #
ellipse-curve $-1 -51.259793354331109 -4.5842244350443515 7.9296274060660839 -0.75470958851134928 0 0.65605901945558964 0.65605901945558964 0 0.75470958851134928 1 I I #
face $-1 $-1 $195 $27 $-1 $396 reversed single #
loop $-1 $-1 $294 $180 #
plane-surface $-1 0 25.57495938890013 0 0 -1 0 0 0 -1 forward_v I I I I #
coedge $-1 $397 $292 $295 $398 forward $181 $-1 #
coedge $-1 $298 $183 $184 $286 reversed $113 $-1 #
coedge $-1 $292 $397 $183 $284 reversed $181 $-1 #
edge $-1 $299 -10.627653417373603 $399 10.627653417373603 $283 $400 forward 7 unknown #
coedge $-1 $185 $184 $397 $401 forward $73 $-1 #
edge $-1 $290 -53.605151524399545 $399 53.605151524399545 $282 $402 forward 7 unknown #
coedge $-1 $295 $294 $185 $288 reversed $279 $-1 #
edge $-1 $403 -53.605151524399545 $289 53.605151524399545 $287 $404 forward 7 unknown #
vertex $-1 $187 $405 #
vertex $-1 $301 $406 #
straight-curve $-1 53.605151524399545 0 -10.627653417373603 0 -1 0 I I #
coedge $-1 $281 $283 $188 $293 reversed $181 $-1 #
edge $-1 $296 -25.57495938890013 $299 25.57495938890013 $292 $407 forward 7 unknown #
coedge $-1 $287 $189 $194 $302 forward $279 $-1 #
coedge $-1 $189 $287 $281 $398 reversed $279 $-1 #
vertex $-1 $190 $408 #
straight-curve $-1 0 25.57495938890013 10.627653417373603 -1 0 0 I I #
coedge $-1 $191 $282 $193 $301 reversed $113 $-1 #
vertex $-1 $293 $409 #
straight-curve $-1 0 -25.57495938890013 10.627653417373603 1 0 0 I I #
edge $-1 $196 -10.627653417373603 $290 10.627653417373603 $193 $410 forward 7 unknown #
edge $-1 $197 -10.627653417373603 $289 10.627653417373603 $194 $411 forward 7 unknown #
point $-1 53.605151524399545 -25.57495938890013 10.627653417373603 #
point $-1 53.605151524399545 25.57495938890013 10.627653417373603 #
face $-1 $-1 $319 $28 $-1 $412 reversed single #
loop $-1 $-1 $413 $199 #
plane-surface $-1 0 -35.315107903411217 9.1276534173736028 0 1 0 0 0 1 forward_v I I I I #
coedge $-1 $414 $202 $211 $323 reversed $121 $-1 #
coedge $-1 $202 $414 $203 $311 reversed $121 $-1 #
coedge $-1 $204 $203 $415 $416 forward $77 $-1 #
edge $-1 $315 25.57495938890013 $417 35.315107903411217 $309 $418 forward 7 unknown #
coedge $-1 $419 $208 $204 $313 reversed $319 $-1 #
edge $-1 $420 -35.315107903411217 $314 -25.57495938890013 $312 $421 forward 7 unknown #
vertex $-1 $209 $422 #
vertex $-1 $311 $423 #
straight-curve $-1 0 -25.57495938890013 10.627653417373603 -1 0 0 I I #
straight-curve $-1 -53.605151524399545 -25.57495938890013 0 0 0 -1 I I #
coedge $-1 $208 $419 $210 $322 reversed $319 $-1 #
loop $-1 $-1 $208 $305 #
straight-curve $-1 53.605151524399545 -25.57495938890013 0 0 0 1 I I #
coedge $-1 $211 $210 $424 $425 forward $200 $-1 #
edge $-1 $212 -4.870074257255542 $426 4.8700742572555455 $318 $427 forward 7 unknown #
edge $-1 $428 -4.8700742572555455 $213 4.870074257255542 $308 $429 forward 7 unknown #
point $-1 53.605151524399545 -25.57495938890013 7.6276534173736028 #
point $-1 -53.605151524399545 -25.57495938890013 7.6276534173736028 #
plane-surface $-1 0 0 10.627653417373603 0 0 1 1 0 0 forward_v I I I I #
coedge $-1 $337 $336 $329 $430 forward $216 $-1 #
coedge $-1 $329 $218 $220 $333 reversed $129 $-1 #
coedge $-1 $218 $328 $327 $430 reversed $129 $-1 #
coedge $-1 $226 $221 $218 $331 forward $227 $-1 #
edge $-1 $334 31.667354255119591 $431 41.267639484153811 $330 $432 forward 7 unknown #
coedge $-1 $220 $219 $337 $433 reversed $81 $-1 #
edge $-1 $434 -107.21030304879909 $334 -95.630266626308398 $328 $435 forward 7 unknown #
vertex $-1 $222 $436 #
straight-curve $-1 44.004866295365332 -3.2017419123554465 10.627653417373594 0 -1 0 I I #
coedge $-1 $327 $223 $226 $341 reversed $216 $-1 #
coedge $-1 $223 $327 $332 $433 forward $216 $-1 #
vertex $-1 $224 $437 #
straight-curve $-1 53.605151524399545 -1.3739733427260052 76.492394716870024 0 0 1 I I #
straight-curve $-1 -35.276217342512332 -1.3739733427260052 64.103420566828163 0.82903756765294845 0 -0.55919291073839883 I I #
edge $-1 $431 -11.432994306695781 $228 -1.3739733427260052 $336 $438 forward 7 unknown #
point $-1 53.605151524399545 -1.3739733427260052 10.627653417373603 #
point $-1 44.004866295365325 -1.3739733427260052 10.627653417373601 #
edge $-1 $439 1 $439 0 $231 $-1 forward 7 unknown #
vertex $-1 $232 $440 #
ellipse-curve $-1 45.041878004974969 -6.4034838247108929 1.8108453870775565 0.55919291073839883 0 0.82903756765294845 1.6580751353058969 0 -1.1183858214767977 1 I I #
point $-1 50.463084045188332 -6.4034838247108929 6.2715304591221788 #
plane-surface $-1 0 0 10.627653417373603 0 0 1 1 0 0 forward_v I I I I #
coedge $-1 $359 $358 $351 $441 forward $236 $-1 #
coedge $-1 $351 $238 $240 $355 reversed $144 $-1 #
coedge $-1 $238 $350 $349 $441 reversed $144 $-1 #
coedge $-1 $246 $241 $238 $353 forward $247 $-1 #
edge $-1 $356 31.667354255119591 $442 41.267639484153811 $352 $443 forward 7 unknown #
coedge $-1 $240 $239 $359 $444 reversed $90 $-1 #
edge $-1 $445 -107.21030304879909 $356 -95.630266626308398 $350 $446 forward 7 unknown #
vertex $-1 $242 $447 #
straight-curve $-1 44.004866295365332 8.071816169610992 10.627653417373594 0 -1 0 I I #
coedge $-1 $349 $243 $246 $363 reversed $236 $-1 #
coedge $-1 $243 $349 $354 $444 forward $236 $-1 #
vertex $-1 $244 $448 #
straight-curve $-1 53.605151524399545 21.173142821206874 76.492394716870024 0 0 1 I I #
straight-curve $-1 -35.276217342512332 21.173142821206874 64.103420566828163 0.82903756765294845 0 -0.55919291073839883 I I #
edge $-1 $442 11.114121857237096 $248 21.173142821206874 $358 $449 forward 7 unknown #
point $-1 53.605151524399545 21.173142821206874 10.627653417373603 #
point $-1 44.004866295365325 21.173142821206874 10.627653417373601 #
edge $-1 $450 1 $450 0 $251 $-1 forward 7 unknown #
vertex $-1 $252 $451 #
ellipse-curve $-1 45.041878004974969 16.143632339221984 1.8108453870775565 0.55919291073839883 0 0.82903756765294845 1.6580751353058969 0 -1.1183858214767977 1 I I #
point $-1 50.463084045188332 16.143632339221984 6.2715304591221788 #
loop $-1 $-1 $263 $255 #
plane-surface $-1 -53.605151524399545 0 0 1 0 0 0 0 -1 forward_v I I I I #
coedge $-1 $373 $258 $260 $377 reversed $159 $-1 #
coedge $-1 $258 $372 $452 $453 reversed $159 $-1 #
coedge $-1 $266 $261 $258 $375 forward $256 $-1 #
edge $-1 $378 -18.344462427005219 $454 -13.653746086868338 $374 $455 forward 7 unknown #
coedge $-1 $260 $259 $381 $456 reversed $99 $-1 #
edge $-1 $457 0 $378 7.1498389642281408 $372 $458 forward 7 unknown #
vertex $-1 $262 $459 #
straight-curve $-1 -48.914435184262665 -3.3048348584371503 10.627653417373603 0 1 0 I I #
coedge $-1 $452 $263 $266 $385 reversed $370 $-1 #
coedge $-1 $263 $452 $376 $456 forward $370 $-1 #
vertex $-1 $264 $460 #
straight-curve $-1 -53.605151524399545 -11.335708707810848 37.783943844245158 0 0 1 I I #
straight-curve $-1 -53.605151524399545 -11.335708707810848 5.2316013947585702 -0.65605901945558964 0 -0.75470958851134928 I I #
edge $-1 $454 1.8836307259377527 $267 11.335708707810848 $380 $461 forward 7 unknown #
point $-1 -53.605151524399545 -11.335708707810848 10.627653417373603 #
point $-1 -48.914435184262665 -11.335708707810848 10.627653417373603 #
edge $-1 $462 1 $462 0 $270 $-1 forward 7 unknown #
vertex $-1 $271 $463 #
ellipse-curve $-1 -48.315166075275293 -8.6351149987042497 5.369902029885198 -0.75470958851134928 0 0.65605901945558964 0.65605901945558964 0 0.75470958851134928 1 I I #
point $-1 -50.603734334875519 -8.6351149987042497 8.6843369945774391 #
edge $-1 $464 1 $464 0 $274 $-1 forward 7 unknown #
vertex $-1 $275 $465 #
ellipse-curve $-1 -48.315166075275293 -4.5842244350443515 5.369902029885198 -0.75470958851134928 0 0.65605901945558964 0.65605901945558964 0 0.75470958851134928 1 I I #
point $-1 -50.603734334875519 -4.5842244350443515 8.6843369945774391 #
plane-surface $-1 53.605151524399545 0 0 -1 0 0 0 0 1 forward_v I I I I #
coedge $-1 $283 $281 $285 $401 reversed $181 $-1 #
edge $-1 $296 -10.627653417373603 $403 10.627653417373603 $295 $466 forward 7 unknown #
vertex $-1 $401 $467 #
straight-curve $-1 -53.605151524399545 -25.57495938890013 0 0 0 -1 I I #
edge $-1 $399 -25.57495938890013 $403 25.57495938890013 $397 $468 forward 7 unknown #
straight-curve $-1 0 -25.57495938890013 -10.627653417373603 -1 0 0 I I #
vertex $-1 $288 $469 #
straight-curve $-1 0 25.57495938890013 -10.627653417373603 1 0 0 I I #
point $-1 53.605151524399545 25.57495938890013 -10.627653417373603 #
point $-1 53.605151524399545 -25.57495938890013 -10.627653417373603 #
straight-curve $-1 -53.605151524399545 0 10.627653417373603 0 -1 0 I I #
point $-1 -53.605151524399545 25.57495938890013 10.627653417373603 #
point $-1 -53.605151524399545 -25.57495938890013 10.627653417373603 #
straight-curve $-1 53.605151524399545 -25.57495938890013 0 0 0 -1 I I #
straight-curve $-1 53.605151524399545 25.57495938890013 0 0 0 -1 I I #
plane-surface $-1 53.605151524399545 0 0 -1 0 0 0 0 1 forward_v I I I I #
coedge $-1 $424 $415 $414 $470 forward $306 $-1 #
coedge $-1 $309 $308 $413 $470 reversed $121 $-1 #
coedge $-1 $413 $471 $310 $416 reversed $306 $-1 #
edge $-1 $417 -53.605151524399545 $420 53.605151524399545 $415 $472 forward 7 unknown #
vertex $-1 $311 $473 #
straight-curve $-1 -53.605151524399545 0 10.627653417373603 0 -1 0 I I #
coedge $-1 $318 $312 $471 $474 forward $319 $-1 #
vertex $-1 $313 $475 #
straight-curve $-1 53.605151524399545 0 10.627653417373603 0 1 0 I I #
point $-1 53.605151524399545 -25.57495938890013 10.627653417373603 #
point $-1 -53.605151524399545 -25.57495938890013 10.627653417373603 #
coedge $-1 $471 $413 $321 $425 reversed $306 $-1 #
edge $-1 $426 -53.605151524399545 $428 53.605151524399545 $424 $476 forward 7 unknown #
vertex $-1 $474 $477 #
straight-curve $-1 53.605151524399545 -30.445033646155672 7.6276534173736028 0 -1 0 I I #
vertex $-1 $323 $478 #
straight-curve $-1 -53.605151524399545 -30.445033646155672 7.6276534173736028 0 1 0 I I #
edge $-1 $431 65.864741299496416 $434 72.340215573045668 $327 $479 forward 7 unknown #
vertex $-1 $341 $480 #
straight-curve $-1 12.337512040245734 -11.432994306695781 10.627653417373608 1 0 0 I I #
edge $-1 $434 -8.2312523943403342 $338 1.8277685696294412 $337 $481 forward 7 unknown #
vertex $-1 $433 $482 #
straight-curve $-1 -35.276217342512332 -11.432994306695781 64.103420566828163 -0.82903756765294845 0 0.55919291073839883 I I #
point $-1 44.004866295365325 -11.432994306695781 10.627653417373601 #
point $-1 53.605151524399552 -1.3739733427260052 4.1521791438243625 #
straight-curve $-1 53.605151524399545 0 10.627653417373603 0 1 0 I I #
vertex $-1 $344 $483 #
point $-1 46.699953140280869 -6.4034838247108929 0.69245956560075883 #
edge $-1 $442 65.864741299496416 $445 72.340215573045668 $349 $484 forward 7 unknown #
vertex $-1 $363 $485 #
straight-curve $-1 12.337512040245734 11.114121857237096 10.627653417373608 1 0 0 I I #
edge $-1 $445 3.0423056876261043 $360 13.101326651595882 $359 $486 forward 7 unknown #
vertex $-1 $444 $487 #
straight-curve $-1 -35.276217342512332 11.114121857237096 64.103420566828163 -0.82903756765294845 0 0.55919291073839883 I I #
point $-1 44.004866295365325 11.114121857237096 10.627653417373601 #
point $-1 53.605151524399552 21.173142821206874 4.1521791438243625 #
straight-curve $-1 53.605151524399545 0 10.627653417373603 0 1 0 I I #
vertex $-1 $366 $488 #
point $-1 46.699953140280869 16.143632339221984 0.69245956560075883 #
coedge $-1 $381 $380 $373 $453 forward $370 $-1 #
edge $-1 $454 27.156290426871557 $457 32.552342449486588 $452 $489 forward 7 unknown #
vertex $-1 $385 $490 #
straight-curve $-1 -67.258897611267884 -1.8836307259377527 10.627653417373601 -1 0 0 I I #
edge $-1 $457 -1.4212041324993976 $382 8.0308738493736982 $381 $491 forward 7 unknown #
vertex $-1 $456 $492 #
straight-curve $-1 -53.605151524399545 -1.8836307259377527 5.2316013947585702 0.65605901945558964 0 0.75470958851134928 I I #
point $-1 -48.914435184262665 -1.8836307259377527 10.627653417373603 #
point $-1 -53.605151524399545 -11.335708707810848 5.2316013947585702 #
straight-curve $-1 -53.605151524399545 0 10.627653417373603 0 -1 0 I I #
vertex $-1 $388 $493 #
point $-1 -47.659107055819703 -8.6351149987042497 6.1246116183965471 #
vertex $-1 $392 $494 #
point $-1 -47.659107055819703 -4.5842244350443515 6.1246116183965471 #
straight-curve $-1 -53.605151524399545 25.57495938890013 0 0 0 -1 I I #
point $-1 -53.605151524399545 -25.57495938890013 -10.627653417373603 #
straight-curve $-1 -53.605151524399545 0 -10.627653417373603 0 1 0 I I #
point $-1 -53.605151524399545 25.57495938890013 -10.627653417373603 #
edge $-1 $417 -1.5 $428 1.5 $414 $495 forward 7 unknown #
coedge $-1 $415 $424 $419 $474 reversed $306 $-1 #
straight-curve $-1 0 -35.315107903411217 10.627653417373603 1 0 0 I I #
point $-1 -53.605151524399545 -35.315107903411217 10.627653417373603 #
edge $-1 $420 -1.5 $426 1.5 $419 $496 forward 7 unknown #
point $-1 53.605151524399545 -35.315107903411217 10.627653417373603 #
straight-curve $-1 0 -35.315107903411217 7.6276534173736028 -1 0 0 I I #
point $-1 53.605151524399545 -35.315107903411217 7.6276534173736028 #
point $-1 -53.605151524399545 -35.315107903411217 7.6276534173736028 #
straight-curve $-1 53.605151524399545 -11.432994306695781 76.492394716870024 0 0 -1 I I #
point $-1 53.605151524399545 -11.432994306695781 10.627653417373603 #
straight-curve $-1 53.605151524399545 -3.2017419123554465 4.1521791438243625 0 1 0 I I #
point $-1 53.605151524399552 -11.432994306695781 4.1521791438243625 #
point $-1 43.923492183498176 -6.4034838247108929 0.15277025177165959 #
straight-curve $-1 53.605151524399545 11.114121857237096 76.492394716870024 0 0 -1 I I #
point $-1 53.605151524399545 11.114121857237096 10.627653417373603 #
straight-curve $-1 53.605151524399545 8.071816169610992 4.1521791438243625 0 1 0 I I #
point $-1 53.605151524399552 11.114121857237096 4.1521791438243625 #
point $-1 43.923492183498176 16.143632339221984 0.15277025177165959 #
straight-curve $-1 -53.605151524399545 -1.8836307259377527 37.783943844245158 0 0 -1 I I #
point $-1 -53.605151524399545 -1.8836307259377527 10.627653417373603 #
straight-curve $-1 -53.605151524399545 -3.3048348584371503 5.2316013947585738 0 -1 0 I I #
point $-1 -53.605151524399545 -1.8836307259377527 5.2316013947585702 #
point $-1 -47.560456486763947 -8.6351149987042497 4.7138430104296081 #
point $-1 -47.560456486763947 -4.5842244350443515 4.7138430104296081 #
straight-curve $-1 -53.605151524399545 -35.315107903411217 9.1276534173736028 0 0 -1 I I #
straight-curve $-1 53.605151524399545 -35.315107903411217 9.1276534173736028 0 0 -1 I I #
End-of-ACIS-data 