500 0 9 0           
7 Unknown 11 ACIS 5.0 NT 24 Fri Mar 26 19:12:07 1999 
-1 9.9999999999999995e-007 1e-010 
body $-1 $9 $-1 $10 #
body $-1 $11 $-1 $12 #
body $-1 $13 $-1 $14 #
body $-1 $15 $-1 $16 #
body $-1 $17 $-1 $18 #
body $-1 $19 $-1 $20 #
body $-1 $21 $-1 $22 #
body $-1 $23 $-1 $24 #
body $-1 $25 $-1 $26 #
lump $-1 $-1 $27 $0 #
transform $-1 1 0 0 0 1 0 0 0 1 56.51783806878872 23.671016648482585 9.6615775280048766 1 rotate no_reflect no_shear #
lump $-1 $-1 $28 $1 #
transform $-1 1 0 0 0 1 0 0 0 1 56.51783806878872 23.671016648482585 9.6615775280048766 1 rotate no_reflect no_shear #
lump $-1 $-1 $29 $2 #
transform $-1 1 0 0 0 1 0 0 0 1 56.51783806878872 23.671016648482585 9.6615775280048766 1 rotate no_reflect no_shear #
lump $-1 $-1 $30 $3 #
transform $-1 1 0 0 0 1 0 0 0 1 56.51783806878872 23.671016648482585 9.6615775280048766 1 rotate no_reflect no_shear #
lump $-1 $-1 $31 $4 #
transform $-1 1 0 0 0 1 0 0 0 1 56.51783806878872 23.671016648482585 9.6615775280048766 1 rotate no_reflect no_shear #
lump $-1 $-1 $32 $5 #
transform $-1 1 0 0 0 1 0 0 0 1 56.51783806878872 23.671016648482585 9.6615775280048766 1 rotate no_reflect no_shear #
lump $-1 $-1 $33 $6 #
transform $-1 1 0 0 0 1 0 0 0 1 56.51783806878872 23.671016648482585 9.6615775280048766 1 rotate no_reflect no_shear #
lump $-1 $-1 $34 $7 #
transform $-1 1 0 0 0 1 0 0 0 1 56.51783806878872 23.671016648482585 9.6615775280048766 1 rotate no_reflect no_shear #
lump $-1 $-1 $35 $8 #
transform $-1 1 0 0 0 1 0 0 0 1 56.51783806878872 23.671016648482585 9.6615775280048766 1 rotate no_reflect no_shear #
shell $-1 $-1 $-1 $36 $-1 $9 #
shell $-1 $-1 $-1 $37 $-1 $11 #
shell $-1 $-1 $-1 $38 $-1 $13 #
shell $-1 $-1 $-1 $39 $-1 $15 #
shell $-1 $-1 $-1 $40 $-1 $17 #
shell $-1 $-1 $-1 $41 $-1 $19 #
shell $-1 $-1 $-1 $42 $-1 $21 #
shell $-1 $-1 $-1 $43 $-1 $23 #
shell $-1 $-1 $-1 $44 $-1 $25 #
face $-1 $45 $46 $27 $-1 $47 forward single #
face $-1 $48 $49 $28 $-1 $50 reversed single #
face $-1 $51 $52 $29 $-1 $53 reversed single #
face $-1 $54 $55 $30 $-1 $56 forward single #
face $-1 $57 $58 $31 $-1 $59 forward single #
face $-1 $60 $61 $32 $-1 $62 reversed single #
face $-1 $63 $64 $33 $-1 $65 forward single #
face $-1 $66 $67 $34 $-1 $68 reversed single #
face $-1 $69 $70 $35 $-1 $71 forward single #
face $-1 $72 $73 $27 $-1 $74 reversed single #
loop $-1 $-1 $75 $36 #
plane-surface $-1 0 0 9.6615775280048766 0 0 1 1 0 0 forward_v I I I I #
face $-1 $76 $77 $28 $-1 $78 reversed single #
loop $-1 $-1 $79 $37 #
plane-surface $-1 -49.615810534358673 -18.433012751546816 0 1 0 0 0 0 -1 forward_v I I I I #
face $-1 $80 $81 $29 $-1 $82 reversed single #
loop $-1 $-1 $83 $38 #
plane-surface $-1 64.884087346329849 5.7489163009450976 164.46835649525755 0 -1 0 -0.74314483375859142 0 -0.66913059716165679 forward_v I I I I #
face $-1 $84 $85 $30 $-1 $86 forward single #
loop $-1 $87 $88 $39 #
cone-surface $-1 53.098078771085817 -1.5503714109657771 6.1252501654194633 -0.74314483375859142 0 -0.66913059716165679 0.66913059716165679 0 -0.74314483375859142 1 I I 0 1 1 forward I I I I #
face $-1 $89 $90 $31 $-1 $91 forward single #
loop $-1 $92 $93 $40 #
cone-surface $-1 53.098078771085817 2.8292012161807492 6.1252501654194633 -0.74314483375859142 0 -0.66913059716165679 0.66913059716165679 0 -0.74314483375859142 1 I I 0 1 1 forward I I I I #
face $-1 $94 $95 $32 $-1 $96 reversed single #
loop $-1 $-1 $97 $41 #
plane-surface $-1 -118.08148044923681 -2.2434718018823183 98.433707007909447 0 1 0 -0.54463904215088732 0 0.83867056331134215 forward_v I I I I #
face $-1 $98 $99 $33 $-1 $100 forward single #
loop $-1 $101 $102 $42 #
cone-surface $-1 -50.812101134512908 1.4972660475267254 5.0079634876887962 0.54463904215088732 0 -0.83867056331134215 0.83867056331134215 0 0.54463904215088732 1 I I 0 1 1 forward I I I I #
face $-1 $103 $104 $34 $-1 $105 reversed single #
loop $-1 $-1 $106 $43 #
plane-surface $-1 -56.51783806878872 1.4972660475267254 3.6340128273289451 -0.54463904215088732 0 0.83867056331134215 0.83867056331134215 0 0.54463904215088732 forward_v I I I I #
face $-1 $107 $108 $35 $-1 $109 forward single #
loop $-1 $110 $111 $44 #
cone-surface $-1 -50.812101134512908 8.9787417463448165 5.0079634876887962 0.54463904215088732 0 -0.83867056331134215 0.83867056331134215 0 0.54463904215088732 1 I I 0 1 1 forward I I I I #
face $-1 $112 $113 $27 $-1 $114 reversed single #
loop $-1 $-1 $115 $45 #
plane-surface $-1 0 0 -9.6615775280048766 0 0 1 1 0 0 forward_v I I I I #
coedge $-1 $116 $117 $118 $119 forward $46 $-1 #
face $-1 $120 $121 $28 $-1 $122 reversed single #
loop $-1 $-1 $123 $48 #
plane-surface $-1 -47.784129704202755 -13.195008854611046 0 0 -1 0 0 0 -1 forward_v I I I I #
coedge $-1 $124 $125 $126 $127 forward $49 $-1 #
face $-1 $128 $129 $29 $-1 $130 reversed single #
loop $-1 $-1 $131 $51 #
plane-surface $-1 -19.117791405720112 0.63941490260748424 88.83272702074872 0.74314483375859142 0 0.66913059716165679 0.66913059716165679 0 -0.74314483375859142 forward_v I I I I #
coedge $-1 $132 $133 $134 $135 reversed $52 $-1 #
face $-1 $-1 $136 $30 $-1 $137 forward single #
loop $-1 $138 $139 $54 #
cone-surface $-1 51.481551083369695 -1.5503714109657771 4.6697221339062693 -0.74314483375859142 0 -0.66913059716165679 0.3345652985808284 0 -0.37157241687929571 1 I I -0.70710678118654746 0.70710678118654746 0.5 forward I I I I #
loop $-1 $-1 $140 $39 #
coedge $-1 $88 $88 $141 $142 reversed $55 $-1 #
face $-1 $-1 $143 $31 $-1 $144 forward single #
loop $-1 $145 $146 $57 #
cone-surface $-1 51.481551083369695 2.8292012161807492 4.6697221339062693 -0.74314483375859142 0 -0.66913059716165679 0.3345652985808284 0 -0.37157241687929571 1 I I -0.70710678118654746 0.70710678118654746 0.5 forward I I I I #
loop $-1 $-1 $147 $40 #
coedge $-1 $93 $93 $148 $149 reversed $58 $-1 #
face $-1 $150 $151 $32 $-1 $152 reversed single #
loop $-1 $-1 $153 $60 #
plane-surface $-1 -56.51783806878872 1.4972660475267254 3.6340128273289451 -0.54463904215088732 0 0.83867056331134215 0.83867056331134215 0 0.54463904215088732 forward_v I I I I #
coedge $-1 $154 $155 $156 $157 reversed $61 $-1 #
face $-1 $-1 $158 $33 $-1 $159 forward single #
loop $-1 $160 $161 $63 #
cone-surface $-1 -49.47486244256298 1.4972660475267254 2.9487965160550154 0.54463904215088732 0 -0.83867056331134215 0.41933528165567108 0 0.27231952107544366 1 I I -0.70710678118654746 0.70710678118654746 0.5 forward I I I I #
loop $-1 $-1 $162 $42 #
coedge $-1 $102 $102 $163 $164 reversed $64 $-1 #
face $-1 $165 $166 $34 $-1 $167 reversed single #
loop $-1 $-1 $168 $66 #
plane-surface $-1 -118.08148044923681 12.71947959575386 98.433707007909447 0 -1 0 0.54463904215088732 0 -0.83867056331134215 forward_v I I I I #
coedge $-1 $169 $170 $171 $172 reversed $67 $-1 #
face $-1 $-1 $173 $35 $-1 $174 forward single #
loop $-1 $175 $176 $69 #
cone-surface $-1 -49.47486244256298 8.9787417463448165 2.9487965160550154 0.54463904215088732 0 -0.83867056331134215 0.41933528165567108 0 0.27231952107544366 1 I I -0.70710678118654746 0.70710678118654746 0.5 forward I I I I #
loop $-1 $-1 $177 $44 #
coedge $-1 $111 $111 $178 $179 reversed $70 $-1 #
face $-1 $180 $181 $27 $-1 $182 reversed single #
loop $-1 $-1 $183 $72 #
plane-surface $-1 0 -23.671016648482585 0 0 1 0 0 0 1 forward_v I I I I #
coedge $-1 $184 $185 $186 $187 forward $73 $-1 #
coedge $-1 $188 $75 $189 $190 forward $46 $-1 #
coedge $-1 $75 $188 $191 $192 forward $46 $-1 #
coedge $-1 $193 $194 $75 $119 reversed $195 $-1 #
edge $-1 $196 -23.671016648482585 $197 23.671016648482585 $118 $198 forward 7 unknown #
face $-1 $199 $200 $28 $-1 $201 forward single #
loop $-1 $-1 $202 $76 #
plane-surface $-1 -45.952448874046837 -18.433012751546816 0 -1 0 0 0 0 1 forward_v I I I I #
coedge $-1 $203 $204 $205 $206 forward $77 $-1 #
coedge $-1 $207 $79 $208 $209 reversed $49 $-1 #
coedge $-1 $79 $207 $210 $211 reversed $49 $-1 #
coedge $-1 $204 $203 $79 $127 reversed $77 $-1 #
edge $-1 $212 -9.6615775280048766 $213 9.6615775280048766 $126 $214 forward 7 unknown #
face $-1 $215 $216 $29 $-1 $217 reversed single #
loop $-1 $-1 $218 $80 #
plane-surface $-1 64.884087346329849 -4.4700864957301292 164.46835649525755 0 1 0 0.74314483375859142 0 0.66913059716165679 forward_v I I I I #
coedge $-1 $219 $220 $221 $222 reversed $81 $-1 #
coedge $-1 $133 $83 $223 $224 reversed $52 $-1 #
coedge $-1 $83 $132 $219 $225 reversed $52 $-1 #
coedge $-1 $221 $226 $83 $135 forward $227 $-1 #
edge $-1 $228 -24.075794395623795 $229 -19.726186341891655 $134 $230 forward 7 unknown #
loop $-1 $-1 $141 $84 #
plane-surface $-1 -19.117791405720112 0.63941490260748424 88.83272702074872 0.74314483375859142 0 0.66913059716165679 0.66913059716165679 0 -0.74314483375859142 forward_v I I I I #
loop $-1 $-1 $231 $54 #
coedge $-1 $139 $139 $140 $232 reversed $85 $-1 #
coedge $-1 $140 $140 $139 $232 forward $87 $-1 #
coedge $-1 $141 $141 $88 $142 forward $136 $-1 #
edge $-1 $233 0 $233 6.2831853071796004 $141 $234 forward 7 unknown #
loop $-1 $-1 $148 $89 #
plane-surface $-1 -19.117791405720112 0.63941490260748424 88.83272702074872 0.74314483375859142 0 0.66913059716165679 0.66913059716165679 0 -0.74314483375859142 forward_v I I I I #
loop $-1 $-1 $235 $57 #
coedge $-1 $146 $146 $147 $236 reversed $90 $-1 #
coedge $-1 $147 $147 $146 $236 forward $92 $-1 #
coedge $-1 $148 $148 $93 $149 forward $143 $-1 #
edge $-1 $237 0 $237 6.2831853071796004 $148 $238 forward 7 unknown #
face $-1 $239 $240 $32 $-1 $241 reversed single #
loop $-1 $-1 $242 $94 #
plane-surface $-1 -118.08148044923681 5.2380038969357692 98.433707007909447 0 -1 0 0.54463904215088732 0 -0.83867056331134215 forward_v I I I I #
coedge $-1 $243 $244 $245 $246 reversed $95 $-1 #
coedge $-1 $155 $97 $247 $248 reversed $61 $-1 #
coedge $-1 $97 $154 $243 $249 reversed $61 $-1 #
coedge $-1 $245 $250 $97 $157 forward $251 $-1 #
edge $-1 $252 2.5229021558296836 $253 11.804537682632343 $156 $254 forward 7 unknown #
loop $-1 $-1 $163 $98 #
plane-surface $-1 -56.51783806878872 1.4972660475267254 3.6340128273289451 -0.54463904215088732 0 0.83867056331134215 0.83867056331134215 0 0.54463904215088732 forward_v I I I I #
loop $-1 $-1 $255 $63 #
coedge $-1 $161 $161 $162 $256 reversed $99 $-1 #
coedge $-1 $162 $162 $161 $256 forward $101 $-1 #
coedge $-1 $163 $163 $102 $164 forward $158 $-1 #
edge $-1 $257 0 $257 6.2831853071796004 $163 $258 forward 7 unknown #
face $-1 $259 $260 $34 $-1 $261 forward single #
loop $-1 $-1 $262 $103 #
plane-surface $-1 -56.51783806878872 0 0 1 0 0 0 0 -1 forward_v I I I I #
coedge $-1 $263 $264 $265 $266 reversed $104 $-1 #
coedge $-1 $267 $106 $268 $269 reversed $67 $-1 #
coedge $-1 $106 $267 $270 $271 reversed $67 $-1 #
coedge $-1 $272 $273 $106 $172 forward $260 $-1 #
edge $-1 $274 0 $275 11.067081560792792 $171 $276 forward 7 unknown #
loop $-1 $-1 $178 $107 #
plane-surface $-1 -56.51783806878872 1.4972660475267254 3.6340128273289451 -0.54463904215088732 0 0.83867056331134215 0.83867056331134215 0 0.54463904215088732 forward_v I I I I #
loop $-1 $-1 $277 $69 #
coedge $-1 $176 $176 $177 $278 reversed $108 $-1 #
coedge $-1 $177 $177 $176 $278 forward $110 $-1 #
coedge $-1 $178 $178 $111 $179 forward $173 $-1 #
edge $-1 $279 0 $279 6.2831853071796004 $178 $280 forward 7 unknown #
face $-1 $281 $282 $27 $-1 $283 reversed single #
loop $-1 $-1 $284 $112 #
plane-surface $-1 -56.51783806878872 0 0 1 0 0 0 0 -1 forward_v I I I I #
coedge $-1 $285 $191 $286 $287 forward $113 $-1 #
coedge $-1 $288 $115 $285 $289 forward $73 $-1 #
coedge $-1 $115 $288 $290 $291 forward $73 $-1 #
coedge $-1 $194 $193 $115 $187 reversed $195 $-1 #
edge $-1 $292 -23.671016648482585 $293 23.671016648482585 $186 $294 forward 7 unknown #
coedge $-1 $117 $116 $295 $296 forward $46 $-1 #
coedge $-1 $297 $298 $116 $190 reversed $282 $-1 #
edge $-1 $197 -56.51783806878872 $299 56.51783806878872 $189 $300 forward 7 unknown #
coedge $-1 $183 $301 $117 $192 reversed $113 $-1 #
edge $-1 $302 -56.51783806878872 $196 56.51783806878872 $191 $303 forward 7 unknown #
coedge $-1 $186 $118 $301 $304 forward $195 $-1 #
coedge $-1 $118 $186 $297 $305 reversed $195 $-1 #
loop $-1 $-1 $193 $281 #
vertex $-1 $119 $306 #
vertex $-1 $119 $307 #
straight-curve $-1 56.51783806878872 0 9.6615775280048766 0 1 0 I I #
face $-1 $308 $309 $28 $-1 $310 reversed single #
loop $-1 $-1 $311 $120 #
plane-surface $-1 0 0 9.6615775280048766 0 0 1 1 0 0 forward_v I I I I #
coedge $-1 $312 $313 $314 $315 reversed $121 $-1 #
coedge $-1 $126 $123 $316 $317 reversed $77 $-1 #
coedge $-1 $123 $126 $318 $319 reversed $77 $-1 #
coedge $-1 $313 $312 $123 $206 reversed $121 $-1 #
edge $-1 $320 -9.6615775280048766 $321 9.6615775280048766 $205 $322 forward 7 unknown #
coedge $-1 $125 $124 $323 $324 reversed $49 $-1 #
coedge $-1 $316 $325 $124 $209 forward $309 $-1 #
edge $-1 $326 -14.454510272709177 $213 -3.9785024788376386 $208 $327 forward 7 unknown #
coedge $-1 $328 $318 $125 $211 forward $200 $-1 #
edge $-1 $212 3.9785024788376386 $329 14.454510272709177 $210 $330 forward 7 unknown #
vertex $-1 $211 $331 #
vertex $-1 $209 $332 #
straight-curve $-1 -49.615810534358673 -13.195008854611046 0 0 0 -1 I I #
face $-1 $-1 $227 $29 $-1 $333 forward single #
loop $-1 $-1 $334 $128 #
plane-surface $-1 56.51783806878872 0 0 -1 0 0 0 0 1 forward_v I I I I #
coedge $-1 $335 $336 $337 $338 reversed $129 $-1 #
coedge $-1 $339 $131 $133 $225 forward $81 $-1 #
coedge $-1 $131 $339 $335 $340 forward $81 $-1 #
coedge $-1 $337 $134 $131 $222 forward $227 $-1 #
edge $-1 $229 -5.4292088496413555 $341 4.7897939470338713 $221 $342 forward 7 unknown #
coedge $-1 $343 $344 $132 $224 forward $216 $-1 #
edge $-1 $345 -77.403329978930017 $228 -72.572600719623892 $223 $346 forward 7 unknown #
edge $-1 $229 106.53528881082467 $345 113.03567613757743 $133 $347 forward 7 unknown #
coedge $-1 $134 $337 $343 $348 forward $227 $-1 #
loop $-1 $-1 $337 $215 #
vertex $-1 $224 $349 #
vertex $-1 $135 $350 #
straight-curve $-1 32.442043673164925 5.7489163009450976 9.6615775280048695 -1 0 0 I I #
coedge $-1 $231 $231 $-1 $351 reversed $138 $-1 #
edge $-1 $352 0 $352 6.2831853071796004 $139 $353 forward 7 unknown #
vertex $-1 $142 $354 #
ellipse-curve $-1 54.343034041922643 -1.5503714109657771 7.2462128983518257 0.74314483375859142 0 0.66913059716165679 0.66913059716165679 0 -0.74314483375859142 1 I I #
coedge $-1 $235 $235 $-1 $355 reversed $145 $-1 #
edge $-1 $356 0 $356 6.2831853071796004 $146 $357 forward 7 unknown #
vertex $-1 $149 $358 #
ellipse-curve $-1 54.343034041922643 2.8292012161807492 7.2462128983518257 0.74314483375859142 0 0.66913059716165679 0.66913059716165679 0 -0.74314483375859142 1 I I #
face $-1 $-1 $251 $32 $-1 $359 forward single #
loop $-1 $-1 $360 $150 #
plane-surface $-1 -56.51783806878872 0 0 1 0 0 0 0 -1 forward_v I I I I #
coedge $-1 $361 $362 $363 $364 reversed $151 $-1 #
coedge $-1 $365 $153 $155 $249 forward $95 $-1 #
coedge $-1 $153 $365 $361 $366 forward $95 $-1 #
coedge $-1 $363 $156 $153 $246 forward $251 $-1 #
edge $-1 $253 -2.992104825645681 $367 4.4893708731724065 $245 $368 forward 7 unknown #
coedge $-1 $369 $370 $154 $248 forward $240 $-1 #
edge $-1 $371 -45.582840676625779 $252 -39.555275975949847 $247 $372 forward 7 unknown #
edge $-1 $253 -11.067081560792792 $371 0 $155 $373 forward 7 unknown #
coedge $-1 $156 $363 $369 $374 forward $251 $-1 #
loop $-1 $-1 $363 $239 #
vertex $-1 $248 $375 #
vertex $-1 $157 $376 #
straight-curve $-1 -59.040740224618403 -2.2434718018823183 9.6615775280048766 1 0 0 I I #
coedge $-1 $255 $255 $-1 $377 reversed $160 $-1 #
edge $-1 $378 0 $378 6.2831853071796004 $161 $379 forward 7 unknown #
vertex $-1 $164 $380 #
ellipse-curve $-1 -51.87702030538739 1.4972660475267254 6.6477951776669109 -0.54463904215088732 0 0.83867056331134215 0.83867056331134215 0 0.54463904215088732 1 I I #
face $-1 $-1 $381 $34 $-1 $382 forward single #
loop $-1 $-1 $272 $165 #
plane-surface $-1 -118.08148044923681 5.2380038969357692 98.433707007909447 0 -1 0 0.54463904215088732 0 -0.83867056331134215 forward_v I I I I #
coedge $-1 $268 $383 $264 $384 forward $166 $-1 #
coedge $-1 $264 $168 $267 $385 reversed $104 $-1 #
coedge $-1 $168 $263 $262 $384 reversed $104 $-1 #
coedge $-1 $386 $270 $168 $266 forward $381 $-1 #
edge $-1 $387 -11.804537682632343 $388 -2.5229021558296836 $265 $389 forward 7 unknown #
coedge $-1 $170 $169 $263 $385 forward $67 $-1 #
coedge $-1 $390 $262 $169 $269 forward $166 $-1 #
edge $-1 $391 -11.970846571990498 $274 -4.4893708731724065 $268 $392 forward 7 unknown #
coedge $-1 $265 $393 $170 $271 forward $381 $-1 #
edge $-1 $275 4.4893708731724065 $387 11.970846571990498 $270 $394 forward 7 unknown #
coedge $-1 $273 $171 $393 $395 reversed $260 $-1 #
coedge $-1 $171 $272 $390 $396 reversed $260 $-1 #
vertex $-1 $269 $397 #
vertex $-1 $271 $398 #
straight-curve $-1 -56.51783806878872 5.2380038969357692 3.6340128273289451 0.83867056331134215 0 0.54463904215088732 I I #
coedge $-1 $277 $277 $-1 $399 reversed $175 $-1 #
edge $-1 $400 0 $400 6.2831853071796004 $176 $401 forward 7 unknown #
vertex $-1 $179 $402 #
ellipse-curve $-1 -51.87702030538739 8.9787417463448165 6.6477951776669109 -0.54463904215088732 0 0.83867056331134215 0.83867056331134215 0 0.54463904215088732 1 I I #
face $-1 $-1 $195 $27 $-1 $403 reversed single #
loop $-1 $-1 $297 $180 #
plane-surface $-1 0 23.671016648482585 0 0 -1 0 0 0 -1 forward_v I I I I #
coedge $-1 $404 $295 $298 $405 forward $181 $-1 #
coedge $-1 $301 $183 $184 $289 reversed $113 $-1 #
coedge $-1 $295 $404 $183 $287 reversed $181 $-1 #
edge $-1 $302 -9.6615775280048766 $406 9.6615775280048766 $286 $407 forward 7 unknown #
coedge $-1 $185 $184 $404 $408 forward $73 $-1 #
edge $-1 $293 -56.51783806878872 $406 56.51783806878872 $285 $409 forward 7 unknown #
coedge $-1 $298 $297 $185 $291 reversed $282 $-1 #
edge $-1 $410 -56.51783806878872 $292 56.51783806878872 $290 $411 forward 7 unknown #
vertex $-1 $187 $412 #
vertex $-1 $304 $413 #
straight-curve $-1 56.51783806878872 0 -9.6615775280048766 0 -1 0 I I #
coedge $-1 $284 $286 $188 $296 reversed $181 $-1 #
edge $-1 $299 -23.671016648482585 $302 23.671016648482585 $295 $414 forward 7 unknown #
coedge $-1 $290 $189 $194 $305 forward $282 $-1 #
coedge $-1 $189 $290 $284 $405 reversed $282 $-1 #
vertex $-1 $190 $415 #
straight-curve $-1 0 23.671016648482585 9.6615775280048766 -1 0 0 I I #
coedge $-1 $191 $285 $193 $304 reversed $113 $-1 #
vertex $-1 $296 $416 #
straight-curve $-1 0 -23.671016648482585 9.6615775280048766 1 0 0 I I #
edge $-1 $196 -9.6615775280048766 $293 9.6615775280048766 $193 $417 forward 7 unknown #
edge $-1 $197 -9.6615775280048766 $292 9.6615775280048766 $194 $418 forward 7 unknown #
point $-1 56.51783806878872 -23.671016648482585 9.6615775280048766 #
point $-1 56.51783806878872 23.671016648482585 9.6615775280048766 #
face $-1 $-1 $419 $28 $-1 $420 reversed single #
loop $-1 $-1 $421 $199 #
plane-surface $-1 0 0 -9.6615775280048766 0 0 1 1 0 0 forward_v I I I I #
coedge $-1 $318 $328 $313 $422 forward $200 $-1 #
coedge $-1 $205 $202 $421 $423 reversed $121 $-1 #
coedge $-1 $202 $205 $311 $422 reversed $121 $-1 #
coedge $-1 $424 $425 $202 $315 forward $419 $-1 #
edge $-1 $426 -9.6615775280048766 $427 9.6615775280048766 $314 $428 forward 7 unknown #
coedge $-1 $421 $208 $203 $317 forward $309 $-1 #
edge $-1 $213 -25.723745682257295 $321 -22.06038402194546 $316 $429 forward 7 unknown #
coedge $-1 $210 $311 $204 $319 forward $200 $-1 #
edge $-1 $320 22.06038402194546 $212 25.723745682257295 $318 $430 forward 7 unknown #
vertex $-1 $319 $431 #
vertex $-1 $317 $432 #
straight-curve $-1 -45.952448874046837 -13.195008854611046 0 0 0 -1 I I #
coedge $-1 $425 $424 $207 $324 forward $419 $-1 #
edge $-1 $329 -9.6615775280048766 $326 9.6615775280048766 $323 $433 forward 7 unknown #
coedge $-1 $208 $421 $425 $434 forward $309 $-1 #
vertex $-1 $209 $435 #
straight-curve $-1 -49.615810534358673 -9.2165063757734078 -9.6615775280048766 0 1 0 I I #
coedge $-1 $311 $210 $424 $436 forward $200 $-1 #
vertex $-1 $436 $437 #
straight-curve $-1 -49.615810534358673 -9.2165063757734078 9.6615775280048766 0 -1 0 I I #
point $-1 -49.615810534358673 -13.195008854611046 9.6615775280048766 #
point $-1 -49.615810534358673 -13.195008854611046 -9.6615775280048766 #
plane-surface $-1 0 0 9.6615775280048766 0 0 1 1 0 0 forward_v I I I I #
coedge $-1 $344 $343 $336 $438 forward $216 $-1 #
coedge $-1 $336 $218 $220 $340 reversed $129 $-1 #
coedge $-1 $218 $335 $334 $438 reversed $129 $-1 #
coedge $-1 $226 $221 $218 $338 forward $227 $-1 #
edge $-1 $341 19.726186341891655 $439 24.075794395623795 $337 $440 forward 7 unknown #
coedge $-1 $220 $219 $344 $441 reversed $81 $-1 #
edge $-1 $442 -113.03567613757743 $341 -106.53528881082467 $335 $443 forward 7 unknown #
vertex $-1 $222 $444 #
straight-curve $-1 52.168230015056594 0.31970745130374212 9.6615775280048766 0 -1 0 I I #
coedge $-1 $334 $223 $226 $348 reversed $216 $-1 #
coedge $-1 $223 $334 $339 $441 forward $216 $-1 #
vertex $-1 $224 $445 #
straight-curve $-1 56.51783806878872 5.7489163009450976 82.234178247628776 0 0 1 I I #
straight-curve $-1 -19.117791405720112 5.7489163009450976 88.83272702074872 0.66913059716165679 0 -0.74314483375859142 I I #
edge $-1 $439 -4.4700864957301292 $228 5.7489163009450976 $343 $446 forward 7 unknown #
point $-1 56.51783806878872 5.7489163009450976 9.6615775280048766 #
point $-1 52.168230015056579 5.7489163009450976 9.6615775280048837 #
edge $-1 $447 1 $447 0 $231 $-1 forward 7 unknown #
vertex $-1 $232 $448 #
ellipse-curve $-1 51.853123500248991 -1.5503714109657771 5.0042874324870974 0.74314483375859142 0 0.66913059716165679 0.66913059716165679 0 -0.74314483375859142 1 I I #
point $-1 55.012164639084304 -1.5503714109657771 6.5030680645932382 #
edge $-1 $449 1 $449 0 $235 $-1 forward 7 unknown #
vertex $-1 $236 $450 #
ellipse-curve $-1 51.853123500248991 2.8292012161807492 5.0042874324870974 0.74314483375859142 0 0.66913059716165679 0.66913059716165679 0 -0.74314483375859142 1 I I #
point $-1 55.012164639084304 2.8292012161807492 6.5030680645932382 #
plane-surface $-1 0 0 9.6615775280048766 0 0 1 1 0 0 forward_v I I I I #
coedge $-1 $370 $369 $362 $451 forward $240 $-1 #
coedge $-1 $362 $242 $244 $366 reversed $151 $-1 #
coedge $-1 $242 $361 $360 $451 reversed $151 $-1 #
coedge $-1 $250 $245 $242 $364 forward $251 $-1 #
edge $-1 $367 -11.804537682632343 $452 -2.5229021558296836 $363 $453 forward 7 unknown #
coedge $-1 $244 $243 $370 $454 reversed $95 $-1 #
edge $-1 $455 0 $367 11.067081560792792 $361 $456 forward 7 unknown #
vertex $-1 $246 $457 #
straight-curve $-1 -47.236202541986067 0.74863302376336271 9.6615775280048766 0 1 0 I I #
coedge $-1 $360 $247 $250 $374 reversed $240 $-1 #
coedge $-1 $247 $360 $365 $454 forward $240 $-1 #
vertex $-1 $248 $458 #
straight-curve $-1 -56.51783806878872 -2.2434718018823183 49.216853503954724 0 0 1 I I #
straight-curve $-1 -56.51783806878872 -2.2434718018823183 3.6340128273289451 -0.83867056331134215 0 -0.54463904215088732 I I #
edge $-1 $452 -5.2380038969357692 $252 2.2434718018823183 $369 $459 forward 7 unknown #
point $-1 -56.51783806878872 -2.2434718018823183 9.6615775280048766 #
point $-1 -47.23620254198606 -2.2434718018823183 9.6615775280048766 #
edge $-1 $460 1 $460 0 $255 $-1 forward 7 unknown #
vertex $-1 $256 $461 #
ellipse-curve $-1 -49.747181963638425 1.4972660475267254 3.3681317977106864 -0.54463904215088732 0 0.83867056331134215 0.83867056331134215 0 0.54463904215088732 1 I I #
point $-1 -51.038349742076043 1.4972660475267254 7.1924342198177929 #
loop $-1 $-1 $265 $259 #
plane-surface $-1 0 0 9.6615775280048766 0 0 1 1 0 0 forward_v I I I I #
coedge $-1 $262 $390 $386 $462 reversed $166 $-1 #
edge $-1 $388 39.555275975949847 $391 45.582840676625779 $262 $463 forward 7 unknown #
edge $-1 $391 0 $387 11.067081560792792 $263 $464 forward 7 unknown #
coedge $-1 $393 $265 $383 $462 forward $381 $-1 #
vertex $-1 $266 $465 #
vertex $-1 $462 $466 #
straight-curve $-1 -59.040740224618403 12.71947959575386 9.6615775280048766 -1 0 0 I I #
coedge $-1 $383 $268 $273 $396 forward $166 $-1 #
vertex $-1 $384 $467 #
straight-curve $-1 -56.51783806878872 0.74863302376336271 3.6340128273289451 0 -1 0 I I #
coedge $-1 $270 $386 $272 $395 forward $381 $-1 #
straight-curve $-1 -47.236202541986067 0.74863302376336271 9.6615775280048766 0 1 0 I I #
edge $-1 $468 2.5229021558296836 $275 11.804537682632343 $393 $469 forward 7 unknown #
edge $-1 $274 -45.582840676625779 $468 -39.555275975949847 $390 $470 forward 7 unknown #
point $-1 -56.51783806878872 5.2380038969357692 3.6340128273289451 #
point $-1 -47.23620254198606 5.2380038969357692 9.6615775280048766 #
edge $-1 $471 1 $471 0 $277 $-1 forward 7 unknown #
vertex $-1 $278 $472 #
ellipse-curve $-1 -49.747181963638425 8.9787417463448165 3.3681317977106864 -0.54463904215088732 0 0.83867056331134215 0.83867056331134215 0 0.54463904215088732 1 I I #
point $-1 -51.038349742076043 8.9787417463448165 7.1924342198177929 #
plane-surface $-1 56.51783806878872 0 0 -1 0 0 0 0 1 forward_v I I I I #
coedge $-1 $286 $284 $288 $408 reversed $181 $-1 #
edge $-1 $299 -9.6615775280048766 $410 9.6615775280048766 $298 $473 forward 7 unknown #
vertex $-1 $408 $474 #
straight-curve $-1 -56.51783806878872 -23.671016648482585 0 0 0 -1 I I #
edge $-1 $406 -23.671016648482585 $410 23.671016648482585 $404 $475 forward 7 unknown #
straight-curve $-1 0 -23.671016648482585 -9.6615775280048766 -1 0 0 I I #
vertex $-1 $291 $476 #
straight-curve $-1 0 23.671016648482585 -9.6615775280048766 1 0 0 I I #
point $-1 56.51783806878872 23.671016648482585 -9.6615775280048766 #
point $-1 56.51783806878872 -23.671016648482585 -9.6615775280048766 #
straight-curve $-1 -56.51783806878872 0 9.6615775280048766 0 -1 0 I I #
point $-1 -56.51783806878872 23.671016648482585 9.6615775280048766 #
point $-1 -56.51783806878872 -23.671016648482585 9.6615775280048766 #
straight-curve $-1 56.51783806878872 -23.671016648482585 0 0 0 -1 I I #
straight-curve $-1 56.51783806878872 23.671016648482585 0 0 0 -1 I I #
loop $-1 $-1 $314 $308 #
plane-surface $-1 0 -23.671016648482585 0 0 1 0 0 0 1 forward_v I I I I #
coedge $-1 $325 $316 $312 $423 forward $309 $-1 #
edge $-1 $427 -14.454510272709177 $320 -3.9785024788376386 $311 $477 forward 7 unknown #
edge $-1 $321 3.9785024788376386 $426 14.454510272709177 $421 $478 forward 7 unknown #
coedge $-1 $323 $314 $328 $436 reversed $419 $-1 #
coedge $-1 $314 $323 $325 $434 reversed $419 $-1 #
vertex $-1 $434 $479 #
vertex $-1 $315 $480 #
straight-curve $-1 -45.952448874046837 -23.671016648482585 0 0 0 1 I I #
straight-curve $-1 -23.892064852101377 -13.195008854611046 -9.6615775280048766 1 0 0 I I #
straight-curve $-1 -23.892064852101377 -13.195008854611046 9.6615775280048766 -1 0 0 I I #
point $-1 -45.952448874046837 -13.195008854611046 9.6615775280048766 #
point $-1 -45.952448874046837 -13.195008854611046 -9.6615775280048766 #
straight-curve $-1 -49.615810534358673 -23.671016648482585 0 0 0 -1 I I #
edge $-1 $426 45.952448874046837 $326 49.615810534358673 $425 $481 forward 7 unknown #
point $-1 -49.615810534358673 -23.671016648482585 -9.6615775280048766 #
edge $-1 $329 -49.615810534358673 $427 -45.952448874046837 $424 $482 forward 7 unknown #
point $-1 -49.615810534358673 -23.671016648482585 9.6615775280048766 #
edge $-1 $439 72.572600719623892 $442 77.403329978930017 $334 $483 forward 7 unknown #
vertex $-1 $348 $484 #
straight-curve $-1 32.442043673164925 -4.4700864957301292 9.6615775280048695 1 0 0 I I #
edge $-1 $442 -4.7897939470338713 $345 5.4292088496413555 $344 $485 forward 7 unknown #
vertex $-1 $441 $486 #
straight-curve $-1 -19.117791405720112 -4.4700864957301292 88.83272702074872 -0.66913059716165679 0 0.74314483375859142 I I #
point $-1 52.168230015056579 -4.4700864957301292 9.6615775280048837 #
point $-1 56.51783806878872 5.7489163009450976 4.8308482686987588 #
straight-curve $-1 56.51783806878872 0 9.6615775280048766 0 1 0 I I #
vertex $-1 $351 $487 #
point $-1 52.522254097410645 -1.5503714109657771 4.2611425987285063 #
vertex $-1 $355 $488 #
point $-1 52.522254097410645 2.8292012161807492 4.2611425987285063 #
edge $-1 $452 39.555275975949847 $455 45.582840676625779 $360 $489 forward 7 unknown #
vertex $-1 $374 $490 #
straight-curve $-1 -59.040740224618403 5.2380038969357692 9.6615775280048766 -1 0 0 I I #
edge $-1 $455 -4.4893708731724065 $371 2.992104825645681 $370 $491 forward 7 unknown #
vertex $-1 $454 $492 #
straight-curve $-1 -56.51783806878872 5.2380038969357692 3.6340128273289451 0.83867056331134215 0 0.54463904215088732 I I #
point $-1 -47.23620254198606 5.2380038969357692 9.6615775280048766 #
point $-1 -56.51783806878872 -2.2434718018823183 3.6340128273289451 #
straight-curve $-1 -56.51783806878872 0 9.6615775280048766 0 -1 0 I I #
vertex $-1 $377 $493 #
point $-1 -48.908511400327079 1.4972660475267254 3.9127708398615737 #
edge $-1 $388 -12.71947959575386 $468 -5.2380038969357692 $383 $494 forward 7 unknown #
straight-curve $-1 -56.51783806878872 12.71947959575386 49.216853503954724 0 0 -1 I I #
straight-curve $-1 -56.51783806878872 12.71947959575386 3.6340128273289451 0.83867056331134215 0 0.54463904215088732 I I #
point $-1 -47.23620254198606 12.71947959575386 9.6615775280048766 #
point $-1 -56.51783806878872 12.71947959575386 9.6615775280048766 #
point $-1 -56.51783806878872 12.71947959575386 3.6340128273289451 #
vertex $-1 $396 $495 #
straight-curve $-1 -59.040740224618403 5.2380038969357692 9.6615775280048766 1 0 0 I I #
straight-curve $-1 -56.51783806878872 5.2380038969357692 49.216853503954724 0 0 1 I I #
vertex $-1 $399 $496 #
point $-1 -48.908511400327079 8.9787417463448165 3.9127708398615737 #
straight-curve $-1 -56.51783806878872 23.671016648482585 0 0 0 -1 I I #
point $-1 -56.51783806878872 -23.671016648482585 -9.6615775280048766 #
straight-curve $-1 -56.51783806878872 0 -9.6615775280048766 0 1 0 I I #
point $-1 -56.51783806878872 23.671016648482585 -9.6615775280048766 #
straight-curve $-1 -45.952448874046837 -9.2165063757734078 9.6615775280048766 0 1 0 I I #
straight-curve $-1 -45.952448874046837 -9.2165063757734078 -9.6615775280048766 0 -1 0 I I #
point $-1 -45.952448874046837 -23.671016648482585 -9.6615775280048766 #
point $-1 -45.952448874046837 -23.671016648482585 9.6615775280048766 #
straight-curve $-1 0 -23.671016648482585 -9.6615775280048766 -1 0 0 I I #
straight-curve $-1 0 -23.671016648482585 9.6615775280048766 1 0 0 I I #
straight-curve $-1 56.51783806878872 -4.4700864957301292 82.234178247628776 0 0 -1 I I #
point $-1 56.51783806878872 -4.4700864957301292 9.6615775280048766 #
straight-curve $-1 56.51783806878872 0.31970745130374212 4.8308482686987446 0 1 0 I I #
point $-1 56.51783806878872 -4.4700864957301292 4.8308482686987588 #
point $-1 51.109978666490399 -1.5503714109657771 4.3351568353254413 #
point $-1 51.109978666490399 2.8292012161807492 4.3351568353254413 #
straight-curve $-1 -56.51783806878872 5.2380038969357692 49.216853503954724 0 0 -1 I I #
point $-1 -56.51783806878872 5.2380038969357692 9.6615775280048766 #
straight-curve $-1 -56.51783806878872 0.74863302376336271 3.6340128273289451 0 -1 0 I I #
point $-1 -56.51783806878872 5.2380038969357692 3.6340128273289451 #
point $-1 -49.202542921487534 1.4972660475267254 2.5294612343993443 #
straight-curve $-1 -56.51783806878872 0 9.6615775280048766 0 -1 0 I I #
point $-1 -56.51783806878872 5.2380038969357692 9.6615775280048766 #
point $-1 -49.202542921487534 8.9787417463448165 2.5294612343993443 #
End-of-ACIS-data 