500 0 9 0           
7 Unknown 11 ACIS 5.0 NT 24 Thu Mar 25 22:47:37 1999 
-1 9.9999999999999995e-007 1e-010 
body $-1 $9 $-1 $10 #
body $-1 $11 $-1 $12 #
body $-1 $13 $-1 $14 #
body $-1 $15 $-1 $16 #
body $-1 $17 $-1 $18 #
body $-1 $19 $-1 $20 #
body $-1 $21 $-1 $22 #
body $-1 $23 $-1 $24 #
body $-1 $25 $-1 $26 #
lump $-1 $-1 $27 $0 #
transform $-1 1 0 0 0 1 0 0 0 1 40.281991027558213 20.321586488904941 9.2321909479395963 1 rotate no_reflect no_shear #
lump $-1 $-1 $28 $1 #
transform $-1 1 0 0 0 1 0 0 0 1 40.281991027558213 20.321586488904941 9.2321909479395963 1 rotate no_reflect no_shear #
lump $-1 $-1 $29 $2 #
transform $-1 1 0 0 0 1 0 0 0 1 40.281991027558213 20.321586488904941 9.2321909479395963 1 rotate no_reflect no_shear #
lump $-1 $-1 $30 $3 #
transform $-1 1 0 0 0 1 0 0 0 1 40.281991027558213 20.321586488904941 9.2321909479395963 1 rotate no_reflect no_shear #
lump $-1 $-1 $31 $4 #
transform $-1 1 0 0 0 1 0 0 0 1 40.281991027558213 20.321586488904941 9.2321909479395963 1 rotate no_reflect no_shear #
lump $-1 $-1 $32 $5 #
transform $-1 1 0 0 0 1 0 0 0 1 40.281991027558213 20.321586488904941 9.2321909479395963 1 rotate no_reflect no_shear #
lump $-1 $-1 $33 $6 #
transform $-1 1 0 0 0 1 0 0 0 1 40.281991027558213 20.321586488904941 9.2321909479395963 1 rotate no_reflect no_shear #
lump $-1 $-1 $34 $7 #
transform $-1 1 0 0 0 1 0 0 0 1 40.281991027558213 20.321586488904941 9.2321909479395963 1 rotate no_reflect no_shear #
lump $-1 $-1 $35 $8 #
transform $-1 1 0 0 0 1 0 0 0 1 40.281991027558213 20.321586488904941 9.2321909479395963 1 rotate no_reflect no_shear #
shell $-1 $-1 $-1 $36 $-1 $9 #
shell $-1 $-1 $-1 $37 $-1 $11 #
shell $-1 $-1 $-1 $38 $-1 $13 #
shell $-1 $-1 $-1 $39 $-1 $15 #
shell $-1 $-1 $-1 $40 $-1 $17 #
shell $-1 $-1 $-1 $41 $-1 $19 #
shell $-1 $-1 $-1 $42 $-1 $21 #
shell $-1 $-1 $-1 $43 $-1 $23 #
shell $-1 $-1 $-1 $44 $-1 $25 #
face $-1 $45 $46 $27 $-1 $47 forward single #
face $-1 $48 $49 $28 $-1 $50 reversed single #
face $-1 $51 $52 $29 $-1 $53 reversed single #
face $-1 $54 $55 $30 $-1 $56 forward single #
face $-1 $57 $58 $31 $-1 $59 forward single #
face $-1 $60 $61 $32 $-1 $62 reversed single #
face $-1 $63 $64 $33 $-1 $65 forward single #
face $-1 $66 $67 $34 $-1 $68 forward single #
face $-1 $69 $70 $35 $-1 $71 forward single #
face $-1 $72 $73 $27 $-1 $74 reversed single #
loop $-1 $-1 $75 $36 #
plane-surface $-1 0 0 9.2321909479395963 0 0 1 1 0 0 forward_v I I I I #
face $-1 $76 $77 $28 $-1 $78 reversed single #
loop $-1 $-1 $79 $37 #
plane-surface $-1 -33.009221104685032 -17.977094039278789 0 -1 0 0 0 0 1 forward_v I I I I #
face $-1 $80 $81 $29 $-1 $82 reversed single #
loop $-1 $-1 $83 $38 #
plane-surface $-1 -25.390330412053615 -20.321586488904948 0.14626163026720462 0 -0.54463904215088732 0.83867056331134215 1 0 0 forward_v I I I I #
face $-1 $84 $85 $30 $-1 $86 forward single #
loop $-1 $87 $88 $39 #
cone-surface $-1 -28.655569280324222 -12.953229276020712 4.1151565828590062 0 0.54463904215088732 -0.83867056331134215 0.5 0 0 1 I I 0 1 0.5 forward I I I I #
face $-1 $89 $90 $31 $-1 $91 forward single #
loop $-1 $92 $93 $40 #
cone-surface $-1 -22.125091543783011 -12.953229276020712 4.1151565828590062 0 0.54463904215088732 -0.83867056331134215 0.5 0 0 1 I I 0 1 0.5 forward I I I I #
face $-1 $94 $95 $32 $-1 $96 reversed single #
loop $-1 $-1 $97 $41 #
plane-surface $-1 -9.6175797169077608 26.977106559576946 90.66460233402816 1 0 0 0 -0.51503808176128008 -0.85716729658548041 forward_v I I I I #
face $-1 $98 $99 $33 $-1 $100 forward single #
loop $-1 $101 $102 $42 #
cone-surface $-1 -8.0167459352662789 12.943297060075277 4.5250167189269348 0 -0.51503808176128008 -0.85716729658548041 0.5 0 0 1 I I 0 1 0.5 forward I I I I #
face $-1 $103 $104 $34 $-1 $105 forward single #
loop $-1 $106 $107 $43 #
cone-surface $-1 -5.6154952628040533 12.943297060075277 4.5250167189269348 0 -0.51503808176128008 -0.85716729658548041 0.5 0 0 1 I I 0 1 0.5 forward I I I I #
face $-1 $108 $109 $35 $-1 $110 forward single #
loop $-1 $111 $112 $44 #
cone-surface $-1 -3.2142445903418277 12.943297060075277 4.5250167189269348 0 -0.51503808176128008 -0.85716729658548041 0.5 0 0 1 I I 0 1 0.5 forward I I I I #
face $-1 $113 $114 $27 $-1 $115 reversed single #
loop $-1 $-1 $116 $45 #
plane-surface $-1 0 0 -9.2321909479395963 0 0 1 1 0 0 forward_v I I I I #
coedge $-1 $117 $118 $119 $120 forward $46 $-1 #
face $-1 $121 $122 $28 $-1 $123 forward single #
loop $-1 $-1 $124 $48 #
plane-surface $-1 -36.645606066121623 -15.632601589652635 0 0 -1 0 0 0 -1 forward_v I I I I #
coedge $-1 $125 $126 $127 $128 reversed $49 $-1 #
face $-1 $129 $130 $29 $-1 $131 forward single #
loop $-1 $-1 $132 $51 #
plane-surface $-1 -17.771439719422204 -64.199876507264833 67.712901843036562 -1 0 0 0 -0.54463904215088732 0.83867056331134215 forward_v I I I I #
coedge $-1 $133 $134 $135 $136 reversed $52 $-1 #
face $-1 $-1 $137 $30 $-1 $138 forward single #
loop $-1 $139 $140 $54 #
cone-surface $-1 -28.655569280324222 -12.444264282278784 3.3314192357867753 0 0.54463904215088732 -0.83867056331134215 0.25 0 0 1 I I -0.70710678118654746 0.70710678118654746 0.25 forward I I I I #
loop $-1 $-1 $141 $39 #
coedge $-1 $88 $88 $142 $143 reversed $55 $-1 #
face $-1 $-1 $144 $31 $-1 $145 forward single #
loop $-1 $146 $147 $57 #
cone-surface $-1 -22.125091543783011 -12.444264282278784 3.3314192357867753 0 0.54463904215088732 -0.83867056331134215 0.25 0 0 1 I I -0.70710678118654746 0.70710678118654746 0.25 forward I I I I #
loop $-1 $-1 $148 $40 #
coedge $-1 $93 $93 $149 $150 reversed $58 $-1 #
face $-1 $151 $152 $32 $-1 $153 reversed single #
loop $-1 $-1 $154 $60 #
plane-surface $-1 -5.6154952628040533 -14.516412217140406 21.607791633682851 0 0.51503808176128008 0.85716729658548041 1 0 0 forward_v I I I I #
coedge $-1 $155 $156 $157 $158 reversed $61 $-1 #
face $-1 $-1 $159 $33 $-1 $160 forward single #
loop $-1 $161 $162 $63 #
cone-surface $-1 -8.0167459352662789 12.557018498754317 3.8821412464878247 0 -0.51503808176128008 -0.85716729658548041 0.25 0 0 1 I I -0.70710678118654746 0.70710678118654746 0.25 forward I I I I #
loop $-1 $-1 $163 $42 #
coedge $-1 $102 $102 $164 $165 reversed $64 $-1 #
face $-1 $-1 $166 $34 $-1 $167 forward single #
loop $-1 $168 $169 $66 #
cone-surface $-1 -5.6154952628040533 12.557018498754317 3.8821412464878247 0 -0.51503808176128008 -0.85716729658548041 0.25 0 0 1 I I -0.70710678118654746 0.70710678118654746 0.25 forward I I I I #
loop $-1 $-1 $170 $43 #
coedge $-1 $107 $107 $171 $172 reversed $67 $-1 #
face $-1 $-1 $173 $35 $-1 $174 forward single #
loop $-1 $175 $176 $69 #
cone-surface $-1 -3.2142445903418277 12.557018498754317 3.8821412464878247 0 -0.51503808176128008 -0.85716729658548041 0.25 0 0 1 I I -0.70710678118654746 0.70710678118654746 0.25 forward I I I I #
loop $-1 $-1 $177 $44 #
coedge $-1 $112 $112 $178 $179 reversed $70 $-1 #
face $-1 $180 $181 $27 $-1 $182 reversed single #
loop $-1 $-1 $183 $72 #
plane-surface $-1 0 -20.321586488904941 0 0 1 0 0 0 1 forward_v I I I I #
coedge $-1 $184 $185 $186 $187 forward $73 $-1 #
coedge $-1 $188 $75 $189 $190 forward $46 $-1 #
coedge $-1 $75 $188 $191 $192 forward $46 $-1 #
coedge $-1 $193 $194 $75 $120 reversed $195 $-1 #
edge $-1 $196 -20.321586488904941 $197 20.321586488904941 $119 $198 forward 7 unknown #
face $-1 $199 $200 $28 $-1 $201 reversed single #
loop $-1 $-1 $202 $76 #
plane-surface $-1 0 0 9.2321909479395963 0 0 1 1 0 0 forward_v I I I I #
coedge $-1 $203 $204 $205 $206 forward $77 $-1 #
coedge $-1 $205 $79 $207 $208 reversed $49 $-1 #
coedge $-1 $79 $205 $202 $209 reversed $49 $-1 #
coedge $-1 $210 $211 $79 $128 forward $212 $-1 #
edge $-1 $213 -9.2321909479395963 $214 9.2321909479395963 $127 $215 forward 7 unknown #
face $-1 $216 $217 $29 $-1 $218 forward single #
loop $-1 $-1 $219 $80 #
plane-surface $-1 0 0 9.2321909479395963 0 0 1 1 0 0 forward_v I I I I #
coedge $-1 $220 $221 $222 $223 reversed $81 $-1 #
coedge $-1 $224 $83 $225 $226 reversed $52 $-1 #
coedge $-1 $83 $224 $220 $227 forward $52 $-1 #
coedge $-1 $222 $228 $83 $136 forward $229 $-1 #
edge $-1 $230 -20.314055898658225 $231 -5.076274513395397 $135 $232 forward 7 unknown #
loop $-1 $-1 $142 $84 #
plane-surface $-1 -25.390330412053615 -20.321586488904948 0.14626163026720462 0 -0.54463904215088732 0.83867056331134215 1 0 0 forward_v I I I I #
loop $-1 $-1 $233 $54 #
coedge $-1 $140 $140 $141 $234 reversed $85 $-1 #
coedge $-1 $141 $141 $140 $234 forward $87 $-1 #
coedge $-1 $142 $142 $88 $143 forward $137 $-1 #
edge $-1 $235 -1.93494657505826e-015 $235 6.2831853071795987 $142 $236 forward 7 unknown #
loop $-1 $-1 $149 $89 #
plane-surface $-1 -25.390330412053615 -20.321586488904948 0.14626163026720462 0 -0.54463904215088732 0.83867056331134215 1 0 0 forward_v I I I I #
loop $-1 $-1 $237 $57 #
coedge $-1 $147 $147 $148 $238 reversed $90 $-1 #
coedge $-1 $148 $148 $147 $238 forward $92 $-1 #
coedge $-1 $149 $149 $93 $150 forward $144 $-1 #
edge $-1 $239 -1.93494657505826e-015 $239 6.2831853071795987 $149 $240 forward 7 unknown #
face $-1 $241 $242 $32 $-1 $243 reversed single #
loop $-1 $-1 $244 $94 #
plane-surface $-1 -1.6134108087003458 26.977106559576946 90.66460233402816 -1 0 0 0 0.51503808176128008 0.85716729658548041 forward_v I I I I #
coedge $-1 $245 $246 $247 $248 reversed $95 $-1 #
coedge $-1 $156 $97 $249 $250 reversed $61 $-1 #
coedge $-1 $97 $155 $245 $251 reversed $61 $-1 #
coedge $-1 $247 $252 $97 $158 forward $253 $-1 #
edge $-1 $254 -6.8330332091164685 $255 7.4085075667815943 $157 $256 forward 7 unknown #
loop $-1 $-1 $164 $98 #
plane-surface $-1 -5.6154952628040533 -14.516412217140406 21.607791633682851 0 0.51503808176128008 0.85716729658548041 1 0 0 forward_v I I I I #
loop $-1 $-1 $257 $63 #
coedge $-1 $162 $162 $163 $258 reversed $99 $-1 #
coedge $-1 $163 $163 $162 $258 forward $101 $-1 #
coedge $-1 $164 $164 $102 $165 forward $159 $-1 #
edge $-1 $259 -1.8297828381764705e-015 $259 6.2831853071795987 $164 $260 forward 7 unknown #
loop $-1 $-1 $171 $103 #
plane-surface $-1 -5.6154952628040533 -14.516412217140406 21.607791633682851 0 0.51503808176128008 0.85716729658548041 1 0 0 forward_v I I I I #
loop $-1 $-1 $261 $66 #
coedge $-1 $169 $169 $170 $262 reversed $104 $-1 #
coedge $-1 $170 $170 $169 $262 forward $106 $-1 #
coedge $-1 $171 $171 $107 $172 forward $166 $-1 #
edge $-1 $263 -1.8297828381764705e-015 $263 6.2831853071795987 $171 $264 forward 7 unknown #
loop $-1 $-1 $178 $108 #
plane-surface $-1 -5.6154952628040533 -14.516412217140406 21.607791633682851 0 0.51503808176128008 0.85716729658548041 1 0 0 forward_v I I I I #
loop $-1 $-1 $265 $69 #
coedge $-1 $176 $176 $177 $266 reversed $109 $-1 #
coedge $-1 $177 $177 $176 $266 forward $111 $-1 #
coedge $-1 $178 $178 $112 $179 forward $173 $-1 #
edge $-1 $267 -1.8297828381764705e-015 $267 6.2831853071795987 $178 $268 forward 7 unknown #
face $-1 $269 $270 $27 $-1 $271 reversed single #
loop $-1 $-1 $272 $113 #
plane-surface $-1 -40.281991027558213 0 0 1 0 0 0 0 -1 forward_v I I I I #
coedge $-1 $273 $191 $274 $275 forward $114 $-1 #
coedge $-1 $276 $116 $273 $277 forward $73 $-1 #
coedge $-1 $116 $276 $278 $279 forward $73 $-1 #
coedge $-1 $194 $193 $116 $187 reversed $195 $-1 #
edge $-1 $280 -20.321586488904941 $281 20.321586488904941 $186 $282 forward 7 unknown #
coedge $-1 $118 $117 $283 $284 forward $46 $-1 #
coedge $-1 $285 $286 $117 $190 reversed $270 $-1 #
edge $-1 $197 -40.281991027558213 $287 40.281991027558213 $189 $288 forward 7 unknown #
coedge $-1 $183 $289 $118 $192 reversed $114 $-1 #
edge $-1 $290 -40.281991027558213 $196 40.281991027558213 $191 $291 forward 7 unknown #
coedge $-1 $186 $119 $289 $292 forward $195 $-1 #
coedge $-1 $119 $186 $285 $293 reversed $195 $-1 #
loop $-1 $-1 $193 $269 #
vertex $-1 $120 $294 #
vertex $-1 $120 $295 #
straight-curve $-1 40.281991027558213 0 9.2321909479395963 0 1 0 I I #
face $-1 $296 $297 $28 $-1 $298 reversed single #
loop $-1 $-1 $299 $121 #
plane-surface $-1 -40.281991027558213 0 0 1 0 0 0 0 -1 forward_v I I I I #
coedge $-1 $300 $301 $126 $209 forward $122 $-1 #
coedge $-1 $302 $124 $303 $304 reversed $77 $-1 #
coedge $-1 $124 $302 $300 $305 reversed $77 $-1 #
coedge $-1 $126 $125 $124 $206 reversed $49 $-1 #
edge $-1 $306 -9.2321909479395963 $307 9.2321909479395963 $205 $308 forward 7 unknown #
coedge $-1 $309 $303 $125 $208 forward $297 $-1 #
edge $-1 $307 6.6440545700132407 $213 11.333039469265547 $207 $310 forward 7 unknown #
edge $-1 $214 -11.333039469265547 $306 -6.6440545700132407 $202 $311 forward 7 unknown #
coedge $-1 $312 $127 $301 $313 reversed $212 $-1 #
coedge $-1 $127 $312 $309 $314 reversed $212 $-1 #
loop $-1 $-1 $127 $296 #
vertex $-1 $314 $315 #
vertex $-1 $128 $316 #
straight-curve $-1 -33.009221104685032 -20.321586488904941 0 0 0 1 I I #
face $-1 $-1 $229 $29 $-1 $317 reversed single #
loop $-1 $-1 $225 $129 #
plane-surface $-1 -33.009221104685032 -17.977094039278789 0 -1 0 0 0 0 1 forward_v I I I I #
coedge $-1 $318 $319 $221 $320 forward $130 $-1 #
coedge $-1 $221 $132 $134 $227 reversed $81 $-1 #
coedge $-1 $132 $220 $219 $320 reversed $81 $-1 #
coedge $-1 $321 $135 $132 $223 forward $229 $-1 #
edge $-1 $231 -33.710189291251069 $322 -24.624259973578685 $222 $323 forward 7 unknown #
coedge $-1 $134 $133 $318 $324 reversed $52 $-1 #
coedge $-1 $325 $326 $133 $226 forward $217 $-1 #
edge $-1 $327 -15.739180374974296 $230 0.94329850459749176 $225 $328 forward 7 unknown #
edge $-1 $329 -16.682478879571796 $231 -8.4684966040957343e-015 $220 $330 forward 7 unknown #
coedge $-1 $135 $321 $325 $331 forward $229 $-1 #
loop $-1 $-1 $222 $216 #
vertex $-1 $226 $332 #
vertex $-1 $136 $333 #
straight-curve $-1 -12.695165206026807 -20.321586488904941 0.14626163026720995 1 0 0 I I #
coedge $-1 $233 $233 $-1 $334 reversed $139 $-1 #
edge $-1 $335 0 $335 6.2831853071796004 $140 $336 forward 7 unknown #
vertex $-1 $143 $337 #
ellipse-curve $-1 -28.655569280324222 -13.32603450922492 4.6892262891034031 0 -0.54463904215088732 0.83867056331134215 0.5 0 0 1 I I #
coedge $-1 $237 $237 $-1 $338 reversed $146 $-1 #
edge $-1 $339 0 $339 6.2831853071796004 $147 $340 forward 7 unknown #
vertex $-1 $150 $341 #
ellipse-curve $-1 -22.125091543783011 -13.32603450922492 4.6892262891034031 0 -0.54463904215088732 0.83867056331134215 0.5 0 0 1 I I #
face $-1 $-1 $253 $32 $-1 $342 forward single #
loop $-1 $-1 $343 $151 #
plane-surface $-1 0 20.321586488904941 0 0 -1 0 0 0 -1 forward_v I I I I #
coedge $-1 $344 $345 $346 $347 reversed $152 $-1 #
coedge $-1 $348 $154 $156 $251 forward $95 $-1 #
coedge $-1 $154 $348 $344 $349 forward $95 $-1 #
coedge $-1 $346 $157 $154 $248 forward $253 $-1 #
edge $-1 $255 -6.8098320855057342 $350 1.1943368227016808 $247 $351 forward 7 unknown #
coedge $-1 $352 $353 $155 $250 forward $242 $-1 #
edge $-1 $354 -44.657291380514323 $254 -36.10011021907448 $249 $355 forward 7 unknown #
edge $-1 $255 24.028515801049714 $354 40.643172977809883 $156 $356 forward 7 unknown #
coedge $-1 $157 $346 $352 $357 forward $253 $-1 #
loop $-1 $-1 $346 $241 #
vertex $-1 $250 $358 #
vertex $-1 $158 $359 #
straight-curve $-1 -9.6175797169077608 13.488553279788473 9.2321909479395927 0 -1 0 I I #
coedge $-1 $257 $257 $-1 $360 reversed $161 $-1 #
edge $-1 $361 0 $361 6.2831853071796004 $162 $362 forward 7 unknown #
vertex $-1 $165 $363 #
ellipse-curve $-1 -8.0167459352662789 13.200816100955917 4.9536003672196731 0 0.51503808176128008 0.85716729658548041 0.5 0 0 1 I I #
coedge $-1 $261 $261 $-1 $364 reversed $168 $-1 #
edge $-1 $365 0 $365 6.2831853071796004 $169 $366 forward 7 unknown #
vertex $-1 $172 $367 #
ellipse-curve $-1 -5.6154952628040533 13.200816100955917 4.9536003672196731 0 0.51503808176128008 0.85716729658548041 0.5 0 0 1 I I #
coedge $-1 $265 $265 $-1 $368 reversed $175 $-1 #
edge $-1 $369 0 $369 6.2831853071796004 $176 $370 forward 7 unknown #
vertex $-1 $179 $371 #
ellipse-curve $-1 -3.2142445903418277 13.200816100955917 4.9536003672196731 0 0.51503808176128008 0.85716729658548041 0.5 0 0 1 I I #
face $-1 $-1 $195 $27 $-1 $372 reversed single #
loop $-1 $-1 $285 $180 #
plane-surface $-1 0 20.321586488904941 0 0 -1 0 0 0 -1 forward_v I I I I #
coedge $-1 $373 $283 $286 $374 forward $181 $-1 #
coedge $-1 $289 $183 $184 $277 reversed $114 $-1 #
coedge $-1 $283 $373 $183 $275 reversed $181 $-1 #
edge $-1 $290 -9.2321909479395963 $375 9.2321909479395963 $274 $376 forward 7 unknown #
coedge $-1 $185 $184 $373 $377 forward $73 $-1 #
edge $-1 $281 -40.281991027558213 $375 40.281991027558213 $273 $378 forward 7 unknown #
coedge $-1 $286 $285 $185 $279 reversed $270 $-1 #
edge $-1 $379 -40.281991027558213 $280 40.281991027558213 $278 $380 forward 7 unknown #
vertex $-1 $187 $381 #
vertex $-1 $292 $382 #
straight-curve $-1 40.281991027558213 0 -9.2321909479395963 0 -1 0 I I #
coedge $-1 $272 $274 $188 $284 reversed $181 $-1 #
edge $-1 $287 -20.321586488904941 $290 20.321586488904941 $283 $383 forward 7 unknown #
coedge $-1 $278 $189 $194 $293 forward $270 $-1 #
coedge $-1 $189 $278 $272 $374 reversed $270 $-1 #
vertex $-1 $190 $384 #
straight-curve $-1 0 20.321586488904941 9.2321909479395963 -1 0 0 I I #
coedge $-1 $191 $273 $193 $292 reversed $114 $-1 #
vertex $-1 $284 $385 #
straight-curve $-1 0 -20.321586488904941 9.2321909479395963 1 0 0 I I #
edge $-1 $196 -9.2321909479395963 $281 9.2321909479395963 $193 $386 forward 7 unknown #
edge $-1 $197 -9.2321909479395963 $280 9.2321909479395963 $194 $387 forward 7 unknown #
point $-1 40.281991027558213 -20.321586488904941 9.2321909479395963 #
point $-1 40.281991027558213 20.321586488904941 9.2321909479395963 #
face $-1 $-1 $212 $28 $-1 $388 reversed single #
loop $-1 $-1 $207 $199 #
plane-surface $-1 0 0 -9.2321909479395963 0 0 1 1 0 0 forward_v I I I I #
coedge $-1 $389 $390 $302 $391 forward $200 $-1 #
coedge $-1 $392 $202 $204 $305 forward $122 $-1 #
coedge $-1 $202 $392 $210 $313 forward $122 $-1 #
coedge $-1 $204 $203 $299 $391 reversed $77 $-1 #
coedge $-1 $207 $393 $203 $304 forward $297 $-1 #
edge $-1 $394 -21.959187994497402 $307 -14.686418071624221 $303 $395 forward 7 unknown #
edge $-1 $306 14.686418071624221 $396 21.959187994497402 $300 $397 forward 7 unknown #
vertex $-1 $305 $398 #
vertex $-1 $304 $399 #
straight-curve $-1 -33.009221104685032 -15.632601589652635 0 0 0 -1 I I #
coedge $-1 $393 $207 $211 $314 forward $297 $-1 #
straight-curve $-1 -33.009221104685032 -8.9885470196393946 -9.2321909479395963 0 -1 0 I I #
straight-curve $-1 -33.009221104685032 -8.9885470196393946 9.2321909479395963 0 1 0 I I #
coedge $-1 $211 $210 $400 $401 forward $212 $-1 #
edge $-1 $402 -40.281991027558213 $214 -33.009221104685032 $210 $403 forward 7 unknown #
edge $-1 $213 33.009221104685032 $404 40.281991027558213 $211 $405 forward 7 unknown #
point $-1 -33.009221104685032 -20.321586488904941 -9.2321909479395963 #
point $-1 -33.009221104685032 -20.321586488904941 9.2321909479395963 #
plane-surface $-1 0 -20.321586488904941 0 0 1 0 0 0 1 forward_v I I I I #
coedge $-1 $406 $219 $224 $324 forward $130 $-1 #
coedge $-1 $219 $406 $321 $407 forward $130 $-1 #
edge $-1 $322 11.778351764727475 $329 25.769455724087514 $219 $408 forward 7 unknown #
coedge $-1 $228 $222 $319 $407 reversed $229 $-1 #
vertex $-1 $320 $409 #
straight-curve $-1 -17.771439719422204 -20.321586488904941 33.856450921518281 0 0 1 I I #
edge $-1 $329 5.076274513395397 $327 20.314055898658218 $318 $410 forward 7 unknown #
coedge $-1 $326 $225 $228 $331 reversed $217 $-1 #
coedge $-1 $225 $325 $406 $411 reversed $217 $-1 #
vertex $-1 $411 $412 #
straight-curve $-1 -33.009221104685032 -19.530469800683417 0.66001882427355185 0 -0.83867056331134215 -0.54463904215088732 I I #
vertex $-1 $324 $413 #
straight-curve $-1 -17.771439719422204 -20.321586488904948 0.14626163026720462 0 -0.83867056331134215 -0.54463904215088732 I I #
edge $-1 $414 -9.2321909479395963 $230 -0.14626163026720926 $228 $415 forward 7 unknown #
point $-1 -33.009221104685032 -20.321586488904941 0.14626163026720926 #
point $-1 -17.771439719422204 -20.321586488904941 0.14626163026720923 #
edge $-1 $416 1 $416 0 $233 $-1 forward 7 unknown #
vertex $-1 $234 $417 #
ellipse-curve $-1 -28.655569280324222 -12.580424042816507 3.5410868766146111 0 -0.54463904215088732 0.83867056331134215 0.5 0 0 1 I I #
point $-1 -28.155569280324222 -13.32603450922492 4.6892262891034013 #
edge $-1 $418 1 $418 0 $237 $-1 forward 7 unknown #
vertex $-1 $238 $419 #
ellipse-curve $-1 -22.125091543783011 -12.580424042816507 3.5410868766146111 0 -0.54463904215088732 0.83867056331134215 0.5 0 0 1 I I #
point $-1 -21.625091543783011 -13.32603450922492 4.6892262891034013 #
plane-surface $-1 0 0 9.2321909479395963 0 0 1 1 0 0 forward_v I I I I #
coedge $-1 $353 $352 $345 $420 forward $242 $-1 #
coedge $-1 $345 $244 $246 $349 reversed $152 $-1 #
coedge $-1 $244 $344 $343 $420 reversed $152 $-1 #
coedge $-1 $252 $247 $244 $347 forward $253 $-1 #
edge $-1 $350 -7.4085075667815943 $421 6.8330332091164685 $346 $422 forward 7 unknown #
coedge $-1 $246 $245 $353 $423 reversed $95 $-1 #
edge $-1 $424 -40.643172977809883 $350 -24.028515801049714 $344 $425 forward 7 unknown #
vertex $-1 $248 $426 #
straight-curve $-1 -2.8077476314020267 6.0800457130068812 9.2321909479395963 1 0 0 I I #
coedge $-1 $343 $249 $252 $357 reversed $242 $-1 #
coedge $-1 $249 $343 $348 $423 forward $242 $-1 #
vertex $-1 $250 $427 #
straight-curve $-1 -9.6175797169077608 20.321586488904941 45.33230116701408 0 0 1 I I #
straight-curve $-1 -9.6175797169077608 -14.516412217140406 21.607791633682851 0 0.85716729658548041 -0.51503808176128008 I I #
edge $-1 $421 1.6134108087003458 $254 9.6175797169077608 $352 $428 forward 7 unknown #
point $-1 -9.6175797169077608 20.321586488904941 9.2321909479395963 #
point $-1 -9.6175797169077608 6.0800457130068786 9.2321909479395963 #
edge $-1 $429 1 $429 0 $257 $-1 forward 7 unknown #
vertex $-1 $258 $430 #
ellipse-curve $-1 -8.0167459352662789 12.685778019194638 4.0964330706341947 0 0.51503808176128008 0.85716729658548041 0.5 0 0 1 I I #
point $-1 -7.5167459352662789 13.200816100955917 4.9536003672196749 #
edge $-1 $431 1 $431 0 $261 $-1 forward 7 unknown #
vertex $-1 $262 $432 #
ellipse-curve $-1 -5.6154952628040533 12.685778019194638 4.0964330706341947 0 0.51503808176128008 0.85716729658548041 0.5 0 0 1 I I #
point $-1 -5.1154952628040533 13.200816100955917 4.9536003672196749 #
edge $-1 $433 1 $433 0 $265 $-1 forward 7 unknown #
vertex $-1 $266 $434 #
ellipse-curve $-1 -3.2142445903418277 12.685778019194638 4.0964330706341947 0 0.51503808176128008 0.85716729658548041 0.5 0 0 1 I I #
point $-1 -2.7142445903418277 13.200816100955917 4.9536003672196749 #
plane-surface $-1 40.281991027558213 0 0 -1 0 0 0 0 1 forward_v I I I I #
coedge $-1 $274 $272 $276 $377 reversed $181 $-1 #
edge $-1 $287 -9.2321909479395963 $379 9.2321909479395963 $286 $435 forward 7 unknown #
vertex $-1 $377 $436 #
straight-curve $-1 -40.281991027558213 -20.321586488904941 0 0 0 -1 I I #
edge $-1 $375 -20.321586488904941 $379 20.321586488904941 $373 $437 forward 7 unknown #
straight-curve $-1 0 -20.321586488904941 -9.2321909479395963 -1 0 0 I I #
vertex $-1 $279 $438 #
straight-curve $-1 0 20.321586488904941 -9.2321909479395963 1 0 0 I I #
point $-1 40.281991027558213 20.321586488904941 -9.2321909479395963 #
point $-1 40.281991027558213 -20.321586488904941 -9.2321909479395963 #
straight-curve $-1 -40.281991027558213 0 9.2321909479395963 0 -1 0 I I #
point $-1 -40.281991027558213 20.321586488904941 9.2321909479395963 #
point $-1 -40.281991027558213 -20.321586488904941 9.2321909479395963 #
straight-curve $-1 40.281991027558213 -20.321586488904941 0 0 0 -1 I I #
straight-curve $-1 40.281991027558213 20.321586488904941 0 0 0 -1 I I #
plane-surface $-1 0 -20.321586488904941 0 0 1 0 0 0 1 forward_v I I I I #
coedge $-1 $400 $299 $393 $439 reversed $200 $-1 #
coedge $-1 $299 $400 $392 $440 reversed $200 $-1 #
edge $-1 $396 -9.2321909479395963 $394 9.2321909479395963 $299 $441 forward 7 unknown #
coedge $-1 $301 $300 $390 $440 forward $122 $-1 #
coedge $-1 $303 $309 $389 $439 forward $297 $-1 #
vertex $-1 $304 $442 #
straight-curve $-1 -18.322803033060811 -15.632601589652635 -9.2321909479395963 1 0 0 I I #
vertex $-1 $440 $443 #
straight-curve $-1 -18.322803033060811 -15.632601589652635 9.2321909479395963 -1 0 0 I I #
point $-1 -33.009221104685032 -15.632601589652635 9.2321909479395963 #
point $-1 -33.009221104685032 -15.632601589652635 -9.2321909479395963 #
coedge $-1 $390 $389 $312 $401 reversed $200 $-1 #
edge $-1 $402 -9.2321909479395963 $404 9.2321909479395963 $400 $444 forward 7 unknown #
vertex $-1 $440 $445 #
straight-curve $-1 0 -20.321586488904941 9.2321909479395963 1 0 0 I I #
vertex $-1 $439 $446 #
straight-curve $-1 0 -20.321586488904941 -9.2321909479395963 -1 0 0 I I #
coedge $-1 $319 $318 $326 $411 forward $130 $-1 #
edge $-1 $414 -33.009221104685032 $322 -17.771439719422204 $321 $447 forward 7 unknown #
straight-curve $-1 -17.771439719422204 -32.099938253632416 9.2321909479395963 0 1 0 I I #
point $-1 -17.771439719422204 -20.321586488904941 9.2321909479395963 #
straight-curve $-1 -12.695165206026807 -6.3304825295449021 9.2321909479395963 -1 0 0 I I #
edge $-1 $327 -25.769455724087514 $414 -11.778351764727475 $406 $448 forward 7 unknown #
point $-1 -33.009221104685025 -6.3304825295449021 9.2321909479395963 #
point $-1 -17.771439719422204 -6.3304825295449021 9.2321909479395963 #
vertex $-1 $407 $449 #
straight-curve $-1 -33.009221104685032 -20.321586488904941 0 0 0 -1 I I #
vertex $-1 $334 $450 #
point $-1 -28.155569280324222 -12.580424042816507 3.5410868766146111 #
vertex $-1 $338 $451 #
point $-1 -21.625091543783011 -12.580424042816507 3.5410868766146111 #
edge $-1 $421 36.10011021907448 $424 44.657291380514323 $343 $452 forward 7 unknown #
vertex $-1 $357 $453 #
straight-curve $-1 -1.6134108087003458 13.488553279788473 9.2321909479395927 0 1 0 I I #
edge $-1 $424 -1.1943368227016808 $354 6.8098320855057342 $353 $454 forward 7 unknown #
vertex $-1 $423 $455 #
straight-curve $-1 -1.6134108087003458 -14.516412217140406 21.607791633682851 0 -0.85716729658548041 0.51503808176128008 I I #
point $-1 -1.6134108087003458 6.0800457130068786 9.2321909479395963 #
point $-1 -9.6175797169077608 20.321586488904941 0.67500978649975707 #
straight-curve $-1 0 20.321586488904941 9.2321909479395963 -1 0 0 I I #
vertex $-1 $360 $456 #
point $-1 -7.5167459352662789 12.685778019194638 4.0964330706341947 #
vertex $-1 $364 $457 #
point $-1 -5.1154952628040533 12.685778019194638 4.0964330706341947 #
vertex $-1 $368 $458 #
point $-1 -2.7142445903418277 12.685778019194638 4.0964330706341947 #
straight-curve $-1 -40.281991027558213 20.321586488904941 0 0 0 -1 I I #
point $-1 -40.281991027558213 -20.321586488904941 -9.2321909479395963 #
straight-curve $-1 -40.281991027558213 0 -9.2321909479395963 0 1 0 I I #
point $-1 -40.281991027558213 20.321586488904941 -9.2321909479395963 #
edge $-1 $404 -20.321586488904941 $394 -15.632601589652635 $389 $459 forward 7 unknown #
edge $-1 $396 15.632601589652635 $402 20.321586488904941 $390 $460 forward 7 unknown #
straight-curve $-1 -40.281991027558213 -15.632601589652635 0 0 0 -1 I I #
point $-1 -40.281991027558213 -15.632601589652635 -9.2321909479395963 #
point $-1 -40.281991027558213 -15.632601589652635 9.2321909479395963 #
straight-curve $-1 -40.281991027558213 -20.321586488904941 0 0 0 -1 I I #
point $-1 -40.281991027558213 -20.321586488904941 9.2321909479395963 #
point $-1 -40.281991027558213 -20.321586488904941 -9.2321909479395963 #
straight-curve $-1 0 -20.321586488904941 9.2321909479395963 1 0 0 I I #
straight-curve $-1 -33.009221104685025 -32.099938253632416 9.2321909479395963 0 -1 0 I I #
point $-1 -33.009221104685032 -20.321586488904941 9.2321909479395963 #
point $-1 -28.655569280324222 -12.308104521741061 3.1217515949589396 #
point $-1 -22.125091543783011 -12.308104521741061 3.1217515949589396 #
straight-curve $-1 -1.6134108087003458 20.321586488904941 45.33230116701408 0 0 -1 I I #
point $-1 -1.6134108087003458 20.321586488904941 9.2321909479395963 #
straight-curve $-1 -2.8077476314020267 20.321586488904941 0.67500978649975707 -1 0 0 I I #
point $-1 -1.6134108087003458 20.321586488904941 0.67500978649975707 #
point $-1 -8.0167459352662789 12.428258978313997 3.6678494223414546 #
point $-1 -5.6154952628040533 12.428258978313997 3.6678494223414546 #
point $-1 -3.2142445903418277 12.428258978313997 3.6678494223414546 #
straight-curve $-1 -40.281991027558213 0 -9.2321909479395963 0 1 0 I I #
straight-curve $-1 -40.281991027558213 0 9.2321909479395963 0 -1 0 I I #
End-of-ACIS-data 