500 0 7 0           
7 Unknown 11 ACIS 5.0 NT 24 Thu Mar 25 20:39:22 1999 
-1 9.9999999999999995e-007 1e-010 
body $-1 $7 $-1 $8 #
body $-1 $9 $-1 $10 #
body $-1 $11 $-1 $12 #
body $-1 $13 $-1 $14 #
body $-1 $15 $-1 $16 #
body $-1 $17 $-1 $18 #
body $-1 $19 $-1 $20 #
lump $-1 $-1 $21 $0 #
transform $-1 1 0 0 0 1 0 0 0 1 48.902859584337904 25.466290613035973 12.599545790041626 1 rotate no_reflect no_shear #
lump $-1 $-1 $22 $1 #
transform $-1 1 0 0 0 1 0 0 0 1 48.902859584337904 25.466290613035973 12.599545790041626 1 rotate no_reflect no_shear #
lump $-1 $-1 $23 $2 #
transform $-1 1 0 0 0 1 0 0 0 1 48.902859584337904 25.466290613035973 12.599545790041626 1 rotate no_reflect no_shear #
lump $-1 $-1 $24 $3 #
transform $-1 1 0 0 0 1 0 0 0 1 48.902859584337904 25.466290613035973 12.599545790041626 1 rotate no_reflect no_shear #
lump $-1 $-1 $25 $4 #
transform $-1 1 0 0 0 1 0 0 0 1 48.902859584337904 25.466290613035973 12.599545790041626 1 rotate no_reflect no_shear #
lump $-1 $-1 $26 $5 #
transform $-1 1 0 0 0 1 0 0 0 1 48.902859584337904 25.466290613035973 12.599545790041626 1 rotate no_reflect no_shear #
lump $-1 $-1 $27 $6 #
transform $-1 1 0 0 0 1 0 0 0 1 48.902859584337904 25.466290613035973 12.599545790041626 1 rotate no_reflect no_shear #
shell $-1 $-1 $-1 $28 $-1 $7 #
shell $-1 $-1 $-1 $29 $-1 $9 #
shell $-1 $-1 $-1 $30 $-1 $11 #
shell $-1 $-1 $-1 $31 $-1 $13 #
shell $-1 $-1 $-1 $32 $-1 $15 #
shell $-1 $-1 $-1 $33 $-1 $17 #
shell $-1 $-1 $-1 $34 $-1 $19 #
face $-1 $35 $36 $21 $-1 $37 forward single #
face $-1 $38 $39 $22 $-1 $40 reversed single #
face $-1 $41 $42 $23 $-1 $43 reversed single #
face $-1 $44 $45 $24 $-1 $46 forward single #
face $-1 $47 $48 $25 $-1 $49 reversed single #
face $-1 $50 $51 $26 $-1 $52 forward single #
face $-1 $53 $54 $27 $-1 $55 forward single #
face $-1 $56 $57 $21 $-1 $58 reversed single #
loop $-1 $-1 $59 $28 #
plane-surface $-1 0 0 12.599545790041626 0 0 1 1 0 0 forward_v I I I I #
face $-1 $60 $61 $22 $-1 $62 reversed single #
loop $-1 $-1 $63 $29 #
plane-surface $-1 0 -18.2594942313719 6.2798163403620642 0 0 1 1 0 0 forward_v I I I I #
face $-1 $64 $65 $23 $-1 $66 reversed single #
loop $-1 $-1 $67 $30 #
plane-surface $-1 -1.4708084561594461 20.686492741126102 86.025183754641375 0.85716730853699208 0 0.51503806187062418 0.51503806187062418 0 -0.85716730853699208 forward_v I I I I #
face $-1 $68 $69 $24 $-1 $70 forward single #
loop $-1 $71 $72 $31 #
cone-surface $-1 45.323302485500321 20.686492741126102 7.1228375690351591 -0.85716730853699208 0 -0.51503806187062418 0.51503806187062418 0 -0.85716730853699208 1 I I 0 1 1 forward I I I I #
face $-1 $73 $74 $25 $-1 $75 reversed single #
loop $-1 $-1 $76 $32 #
plane-surface $-1 -103.59512437313214 9.7913975675681471 87.06957358802849 0 1 0 -0.55919291073839883 0 0.82903756765294845 forward_v I I I I #
face $-1 $77 $78 $26 $-1 $79 forward single #
loop $-1 $80 $81 $33 #
cone-surface $-1 -43.090324037608255 12.220143270543716 7.9442024842126013 0.55919291073839883 0 -0.82903756765294845 0.82903756765294845 0 0.55919291073839883 1 I I 0 1 1 forward I I I I #
face $-1 $82 $83 $27 $-1 $84 forward single #
loop $-1 $85 $86 $34 #
cone-surface $-1 -43.090324037608255 15.863261825007072 7.9442024842126013 0.55919291073839883 0 -0.82903756765294845 0.82903756765294845 0 0.55919291073839883 1 I I 0 1 1 forward I I I I #
face $-1 $87 $88 $21 $-1 $89 reversed single #
loop $-1 $-1 $90 $35 #
plane-surface $-1 0 0 -12.599545790041626 0 0 1 1 0 0 forward_v I I I I #
coedge $-1 $91 $92 $93 $94 forward $36 $-1 #
face $-1 $95 $96 $22 $-1 $97 reversed single #
loop $-1 $-1 $98 $38 #
plane-surface $-1 0 -11.052697849707826 9.4396810652018441 0 -1 0 0 0 -1 forward_v I I I I #
coedge $-1 $99 $100 $101 $102 reversed $39 $-1 #
face $-1 $103 $104 $23 $-1 $105 reversed single #
loop $-1 $-1 $106 $41 #
plane-surface $-1 82.365056603179283 15.906694869216231 136.39885179513871 0 1 0 0.85716730853699208 0 0.51503806187062418 forward_v I I I I #
coedge $-1 $107 $108 $109 $110 reversed $42 $-1 #
face $-1 $-1 $111 $24 $-1 $112 forward single #
loop $-1 $113 $114 $44 #
cone-surface $-1 44.44270937280686 20.686492741126102 6.5937238644628788 -0.85716730853699208 0 -0.51503806187062418 0.25751903093531209 0 -0.42858365426849604 1 I I -0.70710678118654746 0.70710678118654746 0.5 forward I I I I #
loop $-1 $-1 $115 $31 #
coedge $-1 $72 $72 $116 $117 reversed $45 $-1 #
face $-1 $118 $119 $25 $-1 $120 reversed single #
loop $-1 $-1 $121 $47 #
plane-surface $-1 -48.902859584337904 14.041702547775394 5.9849580658821395 -0.55919291073839883 0 0.82903756765294845 0.82903756765294845 0 0.55919291073839883 forward_v I I I I #
coedge $-1 $122 $123 $124 $125 reversed $48 $-1 #
face $-1 $-1 $126 $26 $-1 $127 forward single #
loop $-1 $128 $129 $50 #
cone-surface $-1 -41.901456734111449 12.220143270543716 6.1816342566368387 0.55919291073839883 0 -0.82903756765294845 0.41451878382647422 0 0.27959645536919941 1 I I -0.70710678118654746 0.70710678118654746 0.5 forward I I I I #
loop $-1 $-1 $130 $33 #
coedge $-1 $81 $81 $131 $132 reversed $51 $-1 #
face $-1 $-1 $133 $27 $-1 $134 forward single #
loop $-1 $135 $136 $53 #
cone-surface $-1 -41.901456734111449 15.863261825007072 6.1816342566368387 0.55919291073839883 0 -0.82903756765294845 0.41451878382647422 0 0.27959645536919941 1 I I -0.70710678118654746 0.70710678118654746 0.5 forward I I I I #
loop $-1 $-1 $137 $34 #
coedge $-1 $86 $86 $138 $139 reversed $54 $-1 #
face $-1 $140 $141 $21 $-1 $142 reversed single #
loop $-1 $-1 $143 $56 #
plane-surface $-1 0 -25.466290613035973 0 0 1 0 0 0 1 forward_v I I I I #
coedge $-1 $144 $145 $146 $147 forward $57 $-1 #
coedge $-1 $148 $59 $149 $150 forward $36 $-1 #
coedge $-1 $59 $148 $151 $152 forward $36 $-1 #
coedge $-1 $153 $154 $59 $94 reversed $155 $-1 #
edge $-1 $156 -25.466290613035973 $157 25.466290613035973 $93 $158 forward 7 unknown #
face $-1 $159 $160 $22 $-1 $161 reversed single #
loop $-1 $-1 $162 $60 #
plane-surface $-1 -48.902859584337904 0 0 1 0 0 0 0 -1 forward_v I I I I #
coedge $-1 $163 $164 $165 $166 reversed $61 $-1 #
coedge $-1 $167 $63 $168 $169 reversed $39 $-1 #
coedge $-1 $63 $167 $163 $170 forward $39 $-1 #
coedge $-1 $165 $171 $63 $102 forward $172 $-1 #
edge $-1 $173 -16.336543497350021 $174 -1.9229507340218763 $101 $175 forward 7 unknown #
face $-1 $176 $177 $23 $-1 $178 forward single #
loop $-1 $-1 $179 $64 #
plane-surface $-1 0 25.466290613035973 0 0 -1 0 0 0 -1 forward_v I I I I #
coedge $-1 $180 $181 $182 $183 reversed $65 $-1 #
coedge $-1 $184 $67 $179 $185 reversed $42 $-1 #
coedge $-1 $67 $184 $180 $186 forward $42 $-1 #
coedge $-1 $182 $187 $67 $110 forward $177 $-1 #
edge $-1 $188 -15.123044242472922 $189 -5.5634484986531803 $109 $190 forward 7 unknown #
loop $-1 $-1 $116 $68 #
plane-surface $-1 -1.4708084561594461 20.686492741126102 86.025183754641375 0.85716730853699208 0 0.51503806187062418 0.51503806187062418 0 -0.85716730853699208 forward_v I I I I #
loop $-1 $-1 $191 $44 #
coedge $-1 $114 $114 $115 $192 reversed $69 $-1 #
coedge $-1 $115 $115 $114 $192 forward $71 $-1 #
coedge $-1 $116 $116 $72 $117 forward $111 $-1 #
edge $-1 $193 0 $193 6.2831853071796004 $116 $194 forward 7 unknown #
face $-1 $195 $196 $25 $-1 $197 reversed single #
loop $-1 $-1 $198 $73 #
plane-surface $-1 -103.59512437313214 18.292007527982641 87.06957358802849 0 -1 0 0.55919291073839883 0 -0.82903756765294845 forward_v I I I I #
coedge $-1 $199 $200 $201 $202 reversed $74 $-1 #
coedge $-1 $123 $76 $203 $204 reversed $48 $-1 #
coedge $-1 $76 $122 $199 $205 reversed $48 $-1 #
coedge $-1 $201 $206 $76 $125 forward $207 $-1 #
edge $-1 $208 2.8947026022281648 $209 12.70123199943226 $124 $210 forward 7 unknown #
loop $-1 $-1 $131 $77 #
plane-surface $-1 -48.902859584337904 14.041702547775394 5.9849580658821395 -0.55919291073839883 0 0.82903756765294845 0.82903756765294845 0 0.55919291073839883 forward_v I I I I #
loop $-1 $-1 $211 $50 #
coedge $-1 $129 $129 $130 $212 reversed $78 $-1 #
coedge $-1 $130 $130 $129 $212 forward $80 $-1 #
coedge $-1 $131 $131 $81 $132 forward $126 $-1 #
edge $-1 $213 0 $213 6.2831853071796004 $131 $214 forward 7 unknown #
loop $-1 $-1 $138 $82 #
plane-surface $-1 -48.902859584337904 14.041702547775394 5.9849580658821395 -0.55919291073839883 0 0.82903756765294845 0.82903756765294845 0 0.55919291073839883 forward_v I I I I #
loop $-1 $-1 $215 $53 #
coedge $-1 $136 $136 $137 $216 reversed $83 $-1 #
coedge $-1 $137 $137 $136 $216 forward $85 $-1 #
coedge $-1 $138 $138 $86 $139 forward $133 $-1 #
edge $-1 $217 0 $217 6.2831853071796004 $138 $218 forward 7 unknown #
face $-1 $219 $220 $21 $-1 $221 reversed single #
loop $-1 $-1 $222 $87 #
plane-surface $-1 -48.902859584337904 0 0 1 0 0 0 0 -1 forward_v I I I I #
coedge $-1 $223 $151 $224 $225 forward $88 $-1 #
coedge $-1 $226 $90 $223 $227 forward $57 $-1 #
coedge $-1 $90 $226 $228 $229 forward $57 $-1 #
coedge $-1 $154 $153 $90 $147 reversed $155 $-1 #
edge $-1 $230 -25.466290613035973 $231 25.466290613035973 $146 $232 forward 7 unknown #
coedge $-1 $92 $91 $233 $234 forward $36 $-1 #
coedge $-1 $235 $236 $91 $150 reversed $220 $-1 #
edge $-1 $157 -48.902859584337904 $237 48.902859584337904 $149 $238 forward 7 unknown #
coedge $-1 $143 $239 $92 $152 reversed $88 $-1 #
edge $-1 $240 -48.902859584337904 $156 48.902859584337904 $151 $241 forward 7 unknown #
coedge $-1 $146 $93 $239 $242 forward $155 $-1 #
coedge $-1 $93 $146 $235 $243 reversed $155 $-1 #
loop $-1 $-1 $153 $219 #
vertex $-1 $94 $244 #
vertex $-1 $94 $245 #
straight-curve $-1 48.902859584337904 0 12.599545790041626 0 1 0 I I #
face $-1 $246 $247 $22 $-1 $248 forward single #
loop $-1 $-1 $168 $95 #
plane-surface $-1 0 -25.466290613035973 0 0 1 0 0 0 1 forward_v I I I I #
coedge $-1 $249 $250 $251 $252 forward $96 $-1 #
coedge $-1 $251 $98 $100 $170 reversed $61 $-1 #
coedge $-1 $98 $251 $253 $254 reversed $61 $-1 #
coedge $-1 $255 $101 $98 $166 forward $172 $-1 #
edge $-1 $174 1.5599758077611421 $256 7.879705257440702 $165 $257 forward 7 unknown #
coedge $-1 $100 $99 $249 $258 reversed $39 $-1 #
coedge $-1 $259 $260 $99 $169 forward $160 $-1 #
edge $-1 $261 -48.902859584337904 $173 48.902859584337904 $168 $262 forward 7 unknown #
edge $-1 $263 -48.902859584337904 $174 48.902859584337904 $163 $264 forward 7 unknown #
coedge $-1 $101 $255 $259 $265 forward $172 $-1 #
loop $-1 $-1 $165 $246 #
vertex $-1 $169 $266 #
vertex $-1 $102 $267 #
straight-curve $-1 48.902859584337904 -9.1297471156859498 6.2798163403620642 0 1 0 I I #
face $-1 $-1 $268 $23 $-1 $269 reversed single #
loop $-1 $-1 $109 $103 #
plane-surface $-1 0 0 12.599545790041626 0 0 1 1 0 0 forward_v I I I I #
coedge $-1 $270 $271 $107 $185 forward $104 $-1 #
coedge $-1 $181 $106 $108 $186 reversed $65 $-1 #
coedge $-1 $106 $180 $272 $273 reversed $65 $-1 #
coedge $-1 $274 $109 $106 $183 forward $177 $-1 #
edge $-1 $189 1.465236001922996 $275 7.720331282748262 $182 $276 forward 7 unknown #
coedge $-1 $108 $107 $277 $278 reversed $42 $-1 #
edge $-1 $279 -60.557970387671105 $188 -48.413051897362479 $179 $280 forward 7 unknown #
edge $-1 $281 -97.805719168675822 $189 -85.660800678367195 $180 $282 forward 7 unknown #
coedge $-1 $109 $274 $270 $283 forward $177 $-1 #
vertex $-1 $110 $284 #
vertex $-1 $110 $285 #
straight-curve $-1 42.647764303512638 10.343246370563051 12.599545790041617 0 -1 0 I I #
coedge $-1 $191 $191 $-1 $286 reversed $113 $-1 #
edge $-1 $287 0 $287 6.2831853071796004 $114 $288 forward 7 unknown #
vertex $-1 $117 $289 #
ellipse-curve $-1 45.775311943925274 20.686492741126102 7.3944322426721225 0.85716730853699208 0 0.51503806187062418 0.51503806187062418 0 -0.85716730853699208 1 I I #
face $-1 $-1 $207 $25 $-1 $290 forward single #
loop $-1 $-1 $291 $118 #
plane-surface $-1 -48.902859584337904 0 0 1 0 0 0 0 -1 forward_v I I I I #
coedge $-1 $292 $293 $294 $295 reversed $119 $-1 #
coedge $-1 $296 $121 $123 $205 forward $74 $-1 #
coedge $-1 $121 $296 $292 $297 forward $74 $-1 #
coedge $-1 $294 $124 $121 $202 forward $207 $-1 #
edge $-1 $209 2.7705462936804501 $298 11.271156254094944 $201 $299 forward 7 unknown #
coedge $-1 $300 $301 $122 $204 forward $196 $-1 #
edge $-1 $302 -37.549828728132105 $208 -30.935241003972621 $203 $303 forward 7 unknown #
edge $-1 $209 -11.828811841382441 $302 0 $123 $304 forward 7 unknown #
coedge $-1 $124 $294 $300 $305 forward $207 $-1 #
loop $-1 $-1 $294 $195 #
vertex $-1 $204 $306 #
vertex $-1 $125 $307 #
straight-curve $-1 -51.797562186566068 9.7913975675681471 12.599545790041624 1 0 0 I I #
coedge $-1 $211 $211 $-1 $308 reversed $128 $-1 #
edge $-1 $309 0 $309 6.2831853071796004 $129 $310 forward 7 unknown #
vertex $-1 $132 $311 #
ellipse-curve $-1 -43.99959488573586 12.220143270543716 9.2922519279618836 -0.55919291073839883 0 0.82903756765294845 0.82903756765294845 0 0.55919291073839883 1 I I #
coedge $-1 $215 $215 $-1 $312 reversed $135 $-1 #
edge $-1 $313 0 $313 6.2831853071796004 $136 $314 forward 7 unknown #
vertex $-1 $139 $315 #
ellipse-curve $-1 -43.99959488573586 15.863261825007072 9.2922519279618836 -0.55919291073839883 0 0.82903756765294845 0.82903756765294845 0 0.55919291073839883 1 I I #
face $-1 $-1 $155 $21 $-1 $316 reversed single #
loop $-1 $-1 $235 $140 #
plane-surface $-1 0 25.466290613035973 0 0 -1 0 0 0 -1 forward_v I I I I #
coedge $-1 $317 $233 $236 $318 forward $141 $-1 #
coedge $-1 $239 $143 $144 $227 reversed $88 $-1 #
coedge $-1 $233 $317 $143 $225 reversed $141 $-1 #
edge $-1 $240 -12.599545790041626 $319 12.599545790041626 $224 $320 forward 7 unknown #
coedge $-1 $145 $144 $317 $321 forward $57 $-1 #
edge $-1 $231 -48.902859584337904 $319 48.902859584337904 $223 $322 forward 7 unknown #
coedge $-1 $236 $235 $145 $229 reversed $220 $-1 #
edge $-1 $323 -48.902859584337904 $230 48.902859584337904 $228 $324 forward 7 unknown #
vertex $-1 $147 $325 #
vertex $-1 $242 $326 #
straight-curve $-1 48.902859584337904 0 -12.599545790041626 0 -1 0 I I #
coedge $-1 $222 $224 $148 $234 reversed $141 $-1 #
edge $-1 $237 -25.466290613035973 $240 25.466290613035973 $233 $327 forward 7 unknown #
coedge $-1 $228 $149 $154 $243 forward $220 $-1 #
coedge $-1 $149 $228 $222 $318 reversed $220 $-1 #
vertex $-1 $150 $328 #
straight-curve $-1 0 25.466290613035973 12.599545790041626 -1 0 0 I I #
coedge $-1 $151 $223 $153 $242 reversed $88 $-1 #
vertex $-1 $234 $329 #
straight-curve $-1 0 -25.466290613035973 12.599545790041626 1 0 0 I I #
edge $-1 $156 -12.599545790041626 $231 12.599545790041626 $153 $330 forward 7 unknown #
edge $-1 $157 -12.599545790041626 $230 12.599545790041626 $154 $331 forward 7 unknown #
point $-1 48.902859584337904 -25.466290613035973 12.599545790041626 #
point $-1 48.902859584337904 25.466290613035973 12.599545790041626 #
face $-1 $-1 $172 $22 $-1 $332 reversed single #
loop $-1 $-1 $253 $159 #
plane-surface $-1 0 0 12.599545790041626 0 0 1 1 0 0 forward_v I I I I #
coedge $-1 $333 $162 $167 $258 forward $96 $-1 #
coedge $-1 $162 $333 $334 $335 reversed $96 $-1 #
coedge $-1 $164 $163 $162 $252 reversed $61 $-1 #
edge $-1 $336 -7.879705257440702 $263 -1.5599758077611421 $162 $337 forward 7 unknown #
coedge $-1 $334 $338 $164 $254 forward $247 $-1 #
edge $-1 $256 -48.902859584337904 $336 48.902859584337904 $253 $339 forward 7 unknown #
coedge $-1 $171 $165 $338 $340 reversed $172 $-1 #
vertex $-1 $166 $341 #
straight-curve $-1 48.902859584337904 -11.052697849707826 4.7198405326009221 0 0 1 I I #
edge $-1 $263 1.9229507340218763 $261 16.336543497350021 $249 $342 forward 7 unknown #
coedge $-1 $343 $168 $171 $265 reversed $160 $-1 #
coedge $-1 $168 $343 $333 $344 forward $160 $-1 #
vertex $-1 $169 $345 #
straight-curve $-1 0 -25.466290613035973 6.2798163403620642 1 0 0 I I #
vertex $-1 $258 $346 #
straight-curve $-1 0 -11.052697849707826 6.2798163403620642 1 0 0 I I #
edge $-1 $347 -12.599545790041626 $173 -6.2798163403620642 $171 $348 forward 7 unknown #
point $-1 48.902859584337904 -25.466290613035973 6.2798163403620642 #
point $-1 48.902859584337904 -11.052697849707826 6.2798163403620642 #
loop $-1 $-1 $277 $176 #
plane-surface $-1 48.902859584337904 0 0 -1 0 0 0 0 1 forward_v I I I I #
coedge $-1 $271 $179 $187 $283 reversed $104 $-1 #
coedge $-1 $179 $270 $349 $350 forward $104 $-1 #
coedge $-1 $277 $351 $181 $273 forward $268 $-1 #
edge $-1 $275 55.599880107527731 $281 66.01010720226671 $272 $352 forward 7 unknown #
coedge $-1 $187 $182 $351 $353 forward $177 $-1 #
vertex $-1 $353 $354 #
straight-curve $-1 41.182528301589642 15.906694869216231 12.599545790041624 1 0 0 I I #
coedge $-1 $349 $272 $184 $278 forward $268 $-1 #
edge $-1 $281 5.5634484986531803 $279 15.123044242472922 $277 $355 forward 7 unknown #
vertex $-1 $278 $356 #
straight-curve $-1 17.713199885053122 25.466290613035973 54.097631182965543 -0.51503806187062429 0 0.85716730853699219 I I #
vertex $-1 $278 $357 #
straight-curve $-1 -1.4708084561594461 15.906694869216231 86.025183754641375 -0.51503806187062418 0 0.85716730853699208 I I #
edge $-1 $358 -48.902859584337904 $188 -42.647764303512638 $270 $359 forward 7 unknown #
point $-1 42.647764303512638 25.466290613035973 12.599545790041631 #
point $-1 42.647764303512638 15.906694869216231 12.599545790041631 #
edge $-1 $360 1 $360 0 $191 $-1 forward 7 unknown #
vertex $-1 $192 $361 #
ellipse-curve $-1 44.871293027075353 20.686492741126102 6.8512428953981912 0.85716730853699208 0 0.51503806187062418 0.51503806187062418 0 -0.85716730853699208 1 I I #
point $-1 46.290350005795901 20.686492741126102 6.5372649341351341 #
plane-surface $-1 0 0 12.599545790041626 0 0 1 1 0 0 forward_v I I I I #
coedge $-1 $301 $300 $293 $362 forward $196 $-1 #
coedge $-1 $293 $198 $200 $297 reversed $119 $-1 #
coedge $-1 $198 $292 $291 $362 reversed $119 $-1 #
coedge $-1 $206 $201 $198 $295 forward $207 $-1 #
edge $-1 $298 -12.70123199943226 $363 -2.8947026022281648 $294 $364 forward 7 unknown #
coedge $-1 $200 $199 $301 $365 reversed $74 $-1 #
edge $-1 $366 0 $298 11.828811841382441 $292 $367 forward 7 unknown #
vertex $-1 $202 $368 #
straight-curve $-1 -39.096330187133802 7.0208512738876969 12.599545790041626 0 1 0 I I #
coedge $-1 $291 $203 $206 $305 reversed $196 $-1 #
coedge $-1 $203 $291 $296 $365 forward $196 $-1 #
vertex $-1 $204 $369 #
straight-curve $-1 -48.902859584337904 9.7913975675681471 43.534786794014245 0 0 1 I I #
straight-curve $-1 -48.902859584337904 9.7913975675681471 5.9849580658821395 -0.82903756765294845 0 -0.55919291073839883 I I #
edge $-1 $363 -18.292007527982641 $208 -9.7913975675681471 $300 $370 forward 7 unknown #
point $-1 -48.902859584337904 9.7913975675681471 12.599545790041626 #
point $-1 -39.096330187133809 9.7913975675681471 12.599545790041626 #
edge $-1 $371 1 $371 0 $211 $-1 forward 7 unknown #
vertex $-1 $212 $372 #
ellipse-curve $-1 -42.18105318948065 12.220143270543716 6.5961530404633129 -0.55919291073839883 0 0.82903756765294845 0.82903756765294845 0 0.55919291073839883 1 I I #
point $-1 -43.170557318082913 12.220143270543716 9.8514448387002886 #
edge $-1 $373 1 $373 0 $215 $-1 forward 7 unknown #
vertex $-1 $216 $374 #
ellipse-curve $-1 -42.18105318948065 15.863261825007072 6.5961530404633129 -0.55919291073839883 0 0.82903756765294845 0.82903756765294845 0 0.55919291073839883 1 I I #
point $-1 -43.170557318082913 15.863261825007072 9.8514448387002886 #
plane-surface $-1 48.902859584337904 0 0 -1 0 0 0 0 1 forward_v I I I I #
coedge $-1 $224 $222 $226 $321 reversed $141 $-1 #
edge $-1 $237 -12.599545790041626 $323 12.599545790041626 $236 $375 forward 7 unknown #
vertex $-1 $321 $376 #
straight-curve $-1 -48.902859584337904 -25.466290613035973 0 0 0 -1 I I #
edge $-1 $319 -25.466290613035973 $323 25.466290613035973 $317 $377 forward 7 unknown #
straight-curve $-1 0 -25.466290613035973 -12.599545790041626 -1 0 0 I I #
vertex $-1 $229 $378 #
straight-curve $-1 0 25.466290613035973 -12.599545790041626 1 0 0 I I #
point $-1 48.902859584337904 25.466290613035973 -12.599545790041626 #
point $-1 48.902859584337904 -25.466290613035973 -12.599545790041626 #
straight-curve $-1 -48.902859584337904 0 12.599545790041626 0 -1 0 I I #
point $-1 -48.902859584337904 25.466290613035973 12.599545790041626 #
point $-1 -48.902859584337904 -25.466290613035973 12.599545790041626 #
straight-curve $-1 48.902859584337904 -25.466290613035973 0 0 0 -1 I I #
straight-curve $-1 48.902859584337904 25.466290613035973 0 0 0 -1 I I #
plane-surface $-1 48.902859584337904 0 0 -1 0 0 0 0 1 forward_v I I I I #
coedge $-1 $250 $249 $260 $344 reversed $96 $-1 #
coedge $-1 $379 $253 $250 $335 forward $247 $-1 #
edge $-1 $336 11.052697849707826 $380 25.466290613035973 $250 $381 forward 7 unknown #
vertex $-1 $335 $382 #
straight-curve $-1 -48.902859584337904 -11.052697849707826 4.7198405326009221 0 0 -1 I I #
coedge $-1 $253 $379 $255 $340 forward $247 $-1 #
straight-curve $-1 0 -11.052697849707826 12.599545790041626 -1 0 0 I I #
edge $-1 $347 -25.466290613035973 $256 -11.052697849707826 $255 $383 forward 7 unknown #
point $-1 48.902859584337904 -11.052697849707826 12.599545790041624 #
straight-curve $-1 -48.902859584337904 -9.1297471156859498 6.2798163403620642 0 -1 0 I I #
coedge $-1 $260 $259 $379 $384 reversed $160 $-1 #
edge $-1 $380 -12.599545790041626 $261 -6.2798163403620642 $333 $385 forward 7 unknown #
point $-1 -48.902859584337904 -25.466290613035973 6.2798163403620642 #
point $-1 -48.902859584337904 -11.052697849707826 6.2798163403620642 #
vertex $-1 $340 $386 #
straight-curve $-1 48.902859584337904 -25.466290613035973 0 0 0 -1 I I #
coedge $-1 $351 $277 $271 $350 reversed $268 $-1 #
edge $-1 $358 -12.599545790041626 $279 -2.1893186953026458 $349 $387 forward 7 unknown #
coedge $-1 $272 $349 $274 $353 reversed $268 $-1 #
straight-curve $-1 48.902859584337904 15.906694869216231 68.199425897569355 0 0 -1 I I #
edge $-1 $275 15.906694869216231 $358 25.466290613035973 $351 $388 forward 7 unknown #
point $-1 48.902859584337904 15.906694869216231 12.599545790041626 #
straight-curve $-1 48.902859584337904 10.343246370563051 2.1893186953026316 0 1 0 I I #
point $-1 48.902859584337904 25.466290613035973 2.1893186953026458 #
point $-1 48.902859584337904 15.906694869216231 2.1893186953026458 #
vertex $-1 $353 $389 #
straight-curve $-1 0 25.466290613035973 12.599545790041626 -1 0 0 I I #
vertex $-1 $286 $390 #
point $-1 45.38633108894598 20.686492741126102 5.9940755868611983 #
edge $-1 $363 30.935241003972621 $366 37.549828728132105 $291 $391 forward 7 unknown #
vertex $-1 $305 $392 #
straight-curve $-1 -51.797562186566068 18.292007527982641 12.599545790041624 -1 0 0 I I #
edge $-1 $366 -11.271156254094944 $302 -2.7705462936804501 $301 $393 forward 7 unknown #
vertex $-1 $365 $394 #
straight-curve $-1 -48.902859584337904 18.292007527982641 5.9849580658821395 0.82903756765294845 0 0.55919291073839883 I I #
point $-1 -39.096330187133809 18.292007527982641 12.599545790041626 #
point $-1 -48.902859584337904 9.7913975675681471 5.9849580658821395 #
straight-curve $-1 -48.902859584337904 0 12.599545790041626 0 -1 0 I I #
vertex $-1 $308 $395 #
point $-1 -41.352015621827697 12.220143270543716 7.1553459512017117 #
vertex $-1 $312 $396 #
point $-1 -41.352015621827697 15.863261825007072 7.1553459512017117 #
straight-curve $-1 -48.902859584337904 25.466290613035973 0 0 0 -1 I I #
point $-1 -48.902859584337904 -25.466290613035973 -12.599545790041626 #
straight-curve $-1 -48.902859584337904 0 -12.599545790041626 0 1 0 I I #
point $-1 -48.902859584337904 25.466290613035973 -12.599545790041626 #
coedge $-1 $338 $334 $343 $384 forward $247 $-1 #
vertex $-1 $335 $397 #
straight-curve $-1 -48.902859584337904 0 12.599545790041626 0 -1 0 I I #
point $-1 -48.902859584337904 -11.052697849707826 12.599545790041624 #
straight-curve $-1 48.902859584337904 0 12.599545790041626 0 1 0 I I #
edge $-1 $380 -48.902859584337904 $347 48.902859584337904 $343 $398 forward 7 unknown #
straight-curve $-1 -48.902859584337904 -25.466290613035973 0 0 0 -1 I I #
point $-1 48.902859584337904 -25.466290613035973 12.599545790041626 #
straight-curve $-1 48.902859584337904 25.466290613035973 0 0 0 -1 I I #
straight-curve $-1 48.902859584337904 0 12.599545790041626 0 1 0 I I #
point $-1 48.902859584337904 25.466290613035973 12.599545790041626 #
point $-1 44.014125718538367 20.686492741126102 6.3362048335275665 #
straight-curve $-1 -48.902859584337904 18.292007527982641 43.534786794014245 0 0 -1 I I #
point $-1 -48.902859584337904 18.292007527982641 12.599545790041626 #
straight-curve $-1 -48.902859584337904 7.0208512738876969 5.9849580658821404 0 -1 0 I I #
point $-1 -48.902859584337904 18.292007527982641 5.9849580658821395 #
point $-1 -41.621860278742247 12.220143270543716 5.7671154728103646 #
point $-1 -41.621860278742247 15.863261825007072 5.7671154728103646 #
point $-1 -48.902859584337904 -25.466290613035973 12.599545790041626 #
straight-curve $-1 0 -25.466290613035973 12.599545790041626 1 0 0 I I #
End-of-ACIS-data 