500 0 7 0           
7 Unknown 11 ACIS 5.0 NT 24 Thu Mar 25 18:48:33 1999 
-1 9.9999999999999995e-007 1e-010 
body $-1 $7 $-1 $8 #
body $-1 $9 $-1 $10 #
body $-1 $11 $-1 $12 #
body $-1 $13 $-1 $14 #
body $-1 $15 $-1 $16 #
body $-1 $17 $-1 $18 #
body $-1 $19 $-1 $20 #
lump $-1 $-1 $21 $0 #
transform $-1 1 0 0 0 1 0 0 0 1 75.513779107028412 43.485354189469298 20.267994469674733 1 rotate no_reflect no_shear #
lump $-1 $-1 $22 $1 #
transform $-1 1 0 0 0 1 0 0 0 1 75.513779107028412 43.485354189469298 20.267994469674733 1 rotate no_reflect no_shear #
lump $-1 $-1 $23 $2 #
transform $-1 1 0 0 0 1 0 0 0 1 75.513779107028412 43.485354189469298 20.267994469674733 1 rotate no_reflect no_shear #
lump $-1 $-1 $24 $3 #
transform $-1 1 0 0 0 1 0 0 0 1 75.513779107028412 43.485354189469298 20.267994469674733 1 rotate no_reflect no_shear #
lump $-1 $-1 $25 $4 #
transform $-1 1 0 0 0 1 0 0 0 1 75.513779107028412 43.485354189469298 20.267994469674733 1 rotate no_reflect no_shear #
lump $-1 $-1 $26 $5 #
transform $-1 1 0 0 0 1 0 0 0 1 75.513779107028412 43.485354189469298 20.267994469674733 1 rotate no_reflect no_shear #
lump $-1 $-1 $27 $6 #
transform $-1 1 0 0 0 1 0 0 0 1 75.513779107028412 43.485354189469298 20.267994469674733 1 rotate no_reflect no_shear #
shell $-1 $-1 $-1 $28 $-1 $7 #
shell $-1 $-1 $-1 $29 $-1 $9 #
shell $-1 $-1 $-1 $30 $-1 $11 #
shell $-1 $-1 $-1 $31 $-1 $13 #
shell $-1 $-1 $-1 $32 $-1 $15 #
shell $-1 $-1 $-1 $33 $-1 $17 #
shell $-1 $-1 $-1 $34 $-1 $19 #
face $-1 $35 $36 $21 $-1 $37 forward single #
face $-1 $38 $39 $22 $-1 $40 forward single #
face $-1 $41 $42 $23 $-1 $43 reversed single #
face $-1 $44 $45 $24 $-1 $46 forward single #
face $-1 $47 $48 $25 $-1 $49 forward single #
face $-1 $50 $51 $26 $-1 $52 reversed single #
face $-1 $53 $54 $27 $-1 $55 forward single #
face $-1 $56 $57 $21 $-1 $58 reversed single #
loop $-1 $-1 $59 $28 #
plane-surface $-1 0 0 20.267994469674733 0 0 1 1 0 0 forward_v I I I I #
face $-1 $60 $61 $22 $-1 $62 reversed single #
loop $-1 $-1 $63 $29 #
plane-surface $-1 0 -43.485354189469298 0 0 1 0 0 0 1 forward_v I I I I #
face $-1 $64 $65 $23 $-1 $66 reversed single #
loop $-1 $-1 $67 $30 #
plane-surface $-1 68.059764753455241 -8.1098883094197731 221.10758278412365 0 -1 0 -0.68199836817093118 0 -0.7313536940579346 forward_v I I I I #
face $-1 $68 $69 $24 $-1 $70 forward single #
loop $-1 $71 $72 $31 #
cone-surface $-1 65.919693948709011 -22.29983945973412 10.925601941122324 -0.68199836817093118 0 -0.7313536940579346 1.8283842351448365 0 -1.7049959204273279 1 I I 0 1 2.5 forward I I I I #
face $-1 $73 $74 $25 $-1 $75 forward single #
loop $-1 $76 $77 $32 #
cone-surface $-1 65.919693948709011 -13.785868769545512 10.925601941122324 -0.68199836817093118 0 -0.7313536940579346 1.8283842351448365 0 -1.7049959204273279 1 I I 0 1 2.5 forward I I I I #
face $-1 $78 $79 $26 $-1 $80 reversed single #
loop $-1 $-1 $81 $33 #
plane-surface $-1 -172.59242344143092 -27.975819919859859 132.66459088876226 0 1 0 -0.64278761758704617 0 0.76604443648966558 forward_v I I I I #
face $-1 $82 $83 $27 $-1 $84 forward single #
loop $-1 $85 $86 $34 #
cone-surface $-1 -72.812512621408189 -18.993939597872291 17.741623552878231 0.64278761758704617 0 -0.76604443648966558 0.76604443648966558 0 0.64278761758704617 1 I I 0 1 1 forward I I I I #
face $-1 $87 $88 $21 $-1 $89 reversed single #
loop $-1 $-1 $90 $35 #
plane-surface $-1 0 0 -20.267994469674733 0 0 1 1 0 0 forward_v I I I I #
coedge $-1 $91 $92 $93 $94 forward $36 $-1 #
face $-1 $95 $96 $22 $-1 $97 reversed single #
loop $-1 $-1 $98 $38 #
plane-surface $-1 0 0 -20.267994469674733 0 0 1 1 0 0 forward_v I I I I #
coedge $-1 $99 $100 $101 $102 forward $39 $-1 #
face $-1 $103 $104 $23 $-1 $105 reversed single #
loop $-1 $-1 $106 $41 #
plane-surface $-1 -34.940783497371825 -18.042854114639816 110.65302017972343 0.68199836817093118 0 0.7313536940579346 0.7313536940579346 0 -0.68199836817093118 forward_v I I I I #
coedge $-1 $107 $108 $109 $110 reversed $42 $-1 #
face $-1 $-1 $111 $24 $-1 $112 forward single #
loop $-1 $113 $114 $44 #
cone-surface $-1 62.237356496491813 -22.29983945973412 6.976778565386681 -0.68199836817093118 0 -0.7313536940579346 0.91419211757241825 0 -0.85249796021366397 1 I I -0.70710678118654746 0.70710678118654746 1.25 forward I I I I #
loop $-1 $-1 $115 $31 #
coedge $-1 $72 $72 $116 $117 reversed $45 $-1 #
face $-1 $-1 $118 $25 $-1 $119 forward single #
loop $-1 $120 $121 $47 #
cone-surface $-1 62.237356496491813 -13.785868769545512 6.976778565386681 -0.68199836817093118 0 -0.7313536940579346 0.91419211757241825 0 -0.85249796021366397 1 I I -0.70710678118654746 0.70710678118654746 1.25 forward I I I I #
loop $-1 $-1 $122 $32 #
coedge $-1 $77 $77 $123 $124 reversed $48 $-1 #
face $-1 $125 $126 $26 $-1 $127 reversed single #
loop $-1 $-1 $128 $50 #
plane-surface $-1 -75.513779107028412 -18.993939597872288 16.970770162264941 -0.64278761758704617 0 0.76604443648966558 0.76604443648966558 0 0.64278761758704617 forward_v I I I I #
coedge $-1 $129 $130 $131 $132 reversed $51 $-1 #
face $-1 $-1 $133 $27 $-1 $134 forward single #
loop $-1 $135 $136 $53 #
cone-surface $-1 -71.754591742815336 -18.993939597872291 16.480842571541785 0.64278761758704617 0 -0.76604443648966558 0.38302221824483279 0 0.32139380879352308 1 I I -0.70710678118654746 0.70710678118654746 0.5 forward I I I I #
loop $-1 $-1 $137 $34 #
coedge $-1 $86 $86 $138 $139 reversed $54 $-1 #
face $-1 $140 $141 $21 $-1 $142 reversed single #
loop $-1 $-1 $143 $56 #
plane-surface $-1 0 -43.485354189469298 0 0 1 0 0 0 1 forward_v I I I I #
coedge $-1 $144 $145 $146 $147 forward $57 $-1 #
coedge $-1 $148 $59 $149 $150 forward $36 $-1 #
coedge $-1 $59 $148 $151 $152 forward $36 $-1 #
coedge $-1 $153 $154 $59 $94 reversed $155 $-1 #
edge $-1 $156 -43.485354189469298 $157 43.485354189469298 $93 $158 forward 7 unknown #
face $-1 $159 $160 $22 $-1 $161 reversed single #
loop $-1 $-1 $162 $60 #
plane-surface $-1 -57.078389900156367 -58.994888459078737 0 0 1 0 0 0 1 forward_v I I I I #
coedge $-1 $163 $164 $100 $165 forward $61 $-1 #
coedge $-1 $166 $63 $167 $168 reversed $39 $-1 #
coedge $-1 $63 $166 $98 $165 reversed $39 $-1 #
coedge $-1 $169 $170 $63 $102 reversed $160 $-1 #
edge $-1 $171 -20.267994469674733 $172 20.267994469674733 $101 $173 forward 7 unknown #
face $-1 $174 $175 $23 $-1 $176 forward single #
loop $-1 $-1 $177 $64 #
plane-surface $-1 68.059764753455241 -27.975819919859859 221.10758278412365 0 1 0 0.68199836817093118 0 0.7313536940579346 forward_v I I I I #
coedge $-1 $178 $179 $180 $181 reversed $65 $-1 #
coedge $-1 $108 $67 $182 $183 reversed $42 $-1 #
coedge $-1 $67 $107 $178 $184 reversed $42 $-1 #
coedge $-1 $180 $185 $67 $110 forward $175 $-1 #
edge $-1 $186 -41.483896730300792 $187 -27.955405397669075 $109 $188 forward 7 unknown #
loop $-1 $-1 $116 $68 #
plane-surface $-1 -34.940783497371825 -18.042854114639816 110.65302017972343 0.68199836817093118 0 0.7313536940579346 0.7313536940579346 0 -0.68199836817093118 forward_v I I I I #
loop $-1 $-1 $189 $44 #
coedge $-1 $114 $114 $115 $190 reversed $69 $-1 #
coedge $-1 $115 $115 $114 $190 forward $71 $-1 #
coedge $-1 $116 $116 $72 $117 forward $111 $-1 #
edge $-1 $191 0 $191 6.2831853071796004 $116 $192 forward 7 unknown #
loop $-1 $-1 $123 $73 #
plane-surface $-1 -34.940783497371825 -18.042854114639816 110.65302017972343 0.68199836817093118 0 0.7313536940579346 0.7313536940579346 0 -0.68199836817093118 forward_v I I I I #
loop $-1 $-1 $193 $47 #
coedge $-1 $121 $121 $122 $194 reversed $74 $-1 #
coedge $-1 $122 $122 $121 $194 forward $76 $-1 #
coedge $-1 $123 $123 $77 $124 forward $118 $-1 #
edge $-1 $195 0 $195 6.2831853071796004 $123 $196 forward 7 unknown #
face $-1 $197 $198 $26 $-1 $199 reversed single #
loop $-1 $-1 $200 $78 #
plane-surface $-1 -172.59242344143092 -10.012059275884717 132.66459088876226 0 -1 0 0.64278761758704617 0 -0.76604443648966558 forward_v I I I I #
coedge $-1 $201 $202 $203 $204 reversed $79 $-1 #
coedge $-1 $130 $81 $205 $206 reversed $51 $-1 #
coedge $-1 $81 $129 $201 $207 reversed $51 $-1 #
coedge $-1 $203 $208 $81 $132 forward $209 $-1 #
edge $-1 $210 10.78243261368705 $211 14.711911445328852 $131 $212 forward 7 unknown #
loop $-1 $-1 $138 $82 #
plane-surface $-1 -75.513779107028412 -18.993939597872288 16.970770162264941 -0.64278761758704617 0 0.76604443648966558 0.76604443648966558 0 0.64278761758704617 forward_v I I I I #
loop $-1 $-1 $213 $53 #
coedge $-1 $136 $136 $137 $214 reversed $83 $-1 #
coedge $-1 $137 $137 $136 $214 forward $85 $-1 #
coedge $-1 $138 $138 $86 $139 forward $133 $-1 #
edge $-1 $215 0 $215 6.2831853071796004 $138 $216 forward 7 unknown #
face $-1 $217 $218 $21 $-1 $219 reversed single #
loop $-1 $-1 $220 $87 #
plane-surface $-1 -75.513779107028412 0 0 1 0 0 0 0 -1 forward_v I I I I #
coedge $-1 $221 $151 $222 $223 forward $88 $-1 #
coedge $-1 $224 $90 $221 $225 forward $57 $-1 #
coedge $-1 $90 $224 $226 $227 forward $57 $-1 #
coedge $-1 $154 $153 $90 $147 reversed $155 $-1 #
edge $-1 $228 -43.485354189469298 $229 43.485354189469298 $146 $230 forward 7 unknown #
coedge $-1 $92 $91 $231 $232 forward $36 $-1 #
coedge $-1 $233 $234 $91 $150 reversed $218 $-1 #
edge $-1 $157 -75.513779107028412 $235 75.513779107028412 $149 $236 forward 7 unknown #
coedge $-1 $143 $237 $92 $152 reversed $88 $-1 #
edge $-1 $238 -75.513779107028412 $156 75.513779107028412 $151 $239 forward 7 unknown #
coedge $-1 $146 $93 $237 $240 forward $155 $-1 #
coedge $-1 $93 $146 $233 $241 reversed $155 $-1 #
loop $-1 $-1 $153 $217 #
vertex $-1 $94 $242 #
vertex $-1 $94 $243 #
straight-curve $-1 75.513779107028412 0 20.267994469674733 0 1 0 I I #
face $-1 $244 $245 $22 $-1 $246 reversed single #
loop $-1 $-1 $101 $95 #
plane-surface $-1 -60.204227177066102 -51.240121324274014 0 1 0 0 0 0 -1 forward_v I I I I #
coedge $-1 $247 $248 $249 $250 forward $96 $-1 #
coedge $-1 $251 $98 $252 $253 forward $61 $-1 #
coedge $-1 $98 $251 $169 $254 forward $61 $-1 #
edge $-1 $171 -60.204227177066102 $255 -53.952552623246632 $98 $256 forward 7 unknown #
coedge $-1 $100 $99 $257 $258 forward $39 $-1 #
coedge $-1 $259 $260 $99 $168 forward $261 $-1 #
edge $-1 $262 53.952552623246632 $172 60.204227177066102 $167 $263 forward 7 unknown #
coedge $-1 $249 $101 $164 $254 reversed $160 $-1 #
coedge $-1 $101 $249 $259 $264 reversed $160 $-1 #
vertex $-1 $165 $265 #
vertex $-1 $264 $266 #
straight-curve $-1 -60.204227177066102 -43.485354189469298 0 0 0 1 I I #
face $-1 $-1 $267 $23 $-1 $268 reversed single #
loop $-1 $-1 $109 $103 #
plane-surface $-1 0 0 20.267994469674733 0 0 1 1 0 0 forward_v I I I I #
coedge $-1 $269 $270 $271 $272 reversed $104 $-1 #
coedge $-1 $273 $106 $108 $184 forward $65 $-1 #
coedge $-1 $106 $273 $269 $274 forward $65 $-1 #
coedge $-1 $271 $109 $106 $181 forward $175 $-1 #
edge $-1 $187 -0.91153874790013489 $275 18.954392862539951 $180 $276 forward 7 unknown #
coedge $-1 $277 $278 $107 $183 forward $267 $-1 #
edge $-1 $279 -102.90131946316548 $186 -90.285796922387092 $182 $280 forward 7 unknown #
edge $-1 $187 132.52968031647143 $279 151.02755821405685 $108 $281 forward 7 unknown #
coedge $-1 $109 $271 $277 $282 forward $175 $-1 #
vertex $-1 $110 $283 #
vertex $-1 $110 $284 #
straight-curve $-1 34.02988237672762 -8.1098883094197731 20.267994469674733 -1 0 0 I I #
coedge $-1 $189 $189 $-1 $285 reversed $113 $-1 #
edge $-1 $286 0 $286 6.2831853071796004 $114 $287 forward 7 unknown #
vertex $-1 $117 $288 #
ellipse-curve $-1 68.74953344071254 -22.29983945973412 13.96023319928554 0.68199836817093118 0 0.7313536940579346 1.8283842351448365 0 -1.7049959204273279 1 I I #
coedge $-1 $193 $193 $-1 $289 reversed $120 $-1 #
edge $-1 $290 0 $290 6.2831853071796004 $121 $291 forward 7 unknown #
vertex $-1 $124 $292 #
ellipse-curve $-1 68.74953344071254 -13.785868769545512 13.96023319928554 0.68199836817093118 0 0.7313536940579346 1.8283842351448365 0 -1.7049959204273279 1 I I #
face $-1 $-1 $209 $26 $-1 $293 forward single #
loop $-1 $-1 $294 $125 #
plane-surface $-1 -75.513779107028412 0 0 1 0 0 0 0 -1 forward_v I I I I #
coedge $-1 $295 $296 $297 $298 reversed $126 $-1 #
coedge $-1 $299 $128 $130 $207 forward $79 $-1 #
coedge $-1 $128 $299 $295 $300 forward $79 $-1 #
coedge $-1 $297 $131 $128 $204 forward $209 $-1 #
edge $-1 $211 -18.478850120923717 $301 -0.51508947694857277 $203 $302 forward 7 unknown #
coedge $-1 $303 $304 $129 $206 forward $198 $-1 #
edge $-1 $305 -49.36152528211619 $210 -46.064300974706399 $205 $306 forward 7 unknown #
edge $-1 $211 -5.1295703544931524 $305 0 $130 $307 forward 7 unknown #
coedge $-1 $131 $297 $303 $308 forward $209 $-1 #
loop $-1 $-1 $297 $197 #
vertex $-1 $206 $309 #
vertex $-1 $132 $310 #
straight-curve $-1 -86.296211720715462 -27.975819919859859 20.267994469674733 1 0 0 I I #
coedge $-1 $213 $213 $-1 $311 reversed $135 $-1 #
edge $-1 $312 0 $312 6.2831853071796004 $136 $313 forward 7 unknown #
vertex $-1 $139 $314 #
ellipse-curve $-1 -73.549039691207511 -18.993939597872291 18.619382315969837 -0.64278761758704617 0 0.76604443648966558 0.76604443648966558 0 0.64278761758704617 1 I I #
face $-1 $-1 $155 $21 $-1 $315 reversed single #
loop $-1 $-1 $233 $140 #
plane-surface $-1 0 43.485354189469298 0 0 -1 0 0 0 -1 forward_v I I I I #
coedge $-1 $316 $231 $234 $317 forward $141 $-1 #
coedge $-1 $237 $143 $144 $225 reversed $88 $-1 #
coedge $-1 $231 $316 $143 $223 reversed $141 $-1 #
edge $-1 $238 -20.267994469674733 $318 20.267994469674733 $222 $319 forward 7 unknown #
coedge $-1 $145 $144 $316 $320 forward $57 $-1 #
edge $-1 $229 -75.513779107028412 $318 75.513779107028412 $221 $321 forward 7 unknown #
coedge $-1 $234 $233 $145 $227 reversed $218 $-1 #
edge $-1 $322 -75.513779107028412 $228 75.513779107028412 $226 $323 forward 7 unknown #
vertex $-1 $147 $324 #
vertex $-1 $240 $325 #
straight-curve $-1 75.513779107028412 0 -20.267994469674733 0 -1 0 I I #
coedge $-1 $220 $222 $148 $232 reversed $141 $-1 #
edge $-1 $235 -43.485354189469298 $238 43.485354189469298 $231 $326 forward 7 unknown #
coedge $-1 $226 $149 $154 $241 forward $218 $-1 #
coedge $-1 $149 $226 $220 $317 reversed $218 $-1 #
vertex $-1 $150 $327 #
straight-curve $-1 0 43.485354189469298 20.267994469674733 -1 0 0 I I #
coedge $-1 $151 $221 $153 $240 reversed $88 $-1 #
vertex $-1 $232 $328 #
straight-curve $-1 0 -43.485354189469298 20.267994469674733 1 0 0 I I #
edge $-1 $156 -20.267994469674733 $229 20.267994469674733 $153 $329 forward 7 unknown #
edge $-1 $157 -20.267994469674733 $228 20.267994469674733 $154 $330 forward 7 unknown #
point $-1 75.513779107028412 -43.485354189469298 20.267994469674733 #
point $-1 75.513779107028412 43.485354189469298 20.267994469674733 #
face $-1 $-1 $261 $22 $-1 $331 forward single #
loop $-1 $-1 $332 $159 #
plane-surface $-1 -53.952552623246632 -51.240121324274014 0 -1 0 0 0 0 1 forward_v I I I I #
coedge $-1 $333 $162 $251 $334 reversed $96 $-1 #
coedge $-1 $162 $333 $335 $336 reversed $96 $-1 #
coedge $-1 $170 $169 $162 $250 reversed $160 $-1 #
edge $-1 $337 -20.267994469674733 $338 20.267994469674733 $249 $339 forward 7 unknown #
coedge $-1 $164 $163 $247 $334 forward $61 $-1 #
coedge $-1 $257 $332 $163 $253 reversed $245 $-1 #
edge $-1 $255 -7.7547671348047231 $340 7.7547671348047231 $252 $341 forward 7 unknown #
edge $-1 $338 -7.7547671348047231 $171 7.7547671348047231 $169 $342 forward 7 unknown #
vertex $-1 $253 $343 #
straight-curve $-1 0 -43.485354189469298 -20.267994469674733 1 0 0 I I #
coedge $-1 $344 $252 $166 $258 reversed $245 $-1 #
edge $-1 $262 -20.267994469674733 $255 20.267994469674733 $257 $345 forward 7 unknown #
coedge $-1 $335 $167 $170 $264 forward $261 $-1 #
coedge $-1 $167 $335 $344 $346 forward $261 $-1 #
loop $-1 $-1 $167 $244 #
vertex $-1 $168 $347 #
straight-curve $-1 0 -43.485354189469298 20.267994469674733 -1 0 0 I I #
edge $-1 $172 -7.7547671348047231 $337 7.7547671348047231 $170 $348 forward 7 unknown #
point $-1 -60.204227177066102 -43.485354189469291 -20.267994469674733 #
point $-1 -60.204227177066102 -43.485354189469291 20.267994469674733 #
loop $-1 $-1 $182 $174 #
plane-surface $-1 75.513779107028412 0 0 -1 0 0 0 0 1 forward_v I I I I #
coedge $-1 $270 $177 $179 $274 reversed $104 $-1 #
coedge $-1 $177 $269 $349 $350 reversed $104 $-1 #
coedge $-1 $185 $180 $177 $272 forward $175 $-1 #
edge $-1 $275 27.955405397669075 $351 41.483896730300792 $271 $352 forward 7 unknown #
coedge $-1 $179 $178 $278 $353 reversed $65 $-1 #
edge $-1 $354 -151.02755821405685 $275 -132.52968031647143 $269 $355 forward 7 unknown #
vertex $-1 $181 $356 #
straight-curve $-1 61.985287774396703 -9.021427057319908 20.267994469674733 0 -1 0 I I #
coedge $-1 $349 $182 $185 $282 reversed $267 $-1 #
coedge $-1 $182 $349 $273 $353 forward $267 $-1 #
vertex $-1 $183 $357 #
straight-curve $-1 75.513779107028412 -8.1098883094197731 110.55379139206183 0 0 1 I I #
straight-curve $-1 -34.940783497371825 -8.1098883094197731 110.65302017972343 0.7313536940579346 0 -0.68199836817093118 I I #
edge $-1 $351 -27.975819919859859 $186 -8.1098883094197731 $277 $358 forward 7 unknown #
point $-1 75.513779107028412 -8.1098883094197731 20.267994469674733 #
point $-1 61.985287774396696 -8.1098883094197731 20.267994469674733 #
edge $-1 $359 1 $359 0 $189 $-1 forward 7 unknown #
vertex $-1 $190 $360 #
ellipse-curve $-1 63.089854456705474 -22.29983945973412 7.8909706829590993 0.68199836817093118 0 0.7313536940579346 1.8283842351448365 0 -1.7049959204273279 1 I I #
point $-1 70.577917675857393 -22.29983945973412 12.255237278858218 #
edge $-1 $361 1 $361 0 $193 $-1 forward 7 unknown #
vertex $-1 $194 $362 #
ellipse-curve $-1 63.089854456705474 -13.785868769545512 7.8909706829590993 0.68199836817093118 0 0.7313536940579346 1.8283842351448365 0 -1.7049959204273279 1 I I #
point $-1 70.577917675857393 -13.785868769545512 12.255237278858218 #
plane-surface $-1 0 0 20.267994469674733 0 0 1 1 0 0 forward_v I I I I #
coedge $-1 $304 $303 $296 $363 forward $198 $-1 #
coedge $-1 $296 $200 $202 $300 reversed $126 $-1 #
coedge $-1 $200 $295 $294 $363 reversed $126 $-1 #
coedge $-1 $208 $203 $200 $298 forward $209 $-1 #
edge $-1 $301 -14.711911445328852 $364 -10.78243261368705 $297 $365 forward 7 unknown #
coedge $-1 $202 $201 $304 $366 reversed $79 $-1 #
edge $-1 $367 0 $301 5.1295703544931524 $295 $368 forward 7 unknown #
vertex $-1 $204 $369 #
straight-curve $-1 -71.58430027538661 -9.4969697989361439 20.267994469674733 0 1 0 I I #
coedge $-1 $294 $205 $208 $308 reversed $198 $-1 #
coedge $-1 $205 $294 $299 $366 forward $198 $-1 #
vertex $-1 $206 $370 #
straight-curve $-1 -75.513779107028412 -27.975819919859859 66.332295444381131 0 0 1 I I #
straight-curve $-1 -75.513779107028412 -27.975819919859859 16.970770162264941 -0.76604443648966558 0 -0.64278761758704617 I I #
edge $-1 $364 10.012059275884717 $210 27.975819919859859 $303 $371 forward 7 unknown #
point $-1 -75.513779107028412 -27.975819919859859 20.267994469674733 #
point $-1 -71.58430027538661 -27.975819919859859 20.267994469674733 #
edge $-1 $372 1 $372 0 $213 $-1 forward 7 unknown #
vertex $-1 $214 $373 #
ellipse-curve $-1 -72.075985551608852 -18.993939597872291 16.863864789786618 -0.64278761758704617 0 0.76604443648966558 0.76604443648966558 0 0.64278761758704617 1 I I #
point $-1 -72.782995254717846 -18.993939597872291 19.262169933556883 #
plane-surface $-1 75.513779107028412 0 0 -1 0 0 0 0 1 forward_v I I I I #
coedge $-1 $222 $220 $224 $320 reversed $141 $-1 #
edge $-1 $235 -20.267994469674733 $322 20.267994469674733 $234 $374 forward 7 unknown #
vertex $-1 $320 $375 #
straight-curve $-1 -75.513779107028412 -43.485354189469298 0 0 0 -1 I I #
edge $-1 $318 -43.485354189469298 $322 43.485354189469298 $316 $376 forward 7 unknown #
straight-curve $-1 0 -43.485354189469298 -20.267994469674733 -1 0 0 I I #
vertex $-1 $227 $377 #
straight-curve $-1 0 43.485354189469298 -20.267994469674733 1 0 0 I I #
point $-1 75.513779107028412 43.485354189469298 -20.267994469674733 #
point $-1 75.513779107028412 -43.485354189469298 -20.267994469674733 #
straight-curve $-1 -75.513779107028412 0 20.267994469674733 0 -1 0 I I #
point $-1 -75.513779107028412 43.485354189469298 20.267994469674733 #
point $-1 -75.513779107028412 -43.485354189469298 20.267994469674733 #
straight-curve $-1 75.513779107028412 -43.485354189469298 0 0 0 -1 I I #
straight-curve $-1 75.513779107028412 43.485354189469298 0 0 0 -1 I I #
plane-surface $-1 0 0 20.267994469674733 0 0 1 1 0 0 forward_v I I I I #
coedge $-1 $252 $344 $333 $378 forward $245 $-1 #
coedge $-1 $248 $247 $332 $378 reversed $96 $-1 #
edge $-1 $340 -3.1258372769097349 $338 3.1258372769097349 $247 $379 forward 7 unknown #
coedge $-1 $260 $259 $248 $336 forward $261 $-1 #
edge $-1 $337 -3.1258372769097349 $380 3.1258372769097349 $248 $381 forward 7 unknown #
vertex $-1 $264 $382 #
vertex $-1 $254 $383 #
straight-curve $-1 -60.204227177066102 -58.994888459078737 0 0 0 -1 I I #
vertex $-1 $378 $384 #
straight-curve $-1 -53.952552623246632 -51.240121324274014 -20.267994469674733 0 -1 0 I I #
straight-curve $-1 -60.204227177066102 -51.240121324274014 -20.267994469674733 0 1 0 I I #
point $-1 -53.952552623246632 -43.485354189469291 -20.267994469674733 #
coedge $-1 $332 $257 $260 $346 reversed $245 $-1 #
straight-curve $-1 -53.952552623246632 -43.485354189469298 0 0 0 -1 I I #
edge $-1 $380 -7.7547671348047231 $262 7.7547671348047231 $344 $385 forward 7 unknown #
point $-1 -53.952552623246632 -43.485354189469291 20.267994469674733 #
straight-curve $-1 -60.204227177066102 -51.240121324274014 20.267994469674733 0 -1 0 I I #
coedge $-1 $278 $277 $270 $350 forward $267 $-1 #
edge $-1 $351 90.285796922387092 $354 102.90131946316548 $349 $386 forward 7 unknown #
vertex $-1 $282 $387 #
straight-curve $-1 34.02988237672762 -27.975819919859859 20.267994469674733 1 0 0 I I #
edge $-1 $354 -18.954392862539951 $279 0.91153874790013489 $278 $388 forward 7 unknown #
vertex $-1 $353 $389 #
straight-curve $-1 -34.940783497371825 -27.975819919859859 110.65302017972343 -0.7313536940579346 0 0.68199836817093118 I I #
point $-1 61.985287774396696 -27.975819919859859 20.267994469674733 #
point $-1 75.513779107028412 -8.1098883094197731 7.6524719288963468 #
straight-curve $-1 75.513779107028412 0 20.267994469674733 0 1 0 I I #
vertex $-1 $285 $390 #
point $-1 64.91823869185032 -22.29983945973412 6.1859747625317709 #
vertex $-1 $289 $391 #
point $-1 64.91823869185032 -13.785868769545512 6.1859747625317709 #
edge $-1 $364 46.064300974706399 $367 49.36152528211619 $294 $392 forward 7 unknown #
vertex $-1 $308 $393 #
straight-curve $-1 -86.296211720715462 -10.012059275884717 20.267994469674733 -1 0 0 I I #
edge $-1 $367 0.51508947694857277 $305 18.478850120923717 $304 $394 forward 7 unknown #
vertex $-1 $366 $395 #
straight-curve $-1 -75.513779107028412 -10.012059275884717 16.970770162264941 0.76604443648966558 0 0.64278761758704617 I I #
point $-1 -71.58430027538661 -10.012059275884717 20.267994469674733 #
point $-1 -75.513779107028412 -27.975819919859859 16.970770162264941 #
straight-curve $-1 -75.513779107028412 0 20.267994469674733 0 -1 0 I I #
vertex $-1 $311 $396 #
point $-1 -71.309941115119187 -18.993939597872291 17.506652407373664 #
straight-curve $-1 -75.513779107028412 43.485354189469298 0 0 0 -1 I I #
point $-1 -75.513779107028412 -43.485354189469298 -20.267994469674733 #
straight-curve $-1 -75.513779107028412 0 -20.267994469674733 0 1 0 I I #
point $-1 -75.513779107028412 43.485354189469298 -20.267994469674733 #
edge $-1 $380 -20.267994469674733 $340 20.267994469674733 $332 $397 forward 7 unknown #
straight-curve $-1 -57.078389900156367 -58.994888459078737 -20.267994469674733 -1 0 0 I I #
vertex $-1 $346 $398 #
straight-curve $-1 -57.078389900156367 -58.994888459078737 20.267994469674733 1 0 0 I I #
point $-1 -60.204227177066102 -58.994888459078737 20.267994469674733 #
point $-1 -60.204227177066102 -58.994888459078737 -20.267994469674733 #
point $-1 -53.952552623246632 -58.994888459078737 -20.267994469674733 #
straight-curve $-1 -53.952552623246632 -51.240121324274014 20.267994469674733 0 1 0 I I #
straight-curve $-1 75.513779107028412 -27.975819919859859 110.55379139206183 0 0 -1 I I #
point $-1 75.513779107028412 -27.975819919859859 20.267994469674733 #
straight-curve $-1 75.513779107028398 -9.021427057319908 7.6524719288963539 0 1 0 I I #
point $-1 75.513779107028412 -27.975819919859859 7.6524719288963468 #
point $-1 61.384858536278152 -22.29983945973412 6.0625864478142626 #
point $-1 61.384858536278152 -13.785868769545512 6.0625864478142626 #
straight-curve $-1 -75.513779107028412 -10.012059275884717 66.332295444381131 0 0 -1 I I #
point $-1 -75.513779107028412 -10.012059275884717 20.267994469674733 #
straight-curve $-1 -75.513779107028412 -9.4969697989361439 16.970770162264937 0 -1 0 I I #
point $-1 -75.513779107028412 -10.012059275884717 16.970770162264941 #
point $-1 -71.43319793402182 -18.993939597872291 16.097820353296953 #
straight-curve $-1 -53.952552623246632 -58.994888459078737 0 0 0 -1 I I #
point $-1 -53.952552623246632 -58.994888459078737 20.267994469674733 #
End-of-ACIS-data 