600 0 6 0           
107 GICL ACIS Healer - Source: /gicl/data5/repository/Drexel/CICIRELLO-THESISDATA/Part10014.smdg.feat.sat - 6 0 18 ACIS 6.0.3 Solaris 24 Fri Apr 12 10:28:58 2002 
1 9.999999999999999547e-07 1.000000000000000036e-10 
body $-1 $6 $-1 $-1 #
body $-1 $7 $-1 $-1 #
body $-1 $8 $-1 $-1 #
body $-1 $9 $-1 $-1 #
body $-1 $10 $-1 $-1 #
body $-1 $11 $-1 $-1 #
lump $-1 $-1 $12 $0 #
lump $-1 $-1 $13 $1 #
lump $-1 $-1 $14 $2 #
lump $-1 $-1 $15 $3 #
lump $-1 $-1 $16 $4 #
lump $-1 $-1 $17 $5 #
shell $-1 $-1 $-1 $18 $-1 $6 #
shell $-1 $-1 $-1 $19 $-1 $7 #
shell $-1 $-1 $-1 $20 $-1 $8 #
shell $-1 $-1 $-1 $21 $-1 $9 #
shell $-1 $-1 $-1 $22 $-1 $10 #
shell $-1 $-1 $-1 $23 $-1 $11 #
face $-1 $24 $25 $12 $-1 $26 forward single #
face $-1 $27 $28 $13 $-1 $29 forward single #
face $-1 $30 $31 $14 $-1 $32 forward single #
face $-1 $33 $34 $15 $-1 $35 forward single #
face $-1 $36 $37 $16 $-1 $38 forward single #
face $-1 $39 $40 $17 $-1 $41 forward single #
face $-1 $42 $43 $12 $-1 $44 reversed single #
loop $-1 $-1 $45 $18 #
plane-surface $-1 50.23468733787041884 24.32841669655238093 13.01544678153518042 0 0 1 1 0 0 forward_v I I I I #
face $-1 $46 $47 $13 $-1 $48 reversed single #
loop $-1 $-1 $49 $19 #
plane-surface $-1 3.456507304562721039 -2.781058222948258773 13.01544678153518042 0 0 1 1 0 0 forward_v I I I I #
face $-1 $50 $51 $14 $-1 $52 reversed single #
loop $-1 $-1 $53 $20 #
plane-surface $-1 3.456507304562721039 51.4378916160530224 13.01544678153518042 0 0 1 1 0 0 forward_v I I I I #
face $-1 $54 $55 $15 $-1 $56 reversed single #
loop $-1 $-1 $57 $21 #
plane-surface $-1 167.7815413744849025 9.597956202678931348 222.1517608948172438 0.6946583786197038091 0 0.7193397924579483238 0.7193397924579483238 0 -0.6946583786197038091 forward_v I I I I #
face $-1 $58 $59 $16 $-1 $60 forward single #
loop $-1 $61 $62 $22 #
cone-surface $-1 97.07908104125753823 7.868310592629325306 9.692692006463415666 -0.6946583786197038091 0 -0.7193397924579483238 0.7193397924579483238 0 -0.6946583786197038091 1 I I 0 1 1 forward I I I I #
face $-1 $63 $64 $17 $-1 $65 forward single #
loop $-1 $66 $67 $23 #
cone-surface $-1 97.07908104125753823 11.3276018127285365 9.692692006463415666 -0.6946583786197038091 0 -0.7193397924579483238 0.7193397924579483238 0 -0.6946583786197038091 1 I I 0 1 1 forward I I I I #
face $-1 $68 $69 $12 $-1 $70 reversed single #
loop $-1 $-1 $71 $24 #
plane-surface $-1 50.23468733787041884 24.32841669655238093 0 0 0 1 1 0 0 forward_v I I I I #
coedge $-1 $72 $73 $74 $75 forward $25 $-1 #
face $-1 $76 $77 $13 $-1 $78 reversed single #
loop $-1 $-1 $79 $27 #
plane-surface $-1 3.456507304562721039 -2.781058222948258773 0 0 0 1 1 0 0 forward_v I I I I #
coedge $-1 $80 $81 $82 $83 forward $28 $-1 #
face $-1 $84 $85 $14 $-1 $86 reversed single #
loop $-1 $-1 $87 $30 #
plane-surface $-1 3.456507304562721039 51.4378916160530224 0 0 0 1 1 0 0 forward_v I I I I #
coedge $-1 $88 $89 $90 $91 forward $31 $-1 #
face $-1 $92 $93 $15 $-1 $94 reversed single #
loop $-1 $-1 $95 $33 #
plane-surface $-1 28.19775554811357665 9.597956202678931348 77.60852263956270747 0.6946583786197038091 0 0.7193397924579483238 0.7193397924579483238 0 -0.6946583786197038091 forward_v I I I I #
coedge $-1 $96 $97 $98 $99 forward $34 $-1 #
face $-1 $-1 $100 $16 $-1 $101 forward single #
loop $-1 $-1 $102 $36 #
plane-surface $-1 97.77760840861890301 7.868310592629325306 10.4160382539561116 0.6946583786197038091 0 0.7193397924579483238 -0.7193397924579483238 0 0.6946583786197038091 forward_v I I I I #
loop $-1 $-1 $103 $22 #
coedge $-1 $62 $62 $102 $104 reversed $37 $-1 #
face $-1 $-1 $105 $17 $-1 $106 forward single #
loop $-1 $-1 $107 $39 #
plane-surface $-1 97.77760840861890301 11.3276018127285365 10.4160382539561116 0.6946583786197038091 0 0.7193397924579483238 -0.7193397924579483238 0 0.6946583786197038091 forward_v I I I I #
loop $-1 $-1 $108 $23 #
coedge $-1 $67 $67 $107 $109 reversed $40 $-1 #
face $-1 $110 $111 $12 $-1 $112 reversed single #
loop $-1 $-1 $113 $42 #
plane-surface $-1 50.23468733787041884 0 6.50772339076759021 0 1 0 0 0 1 forward_v I I I I #
coedge $-1 $114 $115 $116 $117 forward $43 $-1 #
coedge $-1 $118 $45 $119 $120 forward $25 $-1 #
coedge $-1 $45 $118 $121 $122 forward $25 $-1 #
coedge $-1 $123 $124 $45 $75 reversed $125 $-1 #
edge $-1 $126 -24.32841669655238093 $127 24.32841669655238093 $74 $128 forward 7 unknown #
face $-1 $129 $130 $13 $-1 $131 reversed single #
loop $-1 $-1 $132 $46 #
plane-surface $-1 3.456507304562721039 -5.562116445896517547 6.50772339076759021 0 1 0 0 0 1 forward_v I I I I #
coedge $-1 $133 $134 $135 $136 forward $47 $-1 #
coedge $-1 $137 $49 $138 $139 forward $28 $-1 #
coedge $-1 $49 $137 $140 $141 forward $28 $-1 #
coedge $-1 $142 $143 $49 $83 reversed $144 $-1 #
edge $-1 $145 -2.781058222948258773 $146 2.781058222948258773 $82 $147 forward 7 unknown #
face $-1 $148 $149 $14 $-1 $150 reversed single #
loop $-1 $-1 $151 $50 #
plane-surface $-1 3.456507304562721039 48.65683339310476185 6.50772339076759021 0 1 0 0 0 1 forward_v I I I I #
coedge $-1 $152 $153 $154 $155 forward $51 $-1 #
coedge $-1 $156 $53 $157 $158 forward $31 $-1 #
coedge $-1 $53 $156 $159 $160 forward $31 $-1 #
coedge $-1 $161 $162 $53 $91 reversed $163 $-1 #
edge $-1 $164 -2.78105822294826055 $165 2.78105822294826055 $90 $166 forward 7 unknown #
face $-1 $167 $168 $15 $-1 $169 reversed single #
loop $-1 $-1 $170 $54 #
plane-surface $-1 97.98964846129923956 5.562116445896517547 149.8801417671899685 0 1 0 0.6946583786197038091 0 0.7193397924579483238 forward_v I I I I #
coedge $-1 $171 $172 $173 $174 forward $55 $-1 #
coedge $-1 $175 $57 $176 $177 forward $34 $-1 #
coedge $-1 $57 $175 $178 $179 forward $34 $-1 #
coedge $-1 $180 $181 $57 $99 reversed $182 $-1 #
edge $-1 $183 -4.035839756782413801 $184 4.035839756782413801 $98 $185 forward 7 unknown #
loop $-1 $186 $187 $58 #
cone-surface $-1 96.033224484586313 7.868310592629325306 8.609675862741745789 -0.6946583786197038091 0 -0.7193397924579483238 0.3596698962289741619 0 -0.3473291893098519045 1 I I -0.7071067811865474617 0.7071067811865474617 0.5 forward I I I I #
coedge $-1 $102 $102 $62 $104 forward $59 $-1 #
coedge $-1 $103 $103 $187 $188 forward $61 $-1 #
edge $-1 $189 0 $189 6.283185307179586232 $102 $190 forward 7 unknown #
loop $-1 $191 $192 $63 #
cone-surface $-1 96.033224484586313 11.3276018127285365 8.609675862741745789 -0.6946583786197038091 0 -0.7193397924579483238 0.3596698962289741619 0 -0.3473291893098519045 1 I I -0.7071067811865474617 0.7071067811865474617 0.5 forward I I I I #
coedge $-1 $107 $107 $67 $109 forward $64 $-1 #
coedge $-1 $108 $108 $192 $193 forward $66 $-1 #
edge $-1 $194 0 $194 6.283185307179586232 $107 $195 forward 7 unknown #
face $-1 $196 $197 $12 $-1 $198 reversed single #
loop $-1 $-1 $199 $68 #
plane-surface $-1 0 24.32841669655238093 6.50772339076759021 1 0 0 0 0 -1 forward_v I I I I #
coedge $-1 $200 $121 $201 $202 forward $69 $-1 #
coedge $-1 $203 $71 $200 $204 forward $43 $-1 #
coedge $-1 $71 $203 $205 $206 forward $43 $-1 #
coedge $-1 $124 $123 $71 $117 reversed $125 $-1 #
edge $-1 $207 -24.32841669655238093 $208 24.32841669655238093 $116 $209 forward 7 unknown #
coedge $-1 $73 $72 $210 $211 forward $25 $-1 #
coedge $-1 $212 $213 $72 $120 reversed $197 $-1 #
edge $-1 $127 -50.23468733787041884 $214 50.23468733787041884 $119 $215 forward 7 unknown #
coedge $-1 $113 $216 $73 $122 reversed $69 $-1 #
edge $-1 $217 -50.23468733787041884 $126 50.23468733787041884 $121 $218 forward 7 unknown #
coedge $-1 $116 $74 $216 $219 forward $125 $-1 #
coedge $-1 $74 $116 $212 $220 reversed $125 $-1 #
loop $-1 $-1 $123 $196 #
vertex $-1 $75 $221 #
vertex $-1 $75 $222 #
straight-curve $-1 100.4693746757408377 24.32841669655238093 13.01544678153518042 0 1 0 I I #
face $-1 $223 $224 $13 $-1 $225 reversed single #
loop $-1 $-1 $226 $76 #
plane-surface $-1 1.956507304562721039 -2.781058222948258773 6.50772339076759021 1 0 0 0 0 -1 forward_v I I I I #
coedge $-1 $227 $140 $228 $229 forward $77 $-1 #
coedge $-1 $230 $79 $227 $231 forward $47 $-1 #
coedge $-1 $79 $230 $232 $233 forward $47 $-1 #
coedge $-1 $143 $142 $79 $136 reversed $144 $-1 #
edge $-1 $234 -2.781058222948258773 $235 2.781058222948258773 $135 $236 forward 7 unknown #
coedge $-1 $81 $80 $237 $238 forward $28 $-1 #
coedge $-1 $239 $240 $80 $139 reversed $224 $-1 #
edge $-1 $146 -1.5 $241 1.5 $138 $242 forward 7 unknown #
coedge $-1 $132 $243 $81 $141 reversed $77 $-1 #
edge $-1 $244 -1.5 $145 1.5 $140 $245 forward 7 unknown #
coedge $-1 $135 $82 $243 $246 forward $144 $-1 #
coedge $-1 $82 $135 $239 $247 reversed $144 $-1 #
loop $-1 $-1 $142 $223 #
vertex $-1 $83 $248 #
vertex $-1 $83 $249 #
straight-curve $-1 4.956507304562721039 -2.781058222948258773 13.01544678153518042 0 1 0 I I #
face $-1 $250 $251 $14 $-1 $252 reversed single #
loop $-1 $-1 $253 $84 #
plane-surface $-1 1.956507304562721039 51.4378916160530224 6.50772339076759021 1 0 0 0 0 -1 forward_v I I I I #
coedge $-1 $254 $159 $255 $256 forward $85 $-1 #
coedge $-1 $257 $87 $254 $258 forward $51 $-1 #
coedge $-1 $87 $257 $259 $260 forward $51 $-1 #
coedge $-1 $162 $161 $87 $155 reversed $163 $-1 #
edge $-1 $261 -2.78105822294826055 $262 2.78105822294826055 $154 $263 forward 7 unknown #
coedge $-1 $89 $88 $264 $265 forward $31 $-1 #
coedge $-1 $266 $267 $88 $158 reversed $251 $-1 #
edge $-1 $165 -1.5 $268 1.5 $157 $269 forward 7 unknown #
coedge $-1 $151 $270 $89 $160 reversed $85 $-1 #
edge $-1 $271 -1.5 $164 1.5 $159 $272 forward 7 unknown #
coedge $-1 $154 $90 $270 $273 forward $163 $-1 #
coedge $-1 $90 $154 $266 $274 reversed $163 $-1 #
loop $-1 $-1 $161 $250 #
vertex $-1 $91 $275 #
vertex $-1 $91 $276 #
straight-curve $-1 4.956507304562721039 51.4378916160530224 13.01544678153518042 0 1 0 I I #
face $-1 $277 $278 $15 $-1 $279 reversed single #
loop $-1 $-1 $280 $92 #
plane-surface $-1 -46.55358979395528252 9.597956202678931348 289.4639275935612659 0.7193397924579483238 0 -0.6946583786197038091 -0.6946583786197038091 0 -0.7193397924579483238 forward_v I I I I #
coedge $-1 $281 $178 $282 $283 forward $93 $-1 #
coedge $-1 $284 $95 $281 $285 forward $55 $-1 #
coedge $-1 $95 $284 $286 $287 forward $55 $-1 #
coedge $-1 $181 $180 $95 $174 reversed $182 $-1 #
edge $-1 $288 -4.035839756782413801 $289 4.035839756782413801 $173 $290 forward 7 unknown #
coedge $-1 $97 $96 $291 $292 forward $34 $-1 #
coedge $-1 $293 $294 $96 $177 reversed $278 $-1 #
edge $-1 $184 -200.938749351481647 $295 200.938749351481647 $176 $296 forward 7 unknown #
coedge $-1 $170 $297 $97 $179 reversed $93 $-1 #
edge $-1 $298 -200.938749351481647 $183 200.938749351481647 $178 $299 forward 7 unknown #
coedge $-1 $173 $98 $297 $300 forward $182 $-1 #
coedge $-1 $98 $173 $293 $301 reversed $182 $-1 #
loop $-1 $-1 $180 $277 #
vertex $-1 $99 $302 #
vertex $-1 $99 $303 #
straight-curve $-1 312.3247796297393961 9.597956202678931348 82.56797506844590373 0 1 0 I I #
loop $-1 $-1 $304 $58 #
coedge $-1 $187 $187 $103 $188 reversed $100 $-1 #
edge $-1 $305 0 $305 6.283185307179586232 $187 $306 forward 7 unknown #
vertex $-1 $104 $307 #
ellipse-curve $-1 97.77760840861890301 7.868310592629325306 10.4160382539561116 0.6946583786197038091 0 0.7193397924579483238 0.7193397924579483238 0 -0.6946583786197038091 1 I I #
loop $-1 $-1 $308 $63 #
coedge $-1 $192 $192 $108 $193 reversed $105 $-1 #
edge $-1 $309 0 $309 6.283185307179586232 $192 $310 forward 7 unknown #
vertex $-1 $109 $311 #
ellipse-curve $-1 97.77760840861890301 11.3276018127285365 10.4160382539561116 0.6946583786197038091 0 0.7193397924579483238 0.7193397924579483238 0 -0.6946583786197038091 1 I I #
face $-1 $-1 $125 $12 $-1 $312 reversed single #
loop $-1 $-1 $212 $110 #
plane-surface $-1 50.23468733787041884 48.65683339310476185 6.50772339076759021 0 -1 0 0 0 -1 forward_v I I I I #
coedge $-1 $313 $210 $213 $314 forward $111 $-1 #
coedge $-1 $216 $113 $114 $204 reversed $69 $-1 #
coedge $-1 $210 $313 $113 $202 reversed $111 $-1 #
edge $-1 $217 -6.50772339076759021 $315 6.50772339076759021 $201 $316 forward 7 unknown #
coedge $-1 $115 $114 $313 $317 forward $43 $-1 #
edge $-1 $208 -50.23468733787041884 $315 50.23468733787041884 $200 $318 forward 7 unknown #
coedge $-1 $213 $212 $115 $206 reversed $197 $-1 #
edge $-1 $319 -50.23468733787041884 $207 50.23468733787041884 $205 $320 forward 7 unknown #
vertex $-1 $117 $321 #
vertex $-1 $219 $322 #
straight-curve $-1 100.4693746757408377 24.32841669655238093 0 0 -1 0 I I #
coedge $-1 $199 $201 $118 $211 reversed $111 $-1 #
edge $-1 $214 -24.32841669655238093 $217 24.32841669655238093 $210 $323 forward 7 unknown #
coedge $-1 $205 $119 $124 $220 forward $197 $-1 #
coedge $-1 $119 $205 $199 $314 reversed $197 $-1 #
vertex $-1 $120 $324 #
straight-curve $-1 50.23468733787041884 48.65683339310476185 13.01544678153518042 -1 0 0 I I #
coedge $-1 $121 $200 $123 $219 reversed $69 $-1 #
vertex $-1 $211 $325 #
straight-curve $-1 50.23468733787041884 0 13.01544678153518042 1 0 0 I I #
edge $-1 $126 -6.50772339076759021 $208 6.50772339076759021 $123 $326 forward 7 unknown #
edge $-1 $127 -6.50772339076759021 $207 6.50772339076759021 $124 $327 forward 7 unknown #
point $-1 100.4693746757408377 0 13.01544678153518042 #
point $-1 100.4693746757408377 48.65683339310476185 13.01544678153518042 #
face $-1 $-1 $144 $13 $-1 $328 reversed single #
loop $-1 $-1 $239 $129 #
plane-surface $-1 3.456507304562721039 0 6.50772339076759021 0 -1 0 0 0 -1 forward_v I I I I #
coedge $-1 $329 $237 $240 $330 forward $130 $-1 #
coedge $-1 $243 $132 $133 $231 reversed $77 $-1 #
coedge $-1 $237 $329 $132 $229 reversed $130 $-1 #
edge $-1 $244 -6.50772339076759021 $331 6.50772339076759021 $228 $332 forward 7 unknown #
coedge $-1 $134 $133 $329 $333 forward $47 $-1 #
edge $-1 $235 -1.5 $331 1.5 $227 $334 forward 7 unknown #
coedge $-1 $240 $239 $134 $233 reversed $224 $-1 #
edge $-1 $335 -1.5 $234 1.5 $232 $336 forward 7 unknown #
vertex $-1 $136 $337 #
vertex $-1 $246 $338 #
straight-curve $-1 4.956507304562721039 -2.781058222948258773 0 0 -1 0 I I #
coedge $-1 $226 $228 $137 $238 reversed $130 $-1 #
edge $-1 $241 -2.781058222948258773 $244 2.781058222948258773 $237 $339 forward 7 unknown #
coedge $-1 $232 $138 $143 $247 forward $224 $-1 #
coedge $-1 $138 $232 $226 $330 reversed $224 $-1 #
vertex $-1 $139 $340 #
straight-curve $-1 3.456507304562721039 0 13.01544678153518042 -1 0 0 I I #
coedge $-1 $140 $227 $142 $246 reversed $77 $-1 #
vertex $-1 $238 $341 #
straight-curve $-1 3.456507304562721039 -5.562116445896517547 13.01544678153518042 1 0 0 I I #
edge $-1 $145 -6.50772339076759021 $235 6.50772339076759021 $142 $342 forward 7 unknown #
edge $-1 $146 -6.50772339076759021 $234 6.50772339076759021 $143 $343 forward 7 unknown #
point $-1 4.956507304562721039 -5.562116445896517547 13.01544678153518042 #
point $-1 4.956507304562721039 0 13.01544678153518042 #
face $-1 $-1 $163 $14 $-1 $344 reversed single #
loop $-1 $-1 $266 $148 #
plane-surface $-1 3.456507304562721039 54.21894983900128295 6.50772339076759021 0 -1 0 0 0 -1 forward_v I I I I #
coedge $-1 $345 $264 $267 $346 forward $149 $-1 #
coedge $-1 $270 $151 $152 $258 reversed $85 $-1 #
coedge $-1 $264 $345 $151 $256 reversed $149 $-1 #
edge $-1 $271 -6.50772339076759021 $347 6.50772339076759021 $255 $348 forward 7 unknown #
coedge $-1 $153 $152 $345 $349 forward $51 $-1 #
edge $-1 $262 -1.5 $347 1.5 $254 $350 forward 7 unknown #
coedge $-1 $267 $266 $153 $260 reversed $251 $-1 #
edge $-1 $351 -1.5 $261 1.5 $259 $352 forward 7 unknown #
vertex $-1 $155 $353 #
vertex $-1 $273 $354 #
straight-curve $-1 4.956507304562721039 51.4378916160530224 0 0 -1 0 I I #
coedge $-1 $253 $255 $156 $265 reversed $149 $-1 #
edge $-1 $268 -2.78105822294826055 $271 2.78105822294826055 $264 $355 forward 7 unknown #
coedge $-1 $259 $157 $162 $274 forward $251 $-1 #
coedge $-1 $157 $259 $253 $346 reversed $251 $-1 #
vertex $-1 $158 $356 #
straight-curve $-1 3.456507304562721039 54.21894983900128295 13.01544678153518042 -1 0 0 I I #
coedge $-1 $159 $254 $161 $273 reversed $85 $-1 #
vertex $-1 $265 $357 #
straight-curve $-1 3.456507304562721039 48.65683339310476185 13.01544678153518042 1 0 0 I I #
edge $-1 $164 -6.50772339076759021 $262 6.50772339076759021 $161 $358 forward 7 unknown #
edge $-1 $165 -6.50772339076759021 $261 6.50772339076759021 $162 $359 forward 7 unknown #
point $-1 4.956507304562721039 48.65683339310476185 13.01544678153518042 #
point $-1 4.956507304562721039 54.21894983900128295 13.01544678153518042 #
face $-1 $-1 $182 $15 $-1 $360 reversed single #
loop $-1 $-1 $293 $167 #
plane-surface $-1 97.98964846129923956 13.63379595946134515 149.8801417671899685 0 -1 0 -0.6946583786197038091 0 -0.7193397924579483238 forward_v I I I I #
coedge $-1 $361 $291 $294 $362 forward $168 $-1 #
coedge $-1 $297 $170 $171 $285 reversed $93 $-1 #
coedge $-1 $291 $361 $170 $283 reversed $168 $-1 #
edge $-1 $298 -100.4693746757408377 $363 100.4693746757407951 $282 $364 forward 7 unknown #
coedge $-1 $172 $171 $361 $365 forward $55 $-1 #
edge $-1 $289 -200.938749351481647 $363 200.938749351481647 $281 $366 forward 7 unknown #
coedge $-1 $294 $293 $172 $287 reversed $278 $-1 #
edge $-1 $367 -200.938749351481647 $288 200.938749351481647 $286 $368 forward 7 unknown #
vertex $-1 $174 $369 #
vertex $-1 $300 $370 #
straight-curve $-1 172.7409938033680987 9.597956202678931348 -61.97526318680860413 0 -1 0 I I #
coedge $-1 $280 $282 $175 $292 reversed $168 $-1 #
edge $-1 $295 -4.035839756782413801 $298 4.035839756782413801 $291 $371 forward 7 unknown #
coedge $-1 $286 $176 $181 $301 forward $278 $-1 #
coedge $-1 $176 $286 $280 $362 reversed $278 $-1 #
vertex $-1 $177 $372 #
straight-curve $-1 167.7815413744849025 13.63379595946134515 222.1517608948172438 -0.7193397924579483238 0 0.6946583786197038091 I I #
coedge $-1 $178 $281 $180 $300 reversed $93 $-1 #
vertex $-1 $292 $373 #
straight-curve $-1 167.7815413744849025 5.562116445896517547 222.1517608948172438 0.7193397924579483238 0 -0.6946583786197038091 I I #
edge $-1 $183 -100.4693746757407951 $289 100.4693746757408235 $180 $374 forward 7 unknown #
edge $-1 $184 -100.4693746757407951 $288 100.4693746757408235 $181 $375 forward 7 unknown #
point $-1 312.3247796297393961 5.562116445896517547 82.56797506844590373 #
point $-1 312.3247796297393961 13.63379595946134515 82.56797506844590373 #
coedge $-1 $304 $304 $-1 $376 reversed $186 $-1 #
vertex $-1 $188 $377 #
ellipse-curve $-1 96.38055367389615924 7.868310592629325306 8.969345758970719729 0.6946583786197038091 0 0.7193397924579483238 0.7193397924579483238 0 -0.6946583786197038091 1 I I #
point $-1 98.49694820107684734 7.868310592629325306 9.72137987533640846 #
coedge $-1 $308 $308 $-1 $378 reversed $191 $-1 #
vertex $-1 $193 $379 #
ellipse-curve $-1 96.38055367389615924 11.3276018127285365 8.969345758970719729 0.6946583786197038091 0 0.7193397924579483238 0.7193397924579483238 0 -0.6946583786197038091 1 I I #
point $-1 98.49694820107684734 11.3276018127285365 9.72137987533640846 #
plane-surface $-1 100.4693746757408377 24.32841669655238093 6.50772339076759021 -1 0 0 0 0 1 forward_v I I I I #
coedge $-1 $201 $199 $203 $317 reversed $111 $-1 #
edge $-1 $214 -6.50772339076759021 $319 6.50772339076759021 $213 $380 forward 7 unknown #
vertex $-1 $317 $381 #
straight-curve $-1 0 0 6.50772339076759021 0 0 -1 I I #
edge $-1 $315 -24.32841669655238093 $319 24.32841669655238093 $313 $382 forward 7 unknown #
straight-curve $-1 50.23468733787041884 0 0 -1 0 0 I I #
vertex $-1 $206 $383 #
straight-curve $-1 50.23468733787041884 48.65683339310476185 0 1 0 0 I I #
point $-1 100.4693746757408377 48.65683339310476185 0 #
point $-1 100.4693746757408377 0 0 #
straight-curve $-1 0 24.32841669655238093 13.01544678153518042 0 -1 0 I I #
point $-1 0 48.65683339310476185 13.01544678153518042 #
point $-1 0 0 13.01544678153518042 #
straight-curve $-1 100.4693746757408377 0 6.50772339076759021 0 0 -1 I I #
straight-curve $-1 100.4693746757408377 48.65683339310476185 6.50772339076759021 0 0 -1 I I #
plane-surface $-1 4.956507304562721039 -2.781058222948258773 6.50772339076759021 -1 0 0 0 0 1 forward_v I I I I #
coedge $-1 $228 $226 $230 $333 reversed $130 $-1 #
edge $-1 $241 -6.50772339076759021 $335 6.50772339076759021 $240 $384 forward 7 unknown #
vertex $-1 $333 $385 #
straight-curve $-1 1.956507304562721039 -5.562116445896517547 6.50772339076759021 0 0 -1 I I #
edge $-1 $331 -2.781058222948258773 $335 2.781058222948258773 $329 $386 forward 7 unknown #
straight-curve $-1 3.456507304562721039 -5.562116445896517547 0 -1 0 0 I I #
vertex $-1 $233 $387 #
straight-curve $-1 3.456507304562721039 0 0 1 0 0 I I #
point $-1 4.956507304562721039 0 0 #
point $-1 4.956507304562721039 -5.562116445896517547 0 #
straight-curve $-1 1.956507304562721039 -2.781058222948258773 13.01544678153518042 0 -1 0 I I #
point $-1 1.956507304562721039 0 13.01544678153518042 #
point $-1 1.956507304562721039 -5.562116445896517547 13.01544678153518042 #
straight-curve $-1 4.956507304562721039 -5.562116445896517547 6.50772339076759021 0 0 -1 I I #
straight-curve $-1 4.956507304562721039 0 6.50772339076759021 0 0 -1 I I #
plane-surface $-1 4.956507304562721039 51.4378916160530224 6.50772339076759021 -1 0 0 0 0 1 forward_v I I I I #
coedge $-1 $255 $253 $257 $349 reversed $149 $-1 #
edge $-1 $268 -6.50772339076759021 $351 6.50772339076759021 $267 $388 forward 7 unknown #
vertex $-1 $349 $389 #
straight-curve $-1 1.956507304562721039 48.65683339310476185 6.50772339076759021 0 0 -1 I I #
edge $-1 $347 -2.78105822294826055 $351 2.78105822294826055 $345 $390 forward 7 unknown #
straight-curve $-1 3.456507304562721039 48.65683339310476185 0 -1 0 0 I I #
vertex $-1 $260 $391 #
straight-curve $-1 3.456507304562721039 54.21894983900128295 0 1 0 0 I I #
point $-1 4.956507304562721039 54.21894983900128295 0 #
point $-1 4.956507304562721039 48.65683339310476185 0 #
straight-curve $-1 1.956507304562721039 51.4378916160530224 13.01544678153518042 0 -1 0 I I #
point $-1 1.956507304562721039 54.21894983900128295 13.01544678153518042 #
point $-1 1.956507304562721039 48.65683339310476185 13.01544678153518042 #
straight-curve $-1 4.956507304562721039 48.65683339310476185 6.50772339076759021 0 0 -1 I I #
straight-curve $-1 4.956507304562721039 54.21894983900128295 6.50772339076759021 0 0 -1 I I #
plane-surface $-1 242.5328867165537758 9.597956202678931348 10.29635594081864269 -0.7193397924579483238 0 0.6946583786197038091 0.6946583786197038091 0 0.7193397924579483238 forward_v I I I I #
coedge $-1 $282 $280 $284 $365 reversed $168 $-1 #
edge $-1 $295 -100.4693746757408377 $367 100.4693746757407951 $294 $392 forward 7 unknown #
vertex $-1 $365 $393 #
straight-curve $-1 -46.55358979395528252 5.562116445896517547 289.4639275935612659 -0.6946583786197038091 0 -0.7193397924579483238 I I #
edge $-1 $363 -4.035839756782413801 $367 4.035839756782413801 $361 $394 forward 7 unknown #
straight-curve $-1 28.19775554811357665 5.562116445896517547 77.60852263956270747 -0.7193397924579483238 0 0.6946583786197038091 I I #
vertex $-1 $287 $395 #
straight-curve $-1 28.19775554811357665 13.63379595946134515 77.60852263956270747 0.7193397924579483238 0 -0.6946583786197038091 I I #
point $-1 172.7409938033680987 13.63379595946134515 -61.97526318680860413 #
point $-1 172.7409938033680987 5.562116445896517547 -61.97526318680860413 #
straight-curve $-1 23.23830311923038039 9.597956202678931348 361.7355467211885411 0 -1 0 I I #
point $-1 23.23830311923038039 13.63379595946134515 361.7355467211885411 #
point $-1 23.23830311923038039 5.562116445896517547 361.7355467211885411 #
straight-curve $-1 242.5328867165537758 5.562116445896517547 10.29635594081864269 -0.6946583786197038091 0 -0.7193397924579483238 I I #
straight-curve $-1 242.5328867165537758 13.63379595946134515 10.29635594081864269 -0.6946583786197038091 0 -0.7193397924579483238 I I #
edge $-1 $396 1 $396 0 $304 $-1 forward 7 unknown #
point $-1 97.09989346635411778 7.868310592629325306 8.274687380351016586 #
edge $-1 $397 1 $397 0 $308 $-1 forward 7 unknown #
point $-1 97.09989346635411778 11.3276018127285365 8.274687380351016586 #
straight-curve $-1 0 48.65683339310476185 6.50772339076759021 0 0 -1 I I #
point $-1 0 0 0 #
straight-curve $-1 0 24.32841669655238093 0 0 1 0 I I #
point $-1 0 48.65683339310476185 0 #
straight-curve $-1 1.956507304562721039 0 6.50772339076759021 0 0 -1 I I #
point $-1 1.956507304562721039 -5.562116445896517547 0 #
straight-curve $-1 1.956507304562721039 -2.781058222948258773 0 0 1 0 I I #
point $-1 1.956507304562721039 0 0 #
straight-curve $-1 1.956507304562721039 54.21894983900128295 6.50772339076759021 0 0 -1 I I #
point $-1 1.956507304562721039 48.65683339310476185 0 #
straight-curve $-1 1.956507304562721039 51.4378916160530224 0 0 1 0 I I #
point $-1 1.956507304562721039 54.21894983900128295 0 #
straight-curve $-1 -46.55358979395528252 13.63379595946134515 289.4639275935612659 -0.6946583786197038091 0 -0.7193397924579483238 I I #
point $-1 -116.3454827071409312 5.562116445896517547 217.1923084659340475 #
straight-curve $-1 -116.3454827071409312 9.597956202678931348 217.1923084659340475 0 1 0 I I #
point $-1 -116.3454827071409312 13.63379595946134515 217.1923084659340475 #
vertex $-1 $376 $398 #
vertex $-1 $378 $399 #
point $-1 95.68589529527646675 7.868310592629325306 8.250005966512771849 #
point $-1 95.68589529527646675 11.3276018127285365 8.250005966512771849 #
End-of-ACIS-data 