500 0 7 0           
7 Unknown 11 ACIS 5.0 NT 24 Thu Mar 25 21:14:05 1999 
-1 9.9999999999999995e-007 1e-010 
body $-1 $7 $-1 $8 #
body $-1 $9 $-1 $10 #
body $-1 $11 $-1 $12 #
body $-1 $13 $-1 $14 #
body $-1 $15 $-1 $16 #
body $-1 $17 $-1 $18 #
body $-1 $19 $-1 $20 #
lump $-1 $-1 $21 $0 #
transform $-1 1 0 0 0 1 0 0 0 1 50.909756767479479 32.602939480579323 12.164288357793589 1 rotate no_reflect no_shear #
lump $-1 $-1 $22 $1 #
transform $-1 1 0 0 0 1 0 0 0 1 50.909756767479479 32.602939480579323 12.164288357793589 1 rotate no_reflect no_shear #
lump $-1 $-1 $23 $2 #
transform $-1 1 0 0 0 1 0 0 0 1 50.909756767479479 32.602939480579323 12.164288357793589 1 rotate no_reflect no_shear #
lump $-1 $-1 $24 $3 #
transform $-1 1 0 0 0 1 0 0 0 1 50.909756767479479 32.602939480579323 12.164288357793589 1 rotate no_reflect no_shear #
lump $-1 $-1 $25 $4 #
transform $-1 1 0 0 0 1 0 0 0 1 50.909756767479479 32.602939480579323 12.164288357793589 1 rotate no_reflect no_shear #
lump $-1 $-1 $26 $5 #
transform $-1 1 0 0 0 1 0 0 0 1 50.909756767479479 32.602939480579323 12.164288357793589 1 rotate no_reflect no_shear #
lump $-1 $-1 $27 $6 #
transform $-1 1 0 0 0 1 0 0 0 1 50.909756767479479 32.602939480579323 12.164288357793589 1 rotate no_reflect no_shear #
shell $-1 $-1 $-1 $28 $-1 $7 #
shell $-1 $-1 $-1 $29 $-1 $9 #
shell $-1 $-1 $-1 $30 $-1 $11 #
shell $-1 $-1 $-1 $31 $-1 $13 #
shell $-1 $-1 $-1 $32 $-1 $15 #
shell $-1 $-1 $-1 $33 $-1 $17 #
shell $-1 $-1 $-1 $34 $-1 $19 #
face $-1 $35 $36 $21 $-1 $37 forward single #
face $-1 $38 $39 $22 $-1 $40 forward single #
face $-1 $41 $42 $23 $-1 $43 forward single #
face $-1 $44 $45 $24 $-1 $46 reversed single #
face $-1 $47 $48 $25 $-1 $49 forward single #
face $-1 $50 $51 $26 $-1 $52 reversed single #
face $-1 $53 $54 $27 $-1 $55 forward single #
face $-1 $56 $57 $21 $-1 $58 reversed single #
loop $-1 $-1 $59 $28 #
plane-surface $-1 0 0 12.164288357793589 0 0 1 1 0 0 forward_v I I I I #
face $-1 $60 $61 $22 $-1 $62 reversed single #
loop $-1 $-1 $63 $29 #
plane-surface $-1 -50.909756767479479 0 0 1 0 0 0 0 -1 forward_v I I I I #
face $-1 $64 $65 $23 $-1 $66 forward single #
loop $-1 $-1 $67 $30 #
plane-surface $-1 50.909756767479479 0 0 -1 0 0 0 0 1 forward_v I I I I #
face $-1 $68 $69 $24 $-1 $70 reversed single #
loop $-1 $-1 $71 $31 #
plane-surface $-1 7.7390014896596142 -98.051262009587589 86.297788365328699 -1 0 0 0 -0.64278761758704617 0.76604443648966558 forward_v I I I I #
face $-1 $72 $73 $25 $-1 $74 forward single #
loop $-1 $75 $76 $32 #
cone-surface $-1 -2.7372483226116771 -29.121839055080741 8.8278110296194576 0 0.64278761758704617 -0.76604443648966558 1 0 0 1 I I 0 1 1 forward I I I I #
face $-1 $77 $78 $26 $-1 $79 reversed single #
loop $-1 $-1 $80 $33 #
plane-surface $-1 -13.213498134882968 48.100661204973463 128.21131995544116 1 0 0 0 -0.64278761758704617 -0.76604443648966558 forward_v I I I I #
face $-1 $81 $82 $27 $-1 $83 forward single #
loop $-1 $84 $85 $34 #
cone-surface $-1 -2.7372483226116771 29.121839055080734 8.8278110296194541 0 -0.64278761758704617 -0.76604443648966558 1 0 0 1 I I 0 1 1 forward I I I I #
face $-1 $86 $87 $21 $-1 $88 reversed single #
loop $-1 $-1 $89 $35 #
plane-surface $-1 0 0 -12.164288357793589 0 0 1 1 0 0 forward_v I I I I #
coedge $-1 $90 $91 $92 $93 forward $36 $-1 #
face $-1 $94 $95 $22 $-1 $96 reversed single #
loop $-1 $-1 $97 $38 #
plane-surface $-1 0 32.602939480579323 0 0 -1 0 0 0 -1 forward_v I I I I #
coedge $-1 $98 $99 $100 $101 forward $39 $-1 #
face $-1 $102 $103 $23 $-1 $104 reversed single #
loop $-1 $-1 $105 $41 #
plane-surface $-1 0 0 12.164288357793589 0 0 1 1 0 0 forward_v I I I I #
coedge $-1 $106 $107 $108 $109 forward $42 $-1 #
face $-1 $110 $111 $24 $-1 $112 reversed single #
loop $-1 $-1 $113 $44 #
plane-surface $-1 -2.7372483226116771 -32.602939480579323 8.2995164957891916 0 -0.64278761758704617 0.76604443648966558 1 0 0 forward_v I I I I #
coedge $-1 $114 $115 $116 $117 reversed $45 $-1 #
face $-1 $-1 $118 $25 $-1 $119 forward single #
loop $-1 $120 $121 $47 #
cone-surface $-1 -2.7372483226116771 -27.622272648104278 7.0406974142026915 0 0.64278761758704617 -0.76604443648966558 0.5 0 0 1 I I -0.70710678118654746 0.70710678118654746 0.5 forward I I I I #
loop $-1 $-1 $122 $32 #
coedge $-1 $76 $76 $123 $124 reversed $48 $-1 #
face $-1 $125 $126 $26 $-1 $127 reversed single #
loop $-1 $-1 $128 $50 #
plane-surface $-1 -2.7372483226116771 -17.347661324034803 50.213048085901647 0 0.64278761758704617 0.76604443648966558 1 0 0 forward_v I I I I #
coedge $-1 $129 $130 $131 $132 reversed $51 $-1 #
face $-1 $-1 $133 $27 $-1 $134 forward single #
loop $-1 $135 $136 $53 #
cone-surface $-1 -2.7372483226116771 27.622272648104271 7.0406974142026879 0 -0.64278761758704617 -0.76604443648966558 0.5 0 0 1 I I -0.70710678118654746 0.70710678118654746 0.5 forward I I I I #
loop $-1 $-1 $137 $34 #
coedge $-1 $85 $85 $138 $139 reversed $54 $-1 #
face $-1 $140 $141 $21 $-1 $142 reversed single #
loop $-1 $-1 $143 $56 #
plane-surface $-1 0 -32.602939480579323 0 0 1 0 0 0 1 forward_v I I I I #
coedge $-1 $144 $145 $146 $147 forward $57 $-1 #
coedge $-1 $148 $59 $149 $150 forward $36 $-1 #
coedge $-1 $59 $148 $151 $152 forward $36 $-1 #
coedge $-1 $153 $154 $59 $93 reversed $155 $-1 #
edge $-1 $156 -32.602939480579323 $157 32.602939480579323 $92 $158 forward 7 unknown #
face $-1 $159 $160 $22 $-1 $161 reversed single #
loop $-1 $-1 $100 $60 #
plane-surface $-1 -57.686646751738657 0 9.1642883577935894 0 0 1 1 0 0 forward_v I I I I #
coedge $-1 $162 $163 $98 $164 forward $61 $-1 #
coedge $-1 $165 $63 $97 $164 reversed $39 $-1 #
coedge $-1 $63 $165 $166 $167 reversed $39 $-1 #
coedge $-1 $168 $169 $63 $101 reversed $95 $-1 #
edge $-1 $170 -32.602939480579323 $171 32.602939480579323 $100 $172 forward 7 unknown #
face $-1 $173 $174 $23 $-1 $175 reversed single #
loop $-1 $-1 $176 $64 #
plane-surface $-1 0 -32.602939480579323 0 0 1 0 0 0 1 forward_v I I I I #
coedge $-1 $177 $178 $179 $180 forward $65 $-1 #
coedge $-1 $179 $67 $176 $181 reversed $42 $-1 #
coedge $-1 $67 $179 $182 $183 reversed $42 $-1 #
coedge $-1 $184 $185 $67 $109 reversed $174 $-1 #
edge $-1 $186 -32.602939480579323 $187 32.602939480579323 $108 $188 forward 7 unknown #
face $-1 $189 $190 $24 $-1 $191 reversed single #
loop $-1 $-1 $192 $68 #
plane-surface $-1 -13.213498134882968 -98.051262009587589 86.297788365328699 1 0 0 0 0.64278761758704617 -0.76604443648966558 forward_v I I I I #
coedge $-1 $193 $194 $195 $196 reversed $69 $-1 #
coedge $-1 $115 $71 $197 $198 reversed $45 $-1 #
coedge $-1 $71 $114 $193 $199 reversed $45 $-1 #
coedge $-1 $195 $200 $71 $117 forward $201 $-1 #
edge $-1 $202 16.422691524214471 $203 21.028547178845766 $116 $204 forward 7 unknown #
loop $-1 $-1 $123 $72 #
plane-surface $-1 -2.7372483226116771 -32.602939480579323 8.2995164957891916 0 -0.64278761758704617 0.76604443648966558 1 0 0 forward_v I I I I #
loop $-1 $-1 $205 $47 #
coedge $-1 $121 $121 $122 $206 reversed $73 $-1 #
coedge $-1 $122 $122 $121 $206 forward $75 $-1 #
coedge $-1 $123 $123 $76 $124 forward $118 $-1 #
edge $-1 $207 -4.3789618652077234e-016 $207 6.2831853071796004 $123 $208 forward 7 unknown #
face $-1 $209 $210 $26 $-1 $211 reversed single #
loop $-1 $-1 $212 $77 #
plane-surface $-1 7.7390014896596142 48.100661204973463 128.21131995544116 -1 0 0 0 0.64278761758704617 0.76604443648966558 forward_v I I I I #
coedge $-1 $213 $214 $215 $216 reversed $78 $-1 #
coedge $-1 $130 $80 $217 $218 reversed $51 $-1 #
coedge $-1 $80 $129 $213 $219 reversed $51 $-1 #
coedge $-1 $215 $220 $80 $132 forward $221 $-1 #
edge $-1 $222 -8.5526088780925917 $223 -3.946753223461279 $131 $224 forward 7 unknown #
loop $-1 $-1 $138 $81 #
plane-surface $-1 -2.7372483226116771 -17.347661324034803 50.213048085901647 0 0.64278761758704617 0.76604443648966558 1 0 0 forward_v I I I I #
loop $-1 $-1 $225 $53 #
coedge $-1 $136 $136 $137 $226 reversed $82 $-1 #
coedge $-1 $137 $137 $136 $226 forward $84 $-1 #
coedge $-1 $138 $138 $85 $139 forward $133 $-1 #
edge $-1 $227 8.7579237304154467e-016 $227 6.2831853071796013 $138 $228 forward 7 unknown #
face $-1 $229 $230 $21 $-1 $231 reversed single #
loop $-1 $-1 $232 $86 #
plane-surface $-1 -50.909756767479479 0 0 1 0 0 0 0 -1 forward_v I I I I #
coedge $-1 $233 $151 $234 $235 forward $87 $-1 #
coedge $-1 $236 $89 $233 $237 forward $57 $-1 #
coedge $-1 $89 $236 $238 $239 forward $57 $-1 #
coedge $-1 $154 $153 $89 $147 reversed $155 $-1 #
edge $-1 $240 -32.602939480579323 $241 32.602939480579323 $146 $242 forward 7 unknown #
coedge $-1 $91 $90 $243 $244 forward $36 $-1 #
coedge $-1 $245 $246 $90 $150 reversed $230 $-1 #
edge $-1 $157 -50.909756767479479 $247 50.909756767479479 $149 $248 forward 7 unknown #
coedge $-1 $143 $249 $91 $152 reversed $87 $-1 #
edge $-1 $250 -50.909756767479479 $156 50.909756767479479 $151 $251 forward 7 unknown #
coedge $-1 $146 $92 $249 $252 forward $155 $-1 #
coedge $-1 $92 $146 $245 $253 reversed $155 $-1 #
loop $-1 $-1 $153 $229 #
vertex $-1 $93 $254 #
vertex $-1 $93 $255 #
straight-curve $-1 50.909756767479479 0 12.164288357793589 0 1 0 I I #
face $-1 $256 $257 $22 $-1 $258 forward single #
loop $-1 $-1 $259 $94 #
plane-surface $-1 -64.463536735997835 0 10.664288357793589 1 0 0 0 0 -1 forward_v I I I I #
coedge $-1 $260 $97 $169 $261 reversed $61 $-1 #
coedge $-1 $97 $260 $262 $263 reversed $61 $-1 #
edge $-1 $264 -12.164288357793589 $171 -9.1642883577935894 $97 $265 forward 7 unknown #
coedge $-1 $99 $98 $266 $267 reversed $39 $-1 #
coedge $-1 $268 $269 $99 $167 forward $270 $-1 #
edge $-1 $170 9.1642883577935894 $271 12.164288357793589 $166 $272 forward 7 unknown #
coedge $-1 $273 $100 $269 $274 forward $95 $-1 #
coedge $-1 $100 $273 $162 $261 forward $95 $-1 #
vertex $-1 $167 $275 #
vertex $-1 $164 $276 #
straight-curve $-1 -50.909756767479479 0 9.1642883577935894 0 1 0 I I #
face $-1 $277 $278 $23 $-1 $279 reversed single #
loop $-1 $-1 $280 $102 #
plane-surface $-1 57.686646751738664 0 9.1642883577935894 0 0 1 1 0 0 forward_v I I I I #
coedge $-1 $281 $282 $106 $181 forward $103 $-1 #
coedge $-1 $283 $105 $282 $284 forward $65 $-1 #
coedge $-1 $105 $283 $285 $286 forward $65 $-1 #
coedge $-1 $107 $106 $105 $180 reversed $42 $-1 #
edge $-1 $287 -32.602939480579323 $288 32.602939480579323 $105 $289 forward 7 unknown #
edge $-1 $288 -12.164288357793589 $187 -9.1642883577935894 $176 $290 forward 7 unknown #
coedge $-1 $285 $291 $107 $183 forward $292 $-1 #
edge $-1 $186 9.1642883577935894 $287 12.164288357793589 $182 $293 forward 7 unknown #
coedge $-1 $280 $108 $291 $294 forward $174 $-1 #
coedge $-1 $108 $280 $281 $295 forward $174 $-1 #
vertex $-1 $183 $296 #
vertex $-1 $181 $297 #
straight-curve $-1 50.909756767479479 0 9.1642883577935894 0 -1 0 I I #
face $-1 $-1 $201 $24 $-1 $298 forward single #
loop $-1 $-1 $299 $110 #
plane-surface $-1 0 -32.602939480579323 0 0 1 0 0 0 1 forward_v I I I I #
coedge $-1 $300 $301 $302 $303 reversed $111 $-1 #
coedge $-1 $304 $113 $115 $199 forward $69 $-1 #
coedge $-1 $113 $304 $300 $305 forward $69 $-1 #
coedge $-1 $302 $116 $113 $196 forward $201 $-1 #
edge $-1 $203 -9.1076256509654527 $306 11.84487397357713 $195 $307 forward 7 unknown #
coedge $-1 $308 $309 $114 $198 forward $190 $-1 #
edge $-1 $310 -34.849377686875158 $202 -30.984605824870762 $197 $311 forward 7 unknown #
edge $-1 $203 -6.0125175972000298 $310 0 $115 $312 forward 7 unknown #
coedge $-1 $116 $302 $308 $313 forward $201 $-1 #
loop $-1 $-1 $302 $189 #
vertex $-1 $198 $314 #
vertex $-1 $117 $315 #
straight-curve $-1 7.7390014896596142 -49.025631004793794 12.164288357793588 0 1 0 I I #
coedge $-1 $205 $205 $-1 $316 reversed $120 $-1 #
edge $-1 $317 0 $317 6.2831853071796004 $121 $318 forward 7 unknown #
vertex $-1 $124 $319 #
ellipse-curve $-1 -2.7372483226116771 -30.300011653263677 10.23190242679139 0 -0.64278761758704617 0.76604443648966558 1 0 0 1 I I #
face $-1 $-1 $221 $26 $-1 $320 forward single #
loop $-1 $-1 $321 $125 #
plane-surface $-1 0 32.602939480579323 0 0 -1 0 0 0 -1 forward_v I I I I #
coedge $-1 $322 $323 $324 $325 reversed $126 $-1 #
coedge $-1 $326 $128 $130 $219 forward $78 $-1 #
coedge $-1 $128 $326 $322 $327 forward $78 $-1 #
coedge $-1 $324 $131 $128 $216 forward $221 $-1 #
edge $-1 $223 -11.84487397357713 $328 9.1076256509654527 $215 $329 forward 7 unknown #
coedge $-1 $330 $331 $129 $218 forward $210 $-1 #
edge $-1 $332 -55.8061434819314 $222 -51.94137161992699 $217 $333 forward 7 unknown #
edge $-1 $223 59.193361363958608 $332 65.205878961158646 $130 $334 forward 7 unknown #
coedge $-1 $131 $324 $330 $335 forward $221 $-1 #
loop $-1 $-1 $324 $209 #
vertex $-1 $218 $336 #
vertex $-1 $132 $337 #
straight-curve $-1 -13.213498134882968 24.050330602486731 12.164288357793588 0 -1 0 I I #
coedge $-1 $225 $225 $-1 $338 reversed $135 $-1 #
edge $-1 $339 0 $339 6.2831853071796004 $136 $340 forward 7 unknown #
vertex $-1 $139 $341 #
ellipse-curve $-1 -2.7372483226116771 30.300011653263667 10.231902426791383 0 0.64278761758704617 0.76604443648966558 1 0 0 1 I I #
face $-1 $-1 $155 $21 $-1 $342 reversed single #
loop $-1 $-1 $245 $140 #
plane-surface $-1 0 32.602939480579323 0 0 -1 0 0 0 -1 forward_v I I I I #
coedge $-1 $343 $243 $246 $344 forward $141 $-1 #
coedge $-1 $249 $143 $144 $237 reversed $87 $-1 #
coedge $-1 $243 $343 $143 $235 reversed $141 $-1 #
edge $-1 $250 -12.164288357793589 $345 12.164288357793589 $234 $346 forward 7 unknown #
coedge $-1 $145 $144 $343 $347 forward $57 $-1 #
edge $-1 $241 -50.909756767479479 $345 50.909756767479479 $233 $348 forward 7 unknown #
coedge $-1 $246 $245 $145 $239 reversed $230 $-1 #
edge $-1 $349 -50.909756767479479 $240 50.909756767479479 $238 $350 forward 7 unknown #
vertex $-1 $147 $351 #
vertex $-1 $252 $352 #
straight-curve $-1 50.909756767479479 0 -12.164288357793589 0 -1 0 I I #
coedge $-1 $232 $234 $148 $244 reversed $141 $-1 #
edge $-1 $247 -32.602939480579323 $250 32.602939480579323 $243 $353 forward 7 unknown #
coedge $-1 $238 $149 $154 $253 forward $230 $-1 #
coedge $-1 $149 $238 $232 $344 reversed $230 $-1 #
vertex $-1 $150 $354 #
straight-curve $-1 0 32.602939480579323 12.164288357793589 -1 0 0 I I #
coedge $-1 $151 $233 $153 $252 reversed $87 $-1 #
vertex $-1 $244 $355 #
straight-curve $-1 0 -32.602939480579323 12.164288357793589 1 0 0 I I #
edge $-1 $156 -12.164288357793589 $241 12.164288357793589 $153 $356 forward 7 unknown #
edge $-1 $157 -12.164288357793589 $240 12.164288357793589 $154 $357 forward 7 unknown #
point $-1 50.909756767479479 -32.602939480579323 12.164288357793589 #
point $-1 50.909756767479479 32.602939480579323 12.164288357793589 #
face $-1 $-1 $270 $22 $-1 $358 reversed single #
loop $-1 $-1 $266 $159 #
plane-surface $-1 0 0 12.164288357793589 0 0 1 1 0 0 forward_v I I I I #
coedge $-1 $359 $360 $260 $361 forward $160 $-1 #
coedge $-1 $163 $162 $259 $361 reversed $61 $-1 #
edge $-1 $362 -6.7768899842591779 $171 6.7768899842591779 $162 $363 forward 7 unknown #
coedge $-1 $364 $266 $163 $263 forward $257 $-1 #
edge $-1 $264 50.909756767479479 $365 64.463536735997835 $163 $366 forward 7 unknown #
vertex $-1 $263 $367 #
straight-curve $-1 -50.909756767479479 32.602939480579323 0 0 0 -1 I I #
coedge $-1 $262 $368 $165 $267 forward $257 $-1 #
edge $-1 $271 -32.602939480579323 $264 32.602939480579323 $266 $369 forward 7 unknown #
coedge $-1 $370 $166 $368 $371 reversed $270 $-1 #
coedge $-1 $166 $370 $168 $274 reversed $270 $-1 #
loop $-1 $-1 $166 $256 #
vertex $-1 $167 $372 #
straight-curve $-1 -50.909756767479479 -32.602939480579323 0 0 0 1 I I #
coedge $-1 $169 $168 $359 $373 forward $95 $-1 #
edge $-1 $170 -6.7768899842591779 $374 6.7768899842591779 $269 $375 forward 7 unknown #
point $-1 -50.909756767479479 -32.602939480579323 9.1642883577935894 #
point $-1 -50.909756767479479 32.602939480579323 9.1642883577935894 #
face $-1 $-1 $292 $23 $-1 $376 reversed single #
loop $-1 $-1 $377 $173 #
plane-surface $-1 64.463536735997849 0 10.664288357793589 -1 0 0 0 0 1 forward_v I I I I #
coedge $-1 $185 $184 $378 $379 forward $174 $-1 #
coedge $-1 $380 $176 $185 $295 reversed $103 $-1 #
coedge $-1 $176 $380 $177 $284 reversed $103 $-1 #
coedge $-1 $178 $177 $381 $382 forward $65 $-1 #
edge $-1 $288 -6.776889984259185 $383 6.776889984259185 $282 $384 forward 7 unknown #
coedge $-1 $385 $182 $178 $286 reversed $292 $-1 #
edge $-1 $386 -64.463536735997849 $287 -50.909756767479479 $285 $387 forward 7 unknown #
vertex $-1 $183 $388 #
vertex $-1 $284 $389 #
straight-curve $-1 50.909756767479479 0 12.164288357793589 0 -1 0 I I #
straight-curve $-1 50.909756767479479 -32.602939480579323 0 0 0 -1 I I #
coedge $-1 $182 $385 $184 $294 reversed $292 $-1 #
loop $-1 $-1 $182 $277 #
straight-curve $-1 50.909756767479479 32.602939480579323 0 0 0 1 I I #
edge $-1 $186 -6.7768899842591779 $390 6.776889984259185 $291 $391 forward 7 unknown #
edge $-1 $392 -6.776889984259185 $187 6.7768899842591779 $281 $393 forward 7 unknown #
point $-1 50.909756767479486 32.602939480579323 9.1642883577935894 #
point $-1 50.909756767479486 -32.602939480579323 9.1642883577935894 #
plane-surface $-1 0 0 12.164288357793589 0 0 1 1 0 0 forward_v I I I I #
coedge $-1 $309 $308 $301 $394 forward $190 $-1 #
coedge $-1 $301 $192 $194 $305 reversed $111 $-1 #
coedge $-1 $192 $300 $299 $394 reversed $111 $-1 #
coedge $-1 $200 $195 $192 $303 forward $201 $-1 #
edge $-1 $306 -21.028547178845766 $395 -16.422691524214471 $302 $396 forward 7 unknown #
coedge $-1 $194 $193 $309 $397 reversed $69 $-1 #
edge $-1 $398 0 $306 6.0125175972000298 $300 $399 forward 7 unknown #
vertex $-1 $196 $400 #
straight-curve $-1 -1.3686241613058385 -27.997083825948025 12.164288357793589 -1 0 0 I I #
coedge $-1 $299 $197 $200 $313 reversed $190 $-1 #
coedge $-1 $197 $299 $304 $397 forward $190 $-1 #
vertex $-1 $198 $401 #
straight-curve $-1 7.7390014896596142 -32.602939480579323 43.14889418266435 0 0 1 I I #
straight-curve $-1 7.7390014896596142 -32.602939480579323 8.2995164957891916 0 -0.76604443648966558 -0.64278761758704617 I I #
edge $-1 $395 -70.900144886621632 $202 -49.94764526207905 $308 $402 forward 7 unknown #
point $-1 7.7390014896596142 -32.602939480579323 12.164288357793589 #
point $-1 7.7390014896596142 -27.997083825948028 12.164288357793589 #
edge $-1 $403 1 $403 0 $205 $-1 forward 7 unknown #
vertex $-1 $206 $404 #
ellipse-curve $-1 -2.7372483226116771 -27.943666456897802 7.4237196324475239 0 -0.64278761758704617 0.76604443648966558 1 0 0 1 I I #
point $-1 -1.7372483226116771 -30.300011653263681 10.231902426791393 #
plane-surface $-1 0 0 12.164288357793589 0 0 1 1 0 0 forward_v I I I I #
coedge $-1 $331 $330 $323 $405 forward $210 $-1 #
coedge $-1 $323 $212 $214 $327 reversed $126 $-1 #
coedge $-1 $212 $322 $321 $405 reversed $126 $-1 #
coedge $-1 $220 $215 $212 $325 forward $221 $-1 #
edge $-1 $328 3.946753223461279 $406 8.5526088780925917 $324 $407 forward 7 unknown #
coedge $-1 $214 $213 $331 $408 reversed $78 $-1 #
edge $-1 $409 -65.205878961158646 $328 -59.193361363958608 $322 $410 forward 7 unknown #
vertex $-1 $216 $411 #
straight-curve $-1 -1.3686241613058385 27.997083825948003 12.164288357793591 1 0 0 I I #
coedge $-1 $321 $217 $220 $335 reversed $210 $-1 #
coedge $-1 $217 $321 $326 $408 forward $210 $-1 #
vertex $-1 $218 $412 #
straight-curve $-1 -13.213498134882968 32.602939480579323 64.105659977720578 0 0 1 I I #
straight-curve $-1 -13.213498134882968 -17.347661324034803 50.213048085901647 0 0.76604443648966558 -0.64278761758704617 I I #
edge $-1 $406 -7.7390014896596142 $222 13.213498134882968 $330 $413 forward 7 unknown #
point $-1 -13.213498134882968 32.602939480579323 12.164288357793589 #
point $-1 -13.213498134882968 27.99708382594801 12.164288357793588 #
edge $-1 $414 1 $414 0 $225 $-1 forward 7 unknown #
vertex $-1 $226 $415 #
ellipse-curve $-1 -2.7372483226116771 27.943666456897795 7.4237196324475203 0 0.64278761758704617 0.76604443648966558 1 0 0 1 I I #
point $-1 -1.7372483226116771 30.300011653263674 10.23190242679139 #
plane-surface $-1 50.909756767479479 0 0 -1 0 0 0 0 1 forward_v I I I I #
coedge $-1 $234 $232 $236 $347 reversed $141 $-1 #
edge $-1 $247 -12.164288357793589 $349 12.164288357793589 $246 $416 forward 7 unknown #
vertex $-1 $347 $417 #
straight-curve $-1 -50.909756767479479 -32.602939480579323 0 0 0 -1 I I #
edge $-1 $345 -32.602939480579323 $349 32.602939480579323 $343 $418 forward 7 unknown #
straight-curve $-1 0 -32.602939480579323 -12.164288357793589 -1 0 0 I I #
vertex $-1 $239 $419 #
straight-curve $-1 0 32.602939480579323 -12.164288357793589 1 0 0 I I #
point $-1 50.909756767479479 32.602939480579323 -12.164288357793589 #
point $-1 50.909756767479479 -32.602939480579323 -12.164288357793589 #
straight-curve $-1 -50.909756767479479 0 12.164288357793589 0 -1 0 I I #
point $-1 -50.909756767479479 32.602939480579323 12.164288357793589 #
point $-1 -50.909756767479479 -32.602939480579323 12.164288357793589 #
straight-curve $-1 50.909756767479479 -32.602939480579323 0 0 0 -1 I I #
straight-curve $-1 50.909756767479479 32.602939480579323 0 0 0 -1 I I #
plane-surface $-1 0 -32.602939480579323 0 0 1 0 0 0 1 forward_v I I I I #
coedge $-1 $420 $259 $273 $373 reversed $160 $-1 #
coedge $-1 $259 $420 $364 $421 reversed $160 $-1 #
edge $-1 $365 -1.5 $362 1.5 $260 $422 forward 7 unknown #
vertex $-1 $261 $423 #
straight-curve $-1 -57.686646751738657 32.602939480579323 9.1642883577935894 1 0 0 I I #
coedge $-1 $368 $262 $360 $421 forward $257 $-1 #
vertex $-1 $263 $424 #
straight-curve $-1 0 32.602939480579323 12.164288357793589 -1 0 0 I I #
point $-1 -50.909756767479479 32.602939480579323 12.164288357793589 #
coedge $-1 $266 $364 $268 $371 forward $257 $-1 #
straight-curve $-1 -50.909756767479479 0 12.164288357793589 0 1 0 I I #
coedge $-1 $269 $268 $420 $425 forward $270 $-1 #
edge $-1 $426 -64.463536735997835 $271 -50.909756767479479 $268 $427 forward 7 unknown #
point $-1 -50.909756767479479 -32.602939480579323 12.164288357793589 #
edge $-1 $374 -32.602939480579323 $362 32.602939480579323 $359 $428 forward 7 unknown #
vertex $-1 $373 $429 #
straight-curve $-1 -57.686646751738657 -32.602939480579323 9.1642883577935894 -1 0 0 I I #
plane-surface $-1 0 32.602939480579323 0 0 -1 0 0 0 -1 forward_v I I I I #
coedge $-1 $378 $381 $380 $430 forward $278 $-1 #
coedge $-1 $431 $377 $280 $379 reversed $278 $-1 #
edge $-1 $390 -32.602939480579323 $392 32.602939480579323 $378 $432 forward 7 unknown #
coedge $-1 $282 $281 $377 $430 reversed $103 $-1 #
coedge $-1 $377 $431 $283 $382 reversed $278 $-1 #
edge $-1 $383 -32.602939480579323 $386 32.602939480579323 $381 $433 forward 7 unknown #
vertex $-1 $382 $434 #
straight-curve $-1 57.686646751738664 -32.602939480579323 12.164288357793589 1 0 0 I I #
coedge $-1 $291 $285 $431 $435 forward $292 $-1 #
vertex $-1 $382 $436 #
straight-curve $-1 0 32.602939480579323 12.164288357793589 -1 0 0 I I #
point $-1 50.909756767479479 32.602939480579323 12.164288357793589 #
point $-1 50.909756767479479 -32.602939480579323 12.164288357793589 #
vertex $-1 $379 $437 #
straight-curve $-1 57.686646751738664 32.602939480579323 9.1642883577935894 1 0 0 I I #
vertex $-1 $430 $438 #
straight-curve $-1 57.686646751738664 -32.602939480579323 9.1642883577935894 -1 0 0 I I #
edge $-1 $395 30.984605824870762 $398 34.849377686875158 $299 $439 forward 7 unknown #
vertex $-1 $313 $440 #
straight-curve $-1 -13.213498134882968 -49.025631004793794 12.164288357793588 0 -1 0 I I #
edge $-1 $398 -11.84487397357713 $310 9.1076256509654527 $309 $441 forward 7 unknown #
vertex $-1 $397 $442 #
straight-curve $-1 -13.213498134882968 -32.602939480579323 8.2995164957891916 0 0.76604443648966558 0.64278761758704617 I I #
point $-1 -13.213498134882968 -27.997083825948028 12.164288357793589 #
point $-1 7.7390014896596142 -32.602939480579323 8.2995164957891916 #
straight-curve $-1 57.686646751738664 -32.602939480579323 12.164288357793589 1 0 0 I I #
vertex $-1 $316 $443 #
point $-1 -1.7372483226116771 -27.943666456897802 7.4237196324475239 #
edge $-1 $406 51.94137161992699 $409 55.8061434819314 $321 $444 forward 7 unknown #
vertex $-1 $335 $445 #
straight-curve $-1 7.7390014896596142 24.050330602486731 12.164288357793588 0 1 0 I I #
edge $-1 $409 -9.1076256509654527 $332 11.84487397357713 $331 $446 forward 7 unknown #
vertex $-1 $408 $447 #
straight-curve $-1 7.7390014896596142 -17.347661324034803 50.213048085901647 0 -0.76604443648966558 0.64278761758704617 I I #
point $-1 7.7390014896596142 27.99708382594801 12.164288357793588 #
point $-1 -13.213498134882968 32.602939480579323 8.2995164957891774 #
straight-curve $-1 0 32.602939480579323 12.164288357793589 -1 0 0 I I #
vertex $-1 $338 $448 #
point $-1 -1.7372483226116771 27.943666456897795 7.4237196324475203 #
straight-curve $-1 -50.909756767479479 32.602939480579323 0 0 0 -1 I I #
point $-1 -50.909756767479479 -32.602939480579323 -12.164288357793589 #
straight-curve $-1 -50.909756767479479 0 -12.164288357793589 0 1 0 I I #
point $-1 -50.909756767479479 32.602939480579323 -12.164288357793589 #
coedge $-1 $360 $359 $370 $425 reversed $160 $-1 #
edge $-1 $365 -32.602939480579323 $426 32.602939480579323 $360 $449 forward 7 unknown #
straight-curve $-1 -64.463536735997835 32.602939480579323 10.664288357793589 0 0 -1 I I #
point $-1 -64.463536735997835 32.602939480579323 9.1642883577935894 #
point $-1 -64.463536735997835 32.602939480579323 12.164288357793589 #
edge $-1 $426 -1.5 $374 1.5 $420 $450 forward 7 unknown #
vertex $-1 $421 $451 #
straight-curve $-1 0 -32.602939480579323 12.164288357793589 1 0 0 I I #
straight-curve $-1 -64.463536735997835 0 9.1642883577935894 0 1 0 I I #
point $-1 -64.463536735997835 -32.602939480579323 9.1642883577935894 #
edge $-1 $383 -1.5 $392 1.5 $377 $452 forward 7 unknown #
coedge $-1 $381 $378 $385 $435 reversed $278 $-1 #
straight-curve $-1 64.463536735997849 0 9.1642883577935894 0 -1 0 I I #
straight-curve $-1 64.463536735997849 0 12.164288357793589 0 1 0 I I #
point $-1 64.463536735997849 -32.602939480579323 12.164288357793589 #
edge $-1 $386 -1.5 $390 1.5 $431 $453 forward 7 unknown #
point $-1 64.463536735997849 32.602939480579323 12.164288357793589 #
point $-1 64.463536735997849 32.602939480579323 9.1642883577935894 #
point $-1 64.463536735997849 -32.602939480579323 9.1642883577935894 #
straight-curve $-1 -13.213498134882968 -32.602939480579323 43.14889418266435 0 0 -1 I I #
point $-1 -13.213498134882968 -32.602939480579323 12.164288357793589 #
straight-curve $-1 -1.3686241613058385 -32.602939480579323 8.2995164957891916 1 0 0 I I #
point $-1 -13.213498134882968 -32.602939480579323 8.2995164957891916 #
point $-1 -2.7372483226116771 -27.300878839310755 6.6576751959578591 #
straight-curve $-1 7.7390014896596142 32.602939480579323 64.105659977720578 0 0 -1 I I #
point $-1 7.7390014896596142 32.602939480579323 12.164288357793589 #
straight-curve $-1 -1.3686241613058385 32.602939480579323 8.2995164957891809 -1 0 0 I I #
point $-1 7.7390014896596142 32.602939480579323 8.2995164957891774 #
point $-1 -2.7372483226116771 27.300878839310748 6.6576751959578555 #
straight-curve $-1 -64.463536735997835 0 12.164288357793589 0 -1 0 I I #
straight-curve $-1 -64.463536735997835 -32.602939480579323 10.664288357793589 0 0 -1 I I #
point $-1 -64.463536735997835 -32.602939480579323 12.164288357793589 #
straight-curve $-1 64.463536735997849 -32.602939480579323 10.664288357793589 0 0 -1 I I #
straight-curve $-1 64.463536735997849 32.602939480579323 10.664288357793589 0 0 -1 I I #
End-of-ACIS-data 