500 0 17 0           
7 Unknown 11 ACIS 5.0 NT 24 Fri Mar 26 18:40:09 1999 
-1 9.9999999999999995e-007 1e-010 
body $-1 $17 $-1 $18 #
body $-1 $19 $-1 $20 #
body $-1 $21 $-1 $22 #
body $-1 $23 $-1 $24 #
body $-1 $25 $-1 $26 #
body $-1 $27 $-1 $28 #
body $-1 $29 $-1 $30 #
body $-1 $31 $-1 $32 #
body $-1 $33 $-1 $34 #
body $-1 $35 $-1 $36 #
body $-1 $37 $-1 $38 #
body $-1 $39 $-1 $40 #
body $-1 $41 $-1 $42 #
body $-1 $43 $-1 $44 #
body $-1 $45 $-1 $46 #
body $-1 $47 $-1 $48 #
body $-1 $49 $-1 $50 #
lump $-1 $-1 $51 $0 #
transform $-1 1 0 0 0 1 0 0 0 1 50.588702047791983 28.336281003593999 12.054010243626088 1 rotate no_reflect no_shear #
lump $-1 $-1 $52 $1 #
transform $-1 1 0 0 0 1 0 0 0 1 50.588702047791983 28.336281003593999 12.054010243626088 1 rotate no_reflect no_shear #
lump $-1 $-1 $53 $2 #
transform $-1 1 0 0 0 1 0 0 0 1 50.588702047791983 28.336281003593999 12.054010243626088 1 rotate no_reflect no_shear #
lump $-1 $-1 $54 $3 #
transform $-1 1 0 0 0 1 0 0 0 1 50.588702047791983 28.336281003593999 12.054010243626088 1 rotate no_reflect no_shear #
lump $-1 $-1 $55 $4 #
transform $-1 1 0 0 0 1 0 0 0 1 50.588702047791983 28.336281003593999 12.054010243626088 1 rotate no_reflect no_shear #
lump $-1 $-1 $56 $5 #
transform $-1 1 0 0 0 1 0 0 0 1 50.588702047791983 28.336281003593999 12.054010243626088 1 rotate no_reflect no_shear #
lump $-1 $-1 $57 $6 #
transform $-1 1 0 0 0 1 0 0 0 1 50.588702047791983 28.336281003593999 12.054010243626088 1 rotate no_reflect no_shear #
lump $-1 $-1 $58 $7 #
transform $-1 1 0 0 0 1 0 0 0 1 50.588702047791983 28.336281003593999 12.054010243626088 1 rotate no_reflect no_shear #
lump $-1 $-1 $59 $8 #
transform $-1 1 0 0 0 1 0 0 0 1 50.588702047791983 28.336281003593999 12.054010243626088 1 rotate no_reflect no_shear #
lump $-1 $-1 $60 $9 #
transform $-1 1 0 0 0 1 0 0 0 1 50.588702047791983 28.336281003593999 12.054010243626088 1 rotate no_reflect no_shear #
lump $-1 $-1 $61 $10 #
transform $-1 1 0 0 0 1 0 0 0 1 50.588702047791983 28.336281003593999 12.054010243626088 1 rotate no_reflect no_shear #
lump $-1 $-1 $62 $11 #
transform $-1 1 0 0 0 1 0 0 0 1 50.588702047791983 28.336281003593999 12.054010243626088 1 rotate no_reflect no_shear #
lump $-1 $-1 $63 $12 #
transform $-1 1 0 0 0 1 0 0 0 1 50.588702047791983 28.336281003593999 12.054010243626088 1 rotate no_reflect no_shear #
lump $-1 $-1 $64 $13 #
transform $-1 1 0 0 0 1 0 0 0 1 50.588702047791983 28.336281003593999 12.054010243626088 1 rotate no_reflect no_shear #
lump $-1 $-1 $65 $14 #
transform $-1 1 0 0 0 1 0 0 0 1 50.588702047791983 28.336281003593999 12.054010243626088 1 rotate no_reflect no_shear #
lump $-1 $-1 $66 $15 #
transform $-1 1 0 0 0 1 0 0 0 1 50.588702047791983 28.336281003593999 12.054010243626088 1 rotate no_reflect no_shear #
lump $-1 $-1 $67 $16 #
transform $-1 1 0 0 0 1 0 0 0 1 50.588702047791983 28.336281003593999 12.054010243626088 1 rotate no_reflect no_shear #
shell $-1 $-1 $-1 $68 $-1 $17 #
shell $-1 $-1 $-1 $69 $-1 $19 #
shell $-1 $-1 $-1 $70 $-1 $21 #
shell $-1 $-1 $-1 $71 $-1 $23 #
shell $-1 $-1 $-1 $72 $-1 $25 #
shell $-1 $-1 $-1 $73 $-1 $27 #
shell $-1 $-1 $-1 $74 $-1 $29 #
shell $-1 $-1 $-1 $75 $-1 $31 #
shell $-1 $-1 $-1 $76 $-1 $33 #
shell $-1 $-1 $-1 $77 $-1 $35 #
shell $-1 $-1 $-1 $78 $-1 $37 #
shell $-1 $-1 $-1 $79 $-1 $39 #
shell $-1 $-1 $-1 $80 $-1 $41 #
shell $-1 $-1 $-1 $81 $-1 $43 #
shell $-1 $-1 $-1 $82 $-1 $45 #
shell $-1 $-1 $-1 $83 $-1 $47 #
shell $-1 $-1 $-1 $84 $-1 $49 #
face $-1 $85 $86 $51 $-1 $87 forward single #
face $-1 $88 $89 $52 $-1 $90 reversed single #
face $-1 $91 $92 $53 $-1 $93 reversed single #
face $-1 $94 $95 $54 $-1 $96 reversed single #
face $-1 $97 $98 $55 $-1 $99 forward single #
face $-1 $100 $101 $56 $-1 $102 reversed single #
face $-1 $103 $104 $57 $-1 $105 forward single #
face $-1 $106 $107 $58 $-1 $108 forward single #
face $-1 $109 $110 $59 $-1 $111 forward single #
face $-1 $112 $113 $60 $-1 $114 reversed single #
face $-1 $115 $116 $61 $-1 $117 forward single #
face $-1 $118 $119 $62 $-1 $120 forward single #
face $-1 $121 $122 $63 $-1 $123 forward single #
face $-1 $124 $125 $64 $-1 $126 reversed single #
face $-1 $127 $128 $65 $-1 $129 forward single #
face $-1 $130 $131 $66 $-1 $132 forward single #
face $-1 $133 $134 $67 $-1 $135 forward single #
face $-1 $136 $137 $51 $-1 $138 reversed single #
loop $-1 $-1 $139 $68 #
plane-surface $-1 0 0 12.054010243626088 0 0 1 1 0 0 forward_v I I I I #
face $-1 $140 $141 $52 $-1 $142 reversed single #
loop $-1 $-1 $143 $69 #
plane-surface $-1 -47.959348179072926 -17.832748958589104 0 0 -1 0 0 0 -1 forward_v I I I I #
face $-1 $144 $145 $53 $-1 $146 reversed single #
loop $-1 $-1 $147 $70 #
plane-surface $-1 -47.959348179072926 17.832748958589107 0 0 1 0 0 0 1 forward_v I I I I #
face $-1 $148 $149 $54 $-1 $150 reversed single #
loop $-1 $-1 $151 $71 #
plane-surface $-1 -107.16638914495677 -14.209058313276056 87.474449493325551 0 1 0 -0.55919291073839883 0 0.82903756765294845 forward_v I I I I #
face $-1 $152 $153 $55 $-1 $154 forward single #
loop $-1 $155 $156 $72 #
cone-surface $-1 -42.846817173651004 -10.278651944166267 5.6433373090501409 0.55919291073839883 0 -0.82903756765294845 1.2435563514794228 0 0.83878936610759824 1 I I 0 1 1.5 forward I I I I #
face $-1 $157 $158 $56 $-1 $159 reversed single #
loop $-1 $-1 $160 $73 #
plane-surface $-1 75.435406566415963 -11.110477365237283 144.59095584319746 0 -1 0 -0.81915205242281985 0 -0.57357642473473569 forward_v I I I I #
face $-1 $161 $162 $57 $-1 $163 forward single #
loop $-1 $164 $165 $74 #
cone-surface $-1 47.246759755307842 -16.488294639918738 7.579368866645777 -0.81915205242281985 0 -0.57357642473473569 0.28678821236736785 0 -0.40957602621140993 1 I I 0 1 0.5 forward I I I I #
face $-1 $166 $167 $58 $-1 $168 forward single #
loop $-1 $169 $170 $75 #
cone-surface $-1 47.246759755307842 -14.471613161913192 7.579368866645777 -0.81915205242281985 0 -0.57357642473473569 0.28678821236736785 0 -0.40957602621140993 1 I I 0 1 0.5 forward I I I I #
face $-1 $171 $172 $59 $-1 $173 forward single #
loop $-1 $174 $175 $76 #
cone-surface $-1 47.246759755307842 -12.454931683907645 7.579368866645777 -0.81915205242281985 0 -0.57357642473473569 0.28678821236736785 0 -0.40957602621140993 1 I I 0 1 0.5 forward I I I I #
face $-1 $176 $177 $60 $-1 $178 reversed single #
loop $-1 $-1 $179 $77 #
plane-surface $-1 75.435406566415963 0.77802194048878714 144.59095584319746 0 -1 0 -0.81915205242281985 0 -0.57357642473473569 forward_v I I I I #
face $-1 $180 $181 $61 $-1 $182 forward single #
loop $-1 $183 $184 $78 #
cone-surface $-1 47.246759755307842 -4.5997953341926667 7.579368866645777 -0.81915205242281985 0 -0.57357642473473569 0.28678821236736785 0 -0.40957602621140993 1 I I 0 1 0.5 forward I I I I #
face $-1 $185 $186 $62 $-1 $187 forward single #
loop $-1 $188 $189 $79 #
cone-surface $-1 47.246759755307842 -2.5831138561871221 7.579368866645777 -0.81915205242281985 0 -0.57357642473473569 0.28678821236736785 0 -0.40957602621140993 1 I I 0 1 0.5 forward I I I I #
face $-1 $190 $191 $63 $-1 $192 forward single #
loop $-1 $193 $194 $80 #
cone-surface $-1 47.246759755307842 -0.56643237818157743 7.579368866645777 -0.81915205242281985 0 -0.57357642473473569 0.28678821236736785 0 -0.40957602621140993 1 I I 0 1 0.5 forward I I I I #
face $-1 $195 $196 $64 $-1 $197 reversed single #
loop $-1 $-1 $198 $81 #
plane-surface $-1 75.435406566415963 12.66652124621486 144.59095584319746 0 -1 0 -0.81915205242281985 0 -0.57357642473473569 forward_v I I I I #
face $-1 $199 $200 $65 $-1 $201 forward single #
loop $-1 $202 $203 $82 #
cone-surface $-1 47.246759755307842 7.2887039715334048 7.579368866645777 -0.81915205242281985 0 -0.57357642473473569 0.28678821236736785 0 -0.40957602621140993 1 I I 0 1 0.5 forward I I I I #
face $-1 $204 $205 $66 $-1 $206 forward single #
loop $-1 $207 $208 $83 #
cone-surface $-1 47.246759755307842 9.3053854495389494 7.579368866645777 -0.81915205242281985 0 -0.57357642473473569 0.28678821236736785 0 -0.40957602621140993 1 I I 0 1 0.5 forward I I I I #
face $-1 $209 $210 $67 $-1 $211 forward single #
loop $-1 $212 $213 $84 #
cone-surface $-1 47.246759755307842 11.322066927544494 7.579368866645777 -0.81915205242281985 0 -0.57357642473473569 0.28678821236736785 0 -0.40957602621140993 1 I I 0 1 0.5 forward I I I I #
face $-1 $214 $215 $51 $-1 $216 reversed single #
loop $-1 $-1 $217 $85 #
plane-surface $-1 0 0 -12.054010243626088 0 0 1 1 0 0 forward_v I I I I #
coedge $-1 $218 $219 $220 $221 forward $86 $-1 #
face $-1 $222 $223 $52 $-1 $224 forward single #
loop $-1 $-1 $225 $88 #
plane-surface $-1 -45.329994310353868 -23.084514981091552 0 -1 0 0 0 0 1 forward_v I I I I #
coedge $-1 $226 $227 $228 $229 forward $89 $-1 #
face $-1 $230 $231 $53 $-1 $232 reversed single #
loop $-1 $-1 $233 $91 #
plane-surface $-1 -45.329994310353868 23.084514981091555 0 -1 0 0 0 0 1 forward_v I I I I #
coedge $-1 $234 $235 $236 $237 reversed $92 $-1 #
face $-1 $238 $239 $54 $-1 $240 reversed single #
loop $-1 $-1 $241 $94 #
plane-surface $-1 -50.588702047791976 -10.278651944166267 3.5945805004831612 -0.55919291073839883 0 0.82903756765294845 0.82903756765294845 0 0.55919291073839883 forward_v I I I I #
coedge $-1 $242 $243 $244 $245 reversed $95 $-1 #
face $-1 $-1 $246 $55 $-1 $247 forward single #
loop $-1 $248 $249 $97 #
cone-surface $-1 -40.95634767440697 -10.278651944166267 2.8406010703059437 0.55919291073839883 0 -0.82903756765294845 0.62177817573971139 0 0.41939468305379912 1 I I -0.70710678118654757 0.70710678118654757 0.75 forward I I I I #
loop $-1 $-1 $250 $72 #
coedge $-1 $156 $156 $251 $252 reversed $98 $-1 #
face $-1 $253 $254 $56 $-1 $255 reversed single #
loop $-1 $-1 $256 $100 #
plane-surface $-1 -7.4442716572946637 -14.471613161913194 86.557982138110816 0.81915205242281985 0 0.57357642473473569 0.57357642473473569 0 -0.81915205242281985 forward_v I I I I #
coedge $-1 $257 $258 $259 $260 reversed $101 $-1 #
face $-1 $-1 $261 $57 $-1 $262 forward single #
loop $-1 $263 $264 $103 #
cone-surface $-1 46.632395715990725 -16.488294639918738 7.1491865480947254 -0.81915205242281985 0 -0.57357642473473569 0.14339410618368392 0 -0.20478801310570496 1 I I -0.70710678118654746 0.70710678118654746 0.25 forward I I I I #
loop $-1 $-1 $265 $74 #
coedge $-1 $165 $165 $266 $267 reversed $104 $-1 #
face $-1 $-1 $268 $58 $-1 $269 forward single #
loop $-1 $270 $271 $106 #
cone-surface $-1 46.632395715990725 -14.471613161913192 7.1491865480947254 -0.81915205242281985 0 -0.57357642473473569 0.14339410618368392 0 -0.20478801310570496 1 I I -0.70710678118654746 0.70710678118654746 0.25 forward I I I I #
loop $-1 $-1 $272 $75 #
coedge $-1 $170 $170 $273 $274 reversed $107 $-1 #
face $-1 $-1 $275 $59 $-1 $276 forward single #
loop $-1 $277 $278 $109 #
cone-surface $-1 46.632395715990725 -12.454931683907645 7.1491865480947254 -0.81915205242281985 0 -0.57357642473473569 0.14339410618368392 0 -0.20478801310570496 1 I I -0.70710678118654746 0.70710678118654746 0.25 forward I I I I #
loop $-1 $-1 $279 $76 #
coedge $-1 $175 $175 $280 $281 reversed $110 $-1 #
face $-1 $282 $283 $60 $-1 $284 reversed single #
loop $-1 $-1 $285 $112 #
plane-surface $-1 -7.4442716572946637 -2.5831138561871221 86.557982138110816 0.81915205242281985 0 0.57357642473473569 0.57357642473473569 0 -0.81915205242281985 forward_v I I I I #
coedge $-1 $286 $287 $288 $289 reversed $113 $-1 #
face $-1 $-1 $290 $61 $-1 $291 forward single #
loop $-1 $292 $293 $115 #
cone-surface $-1 46.632395715990725 -4.5997953341926667 7.1491865480947254 -0.81915205242281985 0 -0.57357642473473569 0.14339410618368392 0 -0.20478801310570496 1 I I -0.70710678118654746 0.70710678118654746 0.25 forward I I I I #
loop $-1 $-1 $294 $78 #
coedge $-1 $184 $184 $295 $296 reversed $116 $-1 #
face $-1 $-1 $297 $62 $-1 $298 forward single #
loop $-1 $299 $300 $118 #
cone-surface $-1 46.632395715990725 -2.5831138561871221 7.1491865480947254 -0.81915205242281985 0 -0.57357642473473569 0.14339410618368392 0 -0.20478801310570496 1 I I -0.70710678118654746 0.70710678118654746 0.25 forward I I I I #
loop $-1 $-1 $301 $79 #
coedge $-1 $189 $189 $302 $303 reversed $119 $-1 #
face $-1 $-1 $304 $63 $-1 $305 forward single #
loop $-1 $306 $307 $121 #
cone-surface $-1 46.632395715990725 -0.56643237818157743 7.1491865480947254 -0.81915205242281985 0 -0.57357642473473569 0.14339410618368392 0 -0.20478801310570496 1 I I -0.70710678118654746 0.70710678118654746 0.25 forward I I I I #
loop $-1 $-1 $308 $80 #
coedge $-1 $194 $194 $309 $310 reversed $122 $-1 #
face $-1 $311 $312 $64 $-1 $313 reversed single #
loop $-1 $-1 $314 $124 #
plane-surface $-1 -7.4442716572946637 9.3053854495389494 86.557982138110816 0.81915205242281985 0 0.57357642473473569 0.57357642473473569 0 -0.81915205242281985 forward_v I I I I #
coedge $-1 $315 $316 $317 $318 reversed $125 $-1 #
face $-1 $-1 $319 $65 $-1 $320 forward single #
loop $-1 $321 $322 $127 #
cone-surface $-1 46.632395715990725 7.2887039715334048 7.1491865480947254 -0.81915205242281985 0 -0.57357642473473569 0.14339410618368392 0 -0.20478801310570496 1 I I -0.70710678118654746 0.70710678118654746 0.25 forward I I I I #
loop $-1 $-1 $323 $82 #
coedge $-1 $203 $203 $324 $325 reversed $128 $-1 #
face $-1 $-1 $326 $66 $-1 $327 forward single #
loop $-1 $328 $329 $130 #
cone-surface $-1 46.632395715990725 9.3053854495389494 7.1491865480947254 -0.81915205242281985 0 -0.57357642473473569 0.14339410618368392 0 -0.20478801310570496 1 I I -0.70710678118654746 0.70710678118654746 0.25 forward I I I I #
loop $-1 $-1 $330 $83 #
coedge $-1 $208 $208 $331 $332 reversed $131 $-1 #
face $-1 $-1 $333 $67 $-1 $334 forward single #
loop $-1 $335 $336 $133 #
cone-surface $-1 46.632395715990725 11.322066927544494 7.1491865480947254 -0.81915205242281985 0 -0.57357642473473569 0.14339410618368392 0 -0.20478801310570496 1 I I -0.70710678118654746 0.70710678118654746 0.25 forward I I I I #
loop $-1 $-1 $337 $84 #
coedge $-1 $213 $213 $338 $339 reversed $134 $-1 #
face $-1 $340 $341 $51 $-1 $342 reversed single #
loop $-1 $-1 $343 $136 #
plane-surface $-1 0 -28.336281003593999 0 0 1 0 0 0 1 forward_v I I I I #
coedge $-1 $344 $345 $346 $347 forward $137 $-1 #
coedge $-1 $348 $139 $349 $350 forward $86 $-1 #
coedge $-1 $139 $348 $351 $352 forward $86 $-1 #
coedge $-1 $353 $354 $139 $221 reversed $355 $-1 #
edge $-1 $356 -28.336281003593999 $357 28.336281003593999 $220 $358 forward 7 unknown #
face $-1 $359 $360 $52 $-1 $361 reversed single #
loop $-1 $-1 $362 $140 #
plane-surface $-1 0 0 12.054010243626088 0 0 1 1 0 0 forward_v I I I I #
coedge $-1 $363 $364 $365 $366 reversed $141 $-1 #
coedge $-1 $367 $143 $368 $369 reversed $89 $-1 #
coedge $-1 $143 $367 $370 $371 reversed $89 $-1 #
coedge $-1 $364 $363 $143 $229 reversed $141 $-1 #
edge $-1 $372 -12.054010243626088 $373 12.054010243626088 $228 $374 forward 7 unknown #
face $-1 $375 $376 $53 $-1 $377 reversed single #
loop $-1 $-1 $378 $144 #
plane-surface $-1 0 0 -12.054010243626088 0 0 1 1 0 0 forward_v I I I I #
coedge $-1 $379 $380 $381 $382 forward $145 $-1 #
coedge $-1 $381 $147 $383 $384 reversed $92 $-1 #
coedge $-1 $147 $381 $385 $386 reversed $92 $-1 #
coedge $-1 $387 $388 $147 $237 forward $376 $-1 #
edge $-1 $389 -12.054010243626088 $390 12.054010243626088 $236 $391 forward 7 unknown #
face $-1 $392 $393 $54 $-1 $394 forward single #
loop $-1 $-1 $395 $148 #
plane-surface $-1 -107.16638914495677 -6.3482455750564775 87.474449493325551 0 -1 0 0.55919291073839883 0 -0.82903756765294845 forward_v I I I I #
coedge $-1 $396 $397 $398 $399 reversed $149 $-1 #
coedge $-1 $243 $151 $400 $401 reversed $95 $-1 #
coedge $-1 $151 $242 $396 $402 reversed $95 $-1 #
coedge $-1 $398 $403 $151 $245 forward $393 $-1 #
edge $-1 $404 2.9944925246864003 $405 15.536112640587916 $244 $406 forward 7 unknown #
loop $-1 $-1 $251 $152 #
plane-surface $-1 -50.588702047791976 -10.278651944166267 3.5945805004831612 -0.55919291073839883 0 0.82903756765294845 0.82903756765294845 0 0.55919291073839883 forward_v I I I I #
loop $-1 $-1 $407 $97 #
coedge $-1 $249 $249 $250 $408 reversed $153 $-1 #
coedge $-1 $250 $250 $249 $408 forward $155 $-1 #
coedge $-1 $251 $251 $156 $252 forward $246 $-1 #
edge $-1 $409 0 $409 6.2831853071796004 $251 $410 forward 7 unknown #
face $-1 $411 $412 $56 $-1 $413 reversed single #
loop $-1 $-1 $414 $157 #
plane-surface $-1 75.435406566415963 -17.832748958589104 144.59095584319746 0 1 0 0.81915205242281985 0 0.57357642473473569 forward_v I I I I #
coedge $-1 $415 $416 $417 $418 reversed $158 $-1 #
coedge $-1 $258 $160 $419 $420 reversed $101 $-1 #
coedge $-1 $160 $257 $415 $421 reversed $101 $-1 #
coedge $-1 $417 $422 $160 $260 forward $423 $-1 #
edge $-1 $424 -12.870998764584002 $425 -7.0062662320385485 $259 $426 forward 7 unknown #
loop $-1 $-1 $266 $161 #
plane-surface $-1 -7.4442716572946637 -14.471613161913194 86.557982138110816 0.81915205242281985 0 0.57357642473473569 0.57357642473473569 0 -0.81915205242281985 forward_v I I I I #
loop $-1 $-1 $427 $103 #
coedge $-1 $264 $264 $265 $428 reversed $162 $-1 #
coedge $-1 $265 $265 $264 $428 forward $164 $-1 #
coedge $-1 $266 $266 $165 $267 forward $261 $-1 #
edge $-1 $429 0 $429 6.2831853071796004 $266 $430 forward 7 unknown #
loop $-1 $-1 $273 $166 #
plane-surface $-1 -7.4442716572946637 -14.471613161913194 86.557982138110816 0.81915205242281985 0 0.57357642473473569 0.57357642473473569 0 -0.81915205242281985 forward_v I I I I #
loop $-1 $-1 $431 $106 #
coedge $-1 $271 $271 $272 $432 reversed $167 $-1 #
coedge $-1 $272 $272 $271 $432 forward $169 $-1 #
coedge $-1 $273 $273 $170 $274 forward $268 $-1 #
edge $-1 $433 0 $433 6.2831853071796004 $273 $434 forward 7 unknown #
loop $-1 $-1 $280 $171 #
plane-surface $-1 -7.4442716572946637 -14.471613161913194 86.557982138110816 0.81915205242281985 0 0.57357642473473569 0.57357642473473569 0 -0.81915205242281985 forward_v I I I I #
loop $-1 $-1 $435 $109 #
coedge $-1 $278 $278 $279 $436 reversed $172 $-1 #
coedge $-1 $279 $279 $278 $436 forward $174 $-1 #
coedge $-1 $280 $280 $175 $281 forward $275 $-1 #
edge $-1 $437 0 $437 6.2831853071796004 $280 $438 forward 7 unknown #
face $-1 $439 $440 $60 $-1 $441 reversed single #
loop $-1 $-1 $442 $176 #
plane-surface $-1 75.435406566415963 -5.9442496528630313 144.59095584319746 0 1 0 0.81915205242281985 0 0.57357642473473569 forward_v I I I I #
coedge $-1 $443 $444 $445 $446 reversed $177 $-1 #
coedge $-1 $287 $179 $447 $448 reversed $113 $-1 #
coedge $-1 $179 $286 $443 $449 reversed $113 $-1 #
coedge $-1 $445 $450 $179 $289 forward $451 $-1 #
edge $-1 $452 -12.870998764584002 $453 -7.0062662320385485 $288 $454 forward 7 unknown #
loop $-1 $-1 $295 $180 #
plane-surface $-1 -7.4442716572946637 -2.5831138561871221 86.557982138110816 0.81915205242281985 0 0.57357642473473569 0.57357642473473569 0 -0.81915205242281985 forward_v I I I I #
loop $-1 $-1 $455 $115 #
coedge $-1 $293 $293 $294 $456 reversed $181 $-1 #
coedge $-1 $294 $294 $293 $456 forward $183 $-1 #
coedge $-1 $295 $295 $184 $296 forward $290 $-1 #
edge $-1 $457 0 $457 6.2831853071796004 $295 $458 forward 7 unknown #
loop $-1 $-1 $302 $185 #
plane-surface $-1 -7.4442716572946637 -2.5831138561871221 86.557982138110816 0.81915205242281985 0 0.57357642473473569 0.57357642473473569 0 -0.81915205242281985 forward_v I I I I #
loop $-1 $-1 $459 $118 #
coedge $-1 $300 $300 $301 $460 reversed $186 $-1 #
coedge $-1 $301 $301 $300 $460 forward $188 $-1 #
coedge $-1 $302 $302 $189 $303 forward $297 $-1 #
edge $-1 $461 0 $461 6.2831853071796004 $302 $462 forward 7 unknown #
loop $-1 $-1 $309 $190 #
plane-surface $-1 -7.4442716572946637 -2.5831138561871221 86.557982138110816 0.81915205242281985 0 0.57357642473473569 0.57357642473473569 0 -0.81915205242281985 forward_v I I I I #
loop $-1 $-1 $463 $121 #
coedge $-1 $307 $307 $308 $464 reversed $191 $-1 #
coedge $-1 $308 $308 $307 $464 forward $193 $-1 #
coedge $-1 $309 $309 $194 $310 forward $304 $-1 #
edge $-1 $465 0 $465 6.2831853071796004 $309 $466 forward 7 unknown #
face $-1 $467 $468 $64 $-1 $469 reversed single #
loop $-1 $-1 $470 $195 #
plane-surface $-1 75.435406566415963 5.9442496528630402 144.59095584319746 0 1 0 0.81915205242281985 0 0.57357642473473569 forward_v I I I I #
coedge $-1 $471 $472 $473 $474 reversed $196 $-1 #
coedge $-1 $316 $198 $475 $476 reversed $125 $-1 #
coedge $-1 $198 $315 $471 $477 reversed $125 $-1 #
coedge $-1 $473 $478 $198 $318 forward $479 $-1 #
edge $-1 $480 -12.870998764584002 $481 -7.0062662320385485 $317 $482 forward 7 unknown #
loop $-1 $-1 $324 $199 #
plane-surface $-1 -7.4442716572946637 9.3053854495389494 86.557982138110816 0.81915205242281985 0 0.57357642473473569 0.57357642473473569 0 -0.81915205242281985 forward_v I I I I #
loop $-1 $-1 $483 $127 #
coedge $-1 $322 $322 $323 $484 reversed $200 $-1 #
coedge $-1 $323 $323 $322 $484 forward $202 $-1 #
coedge $-1 $324 $324 $203 $325 forward $319 $-1 #
edge $-1 $485 0 $485 6.2831853071796004 $324 $486 forward 7 unknown #
loop $-1 $-1 $331 $204 #
plane-surface $-1 -7.4442716572946637 9.3053854495389494 86.557982138110816 0.81915205242281985 0 0.57357642473473569 0.57357642473473569 0 -0.81915205242281985 forward_v I I I I #
loop $-1 $-1 $487 $130 #
coedge $-1 $329 $329 $330 $488 reversed $205 $-1 #
coedge $-1 $330 $330 $329 $488 forward $207 $-1 #
coedge $-1 $331 $331 $208 $332 forward $326 $-1 #
edge $-1 $489 0 $489 6.2831853071796004 $331 $490 forward 7 unknown #
loop $-1 $-1 $338 $209 #
plane-surface $-1 -7.4442716572946637 9.3053854495389494 86.557982138110816 0.81915205242281985 0 0.57357642473473569 0.57357642473473569 0 -0.81915205242281985 forward_v I I I I #
loop $-1 $-1 $491 $133 #
coedge $-1 $336 $336 $337 $492 reversed $210 $-1 #
coedge $-1 $337 $337 $336 $492 forward $212 $-1 #
coedge $-1 $338 $338 $213 $339 forward $333 $-1 #
edge $-1 $493 0 $493 6.2831853071796004 $338 $494 forward 7 unknown #
face $-1 $495 $496 $51 $-1 $497 reversed single #
loop $-1 $-1 $498 $214 #
plane-surface $-1 -50.588702047791983 0 0 1 0 0 0 0 -1 forward_v I I I I #
coedge $-1 $499 $351 $500 $501 forward $215 $-1 #
coedge $-1 $502 $217 $499 $503 forward $137 $-1 #
coedge $-1 $217 $502 $504 $505 forward $137 $-1 #
coedge $-1 $354 $353 $217 $347 reversed $355 $-1 #
edge $-1 $506 -28.336281003593999 $507 28.336281003593999 $346 $508 forward 7 unknown #
coedge $-1 $219 $218 $509 $510 forward $86 $-1 #
coedge $-1 $511 $512 $218 $350 reversed $496 $-1 #
edge $-1 $357 -50.588702047791983 $513 50.588702047791983 $349 $514 forward 7 unknown #
coedge $-1 $343 $515 $219 $352 reversed $215 $-1 #
edge $-1 $516 -50.588702047791983 $356 50.588702047791983 $351 $517 forward 7 unknown #
coedge $-1 $346 $220 $515 $518 forward $355 $-1 #
coedge $-1 $220 $346 $511 $519 reversed $355 $-1 #
loop $-1 $-1 $353 $495 #
vertex $-1 $221 $520 #
vertex $-1 $221 $521 #
straight-curve $-1 50.588702047791983 0 12.054010243626088 0 1 0 I I #
face $-1 $522 $523 $52 $-1 $524 reversed single #
loop $-1 $-1 $525 $222 #
plane-surface $-1 -50.588702047791983 0 0 1 0 0 0 0 -1 forward_v I I I I #
coedge $-1 $370 $526 $364 $527 forward $223 $-1 #
coedge $-1 $228 $225 $528 $529 reversed $141 $-1 #
coedge $-1 $225 $228 $362 $527 reversed $141 $-1 #
coedge $-1 $530 $531 $225 $366 forward $532 $-1 #
edge $-1 $533 -12.054010243626088 $534 12.054010243626088 $365 $535 forward 7 unknown #
coedge $-1 $227 $226 $525 $536 reversed $89 $-1 #
coedge $-1 $528 $537 $226 $369 forward $523 $-1 #
edge $-1 $538 -26.60902795825552 $373 -21.350320220817405 $368 $539 forward 7 unknown #
coedge $-1 $540 $362 $227 $371 forward $223 $-1 #
edge $-1 $372 21.350320220817405 $541 26.60902795825552 $370 $542 forward 7 unknown #
vertex $-1 $371 $543 #
vertex $-1 $369 $544 #
straight-curve $-1 -45.329994310353868 -17.832748958589104 0 0 0 -1 I I #
face $-1 $545 $546 $53 $-1 $547 forward single #
loop $-1 $-1 $236 $230 #
plane-surface $-1 -50.588702047791983 0 0 1 0 0 0 0 -1 forward_v I I I I #
coedge $-1 $383 $548 $379 $549 forward $231 $-1 #
coedge $-1 $550 $233 $378 $549 reversed $145 $-1 #
coedge $-1 $233 $550 $551 $552 reversed $145 $-1 #
coedge $-1 $235 $234 $233 $382 reversed $92 $-1 #
edge $-1 $553 -12.054010243626088 $554 12.054010243626088 $233 $555 forward 7 unknown #
coedge $-1 $556 $378 $234 $384 forward $231 $-1 #
edge $-1 $554 21.350320220817405 $389 26.60902795825552 $383 $557 forward 7 unknown #
coedge $-1 $551 $558 $235 $386 forward $546 $-1 #
edge $-1 $390 -26.60902795825552 $553 -21.350320220817405 $385 $559 forward 7 unknown #
coedge $-1 $560 $236 $558 $561 reversed $376 $-1 #
coedge $-1 $236 $560 $556 $562 reversed $376 $-1 #
vertex $-1 $562 $563 #
vertex $-1 $237 $564 #
straight-curve $-1 -50.588702047791983 17.832748958589107 0 0 0 1 I I #
face $-1 $-1 $565 $54 $-1 $566 reversed single #
loop $-1 $-1 $244 $238 #
plane-surface $-1 0 0 12.054010243626088 0 0 1 1 0 0 forward_v I I I I #
coedge $-1 $567 $568 $569 $570 reversed $239 $-1 #
coedge $-1 $571 $241 $243 $402 forward $149 $-1 #
coedge $-1 $241 $571 $567 $572 forward $149 $-1 #
coedge $-1 $569 $244 $241 $399 forward $393 $-1 #
edge $-1 $405 -9.0697323411929229 $573 -1.208919602973344 $398 $574 forward 7 unknown #
coedge $-1 $575 $576 $242 $401 forward $565 $-1 #
edge $-1 $577 -40.142644246179621 $404 -31.683214503036687 $400 $578 forward 7 unknown #
edge $-1 $405 -15.127927376569353 $577 8.6223131303995443e-015 $243 $579 forward 7 unknown #
coedge $-1 $244 $569 $575 $580 forward $393 $-1 #
vertex $-1 $245 $581 #
vertex $-1 $245 $582 #
straight-curve $-1 -53.583194572478384 -14.209058313276056 12.054010243626088 1 0 0 I I #
coedge $-1 $407 $407 $-1 $583 reversed $248 $-1 #
edge $-1 $584 0 $584 6.2831853071796004 $249 $585 forward 7 unknown #
vertex $-1 $252 $586 #
ellipse-curve $-1 -44.317891989841229 -10.278651944166267 7.8242953720546193 -0.55919291073839883 0 0.82903756765294845 1.2435563514794228 0 0.83878936610759824 1 I I #
face $-1 $-1 $423 $56 $-1 $587 forward single #
loop $-1 $-1 $588 $253 #
plane-surface $-1 50.588702047791983 0 0 -1 0 0 0 0 1 forward_v I I I I #
coedge $-1 $589 $590 $591 $592 reversed $254 $-1 #
coedge $-1 $593 $256 $258 $421 forward $158 $-1 #
coedge $-1 $256 $593 $589 $594 forward $158 $-1 #
coedge $-1 $591 $259 $256 $418 forward $423 $-1 #
edge $-1 $425 3.8746707842806867 $595 10.596942377632507 $417 $596 forward 7 unknown #
coedge $-1 $597 $598 $257 $420 forward $412 $-1 #
edge $-1 $599 -68.617174007198528 $424 -60.241467677972643 $419 $600 forward 7 unknown #
edge $-1 $425 90.952554747464859 $599 101.17740409558397 $258 $601 forward 7 unknown #
coedge $-1 $259 $591 $597 $602 forward $423 $-1 #
loop $-1 $-1 $591 $411 #
vertex $-1 $420 $603 #
vertex $-1 $260 $604 #
straight-curve $-1 37.717703283207982 -11.110477365237283 12.054010243626095 -1 0 0 I I #
coedge $-1 $427 $427 $-1 $605 reversed $263 $-1 #
edge $-1 $606 0 $606 6.2831853071796004 $264 $607 forward 7 unknown #
vertex $-1 $267 $608 #
ellipse-curve $-1 47.65633578151926 -16.488294639918738 7.8661570790131492 0.81915205242281985 0 0.57357642473473569 0.28678821236736785 0 -0.40957602621140993 1 I I #
coedge $-1 $431 $431 $-1 $609 reversed $270 $-1 #
edge $-1 $610 0 $610 6.2831853071796004 $271 $611 forward 7 unknown #
vertex $-1 $274 $612 #
ellipse-curve $-1 47.65633578151926 -14.471613161913192 7.8661570790131492 0.81915205242281985 0 0.57357642473473569 0.28678821236736785 0 -0.40957602621140993 1 I I #
coedge $-1 $435 $435 $-1 $613 reversed $277 $-1 #
edge $-1 $614 0 $614 6.2831853071796004 $278 $615 forward 7 unknown #
vertex $-1 $281 $616 #
ellipse-curve $-1 47.65633578151926 -12.454931683907645 7.8661570790131492 0.81915205242281985 0 0.57357642473473569 0.28678821236736785 0 -0.40957602621140993 1 I I #
face $-1 $-1 $451 $60 $-1 $617 forward single #
loop $-1 $-1 $618 $282 #
plane-surface $-1 50.588702047791983 0 0 -1 0 0 0 0 1 forward_v I I I I #
coedge $-1 $619 $620 $621 $622 reversed $283 $-1 #
coedge $-1 $623 $285 $287 $449 forward $177 $-1 #
coedge $-1 $285 $623 $619 $624 forward $177 $-1 #
coedge $-1 $621 $288 $285 $446 forward $451 $-1 #
edge $-1 $453 -2.0695788685823482 $625 4.6526927247694703 $445 $626 forward 7 unknown #
coedge $-1 $627 $628 $286 $448 forward $440 $-1 #
edge $-1 $629 -68.617174007198528 $452 -60.241467677972643 $447 $630 forward 7 unknown #
edge $-1 $453 90.952554747464859 $629 101.17740409558397 $287 $631 forward 7 unknown #
coedge $-1 $288 $621 $627 $632 forward $451 $-1 #
loop $-1 $-1 $621 $439 #
vertex $-1 $448 $633 #
vertex $-1 $289 $634 #
straight-curve $-1 37.717703283207982 0.77802194048878714 12.054010243626095 -1 0 0 I I #
coedge $-1 $455 $455 $-1 $635 reversed $292 $-1 #
edge $-1 $636 0 $636 6.2831853071796004 $293 $637 forward 7 unknown #
vertex $-1 $296 $638 #
ellipse-curve $-1 47.65633578151926 -4.5997953341926667 7.8661570790131492 0.81915205242281985 0 0.57357642473473569 0.28678821236736785 0 -0.40957602621140993 1 I I #
coedge $-1 $459 $459 $-1 $639 reversed $299 $-1 #
edge $-1 $640 0 $640 6.2831853071796004 $300 $641 forward 7 unknown #
vertex $-1 $303 $642 #
ellipse-curve $-1 47.65633578151926 -2.5831138561871221 7.8661570790131492 0.81915205242281985 0 0.57357642473473569 0.28678821236736785 0 -0.40957602621140993 1 I I #
coedge $-1 $463 $463 $-1 $643 reversed $306 $-1 #
edge $-1 $644 0 $644 6.2831853071796004 $307 $645 forward 7 unknown #
vertex $-1 $310 $646 #
ellipse-curve $-1 47.65633578151926 -0.56643237818157743 7.8661570790131492 0.81915205242281985 0 0.57357642473473569 0.28678821236736785 0 -0.40957602621140993 1 I I #
face $-1 $-1 $479 $64 $-1 $647 forward single #
loop $-1 $-1 $648 $311 #
plane-surface $-1 50.588702047791983 0 0 -1 0 0 0 0 1 forward_v I I I I #
coedge $-1 $649 $650 $651 $652 reversed $312 $-1 #
coedge $-1 $653 $314 $316 $477 forward $196 $-1 #
coedge $-1 $314 $653 $649 $654 forward $196 $-1 #
coedge $-1 $651 $317 $314 $474 forward $479 $-1 #
edge $-1 $481 -8.0138285214453848 $655 -1.2915569280935655 $473 $656 forward 7 unknown #
coedge $-1 $657 $658 $315 $476 forward $468 $-1 #
edge $-1 $659 -68.617174007198528 $480 -60.241467677972643 $475 $660 forward 7 unknown #
edge $-1 $481 90.952554747464859 $659 101.17740409558397 $316 $661 forward 7 unknown #
coedge $-1 $317 $651 $657 $662 forward $479 $-1 #
loop $-1 $-1 $651 $467 #
vertex $-1 $476 $663 #
vertex $-1 $318 $664 #
straight-curve $-1 37.717703283207982 12.66652124621486 12.054010243626095 -1 0 0 I I #
coedge $-1 $483 $483 $-1 $665 reversed $321 $-1 #
edge $-1 $666 0 $666 6.2831853071796004 $322 $667 forward 7 unknown #
vertex $-1 $325 $668 #
ellipse-curve $-1 47.65633578151926 7.2887039715334048 7.8661570790131492 0.81915205242281985 0 0.57357642473473569 0.28678821236736785 0 -0.40957602621140993 1 I I #
coedge $-1 $487 $487 $-1 $669 reversed $328 $-1 #
edge $-1 $670 0 $670 6.2831853071796004 $329 $671 forward 7 unknown #
vertex $-1 $332 $672 #
ellipse-curve $-1 47.65633578151926 9.3053854495389494 7.8661570790131492 0.81915205242281985 0 0.57357642473473569 0.28678821236736785 0 -0.40957602621140993 1 I I #
coedge $-1 $491 $491 $-1 $673 reversed $335 $-1 #
edge $-1 $674 0 $674 6.2831853071796004 $336 $675 forward 7 unknown #
vertex $-1 $339 $676 #
ellipse-curve $-1 47.65633578151926 11.322066927544494 7.8661570790131492 0.81915205242281985 0 0.57357642473473569 0.28678821236736785 0 -0.40957602621140993 1 I I #
face $-1 $-1 $355 $51 $-1 $677 reversed single #
loop $-1 $-1 $511 $340 #
plane-surface $-1 0 28.336281003593999 0 0 -1 0 0 0 -1 forward_v I I I I #
coedge $-1 $678 $509 $512 $679 forward $341 $-1 #
coedge $-1 $515 $343 $344 $503 reversed $215 $-1 #
coedge $-1 $509 $678 $343 $501 reversed $341 $-1 #
edge $-1 $516 -12.054010243626088 $680 12.054010243626088 $500 $681 forward 7 unknown #
coedge $-1 $345 $344 $678 $682 forward $137 $-1 #
edge $-1 $507 -50.588702047791983 $680 50.588702047791983 $499 $683 forward 7 unknown #
coedge $-1 $512 $511 $345 $505 reversed $496 $-1 #
edge $-1 $684 -50.588702047791983 $506 50.588702047791983 $504 $685 forward 7 unknown #
vertex $-1 $347 $686 #
vertex $-1 $518 $687 #
straight-curve $-1 50.588702047791983 0 -12.054010243626088 0 -1 0 I I #
coedge $-1 $498 $500 $348 $510 reversed $341 $-1 #
edge $-1 $513 -28.336281003593999 $516 28.336281003593999 $509 $688 forward 7 unknown #
coedge $-1 $504 $349 $354 $519 forward $496 $-1 #
coedge $-1 $349 $504 $498 $679 reversed $496 $-1 #
vertex $-1 $350 $689 #
straight-curve $-1 0 28.336281003593999 12.054010243626088 -1 0 0 I I #
coedge $-1 $351 $499 $353 $518 reversed $215 $-1 #
vertex $-1 $510 $690 #
straight-curve $-1 0 -28.336281003593999 12.054010243626088 1 0 0 I I #
edge $-1 $356 -12.054010243626088 $507 12.054010243626088 $353 $691 forward 7 unknown #
edge $-1 $357 -12.054010243626088 $506 12.054010243626088 $354 $692 forward 7 unknown #
point $-1 50.588702047791983 -28.336281003593999 12.054010243626088 #
point $-1 50.588702047791983 28.336281003593999 12.054010243626088 #
face $-1 $-1 $532 $52 $-1 $693 reversed single #
loop $-1 $-1 $528 $359 #
plane-surface $-1 0 0 -12.054010243626088 0 0 1 1 0 0 forward_v I I I I #
coedge $-1 $694 $695 $367 $536 forward $360 $-1 #
coedge $-1 $362 $540 $530 $696 forward $223 $-1 #
edge $-1 $534 -16.794023513048224 $372 -6.2904914680433279 $362 $697 forward 7 unknown #
coedge $-1 $698 $368 $363 $529 forward $523 $-1 #
edge $-1 $373 6.2904914680433279 $533 16.794023513048224 $528 $699 forward 7 unknown #
coedge $-1 $700 $365 $526 $696 reversed $532 $-1 #
coedge $-1 $365 $700 $698 $701 reversed $532 $-1 #
loop $-1 $-1 $365 $522 #
vertex $-1 $701 $702 #
vertex $-1 $366 $703 #
straight-curve $-1 -45.329994310353868 -28.336281003593999 0 0 0 1 I I #
edge $-1 $541 -12.054010243626088 $538 12.054010243626088 $525 $704 forward 7 unknown #
coedge $-1 $368 $698 $694 $705 forward $523 $-1 #
vertex $-1 $369 $706 #
straight-curve $-1 -23.979674089536463 -17.832748958589104 -12.054010243626088 1 0 0 I I #
coedge $-1 $526 $370 $695 $707 forward $223 $-1 #
vertex $-1 $707 $708 #
straight-curve $-1 -23.979674089536463 -17.832748958589104 12.054010243626088 -1 0 0 I I #
point $-1 -45.329994310353868 -17.832748958589104 12.054010243626088 #
point $-1 -45.329994310353868 -17.832748958589104 -12.054010243626088 #
face $-1 $-1 $709 $53 $-1 $710 reversed single #
loop $-1 $-1 $551 $375 #
plane-surface $-1 0 0 12.054010243626088 0 0 1 1 0 0 forward_v I I I I #
coedge $-1 $378 $556 $711 $712 forward $231 $-1 #
edge $-1 $713 -16.794023513048224 $554 -6.2904914680433297 $378 $714 forward 7 unknown #
coedge $-1 $380 $379 $715 $716 reversed $145 $-1 #
coedge $-1 $717 $385 $380 $552 forward $546 $-1 #
edge $-1 $553 6.2904914680433297 $718 16.794023513048224 $551 $719 forward 7 unknown #
vertex $-1 $386 $720 #
vertex $-1 $384 $721 #
straight-curve $-1 -45.329994310353868 17.832748958589107 0 0 0 -1 I I #
coedge $-1 $548 $383 $388 $562 forward $231 $-1 #
straight-curve $-1 -23.979674089536463 17.832748958589107 -12.054010243626088 -1 0 0 I I #
coedge $-1 $385 $717 $387 $561 forward $546 $-1 #
straight-curve $-1 -23.979674089536463 17.832748958589107 12.054010243626088 1 0 0 I I #
coedge $-1 $388 $387 $722 $723 forward $376 $-1 #
edge $-1 $724 -28.336281003593999 $390 -17.832748958589107 $387 $725 forward 7 unknown #
edge $-1 $389 17.832748958589107 $726 28.336281003593999 $388 $727 forward 7 unknown #
point $-1 -50.588702047791983 17.832748958589107 -12.054010243626088 #
point $-1 -50.588702047791983 17.832748958589107 12.054010243626088 #
loop $-1 $-1 $400 $392 #
plane-surface $-1 -50.588702047791983 0 0 1 0 0 0 0 -1 forward_v I I I I #
coedge $-1 $568 $395 $397 $572 reversed $239 $-1 #
coedge $-1 $395 $567 $728 $729 reversed $239 $-1 #
coedge $-1 $403 $398 $395 $570 forward $393 $-1 #
edge $-1 $573 -15.536112640587916 $730 -2.9944925246864003 $569 $731 forward 7 unknown #
coedge $-1 $397 $396 $576 $732 reversed $149 $-1 #
edge $-1 $733 -8.6223131303995443e-015 $573 15.127927376569353 $567 $734 forward 7 unknown #
vertex $-1 $399 $735 #
straight-curve $-1 -38.047081931890467 -5.1393259720831335 12.054010243626088 0 1 0 I I #
coedge $-1 $728 $400 $403 $580 reversed $565 $-1 #
coedge $-1 $400 $728 $571 $732 forward $565 $-1 #
vertex $-1 $401 $736 #
straight-curve $-1 -50.588702047791983 -14.209058313276056 43.737224746662775 0 0 1 I I #
straight-curve $-1 -50.588702047791976 -14.209058313276056 3.5945805004831612 -0.82903756765294845 0 -0.55919291073839883 I I #
edge $-1 $730 6.3482455750564775 $404 14.209058313276056 $575 $737 forward 7 unknown #
point $-1 -50.588702047791983 -14.209058313276056 12.054010243626088 #
point $-1 -38.047081931890467 -14.209058313276056 12.054010243626088 #
edge $-1 $738 1 $738 0 $407 $-1 forward 7 unknown #
vertex $-1 $408 $739 #
ellipse-curve $-1 -41.375742357460773 -10.278651944166267 3.4623792460456553 -0.55919291073839883 0 0.82903756765294845 1.2435563514794228 0 0.83878936610759824 1 I I #
point $-1 -43.074335638361809 -10.278651944166267 8.6630847381622242 #
plane-surface $-1 0 0 12.054010243626088 0 0 1 1 0 0 forward_v I I I I #
coedge $-1 $598 $597 $590 $740 forward $412 $-1 #
coedge $-1 $590 $414 $416 $594 reversed $254 $-1 #
coedge $-1 $414 $589 $588 $740 reversed $254 $-1 #
coedge $-1 $422 $417 $414 $592 forward $423 $-1 #
edge $-1 $595 7.0062662320385485 $741 12.870998764584002 $591 $742 forward 7 unknown #
coedge $-1 $416 $415 $598 $743 reversed $158 $-1 #
edge $-1 $744 -101.17740409558397 $595 -90.952554747464859 $589 $745 forward 7 unknown #
vertex $-1 $418 $746 #
straight-curve $-1 44.723969515246552 -7.2358065809565968 12.054010243626081 0 -1 0 I I #
coedge $-1 $588 $419 $422 $602 reversed $412 $-1 #
coedge $-1 $419 $588 $593 $743 forward $412 $-1 #
vertex $-1 $420 $747 #
straight-curve $-1 50.588702047791983 -11.110477365237283 72.295477921598732 0 0 1 I I #
straight-curve $-1 -7.4442716572946637 -11.110477365237283 86.557982138110816 0.57357642473473569 0 -0.81915205242281985 I I #
edge $-1 $741 -17.832748958589104 $424 -11.110477365237283 $597 $748 forward 7 unknown #
point $-1 50.588702047791983 -11.110477365237283 12.054010243626088 #
point $-1 44.72396951524653 -11.110477365237283 12.054010243626095 #
edge $-1 $749 1 $749 0 $427 $-1 forward 7 unknown #
vertex $-1 $428 $750 #
ellipse-curve $-1 46.837183729096431 -16.488294639918738 7.2925806542784093 0.81915205242281985 0 0.57357642473473569 0.28678821236736785 0 -0.40957602621140993 1 I I #
point $-1 47.943123993886616 -16.488294639918738 7.4565810528017353 #
edge $-1 $751 1 $751 0 $431 $-1 forward 7 unknown #
vertex $-1 $432 $752 #
ellipse-curve $-1 46.837183729096431 -14.471613161913192 7.2925806542784093 0.81915205242281985 0 0.57357642473473569 0.28678821236736785 0 -0.40957602621140993 1 I I #
point $-1 47.943123993886616 -14.471613161913192 7.4565810528017353 #
edge $-1 $753 1 $753 0 $435 $-1 forward 7 unknown #
vertex $-1 $436 $754 #
ellipse-curve $-1 46.837183729096431 -12.454931683907645 7.2925806542784093 0.81915205242281985 0 0.57357642473473569 0.28678821236736785 0 -0.40957602621140993 1 I I #
point $-1 47.943123993886616 -12.454931683907645 7.4565810528017353 #
plane-surface $-1 0 0 12.054010243626088 0 0 1 1 0 0 forward_v I I I I #
coedge $-1 $628 $627 $620 $755 forward $440 $-1 #
coedge $-1 $620 $442 $444 $624 reversed $283 $-1 #
coedge $-1 $442 $619 $618 $755 reversed $283 $-1 #
coedge $-1 $450 $445 $442 $622 forward $451 $-1 #
edge $-1 $625 7.0062662320385485 $756 12.870998764584002 $621 $757 forward 7 unknown #
coedge $-1 $444 $443 $628 $758 reversed $177 $-1 #
edge $-1 $759 -101.17740409558397 $625 -90.952554747464859 $619 $760 forward 7 unknown #
vertex $-1 $446 $761 #
straight-curve $-1 44.723969515246552 -1.291556928093561 12.054010243626081 0 -1 0 I I #
coedge $-1 $618 $447 $450 $632 reversed $440 $-1 #
coedge $-1 $447 $618 $623 $758 forward $440 $-1 #
vertex $-1 $448 $762 #
straight-curve $-1 50.588702047791983 0.77802194048878714 72.295477921598732 0 0 1 I I #
straight-curve $-1 -7.4442716572946637 0.77802194048878714 86.557982138110816 0.57357642473473569 0 -0.81915205242281985 I I #
edge $-1 $756 -5.9442496528630313 $452 0.77802194048878714 $627 $763 forward 7 unknown #
point $-1 50.588702047791983 0.77802194048878714 12.054010243626088 #
point $-1 44.72396951524653 0.77802194048878714 12.054010243626095 #
edge $-1 $764 1 $764 0 $455 $-1 forward 7 unknown #
vertex $-1 $456 $765 #
ellipse-curve $-1 46.837183729096431 -4.5997953341926667 7.2925806542784093 0.81915205242281985 0 0.57357642473473569 0.28678821236736785 0 -0.40957602621140993 1 I I #
point $-1 47.943123993886616 -4.5997953341926667 7.4565810528017353 #
edge $-1 $766 1 $766 0 $459 $-1 forward 7 unknown #
vertex $-1 $460 $767 #
ellipse-curve $-1 46.837183729096431 -2.5831138561871221 7.2925806542784093 0.81915205242281985 0 0.57357642473473569 0.28678821236736785 0 -0.40957602621140993 1 I I #
point $-1 47.943123993886616 -2.5831138561871221 7.4565810528017353 #
edge $-1 $768 1 $768 0 $463 $-1 forward 7 unknown #
vertex $-1 $464 $769 #
ellipse-curve $-1 46.837183729096431 -0.56643237818157743 7.2925806542784093 0.81915205242281985 0 0.57357642473473569 0.28678821236736785 0 -0.40957602621140993 1 I I #
point $-1 47.943123993886616 -0.56643237818157743 7.4565810528017353 #
plane-surface $-1 0 0 12.054010243626088 0 0 1 1 0 0 forward_v I I I I #
coedge $-1 $658 $657 $650 $770 forward $468 $-1 #
coedge $-1 $650 $470 $472 $654 reversed $312 $-1 #
coedge $-1 $470 $649 $648 $770 reversed $312 $-1 #
coedge $-1 $478 $473 $470 $652 forward $479 $-1 #
edge $-1 $655 7.0062662320385485 $771 12.870998764584002 $651 $772 forward 7 unknown #
coedge $-1 $472 $471 $658 $773 reversed $196 $-1 #
edge $-1 $774 -101.17740409558397 $655 -90.952554747464859 $649 $775 forward 7 unknown #
vertex $-1 $474 $776 #
straight-curve $-1 44.723969515246552 4.6526927247694747 12.054010243626081 0 -1 0 I I #
coedge $-1 $648 $475 $478 $662 reversed $468 $-1 #
coedge $-1 $475 $648 $653 $773 forward $468 $-1 #
vertex $-1 $476 $777 #
straight-curve $-1 50.588702047791983 12.66652124621486 72.295477921598732 0 0 1 I I #
straight-curve $-1 -7.4442716572946637 12.66652124621486 86.557982138110816 0.57357642473473569 0 -0.81915205242281985 I I #
edge $-1 $771 5.9442496528630402 $480 12.66652124621486 $657 $778 forward 7 unknown #
point $-1 50.588702047791983 12.66652124621486 12.054010243626088 #
point $-1 44.72396951524653 12.66652124621486 12.054010243626095 #
edge $-1 $779 1 $779 0 $483 $-1 forward 7 unknown #
vertex $-1 $484 $780 #
ellipse-curve $-1 46.837183729096431 7.2887039715334048 7.2925806542784093 0.81915205242281985 0 0.57357642473473569 0.28678821236736785 0 -0.40957602621140993 1 I I #
point $-1 47.943123993886616 7.2887039715334048 7.4565810528017353 #
edge $-1 $781 1 $781 0 $487 $-1 forward 7 unknown #
vertex $-1 $488 $782 #
ellipse-curve $-1 46.837183729096431 9.3053854495389494 7.2925806542784093 0.81915205242281985 0 0.57357642473473569 0.28678821236736785 0 -0.40957602621140993 1 I I #
point $-1 47.943123993886616 9.3053854495389494 7.4565810528017353 #
edge $-1 $783 1 $783 0 $491 $-1 forward 7 unknown #
vertex $-1 $492 $784 #
ellipse-curve $-1 46.837183729096431 11.322066927544494 7.2925806542784093 0.81915205242281985 0 0.57357642473473569 0.28678821236736785 0 -0.40957602621140993 1 I I #
point $-1 47.943123993886616 11.322066927544494 7.4565810528017353 #
plane-surface $-1 50.588702047791983 0 0 -1 0 0 0 0 1 forward_v I I I I #
coedge $-1 $500 $498 $502 $682 reversed $341 $-1 #
edge $-1 $513 -12.054010243626088 $684 12.054010243626088 $512 $785 forward 7 unknown #
vertex $-1 $682 $786 #
straight-curve $-1 -50.588702047791983 -28.336281003593999 0 0 0 -1 I I #
edge $-1 $680 -28.336281003593999 $684 28.336281003593999 $678 $787 forward 7 unknown #
straight-curve $-1 0 -28.336281003593999 -12.054010243626088 -1 0 0 I I #
vertex $-1 $505 $788 #
straight-curve $-1 0 28.336281003593999 -12.054010243626088 1 0 0 I I #
point $-1 50.588702047791983 28.336281003593999 -12.054010243626088 #
point $-1 50.588702047791983 -28.336281003593999 -12.054010243626088 #
straight-curve $-1 -50.588702047791983 0 12.054010243626088 0 -1 0 I I #
point $-1 -50.588702047791983 28.336281003593999 12.054010243626088 #
point $-1 -50.588702047791983 -28.336281003593999 12.054010243626088 #
straight-curve $-1 50.588702047791983 -28.336281003593999 0 0 0 -1 I I #
straight-curve $-1 50.588702047791983 28.336281003593999 0 0 0 -1 I I #
plane-surface $-1 0 -28.336281003593999 0 0 1 0 0 0 1 forward_v I I I I #
coedge $-1 $789 $525 $537 $705 reversed $360 $-1 #
coedge $-1 $525 $789 $540 $707 reversed $360 $-1 #
edge $-1 $790 -50.588702047791983 $534 -45.329994310353868 $530 $791 forward 7 unknown #
straight-curve $-1 -45.329994310353868 -11.542257490545776 12.054010243626088 0 1 0 I I #
coedge $-1 $537 $528 $531 $701 forward $523 $-1 #
straight-curve $-1 -45.329994310353868 -11.542257490545776 -12.054010243626088 0 -1 0 I I #
coedge $-1 $531 $530 $789 $792 forward $532 $-1 #
edge $-1 $533 45.329994310353868 $793 50.588702047791983 $531 $794 forward 7 unknown #
point $-1 -45.329994310353868 -28.336281003593999 -12.054010243626088 #
point $-1 -45.329994310353868 -28.336281003593999 12.054010243626088 #
straight-curve $-1 -50.588702047791983 -17.832748958589104 0 0 0 -1 I I #
edge $-1 $793 -28.336281003593999 $538 -17.832748958589104 $694 $795 forward 7 unknown #
point $-1 -50.588702047791983 -17.832748958589104 -12.054010243626088 #
edge $-1 $541 17.832748958589104 $790 28.336281003593999 $695 $796 forward 7 unknown #
point $-1 -50.588702047791983 -17.832748958589104 12.054010243626088 #
loop $-1 $-1 $715 $545 #
plane-surface $-1 0 28.336281003593999 0 0 -1 0 0 0 -1 forward_v I I I I #
coedge $-1 $722 $715 $548 $712 reversed $709 $-1 #
edge $-1 $726 -50.588702047791983 $713 -45.329994310353868 $711 $797 forward 7 unknown #
vertex $-1 $549 $798 #
straight-curve $-1 -45.329994310353868 11.542257490545778 -12.054010243626088 0 -1 0 I I #
coedge $-1 $711 $799 $550 $716 forward $709 $-1 #
edge $-1 $718 -12.054010243626088 $713 12.054010243626088 $715 $800 forward 7 unknown #
coedge $-1 $558 $551 $799 $801 forward $546 $-1 #
vertex $-1 $801 $802 #
straight-curve $-1 -45.329994310353868 11.542257490545778 12.054010243626088 0 1 0 I I #
point $-1 -45.329994310353868 17.832748958589107 12.054010243626088 #
point $-1 -45.329994310353868 17.832748958589107 -12.054010243626088 #
coedge $-1 $799 $711 $560 $723 reversed $709 $-1 #
edge $-1 $724 -12.054010243626088 $726 12.054010243626088 $722 $803 forward 7 unknown #
vertex $-1 $801 $804 #
straight-curve $-1 -50.588702047791983 0 12.054010243626088 0 -1 0 I I #
vertex $-1 $712 $805 #
straight-curve $-1 -50.588702047791983 0 -12.054010243626088 0 1 0 I I #
coedge $-1 $576 $575 $568 $729 forward $565 $-1 #
edge $-1 $730 31.683214503036687 $733 40.142644246179621 $728 $806 forward 7 unknown #
vertex $-1 $580 $807 #
straight-curve $-1 -53.583194572478384 -6.3482455750564775 12.054010243626088 -1 0 0 I I #
edge $-1 $733 1.208919602973344 $577 9.0697323411929229 $576 $808 forward 7 unknown #
vertex $-1 $732 $809 #
straight-curve $-1 -50.588702047791976 -6.3482455750564775 3.5945805004831612 0.82903756765294845 0 0.55919291073839883 I I #
point $-1 -38.047081931890467 -6.3482455750564775 12.054010243626088 #
point $-1 -50.588702047791983 -14.209058313276056 3.5945805004831564 #
straight-curve $-1 -50.588702047791983 0 12.054010243626088 0 -1 0 I I #
vertex $-1 $583 $810 #
point $-1 -40.132186005981346 -10.278651944166267 4.3011686121532531 #
edge $-1 $741 60.241467677972643 $744 68.617174007198528 $588 $811 forward 7 unknown #
vertex $-1 $602 $812 #
straight-curve $-1 37.717703283207982 -17.832748958589104 12.054010243626095 1 0 0 I I #
edge $-1 $744 -10.596942377632507 $599 -3.8746707842806867 $598 $813 forward 7 unknown #
vertex $-1 $743 $814 #
straight-curve $-1 -7.4442716572946637 -17.832748958589104 86.557982138110816 -0.57357642473473569 0 0.81915205242281985 I I #
point $-1 44.72396951524653 -17.832748958589104 12.054010243626095 #
point $-1 50.588702047791983 -11.110477365237283 3.6783039144002032 #
straight-curve $-1 50.588702047791983 0 12.054010243626088 0 1 0 I I #
vertex $-1 $605 $815 #
point $-1 47.1239719414638 -16.488294639918738 6.883004628066999 #
vertex $-1 $609 $816 #
point $-1 47.1239719414638 -14.471613161913192 6.883004628066999 #
vertex $-1 $613 $817 #
point $-1 47.1239719414638 -12.454931683907645 6.883004628066999 #
edge $-1 $756 60.241467677972643 $759 68.617174007198528 $618 $818 forward 7 unknown #
vertex $-1 $632 $819 #
straight-curve $-1 37.717703283207982 -5.9442496528630313 12.054010243626095 1 0 0 I I #
edge $-1 $759 -4.6526927247694703 $629 2.0695788685823482 $628 $820 forward 7 unknown #
vertex $-1 $758 $821 #
straight-curve $-1 -7.4442716572946637 -5.9442496528630313 86.557982138110816 -0.57357642473473569 0 0.81915205242281985 I I #
point $-1 44.72396951524653 -5.9442496528630313 12.054010243626095 #
point $-1 50.588702047791983 0.77802194048878714 3.6783039144002032 #
straight-curve $-1 50.588702047791983 0 12.054010243626088 0 1 0 I I #
vertex $-1 $635 $822 #
point $-1 47.1239719414638 -4.5997953341926667 6.883004628066999 #
vertex $-1 $639 $823 #
point $-1 47.1239719414638 -2.5831138561871221 6.883004628066999 #
vertex $-1 $643 $824 #
point $-1 47.1239719414638 -0.56643237818157743 6.883004628066999 #
edge $-1 $771 60.241467677972643 $774 68.617174007198528 $648 $825 forward 7 unknown #
vertex $-1 $662 $826 #
straight-curve $-1 37.717703283207982 5.9442496528630402 12.054010243626095 1 0 0 I I #
edge $-1 $774 1.2915569280935655 $659 8.0138285214453848 $658 $827 forward 7 unknown #
vertex $-1 $773 $828 #
straight-curve $-1 -7.4442716572946637 5.9442496528630402 86.557982138110816 -0.57357642473473569 0 0.81915205242281985 I I #
point $-1 44.72396951524653 5.9442496528630402 12.054010243626095 #
point $-1 50.588702047791983 12.66652124621486 3.6783039144002032 #
straight-curve $-1 50.588702047791983 0 12.054010243626088 0 1 0 I I #
vertex $-1 $665 $829 #
point $-1 47.1239719414638 7.2887039715334048 6.883004628066999 #
vertex $-1 $669 $830 #
point $-1 47.1239719414638 9.3053854495389494 6.883004628066999 #
vertex $-1 $673 $831 #
point $-1 47.1239719414638 11.322066927544494 6.883004628066999 #
straight-curve $-1 -50.588702047791983 28.336281003593999 0 0 0 -1 I I #
point $-1 -50.588702047791983 -28.336281003593999 -12.054010243626088 #
straight-curve $-1 -50.588702047791983 0 -12.054010243626088 0 1 0 I I #
point $-1 -50.588702047791983 28.336281003593999 -12.054010243626088 #
coedge $-1 $695 $694 $700 $792 reversed $360 $-1 #
vertex $-1 $707 $832 #
straight-curve $-1 0 -28.336281003593999 12.054010243626088 1 0 0 I I #
edge $-1 $790 -12.054010243626088 $793 12.054010243626088 $789 $833 forward 7 unknown #
vertex $-1 $705 $834 #
straight-curve $-1 0 -28.336281003593999 -12.054010243626088 -1 0 0 I I #
straight-curve $-1 -50.588702047791983 0 -12.054010243626088 0 1 0 I I #
straight-curve $-1 -50.588702047791983 0 12.054010243626088 0 -1 0 I I #
straight-curve $-1 0 28.336281003593999 -12.054010243626088 1 0 0 I I #
point $-1 -45.329994310353868 28.336281003594003 -12.054010243626088 #
coedge $-1 $715 $722 $717 $801 reversed $709 $-1 #
straight-curve $-1 -45.329994310353868 28.336281003593999 0 0 0 -1 I I #
edge $-1 $718 45.329994310353868 $724 50.588702047791983 $799 $835 forward 7 unknown #
point $-1 -45.329994310353868 28.336281003594003 12.054010243626088 #
straight-curve $-1 -50.588702047791983 28.336281003593999 0 0 0 -1 I I #
point $-1 -50.588702047791983 28.336281003593999 12.054010243626088 #
point $-1 -50.588702047791983 28.336281003593999 -12.054010243626088 #
straight-curve $-1 -50.588702047791983 -6.3482455750564775 43.737224746662775 0 0 -1 I I #
point $-1 -50.588702047791983 -6.3482455750564775 12.054010243626088 #
straight-curve $-1 -50.588702047791983 -5.1393259720831335 3.5945805004831564 0 -1 0 I I #
point $-1 -50.588702047791983 -6.3482455750564775 3.5945805004831564 #
point $-1 -40.536952991353168 -10.278651944166267 2.2188228945662321 #
straight-curve $-1 50.588702047791983 -17.832748958589104 72.295477921598732 0 0 -1 I I #
point $-1 50.588702047791983 -17.832748958589104 12.054010243626088 #
straight-curve $-1 50.588702047791983 -7.2358065809565968 3.6783039144002032 0 1 0 I I #
point $-1 50.588702047791983 -17.832748958589104 3.6783039144002032 #
point $-1 46.42760770288502 -16.488294639918738 7.0057924419110416 #
point $-1 46.42760770288502 -14.471613161913192 7.0057924419110416 #
point $-1 46.42760770288502 -12.454931683907645 7.0057924419110416 #
straight-curve $-1 50.588702047791983 -5.9442496528630313 72.295477921598732 0 0 -1 I I #
point $-1 50.588702047791983 -5.9442496528630313 12.054010243626088 #
straight-curve $-1 50.588702047791983 -1.291556928093561 3.6783039144002032 0 1 0 I I #
point $-1 50.588702047791983 -5.9442496528630313 3.6783039144002032 #
point $-1 46.42760770288502 -4.5997953341926667 7.0057924419110416 #
point $-1 46.42760770288502 -2.5831138561871221 7.0057924419110416 #
point $-1 46.42760770288502 -0.56643237818157743 7.0057924419110416 #
straight-curve $-1 50.588702047791983 5.9442496528630402 72.295477921598732 0 0 -1 I I #
point $-1 50.588702047791983 5.9442496528630402 12.054010243626088 #
straight-curve $-1 50.588702047791983 4.6526927247694747 3.6783039144002032 0 1 0 I I #
point $-1 50.588702047791983 5.9442496528630402 3.6783039144002032 #
point $-1 46.42760770288502 7.2887039715334048 7.0057924419110416 #
point $-1 46.42760770288502 9.3053854495389494 7.0057924419110416 #
point $-1 46.42760770288502 11.322066927544494 7.0057924419110416 #
point $-1 -50.588702047791983 -28.336281003593999 12.054010243626088 #
straight-curve $-1 -50.588702047791983 -28.336281003593999 0 0 0 -1 I I #
point $-1 -50.588702047791983 -28.336281003593999 -12.054010243626088 #
straight-curve $-1 0 28.336281003593999 12.054010243626088 -1 0 0 I I #
End-of-ACIS-data 