500 0 6 0           
7 Unknown 11 ACIS 5.0 NT 24 Fri Mar 26 14:23:22 1999 
-1 9.9999999999999995e-007 1e-010 
body $-1 $6 $-1 $7 #
body $-1 $8 $-1 $9 #
body $-1 $10 $-1 $11 #
body $-1 $12 $-1 $13 #
body $-1 $14 $-1 $15 #
body $-1 $16 $-1 $17 #
lump $-1 $-1 $18 $0 #
transform $-1 1 0 0 0 1 0 0 0 1 74.875331888790555 33.784274403399813 10.11538313903851 1 rotate no_reflect no_shear #
lump $-1 $-1 $19 $1 #
transform $-1 1 0 0 0 1 0 0 0 1 74.875331888790555 33.784274403399813 10.11538313903851 1 rotate no_reflect no_shear #
lump $-1 $-1 $20 $2 #
transform $-1 1 0 0 0 1 0 0 0 1 74.875331888790555 33.784274403399813 10.11538313903851 1 rotate no_reflect no_shear #
lump $-1 $-1 $21 $3 #
transform $-1 1 0 0 0 1 0 0 0 1 74.875331888790555 33.784274403399813 10.11538313903851 1 rotate no_reflect no_shear #
lump $-1 $-1 $22 $4 #
transform $-1 1 0 0 0 1 0 0 0 1 74.875331888790555 33.784274403399813 10.11538313903851 1 rotate no_reflect no_shear #
lump $-1 $-1 $23 $5 #
transform $-1 1 0 0 0 1 0 0 0 1 74.875331888790555 33.784274403399813 10.11538313903851 1 rotate no_reflect no_shear #
shell $-1 $-1 $-1 $24 $-1 $6 #
shell $-1 $-1 $-1 $25 $-1 $8 #
shell $-1 $-1 $-1 $26 $-1 $10 #
shell $-1 $-1 $-1 $27 $-1 $12 #
shell $-1 $-1 $-1 $28 $-1 $14 #
shell $-1 $-1 $-1 $29 $-1 $16 #
face $-1 $30 $31 $18 $-1 $32 forward single #
face $-1 $33 $34 $19 $-1 $35 forward single #
face $-1 $36 $37 $20 $-1 $38 forward single #
face $-1 $39 $40 $21 $-1 $41 reversed single #
face $-1 $42 $43 $22 $-1 $44 forward single #
face $-1 $45 $46 $23 $-1 $47 forward single #
face $-1 $48 $49 $18 $-1 $50 reversed single #
loop $-1 $-1 $51 $24 #
plane-surface $-1 0 0 10.11538313903851 0 0 1 1 0 0 forward_v I I I I #
face $-1 $52 $53 $19 $-1 $54 reversed single #
loop $-1 $-1 $55 $25 #
plane-surface $-1 -74.875331888790555 0 0 1 0 0 0 0 -1 forward_v I I I I #
face $-1 $56 $57 $20 $-1 $58 reversed single #
loop $-1 $-1 $59 $26 #
plane-surface $-1 74.875331888790555 0 0 -1 0 0 0 0 1 forward_v I I I I #
face $-1 $60 $61 $21 $-1 $62 reversed single #
loop $-1 $-1 $63 $27 #
plane-surface $-1 58.536566825275848 -108.65960729533057 134.67366286863819 -1 0 0 0 -0.50000000669873634 0.8660253999169214 forward_v I I I I #
face $-1 $64 $65 $22 $-1 $66 forward single #
loop $-1 $67 $68 $28 #
cone-surface $-1 34.606224906388576 -27.734005807239328 4.7656091995560681 0 0.50000000669873634 -0.8660253999169214 2.5 0 0 1 I I 0 1 2.5 forward I I I I #
face $-1 $69 $70 $23 $-1 $71 forward single #
loop $-1 $72 $73 $29 #
cone-surface $-1 48.964430057720946 -27.734005807239328 4.7656091995560681 0 0.50000000669873634 -0.8660253999169214 2.5 0 0 1 I I 0 1 2.5 forward I I I I #
face $-1 $74 $75 $18 $-1 $76 reversed single #
loop $-1 $-1 $77 $30 #
plane-surface $-1 0 0 -10.11538313903851 0 0 1 1 0 0 forward_v I I I I #
coedge $-1 $78 $79 $80 $81 forward $31 $-1 #
face $-1 $82 $83 $19 $-1 $84 forward single #
loop $-1 $-1 $85 $33 #
plane-surface $-1 0 33.784274403399813 0 0 -1 0 0 0 -1 forward_v I I I I #
coedge $-1 $86 $87 $88 $89 forward $34 $-1 #
face $-1 $90 $91 $20 $-1 $92 forward single #
loop $-1 $-1 $93 $36 #
plane-surface $-1 0 33.784274403399813 0 0 -1 0 0 0 -1 forward_v I I I I #
coedge $-1 $94 $95 $96 $97 forward $37 $-1 #
face $-1 $98 $99 $21 $-1 $100 reversed single #
loop $-1 $-1 $101 $39 #
plane-surface $-1 41.785327482054754 -33.784274403399806 4.9857843828340833 0 -0.50000000669873634 0.8660253999169214 1 0 0 forward_v I I I I #
coedge $-1 $102 $103 $104 $105 reversed $40 $-1 #
face $-1 $-1 $106 $22 $-1 $107 forward single #
loop $-1 $108 $109 $42 #
cone-surface $-1 34.606224906388576 -25.501099957444275 0.89810288827969309 0 0.50000000669873634 -0.8660253999169214 1.25 0 0 1 I I -0.70710678118654746 0.70710678118654746 1.25 forward I I I I #
loop $-1 $-1 $110 $28 #
coedge $-1 $68 $68 $111 $112 reversed $43 $-1 #
face $-1 $-1 $113 $23 $-1 $114 forward single #
loop $-1 $115 $116 $45 #
cone-surface $-1 48.964430057720946 -25.501099957444275 0.89810288827969309 0 0.50000000669873634 -0.8660253999169214 1.25 0 0 1 I I -0.70710678118654746 0.70710678118654746 1.25 forward I I I I #
loop $-1 $-1 $117 $29 #
coedge $-1 $73 $73 $118 $119 reversed $46 $-1 #
face $-1 $120 $121 $18 $-1 $122 reversed single #
loop $-1 $-1 $123 $48 #
plane-surface $-1 0 -33.784274403399813 0 0 1 0 0 0 1 forward_v I I I I #
coedge $-1 $124 $125 $126 $127 forward $49 $-1 #
coedge $-1 $128 $51 $129 $130 forward $31 $-1 #
coedge $-1 $51 $128 $131 $132 forward $31 $-1 #
coedge $-1 $133 $134 $51 $81 reversed $135 $-1 #
edge $-1 $136 -33.784274403399813 $137 33.784274403399813 $80 $138 forward 7 unknown #
face $-1 $139 $140 $19 $-1 $141 reversed single #
loop $-1 $-1 $88 $52 #
plane-surface $-1 -80.2154188266407 0 -6.4147958456973369 0 0 1 1 0 0 forward_v I I I I #
coedge $-1 $142 $143 $87 $144 forward $53 $-1 #
coedge $-1 $145 $55 $146 $147 reversed $34 $-1 #
coedge $-1 $55 $145 $85 $144 reversed $34 $-1 #
coedge $-1 $148 $149 $55 $89 reversed $83 $-1 #
edge $-1 $150 -33.784274403399813 $151 33.784274403399813 $88 $152 forward 7 unknown #
face $-1 $153 $154 $20 $-1 $155 reversed single #
loop $-1 $-1 $156 $56 #
plane-surface $-1 80.2154188266407 0 -6.4147958456973369 0 0 1 1 0 0 forward_v I I I I #
coedge $-1 $157 $158 $94 $159 forward $57 $-1 #
coedge $-1 $160 $59 $93 $159 reversed $37 $-1 #
coedge $-1 $59 $160 $161 $162 reversed $37 $-1 #
coedge $-1 $163 $164 $59 $97 reversed $91 $-1 #
edge $-1 $165 -33.784274403399813 $166 33.784274403399813 $96 $167 forward 7 unknown #
face $-1 $168 $169 $21 $-1 $170 forward single #
loop $-1 $-1 $171 $60 #
plane-surface $-1 25.03408813883366 -108.65960729533057 134.67366286863819 1 0 0 0 0.50000000669873634 -0.8660253999169214 forward_v I I I I #
coedge $-1 $172 $173 $174 $175 reversed $61 $-1 #
coedge $-1 $103 $63 $176 $177 reversed $40 $-1 #
coedge $-1 $63 $102 $172 $178 reversed $40 $-1 #
coedge $-1 $174 $179 $63 $105 forward $169 $-1 #
edge $-1 $180 20.545529244265474 $181 29.430254753743178 $104 $182 forward 7 unknown #
loop $-1 $-1 $111 $64 #
plane-surface $-1 41.785327482054754 -33.784274403399806 4.9857843828340833 0 -0.50000000669873634 0.8660253999169214 1 0 0 forward_v I I I I #
loop $-1 $-1 $183 $42 #
coedge $-1 $109 $109 $110 $184 reversed $65 $-1 #
coedge $-1 $110 $110 $109 $184 forward $67 $-1 #
coedge $-1 $111 $111 $68 $112 forward $106 $-1 #
edge $-1 $185 5.2015336850983126e-016 $185 6.2831853071796013 $111 $186 forward 7 unknown #
loop $-1 $-1 $118 $69 #
plane-surface $-1 41.785327482054754 -33.784274403399806 4.9857843828340833 0 -0.50000000669873634 0.8660253999169214 1 0 0 forward_v I I I I #
loop $-1 $-1 $187 $45 #
coedge $-1 $116 $116 $117 $188 reversed $70 $-1 #
coedge $-1 $117 $117 $116 $188 forward $72 $-1 #
coedge $-1 $118 $118 $73 $119 forward $113 $-1 #
edge $-1 $189 5.2015336850983126e-016 $189 6.2831853071796013 $118 $190 forward 7 unknown #
face $-1 $191 $192 $18 $-1 $193 reversed single #
loop $-1 $-1 $194 $74 #
plane-surface $-1 -74.875331888790555 0 0 1 0 0 0 0 -1 forward_v I I I I #
coedge $-1 $195 $131 $194 $196 forward $75 $-1 #
coedge $-1 $197 $77 $195 $198 forward $49 $-1 #
coedge $-1 $77 $197 $199 $200 forward $49 $-1 #
coedge $-1 $134 $133 $77 $127 reversed $135 $-1 #
edge $-1 $201 -33.784274403399813 $202 33.784274403399813 $126 $203 forward 7 unknown #
coedge $-1 $79 $78 $204 $205 forward $31 $-1 #
coedge $-1 $206 $207 $78 $130 reversed $192 $-1 #
edge $-1 $137 -74.875331888790555 $208 74.875331888790555 $129 $209 forward 7 unknown #
coedge $-1 $123 $210 $79 $132 reversed $75 $-1 #
edge $-1 $211 -74.875331888790555 $136 74.875331888790555 $131 $212 forward 7 unknown #
coedge $-1 $126 $80 $210 $213 forward $135 $-1 #
coedge $-1 $80 $126 $206 $214 reversed $135 $-1 #
loop $-1 $-1 $134 $191 #
vertex $-1 $81 $215 #
vertex $-1 $81 $216 #
straight-curve $-1 74.875331888790555 0 10.11538313903851 0 1 0 I I #
face $-1 $217 $218 $19 $-1 $219 reversed single #
loop $-1 $-1 $220 $82 #
plane-surface $-1 -85.555505764490846 0 -8.2650894923679239 1 0 0 0 0 -1 forward_v I I I I #
coedge $-1 $221 $85 $222 $223 reversed $53 $-1 #
coedge $-1 $85 $221 $148 $224 reversed $53 $-1 #
edge $-1 $150 6.4147958456973369 $225 10.11538313903851 $85 $226 forward 7 unknown #
coedge $-1 $87 $86 $227 $228 reversed $34 $-1 #
coedge $-1 $229 $230 $86 $147 forward $231 $-1 #
edge $-1 $232 -10.11538313903851 $151 -6.4147958456973369 $146 $233 forward 7 unknown #
coedge $-1 $234 $88 $143 $224 forward $83 $-1 #
coedge $-1 $88 $234 $229 $235 forward $83 $-1 #
vertex $-1 $144 $236 #
vertex $-1 $235 $237 #
straight-curve $-1 -74.875331888790555 0 -6.4147958456973369 0 -1 0 I I #
face $-1 $238 $239 $20 $-1 $240 reversed single #
loop $-1 $-1 $241 $90 #
plane-surface $-1 85.555505764490846 0 -8.2650894923679239 -1 0 0 0 0 1 forward_v I I I I #
coedge $-1 $164 $163 $242 $243 forward $91 $-1 #
coedge $-1 $244 $93 $164 $245 reversed $57 $-1 #
coedge $-1 $93 $244 $246 $247 reversed $57 $-1 #
edge $-1 $248 -10.11538313903851 $166 -6.4147958456973369 $93 $249 forward 7 unknown #
coedge $-1 $95 $94 $250 $251 reversed $37 $-1 #
coedge $-1 $252 $253 $95 $162 forward $254 $-1 #
edge $-1 $165 6.4147958456973369 $255 10.11538313903851 $161 $256 forward 7 unknown #
coedge $-1 $156 $96 $253 $257 forward $91 $-1 #
coedge $-1 $96 $156 $157 $245 forward $91 $-1 #
vertex $-1 $162 $258 #
vertex $-1 $245 $259 #
straight-curve $-1 74.875331888790555 0 -6.4147958456973369 0 1 0 I I #
face $-1 $-1 $260 $21 $-1 $261 reversed single #
loop $-1 $-1 $104 $98 #
plane-surface $-1 0 0 10.11538313903851 0 0 1 1 0 0 forward_v I I I I #
coedge $-1 $262 $263 $264 $265 reversed $99 $-1 #
coedge $-1 $266 $101 $103 $178 forward $61 $-1 #
coedge $-1 $101 $266 $262 $267 forward $61 $-1 #
coedge $-1 $264 $104 $101 $175 forward $169 $-1 #
edge $-1 $181 -37.643903084248471 $268 -4.1414243978062828 $174 $269 forward 7 unknown #
coedge $-1 $270 $271 $102 $177 forward $260 $-1 #
edge $-1 $272 -62.351047051485018 $180 -57.221448295280581 $176 $273 forward 7 unknown #
edge $-1 $181 -10.259197374961538 $272 8.3739266479457192e-015 $103 $274 forward 7 unknown #
coedge $-1 $104 $264 $270 $275 forward $169 $-1 #
vertex $-1 $177 $276 #
vertex $-1 $105 $277 #
straight-curve $-1 58.536566825275848 -54.329803647665287 10.115383139038514 0 1 0 I I #
coedge $-1 $183 $183 $-1 $278 reversed $108 $-1 #
edge $-1 $279 0 $279 6.2831853071796004 $109 $280 forward 7 unknown #
vertex $-1 $112 $281 #
ellipse-curve $-1 34.606224906388576 -29.341911648660961 7.5505837609362949 0 -0.50000000669873634 0.8660253999169214 2.5 0 0 1 I I #
coedge $-1 $187 $187 $-1 $282 reversed $115 $-1 #
edge $-1 $283 0 $283 6.2831853071796004 $116 $284 forward 7 unknown #
vertex $-1 $119 $285 #
ellipse-curve $-1 48.964430057720946 -29.341911648660961 7.5505837609362949 0 -0.50000000669873634 0.8660253999169214 2.5 0 0 1 I I #
face $-1 $-1 $135 $18 $-1 $286 reversed single #
loop $-1 $-1 $206 $120 #
plane-surface $-1 0 33.784274403399813 0 0 -1 0 0 0 -1 forward_v I I I I #
coedge $-1 $204 $287 $123 $196 reversed $121 $-1 #
coedge $-1 $210 $123 $124 $198 reversed $75 $-1 #
edge $-1 $211 -10.11538313903851 $288 10.11538313903851 $194 $289 forward 7 unknown #
coedge $-1 $125 $124 $287 $290 forward $49 $-1 #
edge $-1 $202 -74.875331888790555 $288 74.875331888790555 $195 $291 forward 7 unknown #
coedge $-1 $207 $206 $125 $200 reversed $192 $-1 #
edge $-1 $292 -74.875331888790555 $201 74.875331888790555 $199 $293 forward 7 unknown #
vertex $-1 $127 $294 #
vertex $-1 $213 $295 #
straight-curve $-1 74.875331888790555 0 -10.11538313903851 0 -1 0 I I #
coedge $-1 $296 $194 $128 $205 reversed $121 $-1 #
edge $-1 $208 -33.784274403399813 $211 33.784274403399813 $204 $297 forward 7 unknown #
coedge $-1 $199 $129 $134 $214 forward $192 $-1 #
coedge $-1 $129 $199 $296 $298 reversed $192 $-1 #
vertex $-1 $130 $299 #
straight-curve $-1 0 33.784274403399813 10.11538313903851 -1 0 0 I I #
coedge $-1 $131 $195 $133 $213 reversed $75 $-1 #
vertex $-1 $205 $300 #
straight-curve $-1 0 -33.784274403399813 10.11538313903851 1 0 0 I I #
edge $-1 $136 -10.11538313903851 $202 10.11538313903851 $133 $301 forward 7 unknown #
edge $-1 $137 -10.11538313903851 $201 10.11538313903851 $134 $302 forward 7 unknown #
point $-1 74.875331888790555 -33.784274403399813 10.11538313903851 #
point $-1 74.875331888790555 33.784274403399813 10.11538313903851 #
face $-1 $-1 $231 $19 $-1 $303 reversed single #
loop $-1 $-1 $227 $139 #
plane-surface $-1 0 0 -10.11538313903851 0 0 1 1 0 0 forward_v I I I I #
coedge $-1 $304 $305 $221 $306 forward $140 $-1 #
coedge $-1 $143 $142 $220 $306 reversed $53 $-1 #
coedge $-1 $227 $307 $142 $223 forward $218 $-1 #
edge $-1 $308 -85.555505764490846 $225 -74.875331888790555 $142 $309 forward 7 unknown #
edge $-1 $150 -5.3400869378501454 $310 5.3400869378501454 $143 $311 forward 7 unknown #
vertex $-1 $144 $312 #
straight-curve $-1 -74.875331888790555 33.784274403399813 0 0 0 -1 I I #
coedge $-1 $313 $222 $145 $228 forward $218 $-1 #
edge $-1 $225 -33.784274403399813 $232 33.784274403399813 $227 $314 forward 7 unknown #
coedge $-1 $315 $146 $149 $235 reversed $231 $-1 #
coedge $-1 $146 $315 $313 $316 reversed $231 $-1 #
loop $-1 $-1 $146 $217 #
vertex $-1 $316 $317 #
straight-curve $-1 -74.875331888790555 -33.784274403399813 0 0 0 1 I I #
coedge $-1 $149 $148 $305 $318 forward $83 $-1 #
edge $-1 $319 -5.3400869378501454 $151 5.3400869378501454 $229 $320 forward 7 unknown #
point $-1 -74.875331888790555 33.784274403399813 -6.4147958456973369 #
point $-1 -74.875331888790555 -33.784274403399813 -6.4147958456973369 #
face $-1 $-1 $254 $20 $-1 $321 reversed single #
loop $-1 $-1 $250 $153 #
plane-surface $-1 0 0 -10.11538313903851 0 0 1 1 0 0 forward_v I I I I #
coedge $-1 $322 $242 $323 $324 forward $154 $-1 #
coedge $-1 $241 $325 $156 $243 reversed $154 $-1 #
edge $-1 $326 -33.784274403399813 $327 33.784274403399813 $242 $328 forward 7 unknown #
coedge $-1 $158 $157 $325 $329 forward $57 $-1 #
edge $-1 $327 -5.3400869378501454 $166 5.3400869378501454 $157 $330 forward 7 unknown #
coedge $-1 $331 $250 $158 $247 forward $239 $-1 #
edge $-1 $248 -5.3400869378501454 $332 5.3400869378501454 $158 $333 forward 7 unknown #
vertex $-1 $247 $334 #
straight-curve $-1 74.875331888790555 33.784274403399813 0 0 0 1 I I #
coedge $-1 $246 $335 $160 $251 forward $239 $-1 #
edge $-1 $255 -33.784274403399813 $248 33.784274403399813 $250 $336 forward 7 unknown #
coedge $-1 $323 $161 $335 $337 reversed $254 $-1 #
coedge $-1 $161 $323 $163 $257 reversed $254 $-1 #
loop $-1 $-1 $161 $238 #
vertex $-1 $162 $338 #
straight-curve $-1 74.875331888790555 -33.784274403399813 0 0 0 -1 I I #
edge $-1 $165 -5.3400869378501454 $326 5.3400869378501454 $253 $339 forward 7 unknown #
point $-1 74.875331888790555 -33.784274403399813 -6.4147958456973369 #
point $-1 74.875331888790555 33.784274403399813 -6.4147958456973369 #
loop $-1 $-1 $176 $168 #
plane-surface $-1 0 -33.784274403399813 0 0 1 0 0 0 1 forward_v I I I I #
coedge $-1 $263 $171 $173 $267 reversed $99 $-1 #
coedge $-1 $171 $262 $340 $341 reversed $99 $-1 #
coedge $-1 $179 $174 $171 $265 forward $169 $-1 #
edge $-1 $268 -29.430254753743178 $342 -20.545529244265474 $264 $343 forward 7 unknown #
coedge $-1 $173 $172 $271 $344 reversed $61 $-1 #
edge $-1 $345 -8.3739266479457192e-015 $268 10.259197374961538 $262 $346 forward 7 unknown #
vertex $-1 $175 $347 #
straight-curve $-1 20.892663741027377 -24.899548893922113 10.11538313903851 -1 0 0 I I #
coedge $-1 $340 $176 $179 $275 reversed $260 $-1 #
coedge $-1 $176 $340 $266 $344 forward $260 $-1 #
vertex $-1 $177 $348 #
straight-curve $-1 58.536566825275848 -33.784274403399813 67.336831434319095 0 0 1 I I #
straight-curve $-1 58.536566825275848 -33.784274403399806 4.9857843828340833 0 -0.8660253999169214 -0.50000000669873634 I I #
edge $-1 $342 25.03408813883366 $180 58.536566825275848 $270 $349 forward 7 unknown #
point $-1 58.536566825275848 -33.784274403399813 10.11538313903851 #
point $-1 58.536566825275848 -24.899548893922109 10.11538313903851 #
edge $-1 $350 1 $350 0 $183 $-1 forward 7 unknown #
vertex $-1 $184 $351 #
ellipse-curve $-1 34.606224906388576 -26.126099965817694 1.9806346381758448 0 -0.50000000669873634 0.8660253999169214 2.5 0 0 1 I I #
point $-1 37.106224906388576 -29.341911648660957 7.5505837609362914 #
edge $-1 $352 1 $352 0 $187 $-1 forward 7 unknown #
vertex $-1 $188 $353 #
ellipse-curve $-1 48.964430057720946 -26.126099965817694 1.9806346381758448 0 -0.50000000669873634 0.8660253999169214 2.5 0 0 1 I I #
point $-1 51.464430057720946 -29.341911648660957 7.5505837609362914 #
plane-surface $-1 74.875331888790555 0 0 -1 0 0 0 0 1 forward_v I I I I #
coedge $-1 $194 $296 $197 $290 reversed $121 $-1 #
vertex $-1 $290 $354 #
straight-curve $-1 -74.875331888790555 -33.784274403399813 0 0 0 -1 I I #
edge $-1 $288 -33.784274403399813 $292 33.784274403399813 $287 $355 forward 7 unknown #
straight-curve $-1 0 -33.784274403399813 -10.11538313903851 -1 0 0 I I #
vertex $-1 $200 $356 #
straight-curve $-1 0 33.784274403399813 -10.11538313903851 1 0 0 I I #
point $-1 74.875331888790555 33.784274403399813 -10.11538313903851 #
point $-1 74.875331888790555 -33.784274403399813 -10.11538313903851 #
coedge $-1 $287 $204 $207 $298 forward $121 $-1 #
straight-curve $-1 -74.875331888790555 0 10.11538313903851 0 -1 0 I I #
edge $-1 $208 -10.11538313903851 $292 10.11538313903851 $207 $357 forward 7 unknown #
point $-1 -74.875331888790555 33.784274403399813 10.11538313903851 #
point $-1 -74.875331888790555 -33.784274403399813 10.11538313903851 #
straight-curve $-1 74.875331888790555 -33.784274403399813 0 0 0 -1 I I #
straight-curve $-1 74.875331888790555 33.784274403399813 0 0 0 -1 I I #
plane-surface $-1 0 -33.784274403399813 0 0 1 0 0 0 1 forward_v I I I I #
coedge $-1 $358 $220 $307 $359 reversed $140 $-1 #
coedge $-1 $220 $358 $234 $318 reversed $140 $-1 #
edge $-1 $310 -1.850293646670587 $308 1.8502936466705862 $221 $360 forward 7 unknown #
coedge $-1 $222 $313 $304 $359 forward $218 $-1 #
vertex $-1 $223 $361 #
straight-curve $-1 0 33.784274403399813 -10.11538313903851 1 0 0 I I #
vertex $-1 $224 $362 #
straight-curve $-1 -80.2154188266407 33.784274403399813 -6.4147958456973369 -1 0 0 I I #
point $-1 -74.875331888790555 33.784274403399813 -10.11538313903851 #
coedge $-1 $307 $227 $230 $316 forward $218 $-1 #
straight-curve $-1 -74.875331888790555 0 -10.11538313903851 0 -1 0 I I #
coedge $-1 $230 $229 $358 $363 forward $231 $-1 #
edge $-1 $232 -5.3400869378501454 $364 5.3400869378501454 $230 $365 forward 7 unknown #
point $-1 -74.875331888790555 -33.784274403399813 -10.11538313903851 #
edge $-1 $310 -33.784274403399813 $319 33.784274403399813 $305 $366 forward 7 unknown #
vertex $-1 $318 $367 #
straight-curve $-1 -80.2154188266407 -33.784274403399813 -6.4147958456973369 1 0 0 I I #
plane-surface $-1 0 -33.784274403399813 0 0 1 0 0 0 1 forward_v I I I I #
coedge $-1 $325 $241 $331 $368 reversed $154 $-1 #
coedge $-1 $253 $252 $241 $324 reversed $254 $-1 #
edge $-1 $326 -1.850293646670587 $369 1.8502936466705862 $241 $370 forward 7 unknown #
coedge $-1 $242 $322 $244 $329 reversed $154 $-1 #
vertex $-1 $243 $371 #
vertex $-1 $243 $372 #
straight-curve $-1 85.555505764490846 0 -6.4147958456973369 0 1 0 I I #
edge $-1 $327 -1.850293646670587 $332 1.8502936466705862 $325 $373 forward 7 unknown #
straight-curve $-1 80.2154188266407 33.784274403399813 -6.4147958456973369 -1 0 0 I I #
coedge $-1 $335 $246 $322 $368 forward $239 $-1 #
vertex $-1 $368 $374 #
straight-curve $-1 80.2154188266407 33.784274403399813 -10.11538313903851 1 0 0 I I #
point $-1 74.875331888790555 33.784274403399813 -10.11538313903851 #
coedge $-1 $250 $331 $252 $337 forward $239 $-1 #
straight-curve $-1 74.875331888790555 0 -10.11538313903851 0 1 0 I I #
edge $-1 $369 -5.3400869378501454 $255 5.3400869378501454 $252 $375 forward 7 unknown #
point $-1 74.875331888790555 -33.784274403399813 -10.11538313903851 #
straight-curve $-1 80.2154188266407 -33.784274403399813 -6.4147958456973369 1 0 0 I I #
coedge $-1 $271 $270 $263 $341 forward $260 $-1 #
edge $-1 $342 57.221448295280581 $345 62.351047051485018 $340 $376 forward 7 unknown #
vertex $-1 $275 $377 #
straight-curve $-1 25.03408813883366 -54.329803647665287 10.115383139038514 0 -1 0 I I #
edge $-1 $345 4.1414243978062828 $272 37.643903084248471 $271 $378 forward 7 unknown #
vertex $-1 $344 $379 #
straight-curve $-1 25.03408813883366 -33.784274403399806 4.9857843828340833 0 0.8660253999169214 0.50000000669873634 I I #
point $-1 25.03408813883366 -24.899548893922109 10.11538313903851 #
point $-1 58.536566825275848 -33.784274403399813 4.9857843828340789 #
straight-curve $-1 0 -33.784274403399813 10.11538313903851 1 0 0 I I #
vertex $-1 $278 $380 #
point $-1 37.106224906388576 -26.126099965817694 1.9806346381758448 #
vertex $-1 $282 $381 #
point $-1 51.464430057720946 -26.126099965817694 1.9806346381758448 #
point $-1 -74.875331888790555 -33.784274403399813 -10.11538313903851 #
straight-curve $-1 -74.875331888790555 0 -10.11538313903851 0 1 0 I I #
point $-1 -74.875331888790555 33.784274403399813 -10.11538313903851 #
straight-curve $-1 -74.875331888790555 33.784274403399813 0 0 0 -1 I I #
coedge $-1 $305 $304 $315 $363 reversed $140 $-1 #
edge $-1 $364 -33.784274403399813 $308 33.784274403399813 $304 $382 forward 7 unknown #
straight-curve $-1 -85.555505764490846 33.784274403399813 -8.2650894923679239 0 0 -1 I I #
point $-1 -85.555505764490846 33.784274403399813 -10.11538313903851 #
point $-1 -85.555505764490846 33.784274403399813 -6.4147958456973369 #
edge $-1 $319 -1.850293646670587 $364 1.8502936466705862 $358 $383 forward 7 unknown #
vertex $-1 $359 $384 #
straight-curve $-1 -80.2154188266407 -33.784274403399813 -10.11538313903851 -1 0 0 I I #
straight-curve $-1 -85.555505764490846 0 -6.4147958456973369 0 -1 0 I I #
point $-1 -85.555505764490846 -33.784274403399813 -6.4147958456973369 #
edge $-1 $332 -33.784274403399813 $369 33.784274403399813 $322 $385 forward 7 unknown #
vertex $-1 $324 $386 #
straight-curve $-1 85.555505764490846 -33.784274403399813 -8.2650894923679239 0 0 -1 I I #
point $-1 85.555505764490846 -33.784274403399813 -6.4147958456973369 #
point $-1 85.555505764490846 33.784274403399813 -6.4147958456973369 #
straight-curve $-1 85.555505764490846 33.784274403399813 -8.2650894923679239 0 0 -1 I I #
point $-1 85.555505764490846 33.784274403399813 -10.11538313903851 #
straight-curve $-1 80.2154188266407 -33.784274403399813 -10.11538313903851 -1 0 0 I I #
straight-curve $-1 25.03408813883366 -33.784274403399813 67.336831434319095 0 0 -1 I I #
point $-1 25.03408813883366 -33.784274403399813 10.11538313903851 #
straight-curve $-1 20.892663741027377 -33.784274403399813 4.9857843828340762 1 0 0 I I #
point $-1 25.03408813883366 -33.784274403399813 4.9857843828340789 #
point $-1 34.606224906388576 -24.876099949070856 -0.18442886161645866 #
point $-1 48.964430057720946 -24.876099949070856 -0.18442886161645866 #
straight-curve $-1 -85.555505764490846 0 -10.11538313903851 0 1 0 I I #
straight-curve $-1 -85.555505764490846 -33.784274403399813 -8.2650894923679239 0 0 -1 I I #
point $-1 -85.555505764490846 -33.784274403399813 -10.11538313903851 #
straight-curve $-1 85.555505764490846 0 -10.11538313903851 0 -1 0 I I #
point $-1 85.555505764490846 -33.784274403399813 -10.11538313903851 #
End-of-ACIS-data 