500 0 8 0           
7 Unknown 11 ACIS 5.0 NT 24 Thu Mar 25 23:34:40 1999 
-1 9.9999999999999995e-007 1e-010 
body $-1 $8 $-1 $9 #
body $-1 $10 $-1 $11 #
body $-1 $12 $-1 $13 #
body $-1 $14 $-1 $15 #
body $-1 $16 $-1 $17 #
body $-1 $18 $-1 $19 #
body $-1 $20 $-1 $21 #
body $-1 $22 $-1 $23 #
lump $-1 $-1 $24 $0 #
transform $-1 1 0 0 0 1 0 0 0 1 60.105594042786947 31.143858373871566 8.4414521854824365 1 rotate no_reflect no_shear #
lump $-1 $-1 $25 $1 #
transform $-1 1 0 0 0 1 0 0 0 1 60.105594042786947 31.143858373871566 8.4414521854824365 1 rotate no_reflect no_shear #
lump $-1 $-1 $26 $2 #
transform $-1 1 0 0 0 1 0 0 0 1 60.105594042786947 31.143858373871566 8.4414521854824365 1 rotate no_reflect no_shear #
lump $-1 $-1 $27 $3 #
transform $-1 1 0 0 0 1 0 0 0 1 60.105594042786947 31.143858373871566 8.4414521854824365 1 rotate no_reflect no_shear #
lump $-1 $-1 $28 $4 #
transform $-1 1 0 0 0 1 0 0 0 1 60.105594042786947 31.143858373871566 8.4414521854824365 1 rotate no_reflect no_shear #
lump $-1 $-1 $29 $5 #
transform $-1 1 0 0 0 1 0 0 0 1 60.105594042786947 31.143858373871566 8.4414521854824365 1 rotate no_reflect no_shear #
lump $-1 $-1 $30 $6 #
transform $-1 1 0 0 0 1 0 0 0 1 60.105594042786947 31.143858373871566 8.4414521854824365 1 rotate no_reflect no_shear #
lump $-1 $-1 $31 $7 #
transform $-1 1 0 0 0 1 0 0 0 1 60.105594042786947 31.143858373871566 8.4414521854824365 1 rotate no_reflect no_shear #
shell $-1 $-1 $-1 $32 $-1 $8 #
shell $-1 $-1 $-1 $33 $-1 $10 #
shell $-1 $-1 $-1 $34 $-1 $12 #
shell $-1 $-1 $-1 $35 $-1 $14 #
shell $-1 $-1 $-1 $36 $-1 $16 #
shell $-1 $-1 $-1 $37 $-1 $18 #
shell $-1 $-1 $-1 $38 $-1 $20 #
shell $-1 $-1 $-1 $39 $-1 $22 #
face $-1 $40 $41 $24 $-1 $42 forward single #
face $-1 $43 $44 $25 $-1 $45 forward single #
face $-1 $46 $47 $26 $-1 $48 reversed single #
face $-1 $49 $50 $27 $-1 $51 forward single #
face $-1 $52 $53 $28 $-1 $54 forward single #
face $-1 $55 $56 $29 $-1 $57 reversed single #
face $-1 $58 $59 $30 $-1 $60 forward single #
face $-1 $61 $62 $31 $-1 $63 forward single #
face $-1 $64 $65 $24 $-1 $66 reversed single #
loop $-1 $-1 $67 $32 #
plane-surface $-1 0 0 8.4414521854824365 0 0 1 1 0 0 forward_v I I I I #
face $-1 $68 $69 $25 $-1 $70 reversed single #
loop $-1 $-1 $71 $33 #
plane-surface $-1 0 -31.143858373871566 0 0 1 0 0 0 1 forward_v I I I I #
face $-1 $72 $73 $26 $-1 $74 reversed single #
loop $-1 $-1 $75 $34 #
plane-surface $-1 16.105246654539542 4.1198161278053576 167.47637518263485 0 -1 0 -0.50000000669873634 0 -0.8660253999169214 forward_v I I I I #
face $-1 $76 $77 $27 $-1 $78 forward single #
loop $-1 $79 $80 $35 #
cone-surface $-1 55.194294346320746 -2.0572575824831389 5.1114455417424587 -0.50000000669873634 0 -0.8660253999169214 0.4330126999584607 0 -0.25000000334936817 1 I I 0 1 0.5 forward I I I I #
face $-1 $81 $82 $28 $-1 $83 forward single #
loop $-1 $84 $85 $36 #
cone-surface $-1 55.194294346320746 1.648986643689959 5.1114455417424587 -0.50000000669873634 0 -0.8660253999169214 0.4330126999584607 0 -0.25000000334936817 1 I I 0 1 0.5 forward I I I I #
face $-1 $86 $87 $29 $-1 $88 reversed single #
loop $-1 $-1 $89 $37 #
plane-surface $-1 16.105246654539542 22.495955179467678 167.47637518263485 0 1 0 0.50000000669873634 0 0.8660253999169214 forward_v I I I I #
face $-1 $90 $91 $30 $-1 $92 forward single #
loop $-1 $93 $94 $38 #
cone-surface $-1 55.194294346320746 24.96678466358307 5.1114455417424587 -0.50000000669873634 0 -0.8660253999169214 0.4330126999584607 0 -0.25000000334936817 1 I I 0 1 0.5 forward I I I I #
face $-1 $95 $96 $31 $-1 $97 forward single #
loop $-1 $98 $99 $39 #
cone-surface $-1 55.194294346320746 28.673028889756168 5.1114455417424587 -0.50000000669873634 0 -0.8660253999169214 0.4330126999584607 0 -0.25000000334936817 1 I I 0 1 0.5 forward I I I I #
face $-1 $100 $101 $24 $-1 $102 reversed single #
loop $-1 $-1 $103 $40 #
plane-surface $-1 0 0 -8.4414521854824365 0 0 1 1 0 0 forward_v I I I I #
coedge $-1 $104 $105 $106 $107 forward $41 $-1 #
face $-1 $108 $109 $25 $-1 $110 forward single #
loop $-1 $-1 $111 $43 #
plane-surface $-1 -60.105594042786947 0 0 1 0 0 0 0 -1 forward_v I I I I #
coedge $-1 $112 $113 $114 $115 forward $44 $-1 #
face $-1 $116 $117 $26 $-1 $118 reversed single #
loop $-1 $-1 $119 $46 #
plane-surface $-1 -44.000348193510462 -0.20413546939659 63.370432946337459 0.50000000669873634 0 0.8660253999169214 0.8660253999169214 0 -0.50000000669873634 forward_v I I I I #
coedge $-1 $120 $121 $122 $123 reversed $47 $-1 #
face $-1 $-1 $124 $27 $-1 $125 forward single #
loop $-1 $126 $127 $49 #
cone-surface $-1 54.641073873196532 -2.0572575824831389 4.1532395916207498 -0.50000000669873634 0 -0.8660253999169214 0.21650634997923035 0 -0.12500000167468409 1 I I -0.70710678118654624 0.70710678118654879 0.25 forward I I I I #
loop $-1 $-1 $128 $35 #
coedge $-1 $80 $80 $129 $130 reversed $50 $-1 #
face $-1 $-1 $131 $28 $-1 $132 forward single #
loop $-1 $133 $134 $52 #
cone-surface $-1 54.641073873196532 1.648986643689959 4.1532395916207498 -0.50000000669873634 0 -0.8660253999169214 0.21650634997923035 0 -0.12500000167468409 1 I I -0.70710678118654624 0.70710678118654879 0.25 forward I I I I #
loop $-1 $-1 $135 $36 #
coedge $-1 $85 $85 $136 $137 reversed $53 $-1 #
face $-1 $138 $139 $29 $-1 $140 reversed single #
loop $-1 $-1 $141 $55 #
plane-surface $-1 -44.000348193510462 26.819906776669626 63.370432946337459 0.50000000669873634 0 0.8660253999169214 0.8660253999169214 0 -0.50000000669873634 forward_v I I I I #
coedge $-1 $142 $143 $144 $145 reversed $56 $-1 #
face $-1 $-1 $146 $30 $-1 $147 forward single #
loop $-1 $148 $149 $58 #
cone-surface $-1 54.641073873196532 24.96678466358307 4.1532395916207498 -0.50000000669873634 0 -0.8660253999169214 0.21650634997923035 0 -0.12500000167468409 1 I I -0.70710678118654624 0.70710678118654879 0.25 forward I I I I #
loop $-1 $-1 $150 $38 #
coedge $-1 $94 $94 $151 $152 reversed $59 $-1 #
face $-1 $-1 $153 $31 $-1 $154 forward single #
loop $-1 $155 $156 $61 #
cone-surface $-1 54.641073873196532 28.673028889756168 4.1532395916207498 -0.50000000669873634 0 -0.8660253999169214 0.21650634997923035 0 -0.12500000167468409 1 I I -0.70710678118654624 0.70710678118654879 0.25 forward I I I I #
loop $-1 $-1 $157 $39 #
coedge $-1 $99 $99 $158 $159 reversed $62 $-1 #
face $-1 $160 $161 $24 $-1 $162 reversed single #
loop $-1 $-1 $163 $64 #
plane-surface $-1 0 -31.143858373871566 0 0 1 0 0 0 1 forward_v I I I I #
coedge $-1 $164 $165 $166 $167 forward $65 $-1 #
coedge $-1 $168 $67 $169 $170 forward $41 $-1 #
coedge $-1 $67 $168 $171 $172 forward $41 $-1 #
coedge $-1 $173 $174 $67 $107 reversed $175 $-1 #
edge $-1 $176 -31.143858373871566 $177 31.143858373871566 $106 $178 forward 7 unknown #
face $-1 $179 $180 $25 $-1 $181 reversed single #
loop $-1 $-1 $182 $68 #
plane-surface $-1 0 -35.263674501676917 -3.4192327765184909 0 0 1 1 0 0 forward_v I I I I #
coedge $-1 $183 $184 $113 $185 forward $69 $-1 #
coedge $-1 $186 $71 $187 $188 reversed $44 $-1 #
coedge $-1 $71 $186 $111 $185 reversed $44 $-1 #
coedge $-1 $189 $182 $71 $115 reversed $109 $-1 #
edge $-1 $190 -60.105594042786947 $191 60.105594042786947 $114 $192 forward 7 unknown #
face $-1 $193 $194 $26 $-1 $195 reversed single #
loop $-1 $-1 $196 $72 #
plane-surface $-1 16.105246654539542 -4.5280870665985375 167.47637518263485 0 1 0 0.50000000669873634 0 0.8660253999169214 forward_v I I I I #
coedge $-1 $197 $198 $199 $200 reversed $73 $-1 #
coedge $-1 $121 $75 $201 $202 reversed $47 $-1 #
coedge $-1 $75 $120 $197 $203 reversed $47 $-1 #
coedge $-1 $199 $204 $75 $123 forward $205 $-1 #
edge $-1 $206 -52.052970715517176 $207 -43.086812265483829 $122 $208 forward 7 unknown #
loop $-1 $-1 $129 $76 #
plane-surface $-1 -44.000348193510462 -0.20413546939659 63.370432946337459 0.50000000669873634 0 0.8660253999169214 0.8660253999169214 0 -0.50000000669873634 forward_v I I I I #
loop $-1 $-1 $209 $49 #
coedge $-1 $127 $127 $128 $210 reversed $77 $-1 #
coedge $-1 $128 $128 $127 $210 forward $79 $-1 #
coedge $-1 $129 $129 $80 $130 forward $124 $-1 #
edge $-1 $211 0 $211 6.2831853071796004 $129 $212 forward 7 unknown #
loop $-1 $-1 $136 $81 #
plane-surface $-1 -44.000348193510462 -0.20413546939659 63.370432946337459 0.50000000669873634 0 0.8660253999169214 0.8660253999169214 0 -0.50000000669873634 forward_v I I I I #
loop $-1 $-1 $213 $52 #
coedge $-1 $134 $134 $135 $214 reversed $82 $-1 #
coedge $-1 $135 $135 $134 $214 forward $84 $-1 #
coedge $-1 $136 $136 $85 $137 forward $131 $-1 #
edge $-1 $215 0 $215 6.2831853071796004 $136 $216 forward 7 unknown #
face $-1 $217 $218 $29 $-1 $219 forward single #
loop $-1 $-1 $144 $86 #
plane-surface $-1 60.105594042786947 0 0 -1 0 0 0 0 1 forward_v I I I I #
coedge $-1 $220 $221 $222 $223 reversed $87 $-1 #
coedge $-1 $143 $89 $224 $225 reversed $56 $-1 #
coedge $-1 $89 $142 $220 $226 reversed $56 $-1 #
coedge $-1 $222 $227 $89 $145 forward $139 $-1 #
edge $-1 $228 75.296735405834994 $229 80.473349493029986 $144 $230 forward 7 unknown #
loop $-1 $-1 $151 $90 #
plane-surface $-1 -44.000348193510462 26.819906776669626 63.370432946337459 0.50000000669873634 0 0.8660253999169214 0.8660253999169214 0 -0.50000000669873634 forward_v I I I I #
loop $-1 $-1 $231 $58 #
coedge $-1 $149 $149 $150 $232 reversed $91 $-1 #
coedge $-1 $150 $150 $149 $232 forward $93 $-1 #
coedge $-1 $151 $151 $94 $152 forward $146 $-1 #
edge $-1 $233 0 $233 6.2831853071796004 $151 $234 forward 7 unknown #
loop $-1 $-1 $158 $95 #
plane-surface $-1 -44.000348193510462 26.819906776669626 63.370432946337459 0.50000000669873634 0 0.8660253999169214 0.8660253999169214 0 -0.50000000669873634 forward_v I I I I #
loop $-1 $-1 $235 $61 #
coedge $-1 $156 $156 $157 $236 reversed $96 $-1 #
coedge $-1 $157 $157 $156 $236 forward $98 $-1 #
coedge $-1 $158 $158 $99 $159 forward $153 $-1 #
edge $-1 $237 0 $237 6.2831853071796004 $158 $238 forward 7 unknown #
face $-1 $239 $240 $24 $-1 $241 reversed single #
loop $-1 $-1 $242 $100 #
plane-surface $-1 -60.105594042786947 0 0 1 0 0 0 0 -1 forward_v I I I I #
coedge $-1 $243 $171 $244 $245 forward $101 $-1 #
coedge $-1 $246 $103 $243 $247 forward $65 $-1 #
coedge $-1 $103 $246 $248 $249 forward $65 $-1 #
coedge $-1 $174 $173 $103 $167 reversed $175 $-1 #
edge $-1 $250 -31.143858373871566 $251 31.143858373871566 $166 $252 forward 7 unknown #
coedge $-1 $105 $104 $253 $254 forward $41 $-1 #
coedge $-1 $255 $256 $104 $170 reversed $240 $-1 #
edge $-1 $177 -60.105594042786947 $257 60.105594042786947 $169 $258 forward 7 unknown #
coedge $-1 $163 $259 $105 $172 reversed $101 $-1 #
edge $-1 $260 -60.105594042786947 $176 60.105594042786947 $171 $261 forward 7 unknown #
coedge $-1 $166 $106 $259 $262 forward $175 $-1 #
coedge $-1 $106 $166 $255 $263 reversed $175 $-1 #
loop $-1 $-1 $173 $239 #
vertex $-1 $107 $264 #
vertex $-1 $107 $265 #
straight-curve $-1 60.105594042786947 0 8.4414521854824365 0 1 0 I I #
face $-1 $266 $267 $25 $-1 $268 reversed single #
loop $-1 $-1 $269 $108 #
plane-surface $-1 0 -35.263674501676917 -7.9414521854824365 0 0 1 1 0 0 forward_v I I I I #
coedge $-1 $114 $270 $271 $272 forward $109 $-1 #
coedge $-1 $273 $111 $274 $275 reversed $69 $-1 #
coedge $-1 $111 $273 $189 $276 reversed $69 $-1 #
edge $-1 $190 3.4192327765184909 $277 7.9414521854824365 $111 $278 forward 7 unknown #
coedge $-1 $113 $112 $279 $280 forward $44 $-1 #
coedge $-1 $271 $281 $112 $188 forward $282 $-1 #
edge $-1 $283 -7.9414521854824365 $191 -3.4192327765184909 $187 $284 forward 7 unknown #
coedge $-1 $270 $114 $184 $276 forward $109 $-1 #
vertex $-1 $185 $285 #
vertex $-1 $272 $286 #
straight-curve $-1 0 -31.143858373871566 -3.4192327765184909 1 0 0 I I #
face $-1 $-1 $205 $26 $-1 $287 forward single #
loop $-1 $-1 $288 $116 #
plane-surface $-1 60.105594042786947 0 0 -1 0 0 0 0 1 forward_v I I I I #
coedge $-1 $289 $290 $291 $292 reversed $117 $-1 #
coedge $-1 $293 $119 $121 $203 forward $73 $-1 #
coedge $-1 $119 $293 $289 $294 forward $73 $-1 #
coedge $-1 $291 $122 $119 $200 forward $205 $-1 #
edge $-1 $207 -4.2218838625036526 $295 4.4260193319002425 $199 $296 forward 7 unknown #
coedge $-1 $297 $298 $120 $202 forward $194 $-1 #
edge $-1 $299 -80.473349493029986 $206 -75.296735405834994 $201 $300 forward 7 unknown #
edge $-1 $207 109.85796004989105 $299 120.21118808557392 $121 $301 forward 7 unknown #
coedge $-1 $122 $291 $297 $302 forward $205 $-1 #
loop $-1 $-1 $291 $193 #
vertex $-1 $202 $303 #
vertex $-1 $123 $304 #
straight-curve $-1 8.0526233272697709 4.1198161278053576 8.4414521854824329 -1 0 0 I I #
coedge $-1 $209 $209 $-1 $305 reversed $126 $-1 #
edge $-1 $306 0 $306 6.2831853071796004 $127 $307 forward 7 unknown #
vertex $-1 $130 $308 #
ellipse-curve $-1 55.622514817770274 -2.0572575824831389 5.8531451418849398 0.50000000669873634 0 0.8660253999169214 0.4330126999584607 0 -0.25000000334936817 1 I I #
coedge $-1 $213 $213 $-1 $309 reversed $133 $-1 #
edge $-1 $310 0 $310 6.2831853071796004 $134 $311 forward 7 unknown #
vertex $-1 $137 $312 #
ellipse-curve $-1 55.622514817770274 1.648986643689959 5.8531451418849398 0.50000000669873634 0 0.8660253999169214 0.4330126999584607 0 -0.25000000334936817 1 I I #
face $-1 $-1 $313 $29 $-1 $314 reversed single #
loop $-1 $-1 $224 $138 #
plane-surface $-1 0 0 8.4414521854824365 0 0 1 1 0 0 forward_v I I I I #
coedge $-1 $315 $141 $143 $226 forward $87 $-1 #
coedge $-1 $141 $315 $316 $317 reversed $87 $-1 #
coedge $-1 $318 $144 $141 $223 forward $139 $-1 #
edge $-1 $229 9.0860017911328654 $319 17.733904985536753 $222 $320 forward 7 unknown #
coedge $-1 $321 $322 $142 $225 forward $218 $-1 #
edge $-1 $323 43.086812265483829 $228 52.052970715517176 $224 $324 forward 7 unknown #
edge $-1 $229 -120.21118808557392 $323 -109.85796004989105 $143 $325 forward 7 unknown #
coedge $-1 $144 $318 $321 $326 reversed $139 $-1 #
vertex $-1 $326 $327 #
vertex $-1 $145 $328 #
straight-curve $-1 60.105594042786947 22.495955179467678 83.738187591317427 0 0 -1 I I #
coedge $-1 $231 $231 $-1 $329 reversed $148 $-1 #
edge $-1 $330 0 $330 6.2831853071796004 $149 $331 forward 7 unknown #
vertex $-1 $152 $332 #
ellipse-curve $-1 55.622514817770274 24.96678466358307 5.8531451418849398 0.50000000669873634 0 0.8660253999169214 0.4330126999584607 0 -0.25000000334936817 1 I I #
coedge $-1 $235 $235 $-1 $333 reversed $155 $-1 #
edge $-1 $334 0 $334 6.2831853071796004 $156 $335 forward 7 unknown #
vertex $-1 $159 $336 #
ellipse-curve $-1 55.622514817770274 28.673028889756168 5.8531451418849398 0.50000000669873634 0 0.8660253999169214 0.4330126999584607 0 -0.25000000334936817 1 I I #
face $-1 $-1 $175 $24 $-1 $337 reversed single #
loop $-1 $-1 $255 $160 #
plane-surface $-1 0 31.143858373871566 0 0 -1 0 0 0 -1 forward_v I I I I #
coedge $-1 $338 $253 $256 $339 forward $161 $-1 #
coedge $-1 $259 $163 $164 $247 reversed $101 $-1 #
coedge $-1 $253 $338 $163 $245 reversed $161 $-1 #
edge $-1 $260 -8.4414521854824365 $340 8.4414521854824365 $244 $341 forward 7 unknown #
coedge $-1 $165 $164 $338 $342 forward $65 $-1 #
edge $-1 $251 -60.105594042786947 $340 60.105594042786947 $243 $343 forward 7 unknown #
coedge $-1 $256 $255 $165 $249 reversed $240 $-1 #
edge $-1 $344 -60.105594042786947 $250 60.105594042786947 $248 $345 forward 7 unknown #
vertex $-1 $167 $346 #
vertex $-1 $262 $347 #
straight-curve $-1 60.105594042786947 0 -8.4414521854824365 0 -1 0 I I #
coedge $-1 $242 $244 $168 $254 reversed $161 $-1 #
edge $-1 $257 -31.143858373871566 $260 31.143858373871566 $253 $348 forward 7 unknown #
coedge $-1 $248 $169 $174 $263 forward $240 $-1 #
coedge $-1 $169 $248 $242 $339 reversed $240 $-1 #
vertex $-1 $170 $349 #
straight-curve $-1 0 31.143858373871566 8.4414521854824365 -1 0 0 I I #
coedge $-1 $171 $243 $173 $262 reversed $101 $-1 #
vertex $-1 $254 $350 #
straight-curve $-1 0 -31.143858373871566 8.4414521854824365 1 0 0 I I #
edge $-1 $176 -8.4414521854824365 $251 8.4414521854824365 $173 $351 forward 7 unknown #
edge $-1 $177 -8.4414521854824365 $250 8.4414521854824365 $174 $352 forward 7 unknown #
point $-1 60.105594042786947 -31.143858373871566 8.4414521854824365 #
point $-1 60.105594042786947 31.143858373871566 8.4414521854824365 #
face $-1 $-1 $282 $25 $-1 $353 reversed single #
loop $-1 $-1 $354 $179 #
plane-surface $-1 0 -39.383490629482267 -5.6803424810004639 0 1 0 0 0 1 forward_v I I I I #
coedge $-1 $355 $279 $281 $356 forward $180 $-1 #
coedge $-1 $182 $189 $357 $358 forward $109 $-1 #
coedge $-1 $359 $187 $182 $272 reversed $282 $-1 #
edge $-1 $360 -4.1198161278053504 $191 4.119816127805354 $271 $361 forward 7 unknown #
coedge $-1 $184 $183 $354 $362 reversed $69 $-1 #
coedge $-1 $279 $355 $183 $275 forward $180 $-1 #
edge $-1 $363 -4.1198161278053504 $277 4.119816127805354 $183 $364 forward 7 unknown #
edge $-1 $190 -4.119816127805354 $365 4.1198161278053504 $184 $366 forward 7 unknown #
vertex $-1 $185 $367 #
straight-curve $-1 -60.105594042786947 -31.143858373871566 0 0 0 -1 I I #
coedge $-1 $269 $274 $186 $280 reversed $180 $-1 #
edge $-1 $283 -60.105594042786947 $277 60.105594042786947 $279 $368 forward 7 unknown #
coedge $-1 $187 $359 $269 $356 reversed $282 $-1 #
loop $-1 $-1 $187 $266 #
vertex $-1 $188 $369 #
straight-curve $-1 60.105594042786947 -31.143858373871566 0 0 0 1 I I #
point $-1 -60.105594042786947 -31.143858373871563 -3.4192327765184909 #
point $-1 60.105594042786947 -31.143858373871563 -3.4192327765184909 #
plane-surface $-1 0 0 8.4414521854824365 0 0 1 1 0 0 forward_v I I I I #
coedge $-1 $298 $297 $290 $370 forward $194 $-1 #
coedge $-1 $290 $196 $198 $294 reversed $117 $-1 #
coedge $-1 $196 $289 $288 $370 reversed $117 $-1 #
coedge $-1 $204 $199 $196 $292 forward $205 $-1 #
edge $-1 $295 43.086812265483829 $371 52.052970715517176 $291 $372 forward 7 unknown #
coedge $-1 $198 $197 $298 $373 reversed $73 $-1 #
edge $-1 $374 -120.21118808557392 $295 -109.85796004989105 $289 $375 forward 7 unknown #
vertex $-1 $200 $376 #
straight-curve $-1 51.139435592753578 -0.102067734698295 8.44145218548244 0 -1 0 I I #
coedge $-1 $288 $201 $204 $302 reversed $194 $-1 #
coedge $-1 $201 $288 $293 $373 forward $194 $-1 #
vertex $-1 $202 $377 #
straight-curve $-1 60.105594042786947 4.1198161278053576 83.738187591317427 0 0 1 I I #
straight-curve $-1 -44.000348193510462 4.1198161278053576 63.370432946337459 0.8660253999169214 0 -0.50000000669873634 I I #
edge $-1 $371 -4.5280870665985375 $206 4.1198161278053576 $297 $378 forward 7 unknown #
point $-1 60.105594042786947 4.1198161278053576 8.4414521854824365 #
point $-1 51.1394355927536 4.1198161278053576 8.4414521854824329 #
edge $-1 $379 1 $379 0 $209 $-1 forward 7 unknown #
vertex $-1 $210 $380 #
ellipse-curve $-1 54.766073874871218 -2.0572575824831389 4.3697459415999811 0.50000000669873634 0 0.8660253999169214 0.4330126999584607 0 -0.25000000334936817 1 I I #
point $-1 56.055527517728727 -2.0572575824831389 5.6031451385355675 #
edge $-1 $381 1 $381 0 $213 $-1 forward 7 unknown #
vertex $-1 $214 $382 #
ellipse-curve $-1 54.766073874871218 1.648986643689959 4.3697459415999811 0.50000000669873634 0 0.8660253999169214 0.4330126999584607 0 -0.25000000334936817 1 I I #
point $-1 56.055527517728727 1.648986643689959 5.6031451385355675 #
loop $-1 $-1 $316 $217 #
plane-surface $-1 0 31.143858373871566 0 0 -1 0 0 0 -1 forward_v I I I I #
coedge $-1 $221 $220 $322 $383 reversed $87 $-1 #
coedge $-1 $384 $385 $221 $317 forward $313 $-1 #
edge $-1 $319 -85.315870066354307 $386 -74.962642030671432 $316 $387 forward 7 unknown #
coedge $-1 $227 $222 $385 $388 reversed $139 $-1 #
vertex $-1 $223 $389 #
straight-curve $-1 60.105594042786947 13.409953388334813 3.264838098287445 0 1 0 I I #
coedge $-1 $390 $224 $227 $326 forward $218 $-1 #
coedge $-1 $224 $390 $315 $383 forward $218 $-1 #
vertex $-1 $225 $391 #
straight-curve $-1 8.0526233272697709 22.495955179467678 8.4414521854824329 1 0 0 I I #
straight-curve $-1 -44.000348193510462 22.495955179467678 63.370432946337459 -0.8660253999169214 0 0.50000000669873634 I I #
edge $-1 $228 22.495955179467678 $392 31.143858373871566 $227 $393 forward 7 unknown #
point $-1 60.105594042786947 22.495955179467678 8.4414521854824365 #
point $-1 60.105594042786947 22.495955179467678 3.2648380982874414 #
edge $-1 $394 1 $394 0 $231 $-1 forward 7 unknown #
vertex $-1 $232 $395 #
ellipse-curve $-1 54.766073874871218 24.96678466358307 4.3697459415999811 0.50000000669873634 0 0.8660253999169214 0.4330126999584607 0 -0.25000000334936817 1 I I #
point $-1 56.055527517728727 24.96678466358307 5.6031451385355675 #
edge $-1 $396 1 $396 0 $235 $-1 forward 7 unknown #
vertex $-1 $236 $397 #
ellipse-curve $-1 54.766073874871218 28.673028889756168 4.3697459415999811 0.50000000669873634 0 0.8660253999169214 0.4330126999584607 0 -0.25000000334936817 1 I I #
point $-1 56.055527517728727 28.673028889756168 5.6031451385355675 #
plane-surface $-1 60.105594042786947 0 0 -1 0 0 0 0 1 forward_v I I I I #
coedge $-1 $244 $242 $246 $342 reversed $161 $-1 #
edge $-1 $257 -8.4414521854824365 $344 8.4414521854824365 $256 $398 forward 7 unknown #
vertex $-1 $342 $399 #
straight-curve $-1 -60.105594042786947 -31.143858373871566 0 0 0 -1 I I #
edge $-1 $340 -31.143858373871566 $344 31.143858373871566 $338 $400 forward 7 unknown #
straight-curve $-1 0 -31.143858373871566 -8.4414521854824365 -1 0 0 I I #
vertex $-1 $249 $401 #
straight-curve $-1 0 31.143858373871566 -8.4414521854824365 1 0 0 I I #
point $-1 60.105594042786947 31.143858373871566 -8.4414521854824365 #
point $-1 60.105594042786947 -31.143858373871566 -8.4414521854824365 #
straight-curve $-1 -60.105594042786947 0 8.4414521854824365 0 -1 0 I I #
point $-1 -60.105594042786947 31.143858373871566 8.4414521854824365 #
point $-1 -60.105594042786947 -31.143858373871566 8.4414521854824365 #
straight-curve $-1 60.105594042786947 -31.143858373871566 0 0 0 -1 I I #
straight-curve $-1 60.105594042786947 31.143858373871566 0 0 0 -1 I I #
plane-surface $-1 60.105594042786947 0 0 -1 0 0 0 0 1 forward_v I I I I #
coedge $-1 $402 $357 $273 $362 forward $267 $-1 #
coedge $-1 $274 $269 $402 $403 forward $180 $-1 #
edge $-1 $283 -4.119816127805354 $404 4.1198161278053504 $281 $405 forward 7 unknown #
coedge $-1 $354 $406 $270 $358 reversed $267 $-1 #
edge $-1 $365 -60.105594042786947 $360 60.105594042786947 $357 $407 forward 7 unknown #
coedge $-1 $281 $271 $406 $408 forward $282 $-1 #
vertex $-1 $272 $409 #
straight-curve $-1 60.105594042786947 -35.263674501676917 -3.4192327765184909 0 1 0 I I #
edge $-1 $365 -2.261109704481973 $363 2.2611097044819726 $273 $410 forward 7 unknown #
vertex $-1 $275 $411 #
straight-curve $-1 -60.105594042786947 -35.263674501676917 -7.9414521854824365 0 1 0 I I #
vertex $-1 $276 $412 #
straight-curve $-1 -60.105594042786947 -35.263674501676917 -3.4192327765184909 0 -1 0 I I #
point $-1 -60.105594042786947 -31.143858373871563 -7.9414521854824365 #
straight-curve $-1 0 -31.143858373871566 -7.9414521854824365 -1 0 0 I I #
point $-1 60.105594042786947 -31.143858373871563 -7.9414521854824365 #
edge $-1 $371 75.296735405834994 $374 80.473349493029986 $288 $413 forward 7 unknown #
vertex $-1 $302 $414 #
straight-curve $-1 8.0526233272697709 -4.5280870665985375 8.4414521854824329 1 0 0 I I #
edge $-1 $374 -4.4260193319002425 $299 4.2218838625036526 $298 $415 forward 7 unknown #
vertex $-1 $373 $416 #
straight-curve $-1 -44.000348193510462 -4.5280870665985375 63.370432946337459 -0.8660253999169214 0 0.50000000669873634 I I #
point $-1 51.1394355927536 -4.5280870665985375 8.4414521854824329 #
point $-1 60.105594042786947 4.1198161278053576 3.2648380982874414 #
straight-curve $-1 60.105594042786947 0 8.4414521854824365 0 1 0 I I #
vertex $-1 $305 $417 #
point $-1 55.199086574829678 -2.0572575824831389 4.1197459382506132 #
vertex $-1 $309 $418 #
point $-1 55.199086574829678 1.648986643689959 4.1197459382506132 #
edge $-1 $386 -17.733904985536761 $323 -9.0860017911328654 $322 $419 forward 7 unknown #
coedge $-1 $385 $316 $390 $420 reversed $313 $-1 #
coedge $-1 $316 $384 $318 $388 forward $313 $-1 #
vertex $-1 $317 $421 #
straight-curve $-1 -13.78011645068764 31.143858373871566 45.922773702973117 -0.8660253999169214 0 0.50000000669873634 I I #
edge $-1 $392 -8.4414521854824365 $319 -3.2648380982874388 $318 $422 forward 7 unknown #
point $-1 60.105594042786947 31.143858373871566 3.2648380982874388 #
coedge $-1 $322 $321 $384 $420 forward $218 $-1 #
point $-1 51.1394355927536 22.495955179467678 8.4414521854824329 #
vertex $-1 $326 $423 #
straight-curve $-1 60.105594042786947 0 8.4414521854824365 0 1 0 I I #
vertex $-1 $329 $424 #
point $-1 55.199086574829678 24.96678466358307 4.1197459382506132 #
vertex $-1 $333 $425 #
point $-1 55.199086574829678 28.673028889756168 4.1197459382506132 #
straight-curve $-1 -60.105594042786947 31.143858373871566 0 0 0 -1 I I #
point $-1 -60.105594042786947 -31.143858373871566 -8.4414521854824365 #
straight-curve $-1 -60.105594042786947 0 -8.4414521854824365 0 1 0 I I #
point $-1 -60.105594042786947 31.143858373871566 -8.4414521854824365 #
coedge $-1 $406 $354 $355 $403 reversed $267 $-1 #
edge $-1 $404 -60.105594042786947 $363 60.105594042786947 $402 $426 forward 7 unknown #
vertex $-1 $408 $427 #
straight-curve $-1 60.105594042786947 -35.263674501676917 -7.9414521854824365 0 -1 0 I I #
coedge $-1 $357 $402 $359 $408 reversed $267 $-1 #
straight-curve $-1 0 -39.383490629482267 -3.4192327765184909 1 0 0 I I #
edge $-1 $360 -2.261109704481973 $404 2.2611097044819726 $359 $428 forward 7 unknown #
point $-1 60.105594042786947 -39.383490629482267 -3.4192327765184909 #
straight-curve $-1 -60.105594042786947 -39.383490629482267 -5.6803424810004639 0 0 -1 I I #
point $-1 -60.105594042786947 -39.383490629482267 -7.9414521854824365 #
point $-1 -60.105594042786947 -39.383490629482267 -3.4192327765184909 #
straight-curve $-1 60.105594042786947 -4.5280870665985375 83.738187591317427 0 0 -1 I I #
point $-1 60.105594042786947 -4.5280870665985375 8.4414521854824365 #
straight-curve $-1 60.105594042786947 -0.102067734698295 3.264838098287445 0 1 0 I I #
point $-1 60.105594042786947 -4.5280870665985375 3.2648380982874414 #
point $-1 54.516073871521847 -2.0572575824831389 3.9367332416415186 #
point $-1 54.516073871521847 1.648986643689959 3.9367332416415186 #
straight-curve $-1 51.139435592753578 13.409953388334813 8.44145218548244 0 -1 0 I I #
edge $-1 $392 -60.105594042786947 $386 -51.1394355927536 $384 $429 forward 7 unknown #
point $-1 51.1394355927536 31.143858373871574 8.4414521854824329 #
straight-curve $-1 60.105594042786947 31.143858373871566 0 0 0 -1 I I #
point $-1 60.105594042786947 31.143858373871566 8.4414521854824365 #
point $-1 54.516073871521847 24.96678466358307 3.9367332416415186 #
point $-1 54.516073871521847 28.673028889756168 3.9367332416415186 #
straight-curve $-1 0 -39.383490629482267 -7.9414521854824365 -1 0 0 I I #
point $-1 60.105594042786947 -39.383490629482267 -7.9414521854824365 #
straight-curve $-1 60.105594042786947 -39.383490629482267 -5.6803424810004639 0 0 -1 I I #
straight-curve $-1 0 31.143858373871566 8.4414521854824365 -1 0 0 I I #
End-of-ACIS-data 