500 0 3 0           
7 Unknown 11 ACIS 5.0 NT 24 Thu Mar 25 17:33:07 1999 
-1 9.9999999999999995e-007 1e-010 
body $-1 $3 $-1 $4 #
body $-1 $5 $-1 $6 #
body $-1 $7 $-1 $8 #
lump $-1 $-1 $9 $0 #
transform $-1 1 0 0 0 1 0 0 0 1 42.984710226752526 29.399012588234587 6.0526059425712004 1 rotate no_reflect no_shear #
lump $-1 $-1 $10 $1 #
transform $-1 1 0 0 0 1 0 0 0 1 42.984710226752526 29.399012588234587 6.0526059425712004 1 rotate no_reflect no_shear #
lump $-1 $-1 $11 $2 #
transform $-1 1 0 0 0 1 0 0 0 1 42.984710226752526 29.399012588234587 6.0526059425712004 1 rotate no_reflect no_shear #
shell $-1 $-1 $-1 $12 $-1 $3 #
shell $-1 $-1 $-1 $13 $-1 $5 #
shell $-1 $-1 $-1 $14 $-1 $7 #
face $-1 $15 $16 $9 $-1 $17 forward single #
face $-1 $18 $19 $10 $-1 $20 reversed single #
face $-1 $21 $22 $11 $-1 $23 forward single #
face $-1 $24 $25 $9 $-1 $26 reversed single #
loop $-1 $-1 $27 $12 #
plane-surface $-1 0 0 6.0526059425712004 0 0 1 1 0 0 forward_v I I I I #
face $-1 $28 $29 $10 $-1 $30 reversed single #
loop $-1 $-1 $31 $13 #
plane-surface $-1 -46.083431306494347 -23.216472366680694 0 0 1 0 0 0 1 forward_v I I I I #
face $-1 $32 $33 $11 $-1 $34 forward single #
loop $-1 $-1 $35 $14 #
plane-surface $-1 39.419062748450216 0 3.0526059425712004 0 0 1 1 0 0 forward_v I I I I #
face $-1 $36 $37 $9 $-1 $38 reversed single #
loop $-1 $-1 $39 $15 #
plane-surface $-1 0 0 -6.0526059425712004 0 0 1 1 0 0 forward_v I I I I #
coedge $-1 $40 $41 $42 $43 forward $16 $-1 #
face $-1 $44 $45 $10 $-1 $46 reversed single #
loop $-1 $-1 $47 $18 #
plane-surface $-1 -49.182152386236169 -21.492014427349602 0 1 0 0 0 0 -1 forward_v I I I I #
coedge $-1 $48 $49 $50 $51 forward $19 $-1 #
face $-1 $52 $53 $11 $-1 $54 forward single #
loop $-1 $-1 $55 $21 #
plane-surface $-1 35.853415270147906 0 4.5526059425712004 1 0 0 0 0 -1 forward_v I I I I #
coedge $-1 $56 $57 $58 $59 reversed $22 $-1 #
face $-1 $60 $61 $9 $-1 $62 reversed single #
loop $-1 $-1 $63 $24 #
plane-surface $-1 0 -29.399012588234587 0 0 1 0 0 0 1 forward_v I I I I #
coedge $-1 $64 $65 $66 $67 forward $25 $-1 #
coedge $-1 $68 $27 $69 $70 forward $16 $-1 #
coedge $-1 $27 $68 $71 $72 forward $16 $-1 #
coedge $-1 $73 $74 $27 $43 reversed $75 $-1 #
edge $-1 $76 -29.399012588234587 $77 29.399012588234587 $42 $78 forward 7 unknown #
face $-1 $79 $80 $10 $-1 $81 reversed single #
loop $-1 $-1 $82 $28 #
plane-surface $-1 -46.083431306494347 -19.76755648801851 0 0 -1 0 0 0 -1 forward_v I I I I #
coedge $-1 $83 $84 $85 $86 forward $29 $-1 #
coedge $-1 $87 $31 $88 $89 reversed $19 $-1 #
coedge $-1 $31 $87 $90 $91 reversed $19 $-1 #
coedge $-1 $84 $83 $31 $51 reversed $29 $-1 #
edge $-1 $92 -6.0526059425712004 $93 6.0526059425712004 $50 $94 forward 7 unknown #
face $-1 $95 $96 $11 $-1 $97 reversed single #
loop $-1 $-1 $98 $32 #
plane-surface $-1 0 0 6.0526059425712004 0 0 1 1 0 0 forward_v I I I I #
coedge $-1 $99 $100 $101 $102 reversed $33 $-1 #
coedge $-1 $103 $35 $104 $105 reversed $22 $-1 #
coedge $-1 $35 $103 $106 $107 reversed $22 $-1 #
coedge $-1 $108 $109 $35 $59 forward $110 $-1 #
edge $-1 $111 -29.399012588234587 $112 29.399012588234587 $58 $113 forward 7 unknown #
face $-1 $114 $115 $9 $-1 $116 reversed single #
loop $-1 $-1 $117 $36 #
plane-surface $-1 -42.984710226752526 0 0 1 0 0 0 0 -1 forward_v I I I I #
coedge $-1 $118 $71 $119 $120 forward $37 $-1 #
coedge $-1 $121 $39 $118 $122 forward $25 $-1 #
coedge $-1 $39 $121 $123 $124 forward $25 $-1 #
coedge $-1 $74 $73 $39 $67 reversed $75 $-1 #
edge $-1 $125 -29.399012588234587 $126 29.399012588234587 $66 $127 forward 7 unknown #
coedge $-1 $41 $40 $128 $129 forward $16 $-1 #
coedge $-1 $130 $131 $40 $70 reversed $115 $-1 #
edge $-1 $77 -42.984710226752526 $132 42.984710226752526 $69 $133 forward 7 unknown #
coedge $-1 $63 $134 $41 $72 reversed $37 $-1 #
edge $-1 $135 -42.984710226752526 $76 42.984710226752526 $71 $136 forward 7 unknown #
coedge $-1 $66 $42 $134 $137 forward $75 $-1 #
coedge $-1 $42 $66 $130 $138 reversed $75 $-1 #
loop $-1 $-1 $73 $114 #
vertex $-1 $43 $139 #
vertex $-1 $43 $140 #
straight-curve $-1 42.984710226752526 0 6.0526059425712004 0 1 0 I I #
face $-1 $141 $142 $10 $-1 $81 reversed single #
loop $-1 $-1 $143 $44 #
plane-surface $-1 -42.984710226752526 0 0 1 0 0 0 0 -1 forward_v I I I I #
coedge $-1 $144 $145 $143 $146 reversed $45 $-1 #
coedge $-1 $50 $47 $147 $148 reversed $29 $-1 #
coedge $-1 $47 $50 $149 $150 reversed $29 $-1 #
coedge $-1 $145 $144 $47 $86 reversed $45 $-1 #
edge $-1 $151 -6.0526059425712004 $152 6.0526059425712004 $85 $153 forward 7 unknown #
coedge $-1 $49 $48 $154 $155 reversed $19 $-1 #
coedge $-1 $147 $156 $48 $89 forward $157 $-1 #
edge $-1 $158 -3.0987210797418214 $93 3.0987210797418214 $48 $159 forward 7 unknown #
coedge $-1 $160 $149 $49 $91 forward $161 $-1 #
edge $-1 $92 -3.0987210797418214 $162 3.0987210797418214 $49 $163 forward 7 unknown #
vertex $-1 $150 $164 #
vertex $-1 $148 $165 #
straight-curve $-1 -49.182152386236169 -23.216472366680694 0 0 0 -1 I I #
face $-1 $166 $167 $11 $-1 $168 reversed single #
loop $-1 $-1 $101 $52 #
plane-surface $-1 0 29.399012588234587 0 0 -1 0 0 0 -1 forward_v I I I I #
coedge $-1 $169 $170 $99 $171 forward $53 $-1 #
coedge $-1 $172 $55 $98 $171 reversed $33 $-1 #
coedge $-1 $55 $172 $103 $173 forward $33 $-1 #
coedge $-1 $104 $174 $55 $102 forward $96 $-1 #
edge $-1 $175 -3.7763029712856002 $176 -0.77630297128560022 $101 $177 forward 7 unknown #
coedge $-1 $57 $56 $100 $173 reversed $22 $-1 #
coedge $-1 $178 $101 $56 $105 forward $96 $-1 #
edge $-1 $176 16.143883895922798 $111 23.275178852527418 $104 $179 forward 7 unknown #
coedge $-1 $180 $181 $57 $107 forward $182 $-1 #
edge $-1 $112 -23.275178852527418 $183 -16.143883895922798 $106 $184 forward 7 unknown #
coedge $-1 $185 $58 $181 $186 forward $110 $-1 #
coedge $-1 $58 $185 $178 $187 reversed $110 $-1 #
loop $-1 $-1 $58 $188 #
vertex $-1 $187 $189 #
vertex $-1 $186 $190 #
straight-curve $-1 42.984710226752526 0 3.0526059425712004 0 -1 0 I I #
face $-1 $-1 $75 $9 $-1 $191 reversed single #
loop $-1 $-1 $130 $60 #
plane-surface $-1 0 29.399012588234587 0 0 -1 0 0 0 -1 forward_v I I I I #
coedge $-1 $192 $128 $131 $193 forward $61 $-1 #
coedge $-1 $134 $63 $64 $122 reversed $37 $-1 #
coedge $-1 $128 $192 $63 $120 reversed $61 $-1 #
edge $-1 $135 -6.0526059425712004 $194 6.0526059425712004 $119 $195 forward 7 unknown #
coedge $-1 $65 $64 $192 $196 forward $25 $-1 #
edge $-1 $126 -42.984710226752526 $194 42.984710226752526 $118 $197 forward 7 unknown #
coedge $-1 $131 $130 $65 $124 reversed $115 $-1 #
edge $-1 $198 -42.984710226752526 $125 42.984710226752526 $123 $199 forward 7 unknown #
vertex $-1 $67 $200 #
vertex $-1 $137 $201 #
straight-curve $-1 42.984710226752526 0 -6.0526059425712004 0 -1 0 I I #
coedge $-1 $117 $119 $68 $129 reversed $61 $-1 #
edge $-1 $132 -29.399012588234587 $135 29.399012588234587 $128 $202 forward 7 unknown #
coedge $-1 $123 $69 $74 $138 forward $115 $-1 #
coedge $-1 $69 $123 $117 $193 reversed $115 $-1 #
vertex $-1 $70 $203 #
straight-curve $-1 0 29.399012588234587 6.0526059425712004 -1 0 0 I I #
coedge $-1 $71 $118 $73 $137 reversed $37 $-1 #
vertex $-1 $129 $204 #
straight-curve $-1 0 -29.399012588234587 6.0526059425712004 1 0 0 I I #
edge $-1 $76 -6.0526059425712004 $126 6.0526059425712004 $73 $205 forward 7 unknown #
edge $-1 $77 -6.0526059425712004 $125 6.0526059425712004 $74 $206 forward 7 unknown #
point $-1 42.984710226752526 -29.399012588234587 6.0526059425712004 #
point $-1 42.984710226752526 29.399012588234587 6.0526059425712004 #
face $-1 $207 $161 $10 $-1 $208 forward single #
loop $-1 $-1 $154 $79 #
coedge $-1 $209 $210 $82 $146 forward $80 $-1 #
coedge $-1 $85 $82 $211 $212 reversed $45 $-1 #
coedge $-1 $82 $85 $213 $214 reversed $45 $-1 #
edge $-1 $215 -6.0526059425712004 $216 6.0526059425712004 $143 $217 forward 7 unknown #
coedge $-1 $211 $88 $83 $148 forward $157 $-1 #
edge $-1 $93 -1.7244579393310921 $152 1.7244579393310921 $83 $218 forward 7 unknown #
coedge $-1 $90 $213 $84 $150 forward $161 $-1 #
edge $-1 $151 -1.7244579393310921 $92 1.7244579393310921 $84 $219 forward 7 unknown #
vertex $-1 $214 $220 #
vertex $-1 $212 $221 #
straight-curve $-1 -49.182152386236169 -19.76755648801851 0 0 0 -1 I I #
coedge $-1 $222 $223 $87 $155 forward $142 $-1 #
edge $-1 $162 -6.0526059425712004 $158 6.0526059425712004 $154 $224 forward 7 unknown #
coedge $-1 $88 $225 $222 $226 forward $157 $-1 #
loop $-1 $-1 $227 $207 #
vertex $-1 $89 $228 #
straight-curve $-1 -46.083431306494347 -23.216472366680694 -6.0526059425712004 -1 0 0 I I #
coedge $-1 $229 $90 $223 $230 forward $161 $-1 #
loop $-1 $-1 $231 $141 #
vertex $-1 $230 $232 #
straight-curve $-1 -46.083431306494347 -23.216472366680694 6.0526059425712004 1 0 0 I I #
point $-1 -49.182152386236169 -23.216472366680694 6.0526059425712004 #
point $-1 -49.182152386236169 -23.216472366680694 -6.0526059425712004 #
face $-1 $233 $234 $11 $-1 $235 reversed single #
loop $-1 $-1 $236 $95 #
plane-surface $-1 -46.083431306494347 -23.216472366680694 0 0 1 0 0 0 1 forward_v I I I I #
coedge $-1 $237 $98 $174 $238 forward $53 $-1 #
coedge $-1 $98 $239 $240 $241 forward $53 $-1 #
edge $-1 $242 -29.399012588234587 $175 29.399012588234587 $98 $243 forward 7 unknown #
coedge $-1 $100 $99 $180 $244 reversed $33 $-1 #
edge $-1 $183 -29.399012588234587 $176 29.399012588234587 $100 $245 forward 7 unknown #
coedge $-1 $101 $246 $169 $238 reversed $96 $-1 #
vertex $-1 $238 $247 #
vertex $-1 $105 $248 #
straight-curve $-1 35.853415270147906 29.399012588234587 2.2763029712856002 0 0 -1 I I #
coedge $-1 $249 $104 $109 $187 forward $96 $-1 #
straight-curve $-1 19.709531374225108 29.399012588234587 3.0526059425712004 1 0 0 I I #
coedge $-1 $240 $106 $172 $244 forward $182 $-1 #
coedge $-1 $106 $250 $108 $186 reversed $182 $-1 #
loop $-1 $-1 $180 $251 #
vertex $-1 $107 $252 #
straight-curve $-1 19.709531374225108 -29.399012588234587 3.0526059425712004 -1 0 0 I I #
coedge $-1 $109 $108 $253 $254 reversed $110 $-1 #
edge $-1 $112 -3.0526059425712004 $255 6.0526059425712004 $108 $256 forward 7 unknown #
edge $-1 $111 -3.0526059425712004 $257 6.0526059425712004 $109 $258 forward 7 unknown #
face $-1 $-1 $110 $11 $-1 $259 reversed single #
point $-1 42.984710226752526 29.399012588234587 3.0526059425712004 #
point $-1 42.984710226752526 -29.399012588234587 3.0526059425712004 #
plane-surface $-1 42.984710226752526 0 0 -1 0 0 0 0 1 forward_v I I I I #
coedge $-1 $119 $117 $121 $196 reversed $61 $-1 #
edge $-1 $132 -6.0526059425712004 $198 6.0526059425712004 $131 $260 forward 7 unknown #
vertex $-1 $196 $261 #
straight-curve $-1 -42.984710226752526 -29.399012588234587 0 0 0 -1 I I #
edge $-1 $194 -29.399012588234587 $198 29.399012588234587 $192 $262 forward 7 unknown #
straight-curve $-1 0 -29.399012588234587 -6.0526059425712004 -1 0 0 I I #
vertex $-1 $124 $263 #
straight-curve $-1 0 29.399012588234587 -6.0526059425712004 1 0 0 I I #
point $-1 42.984710226752526 29.399012588234587 -6.0526059425712004 #
point $-1 42.984710226752526 -29.399012588234587 -6.0526059425712004 #
straight-curve $-1 -42.984710226752526 0 6.0526059425712004 0 -1 0 I I #
point $-1 -42.984710226752526 29.399012588234587 6.0526059425712004 #
point $-1 -42.984710226752526 -29.399012588234587 6.0526059425712004 #
straight-curve $-1 42.984710226752526 -29.399012588234587 0 0 0 -1 I I #
straight-curve $-1 42.984710226752526 29.399012588234587 0 0 0 -1 I I #
face $-1 $264 $157 $10 $-1 $265 reversed single #
plane-surface $-1 0 0 6.0526059425712004 0 0 1 1 0 0 forward_v I I I I #
coedge $-1 $266 $143 $267 $268 reversed $80 $-1 #
coedge $-1 $143 $266 $269 $270 reversed $80 $-1 #
coedge $-1 $269 $147 $144 $212 forward $157 $-1 #
edge $-1 $152 -3.0987210797418214 $215 3.0987210797418214 $144 $271 forward 7 unknown #
coedge $-1 $149 $267 $145 $214 forward $161 $-1 #
edge $-1 $216 -3.0987210797418214 $151 3.0987210797418214 $145 $272 forward 7 unknown #
vertex $-1 $270 $273 #
vertex $-1 $214 $274 #
straight-curve $-1 -42.984710226752526 -19.76755648801851 0 0 0 1 I I #
straight-curve $-1 -49.182152386236169 -21.492014427349602 -6.0526059425712004 0 1 0 I I #
straight-curve $-1 -49.182152386236169 -21.492014427349602 6.0526059425712004 0 -1 0 I I #
point $-1 -49.182152386236169 -19.76755648801851 6.0526059425712004 #
point $-1 -49.182152386236169 -19.76755648801851 -6.0526059425712004 #
coedge $-1 $275 $154 $156 $226 reversed $142 $-1 #
coedge $-1 $154 $275 $160 $230 reversed $142 $-1 #
straight-curve $-1 -42.984710226752526 -23.216472366680694 0 0 0 -1 I I #
coedge $-1 $156 $227 $276 $277 forward $157 $-1 #
edge $-1 $278 -29.399012588234587 $158 -23.216472366680694 $222 $279 forward 7 unknown #
coedge $-1 $225 $280 $281 $282 forward $157 $-1 #
point $-1 -42.984710226752526 -23.216472366680694 -6.0526059425712004 #
coedge $-1 $231 $160 $283 $284 forward $161 $-1 #
edge $-1 $162 23.216472366680694 $285 29.399012588234587 $223 $286 forward 7 unknown #
coedge $-1 $287 $229 $288 $289 forward $161 $-1 #
point $-1 -42.984710226752526 -23.216472366680694 6.0526059425712004 #
face $-1 $290 $291 $11 $-1 $292 reversed single #
loop $-1 $-1 $293 $166 #
plane-surface $-1 -49.182152386236169 -21.492014427349602 0 1 0 0 0 0 -1 forward_v I I I I #
coedge $-1 $294 $295 $296 $297 forward $167 $-1 #
coedge $-1 $298 $169 $299 $300 forward $53 $-1 #
edge $-1 $175 -35.853415270147906 $301 42.984710226752526 $174 $302 forward 7 unknown #
coedge $-1 $170 $303 $304 $305 forward $53 $-1 #
coedge $-1 $306 $180 $170 $241 reversed $182 $-1 #
edge $-1 $307 -42.984710226752526 $242 35.853415270147906 $240 $308 forward 7 unknown #
vertex $-1 $171 $309 #
straight-curve $-1 35.853415270147906 0 6.0526059425712004 0 1 0 I I #
edge $-1 $183 0.77630297128560022 $242 3.7763029712856002 $180 $310 forward 7 unknown #
straight-curve $-1 35.853415270147906 0 3.0526059425712004 0 1 0 I I #
coedge $-1 $174 $249 $311 $312 reversed $96 $-1 #
point $-1 35.853415270147906 29.399012588234587 6.0526059425712004 #
point $-1 35.853415270147906 29.399012588234587 3.0526059425712004 #
coedge $-1 $246 $178 $313 $314 reversed $96 $-1 #
coedge $-1 $181 $306 $315 $316 reversed $182 $-1 #
face $-1 $188 $182 $11 $-1 $317 reversed single #
point $-1 35.853415270147906 -29.399012588234587 3.0526059425712004 #
coedge $-1 $315 $313 $185 $254 forward $318 $-1 #
edge $-1 $257 -29.399012588234587 $255 29.399012588234587 $185 $319 forward 7 unknown #
vertex $-1 $186 $320 #
straight-curve $-1 42.984710226752526 -29.399012588234587 0 0 0 -1 I I #
vertex $-1 $254 $321 #
straight-curve $-1 42.984710226752526 29.399012588234587 0 0 0 -1 I I #
plane-surface $-1 42.984710226752526 0 0 -1 0 0 0 0 1 forward_v I I I I #
straight-curve $-1 -42.984710226752526 29.399012588234587 0 0 0 -1 I I #
point $-1 -42.984710226752526 -29.399012588234587 -6.0526059425712004 #
straight-curve $-1 -42.984710226752526 0 -6.0526059425712004 0 1 0 I I #
point $-1 -42.984710226752526 29.399012588234587 -6.0526059425712004 #
face $-1 $322 $323 $10 $-1 $324 reversed single #
plane-surface $-1 0 0 -6.0526059425712004 0 0 1 1 0 0 forward_v I I I I #
coedge $-1 $210 $209 $325 $326 forward $80 $-1 #
coedge $-1 $213 $287 $209 $268 forward $161 $-1 #
edge $-1 $327 -29.399012588234587 $216 19.76755648801851 $209 $286 forward 7 unknown #
coedge $-1 $280 $211 $210 $270 forward $157 $-1 #
edge $-1 $215 -19.76755648801851 $328 29.399012588234587 $210 $279 forward 7 unknown #
straight-curve $-1 -46.083431306494347 -19.76755648801851 -6.0526059425712004 1 0 0 I I #
straight-curve $-1 -46.083431306494347 -19.76755648801851 6.0526059425712004 -1 0 0 I I #
point $-1 -42.984710226752526 -19.76755648801851 -6.0526059425712004 #
point $-1 -42.984710226752526 -19.76755648801851 6.0526059425712004 #
coedge $-1 $223 $222 $329 $330 reversed $142 $-1 #
coedge $-1 $331 $329 $225 $277 reversed $323 $-1 #
edge $-1 $332 -42.984710226752526 $278 42.984710226752526 $276 $333 forward 7 unknown #
vertex $-1 $226 $334 #
straight-curve $-1 -42.984710226752526 0 -6.0526059425712004 0 1 0 I I #
coedge $-1 $227 $269 $335 $336 forward $157 $-1 #
coedge $-1 $337 $338 $227 $282 reversed $339 $-1 #
edge $-1 $340 -29.399012588234587 $332 29.399012588234587 $281 $341 forward 7 unknown #
coedge $-1 $329 $331 $229 $284 reversed $323 $-1 #
edge $-1 $285 -42.984710226752526 $342 42.984710226752526 $283 $343 forward 7 unknown #
vertex $-1 $230 $344 #
straight-curve $-1 -42.984710226752526 0 6.0526059425712004 0 -1 0 I I #
coedge $-1 $267 $231 $345 $346 forward $161 $-1 #
coedge $-1 $338 $337 $231 $289 reversed $339 $-1 #
edge $-1 $342 -29.399012588234587 $347 29.399012588234587 $288 $348 forward 7 unknown #
face $-1 $349 $350 $11 $-1 $351 reversed single #
loop $-1 $-1 $352 $233 #
plane-surface $-1 -46.083431306494347 -19.76755648801851 0 0 -1 0 0 0 -1 forward_v I I I I #
coedge $-1 $353 $354 $355 $356 forward $234 $-1 #
coedge $-1 $357 $236 $358 $359 reversed $167 $-1 #
coedge $-1 $236 $357 $303 $360 reversed $167 $-1 #
coedge $-1 $354 $353 $236 $297 reversed $234 $-1 #
edge $-1 $361 -6.0526059425712004 $362 6.0526059425712004 $296 $363 forward 7 unknown #
coedge $-1 $364 $237 $365 $366 forward $53 $-1 #
coedge $-1 $311 $367 $237 $300 reversed $350 $-1 #
edge $-1 $301 -29.399012588234587 $368 19.76755648801851 $299 $369 forward 7 unknown #
vertex $-1 $238 $370 #
straight-curve $-1 0 29.399012588234587 6.0526059425712004 -1 0 0 I I #
coedge $-1 $239 $364 $295 $360 forward $53 $-1 #
coedge $-1 $371 $372 $239 $305 reversed $373 $-1 #
edge $-1 $374 23.216472366680694 $307 29.399012588234587 $304 $369 forward 7 unknown #
coedge $-1 $250 $240 $372 $375 forward $182 $-1 #
vertex $-1 $305 $376 #
straight-curve $-1 0 -29.399012588234587 6.0526059425712004 1 0 0 I I #
point $-1 35.853415270147906 -29.399012588234587 6.0526059425712004 #
straight-curve $-1 35.853415270147906 -29.399012588234587 2.2763029712856002 0 0 1 I I #
coedge $-1 $377 $299 $246 $312 forward $350 $-1 #
edge $-1 $301 -6.0526059425712004 $378 6.0526059425712004 $246 $379 forward 7 unknown #
coedge $-1 $253 $380 $249 $314 forward $318 $-1 #
edge $-1 $378 -42.984710226752526 $257 42.984710226752526 $249 $381 forward 7 unknown #
coedge $-1 $382 $253 $250 $316 forward $318 $-1 #
edge $-1 $255 -42.984710226752526 $383 42.984710226752526 $250 $384 forward 7 unknown #
plane-surface $-1 0 -29.399012588234587 0 0 1 0 0 0 1 forward_v I I I I #
loop $-1 $-1 $253 $385 #
straight-curve $-1 42.984710226752526 0 -6.0526059425712004 0 -1 0 I I #
point $-1 42.984710226752526 -29.399012588234587 -6.0526059425712004 #
point $-1 42.984710226752526 29.399012588234587 -6.0526059425712004 #
face $-1 $386 $387 $10 $-1 $388 reversed single #
loop $-1 $-1 $329 $264 #
plane-surface $-1 0 -29.399012588234587 0 0 1 0 0 0 1 forward_v I I I I #
coedge $-1 $345 $335 $266 $326 reversed $387 $-1 #
edge $-1 $327 -6.0526059425712004 $328 6.0526059425712004 $325 $389 forward 7 unknown #
vertex $-1 $346 $390 #
vertex $-1 $336 $391 #
coedge $-1 $276 $283 $275 $330 forward $323 $-1 #
edge $-1 $285 -6.0526059425712004 $278 6.0526059425712004 $275 $392 forward 7 unknown #
coedge $-1 $283 $276 $338 $393 reversed $323 $-1 #
vertex $-1 $393 $394 #
straight-curve $-1 0 -29.399012588234587 -6.0526059425712004 -1 0 0 I I #
point $-1 -42.984710226752526 -29.399012588234587 -6.0526059425712004 #
coedge $-1 $325 $395 $280 $336 reversed $387 $-1 #
edge $-1 $328 -42.984710226752526 $340 42.984710226752526 $335 $396 forward 7 unknown #
coedge $-1 $288 $281 $395 $397 reversed $339 $-1 #
coedge $-1 $281 $288 $331 $393 forward $339 $-1 #
loop $-1 $-1 $338 $386 #
vertex $-1 $282 $398 #
straight-curve $-1 42.984710226752526 0 -6.0526059425712004 0 -1 0 I I #
vertex $-1 $289 $399 #
straight-curve $-1 0 -29.399012588234587 6.0526059425712004 1 0 0 I I #
point $-1 -42.984710226752526 -29.399012588234587 6.0526059425712004 #
coedge $-1 $395 $325 $287 $346 reversed $387 $-1 #
edge $-1 $347 -42.984710226752526 $327 42.984710226752526 $345 $400 forward 7 unknown #
vertex $-1 $289 $401 #
straight-curve $-1 42.984710226752526 0 6.0526059425712004 0 1 0 I I #
face $-1 $385 $373 $11 $-1 $351 reversed single #
loop $-1 $-1 $367 $290 #
plane-surface $-1 -42.984710226752526 0 0 1 0 0 0 0 -1 forward_v I I I I #
coedge $-1 $402 $365 $367 $403 reversed $291 $-1 #
coedge $-1 $296 $293 $404 $405 reversed $234 $-1 #
coedge $-1 $293 $296 $364 $406 reversed $234 $-1 #
coedge $-1 $365 $402 $293 $356 reversed $291 $-1 #
edge $-1 $407 -6.0526059425712004 $408 6.0526059425712004 $355 $409 forward 7 unknown #
coedge $-1 $295 $294 $371 $410 reversed $167 $-1 #
coedge $-1 $404 $382 $294 $359 forward $318 $-1 #
edge $-1 $411 -3.0987210797418214 $362 3.0987210797418214 $294 $412 forward 7 unknown #
edge $-1 $361 -3.0987210797418214 $374 3.0987210797418214 $295 $413 forward 7 unknown #
vertex $-1 $406 $414 #
vertex $-1 $405 $415 #
straight-curve $-1 -49.182152386236169 -23.216472366680694 0 0 0 -1 I I #
coedge $-1 $303 $298 $354 $406 forward $53 $-1 #
coedge $-1 $352 $355 $298 $366 reversed $291 $-1 #
edge $-1 $368 -3.0987210797418214 $407 3.0987210797418214 $365 $416 forward 7 unknown #
coedge $-1 $299 $377 $352 $403 forward $350 $-1 #
vertex $-1 $366 $417 #
straight-curve $-1 -42.984710226752526 0 6.0526059425712004 0 -1 0 I I #
point $-1 -42.984710226752526 29.399012588234587 6.0526059425712004 #
coedge $-1 $418 $304 $357 $410 forward $373 $-1 #
coedge $-1 $304 $418 $306 $375 reversed $373 $-1 #
loop $-1 $-1 $371 $349 #
vertex $-1 $305 $419 #
edge $-1 $307 -6.0526059425712004 $383 6.0526059425712004 $372 $420 forward 7 unknown #
point $-1 -42.984710226752526 -29.399012588234587 6.0526059425712004 #
coedge $-1 $367 $311 $380 $421 reversed $350 $-1 #
vertex $-1 $314 $422 #
straight-curve $-1 -42.984710226752526 29.399012588234587 0 0 0 -1 I I #
coedge $-1 $313 $423 $377 $421 forward $318 $-1 #
straight-curve $-1 0 29.399012588234587 -6.0526059425712004 1 0 0 I I #
coedge $-1 $358 $315 $418 $424 forward $318 $-1 #
vertex $-1 $424 $425 #
straight-curve $-1 0 -29.399012588234587 -6.0526059425712004 -1 0 0 I I #
face $-1 $251 $318 $11 $-1 $426 reversed single #
face $-1 $-1 $339 $10 $-1 $427 reversed single #
loop $-1 $-1 $395 $322 #
plane-surface $-1 0 29.399012588234587 0 0 -1 0 0 0 -1 forward_v I I I I #
straight-curve $-1 -42.984710226752526 29.399012588234587 0 0 0 -1 I I #
point $-1 -42.984710226752526 29.399012588234587 6.0526059425712004 #
point $-1 -42.984710226752526 29.399012588234587 -6.0526059425712004 #
straight-curve $-1 -42.984710226752526 -29.399012588234587 0 0 0 -1 I I #
edge $-1 $342 -6.0526059425712004 $332 6.0526059425712004 $338 $428 forward 7 unknown #
point $-1 42.984710226752526 -29.399012588234587 -6.0526059425712004 #
coedge $-1 $335 $345 $337 $397 forward $387 $-1 #
straight-curve $-1 0 29.399012588234587 -6.0526059425712004 1 0 0 I I #
edge $-1 $347 -6.0526059425712004 $340 6.0526059425712004 $337 $429 forward 7 unknown #
point $-1 42.984710226752526 29.399012588234587 -6.0526059425712004 #
point $-1 42.984710226752526 -29.399012588234587 6.0526059425712004 #
straight-curve $-1 0 29.399012588234587 6.0526059425712004 -1 0 0 I I #
point $-1 42.984710226752526 29.399012588234587 6.0526059425712004 #
coedge $-1 $355 $352 $423 $430 reversed $291 $-1 #
edge $-1 $431 -6.0526059425712004 $368 6.0526059425712004 $367 $432 forward 7 unknown #
coedge $-1 $423 $358 $353 $405 forward $318 $-1 #
edge $-1 $362 -1.7244579393310921 $408 1.7244579393310921 $353 $433 forward 7 unknown #
edge $-1 $407 -1.7244579393310921 $361 1.7244579393310921 $354 $434 forward 7 unknown #
vertex $-1 $366 $435 #
vertex $-1 $430 $436 #
straight-curve $-1 -49.182152386236169 -19.76755648801851 0 0 0 -1 I I #
edge $-1 $374 -6.0526059425712004 $411 6.0526059425712004 $371 $437 forward 7 unknown #
vertex $-1 $359 $438 #
straight-curve $-1 -46.083431306494347 -23.216472366680694 -6.0526059425712004 -1 0 0 I I #
straight-curve $-1 -46.083431306494347 -23.216472366680694 6.0526059425712004 1 0 0 I I #
point $-1 -49.182152386236169 -23.216472366680694 6.0526059425712004 #
point $-1 -49.182152386236169 -23.216472366680694 -6.0526059425712004 #
straight-curve $-1 -46.083431306494347 -19.76755648801851 6.0526059425712004 -1 0 0 I I #
point $-1 -42.984710226752526 -19.76755648801851 6.0526059425712004 #
coedge $-1 $372 $371 $382 $424 reversed $373 $-1 #
point $-1 -42.984710226752526 -23.216472366680694 6.0526059425712004 #
straight-curve $-1 -42.984710226752526 -29.399012588234587 0 0 0 -1 I I #
edge $-1 $431 -19.76755648801851 $378 29.399012588234587 $377 $439 forward 7 unknown #
point $-1 -42.984710226752526 29.399012588234587 -6.0526059425712004 #
coedge $-1 $380 $404 $402 $430 forward $318 $-1 #
edge $-1 $383 -29.399012588234587 $411 -23.216472366680694 $418 $439 forward 7 unknown #
point $-1 -42.984710226752526 -29.399012588234587 -6.0526059425712004 #
plane-surface $-1 0 0 -6.0526059425712004 0 0 1 1 0 0 forward_v I I I I #
plane-surface $-1 42.984710226752526 0 0 -1 0 0 0 0 1 forward_v I I I I #
straight-curve $-1 42.984710226752526 -29.399012588234587 0 0 0 -1 I I #
straight-curve $-1 42.984710226752526 29.399012588234587 0 0 0 -1 I I #
edge $-1 $408 -3.0987210797418214 $431 3.0987210797418214 $402 $440 forward 7 unknown #
vertex $-1 $421 $441 #
straight-curve $-1 -42.984710226752526 -19.76755648801851 0 0 0 1 I I #
straight-curve $-1 -49.182152386236169 -21.492014427349602 -6.0526059425712004 0 1 0 I I #
straight-curve $-1 -49.182152386236169 -21.492014427349602 6.0526059425712004 0 -1 0 I I #
point $-1 -49.182152386236169 -19.76755648801851 6.0526059425712004 #
point $-1 -49.182152386236169 -19.76755648801851 -6.0526059425712004 #
straight-curve $-1 -42.984710226752526 -23.216472366680694 0 0 0 -1 I I #
point $-1 -42.984710226752526 -23.216472366680694 -6.0526059425712004 #
straight-curve $-1 -42.984710226752526 0 -6.0526059425712004 0 1 0 I I #
straight-curve $-1 -46.083431306494347 -19.76755648801851 -6.0526059425712004 1 0 0 I I #
point $-1 -42.984710226752526 -19.76755648801851 -6.0526059425712004 #
End-of-ACIS-data 