500 0 8 0           
7 Unknown 11 ACIS 5.0 NT 24 Thu Mar 25 23:23:11 1999 
-1 9.9999999999999995e-007 1e-010 
body $-1 $8 $-1 $9 #
body $-1 $10 $-1 $11 #
body $-1 $12 $-1 $13 #
body $-1 $14 $-1 $15 #
body $-1 $16 $-1 $17 #
body $-1 $18 $-1 $19 #
body $-1 $20 $-1 $21 #
body $-1 $22 $-1 $23 #
lump $-1 $-1 $24 $0 #
transform $-1 1 0 0 0 1 0 0 0 1 77.352214117862474 43.04264627380627 21.042516881621836 1 rotate no_reflect no_shear #
lump $-1 $-1 $25 $1 #
transform $-1 1 0 0 0 1 0 0 0 1 77.352214117862474 43.04264627380627 21.042516881621836 1 rotate no_reflect no_shear #
lump $-1 $-1 $26 $2 #
transform $-1 1 0 0 0 1 0 0 0 1 77.352214117862474 43.04264627380627 21.042516881621836 1 rotate no_reflect no_shear #
lump $-1 $-1 $27 $3 #
transform $-1 1 0 0 0 1 0 0 0 1 77.352214117862474 43.04264627380627 21.042516881621836 1 rotate no_reflect no_shear #
lump $-1 $-1 $28 $4 #
transform $-1 1 0 0 0 1 0 0 0 1 77.352214117862474 43.04264627380627 21.042516881621836 1 rotate no_reflect no_shear #
lump $-1 $-1 $29 $5 #
transform $-1 1 0 0 0 1 0 0 0 1 77.352214117862474 43.04264627380627 21.042516881621836 1 rotate no_reflect no_shear #
lump $-1 $-1 $30 $6 #
transform $-1 1 0 0 0 1 0 0 0 1 77.352214117862474 43.04264627380627 21.042516881621836 1 rotate no_reflect no_shear #
lump $-1 $-1 $31 $7 #
transform $-1 1 0 0 0 1 0 0 0 1 77.352214117862474 43.04264627380627 21.042516881621836 1 rotate no_reflect no_shear #
shell $-1 $-1 $-1 $32 $-1 $8 #
shell $-1 $-1 $-1 $33 $-1 $10 #
shell $-1 $-1 $-1 $34 $-1 $12 #
shell $-1 $-1 $-1 $35 $-1 $14 #
shell $-1 $-1 $-1 $36 $-1 $16 #
shell $-1 $-1 $-1 $37 $-1 $18 #
shell $-1 $-1 $-1 $38 $-1 $20 #
shell $-1 $-1 $-1 $39 $-1 $22 #
face $-1 $40 $41 $24 $-1 $42 reversed single #
face $-1 $43 $44 $25 $-1 $45 forward single #
face $-1 $46 $47 $26 $-1 $48 reversed single #
face $-1 $49 $50 $27 $-1 $51 forward single #
face $-1 $52 $53 $28 $-1 $54 forward single #
face $-1 $55 $56 $29 $-1 $57 reversed single #
face $-1 $58 $59 $30 $-1 $60 forward single #
face $-1 $61 $62 $31 $-1 $63 forward single #
face $-1 $64 $65 $24 $-1 $66 forward single #
loop $-1 $-1 $67 $32 #
plane-surface $-1 -77.352214117862474 0 0 1 0 0 0 0 -1 forward_v I I I I #
face $-1 $68 $69 $25 $-1 $70 reversed single #
loop $-1 $-1 $71 $33 #
plane-surface $-1 -77.352214117862474 0 0 1 0 0 0 0 -1 forward_v I I I I #
face $-1 $72 $73 $26 $-1 $74 reversed single #
loop $-1 $-1 $75 $34 #
plane-surface $-1 57.270107313485795 52.019036064877056 186.34481655931268 1 0 0 0 -0.52991927123019833 -0.84804809178421925 forward_v I I I I #
face $-1 $76 $77 $27 $-1 $78 forward single #
loop $-1 $79 $80 $35 #
cone-surface $-1 63.007852114736266 32.594378617586806 13.307901707376116 0 -0.52991927123019833 -0.84804809178421925 1.5 0 0 1 I I 0 1 1.5 forward I I I I #
face $-1 $81 $82 $28 $-1 $83 forward single #
loop $-1 $84 $85 $36 #
cone-surface $-1 71.614469316612002 32.594378617586806 13.307901707376116 0 -0.52991927123019833 -0.84804809178421925 1.5 0 0 1 I I 0 1 1.5 forward I I I I #
face $-1 $86 $87 $29 $-1 $88 reversed single #
loop $-1 $-1 $89 $37 #
plane-surface $-1 -18.360719312594174 -140.40129875721144 127.16476648498922 -1 0 0 0 -0.62932039886446345 0.77714595512881146 forward_v I I I I #
face $-1 $90 $91 $30 $-1 $92 forward single #
loop $-1 $93 $94 $38 #
cone-surface $-1 -40.754897843707212 -32.163676755120754 11.31064221667843 0 0.62932039886446345 -0.77714595512881146 2 0 0 1 I I 0 1 2 forward I I I I #
face $-1 $95 $96 $31 $-1 $97 forward single #
loop $-1 $98 $99 $39 #
cone-surface $-1 -27.318390725039393 -32.163676755120754 11.31064221667843 0 0.62932039886446345 -0.77714595512881146 2 0 0 1 I I 0 1 2 forward I I I I #
face $-1 $100 $101 $24 $-1 $102 reversed single #
loop $-1 $-1 $103 $40 #
plane-surface $-1 0 0 21.042516881621836 0 0 1 1 0 0 forward_v I I I I #
coedge $-1 $104 $105 $106 $107 reversed $41 $-1 #
face $-1 $108 $109 $25 $-1 $110 reversed single #
loop $-1 $-1 $111 $43 #
plane-surface $-1 0 0 -21.042516881621836 0 0 1 1 0 0 forward_v I I I I #
coedge $-1 $112 $113 $114 $115 forward $44 $-1 #
face $-1 $116 $117 $26 $-1 $118 forward single #
loop $-1 $-1 $119 $46 #
plane-surface $-1 67.311160715674134 -29.96182180188282 55.14802140343744 0 0.52991927123019833 0.84804809178421925 1 0 0 forward_v I I I I #
coedge $-1 $120 $121 $122 $123 reversed $47 $-1 #
face $-1 $-1 $124 $27 $-1 $125 forward single #
loop $-1 $126 $127 $49 #
cone-surface $-1 63.007852114736266 30.960797788508287 10.693625948619047 0 -0.52991927123019833 -0.84804809178421925 0.75 0 0 1 I I -0.70710678118654757 0.70710678118654757 0.75 forward I I I I #
loop $-1 $-1 $128 $35 #
coedge $-1 $80 $80 $129 $130 reversed $50 $-1 #
face $-1 $-1 $131 $28 $-1 $132 forward single #
loop $-1 $133 $134 $52 #
cone-surface $-1 71.614469316612002 30.960797788508287 10.693625948619047 0 -0.52991927123019833 -0.84804809178421925 0.75 0 0 1 I I -0.70710678118654757 0.70710678118654757 0.75 forward I I I I #
loop $-1 $-1 $135 $36 #
coedge $-1 $85 $85 $136 $137 reversed $53 $-1 #
face $-1 $138 $139 $29 $-1 $140 reversed single #
loop $-1 $-1 $141 $55 #
plane-surface $-1 -34.036644284373295 -43.042646273806255 6.9368458410800855 0 -0.62932039886446345 0.77714595512881146 1 0 0 forward_v I I I I #
coedge $-1 $142 $143 $144 $145 reversed $56 $-1 #
face $-1 $-1 $146 $30 $-1 $147 forward single #
loop $-1 $148 $149 $58 #
cone-surface $-1 -40.754897843707212 -29.364913187991476 7.8544571168770787 0 0.62932039886446345 -0.77714595512881146 1 0 0 1 I I -0.70710678118654746 0.70710678118654746 1 forward I I I I #
loop $-1 $-1 $150 $38 #
coedge $-1 $94 $94 $151 $152 reversed $59 $-1 #
face $-1 $-1 $153 $31 $-1 $154 forward single #
loop $-1 $155 $156 $61 #
cone-surface $-1 -27.318390725039393 -29.364913187991476 7.8544571168770787 0 0.62932039886446345 -0.77714595512881146 1 0 0 1 I I -0.70710678118654746 0.70710678118654746 1 forward I I I I #
loop $-1 $-1 $157 $39 #
coedge $-1 $99 $99 $158 $159 reversed $62 $-1 #
face $-1 $160 $161 $24 $-1 $162 reversed single #
loop $-1 $-1 $163 $64 #
plane-surface $-1 0 0 -21.042516881621836 0 0 1 1 0 0 forward_v I I I I #
coedge $-1 $164 $165 $166 $167 forward $65 $-1 #
coedge $-1 $168 $67 $169 $170 reversed $41 $-1 #
coedge $-1 $67 $168 $171 $172 forward $41 $-1 #
coedge $-1 $173 $174 $67 $107 forward $101 $-1 #
edge $-1 $175 -43.04264627380627 $176 43.04264627380627 $67 $177 forward 7 unknown #
face $-1 $178 $179 $25 $-1 $180 reversed single #
loop $-1 $-1 $181 $68 #
plane-surface $-1 -91.1720365487175 -12.924753295163656 0 0 1 0 0 0 1 forward_v I I I I #
coedge $-1 $182 $183 $113 $184 forward $69 $-1 #
coedge $-1 $185 $71 $186 $187 reversed $44 $-1 #
coedge $-1 $71 $185 $111 $184 reversed $44 $-1 #
coedge $-1 $188 $189 $71 $115 reversed $190 $-1 #
edge $-1 $191 -21.042516881621836 $192 21.042516881621836 $114 $193 forward 7 unknown #
face $-1 $194 $195 $26 $-1 $196 reversed single #
loop $-1 $-1 $122 $72 #
plane-surface $-1 0 0 21.042516881621836 0 0 1 1 0 0 forward_v I I I I #
coedge $-1 $197 $198 $199 $200 reversed $73 $-1 #
coedge $-1 $121 $75 $201 $202 reversed $47 $-1 #
coedge $-1 $75 $120 $197 $203 reversed $47 $-1 #
coedge $-1 $199 $204 $75 $123 forward $117 $-1 #
edge $-1 $205 -17.033128241367741 $206 1.3911243197594843 $122 $207 forward 7 unknown #
loop $-1 $-1 $129 $76 #
plane-surface $-1 67.311160715674134 -29.96182180188282 55.14802140343744 0 0.52991927123019833 0.84804809178421925 1 0 0 forward_v I I I I #
loop $-1 $-1 $208 $49 #
coedge $-1 $127 $127 $128 $209 reversed $77 $-1 #
coedge $-1 $128 $128 $127 $209 forward $79 $-1 #
coedge $-1 $129 $129 $80 $130 forward $124 $-1 #
edge $-1 $210 1.1312701895149883e-015 $210 6.2831853071796013 $129 $211 forward 7 unknown #
loop $-1 $-1 $136 $81 #
plane-surface $-1 67.311160715674134 -29.96182180188282 55.14802140343744 0 0.52991927123019833 0.84804809178421925 1 0 0 forward_v I I I I #
loop $-1 $-1 $212 $52 #
coedge $-1 $134 $134 $135 $213 reversed $82 $-1 #
coedge $-1 $135 $135 $134 $213 forward $84 $-1 #
coedge $-1 $136 $136 $85 $137 forward $131 $-1 #
edge $-1 $214 1.1312701895149883e-015 $214 6.2831853071796013 $136 $215 forward 7 unknown #
face $-1 $216 $217 $29 $-1 $218 forward single #
loop $-1 $-1 $219 $86 #
plane-surface $-1 -49.71256925615242 -140.40129875721144 127.16476648498922 1 0 0 0 0.62932039886446345 -0.77714595512881146 forward_v I I I I #
coedge $-1 $220 $221 $222 $223 reversed $87 $-1 #
coedge $-1 $143 $89 $224 $225 reversed $56 $-1 #
coedge $-1 $89 $142 $220 $226 reversed $56 $-1 #
coedge $-1 $222 $227 $89 $145 forward $217 $-1 #
edge $-1 $228 27.158003104799448 $229 44.577055805640889 $144 $230 forward 7 unknown #
loop $-1 $-1 $151 $90 #
plane-surface $-1 -34.036644284373295 -43.042646273806255 6.9368458410800855 0 -0.62932039886446345 0.77714595512881146 1 0 0 forward_v I I I I #
loop $-1 $-1 $231 $58 #
coedge $-1 $149 $149 $150 $232 reversed $91 $-1 #
coedge $-1 $150 $150 $149 $232 forward $93 $-1 #
coedge $-1 $151 $151 $94 $152 forward $146 $-1 #
edge $-1 $233 6.2648264041219126e-016 $233 6.2831853071796013 $151 $234 forward 7 unknown #
loop $-1 $-1 $158 $95 #
plane-surface $-1 -34.036644284373295 -43.042646273806255 6.9368458410800855 0 -0.62932039886446345 0.77714595512881146 1 0 0 forward_v I I I I #
loop $-1 $-1 $235 $61 #
coedge $-1 $156 $156 $157 $236 reversed $96 $-1 #
coedge $-1 $157 $157 $156 $236 forward $98 $-1 #
coedge $-1 $158 $158 $99 $159 forward $153 $-1 #
edge $-1 $237 6.2648264041219126e-016 $237 6.2831853071796013 $158 $238 forward 7 unknown #
face $-1 $239 $240 $24 $-1 $241 reversed single #
loop $-1 $-1 $169 $100 #
plane-surface $-1 0 -43.04264627380627 0 0 1 0 0 0 1 forward_v I I I I #
coedge $-1 $174 $173 $242 $243 forward $101 $-1 #
coedge $-1 $244 $103 $245 $246 forward $65 $-1 #
coedge $-1 $103 $244 $247 $248 forward $65 $-1 #
coedge $-1 $249 $250 $103 $167 reversed $251 $-1 #
edge $-1 $252 -43.04264627380627 $253 43.04264627380627 $166 $254 forward 7 unknown #
coedge $-1 $105 $104 $244 $255 reversed $41 $-1 #
coedge $-1 $256 $247 $104 $170 forward $161 $-1 #
edge $-1 $257 -21.042516881621836 $175 21.042516881621836 $104 $258 forward 7 unknown #
coedge $-1 $245 $259 $105 $172 reversed $240 $-1 #
edge $-1 $260 -21.042516881621836 $176 21.042516881621836 $171 $261 forward 7 unknown #
coedge $-1 $163 $106 $259 $262 forward $101 $-1 #
coedge $-1 $106 $163 $256 $263 forward $101 $-1 #
vertex $-1 $107 $264 #
vertex $-1 $262 $265 #
straight-curve $-1 -77.352214117862474 0 -21.042516881621836 0 1 0 I I #
face $-1 $266 $190 $25 $-1 $267 reversed single #
loop $-1 $-1 $268 $108 #
plane-surface $-1 -104.99185897957253 -6.941182902863126 0 1 0 0 0 0 -1 forward_v I I I I #
coedge $-1 $269 $270 $271 $272 forward $109 $-1 #
coedge $-1 $273 $111 $269 $274 forward $69 $-1 #
coedge $-1 $111 $273 $188 $275 forward $69 $-1 #
edge $-1 $191 0.95761251056259589 $276 12.924753295163656 $111 $277 forward 7 unknown #
coedge $-1 $113 $112 $278 $279 forward $44 $-1 #
coedge $-1 $280 $281 $112 $187 forward $282 $-1 #
edge $-1 $283 -12.924753295163656 $192 -0.95761251056259589 $186 $284 forward 7 unknown #
coedge $-1 $285 $114 $183 $275 reversed $190 $-1 #
coedge $-1 $114 $285 $280 $286 reversed $190 $-1 #
loop $-1 $-1 $114 $178 #
vertex $-1 $184 $287 #
vertex $-1 $286 $288 #
straight-curve $-1 -77.352214117862474 -0.95761251056259589 0 0 0 1 I I #
face $-1 $-1 $289 $26 $-1 $290 reversed single #
loop $-1 $-1 $201 $116 #
plane-surface $-1 0 43.04264627380627 0 0 -1 0 0 0 -1 forward_v I I I I #
coedge $-1 $291 $119 $121 $203 forward $73 $-1 #
coedge $-1 $119 $291 $292 $293 reversed $73 $-1 #
coedge $-1 $294 $122 $119 $200 forward $117 $-1 #
edge $-1 $206 23.614526955648728 $295 43.696633760025406 $199 $296 forward 7 unknown #
coedge $-1 $297 $298 $120 $202 forward $195 $-1 #
edge $-1 $299 -83.642642366688165 $205 -72.129891398034502 $201 $300 forward 7 unknown #
edge $-1 $206 64.359811717434383 $299 86.085292547612539 $121 $301 forward 7 unknown #
coedge $-1 $122 $294 $297 $302 forward $117 $-1 #
vertex $-1 $123 $303 #
vertex $-1 $123 $304 #
straight-curve $-1 57.270107313485795 26.009518032438528 21.042516881621836 0 -1 0 I I #
coedge $-1 $208 $208 $-1 $305 reversed $126 $-1 #
edge $-1 $306 0 $306 6.2831853071796004 $127 $307 forward 7 unknown #
vertex $-1 $130 $308 #
ellipse-curve $-1 63.007852114736266 33.83051999324266 15.286141397294999 0 0.52991927123019833 0.84804809178421925 1.5 0 0 1 I I #
coedge $-1 $212 $212 $-1 $309 reversed $133 $-1 #
edge $-1 $310 0 $310 6.2831853071796004 $134 $311 forward 7 unknown #
vertex $-1 $137 $312 #
ellipse-curve $-1 71.614469316612002 33.83051999324266 15.286141397294999 0 0.52991927123019833 0.84804809178421925 1.5 0 0 1 I I #
face $-1 $-1 $313 $29 $-1 $314 reversed single #
loop $-1 $-1 $144 $138 #
plane-surface $-1 0 0 21.042516881621836 0 0 1 1 0 0 forward_v I I I I #
coedge $-1 $315 $316 $317 $318 reversed $139 $-1 #
coedge $-1 $319 $141 $143 $226 forward $87 $-1 #
coedge $-1 $141 $319 $315 $320 forward $87 $-1 #
coedge $-1 $317 $144 $141 $223 forward $217 $-1 #
edge $-1 $229 1.3423971704075264 $321 32.694247113965773 $222 $322 forward 7 unknown #
coedge $-1 $323 $324 $142 $225 forward $313 $-1 #
edge $-1 $325 -56.645537401414536 $228 -42.539866360872772 $224 $326 forward 7 unknown #
edge $-1 $229 -22.414132874119158 $325 1.8310242626372826e-014 $143 $327 forward 7 unknown #
coedge $-1 $144 $317 $323 $328 forward $217 $-1 #
vertex $-1 $145 $329 #
vertex $-1 $145 $330 #
straight-curve $-1 -18.360719312594174 -70.200649378605718 21.042516881621836 0 1 0 I I #
coedge $-1 $231 $231 $-1 $331 reversed $148 $-1 #
edge $-1 $332 0 $332 6.2831853071796004 $149 $333 forward 7 unknown #
vertex $-1 $152 $334 #
ellipse-curve $-1 -40.754897843707212 -34.333119923385553 13.989681361350952 0 -0.62932039886446345 0.77714595512881146 2 0 0 1 I I #
coedge $-1 $235 $235 $-1 $335 reversed $155 $-1 #
edge $-1 $336 0 $336 6.2831853071796004 $156 $337 forward 7 unknown #
vertex $-1 $159 $338 #
ellipse-curve $-1 -27.318390725039393 -34.333119923385553 13.989681361350952 0 -0.62932039886446345 0.77714595512881146 2 0 0 1 I I #
face $-1 $-1 $251 $24 $-1 $339 reversed single #
loop $-1 $-1 $340 $160 #
plane-surface $-1 0 43.04264627380627 0 0 -1 0 0 0 -1 forward_v I I I I #
coedge $-1 $250 $249 $163 $243 reversed $251 $-1 #
edge $-1 $341 -43.04264627380627 $342 43.04264627380627 $242 $343 forward 7 unknown #
coedge $-1 $165 $164 $168 $255 forward $65 $-1 #
coedge $-1 $340 $171 $164 $246 reversed $240 $-1 #
edge $-1 $253 -77.352214117862474 $260 77.352214117862474 $245 $344 forward 7 unknown #
coedge $-1 $169 $345 $165 $248 reversed $161 $-1 #
edge $-1 $257 -77.352214117862474 $252 77.352214117862474 $247 $346 forward 7 unknown #
coedge $-1 $242 $166 $345 $347 forward $251 $-1 #
coedge $-1 $166 $242 $340 $348 reversed $251 $-1 #
loop $-1 $-1 $249 $239 #
vertex $-1 $167 $349 #
vertex $-1 $167 $350 #
straight-curve $-1 77.352214117862474 0 21.042516881621836 0 1 0 I I #
edge $-1 $260 -43.04264627380627 $257 43.04264627380627 $168 $351 forward 7 unknown #
coedge $-1 $345 $169 $174 $263 reversed $161 $-1 #
vertex $-1 $255 $352 #
straight-curve $-1 -77.352214117862474 -43.04264627380627 0 0 0 -1 I I #
coedge $-1 $171 $340 $173 $262 reversed $240 $-1 #
vertex $-1 $246 $353 #
straight-curve $-1 -77.352214117862474 43.04264627380627 0 0 0 -1 I I #
edge $-1 $176 -77.352214117862474 $341 77.352214117862474 $259 $354 forward 7 unknown #
edge $-1 $342 -77.352214117862474 $175 77.352214117862474 $256 $355 forward 7 unknown #
point $-1 -77.352214117862474 -43.04264627380627 -21.042516881621836 #
point $-1 -77.352214117862474 43.04264627380627 -21.042516881621836 #
face $-1 $-1 $282 $25 $-1 $356 forward single #
plane-surface $-1 -91.1720365487175 -0.95761251056259589 0 0 -1 0 0 0 -1 forward_v I I I I #
coedge $-1 $357 $358 $285 $359 forward $179 $-1 #
coedge $-1 $278 $181 $182 $274 reversed $109 $-1 #
coedge $-1 $181 $278 $281 $360 reversed $109 $-1 #
coedge $-1 $358 $357 $181 $272 reversed $179 $-1 #
edge $-1 $361 -21.042516881621836 $362 21.042516881621836 $271 $363 forward 7 unknown #
coedge $-1 $183 $182 $357 $364 forward $69 $-1 #
edge $-1 $276 -13.819822430855027 $362 13.819822430855027 $269 $365 forward 7 unknown #
edge $-1 $366 -13.819822430855027 $191 13.819822430855027 $188 $367 forward 7 unknown #
vertex $-1 $274 $368 #
straight-curve $-1 -77.352214117862474 0 -21.042516881621836 0 -1 0 I I #
coedge $-1 $270 $269 $185 $279 reversed $109 $-1 #
edge $-1 $283 -21.042516881621836 $276 21.042516881621836 $278 $369 forward 7 unknown #
coedge $-1 $370 $186 $189 $286 forward $282 $-1 #
coedge $-1 $186 $370 $270 $360 forward $282 $-1 #
loop $-1 $-1 $186 $266 #
vertex $-1 $187 $371 #
straight-curve $-1 -77.352214117862474 0 21.042516881621836 0 1 0 I I #
coedge $-1 $189 $188 $268 $359 reversed $190 $-1 #
edge $-1 $192 -13.819822430855027 $372 13.819822430855027 $189 $373 forward 7 unknown #
point $-1 -77.352214117862474 -0.95761251056259589 -21.042516881621836 #
point $-1 -77.352214117862474 -0.95761251056259589 21.042516881621836 #
loop $-1 $-1 $292 $194 #
plane-surface $-1 77.352214117862474 0 0 -1 0 0 0 0 1 forward_v I I I I #
coedge $-1 $198 $197 $298 $374 reversed $73 $-1 #
coedge $-1 $375 $376 $198 $293 forward $289 $-1 #
edge $-1 $295 37.043279158753137 $377 58.768759988931308 $292 $378 forward 7 unknown #
coedge $-1 $204 $199 $376 $379 forward $117 $-1 #
vertex $-1 $379 $380 #
straight-curve $-1 33.655580357837067 24.618393712679044 21.042516881621836 1 0 0 I I #
coedge $-1 $381 $201 $204 $302 reversed $195 $-1 #
coedge $-1 $201 $381 $291 $374 forward $195 $-1 #
vertex $-1 $202 $382 #
straight-curve $-1 57.270107313485795 43.04264627380627 93.172408279656338 0 0 1 I I #
straight-curve $-1 57.270107313485795 -29.96182180188282 55.14802140343744 0 0.84804809178421925 -0.52991927123019833 I I #
edge $-1 $383 -77.352214117862474 $205 -57.270107313485795 $297 $384 forward 7 unknown #
point $-1 57.270107313485795 43.04264627380627 21.042516881621836 #
point $-1 57.270107313485795 24.618393712679044 21.042516881621836 #
edge $-1 $385 1 $385 0 $208 $-1 forward 7 unknown #
vertex $-1 $209 $386 #
ellipse-curve $-1 63.007852114736266 31.358237241930937 11.329662017457212 0 0.52991927123019833 0.84804809178421925 1.5 0 0 1 I I #
point $-1 64.507852114736266 33.830519993242675 15.286141397295019 #
edge $-1 $387 1 $387 0 $212 $-1 forward 7 unknown #
vertex $-1 $213 $388 #
ellipse-curve $-1 71.614469316612002 31.358237241930937 11.329662017457212 0 0.52991927123019833 0.84804809178421925 1.5 0 0 1 I I #
point $-1 73.114469316612002 33.830519993242675 15.286141397295019 #
loop $-1 $-1 $224 $216 #
plane-surface $-1 0 -43.04264627380627 0 0 1 0 0 0 1 forward_v I I I I #
coedge $-1 $316 $219 $221 $320 reversed $139 $-1 #
coedge $-1 $219 $315 $389 $390 reversed $139 $-1 #
coedge $-1 $227 $222 $219 $318 forward $217 $-1 #
edge $-1 $321 -44.577055805640889 $391 -27.158003104799448 $317 $392 forward 7 unknown #
coedge $-1 $221 $220 $324 $393 reversed $87 $-1 #
edge $-1 $394 -1.8310242626372826e-014 $321 22.414132874119158 $315 $395 forward 7 unknown #
vertex $-1 $223 $396 #
straight-curve $-1 -17.018322142186648 -25.623593572964833 21.042516881621836 -1 0 0 I I #
coedge $-1 $389 $224 $227 $328 reversed $313 $-1 #
coedge $-1 $224 $389 $319 $393 forward $313 $-1 #
vertex $-1 $225 $397 #
straight-curve $-1 -18.360719312594174 -43.04264627380627 63.582383242494608 0 0 1 I I #
straight-curve $-1 -18.360719312594174 -43.042646273806255 6.9368458410800855 0 -0.77714595512881146 -0.62932039886446345 I I #
edge $-1 $391 -49.71256925615242 $228 -18.360719312594174 $323 $398 forward 7 unknown #
point $-1 -18.360719312594174 -43.04264627380627 21.042516881621836 #
point $-1 -18.360719312594174 -25.623593572964829 21.042516881621836 #
edge $-1 $399 1 $399 0 $231 $-1 forward 7 unknown #
vertex $-1 $232 $400 #
ellipse-curve $-1 -40.754897843707212 -29.994233586855941 8.6316030720058894 0 -0.62932039886446345 0.77714595512881146 2 0 0 1 I I #
point $-1 -38.754897843707212 -34.333119923385567 13.989681361350971 #
edge $-1 $401 1 $401 0 $235 $-1 forward 7 unknown #
vertex $-1 $236 $402 #
ellipse-curve $-1 -27.318390725039393 -29.994233586855941 8.6316030720058894 0 -0.62932039886446345 0.77714595512881146 2 0 0 1 I I #
point $-1 -25.318390725039393 -34.333119923385567 13.989681361350971 #
plane-surface $-1 77.352214117862474 0 0 -1 0 0 0 0 1 forward_v I I I I #
coedge $-1 $259 $245 $250 $348 forward $240 $-1 #
vertex $-1 $243 $403 #
vertex $-1 $347 $404 #
straight-curve $-1 77.352214117862474 0 -21.042516881621836 0 -1 0 I I #
straight-curve $-1 0 43.04264627380627 21.042516881621836 -1 0 0 I I #
coedge $-1 $247 $256 $249 $347 reversed $161 $-1 #
straight-curve $-1 0 -43.04264627380627 21.042516881621836 1 0 0 I I #
edge $-1 $252 -21.042516881621836 $342 21.042516881621836 $249 $405 forward 7 unknown #
edge $-1 $253 -21.042516881621836 $341 21.042516881621836 $250 $406 forward 7 unknown #
point $-1 77.352214117862474 -43.04264627380627 21.042516881621836 #
point $-1 77.352214117862474 43.04264627380627 21.042516881621836 #
straight-curve $-1 -77.352214117862474 0 21.042516881621836 0 -1 0 I I #
point $-1 -77.352214117862474 -43.04264627380627 21.042516881621836 #
point $-1 -77.352214117862474 43.04264627380627 21.042516881621836 #
straight-curve $-1 0 43.04264627380627 -21.042516881621836 1 0 0 I I #
straight-curve $-1 0 -43.04264627380627 -21.042516881621836 -1 0 0 I I #
plane-surface $-1 0 0 21.042516881621836 0 0 1 1 0 0 forward_v I I I I #
coedge $-1 $271 $268 $273 $364 reversed $179 $-1 #
coedge $-1 $268 $271 $370 $407 reversed $179 $-1 #
edge $-1 $372 -21.042516881621836 $366 21.042516881621836 $285 $408 forward 7 unknown #
edge $-1 $361 -13.819822430855027 $283 13.819822430855027 $270 $409 forward 7 unknown #
vertex $-1 $407 $410 #
vertex $-1 $364 $411 #
straight-curve $-1 -104.99185897957253 -12.924753295163656 0 0 0 -1 I I #
edge $-1 $362 -5.9835703923005301 $366 5.9835703923005301 $357 $412 forward 7 unknown #
straight-curve $-1 -91.1720365487175 -12.924753295163656 -21.042516881621836 -1 0 0 I I #
vertex $-1 $275 $413 #
straight-curve $-1 -91.1720365487175 -0.95761251056259589 -21.042516881621836 1 0 0 I I #
point $-1 -77.352214117862474 -12.924753295163656 -21.042516881621836 #
straight-curve $-1 -77.352214117862474 -12.924753295163656 0 0 0 -1 I I #
coedge $-1 $281 $280 $358 $407 forward $282 $-1 #
point $-1 -77.352214117862474 -12.924753295163656 21.042516881621836 #
vertex $-1 $286 $414 #
straight-curve $-1 -91.1720365487175 -0.95761251056259589 21.042516881621836 -1 0 0 I I #
edge $-1 $377 -43.696633760025406 $299 -23.614526955648728 $298 $415 forward 7 unknown #
coedge $-1 $376 $292 $381 $416 reversed $289 $-1 #
coedge $-1 $292 $375 $294 $379 reversed $289 $-1 #
vertex $-1 $293 $417 #
straight-curve $-1 77.352214117862474 -6.7960884913316946 40.672464377405092 0 0.84804809178421925 -0.52991927123019833 I I #
edge $-1 $295 24.618393712679044 $383 43.04264627380627 $376 $418 forward 7 unknown #
point $-1 77.352214117862474 24.618393712679044 21.042516881621836 #
coedge $-1 $298 $297 $375 $416 forward $195 $-1 #
point $-1 57.270107313485795 43.04264627380627 9.5297659129681804 #
vertex $-1 $379 $419 #
straight-curve $-1 0 43.04264627380627 21.042516881621836 -1 0 0 I I #
vertex $-1 $305 $420 #
point $-1 64.507852114736266 31.358237241930937 11.329662017457212 #
vertex $-1 $309 $421 #
point $-1 73.114469316612002 31.358237241930937 11.329662017457212 #
coedge $-1 $324 $323 $316 $390 forward $313 $-1 #
edge $-1 $391 42.539866360872772 $394 56.645537401414536 $389 $422 forward 7 unknown #
vertex $-1 $328 $423 #
straight-curve $-1 -49.71256925615242 -70.200649378605718 21.042516881621836 0 -1 0 I I #
edge $-1 $394 -32.694247113965773 $325 -1.3423971704075264 $324 $424 forward 7 unknown #
vertex $-1 $393 $425 #
straight-curve $-1 -49.71256925615242 -43.042646273806255 6.9368458410800855 0 0.77714595512881146 0.62932039886446345 I I #
point $-1 -49.71256925615242 -25.623593572964829 21.042516881621836 #
point $-1 -18.360719312594174 -43.04264627380627 6.936845841080074 #
straight-curve $-1 0 -43.04264627380627 21.042516881621836 1 0 0 I I #
vertex $-1 $331 $426 #
point $-1 -38.754897843707212 -29.994233586855941 8.6316030720058894 #
vertex $-1 $335 $427 #
point $-1 -25.318390725039393 -29.994233586855941 8.6316030720058894 #
point $-1 77.352214117862474 43.04264627380627 -21.042516881621836 #
point $-1 77.352214117862474 -43.04264627380627 -21.042516881621836 #
straight-curve $-1 77.352214117862474 -43.04264627380627 0 0 0 -1 I I #
straight-curve $-1 77.352214117862474 43.04264627380627 0 0 0 -1 I I #
edge $-1 $372 -5.9835703923005301 $361 5.9835703923005301 $358 $428 forward 7 unknown #
straight-curve $-1 -104.99185897957253 -0.95761251056259589 0 0 0 -1 I I #
straight-curve $-1 -91.1720365487175 -12.924753295163656 21.042516881621836 1 0 0 I I #
point $-1 -104.99185897957253 -12.924753295163656 21.042516881621836 #
point $-1 -104.99185897957253 -12.924753295163656 -21.042516881621836 #
straight-curve $-1 -104.99185897957253 -6.941182902863126 -21.042516881621836 0 1 0 I I #
point $-1 -104.99185897957253 -0.95761251056259589 -21.042516881621836 #
point $-1 -104.99185897957253 -0.95761251056259589 21.042516881621836 #
straight-curve $-1 33.655580357837067 43.042646273806277 9.5297659129681733 -1 0 0 I I #
edge $-1 $383 -21.042516881621836 $377 -9.5297659129681804 $375 $429 forward 7 unknown #
point $-1 77.352214117862474 43.04264627380627 9.5297659129681804 #
straight-curve $-1 77.352214117862474 0 21.042516881621836 0 1 0 I I #
point $-1 77.352214117862474 43.04264627380627 21.042516881621836 #
point $-1 63.007852114736266 30.563358335085638 10.057589879780883 #
point $-1 71.614469316612002 30.563358335085638 10.057589879780883 #
straight-curve $-1 -49.71256925615242 -43.04264627380627 63.582383242494608 0 0 -1 I I #
point $-1 -49.71256925615242 -43.04264627380627 21.042516881621836 #
straight-curve $-1 -17.018322142186648 -43.04264627380627 6.9368458410800757 1 0 0 I I #
point $-1 -49.71256925615242 -43.04264627380627 6.936845841080074 #
point $-1 -40.754897843707212 -28.735592789127011 7.0773111617482671 #
point $-1 -27.318390725039393 -28.735592789127011 7.0773111617482671 #
straight-curve $-1 -104.99185897957253 -6.941182902863126 21.042516881621836 0 -1 0 I I #
straight-curve $-1 77.352214117862474 43.04264627380627 0 0 0 -1 I I #
End-of-ACIS-data 