500 0 10 0           
7 Unknown 11 ACIS 5.0 NT 24 Thu Mar 25 18:20:29 1999 
-1 9.9999999999999995e-007 1e-010 
body $-1 $10 $-1 $11 #
body $-1 $12 $-1 $13 #
body $-1 $14 $-1 $15 #
body $-1 $16 $-1 $17 #
body $-1 $18 $-1 $19 #
body $-1 $20 $-1 $21 #
body $-1 $22 $-1 $23 #
body $-1 $24 $-1 $25 #
body $-1 $26 $-1 $27 #
body $-1 $28 $-1 $29 #
lump $-1 $-1 $30 $0 #
transform $-1 1 0 0 0 1 0 0 0 1 57.744682149723808 35.649371308785597 11.658204998822686 1 rotate no_reflect no_shear #
lump $-1 $-1 $31 $1 #
transform $-1 1 0 0 0 1 0 0 0 1 57.744682149723808 35.649371308785597 11.658204998822686 1 rotate no_reflect no_shear #
lump $-1 $-1 $32 $2 #
transform $-1 1 0 0 0 1 0 0 0 1 57.744682149723808 35.649371308785597 11.658204998822686 1 rotate no_reflect no_shear #
lump $-1 $-1 $33 $3 #
transform $-1 1 0 0 0 1 0 0 0 1 57.744682149723808 35.649371308785597 11.658204998822686 1 rotate no_reflect no_shear #
lump $-1 $-1 $34 $4 #
transform $-1 1 0 0 0 1 0 0 0 1 57.744682149723808 35.649371308785597 11.658204998822686 1 rotate no_reflect no_shear #
lump $-1 $-1 $35 $5 #
transform $-1 1 0 0 0 1 0 0 0 1 57.744682149723808 35.649371308785597 11.658204998822686 1 rotate no_reflect no_shear #
lump $-1 $-1 $36 $6 #
transform $-1 1 0 0 0 1 0 0 0 1 57.744682149723808 35.649371308785597 11.658204998822686 1 rotate no_reflect no_shear #
lump $-1 $-1 $37 $7 #
transform $-1 1 0 0 0 1 0 0 0 1 57.744682149723808 35.649371308785597 11.658204998822686 1 rotate no_reflect no_shear #
lump $-1 $-1 $38 $8 #
transform $-1 1 0 0 0 1 0 0 0 1 57.744682149723808 35.649371308785597 11.658204998822686 1 rotate no_reflect no_shear #
lump $-1 $-1 $39 $9 #
transform $-1 1 0 0 0 1 0 0 0 1 57.744682149723808 35.649371308785597 11.658204998822686 1 rotate no_reflect no_shear #
shell $-1 $-1 $-1 $40 $-1 $10 #
shell $-1 $-1 $-1 $41 $-1 $12 #
shell $-1 $-1 $-1 $42 $-1 $14 #
shell $-1 $-1 $-1 $43 $-1 $16 #
shell $-1 $-1 $-1 $44 $-1 $18 #
shell $-1 $-1 $-1 $45 $-1 $20 #
shell $-1 $-1 $-1 $46 $-1 $22 #
shell $-1 $-1 $-1 $47 $-1 $24 #
shell $-1 $-1 $-1 $48 $-1 $26 #
shell $-1 $-1 $-1 $49 $-1 $28 #
face $-1 $50 $51 $30 $-1 $52 forward single #
face $-1 $53 $54 $31 $-1 $55 forward single #
face $-1 $56 $57 $32 $-1 $58 reversed single #
face $-1 $59 $60 $33 $-1 $61 forward single #
face $-1 $62 $63 $34 $-1 $64 forward single #
face $-1 $65 $66 $35 $-1 $67 forward single #
face $-1 $68 $69 $36 $-1 $70 reversed single #
face $-1 $71 $72 $37 $-1 $73 forward single #
face $-1 $74 $75 $38 $-1 $76 forward single #
face $-1 $77 $78 $39 $-1 $79 forward single #
face $-1 $80 $81 $30 $-1 $82 reversed single #
loop $-1 $-1 $83 $40 #
plane-surface $-1 0 0 11.658204998822686 0 0 1 1 0 0 forward_v I I I I #
face $-1 $84 $85 $31 $-1 $86 reversed single #
loop $-1 $-1 $87 $41 #
plane-surface $-1 0 -29.811929067402989 1.4998851809986684 0 0 1 1 0 0 forward_v I I I I #
face $-1 $88 $89 $32 $-1 $90 reversed single #
loop $-1 $-1 $91 $42 #
plane-surface $-1 -142.20825718224384 -0.60857624672444999 79.496016870663794 0 1 0 -0.73135370988377701 0 0.68199835119979291 forward_v I I I I #
face $-1 $92 $93 $33 $-1 $94 forward single #
loop $-1 $95 $96 $43 #
cone-surface $-1 -51.959260140158086 0.68062745089695653 5.5507677781746567 0.73135370988377701 0 -0.68199835119979291 0.34099917559989645 0 0.36567685494188851 1 I I 0 1 0.5 forward I I I I #
face $-1 $97 $98 $34 $-1 $99 forward single #
loop $-1 $100 $101 $44 #
cone-surface $-1 -51.959260140158086 2.6144329973290752 5.5507677781746567 0.73135370988377701 0 -0.68199835119979291 0.34099917559989645 0 0.36567685494188851 1 I I 0 1 0.5 forward I I I I #
face $-1 $102 $103 $35 $-1 $104 forward single #
loop $-1 $105 $106 $45 #
cone-surface $-1 -51.959260140158086 4.5482385437611939 5.5507677781746567 0.73135370988377701 0 -0.68199835119979291 0.34099917559989645 0 0.36567685494188851 1 I I 0 1 0.5 forward I I I I #
face $-1 $107 $108 $36 $-1 $109 reversed single #
loop $-1 $-1 $110 $46 #
plane-surface $-1 -142.20825718224384 29.203352820678536 79.496016870663794 0 1 0 -0.73135370988377701 0 0.68199835119979291 forward_v I I I I #
face $-1 $111 $112 $37 $-1 $113 forward single #
loop $-1 $114 $115 $47 #
cone-surface $-1 -51.959260140158086 30.492556518299942 5.5507677781746567 0.73135370988377701 0 -0.68199835119979291 0.34099917559989645 0 0.36567685494188851 1 I I 0 1 0.5 forward I I I I #
face $-1 $116 $117 $38 $-1 $118 forward single #
loop $-1 $119 $120 $48 #
cone-surface $-1 -51.959260140158086 32.426362064732068 5.5507677781746567 0.73135370988377701 0 -0.68199835119979291 0.34099917559989645 0 0.36567685494188851 1 I I 0 1 0.5 forward I I I I #
face $-1 $121 $122 $39 $-1 $123 forward single #
loop $-1 $124 $125 $49 #
cone-surface $-1 -51.959260140158086 34.360167611164179 5.5507677781746567 0.73135370988377701 0 -0.68199835119979291 0.34099917559989645 0 0.36567685494188851 1 I I 0 1 0.5 forward I I I I #
face $-1 $126 $127 $30 $-1 $128 reversed single #
loop $-1 $-1 $129 $50 #
plane-surface $-1 0 0 -11.658204998822686 0 0 1 1 0 0 forward_v I I I I #
coedge $-1 $130 $131 $132 $133 forward $51 $-1 #
face $-1 $134 $135 $31 $-1 $136 reversed single #
loop $-1 $-1 $137 $53 #
plane-surface $-1 0 -29.811929067402989 -4.5923247922927795 0 0 1 1 0 0 forward_v I I I I #
coedge $-1 $138 $139 $140 $141 reversed $54 $-1 #
face $-1 $142 $143 $32 $-1 $144 reversed single #
loop $-1 $-1 $145 $56 #
plane-surface $-1 -57.744682149723801 2.6144329973290823 0.73246083732828993 -0.73135370988377701 0 0.68199835119979291 0.68199835119979291 0 0.73135370988377701 forward_v I I I I #
coedge $-1 $146 $147 $148 $149 reversed $57 $-1 #
face $-1 $-1 $150 $33 $-1 $151 forward single #
loop $-1 $152 $153 $59 #
cone-surface $-1 -51.085210208291386 0.68062745089695653 4.7357030504738695 0.73135370988377701 0 -0.68199835119979291 0.17049958779994823 0 0.18283842747094425 1 I I -0.70710678118654746 0.70710678118654746 0.25 forward I I I I #
loop $-1 $-1 $154 $43 #
coedge $-1 $96 $96 $155 $156 reversed $60 $-1 #
face $-1 $-1 $157 $34 $-1 $158 forward single #
loop $-1 $159 $160 $62 #
cone-surface $-1 -51.085210208291386 2.6144329973290752 4.7357030504738695 0.73135370988377701 0 -0.68199835119979291 0.17049958779994823 0 0.18283842747094425 1 I I -0.70710678118654746 0.70710678118654746 0.25 forward I I I I #
loop $-1 $-1 $161 $44 #
coedge $-1 $101 $101 $162 $163 reversed $63 $-1 #
face $-1 $-1 $164 $35 $-1 $165 forward single #
loop $-1 $166 $167 $65 #
cone-surface $-1 -51.085210208291386 4.5482385437611939 4.7357030504738695 0.73135370988377701 0 -0.68199835119979291 0.17049958779994823 0 0.18283842747094425 1 I I -0.70710678118654746 0.70710678118654746 0.25 forward I I I I #
loop $-1 $-1 $168 $45 #
coedge $-1 $106 $106 $169 $170 reversed $66 $-1 #
face $-1 $171 $172 $36 $-1 $173 forward single #
loop $-1 $-1 $174 $68 #
plane-surface $-1 -57.744682149723801 32.426362064732068 0.73246083732828993 -0.73135370988377701 0 0.68199835119979291 0.68199835119979291 0 0.73135370988377701 forward_v I I I I #
coedge $-1 $175 $176 $177 $178 reversed $69 $-1 #
face $-1 $-1 $179 $37 $-1 $180 forward single #
loop $-1 $181 $182 $71 #
cone-surface $-1 -51.085210208291386 30.492556518299942 4.7357030504738695 0.73135370988377701 0 -0.68199835119979291 0.17049958779994823 0 0.18283842747094425 1 I I -0.70710678118654746 0.70710678118654746 0.25 forward I I I I #
loop $-1 $-1 $183 $47 #
coedge $-1 $115 $115 $184 $185 reversed $72 $-1 #
face $-1 $-1 $186 $38 $-1 $187 forward single #
loop $-1 $188 $189 $74 #
cone-surface $-1 -51.085210208291386 32.426362064732068 4.7357030504738695 0.73135370988377701 0 -0.68199835119979291 0.17049958779994823 0 0.18283842747094425 1 I I -0.70710678118654746 0.70710678118654746 0.25 forward I I I I #
loop $-1 $-1 $190 $48 #
coedge $-1 $120 $120 $191 $192 reversed $75 $-1 #
face $-1 $-1 $193 $39 $-1 $194 forward single #
loop $-1 $195 $196 $77 #
cone-surface $-1 -51.085210208291386 34.360167611164179 4.7357030504738695 0.73135370988377701 0 -0.68199835119979291 0.17049958779994823 0 0.18283842747094425 1 I I -0.70710678118654746 0.70710678118654746 0.25 forward I I I I #
loop $-1 $-1 $197 $49 #
coedge $-1 $125 $125 $198 $199 reversed $78 $-1 #
face $-1 $200 $201 $30 $-1 $202 reversed single #
loop $-1 $-1 $203 $80 #
plane-surface $-1 0 -35.649371308785597 0 0 1 0 0 0 1 forward_v I I I I #
coedge $-1 $204 $205 $206 $207 forward $81 $-1 #
coedge $-1 $208 $83 $209 $210 forward $51 $-1 #
coedge $-1 $83 $208 $211 $212 forward $51 $-1 #
coedge $-1 $213 $214 $83 $133 reversed $215 $-1 #
edge $-1 $216 -35.649371308785597 $217 35.649371308785597 $132 $218 forward 7 unknown #
face $-1 $219 $220 $31 $-1 $221 reversed single #
loop $-1 $-1 $222 $84 #
plane-surface $-1 0 -23.974486826020382 -1.5462198056470555 0 -1 0 0 0 -1 forward_v I I I I #
coedge $-1 $223 $224 $225 $226 reversed $85 $-1 #
coedge $-1 $227 $87 $228 $229 forward $54 $-1 #
coedge $-1 $87 $227 $230 $231 reversed $54 $-1 #
coedge $-1 $232 $233 $87 $141 forward $234 $-1 #
edge $-1 $235 9.0685222923188871 $236 20.743406775084104 $140 $237 forward 7 unknown #
face $-1 $238 $239 $32 $-1 $240 reversed single #
loop $-1 $-1 $241 $88 #
plane-surface $-1 -142.20825718224384 5.8374422413826146 79.496016870663794 0 -1 0 0.73135370988377701 0 -0.68199835119979291 forward_v I I I I #
coedge $-1 $242 $243 $244 $245 reversed $89 $-1 #
coedge $-1 $147 $91 $246 $247 reversed $57 $-1 #
coedge $-1 $91 $146 $242 $248 reversed $57 $-1 #
coedge $-1 $244 $249 $91 $149 forward $250 $-1 #
edge $-1 $251 13.359446441398113 $252 23.547867451738071 $148 $253 forward 7 unknown #
loop $-1 $-1 $155 $92 #
plane-surface $-1 -57.744682149723801 2.6144329973290823 0.73246083732828993 -0.73135370988377701 0 0.68199835119979291 0.68199835119979291 0 0.73135370988377701 forward_v I I I I #
loop $-1 $-1 $254 $59 #
coedge $-1 $153 $153 $154 $255 reversed $93 $-1 #
coedge $-1 $154 $154 $153 $255 forward $95 $-1 #
coedge $-1 $155 $155 $96 $156 forward $150 $-1 #
edge $-1 $256 0 $256 6.2831853071796004 $155 $257 forward 7 unknown #
loop $-1 $-1 $162 $97 #
plane-surface $-1 -57.744682149723801 2.6144329973290823 0.73246083732828993 -0.73135370988377701 0 0.68199835119979291 0.68199835119979291 0 0.73135370988377701 forward_v I I I I #
loop $-1 $-1 $258 $62 #
coedge $-1 $160 $160 $161 $259 reversed $98 $-1 #
coedge $-1 $161 $161 $160 $259 forward $100 $-1 #
coedge $-1 $162 $162 $101 $163 forward $157 $-1 #
edge $-1 $260 0 $260 6.2831853071796004 $162 $261 forward 7 unknown #
loop $-1 $-1 $169 $102 #
plane-surface $-1 -57.744682149723801 2.6144329973290823 0.73246083732828993 -0.73135370988377701 0 0.68199835119979291 0.68199835119979291 0 0.73135370988377701 forward_v I I I I #
loop $-1 $-1 $262 $65 #
coedge $-1 $167 $167 $168 $263 reversed $103 $-1 #
coedge $-1 $168 $168 $167 $263 forward $105 $-1 #
coedge $-1 $169 $169 $106 $170 forward $164 $-1 #
edge $-1 $264 0 $264 6.2831853071796004 $169 $265 forward 7 unknown #
face $-1 $266 $267 $36 $-1 $268 reversed single #
loop $-1 $-1 $177 $107 #
plane-surface $-1 0 0 11.658204998822686 0 0 1 1 0 0 forward_v I I I I #
coedge $-1 $269 $270 $271 $272 reversed $108 $-1 #
coedge $-1 $176 $110 $273 $274 reversed $69 $-1 #
coedge $-1 $110 $175 $269 $275 reversed $69 $-1 #
coedge $-1 $271 $276 $110 $178 forward $172 $-1 #
edge $-1 $277 13.359446441398113 $278 23.547867451738071 $177 $279 forward 7 unknown #
loop $-1 $-1 $184 $111 #
plane-surface $-1 -57.744682149723801 32.426362064732068 0.73246083732828993 -0.73135370988377701 0 0.68199835119979291 0.68199835119979291 0 0.73135370988377701 forward_v I I I I #
loop $-1 $-1 $280 $71 #
coedge $-1 $182 $182 $183 $281 reversed $112 $-1 #
coedge $-1 $183 $183 $182 $281 forward $114 $-1 #
coedge $-1 $184 $184 $115 $185 forward $179 $-1 #
edge $-1 $282 0 $282 6.2831853071796004 $184 $283 forward 7 unknown #
loop $-1 $-1 $191 $116 #
plane-surface $-1 -57.744682149723801 32.426362064732068 0.73246083732828993 -0.73135370988377701 0 0.68199835119979291 0.68199835119979291 0 0.73135370988377701 forward_v I I I I #
loop $-1 $-1 $284 $74 #
coedge $-1 $189 $189 $190 $285 reversed $117 $-1 #
coedge $-1 $190 $190 $189 $285 forward $119 $-1 #
coedge $-1 $191 $191 $120 $192 forward $186 $-1 #
edge $-1 $286 0 $286 6.2831853071796004 $191 $287 forward 7 unknown #
loop $-1 $-1 $198 $121 #
plane-surface $-1 -57.744682149723801 32.426362064732068 0.73246083732828993 -0.73135370988377701 0 0.68199835119979291 0.68199835119979291 0 0.73135370988377701 forward_v I I I I #
loop $-1 $-1 $288 $77 #
coedge $-1 $196 $196 $197 $289 reversed $122 $-1 #
coedge $-1 $197 $197 $196 $289 forward $124 $-1 #
coedge $-1 $198 $198 $125 $199 forward $193 $-1 #
edge $-1 $290 0 $290 6.2831853071796004 $198 $291 forward 7 unknown #
face $-1 $292 $293 $30 $-1 $294 reversed single #
loop $-1 $-1 $295 $126 #
plane-surface $-1 -57.744682149723808 0 0 1 0 0 0 0 -1 forward_v I I I I #
coedge $-1 $296 $211 $297 $298 forward $127 $-1 #
coedge $-1 $299 $129 $296 $300 forward $81 $-1 #
coedge $-1 $129 $299 $301 $302 forward $81 $-1 #
coedge $-1 $214 $213 $129 $207 reversed $215 $-1 #
edge $-1 $303 -35.649371308785597 $304 35.649371308785597 $206 $305 forward 7 unknown #
coedge $-1 $131 $130 $306 $307 forward $51 $-1 #
coedge $-1 $308 $309 $130 $210 reversed $293 $-1 #
edge $-1 $217 -57.744682149723808 $310 57.744682149723808 $209 $311 forward 7 unknown #
coedge $-1 $203 $312 $131 $212 reversed $127 $-1 #
edge $-1 $313 -57.744682149723808 $216 57.744682149723808 $211 $314 forward 7 unknown #
coedge $-1 $206 $132 $312 $315 forward $215 $-1 #
coedge $-1 $132 $206 $308 $316 reversed $215 $-1 #
loop $-1 $-1 $213 $292 #
vertex $-1 $133 $317 #
vertex $-1 $133 $318 #
straight-curve $-1 57.744682149723808 0 11.658204998822686 0 1 0 I I #
face $-1 $319 $320 $31 $-1 $321 reversed single #
loop $-1 $-1 $322 $134 #
plane-surface $-1 -57.744682149723808 0 0 1 0 0 0 0 -1 forward_v I I I I #
coedge $-1 $323 $228 $233 $324 reversed $135 $-1 #
coedge $-1 $325 $137 $326 $327 reversed $85 $-1 #
coedge $-1 $137 $325 $323 $328 forward $85 $-1 #
coedge $-1 $233 $232 $137 $226 forward $234 $-1 #
edge $-1 $329 -20.743406775084104 $330 -9.0685222923188871 $225 $331 forward 7 unknown #
coedge $-1 $139 $138 $322 $332 reversed $54 $-1 #
coedge $-1 $222 $333 $138 $229 reversed $135 $-1 #
edge $-1 $235 -57.744682149723808 $334 57.744682149723808 $228 $335 forward 7 unknown #
coedge $-1 $336 $337 $139 $231 forward $320 $-1 #
edge $-1 $236 -57.744682149723808 $338 57.744682149723808 $230 $339 forward 7 unknown #
coedge $-1 $225 $140 $337 $340 forward $234 $-1 #
coedge $-1 $140 $225 $222 $324 forward $234 $-1 #
loop $-1 $-1 $140 $319 #
vertex $-1 $141 $341 #
vertex $-1 $340 $342 #
straight-curve $-1 57.744682149723808 -14.905964533701495 1.4998851809986684 0 -1 0 I I #
face $-1 $-1 $250 $32 $-1 $343 forward single #
loop $-1 $-1 $344 $142 #
plane-surface $-1 -57.744682149723808 0 0 1 0 0 0 0 -1 forward_v I I I I #
coedge $-1 $345 $346 $347 $348 reversed $143 $-1 #
coedge $-1 $349 $145 $147 $248 forward $89 $-1 #
coedge $-1 $145 $349 $345 $350 forward $89 $-1 #
coedge $-1 $347 $148 $145 $245 forward $250 $-1 #
edge $-1 $252 -1.9157927453889911 $351 4.5302257427180734 $244 $352 forward 7 unknown #
coedge $-1 $353 $354 $146 $247 forward $239 $-1 #
edge $-1 $355 -39.015547598003614 $251 -28.089803436509211 $246 $356 forward 7 unknown #
edge $-1 $252 -14.939069856131118 $355 1.0448453264673958e-014 $147 $357 forward 7 unknown #
coedge $-1 $148 $347 $353 $358 forward $250 $-1 #
loop $-1 $-1 $347 $238 #
vertex $-1 $247 $359 #
vertex $-1 $149 $360 #
straight-curve $-1 -71.104128591121921 -0.60857624672444999 11.65820499882269 1 0 0 I I #
coedge $-1 $254 $254 $-1 $361 reversed $152 $-1 #
edge $-1 $362 0 $362 6.2831853071796004 $153 $363 forward 7 unknown #
vertex $-1 $156 $364 #
ellipse-curve $-1 -52.650471644553832 0.68062745089695653 6.1953329180754837 -0.73135370988377701 0 0.68199835119979291 0.34099917559989645 0 0.36567685494188851 1 I I #
coedge $-1 $258 $258 $-1 $365 reversed $159 $-1 #
edge $-1 $366 0 $366 6.2831853071796004 $160 $367 forward 7 unknown #
vertex $-1 $163 $368 #
ellipse-curve $-1 -52.650471644553832 2.6144329973290752 6.1953329180754837 -0.73135370988377701 0 0.68199835119979291 0.34099917559989645 0 0.36567685494188851 1 I I #
coedge $-1 $262 $262 $-1 $369 reversed $166 $-1 #
edge $-1 $370 0 $370 6.2831853071796004 $167 $371 forward 7 unknown #
vertex $-1 $170 $372 #
ellipse-curve $-1 -52.650471644553832 4.5482385437611939 6.1953329180754837 -0.73135370988377701 0 0.68199835119979291 0.34099917559989645 0 0.36567685494188851 1 I I #
face $-1 $-1 $373 $36 $-1 $374 reversed single #
loop $-1 $-1 $375 $171 #
plane-surface $-1 0 35.649371308785597 0 0 -1 0 0 0 -1 forward_v I I I I #
coedge $-1 $376 $174 $176 $275 forward $108 $-1 #
coedge $-1 $174 $376 $375 $377 reversed $108 $-1 #
coedge $-1 $378 $177 $174 $272 forward $172 $-1 #
edge $-1 $278 12.990171788312502 $379 19.43619027641957 $271 $380 forward 7 unknown #
coedge $-1 $381 $382 $175 $274 forward $373 $-1 #
edge $-1 $383 -39.015547598003614 $277 -28.089803436509211 $273 $384 forward 7 unknown #
edge $-1 $278 -14.939069856131118 $383 1.0448453264673958e-014 $176 $385 forward 7 unknown #
coedge $-1 $177 $378 $381 $386 forward $172 $-1 #
vertex $-1 $274 $387 #
vertex $-1 $178 $388 #
straight-curve $-1 -71.104128591121921 29.203352820678536 11.65820499882269 1 0 0 I I #
coedge $-1 $280 $280 $-1 $389 reversed $181 $-1 #
edge $-1 $390 0 $390 6.2831853071796004 $182 $391 forward 7 unknown #
vertex $-1 $185 $392 #
ellipse-curve $-1 -52.650471644553832 30.492556518299942 6.1953329180754837 -0.73135370988377701 0 0.68199835119979291 0.34099917559989645 0 0.36567685494188851 1 I I #
coedge $-1 $284 $284 $-1 $393 reversed $188 $-1 #
edge $-1 $394 0 $394 6.2831853071796004 $189 $395 forward 7 unknown #
vertex $-1 $192 $396 #
ellipse-curve $-1 -52.650471644553832 32.426362064732068 6.1953329180754837 -0.73135370988377701 0 0.68199835119979291 0.34099917559989645 0 0.36567685494188851 1 I I #
coedge $-1 $288 $288 $-1 $397 reversed $195 $-1 #
edge $-1 $398 0 $398 6.2831853071796004 $196 $399 forward 7 unknown #
vertex $-1 $199 $400 #
ellipse-curve $-1 -52.650471644553832 34.360167611164179 6.1953329180754837 -0.73135370988377701 0 0.68199835119979291 0.34099917559989645 0 0.36567685494188851 1 I I #
face $-1 $-1 $215 $30 $-1 $401 reversed single #
loop $-1 $-1 $308 $200 #
plane-surface $-1 0 35.649371308785597 0 0 -1 0 0 0 -1 forward_v I I I I #
coedge $-1 $402 $306 $309 $403 forward $201 $-1 #
coedge $-1 $312 $203 $204 $300 reversed $127 $-1 #
coedge $-1 $306 $402 $203 $298 reversed $201 $-1 #
edge $-1 $313 -11.658204998822686 $404 11.658204998822686 $297 $405 forward 7 unknown #
coedge $-1 $205 $204 $402 $406 forward $81 $-1 #
edge $-1 $304 -57.744682149723808 $404 57.744682149723808 $296 $407 forward 7 unknown #
coedge $-1 $309 $308 $205 $302 reversed $293 $-1 #
edge $-1 $408 -57.744682149723808 $303 57.744682149723808 $301 $409 forward 7 unknown #
vertex $-1 $207 $410 #
vertex $-1 $315 $411 #
straight-curve $-1 57.744682149723808 0 -11.658204998822686 0 -1 0 I I #
coedge $-1 $295 $297 $208 $307 reversed $201 $-1 #
edge $-1 $310 -35.649371308785597 $313 35.649371308785597 $306 $412 forward 7 unknown #
coedge $-1 $301 $209 $214 $316 forward $293 $-1 #
coedge $-1 $209 $301 $295 $403 reversed $293 $-1 #
vertex $-1 $210 $413 #
straight-curve $-1 0 35.649371308785597 11.658204998822686 -1 0 0 I I #
coedge $-1 $211 $296 $213 $315 reversed $127 $-1 #
vertex $-1 $307 $414 #
straight-curve $-1 0 -35.649371308785597 11.658204998822686 1 0 0 I I #
edge $-1 $216 -11.658204998822686 $304 11.658204998822686 $213 $415 forward 7 unknown #
edge $-1 $217 -11.658204998822686 $303 11.658204998822686 $214 $416 forward 7 unknown #
point $-1 57.744682149723808 -35.649371308785597 11.658204998822686 #
point $-1 57.744682149723808 35.649371308785597 11.658204998822686 #
face $-1 $-1 $234 $31 $-1 $417 reversed single #
loop $-1 $-1 $230 $219 #
plane-surface $-1 0 -35.649371308785597 0 0 1 0 0 0 1 forward_v I I I I #
coedge $-1 $418 $419 $227 $332 forward $220 $-1 #
coedge $-1 $333 $222 $224 $328 reversed $135 $-1 #
edge $-1 $330 -3.8192148894692517 $235 2.2729950838221962 $233 $420 forward 7 unknown #
coedge $-1 $224 $223 $421 $422 reversed $85 $-1 #
coedge $-1 $337 $336 $223 $327 forward $320 $-1 #
edge $-1 $423 -57.744682149723808 $329 57.744682149723808 $326 $424 forward 7 unknown #
edge $-1 $425 -57.744682149723808 $330 57.744682149723808 $323 $426 forward 7 unknown #
vertex $-1 $327 $427 #
vertex $-1 $226 $428 #
straight-curve $-1 57.744682149723808 -14.905964533701495 -4.5923247922927795 0 1 0 I I #
edge $-1 $338 -20.743406775084104 $334 -9.0685222923188871 $322 $429 forward 7 unknown #
coedge $-1 $228 $323 $418 $430 reversed $135 $-1 #
vertex $-1 $332 $431 #
straight-curve $-1 0 -23.974486826020382 1.4998851809986684 -1 0 0 I I #
coedge $-1 $326 $230 $419 $432 forward $320 $-1 #
coedge $-1 $230 $326 $232 $340 reversed $320 $-1 #
vertex $-1 $432 $433 #
straight-curve $-1 0 -35.649371308785597 1.4998851809986684 -1 0 0 I I #
edge $-1 $236 -1.4998851809986684 $329 4.5923247922927795 $232 $434 forward 7 unknown #
point $-1 57.744682149723808 -23.974486826020382 1.4998851809986684 #
point $-1 57.744682149723808 -35.649371308785597 1.4998851809986684 #
plane-surface $-1 0 0 11.658204998822686 0 0 1 1 0 0 forward_v I I I I #
coedge $-1 $354 $353 $346 $435 forward $239 $-1 #
coedge $-1 $346 $241 $243 $350 reversed $143 $-1 #
coedge $-1 $241 $345 $344 $435 reversed $143 $-1 #
coedge $-1 $249 $244 $241 $348 forward $250 $-1 #
edge $-1 $351 -23.547867451738071 $436 -13.359446441398113 $347 $437 forward 7 unknown #
coedge $-1 $243 $242 $354 $438 reversed $89 $-1 #
edge $-1 $439 -1.0448453264673958e-014 $351 14.939069856131118 $345 $440 forward 7 unknown #
vertex $-1 $245 $441 #
straight-curve $-1 -47.556261139383849 1.3072164986645411 11.658204998822686 0 1 0 I I #
coedge $-1 $344 $246 $249 $358 reversed $239 $-1 #
coedge $-1 $246 $344 $349 $438 forward $239 $-1 #
vertex $-1 $247 $442 #
straight-curve $-1 -57.744682149723808 -0.60857624672444999 39.748008435331897 0 0 1 I I #
straight-curve $-1 -57.744682149723801 -0.60857624672444999 0.73246083732828993 -0.68199835119979291 0 -0.73135370988377701 I I #
edge $-1 $436 -5.8374422413826146 $251 0.60857624672444999 $353 $443 forward 7 unknown #
point $-1 -57.744682149723808 -0.60857624672444999 11.658204998822686 #
point $-1 -47.556261139383849 -0.60857624672444999 11.658204998822686 #
edge $-1 $444 1 $444 0 $254 $-1 forward 7 unknown #
vertex $-1 $255 $445 #
ellipse-curve $-1 -51.268048635762327 0.68062745089695653 4.9062026382738182 -0.73135370988377701 0 0.68199835119979291 0.34099917559989645 0 0.36567685494188851 1 I I #
point $-1 -52.309472468953949 0.68062745089695653 6.5610097730173838 #
edge $-1 $446 1 $446 0 $258 $-1 forward 7 unknown #
vertex $-1 $259 $447 #
ellipse-curve $-1 -51.268048635762327 2.6144329973290752 4.9062026382738182 -0.73135370988377701 0 0.68199835119979291 0.34099917559989645 0 0.36567685494188851 1 I I #
point $-1 -52.309472468953949 2.6144329973290752 6.5610097730173838 #
edge $-1 $448 1 $448 0 $262 $-1 forward 7 unknown #
vertex $-1 $263 $449 #
ellipse-curve $-1 -51.268048635762327 4.5482385437611939 4.9062026382738182 -0.73135370988377701 0 0.68199835119979291 0.34099917559989645 0 0.36567685494188851 1 I I #
point $-1 -52.309472468953949 4.5482385437611939 6.5610097730173838 #
loop $-1 $-1 $273 $266 #
plane-surface $-1 -57.744682149723808 0 0 1 0 0 0 0 -1 forward_v I I I I #
coedge $-1 $450 $451 $270 $377 forward $267 $-1 #
coedge $-1 $270 $269 $382 $452 reversed $108 $-1 #
edge $-1 $379 4.4839751768404446 $453 19.423045032971572 $375 $454 forward 7 unknown #
coedge $-1 $276 $271 $451 $455 forward $172 $-1 #
vertex $-1 $455 $456 #
straight-curve $-1 -47.556261139383849 16.213181032366034 11.658204998822686 0 1 0 I I #
coedge $-1 $457 $273 $276 $386 reversed $373 $-1 #
coedge $-1 $273 $457 $376 $452 forward $373 $-1 #
vertex $-1 $274 $458 #
straight-curve $-1 -57.744682149723808 29.203352820678536 39.748008435331897 0 0 1 I I #
straight-curve $-1 -57.744682149723801 29.203352820678536 0.73246083732828993 -0.68199835119979291 0 -0.73135370988377701 I I #
edge $-1 $459 -35.649371308785597 $277 -29.203352820678536 $381 $460 forward 7 unknown #
point $-1 -57.744682149723808 29.203352820678536 11.658204998822686 #
point $-1 -47.556261139383849 29.203352820678536 11.658204998822686 #
edge $-1 $461 1 $461 0 $280 $-1 forward 7 unknown #
vertex $-1 $281 $462 #
ellipse-curve $-1 -51.268048635762327 30.492556518299942 4.9062026382738182 -0.73135370988377701 0 0.68199835119979291 0.34099917559989645 0 0.36567685494188851 1 I I #
point $-1 -52.309472468953949 30.492556518299942 6.5610097730173838 #
edge $-1 $463 1 $463 0 $284 $-1 forward 7 unknown #
vertex $-1 $285 $464 #
ellipse-curve $-1 -51.268048635762327 32.426362064732068 4.9062026382738182 -0.73135370988377701 0 0.68199835119979291 0.34099917559989645 0 0.36567685494188851 1 I I #
point $-1 -52.309472468953949 32.426362064732068 6.5610097730173838 #
edge $-1 $465 1 $465 0 $288 $-1 forward 7 unknown #
vertex $-1 $289 $466 #
ellipse-curve $-1 -51.268048635762327 34.360167611164179 4.9062026382738182 -0.73135370988377701 0 0.68199835119979291 0.34099917559989645 0 0.36567685494188851 1 I I #
point $-1 -52.309472468953949 34.360167611164179 6.5610097730173838 #
plane-surface $-1 57.744682149723808 0 0 -1 0 0 0 0 1 forward_v I I I I #
coedge $-1 $297 $295 $299 $406 reversed $201 $-1 #
edge $-1 $310 -11.658204998822686 $408 11.658204998822686 $309 $467 forward 7 unknown #
vertex $-1 $406 $468 #
straight-curve $-1 -57.744682149723808 -35.649371308785597 0 0 0 -1 I I #
edge $-1 $404 -35.649371308785597 $408 35.649371308785597 $402 $469 forward 7 unknown #
straight-curve $-1 0 -35.649371308785597 -11.658204998822686 -1 0 0 I I #
vertex $-1 $302 $470 #
straight-curve $-1 0 35.649371308785597 -11.658204998822686 1 0 0 I I #
point $-1 57.744682149723808 35.649371308785597 -11.658204998822686 #
point $-1 57.744682149723808 -35.649371308785597 -11.658204998822686 #
straight-curve $-1 -57.744682149723808 0 11.658204998822686 0 -1 0 I I #
point $-1 -57.744682149723808 35.649371308785597 11.658204998822686 #
point $-1 -57.744682149723808 -35.649371308785597 11.658204998822686 #
straight-curve $-1 57.744682149723808 -35.649371308785597 0 0 0 -1 I I #
straight-curve $-1 57.744682149723808 35.649371308785597 0 0 0 -1 I I #
plane-surface $-1 57.744682149723808 0 0 -1 0 0 0 0 1 forward_v I I I I #
coedge $-1 $421 $322 $333 $430 forward $220 $-1 #
coedge $-1 $322 $421 $336 $432 reversed $220 $-1 #
straight-curve $-1 57.744682149723808 -23.974486826020382 -0.77310990282352776 0 0 1 I I #
coedge $-1 $419 $418 $325 $422 forward $220 $-1 #
edge $-1 $425 9.0685222923188871 $423 20.743406775084104 $421 $471 forward 7 unknown #
vertex $-1 $327 $472 #
straight-curve $-1 0 -35.649371308785597 -4.5923247922927795 1 0 0 I I #
vertex $-1 $422 $473 #
straight-curve $-1 0 -23.974486826020382 -4.5923247922927795 1 0 0 I I #
point $-1 57.744682149723808 -35.649371308785597 -4.5923247922927795 #
point $-1 57.744682149723808 -23.974486826020382 -4.5923247922927795 #
straight-curve $-1 -57.744682149723808 -14.905964533701495 1.4998851809986684 0 1 0 I I #
edge $-1 $334 -2.2729950838221962 $425 3.8192148894692517 $418 $474 forward 7 unknown #
point $-1 -57.744682149723808 -23.974486826020382 1.4998851809986684 #
edge $-1 $338 -1.4998851809986684 $423 4.5923247922927795 $419 $475 forward 7 unknown #
point $-1 -57.744682149723808 -35.649371308785597 1.4998851809986684 #
straight-curve $-1 57.744682149723808 -35.649371308785597 0 0 0 -1 I I #
edge $-1 $436 28.089803436509211 $439 39.015547598003614 $344 $476 forward 7 unknown #
vertex $-1 $358 $477 #
straight-curve $-1 -71.104128591121921 5.8374422413826146 11.65820499882269 -1 0 0 I I #
edge $-1 $439 -4.5302257427180734 $355 1.9157927453889911 $354 $478 forward 7 unknown #
vertex $-1 $438 $479 #
straight-curve $-1 -57.744682149723801 5.8374422413826146 0.73246083732828993 0.68199835119979291 0 0.73135370988377701 I I #
point $-1 -47.556261139383849 5.8374422413826146 11.658204998822686 #
point $-1 -57.744682149723808 -0.60857624672444999 0.73246083732828227 #
straight-curve $-1 -57.744682149723808 0 11.658204998822686 0 -1 0 I I #
vertex $-1 $361 $480 #
point $-1 -50.927049460162436 0.68062745089695653 5.2718794932157067 #
vertex $-1 $365 $481 #
point $-1 -50.927049460162436 2.6144329973290752 5.2718794932157067 #
vertex $-1 $369 $482 #
point $-1 -50.927049460162436 4.5482385437611939 5.2718794932157067 #
coedge $-1 $451 $375 $457 $483 reversed $267 $-1 #
coedge $-1 $375 $450 $378 $455 reversed $267 $-1 #
edge $-1 $453 -19.43619027641957 $383 -12.990171788312502 $382 $484 forward 7 unknown #
vertex $-1 $377 $485 #
straight-curve $-1 -44.498197461957865 35.649371308785597 14.93757687943171 -0.68199835119979291 0 -0.73135370988377701 I I #
edge $-1 $379 47.556261139383849 $459 57.744682149723808 $451 $486 forward 7 unknown #
point $-1 -47.556261139383849 35.649371308785604 11.658204998822686 #
coedge $-1 $382 $381 $450 $483 forward $373 $-1 #
point $-1 -57.744682149723808 29.203352820678536 0.73246083732828227 #
vertex $-1 $455 $487 #
straight-curve $-1 -57.744682149723808 0 11.658204998822686 0 -1 0 I I #
vertex $-1 $389 $488 #
point $-1 -50.927049460162436 30.492556518299942 5.2718794932157067 #
vertex $-1 $393 $489 #
point $-1 -50.927049460162436 32.426362064732068 5.2718794932157067 #
vertex $-1 $397 $490 #
point $-1 -50.927049460162436 34.360167611164179 5.2718794932157067 #
straight-curve $-1 -57.744682149723808 35.649371308785597 0 0 0 -1 I I #
point $-1 -57.744682149723808 -35.649371308785597 -11.658204998822686 #
straight-curve $-1 -57.744682149723808 0 -11.658204998822686 0 1 0 I I #
point $-1 -57.744682149723808 35.649371308785597 -11.658204998822686 #
straight-curve $-1 -57.744682149723808 -14.905964533701495 -4.5923247922927795 0 -1 0 I I #
point $-1 -57.744682149723808 -35.649371308785597 -4.5923247922927795 #
point $-1 -57.744682149723808 -23.974486826020382 -4.5923247922927795 #
straight-curve $-1 -57.744682149723808 -23.974486826020382 -0.77310990282352776 0 0 -1 I I #
straight-curve $-1 -57.744682149723808 -35.649371308785597 0 0 0 -1 I I #
straight-curve $-1 -57.744682149723808 5.8374422413826146 39.748008435331897 0 0 -1 I I #
point $-1 -57.744682149723808 5.8374422413826146 11.658204998822686 #
straight-curve $-1 -57.744682149723808 1.3072164986645411 0.73246083732827982 0 -1 0 I I #
point $-1 -57.744682149723808 5.8374422413826146 0.73246083732828227 #
point $-1 -50.902371780820445 0.68062745089695653 4.5652034626739209 #
point $-1 -50.902371780820445 2.6144329973290752 4.5652034626739209 #
point $-1 -50.902371780820445 4.5482385437611939 4.5652034626739209 #
edge $-1 $459 -11.658204998822686 $453 -0.73246083732828227 $450 $491 forward 7 unknown #
straight-curve $-1 -57.744682149723808 16.213181032366034 0.73246083732827982 0 -1 0 I I #
point $-1 -57.744682149723808 35.649371308785604 0.73246083732828227 #
straight-curve $-1 0 35.649371308785597 11.658204998822686 -1 0 0 I I #
point $-1 -57.744682149723808 35.649371308785597 11.658204998822686 #
point $-1 -50.902371780820445 30.492556518299942 4.5652034626739209 #
point $-1 -50.902371780820445 32.426362064732068 4.5652034626739209 #
point $-1 -50.902371780820445 34.360167611164179 4.5652034626739209 #
straight-curve $-1 -57.744682149723808 35.649371308785597 0 0 0 -1 I I #
End-of-ACIS-data 