500 0 6 0           
7 Unknown 11 ACIS 5.0 NT 24 Thu Mar 25 22:23:32 1999 
-1 9.9999999999999995e-007 1e-010 
body $-1 $6 $-1 $7 #
body $-1 $8 $-1 $9 #
body $-1 $10 $-1 $11 #
body $-1 $12 $-1 $13 #
body $-1 $14 $-1 $15 #
body $-1 $16 $-1 $17 #
lump $-1 $-1 $18 $0 #
transform $-1 1 0 0 0 1 0 0 0 1 55.281228064821313 33.693256441094789 14.287783387219218 1 rotate no_reflect no_shear #
lump $-1 $-1 $19 $1 #
transform $-1 1 0 0 0 1 0 0 0 1 55.281228064821313 33.693256441094789 14.287783387219218 1 rotate no_reflect no_shear #
lump $-1 $-1 $20 $2 #
transform $-1 1 0 0 0 1 0 0 0 1 55.281228064821313 33.693256441094789 14.287783387219218 1 rotate no_reflect no_shear #
lump $-1 $-1 $21 $3 #
transform $-1 1 0 0 0 1 0 0 0 1 55.281228064821313 33.693256441094789 14.287783387219218 1 rotate no_reflect no_shear #
lump $-1 $-1 $22 $4 #
transform $-1 1 0 0 0 1 0 0 0 1 55.281228064821313 33.693256441094789 14.287783387219218 1 rotate no_reflect no_shear #
lump $-1 $-1 $23 $5 #
transform $-1 1 0 0 0 1 0 0 0 1 55.281228064821313 33.693256441094789 14.287783387219218 1 rotate no_reflect no_shear #
shell $-1 $-1 $-1 $24 $-1 $6 #
shell $-1 $-1 $-1 $25 $-1 $8 #
shell $-1 $-1 $-1 $26 $-1 $10 #
shell $-1 $-1 $-1 $27 $-1 $12 #
shell $-1 $-1 $-1 $28 $-1 $14 #
shell $-1 $-1 $-1 $29 $-1 $16 #
face $-1 $30 $31 $18 $-1 $32 forward single #
face $-1 $33 $34 $19 $-1 $35 forward single #
face $-1 $36 $37 $20 $-1 $38 forward single #
face $-1 $39 $40 $21 $-1 $41 reversed single #
face $-1 $42 $43 $22 $-1 $44 forward single #
face $-1 $45 $46 $23 $-1 $47 forward single #
face $-1 $48 $49 $18 $-1 $50 reversed single #
loop $-1 $-1 $51 $24 #
plane-surface $-1 0 0 14.287783387219218 0 0 1 1 0 0 forward_v I I I I #
face $-1 $52 $53 $19 $-1 $54 reversed single #
loop $-1 $-1 $55 $25 #
plane-surface $-1 0 -33.693256441094789 0 0 1 0 0 0 1 forward_v I I I I #
face $-1 $56 $57 $20 $-1 $58 reversed single #
loop $-1 $-1 $59 $26 #
plane-surface $-1 0 33.693256441094789 0 0 -1 0 0 0 -1 forward_v I I I I #
face $-1 $60 $61 $21 $-1 $62 reversed single #
loop $-1 $-1 $63 $27 #
plane-surface $-1 14.812561584800527 14.963453348576849 152.22924752671753 0 -1 0 -0.50000000669873634 0 -0.8660253999169214 forward_v I I I I #
face $-1 $64 $65 $22 $-1 $66 forward single #
loop $-1 $67 $68 $28 #
cone-surface $-1 43.394604748634848 9.8112403416670944 6.7892074908742908 -0.50000000669873634 0 -0.8660253999169214 0.8660253999169214 0 -0.50000000669873634 1 I I 0 1 1 forward I I I I #
face $-1 $69 $70 $23 $-1 $71 forward single #
loop $-1 $72 $73 $29 #
cone-surface $-1 43.394604748634848 12.90256814581295 6.7892074908742908 -0.50000000669873634 0 -0.8660253999169214 0.8660253999169214 0 -0.50000000669873634 1 I I 0 1 1 forward I I I I #
face $-1 $74 $75 $18 $-1 $76 reversed single #
loop $-1 $-1 $77 $30 #
plane-surface $-1 0 0 -14.287783387219218 0 0 1 1 0 0 forward_v I I I I #
coedge $-1 $78 $79 $80 $81 forward $31 $-1 #
face $-1 $82 $83 $19 $-1 $84 reversed single #
loop $-1 $-1 $85 $33 #
plane-surface $-1 0 0 -14.287783387219218 0 0 1 1 0 0 forward_v I I I I #
coedge $-1 $86 $87 $88 $89 forward $34 $-1 #
face $-1 $90 $91 $20 $-1 $92 forward single #
loop $-1 $-1 $93 $36 #
plane-surface $-1 -55.281228064821313 0 0 1 0 0 0 0 -1 forward_v I I I I #
coedge $-1 $94 $95 $96 $97 forward $37 $-1 #
face $-1 $98 $99 $21 $-1 $100 reversed single #
loop $-1 $-1 $101 $39 #
plane-surface $-1 -40.468667220649529 11.356904243740019 56.479352241246701 0.50000000669873634 0 0.8660253999169214 0.8660253999169214 0 -0.50000000669873634 forward_v I I I I #
coedge $-1 $102 $103 $104 $105 reversed $40 $-1 #
face $-1 $-1 $106 $22 $-1 $107 forward single #
loop $-1 $108 $109 $42 #
cone-surface $-1 42.593959271432801 9.8112403416670944 5.4024488702822033 -0.50000000669873634 0 -0.8660253999169214 0.4330126999584607 0 -0.25000000334936817 1 I I -0.70710678118654746 0.70710678118654746 0.5 forward I I I I #
loop $-1 $-1 $110 $28 #
coedge $-1 $68 $68 $111 $112 reversed $43 $-1 #
face $-1 $-1 $113 $23 $-1 $114 forward single #
loop $-1 $115 $116 $45 #
cone-surface $-1 42.593959271432801 12.90256814581295 5.4024488702822033 -0.50000000669873634 0 -0.8660253999169214 0.4330126999584607 0 -0.25000000334936817 1 I I -0.70710678118654746 0.70710678118654746 0.5 forward I I I I #
loop $-1 $-1 $117 $29 #
coedge $-1 $73 $73 $118 $119 reversed $46 $-1 #
face $-1 $120 $121 $18 $-1 $122 reversed single #
loop $-1 $-1 $123 $48 #
plane-surface $-1 0 -33.693256441094789 0 0 1 0 0 0 1 forward_v I I I I #
coedge $-1 $124 $125 $126 $127 forward $49 $-1 #
coedge $-1 $128 $51 $129 $130 forward $31 $-1 #
coedge $-1 $51 $128 $131 $132 forward $31 $-1 #
coedge $-1 $133 $134 $51 $81 reversed $135 $-1 #
edge $-1 $136 -33.693256441094789 $137 33.693256441094789 $80 $138 forward 7 unknown #
face $-1 $139 $140 $19 $-1 $141 forward single #
loop $-1 $-1 $142 $52 #
plane-surface $-1 55.281228064821313 0 0 -1 0 0 0 0 1 forward_v I I I I #
coedge $-1 $143 $144 $145 $146 forward $53 $-1 #
coedge $-1 $145 $55 $142 $147 reversed $34 $-1 #
coedge $-1 $55 $145 $148 $149 reversed $34 $-1 #
coedge $-1 $150 $151 $55 $89 reversed $140 $-1 #
edge $-1 $152 -55.281228064821313 $153 55.281228064821313 $88 $154 forward 7 unknown #
face $-1 $155 $156 $20 $-1 $157 reversed single #
loop $-1 $-1 $158 $56 #
plane-surface $-1 0 38.670399483227825 -10.539654829833466 0 0 1 1 0 0 forward_v I I I I #
coedge $-1 $159 $160 $94 $161 forward $57 $-1 #
coedge $-1 $162 $59 $93 $161 reversed $37 $-1 #
coedge $-1 $59 $162 $163 $164 reversed $37 $-1 #
coedge $-1 $158 $165 $59 $97 reversed $91 $-1 #
edge $-1 $166 -55.281228064821313 $167 55.281228064821313 $96 $168 forward 7 unknown #
face $-1 $169 $170 $21 $-1 $171 forward single #
loop $-1 $-1 $172 $60 #
plane-surface $-1 14.812561584800527 7.7503551389031884 152.22924752671753 0 1 0 0.50000000669873634 0 0.8660253999169214 forward_v I I I I #
coedge $-1 $173 $174 $175 $176 reversed $61 $-1 #
coedge $-1 $103 $63 $177 $178 reversed $40 $-1 #
coedge $-1 $63 $102 $173 $179 reversed $40 $-1 #
coedge $-1 $175 $180 $63 $105 forward $170 $-1 #
edge $-1 $181 -47.874947272421053 $182 -25.202991587753456 $104 $183 forward 7 unknown #
loop $-1 $-1 $111 $64 #
plane-surface $-1 -40.468667220649529 11.356904243740019 56.479352241246701 0.50000000669873634 0 0.8660253999169214 0.8660253999169214 0 -0.50000000669873634 forward_v I I I I #
loop $-1 $-1 $184 $42 #
coedge $-1 $109 $109 $110 $185 reversed $65 $-1 #
coedge $-1 $110 $110 $109 $185 forward $67 $-1 #
coedge $-1 $111 $111 $68 $112 forward $106 $-1 #
edge $-1 $186 0 $186 6.2831853071796004 $111 $187 forward 7 unknown #
loop $-1 $-1 $118 $69 #
plane-surface $-1 -40.468667220649529 11.356904243740019 56.479352241246701 0.50000000669873634 0 0.8660253999169214 0.8660253999169214 0 -0.50000000669873634 forward_v I I I I #
loop $-1 $-1 $188 $45 #
coedge $-1 $116 $116 $117 $189 reversed $70 $-1 #
coedge $-1 $117 $117 $116 $189 forward $72 $-1 #
coedge $-1 $118 $118 $73 $119 forward $113 $-1 #
edge $-1 $190 0 $190 6.2831853071796004 $118 $191 forward 7 unknown #
face $-1 $192 $193 $18 $-1 $194 reversed single #
loop $-1 $-1 $195 $74 #
plane-surface $-1 -55.281228064821313 0 0 1 0 0 0 0 -1 forward_v I I I I #
coedge $-1 $131 $196 $133 $197 reversed $75 $-1 #
coedge $-1 $198 $77 $196 $199 forward $49 $-1 #
coedge $-1 $77 $198 $200 $201 forward $49 $-1 #
coedge $-1 $134 $133 $77 $127 reversed $135 $-1 #
edge $-1 $202 -33.693256441094789 $203 33.693256441094789 $126 $204 forward 7 unknown #
coedge $-1 $79 $78 $205 $206 forward $31 $-1 #
coedge $-1 $207 $208 $78 $130 reversed $193 $-1 #
edge $-1 $137 -55.281228064821313 $209 55.281228064821313 $129 $210 forward 7 unknown #
coedge $-1 $211 $123 $79 $132 reversed $75 $-1 #
edge $-1 $212 -55.281228064821313 $136 55.281228064821313 $131 $213 forward 7 unknown #
coedge $-1 $126 $80 $123 $197 forward $135 $-1 #
coedge $-1 $80 $126 $207 $214 reversed $135 $-1 #
loop $-1 $-1 $133 $192 #
vertex $-1 $81 $215 #
vertex $-1 $81 $216 #
straight-curve $-1 55.281228064821313 0 14.287783387219218 0 1 0 I I #
face $-1 $217 $218 $19 $-1 $219 reversed single #
loop $-1 $-1 $151 $82 #
plane-surface $-1 0 -38.670399483227833 -10.539654829833466 0 0 1 1 0 0 forward_v I I I I #
coedge $-1 $220 $221 $86 $147 forward $83 $-1 #
coedge $-1 $222 $85 $221 $223 forward $53 $-1 #
coedge $-1 $85 $222 $224 $225 forward $53 $-1 #
coedge $-1 $87 $86 $85 $146 reversed $34 $-1 #
edge $-1 $226 -55.281228064821313 $227 55.281228064821313 $85 $228 forward 7 unknown #
edge $-1 $227 -14.287783387219218 $153 -10.539654829833466 $142 $229 forward 7 unknown #
coedge $-1 $224 $230 $87 $149 forward $231 $-1 #
edge $-1 $152 10.539654829833466 $226 14.287783387219218 $148 $232 forward 7 unknown #
coedge $-1 $233 $88 $230 $234 forward $140 $-1 #
coedge $-1 $88 $233 $220 $235 forward $140 $-1 #
vertex $-1 $149 $236 #
vertex $-1 $235 $237 #
straight-curve $-1 0 -33.693256441094789 -10.539654829833466 1 0 0 I I #
face $-1 $238 $239 $20 $-1 $240 reversed single #
loop $-1 $-1 $241 $90 #
plane-surface $-1 0 43.647542525360869 -12.413719108526342 0 -1 0 0 0 -1 forward_v I I I I #
coedge $-1 $242 $96 $243 $244 forward $91 $-1 #
coedge $-1 $245 $93 $165 $246 reversed $57 $-1 #
coedge $-1 $93 $245 $247 $248 reversed $57 $-1 #
edge $-1 $249 -14.287783387219218 $167 -10.539654829833466 $93 $250 forward 7 unknown #
coedge $-1 $95 $94 $251 $252 reversed $37 $-1 #
coedge $-1 $253 $243 $95 $164 forward $254 $-1 #
edge $-1 $166 10.539654829833466 $255 14.287783387219218 $163 $256 forward 7 unknown #
coedge $-1 $96 $242 $159 $246 forward $91 $-1 #
vertex $-1 $164 $257 #
vertex $-1 $246 $258 #
straight-curve $-1 0 33.693256441094789 -10.539654829833466 -1 0 0 I I #
face $-1 $-1 $259 $21 $-1 $260 reversed single #
loop $-1 $-1 $104 $98 #
plane-surface $-1 0 0 14.287783387219218 0 0 1 1 0 0 forward_v I I I I #
coedge $-1 $261 $262 $263 $264 reversed $99 $-1 #
coedge $-1 $265 $101 $103 $179 forward $61 $-1 #
coedge $-1 $101 $265 $261 $266 forward $61 $-1 #
coedge $-1 $263 $104 $101 $176 forward $170 $-1 #
edge $-1 $182 -9.2850012267068394 $267 -2.0719030170331791 $175 $268 forward 7 unknown #
coedge $-1 $269 $270 $102 $178 forward $259 $-1 #
edge $-1 $271 -74.916500327562119 $181 -61.826840376139543 $177 $272 forward 7 unknown #
edge $-1 $182 84.383136577534202 $271 110.56245612964264 $103 $273 forward 7 unknown #
coedge $-1 $104 $263 $269 $274 forward $170 $-1 #
vertex $-1 $178 $275 #
vertex $-1 $105 $276 #
straight-curve $-1 7.4062807924002634 14.963453348576849 14.287783387219221 -1 0 0 I I #
coedge $-1 $184 $184 $-1 $277 reversed $108 $-1 #
edge $-1 $278 0 $278 6.2831853071796004 $109 $279 forward 7 unknown #
vertex $-1 $112 $280 #
ellipse-curve $-1 43.94525022248753 9.8112403416670944 7.7429534115079326 0.50000000669873634 0 0.8660253999169214 0.8660253999169214 0 -0.50000000669873634 1 I I #
coedge $-1 $188 $188 $-1 $281 reversed $115 $-1 #
edge $-1 $282 0 $282 6.2831853071796004 $116 $283 forward 7 unknown #
vertex $-1 $119 $284 #
ellipse-curve $-1 43.94525022248753 12.90256814581295 7.7429534115079326 0.50000000669873634 0 0.8660253999169214 0.8660253999169214 0 -0.50000000669873634 1 I I #
face $-1 $-1 $135 $18 $-1 $285 reversed single #
loop $-1 $-1 $208 $120 #
plane-surface $-1 0 33.693256441094789 0 0 -1 0 0 0 -1 forward_v I I I I #
coedge $-1 $286 $205 $208 $287 forward $121 $-1 #
coedge $-1 $123 $211 $124 $199 reversed $75 $-1 #
edge $-1 $136 -14.287783387219218 $203 14.287783387219218 $133 $288 forward 7 unknown #
coedge $-1 $125 $124 $286 $289 forward $49 $-1 #
edge $-1 $203 -55.281228064821313 $290 55.281228064821313 $196 $291 forward 7 unknown #
coedge $-1 $208 $207 $125 $201 reversed $193 $-1 #
edge $-1 $292 -55.281228064821313 $202 55.281228064821313 $200 $293 forward 7 unknown #
vertex $-1 $127 $294 #
vertex $-1 $197 $295 #
straight-curve $-1 55.281228064821313 0 -14.287783387219218 0 -1 0 I I #
coedge $-1 $195 $296 $128 $206 reversed $121 $-1 #
edge $-1 $209 -33.693256441094789 $212 33.693256441094789 $205 $297 forward 7 unknown #
coedge $-1 $200 $129 $134 $214 forward $193 $-1 #
coedge $-1 $129 $200 $195 $287 reversed $193 $-1 #
vertex $-1 $130 $298 #
straight-curve $-1 0 33.693256441094789 14.287783387219218 -1 0 0 I I #
coedge $-1 $196 $131 $296 $299 forward $75 $-1 #
vertex $-1 $206 $300 #
straight-curve $-1 0 -33.693256441094789 14.287783387219218 1 0 0 I I #
edge $-1 $137 -14.287783387219218 $202 14.287783387219218 $134 $301 forward 7 unknown #
point $-1 55.281228064821313 -33.693256441094789 14.287783387219218 #
point $-1 55.281228064821313 33.693256441094789 14.287783387219218 #
face $-1 $-1 $231 $19 $-1 $302 reversed single #
loop $-1 $-1 $303 $139 #
plane-surface $-1 0 -43.647542525360876 -12.413719108526342 0 1 0 0 0 1 forward_v I I I I #
coedge $-1 $304 $142 $151 $235 reversed $83 $-1 #
coedge $-1 $142 $304 $143 $223 reversed $83 $-1 #
coedge $-1 $144 $143 $305 $306 forward $53 $-1 #
edge $-1 $227 33.693256441094789 $307 43.647542525360876 $221 $308 forward 7 unknown #
coedge $-1 $309 $148 $144 $225 reversed $231 $-1 #
edge $-1 $310 -43.647542525360876 $226 -33.693256441094789 $224 $311 forward 7 unknown #
vertex $-1 $149 $312 #
vertex $-1 $223 $313 #
straight-curve $-1 0 -33.693256441094789 -14.287783387219218 1 0 0 I I #
straight-curve $-1 55.281228064821313 -33.693256441094789 0 0 0 1 I I #
coedge $-1 $148 $309 $150 $234 reversed $231 $-1 #
loop $-1 $-1 $148 $217 #
straight-curve $-1 -55.281228064821313 -33.693256441094789 0 0 0 -1 I I #
coedge $-1 $151 $150 $314 $315 forward $140 $-1 #
edge $-1 $152 -4.9771430421330436 $316 4.9771430421330436 $230 $317 forward 7 unknown #
edge $-1 $318 -4.9771430421330436 $153 4.9771430421330436 $220 $319 forward 7 unknown #
point $-1 -55.281228064821313 -33.693256441094789 -10.539654829833466 #
point $-1 55.281228064821313 -33.693256441094789 -10.539654829833466 #
face $-1 $-1 $254 $20 $-1 $320 reversed single #
loop $-1 $-1 $251 $155 #
plane-surface $-1 0 0 -14.287783387219218 0 0 1 1 0 0 forward_v I I I I #
coedge $-1 $321 $322 $323 $324 forward $156 $-1 #
coedge $-1 $165 $158 $322 $325 forward $91 $-1 #
coedge $-1 $163 $323 $158 $244 reversed $254 $-1 #
edge $-1 $166 -4.9771430421330436 $326 4.9771430421330436 $243 $327 forward 7 unknown #
coedge $-1 $160 $159 $328 $329 forward $57 $-1 #
edge $-1 $330 -4.9771430421330436 $167 4.9771430421330436 $159 $331 forward 7 unknown #
coedge $-1 $332 $251 $160 $248 forward $239 $-1 #
edge $-1 $249 -4.9771430421330365 $333 4.9771430421330436 $160 $334 forward 7 unknown #
vertex $-1 $248 $335 #
straight-curve $-1 -55.281228064821313 33.693256441094789 0 0 0 1 I I #
coedge $-1 $247 $336 $162 $252 forward $239 $-1 #
edge $-1 $255 -55.281228064821313 $249 55.281228064821313 $251 $337 forward 7 unknown #
coedge $-1 $323 $163 $336 $338 reversed $254 $-1 #
loop $-1 $-1 $163 $238 #
vertex $-1 $164 $339 #
straight-curve $-1 55.281228064821313 33.693256441094789 0 0 0 -1 I I #
point $-1 55.281228064821313 33.693256441094782 -10.539654829833466 #
point $-1 -55.281228064821313 33.693256441094782 -10.539654829833466 #
loop $-1 $-1 $177 $169 #
plane-surface $-1 55.281228064821313 0 0 -1 0 0 0 0 1 forward_v I I I I #
coedge $-1 $262 $172 $174 $266 reversed $99 $-1 #
coedge $-1 $172 $261 $340 $341 reversed $99 $-1 #
coedge $-1 $180 $175 $172 $264 forward $170 $-1 #
edge $-1 $267 25.202991587753456 $342 47.874947272421053 $263 $343 forward 7 unknown #
coedge $-1 $174 $173 $270 $344 reversed $61 $-1 #
edge $-1 $345 -110.56245612964264 $267 -84.383136577534202 $261 $346 forward 7 unknown #
vertex $-1 $176 $347 #
straight-curve $-1 32.609272380153726 5.6784521218700093 14.287783387219221 0 -1 0 I I #
coedge $-1 $340 $177 $180 $274 reversed $259 $-1 #
coedge $-1 $177 $340 $265 $344 forward $259 $-1 #
vertex $-1 $178 $348 #
straight-curve $-1 55.281228064821313 14.963453348576849 76.114623763358765 0 0 1 I I #
straight-curve $-1 -40.468667220649529 14.963453348576849 56.479352241246701 0.8660253999169214 0 -0.50000000669873634 I I #
edge $-1 $342 7.7503551389031884 $181 14.963453348576849 $269 $349 forward 7 unknown #
point $-1 55.281228064821313 14.963453348576849 14.287783387219218 #
point $-1 32.609272380153719 14.963453348576849 14.287783387219221 #
edge $-1 $350 1 $350 0 $184 $-1 forward 7 unknown #
vertex $-1 $185 $351 #
ellipse-curve $-1 42.843959274782172 9.8112403416670944 5.835461570240664 0.50000000669873634 0 0.8660253999169214 0.8660253999169214 0 -0.50000000669873634 1 I I #
point $-1 44.811275622404438 9.8112403416670944 7.2429534048091799 #
edge $-1 $352 1 $352 0 $188 $-1 forward 7 unknown #
vertex $-1 $189 $353 #
ellipse-curve $-1 42.843959274782172 12.90256814581295 5.835461570240664 0.50000000669873634 0 0.8660253999169214 0.8660253999169214 0 -0.50000000669873634 1 I I #
point $-1 44.811275622404438 12.90256814581295 7.2429534048091799 #
plane-surface $-1 55.281228064821313 0 0 -1 0 0 0 0 1 forward_v I I I I #
coedge $-1 $296 $195 $198 $289 reversed $121 $-1 #
edge $-1 $209 -14.287783387219218 $292 14.287783387219218 $208 $354 forward 7 unknown #
straight-curve $-1 55.281228064821313 -33.693256441094789 0 0 0 -1 I I #
edge $-1 $290 -33.693256441094789 $292 33.693256441094789 $286 $355 forward 7 unknown #
vertex $-1 $289 $356 #
straight-curve $-1 0 -33.693256441094789 -14.287783387219218 -1 0 0 I I #
vertex $-1 $201 $357 #
straight-curve $-1 0 33.693256441094789 -14.287783387219218 1 0 0 I I #
point $-1 55.281228064821313 33.693256441094789 -14.287783387219218 #
point $-1 55.281228064821313 -33.693256441094789 -14.287783387219218 #
coedge $-1 $205 $286 $211 $299 reversed $121 $-1 #
straight-curve $-1 -55.281228064821313 0 14.287783387219218 0 -1 0 I I #
point $-1 -55.281228064821313 33.693256441094789 14.287783387219218 #
edge $-1 $212 -14.287783387219218 $290 14.287783387219218 $296 $358 forward 7 unknown #
point $-1 -55.281228064821313 -33.693256441094789 14.287783387219218 #
straight-curve $-1 55.281228064821313 33.693256441094789 0 0 0 -1 I I #
plane-surface $-1 -55.281228064821313 0 0 1 0 0 0 0 -1 forward_v I I I I #
coedge $-1 $305 $314 $309 $359 forward $218 $-1 #
coedge $-1 $221 $220 $360 $361 forward $83 $-1 #
coedge $-1 $360 $303 $222 $306 reversed $218 $-1 #
edge $-1 $307 -55.281228064821313 $310 55.281228064821313 $305 $362 forward 7 unknown #
vertex $-1 $361 $363 #
straight-curve $-1 55.281228064821313 0 -14.287783387219218 0 -1 0 I I #
coedge $-1 $230 $224 $303 $359 reversed $231 $-1 #
vertex $-1 $225 $364 #
straight-curve $-1 -55.281228064821313 0 -14.287783387219218 0 1 0 I I #
point $-1 -55.281228064821313 -33.693256441094789 -14.287783387219218 #
point $-1 55.281228064821313 -33.693256441094789 -14.287783387219218 #
coedge $-1 $303 $360 $233 $315 reversed $218 $-1 #
edge $-1 $316 -55.281228064821313 $318 55.281228064821313 $314 $365 forward 7 unknown #
vertex $-1 $234 $366 #
straight-curve $-1 -55.281228064821313 -38.670399483227833 -10.539654829833466 0 -1 0 I I #
vertex $-1 $235 $367 #
straight-curve $-1 55.281228064821313 -38.670399483227833 -10.539654829833466 0 1 0 I I #
plane-surface $-1 55.281228064821313 0 0 -1 0 0 0 0 1 forward_v I I I I #
coedge $-1 $328 $241 $332 $368 reversed $156 $-1 #
coedge $-1 $241 $328 $242 $325 reversed $156 $-1 #
coedge $-1 $243 $253 $241 $324 reversed $254 $-1 #
edge $-1 $326 -1.8740642786928756 $369 1.8740642786928756 $323 $370 forward 7 unknown #
edge $-1 $326 -55.281228064821313 $330 55.281228064821313 $322 $371 forward 7 unknown #
vertex $-1 $244 $372 #
straight-curve $-1 55.281228064821313 38.670399483227825 -10.539654829833466 0 1 0 I I #
coedge $-1 $322 $321 $245 $329 reversed $156 $-1 #
edge $-1 $330 -1.8740642786928756 $333 1.8740642786928756 $328 $373 forward 7 unknown #
vertex $-1 $325 $374 #
straight-curve $-1 -55.281228064821313 38.670399483227825 -10.539654829833466 0 -1 0 I I #
coedge $-1 $336 $247 $321 $368 forward $239 $-1 #
vertex $-1 $368 $375 #
straight-curve $-1 -55.281228064821313 38.670399483227825 -14.287783387219218 0 1 0 I I #
point $-1 -55.281228064821313 33.693256441094789 -14.287783387219218 #
coedge $-1 $251 $332 $253 $338 forward $239 $-1 #
straight-curve $-1 0 33.693256441094789 -14.287783387219218 -1 0 0 I I #
edge $-1 $369 -43.647542525360869 $255 -33.693256441094789 $253 $376 forward 7 unknown #
point $-1 55.281228064821313 33.693256441094789 -14.287783387219218 #
coedge $-1 $270 $269 $262 $341 forward $259 $-1 #
edge $-1 $342 61.826840376139543 $345 74.916500327562119 $340 $377 forward 7 unknown #
vertex $-1 $274 $378 #
straight-curve $-1 7.4062807924002634 7.7503551389031884 14.287783387219221 1 0 0 I I #
edge $-1 $345 2.0719030170331791 $271 9.2850012267068394 $270 $379 forward 7 unknown #
vertex $-1 $344 $380 #
straight-curve $-1 -40.468667220649529 7.7503551389031884 56.479352241246701 -0.8660253999169214 0 0.50000000669873634 I I #
point $-1 32.609272380153719 7.7503551389031884 14.287783387219221 #
point $-1 55.281228064821313 14.963453348576849 1.1981234357966386 #
straight-curve $-1 55.281228064821313 0 14.287783387219218 0 1 0 I I #
vertex $-1 $277 $381 #
point $-1 43.709984674699093 9.8112403416670944 5.3354615635419274 #
vertex $-1 $281 $382 #
point $-1 43.709984674699093 12.90256814581295 5.3354615635419274 #
straight-curve $-1 -55.281228064821313 33.693256441094789 0 0 0 -1 I I #
straight-curve $-1 -55.281228064821313 0 -14.287783387219218 0 1 0 I I #
point $-1 -55.281228064821313 -33.693256441094789 -14.287783387219218 #
point $-1 -55.281228064821313 33.693256441094789 -14.287783387219218 #
straight-curve $-1 -55.281228064821313 -33.693256441094789 0 0 0 -1 I I #
edge $-1 $316 -1.8740642786928756 $310 1.8740642786928756 $309 $383 forward 7 unknown #
coedge $-1 $314 $305 $304 $361 reversed $218 $-1 #
edge $-1 $318 -1.8740642786928756 $307 1.8740642786928756 $304 $384 forward 7 unknown #
straight-curve $-1 0 -43.647542525360876 -14.287783387219218 -1 0 0 I I #
point $-1 55.281228064821313 -43.647542525360876 -14.287783387219218 #
point $-1 -55.281228064821313 -43.647542525360876 -14.287783387219218 #
straight-curve $-1 0 -43.647542525360876 -10.539654829833466 1 0 0 I I #
point $-1 -55.281228064821313 -43.647542525360876 -10.539654829833466 #
point $-1 55.281228064821313 -43.647542525360876 -10.539654829833466 #
edge $-1 $333 -55.281228064821313 $369 55.281228064821313 $321 $385 forward 7 unknown #
vertex $-1 $338 $386 #
straight-curve $-1 55.281228064821313 43.647542525360869 -12.413719108526342 0 0 -1 I I #
straight-curve $-1 0 43.647542525360869 -10.539654829833466 -1 0 0 I I #
point $-1 55.281228064821313 43.647542525360869 -10.539654829833466 #
straight-curve $-1 -55.281228064821313 43.647542525360869 -12.413719108526342 0 0 -1 I I #
point $-1 -55.281228064821313 43.647542525360869 -10.539654829833466 #
point $-1 -55.281228064821313 43.647542525360869 -14.287783387219218 #
straight-curve $-1 55.281228064821313 0 -14.287783387219218 0 -1 0 I I #
straight-curve $-1 55.281228064821313 7.7503551389031884 76.114623763358765 0 0 -1 I I #
point $-1 55.281228064821313 7.7503551389031884 14.287783387219218 #
straight-curve $-1 55.281228064821313 5.6784521218700093 1.1981234357966386 0 1 0 I I #
point $-1 55.281228064821313 7.7503551389031884 1.1981234357966386 #
point $-1 42.343959268083431 9.8112403416670944 4.9694361703237426 #
point $-1 42.343959268083431 12.90256814581295 4.9694361703237426 #
straight-curve $-1 -55.281228064821313 -43.647542525360876 -12.413719108526342 0 0 -1 I I #
straight-curve $-1 55.281228064821313 -43.647542525360876 -12.413719108526342 0 0 -1 I I #
straight-curve $-1 0 43.647542525360869 -14.287783387219218 1 0 0 I I #
point $-1 55.281228064821313 43.647542525360869 -14.287783387219218 #
End-of-ACIS-data 