500 0 4 0           
7 Unknown 11 ACIS 5.0 NT 24 Fri Mar 26 14:51:15 1999 
-1 9.9999999999999995e-007 1e-010 
body $-1 $4 $-1 $5 #
body $-1 $6 $-1 $7 #
body $-1 $8 $-1 $9 #
body $-1 $10 $-1 $11 #
lump $-1 $-1 $12 $0 #
transform $-1 1 0 0 0 1 0 0 0 1 55.582750938444164 25.59890421497424 6.9954609214192285 1 rotate no_reflect no_shear #
lump $-1 $-1 $13 $1 #
transform $-1 1 0 0 0 1 0 0 0 1 55.582750938444164 25.59890421497424 6.9954609214192285 1 rotate no_reflect no_shear #
lump $-1 $-1 $14 $2 #
transform $-1 1 0 0 0 1 0 0 0 1 55.582750938444164 25.59890421497424 6.9954609214192285 1 rotate no_reflect no_shear #
lump $-1 $-1 $15 $3 #
transform $-1 1 0 0 0 1 0 0 0 1 55.582750938444164 25.59890421497424 6.9954609214192285 1 rotate no_reflect no_shear #
shell $-1 $-1 $-1 $16 $-1 $4 #
shell $-1 $-1 $-1 $17 $-1 $6 #
shell $-1 $-1 $-1 $18 $-1 $8 #
shell $-1 $-1 $-1 $19 $-1 $10 #
face $-1 $20 $21 $12 $-1 $22 forward single #
face $-1 $23 $24 $13 $-1 $25 forward single #
face $-1 $26 $27 $14 $-1 $28 reversed single #
face $-1 $29 $30 $15 $-1 $31 forward single #
face $-1 $32 $33 $12 $-1 $34 reversed single #
loop $-1 $-1 $35 $16 #
plane-surface $-1 0 0 6.9954609214192285 0 0 1 1 0 0 forward_v I I I I #
face $-1 $36 $37 $13 $-1 $38 reversed single #
loop $-1 $-1 $39 $17 #
plane-surface $-1 0 -25.59890421497424 0 0 1 0 0 0 1 forward_v I I I I #
face $-1 $40 $41 $14 $-1 $42 reversed single #
loop $-1 $-1 $43 $18 #
plane-surface $-1 -44.479463564893123 63.9698887690014 116.61648557029496 1 0 0 0 -0.68199836817093118 -0.7313536940579346 forward_v I I I I #
face $-1 $44 $45 $15 $-1 $46 forward single #
loop $-1 $47 $48 $19 #
cone-surface $-1 -31.635229065829876 20.948877274524371 2.503616174777787 0 -0.68199836817093118 -0.7313536940579346 1 0 0 1 I I 0 1 1 forward I I I I #
face $-1 $49 $50 $12 $-1 $51 reversed single #
loop $-1 $-1 $52 $20 #
plane-surface $-1 0 0 -6.9954609214192285 0 0 1 1 0 0 forward_v I I I I #
coedge $-1 $53 $54 $55 $56 forward $21 $-1 #
face $-1 $57 $58 $13 $-1 $59 forward single #
loop $-1 $-1 $60 $23 #
plane-surface $-1 -55.582750938444164 0 0 1 0 0 0 0 -1 forward_v I I I I #
coedge $-1 $61 $62 $63 $64 forward $24 $-1 #
face $-1 $65 $66 $14 $-1 $67 reversed single #
loop $-1 $-1 $68 $26 #
plane-surface $-1 -31.635229065829876 -11.844802107939032 35.315185120828417 0 0.68199836817093118 0.7313536940579346 1 0 0 forward_v I I I I #
coedge $-1 $69 $70 $71 $72 reversed $27 $-1 #
face $-1 $-1 $73 $15 $-1 $74 forward single #
loop $-1 $75 $76 $29 #
cone-surface $-1 -31.635229065829876 19.495111594979861 0.94464338297919248 0 -0.68199836817093118 -0.7313536940579346 0.5 0 0 1 I I -0.70710678118654746 0.70710678118654746 0.5 forward I I I I #
loop $-1 $-1 $77 $19 #
coedge $-1 $48 $48 $78 $79 reversed $30 $-1 #
face $-1 $80 $81 $12 $-1 $82 reversed single #
loop $-1 $-1 $83 $32 #
plane-surface $-1 0 -25.59890421497424 0 0 1 0 0 0 1 forward_v I I I I #
coedge $-1 $84 $85 $86 $87 forward $33 $-1 #
coedge $-1 $88 $35 $89 $90 forward $21 $-1 #
coedge $-1 $35 $88 $91 $92 forward $21 $-1 #
coedge $-1 $93 $94 $35 $56 reversed $95 $-1 #
edge $-1 $96 -25.59890421497424 $97 25.59890421497424 $55 $98 forward 7 unknown #
face $-1 $99 $100 $13 $-1 $101 reversed single #
loop $-1 $-1 $102 $36 #
plane-surface $-1 0 -28.641587062671732 1.732024866249636 0 0 1 1 0 0 forward_v I I I I #
coedge $-1 $103 $104 $62 $105 forward $37 $-1 #
coedge $-1 $106 $39 $107 $108 reversed $24 $-1 #
coedge $-1 $39 $106 $60 $105 reversed $24 $-1 #
coedge $-1 $109 $102 $39 $64 reversed $58 $-1 #
edge $-1 $110 -55.582750938444164 $111 55.582750938444164 $63 $112 forward 7 unknown #
face $-1 $113 $114 $14 $-1 $115 forward single #
loop $-1 $-1 $116 $40 #
plane-surface $-1 -18.790994566766628 63.9698887690014 116.61648557029496 -1 0 0 0 0.68199836817093118 0.7313536940579346 forward_v I I I I #
coedge $-1 $117 $118 $119 $120 reversed $41 $-1 #
coedge $-1 $70 $43 $121 $122 reversed $27 $-1 #
coedge $-1 $43 $69 $117 $123 reversed $27 $-1 #
coedge $-1 $119 $124 $43 $72 forward $114 $-1 #
edge $-1 $125 6.3860401695264599 $126 13.460561059508091 $71 $127 forward 7 unknown #
loop $-1 $-1 $78 $44 #
plane-surface $-1 -31.635229065829876 -11.844802107939032 35.315185120828417 0 0.68199836817093118 0.7313536940579346 1 0 0 forward_v I I I I #
loop $-1 $-1 $128 $29 #
coedge $-1 $76 $76 $77 $129 reversed $45 $-1 #
coedge $-1 $77 $77 $76 $129 forward $47 $-1 #
coedge $-1 $78 $78 $48 $79 forward $73 $-1 #
edge $-1 $130 1.4665180158395385e-015 $130 6.2831853071796022 $78 $131 forward 7 unknown #
face $-1 $132 $133 $12 $-1 $134 reversed single #
loop $-1 $-1 $135 $49 #
plane-surface $-1 -55.582750938444164 0 0 1 0 0 0 0 -1 forward_v I I I I #
coedge $-1 $136 $91 $137 $138 forward $50 $-1 #
coedge $-1 $139 $52 $136 $140 forward $33 $-1 #
coedge $-1 $52 $139 $141 $142 forward $33 $-1 #
coedge $-1 $94 $93 $52 $87 reversed $95 $-1 #
edge $-1 $143 -25.59890421497424 $144 25.59890421497424 $86 $145 forward 7 unknown #
coedge $-1 $54 $53 $146 $147 forward $21 $-1 #
coedge $-1 $148 $149 $53 $90 reversed $133 $-1 #
edge $-1 $97 -55.582750938444164 $150 55.582750938444164 $89 $151 forward 7 unknown #
coedge $-1 $83 $152 $54 $92 reversed $50 $-1 #
edge $-1 $153 -55.582750938444164 $96 55.582750938444164 $91 $154 forward 7 unknown #
coedge $-1 $86 $55 $152 $155 forward $95 $-1 #
coedge $-1 $55 $86 $148 $156 reversed $95 $-1 #
loop $-1 $-1 $93 $132 #
vertex $-1 $56 $157 #
vertex $-1 $56 $158 #
straight-curve $-1 55.582750938444164 0 6.9954609214192285 0 1 0 I I #
face $-1 $159 $160 $13 $-1 $161 reversed single #
loop $-1 $-1 $162 $57 #
plane-surface $-1 0 -28.641587062671732 -1.907356899778184 0 0 1 1 0 0 forward_v I I I I #
coedge $-1 $63 $163 $164 $165 forward $58 $-1 #
coedge $-1 $166 $60 $167 $168 reversed $37 $-1 #
coedge $-1 $60 $166 $109 $169 reversed $37 $-1 #
edge $-1 $110 -1.732024866249636 $170 1.907356899778184 $60 $171 forward 7 unknown #
coedge $-1 $62 $61 $172 $173 forward $24 $-1 #
coedge $-1 $164 $174 $61 $108 forward $175 $-1 #
edge $-1 $176 -1.907356899778184 $111 1.732024866249636 $107 $177 forward 7 unknown #
coedge $-1 $163 $63 $104 $169 forward $58 $-1 #
vertex $-1 $105 $178 #
vertex $-1 $165 $179 #
straight-curve $-1 0 -25.59890421497424 1.732024866249636 1 0 0 I I #
face $-1 $-1 $180 $14 $-1 $181 reversed single #
loop $-1 $-1 $71 $65 #
plane-surface $-1 0 0 6.9954609214192285 0 0 1 1 0 0 forward_v I I I I #
coedge $-1 $182 $183 $184 $185 reversed $66 $-1 #
coedge $-1 $186 $68 $70 $123 forward $41 $-1 #
coedge $-1 $68 $186 $182 $187 forward $41 $-1 #
coedge $-1 $184 $71 $68 $120 forward $114 $-1 #
edge $-1 $126 -28.661849031978186 $188 -2.97338003385169 $119 $189 forward 7 unknown #
coedge $-1 $190 $191 $69 $122 forward $180 $-1 #
edge $-1 $192 -57.909879467471853 $125 -51.312781863728247 $121 $193 forward 7 unknown #
edge $-1 $126 41.524621642952866 $192 51.197808429948459 $70 $194 forward 7 unknown #
coedge $-1 $71 $184 $190 $195 forward $114 $-1 #
vertex $-1 $122 $196 #
vertex $-1 $72 $197 #
straight-curve $-1 -44.479463564893123 31.9849443845007 6.9954609214192303 0 -1 0 I I #
coedge $-1 $128 $128 $-1 $198 reversed $75 $-1 #
edge $-1 $199 0 $199 6.2831853071796004 $76 $200 forward 7 unknown #
vertex $-1 $79 $201 #
ellipse-curve $-1 -31.635229065829876 22.061643769983426 3.6969121195474246 0 0.68199836817093118 0.7313536940579346 1 0 0 1 I I #
face $-1 $-1 $95 $12 $-1 $202 reversed single #
loop $-1 $-1 $148 $80 #
plane-surface $-1 0 25.59890421497424 0 0 -1 0 0 0 -1 forward_v I I I I #
coedge $-1 $203 $146 $149 $204 forward $81 $-1 #
coedge $-1 $152 $83 $84 $140 reversed $50 $-1 #
coedge $-1 $146 $203 $83 $138 reversed $81 $-1 #
edge $-1 $153 -6.9954609214192285 $205 6.9954609214192285 $137 $206 forward 7 unknown #
coedge $-1 $85 $84 $203 $207 forward $33 $-1 #
edge $-1 $144 -55.582750938444164 $205 55.582750938444164 $136 $208 forward 7 unknown #
coedge $-1 $149 $148 $85 $142 reversed $133 $-1 #
edge $-1 $209 -55.582750938444164 $143 55.582750938444164 $141 $210 forward 7 unknown #
vertex $-1 $87 $211 #
vertex $-1 $155 $212 #
straight-curve $-1 55.582750938444164 0 -6.9954609214192285 0 -1 0 I I #
coedge $-1 $135 $137 $88 $147 reversed $81 $-1 #
edge $-1 $150 -25.59890421497424 $153 25.59890421497424 $146 $213 forward 7 unknown #
coedge $-1 $141 $89 $94 $156 forward $133 $-1 #
coedge $-1 $89 $141 $135 $204 reversed $133 $-1 #
vertex $-1 $90 $214 #
straight-curve $-1 0 25.59890421497424 6.9954609214192285 -1 0 0 I I #
coedge $-1 $91 $136 $93 $155 reversed $50 $-1 #
vertex $-1 $147 $215 #
straight-curve $-1 0 -25.59890421497424 6.9954609214192285 1 0 0 I I #
edge $-1 $96 -6.9954609214192285 $144 6.9954609214192285 $93 $216 forward 7 unknown #
edge $-1 $97 -6.9954609214192285 $143 6.9954609214192285 $94 $217 forward 7 unknown #
point $-1 55.582750938444164 -25.59890421497424 6.9954609214192285 #
point $-1 55.582750938444164 25.59890421497424 6.9954609214192285 #
face $-1 $-1 $175 $13 $-1 $218 reversed single #
loop $-1 $-1 $219 $99 #
plane-surface $-1 0 -31.684269910369224 -0.087666016764273991 0 1 0 0 0 1 forward_v I I I I #
coedge $-1 $220 $172 $174 $221 forward $100 $-1 #
coedge $-1 $102 $109 $222 $223 forward $58 $-1 #
coedge $-1 $224 $107 $102 $165 reversed $175 $-1 #
edge $-1 $225 -3.0426828476974919 $111 3.0426828476974919 $164 $226 forward 7 unknown #
coedge $-1 $104 $103 $219 $227 reversed $37 $-1 #
coedge $-1 $172 $220 $103 $168 forward $100 $-1 #
edge $-1 $228 -3.0426828476974919 $170 3.0426828476974919 $103 $229 forward 7 unknown #
edge $-1 $110 -3.0426828476974919 $230 3.0426828476974919 $104 $231 forward 7 unknown #
vertex $-1 $105 $232 #
straight-curve $-1 -55.582750938444164 -25.59890421497424 0 0 0 -1 I I #
coedge $-1 $162 $167 $106 $173 reversed $100 $-1 #
edge $-1 $176 -55.582750938444164 $170 55.582750938444164 $172 $233 forward 7 unknown #
coedge $-1 $107 $224 $162 $221 reversed $175 $-1 #
loop $-1 $-1 $107 $159 #
vertex $-1 $108 $234 #
straight-curve $-1 55.582750938444164 -25.59890421497424 0 0 0 1 I I #
point $-1 -55.582750938444164 -25.59890421497424 1.732024866249636 #
point $-1 55.582750938444164 -25.59890421497424 1.732024866249636 #
loop $-1 $-1 $121 $113 #
plane-surface $-1 0 25.59890421497424 0 0 -1 0 0 0 -1 forward_v I I I I #
coedge $-1 $183 $116 $118 $187 reversed $66 $-1 #
coedge $-1 $116 $182 $235 $236 reversed $66 $-1 #
coedge $-1 $124 $119 $116 $185 forward $114 $-1 #
edge $-1 $188 -13.460561059508091 $237 -6.3860401695264599 $184 $238 forward 7 unknown #
coedge $-1 $118 $117 $191 $239 reversed $41 $-1 #
edge $-1 $240 -51.197808429948459 $188 -41.524621642952866 $182 $241 forward 7 unknown #
vertex $-1 $120 $242 #
straight-curve $-1 -15.817614532914938 18.524383324992613 6.9954609214192303 1 0 0 I I #
coedge $-1 $235 $121 $124 $195 reversed $180 $-1 #
coedge $-1 $121 $235 $186 $239 forward $180 $-1 #
vertex $-1 $122 $243 #
straight-curve $-1 -44.479463564893123 25.59890421497424 58.308242785147478 0 0 1 I I #
straight-curve $-1 -44.479463564893123 -11.844802107939032 35.315185120828417 0 0.7313536940579346 -0.68199836817093118 I I #
edge $-1 $237 18.790994566766628 $125 44.479463564893123 $190 $244 forward 7 unknown #
point $-1 -44.479463564893123 25.59890421497424 6.9954609214192285 #
point $-1 -44.479463564893123 18.524383324992609 6.9954609214192303 #
edge $-1 $245 1 $245 0 $128 $-1 forward 7 unknown #
vertex $-1 $129 $246 #
ellipse-curve $-1 -31.635229065829876 19.836110779065326 1.3103202300081598 0 0.68199836817093118 0.7313536940579346 1 0 0 1 I I #
point $-1 -30.635229065829876 22.061643769983419 3.6969121195474148 #
plane-surface $-1 55.582750938444164 0 0 -1 0 0 0 0 1 forward_v I I I I #
coedge $-1 $137 $135 $139 $207 reversed $81 $-1 #
edge $-1 $150 -6.9954609214192285 $209 6.9954609214192285 $149 $247 forward 7 unknown #
vertex $-1 $207 $248 #
straight-curve $-1 -55.582750938444164 -25.59890421497424 0 0 0 -1 I I #
edge $-1 $205 -25.59890421497424 $209 25.59890421497424 $203 $249 forward 7 unknown #
straight-curve $-1 0 -25.59890421497424 -6.9954609214192285 -1 0 0 I I #
vertex $-1 $142 $250 #
straight-curve $-1 0 25.59890421497424 -6.9954609214192285 1 0 0 I I #
point $-1 55.582750938444164 25.59890421497424 -6.9954609214192285 #
point $-1 55.582750938444164 -25.59890421497424 -6.9954609214192285 #
straight-curve $-1 -55.582750938444164 0 6.9954609214192285 0 -1 0 I I #
point $-1 -55.582750938444164 25.59890421497424 6.9954609214192285 #
point $-1 -55.582750938444164 -25.59890421497424 6.9954609214192285 #
straight-curve $-1 55.582750938444164 -25.59890421497424 0 0 0 -1 I I #
straight-curve $-1 55.582750938444164 25.59890421497424 0 0 0 -1 I I #
plane-surface $-1 55.582750938444164 0 0 -1 0 0 0 0 1 forward_v I I I I #
coedge $-1 $251 $222 $166 $227 forward $160 $-1 #
coedge $-1 $167 $162 $251 $252 forward $100 $-1 #
edge $-1 $176 -3.0426828476974919 $253 3.0426828476974919 $174 $254 forward 7 unknown #
coedge $-1 $219 $255 $163 $223 reversed $160 $-1 #
edge $-1 $230 -55.582750938444164 $225 55.582750938444164 $222 $256 forward 7 unknown #
coedge $-1 $174 $164 $255 $257 forward $175 $-1 #
vertex $-1 $165 $258 #
straight-curve $-1 55.582750938444164 -28.641587062671732 1.732024866249636 0 1 0 I I #
edge $-1 $230 -1.81969088301391 $228 1.81969088301391 $166 $259 forward 7 unknown #
vertex $-1 $168 $260 #
straight-curve $-1 -55.582750938444164 -28.641587062671732 -1.907356899778184 0 1 0 I I #
vertex $-1 $169 $261 #
straight-curve $-1 -55.582750938444164 -28.641587062671732 1.732024866249636 0 -1 0 I I #
point $-1 -55.582750938444164 -25.59890421497424 -1.907356899778184 #
straight-curve $-1 0 -25.59890421497424 -1.907356899778184 -1 0 0 I I #
point $-1 55.582750938444164 -25.59890421497424 -1.907356899778184 #
coedge $-1 $191 $190 $183 $236 forward $180 $-1 #
edge $-1 $237 51.312781863728247 $240 57.909879467471853 $235 $262 forward 7 unknown #
vertex $-1 $195 $263 #
straight-curve $-1 -18.790994566766628 31.9849443845007 6.9954609214192303 0 1 0 I I #
edge $-1 $240 2.97338003385169 $192 28.661849031978186 $191 $264 forward 7 unknown #
vertex $-1 $239 $265 #
straight-curve $-1 -18.790994566766628 -11.844802107939032 35.315185120828417 0 -0.7313536940579346 0.68199836817093118 I I #
point $-1 -18.790994566766628 18.524383324992609 6.9954609214192303 #
point $-1 -44.479463564893123 25.59890421497424 0.39836331767562427 #
straight-curve $-1 0 25.59890421497424 6.9954609214192285 -1 0 0 I I #
vertex $-1 $198 $266 #
point $-1 -30.635229065829876 19.836110779065326 1.3103202300081598 #
straight-curve $-1 -55.582750938444164 25.59890421497424 0 0 0 -1 I I #
point $-1 -55.582750938444164 -25.59890421497424 -6.9954609214192285 #
straight-curve $-1 -55.582750938444164 0 -6.9954609214192285 0 1 0 I I #
point $-1 -55.582750938444164 25.59890421497424 -6.9954609214192285 #
coedge $-1 $255 $219 $220 $252 reversed $160 $-1 #
edge $-1 $253 -55.582750938444164 $228 55.582750938444164 $251 $267 forward 7 unknown #
vertex $-1 $257 $268 #
straight-curve $-1 55.582750938444164 -28.641587062671732 -1.907356899778184 0 -1 0 I I #
coedge $-1 $222 $251 $224 $257 reversed $160 $-1 #
straight-curve $-1 0 -31.684269910369224 1.732024866249636 1 0 0 I I #
edge $-1 $225 -1.81969088301391 $253 1.81969088301391 $224 $269 forward 7 unknown #
point $-1 55.582750938444164 -31.684269910369224 1.732024866249636 #
straight-curve $-1 -55.582750938444164 -31.684269910369224 -0.087666016764273991 0 0 -1 I I #
point $-1 -55.582750938444164 -31.684269910369224 -1.907356899778184 #
point $-1 -55.582750938444164 -31.684269910369224 1.732024866249636 #
straight-curve $-1 -18.790994566766628 25.59890421497424 58.308242785147478 0 0 -1 I I #
point $-1 -18.790994566766628 25.59890421497424 6.9954609214192285 #
straight-curve $-1 -15.817614532914938 25.59890421497424 0.39836331767562072 -1 0 0 I I #
point $-1 -18.790994566766628 25.59890421497424 0.39836331767562427 #
point $-1 -31.635229065829876 19.154112410894395 0.57896653595022518 #
straight-curve $-1 0 -31.684269910369224 -1.907356899778184 -1 0 0 I I #
point $-1 55.582750938444164 -31.684269910369224 -1.907356899778184 #
straight-curve $-1 55.582750938444164 -31.684269910369224 -0.087666016764273991 0 0 -1 I I #
End-of-ACIS-data 