500 0 12 0           
7 Unknown 11 ACIS 5.0 NT 24 Fri Mar 26 18:32:17 1999 
-1 9.9999999999999995e-007 1e-010 
body $-1 $12 $-1 $13 #
body $-1 $14 $-1 $15 #
body $-1 $16 $-1 $17 #
body $-1 $18 $-1 $19 #
body $-1 $20 $-1 $21 #
body $-1 $22 $-1 $23 #
body $-1 $24 $-1 $25 #
body $-1 $26 $-1 $27 #
body $-1 $28 $-1 $29 #
body $-1 $30 $-1 $31 #
body $-1 $32 $-1 $33 #
body $-1 $34 $-1 $35 #
lump $-1 $-1 $36 $0 #
transform $-1 1 0 0 0 1 0 0 0 1 56.748558000427259 32.378388808770644 11.30056856272661 1 rotate no_reflect no_shear #
lump $-1 $-1 $37 $1 #
transform $-1 1 0 0 0 1 0 0 0 1 56.748558000427259 32.378388808770644 11.30056856272661 1 rotate no_reflect no_shear #
lump $-1 $-1 $38 $2 #
transform $-1 1 0 0 0 1 0 0 0 1 56.748558000427259 32.378388808770644 11.30056856272661 1 rotate no_reflect no_shear #
lump $-1 $-1 $39 $3 #
transform $-1 1 0 0 0 1 0 0 0 1 56.748558000427259 32.378388808770644 11.30056856272661 1 rotate no_reflect no_shear #
lump $-1 $-1 $40 $4 #
transform $-1 1 0 0 0 1 0 0 0 1 56.748558000427259 32.378388808770644 11.30056856272661 1 rotate no_reflect no_shear #
lump $-1 $-1 $41 $5 #
transform $-1 1 0 0 0 1 0 0 0 1 56.748558000427259 32.378388808770644 11.30056856272661 1 rotate no_reflect no_shear #
lump $-1 $-1 $42 $6 #
transform $-1 1 0 0 0 1 0 0 0 1 56.748558000427259 32.378388808770644 11.30056856272661 1 rotate no_reflect no_shear #
lump $-1 $-1 $43 $7 #
transform $-1 1 0 0 0 1 0 0 0 1 56.748558000427259 32.378388808770644 11.30056856272661 1 rotate no_reflect no_shear #
lump $-1 $-1 $44 $8 #
transform $-1 1 0 0 0 1 0 0 0 1 56.748558000427259 32.378388808770644 11.30056856272661 1 rotate no_reflect no_shear #
lump $-1 $-1 $45 $9 #
transform $-1 1 0 0 0 1 0 0 0 1 56.748558000427259 32.378388808770644 11.30056856272661 1 rotate no_reflect no_shear #
lump $-1 $-1 $46 $10 #
transform $-1 1 0 0 0 1 0 0 0 1 56.748558000427259 32.378388808770644 11.30056856272661 1 rotate no_reflect no_shear #
lump $-1 $-1 $47 $11 #
transform $-1 1 0 0 0 1 0 0 0 1 56.748558000427259 32.378388808770644 11.30056856272661 1 rotate no_reflect no_shear #
shell $-1 $-1 $-1 $48 $-1 $12 #
shell $-1 $-1 $-1 $49 $-1 $14 #
shell $-1 $-1 $-1 $50 $-1 $16 #
shell $-1 $-1 $-1 $51 $-1 $18 #
shell $-1 $-1 $-1 $52 $-1 $20 #
shell $-1 $-1 $-1 $53 $-1 $22 #
shell $-1 $-1 $-1 $54 $-1 $24 #
shell $-1 $-1 $-1 $55 $-1 $26 #
shell $-1 $-1 $-1 $56 $-1 $28 #
shell $-1 $-1 $-1 $57 $-1 $30 #
shell $-1 $-1 $-1 $58 $-1 $32 #
shell $-1 $-1 $-1 $59 $-1 $34 #
face $-1 $60 $61 $36 $-1 $62 forward single #
face $-1 $63 $64 $37 $-1 $65 reversed single #
face $-1 $66 $67 $38 $-1 $68 reversed single #
face $-1 $69 $70 $39 $-1 $71 forward single #
face $-1 $72 $73 $40 $-1 $74 reversed single #
face $-1 $75 $76 $41 $-1 $77 forward single #
face $-1 $78 $79 $42 $-1 $80 forward single #
face $-1 $81 $82 $43 $-1 $83 forward single #
face $-1 $84 $85 $44 $-1 $86 reversed single #
face $-1 $87 $88 $45 $-1 $89 forward single #
face $-1 $90 $91 $46 $-1 $92 forward single #
face $-1 $93 $94 $47 $-1 $95 forward single #
face $-1 $96 $97 $36 $-1 $98 reversed single #
loop $-1 $-1 $99 $48 #
plane-surface $-1 0 0 11.30056856272661 0 0 1 1 0 0 forward_v I I I I #
face $-1 $100 $101 $37 $-1 $102 reversed single #
loop $-1 $-1 $103 $49 #
plane-surface $-1 -37.647420874974038 -28.176437567324626 0 1 0 0 0 0 -1 forward_v I I I I #
face $-1 $104 $105 $38 $-1 $106 reversed single #
loop $-1 $-1 $107 $50 #
plane-surface $-1 15.205731487084527 -3.110532154752832 162.31861576281597 0 -1 0 -0.50000000669873634 0 -0.8660253999169214 forward_v I I I I #
face $-1 $108 $109 $39 $-1 $110 forward single #
loop $-1 $111 $112 $51 #
cone-surface $-1 51.402734944568365 -8.9336018916109055 6.0632282062558396 -0.50000000669873634 0 -0.8660253999169214 1.7320507998338428 0 -1.0000000133974727 1 I I 0 1 2 forward I I I I #
face $-1 $113 $114 $40 $-1 $115 reversed single #
loop $-1 $-1 $116 $52 #
plane-surface $-1 -149.71995351659811 -2.5733743971380214 67.696823345856856 0 1 0 -0.81915205242281985 0 0.57357642473473569 forward_v I I I I #
face $-1 $117 $118 $41 $-1 $119 forward single #
loop $-1 $120 $121 $53 #
cone-surface $-1 -53.097372834371079 -1.2183092694212156 6.5259767838617631 0.81915205242281985 0 -0.57357642473473569 0.28678821236736785 0 0.40957602621140993 1 I I 0 1 0.5 forward I I I I #
face $-1 $122 $123 $42 $-1 $124 forward single #
loop $-1 $125 $126 $54 #
cone-surface $-1 -53.097372834371079 0.8142884221540001 6.5259767838617631 0.81915205242281985 0 -0.57357642473473569 0.28678821236736785 0 0.40957602621140993 1 I I 0 1 0.5 forward I I I I #
face $-1 $127 $128 $43 $-1 $129 forward single #
loop $-1 $130 $131 $55 #
cone-surface $-1 -53.097372834371079 2.8468861137292123 6.5259767838617631 0.81915205242281985 0 -0.57357642473473569 0.28678821236736785 0 0.40957602621140993 1 I I 0 1 0.5 forward I I I I #
face $-1 $132 $133 $44 $-1 $134 reversed single #
loop $-1 $-1 $135 $56 #
plane-surface $-1 -149.71995351659811 25.603063170186605 67.696823345856856 0 1 0 -0.81915205242281985 0 0.57357642473473569 forward_v I I I I #
face $-1 $136 $137 $45 $-1 $138 forward single #
loop $-1 $139 $140 $57 #
cone-surface $-1 -53.097372834371079 26.958128297903407 6.5259767838617631 0.81915205242281985 0 -0.57357642473473569 0.28678821236736785 0 0.40957602621140993 1 I I 0 1 0.5 forward I I I I #
face $-1 $141 $142 $46 $-1 $143 forward single #
loop $-1 $144 $145 $58 #
cone-surface $-1 -53.097372834371079 28.990725989478626 6.5259767838617631 0.81915205242281985 0 -0.57357642473473569 0.28678821236736785 0 0.40957602621140993 1 I I 0 1 0.5 forward I I I I #
face $-1 $146 $147 $47 $-1 $148 forward single #
loop $-1 $149 $150 $59 #
cone-surface $-1 -53.097372834371079 31.023323681053839 6.5259767838617631 0.81915205242281985 0 -0.57357642473473569 0.28678821236736785 0 0.40957602621140993 1 I I 0 1 0.5 forward I I I I #
face $-1 $151 $152 $36 $-1 $153 reversed single #
loop $-1 $-1 $154 $60 #
plane-surface $-1 0 0 -11.30056856272661 0 0 1 1 0 0 forward_v I I I I #
coedge $-1 $155 $156 $157 $158 forward $61 $-1 #
face $-1 $159 $160 $37 $-1 $161 reversed single #
loop $-1 $-1 $162 $63 #
plane-surface $-1 -36.147420874974038 -23.974486325878608 0 0 -1 0 0 0 -1 forward_v I I I I #
coedge $-1 $163 $164 $165 $166 forward $64 $-1 #
face $-1 $167 $168 $38 $-1 $169 reversed single #
loop $-1 $-1 $170 $66 #
plane-surface $-1 -41.542827273629989 -8.9336018916109055 64.027230488758718 0.50000000669873634 0 0.8660253999169214 0.8660253999169214 0 -0.50000000669873634 forward_v I I I I #
coedge $-1 $171 $172 $173 $174 reversed $67 $-1 #
face $-1 $-1 $175 $39 $-1 $176 forward single #
loop $-1 $177 $178 $69 #
cone-surface $-1 49.039976650026937 -8.9336018916109055 1.9708108672093587 -0.50000000669873634 0 -0.8660253999169214 0.8660253999169214 0 -0.50000000669873634 1 I I -0.70710678118654746 0.70710678118654746 1 forward I I I I #
loop $-1 $-1 $179 $51 #
coedge $-1 $112 $112 $180 $181 reversed $70 $-1 #
face $-1 $182 $183 $40 $-1 $184 reversed single #
loop $-1 $-1 $185 $72 #
plane-surface $-1 -56.748558000427266 0.8142884221540001 2.597553332383157 -0.81915205242281985 0 0.57357642473473569 0.57357642473473569 0 0.81915205242281985 forward_v I I I I #
coedge $-1 $186 $187 $188 $189 reversed $73 $-1 #
face $-1 $-1 $190 $41 $-1 $191 forward single #
loop $-1 $192 $193 $75 #
cone-surface $-1 -52.288357997966123 -1.2183092694212156 5.9594985139849612 0.81915205242281985 0 -0.57357642473473569 0.14339410618368392 0 0.20478801310570496 1 I I -0.70710678118654746 0.70710678118654746 0.25 forward I I I I #
loop $-1 $-1 $194 $53 #
coedge $-1 $121 $121 $195 $196 reversed $76 $-1 #
face $-1 $-1 $197 $42 $-1 $198 forward single #
loop $-1 $199 $200 $78 #
cone-surface $-1 -52.288357997966123 0.8142884221540001 5.9594985139849612 0.81915205242281985 0 -0.57357642473473569 0.14339410618368392 0 0.20478801310570496 1 I I -0.70710678118654746 0.70710678118654746 0.25 forward I I I I #
loop $-1 $-1 $201 $54 #
coedge $-1 $126 $126 $202 $203 reversed $79 $-1 #
face $-1 $-1 $204 $43 $-1 $205 forward single #
loop $-1 $206 $207 $81 #
cone-surface $-1 -52.288357997966123 2.8468861137292123 5.9594985139849612 0.81915205242281985 0 -0.57357642473473569 0.14339410618368392 0 0.20478801310570496 1 I I -0.70710678118654746 0.70710678118654746 0.25 forward I I I I #
loop $-1 $-1 $208 $55 #
coedge $-1 $131 $131 $209 $210 reversed $82 $-1 #
face $-1 $211 $212 $44 $-1 $213 forward single #
loop $-1 $-1 $214 $84 #
plane-surface $-1 -56.748558000427266 28.990725989478626 2.597553332383157 -0.81915205242281985 0 0.57357642473473569 0.57357642473473569 0 0.81915205242281985 forward_v I I I I #
coedge $-1 $215 $216 $217 $218 reversed $85 $-1 #
face $-1 $-1 $219 $45 $-1 $220 forward single #
loop $-1 $221 $222 $87 #
cone-surface $-1 -52.288357997966123 26.958128297903407 5.9594985139849612 0.81915205242281985 0 -0.57357642473473569 0.14339410618368392 0 0.20478801310570496 1 I I -0.70710678118654746 0.70710678118654746 0.25 forward I I I I #
loop $-1 $-1 $223 $57 #
coedge $-1 $140 $140 $224 $225 reversed $88 $-1 #
face $-1 $-1 $226 $46 $-1 $227 forward single #
loop $-1 $228 $229 $90 #
cone-surface $-1 -52.288357997966123 28.990725989478626 5.9594985139849612 0.81915205242281985 0 -0.57357642473473569 0.14339410618368392 0 0.20478801310570496 1 I I -0.70710678118654746 0.70710678118654746 0.25 forward I I I I #
loop $-1 $-1 $230 $58 #
coedge $-1 $145 $145 $231 $232 reversed $91 $-1 #
face $-1 $-1 $233 $47 $-1 $234 forward single #
loop $-1 $235 $236 $93 #
cone-surface $-1 -52.288357997966123 31.023323681053839 5.9594985139849612 0.81915205242281985 0 -0.57357642473473569 0.14339410618368392 0 0.20478801310570496 1 I I -0.70710678118654746 0.70710678118654746 0.25 forward I I I I #
loop $-1 $-1 $237 $59 #
coedge $-1 $150 $150 $238 $239 reversed $94 $-1 #
face $-1 $240 $241 $36 $-1 $242 reversed single #
loop $-1 $-1 $243 $96 #
plane-surface $-1 0 -32.378388808770644 0 0 1 0 0 0 1 forward_v I I I I #
coedge $-1 $244 $245 $246 $247 forward $97 $-1 #
coedge $-1 $248 $99 $249 $250 forward $61 $-1 #
coedge $-1 $99 $248 $251 $252 forward $61 $-1 #
coedge $-1 $253 $254 $99 $158 reversed $255 $-1 #
edge $-1 $256 -32.378388808770644 $257 32.378388808770644 $157 $258 forward 7 unknown #
face $-1 $259 $260 $37 $-1 $261 forward single #
loop $-1 $-1 $262 $100 #
plane-surface $-1 -34.647420874974038 -28.176437567324626 0 -1 0 0 0 0 1 forward_v I I I I #
coedge $-1 $263 $264 $265 $266 forward $101 $-1 #
coedge $-1 $267 $103 $268 $269 reversed $64 $-1 #
coedge $-1 $103 $267 $270 $271 reversed $64 $-1 #
coedge $-1 $264 $263 $103 $166 reversed $101 $-1 #
edge $-1 $272 -11.30056856272661 $273 11.30056856272661 $165 $274 forward 7 unknown #
face $-1 $275 $276 $38 $-1 $277 reversed single #
loop $-1 $-1 $278 $104 #
plane-surface $-1 15.205731487084527 -14.756671628468979 162.31861576281597 0 1 0 0.50000000669873634 0 0.8660253999169214 forward_v I I I I #
coedge $-1 $279 $280 $281 $282 reversed $105 $-1 #
coedge $-1 $172 $107 $283 $284 reversed $67 $-1 #
coedge $-1 $107 $171 $279 $285 reversed $67 $-1 #
coedge $-1 $281 $286 $107 $174 forward $287 $-1 #
edge $-1 $288 -49.145692256884999 $289 -42.179562720852672 $173 $290 forward 7 unknown #
loop $-1 $-1 $180 $108 #
plane-surface $-1 -41.542827273629989 -8.9336018916109055 64.027230488758718 0.50000000669873634 0 0.8660253999169214 0.8660253999169214 0 -0.50000000669873634 forward_v I I I I #
loop $-1 $-1 $291 $69 #
coedge $-1 $178 $178 $179 $292 reversed $109 $-1 #
coedge $-1 $179 $179 $178 $292 forward $111 $-1 #
coedge $-1 $180 $180 $112 $181 forward $175 $-1 #
edge $-1 $293 0 $293 6.2831853071796004 $180 $294 forward 7 unknown #
face $-1 $295 $296 $40 $-1 $297 reversed single #
loop $-1 $-1 $298 $113 #
plane-surface $-1 -149.71995351659811 4.2019512414460216 67.696823345856856 0 -1 0 0.81915205242281985 0 -0.57357642473473569 forward_v I I I I #
coedge $-1 $299 $300 $301 $302 reversed $114 $-1 #
coedge $-1 $187 $116 $303 $304 reversed $73 $-1 #
coedge $-1 $116 $186 $299 $305 reversed $73 $-1 #
coedge $-1 $301 $306 $116 $189 forward $307 $-1 #
edge $-1 $308 18.111418757871796 $309 24.205335443385657 $188 $310 forward 7 unknown #
loop $-1 $-1 $195 $117 #
plane-surface $-1 -56.748558000427266 0.8142884221540001 2.597553332383157 -0.81915205242281985 0 0.57357642473473569 0.57357642473473569 0 0.81915205242281985 forward_v I I I I #
loop $-1 $-1 $311 $75 #
coedge $-1 $193 $193 $194 $312 reversed $118 $-1 #
coedge $-1 $194 $194 $193 $312 forward $120 $-1 #
coedge $-1 $195 $195 $121 $196 forward $190 $-1 #
edge $-1 $313 0 $313 6.2831853071796004 $195 $314 forward 7 unknown #
loop $-1 $-1 $202 $122 #
plane-surface $-1 -56.748558000427266 0.8142884221540001 2.597553332383157 -0.81915205242281985 0 0.57357642473473569 0.57357642473473569 0 0.81915205242281985 forward_v I I I I #
loop $-1 $-1 $315 $78 #
coedge $-1 $200 $200 $201 $316 reversed $123 $-1 #
coedge $-1 $201 $201 $200 $316 forward $125 $-1 #
coedge $-1 $202 $202 $126 $203 forward $197 $-1 #
edge $-1 $317 0 $317 6.2831853071796004 $202 $318 forward 7 unknown #
loop $-1 $-1 $209 $127 #
plane-surface $-1 -56.748558000427266 0.8142884221540001 2.597553332383157 -0.81915205242281985 0 0.57357642473473569 0.57357642473473569 0 0.81915205242281985 forward_v I I I I #
loop $-1 $-1 $319 $81 #
coedge $-1 $207 $207 $208 $320 reversed $128 $-1 #
coedge $-1 $208 $208 $207 $320 forward $130 $-1 #
coedge $-1 $209 $209 $131 $210 forward $204 $-1 #
edge $-1 $321 0 $321 6.2831853071796004 $209 $322 forward 7 unknown #
face $-1 $323 $324 $44 $-1 $325 reversed single #
loop $-1 $-1 $217 $132 #
plane-surface $-1 0 0 11.30056856272661 0 0 1 1 0 0 forward_v I I I I #
coedge $-1 $326 $327 $328 $329 reversed $133 $-1 #
coedge $-1 $216 $135 $330 $331 reversed $85 $-1 #
coedge $-1 $135 $215 $326 $332 reversed $85 $-1 #
coedge $-1 $328 $333 $135 $218 forward $212 $-1 #
edge $-1 $334 18.111418757871796 $335 24.205335443385657 $217 $336 forward 7 unknown #
loop $-1 $-1 $224 $136 #
plane-surface $-1 -56.748558000427266 28.990725989478626 2.597553332383157 -0.81915205242281985 0 0.57357642473473569 0.57357642473473569 0 0.81915205242281985 forward_v I I I I #
loop $-1 $-1 $337 $87 #
coedge $-1 $222 $222 $223 $338 reversed $137 $-1 #
coedge $-1 $223 $223 $222 $338 forward $139 $-1 #
coedge $-1 $224 $224 $140 $225 forward $219 $-1 #
edge $-1 $339 0 $339 6.2831853071796004 $224 $340 forward 7 unknown #
loop $-1 $-1 $231 $141 #
plane-surface $-1 -56.748558000427266 28.990725989478626 2.597553332383157 -0.81915205242281985 0 0.57357642473473569 0.57357642473473569 0 0.81915205242281985 forward_v I I I I #
loop $-1 $-1 $341 $90 #
coedge $-1 $229 $229 $230 $342 reversed $142 $-1 #
coedge $-1 $230 $230 $229 $342 forward $144 $-1 #
coedge $-1 $231 $231 $145 $232 forward $226 $-1 #
edge $-1 $343 0 $343 6.2831853071796004 $231 $344 forward 7 unknown #
loop $-1 $-1 $238 $146 #
plane-surface $-1 -56.748558000427266 28.990725989478626 2.597553332383157 -0.81915205242281985 0 0.57357642473473569 0.57357642473473569 0 0.81915205242281985 forward_v I I I I #
loop $-1 $-1 $345 $93 #
coedge $-1 $236 $236 $237 $346 reversed $147 $-1 #
coedge $-1 $237 $237 $236 $346 forward $149 $-1 #
coedge $-1 $238 $238 $150 $239 forward $233 $-1 #
edge $-1 $347 0 $347 6.2831853071796004 $238 $348 forward 7 unknown #
face $-1 $349 $350 $36 $-1 $351 reversed single #
loop $-1 $-1 $352 $151 #
plane-surface $-1 -56.748558000427259 0 0 1 0 0 0 0 -1 forward_v I I I I #
coedge $-1 $353 $251 $354 $355 forward $152 $-1 #
coedge $-1 $356 $154 $353 $357 forward $97 $-1 #
coedge $-1 $154 $356 $358 $359 forward $97 $-1 #
coedge $-1 $254 $253 $154 $247 reversed $255 $-1 #
edge $-1 $360 -32.378388808770644 $361 32.378388808770644 $246 $362 forward 7 unknown #
coedge $-1 $156 $155 $363 $364 forward $61 $-1 #
coedge $-1 $365 $366 $155 $250 reversed $350 $-1 #
edge $-1 $257 -56.748558000427259 $367 56.748558000427259 $249 $368 forward 7 unknown #
coedge $-1 $243 $369 $156 $252 reversed $152 $-1 #
edge $-1 $370 -56.748558000427259 $256 56.748558000427259 $251 $371 forward 7 unknown #
coedge $-1 $246 $157 $369 $372 forward $255 $-1 #
coedge $-1 $157 $246 $365 $373 reversed $255 $-1 #
loop $-1 $-1 $253 $349 #
vertex $-1 $158 $374 #
vertex $-1 $158 $375 #
straight-curve $-1 56.748558000427259 0 11.30056856272661 0 1 0 I I #
face $-1 $376 $377 $37 $-1 $378 reversed single #
loop $-1 $-1 $379 $159 #
plane-surface $-1 0 0 11.30056856272661 0 0 1 1 0 0 forward_v I I I I #
coedge $-1 $380 $381 $382 $383 reversed $160 $-1 #
coedge $-1 $165 $162 $384 $385 reversed $101 $-1 #
coedge $-1 $162 $165 $386 $387 reversed $101 $-1 #
coedge $-1 $381 $380 $162 $266 reversed $160 $-1 #
edge $-1 $388 -11.30056856272661 $389 11.30056856272661 $265 $390 forward 7 unknown #
coedge $-1 $164 $163 $391 $392 reversed $64 $-1 #
coedge $-1 $384 $393 $163 $269 forward $377 $-1 #
edge $-1 $394 -18.290170025108331 $273 -9.8862675422162951 $268 $395 forward 7 unknown #
coedge $-1 $396 $386 $164 $271 forward $260 $-1 #
edge $-1 $272 9.8862675422162951 $397 18.290170025108331 $270 $398 forward 7 unknown #
vertex $-1 $271 $399 #
vertex $-1 $269 $400 #
straight-curve $-1 -37.647420874974038 -23.974486325878608 0 0 0 -1 I I #
face $-1 $-1 $287 $38 $-1 $401 forward single #
loop $-1 $-1 $402 $167 #
plane-surface $-1 56.748558000427259 0 0 -1 0 0 0 0 1 forward_v I I I I #
coedge $-1 $403 $404 $405 $406 reversed $168 $-1 #
coedge $-1 $407 $170 $172 $285 forward $105 $-1 #
coedge $-1 $170 $407 $403 $408 forward $105 $-1 #
coedge $-1 $405 $173 $170 $282 forward $287 $-1 #
edge $-1 $289 -1.3562687910526208 $409 10.289870682663526 $281 $410 forward 7 unknown #
coedge $-1 $411 $412 $171 $284 forward $276 $-1 #
edge $-1 $413 -73.880636153363781 $288 -69.858739318681373 $283 $414 forward 7 unknown #
edge $-1 $289 105.45332243925623 $413 113.4971160008545 $172 $415 forward 7 unknown #
coedge $-1 $173 $405 $411 $416 forward $287 $-1 #
loop $-1 $-1 $405 $275 #
vertex $-1 $284 $417 #
vertex $-1 $174 $418 #
straight-curve $-1 7.6028657435422637 -3.110532154752832 11.30056856272661 -1 0 0 I I #
coedge $-1 $291 $291 $-1 $419 reversed $177 $-1 #
edge $-1 $420 0 $420 6.2831853071796004 $178 $421 forward 7 unknown #
vertex $-1 $181 $422 #
ellipse-curve $-1 53.265493232411067 -8.9336018916109055 9.2896201453854168 0.50000000669873634 0 0.8660253999169214 1.7320507998338428 0 -1.0000000133974727 1 I I #
face $-1 $-1 $307 $40 $-1 $423 forward single #
loop $-1 $-1 $424 $182 #
plane-surface $-1 -56.748558000427259 0 0 1 0 0 0 0 -1 forward_v I I I I #
coedge $-1 $425 $426 $427 $428 reversed $183 $-1 #
coedge $-1 $429 $185 $187 $305 forward $114 $-1 #
coedge $-1 $185 $429 $425 $430 forward $114 $-1 #
coedge $-1 $427 $188 $185 $302 forward $307 $-1 #
edge $-1 $309 -2.9805186082150215 $431 3.7948070303690216 $301 $432 forward 7 unknown #
coedge $-1 $433 $434 $186 $304 forward $296 $-1 #
edge $-1 $435 -31.25085834054526 $308 -22.547843110201818 $303 $436 forward 7 unknown #
edge $-1 $309 -10.624419733311296 $435 -1.2442367137257826e-014 $187 $437 forward 7 unknown #
coedge $-1 $188 $427 $433 $438 forward $307 $-1 #
loop $-1 $-1 $427 $295 #
vertex $-1 $304 $439 #
vertex $-1 $189 $440 #
straight-curve $-1 -74.859976758299055 -2.5733743971380214 11.30056856272661 1 0 0 I I #
coedge $-1 $311 $311 $-1 $441 reversed $192 $-1 #
edge $-1 $442 0 $442 6.2831853071796004 $193 $443 forward 7 unknown #
vertex $-1 $196 $444 #
ellipse-curve $-1 -53.701599657670336 -1.2183092694212156 6.9490609475548855 -0.81915205242281985 0 0.57357642473473569 0.28678821236736785 0 0.40957602621140993 1 I I #
coedge $-1 $315 $315 $-1 $445 reversed $199 $-1 #
edge $-1 $446 0 $446 6.2831853071796004 $200 $447 forward 7 unknown #
vertex $-1 $203 $448 #
ellipse-curve $-1 -53.701599657670336 0.8142884221540001 6.9490609475548855 -0.81915205242281985 0 0.57357642473473569 0.28678821236736785 0 0.40957602621140993 1 I I #
coedge $-1 $319 $319 $-1 $449 reversed $206 $-1 #
edge $-1 $450 0 $450 6.2831853071796004 $207 $451 forward 7 unknown #
vertex $-1 $210 $452 #
ellipse-curve $-1 -53.701599657670336 2.8468861137292123 6.9490609475548855 -0.81915205242281985 0 0.57357642473473569 0.28678821236736785 0 0.40957602621140993 1 I I #
face $-1 $-1 $453 $44 $-1 $454 reversed single #
loop $-1 $-1 $455 $211 #
plane-surface $-1 0 32.378388808770644 0 0 -1 0 0 0 -1 forward_v I I I I #
coedge $-1 $456 $214 $216 $332 forward $133 $-1 #
coedge $-1 $214 $456 $455 $457 reversed $133 $-1 #
coedge $-1 $458 $217 $214 $329 forward $212 $-1 #
edge $-1 $335 11.107700175447292 $459 17.883025814031338 $328 $460 forward 7 unknown #
coedge $-1 $461 $462 $215 $331 forward $453 $-1 #
edge $-1 $463 -31.25085834054526 $334 -22.547843110201818 $330 $464 forward 7 unknown #
edge $-1 $335 -10.624419733311296 $463 -1.2442367137257826e-014 $216 $465 forward 7 unknown #
coedge $-1 $217 $458 $461 $466 forward $212 $-1 #
vertex $-1 $331 $467 #
vertex $-1 $218 $468 #
straight-curve $-1 -74.859976758299055 25.603063170186605 11.30056856272661 1 0 0 I I #
coedge $-1 $337 $337 $-1 $469 reversed $221 $-1 #
edge $-1 $470 0 $470 6.2831853071796004 $222 $471 forward 7 unknown #
vertex $-1 $225 $472 #
ellipse-curve $-1 -53.701599657670336 26.958128297903407 6.9490609475548855 -0.81915205242281985 0 0.57357642473473569 0.28678821236736785 0 0.40957602621140993 1 I I #
coedge $-1 $341 $341 $-1 $473 reversed $228 $-1 #
edge $-1 $474 0 $474 6.2831853071796004 $229 $475 forward 7 unknown #
vertex $-1 $232 $476 #
ellipse-curve $-1 -53.701599657670336 28.990725989478626 6.9490609475548855 -0.81915205242281985 0 0.57357642473473569 0.28678821236736785 0 0.40957602621140993 1 I I #
coedge $-1 $345 $345 $-1 $477 reversed $235 $-1 #
edge $-1 $478 0 $478 6.2831853071796004 $236 $479 forward 7 unknown #
vertex $-1 $239 $480 #
ellipse-curve $-1 -53.701599657670336 31.023323681053839 6.9490609475548855 -0.81915205242281985 0 0.57357642473473569 0.28678821236736785 0 0.40957602621140993 1 I I #
face $-1 $-1 $255 $36 $-1 $481 reversed single #
loop $-1 $-1 $365 $240 #
plane-surface $-1 0 32.378388808770644 0 0 -1 0 0 0 -1 forward_v I I I I #
coedge $-1 $482 $363 $366 $483 forward $241 $-1 #
coedge $-1 $369 $243 $244 $357 reversed $152 $-1 #
coedge $-1 $363 $482 $243 $355 reversed $241 $-1 #
edge $-1 $370 -11.30056856272661 $484 11.30056856272661 $354 $485 forward 7 unknown #
coedge $-1 $245 $244 $482 $486 forward $97 $-1 #
edge $-1 $361 -56.748558000427259 $484 56.748558000427259 $353 $487 forward 7 unknown #
coedge $-1 $366 $365 $245 $359 reversed $350 $-1 #
edge $-1 $488 -56.748558000427259 $360 56.748558000427259 $358 $489 forward 7 unknown #
vertex $-1 $247 $490 #
vertex $-1 $372 $491 #
straight-curve $-1 56.748558000427259 0 -11.30056856272661 0 -1 0 I I #
coedge $-1 $352 $354 $248 $364 reversed $241 $-1 #
edge $-1 $367 -32.378388808770644 $370 32.378388808770644 $363 $492 forward 7 unknown #
coedge $-1 $358 $249 $254 $373 forward $350 $-1 #
coedge $-1 $249 $358 $352 $483 reversed $350 $-1 #
vertex $-1 $250 $493 #
straight-curve $-1 0 32.378388808770644 11.30056856272661 -1 0 0 I I #
coedge $-1 $251 $353 $253 $372 reversed $152 $-1 #
vertex $-1 $364 $494 #
straight-curve $-1 0 -32.378388808770644 11.30056856272661 1 0 0 I I #
edge $-1 $256 -11.30056856272661 $361 11.30056856272661 $253 $495 forward 7 unknown #
edge $-1 $257 -11.30056856272661 $360 11.30056856272661 $254 $496 forward 7 unknown #
point $-1 56.748558000427259 -32.378388808770644 11.30056856272661 #
point $-1 56.748558000427259 32.378388808770644 11.30056856272661 #
face $-1 $-1 $497 $37 $-1 $498 reversed single #
loop $-1 $-1 $499 $259 #
plane-surface $-1 0 0 -11.30056856272661 0 0 1 1 0 0 forward_v I I I I #
coedge $-1 $386 $396 $381 $500 forward $260 $-1 #
coedge $-1 $265 $262 $499 $501 reversed $160 $-1 #
coedge $-1 $262 $265 $379 $500 reversed $160 $-1 #
coedge $-1 $502 $503 $262 $383 forward $497 $-1 #
edge $-1 $504 -11.30056856272661 $505 11.30056856272661 $382 $506 forward 7 unknown #
coedge $-1 $499 $268 $263 $385 forward $377 $-1 #
edge $-1 $273 -19.573710437487019 $389 -16.573710437487019 $384 $507 forward 7 unknown #
coedge $-1 $270 $379 $264 $387 forward $260 $-1 #
edge $-1 $388 16.573710437487019 $272 19.573710437487019 $386 $508 forward 7 unknown #
vertex $-1 $387 $509 #
vertex $-1 $385 $510 #
straight-curve $-1 -34.647420874974038 -23.974486325878608 0 0 0 -1 I I #
coedge $-1 $503 $502 $267 $392 forward $497 $-1 #
edge $-1 $397 -11.30056856272661 $394 11.30056856272661 $391 $511 forward 7 unknown #
coedge $-1 $268 $499 $503 $512 forward $377 $-1 #
vertex $-1 $269 $513 #
straight-curve $-1 -37.647420874974038 -14.088218783662313 -11.30056856272661 0 1 0 I I #
coedge $-1 $379 $270 $502 $514 forward $260 $-1 #
vertex $-1 $514 $515 #
straight-curve $-1 -37.647420874974038 -14.088218783662313 11.30056856272661 0 -1 0 I I #
point $-1 -37.647420874974038 -23.974486325878608 11.30056856272661 #
point $-1 -37.647420874974038 -23.974486325878608 -11.30056856272661 #
plane-surface $-1 0 0 11.30056856272661 0 0 1 1 0 0 forward_v I I I I #
coedge $-1 $412 $411 $404 $516 forward $276 $-1 #
coedge $-1 $404 $278 $280 $408 reversed $168 $-1 #
coedge $-1 $278 $403 $402 $516 reversed $168 $-1 #
coedge $-1 $286 $281 $278 $406 forward $287 $-1 #
edge $-1 $409 42.179562720852672 $517 49.145692256884999 $405 $518 forward 7 unknown #
coedge $-1 $280 $279 $412 $519 reversed $105 $-1 #
edge $-1 $520 -113.4971160008545 $409 -105.45332243925623 $403 $521 forward 7 unknown #
vertex $-1 $282 $522 #
straight-curve $-1 49.782428464394918 -4.4668009458054527 11.300568562726617 0 -1 0 I I #
coedge $-1 $402 $283 $286 $416 reversed $276 $-1 #
coedge $-1 $283 $402 $407 $519 forward $276 $-1 #
vertex $-1 $284 $523 #
straight-curve $-1 56.748558000427259 -3.110532154752832 81.159307881407983 0 0 1 I I #
straight-curve $-1 -41.542827273629989 -3.110532154752832 64.027230488758718 0.8660253999169214 0 -0.50000000669873634 I I #
edge $-1 $517 -14.756671628468979 $288 -3.110532154752832 $411 $524 forward 7 unknown #
point $-1 56.748558000427259 -3.110532154752832 11.30056856272661 #
point $-1 49.782428464394933 -3.110532154752832 11.30056856272661 #
edge $-1 $525 1 $525 0 $291 $-1 forward 7 unknown #
vertex $-1 $292 $526 #
ellipse-curve $-1 49.539976656725671 -8.9336018916109055 2.8368362671262801 0.50000000669873634 0 0.8660253999169214 1.7320507998338428 0 -1.0000000133974727 1 I I #
point $-1 54.997544032244903 -8.9336018916109055 8.2896201319879275 #
plane-surface $-1 0 0 11.30056856272661 0 0 1 1 0 0 forward_v I I I I #
coedge $-1 $434 $433 $426 $527 forward $296 $-1 #
coedge $-1 $426 $298 $300 $430 reversed $183 $-1 #
coedge $-1 $298 $425 $424 $527 reversed $183 $-1 #
coedge $-1 $306 $301 $298 $428 forward $307 $-1 #
edge $-1 $431 -24.205335443385657 $528 -18.111418757871796 $427 $529 forward 7 unknown #
coedge $-1 $300 $299 $434 $530 reversed $114 $-1 #
edge $-1 $531 1.2442367137257826e-014 $431 10.624419733311296 $425 $532 forward 7 unknown #
vertex $-1 $302 $533 #
straight-curve $-1 -50.654641314913405 0.40714421107700005 11.30056856272661 0 1 0 I I #
coedge $-1 $424 $303 $306 $438 reversed $296 $-1 #
coedge $-1 $303 $424 $429 $530 forward $296 $-1 #
vertex $-1 $304 $534 #
straight-curve $-1 -56.748558000427259 -2.5733743971380214 33.848411672928428 0 0 1 I I #
straight-curve $-1 -56.748558000427266 -2.5733743971380214 2.597553332383157 -0.57357642473473569 0 -0.81915205242281985 I I #
edge $-1 $528 -4.2019512414460216 $308 2.5733743971380214 $433 $535 forward 7 unknown #
point $-1 -56.748558000427259 -2.5733743971380214 11.30056856272661 #
point $-1 -50.654641314913398 -2.5733743971380214 11.30056856272661 #
edge $-1 $536 1 $536 0 $311 $-1 forward 7 unknown #
vertex $-1 $312 $537 #
ellipse-curve $-1 -52.493146011071829 -1.2183092694212156 6.1028926201686451 -0.81915205242281985 0 0.57357642473473569 0.28678821236736785 0 0.40957602621140993 1 I I #
point $-1 -53.414811445302959 -1.2183092694212156 7.3586369737662904 #
edge $-1 $538 1 $538 0 $315 $-1 forward 7 unknown #
vertex $-1 $316 $539 #
ellipse-curve $-1 -52.493146011071829 0.8142884221540001 6.1028926201686451 -0.81915205242281985 0 0.57357642473473569 0.28678821236736785 0 0.40957602621140993 1 I I #
point $-1 -53.414811445302959 0.8142884221540001 7.3586369737662904 #
edge $-1 $540 1 $540 0 $319 $-1 forward 7 unknown #
vertex $-1 $320 $541 #
ellipse-curve $-1 -52.493146011071829 2.8468861137292123 6.1028926201686451 -0.81915205242281985 0 0.57357642473473569 0.28678821236736785 0 0.40957602621140993 1 I I #
point $-1 -53.414811445302959 2.8468861137292123 7.3586369737662904 #
loop $-1 $-1 $330 $323 #
plane-surface $-1 -56.748558000427259 0 0 1 0 0 0 0 -1 forward_v I I I I #
coedge $-1 $542 $543 $327 $457 forward $324 $-1 #
coedge $-1 $327 $326 $462 $544 reversed $133 $-1 #
edge $-1 $459 4.5865021983074321 $545 15.210921931618714 $455 $546 forward 7 unknown #
coedge $-1 $333 $328 $543 $547 forward $212 $-1 #
vertex $-1 $547 $548 #
straight-curve $-1 -50.654641314913405 14.495362994739313 11.30056856272661 0 1 0 I I #
coedge $-1 $549 $330 $333 $466 reversed $453 $-1 #
coedge $-1 $330 $549 $456 $544 forward $453 $-1 #
vertex $-1 $331 $550 #
straight-curve $-1 -56.748558000427259 25.603063170186605 33.848411672928428 0 0 1 I I #
straight-curve $-1 -56.748558000427266 25.603063170186605 2.597553332383157 -0.57357642473473569 0 -0.81915205242281985 I I #
edge $-1 $551 -32.378388808770644 $334 -25.603063170186605 $461 $552 forward 7 unknown #
point $-1 -56.748558000427259 25.603063170186605 11.30056856272661 #
point $-1 -50.654641314913398 25.603063170186605 11.30056856272661 #
edge $-1 $553 1 $553 0 $337 $-1 forward 7 unknown #
vertex $-1 $338 $554 #
ellipse-curve $-1 -52.493146011071829 26.958128297903407 6.1028926201686451 -0.81915205242281985 0 0.57357642473473569 0.28678821236736785 0 0.40957602621140993 1 I I #
point $-1 -53.414811445302959 26.958128297903407 7.3586369737662904 #
edge $-1 $555 1 $555 0 $341 $-1 forward 7 unknown #
vertex $-1 $342 $556 #
ellipse-curve $-1 -52.493146011071829 28.990725989478626 6.1028926201686451 -0.81915205242281985 0 0.57357642473473569 0.28678821236736785 0 0.40957602621140993 1 I I #
point $-1 -53.414811445302959 28.990725989478626 7.3586369737662904 #
edge $-1 $557 1 $557 0 $345 $-1 forward 7 unknown #
vertex $-1 $346 $558 #
ellipse-curve $-1 -52.493146011071829 31.023323681053839 6.1028926201686451 -0.81915205242281985 0 0.57357642473473569 0.28678821236736785 0 0.40957602621140993 1 I I #
point $-1 -53.414811445302959 31.023323681053839 7.3586369737662904 #
plane-surface $-1 56.748558000427259 0 0 -1 0 0 0 0 1 forward_v I I I I #
coedge $-1 $354 $352 $356 $486 reversed $241 $-1 #
edge $-1 $367 -11.30056856272661 $488 11.30056856272661 $366 $559 forward 7 unknown #
vertex $-1 $486 $560 #
straight-curve $-1 -56.748558000427259 -32.378388808770644 0 0 0 -1 I I #
edge $-1 $484 -32.378388808770644 $488 32.378388808770644 $482 $561 forward 7 unknown #
straight-curve $-1 0 -32.378388808770644 -11.30056856272661 -1 0 0 I I #
vertex $-1 $359 $562 #
straight-curve $-1 0 32.378388808770644 -11.30056856272661 1 0 0 I I #
point $-1 56.748558000427259 32.378388808770644 -11.30056856272661 #
point $-1 56.748558000427259 -32.378388808770644 -11.30056856272661 #
straight-curve $-1 -56.748558000427259 0 11.30056856272661 0 -1 0 I I #
point $-1 -56.748558000427259 32.378388808770644 11.30056856272661 #
point $-1 -56.748558000427259 -32.378388808770644 11.30056856272661 #
straight-curve $-1 56.748558000427259 -32.378388808770644 0 0 0 -1 I I #
straight-curve $-1 56.748558000427259 32.378388808770644 0 0 0 -1 I I #
loop $-1 $-1 $382 $376 #
plane-surface $-1 0 -32.378388808770644 0 0 1 0 0 0 1 forward_v I I I I #
coedge $-1 $393 $384 $380 $501 forward $377 $-1 #
edge $-1 $505 -18.290170025108331 $388 -9.8862675422162951 $379 $563 forward 7 unknown #
edge $-1 $389 9.8862675422162951 $504 18.290170025108331 $499 $564 forward 7 unknown #
coedge $-1 $391 $382 $396 $514 reversed $497 $-1 #
coedge $-1 $382 $391 $393 $512 reversed $497 $-1 #
vertex $-1 $512 $565 #
vertex $-1 $383 $566 #
straight-curve $-1 -34.647420874974038 -32.378388808770644 0 0 0 1 I I #
straight-curve $-1 -18.073710437487019 -23.974486325878608 -11.30056856272661 1 0 0 I I #
straight-curve $-1 -18.073710437487019 -23.974486325878608 11.30056856272661 -1 0 0 I I #
point $-1 -34.647420874974038 -23.974486325878608 11.30056856272661 #
point $-1 -34.647420874974038 -23.974486325878608 -11.30056856272661 #
straight-curve $-1 -37.647420874974038 -32.378388808770644 0 0 0 -1 I I #
edge $-1 $504 34.647420874974038 $394 37.647420874974038 $503 $567 forward 7 unknown #
point $-1 -37.647420874974038 -32.378388808770644 -11.30056856272661 #
edge $-1 $397 -37.647420874974038 $505 -34.647420874974038 $502 $568 forward 7 unknown #
point $-1 -37.647420874974038 -32.378388808770644 11.30056856272661 #
edge $-1 $517 69.858739318681373 $520 73.880636153363781 $402 $569 forward 7 unknown #
vertex $-1 $416 $570 #
straight-curve $-1 7.6028657435422637 -14.756671628468979 11.30056856272661 1 0 0 I I #
edge $-1 $520 -10.289870682663526 $413 1.3562687910526208 $412 $571 forward 7 unknown #
vertex $-1 $519 $572 #
straight-curve $-1 -41.542827273629989 -14.756671628468979 64.027230488758718 -0.8660253999169214 0 0.50000000669873634 I I #
point $-1 49.782428464394933 -14.756671628468979 11.30056856272661 #
point $-1 56.748558000427259 -3.110532154752832 7.2786717280442019 #
straight-curve $-1 56.748558000427259 0 11.30056856272661 0 1 0 I I #
vertex $-1 $419 $573 #
point $-1 51.272027456559513 -8.9336018916109055 1.8368362537288074 #
edge $-1 $528 22.547843110201818 $531 31.25085834054526 $424 $574 forward 7 unknown #
vertex $-1 $438 $575 #
straight-curve $-1 -74.859976758299055 4.2019512414460216 11.30056856272661 -1 0 0 I I #
edge $-1 $531 -3.7948070303690216 $435 2.9805186082150215 $434 $576 forward 7 unknown #
vertex $-1 $530 $577 #
straight-curve $-1 -56.748558000427266 4.2019512414460216 2.597553332383157 0.57357642473473569 0 0.81915205242281985 I I #
point $-1 -50.654641314913398 4.2019512414460216 11.30056856272661 #
point $-1 -56.748558000427259 -2.5733743971380214 2.5975533323831672 #
straight-curve $-1 -56.748558000427259 0 11.30056856272661 0 -1 0 I I #
vertex $-1 $441 $578 #
point $-1 -52.20635779870446 -1.2183092694212156 6.5124686463800554 #
vertex $-1 $445 $579 #
point $-1 -52.20635779870446 0.8142884221540001 6.5124686463800554 #
vertex $-1 $449 $580 #
point $-1 -52.20635779870446 2.8468861137292123 6.5124686463800554 #
coedge $-1 $543 $455 $549 $581 reversed $324 $-1 #
coedge $-1 $455 $542 $458 $547 reversed $324 $-1 #
edge $-1 $545 -17.883025814031338 $463 -11.107700175447292 $462 $582 forward 7 unknown #
vertex $-1 $457 $583 #
straight-curve $-1 -48.023931781970219 32.378388808770644 15.05761125191192 -0.57357642473473569 0 -0.81915205242281985 I I #
edge $-1 $459 50.654641314913398 $551 56.748558000427259 $543 $584 forward 7 unknown #
point $-1 -50.654641314913398 32.378388808770652 11.30056856272661 #
coedge $-1 $462 $461 $542 $581 forward $453 $-1 #
point $-1 -56.748558000427259 25.603063170186605 2.5975533323831672 #
vertex $-1 $547 $585 #
straight-curve $-1 -56.748558000427259 0 11.30056856272661 0 -1 0 I I #
vertex $-1 $469 $586 #
point $-1 -52.20635779870446 26.958128297903407 6.5124686463800554 #
vertex $-1 $473 $587 #
point $-1 -52.20635779870446 28.990725989478626 6.5124686463800554 #
vertex $-1 $477 $588 #
point $-1 -52.20635779870446 31.023323681053839 6.5124686463800554 #
straight-curve $-1 -56.748558000427259 32.378388808770644 0 0 0 -1 I I #
point $-1 -56.748558000427259 -32.378388808770644 -11.30056856272661 #
straight-curve $-1 -56.748558000427259 0 -11.30056856272661 0 1 0 I I #
point $-1 -56.748558000427259 32.378388808770644 -11.30056856272661 #
straight-curve $-1 -34.647420874974038 -14.088218783662313 11.30056856272661 0 1 0 I I #
straight-curve $-1 -34.647420874974038 -14.088218783662313 -11.30056856272661 0 -1 0 I I #
point $-1 -34.647420874974038 -32.378388808770644 -11.30056856272661 #
point $-1 -34.647420874974038 -32.378388808770644 11.30056856272661 #
straight-curve $-1 0 -32.378388808770644 -11.30056856272661 -1 0 0 I I #
straight-curve $-1 0 -32.378388808770644 11.30056856272661 1 0 0 I I #
straight-curve $-1 56.748558000427259 -14.756671628468979 81.159307881407983 0 0 -1 I I #
point $-1 56.748558000427259 -14.756671628468979 11.30056856272661 #
straight-curve $-1 56.748558000427252 -4.4668009458054527 7.278671728044209 0 1 0 I I #
point $-1 56.748558000427259 -14.756671628468979 7.2786717280442019 #
point $-1 48.539976643328202 -8.9336018916109055 1.1047854672924373 #
straight-curve $-1 -56.748558000427259 4.2019512414460216 33.848411672928428 0 0 -1 I I #
point $-1 -56.748558000427259 4.2019512414460216 11.30056856272661 #
straight-curve $-1 -56.748558000427259 0.40714421107700005 2.5975533323831708 0 -1 0 I I #
point $-1 -56.748558000427259 4.2019512414460216 2.5975533323831672 #
point $-1 -52.083569984860418 -1.2183092694212156 5.8161044078012774 #
point $-1 -52.083569984860418 0.8142884221540001 5.8161044078012774 #
point $-1 -52.083569984860418 2.8468861137292123 5.8161044078012774 #
edge $-1 $551 -11.30056856272661 $545 -2.5975533323831672 $542 $589 forward 7 unknown #
straight-curve $-1 -56.748558000427259 14.495362994739313 2.5975533323831708 0 -1 0 I I #
point $-1 -56.748558000427259 32.378388808770652 2.5975533323831672 #
straight-curve $-1 0 32.378388808770644 11.30056856272661 -1 0 0 I I #
point $-1 -56.748558000427259 32.378388808770644 11.30056856272661 #
point $-1 -52.083569984860418 26.958128297903407 5.8161044078012774 #
point $-1 -52.083569984860418 28.990725989478626 5.8161044078012774 #
point $-1 -52.083569984860418 31.023323681053839 5.8161044078012774 #
straight-curve $-1 -56.748558000427259 32.378388808770644 0 0 0 -1 I I #
End-of-ACIS-data 