500 0 5 0           
7 Unknown 11 ACIS 5.0 NT 24 Fri Mar 26 16:27:33 1999 
-1 9.9999999999999995e-007 1e-010 
body $-1 $5 $-1 $6 #
body $-1 $7 $-1 $8 #
body $-1 $9 $-1 $10 #
body $-1 $11 $-1 $12 #
body $-1 $13 $-1 $14 #
lump $-1 $-1 $15 $0 #
transform $-1 1 0 0 0 1 0 0 0 1 65.045930356761374 27.972310838653531 5.9650417183474707 1 rotate no_reflect no_shear #
lump $-1 $-1 $16 $1 #
transform $-1 1 0 0 0 1 0 0 0 1 65.045930356761374 27.972310838653531 5.9650417183474707 1 rotate no_reflect no_shear #
lump $-1 $-1 $17 $2 #
transform $-1 1 0 0 0 1 0 0 0 1 65.045930356761374 27.972310838653531 5.9650417183474707 1 rotate no_reflect no_shear #
lump $-1 $-1 $18 $3 #
transform $-1 1 0 0 0 1 0 0 0 1 65.045930356761374 27.972310838653531 5.9650417183474707 1 rotate no_reflect no_shear #
lump $-1 $-1 $19 $4 #
transform $-1 1 0 0 0 1 0 0 0 1 65.045930356761374 27.972310838653531 5.9650417183474707 1 rotate no_reflect no_shear #
shell $-1 $-1 $-1 $20 $-1 $5 #
shell $-1 $-1 $-1 $21 $-1 $7 #
shell $-1 $-1 $-1 $22 $-1 $9 #
shell $-1 $-1 $-1 $23 $-1 $11 #
shell $-1 $-1 $-1 $24 $-1 $13 #
face $-1 $25 $26 $15 $-1 $27 forward single #
face $-1 $28 $29 $16 $-1 $30 reversed single #
face $-1 $31 $32 $17 $-1 $33 reversed single #
face $-1 $34 $35 $18 $-1 $36 forward single #
face $-1 $37 $38 $19 $-1 $39 forward single #
face $-1 $40 $41 $15 $-1 $42 reversed single #
loop $-1 $-1 $43 $20 #
plane-surface $-1 0 0 5.9650417183474707 0 0 1 1 0 0 forward_v I I I I #
face $-1 $44 $45 $16 $-1 $46 reversed single #
loop $-1 $-1 $47 $21 #
plane-surface $-1 0 -25.783493511689308 2.9650417183474707 0 0 1 1 0 0 forward_v I I I I #
face $-1 $48 $49 $17 $-1 $50 reversed single #
loop $-1 $-1 $51 $22 #
plane-surface $-1 52.212298526671063 5.4977079362122563 186.01179829489243 0 -1 0 -0.6560590369687036 0 -0.75470957328743171 forward_v I I I I #
face $-1 $52 $53 $18 $-1 $54 forward single #
loop $-1 $55 $56 $23 #
cone-surface $-1 62.035329530325342 -3.8065144382476817 3.0648119475631721 -0.6560590369687036 0 -0.75470957328743171 0.75470957328743171 0 -0.6560590369687036 1 I I 0 1 1 forward I I I I #
face $-1 $57 $58 $19 $-1 $59 forward single #
loop $-1 $60 $61 $24 #
cone-surface $-1 62.035329530325342 1.77601898642828 3.0648119475631721 -0.6560590369687036 0 -0.75470957328743171 0.75470957328743171 0 -0.6560590369687036 1 I I 0 1 1 forward I I I I #
face $-1 $62 $63 $15 $-1 $64 reversed single #
loop $-1 $-1 $65 $25 #
plane-surface $-1 0 0 -5.9650417183474707 0 0 1 1 0 0 forward_v I I I I #
coedge $-1 $66 $67 $68 $69 forward $26 $-1 #
face $-1 $70 $71 $16 $-1 $72 reversed single #
loop $-1 $-1 $73 $28 #
plane-surface $-1 0 -23.594676184725085 4.4650417183474707 0 -1 0 0 0 -1 forward_v I I I I #
coedge $-1 $74 $75 $76 $77 reversed $29 $-1 #
face $-1 $78 $79 $17 $-1 $80 reversed single #
loop $-1 $-1 $81 $31 #
plane-surface $-1 -33.135642330509398 -1.015247725909699 87.830225607621671 0.6560590369687036 0 0.75470957328743171 0.75470957328743171 0 -0.6560590369687036 forward_v I I I I #
coedge $-1 $82 $83 $84 $85 reversed $32 $-1 #
face $-1 $-1 $86 $18 $-1 $87 forward single #
loop $-1 $88 $89 $34 #
cone-surface $-1 60.699925935589732 -3.8065144382476817 1.5286058740882789 -0.6560590369687036 0 -0.75470957328743171 0.37735478664371586 0 -0.3280295184843518 1 I I -0.70710678118654746 0.70710678118654746 0.5 forward I I I I #
loop $-1 $-1 $90 $23 #
coedge $-1 $56 $56 $91 $92 reversed $35 $-1 #
face $-1 $-1 $93 $19 $-1 $94 forward single #
loop $-1 $95 $96 $37 #
cone-surface $-1 60.699925935589732 1.77601898642828 1.5286058740882789 -0.6560590369687036 0 -0.75470957328743171 0.37735478664371586 0 -0.3280295184843518 1 I I -0.70710678118654746 0.70710678118654746 0.5 forward I I I I #
loop $-1 $-1 $97 $24 #
coedge $-1 $61 $61 $98 $99 reversed $38 $-1 #
face $-1 $100 $101 $15 $-1 $102 reversed single #
loop $-1 $-1 $103 $40 #
plane-surface $-1 0 -27.972310838653531 0 0 1 0 0 0 1 forward_v I I I I #
coedge $-1 $104 $105 $106 $107 forward $41 $-1 #
coedge $-1 $108 $43 $109 $110 forward $26 $-1 #
coedge $-1 $43 $108 $111 $112 forward $26 $-1 #
coedge $-1 $113 $114 $43 $69 reversed $115 $-1 #
edge $-1 $116 -27.972310838653531 $117 27.972310838653531 $68 $118 forward 7 unknown #
face $-1 $119 $120 $16 $-1 $121 reversed single #
loop $-1 $-1 $122 $44 #
plane-surface $-1 -65.045930356761374 0 0 1 0 0 0 0 -1 forward_v I I I I #
coedge $-1 $123 $124 $125 $126 reversed $45 $-1 #
coedge $-1 $127 $47 $128 $129 reversed $29 $-1 #
coedge $-1 $47 $127 $123 $130 forward $29 $-1 #
coedge $-1 $125 $131 $47 $77 forward $132 $-1 #
edge $-1 $133 -15.080564082808877 $134 -10.702929428880431 $76 $135 forward 7 unknown #
face $-1 $136 $137 $17 $-1 $138 reversed single #
loop $-1 $-1 $139 $48 #
plane-surface $-1 52.212298526671063 -7.5282033880316543 186.01179829489243 0 1 0 0.6560590369687036 0 0.75470957328743171 forward_v I I I I #
coedge $-1 $140 $141 $142 $143 reversed $49 $-1 #
coedge $-1 $83 $51 $144 $145 reversed $32 $-1 #
coedge $-1 $51 $82 $140 $146 reversed $32 $-1 #
coedge $-1 $142 $147 $51 $85 forward $148 $-1 #
edge $-1 $149 -38.939781093425843 $150 -34.933327593056241 $84 $151 forward 7 unknown #
loop $-1 $-1 $91 $52 #
plane-surface $-1 -33.135642330509398 -1.015247725909699 87.830225607621671 0.6560590369687036 0 0.75470957328743171 0.75470957328743171 0 -0.6560590369687036 forward_v I I I I #
loop $-1 $-1 $152 $34 #
coedge $-1 $89 $89 $90 $153 reversed $53 $-1 #
coedge $-1 $90 $90 $89 $153 forward $55 $-1 #
coedge $-1 $91 $91 $56 $92 forward $86 $-1 #
edge $-1 $154 0 $154 6.2831853071796004 $91 $155 forward 7 unknown #
loop $-1 $-1 $98 $57 #
plane-surface $-1 -33.135642330509398 -1.015247725909699 87.830225607621671 0.6560590369687036 0 0.75470957328743171 0.75470957328743171 0 -0.6560590369687036 forward_v I I I I #
loop $-1 $-1 $156 $37 #
coedge $-1 $96 $96 $97 $157 reversed $58 $-1 #
coedge $-1 $97 $97 $96 $157 forward $60 $-1 #
coedge $-1 $98 $98 $61 $99 forward $93 $-1 #
edge $-1 $158 0 $158 6.2831853071796004 $98 $159 forward 7 unknown #
face $-1 $160 $161 $15 $-1 $162 reversed single #
loop $-1 $-1 $163 $62 #
plane-surface $-1 -65.045930356761374 0 0 1 0 0 0 0 -1 forward_v I I I I #
coedge $-1 $164 $111 $165 $166 forward $63 $-1 #
coedge $-1 $167 $65 $164 $168 forward $41 $-1 #
coedge $-1 $65 $167 $169 $170 forward $41 $-1 #
coedge $-1 $114 $113 $65 $107 reversed $115 $-1 #
edge $-1 $171 -27.972310838653531 $172 27.972310838653531 $106 $173 forward 7 unknown #
coedge $-1 $67 $66 $174 $175 forward $26 $-1 #
coedge $-1 $176 $177 $66 $110 reversed $161 $-1 #
edge $-1 $117 -65.045930356761374 $178 65.045930356761374 $109 $179 forward 7 unknown #
coedge $-1 $103 $180 $67 $112 reversed $63 $-1 #
edge $-1 $181 -65.045930356761374 $116 65.045930356761374 $111 $182 forward 7 unknown #
coedge $-1 $106 $68 $180 $183 forward $115 $-1 #
coedge $-1 $68 $106 $176 $184 reversed $115 $-1 #
loop $-1 $-1 $113 $160 #
vertex $-1 $69 $185 #
vertex $-1 $69 $186 #
straight-curve $-1 65.045930356761374 0 5.9650417183474707 0 1 0 I I #
face $-1 $187 $188 $16 $-1 $189 forward single #
loop $-1 $-1 $128 $70 #
plane-surface $-1 0 -27.972310838653531 0 0 1 0 0 0 1 forward_v I I I I #
coedge $-1 $190 $191 $192 $193 forward $71 $-1 #
coedge $-1 $192 $73 $75 $130 reversed $45 $-1 #
coedge $-1 $73 $192 $194 $195 reversed $45 $-1 #
coedge $-1 $196 $76 $73 $126 forward $132 $-1 #
edge $-1 $134 0.73252085917373533 $197 3.7325208591737353 $125 $198 forward 7 unknown #
coedge $-1 $75 $74 $190 $199 reversed $29 $-1 #
coedge $-1 $200 $201 $74 $129 forward $120 $-1 #
edge $-1 $202 -65.045930356761374 $133 65.045930356761374 $128 $203 forward 7 unknown #
edge $-1 $204 -65.045930356761374 $134 65.045930356761374 $123 $205 forward 7 unknown #
coedge $-1 $76 $196 $200 $206 forward $132 $-1 #
loop $-1 $-1 $125 $187 #
vertex $-1 $129 $207 #
vertex $-1 $77 $208 #
straight-curve $-1 65.045930356761374 -12.891746755844654 2.9650417183474707 0 1 0 I I #
face $-1 $-1 $148 $17 $-1 $209 forward single #
loop $-1 $-1 $210 $78 #
plane-surface $-1 65.045930356761374 0 0 -1 0 0 0 0 1 forward_v I I I I #
coedge $-1 $211 $212 $213 $214 reversed $79 $-1 #
coedge $-1 $215 $81 $83 $146 forward $49 $-1 #
coedge $-1 $81 $215 $211 $216 forward $49 $-1 #
coedge $-1 $213 $84 $81 $143 forward $148 $-1 #
edge $-1 $150 -6.0053317991671058 $217 7.0205795250768048 $142 $218 forward 7 unknown #
coedge $-1 $219 $220 $82 $145 forward $137 $-1 #
edge $-1 $221 -90.523614397005019 $149 -87.04085742909875 $144 $222 forward 7 unknown #
edge $-1 $150 124.78325771950227 $221 130.09186071352278 $83 $223 forward 7 unknown #
coedge $-1 $84 $213 $219 $224 forward $148 $-1 #
loop $-1 $-1 $213 $136 #
vertex $-1 $145 $225 #
vertex $-1 $85 $226 #
straight-curve $-1 26.106149263335531 5.4977079362122563 5.9650417183474644 -1 0 0 I I #
coedge $-1 $152 $152 $-1 $227 reversed $88 $-1 #
edge $-1 $228 0 $228 6.2831853071796004 $89 $229 forward 7 unknown #
vertex $-1 $92 $230 #
ellipse-curve $-1 63.04270360657658 -3.8065144382476817 4.2236632343943272 0.6560590369687036 0 0.75470957328743171 0.75470957328743171 0 -0.6560590369687036 1 I I #
coedge $-1 $156 $156 $-1 $231 reversed $95 $-1 #
edge $-1 $232 0 $232 6.2831853071796004 $96 $233 forward 7 unknown #
vertex $-1 $99 $234 #
ellipse-curve $-1 63.04270360657658 1.77601898642828 4.2236632343943272 0.6560590369687036 0 0.75470957328743171 0.75470957328743171 0 -0.6560590369687036 1 I I #
face $-1 $-1 $115 $15 $-1 $235 reversed single #
loop $-1 $-1 $176 $100 #
plane-surface $-1 0 27.972310838653531 0 0 -1 0 0 0 -1 forward_v I I I I #
coedge $-1 $236 $174 $177 $237 forward $101 $-1 #
coedge $-1 $180 $103 $104 $168 reversed $63 $-1 #
coedge $-1 $174 $236 $103 $166 reversed $101 $-1 #
edge $-1 $181 -5.9650417183474707 $238 5.9650417183474707 $165 $239 forward 7 unknown #
coedge $-1 $105 $104 $236 $240 forward $41 $-1 #
edge $-1 $172 -65.045930356761374 $238 65.045930356761374 $164 $241 forward 7 unknown #
coedge $-1 $177 $176 $105 $170 reversed $161 $-1 #
edge $-1 $242 -65.045930356761374 $171 65.045930356761374 $169 $243 forward 7 unknown #
vertex $-1 $107 $244 #
vertex $-1 $183 $245 #
straight-curve $-1 65.045930356761374 0 -5.9650417183474707 0 -1 0 I I #
coedge $-1 $163 $165 $108 $175 reversed $101 $-1 #
edge $-1 $178 -27.972310838653531 $181 27.972310838653531 $174 $246 forward 7 unknown #
coedge $-1 $169 $109 $114 $184 forward $161 $-1 #
coedge $-1 $109 $169 $163 $237 reversed $161 $-1 #
vertex $-1 $110 $247 #
straight-curve $-1 0 27.972310838653531 5.9650417183474707 -1 0 0 I I #
coedge $-1 $111 $164 $113 $183 reversed $63 $-1 #
vertex $-1 $175 $248 #
straight-curve $-1 0 -27.972310838653531 5.9650417183474707 1 0 0 I I #
edge $-1 $116 -5.9650417183474707 $172 5.9650417183474707 $113 $249 forward 7 unknown #
edge $-1 $117 -5.9650417183474707 $171 5.9650417183474707 $114 $250 forward 7 unknown #
point $-1 65.045930356761374 -27.972310838653531 5.9650417183474707 #
point $-1 65.045930356761374 27.972310838653531 5.9650417183474707 #
face $-1 $-1 $132 $16 $-1 $251 reversed single #
loop $-1 $-1 $194 $119 #
plane-surface $-1 0 0 5.9650417183474707 0 0 1 1 0 0 forward_v I I I I #
coedge $-1 $252 $122 $127 $199 forward $71 $-1 #
coedge $-1 $122 $252 $253 $254 reversed $71 $-1 #
coedge $-1 $124 $123 $122 $193 reversed $45 $-1 #
edge $-1 $255 -3.7325208591737353 $204 -0.73252085917373533 $122 $256 forward 7 unknown #
coedge $-1 $253 $257 $124 $195 forward $188 $-1 #
edge $-1 $197 -65.045930356761374 $255 65.045930356761374 $194 $258 forward 7 unknown #
coedge $-1 $131 $125 $257 $259 reversed $132 $-1 #
vertex $-1 $126 $260 #
straight-curve $-1 65.045930356761374 -23.594676184725085 2.2325208591737353 0 0 1 I I #
edge $-1 $204 10.702929428880431 $202 15.080564082808877 $190 $261 forward 7 unknown #
coedge $-1 $262 $128 $131 $206 reversed $120 $-1 #
coedge $-1 $128 $262 $252 $263 forward $120 $-1 #
vertex $-1 $129 $264 #
straight-curve $-1 0 -27.972310838653531 2.9650417183474707 1 0 0 I I #
vertex $-1 $199 $265 #
straight-curve $-1 0 -23.594676184725085 2.9650417183474707 1 0 0 I I #
edge $-1 $266 -5.9650417183474707 $133 -2.9650417183474707 $131 $267 forward 7 unknown #
point $-1 65.045930356761374 -27.972310838653531 2.9650417183474707 #
point $-1 65.045930356761374 -23.594676184725085 2.9650417183474707 #
plane-surface $-1 0 0 5.9650417183474707 0 0 1 1 0 0 forward_v I I I I #
coedge $-1 $220 $219 $212 $268 forward $137 $-1 #
coedge $-1 $212 $139 $141 $216 reversed $79 $-1 #
coedge $-1 $139 $211 $210 $268 reversed $79 $-1 #
coedge $-1 $147 $142 $139 $214 forward $148 $-1 #
edge $-1 $217 34.933327593056241 $269 38.939781093425843 $213 $270 forward 7 unknown #
coedge $-1 $141 $140 $220 $271 reversed $49 $-1 #
edge $-1 $272 -130.09186071352278 $217 -124.78325771950227 $211 $273 forward 7 unknown #
vertex $-1 $143 $274 #
straight-curve $-1 61.039476856391758 -0.50762386295484951 5.9650417183474786 0 -1 0 I I #
coedge $-1 $210 $144 $147 $224 reversed $137 $-1 #
coedge $-1 $144 $210 $215 $271 forward $137 $-1 #
vertex $-1 $145 $275 #
straight-curve $-1 65.045930356761374 5.4977079362122563 93.005899147446215 0 0 1 I I #
straight-curve $-1 -33.135642330509398 5.4977079362122563 87.830225607621671 0.75470957328743171 0 -0.6560590369687036 I I #
edge $-1 $269 -7.5282033880316543 $149 5.4977079362122563 $219 $276 forward 7 unknown #
point $-1 65.045930356761374 5.4977079362122563 5.9650417183474707 #
point $-1 61.039476856391772 5.4977079362122563 5.9650417183474644 #
edge $-1 $277 1 $277 0 $152 $-1 forward 7 unknown #
vertex $-1 $153 $278 #
ellipse-curve $-1 61.027955454074082 -3.8065144382476817 1.9059606607319948 0.6560590369687036 0 0.75470957328743171 0.75470957328743171 0 -0.6560590369687036 1 I I #
point $-1 63.797413179864023 -3.8065144382476817 3.5676041974256463 #
edge $-1 $279 1 $279 0 $156 $-1 forward 7 unknown #
vertex $-1 $157 $280 #
ellipse-curve $-1 61.027955454074082 1.77601898642828 1.9059606607319948 0.6560590369687036 0 0.75470957328743171 0.75470957328743171 0 -0.6560590369687036 1 I I #
point $-1 63.797413179864023 1.77601898642828 3.5676041974256463 #
plane-surface $-1 65.045930356761374 0 0 -1 0 0 0 0 1 forward_v I I I I #
coedge $-1 $165 $163 $167 $240 reversed $101 $-1 #
edge $-1 $178 -5.9650417183474707 $242 5.9650417183474707 $177 $281 forward 7 unknown #
vertex $-1 $240 $282 #
straight-curve $-1 -65.045930356761374 -27.972310838653531 0 0 0 -1 I I #
edge $-1 $238 -27.972310838653531 $242 27.972310838653531 $236 $283 forward 7 unknown #
straight-curve $-1 0 -27.972310838653531 -5.9650417183474707 -1 0 0 I I #
vertex $-1 $170 $284 #
straight-curve $-1 0 27.972310838653531 -5.9650417183474707 1 0 0 I I #
point $-1 65.045930356761374 27.972310838653531 -5.9650417183474707 #
point $-1 65.045930356761374 -27.972310838653531 -5.9650417183474707 #
straight-curve $-1 -65.045930356761374 0 5.9650417183474707 0 -1 0 I I #
point $-1 -65.045930356761374 27.972310838653531 5.9650417183474707 #
point $-1 -65.045930356761374 -27.972310838653531 5.9650417183474707 #
straight-curve $-1 65.045930356761374 -27.972310838653531 0 0 0 -1 I I #
straight-curve $-1 65.045930356761374 27.972310838653531 0 0 0 -1 I I #
plane-surface $-1 65.045930356761374 0 0 -1 0 0 0 0 1 forward_v I I I I #
coedge $-1 $191 $190 $201 $263 reversed $71 $-1 #
coedge $-1 $285 $194 $191 $254 forward $188 $-1 #
edge $-1 $255 23.594676184725085 $286 27.972310838653531 $191 $287 forward 7 unknown #
vertex $-1 $254 $288 #
straight-curve $-1 -65.045930356761374 -23.594676184725085 2.2325208591737353 0 0 -1 I I #
coedge $-1 $194 $285 $196 $259 forward $188 $-1 #
straight-curve $-1 0 -23.594676184725085 5.9650417183474707 -1 0 0 I I #
edge $-1 $266 -27.972310838653531 $197 -23.594676184725085 $196 $289 forward 7 unknown #
point $-1 65.045930356761374 -23.594676184725085 5.9650417183474707 #
straight-curve $-1 -65.045930356761374 -12.891746755844654 2.9650417183474707 0 -1 0 I I #
coedge $-1 $201 $200 $285 $290 reversed $120 $-1 #
edge $-1 $286 -5.9650417183474707 $202 -2.9650417183474707 $252 $291 forward 7 unknown #
point $-1 -65.045930356761374 -27.972310838653531 2.9650417183474707 #
point $-1 -65.045930356761374 -23.594676184725085 2.9650417183474707 #
vertex $-1 $259 $292 #
straight-curve $-1 65.045930356761374 -27.972310838653531 0 0 0 -1 I I #
edge $-1 $269 87.04085742909875 $272 90.523614397005019 $210 $293 forward 7 unknown #
vertex $-1 $224 $294 #
straight-curve $-1 26.106149263335531 -7.5282033880316543 5.9650417183474644 1 0 0 I I #
edge $-1 $272 -7.0205795250768048 $221 6.0053317991671058 $220 $295 forward 7 unknown #
vertex $-1 $271 $296 #
straight-curve $-1 -33.135642330509398 -7.5282033880316543 87.830225607621671 -0.75470957328743171 0 0.6560590369687036 I I #
point $-1 61.039476856391772 -7.5282033880316543 5.9650417183474644 #
point $-1 65.045930356761374 5.4977079362122563 2.4822847504411953 #
straight-curve $-1 65.045930356761374 0 5.9650417183474707 0 1 0 I I #
vertex $-1 $227 $297 #
point $-1 61.782665027361517 -3.8065144382476817 1.2499016237632912 #
vertex $-1 $231 $298 #
point $-1 61.782665027361517 1.77601898642828 1.2499016237632912 #
straight-curve $-1 -65.045930356761374 27.972310838653531 0 0 0 -1 I I #
point $-1 -65.045930356761374 -27.972310838653531 -5.9650417183474707 #
straight-curve $-1 -65.045930356761374 0 -5.9650417183474707 0 1 0 I I #
point $-1 -65.045930356761374 27.972310838653531 -5.9650417183474707 #
coedge $-1 $257 $253 $262 $290 forward $188 $-1 #
vertex $-1 $254 $299 #
straight-curve $-1 -65.045930356761374 0 5.9650417183474707 0 -1 0 I I #
point $-1 -65.045930356761374 -23.594676184725085 5.9650417183474707 #
straight-curve $-1 65.045930356761374 0 5.9650417183474707 0 1 0 I I #
edge $-1 $286 -65.045930356761374 $266 65.045930356761374 $262 $300 forward 7 unknown #
straight-curve $-1 -65.045930356761374 -27.972310838653531 0 0 0 -1 I I #
point $-1 65.045930356761374 -27.972310838653531 5.9650417183474707 #
straight-curve $-1 65.045930356761374 -7.5282033880316543 93.005899147446215 0 0 -1 I I #
point $-1 65.045930356761374 -7.5282033880316543 5.9650417183474707 #
straight-curve $-1 65.045930356761374 -0.50762386295484951 2.4822847504411953 0 1 0 I I #
point $-1 65.045930356761374 -7.5282033880316543 2.4822847504411953 #
point $-1 60.371896417105383 -3.8065144382476817 1.1512510874445629 #
point $-1 60.371896417105383 1.77601898642828 1.1512510874445629 #
point $-1 -65.045930356761374 -27.972310838653531 5.9650417183474707 #
straight-curve $-1 0 -27.972310838653531 5.9650417183474707 1 0 0 I I #
End-of-ACIS-data 