500 0 14 0           
7 Unknown 11 ACIS 5.0 NT 24 Thu Mar 25 15:19:16 1999 
-1 9.9999999999999995e-007 1e-010 
body $-1 $14 $-1 $15 #
body $-1 $16 $-1 $17 #
body $-1 $18 $-1 $19 #
body $-1 $20 $-1 $21 #
body $-1 $22 $-1 $23 #
body $-1 $24 $-1 $25 #
body $-1 $26 $-1 $27 #
body $-1 $28 $-1 $29 #
body $-1 $30 $-1 $31 #
body $-1 $32 $-1 $33 #
body $-1 $34 $-1 $35 #
body $-1 $36 $-1 $37 #
body $-1 $38 $-1 $39 #
body $-1 $40 $-1 $41 #
lump $-1 $-1 $42 $0 #
transform $-1 1 0 0 0 1 0 0 0 1 70.492873928037355 37.871714043225928 13.431415414787089 1 rotate no_reflect no_shear #
lump $-1 $-1 $43 $1 #
transform $-1 1 0 0 0 1 0 0 0 1 70.492873928037355 37.871714043225928 13.431415414787089 1 rotate no_reflect no_shear #
lump $-1 $-1 $44 $2 #
transform $-1 1 0 0 0 1 0 0 0 1 70.492873928037355 37.871714043225928 13.431415414787089 1 rotate no_reflect no_shear #
lump $-1 $-1 $45 $3 #
transform $-1 1 0 0 0 1 0 0 0 1 70.492873928037355 37.871714043225928 13.431415414787089 1 rotate no_reflect no_shear #
lump $-1 $-1 $46 $4 #
transform $-1 1 0 0 0 1 0 0 0 1 70.492873928037355 37.871714043225928 13.431415414787089 1 rotate no_reflect no_shear #
lump $-1 $-1 $47 $5 #
transform $-1 1 0 0 0 1 0 0 0 1 70.492873928037355 37.871714043225928 13.431415414787089 1 rotate no_reflect no_shear #
lump $-1 $-1 $48 $6 #
transform $-1 1 0 0 0 1 0 0 0 1 70.492873928037355 37.871714043225928 13.431415414787089 1 rotate no_reflect no_shear #
lump $-1 $-1 $49 $7 #
transform $-1 1 0 0 0 1 0 0 0 1 70.492873928037355 37.871714043225928 13.431415414787089 1 rotate no_reflect no_shear #
lump $-1 $-1 $50 $8 #
transform $-1 1 0 0 0 1 0 0 0 1 70.492873928037355 37.871714043225928 13.431415414787089 1 rotate no_reflect no_shear #
lump $-1 $-1 $51 $9 #
transform $-1 1 0 0 0 1 0 0 0 1 70.492873928037355 37.871714043225928 13.431415414787089 1 rotate no_reflect no_shear #
lump $-1 $-1 $52 $10 #
transform $-1 1 0 0 0 1 0 0 0 1 70.492873928037355 37.871714043225928 13.431415414787089 1 rotate no_reflect no_shear #
lump $-1 $-1 $53 $11 #
transform $-1 1 0 0 0 1 0 0 0 1 70.492873928037355 37.871714043225928 13.431415414787089 1 rotate no_reflect no_shear #
lump $-1 $-1 $54 $12 #
transform $-1 1 0 0 0 1 0 0 0 1 70.492873928037355 37.871714043225928 13.431415414787089 1 rotate no_reflect no_shear #
lump $-1 $-1 $55 $13 #
transform $-1 1 0 0 0 1 0 0 0 1 70.492873928037355 37.871714043225928 13.431415414787089 1 rotate no_reflect no_shear #
shell $-1 $-1 $-1 $56 $-1 $14 #
shell $-1 $-1 $-1 $57 $-1 $16 #
shell $-1 $-1 $-1 $58 $-1 $18 #
shell $-1 $-1 $-1 $59 $-1 $20 #
shell $-1 $-1 $-1 $60 $-1 $22 #
shell $-1 $-1 $-1 $61 $-1 $24 #
shell $-1 $-1 $-1 $62 $-1 $26 #
shell $-1 $-1 $-1 $63 $-1 $28 #
shell $-1 $-1 $-1 $64 $-1 $30 #
shell $-1 $-1 $-1 $65 $-1 $32 #
shell $-1 $-1 $-1 $66 $-1 $34 #
shell $-1 $-1 $-1 $67 $-1 $36 #
shell $-1 $-1 $-1 $68 $-1 $38 #
shell $-1 $-1 $-1 $69 $-1 $40 #
face $-1 $70 $71 $42 $-1 $72 forward single #
face $-1 $73 $74 $43 $-1 $75 reversed single #
face $-1 $76 $77 $44 $-1 $78 reversed single #
face $-1 $79 $80 $45 $-1 $81 forward single #
face $-1 $82 $83 $46 $-1 $84 forward single #
face $-1 $85 $86 $47 $-1 $87 reversed single #
face $-1 $88 $89 $48 $-1 $90 forward single #
face $-1 $91 $92 $49 $-1 $93 forward single #
face $-1 $94 $95 $50 $-1 $96 reversed single #
face $-1 $97 $98 $51 $-1 $99 forward single #
face $-1 $100 $101 $52 $-1 $102 forward single #
face $-1 $103 $104 $53 $-1 $105 reversed single #
face $-1 $106 $107 $54 $-1 $108 forward single #
face $-1 $109 $110 $55 $-1 $111 forward single #
face $-1 $112 $113 $42 $-1 $114 reversed single #
loop $-1 $-1 $115 $56 #
plane-surface $-1 0 0 13.431415414787089 0 0 1 1 0 0 forward_v I I I I #
face $-1 $116 $117 $43 $-1 $118 reversed single #
loop $-1 $-1 $119 $57 #
plane-surface $-1 -63.390156834684852 -22.786219054390759 0 0 1 0 0 0 1 forward_v I I I I #
face $-1 $120 $121 $44 $-1 $122 reversed single #
loop $-1 $-1 $123 $58 #
plane-surface $-1 7.1027170933524886 -137.56369355959444 101.18122435136775 -1 0 0 0 -0.70710678939079041 0.70710677298230451 forward_v I I I I #
face $-1 $124 $125 $45 $-1 $126 forward single #
loop $-1 $127 $128 $59 #
cone-surface $-1 -7.7364258858781412 -31.146328137614802 6.7060293881199948 0 0.70710678939079041 -0.70710677298230451 2 0 0 1 I I 0 1 2 forward I I I I #
face $-1 $129 $130 $46 $-1 $131 forward single #
loop $-1 $132 $133 $60 #
cone-surface $-1 1.1670599016602381 -31.146328137614802 6.7060293881199948 0 0.70710678939079041 -0.70710677298230451 2 0 0 1 I I 0 1 2 forward I I I I #
face $-1 $134 $135 $47 $-1 $136 reversed single #
loop $-1 $-1 $137 $61 #
plane-surface $-1 -3.2846829921089551 -37.871714043225936 1.4892471483618976 0 -0.70710678939079041 0.70710677298230451 1 0 0 forward_v I I I I #
face $-1 $138 $139 $48 $-1 $140 forward single #
loop $-1 $141 $142 $62 #
cone-surface $-1 13.038374285044753 -31.146328137614802 6.7060293881199948 0 0.70710678939079041 -0.70710677298230451 2 0 0 1 I I 0 1 2 forward I I I I #
face $-1 $143 $144 $49 $-1 $145 forward single #
loop $-1 $146 $147 $63 #
cone-surface $-1 21.941860072583125 -31.146328137614802 6.7060293881199948 0 0.70710678939079041 -0.70710677298230451 2 0 0 1 I I 0 1 2 forward I I I I #
face $-1 $148 $149 $50 $-1 $150 reversed single #
loop $-1 $-1 $151 $64 #
plane-surface $-1 -36.039910321997155 59.463338354248499 165.74968757000229 1 0 0 0 -0.5877852598018023 -0.80901698891910034 forward_v I I I I #
face $-1 $152 $153 $51 $-1 $154 forward single #
loop $-1 $155 $156 $65 #
cone-surface $-1 -27.070234497610258 32.212442713356175 8.4427554623424683 0 -0.5877852598018023 -0.80901698891910034 2.5 0 0 1 I I 0 1 2.5 forward I I I I #
face $-1 $157 $158 $52 $-1 $159 forward single #
loop $-1 $160 $161 $66 #
cone-surface $-1 -13.61572076102992 32.212442713356175 8.4427554623424683 0 -0.5877852598018023 -0.80901698891910034 2.5 0 0 1 I I 0 1 2.5 forward I I I I #
face $-1 $162 $163 $53 $-1 $164 reversed single #
loop $-1 $-1 $165 $67 #
plane-surface $-1 18.851479123348014 59.463338354248499 165.74968757000229 1 0 0 0 -0.5877852598018023 -0.80901698891910034 forward_v I I I I #
face $-1 $166 $167 $54 $-1 $168 forward single #
loop $-1 $169 $170 $68 #
cone-surface $-1 27.821154947734911 32.212442713356175 8.4427554623424683 0 -0.5877852598018023 -0.80901698891910034 2.5 0 0 1 I I 0 1 2.5 forward I I I I #
face $-1 $171 $172 $55 $-1 $173 forward single #
loop $-1 $174 $175 $69 #
cone-surface $-1 41.275668684315249 32.212442713356175 8.4427554623424683 0 -0.5877852598018023 -0.80901698891910034 2.5 0 0 1 I I 0 1 2.5 forward I I I I #
face $-1 $176 $177 $42 $-1 $178 reversed single #
loop $-1 $-1 $179 $70 #
plane-surface $-1 0 0 -13.431415414787089 0 0 1 1 0 0 forward_v I I I I #
coedge $-1 $180 $181 $182 $183 forward $71 $-1 #
face $-1 $184 $185 $43 $-1 $186 reversed single #
loop $-1 $-1 $187 $73 #
plane-surface $-1 -63.390156834684852 -16.767885749450212 0 0 -1 0 0 0 -1 forward_v I I I I #
coedge $-1 $188 $189 $190 $191 reversed $74 $-1 #
face $-1 $192 $193 $44 $-1 $194 reversed single #
loop $-1 $-1 $195 $76 #
plane-surface $-1 -3.2846829921089551 -37.871714043225936 1.4892471483618976 0 -0.70710678939079041 0.70710677298230451 1 0 0 forward_v I I I I #
coedge $-1 $196 $197 $198 $199 reversed $77 $-1 #
face $-1 $-1 $200 $45 $-1 $201 forward single #
loop $-1 $202 $203 $79 #
cone-surface $-1 -7.7364258858781412 -29.684919437265862 5.2446207216831944 0 0.70710678939079041 -0.70710677298230451 1 0 0 1 I I -0.70710678118654746 0.70710678118654746 1 forward I I I I #
loop $-1 $-1 $204 $59 #
coedge $-1 $128 $128 $205 $206 reversed $80 $-1 #
face $-1 $-1 $207 $46 $-1 $208 forward single #
loop $-1 $209 $210 $82 #
cone-surface $-1 1.1670599016602381 -29.684919437265862 5.2446207216831944 0 0.70710678939079041 -0.70710677298230451 1 0 0 1 I I -0.70710678118654746 0.70710678118654746 1 forward I I I I #
loop $-1 $-1 $211 $60 #
coedge $-1 $133 $133 $212 $213 reversed $83 $-1 #
face $-1 $214 $215 $47 $-1 $216 reversed single #
loop $-1 $-1 $217 $85 #
plane-surface $-1 27.877517264275376 -137.56369355959444 101.18122435136775 -1 0 0 0 -0.70710678939079041 0.70710677298230451 forward_v I I I I #
coedge $-1 $218 $219 $220 $221 reversed $86 $-1 #
face $-1 $-1 $222 $48 $-1 $223 forward single #
loop $-1 $224 $225 $88 #
cone-surface $-1 13.038374285044753 -29.684919437265862 5.2446207216831944 0 0.70710678939079041 -0.70710677298230451 1 0 0 1 I I -0.70710678118654746 0.70710678118654746 1 forward I I I I #
loop $-1 $-1 $226 $62 #
coedge $-1 $142 $142 $227 $228 reversed $89 $-1 #
face $-1 $-1 $229 $49 $-1 $230 forward single #
loop $-1 $231 $232 $91 #
cone-surface $-1 21.941860072583125 -29.684919437265862 5.2446207216831944 0 0.70710678939079041 -0.70710677298230451 1 0 0 1 I I -0.70710678118654746 0.70710678118654746 1 forward I I I I #
loop $-1 $-1 $233 $63 #
coedge $-1 $147 $147 $234 $235 reversed $92 $-1 #
face $-1 $236 $237 $50 $-1 $238 reversed single #
loop $-1 $-1 $239 $94 #
plane-surface $-1 -20.342977629320089 -23.406006077685753 51.689822358973245 0 0.5877852598018023 0.80901698891910034 1 0 0 forward_v I I I I #
coedge $-1 $240 $241 $242 $243 reversed $95 $-1 #
face $-1 $-1 $244 $51 $-1 $245 forward single #
loop $-1 $246 $247 $97 #
cone-surface $-1 -27.070234497610258 30.128210571115609 5.5740560796930296 0 -0.5877852598018023 -0.80901698891910034 1.25 0 0 1 I I -0.70710678118654746 0.70710678118654746 1.25 forward I I I I #
loop $-1 $-1 $248 $65 #
coedge $-1 $156 $156 $249 $250 reversed $98 $-1 #
face $-1 $-1 $251 $52 $-1 $252 forward single #
loop $-1 $253 $254 $100 #
cone-surface $-1 -13.61572076102992 30.128210571115609 5.5740560796930296 0 -0.5877852598018023 -0.80901698891910034 1.25 0 0 1 I I -0.70710678118654746 0.70710678118654746 1.25 forward I I I I #
loop $-1 $-1 $255 $66 #
coedge $-1 $161 $161 $256 $257 reversed $101 $-1 #
face $-1 $258 $259 $53 $-1 $260 reversed single #
loop $-1 $-1 $261 $103 #
plane-surface $-1 34.54841181602508 -23.406006077685753 51.689822358973245 0 0.5877852598018023 0.80901698891910034 1 0 0 forward_v I I I I #
coedge $-1 $262 $263 $264 $265 reversed $104 $-1 #
face $-1 $-1 $266 $54 $-1 $267 forward single #
loop $-1 $268 $269 $106 #
cone-surface $-1 27.821154947734911 30.128210571115609 5.5740560796930296 0 -0.5877852598018023 -0.80901698891910034 1.25 0 0 1 I I -0.70710678118654746 0.70710678118654746 1.25 forward I I I I #
loop $-1 $-1 $270 $68 #
coedge $-1 $170 $170 $271 $272 reversed $107 $-1 #
face $-1 $-1 $273 $55 $-1 $274 forward single #
loop $-1 $275 $276 $109 #
cone-surface $-1 41.275668684315249 30.128210571115609 5.5740560796930296 0 -0.5877852598018023 -0.80901698891910034 1.25 0 0 1 I I -0.70710678118654746 0.70710678118654746 1.25 forward I I I I #
loop $-1 $-1 $277 $69 #
coedge $-1 $175 $175 $278 $279 reversed $110 $-1 #
face $-1 $280 $281 $42 $-1 $282 reversed single #
loop $-1 $-1 $283 $112 #
plane-surface $-1 0 -37.871714043225928 0 0 1 0 0 0 1 forward_v I I I I #
coedge $-1 $284 $285 $286 $287 forward $113 $-1 #
coedge $-1 $288 $115 $289 $290 forward $71 $-1 #
coedge $-1 $115 $288 $291 $292 forward $71 $-1 #
coedge $-1 $293 $294 $115 $183 reversed $295 $-1 #
edge $-1 $296 -37.871714043225928 $297 37.871714043225928 $182 $298 forward 7 unknown #
face $-1 $299 $300 $43 $-1 $301 reversed single #
loop $-1 $-1 $302 $116 #
plane-surface $-1 -56.287439741332349 -19.777052401920486 0 -1 0 0 0 0 1 forward_v I I I I #
coedge $-1 $303 $304 $305 $306 forward $117 $-1 #
coedge $-1 $307 $119 $308 $309 reversed $74 $-1 #
coedge $-1 $119 $307 $310 $311 reversed $74 $-1 #
coedge $-1 $312 $313 $119 $191 forward $314 $-1 #
edge $-1 $315 -13.431415414787089 $316 13.431415414787089 $190 $317 forward 7 unknown #
face $-1 $318 $319 $44 $-1 $320 reversed single #
loop $-1 $-1 $321 $120 #
plane-surface $-1 -13.672083077570399 -137.56369355959444 101.18122435136775 1 0 0 0 0.70710678939079041 -0.70710677298230451 forward_v I I I I #
coedge $-1 $322 $323 $324 $325 reversed $121 $-1 #
coedge $-1 $197 $123 $326 $327 reversed $77 $-1 #
coedge $-1 $123 $196 $322 $328 reversed $77 $-1 #
coedge $-1 $324 $329 $123 $199 forward $330 $-1 #
edge $-1 $331 30.910132736571292 $332 42.852300725877228 $198 $333 forward 7 unknown #
loop $-1 $-1 $205 $124 #
plane-surface $-1 -3.2846829921089551 -37.871714043225936 1.4892471483618976 0 -0.70710678939079041 0.70710677298230451 1 0 0 forward_v I I I I #
loop $-1 $-1 $334 $79 #
coedge $-1 $203 $203 $204 $335 reversed $125 $-1 #
coedge $-1 $204 $204 $203 $335 forward $127 $-1 #
coedge $-1 $205 $205 $128 $206 forward $200 $-1 #
edge $-1 $336 -5.8294651990167239e-023 $336 6.2831853071796004 $205 $337 forward 7 unknown #
loop $-1 $-1 $212 $129 #
plane-surface $-1 -3.2846829921089551 -37.871714043225936 1.4892471483618976 0 -0.70710678939079041 0.70710677298230451 1 0 0 forward_v I I I I #
loop $-1 $-1 $338 $82 #
coedge $-1 $210 $210 $211 $339 reversed $130 $-1 #
coedge $-1 $211 $211 $210 $339 forward $132 $-1 #
coedge $-1 $212 $212 $133 $213 forward $207 $-1 #
edge $-1 $340 -5.8294651990167239e-023 $340 6.2831853071796004 $212 $341 forward 7 unknown #
face $-1 $342 $343 $47 $-1 $344 forward single #
loop $-1 $-1 $345 $134 #
plane-surface $-1 0 -37.871714043225928 0 0 1 0 0 0 1 forward_v I I I I #
coedge $-1 $346 $347 $348 $349 reversed $135 $-1 #
coedge $-1 $350 $137 $351 $352 reversed $86 $-1 #
coedge $-1 $137 $350 $345 $353 reversed $86 $-1 #
coedge $-1 $354 $355 $137 $221 forward $343 $-1 #
edge $-1 $356 -16.888776130567212 $357 -1.0048591735576163e-014 $220 $358 forward 7 unknown #
loop $-1 $-1 $227 $138 #
plane-surface $-1 -3.2846829921089551 -37.871714043225936 1.4892471483618976 0 -0.70710678939079041 0.70710677298230451 1 0 0 forward_v I I I I #
loop $-1 $-1 $359 $88 #
coedge $-1 $225 $225 $226 $360 reversed $139 $-1 #
coedge $-1 $226 $226 $225 $360 forward $141 $-1 #
coedge $-1 $227 $227 $142 $228 forward $222 $-1 #
edge $-1 $361 -5.8294651990167239e-023 $361 6.2831853071796004 $227 $362 forward 7 unknown #
loop $-1 $-1 $234 $143 #
plane-surface $-1 -3.2846829921089551 -37.871714043225936 1.4892471483618976 0 -0.70710678939079041 0.70710677298230451 1 0 0 forward_v I I I I #
loop $-1 $-1 $363 $91 #
coedge $-1 $232 $232 $233 $364 reversed $144 $-1 #
coedge $-1 $233 $233 $232 $364 forward $146 $-1 #
coedge $-1 $234 $234 $147 $235 forward $229 $-1 #
edge $-1 $365 -5.8294651990167239e-023 $365 6.2831853071796004 $234 $366 forward 7 unknown #
face $-1 $367 $368 $50 $-1 $369 reversed single #
loop $-1 $-1 $370 $148 #
plane-surface $-1 -4.6460449366430225 59.463338354248499 165.74968757000229 -1 0 0 0 0.5877852598018023 0.80901698891910034 forward_v I I I I #
coedge $-1 $371 $372 $373 $374 reversed $149 $-1 #
coedge $-1 $241 $151 $375 $376 reversed $95 $-1 #
coedge $-1 $151 $240 $371 $377 reversed $95 $-1 #
coedge $-1 $373 $378 $151 $243 forward $379 $-1 #
edge $-1 $380 -8.1400448661016789 $381 0.4794966586611018 $242 $382 forward 7 unknown #
loop $-1 $-1 $249 $152 #
plane-surface $-1 -20.342977629320089 -23.406006077685753 51.689822358973245 0 0.5877852598018023 0.80901698891910034 1 0 0 forward_v I I I I #
loop $-1 $-1 $383 $97 #
coedge $-1 $247 $247 $248 $384 reversed $153 $-1 #
coedge $-1 $248 $248 $247 $384 forward $155 $-1 #
coedge $-1 $249 $249 $156 $250 forward $244 $-1 #
edge $-1 $385 -4.2688083600790869e-016 $385 6.2831853071796004 $249 $386 forward 7 unknown #
loop $-1 $-1 $256 $157 #
plane-surface $-1 -20.342977629320089 -23.406006077685753 51.689822358973245 0 0.5877852598018023 0.80901698891910034 1 0 0 forward_v I I I I #
loop $-1 $-1 $387 $100 #
coedge $-1 $254 $254 $255 $388 reversed $158 $-1 #
coedge $-1 $255 $255 $254 $388 forward $160 $-1 #
coedge $-1 $256 $256 $161 $257 forward $251 $-1 #
edge $-1 $389 -4.2688083600790869e-016 $389 6.2831853071796004 $256 $390 forward 7 unknown #
face $-1 $391 $392 $53 $-1 $393 forward single #
loop $-1 $-1 $394 $162 #
plane-surface $-1 50.245344508702146 59.463338354248499 165.74968757000229 -1 0 0 0 0.5877852598018023 0.80901698891910034 forward_v I I I I #
coedge $-1 $395 $396 $397 $398 reversed $163 $-1 #
coedge $-1 $263 $165 $399 $400 reversed $104 $-1 #
coedge $-1 $165 $262 $395 $401 reversed $104 $-1 #
coedge $-1 $397 $402 $165 $265 forward $392 $-1 #
edge $-1 $403 -8.1400448661016789 $404 0.4794966586611018 $264 $405 forward 7 unknown #
loop $-1 $-1 $271 $166 #
plane-surface $-1 34.54841181602508 -23.406006077685753 51.689822358973245 0 0.5877852598018023 0.80901698891910034 1 0 0 forward_v I I I I #
loop $-1 $-1 $406 $106 #
coedge $-1 $269 $269 $270 $407 reversed $167 $-1 #
coedge $-1 $270 $270 $269 $407 forward $169 $-1 #
coedge $-1 $271 $271 $170 $272 forward $266 $-1 #
edge $-1 $408 -4.2688083600790869e-016 $408 6.2831853071796004 $271 $409 forward 7 unknown #
loop $-1 $-1 $278 $171 #
plane-surface $-1 34.54841181602508 -23.406006077685753 51.689822358973245 0 0.5877852598018023 0.80901698891910034 1 0 0 forward_v I I I I #
loop $-1 $-1 $410 $109 #
coedge $-1 $276 $276 $277 $411 reversed $172 $-1 #
coedge $-1 $277 $277 $276 $411 forward $174 $-1 #
coedge $-1 $278 $278 $175 $279 forward $273 $-1 #
edge $-1 $412 -4.2688083600790869e-016 $412 6.2831853071796004 $278 $413 forward 7 unknown #
face $-1 $414 $415 $42 $-1 $416 reversed single #
loop $-1 $-1 $417 $176 #
plane-surface $-1 -70.492873928037355 0 0 1 0 0 0 0 -1 forward_v I I I I #
coedge $-1 $418 $291 $419 $420 forward $177 $-1 #
coedge $-1 $421 $179 $418 $422 forward $113 $-1 #
coedge $-1 $179 $421 $423 $424 forward $113 $-1 #
coedge $-1 $294 $293 $179 $287 reversed $295 $-1 #
edge $-1 $425 -37.871714043225928 $426 37.871714043225928 $286 $427 forward 7 unknown #
coedge $-1 $181 $180 $428 $429 forward $71 $-1 #
coedge $-1 $430 $431 $180 $290 reversed $415 $-1 #
edge $-1 $297 -70.492873928037355 $432 70.492873928037355 $289 $433 forward 7 unknown #
coedge $-1 $283 $434 $181 $292 reversed $177 $-1 #
edge $-1 $435 -70.492873928037355 $296 70.492873928037355 $291 $436 forward 7 unknown #
coedge $-1 $286 $182 $434 $437 forward $295 $-1 #
coedge $-1 $182 $286 $430 $438 reversed $295 $-1 #
loop $-1 $-1 $293 $414 #
vertex $-1 $183 $439 #
vertex $-1 $183 $440 #
straight-curve $-1 70.492873928037355 0 13.431415414787089 0 1 0 I I #
face $-1 $441 $442 $43 $-1 $443 forward single #
loop $-1 $-1 $444 $184 #
plane-surface $-1 0 0 -13.431415414787089 0 0 1 1 0 0 forward_v I I I I #
coedge $-1 $445 $446 $307 $447 forward $185 $-1 #
coedge $-1 $448 $187 $444 $449 reversed $117 $-1 #
coedge $-1 $187 $448 $450 $451 reversed $117 $-1 #
coedge $-1 $446 $445 $187 $306 reversed $185 $-1 #
edge $-1 $452 -13.431415414787089 $453 13.431415414787089 $305 $454 forward 7 unknown #
coedge $-1 $189 $188 $302 $447 reversed $74 $-1 #
coedge $-1 $455 $456 $188 $309 forward $300 $-1 #
edge $-1 $457 24.592361323989923 $315 38.797795510694925 $308 $458 forward 7 unknown #
coedge $-1 $459 $460 $189 $311 forward $442 $-1 #
edge $-1 $316 -38.797795510694925 $461 -24.592361323989923 $310 $462 forward 7 unknown #
coedge $-1 $463 $190 $460 $464 reversed $314 $-1 #
coedge $-1 $190 $463 $455 $465 reversed $314 $-1 #
loop $-1 $-1 $463 $441 #
vertex $-1 $465 $466 #
vertex $-1 $191 $467 #
straight-curve $-1 -70.492873928037355 -22.786219054390759 0 0 0 1 I I #
face $-1 $-1 $330 $44 $-1 $468 forward single #
loop $-1 $-1 $469 $192 #
plane-surface $-1 0 -37.871714043225928 0 0 1 0 0 0 1 forward_v I I I I #
coedge $-1 $470 $471 $472 $473 reversed $193 $-1 #
coedge $-1 $474 $195 $197 $328 forward $121 $-1 #
coedge $-1 $195 $474 $470 $475 forward $121 $-1 #
coedge $-1 $472 $198 $195 $325 forward $330 $-1 #
edge $-1 $332 -8.7450585894069661 $476 12.029741581515921 $324 $477 forward 7 unknown #
coedge $-1 $478 $479 $196 $327 forward $319 $-1 #
edge $-1 $480 -49.101365027321968 $331 -37.159196760896783 $326 $481 forward 7 unknown #
edge $-1 $332 -16.888776130567212 $480 -1.0048591735576163e-014 $197 $482 forward 7 unknown #
coedge $-1 $198 $472 $478 $483 forward $330 $-1 #
loop $-1 $-1 $472 $318 #
vertex $-1 $327 $484 #
vertex $-1 $199 $485 #
straight-curve $-1 7.1027170933524886 -68.78184677979722 13.431415414787089 0 1 0 I I #
coedge $-1 $334 $334 $-1 $486 reversed $202 $-1 #
edge $-1 $487 0 $487 6.2831853071796004 $203 $488 forward 7 unknown #
vertex $-1 $206 $489 #
ellipse-curve $-1 -7.7364258858781412 -31.900630048572957 7.460331281574498 0 -0.70710678939079041 0.70710677298230451 2 0 0 1 I I #
coedge $-1 $338 $338 $-1 $490 reversed $209 $-1 #
edge $-1 $491 0 $491 6.2831853071796004 $210 $492 forward 7 unknown #
vertex $-1 $213 $493 #
ellipse-curve $-1 1.1670599016602381 -31.900630048572957 7.460331281574498 0 -0.70710678939079041 0.70710677298230451 2 0 0 1 I I #
face $-1 $-1 $494 $47 $-1 $495 forward single #
loop $-1 $-1 $355 $214 #
plane-surface $-1 7.1027170933524886 -137.56369355959444 101.18122435136775 -1 0 0 0 -0.70710678939079041 0.70710677298230451 forward_v I I I I #
coedge $-1 $348 $496 $219 $353 forward $215 $-1 #
coedge $-1 $347 $217 $350 $497 reversed $135 $-1 #
coedge $-1 $217 $346 $498 $499 reversed $135 $-1 #
coedge $-1 $500 $345 $217 $349 forward $215 $-1 #
edge $-1 $501 -49.101365027321968 $502 -37.159196760896783 $348 $503 forward 7 unknown #
coedge $-1 $219 $218 $346 $497 forward $86 $-1 #
coedge $-1 $504 $498 $218 $352 forward $494 $-1 #
edge $-1 $505 -29.519858760329853 $356 -8.7450585894069661 $351 $506 forward 7 unknown #
edge $-1 $357 8.7450585894069661 $501 29.519858760329853 $345 $507 forward 7 unknown #
coedge $-1 $355 $220 $496 $508 reversed $343 $-1 #
coedge $-1 $220 $354 $504 $509 reversed $343 $-1 #
vertex $-1 $352 $510 #
vertex $-1 $353 $511 #
straight-curve $-1 7.1027170933524886 -37.871714043225936 1.4892471483618976 0 -0.70710677298230451 -0.70710678939079041 I I #
coedge $-1 $359 $359 $-1 $512 reversed $224 $-1 #
edge $-1 $513 0 $513 6.2831853071796004 $225 $514 forward 7 unknown #
vertex $-1 $228 $515 #
ellipse-curve $-1 13.038374285044753 -31.900630048572957 7.460331281574498 0 -0.70710678939079041 0.70710677298230451 2 0 0 1 I I #
coedge $-1 $363 $363 $-1 $516 reversed $231 $-1 #
edge $-1 $517 0 $517 6.2831853071796004 $232 $518 forward 7 unknown #
vertex $-1 $235 $519 #
ellipse-curve $-1 21.941860072583125 -31.900630048572957 7.460331281574498 0 -0.70710678939079041 0.70710677298230451 2 0 0 1 I I #
face $-1 $-1 $379 $50 $-1 $520 forward single #
loop $-1 $-1 $521 $236 #
plane-surface $-1 0 37.871714043225928 0 0 -1 0 0 0 -1 forward_v I I I I #
coedge $-1 $522 $523 $524 $525 reversed $237 $-1 #
coedge $-1 $526 $239 $241 $377 forward $149 $-1 #
coedge $-1 $239 $526 $522 $527 forward $149 $-1 #
coedge $-1 $524 $242 $239 $374 forward $379 $-1 #
edge $-1 $381 -25.868421507337111 $528 5.5254438780170219 $373 $529 forward 7 unknown #
coedge $-1 $530 $531 $240 $376 forward $368 $-1 #
edge $-1 $532 -75.705891982102131 $380 -69.443428370214065 $375 $533 forward 7 unknown #
edge $-1 $381 65.089088755112144 $532 75.743428086451843 $241 $534 forward 7 unknown #
coedge $-1 $242 $524 $530 $535 forward $379 $-1 #
loop $-1 $-1 $524 $367 #
vertex $-1 $376 $536 #
vertex $-1 $243 $537 #
straight-curve $-1 -36.039910321997155 29.73166917712425 13.431415414787097 0 -1 0 I I #
coedge $-1 $383 $383 $-1 $538 reversed $246 $-1 #
edge $-1 $539 0 $539 6.2831853071796004 $247 $540 forward 7 unknown #
vertex $-1 $250 $541 #
ellipse-curve $-1 -27.070234497610258 33.561943280844517 10.300183608843069 0 0.5877852598018023 0.80901698891910034 2.5 0 0 1 I I #
coedge $-1 $387 $387 $-1 $542 reversed $253 $-1 #
edge $-1 $543 0 $543 6.2831853071796004 $254 $544 forward 7 unknown #
vertex $-1 $257 $545 #
ellipse-curve $-1 -13.61572076102992 33.561943280844517 10.300183608843069 0 0.5877852598018023 0.80901698891910034 2.5 0 0 1 I I #
face $-1 $-1 $546 $53 $-1 $547 reversed single #
loop $-1 $-1 $264 $258 #
plane-surface $-1 0 0 13.431415414787089 0 0 1 1 0 0 forward_v I I I I #
coedge $-1 $548 $549 $550 $551 reversed $259 $-1 #
coedge $-1 $552 $261 $263 $401 forward $163 $-1 #
coedge $-1 $261 $552 $548 $553 forward $163 $-1 #
coedge $-1 $550 $264 $261 $398 forward $392 $-1 #
edge $-1 $404 1.5772732153354738 $554 32.971138600689606 $397 $555 forward 7 unknown #
coedge $-1 $556 $557 $262 $400 forward $546 $-1 #
edge $-1 $558 -75.705891982102131 $403 -69.443428370214065 $399 $559 forward 7 unknown #
edge $-1 $404 65.089088755112144 $558 75.743428086451843 $263 $560 forward 7 unknown #
coedge $-1 $264 $550 $556 $561 forward $392 $-1 #
vertex $-1 $400 $562 #
vertex $-1 $265 $563 #
straight-curve $-1 18.851479123348014 29.73166917712425 13.431415414787097 0 -1 0 I I #
coedge $-1 $406 $406 $-1 $564 reversed $268 $-1 #
edge $-1 $565 0 $565 6.2831853071796004 $269 $566 forward 7 unknown #
vertex $-1 $272 $567 #
ellipse-curve $-1 27.821154947734911 33.561943280844517 10.300183608843069 0 0.5877852598018023 0.80901698891910034 2.5 0 0 1 I I #
coedge $-1 $410 $410 $-1 $568 reversed $275 $-1 #
edge $-1 $569 0 $569 6.2831853071796004 $276 $570 forward 7 unknown #
vertex $-1 $279 $571 #
ellipse-curve $-1 41.275668684315249 33.561943280844517 10.300183608843069 0 0.5877852598018023 0.80901698891910034 2.5 0 0 1 I I #
face $-1 $-1 $295 $42 $-1 $572 reversed single #
loop $-1 $-1 $430 $280 #
plane-surface $-1 0 37.871714043225928 0 0 -1 0 0 0 -1 forward_v I I I I #
coedge $-1 $573 $428 $431 $574 forward $281 $-1 #
coedge $-1 $434 $283 $284 $422 reversed $177 $-1 #
coedge $-1 $428 $573 $283 $420 reversed $281 $-1 #
edge $-1 $435 -13.431415414787089 $575 13.431415414787089 $419 $576 forward 7 unknown #
coedge $-1 $285 $284 $573 $577 forward $113 $-1 #
edge $-1 $426 -70.492873928037355 $575 70.492873928037355 $418 $578 forward 7 unknown #
coedge $-1 $431 $430 $285 $424 reversed $415 $-1 #
edge $-1 $579 -70.492873928037355 $425 70.492873928037355 $423 $580 forward 7 unknown #
vertex $-1 $287 $581 #
vertex $-1 $437 $582 #
straight-curve $-1 70.492873928037355 0 -13.431415414787089 0 -1 0 I I #
coedge $-1 $417 $419 $288 $429 reversed $281 $-1 #
edge $-1 $432 -37.871714043225928 $435 37.871714043225928 $428 $583 forward 7 unknown #
coedge $-1 $423 $289 $294 $438 forward $415 $-1 #
coedge $-1 $289 $423 $417 $574 reversed $415 $-1 #
vertex $-1 $290 $584 #
straight-curve $-1 0 37.871714043225928 13.431415414787089 -1 0 0 I I #
coedge $-1 $291 $418 $293 $437 reversed $177 $-1 #
vertex $-1 $429 $585 #
straight-curve $-1 0 -37.871714043225928 13.431415414787089 1 0 0 I I #
edge $-1 $296 -13.431415414787089 $426 13.431415414787089 $293 $586 forward 7 unknown #
edge $-1 $297 -13.431415414787089 $425 13.431415414787089 $294 $587 forward 7 unknown #
point $-1 70.492873928037355 -37.871714043225928 13.431415414787089 #
point $-1 70.492873928037355 37.871714043225928 13.431415414787089 #
face $-1 $-1 $314 $43 $-1 $588 reversed single #
loop $-1 $-1 $450 $299 #
plane-surface $-1 0 0 13.431415414787089 0 0 1 1 0 0 forward_v I I I I #
coedge $-1 $456 $455 $303 $449 forward $300 $-1 #
coedge $-1 $305 $302 $456 $589 reversed $185 $-1 #
coedge $-1 $302 $305 $459 $590 reversed $185 $-1 #
edge $-1 $461 -13.431415414787089 $457 13.431415414787089 $302 $591 forward 7 unknown #
coedge $-1 $304 $303 $463 $592 reversed $117 $-1 #
edge $-1 $593 -38.797795510694925 $453 -24.592361323989923 $444 $594 forward 7 unknown #
coedge $-1 $460 $459 $304 $451 forward $442 $-1 #
edge $-1 $452 24.592361323989923 $595 38.797795510694925 $450 $596 forward 7 unknown #
vertex $-1 $451 $597 #
vertex $-1 $449 $598 #
straight-curve $-1 -56.287439741332349 -16.767885749450212 0 0 0 -1 I I #
coedge $-1 $444 $308 $313 $465 forward $300 $-1 #
coedge $-1 $308 $444 $445 $589 forward $300 $-1 #
vertex $-1 $309 $599 #
straight-curve $-1 -31.695078417342426 -22.786219054390759 -13.431415414787089 -1 0 0 I I #
coedge $-1 $450 $310 $446 $590 forward $442 $-1 #
coedge $-1 $310 $450 $312 $464 forward $442 $-1 #
vertex $-1 $311 $600 #
straight-curve $-1 -31.695078417342426 -22.786219054390759 13.431415414787089 1 0 0 I I #
coedge $-1 $313 $312 $448 $592 forward $314 $-1 #
edge $-1 $595 16.767885749450212 $316 22.786219054390759 $312 $601 forward 7 unknown #
edge $-1 $315 -22.786219054390759 $593 -16.767885749450212 $313 $602 forward 7 unknown #
point $-1 -70.492873928037355 -22.786219054390759 -13.431415414787089 #
point $-1 -70.492873928037355 -22.786219054390759 13.431415414787089 #
plane-surface $-1 0 0 13.431415414787089 0 0 1 1 0 0 forward_v I I I I #
coedge $-1 $479 $478 $471 $603 forward $319 $-1 #
coedge $-1 $471 $321 $323 $475 reversed $193 $-1 #
coedge $-1 $321 $470 $469 $603 reversed $193 $-1 #
coedge $-1 $329 $324 $321 $473 forward $330 $-1 #
edge $-1 $476 -42.852300725877228 $604 -30.910132736571292 $472 $605 forward 7 unknown #
coedge $-1 $323 $322 $479 $606 reversed $121 $-1 #
edge $-1 $607 1.0048591735576163e-014 $476 16.888776130567212 $470 $608 forward 7 unknown #
vertex $-1 $325 $609 #
straight-curve $-1 -1.6423414960544775 -25.929546053919989 13.431415414787089 -1 0 0 I I #
coedge $-1 $469 $326 $329 $483 reversed $319 $-1 #
coedge $-1 $326 $469 $474 $606 forward $319 $-1 #
vertex $-1 $327 $610 #
straight-curve $-1 7.1027170933524886 -37.871714043225928 50.590612175683873 0 0 1 I I #
straight-curve $-1 7.1027170933524886 -37.871714043225936 1.4892471483618976 0 -0.70710677298230451 -0.70710678939079041 I I #
edge $-1 $604 -13.672083077570399 $331 7.1027170933524886 $478 $611 forward 7 unknown #
point $-1 7.1027170933524886 -37.871714043225928 13.431415414787089 #
point $-1 7.1027170933524886 -25.929546053919989 13.431415414787089 #
edge $-1 $612 1 $612 0 $334 $-1 forward 7 unknown #
vertex $-1 $335 $613 #
ellipse-curve $-1 -7.7364258858781412 -30.39202622665665 5.9517274946654988 0 -0.70710678939079041 0.70710677298230451 2 0 0 1 I I #
point $-1 -5.7364258858781412 -31.90063004857295 7.4603312815744909 #
edge $-1 $614 1 $614 0 $338 $-1 forward 7 unknown #
vertex $-1 $339 $615 #
ellipse-curve $-1 1.1670599016602381 -30.39202622665665 5.9517274946654988 0 -0.70710678939079041 0.70710677298230451 2 0 0 1 I I #
point $-1 3.1670599016602381 -31.90063004857295 7.4603312815744909 #
loop $-1 $-1 $351 $342 #
plane-surface $-1 0 0 13.431415414787089 0 0 1 1 0 0 forward_v I I I I #
coedge $-1 $345 $500 $354 $508 forward $215 $-1 #
edge $-1 $505 -16.888776130567212 $501 -1.0048591735576163e-014 $346 $616 forward 7 unknown #
coedge $-1 $351 $617 $347 $499 forward $494 $-1 #
edge $-1 $502 30.910132736571292 $505 42.852300725877228 $498 $618 forward 7 unknown #
coedge $-1 $496 $348 $617 $619 reversed $215 $-1 #
vertex $-1 $349 $620 #
vertex $-1 $349 $621 #
straight-curve $-1 27.877517264275376 -37.871714043225928 50.590612175683873 0 0 1 I I #
coedge $-1 $617 $351 $355 $509 forward $494 $-1 #
vertex $-1 $499 $622 #
straight-curve $-1 -1.6423414960544775 -25.929546053919989 13.431415414787089 -1 0 0 I I #
straight-curve $-1 -1.6423414960544775 -37.871714043225928 1.4892471483619065 1 0 0 I I #
edge $-1 $623 37.159196760896783 $357 49.101365027321968 $496 $624 forward 7 unknown #
edge $-1 $356 -42.852300725877228 $623 -30.910132736571292 $504 $625 forward 7 unknown #
point $-1 7.1027170933524886 -25.929546053919989 13.431415414787089 #
point $-1 7.1027170933524886 -37.871714043225928 1.4892471483619047 #
edge $-1 $626 1 $626 0 $359 $-1 forward 7 unknown #
vertex $-1 $360 $627 #
ellipse-curve $-1 13.038374285044753 -30.39202622665665 5.9517274946654988 0 -0.70710678939079041 0.70710677298230451 2 0 0 1 I I #
point $-1 15.038374285044753 -31.90063004857295 7.4603312815744909 #
edge $-1 $628 1 $628 0 $363 $-1 forward 7 unknown #
vertex $-1 $364 $629 #
ellipse-curve $-1 21.941860072583125 -30.39202622665665 5.9517274946654988 0 -0.70710678939079041 0.70710677298230451 2 0 0 1 I I #
point $-1 23.941860072583125 -31.90063004857295 7.4603312815744909 #
plane-surface $-1 0 0 13.431415414787089 0 0 1 1 0 0 forward_v I I I I #
coedge $-1 $531 $530 $523 $630 forward $368 $-1 #
coedge $-1 $523 $370 $372 $527 reversed $237 $-1 #
coedge $-1 $370 $522 $521 $630 reversed $237 $-1 #
coedge $-1 $378 $373 $370 $525 forward $379 $-1 #
edge $-1 $528 -0.4794966586611018 $631 8.1400448661016789 $524 $632 forward 7 unknown #
coedge $-1 $372 $371 $531 $633 reversed $149 $-1 #
edge $-1 $634 -75.743428086451843 $528 -65.089088755112144 $522 $635 forward 7 unknown #
vertex $-1 $374 $636 #
straight-curve $-1 -10.171488814660044 29.252172518463134 13.431415414787089 1 0 0 I I #
coedge $-1 $521 $375 $378 $535 reversed $368 $-1 #
coedge $-1 $375 $521 $526 $633 forward $368 $-1 #
vertex $-1 $376 $637 #
straight-curve $-1 -36.039910321997155 37.871714043225928 82.874843785001147 0 0 1 I I #
straight-curve $-1 -36.039910321997155 -23.406006077685753 51.689822358973245 0 0.80901698891910034 -0.5877852598018023 I I #
edge $-1 $631 4.6460449366430225 $380 36.039910321997155 $530 $638 forward 7 unknown #
point $-1 -36.039910321997155 37.871714043225928 13.431415414787089 #
point $-1 -36.039910321997155 29.252172518463148 13.431415414787082 #
edge $-1 $639 1 $639 0 $383 $-1 forward 7 unknown #
vertex $-1 $384 $640 #
ellipse-curve $-1 -27.070234497610258 30.862942145867862 6.585327315841905 0 0.5877852598018023 0.80901698891910034 2.5 0 0 1 I I #
point $-1 -24.570234497610258 33.561943280844488 10.300183608843032 #
edge $-1 $641 1 $641 0 $387 $-1 forward 7 unknown #
vertex $-1 $388 $642 #
ellipse-curve $-1 -13.61572076102992 30.862942145867862 6.585327315841905 0 0.5877852598018023 0.80901698891910034 2.5 0 0 1 I I #
point $-1 -11.11572076102992 33.561943280844488 10.300183608843032 #
loop $-1 $-1 $399 $391 #
plane-surface $-1 0 37.871714043225928 0 0 -1 0 0 0 -1 forward_v I I I I #
coedge $-1 $549 $394 $396 $553 reversed $259 $-1 #
coedge $-1 $394 $548 $643 $644 reversed $259 $-1 #
coedge $-1 $402 $397 $394 $551 forward $392 $-1 #
edge $-1 $554 -0.4794966586611018 $645 8.1400448661016789 $550 $646 forward 7 unknown #
coedge $-1 $396 $395 $557 $647 reversed $163 $-1 #
edge $-1 $648 -75.743428086451843 $554 -65.089088755112144 $548 $649 forward 7 unknown #
vertex $-1 $398 $650 #
straight-curve $-1 17.27420590801254 29.252172518463134 13.431415414787089 1 0 0 I I #
coedge $-1 $643 $399 $402 $561 reversed $546 $-1 #
coedge $-1 $399 $643 $552 $647 forward $546 $-1 #
vertex $-1 $400 $651 #
straight-curve $-1 18.851479123348014 37.871714043225928 82.874843785001147 0 0 1 I I #
straight-curve $-1 18.851479123348014 -23.406006077685753 51.689822358973245 0 0.80901698891910034 -0.5877852598018023 I I #
edge $-1 $645 -50.245344508702146 $403 -18.851479123348014 $556 $652 forward 7 unknown #
point $-1 18.851479123348014 37.871714043225928 13.431415414787089 #
point $-1 18.851479123348014 29.252172518463148 13.431415414787082 #
edge $-1 $653 1 $653 0 $406 $-1 forward 7 unknown #
vertex $-1 $407 $654 #
ellipse-curve $-1 27.821154947734911 30.862942145867862 6.585327315841905 0 0.5877852598018023 0.80901698891910034 2.5 0 0 1 I I #
point $-1 30.321154947734911 33.561943280844488 10.300183608843032 #
edge $-1 $655 1 $655 0 $410 $-1 forward 7 unknown #
vertex $-1 $411 $656 #
ellipse-curve $-1 41.275668684315249 30.862942145867862 6.585327315841905 0 0.5877852598018023 0.80901698891910034 2.5 0 0 1 I I #
point $-1 43.775668684315249 33.561943280844488 10.300183608843032 #
plane-surface $-1 70.492873928037355 0 0 -1 0 0 0 0 1 forward_v I I I I #
coedge $-1 $419 $417 $421 $577 reversed $281 $-1 #
edge $-1 $432 -13.431415414787089 $579 13.431415414787089 $431 $657 forward 7 unknown #
vertex $-1 $577 $658 #
straight-curve $-1 -70.492873928037355 -37.871714043225928 0 0 0 -1 I I #
edge $-1 $575 -37.871714043225928 $579 37.871714043225928 $573 $659 forward 7 unknown #
straight-curve $-1 0 -37.871714043225928 -13.431415414787089 -1 0 0 I I #
vertex $-1 $424 $660 #
straight-curve $-1 0 37.871714043225928 -13.431415414787089 1 0 0 I I #
point $-1 70.492873928037355 37.871714043225928 -13.431415414787089 #
point $-1 70.492873928037355 -37.871714043225928 -13.431415414787089 #
straight-curve $-1 -70.492873928037355 0 13.431415414787089 0 -1 0 I I #
point $-1 -70.492873928037355 37.871714043225928 13.431415414787089 #
point $-1 -70.492873928037355 -37.871714043225928 13.431415414787089 #
straight-curve $-1 70.492873928037355 -37.871714043225928 0 0 0 -1 I I #
straight-curve $-1 70.492873928037355 37.871714043225928 0 0 0 -1 I I #
plane-surface $-1 -70.492873928037355 0 0 1 0 0 0 0 -1 forward_v I I I I #
edge $-1 $453 6.879359548489969 $457 12.897692853430517 $456 $661 forward 7 unknown #
edge $-1 $461 -12.897692853430517 $452 -6.879359548489969 $459 $662 forward 7 unknown #
straight-curve $-1 -56.287439741332349 -22.786219054390759 0 0 0 -1 I I #
edge $-1 $595 -13.431415414787089 $593 13.431415414787089 $463 $663 forward 7 unknown #
vertex $-1 $592 $664 #
straight-curve $-1 -31.695078417342426 -16.767885749450212 -13.431415414787089 1 0 0 I I #
vertex $-1 $464 $665 #
straight-curve $-1 -31.695078417342426 -16.767885749450212 13.431415414787089 -1 0 0 I I #
point $-1 -56.287439741332349 -16.767885749450212 13.431415414787089 #
point $-1 -56.287439741332349 -16.767885749450212 -13.431415414787089 #
point $-1 -56.287439741332349 -22.786219054390759 -13.431415414787089 #
point $-1 -56.287439741332349 -22.786219054390759 13.431415414787089 #
straight-curve $-1 -70.492873928037355 0 13.431415414787089 0 -1 0 I I #
straight-curve $-1 -70.492873928037355 0 -13.431415414787089 0 1 0 I I #
edge $-1 $604 37.159196760896783 $607 49.101365027321968 $469 $666 forward 7 unknown #
vertex $-1 $483 $667 #
straight-curve $-1 -13.672083077570399 -68.78184677979722 13.431415414787089 0 -1 0 I I #
edge $-1 $607 -12.029741581515921 $480 8.7450585894069661 $479 $668 forward 7 unknown #
vertex $-1 $606 $669 #
straight-curve $-1 -13.672083077570399 -37.871714043225936 1.4892471483618976 0 0.70710677298230451 0.70710678939079041 I I #
point $-1 -13.672083077570399 -25.929546053919989 13.431415414787089 #
point $-1 7.1027170933524886 -37.871714043225928 1.4892471483619047 #
straight-curve $-1 0 -37.871714043225928 13.431415414787089 1 0 0 I I #
vertex $-1 $486 $670 #
point $-1 -5.7364258858781412 -30.39202622665665 5.9517274946654988 #
vertex $-1 $490 $671 #
point $-1 3.1670599016602381 -30.39202622665665 5.9517274946654988 #
straight-curve $-1 27.877517264275376 -37.871714043225936 1.4892471483618976 0 -0.70710677298230451 -0.70710678939079041 I I #
coedge $-1 $498 $504 $500 $619 forward $494 $-1 #
straight-curve $-1 27.877517264275376 -68.78184677979722 13.431415414787089 0 1 0 I I #
edge $-1 $623 7.1027170933524886 $502 27.877517264275376 $500 $672 forward 7 unknown #
point $-1 27.877517264275376 -37.871714043225928 1.4892471483619047 #
point $-1 27.877517264275376 -37.871714043225928 13.431415414787089 #
point $-1 27.877517264275376 -25.929546053919989 13.431415414787089 #
vertex $-1 $619 $673 #
straight-curve $-1 7.1027170933524886 -37.871714043225928 50.590612175683873 0 0 -1 I I #
straight-curve $-1 7.1027170933524886 -68.78184677979722 13.431415414787089 0 -1 0 I I #
vertex $-1 $512 $674 #
point $-1 15.038374285044753 -30.39202622665665 5.9517274946654988 #
vertex $-1 $516 $675 #
point $-1 23.941860072583125 -30.39202622665665 5.9517274946654988 #
edge $-1 $631 69.443428370214065 $634 75.705891982102131 $521 $676 forward 7 unknown #
vertex $-1 $535 $677 #
straight-curve $-1 -4.6460449366430225 29.73166917712425 13.431415414787097 0 1 0 I I #
edge $-1 $634 -5.5254438780170219 $532 25.868421507337111 $531 $678 forward 7 unknown #
vertex $-1 $633 $679 #
straight-curve $-1 -4.6460449366430225 -23.406006077685753 51.689822358973245 0 -0.80901698891910034 0.5877852598018023 I I #
point $-1 -4.6460449366430225 29.252172518463148 13.431415414787082 #
point $-1 -36.039910321997155 37.871714043225928 7.1689518028990165 #
straight-curve $-1 0 37.871714043225928 13.431415414787089 -1 0 0 I I #
vertex $-1 $538 $680 #
point $-1 -24.570234497610258 30.862942145867862 6.585327315841905 #
vertex $-1 $542 $681 #
point $-1 -11.11572076102992 30.862942145867862 6.585327315841905 #
coedge $-1 $557 $556 $549 $644 forward $546 $-1 #
edge $-1 $645 69.443428370214065 $648 75.705891982102131 $643 $682 forward 7 unknown #
vertex $-1 $561 $683 #
straight-curve $-1 50.245344508702146 29.73166917712425 13.431415414787097 0 1 0 I I #
edge $-1 $648 -32.971138600689606 $558 -1.5772732153354738 $557 $684 forward 7 unknown #
vertex $-1 $647 $685 #
straight-curve $-1 50.245344508702146 -23.406006077685753 51.689822358973245 0 -0.80901698891910034 0.5877852598018023 I I #
point $-1 50.245344508702146 29.252172518463148 13.431415414787082 #
point $-1 18.851479123348014 37.871714043225928 7.1689518028990165 #
straight-curve $-1 0 37.871714043225928 13.431415414787089 -1 0 0 I I #
vertex $-1 $564 $686 #
point $-1 30.321154947734911 30.862942145867862 6.585327315841905 #
vertex $-1 $568 $687 #
point $-1 43.775668684315249 30.862942145867862 6.585327315841905 #
straight-curve $-1 -70.492873928037355 37.871714043225928 0 0 0 -1 I I #
point $-1 -70.492873928037355 -37.871714043225928 -13.431415414787089 #
straight-curve $-1 -70.492873928037355 0 -13.431415414787089 0 1 0 I I #
point $-1 -70.492873928037355 37.871714043225928 -13.431415414787089 #
straight-curve $-1 -56.287439741332349 -9.8885262009602428 -13.431415414787089 0 -1 0 I I #
straight-curve $-1 -56.287439741332349 -9.8885262009602428 13.431415414787089 0 1 0 I I #
straight-curve $-1 -70.492873928037355 -16.767885749450212 0 0 0 -1 I I #
point $-1 -70.492873928037355 -16.767885749450212 -13.431415414787089 #
point $-1 -70.492873928037355 -16.767885749450212 13.431415414787089 #
straight-curve $-1 -13.672083077570399 -37.871714043225928 50.590612175683873 0 0 -1 I I #
point $-1 -13.672083077570399 -37.871714043225928 13.431415414787089 #
straight-curve $-1 -1.6423414960544775 -37.871714043225928 1.4892471483619065 1 0 0 I I #
point $-1 -13.672083077570399 -37.871714043225928 1.4892471483619047 #
point $-1 -7.7364258858781412 -28.977812647875073 4.53751394870089 #
point $-1 1.1670599016602381 -28.977812647875073 4.53751394870089 #
straight-curve $-1 0 -37.871714043225928 13.431415414787089 1 0 0 I I #
point $-1 7.1027170933524886 -37.871714043225928 13.431415414787089 #
point $-1 13.038374285044753 -28.977812647875073 4.53751394870089 #
point $-1 21.941860072583125 -28.977812647875073 4.53751394870089 #
straight-curve $-1 -4.6460449366430225 37.871714043225928 82.874843785001147 0 0 -1 I I #
point $-1 -4.6460449366430225 37.871714043225928 13.431415414787089 #
straight-curve $-1 -10.171488814660044 37.871714043225936 7.1689518028990236 -1 0 0 I I #
point $-1 -4.6460449366430225 37.871714043225928 7.1689518028990165 #
point $-1 -27.070234497610258 29.393478996363356 4.5627848435441543 #
point $-1 -13.61572076102992 29.393478996363356 4.5627848435441543 #
straight-curve $-1 50.245344508702146 37.871714043225928 82.874843785001147 0 0 -1 I I #
point $-1 50.245344508702146 37.871714043225928 13.431415414787089 #
straight-curve $-1 17.27420590801254 37.871714043225936 7.1689518028990236 -1 0 0 I I #
point $-1 50.245344508702146 37.871714043225928 7.1689518028990165 #
point $-1 27.821154947734911 29.393478996363356 4.5627848435441543 #
point $-1 41.275668684315249 29.393478996363356 4.5627848435441543 #
End-of-ACIS-data 