500 0 8 0           
7 Unknown 11 ACIS 5.0 NT 24 Fri Mar 26 01:08:54 1999 
-1 9.9999999999999995e-007 1e-010 
body $-1 $8 $-1 $9 #
body $-1 $10 $-1 $11 #
body $-1 $12 $-1 $13 #
body $-1 $14 $-1 $15 #
body $-1 $16 $-1 $17 #
body $-1 $18 $-1 $19 #
body $-1 $20 $-1 $21 #
body $-1 $22 $-1 $23 #
lump $-1 $-1 $24 $0 #
transform $-1 1 0 0 0 1 0 0 0 1 61.072420422986539 41.884009048839104 20.71920772345478 1 rotate no_reflect no_shear #
lump $-1 $-1 $25 $1 #
transform $-1 1 0 0 0 1 0 0 0 1 61.072420422986539 41.884009048839104 20.71920772345478 1 rotate no_reflect no_shear #
lump $-1 $-1 $26 $2 #
transform $-1 1 0 0 0 1 0 0 0 1 61.072420422986539 41.884009048839104 20.71920772345478 1 rotate no_reflect no_shear #
lump $-1 $-1 $27 $3 #
transform $-1 1 0 0 0 1 0 0 0 1 61.072420422986539 41.884009048839104 20.71920772345478 1 rotate no_reflect no_shear #
lump $-1 $-1 $28 $4 #
transform $-1 1 0 0 0 1 0 0 0 1 61.072420422986539 41.884009048839104 20.71920772345478 1 rotate no_reflect no_shear #
lump $-1 $-1 $29 $5 #
transform $-1 1 0 0 0 1 0 0 0 1 61.072420422986539 41.884009048839104 20.71920772345478 1 rotate no_reflect no_shear #
lump $-1 $-1 $30 $6 #
transform $-1 1 0 0 0 1 0 0 0 1 61.072420422986539 41.884009048839104 20.71920772345478 1 rotate no_reflect no_shear #
lump $-1 $-1 $31 $7 #
transform $-1 1 0 0 0 1 0 0 0 1 61.072420422986539 41.884009048839104 20.71920772345478 1 rotate no_reflect no_shear #
shell $-1 $-1 $-1 $32 $-1 $8 #
shell $-1 $-1 $-1 $33 $-1 $10 #
shell $-1 $-1 $-1 $34 $-1 $12 #
shell $-1 $-1 $-1 $35 $-1 $14 #
shell $-1 $-1 $-1 $36 $-1 $16 #
shell $-1 $-1 $-1 $37 $-1 $18 #
shell $-1 $-1 $-1 $38 $-1 $20 #
shell $-1 $-1 $-1 $39 $-1 $22 #
face $-1 $40 $41 $24 $-1 $42 forward single #
face $-1 $43 $44 $25 $-1 $45 reversed single #
face $-1 $46 $47 $26 $-1 $48 reversed single #
face $-1 $49 $50 $27 $-1 $51 forward single #
face $-1 $52 $53 $28 $-1 $54 forward single #
face $-1 $55 $56 $29 $-1 $57 reversed single #
face $-1 $58 $59 $30 $-1 $60 forward single #
face $-1 $61 $62 $31 $-1 $63 forward single #
face $-1 $64 $65 $24 $-1 $66 reversed single #
loop $-1 $-1 $67 $32 #
plane-surface $-1 0 0 20.71920772345478 0 0 1 1 0 0 forward_v I I I I #
face $-1 $68 $69 $25 $-1 $70 reversed single #
loop $-1 $-1 $71 $33 #
plane-surface $-1 -49.663223370175444 0 15.043129960755596 0 0 1 1 0 0 forward_v I I I I #
face $-1 $72 $73 $26 $-1 $74 reversed single #
loop $-1 $-1 $75 $34 #
plane-surface $-1 39.249460533144429 -106.61091409446574 116.51814721615298 -1 0 0 0 -0.52991927123019833 0.84804809178421925 forward_v I I I I #
face $-1 $76 $77 $27 $-1 $78 forward single #
loop $-1 $79 $80 $35 #
cone-surface $-1 24.116152758285253 -33.694596991365934 13.690469018135172 0 0.52991927123019833 -0.84804809178421925 2.5 0 0 1 I I 0 1 2.5 forward I I I I #
face $-1 $81 $82 $28 $-1 $83 forward single #
loop $-1 $84 $85 $36 #
cone-surface $-1 33.196137423200753 -33.694596991365934 13.690469018135172 0 0.52991927123019833 -0.84804809178421925 2.5 0 0 1 I I 0 1 2.5 forward I I I I #
face $-1 $86 $87 $29 $-1 $88 reversed single #
loop $-1 $-1 $89 $37 #
plane-surface $-1 18.062829648341591 35.571606194183786 160.90843431887271 1 0 0 0 -0.52991927123019833 -0.84804809178421925 forward_v I I I I #
face $-1 $90 $91 $30 $-1 $92 forward single #
loop $-1 $93 $94 $38 #
cone-surface $-1 24.116152758285253 33.69459699136592 13.690469018135179 0 -0.52991927123019833 -0.84804809178421925 2.5 0 0 1 I I 0 1 2.5 forward I I I I #
face $-1 $95 $96 $31 $-1 $97 forward single #
loop $-1 $98 $99 $39 #
cone-surface $-1 33.196137423200753 33.69459699136592 13.690469018135179 0 -0.52991927123019833 -0.84804809178421925 2.5 0 0 1 I I 0 1 2.5 forward I I I I #
face $-1 $100 $101 $24 $-1 $102 reversed single #
loop $-1 $-1 $103 $40 #
plane-surface $-1 0 0 -20.71920772345478 0 0 1 1 0 0 forward_v I I I I #
coedge $-1 $104 $105 $106 $107 forward $41 $-1 #
face $-1 $108 $109 $25 $-1 $110 reversed single #
loop $-1 $-1 $111 $43 #
plane-surface $-1 -38.25402631736435 0 17.88116884210519 -1 0 0 0 0 1 forward_v I I I I #
coedge $-1 $112 $113 $114 $115 forward $44 $-1 #
face $-1 $116 $117 $26 $-1 $118 reversed single #
loop $-1 $-1 $119 $46 #
plane-surface $-1 28.65614509074301 -41.884009048839118 12.933448015438344 0 -0.52991927123019833 0.84804809178421925 1 0 0 forward_v I I I I #
coedge $-1 $120 $121 $122 $123 reversed $47 $-1 #
face $-1 $-1 $124 $27 $-1 $125 forward single #
loop $-1 $126 $127 $49 #
cone-surface $-1 24.116152758285253 -31.072695778254637 9.494550052093512 0 0.52991927123019833 -0.84804809178421925 1.25 0 0 1 I I -0.70710678118654746 0.70710678118654746 1.25 forward I I I I #
loop $-1 $-1 $128 $35 #
coedge $-1 $80 $80 $129 $130 reversed $50 $-1 #
face $-1 $-1 $131 $28 $-1 $132 forward single #
loop $-1 $133 $134 $52 #
cone-surface $-1 33.196137423200753 -31.072695778254637 9.494550052093512 0 0.52991927123019833 -0.84804809178421925 1.25 0 0 1 I I -0.70710678118654746 0.70710678118654746 1.25 forward I I I I #
loop $-1 $-1 $135 $36 #
coedge $-1 $85 $85 $136 $137 reversed $53 $-1 #
face $-1 $138 $139 $29 $-1 $140 reversed single #
loop $-1 $-1 $141 $55 #
plane-surface $-1 28.65614509074301 -29.155298851442836 57.323735118158069 0 0.52991927123019833 0.84804809178421925 1 0 0 forward_v I I I I #
coedge $-1 $142 $143 $144 $145 reversed $56 $-1 #
face $-1 $-1 $146 $30 $-1 $147 forward single #
loop $-1 $148 $149 $58 #
cone-surface $-1 24.116152758285253 31.072695778254626 9.4945500520935191 0 -0.52991927123019833 -0.84804809178421925 1.25 0 0 1 I I -0.70710678118654746 0.70710678118654746 1.25 forward I I I I #
loop $-1 $-1 $150 $38 #
coedge $-1 $94 $94 $151 $152 reversed $59 $-1 #
face $-1 $-1 $153 $31 $-1 $154 forward single #
loop $-1 $155 $156 $61 #
cone-surface $-1 33.196137423200753 31.072695778254626 9.4945500520935191 0 -0.52991927123019833 -0.84804809178421925 1.25 0 0 1 I I -0.70710678118654746 0.70710678118654746 1.25 forward I I I I #
loop $-1 $-1 $157 $39 #
coedge $-1 $99 $99 $158 $159 reversed $62 $-1 #
face $-1 $160 $161 $24 $-1 $162 reversed single #
loop $-1 $-1 $163 $64 #
plane-surface $-1 0 -41.884009048839104 0 0 1 0 0 0 1 forward_v I I I I #
coedge $-1 $164 $165 $166 $167 forward $65 $-1 #
coedge $-1 $168 $67 $169 $170 forward $41 $-1 #
coedge $-1 $67 $168 $171 $172 forward $41 $-1 #
coedge $-1 $173 $174 $67 $107 reversed $175 $-1 #
edge $-1 $176 -41.884009048839104 $177 41.884009048839104 $106 $178 forward 7 unknown #
face $-1 $179 $180 $25 $-1 $181 reversed single #
loop $-1 $-1 $182 $68 #
plane-surface $-1 0 41.884009048839104 0 0 -1 0 0 0 -1 forward_v I I I I #
coedge $-1 $114 $183 $184 $185 reversed $69 $-1 #
coedge $-1 $186 $71 $187 $188 reversed $44 $-1 #
coedge $-1 $71 $186 $189 $190 reversed $44 $-1 #
coedge $-1 $191 $111 $71 $115 reversed $69 $-1 #
edge $-1 $192 -41.884009048839104 $193 41.884009048839104 $114 $194 forward 7 unknown #
face $-1 $195 $196 $26 $-1 $197 reversed single #
loop $-1 $-1 $198 $72 #
plane-surface $-1 18.062829648341591 -106.61091409446574 116.51814721615298 1 0 0 0 0.52991927123019833 -0.84804809178421925 forward_v I I I I #
coedge $-1 $199 $200 $201 $202 reversed $73 $-1 #
coedge $-1 $121 $75 $203 $204 reversed $47 $-1 #
coedge $-1 $75 $120 $199 $205 reversed $47 $-1 #
coedge $-1 $201 $206 $75 $123 forward $207 $-1 #
edge $-1 $208 11.421447998393766 $209 23.881267865192989 $122 $210 forward 7 unknown #
loop $-1 $-1 $129 $76 #
plane-surface $-1 28.65614509074301 -41.884009048839118 12.933448015438344 0 -0.52991927123019833 0.84804809178421925 1 0 0 forward_v I I I I #
loop $-1 $-1 $211 $49 #
coedge $-1 $127 $127 $128 $212 reversed $77 $-1 #
coedge $-1 $128 $128 $127 $212 forward $79 $-1 #
coedge $-1 $129 $129 $80 $130 forward $124 $-1 #
edge $-1 $213 1.5111591249854472e-016 $213 6.2831853071796004 $129 $214 forward 7 unknown #
loop $-1 $-1 $136 $81 #
plane-surface $-1 28.65614509074301 -41.884009048839118 12.933448015438344 0 -0.52991927123019833 0.84804809178421925 1 0 0 forward_v I I I I #
loop $-1 $-1 $215 $52 #
coedge $-1 $134 $134 $135 $216 reversed $82 $-1 #
coedge $-1 $135 $135 $134 $216 forward $84 $-1 #
coedge $-1 $136 $136 $85 $137 forward $131 $-1 #
edge $-1 $217 1.5111591249854472e-016 $217 6.2831853071796004 $136 $218 forward 7 unknown #
face $-1 $219 $220 $29 $-1 $221 forward single #
loop $-1 $-1 $222 $86 #
plane-surface $-1 39.249460533144429 35.571606194183786 160.90843431887271 -1 0 0 0 0.52991927123019833 0.84804809178421925 forward_v I I I I #
coedge $-1 $223 $224 $225 $226 reversed $87 $-1 #
coedge $-1 $143 $89 $227 $228 reversed $56 $-1 #
coedge $-1 $89 $142 $223 $229 reversed $56 $-1 #
coedge $-1 $225 $230 $89 $145 forward $220 $-1 #
edge $-1 $231 -24.098205951747211 $232 -11.638386084948024 $144 $233 forward 7 unknown #
loop $-1 $-1 $151 $90 #
plane-surface $-1 28.65614509074301 -29.155298851442836 57.323735118158069 0 0.52991927123019833 0.84804809178421925 1 0 0 forward_v I I I I #
loop $-1 $-1 $234 $58 #
coedge $-1 $149 $149 $150 $235 reversed $91 $-1 #
coedge $-1 $150 $150 $149 $235 forward $93 $-1 #
coedge $-1 $151 $151 $94 $152 forward $146 $-1 #
edge $-1 $236 4.5082875242671807e-016 $236 6.2831853071796013 $151 $237 forward 7 unknown #
loop $-1 $-1 $158 $95 #
plane-surface $-1 28.65614509074301 -29.155298851442836 57.323735118158069 0 0.52991927123019833 0.84804809178421925 1 0 0 forward_v I I I I #
loop $-1 $-1 $238 $61 #
coedge $-1 $156 $156 $157 $239 reversed $96 $-1 #
coedge $-1 $157 $157 $156 $239 forward $98 $-1 #
coedge $-1 $158 $158 $99 $159 forward $153 $-1 #
edge $-1 $240 4.5082875242671807e-016 $240 6.2831853071796013 $158 $241 forward 7 unknown #
face $-1 $242 $243 $24 $-1 $244 reversed single #
loop $-1 $-1 $245 $100 #
plane-surface $-1 -61.072420422986539 0 0 1 0 0 0 0 -1 forward_v I I I I #
coedge $-1 $246 $171 $247 $248 forward $101 $-1 #
coedge $-1 $249 $103 $246 $250 forward $65 $-1 #
coedge $-1 $103 $249 $251 $252 forward $65 $-1 #
coedge $-1 $174 $173 $103 $167 reversed $175 $-1 #
edge $-1 $253 -41.884009048839104 $254 41.884009048839104 $166 $255 forward 7 unknown #
coedge $-1 $105 $104 $256 $257 forward $41 $-1 #
coedge $-1 $258 $259 $104 $170 reversed $243 $-1 #
edge $-1 $177 -61.072420422986539 $260 61.072420422986539 $169 $261 forward 7 unknown #
coedge $-1 $163 $262 $105 $172 reversed $101 $-1 #
edge $-1 $263 -61.072420422986539 $176 61.072420422986539 $171 $264 forward 7 unknown #
coedge $-1 $166 $106 $262 $265 forward $175 $-1 #
coedge $-1 $106 $166 $258 $266 reversed $175 $-1 #
loop $-1 $-1 $173 $242 #
vertex $-1 $107 $267 #
vertex $-1 $107 $268 #
straight-curve $-1 61.072420422986539 0 20.71920772345478 0 1 0 I I #
face $-1 $269 $270 $25 $-1 $271 forward single #
loop $-1 $-1 $272 $108 #
plane-surface $-1 -61.072420422986539 0 0 1 0 0 0 0 -1 forward_v I I I I #
coedge $-1 $189 $273 $191 $274 forward $109 $-1 #
coedge $-1 $111 $191 $275 $276 reversed $69 $-1 #
coedge $-1 $277 $187 $111 $185 forward $278 $-1 #
edge $-1 $193 6.1025455397030015 $279 11.778623302402188 $184 $280 forward 7 unknown #
coedge $-1 $113 $112 $272 $281 reversed $44 $-1 #
coedge $-1 $184 $282 $112 $188 forward $278 $-1 #
edge $-1 $283 -36.240808737898817 $193 -13.422414632276627 $187 $284 forward 7 unknown #
coedge $-1 $285 $182 $113 $190 forward $109 $-1 #
edge $-1 $192 13.422414632276627 $286 36.240808737898817 $189 $287 forward 7 unknown #
coedge $-1 $183 $114 $182 $274 reversed $69 $-1 #
vertex $-1 $190 $288 #
vertex $-1 $188 $289 #
straight-curve $-1 -38.25402631736435 0 15.043129960755596 0 -1 0 I I #
face $-1 $-1 $207 $26 $-1 $290 forward single #
loop $-1 $-1 $291 $116 #
plane-surface $-1 0 -41.884009048839104 0 0 1 0 0 0 1 forward_v I I I I #
coedge $-1 $292 $293 $294 $295 reversed $117 $-1 #
coedge $-1 $296 $119 $121 $205 forward $73 $-1 #
coedge $-1 $119 $296 $292 $297 forward $73 $-1 #
coedge $-1 $294 $122 $119 $202 forward $207 $-1 #
edge $-1 $209 -24.921387987772924 $298 -3.7347571029700859 $201 $299 forward 7 unknown #
coedge $-1 $300 $301 $120 $204 forward $196 $-1 #
edge $-1 $302 -45.32562559263814 $208 -37.539865884621712 $203 $303 forward 7 unknown #
edge $-1 $209 -14.692350572459709 $302 -1.675811683274863e-014 $121 $304 forward 7 unknown #
coedge $-1 $122 $294 $300 $305 forward $207 $-1 #
loop $-1 $-1 $294 $195 #
vertex $-1 $204 $306 #
vertex $-1 $123 $307 #
straight-curve $-1 39.249460533144429 -53.305457047232871 20.71920772345478 0 1 0 I I #
coedge $-1 $211 $211 $-1 $308 reversed $126 $-1 #
edge $-1 $309 0 $309 6.2831853071796004 $127 $310 forward 7 unknown #
vertex $-1 $130 $311 #
ellipse-curve $-1 24.116152758285253 -35.654099115439486 16.826327869446569 0 -0.52991927123019833 0.84804809178421925 2.5 0 0 1 I I #
coedge $-1 $215 $215 $-1 $312 reversed $133 $-1 #
edge $-1 $313 0 $313 6.2831853071796004 $134 $314 forward 7 unknown #
vertex $-1 $137 $315 #
ellipse-curve $-1 33.196137423200753 -35.654099115439486 16.826327869446569 0 -0.52991927123019833 0.84804809178421925 2.5 0 0 1 I I #
face $-1 $-1 $316 $29 $-1 $317 reversed single #
loop $-1 $-1 $144 $138 #
plane-surface $-1 0 0 20.71920772345478 0 0 1 1 0 0 forward_v I I I I #
coedge $-1 $318 $319 $320 $321 reversed $139 $-1 #
coedge $-1 $322 $141 $143 $229 forward $87 $-1 #
coedge $-1 $141 $322 $318 $323 forward $87 $-1 #
coedge $-1 $320 $144 $141 $226 forward $220 $-1 #
edge $-1 $232 3.7347571029700859 $324 24.921387987772924 $225 $325 forward 7 unknown #
coedge $-1 $326 $327 $142 $228 forward $316 $-1 #
edge $-1 $328 -67.520769143997981 $231 -59.735009435981574 $227 $329 forward 7 unknown #
edge $-1 $232 69.075667525218549 $328 83.768018097678208 $143 $330 forward 7 unknown #
coedge $-1 $144 $320 $326 $331 forward $220 $-1 #
vertex $-1 $228 $332 #
vertex $-1 $145 $333 #
straight-curve $-1 18.062829648341591 17.785803097091893 20.719207723454772 0 -1 0 I I #
coedge $-1 $234 $234 $-1 $334 reversed $148 $-1 #
edge $-1 $335 0 $335 6.2831853071796004 $149 $336 forward 7 unknown #
vertex $-1 $152 $337 #
ellipse-curve $-1 24.116152758285253 35.654099115439486 16.82632786944659 0 0.52991927123019833 0.84804809178421925 2.5 0 0 1 I I #
coedge $-1 $238 $238 $-1 $338 reversed $155 $-1 #
edge $-1 $339 0 $339 6.2831853071796004 $156 $340 forward 7 unknown #
vertex $-1 $159 $341 #
ellipse-curve $-1 33.196137423200753 35.654099115439486 16.82632786944659 0 0.52991927123019833 0.84804809178421925 2.5 0 0 1 I I #
face $-1 $-1 $175 $24 $-1 $342 reversed single #
loop $-1 $-1 $258 $160 #
plane-surface $-1 0 41.884009048839104 0 0 -1 0 0 0 -1 forward_v I I I I #
coedge $-1 $343 $256 $259 $344 forward $161 $-1 #
coedge $-1 $262 $163 $164 $250 reversed $101 $-1 #
coedge $-1 $256 $343 $163 $248 reversed $161 $-1 #
edge $-1 $263 -20.71920772345478 $345 20.71920772345478 $247 $346 forward 7 unknown #
coedge $-1 $165 $164 $343 $347 forward $65 $-1 #
edge $-1 $254 -61.072420422986539 $345 61.072420422986539 $246 $348 forward 7 unknown #
coedge $-1 $259 $258 $165 $252 reversed $243 $-1 #
edge $-1 $349 -61.072420422986539 $253 61.072420422986539 $251 $350 forward 7 unknown #
vertex $-1 $167 $351 #
vertex $-1 $265 $352 #
straight-curve $-1 61.072420422986539 0 -20.71920772345478 0 -1 0 I I #
coedge $-1 $245 $247 $168 $257 reversed $161 $-1 #
edge $-1 $260 -41.884009048839104 $263 41.884009048839104 $256 $353 forward 7 unknown #
coedge $-1 $251 $169 $174 $266 forward $243 $-1 #
coedge $-1 $169 $251 $245 $344 reversed $243 $-1 #
vertex $-1 $170 $354 #
straight-curve $-1 0 41.884009048839104 20.71920772345478 -1 0 0 I I #
coedge $-1 $171 $246 $173 $265 reversed $101 $-1 #
vertex $-1 $257 $355 #
straight-curve $-1 0 -41.884009048839104 20.71920772345478 1 0 0 I I #
edge $-1 $176 -20.71920772345478 $254 20.71920772345478 $173 $356 forward 7 unknown #
edge $-1 $177 -20.71920772345478 $253 20.71920772345478 $174 $357 forward 7 unknown #
point $-1 61.072420422986539 -41.884009048839104 20.71920772345478 #
point $-1 61.072420422986539 41.884009048839104 20.71920772345478 #
face $-1 $-1 $278 $25 $-1 $358 reversed single #
loop $-1 $-1 $275 $179 #
plane-surface $-1 0 0 20.71920772345478 0 0 1 1 0 0 forward_v I I I I #
coedge $-1 $359 $360 $186 $281 forward $180 $-1 #
coedge $-1 $182 $285 $361 $362 reversed $109 $-1 #
edge $-1 $363 -11.778623302402188 $192 -6.1025455397030015 $182 $364 forward 7 unknown #
coedge $-1 $361 $365 $183 $276 forward $270 $-1 #
edge $-1 $279 -41.884009048839104 $363 41.884009048839104 $275 $366 forward 7 unknown #
coedge $-1 $282 $184 $365 $367 reversed $278 $-1 #
loop $-1 $-1 $184 $269 #
vertex $-1 $185 $368 #
straight-curve $-1 -38.25402631736435 -41.884009048839104 8.9405844210525949 0 0 1 I I #
edge $-1 $286 -41.884009048839104 $283 41.884009048839104 $272 $369 forward 7 unknown #
coedge $-1 $187 $277 $359 $370 forward $278 $-1 #
vertex $-1 $281 $371 #
straight-curve $-1 -24.831611685087722 -41.884009048839104 15.043129960755596 1 0 0 I I #
coedge $-1 $273 $189 $360 $372 reversed $109 $-1 #
vertex $-1 $281 $373 #
straight-curve $-1 -24.831611685087722 41.884009048839104 15.043129960755596 -1 0 0 I I #
point $-1 -38.25402631736435 41.884009048839104 15.043129960755596 #
point $-1 -38.25402631736435 -41.884009048839104 15.043129960755596 #
plane-surface $-1 0 0 20.71920772345478 0 0 1 1 0 0 forward_v I I I I #
coedge $-1 $301 $300 $293 $374 forward $196 $-1 #
coedge $-1 $293 $198 $200 $297 reversed $117 $-1 #
coedge $-1 $198 $292 $291 $374 reversed $117 $-1 #
coedge $-1 $206 $201 $198 $295 forward $207 $-1 #
edge $-1 $298 -23.881267865192989 $375 -11.421447998393766 $294 $376 forward 7 unknown #
coedge $-1 $200 $199 $301 $377 reversed $73 $-1 #
edge $-1 $378 1.675811683274863e-014 $298 14.692350572459709 $292 $379 forward 7 unknown #
vertex $-1 $202 $380 #
straight-curve $-1 14.328072545371505 -29.424189182039882 20.71920772345478 -1 0 0 I I #
coedge $-1 $291 $203 $206 $305 reversed $196 $-1 #
coedge $-1 $203 $291 $296 $377 forward $196 $-1 #
vertex $-1 $204 $381 #
straight-curve $-1 39.249460533144429 -41.884009048839104 58.259073608076491 0 0 1 I I #
straight-curve $-1 39.249460533144429 -41.884009048839118 12.933448015438344 0 -0.84804809178421925 -0.52991927123019833 I I #
edge $-1 $375 18.062829648341591 $208 39.249460533144429 $300 $382 forward 7 unknown #
point $-1 39.249460533144429 -41.884009048839104 20.71920772345478 #
point $-1 39.249460533144429 -29.424189182039882 20.71920772345478 #
edge $-1 $383 1 $383 0 $211 $-1 forward 7 unknown #
vertex $-1 $212 $384 #
ellipse-curve $-1 24.116152758285253 -31.735094867292386 10.554610166823785 0 -0.52991927123019833 0.84804809178421925 2.5 0 0 1 I I #
point $-1 26.616152758285253 -35.654099115439479 16.826327869446558 #
edge $-1 $385 1 $385 0 $215 $-1 forward 7 unknown #
vertex $-1 $216 $386 #
ellipse-curve $-1 33.196137423200753 -31.735094867292386 10.554610166823785 0 -0.52991927123019833 0.84804809178421925 2.5 0 0 1 I I #
point $-1 35.696137423200753 -35.654099115439479 16.826327869446558 #
loop $-1 $-1 $227 $219 #
plane-surface $-1 0 41.884009048839104 0 0 -1 0 0 0 -1 forward_v I I I I #
coedge $-1 $319 $222 $224 $323 reversed $139 $-1 #
coedge $-1 $222 $318 $387 $388 reversed $139 $-1 #
coedge $-1 $230 $225 $222 $321 forward $220 $-1 #
edge $-1 $324 11.638386084948024 $389 24.098205951747211 $320 $390 forward 7 unknown #
coedge $-1 $224 $223 $327 $391 reversed $87 $-1 #
edge $-1 $392 -83.768018097678208 $324 -69.075667525218549 $318 $393 forward 7 unknown #
vertex $-1 $226 $394 #
straight-curve $-1 14.328072545371505 29.42418918203991 20.719207723454776 1 0 0 I I #
coedge $-1 $387 $227 $230 $331 reversed $316 $-1 #
coedge $-1 $227 $387 $322 $391 forward $316 $-1 #
vertex $-1 $228 $395 #
straight-curve $-1 18.062829648341591 41.884009048839104 80.454217159436354 0 0 1 I I #
straight-curve $-1 18.062829648341591 -29.155298851442836 57.323735118158069 0 0.84804809178421925 -0.52991927123019833 I I #
edge $-1 $389 -39.249460533144429 $231 -18.062829648341591 $326 $396 forward 7 unknown #
point $-1 18.062829648341591 41.884009048839104 20.71920772345478 #
point $-1 18.062829648341591 29.424189182039918 20.71920772345478 #
edge $-1 $397 1 $397 0 $234 $-1 forward 7 unknown #
vertex $-1 $235 $398 #
ellipse-curve $-1 24.116152758285253 31.735094867292375 10.554610166823792 0 0.52991927123019833 0.84804809178421925 2.5 0 0 1 I I #
point $-1 26.616152758285253 35.654099115439472 16.826327869446565 #
edge $-1 $399 1 $399 0 $238 $-1 forward 7 unknown #
vertex $-1 $239 $400 #
ellipse-curve $-1 33.196137423200753 31.735094867292375 10.554610166823792 0 0.52991927123019833 0.84804809178421925 2.5 0 0 1 I I #
point $-1 35.696137423200753 35.654099115439472 16.826327869446565 #
plane-surface $-1 61.072420422986539 0 0 -1 0 0 0 0 1 forward_v I I I I #
coedge $-1 $247 $245 $249 $347 reversed $161 $-1 #
edge $-1 $260 -20.71920772345478 $349 20.71920772345478 $259 $401 forward 7 unknown #
vertex $-1 $347 $402 #
straight-curve $-1 -61.072420422986539 -41.884009048839104 0 0 0 -1 I I #
edge $-1 $345 -41.884009048839104 $349 41.884009048839104 $343 $403 forward 7 unknown #
straight-curve $-1 0 -41.884009048839104 -20.71920772345478 -1 0 0 I I #
vertex $-1 $252 $404 #
straight-curve $-1 0 41.884009048839104 -20.71920772345478 1 0 0 I I #
point $-1 61.072420422986539 41.884009048839104 -20.71920772345478 #
point $-1 61.072420422986539 -41.884009048839104 -20.71920772345478 #
straight-curve $-1 -61.072420422986539 0 20.71920772345478 0 -1 0 I I #
point $-1 -61.072420422986539 41.884009048839104 20.71920772345478 #
point $-1 -61.072420422986539 -41.884009048839104 20.71920772345478 #
straight-curve $-1 61.072420422986539 -41.884009048839104 0 0 0 -1 I I #
straight-curve $-1 61.072420422986539 41.884009048839104 0 0 0 -1 I I #
plane-surface $-1 0 -41.884009048839104 0 0 1 0 0 0 1 forward_v I I I I #
coedge $-1 $405 $272 $282 $370 reversed $180 $-1 #
coedge $-1 $272 $405 $285 $372 forward $180 $-1 #
coedge $-1 $406 $275 $273 $362 forward $270 $-1 #
edge $-1 $363 38.25402631736435 $407 61.072420422986539 $273 $408 forward 7 unknown #
vertex $-1 $362 $409 #
straight-curve $-1 -38.25402631736435 41.884009048839104 8.9405844210525949 0 0 -1 I I #
coedge $-1 $275 $406 $277 $367 forward $270 $-1 #
straight-curve $-1 -38.25402631736435 0 20.71920772345478 0 1 0 I I #
edge $-1 $410 -61.072420422986539 $279 -38.25402631736435 $277 $411 forward 7 unknown #
point $-1 -38.25402631736435 -41.884009048839104 20.719207723454783 #
straight-curve $-1 -61.072420422986539 0 15.043129960755596 0 -1 0 I I #
edge $-1 $410 -20.71920772345478 $283 -15.043129960755596 $359 $412 forward 7 unknown #
point $-1 -61.072420422986539 -41.884009048839104 15.043129960755596 #
edge $-1 $407 -20.71920772345478 $286 -15.043129960755596 $285 $413 forward 7 unknown #
point $-1 -61.072420422986539 41.884009048839104 15.043129960755596 #
edge $-1 $375 37.539865884621712 $378 45.32562559263814 $291 $414 forward 7 unknown #
vertex $-1 $305 $415 #
straight-curve $-1 18.062829648341591 -53.305457047232871 20.71920772345478 0 -1 0 I I #
edge $-1 $378 3.7347571029700859 $302 24.921387987772924 $301 $416 forward 7 unknown #
vertex $-1 $377 $417 #
straight-curve $-1 18.062829648341591 -41.884009048839118 12.933448015438344 0 0.84804809178421925 0.52991927123019833 I I #
point $-1 18.062829648341591 -29.424189182039882 20.71920772345478 #
point $-1 39.249460533144429 -41.884009048839104 12.933448015438353 #
straight-curve $-1 0 -41.884009048839104 20.71920772345478 1 0 0 I I #
vertex $-1 $308 $418 #
point $-1 26.616152758285253 -31.735094867292386 10.554610166823785 #
vertex $-1 $312 $419 #
point $-1 35.696137423200753 -31.735094867292386 10.554610166823785 #
coedge $-1 $327 $326 $319 $388 forward $316 $-1 #
edge $-1 $389 59.735009435981574 $392 67.520769143997981 $387 $420 forward 7 unknown #
vertex $-1 $331 $421 #
straight-curve $-1 39.249460533144429 17.785803097091893 20.719207723454772 0 1 0 I I #
edge $-1 $392 -24.921387987772924 $328 -3.7347571029700859 $327 $422 forward 7 unknown #
vertex $-1 $391 $423 #
straight-curve $-1 39.249460533144429 -29.155298851442836 57.323735118158069 0 -0.84804809178421925 0.52991927123019833 I I #
point $-1 39.249460533144429 29.424189182039918 20.71920772345478 #
point $-1 18.062829648341591 41.884009048839104 12.933448015438373 #
straight-curve $-1 0 41.884009048839104 20.71920772345478 -1 0 0 I I #
vertex $-1 $334 $424 #
point $-1 26.616152758285253 31.735094867292375 10.554610166823792 #
vertex $-1 $338 $425 #
point $-1 35.696137423200753 31.735094867292375 10.554610166823792 #
straight-curve $-1 -61.072420422986539 41.884009048839104 0 0 0 -1 I I #
point $-1 -61.072420422986539 -41.884009048839104 -20.71920772345478 #
straight-curve $-1 -61.072420422986539 0 -20.71920772345478 0 1 0 I I #
point $-1 -61.072420422986539 41.884009048839104 -20.71920772345478 #
coedge $-1 $360 $359 $406 $426 reversed $180 $-1 #
coedge $-1 $365 $361 $405 $426 forward $270 $-1 #
vertex $-1 $362 $427 #
straight-curve $-1 0 41.884009048839104 20.71920772345478 -1 0 0 I I #
point $-1 -38.25402631736435 41.884009048839104 20.719207723454783 #
vertex $-1 $426 $428 #
straight-curve $-1 0 -41.884009048839104 20.71920772345478 1 0 0 I I #
straight-curve $-1 -61.072420422986539 -41.884009048839104 0 0 0 -1 I I #
straight-curve $-1 -61.072420422986539 41.884009048839104 0 0 0 -1 I I #
straight-curve $-1 18.062829648341591 -41.884009048839104 58.259073608076491 0 0 -1 I I #
point $-1 18.062829648341591 -41.884009048839104 20.71920772345478 #
straight-curve $-1 14.328072545371505 -41.884009048839104 12.933448015438353 1 0 0 I I #
point $-1 18.062829648341591 -41.884009048839104 12.933448015438353 #
point $-1 24.116152758285253 -30.410296689216889 8.4344899373632387 #
point $-1 33.196137423200753 -30.410296689216889 8.4344899373632387 #
straight-curve $-1 39.249460533144429 41.884009048839104 80.454217159436354 0 0 -1 I I #
point $-1 39.249460533144429 41.884009048839104 20.71920772345478 #
straight-curve $-1 14.328072545371505 41.884009048839111 12.933448015438373 -1 0 0 I I #
point $-1 39.249460533144429 41.884009048839104 12.933448015438373 #
point $-1 24.116152758285253 30.410296689216878 8.4344899373632458 #
point $-1 33.196137423200753 30.410296689216878 8.4344899373632458 #
edge $-1 $407 -41.884009048839104 $410 41.884009048839104 $405 $429 forward 7 unknown #
point $-1 -61.072420422986539 41.884009048839104 20.71920772345478 #
point $-1 -61.072420422986539 -41.884009048839104 20.71920772345478 #
straight-curve $-1 -61.072420422986539 0 20.71920772345478 0 -1 0 I I #
End-of-ACIS-data 