500 0 5 0           
7 Unknown 11 ACIS 5.0 NT 24 Thu Mar 25 15:21:58 1999 
-1 9.9999999999999995e-007 1e-010 
body $-1 $5 $-1 $6 #
body $-1 $7 $-1 $8 #
body $-1 $9 $-1 $10 #
body $-1 $11 $-1 $12 #
body $-1 $13 $-1 $14 #
lump $-1 $-1 $15 $0 #
transform $-1 1 0 0 0 1 0 0 0 1 77.944273201696831 34.95634260020433 16.076375768723995 1 rotate no_reflect no_shear #
lump $-1 $-1 $16 $1 #
transform $-1 1 0 0 0 1 0 0 0 1 77.944273201696831 34.95634260020433 16.076375768723995 1 rotate no_reflect no_shear #
lump $-1 $-1 $17 $2 #
transform $-1 1 0 0 0 1 0 0 0 1 77.944273201696831 34.95634260020433 16.076375768723995 1 rotate no_reflect no_shear #
lump $-1 $-1 $18 $3 #
transform $-1 1 0 0 0 1 0 0 0 1 77.944273201696831 34.95634260020433 16.076375768723995 1 rotate no_reflect no_shear #
lump $-1 $-1 $19 $4 #
transform $-1 1 0 0 0 1 0 0 0 1 77.944273201696831 34.95634260020433 16.076375768723995 1 rotate no_reflect no_shear #
shell $-1 $-1 $-1 $20 $-1 $5 #
shell $-1 $-1 $-1 $21 $-1 $7 #
shell $-1 $-1 $-1 $22 $-1 $9 #
shell $-1 $-1 $-1 $23 $-1 $11 #
shell $-1 $-1 $-1 $24 $-1 $13 #
face $-1 $25 $26 $15 $-1 $27 forward single #
face $-1 $28 $29 $16 $-1 $30 reversed single #
face $-1 $31 $32 $17 $-1 $33 reversed single #
face $-1 $34 $35 $18 $-1 $36 forward single #
face $-1 $37 $38 $19 $-1 $39 forward single #
face $-1 $40 $41 $15 $-1 $42 reversed single #
loop $-1 $-1 $43 $20 #
plane-surface $-1 0 0 16.076375768723995 0 0 1 1 0 0 forward_v I I I I #
face $-1 $44 $45 $16 $-1 $46 reversed single #
loop $-1 $-1 $47 $21 #
plane-surface $-1 -70.695781453911508 -25.241441759945957 0 1 0 0 0 0 -1 forward_v I I I I #
face $-1 $48 $49 $17 $-1 $50 reversed single #
loop $-1 $-1 $51 $22 #
plane-surface $-1 -77.944273201696845 -9.511138395892246 2.3473385501154951 -0.79863551827123203 0 0.60181501223851219 0.60181501223851219 0 0.79863551827123203 forward_v I I I I #
face $-1 $52 $53 $18 $-1 $54 forward single #
loop $-1 $55 $56 $23 #
cone-surface $-1 -71.194007522672422 -12.089168048947389 8.0231407306316083 0.79863551827123203 0 -0.60181501223851219 0.90272251835776829 0 1.197953277406848 1 I I 0 1 1.5 forward I I I I #
face $-1 $57 $58 $19 $-1 $59 forward single #
loop $-1 $60 $61 $24 #
cone-surface $-1 -71.194007522672422 -6.9331087428371063 8.0231407306316083 0.79863551827123203 0 -0.60181501223851219 0.90272251835776829 0 1.197953277406848 1 I I 0 1 1.5 forward I I I I #
face $-1 $62 $63 $15 $-1 $64 reversed single #
loop $-1 $-1 $65 $25 #
plane-surface $-1 0 0 -16.076375768723995 0 0 1 1 0 0 forward_v I I I I #
coedge $-1 $66 $67 $68 $69 forward $26 $-1 #
face $-1 $70 $71 $16 $-1 $72 reversed single #
loop $-1 $-1 $73 $28 #
plane-surface $-1 -68.000325634465341 -15.526540919687582 0 0 -1 0 0 0 -1 forward_v I I I I #
coedge $-1 $74 $75 $76 $77 forward $29 $-1 #
face $-1 $78 $79 $17 $-1 $80 forward single #
loop $-1 $-1 $81 $31 #
plane-surface $-1 -202.44240325112014 -3.4957358720969136 96.163406011717726 0 -1 0 0.79863551827123203 0 -0.60181501223851219 forward_v I I I I #
coedge $-1 $82 $83 $84 $85 reversed $32 $-1 #
face $-1 $-1 $86 $18 $-1 $87 forward single #
loop $-1 $88 $89 $34 #
cone-surface $-1 -69.0175508579199 -12.089168048947389 6.3830630426645847 0.79863551827123203 0 -0.60181501223851219 0.45136125917888414 0 0.59897663870342399 1 I I -0.70710678118654757 0.70710678118654757 0.75 forward I I I I #
loop $-1 $-1 $90 $23 #
coedge $-1 $56 $56 $91 $92 reversed $35 $-1 #
face $-1 $-1 $93 $19 $-1 $94 forward single #
loop $-1 $95 $96 $37 #
cone-surface $-1 -69.0175508579199 -6.9331087428371063 6.3830630426645847 0.79863551827123203 0 -0.60181501223851219 0.45136125917888414 0 0.59897663870342399 1 I I -0.70710678118654757 0.70710678118654757 0.75 forward I I I I #
loop $-1 $-1 $97 $24 #
coedge $-1 $61 $61 $98 $99 reversed $38 $-1 #
face $-1 $100 $101 $15 $-1 $102 reversed single #
loop $-1 $-1 $103 $40 #
plane-surface $-1 0 -34.95634260020433 0 0 1 0 0 0 1 forward_v I I I I #
coedge $-1 $104 $105 $106 $107 forward $41 $-1 #
coedge $-1 $108 $43 $109 $110 forward $26 $-1 #
coedge $-1 $43 $108 $111 $112 forward $26 $-1 #
coedge $-1 $113 $114 $43 $69 reversed $115 $-1 #
edge $-1 $116 -34.95634260020433 $117 34.95634260020433 $68 $118 forward 7 unknown #
face $-1 $119 $120 $16 $-1 $121 forward single #
loop $-1 $-1 $122 $44 #
plane-surface $-1 -65.304869815019174 -25.241441759945957 0 -1 0 0 0 0 1 forward_v I I I I #
coedge $-1 $123 $124 $125 $126 forward $45 $-1 #
coedge $-1 $127 $47 $128 $129 reversed $29 $-1 #
coedge $-1 $47 $127 $130 $131 reversed $29 $-1 #
coedge $-1 $124 $123 $47 $77 reversed $45 $-1 #
edge $-1 $132 -16.076375768723995 $133 16.076375768723995 $76 $134 forward 7 unknown #
face $-1 $135 $136 $17 $-1 $137 forward single #
loop $-1 $-1 $138 $48 #
plane-surface $-1 0 0 16.076375768723995 0 0 1 1 0 0 forward_v I I I I #
coedge $-1 $139 $140 $141 $142 reversed $49 $-1 #
coedge $-1 $143 $51 $144 $145 reversed $32 $-1 #
coedge $-1 $51 $143 $139 $146 forward $32 $-1 #
coedge $-1 $141 $138 $51 $85 forward $79 $-1 #
edge $-1 $147 -10.770971721741459 $148 1.2598333258492094 $84 $149 forward 7 unknown #
loop $-1 $-1 $91 $52 #
plane-surface $-1 -77.944273201696845 -9.511138395892246 2.3473385501154951 -0.79863551827123203 0 0.60181501223851219 0.60181501223851219 0 0.79863551827123203 forward_v I I I I #
loop $-1 $-1 $150 $34 #
coedge $-1 $89 $89 $90 $151 reversed $53 $-1 #
coedge $-1 $90 $90 $89 $151 forward $55 $-1 #
coedge $-1 $91 $91 $56 $92 forward $86 $-1 #
edge $-1 $152 0 $152 6.2831853071796004 $91 $153 forward 7 unknown #
loop $-1 $-1 $98 $57 #
plane-surface $-1 -77.944273201696845 -9.511138395892246 2.3473385501154951 -0.79863551827123203 0 0.60181501223851219 0.60181501223851219 0 0.79863551827123203 forward_v I I I I #
loop $-1 $-1 $154 $37 #
coedge $-1 $96 $96 $97 $155 reversed $58 $-1 #
coedge $-1 $97 $97 $96 $155 forward $60 $-1 #
coedge $-1 $98 $98 $61 $99 forward $93 $-1 #
edge $-1 $156 0 $156 6.2831853071796004 $98 $157 forward 7 unknown #
face $-1 $158 $159 $15 $-1 $160 reversed single #
loop $-1 $-1 $161 $62 #
plane-surface $-1 -77.944273201696831 0 0 1 0 0 0 0 -1 forward_v I I I I #
coedge $-1 $162 $111 $163 $164 forward $63 $-1 #
coedge $-1 $165 $65 $162 $166 forward $41 $-1 #
coedge $-1 $65 $165 $167 $168 forward $41 $-1 #
coedge $-1 $114 $113 $65 $107 reversed $115 $-1 #
edge $-1 $169 -34.95634260020433 $170 34.95634260020433 $106 $171 forward 7 unknown #
coedge $-1 $67 $66 $172 $173 forward $26 $-1 #
coedge $-1 $174 $175 $66 $110 reversed $159 $-1 #
edge $-1 $117 -77.944273201696831 $176 77.944273201696831 $109 $177 forward 7 unknown #
coedge $-1 $103 $178 $67 $112 reversed $63 $-1 #
edge $-1 $179 -77.944273201696831 $116 77.944273201696831 $111 $180 forward 7 unknown #
coedge $-1 $106 $68 $178 $181 forward $115 $-1 #
coedge $-1 $68 $106 $174 $182 reversed $115 $-1 #
loop $-1 $-1 $113 $158 #
vertex $-1 $69 $183 #
vertex $-1 $69 $184 #
straight-curve $-1 77.944273201696831 0 16.076375768723995 0 1 0 I I #
face $-1 $185 $186 $16 $-1 $187 reversed single #
loop $-1 $-1 $188 $70 #
plane-surface $-1 0 0 16.076375768723995 0 0 1 1 0 0 forward_v I I I I #
coedge $-1 $189 $190 $191 $192 reversed $71 $-1 #
coedge $-1 $76 $73 $193 $194 reversed $45 $-1 #
coedge $-1 $73 $76 $195 $196 reversed $45 $-1 #
coedge $-1 $190 $189 $73 $126 reversed $71 $-1 #
edge $-1 $197 -16.076375768723995 $198 16.076375768723995 $125 $199 forward 7 unknown #
coedge $-1 $75 $74 $200 $201 reversed $29 $-1 #
coedge $-1 $193 $202 $74 $129 forward $186 $-1 #
edge $-1 $203 -22.335621720231352 $133 -2.9058200397146035 $128 $204 forward 7 unknown #
coedge $-1 $205 $195 $75 $131 forward $120 $-1 #
edge $-1 $132 2.9058200397146035 $206 22.335621720231352 $130 $207 forward 7 unknown #
vertex $-1 $131 $208 #
vertex $-1 $129 $209 #
straight-curve $-1 -70.695781453911508 -15.526540919687582 0 0 0 -1 I I #
face $-1 $-1 $210 $17 $-1 $211 reversed single #
loop $-1 $-1 $144 $78 #
plane-surface $-1 -68.000325634465341 -15.526540919687582 0 0 -1 0 0 0 -1 forward_v I I I I #
coedge $-1 $84 $212 $213 $214 forward $79 $-1 #
coedge $-1 $140 $81 $83 $146 reversed $49 $-1 #
coedge $-1 $81 $139 $215 $216 reversed $49 $-1 #
coedge $-1 $212 $84 $81 $142 forward $79 $-1 #
edge $-1 $148 -33.622499729813853 $217 -23.276928423863239 $141 $218 forward 7 unknown #
coedge $-1 $83 $82 $219 $220 reversed $32 $-1 #
coedge $-1 $213 $221 $82 $145 forward $136 $-1 #
edge $-1 $222 -2.0548744936714867 $147 15.135742382882 $144 $223 forward 7 unknown #
edge $-1 $224 2.3448253187574213e-014 $148 17.190616876553513 $139 $225 forward 7 unknown #
vertex $-1 $145 $226 #
vertex $-1 $85 $227 #
straight-curve $-1 -67.598701895746217 -4.755569197946123 16.076375768723999 0 1 0 I I #
coedge $-1 $150 $150 $-1 $228 reversed $88 $-1 #
edge $-1 $229 0 $229 6.2831853071796004 $89 $230 forward 7 unknown #
vertex $-1 $92 $231 #
ellipse-curve $-1 -72.771487548721524 -12.089168048947389 9.211857159419754 -0.79863551827123203 0 0.60181501223851219 0.90272251835776829 0 1.197953277406848 1 I I #
coedge $-1 $154 $154 $-1 $232 reversed $95 $-1 #
edge $-1 $233 0 $233 6.2831853071796004 $96 $234 forward 7 unknown #
vertex $-1 $99 $235 #
ellipse-curve $-1 -72.771487548721524 -6.9331087428371063 9.211857159419754 -0.79863551827123203 0 0.60181501223851219 0.90272251835776829 0 1.197953277406848 1 I I #
face $-1 $-1 $115 $15 $-1 $236 reversed single #
loop $-1 $-1 $174 $100 #
plane-surface $-1 0 34.95634260020433 0 0 -1 0 0 0 -1 forward_v I I I I #
coedge $-1 $237 $172 $175 $238 forward $101 $-1 #
coedge $-1 $178 $103 $104 $166 reversed $63 $-1 #
coedge $-1 $172 $237 $103 $164 reversed $101 $-1 #
edge $-1 $179 -16.076375768723995 $239 16.076375768723995 $163 $240 forward 7 unknown #
coedge $-1 $105 $104 $237 $241 forward $41 $-1 #
edge $-1 $170 -77.944273201696831 $239 77.944273201696831 $162 $242 forward 7 unknown #
coedge $-1 $175 $174 $105 $168 reversed $159 $-1 #
edge $-1 $243 -77.944273201696831 $169 77.944273201696831 $167 $244 forward 7 unknown #
vertex $-1 $107 $245 #
vertex $-1 $181 $246 #
straight-curve $-1 77.944273201696831 0 -16.076375768723995 0 -1 0 I I #
coedge $-1 $161 $163 $108 $173 reversed $101 $-1 #
edge $-1 $176 -34.95634260020433 $179 34.95634260020433 $172 $247 forward 7 unknown #
coedge $-1 $167 $109 $114 $182 forward $159 $-1 #
coedge $-1 $109 $167 $161 $238 reversed $159 $-1 #
vertex $-1 $110 $248 #
straight-curve $-1 0 34.95634260020433 16.076375768723995 -1 0 0 I I #
coedge $-1 $111 $162 $113 $181 reversed $63 $-1 #
vertex $-1 $173 $249 #
straight-curve $-1 0 -34.95634260020433 16.076375768723995 1 0 0 I I #
edge $-1 $116 -16.076375768723995 $170 16.076375768723995 $113 $250 forward 7 unknown #
edge $-1 $117 -16.076375768723995 $169 16.076375768723995 $114 $251 forward 7 unknown #
point $-1 77.944273201696831 -34.95634260020433 16.076375768723995 #
point $-1 77.944273201696831 34.95634260020433 16.076375768723995 #
face $-1 $-1 $252 $16 $-1 $253 reversed single #
loop $-1 $-1 $254 $119 #
plane-surface $-1 0 0 -16.076375768723995 0 0 1 1 0 0 forward_v I I I I #
coedge $-1 $195 $205 $190 $255 forward $120 $-1 #
coedge $-1 $125 $122 $254 $256 reversed $71 $-1 #
coedge $-1 $122 $125 $188 $255 reversed $71 $-1 #
coedge $-1 $257 $258 $122 $192 forward $252 $-1 #
edge $-1 $259 -16.076375768723995 $260 16.076375768723995 $191 $261 forward 7 unknown #
coedge $-1 $254 $128 $123 $194 forward $186 $-1 #
edge $-1 $133 -36.695618636678837 $198 -31.304706997786504 $193 $262 forward 7 unknown #
coedge $-1 $130 $188 $124 $196 forward $120 $-1 #
edge $-1 $197 31.304706997786504 $132 36.695618636678837 $195 $263 forward 7 unknown #
vertex $-1 $196 $264 #
vertex $-1 $194 $265 #
straight-curve $-1 -65.304869815019174 -15.526540919687582 0 0 0 -1 I I #
coedge $-1 $258 $257 $127 $201 forward $252 $-1 #
edge $-1 $206 -16.076375768723995 $203 16.076375768723995 $200 $266 forward 7 unknown #
coedge $-1 $128 $254 $258 $267 forward $186 $-1 #
vertex $-1 $129 $268 #
straight-curve $-1 -70.695781453911508 -12.620720879972978 -16.076375768723995 0 1 0 I I #
coedge $-1 $188 $130 $257 $269 forward $120 $-1 #
vertex $-1 $269 $270 #
straight-curve $-1 -70.695781453911508 -12.620720879972978 16.076375768723995 0 -1 0 I I #
point $-1 -70.695781453911508 -15.526540919687582 16.076375768723995 #
point $-1 -70.695781453911508 -15.526540919687582 -16.076375768723995 #
loop $-1 $-1 $271 $135 #
plane-surface $-1 -77.944273201696831 0 0 1 0 0 0 0 -1 forward_v I I I I #
coedge $-1 $138 $141 $272 $273 forward $79 $-1 #
coedge $-1 $221 $144 $138 $214 reversed $136 $-1 #
edge $-1 $274 23.276928423863239 $147 33.622499729813853 $138 $275 forward 7 unknown #
coedge $-1 $219 $272 $140 $216 forward $210 $-1 #
edge $-1 $217 32.005327237134864 $224 45.734364455743346 $215 $276 forward 7 unknown #
vertex $-1 $273 $277 #
straight-curve $-1 -101.22120162556007 -3.4957358720969136 16.076375768723992 -1 0 0 I I #
coedge $-1 $271 $215 $143 $220 forward $210 $-1 #
edge $-1 $224 -1.2598333258492094 $222 10.770971721741455 $219 $278 forward 7 unknown #
coedge $-1 $144 $213 $271 $279 reversed $136 $-1 #
vertex $-1 $279 $280 #
straight-curve $-1 -76.707618883139318 -15.526540919687582 3.9884343063511771 0.60181501223851219 0 0.79863551827123203 I I #
vertex $-1 $220 $281 #
straight-curve $-1 -77.944273201696845 -3.4957358720969136 2.3473385501154951 0.60181501223851219 0 0.79863551827123203 I I #
point $-1 -67.598701895746217 -15.526540919687582 16.076375768723995 #
point $-1 -67.598701895746217 -3.4957358720969136 16.076375768723995 #
edge $-1 $282 1 $282 0 $150 $-1 forward 7 unknown #
vertex $-1 $151 $283 #
ellipse-curve $-1 -69.61652749662332 -12.089168048947389 6.8344243018434687 -0.79863551827123203 0 0.60181501223851219 0.90272251835776829 0 1.197953277406848 1 I I #
point $-1 -71.868765030363747 -12.089168048947389 10.409810436826596 #
edge $-1 $284 1 $284 0 $154 $-1 forward 7 unknown #
vertex $-1 $155 $285 #
ellipse-curve $-1 -69.61652749662332 -6.9331087428371063 6.8344243018434687 -0.79863551827123203 0 0.60181501223851219 0.90272251835776829 0 1.197953277406848 1 I I #
point $-1 -71.868765030363747 -6.9331087428371063 10.409810436826596 #
plane-surface $-1 77.944273201696831 0 0 -1 0 0 0 0 1 forward_v I I I I #
coedge $-1 $163 $161 $165 $241 reversed $101 $-1 #
edge $-1 $176 -16.076375768723995 $243 16.076375768723995 $175 $286 forward 7 unknown #
vertex $-1 $241 $287 #
straight-curve $-1 -77.944273201696831 -34.95634260020433 0 0 0 -1 I I #
edge $-1 $239 -34.95634260020433 $243 34.95634260020433 $237 $288 forward 7 unknown #
straight-curve $-1 0 -34.95634260020433 -16.076375768723995 -1 0 0 I I #
vertex $-1 $168 $289 #
straight-curve $-1 0 34.95634260020433 -16.076375768723995 1 0 0 I I #
point $-1 77.944273201696831 34.95634260020433 -16.076375768723995 #
point $-1 77.944273201696831 -34.95634260020433 -16.076375768723995 #
straight-curve $-1 -77.944273201696831 0 16.076375768723995 0 -1 0 I I #
point $-1 -77.944273201696831 34.95634260020433 16.076375768723995 #
point $-1 -77.944273201696831 -34.95634260020433 16.076375768723995 #
straight-curve $-1 77.944273201696831 -34.95634260020433 0 0 0 -1 I I #
straight-curve $-1 77.944273201696831 34.95634260020433 0 0 0 -1 I I #
loop $-1 $-1 $191 $185 #
plane-surface $-1 0 -34.95634260020433 0 0 1 0 0 0 1 forward_v I I I I #
coedge $-1 $202 $193 $189 $256 forward $186 $-1 #
edge $-1 $260 -22.335621720231352 $197 -2.9058200397146035 $188 $290 forward 7 unknown #
edge $-1 $198 2.9058200397146035 $259 22.335621720231352 $254 $291 forward 7 unknown #
coedge $-1 $200 $191 $205 $269 reversed $252 $-1 #
coedge $-1 $191 $200 $202 $267 reversed $252 $-1 #
vertex $-1 $267 $292 #
vertex $-1 $192 $293 #
straight-curve $-1 -65.304869815019174 -34.95634260020433 0 0 0 1 I I #
straight-curve $-1 -34.00016281723267 -15.526540919687582 -16.076375768723995 1 0 0 I I #
straight-curve $-1 -34.00016281723267 -15.526540919687582 16.076375768723995 -1 0 0 I I #
point $-1 -65.304869815019174 -15.526540919687582 16.076375768723995 #
point $-1 -65.304869815019174 -15.526540919687582 -16.076375768723995 #
straight-curve $-1 -70.695781453911508 -34.95634260020433 0 0 0 -1 I I #
edge $-1 $259 65.304869815019174 $203 70.695781453911508 $258 $294 forward 7 unknown #
point $-1 -70.695781453911508 -34.95634260020433 -16.076375768723995 #
edge $-1 $206 -70.695781453911508 $260 -65.304869815019174 $257 $295 forward 7 unknown #
point $-1 -70.695781453911508 -34.95634260020433 16.076375768723995 #
coedge $-1 $272 $219 $221 $279 forward $210 $-1 #
coedge $-1 $215 $271 $212 $273 reversed $210 $-1 #
edge $-1 $217 3.4957358720969136 $274 15.526540919687578 $272 $296 forward 7 unknown #
vertex $-1 $214 $297 #
straight-curve $-1 -101.22120162556007 -15.526540919687578 16.076375768723992 1 0 0 I I #
straight-curve $-1 -77.944273201696831 -3.4957358720969136 48.081703005858863 0 0 -1 I I #
point $-1 -77.944273201696831 -3.4957358720969136 16.076375768723995 #
straight-curve $-1 -77.944273201696831 -4.755569197946123 2.3473385501154973 0 -1 0 I I #
edge $-1 $222 -45.734364455743346 $274 -32.005327237134864 $271 $298 forward 7 unknown #
point $-1 -77.944273201696831 -15.526540919687578 2.3473385501155137 #
point $-1 -77.944273201696831 -3.4957358720969136 2.3473385501155137 #
vertex $-1 $228 $299 #
point $-1 -68.713804978265557 -12.089168048947389 8.0323775792503174 #
vertex $-1 $232 $300 #
point $-1 -68.713804978265557 -6.9331087428371063 8.0323775792503174 #
straight-curve $-1 -77.944273201696831 34.95634260020433 0 0 0 -1 I I #
point $-1 -77.944273201696831 -34.95634260020433 -16.076375768723995 #
straight-curve $-1 -77.944273201696831 0 -16.076375768723995 0 1 0 I I #
point $-1 -77.944273201696831 34.95634260020433 -16.076375768723995 #
straight-curve $-1 -65.304869815019174 -12.620720879972978 16.076375768723995 0 1 0 I I #
straight-curve $-1 -65.304869815019174 -12.620720879972978 -16.076375768723995 0 -1 0 I I #
point $-1 -65.304869815019174 -34.95634260020433 -16.076375768723995 #
point $-1 -65.304869815019174 -34.95634260020433 16.076375768723995 #
straight-curve $-1 0 -34.95634260020433 -16.076375768723995 -1 0 0 I I #
straight-curve $-1 0 -34.95634260020433 16.076375768723995 1 0 0 I I #
straight-curve $-1 -77.944273201696831 0 16.076375768723995 0 -1 0 I I #
point $-1 -77.944273201696831 -15.526540919687578 16.076375768723995 #
straight-curve $-1 -77.944273201696831 -15.526540919687578 48.081703005858863 0 0 1 I I #
point $-1 -68.418574219216481 -12.089168048947389 5.9317017834857007 #
point $-1 -68.418574219216481 -6.9331087428371063 5.9317017834857007 #
End-of-ACIS-data 