500 0 7 0           
7 Unknown 11 ACIS 5.0 NT 24 Fri Mar 26 18:57:48 1999 
-1 9.9999999999999995e-007 1e-010 
body $-1 $7 $-1 $8 #
body $-1 $9 $-1 $10 #
body $-1 $11 $-1 $12 #
body $-1 $13 $-1 $14 #
body $-1 $15 $-1 $16 #
body $-1 $17 $-1 $18 #
body $-1 $19 $-1 $20 #
lump $-1 $-1 $21 $0 #
transform $-1 1 0 0 0 1 0 0 0 1 64.608905301065093 34.780992616294981 13.326256596592211 1 rotate no_reflect no_shear #
lump $-1 $-1 $22 $1 #
transform $-1 1 0 0 0 1 0 0 0 1 64.608905301065093 34.780992616294981 13.326256596592211 1 rotate no_reflect no_shear #
lump $-1 $-1 $23 $2 #
transform $-1 1 0 0 0 1 0 0 0 1 64.608905301065093 34.780992616294981 13.326256596592211 1 rotate no_reflect no_shear #
lump $-1 $-1 $24 $3 #
transform $-1 1 0 0 0 1 0 0 0 1 64.608905301065093 34.780992616294981 13.326256596592211 1 rotate no_reflect no_shear #
lump $-1 $-1 $25 $4 #
transform $-1 1 0 0 0 1 0 0 0 1 64.608905301065093 34.780992616294981 13.326256596592211 1 rotate no_reflect no_shear #
lump $-1 $-1 $26 $5 #
transform $-1 1 0 0 0 1 0 0 0 1 64.608905301065093 34.780992616294981 13.326256596592211 1 rotate no_reflect no_shear #
lump $-1 $-1 $27 $6 #
transform $-1 1 0 0 0 1 0 0 0 1 64.608905301065093 34.780992616294981 13.326256596592211 1 rotate no_reflect no_shear #
shell $-1 $-1 $-1 $28 $-1 $7 #
shell $-1 $-1 $-1 $29 $-1 $9 #
shell $-1 $-1 $-1 $30 $-1 $11 #
shell $-1 $-1 $-1 $31 $-1 $13 #
shell $-1 $-1 $-1 $32 $-1 $15 #
shell $-1 $-1 $-1 $33 $-1 $17 #
shell $-1 $-1 $-1 $34 $-1 $19 #
face $-1 $35 $36 $21 $-1 $37 forward single #
face $-1 $38 $39 $22 $-1 $40 forward single #
face $-1 $41 $42 $23 $-1 $43 reversed single #
face $-1 $44 $45 $24 $-1 $46 forward single #
face $-1 $47 $48 $25 $-1 $49 reversed single #
face $-1 $50 $51 $26 $-1 $52 forward single #
face $-1 $53 $54 $27 $-1 $55 forward single #
face $-1 $56 $57 $21 $-1 $58 reversed single #
loop $-1 $-1 $59 $28 #
plane-surface $-1 0 0 13.326256596592211 0 0 1 1 0 0 forward_v I I I I #
face $-1 $60 $61 $22 $-1 $62 reversed single #
loop $-1 $-1 $63 $29 #
plane-surface $-1 0 -34.780992616294981 0 0 1 0 0 0 1 forward_v I I I I #
face $-1 $64 $65 $23 $-1 $66 reversed single #
loop $-1 $-1 $67 $30 #
plane-surface $-1 26.614795888697216 5.3839240128092456 179.92592410647853 0 -1 0 -0.54463904215088732 0 -0.83867056331134215 forward_v I I I I #
face $-1 $68 $69 $24 $-1 $70 forward single #
loop $-1 $71 $72 $31 #
cone-surface $-1 54.385760144287033 1.7352423266691872 5.9129571076414127 -0.54463904215088732 0 -0.83867056331134215 1.2580058449670133 0 -0.81695856322633098 1 I I 0 1 1.5 forward I I I I #
face $-1 $73 $74 $25 $-1 $75 reversed single #
loop $-1 $-1 $76 $32 #
plane-surface $-1 -159.11283046799224 9.3335959458156061 91.795846756149118 0 1 0 -0.73135370988377701 0 0.68199835119979291 forward_v I I I I #
face $-1 $77 $78 $26 $-1 $79 forward single #
loop $-1 $80 $81 $33 #
cone-surface $-1 -59.033506503541233 11.574314820524265 7.4974179543490909 0.73135370988377701 0 -0.68199835119979291 0.68199835119979291 0 0.73135370988377701 1 I I 0 1 1 forward I I I I #
face $-1 $82 $83 $27 $-1 $84 forward single #
loop $-1 $85 $86 $34 #
cone-surface $-1 -59.033506503541233 14.935393132587258 7.4974179543490909 0.73135370988377701 0 -0.68199835119979291 0.68199835119979291 0 0.73135370988377701 1 I I 0 1 1 forward I I I I #
face $-1 $87 $88 $21 $-1 $89 reversed single #
loop $-1 $-1 $90 $35 #
plane-surface $-1 0 0 -13.326256596592211 0 0 1 1 0 0 forward_v I I I I #
coedge $-1 $91 $92 $93 $94 forward $36 $-1 #
face $-1 $95 $96 $22 $-1 $97 forward single #
loop $-1 $-1 $98 $38 #
plane-surface $-1 -64.608905301065093 0 0 1 0 0 0 0 -1 forward_v I I I I #
coedge $-1 $99 $100 $101 $102 forward $39 $-1 #
face $-1 $103 $104 $23 $-1 $105 reversed single #
loop $-1 $-1 $106 $41 #
plane-surface $-1 -43.762268706481734 1.7352423266691872 71.554750098931692 0.54463904215088732 0 0.83867056331134215 0.83867056331134215 0 -0.54463904215088732 forward_v I I I I #
coedge $-1 $107 $108 $109 $110 reversed $42 $-1 #
face $-1 $-1 $111 $24 $-1 $112 forward single #
loop $-1 $113 $114 $44 #
cone-surface $-1 53.107715024799035 1.7352423266691872 3.9449402426268687 -0.54463904215088732 0 -0.83867056331134215 0.62900292248350664 0 -0.40847928161316549 1 I I -0.70710678118654757 0.70710678118654757 0.75 forward I I I I #
loop $-1 $-1 $115 $31 #
coedge $-1 $72 $72 $116 $117 reversed $45 $-1 #
face $-1 $118 $119 $25 $-1 $120 reversed single #
loop $-1 $-1 $121 $47 #
plane-surface $-1 -64.608905301065079 13.254853976555765 3.6695129798492161 -0.73135370988377701 0 0.68199835119979291 0.68199835119979291 0 0.73135370988377701 forward_v I I I I #
coedge $-1 $122 $123 $124 $125 reversed $48 $-1 #
face $-1 $-1 $126 $26 $-1 $127 forward single #
loop $-1 $128 $129 $50 #
cone-surface $-1 -57.594960294471917 11.574314820524265 6.1559519448775664 0.73135370988377701 0 -0.68199835119979291 0.34099917559989645 0 0.36567685494188851 1 I I -0.70710678118654746 0.70710678118654746 0.5 forward I I I I #
loop $-1 $-1 $130 $33 #
coedge $-1 $81 $81 $131 $132 reversed $51 $-1 #
face $-1 $-1 $133 $27 $-1 $134 forward single #
loop $-1 $135 $136 $53 #
cone-surface $-1 -57.594960294471917 14.935393132587258 6.1559519448775664 0.73135370988377701 0 -0.68199835119979291 0.34099917559989645 0 0.36567685494188851 1 I I -0.70710678118654746 0.70710678118654746 0.5 forward I I I I #
loop $-1 $-1 $137 $34 #
coedge $-1 $86 $86 $138 $139 reversed $54 $-1 #
face $-1 $140 $141 $21 $-1 $142 reversed single #
loop $-1 $-1 $143 $56 #
plane-surface $-1 0 -34.780992616294981 0 0 1 0 0 0 1 forward_v I I I I #
coedge $-1 $144 $145 $146 $147 forward $57 $-1 #
coedge $-1 $148 $59 $149 $150 forward $36 $-1 #
coedge $-1 $59 $148 $151 $152 forward $36 $-1 #
coedge $-1 $153 $154 $59 $94 reversed $155 $-1 #
edge $-1 $156 -34.780992616294981 $157 34.780992616294981 $93 $158 forward 7 unknown #
face $-1 $159 $160 $22 $-1 $161 reversed single #
loop $-1 $-1 $162 $60 #
plane-surface $-1 0 -41.352996275379915 12.154384972329002 0 0 1 1 0 0 forward_v I I I I #
coedge $-1 $163 $164 $100 $165 forward $61 $-1 #
coedge $-1 $166 $63 $167 $168 reversed $39 $-1 #
coedge $-1 $63 $166 $98 $165 reversed $39 $-1 #
coedge $-1 $169 $162 $63 $102 reversed $96 $-1 #
edge $-1 $170 -64.608905301065093 $171 64.608905301065093 $101 $172 forward 7 unknown #
face $-1 $173 $174 $23 $-1 $175 reversed single #
loop $-1 $-1 $176 $64 #
plane-surface $-1 26.614795888697216 -1.9134393594708712 179.92592410647853 0 1 0 0.54463904215088732 0 0.83867056331134215 forward_v I I I I #
coedge $-1 $177 $178 $179 $180 reversed $65 $-1 #
coedge $-1 $108 $67 $181 $182 reversed $42 $-1 #
coedge $-1 $67 $107 $177 $183 reversed $42 $-1 #
coedge $-1 $179 $184 $67 $110 forward $185 $-1 #
edge $-1 $186 -51.301507356716485 $187 -32.594348718910112 $109 $188 forward 7 unknown #
loop $-1 $-1 $116 $68 #
plane-surface $-1 -43.762268706481734 1.7352423266691872 71.554750098931692 0.54463904215088732 0 0.83867056331134215 0.83867056331134215 0 -0.54463904215088732 forward_v I I I I #
loop $-1 $-1 $189 $44 #
coedge $-1 $114 $114 $115 $190 reversed $69 $-1 #
coedge $-1 $115 $115 $114 $190 forward $71 $-1 #
coedge $-1 $116 $116 $72 $117 forward $111 $-1 #
edge $-1 $191 0 $191 6.2831853071796004 $116 $192 forward 7 unknown #
face $-1 $193 $194 $25 $-1 $195 forward single #
loop $-1 $-1 $196 $73 #
plane-surface $-1 -159.11283046799224 17.176112007295924 91.795846756149118 0 -1 0 0.73135370988377701 0 -0.68199835119979291 forward_v I I I I #
coedge $-1 $197 $198 $199 $200 reversed $74 $-1 #
coedge $-1 $123 $76 $201 $202 reversed $48 $-1 #
coedge $-1 $76 $122 $197 $203 reversed $48 $-1 #
coedge $-1 $199 $204 $76 $125 forward $194 $-1 #
edge $-1 $205 14.947509932931027 $206 23.952568819723922 $124 $207 forward 7 unknown #
loop $-1 $-1 $131 $77 #
plane-surface $-1 -64.608905301065079 13.254853976555765 3.6695129798492161 -0.73135370988377701 0 0.68199835119979291 0.68199835119979291 0 0.73135370988377701 forward_v I I I I #
loop $-1 $-1 $208 $50 #
coedge $-1 $129 $129 $130 $209 reversed $78 $-1 #
coedge $-1 $130 $130 $129 $209 forward $80 $-1 #
coedge $-1 $131 $131 $81 $132 forward $126 $-1 #
edge $-1 $210 0 $210 6.2831853071796004 $131 $211 forward 7 unknown #
loop $-1 $-1 $138 $82 #
plane-surface $-1 -64.608905301065079 13.254853976555765 3.6695129798492161 -0.73135370988377701 0 0.68199835119979291 0.68199835119979291 0 0.73135370988377701 forward_v I I I I #
loop $-1 $-1 $212 $53 #
coedge $-1 $136 $136 $137 $213 reversed $83 $-1 #
coedge $-1 $137 $137 $136 $213 forward $85 $-1 #
coedge $-1 $138 $138 $86 $139 forward $133 $-1 #
edge $-1 $214 0 $214 6.2831853071796004 $138 $215 forward 7 unknown #
face $-1 $216 $217 $21 $-1 $218 reversed single #
loop $-1 $-1 $219 $87 #
plane-surface $-1 -64.608905301065093 0 0 1 0 0 0 0 -1 forward_v I I I I #
coedge $-1 $220 $151 $221 $222 forward $88 $-1 #
coedge $-1 $223 $90 $220 $224 forward $57 $-1 #
coedge $-1 $90 $223 $225 $226 forward $57 $-1 #
coedge $-1 $154 $153 $90 $147 reversed $155 $-1 #
edge $-1 $227 -34.780992616294981 $228 34.780992616294981 $146 $229 forward 7 unknown #
coedge $-1 $92 $91 $230 $231 forward $36 $-1 #
coedge $-1 $232 $233 $91 $150 reversed $217 $-1 #
edge $-1 $157 -64.608905301065093 $234 64.608905301065093 $149 $235 forward 7 unknown #
coedge $-1 $143 $236 $92 $152 reversed $88 $-1 #
edge $-1 $237 -64.608905301065093 $156 64.608905301065093 $151 $238 forward 7 unknown #
coedge $-1 $146 $93 $236 $239 forward $155 $-1 #
coedge $-1 $93 $146 $232 $240 reversed $155 $-1 #
loop $-1 $-1 $153 $216 #
vertex $-1 $94 $241 #
vertex $-1 $94 $242 #
straight-curve $-1 64.608905301065093 0 13.326256596592211 0 1 0 I I #
face $-1 $243 $244 $22 $-1 $245 reversed single #
loop $-1 $-1 $246 $95 #
plane-surface $-1 0 -41.352996275379915 6.3707399923144195 0 0 1 1 0 0 forward_v I I I I #
coedge $-1 $101 $247 $248 $249 forward $96 $-1 #
coedge $-1 $250 $98 $251 $252 reversed $61 $-1 #
coedge $-1 $98 $250 $169 $253 reversed $61 $-1 #
edge $-1 $170 -12.154384972329002 $254 -6.3707399923144195 $98 $255 forward 7 unknown #
coedge $-1 $100 $99 $256 $257 forward $39 $-1 #
coedge $-1 $248 $258 $99 $168 forward $259 $-1 #
edge $-1 $260 6.3707399923144195 $171 12.154384972329002 $167 $261 forward 7 unknown #
coedge $-1 $247 $101 $164 $253 forward $96 $-1 #
vertex $-1 $165 $262 #
vertex $-1 $249 $263 #
straight-curve $-1 0 -34.780992616294981 12.154384972329002 1 0 0 I I #
face $-1 $-1 $185 $23 $-1 $264 forward single #
loop $-1 $-1 $265 $103 #
plane-surface $-1 64.608905301065093 0 0 -1 0 0 0 0 1 forward_v I I I I #
coedge $-1 $266 $267 $268 $269 reversed $104 $-1 #
coedge $-1 $270 $106 $108 $183 forward $65 $-1 #
coedge $-1 $106 $270 $266 $271 forward $65 $-1 #
coedge $-1 $268 $109 $106 $180 forward $185 $-1 #
edge $-1 $187 -4.516302849474652 $272 2.7810605228054648 $179 $273 forward 7 unknown #
coedge $-1 $274 $275 $107 $182 forward $174 $-1 #
edge $-1 $276 -88.785276549486511 $186 -76.63670545664705 $181 $277 forward 7 unknown #
edge $-1 $187 106.91208120590041 $276 129.21781060213016 $108 $278 forward 7 unknown #
coedge $-1 $109 $268 $274 $279 forward $185 $-1 #
loop $-1 $-1 $268 $173 #
vertex $-1 $182 $280 #
vertex $-1 $110 $281 #
straight-curve $-1 13.307397944348608 5.3839240128092456 13.326256596592216 -1 0 0 I I #
coedge $-1 $189 $189 $-1 $282 reversed $113 $-1 #
edge $-1 $283 0 $283 6.2831853071796004 $114 $284 forward 7 unknown #
vertex $-1 $117 $285 #
ellipse-curve $-1 55.255325982161892 1.7352423266691872 7.2519710501724841 0.54463904215088732 0 0.83867056331134215 1.2580058449670133 0 -0.81695856322633098 1 I I #
face $-1 $-1 $286 $25 $-1 $287 reversed single #
loop $-1 $-1 $124 $118 #
plane-surface $-1 0 0 13.326256596592211 0 0 1 1 0 0 forward_v I I I I #
coedge $-1 $288 $289 $290 $291 reversed $119 $-1 #
coedge $-1 $292 $121 $123 $203 forward $74 $-1 #
coedge $-1 $121 $292 $288 $293 forward $74 $-1 #
coedge $-1 $290 $124 $121 $200 forward $194 $-1 #
edge $-1 $206 2.7061689575377237 $294 10.548685019018041 $199 $295 forward 7 unknown #
coedge $-1 $296 $297 $122 $202 forward $286 $-1 #
edge $-1 $298 -42.228410398225357 $205 -32.57166678148235 $201 $299 forward 7 unknown #
edge $-1 $206 -13.203930582751259 $298 2.0734513383776317e-014 $123 $300 forward 7 unknown #
coedge $-1 $124 $290 $296 $301 forward $194 $-1 #
vertex $-1 $125 $302 #
vertex $-1 $125 $303 #
straight-curve $-1 -79.55641523399612 9.3335959458156061 13.326256596592209 1 0 0 I I #
coedge $-1 $208 $208 $-1 $304 reversed $128 $-1 #
edge $-1 $305 0 $305 6.2831853071796004 $129 $306 forward 7 unknown #
vertex $-1 $132 $307 #
ellipse-curve $-1 -60.106375857668645 11.574314820524265 8.4978847882207056 -0.73135370988377701 0 0.68199835119979291 0.68199835119979291 0 0.73135370988377701 1 I I #
coedge $-1 $212 $212 $-1 $308 reversed $135 $-1 #
edge $-1 $309 0 $309 6.2831853071796004 $136 $310 forward 7 unknown #
vertex $-1 $139 $311 #
ellipse-curve $-1 -60.106375857668645 14.935393132587258 8.4978847882207056 -0.73135370988377701 0 0.68199835119979291 0.68199835119979291 0 0.73135370988377701 1 I I #
face $-1 $-1 $155 $21 $-1 $312 reversed single #
loop $-1 $-1 $232 $140 #
plane-surface $-1 0 34.780992616294981 0 0 -1 0 0 0 -1 forward_v I I I I #
coedge $-1 $313 $230 $233 $314 forward $141 $-1 #
coedge $-1 $236 $143 $144 $224 reversed $88 $-1 #
coedge $-1 $230 $313 $143 $222 reversed $141 $-1 #
edge $-1 $237 -13.326256596592211 $315 13.326256596592211 $221 $316 forward 7 unknown #
coedge $-1 $145 $144 $313 $317 forward $57 $-1 #
edge $-1 $228 -64.608905301065093 $315 64.608905301065093 $220 $318 forward 7 unknown #
coedge $-1 $233 $232 $145 $226 reversed $217 $-1 #
edge $-1 $319 -64.608905301065093 $227 64.608905301065093 $225 $320 forward 7 unknown #
vertex $-1 $147 $321 #
vertex $-1 $239 $322 #
straight-curve $-1 64.608905301065093 0 -13.326256596592211 0 -1 0 I I #
coedge $-1 $219 $221 $148 $231 reversed $141 $-1 #
edge $-1 $234 -34.780992616294981 $237 34.780992616294981 $230 $323 forward 7 unknown #
coedge $-1 $225 $149 $154 $240 forward $217 $-1 #
coedge $-1 $149 $225 $219 $314 reversed $217 $-1 #
vertex $-1 $150 $324 #
straight-curve $-1 0 34.780992616294981 13.326256596592211 -1 0 0 I I #
coedge $-1 $151 $220 $153 $239 reversed $88 $-1 #
vertex $-1 $231 $325 #
straight-curve $-1 0 -34.780992616294981 13.326256596592211 1 0 0 I I #
edge $-1 $156 -13.326256596592211 $228 13.326256596592211 $153 $326 forward 7 unknown #
edge $-1 $157 -13.326256596592211 $227 13.326256596592211 $154 $327 forward 7 unknown #
point $-1 64.608905301065093 -34.780992616294981 13.326256596592211 #
point $-1 64.608905301065093 34.780992616294981 13.326256596592211 #
face $-1 $-1 $259 $22 $-1 $328 reversed single #
loop $-1 $-1 $329 $159 #
plane-surface $-1 0 -47.92499993446485 9.2625624823217105 0 1 0 0 0 1 forward_v I I I I #
coedge $-1 $330 $256 $258 $331 forward $160 $-1 #
coedge $-1 $162 $169 $332 $333 forward $96 $-1 #
coedge $-1 $334 $167 $162 $249 reversed $259 $-1 #
edge $-1 $335 -6.5720036590849347 $171 6.5720036590849347 $248 $336 forward 7 unknown #
coedge $-1 $164 $163 $329 $337 reversed $61 $-1 #
coedge $-1 $256 $330 $163 $252 forward $160 $-1 #
edge $-1 $338 -6.5720036590849347 $254 6.5720036590849347 $163 $339 forward 7 unknown #
edge $-1 $170 -6.5720036590849347 $340 6.5720036590849347 $164 $341 forward 7 unknown #
vertex $-1 $165 $342 #
straight-curve $-1 -64.608905301065093 -34.780992616294981 0 0 0 -1 I I #
coedge $-1 $246 $251 $166 $257 reversed $160 $-1 #
edge $-1 $260 -64.608905301065093 $254 64.608905301065093 $256 $343 forward 7 unknown #
coedge $-1 $167 $334 $246 $331 reversed $259 $-1 #
loop $-1 $-1 $167 $243 #
vertex $-1 $168 $344 #
straight-curve $-1 64.608905301065093 -34.780992616294981 0 0 0 1 I I #
point $-1 -64.608905301065093 -34.780992616294981 12.154384972329002 #
point $-1 64.608905301065093 -34.780992616294981 12.154384972329002 #
plane-surface $-1 0 0 13.326256596592211 0 0 1 1 0 0 forward_v I I I I #
coedge $-1 $275 $274 $267 $345 forward $174 $-1 #
coedge $-1 $267 $176 $178 $271 reversed $104 $-1 #
coedge $-1 $176 $266 $265 $345 reversed $104 $-1 #
coedge $-1 $184 $179 $176 $269 forward $185 $-1 #
edge $-1 $272 32.594348718910112 $346 51.301507356716485 $268 $347 forward 7 unknown #
coedge $-1 $178 $177 $275 $348 reversed $65 $-1 #
edge $-1 $349 -129.21781060213016 $272 -106.91208120590041 $266 $350 forward 7 unknown #
vertex $-1 $180 $351 #
straight-curve $-1 45.901746663258741 0.8676211633345936 13.326256596592202 0 -1 0 I I #
coedge $-1 $265 $181 $184 $279 reversed $174 $-1 #
coedge $-1 $181 $265 $270 $348 forward $174 $-1 #
vertex $-1 $182 $352 #
straight-curve $-1 64.608905301065093 5.3839240128092456 89.962962053239266 0 0 1 I I #
straight-curve $-1 -43.762268706481734 5.3839240128092456 71.554750098931692 0.83867056331134215 0 -0.54463904215088732 I I #
edge $-1 $346 -1.9134393594708712 $186 5.3839240128092456 $274 $353 forward 7 unknown #
point $-1 64.608905301065093 5.3839240128092456 13.326256596592211 #
point $-1 45.90174666325872 5.3839240128092456 13.326256596592209 #
edge $-1 $354 1 $354 0 $189 $-1 forward 7 unknown #
vertex $-1 $190 $355 #
ellipse-curve $-1 53.516194306412203 1.7352423266691872 4.573943165110375 0.54463904215088732 0 0.83867056331134215 1.2580058449670133 0 -0.81695856322633098 1 I I #
point $-1 56.513331827128887 1.7352423266691872 6.4350124869461194 #
loop $-1 $-1 $201 $193 #
plane-surface $-1 -64.608905301065093 0 0 1 0 0 0 0 -1 forward_v I I I I #
coedge $-1 $289 $196 $198 $293 reversed $119 $-1 #
coedge $-1 $196 $288 $356 $357 reversed $119 $-1 #
coedge $-1 $204 $199 $196 $291 forward $194 $-1 #
edge $-1 $294 -23.952568819723922 $358 -14.947509932931027 $290 $359 forward 7 unknown #
coedge $-1 $198 $197 $297 $360 reversed $74 $-1 #
edge $-1 $361 -2.0734513383776317e-014 $294 13.203930582751259 $288 $362 forward 7 unknown #
vertex $-1 $200 $363 #
straight-curve $-1 -55.603846414272198 6.6274269882778825 13.326256596592211 0 1 0 I I #
coedge $-1 $356 $201 $204 $301 reversed $286 $-1 #
coedge $-1 $201 $356 $292 $360 forward $286 $-1 #
vertex $-1 $202 $364 #
straight-curve $-1 -64.608905301065093 9.3335959458156061 45.897923378074559 0 0 1 I I #
straight-curve $-1 -64.608905301065079 9.3335959458156061 3.6695129798492161 -0.68199835119979291 0 -0.73135370988377701 I I #
edge $-1 $358 -17.176112007295924 $205 -9.3335959458156061 $296 $365 forward 7 unknown #
point $-1 -64.608905301065093 9.3335959458156061 13.326256596592211 #
point $-1 -55.603846414272198 9.3335959458156061 13.326256596592211 #
edge $-1 $366 1 $366 0 $208 $-1 forward 7 unknown #
vertex $-1 $209 $367 #
ellipse-curve $-1 -57.960637149413806 11.574314820524265 6.4969511204774628 -0.73135370988377701 0 0.68199835119979291 0.68199835119979291 0 0.73135370988377701 1 I I #
point $-1 -59.424377506468865 11.574314820524265 9.2292384981044968 #
edge $-1 $368 1 $368 0 $212 $-1 forward 7 unknown #
vertex $-1 $213 $369 #
ellipse-curve $-1 -57.960637149413806 14.935393132587258 6.4969511204774628 -0.73135370988377701 0 0.68199835119979291 0.68199835119979291 0 0.73135370988377701 1 I I #
point $-1 -59.424377506468865 14.935393132587258 9.2292384981044968 #
plane-surface $-1 64.608905301065093 0 0 -1 0 0 0 0 1 forward_v I I I I #
coedge $-1 $221 $219 $223 $317 reversed $141 $-1 #
edge $-1 $234 -13.326256596592211 $319 13.326256596592211 $233 $370 forward 7 unknown #
vertex $-1 $317 $371 #
straight-curve $-1 -64.608905301065093 -34.780992616294981 0 0 0 -1 I I #
edge $-1 $315 -34.780992616294981 $319 34.780992616294981 $313 $372 forward 7 unknown #
straight-curve $-1 0 -34.780992616294981 -13.326256596592211 -1 0 0 I I #
vertex $-1 $226 $373 #
straight-curve $-1 0 34.780992616294981 -13.326256596592211 1 0 0 I I #
point $-1 64.608905301065093 34.780992616294981 -13.326256596592211 #
point $-1 64.608905301065093 -34.780992616294981 -13.326256596592211 #
straight-curve $-1 -64.608905301065093 0 13.326256596592211 0 -1 0 I I #
point $-1 -64.608905301065093 34.780992616294981 13.326256596592211 #
point $-1 -64.608905301065093 -34.780992616294981 13.326256596592211 #
straight-curve $-1 64.608905301065093 -34.780992616294981 0 0 0 -1 I I #
straight-curve $-1 64.608905301065093 34.780992616294981 0 0 0 -1 I I #
plane-surface $-1 64.608905301065093 0 0 -1 0 0 0 0 1 forward_v I I I I #
coedge $-1 $374 $332 $250 $337 forward $244 $-1 #
coedge $-1 $251 $246 $374 $375 forward $160 $-1 #
edge $-1 $260 -6.5720036590849347 $376 6.5720036590849347 $258 $377 forward 7 unknown #
coedge $-1 $329 $378 $247 $333 reversed $244 $-1 #
edge $-1 $340 -64.608905301065093 $335 64.608905301065093 $332 $379 forward 7 unknown #
coedge $-1 $258 $248 $378 $380 forward $259 $-1 #
vertex $-1 $249 $381 #
straight-curve $-1 64.608905301065093 -41.352996275379915 12.154384972329002 0 1 0 I I #
edge $-1 $340 -2.8918224900072911 $338 2.8918224900072911 $250 $382 forward 7 unknown #
vertex $-1 $252 $383 #
straight-curve $-1 -64.608905301065093 -41.352996275379915 6.3707399923144195 0 1 0 I I #
vertex $-1 $253 $384 #
straight-curve $-1 -64.608905301065093 -41.352996275379915 12.154384972329002 0 -1 0 I I #
point $-1 -64.608905301065093 -34.780992616294981 6.3707399923144195 #
straight-curve $-1 0 -34.780992616294981 6.3707399923144195 -1 0 0 I I #
point $-1 64.608905301065093 -34.780992616294981 6.3707399923144195 #
edge $-1 $346 76.63670545664705 $349 88.785276549486511 $265 $385 forward 7 unknown #
vertex $-1 $279 $386 #
straight-curve $-1 13.307397944348608 -1.9134393594708712 13.326256596592216 1 0 0 I I #
edge $-1 $349 -2.7810605228054648 $276 4.516302849474652 $275 $387 forward 7 unknown #
vertex $-1 $348 $388 #
straight-curve $-1 -43.762268706481734 -1.9134393594708712 71.554750098931692 -0.83867056331134215 0 0.54463904215088732 I I #
point $-1 45.90174666325872 -1.9134393594708712 13.326256596592209 #
point $-1 64.608905301065079 5.3839240128092456 1.1776855037527554 #
straight-curve $-1 64.608905301065093 0 13.326256596592211 0 1 0 I I #
vertex $-1 $282 $389 #
point $-1 54.774200151379212 1.7352423266691872 3.7569846018840445 #
coedge $-1 $297 $296 $289 $357 forward $286 $-1 #
edge $-1 $358 32.57166678148235 $361 42.228410398225357 $356 $390 forward 7 unknown #
vertex $-1 $301 $391 #
straight-curve $-1 -79.55641523399612 17.176112007295924 13.326256596592209 -1 0 0 I I #
edge $-1 $361 -10.548685019018041 $298 -2.7061689575377237 $297 $392 forward 7 unknown #
vertex $-1 $360 $393 #
straight-curve $-1 -64.608905301065079 17.176112007295924 3.6695129798492161 0.68199835119979291 0 0.73135370988377701 I I #
point $-1 -55.603846414272198 17.176112007295924 13.326256596592211 #
point $-1 -64.608905301065093 9.3335959458156061 3.669512979849201 #
straight-curve $-1 -64.608905301065093 0 13.326256596592211 0 -1 0 I I #
vertex $-1 $304 $394 #
point $-1 -57.278638798214011 11.574314820524265 7.2283048303612398 #
vertex $-1 $308 $395 #
point $-1 -57.278638798214011 14.935393132587258 7.2283048303612398 #
straight-curve $-1 -64.608905301065093 34.780992616294981 0 0 0 -1 I I #
point $-1 -64.608905301065093 -34.780992616294981 -13.326256596592211 #
straight-curve $-1 -64.608905301065093 0 -13.326256596592211 0 1 0 I I #
point $-1 -64.608905301065093 34.780992616294981 -13.326256596592211 #
coedge $-1 $378 $329 $330 $375 reversed $244 $-1 #
edge $-1 $376 -64.608905301065093 $338 64.608905301065093 $374 $396 forward 7 unknown #
vertex $-1 $380 $397 #
straight-curve $-1 64.608905301065093 -41.352996275379915 6.3707399923144195 0 -1 0 I I #
coedge $-1 $332 $374 $334 $380 reversed $244 $-1 #
straight-curve $-1 0 -47.92499993446485 12.154384972329002 1 0 0 I I #
edge $-1 $335 -2.8918224900072911 $376 2.8918224900072911 $334 $398 forward 7 unknown #
point $-1 64.608905301065093 -47.92499993446485 12.154384972329002 #
straight-curve $-1 -64.608905301065093 -47.92499993446485 9.2625624823217105 0 0 -1 I I #
point $-1 -64.608905301065093 -47.92499993446485 6.3707399923144195 #
point $-1 -64.608905301065093 -47.92499993446485 12.154384972329002 #
straight-curve $-1 64.608905301065093 -1.9134393594708712 89.962962053239266 0 0 -1 I I #
point $-1 64.608905301065093 -1.9134393594708712 13.326256596592211 #
straight-curve $-1 64.608905301065079 0.8676211633345936 1.1776855037527483 0 1 0 I I #
point $-1 64.608905301065079 -1.9134393594708712 1.1776855037527554 #
point $-1 52.699235743185866 1.7352423266691872 3.315937320143362 #
straight-curve $-1 -64.608905301065093 17.176112007295924 45.897923378074559 0 0 -1 I I #
point $-1 -64.608905301065093 17.176112007295924 13.326256596592211 #
straight-curve $-1 -64.608905301065093 6.6274269882778825 3.6695129798491921 0 -1 0 I I #
point $-1 -64.608905301065093 17.176112007295924 3.669512979849201 #
point $-1 -57.229283439530029 11.574314820524265 5.8149527692776699 #
point $-1 -57.229283439530029 14.935393132587258 5.8149527692776699 #
straight-curve $-1 0 -47.92499993446485 6.3707399923144195 -1 0 0 I I #
point $-1 64.608905301065093 -47.92499993446485 6.3707399923144195 #
straight-curve $-1 64.608905301065093 -47.92499993446485 9.2625624823217105 0 0 -1 I I #
End-of-ACIS-data 