500 0 6 0           
7 Unknown 11 ACIS 5.0 NT 24 Fri Mar 26 20:36:25 1999 
-1 9.9999999999999995e-007 1e-010 
body $-1 $6 $-1 $7 #
body $-1 $8 $-1 $9 #
body $-1 $10 $-1 $11 #
body $-1 $12 $-1 $13 #
body $-1 $14 $-1 $15 #
body $-1 $16 $-1 $17 #
lump $-1 $-1 $18 $0 #
transform $-1 1 0 0 0 1 0 0 0 1 59.514755699331644 26.21104890582156 5.3386803917799339 1 rotate no_reflect no_shear #
lump $-1 $-1 $19 $1 #
transform $-1 1 0 0 0 1 0 0 0 1 59.514755699331644 26.21104890582156 5.3386803917799339 1 rotate no_reflect no_shear #
lump $-1 $-1 $20 $2 #
transform $-1 1 0 0 0 1 0 0 0 1 59.514755699331644 26.21104890582156 5.3386803917799339 1 rotate no_reflect no_shear #
lump $-1 $-1 $21 $3 #
transform $-1 1 0 0 0 1 0 0 0 1 59.514755699331644 26.21104890582156 5.3386803917799339 1 rotate no_reflect no_shear #
lump $-1 $-1 $22 $4 #
transform $-1 1 0 0 0 1 0 0 0 1 59.514755699331644 26.21104890582156 5.3386803917799339 1 rotate no_reflect no_shear #
lump $-1 $-1 $23 $5 #
transform $-1 1 0 0 0 1 0 0 0 1 59.514755699331644 26.21104890582156 5.3386803917799339 1 rotate no_reflect no_shear #
shell $-1 $-1 $-1 $24 $-1 $6 #
shell $-1 $-1 $-1 $25 $-1 $8 #
shell $-1 $-1 $-1 $26 $-1 $10 #
shell $-1 $-1 $-1 $27 $-1 $12 #
shell $-1 $-1 $-1 $28 $-1 $14 #
shell $-1 $-1 $-1 $29 $-1 $16 #
face $-1 $30 $31 $18 $-1 $32 forward single #
face $-1 $33 $34 $19 $-1 $35 reversed single #
face $-1 $36 $37 $20 $-1 $38 reversed single #
face $-1 $39 $40 $21 $-1 $41 forward single #
face $-1 $42 $43 $22 $-1 $44 forward single #
face $-1 $45 $46 $23 $-1 $47 forward single #
face $-1 $48 $49 $18 $-1 $50 reversed single #
loop $-1 $-1 $51 $24 #
plane-surface $-1 0 0 5.3386803917799339 0 0 1 1 0 0 forward_v I I I I #
face $-1 $52 $53 $19 $-1 $54 reversed single #
loop $-1 $-1 $55 $25 #
plane-surface $-1 0 -22.759781925781983 2.3386803917799339 0 0 1 1 0 0 forward_v I I I I #
face $-1 $56 $57 $20 $-1 $58 reversed single #
loop $-1 $-1 $59 $26 #
plane-surface $-1 -40.311791676059116 22.760813612307071 65.786801745077781 0.54463904215088732 0 0.83867056331134215 0.83867056331134215 0 -0.54463904215088732 forward_v I I I I #
face $-1 $60 $61 $21 $-1 $62 forward single #
loop $-1 $63 $64 $27 #
cone-surface $-1 55.820048772663682 20.690672436198387 2.6522221888183619 -0.54463904215088732 0 -0.83867056331134215 0.41933528165567108 0 -0.27231952107544366 1 I I 0 1 0.5 forward I I I I #
face $-1 $65 $66 $22 $-1 $67 forward single #
loop $-1 $68 $69 $28 #
cone-surface $-1 55.820048772663682 22.760813612307079 2.6522221888183619 -0.54463904215088732 0 -0.83867056331134215 0.41933528165567108 0 -0.27231952107544366 1 I I 0 1 0.5 forward I I I I #
face $-1 $70 $71 $23 $-1 $72 forward single #
loop $-1 $73 $74 $29 #
cone-surface $-1 55.820048772663682 24.83095478841577 2.6522221888183619 -0.54463904215088732 0 -0.83867056331134215 0.41933528165567108 0 -0.27231952107544366 1 I I 0 1 0.5 forward I I I I #
face $-1 $75 $76 $18 $-1 $77 reversed single #
loop $-1 $-1 $78 $30 #
plane-surface $-1 0 0 -5.3386803917799339 0 0 1 1 0 0 forward_v I I I I #
coedge $-1 $79 $80 $81 $82 forward $31 $-1 #
face $-1 $83 $84 $19 $-1 $85 reversed single #
loop $-1 $-1 $86 $33 #
plane-surface $-1 0 -19.308514945742406 3.8386803917799339 0 -1 0 0 0 -1 forward_v I I I I #
coedge $-1 $87 $88 $89 $90 reversed $34 $-1 #
face $-1 $91 $92 $20 $-1 $93 reversed single #
loop $-1 $-1 $94 $36 #
plane-surface $-1 24.516327399796978 19.310578318792587 165.61334912046854 0 1 0 0.54463904215088732 0 0.83867056331134215 forward_v I I I I #
coedge $-1 $95 $96 $97 $98 reversed $37 $-1 #
face $-1 $-1 $99 $21 $-1 $100 forward single #
loop $-1 $101 $102 $39 #
cone-surface $-1 55.361484539917939 20.690672436198387 1.9460952063080628 -0.54463904215088732 0 -0.83867056331134215 0.20966764082783554 0 -0.13615976053772183 1 I I -0.70710678118654746 0.70710678118654746 0.25 forward I I I I #
loop $-1 $-1 $103 $27 #
coedge $-1 $64 $64 $104 $105 reversed $40 $-1 #
face $-1 $-1 $106 $22 $-1 $107 forward single #
loop $-1 $108 $109 $42 #
cone-surface $-1 55.361484539917939 22.760813612307079 1.9460952063080628 -0.54463904215088732 0 -0.83867056331134215 0.20966764082783554 0 -0.13615976053772183 1 I I -0.70710678118654746 0.70710678118654746 0.25 forward I I I I #
loop $-1 $-1 $110 $28 #
coedge $-1 $69 $69 $111 $112 reversed $43 $-1 #
face $-1 $-1 $113 $23 $-1 $114 forward single #
loop $-1 $115 $116 $45 #
cone-surface $-1 55.361484539917939 24.83095478841577 1.9460952063080628 -0.54463904215088732 0 -0.83867056331134215 0.20966764082783554 0 -0.13615976053772183 1 I I -0.70710678118654746 0.70710678118654746 0.25 forward I I I I #
loop $-1 $-1 $117 $29 #
coedge $-1 $74 $74 $118 $119 reversed $46 $-1 #
face $-1 $120 $121 $18 $-1 $122 reversed single #
loop $-1 $-1 $123 $48 #
plane-surface $-1 0 -26.21104890582156 0 0 1 0 0 0 1 forward_v I I I I #
coedge $-1 $124 $125 $126 $127 forward $49 $-1 #
coedge $-1 $128 $51 $129 $130 forward $31 $-1 #
coedge $-1 $51 $128 $131 $132 forward $31 $-1 #
coedge $-1 $133 $134 $51 $82 reversed $135 $-1 #
edge $-1 $136 -26.21104890582156 $137 26.21104890582156 $81 $138 forward 7 unknown #
face $-1 $139 $140 $19 $-1 $141 reversed single #
loop $-1 $-1 $142 $52 #
plane-surface $-1 -59.514755699331644 0 0 1 0 0 0 0 -1 forward_v I I I I #
coedge $-1 $143 $144 $145 $146 reversed $53 $-1 #
coedge $-1 $147 $55 $148 $149 reversed $34 $-1 #
coedge $-1 $55 $147 $143 $150 forward $34 $-1 #
coedge $-1 $145 $151 $55 $90 forward $152 $-1 #
edge $-1 $153 -14.831157942930568 $154 -7.9286239828514145 $89 $155 forward 7 unknown #
face $-1 $156 $157 $20 $-1 $158 forward single #
loop $-1 $-1 $159 $56 #
plane-surface $-1 0 26.21104890582156 0 0 -1 0 0 0 -1 forward_v I I I I #
coedge $-1 $160 $161 $162 $163 reversed $57 $-1 #
coedge $-1 $164 $59 $159 $165 reversed $37 $-1 #
coedge $-1 $59 $164 $160 $166 forward $37 $-1 #
coedge $-1 $162 $167 $59 $98 forward $157 $-1 #
edge $-1 $168 -14.830642099668021 $169 -7.9301715126390508 $97 $170 forward 7 unknown #
loop $-1 $-1 $104 $60 #
plane-surface $-1 -40.311791676059116 22.760813612307071 65.786801745077781 0.54463904215088732 0 0.83867056331134215 0.83867056331134215 0 -0.54463904215088732 forward_v I I I I #
loop $-1 $-1 $171 $39 #
coedge $-1 $102 $102 $103 $172 reversed $61 $-1 #
coedge $-1 $103 $103 $102 $172 forward $63 $-1 #
coedge $-1 $104 $104 $64 $105 forward $99 $-1 #
edge $-1 $173 0 $173 6.2831853071796004 $104 $174 forward 7 unknown #
loop $-1 $-1 $111 $65 #
plane-surface $-1 -40.311791676059116 22.760813612307071 65.786801745077781 0.54463904215088732 0 0.83867056331134215 0.83867056331134215 0 -0.54463904215088732 forward_v I I I I #
loop $-1 $-1 $175 $42 #
coedge $-1 $109 $109 $110 $176 reversed $66 $-1 #
coedge $-1 $110 $110 $109 $176 forward $68 $-1 #
coedge $-1 $111 $111 $69 $112 forward $106 $-1 #
edge $-1 $177 0 $177 6.2831853071796004 $111 $178 forward 7 unknown #
loop $-1 $-1 $118 $70 #
plane-surface $-1 -40.311791676059116 22.760813612307071 65.786801745077781 0.54463904215088732 0 0.83867056331134215 0.83867056331134215 0 -0.54463904215088732 forward_v I I I I #
loop $-1 $-1 $179 $45 #
coedge $-1 $116 $116 $117 $180 reversed $71 $-1 #
coedge $-1 $117 $117 $116 $180 forward $73 $-1 #
coedge $-1 $118 $118 $74 $119 forward $113 $-1 #
edge $-1 $181 0 $181 6.2831853071796004 $118 $182 forward 7 unknown #
face $-1 $183 $184 $18 $-1 $185 reversed single #
loop $-1 $-1 $186 $75 #
plane-surface $-1 -59.514755699331644 0 0 1 0 0 0 0 -1 forward_v I I I I #
coedge $-1 $187 $131 $188 $189 forward $76 $-1 #
coedge $-1 $190 $78 $187 $191 forward $49 $-1 #
coedge $-1 $78 $190 $192 $193 forward $49 $-1 #
coedge $-1 $134 $133 $78 $127 reversed $135 $-1 #
edge $-1 $194 -26.21104890582156 $195 26.21104890582156 $126 $196 forward 7 unknown #
coedge $-1 $80 $79 $197 $198 forward $31 $-1 #
coedge $-1 $199 $200 $79 $130 reversed $184 $-1 #
edge $-1 $137 -59.514755699331644 $201 59.514755699331644 $129 $202 forward 7 unknown #
coedge $-1 $123 $203 $80 $132 reversed $76 $-1 #
edge $-1 $204 -59.514755699331644 $136 59.514755699331644 $131 $205 forward 7 unknown #
coedge $-1 $126 $81 $203 $206 forward $135 $-1 #
coedge $-1 $81 $126 $199 $207 reversed $135 $-1 #
loop $-1 $-1 $133 $183 #
vertex $-1 $82 $208 #
vertex $-1 $82 $209 #
straight-curve $-1 59.514755699331644 0 5.3386803917799339 0 1 0 I I #
face $-1 $210 $211 $19 $-1 $212 forward single #
loop $-1 $-1 $148 $83 #
plane-surface $-1 0 -26.21104890582156 0 0 1 0 0 0 1 forward_v I I I I #
coedge $-1 $213 $214 $215 $216 forward $84 $-1 #
coedge $-1 $215 $86 $88 $150 reversed $53 $-1 #
coedge $-1 $86 $215 $217 $218 reversed $53 $-1 #
coedge $-1 $219 $89 $86 $146 forward $152 $-1 #
edge $-1 $154 0.41934019588996696 $220 3.419340195889967 $145 $221 forward 7 unknown #
coedge $-1 $88 $87 $213 $222 reversed $34 $-1 #
coedge $-1 $223 $224 $87 $149 forward $140 $-1 #
edge $-1 $225 -59.514755699331644 $153 59.514755699331644 $148 $226 forward 7 unknown #
edge $-1 $227 -59.514755699331644 $154 59.514755699331644 $143 $228 forward 7 unknown #
coedge $-1 $89 $219 $223 $229 forward $152 $-1 #
loop $-1 $-1 $145 $210 #
vertex $-1 $149 $230 #
vertex $-1 $90 $231 #
straight-curve $-1 59.514755699331644 -11.379890962890991 2.3386803917799339 0 1 0 I I #
face $-1 $-1 $232 $20 $-1 $233 reversed single #
loop $-1 $-1 $97 $91 #
plane-surface $-1 0 0 5.3386803917799339 0 0 1 1 0 0 forward_v I I I I #
coedge $-1 $234 $235 $95 $165 forward $92 $-1 #
coedge $-1 $161 $94 $96 $166 reversed $57 $-1 #
coedge $-1 $94 $160 $236 $237 reversed $57 $-1 #
coedge $-1 $238 $97 $94 $163 forward $157 $-1 #
edge $-1 $169 40.51198709051323 $239 47.256591999433155 $162 $240 forward 7 unknown #
coedge $-1 $96 $95 $241 $242 reversed $37 $-1 #
edge $-1 $243 -84.210324537833557 $168 -76.168305175320057 $159 $244 forward 7 unknown #
edge $-1 $245 -119.02951139866329 $169 -110.98749203614977 $160 $246 forward 7 unknown #
coedge $-1 $97 $238 $234 $247 forward $157 $-1 #
vertex $-1 $98 $248 #
vertex $-1 $98 $249 #
straight-curve $-1 52.770150790411726 11.380406806153536 5.3386803917799313 0 -1 0 I I #
coedge $-1 $171 $171 $-1 $250 reversed $101 $-1 #
edge $-1 $251 0 $251 6.2831853071796004 $102 $252 forward 7 unknown #
vertex $-1 $105 $253 #
ellipse-curve $-1 56.142453244871689 20.690672436198387 3.1486815305008053 0.54463904215088732 0 0.83867056331134215 0.41933528165567108 0 -0.27231952107544366 1 I I #
coedge $-1 $175 $175 $-1 $254 reversed $108 $-1 #
edge $-1 $255 0 $255 6.2831853071796004 $109 $256 forward 7 unknown #
vertex $-1 $112 $257 #
ellipse-curve $-1 56.142453244871689 22.760813612307079 3.1486815305008053 0.54463904215088732 0 0.83867056331134215 0.41933528165567108 0 -0.27231952107544366 1 I I #
coedge $-1 $179 $179 $-1 $258 reversed $115 $-1 #
edge $-1 $259 0 $259 6.2831853071796004 $116 $260 forward 7 unknown #
vertex $-1 $119 $261 #
ellipse-curve $-1 56.142453244871689 24.83095478841577 3.1486815305008053 0.54463904215088732 0 0.83867056331134215 0.41933528165567108 0 -0.27231952107544366 1 I I #
face $-1 $-1 $135 $18 $-1 $262 reversed single #
loop $-1 $-1 $199 $120 #
plane-surface $-1 0 26.21104890582156 0 0 -1 0 0 0 -1 forward_v I I I I #
coedge $-1 $263 $197 $200 $264 forward $121 $-1 #
coedge $-1 $203 $123 $124 $191 reversed $76 $-1 #
coedge $-1 $197 $263 $123 $189 reversed $121 $-1 #
edge $-1 $204 -5.3386803917799339 $265 5.3386803917799339 $188 $266 forward 7 unknown #
coedge $-1 $125 $124 $263 $267 forward $49 $-1 #
edge $-1 $195 -59.514755699331644 $265 59.514755699331644 $187 $268 forward 7 unknown #
coedge $-1 $200 $199 $125 $193 reversed $184 $-1 #
edge $-1 $269 -59.514755699331644 $194 59.514755699331644 $192 $270 forward 7 unknown #
vertex $-1 $127 $271 #
vertex $-1 $206 $272 #
straight-curve $-1 59.514755699331644 0 -5.3386803917799339 0 -1 0 I I #
coedge $-1 $186 $188 $128 $198 reversed $121 $-1 #
edge $-1 $201 -26.21104890582156 $204 26.21104890582156 $197 $273 forward 7 unknown #
coedge $-1 $192 $129 $134 $207 forward $184 $-1 #
coedge $-1 $129 $192 $186 $264 reversed $184 $-1 #
vertex $-1 $130 $274 #
straight-curve $-1 0 26.21104890582156 5.3386803917799339 -1 0 0 I I #
coedge $-1 $131 $187 $133 $206 reversed $76 $-1 #
vertex $-1 $198 $275 #
straight-curve $-1 0 -26.21104890582156 5.3386803917799339 1 0 0 I I #
edge $-1 $136 -5.3386803917799339 $195 5.3386803917799339 $133 $276 forward 7 unknown #
edge $-1 $137 -5.3386803917799339 $194 5.3386803917799339 $134 $277 forward 7 unknown #
point $-1 59.514755699331644 -26.21104890582156 5.3386803917799339 #
point $-1 59.514755699331644 26.21104890582156 5.3386803917799339 #
face $-1 $-1 $152 $19 $-1 $278 reversed single #
loop $-1 $-1 $217 $139 #
plane-surface $-1 0 0 5.3386803917799339 0 0 1 1 0 0 forward_v I I I I #
coedge $-1 $279 $142 $147 $222 forward $84 $-1 #
coedge $-1 $142 $279 $280 $281 reversed $84 $-1 #
coedge $-1 $144 $143 $142 $216 reversed $53 $-1 #
edge $-1 $282 -3.419340195889967 $227 -0.41934019588996696 $142 $283 forward 7 unknown #
coedge $-1 $280 $284 $144 $218 forward $211 $-1 #
edge $-1 $220 -59.514755699331644 $282 59.514755699331644 $217 $285 forward 7 unknown #
coedge $-1 $151 $145 $284 $286 reversed $152 $-1 #
vertex $-1 $146 $287 #
straight-curve $-1 59.514755699331644 -19.308514945742406 1.919340195889967 0 0 1 I I #
edge $-1 $227 7.9286239828514145 $225 14.831157942930568 $213 $288 forward 7 unknown #
coedge $-1 $289 $148 $151 $229 reversed $140 $-1 #
coedge $-1 $148 $289 $279 $290 forward $140 $-1 #
vertex $-1 $149 $291 #
straight-curve $-1 0 -26.21104890582156 2.3386803917799339 1 0 0 I I #
vertex $-1 $222 $292 #
straight-curve $-1 0 -19.308514945742406 2.3386803917799339 1 0 0 I I #
edge $-1 $293 -5.3386803917799339 $153 -2.3386803917799339 $151 $294 forward 7 unknown #
point $-1 59.514755699331644 -26.21104890582156 2.3386803917799339 #
point $-1 59.514755699331644 -19.308514945742406 2.3386803917799339 #
loop $-1 $-1 $241 $156 #
plane-surface $-1 59.514755699331644 0 0 -1 0 0 0 0 1 forward_v I I I I #
coedge $-1 $235 $159 $167 $247 reversed $92 $-1 #
coedge $-1 $159 $234 $295 $296 forward $92 $-1 #
coedge $-1 $241 $297 $161 $237 forward $232 $-1 #
edge $-1 $239 77.467994168454339 $245 81.847991891012583 $236 $298 forward 7 unknown #
coedge $-1 $167 $162 $297 $299 forward $157 $-1 #
vertex $-1 $299 $300 #
straight-curve $-1 12.258163699898489 19.310578318792587 5.3386803917799313 1 0 0 I I #
coedge $-1 $295 $236 $164 $242 forward $232 $-1 #
edge $-1 $245 7.9301715126390508 $243 14.830642099668021 $241 $301 forward 7 unknown #
vertex $-1 $242 $302 #
straight-curve $-1 -11.109964617444163 26.21104890582156 46.822913164722721 -0.83867056331134215 0 0.54463904215088732 I I #
vertex $-1 $242 $303 #
straight-curve $-1 -40.311791676059116 19.310578318792587 65.786801745077781 -0.83867056331134215 0 0.54463904215088732 I I #
edge $-1 $304 -59.514755699331644 $168 -52.770150790411719 $234 $305 forward 7 unknown #
point $-1 52.770150790411719 26.211048905821556 5.3386803917799313 #
point $-1 52.770150790411719 19.310578318792587 5.3386803917799313 #
edge $-1 $306 1 $306 0 $171 $-1 forward 7 unknown #
vertex $-1 $172 $307 #
ellipse-curve $-1 55.497644300455661 20.690672436198387 2.1557628471358985 0.54463904215088732 0 0.83867056331134215 0.41933528165567108 0 -0.27231952107544366 1 I I #
point $-1 56.561788526527373 20.690672436198387 2.8763620094253817 #
edge $-1 $308 1 $308 0 $175 $-1 forward 7 unknown #
vertex $-1 $176 $309 #
ellipse-curve $-1 55.497644300455661 22.760813612307079 2.1557628471358985 0.54463904215088732 0 0.83867056331134215 0.41933528165567108 0 -0.27231952107544366 1 I I #
point $-1 56.561788526527373 22.760813612307079 2.8763620094253817 #
edge $-1 $310 1 $310 0 $179 $-1 forward 7 unknown #
vertex $-1 $180 $311 #
ellipse-curve $-1 55.497644300455661 24.83095478841577 2.1557628471358985 0.54463904215088732 0 0.83867056331134215 0.41933528165567108 0 -0.27231952107544366 1 I I #
point $-1 56.561788526527373 24.83095478841577 2.8763620094253817 #
plane-surface $-1 59.514755699331644 0 0 -1 0 0 0 0 1 forward_v I I I I #
coedge $-1 $188 $186 $190 $267 reversed $121 $-1 #
edge $-1 $201 -5.3386803917799339 $269 5.3386803917799339 $200 $312 forward 7 unknown #
vertex $-1 $267 $313 #
straight-curve $-1 -59.514755699331644 -26.21104890582156 0 0 0 -1 I I #
edge $-1 $265 -26.21104890582156 $269 26.21104890582156 $263 $314 forward 7 unknown #
straight-curve $-1 0 -26.21104890582156 -5.3386803917799339 -1 0 0 I I #
vertex $-1 $193 $315 #
straight-curve $-1 0 26.21104890582156 -5.3386803917799339 1 0 0 I I #
point $-1 59.514755699331644 26.21104890582156 -5.3386803917799339 #
point $-1 59.514755699331644 -26.21104890582156 -5.3386803917799339 #
straight-curve $-1 -59.514755699331644 0 5.3386803917799339 0 -1 0 I I #
point $-1 -59.514755699331644 26.21104890582156 5.3386803917799339 #
point $-1 -59.514755699331644 -26.21104890582156 5.3386803917799339 #
straight-curve $-1 59.514755699331644 -26.21104890582156 0 0 0 -1 I I #
straight-curve $-1 59.514755699331644 26.21104890582156 0 0 0 -1 I I #
plane-surface $-1 59.514755699331644 0 0 -1 0 0 0 0 1 forward_v I I I I #
coedge $-1 $214 $213 $224 $290 reversed $84 $-1 #
coedge $-1 $316 $217 $214 $281 forward $211 $-1 #
edge $-1 $282 19.308514945742406 $317 26.21104890582156 $214 $318 forward 7 unknown #
vertex $-1 $281 $319 #
straight-curve $-1 -59.514755699331644 -19.308514945742406 1.919340195889967 0 0 -1 I I #
coedge $-1 $217 $316 $219 $286 forward $211 $-1 #
straight-curve $-1 0 -19.308514945742406 5.3386803917799339 -1 0 0 I I #
edge $-1 $293 -26.21104890582156 $220 -19.308514945742406 $219 $320 forward 7 unknown #
point $-1 59.514755699331644 -19.308514945742406 5.3386803917799339 #
straight-curve $-1 -59.514755699331644 -11.379890962890991 2.3386803917799339 0 -1 0 I I #
coedge $-1 $224 $223 $316 $321 reversed $140 $-1 #
edge $-1 $317 -5.3386803917799339 $225 -2.3386803917799339 $279 $322 forward 7 unknown #
point $-1 -59.514755699331644 -26.21104890582156 2.3386803917799339 #
point $-1 -59.514755699331644 -19.308514945742406 2.3386803917799339 #
vertex $-1 $286 $323 #
straight-curve $-1 59.514755699331644 -26.21104890582156 0 0 0 -1 I I #
coedge $-1 $297 $241 $235 $296 reversed $232 $-1 #
edge $-1 $304 -5.3386803917799339 $243 -0.95868266922168743 $295 $324 forward 7 unknown #
coedge $-1 $236 $295 $238 $299 reversed $232 $-1 #
straight-curve $-1 59.514755699331644 19.310578318792587 82.806674560234271 0 0 -1 I I #
edge $-1 $239 19.310578318792587 $304 26.21104890582156 $297 $325 forward 7 unknown #
point $-1 59.514755699331644 19.310578318792587 5.3386803917799339 #
straight-curve $-1 59.514755699331637 11.380406806153536 0.95868266922168743 0 1 0 I I #
point $-1 59.514755699331644 26.211048905821556 0.95868266922168743 #
point $-1 59.514755699331644 19.310578318792587 0.95868266922168743 #
vertex $-1 $299 $326 #
straight-curve $-1 0 26.21104890582156 5.3386803917799339 -1 0 0 I I #
vertex $-1 $250 $327 #
point $-1 55.916979582111331 20.690672436198387 1.8834433260604546 #
vertex $-1 $254 $328 #
point $-1 55.916979582111331 22.760813612307079 1.8834433260604546 #
vertex $-1 $258 $329 #
point $-1 55.916979582111331 24.83095478841577 1.8834433260604546 #
straight-curve $-1 -59.514755699331644 26.21104890582156 0 0 0 -1 I I #
point $-1 -59.514755699331644 -26.21104890582156 -5.3386803917799339 #
straight-curve $-1 -59.514755699331644 0 -5.3386803917799339 0 1 0 I I #
point $-1 -59.514755699331644 26.21104890582156 -5.3386803917799339 #
coedge $-1 $284 $280 $289 $321 forward $211 $-1 #
vertex $-1 $281 $330 #
straight-curve $-1 -59.514755699331644 0 5.3386803917799339 0 -1 0 I I #
point $-1 -59.514755699331644 -19.308514945742406 5.3386803917799339 #
straight-curve $-1 59.514755699331644 0 5.3386803917799339 0 1 0 I I #
edge $-1 $317 -59.514755699331644 $293 59.514755699331644 $289 $331 forward 7 unknown #
straight-curve $-1 -59.514755699331644 -26.21104890582156 0 0 0 -1 I I #
point $-1 59.514755699331644 -26.21104890582156 5.3386803917799339 #
straight-curve $-1 59.514755699331644 26.21104890582156 0 0 0 -1 I I #
straight-curve $-1 59.514755699331644 0 5.3386803917799339 0 1 0 I I #
point $-1 59.514755699331644 26.21104890582156 5.3386803917799339 #
point $-1 55.225324779380216 20.690672436198387 1.7364275654802273 #
point $-1 55.225324779380216 22.760813612307079 1.7364275654802273 #
point $-1 55.225324779380216 24.83095478841577 1.7364275654802273 #
point $-1 -59.514755699331644 -26.21104890582156 5.3386803917799339 #
straight-curve $-1 0 -26.21104890582156 5.3386803917799339 1 0 0 I I #
End-of-ACIS-data 