500 0 14 0           
7 Unknown 11 ACIS 5.0 NT 24 Thu Mar 25 16:38:02 1999 
-1 9.9999999999999995e-007 1e-010 
body $-1 $14 $-1 $15 #
body $-1 $16 $-1 $17 #
body $-1 $18 $-1 $19 #
body $-1 $20 $-1 $21 #
body $-1 $22 $-1 $23 #
body $-1 $24 $-1 $25 #
body $-1 $26 $-1 $27 #
body $-1 $28 $-1 $29 #
body $-1 $30 $-1 $31 #
body $-1 $32 $-1 $33 #
body $-1 $34 $-1 $35 #
body $-1 $36 $-1 $37 #
body $-1 $38 $-1 $39 #
body $-1 $40 $-1 $41 #
lump $-1 $-1 $42 $0 #
transform $-1 1 0 0 0 1 0 0 0 1 69.991149632251961 35.279879818599589 9.9850016620907898 1 rotate no_reflect no_shear #
lump $-1 $-1 $43 $1 #
transform $-1 1 0 0 0 1 0 0 0 1 69.991149632251961 35.279879818599589 9.9850016620907898 1 rotate no_reflect no_shear #
lump $-1 $-1 $44 $2 #
transform $-1 1 0 0 0 1 0 0 0 1 69.991149632251961 35.279879818599589 9.9850016620907898 1 rotate no_reflect no_shear #
lump $-1 $-1 $45 $3 #
transform $-1 1 0 0 0 1 0 0 0 1 69.991149632251961 35.279879818599589 9.9850016620907898 1 rotate no_reflect no_shear #
lump $-1 $-1 $46 $4 #
transform $-1 1 0 0 0 1 0 0 0 1 69.991149632251961 35.279879818599589 9.9850016620907898 1 rotate no_reflect no_shear #
lump $-1 $-1 $47 $5 #
transform $-1 1 0 0 0 1 0 0 0 1 69.991149632251961 35.279879818599589 9.9850016620907898 1 rotate no_reflect no_shear #
lump $-1 $-1 $48 $6 #
transform $-1 1 0 0 0 1 0 0 0 1 69.991149632251961 35.279879818599589 9.9850016620907898 1 rotate no_reflect no_shear #
lump $-1 $-1 $49 $7 #
transform $-1 1 0 0 0 1 0 0 0 1 69.991149632251961 35.279879818599589 9.9850016620907898 1 rotate no_reflect no_shear #
lump $-1 $-1 $50 $8 #
transform $-1 1 0 0 0 1 0 0 0 1 69.991149632251961 35.279879818599589 9.9850016620907898 1 rotate no_reflect no_shear #
lump $-1 $-1 $51 $9 #
transform $-1 1 0 0 0 1 0 0 0 1 69.991149632251961 35.279879818599589 9.9850016620907898 1 rotate no_reflect no_shear #
lump $-1 $-1 $52 $10 #
transform $-1 1 0 0 0 1 0 0 0 1 69.991149632251961 35.279879818599589 9.9850016620907898 1 rotate no_reflect no_shear #
lump $-1 $-1 $53 $11 #
transform $-1 1 0 0 0 1 0 0 0 1 69.991149632251961 35.279879818599589 9.9850016620907898 1 rotate no_reflect no_shear #
lump $-1 $-1 $54 $12 #
transform $-1 1 0 0 0 1 0 0 0 1 69.991149632251961 35.279879818599589 9.9850016620907898 1 rotate no_reflect no_shear #
lump $-1 $-1 $55 $13 #
transform $-1 1 0 0 0 1 0 0 0 1 69.991149632251961 35.279879818599589 9.9850016620907898 1 rotate no_reflect no_shear #
shell $-1 $-1 $-1 $56 $-1 $14 #
shell $-1 $-1 $-1 $57 $-1 $16 #
shell $-1 $-1 $-1 $58 $-1 $18 #
shell $-1 $-1 $-1 $59 $-1 $20 #
shell $-1 $-1 $-1 $60 $-1 $22 #
shell $-1 $-1 $-1 $61 $-1 $24 #
shell $-1 $-1 $-1 $62 $-1 $26 #
shell $-1 $-1 $-1 $63 $-1 $28 #
shell $-1 $-1 $-1 $64 $-1 $30 #
shell $-1 $-1 $-1 $65 $-1 $32 #
shell $-1 $-1 $-1 $66 $-1 $34 #
shell $-1 $-1 $-1 $67 $-1 $36 #
shell $-1 $-1 $-1 $68 $-1 $38 #
shell $-1 $-1 $-1 $69 $-1 $40 #
face $-1 $70 $71 $42 $-1 $72 forward single #
face $-1 $73 $74 $43 $-1 $75 forward single #
face $-1 $76 $77 $44 $-1 $78 reversed single #
face $-1 $79 $80 $45 $-1 $81 forward single #
face $-1 $82 $83 $46 $-1 $84 forward single #
face $-1 $85 $86 $47 $-1 $87 forward single #
face $-1 $88 $89 $48 $-1 $90 reversed single #
face $-1 $91 $92 $49 $-1 $93 forward single #
face $-1 $94 $95 $50 $-1 $96 forward single #
face $-1 $97 $98 $51 $-1 $99 forward single #
face $-1 $100 $101 $52 $-1 $102 reversed single #
face $-1 $103 $104 $53 $-1 $105 forward single #
face $-1 $106 $107 $54 $-1 $108 forward single #
face $-1 $109 $110 $55 $-1 $111 forward single #
face $-1 $112 $113 $42 $-1 $114 reversed single #
loop $-1 $-1 $115 $56 #
plane-surface $-1 0 0 9.9850016620907898 0 0 1 1 0 0 forward_v I I I I #
face $-1 $116 $117 $43 $-1 $118 reversed single #
loop $-1 $-1 $119 $57 #
plane-surface $-1 0 -30.159161900260841 -3.0329128115146116 0 0 1 1 0 0 forward_v I I I I #
face $-1 $120 $121 $44 $-1 $122 reversed single #
loop $-1 $-1 $123 $58 #
plane-surface $-1 18.754073500376251 -15.430160215078907 196.02299150115218 0 1 0 0.50000000669873634 0 0.8660253999169214 forward_v I I I I #
face $-1 $124 $125 $45 $-1 $126 forward single #
loop $-1 $127 $128 $59 #
cone-surface $-1 65.073003764801555 -13.466772727693414 6.6479104478572184 -0.50000000669873634 0 -0.8660253999169214 0.4330126999584607 0 -0.25000000334936817 1 I I 0 1 0.5 forward I I I I #
face $-1 $129 $130 $46 $-1 $131 forward single #
loop $-1 $132 $133 $60 #
cone-surface $-1 65.073003764801555 -10.521691496615176 6.6479104478572184 -0.50000000669873634 0 -0.8660253999169214 0.4330126999584607 0 -0.25000000334936817 1 I I 0 1 0.5 forward I I I I #
face $-1 $134 $135 $47 $-1 $136 forward single #
loop $-1 $137 $138 $61 #
cone-surface $-1 65.073003764801555 -7.5766102655369387 6.6479104478572184 -0.50000000669873634 0 -0.8660253999169214 0.4330126999584607 0 -0.25000000334936817 1 I I 0 1 0.5 forward I I I I #
face $-1 $139 $140 $48 $-1 $141 reversed single #
loop $-1 $-1 $142 $62 #
plane-surface $-1 18.754073500376251 14.729001685181935 196.02299150115218 0 1 0 0.50000000669873634 0 0.8660253999169214 forward_v I I I I #
face $-1 $143 $144 $49 $-1 $145 forward single #
loop $-1 $146 $147 $63 #
cone-surface $-1 65.073003764801555 16.692389172567424 6.6479104478572184 -0.50000000669873634 0 -0.8660253999169214 0.4330126999584607 0 -0.25000000334936817 1 I I 0 1 0.5 forward I I I I #
face $-1 $148 $149 $50 $-1 $150 forward single #
loop $-1 $151 $152 $64 #
cone-surface $-1 65.073003764801555 19.637470403645665 6.6479104478572184 -0.50000000669873634 0 -0.8660253999169214 0.4330126999584607 0 -0.25000000334936817 1 I I 0 1 0.5 forward I I I I #
face $-1 $153 $154 $51 $-1 $155 forward single #
loop $-1 $156 $157 $65 #
cone-surface $-1 65.073003764801555 22.582551634723906 6.6479104478572184 -0.50000000669873634 0 -0.8660253999169214 0.4330126999584607 0 -0.25000000334936817 1 I I 0 1 0.5 forward I I I I #
face $-1 $158 $159 $52 $-1 $160 reversed single #
loop $-1 $-1 $161 $66 #
plane-surface $-1 -188.70287312842072 -11.328626207206776 76.763810637715508 0 1 0 -0.84804810408105047 0 0.52991925155115449 forward_v I I I I #
face $-1 $162 $163 $53 $-1 $164 forward single #
loop $-1 $165 $166 $67 #
cone-surface $-1 -67.254950875338366 -10.027199510820385 6.019788895799751 0.84804810408105047 0 -0.52991925155115449 0.26495962577557725 0 0.42402405204052523 1 I I 0 1 0.5 forward I I I I #
face $-1 $167 $168 $54 $-1 $169 forward single #
loop $-1 $170 $171 $68 #
cone-surface $-1 -67.254950875338366 -8.075059466240802 6.019788895799751 0.84804810408105047 0 -0.52991925155115449 0.26495962577557725 0 0.42402405204052523 1 I I 0 1 0.5 forward I I I I #
face $-1 $172 $173 $55 $-1 $174 forward single #
loop $-1 $175 $176 $69 #
cone-surface $-1 -67.254950875338366 -6.1229194216612193 6.019788895799751 0.84804810408105047 0 -0.52991925155115449 0.26495962577557725 0 0.42402405204052523 1 I I 0 1 0.5 forward I I I I #
face $-1 $177 $178 $42 $-1 $179 reversed single #
loop $-1 $-1 $180 $70 #
plane-surface $-1 0 0 -9.9850016620907898 0 0 1 1 0 0 forward_v I I I I #
coedge $-1 $181 $182 $183 $184 forward $71 $-1 #
face $-1 $185 $186 $43 $-1 $187 reversed single #
loop $-1 $-1 $188 $73 #
plane-surface $-1 0 -30.159161900260841 -6.0329128115146116 0 0 1 1 0 0 forward_v I I I I #
coedge $-1 $189 $190 $191 $192 reversed $74 $-1 #
face $-1 $193 $194 $44 $-1 $195 reversed single #
loop $-1 $-1 $196 $76 #
plane-surface $-1 -51.237077069580224 -10.521691496615176 74.794764799319992 0.50000000669873634 0 0.8660253999169214 0.8660253999169214 0 -0.50000000669873634 forward_v I I I I #
coedge $-1 $197 $198 $199 $200 reversed $77 $-1 #
face $-1 $-1 $201 $45 $-1 $202 forward single #
loop $-1 $203 $204 $79 #
cone-surface $-1 64.517070959111322 -13.466772727693414 5.6850066000080641 -0.50000000669873634 0 -0.8660253999169214 0.21650634997923035 0 -0.12500000167468409 1 I I -0.70710678118654746 0.70710678118654746 0.25 forward I I I I #
loop $-1 $-1 $205 $59 #
coedge $-1 $128 $128 $206 $207 reversed $80 $-1 #
face $-1 $-1 $208 $46 $-1 $209 forward single #
loop $-1 $210 $211 $82 #
cone-surface $-1 64.517070959111322 -10.521691496615176 5.6850066000080641 -0.50000000669873634 0 -0.8660253999169214 0.21650634997923035 0 -0.12500000167468409 1 I I -0.70710678118654746 0.70710678118654746 0.25 forward I I I I #
loop $-1 $-1 $212 $60 #
coedge $-1 $133 $133 $213 $214 reversed $83 $-1 #
face $-1 $-1 $215 $47 $-1 $216 forward single #
loop $-1 $217 $218 $85 #
cone-surface $-1 64.517070959111322 -7.5766102655369387 5.6850066000080641 -0.50000000669873634 0 -0.8660253999169214 0.21650634997923035 0 -0.12500000167468409 1 I I -0.70710678118654746 0.70710678118654746 0.25 forward I I I I #
loop $-1 $-1 $219 $61 #
coedge $-1 $138 $138 $220 $221 reversed $86 $-1 #
face $-1 $222 $223 $48 $-1 $224 reversed single #
loop $-1 $-1 $225 $88 #
plane-surface $-1 -51.237077069580224 19.637470403645665 74.794764799319992 0.50000000669873634 0 0.8660253999169214 0.8660253999169214 0 -0.50000000669873634 forward_v I I I I #
coedge $-1 $226 $227 $228 $229 reversed $89 $-1 #
face $-1 $-1 $230 $49 $-1 $231 forward single #
loop $-1 $232 $233 $91 #
cone-surface $-1 64.517070959111322 16.692389172567424 5.6850066000080641 -0.50000000669873634 0 -0.8660253999169214 0.21650634997923035 0 -0.12500000167468409 1 I I -0.70710678118654746 0.70710678118654746 0.25 forward I I I I #
loop $-1 $-1 $234 $63 #
coedge $-1 $147 $147 $235 $236 reversed $92 $-1 #
face $-1 $-1 $237 $50 $-1 $238 forward single #
loop $-1 $239 $240 $94 #
cone-surface $-1 64.517070959111322 19.637470403645665 5.6850066000080641 -0.50000000669873634 0 -0.8660253999169214 0.21650634997923035 0 -0.12500000167468409 1 I I -0.70710678118654746 0.70710678118654746 0.25 forward I I I I #
loop $-1 $-1 $241 $64 #
coedge $-1 $152 $152 $242 $243 reversed $95 $-1 #
face $-1 $-1 $244 $51 $-1 $245 forward single #
loop $-1 $246 $247 $97 #
cone-surface $-1 64.517070959111322 22.582551634723906 5.6850066000080641 -0.50000000669873634 0 -0.8660253999169214 0.21650634997923035 0 -0.12500000167468409 1 I I -0.70710678118654746 0.70710678118654746 0.25 forward I I I I #
loop $-1 $-1 $248 $65 #
coedge $-1 $157 $157 $249 $250 reversed $98 $-1 #
face $-1 $251 $252 $52 $-1 $253 reversed single #
loop $-1 $-1 $254 $100 #
plane-surface $-1 -69.991149632251947 -8.075059466240802 2.5844953810598668 -0.84804810408105047 0 0.52991925155115449 0.52991925155115449 0 0.84804810408105047 forward_v I I I I #
coedge $-1 $255 $256 $257 $258 reversed $101 $-1 #
face $-1 $-1 $259 $53 $-1 $260 forward single #
loop $-1 $261 $262 $103 #
cone-surface $-1 -66.618914797277583 -10.027199510820385 5.6223494571363855 0.84804810408105047 0 -0.52991925155115449 0.13247981288778862 0 0.21201202602026262 1 I I -0.70710678118654746 0.70710678118654746 0.25 forward I I I I #
loop $-1 $-1 $263 $67 #
coedge $-1 $166 $166 $264 $265 reversed $104 $-1 #
face $-1 $-1 $266 $54 $-1 $267 forward single #
loop $-1 $268 $269 $106 #
cone-surface $-1 -66.618914797277583 -8.075059466240802 5.6223494571363855 0.84804810408105047 0 -0.52991925155115449 0.13247981288778862 0 0.21201202602026262 1 I I -0.70710678118654746 0.70710678118654746 0.25 forward I I I I #
loop $-1 $-1 $270 $68 #
coedge $-1 $171 $171 $271 $272 reversed $107 $-1 #
face $-1 $-1 $273 $55 $-1 $274 forward single #
loop $-1 $275 $276 $109 #
cone-surface $-1 -66.618914797277583 -6.1229194216612193 5.6223494571363855 0.84804810408105047 0 -0.52991925155115449 0.13247981288778862 0 0.21201202602026262 1 I I -0.70710678118654746 0.70710678118654746 0.25 forward I I I I #
loop $-1 $-1 $277 $69 #
coedge $-1 $176 $176 $278 $279 reversed $110 $-1 #
face $-1 $280 $281 $42 $-1 $282 reversed single #
loop $-1 $-1 $283 $112 #
plane-surface $-1 0 -35.279879818599589 0 0 1 0 0 0 1 forward_v I I I I #
coedge $-1 $284 $285 $286 $287 forward $113 $-1 #
coedge $-1 $288 $115 $289 $290 forward $71 $-1 #
coedge $-1 $115 $288 $291 $292 forward $71 $-1 #
coedge $-1 $293 $294 $115 $184 reversed $295 $-1 #
edge $-1 $296 -35.279879818599589 $297 35.279879818599589 $183 $298 forward 7 unknown #
face $-1 $299 $300 $43 $-1 $301 reversed single #
loop $-1 $-1 $302 $116 #
plane-surface $-1 0 -25.038443981922093 -4.5329128115146116 0 -1 0 0 0 -1 forward_v I I I I #
coedge $-1 $303 $304 $305 $306 reversed $117 $-1 #
coedge $-1 $307 $119 $308 $309 forward $74 $-1 #
coedge $-1 $119 $307 $310 $311 reversed $74 $-1 #
coedge $-1 $312 $313 $119 $192 forward $314 $-1 #
edge $-1 $315 9.9588630317916724 $316 20.200298868469169 $191 $317 forward 7 unknown #
face $-1 $318 $319 $44 $-1 $320 forward single #
loop $-1 $-1 $321 $120 #
plane-surface $-1 18.754073500376251 -5.6132227781514459 196.02299150115218 0 -1 0 -0.50000000669873634 0 -0.8660253999169214 forward_v I I I I #
coedge $-1 $322 $323 $324 $325 reversed $121 $-1 #
coedge $-1 $198 $123 $326 $327 reversed $77 $-1 #
coedge $-1 $123 $197 $322 $328 reversed $77 $-1 #
coedge $-1 $324 $329 $123 $200 forward $330 $-1 #
edge $-1 $331 88.026494088485293 $332 93.20788152121257 $199 $333 forward 7 unknown #
loop $-1 $-1 $206 $124 #
plane-surface $-1 -51.237077069580224 -10.521691496615176 74.794764799319992 0.50000000669873634 0 0.8660253999169214 0.8660253999169214 0 -0.50000000669873634 forward_v I I I I #
loop $-1 $-1 $334 $79 #
coedge $-1 $204 $204 $205 $335 reversed $125 $-1 #
coedge $-1 $205 $205 $204 $335 forward $127 $-1 #
coedge $-1 $206 $206 $128 $207 forward $201 $-1 #
edge $-1 $336 0 $336 6.2831853071796004 $206 $337 forward 7 unknown #
loop $-1 $-1 $213 $129 #
plane-surface $-1 -51.237077069580224 -10.521691496615176 74.794764799319992 0.50000000669873634 0 0.8660253999169214 0.8660253999169214 0 -0.50000000669873634 forward_v I I I I #
loop $-1 $-1 $338 $82 #
coedge $-1 $211 $211 $212 $339 reversed $130 $-1 #
coedge $-1 $212 $212 $211 $339 forward $132 $-1 #
coedge $-1 $213 $213 $133 $214 forward $208 $-1 #
edge $-1 $340 0 $340 6.2831853071796004 $213 $341 forward 7 unknown #
loop $-1 $-1 $220 $134 #
plane-surface $-1 -51.237077069580224 -10.521691496615176 74.794764799319992 0.50000000669873634 0 0.8660253999169214 0.8660253999169214 0 -0.50000000669873634 forward_v I I I I #
loop $-1 $-1 $342 $85 #
coedge $-1 $218 $218 $219 $343 reversed $135 $-1 #
coedge $-1 $219 $219 $218 $343 forward $137 $-1 #
coedge $-1 $220 $220 $138 $221 forward $215 $-1 #
edge $-1 $344 0 $344 6.2831853071796004 $220 $345 forward 7 unknown #
face $-1 $346 $347 $48 $-1 $348 reversed single #
loop $-1 $-1 $349 $139 #
plane-surface $-1 18.754073500376251 24.545939122109395 196.02299150115218 0 -1 0 -0.50000000669873634 0 -0.8660253999169214 forward_v I I I I #
coedge $-1 $350 $351 $352 $353 reversed $140 $-1 #
coedge $-1 $227 $142 $354 $355 reversed $89 $-1 #
coedge $-1 $142 $226 $350 $356 reversed $89 $-1 #
coedge $-1 $352 $357 $142 $229 forward $347 $-1 #
edge $-1 $358 88.026494088485293 $359 93.20788152121257 $228 $360 forward 7 unknown #
loop $-1 $-1 $235 $143 #
plane-surface $-1 -51.237077069580224 19.637470403645665 74.794764799319992 0.50000000669873634 0 0.8660253999169214 0.8660253999169214 0 -0.50000000669873634 forward_v I I I I #
loop $-1 $-1 $361 $91 #
coedge $-1 $233 $233 $234 $362 reversed $144 $-1 #
coedge $-1 $234 $234 $233 $362 forward $146 $-1 #
coedge $-1 $235 $235 $147 $236 forward $230 $-1 #
edge $-1 $363 0 $363 6.2831853071796004 $235 $364 forward 7 unknown #
loop $-1 $-1 $242 $148 #
plane-surface $-1 -51.237077069580224 19.637470403645665 74.794764799319992 0.50000000669873634 0 0.8660253999169214 0.8660253999169214 0 -0.50000000669873634 forward_v I I I I #
loop $-1 $-1 $365 $94 #
coedge $-1 $240 $240 $241 $366 reversed $149 $-1 #
coedge $-1 $241 $241 $240 $366 forward $151 $-1 #
coedge $-1 $242 $242 $152 $243 forward $237 $-1 #
edge $-1 $367 0 $367 6.2831853071796004 $242 $368 forward 7 unknown #
loop $-1 $-1 $249 $153 #
plane-surface $-1 -51.237077069580224 19.637470403645665 74.794764799319992 0.50000000669873634 0 0.8660253999169214 0.8660253999169214 0 -0.50000000669873634 forward_v I I I I #
loop $-1 $-1 $369 $97 #
coedge $-1 $247 $247 $248 $370 reversed $154 $-1 #
coedge $-1 $248 $248 $247 $370 forward $156 $-1 #
coedge $-1 $249 $249 $157 $250 forward $244 $-1 #
edge $-1 $371 0 $371 6.2831853071796004 $249 $372 forward 7 unknown #
face $-1 $373 $374 $52 $-1 $375 reversed single #
loop $-1 $-1 $376 $158 #
plane-surface $-1 -188.70287312842072 -4.8214927252748279 76.763810637715508 0 -1 0 0.84804810408105047 0 -0.52991925155115449 forward_v I I I I #
coedge $-1 $377 $378 $379 $380 reversed $159 $-1 #
coedge $-1 $256 $161 $381 $382 reversed $101 $-1 #
coedge $-1 $161 $255 $377 $383 reversed $101 $-1 #
coedge $-1 $379 $384 $161 $258 forward $385 $-1 #
edge $-1 $386 24.360286931958399 $387 28.98463634170453 $257 $388 forward 7 unknown #
loop $-1 $-1 $264 $162 #
plane-surface $-1 -69.991149632251947 -8.075059466240802 2.5844953810598668 -0.84804810408105047 0 0.52991925155115449 0.52991925155115449 0 0.84804810408105047 forward_v I I I I #
loop $-1 $-1 $389 $103 #
coedge $-1 $262 $262 $263 $390 reversed $163 $-1 #
coedge $-1 $263 $263 $262 $390 forward $165 $-1 #
coedge $-1 $264 $264 $166 $265 forward $259 $-1 #
edge $-1 $391 0 $391 6.2831853071796004 $264 $392 forward 7 unknown #
loop $-1 $-1 $271 $167 #
plane-surface $-1 -69.991149632251947 -8.075059466240802 2.5844953810598668 -0.84804810408105047 0 0.52991925155115449 0.52991925155115449 0 0.84804810408105047 forward_v I I I I #
loop $-1 $-1 $393 $106 #
coedge $-1 $269 $269 $270 $394 reversed $168 $-1 #
coedge $-1 $270 $270 $269 $394 forward $170 $-1 #
coedge $-1 $271 $271 $171 $272 forward $266 $-1 #
edge $-1 $395 0 $395 6.2831853071796004 $271 $396 forward 7 unknown #
loop $-1 $-1 $278 $172 #
plane-surface $-1 -69.991149632251947 -8.075059466240802 2.5844953810598668 -0.84804810408105047 0 0.52991925155115449 0.52991925155115449 0 0.84804810408105047 forward_v I I I I #
loop $-1 $-1 $397 $109 #
coedge $-1 $276 $276 $277 $398 reversed $173 $-1 #
coedge $-1 $277 $277 $276 $398 forward $175 $-1 #
coedge $-1 $278 $278 $176 $279 forward $273 $-1 #
edge $-1 $399 0 $399 6.2831853071796004 $278 $400 forward 7 unknown #
face $-1 $401 $402 $42 $-1 $403 reversed single #
loop $-1 $-1 $404 $177 #
plane-surface $-1 -69.991149632251961 0 0 1 0 0 0 0 -1 forward_v I I I I #
coedge $-1 $405 $291 $406 $407 forward $178 $-1 #
coedge $-1 $408 $180 $405 $409 forward $113 $-1 #
coedge $-1 $180 $408 $410 $411 forward $113 $-1 #
coedge $-1 $294 $293 $180 $287 reversed $295 $-1 #
edge $-1 $412 -35.279879818599589 $413 35.279879818599589 $286 $414 forward 7 unknown #
coedge $-1 $182 $181 $415 $416 forward $71 $-1 #
coedge $-1 $417 $418 $181 $290 reversed $402 $-1 #
edge $-1 $297 -69.991149632251961 $419 69.991149632251961 $289 $420 forward 7 unknown #
coedge $-1 $283 $421 $182 $292 reversed $178 $-1 #
edge $-1 $422 -69.991149632251961 $296 69.991149632251961 $291 $423 forward 7 unknown #
coedge $-1 $286 $183 $421 $424 forward $295 $-1 #
coedge $-1 $183 $286 $417 $425 reversed $295 $-1 #
loop $-1 $-1 $293 $401 #
vertex $-1 $184 $426 #
vertex $-1 $184 $427 #
straight-curve $-1 69.991149632251961 0 9.9850016620907898 0 1 0 I I #
face $-1 $428 $429 $43 $-1 $430 reversed single #
loop $-1 $-1 $431 $185 #
plane-surface $-1 -69.991149632251961 0 0 1 0 0 0 0 -1 forward_v I I I I #
coedge $-1 $432 $308 $313 $433 reversed $186 $-1 #
coedge $-1 $434 $188 $435 $436 reversed $117 $-1 #
coedge $-1 $188 $434 $432 $437 forward $117 $-1 #
coedge $-1 $313 $312 $188 $306 forward $314 $-1 #
edge $-1 $438 -20.200298868469169 $439 -9.9588630317916724 $305 $440 forward 7 unknown #
coedge $-1 $190 $189 $431 $441 reversed $74 $-1 #
coedge $-1 $302 $442 $189 $309 reversed $186 $-1 #
edge $-1 $315 -69.991149632251961 $443 69.991149632251961 $308 $444 forward 7 unknown #
coedge $-1 $445 $446 $190 $311 forward $429 $-1 #
edge $-1 $316 -69.991149632251961 $447 69.991149632251961 $310 $448 forward 7 unknown #
coedge $-1 $305 $191 $446 $449 forward $314 $-1 #
coedge $-1 $191 $305 $302 $433 forward $314 $-1 #
loop $-1 $-1 $191 $428 #
vertex $-1 $192 $450 #
vertex $-1 $449 $451 #
straight-curve $-1 69.991149632251961 -15.079580950130421 -3.0329128115146116 0 -1 0 I I #
face $-1 $-1 $330 $44 $-1 $452 reversed single #
loop $-1 $-1 $453 $193 #
plane-surface $-1 0 0 9.9850016620907898 0 0 1 1 0 0 forward_v I I I I #
coedge $-1 $454 $455 $456 $457 reversed $194 $-1 #
coedge $-1 $458 $196 $198 $328 forward $121 $-1 #
coedge $-1 $196 $458 $454 $459 forward $121 $-1 #
coedge $-1 $456 $199 $196 $325 forward $330 $-1 #
edge $-1 $332 -10.169314466771318 $460 -0.35237702984385777 $324 $461 forward 7 unknown #
coedge $-1 $462 $463 $197 $327 forward $319 $-1 #
edge $-1 $464 51.639686755194163 $331 60.614112882063836 $326 $465 forward 7 unknown #
edge $-1 $332 -139.98229926450392 $464 -129.61952453788436 $198 $466 forward 7 unknown #
coedge $-1 $199 $456 $462 $467 reversed $330 $-1 #
loop $-1 $-1 $456 $318 #
vertex $-1 $467 $468 #
vertex $-1 $200 $469 #
straight-curve $-1 69.991149632251961 -15.430160215078907 98.011495750576088 0 0 -1 I I #
coedge $-1 $334 $334 $-1 $470 reversed $203 $-1 #
edge $-1 $471 0 $471 6.2831853071796004 $204 $472 forward 7 unknown #
vertex $-1 $207 $473 #
ellipse-curve $-1 65.50393656881711 -13.466772727693414 7.3943079457271645 0.50000000669873634 0 0.8660253999169214 0.4330126999584607 0 -0.25000000334936817 1 I I #
coedge $-1 $338 $338 $-1 $474 reversed $210 $-1 #
edge $-1 $475 0 $475 6.2831853071796004 $211 $476 forward 7 unknown #
vertex $-1 $214 $477 #
ellipse-curve $-1 65.50393656881711 -10.521691496615176 7.3943079457271645 0.50000000669873634 0 0.8660253999169214 0.4330126999584607 0 -0.25000000334936817 1 I I #
coedge $-1 $342 $342 $-1 $478 reversed $217 $-1 #
edge $-1 $479 0 $479 6.2831853071796004 $218 $480 forward 7 unknown #
vertex $-1 $221 $481 #
ellipse-curve $-1 65.50393656881711 -7.5766102655369387 7.3943079457271645 0.50000000669873634 0 0.8660253999169214 0.4330126999584607 0 -0.25000000334936817 1 I I #
face $-1 $-1 $482 $48 $-1 $483 forward single #
loop $-1 $-1 $228 $222 #
plane-surface $-1 69.991149632251961 0 0 -1 0 0 0 0 1 forward_v I I I I #
coedge $-1 $484 $485 $486 $487 reversed $223 $-1 #
coedge $-1 $488 $225 $227 $356 forward $140 $-1 #
coedge $-1 $225 $488 $484 $489 forward $140 $-1 #
coedge $-1 $486 $228 $225 $353 forward $347 $-1 #
edge $-1 $359 4.9102664833591021 $490 14.727203920286563 $352 $491 forward 7 unknown #
coedge $-1 $492 $493 $226 $355 forward $482 $-1 #
edge $-1 $494 51.639686755194163 $358 60.614112882063836 $354 $495 forward 7 unknown #
edge $-1 $359 -139.98229926450392 $494 -129.61952453788436 $227 $496 forward 7 unknown #
coedge $-1 $228 $486 $492 $497 reversed $347 $-1 #
vertex $-1 $497 $498 #
vertex $-1 $229 $499 #
straight-curve $-1 69.991149632251961 14.729001685181935 98.011495750576088 0 0 -1 I I #
coedge $-1 $361 $361 $-1 $500 reversed $232 $-1 #
edge $-1 $501 0 $501 6.2831853071796004 $233 $502 forward 7 unknown #
vertex $-1 $236 $503 #
ellipse-curve $-1 65.50393656881711 16.692389172567424 7.3943079457271645 0.50000000669873634 0 0.8660253999169214 0.4330126999584607 0 -0.25000000334936817 1 I I #
coedge $-1 $365 $365 $-1 $504 reversed $239 $-1 #
edge $-1 $505 0 $505 6.2831853071796004 $240 $506 forward 7 unknown #
vertex $-1 $243 $507 #
ellipse-curve $-1 65.50393656881711 19.637470403645665 7.3943079457271645 0.50000000669873634 0 0.8660253999169214 0.4330126999584607 0 -0.25000000334936817 1 I I #
coedge $-1 $369 $369 $-1 $508 reversed $246 $-1 #
edge $-1 $509 0 $509 6.2831853071796004 $247 $510 forward 7 unknown #
vertex $-1 $250 $511 #
ellipse-curve $-1 65.50393656881711 22.582551634723906 7.3943079457271645 0.50000000669873634 0 0.8660253999169214 0.4330126999584607 0 -0.25000000334936817 1 I I #
face $-1 $-1 $385 $52 $-1 $512 forward single #
loop $-1 $-1 $513 $251 #
plane-surface $-1 -69.991149632251961 0 0 1 0 0 0 0 -1 forward_v I I I I #
coedge $-1 $514 $515 $516 $517 reversed $252 $-1 #
coedge $-1 $518 $254 $256 $383 forward $159 $-1 #
coedge $-1 $254 $518 $514 $519 forward $159 $-1 #
coedge $-1 $516 $257 $254 $380 forward $385 $-1 #
edge $-1 $387 -7.2910964740863751 $520 -0.78396299215442689 $379 $521 forward 7 unknown #
coedge $-1 $522 $523 $255 $382 forward $374 $-1 #
edge $-1 $524 -35.797409937797909 $386 -28.396903656766966 $381 $525 forward 7 unknown #
edge $-1 $387 -8.726517098991863 $524 2.6737665129848107e-014 $256 $526 forward 7 unknown #
coedge $-1 $257 $516 $522 $527 forward $385 $-1 #
loop $-1 $-1 $516 $373 #
vertex $-1 $382 $528 #
vertex $-1 $258 $529 #
straight-curve $-1 -94.35143656421036 -11.328626207206776 9.985001662090788 1 0 0 I I #
coedge $-1 $389 $389 $-1 $530 reversed $261 $-1 #
edge $-1 $531 0 $531 6.2831853071796004 $262 $532 forward 7 unknown #
vertex $-1 $265 $533 #
ellipse-curve $-1 -67.678974927378889 -10.027199510820385 6.2847485215753256 -0.84804810408105047 0 0.52991925155115449 0.26495962577557725 0 0.42402405204052523 1 I I #
coedge $-1 $393 $393 $-1 $534 reversed $268 $-1 #
edge $-1 $535 0 $535 6.2831853071796004 $269 $536 forward 7 unknown #
vertex $-1 $272 $537 #
ellipse-curve $-1 -67.678974927378889 -8.075059466240802 6.2847485215753256 -0.84804810408105047 0 0.52991925155115449 0.26495962577557725 0 0.42402405204052523 1 I I #
coedge $-1 $397 $397 $-1 $538 reversed $275 $-1 #
edge $-1 $539 0 $539 6.2831853071796004 $276 $540 forward 7 unknown #
vertex $-1 $279 $541 #
ellipse-curve $-1 -67.678974927378889 -6.1229194216612193 6.2847485215753256 -0.84804810408105047 0 0.52991925155115449 0.26495962577557725 0 0.42402405204052523 1 I I #
face $-1 $-1 $295 $42 $-1 $542 reversed single #
loop $-1 $-1 $417 $280 #
plane-surface $-1 0 35.279879818599589 0 0 -1 0 0 0 -1 forward_v I I I I #
coedge $-1 $543 $415 $418 $544 forward $281 $-1 #
coedge $-1 $421 $283 $284 $409 reversed $178 $-1 #
coedge $-1 $415 $543 $283 $407 reversed $281 $-1 #
edge $-1 $422 -9.9850016620907898 $545 9.9850016620907898 $406 $546 forward 7 unknown #
coedge $-1 $285 $284 $543 $547 forward $113 $-1 #
edge $-1 $413 -69.991149632251961 $545 69.991149632251961 $405 $548 forward 7 unknown #
coedge $-1 $418 $417 $285 $411 reversed $402 $-1 #
edge $-1 $549 -69.991149632251961 $412 69.991149632251961 $410 $550 forward 7 unknown #
vertex $-1 $287 $551 #
vertex $-1 $424 $552 #
straight-curve $-1 69.991149632251961 0 -9.9850016620907898 0 -1 0 I I #
coedge $-1 $404 $406 $288 $416 reversed $281 $-1 #
edge $-1 $419 -35.279879818599589 $422 35.279879818599589 $415 $553 forward 7 unknown #
coedge $-1 $410 $289 $294 $425 forward $402 $-1 #
coedge $-1 $289 $410 $404 $544 reversed $402 $-1 #
vertex $-1 $290 $554 #
straight-curve $-1 0 35.279879818599589 9.9850016620907898 -1 0 0 I I #
coedge $-1 $291 $405 $293 $424 reversed $178 $-1 #
vertex $-1 $416 $555 #
straight-curve $-1 0 -35.279879818599589 9.9850016620907898 1 0 0 I I #
edge $-1 $296 -9.9850016620907898 $413 9.9850016620907898 $293 $556 forward 7 unknown #
edge $-1 $297 -9.9850016620907898 $412 9.9850016620907898 $294 $557 forward 7 unknown #
point $-1 69.991149632251961 -35.279879818599589 9.9850016620907898 #
point $-1 69.991149632251961 35.279879818599589 9.9850016620907898 #
face $-1 $-1 $314 $43 $-1 $558 reversed single #
loop $-1 $-1 $310 $299 #
plane-surface $-1 0 -35.279879818599589 0 0 1 0 0 0 1 forward_v I I I I #
coedge $-1 $559 $560 $307 $441 forward $300 $-1 #
coedge $-1 $442 $302 $304 $437 reversed $186 $-1 #
edge $-1 $439 -3.7664564057573058 $315 -0.76645640575730578 $313 $561 forward 7 unknown #
coedge $-1 $304 $303 $562 $563 reversed $117 $-1 #
coedge $-1 $446 $445 $303 $436 forward $429 $-1 #
edge $-1 $564 -69.991149632251961 $438 69.991149632251961 $435 $565 forward 7 unknown #
edge $-1 $566 -69.991149632251961 $439 69.991149632251961 $432 $567 forward 7 unknown #
vertex $-1 $436 $568 #
vertex $-1 $306 $569 #
straight-curve $-1 69.991149632251961 -15.079580950130421 -6.0329128115146116 0 1 0 I I #
edge $-1 $447 -20.200298868469169 $443 -9.9588630317916724 $431 $570 forward 7 unknown #
coedge $-1 $308 $432 $559 $571 reversed $186 $-1 #
vertex $-1 $441 $572 #
straight-curve $-1 0 -25.038443981922093 -3.0329128115146116 -1 0 0 I I #
coedge $-1 $435 $310 $560 $573 forward $429 $-1 #
coedge $-1 $310 $435 $312 $449 reversed $429 $-1 #
vertex $-1 $573 $574 #
straight-curve $-1 0 -35.279879818599589 -3.0329128115146116 -1 0 0 I I #
edge $-1 $316 3.0329128115146116 $438 6.0329128115146116 $312 $575 forward 7 unknown #
point $-1 69.991149632251961 -25.038443981922093 -3.0329128115146116 #
point $-1 69.991149632251961 -35.279879818599589 -3.0329128115146116 #
plane-surface $-1 69.991149632251961 0 0 -1 0 0 0 0 1 forward_v I I I I #
coedge $-1 $463 $462 $455 $576 forward $319 $-1 #
coedge $-1 $455 $321 $323 $459 reversed $194 $-1 #
coedge $-1 $321 $454 $453 $576 reversed $194 $-1 #
coedge $-1 $329 $324 $321 $457 forward $330 $-1 #
edge $-1 $460 -93.20788152121257 $577 -88.026494088485293 $456 $578 forward 7 unknown #
coedge $-1 $323 $322 $463 $579 reversed $121 $-1 #
edge $-1 $580 129.61952453788436 $460 139.98229926450392 $454 $581 forward 7 unknown #
vertex $-1 $325 $582 #
straight-curve $-1 69.991149632251961 -5.2608457483075881 4.8036142293635109 0 1 0 I I #
coedge $-1 $453 $326 $329 $467 forward $319 $-1 #
coedge $-1 $326 $453 $458 $579 forward $319 $-1 #
vertex $-1 $327 $583 #
straight-curve $-1 9.3770367501881253 -15.430160215078907 9.9850016620907951 1 0 0 I I #
straight-curve $-1 -51.237077069580224 -15.430160215078907 74.794764799319992 -0.8660253999169214 0 0.50000000669873634 I I #
edge $-1 $331 -15.430160215078907 $577 -5.6132227781514459 $329 $584 forward 7 unknown #
point $-1 69.991149632251961 -15.430160215078907 9.9850016620907898 #
point $-1 69.991149632251961 -15.430160215078907 4.803614229363518 #
edge $-1 $585 1 $585 0 $334 $-1 forward 7 unknown #
vertex $-1 $335 $586 #
ellipse-curve $-1 64.642070960786 -13.466772727693414 5.9015129499872945 0.50000000669873634 0 0.8660253999169214 0.4330126999584607 0 -0.25000000334936817 1 I I #
point $-1 65.93694926877555 -13.466772727693414 7.1443079423777753 #
edge $-1 $587 1 $587 0 $338 $-1 forward 7 unknown #
vertex $-1 $339 $588 #
ellipse-curve $-1 64.642070960786 -10.521691496615176 5.9015129499872945 0.50000000669873634 0 0.8660253999169214 0.4330126999584607 0 -0.25000000334936817 1 I I #
point $-1 65.93694926877555 -10.521691496615176 7.1443079423777753 #
edge $-1 $589 1 $589 0 $342 $-1 forward 7 unknown #
vertex $-1 $343 $590 #
ellipse-curve $-1 64.642070960786 -7.5766102655369387 5.9015129499872945 0.50000000669873634 0 0.8660253999169214 0.4330126999584607 0 -0.25000000334936817 1 I I #
point $-1 65.93694926877555 -7.5766102655369387 7.1443079423777753 #
loop $-1 $-1 $354 $346 #
plane-surface $-1 0 0 9.9850016620907898 0 0 1 1 0 0 forward_v I I I I #
coedge $-1 $485 $349 $351 $489 reversed $223 $-1 #
coedge $-1 $349 $484 $591 $592 reversed $223 $-1 #
coedge $-1 $357 $352 $349 $487 forward $347 $-1 #
edge $-1 $490 -93.20788152121257 $593 -88.026494088485293 $486 $594 forward 7 unknown #
coedge $-1 $351 $350 $493 $595 reversed $140 $-1 #
edge $-1 $596 129.61952453788436 $490 139.98229926450392 $484 $597 forward 7 unknown #
vertex $-1 $353 $598 #
straight-curve $-1 69.991149632251961 9.8187352018228324 4.8036142293635109 0 1 0 I I #
coedge $-1 $591 $354 $357 $497 forward $482 $-1 #
coedge $-1 $354 $591 $488 $595 forward $482 $-1 #
vertex $-1 $355 $599 #
straight-curve $-1 9.3770367501881253 14.729001685181935 9.9850016620907951 1 0 0 I I #
straight-curve $-1 -51.237077069580224 14.729001685181935 74.794764799319992 -0.8660253999169214 0 0.50000000669873634 I I #
edge $-1 $358 14.729001685181935 $593 24.545939122109395 $357 $600 forward 7 unknown #
point $-1 69.991149632251961 14.729001685181935 9.9850016620907898 #
point $-1 69.991149632251961 14.729001685181935 4.803614229363518 #
edge $-1 $601 1 $601 0 $361 $-1 forward 7 unknown #
vertex $-1 $362 $602 #
ellipse-curve $-1 64.642070960786 16.692389172567424 5.9015129499872945 0.50000000669873634 0 0.8660253999169214 0.4330126999584607 0 -0.25000000334936817 1 I I #
point $-1 65.93694926877555 16.692389172567424 7.1443079423777753 #
edge $-1 $603 1 $603 0 $365 $-1 forward 7 unknown #
vertex $-1 $366 $604 #
ellipse-curve $-1 64.642070960786 19.637470403645665 5.9015129499872945 0.50000000669873634 0 0.8660253999169214 0.4330126999584607 0 -0.25000000334936817 1 I I #
point $-1 65.93694926877555 19.637470403645665 7.1443079423777753 #
edge $-1 $605 1 $605 0 $369 $-1 forward 7 unknown #
vertex $-1 $370 $606 #
ellipse-curve $-1 64.642070960786 22.582551634723906 5.9015129499872945 0.50000000669873634 0 0.8660253999169214 0.4330126999584607 0 -0.25000000334936817 1 I I #
point $-1 65.93694926877555 22.582551634723906 7.1443079423777753 #
plane-surface $-1 0 0 9.9850016620907898 0 0 1 1 0 0 forward_v I I I I #
coedge $-1 $523 $522 $515 $607 forward $374 $-1 #
coedge $-1 $515 $376 $378 $519 reversed $252 $-1 #
coedge $-1 $376 $514 $513 $607 reversed $252 $-1 #
coedge $-1 $384 $379 $376 $517 forward $385 $-1 #
edge $-1 $520 -28.98463634170453 $608 -24.360286931958399 $516 $609 forward 7 unknown #
coedge $-1 $378 $377 $523 $610 reversed $159 $-1 #
edge $-1 $611 -2.6737665129848107e-014 $520 8.726517098991863 $514 $612 forward 7 unknown #
vertex $-1 $380 $613 #
straight-curve $-1 -65.36680022250583 -4.037529733120401 9.9850016620907898 0 1 0 I I #
coedge $-1 $513 $381 $384 $527 reversed $374 $-1 #
coedge $-1 $381 $513 $518 $610 forward $374 $-1 #
vertex $-1 $382 $614 #
straight-curve $-1 -69.991149632251961 -11.328626207206776 38.381905318857754 0 0 1 I I #
straight-curve $-1 -69.991149632251947 -11.328626207206776 2.5844953810598668 -0.52991925155115449 0 -0.84804810408105047 I I #
edge $-1 $608 4.8214927252748279 $386 11.328626207206776 $522 $615 forward 7 unknown #
point $-1 -69.991149632251961 -11.328626207206776 9.9850016620907898 #
point $-1 -65.36680022250583 -11.328626207206776 9.985001662090788 #
edge $-1 $616 1 $616 0 $389 $-1 forward 7 unknown #
vertex $-1 $390 $617 #
ellipse-curve $-1 -66.830926823297844 -10.027199510820385 5.7548292700241737 -0.84804810408105047 0 0.52991925155115449 0.26495962577557725 0 0.42402405204052523 1 I I #
point $-1 -67.414015301603314 -10.027199510820385 6.7087725736158541 #
edge $-1 $618 1 $618 0 $393 $-1 forward 7 unknown #
vertex $-1 $394 $619 #
ellipse-curve $-1 -66.830926823297844 -8.075059466240802 5.7548292700241737 -0.84804810408105047 0 0.52991925155115449 0.26495962577557725 0 0.42402405204052523 1 I I #
point $-1 -67.414015301603314 -8.075059466240802 6.7087725736158541 #
edge $-1 $620 1 $620 0 $397 $-1 forward 7 unknown #
vertex $-1 $398 $621 #
ellipse-curve $-1 -66.830926823297844 -6.1229194216612193 5.7548292700241737 -0.84804810408105047 0 0.52991925155115449 0.26495962577557725 0 0.42402405204052523 1 I I #
point $-1 -67.414015301603314 -6.1229194216612193 6.7087725736158541 #
plane-surface $-1 69.991149632251961 0 0 -1 0 0 0 0 1 forward_v I I I I #
coedge $-1 $406 $404 $408 $547 reversed $281 $-1 #
edge $-1 $419 -9.9850016620907898 $549 9.9850016620907898 $418 $622 forward 7 unknown #
vertex $-1 $547 $623 #
straight-curve $-1 -69.991149632251961 -35.279879818599589 0 0 0 -1 I I #
edge $-1 $545 -35.279879818599589 $549 35.279879818599589 $543 $624 forward 7 unknown #
straight-curve $-1 0 -35.279879818599589 -9.9850016620907898 -1 0 0 I I #
vertex $-1 $411 $625 #
straight-curve $-1 0 35.279879818599589 -9.9850016620907898 1 0 0 I I #
point $-1 69.991149632251961 35.279879818599589 -9.9850016620907898 #
point $-1 69.991149632251961 -35.279879818599589 -9.9850016620907898 #
straight-curve $-1 -69.991149632251961 0 9.9850016620907898 0 -1 0 I I #
point $-1 -69.991149632251961 35.279879818599589 9.9850016620907898 #
point $-1 -69.991149632251961 -35.279879818599589 9.9850016620907898 #
straight-curve $-1 69.991149632251961 -35.279879818599589 0 0 0 -1 I I #
straight-curve $-1 69.991149632251961 35.279879818599589 0 0 0 -1 I I #
plane-surface $-1 69.991149632251961 0 0 -1 0 0 0 0 1 forward_v I I I I #
coedge $-1 $562 $431 $442 $571 forward $300 $-1 #
coedge $-1 $431 $562 $445 $573 reversed $300 $-1 #
straight-curve $-1 69.991149632251961 -25.038443981922093 -2.2664564057573058 0 0 1 I I #
coedge $-1 $560 $559 $434 $563 forward $300 $-1 #
edge $-1 $566 9.9588630317916724 $564 20.200298868469169 $562 $626 forward 7 unknown #
vertex $-1 $436 $627 #
straight-curve $-1 0 -35.279879818599589 -6.0329128115146116 1 0 0 I I #
vertex $-1 $563 $628 #
straight-curve $-1 0 -25.038443981922093 -6.0329128115146116 1 0 0 I I #
point $-1 69.991149632251961 -35.279879818599589 -6.0329128115146116 #
point $-1 69.991149632251961 -25.038443981922093 -6.0329128115146116 #
straight-curve $-1 -69.991149632251961 -15.079580950130421 -3.0329128115146116 0 1 0 I I #
edge $-1 $443 0.76645640575730578 $566 3.7664564057573058 $559 $629 forward 7 unknown #
point $-1 -69.991149632251961 -25.038443981922093 -3.0329128115146116 #
edge $-1 $447 3.0329128115146116 $564 6.0329128115146116 $560 $630 forward 7 unknown #
point $-1 -69.991149632251961 -35.279879818599589 -3.0329128115146116 #
straight-curve $-1 69.991149632251961 -35.279879818599589 0 0 0 -1 I I #
edge $-1 $577 -60.614112882063836 $580 -51.639686755194163 $453 $631 forward 7 unknown #
vertex $-1 $576 $632 #
straight-curve $-1 69.991149632251961 -5.6132227781514459 98.011495750576088 0 0 1 I I #
edge $-1 $580 0.35237702984385777 $464 10.169314466771318 $463 $633 forward 7 unknown #
vertex $-1 $579 $634 #
straight-curve $-1 -51.237077069580224 -5.6132227781514459 74.794764799319992 0.8660253999169214 0 -0.50000000669873634 I I #
point $-1 69.991149632251961 -5.6132227781514459 4.803614229363518 #
point $-1 61.016723505382288 -15.430160215078907 9.9850016620907951 #
straight-curve $-1 69.991149632251961 0 9.9850016620907898 0 1 0 I I #
vertex $-1 $470 $635 #
point $-1 65.075083660744468 -13.466772727693414 5.6515129466379266 #
vertex $-1 $474 $636 #
point $-1 65.075083660744468 -10.521691496615176 5.6515129466379266 #
vertex $-1 $478 $637 #
point $-1 65.075083660744468 -7.5766102655369387 5.6515129466379266 #
coedge $-1 $493 $492 $485 $592 forward $482 $-1 #
edge $-1 $593 -60.614112882063836 $596 -51.639686755194163 $591 $638 forward 7 unknown #
vertex $-1 $592 $639 #
straight-curve $-1 69.991149632251961 24.545939122109395 98.011495750576088 0 0 1 I I #
edge $-1 $596 -14.727203920286563 $494 -4.9102664833591021 $493 $640 forward 7 unknown #
vertex $-1 $595 $641 #
straight-curve $-1 -51.237077069580224 24.545939122109395 74.794764799319992 0.8660253999169214 0 -0.50000000669873634 I I #
point $-1 69.991149632251961 24.545939122109395 4.803614229363518 #
point $-1 61.016723505382288 14.729001685181935 9.9850016620907951 #
straight-curve $-1 69.991149632251961 0 9.9850016620907898 0 1 0 I I #
vertex $-1 $500 $642 #
point $-1 65.075083660744468 16.692389172567424 5.6515129466379266 #
vertex $-1 $504 $643 #
point $-1 65.075083660744468 19.637470403645665 5.6515129466379266 #
vertex $-1 $508 $644 #
point $-1 65.075083660744468 22.582551634723906 5.6515129466379266 #
edge $-1 $608 28.396903656766966 $611 35.797409937797909 $513 $645 forward 7 unknown #
vertex $-1 $527 $646 #
straight-curve $-1 -94.35143656421036 -4.8214927252748279 9.985001662090788 -1 0 0 I I #
edge $-1 $611 0.78396299215442689 $524 7.2910964740863751 $523 $647 forward 7 unknown #
vertex $-1 $610 $648 #
straight-curve $-1 -69.991149632251947 -4.8214927252748279 2.5844953810598668 0.52991925155115449 0 0.84804810408105047 I I #
point $-1 -65.36680022250583 -4.8214927252748279 9.985001662090788 #
point $-1 -69.991149632251961 -11.328626207206776 2.5844953810598441 #
straight-curve $-1 -69.991149632251961 0 9.9850016620907898 0 -1 0 I I #
vertex $-1 $530 $649 #
point $-1 -66.565967197522269 -10.027199510820385 6.1788533220646995 #
vertex $-1 $534 $650 #
point $-1 -66.565967197522269 -8.075059466240802 6.1788533220646995 #
vertex $-1 $538 $651 #
point $-1 -66.565967197522269 -6.1229194216612193 6.1788533220646995 #
straight-curve $-1 -69.991149632251961 35.279879818599589 0 0 0 -1 I I #
point $-1 -69.991149632251961 -35.279879818599589 -9.9850016620907898 #
straight-curve $-1 -69.991149632251961 0 -9.9850016620907898 0 1 0 I I #
point $-1 -69.991149632251961 35.279879818599589 -9.9850016620907898 #
straight-curve $-1 -69.991149632251961 -15.079580950130421 -6.0329128115146116 0 -1 0 I I #
point $-1 -69.991149632251961 -35.279879818599589 -6.0329128115146116 #
point $-1 -69.991149632251961 -25.038443981922093 -6.0329128115146116 #
straight-curve $-1 -69.991149632251961 -25.038443981922093 -2.2664564057573058 0 0 -1 I I #
straight-curve $-1 -69.991149632251961 -35.279879818599589 0 0 0 -1 I I #
straight-curve $-1 9.3770367501881253 -5.6132227781514459 9.9850016620907951 -1 0 0 I I #
point $-1 69.991149632251961 -5.6132227781514459 9.9850016620907898 #
straight-curve $-1 61.016723505382288 -5.2608457483075881 9.9850016620907951 0 -1 0 I I #
point $-1 61.016723505382288 -5.6132227781514459 9.9850016620907951 #
point $-1 64.392070957436644 -13.466772727693414 5.4685002500288338 #
point $-1 64.392070957436644 -10.521691496615176 5.4685002500288338 #
point $-1 64.392070957436644 -7.5766102655369387 5.4685002500288338 #
straight-curve $-1 9.3770367501881253 24.545939122109395 9.9850016620907951 -1 0 0 I I #
point $-1 69.991149632251961 24.545939122109395 9.9850016620907898 #
straight-curve $-1 61.016723505382288 9.8187352018228324 9.9850016620907951 0 -1 0 I I #
point $-1 61.016723505382288 24.545939122109395 9.9850016620907951 #
point $-1 64.392070957436644 16.692389172567424 5.4685002500288338 #
point $-1 64.392070957436644 19.637470403645665 5.4685002500288338 #
point $-1 64.392070957436644 22.582551634723906 5.4685002500288338 #
straight-curve $-1 -69.991149632251961 -4.8214927252748279 38.381905318857754 0 0 -1 I I #
point $-1 -69.991149632251961 -4.8214927252748279 9.9850016620907898 #
straight-curve $-1 -69.991149632251961 -4.037529733120401 2.5844953810598632 0 -1 0 I I #
point $-1 -69.991149632251961 -4.8214927252748279 2.5844953810598441 #
point $-1 -66.406902771257322 -10.027199510820385 5.4898696442485972 #
point $-1 -66.406902771257322 -8.075059466240802 5.4898696442485972 #
point $-1 -66.406902771257322 -6.1229194216612193 5.4898696442485972 #
End-of-ACIS-data 