500 0 10 0           
7 Unknown 11 ACIS 5.0 NT 24 Fri Mar 26 17:08:33 1999 
-1 9.9999999999999995e-007 1e-010 
body $-1 $10 $-1 $11 #
body $-1 $12 $-1 $13 #
body $-1 $14 $-1 $15 #
body $-1 $16 $-1 $17 #
body $-1 $18 $-1 $19 #
body $-1 $20 $-1 $21 #
body $-1 $22 $-1 $23 #
body $-1 $24 $-1 $25 #
body $-1 $26 $-1 $27 #
body $-1 $28 $-1 $29 #
lump $-1 $-1 $30 $0 #
transform $-1 1 0 0 0 1 0 0 0 1 59.072847682119203 36.523414669540124 13.638402809903015 1 rotate no_reflect no_shear #
lump $-1 $-1 $31 $1 #
transform $-1 1 0 0 0 1 0 0 0 1 59.072847682119203 36.523414669540124 13.638402809903015 1 rotate no_reflect no_shear #
lump $-1 $-1 $32 $2 #
transform $-1 1 0 0 0 1 0 0 0 1 59.072847682119203 36.523414669540124 13.638402809903015 1 rotate no_reflect no_shear #
lump $-1 $-1 $33 $3 #
transform $-1 1 0 0 0 1 0 0 0 1 59.072847682119203 36.523414669540124 13.638402809903015 1 rotate no_reflect no_shear #
lump $-1 $-1 $34 $4 #
transform $-1 1 0 0 0 1 0 0 0 1 59.072847682119203 36.523414669540124 13.638402809903015 1 rotate no_reflect no_shear #
lump $-1 $-1 $35 $5 #
transform $-1 1 0 0 0 1 0 0 0 1 59.072847682119203 36.523414669540124 13.638402809903015 1 rotate no_reflect no_shear #
lump $-1 $-1 $36 $6 #
transform $-1 1 0 0 0 1 0 0 0 1 59.072847682119203 36.523414669540124 13.638402809903015 1 rotate no_reflect no_shear #
lump $-1 $-1 $37 $7 #
transform $-1 1 0 0 0 1 0 0 0 1 59.072847682119203 36.523414669540124 13.638402809903015 1 rotate no_reflect no_shear #
lump $-1 $-1 $38 $8 #
transform $-1 1 0 0 0 1 0 0 0 1 59.072847682119203 36.523414669540124 13.638402809903015 1 rotate no_reflect no_shear #
lump $-1 $-1 $39 $9 #
transform $-1 1 0 0 0 1 0 0 0 1 59.072847682119203 36.523414669540124 13.638402809903015 1 rotate no_reflect no_shear #
shell $-1 $-1 $-1 $40 $-1 $10 #
shell $-1 $-1 $-1 $41 $-1 $12 #
shell $-1 $-1 $-1 $42 $-1 $14 #
shell $-1 $-1 $-1 $43 $-1 $16 #
shell $-1 $-1 $-1 $44 $-1 $18 #
shell $-1 $-1 $-1 $45 $-1 $20 #
shell $-1 $-1 $-1 $46 $-1 $22 #
shell $-1 $-1 $-1 $47 $-1 $24 #
shell $-1 $-1 $-1 $48 $-1 $26 #
shell $-1 $-1 $-1 $49 $-1 $28 #
face $-1 $50 $51 $30 $-1 $52 reversed single #
face $-1 $53 $54 $31 $-1 $55 forward single #
face $-1 $56 $57 $32 $-1 $58 reversed single #
face $-1 $59 $60 $33 $-1 $61 forward single #
face $-1 $62 $63 $34 $-1 $64 forward single #
face $-1 $65 $66 $35 $-1 $67 forward single #
face $-1 $68 $69 $36 $-1 $70 reversed single #
face $-1 $71 $72 $37 $-1 $73 forward single #
face $-1 $74 $75 $38 $-1 $76 forward single #
face $-1 $77 $78 $39 $-1 $79 forward single #
face $-1 $80 $81 $30 $-1 $82 forward single #
loop $-1 $-1 $83 $40 #
plane-surface $-1 0 -36.523414669540124 0 0 1 0 0 0 1 forward_v I I I I #
face $-1 $84 $85 $31 $-1 $86 forward single #
loop $-1 $-1 $87 $41 #
plane-surface $-1 0 -36.523414669540124 0 0 1 0 0 0 1 forward_v I I I I #
face $-1 $88 $89 $32 $-1 $90 reversed single #
loop $-1 $-1 $91 $42 #
plane-surface $-1 -125.13908296405982 -20.896120085751896 104.52077689735442 0 1 0 -0.55919291073839883 0 0.82903756765294845 forward_v I I I I #
face $-1 $92 $93 $33 $-1 $94 forward single #
loop $-1 $95 $96 $43 #
cone-surface $-1 -53.350512897745617 -19.276096742662922 9.3864892944535789 0.55919291073839883 0 -0.82903756765294845 0.41451878382647422 0 0.27959645536919941 1 I I 0 1 0.5 forward I I I I #
face $-1 $97 $98 $34 $-1 $99 forward single #
loop $-1 $100 $101 $44 #
cone-surface $-1 -53.350512897745617 -16.846061728029461 9.3864892944535789 0.55919291073839883 0 -0.82903756765294845 0.41451878382647422 0 0.27959645536919941 1 I I 0 1 0.5 forward I I I I #
face $-1 $102 $103 $35 $-1 $104 forward single #
loop $-1 $105 $106 $45 #
cone-surface $-1 -53.350512897745617 -14.416026713396001 9.3864892944535789 0.55919291073839883 0 -0.82903756765294845 0.41451878382647422 0 0.27959645536919941 1 I I 0 1 0.5 forward I I I I #
face $-1 $107 $108 $36 $-1 $109 reversed single #
loop $-1 $-1 $110 $46 #
plane-surface $-1 27.191863050625386 -12.796003370307027 170.58701217929502 0 -1 0 -0.55919291073839883 0 -0.82903756765294845 forward_v I I I I #
face $-1 $111 $112 $37 $-1 $113 forward single #
loop $-1 $114 $115 $47 #
cone-surface $-1 53.350512897745617 -19.276096742662922 9.3864892944535789 -0.55919291073839883 0 -0.82903756765294845 0.41451878382647422 0 -0.27959645536919941 1 I I 0 1 0.5 forward I I I I #
face $-1 $116 $117 $38 $-1 $118 forward single #
loop $-1 $119 $120 $48 #
cone-surface $-1 53.350512897745617 -16.846061728029461 9.3864892944535789 -0.55919291073839883 0 -0.82903756765294845 0.41451878382647422 0 -0.27959645536919941 1 I I 0 1 0.5 forward I I I I #
face $-1 $121 $122 $39 $-1 $123 forward single #
loop $-1 $124 $125 $49 #
cone-surface $-1 53.350512897745617 -14.416026713396001 9.3864892944535789 -0.55919291073839883 0 -0.82903756765294845 0.41451878382647422 0 -0.27959645536919941 1 I I 0 1 0.5 forward I I I I #
face $-1 $126 $127 $30 $-1 $128 reversed single #
loop $-1 $-1 $129 $50 #
plane-surface $-1 0 0 13.638402809903015 0 0 1 1 0 0 forward_v I I I I #
coedge $-1 $130 $131 $132 $133 reversed $51 $-1 #
face $-1 $134 $135 $31 $-1 $136 reversed single #
loop $-1 $-1 $137 $53 #
plane-surface $-1 0 0 13.638402809903015 0 0 1 1 0 0 forward_v I I I I #
coedge $-1 $138 $139 $140 $141 forward $54 $-1 #
face $-1 $142 $143 $32 $-1 $144 reversed single #
loop $-1 $-1 $145 $56 #
plane-surface $-1 -59.072847682119203 -16.846061728029461 6.5735569839199997 -0.55919291073839883 0 0.82903756765294845 0.82903756765294845 0 0.55919291073839883 forward_v I I I I #
coedge $-1 $146 $147 $148 $149 reversed $57 $-1 #
face $-1 $-1 $150 $33 $-1 $151 forward single #
loop $-1 $152 $153 $59 #
cone-surface $-1 -52.725412121738145 -19.276096742662922 8.4597393000824166 0.55919291073839883 0 -0.82903756765294845 0.20725939191323711 0 0.13979822768459971 1 I I -0.70710678118654746 0.70710678118654746 0.25 forward I I I I #
loop $-1 $-1 $154 $43 #
coedge $-1 $96 $96 $155 $156 reversed $60 $-1 #
face $-1 $-1 $157 $34 $-1 $158 forward single #
loop $-1 $159 $160 $62 #
cone-surface $-1 -52.725412121738145 -16.846061728029461 8.4597393000824166 0.55919291073839883 0 -0.82903756765294845 0.20725939191323711 0 0.13979822768459971 1 I I -0.70710678118654746 0.70710678118654746 0.25 forward I I I I #
loop $-1 $-1 $161 $44 #
coedge $-1 $101 $101 $162 $163 reversed $63 $-1 #
face $-1 $-1 $164 $35 $-1 $165 forward single #
loop $-1 $166 $167 $65 #
cone-surface $-1 -52.725412121738145 -14.416026713396001 8.4597393000824166 0.55919291073839883 0 -0.82903756765294845 0.20725939191323711 0 0.13979822768459971 1 I I -0.70710678118654746 0.70710678118654746 0.25 forward I I I I #
loop $-1 $-1 $168 $45 #
coedge $-1 $106 $106 $169 $170 reversed $66 $-1 #
face $-1 $171 $172 $36 $-1 $173 reversed single #
loop $-1 $-1 $174 $68 #
plane-surface $-1 -38.874372231315235 -16.846061728029461 72.639792265860592 0.55919291073839883 0 0.82903756765294845 0.82903756765294845 0 -0.55919291073839883 forward_v I I I I #
coedge $-1 $175 $176 $177 $178 reversed $69 $-1 #
face $-1 $-1 $179 $37 $-1 $180 forward single #
loop $-1 $181 $182 $71 #
cone-surface $-1 52.725412121738145 -19.276096742662922 8.4597393000824166 -0.55919291073839883 0 -0.82903756765294845 0.20725939191323711 0 -0.13979822768459971 1 I I -0.70710678118654746 0.70710678118654746 0.25 forward I I I I #
loop $-1 $-1 $183 $47 #
coedge $-1 $115 $115 $184 $185 reversed $72 $-1 #
face $-1 $-1 $186 $38 $-1 $187 forward single #
loop $-1 $188 $189 $74 #
cone-surface $-1 52.725412121738145 -16.846061728029461 8.4597393000824166 -0.55919291073839883 0 -0.82903756765294845 0.20725939191323711 0 -0.13979822768459971 1 I I -0.70710678118654746 0.70710678118654746 0.25 forward I I I I #
loop $-1 $-1 $190 $48 #
coedge $-1 $120 $120 $191 $192 reversed $75 $-1 #
face $-1 $-1 $193 $39 $-1 $194 forward single #
loop $-1 $195 $196 $77 #
cone-surface $-1 52.725412121738145 -14.416026713396001 8.4597393000824166 -0.55919291073839883 0 -0.82903756765294845 0.20725939191323711 0 -0.13979822768459971 1 I I -0.70710678118654746 0.70710678118654746 0.25 forward I I I I #
loop $-1 $-1 $197 $49 #
coedge $-1 $125 $125 $198 $199 reversed $78 $-1 #
face $-1 $200 $201 $30 $-1 $202 reversed single #
loop $-1 $-1 $203 $80 #
plane-surface $-1 0 0 -13.638402809903015 0 0 1 1 0 0 forward_v I I I I #
coedge $-1 $204 $205 $206 $207 forward $81 $-1 #
coedge $-1 $208 $83 $209 $210 reversed $51 $-1 #
coedge $-1 $83 $208 $211 $212 forward $51 $-1 #
coedge $-1 $213 $203 $83 $133 forward $127 $-1 #
edge $-1 $214 -59.072847682119203 $215 59.072847682119203 $83 $216 forward 7 unknown #
face $-1 $217 $218 $31 $-1 $219 reversed single #
loop $-1 $-1 $220 $84 #
plane-surface $-1 -59.072847682119203 0 0 1 0 0 0 0 -1 forward_v I I I I #
coedge $-1 $221 $222 $139 $223 forward $85 $-1 #
coedge $-1 $224 $87 $225 $226 reversed $54 $-1 #
coedge $-1 $87 $224 $137 $223 reversed $54 $-1 #
coedge $-1 $227 $228 $87 $141 reversed $229 $-1 #
edge $-1 $230 -13.638402809903015 $231 13.638402809903015 $140 $232 forward 7 unknown #
face $-1 $233 $234 $32 $-1 $235 reversed single #
loop $-1 $-1 $236 $88 #
plane-surface $-1 -125.13908296405982 -12.796003370307027 104.52077689735442 0 -1 0 0.55919291073839883 0 -0.82903756765294845 forward_v I I I I #
coedge $-1 $237 $238 $239 $240 reversed $89 $-1 #
coedge $-1 $147 $91 $241 $242 reversed $57 $-1 #
coedge $-1 $91 $146 $237 $243 reversed $57 $-1 #
coedge $-1 $239 $244 $91 $149 forward $245 $-1 #
edge $-1 $246 3.4966937999107088 $247 13.970758272012127 $148 $248 forward 7 unknown #
loop $-1 $-1 $155 $92 #
plane-surface $-1 -59.072847682119203 -16.846061728029461 6.5735569839199997 -0.55919291073839883 0 0.82903756765294845 0.82903756765294845 0 0.55919291073839883 forward_v I I I I #
loop $-1 $-1 $249 $59 #
coedge $-1 $153 $153 $154 $250 reversed $93 $-1 #
coedge $-1 $154 $154 $153 $250 forward $95 $-1 #
coedge $-1 $155 $155 $96 $156 forward $150 $-1 #
edge $-1 $251 0 $251 6.2831853071796004 $155 $252 forward 7 unknown #
loop $-1 $-1 $162 $97 #
plane-surface $-1 -59.072847682119203 -16.846061728029461 6.5735569839199997 -0.55919291073839883 0 0.82903756765294845 0.82903756765294845 0 0.55919291073839883 forward_v I I I I #
loop $-1 $-1 $253 $62 #
coedge $-1 $160 $160 $161 $254 reversed $98 $-1 #
coedge $-1 $161 $161 $160 $254 forward $100 $-1 #
coedge $-1 $162 $162 $101 $163 forward $157 $-1 #
edge $-1 $255 0 $255 6.2831853071796004 $162 $256 forward 7 unknown #
loop $-1 $-1 $169 $102 #
plane-surface $-1 -59.072847682119203 -16.846061728029461 6.5735569839199997 -0.55919291073839883 0 0.82903756765294845 0.82903756765294845 0 0.55919291073839883 forward_v I I I I #
loop $-1 $-1 $257 $65 #
coedge $-1 $167 $167 $168 $258 reversed $103 $-1 #
coedge $-1 $168 $168 $167 $258 forward $105 $-1 #
coedge $-1 $169 $169 $106 $170 forward $164 $-1 #
edge $-1 $259 0 $259 6.2831853071796004 $169 $260 forward 7 unknown #
face $-1 $261 $262 $36 $-1 $263 forward single #
loop $-1 $-1 $264 $107 #
plane-surface $-1 27.191863050625386 -20.896120085751896 170.58701217929502 0 1 0 0.55919291073839883 0 0.82903756765294845 forward_v I I I I #
coedge $-1 $265 $266 $267 $268 reversed $108 $-1 #
coedge $-1 $176 $110 $269 $270 reversed $69 $-1 #
coedge $-1 $110 $175 $265 $271 reversed $69 $-1 #
coedge $-1 $267 $272 $110 $178 forward $262 $-1 #
edge $-1 $273 -45.47691615680651 $274 -35.002851684705035 $177 $275 forward 7 unknown #
loop $-1 $-1 $184 $111 #
plane-surface $-1 -38.874372231315235 -16.846061728029461 72.639792265860592 0.55919291073839883 0 0.82903756765294845 0.82903756765294845 0 -0.55919291073839883 forward_v I I I I #
loop $-1 $-1 $276 $71 #
coedge $-1 $182 $182 $183 $277 reversed $112 $-1 #
coedge $-1 $183 $183 $182 $277 forward $114 $-1 #
coedge $-1 $184 $184 $115 $185 forward $179 $-1 #
edge $-1 $278 0 $278 6.2831853071796004 $184 $279 forward 7 unknown #
loop $-1 $-1 $191 $116 #
plane-surface $-1 -38.874372231315235 -16.846061728029461 72.639792265860592 0.55919291073839883 0 0.82903756765294845 0.82903756765294845 0 -0.55919291073839883 forward_v I I I I #
loop $-1 $-1 $280 $74 #
coedge $-1 $189 $189 $190 $281 reversed $117 $-1 #
coedge $-1 $190 $190 $189 $281 forward $119 $-1 #
coedge $-1 $191 $191 $120 $192 forward $186 $-1 #
edge $-1 $282 0 $282 6.2831853071796004 $191 $283 forward 7 unknown #
loop $-1 $-1 $198 $121 #
plane-surface $-1 -38.874372231315235 -16.846061728029461 72.639792265860592 0.55919291073839883 0 0.82903756765294845 0.82903756765294845 0 -0.55919291073839883 forward_v I I I I #
loop $-1 $-1 $284 $77 #
coedge $-1 $196 $196 $197 $285 reversed $122 $-1 #
coedge $-1 $197 $197 $196 $285 forward $124 $-1 #
coedge $-1 $198 $198 $125 $199 forward $193 $-1 #
edge $-1 $286 0 $286 6.2831853071796004 $198 $287 forward 7 unknown #
face $-1 $288 $289 $30 $-1 $290 reversed single #
loop $-1 $-1 $291 $126 #
plane-surface $-1 -59.072847682119203 0 0 1 0 0 0 0 -1 forward_v I I I I #
coedge $-1 $132 $292 $293 $294 forward $127 $-1 #
coedge $-1 $295 $129 $296 $297 forward $81 $-1 #
coedge $-1 $129 $295 $208 $298 forward $81 $-1 #
coedge $-1 $209 $299 $129 $207 reversed $300 $-1 #
edge $-1 $301 -36.523414669540124 $302 36.523414669540124 $206 $303 forward 7 unknown #
coedge $-1 $131 $130 $205 $298 reversed $51 $-1 #
coedge $-1 $293 $206 $130 $210 forward $300 $-1 #
edge $-1 $301 -13.638402809903015 $214 13.638402809903015 $209 $304 forward 7 unknown #
coedge $-1 $305 $306 $131 $212 reversed $201 $-1 #
edge $-1 $307 -13.638402809903015 $215 13.638402809903015 $211 $308 forward 7 unknown #
coedge $-1 $292 $132 $306 $309 forward $127 $-1 #
vertex $-1 $210 $310 #
vertex $-1 $309 $311 #
straight-curve $-1 0 -36.523414669540124 -13.638402809903015 -1 0 0 I I #
face $-1 $312 $229 $31 $-1 $313 reversed single #
loop $-1 $-1 $314 $134 #
plane-surface $-1 -55.966611641895035 -52.150709253328351 0 0 1 0 0 0 1 forward_v I I I I #
coedge $-1 $315 $316 $224 $317 forward $135 $-1 #
coedge $-1 $318 $137 $316 $319 forward $85 $-1 #
coedge $-1 $137 $318 $227 $320 forward $85 $-1 #
edge $-1 $230 52.860375601670867 $321 59.072847682119203 $137 $322 forward 7 unknown #
coedge $-1 $139 $138 $220 $317 reversed $54 $-1 #
coedge $-1 $323 $324 $138 $226 forward $325 $-1 #
edge $-1 $326 -59.072847682119203 $231 -52.860375601670867 $225 $327 forward 7 unknown #
coedge $-1 $328 $140 $222 $320 reversed $229 $-1 #
coedge $-1 $140 $328 $323 $329 reversed $229 $-1 #
loop $-1 $-1 $328 $217 #
vertex $-1 $223 $330 #
vertex $-1 $329 $331 #
straight-curve $-1 -52.860375601670867 -36.523414669540124 0 0 0 -1 I I #
face $-1 $-1 $245 $32 $-1 $332 forward single #
loop $-1 $-1 $333 $142 #
plane-surface $-1 -59.072847682119203 0 0 1 0 0 0 0 -1 forward_v I I I I #
coedge $-1 $334 $335 $336 $337 reversed $143 $-1 #
coedge $-1 $338 $145 $147 $243 forward $89 $-1 #
coedge $-1 $145 $338 $334 $339 forward $89 $-1 #
coedge $-1 $336 $148 $145 $240 forward $245 $-1 #
edge $-1 $247 -12.473089221737165 $340 -4.3729725062922959 $239 $341 forward 7 unknown #
coedge $-1 $342 $343 $146 $242 forward $234 $-1 #
edge $-1 $344 -45.686831464757212 $246 -38.621985638774198 $241 $345 forward 7 unknown #
edge $-1 $247 -12.634004634740592 $344 0 $147 $346 forward 7 unknown #
coedge $-1 $148 $336 $342 $347 forward $245 $-1 #
loop $-1 $-1 $336 $233 #
vertex $-1 $242 $348 #
vertex $-1 $149 $349 #
straight-curve $-1 -62.569541482029912 -20.896120085751896 13.638402809903013 1 0 0 I I #
coedge $-1 $249 $249 $-1 $350 reversed $152 $-1 #
edge $-1 $351 0 $351 6.2831853071796004 $153 $352 forward 7 unknown #
vertex $-1 $156 $353 #
ellipse-curve $-1 -53.835815446068494 -19.276096742662922 10.105979896911508 -0.55919291073839883 0 0.82903756765294845 0.41451878382647422 0 0.27959645536919941 1 I I #
coedge $-1 $253 $253 $-1 $354 reversed $159 $-1 #
edge $-1 $355 0 $355 6.2831853071796004 $160 $356 forward 7 unknown #
vertex $-1 $163 $357 #
ellipse-curve $-1 -53.835815446068494 -16.846061728029461 10.105979896911508 -0.55919291073839883 0 0.82903756765294845 0.41451878382647422 0 0.27959645536919941 1 I I #
coedge $-1 $257 $257 $-1 $358 reversed $166 $-1 #
edge $-1 $359 0 $359 6.2831853071796004 $167 $360 forward 7 unknown #
vertex $-1 $170 $361 #
ellipse-curve $-1 -53.835815446068494 -14.416026713396001 10.105979896911508 -0.55919291073839883 0 0.82903756765294845 0.41451878382647422 0 0.27959645536919941 1 I I #
face $-1 $-1 $362 $36 $-1 $363 reversed single #
loop $-1 $-1 $177 $171 #
plane-surface $-1 0 0 13.638402809903015 0 0 1 1 0 0 forward_v I I I I #
coedge $-1 $364 $365 $366 $367 reversed $172 $-1 #
coedge $-1 $368 $174 $176 $271 forward $108 $-1 #
coedge $-1 $174 $368 $364 $369 forward $108 $-1 #
coedge $-1 $366 $177 $174 $268 forward $262 $-1 #
edge $-1 $274 4.3729725062922959 $370 12.473089221737165 $267 $371 forward 7 unknown #
coedge $-1 $372 $373 $175 $270 forward $362 $-1 #
edge $-1 $374 -78.719949105727537 $273 -71.655103279744495 $269 $375 forward 7 unknown #
edge $-1 $274 105.51169072949774 $374 118.14569536423841 $176 $376 forward 7 unknown #
coedge $-1 $177 $366 $372 $377 forward $262 $-1 #
vertex $-1 $178 $378 #
vertex $-1 $178 $379 #
straight-curve $-1 13.595931525312693 -12.796003370307027 13.638402809903013 -1 0 0 I I #
coedge $-1 $276 $276 $-1 $380 reversed $181 $-1 #
edge $-1 $381 0 $381 6.2831853071796004 $182 $382 forward 7 unknown #
vertex $-1 $185 $383 #
ellipse-curve $-1 53.835815446068473 -19.276096742662922 10.105979896911483 0.55919291073839883 0 0.82903756765294845 0.41451878382647422 0 -0.27959645536919941 1 I I #
coedge $-1 $280 $280 $-1 $384 reversed $188 $-1 #
edge $-1 $385 0 $385 6.2831853071796004 $189 $386 forward 7 unknown #
vertex $-1 $192 $387 #
ellipse-curve $-1 53.835815446068473 -16.846061728029461 10.105979896911483 0.55919291073839883 0 0.82903756765294845 0.41451878382647422 0 -0.27959645536919941 1 I I #
coedge $-1 $284 $284 $-1 $388 reversed $195 $-1 #
edge $-1 $389 0 $389 6.2831853071796004 $196 $390 forward 7 unknown #
vertex $-1 $199 $391 #
ellipse-curve $-1 53.835815446068473 -14.416026713396001 10.105979896911483 0.55919291073839883 0 0.82903756765294845 0.41451878382647422 0 -0.27959645536919941 1 I I #
face $-1 $-1 $300 $30 $-1 $392 reversed single #
loop $-1 $-1 $393 $200 #
plane-surface $-1 0 36.523414669540124 0 0 -1 0 0 0 -1 forward_v I I I I #
coedge $-1 $306 $305 $394 $395 forward $201 $-1 #
coedge $-1 $203 $213 $396 $397 forward $127 $-1 #
coedge $-1 $299 $209 $203 $294 reversed $300 $-1 #
edge $-1 $398 -36.523414669540124 $214 36.523414669540124 $293 $399 forward 7 unknown #
coedge $-1 $205 $204 $305 $400 forward $81 $-1 #
coedge $-1 $393 $394 $204 $297 reversed $289 $-1 #
edge $-1 $302 -59.072847682119203 $401 59.072847682119203 $296 $402 forward 7 unknown #
edge $-1 $307 -59.072847682119203 $301 59.072847682119203 $208 $403 forward 7 unknown #
coedge $-1 $206 $293 $393 $404 reversed $300 $-1 #
loop $-1 $-1 $209 $288 #
vertex $-1 $207 $405 #
vertex $-1 $207 $406 #
straight-curve $-1 59.072847682119203 0 13.638402809903015 0 1 0 I I #
straight-curve $-1 59.072847682119203 -36.523414669540124 0 0 0 -1 I I #
coedge $-1 $291 $211 $295 $400 reversed $201 $-1 #
coedge $-1 $211 $291 $213 $309 reversed $201 $-1 #
vertex $-1 $400 $407 #
straight-curve $-1 -59.072847682119203 -36.523414669540124 0 0 0 -1 I I #
edge $-1 $215 -36.523414669540124 $408 36.523414669540124 $306 $409 forward 7 unknown #
point $-1 59.072847682119203 -36.523414669540124 -13.638402809903015 #
point $-1 -59.072847682119203 -36.523414669540124 -13.638402809903015 #
face $-1 $-1 $325 $31 $-1 $410 reversed single #
plane-surface $-1 -52.860375601670867 -44.337061961434237 0 -1 0 0 0 0 1 forward_v I I I I #
coedge $-1 $411 $412 $413 $414 forward $218 $-1 #
coedge $-1 $413 $220 $324 $415 reversed $135 $-1 #
coedge $-1 $220 $413 $221 $319 reversed $135 $-1 #
edge $-1 $321 -13.638402809903015 $326 13.638402809903015 $220 $416 forward 7 unknown #
coedge $-1 $222 $221 $412 $417 forward $85 $-1 #
edge $-1 $321 36.523414669540124 $418 52.150709253328351 $316 $419 forward 7 unknown #
edge $-1 $420 -7.8136472918941138 $230 7.8136472918941138 $227 $421 forward 7 unknown #
vertex $-1 $319 $422 #
straight-curve $-1 0 -36.523414669540124 13.638402809903015 -1 0 0 I I #
coedge $-1 $423 $225 $228 $329 forward $325 $-1 #
coedge $-1 $225 $423 $315 $415 forward $325 $-1 #
loop $-1 $-1 $225 $312 #
vertex $-1 $317 $424 #
straight-curve $-1 0 -36.523414669540124 -13.638402809903015 1 0 0 I I #
coedge $-1 $228 $227 $425 $426 forward $229 $-1 #
edge $-1 $231 -7.8136472918941138 $427 7.8136472918941138 $228 $428 forward 7 unknown #
point $-1 -52.860375601670867 -36.523414669540124 13.638402809903015 #
point $-1 -52.860375601670867 -36.523414669540124 -13.638402809903015 #
plane-surface $-1 0 0 13.638402809903015 0 0 1 1 0 0 forward_v I I I I #
coedge $-1 $343 $342 $335 $429 forward $234 $-1 #
coedge $-1 $335 $236 $238 $339 reversed $143 $-1 #
coedge $-1 $236 $334 $333 $429 reversed $143 $-1 #
coedge $-1 $244 $239 $236 $337 forward $245 $-1 #
edge $-1 $340 -13.970758272012127 $430 -3.4966937999107088 $336 $431 forward 7 unknown #
coedge $-1 $238 $237 $343 $432 reversed $89 $-1 #
edge $-1 $433 0 $340 12.634004634740592 $334 $434 forward 7 unknown #
vertex $-1 $240 $435 #
straight-curve $-1 -48.598783210017778 -8.4230308640147307 13.638402809903015 0 1 0 I I #
coedge $-1 $333 $241 $244 $347 reversed $234 $-1 #
coedge $-1 $241 $333 $338 $432 forward $234 $-1 #
vertex $-1 $242 $436 #
straight-curve $-1 -59.072847682119203 -20.896120085751896 52.260388448677212 0 0 1 I I #
straight-curve $-1 -59.072847682119203 -20.896120085751896 6.5735569839199997 -0.82903756765294845 0 -0.55919291073839883 I I #
edge $-1 $430 12.796003370307027 $246 20.896120085751896 $342 $437 forward 7 unknown #
point $-1 -59.072847682119203 -20.896120085751896 13.638402809903015 #
point $-1 -48.598783210017785 -20.896120085751896 13.638402809903015 #
edge $-1 $438 1 $438 0 $249 $-1 forward 7 unknown #
vertex $-1 $250 $439 #
ellipse-curve $-1 -52.865210349422746 -19.276096742662922 8.6669986919956532 -0.55919291073839883 0 0.82903756765294845 0.41451878382647422 0 0.27959645536919941 1 I I #
point $-1 -53.421296662242014 -19.276096742662922 10.385576352280703 #
edge $-1 $440 1 $440 0 $253 $-1 forward 7 unknown #
vertex $-1 $254 $441 #
ellipse-curve $-1 -52.865210349422746 -16.846061728029461 8.6669986919956532 -0.55919291073839883 0 0.82903756765294845 0.41451878382647422 0 0.27959645536919941 1 I I #
point $-1 -53.421296662242014 -16.846061728029461 10.385576352280703 #
edge $-1 $442 1 $442 0 $257 $-1 forward 7 unknown #
vertex $-1 $258 $443 #
ellipse-curve $-1 -52.865210349422746 -14.416026713396001 8.6669986919956532 -0.55919291073839883 0 0.82903756765294845 0.41451878382647422 0 0.27959645536919941 1 I I #
point $-1 -53.421296662242014 -14.416026713396001 10.385576352280703 #
loop $-1 $-1 $269 $261 #
plane-surface $-1 59.072847682119203 0 0 -1 0 0 0 0 1 forward_v I I I I #
coedge $-1 $365 $264 $266 $369 reversed $172 $-1 #
coedge $-1 $264 $364 $444 $445 reversed $172 $-1 #
coedge $-1 $272 $267 $264 $367 forward $262 $-1 #
edge $-1 $370 35.002851684705035 $446 45.47691615680651 $366 $447 forward 7 unknown #
coedge $-1 $266 $265 $373 $448 reversed $108 $-1 #
edge $-1 $449 -118.14569536423841 $370 -105.51169072949774 $364 $450 forward 7 unknown #
vertex $-1 $268 $451 #
straight-curve $-1 48.598783210017736 -8.4230308640147307 13.638402809903013 0 -1 0 I I #
coedge $-1 $444 $269 $272 $377 reversed $362 $-1 #
coedge $-1 $269 $444 $368 $448 forward $362 $-1 #
vertex $-1 $270 $452 #
straight-curve $-1 59.072847682119203 -12.796003370307027 85.293506089647508 0 0 1 I I #
straight-curve $-1 -38.874372231315235 -12.796003370307027 72.639792265860592 0.82903756765294845 0 -0.55919291073839883 I I #
edge $-1 $446 -20.896120085751896 $273 -12.796003370307027 $372 $453 forward 7 unknown #
point $-1 59.072847682119203 -12.796003370307027 13.638402809903015 #
point $-1 48.598783210017729 -12.796003370307027 13.63840280990302 #
edge $-1 $454 1 $454 0 $276 $-1 forward 7 unknown #
vertex $-1 $277 $455 #
ellipse-curve $-1 52.865210349422746 -19.276096742662922 8.6669986919956532 0.55919291073839883 0 0.82903756765294845 0.41451878382647422 0 -0.27959645536919941 1 I I #
point $-1 54.25033422989496 -19.276096742662922 9.826383441542303 #
edge $-1 $456 1 $456 0 $280 $-1 forward 7 unknown #
vertex $-1 $281 $457 #
ellipse-curve $-1 52.865210349422746 -16.846061728029461 8.6669986919956532 0.55919291073839883 0 0.82903756765294845 0.41451878382647422 0 -0.27959645536919941 1 I I #
point $-1 54.25033422989496 -16.846061728029461 9.826383441542303 #
edge $-1 $458 1 $458 0 $284 $-1 forward 7 unknown #
vertex $-1 $285 $459 #
ellipse-curve $-1 52.865210349422746 -14.416026713396001 8.6669986919956532 0.55919291073839883 0 0.82903756765294845 0.41451878382647422 0 -0.27959645536919941 1 I I #
point $-1 54.25033422989496 -14.416026713396001 9.826383441542303 #
plane-surface $-1 59.072847682119203 0 0 -1 0 0 0 0 1 forward_v I I I I #
coedge $-1 $396 $296 $299 $404 forward $289 $-1 #
coedge $-1 $296 $396 $291 $395 reversed $289 $-1 #
edge $-1 $401 -13.638402809903015 $408 13.638402809903015 $394 $460 forward 7 unknown #
coedge $-1 $394 $393 $292 $397 reversed $289 $-1 #
edge $-1 $408 -59.072847682119203 $398 59.072847682119203 $396 $461 forward 7 unknown #
vertex $-1 $294 $462 #
straight-curve $-1 59.072847682119203 0 -13.638402809903015 0 -1 0 I I #
edge $-1 $401 -36.523414669540124 $307 36.523414669540124 $305 $463 forward 7 unknown #
vertex $-1 $297 $464 #
straight-curve $-1 0 36.523414669540124 13.638402809903015 -1 0 0 I I #
straight-curve $-1 0 -36.523414669540124 13.638402809903015 1 0 0 I I #
edge $-1 $302 -13.638402809903015 $398 13.638402809903015 $299 $465 forward 7 unknown #
point $-1 59.072847682119203 -36.523414669540124 13.638402809903015 #
point $-1 59.072847682119203 36.523414669540124 13.638402809903015 #
point $-1 -59.072847682119203 -36.523414669540124 13.638402809903015 #
vertex $-1 $397 $466 #
straight-curve $-1 -59.072847682119203 0 -13.638402809903015 0 1 0 I I #
plane-surface $-1 0 0 -13.638402809903015 0 0 1 1 0 0 forward_v I I I I #
coedge $-1 $425 $314 $423 $467 reversed $218 $-1 #
coedge $-1 $314 $425 $318 $417 reversed $218 $-1 #
coedge $-1 $316 $315 $314 $414 reversed $135 $-1 #
edge $-1 $418 -13.638402809903015 $468 13.638402809903015 $413 $469 forward 7 unknown #
edge $-1 $468 -52.150709253328351 $326 -36.523414669540124 $315 $470 forward 7 unknown #
straight-curve $-1 -59.072847682119203 -36.523414669540124 0 0 0 -1 I I #
edge $-1 $418 -3.106236040224168 $420 3.106236040224168 $412 $471 forward 7 unknown #
vertex $-1 $319 $472 #
straight-curve $-1 -59.072847682119203 0 13.638402809903015 0 -1 0 I I #
vertex $-1 $320 $473 #
straight-curve $-1 -52.860375601670867 -44.337061961434237 13.638402809903015 0 1 0 I I #
point $-1 -59.072847682119203 -36.523414669540124 13.638402809903015 #
coedge $-1 $324 $323 $411 $467 forward $325 $-1 #
point $-1 -59.072847682119203 -36.523414669540124 -13.638402809903015 #
coedge $-1 $412 $411 $328 $426 reversed $218 $-1 #
edge $-1 $420 -13.638402809903015 $427 13.638402809903015 $328 $474 forward 7 unknown #
vertex $-1 $426 $475 #
straight-curve $-1 -52.860375601670867 -44.337061961434237 -13.638402809903015 0 -1 0 I I #
edge $-1 $430 38.621985638774198 $433 45.686831464757212 $333 $476 forward 7 unknown #
vertex $-1 $347 $477 #
straight-curve $-1 -62.569541482029912 -12.796003370307027 13.638402809903013 -1 0 0 I I #
edge $-1 $433 4.3729725062922959 $344 12.473089221737165 $343 $478 forward 7 unknown #
vertex $-1 $432 $479 #
straight-curve $-1 -59.072847682119203 -12.796003370307027 6.5735569839199997 0.82903756765294845 0 0.55919291073839883 I I #
point $-1 -48.598783210017785 -12.796003370307027 13.638402809903015 #
point $-1 -59.072847682119203 -20.896120085751896 6.5735569839199997 #
straight-curve $-1 -59.072847682119203 0 13.638402809903015 0 -1 0 I I #
vertex $-1 $350 $480 #
point $-1 -52.450691565596273 -19.276096742662922 8.9465951473648531 #
vertex $-1 $354 $481 #
point $-1 -52.450691565596273 -16.846061728029461 8.9465951473648531 #
vertex $-1 $358 $482 #
point $-1 -52.450691565596273 -14.416026713396001 8.9465951473648531 #
coedge $-1 $373 $372 $365 $445 forward $362 $-1 #
edge $-1 $446 71.655103279744495 $449 78.719949105727537 $444 $483 forward 7 unknown #
vertex $-1 $377 $484 #
straight-curve $-1 13.595931525312693 -20.896120085751896 13.638402809903013 1 0 0 I I #
edge $-1 $449 -12.473089221737165 $374 -4.3729725062922959 $373 $485 forward 7 unknown #
vertex $-1 $448 $486 #
straight-curve $-1 -38.874372231315235 -20.896120085751896 72.639792265860592 -0.82903756765294845 0 0.55919291073839883 I I #
point $-1 48.598783210017729 -20.896120085751896 13.63840280990302 #
point $-1 59.072847682119203 -12.796003370307027 6.5735569839199712 #
straight-curve $-1 59.072847682119203 0 13.638402809903015 0 1 0 I I #
vertex $-1 $380 $487 #
point $-1 53.279729133249219 -19.276096742662922 8.3874022366264551 #
vertex $-1 $384 $488 #
point $-1 53.279729133249219 -16.846061728029461 8.3874022366264551 #
vertex $-1 $388 $489 #
point $-1 53.279729133249219 -14.416026713396001 8.3874022366264551 #
straight-curve $-1 -59.072847682119203 36.523414669540124 0 0 0 -1 I I #
straight-curve $-1 0 36.523414669540124 -13.638402809903015 1 0 0 I I #
point $-1 59.072847682119203 36.523414669540124 -13.638402809903015 #
straight-curve $-1 -59.072847682119203 0 13.638402809903015 0 -1 0 I I #
point $-1 -59.072847682119203 36.523414669540124 13.638402809903015 #
straight-curve $-1 59.072847682119203 36.523414669540124 0 0 0 -1 I I #
point $-1 -59.072847682119203 36.523414669540124 -13.638402809903015 #
edge $-1 $427 -3.106236040224168 $468 3.106236040224168 $411 $490 forward 7 unknown #
vertex $-1 $415 $491 #
straight-curve $-1 -59.072847682119203 -52.150709253328351 0 0 0 -1 I I #
straight-curve $-1 -59.072847682119203 0 -13.638402809903015 0 1 0 I I #
straight-curve $-1 -55.966611641895035 -52.150709253328351 13.638402809903015 1 0 0 I I #
point $-1 -59.072847682119203 -52.150709253328351 13.638402809903015 #
point $-1 -52.860375601670867 -52.150709253328351 13.638402809903015 #
straight-curve $-1 -52.860375601670867 -52.150709253328351 0 0 0 -1 I I #
point $-1 -52.860375601670867 -52.150709253328351 -13.638402809903015 #
straight-curve $-1 -59.072847682119203 -12.796003370307027 52.260388448677212 0 0 -1 I I #
point $-1 -59.072847682119203 -12.796003370307027 13.638402809903015 #
straight-curve $-1 -59.072847682119203 -8.4230308640147307 6.5735569839200014 0 -1 0 I I #
point $-1 -59.072847682119203 -12.796003370307027 6.5735569839199997 #
point $-1 -52.585613894053544 -19.276096742662922 8.25247990816918 #
point $-1 -52.585613894053544 -16.846061728029461 8.25247990816918 #
point $-1 -52.585613894053544 -14.416026713396001 8.25247990816918 #
straight-curve $-1 59.072847682119203 -20.896120085751896 85.293506089647508 0 0 -1 I I #
point $-1 59.072847682119203 -20.896120085751896 13.638402809903015 #
straight-curve $-1 59.072847682119203 -8.4230308640147307 6.5735569839199641 0 1 0 I I #
point $-1 59.072847682119203 -20.896120085751896 6.5735569839199712 #
point $-1 52.585613894053544 -19.276096742662922 8.25247990816918 #
point $-1 52.585613894053544 -16.846061728029461 8.25247990816918 #
point $-1 52.585613894053544 -14.416026713396001 8.25247990816918 #
straight-curve $-1 -55.966611641895035 -52.150709253328351 -13.638402809903015 -1 0 0 I I #
point $-1 -59.072847682119203 -52.150709253328351 -13.638402809903015 #
End-of-ACIS-data 