500 0 11 0           
7 Unknown 11 ACIS 5.0 NT 24 Thu Mar 25 21:20:27 1999 
-1 9.9999999999999995e-007 1e-010 
body $-1 $11 $-1 $12 #
body $-1 $13 $-1 $14 #
body $-1 $15 $-1 $16 #
body $-1 $17 $-1 $18 #
body $-1 $19 $-1 $20 #
body $-1 $21 $-1 $22 #
body $-1 $23 $-1 $24 #
body $-1 $25 $-1 $26 #
body $-1 $27 $-1 $28 #
body $-1 $29 $-1 $30 #
body $-1 $31 $-1 $32 #
lump $-1 $-1 $33 $0 #
transform $-1 1 0 0 0 1 0 0 0 1 55.116428113650926 27.892105196708876 7.2909164534699809 1 rotate no_reflect no_shear #
lump $-1 $-1 $34 $1 #
transform $-1 1 0 0 0 1 0 0 0 1 55.116428113650926 27.892105196708876 7.2909164534699809 1 rotate no_reflect no_shear #
lump $-1 $-1 $35 $2 #
transform $-1 1 0 0 0 1 0 0 0 1 55.116428113650926 27.892105196708876 7.2909164534699809 1 rotate no_reflect no_shear #
lump $-1 $-1 $36 $3 #
transform $-1 1 0 0 0 1 0 0 0 1 55.116428113650926 27.892105196708876 7.2909164534699809 1 rotate no_reflect no_shear #
lump $-1 $-1 $37 $4 #
transform $-1 1 0 0 0 1 0 0 0 1 55.116428113650926 27.892105196708876 7.2909164534699809 1 rotate no_reflect no_shear #
lump $-1 $-1 $38 $5 #
transform $-1 1 0 0 0 1 0 0 0 1 55.116428113650926 27.892105196708876 7.2909164534699809 1 rotate no_reflect no_shear #
lump $-1 $-1 $39 $6 #
transform $-1 1 0 0 0 1 0 0 0 1 55.116428113650926 27.892105196708876 7.2909164534699809 1 rotate no_reflect no_shear #
lump $-1 $-1 $40 $7 #
transform $-1 1 0 0 0 1 0 0 0 1 55.116428113650926 27.892105196708876 7.2909164534699809 1 rotate no_reflect no_shear #
lump $-1 $-1 $41 $8 #
transform $-1 1 0 0 0 1 0 0 0 1 55.116428113650926 27.892105196708876 7.2909164534699809 1 rotate no_reflect no_shear #
lump $-1 $-1 $42 $9 #
transform $-1 1 0 0 0 1 0 0 0 1 55.116428113650926 27.892105196708876 7.2909164534699809 1 rotate no_reflect no_shear #
lump $-1 $-1 $43 $10 #
transform $-1 1 0 0 0 1 0 0 0 1 55.116428113650926 27.892105196708876 7.2909164534699809 1 rotate no_reflect no_shear #
shell $-1 $-1 $-1 $44 $-1 $11 #
shell $-1 $-1 $-1 $45 $-1 $13 #
shell $-1 $-1 $-1 $46 $-1 $15 #
shell $-1 $-1 $-1 $47 $-1 $17 #
shell $-1 $-1 $-1 $48 $-1 $19 #
shell $-1 $-1 $-1 $49 $-1 $21 #
shell $-1 $-1 $-1 $50 $-1 $23 #
shell $-1 $-1 $-1 $51 $-1 $25 #
shell $-1 $-1 $-1 $52 $-1 $27 #
shell $-1 $-1 $-1 $53 $-1 $29 #
shell $-1 $-1 $-1 $54 $-1 $31 #
face $-1 $55 $56 $33 $-1 $57 forward single #
face $-1 $58 $59 $34 $-1 $60 forward single #
face $-1 $61 $62 $35 $-1 $63 reversed single #
face $-1 $64 $65 $36 $-1 $66 reversed single #
face $-1 $67 $68 $37 $-1 $69 forward single #
face $-1 $70 $71 $38 $-1 $72 forward single #
face $-1 $73 $74 $39 $-1 $75 forward single #
face $-1 $76 $77 $40 $-1 $78 reversed single #
face $-1 $79 $80 $41 $-1 $81 forward single #
face $-1 $82 $83 $42 $-1 $84 forward single #
face $-1 $85 $86 $43 $-1 $87 forward single #
face $-1 $88 $89 $33 $-1 $90 reversed single #
loop $-1 $-1 $91 $44 #
plane-surface $-1 0 0 7.2909164534699809 0 0 1 1 0 0 forward_v I I I I #
face $-1 $92 $93 $34 $-1 $94 reversed single #
loop $-1 $-1 $95 $45 #
plane-surface $-1 0 -24.469570962626186 -4.2909164534699809 0 0 1 1 0 0 forward_v I I I I #
face $-1 $96 $97 $35 $-1 $98 reversed single #
loop $-1 $-1 $99 $46 #
plane-surface $-1 0 23.31029588833691 3.6683542899407175 0 0 1 1 0 0 forward_v I I I I #
face $-1 $100 $101 $36 $-1 $102 reversed single #
loop $-1 $-1 $103 $47 #
plane-surface $-1 92.830312172579767 -7.9603428794381532 152.79151009162834 0 -1 0 -0.85716730853699208 0 -0.51503806187062418 forward_v I I I I #
face $-1 $104 $105 $37 $-1 $106 forward single #
loop $-1 $107 $108 $48 #
cone-surface $-1 52.621125239571619 -13.807859597358986 3.9508768485559957 -0.85716730853699208 0 -0.51503806187062418 0.25751903093531209 0 -0.42858365426849604 1 I I 0 1 0.5 forward I I I I #
face $-1 $109 $110 $38 $-1 $111 forward single #
loop $-1 $112 $113 $49 #
cone-surface $-1 52.621125239571619 -11.615040828138675 3.9508768485559957 -0.85716730853699208 0 -0.51503806187062418 0.25751903093531209 0 -0.42858365426849604 1 I I 0 1 0.5 forward I I I I #
face $-1 $114 $115 $39 $-1 $116 forward single #
loop $-1 $117 $118 $50 #
cone-surface $-1 52.621125239571619 -9.4222220589183614 3.9508768485559957 -0.85716730853699208 0 -0.51503806187062418 0.25751903093531209 0 -0.42858365426849604 1 I I 0 1 0.5 forward I I I I #
face $-1 $119 $120 $40 $-1 $121 reversed single #
loop $-1 $-1 $122 $51 #
plane-surface $-1 -149.60442879835244 -15.269738776839196 58.3035094069268 0 1 0 -0.85716730853699208 0 0.51503806187062418 forward_v I I I I #
face $-1 $123 $124 $41 $-1 $125 forward single #
loop $-1 $126 $127 $52 #
cone-surface $-1 -52.621125239571619 -13.807859597358986 3.9508768485560064 0.85716730853699208 0 -0.51503806187062418 0.25751903093531209 0 0.42858365426849604 1 I I 0 1 0.5 forward I I I I #
face $-1 $128 $129 $42 $-1 $130 forward single #
loop $-1 $131 $132 $53 #
cone-surface $-1 -52.621125239571619 -11.615040828138675 3.9508768485560064 0.85716730853699208 0 -0.51503806187062418 0.25751903093531209 0 0.42858365426849604 1 I I 0 1 0.5 forward I I I I #
face $-1 $133 $134 $43 $-1 $135 forward single #
loop $-1 $136 $137 $54 #
cone-surface $-1 -52.621125239571619 -9.4222220589183614 3.9508768485560064 0.85716730853699208 0 -0.51503806187062418 0.25751903093531209 0 0.42858365426849604 1 I I 0 1 0.5 forward I I I I #
face $-1 $138 $139 $33 $-1 $140 reversed single #
loop $-1 $-1 $141 $55 #
plane-surface $-1 0 0 -7.2909164534699809 0 0 1 1 0 0 forward_v I I I I #
coedge $-1 $142 $143 $144 $145 forward $56 $-1 #
face $-1 $146 $147 $34 $-1 $148 reversed single #
loop $-1 $-1 $149 $58 #
plane-surface $-1 0 -21.047036728543496 -5.7909164534699809 0 -1 0 0 0 -1 forward_v I I I I #
coedge $-1 $150 $151 $152 $153 reversed $59 $-1 #
face $-1 $154 $155 $35 $-1 $156 reversed single #
loop $-1 $-1 $157 $61 #
plane-surface $-1 0 18.728486579964944 5.4796353717053492 0 1 0 0 0 1 forward_v I I I I #
coedge $-1 $158 $159 $160 $161 reversed $62 $-1 #
face $-1 $162 $163 $36 $-1 $164 reversed single #
loop $-1 $-1 $165 $64 #
plane-surface $-1 -1.6576885121217657 -11.615040828138675 96.017393465855633 0.85716730853699208 0 0.51503806187062418 0.51503806187062418 0 -0.85716730853699208 forward_v I I I I #
coedge $-1 $166 $167 $168 $169 reversed $65 $-1 #
face $-1 $-1 $170 $37 $-1 $171 forward single #
loop $-1 $172 $173 $67 #
cone-surface $-1 51.642466818858566 -13.807859597358986 3.3628395643323135 -0.85716730853699208 0 -0.51503806187062418 0.12875951546765604 0 -0.21429182713424802 1 I I -0.70710678118654746 0.70710678118654746 0.25 forward I I I I #
loop $-1 $-1 $174 $48 #
coedge $-1 $108 $108 $175 $176 reversed $68 $-1 #
face $-1 $-1 $177 $38 $-1 $178 forward single #
loop $-1 $179 $180 $70 #
cone-surface $-1 51.642466818858566 -11.615040828138675 3.3628395643323135 -0.85716730853699208 0 -0.51503806187062418 0.12875951546765604 0 -0.21429182713424802 1 I I -0.70710678118654746 0.70710678118654746 0.25 forward I I I I #
loop $-1 $-1 $181 $49 #
coedge $-1 $113 $113 $182 $183 reversed $71 $-1 #
face $-1 $-1 $184 $39 $-1 $185 forward single #
loop $-1 $186 $187 $73 #
cone-surface $-1 51.642466818858566 -9.4222220589183614 3.3628395643323135 -0.85716730853699208 0 -0.51503806187062418 0.12875951546765604 0 -0.21429182713424802 1 I I -0.70710678118654746 0.70710678118654746 0.25 forward I I I I #
loop $-1 $-1 $188 $50 #
coedge $-1 $118 $118 $189 $190 reversed $74 $-1 #
face $-1 $191 $192 $40 $-1 $193 reversed single #
loop $-1 $-1 $194 $76 #
plane-surface $-1 -55.116428113650912 -11.615040828138675 1.5293927811540868 -0.85716730853699208 0 0.51503806187062418 0.51503806187062418 0 0.85716730853699208 forward_v I I I I #
coedge $-1 $195 $196 $197 $198 reversed $77 $-1 #
face $-1 $-1 $199 $41 $-1 $200 forward single #
loop $-1 $201 $202 $79 #
cone-surface $-1 -51.642466818858566 -13.807859597358986 3.3628395643323241 0.85716730853699208 0 -0.51503806187062418 0.12875951546765604 0 0.21429182713424802 1 I I -0.70710678118654746 0.70710678118654746 0.25 forward I I I I #
loop $-1 $-1 $203 $52 #
coedge $-1 $127 $127 $204 $205 reversed $80 $-1 #
face $-1 $-1 $206 $42 $-1 $207 forward single #
loop $-1 $208 $209 $82 #
cone-surface $-1 -51.642466818858566 -11.615040828138675 3.3628395643323241 0.85716730853699208 0 -0.51503806187062418 0.12875951546765604 0 0.21429182713424802 1 I I -0.70710678118654746 0.70710678118654746 0.25 forward I I I I #
loop $-1 $-1 $210 $53 #
coedge $-1 $132 $132 $211 $212 reversed $83 $-1 #
face $-1 $-1 $213 $43 $-1 $214 forward single #
loop $-1 $215 $216 $85 #
cone-surface $-1 -51.642466818858566 -9.4222220589183614 3.3628395643323241 0.85716730853699208 0 -0.51503806187062418 0.12875951546765604 0 0.21429182713424802 1 I I -0.70710678118654746 0.70710678118654746 0.25 forward I I I I #
loop $-1 $-1 $217 $54 #
coedge $-1 $137 $137 $218 $219 reversed $86 $-1 #
face $-1 $220 $221 $33 $-1 $222 reversed single #
loop $-1 $-1 $223 $88 #
plane-surface $-1 0 -27.892105196708876 0 0 1 0 0 0 1 forward_v I I I I #
coedge $-1 $224 $225 $226 $227 forward $89 $-1 #
coedge $-1 $228 $91 $229 $230 forward $56 $-1 #
coedge $-1 $91 $228 $231 $232 forward $56 $-1 #
coedge $-1 $233 $234 $91 $145 reversed $235 $-1 #
edge $-1 $236 -27.892105196708876 $237 27.892105196708876 $144 $238 forward 7 unknown #
face $-1 $239 $240 $34 $-1 $241 reversed single #
loop $-1 $-1 $242 $92 #
plane-surface $-1 0 0 -7.2909164534699809 0 0 1 1 0 0 forward_v I I I I #
coedge $-1 $243 $244 $245 $246 reversed $93 $-1 #
coedge $-1 $247 $95 $244 $248 forward $59 $-1 #
coedge $-1 $95 $247 $249 $250 reversed $59 $-1 #
coedge $-1 $251 $245 $95 $153 forward $240 $-1 #
edge $-1 $252 8.8122512472304031 $253 15.657319715395783 $152 $254 forward 7 unknown #
face $-1 $255 $256 $35 $-1 $257 reversed single #
loop $-1 $-1 $258 $96 #
plane-surface $-1 0 27.892105196708876 0 0 -1 0 0 0 -1 forward_v I I I I #
coedge $-1 $259 $260 $261 $262 reversed $97 $-1 #
coedge $-1 $263 $99 $259 $264 forward $62 $-1 #
coedge $-1 $99 $263 $258 $265 reversed $62 $-1 #
coedge $-1 $266 $267 $99 $161 forward $268 $-1 #
edge $-1 $269 7.0733386357964889 $270 16.236957252540421 $160 $271 forward 7 unknown #
face $-1 $272 $273 $36 $-1 $274 forward single #
loop $-1 $-1 $275 $100 #
plane-surface $-1 92.830312172579767 -15.269738776839196 152.79151009162834 0 1 0 0.85716730853699208 0 0.51503806187062418 forward_v I I I I #
coedge $-1 $276 $277 $278 $279 reversed $101 $-1 #
coedge $-1 $167 $103 $280 $281 reversed $65 $-1 #
coedge $-1 $103 $166 $276 $282 reversed $65 $-1 #
coedge $-1 $278 $283 $103 $169 forward $273 $-1 #
edge $-1 $284 -8.7012720273610427 $285 -5.2393994663600623 $168 $286 forward 7 unknown #
loop $-1 $-1 $175 $104 #
plane-surface $-1 -1.6576885121217657 -11.615040828138675 96.017393465855633 0.85716730853699208 0 0.51503806187062418 0.51503806187062418 0 -0.85716730853699208 forward_v I I I I #
loop $-1 $-1 $287 $67 #
coedge $-1 $173 $173 $174 $288 reversed $105 $-1 #
coedge $-1 $174 $174 $173 $288 forward $107 $-1 #
coedge $-1 $175 $175 $108 $176 forward $170 $-1 #
edge $-1 $289 0 $289 6.2831853071796004 $175 $290 forward 7 unknown #
loop $-1 $-1 $182 $109 #
plane-surface $-1 -1.6576885121217657 -11.615040828138675 96.017393465855633 0.85716730853699208 0 0.51503806187062418 0.51503806187062418 0 -0.85716730853699208 forward_v I I I I #
loop $-1 $-1 $291 $70 #
coedge $-1 $180 $180 $181 $292 reversed $110 $-1 #
coedge $-1 $181 $181 $180 $292 forward $112 $-1 #
coedge $-1 $182 $182 $113 $183 forward $177 $-1 #
edge $-1 $293 0 $293 6.2831853071796004 $182 $294 forward 7 unknown #
loop $-1 $-1 $189 $114 #
plane-surface $-1 -1.6576885121217657 -11.615040828138675 96.017393465855633 0.85716730853699208 0 0.51503806187062418 0.51503806187062418 0 -0.85716730853699208 forward_v I I I I #
loop $-1 $-1 $295 $73 #
coedge $-1 $187 $187 $188 $296 reversed $115 $-1 #
coedge $-1 $188 $188 $187 $296 forward $117 $-1 #
coedge $-1 $189 $189 $118 $190 forward $184 $-1 #
edge $-1 $297 0 $297 6.2831853071796004 $189 $298 forward 7 unknown #
face $-1 $299 $300 $40 $-1 $301 reversed single #
loop $-1 $-1 $302 $119 #
plane-surface $-1 -149.60442879835244 -7.9603428794381532 58.3035094069268 0 -1 0 0.85716730853699208 0 -0.51503806187062418 forward_v I I I I #
coedge $-1 $303 $304 $305 $306 reversed $120 $-1 #
coedge $-1 $196 $122 $307 $308 reversed $77 $-1 #
coedge $-1 $122 $195 $303 $309 reversed $77 $-1 #
coedge $-1 $305 $310 $122 $198 forward $311 $-1 #
edge $-1 $312 19.685786285525296 $313 23.147658846526319 $197 $314 forward 7 unknown #
loop $-1 $-1 $204 $123 #
plane-surface $-1 -55.116428113650912 -11.615040828138675 1.5293927811540868 -0.85716730853699208 0 0.51503806187062418 0.51503806187062418 0 0.85716730853699208 forward_v I I I I #
loop $-1 $-1 $315 $79 #
coedge $-1 $202 $202 $203 $316 reversed $124 $-1 #
coedge $-1 $203 $203 $202 $316 forward $126 $-1 #
coedge $-1 $204 $204 $127 $205 forward $199 $-1 #
edge $-1 $317 0 $317 6.2831853071796004 $204 $318 forward 7 unknown #
loop $-1 $-1 $211 $128 #
plane-surface $-1 -55.116428113650912 -11.615040828138675 1.5293927811540868 -0.85716730853699208 0 0.51503806187062418 0.51503806187062418 0 0.85716730853699208 forward_v I I I I #
loop $-1 $-1 $319 $82 #
coedge $-1 $209 $209 $210 $320 reversed $129 $-1 #
coedge $-1 $210 $210 $209 $320 forward $131 $-1 #
coedge $-1 $211 $211 $132 $212 forward $206 $-1 #
edge $-1 $321 0 $321 6.2831853071796004 $211 $322 forward 7 unknown #
loop $-1 $-1 $218 $133 #
plane-surface $-1 -55.116428113650912 -11.615040828138675 1.5293927811540868 -0.85716730853699208 0 0.51503806187062418 0.51503806187062418 0 0.85716730853699208 forward_v I I I I #
loop $-1 $-1 $323 $85 #
coedge $-1 $216 $216 $217 $324 reversed $134 $-1 #
coedge $-1 $217 $217 $216 $324 forward $136 $-1 #
coedge $-1 $218 $218 $137 $219 forward $213 $-1 #
edge $-1 $325 0 $325 6.2831853071796004 $218 $326 forward 7 unknown #
face $-1 $327 $328 $33 $-1 $329 reversed single #
loop $-1 $-1 $330 $138 #
plane-surface $-1 -55.116428113650926 0 0 1 0 0 0 0 -1 forward_v I I I I #
coedge $-1 $331 $231 $332 $333 forward $139 $-1 #
coedge $-1 $334 $141 $331 $335 forward $89 $-1 #
coedge $-1 $141 $334 $336 $337 forward $89 $-1 #
coedge $-1 $234 $233 $141 $227 reversed $235 $-1 #
edge $-1 $338 -27.892105196708876 $339 27.892105196708876 $226 $340 forward 7 unknown #
coedge $-1 $143 $142 $341 $342 forward $56 $-1 #
coedge $-1 $343 $344 $142 $230 reversed $328 $-1 #
edge $-1 $237 -55.116428113650926 $345 55.116428113650926 $229 $346 forward 7 unknown #
coedge $-1 $223 $347 $143 $232 reversed $139 $-1 #
edge $-1 $348 -55.116428113650926 $236 55.116428113650926 $231 $349 forward 7 unknown #
coedge $-1 $226 $144 $347 $350 forward $235 $-1 #
coedge $-1 $144 $226 $343 $351 reversed $235 $-1 #
loop $-1 $-1 $233 $327 #
vertex $-1 $145 $352 #
vertex $-1 $145 $353 #
straight-curve $-1 55.116428113650926 0 7.2909164534699809 0 1 0 I I #
face $-1 $354 $355 $34 $-1 $356 reversed single #
loop $-1 $-1 $245 $146 #
plane-surface $-1 55.116428113650926 0 0 -1 0 0 0 0 1 forward_v I I I I #
coedge $-1 $357 $358 $243 $359 forward $147 $-1 #
coedge $-1 $360 $149 $242 $359 reversed $93 $-1 #
coedge $-1 $149 $360 $150 $248 reversed $93 $-1 #
coedge $-1 $152 $361 $149 $246 forward $240 $-1 #
edge $-1 $362 -4.3954582267349904 $252 -1.3954582267349904 $245 $363 forward 7 unknown #
coedge $-1 $151 $150 $364 $365 reversed $59 $-1 #
edge $-1 $252 -55.116428113650926 $366 55.116428113650926 $244 $367 forward 7 unknown #
coedge $-1 $368 $369 $151 $250 forward $355 $-1 #
edge $-1 $253 -55.116428113650926 $370 55.116428113650926 $249 $371 forward 7 unknown #
coedge $-1 $361 $152 $369 $372 forward $240 $-1 #
vertex $-1 $153 $373 #
vertex $-1 $372 $374 #
straight-curve $-1 55.116428113650926 -12.234785481313093 -4.2909164534699809 0 -1 0 I I #
face $-1 $375 $376 $35 $-1 $377 forward single #
loop $-1 $-1 $378 $154 #
plane-surface $-1 -55.116428113650926 0 0 1 0 0 0 0 -1 forward_v I I I I #
coedge $-1 $379 $380 $159 $265 forward $155 $-1 #
coedge $-1 $381 $157 $158 $264 reversed $97 $-1 #
coedge $-1 $157 $381 $382 $383 reversed $97 $-1 #
coedge $-1 $384 $378 $157 $262 forward $256 $-1 #
edge $-1 $385 0.92853660408804295 $386 4.5510987676173063 $261 $387 forward 7 unknown #
coedge $-1 $159 $158 $378 $388 reversed $62 $-1 #
edge $-1 $269 -55.116428113650926 $385 55.116428113650926 $259 $389 forward 7 unknown #
edge $-1 $270 -55.116428113650926 $390 55.116428113650926 $258 $391 forward 7 unknown #
coedge $-1 $392 $160 $380 $393 reversed $268 $-1 #
coedge $-1 $160 $392 $381 $394 forward $268 $-1 #
loop $-1 $-1 $160 $375 #
vertex $-1 $161 $395 #
vertex $-1 $265 $396 #
straight-curve $-1 55.116428113650926 11.655147944168455 3.6683542899407175 0 1 0 I I #
face $-1 $-1 $397 $36 $-1 $398 reversed single #
loop $-1 $-1 $168 $162 #
plane-surface $-1 0 0 7.2909164534699809 0 0 1 1 0 0 forward_v I I I I #
coedge $-1 $399 $400 $401 $402 reversed $163 $-1 #
coedge $-1 $403 $165 $167 $282 forward $101 $-1 #
coedge $-1 $165 $403 $399 $404 forward $101 $-1 #
coedge $-1 $401 $168 $165 $279 forward $273 $-1 #
edge $-1 $285 2.1528224653688159 $405 9.4622183627698586 $278 $406 forward 7 unknown #
coedge $-1 $407 $408 $166 $281 forward $397 $-1 #
edge $-1 $409 -74.86636226466004 $284 -69.104838592344194 $280 $410 forward 7 unknown #
edge $-1 $285 103.51127035376965 $409 110.23285622730184 $167 $411 forward 7 unknown #
coedge $-1 $168 $401 $407 $412 forward $273 $-1 #
vertex $-1 $281 $413 #
vertex $-1 $169 $414 #
straight-curve $-1 46.415156086289883 -7.9603428794381532 7.2909164534699755 -1 0 0 I I #
coedge $-1 $287 $287 $-1 $415 reversed $172 $-1 #
edge $-1 $416 0 $416 6.2831853071796004 $173 $417 forward 7 unknown #
vertex $-1 $176 $418 #
ellipse-curve $-1 53.385491833150446 -13.807859597358986 4.4101546173120383 0.85716730853699208 0 0.51503806187062418 0.25751903093531209 0 -0.42858365426849604 1 I I #
coedge $-1 $291 $291 $-1 $419 reversed $179 $-1 #
edge $-1 $420 0 $420 6.2831853071796004 $180 $421 forward 7 unknown #
vertex $-1 $183 $422 #
ellipse-curve $-1 53.385491833150446 -11.615040828138675 4.4101546173120383 0.85716730853699208 0 0.51503806187062418 0.25751903093531209 0 -0.42858365426849604 1 I I #
coedge $-1 $295 $295 $-1 $423 reversed $186 $-1 #
edge $-1 $424 0 $424 6.2831853071796004 $187 $425 forward 7 unknown #
vertex $-1 $190 $426 #
ellipse-curve $-1 53.385491833150446 -9.4222220589183614 4.4101546173120383 0.85716730853699208 0 0.51503806187062418 0.25751903093531209 0 -0.42858365426849604 1 I I #
face $-1 $-1 $311 $40 $-1 $427 forward single #
loop $-1 $-1 $428 $191 #
plane-surface $-1 -55.116428113650926 0 0 1 0 0 0 0 -1 forward_v I I I I #
coedge $-1 $429 $430 $431 $432 reversed $192 $-1 #
coedge $-1 $433 $194 $196 $309 forward $120 $-1 #
coedge $-1 $194 $433 $429 $434 forward $120 $-1 #
coedge $-1 $431 $197 $194 $306 forward $311 $-1 #
edge $-1 $313 -9.4622183627698586 $435 -2.1528224653688159 $305 $436 forward 7 unknown #
coedge $-1 $437 $438 $195 $308 forward $300 $-1 #
edge $-1 $439 -27.622361922309338 $312 -21.860838249993421 $307 $440 forward 7 unknown #
edge $-1 $313 -6.7215858735322369 $439 2.7684374342568793e-014 $196 $441 forward 7 unknown #
coedge $-1 $197 $431 $437 $442 forward $311 $-1 #
loop $-1 $-1 $431 $299 #
vertex $-1 $308 $443 #
vertex $-1 $198 $444 #
straight-curve $-1 -74.802214399176222 -15.269738776839196 7.2909164534699826 1 0 0 I I #
coedge $-1 $315 $315 $-1 $445 reversed $201 $-1 #
edge $-1 $446 0 $446 6.2831853071796004 $202 $447 forward 7 unknown #
vertex $-1 $205 $448 #
ellipse-curve $-1 -53.385491833150411 -13.807859597358986 4.4101546173120258 -0.85716730853699208 0 0.51503806187062418 0.25751903093531209 0 0.42858365426849604 1 I I #
coedge $-1 $319 $319 $-1 $449 reversed $208 $-1 #
edge $-1 $450 0 $450 6.2831853071796004 $209 $451 forward 7 unknown #
vertex $-1 $212 $452 #
ellipse-curve $-1 -53.385491833150411 -11.615040828138675 4.4101546173120258 -0.85716730853699208 0 0.51503806187062418 0.25751903093531209 0 0.42858365426849604 1 I I #
coedge $-1 $323 $323 $-1 $453 reversed $215 $-1 #
edge $-1 $454 0 $454 6.2831853071796004 $216 $455 forward 7 unknown #
vertex $-1 $219 $456 #
ellipse-curve $-1 -53.385491833150411 -9.4222220589183614 4.4101546173120258 -0.85716730853699208 0 0.51503806187062418 0.25751903093531209 0 0.42858365426849604 1 I I #
face $-1 $-1 $235 $33 $-1 $457 reversed single #
loop $-1 $-1 $343 $220 #
plane-surface $-1 0 27.892105196708876 0 0 -1 0 0 0 -1 forward_v I I I I #
coedge $-1 $458 $341 $344 $459 forward $221 $-1 #
coedge $-1 $347 $223 $224 $335 reversed $139 $-1 #
coedge $-1 $341 $458 $223 $333 reversed $221 $-1 #
edge $-1 $348 -7.2909164534699809 $460 7.2909164534699809 $332 $461 forward 7 unknown #
coedge $-1 $225 $224 $458 $462 forward $89 $-1 #
edge $-1 $339 -55.116428113650926 $460 55.116428113650926 $331 $463 forward 7 unknown #
coedge $-1 $344 $343 $225 $337 reversed $328 $-1 #
edge $-1 $464 -55.116428113650926 $338 55.116428113650926 $336 $465 forward 7 unknown #
vertex $-1 $227 $466 #
vertex $-1 $350 $467 #
straight-curve $-1 55.116428113650926 0 -7.2909164534699809 0 -1 0 I I #
coedge $-1 $330 $332 $228 $342 reversed $221 $-1 #
edge $-1 $345 -27.892105196708876 $348 27.892105196708876 $341 $468 forward 7 unknown #
coedge $-1 $336 $229 $234 $351 forward $328 $-1 #
coedge $-1 $229 $336 $330 $459 reversed $328 $-1 #
vertex $-1 $230 $469 #
straight-curve $-1 0 27.892105196708876 7.2909164534699809 -1 0 0 I I #
coedge $-1 $231 $331 $233 $350 reversed $139 $-1 #
vertex $-1 $342 $470 #
straight-curve $-1 0 -27.892105196708876 7.2909164534699809 1 0 0 I I #
edge $-1 $236 -7.2909164534699809 $339 7.2909164534699809 $233 $471 forward 7 unknown #
edge $-1 $237 -7.2909164534699809 $338 7.2909164534699809 $234 $472 forward 7 unknown #
point $-1 55.116428113650926 -27.892105196708876 7.2909164534699809 #
point $-1 55.116428113650926 27.892105196708876 7.2909164534699809 #
face $-1 $-1 $473 $34 $-1 $474 reversed single #
loop $-1 $-1 $249 $239 #
plane-surface $-1 0 -27.892105196708876 0 0 1 0 0 0 1 forward_v I I I I #
coedge $-1 $475 $242 $361 $476 forward $147 $-1 #
coedge $-1 $242 $475 $477 $478 forward $147 $-1 #
edge $-1 $479 -55.116428113650926 $362 55.116428113650926 $242 $480 forward 7 unknown #
coedge $-1 $244 $243 $481 $482 reversed $93 $-1 #
coedge $-1 $245 $251 $357 $476 reversed $240 $-1 #
vertex $-1 $476 $483 #
straight-curve $-1 55.116428113650926 -21.047036728543496 -2.8954582267349904 0 0 1 I I #
coedge $-1 $481 $484 $247 $365 forward $473 $-1 #
edge $-1 $370 -15.657319715395783 $366 -8.8122512472304031 $364 $485 forward 7 unknown #
vertex $-1 $365 $486 #
straight-curve $-1 0 -21.047036728543496 -4.2909164534699809 -1 0 0 I I #
coedge $-1 $487 $249 $484 $488 forward $355 $-1 #
coedge $-1 $249 $487 $251 $372 reversed $355 $-1 #
vertex $-1 $488 $489 #
straight-curve $-1 0 -27.892105196708876 -4.2909164534699809 -1 0 0 I I #
edge $-1 $253 4.2909164534699809 $490 7.2909164534699809 $251 $491 forward 7 unknown #
point $-1 55.116428113650926 -21.047036728543496 -4.2909164534699809 #
point $-1 55.116428113650926 -27.892105196708876 -4.2909164534699809 #
face $-1 $-1 $268 $35 $-1 $492 reversed single #
loop $-1 $-1 $382 $255 #
plane-surface $-1 0 0 7.2909164534699809 0 0 1 1 0 0 forward_v I I I I #
coedge $-1 $261 $493 $263 $388 forward $256 $-1 #
coedge $-1 $494 $258 $493 $495 reversed $155 $-1 #
coedge $-1 $258 $494 $266 $393 forward $155 $-1 #
coedge $-1 $260 $259 $267 $394 reversed $97 $-1 #
coedge $-1 $496 $497 $260 $383 forward $376 $-1 #
edge $-1 $386 -55.116428113650926 $498 55.116428113650926 $382 $499 forward 7 unknown #
coedge $-1 $493 $261 $497 $500 reversed $256 $-1 #
vertex $-1 $388 $501 #
vertex $-1 $262 $502 #
straight-curve $-1 -55.116428113650926 18.728486579964944 2.7398176858526746 0 0 1 I I #
edge $-1 $390 -16.236957252540421 $385 -7.0733386357964889 $378 $503 forward 7 unknown #
straight-curve $-1 0 18.728486579964944 3.6683542899407175 -1 0 0 I I #
vertex $-1 $265 $504 #
straight-curve $-1 0 27.892105196708876 3.6683542899407175 -1 0 0 I I #
coedge $-1 $267 $266 $496 $505 reversed $268 $-1 #
edge $-1 $506 -7.2909164534699809 $270 -3.6683542899407175 $266 $507 forward 7 unknown #
edge $-1 $498 -4.5510987676173063 $269 -0.92853660408804295 $267 $508 forward 7 unknown #
point $-1 55.116428113650926 18.728486579964944 3.6683542899407175 #
point $-1 55.116428113650926 27.892105196708876 3.6683542899407175 #
loop $-1 $-1 $280 $272 #
plane-surface $-1 55.116428113650926 0 0 -1 0 0 0 0 1 forward_v I I I I #
coedge $-1 $400 $275 $277 $404 reversed $163 $-1 #
coedge $-1 $275 $399 $509 $510 reversed $163 $-1 #
coedge $-1 $283 $278 $275 $402 forward $273 $-1 #
edge $-1 $405 5.2393994663600623 $511 8.7012720273610427 $401 $512 forward 7 unknown #
coedge $-1 $277 $276 $408 $513 reversed $101 $-1 #
edge $-1 $514 -110.23285622730184 $405 -103.51127035376965 $399 $515 forward 7 unknown #
vertex $-1 $279 $516 #
straight-curve $-1 51.654555552649938 -5.8075204140693373 7.2909164534699826 0 -1 0 I I #
coedge $-1 $509 $280 $283 $412 reversed $397 $-1 #
coedge $-1 $280 $509 $403 $513 forward $397 $-1 #
vertex $-1 $281 $517 #
straight-curve $-1 55.116428113650926 -7.9603428794381532 76.39575504581417 0 0 1 I I #
straight-curve $-1 -1.6576885121217657 -7.9603428794381532 96.017393465855633 0.51503806187062418 0 -0.85716730853699208 I I #
edge $-1 $511 -15.269738776839196 $284 -7.9603428794381532 $407 $518 forward 7 unknown #
point $-1 55.116428113650926 -7.9603428794381532 7.2909164534699809 #
point $-1 51.654555552649946 -7.9603428794381532 7.2909164534699755 #
edge $-1 $519 1 $519 0 $287 $-1 forward 7 unknown #
vertex $-1 $288 $520 #
ellipse-curve $-1 51.856758645992812 -13.807859597358986 3.4915990797999696 0.85716730853699208 0 0.51503806187062418 0.25751903093531209 0 -0.42858365426849604 1 I I #
point $-1 53.643010864085731 -13.807859597358986 3.9815709630435254 #
edge $-1 $521 1 $521 0 $291 $-1 forward 7 unknown #
vertex $-1 $292 $522 #
ellipse-curve $-1 51.856758645992812 -11.615040828138675 3.4915990797999696 0.85716730853699208 0 0.51503806187062418 0.25751903093531209 0 -0.42858365426849604 1 I I #
point $-1 53.643010864085731 -11.615040828138675 3.9815709630435254 #
edge $-1 $523 1 $523 0 $295 $-1 forward 7 unknown #
vertex $-1 $296 $524 #
ellipse-curve $-1 51.856758645992812 -9.4222220589183614 3.4915990797999696 0.85716730853699208 0 0.51503806187062418 0.25751903093531209 0 -0.42858365426849604 1 I I #
point $-1 53.643010864085731 -9.4222220589183614 3.9815709630435254 #
plane-surface $-1 0 0 7.2909164534699809 0 0 1 1 0 0 forward_v I I I I #
coedge $-1 $438 $437 $430 $525 forward $300 $-1 #
coedge $-1 $430 $302 $304 $434 reversed $192 $-1 #
coedge $-1 $302 $429 $428 $525 reversed $192 $-1 #
coedge $-1 $310 $305 $302 $432 forward $311 $-1 #
edge $-1 $435 -23.147658846526319 $526 -19.685786285525296 $431 $527 forward 7 unknown #
coedge $-1 $304 $303 $438 $528 reversed $120 $-1 #
edge $-1 $529 -2.7684374342568793e-014 $435 6.7215858735322369 $429 $530 forward 7 unknown #
vertex $-1 $306 $531 #
straight-curve $-1 -51.654555552649896 -5.8075204140693373 7.2909164534699809 0 1 0 I I #
coedge $-1 $428 $307 $310 $442 reversed $300 $-1 #
coedge $-1 $307 $428 $433 $528 forward $300 $-1 #
vertex $-1 $308 $532 #
straight-curve $-1 -55.116428113650926 -15.269738776839196 29.1517547034634 0 0 1 I I #
straight-curve $-1 -55.116428113650912 -15.269738776839196 1.5293927811540868 -0.51503806187062418 0 -0.85716730853699208 I I #
edge $-1 $526 7.9603428794381532 $312 15.269738776839196 $437 $533 forward 7 unknown #
point $-1 -55.116428113650926 -15.269738776839196 7.2909164534699809 #
point $-1 -51.654555552649903 -15.269738776839196 7.2909164534699809 #
edge $-1 $534 1 $534 0 $315 $-1 forward 7 unknown #
vertex $-1 $316 $535 #
ellipse-curve $-1 -51.856758645992812 -13.807859597358986 3.4915990797999803 -0.85716730853699208 0 0.51503806187062418 0.25751903093531209 0 0.42858365426849604 1 I I #
point $-1 -53.127972802215105 -13.807859597358986 4.838738271580528 #
edge $-1 $536 1 $536 0 $319 $-1 forward 7 unknown #
vertex $-1 $320 $537 #
ellipse-curve $-1 -51.856758645992812 -11.615040828138675 3.4915990797999803 -0.85716730853699208 0 0.51503806187062418 0.25751903093531209 0 0.42858365426849604 1 I I #
point $-1 -53.127972802215105 -11.615040828138675 4.838738271580528 #
edge $-1 $538 1 $538 0 $323 $-1 forward 7 unknown #
vertex $-1 $324 $539 #
ellipse-curve $-1 -51.856758645992812 -9.4222220589183614 3.4915990797999803 -0.85716730853699208 0 0.51503806187062418 0.25751903093531209 0 0.42858365426849604 1 I I #
point $-1 -53.127972802215105 -9.4222220589183614 4.838738271580528 #
plane-surface $-1 55.116428113650926 0 0 -1 0 0 0 0 1 forward_v I I I I #
coedge $-1 $332 $330 $334 $462 reversed $221 $-1 #
edge $-1 $345 -7.2909164534699809 $464 7.2909164534699809 $344 $540 forward 7 unknown #
vertex $-1 $462 $541 #
straight-curve $-1 -55.116428113650926 -27.892105196708876 0 0 0 -1 I I #
edge $-1 $460 -27.892105196708876 $464 27.892105196708876 $458 $542 forward 7 unknown #
straight-curve $-1 0 -27.892105196708876 -7.2909164534699809 -1 0 0 I I #
vertex $-1 $337 $543 #
straight-curve $-1 0 27.892105196708876 -7.2909164534699809 1 0 0 I I #
point $-1 55.116428113650926 27.892105196708876 -7.2909164534699809 #
point $-1 55.116428113650926 -27.892105196708876 -7.2909164534699809 #
straight-curve $-1 -55.116428113650926 0 7.2909164534699809 0 -1 0 I I #
point $-1 -55.116428113650926 27.892105196708876 7.2909164534699809 #
point $-1 -55.116428113650926 -27.892105196708876 7.2909164534699809 #
straight-curve $-1 55.116428113650926 -27.892105196708876 0 0 0 -1 I I #
straight-curve $-1 55.116428113650926 27.892105196708876 0 0 0 -1 I I #
loop $-1 $-1 $481 $354 #
plane-surface $-1 -55.116428113650926 0 0 1 0 0 0 0 -1 forward_v I I I I #
coedge $-1 $358 $357 $487 $544 forward $147 $-1 #
edge $-1 $362 21.047036728543496 $490 27.892105196708876 $361 $545 forward 7 unknown #
coedge $-1 $484 $481 $358 $478 reversed $473 $-1 #
edge $-1 $546 -27.892105196708876 $479 -21.047036728543496 $477 $547 forward 7 unknown #
vertex $-1 $482 $548 #
straight-curve $-1 0 -21.047036728543496 -7.2909164534699809 1 0 0 I I #
coedge $-1 $477 $364 $360 $482 forward $473 $-1 #
edge $-1 $366 1.3954582267349904 $479 4.3954582267349904 $481 $549 forward 7 unknown #
point $-1 55.116428113650926 -21.047036728543496 -7.2909164534699809 #
coedge $-1 $364 $477 $368 $488 reversed $473 $-1 #
straight-curve $-1 -55.116428113650926 -12.234785481313093 -4.2909164534699809 0 1 0 I I #
point $-1 -55.116428113650926 -21.047036728543496 -4.2909164534699809 #
coedge $-1 $369 $368 $475 $544 reversed $355 $-1 #
edge $-1 $370 4.2909164534699809 $546 7.2909164534699809 $484 $550 forward 7 unknown #
point $-1 -55.116428113650926 -27.892105196708876 -4.2909164534699809 #
vertex $-1 $372 $551 #
straight-curve $-1 55.116428113650926 -27.892105196708876 0 0 0 -1 I I #
plane-surface $-1 55.116428113650926 0 0 -1 0 0 0 0 1 forward_v I I I I #
coedge $-1 $378 $384 $379 $495 forward $256 $-1 #
coedge $-1 $380 $379 $552 $553 reversed $155 $-1 #
edge $-1 $554 -7.2909164534699809 $390 -3.6683542899407175 $379 $555 forward 7 unknown #
coedge $-1 $552 $382 $392 $505 forward $376 $-1 #
coedge $-1 $382 $552 $384 $500 forward $376 $-1 #
vertex $-1 $505 $556 #
straight-curve $-1 0 18.728486579964944 7.2909164534699809 1 0 0 I I #
edge $-1 $554 -27.892105196708876 $386 -18.728486579964944 $384 $557 forward 7 unknown #
point $-1 -55.116428113650926 18.728486579964944 3.6683542899407175 #
point $-1 -55.116428113650926 18.728486579964944 7.2909164534699809 #
straight-curve $-1 -55.116428113650926 11.655147944168455 3.6683542899407175 0 -1 0 I I #
point $-1 -55.116428113650926 27.892105196708876 3.6683542899407175 #
edge $-1 $498 18.728486579964944 $506 27.892105196708876 $392 $558 forward 7 unknown #
vertex $-1 $505 $559 #
straight-curve $-1 55.116428113650926 27.892105196708876 0 0 0 -1 I I #
straight-curve $-1 55.116428113650926 18.728486579964944 2.7398176858526746 0 0 -1 I I #
coedge $-1 $408 $407 $400 $510 forward $397 $-1 #
edge $-1 $511 69.104838592344194 $514 74.86636226466004 $509 $560 forward 7 unknown #
vertex $-1 $412 $561 #
straight-curve $-1 46.415156086289883 -15.269738776839196 7.2909164534699755 1 0 0 I I #
edge $-1 $514 -9.4622183627698586 $409 -2.1528224653688159 $408 $562 forward 7 unknown #
vertex $-1 $513 $563 #
straight-curve $-1 -1.6576885121217657 -15.269738776839196 96.017393465855633 -0.51503806187062418 0 0.85716730853699208 I I #
point $-1 51.654555552649946 -15.269738776839196 7.2909164534699755 #
point $-1 55.116428113650926 -7.9603428794381532 1.5293927811541295 #
straight-curve $-1 55.116428113650926 0 7.2909164534699809 0 1 0 I I #
vertex $-1 $415 $564 #
point $-1 52.114277676928126 -13.807859597358986 3.0630154255314732 #
vertex $-1 $419 $565 #
point $-1 52.114277676928126 -11.615040828138675 3.0630154255314732 #
vertex $-1 $423 $566 #
point $-1 52.114277676928126 -9.4222220589183614 3.0630154255314732 #
edge $-1 $526 21.860838249993421 $529 27.622361922309338 $428 $567 forward 7 unknown #
vertex $-1 $442 $568 #
straight-curve $-1 -74.802214399176222 -7.9603428794381532 7.2909164534699826 -1 0 0 I I #
edge $-1 $529 2.1528224653688159 $439 9.4622183627698586 $438 $569 forward 7 unknown #
vertex $-1 $528 $570 #
straight-curve $-1 -55.116428113650912 -7.9603428794381532 1.5293927811540868 0.51503806187062418 0 0.85716730853699208 I I #
point $-1 -51.654555552649903 -7.9603428794381532 7.2909164534699809 #
point $-1 -55.116428113650926 -15.269738776839196 1.5293927811540631 #
straight-curve $-1 -55.116428113650926 0 7.2909164534699809 0 -1 0 I I #
vertex $-1 $445 $571 #
point $-1 -51.599239615057499 -13.807859597358986 3.9201827340684763 #
vertex $-1 $449 $572 #
point $-1 -51.599239615057499 -11.615040828138675 3.9201827340684763 #
vertex $-1 $453 $573 #
point $-1 -51.599239615057499 -9.4222220589183614 3.9201827340684763 #
straight-curve $-1 -55.116428113650926 27.892105196708876 0 0 0 -1 I I #
point $-1 -55.116428113650926 -27.892105196708876 -7.2909164534699809 #
straight-curve $-1 -55.116428113650926 0 -7.2909164534699809 0 1 0 I I #
point $-1 -55.116428113650926 27.892105196708876 -7.2909164534699809 #
edge $-1 $490 -55.116428113650926 $546 55.116428113650926 $487 $574 forward 7 unknown #
straight-curve $-1 55.116428113650926 0 -7.2909164534699809 0 -1 0 I I #
vertex $-1 $478 $575 #
straight-curve $-1 -55.116428113650926 0 -7.2909164534699809 0 1 0 I I #
point $-1 -55.116428113650926 -21.047036728543496 -7.2909164534699809 #
straight-curve $-1 -55.116428113650926 -21.047036728543496 -2.8954582267349904 0 0 -1 I I #
straight-curve $-1 -55.116428113650926 -27.892105196708876 0 0 0 -1 I I #
point $-1 55.116428113650926 -27.892105196708876 -7.2909164534699809 #
coedge $-1 $497 $496 $494 $553 forward $376 $-1 #
edge $-1 $506 -55.116428113650926 $554 55.116428113650926 $494 $576 forward 7 unknown #
vertex $-1 $553 $577 #
straight-curve $-1 -55.116428113650926 27.892105196708876 0 0 0 -1 I I #
point $-1 55.116428113650926 18.728486579964944 7.2909164534699809 #
straight-curve $-1 -55.116428113650926 0 7.2909164534699809 0 -1 0 I I #
straight-curve $-1 55.116428113650926 0 7.2909164534699809 0 1 0 I I #
point $-1 55.116428113650926 27.892105196708876 7.2909164534699809 #
straight-curve $-1 55.116428113650926 -15.269738776839196 76.39575504581417 0 0 -1 I I #
point $-1 55.116428113650926 -15.269738776839196 7.2909164534699809 #
straight-curve $-1 55.116428113650926 -5.8075204140693373 1.5293927811541366 0 1 0 I I #
point $-1 55.116428113650926 -15.269738776839196 1.5293927811541295 #
point $-1 51.428174991724319 -13.807859597358986 3.2340800488646573 #
point $-1 51.428174991724319 -11.615040828138675 3.2340800488646573 #
point $-1 51.428174991724319 -9.4222220589183614 3.2340800488646573 #
straight-curve $-1 -55.116428113650926 -7.9603428794381532 29.1517547034634 0 0 -1 I I #
point $-1 -55.116428113650926 -7.9603428794381532 7.2909164534699809 #
straight-curve $-1 -55.116428113650926 -5.8075204140693373 1.5293927811540673 0 -1 0 I I #
point $-1 -55.116428113650926 -7.9603428794381532 1.5293927811540631 #
point $-1 -51.428174991724319 -13.807859597358986 3.2340800488646679 #
point $-1 -51.428174991724319 -11.615040828138675 3.2340800488646679 #
point $-1 -51.428174991724319 -9.4222220589183614 3.2340800488646679 #
straight-curve $-1 0 -27.892105196708876 -7.2909164534699809 -1 0 0 I I #
point $-1 -55.116428113650926 -27.892105196708876 -7.2909164534699809 #
straight-curve $-1 0 27.892105196708876 7.2909164534699809 -1 0 0 I I #
point $-1 -55.116428113650926 27.892105196708876 7.2909164534699809 #
End-of-ACIS-data 