500 0 15 0           
7 Unknown 11 ACIS 5.0 NT 24 Fri Mar 26 17:12:31 1999 
-1 9.9999999999999995e-007 1e-010 
body $-1 $15 $-1 $16 #
body $-1 $17 $-1 $18 #
body $-1 $19 $-1 $20 #
body $-1 $21 $-1 $22 #
body $-1 $23 $-1 $24 #
body $-1 $25 $-1 $26 #
body $-1 $27 $-1 $28 #
body $-1 $29 $-1 $30 #
body $-1 $31 $-1 $32 #
body $-1 $33 $-1 $34 #
body $-1 $35 $-1 $36 #
body $-1 $37 $-1 $38 #
body $-1 $39 $-1 $40 #
body $-1 $41 $-1 $42 #
body $-1 $43 $-1 $44 #
lump $-1 $-1 $45 $0 #
transform $-1 1 0 0 0 1 0 0 0 1 45.007477034821619 21.583040502443286 8.2392583615501049 1 rotate no_reflect no_shear #
lump $-1 $-1 $46 $1 #
transform $-1 1 0 0 0 1 0 0 0 1 45.007477034821619 21.583040502443286 8.2392583615501049 1 rotate no_reflect no_shear #
lump $-1 $-1 $47 $2 #
transform $-1 1 0 0 0 1 0 0 0 1 45.007477034821619 21.583040502443286 8.2392583615501049 1 rotate no_reflect no_shear #
lump $-1 $-1 $48 $3 #
transform $-1 1 0 0 0 1 0 0 0 1 45.007477034821619 21.583040502443286 8.2392583615501049 1 rotate no_reflect no_shear #
lump $-1 $-1 $49 $4 #
transform $-1 1 0 0 0 1 0 0 0 1 45.007477034821619 21.583040502443286 8.2392583615501049 1 rotate no_reflect no_shear #
lump $-1 $-1 $50 $5 #
transform $-1 1 0 0 0 1 0 0 0 1 45.007477034821619 21.583040502443286 8.2392583615501049 1 rotate no_reflect no_shear #
lump $-1 $-1 $51 $6 #
transform $-1 1 0 0 0 1 0 0 0 1 45.007477034821619 21.583040502443286 8.2392583615501049 1 rotate no_reflect no_shear #
lump $-1 $-1 $52 $7 #
transform $-1 1 0 0 0 1 0 0 0 1 45.007477034821619 21.583040502443286 8.2392583615501049 1 rotate no_reflect no_shear #
lump $-1 $-1 $53 $8 #
transform $-1 1 0 0 0 1 0 0 0 1 45.007477034821619 21.583040502443286 8.2392583615501049 1 rotate no_reflect no_shear #
lump $-1 $-1 $54 $9 #
transform $-1 1 0 0 0 1 0 0 0 1 45.007477034821619 21.583040502443286 8.2392583615501049 1 rotate no_reflect no_shear #
lump $-1 $-1 $55 $10 #
transform $-1 1 0 0 0 1 0 0 0 1 45.007477034821619 21.583040502443286 8.2392583615501049 1 rotate no_reflect no_shear #
lump $-1 $-1 $56 $11 #
transform $-1 1 0 0 0 1 0 0 0 1 45.007477034821619 21.583040502443286 8.2392583615501049 1 rotate no_reflect no_shear #
lump $-1 $-1 $57 $12 #
transform $-1 1 0 0 0 1 0 0 0 1 45.007477034821619 21.583040502443286 8.2392583615501049 1 rotate no_reflect no_shear #
lump $-1 $-1 $58 $13 #
transform $-1 1 0 0 0 1 0 0 0 1 45.007477034821619 21.583040502443286 8.2392583615501049 1 rotate no_reflect no_shear #
lump $-1 $-1 $59 $14 #
transform $-1 1 0 0 0 1 0 0 0 1 45.007477034821619 21.583040502443286 8.2392583615501049 1 rotate no_reflect no_shear #
shell $-1 $-1 $-1 $60 $-1 $15 #
shell $-1 $-1 $-1 $61 $-1 $17 #
shell $-1 $-1 $-1 $62 $-1 $19 #
shell $-1 $-1 $-1 $63 $-1 $21 #
shell $-1 $-1 $-1 $64 $-1 $23 #
shell $-1 $-1 $-1 $65 $-1 $25 #
shell $-1 $-1 $-1 $66 $-1 $27 #
shell $-1 $-1 $-1 $67 $-1 $29 #
shell $-1 $-1 $-1 $68 $-1 $31 #
shell $-1 $-1 $-1 $69 $-1 $33 #
shell $-1 $-1 $-1 $70 $-1 $35 #
shell $-1 $-1 $-1 $71 $-1 $37 #
shell $-1 $-1 $-1 $72 $-1 $39 #
shell $-1 $-1 $-1 $73 $-1 $41 #
shell $-1 $-1 $-1 $74 $-1 $43 #
face $-1 $75 $76 $45 $-1 $77 forward single #
face $-1 $78 $79 $46 $-1 $80 forward single #
face $-1 $81 $82 $47 $-1 $83 forward single #
face $-1 $84 $85 $48 $-1 $86 reversed single #
face $-1 $87 $88 $49 $-1 $89 forward single #
face $-1 $90 $91 $50 $-1 $92 forward single #
face $-1 $93 $94 $51 $-1 $95 reversed single #
face $-1 $96 $97 $52 $-1 $98 forward single #
face $-1 $99 $100 $53 $-1 $101 forward single #
face $-1 $102 $103 $54 $-1 $104 reversed single #
face $-1 $105 $106 $55 $-1 $107 forward single #
face $-1 $108 $109 $56 $-1 $110 forward single #
face $-1 $111 $112 $57 $-1 $113 reversed single #
face $-1 $114 $115 $58 $-1 $116 forward single #
face $-1 $117 $118 $59 $-1 $119 forward single #
face $-1 $120 $121 $45 $-1 $122 reversed single #
loop $-1 $-1 $123 $60 #
plane-surface $-1 0 0 8.2392583615501049 0 0 1 1 0 0 forward_v I I I I #
face $-1 $124 $125 $46 $-1 $126 reversed single #
loop $-1 $-1 $127 $61 #
plane-surface $-1 0 -21.583040502443286 0 0 1 0 0 0 1 forward_v I I I I #
face $-1 $128 $129 $47 $-1 $130 reversed single #
loop $-1 $-1 $131 $62 #
plane-surface $-1 0 21.583040502443286 0 0 -1 0 0 0 -1 forward_v I I I I #
face $-1 $132 $133 $48 $-1 $134 reversed single #
loop $-1 $-1 $135 $63 #
plane-surface $-1 64.921643887712278 4.8234641007409014 126.84147747635043 0 -1 0 -0.80901700255871778 0 -0.5877852410284794 forward_v I I I I #
face $-1 $136 $137 $49 $-1 $138 forward single #
loop $-1 $139 $140 $64 #
cone-surface $-1 41.129465910075552 -0.26600742978056857 3.738348106954386 -0.80901700255871778 0 -0.5877852410284794 0.5877852410284794 0 -0.80901700255871778 1 I I 0 1 1 forward I I I I #
face $-1 $141 $142 $50 $-1 $143 forward single #
loop $-1 $144 $145 $65 #
cone-surface $-1 41.129465910075552 2.7876754885323116 3.738348106954386 -0.80901700255871778 0 -0.5877852410284794 0.5877852410284794 0 -0.80901700255871778 1 I I 0 1 1 forward I I I I #
face $-1 $146 $147 $51 $-1 $148 reversed single #
loop $-1 $-1 $149 $66 #
plane-surface $-1 -119.63325677715619 -11.92152627585314 52.679933597132184 0 1 0 -0.82903758062907751 0 0.55919289150049634 forward_v I I I I #
face $-1 $150 $151 $52 $-1 $152 forward single #
loop $-1 $153 $154 $67 #
cone-surface $-1 -42.224560958234605 -10.251173571943898 4.7556446024009285 0.82903758062907751 0 -0.55919289150049634 0.27959644575024817 0 0.41451879031453875 1 I I 0 1 0.5 forward I I I I #
face $-1 $155 $156 $53 $-1 $157 forward single #
loop $-1 $158 $159 $68 #
cone-surface $-1 -42.224560958234605 -7.7456445160800325 4.7556446024009285 0.82903758062907751 0 -0.55919289150049634 0.27959644575024817 0 0.41451879031453875 1 I I 0 1 0.5 forward I I I I #
face $-1 $160 $161 $54 $-1 $162 reversed single #
loop $-1 $-1 $163 $69 #
plane-surface $-1 -119.63325677715619 -2.9231172318411724 52.679933597132184 0 1 0 -0.82903758062907751 0 0.55919289150049634 forward_v I I I I #
face $-1 $164 $165 $55 $-1 $166 forward single #
loop $-1 $167 $168 $70 #
cone-surface $-1 -42.224560958234605 -1.2527645279319302 4.7556446024009285 0.82903758062907751 0 -0.55919289150049634 0.27959644575024817 0 0.41451879031453875 1 I I 0 1 0.5 forward I I I I #
face $-1 $169 $170 $56 $-1 $171 forward single #
loop $-1 $172 $173 $71 #
cone-surface $-1 -42.224560958234605 1.2527645279319337 4.7556446024009285 0.82903758062907751 0 -0.55919289150049634 0.27959644575024817 0 0.41451879031453875 1 I I 0 1 0.5 forward I I I I #
face $-1 $174 $175 $57 $-1 $176 reversed single #
loop $-1 $-1 $177 $72 #
plane-surface $-1 -119.63325677715619 6.0752918121707955 52.679933597132184 0 1 0 -0.82903758062907751 0 0.55919289150049634 forward_v I I I I #
face $-1 $178 $179 $58 $-1 $180 forward single #
loop $-1 $181 $182 $73 #
cone-surface $-1 -42.224560958234605 7.7456445160800378 4.7556446024009285 0.82903758062907751 0 -0.55919289150049634 0.27959644575024817 0 0.41451879031453875 1 I I 0 1 0.5 forward I I I I #
face $-1 $183 $184 $59 $-1 $185 forward single #
loop $-1 $186 $187 $74 #
cone-surface $-1 -42.224560958234605 10.251173571943902 4.7556446024009285 0.82903758062907751 0 -0.55919289150049634 0.27959644575024817 0 0.41451879031453875 1 I I 0 1 0.5 forward I I I I #
face $-1 $188 $189 $45 $-1 $190 reversed single #
loop $-1 $-1 $191 $75 #
plane-surface $-1 0 0 -8.2392583615501049 0 0 1 1 0 0 forward_v I I I I #
coedge $-1 $192 $193 $194 $195 forward $76 $-1 #
face $-1 $196 $197 $46 $-1 $198 reversed single #
loop $-1 $-1 $199 $78 #
plane-surface $-1 0 0 -8.2392583615501049 0 0 1 1 0 0 forward_v I I I I #
coedge $-1 $200 $201 $202 $203 forward $79 $-1 #
face $-1 $204 $205 $47 $-1 $206 forward single #
loop $-1 $-1 $207 $81 #
plane-surface $-1 -45.007477034821619 0 0 1 0 0 0 0 -1 forward_v I I I I #
coedge $-1 $208 $209 $210 $211 forward $82 $-1 #
face $-1 $212 $213 $48 $-1 $214 reversed single #
loop $-1 $-1 $215 $84 #
plane-surface $-1 -7.9019844391711445 1.2608340293758751 73.93201600235767 0.80901700255871778 0 0.5877852410284794 0.5877852410284794 0 -0.80901700255871778 forward_v I I I I #
coedge $-1 $216 $217 $218 $219 reversed $85 $-1 #
face $-1 $-1 $220 $49 $-1 $221 forward single #
loop $-1 $222 $223 $87 #
cone-surface $-1 39.437386615774685 -0.26600742978056857 2.5089805748823384 -0.80901700255871778 0 -0.5877852410284794 0.2938926205142397 0 -0.40450850127935889 1 I I -0.70710678118654746 0.70710678118654746 0.5 forward I I I I #
loop $-1 $-1 $224 $64 #
coedge $-1 $140 $140 $225 $226 reversed $88 $-1 #
face $-1 $-1 $227 $50 $-1 $228 forward single #
loop $-1 $229 $230 $90 #
cone-surface $-1 39.437386615774685 2.7876754885323116 2.5089805748823384 -0.80901700255871778 0 -0.5877852410284794 0.2938926205142397 0 -0.40450850127935889 1 I I -0.70710678118654746 0.70710678118654746 0.5 forward I I I I #
loop $-1 $-1 $231 $65 #
coedge $-1 $145 $145 $232 $233 reversed $91 $-1 #
face $-1 $234 $235 $51 $-1 $236 reversed single #
loop $-1 $-1 $237 $93 #
plane-surface $-1 -45.007477034821633 -8.9984090440119644 2.3442111526440144 -0.82903758062907751 0 0.55919289150049634 0.55919289150049634 0 0.82903758062907751 forward_v I I I I #
coedge $-1 $238 $239 $240 $241 reversed $94 $-1 #
face $-1 $-1 $242 $52 $-1 $243 forward single #
loop $-1 $244 $245 $96 #
cone-surface $-1 -41.22251519936701 -10.251173571943898 4.0797562248296781 0.82903758062907751 0 -0.55919289150049634 0.13979822287512408 0 0.20725939515726938 1 I I -0.70710678118654746 0.70710678118654746 0.25 forward I I I I #
loop $-1 $-1 $246 $67 #
coedge $-1 $154 $154 $247 $248 reversed $97 $-1 #
face $-1 $-1 $249 $53 $-1 $250 forward single #
loop $-1 $251 $252 $99 #
cone-surface $-1 -41.22251519936701 -7.7456445160800325 4.0797562248296781 0.82903758062907751 0 -0.55919289150049634 0.13979822287512408 0 0.20725939515726938 1 I I -0.70710678118654746 0.70710678118654746 0.25 forward I I I I #
loop $-1 $-1 $253 $68 #
coedge $-1 $159 $159 $254 $255 reversed $100 $-1 #
face $-1 $256 $257 $54 $-1 $258 reversed single #
loop $-1 $-1 $259 $102 #
plane-surface $-1 -45.007477034821633 3.5527136788005009e-015 2.3442111526440144 -0.82903758062907751 0 0.55919289150049634 0.55919289150049634 0 0.82903758062907751 forward_v I I I I #
coedge $-1 $260 $261 $262 $263 reversed $103 $-1 #
face $-1 $-1 $264 $55 $-1 $265 forward single #
loop $-1 $266 $267 $105 #
cone-surface $-1 -41.22251519936701 -1.2527645279319302 4.0797562248296781 0.82903758062907751 0 -0.55919289150049634 0.13979822287512408 0 0.20725939515726938 1 I I -0.70710678118654746 0.70710678118654746 0.25 forward I I I I #
loop $-1 $-1 $268 $70 #
coedge $-1 $168 $168 $269 $270 reversed $106 $-1 #
face $-1 $-1 $271 $56 $-1 $272 forward single #
loop $-1 $273 $274 $108 #
cone-surface $-1 -41.22251519936701 1.2527645279319337 4.0797562248296781 0.82903758062907751 0 -0.55919289150049634 0.13979822287512408 0 0.20725939515726938 1 I I -0.70710678118654746 0.70710678118654746 0.25 forward I I I I #
loop $-1 $-1 $275 $71 #
coedge $-1 $173 $173 $276 $277 reversed $109 $-1 #
face $-1 $278 $279 $57 $-1 $280 reversed single #
loop $-1 $-1 $281 $111 #
plane-surface $-1 -45.007477034821633 8.9984090440119715 2.3442111526440144 -0.82903758062907751 0 0.55919289150049634 0.55919289150049634 0 0.82903758062907751 forward_v I I I I #
coedge $-1 $282 $283 $284 $285 reversed $112 $-1 #
face $-1 $-1 $286 $58 $-1 $287 forward single #
loop $-1 $288 $289 $114 #
cone-surface $-1 -41.22251519936701 7.7456445160800378 4.0797562248296781 0.82903758062907751 0 -0.55919289150049634 0.13979822287512408 0 0.20725939515726938 1 I I -0.70710678118654746 0.70710678118654746 0.25 forward I I I I #
loop $-1 $-1 $290 $73 #
coedge $-1 $182 $182 $291 $292 reversed $115 $-1 #
face $-1 $-1 $293 $59 $-1 $294 forward single #
loop $-1 $295 $296 $117 #
cone-surface $-1 -41.22251519936701 10.251173571943902 4.0797562248296781 0.82903758062907751 0 -0.55919289150049634 0.13979822287512408 0 0.20725939515726938 1 I I -0.70710678118654746 0.70710678118654746 0.25 forward I I I I #
loop $-1 $-1 $297 $74 #
coedge $-1 $187 $187 $298 $299 reversed $118 $-1 #
face $-1 $300 $301 $45 $-1 $302 reversed single #
loop $-1 $-1 $303 $120 #
plane-surface $-1 0 -21.583040502443286 0 0 1 0 0 0 1 forward_v I I I I #
coedge $-1 $304 $305 $306 $307 forward $121 $-1 #
coedge $-1 $308 $123 $309 $310 forward $76 $-1 #
coedge $-1 $123 $308 $311 $312 forward $76 $-1 #
coedge $-1 $313 $314 $123 $195 reversed $315 $-1 #
edge $-1 $316 -21.583040502443286 $317 21.583040502443286 $194 $318 forward 7 unknown #
face $-1 $319 $320 $46 $-1 $321 forward single #
loop $-1 $-1 $322 $124 #
plane-surface $-1 45.007477034821619 0 0 -1 0 0 0 0 1 forward_v I I I I #
coedge $-1 $323 $324 $325 $326 forward $125 $-1 #
coedge $-1 $325 $127 $322 $327 reversed $79 $-1 #
coedge $-1 $127 $325 $328 $329 reversed $79 $-1 #
coedge $-1 $330 $331 $127 $203 reversed $320 $-1 #
edge $-1 $332 -45.007477034821619 $333 45.007477034821619 $202 $334 forward 7 unknown #
face $-1 $335 $336 $47 $-1 $337 reversed single #
loop $-1 $-1 $338 $128 #
plane-surface $-1 0 26.413797615738357 -5.2392583615501049 0 0 1 1 0 0 forward_v I I I I #
coedge $-1 $339 $340 $208 $341 forward $129 $-1 #
coedge $-1 $342 $131 $207 $341 reversed $82 $-1 #
coedge $-1 $131 $342 $343 $344 reversed $82 $-1 #
coedge $-1 $338 $345 $131 $211 reversed $205 $-1 #
edge $-1 $346 -45.007477034821619 $347 45.007477034821619 $210 $348 forward 7 unknown #
face $-1 $349 $350 $48 $-1 $351 forward single #
loop $-1 $-1 $352 $132 #
plane-surface $-1 64.921643887712278 -2.3017960419891512 126.84147747635043 0 1 0 0.80901700255871778 0 0.5877852410284794 forward_v I I I I #
coedge $-1 $353 $354 $355 $356 reversed $133 $-1 #
coedge $-1 $217 $135 $357 $358 reversed $85 $-1 #
coedge $-1 $135 $216 $353 $359 reversed $85 $-1 #
coedge $-1 $355 $360 $135 $219 forward $350 $-1 #
edge $-1 $361 -12.54665509096548 $362 -7.3657744275163637 $218 $363 forward 7 unknown #
loop $-1 $-1 $225 $136 #
plane-surface $-1 -7.9019844391711445 1.2608340293758751 73.93201600235767 0.80901700255871778 0 0.5877852410284794 0.5877852410284794 0 -0.80901700255871778 forward_v I I I I #
loop $-1 $-1 $364 $87 #
coedge $-1 $223 $223 $224 $365 reversed $137 $-1 #
coedge $-1 $224 $224 $223 $365 forward $139 $-1 #
coedge $-1 $225 $225 $140 $226 forward $220 $-1 #
edge $-1 $366 0 $366 6.2831853071796004 $225 $367 forward 7 unknown #
loop $-1 $-1 $232 $141 #
plane-surface $-1 -7.9019844391711445 1.2608340293758751 73.93201600235767 0.80901700255871778 0 0.5877852410284794 0.5877852410284794 0 -0.80901700255871778 forward_v I I I I #
loop $-1 $-1 $368 $90 #
coedge $-1 $230 $230 $231 $369 reversed $142 $-1 #
coedge $-1 $231 $231 $230 $369 forward $144 $-1 #
coedge $-1 $232 $232 $145 $233 forward $227 $-1 #
edge $-1 $370 0 $370 6.2831853071796004 $232 $371 forward 7 unknown #
face $-1 $372 $373 $51 $-1 $374 reversed single #
loop $-1 $-1 $375 $146 #
plane-surface $-1 -119.63325677715619 -6.0752918121707884 52.679933597132184 0 -1 0 0.82903758062907751 0 -0.55919289150049634 forward_v I I I I #
coedge $-1 $376 $377 $378 $379 reversed $147 $-1 #
coedge $-1 $239 $149 $380 $381 reversed $94 $-1 #
coedge $-1 $149 $238 $376 $382 reversed $94 $-1 #
coedge $-1 $378 $383 $149 $241 forward $384 $-1 #
edge $-1 $385 14.809151353756477 $386 18.785410779509817 $240 $387 forward 7 unknown #
loop $-1 $-1 $247 $150 #
plane-surface $-1 -45.007477034821633 -8.9984090440119644 2.3442111526440144 -0.82903758062907751 0 0.55919289150049634 0.55919289150049634 0 0.82903758062907751 forward_v I I I I #
loop $-1 $-1 $388 $96 #
coedge $-1 $245 $245 $246 $389 reversed $151 $-1 #
coedge $-1 $246 $246 $245 $389 forward $153 $-1 #
coedge $-1 $247 $247 $154 $248 forward $242 $-1 #
edge $-1 $390 0 $390 6.2831853071796004 $247 $391 forward 7 unknown #
loop $-1 $-1 $254 $155 #
plane-surface $-1 -45.007477034821633 -8.9984090440119644 2.3442111526440144 -0.82903758062907751 0 0.55919289150049634 0.55919289150049634 0 0.82903758062907751 forward_v I I I I #
loop $-1 $-1 $392 $99 #
coedge $-1 $252 $252 $253 $393 reversed $156 $-1 #
coedge $-1 $253 $253 $252 $393 forward $158 $-1 #
coedge $-1 $254 $254 $159 $255 forward $249 $-1 #
edge $-1 $394 0 $394 6.2831853071796004 $254 $395 forward 7 unknown #
face $-1 $396 $397 $54 $-1 $398 forward single #
loop $-1 $-1 $399 $160 #
plane-surface $-1 -119.63325677715619 2.9231172318411796 52.679933597132184 0 -1 0 0.82903758062907751 0 -0.55919289150049634 forward_v I I I I #
coedge $-1 $400 $401 $402 $403 reversed $161 $-1 #
coedge $-1 $261 $163 $404 $405 reversed $103 $-1 #
coedge $-1 $163 $260 $400 $406 reversed $103 $-1 #
coedge $-1 $402 $407 $163 $263 forward $397 $-1 #
edge $-1 $408 14.809151353756477 $409 18.785410779509817 $262 $410 forward 7 unknown #
loop $-1 $-1 $269 $164 #
plane-surface $-1 -45.007477034821633 3.5527136788005009e-015 2.3442111526440144 -0.82903758062907751 0 0.55919289150049634 0.55919289150049634 0 0.82903758062907751 forward_v I I I I #
loop $-1 $-1 $411 $105 #
coedge $-1 $267 $267 $268 $412 reversed $165 $-1 #
coedge $-1 $268 $268 $267 $412 forward $167 $-1 #
coedge $-1 $269 $269 $168 $270 forward $264 $-1 #
edge $-1 $413 0 $413 6.2831853071796004 $269 $414 forward 7 unknown #
loop $-1 $-1 $276 $169 #
plane-surface $-1 -45.007477034821633 3.5527136788005009e-015 2.3442111526440144 -0.82903758062907751 0 0.55919289150049634 0.55919289150049634 0 0.82903758062907751 forward_v I I I I #
loop $-1 $-1 $415 $108 #
coedge $-1 $274 $274 $275 $416 reversed $170 $-1 #
coedge $-1 $275 $275 $274 $416 forward $172 $-1 #
coedge $-1 $276 $276 $173 $277 forward $271 $-1 #
edge $-1 $417 0 $417 6.2831853071796004 $276 $418 forward 7 unknown #
face $-1 $419 $420 $57 $-1 $421 forward single #
loop $-1 $-1 $422 $174 #
plane-surface $-1 -119.63325677715619 11.921526275853147 52.679933597132184 0 -1 0 0.82903758062907751 0 -0.55919289150049634 forward_v I I I I #
coedge $-1 $423 $424 $425 $426 reversed $175 $-1 #
coedge $-1 $283 $177 $427 $428 reversed $112 $-1 #
coedge $-1 $177 $282 $423 $429 reversed $112 $-1 #
coedge $-1 $425 $430 $177 $285 forward $420 $-1 #
edge $-1 $431 14.809151353756477 $432 18.785410779509817 $284 $433 forward 7 unknown #
loop $-1 $-1 $291 $178 #
plane-surface $-1 -45.007477034821633 8.9984090440119715 2.3442111526440144 -0.82903758062907751 0 0.55919289150049634 0.55919289150049634 0 0.82903758062907751 forward_v I I I I #
loop $-1 $-1 $434 $114 #
coedge $-1 $289 $289 $290 $435 reversed $179 $-1 #
coedge $-1 $290 $290 $289 $435 forward $181 $-1 #
coedge $-1 $291 $291 $182 $292 forward $286 $-1 #
edge $-1 $436 0 $436 6.2831853071796004 $291 $437 forward 7 unknown #
loop $-1 $-1 $298 $183 #
plane-surface $-1 -45.007477034821633 8.9984090440119715 2.3442111526440144 -0.82903758062907751 0 0.55919289150049634 0.55919289150049634 0 0.82903758062907751 forward_v I I I I #
loop $-1 $-1 $438 $117 #
coedge $-1 $296 $296 $297 $439 reversed $184 $-1 #
coedge $-1 $297 $297 $296 $439 forward $186 $-1 #
coedge $-1 $298 $298 $187 $299 forward $293 $-1 #
edge $-1 $440 0 $440 6.2831853071796004 $298 $441 forward 7 unknown #
face $-1 $442 $443 $45 $-1 $444 reversed single #
loop $-1 $-1 $445 $188 #
plane-surface $-1 -45.007477034821619 0 0 1 0 0 0 0 -1 forward_v I I I I #
coedge $-1 $446 $311 $447 $448 forward $189 $-1 #
coedge $-1 $449 $191 $446 $450 forward $121 $-1 #
coedge $-1 $191 $449 $451 $452 forward $121 $-1 #
coedge $-1 $314 $313 $191 $307 reversed $315 $-1 #
edge $-1 $453 -21.583040502443286 $454 21.583040502443286 $306 $455 forward 7 unknown #
coedge $-1 $193 $192 $456 $457 forward $76 $-1 #
coedge $-1 $458 $459 $192 $310 reversed $443 $-1 #
edge $-1 $317 -45.007477034821619 $460 45.007477034821619 $309 $461 forward 7 unknown #
coedge $-1 $303 $462 $193 $312 reversed $189 $-1 #
edge $-1 $463 -45.007477034821619 $316 45.007477034821619 $311 $464 forward 7 unknown #
coedge $-1 $306 $194 $462 $465 forward $315 $-1 #
coedge $-1 $194 $306 $458 $466 reversed $315 $-1 #
loop $-1 $-1 $313 $442 #
vertex $-1 $195 $467 #
vertex $-1 $195 $468 #
straight-curve $-1 45.007477034821619 0 8.2392583615501049 0 1 0 I I #
face $-1 $469 $470 $46 $-1 $471 reversed single #
loop $-1 $-1 $331 $196 #
plane-surface $-1 0 -26.413797615738357 -5.2392583615501049 0 0 1 1 0 0 forward_v I I I I #
coedge $-1 $472 $473 $200 $327 forward $197 $-1 #
coedge $-1 $474 $199 $473 $475 forward $125 $-1 #
coedge $-1 $199 $474 $476 $477 forward $125 $-1 #
coedge $-1 $201 $200 $199 $326 reversed $79 $-1 #
edge $-1 $478 -45.007477034821619 $479 45.007477034821619 $199 $480 forward 7 unknown #
edge $-1 $479 -8.2392583615501049 $333 -5.2392583615501049 $322 $481 forward 7 unknown #
coedge $-1 $476 $482 $201 $329 forward $483 $-1 #
edge $-1 $332 5.2392583615501049 $478 8.2392583615501049 $328 $484 forward 7 unknown #
coedge $-1 $485 $202 $482 $486 forward $320 $-1 #
coedge $-1 $202 $485 $472 $487 forward $320 $-1 #
vertex $-1 $329 $488 #
vertex $-1 $487 $489 #
straight-curve $-1 0 -21.583040502443286 -5.2392583615501049 1 0 0 I I #
face $-1 $490 $491 $47 $-1 $492 reversed single #
loop $-1 $-1 $493 $204 #
plane-surface $-1 0 31.244554729033428 -6.7392583615501049 0 -1 0 0 0 -1 forward_v I I I I #
coedge $-1 $494 $210 $495 $496 forward $205 $-1 #
coedge $-1 $497 $207 $345 $498 reversed $129 $-1 #
coedge $-1 $207 $497 $499 $500 reversed $129 $-1 #
edge $-1 $501 -8.2392583615501049 $347 -5.2392583615501049 $207 $502 forward 7 unknown #
coedge $-1 $209 $208 $503 $504 reversed $82 $-1 #
coedge $-1 $505 $495 $209 $344 forward $506 $-1 #
edge $-1 $346 5.2392583615501049 $507 8.2392583615501049 $343 $508 forward 7 unknown #
coedge $-1 $210 $494 $339 $498 forward $205 $-1 #
vertex $-1 $344 $509 #
vertex $-1 $498 $510 #
straight-curve $-1 0 21.583040502443286 -5.2392583615501049 -1 0 0 I I #
face $-1 $-1 $511 $48 $-1 $512 reversed single #
loop $-1 $-1 $218 $212 #
plane-surface $-1 0 0 8.2392583615501049 0 0 1 1 0 0 forward_v I I I I #
coedge $-1 $513 $514 $515 $516 reversed $213 $-1 #
coedge $-1 $517 $215 $217 $359 forward $133 $-1 #
coedge $-1 $215 $517 $513 $518 forward $133 $-1 #
coedge $-1 $515 $218 $215 $356 forward $350 $-1 #
edge $-1 $362 -4.1930470860529638 $519 2.9322130566770888 $355 $520 forward 7 unknown #
coedge $-1 $521 $522 $216 $358 forward $511 $-1 #
edge $-1 $523 -62.312351062700984 $361 -55.18148037662511 $357 $524 forward 7 unknown #
edge $-1 $362 81.200713252055095 $523 90.014954069643252 $217 $525 forward 7 unknown #
coedge $-1 $218 $515 $521 $526 forward $350 $-1 #
vertex $-1 $358 $527 #
vertex $-1 $219 $528 #
straight-curve $-1 32.460821943856139 4.8234641007409014 8.2392583615501067 -1 0 0 I I #
coedge $-1 $364 $364 $-1 $529 reversed $222 $-1 #
edge $-1 $530 0 $530 6.2831853071796004 $223 $531 forward 7 unknown #
vertex $-1 $226 $532 #
ellipse-curve $-1 42.417036703097047 -0.26600742978056857 4.6738230185121798 0.80901700255871778 0 0.5877852410284794 0.5877852410284794 0 -0.80901700255871778 1 I I #
coedge $-1 $368 $368 $-1 $533 reversed $229 $-1 #
edge $-1 $534 0 $534 6.2831853071796004 $230 $535 forward 7 unknown #
vertex $-1 $233 $536 #
ellipse-curve $-1 42.417036703097047 2.7876754885323116 4.6738230185121798 0.80901700255871778 0 0.5877852410284794 0.5877852410284794 0 -0.80901700255871778 1 I I #
face $-1 $-1 $384 $51 $-1 $537 forward single #
loop $-1 $-1 $538 $234 #
plane-surface $-1 -45.007477034821619 0 0 1 0 0 0 0 -1 forward_v I I I I #
coedge $-1 $539 $540 $541 $542 reversed $235 $-1 #
coedge $-1 $543 $237 $239 $382 forward $147 $-1 #
coedge $-1 $237 $543 $539 $544 forward $147 $-1 #
coedge $-1 $541 $240 $237 $379 forward $384 $-1 #
edge $-1 $386 -7.4223217538471573 $545 -1.5760872901648062 $378 $546 forward 7 unknown #
coedge $-1 $547 $548 $238 $381 forward $373 $-1 #
edge $-1 $549 -23.995755645922056 $385 -18.100708437015989 $380 $550 forward 7 unknown #
edge $-1 $386 -7.1107116814088229 $549 -2.5250441212413278e-014 $239 $551 forward 7 unknown #
coedge $-1 $240 $541 $547 $552 forward $384 $-1 #
loop $-1 $-1 $541 $372 #
vertex $-1 $381 $553 #
vertex $-1 $241 $554 #
straight-curve $-1 -59.816628388578096 -11.92152627585314 8.2392583615501067 1 0 0 I I #
coedge $-1 $388 $388 $-1 $555 reversed $244 $-1 #
edge $-1 $556 0 $556 6.2831853071796004 $245 $557 forward 7 unknown #
vertex $-1 $248 $558 #
ellipse-curve $-1 -43.019347321944949 -10.251173571943898 5.2917347570970659 -0.82903758062907751 0 0.55919289150049634 0.27959644575024817 0 0.41451879031453875 1 I I #
coedge $-1 $392 $392 $-1 $559 reversed $251 $-1 #
edge $-1 $560 0 $560 6.2831853071796004 $252 $561 forward 7 unknown #
vertex $-1 $255 $562 #
ellipse-curve $-1 -43.019347321944949 -7.7456445160800325 5.2917347570970659 -0.82903758062907751 0 0.55919289150049634 0.27959644575024817 0 0.41451879031453875 1 I I #
face $-1 $-1 $563 $54 $-1 $564 reversed single #
loop $-1 $-1 $262 $256 #
plane-surface $-1 0 0 8.2392583615501049 0 0 1 1 0 0 forward_v I I I I #
coedge $-1 $565 $566 $567 $568 reversed $257 $-1 #
coedge $-1 $569 $259 $261 $406 forward $161 $-1 #
coedge $-1 $259 $569 $565 $570 forward $161 $-1 #
coedge $-1 $567 $262 $259 $403 forward $397 $-1 #
edge $-1 $409 -2.9231172318411742 $571 2.9231172318411778 $402 $572 forward 7 unknown #
coedge $-1 $573 $574 $260 $405 forward $563 $-1 #
edge $-1 $575 -23.995755645922056 $408 -18.100708437015989 $404 $576 forward 7 unknown #
edge $-1 $409 -7.1107116814088229 $575 -2.5250441212413278e-014 $261 $577 forward 7 unknown #
coedge $-1 $262 $567 $573 $578 forward $397 $-1 #
vertex $-1 $263 $579 #
vertex $-1 $263 $580 #
straight-curve $-1 -59.816628388578096 -2.9231172318411724 8.2392583615501067 1 0 0 I I #
coedge $-1 $411 $411 $-1 $581 reversed $266 $-1 #
edge $-1 $582 0 $582 6.2831853071796004 $267 $583 forward 7 unknown #
vertex $-1 $270 $584 #
ellipse-curve $-1 -43.019347321944949 -1.2527645279319302 5.2917347570970659 -0.82903758062907751 0 0.55919289150049634 0.27959644575024817 0 0.41451879031453875 1 I I #
coedge $-1 $415 $415 $-1 $585 reversed $273 $-1 #
edge $-1 $586 0 $586 6.2831853071796004 $274 $587 forward 7 unknown #
vertex $-1 $277 $588 #
ellipse-curve $-1 -43.019347321944949 1.2527645279319337 5.2917347570970659 -0.82903758062907751 0 0.55919289150049634 0.27959644575024817 0 0.41451879031453875 1 I I #
face $-1 $-1 $589 $57 $-1 $590 reversed single #
loop $-1 $-1 $284 $278 #
plane-surface $-1 0 0 8.2392583615501049 0 0 1 1 0 0 forward_v I I I I #
coedge $-1 $591 $592 $593 $594 reversed $279 $-1 #
coedge $-1 $595 $281 $283 $429 forward $175 $-1 #
coedge $-1 $281 $595 $591 $596 forward $175 $-1 #
coedge $-1 $593 $284 $281 $426 forward $420 $-1 #
edge $-1 $432 1.5760872901648098 $597 7.4223217538471609 $425 $598 forward 7 unknown #
coedge $-1 $599 $600 $282 $428 forward $589 $-1 #
edge $-1 $601 -23.995755645922056 $431 -18.100708437015989 $427 $602 forward 7 unknown #
edge $-1 $432 -7.1107116814088229 $601 -2.5250441212413278e-014 $283 $603 forward 7 unknown #
coedge $-1 $284 $593 $599 $604 forward $420 $-1 #
vertex $-1 $285 $605 #
vertex $-1 $285 $606 #
straight-curve $-1 -59.816628388578096 6.0752918121707955 8.2392583615501067 1 0 0 I I #
coedge $-1 $434 $434 $-1 $607 reversed $288 $-1 #
edge $-1 $608 0 $608 6.2831853071796004 $289 $609 forward 7 unknown #
vertex $-1 $292 $610 #
ellipse-curve $-1 -43.019347321944949 7.7456445160800378 5.2917347570970659 -0.82903758062907751 0 0.55919289150049634 0.27959644575024817 0 0.41451879031453875 1 I I #
coedge $-1 $438 $438 $-1 $611 reversed $295 $-1 #
edge $-1 $612 0 $612 6.2831853071796004 $296 $613 forward 7 unknown #
vertex $-1 $299 $614 #
ellipse-curve $-1 -43.019347321944949 10.251173571943902 5.2917347570970659 -0.82903758062907751 0 0.55919289150049634 0.27959644575024817 0 0.41451879031453875 1 I I #
face $-1 $-1 $315 $45 $-1 $615 reversed single #
loop $-1 $-1 $458 $300 #
plane-surface $-1 0 21.583040502443286 0 0 -1 0 0 0 -1 forward_v I I I I #
coedge $-1 $616 $456 $459 $617 forward $301 $-1 #
coedge $-1 $462 $303 $304 $450 reversed $189 $-1 #
coedge $-1 $456 $616 $303 $448 reversed $301 $-1 #
edge $-1 $463 -8.2392583615501049 $618 8.2392583615501049 $447 $619 forward 7 unknown #
coedge $-1 $305 $304 $616 $620 forward $121 $-1 #
edge $-1 $454 -45.007477034821619 $618 45.007477034821619 $446 $621 forward 7 unknown #
coedge $-1 $459 $458 $305 $452 reversed $443 $-1 #
edge $-1 $622 -45.007477034821619 $453 45.007477034821619 $451 $623 forward 7 unknown #
vertex $-1 $307 $624 #
vertex $-1 $465 $625 #
straight-curve $-1 45.007477034821619 0 -8.2392583615501049 0 -1 0 I I #
coedge $-1 $445 $447 $308 $457 reversed $301 $-1 #
edge $-1 $460 -21.583040502443286 $463 21.583040502443286 $456 $626 forward 7 unknown #
coedge $-1 $451 $309 $314 $466 forward $443 $-1 #
coedge $-1 $309 $451 $445 $617 reversed $443 $-1 #
vertex $-1 $310 $627 #
straight-curve $-1 0 21.583040502443286 8.2392583615501049 -1 0 0 I I #
coedge $-1 $311 $446 $313 $465 reversed $189 $-1 #
vertex $-1 $457 $628 #
straight-curve $-1 0 -21.583040502443286 8.2392583615501049 1 0 0 I I #
edge $-1 $316 -8.2392583615501049 $454 8.2392583615501049 $313 $629 forward 7 unknown #
edge $-1 $317 -8.2392583615501049 $453 8.2392583615501049 $314 $630 forward 7 unknown #
point $-1 45.007477034821619 -21.583040502443286 8.2392583615501049 #
point $-1 45.007477034821619 21.583040502443286 8.2392583615501049 #
face $-1 $-1 $483 $46 $-1 $631 reversed single #
loop $-1 $-1 $632 $319 #
plane-surface $-1 0 -31.244554729033428 -6.7392583615501049 0 1 0 0 0 1 forward_v I I I I #
coedge $-1 $633 $322 $331 $487 reversed $197 $-1 #
coedge $-1 $322 $633 $323 $475 reversed $197 $-1 #
coedge $-1 $324 $323 $634 $635 forward $125 $-1 #
edge $-1 $479 21.583040502443286 $636 31.244554729033428 $473 $637 forward 7 unknown #
coedge $-1 $638 $328 $324 $477 reversed $483 $-1 #
edge $-1 $639 -31.244554729033428 $478 -21.583040502443286 $476 $640 forward 7 unknown #
vertex $-1 $329 $641 #
vertex $-1 $475 $642 #
straight-curve $-1 0 -21.583040502443286 -8.2392583615501049 1 0 0 I I #
straight-curve $-1 45.007477034821619 -21.583040502443286 0 0 0 1 I I #
coedge $-1 $328 $638 $330 $486 reversed $483 $-1 #
loop $-1 $-1 $328 $469 #
straight-curve $-1 -45.007477034821619 -21.583040502443286 0 0 0 -1 I I #
coedge $-1 $331 $330 $643 $644 forward $320 $-1 #
edge $-1 $332 -4.8307571132950713 $645 4.8307571132950713 $482 $646 forward 7 unknown #
edge $-1 $647 -4.8307571132950713 $333 4.8307571132950713 $472 $648 forward 7 unknown #
point $-1 -45.007477034821619 -21.583040502443286 -5.2392583615501049 #
point $-1 45.007477034821619 -21.583040502443286 -5.2392583615501049 #
face $-1 $-1 $506 $47 $-1 $649 reversed single #
loop $-1 $-1 $503 $335 #
plane-surface $-1 0 0 -8.2392583615501049 0 0 1 1 0 0 forward_v I I I I #
coedge $-1 $650 $651 $652 $653 forward $336 $-1 #
coedge $-1 $345 $338 $651 $654 forward $205 $-1 #
coedge $-1 $343 $652 $338 $496 reversed $506 $-1 #
edge $-1 $346 -4.8307571132950713 $655 4.8307571132950713 $495 $656 forward 7 unknown #
coedge $-1 $340 $339 $657 $658 forward $129 $-1 #
edge $-1 $659 -4.8307571132950713 $347 4.8307571132950713 $339 $660 forward 7 unknown #
coedge $-1 $661 $503 $340 $500 forward $491 $-1 #
edge $-1 $501 -4.8307571132950713 $662 4.8307571132950713 $340 $663 forward 7 unknown #
vertex $-1 $500 $664 #
straight-curve $-1 -45.007477034821619 21.583040502443286 0 0 0 1 I I #
coedge $-1 $499 $665 $342 $504 forward $491 $-1 #
edge $-1 $507 -45.007477034821619 $501 45.007477034821619 $503 $666 forward 7 unknown #
coedge $-1 $652 $343 $665 $667 reversed $506 $-1 #
loop $-1 $-1 $343 $490 #
vertex $-1 $344 $668 #
straight-curve $-1 45.007477034821619 21.583040502443286 0 0 0 -1 I I #
point $-1 45.007477034821619 21.583040502443286 -5.2392583615501049 #
point $-1 -45.007477034821619 21.583040502443286 -5.2392583615501049 #
loop $-1 $-1 $357 $349 #
plane-surface $-1 45.007477034821619 0 0 -1 0 0 0 0 1 forward_v I I I I #
coedge $-1 $514 $352 $354 $518 reversed $213 $-1 #
coedge $-1 $352 $513 $669 $670 reversed $213 $-1 #
coedge $-1 $360 $355 $352 $516 forward $350 $-1 #
edge $-1 $519 7.3657744275163637 $671 12.54665509096548 $515 $672 forward 7 unknown #
coedge $-1 $354 $353 $522 $673 reversed $133 $-1 #
edge $-1 $674 -90.014954069643252 $519 -81.200713252055095 $513 $675 forward 7 unknown #
vertex $-1 $356 $676 #
straight-curve $-1 39.826596371372496 0.63041701468793754 8.2392583615501138 0 -1 0 I I #
coedge $-1 $669 $357 $360 $526 reversed $511 $-1 #
coedge $-1 $357 $669 $517 $673 forward $511 $-1 #
vertex $-1 $358 $677 #
straight-curve $-1 45.007477034821619 4.8234641007409014 63.420738738175217 0 0 1 I I #
straight-curve $-1 -7.9019844391711445 4.8234641007409014 73.93201600235767 0.5877852410284794 0 -0.80901700255871778 I I #
edge $-1 $671 -2.3017960419891512 $361 4.8234641007409014 $521 $678 forward 7 unknown #
point $-1 45.007477034821619 4.8234641007409014 8.2392583615501049 #
point $-1 39.826596371372503 4.8234641007409014 8.2392583615500996 #
edge $-1 $679 1 $679 0 $364 $-1 forward 7 unknown #
vertex $-1 $365 $680 #
ellipse-curve $-1 39.841895117054044 -0.26600742978056857 2.802873195396578 0.80901700255871778 0 0.5877852410284794 0.5877852410284794 0 -0.80901700255871778 1 I I #
point $-1 43.004821944125545 -0.26600742978056857 3.8648060159534756 #
edge $-1 $681 1 $681 0 $368 $-1 forward 7 unknown #
vertex $-1 $369 $682 #
ellipse-curve $-1 39.841895117054044 2.7876754885323116 2.802873195396578 0.80901700255871778 0 0.5877852410284794 0.5877852410284794 0 -0.80901700255871778 1 I I #
point $-1 43.004821944125545 2.7876754885323116 3.8648060159534756 #
plane-surface $-1 0 0 8.2392583615501049 0 0 1 1 0 0 forward_v I I I I #
coedge $-1 $548 $547 $540 $683 forward $373 $-1 #
coedge $-1 $540 $375 $377 $544 reversed $235 $-1 #
coedge $-1 $375 $539 $538 $683 reversed $235 $-1 #
coedge $-1 $383 $378 $375 $542 forward $384 $-1 #
edge $-1 $545 -18.785410779509817 $684 -14.809151353756477 $541 $685 forward 7 unknown #
coedge $-1 $377 $376 $548 $686 reversed $147 $-1 #
edge $-1 $687 2.5250441212413278e-014 $545 7.1107116814088229 $539 $688 forward 7 unknown #
vertex $-1 $379 $689 #
straight-curve $-1 -41.031217609068278 -4.4992045220059822 8.2392583615501049 0 1 0 I I #
coedge $-1 $538 $380 $383 $552 reversed $373 $-1 #
coedge $-1 $380 $538 $543 $686 forward $373 $-1 #
vertex $-1 $381 $690 #
straight-curve $-1 -45.007477034821619 -11.92152627585314 26.339966798566092 0 0 1 I I #
straight-curve $-1 -45.007477034821633 -11.92152627585314 2.3442111526440144 -0.55919289150049634 0 -0.82903758062907751 I I #
edge $-1 $684 6.0752918121707884 $385 11.92152627585314 $547 $691 forward 7 unknown #
point $-1 -45.007477034821619 -11.92152627585314 8.2392583615501049 #
point $-1 -41.031217609068278 -11.92152627585314 8.2392583615501049 #
edge $-1 $692 1 $692 0 $388 $-1 forward 7 unknown #
vertex $-1 $389 $693 #
ellipse-curve $-1 -41.429774594524282 -10.251173571943898 4.2195544477048026 -0.82903758062907751 0 0.55919289150049634 0.27959644575024817 0 0.41451879031453875 1 I I #
point $-1 -42.739750876194691 -10.251173571943898 5.7062535474115936 #
edge $-1 $694 1 $694 0 $392 $-1 forward 7 unknown #
vertex $-1 $393 $695 #
ellipse-curve $-1 -41.429774594524282 -7.7456445160800325 4.2195544477048026 -0.82903758062907751 0 0.55919289150049634 0.27959644575024817 0 0.41451879031453875 1 I I #
point $-1 -42.739750876194691 -7.7456445160800325 5.7062535474115936 #
loop $-1 $-1 $404 $396 #
plane-surface $-1 -45.007477034821619 0 0 1 0 0 0 0 -1 forward_v I I I I #
coedge $-1 $566 $399 $401 $570 reversed $257 $-1 #
coedge $-1 $399 $565 $696 $697 reversed $257 $-1 #
coedge $-1 $407 $402 $399 $568 forward $397 $-1 #
edge $-1 $571 -18.785410779509817 $698 -14.809151353756477 $567 $699 forward 7 unknown #
coedge $-1 $401 $400 $574 $700 reversed $161 $-1 #
edge $-1 $701 2.5250441212413278e-014 $571 7.1107116814088229 $565 $702 forward 7 unknown #
vertex $-1 $403 $703 #
straight-curve $-1 -41.031217609068278 1.7763568394002505e-015 8.2392583615501049 0 1 0 I I #
coedge $-1 $696 $404 $407 $578 reversed $563 $-1 #
coedge $-1 $404 $696 $569 $700 forward $563 $-1 #
vertex $-1 $405 $704 #
straight-curve $-1 -45.007477034821619 -2.9231172318411724 26.339966798566092 0 0 1 I I #
straight-curve $-1 -45.007477034821633 -2.9231172318411724 2.3442111526440144 -0.55919289150049634 0 -0.82903758062907751 I I #
edge $-1 $698 -2.9231172318411796 $408 2.9231172318411724 $573 $705 forward 7 unknown #
point $-1 -45.007477034821619 -2.9231172318411724 8.2392583615501049 #
point $-1 -41.031217609068278 -2.9231172318411724 8.2392583615501049 #
edge $-1 $706 1 $706 0 $411 $-1 forward 7 unknown #
vertex $-1 $412 $707 #
ellipse-curve $-1 -41.429774594524282 -1.2527645279319302 4.2195544477048026 -0.82903758062907751 0 0.55919289150049634 0.27959644575024817 0 0.41451879031453875 1 I I #
point $-1 -42.739750876194691 -1.2527645279319302 5.7062535474115936 #
edge $-1 $708 1 $708 0 $415 $-1 forward 7 unknown #
vertex $-1 $416 $709 #
ellipse-curve $-1 -41.429774594524282 1.2527645279319337 4.2195544477048026 -0.82903758062907751 0 0.55919289150049634 0.27959644575024817 0 0.41451879031453875 1 I I #
point $-1 -42.739750876194691 1.2527645279319337 5.7062535474115936 #
loop $-1 $-1 $427 $419 #
plane-surface $-1 -45.007477034821619 0 0 1 0 0 0 0 -1 forward_v I I I I #
coedge $-1 $592 $422 $424 $596 reversed $279 $-1 #
coedge $-1 $422 $591 $710 $711 reversed $279 $-1 #
coedge $-1 $430 $425 $422 $594 forward $420 $-1 #
edge $-1 $597 -18.785410779509817 $712 -14.809151353756477 $593 $713 forward 7 unknown #
coedge $-1 $424 $423 $600 $714 reversed $175 $-1 #
edge $-1 $715 2.5250441212413278e-014 $597 7.1107116814088229 $591 $716 forward 7 unknown #
vertex $-1 $426 $717 #
straight-curve $-1 -41.031217609068278 4.4992045220059858 8.2392583615501049 0 1 0 I I #
coedge $-1 $710 $427 $430 $604 reversed $589 $-1 #
coedge $-1 $427 $710 $595 $714 forward $589 $-1 #
vertex $-1 $428 $718 #
straight-curve $-1 -45.007477034821619 6.0752918121707955 26.339966798566092 0 0 1 I I #
straight-curve $-1 -45.007477034821633 6.0752918121707955 2.3442111526440144 -0.55919289150049634 0 -0.82903758062907751 I I #
edge $-1 $712 -11.921526275853147 $431 -6.0752918121707955 $599 $719 forward 7 unknown #
point $-1 -45.007477034821619 6.0752918121707955 8.2392583615501049 #
point $-1 -41.031217609068278 6.0752918121707955 8.2392583615501049 #
edge $-1 $720 1 $720 0 $434 $-1 forward 7 unknown #
vertex $-1 $435 $721 #
ellipse-curve $-1 -41.429774594524282 7.7456445160800378 4.2195544477048026 -0.82903758062907751 0 0.55919289150049634 0.27959644575024817 0 0.41451879031453875 1 I I #
point $-1 -42.739750876194691 7.7456445160800378 5.7062535474115936 #
edge $-1 $722 1 $722 0 $438 $-1 forward 7 unknown #
vertex $-1 $439 $723 #
ellipse-curve $-1 -41.429774594524282 10.251173571943902 4.2195544477048026 -0.82903758062907751 0 0.55919289150049634 0.27959644575024817 0 0.41451879031453875 1 I I #
point $-1 -42.739750876194691 10.251173571943902 5.7062535474115936 #
plane-surface $-1 45.007477034821619 0 0 -1 0 0 0 0 1 forward_v I I I I #
coedge $-1 $447 $445 $449 $620 reversed $301 $-1 #
edge $-1 $460 -8.2392583615501049 $622 8.2392583615501049 $459 $724 forward 7 unknown #
vertex $-1 $620 $725 #
straight-curve $-1 -45.007477034821619 -21.583040502443286 0 0 0 -1 I I #
edge $-1 $618 -21.583040502443286 $622 21.583040502443286 $616 $726 forward 7 unknown #
straight-curve $-1 0 -21.583040502443286 -8.2392583615501049 -1 0 0 I I #
vertex $-1 $452 $727 #
straight-curve $-1 0 21.583040502443286 -8.2392583615501049 1 0 0 I I #
point $-1 45.007477034821619 21.583040502443286 -8.2392583615501049 #
point $-1 45.007477034821619 -21.583040502443286 -8.2392583615501049 #
straight-curve $-1 -45.007477034821619 0 8.2392583615501049 0 -1 0 I I #
point $-1 -45.007477034821619 21.583040502443286 8.2392583615501049 #
point $-1 -45.007477034821619 -21.583040502443286 8.2392583615501049 #
straight-curve $-1 45.007477034821619 -21.583040502443286 0 0 0 -1 I I #
straight-curve $-1 45.007477034821619 21.583040502443286 0 0 0 -1 I I #
plane-surface $-1 -45.007477034821619 0 0 1 0 0 0 0 -1 forward_v I I I I #
coedge $-1 $634 $643 $638 $728 forward $470 $-1 #
coedge $-1 $473 $472 $729 $730 forward $197 $-1 #
coedge $-1 $729 $632 $474 $635 reversed $470 $-1 #
edge $-1 $636 -45.007477034821619 $639 45.007477034821619 $634 $731 forward 7 unknown #
vertex $-1 $730 $732 #
straight-curve $-1 45.007477034821619 0 -8.2392583615501049 0 -1 0 I I #
coedge $-1 $482 $476 $632 $728 reversed $483 $-1 #
vertex $-1 $477 $733 #
straight-curve $-1 -45.007477034821619 0 -8.2392583615501049 0 1 0 I I #
point $-1 -45.007477034821619 -21.583040502443286 -8.2392583615501049 #
point $-1 45.007477034821619 -21.583040502443286 -8.2392583615501049 #
coedge $-1 $632 $729 $485 $644 reversed $470 $-1 #
edge $-1 $645 -45.007477034821619 $647 45.007477034821619 $643 $734 forward 7 unknown #
vertex $-1 $486 $735 #
straight-curve $-1 -45.007477034821619 -26.413797615738357 -5.2392583615501049 0 -1 0 I I #
vertex $-1 $487 $736 #
straight-curve $-1 45.007477034821619 -26.413797615738357 -5.2392583615501049 0 1 0 I I #
plane-surface $-1 45.007477034821619 0 0 -1 0 0 0 0 1 forward_v I I I I #
coedge $-1 $657 $493 $661 $737 reversed $336 $-1 #
coedge $-1 $493 $657 $494 $654 reversed $336 $-1 #
coedge $-1 $495 $505 $493 $653 reversed $506 $-1 #
edge $-1 $655 -1.5 $738 1.5 $652 $739 forward 7 unknown #
edge $-1 $655 -45.007477034821619 $659 45.007477034821619 $651 $740 forward 7 unknown #
vertex $-1 $496 $741 #
straight-curve $-1 45.007477034821619 26.413797615738357 -5.2392583615501049 0 1 0 I I #
coedge $-1 $651 $650 $497 $658 reversed $336 $-1 #
edge $-1 $659 -1.5 $662 1.5 $657 $742 forward 7 unknown #
vertex $-1 $654 $743 #
straight-curve $-1 -45.007477034821619 26.413797615738357 -5.2392583615501049 0 -1 0 I I #
coedge $-1 $665 $499 $650 $737 forward $491 $-1 #
vertex $-1 $737 $744 #
straight-curve $-1 -45.007477034821619 26.413797615738357 -8.2392583615501049 0 1 0 I I #
point $-1 -45.007477034821619 21.583040502443286 -8.2392583615501049 #
coedge $-1 $503 $661 $505 $667 forward $491 $-1 #
straight-curve $-1 0 21.583040502443286 -8.2392583615501049 -1 0 0 I I #
edge $-1 $738 -31.244554729033428 $507 -21.583040502443286 $505 $745 forward 7 unknown #
point $-1 45.007477034821619 21.583040502443286 -8.2392583615501049 #
coedge $-1 $522 $521 $514 $670 forward $511 $-1 #
edge $-1 $671 55.18148037662511 $674 62.312351062700984 $669 $746 forward 7 unknown #
vertex $-1 $526 $747 #
straight-curve $-1 32.460821943856139 -2.3017960419891512 8.2392583615501067 1 0 0 I I #
edge $-1 $674 -2.9322130566770888 $523 4.1930470860529638 $522 $748 forward 7 unknown #
vertex $-1 $673 $749 #
straight-curve $-1 -7.9019844391711445 -2.3017960419891512 73.93201600235767 -0.5877852410284794 0 0.80901700255871778 I I #
point $-1 39.826596371372503 -2.3017960419891512 8.2392583615500996 #
point $-1 45.007477034821619 4.8234641007409014 1.1083876754742334 #
straight-curve $-1 45.007477034821619 0 8.2392583615501049 0 1 0 I I #
vertex $-1 $529 $750 #
point $-1 40.429680358082521 -0.26600742978056857 1.9938561928378604 #
vertex $-1 $533 $751 #
point $-1 40.429680358082521 2.7876754885323116 1.9938561928378604 #
edge $-1 $684 18.100708437015989 $687 23.995755645922056 $538 $752 forward 7 unknown #
vertex $-1 $552 $753 #
straight-curve $-1 -59.816628388578096 -6.0752918121707884 8.2392583615501067 -1 0 0 I I #
edge $-1 $687 1.5760872901648062 $549 7.4223217538471573 $548 $754 forward 7 unknown #
vertex $-1 $686 $755 #
straight-curve $-1 -45.007477034821633 -6.0752918121707884 2.3442111526440144 0.55919289150049634 0 0.82903758062907751 I I #
point $-1 -41.031217609068278 -6.0752918121707884 8.2392583615501049 #
point $-1 -45.007477034821619 -11.92152627585314 2.3442111526440352 #
straight-curve $-1 -45.007477034821619 0 8.2392583615501049 0 -1 0 I I #
vertex $-1 $555 $756 #
point $-1 -41.150178148774032 -10.251173571943898 4.634073238019341 #
vertex $-1 $559 $757 #
point $-1 -41.150178148774032 -7.7456445160800325 4.634073238019341 #
coedge $-1 $574 $573 $566 $697 forward $563 $-1 #
edge $-1 $698 18.100708437015989 $701 23.995755645922056 $696 $758 forward 7 unknown #
vertex $-1 $578 $759 #
straight-curve $-1 -59.816628388578096 2.9231172318411796 8.2392583615501067 -1 0 0 I I #
edge $-1 $701 -2.9231172318411778 $575 2.9231172318411742 $574 $760 forward 7 unknown #
vertex $-1 $700 $761 #
straight-curve $-1 -45.007477034821633 2.9231172318411796 2.3442111526440144 0.55919289150049634 0 0.82903758062907751 I I #
point $-1 -41.031217609068278 2.9231172318411796 8.2392583615501049 #
point $-1 -45.007477034821619 -2.9231172318411724 2.3442111526440352 #
straight-curve $-1 -45.007477034821619 0 8.2392583615501049 0 -1 0 I I #
vertex $-1 $581 $762 #
point $-1 -41.150178148774032 -1.2527645279319302 4.634073238019341 #
vertex $-1 $585 $763 #
point $-1 -41.150178148774032 1.2527645279319337 4.634073238019341 #
coedge $-1 $600 $599 $592 $711 forward $589 $-1 #
edge $-1 $712 18.100708437015989 $715 23.995755645922056 $710 $764 forward 7 unknown #
vertex $-1 $604 $765 #
straight-curve $-1 -59.816628388578096 11.921526275853147 8.2392583615501067 -1 0 0 I I #
edge $-1 $715 -7.4223217538471609 $601 -1.5760872901648098 $600 $766 forward 7 unknown #
vertex $-1 $714 $767 #
straight-curve $-1 -45.007477034821633 11.921526275853147 2.3442111526440144 0.55919289150049634 0 0.82903758062907751 I I #
point $-1 -41.031217609068278 11.921526275853147 8.2392583615501049 #
point $-1 -45.007477034821619 6.0752918121707955 2.3442111526440352 #
straight-curve $-1 -45.007477034821619 0 8.2392583615501049 0 -1 0 I I #
vertex $-1 $607 $768 #
point $-1 -41.150178148774032 7.7456445160800378 4.634073238019341 #
vertex $-1 $611 $769 #
point $-1 -41.150178148774032 10.251173571943902 4.634073238019341 #
straight-curve $-1 -45.007477034821619 21.583040502443286 0 0 0 -1 I I #
point $-1 -45.007477034821619 -21.583040502443286 -8.2392583615501049 #
straight-curve $-1 -45.007477034821619 0 -8.2392583615501049 0 1 0 I I #
point $-1 -45.007477034821619 21.583040502443286 -8.2392583615501049 #
edge $-1 $645 -1.5 $639 1.5 $638 $770 forward 7 unknown #
coedge $-1 $643 $634 $633 $730 reversed $470 $-1 #
edge $-1 $647 -1.5 $636 1.5 $633 $771 forward 7 unknown #
straight-curve $-1 0 -31.244554729033428 -8.2392583615501049 -1 0 0 I I #
point $-1 45.007477034821619 -31.244554729033428 -8.2392583615501049 #
point $-1 -45.007477034821619 -31.244554729033428 -8.2392583615501049 #
straight-curve $-1 0 -31.244554729033428 -5.2392583615501049 1 0 0 I I #
point $-1 -45.007477034821619 -31.244554729033428 -5.2392583615501049 #
point $-1 45.007477034821619 -31.244554729033428 -5.2392583615501049 #
edge $-1 $662 -45.007477034821619 $738 45.007477034821619 $650 $772 forward 7 unknown #
vertex $-1 $667 $773 #
straight-curve $-1 45.007477034821619 31.244554729033428 -6.7392583615501049 0 0 -1 I I #
straight-curve $-1 0 31.244554729033428 -5.2392583615501049 -1 0 0 I I #
point $-1 45.007477034821619 31.244554729033428 -5.2392583615501049 #
straight-curve $-1 -45.007477034821619 31.244554729033428 -6.7392583615501049 0 0 -1 I I #
point $-1 -45.007477034821619 31.244554729033428 -5.2392583615501049 #
point $-1 -45.007477034821619 31.244554729033428 -8.2392583615501049 #
straight-curve $-1 45.007477034821619 0 -8.2392583615501049 0 -1 0 I I #
straight-curve $-1 45.007477034821619 -2.3017960419891512 63.420738738175217 0 0 -1 I I #
point $-1 45.007477034821619 -2.3017960419891512 8.2392583615501049 #
straight-curve $-1 45.007477034821619 0.63041701468793754 1.1083876754742263 0 1 0 I I #
point $-1 45.007477034821619 -2.3017960419891512 1.1083876754742334 #
point $-1 39.032878114495325 -0.26600742978056857 2.2150879543680988 #
point $-1 39.032878114495325 2.7876754885323116 2.2150879543680988 #
straight-curve $-1 -45.007477034821619 -6.0752918121707884 26.339966798566092 0 0 -1 I I #
point $-1 -45.007477034821619 -6.0752918121707884 8.2392583615501049 #
straight-curve $-1 -45.007477034821619 -4.4992045220059822 2.3442111526440321 0 -1 0 I I #
point $-1 -45.007477034821619 -6.0752918121707884 2.3442111526440352 #
point $-1 -41.015255804209737 -10.251173571943898 3.9399580019545541 #
point $-1 -41.015255804209737 -7.7456445160800325 3.9399580019545541 #
straight-curve $-1 -45.007477034821619 2.9231172318411796 26.339966798566092 0 0 -1 I I #
point $-1 -45.007477034821619 2.9231172318411796 8.2392583615501049 #
straight-curve $-1 -45.007477034821619 1.7763568394002505e-015 2.3442111526440321 0 -1 0 I I #
point $-1 -45.007477034821619 2.9231172318411796 2.3442111526440352 #
point $-1 -41.015255804209737 -1.2527645279319302 3.9399580019545541 #
point $-1 -41.015255804209737 1.2527645279319337 3.9399580019545541 #
straight-curve $-1 -45.007477034821619 11.921526275853147 26.339966798566092 0 0 -1 I I #
point $-1 -45.007477034821619 11.921526275853147 8.2392583615501049 #
straight-curve $-1 -45.007477034821619 4.4992045220059858 2.3442111526440321 0 -1 0 I I #
point $-1 -45.007477034821619 11.921526275853147 2.3442111526440352 #
point $-1 -41.015255804209737 7.7456445160800378 3.9399580019545541 #
point $-1 -41.015255804209737 10.251173571943902 3.9399580019545541 #
straight-curve $-1 -45.007477034821619 -31.244554729033428 -6.7392583615501049 0 0 -1 I I #
straight-curve $-1 45.007477034821619 -31.244554729033428 -6.7392583615501049 0 0 -1 I I #
straight-curve $-1 0 31.244554729033428 -8.2392583615501049 1 0 0 I I #
point $-1 45.007477034821619 31.244554729033428 -8.2392583615501049 #
End-of-ACIS-data 