500 0 4 0           
7 Unknown 11 ACIS 5.0 NT 24 Thu Mar 25 23:29:34 1999 
-1 9.9999999999999995e-007 1e-010 
body $-1 $4 $-1 $5 #
body $-1 $6 $-1 $7 #
body $-1 $8 $-1 $9 #
body $-1 $10 $-1 $11 #
lump $-1 $-1 $12 $0 #
transform $-1 1 0 0 0 1 0 0 0 1 40.235602893154699 18.569012545270059 8.2520381200355395 1 rotate no_reflect no_shear #
lump $-1 $-1 $13 $1 #
transform $-1 1 0 0 0 1 0 0 0 1 40.235602893154699 18.569012545270059 8.2520381200355395 1 rotate no_reflect no_shear #
lump $-1 $-1 $14 $2 #
transform $-1 1 0 0 0 1 0 0 0 1 40.235602893154699 18.569012545270059 8.2520381200355395 1 rotate no_reflect no_shear #
lump $-1 $-1 $15 $3 #
transform $-1 1 0 0 0 1 0 0 0 1 40.235602893154699 18.569012545270059 8.2520381200355395 1 rotate no_reflect no_shear #
shell $-1 $-1 $-1 $16 $-1 $4 #
shell $-1 $-1 $-1 $17 $-1 $6 #
shell $-1 $-1 $-1 $18 $-1 $8 #
shell $-1 $-1 $-1 $19 $-1 $10 #
face $-1 $20 $21 $12 $-1 $22 forward single #
face $-1 $23 $24 $13 $-1 $25 reversed single #
face $-1 $26 $27 $14 $-1 $28 reversed single #
face $-1 $29 $30 $15 $-1 $31 forward single #
face $-1 $32 $33 $12 $-1 $34 reversed single #
loop $-1 $-1 $35 $16 #
plane-surface $-1 0 0 8.2520381200355395 0 0 1 1 0 0 forward_v I I I I #
face $-1 $36 $37 $13 $-1 $38 reversed single #
loop $-1 $-1 $39 $17 #
plane-surface $-1 -35.628557025337194 -5.3477701840988274 0 0 1 0 0 0 1 forward_v I I I I #
face $-1 $40 $41 $14 $-1 $42 reversed single #
loop $-1 $-1 $43 $18 #
plane-surface $-1 17.764123075054382 26.642142946320487 91.05255705677925 1 0 0 0 -0.50000000669873634 -0.8660253999169214 forward_v I I I I #
face $-1 $44 $45 $15 $-1 $46 forward single #
loop $-1 $47 $48 $19 #
cone-surface $-1 26.635326059844523 12.95474607556884 3.9864452586526395 0 -0.50000000669873634 -0.8660253999169214 1.5 0 0 1 I I 0 1 1.5 forward I I I I #
face $-1 $49 $50 $12 $-1 $51 reversed single #
loop $-1 $-1 $52 $20 #
plane-surface $-1 0 0 -8.2520381200355395 0 0 1 1 0 0 forward_v I I I I #
coedge $-1 $53 $54 $55 $56 forward $21 $-1 #
face $-1 $57 $58 $13 $-1 $59 reversed single #
loop $-1 $-1 $60 $23 #
plane-surface $-1 -35.628557025337194 -2.0649363051989802 0 0 -1 0 0 0 -1 forward_v I I I I #
coedge $-1 $61 $62 $63 $64 reversed $24 $-1 #
face $-1 $65 $66 $14 $-1 $67 reversed single #
loop $-1 $-1 $68 $26 #
plane-surface $-1 26.635326059844523 -13.593460485889604 21.362448883893776 0 0.50000000669873634 0.8660253999169214 1 0 0 forward_v I I I I #
coedge $-1 $69 $70 $71 $72 reversed $27 $-1 #
face $-1 $-1 $73 $15 $-1 $74 forward single #
loop $-1 $75 $76 $29 #
cone-surface $-1 26.635326059844523 11.692767543692188 1.8006343624268872 0 -0.50000000669873634 -0.8660253999169214 0.75 0 0 1 I I -0.70710678118654757 0.70710678118654757 0.75 forward I I I I #
loop $-1 $-1 $77 $19 #
coedge $-1 $48 $48 $78 $79 reversed $30 $-1 #
face $-1 $80 $81 $12 $-1 $82 reversed single #
loop $-1 $-1 $83 $32 #
plane-surface $-1 0 -18.569012545270059 0 0 1 0 0 0 1 forward_v I I I I #
coedge $-1 $84 $85 $86 $87 forward $33 $-1 #
coedge $-1 $88 $35 $89 $90 forward $21 $-1 #
coedge $-1 $35 $88 $91 $92 forward $21 $-1 #
coedge $-1 $93 $94 $35 $56 reversed $95 $-1 #
edge $-1 $96 -18.569012545270059 $97 18.569012545270059 $55 $98 forward 7 unknown #
face $-1 $99 $100 $13 $-1 $101 reversed single #
loop $-1 $-1 $102 $36 #
plane-surface $-1 -31.02151115751969 -3.7063532446489038 0 -1 0 0 0 0 1 forward_v I I I I #
coedge $-1 $103 $104 $105 $106 forward $37 $-1 #
coedge $-1 $107 $39 $108 $109 reversed $24 $-1 #
coedge $-1 $39 $107 $110 $111 reversed $24 $-1 #
coedge $-1 $112 $113 $39 $64 forward $114 $-1 #
edge $-1 $115 -8.2520381200355395 $116 8.2520381200355395 $63 $117 forward 7 unknown #
face $-1 $118 $119 $14 $-1 $120 reversed single #
loop $-1 $-1 $121 $40 #
plane-surface $-1 35.506529044634661 26.642142946320487 91.05255705677925 -1 0 0 0 0.50000000669873634 0.8660253999169214 forward_v I I I I #
coedge $-1 $122 $123 $124 $125 reversed $41 $-1 #
coedge $-1 $70 $43 $126 $127 reversed $27 $-1 #
coedge $-1 $43 $69 $122 $128 reversed $27 $-1 #
coedge $-1 $124 $129 $43 $72 forward $130 $-1 #
edge $-1 $131 -5.2479410721098159 $132 4.2066348135874012 $71 $133 forward 7 unknown #
loop $-1 $-1 $78 $44 #
plane-surface $-1 26.635326059844523 -13.593460485889604 21.362448883893776 0 0.50000000669873634 0.8660253999169214 1 0 0 forward_v I I I I #
loop $-1 $-1 $134 $29 #
coedge $-1 $76 $76 $77 $135 reversed $45 $-1 #
coedge $-1 $77 $77 $76 $135 forward $47 $-1 #
coedge $-1 $78 $78 $48 $79 forward $73 $-1 #
edge $-1 $136 3.3857177869932942e-016 $136 6.2831853071796004 $78 $137 forward 7 unknown #
face $-1 $138 $139 $12 $-1 $140 reversed single #
loop $-1 $-1 $141 $49 #
plane-surface $-1 -40.235602893154699 0 0 1 0 0 0 0 -1 forward_v I I I I #
coedge $-1 $142 $91 $143 $144 forward $50 $-1 #
coedge $-1 $145 $52 $142 $146 forward $33 $-1 #
coedge $-1 $52 $145 $147 $148 forward $33 $-1 #
coedge $-1 $94 $93 $52 $87 reversed $95 $-1 #
edge $-1 $149 -18.569012545270059 $150 18.569012545270059 $86 $151 forward 7 unknown #
coedge $-1 $54 $53 $152 $153 forward $21 $-1 #
coedge $-1 $154 $155 $53 $90 reversed $139 $-1 #
edge $-1 $97 -40.235602893154699 $156 40.235602893154699 $89 $157 forward 7 unknown #
coedge $-1 $83 $158 $54 $92 reversed $50 $-1 #
edge $-1 $159 -40.235602893154699 $96 40.235602893154699 $91 $160 forward 7 unknown #
coedge $-1 $86 $55 $158 $161 forward $95 $-1 #
coedge $-1 $55 $86 $154 $162 reversed $95 $-1 #
loop $-1 $-1 $93 $138 #
vertex $-1 $56 $163 #
vertex $-1 $56 $164 #
straight-curve $-1 40.235602893154699 0 8.2520381200355395 0 1 0 I I #
face $-1 $165 $166 $13 $-1 $167 forward single #
loop $-1 $-1 $168 $57 #
plane-surface $-1 0 0 -8.2520381200355395 0 0 1 1 0 0 forward_v I I I I #
coedge $-1 $169 $170 $107 $171 forward $58 $-1 #
coedge $-1 $172 $60 $168 $173 reversed $37 $-1 #
coedge $-1 $60 $172 $174 $175 reversed $37 $-1 #
coedge $-1 $170 $169 $60 $106 reversed $58 $-1 #
edge $-1 $176 -8.2520381200355395 $177 8.2520381200355395 $105 $178 forward 7 unknown #
coedge $-1 $62 $61 $102 $171 reversed $24 $-1 #
coedge $-1 $179 $180 $61 $109 forward $100 $-1 #
edge $-1 $181 13.207232644851093 $115 22.421324380486102 $108 $182 forward 7 unknown #
coedge $-1 $183 $184 $62 $111 forward $166 $-1 #
edge $-1 $116 -22.421324380486102 $185 -13.207232644851093 $110 $186 forward 7 unknown #
coedge $-1 $187 $63 $184 $188 reversed $114 $-1 #
coedge $-1 $63 $187 $179 $189 reversed $114 $-1 #
loop $-1 $-1 $187 $165 #
vertex $-1 $189 $190 #
vertex $-1 $64 $191 #
straight-curve $-1 -40.235602893154699 -5.3477701840988274 0 0 0 1 I I #
face $-1 $-1 $130 $14 $-1 $192 forward single #
loop $-1 $-1 $193 $65 #
plane-surface $-1 0 18.569012545270059 0 0 -1 0 0 0 -1 forward_v I I I I #
coedge $-1 $194 $195 $196 $197 reversed $66 $-1 #
coedge $-1 $198 $68 $70 $128 forward $41 $-1 #
coedge $-1 $68 $198 $194 $199 forward $41 $-1 #
coedge $-1 $196 $71 $68 $125 forward $130 $-1 #
edge $-1 $132 4.4464600451321203 $200 22.188866014712399 $124 $201 forward 7 unknown #
coedge $-1 $202 $203 $69 $127 forward $119 $-1 #
edge $-1 $204 -42.732842438543742 $131 -37.274240408354089 $126 $205 forward 7 unknown #
edge $-1 $132 26.220821176423733 $204 37.138025090540111 $70 $206 forward 7 unknown #
coedge $-1 $71 $196 $202 $207 forward $130 $-1 #
loop $-1 $-1 $196 $118 #
vertex $-1 $127 $208 #
vertex $-1 $72 $209 #
straight-curve $-1 17.764123075054382 13.321071473160243 8.2520381200355359 0 -1 0 I I #
coedge $-1 $134 $134 $-1 $210 reversed $75 $-1 #
edge $-1 $211 0 $211 6.2831853071796004 $76 $212 forward 7 unknown #
vertex $-1 $79 $213 #
ellipse-curve $-1 26.635326059844523 13.841724602421447 5.5227371049407132 0 0.50000000669873634 0.8660253999169214 1.5 0 0 1 I I #
face $-1 $-1 $95 $12 $-1 $214 reversed single #
loop $-1 $-1 $154 $80 #
plane-surface $-1 0 18.569012545270059 0 0 -1 0 0 0 -1 forward_v I I I I #
coedge $-1 $215 $152 $155 $216 forward $81 $-1 #
coedge $-1 $158 $83 $84 $146 reversed $50 $-1 #
coedge $-1 $152 $215 $83 $144 reversed $81 $-1 #
edge $-1 $159 -8.2520381200355395 $217 8.2520381200355395 $143 $218 forward 7 unknown #
coedge $-1 $85 $84 $215 $219 forward $33 $-1 #
edge $-1 $150 -40.235602893154699 $217 40.235602893154699 $142 $220 forward 7 unknown #
coedge $-1 $155 $154 $85 $148 reversed $139 $-1 #
edge $-1 $221 -40.235602893154699 $149 40.235602893154699 $147 $222 forward 7 unknown #
vertex $-1 $87 $223 #
vertex $-1 $161 $224 #
straight-curve $-1 40.235602893154699 0 -8.2520381200355395 0 -1 0 I I #
coedge $-1 $141 $143 $88 $153 reversed $81 $-1 #
edge $-1 $156 -18.569012545270059 $159 18.569012545270059 $152 $225 forward 7 unknown #
coedge $-1 $147 $89 $94 $162 forward $139 $-1 #
coedge $-1 $89 $147 $141 $216 reversed $139 $-1 #
vertex $-1 $90 $226 #
straight-curve $-1 0 18.569012545270059 8.2520381200355395 -1 0 0 I I #
coedge $-1 $91 $142 $93 $161 reversed $50 $-1 #
vertex $-1 $153 $227 #
straight-curve $-1 0 -18.569012545270059 8.2520381200355395 1 0 0 I I #
edge $-1 $96 -8.2520381200355395 $150 8.2520381200355395 $93 $228 forward 7 unknown #
edge $-1 $97 -8.2520381200355395 $149 8.2520381200355395 $94 $229 forward 7 unknown #
point $-1 40.235602893154699 -18.569012545270059 8.2520381200355395 #
point $-1 40.235602893154699 18.569012545270059 8.2520381200355395 #
face $-1 $-1 $114 $13 $-1 $230 reversed single #
loop $-1 $-1 $174 $99 #
plane-surface $-1 0 0 8.2520381200355395 0 0 1 1 0 0 forward_v I I I I #
coedge $-1 $180 $179 $103 $173 forward $100 $-1 #
coedge $-1 $105 $102 $180 $231 reversed $58 $-1 #
coedge $-1 $102 $105 $183 $232 reversed $58 $-1 #
edge $-1 $185 -8.2520381200355395 $181 8.2520381200355395 $102 $233 forward 7 unknown #
coedge $-1 $104 $103 $187 $234 reversed $37 $-1 #
edge $-1 $235 -22.421324380486102 $177 -13.207232644851093 $168 $236 forward 7 unknown #
coedge $-1 $184 $183 $104 $175 forward $166 $-1 #
edge $-1 $176 13.207232644851093 $237 22.421324380486102 $174 $238 forward 7 unknown #
vertex $-1 $175 $239 #
vertex $-1 $173 $240 #
straight-curve $-1 -31.02151115751969 -2.0649363051989802 0 0 0 -1 I I #
coedge $-1 $168 $108 $113 $189 forward $100 $-1 #
coedge $-1 $108 $168 $169 $231 forward $100 $-1 #
vertex $-1 $109 $241 #
straight-curve $-1 -17.814278512668597 -5.3477701840988274 -8.2520381200355395 -1 0 0 I I #
coedge $-1 $174 $110 $170 $232 forward $166 $-1 #
coedge $-1 $110 $174 $112 $188 forward $166 $-1 #
vertex $-1 $111 $242 #
straight-curve $-1 -17.814278512668597 -5.3477701840988274 8.2520381200355395 1 0 0 I I #
coedge $-1 $113 $112 $172 $234 forward $114 $-1 #
edge $-1 $237 2.0649363051989802 $116 5.3477701840988274 $112 $243 forward 7 unknown #
edge $-1 $115 -5.3477701840988274 $235 -2.0649363051989802 $113 $244 forward 7 unknown #
point $-1 -40.235602893154699 -5.3477701840988274 -8.2520381200355395 #
point $-1 -40.235602893154699 -5.3477701840988274 8.2520381200355395 #
plane-surface $-1 0 0 8.2520381200355395 0 0 1 1 0 0 forward_v I I I I #
coedge $-1 $203 $202 $195 $245 forward $119 $-1 #
coedge $-1 $195 $121 $123 $199 reversed $66 $-1 #
coedge $-1 $121 $194 $193 $245 reversed $66 $-1 #
coedge $-1 $129 $124 $121 $197 forward $130 $-1 #
edge $-1 $200 -4.2066348135874012 $246 5.2479410721098159 $196 $247 forward 7 unknown #
coedge $-1 $123 $122 $203 $248 reversed $41 $-1 #
edge $-1 $249 -37.138025090540111 $200 -26.220821176423733 $194 $250 forward 7 unknown #
vertex $-1 $125 $251 #
straight-curve $-1 13.317663029922262 9.1144366595728421 8.2520381200355413 1 0 0 I I #
coedge $-1 $193 $126 $129 $207 reversed $119 $-1 #
coedge $-1 $126 $193 $198 $248 forward $119 $-1 #
vertex $-1 $127 $252 #
straight-curve $-1 17.764123075054382 18.569012545270059 45.526278528389625 0 0 1 I I #
straight-curve $-1 17.764123075054382 -13.593460485889604 21.362448883893776 0 0.8660253999169214 -0.50000000669873634 I I #
edge $-1 $246 -35.506529044634661 $131 -17.764123075054382 $202 $253 forward 7 unknown #
point $-1 17.764123075054382 18.569012545270059 8.2520381200355395 #
point $-1 17.764123075054382 9.1144366595728421 8.2520381200355395 #
edge $-1 $254 1 $254 0 $134 $-1 forward 7 unknown #
vertex $-1 $135 $255 #
ellipse-curve $-1 26.635326059844523 12.06776754871624 2.4501534123645783 0 0.50000000669873634 0.8660253999169214 1.5 0 0 1 I I #
point $-1 28.135326059844523 13.84172460242144 5.5227371049406999 #
plane-surface $-1 40.235602893154699 0 0 -1 0 0 0 0 1 forward_v I I I I #
coedge $-1 $143 $141 $145 $219 reversed $81 $-1 #
edge $-1 $156 -8.2520381200355395 $221 8.2520381200355395 $155 $256 forward 7 unknown #
vertex $-1 $219 $257 #
straight-curve $-1 -40.235602893154699 -18.569012545270059 0 0 0 -1 I I #
edge $-1 $217 -18.569012545270059 $221 18.569012545270059 $215 $258 forward 7 unknown #
straight-curve $-1 0 -18.569012545270059 -8.2520381200355395 -1 0 0 I I #
vertex $-1 $148 $259 #
straight-curve $-1 0 18.569012545270059 -8.2520381200355395 1 0 0 I I #
point $-1 40.235602893154699 18.569012545270059 -8.2520381200355395 #
point $-1 40.235602893154699 -18.569012545270059 -8.2520381200355395 #
straight-curve $-1 -40.235602893154699 0 8.2520381200355395 0 -1 0 I I #
point $-1 -40.235602893154699 18.569012545270059 8.2520381200355395 #
point $-1 -40.235602893154699 -18.569012545270059 8.2520381200355395 #
straight-curve $-1 40.235602893154699 -18.569012545270059 0 0 0 -1 I I #
straight-curve $-1 40.235602893154699 18.569012545270059 0 0 0 -1 I I #
plane-surface $-1 -40.235602893154699 0 0 1 0 0 0 0 -1 forward_v I I I I #
edge $-1 $177 0.21175968287452829 $181 3.4945935617743755 $180 $260 forward 7 unknown #
edge $-1 $185 -3.4945935617743755 $176 -0.21175968287452829 $183 $261 forward 7 unknown #
straight-curve $-1 -31.02151115751969 -5.3477701840988274 0 0 0 -1 I I #
edge $-1 $237 -8.2520381200355395 $235 8.2520381200355395 $187 $262 forward 7 unknown #
vertex $-1 $234 $263 #
straight-curve $-1 -17.814278512668597 -2.0649363051989802 -8.2520381200355395 1 0 0 I I #
vertex $-1 $188 $264 #
straight-curve $-1 -17.814278512668597 -2.0649363051989802 8.2520381200355395 -1 0 0 I I #
point $-1 -31.02151115751969 -2.0649363051989802 8.2520381200355395 #
point $-1 -31.02151115751969 -2.0649363051989802 -8.2520381200355395 #
point $-1 -31.02151115751969 -5.3477701840988274 -8.2520381200355395 #
point $-1 -31.02151115751969 -5.3477701840988274 8.2520381200355395 #
straight-curve $-1 -40.235602893154699 0 8.2520381200355395 0 -1 0 I I #
straight-curve $-1 -40.235602893154699 0 -8.2520381200355395 0 1 0 I I #
edge $-1 $246 37.274240408354089 $249 42.732842438543742 $193 $265 forward 7 unknown #
vertex $-1 $207 $266 #
straight-curve $-1 35.506529044634661 13.321071473160243 8.2520381200355359 0 1 0 I I #
edge $-1 $249 -22.188866014712399 $204 -4.4464600451321203 $203 $267 forward 7 unknown #
vertex $-1 $248 $268 #
straight-curve $-1 35.506529044634661 -13.593460485889604 21.362448883893776 0 -0.8660253999169214 0.50000000669873634 I I #
point $-1 35.506529044634661 9.1144366595728421 8.2520381200355395 #
point $-1 17.764123075054382 18.569012545270059 2.7934360898458834 #
straight-curve $-1 0 18.569012545270059 8.2520381200355395 -1 0 0 I I #
vertex $-1 $210 $269 #
point $-1 28.135326059844523 12.06776754871624 2.4501534123645783 #
straight-curve $-1 -40.235602893154699 18.569012545270059 0 0 0 -1 I I #
point $-1 -40.235602893154699 -18.569012545270059 -8.2520381200355395 #
straight-curve $-1 -40.235602893154699 0 -8.2520381200355395 0 1 0 I I #
point $-1 -40.235602893154699 18.569012545270059 -8.2520381200355395 #
straight-curve $-1 -31.02151115751969 -1.8531766223244519 -8.2520381200355395 0 -1 0 I I #
straight-curve $-1 -31.02151115751969 -1.8531766223244519 8.2520381200355395 0 1 0 I I #
straight-curve $-1 -40.235602893154699 -2.0649363051989802 0 0 0 -1 I I #
point $-1 -40.235602893154699 -2.0649363051989802 -8.2520381200355395 #
point $-1 -40.235602893154699 -2.0649363051989802 8.2520381200355395 #
straight-curve $-1 35.506529044634661 18.569012545270059 45.526278528389625 0 0 -1 I I #
point $-1 35.506529044634661 18.569012545270059 8.2520381200355395 #
straight-curve $-1 13.317663029922262 18.569012545270059 2.7934360898458834 -1 0 0 I I #
point $-1 35.506529044634661 18.569012545270059 2.7934360898458834 #
point $-1 26.635326059844523 11.317767538668136 1.1511153124891962 #
End-of-ACIS-data 