500 0 13 0           
7 Unknown 11 ACIS 5.0 NT 24 Thu Mar 25 23:01:05 1999 
-1 9.9999999999999995e-007 1e-010 
body $-1 $13 $-1 $14 #
body $-1 $15 $-1 $16 #
body $-1 $17 $-1 $18 #
body $-1 $19 $-1 $20 #
body $-1 $21 $-1 $22 #
body $-1 $23 $-1 $24 #
body $-1 $25 $-1 $26 #
body $-1 $27 $-1 $28 #
body $-1 $29 $-1 $30 #
body $-1 $31 $-1 $32 #
body $-1 $33 $-1 $34 #
body $-1 $35 $-1 $36 #
body $-1 $37 $-1 $38 #
lump $-1 $-1 $39 $0 #
transform $-1 1 0 0 0 1 0 0 0 1 47.289040803247168 23.012258407058852 6.9935718998789254 1 rotate no_reflect no_shear #
lump $-1 $-1 $40 $1 #
transform $-1 1 0 0 0 1 0 0 0 1 47.289040803247168 23.012258407058852 6.9935718998789254 1 rotate no_reflect no_shear #
lump $-1 $-1 $41 $2 #
transform $-1 1 0 0 0 1 0 0 0 1 47.289040803247168 23.012258407058852 6.9935718998789254 1 rotate no_reflect no_shear #
lump $-1 $-1 $42 $3 #
transform $-1 1 0 0 0 1 0 0 0 1 47.289040803247168 23.012258407058852 6.9935718998789254 1 rotate no_reflect no_shear #
lump $-1 $-1 $43 $4 #
transform $-1 1 0 0 0 1 0 0 0 1 47.289040803247168 23.012258407058852 6.9935718998789254 1 rotate no_reflect no_shear #
lump $-1 $-1 $44 $5 #
transform $-1 1 0 0 0 1 0 0 0 1 47.289040803247168 23.012258407058852 6.9935718998789254 1 rotate no_reflect no_shear #
lump $-1 $-1 $45 $6 #
transform $-1 1 0 0 0 1 0 0 0 1 47.289040803247168 23.012258407058852 6.9935718998789254 1 rotate no_reflect no_shear #
lump $-1 $-1 $46 $7 #
transform $-1 1 0 0 0 1 0 0 0 1 47.289040803247168 23.012258407058852 6.9935718998789254 1 rotate no_reflect no_shear #
lump $-1 $-1 $47 $8 #
transform $-1 1 0 0 0 1 0 0 0 1 47.289040803247168 23.012258407058852 6.9935718998789254 1 rotate no_reflect no_shear #
lump $-1 $-1 $48 $9 #
transform $-1 1 0 0 0 1 0 0 0 1 47.289040803247168 23.012258407058852 6.9935718998789254 1 rotate no_reflect no_shear #
lump $-1 $-1 $49 $10 #
transform $-1 1 0 0 0 1 0 0 0 1 47.289040803247168 23.012258407058852 6.9935718998789254 1 rotate no_reflect no_shear #
lump $-1 $-1 $50 $11 #
transform $-1 1 0 0 0 1 0 0 0 1 47.289040803247168 23.012258407058852 6.9935718998789254 1 rotate no_reflect no_shear #
lump $-1 $-1 $51 $12 #
transform $-1 1 0 0 0 1 0 0 0 1 47.289040803247168 23.012258407058852 6.9935718998789254 1 rotate no_reflect no_shear #
shell $-1 $-1 $-1 $52 $-1 $13 #
shell $-1 $-1 $-1 $53 $-1 $15 #
shell $-1 $-1 $-1 $54 $-1 $17 #
shell $-1 $-1 $-1 $55 $-1 $19 #
shell $-1 $-1 $-1 $56 $-1 $21 #
shell $-1 $-1 $-1 $57 $-1 $23 #
shell $-1 $-1 $-1 $58 $-1 $25 #
shell $-1 $-1 $-1 $59 $-1 $27 #
shell $-1 $-1 $-1 $60 $-1 $29 #
shell $-1 $-1 $-1 $61 $-1 $31 #
shell $-1 $-1 $-1 $62 $-1 $33 #
shell $-1 $-1 $-1 $63 $-1 $35 #
shell $-1 $-1 $-1 $64 $-1 $37 #
face $-1 $65 $66 $39 $-1 $67 forward single #
face $-1 $68 $69 $40 $-1 $70 reversed single #
face $-1 $71 $72 $41 $-1 $73 forward single #
face $-1 $74 $75 $42 $-1 $76 forward single #
face $-1 $77 $78 $43 $-1 $79 reversed single #
face $-1 $80 $81 $44 $-1 $82 forward single #
face $-1 $83 $84 $45 $-1 $85 forward single #
face $-1 $86 $87 $46 $-1 $88 reversed single #
face $-1 $89 $90 $47 $-1 $91 forward single #
face $-1 $92 $93 $48 $-1 $94 forward single #
face $-1 $95 $96 $49 $-1 $97 reversed single #
face $-1 $98 $99 $50 $-1 $100 forward single #
face $-1 $101 $102 $51 $-1 $103 forward single #
face $-1 $104 $105 $39 $-1 $106 reversed single #
loop $-1 $-1 $107 $52 #
plane-surface $-1 0 0 6.9935718998789254 0 0 1 1 0 0 forward_v I I I I #
face $-1 $108 $109 $40 $-1 $110 reversed single #
loop $-1 $-1 $111 $53 #
plane-surface $-1 0 -102.33211258019963 52.568691897169799 -1 0 0 0 -0.83867057594974714 0.54463902268945019 forward_v I I I I #
face $-1 $112 $113 $41 $-1 $114 forward single #
loop $-1 $115 $116 $54 #
cone-surface $-1 -16.308780345991231 -19.606876162553554 3.0658456824538707 0 0.83867057594974714 -0.54463902268945019 1 0 0 1 I I 0 1 1 forward I I I I #
face $-1 $117 $118 $42 $-1 $119 forward single #
loop $-1 $120 $121 $55 #
cone-surface $-1 -6.5235121383964909 -19.606876162553554 3.0658456824538707 0 0.83867057594974714 -0.54463902268945019 1 0 0 1 I I 0 1 1 forward I I I I #
face $-1 $122 $123 $43 $-1 $124 reversed single #
loop $-1 $-1 $125 $56 #
plane-surface $-1 35.872894561053307 -23.012258407058837 1.0577779631656554 0 -0.83867057594974714 0.54463902268945019 1 0 0 forward_v I I I I #
face $-1 $126 $127 $44 $-1 $128 forward single #
loop $-1 $129 $130 $57 #
cone-surface $-1 30.980260457255945 -19.606876162553554 3.0658456824538707 0 0.83867057594974714 -0.54463902268945019 1 0 0 1 I I 0 1 1 forward I I I I #
face $-1 $131 $132 $45 $-1 $133 forward single #
loop $-1 $134 $135 $58 #
cone-surface $-1 40.76552866485067 -19.606876162553554 3.0658456824538707 0 0.83867057594974714 -0.54463902268945019 1 0 0 1 I I 0 1 1 forward I I I I #
face $-1 $136 $137 $46 $-1 $138 reversed single #
loop $-1 $-1 $139 $59 #
plane-surface $-1 -22.832292484387722 77.265364722804406 91.168099921474706 1 0 0 0 -0.83867057594974714 -0.54463902268945019 forward_v I I I I #
face $-1 $140 $141 $47 $-1 $142 forward single #
loop $-1 $143 $144 $60 #
cone-surface $-1 -16.308780345991231 19.606876162553547 3.0658456824538671 0 -0.83867057594974714 -0.54463902268945019 1 0 0 1 I I 0 1 1 forward I I I I #
face $-1 $145 $146 $48 $-1 $147 forward single #
loop $-1 $148 $149 $61 #
cone-surface $-1 -6.5235121383964909 19.606876162553547 3.0658456824538671 0 -0.83867057594974714 -0.54463902268945019 1 0 0 1 I I 0 1 1 forward I I I I #
face $-1 $150 $151 $49 $-1 $152 reversed single #
loop $-1 $-1 $153 $62 #
plane-surface $-1 35.872894561053307 -2.0544894503363906 39.657185987470562 0 0.83867057594974714 0.54463902268945019 1 0 0 forward_v I I I I #
face $-1 $154 $155 $50 $-1 $156 forward single #
loop $-1 $157 $158 $63 #
cone-surface $-1 30.980260457255945 19.606876162553547 3.0658456824538671 0 -0.83867057594974714 -0.54463902268945019 1 0 0 1 I I 0 1 1 forward I I I I #
face $-1 $159 $160 $51 $-1 $161 forward single #
loop $-1 $162 $163 $64 #
cone-surface $-1 40.76552866485067 19.606876162553547 3.0658456824538671 0 -0.83867057594974714 -0.54463902268945019 1 0 0 1 I I 0 1 1 forward I I I I #
face $-1 $164 $165 $39 $-1 $166 reversed single #
loop $-1 $-1 $167 $65 #
plane-surface $-1 0 0 -6.9935718998789254 0 0 1 1 0 0 forward_v I I I I #
coedge $-1 $168 $169 $170 $171 forward $66 $-1 #
face $-1 $172 $173 $40 $-1 $174 reversed single #
loop $-1 $-1 $175 $68 #
plane-surface $-1 -11.416146242193861 -23.012258407058837 1.0577779631656554 0 -0.83867057594974714 0.54463902268945019 1 0 0 forward_v I I I I #
coedge $-1 $176 $177 $178 $179 reversed $69 $-1 #
face $-1 $-1 $180 $41 $-1 $181 forward single #
loop $-1 $182 $183 $71 #
cone-surface $-1 -16.308780345991231 -17.709533395139182 1.8336969220407235 0 0.83867057594974714 -0.54463902268945019 0.5 0 0 1 I I -0.70710678118654746 0.70710678118654746 0.5 forward I I I I #
loop $-1 $-1 $184 $54 #
coedge $-1 $116 $116 $185 $186 reversed $72 $-1 #
face $-1 $-1 $187 $42 $-1 $188 forward single #
loop $-1 $189 $190 $74 #
cone-surface $-1 -6.5235121383964909 -17.709533395139182 1.8336969220407235 0 0.83867057594974714 -0.54463902268945019 0.5 0 0 1 I I -0.70710678118654746 0.70710678118654746 0.5 forward I I I I #
loop $-1 $-1 $191 $55 #
coedge $-1 $121 $121 $192 $193 reversed $75 $-1 #
face $-1 $194 $195 $43 $-1 $196 reversed single #
loop $-1 $-1 $197 $77 #
plane-surface $-1 24.456748318859447 -102.33211258019963 52.568691897169799 1 0 0 0 0.83867057594974714 -0.54463902268945019 forward_v I I I I #
coedge $-1 $198 $199 $200 $201 reversed $78 $-1 #
face $-1 $-1 $202 $44 $-1 $203 forward single #
loop $-1 $204 $205 $80 #
cone-surface $-1 30.980260457255945 -17.709533395139182 1.8336969220407235 0 0.83867057594974714 -0.54463902268945019 0.5 0 0 1 I I -0.70710678118654746 0.70710678118654746 0.5 forward I I I I #
loop $-1 $-1 $206 $57 #
coedge $-1 $130 $130 $207 $208 reversed $81 $-1 #
face $-1 $-1 $209 $45 $-1 $210 forward single #
loop $-1 $211 $212 $83 #
cone-surface $-1 40.76552866485067 -17.709533395139182 1.8336969220407235 0 0.83867057594974714 -0.54463902268945019 0.5 0 0 1 I I -0.70710678118654746 0.70710678118654746 0.5 forward I I I I #
loop $-1 $-1 $213 $58 #
coedge $-1 $135 $135 $214 $215 reversed $84 $-1 #
face $-1 $216 $217 $46 $-1 $218 reversed single #
loop $-1 $-1 $219 $86 #
plane-surface $-1 -11.416146242193861 -2.0544894503363906 39.657185987470562 0 0.83867057594974714 0.54463902268945019 1 0 0 forward_v I I I I #
coedge $-1 $220 $221 $222 $223 reversed $87 $-1 #
face $-1 $-1 $224 $47 $-1 $225 forward single #
loop $-1 $226 $227 $89 #
cone-surface $-1 -16.308780345991231 17.709533395139175 1.83369692204072 0 -0.83867057594974714 -0.54463902268945019 0.5 0 0 1 I I -0.70710678118654746 0.70710678118654746 0.5 forward I I I I #
loop $-1 $-1 $228 $60 #
coedge $-1 $144 $144 $229 $230 reversed $90 $-1 #
face $-1 $-1 $231 $48 $-1 $232 forward single #
loop $-1 $233 $234 $92 #
cone-surface $-1 -6.5235121383964909 17.709533395139175 1.83369692204072 0 -0.83867057594974714 -0.54463902268945019 0.5 0 0 1 I I -0.70710678118654746 0.70710678118654746 0.5 forward I I I I #
loop $-1 $-1 $235 $61 #
coedge $-1 $149 $149 $236 $237 reversed $93 $-1 #
face $-1 $238 $239 $49 $-1 $240 forward single #
loop $-1 $-1 $241 $95 #
plane-surface $-1 24.456748318859447 77.265364722804406 91.168099921474706 1 0 0 0 -0.83867057594974714 -0.54463902268945019 forward_v I I I I #
coedge $-1 $242 $243 $244 $245 reversed $96 $-1 #
face $-1 $-1 $246 $50 $-1 $247 forward single #
loop $-1 $248 $249 $98 #
cone-surface $-1 30.980260457255945 17.709533395139175 1.83369692204072 0 -0.83867057594974714 -0.54463902268945019 0.5 0 0 1 I I -0.70710678118654746 0.70710678118654746 0.5 forward I I I I #
loop $-1 $-1 $250 $63 #
coedge $-1 $158 $158 $251 $252 reversed $99 $-1 #
face $-1 $-1 $253 $51 $-1 $254 forward single #
loop $-1 $255 $256 $101 #
cone-surface $-1 40.76552866485067 17.709533395139175 1.83369692204072 0 -0.83867057594974714 -0.54463902268945019 0.5 0 0 1 I I -0.70710678118654746 0.70710678118654746 0.5 forward I I I I #
loop $-1 $-1 $257 $64 #
coedge $-1 $163 $163 $258 $259 reversed $102 $-1 #
face $-1 $260 $261 $39 $-1 $262 reversed single #
loop $-1 $-1 $263 $104 #
plane-surface $-1 0 -23.012258407058852 0 0 1 0 0 0 1 forward_v I I I I #
coedge $-1 $264 $265 $266 $267 forward $105 $-1 #
coedge $-1 $268 $107 $269 $270 forward $66 $-1 #
coedge $-1 $107 $268 $271 $272 forward $66 $-1 #
coedge $-1 $273 $274 $107 $171 reversed $275 $-1 #
edge $-1 $276 -23.012258407058852 $277 23.012258407058852 $170 $278 forward 7 unknown #
face $-1 $279 $280 $40 $-1 $281 reversed single #
loop $-1 $-1 $282 $108 #
plane-surface $-1 -22.832292484387722 -102.33211258019963 52.568691897169799 1 0 0 0 0.83867057594974714 -0.54463902268945019 forward_v I I I I #
coedge $-1 $283 $284 $285 $286 reversed $109 $-1 #
coedge $-1 $177 $111 $287 $288 reversed $69 $-1 #
coedge $-1 $111 $176 $283 $289 reversed $69 $-1 #
coedge $-1 $285 $290 $111 $179 forward $291 $-1 #
edge $-1 $292 28.153797883040966 $293 32.008547413172572 $178 $294 forward 7 unknown #
loop $-1 $-1 $185 $112 #
plane-surface $-1 -11.416146242193861 -23.012258407058837 1.0577779631656554 0 -0.83867057594974714 0.54463902268945019 1 0 0 forward_v I I I I #
loop $-1 $-1 $295 $71 #
coedge $-1 $183 $183 $184 $296 reversed $113 $-1 #
coedge $-1 $184 $184 $183 $296 forward $115 $-1 #
coedge $-1 $185 $185 $116 $186 forward $180 $-1 #
edge $-1 $297 -5.9061577017975664e-016 $297 6.2831853071795996 $185 $298 forward 7 unknown #
loop $-1 $-1 $192 $117 #
plane-surface $-1 -11.416146242193861 -23.012258407058837 1.0577779631656554 0 -0.83867057594974714 0.54463902268945019 1 0 0 forward_v I I I I #
loop $-1 $-1 $299 $74 #
coedge $-1 $190 $190 $191 $300 reversed $118 $-1 #
coedge $-1 $191 $191 $190 $300 forward $120 $-1 #
coedge $-1 $192 $192 $121 $193 forward $187 $-1 #
edge $-1 $301 -5.9061577017975664e-016 $301 6.2831853071795996 $192 $302 forward 7 unknown #
face $-1 $303 $304 $43 $-1 $305 forward single #
loop $-1 $-1 $306 $122 #
plane-surface $-1 0 -23.012258407058852 0 0 1 0 0 0 1 forward_v I I I I #
coedge $-1 $307 $308 $309 $310 reversed $123 $-1 #
coedge $-1 $311 $125 $312 $313 reversed $78 $-1 #
coedge $-1 $125 $311 $307 $314 forward $78 $-1 #
coedge $-1 $309 $315 $125 $201 forward $304 $-1 #
edge $-1 $316 -29.352593522720515 $317 -6.5203010383327928 $200 $318 forward 7 unknown #
loop $-1 $-1 $207 $126 #
plane-surface $-1 35.872894561053307 -23.012258407058837 1.0577779631656554 0 -0.83867057594974714 0.54463902268945019 1 0 0 forward_v I I I I #
loop $-1 $-1 $319 $80 #
coedge $-1 $205 $205 $206 $320 reversed $127 $-1 #
coedge $-1 $206 $206 $205 $320 forward $129 $-1 #
coedge $-1 $207 $207 $130 $208 forward $202 $-1 #
edge $-1 $321 -5.9061577017975664e-016 $321 6.2831853071795996 $207 $322 forward 7 unknown #
loop $-1 $-1 $214 $131 #
plane-surface $-1 35.872894561053307 -23.012258407058837 1.0577779631656554 0 -0.83867057594974714 0.54463902268945019 1 0 0 forward_v I I I I #
loop $-1 $-1 $323 $83 #
coedge $-1 $212 $212 $213 $324 reversed $132 $-1 #
coedge $-1 $213 $213 $212 $324 forward $134 $-1 #
coedge $-1 $214 $214 $135 $215 forward $209 $-1 #
edge $-1 $325 -5.9061577017975664e-016 $325 6.2831853071795996 $214 $326 forward 7 unknown #
face $-1 $327 $328 $46 $-1 $329 forward single #
loop $-1 $-1 $330 $136 #
plane-surface $-1 0 77.265364722804406 91.168099921474706 -1 0 0 0 0.83867057594974714 0.54463902268945019 forward_v I I I I #
coedge $-1 $331 $332 $333 $334 reversed $137 $-1 #
coedge $-1 $221 $139 $335 $336 reversed $87 $-1 #
coedge $-1 $139 $220 $331 $337 reversed $87 $-1 #
coedge $-1 $333 $338 $139 $223 forward $328 $-1 #
edge $-1 $339 15.620423954343352 $340 19.475173484474958 $222 $341 forward 7 unknown #
loop $-1 $-1 $229 $140 #
plane-surface $-1 -11.416146242193861 -2.0544894503363906 39.657185987470562 0 0.83867057594974714 0.54463902268945019 1 0 0 forward_v I I I I #
loop $-1 $-1 $342 $89 #
coedge $-1 $227 $227 $228 $343 reversed $141 $-1 #
coedge $-1 $228 $228 $227 $343 forward $143 $-1 #
coedge $-1 $229 $229 $144 $230 forward $224 $-1 #
edge $-1 $344 4.4516829232526574e-016 $344 6.2831853071796013 $229 $345 forward 7 unknown #
loop $-1 $-1 $236 $145 #
plane-surface $-1 -11.416146242193861 -2.0544894503363906 39.657185987470562 0 0.83867057594974714 0.54463902268945019 1 0 0 forward_v I I I I #
loop $-1 $-1 $346 $92 #
coedge $-1 $234 $234 $235 $347 reversed $146 $-1 #
coedge $-1 $235 $235 $234 $347 forward $148 $-1 #
coedge $-1 $236 $236 $149 $237 forward $231 $-1 #
edge $-1 $348 4.4516829232526574e-016 $348 6.2831853071796013 $236 $349 forward 7 unknown #
face $-1 $350 $351 $49 $-1 $352 reversed single #
loop $-1 $-1 $353 $150 #
plane-surface $-1 0 0 6.9935718998789254 0 0 1 1 0 0 forward_v I I I I #
coedge $-1 $354 $355 $356 $357 reversed $151 $-1 #
coedge $-1 $358 $153 $359 $360 reversed $96 $-1 #
coedge $-1 $153 $358 $354 $361 forward $96 $-1 #
coedge $-1 $356 $362 $153 $245 forward $363 $-1 #
edge $-1 $364 -29.352593522720515 $365 -6.5203010383327928 $244 $366 forward 7 unknown #
loop $-1 $-1 $251 $154 #
plane-surface $-1 35.872894561053307 -2.0544894503363906 39.657185987470562 0 0.83867057594974714 0.54463902268945019 1 0 0 forward_v I I I I #
loop $-1 $-1 $367 $98 #
coedge $-1 $249 $249 $250 $368 reversed $155 $-1 #
coedge $-1 $250 $250 $249 $368 forward $157 $-1 #
coedge $-1 $251 $251 $158 $252 forward $246 $-1 #
edge $-1 $369 4.4516829232526574e-016 $369 6.2831853071796013 $251 $370 forward 7 unknown #
loop $-1 $-1 $258 $159 #
plane-surface $-1 35.872894561053307 -2.0544894503363906 39.657185987470562 0 0.83867057594974714 0.54463902268945019 1 0 0 forward_v I I I I #
loop $-1 $-1 $371 $101 #
coedge $-1 $256 $256 $257 $372 reversed $160 $-1 #
coedge $-1 $257 $257 $256 $372 forward $162 $-1 #
coedge $-1 $258 $258 $163 $259 forward $253 $-1 #
edge $-1 $373 4.4516829232526574e-016 $373 6.2831853071796013 $258 $374 forward 7 unknown #
face $-1 $375 $376 $39 $-1 $377 reversed single #
loop $-1 $-1 $378 $164 #
plane-surface $-1 -47.289040803247168 0 0 1 0 0 0 0 -1 forward_v I I I I #
coedge $-1 $379 $271 $380 $381 forward $165 $-1 #
coedge $-1 $382 $167 $379 $383 forward $105 $-1 #
coedge $-1 $167 $382 $384 $385 forward $105 $-1 #
coedge $-1 $274 $273 $167 $267 reversed $275 $-1 #
edge $-1 $386 -23.012258407058852 $387 23.012258407058852 $266 $388 forward 7 unknown #
coedge $-1 $169 $168 $389 $390 forward $66 $-1 #
coedge $-1 $391 $392 $168 $270 reversed $376 $-1 #
edge $-1 $277 -47.289040803247168 $393 47.289040803247168 $269 $394 forward 7 unknown #
coedge $-1 $263 $395 $169 $272 reversed $165 $-1 #
edge $-1 $396 -47.289040803247168 $276 47.289040803247168 $271 $397 forward 7 unknown #
coedge $-1 $266 $170 $395 $398 forward $275 $-1 #
coedge $-1 $170 $266 $391 $399 reversed $275 $-1 #
loop $-1 $-1 $273 $375 #
vertex $-1 $171 $400 #
vertex $-1 $171 $401 #
straight-curve $-1 47.289040803247168 0 6.9935718998789254 0 1 0 I I #
face $-1 $-1 $291 $40 $-1 $402 forward single #
loop $-1 $-1 $403 $172 #
plane-surface $-1 0 -23.012258407058852 0 0 1 0 0 0 1 forward_v I I I I #
coedge $-1 $404 $405 $406 $407 reversed $173 $-1 #
coedge $-1 $408 $175 $177 $289 forward $109 $-1 #
coedge $-1 $175 $408 $404 $409 forward $109 $-1 #
coedge $-1 $406 $178 $175 $286 forward $291 $-1 #
edge $-1 $293 -5.7080731210969304 $410 17.124219363290791 $285 $411 forward 7 unknown #
coedge $-1 $412 $413 $176 $288 forward $280 $-1 #
edge $-1 $414 -25.226567985419265 $292 -19.290774048705973 $287 $415 forward 7 unknown #
edge $-1 $293 -7.0776227364258233 $414 2.617579141687138e-014 $177 $416 forward 7 unknown #
coedge $-1 $178 $406 $412 $417 forward $291 $-1 #
loop $-1 $-1 $406 $279 #
vertex $-1 $288 $418 #
vertex $-1 $179 $419 #
straight-curve $-1 0 -51.166056290099817 6.9935718998789262 0 1 0 I I #
coedge $-1 $295 $295 $-1 $420 reversed $182 $-1 #
edge $-1 $421 0 $421 6.2831853071796004 $183 $422 forward 7 unknown #
vertex $-1 $186 $423 #
ellipse-curve $-1 -16.308780345991231 -21.084883641993045 4.0256749315222864 0 -0.83867057594974714 0.54463902268945019 1 0 0 1 I I #
coedge $-1 $299 $299 $-1 $424 reversed $189 $-1 #
edge $-1 $425 0 $425 6.2831853071796004 $190 $426 forward 7 unknown #
vertex $-1 $193 $427 #
ellipse-curve $-1 -6.5235121383964909 -21.084883641993045 4.0256749315222864 0 -0.83867057594974714 0.54463902268945019 1 0 0 1 I I #
face $-1 $-1 $428 $43 $-1 $429 reversed single #
loop $-1 $-1 $309 $194 #
plane-surface $-1 0 0 6.9935718998789254 0 0 1 1 0 0 forward_v I I I I #
coedge $-1 $430 $431 $308 $432 forward $195 $-1 #
coedge $-1 $308 $197 $199 $314 reversed $123 $-1 #
coedge $-1 $197 $307 $306 $432 reversed $123 $-1 #
coedge $-1 $433 $200 $197 $310 forward $304 $-1 #
edge $-1 $317 -32.008547413172572 $434 -28.153797883040966 $309 $435 forward 7 unknown #
coedge $-1 $199 $198 $430 $436 reversed $78 $-1 #
coedge $-1 $437 $438 $198 $313 forward $428 $-1 #
edge $-1 $439 -5.8231233375512863 $316 1.2544993988745627 $312 $440 forward 7 unknown #
edge $-1 $441 -2.617579141687138e-014 $317 7.0776227364258233 $307 $442 forward 7 unknown #
coedge $-1 $200 $433 $437 $443 forward $304 $-1 #
vertex $-1 $313 $444 #
vertex $-1 $201 $445 #
straight-curve $-1 17.936447280526654 -19.157508876927245 6.9935718998789254 -1 0 0 I I #
coedge $-1 $319 $319 $-1 $446 reversed $204 $-1 #
edge $-1 $447 0 $447 6.2831853071796004 $205 $448 forward 7 unknown #
vertex $-1 $208 $449 #
ellipse-curve $-1 30.980260457255945 -21.084883641993045 4.0256749315222864 0 -0.83867057594974714 0.54463902268945019 1 0 0 1 I I #
coedge $-1 $323 $323 $-1 $450 reversed $211 $-1 #
edge $-1 $451 0 $451 6.2831853071796004 $212 $452 forward 7 unknown #
vertex $-1 $215 $453 #
ellipse-curve $-1 40.76552866485067 -21.084883641993045 4.0256749315222864 0 -0.83867057594974714 0.54463902268945019 1 0 0 1 I I #
face $-1 $-1 $454 $46 $-1 $455 reversed single #
loop $-1 $-1 $222 $216 #
plane-surface $-1 0 0 6.9935718998789254 0 0 1 1 0 0 forward_v I I I I #
coedge $-1 $456 $457 $458 $459 reversed $217 $-1 #
coedge $-1 $460 $219 $221 $337 forward $137 $-1 #
coedge $-1 $219 $460 $456 $461 forward $137 $-1 #
coedge $-1 $458 $222 $219 $334 forward $328 $-1 #
edge $-1 $340 -17.124219363290791 $462 5.7080731210969304 $333 $463 forward 7 unknown #
coedge $-1 $464 $465 $220 $336 forward $454 $-1 #
edge $-1 $466 -44.526271997571719 $339 -38.59047806085843 $335 $467 forward 7 unknown #
edge $-1 $340 38.946894077691873 $466 46.024516814117717 $221 $468 forward 7 unknown #
coedge $-1 $222 $458 $464 $469 forward $328 $-1 #
vertex $-1 $336 $470 #
vertex $-1 $223 $471 #
straight-curve $-1 -22.832292484387722 38.632682361402203 6.9935718998789227 0 -1 0 I I #
coedge $-1 $342 $342 $-1 $472 reversed $226 $-1 #
edge $-1 $473 0 $473 6.2831853071796004 $227 $474 forward 7 unknown #
vertex $-1 $230 $475 #
ellipse-curve $-1 -16.308780345991231 21.084883641993045 4.0256749315222873 0 0.83867057594974714 0.54463902268945019 1 0 0 1 I I #
coedge $-1 $346 $346 $-1 $476 reversed $233 $-1 #
edge $-1 $477 0 $477 6.2831853071796004 $234 $478 forward 7 unknown #
vertex $-1 $237 $479 #
ellipse-curve $-1 -6.5235121383964909 21.084883641993045 4.0256749315222873 0 0.83867057594974714 0.54463902268945019 1 0 0 1 I I #
face $-1 $-1 $363 $49 $-1 $480 reversed single #
loop $-1 $-1 $359 $238 #
plane-surface $-1 47.289040803247168 0 0 -1 0 0 0 0 1 forward_v I I I I #
coedge $-1 $481 $482 $355 $483 forward $239 $-1 #
coedge $-1 $355 $241 $243 $361 reversed $151 $-1 #
coedge $-1 $241 $354 $353 $483 reversed $151 $-1 #
coedge $-1 $484 $244 $241 $357 forward $363 $-1 #
edge $-1 $365 -44.526271997571719 $485 -38.59047806085843 $356 $486 forward 7 unknown #
coedge $-1 $243 $242 $481 $487 reversed $96 $-1 #
coedge $-1 $488 $489 $242 $360 forward $351 $-1 #
edge $-1 $490 21.757759008184287 $364 28.835381744610132 $359 $491 forward 7 unknown #
edge $-1 $492 38.946894077691873 $365 46.024516814117717 $354 $493 forward 7 unknown #
coedge $-1 $244 $484 $488 $494 forward $363 $-1 #
loop $-1 $-1 $356 $350 #
vertex $-1 $360 $495 #
vertex $-1 $245 $496 #
straight-curve $-1 17.936447280526654 23.012258407058852 1.0577779631656377 -1 0 0 I I #
coedge $-1 $367 $367 $-1 $497 reversed $248 $-1 #
edge $-1 $498 0 $498 6.2831853071796004 $249 $499 forward 7 unknown #
vertex $-1 $252 $500 #
ellipse-curve $-1 30.980260457255945 21.084883641993045 4.0256749315222873 0 0.83867057594974714 0.54463902268945019 1 0 0 1 I I #
coedge $-1 $371 $371 $-1 $501 reversed $255 $-1 #
edge $-1 $502 0 $502 6.2831853071796004 $256 $503 forward 7 unknown #
vertex $-1 $259 $504 #
ellipse-curve $-1 40.76552866485067 21.084883641993045 4.0256749315222873 0 0.83867057594974714 0.54463902268945019 1 0 0 1 I I #
face $-1 $-1 $275 $39 $-1 $505 reversed single #
loop $-1 $-1 $391 $260 #
plane-surface $-1 0 23.012258407058852 0 0 -1 0 0 0 -1 forward_v I I I I #
coedge $-1 $506 $389 $392 $507 forward $261 $-1 #
coedge $-1 $395 $263 $264 $383 reversed $165 $-1 #
coedge $-1 $389 $506 $263 $381 reversed $261 $-1 #
edge $-1 $396 -6.9935718998789254 $508 6.9935718998789254 $380 $509 forward 7 unknown #
coedge $-1 $265 $264 $506 $510 forward $105 $-1 #
edge $-1 $387 -47.289040803247168 $508 47.289040803247168 $379 $511 forward 7 unknown #
coedge $-1 $392 $391 $265 $385 reversed $376 $-1 #
edge $-1 $512 -47.289040803247168 $386 47.289040803247168 $384 $513 forward 7 unknown #
vertex $-1 $267 $514 #
vertex $-1 $398 $515 #
straight-curve $-1 47.289040803247168 0 -6.9935718998789254 0 -1 0 I I #
coedge $-1 $378 $380 $268 $390 reversed $261 $-1 #
edge $-1 $393 -23.012258407058852 $396 23.012258407058852 $389 $516 forward 7 unknown #
coedge $-1 $384 $269 $274 $399 forward $376 $-1 #
coedge $-1 $269 $384 $378 $507 reversed $376 $-1 #
vertex $-1 $270 $517 #
straight-curve $-1 0 23.012258407058852 6.9935718998789254 -1 0 0 I I #
coedge $-1 $271 $379 $273 $398 reversed $165 $-1 #
vertex $-1 $390 $518 #
straight-curve $-1 0 -23.012258407058852 6.9935718998789254 1 0 0 I I #
edge $-1 $276 -6.9935718998789254 $387 6.9935718998789254 $273 $519 forward 7 unknown #
edge $-1 $277 -6.9935718998789254 $386 6.9935718998789254 $274 $520 forward 7 unknown #
point $-1 47.289040803247168 -23.012258407058852 6.9935718998789254 #
point $-1 47.289040803247168 23.012258407058852 6.9935718998789254 #
plane-surface $-1 0 0 6.9935718998789254 0 0 1 1 0 0 forward_v I I I I #
coedge $-1 $413 $412 $405 $521 forward $280 $-1 #
coedge $-1 $405 $282 $284 $409 reversed $173 $-1 #
coedge $-1 $282 $404 $403 $521 reversed $173 $-1 #
coedge $-1 $290 $285 $282 $407 forward $291 $-1 #
edge $-1 $410 -32.008547413172572 $522 -28.153797883040966 $406 $523 forward 7 unknown #
coedge $-1 $284 $283 $413 $524 reversed $109 $-1 #
edge $-1 $525 -2.617579141687138e-014 $410 7.0776227364258233 $404 $526 forward 7 unknown #
vertex $-1 $286 $527 #
straight-curve $-1 -5.7080731210969304 -19.157508876927245 6.9935718998789254 -1 0 0 I I #
coedge $-1 $403 $287 $290 $417 reversed $280 $-1 #
coedge $-1 $287 $403 $408 $524 forward $280 $-1 #
vertex $-1 $288 $528 #
straight-curve $-1 0 -23.012258407058852 26.2843459485849 0 0 1 I I #
straight-curve $-1 0 -23.012258407058837 1.0577779631656554 0 -0.54463902268945019 -0.83867057594974714 I I #
edge $-1 $522 -22.832292484387722 $292 0 $412 $529 forward 7 unknown #
point $-1 0 -23.012258407058852 6.9935718998789254 #
point $-1 0 -19.157508876927245 6.9935718998789254 #
edge $-1 $530 1 $530 0 $295 $-1 forward 7 unknown #
vertex $-1 $296 $531 #
ellipse-curve $-1 -16.308780345991231 -18.128868683114057 2.1060164333854487 0 -0.83867057594974714 0.54463902268945019 1 0 0 1 I I #
point $-1 -15.308780345991231 -21.084883641993056 4.0256749315222926 #
edge $-1 $532 1 $532 0 $299 $-1 forward 7 unknown #
vertex $-1 $300 $533 #
ellipse-curve $-1 -6.5235121383964909 -18.128868683114057 2.1060164333854487 0 -0.83867057594974714 0.54463902268945019 1 0 0 1 I I #
point $-1 -5.5235121383964909 -21.084883641993056 4.0256749315222926 #
loop $-1 $-1 $312 $303 #
plane-surface $-1 47.289040803247168 0 0 -1 0 0 0 0 1 forward_v I I I I #
coedge $-1 $534 $306 $311 $436 forward $195 $-1 #
coedge $-1 $306 $534 $433 $535 reversed $195 $-1 #
edge $-1 $434 19.290774048705973 $441 25.226567985419265 $306 $536 forward 7 unknown #
coedge $-1 $315 $309 $431 $535 forward $304 $-1 #
vertex $-1 $535 $537 #
straight-curve $-1 24.456748318859447 -51.166056290099817 6.9935718998789262 0 -1 0 I I #
edge $-1 $441 6.5203010383327928 $439 29.352593522720515 $430 $538 forward 7 unknown #
coedge $-1 $438 $312 $315 $443 reversed $428 $-1 #
coedge $-1 $312 $437 $534 $539 forward $428 $-1 #
vertex $-1 $436 $540 #
straight-curve $-1 47.289040803247168 -19.84075820349479 5.9414601664961841 0 0.54463902268945019 0.83867057594974714 I I #
vertex $-1 $436 $541 #
straight-curve $-1 24.456748318859447 -23.012258407058837 1.0577779631656554 0 0.54463902268945019 0.83867057594974714 I I #
edge $-1 $542 -23.012258407058852 $316 -19.157508876927245 $437 $543 forward 7 unknown #
point $-1 47.289040803247168 -19.157508876927245 6.9935718998789254 #
point $-1 24.456748318859447 -19.157508876927245 6.9935718998789254 #
edge $-1 $544 1 $544 0 $319 $-1 forward 7 unknown #
vertex $-1 $320 $545 #
ellipse-curve $-1 30.980260457255945 -18.128868683114057 2.1060164333854487 0 -0.83867057594974714 0.54463902268945019 1 0 0 1 I I #
point $-1 31.980260457255945 -21.084883641993056 4.0256749315222926 #
edge $-1 $546 1 $546 0 $323 $-1 forward 7 unknown #
vertex $-1 $324 $547 #
ellipse-curve $-1 40.76552866485067 -18.128868683114057 2.1060164333854487 0 -0.83867057594974714 0.54463902268945019 1 0 0 1 I I #
point $-1 41.76552866485067 -21.084883641993056 4.0256749315222926 #
loop $-1 $-1 $335 $327 #
plane-surface $-1 0 23.012258407058852 0 0 -1 0 0 0 -1 forward_v I I I I #
coedge $-1 $457 $330 $332 $461 reversed $217 $-1 #
coedge $-1 $330 $456 $548 $549 reversed $217 $-1 #
coedge $-1 $338 $333 $330 $459 forward $328 $-1 #
edge $-1 $462 -19.475173484474958 $550 -15.620423954343352 $458 $551 forward 7 unknown #
coedge $-1 $332 $331 $465 $552 reversed $137 $-1 #
edge $-1 $553 -46.024516814117717 $462 -38.946894077691873 $456 $554 forward 7 unknown #
vertex $-1 $334 $555 #
straight-curve $-1 -5.7080731210969304 19.157508876927242 6.9935718998789227 1 0 0 I I #
coedge $-1 $548 $335 $338 $469 reversed $454 $-1 #
coedge $-1 $335 $548 $460 $552 forward $454 $-1 #
vertex $-1 $336 $556 #
straight-curve $-1 -22.832292484387722 23.012258407058852 45.584049960737353 0 0 1 I I #
straight-curve $-1 -22.832292484387722 -2.0544894503363906 39.657185987470562 0 0.54463902268945019 -0.83867057594974714 I I #
edge $-1 $550 0 $339 22.832292484387722 $464 $557 forward 7 unknown #
point $-1 -22.832292484387722 23.012258407058852 6.9935718998789254 #
point $-1 -22.832292484387722 19.157508876927245 6.9935718998789227 #
edge $-1 $558 1 $558 0 $342 $-1 forward 7 unknown #
vertex $-1 $343 $559 #
ellipse-curve $-1 -16.308780345991231 18.12886868311405 2.1060164333854452 0 0.83867057594974714 0.54463902268945019 1 0 0 1 I I #
point $-1 -15.308780345991231 21.084883641993049 4.0256749315222891 #
edge $-1 $560 1 $560 0 $346 $-1 forward 7 unknown #
vertex $-1 $347 $561 #
ellipse-curve $-1 -6.5235121383964909 18.12886868311405 2.1060164333854452 0 0.83867057594974714 0.54463902268945019 1 0 0 1 I I #
point $-1 -5.5235121383964909 21.084883641993049 4.0256749315222891 #
plane-surface $-1 0 23.012258407058852 0 0 -1 0 0 0 -1 forward_v I I I I #
coedge $-1 $562 $353 $358 $487 forward $239 $-1 #
coedge $-1 $353 $562 $484 $563 forward $239 $-1 #
edge $-1 $485 15.620423954343352 $492 19.475173484474958 $353 $564 forward 7 unknown #
coedge $-1 $362 $356 $482 $563 reversed $363 $-1 #
vertex $-1 $483 $565 #
straight-curve $-1 24.456748318859447 23.012258407058852 45.584049960737353 0 0 1 I I #
edge $-1 $492 6.5203010383327928 $490 29.352593522720515 $481 $566 forward 7 unknown #
coedge $-1 $489 $359 $362 $494 reversed $351 $-1 #
coedge $-1 $359 $488 $562 $567 reversed $351 $-1 #
vertex $-1 $567 $568 #
straight-curve $-1 47.289040803247168 7.307384274797176 25.241164178648638 0 0.54463902268945019 -0.83867057594974714 I I #
vertex $-1 $487 $569 #
straight-curve $-1 24.456748318859447 -2.0544894503363906 39.657185987470562 0 0.54463902268945019 -0.83867057594974714 I I #
edge $-1 $570 -6.9935718998789254 $364 -1.0577779631656354 $488 $571 forward 7 unknown #
point $-1 47.289040803247168 23.012258407058852 1.0577779631656354 #
point $-1 24.456748318859447 23.012258407058852 1.0577779631656341 #
edge $-1 $572 1 $572 0 $367 $-1 forward 7 unknown #
vertex $-1 $368 $573 #
ellipse-curve $-1 30.980260457255945 18.12886868311405 2.1060164333854452 0 0.83867057594974714 0.54463902268945019 1 0 0 1 I I #
point $-1 31.980260457255945 21.084883641993049 4.0256749315222891 #
edge $-1 $574 1 $574 0 $371 $-1 forward 7 unknown #
vertex $-1 $372 $575 #
ellipse-curve $-1 40.76552866485067 18.12886868311405 2.1060164333854452 0 0.83867057594974714 0.54463902268945019 1 0 0 1 I I #
point $-1 41.76552866485067 21.084883641993049 4.0256749315222891 #
plane-surface $-1 47.289040803247168 0 0 -1 0 0 0 0 1 forward_v I I I I #
coedge $-1 $380 $378 $382 $510 reversed $261 $-1 #
edge $-1 $393 -6.9935718998789254 $512 6.9935718998789254 $392 $576 forward 7 unknown #
vertex $-1 $510 $577 #
straight-curve $-1 -47.289040803247168 -23.012258407058852 0 0 0 -1 I I #
edge $-1 $508 -23.012258407058852 $512 23.012258407058852 $506 $578 forward 7 unknown #
straight-curve $-1 0 -23.012258407058852 -6.9935718998789254 -1 0 0 I I #
vertex $-1 $385 $579 #
straight-curve $-1 0 23.012258407058852 -6.9935718998789254 1 0 0 I I #
point $-1 47.289040803247168 23.012258407058852 -6.9935718998789254 #
point $-1 47.289040803247168 -23.012258407058852 -6.9935718998789254 #
straight-curve $-1 -47.289040803247168 0 6.9935718998789254 0 -1 0 I I #
point $-1 -47.289040803247168 23.012258407058852 6.9935718998789254 #
point $-1 -47.289040803247168 -23.012258407058852 6.9935718998789254 #
straight-curve $-1 47.289040803247168 -23.012258407058852 0 0 0 -1 I I #
straight-curve $-1 47.289040803247168 23.012258407058852 0 0 0 -1 I I #
edge $-1 $522 19.290774048705973 $525 25.226567985419265 $403 $580 forward 7 unknown #
vertex $-1 $417 $581 #
straight-curve $-1 -22.832292484387722 -51.166056290099817 6.9935718998789262 0 -1 0 I I #
edge $-1 $525 -17.124219363290791 $414 5.7080731210969304 $413 $582 forward 7 unknown #
vertex $-1 $524 $583 #
straight-curve $-1 -22.832292484387722 -23.012258407058837 1.0577779631656554 0 0.54463902268945019 0.83867057594974714 I I #
point $-1 -22.832292484387722 -19.157508876927245 6.9935718998789254 #
point $-1 0 -23.012258407058852 1.0577779631656334 #
straight-curve $-1 0 -23.012258407058852 6.9935718998789254 1 0 0 I I #
vertex $-1 $420 $584 #
point $-1 -15.308780345991231 -18.128868683114057 2.1060164333854487 #
vertex $-1 $424 $585 #
point $-1 -5.5235121383964909 -18.128868683114057 2.1060164333854487 #
coedge $-1 $431 $430 $438 $539 reversed $195 $-1 #
edge $-1 $434 24.456748318859447 $542 47.289040803247168 $431 $586 forward 7 unknown #
straight-curve $-1 24.456748318859447 -23.012258407058852 26.2843459485849 0 0 -1 I I #
point $-1 24.456748318859447 -23.012258407058852 6.9935718998789254 #
straight-curve $-1 17.936447280526654 -23.012258407058852 1.0577779631656326 1 0 0 I I #
edge $-1 $542 -6.9935718998789254 $439 -1.0577779631656334 $438 $587 forward 7 unknown #
point $-1 47.289040803247168 -23.012258407058852 1.0577779631656334 #
point $-1 24.456748318859447 -23.012258407058852 1.0577779631656334 #
vertex $-1 $443 $588 #
straight-curve $-1 47.289040803247168 0 6.9935718998789254 0 1 0 I I #
vertex $-1 $446 $589 #
point $-1 31.980260457255945 -18.128868683114057 2.1060164333854487 #
vertex $-1 $450 $590 #
point $-1 41.76552866485067 -18.128868683114057 2.1060164333854487 #
coedge $-1 $465 $464 $457 $549 forward $454 $-1 #
edge $-1 $550 38.59047806085843 $553 44.526271997571719 $548 $591 forward 7 unknown #
vertex $-1 $469 $592 #
straight-curve $-1 0 38.632682361402203 6.9935718998789227 0 1 0 I I #
edge $-1 $553 -5.7080731210969304 $466 17.124219363290791 $465 $593 forward 7 unknown #
vertex $-1 $552 $594 #
straight-curve $-1 0 -2.0544894503363906 39.657185987470562 0 -0.54463902268945019 0.83867057594974714 I I #
point $-1 0 19.157508876927245 6.9935718998789227 #
point $-1 -22.832292484387722 23.012258407058852 1.0577779631656341 #
straight-curve $-1 0 23.012258407058852 6.9935718998789254 -1 0 0 I I #
vertex $-1 $472 $595 #
point $-1 -15.308780345991231 18.12886868311405 2.1060164333854452 #
vertex $-1 $476 $596 #
point $-1 -5.5235121383964909 18.12886868311405 2.1060164333854452 #
coedge $-1 $482 $481 $489 $567 forward $239 $-1 #
edge $-1 $570 -47.289040803247168 $485 -24.456748318859447 $484 $597 forward 7 unknown #
straight-curve $-1 24.456748318859447 38.632682361402203 6.9935718998789227 0 -1 0 I I #
point $-1 24.456748318859447 23.012258407058852 6.9935718998789254 #
straight-curve $-1 17.936447280526654 19.157508876927242 6.9935718998789227 1 0 0 I I #
edge $-1 $490 19.157508876927245 $570 23.012258407058852 $489 $598 forward 7 unknown #
point $-1 47.289040803247168 19.157508876927245 6.9935718998789227 #
point $-1 24.456748318859447 19.157508876927245 6.9935718998789227 #
vertex $-1 $567 $599 #
straight-curve $-1 47.289040803247168 23.012258407058852 0 0 0 -1 I I #
vertex $-1 $497 $600 #
point $-1 31.980260457255945 18.12886868311405 2.1060164333854452 #
vertex $-1 $501 $601 #
point $-1 41.76552866485067 18.12886868311405 2.1060164333854452 #
straight-curve $-1 -47.289040803247168 23.012258407058852 0 0 0 -1 I I #
point $-1 -47.289040803247168 -23.012258407058852 -6.9935718998789254 #
straight-curve $-1 -47.289040803247168 0 -6.9935718998789254 0 1 0 I I #
point $-1 -47.289040803247168 23.012258407058852 -6.9935718998789254 #
straight-curve $-1 -22.832292484387722 -23.012258407058852 26.2843459485849 0 0 -1 I I #
point $-1 -22.832292484387722 -23.012258407058852 6.9935718998789254 #
straight-curve $-1 -5.7080731210969304 -23.012258407058852 1.0577779631656326 1 0 0 I I #
point $-1 -22.832292484387722 -23.012258407058852 1.0577779631656334 #
point $-1 -16.308780345991231 -17.290198107164308 1.5613774106959983 #
point $-1 -6.5235121383964909 -17.290198107164308 1.5613774106959983 #
straight-curve $-1 0 -23.012258407058852 6.9935718998789254 1 0 0 I I #
straight-curve $-1 47.289040803247168 -23.012258407058852 0 0 0 -1 I I #
point $-1 47.289040803247168 -23.012258407058852 6.9935718998789254 #
point $-1 30.980260457255945 -17.290198107164308 1.5613774106959983 #
point $-1 40.76552866485067 -17.290198107164308 1.5613774106959983 #
straight-curve $-1 0 23.012258407058852 45.584049960737353 0 0 -1 I I #
point $-1 0 23.012258407058852 6.9935718998789254 #
straight-curve $-1 -5.7080731210969304 23.012258407058852 1.0577779631656377 -1 0 0 I I #
point $-1 0 23.012258407058852 1.0577779631656341 #
point $-1 -16.308780345991231 17.290198107164301 1.5613774106959948 #
point $-1 -6.5235121383964909 17.290198107164301 1.5613774106959948 #
straight-curve $-1 0 23.012258407058852 6.9935718998789254 -1 0 0 I I #
straight-curve $-1 47.289040803247168 0 6.9935718998789254 0 1 0 I I #
point $-1 47.289040803247168 23.012258407058852 6.9935718998789254 #
point $-1 30.980260457255945 17.290198107164301 1.5613774106959948 #
point $-1 40.76552866485067 17.290198107164301 1.5613774106959948 #
End-of-ACIS-data 