500 0 5 0           
7 Unknown 11 ACIS 5.0 NT 24 Fri Mar 26 00:53:12 1999 
-1 9.9999999999999995e-007 1e-010 
body $-1 $5 $-1 $6 #
body $-1 $7 $-1 $8 #
body $-1 $9 $-1 $10 #
body $-1 $11 $-1 $12 #
body $-1 $13 $-1 $14 #
lump $-1 $-1 $15 $0 #
transform $-1 1 0 0 0 1 0 0 0 1 54.922330393383589 36.690704674768135 16.208205850300644 1 rotate no_reflect no_shear #
lump $-1 $-1 $16 $1 #
transform $-1 1 0 0 0 1 0 0 0 1 54.922330393383589 36.690704674768135 16.208205850300644 1 rotate no_reflect no_shear #
lump $-1 $-1 $17 $2 #
transform $-1 1 0 0 0 1 0 0 0 1 54.922330393383589 36.690704674768135 16.208205850300644 1 rotate no_reflect no_shear #
lump $-1 $-1 $18 $3 #
transform $-1 1 0 0 0 1 0 0 0 1 54.922330393383589 36.690704674768135 16.208205850300644 1 rotate no_reflect no_shear #
lump $-1 $-1 $19 $4 #
transform $-1 1 0 0 0 1 0 0 0 1 54.922330393383589 36.690704674768135 16.208205850300644 1 rotate no_reflect no_shear #
shell $-1 $-1 $-1 $20 $-1 $5 #
shell $-1 $-1 $-1 $21 $-1 $7 #
shell $-1 $-1 $-1 $22 $-1 $9 #
shell $-1 $-1 $-1 $23 $-1 $11 #
shell $-1 $-1 $-1 $24 $-1 $13 #
face $-1 $25 $26 $15 $-1 $27 forward single #
face $-1 $28 $29 $16 $-1 $30 reversed single #
face $-1 $31 $32 $17 $-1 $33 forward single #
face $-1 $34 $35 $18 $-1 $36 reversed single #
face $-1 $37 $38 $19 $-1 $39 reversed single #
face $-1 $40 $41 $15 $-1 $42 reversed single #
loop $-1 $-1 $43 $20 #
plane-surface $-1 0 0 16.208205850300644 0 0 1 1 0 0 forward_v I I I I #
face $-1 $44 $45 $16 $-1 $46 reversed single #
loop $-1 $-1 $47 $21 #
plane-surface $-1 -50.48309142113947 -57.655576477453131 0 0 1 0 0 0 1 forward_v I I I I #
face $-1 $48 $49 $17 $-1 $50 forward single #
loop $-1 $-1 $51 $22 #
plane-surface $-1 22.985348098713587 95.128268544202399 129.41732295026475 1 0 0 0 -0.86602541151947299 -0.49999998660252726 forward_v I I I I #
face $-1 $52 $53 $18 $-1 $54 reversed single #
loop $-1 $55 $56 $23 #
cone-surface $-1 32.110200182905018 33.647970602609007 12.697023497551461 0 -0.86602541151947299 -0.49999998660252726 1.5 0 0 1 I I 0 1 1.5 forward I I I I #
face $-1 $57 $58 $19 $-1 $59 reversed single #
loop $-1 $60 $61 $24 #
cone-surface $-1 45.797478309192172 33.647970602609007 12.697023497551461 0 -0.86602541151947299 -0.49999998660252726 1.5 0 0 1 I I 0 1 1.5 forward I I I I #
face $-1 $62 $63 $15 $-1 $64 reversed single #
loop $-1 $-1 $65 $25 #
plane-surface $-1 0 0 -16.208205850300644 0 0 1 1 0 0 forward_v I I I I #
coedge $-1 $66 $67 $68 $69 forward $26 $-1 #
face $-1 $70 $71 $16 $-1 $72 reversed single #
loop $-1 $-1 $73 $28 #
plane-surface $-1 -46.04385244889535 -47.173140576110633 0 -1 0 0 0 0 1 forward_v I I I I #
coedge $-1 $74 $75 $76 $77 forward $29 $-1 #
face $-1 $78 $79 $17 $-1 $80 forward single #
loop $-1 $-1 $81 $31 #
plane-surface $-1 38.953839246048588 9.8312543173051381e-007 74.494994028522001 0 0.86602541151947299 0.49999998660252726 1 0 0 forward_v I I I I #
coedge $-1 $82 $83 $84 $85 reversed $32 $-1 #
face $-1 $86 $87 $18 $-1 $88 forward single #
loop $-1 $89 $90 $34 #
cone-surface $-1 32.110200182905018 31.475123496317956 11.442529680645215 0 -0.86602541151947299 -0.49999998660252726 0.75 0 0 1 I I -0.70710678118654757 0.70710678118654757 0.75 forward I I I I #
loop $-1 $-1 $91 $23 #
coedge $-1 $56 $56 $92 $93 reversed $35 $-1 #
face $-1 $94 $95 $19 $-1 $96 reversed single #
loop $-1 $97 $98 $37 #
cone-surface $-1 45.797478309192172 31.475123496317956 11.442529680645215 0 -0.86602541151947299 -0.49999998660252726 0.75 0 0 1 I I -0.70710678118654757 0.70710678118654757 0.75 forward I I I I #
loop $-1 $-1 $99 $24 #
coedge $-1 $61 $61 $100 $101 reversed $38 $-1 #
face $-1 $102 $103 $15 $-1 $104 reversed single #
loop $-1 $-1 $105 $40 #
plane-surface $-1 0 -36.690704674768135 0 0 1 0 0 0 1 forward_v I I I I #
coedge $-1 $106 $107 $108 $109 forward $41 $-1 #
coedge $-1 $110 $43 $111 $112 forward $26 $-1 #
coedge $-1 $43 $110 $113 $114 forward $26 $-1 #
coedge $-1 $115 $116 $43 $69 reversed $117 $-1 #
edge $-1 $118 -36.690704674768135 $119 36.690704674768135 $68 $120 forward 7 unknown #
face $-1 $121 $122 $16 $-1 $123 forward single #
loop $-1 $-1 $124 $44 #
plane-surface $-1 0 -36.690704674768135 0 0 1 0 0 0 1 forward_v I I I I #
coedge $-1 $125 $126 $127 $128 forward $45 $-1 #
coedge $-1 $127 $47 $129 $130 reversed $29 $-1 #
coedge $-1 $47 $127 $131 $132 reversed $29 $-1 #
coedge $-1 $133 $134 $47 $77 reversed $135 $-1 #
edge $-1 $136 -16.208205850300644 $137 16.208205850300644 $76 $138 forward 7 unknown #
face $-1 $139 $140 $17 $-1 $141 reversed single #
loop $-1 $-1 $142 $48 #
plane-surface $-1 0 0 16.208205850300644 0 0 1 1 0 0 forward_v I I I I #
coedge $-1 $143 $144 $142 $145 reversed $49 $-1 #
coedge $-1 $83 $51 $144 $146 forward $32 $-1 #
coedge $-1 $51 $82 $147 $148 reversed $32 $-1 #
coedge $-1 $149 $142 $51 $85 forward $79 $-1 #
edge $-1 $150 -13.912241646348463 $151 -10.873429597333065 $84 $152 forward 7 unknown #
face $-1 $153 $154 $18 $-1 $155 forward single #
loop $-1 $-1 $156 $52 #
plane-surface $-1 22.985348098713587 95.128268544202399 129.41732295026475 1 0 0 0 -0.86602541151947299 -0.49999998660252726 forward_v I I I I #
loop $-1 $-1 $157 $34 #
coedge $-1 $90 $90 $91 $158 forward $53 $-1 #
coedge $-1 $91 $91 $90 $158 reversed $55 $-1 #
coedge $-1 $92 $92 $56 $93 forward $154 $-1 #
edge $-1 $159 7.3633592741354528e-017 $159 6.2831853071796004 $92 $160 forward 7 unknown #
face $-1 $161 $162 $19 $-1 $163 reversed single #
loop $-1 $164 $165 $57 #
cone-surface $-1 32.110200182905018 33.647970602609007 12.697023497551461 0 -0.86602541151947299 -0.49999998660252726 1.5 0 0 1 I I 0 1 1.5 forward I I I I #
loop $-1 $-1 $166 $37 #
coedge $-1 $98 $98 $99 $167 forward $58 $-1 #
coedge $-1 $99 $99 $98 $167 reversed $60 $-1 #
coedge $-1 $100 $100 $61 $101 forward $168 $-1 #
edge $-1 $169 7.3633592741354528e-017 $169 6.2831853071796004 $100 $170 forward 7 unknown #
face $-1 $171 $172 $15 $-1 $173 reversed single #
loop $-1 $-1 $174 $62 #
plane-surface $-1 -54.922330393383589 0 0 1 0 0 0 0 -1 forward_v I I I I #
coedge $-1 $175 $113 $176 $177 forward $63 $-1 #
coedge $-1 $178 $65 $175 $179 forward $41 $-1 #
coedge $-1 $65 $178 $180 $181 forward $41 $-1 #
coedge $-1 $116 $115 $65 $109 reversed $117 $-1 #
edge $-1 $182 -36.690704674768135 $183 36.690704674768135 $108 $184 forward 7 unknown #
coedge $-1 $67 $66 $185 $186 forward $26 $-1 #
coedge $-1 $187 $188 $66 $112 reversed $172 $-1 #
edge $-1 $119 -54.922330393383589 $189 54.922330393383589 $111 $190 forward 7 unknown #
coedge $-1 $105 $191 $67 $114 reversed $63 $-1 #
edge $-1 $192 -54.922330393383589 $118 54.922330393383589 $113 $193 forward 7 unknown #
coedge $-1 $108 $68 $191 $194 forward $117 $-1 #
coedge $-1 $68 $108 $187 $195 reversed $117 $-1 #
loop $-1 $-1 $115 $171 #
vertex $-1 $69 $196 #
vertex $-1 $69 $197 #
straight-curve $-1 54.922330393383589 0 16.208205850300644 0 1 0 I I #
face $-1 $198 $199 $16 $-1 $200 reversed single #
loop $-1 $-1 $201 $70 #
plane-surface $-1 0 0 16.208205850300644 0 0 1 1 0 0 forward_v I I I I #
coedge $-1 $202 $203 $204 $205 forward $71 $-1 #
coedge $-1 $204 $73 $206 $207 reversed $45 $-1 #
coedge $-1 $73 $204 $208 $209 reversed $45 $-1 #
coedge $-1 $75 $74 $73 $128 reversed $29 $-1 #
edge $-1 $210 -16.208205850300644 $211 16.208205850300644 $73 $212 forward 7 unknown #
coedge $-1 $213 $206 $74 $130 forward $199 $-1 #
edge $-1 $211 -4.4392389722441195 $137 4.4392389722441195 $74 $214 forward 7 unknown #
coedge $-1 $208 $215 $75 $132 forward $122 $-1 #
edge $-1 $136 -4.4392389722441195 $210 4.4392389722441195 $75 $216 forward 7 unknown #
coedge $-1 $217 $76 $215 $218 reversed $135 $-1 #
coedge $-1 $76 $217 $213 $219 reversed $135 $-1 #
loop $-1 $-1 $217 $198 #
vertex $-1 $218 $220 #
vertex $-1 $219 $221 #
straight-curve $-1 -54.922330393383589 -57.655576477453131 0 0 0 -1 I I #
face $-1 $222 $223 $17 $-1 $224 reversed single #
loop $-1 $-1 $147 $78 #
plane-surface $-1 0 36.690704674768135 0 0 -1 0 0 0 -1 forward_v I I I I #
coedge $-1 $84 $225 $81 $145 forward $79 $-1 #
coedge $-1 $226 $81 $227 $228 reversed $49 $-1 #
coedge $-1 $81 $226 $82 $146 reversed $49 $-1 #
edge $-1 $229 -35.445410770359295 $150 -3.5084284756892927 $142 $230 forward 7 unknown #
edge $-1 $150 67.303785088655857 $231 73.38140934953627 $82 $232 forward 7 unknown #
coedge $-1 $233 $234 $83 $148 forward $140 $-1 #
edge $-1 $151 48.50045562483173 $231 53.763832676421423 $147 $235 forward 7 unknown #
coedge $-1 $236 $84 $234 $237 forward $79 $-1 #
vertex $-1 $145 $238 #
vertex $-1 $237 $239 #
straight-curve $-1 22.985348098713587 47.564134272101199 16.208205850300644 0 1 0 I I #
face $-1 $240 $241 $18 $-1 $242 forward single #
loop $-1 $243 $92 $86 #
plane-surface $-1 38.953839246048588 9.8312543173051381e-007 74.494994028522001 0 0.86602541151947299 0.49999998660252726 1 0 0 forward_v I I I I #
coedge $-1 $244 $245 $246 $247 reversed $87 $-1 #
coedge $-1 $157 $157 $-1 $248 forward $89 $-1 #
edge $-1 $249 0 $249 6.2831853071796004 $90 $250 forward 7 unknown #
vertex $-1 $93 $251 #
ellipse-curve $-1 32.110200182905018 35.171298650260432 13.576517324505799 0 -0.86602541151947299 -0.49999998660252726 1.5 0 0 1 I I #
face $-1 $252 $253 $19 $-1 $254 forward single #
loop $-1 $255 $256 $94 #
cone-surface $-1 32.110200182905018 31.475123496317956 11.442529680645215 0 -0.86602541151947299 -0.49999998660252726 0.75 0 0 1 I I -0.70710678118654757 0.70710678118654757 0.75 forward I I I I #
loop $-1 $-1 $257 $57 #
coedge $-1 $165 $165 $258 $259 reversed $95 $-1 #
coedge $-1 $166 $166 $-1 $260 forward $97 $-1 #
edge $-1 $261 0 $261 6.2831853071796004 $98 $262 forward 7 unknown #
loop $-1 $263 $100 $252 #
vertex $-1 $101 $264 #
ellipse-curve $-1 45.797478309192172 35.171298650260432 13.576517324505799 0 -0.86602541151947299 -0.49999998660252726 1.5 0 0 1 I I #
face $-1 $-1 $117 $15 $-1 $265 reversed single #
loop $-1 $-1 $187 $102 #
plane-surface $-1 0 36.690704674768135 0 0 -1 0 0 0 -1 forward_v I I I I #
coedge $-1 $266 $185 $188 $267 forward $103 $-1 #
coedge $-1 $191 $105 $106 $179 reversed $63 $-1 #
coedge $-1 $185 $266 $105 $177 reversed $103 $-1 #
edge $-1 $192 -16.208205850300644 $268 16.208205850300644 $176 $269 forward 7 unknown #
coedge $-1 $107 $106 $266 $270 forward $41 $-1 #
edge $-1 $183 -54.922330393383589 $268 54.922330393383589 $175 $271 forward 7 unknown #
coedge $-1 $188 $187 $107 $181 reversed $172 $-1 #
edge $-1 $272 -54.922330393383589 $182 54.922330393383589 $180 $273 forward 7 unknown #
vertex $-1 $109 $274 #
vertex $-1 $194 $275 #
straight-curve $-1 54.922330393383589 0 -16.208205850300644 0 -1 0 I I #
coedge $-1 $174 $176 $110 $186 reversed $103 $-1 #
edge $-1 $189 -36.690704674768135 $192 36.690704674768135 $185 $276 forward 7 unknown #
coedge $-1 $180 $111 $116 $195 forward $172 $-1 #
coedge $-1 $111 $180 $174 $267 reversed $172 $-1 #
vertex $-1 $112 $277 #
straight-curve $-1 0 36.690704674768135 16.208205850300644 -1 0 0 I I #
coedge $-1 $113 $175 $115 $194 reversed $63 $-1 #
vertex $-1 $186 $278 #
straight-curve $-1 0 -36.690704674768135 16.208205850300644 1 0 0 I I #
edge $-1 $118 -16.208205850300644 $183 16.208205850300644 $115 $279 forward 7 unknown #
edge $-1 $119 -16.208205850300644 $182 16.208205850300644 $116 $280 forward 7 unknown #
point $-1 54.922330393383589 -36.690704674768135 16.208205850300644 #
point $-1 54.922330393383589 36.690704674768135 16.208205850300644 #
face $-1 $281 $135 $16 $-1 $282 reversed single #
loop $-1 $-1 $283 $121 #
plane-surface $-1 0 0 -16.208205850300644 0 0 1 1 0 0 forward_v I I I I #
coedge $-1 $284 $285 $286 $287 forward $122 $-1 #
coedge $-1 $288 $124 $289 $290 reversed $71 $-1 #
coedge $-1 $124 $288 $285 $291 reversed $71 $-1 #
coedge $-1 $126 $125 $124 $205 reversed $45 $-1 #
edge $-1 $292 -16.208205850300644 $293 16.208205850300644 $124 $294 forward 7 unknown #
coedge $-1 $129 $289 $125 $207 forward $199 $-1 #
edge $-1 $293 -10.482435901342498 $211 10.482435901342498 $125 $295 forward 7 unknown #
coedge $-1 $285 $131 $126 $209 forward $122 $-1 #
edge $-1 $210 -10.482435901342498 $292 10.482435901342498 $126 $296 forward 7 unknown #
vertex $-1 $209 $297 #
vertex $-1 $128 $298 #
straight-curve $-1 -46.04385244889535 -57.655576477453131 0 0 0 -1 I I #
coedge $-1 $299 $129 $134 $219 forward $199 $-1 #
straight-curve $-1 -50.48309142113947 -57.655576477453131 -16.208205850300644 -1 0 0 I I #
coedge $-1 $131 $284 $133 $218 forward $122 $-1 #
straight-curve $-1 -50.48309142113947 -57.655576477453131 16.208205850300644 1 0 0 I I #
coedge $-1 $134 $133 $300 $301 forward $135 $-1 #
edge $-1 $302 -36.690704674768135 $136 57.655576477453131 $133 $303 forward 7 unknown #
edge $-1 $137 -57.655576477453131 $304 36.690704674768135 $134 $305 forward 7 unknown #
point $-1 -54.922330393383589 -57.655576477453131 16.208205850300644 #
point $-1 -54.922330393383589 -57.655576477453131 -16.208205850300644 #
face $-1 $306 $307 $17 $-1 $308 reversed single #
loop $-1 $-1 $309 $139 #
plane-surface $-1 -50.48309142113947 -57.655576477453131 0 0 1 0 0 0 1 forward_v I I I I #
coedge $-1 $142 $310 $311 $312 forward $79 $-1 #
coedge $-1 $144 $143 $233 $313 reversed $49 $-1 #
coedge $-1 $311 $314 $143 $228 forward $315 $-1 #
edge $-1 $316 -41.124130665471895 $229 -35.046506404591483 $227 $317 forward 7 unknown #
vertex $-1 $228 $318 #
straight-curve $-1 19.476919623024294 33.651892625752723 16.208205850300651 -1 0 0 I I #
vertex $-1 $313 $319 #
straight-curve $-1 22.985348098713587 9.8312543173051381e-007 74.494994028522001 0 0.49999998660252726 -0.86602541151947299 I I #
coedge $-1 $320 $147 $226 $313 forward $140 $-1 #
coedge $-1 $147 $321 $149 $237 reversed $140 $-1 #
straight-curve $-1 22.985348098713587 36.690704674768135 64.708661475132374 0 0 -1 I I #
coedge $-1 $322 $149 $323 $324 forward $79 $-1 #
edge $-1 $151 -22.985348098713587 $325 54.922330393383589 $234 $326 forward 7 unknown #
point $-1 22.985348098713587 33.651892625752737 16.208205850300644 #
point $-1 22.985348098713587 36.690704674768135 16.208205850300644 #
face $-1 $327 $328 $18 $-1 $329 reversed single #
loop $-1 $-1 $330 $153 #
plane-surface $-1 0 0 16.208205850300644 0 0 1 1 0 0 forward_v I I I I #
loop $-1 $-1 $331 $86 #
coedge $-1 $245 $156 $332 $333 forward $87 $-1 #
coedge $-1 $156 $244 $334 $335 reversed $87 $-1 #
coedge $-1 $336 $330 $156 $247 forward $241 $-1 #
edge $-1 $337 -13.912241646348463 $338 -10.873429597333065 $246 $339 forward 7 unknown #
edge $-1 $340 1 $340 0 $157 $-1 forward 7 unknown #
vertex $-1 $158 $341 #
ellipse-curve $-1 32.110200182905018 32.12464255495756 11.817529670597111 0 0.86602541151947299 0.49999998660252726 1.5 0 0 1 I I #
point $-1 33.610200182905018 35.171298650260454 13.576517324505812 #
face $-1 $342 $168 $19 $-1 $343 forward single #
loop $-1 $-1 $344 $161 #
plane-surface $-1 22.985348098713587 95.128268544202399 129.41732295026475 1 0 0 0 -0.86602541151947299 -0.49999998660252726 forward_v I I I I #
loop $-1 $-1 $345 $94 #
coedge $-1 $256 $256 $257 $346 forward $162 $-1 #
coedge $-1 $257 $257 $256 $346 reversed $164 $-1 #
coedge $-1 $258 $258 $165 $259 forward $263 $-1 #
edge $-1 $347 7.3633592741354528e-017 $347 6.2831853071796004 $258 $348 forward 7 unknown #
edge $-1 $349 1 $349 0 $166 $-1 forward 7 unknown #
vertex $-1 $167 $350 #
ellipse-curve $-1 45.797478309192172 32.12464255495756 11.817529670597111 0 0.86602541151947299 0.49999998660252726 1.5 0 0 1 I I #
loop $-1 $351 $258 $252 #
point $-1 47.297478309192172 35.171298650260454 13.576517324505812 #
plane-surface $-1 54.922330393383589 0 0 -1 0 0 0 0 1 forward_v I I I I #
coedge $-1 $176 $174 $178 $270 reversed $103 $-1 #
edge $-1 $189 -16.208205850300644 $272 16.208205850300644 $188 $352 forward 7 unknown #
vertex $-1 $270 $353 #
straight-curve $-1 -54.922330393383589 -36.690704674768135 0 0 0 -1 I I #
edge $-1 $268 -36.690704674768135 $272 36.690704674768135 $266 $354 forward 7 unknown #
straight-curve $-1 0 -36.690704674768135 -16.208205850300644 -1 0 0 I I #
vertex $-1 $181 $355 #
straight-curve $-1 0 36.690704674768135 -16.208205850300644 1 0 0 I I #
point $-1 54.922330393383589 36.690704674768135 -16.208205850300644 #
point $-1 54.922330393383589 -36.690704674768135 -16.208205850300644 #
straight-curve $-1 -54.922330393383589 0 16.208205850300644 0 -1 0 I I #
point $-1 -54.922330393383589 36.690704674768135 16.208205850300644 #
point $-1 -54.922330393383589 -36.690704674768135 16.208205850300644 #
straight-curve $-1 54.922330393383589 -36.690704674768135 0 0 0 -1 I I #
straight-curve $-1 54.922330393383589 36.690704674768135 0 0 0 -1 I I #
face $-1 $356 $357 $16 $-1 $358 reversed single #
plane-surface $-1 -54.922330393383589 0 0 1 0 0 0 0 -1 forward_v I I I I #
coedge $-1 $289 $299 $359 $360 forward $199 $-1 #
coedge $-1 $215 $201 $361 $362 forward $122 $-1 #
coedge $-1 $201 $208 $203 $291 forward $122 $-1 #
coedge $-1 $363 $364 $201 $287 reversed $365 $-1 #
edge $-1 $366 -36.690704674768135 $367 36.690704674768135 $286 $368 forward 7 unknown #
coedge $-1 $203 $202 $363 $369 reversed $71 $-1 #
coedge $-1 $206 $283 $202 $290 forward $199 $-1 #
edge $-1 $370 -54.922330393383589 $293 46.04385244889535 $202 $371 forward 7 unknown #
edge $-1 $292 -46.04385244889535 $366 54.922330393383589 $203 $372 forward 7 unknown #
vertex $-1 $291 $373 #
vertex $-1 $207 $374 #
straight-curve $-1 -46.04385244889535 -36.690704674768135 0 0 0 -1 I I #
straight-curve $-1 -46.04385244889535 -47.173140576110633 -16.208205850300644 0 -1 0 I I #
straight-curve $-1 -46.04385244889535 -47.173140576110633 16.208205850300644 0 1 0 I I #
point $-1 -46.04385244889535 -57.655576477453131 16.208205850300644 #
point $-1 -46.04385244889535 -57.655576477453131 -16.208205850300644 #
coedge $-1 $283 $213 $375 $376 forward $199 $-1 #
coedge $-1 $361 $375 $217 $301 reversed $357 $-1 #
edge $-1 $302 -16.208205850300644 $304 16.208205850300644 $300 $377 forward 7 unknown #
vertex $-1 $362 $378 #
straight-curve $-1 -54.922330393383589 0 16.208205850300644 0 -1 0 I I #
vertex $-1 $376 $379 #
straight-curve $-1 -54.922330393383589 0 -16.208205850300644 0 1 0 I I #
face $-1 $380 $381 $17 $-1 $382 reversed single #
loop $-1 $-1 $383 $222 #
plane-surface $-1 -46.04385244889535 -47.173140576110633 0 -1 0 0 0 0 1 forward_v I I I I #
coedge $-1 $384 $385 $386 $387 forward $223 $-1 #
coedge $-1 $225 $388 $389 $390 forward $79 $-1 #
coedge $-1 $391 $227 $225 $312 reversed $315 $-1 #
edge $-1 $392 -36.690704674768135 $229 33.651892625752737 $311 $393 forward 7 unknown #
edge $-1 $231 3.5084284756892927 $316 35.445410770359295 $233 $394 forward 7 unknown #
coedge $-1 $227 $395 $320 $396 reversed $315 $-1 #
loop $-1 $-1 $227 $397 #
vertex $-1 $396 $398 #
straight-curve $-1 54.922330393383589 16.128639892991604 46.559370981656826 0 -0.49999998660252726 0.86602541151947299 I I #
point $-1 54.922330393383589 33.651892625752737 16.208205850300644 #
point $-1 22.985348098713587 36.690704674768135 10.944828798710951 #
coedge $-1 $399 $233 $314 $396 forward $140 $-1 #
coedge $-1 $234 $399 $400 $401 reversed $140 $-1 #
coedge $-1 $388 $236 $385 $402 forward $79 $-1 #
coedge $-1 $400 $386 $236 $324 reversed $403 $-1 #
edge $-1 $325 -36.690704674768135 $404 57.655576477453131 $323 $405 forward 7 unknown #
vertex $-1 $237 $406 #
straight-curve $-1 0 36.690704674768135 16.208205850300644 -1 0 0 I I #
face $-1 $407 $408 $18 $-1 $409 reversed single #
loop $-1 $-1 $334 $240 #
plane-surface $-1 0 36.690704674768135 0 0 -1 0 0 0 -1 forward_v I I I I #
coedge $-1 $246 $410 $331 $411 forward $241 $-1 #
coedge $-1 $412 $332 $330 $411 reversed $243 $-1 #
coedge $-1 $331 $413 $244 $333 reversed $243 $-1 #
edge $-1 $337 67.303785088655857 $414 73.38140934953627 $244 $415 forward 7 unknown #
coedge $-1 $416 $417 $245 $335 forward $328 $-1 #
edge $-1 $338 48.50045562483173 $414 53.763832676421423 $334 $418 forward 7 unknown #
coedge $-1 $419 $246 $417 $420 forward $241 $-1 #
vertex $-1 $411 $421 #
vertex $-1 $420 $422 #
straight-curve $-1 22.985348098713587 47.564134272101199 16.208205850300644 0 1 0 I I #
vertex $-1 $248 $423 #
point $-1 33.610200182905018 32.12464255495756 11.817529670597111 #
face $-1 $424 $425 $19 $-1 $426 forward single #
plane-surface $-1 38.953839246048588 9.8312543173051381e-007 74.494994028522001 0 0.86602541151947299 0.49999998660252726 1 0 0 forward_v I I I I #
coedge $-1 $427 $428 $429 $430 reversed $253 $-1 #
coedge $-1 $345 $345 $-1 $431 forward $255 $-1 #
edge $-1 $432 0 $432 6.2831853071796004 $256 $433 forward 7 unknown #
vertex $-1 $259 $434 #
ellipse-curve $-1 32.110200182905018 35.171298650260432 13.576517324505799 0 -0.86602541151947299 -0.49999998660252726 1.5 0 0 1 I I #
vertex $-1 $260 $435 #
point $-1 47.297478309192172 32.12464255495756 11.817529670597111 #
loop $-1 $-1 $436 $252 #
straight-curve $-1 -54.922330393383589 36.690704674768135 0 0 0 -1 I I #
point $-1 -54.922330393383589 -36.690704674768135 -16.208205850300644 #
straight-curve $-1 -54.922330393383589 0 -16.208205850300644 0 1 0 I I #
point $-1 -54.922330393383589 36.690704674768135 -16.208205850300644 #
face $-1 $-1 $365 $16 $-1 $437 reversed single #
loop $-1 $-1 $438 $281 #
plane-surface $-1 0 36.690704674768135 0 0 -1 0 0 0 -1 forward_v I I I I #
coedge $-1 $364 $363 $283 $360 reversed $365 $-1 #
edge $-1 $439 -36.690704674768135 $370 36.690704674768135 $359 $440 forward 7 unknown #
coedge $-1 $438 $300 $284 $362 reversed $357 $-1 #
edge $-1 $367 -54.922330393383589 $302 54.922330393383589 $361 $441 forward 7 unknown #
coedge $-1 $359 $286 $288 $369 forward $365 $-1 #
coedge $-1 $286 $359 $438 $442 reversed $365 $-1 #
loop $-1 $-1 $363 $356 #
vertex $-1 $287 $443 #
vertex $-1 $287 $444 #
straight-curve $-1 54.922330393383589 0 16.208205850300644 0 1 0 I I #
edge $-1 $366 -16.208205850300644 $370 16.208205850300644 $363 $445 forward 7 unknown #
vertex $-1 $369 $446 #
straight-curve $-1 0 -36.690704674768135 -16.208205850300644 -1 0 0 I I #
straight-curve $-1 0 -36.690704674768135 16.208205850300644 1 0 0 I I #
point $-1 -46.04385244889535 -36.690704674768135 16.208205850300644 #
point $-1 -46.04385244889535 -36.690704674768135 -16.208205850300644 #
coedge $-1 $300 $438 $299 $376 reversed $357 $-1 #
edge $-1 $304 -54.922330393383589 $439 54.922330393383589 $375 $447 forward 7 unknown #
straight-curve $-1 -54.922330393383589 36.690704674768135 0 0 0 -1 I I #
point $-1 -54.922330393383589 36.690704674768135 16.208205850300644 #
point $-1 -54.922330393383589 36.690704674768135 -16.208205850300644 #
face $-1 $448 $449 $17 $-1 $450 reversed single #
loop $-1 $-1 $451 $306 #
plane-surface $-1 0 -36.690704674768135 0 0 1 0 0 0 1 forward_v I I I I #
coedge $-1 $452 $453 $454 $455 forward $307 $-1 #
coedge $-1 $454 $309 $456 $457 reversed $223 $-1 #
coedge $-1 $309 $454 $322 $402 reversed $223 $-1 #
coedge $-1 $323 $458 $309 $387 reversed $403 $-1 #
edge $-1 $404 -16.208205850300644 $459 16.208205850300644 $386 $460 forward 7 unknown #
coedge $-1 $310 $322 $453 $461 forward $79 $-1 #
coedge $-1 $451 $462 $310 $390 reversed $381 $-1 #
edge $-1 $463 -46.04385244889535 $392 54.922330393383589 $389 $464 forward 7 unknown #
coedge $-1 $395 $311 $462 $465 forward $315 $-1 #
vertex $-1 $312 $466 #
straight-curve $-1 54.922330393383589 0 16.208205850300644 0 1 0 I I #
straight-curve $-1 19.476919623024294 36.690704674768135 10.944828798710947 1 0 0 I I #
coedge $-1 $314 $391 $467 $468 reversed $315 $-1 #
edge $-1 $316 -10.944828798710951 $469 16.208205850300644 $314 $470 forward 7 unknown #
face $-1 $-1 $315 $17 $-1 $471 reversed single #
point $-1 54.922330393383589 36.690704674768135 10.944828798710951 #
coedge $-1 $321 $320 $472 $473 reversed $140 $-1 #
coedge $-1 $458 $323 $321 $401 forward $403 $-1 #
edge $-1 $325 -16.208205850300644 $474 16.208205850300644 $321 $475 forward 7 unknown #
edge $-1 $404 -4.4392389722441195 $476 4.4392389722441195 $385 $477 forward 7 unknown #
loop $-1 $-1 $400 $448 #
vertex $-1 $324 $478 #
straight-curve $-1 -54.922330393383589 0 16.208205850300644 0 -1 0 I I #
point $-1 -54.922330393383589 36.690704674768135 16.208205850300644 #
face $-1 $479 $480 $18 $-1 $481 reversed single #
loop $-1 $-1 $482 $327 #
plane-surface $-1 -50.48309142113947 -57.655576477453131 0 0 1 0 0 0 1 forward_v I I I I #
coedge $-1 $330 $483 $484 $485 forward $241 $-1 #
edge $-1 $486 -35.445410770359295 $337 -3.5084284756892927 $330 $487 forward 7 unknown #
coedge $-1 $413 $331 $488 $489 reversed $243 $-1 #
coedge $-1 $332 $412 $416 $490 reversed $243 $-1 #
vertex $-1 $490 $491 #
straight-curve $-1 22.985348098713587 9.8312543173051381e-007 74.494994028522001 0 0.49999998660252726 -0.86602541151947299 I I #
coedge $-1 $492 $334 $413 $490 forward $328 $-1 #
coedge $-1 $334 $493 $336 $420 reversed $328 $-1 #
straight-curve $-1 22.985348098713587 36.690704674768135 64.708661475132374 0 0 -1 I I #
coedge $-1 $494 $336 $495 $496 forward $241 $-1 #
edge $-1 $338 -22.985348098713587 $497 54.922330393383589 $417 $498 forward 7 unknown #
point $-1 22.985348098713587 33.651892625752737 16.208205850300644 #
point $-1 22.985348098713587 36.690704674768135 16.208205850300644 #
point $-1 32.110200182905018 30.825604437678351 11.06752969069332 #
face $-1 $499 $500 $19 $-1 $501 reversed single #
loop $-1 $-1 $502 $342 #
plane-surface $-1 0 0 16.208205850300644 0 0 1 1 0 0 forward_v I I I I #
coedge $-1 $428 $344 $503 $504 forward $253 $-1 #
coedge $-1 $344 $427 $505 $506 reversed $253 $-1 #
coedge $-1 $507 $502 $344 $430 forward $425 $-1 #
edge $-1 $508 -13.912241646348463 $509 -10.873429597333065 $429 $510 forward 7 unknown #
edge $-1 $511 1 $511 0 $345 $-1 forward 7 unknown #
vertex $-1 $346 $512 #
ellipse-curve $-1 32.110200182905018 32.12464255495756 11.817529670597111 0 0.86602541151947299 0.49999998660252726 1.5 0 0 1 I I #
point $-1 33.610200182905018 35.171298650260454 13.576517324505812 #
point $-1 45.797478309192172 30.825604437678351 11.06752969069332 #
coedge $-1 $513 $503 $502 $514 reversed $351 $-1 #
plane-surface $-1 54.922330393383589 0 0 -1 0 0 0 0 1 forward_v I I I I #
coedge $-1 $375 $361 $364 $442 forward $357 $-1 #
vertex $-1 $360 $515 #
straight-curve $-1 54.922330393383589 0 -16.208205850300644 0 -1 0 I I #
straight-curve $-1 0 36.690704674768135 16.208205850300644 -1 0 0 I I #
edge $-1 $367 -16.208205850300644 $439 16.208205850300644 $364 $516 forward 7 unknown #
point $-1 54.922330393383589 -36.690704674768135 16.208205850300644 #
point $-1 54.922330393383589 36.690704674768135 16.208205850300644 #
straight-curve $-1 54.922330393383589 -36.690704674768135 0 0 0 -1 I I #
point $-1 54.922330393383589 -36.690704674768135 -16.208205850300644 #
straight-curve $-1 0 36.690704674768135 -16.208205850300644 1 0 0 I I #
face $-1 $397 $403 $17 $-1 $517 reversed single #
loop $-1 $-1 $467 $380 #
plane-surface $-1 0 0 -16.208205850300644 0 0 1 1 0 0 forward_v I I I I #
coedge $-1 $518 $389 $519 $520 forward $381 $-1 #
coedge $-1 $519 $383 $521 $522 reversed $307 $-1 #
coedge $-1 $383 $519 $388 $461 reversed $307 $-1 #
coedge $-1 $385 $384 $383 $455 reversed $223 $-1 #
edge $-1 $476 -16.208205850300644 $523 16.208205850300644 $383 $524 forward 7 unknown #
coedge $-1 $525 $521 $384 $457 forward $449 $-1 #
edge $-1 $523 -4.4392389722441195 $459 4.4392389722441195 $384 $526 forward 7 unknown #
coedge $-1 $386 $400 $525 $527 reversed $403 $-1 #
vertex $-1 $527 $528 #
straight-curve $-1 -54.922330393383589 -57.655576477453131 0 0 0 -1 I I #
edge $-1 $476 -10.482435901342498 $463 10.482435901342498 $453 $529 forward 7 unknown #
coedge $-1 $389 $518 $391 $465 reversed $381 $-1 #
vertex $-1 $390 $530 #
straight-curve $-1 0 -36.690704674768135 16.208205850300644 1 0 0 I I #
edge $-1 $392 -16.208205850300644 $531 16.208205850300644 $391 $532 forward 7 unknown #
point $-1 54.922330393383589 -36.690704674768135 16.208205850300644 #
coedge $-1 $533 $472 $395 $468 forward $449 $-1 #
edge $-1 $469 -36.690704674768135 $531 36.690704674768135 $395 $534 forward 7 unknown #
vertex $-1 $468 $535 #
straight-curve $-1 54.922330393383589 36.690704674768135 0 0 0 -1 I I #
plane-surface $-1 54.922330393383589 0 0 -1 0 0 0 0 1 forward_v I I I I #
coedge $-1 $467 $525 $399 $473 forward $449 $-1 #
edge $-1 $474 -54.922330393383589 $469 54.922330393383589 $399 $536 forward 7 unknown #
vertex $-1 $473 $537 #
straight-curve $-1 -54.922330393383589 36.690704674768135 0 0 0 -1 I I #
vertex $-1 $461 $538 #
straight-curve $-1 -50.48309142113947 -57.655576477453131 16.208205850300644 1 0 0 I I #
point $-1 -54.922330393383589 -57.655576477453131 16.208205850300644 #
face $-1 $539 $540 $18 $-1 $541 reversed single #
loop $-1 $-1 $542 $407 #
plane-surface $-1 -46.04385244889535 -47.173140576110633 0 -1 0 0 0 0 1 forward_v I I I I #
coedge $-1 $543 $544 $545 $546 forward $408 $-1 #
coedge $-1 $410 $547 $548 $549 forward $241 $-1 #
coedge $-1 $550 $488 $410 $485 reversed $551 $-1 #
edge $-1 $552 -36.690704674768135 $486 33.651892625752737 $484 $553 forward 7 unknown #
vertex $-1 $489 $554 #
straight-curve $-1 19.476919623024294 33.651892625752723 16.208205850300651 -1 0 0 I I #
coedge $-1 $484 $555 $412 $489 forward $551 $-1 #
edge $-1 $556 -41.124130665471895 $486 -35.046506404591483 $488 $557 forward 7 unknown #
edge $-1 $414 3.5084284756892927 $556 35.445410770359295 $416 $558 forward 7 unknown #
point $-1 22.985348098713587 36.690704674768135 10.944828798710951 #
coedge $-1 $559 $416 $555 $560 forward $328 $-1 #
coedge $-1 $417 $559 $561 $562 reversed $328 $-1 #
coedge $-1 $547 $419 $544 $563 forward $241 $-1 #
coedge $-1 $561 $545 $419 $496 reversed $564 $-1 #
edge $-1 $497 -36.690704674768135 $565 57.655576477453131 $495 $566 forward 7 unknown #
vertex $-1 $420 $567 #
straight-curve $-1 0 36.690704674768135 16.208205850300644 -1 0 0 I I #
face $-1 $568 $569 $19 $-1 $570 reversed single #
loop $-1 $-1 $505 $424 #
plane-surface $-1 0 36.690704674768135 0 0 -1 0 0 0 -1 forward_v I I I I #
coedge $-1 $429 $571 $436 $514 forward $425 $-1 #
coedge $-1 $436 $572 $427 $504 reversed $351 $-1 #
edge $-1 $508 67.303785088655857 $573 73.38140934953627 $427 $574 forward 7 unknown #
coedge $-1 $575 $576 $428 $506 forward $500 $-1 #
edge $-1 $509 48.50045562483173 $573 53.763832676421423 $505 $577 forward 7 unknown #
coedge $-1 $578 $429 $576 $579 forward $425 $-1 #
vertex $-1 $514 $580 #
vertex $-1 $579 $581 #
straight-curve $-1 22.985348098713587 47.564134272101199 16.208205850300644 0 1 0 I I #
vertex $-1 $431 $582 #
point $-1 33.610200182905018 32.12464255495756 11.817529670597111 #
coedge $-1 $572 $436 $583 $584 reversed $351 $-1 #
edge $-1 $585 -35.445410770359295 $508 -3.5084284756892927 $502 $586 forward 7 unknown #
point $-1 54.922330393383589 36.690704674768135 -16.208205850300644 #
straight-curve $-1 54.922330393383589 36.690704674768135 0 0 0 -1 I I #
plane-surface $-1 -54.922330393383589 0 0 1 0 0 0 0 -1 forward_v I I I I #
coedge $-1 $462 $451 $533 $587 reversed $381 $-1 #
coedge $-1 $453 $452 $451 $520 reversed $307 $-1 #
edge $-1 $463 -16.208205850300644 $588 16.208205850300644 $451 $589 forward 7 unknown #
coedge $-1 $456 $533 $452 $522 forward $449 $-1 #
edge $-1 $588 -10.482435901342498 $523 10.482435901342498 $452 $590 forward 7 unknown #
vertex $-1 $455 $591 #
straight-curve $-1 -46.04385244889535 -57.655576477453131 0 0 0 -1 I I #
coedge $-1 $472 $456 $458 $527 forward $449 $-1 #
straight-curve $-1 -50.48309142113947 -57.655576477453131 -16.208205850300644 -1 0 0 I I #
edge $-1 $459 -57.655576477453131 $474 36.690704674768135 $458 $592 forward 7 unknown #
point $-1 -54.922330393383589 -57.655576477453131 -16.208205850300644 #
straight-curve $-1 -46.04385244889535 -47.173140576110633 16.208205850300644 0 1 0 I I #
point $-1 -46.04385244889535 -36.690704674768135 16.208205850300644 #
vertex $-1 $465 $593 #
straight-curve $-1 54.922330393383589 -36.690704674768135 0 0 0 -1 I I #
coedge $-1 $521 $467 $518 $587 forward $449 $-1 #
straight-curve $-1 54.922330393383589 0 -16.208205850300644 0 -1 0 I I #
point $-1 54.922330393383589 36.690704674768135 -16.208205850300644 #
straight-curve $-1 0 36.690704674768135 -16.208205850300644 1 0 0 I I #
point $-1 -54.922330393383589 36.690704674768135 -16.208205850300644 #
point $-1 -46.04385244889535 -57.655576477453131 16.208205850300644 #
face $-1 $594 $595 $18 $-1 $596 reversed single #
loop $-1 $-1 $597 $479 #
plane-surface $-1 0 -36.690704674768135 0 0 1 0 0 0 1 forward_v I I I I #
coedge $-1 $598 $599 $600 $601 forward $480 $-1 #
coedge $-1 $600 $482 $602 $603 reversed $408 $-1 #
coedge $-1 $482 $600 $494 $563 reversed $408 $-1 #
coedge $-1 $495 $604 $482 $546 reversed $564 $-1 #
edge $-1 $565 -16.208205850300644 $605 16.208205850300644 $545 $606 forward 7 unknown #
coedge $-1 $483 $494 $599 $607 forward $241 $-1 #
coedge $-1 $597 $608 $483 $549 reversed $540 $-1 #
edge $-1 $609 -46.04385244889535 $552 54.922330393383589 $548 $610 forward 7 unknown #
coedge $-1 $611 $484 $608 $612 forward $551 $-1 #
loop $-1 $-1 $488 $613 #
vertex $-1 $485 $614 #
straight-curve $-1 54.922330393383589 0 16.208205850300644 0 1 0 I I #
point $-1 54.922330393383589 33.651892625752737 16.208205850300644 #
coedge $-1 $488 $611 $492 $560 reversed $551 $-1 #
vertex $-1 $560 $615 #
straight-curve $-1 54.922330393383589 16.128639892991604 46.559370981656826 0 -0.49999998660252726 0.86602541151947299 I I #
straight-curve $-1 19.476919623024294 36.690704674768135 10.944828798710947 1 0 0 I I #
coedge $-1 $493 $492 $616 $617 reversed $328 $-1 #
edge $-1 $556 -10.944828798710951 $618 16.208205850300644 $555 $619 forward 7 unknown #
coedge $-1 $604 $495 $493 $562 forward $564 $-1 #
edge $-1 $497 -16.208205850300644 $620 16.208205850300644 $493 $621 forward 7 unknown #
edge $-1 $565 -4.4392389722441195 $622 4.4392389722441195 $544 $623 forward 7 unknown #
loop $-1 $-1 $561 $594 #
vertex $-1 $496 $624 #
straight-curve $-1 -54.922330393383589 0 16.208205850300644 0 -1 0 I I #
point $-1 -54.922330393383589 36.690704674768135 16.208205850300644 #
face $-1 $625 $626 $19 $-1 $627 reversed single #
loop $-1 $-1 $628 $499 #
plane-surface $-1 -50.48309142113947 -57.655576477453131 0 0 1 0 0 0 1 forward_v I I I I #
coedge $-1 $502 $629 $630 $631 forward $425 $-1 #
coedge $-1 $503 $513 $575 $632 reversed $351 $-1 #
vertex $-1 $632 $633 #
straight-curve $-1 22.985348098713587 9.8312543173051381e-007 74.494994028522001 0 0.49999998660252726 -0.86602541151947299 I I #
coedge $-1 $634 $505 $572 $632 forward $500 $-1 #
coedge $-1 $505 $635 $507 $579 reversed $500 $-1 #
straight-curve $-1 22.985348098713587 36.690704674768135 64.708661475132374 0 0 -1 I I #
coedge $-1 $636 $507 $637 $638 forward $425 $-1 #
edge $-1 $509 -22.985348098713587 $639 54.922330393383589 $576 $640 forward 7 unknown #
point $-1 22.985348098713587 33.651892625752737 16.208205850300644 #
point $-1 22.985348098713587 36.690704674768135 16.208205850300644 #
point $-1 32.110200182905018 30.825604437678351 11.06752969069332 #
coedge $-1 $630 $641 $513 $584 forward $642 $-1 #
edge $-1 $643 -41.124130665471895 $585 -35.046506404591483 $583 $644 forward 7 unknown #
vertex $-1 $584 $645 #
straight-curve $-1 19.476919623024294 33.651892625752723 16.208205850300651 -1 0 0 I I #
edge $-1 $531 -54.922330393383589 $588 46.04385244889535 $518 $646 forward 7 unknown #
vertex $-1 $522 $647 #
straight-curve $-1 -46.04385244889535 -36.690704674768135 0 0 0 -1 I I #
straight-curve $-1 -46.04385244889535 -47.173140576110633 -16.208205850300644 0 -1 0 I I #
point $-1 -46.04385244889535 -57.655576477453131 -16.208205850300644 #
straight-curve $-1 -54.922330393383589 0 -16.208205850300644 0 1 0 I I #
point $-1 54.922330393383589 -36.690704674768135 -16.208205850300644 #
face $-1 $613 $564 $18 $-1 $648 reversed single #
loop $-1 $-1 $649 $539 #
plane-surface $-1 0 0 -16.208205850300644 0 0 1 1 0 0 forward_v I I I I #
coedge $-1 $650 $548 $651 $652 forward $540 $-1 #
coedge $-1 $651 $542 $653 $654 reversed $480 $-1 #
coedge $-1 $542 $651 $547 $607 reversed $480 $-1 #
coedge $-1 $544 $543 $542 $601 reversed $408 $-1 #
edge $-1 $622 -16.208205850300644 $655 16.208205850300644 $542 $656 forward 7 unknown #
coedge $-1 $657 $653 $543 $603 forward $595 $-1 #
edge $-1 $655 -4.4392389722441195 $605 4.4392389722441195 $543 $658 forward 7 unknown #
coedge $-1 $545 $561 $657 $659 reversed $564 $-1 #
vertex $-1 $659 $660 #
straight-curve $-1 -54.922330393383589 -57.655576477453131 0 0 0 -1 I I #
edge $-1 $622 -10.482435901342498 $609 10.482435901342498 $599 $661 forward 7 unknown #
coedge $-1 $548 $650 $550 $612 reversed $540 $-1 #
vertex $-1 $549 $662 #
straight-curve $-1 0 -36.690704674768135 16.208205850300644 1 0 0 I I #
coedge $-1 $555 $550 $649 $663 reversed $551 $-1 #
edge $-1 $552 -16.208205850300644 $664 16.208205850300644 $550 $665 forward 7 unknown #
face $-1 $-1 $551 $18 $-1 $666 reversed single #
point $-1 54.922330393383589 -36.690704674768135 16.208205850300644 #
point $-1 54.922330393383589 36.690704674768135 10.944828798710951 #
coedge $-1 $649 $657 $559 $617 forward $595 $-1 #
edge $-1 $620 -54.922330393383589 $618 54.922330393383589 $559 $667 forward 7 unknown #
vertex $-1 $663 $668 #
straight-curve $-1 54.922330393383589 36.690704674768135 0 0 0 -1 I I #
vertex $-1 $617 $669 #
straight-curve $-1 -54.922330393383589 36.690704674768135 0 0 0 -1 I I #
vertex $-1 $607 $670 #
straight-curve $-1 -50.48309142113947 -57.655576477453131 16.208205850300644 1 0 0 I I #
point $-1 -54.922330393383589 -57.655576477453131 16.208205850300644 #
face $-1 $671 $672 $19 $-1 $673 reversed single #
loop $-1 $-1 $674 $568 #
plane-surface $-1 -46.04385244889535 -47.173140576110633 0 -1 0 0 0 0 1 forward_v I I I I #
coedge $-1 $675 $676 $677 $678 forward $569 $-1 #
coedge $-1 $571 $679 $680 $681 forward $425 $-1 #
coedge $-1 $682 $583 $571 $631 reversed $642 $-1 #
edge $-1 $683 -36.690704674768135 $585 33.651892625752737 $630 $684 forward 7 unknown #
edge $-1 $573 3.5084284756892927 $643 35.445410770359295 $575 $685 forward 7 unknown #
point $-1 22.985348098713587 36.690704674768135 10.944828798710951 #
coedge $-1 $686 $575 $641 $687 forward $500 $-1 #
coedge $-1 $576 $686 $688 $689 reversed $500 $-1 #
coedge $-1 $679 $578 $676 $690 forward $425 $-1 #
coedge $-1 $688 $677 $578 $638 reversed $691 $-1 #
edge $-1 $639 -36.690704674768135 $692 57.655576477453131 $637 $693 forward 7 unknown #
vertex $-1 $579 $694 #
straight-curve $-1 0 36.690704674768135 16.208205850300644 -1 0 0 I I #
coedge $-1 $583 $695 $634 $687 reversed $642 $-1 #
loop $-1 $-1 $583 $696 #
vertex $-1 $687 $697 #
straight-curve $-1 54.922330393383589 16.128639892991604 46.559370981656826 0 -0.49999998660252726 0.86602541151947299 I I #
point $-1 54.922330393383589 33.651892625752737 16.208205850300644 #
straight-curve $-1 0 -36.690704674768135 -16.208205850300644 -1 0 0 I I #
point $-1 -46.04385244889535 -36.690704674768135 -16.208205850300644 #
plane-surface $-1 -54.922330393383589 0 0 1 0 0 0 0 -1 forward_v I I I I #
coedge $-1 $698 $616 $611 $663 forward $595 $-1 #
coedge $-1 $608 $597 $698 $699 reversed $540 $-1 #
coedge $-1 $599 $598 $597 $652 reversed $480 $-1 #
edge $-1 $609 -16.208205850300644 $700 16.208205850300644 $597 $701 forward 7 unknown #
coedge $-1 $602 $698 $598 $654 forward $595 $-1 #
edge $-1 $700 -10.482435901342498 $655 10.482435901342498 $598 $702 forward 7 unknown #
vertex $-1 $601 $703 #
straight-curve $-1 -46.04385244889535 -57.655576477453131 0 0 0 -1 I I #
coedge $-1 $616 $602 $604 $659 forward $595 $-1 #
straight-curve $-1 -50.48309142113947 -57.655576477453131 -16.208205850300644 -1 0 0 I I #
edge $-1 $605 -57.655576477453131 $620 36.690704674768135 $604 $704 forward 7 unknown #
point $-1 -54.922330393383589 -57.655576477453131 -16.208205850300644 #
straight-curve $-1 -46.04385244889535 -47.173140576110633 16.208205850300644 0 1 0 I I #
point $-1 -46.04385244889535 -36.690704674768135 16.208205850300644 #
edge $-1 $618 -36.690704674768135 $664 36.690704674768135 $611 $705 forward 7 unknown #
vertex $-1 $612 $706 #
straight-curve $-1 54.922330393383589 -36.690704674768135 0 0 0 -1 I I #
plane-surface $-1 54.922330393383589 0 0 -1 0 0 0 0 1 forward_v I I I I #
straight-curve $-1 0 36.690704674768135 -16.208205850300644 1 0 0 I I #
point $-1 54.922330393383589 36.690704674768135 -16.208205850300644 #
point $-1 -54.922330393383589 36.690704674768135 -16.208205850300644 #
point $-1 -46.04385244889535 -57.655576477453131 16.208205850300644 #
face $-1 $707 $708 $19 $-1 $709 reversed single #
loop $-1 $-1 $710 $625 #
plane-surface $-1 0 -36.690704674768135 0 0 1 0 0 0 1 forward_v I I I I #
coedge $-1 $711 $712 $713 $714 forward $626 $-1 #
coedge $-1 $713 $628 $715 $716 reversed $569 $-1 #
coedge $-1 $628 $713 $636 $690 reversed $569 $-1 #
coedge $-1 $637 $717 $628 $678 reversed $691 $-1 #
edge $-1 $692 -16.208205850300644 $718 16.208205850300644 $677 $719 forward 7 unknown #
coedge $-1 $629 $636 $712 $720 forward $425 $-1 #
coedge $-1 $710 $721 $629 $681 reversed $672 $-1 #
edge $-1 $722 -46.04385244889535 $683 54.922330393383589 $680 $723 forward 7 unknown #
coedge $-1 $695 $630 $721 $724 forward $642 $-1 #
vertex $-1 $631 $725 #
straight-curve $-1 54.922330393383589 0 16.208205850300644 0 1 0 I I #
straight-curve $-1 19.476919623024294 36.690704674768135 10.944828798710947 1 0 0 I I #
coedge $-1 $635 $634 $726 $727 reversed $500 $-1 #
edge $-1 $643 -10.944828798710951 $728 16.208205850300644 $641 $729 forward 7 unknown #
coedge $-1 $717 $637 $635 $689 forward $691 $-1 #
edge $-1 $639 -16.208205850300644 $730 16.208205850300644 $635 $731 forward 7 unknown #
edge $-1 $692 -4.4392389722441195 $732 4.4392389722441195 $676 $733 forward 7 unknown #
loop $-1 $-1 $688 $707 #
vertex $-1 $638 $734 #
straight-curve $-1 -54.922330393383589 0 16.208205850300644 0 -1 0 I I #
point $-1 -54.922330393383589 36.690704674768135 16.208205850300644 #
coedge $-1 $641 $682 $735 $736 reversed $642 $-1 #
face $-1 $-1 $642 $19 $-1 $737 reversed single #
point $-1 54.922330393383589 36.690704674768135 10.944828798710951 #
coedge $-1 $653 $649 $650 $699 forward $595 $-1 #
edge $-1 $664 -54.922330393383589 $700 46.04385244889535 $650 $738 forward 7 unknown #
vertex $-1 $654 $739 #
straight-curve $-1 -46.04385244889535 -36.690704674768135 0 0 0 -1 I I #
straight-curve $-1 -46.04385244889535 -47.173140576110633 -16.208205850300644 0 -1 0 I I #
point $-1 -46.04385244889535 -57.655576477453131 -16.208205850300644 #
straight-curve $-1 -54.922330393383589 0 -16.208205850300644 0 1 0 I I #
straight-curve $-1 54.922330393383589 0 -16.208205850300644 0 -1 0 I I #
point $-1 54.922330393383589 -36.690704674768135 -16.208205850300644 #
face $-1 $696 $691 $19 $-1 $740 reversed single #
loop $-1 $-1 $735 $671 #
plane-surface $-1 0 0 -16.208205850300644 0 0 1 1 0 0 forward_v I I I I #
coedge $-1 $741 $680 $742 $743 forward $672 $-1 #
coedge $-1 $742 $674 $744 $745 reversed $626 $-1 #
coedge $-1 $674 $742 $679 $720 reversed $626 $-1 #
coedge $-1 $676 $675 $674 $714 reversed $569 $-1 #
edge $-1 $732 -16.208205850300644 $746 16.208205850300644 $674 $747 forward 7 unknown #
coedge $-1 $748 $744 $675 $716 forward $708 $-1 #
edge $-1 $746 -4.4392389722441195 $718 4.4392389722441195 $675 $749 forward 7 unknown #
coedge $-1 $677 $688 $748 $750 reversed $691 $-1 #
vertex $-1 $750 $751 #
straight-curve $-1 -54.922330393383589 -57.655576477453131 0 0 0 -1 I I #
edge $-1 $732 -10.482435901342498 $722 10.482435901342498 $712 $752 forward 7 unknown #
coedge $-1 $680 $741 $682 $724 reversed $672 $-1 #
vertex $-1 $681 $753 #
straight-curve $-1 0 -36.690704674768135 16.208205850300644 1 0 0 I I #
edge $-1 $683 -16.208205850300644 $754 16.208205850300644 $682 $755 forward 7 unknown #
point $-1 54.922330393383589 -36.690704674768135 16.208205850300644 #
coedge $-1 $735 $748 $686 $727 forward $708 $-1 #
edge $-1 $730 -54.922330393383589 $728 54.922330393383589 $686 $756 forward 7 unknown #
vertex $-1 $736 $757 #
straight-curve $-1 54.922330393383589 36.690704674768135 0 0 0 -1 I I #
vertex $-1 $727 $758 #
straight-curve $-1 -54.922330393383589 36.690704674768135 0 0 0 -1 I I #
vertex $-1 $720 $759 #
straight-curve $-1 -50.48309142113947 -57.655576477453131 16.208205850300644 1 0 0 I I #
point $-1 -54.922330393383589 -57.655576477453131 16.208205850300644 #
coedge $-1 $760 $726 $695 $736 forward $708 $-1 #
edge $-1 $728 -36.690704674768135 $754 36.690704674768135 $695 $761 forward 7 unknown #
plane-surface $-1 54.922330393383589 0 0 -1 0 0 0 0 1 forward_v I I I I #
straight-curve $-1 0 -36.690704674768135 -16.208205850300644 -1 0 0 I I #
point $-1 -46.04385244889535 -36.690704674768135 -16.208205850300644 #
plane-surface $-1 -54.922330393383589 0 0 1 0 0 0 0 -1 forward_v I I I I #
coedge $-1 $721 $710 $760 $762 reversed $672 $-1 #
coedge $-1 $712 $711 $710 $743 reversed $626 $-1 #
edge $-1 $722 -16.208205850300644 $763 16.208205850300644 $710 $764 forward 7 unknown #
coedge $-1 $715 $760 $711 $745 forward $708 $-1 #
edge $-1 $763 -10.482435901342498 $746 10.482435901342498 $711 $765 forward 7 unknown #
vertex $-1 $714 $766 #
straight-curve $-1 -46.04385244889535 -57.655576477453131 0 0 0 -1 I I #
coedge $-1 $726 $715 $717 $750 forward $708 $-1 #
straight-curve $-1 -50.48309142113947 -57.655576477453131 -16.208205850300644 -1 0 0 I I #
edge $-1 $718 -57.655576477453131 $730 36.690704674768135 $717 $767 forward 7 unknown #
point $-1 -54.922330393383589 -57.655576477453131 -16.208205850300644 #
straight-curve $-1 -46.04385244889535 -47.173140576110633 16.208205850300644 0 1 0 I I #
point $-1 -46.04385244889535 -36.690704674768135 16.208205850300644 #
vertex $-1 $724 $768 #
straight-curve $-1 54.922330393383589 -36.690704674768135 0 0 0 -1 I I #
straight-curve $-1 0 36.690704674768135 -16.208205850300644 1 0 0 I I #
point $-1 54.922330393383589 36.690704674768135 -16.208205850300644 #
point $-1 -54.922330393383589 36.690704674768135 -16.208205850300644 #
point $-1 -46.04385244889535 -57.655576477453131 16.208205850300644 #
coedge $-1 $744 $735 $741 $762 forward $708 $-1 #
straight-curve $-1 54.922330393383589 0 -16.208205850300644 0 -1 0 I I #
edge $-1 $754 -54.922330393383589 $763 46.04385244889535 $741 $769 forward 7 unknown #
vertex $-1 $745 $770 #
straight-curve $-1 -46.04385244889535 -36.690704674768135 0 0 0 -1 I I #
straight-curve $-1 -46.04385244889535 -47.173140576110633 -16.208205850300644 0 -1 0 I I #
point $-1 -46.04385244889535 -57.655576477453131 -16.208205850300644 #
straight-curve $-1 -54.922330393383589 0 -16.208205850300644 0 1 0 I I #
point $-1 54.922330393383589 -36.690704674768135 -16.208205850300644 #
straight-curve $-1 0 -36.690704674768135 -16.208205850300644 -1 0 0 I I #
point $-1 -46.04385244889535 -36.690704674768135 -16.208205850300644 #
End-of-ACIS-data 