500 0 5 0           
7 Unknown 11 ACIS 5.0 NT 24 Thu Mar 25 19:10:18 1999 
-1 9.9999999999999995e-007 1e-010 
body $-1 $5 $-1 $6 #
body $-1 $7 $-1 $8 #
body $-1 $9 $-1 $10 #
body $-1 $11 $-1 $12 #
body $-1 $13 $-1 $14 #
lump $-1 $-1 $15 $0 #
transform $-1 1 0 0 0 1 0 0 0 1 53.667409283730585 23.88197256352003 4.9493487681843158 1 rotate no_reflect no_shear #
lump $-1 $-1 $16 $1 #
transform $-1 1 0 0 0 1 0 0 0 1 53.667409283730585 23.88197256352003 4.9493487681843158 1 rotate no_reflect no_shear #
lump $-1 $-1 $17 $2 #
transform $-1 1 0 0 0 1 0 0 0 1 53.667409283730585 23.88197256352003 4.9493487681843158 1 rotate no_reflect no_shear #
lump $-1 $-1 $18 $3 #
transform $-1 1 0 0 0 1 0 0 0 1 53.667409283730585 23.88197256352003 4.9493487681843158 1 rotate no_reflect no_shear #
lump $-1 $-1 $19 $4 #
transform $-1 1 0 0 0 1 0 0 0 1 53.667409283730585 23.88197256352003 4.9493487681843158 1 rotate no_reflect no_shear #
shell $-1 $-1 $-1 $20 $-1 $5 #
shell $-1 $-1 $-1 $21 $-1 $7 #
shell $-1 $-1 $-1 $22 $-1 $9 #
shell $-1 $-1 $-1 $23 $-1 $11 #
shell $-1 $-1 $-1 $24 $-1 $13 #
face $-1 $25 $26 $15 $-1 $27 forward single #
face $-1 $28 $29 $16 $-1 $30 forward single #
face $-1 $31 $32 $17 $-1 $33 reversed single #
face $-1 $34 $35 $18 $-1 $36 forward single #
face $-1 $37 $38 $19 $-1 $39 forward single #
face $-1 $40 $41 $15 $-1 $42 reversed single #
loop $-1 $-1 $43 $20 #
plane-surface $-1 0 0 4.9493487681843158 0 0 1 1 0 0 forward_v I I I I #
face $-1 $44 $45 $16 $-1 $46 reversed single #
loop $-1 $-1 $47 $21 #
plane-surface $-1 -51.522411040723263 0 1.538423178819766 0 0 1 1 0 0 forward_v I I I I #
face $-1 $48 $49 $17 $-1 $50 reversed single #
loop $-1 $-1 $51 $22 #
plane-surface $-1 24.703681992408583 0.44197050301601593 150.38607924389652 0 -1 0 -0.55919291073839883 0 -0.82903756765294845 forward_v I I I I #
face $-1 $52 $53 $18 $-1 $54 forward single #
loop $-1 $55 $56 $23 #
cone-surface $-1 50.114777583336178 -6.7760562168220808 1.8200053687036026 -0.55919291073839883 0 -0.82903756765294845 0.82903756765294845 0 -0.55919291073839883 1 I I 0 1 1 forward I I I I #
face $-1 $57 $58 $19 $-1 $59 forward single #
loop $-1 $60 $61 $24 #
cone-surface $-1 50.114777583336178 -2.4452401849192213 1.8200053687036026 -0.55919291073839883 0 -0.82903756765294845 0.82903756765294845 0 -0.55919291073839883 1 I I 0 1 1 forward I I I I #
face $-1 $62 $63 $15 $-1 $64 reversed single #
loop $-1 $-1 $65 $25 #
plane-surface $-1 0 0 -4.9493487681843158 0 0 1 1 0 0 forward_v I I I I #
coedge $-1 $66 $67 $68 $69 forward $26 $-1 #
face $-1 $70 $71 $16 $-1 $72 reversed single #
loop $-1 $-1 $73 $28 #
plane-surface $-1 -51.522411040723263 0 -1.461576821180234 0 0 1 1 0 0 forward_v I I I I #
coedge $-1 $74 $75 $76 $77 forward $29 $-1 #
face $-1 $78 $79 $17 $-1 $80 reversed single #
loop $-1 $-1 $81 $31 #
plane-surface $-1 -35.317187625907962 -4.6106482008706529 61.401482334257977 0.55919291073839883 0 0.82903756765294845 0.82903756765294845 0 -0.55919291073839883 forward_v I I I I #
coedge $-1 $82 $83 $84 $85 reversed $32 $-1 #
face $-1 $-1 $86 $18 $-1 $87 forward single #
loop $-1 $88 $89 $34 #
cone-surface $-1 48.927983766538027 -6.7760562168220808 0.060511211517861874 -0.55919291073839883 0 -0.82903756765294845 0.41451878382647422 0 -0.27959645536919941 1 I I -0.70710678118654746 0.70710678118654746 0.5 forward I I I I #
loop $-1 $-1 $90 $23 #
coedge $-1 $56 $56 $91 $92 reversed $35 $-1 #
face $-1 $-1 $93 $19 $-1 $94 forward single #
loop $-1 $95 $96 $37 #
cone-surface $-1 48.927983766538027 -2.4452401849192213 0.060511211517861874 -0.55919291073839883 0 -0.82903756765294845 0.41451878382647422 0 -0.27959645536919941 1 I I -0.70710678118654746 0.70710678118654746 0.5 forward I I I I #
loop $-1 $-1 $97 $24 #
coedge $-1 $61 $61 $98 $99 reversed $38 $-1 #
face $-1 $100 $101 $15 $-1 $102 reversed single #
loop $-1 $-1 $103 $40 #
plane-surface $-1 0 -23.88197256352003 0 0 1 0 0 0 1 forward_v I I I I #
coedge $-1 $104 $105 $106 $107 forward $41 $-1 #
coedge $-1 $108 $43 $109 $110 forward $26 $-1 #
coedge $-1 $43 $108 $111 $112 forward $26 $-1 #
coedge $-1 $113 $114 $43 $69 reversed $115 $-1 #
edge $-1 $116 -23.88197256352003 $117 23.88197256352003 $68 $118 forward 7 unknown #
face $-1 $119 $120 $16 $-1 $121 reversed single #
loop $-1 $-1 $122 $44 #
plane-surface $-1 -49.377412797715941 0 0.03842317881976598 -1 0 0 0 0 1 forward_v I I I I #
coedge $-1 $123 $124 $125 $126 forward $45 $-1 #
coedge $-1 $127 $47 $128 $129 reversed $29 $-1 #
coedge $-1 $47 $127 $130 $131 reversed $29 $-1 #
coedge $-1 $122 $132 $47 $77 reversed $71 $-1 #
edge $-1 $133 -23.88197256352003 $134 23.88197256352003 $76 $135 forward 7 unknown #
face $-1 $136 $137 $17 $-1 $138 reversed single #
loop $-1 $-1 $139 $48 #
plane-surface $-1 24.703681992408583 -9.6632669047573216 150.38607924389652 0 1 0 0.55919291073839883 0 0.82903756765294845 forward_v I I I I #
coedge $-1 $140 $141 $142 $143 reversed $49 $-1 #
coedge $-1 $83 $51 $144 $145 reversed $32 $-1 #
coedge $-1 $51 $82 $140 $146 reversed $32 $-1 #
coedge $-1 $142 $147 $51 $85 forward $148 $-1 #
edge $-1 $149 -41.31556828752629 $150 -36.024699609595345 $84 $151 forward 7 unknown #
loop $-1 $-1 $91 $52 #
plane-surface $-1 -35.317187625907962 -4.6106482008706529 61.401482334257977 0.55919291073839883 0 0.82903756765294845 0.82903756765294845 0 -0.55919291073839883 forward_v I I I I #
loop $-1 $-1 $152 $34 #
coedge $-1 $89 $89 $90 $153 reversed $53 $-1 #
coedge $-1 $90 $90 $89 $153 forward $55 $-1 #
coedge $-1 $91 $91 $56 $92 forward $86 $-1 #
edge $-1 $154 0 $154 6.2831853071796004 $91 $155 forward 7 unknown #
loop $-1 $-1 $98 $57 #
plane-surface $-1 -35.317187625907962 -4.6106482008706529 61.401482334257977 0.55919291073839883 0 0.82903756765294845 0.82903756765294845 0 -0.55919291073839883 forward_v I I I I #
loop $-1 $-1 $156 $37 #
coedge $-1 $96 $96 $97 $157 reversed $58 $-1 #
coedge $-1 $97 $97 $96 $157 forward $60 $-1 #
coedge $-1 $98 $98 $61 $99 forward $93 $-1 #
edge $-1 $158 0 $158 6.2831853071796004 $98 $159 forward 7 unknown #
face $-1 $160 $161 $15 $-1 $162 reversed single #
loop $-1 $-1 $163 $62 #
plane-surface $-1 -53.667409283730585 0 0 1 0 0 0 0 -1 forward_v I I I I #
coedge $-1 $164 $111 $165 $166 forward $63 $-1 #
coedge $-1 $167 $65 $164 $168 forward $41 $-1 #
coedge $-1 $65 $167 $169 $170 forward $41 $-1 #
coedge $-1 $114 $113 $65 $107 reversed $115 $-1 #
edge $-1 $171 -23.88197256352003 $172 23.88197256352003 $106 $173 forward 7 unknown #
coedge $-1 $67 $66 $174 $175 forward $26 $-1 #
coedge $-1 $176 $177 $66 $110 reversed $161 $-1 #
edge $-1 $117 -53.667409283730585 $178 53.667409283730585 $109 $179 forward 7 unknown #
coedge $-1 $103 $180 $67 $112 reversed $63 $-1 #
edge $-1 $181 -53.667409283730585 $116 53.667409283730585 $111 $182 forward 7 unknown #
coedge $-1 $106 $68 $180 $183 forward $115 $-1 #
coedge $-1 $68 $106 $176 $184 reversed $115 $-1 #
loop $-1 $-1 $113 $160 #
vertex $-1 $69 $185 #
vertex $-1 $69 $186 #
straight-curve $-1 53.667409283730585 0 4.9493487681843158 0 1 0 I I #
face $-1 $187 $188 $16 $-1 $189 reversed single #
loop $-1 $-1 $190 $70 #
plane-surface $-1 0 -23.88197256352003 0 0 1 0 0 0 1 forward_v I I I I #
coedge $-1 $125 $76 $191 $192 reversed $71 $-1 #
coedge $-1 $193 $73 $190 $194 reversed $45 $-1 #
coedge $-1 $73 $193 $195 $196 reversed $45 $-1 #
coedge $-1 $132 $122 $73 $126 reversed $71 $-1 #
edge $-1 $197 -23.88197256352003 $198 23.88197256352003 $125 $199 forward 7 unknown #
coedge $-1 $75 $74 $200 $201 reversed $29 $-1 #
coedge $-1 $202 $203 $74 $129 forward $204 $-1 #
edge $-1 $205 -27.906203763368953 $134 -23.616207277354309 $128 $206 forward 7 unknown #
coedge $-1 $207 $191 $75 $131 forward $120 $-1 #
edge $-1 $133 23.616207277354309 $208 27.906203763368953 $130 $209 forward 7 unknown #
coedge $-1 $76 $125 $202 $210 reversed $71 $-1 #
vertex $-1 $131 $211 #
vertex $-1 $129 $212 #
straight-curve $-1 -49.377412797715941 0 1.538423178819766 0 1 0 I I #
face $-1 $-1 $148 $17 $-1 $213 forward single #
loop $-1 $-1 $214 $78 #
plane-surface $-1 53.667409283730585 0 0 -1 0 0 0 0 1 forward_v I I I I #
coedge $-1 $215 $216 $217 $218 reversed $79 $-1 #
coedge $-1 $219 $81 $83 $146 forward $49 $-1 #
coedge $-1 $81 $219 $215 $220 forward $49 $-1 #
coedge $-1 $217 $84 $81 $143 forward $148 $-1 #
edge $-1 $150 -2.7472946034513424 $221 7.3579428043219952 $142 $222 forward 7 unknown #
coedge $-1 $223 $224 $82 $145 forward $137 $-1 #
edge $-1 $225 -73.812426906006834 $149 -70.243690853763937 $144 $226 forward 7 unknown #
edge $-1 $150 100.95287776722736 $225 107.33481856746118 $83 $227 forward 7 unknown #
coedge $-1 $84 $217 $223 $228 forward $148 $-1 #
loop $-1 $-1 $217 $136 #
vertex $-1 $145 $229 #
vertex $-1 $85 $230 #
straight-curve $-1 12.351840996204292 0.44197050301601593 4.949348768184322 -1 0 0 I I #
coedge $-1 $152 $152 $-1 $231 reversed $88 $-1 #
edge $-1 $232 0 $232 6.2831853071796004 $89 $233 forward 7 unknown #
vertex $-1 $92 $234 #
ellipse-curve $-1 51.021974944765127 -6.7760562168220808 3.1649807420628604 0.55919291073839883 0 0.82903756765294845 0.82903756765294845 0 -0.55919291073839883 1 I I #
coedge $-1 $156 $156 $-1 $235 reversed $95 $-1 #
edge $-1 $236 0 $236 6.2831853071796004 $96 $237 forward 7 unknown #
vertex $-1 $99 $238 #
ellipse-curve $-1 51.021974944765127 -2.4452401849192213 3.1649807420628604 0.55919291073839883 0 0.82903756765294845 0.82903756765294845 0 -0.55919291073839883 1 I I #
face $-1 $-1 $115 $15 $-1 $239 reversed single #
loop $-1 $-1 $176 $100 #
plane-surface $-1 0 23.88197256352003 0 0 -1 0 0 0 -1 forward_v I I I I #
coedge $-1 $240 $174 $177 $241 forward $101 $-1 #
coedge $-1 $180 $103 $104 $168 reversed $63 $-1 #
coedge $-1 $174 $240 $103 $166 reversed $101 $-1 #
edge $-1 $181 -4.9493487681843158 $242 4.9493487681843158 $165 $243 forward 7 unknown #
coedge $-1 $105 $104 $240 $244 forward $41 $-1 #
edge $-1 $172 -53.667409283730585 $242 53.667409283730585 $164 $245 forward 7 unknown #
coedge $-1 $177 $176 $105 $170 reversed $161 $-1 #
edge $-1 $246 -53.667409283730585 $171 53.667409283730585 $169 $247 forward 7 unknown #
vertex $-1 $107 $248 #
vertex $-1 $183 $249 #
straight-curve $-1 53.667409283730585 0 -4.9493487681843158 0 -1 0 I I #
coedge $-1 $163 $165 $108 $175 reversed $101 $-1 #
edge $-1 $178 -23.88197256352003 $181 23.88197256352003 $174 $250 forward 7 unknown #
coedge $-1 $169 $109 $114 $184 forward $161 $-1 #
coedge $-1 $109 $169 $163 $241 reversed $161 $-1 #
vertex $-1 $110 $251 #
straight-curve $-1 0 23.88197256352003 4.9493487681843158 -1 0 0 I I #
coedge $-1 $111 $164 $113 $183 reversed $63 $-1 #
vertex $-1 $175 $252 #
straight-curve $-1 0 -23.88197256352003 4.9493487681843158 1 0 0 I I #
edge $-1 $116 -4.9493487681843158 $172 4.9493487681843158 $113 $253 forward 7 unknown #
edge $-1 $117 -4.9493487681843158 $171 4.9493487681843158 $114 $254 forward 7 unknown #
point $-1 53.667409283730585 -23.88197256352003 4.9493487681843158 #
point $-1 53.667409283730585 23.88197256352003 4.9493487681843158 #
face $-1 $-1 $204 $16 $-1 $255 reversed single #
loop $-1 $-1 $256 $119 #
plane-surface $-1 -53.667409283730585 0 0 1 0 0 0 0 -1 forward_v I I I I #
coedge $-1 $191 $207 $123 $194 forward $120 $-1 #
coedge $-1 $130 $190 $122 $192 forward $120 $-1 #
edge $-1 $198 -1.480788410590117 $133 1.519211589409883 $191 $257 forward 7 unknown #
coedge $-1 $124 $123 $256 $258 reversed $45 $-1 #
edge $-1 $259 -27.906203763368953 $198 -23.616207277354309 $190 $260 forward 7 unknown #
coedge $-1 $203 $202 $124 $196 forward $204 $-1 #
edge $-1 $197 23.616207277354309 $261 27.906203763368953 $195 $262 forward 7 unknown #
vertex $-1 $196 $263 #
vertex $-1 $194 $264 #
straight-curve $-1 -49.377412797715941 0 -1.461576821180234 0 -1 0 I I #
coedge $-1 $265 $266 $127 $201 forward $188 $-1 #
edge $-1 $208 -23.88197256352003 $205 23.88197256352003 $200 $267 forward 7 unknown #
coedge $-1 $195 $128 $132 $210 forward $204 $-1 #
coedge $-1 $128 $195 $265 $268 reversed $204 $-1 #
loop $-1 $-1 $195 $187 #
vertex $-1 $268 $269 #
straight-curve $-1 -25.761205520361631 23.88197256352003 1.538423178819766 1 0 0 I I #
coedge $-1 $190 $130 $266 $270 forward $120 $-1 #
vertex $-1 $270 $271 #
straight-curve $-1 -25.761205520361631 -23.88197256352003 1.538423178819766 -1 0 0 I I #
edge $-1 $134 -1.519211589409883 $197 1.480788410590117 $202 $272 forward 7 unknown #
point $-1 -49.377412797715941 -23.88197256352003 1.538423178819766 #
point $-1 -49.377412797715941 23.88197256352003 1.538423178819766 #
plane-surface $-1 0 0 4.9493487681843158 0 0 1 1 0 0 forward_v I I I I #
coedge $-1 $224 $223 $216 $273 forward $137 $-1 #
coedge $-1 $216 $139 $141 $220 reversed $79 $-1 #
coedge $-1 $139 $215 $214 $273 reversed $79 $-1 #
coedge $-1 $147 $142 $139 $218 forward $148 $-1 #
edge $-1 $221 36.024699609595345 $274 41.31556828752629 $217 $275 forward 7 unknown #
coedge $-1 $141 $140 $224 $276 reversed $49 $-1 #
edge $-1 $277 -107.33481856746118 $221 -100.95287776722736 $215 $278 forward 7 unknown #
vertex $-1 $143 $279 #
straight-curve $-1 48.37654060579964 -2.3053241004353264 4.9493487681843078 0 -1 0 I I #
coedge $-1 $214 $144 $147 $228 reversed $137 $-1 #
coedge $-1 $144 $214 $219 $276 forward $137 $-1 #
vertex $-1 $145 $280 #
straight-curve $-1 53.667409283730585 0.44197050301601593 75.193039621948259 0 0 1 I I #
straight-curve $-1 -35.317187625907962 0.44197050301601593 61.401482334257977 0.82903756765294845 0 -0.55919291073839883 I I #
edge $-1 $274 -9.6632669047573216 $149 0.44197050301601593 $223 $281 forward 7 unknown #
point $-1 53.667409283730585 0.44197050301601593 4.9493487681843158 #
point $-1 48.376540605799633 0.44197050301601593 4.949348768184322 #
edge $-1 $282 1 $282 0 $152 $-1 forward 7 unknown #
vertex $-1 $153 $283 #
ellipse-curve $-1 49.207580221907229 -6.7760562168220808 0.4750299953443361 0.55919291073839883 0 0.82903756765294845 0.82903756765294845 0 -0.55919291073839883 1 I I #
point $-1 51.85101251241808 -6.7760562168220808 2.6057878313244704 #
edge $-1 $284 1 $284 0 $156 $-1 forward 7 unknown #
vertex $-1 $157 $285 #
ellipse-curve $-1 49.207580221907229 -2.4452401849192213 0.4750299953443361 0.55919291073839883 0 0.82903756765294845 0.82903756765294845 0 -0.55919291073839883 1 I I #
point $-1 51.85101251241808 -2.4452401849192213 2.6057878313244704 #
plane-surface $-1 53.667409283730585 0 0 -1 0 0 0 0 1 forward_v I I I I #
coedge $-1 $165 $163 $167 $244 reversed $101 $-1 #
edge $-1 $178 -4.9493487681843158 $246 4.9493487681843158 $177 $286 forward 7 unknown #
vertex $-1 $244 $287 #
straight-curve $-1 -53.667409283730585 -23.88197256352003 0 0 0 -1 I I #
edge $-1 $242 -23.88197256352003 $246 23.88197256352003 $240 $288 forward 7 unknown #
straight-curve $-1 0 -23.88197256352003 -4.9493487681843158 -1 0 0 I I #
vertex $-1 $170 $289 #
straight-curve $-1 0 23.88197256352003 -4.9493487681843158 1 0 0 I I #
point $-1 53.667409283730585 23.88197256352003 -4.9493487681843158 #
point $-1 53.667409283730585 -23.88197256352003 -4.9493487681843158 #
straight-curve $-1 -53.667409283730585 0 4.9493487681843158 0 -1 0 I I #
point $-1 -53.667409283730585 23.88197256352003 4.9493487681843158 #
point $-1 -53.667409283730585 -23.88197256352003 4.9493487681843158 #
straight-curve $-1 53.667409283730585 -23.88197256352003 0 0 0 -1 I I #
straight-curve $-1 53.667409283730585 23.88197256352003 0 0 0 -1 I I #
plane-surface $-1 0 23.88197256352003 0 0 -1 0 0 0 -1 forward_v I I I I #
coedge $-1 $266 $265 $193 $258 forward $188 $-1 #
straight-curve $-1 -49.377412797715941 -23.88197256352003 0.01921158940988299 0 0 1 I I #
edge $-1 $261 -23.88197256352003 $259 23.88197256352003 $256 $290 forward 7 unknown #
vertex $-1 $194 $291 #
straight-curve $-1 -25.761205520361631 -23.88197256352003 -1.461576821180234 1 0 0 I I #
vertex $-1 $196 $292 #
straight-curve $-1 -25.761205520361631 23.88197256352003 -1.461576821180234 -1 0 0 I I #
point $-1 -49.377412797715941 23.88197256352003 -1.461576821180234 #
point $-1 -49.377412797715941 -23.88197256352003 -1.461576821180234 #
coedge $-1 $256 $200 $203 $268 forward $188 $-1 #
coedge $-1 $200 $256 $207 $270 reversed $188 $-1 #
straight-curve $-1 -53.667409283730585 0 1.538423178819766 0 1 0 I I #
edge $-1 $205 -1.538423178819766 $261 1.461576821180234 $203 $293 forward 7 unknown #
point $-1 -53.667409283730585 23.88197256352003 1.538423178819766 #
edge $-1 $208 -1.538423178819766 $259 1.461576821180234 $266 $294 forward 7 unknown #
point $-1 -53.667409283730585 -23.88197256352003 1.538423178819766 #
straight-curve $-1 -49.377412797715941 23.88197256352003 0.01921158940988299 0 0 -1 I I #
edge $-1 $274 70.243690853763937 $277 73.812426906006834 $214 $295 forward 7 unknown #
vertex $-1 $228 $296 #
straight-curve $-1 12.351840996204292 -9.6632669047573216 4.949348768184322 1 0 0 I I #
edge $-1 $277 -7.3579428043219952 $225 2.7472946034513424 $224 $297 forward 7 unknown #
vertex $-1 $276 $298 #
straight-curve $-1 -35.317187625907962 -9.6632669047573216 61.401482334257977 -0.82903756765294845 0 0.55919291073839883 I I #
point $-1 48.376540605799633 -9.6632669047573216 4.949348768184322 #
point $-1 53.667409283730592 0.44197050301601593 1.3806127159414245 #
straight-curve $-1 53.667409283730585 0 4.9493487681843158 0 1 0 I I #
vertex $-1 $231 $299 #
point $-1 50.036617789560175 -6.7760562168220808 -0.084162915394062732 #
vertex $-1 $235 $300 #
point $-1 50.036617789560175 -2.4452401849192213 -0.084162915394062732 #
straight-curve $-1 -53.667409283730585 23.88197256352003 0 0 0 -1 I I #
point $-1 -53.667409283730585 -23.88197256352003 -4.9493487681843158 #
straight-curve $-1 -53.667409283730585 0 -4.9493487681843158 0 1 0 I I #
point $-1 -53.667409283730585 23.88197256352003 -4.9493487681843158 #
straight-curve $-1 -53.667409283730585 0 -1.461576821180234 0 -1 0 I I #
point $-1 -53.667409283730585 -23.88197256352003 -1.461576821180234 #
point $-1 -53.667409283730585 23.88197256352003 -1.461576821180234 #
straight-curve $-1 -53.667409283730585 23.88197256352003 0 0 0 -1 I I #
straight-curve $-1 -53.667409283730585 -23.88197256352003 0 0 0 -1 I I #
straight-curve $-1 53.667409283730585 -9.6632669047573216 75.193039621948259 0 0 -1 I I #
point $-1 53.667409283730585 -9.6632669047573216 4.9493487681843158 #
straight-curve $-1 53.667409283730592 -2.3053241004353264 1.3806127159414174 0 1 0 I I #
point $-1 53.667409283730592 -9.6632669047573216 1.3806127159414245 #
point $-1 48.648387311168825 -6.7760562168220808 -0.35400757230861235 #
point $-1 48.648387311168825 -2.4452401849192213 -0.35400757230861235 #
End-of-ACIS-data 