500 0 11 0           
7 Unknown 11 ACIS 5.0 NT 24 Fri Mar 26 14:31:02 1999 
-1 9.9999999999999995e-007 1e-010 
body $-1 $11 $-1 $12 #
body $-1 $13 $-1 $14 #
body $-1 $15 $-1 $16 #
body $-1 $17 $-1 $18 #
body $-1 $19 $-1 $20 #
body $-1 $21 $-1 $22 #
body $-1 $23 $-1 $24 #
body $-1 $25 $-1 $26 #
body $-1 $27 $-1 $28 #
body $-1 $29 $-1 $30 #
body $-1 $31 $-1 $32 #
lump $-1 $-1 $33 $0 #
transform $-1 1 0 0 0 1 0 0 0 1 79.630115665150925 43.384281468471549 14.455822122895572 1 rotate no_reflect no_shear #
lump $-1 $-1 $34 $1 #
transform $-1 1 0 0 0 1 0 0 0 1 79.630115665150925 43.384281468471549 14.455822122895572 1 rotate no_reflect no_shear #
lump $-1 $-1 $35 $2 #
transform $-1 1 0 0 0 1 0 0 0 1 79.630115665150925 43.384281468471549 14.455822122895572 1 rotate no_reflect no_shear #
lump $-1 $-1 $36 $3 #
transform $-1 1 0 0 0 1 0 0 0 1 79.630115665150925 43.384281468471549 14.455822122895572 1 rotate no_reflect no_shear #
lump $-1 $-1 $37 $4 #
transform $-1 1 0 0 0 1 0 0 0 1 79.630115665150925 43.384281468471549 14.455822122895572 1 rotate no_reflect no_shear #
lump $-1 $-1 $38 $5 #
transform $-1 1 0 0 0 1 0 0 0 1 79.630115665150925 43.384281468471549 14.455822122895572 1 rotate no_reflect no_shear #
lump $-1 $-1 $39 $6 #
transform $-1 1 0 0 0 1 0 0 0 1 79.630115665150925 43.384281468471549 14.455822122895572 1 rotate no_reflect no_shear #
lump $-1 $-1 $40 $7 #
transform $-1 1 0 0 0 1 0 0 0 1 79.630115665150925 43.384281468471549 14.455822122895572 1 rotate no_reflect no_shear #
lump $-1 $-1 $41 $8 #
transform $-1 1 0 0 0 1 0 0 0 1 79.630115665150925 43.384281468471549 14.455822122895572 1 rotate no_reflect no_shear #
lump $-1 $-1 $42 $9 #
transform $-1 1 0 0 0 1 0 0 0 1 79.630115665150925 43.384281468471549 14.455822122895572 1 rotate no_reflect no_shear #
lump $-1 $-1 $43 $10 #
transform $-1 1 0 0 0 1 0 0 0 1 79.630115665150925 43.384281468471549 14.455822122895572 1 rotate no_reflect no_shear #
shell $-1 $-1 $-1 $44 $-1 $11 #
shell $-1 $-1 $-1 $45 $-1 $13 #
shell $-1 $-1 $-1 $46 $-1 $15 #
shell $-1 $-1 $-1 $47 $-1 $17 #
shell $-1 $-1 $-1 $48 $-1 $19 #
shell $-1 $-1 $-1 $49 $-1 $21 #
shell $-1 $-1 $-1 $50 $-1 $23 #
shell $-1 $-1 $-1 $51 $-1 $25 #
shell $-1 $-1 $-1 $52 $-1 $27 #
shell $-1 $-1 $-1 $53 $-1 $29 #
shell $-1 $-1 $-1 $54 $-1 $31 #
face $-1 $55 $56 $33 $-1 $57 forward single #
face $-1 $58 $59 $34 $-1 $60 reversed single #
face $-1 $61 $62 $35 $-1 $63 reversed single #
face $-1 $64 $65 $36 $-1 $66 reversed single #
face $-1 $67 $68 $37 $-1 $69 forward single #
face $-1 $70 $71 $38 $-1 $72 reversed single #
face $-1 $73 $74 $39 $-1 $75 forward single #
face $-1 $76 $77 $40 $-1 $78 reversed single #
face $-1 $79 $80 $41 $-1 $81 forward single #
face $-1 $82 $83 $42 $-1 $84 reversed single #
face $-1 $85 $86 $43 $-1 $87 forward single #
face $-1 $88 $89 $33 $-1 $90 reversed single #
loop $-1 $-1 $91 $44 #
plane-surface $-1 0 0 14.455822122895572 0 0 1 1 0 0 forward_v I I I I #
face $-1 $92 $93 $34 $-1 $94 reversed single #
loop $-1 $-1 $95 $45 #
plane-surface $-1 -77.709746143414051 -28.053477774703417 0 0 -1 0 0 0 -1 forward_v I I I I #
face $-1 $96 $97 $35 $-1 $98 reversed single #
loop $-1 $-1 $99 $46 #
plane-surface $-1 -77.709746143414051 28.053477774703417 0 0 1 0 0 0 1 forward_v I I I I #
face $-1 $100 $101 $36 $-1 $102 reversed single #
loop $-1 $-1 $103 $47 #
plane-surface $-1 44.396699308327342 -17.579831834029115 225.45334420090362 0 -1 0 -0.5877852598018023 0 -0.80901698891910034 forward_v I I I I #
face $-1 $104 $105 $37 $-1 $106 forward single #
loop $-1 $107 $108 $48 #
cone-surface $-1 70.916739171200732 -21.096518830090751 7.5868499846846804 -0.5877852598018023 0 -0.80901698891910034 0.80901698891910034 0 -0.5877852598018023 1 I I 0 1 1 forward I I I I #
face $-1 $109 $110 $38 $-1 $111 reversed single #
loop $-1 $-1 $112 $49 #
plane-surface $-1 44.396699308327342 -3.5530929466774026 225.45334420090362 0 -1 0 -0.5877852598018023 0 -0.80901698891910034 forward_v I I I I #
face $-1 $113 $114 $39 $-1 $115 forward single #
loop $-1 $116 $117 $50 #
cone-surface $-1 70.916739171200732 -7.0697799427390393 7.5868499846846804 -0.5877852598018023 0 -0.80901698891910034 0.80901698891910034 0 -0.5877852598018023 1 I I 0 1 1 forward I I I I #
face $-1 $118 $119 $40 $-1 $120 reversed single #
loop $-1 $-1 $121 $51 #
plane-surface $-1 44.396699308327342 10.473645940674309 225.45334420090362 0 -1 0 -0.5877852598018023 0 -0.80901698891910034 forward_v I I I I #
face $-1 $122 $123 $41 $-1 $124 forward single #
loop $-1 $125 $126 $52 #
cone-surface $-1 70.916739171200732 6.9569589446126727 7.5868499846846804 -0.5877852598018023 0 -0.80901698891910034 0.80901698891910034 0 -0.5877852598018023 1 I I 0 1 1 forward I I I I #
face $-1 $127 $128 $42 $-1 $129 reversed single #
loop $-1 $-1 $130 $53 #
plane-surface $-1 44.396699308327342 24.500384828026021 225.45334420090362 0 -1 0 -0.5877852598018023 0 -0.80901698891910034 forward_v I I I I #
face $-1 $131 $132 $43 $-1 $133 forward single #
loop $-1 $134 $135 $54 #
cone-surface $-1 70.916739171200732 20.983697831964385 7.5868499846846804 -0.5877852598018023 0 -0.80901698891910034 0.80901698891910034 0 -0.5877852598018023 1 I I 0 1 1 forward I I I I #
face $-1 $136 $137 $33 $-1 $138 reversed single #
loop $-1 $-1 $139 $55 #
plane-surface $-1 0 0 -14.455822122895572 0 0 1 1 0 0 forward_v I I I I #
coedge $-1 $140 $141 $142 $143 forward $56 $-1 #
face $-1 $144 $145 $34 $-1 $146 forward single #
loop $-1 $-1 $147 $58 #
plane-surface $-1 -75.789376621677178 -35.718879621587483 0 -1 0 0 0 0 1 forward_v I I I I #
coedge $-1 $148 $149 $150 $151 forward $59 $-1 #
face $-1 $152 $153 $35 $-1 $154 reversed single #
loop $-1 $-1 $155 $61 #
plane-surface $-1 -75.789376621677178 35.718879621587483 0 -1 0 0 0 0 1 forward_v I I I I #
coedge $-1 $156 $157 $158 $159 reversed $62 $-1 #
face $-1 $160 $161 $36 $-1 $162 reversed single #
loop $-1 $-1 $163 $64 #
plane-surface $-1 -49.214117140249257 -21.096518830090751 96.609111395503447 0.5877852598018023 0 0.80901698891910034 0.80901698891910034 0 -0.5877852598018023 forward_v I I I I #
coedge $-1 $164 $165 $166 $167 reversed $65 $-1 #
face $-1 $-1 $168 $37 $-1 $169 forward single #
loop $-1 $170 $171 $67 #
cone-surface $-1 69.794436522594822 -21.096518830090751 6.0421329399985915 -0.5877852598018023 0 -0.80901698891910034 0.40450849445955017 0 -0.29389262990090115 1 I I -0.70710678118654746 0.70710678118654746 0.5 forward I I I I #
loop $-1 $-1 $172 $48 #
coedge $-1 $108 $108 $173 $174 reversed $68 $-1 #
face $-1 $175 $176 $38 $-1 $177 reversed single #
loop $-1 $-1 $178 $70 #
plane-surface $-1 -49.214117140249257 -7.0697799427390393 96.609111395503447 0.5877852598018023 0 0.80901698891910034 0.80901698891910034 0 -0.5877852598018023 forward_v I I I I #
coedge $-1 $179 $180 $181 $182 reversed $71 $-1 #
face $-1 $-1 $183 $39 $-1 $184 forward single #
loop $-1 $185 $186 $73 #
cone-surface $-1 69.794436522594822 -7.0697799427390393 6.0421329399985915 -0.5877852598018023 0 -0.80901698891910034 0.40450849445955017 0 -0.29389262990090115 1 I I -0.70710678118654746 0.70710678118654746 0.5 forward I I I I #
loop $-1 $-1 $187 $50 #
coedge $-1 $117 $117 $188 $189 reversed $74 $-1 #
face $-1 $190 $191 $40 $-1 $192 reversed single #
loop $-1 $-1 $193 $76 #
plane-surface $-1 -49.214117140249257 6.9569589446126727 96.609111395503447 0.5877852598018023 0 0.80901698891910034 0.80901698891910034 0 -0.5877852598018023 forward_v I I I I #
coedge $-1 $194 $195 $196 $197 reversed $77 $-1 #
face $-1 $-1 $198 $41 $-1 $199 forward single #
loop $-1 $200 $201 $79 #
cone-surface $-1 69.794436522594822 6.9569589446126727 6.0421329399985915 -0.5877852598018023 0 -0.80901698891910034 0.40450849445955017 0 -0.29389262990090115 1 I I -0.70710678118654746 0.70710678118654746 0.5 forward I I I I #
loop $-1 $-1 $202 $52 #
coedge $-1 $126 $126 $203 $204 reversed $80 $-1 #
face $-1 $205 $206 $42 $-1 $207 reversed single #
loop $-1 $-1 $208 $82 #
plane-surface $-1 -49.214117140249257 20.983697831964385 96.609111395503447 0.5877852598018023 0 0.80901698891910034 0.80901698891910034 0 -0.5877852598018023 forward_v I I I I #
coedge $-1 $209 $210 $211 $212 reversed $83 $-1 #
face $-1 $-1 $213 $43 $-1 $214 forward single #
loop $-1 $215 $216 $85 #
cone-surface $-1 69.794436522594822 20.983697831964385 6.0421329399985915 -0.5877852598018023 0 -0.80901698891910034 0.40450849445955017 0 -0.29389262990090115 1 I I -0.70710678118654746 0.70710678118654746 0.5 forward I I I I #
loop $-1 $-1 $217 $54 #
coedge $-1 $135 $135 $218 $219 reversed $86 $-1 #
face $-1 $220 $221 $33 $-1 $222 reversed single #
loop $-1 $-1 $223 $88 #
plane-surface $-1 0 -43.384281468471549 0 0 1 0 0 0 1 forward_v I I I I #
coedge $-1 $224 $225 $226 $227 forward $89 $-1 #
coedge $-1 $228 $91 $229 $230 forward $56 $-1 #
coedge $-1 $91 $228 $231 $232 forward $56 $-1 #
coedge $-1 $233 $234 $91 $143 reversed $235 $-1 #
edge $-1 $236 -43.384281468471549 $237 43.384281468471549 $142 $238 forward 7 unknown #
face $-1 $239 $240 $34 $-1 $241 reversed single #
loop $-1 $-1 $242 $92 #
plane-surface $-1 0 0 14.455822122895572 0 0 1 1 0 0 forward_v I I I I #
coedge $-1 $243 $244 $245 $246 reversed $93 $-1 #
coedge $-1 $247 $95 $248 $249 reversed $59 $-1 #
coedge $-1 $95 $247 $250 $251 reversed $59 $-1 #
coedge $-1 $244 $243 $95 $151 reversed $93 $-1 #
edge $-1 $252 -14.455822122895572 $253 14.455822122895572 $150 $254 forward 7 unknown #
face $-1 $255 $256 $35 $-1 $257 reversed single #
loop $-1 $-1 $258 $96 #
plane-surface $-1 0 0 -14.455822122895572 0 0 1 1 0 0 forward_v I I I I #
coedge $-1 $259 $260 $261 $262 forward $97 $-1 #
coedge $-1 $261 $99 $263 $264 reversed $62 $-1 #
coedge $-1 $99 $261 $265 $266 reversed $62 $-1 #
coedge $-1 $267 $268 $99 $159 forward $256 $-1 #
edge $-1 $269 -14.455822122895572 $270 14.455822122895572 $158 $271 forward 7 unknown #
face $-1 $272 $273 $36 $-1 $274 reversed single #
loop $-1 $-1 $275 $100 #
plane-surface $-1 44.396699308327342 -24.613205826152388 225.45334420090362 0 1 0 0.5877852598018023 0 0.80901698891910034 forward_v I I I I #
coedge $-1 $276 $277 $278 $279 reversed $101 $-1 #
coedge $-1 $165 $103 $280 $281 reversed $65 $-1 #
coedge $-1 $103 $164 $276 $282 reversed $65 $-1 #
coedge $-1 $278 $283 $103 $167 forward $284 $-1 #
edge $-1 $285 -57.431766010987253 $286 -41.661833060496868 $166 $287 forward 7 unknown #
loop $-1 $-1 $173 $104 #
plane-surface $-1 -49.214117140249257 -21.096518830090751 96.609111395503447 0.5877852598018023 0 0.80901698891910034 0.80901698891910034 0 -0.5877852598018023 forward_v I I I I #
loop $-1 $-1 $288 $67 #
coedge $-1 $171 $171 $172 $289 reversed $105 $-1 #
coedge $-1 $172 $172 $171 $289 forward $107 $-1 #
coedge $-1 $173 $173 $108 $174 forward $168 $-1 #
edge $-1 $290 0 $290 6.2831853071796004 $173 $291 forward 7 unknown #
face $-1 $292 $293 $38 $-1 $294 reversed single #
loop $-1 $-1 $295 $109 #
plane-surface $-1 44.396699308327342 -10.586466938800676 225.45334420090362 0 1 0 0.5877852598018023 0 0.80901698891910034 forward_v I I I I #
coedge $-1 $296 $297 $298 $299 reversed $110 $-1 #
coedge $-1 $180 $112 $300 $301 reversed $71 $-1 #
coedge $-1 $112 $179 $296 $302 reversed $71 $-1 #
coedge $-1 $298 $303 $112 $182 forward $304 $-1 #
edge $-1 $305 -57.431766010987253 $306 -41.661833060496868 $181 $307 forward 7 unknown #
loop $-1 $-1 $188 $113 #
plane-surface $-1 -49.214117140249257 -7.0697799427390393 96.609111395503447 0.5877852598018023 0 0.80901698891910034 0.80901698891910034 0 -0.5877852598018023 forward_v I I I I #
loop $-1 $-1 $308 $73 #
coedge $-1 $186 $186 $187 $309 reversed $114 $-1 #
coedge $-1 $187 $187 $186 $309 forward $116 $-1 #
coedge $-1 $188 $188 $117 $189 forward $183 $-1 #
edge $-1 $310 0 $310 6.2831853071796004 $188 $311 forward 7 unknown #
face $-1 $312 $313 $40 $-1 $314 reversed single #
loop $-1 $-1 $315 $118 #
plane-surface $-1 44.396699308327342 3.440271948551036 225.45334420090362 0 1 0 0.5877852598018023 0 0.80901698891910034 forward_v I I I I #
coedge $-1 $316 $317 $318 $319 reversed $119 $-1 #
coedge $-1 $195 $121 $320 $321 reversed $77 $-1 #
coedge $-1 $121 $194 $316 $322 reversed $77 $-1 #
coedge $-1 $318 $323 $121 $197 forward $324 $-1 #
edge $-1 $325 -57.431766010987253 $326 -41.661833060496868 $196 $327 forward 7 unknown #
loop $-1 $-1 $203 $122 #
plane-surface $-1 -49.214117140249257 6.9569589446126727 96.609111395503447 0.5877852598018023 0 0.80901698891910034 0.80901698891910034 0 -0.5877852598018023 forward_v I I I I #
loop $-1 $-1 $328 $79 #
coedge $-1 $201 $201 $202 $329 reversed $123 $-1 #
coedge $-1 $202 $202 $201 $329 forward $125 $-1 #
coedge $-1 $203 $203 $126 $204 forward $198 $-1 #
edge $-1 $330 0 $330 6.2831853071796004 $203 $331 forward 7 unknown #
face $-1 $332 $333 $42 $-1 $334 reversed single #
loop $-1 $-1 $335 $127 #
plane-surface $-1 44.396699308327342 17.467010835902748 225.45334420090362 0 1 0 0.5877852598018023 0 0.80901698891910034 forward_v I I I I #
coedge $-1 $336 $337 $338 $339 reversed $128 $-1 #
coedge $-1 $210 $130 $340 $341 reversed $83 $-1 #
coedge $-1 $130 $209 $336 $342 reversed $83 $-1 #
coedge $-1 $338 $343 $130 $212 forward $344 $-1 #
edge $-1 $345 -57.431766010987253 $346 -41.661833060496868 $211 $347 forward 7 unknown #
loop $-1 $-1 $218 $131 #
plane-surface $-1 -49.214117140249257 20.983697831964385 96.609111395503447 0.5877852598018023 0 0.80901698891910034 0.80901698891910034 0 -0.5877852598018023 forward_v I I I I #
loop $-1 $-1 $348 $85 #
coedge $-1 $216 $216 $217 $349 reversed $132 $-1 #
coedge $-1 $217 $217 $216 $349 forward $134 $-1 #
coedge $-1 $218 $218 $135 $219 forward $213 $-1 #
edge $-1 $350 0 $350 6.2831853071796004 $218 $351 forward 7 unknown #
face $-1 $352 $353 $33 $-1 $354 reversed single #
loop $-1 $-1 $355 $136 #
plane-surface $-1 -79.630115665150925 0 0 1 0 0 0 0 -1 forward_v I I I I #
coedge $-1 $356 $231 $357 $358 forward $137 $-1 #
coedge $-1 $359 $139 $356 $360 forward $89 $-1 #
coedge $-1 $139 $359 $361 $362 forward $89 $-1 #
coedge $-1 $234 $233 $139 $227 reversed $235 $-1 #
edge $-1 $363 -43.384281468471549 $364 43.384281468471549 $226 $365 forward 7 unknown #
coedge $-1 $141 $140 $366 $367 forward $56 $-1 #
coedge $-1 $368 $369 $140 $230 reversed $353 $-1 #
edge $-1 $237 -79.630115665150925 $370 79.630115665150925 $229 $371 forward 7 unknown #
coedge $-1 $223 $372 $141 $232 reversed $137 $-1 #
edge $-1 $373 -79.630115665150925 $236 79.630115665150925 $231 $374 forward 7 unknown #
coedge $-1 $226 $142 $372 $375 forward $235 $-1 #
coedge $-1 $142 $226 $368 $376 reversed $235 $-1 #
loop $-1 $-1 $233 $352 #
vertex $-1 $143 $377 #
vertex $-1 $143 $378 #
straight-curve $-1 79.630115665150925 0 14.455822122895572 0 1 0 I I #
face $-1 $379 $380 $34 $-1 $381 reversed single #
loop $-1 $-1 $382 $144 #
plane-surface $-1 -79.630115665150925 0 0 1 0 0 0 0 -1 forward_v I I I I #
coedge $-1 $250 $383 $244 $384 forward $145 $-1 #
coedge $-1 $150 $147 $385 $386 reversed $93 $-1 #
coedge $-1 $147 $150 $242 $384 reversed $93 $-1 #
coedge $-1 $387 $388 $147 $246 forward $389 $-1 #
edge $-1 $390 -14.455822122895572 $391 14.455822122895572 $245 $392 forward 7 unknown #
coedge $-1 $149 $148 $382 $393 reversed $59 $-1 #
coedge $-1 $385 $394 $148 $249 forward $380 $-1 #
edge $-1 $395 -40.775242593443899 $253 -36.934503549970152 $248 $396 forward 7 unknown #
coedge $-1 $397 $242 $149 $251 forward $145 $-1 #
edge $-1 $252 36.934503549970152 $398 40.775242593443899 $250 $399 forward 7 unknown #
vertex $-1 $251 $400 #
vertex $-1 $249 $401 #
straight-curve $-1 -75.789376621677178 -28.053477774703417 0 0 0 -1 I I #
face $-1 $402 $403 $35 $-1 $404 forward single #
loop $-1 $-1 $158 $152 #
plane-surface $-1 -79.630115665150925 0 0 1 0 0 0 0 -1 forward_v I I I I #
coedge $-1 $263 $405 $259 $406 forward $153 $-1 #
coedge $-1 $407 $155 $258 $406 reversed $97 $-1 #
coedge $-1 $155 $407 $408 $409 reversed $97 $-1 #
coedge $-1 $157 $156 $155 $262 reversed $62 $-1 #
edge $-1 $410 -14.455822122895572 $411 14.455822122895572 $155 $412 forward 7 unknown #
coedge $-1 $413 $258 $156 $264 forward $153 $-1 #
edge $-1 $411 36.934503549970152 $269 40.775242593443899 $263 $414 forward 7 unknown #
coedge $-1 $408 $415 $157 $266 forward $403 $-1 #
edge $-1 $270 -40.775242593443899 $410 -36.934503549970152 $265 $416 forward 7 unknown #
coedge $-1 $417 $158 $415 $418 reversed $256 $-1 #
coedge $-1 $158 $417 $413 $419 reversed $256 $-1 #
vertex $-1 $419 $420 #
vertex $-1 $159 $421 #
straight-curve $-1 -79.630115665150925 28.053477774703417 0 0 0 1 I I #
face $-1 $-1 $284 $36 $-1 $422 forward single #
loop $-1 $-1 $423 $160 #
plane-surface $-1 79.630115665150925 0 0 -1 0 0 0 0 1 forward_v I I I I #
coedge $-1 $424 $425 $426 $427 reversed $161 $-1 #
coedge $-1 $428 $163 $165 $282 forward $101 $-1 #
coedge $-1 $163 $428 $424 $429 forward $101 $-1 #
coedge $-1 $426 $166 $163 $279 forward $284 $-1 #
edge $-1 $286 7.031572418983739 $430 14.064946411107012 $278 $431 forward 7 unknown #
coedge $-1 $432 $433 $164 $281 forward $273 $-1 #
edge $-1 $434 -109.72837715352496 $285 -98.270849977556239 $280 $435 forward 7 unknown #
edge $-1 $286 139.76752207142704 $434 159.26023133030185 $165 $436 forward 7 unknown #
coedge $-1 $166 $426 $432 $437 forward $284 $-1 #
loop $-1 $-1 $426 $272 #
vertex $-1 $281 $438 #
vertex $-1 $167 $439 #
straight-curve $-1 22.198349654163671 -17.579831834029115 14.455822122895569 -1 0 0 I I #
coedge $-1 $288 $288 $-1 $440 reversed $170 $-1 #
edge $-1 $441 0 $441 6.2831853071796004 $171 $442 forward 7 unknown #
vertex $-1 $174 $443 #
ellipse-curve $-1 71.745149189905732 -21.096518830090751 8.7270585349112082 0.5877852598018023 0 0.80901698891910034 0.80901698891910034 0 -0.5877852598018023 1 I I #
face $-1 $-1 $304 $38 $-1 $444 forward single #
loop $-1 $-1 $445 $175 #
plane-surface $-1 79.630115665150925 0 0 -1 0 0 0 0 1 forward_v I I I I #
coedge $-1 $446 $447 $448 $449 reversed $176 $-1 #
coedge $-1 $450 $178 $180 $302 forward $110 $-1 #
coedge $-1 $178 $450 $446 $451 forward $110 $-1 #
coedge $-1 $448 $181 $178 $299 forward $304 $-1 #
edge $-1 $306 0.018202975307882951 $452 7.0515769674311564 $298 $453 forward 7 unknown #
coedge $-1 $454 $455 $179 $301 forward $293 $-1 #
edge $-1 $456 -109.72837715352496 $305 -98.270849977556239 $300 $457 forward 7 unknown #
edge $-1 $306 139.76752207142704 $456 159.26023133030185 $180 $458 forward 7 unknown #
coedge $-1 $181 $448 $454 $459 forward $304 $-1 #
loop $-1 $-1 $448 $292 #
vertex $-1 $301 $460 #
vertex $-1 $182 $461 #
straight-curve $-1 22.198349654163671 -3.5530929466774026 14.455822122895569 -1 0 0 I I #
coedge $-1 $308 $308 $-1 $462 reversed $185 $-1 #
edge $-1 $463 0 $463 6.2831853071796004 $186 $464 forward 7 unknown #
vertex $-1 $189 $465 #
ellipse-curve $-1 71.745149189905732 -7.0697799427390393 8.7270585349112082 0.5877852598018023 0 0.80901698891910034 0.80901698891910034 0 -0.5877852598018023 1 I I #
face $-1 $-1 $324 $40 $-1 $466 forward single #
loop $-1 $-1 $467 $190 #
plane-surface $-1 79.630115665150925 0 0 -1 0 0 0 0 1 forward_v I I I I #
coedge $-1 $468 $469 $470 $471 reversed $191 $-1 #
coedge $-1 $472 $193 $195 $322 forward $119 $-1 #
coedge $-1 $193 $472 $468 $473 forward $119 $-1 #
coedge $-1 $470 $196 $193 $319 forward $324 $-1 #
edge $-1 $326 -6.9951664683679731 $474 0.038207523755300343 $318 $475 forward 7 unknown #
coedge $-1 $476 $477 $194 $321 forward $313 $-1 #
edge $-1 $478 -109.72837715352496 $325 -98.270849977556239 $320 $479 forward 7 unknown #
edge $-1 $326 139.76752207142704 $478 159.26023133030185 $195 $480 forward 7 unknown #
coedge $-1 $196 $470 $476 $481 forward $324 $-1 #
loop $-1 $-1 $470 $312 #
vertex $-1 $321 $482 #
vertex $-1 $197 $483 #
straight-curve $-1 22.198349654163671 10.473645940674309 14.455822122895569 -1 0 0 I I #
coedge $-1 $328 $328 $-1 $484 reversed $200 $-1 #
edge $-1 $485 0 $485 6.2831853071796004 $201 $486 forward 7 unknown #
vertex $-1 $204 $487 #
ellipse-curve $-1 71.745149189905732 6.9569589446126727 8.7270585349112082 0.5877852598018023 0 0.80901698891910034 0.80901698891910034 0 -0.5877852598018023 1 I I #
face $-1 $-1 $344 $42 $-1 $488 forward single #
loop $-1 $-1 $489 $205 #
plane-surface $-1 79.630115665150925 0 0 -1 0 0 0 0 1 forward_v I I I I #
coedge $-1 $490 $491 $492 $493 reversed $206 $-1 #
coedge $-1 $494 $208 $210 $342 forward $128 $-1 #
coedge $-1 $208 $494 $490 $495 forward $128 $-1 #
coedge $-1 $492 $211 $208 $339 forward $344 $-1 #
edge $-1 $346 -14.008535912043829 $496 -6.9751619199205557 $338 $497 forward 7 unknown #
coedge $-1 $498 $499 $209 $341 forward $333 $-1 #
edge $-1 $500 -109.72837715352496 $345 -98.270849977556239 $340 $501 forward 7 unknown #
edge $-1 $346 139.76752207142704 $500 159.26023133030185 $210 $502 forward 7 unknown #
coedge $-1 $211 $492 $498 $503 forward $344 $-1 #
loop $-1 $-1 $492 $332 #
vertex $-1 $341 $504 #
vertex $-1 $212 $505 #
straight-curve $-1 22.198349654163671 24.500384828026021 14.455822122895569 -1 0 0 I I #
coedge $-1 $348 $348 $-1 $506 reversed $215 $-1 #
edge $-1 $507 0 $507 6.2831853071796004 $216 $508 forward 7 unknown #
vertex $-1 $219 $509 #
ellipse-curve $-1 71.745149189905732 20.983697831964385 8.7270585349112082 0.5877852598018023 0 0.80901698891910034 0.80901698891910034 0 -0.5877852598018023 1 I I #
face $-1 $-1 $235 $33 $-1 $510 reversed single #
loop $-1 $-1 $368 $220 #
plane-surface $-1 0 43.384281468471549 0 0 -1 0 0 0 -1 forward_v I I I I #
coedge $-1 $511 $366 $369 $512 forward $221 $-1 #
coedge $-1 $372 $223 $224 $360 reversed $137 $-1 #
coedge $-1 $366 $511 $223 $358 reversed $221 $-1 #
edge $-1 $373 -14.455822122895572 $513 14.455822122895572 $357 $514 forward 7 unknown #
coedge $-1 $225 $224 $511 $515 forward $89 $-1 #
edge $-1 $364 -79.630115665150925 $513 79.630115665150925 $356 $516 forward 7 unknown #
coedge $-1 $369 $368 $225 $362 reversed $353 $-1 #
edge $-1 $517 -79.630115665150925 $363 79.630115665150925 $361 $518 forward 7 unknown #
vertex $-1 $227 $519 #
vertex $-1 $375 $520 #
straight-curve $-1 79.630115665150925 0 -14.455822122895572 0 -1 0 I I #
coedge $-1 $355 $357 $228 $367 reversed $221 $-1 #
edge $-1 $370 -43.384281468471549 $373 43.384281468471549 $366 $521 forward 7 unknown #
coedge $-1 $361 $229 $234 $376 forward $353 $-1 #
coedge $-1 $229 $361 $355 $512 reversed $353 $-1 #
vertex $-1 $230 $522 #
straight-curve $-1 0 43.384281468471549 14.455822122895572 -1 0 0 I I #
coedge $-1 $231 $356 $233 $375 reversed $137 $-1 #
vertex $-1 $367 $523 #
straight-curve $-1 0 -43.384281468471549 14.455822122895572 1 0 0 I I #
edge $-1 $236 -14.455822122895572 $364 14.455822122895572 $233 $524 forward 7 unknown #
edge $-1 $237 -14.455822122895572 $363 14.455822122895572 $234 $525 forward 7 unknown #
point $-1 79.630115665150925 -43.384281468471549 14.455822122895572 #
point $-1 79.630115665150925 43.384281468471549 14.455822122895572 #
face $-1 $-1 $389 $34 $-1 $526 reversed single #
loop $-1 $-1 $385 $239 #
plane-surface $-1 0 0 -14.455822122895572 0 0 1 1 0 0 forward_v I I I I #
coedge $-1 $527 $528 $247 $393 forward $240 $-1 #
coedge $-1 $242 $397 $387 $529 forward $145 $-1 #
edge $-1 $391 -25.524841657677808 $252 -10.194037963909675 $242 $530 forward 7 unknown #
coedge $-1 $531 $248 $243 $386 forward $380 $-1 #
edge $-1 $253 10.194037963909675 $390 25.524841657677808 $385 $532 forward 7 unknown #
coedge $-1 $533 $245 $383 $529 reversed $389 $-1 #
coedge $-1 $245 $533 $531 $534 reversed $389 $-1 #
loop $-1 $-1 $245 $379 #
vertex $-1 $534 $535 #
vertex $-1 $246 $536 #
straight-curve $-1 -75.789376621677178 -43.384281468471549 0 0 0 1 I I #
edge $-1 $398 -14.455822122895572 $395 14.455822122895572 $382 $537 forward 7 unknown #
coedge $-1 $248 $531 $527 $538 forward $380 $-1 #
vertex $-1 $249 $539 #
straight-curve $-1 -38.854873071707026 -28.053477774703417 -14.455822122895572 1 0 0 I I #
coedge $-1 $383 $250 $528 $540 forward $145 $-1 #
vertex $-1 $540 $541 #
straight-curve $-1 -38.854873071707026 -28.053477774703417 14.455822122895572 -1 0 0 I I #
point $-1 -75.789376621677178 -28.053477774703417 14.455822122895572 #
point $-1 -75.789376621677178 -28.053477774703417 -14.455822122895572 #
face $-1 $-1 $542 $35 $-1 $543 reversed single #
loop $-1 $-1 $408 $255 #
plane-surface $-1 0 0 14.455822122895572 0 0 1 1 0 0 forward_v I I I I #
coedge $-1 $258 $413 $544 $545 forward $153 $-1 #
edge $-1 $546 -25.524841657677808 $411 -10.194037963909675 $258 $547 forward 7 unknown #
coedge $-1 $260 $259 $548 $549 reversed $97 $-1 #
coedge $-1 $550 $265 $260 $409 forward $403 $-1 #
edge $-1 $410 10.194037963909675 $551 25.524841657677808 $408 $552 forward 7 unknown #
vertex $-1 $266 $553 #
vertex $-1 $264 $554 #
straight-curve $-1 -75.789376621677178 28.053477774703417 0 0 0 -1 I I #
coedge $-1 $405 $263 $268 $419 forward $153 $-1 #
straight-curve $-1 -38.854873071707026 28.053477774703417 -14.455822122895572 -1 0 0 I I #
coedge $-1 $265 $550 $267 $418 forward $403 $-1 #
straight-curve $-1 -38.854873071707026 28.053477774703417 14.455822122895572 1 0 0 I I #
coedge $-1 $268 $267 $555 $556 forward $256 $-1 #
edge $-1 $557 -43.384281468471549 $270 -28.053477774703417 $267 $558 forward 7 unknown #
edge $-1 $269 28.053477774703417 $559 43.384281468471549 $268 $560 forward 7 unknown #
point $-1 -79.630115665150925 28.053477774703417 -14.455822122895572 #
point $-1 -79.630115665150925 28.053477774703417 14.455822122895572 #
plane-surface $-1 0 0 14.455822122895572 0 0 1 1 0 0 forward_v I I I I #
coedge $-1 $433 $432 $425 $561 forward $273 $-1 #
coedge $-1 $425 $275 $277 $429 reversed $161 $-1 #
coedge $-1 $275 $424 $423 $561 reversed $161 $-1 #
coedge $-1 $283 $278 $275 $427 forward $284 $-1 #
edge $-1 $430 41.661833060496868 $562 57.431766010987253 $426 $563 forward 7 unknown #
coedge $-1 $277 $276 $433 $564 reversed $101 $-1 #
edge $-1 $565 -159.26023133030185 $430 -139.76752207142704 $424 $566 forward 7 unknown #
vertex $-1 $279 $567 #
straight-curve $-1 63.860182714660532 -10.548259415045376 14.455822122895576 0 -1 0 I I #
coedge $-1 $423 $280 $283 $437 reversed $273 $-1 #
coedge $-1 $280 $423 $428 $564 forward $273 $-1 #
vertex $-1 $281 $568 #
straight-curve $-1 79.630115665150925 -17.579831834029115 112.72667210045181 0 0 1 I I #
straight-curve $-1 -49.214117140249257 -17.579831834029115 96.609111395503447 0.80901698891910034 0 -0.5877852598018023 I I #
edge $-1 $562 -24.613205826152388 $285 -17.579831834029115 $432 $569 forward 7 unknown #
point $-1 79.630115665150925 -17.579831834029115 14.455822122895572 #
point $-1 63.860182714660539 -17.579831834029115 14.455822122895569 #
edge $-1 $570 1 $570 0 $288 $-1 forward 7 unknown #
vertex $-1 $289 $571 #
ellipse-curve $-1 70.088329152495717 -21.096518830090751 6.446641434458142 0.5877852598018023 0 0.80901698891910034 0.80901698891910034 0 -0.5877852598018023 1 I I #
point $-1 72.554166178824843 -21.096518830090751 8.1392732751094172 #
plane-surface $-1 0 0 14.455822122895572 0 0 1 1 0 0 forward_v I I I I #
coedge $-1 $455 $454 $447 $572 forward $293 $-1 #
coedge $-1 $447 $295 $297 $451 reversed $176 $-1 #
coedge $-1 $295 $446 $445 $572 reversed $176 $-1 #
coedge $-1 $303 $298 $295 $449 forward $304 $-1 #
edge $-1 $452 41.661833060496868 $573 57.431766010987253 $448 $574 forward 7 unknown #
coedge $-1 $297 $296 $455 $575 reversed $110 $-1 #
edge $-1 $576 -159.26023133030185 $452 -139.76752207142704 $446 $577 forward 7 unknown #
vertex $-1 $299 $578 #
straight-curve $-1 63.860182714660532 -3.5348899713695197 14.455822122895576 0 -1 0 I I #
coedge $-1 $445 $300 $303 $459 reversed $293 $-1 #
coedge $-1 $300 $445 $450 $575 forward $293 $-1 #
vertex $-1 $301 $579 #
straight-curve $-1 79.630115665150925 -3.5530929466774026 112.72667210045181 0 0 1 I I #
straight-curve $-1 -49.214117140249257 -3.5530929466774026 96.609111395503447 0.80901698891910034 0 -0.5877852598018023 I I #
edge $-1 $573 -10.586466938800676 $305 -3.5530929466774026 $454 $580 forward 7 unknown #
point $-1 79.630115665150925 -3.5530929466774026 14.455822122895572 #
point $-1 63.860182714660539 -3.5530929466774026 14.455822122895569 #
edge $-1 $581 1 $581 0 $308 $-1 forward 7 unknown #
vertex $-1 $309 $582 #
ellipse-curve $-1 70.088329152495717 -7.0697799427390393 6.446641434458142 0.5877852598018023 0 0.80901698891910034 0.80901698891910034 0 -0.5877852598018023 1 I I #
point $-1 72.554166178824843 -7.0697799427390393 8.1392732751094172 #
plane-surface $-1 0 0 14.455822122895572 0 0 1 1 0 0 forward_v I I I I #
coedge $-1 $477 $476 $469 $583 forward $313 $-1 #
coedge $-1 $469 $315 $317 $473 reversed $191 $-1 #
coedge $-1 $315 $468 $467 $583 reversed $191 $-1 #
coedge $-1 $323 $318 $315 $471 forward $324 $-1 #
edge $-1 $474 41.661833060496868 $584 57.431766010987253 $470 $585 forward 7 unknown #
coedge $-1 $317 $316 $477 $586 reversed $119 $-1 #
edge $-1 $587 -159.26023133030185 $474 -139.76752207142704 $468 $588 forward 7 unknown #
vertex $-1 $319 $589 #
straight-curve $-1 63.860182714660532 3.4784794723063364 14.455822122895576 0 -1 0 I I #
coedge $-1 $467 $320 $323 $481 reversed $313 $-1 #
coedge $-1 $320 $467 $472 $586 forward $313 $-1 #
vertex $-1 $321 $590 #
straight-curve $-1 79.630115665150925 10.473645940674309 112.72667210045181 0 0 1 I I #
straight-curve $-1 -49.214117140249257 10.473645940674309 96.609111395503447 0.80901698891910034 0 -0.5877852598018023 I I #
edge $-1 $584 3.440271948551036 $325 10.473645940674309 $476 $591 forward 7 unknown #
point $-1 79.630115665150925 10.473645940674309 14.455822122895572 #
point $-1 63.860182714660539 10.473645940674309 14.455822122895569 #
edge $-1 $592 1 $592 0 $328 $-1 forward 7 unknown #
vertex $-1 $329 $593 #
ellipse-curve $-1 70.088329152495717 6.9569589446126727 6.446641434458142 0.5877852598018023 0 0.80901698891910034 0.80901698891910034 0 -0.5877852598018023 1 I I #
point $-1 72.554166178824843 6.9569589446126727 8.1392732751094172 #
plane-surface $-1 0 0 14.455822122895572 0 0 1 1 0 0 forward_v I I I I #
coedge $-1 $499 $498 $491 $594 forward $333 $-1 #
coedge $-1 $491 $335 $337 $495 reversed $206 $-1 #
coedge $-1 $335 $490 $489 $594 reversed $206 $-1 #
coedge $-1 $343 $338 $335 $493 forward $344 $-1 #
edge $-1 $496 41.661833060496868 $595 57.431766010987253 $492 $596 forward 7 unknown #
coedge $-1 $337 $336 $499 $597 reversed $128 $-1 #
edge $-1 $598 -159.26023133030185 $496 -139.76752207142704 $490 $599 forward 7 unknown #
vertex $-1 $339 $600 #
straight-curve $-1 63.860182714660532 10.491848915982192 14.455822122895576 0 -1 0 I I #
coedge $-1 $489 $340 $343 $503 reversed $333 $-1 #
coedge $-1 $340 $489 $494 $597 forward $333 $-1 #
vertex $-1 $341 $601 #
straight-curve $-1 79.630115665150925 24.500384828026021 112.72667210045181 0 0 1 I I #
straight-curve $-1 -49.214117140249257 24.500384828026021 96.609111395503447 0.80901698891910034 0 -0.5877852598018023 I I #
edge $-1 $595 17.467010835902748 $345 24.500384828026021 $498 $602 forward 7 unknown #
point $-1 79.630115665150925 24.500384828026021 14.455822122895572 #
point $-1 63.860182714660539 24.500384828026021 14.455822122895569 #
edge $-1 $603 1 $603 0 $348 $-1 forward 7 unknown #
vertex $-1 $349 $604 #
ellipse-curve $-1 70.088329152495717 20.983697831964385 6.446641434458142 0.5877852598018023 0 0.80901698891910034 0.80901698891910034 0 -0.5877852598018023 1 I I #
point $-1 72.554166178824843 20.983697831964385 8.1392732751094172 #
plane-surface $-1 79.630115665150925 0 0 -1 0 0 0 0 1 forward_v I I I I #
coedge $-1 $357 $355 $359 $515 reversed $221 $-1 #
edge $-1 $370 -14.455822122895572 $517 14.455822122895572 $369 $605 forward 7 unknown #
vertex $-1 $515 $606 #
straight-curve $-1 -79.630115665150925 -43.384281468471549 0 0 0 -1 I I #
edge $-1 $513 -43.384281468471549 $517 43.384281468471549 $511 $607 forward 7 unknown #
straight-curve $-1 0 -43.384281468471549 -14.455822122895572 -1 0 0 I I #
vertex $-1 $362 $608 #
straight-curve $-1 0 43.384281468471549 -14.455822122895572 1 0 0 I I #
point $-1 79.630115665150925 43.384281468471549 -14.455822122895572 #
point $-1 79.630115665150925 -43.384281468471549 -14.455822122895572 #
straight-curve $-1 -79.630115665150925 0 14.455822122895572 0 -1 0 I I #
point $-1 -79.630115665150925 43.384281468471549 14.455822122895572 #
point $-1 -79.630115665150925 -43.384281468471549 14.455822122895572 #
straight-curve $-1 79.630115665150925 -43.384281468471549 0 0 0 -1 I I #
straight-curve $-1 79.630115665150925 43.384281468471549 0 0 0 -1 I I #
plane-surface $-1 0 -43.384281468471549 0 0 1 0 0 0 1 forward_v I I I I #
coedge $-1 $609 $382 $394 $538 reversed $240 $-1 #
coedge $-1 $382 $609 $397 $540 reversed $240 $-1 #
edge $-1 $610 -79.630115665150925 $391 -75.789376621677178 $387 $611 forward 7 unknown #
straight-curve $-1 -75.789376621677178 -17.859439810793742 14.455822122895572 0 1 0 I I #
coedge $-1 $394 $385 $388 $534 forward $380 $-1 #
straight-curve $-1 -75.789376621677178 -17.859439810793742 -14.455822122895572 0 -1 0 I I #
coedge $-1 $388 $387 $609 $612 forward $389 $-1 #
edge $-1 $390 75.789376621677178 $613 79.630115665150925 $388 $614 forward 7 unknown #
point $-1 -75.789376621677178 -43.384281468471549 -14.455822122895572 #
point $-1 -75.789376621677178 -43.384281468471549 14.455822122895572 #
straight-curve $-1 -79.630115665150925 -28.053477774703417 0 0 0 -1 I I #
edge $-1 $613 -43.384281468471549 $395 -28.053477774703417 $527 $615 forward 7 unknown #
point $-1 -79.630115665150925 -28.053477774703417 -14.455822122895572 #
edge $-1 $398 28.053477774703417 $610 43.384281468471549 $528 $616 forward 7 unknown #
point $-1 -79.630115665150925 -28.053477774703417 14.455822122895572 #
loop $-1 $-1 $548 $402 #
plane-surface $-1 0 43.384281468471549 0 0 -1 0 0 0 -1 forward_v I I I I #
coedge $-1 $555 $548 $405 $545 reversed $542 $-1 #
edge $-1 $559 -79.630115665150925 $546 -75.789376621677178 $544 $617 forward 7 unknown #
vertex $-1 $406 $618 #
straight-curve $-1 -75.789376621677178 17.859439810793742 -14.455822122895572 0 -1 0 I I #
coedge $-1 $544 $619 $407 $549 forward $542 $-1 #
edge $-1 $551 -14.455822122895572 $546 14.455822122895572 $548 $620 forward 7 unknown #
coedge $-1 $415 $408 $619 $621 forward $403 $-1 #
vertex $-1 $621 $622 #
straight-curve $-1 -75.789376621677178 17.859439810793742 14.455822122895572 0 1 0 I I #
point $-1 -75.789376621677178 28.053477774703417 14.455822122895572 #
point $-1 -75.789376621677178 28.053477774703417 -14.455822122895572 #
coedge $-1 $619 $544 $417 $556 reversed $542 $-1 #
edge $-1 $557 -14.455822122895572 $559 14.455822122895572 $555 $623 forward 7 unknown #
vertex $-1 $621 $624 #
straight-curve $-1 -79.630115665150925 0 14.455822122895572 0 -1 0 I I #
vertex $-1 $545 $625 #
straight-curve $-1 -79.630115665150925 0 -14.455822122895572 0 1 0 I I #
edge $-1 $562 98.270849977556239 $565 109.72837715352496 $423 $626 forward 7 unknown #
vertex $-1 $437 $627 #
straight-curve $-1 22.198349654163671 -24.613205826152388 14.455822122895569 1 0 0 I I #
edge $-1 $565 -14.064946411107012 $434 -7.031572418983739 $433 $628 forward 7 unknown #
vertex $-1 $564 $629 #
straight-curve $-1 -49.214117140249257 -24.613205826152388 96.609111395503447 -0.80901698891910034 0 0.5877852598018023 I I #
point $-1 63.860182714660539 -24.613205826152388 14.455822122895569 #
point $-1 79.63011566515091 -17.579831834029115 2.9982949469268476 #
straight-curve $-1 79.630115665150925 0 14.455822122895572 0 1 0 I I #
vertex $-1 $440 $630 #
point $-1 70.897346141414829 -21.096518830090751 5.8588561746563395 #
edge $-1 $573 98.270849977556239 $576 109.72837715352496 $445 $631 forward 7 unknown #
vertex $-1 $459 $632 #
straight-curve $-1 22.198349654163671 -10.586466938800676 14.455822122895569 1 0 0 I I #
edge $-1 $576 -7.0515769674311564 $456 -0.018202975307882951 $455 $633 forward 7 unknown #
vertex $-1 $575 $634 #
straight-curve $-1 -49.214117140249257 -10.586466938800676 96.609111395503447 -0.80901698891910034 0 0.5877852598018023 I I #
point $-1 63.860182714660539 -10.586466938800676 14.455822122895569 #
point $-1 79.63011566515091 -3.5530929466774026 2.9982949469268476 #
straight-curve $-1 79.630115665150925 0 14.455822122895572 0 1 0 I I #
vertex $-1 $462 $635 #
point $-1 70.897346141414829 -7.0697799427390393 5.8588561746563395 #
edge $-1 $584 98.270849977556239 $587 109.72837715352496 $467 $636 forward 7 unknown #
vertex $-1 $481 $637 #
straight-curve $-1 22.198349654163671 3.440271948551036 14.455822122895569 1 0 0 I I #
edge $-1 $587 -0.038207523755300343 $478 6.9951664683679731 $477 $638 forward 7 unknown #
vertex $-1 $586 $639 #
straight-curve $-1 -49.214117140249257 3.440271948551036 96.609111395503447 -0.80901698891910034 0 0.5877852598018023 I I #
point $-1 63.860182714660539 3.440271948551036 14.455822122895569 #
point $-1 79.63011566515091 10.473645940674309 2.9982949469268476 #
straight-curve $-1 79.630115665150925 0 14.455822122895572 0 1 0 I I #
vertex $-1 $484 $640 #
point $-1 70.897346141414829 6.9569589446126727 5.8588561746563395 #
edge $-1 $595 98.270849977556239 $598 109.72837715352496 $489 $641 forward 7 unknown #
vertex $-1 $503 $642 #
straight-curve $-1 22.198349654163671 17.467010835902748 14.455822122895569 1 0 0 I I #
edge $-1 $598 6.9751619199205557 $500 14.008535912043829 $499 $643 forward 7 unknown #
vertex $-1 $597 $644 #
straight-curve $-1 -49.214117140249257 17.467010835902748 96.609111395503447 -0.80901698891910034 0 0.5877852598018023 I I #
point $-1 63.860182714660539 17.467010835902748 14.455822122895569 #
point $-1 79.63011566515091 24.500384828026021 2.9982949469268476 #
straight-curve $-1 79.630115665150925 0 14.455822122895572 0 1 0 I I #
vertex $-1 $506 $645 #
point $-1 70.897346141414829 20.983697831964385 5.8588561746563395 #
straight-curve $-1 -79.630115665150925 43.384281468471549 0 0 0 -1 I I #
point $-1 -79.630115665150925 -43.384281468471549 -14.455822122895572 #
straight-curve $-1 -79.630115665150925 0 -14.455822122895572 0 1 0 I I #
point $-1 -79.630115665150925 43.384281468471549 -14.455822122895572 #
coedge $-1 $528 $527 $533 $612 reversed $240 $-1 #
vertex $-1 $540 $646 #
straight-curve $-1 0 -43.384281468471549 14.455822122895572 1 0 0 I I #
edge $-1 $610 -14.455822122895572 $613 14.455822122895572 $609 $647 forward 7 unknown #
vertex $-1 $538 $648 #
straight-curve $-1 0 -43.384281468471549 -14.455822122895572 -1 0 0 I I #
straight-curve $-1 -79.630115665150925 0 -14.455822122895572 0 1 0 I I #
straight-curve $-1 -79.630115665150925 0 14.455822122895572 0 -1 0 I I #
straight-curve $-1 0 43.384281468471549 -14.455822122895572 1 0 0 I I #
point $-1 -75.789376621677178 43.384281468471549 -14.455822122895572 #
coedge $-1 $548 $555 $550 $621 reversed $542 $-1 #
straight-curve $-1 -75.789376621677178 43.384281468471549 0 0 0 -1 I I #
edge $-1 $551 75.789376621677178 $557 79.630115665150925 $619 $649 forward 7 unknown #
point $-1 -75.789376621677178 43.384281468471549 14.455822122895572 #
straight-curve $-1 -79.630115665150925 43.384281468471549 0 0 0 -1 I I #
point $-1 -79.630115665150925 43.384281468471549 14.455822122895572 #
point $-1 -79.630115665150925 43.384281468471549 -14.455822122895572 #
straight-curve $-1 79.630115665150925 -24.613205826152388 112.72667210045181 0 0 -1 I I #
point $-1 79.630115665150925 -24.613205826152388 14.455822122895572 #
straight-curve $-1 79.630115665150925 -10.548259415045376 2.9982949469268263 0 1 0 I I #
point $-1 79.63011566515091 -24.613205826152388 2.9982949469268476 #
point $-1 69.500543892693926 -21.096518830090751 5.637624445539041 #
straight-curve $-1 79.630115665150925 -10.586466938800676 112.72667210045181 0 0 -1 I I #
point $-1 79.630115665150925 -10.586466938800676 14.455822122895572 #
straight-curve $-1 79.630115665150925 -3.5348899713695197 2.9982949469268263 0 1 0 I I #
point $-1 79.63011566515091 -10.586466938800676 2.9982949469268476 #
point $-1 69.500543892693926 -7.0697799427390393 5.637624445539041 #
straight-curve $-1 79.630115665150925 3.440271948551036 112.72667210045181 0 0 -1 I I #
point $-1 79.630115665150925 3.440271948551036 14.455822122895572 #
straight-curve $-1 79.630115665150925 3.4784794723063364 2.9982949469268263 0 1 0 I I #
point $-1 79.63011566515091 3.440271948551036 2.9982949469268476 #
point $-1 69.500543892693926 6.9569589446126727 5.637624445539041 #
straight-curve $-1 79.630115665150925 17.467010835902748 112.72667210045181 0 0 -1 I I #
point $-1 79.630115665150925 17.467010835902748 14.455822122895572 #
straight-curve $-1 79.630115665150925 10.491848915982192 2.9982949469268263 0 1 0 I I #
point $-1 79.63011566515091 17.467010835902748 2.9982949469268476 #
point $-1 69.500543892693926 20.983697831964385 5.637624445539041 #
point $-1 -79.630115665150925 -43.384281468471549 14.455822122895572 #
straight-curve $-1 -79.630115665150925 -43.384281468471549 0 0 0 -1 I I #
point $-1 -79.630115665150925 -43.384281468471549 -14.455822122895572 #
straight-curve $-1 0 43.384281468471549 14.455822122895572 -1 0 0 I I #
End-of-ACIS-data 