500 0 10 0           
7 Unknown 11 ACIS 5.0 NT 24 Fri Mar 26 15:10:26 1999 
-1 9.9999999999999995e-007 1e-010 
body $-1 $10 $-1 $11 #
body $-1 $12 $-1 $13 #
body $-1 $14 $-1 $15 #
body $-1 $16 $-1 $17 #
body $-1 $18 $-1 $19 #
body $-1 $20 $-1 $21 #
body $-1 $22 $-1 $23 #
body $-1 $24 $-1 $25 #
body $-1 $26 $-1 $27 #
body $-1 $28 $-1 $29 #
lump $-1 $-1 $30 $0 #
transform $-1 1 0 0 0 1 0 0 0 1 64.868923001800596 33.762248196579115 11.624055507214196 1 rotate no_reflect no_shear #
lump $-1 $-1 $31 $1 #
transform $-1 1 0 0 0 1 0 0 0 1 64.868923001800596 33.762248196579115 11.624055507214196 1 rotate no_reflect no_shear #
lump $-1 $-1 $32 $2 #
transform $-1 1 0 0 0 1 0 0 0 1 64.868923001800596 33.762248196579115 11.624055507214196 1 rotate no_reflect no_shear #
lump $-1 $-1 $33 $3 #
transform $-1 1 0 0 0 1 0 0 0 1 64.868923001800596 33.762248196579115 11.624055507214196 1 rotate no_reflect no_shear #
lump $-1 $-1 $34 $4 #
transform $-1 1 0 0 0 1 0 0 0 1 64.868923001800596 33.762248196579115 11.624055507214196 1 rotate no_reflect no_shear #
lump $-1 $-1 $35 $5 #
transform $-1 1 0 0 0 1 0 0 0 1 64.868923001800596 33.762248196579115 11.624055507214196 1 rotate no_reflect no_shear #
lump $-1 $-1 $36 $6 #
transform $-1 1 0 0 0 1 0 0 0 1 64.868923001800596 33.762248196579115 11.624055507214196 1 rotate no_reflect no_shear #
lump $-1 $-1 $37 $7 #
transform $-1 1 0 0 0 1 0 0 0 1 64.868923001800596 33.762248196579115 11.624055507214196 1 rotate no_reflect no_shear #
lump $-1 $-1 $38 $8 #
transform $-1 1 0 0 0 1 0 0 0 1 64.868923001800596 33.762248196579115 11.624055507214196 1 rotate no_reflect no_shear #
lump $-1 $-1 $39 $9 #
transform $-1 1 0 0 0 1 0 0 0 1 64.868923001800596 33.762248196579115 11.624055507214196 1 rotate no_reflect no_shear #
shell $-1 $-1 $-1 $40 $-1 $10 #
shell $-1 $-1 $-1 $41 $-1 $12 #
shell $-1 $-1 $-1 $42 $-1 $14 #
shell $-1 $-1 $-1 $43 $-1 $16 #
shell $-1 $-1 $-1 $44 $-1 $18 #
shell $-1 $-1 $-1 $45 $-1 $20 #
shell $-1 $-1 $-1 $46 $-1 $22 #
shell $-1 $-1 $-1 $47 $-1 $24 #
shell $-1 $-1 $-1 $48 $-1 $26 #
shell $-1 $-1 $-1 $49 $-1 $28 #
face $-1 $50 $51 $30 $-1 $52 forward single #
face $-1 $53 $54 $31 $-1 $55 forward single #
face $-1 $56 $57 $32 $-1 $58 forward single #
face $-1 $59 $60 $33 $-1 $61 reversed single #
face $-1 $62 $63 $34 $-1 $64 forward single #
face $-1 $65 $66 $35 $-1 $67 forward single #
face $-1 $68 $69 $36 $-1 $70 reversed single #
face $-1 $71 $72 $37 $-1 $73 forward single #
face $-1 $74 $75 $38 $-1 $76 forward single #
face $-1 $77 $78 $39 $-1 $79 forward single #
face $-1 $80 $81 $30 $-1 $82 reversed single #
loop $-1 $-1 $83 $40 #
plane-surface $-1 0 0 11.624055507214196 0 0 1 1 0 0 forward_v I I I I #
face $-1 $84 $85 $31 $-1 $86 forward single #
loop $-1 $-1 $87 $41 #
plane-surface $-1 -64.868923001800596 0 0 1 0 0 0 0 -1 forward_v I I I I #
face $-1 $88 $89 $32 $-1 $90 reversed single #
loop $-1 $-1 $91 $42 #
plane-surface $-1 64.868923001800596 0 0 -1 0 0 0 0 1 forward_v I I I I #
face $-1 $92 $93 $33 $-1 $94 reversed single #
loop $-1 $-1 $95 $43 #
plane-surface $-1 25.23565847722594 52.863991615704727 148.04273252025982 1 0 0 0 -0.57357644374324357 -0.81915203911291934 forward_v I I I I #
face $-1 $96 $97 $34 $-1 $98 forward single #
loop $-1 $99 $100 $44 #
cone-surface $-1 32.73229005800107 25.227633181095342 3.8988119031264938 0 -0.57357644374324357 -0.81915203911291934 2.5 0 0 1 I I 0 1 2.5 forward I I I I #
face $-1 $101 $102 $35 $-1 $103 forward single #
loop $-1 $104 $105 $45 #
cone-surface $-1 43.977237429163765 25.227633181095342 3.8988119031264938 0 -0.57357644374324357 -0.81915203911291934 2.5 0 0 1 I I 0 1 2.5 forward I I I I #
face $-1 $106 $107 $36 $-1 $108 reversed single #
loop $-1 $-1 $109 $46 #
plane-surface $-1 25.66838222784191 -138.72237148883707 81.441320322277463 -1 0 0 0 -0.80901700255871778 0.5877852410284794 forward_v I I I I #
face $-1 $110 $111 $37 $-1 $112 forward single #
loop $-1 $113 $114 $47 #
cone-surface $-1 16.016485898727069 -30.655880862892843 7.8466982743439173 0 0.80901700255871778 -0.5877852410284794 1 0 0 1 I I 0 1 1 forward I I I I #
face $-1 $115 $116 $38 $-1 $117 forward single #
loop $-1 $118 $119 $48 #
cone-surface $-1 19.635947022145132 -30.655880862892843 7.8466982743439173 0 0.80901700255871778 -0.5877852410284794 1 0 0 1 I I 0 1 1 forward I I I I #
face $-1 $120 $121 $39 $-1 $122 forward single #
loop $-1 $123 $124 $49 #
cone-surface $-1 23.255408145563194 -30.655880862892843 7.8466982743439173 0 0.80901700255871778 -0.5877852410284794 1 0 0 1 I I 0 1 1 forward I I I I #
face $-1 $125 $126 $30 $-1 $127 reversed single #
loop $-1 $-1 $128 $50 #
plane-surface $-1 0 0 -11.624055507214196 0 0 1 1 0 0 forward_v I I I I #
coedge $-1 $129 $130 $131 $132 forward $51 $-1 #
face $-1 $133 $134 $31 $-1 $135 reversed single #
loop $-1 $-1 $136 $53 #
plane-surface $-1 0 0 11.624055507214196 0 0 1 1 0 0 forward_v I I I I #
coedge $-1 $137 $138 $139 $140 forward $54 $-1 #
face $-1 $141 $142 $32 $-1 $143 reversed single #
loop $-1 $-1 $144 $56 #
plane-surface $-1 0 -33.762248196579115 0 0 1 0 0 0 1 forward_v I I I I #
coedge $-1 $145 $146 $147 $148 forward $57 $-1 #
face $-1 $149 $150 $33 $-1 $151 reversed single #
loop $-1 $-1 $152 $59 #
plane-surface $-1 38.35476374358241 -21.550580713949437 41.767711416291988 0 0.57357644374324357 0.81915203911291934 1 0 0 forward_v I I I I #
coedge $-1 $153 $154 $155 $156 reversed $60 $-1 #
face $-1 $-1 $157 $34 $-1 $158 forward single #
loop $-1 $159 $160 $62 #
cone-surface $-1 32.73229005800107 22.107661428382805 -0.55696945102066842 0 -0.57357644374324357 -0.81915203911291934 1.25 0 0 1 I I -0.70710678118654746 0.70710678118654746 1.25 forward I I I I #
loop $-1 $-1 $161 $44 #
coedge $-1 $100 $100 $162 $163 reversed $63 $-1 #
face $-1 $-1 $164 $35 $-1 $165 forward single #
loop $-1 $166 $167 $65 #
cone-surface $-1 43.977237429163765 22.107661428382805 -0.55696945102066842 0 -0.57357644374324357 -0.81915203911291934 1.25 0 0 1 I I -0.70710678118654746 0.70710678118654746 1.25 forward I I I I #
loop $-1 $-1 $168 $45 #
coedge $-1 $105 $105 $169 $170 reversed $66 $-1 #
face $-1 $171 $172 $36 $-1 $173 reversed single #
loop $-1 $-1 $174 $68 #
plane-surface $-1 19.635947022145132 -33.762248196579108 5.1833292385349949 0 -0.80901700255871778 0.5877852410284794 1 0 0 forward_v I I I I #
coedge $-1 $175 $176 $177 $178 reversed $69 $-1 #
face $-1 $-1 $179 $37 $-1 $180 forward single #
loop $-1 $181 $182 $71 #
cone-surface $-1 16.016485898727069 -29.484735732140251 6.9958115552989977 0 0.80901700255871778 -0.5877852410284794 0.5 0 0 1 I I -0.70710678118654746 0.70710678118654746 0.5 forward I I I I #
loop $-1 $-1 $183 $47 #
coedge $-1 $114 $114 $184 $185 reversed $72 $-1 #
face $-1 $-1 $186 $38 $-1 $187 forward single #
loop $-1 $188 $189 $74 #
cone-surface $-1 19.635947022145132 -29.484735732140251 6.9958115552989977 0 0.80901700255871778 -0.5877852410284794 0.5 0 0 1 I I -0.70710678118654746 0.70710678118654746 0.5 forward I I I I #
loop $-1 $-1 $190 $48 #
coedge $-1 $119 $119 $191 $192 reversed $75 $-1 #
face $-1 $-1 $193 $39 $-1 $194 forward single #
loop $-1 $195 $196 $77 #
cone-surface $-1 23.255408145563194 -29.484735732140251 6.9958115552989977 0 0.80901700255871778 -0.5877852410284794 0.5 0 0 1 I I -0.70710678118654746 0.70710678118654746 0.5 forward I I I I #
loop $-1 $-1 $197 $49 #
coedge $-1 $124 $124 $198 $199 reversed $78 $-1 #
face $-1 $200 $201 $30 $-1 $202 reversed single #
loop $-1 $-1 $203 $80 #
plane-surface $-1 0 -33.762248196579115 0 0 1 0 0 0 1 forward_v I I I I #
coedge $-1 $204 $205 $206 $207 forward $81 $-1 #
coedge $-1 $208 $83 $209 $210 forward $51 $-1 #
coedge $-1 $83 $208 $211 $212 forward $51 $-1 #
coedge $-1 $213 $214 $83 $132 reversed $215 $-1 #
edge $-1 $216 -33.762248196579115 $217 33.762248196579115 $131 $218 forward 7 unknown #
face $-1 $219 $220 $31 $-1 $221 reversed single #
loop $-1 $-1 $222 $84 #
plane-surface $-1 -78.263976993662311 -31.114296369359689 0 1 0 0 0 0 -1 forward_v I I I I #
coedge $-1 $223 $224 $137 $225 forward $85 $-1 #
coedge $-1 $226 $87 $136 $225 reversed $54 $-1 #
coedge $-1 $87 $226 $227 $228 reversed $54 $-1 #
coedge $-1 $229 $230 $87 $140 reversed $220 $-1 #
edge $-1 $231 -11.624055507214196 $232 11.624055507214196 $139 $233 forward 7 unknown #
face $-1 $234 $235 $32 $-1 $236 reversed single #
loop $-1 $-1 $237 $88 #
plane-surface $-1 0 0 -11.624055507214196 0 0 1 1 0 0 forward_v I I I I #
coedge $-1 $238 $239 $240 $241 forward $89 $-1 #
coedge $-1 $240 $91 $237 $242 reversed $57 $-1 #
coedge $-1 $91 $240 $243 $244 reversed $57 $-1 #
coedge $-1 $245 $246 $91 $148 reversed $235 $-1 #
edge $-1 $247 -11.624055507214196 $248 11.624055507214196 $147 $249 forward 7 unknown #
face $-1 $250 $251 $33 $-1 $252 reversed single #
loop $-1 $-1 $253 $92 #
plane-surface $-1 51.47386900993888 52.863991615704727 148.04273252025982 -1 0 0 0 0.57357644374324357 0.81915203911291934 forward_v I I I I #
coedge $-1 $254 $255 $256 $257 reversed $93 $-1 #
coedge $-1 $154 $95 $258 $259 reversed $60 $-1 #
coedge $-1 $95 $153 $254 $260 reversed $60 $-1 #
coedge $-1 $256 $261 $95 $156 forward $262 $-1 #
edge $-1 $263 -7.3302523887267519 $264 4.9329752461738643 $155 $265 forward 7 unknown #
loop $-1 $-1 $162 $96 #
plane-surface $-1 38.35476374358241 -21.550580713949437 41.767711416291988 0 0.57357644374324357 0.81915203911291934 1 0 0 forward_v I I I I #
loop $-1 $-1 $266 $62 #
coedge $-1 $160 $160 $161 $267 reversed $97 $-1 #
coedge $-1 $161 $161 $160 $267 forward $99 $-1 #
coedge $-1 $162 $162 $100 $163 forward $157 $-1 #
edge $-1 $268 4.3562586896199852e-016 $268 6.2831853071796004 $162 $269 forward 7 unknown #
loop $-1 $-1 $169 $101 #
plane-surface $-1 38.35476374358241 -21.550580713949437 41.767711416291988 0 0.57357644374324357 0.81915203911291934 1 0 0 forward_v I I I I #
loop $-1 $-1 $270 $65 #
coedge $-1 $167 $167 $168 $271 reversed $102 $-1 #
coedge $-1 $168 $168 $167 $271 forward $104 $-1 #
coedge $-1 $169 $169 $105 $170 forward $164 $-1 #
edge $-1 $272 4.3562586896199852e-016 $272 6.2831853071796004 $169 $273 forward 7 unknown #
face $-1 $274 $275 $36 $-1 $276 forward single #
loop $-1 $-1 $277 $106 #
plane-surface $-1 13.603511816448353 -138.72237148883707 81.441320322277463 1 0 0 0 0.80901700255871778 -0.5877852410284794 forward_v I I I I #
coedge $-1 $278 $279 $280 $281 reversed $107 $-1 #
coedge $-1 $176 $109 $282 $283 reversed $69 $-1 #
coedge $-1 $109 $175 $278 $284 reversed $69 $-1 #
coedge $-1 $280 $285 $109 $178 forward $275 $-1 #
edge $-1 $286 35.598937547839419 $287 40.278398956265505 $177 $288 forward 7 unknown #
loop $-1 $-1 $184 $110 #
plane-surface $-1 19.635947022145132 -33.762248196579108 5.1833292385349949 0 -0.80901700255871778 0.5877852410284794 1 0 0 forward_v I I I I #
loop $-1 $-1 $289 $71 #
coedge $-1 $182 $182 $183 $290 reversed $111 $-1 #
coedge $-1 $183 $183 $182 $290 forward $113 $-1 #
coedge $-1 $184 $184 $114 $185 forward $179 $-1 #
edge $-1 $291 -1.9533893409379798e-015 $291 6.2831853071795987 $184 $292 forward 7 unknown #
loop $-1 $-1 $191 $115 #
plane-surface $-1 19.635947022145132 -33.762248196579108 5.1833292385349949 0 -0.80901700255871778 0.5877852410284794 1 0 0 forward_v I I I I #
loop $-1 $-1 $293 $74 #
coedge $-1 $189 $189 $190 $294 reversed $116 $-1 #
coedge $-1 $190 $190 $189 $294 forward $118 $-1 #
coedge $-1 $191 $191 $119 $192 forward $186 $-1 #
edge $-1 $295 -1.9533893409379798e-015 $295 6.2831853071795987 $191 $296 forward 7 unknown #
loop $-1 $-1 $198 $120 #
plane-surface $-1 19.635947022145132 -33.762248196579108 5.1833292385349949 0 -0.80901700255871778 0.5877852410284794 1 0 0 forward_v I I I I #
loop $-1 $-1 $297 $77 #
coedge $-1 $196 $196 $197 $298 reversed $121 $-1 #
coedge $-1 $197 $197 $196 $298 forward $123 $-1 #
coedge $-1 $198 $198 $124 $199 forward $193 $-1 #
edge $-1 $299 -1.9533893409379798e-015 $299 6.2831853071795987 $198 $300 forward 7 unknown #
face $-1 $301 $302 $30 $-1 $303 reversed single #
loop $-1 $-1 $304 $125 #
plane-surface $-1 -64.868923001800596 0 0 1 0 0 0 0 -1 forward_v I I I I #
coedge $-1 $305 $211 $306 $307 forward $126 $-1 #
coedge $-1 $308 $128 $305 $309 forward $81 $-1 #
coedge $-1 $128 $308 $310 $311 forward $81 $-1 #
coedge $-1 $214 $213 $128 $207 reversed $215 $-1 #
edge $-1 $312 -33.762248196579115 $313 33.762248196579115 $206 $314 forward 7 unknown #
coedge $-1 $130 $129 $315 $316 forward $51 $-1 #
coedge $-1 $317 $318 $129 $210 reversed $302 $-1 #
edge $-1 $217 -64.868923001800596 $319 64.868923001800596 $209 $320 forward 7 unknown #
coedge $-1 $203 $321 $130 $212 reversed $126 $-1 #
edge $-1 $322 -64.868923001800596 $216 64.868923001800596 $211 $323 forward 7 unknown #
coedge $-1 $206 $131 $321 $324 forward $215 $-1 #
coedge $-1 $131 $206 $317 $325 reversed $215 $-1 #
loop $-1 $-1 $213 $301 #
vertex $-1 $132 $326 #
vertex $-1 $132 $327 #
straight-curve $-1 64.868923001800596 0 11.624055507214196 0 1 0 I I #
face $-1 $328 $329 $31 $-1 $330 reversed single #
loop $-1 $-1 $139 $133 #
plane-surface $-1 -71.566449997731453 -28.466344542140263 0 0 -1 0 0 0 -1 forward_v I I I I #
coedge $-1 $331 $332 $333 $334 forward $134 $-1 #
coedge $-1 $335 $136 $230 $336 forward $85 $-1 #
coedge $-1 $136 $335 $337 $338 forward $85 $-1 #
edge $-1 $339 -33.762248196579115 $232 -28.466344542140263 $136 $340 forward 7 unknown #
coedge $-1 $138 $137 $341 $342 reversed $54 $-1 #
coedge $-1 $343 $344 $138 $228 forward $329 $-1 #
edge $-1 $231 28.466344542140263 $345 33.762248196579115 $227 $346 forward 7 unknown #
coedge $-1 $333 $139 $344 $347 reversed $220 $-1 #
coedge $-1 $139 $333 $223 $336 reversed $220 $-1 #
vertex $-1 $228 $348 #
vertex $-1 $336 $349 #
straight-curve $-1 -64.868923001800596 -28.466344542140263 0 0 0 1 I I #
face $-1 $350 $351 $32 $-1 $352 reversed single #
loop $-1 $-1 $353 $141 #
plane-surface $-1 71.566449997731439 -28.466344542140263 0 0 -1 0 0 0 -1 forward_v I I I I #
coedge $-1 $354 $355 $145 $242 forward $142 $-1 #
coedge $-1 $356 $144 $355 $357 reversed $89 $-1 #
coedge $-1 $144 $356 $358 $359 reversed $89 $-1 #
coedge $-1 $146 $145 $144 $241 reversed $57 $-1 #
edge $-1 $360 -11.624055507214196 $361 11.624055507214196 $144 $362 forward 7 unknown #
edge $-1 $361 -33.762248196579115 $248 -28.466344542140263 $237 $363 forward 7 unknown #
coedge $-1 $358 $364 $146 $244 forward $365 $-1 #
edge $-1 $247 28.466344542140263 $360 33.762248196579115 $243 $366 forward 7 unknown #
coedge $-1 $353 $147 $364 $367 reversed $235 $-1 #
coedge $-1 $147 $353 $354 $368 reversed $235 $-1 #
vertex $-1 $244 $369 #
vertex $-1 $368 $370 #
straight-curve $-1 64.868923001800596 -28.466344542140263 0 0 0 -1 I I #
face $-1 $-1 $262 $33 $-1 $371 forward single #
loop $-1 $-1 $372 $149 #
plane-surface $-1 0 33.762248196579115 0 0 -1 0 0 0 -1 forward_v I I I I #
coedge $-1 $373 $374 $375 $376 reversed $150 $-1 #
coedge $-1 $377 $152 $154 $260 forward $93 $-1 #
coedge $-1 $152 $377 $373 $378 forward $93 $-1 #
coedge $-1 $375 $155 $152 $257 forward $262 $-1 #
edge $-1 $264 6.0582766054347346 $379 32.296487138147675 $256 $380 forward 7 unknown #
coedge $-1 $381 $382 $153 $259 forward $251 $-1 #
edge $-1 $383 -70.984115350579117 $263 -62.397310752915715 $258 $384 forward 7 unknown #
edge $-1 $264 52.553859625677603 $383 67.524496393158245 $154 $385 forward 7 unknown #
coedge $-1 $155 $375 $381 $386 forward $262 $-1 #
loop $-1 $-1 $375 $250 #
vertex $-1 $259 $387 #
vertex $-1 $156 $388 #
straight-curve $-1 25.23565847722594 26.431995807852363 11.624055507214194 0 -1 0 I I #
coedge $-1 $266 $266 $-1 $389 reversed $159 $-1 #
edge $-1 $390 0 $390 6.2831853071796004 $160 $391 forward 7 unknown #
vertex $-1 $163 $392 #
ellipse-curve $-1 32.73229005800107 27.630634379128814 7.3306532083824933 0 0.57357644374324357 0.81915203911291934 2.5 0 0 1 I I #
coedge $-1 $270 $270 $-1 $393 reversed $166 $-1 #
edge $-1 $394 0 $394 6.2831853071796004 $167 $395 forward 7 unknown #
vertex $-1 $170 $396 #
ellipse-curve $-1 43.977237429163765 27.630634379128814 7.3306532083824933 0 0.57357644374324357 0.81915203911291934 2.5 0 0 1 I I #
face $-1 $-1 $397 $36 $-1 $398 reversed single #
loop $-1 $-1 $177 $171 #
plane-surface $-1 0 0 11.624055507214196 0 0 1 1 0 0 forward_v I I I I #
coedge $-1 $399 $400 $401 $402 reversed $172 $-1 #
coedge $-1 $403 $174 $176 $284 forward $107 $-1 #
coedge $-1 $174 $403 $399 $404 forward $107 $-1 #
coedge $-1 $401 $177 $174 $281 forward $275 $-1 #
edge $-1 $287 -15.850408716769344 $405 -3.7855383053757876 $280 $406 forward 7 unknown #
coedge $-1 $407 $408 $175 $283 forward $397 $-1 #
edge $-1 $409 -35.537330922603743 $286 -29.096604653924537 $282 $410 forward 7 unknown #
edge $-1 $287 -7.9611754120232323 $409 1.2080531203272332e-014 $176 $411 forward 7 unknown #
coedge $-1 $177 $401 $407 $412 forward $275 $-1 #
vertex $-1 $178 $413 #
vertex $-1 $178 $414 #
straight-curve $-1 25.66838222784191 -69.361185744418535 11.624055507214194 0 1 0 I I #
coedge $-1 $289 $289 $-1 $415 reversed $181 $-1 #
edge $-1 $416 0 $416 6.2831853071796004 $182 $417 forward 7 unknown #
vertex $-1 $185 $418 #
ellipse-curve $-1 16.016485898727069 -31.422517492366069 8.4036923728745929 0 -0.80901700255871778 0.5877852410284794 1 0 0 1 I I #
coedge $-1 $293 $293 $-1 $419 reversed $188 $-1 #
edge $-1 $420 0 $420 6.2831853071796004 $189 $421 forward 7 unknown #
vertex $-1 $192 $422 #
ellipse-curve $-1 19.635947022145132 -31.422517492366069 8.4036923728745929 0 -0.80901700255871778 0.5877852410284794 1 0 0 1 I I #
coedge $-1 $297 $297 $-1 $423 reversed $195 $-1 #
edge $-1 $424 0 $424 6.2831853071796004 $196 $425 forward 7 unknown #
vertex $-1 $199 $426 #
ellipse-curve $-1 23.255408145563194 -31.422517492366069 8.4036923728745929 0 -0.80901700255871778 0.5877852410284794 1 0 0 1 I I #
face $-1 $-1 $215 $30 $-1 $427 reversed single #
loop $-1 $-1 $317 $200 #
plane-surface $-1 0 33.762248196579115 0 0 -1 0 0 0 -1 forward_v I I I I #
coedge $-1 $428 $315 $318 $429 forward $201 $-1 #
coedge $-1 $321 $203 $204 $309 reversed $126 $-1 #
coedge $-1 $315 $428 $203 $307 reversed $201 $-1 #
edge $-1 $322 -11.624055507214196 $430 11.624055507214196 $306 $431 forward 7 unknown #
coedge $-1 $205 $204 $428 $432 forward $81 $-1 #
edge $-1 $313 -64.868923001800596 $430 64.868923001800596 $305 $433 forward 7 unknown #
coedge $-1 $318 $317 $205 $311 reversed $302 $-1 #
edge $-1 $434 -64.868923001800596 $312 64.868923001800596 $310 $435 forward 7 unknown #
vertex $-1 $207 $436 #
vertex $-1 $324 $437 #
straight-curve $-1 64.868923001800596 0 -11.624055507214196 0 -1 0 I I #
coedge $-1 $304 $306 $208 $316 reversed $201 $-1 #
edge $-1 $319 -33.762248196579115 $322 33.762248196579115 $315 $438 forward 7 unknown #
coedge $-1 $310 $209 $214 $325 forward $302 $-1 #
coedge $-1 $209 $310 $304 $429 reversed $302 $-1 #
vertex $-1 $210 $439 #
straight-curve $-1 0 33.762248196579115 11.624055507214196 -1 0 0 I I #
coedge $-1 $211 $305 $213 $324 reversed $126 $-1 #
vertex $-1 $316 $440 #
straight-curve $-1 0 -33.762248196579115 11.624055507214196 1 0 0 I I #
edge $-1 $216 -11.624055507214196 $313 11.624055507214196 $213 $441 forward 7 unknown #
edge $-1 $217 -11.624055507214196 $312 11.624055507214196 $214 $442 forward 7 unknown #
point $-1 64.868923001800596 -33.762248196579115 11.624055507214196 #
point $-1 64.868923001800596 33.762248196579115 11.624055507214196 #
face $-1 $-1 $443 $31 $-1 $444 reversed single #
loop $-1 $-1 $227 $219 #
plane-surface $-1 0 0 -11.624055507214196 0 0 1 1 0 0 forward_v I I I I #
coedge $-1 $445 $222 $446 $447 reversed $134 $-1 #
coedge $-1 $222 $445 $335 $448 reversed $134 $-1 #
coedge $-1 $230 $229 $222 $334 reversed $220 $-1 #
edge $-1 $449 -11.624055507214196 $450 11.624055507214196 $333 $451 forward 7 unknown #
coedge $-1 $224 $223 $332 $448 forward $85 $-1 #
edge $-1 $232 -6.6975269959308577 $449 6.6975269959308577 $230 $452 forward 7 unknown #
coedge $-1 $453 $341 $224 $338 reversed $443 $-1 #
edge $-1 $454 -78.263976993662311 $339 -64.868923001800596 $337 $455 forward 7 unknown #
vertex $-1 $342 $456 #
straight-curve $-1 -64.868923001800596 0 11.624055507214196 0 1 0 I I #
coedge $-1 $337 $457 $226 $342 forward $443 $-1 #
edge $-1 $345 -11.624055507214196 $339 11.624055507214196 $341 $458 forward 7 unknown #
coedge $-1 $446 $227 $457 $459 forward $329 $-1 #
coedge $-1 $227 $446 $229 $347 forward $329 $-1 #
vertex $-1 $459 $460 #
straight-curve $-1 -64.868923001800596 0 -11.624055507214196 0 -1 0 I I #
edge $-1 $450 -6.6975269959308577 $231 6.6975269959308577 $229 $461 forward 7 unknown #
point $-1 -64.868923001800596 -28.466344542140263 -11.624055507214196 #
point $-1 -64.868923001800596 -28.466344542140263 11.624055507214196 #
face $-1 $-1 $365 $32 $-1 $462 forward single #
loop $-1 $-1 $463 $234 #
plane-surface $-1 78.263976993662297 -31.114296369359689 0 -1 0 0 0 0 1 forward_v I I I I #
coedge $-1 $246 $245 $464 $465 forward $235 $-1 #
coedge $-1 $466 $237 $246 $368 forward $142 $-1 #
coedge $-1 $237 $466 $238 $357 forward $142 $-1 #
coedge $-1 $239 $238 $463 $467 reversed $89 $-1 #
edge $-1 $468 -6.6975269959308577 $361 6.6975269959308434 $238 $469 forward 7 unknown #
coedge $-1 $470 $243 $239 $359 forward $365 $-1 #
edge $-1 $360 -6.6975269959308434 $471 6.6975269959308577 $239 $472 forward 7 unknown #
vertex $-1 $359 $473 #
vertex $-1 $242 $474 #
straight-curve $-1 64.868923001800596 -33.762248196579115 0 0 0 -1 I I #
straight-curve $-1 64.868923001800596 0 -11.624055507214196 0 1 0 I I #
coedge $-1 $243 $470 $245 $367 forward $365 $-1 #
loop $-1 $-1 $243 $350 #
straight-curve $-1 64.868923001800596 0 11.624055507214196 0 -1 0 I I #
edge $-1 $475 -6.6975269959308577 $247 6.6975269959308577 $245 $476 forward 7 unknown #
edge $-1 $248 -6.6975269959308577 $477 6.6975269959308577 $246 $478 forward 7 unknown #
point $-1 64.868923001800582 -28.466344542140263 11.624055507214196 #
point $-1 64.868923001800582 -28.466344542140263 -11.624055507214196 #
plane-surface $-1 0 0 11.624055507214196 0 0 1 1 0 0 forward_v I I I I #
coedge $-1 $382 $381 $374 $479 forward $251 $-1 #
coedge $-1 $374 $253 $255 $378 reversed $150 $-1 #
coedge $-1 $253 $373 $372 $479 reversed $150 $-1 #
coedge $-1 $261 $256 $253 $376 forward $262 $-1 #
edge $-1 $379 -4.9329752461738643 $480 7.3302523887267519 $375 $481 forward 7 unknown #
coedge $-1 $255 $254 $382 $482 reversed $93 $-1 #
edge $-1 $483 -67.524496393158245 $379 -52.553859625677603 $373 $484 forward 7 unknown #
vertex $-1 $257 $485 #
straight-curve $-1 19.177381871791205 21.499020561678485 11.624055507214202 1 0 0 I I #
coedge $-1 $372 $258 $261 $386 reversed $251 $-1 #
coedge $-1 $258 $372 $377 $482 forward $251 $-1 #
vertex $-1 $259 $486 #
straight-curve $-1 25.23565847722594 33.762248196579115 74.021366260129909 0 0 1 I I #
straight-curve $-1 25.23565847722594 -21.550580713949437 41.767711416291988 0 0.81915203911291934 -0.57357644374324357 I I #
edge $-1 $480 -51.47386900993888 $263 -25.23565847722594 $381 $487 forward 7 unknown #
point $-1 25.23565847722594 33.762248196579115 11.624055507214196 #
point $-1 25.23565847722594 21.499020561678499 11.624055507214194 #
edge $-1 $488 1 $488 0 $266 $-1 forward 7 unknown #
vertex $-1 $267 $489 #
ellipse-curve $-1 32.73229005800107 22.82463198306186 0.46697059787048079 0 0.57357644374324357 0.81915203911291934 2.5 0 0 1 I I #
point $-1 35.23229005800107 27.630634379128825 7.3306532083825067 #
edge $-1 $490 1 $490 0 $270 $-1 forward 7 unknown #
vertex $-1 $271 $491 #
ellipse-curve $-1 43.977237429163765 22.82463198306186 0.46697059787048079 0 0.57357644374324357 0.81915203911291934 2.5 0 0 1 I I #
point $-1 46.477237429163765 27.630634379128825 7.3306532083825067 #
loop $-1 $-1 $282 $274 #
plane-surface $-1 0 -33.762248196579115 0 0 1 0 0 0 1 forward_v I I I I #
coedge $-1 $400 $277 $279 $404 reversed $172 $-1 #
coedge $-1 $277 $399 $492 $493 reversed $172 $-1 #
coedge $-1 $285 $280 $277 $402 forward $275 $-1 #
edge $-1 $405 -40.278398956265505 $494 -35.598937547839419 $401 $495 forward 7 unknown #
coedge $-1 $279 $278 $408 $496 reversed $107 $-1 #
edge $-1 $497 -1.2080531203272332e-014 $405 7.9611754120232323 $399 $498 forward 7 unknown #
vertex $-1 $281 $499 #
straight-curve $-1 9.8179735110725659 -29.082786788153033 11.624055507214196 -1 0 0 I I #
coedge $-1 $492 $282 $285 $412 reversed $397 $-1 #
coedge $-1 $282 $492 $403 $496 forward $397 $-1 #
vertex $-1 $283 $500 #
straight-curve $-1 25.66838222784191 -33.762248196579115 40.720660161138731 0 0 1 I I #
straight-curve $-1 25.66838222784191 -33.762248196579108 5.1833292385349949 0 -0.5877852410284794 -0.80901700255871778 I I #
edge $-1 $494 -57.962938181283086 $286 -45.898067769889529 $407 $501 forward 7 unknown #
point $-1 25.66838222784191 -33.762248196579115 11.624055507214196 #
point $-1 25.66838222784191 -29.08278678815303 11.624055507214196 #
edge $-1 $502 1 $502 0 $289 $-1 forward 7 unknown #
vertex $-1 $290 $503 #
ellipse-curve $-1 16.016485898727069 -29.88924423341961 7.2897041758132373 0 -0.80901700255871778 0.5877852410284794 1 0 0 1 I I #
point $-1 17.016485898727069 -31.422517492366079 8.4036923728745982 #
edge $-1 $504 1 $504 0 $293 $-1 forward 7 unknown #
vertex $-1 $294 $505 #
ellipse-curve $-1 19.635947022145132 -29.88924423341961 7.2897041758132373 0 -0.80901700255871778 0.5877852410284794 1 0 0 1 I I #
point $-1 20.635947022145132 -31.422517492366079 8.4036923728745982 #
edge $-1 $506 1 $506 0 $297 $-1 forward 7 unknown #
vertex $-1 $298 $507 #
ellipse-curve $-1 23.255408145563194 -29.88924423341961 7.2897041758132373 0 -0.80901700255871778 0.5877852410284794 1 0 0 1 I I #
point $-1 24.255408145563194 -31.422517492366079 8.4036923728745982 #
plane-surface $-1 64.868923001800596 0 0 -1 0 0 0 0 1 forward_v I I I I #
coedge $-1 $306 $304 $308 $432 reversed $201 $-1 #
edge $-1 $319 -11.624055507214196 $434 11.624055507214196 $318 $508 forward 7 unknown #
vertex $-1 $432 $509 #
straight-curve $-1 -64.868923001800596 -33.762248196579115 0 0 0 -1 I I #
edge $-1 $430 -33.762248196579115 $434 33.762248196579115 $428 $510 forward 7 unknown #
straight-curve $-1 0 -33.762248196579115 -11.624055507214196 -1 0 0 I I #
vertex $-1 $311 $511 #
straight-curve $-1 0 33.762248196579115 -11.624055507214196 1 0 0 I I #
point $-1 64.868923001800596 33.762248196579115 -11.624055507214196 #
point $-1 64.868923001800596 -33.762248196579115 -11.624055507214196 #
straight-curve $-1 -64.868923001800596 0 11.624055507214196 0 -1 0 I I #
point $-1 -64.868923001800596 33.762248196579115 11.624055507214196 #
point $-1 -64.868923001800596 -33.762248196579115 11.624055507214196 #
straight-curve $-1 64.868923001800596 -33.762248196579115 0 0 0 -1 I I #
straight-curve $-1 64.868923001800596 33.762248196579115 0 0 0 -1 I I #
loop $-1 $-1 $341 $328 #
plane-surface $-1 0 -33.762248196579115 0 0 1 0 0 0 1 forward_v I I I I #
coedge $-1 $332 $331 $453 $512 reversed $134 $-1 #
coedge $-1 $344 $343 $331 $447 forward $329 $-1 #
edge $-1 $513 -2.6479518272194262 $450 2.6479518272194262 $331 $514 forward 7 unknown #
edge $-1 $449 -2.6479518272194262 $454 2.6479518272194262 $332 $515 forward 7 unknown #
vertex $-1 $336 $516 #
vertex $-1 $347 $517 #
straight-curve $-1 -78.263976993662311 -28.466344542140263 0 0 0 -1 I I #
straight-curve $-1 -71.566449997731453 -28.466344542140263 11.624055507214196 -1 0 0 I I #
coedge $-1 $457 $337 $445 $512 forward $443 $-1 #
vertex $-1 $448 $518 #
straight-curve $-1 0 -33.762248196579115 11.624055507214196 1 0 0 I I #
point $-1 -64.868923001800596 -33.762248196579115 11.624055507214196 #
coedge $-1 $341 $453 $343 $459 reversed $443 $-1 #
straight-curve $-1 -64.868923001800596 -33.762248196579115 0 0 0 1 I I #
edge $-1 $345 -6.6975269959308577 $513 6.6975269959308577 $457 $519 forward 7 unknown #
point $-1 -64.868923001800596 -33.762248196579115 -11.624055507214196 #
straight-curve $-1 -71.566449997731453 -28.466344542140263 -11.624055507214196 1 0 0 I I #
plane-surface $-1 0 0 11.624055507214196 0 0 1 1 0 0 forward_v I I I I #
coedge $-1 $520 $521 $356 $467 forward $351 $-1 #
coedge $-1 $521 $520 $353 $465 reversed $351 $-1 #
edge $-1 $475 -11.624055507214196 $477 11.624055507214196 $464 $522 forward 7 unknown #
coedge $-1 $355 $354 $520 $523 forward $142 $-1 #
edge $-1 $471 -11.624055507214196 $468 11.624055507214196 $463 $524 forward 7 unknown #
vertex $-1 $467 $525 #
straight-curve $-1 71.566449997731439 -33.762248196579115 -11.624055507214196 -1 0 0 I I #
coedge $-1 $364 $358 $521 $526 forward $365 $-1 #
vertex $-1 $526 $527 #
straight-curve $-1 71.566449997731439 -33.762248196579115 11.624055507214196 1 0 0 I I #
point $-1 64.868923001800596 -33.762248196579115 11.624055507214196 #
point $-1 64.868923001800596 -33.762248196579115 -11.624055507214196 #
vertex $-1 $526 $528 #
straight-curve $-1 71.566449997731439 -28.466344542140263 11.624055507214196 -1 0 0 I I #
vertex $-1 $523 $529 #
straight-curve $-1 71.566449997731439 -28.466344542140263 -11.624055507214196 1 0 0 I I #
edge $-1 $480 62.397310752915715 $483 70.984115350579117 $372 $530 forward 7 unknown #
vertex $-1 $386 $531 #
straight-curve $-1 51.47386900993888 26.431995807852363 11.624055507214194 0 1 0 I I #
edge $-1 $483 -32.296487138147675 $383 -6.0582766054347346 $382 $532 forward 7 unknown #
vertex $-1 $482 $533 #
straight-curve $-1 51.47386900993888 -21.550580713949437 41.767711416291988 0 -0.81915203911291934 0.57357644374324357 I I #
point $-1 51.47386900993888 21.499020561678499 11.624055507214194 #
point $-1 25.23565847722594 33.762248196579115 3.0372509095507993 #
straight-curve $-1 0 33.762248196579115 11.624055507214196 -1 0 0 I I #
vertex $-1 $389 $534 #
point $-1 35.23229005800107 22.82463198306186 0.46697059787048079 #
vertex $-1 $393 $535 #
point $-1 46.477237429163765 22.82463198306186 0.46697059787048079 #
coedge $-1 $408 $407 $400 $493 forward $397 $-1 #
edge $-1 $494 29.096604653924537 $497 35.537330922603743 $492 $536 forward 7 unknown #
vertex $-1 $412 $537 #
straight-curve $-1 13.603511816448353 -69.361185744418535 11.624055507214194 0 -1 0 I I #
edge $-1 $497 3.7855383053757876 $409 15.850408716769344 $408 $538 forward 7 unknown #
vertex $-1 $496 $539 #
straight-curve $-1 13.603511816448353 -33.762248196579108 5.1833292385349949 0 0.5877852410284794 0.80901700255871778 I I #
point $-1 13.603511816448353 -29.08278678815303 11.624055507214196 #
point $-1 25.66838222784191 -33.762248196579115 5.1833292385349852 #
straight-curve $-1 71.566449997731439 -33.762248196579115 11.624055507214196 1 0 0 I I #
vertex $-1 $415 $540 #
point $-1 17.016485898727069 -29.88924423341961 7.2897041758132373 #
vertex $-1 $419 $541 #
point $-1 20.635947022145132 -29.88924423341961 7.2897041758132373 #
vertex $-1 $423 $542 #
point $-1 24.255408145563194 -29.88924423341961 7.2897041758132373 #
straight-curve $-1 -64.868923001800596 33.762248196579115 0 0 0 -1 I I #
point $-1 -64.868923001800596 -33.762248196579115 -11.624055507214196 #
straight-curve $-1 -64.868923001800596 0 -11.624055507214196 0 1 0 I I #
point $-1 -64.868923001800596 33.762248196579115 -11.624055507214196 #
edge $-1 $454 -11.624055507214196 $513 11.624055507214196 $445 $543 forward 7 unknown #
vertex $-1 $447 $544 #
straight-curve $-1 -78.263976993662311 -31.114296369359689 -11.624055507214196 0 1 0 I I #
straight-curve $-1 -78.263976993662311 -31.114296369359689 11.624055507214196 0 -1 0 I I #
point $-1 -78.263976993662311 -28.466344542140263 11.624055507214196 #
point $-1 -78.263976993662311 -28.466344542140263 -11.624055507214196 #
point $-1 -78.263976993662311 -33.762248196579115 11.624055507214196 #
straight-curve $-1 -71.566449997731453 -33.762248196579115 -11.624055507214196 -1 0 0 I I #
coedge $-1 $464 $463 $466 $523 reversed $351 $-1 #
coedge $-1 $463 $464 $470 $526 reversed $351 $-1 #
straight-curve $-1 78.263976993662297 -28.466344542140263 0 0 0 -1 I I #
edge $-1 $477 -2.6479518272194262 $468 2.6479518272194262 $520 $545 forward 7 unknown #
straight-curve $-1 78.263976993662297 -33.762248196579115 0 0 0 -1 I I #
point $-1 78.263976993662297 -33.762248196579115 -11.624055507214196 #
edge $-1 $471 -2.6479518272194262 $475 2.6479518272194262 $521 $546 forward 7 unknown #
point $-1 78.263976993662297 -33.762248196579115 11.624055507214196 #
point $-1 78.263976993662297 -28.466344542140263 11.624055507214196 #
point $-1 78.263976993662297 -28.466344542140263 -11.624055507214196 #
straight-curve $-1 51.47386900993888 33.762248196579115 74.021366260129909 0 0 -1 I I #
point $-1 51.47386900993888 33.762248196579115 11.624055507214196 #
straight-curve $-1 19.177381871791205 33.762248196579122 3.0372509095507958 -1 0 0 I I #
point $-1 51.47386900993888 33.762248196579115 3.0372509095507993 #
point $-1 32.73229005800107 21.39069087370375 -1.5809094999118176 #
point $-1 43.977237429163765 21.39069087370375 -1.5809094999118176 #
straight-curve $-1 13.603511816448353 -33.762248196579115 40.720660161138731 0 0 -1 I I #
point $-1 13.603511816448353 -33.762248196579115 11.624055507214196 #
straight-curve $-1 9.8179735110725659 -33.762248196579115 5.1833292385349843 1 0 0 I I #
point $-1 13.603511816448353 -33.762248196579115 5.1833292385349852 #
point $-1 16.016485898727069 -29.080227230860892 6.7019189347847581 #
point $-1 19.635947022145132 -29.080227230860892 6.7019189347847581 #
point $-1 23.255408145563194 -29.080227230860892 6.7019189347847581 #
straight-curve $-1 -78.263976993662311 -33.762248196579115 0 0 0 -1 I I #
point $-1 -78.263976993662311 -33.762248196579115 -11.624055507214196 #
straight-curve $-1 78.263976993662297 -31.114296369359689 -11.624055507214196 0 -1 0 I I #
straight-curve $-1 78.263976993662297 -31.114296369359689 11.624055507214196 0 1 0 I I #
End-of-ACIS-data 