500 0 6 0           
7 Unknown 11 ACIS 5.0 NT 24 Fri Mar 26 18:38:41 1999 
-1 9.9999999999999995e-007 1e-010 
body $-1 $6 $-1 $7 #
body $-1 $8 $-1 $9 #
body $-1 $10 $-1 $11 #
body $-1 $12 $-1 $13 #
body $-1 $14 $-1 $15 #
body $-1 $16 $-1 $17 #
lump $-1 $-1 $18 $0 #
transform $-1 1 0 0 0 1 0 0 0 1 77.840510269478443 46.968945367107757 16.152948135406472 1 rotate no_reflect no_shear #
lump $-1 $-1 $19 $1 #
transform $-1 1 0 0 0 1 0 0 0 1 77.840510269478443 46.968945367107757 16.152948135406472 1 rotate no_reflect no_shear #
lump $-1 $-1 $20 $2 #
transform $-1 1 0 0 0 1 0 0 0 1 77.840510269478443 46.968945367107757 16.152948135406472 1 rotate no_reflect no_shear #
lump $-1 $-1 $21 $3 #
transform $-1 1 0 0 0 1 0 0 0 1 77.840510269478443 46.968945367107757 16.152948135406472 1 rotate no_reflect no_shear #
lump $-1 $-1 $22 $4 #
transform $-1 1 0 0 0 1 0 0 0 1 77.840510269478443 46.968945367107757 16.152948135406472 1 rotate no_reflect no_shear #
lump $-1 $-1 $23 $5 #
transform $-1 1 0 0 0 1 0 0 0 1 77.840510269478443 46.968945367107757 16.152948135406472 1 rotate no_reflect no_shear #
shell $-1 $-1 $-1 $24 $-1 $6 #
shell $-1 $-1 $-1 $25 $-1 $8 #
shell $-1 $-1 $-1 $26 $-1 $10 #
shell $-1 $-1 $-1 $27 $-1 $12 #
shell $-1 $-1 $-1 $28 $-1 $14 #
shell $-1 $-1 $-1 $29 $-1 $16 #
face $-1 $30 $31 $18 $-1 $32 forward single #
face $-1 $33 $34 $19 $-1 $35 reversed single #
face $-1 $36 $37 $20 $-1 $38 reversed single #
face $-1 $39 $40 $21 $-1 $41 reversed single #
face $-1 $42 $43 $22 $-1 $44 forward single #
face $-1 $45 $46 $23 $-1 $47 forward single #
face $-1 $48 $49 $18 $-1 $50 reversed single #
loop $-1 $-1 $51 $24 #
plane-surface $-1 0 0 16.152948135406472 0 0 1 1 0 0 forward_v I I I I #
face $-1 $52 $53 $19 $-1 $54 reversed single #
loop $-1 $-1 $55 $25 #
plane-surface $-1 0 -40.747809954769409 9.501189037219465 0 0 1 1 0 0 forward_v I I I I #
face $-1 $56 $57 $20 $-1 $58 reversed single #
loop $-1 $-1 $59 $26 #
plane-surface $-1 0 40.747809954769416 9.501189037219465 0 0 1 1 0 0 forward_v I I I I #
face $-1 $60 $61 $21 $-1 $62 reversed single #
loop $-1 $-1 $63 $27 #
plane-surface $-1 -179.97645067857147 22.921404359764743 124.25206793608051 0 1 0 -0.6560590369687036 0 0.75470957328743171 forward_v I I I I #
face $-1 $64 $65 $22 $-1 $66 forward single #
loop $-1 $67 $68 $28 #
cone-surface $-1 -71.688828958185923 26.237195840526546 10.595146552022817 0.6560590369687036 0 -0.75470957328743171 0.75470957328743171 0 0.6560590369687036 1 I I 0 1 1 forward I I I I #
face $-1 $69 $70 $23 $-1 $71 forward single #
loop $-1 $72 $73 $29 #
cone-surface $-1 -71.688828958185923 31.210883061669257 10.595146552022817 0.6560590369687036 0 -0.75470957328743171 0.75470957328743171 0 0.6560590369687036 1 I I 0 1 1 forward I I I I #
face $-1 $74 $75 $18 $-1 $76 reversed single #
loop $-1 $-1 $77 $30 #
plane-surface $-1 0 0 -16.152948135406472 0 0 1 1 0 0 forward_v I I I I #
coedge $-1 $78 $79 $80 $81 forward $31 $-1 #
face $-1 $82 $83 $19 $-1 $84 reversed single #
loop $-1 $-1 $85 $33 #
plane-surface $-1 0 -34.52667454243106 12.827068586312969 0 -1 0 0 0 -1 forward_v I I I I #
coedge $-1 $86 $87 $88 $89 reversed $34 $-1 #
face $-1 $90 $91 $20 $-1 $92 forward single #
loop $-1 $-1 $93 $36 #
plane-surface $-1 0 34.526674542431067 12.827068586312969 0 1 0 0 0 1 forward_v I I I I #
coedge $-1 $94 $95 $96 $97 reversed $37 $-1 #
face $-1 $98 $99 $21 $-1 $100 forward single #
loop $-1 $-1 $101 $39 #
plane-surface $-1 -77.840510269478443 28.724039451097902 6.7581113561724635 -0.6560590369687036 0 0.75470957328743171 0.75470957328743171 0 0.6560590369687036 forward_v I I I I #
coedge $-1 $102 $103 $104 $105 reversed $40 $-1 #
face $-1 $-1 $106 $22 $-1 $107 forward single #
loop $-1 $108 $109 $42 #
cone-surface $-1 -70.612879723952005 26.237195840526546 9.3574085716124458 0.6560590369687036 0 -0.75470957328743171 0.37735478664371586 0 0.3280295184843518 1 I I -0.70710678118654746 0.70710678118654746 0.5 forward I I I I #
loop $-1 $-1 $110 $28 #
coedge $-1 $68 $68 $111 $112 reversed $43 $-1 #
face $-1 $-1 $113 $23 $-1 $114 forward single #
loop $-1 $115 $116 $45 #
cone-surface $-1 -70.612879723952005 31.210883061669257 9.3574085716124458 0.6560590369687036 0 -0.75470957328743171 0.37735478664371586 0 0.3280295184843518 1 I I -0.70710678118654746 0.70710678118654746 0.5 forward I I I I #
loop $-1 $-1 $117 $29 #
coedge $-1 $73 $73 $118 $119 reversed $46 $-1 #
face $-1 $120 $121 $18 $-1 $122 reversed single #
loop $-1 $-1 $123 $48 #
plane-surface $-1 0 -46.968945367107757 0 0 1 0 0 0 1 forward_v I I I I #
coedge $-1 $124 $125 $126 $127 forward $49 $-1 #
coedge $-1 $128 $51 $129 $130 forward $31 $-1 #
coedge $-1 $51 $128 $131 $132 forward $31 $-1 #
coedge $-1 $133 $134 $51 $81 reversed $135 $-1 #
edge $-1 $136 -46.968945367107757 $137 46.968945367107757 $80 $138 forward 7 unknown #
face $-1 $139 $140 $19 $-1 $141 reversed single #
loop $-1 $-1 $142 $52 #
plane-surface $-1 -77.840510269478443 0 0 1 0 0 0 0 -1 forward_v I I I I #
coedge $-1 $143 $144 $145 $146 reversed $53 $-1 #
coedge $-1 $147 $55 $148 $149 reversed $34 $-1 #
coedge $-1 $55 $147 $143 $150 forward $34 $-1 #
coedge $-1 $145 $151 $55 $89 forward $152 $-1 #
edge $-1 $153 -26.595040389723053 $154 -14.152769565046356 $88 $155 forward 7 unknown #
face $-1 $156 $157 $20 $-1 $158 reversed single #
loop $-1 $-1 $159 $56 #
plane-surface $-1 0 0 16.152948135406472 0 0 1 1 0 0 forward_v I I I I #
coedge $-1 $160 $161 $162 $163 reversed $57 $-1 #
coedge $-1 $164 $59 $160 $165 forward $37 $-1 #
coedge $-1 $59 $164 $166 $167 reversed $37 $-1 #
coedge $-1 $168 $169 $59 $97 forward $157 $-1 #
edge $-1 $170 14.152769565046359 $171 26.595040389723057 $96 $172 forward 7 unknown #
face $-1 $173 $174 $21 $-1 $175 forward single #
loop $-1 $-1 $104 $60 #
plane-surface $-1 0 0 16.152948135406472 0 0 1 1 0 0 forward_v I I I I #
coedge $-1 $176 $177 $178 $179 reversed $61 $-1 #
coedge $-1 $103 $63 $180 $181 reversed $40 $-1 #
coedge $-1 $63 $102 $176 $182 reversed $40 $-1 #
coedge $-1 $178 $183 $63 $105 forward $99 $-1 #
edge $-1 $184 12.14771506980729 $185 22.955238260893225 $104 $186 forward 7 unknown #
loop $-1 $-1 $111 $64 #
plane-surface $-1 -77.840510269478443 28.724039451097902 6.7581113561724635 -0.6560590369687036 0 0.75470957328743171 0.75470957328743171 0 0.6560590369687036 forward_v I I I I #
loop $-1 $-1 $187 $42 #
coedge $-1 $109 $109 $110 $188 reversed $65 $-1 #
coedge $-1 $110 $110 $109 $188 forward $67 $-1 #
coedge $-1 $111 $111 $68 $112 forward $106 $-1 #
edge $-1 $189 0 $189 6.2831853071796004 $111 $190 forward 7 unknown #
loop $-1 $-1 $118 $69 #
plane-surface $-1 -77.840510269478443 28.724039451097902 6.7581113561724635 -0.6560590369687036 0 0.75470957328743171 0.75470957328743171 0 0.6560590369687036 forward_v I I I I #
loop $-1 $-1 $191 $45 #
coedge $-1 $116 $116 $117 $192 reversed $70 $-1 #
coedge $-1 $117 $117 $116 $192 forward $72 $-1 #
coedge $-1 $118 $118 $73 $119 forward $113 $-1 #
edge $-1 $193 0 $193 6.2831853071796004 $118 $194 forward 7 unknown #
face $-1 $195 $196 $18 $-1 $197 reversed single #
loop $-1 $-1 $198 $74 #
plane-surface $-1 -77.840510269478443 0 0 1 0 0 0 0 -1 forward_v I I I I #
coedge $-1 $199 $131 $200 $201 forward $75 $-1 #
coedge $-1 $202 $77 $199 $203 forward $49 $-1 #
coedge $-1 $77 $202 $204 $205 forward $49 $-1 #
coedge $-1 $134 $133 $77 $127 reversed $135 $-1 #
edge $-1 $206 -46.968945367107757 $207 46.968945367107757 $126 $208 forward 7 unknown #
coedge $-1 $79 $78 $209 $210 forward $31 $-1 #
coedge $-1 $211 $212 $78 $130 reversed $196 $-1 #
edge $-1 $137 -77.840510269478443 $213 77.840510269478443 $129 $214 forward 7 unknown #
coedge $-1 $123 $215 $79 $132 reversed $75 $-1 #
edge $-1 $216 -77.840510269478443 $136 77.840510269478443 $131 $217 forward 7 unknown #
coedge $-1 $126 $80 $215 $218 forward $135 $-1 #
coedge $-1 $80 $126 $211 $219 reversed $135 $-1 #
loop $-1 $-1 $133 $195 #
vertex $-1 $81 $220 #
vertex $-1 $81 $221 #
straight-curve $-1 77.840510269478443 0 16.152948135406472 0 1 0 I I #
face $-1 $222 $223 $19 $-1 $224 forward single #
loop $-1 $-1 $148 $82 #
plane-surface $-1 0 -46.968945367107757 0 0 1 0 0 0 1 forward_v I I I I #
coedge $-1 $225 $226 $227 $228 forward $83 $-1 #
coedge $-1 $227 $85 $87 $150 reversed $53 $-1 #
coedge $-1 $85 $227 $229 $230 reversed $53 $-1 #
coedge $-1 $231 $88 $85 $146 forward $152 $-1 #
edge $-1 $154 3.0876547440629807 $232 9.7394138422499879 $145 $233 forward 7 unknown #
coedge $-1 $87 $86 $225 $234 reversed $34 $-1 #
coedge $-1 $235 $236 $86 $149 forward $140 $-1 #
edge $-1 $237 -77.840510269478443 $153 77.840510269478443 $148 $238 forward 7 unknown #
edge $-1 $239 -77.840510269478443 $154 77.840510269478443 $143 $240 forward 7 unknown #
coedge $-1 $88 $231 $235 $241 forward $152 $-1 #
loop $-1 $-1 $145 $222 #
vertex $-1 $149 $242 #
vertex $-1 $89 $243 #
straight-curve $-1 77.840510269478443 -20.373904977384704 9.501189037219465 0 1 0 I I #
face $-1 $244 $245 $20 $-1 $246 reversed single #
loop $-1 $-1 $169 $90 #
plane-surface $-1 77.840510269478443 0 0 -1 0 0 0 0 1 forward_v I I I I #
coedge $-1 $247 $248 $161 $249 forward $91 $-1 #
coedge $-1 $250 $93 $94 $165 reversed $57 $-1 #
coedge $-1 $93 $250 $159 $249 reversed $57 $-1 #
coedge $-1 $251 $252 $93 $163 forward $245 $-1 #
edge $-1 $253 3.0876547440629807 $254 9.7394138422499879 $162 $255 forward 7 unknown #
coedge $-1 $95 $94 $252 $256 reversed $37 $-1 #
edge $-1 $170 -77.840510269478443 $253 77.840510269478443 $160 $257 forward 7 unknown #
coedge $-1 $258 $259 $95 $167 forward $260 $-1 #
edge $-1 $171 -77.840510269478443 $261 77.840510269478443 $166 $262 forward 7 unknown #
coedge $-1 $263 $96 $259 $264 reversed $157 $-1 #
coedge $-1 $96 $263 $250 $265 forward $157 $-1 #
vertex $-1 $97 $266 #
vertex $-1 $167 $267 #
straight-curve $-1 77.840510269478443 20.373904977384708 9.501189037219465 0 1 0 I I #
face $-1 $-1 $268 $21 $-1 $269 reversed single #
loop $-1 $-1 $270 $98 #
plane-surface $-1 0 34.526674542431067 12.827068586312969 0 1 0 0 0 1 forward_v I I I I #
coedge $-1 $271 $101 $103 $182 forward $61 $-1 #
coedge $-1 $101 $271 $270 $272 forward $61 $-1 #
coedge $-1 $273 $104 $101 $179 forward $99 $-1 #
edge $-1 $185 8.5593846342157924 $274 20.164654816882116 $178 $275 forward 7 unknown #
coedge $-1 $276 $277 $102 $181 forward $268 $-1 #
edge $-1 $278 -55.36792261186779 $184 -45.973085832633785 $180 $279 forward 7 unknown #
edge $-1 $185 -14.320108785700908 $278 0 $103 $280 forward 7 unknown #
coedge $-1 $104 $273 $276 $281 forward $99 $-1 #
vertex $-1 $181 $282 #
vertex $-1 $105 $283 #
straight-curve $-1 -89.988225339285734 22.921404359764743 16.152948135406476 1 0 0 I I #
coedge $-1 $187 $187 $-1 $284 reversed $108 $-1 #
edge $-1 $285 0 $285 6.2831853071796004 $109 $286 forward 7 unknown #
vertex $-1 $112 $287 #
ellipse-curve $-1 -72.436748673935483 26.237195840526546 11.455529745789466 -0.6560590369687036 0 0.75470957328743171 0.75470957328743171 0 0.6560590369687036 1 I I #
coedge $-1 $191 $191 $-1 $288 reversed $115 $-1 #
edge $-1 $289 0 $289 6.2831853071796004 $116 $290 forward 7 unknown #
vertex $-1 $119 $291 #
ellipse-curve $-1 -72.436748673935483 31.210883061669257 11.455529745789466 -0.6560590369687036 0 0.75470957328743171 0.75470957328743171 0 0.6560590369687036 1 I I #
face $-1 $-1 $135 $18 $-1 $292 reversed single #
loop $-1 $-1 $211 $120 #
plane-surface $-1 0 46.968945367107757 0 0 -1 0 0 0 -1 forward_v I I I I #
coedge $-1 $293 $209 $212 $294 forward $121 $-1 #
coedge $-1 $215 $123 $124 $203 reversed $75 $-1 #
coedge $-1 $209 $293 $123 $201 reversed $121 $-1 #
edge $-1 $216 -16.152948135406472 $295 16.152948135406472 $200 $296 forward 7 unknown #
coedge $-1 $125 $124 $293 $297 forward $49 $-1 #
edge $-1 $207 -77.840510269478443 $295 77.840510269478443 $199 $298 forward 7 unknown #
coedge $-1 $212 $211 $125 $205 reversed $196 $-1 #
edge $-1 $299 -77.840510269478443 $206 77.840510269478443 $204 $300 forward 7 unknown #
vertex $-1 $127 $301 #
vertex $-1 $218 $302 #
straight-curve $-1 77.840510269478443 0 -16.152948135406472 0 -1 0 I I #
coedge $-1 $198 $200 $128 $210 reversed $121 $-1 #
edge $-1 $213 -46.968945367107757 $216 46.968945367107757 $209 $303 forward 7 unknown #
coedge $-1 $204 $129 $134 $219 forward $196 $-1 #
coedge $-1 $129 $204 $198 $294 reversed $196 $-1 #
vertex $-1 $130 $304 #
straight-curve $-1 0 46.968945367107757 16.152948135406472 -1 0 0 I I #
coedge $-1 $131 $199 $133 $218 reversed $75 $-1 #
vertex $-1 $210 $305 #
straight-curve $-1 0 -46.968945367107757 16.152948135406472 1 0 0 I I #
edge $-1 $136 -16.152948135406472 $207 16.152948135406472 $133 $306 forward 7 unknown #
edge $-1 $137 -16.152948135406472 $206 16.152948135406472 $134 $307 forward 7 unknown #
point $-1 77.840510269478443 -46.968945367107757 16.152948135406472 #
point $-1 77.840510269478443 46.968945367107757 16.152948135406472 #
face $-1 $-1 $152 $19 $-1 $308 reversed single #
loop $-1 $-1 $229 $139 #
plane-surface $-1 0 0 16.152948135406472 0 0 1 1 0 0 forward_v I I I I #
coedge $-1 $309 $142 $147 $234 forward $83 $-1 #
coedge $-1 $142 $309 $310 $311 reversed $83 $-1 #
coedge $-1 $144 $143 $142 $228 reversed $53 $-1 #
edge $-1 $312 -9.7394138422499879 $239 -3.0876547440629807 $142 $313 forward 7 unknown #
coedge $-1 $310 $314 $144 $230 forward $223 $-1 #
edge $-1 $232 -77.840510269478443 $312 77.840510269478443 $229 $315 forward 7 unknown #
coedge $-1 $151 $145 $314 $316 reversed $152 $-1 #
vertex $-1 $146 $317 #
straight-curve $-1 77.840510269478443 -34.52667454243106 6.4135342931564843 0 0 1 I I #
edge $-1 $239 14.152769565046356 $237 26.595040389723053 $225 $318 forward 7 unknown #
coedge $-1 $319 $148 $151 $241 reversed $140 $-1 #
coedge $-1 $148 $319 $309 $320 forward $140 $-1 #
vertex $-1 $149 $321 #
straight-curve $-1 0 -46.968945367107757 9.501189037219465 1 0 0 I I #
vertex $-1 $234 $322 #
straight-curve $-1 0 -34.52667454243106 9.501189037219465 1 0 0 I I #
edge $-1 $323 -16.152948135406472 $153 -9.501189037219465 $151 $324 forward 7 unknown #
point $-1 77.840510269478443 -46.968945367107757 9.501189037219465 #
point $-1 77.840510269478443 -34.52667454243106 9.501189037219465 #
face $-1 $-1 $260 $20 $-1 $325 reversed single #
loop $-1 $-1 $162 $156 #
plane-surface $-1 -77.840510269478443 0 0 1 0 0 0 0 -1 forward_v I I I I #
coedge $-1 $326 $159 $263 $327 forward $91 $-1 #
coedge $-1 $159 $326 $251 $328 forward $91 $-1 #
edge $-1 $254 -77.840510269478443 $329 77.840510269478443 $159 $330 forward 7 unknown #
coedge $-1 $161 $160 $169 $265 reversed $57 $-1 #
coedge $-1 $331 $162 $248 $328 reversed $245 $-1 #
coedge $-1 $162 $331 $164 $256 forward $245 $-1 #
vertex $-1 $256 $332 #
vertex $-1 $163 $333 #
straight-curve $-1 -77.840510269478443 34.526674542431067 6.4135342931564843 0 0 1 I I #
edge $-1 $261 -26.595040389723057 $253 -14.152769565046359 $252 $334 forward 7 unknown #
straight-curve $-1 0 34.526674542431067 9.501189037219465 -1 0 0 I I #
coedge $-1 $335 $166 $331 $336 reversed $260 $-1 #
coedge $-1 $166 $335 $168 $264 forward $260 $-1 #
loop $-1 $-1 $166 $244 #
vertex $-1 $167 $337 #
straight-curve $-1 0 46.968945367107757 9.501189037219465 -1 0 0 I I #
coedge $-1 $169 $168 $247 $327 reversed $157 $-1 #
edge $-1 $338 -16.152948135406472 $171 -9.501189037219465 $168 $339 forward 7 unknown #
edge $-1 $329 -9.7394138422499879 $170 -3.0876547440629807 $169 $340 forward 7 unknown #
point $-1 77.840510269478443 34.526674542431067 9.501189037219465 #
point $-1 77.840510269478443 46.968945367107764 9.501189037219465 #
loop $-1 $-1 $180 $173 #
plane-surface $-1 -77.840510269478443 0 0 1 0 0 0 0 -1 forward_v I I I I #
coedge $-1 $341 $342 $177 $272 reversed $174 $-1 #
coedge $-1 $177 $176 $277 $343 reversed $61 $-1 #
edge $-1 $344 0 $274 14.320108785700908 $270 $345 forward 7 unknown #
coedge $-1 $183 $178 $342 $346 forward $99 $-1 #
vertex $-1 $346 $347 #
straight-curve $-1 -67.032987078392509 14.362019725548951 16.152948135406476 0 1 0 I I #
coedge $-1 $348 $180 $183 $281 reversed $268 $-1 #
coedge $-1 $180 $348 $271 $343 forward $268 $-1 #
vertex $-1 $181 $349 #
straight-curve $-1 -77.840510269478443 22.921404359764743 62.126033968040254 0 0 1 I I #
straight-curve $-1 -77.840510269478443 22.921404359764743 6.7581113561724635 -0.75470957328743171 0 -0.6560590369687036 I I #
edge $-1 $350 -34.526674542431067 $184 -22.921404359764743 $276 $351 forward 7 unknown #
point $-1 -77.840510269478443 22.921404359764743 16.152948135406472 #
point $-1 -67.032987078392509 22.921404359764743 16.152948135406472 #
edge $-1 $352 1 $352 0 $187 $-1 forward 7 unknown #
vertex $-1 $188 $353 #
ellipse-curve $-1 -70.940909242436362 26.237195840526546 9.7347633582561617 -0.6560590369687036 0 0.75470957328743171 0.75470957328743171 0 0.6560590369687036 1 I I #
point $-1 -71.682039100648055 26.237195840526546 12.111588782758176 #
edge $-1 $354 1 $354 0 $191 $-1 forward 7 unknown #
vertex $-1 $192 $355 #
ellipse-curve $-1 -70.940909242436362 31.210883061669257 9.7347633582561617 -0.6560590369687036 0 0.75470957328743171 0.75470957328743171 0 0.6560590369687036 1 I I #
point $-1 -71.682039100648055 31.210883061669257 12.111588782758176 #
plane-surface $-1 77.840510269478443 0 0 -1 0 0 0 0 1 forward_v I I I I #
coedge $-1 $200 $198 $202 $297 reversed $121 $-1 #
edge $-1 $213 -16.152948135406472 $299 16.152948135406472 $212 $356 forward 7 unknown #
vertex $-1 $297 $357 #
straight-curve $-1 -77.840510269478443 -46.968945367107757 0 0 0 -1 I I #
edge $-1 $295 -46.968945367107757 $299 46.968945367107757 $293 $358 forward 7 unknown #
straight-curve $-1 0 -46.968945367107757 -16.152948135406472 -1 0 0 I I #
vertex $-1 $205 $359 #
straight-curve $-1 0 46.968945367107757 -16.152948135406472 1 0 0 I I #
point $-1 77.840510269478443 46.968945367107757 -16.152948135406472 #
point $-1 77.840510269478443 -46.968945367107757 -16.152948135406472 #
straight-curve $-1 -77.840510269478443 0 16.152948135406472 0 -1 0 I I #
point $-1 -77.840510269478443 46.968945367107757 16.152948135406472 #
point $-1 -77.840510269478443 -46.968945367107757 16.152948135406472 #
straight-curve $-1 77.840510269478443 -46.968945367107757 0 0 0 -1 I I #
straight-curve $-1 77.840510269478443 46.968945367107757 0 0 0 -1 I I #
plane-surface $-1 77.840510269478443 0 0 -1 0 0 0 0 1 forward_v I I I I #
coedge $-1 $226 $225 $236 $320 reversed $83 $-1 #
coedge $-1 $360 $229 $226 $311 forward $223 $-1 #
edge $-1 $312 34.52667454243106 $361 46.968945367107757 $226 $362 forward 7 unknown #
vertex $-1 $311 $363 #
straight-curve $-1 -77.840510269478443 -34.52667454243106 6.4135342931564843 0 0 -1 I I #
coedge $-1 $229 $360 $231 $316 forward $223 $-1 #
straight-curve $-1 0 -34.52667454243106 16.152948135406472 -1 0 0 I I #
edge $-1 $323 -46.968945367107757 $232 -34.52667454243106 $231 $364 forward 7 unknown #
point $-1 77.840510269478443 -34.52667454243106 16.152948135406472 #
straight-curve $-1 -77.840510269478443 -20.373904977384704 9.501189037219465 0 -1 0 I I #
coedge $-1 $236 $235 $360 $365 reversed $140 $-1 #
edge $-1 $361 -16.152948135406472 $237 -9.501189037219465 $309 $366 forward 7 unknown #
point $-1 -77.840510269478443 -46.968945367107757 9.501189037219465 #
point $-1 -77.840510269478443 -34.52667454243106 9.501189037219465 #
vertex $-1 $316 $367 #
straight-curve $-1 77.840510269478443 -46.968945367107757 0 0 0 -1 I I #
plane-surface $-1 0 46.968945367107757 0 0 -1 0 0 0 -1 forward_v I I I I #
coedge $-1 $248 $247 $335 $368 forward $91 $-1 #
edge $-1 $329 34.526674542431067 $338 46.968945367107757 $263 $369 forward 7 unknown #
edge $-1 $370 -46.968945367107757 $254 -34.526674542431067 $251 $371 forward 7 unknown #
vertex $-1 $327 $372 #
straight-curve $-1 0 34.526674542431067 16.152948135406472 1 0 0 I I #
coedge $-1 $252 $251 $258 $336 forward $245 $-1 #
point $-1 -77.840510269478443 34.526674542431067 9.501189037219465 #
point $-1 -77.840510269478443 34.526674542431067 16.152948135406472 #
straight-curve $-1 -77.840510269478443 20.373904977384708 9.501189037219465 0 -1 0 I I #
coedge $-1 $259 $258 $326 $368 reversed $260 $-1 #
edge $-1 $370 -16.152948135406472 $261 -9.501189037219465 $258 $373 forward 7 unknown #
point $-1 -77.840510269478443 46.968945367107764 9.501189037219465 #
vertex $-1 $327 $374 #
straight-curve $-1 77.840510269478443 46.968945367107757 0 0 0 -1 I I #
straight-curve $-1 77.840510269478443 34.526674542431067 6.4135342931564843 0 0 -1 I I #
coedge $-1 $342 $270 $348 $375 reversed $174 $-1 #
coedge $-1 $270 $341 $273 $346 reversed $174 $-1 #
edge $-1 $344 -20.164654816882109 $278 -8.5593846342157924 $277 $376 forward 7 unknown #
vertex $-1 $375 $377 #
straight-curve $-1 -77.840510269478443 34.52667454243106 6.7581113561724635 0.75470957328743171 0 0.6560590369687036 I I #
edge $-1 $274 67.032987078392509 $350 77.840510269478443 $273 $378 forward 7 unknown #
point $-1 -67.032987078392509 34.526674542431067 16.152948135406472 #
coedge $-1 $277 $276 $341 $375 forward $268 $-1 #
point $-1 -77.840510269478443 22.921404359764743 6.7581113561724635 #
vertex $-1 $281 $379 #
straight-curve $-1 -77.840510269478443 0 16.152948135406472 0 -1 0 I I #
vertex $-1 $284 $380 #
point $-1 -70.18619966914892 26.237195840526546 10.390822395224866 #
vertex $-1 $288 $381 #
point $-1 -70.18619966914892 31.210883061669257 10.390822395224866 #
straight-curve $-1 -77.840510269478443 46.968945367107757 0 0 0 -1 I I #
point $-1 -77.840510269478443 -46.968945367107757 -16.152948135406472 #
straight-curve $-1 -77.840510269478443 0 -16.152948135406472 0 1 0 I I #
point $-1 -77.840510269478443 46.968945367107757 -16.152948135406472 #
coedge $-1 $314 $310 $319 $365 forward $223 $-1 #
vertex $-1 $311 $382 #
straight-curve $-1 -77.840510269478443 0 16.152948135406472 0 -1 0 I I #
point $-1 -77.840510269478443 -34.52667454243106 16.152948135406472 #
straight-curve $-1 77.840510269478443 0 16.152948135406472 0 1 0 I I #
edge $-1 $361 -77.840510269478443 $323 77.840510269478443 $319 $383 forward 7 unknown #
straight-curve $-1 -77.840510269478443 -46.968945367107757 0 0 0 -1 I I #
point $-1 77.840510269478443 -46.968945367107757 16.152948135406472 #
edge $-1 $338 -77.840510269478443 $370 77.840510269478443 $335 $384 forward 7 unknown #
straight-curve $-1 77.840510269478443 0 16.152948135406472 0 1 0 I I #
vertex $-1 $368 $385 #
straight-curve $-1 -77.840510269478443 0 16.152948135406472 0 -1 0 I I #
point $-1 77.840510269478443 34.526674542431067 16.152948135406472 #
straight-curve $-1 -77.840510269478443 46.968945367107757 0 0 0 -1 I I #
point $-1 77.840510269478443 46.968945367107757 16.152948135406472 #
edge $-1 $350 45.973085832633785 $344 55.36792261186779 $348 $386 forward 7 unknown #
straight-curve $-1 -77.840510269478443 14.362019725548951 6.7581113561724599 0 -1 0 I I #
point $-1 -77.840510269478443 34.52667454243106 6.7581113561724635 #
straight-curve $-1 0 34.526674542431067 16.152948135406472 -1 0 0 I I #
point $-1 -77.840510269478443 34.526674542431067 16.152948135406472 #
point $-1 -70.284850205467649 26.237195840526546 8.9800537849687299 #
point $-1 -70.284850205467649 31.210883061669257 8.9800537849687299 #
point $-1 -77.840510269478443 -46.968945367107757 16.152948135406472 #
straight-curve $-1 0 -46.968945367107757 16.152948135406472 1 0 0 I I #
straight-curve $-1 0 46.968945367107757 16.152948135406472 -1 0 0 I I #
point $-1 -77.840510269478443 46.968945367107757 16.152948135406472 #
straight-curve $-1 -77.840510269478443 34.52667454243106 62.126033968040254 0 0 -1 I I #
End-of-ACIS-data 