500 0 7 0           
7 Unknown 11 ACIS 5.0 NT 24 Fri Mar 26 00:08:44 1999 
-1 9.9999999999999995e-007 1e-010 
body $-1 $7 $-1 $8 #
body $-1 $9 $-1 $10 #
body $-1 $11 $-1 $12 #
body $-1 $13 $-1 $14 #
body $-1 $15 $-1 $16 #
body $-1 $17 $-1 $18 #
body $-1 $19 $-1 $20 #
lump $-1 $-1 $21 $0 #
transform $-1 1 0 0 0 1 0 0 0 1 73.7656788842433 41.240072984418866 14.478390685471949 1 rotate no_reflect no_shear #
lump $-1 $-1 $22 $1 #
transform $-1 1 0 0 0 1 0 0 0 1 73.7656788842433 41.240072984418866 14.478390685471949 1 rotate no_reflect no_shear #
lump $-1 $-1 $23 $2 #
transform $-1 1 0 0 0 1 0 0 0 1 73.7656788842433 41.240072984418866 14.478390685471949 1 rotate no_reflect no_shear #
lump $-1 $-1 $24 $3 #
transform $-1 1 0 0 0 1 0 0 0 1 73.7656788842433 41.240072984418866 14.478390685471949 1 rotate no_reflect no_shear #
lump $-1 $-1 $25 $4 #
transform $-1 1 0 0 0 1 0 0 0 1 73.7656788842433 41.240072984418866 14.478390685471949 1 rotate no_reflect no_shear #
lump $-1 $-1 $26 $5 #
transform $-1 1 0 0 0 1 0 0 0 1 73.7656788842433 41.240072984418866 14.478390685471949 1 rotate no_reflect no_shear #
lump $-1 $-1 $27 $6 #
transform $-1 1 0 0 0 1 0 0 0 1 73.7656788842433 41.240072984418866 14.478390685471949 1 rotate no_reflect no_shear #
shell $-1 $-1 $-1 $28 $-1 $7 #
shell $-1 $-1 $-1 $29 $-1 $9 #
shell $-1 $-1 $-1 $30 $-1 $11 #
shell $-1 $-1 $-1 $31 $-1 $13 #
shell $-1 $-1 $-1 $32 $-1 $15 #
shell $-1 $-1 $-1 $33 $-1 $17 #
shell $-1 $-1 $-1 $34 $-1 $19 #
face $-1 $35 $36 $21 $-1 $37 forward single #
face $-1 $38 $39 $22 $-1 $40 reversed single #
face $-1 $41 $42 $23 $-1 $43 reversed single #
face $-1 $44 $45 $24 $-1 $46 forward single #
face $-1 $47 $48 $25 $-1 $49 forward single #
face $-1 $50 $51 $26 $-1 $52 reversed single #
face $-1 $53 $54 $27 $-1 $55 forward single #
face $-1 $56 $57 $21 $-1 $58 reversed single #
loop $-1 $-1 $59 $28 #
plane-surface $-1 0 0 14.478390685471949 0 0 1 1 0 0 forward_v I I I I #
face $-1 $60 $61 $22 $-1 $62 reversed single #
loop $-1 $-1 $63 $29 #
plane-surface $-1 -66.87264022496646 0 9.6632774723043706 0 0 1 1 0 0 forward_v I I I I #
face $-1 $64 $65 $23 $-1 $66 reversed single #
loop $-1 $-1 $67 $30 #
plane-surface $-1 29.021264852520822 69.985454082182514 173.67344693811998 1 0 0 0 -0.62932039886446345 -0.77714595512881146 forward_v I I I I #
face $-1 $68 $69 $24 $-1 $70 forward single #
loop $-1 $71 $72 $31 #
cone-surface $-1 34.485970280545899 33.84311767306481 7.2770594884459108 0 -0.62932039886446345 -0.77714595512881146 2.5 0 0 1 I I 0 1 2.5 forward I I I I #
face $-1 $73 $74 $25 $-1 $75 forward single #
loop $-1 $76 $77 $32 #
cone-surface $-1 42.683028422583504 33.84311767306481 7.2770594884459108 0 -0.62932039886446345 -0.77714595512881146 2.5 0 0 1 I I 0 1 2.5 forward I I I I #
face $-1 $78 $79 $26 $-1 $80 reversed single #
loop $-1 $-1 $81 $33 #
plane-surface $-1 -5.5261404559079459 -169.00597780789909 77.073941980287202 -1 0 0 0 -0.86602541151947299 0.49999998660252726 forward_v I I I I #
face $-1 $82 $83 $27 $-1 $84 forward single #
loop $-1 $85 $86 $34 #
cone-surface $-1 -24.404645777512215 -35.743041507314842 7.5813028584909539 0 0.86602541151947299 -0.49999998660252726 1.5 0 0 1 I I 0 1 1.5 forward I I I I #
face $-1 $87 $88 $21 $-1 $89 reversed single #
loop $-1 $-1 $90 $35 #
plane-surface $-1 0 0 -14.478390685471949 0 0 1 1 0 0 forward_v I I I I #
coedge $-1 $91 $92 $93 $94 forward $36 $-1 #
face $-1 $95 $96 $22 $-1 $97 reversed single #
loop $-1 $-1 $98 $38 #
plane-surface $-1 -59.97960156568962 0 12.07083407888816 -1 0 0 0 0 1 forward_v I I I I #
coedge $-1 $99 $100 $101 $102 forward $39 $-1 #
face $-1 $103 $104 $23 $-1 $105 reversed single #
loop $-1 $-1 $106 $41 #
plane-surface $-1 38.584499351564688 -22.859038833697326 59.020048993679069 0 0.62932039886446345 0.77714595512881146 1 0 0 forward_v I I I I #
coedge $-1 $107 $108 $109 $110 reversed $42 $-1 #
face $-1 $-1 $111 $24 $-1 $112 forward single #
loop $-1 $113 $114 $44 #
cone-surface $-1 34.485970280545899 30.206884741563293 2.7866858731593727 0 -0.62932039886446345 -0.77714595512881146 1.25 0 0 1 I I -0.70710678118654746 0.70710678118654746 1.25 forward I I I I #
loop $-1 $-1 $115 $31 #
coedge $-1 $72 $72 $116 $117 reversed $45 $-1 #
face $-1 $-1 $118 $25 $-1 $119 forward single #
loop $-1 $120 $121 $47 #
cone-surface $-1 42.683028422583504 30.206884741563293 2.7866858731593727 0 -0.62932039886446345 -0.77714595512881146 1.25 0 0 1 I I -0.70710678118654746 0.70710678118654746 1.25 forward I I I I #
loop $-1 $-1 $122 $32 #
coedge $-1 $77 $77 $123 $124 reversed $48 $-1 #
face $-1 $125 $126 $26 $-1 $127 reversed single #
loop $-1 $-1 $128 $50 #
plane-surface $-1 -24.404645777512215 -41.240072984418873 3.3082650725912401 0 -0.86602541151947299 0.49999998660252726 1 0 0 forward_v I I I I #
coedge $-1 $129 $130 $131 $132 reversed $51 $-1 #
face $-1 $-1 $133 $27 $-1 $134 forward single #
loop $-1 $135 $136 $53 #
cone-surface $-1 -24.404645777512215 -32.821028371108774 5.8942778479984188 0 0.86602541151947299 -0.49999998660252726 0.75 0 0 1 I I -0.70710678118654757 0.70710678118654757 0.75 forward I I I I #
loop $-1 $-1 $137 $34 #
coedge $-1 $86 $86 $138 $139 reversed $54 $-1 #
face $-1 $140 $141 $21 $-1 $142 reversed single #
loop $-1 $-1 $143 $56 #
plane-surface $-1 0 -41.240072984418866 0 0 1 0 0 0 1 forward_v I I I I #
coedge $-1 $144 $145 $146 $147 forward $57 $-1 #
coedge $-1 $148 $59 $149 $150 forward $36 $-1 #
coedge $-1 $59 $148 $151 $152 forward $36 $-1 #
coedge $-1 $153 $154 $59 $94 reversed $155 $-1 #
edge $-1 $156 -41.240072984418866 $157 41.240072984418866 $93 $158 forward 7 unknown #
face $-1 $159 $160 $22 $-1 $161 reversed single #
loop $-1 $-1 $162 $60 #
plane-surface $-1 0 41.240072984418866 0 0 -1 0 0 0 -1 forward_v I I I I #
coedge $-1 $101 $163 $164 $165 reversed $61 $-1 #
coedge $-1 $166 $63 $167 $168 reversed $39 $-1 #
coedge $-1 $63 $166 $169 $170 reversed $39 $-1 #
coedge $-1 $171 $98 $63 $102 reversed $61 $-1 #
edge $-1 $172 -41.240072984418866 $173 41.240072984418866 $101 $174 forward 7 unknown #
face $-1 $175 $176 $23 $-1 $177 forward single #
loop $-1 $-1 $178 $64 #
plane-surface $-1 48.147733850608553 69.985454082182514 173.67344693811998 -1 0 0 0 0.62932039886446345 0.77714595512881146 forward_v I I I I #
coedge $-1 $179 $180 $181 $182 reversed $65 $-1 #
coedge $-1 $108 $67 $183 $184 reversed $42 $-1 #
coedge $-1 $67 $107 $179 $185 reversed $42 $-1 #
coedge $-1 $181 $186 $67 $110 forward $176 $-1 #
edge $-1 $187 -6.2473459433276091 $188 2.8473998135386225 $109 $189 forward 7 unknown #
loop $-1 $-1 $116 $68 #
plane-surface $-1 38.584499351564688 -22.859038833697326 59.020048993679069 0 0.62932039886446345 0.77714595512881146 1 0 0 forward_v I I I I #
loop $-1 $-1 $190 $44 #
coedge $-1 $114 $114 $115 $191 reversed $69 $-1 #
coedge $-1 $115 $115 $114 $191 forward $71 $-1 #
coedge $-1 $116 $116 $72 $117 forward $111 $-1 #
edge $-1 $192 -4.4715903787879329e-016 $192 6.2831853071795996 $116 $193 forward 7 unknown #
loop $-1 $-1 $123 $73 #
plane-surface $-1 38.584499351564688 -22.859038833697326 59.020048993679069 0 0.62932039886446345 0.77714595512881146 1 0 0 forward_v I I I I #
loop $-1 $-1 $194 $47 #
coedge $-1 $121 $121 $122 $195 reversed $74 $-1 #
coedge $-1 $122 $122 $121 $195 forward $76 $-1 #
coedge $-1 $123 $123 $77 $124 forward $118 $-1 #
edge $-1 $196 -4.4715903787879329e-016 $196 6.2831853071795996 $123 $197 forward 7 unknown #
face $-1 $198 $199 $26 $-1 $200 reversed single #
loop $-1 $-1 $201 $78 #
plane-surface $-1 -43.283151099116481 -169.00597780789909 77.073941980287202 1 0 0 0 0.86602541151947299 -0.49999998660252726 forward_v I I I I #
coedge $-1 $202 $203 $204 $205 reversed $79 $-1 #
coedge $-1 $130 $81 $206 $207 reversed $51 $-1 #
coedge $-1 $81 $129 $202 $208 reversed $51 $-1 #
coedge $-1 $204 $209 $81 $132 forward $210 $-1 #
edge $-1 $211 43.262915919530677 $212 49.711990718605797 $131 $213 forward 7 unknown #
loop $-1 $-1 $138 $82 #
plane-surface $-1 -24.404645777512215 -41.240072984418873 3.3082650725912401 0 -0.86602541151947299 0.49999998660252726 1 0 0 forward_v I I I I #
loop $-1 $-1 $214 $53 #
coedge $-1 $136 $136 $137 $215 reversed $83 $-1 #
coedge $-1 $137 $137 $136 $215 forward $85 $-1 #
coedge $-1 $138 $138 $86 $139 forward $133 $-1 #
edge $-1 $216 1.3428956138391328e-015 $216 6.2831853071796022 $138 $217 forward 7 unknown #
face $-1 $218 $219 $21 $-1 $220 reversed single #
loop $-1 $-1 $221 $87 #
plane-surface $-1 -73.7656788842433 0 0 1 0 0 0 0 -1 forward_v I I I I #
coedge $-1 $222 $151 $223 $224 forward $88 $-1 #
coedge $-1 $225 $90 $222 $226 forward $57 $-1 #
coedge $-1 $90 $225 $227 $228 forward $57 $-1 #
coedge $-1 $154 $153 $90 $147 reversed $155 $-1 #
edge $-1 $229 -41.240072984418866 $230 41.240072984418866 $146 $231 forward 7 unknown #
coedge $-1 $92 $91 $232 $233 forward $36 $-1 #
coedge $-1 $234 $235 $91 $150 reversed $219 $-1 #
edge $-1 $157 -73.7656788842433 $236 73.7656788842433 $149 $237 forward 7 unknown #
coedge $-1 $143 $238 $92 $152 reversed $88 $-1 #
edge $-1 $239 -73.7656788842433 $156 73.7656788842433 $151 $240 forward 7 unknown #
coedge $-1 $146 $93 $238 $241 forward $155 $-1 #
coedge $-1 $93 $146 $234 $242 reversed $155 $-1 #
loop $-1 $-1 $153 $218 #
vertex $-1 $94 $243 #
vertex $-1 $94 $244 #
straight-curve $-1 73.7656788842433 0 14.478390685471949 0 1 0 I I #
face $-1 $245 $246 $22 $-1 $247 forward single #
loop $-1 $-1 $248 $95 #
plane-surface $-1 -73.7656788842433 0 0 1 0 0 0 0 -1 forward_v I I I I #
coedge $-1 $169 $249 $171 $250 forward $96 $-1 #
coedge $-1 $98 $171 $251 $252 reversed $61 $-1 #
coedge $-1 $253 $167 $98 $165 forward $254 $-1 #
edge $-1 $173 3.6278604328602908 $255 8.4429736460278697 $164 $256 forward 7 unknown #
coedge $-1 $100 $99 $248 $257 reversed $39 $-1 #
coedge $-1 $164 $258 $99 $168 forward $254 $-1 #
edge $-1 $259 -40.32935877176007 $173 -26.54328145320639 $167 $260 forward 7 unknown #
coedge $-1 $261 $162 $100 $170 forward $96 $-1 #
edge $-1 $172 26.54328145320639 $262 40.32935877176007 $169 $263 forward 7 unknown #
coedge $-1 $163 $101 $162 $250 reversed $61 $-1 #
vertex $-1 $170 $264 #
vertex $-1 $168 $265 #
straight-curve $-1 -59.97960156568962 0 9.6632774723043706 0 -1 0 I I #
face $-1 $-1 $266 $23 $-1 $267 reversed single #
loop $-1 $-1 $109 $103 #
plane-surface $-1 0 0 14.478390685471949 0 0 1 1 0 0 forward_v I I I I #
coedge $-1 $268 $269 $270 $271 reversed $104 $-1 #
coedge $-1 $272 $106 $108 $185 forward $65 $-1 #
coedge $-1 $106 $272 $268 $273 forward $65 $-1 #
coedge $-1 $270 $109 $106 $182 forward $176 $-1 #
edge $-1 $188 9.7290151767384785 $274 28.855484174826209 $181 $275 forward 7 unknown #
coedge $-1 $276 $277 $107 $184 forward $266 $-1 #
edge $-1 $278 -79.723112834889065 $187 -72.35833278358804 $183 $279 forward 7 unknown #
edge $-1 $188 70.777394771530425 $278 82.480145968837746 $108 $280 forward 7 unknown #
coedge $-1 $109 $270 $276 $281 forward $176 $-1 #
vertex $-1 $184 $282 #
vertex $-1 $110 $283 #
straight-curve $-1 29.021264852520822 34.992727041091257 14.47839068547195 0 -1 0 I I #
coedge $-1 $190 $190 $-1 $284 reversed $113 $-1 #
edge $-1 $285 0 $285 6.2831853071796004 $114 $286 forward 7 unknown #
vertex $-1 $117 $287 #
ellipse-curve $-1 34.485970280545899 36.69270010598575 10.796000659821432 0 0.62932039886446345 0.77714595512881146 2.5 0 0 1 I I #
coedge $-1 $194 $194 $-1 $288 reversed $120 $-1 #
edge $-1 $289 0 $289 6.2831853071796004 $121 $290 forward 7 unknown #
vertex $-1 $124 $291 #
ellipse-curve $-1 42.683028422583504 36.69270010598575 10.796000659821432 0 0.62932039886446345 0.77714595512881146 2.5 0 0 1 I I #
face $-1 $-1 $210 $26 $-1 $292 forward single #
loop $-1 $-1 $293 $125 #
plane-surface $-1 0 -41.240072984418866 0 0 1 0 0 0 1 forward_v I I I I #
coedge $-1 $294 $295 $296 $297 reversed $126 $-1 #
coedge $-1 $298 $128 $130 $208 forward $79 $-1 #
coedge $-1 $128 $298 $294 $299 forward $79 $-1 #
coedge $-1 $296 $131 $128 $205 forward $210 $-1 #
edge $-1 $212 -6.6761824328481616 $300 31.080828210360373 $204 $301 forward 7 unknown #
coedge $-1 $302 $303 $129 $207 forward $199 $-1 #
edge $-1 $304 -35.228705917552347 $211 -24.058580304671651 $206 $305 forward 7 unknown #
edge $-1 $212 -12.898149943755481 $304 -1.4321304723534956e-014 $130 $306 forward 7 unknown #
coedge $-1 $131 $296 $302 $307 forward $210 $-1 #
loop $-1 $-1 $296 $198 #
vertex $-1 $207 $308 #
vertex $-1 $132 $309 #
straight-curve $-1 -5.5261404559079459 -84.502988903949543 14.47839068547195 0 1 0 I I #
coedge $-1 $214 $214 $-1 $310 reversed $135 $-1 #
edge $-1 $311 0 $311 6.2831853071796004 $136 $312 forward 7 unknown #
vertex $-1 $139 $313 #
ellipse-curve $-1 -24.404645777512215 -38.015535584881306 8.893327879031597 0 -0.86602541151947299 0.49999998660252726 1.5 0 0 1 I I #
face $-1 $-1 $155 $21 $-1 $314 reversed single #
loop $-1 $-1 $234 $140 #
plane-surface $-1 0 41.240072984418866 0 0 -1 0 0 0 -1 forward_v I I I I #
coedge $-1 $315 $232 $235 $316 forward $141 $-1 #
coedge $-1 $238 $143 $144 $226 reversed $88 $-1 #
coedge $-1 $232 $315 $143 $224 reversed $141 $-1 #
edge $-1 $239 -14.478390685471949 $317 14.478390685471949 $223 $318 forward 7 unknown #
coedge $-1 $145 $144 $315 $319 forward $57 $-1 #
edge $-1 $230 -73.7656788842433 $317 73.7656788842433 $222 $320 forward 7 unknown #
coedge $-1 $235 $234 $145 $228 reversed $219 $-1 #
edge $-1 $321 -73.7656788842433 $229 73.7656788842433 $227 $322 forward 7 unknown #
vertex $-1 $147 $323 #
vertex $-1 $241 $324 #
straight-curve $-1 73.7656788842433 0 -14.478390685471949 0 -1 0 I I #
coedge $-1 $221 $223 $148 $233 reversed $141 $-1 #
edge $-1 $236 -41.240072984418866 $239 41.240072984418866 $232 $325 forward 7 unknown #
coedge $-1 $227 $149 $154 $242 forward $219 $-1 #
coedge $-1 $149 $227 $221 $316 reversed $219 $-1 #
vertex $-1 $150 $326 #
straight-curve $-1 0 41.240072984418866 14.478390685471949 -1 0 0 I I #
coedge $-1 $151 $222 $153 $241 reversed $88 $-1 #
vertex $-1 $233 $327 #
straight-curve $-1 0 -41.240072984418866 14.478390685471949 1 0 0 I I #
edge $-1 $156 -14.478390685471949 $230 14.478390685471949 $153 $328 forward 7 unknown #
edge $-1 $157 -14.478390685471949 $229 14.478390685471949 $154 $329 forward 7 unknown #
point $-1 73.7656788842433 -41.240072984418866 14.478390685471949 #
point $-1 73.7656788842433 41.240072984418866 14.478390685471949 #
face $-1 $-1 $254 $22 $-1 $330 reversed single #
loop $-1 $-1 $251 $159 #
plane-surface $-1 0 0 14.478390685471949 0 0 1 1 0 0 forward_v I I I I #
coedge $-1 $331 $332 $166 $257 forward $160 $-1 #
coedge $-1 $162 $261 $333 $334 reversed $96 $-1 #
edge $-1 $335 -8.4429736460278697 $172 -3.6278604328602908 $162 $336 forward 7 unknown #
coedge $-1 $333 $337 $163 $252 forward $246 $-1 #
edge $-1 $255 -41.240072984418866 $335 41.240072984418866 $251 $338 forward 7 unknown #
coedge $-1 $258 $164 $337 $339 reversed $254 $-1 #
loop $-1 $-1 $164 $245 #
vertex $-1 $165 $340 #
straight-curve $-1 -59.97960156568962 -41.240072984418866 6.0354170394440798 0 0 1 I I #
edge $-1 $262 -41.240072984418866 $259 41.240072984418866 $248 $341 forward 7 unknown #
coedge $-1 $167 $253 $331 $342 forward $254 $-1 #
vertex $-1 $257 $343 #
straight-curve $-1 -33.43632011248323 -41.240072984418866 9.6632774723043706 1 0 0 I I #
coedge $-1 $249 $169 $332 $344 reversed $96 $-1 #
vertex $-1 $257 $345 #
straight-curve $-1 -33.43632011248323 41.240072984418866 9.6632774723043706 -1 0 0 I I #
point $-1 -59.97960156568962 41.240072984418866 9.6632774723043706 #
point $-1 -59.97960156568962 -41.240072984418866 9.6632774723043706 #
loop $-1 $-1 $183 $175 #
plane-surface $-1 0 41.240072984418866 0 0 -1 0 0 0 -1 forward_v I I I I #
coedge $-1 $269 $178 $180 $273 reversed $104 $-1 #
coedge $-1 $178 $268 $346 $347 reversed $104 $-1 #
coedge $-1 $186 $181 $178 $271 forward $176 $-1 #
edge $-1 $274 -2.8473998135386225 $348 6.2473459433276091 $270 $349 forward 7 unknown #
coedge $-1 $180 $179 $277 $350 reversed $65 $-1 #
edge $-1 $351 -82.480145968837746 $274 -70.777394771530425 $268 $352 forward 7 unknown #
vertex $-1 $182 $353 #
straight-curve $-1 19.292249675782344 32.145327227552627 14.478390685471947 1 0 0 I I #
coedge $-1 $346 $183 $186 $281 reversed $266 $-1 #
coedge $-1 $183 $346 $272 $350 forward $266 $-1 #
vertex $-1 $184 $354 #
straight-curve $-1 29.021264852520822 41.240072984418866 86.83672346905999 0 0 1 I I #
straight-curve $-1 29.021264852520822 -22.859038833697326 59.020048993679069 0 0.77714595512881146 -0.62932039886446345 I I #
edge $-1 $348 -48.147733850608553 $187 -29.021264852520822 $276 $355 forward 7 unknown #
point $-1 29.021264852520822 41.240072984418866 14.478390685471949 #
point $-1 29.021264852520822 32.145327227552634 14.47839068547195 #
edge $-1 $356 1 $356 0 $190 $-1 forward 7 unknown #
vertex $-1 $191 $357 #
ellipse-curve $-1 34.485970280545899 30.993535240143871 3.7581183170703869 0 0.62932039886446345 0.77714595512881146 2.5 0 0 1 I I #
point $-1 36.985970280545899 36.69270010598575 10.796000659821434 #
edge $-1 $358 1 $358 0 $194 $-1 forward 7 unknown #
vertex $-1 $195 $359 #
ellipse-curve $-1 42.683028422583504 30.993535240143871 3.7581183170703869 0 0.62932039886446345 0.77714595512881146 2.5 0 0 1 I I #
point $-1 45.183028422583504 36.69270010598575 10.796000659821434 #
plane-surface $-1 0 0 14.478390685471949 0 0 1 1 0 0 forward_v I I I I #
coedge $-1 $303 $302 $295 $360 forward $199 $-1 #
coedge $-1 $295 $201 $203 $299 reversed $126 $-1 #
coedge $-1 $201 $294 $293 $360 reversed $126 $-1 #
coedge $-1 $209 $204 $201 $297 forward $210 $-1 #
edge $-1 $300 -49.711990718605797 $361 -43.262915919530677 $296 $362 forward 7 unknown #
coedge $-1 $203 $202 $303 $363 reversed $79 $-1 #
edge $-1 $364 1.4321304723534956e-014 $300 12.898149943755481 $294 $365 forward 7 unknown #
vertex $-1 $205 $366 #
straight-curve $-1 -12.202322888756107 -34.790998185343746 14.478390685471949 -1 0 0 I I #
coedge $-1 $293 $206 $209 $307 reversed $199 $-1 #
coedge $-1 $206 $293 $298 $363 forward $199 $-1 #
vertex $-1 $207 $367 #
straight-curve $-1 -5.5261404559079459 -41.240072984418866 38.536970990143601 0 0 1 I I #
straight-curve $-1 -5.5261404559079459 -41.240072984418873 3.3082650725912401 0 -0.49999998660252726 -0.86602541151947299 I I #
edge $-1 $361 -43.283151099116481 $211 -5.5261404559079459 $302 $368 forward 7 unknown #
point $-1 -5.5261404559079459 -41.240072984418866 14.478390685471949 #
point $-1 -5.5261404559079459 -34.790998185343746 14.478390685471949 #
edge $-1 $369 1 $369 0 $214 $-1 forward 7 unknown #
vertex $-1 $215 $370 #
ellipse-curve $-1 -24.404645777512215 -33.470547429748379 6.2692778379503142 0 -0.86602541151947299 0.49999998660252726 1.5 0 0 1 I I #
point $-1 -22.904645777512215 -38.015535584881299 8.8933278790315953 #
plane-surface $-1 73.7656788842433 0 0 -1 0 0 0 0 1 forward_v I I I I #
coedge $-1 $223 $221 $225 $319 reversed $141 $-1 #
edge $-1 $236 -14.478390685471949 $321 14.478390685471949 $235 $371 forward 7 unknown #
vertex $-1 $319 $372 #
straight-curve $-1 -73.7656788842433 -41.240072984418866 0 0 0 -1 I I #
edge $-1 $317 -41.240072984418866 $321 41.240072984418866 $315 $373 forward 7 unknown #
straight-curve $-1 0 -41.240072984418866 -14.478390685471949 -1 0 0 I I #
vertex $-1 $228 $374 #
straight-curve $-1 0 41.240072984418866 -14.478390685471949 1 0 0 I I #
point $-1 73.7656788842433 41.240072984418866 -14.478390685471949 #
point $-1 73.7656788842433 -41.240072984418866 -14.478390685471949 #
straight-curve $-1 -73.7656788842433 0 14.478390685471949 0 -1 0 I I #
point $-1 -73.7656788842433 41.240072984418866 14.478390685471949 #
point $-1 -73.7656788842433 -41.240072984418866 14.478390685471949 #
straight-curve $-1 73.7656788842433 -41.240072984418866 0 0 0 -1 I I #
straight-curve $-1 73.7656788842433 41.240072984418866 0 0 0 -1 I I #
plane-surface $-1 0 -41.240072984418866 0 0 1 0 0 0 1 forward_v I I I I #
coedge $-1 $375 $248 $258 $342 reversed $160 $-1 #
coedge $-1 $248 $375 $261 $344 forward $160 $-1 #
coedge $-1 $376 $251 $249 $334 forward $246 $-1 #
edge $-1 $335 59.97960156568962 $377 73.7656788842433 $249 $378 forward 7 unknown #
vertex $-1 $334 $379 #
straight-curve $-1 -59.97960156568962 41.240072984418866 6.0354170394440798 0 0 -1 I I #
coedge $-1 $251 $376 $253 $339 forward $246 $-1 #
straight-curve $-1 -59.97960156568962 0 14.478390685471949 0 1 0 I I #
edge $-1 $380 -73.7656788842433 $255 -59.97960156568962 $253 $381 forward 7 unknown #
point $-1 -59.97960156568962 -41.240072984418866 14.478390685471949 #
straight-curve $-1 -73.7656788842433 0 9.6632774723043706 0 -1 0 I I #
edge $-1 $380 -14.478390685471949 $259 -9.6632774723043706 $331 $382 forward 7 unknown #
point $-1 -73.7656788842433 -41.240072984418866 9.6632774723043706 #
edge $-1 $377 -14.478390685471949 $262 -9.6632774723043706 $261 $383 forward 7 unknown #
point $-1 -73.7656788842433 41.240072984418866 9.6632774723043706 #
coedge $-1 $277 $276 $269 $347 forward $266 $-1 #
edge $-1 $348 72.35833278358804 $351 79.723112834889065 $346 $384 forward 7 unknown #
vertex $-1 $281 $385 #
straight-curve $-1 48.147733850608553 34.992727041091257 14.47839068547195 0 1 0 I I #
edge $-1 $351 -28.855484174826209 $278 -9.7290151767384785 $277 $386 forward 7 unknown #
vertex $-1 $350 $387 #
straight-curve $-1 48.147733850608553 -22.859038833697326 59.020048993679069 0 -0.77714595512881146 0.62932039886446345 I I #
point $-1 48.147733850608553 32.145327227552634 14.47839068547195 #
point $-1 29.021264852520822 41.240072984418873 7.1136106341709322 #
straight-curve $-1 0 41.240072984418866 14.478390685471949 -1 0 0 I I #
vertex $-1 $284 $388 #
point $-1 36.985970280545899 30.993535240143871 3.7581183170703869 #
vertex $-1 $288 $389 #
point $-1 45.183028422583504 30.993535240143871 3.7581183170703869 #
edge $-1 $361 24.058580304671651 $364 35.228705917552347 $293 $390 forward 7 unknown #
vertex $-1 $307 $391 #
straight-curve $-1 -43.283151099116481 -84.502988903949543 14.47839068547195 0 -1 0 I I #
edge $-1 $364 -31.080828210360373 $304 6.6761824328481616 $303 $392 forward 7 unknown #
vertex $-1 $363 $393 #
straight-curve $-1 -43.283151099116481 -41.240072984418873 3.3082650725912401 0 0.49999998660252726 0.86602541151947299 I I #
point $-1 -43.283151099116481 -34.790998185343746 14.478390685471949 #
point $-1 -5.5261404559079459 -41.240072984418866 3.3082650725912526 #
straight-curve $-1 0 -41.240072984418866 14.478390685471949 1 0 0 I I #
vertex $-1 $310 $394 #
point $-1 -22.904645777512215 -33.470547429748379 6.2692778379503142 #
straight-curve $-1 -73.7656788842433 41.240072984418866 0 0 0 -1 I I #
point $-1 -73.7656788842433 -41.240072984418866 -14.478390685471949 #
straight-curve $-1 -73.7656788842433 0 -14.478390685471949 0 1 0 I I #
point $-1 -73.7656788842433 41.240072984418866 -14.478390685471949 #
coedge $-1 $332 $331 $376 $395 reversed $160 $-1 #
coedge $-1 $337 $333 $375 $395 forward $246 $-1 #
vertex $-1 $334 $396 #
straight-curve $-1 0 41.240072984418866 14.478390685471949 -1 0 0 I I #
point $-1 -59.97960156568962 41.240072984418866 14.478390685471949 #
vertex $-1 $395 $397 #
straight-curve $-1 0 -41.240072984418866 14.478390685471949 1 0 0 I I #
straight-curve $-1 -73.7656788842433 -41.240072984418866 0 0 0 -1 I I #
straight-curve $-1 -73.7656788842433 41.240072984418866 0 0 0 -1 I I #
straight-curve $-1 48.147733850608553 41.240072984418866 86.83672346905999 0 0 -1 I I #
point $-1 48.147733850608553 41.240072984418866 14.478390685471949 #
straight-curve $-1 19.292249675782344 41.240072984418859 7.1136106341709358 -1 0 0 I I #
point $-1 48.147733850608553 41.240072984418873 7.1136106341709322 #
point $-1 34.485970280545899 29.420234242982716 1.8152534292483584 #
point $-1 42.683028422583504 29.420234242982716 1.8152534292483584 #
straight-curve $-1 -43.283151099116481 -41.240072984418866 38.536970990143601 0 0 -1 I I #
point $-1 -43.283151099116481 -41.240072984418866 14.478390685471949 #
straight-curve $-1 -12.202322888756107 -41.240072984418866 3.3082650725912615 1 0 0 I I #
point $-1 -43.283151099116481 -41.240072984418866 3.3082650725912526 #
point $-1 -24.404645777512215 -32.171509312469169 5.5192778580465234 #
edge $-1 $377 -41.240072984418866 $380 41.240072984418866 $375 $398 forward 7 unknown #
point $-1 -73.7656788842433 41.240072984418866 14.478390685471949 #
point $-1 -73.7656788842433 -41.240072984418866 14.478390685471949 #
straight-curve $-1 -73.7656788842433 0 14.478390685471949 0 -1 0 I I #
End-of-ACIS-data 