500 0 13 0           
7 Unknown 11 ACIS 5.0 NT 24 Thu Mar 25 17:08:25 1999 
-1 9.9999999999999995e-007 1e-010 
body $-1 $13 $-1 $14 #
body $-1 $15 $-1 $16 #
body $-1 $17 $-1 $18 #
body $-1 $19 $-1 $20 #
body $-1 $21 $-1 $22 #
body $-1 $23 $-1 $24 #
body $-1 $25 $-1 $26 #
body $-1 $27 $-1 $28 #
body $-1 $29 $-1 $30 #
body $-1 $31 $-1 $32 #
body $-1 $33 $-1 $34 #
body $-1 $35 $-1 $36 #
body $-1 $37 $-1 $38 #
lump $-1 $-1 $39 $0 #
transform $-1 1 0 0 0 1 0 0 0 1 45.83880123294778 27.102206966964133 11.247659891383357 1 rotate no_reflect no_shear #
lump $-1 $-1 $40 $1 #
transform $-1 1 0 0 0 1 0 0 0 1 45.83880123294778 27.102206966964133 11.247659891383357 1 rotate no_reflect no_shear #
lump $-1 $-1 $41 $2 #
transform $-1 1 0 0 0 1 0 0 0 1 45.83880123294778 27.102206966964133 11.247659891383357 1 rotate no_reflect no_shear #
lump $-1 $-1 $42 $3 #
transform $-1 1 0 0 0 1 0 0 0 1 45.83880123294778 27.102206966964133 11.247659891383357 1 rotate no_reflect no_shear #
lump $-1 $-1 $43 $4 #
transform $-1 1 0 0 0 1 0 0 0 1 45.83880123294778 27.102206966964133 11.247659891383357 1 rotate no_reflect no_shear #
lump $-1 $-1 $44 $5 #
transform $-1 1 0 0 0 1 0 0 0 1 45.83880123294778 27.102206966964133 11.247659891383357 1 rotate no_reflect no_shear #
lump $-1 $-1 $45 $6 #
transform $-1 1 0 0 0 1 0 0 0 1 45.83880123294778 27.102206966964133 11.247659891383357 1 rotate no_reflect no_shear #
lump $-1 $-1 $46 $7 #
transform $-1 1 0 0 0 1 0 0 0 1 45.83880123294778 27.102206966964133 11.247659891383357 1 rotate no_reflect no_shear #
lump $-1 $-1 $47 $8 #
transform $-1 1 0 0 0 1 0 0 0 1 45.83880123294778 27.102206966964133 11.247659891383357 1 rotate no_reflect no_shear #
lump $-1 $-1 $48 $9 #
transform $-1 1 0 0 0 1 0 0 0 1 45.83880123294778 27.102206966964133 11.247659891383357 1 rotate no_reflect no_shear #
lump $-1 $-1 $49 $10 #
transform $-1 1 0 0 0 1 0 0 0 1 45.83880123294778 27.102206966964133 11.247659891383357 1 rotate no_reflect no_shear #
lump $-1 $-1 $50 $11 #
transform $-1 1 0 0 0 1 0 0 0 1 45.83880123294778 27.102206966964133 11.247659891383357 1 rotate no_reflect no_shear #
lump $-1 $-1 $51 $12 #
transform $-1 1 0 0 0 1 0 0 0 1 45.83880123294778 27.102206966964133 11.247659891383357 1 rotate no_reflect no_shear #
shell $-1 $-1 $-1 $52 $-1 $13 #
shell $-1 $-1 $-1 $53 $-1 $15 #
shell $-1 $-1 $-1 $54 $-1 $17 #
shell $-1 $-1 $-1 $55 $-1 $19 #
shell $-1 $-1 $-1 $56 $-1 $21 #
shell $-1 $-1 $-1 $57 $-1 $23 #
shell $-1 $-1 $-1 $58 $-1 $25 #
shell $-1 $-1 $-1 $59 $-1 $27 #
shell $-1 $-1 $-1 $60 $-1 $29 #
shell $-1 $-1 $-1 $61 $-1 $31 #
shell $-1 $-1 $-1 $62 $-1 $33 #
shell $-1 $-1 $-1 $63 $-1 $35 #
shell $-1 $-1 $-1 $64 $-1 $37 #
face $-1 $65 $66 $39 $-1 $67 forward single #
face $-1 $68 $69 $40 $-1 $70 forward single #
face $-1 $71 $72 $41 $-1 $73 reversed single #
face $-1 $74 $75 $42 $-1 $76 forward single #
face $-1 $77 $78 $43 $-1 $79 forward single #
face $-1 $80 $81 $44 $-1 $82 forward single #
face $-1 $83 $84 $45 $-1 $85 reversed single #
face $-1 $86 $87 $46 $-1 $88 forward single #
face $-1 $89 $90 $47 $-1 $91 forward single #
face $-1 $92 $93 $48 $-1 $94 forward single #
face $-1 $95 $96 $49 $-1 $97 reversed single #
face $-1 $98 $99 $50 $-1 $100 forward single #
face $-1 $101 $102 $51 $-1 $103 forward single #
face $-1 $104 $105 $39 $-1 $106 reversed single #
loop $-1 $-1 $107 $52 #
plane-surface $-1 0 0 11.247659891383357 0 0 1 1 0 0 forward_v I I I I #
face $-1 $108 $109 $40 $-1 $110 reversed single #
loop $-1 $-1 $111 $53 #
plane-surface $-1 -41.026026871067913 0 -7.1196003708863422 0 0 1 1 0 0 forward_v I I I I #
face $-1 $112 $113 $41 $-1 $114 reversed single #
loop $-1 $-1 $115 $54 #
plane-surface $-1 -36.213252509188052 65.973575452670872 106.8748535235361 1 0 0 0 -0.78801076186113728 -0.61566146476048833 forward_v I I I I #
face $-1 $116 $117 $42 $-1 $118 forward single #
loop $-1 $119 $120 $55 #
cone-surface $-1 -32.219202833639272 25.329687628145738 9.175411704982352 0 -0.78801076186113728 -0.61566146476048833 0.5 0 0 1 I I 0 1 0.5 forward I I I I #
face $-1 $121 $122 $43 $-1 $123 forward single #
loop $-1 $124 $125 $56 #
cone-surface $-1 -26.228128320316117 25.329687628145738 9.175411704982352 0 -0.78801076186113728 -0.61566146476048833 0.5 0 0 1 I I 0 1 0.5 forward I I I I #
face $-1 $126 $127 $44 $-1 $128 forward single #
loop $-1 $129 $130 $57 #
cone-surface $-1 -20.237053806992957 25.329687628145738 9.175411704982352 0 -0.78801076186113728 -0.61566146476048833 0.5 0 0 1 I I 0 1 0.5 forward I I I I #
face $-1 $131 $132 $45 $-1 $133 reversed single #
loop $-1 $-1 $134 $58 #
plane-surface $-1 25.868552855203912 65.973575452670872 106.8748535235361 1 0 0 0 -0.78801076186113728 -0.61566146476048833 forward_v I I I I #
face $-1 $135 $136 $46 $-1 $137 forward single #
loop $-1 $138 $139 $59 #
cone-surface $-1 29.862602530752689 25.329687628145738 9.175411704982352 0 -0.78801076186113728 -0.61566146476048833 0.5 0 0 1 I I 0 1 0.5 forward I I I I #
face $-1 $140 $141 $47 $-1 $142 forward single #
loop $-1 $143 $144 $60 #
cone-surface $-1 35.853677044075845 25.329687628145738 9.175411704982352 0 -0.78801076186113728 -0.61566146476048833 0.5 0 0 1 I I 0 1 0.5 forward I I I I #
face $-1 $145 $146 $48 $-1 $147 forward single #
loop $-1 $148 $149 $61 #
cone-surface $-1 41.844751557399 25.329687628145738 9.175411704982352 0 -0.78801076186113728 -0.61566146476048833 0.5 0 0 1 I I 0 1 0.5 forward I I I I #
face $-1 $150 $151 $49 $-1 $152 reversed single #
loop $-1 $-1 $153 $62 #
plane-surface $-1 9.2453861031388875 -105.68525072578014 54.710499135286902 -1 0 0 0 -0.85716730853699208 0.51503806187062418 forward_v I I I I #
face $-1 $154 $155 $50 $-1 $156 forward single #
loop $-1 $157 $158 $63 #
cone-surface $-1 3.0325193104749033 -25.521007010714527 9.0980423163822461 0 0.85716730853699208 -0.51503806187062418 0.5 0 0 1 I I 0 1 0.5 forward I I I I #
face $-1 $159 $160 $51 $-1 $161 forward single #
loop $-1 $162 $163 $64 #
cone-surface $-1 6.7602393860732874 -25.521007010714527 9.0980423163822461 0 0.85716730853699208 -0.51503806187062418 0.5 0 0 1 I I 0 1 0.5 forward I I I I #
face $-1 $164 $165 $39 $-1 $166 reversed single #
loop $-1 $-1 $167 $65 #
plane-surface $-1 0 0 -11.247659891383357 0 0 1 1 0 0 forward_v I I I I #
coedge $-1 $168 $169 $170 $171 forward $66 $-1 #
face $-1 $172 $173 $40 $-1 $174 reversed single #
loop $-1 $-1 $175 $68 #
plane-surface $-1 -41.026026871067913 0 -10.119600370886342 0 0 1 1 0 0 forward_v I I I I #
coedge $-1 $176 $177 $178 $179 forward $69 $-1 #
face $-1 $180 $181 $41 $-1 $182 reversed single #
loop $-1 $-1 $183 $71 #
plane-surface $-1 -26.228128320316117 -6.2693619120819619 50.432486503653095 0 0.78801076186113728 0.61566146476048833 1 0 0 forward_v I I I I #
coedge $-1 $184 $185 $186 $187 reversed $72 $-1 #
face $-1 $-1 $188 $42 $-1 $189 forward single #
loop $-1 $190 $191 $74 #
cone-surface $-1 -32.219202833639272 24.738679556749887 8.7136656064119862 0 -0.78801076186113728 -0.61566146476048833 0.25 0 0 1 I I -0.70710678118654746 0.70710678118654746 0.25 forward I I I I #
loop $-1 $-1 $192 $55 #
coedge $-1 $120 $120 $193 $194 reversed $75 $-1 #
face $-1 $-1 $195 $43 $-1 $196 forward single #
loop $-1 $197 $198 $77 #
cone-surface $-1 -26.228128320316117 24.738679556749887 8.7136656064119862 0 -0.78801076186113728 -0.61566146476048833 0.25 0 0 1 I I -0.70710678118654746 0.70710678118654746 0.25 forward I I I I #
loop $-1 $-1 $199 $56 #
coedge $-1 $125 $125 $200 $201 reversed $78 $-1 #
face $-1 $-1 $202 $44 $-1 $203 forward single #
loop $-1 $204 $205 $80 #
cone-surface $-1 -20.237053806992957 24.738679556749887 8.7136656064119862 0 -0.78801076186113728 -0.61566146476048833 0.25 0 0 1 I I -0.70710678118654746 0.70710678118654746 0.25 forward I I I I #
loop $-1 $-1 $206 $57 #
coedge $-1 $130 $130 $207 $208 reversed $81 $-1 #
face $-1 $209 $210 $45 $-1 $211 forward single #
loop $-1 $-1 $212 $83 #
plane-surface $-1 35.853677044075845 -6.2693619120819619 50.432486503653095 0 0.78801076186113728 0.61566146476048833 1 0 0 forward_v I I I I #
coedge $-1 $213 $214 $215 $216 reversed $84 $-1 #
face $-1 $-1 $217 $46 $-1 $218 forward single #
loop $-1 $219 $220 $86 #
cone-surface $-1 29.862602530752689 24.738679556749887 8.7136656064119862 0 -0.78801076186113728 -0.61566146476048833 0.25 0 0 1 I I -0.70710678118654746 0.70710678118654746 0.25 forward I I I I #
loop $-1 $-1 $221 $59 #
coedge $-1 $139 $139 $222 $223 reversed $87 $-1 #
face $-1 $-1 $224 $47 $-1 $225 forward single #
loop $-1 $226 $227 $89 #
cone-surface $-1 35.853677044075845 24.738679556749887 8.7136656064119862 0 -0.78801076186113728 -0.61566146476048833 0.25 0 0 1 I I -0.70710678118654746 0.70710678118654746 0.25 forward I I I I #
loop $-1 $-1 $228 $60 #
coedge $-1 $144 $144 $229 $230 reversed $90 $-1 #
face $-1 $-1 $231 $48 $-1 $232 forward single #
loop $-1 $233 $234 $92 #
cone-surface $-1 41.844751557399 24.738679556749887 8.7136656064119862 0 -0.78801076186113728 -0.61566146476048833 0.25 0 0 1 I I -0.70710678118654746 0.70710678118654746 0.25 forward I I I I #
loop $-1 $-1 $235 $61 #
coedge $-1 $149 $149 $236 $237 reversed $93 $-1 #
face $-1 $238 $239 $49 $-1 $240 reversed single #
loop $-1 $-1 $241 $95 #
plane-surface $-1 4.8963793482741025 -27.102206966964133 7.4930444443064985 0 -0.85716730853699208 0.51503806187062418 1 0 0 forward_v I I I I #
coedge $-1 $242 $243 $244 $245 reversed $96 $-1 #
face $-1 $-1 $246 $50 $-1 $247 forward single #
loop $-1 $248 $249 $98 #
cone-surface $-1 3.0325193104749033 -24.853515469332741 8.6969729494519115 0 0.85716730853699208 -0.51503806187062418 0.25 0 0 1 I I -0.70710678118654746 0.70710678118654746 0.25 forward I I I I #
loop $-1 $-1 $250 $63 #
coedge $-1 $158 $158 $251 $252 reversed $99 $-1 #
face $-1 $-1 $253 $51 $-1 $254 forward single #
loop $-1 $255 $256 $101 #
cone-surface $-1 6.7602393860732874 -24.853515469332741 8.6969729494519115 0 0.85716730853699208 -0.51503806187062418 0.25 0 0 1 I I -0.70710678118654746 0.70710678118654746 0.25 forward I I I I #
loop $-1 $-1 $257 $64 #
coedge $-1 $163 $163 $258 $259 reversed $102 $-1 #
face $-1 $260 $261 $39 $-1 $262 reversed single #
loop $-1 $-1 $263 $104 #
plane-surface $-1 0 -27.102206966964133 0 0 1 0 0 0 1 forward_v I I I I #
coedge $-1 $264 $265 $266 $267 forward $105 $-1 #
coedge $-1 $268 $107 $269 $270 forward $66 $-1 #
coedge $-1 $107 $268 $271 $272 forward $66 $-1 #
coedge $-1 $273 $274 $107 $171 reversed $275 $-1 #
edge $-1 $276 -27.102206966964133 $277 27.102206966964133 $170 $278 forward 7 unknown #
face $-1 $279 $280 $40 $-1 $281 reversed single #
loop $-1 $-1 $282 $108 #
plane-surface $-1 -36.213252509188045 0 -8.6196003708863422 -1 0 0 0 0 1 forward_v I I I I #
coedge $-1 $283 $284 $285 $286 forward $109 $-1 #
coedge $-1 $287 $111 $288 $289 reversed $69 $-1 #
coedge $-1 $111 $287 $290 $291 reversed $69 $-1 #
coedge $-1 $282 $292 $111 $179 reversed $173 $-1 #
edge $-1 $293 -27.102206966964133 $294 27.102206966964133 $178 $295 forward 7 unknown #
face $-1 $296 $297 $41 $-1 $298 forward single #
loop $-1 $-1 $299 $112 #
plane-surface $-1 -16.243004131444184 65.973575452670872 106.8748535235361 -1 0 0 0 0.78801076186113728 0.61566146476048833 forward_v I I I I #
coedge $-1 $300 $301 $302 $303 reversed $113 $-1 #
coedge $-1 $185 $115 $304 $305 reversed $72 $-1 #
coedge $-1 $115 $184 $300 $306 reversed $72 $-1 #
coedge $-1 $302 $307 $115 $187 forward $297 $-1 #
edge $-1 $308 5.8845807593713033 $309 8.6416086751469372 $186 $310 forward 7 unknown #
loop $-1 $-1 $193 $116 #
plane-surface $-1 -26.228128320316117 -6.2693619120819619 50.432486503653095 0 0.78801076186113728 0.61566146476048833 1 0 0 forward_v I I I I #
loop $-1 $-1 $311 $74 #
coedge $-1 $191 $191 $192 $312 reversed $117 $-1 #
coedge $-1 $192 $192 $191 $312 forward $119 $-1 #
coedge $-1 $193 $193 $120 $194 forward $188 $-1 #
edge $-1 $313 -3.1499224040476249e-015 $313 6.2831853071795969 $193 $314 forward 7 unknown #
loop $-1 $-1 $200 $121 #
plane-surface $-1 -26.228128320316117 -6.2693619120819619 50.432486503653095 0 0.78801076186113728 0.61566146476048833 1 0 0 forward_v I I I I #
loop $-1 $-1 $315 $77 #
coedge $-1 $198 $198 $199 $316 reversed $122 $-1 #
coedge $-1 $199 $199 $198 $316 forward $124 $-1 #
coedge $-1 $200 $200 $125 $201 forward $195 $-1 #
edge $-1 $317 -3.1499224040476249e-015 $317 6.2831853071795969 $200 $318 forward 7 unknown #
loop $-1 $-1 $207 $126 #
plane-surface $-1 -26.228128320316117 -6.2693619120819619 50.432486503653095 0 0.78801076186113728 0.61566146476048833 1 0 0 forward_v I I I I #
loop $-1 $-1 $319 $80 #
coedge $-1 $205 $205 $206 $320 reversed $127 $-1 #
coedge $-1 $206 $206 $205 $320 forward $129 $-1 #
coedge $-1 $207 $207 $130 $208 forward $202 $-1 #
edge $-1 $321 -3.1499224040476249e-015 $321 6.2831853071795969 $207 $322 forward 7 unknown #
face $-1 $323 $324 $45 $-1 $325 reversed single #
loop $-1 $-1 $215 $131 #
plane-surface $-1 0 0 11.247659891383357 0 0 1 1 0 0 forward_v I I I I #
coedge $-1 $326 $327 $328 $329 reversed $132 $-1 #
coedge $-1 $214 $134 $330 $331 reversed $84 $-1 #
coedge $-1 $134 $213 $326 $332 reversed $84 $-1 #
coedge $-1 $328 $333 $134 $216 forward $210 $-1 #
edge $-1 $334 5.8845807593713033 $335 8.6416086751469372 $215 $336 forward 7 unknown #
loop $-1 $-1 $222 $135 #
plane-surface $-1 35.853677044075845 -6.2693619120819619 50.432486503653095 0 0.78801076186113728 0.61566146476048833 1 0 0 forward_v I I I I #
loop $-1 $-1 $337 $86 #
coedge $-1 $220 $220 $221 $338 reversed $136 $-1 #
coedge $-1 $221 $221 $220 $338 forward $138 $-1 #
coedge $-1 $222 $222 $139 $223 forward $217 $-1 #
edge $-1 $339 -3.1499224040476249e-015 $339 6.2831853071795969 $222 $340 forward 7 unknown #
loop $-1 $-1 $229 $140 #
plane-surface $-1 35.853677044075845 -6.2693619120819619 50.432486503653095 0 0.78801076186113728 0.61566146476048833 1 0 0 forward_v I I I I #
loop $-1 $-1 $341 $89 #
coedge $-1 $227 $227 $228 $342 reversed $141 $-1 #
coedge $-1 $228 $228 $227 $342 forward $143 $-1 #
coedge $-1 $229 $229 $144 $230 forward $224 $-1 #
edge $-1 $343 -3.1499224040476249e-015 $343 6.2831853071795969 $229 $344 forward 7 unknown #
loop $-1 $-1 $236 $145 #
plane-surface $-1 35.853677044075845 -6.2693619120819619 50.432486503653095 0 0.78801076186113728 0.61566146476048833 1 0 0 forward_v I I I I #
loop $-1 $-1 $345 $92 #
coedge $-1 $234 $234 $235 $346 reversed $146 $-1 #
coedge $-1 $235 $235 $234 $346 forward $148 $-1 #
coedge $-1 $236 $236 $149 $237 forward $231 $-1 #
edge $-1 $347 -3.1499224040476249e-015 $347 6.2831853071795969 $236 $348 forward 7 unknown #
face $-1 $349 $350 $49 $-1 $351 reversed single #
loop $-1 $-1 $352 $150 #
plane-surface $-1 0.54737259340931743 -105.68525072578014 54.710499135286902 1 0 0 0 0.85716730853699208 -0.51503806187062418 forward_v I I I I #
coedge $-1 $353 $354 $355 $356 reversed $151 $-1 #
coedge $-1 $243 $153 $357 $358 reversed $96 $-1 #
coedge $-1 $153 $242 $353 $359 reversed $96 $-1 #
coedge $-1 $355 $360 $153 $245 forward $361 $-1 #
edge $-1 $362 25.740418395925936 $363 27.996418879930069 $244 $364 forward 7 unknown #
loop $-1 $-1 $251 $154 #
plane-surface $-1 4.8963793482741025 -27.102206966964133 7.4930444443064985 0 -0.85716730853699208 0.51503806187062418 1 0 0 forward_v I I I I #
loop $-1 $-1 $365 $98 #
coedge $-1 $249 $249 $250 $366 reversed $155 $-1 #
coedge $-1 $250 $250 $249 $366 forward $157 $-1 #
coedge $-1 $251 $251 $158 $252 forward $246 $-1 #
edge $-1 $367 0 $367 6.2831853071796004 $251 $368 forward 7 unknown #
loop $-1 $-1 $258 $159 #
plane-surface $-1 4.8963793482741025 -27.102206966964133 7.4930444443064985 0 -0.85716730853699208 0.51503806187062418 1 0 0 forward_v I I I I #
loop $-1 $-1 $369 $101 #
coedge $-1 $256 $256 $257 $370 reversed $160 $-1 #
coedge $-1 $257 $257 $256 $370 forward $162 $-1 #
coedge $-1 $258 $258 $163 $259 forward $253 $-1 #
edge $-1 $371 0 $371 6.2831853071796004 $258 $372 forward 7 unknown #
face $-1 $373 $374 $39 $-1 $375 reversed single #
loop $-1 $-1 $376 $164 #
plane-surface $-1 -45.83880123294778 0 0 1 0 0 0 0 -1 forward_v I I I I #
coedge $-1 $377 $271 $378 $379 forward $165 $-1 #
coedge $-1 $380 $167 $377 $381 forward $105 $-1 #
coedge $-1 $167 $380 $382 $383 forward $105 $-1 #
coedge $-1 $274 $273 $167 $267 reversed $275 $-1 #
edge $-1 $384 -27.102206966964133 $385 27.102206966964133 $266 $386 forward 7 unknown #
coedge $-1 $169 $168 $387 $388 forward $66 $-1 #
coedge $-1 $389 $390 $168 $270 reversed $374 $-1 #
edge $-1 $277 -45.83880123294778 $391 45.83880123294778 $269 $392 forward 7 unknown #
coedge $-1 $263 $393 $169 $272 reversed $165 $-1 #
edge $-1 $394 -45.83880123294778 $276 45.83880123294778 $271 $395 forward 7 unknown #
coedge $-1 $266 $170 $393 $396 forward $275 $-1 #
coedge $-1 $170 $266 $389 $397 reversed $275 $-1 #
loop $-1 $-1 $273 $373 #
vertex $-1 $171 $398 #
vertex $-1 $171 $399 #
straight-curve $-1 45.83880123294778 0 11.247659891383357 0 1 0 I I #
face $-1 $400 $401 $40 $-1 $402 reversed single #
loop $-1 $-1 $403 $172 #
plane-surface $-1 0 -27.102206966964133 0 0 1 0 0 0 1 forward_v I I I I #
coedge $-1 $285 $178 $404 $405 reversed $173 $-1 #
coedge $-1 $406 $175 $403 $407 reversed $109 $-1 #
coedge $-1 $175 $406 $408 $409 reversed $109 $-1 #
coedge $-1 $292 $282 $175 $286 reversed $173 $-1 #
edge $-1 $410 -27.102206966964133 $411 27.102206966964133 $285 $412 forward 7 unknown #
coedge $-1 $177 $176 $413 $414 reversed $69 $-1 #
coedge $-1 $415 $416 $176 $289 forward $417 $-1 #
edge $-1 $418 -25.325787797413824 $294 -15.700239073654089 $288 $419 forward 7 unknown #
coedge $-1 $420 $404 $177 $291 forward $280 $-1 #
edge $-1 $293 15.700239073654089 $421 25.325787797413824 $290 $422 forward 7 unknown #
coedge $-1 $178 $285 $415 $423 reversed $173 $-1 #
vertex $-1 $291 $424 #
vertex $-1 $289 $425 #
straight-curve $-1 -36.213252509188045 0 -7.1196003708863422 0 1 0 I I #
face $-1 $-1 $426 $41 $-1 $427 reversed single #
loop $-1 $-1 $186 $180 #
plane-surface $-1 0 0 11.247659891383357 0 0 1 1 0 0 forward_v I I I I #
coedge $-1 $428 $429 $430 $431 reversed $181 $-1 #
coedge $-1 $432 $183 $185 $306 forward $113 $-1 #
coedge $-1 $183 $432 $428 $433 forward $113 $-1 #
coedge $-1 $430 $186 $183 $303 forward $297 $-1 #
edge $-1 $309 -23.099188349029994 $434 -3.1289399712861261 $302 $435 forward 7 unknown #
coedge $-1 $436 $437 $184 $305 forward $426 $-1 #
edge $-1 $438 -45.718601778426205 $308 -42.189766870384695 $304 $439 forward 7 unknown #
edge $-1 $309 49.726258204548301 $438 54.204413933928251 $185 $440 forward 7 unknown #
coedge $-1 $186 $430 $436 $441 forward $297 $-1 #
vertex $-1 $305 $442 #
vertex $-1 $187 $443 #
straight-curve $-1 -36.213252509188052 32.986787726335436 11.247659891383357 0 -1 0 I I #
coedge $-1 $311 $311 $-1 $444 reversed $190 $-1 #
edge $-1 $445 0 $445 6.2831853071796004 $191 $446 forward 7 unknown #
vertex $-1 $194 $447 #
ellipse-curve $-1 -32.219202833639272 25.723693009076314 9.4832424373626001 0 0.78801076186113728 0.61566146476048833 0.5 0 0 1 I I #
coedge $-1 $315 $315 $-1 $448 reversed $197 $-1 #
edge $-1 $449 0 $449 6.2831853071796004 $198 $450 forward 7 unknown #
vertex $-1 $201 $451 #
ellipse-curve $-1 -26.228128320316117 25.723693009076314 9.4832424373626001 0 0.78801076186113728 0.61566146476048833 0.5 0 0 1 I I #
coedge $-1 $319 $319 $-1 $452 reversed $204 $-1 #
edge $-1 $453 0 $453 6.2831853071796004 $205 $454 forward 7 unknown #
vertex $-1 $208 $455 #
ellipse-curve $-1 -20.237053806992957 25.723693009076314 9.4832424373626001 0 0.78801076186113728 0.61566146476048833 0.5 0 0 1 I I #
face $-1 $-1 $456 $45 $-1 $457 reversed single #
loop $-1 $-1 $458 $209 #
plane-surface $-1 45.83880123294778 0 0 -1 0 0 0 0 1 forward_v I I I I #
coedge $-1 $459 $212 $214 $332 forward $132 $-1 #
coedge $-1 $212 $459 $458 $460 reversed $132 $-1 #
coedge $-1 $461 $215 $212 $329 forward $210 $-1 #
edge $-1 $335 7.9417143331659901 $462 27.911962710909851 $328 $463 forward 7 unknown #
coedge $-1 $464 $465 $213 $331 forward $456 $-1 #
edge $-1 $466 -45.718601778426205 $334 -42.189766870384695 $330 $467 forward 7 unknown #
edge $-1 $335 49.726258204548301 $466 54.204413933928251 $214 $468 forward 7 unknown #
coedge $-1 $215 $461 $464 $469 forward $210 $-1 #
vertex $-1 $331 $470 #
vertex $-1 $216 $471 #
straight-curve $-1 25.868552855203912 32.986787726335436 11.247659891383357 0 -1 0 I I #
coedge $-1 $337 $337 $-1 $472 reversed $219 $-1 #
edge $-1 $473 0 $473 6.2831853071796004 $220 $474 forward 7 unknown #
vertex $-1 $223 $475 #
ellipse-curve $-1 29.862602530752689 25.723693009076314 9.4832424373626001 0 0.78801076186113728 0.61566146476048833 0.5 0 0 1 I I #
coedge $-1 $341 $341 $-1 $476 reversed $226 $-1 #
edge $-1 $477 0 $477 6.2831853071796004 $227 $478 forward 7 unknown #
vertex $-1 $230 $479 #
ellipse-curve $-1 35.853677044075845 25.723693009076314 9.4832424373626001 0 0.78801076186113728 0.61566146476048833 0.5 0 0 1 I I #
coedge $-1 $345 $345 $-1 $480 reversed $233 $-1 #
edge $-1 $481 0 $481 6.2831853071796004 $234 $482 forward 7 unknown #
vertex $-1 $237 $483 #
ellipse-curve $-1 41.844751557399 25.723693009076314 9.4832424373626001 0 0.78801076186113728 0.61566146476048833 0.5 0 0 1 I I #
face $-1 $-1 $361 $49 $-1 $484 forward single #
loop $-1 $-1 $485 $238 #
plane-surface $-1 0 -27.102206966964133 0 0 1 0 0 0 1 forward_v I I I I #
coedge $-1 $486 $487 $488 $489 reversed $239 $-1 #
coedge $-1 $490 $241 $243 $359 forward $151 $-1 #
coedge $-1 $241 $490 $486 $491 forward $151 $-1 #
coedge $-1 $488 $244 $241 $356 forward $361 $-1 #
edge $-1 $363 -6.7971964290018363 $492 1.9008170807277338 $355 $493 forward 7 unknown #
coedge $-1 $494 $495 $242 $358 forward $350 $-1 #
edge $-1 $496 -19.862205123336953 $362 -16.107589676260094 $357 $497 forward 7 unknown #
edge $-1 $363 -4.3802597342229666 $496 0 $243 $498 forward 7 unknown #
coedge $-1 $244 $488 $494 $499 forward $361 $-1 #
loop $-1 $-1 $488 $349 #
vertex $-1 $358 $500 #
vertex $-1 $245 $501 #
straight-curve $-1 9.2453861031388875 -52.842625362890068 11.247659891383357 0 1 0 I I #
coedge $-1 $365 $365 $-1 $502 reversed $248 $-1 #
edge $-1 $503 0 $503 6.2831853071796004 $249 $504 forward 7 unknown #
vertex $-1 $252 $505 #
ellipse-curve $-1 3.0325193104749033 -25.974206724962066 9.370352167844926 0 -0.85716730853699208 0.51503806187062418 0.5 0 0 1 I I #
coedge $-1 $369 $369 $-1 $506 reversed $255 $-1 #
edge $-1 $507 0 $507 6.2831853071796004 $256 $508 forward 7 unknown #
vertex $-1 $259 $509 #
ellipse-curve $-1 6.7602393860732874 -25.974206724962066 9.370352167844926 0 -0.85716730853699208 0.51503806187062418 0.5 0 0 1 I I #
face $-1 $-1 $275 $39 $-1 $510 reversed single #
loop $-1 $-1 $389 $260 #
plane-surface $-1 0 27.102206966964133 0 0 -1 0 0 0 -1 forward_v I I I I #
coedge $-1 $511 $387 $390 $512 forward $261 $-1 #
coedge $-1 $393 $263 $264 $381 reversed $165 $-1 #
coedge $-1 $387 $511 $263 $379 reversed $261 $-1 #
edge $-1 $394 -11.247659891383357 $513 11.247659891383357 $378 $514 forward 7 unknown #
coedge $-1 $265 $264 $511 $515 forward $105 $-1 #
edge $-1 $385 -45.83880123294778 $513 45.83880123294778 $377 $516 forward 7 unknown #
coedge $-1 $390 $389 $265 $383 reversed $374 $-1 #
edge $-1 $517 -45.83880123294778 $384 45.83880123294778 $382 $518 forward 7 unknown #
vertex $-1 $267 $519 #
vertex $-1 $396 $520 #
straight-curve $-1 45.83880123294778 0 -11.247659891383357 0 -1 0 I I #
coedge $-1 $376 $378 $268 $388 reversed $261 $-1 #
edge $-1 $391 -27.102206966964133 $394 27.102206966964133 $387 $521 forward 7 unknown #
coedge $-1 $382 $269 $274 $397 forward $374 $-1 #
coedge $-1 $269 $382 $376 $512 reversed $374 $-1 #
vertex $-1 $270 $522 #
straight-curve $-1 0 27.102206966964133 11.247659891383357 -1 0 0 I I #
coedge $-1 $271 $377 $273 $396 reversed $165 $-1 #
vertex $-1 $388 $523 #
straight-curve $-1 0 -27.102206966964133 11.247659891383357 1 0 0 I I #
edge $-1 $276 -11.247659891383357 $385 11.247659891383357 $273 $524 forward 7 unknown #
edge $-1 $277 -11.247659891383357 $384 11.247659891383357 $274 $525 forward 7 unknown #
point $-1 45.83880123294778 -27.102206966964133 11.247659891383357 #
point $-1 45.83880123294778 27.102206966964133 11.247659891383357 #
face $-1 $-1 $417 $40 $-1 $526 reversed single #
loop $-1 $-1 $527 $279 #
plane-surface $-1 -45.83880123294778 0 0 1 0 0 0 0 -1 forward_v I I I I #
coedge $-1 $404 $420 $283 $407 forward $280 $-1 #
coedge $-1 $290 $403 $282 $405 forward $280 $-1 #
edge $-1 $411 -5.8098001854431711 $293 -2.8098001854431711 $404 $528 forward 7 unknown #
coedge $-1 $284 $283 $527 $529 reversed $109 $-1 #
edge $-1 $530 -25.325787797413824 $411 -15.700239073654089 $403 $531 forward 7 unknown #
coedge $-1 $416 $415 $284 $409 forward $417 $-1 #
edge $-1 $410 15.700239073654089 $532 25.325787797413824 $408 $533 forward 7 unknown #
vertex $-1 $409 $534 #
vertex $-1 $407 $535 #
straight-curve $-1 -36.213252509188045 0 -10.119600370886342 0 -1 0 I I #
coedge $-1 $536 $537 $287 $414 forward $401 $-1 #
edge $-1 $421 -27.102206966964133 $418 27.102206966964133 $413 $538 forward 7 unknown #
coedge $-1 $408 $288 $292 $423 forward $417 $-1 #
coedge $-1 $288 $408 $536 $539 reversed $417 $-1 #
loop $-1 $-1 $408 $400 #
vertex $-1 $539 $540 #
straight-curve $-1 -20.513013435533956 27.102206966964133 -7.1196003708863422 1 0 0 I I #
coedge $-1 $403 $290 $537 $541 forward $280 $-1 #
vertex $-1 $541 $542 #
straight-curve $-1 -20.513013435533956 -27.102206966964133 -7.1196003708863422 -1 0 0 I I #
edge $-1 $294 2.8098001854431711 $410 5.8098001854431711 $415 $543 forward 7 unknown #
point $-1 -36.213252509188045 -27.102206966964133 -7.1196003708863422 #
point $-1 -36.213252509188045 27.102206966964133 -7.1196003708863422 #
loop $-1 $-1 $304 $296 #
plane-surface $-1 0 27.102206966964133 0 0 -1 0 0 0 -1 forward_v I I I I #
coedge $-1 $429 $299 $301 $433 reversed $181 $-1 #
coedge $-1 $299 $428 $544 $545 reversed $181 $-1 #
coedge $-1 $307 $302 $299 $431 forward $297 $-1 #
edge $-1 $434 -8.6416086751469372 $546 -5.8845807593713033 $430 $547 forward 7 unknown #
coedge $-1 $301 $300 $437 $548 reversed $113 $-1 #
edge $-1 $549 -54.204413933928251 $434 -49.726258204548301 $428 $550 forward 7 unknown #
vertex $-1 $303 $551 #
straight-curve $-1 -13.114064160158058 24.345179051188502 11.247659891383361 1 0 0 I I #
coedge $-1 $544 $304 $307 $441 reversed $426 $-1 #
coedge $-1 $304 $544 $432 $548 forward $426 $-1 #
vertex $-1 $305 $552 #
straight-curve $-1 -36.213252509188052 27.102206966964133 53.437426761768052 0 0 1 I I #
straight-curve $-1 -36.213252509188052 -6.2693619120819619 50.432486503653095 0 0.61566146476048833 -0.78801076186113728 I I #
edge $-1 $546 16.243004131444184 $308 36.213252509188052 $436 $553 forward 7 unknown #
point $-1 -36.213252509188052 27.102206966964133 11.247659891383357 #
point $-1 -36.213252509188052 24.345179051188499 11.247659891383357 #
edge $-1 $554 1 $554 0 $311 $-1 forward 7 unknown #
vertex $-1 $312 $555 #
ellipse-curve $-1 -32.219202833639272 24.935682247215169 8.8675809726021075 0 0.78801076186113728 0.61566146476048833 0.5 0 0 1 I I #
point $-1 -31.719202833639272 25.723693009076307 9.4832424373625965 #
edge $-1 $556 1 $556 0 $315 $-1 forward 7 unknown #
vertex $-1 $316 $557 #
ellipse-curve $-1 -26.228128320316117 24.935682247215169 8.8675809726021075 0 0.78801076186113728 0.61566146476048833 0.5 0 0 1 I I #
point $-1 -25.728128320316117 25.723693009076307 9.4832424373625965 #
edge $-1 $558 1 $558 0 $319 $-1 forward 7 unknown #
vertex $-1 $320 $559 #
ellipse-curve $-1 -20.237053806992957 24.935682247215169 8.8675809726021075 0 0.78801076186113728 0.61566146476048833 0.5 0 0 1 I I #
point $-1 -19.737053806992957 25.723693009076307 9.4832424373625965 #
loop $-1 $-1 $330 $323 #
plane-surface $-1 0 27.102206966964133 0 0 -1 0 0 0 -1 forward_v I I I I #
coedge $-1 $560 $561 $327 $460 forward $324 $-1 #
coedge $-1 $327 $326 $465 $562 reversed $132 $-1 #
edge $-1 $462 27.925684879447708 $563 32.403840608827657 $458 $564 forward 7 unknown #
coedge $-1 $333 $328 $561 $565 forward $210 $-1 #
vertex $-1 $565 $566 #
straight-curve $-1 17.926838522037922 24.345179051188502 11.247659891383361 1 0 0 I I #
coedge $-1 $567 $330 $333 $469 reversed $456 $-1 #
coedge $-1 $330 $567 $459 $562 forward $456 $-1 #
vertex $-1 $331 $568 #
straight-curve $-1 25.868552855203912 27.102206966964133 53.437426761768052 0 0 1 I I #
straight-curve $-1 25.868552855203912 -6.2693619120819619 50.432486503653095 0 0.61566146476048833 -0.78801076186113728 I I #
edge $-1 $569 -45.83880123294778 $334 -25.868552855203912 $464 $570 forward 7 unknown #
point $-1 25.868552855203912 27.102206966964133 11.247659891383357 #
point $-1 25.868552855203912 24.345179051188499 11.247659891383357 #
edge $-1 $571 1 $571 0 $337 $-1 forward 7 unknown #
vertex $-1 $338 $572 #
ellipse-curve $-1 29.862602530752689 24.935682247215169 8.8675809726021075 0 0.78801076186113728 0.61566146476048833 0.5 0 0 1 I I #
point $-1 30.362602530752689 25.723693009076307 9.4832424373625965 #
edge $-1 $573 1 $573 0 $341 $-1 forward 7 unknown #
vertex $-1 $342 $574 #
ellipse-curve $-1 35.853677044075845 24.935682247215169 8.8675809726021075 0 0.78801076186113728 0.61566146476048833 0.5 0 0 1 I I #
point $-1 36.353677044075845 25.723693009076307 9.4832424373625965 #
edge $-1 $575 1 $575 0 $345 $-1 forward 7 unknown #
vertex $-1 $346 $576 #
ellipse-curve $-1 41.844751557399 24.935682247215169 8.8675809726021075 0 0.78801076186113728 0.61566146476048833 0.5 0 0 1 I I #
point $-1 42.344751557399 25.723693009076307 9.4832424373625965 #
plane-surface $-1 0 0 11.247659891383357 0 0 1 1 0 0 forward_v I I I I #
coedge $-1 $495 $494 $487 $577 forward $350 $-1 #
coedge $-1 $487 $352 $354 $491 reversed $239 $-1 #
coedge $-1 $352 $486 $485 $577 reversed $239 $-1 #
coedge $-1 $360 $355 $352 $489 forward $361 $-1 #
edge $-1 $492 -27.996418879930069 $578 -25.740418395925936 $488 $579 forward 7 unknown #
coedge $-1 $354 $353 $495 $580 reversed $151 $-1 #
edge $-1 $581 0 $492 4.3802597342229666 $486 $582 forward 7 unknown #
vertex $-1 $356 $583 #
straight-curve $-1 2.4481896741370512 -24.84620648296 11.247659891383357 -1 0 0 I I #
coedge $-1 $485 $357 $360 $499 reversed $350 $-1 #
coedge $-1 $357 $485 $490 $580 forward $350 $-1 #
vertex $-1 $358 $584 #
straight-curve $-1 9.2453861031388875 -27.102206966964133 27.355249567643451 0 0 1 I I #
straight-curve $-1 9.2453861031388875 -27.102206966964133 7.4930444443064985 0 -0.51503806187062418 -0.85716730853699208 I I #
edge $-1 $578 0.54737259340931743 $362 9.2453861031388875 $494 $585 forward 7 unknown #
point $-1 9.2453861031388875 -27.102206966964133 11.247659891383357 #
point $-1 9.2453861031388875 -24.84620648296 11.247659891383357 #
edge $-1 $586 1 $586 0 $365 $-1 forward 7 unknown #
vertex $-1 $366 $587 #
ellipse-curve $-1 3.0325193104749033 -25.067807296466988 8.8257324649195681 0 -0.85716730853699208 0.51503806187062418 0.5 0 0 1 I I #
point $-1 3.5325193104749033 -25.974206724962066 9.370352167844926 #
edge $-1 $588 1 $588 0 $369 $-1 forward 7 unknown #
vertex $-1 $370 $589 #
ellipse-curve $-1 6.7602393860732874 -25.067807296466988 8.8257324649195681 0 -0.85716730853699208 0.51503806187062418 0.5 0 0 1 I I #
point $-1 7.2602393860732874 -25.974206724962066 9.370352167844926 #
plane-surface $-1 45.83880123294778 0 0 -1 0 0 0 0 1 forward_v I I I I #
coedge $-1 $378 $376 $380 $515 reversed $261 $-1 #
edge $-1 $391 -11.247659891383357 $517 11.247659891383357 $390 $590 forward 7 unknown #
vertex $-1 $515 $591 #
straight-curve $-1 -45.83880123294778 -27.102206966964133 0 0 0 -1 I I #
edge $-1 $513 -27.102206966964133 $517 27.102206966964133 $511 $592 forward 7 unknown #
straight-curve $-1 0 -27.102206966964133 -11.247659891383357 -1 0 0 I I #
vertex $-1 $383 $593 #
straight-curve $-1 0 27.102206966964133 -11.247659891383357 1 0 0 I I #
point $-1 45.83880123294778 27.102206966964133 -11.247659891383357 #
point $-1 45.83880123294778 -27.102206966964133 -11.247659891383357 #
straight-curve $-1 -45.83880123294778 0 11.247659891383357 0 -1 0 I I #
point $-1 -45.83880123294778 27.102206966964133 11.247659891383357 #
point $-1 -45.83880123294778 -27.102206966964133 11.247659891383357 #
straight-curve $-1 45.83880123294778 -27.102206966964133 0 0 0 -1 I I #
straight-curve $-1 45.83880123294778 27.102206966964133 0 0 0 -1 I I #
plane-surface $-1 0 27.102206966964133 0 0 -1 0 0 0 -1 forward_v I I I I #
coedge $-1 $537 $536 $406 $529 forward $401 $-1 #
straight-curve $-1 -36.213252509188045 -27.102206966964133 -4.3098001854431711 0 0 1 I I #
edge $-1 $532 -27.102206966964133 $530 27.102206966964133 $527 $594 forward 7 unknown #
vertex $-1 $407 $595 #
straight-curve $-1 -20.513013435533956 -27.102206966964133 -10.119600370886342 1 0 0 I I #
vertex $-1 $409 $596 #
straight-curve $-1 -20.513013435533956 27.102206966964133 -10.119600370886342 -1 0 0 I I #
point $-1 -36.213252509188045 27.102206966964133 -10.119600370886342 #
point $-1 -36.213252509188045 -27.102206966964133 -10.119600370886342 #
coedge $-1 $527 $413 $416 $539 forward $401 $-1 #
coedge $-1 $413 $527 $420 $541 reversed $401 $-1 #
straight-curve $-1 -45.83880123294778 0 -7.1196003708863422 0 1 0 I I #
edge $-1 $418 7.1196003708863422 $532 10.119600370886342 $416 $597 forward 7 unknown #
point $-1 -45.83880123294778 27.102206966964133 -7.1196003708863422 #
edge $-1 $421 7.1196003708863422 $530 10.119600370886342 $537 $598 forward 7 unknown #
point $-1 -45.83880123294778 -27.102206966964133 -7.1196003708863422 #
straight-curve $-1 -36.213252509188045 27.102206966964133 -4.3098001854431711 0 0 -1 I I #
coedge $-1 $437 $436 $429 $545 forward $426 $-1 #
edge $-1 $546 42.189766870384695 $549 45.718601778426205 $544 $599 forward 7 unknown #
vertex $-1 $441 $600 #
straight-curve $-1 -16.243004131444184 32.986787726335436 11.247659891383357 0 1 0 I I #
edge $-1 $549 3.1289399712861261 $438 23.099188349029994 $437 $601 forward 7 unknown #
vertex $-1 $548 $602 #
straight-curve $-1 -16.243004131444184 -6.2693619120819619 50.432486503653095 0 -0.61566146476048833 0.78801076186113728 I I #
point $-1 -16.243004131444184 24.345179051188499 11.247659891383357 #
point $-1 -36.213252509188052 27.102206966964133 7.7188249833418467 #
straight-curve $-1 0 27.102206966964133 11.247659891383357 -1 0 0 I I #
vertex $-1 $444 $603 #
point $-1 -31.719202833639272 24.935682247215169 8.8675809726021075 #
vertex $-1 $448 $604 #
point $-1 -25.728128320316117 24.935682247215169 8.8675809726021075 #
vertex $-1 $452 $605 #
point $-1 -19.737053806992957 24.935682247215169 8.8675809726021075 #
coedge $-1 $561 $458 $567 $606 reversed $324 $-1 #
coedge $-1 $458 $560 $461 $565 reversed $324 $-1 #
edge $-1 $563 -27.911962710909851 $466 -7.9417143331659901 $465 $607 forward 7 unknown #
vertex $-1 $460 $608 #
straight-curve $-1 45.83880123294778 7.1524109938679015 33.253400108730986 0 0.61566146476048833 -0.78801076186113728 I I #
edge $-1 $462 24.345179051188499 $569 27.102206966964133 $561 $609 forward 7 unknown #
point $-1 45.838801232947773 24.345179051188499 11.247659891383357 #
coedge $-1 $465 $464 $560 $606 forward $456 $-1 #
point $-1 25.868552855203912 27.102206966964133 7.7188249833418467 #
vertex $-1 $565 $610 #
straight-curve $-1 0 27.102206966964133 11.247659891383357 -1 0 0 I I #
vertex $-1 $472 $611 #
point $-1 30.362602530752689 24.935682247215169 8.8675809726021075 #
vertex $-1 $476 $612 #
point $-1 36.353677044075845 24.935682247215169 8.8675809726021075 #
vertex $-1 $480 $613 #
point $-1 42.344751557399 24.935682247215169 8.8675809726021075 #
edge $-1 $578 16.107589676260094 $581 19.862205123336953 $485 $614 forward 7 unknown #
vertex $-1 $499 $615 #
straight-curve $-1 0.54737259340931743 -52.842625362890068 11.247659891383357 0 -1 0 I I #
edge $-1 $581 -1.9008170807277338 $496 6.7971964290018363 $495 $616 forward 7 unknown #
vertex $-1 $580 $617 #
straight-curve $-1 0.54737259340931743 -27.102206966964133 7.4930444443064985 0 0.51503806187062418 0.85716730853699208 I I #
point $-1 0.54737259340931743 -24.84620648296 11.247659891383357 #
point $-1 9.2453861031388875 -27.102206966964133 7.4930444443064985 #
straight-curve $-1 0 -27.102206966964133 11.247659891383357 1 0 0 I I #
vertex $-1 $502 $618 #
point $-1 3.5325193104749033 -25.067807296466988 8.8257324649195681 #
vertex $-1 $506 $619 #
point $-1 7.2602393860732874 -25.067807296466988 8.8257324649195681 #
straight-curve $-1 -45.83880123294778 27.102206966964133 0 0 0 -1 I I #
point $-1 -45.83880123294778 -27.102206966964133 -11.247659891383357 #
straight-curve $-1 -45.83880123294778 0 -11.247659891383357 0 1 0 I I #
point $-1 -45.83880123294778 27.102206966964133 -11.247659891383357 #
straight-curve $-1 -45.83880123294778 0 -10.119600370886342 0 -1 0 I I #
point $-1 -45.83880123294778 -27.102206966964133 -10.119600370886342 #
point $-1 -45.83880123294778 27.102206966964133 -10.119600370886342 #
straight-curve $-1 -45.83880123294778 27.102206966964133 0 0 0 -1 I I #
straight-curve $-1 -45.83880123294778 -27.102206966964133 0 0 0 -1 I I #
straight-curve $-1 -16.243004131444184 27.102206966964133 53.437426761768052 0 0 -1 I I #
point $-1 -16.243004131444184 27.102206966964133 11.247659891383357 #
straight-curve $-1 -13.114064160158058 27.102206966964133 7.7188249833418396 -1 0 0 I I #
point $-1 -16.243004131444184 27.102206966964133 7.7188249833418467 #
point $-1 -32.219202833639272 24.541676866284604 8.5597502402218648 #
point $-1 -26.228128320316117 24.541676866284604 8.5597502402218648 #
point $-1 -20.237053806992957 24.541676866284604 8.5597502402218648 #
edge $-1 $569 -11.247659891383357 $563 -7.7188249833418467 $560 $620 forward 7 unknown #
straight-curve $-1 17.926838522037922 27.102206966964133 7.7188249833418396 -1 0 0 I I #
point $-1 45.838801232947773 27.102206966964133 7.7188249833418467 #
straight-curve $-1 45.83880123294778 0 11.247659891383357 0 1 0 I I #
point $-1 45.83880123294778 27.102206966964133 11.247659891383357 #
point $-1 29.862602530752689 24.541676866284604 8.5597502402218648 #
point $-1 35.853677044075845 24.541676866284604 8.5597502402218648 #
point $-1 41.844751557399 24.541676866284604 8.5597502402218648 #
straight-curve $-1 0.54737259340931743 -27.102206966964133 27.355249567643451 0 0 -1 I I #
point $-1 0.54737259340931743 -27.102206966964133 11.247659891383357 #
straight-curve $-1 2.4481896741370512 -27.102206966964133 7.4930444443064959 1 0 0 I I #
point $-1 0.54737259340931743 -27.102206966964133 7.4930444443064985 #
point $-1 3.0325193104749033 -24.639223642198495 8.5682134339842548 #
point $-1 6.7602393860732874 -24.639223642198495 8.5682134339842548 #
straight-curve $-1 45.83880123294778 27.102206966964133 0 0 0 -1 I I #
End-of-ACIS-data 