500 0 10 0           
7 Unknown 11 ACIS 5.0 NT 24 Fri Mar 26 18:08:51 1999 
-1 9.9999999999999995e-007 1e-010 
body $-1 $10 $-1 $11 #
body $-1 $12 $-1 $13 #
body $-1 $14 $-1 $15 #
body $-1 $16 $-1 $17 #
body $-1 $18 $-1 $19 #
body $-1 $20 $-1 $21 #
body $-1 $22 $-1 $23 #
body $-1 $24 $-1 $25 #
body $-1 $26 $-1 $27 #
body $-1 $28 $-1 $29 #
lump $-1 $-1 $30 $0 #
transform $-1 1 0 0 0 1 0 0 0 1 71.165501876888328 34.715308040112639 15.066996727245641 1 rotate no_reflect no_shear #
lump $-1 $-1 $31 $1 #
transform $-1 1 0 0 0 1 0 0 0 1 71.165501876888328 34.715308040112639 15.066996727245641 1 rotate no_reflect no_shear #
lump $-1 $-1 $32 $2 #
transform $-1 1 0 0 0 1 0 0 0 1 71.165501876888328 34.715308040112639 15.066996727245641 1 rotate no_reflect no_shear #
lump $-1 $-1 $33 $3 #
transform $-1 1 0 0 0 1 0 0 0 1 71.165501876888328 34.715308040112639 15.066996727245641 1 rotate no_reflect no_shear #
lump $-1 $-1 $34 $4 #
transform $-1 1 0 0 0 1 0 0 0 1 71.165501876888328 34.715308040112639 15.066996727245641 1 rotate no_reflect no_shear #
lump $-1 $-1 $35 $5 #
transform $-1 1 0 0 0 1 0 0 0 1 71.165501876888328 34.715308040112639 15.066996727245641 1 rotate no_reflect no_shear #
lump $-1 $-1 $36 $6 #
transform $-1 1 0 0 0 1 0 0 0 1 71.165501876888328 34.715308040112639 15.066996727245641 1 rotate no_reflect no_shear #
lump $-1 $-1 $37 $7 #
transform $-1 1 0 0 0 1 0 0 0 1 71.165501876888328 34.715308040112639 15.066996727245641 1 rotate no_reflect no_shear #
lump $-1 $-1 $38 $8 #
transform $-1 1 0 0 0 1 0 0 0 1 71.165501876888328 34.715308040112639 15.066996727245641 1 rotate no_reflect no_shear #
lump $-1 $-1 $39 $9 #
transform $-1 1 0 0 0 1 0 0 0 1 71.165501876888328 34.715308040112639 15.066996727245641 1 rotate no_reflect no_shear #
shell $-1 $-1 $-1 $40 $-1 $10 #
shell $-1 $-1 $-1 $41 $-1 $12 #
shell $-1 $-1 $-1 $42 $-1 $14 #
shell $-1 $-1 $-1 $43 $-1 $16 #
shell $-1 $-1 $-1 $44 $-1 $18 #
shell $-1 $-1 $-1 $45 $-1 $20 #
shell $-1 $-1 $-1 $46 $-1 $22 #
shell $-1 $-1 $-1 $47 $-1 $24 #
shell $-1 $-1 $-1 $48 $-1 $26 #
shell $-1 $-1 $-1 $49 $-1 $28 #
face $-1 $50 $51 $30 $-1 $52 forward single #
face $-1 $53 $54 $31 $-1 $55 forward single #
face $-1 $56 $57 $32 $-1 $58 reversed single #
face $-1 $59 $60 $33 $-1 $61 forward single #
face $-1 $62 $63 $34 $-1 $64 forward single #
face $-1 $65 $66 $35 $-1 $67 forward single #
face $-1 $68 $69 $36 $-1 $70 reversed single #
face $-1 $71 $72 $37 $-1 $73 forward single #
face $-1 $74 $75 $38 $-1 $76 forward single #
face $-1 $77 $78 $39 $-1 $79 forward single #
face $-1 $80 $81 $30 $-1 $82 reversed single #
loop $-1 $-1 $83 $40 #
plane-surface $-1 0 0 15.066996727245641 0 0 1 1 0 0 forward_v I I I I #
face $-1 $84 $85 $31 $-1 $86 reversed single #
loop $-1 $-1 $87 $41 #
plane-surface $-1 -71.165501876888328 0 0 1 0 0 0 0 -1 forward_v I I I I #
face $-1 $88 $89 $32 $-1 $90 reversed single #
loop $-1 $-1 $91 $42 #
plane-surface $-1 9.2933611643210661 -138.809615666919 106.98067303420846 -1 0 0 0 -0.73135370988377701 0.68199835119979291 forward_v I I I I #
face $-1 $92 $93 $33 $-1 $94 forward single #
loop $-1 $95 $96 $43 #
cone-surface $-1 -5.3114765300141897 -30.709440053065531 10.995263776893268 0 0.73135370988377701 -0.68199835119979291 1.5 0 0 1 I I 0 1 1.5 forward I I I I #
face $-1 $97 $98 $34 $-1 $99 forward single #
loop $-1 $100 $101 $44 #
cone-surface $-1 0.16533760536152897 -30.709440053065531 10.995263776893268 0 0.73135370988377701 -0.68199835119979291 1.5 0 0 1 I I 0 1 1.5 forward I I I I #
face $-1 $102 $103 $35 $-1 $104 forward single #
loop $-1 $105 $106 $45 #
cone-surface $-1 5.6421517407372477 -30.709440053065531 10.995263776893268 0 0.73135370988377701 -0.68199835119979291 1.5 0 0 1 I I 0 1 1.5 forward I I I I #
face $-1 $107 $108 $36 $-1 $109 reversed single #
loop $-1 $-1 $110 $46 #
plane-surface $-1 45.146149430070203 64.922490356338727 158.01738138815384 1 0 0 0 -0.6018150307709319 -0.79863550430605224 forward_v I I I I #
face $-1 $111 $112 $37 $-1 $113 forward single #
loop $-1 $114 $115 $47 #
cone-surface $-1 50.350019919433819 24.775482615031272 6.6347015717344382 0 -0.6018150307709319 -0.79863550430605224 2.5 0 0 1 I I 0 1 2.5 forward I I I I #
face $-1 $116 $117 $38 $-1 $118 forward single #
loop $-1 $119 $120 $48 #
cone-surface $-1 58.155825653479269 24.775482615031272 6.6347015717344382 0 -0.6018150307709319 -0.79863550430605224 2.5 0 0 1 I I 0 1 2.5 forward I I I I #
face $-1 $121 $122 $39 $-1 $123 forward single #
loop $-1 $124 $125 $49 #
cone-surface $-1 65.961631387524704 24.775482615031272 6.6347015717344382 0 -0.6018150307709319 -0.79863550430605224 2.5 0 0 1 I I 0 1 2.5 forward I I I I #
face $-1 $126 $127 $30 $-1 $128 reversed single #
loop $-1 $-1 $129 $50 #
plane-surface $-1 0 0 -15.066996727245641 0 0 1 1 0 0 forward_v I I I I #
coedge $-1 $130 $131 $132 $133 forward $51 $-1 #
face $-1 $134 $135 $31 $-1 $136 reversed single #
loop $-1 $-1 $137 $53 #
plane-surface $-1 0 0 -15.066996727245641 0 0 1 1 0 0 forward_v I I I I #
coedge $-1 $138 $139 $140 $141 forward $54 $-1 #
face $-1 $142 $143 $32 $-1 $144 reversed single #
loop $-1 $-1 $145 $56 #
plane-surface $-1 0.16533760536152897 -34.715308040112646 9.9111631495212436 0 -0.73135370988377701 0.68199835119979291 1 0 0 forward_v I I I I #
coedge $-1 $146 $147 $148 $149 reversed $57 $-1 #
face $-1 $-1 $150 $33 $-1 $151 forward single #
loop $-1 $152 $153 $59 #
cone-surface $-1 -5.3114765300141897 -28.559003021621784 8.9899488520032627 0 0.73135370988377701 -0.68199835119979291 0.75 0 0 1 I I -0.70710678118654757 0.70710678118654757 0.75 forward I I I I #
loop $-1 $-1 $154 $43 #
coedge $-1 $96 $96 $155 $156 reversed $60 $-1 #
face $-1 $-1 $157 $34 $-1 $158 forward single #
loop $-1 $159 $160 $62 #
cone-surface $-1 0.16533760536152897 -28.559003021621784 8.9899488520032627 0 0.73135370988377701 -0.68199835119979291 0.75 0 0 1 I I -0.70710678118654757 0.70710678118654757 0.75 forward I I I I #
loop $-1 $-1 $161 $44 #
coedge $-1 $101 $101 $162 $163 reversed $63 $-1 #
face $-1 $-1 $164 $35 $-1 $165 forward single #
loop $-1 $166 $167 $65 #
cone-surface $-1 5.6421517407372477 -28.559003021621784 8.9899488520032627 0 0.73135370988377701 -0.68199835119979291 0.75 0 0 1 I I -0.70710678118654757 0.70710678118654757 0.75 forward I I I I #
loop $-1 $-1 $168 $45 #
coedge $-1 $106 $106 $169 $170 reversed $66 $-1 #
face $-1 $171 $172 $36 $-1 $173 reversed single #
loop $-1 $-1 $174 $68 #
plane-surface $-1 58.155825653479269 -20.734447047397992 44.346788426869807 0 0.6018150307709319 0.79863550430605224 1 0 0 forward_v I I I I #
coedge $-1 $175 $176 $177 $178 reversed $69 $-1 #
face $-1 $-1 $179 $37 $-1 $180 forward single #
loop $-1 $181 $182 $71 #
cone-surface $-1 50.350019919433819 22.380468354301939 3.4564103624113507 0 -0.6018150307709319 -0.79863550430605224 1.25 0 0 1 I I -0.70710678118654746 0.70710678118654746 1.25 forward I I I I #
loop $-1 $-1 $183 $47 #
coedge $-1 $115 $115 $184 $185 reversed $72 $-1 #
face $-1 $-1 $186 $38 $-1 $187 forward single #
loop $-1 $188 $189 $74 #
cone-surface $-1 58.155825653479269 22.380468354301939 3.4564103624113507 0 -0.6018150307709319 -0.79863550430605224 1.25 0 0 1 I I -0.70710678118654746 0.70710678118654746 1.25 forward I I I I #
loop $-1 $-1 $190 $48 #
coedge $-1 $120 $120 $191 $192 reversed $75 $-1 #
face $-1 $-1 $193 $39 $-1 $194 forward single #
loop $-1 $195 $196 $77 #
cone-surface $-1 65.961631387524704 22.380468354301939 3.4564103624113507 0 -0.6018150307709319 -0.79863550430605224 1.25 0 0 1 I I -0.70710678118654746 0.70710678118654746 1.25 forward I I I I #
loop $-1 $-1 $197 $49 #
coedge $-1 $125 $125 $198 $199 reversed $78 $-1 #
face $-1 $200 $201 $30 $-1 $202 reversed single #
loop $-1 $-1 $203 $80 #
plane-surface $-1 0 -34.715308040112639 0 0 1 0 0 0 1 forward_v I I I I #
coedge $-1 $204 $205 $206 $207 forward $81 $-1 #
coedge $-1 $208 $83 $209 $210 forward $51 $-1 #
coedge $-1 $83 $208 $211 $212 forward $51 $-1 #
coedge $-1 $213 $214 $83 $133 reversed $215 $-1 #
edge $-1 $216 -34.715308040112639 $217 34.715308040112639 $132 $218 forward 7 unknown #
face $-1 $219 $220 $31 $-1 $221 reversed single #
loop $-1 $-1 $222 $84 #
plane-surface $-1 -79.657251484131592 -7.9638592593774025 0 0 1 0 0 0 1 forward_v I I I I #
coedge $-1 $223 $224 $139 $225 forward $85 $-1 #
coedge $-1 $226 $87 $227 $228 reversed $54 $-1 #
coedge $-1 $87 $226 $137 $225 reversed $54 $-1 #
coedge $-1 $229 $230 $87 $141 reversed $231 $-1 #
edge $-1 $232 -15.066996727245641 $233 15.066996727245641 $140 $234 forward 7 unknown #
face $-1 $235 $236 $32 $-1 $237 forward single #
loop $-1 $-1 $238 $88 #
plane-surface $-1 -8.9626859535980081 -138.809615666919 106.98067303420846 1 0 0 0 0.73135370988377701 -0.68199835119979291 forward_v I I I I #
coedge $-1 $239 $240 $241 $242 reversed $89 $-1 #
coedge $-1 $147 $91 $243 $244 reversed $57 $-1 #
coedge $-1 $91 $146 $239 $245 reversed $57 $-1 #
coedge $-1 $241 $246 $91 $149 forward $236 $-1 #
edge $-1 $247 34.689499793346862 $248 39.497392269379219 $148 $249 forward 7 unknown #
loop $-1 $-1 $155 $92 #
plane-surface $-1 0.16533760536152897 -34.715308040112646 9.9111631495212436 0 -0.73135370988377701 0.68199835119979291 1 0 0 forward_v I I I I #
loop $-1 $-1 $250 $59 #
coedge $-1 $153 $153 $154 $251 reversed $93 $-1 #
coedge $-1 $154 $154 $153 $251 forward $95 $-1 #
coedge $-1 $155 $155 $96 $156 forward $150 $-1 #
edge $-1 $252 -4.6758788778318801e-016 $252 6.2831853071795996 $155 $253 forward 7 unknown #
loop $-1 $-1 $162 $97 #
plane-surface $-1 0.16533760536152897 -34.715308040112646 9.9111631495212436 0 -0.73135370988377701 0.68199835119979291 1 0 0 forward_v I I I I #
loop $-1 $-1 $254 $62 #
coedge $-1 $160 $160 $161 $255 reversed $98 $-1 #
coedge $-1 $161 $161 $160 $255 forward $100 $-1 #
coedge $-1 $162 $162 $101 $163 forward $157 $-1 #
edge $-1 $256 -4.6758788778318801e-016 $256 6.2831853071795996 $162 $257 forward 7 unknown #
loop $-1 $-1 $169 $102 #
plane-surface $-1 0.16533760536152897 -34.715308040112646 9.9111631495212436 0 -0.73135370988377701 0.68199835119979291 1 0 0 forward_v I I I I #
loop $-1 $-1 $258 $65 #
coedge $-1 $167 $167 $168 $259 reversed $103 $-1 #
coedge $-1 $168 $168 $167 $259 forward $105 $-1 #
coedge $-1 $169 $169 $106 $170 forward $164 $-1 #
edge $-1 $260 -4.6758788778318801e-016 $260 6.2831853071795996 $169 $261 forward 7 unknown #
face $-1 $262 $263 $36 $-1 $264 forward single #
loop $-1 $-1 $265 $107 #
plane-surface $-1 0 34.715308040112639 0 0 -1 0 0 0 -1 forward_v I I I I #
coedge $-1 $266 $267 $268 $269 reversed $108 $-1 #
coedge $-1 $176 $110 $270 $271 reversed $69 $-1 #
coedge $-1 $110 $175 $266 $272 reversed $69 $-1 #
coedge $-1 $268 $273 $110 $178 forward $263 $-1 #
edge $-1 $274 -2.2540628619432752 $275 14.340097043688147 $177 $276 forward 7 unknown #
loop $-1 $-1 $184 $111 #
plane-surface $-1 58.155825653479269 -20.734447047397992 44.346788426869807 0 0.6018150307709319 0.79863550430605224 1 0 0 forward_v I I I I #
loop $-1 $-1 $277 $71 #
coedge $-1 $182 $182 $183 $278 reversed $112 $-1 #
coedge $-1 $183 $183 $182 $278 forward $114 $-1 #
coedge $-1 $184 $184 $115 $185 forward $179 $-1 #
edge $-1 $279 -2.9583316589408251e-016 $279 6.2831853071796004 $184 $280 forward 7 unknown #
loop $-1 $-1 $191 $116 #
plane-surface $-1 58.155825653479269 -20.734447047397992 44.346788426869807 0 0.6018150307709319 0.79863550430605224 1 0 0 forward_v I I I I #
loop $-1 $-1 $281 $74 #
coedge $-1 $189 $189 $190 $282 reversed $117 $-1 #
coedge $-1 $190 $190 $189 $282 forward $119 $-1 #
coedge $-1 $191 $191 $120 $192 forward $186 $-1 #
edge $-1 $283 -2.9583316589408251e-016 $283 6.2831853071796004 $191 $284 forward 7 unknown #
loop $-1 $-1 $198 $121 #
plane-surface $-1 58.155825653479269 -20.734447047397992 44.346788426869807 0 0.6018150307709319 0.79863550430605224 1 0 0 forward_v I I I I #
loop $-1 $-1 $285 $77 #
coedge $-1 $196 $196 $197 $286 reversed $122 $-1 #
coedge $-1 $197 $197 $196 $286 forward $124 $-1 #
coedge $-1 $198 $198 $125 $199 forward $193 $-1 #
edge $-1 $287 -2.9583316589408251e-016 $287 6.2831853071796004 $198 $288 forward 7 unknown #
face $-1 $289 $290 $30 $-1 $291 reversed single #
loop $-1 $-1 $292 $126 #
plane-surface $-1 -71.165501876888328 0 0 1 0 0 0 0 -1 forward_v I I I I #
coedge $-1 $293 $211 $294 $295 forward $127 $-1 #
coedge $-1 $296 $129 $293 $297 forward $81 $-1 #
coedge $-1 $129 $296 $298 $299 forward $81 $-1 #
coedge $-1 $214 $213 $129 $207 reversed $215 $-1 #
edge $-1 $300 -34.715308040112639 $301 34.715308040112639 $206 $302 forward 7 unknown #
coedge $-1 $131 $130 $303 $304 forward $51 $-1 #
coedge $-1 $305 $306 $130 $210 reversed $290 $-1 #
edge $-1 $217 -71.165501876888328 $307 71.165501876888328 $209 $308 forward 7 unknown #
coedge $-1 $203 $309 $131 $212 reversed $127 $-1 #
edge $-1 $310 -71.165501876888328 $216 71.165501876888328 $211 $311 forward 7 unknown #
coedge $-1 $206 $132 $309 $312 forward $215 $-1 #
coedge $-1 $132 $206 $305 $313 reversed $215 $-1 #
loop $-1 $-1 $213 $289 #
vertex $-1 $133 $314 #
vertex $-1 $133 $315 #
straight-curve $-1 71.165501876888328 0 15.066996727245641 0 1 0 I I #
face $-1 $316 $231 $31 $-1 $317 reversed single #
loop $-1 $-1 $318 $134 #
plane-surface $-1 -88.149001091374856 -6.2725869224993787 0 1 0 0 0 0 -1 forward_v I I I I #
coedge $-1 $319 $320 $321 $322 forward $135 $-1 #
coedge $-1 $323 $137 $319 $324 forward $85 $-1 #
coedge $-1 $137 $323 $229 $325 forward $85 $-1 #
edge $-1 $232 4.5813145856213549 $326 7.9638592593774025 $137 $327 forward 7 unknown #
coedge $-1 $139 $138 $328 $329 forward $54 $-1 #
coedge $-1 $330 $331 $138 $228 forward $332 $-1 #
edge $-1 $333 -7.9638592593774025 $233 -4.5813145856213549 $227 $334 forward 7 unknown #
coedge $-1 $335 $140 $224 $325 reversed $231 $-1 #
coedge $-1 $140 $335 $330 $336 reversed $231 $-1 #
loop $-1 $-1 $140 $219 #
vertex $-1 $225 $337 #
vertex $-1 $336 $338 #
straight-curve $-1 -71.165501876888328 -4.5813145856213549 0 0 0 1 I I #
face $-1 $-1 $339 $32 $-1 $340 reversed single #
loop $-1 $-1 $148 $142 #
plane-surface $-1 0 0 15.066996727245641 0 0 1 1 0 0 forward_v I I I I #
coedge $-1 $341 $342 $343 $344 reversed $143 $-1 #
coedge $-1 $345 $145 $147 $245 forward $89 $-1 #
coedge $-1 $145 $345 $341 $346 forward $89 $-1 #
coedge $-1 $343 $148 $145 $242 forward $236 $-1 #
edge $-1 $248 -9.2106923616403016 $347 9.0453547562787726 $241 $348 forward 7 unknown #
coedge $-1 $349 $350 $146 $244 forward $339 $-1 #
edge $-1 $351 -43.579173367582982 $247 -38.423339789858588 $243 $352 forward 7 unknown #
edge $-1 $248 -7.0497127560120472 $351 -1.004247040074496e-014 $147 $353 forward 7 unknown #
coedge $-1 $148 $343 $349 $354 forward $236 $-1 #
vertex $-1 $149 $355 #
vertex $-1 $149 $356 #
straight-curve $-1 9.2933611643210661 -69.4048078334595 15.066996727245638 0 1 0 I I #
coedge $-1 $250 $250 $-1 $357 reversed $152 $-1 #
edge $-1 $358 0 $358 6.2831853071796004 $153 $359 forward 7 unknown #
vertex $-1 $156 $360 #
ellipse-curve $-1 -5.3114765300141897 -32.311361802096464 12.489079938383444 0 -0.73135370988377701 0.68199835119979291 1.5 0 0 1 I I #
coedge $-1 $254 $254 $-1 $361 reversed $159 $-1 #
edge $-1 $362 0 $362 6.2831853071796004 $160 $363 forward 7 unknown #
vertex $-1 $163 $364 #
ellipse-curve $-1 0.16533760536152897 -32.311361802096464 12.489079938383444 0 -0.73135370988377701 0.68199835119979291 1.5 0 0 1 I I #
coedge $-1 $258 $258 $-1 $365 reversed $166 $-1 #
edge $-1 $366 0 $366 6.2831853071796004 $167 $367 forward 7 unknown #
vertex $-1 $170 $368 #
ellipse-curve $-1 5.6421517407372477 -32.311361802096464 12.489079938383444 0 -0.73135370988377701 0.68199835119979291 1.5 0 0 1 I I #
face $-1 $-1 $369 $36 $-1 $370 reversed single #
loop $-1 $-1 $268 $171 #
plane-surface $-1 0 0 15.066996727245641 0 0 1 1 0 0 forward_v I I I I #
coedge $-1 $270 $371 $372 $373 forward $172 $-1 #
coedge $-1 $372 $174 $176 $272 forward $108 $-1 #
coedge $-1 $174 $372 $374 $375 reversed $108 $-1 #
coedge $-1 $376 $177 $174 $269 forward $263 $-1 #
edge $-1 $275 16.068236603330568 $377 42.087589050148694 $268 $378 forward 7 unknown #
coedge $-1 $379 $265 $175 $271 forward $172 $-1 #
edge $-1 $380 -76.446290619972672 $274 -63.941693966831281 $270 $381 forward 7 unknown #
edge $-1 $275 48.652476595867711 $380 69.43061608022532 $176 $382 forward 7 unknown #
coedge $-1 $177 $376 $379 $383 forward $263 $-1 #
vertex $-1 $271 $384 #
vertex $-1 $178 $385 #
straight-curve $-1 45.146149430070203 32.461245178169364 15.066996727245638 0 -1 0 I I #
coedge $-1 $277 $277 $-1 $386 reversed $181 $-1 #
edge $-1 $387 0 $387 6.2831853071796004 $182 $388 forward 7 unknown #
vertex $-1 $185 $389 #
ellipse-curve $-1 50.350019919433819 26.418228087296932 8.8146984006749491 0 0.6018150307709319 0.79863550430605224 2.5 0 0 1 I I #
coedge $-1 $281 $281 $-1 $390 reversed $188 $-1 #
edge $-1 $391 0 $391 6.2831853071796004 $189 $392 forward 7 unknown #
vertex $-1 $192 $393 #
ellipse-curve $-1 58.155825653479269 26.418228087296932 8.8146984006749491 0 0.6018150307709319 0.79863550430605224 2.5 0 0 1 I I #
coedge $-1 $285 $285 $-1 $394 reversed $195 $-1 #
edge $-1 $395 0 $395 6.2831853071796004 $196 $396 forward 7 unknown #
vertex $-1 $199 $397 #
ellipse-curve $-1 65.961631387524704 26.418228087296932 8.8146984006749491 0 0.6018150307709319 0.79863550430605224 2.5 0 0 1 I I #
face $-1 $-1 $215 $30 $-1 $398 reversed single #
loop $-1 $-1 $305 $200 #
plane-surface $-1 0 34.715308040112639 0 0 -1 0 0 0 -1 forward_v I I I I #
coedge $-1 $399 $303 $306 $400 forward $201 $-1 #
coedge $-1 $309 $203 $204 $297 reversed $127 $-1 #
coedge $-1 $303 $399 $203 $295 reversed $201 $-1 #
edge $-1 $310 -15.066996727245641 $401 15.066996727245641 $294 $402 forward 7 unknown #
coedge $-1 $205 $204 $399 $403 forward $81 $-1 #
edge $-1 $301 -71.165501876888328 $401 71.165501876888328 $293 $404 forward 7 unknown #
coedge $-1 $306 $305 $205 $299 reversed $290 $-1 #
edge $-1 $405 -71.165501876888328 $300 71.165501876888328 $298 $406 forward 7 unknown #
vertex $-1 $207 $407 #
vertex $-1 $312 $408 #
straight-curve $-1 71.165501876888328 0 -15.066996727245641 0 -1 0 I I #
coedge $-1 $292 $294 $208 $304 reversed $201 $-1 #
edge $-1 $307 -34.715308040112639 $310 34.715308040112639 $303 $409 forward 7 unknown #
coedge $-1 $298 $209 $214 $313 forward $290 $-1 #
coedge $-1 $209 $298 $292 $400 reversed $290 $-1 #
vertex $-1 $210 $410 #
straight-curve $-1 0 34.715308040112639 15.066996727245641 -1 0 0 I I #
coedge $-1 $211 $293 $213 $312 reversed $127 $-1 #
vertex $-1 $304 $411 #
straight-curve $-1 0 -34.715308040112639 15.066996727245641 1 0 0 I I #
edge $-1 $216 -15.066996727245641 $301 15.066996727245641 $213 $412 forward 7 unknown #
edge $-1 $217 -15.066996727245641 $300 15.066996727245641 $214 $413 forward 7 unknown #
point $-1 71.165501876888328 -34.715308040112639 15.066996727245641 #
point $-1 71.165501876888328 34.715308040112639 15.066996727245641 #
face $-1 $-1 $332 $31 $-1 $414 forward single #
plane-surface $-1 -79.657251484131592 -4.5813145856213549 0 0 -1 0 0 0 -1 forward_v I I I I #
coedge $-1 $415 $416 $335 $417 forward $220 $-1 #
coedge $-1 $328 $222 $223 $324 reversed $135 $-1 #
coedge $-1 $222 $328 $331 $418 reversed $135 $-1 #
coedge $-1 $416 $415 $222 $322 reversed $220 $-1 #
edge $-1 $419 -15.066996727245641 $420 15.066996727245641 $321 $421 forward 7 unknown #
coedge $-1 $224 $223 $415 $422 forward $85 $-1 #
edge $-1 $326 -8.4917496072432641 $420 8.4917496072432641 $319 $423 forward 7 unknown #
edge $-1 $424 -8.4917496072432641 $232 8.4917496072432641 $229 $425 forward 7 unknown #
vertex $-1 $324 $426 #
straight-curve $-1 -71.165501876888328 0 -15.066996727245641 0 -1 0 I I #
coedge $-1 $320 $319 $226 $329 reversed $135 $-1 #
edge $-1 $333 -15.066996727245641 $326 15.066996727245641 $328 $427 forward 7 unknown #
coedge $-1 $428 $227 $230 $336 forward $332 $-1 #
coedge $-1 $227 $428 $320 $418 forward $332 $-1 #
loop $-1 $-1 $227 $316 #
vertex $-1 $228 $429 #
straight-curve $-1 -71.165501876888328 0 15.066996727245641 0 1 0 I I #
coedge $-1 $230 $229 $318 $417 reversed $231 $-1 #
edge $-1 $233 -8.4917496072432641 $430 8.4917496072432641 $230 $431 forward 7 unknown #
point $-1 -71.165501876888328 -4.5813145856213549 -15.066996727245641 #
point $-1 -71.165501876888328 -4.5813145856213549 15.066996727245641 #
loop $-1 $-1 $243 $235 #
plane-surface $-1 0 -34.715308040112639 0 0 1 0 0 0 1 forward_v I I I I #
coedge $-1 $342 $238 $240 $346 reversed $143 $-1 #
coedge $-1 $238 $341 $432 $433 reversed $143 $-1 #
coedge $-1 $246 $241 $238 $344 forward $236 $-1 #
edge $-1 $347 -39.497392269379219 $434 -34.689499793346862 $343 $435 forward 7 unknown #
coedge $-1 $240 $239 $350 $436 reversed $89 $-1 #
edge $-1 $437 1.004247040074496e-014 $347 7.0497127560120472 $341 $438 forward 7 unknown #
vertex $-1 $242 $439 #
straight-curve $-1 0.082668802680764486 -29.907415564080281 15.066996727245641 -1 0 0 I I #
coedge $-1 $432 $243 $246 $354 reversed $339 $-1 #
coedge $-1 $243 $432 $345 $436 forward $339 $-1 #
vertex $-1 $244 $440 #
straight-curve $-1 9.2933611643210661 -34.715308040112639 53.490336517104232 0 0 1 I I #
straight-curve $-1 9.2933611643210661 -34.715308040112646 9.9111631495212436 0 -0.68199835119979291 -0.73135370988377701 I I #
edge $-1 $434 -8.9626859535980081 $247 9.2933611643210661 $349 $441 forward 7 unknown #
point $-1 9.2933611643210661 -34.715308040112639 15.066996727245641 #
point $-1 9.2933611643210661 -29.907415564080281 15.066996727245641 #
edge $-1 $442 1 $442 0 $250 $-1 forward 7 unknown #
vertex $-1 $251 $443 #
ellipse-curve $-1 -5.3114765300141897 -29.107518304034617 9.5014476154031069 0 -0.73135370988377701 0.68199835119979291 1.5 0 0 1 I I #
point $-1 -3.8114765300141897 -32.311361802096449 12.48907993838343 #
edge $-1 $444 1 $444 0 $254 $-1 forward 7 unknown #
vertex $-1 $255 $445 #
ellipse-curve $-1 0.16533760536152897 -29.107518304034617 9.5014476154031069 0 -0.73135370988377701 0.68199835119979291 1.5 0 0 1 I I #
point $-1 1.665337605361529 -32.311361802096449 12.48907993838343 #
edge $-1 $446 1 $446 0 $258 $-1 forward 7 unknown #
vertex $-1 $259 $447 #
ellipse-curve $-1 5.6421517407372477 -29.107518304034617 9.5014476154031069 0 -0.73135370988377701 0.68199835119979291 1.5 0 0 1 I I #
point $-1 7.1421517407372477 -32.311361802096449 12.48907993838343 #
loop $-1 $-1 $374 $262 #
plane-surface $-1 71.165501876888328 0 0 -1 0 0 0 0 1 forward_v I I I I #
coedge $-1 $265 $379 $448 $449 forward $172 $-1 #
coedge $-1 $267 $266 $265 $373 reversed $108 $-1 #
edge $-1 $450 -42.087589050148694 $380 -16.068236603330568 $265 $451 forward 7 unknown #
coedge $-1 $448 $452 $267 $375 forward $369 $-1 #
edge $-1 $377 27.028561887910463 $450 47.806701372268066 $374 $453 forward 7 unknown #
coedge $-1 $273 $268 $452 $454 forward $263 $-1 #
vertex $-1 $454 $455 #
straight-curve $-1 29.077912826739635 18.12114813448121 15.066996727245641 1 0 0 I I #
coedge $-1 $371 $270 $273 $383 reversed $172 $-1 #
vertex $-1 $271 $456 #
straight-curve $-1 45.146149430070203 34.715308040112639 79.008690694076918 0 0 1 I I #
straight-curve $-1 45.146149430070203 -20.734447047397992 44.346788426869807 0 0.79863550430605224 -0.6018150307709319 I I #
edge $-1 $457 -71.165501876888328 $274 -45.146149430070203 $379 $458 forward 7 unknown #
point $-1 45.146149430070203 34.715308040112639 15.066996727245641 #
point $-1 45.146149430070203 18.121148134481217 15.066996727245641 #
edge $-1 $459 1 $459 0 $277 $-1 forward 7 unknown #
vertex $-1 $278 $460 #
ellipse-curve $-1 50.350019919433819 23.132737142765603 4.4547047427939157 0 0.6018150307709319 0.79863550430605224 2.5 0 0 1 I I #
point $-1 52.850019919433819 26.418228087296939 8.8146984006749598 #
edge $-1 $461 1 $461 0 $281 $-1 forward 7 unknown #
vertex $-1 $282 $462 #
ellipse-curve $-1 58.155825653479269 23.132737142765603 4.4547047427939157 0 0.6018150307709319 0.79863550430605224 2.5 0 0 1 I I #
point $-1 60.655825653479269 26.418228087296939 8.8146984006749598 #
edge $-1 $463 1 $463 0 $285 $-1 forward 7 unknown #
vertex $-1 $286 $464 #
ellipse-curve $-1 65.961631387524704 23.132737142765603 4.4547047427939157 0 0.6018150307709319 0.79863550430605224 2.5 0 0 1 I I #
point $-1 68.461631387524704 26.418228087296939 8.8146984006749598 #
plane-surface $-1 71.165501876888328 0 0 -1 0 0 0 0 1 forward_v I I I I #
coedge $-1 $294 $292 $296 $403 reversed $201 $-1 #
edge $-1 $307 -15.066996727245641 $405 15.066996727245641 $306 $465 forward 7 unknown #
vertex $-1 $403 $466 #
straight-curve $-1 -71.165501876888328 -34.715308040112639 0 0 0 -1 I I #
edge $-1 $401 -34.715308040112639 $405 34.715308040112639 $399 $467 forward 7 unknown #
straight-curve $-1 0 -34.715308040112639 -15.066996727245641 -1 0 0 I I #
vertex $-1 $299 $468 #
straight-curve $-1 0 34.715308040112639 -15.066996727245641 1 0 0 I I #
point $-1 71.165501876888328 34.715308040112639 -15.066996727245641 #
point $-1 71.165501876888328 -34.715308040112639 -15.066996727245641 #
straight-curve $-1 -71.165501876888328 0 15.066996727245641 0 -1 0 I I #
point $-1 -71.165501876888328 34.715308040112639 15.066996727245641 #
point $-1 -71.165501876888328 -34.715308040112639 15.066996727245641 #
straight-curve $-1 71.165501876888328 -34.715308040112639 0 0 0 -1 I I #
straight-curve $-1 71.165501876888328 34.715308040112639 0 0 0 -1 I I #
plane-surface $-1 0 0 15.066996727245641 0 0 1 1 0 0 forward_v I I I I #
coedge $-1 $321 $318 $323 $422 reversed $220 $-1 #
coedge $-1 $318 $321 $428 $469 reversed $220 $-1 #
edge $-1 $430 -15.066996727245641 $424 15.066996727245641 $335 $470 forward 7 unknown #
edge $-1 $419 -8.4917496072432641 $333 8.4917496072432641 $320 $471 forward 7 unknown #
vertex $-1 $469 $472 #
vertex $-1 $422 $473 #
straight-curve $-1 -88.149001091374856 -7.9638592593774025 0 0 0 -1 I I #
edge $-1 $420 -1.6912723368780238 $424 1.6912723368780238 $415 $474 forward 7 unknown #
straight-curve $-1 -79.657251484131592 -7.9638592593774025 -15.066996727245641 -1 0 0 I I #
vertex $-1 $325 $475 #
straight-curve $-1 -79.657251484131592 -4.5813145856213549 -15.066996727245641 1 0 0 I I #
point $-1 -71.165501876888328 -7.9638592593774025 -15.066996727245641 #
straight-curve $-1 -71.165501876888328 -7.9638592593774025 0 0 0 -1 I I #
coedge $-1 $331 $330 $416 $469 forward $332 $-1 #
point $-1 -71.165501876888328 -7.9638592593774025 15.066996727245641 #
vertex $-1 $336 $476 #
straight-curve $-1 -79.657251484131592 -4.5813145856213549 15.066996727245641 -1 0 0 I I #
coedge $-1 $350 $349 $342 $433 forward $339 $-1 #
edge $-1 $434 38.423339789858588 $437 43.579173367582982 $432 $477 forward 7 unknown #
vertex $-1 $354 $478 #
straight-curve $-1 -8.9626859535980081 -69.4048078334595 15.066996727245638 0 -1 0 I I #
edge $-1 $437 -9.0453547562787726 $351 9.2106923616403016 $350 $479 forward 7 unknown #
vertex $-1 $436 $480 #
straight-curve $-1 -8.9626859535980081 -34.715308040112646 9.9111631495212436 0 0.68199835119979291 0.73135370988377701 I I #
point $-1 -8.9626859535980081 -29.907415564080281 15.066996727245641 #
point $-1 9.2933611643210661 -34.715308040112639 9.9111631495212507 #
straight-curve $-1 0 -34.715308040112639 15.066996727245641 1 0 0 I I #
vertex $-1 $357 $481 #
point $-1 -3.8114765300141897 -29.107518304034617 9.5014476154031069 #
vertex $-1 $361 $482 #
point $-1 1.665337605361529 -29.107518304034617 9.5014476154031069 #
vertex $-1 $365 $483 #
point $-1 7.1421517407372477 -29.107518304034617 9.5014476154031069 #
coedge $-1 $452 $374 $371 $449 reversed $369 $-1 #
edge $-1 $457 -15.066996727245641 $450 -2.5624000741042536 $448 $484 forward 7 unknown #
vertex $-1 $375 $485 #
straight-curve $-1 29.077912826739635 34.715308040112639 2.5624000741042607 -1 0 0 I I #
coedge $-1 $374 $448 $376 $454 reversed $369 $-1 #
straight-curve $-1 71.165501876888328 -3.4648210195374984 31.333191531512512 0 0.79863550430605224 -0.6018150307709319 I I #
edge $-1 $377 18.121148134481217 $457 34.715308040112639 $452 $486 forward 7 unknown #
point $-1 71.165501876888328 18.121148134481217 15.066996727245641 #
point $-1 45.146149430070203 34.715308040112646 2.5624000741042536 #
vertex $-1 $454 $487 #
straight-curve $-1 0 34.715308040112639 15.066996727245641 -1 0 0 I I #
vertex $-1 $386 $488 #
point $-1 52.850019919433819 23.132737142765603 4.4547047427939157 #
vertex $-1 $390 $489 #
point $-1 60.655825653479269 23.132737142765603 4.4547047427939157 #
vertex $-1 $394 $490 #
point $-1 68.461631387524704 23.132737142765603 4.4547047427939157 #
straight-curve $-1 -71.165501876888328 34.715308040112639 0 0 0 -1 I I #
point $-1 -71.165501876888328 -34.715308040112639 -15.066996727245641 #
straight-curve $-1 -71.165501876888328 0 -15.066996727245641 0 1 0 I I #
point $-1 -71.165501876888328 34.715308040112639 -15.066996727245641 #
edge $-1 $430 -1.6912723368780238 $419 1.6912723368780238 $416 $491 forward 7 unknown #
straight-curve $-1 -88.149001091374856 -4.5813145856213549 0 0 0 -1 I I #
straight-curve $-1 -79.657251484131592 -7.9638592593774025 15.066996727245641 1 0 0 I I #
point $-1 -88.149001091374856 -7.9638592593774025 15.066996727245641 #
point $-1 -88.149001091374856 -7.9638592593774025 -15.066996727245641 #
straight-curve $-1 -88.149001091374856 -6.2725869224993787 -15.066996727245641 0 1 0 I I #
point $-1 -88.149001091374856 -4.5813145856213549 -15.066996727245641 #
point $-1 -88.149001091374856 -4.5813145856213549 15.066996727245641 #
straight-curve $-1 -8.9626859535980081 -34.715308040112639 53.490336517104232 0 0 -1 I I #
point $-1 -8.9626859535980081 -34.715308040112639 15.066996727245641 #
straight-curve $-1 0.082668802680764486 -34.715308040112639 9.911163149521256 1 0 0 I I #
point $-1 -8.9626859535980081 -34.715308040112639 9.9111631495212507 #
point $-1 -5.3114765300141897 -28.010487739208951 8.4784500886034184 #
point $-1 0.16533760536152897 -28.010487739208951 8.4784500886034184 #
point $-1 5.6421517407372477 -28.010487739208951 8.4784500886034184 #
straight-curve $-1 71.165501876888328 34.715308040112639 0 0 0 -1 I I #
point $-1 71.165501876888328 34.715308040112646 2.5624000741042536 #
straight-curve $-1 71.165501876888328 0 15.066996727245641 0 1 0 I I #
point $-1 71.165501876888328 34.715308040112639 15.066996727245641 #
point $-1 50.350019919433819 21.628199565838276 2.4581159820287857 #
point $-1 58.155825653479269 21.628199565838276 2.4581159820287857 #
point $-1 65.961631387524704 21.628199565838276 2.4581159820287857 #
straight-curve $-1 -88.149001091374856 -6.2725869224993787 15.066996727245641 0 -1 0 I I #
End-of-ACIS-data 