500 0 11 0           
7 Unknown 11 ACIS 5.0 NT 24 Thu Mar 25 19:37:56 1999 
-1 9.9999999999999995e-007 1e-010 
body $-1 $11 $-1 $12 #
body $-1 $13 $-1 $14 #
body $-1 $15 $-1 $16 #
body $-1 $17 $-1 $18 #
body $-1 $19 $-1 $20 #
body $-1 $21 $-1 $22 #
body $-1 $23 $-1 $24 #
body $-1 $25 $-1 $26 #
body $-1 $27 $-1 $28 #
body $-1 $29 $-1 $30 #
body $-1 $31 $-1 $32 #
lump $-1 $-1 $33 $0 #
transform $-1 1 0 0 0 1 0 0 0 1 51.977904599139379 28.152173482523462 8.5896476585047417 1 rotate no_reflect no_shear #
lump $-1 $-1 $34 $1 #
transform $-1 1 0 0 0 1 0 0 0 1 51.977904599139379 28.152173482523462 8.5896476585047417 1 rotate no_reflect no_shear #
lump $-1 $-1 $35 $2 #
transform $-1 1 0 0 0 1 0 0 0 1 51.977904599139379 28.152173482523462 8.5896476585047417 1 rotate no_reflect no_shear #
lump $-1 $-1 $36 $3 #
transform $-1 1 0 0 0 1 0 0 0 1 51.977904599139379 28.152173482523462 8.5896476585047417 1 rotate no_reflect no_shear #
lump $-1 $-1 $37 $4 #
transform $-1 1 0 0 0 1 0 0 0 1 51.977904599139379 28.152173482523462 8.5896476585047417 1 rotate no_reflect no_shear #
lump $-1 $-1 $38 $5 #
transform $-1 1 0 0 0 1 0 0 0 1 51.977904599139379 28.152173482523462 8.5896476585047417 1 rotate no_reflect no_shear #
lump $-1 $-1 $39 $6 #
transform $-1 1 0 0 0 1 0 0 0 1 51.977904599139379 28.152173482523462 8.5896476585047417 1 rotate no_reflect no_shear #
lump $-1 $-1 $40 $7 #
transform $-1 1 0 0 0 1 0 0 0 1 51.977904599139379 28.152173482523462 8.5896476585047417 1 rotate no_reflect no_shear #
lump $-1 $-1 $41 $8 #
transform $-1 1 0 0 0 1 0 0 0 1 51.977904599139379 28.152173482523462 8.5896476585047417 1 rotate no_reflect no_shear #
lump $-1 $-1 $42 $9 #
transform $-1 1 0 0 0 1 0 0 0 1 51.977904599139379 28.152173482523462 8.5896476585047417 1 rotate no_reflect no_shear #
lump $-1 $-1 $43 $10 #
transform $-1 1 0 0 0 1 0 0 0 1 51.977904599139379 28.152173482523462 8.5896476585047417 1 rotate no_reflect no_shear #
shell $-1 $-1 $-1 $44 $-1 $11 #
shell $-1 $-1 $-1 $45 $-1 $13 #
shell $-1 $-1 $-1 $46 $-1 $15 #
shell $-1 $-1 $-1 $47 $-1 $17 #
shell $-1 $-1 $-1 $48 $-1 $19 #
shell $-1 $-1 $-1 $49 $-1 $21 #
shell $-1 $-1 $-1 $50 $-1 $23 #
shell $-1 $-1 $-1 $51 $-1 $25 #
shell $-1 $-1 $-1 $52 $-1 $27 #
shell $-1 $-1 $-1 $53 $-1 $29 #
shell $-1 $-1 $-1 $54 $-1 $31 #
face $-1 $55 $56 $33 $-1 $57 forward single #
face $-1 $58 $59 $34 $-1 $60 forward single #
face $-1 $61 $62 $35 $-1 $63 reversed single #
face $-1 $64 $65 $36 $-1 $66 forward single #
face $-1 $67 $68 $37 $-1 $69 forward single #
face $-1 $70 $71 $38 $-1 $72 reversed single #
face $-1 $73 $74 $39 $-1 $75 forward single #
face $-1 $76 $77 $40 $-1 $78 forward single #
face $-1 $79 $80 $41 $-1 $81 reversed single #
face $-1 $82 $83 $42 $-1 $84 forward single #
face $-1 $85 $86 $43 $-1 $87 forward single #
face $-1 $88 $89 $33 $-1 $90 reversed single #
loop $-1 $-1 $91 $44 #
plane-surface $-1 0 0 8.5896476585047417 0 0 1 1 0 0 forward_v I I I I #
face $-1 $92 $93 $34 $-1 $94 reversed single #
loop $-1 $-1 $95 $45 #
plane-surface $-1 -47.743373715883166 0 7.0975573463237138 0 0 1 1 0 0 forward_v I I I I #
face $-1 $96 $97 $35 $-1 $98 reversed single #
loop $-1 $-1 $99 $46 #
plane-surface $-1 -38.684277894094095 -81.69337403994659 90.864743987405333 1 0 0 0 0.51503808176128008 -0.85716729658548041 forward_v I I I I #
face $-1 $100 $101 $36 $-1 $102 forward single #
loop $-1 $103 $104 $47 #
cone-surface $-1 -35.302158106829225 -21.686202577186688 3.8745659373204404 0 0.51503808176128008 -0.85716729658548041 1 0 0 1 I I 0 1 1 forward I I I I #
face $-1 $105 $106 $37 $-1 $107 forward single #
loop $-1 $108 $109 $48 #
cone-surface $-1 -30.228978425931917 -21.686202577186688 3.8745659373204404 0 0.51503808176128008 -0.85716729658548041 1 0 0 1 I I 0 1 1 forward I I I I #
face $-1 $110 $111 $38 $-1 $112 reversed single #
loop $-1 $-1 $113 $49 #
plane-surface $-1 -6.5472508631783342 47.785330601191049 120.59254750509972 1 0 0 0 -0.61566148304635926 -0.78801074757464917 forward_v I I I I #
face $-1 $114 $115 $39 $-1 $116 forward single #
loop $-1 $117 $118 $50 #
cone-surface $-1 -3.4667417927684667 24.632654647803584 5.5464030174582986 0 -0.61566148304635926 -0.78801074757464917 1.5 0 0 1 I I 0 1 1.5 forward I I I I #
face $-1 $119 $120 $40 $-1 $121 forward single #
loop $-1 $122 $123 $51 #
cone-surface $-1 1.154021812846338 24.632654647803584 5.5464030174582986 0 -0.61566148304635926 -0.78801074757464917 1.5 0 0 1 I I 0 1 1.5 forward I I I I #
face $-1 $124 $125 $41 $-1 $126 reversed single #
loop $-1 $-1 $127 $52 #
plane-surface $-1 41.196122852704832 47.785330601191049 120.59254750509972 1 0 0 0 -0.61566148304635926 -0.78801074757464917 forward_v I I I I #
face $-1 $128 $129 $42 $-1 $130 forward single #
loop $-1 $131 $132 $53 #
cone-surface $-1 44.276631923114707 24.632654647803584 5.5464030174582986 0 -0.61566148304635926 -0.78801074757464917 1.5 0 0 1 I I 0 1 1.5 forward I I I I #
face $-1 $133 $134 $43 $-1 $135 forward single #
loop $-1 $136 $137 $54 #
cone-surface $-1 48.897395528729504 24.632654647803584 5.5464030174582986 0 -0.61566148304635926 -0.78801074757464917 1.5 0 0 1 I I 0 1 1.5 forward I I I I #
face $-1 $138 $139 $33 $-1 $140 reversed single #
loop $-1 $-1 $141 $55 #
plane-surface $-1 0 0 -8.5896476585047417 0 0 1 1 0 0 forward_v I I I I #
coedge $-1 $142 $143 $144 $145 forward $56 $-1 #
face $-1 $146 $147 $34 $-1 $148 reversed single #
loop $-1 $-1 $149 $58 #
plane-surface $-1 -47.743373715883166 0 2.3303776066779678 0 0 1 1 0 0 forward_v I I I I #
coedge $-1 $150 $151 $152 $153 forward $59 $-1 #
face $-1 $154 $155 $35 $-1 $156 reversed single #
loop $-1 $-1 $157 $61 #
plane-surface $-1 -32.765568266380569 -28.152173482523466 1.7572240525607157 0 -0.51503808176128008 0.85716729658548041 1 0 0 forward_v I I I I #
coedge $-1 $158 $159 $160 $161 reversed $62 $-1 #
face $-1 $-1 $162 $36 $-1 $163 forward single #
loop $-1 $164 $165 $64 #
cone-surface $-1 -35.302158106829225 -20.648243739082893 2.147112370815405 0 0.51503808176128008 -0.85716729658548041 0.5 0 0 1 I I -0.70710678118654746 0.70710678118654746 0.5 forward I I I I #
loop $-1 $-1 $166 $47 #
coedge $-1 $104 $104 $167 $168 reversed $65 $-1 #
face $-1 $-1 $169 $37 $-1 $170 forward single #
loop $-1 $171 $172 $67 #
cone-surface $-1 -30.228978425931917 -20.648243739082893 2.147112370815405 0 0.51503808176128008 -0.85716729658548041 0.5 0 0 1 I I -0.70710678118654746 0.70710678118654746 0.5 forward I I I I #
loop $-1 $-1 $173 $48 #
coedge $-1 $109 $109 $174 $175 reversed $68 $-1 #
face $-1 $176 $177 $38 $-1 $178 reversed single #
loop $-1 $-1 $179 $70 #
plane-surface $-1 -1.1563599899610608 -16.216257061105608 38.674252584036481 0 0.61566148304635926 0.78801074757464917 1 0 0 forward_v I I I I #
coedge $-1 $180 $181 $182 $183 reversed $71 $-1 #
face $-1 $-1 $184 $39 $-1 $185 forward single #
loop $-1 $186 $187 $73 #
cone-surface $-1 -3.4667417927684667 23.582336195304638 4.2020567301937746 0 -0.61566148304635926 -0.78801074757464917 0.75 0 0 1 I I -0.70710678118654757 0.70710678118654757 0.75 forward I I I I #
loop $-1 $-1 $188 $50 #
coedge $-1 $118 $118 $189 $190 reversed $74 $-1 #
face $-1 $-1 $191 $40 $-1 $192 forward single #
loop $-1 $193 $194 $76 #
cone-surface $-1 1.154021812846338 23.582336195304638 4.2020567301937746 0 -0.61566148304635926 -0.78801074757464917 0.75 0 0 1 I I -0.70710678118654757 0.70710678118654757 0.75 forward I I I I #
loop $-1 $-1 $195 $51 #
coedge $-1 $123 $123 $196 $197 reversed $77 $-1 #
face $-1 $198 $199 $41 $-1 $200 forward single #
loop $-1 $-1 $201 $79 #
plane-surface $-1 46.587013725922105 -16.216257061105608 38.674252584036481 0 0.61566148304635926 0.78801074757464917 1 0 0 forward_v I I I I #
coedge $-1 $202 $203 $204 $205 reversed $80 $-1 #
face $-1 $-1 $206 $42 $-1 $207 forward single #
loop $-1 $208 $209 $82 #
cone-surface $-1 44.276631923114707 23.582336195304638 4.2020567301937746 0 -0.61566148304635926 -0.78801074757464917 0.75 0 0 1 I I -0.70710678118654757 0.70710678118654757 0.75 forward I I I I #
loop $-1 $-1 $210 $53 #
coedge $-1 $132 $132 $211 $212 reversed $83 $-1 #
face $-1 $-1 $213 $43 $-1 $214 forward single #
loop $-1 $215 $216 $85 #
cone-surface $-1 48.897395528729504 23.582336195304638 4.2020567301937746 0 -0.61566148304635926 -0.78801074757464917 0.75 0 0 1 I I -0.70710678118654757 0.70710678118654757 0.75 forward I I I I #
loop $-1 $-1 $217 $54 #
coedge $-1 $137 $137 $218 $219 reversed $86 $-1 #
face $-1 $220 $221 $33 $-1 $222 reversed single #
loop $-1 $-1 $223 $88 #
plane-surface $-1 0 -28.152173482523462 0 0 1 0 0 0 1 forward_v I I I I #
coedge $-1 $224 $225 $226 $227 forward $89 $-1 #
coedge $-1 $228 $91 $229 $230 forward $56 $-1 #
coedge $-1 $91 $228 $231 $232 forward $56 $-1 #
coedge $-1 $233 $234 $91 $145 reversed $235 $-1 #
edge $-1 $236 -28.152173482523462 $237 28.152173482523462 $144 $238 forward 7 unknown #
face $-1 $239 $240 $34 $-1 $241 reversed single #
loop $-1 $-1 $242 $92 #
plane-surface $-1 -43.508842832626954 0 4.7139674765008408 -1 0 0 0 0 1 forward_v I I I I #
coedge $-1 $243 $244 $245 $246 forward $93 $-1 #
coedge $-1 $247 $95 $248 $249 reversed $59 $-1 #
coedge $-1 $95 $247 $250 $251 reversed $59 $-1 #
coedge $-1 $242 $252 $95 $153 reversed $147 $-1 #
edge $-1 $253 -28.152173482523462 $254 28.152173482523462 $152 $255 forward 7 unknown #
face $-1 $256 $257 $35 $-1 $258 forward single #
loop $-1 $-1 $259 $96 #
plane-surface $-1 -26.846858638667044 -81.69337403994659 90.864743987405333 -1 0 0 0 -0.51503808176128008 0.85716729658548041 forward_v I I I I #
coedge $-1 $260 $261 $262 $263 reversed $97 $-1 #
coedge $-1 $159 $99 $264 $265 reversed $62 $-1 #
coedge $-1 $99 $158 $260 $266 reversed $62 $-1 #
coedge $-1 $262 $267 $99 $161 forward $268 $-1 #
edge $-1 $269 36.842724335197929 $270 43.675147941141951 $160 $271 forward 7 unknown #
loop $-1 $-1 $167 $100 #
plane-surface $-1 -32.765568266380569 -28.152173482523466 1.7572240525607157 0 -0.51503808176128008 0.85716729658548041 1 0 0 forward_v I I I I #
loop $-1 $-1 $272 $64 #
coedge $-1 $165 $165 $166 $273 reversed $101 $-1 #
coedge $-1 $166 $166 $165 $273 forward $103 $-1 #
coedge $-1 $167 $167 $104 $168 forward $162 $-1 #
edge $-1 $274 1.5291871158414943e-015 $274 6.2831853071796022 $167 $275 forward 7 unknown #
loop $-1 $-1 $174 $105 #
plane-surface $-1 -32.765568266380569 -28.152173482523466 1.7572240525607157 0 -0.51503808176128008 0.85716729658548041 1 0 0 forward_v I I I I #
loop $-1 $-1 $276 $67 #
coedge $-1 $172 $172 $173 $277 reversed $106 $-1 #
coedge $-1 $173 $173 $172 $277 forward $108 $-1 #
coedge $-1 $174 $174 $109 $175 forward $169 $-1 #
edge $-1 $278 1.5291871158414943e-015 $278 6.2831853071796022 $174 $279 forward 7 unknown #
face $-1 $280 $281 $38 $-1 $282 reversed single #
loop $-1 $-1 $283 $110 #
plane-surface $-1 4.2345308832562125 47.785330601191049 120.59254750509972 -1 0 0 0 0.61566148304635926 0.78801074757464917 forward_v I I I I #
coedge $-1 $284 $285 $286 $287 reversed $111 $-1 #
coedge $-1 $181 $113 $288 $289 reversed $71 $-1 #
coedge $-1 $113 $180 $284 $290 reversed $71 $-1 #
coedge $-1 $286 $291 $113 $183 forward $292 $-1 #
edge $-1 $293 -4.2595081819279379 $294 1.6023848070834745 $182 $295 forward 7 unknown #
loop $-1 $-1 $189 $114 #
plane-surface $-1 -1.1563599899610608 -16.216257061105608 38.674252584036481 0 0.61566148304635926 0.78801074757464917 1 0 0 forward_v I I I I #
loop $-1 $-1 $296 $73 #
coedge $-1 $187 $187 $188 $297 reversed $115 $-1 #
coedge $-1 $188 $188 $187 $297 forward $117 $-1 #
coedge $-1 $189 $189 $118 $190 forward $184 $-1 #
edge $-1 $298 -6.417691953917869e-016 $298 6.2831853071795996 $189 $299 forward 7 unknown #
loop $-1 $-1 $196 $119 #
plane-surface $-1 -1.1563599899610608 -16.216257061105608 38.674252584036481 0 0.61566148304635926 0.78801074757464917 1 0 0 forward_v I I I I #
loop $-1 $-1 $300 $76 #
coedge $-1 $194 $194 $195 $301 reversed $120 $-1 #
coedge $-1 $195 $195 $194 $301 forward $122 $-1 #
coedge $-1 $196 $196 $123 $197 forward $191 $-1 #
edge $-1 $302 -6.417691953917869e-016 $302 6.2831853071795996 $196 $303 forward 7 unknown #
face $-1 $304 $305 $41 $-1 $306 reversed single #
loop $-1 $-1 $204 $124 #
plane-surface $-1 0 0 8.5896476585047417 0 0 1 1 0 0 forward_v I I I I #
coedge $-1 $307 $308 $309 $310 reversed $125 $-1 #
coedge $-1 $203 $127 $311 $312 reversed $80 $-1 #
coedge $-1 $127 $202 $307 $313 reversed $80 $-1 #
coedge $-1 $309 $314 $127 $205 forward $199 $-1 #
edge $-1 $315 -4.2595081819279379 $316 1.6023848070834745 $204 $317 forward 7 unknown #
loop $-1 $-1 $211 $128 #
plane-surface $-1 46.587013725922105 -16.216257061105608 38.674252584036481 0 0.61566148304635926 0.78801074757464917 1 0 0 forward_v I I I I #
loop $-1 $-1 $318 $82 #
coedge $-1 $209 $209 $210 $319 reversed $129 $-1 #
coedge $-1 $210 $210 $209 $319 forward $131 $-1 #
coedge $-1 $211 $211 $132 $212 forward $206 $-1 #
edge $-1 $320 -6.417691953917869e-016 $320 6.2831853071795996 $211 $321 forward 7 unknown #
loop $-1 $-1 $218 $133 #
plane-surface $-1 46.587013725922105 -16.216257061105608 38.674252584036481 0 0.61566148304635926 0.78801074757464917 1 0 0 forward_v I I I I #
loop $-1 $-1 $322 $85 #
coedge $-1 $216 $216 $217 $323 reversed $134 $-1 #
coedge $-1 $217 $217 $216 $323 forward $136 $-1 #
coedge $-1 $218 $218 $137 $219 forward $213 $-1 #
edge $-1 $324 -6.417691953917869e-016 $324 6.2831853071795996 $218 $325 forward 7 unknown #
face $-1 $326 $327 $33 $-1 $328 reversed single #
loop $-1 $-1 $329 $138 #
plane-surface $-1 -51.977904599139379 0 0 1 0 0 0 0 -1 forward_v I I I I #
coedge $-1 $330 $231 $331 $332 forward $139 $-1 #
coedge $-1 $333 $141 $330 $334 forward $89 $-1 #
coedge $-1 $141 $333 $335 $336 forward $89 $-1 #
coedge $-1 $234 $233 $141 $227 reversed $235 $-1 #
edge $-1 $337 -28.152173482523462 $338 28.152173482523462 $226 $339 forward 7 unknown #
coedge $-1 $143 $142 $340 $341 forward $56 $-1 #
coedge $-1 $342 $343 $142 $230 reversed $327 $-1 #
edge $-1 $237 -51.977904599139379 $344 51.977904599139379 $229 $345 forward 7 unknown #
coedge $-1 $223 $346 $143 $232 reversed $139 $-1 #
edge $-1 $347 -51.977904599139379 $236 51.977904599139379 $231 $348 forward 7 unknown #
coedge $-1 $226 $144 $346 $349 forward $235 $-1 #
coedge $-1 $144 $226 $342 $350 reversed $235 $-1 #
loop $-1 $-1 $233 $326 #
vertex $-1 $145 $351 #
vertex $-1 $145 $352 #
straight-curve $-1 51.977904599139379 0 8.5896476585047417 0 1 0 I I #
face $-1 $353 $354 $34 $-1 $355 reversed single #
loop $-1 $-1 $356 $146 #
plane-surface $-1 0 -28.152173482523462 0 0 1 0 0 0 1 forward_v I I I I #
coedge $-1 $245 $152 $357 $358 reversed $147 $-1 #
coedge $-1 $359 $149 $356 $360 reversed $93 $-1 #
coedge $-1 $149 $359 $361 $362 reversed $93 $-1 #
coedge $-1 $252 $242 $149 $246 reversed $147 $-1 #
edge $-1 $363 -28.152173482523462 $364 28.152173482523462 $245 $365 forward 7 unknown #
coedge $-1 $151 $150 $366 $367 reversed $59 $-1 #
coedge $-1 $368 $369 $150 $249 forward $370 $-1 #
edge $-1 $371 -28.106217741197796 $254 -19.637155974685371 $248 $372 forward 7 unknown #
coedge $-1 $373 $357 $151 $251 forward $240 $-1 #
edge $-1 $253 19.637155974685371 $374 28.106217741197796 $250 $375 forward 7 unknown #
coedge $-1 $152 $245 $368 $376 reversed $147 $-1 #
vertex $-1 $251 $377 #
vertex $-1 $249 $378 #
straight-curve $-1 -43.508842832626954 0 7.0975573463237138 0 1 0 I I #
face $-1 $-1 $268 $35 $-1 $379 reversed single #
loop $-1 $-1 $380 $154 #
plane-surface $-1 0 0 8.5896476585047417 0 0 1 1 0 0 forward_v I I I I #
coedge $-1 $381 $382 $383 $384 reversed $155 $-1 #
coedge $-1 $385 $157 $159 $266 forward $97 $-1 #
coedge $-1 $157 $385 $381 $386 forward $97 $-1 #
coedge $-1 $383 $160 $157 $263 forward $268 $-1 #
edge $-1 $270 -22.30149376090381 $387 -10.464074505476759 $262 $388 forward 7 unknown #
coedge $-1 $389 $390 $158 $265 forward $257 $-1 #
edge $-1 $391 -24.065575753677095 $269 -12.694513537449833 $264 $392 forward 7 unknown #
edge $-1 $270 4.1888842534599766e-015 $391 13.265861006974726 $159 $393 forward 7 unknown #
coedge $-1 $160 $383 $389 $394 reversed $268 $-1 #
loop $-1 $-1 $383 $256 #
vertex $-1 $394 $395 #
vertex $-1 $161 $396 #
straight-curve $-1 -38.684277894094095 -28.152173482523462 45.432371993702667 0 0 -1 I I #
coedge $-1 $272 $272 $-1 $397 reversed $164 $-1 #
edge $-1 $398 0 $398 6.2831853071796004 $165 $399 forward 7 unknown #
vertex $-1 $168 $400 #
ellipse-curve $-1 -35.302158106829225 -22.466642374409837 5.1734358555327269 0 -0.51503808176128008 0.85716729658548041 1 0 0 1 I I #
coedge $-1 $276 $276 $-1 $401 reversed $171 $-1 #
edge $-1 $402 0 $402 6.2831853071796004 $172 $403 forward 7 unknown #
vertex $-1 $175 $404 #
ellipse-curve $-1 -30.228978425931917 -22.466642374409837 5.1734358555327269 0 -0.51503808176128008 0.85716729658548041 1 0 0 1 I I #
face $-1 $-1 $292 $38 $-1 $405 forward single #
loop $-1 $-1 $406 $176 #
plane-surface $-1 0 28.152173482523462 0 0 -1 0 0 0 -1 forward_v I I I I #
coedge $-1 $407 $408 $409 $410 reversed $177 $-1 #
coedge $-1 $411 $179 $181 $290 forward $111 $-1 #
coedge $-1 $179 $411 $407 $412 forward $111 $-1 #
coedge $-1 $409 $182 $179 $287 forward $292 $-1 #
edge $-1 $294 -5.9690708681978037 $413 4.8127108782367429 $286 $414 forward 7 unknown #
coedge $-1 $415 $416 $180 $289 forward $281 $-1 #
edge $-1 $417 -56.286438922970959 $293 -51.70662609404512 $288 $418 forward 7 unknown #
edge $-1 $294 48.865497930242242 $417 56.304346965046946 $181 $419 forward 7 unknown #
coedge $-1 $182 $409 $415 $420 forward $292 $-1 #
loop $-1 $-1 $409 $280 #
vertex $-1 $289 $421 #
vertex $-1 $183 $422 #
straight-curve $-1 -6.5472508631783342 23.892665300595525 8.5896476585047452 0 -1 0 I I #
coedge $-1 $296 $296 $-1 $423 reversed $186 $-1 #
edge $-1 $424 0 $424 6.2831853071796004 $187 $425 forward 7 unknown #
vertex $-1 $190 $426 #
ellipse-curve $-1 -3.4667417927684667 25.221226988017754 6.2997412440418259 0 0.61566148304635926 0.78801074757464917 1.5 0 0 1 I I #
coedge $-1 $300 $300 $-1 $427 reversed $193 $-1 #
edge $-1 $428 0 $428 6.2831853071796004 $194 $429 forward 7 unknown #
vertex $-1 $197 $430 #
ellipse-curve $-1 1.154021812846338 25.221226988017754 6.2997412440418259 0 0.61566148304635926 0.78801074757464917 1.5 0 0 1 I I #
face $-1 $-1 $431 $41 $-1 $432 reversed single #
loop $-1 $-1 $433 $198 #
plane-surface $-1 51.977904599139379 0 0 -1 0 0 0 0 1 forward_v I I I I #
coedge $-1 $434 $201 $203 $313 forward $125 $-1 #
coedge $-1 $201 $434 $433 $435 reversed $125 $-1 #
coedge $-1 $436 $204 $201 $310 forward $199 $-1 #
edge $-1 $316 17.902615989743779 $437 28.684397736178326 $309 $438 forward 7 unknown #
coedge $-1 $439 $440 $202 $312 forward $431 $-1 #
edge $-1 $441 -56.286438922970959 $315 -51.70662609404512 $311 $442 forward 7 unknown #
edge $-1 $316 48.865497930242242 $441 56.304346965046946 $203 $443 forward 7 unknown #
coedge $-1 $204 $436 $439 $444 forward $199 $-1 #
vertex $-1 $312 $445 #
vertex $-1 $205 $446 #
straight-curve $-1 41.196122852704832 23.892665300595525 8.5896476585047452 0 -1 0 I I #
coedge $-1 $318 $318 $-1 $447 reversed $208 $-1 #
edge $-1 $448 0 $448 6.2831853071796004 $209 $449 forward 7 unknown #
vertex $-1 $212 $450 #
ellipse-curve $-1 44.276631923114707 25.221226988017754 6.2997412440418259 0 0.61566148304635926 0.78801074757464917 1.5 0 0 1 I I #
coedge $-1 $322 $322 $-1 $451 reversed $215 $-1 #
edge $-1 $452 0 $452 6.2831853071796004 $216 $453 forward 7 unknown #
vertex $-1 $219 $454 #
ellipse-curve $-1 48.897395528729504 25.221226988017754 6.2997412440418259 0 0.61566148304635926 0.78801074757464917 1.5 0 0 1 I I #
face $-1 $-1 $235 $33 $-1 $455 reversed single #
loop $-1 $-1 $342 $220 #
plane-surface $-1 0 28.152173482523462 0 0 -1 0 0 0 -1 forward_v I I I I #
coedge $-1 $456 $340 $343 $457 forward $221 $-1 #
coedge $-1 $346 $223 $224 $334 reversed $139 $-1 #
coedge $-1 $340 $456 $223 $332 reversed $221 $-1 #
edge $-1 $347 -8.5896476585047417 $458 8.5896476585047417 $331 $459 forward 7 unknown #
coedge $-1 $225 $224 $456 $460 forward $89 $-1 #
edge $-1 $338 -51.977904599139379 $458 51.977904599139379 $330 $461 forward 7 unknown #
coedge $-1 $343 $342 $225 $336 reversed $327 $-1 #
edge $-1 $462 -51.977904599139379 $337 51.977904599139379 $335 $463 forward 7 unknown #
vertex $-1 $227 $464 #
vertex $-1 $349 $465 #
straight-curve $-1 51.977904599139379 0 -8.5896476585047417 0 -1 0 I I #
coedge $-1 $329 $331 $228 $341 reversed $221 $-1 #
edge $-1 $344 -28.152173482523462 $347 28.152173482523462 $340 $466 forward 7 unknown #
coedge $-1 $335 $229 $234 $350 forward $327 $-1 #
coedge $-1 $229 $335 $329 $457 reversed $327 $-1 #
vertex $-1 $230 $467 #
straight-curve $-1 0 28.152173482523462 8.5896476585047417 -1 0 0 I I #
coedge $-1 $231 $330 $233 $349 reversed $139 $-1 #
vertex $-1 $341 $468 #
straight-curve $-1 0 -28.152173482523462 8.5896476585047417 1 0 0 I I #
edge $-1 $236 -8.5896476585047417 $338 8.5896476585047417 $233 $469 forward 7 unknown #
edge $-1 $237 -8.5896476585047417 $337 8.5896476585047417 $234 $470 forward 7 unknown #
point $-1 51.977904599139379 -28.152173482523462 8.5896476585047417 #
point $-1 51.977904599139379 28.152173482523462 8.5896476585047417 #
face $-1 $-1 $370 $34 $-1 $471 reversed single #
loop $-1 $-1 $472 $239 #
plane-surface $-1 -51.977904599139379 0 0 1 0 0 0 0 -1 forward_v I I I I #
coedge $-1 $357 $373 $243 $360 forward $240 $-1 #
coedge $-1 $250 $356 $242 $358 forward $240 $-1 #
edge $-1 $364 -0.026606131572452618 $253 4.7405736080732934 $357 $473 forward 7 unknown #
coedge $-1 $244 $243 $472 $474 reversed $93 $-1 #
edge $-1 $475 -28.106217741197796 $364 -19.637155974685371 $356 $476 forward 7 unknown #
coedge $-1 $369 $368 $244 $362 forward $370 $-1 #
edge $-1 $363 19.637155974685371 $477 28.106217741197796 $361 $478 forward 7 unknown #
vertex $-1 $362 $479 #
vertex $-1 $360 $480 #
straight-curve $-1 -43.508842832626954 0 2.3303776066779678 0 -1 0 I I #
coedge $-1 $481 $482 $247 $367 forward $354 $-1 #
edge $-1 $374 -28.152173482523462 $371 28.152173482523462 $366 $483 forward 7 unknown #
coedge $-1 $361 $248 $252 $376 forward $370 $-1 #
coedge $-1 $248 $361 $481 $484 reversed $370 $-1 #
loop $-1 $-1 $361 $353 #
vertex $-1 $484 $485 #
straight-curve $-1 -23.871686857941583 28.152173482523462 7.0975573463237138 1 0 0 I I #
coedge $-1 $356 $250 $482 $486 forward $240 $-1 #
vertex $-1 $486 $487 #
straight-curve $-1 -23.871686857941583 -28.152173482523462 7.0975573463237138 -1 0 0 I I #
edge $-1 $254 -4.7405736080732934 $363 0.026606131572452618 $368 $488 forward 7 unknown #
point $-1 -43.508842832626954 -28.152173482523462 7.0975573463237138 #
point $-1 -43.508842832626954 28.152173482523462 7.0975573463237138 #
plane-surface $-1 0 -28.152173482523462 0 0 1 0 0 0 1 forward_v I I I I #
coedge $-1 $390 $389 $382 $489 forward $257 $-1 #
coedge $-1 $382 $259 $261 $386 reversed $155 $-1 #
coedge $-1 $259 $381 $380 $489 reversed $155 $-1 #
coedge $-1 $267 $262 $259 $384 forward $268 $-1 #
edge $-1 $387 -43.675147941141951 $490 -36.842724335197929 $383 $491 forward 7 unknown #
coedge $-1 $261 $260 $390 $492 reversed $97 $-1 #
edge $-1 $493 -13.265861006974726 $387 -4.1888842534599766e-015 $381 $494 forward 7 unknown #
vertex $-1 $263 $495 #
straight-curve $-1 -16.382784133190285 -28.152173482523462 1.7572240525607179 1 0 0 I I #
coedge $-1 $380 $264 $267 $394 forward $257 $-1 #
coedge $-1 $264 $380 $385 $492 forward $257 $-1 #
vertex $-1 $265 $496 #
straight-curve $-1 -38.684277894094095 -40.846687019973295 8.5896476585047452 0 -1 0 I I #
straight-curve $-1 -38.684277894094095 -28.152173482523466 1.7572240525607157 0 0.85716729658548041 0.51503808176128008 I I #
edge $-1 $269 -38.684277894094095 $490 -26.846858638667044 $267 $497 forward 7 unknown #
point $-1 -38.684277894094095 -28.152173482523462 8.5896476585047417 #
point $-1 -38.684277894094095 -28.152173482523462 1.7572240525607179 #
edge $-1 $498 1 $498 0 $272 $-1 forward 7 unknown #
vertex $-1 $273 $499 #
ellipse-curve $-1 -35.302158106829225 -20.905762779963535 2.5756960191081451 0 -0.51503808176128008 0.85716729658548041 1 0 0 1 I I #
point $-1 -34.302158106829225 -22.46664237440984 5.1734358555327358 #
edge $-1 $500 1 $500 0 $276 $-1 forward 7 unknown #
vertex $-1 $277 $501 #
ellipse-curve $-1 -30.228978425931917 -20.905762779963535 2.5756960191081451 0 -0.51503808176128008 0.85716729658548041 1 0 0 1 I I #
point $-1 -29.228978425931917 -22.46664237440984 5.1734358555327358 #
plane-surface $-1 0 0 8.5896476585047417 0 0 1 1 0 0 forward_v I I I I #
coedge $-1 $416 $415 $408 $502 forward $281 $-1 #
coedge $-1 $408 $283 $285 $412 reversed $177 $-1 #
coedge $-1 $283 $407 $406 $502 reversed $177 $-1 #
coedge $-1 $291 $286 $283 $410 forward $292 $-1 #
edge $-1 $413 -1.6023848070834745 $503 4.2595081819279379 $409 $504 forward 7 unknown #
coedge $-1 $285 $284 $416 $505 reversed $111 $-1 #
edge $-1 $506 -56.304346965046946 $413 -48.865497930242242 $407 $507 forward 7 unknown #
vertex $-1 $287 $508 #
straight-curve $-1 -0.57817999498053041 22.290280493512057 8.5896476585047417 1 0 0 I I #
coedge $-1 $406 $288 $291 $420 reversed $281 $-1 #
coedge $-1 $288 $406 $411 $505 forward $281 $-1 #
vertex $-1 $289 $509 #
straight-curve $-1 -6.5472508631783342 28.152173482523462 60.296273752549858 0 0 1 I I #
straight-curve $-1 -6.5472508631783342 -16.216257061105608 38.674252584036481 0 0.78801074757464917 -0.61566148304635926 I I #
edge $-1 $503 -4.2345308832562125 $293 6.5472508631783342 $415 $510 forward 7 unknown #
point $-1 -6.5472508631783342 28.152173482523462 8.5896476585047417 #
point $-1 -6.5472508631783342 22.29028049351205 8.5896476585047417 #
edge $-1 $511 1 $511 0 $296 $-1 forward 7 unknown #
vertex $-1 $297 $512 #
ellipse-curve $-1 -3.4667417927684667 24.044082307589406 4.7930647908747614 0 0.61566148304635926 0.78801074757464917 1.5 0 0 1 I I #
point $-1 -1.9667417927684667 25.221226988017762 6.2997412440418366 #
edge $-1 $513 1 $513 0 $300 $-1 forward 7 unknown #
vertex $-1 $301 $514 #
ellipse-curve $-1 1.154021812846338 24.044082307589406 4.7930647908747614 0 0.61566148304635926 0.78801074757464917 1.5 0 0 1 I I #
point $-1 2.654021812846338 25.221226988017762 6.2997412440418366 #
loop $-1 $-1 $311 $304 #
plane-surface $-1 0 28.152173482523462 0 0 -1 0 0 0 -1 forward_v I I I I #
coedge $-1 $515 $516 $308 $435 forward $305 $-1 #
coedge $-1 $308 $307 $440 $517 reversed $125 $-1 #
edge $-1 $437 30.571081654651287 $518 38.009930689455992 $433 $519 forward 7 unknown #
coedge $-1 $314 $309 $516 $520 forward $199 $-1 #
vertex $-1 $520 $521 #
straight-curve $-1 23.293506862961053 22.290280493512057 8.5896476585047417 1 0 0 I I #
coedge $-1 $522 $311 $314 $444 reversed $431 $-1 #
coedge $-1 $311 $522 $434 $517 forward $431 $-1 #
vertex $-1 $312 $523 #
straight-curve $-1 41.196122852704832 28.152173482523462 60.296273752549858 0 0 1 I I #
straight-curve $-1 41.196122852704832 -16.216257061105608 38.674252584036481 0 0.78801074757464917 -0.61566148304635926 I I #
edge $-1 $524 -51.977904599139379 $315 -41.196122852704832 $439 $525 forward 7 unknown #
point $-1 41.196122852704832 28.152173482523462 8.5896476585047417 #
point $-1 41.196122852704832 22.29028049351205 8.5896476585047417 #
edge $-1 $526 1 $526 0 $318 $-1 forward 7 unknown #
vertex $-1 $319 $527 #
ellipse-curve $-1 44.276631923114707 24.044082307589406 4.7930647908747614 0 0.61566148304635926 0.78801074757464917 1.5 0 0 1 I I #
point $-1 45.776631923114707 25.221226988017762 6.2997412440418366 #
edge $-1 $528 1 $528 0 $322 $-1 forward 7 unknown #
vertex $-1 $323 $529 #
ellipse-curve $-1 48.897395528729504 24.044082307589406 4.7930647908747614 0 0.61566148304635926 0.78801074757464917 1.5 0 0 1 I I #
point $-1 50.397395528729504 25.221226988017762 6.2997412440418366 #
plane-surface $-1 51.977904599139379 0 0 -1 0 0 0 0 1 forward_v I I I I #
coedge $-1 $331 $329 $333 $460 reversed $221 $-1 #
edge $-1 $344 -8.5896476585047417 $462 8.5896476585047417 $343 $530 forward 7 unknown #
vertex $-1 $460 $531 #
straight-curve $-1 -51.977904599139379 -28.152173482523462 0 0 0 -1 I I #
edge $-1 $458 -28.152173482523462 $462 28.152173482523462 $456 $532 forward 7 unknown #
straight-curve $-1 0 -28.152173482523462 -8.5896476585047417 -1 0 0 I I #
vertex $-1 $336 $533 #
straight-curve $-1 0 28.152173482523462 -8.5896476585047417 1 0 0 I I #
point $-1 51.977904599139379 28.152173482523462 -8.5896476585047417 #
point $-1 51.977904599139379 -28.152173482523462 -8.5896476585047417 #
straight-curve $-1 -51.977904599139379 0 8.5896476585047417 0 -1 0 I I #
point $-1 -51.977904599139379 28.152173482523462 8.5896476585047417 #
point $-1 -51.977904599139379 -28.152173482523462 8.5896476585047417 #
straight-curve $-1 51.977904599139379 -28.152173482523462 0 0 0 -1 I I #
straight-curve $-1 51.977904599139379 28.152173482523462 0 0 0 -1 I I #
plane-surface $-1 0 28.152173482523462 0 0 -1 0 0 0 -1 forward_v I I I I #
coedge $-1 $482 $481 $359 $474 forward $354 $-1 #
straight-curve $-1 -43.508842832626954 -28.152173482523462 2.3569837382504204 0 0 1 I I #
edge $-1 $477 -28.152173482523462 $475 28.152173482523462 $472 $534 forward 7 unknown #
vertex $-1 $360 $535 #
straight-curve $-1 -23.871686857941583 -28.152173482523462 2.3303776066779678 1 0 0 I I #
vertex $-1 $362 $536 #
straight-curve $-1 -23.871686857941583 28.152173482523462 2.3303776066779678 -1 0 0 I I #
point $-1 -43.508842832626954 28.152173482523462 2.3303776066779678 #
point $-1 -43.508842832626954 -28.152173482523462 2.3303776066779678 #
coedge $-1 $472 $366 $369 $484 forward $354 $-1 #
coedge $-1 $366 $472 $373 $486 reversed $354 $-1 #
straight-curve $-1 -51.977904599139379 0 7.0975573463237138 0 1 0 I I #
edge $-1 $371 -7.0975573463237138 $477 -2.3303776066779678 $369 $537 forward 7 unknown #
point $-1 -51.977904599139379 28.152173482523462 7.0975573463237138 #
edge $-1 $374 -7.0975573463237138 $475 -2.3303776066779678 $482 $538 forward 7 unknown #
point $-1 -51.977904599139379 -28.152173482523462 7.0975573463237138 #
straight-curve $-1 -43.508842832626954 28.152173482523462 2.3569837382504204 0 0 -1 I I #
edge $-1 $490 12.694513537449833 $493 24.065575753677095 $380 $539 forward 7 unknown #
vertex $-1 $489 $540 #
straight-curve $-1 -26.846858638667044 -28.152173482523462 45.432371993702667 0 0 1 I I #
edge $-1 $493 10.464074505476759 $391 22.30149376090381 $390 $541 forward 7 unknown #
vertex $-1 $492 $542 #
straight-curve $-1 -26.846858638667044 -28.152173482523466 1.7572240525607157 0 -0.85716729658548041 -0.51503808176128008 I I #
point $-1 -26.846858638667044 -28.152173482523462 1.7572240525607179 #
point $-1 -38.684277894094095 -16.7811112662962 8.5896476585047417 #
straight-curve $-1 0 -28.152173482523462 8.5896476585047417 1 0 0 I I #
vertex $-1 $397 $543 #
point $-1 -34.302158106829225 -20.905762779963535 2.5756960191081451 #
vertex $-1 $401 $544 #
point $-1 -29.228978425931917 -20.905762779963535 2.5756960191081451 #
edge $-1 $503 51.70662609404512 $506 56.286438922970959 $406 $545 forward 7 unknown #
vertex $-1 $420 $546 #
straight-curve $-1 4.2345308832562125 23.892665300595525 8.5896476585047452 0 1 0 I I #
edge $-1 $506 -4.8127108782367429 $417 5.9690708681978037 $416 $547 forward 7 unknown #
vertex $-1 $505 $548 #
straight-curve $-1 4.2345308832562125 -16.216257061105608 38.674252584036481 0 -0.78801074757464917 0.61566148304635926 I I #
point $-1 4.2345308832562125 22.29028049351205 8.5896476585047417 #
point $-1 -6.5472508631783342 28.152173482523466 4.0098348295788995 #
straight-curve $-1 0 28.152173482523462 8.5896476585047417 -1 0 0 I I #
vertex $-1 $423 $549 #
point $-1 -1.9667417927684667 24.044082307589406 4.7930647908747614 #
vertex $-1 $427 $550 #
point $-1 2.654021812846338 24.044082307589406 4.7930647908747614 #
coedge $-1 $516 $433 $522 $551 reversed $305 $-1 #
coedge $-1 $433 $515 $436 $520 reversed $305 $-1 #
edge $-1 $518 -28.684397736178326 $441 -17.902615989743779 $440 $552 forward 7 unknown #
vertex $-1 $435 $553 #
straight-curve $-1 51.977904599139379 -1.8000604153353521 27.411085128338701 0 0.78801074757464917 -0.61566148304635926 I I #
edge $-1 $437 22.29028049351205 $524 28.152173482523462 $516 $554 forward 7 unknown #
point $-1 51.977904599139379 22.29028049351205 8.5896476585047417 #
coedge $-1 $440 $439 $515 $551 forward $431 $-1 #
point $-1 41.196122852704832 28.152173482523466 4.0098348295788995 #
vertex $-1 $520 $555 #
straight-curve $-1 0 28.152173482523462 8.5896476585047417 -1 0 0 I I #
vertex $-1 $447 $556 #
point $-1 45.776631923114707 24.044082307589406 4.7930647908747614 #
vertex $-1 $451 $557 #
point $-1 50.397395528729504 24.044082307589406 4.7930647908747614 #
straight-curve $-1 -51.977904599139379 28.152173482523462 0 0 0 -1 I I #
point $-1 -51.977904599139379 -28.152173482523462 -8.5896476585047417 #
straight-curve $-1 -51.977904599139379 0 -8.5896476585047417 0 1 0 I I #
point $-1 -51.977904599139379 28.152173482523462 -8.5896476585047417 #
straight-curve $-1 -51.977904599139379 0 2.3303776066779678 0 -1 0 I I #
point $-1 -51.977904599139379 -28.152173482523462 2.3303776066779678 #
point $-1 -51.977904599139379 28.152173482523462 2.3303776066779678 #
straight-curve $-1 -51.977904599139379 28.152173482523462 0 0 0 -1 I I #
straight-curve $-1 -51.977904599139379 -28.152173482523462 0 0 0 -1 I I #
straight-curve $-1 -26.846858638667044 -40.846687019973295 8.5896476585047452 0 1 0 I I #
point $-1 -26.846858638667044 -28.152173482523462 8.5896476585047417 #
straight-curve $-1 -16.382784133190285 -16.7811112662962 8.5896476585047417 -1 0 0 I I #
point $-1 -26.846858638667044 -16.7811112662962 8.5896476585047417 #
point $-1 -35.302158106829225 -20.390724698202252 1.7185287225226649 #
point $-1 -30.228978425931917 -20.390724698202252 1.7185287225226649 #
straight-curve $-1 4.2345308832562125 28.152173482523462 60.296273752549858 0 0 -1 I I #
point $-1 4.2345308832562125 28.152173482523462 8.5896476585047417 #
straight-curve $-1 -0.57817999498053041 28.152173482523462 4.009834829578903 -1 0 0 I I #
point $-1 4.2345308832562125 28.152173482523466 4.0098348295788995 #
point $-1 -3.4667417927684667 23.12059008301987 3.6110486695127877 #
point $-1 1.154021812846338 23.12059008301987 3.6110486695127877 #
edge $-1 $524 -8.5896476585047417 $518 -4.0098348295788995 $515 $558 forward 7 unknown #
straight-curve $-1 23.293506862961053 28.152173482523462 4.009834829578903 -1 0 0 I I #
point $-1 51.977904599139379 28.152173482523466 4.0098348295788995 #
straight-curve $-1 51.977904599139379 0 8.5896476585047417 0 1 0 I I #
point $-1 51.977904599139379 28.152173482523462 8.5896476585047417 #
point $-1 44.276631923114707 23.12059008301987 3.6110486695127877 #
point $-1 48.897395528729504 23.12059008301987 3.6110486695127877 #
straight-curve $-1 51.977904599139379 28.152173482523462 0 0 0 -1 I I #
End-of-ACIS-data 