500 0 2 0           
7 Unknown 11 ACIS 5.0 NT 24 Thu Mar 25 15:12:20 1999 
-1 9.9999999999999995e-007 1e-010 
body $-1 $2 $-1 $3 #
body $-1 $4 $-1 $5 #
lump $-1 $-1 $6 $0 #
transform $-1 1 0 0 0 1 0 0 0 1 40.714133121738335 23.482910998698603 7.5483293675006227 1 rotate no_reflect no_shear #
lump $-1 $-1 $7 $1 #
transform $-1 1 0 0 0 1 0 0 0 1 40.714133121738335 23.482910998698603 7.5483293675006227 1 rotate no_reflect no_shear #
shell $-1 $-1 $-1 $8 $-1 $2 #
shell $-1 $-1 $-1 $9 $-1 $4 #
face $-1 $10 $11 $6 $-1 $12 forward single #
face $-1 $13 $14 $7 $-1 $15 forward single #
face $-1 $16 $17 $6 $-1 $18 reversed single #
loop $-1 $-1 $19 $8 #
plane-surface $-1 0 0 7.5483293675006227 0 0 1 1 0 0 forward_v I I I I #
face $-1 $20 $21 $7 $-1 $22 reversed single #
loop $-1 $-1 $23 $9 #
plane-surface $-1 0 -23.482910998698603 0 0 1 0 0 0 1 forward_v I I I I #
face $-1 $24 $25 $6 $-1 $26 reversed single #
loop $-1 $-1 $27 $10 #
plane-surface $-1 0 0 -7.5483293675006227 0 0 1 1 0 0 forward_v I I I I #
coedge $-1 $28 $29 $30 $31 forward $11 $-1 #
face $-1 $32 $33 $7 $-1 $34 reversed single #
loop $-1 $-1 $35 $13 #
plane-surface $-1 0 0 -7.5483293675006227 0 0 1 1 0 0 forward_v I I I I #
coedge $-1 $36 $37 $38 $39 forward $14 $-1 #
face $-1 $40 $41 $6 $-1 $42 reversed single #
loop $-1 $-1 $43 $16 #
plane-surface $-1 0 -23.482910998698603 0 0 1 0 0 0 1 forward_v I I I I #
coedge $-1 $44 $45 $46 $47 forward $17 $-1 #
coedge $-1 $48 $19 $49 $50 forward $11 $-1 #
coedge $-1 $19 $48 $51 $52 forward $11 $-1 #
coedge $-1 $53 $54 $19 $31 reversed $55 $-1 #
edge $-1 $56 -23.482910998698603 $57 23.482910998698603 $30 $58 forward 7 unknown #
face $-1 $59 $60 $7 $-1 $61 reversed single #
loop $-1 $-1 $62 $20 #
plane-surface $-1 -33.193307067808 -29.332501131949879 0 0 1 0 0 0 1 forward_v I I I I #
coedge $-1 $63 $64 $37 $65 forward $21 $-1 #
coedge $-1 $66 $23 $67 $68 reversed $14 $-1 #
coedge $-1 $23 $66 $35 $65 reversed $14 $-1 #
coedge $-1 $69 $70 $23 $39 reversed $60 $-1 #
edge $-1 $71 -7.5483293675006227 $72 7.5483293675006227 $38 $73 forward 7 unknown #
face $-1 $74 $75 $6 $-1 $76 reversed single #
loop $-1 $-1 $77 $24 #
plane-surface $-1 -40.714133121738335 0 0 1 0 0 0 0 -1 forward_v I I I I #
coedge $-1 $78 $51 $79 $80 forward $25 $-1 #
coedge $-1 $81 $27 $78 $82 forward $17 $-1 #
coedge $-1 $27 $81 $83 $84 forward $17 $-1 #
coedge $-1 $54 $53 $27 $47 reversed $55 $-1 #
edge $-1 $85 -23.482910998698603 $86 23.482910998698603 $46 $87 forward 7 unknown #
coedge $-1 $29 $28 $88 $89 forward $11 $-1 #
coedge $-1 $90 $91 $28 $50 reversed $75 $-1 #
edge $-1 $57 -40.714133121738335 $92 40.714133121738335 $49 $93 forward 7 unknown #
coedge $-1 $43 $94 $29 $52 reversed $25 $-1 #
edge $-1 $95 -40.714133121738335 $56 40.714133121738335 $51 $96 forward 7 unknown #
coedge $-1 $46 $30 $94 $97 forward $55 $-1 #
coedge $-1 $30 $46 $90 $98 reversed $55 $-1 #
loop $-1 $-1 $53 $74 #
vertex $-1 $31 $99 #
vertex $-1 $31 $100 #
straight-curve $-1 40.714133121738335 0 7.5483293675006227 0 1 0 I I #
face $-1 $101 $102 $7 $-1 $103 reversed single #
loop $-1 $-1 $38 $32 #
plane-surface $-1 -34.693307067808 -26.407706065324241 0 1 0 0 0 0 -1 forward_v I I I I #
coedge $-1 $104 $105 $106 $107 forward $33 $-1 #
coedge $-1 $108 $35 $109 $110 forward $21 $-1 #
coedge $-1 $35 $108 $69 $111 forward $21 $-1 #
edge $-1 $71 -34.693307067808 $112 -31.693307067808 $35 $113 forward 7 unknown #
coedge $-1 $37 $36 $114 $115 forward $14 $-1 #
coedge $-1 $116 $117 $36 $68 forward $118 $-1 #
edge $-1 $119 31.693307067808 $72 34.693307067808 $67 $120 forward 7 unknown #
coedge $-1 $106 $38 $64 $111 reversed $60 $-1 #
coedge $-1 $38 $106 $116 $121 reversed $60 $-1 #
vertex $-1 $65 $122 #
vertex $-1 $121 $123 #
straight-curve $-1 -34.693307067808 -23.482910998698603 0 0 0 1 I I #
face $-1 $-1 $55 $6 $-1 $124 reversed single #
loop $-1 $-1 $90 $40 #
plane-surface $-1 0 23.482910998698603 0 0 -1 0 0 0 -1 forward_v I I I I #
coedge $-1 $125 $88 $91 $126 forward $41 $-1 #
coedge $-1 $94 $43 $44 $82 reversed $25 $-1 #
coedge $-1 $88 $125 $43 $80 reversed $41 $-1 #
edge $-1 $95 -7.5483293675006227 $127 7.5483293675006227 $79 $128 forward 7 unknown #
coedge $-1 $45 $44 $125 $129 forward $17 $-1 #
edge $-1 $86 -40.714133121738335 $127 40.714133121738335 $78 $130 forward 7 unknown #
coedge $-1 $91 $90 $45 $84 reversed $75 $-1 #
edge $-1 $131 -40.714133121738335 $85 40.714133121738335 $83 $132 forward 7 unknown #
vertex $-1 $47 $133 #
vertex $-1 $97 $134 #
straight-curve $-1 40.714133121738335 0 -7.5483293675006227 0 -1 0 I I #
coedge $-1 $77 $79 $48 $89 reversed $41 $-1 #
edge $-1 $92 -23.482910998698603 $95 23.482910998698603 $88 $135 forward 7 unknown #
coedge $-1 $83 $49 $54 $98 forward $75 $-1 #
coedge $-1 $49 $83 $77 $126 reversed $75 $-1 #
vertex $-1 $50 $136 #
straight-curve $-1 0 23.482910998698603 7.5483293675006227 -1 0 0 I I #
coedge $-1 $51 $78 $53 $97 reversed $25 $-1 #
vertex $-1 $89 $137 #
straight-curve $-1 0 -23.482910998698603 7.5483293675006227 1 0 0 I I #
edge $-1 $56 -7.5483293675006227 $86 7.5483293675006227 $53 $138 forward 7 unknown #
edge $-1 $57 -7.5483293675006227 $85 7.5483293675006227 $54 $139 forward 7 unknown #
point $-1 40.714133121738335 -23.482910998698603 7.5483293675006227 #
point $-1 40.714133121738335 23.482910998698603 7.5483293675006227 #
face $-1 $-1 $118 $7 $-1 $140 forward single #
loop $-1 $-1 $141 $59 #
plane-surface $-1 -31.693307067808 -26.407706065324241 0 -1 0 0 0 0 1 forward_v I I I I #
coedge $-1 $142 $62 $108 $143 reversed $33 $-1 #
coedge $-1 $62 $142 $144 $145 reversed $33 $-1 #
coedge $-1 $70 $69 $62 $107 reversed $60 $-1 #
edge $-1 $146 -7.5483293675006227 $147 7.5483293675006227 $106 $148 forward 7 unknown #
coedge $-1 $64 $63 $104 $143 forward $21 $-1 #
coedge $-1 $114 $141 $63 $110 reversed $102 $-1 #
edge $-1 $112 -2.9247950666256379 $149 2.9247950666256379 $109 $150 forward 7 unknown #
edge $-1 $147 -2.9247950666256379 $71 2.9247950666256379 $69 $151 forward 7 unknown #
vertex $-1 $110 $152 #
straight-curve $-1 0 -23.482910998698603 -7.5483293675006227 1 0 0 I I #
coedge $-1 $153 $109 $66 $115 reversed $102 $-1 #
edge $-1 $119 -7.5483293675006227 $112 7.5483293675006227 $114 $154 forward 7 unknown #
coedge $-1 $144 $67 $70 $121 forward $118 $-1 #
coedge $-1 $67 $144 $153 $155 forward $118 $-1 #
loop $-1 $-1 $67 $101 #
vertex $-1 $68 $156 #
straight-curve $-1 0 -23.482910998698603 7.5483293675006227 -1 0 0 I I #
edge $-1 $72 -2.9247950666256379 $146 2.9247950666256379 $70 $157 forward 7 unknown #
point $-1 -34.693307067808 -23.482910998698603 -7.5483293675006227 #
point $-1 -34.693307067808 -23.482910998698603 7.5483293675006227 #
plane-surface $-1 40.714133121738335 0 0 -1 0 0 0 0 1 forward_v I I I I #
coedge $-1 $79 $77 $81 $129 reversed $41 $-1 #
edge $-1 $92 -7.5483293675006227 $131 7.5483293675006227 $91 $158 forward 7 unknown #
vertex $-1 $129 $159 #
straight-curve $-1 -40.714133121738335 -23.482910998698603 0 0 0 -1 I I #
edge $-1 $127 -23.482910998698603 $131 23.482910998698603 $125 $160 forward 7 unknown #
straight-curve $-1 0 -23.482910998698603 -7.5483293675006227 -1 0 0 I I #
vertex $-1 $84 $161 #
straight-curve $-1 0 23.482910998698603 -7.5483293675006227 1 0 0 I I #
point $-1 40.714133121738335 23.482910998698603 -7.5483293675006227 #
point $-1 40.714133121738335 -23.482910998698603 -7.5483293675006227 #
straight-curve $-1 -40.714133121738335 0 7.5483293675006227 0 -1 0 I I #
point $-1 -40.714133121738335 23.482910998698603 7.5483293675006227 #
point $-1 -40.714133121738335 -23.482910998698603 7.5483293675006227 #
straight-curve $-1 40.714133121738335 -23.482910998698603 0 0 0 -1 I I #
straight-curve $-1 40.714133121738335 23.482910998698603 0 0 0 -1 I I #
plane-surface $-1 0 0 7.5483293675006227 0 0 1 1 0 0 forward_v I I I I #
coedge $-1 $109 $153 $142 $162 forward $102 $-1 #
coedge $-1 $105 $104 $141 $162 reversed $33 $-1 #
edge $-1 $149 -1.5 $147 1.5 $104 $163 forward 7 unknown #
coedge $-1 $117 $116 $105 $145 forward $118 $-1 #
edge $-1 $146 -1.5 $164 1.5 $105 $165 forward 7 unknown #
vertex $-1 $121 $166 #
vertex $-1 $111 $167 #
straight-curve $-1 -34.693307067808 -29.332501131949879 0 0 0 -1 I I #
vertex $-1 $162 $168 #
straight-curve $-1 -31.693307067808 -26.407706065324241 -7.5483293675006227 0 -1 0 I I #
straight-curve $-1 -34.693307067808 -26.407706065324241 -7.5483293675006227 0 1 0 I I #
point $-1 -31.693307067808 -23.482910998698603 -7.5483293675006227 #
coedge $-1 $141 $114 $117 $155 reversed $102 $-1 #
straight-curve $-1 -31.693307067808 -23.482910998698603 0 0 0 -1 I I #
edge $-1 $164 -2.9247950666256379 $119 2.9247950666256379 $153 $169 forward 7 unknown #
point $-1 -31.693307067808 -23.482910998698603 7.5483293675006227 #
straight-curve $-1 -34.693307067808 -26.407706065324241 7.5483293675006227 0 -1 0 I I #
straight-curve $-1 -40.714133121738335 23.482910998698603 0 0 0 -1 I I #
point $-1 -40.714133121738335 -23.482910998698603 -7.5483293675006227 #
straight-curve $-1 -40.714133121738335 0 -7.5483293675006227 0 1 0 I I #
point $-1 -40.714133121738335 23.482910998698603 -7.5483293675006227 #
edge $-1 $164 -7.5483293675006227 $149 7.5483293675006227 $141 $170 forward 7 unknown #
straight-curve $-1 -33.193307067808 -29.332501131949879 -7.5483293675006227 -1 0 0 I I #
vertex $-1 $155 $171 #
straight-curve $-1 -33.193307067808 -29.332501131949879 7.5483293675006227 1 0 0 I I #
point $-1 -34.693307067808 -29.332501131949879 7.5483293675006227 #
point $-1 -34.693307067808 -29.332501131949879 -7.5483293675006227 #
point $-1 -31.693307067808 -29.332501131949879 -7.5483293675006227 #
straight-curve $-1 -31.693307067808 -26.407706065324241 7.5483293675006227 0 1 0 I I #
straight-curve $-1 -31.693307067808 -29.332501131949879 0 0 0 -1 I I #
point $-1 -31.693307067808 -29.332501131949879 7.5483293675006227 #
End-of-ACIS-data 